<svg width="24" height="24" viewBox="0 0 24 24" fill="none" xmlns="http://www.w3.org/2000/svg">
<path d="M8.55086 12.795L8.05924 11.4465L7.56761 12.795H8.55086Z" fill="black"/>
<path d="M11.8285 12.6902H13.0115C13.355 12.6902 13.6335 12.9687 13.6335 13.3122C13.6335 13.6558 13.355 13.9342 13.0115 13.9342H11.8285V12.6902Z" fill="black"/>
<path d="M11.8285 11.6901H12.731C13.0745 11.6901 13.353 11.4117 13.353 11.0681C13.353 10.7246 13.0745 10.4461 12.731 10.4461H11.8285V11.6901Z" fill="black"/>
<path fill-rule="evenodd" clip-rule="evenodd" d="M12.5 3.0625C7.52944 3.0625 3.5 7.09194 3.5 12.0625C3.5 17.0331 7.52944 21.0625 12.5 21.0625C17.4706 21.0625 21.5 17.0331 21.5 12.0625C21.5 7.09194 17.4706 3.0625 12.5 3.0625ZM8.52899 9.81552C8.45703 9.61813 8.26934 9.48678 8.05924 9.48678C7.84914 9.48678 7.66145 9.61813 7.58948 9.81552L5.98129 14.2266C5.8867 14.4861 6.02034 14.773 6.27978 14.8676C6.53922 14.9622 6.82621 14.8286 6.9208 14.5691L7.20303 13.795H8.91544L9.19768 14.5691C9.29227 14.8286 9.57926 14.9622 9.8387 14.8676C10.0981 14.773 10.2318 14.4861 10.1372 14.2266L8.52899 9.81552ZM11.3285 9.4461H12.731C13.6268 9.4461 14.353 10.1723 14.353 11.0681C14.353 11.4353 14.231 11.7741 14.0253 12.0459C14.3961 12.3432 14.6335 12.8 14.6335 13.3122C14.6335 14.208 13.9073 14.9342 13.0115 14.9342H11.3285C11.0523 14.9342 10.8285 14.7104 10.8285 14.4342V9.9461C10.8285 9.66996 11.0523 9.4461 11.3285 9.4461ZM17.0648 10.3948C16.9449 10.3867 16.8253 10.4137 16.7205 10.4725C16.2604 10.731 16.316 11.4102 16.8119 11.5906L17.7387 11.9276C18.6615 12.2632 19.0577 13.3503 18.5672 14.2009C18.2852 14.69 17.7636 14.9913 17.199 14.9913H17.0377C16.3091 14.9913 15.6477 14.5657 15.346 13.9025L15.3392 13.8876C15.2248 13.6362 15.3358 13.3397 15.5872 13.2254C15.8385 13.111 16.135 13.222 16.2494 13.4734L16.2562 13.4883C16.3956 13.7947 16.7011 13.9913 17.0377 13.9913H17.199C17.4061 13.9913 17.5975 13.8808 17.7009 13.7014C17.8809 13.3893 17.7355 12.9905 17.397 12.8674L16.4702 12.5304C15.1707 12.0578 15.0252 10.2781 16.2306 9.60072C16.5052 9.44648 16.8187 9.37573 17.1329 9.39715L17.2138 9.40267C17.8817 9.44822 18.4757 9.84388 18.775 10.4427L18.8217 10.5361C18.9452 10.7831 18.845 11.0835 18.598 11.2069C18.351 11.3304 18.0507 11.2303 17.9272 10.9832L17.8805 10.8898C17.7396 10.608 17.4601 10.4218 17.1458 10.4004L17.0648 10.3948Z" fill="black"/>
<path d="M4.39985 5.38089C4.57569 5.16797 4.54563 4.85282 4.33271 4.67698C4.11979 4.50113 3.80464 4.53119 3.6288 4.74411C1.98685 6.73228 1 9.28281 1 12.0625C1 14.8422 1.98685 17.3927 3.6288 19.3809C3.80464 19.5938 4.11979 19.6239 4.33271 19.448C4.54563 19.2722 4.57569 18.957 4.39985 18.7441C2.90042 16.9285 2 14.6013 2 12.0625C2 9.52367 2.90042 7.19648 4.39985 5.38089Z" fill="black"/>
<path d="M21.3712 4.74411C21.1954 4.53119 20.8802 4.50113 20.6673 4.67698C20.4544 4.85282 20.4243 5.16797 20.6002 5.38089C22.0996 7.19648 23 9.52367 23 12.0625C23 14.6013 22.0996 16.9285 20.6002 18.7441C20.4243 18.957 20.4544 19.2722 20.6673 19.448C20.8802 19.6239 21.1954 19.5938 21.3712 19.3809C23.0132 17.3927 24 14.8422 24 12.0625C24 9.28281 23.0132 6.73228 21.3712 4.74411Z" fill="black"/>
</svg>
