<svg width="24" height="24" viewBox="0 0 24 24" fill="none" xmlns="http://www.w3.org/2000/svg">
<path d="M8.90811 13.045L8.05924 10.7167L7.21037 13.045H8.90811Z" fill="black"/>
<path d="M11.5785 12.4402H13.0115C13.4931 12.4402 13.8835 12.8306 13.8835 13.3122C13.8835 13.7938 13.4931 14.1842 13.0115 14.1842H11.5785V12.4402Z" fill="black"/>
<path d="M11.5785 11.9401H12.731C13.2126 11.9401 13.603 11.5497 13.603 11.0681C13.603 10.5865 13.2126 10.1961 12.731 10.1961H11.5785V11.9401Z" fill="black"/>
<path fill-rule="evenodd" clip-rule="evenodd" d="M12.5 3.3125C7.66751 3.3125 3.75 7.23001 3.75 12.0625C3.75 16.895 7.66751 20.8125 12.5 20.8125C17.3325 20.8125 21.25 16.895 21.25 12.0625C21.25 7.23001 17.3325 3.3125 12.5 3.3125ZM8.29412 9.90115C8.25813 9.80246 8.16429 9.73678 8.05924 9.73678C7.95419 9.73678 7.86034 9.80246 7.82436 9.90115L6.21616 14.3122C6.16887 14.442 6.23569 14.5855 6.36541 14.6328C6.49513 14.68 6.63863 14.6132 6.68592 14.4835L7.02808 13.545H9.0904L9.43256 14.4835C9.47985 14.6132 9.62335 14.68 9.75307 14.6328C9.88279 14.5855 9.9496 14.442 9.90231 14.3122L8.29412 9.90115ZM11.3285 9.6961H12.731C13.4887 9.6961 14.103 10.3104 14.103 11.0681C14.103 11.476 13.925 11.8423 13.6425 12.0936C14.0827 12.322 14.3835 12.782 14.3835 13.3122C14.3835 14.07 13.7692 14.6842 13.0115 14.6842H11.3285C11.1904 14.6842 11.0785 14.5723 11.0785 14.4342V9.9461C11.0785 9.80803 11.1904 9.6961 11.3285 9.6961ZM17.0818 10.1454C16.9134 10.1339 16.7452 10.1719 16.598 10.2546C15.9516 10.6178 16.0297 11.5721 16.7265 11.8255L17.6533 12.1626C18.43 12.445 18.7635 13.3601 18.3507 14.076C18.1133 14.4877 17.6742 14.7413 17.199 14.7413H17.0377C16.4071 14.7413 15.8347 14.3729 15.5735 13.799L15.5667 13.784C15.5095 13.6583 15.565 13.5101 15.6907 13.4529C15.8164 13.3957 15.9646 13.4513 16.0218 13.5769L16.0286 13.5919C16.2086 13.9874 16.6031 14.2413 17.0377 14.2413H17.199C17.4955 14.2413 17.7694 14.0831 17.9175 13.8263C18.1751 13.3796 17.967 12.8087 17.4824 12.6325L16.5556 12.2954C15.457 11.8959 15.334 10.3913 16.3531 9.81867C16.5852 9.68828 16.8503 9.62846 17.1158 9.64657L17.1968 9.65209C17.7763 9.69161 18.2917 10.0349 18.5514 10.5545L18.5981 10.6479C18.6598 10.7714 18.6097 10.9216 18.4862 10.9833C18.3627 11.045 18.2126 10.995 18.1508 10.8715L18.1041 10.7781C17.9236 10.417 17.5655 10.1784 17.1628 10.1509L17.0818 10.1454Z" fill="black"/>
<path d="M4.20709 5.22169C4.29501 5.11523 4.27998 4.95766 4.17352 4.86974C4.06706 4.78182 3.90948 4.79685 3.82156 4.90331C2.21524 6.84833 1.25 9.34303 1.25 12.0625C1.25 14.782 2.21524 17.2767 3.82156 19.2217C3.90948 19.3282 4.06706 19.3432 4.17352 19.2553C4.27998 19.1673 4.29501 19.0098 4.20709 18.9033C2.67203 17.0446 1.75 14.6615 1.75 12.0625C1.75 9.46346 2.67203 7.08043 4.20709 5.22169Z" fill="black"/>
<path d="M21.1784 4.90331C21.0905 4.79685 20.9329 4.78182 20.8265 4.86974C20.72 4.95766 20.705 5.11523 20.7929 5.22169C22.328 7.08043 23.25 9.46346 23.25 12.0625C23.25 14.6615 22.328 17.0446 20.7929 18.9033C20.705 19.0098 20.72 19.1673 20.8265 19.2553C20.9329 19.3432 21.0905 19.3282 21.1784 19.2217C22.7848 17.2767 23.75 14.782 23.75 12.0625C23.75 9.34303 22.7848 6.84833 21.1784 4.90331Z" fill="black"/>
</svg>
