<svg width="24" height="24" viewBox="0 0 24 24" fill="none" xmlns="http://www.w3.org/2000/svg">
<path d="M8.32067 12.4972L8.12827 11.9695L7.93587 12.4972H8.32067Z" fill="black"/>
<path d="M11.6956 12.7529H12.5854C12.7979 12.7529 12.9702 12.9252 12.9702 13.1377C12.9702 13.3503 12.7979 13.5225 12.5854 13.5225H11.6956V12.7529Z" fill="black"/>
<path d="M11.6956 11.5028H12.3329C12.5454 11.5028 12.7177 11.3305 12.7177 11.118C12.7177 10.9055 12.5454 10.7332 12.3329 10.7332H11.6956V11.5028Z" fill="black"/>
<path fill-rule="evenodd" clip-rule="evenodd" d="M12 3.99997C7.58172 3.99997 4 7.58169 4 12C4 16.4182 7.58172 20 12 20C16.4183 20 20 16.4182 20 12C20 7.58169 16.4183 3.99997 12 3.99997ZM8.71547 9.93074C8.62551 9.684 8.3909 9.51982 8.12827 9.51982C7.86565 9.51982 7.63104 9.684 7.54108 9.93074L6.0937 13.9007C5.97547 14.225 6.14252 14.5838 6.46682 14.702C6.79111 14.8202 7.14986 14.6532 7.26809 14.3289L7.48015 13.7472H8.7764L8.98846 14.3289C9.10669 14.6532 9.46543 14.8202 9.78973 14.702C10.114 14.5838 10.2811 14.225 10.1628 13.9007L8.71547 9.93074ZM11.0706 9.48317C10.7255 9.48317 10.4456 9.76299 10.4456 10.1082V14.1475C10.4456 14.4927 10.7255 14.7725 11.0706 14.7725H12.5854C13.4882 14.7725 14.2202 14.0406 14.2202 13.1377C14.2202 12.6799 14.032 12.2661 13.7288 11.9693C13.8804 11.7214 13.9677 11.4299 13.9677 11.118C13.9677 10.2151 13.2358 9.48317 12.3329 9.48317H11.0706ZM16.2214 10.6867C16.1475 10.6816 16.0737 10.6983 16.0092 10.7346C15.7255 10.8939 15.7598 11.3126 16.0655 11.4238L16.8996 11.7271C17.8323 12.0663 18.2328 13.1652 17.7371 14.025C17.452 14.5193 16.9247 14.8239 16.3541 14.8239H16.2089C15.4846 14.8239 14.827 14.4007 14.5271 13.7415L14.5209 13.728C14.378 13.4138 14.5168 13.0432 14.8309 12.9003C15.1451 12.7573 15.5157 12.8961 15.6587 13.2103L15.6648 13.2237C15.7619 13.437 15.9746 13.5739 16.2089 13.5739H16.3541C16.4779 13.5739 16.5923 13.5078 16.6542 13.4005C16.7618 13.214 16.6749 12.9755 16.4725 12.9019L15.6383 12.5985C14.3281 12.1221 14.1814 10.3277 15.3968 9.64481C15.6736 9.4893 15.9897 9.41797 16.3064 9.43957L16.3793 9.44454C17.0423 9.48975 17.6319 9.8825 17.929 10.4769L17.971 10.561C18.1254 10.8697 18.0002 11.2451 17.6914 11.3995C17.3827 11.5538 17.0073 11.4286 16.8529 11.1199L16.8109 11.0358C16.7118 10.8377 16.5153 10.7067 16.2943 10.6916L16.2214 10.6867Z" fill="black"/>
<path d="M4.28537 5.63677C4.63705 5.21094 4.57694 4.58063 4.1511 4.22895C3.72526 3.87727 3.09496 3.93738 2.74328 4.36322C1.03006 6.43768 0 9.09987 0 12C0 14.9001 1.03006 17.5623 2.74328 19.6368C3.09496 20.0626 3.72526 20.1227 4.1511 19.771C4.57694 19.4194 4.63705 18.7891 4.28537 18.3632C2.85721 16.6339 2 14.4184 2 12C2 9.5816 2.85721 7.36608 4.28537 5.63677Z" fill="black"/>
<path d="M21.2567 4.36322C20.905 3.93738 20.2747 3.87727 19.8489 4.22895C19.4231 4.58063 19.3629 5.21094 19.7146 5.63677C21.1428 7.36608 22 9.5816 22 12C22 14.4184 21.1428 16.6339 19.7146 18.3632C19.3629 18.7891 19.4231 19.4194 19.8489 19.771C20.2747 20.1227 20.905 20.0626 21.2567 19.6368C22.9699 17.5623 24 14.9001 24 12C24 9.09987 22.9699 6.43768 21.2567 4.36322Z" fill="black"/>
</svg>
