<svg width="24" height="24" viewBox="0 0 24 24" fill="none" xmlns="http://www.w3.org/2000/svg">
<path d="M16.2214 10.6867C16.1475 10.6817 16.0737 10.6983 16.0092 10.7346C15.7255 10.8939 15.7598 11.3127 16.0655 11.4238L16.8996 11.7271C17.8323 12.0663 18.2328 13.1652 17.7371 14.025C17.452 14.5194 16.9247 14.824 16.3541 14.824H16.2089C15.4846 14.824 14.827 14.4008 14.5271 13.7415L14.5209 13.728C14.378 13.4139 14.5168 13.0433 14.8309 12.9003C15.1451 12.7573 15.5157 12.8961 15.6587 13.2103L15.6648 13.2238C15.7619 13.4371 15.9746 13.574 16.2089 13.574H16.3541C16.4779 13.574 16.5923 13.5079 16.6542 13.4006C16.7618 13.214 16.6749 12.9755 16.4725 12.9019L15.6383 12.5986C14.3281 12.1221 14.1814 10.3278 15.3968 9.64484C15.6736 9.48933 15.9897 9.418 16.3064 9.4396L16.3793 9.44457C17.0423 9.48978 17.6319 9.88253 17.929 10.4769L17.971 10.561C18.1254 10.8698 18.0002 11.2452 17.6914 11.3995C17.3827 11.5539 17.0073 11.4287 16.8529 11.1199L16.8109 11.0359C16.7118 10.8377 16.5153 10.7067 16.2943 10.6917L16.2214 10.6867Z" fill="black"/>
<path fill-rule="evenodd" clip-rule="evenodd" d="M11.0706 9.4832C10.7255 9.4832 10.4456 9.76303 10.4456 10.1082V14.1476C10.4456 14.4927 10.7255 14.7726 11.0706 14.7726H12.5854C13.4882 14.7726 14.2202 14.0406 14.2202 13.1378C14.2202 12.68 14.032 12.2661 13.7288 11.9694C13.8804 11.7214 13.9677 11.4299 13.9677 11.118C13.9677 10.2151 13.2358 9.4832 12.3329 9.4832H11.0706ZM11.6956 12.7529H12.5854C12.7979 12.7529 12.9702 12.9252 12.9702 13.1378C12.9702 13.3503 12.7979 13.5226 12.5854 13.5226H11.6956V12.7529ZM11.6956 11.5028H12.3329C12.5454 11.5028 12.7177 11.3306 12.7177 11.118C12.7177 10.9055 12.5454 10.7332 12.3329 10.7332H11.6956V11.5028Z" fill="black"/>
<path fill-rule="evenodd" clip-rule="evenodd" d="M8.12827 9.51985C8.3909 9.51985 8.62551 9.68403 8.71547 9.93077L10.1628 13.9008C10.2811 14.2251 10.114 14.5838 9.78973 14.702C9.46543 14.8203 9.10669 14.6532 8.98846 14.3289L8.7764 13.7473H7.48015L7.26809 14.3289C7.14986 14.6532 6.79111 14.8203 6.46682 14.702C6.14252 14.5838 5.97547 14.2251 6.0937 13.9008L7.54108 9.93077C7.63104 9.68403 7.86565 9.51985 8.12827 9.51985ZM8.12827 11.9695L8.32067 12.4973H7.93587L8.12827 11.9695Z" fill="black"/>
<path fill-rule="evenodd" clip-rule="evenodd" d="M3.5 12C3.5 7.30558 7.30558 3.5 12 3.5C16.6944 3.5 20.5 7.30558 20.5 12C20.5 16.6944 16.6944 20.5 12 20.5C7.30558 20.5 3.5 16.6944 3.5 12ZM12 5.5C8.41015 5.5 5.5 8.41015 5.5 12C5.5 15.5899 8.41015 18.5 12 18.5C15.5899 18.5 18.5 15.5899 18.5 12C18.5 8.41015 15.5899 5.5 12 5.5Z" fill="black"/>
<path d="M4.1511 4.22895C4.57694 4.58064 4.63705 5.21094 4.28537 5.63678C2.85721 7.36608 2 9.58161 2 12C2 14.4184 2.85721 16.6339 4.28537 18.3632C4.63705 18.7891 4.57694 19.4194 4.1511 19.771C3.72526 20.1227 3.09496 20.0626 2.74328 19.6368C1.03006 17.5623 0 14.9001 0 12C0 9.09988 1.03006 6.43768 2.74328 4.36322C3.09496 3.93738 3.72526 3.87727 4.1511 4.22895Z" fill="black"/>
<path d="M19.8489 4.22895C20.2747 3.87727 20.905 3.93738 21.2567 4.36322C22.9699 6.43768 24 9.09988 24 12C24 14.9001 22.9699 17.5623 21.2567 19.6368C20.905 20.0626 20.2747 20.1227 19.8489 19.771C19.4231 19.4194 19.3629 18.7891 19.7146 18.3632C21.1428 16.6339 22 14.4184 22 12C22 9.58161 21.1428 7.36608 19.7146 5.63678C19.3629 5.21094 19.4231 4.58064 19.8489 4.22895Z" fill="black"/>
</svg>
