<svg width="24" height="24" viewBox="0 0 24 24" fill="none" xmlns="http://www.w3.org/2000/svg">
<path d="M16.5139 10.5718C16.4291 10.566 16.3445 10.5851 16.2704 10.6267C15.9452 10.8095 15.9845 11.2897 16.3351 11.4171L17.2156 11.7373C18.1798 12.0879 18.5938 13.224 18.0813 14.1128C17.7866 14.6239 17.2415 14.9388 16.6515 14.9388H16.4983C15.7473 14.9388 15.0656 14.5001 14.7546 13.8166L14.7482 13.8024C14.6052 13.4882 14.744 13.1176 15.0582 12.9746C15.3724 12.8317 15.7429 12.9705 15.8859 13.2846L15.8924 13.2988C16.0005 13.5364 16.2373 13.6888 16.4983 13.6888H16.6515C16.7947 13.6888 16.9269 13.6124 16.9984 13.4884C17.1228 13.2728 17.0223 12.9971 16.7884 12.9121L15.9079 12.5919C14.5528 12.0991 14.4011 10.2433 15.6581 9.53697C15.9444 9.37614 16.2713 9.30236 16.5989 9.3247L16.6758 9.32994C17.3634 9.37683 17.9748 9.78413 18.2829 10.4006L18.3273 10.4893C18.4816 10.7981 18.3564 11.1735 18.0477 11.3278C17.7389 11.4821 17.3635 11.357 17.2092 11.0482L17.1648 10.9595C17.0547 10.7393 16.8364 10.5938 16.5908 10.577L16.5139 10.5718Z" fill="black"/>
<path fill-rule="evenodd" clip-rule="evenodd" d="M11.0746 9.37087C10.7294 9.37087 10.4496 9.6507 10.4496 9.99587V14.2597C10.4496 14.6048 10.7294 14.8847 11.0746 14.8847H12.6734C13.6073 14.8847 14.3644 14.1276 14.3644 13.1937C14.3644 12.7102 14.1614 12.2741 13.8361 11.966C14.0019 11.7045 14.0979 11.3943 14.0979 11.0618C14.0979 10.1279 13.3408 9.37087 12.407 9.37087H11.0746ZM11.6996 12.7528H12.6734C12.917 12.7528 13.1144 12.9502 13.1144 13.1937C13.1144 13.4372 12.917 13.6347 12.6734 13.6347H11.6996V12.7528ZM11.6996 11.5027H12.407C12.6505 11.5027 12.8479 11.3053 12.8479 11.0618C12.8479 10.8183 12.6505 10.6209 12.407 10.6209H11.6996V11.5027Z" fill="black"/>
<path fill-rule="evenodd" clip-rule="evenodd" d="M7.96876 9.40964C8.23139 9.40964 8.466 9.57383 8.55595 9.82056L10.0837 14.0111C10.202 14.3354 10.0349 14.6941 9.71063 14.8124C9.38633 14.9306 9.02759 14.7636 8.90935 14.4393L8.67719 13.8025H7.26033L7.02817 14.4393C6.90993 14.7636 6.55119 14.9306 6.22689 14.8124C5.9026 14.6941 5.73555 14.3354 5.85378 14.0111L7.38157 9.82056C7.47152 9.57383 7.70613 9.40964 7.96876 9.40964ZM7.96876 11.8593L8.22146 12.5525H7.71606L7.96876 11.8593Z" fill="black"/>
<path fill-rule="evenodd" clip-rule="evenodd" d="M3.25 12C3.25 7.16751 7.16751 3.25 12 3.25C16.8325 3.25 20.75 7.16751 20.75 12C20.75 16.8325 16.8325 20.75 12 20.75C7.16751 20.75 3.25 16.8325 3.25 12ZM12 4.75C7.99594 4.75 4.75 7.99594 4.75 12C4.75 16.0041 7.99594 19.25 12 19.25C16.0041 19.25 19.25 16.0041 19.25 12C19.25 7.99594 16.0041 4.75 12 4.75Z" fill="black"/>
<path d="M3.99191 4.42171C4.31129 4.68548 4.35637 5.15821 4.09261 5.47758C2.62882 7.25003 1.75 9.52139 1.75 12C1.75 14.4786 2.62882 16.75 4.09261 18.5224C4.35637 18.8418 4.31129 19.3145 3.99191 19.5783C3.67253 19.842 3.1998 19.797 2.93604 19.4776C1.25845 17.4463 0.25 14.8399 0.25 12C0.25 9.16009 1.25845 6.55373 2.93604 4.52242C3.1998 4.20304 3.67253 4.15795 3.99191 4.42171Z" fill="black"/>
<path d="M20.0081 4.42171C20.3275 4.15795 20.8002 4.20304 21.064 4.52242C22.7415 6.55373 23.75 9.16009 23.75 12C23.75 14.8399 22.7415 17.4463 21.064 19.4776C20.8002 19.797 20.3275 19.842 20.0081 19.5783C19.6887 19.3145 19.6436 18.8418 19.9074 18.5224C21.3712 16.75 22.25 14.4786 22.25 12C22.25 9.52139 21.3712 7.25003 19.9074 5.47758C19.6436 5.15821 19.6887 4.68548 20.0081 4.42171Z" fill="black"/>
</svg>
