<svg width="24" height="24" viewBox="0 0 24 24" fill="none" xmlns="http://www.w3.org/2000/svg">
<path d="M5.75 17.0001C5.75 16.5858 5.41421 16.2501 5 16.2501C4.58579 16.2501 4.25 16.5858 4.25 17.0001V18.2501H2.99964C2.58543 18.2501 2.24964 18.5858 2.24964 19.0001C2.24964 19.4143 2.58543 19.7501 2.99964 19.7501H4.25V20.9999C4.25 21.4141 4.58579 21.7499 5 21.7499C5.41421 21.7499 5.75 21.4141 5.75 20.9999V19.7501H6.99951C7.41373 19.7501 7.74951 19.4143 7.74951 19.0001C7.74951 18.5858 7.41373 18.2501 6.99951 18.2501H5.75V17.0001Z" fill="black"/>
<path fill-rule="evenodd" clip-rule="evenodd" d="M0.0512986 17.5149C0 17.8388 0 18.2259 0 19.0001C0 19.7742 0 20.1613 0.0512986 20.4852C0.33368 22.2681 1.73197 23.6664 3.51486 23.9488C3.83874 24.0001 4.22583 24.0001 5 24.0001C5.77417 24.0001 6.16126 24.0001 6.48514 23.9488C8.26803 23.6664 9.66632 22.2681 9.9487 20.4852C10 20.1613 10 19.7742 10 19.0001C10 18.2259 10 17.8388 9.9487 17.5149C9.66632 15.732 8.26803 14.3337 6.48514 14.0514C6.16126 14.0001 5.77417 14.0001 5 14.0001C4.22583 14.0001 3.83874 14.0001 3.51486 14.0514C1.73197 14.3337 0.33368 15.732 0.0512986 17.5149ZM3.74951 22.4672C3.9274 22.4954 4.16851 22.5001 5 22.5001C5.83149 22.5001 6.0726 22.4954 6.25049 22.4672C7.39154 22.2865 8.28644 21.3916 8.46717 20.2505C8.49535 20.0726 8.5 19.8315 8.5 19.0001C8.5 18.1686 8.49535 17.9275 8.46717 17.7496C8.28644 16.6085 7.39154 15.7136 6.25049 15.5329C6.0726 15.5047 5.83149 15.5001 5 15.5001C4.16851 15.5001 3.9274 15.5047 3.74951 15.5329C2.60846 15.7136 1.71356 16.6085 1.53283 17.7496C1.50466 17.9275 1.5 18.1686 1.5 19.0001C1.5 19.8315 1.50466 20.0726 1.53283 20.2505C1.71356 21.3916 2.60846 22.2865 3.74951 22.4672Z" fill="black"/>
<path fill-rule="evenodd" clip-rule="evenodd" d="M10.176 22.7501C10.4746 22.2968 10.7016 21.7916 10.8413 21.2501H16.8C17.3724 21.2501 17.7566 21.2495 18.0525 21.2253C18.3396 21.2018 18.4769 21.16 18.5675 21.1138C18.8027 20.994 18.9939 20.8027 19.1137 20.5675C19.1599 20.477 19.2018 20.3397 19.2252 20.0526C19.2494 19.7567 19.25 19.3725 19.25 18.8001V10.4336L13.5 10.4336C12.5335 10.4336 11.75 9.65012 11.75 8.68362L11.75 2.75006L7.69999 2.75006C7.12756 2.75006 6.74334 2.75064 6.44746 2.77481C6.16034 2.79827 6.02306 2.84016 5.9325 2.8863C5.69729 3.00614 5.50607 3.19737 5.38623 3.43257C5.34008 3.52313 5.2982 3.66041 5.27474 3.94753C5.25057 4.24341 5.24999 4.62763 5.24999 5.20006V13L4.88427 13C4.43915 12.9999 4.0711 12.9998 3.74998 13.0154L3.74998 5.16961C3.74997 4.63547 3.74997 4.18961 3.77972 3.82539C3.81076 3.4455 3.87787 3.08884 4.04972 2.75158C4.31337 2.23414 4.73407 1.81344 5.25151 1.54979C5.58877 1.37794 5.94543 1.31083 6.32531 1.2798C6.68955 1.25004 7.1354 1.25004 7.66955 1.25006L12.7925 1.25003C13.2137 1.24978 13.5452 1.24959 13.8654 1.3269C14.1475 1.39503 14.4171 1.50739 14.664 1.65981C14.9443 1.83278 15.1775 2.06838 15.4738 2.36769L19.6563 6.58776C19.9493 6.8831 20.18 7.1156 20.3492 7.39373C20.4984 7.63884 20.6083 7.90578 20.6749 8.18486C20.7504 8.50155 20.7503 8.82908 20.75 9.24515L20.75 18.8304C20.75 19.3646 20.75 19.8105 20.7202 20.1747C20.6892 20.5546 20.6221 20.9113 20.4503 21.2485C20.1866 21.766 19.7659 22.1867 19.2485 22.4503C18.9112 22.6222 18.5545 22.6893 18.1747 22.7203C17.8104 22.7501 17.3646 22.7501 16.8304 22.7501H10.176ZM13.25 2.75554C13.378 2.76037 13.4479 2.76921 13.5133 2.78499C13.6415 2.81596 13.764 2.86703 13.8763 2.93631C13.9852 3.00354 14.088 3.10031 14.4598 3.47542L18.5401 7.59252C18.9073 7.96302 19.002 8.06533 19.0678 8.17346C19.1356 8.28487 19.1856 8.40621 19.2158 8.53307C19.2362 8.61831 19.2447 8.71132 19.2481 8.93362H13.5C13.3619 8.93362 13.25 8.82169 13.25 8.68362L13.25 2.75554Z" fill="black"/>
</svg>
