<svg width="24" height="24" viewBox="0 0 24 24" fill="none" xmlns="http://www.w3.org/2000/svg">
<path d="M5.25 17C5.25 16.8619 5.13807 16.75 5 16.75C4.86193 16.75 4.75 16.8619 4.75 17V18.75H2.99964C2.86157 18.75 2.74964 18.8619 2.74964 19C2.74964 19.1381 2.86157 19.25 2.99964 19.25H4.75V20.9999C4.75 21.1379 4.86193 21.2499 5 21.2499C5.13807 21.2499 5.25 21.1379 5.25 20.9999V19.25H6.99951C7.13758 19.25 7.24951 19.1381 7.24951 19C7.24951 18.8619 7.13758 18.75 6.99951 18.75H5.25V17Z" fill="black"/>
<path fill-rule="evenodd" clip-rule="evenodd" d="M0.0512986 17.5149C0 17.8387 0 18.2258 0 19C0 19.7742 0 20.1613 0.0512986 20.4851C0.33368 22.268 1.73197 23.6663 3.51486 23.9487C3.83874 24 4.22583 24 5 24C5.77417 24 6.16126 24 6.48514 23.9487C8.26803 23.6663 9.66632 22.268 9.9487 20.4851C10 20.1613 10 19.7742 10 19C10 18.2258 10 17.8387 9.9487 17.5149C9.66632 15.732 8.26803 14.3337 6.48514 14.0513C6.16126 14 5.77417 14 5 14C4.22583 14 3.83874 14 3.51486 14.0513C1.73197 14.3337 0.33368 15.732 0.0512986 17.5149ZM3.59307 23.4549C3.8683 23.4984 4.20672 23.5 5 23.5C5.79328 23.5 6.1317 23.4984 6.40693 23.4549C7.97587 23.2064 9.20636 21.9759 9.45486 20.4069C9.49845 20.1317 9.5 19.7933 9.5 19C9.5 18.2067 9.49845 17.8683 9.45486 17.5931C9.20636 16.0241 7.97587 14.7936 6.40693 14.5451C6.1317 14.5016 5.79328 14.5 5 14.5C4.20672 14.5 3.8683 14.5016 3.59307 14.5451C2.02413 14.7936 0.793638 16.0241 0.545143 17.5931C0.501552 17.8683 0.5 18.2067 0.5 19C0.5 19.7933 0.501552 20.1317 0.545143 20.4069C0.793638 21.9759 2.02413 23.2064 3.59307 23.4549Z" fill="black"/>
<path fill-rule="evenodd" clip-rule="evenodd" d="M10.4654 22.25C10.547 22.0883 10.62 21.9214 10.684 21.75H16.8C17.3642 21.75 17.7723 21.7498 18.0932 21.7236C18.4113 21.6976 18.6217 21.6473 18.7945 21.5593C19.1238 21.3915 19.3915 21.1238 19.5592 20.7945C19.6473 20.6217 19.6976 20.4113 19.7236 20.0932C19.7498 19.7723 19.75 19.3642 19.75 18.8V9.93357L14.0893 9.93357C13.8183 9.93357 13.5998 9.93357 13.4228 9.91911C13.2406 9.90423 13.0806 9.87277 12.9325 9.79733C12.6973 9.67748 12.5061 9.48626 12.3862 9.25106C12.3108 9.10298 12.2793 8.94294 12.2644 8.76072C12.25 8.58377 12.25 8.36524 12.25 8.09432V2.25001L7.69998 2.25001C7.13581 2.25001 6.72771 2.2502 6.40675 2.27642C6.0887 2.30241 5.8783 2.3527 5.7055 2.44074C5.37622 2.60852 5.1085 2.87624 4.94072 3.20552C4.85268 3.37832 4.80239 3.58872 4.7764 3.90677C4.75018 4.22773 4.74998 4.63583 4.74998 5.20001V13C4.57123 13 4.40529 13.0003 4.24998 13.002L4.24998 5.18869C4.24998 4.63828 4.24998 4.20972 4.27806 3.86605C4.30657 3.51709 4.36528 3.23355 4.49522 2.97853C4.71093 2.55516 5.05514 2.21096 5.47851 1.99524C5.73353 1.8653 6.01707 1.80659 6.36603 1.77808C6.7097 1.75 7.13812 1.75 7.68854 1.75001L12.7542 1.75C13.2134 1.74997 13.4874 1.74994 13.748 1.81288C13.9788 1.86863 14.1994 1.96056 14.4014 2.08526C14.6296 2.22606 14.8224 2.42067 15.1457 2.7469L19.2744 6.91277C19.5938 7.23497 19.7843 7.42718 19.9221 7.65359C20.0441 7.85413 20.134 8.07254 20.1885 8.30088C20.25 8.55867 20.25 8.82929 20.25 9.28296L20.25 18.8113C20.25 19.3618 20.25 19.7903 20.2219 20.134C20.1934 20.4829 20.1347 20.7665 20.0047 21.0215C19.789 21.4448 19.4448 21.7891 19.0215 22.0048C18.7664 22.1347 18.4829 22.1934 18.1339 22.2219C17.7902 22.25 17.3618 22.25 16.8113 22.25H10.4654ZM12.75 2.25001C13.2323 2.25009 13.4388 2.25259 13.6306 2.29891C13.8102 2.34227 13.9817 2.41377 14.1389 2.51076C14.3102 2.61653 14.46 2.76531 14.8149 3.12341L18.8953 7.2405C19.2458 7.59421 19.3915 7.74342 19.495 7.9135C19.5899 8.06948 19.6598 8.23935 19.7022 8.41695C19.7484 8.6106 19.75 8.8191 19.75 9.3171V9.43357H14.1C13.8158 9.43357 13.6178 9.43337 13.4635 9.42077C13.3123 9.40841 13.2253 9.38537 13.1595 9.35182C13.0184 9.27992 12.9036 9.16518 12.8317 9.02406C12.7982 8.95822 12.7751 8.8713 12.7628 8.72001C12.7502 8.5658 12.75 8.36772 12.75 8.08357V2.25001Z" fill="black"/>
</svg>
