<svg width="24" height="24" viewBox="0 0 24 24" fill="none" xmlns="http://www.w3.org/2000/svg">
<path fill-rule="evenodd" clip-rule="evenodd" d="M0 19C-3.37851e-08 18.2259 -4.84288e-08 17.8388 0.0512988 17.5149C0.33368 15.732 1.73197 14.3337 3.51486 14.0513C3.83874 14 4.22583 14 5 14C5.77417 14 6.16126 14 6.48514 14.0513C8.26803 14.3337 9.66632 15.732 9.9487 17.5149C10 17.8388 10 18.2259 10 19C10 19.7742 10 20.1613 9.9487 20.4852C9.66632 22.2681 8.26803 23.6664 6.48514 23.9487C6.16126 24 5.77417 24 5 24C4.22583 24 3.83874 24 3.51486 23.9487C1.73197 23.6664 0.33368 22.2681 0.0512988 20.4852C4.84288e-08 20.1613 3.38951e-08 19.7742 0 19ZM5.75 17C5.75 16.5858 5.41421 16.25 5 16.25C4.58579 16.25 4.25 16.5858 4.25 17V18.25H2.99964C2.58543 18.25 2.24964 18.5858 2.24964 19C2.24964 19.4143 2.58543 19.75 2.99964 19.75H4.25V20.9999C4.25 21.4141 4.58579 21.7499 5 21.7499C5.41421 21.7499 5.75 21.4141 5.75 20.9999V19.75H6.99951C7.41373 19.75 7.74951 19.4143 7.74951 19C7.74951 18.5858 7.41373 18.25 6.99951 18.25H5.75V17Z" fill="black"/>
<path fill-rule="evenodd" clip-rule="evenodd" d="M11.9308 20.7241C11.8066 21.5478 11.5225 22.3173 11.1107 23.0001H16.8386C17.3657 23.0001 17.8205 23.0001 18.195 22.9695C18.5904 22.9372 18.9836 22.8659 19.362 22.6731C19.9265 22.3855 20.3854 21.9266 20.673 21.3621C20.8658 20.9837 20.9371 20.5905 20.9694 20.1951C21 19.8205 21 19.3658 21 18.8386L21.0001 9.23443C21.0004 8.83 21.0008 8.47342 20.918 8.12687C20.8454 7.82242 20.7255 7.53121 20.5628 7.26382C20.3776 6.95945 20.1264 6.70642 19.8414 6.41944L15.6438 2.184C15.3559 1.89297 15.102 1.63638 14.7953 1.44711C14.5259 1.28084 14.2319 1.15826 13.9241 1.08394C13.5737 0.99933 13.2128 0.999668 12.8035 1.00005L7.66146 1.0001C7.13431 1.00008 6.67954 1.00007 6.30497 1.03067C5.90963 1.06297 5.51641 1.13429 5.13803 1.32708C4.57354 1.6147 4.1146 2.07364 3.82698 2.63813C3.63419 3.01651 3.56287 3.40973 3.53057 3.80507C3.49997 4.17963 3.49998 4.63436 3.5 5.16148L3.5 12.0411C3.9055 11.9995 4.35301 11.9997 4.86856 12H5.13145C5.74375 11.9997 6.26011 11.9994 6.72407 12.0693C9.41391 12.4747 11.5253 14.5861 11.9308 17.276C12.0007 17.7399 12.0004 18.2563 12.0001 18.8686V19.1315C12.0004 19.7438 12.0007 20.2601 11.9308 20.7241ZM12.75 3.00011C13.2638 3.00036 13.3675 3.00701 13.4546 3.02805C13.5572 3.05282 13.6552 3.09368 13.745 3.1491C13.8227 3.19708 13.902 3.26783 14.2822 3.65145L18.3626 7.76855C18.7381 8.14745 18.8073 8.22631 18.8543 8.30346C18.9085 8.3926 18.9485 8.48966 18.9727 8.59115C18.9936 8.67899 19 8.78374 19 9.3172V9.43361L14.1 9.43361C13.8159 9.43361 13.6178 9.43342 13.4636 9.42082C13.3123 9.40846 13.2253 9.38541 13.1595 9.35187C13.0184 9.27996 12.9037 9.16523 12.8317 9.02411C12.7982 8.95827 12.7752 8.87135 12.7628 8.72005C12.7502 8.56584 12.75 8.36776 12.75 8.08361V3.00011Z" fill="black"/>
</svg>
