<svg width="24" height="24" viewBox="0 0 24 24" fill="none" xmlns="http://www.w3.org/2000/svg">
<path d="M12 3.25C7.44365 3.25 3.75 6.94365 3.75 11.5V11.75C3.75 16.4444 7.55558 20.25 12.25 20.25H17C17.4142 20.25 17.75 20.5858 17.75 21C17.75 21.4142 17.4142 21.75 17 21.75H12.25C6.72715 21.75 2.25 17.2728 2.25 11.75V11.5C2.25 6.11522 6.61522 1.75 12 1.75C17.3848 1.75 21.75 6.11522 21.75 11.5V13.5C21.75 15.2949 20.2949 16.75 18.5 16.75C17.7234 16.75 17.0104 16.4776 16.4514 16.0232C16.7882 15.6507 17.0789 15.2358 17.3146 14.7874C17.6264 15.0746 18.0427 15.25 18.5 15.25C19.4665 15.25 20.25 14.4665 20.25 13.5V11.5C20.25 6.94365 16.5563 3.25 12 3.25Z" fill="black"/>
<path fill-rule="evenodd" clip-rule="evenodd" d="M12 7.25C9.37665 7.25 7.25 9.37665 7.25 12C7.25 14.6234 9.37665 16.75 12 16.75C14.6234 16.75 16.75 14.6234 16.75 12C16.75 9.37665 14.6234 7.25 12 7.25ZM15.25 12C15.25 13.7949 13.7949 15.25 12 15.25C10.2051 15.25 8.75 13.7949 8.75 12C8.75 10.2051 10.2051 8.75 12 8.75C13.7949 8.75 15.25 10.2051 15.25 12Z" fill="black"/>
</svg>
