<svg width="24" height="24" viewBox="0 0 24 24" fill="none" xmlns="http://www.w3.org/2000/svg">
<path d="M12 3.75C7.71979 3.75 4.25 7.21979 4.25 11.5V11.75C4.25 16.1683 7.83172 19.75 12.25 19.75H17C17.6904 19.75 18.25 20.3096 18.25 21C18.25 21.6904 17.6904 22.25 17 22.25H12.25C6.45101 22.25 1.75 17.549 1.75 11.75V11.5C1.75 5.83908 6.33908 1.25 12 1.25C17.6609 1.25 22.25 5.83908 22.25 11.5V13.5C22.25 15.5711 20.5711 17.25 18.5 17.25C17.7694 17.25 17.0876 17.0411 16.5111 16.6797C17.1147 16.0978 17.606 15.4001 17.9493 14.6225C18.1154 14.7041 18.3024 14.75 18.5 14.75C19.1904 14.75 19.75 14.1904 19.75 13.5V11.5C19.75 7.21979 16.2802 3.75 12 3.75Z" fill="black"/>
<path fill-rule="evenodd" clip-rule="evenodd" d="M12 6.75C9.1005 6.75 6.75 9.1005 6.75 12C6.75 14.8995 9.1005 17.25 12 17.25C14.8995 17.25 17.25 14.8995 17.25 12C17.25 9.1005 14.8995 6.75 12 6.75ZM14.75 12C14.75 13.5188 13.5188 14.75 12 14.75C10.4812 14.75 9.25 13.5188 9.25 12C9.25 10.4812 10.4812 9.25 12 9.25C13.5188 9.25 14.75 10.4812 14.75 12Z" fill="black"/>
</svg>
