<svg width="24" height="24" viewBox="0 0 24 24" fill="none" xmlns="http://www.w3.org/2000/svg">
<path fill-rule="evenodd" clip-rule="evenodd" d="M3.75 11.5C3.75 6.94365 7.44365 3.25 12 3.25C16.5563 3.25 20.25 6.94365 20.25 11.5V13.5C20.25 14.4665 19.4665 15.25 18.5 15.25C17.5335 15.25 16.75 14.4665 16.75 13.5V12C16.75 9.37665 14.6234 7.25 12 7.25C9.37665 7.25 7.25 9.37665 7.25 12C7.25 14.6234 9.37665 16.75 12 16.75C13.4627 16.75 14.7709 16.0889 15.6423 15.0492C16.1926 16.0623 17.266 16.75 18.5 16.75C20.2949 16.75 21.75 15.2949 21.75 13.5V11.5C21.75 6.11522 17.3848 1.75 12 1.75C6.61522 1.75 2.25 6.11522 2.25 11.5V11.75C2.25 17.2728 6.72715 21.75 12.25 21.75H17C17.4142 21.75 17.75 21.4142 17.75 21C17.75 20.5858 17.4142 20.25 17 20.25H12.25C7.55558 20.25 3.75 16.4444 3.75 11.75V11.5ZM15.25 12C15.25 10.2051 13.7949 8.75 12 8.75C10.2051 8.75 8.75 10.2051 8.75 12C8.75 13.7949 10.2051 15.25 12 15.25C13.7949 15.25 15.25 13.7949 15.25 12Z" fill="black"/>
</svg>
