<svg width="24" height="24" viewBox="0 0 24 24" fill="none" xmlns="http://www.w3.org/2000/svg">
<path fill-rule="evenodd" clip-rule="evenodd" d="M3.25 11.5C3.25 6.66751 7.16751 2.75 12 2.75C16.8325 2.75 20.75 6.66751 20.75 11.5V13.5C20.75 14.7426 19.7426 15.75 18.5 15.75C17.2574 15.75 16.25 14.7426 16.25 13.5V12C16.25 9.65279 14.3472 7.75 12 7.75C9.65279 7.75 7.75 9.65279 7.75 12C7.75 14.3472 9.65279 16.25 12 16.25C13.6499 16.25 15.0802 15.3099 15.7844 13.9361C15.9934 15.2476 17.1296 16.25 18.5 16.25C20.0188 16.25 21.25 15.0188 21.25 13.5V11.5C21.25 6.39137 17.1086 2.25 12 2.25C6.89137 2.25 2.75 6.39137 2.75 11.5V11.75C2.75 16.9967 7.0033 21.25 12.25 21.25H17C17.1381 21.25 17.25 21.1381 17.25 21C17.25 20.8619 17.1381 20.75 17 20.75H12.25C7.27944 20.75 3.25 16.7206 3.25 11.75V11.5ZM15.75 12C15.75 9.92893 14.0711 8.25 12 8.25C9.92893 8.25 8.25 9.92893 8.25 12C8.25 14.0711 9.92893 15.75 12 15.75C14.0711 15.75 15.75 14.0711 15.75 12Z" fill="black"/>
</svg>
