<svg width="24" height="24" viewBox="0 0 24 24" fill="none" xmlns="http://www.w3.org/2000/svg">
<path fill-rule="evenodd" clip-rule="evenodd" d="M11.6043 1.01423C11.8487 0.932756 12.1506 0.932756 12.395 1.01423C12.6878 1.11185 12.9012 1.33384 13.2069 1.65183C13.22 1.66542 13.2332 1.67919 13.2467 1.69313C14.3883 2.87921 16.2476 4.93067 17.823 7.23025C19.3905 9.51814 20.7112 12.0996 20.7112 14.3356C20.7112 19.1468 16.8109 23.0471 11.9996 23.0471C7.18837 23.0471 3.28809 19.1468 3.28809 14.3356C3.28809 12.0996 4.60877 9.51813 6.17622 7.23025C7.75168 4.93067 9.61093 2.87921 10.7526 1.69313C10.766 1.67919 10.7793 1.66542 10.7923 1.65183C11.098 1.33384 11.3115 1.11185 11.6043 1.01423ZM12.2368 1.48857C12.0951 1.44131 11.9042 1.44131 11.7624 1.48857C11.6007 1.54247 11.475 1.66361 11.1128 2.03987C9.97999 3.21678 8.14193 5.24571 6.5887 7.51284C5.02746 9.79167 3.78809 12.2633 3.78809 14.3356C3.78809 18.8707 7.46452 22.5471 11.9996 22.5471C16.5347 22.5471 20.2112 18.8707 20.2112 14.3356C20.2112 12.2633 18.9718 9.79167 17.4106 7.51284C15.8573 5.24571 14.0193 3.21679 12.8864 2.03987C12.5242 1.66361 12.3985 1.54247 12.2368 1.48857Z" fill="black"/>
</svg>
