<svg width="24" height="24" viewBox="0 0 24 24" fill="none" xmlns="http://www.w3.org/2000/svg">
<path fill-rule="evenodd" clip-rule="evenodd" d="M23 12C23 12.8706 22.8989 13.7175 22.7077 14.5297C22.5103 15.3686 22.2168 16.1704 21.8396 16.923C21.8394 16.9233 21.8397 16.9227 21.8396 16.923C21.4664 17.6672 21.0109 18.3641 20.4857 19C19.5134 20.1773 18.3008 21.1489 16.923 21.8396C16.1704 22.2168 15.3686 22.5103 14.5297 22.7077C14.5142 22.7114 14.4987 22.715 14.4832 22.7185C13.6852 22.9027 12.854 23 12 23C8.58413 23 5.53191 21.443 3.51432 19C1.94364 17.0981 1 14.6593 1 12C1 9.34074 1.94364 6.90188 3.51432 5C5.53191 2.55699 8.58413 1 12 1C12.5577 1 13.1056 1.0415 13.641 1.12157C13.6693 1.1258 13.6975 1.13014 13.7257 1.13458C14.38 1.23768 15.0152 1.39847 15.6258 1.61159C15.9957 1.74068 16.3566 1.88896 16.7073 2.05525C16.7273 2.06473 16.7473 2.07427 16.7672 2.08387C17.2941 2.33767 17.7978 2.63223 18.274 2.96347C18.572 3.17081 18.8594 3.39252 19.135 3.6276C19.1722 3.65938 19.2093 3.69141 19.2461 3.72368C19.6485 4.07633 20.0251 4.45786 20.3724 4.86504C20.4105 4.90972 20.4483 4.95471 20.4857 5C20.679 5.23407 20.8628 5.47628 21.0365 5.72603C21.0392 5.72994 21.042 5.73385 21.0447 5.73776C21.3851 6.22852 21.6866 6.74832 21.9447 7.29269C22.111 7.64337 22.2593 8.00426 22.3884 8.37415C22.3959 8.3955 22.4033 8.41689 22.4106 8.43831C22.6217 9.05563 22.7795 9.6977 22.8784 10.359C22.9472 10.819 22.9875 11.2883 22.9975 11.765C22.9992 11.8432 23 11.9215 23 12ZM3.5 12C3.5 9.9429 4.22757 8.06238 5.44194 6.59194C7.00497 4.69934 9.36135 3.5 12 3.5V5.23743L13.5893 3.64809C14.002 3.72604 14.4042 3.83381 14.7934 3.96914L12 6.76256V9.23743L16.4695 4.76797C16.7802 4.96046 17.0776 5.1725 17.3601 5.40243L12 10.7626V13.2374L18.5974 6.63999C18.8274 6.92254 19.0394 7.21995 19.232 7.5306L12 14.7626V17.2374L20.031 9.20644C20.1663 9.59562 20.2741 9.99772 20.352 10.4105L12 18.7626V20.5C9.36135 20.5 7.00497 19.3007 5.44194 17.4081C4.22757 15.9376 3.5 14.0571 3.5 12ZM12.7719 20.4655C13.4398 20.4055 14.0854 20.2683 14.6997 20.0628L20.0631 14.6995C20.2685 14.0855 20.4056 13.4401 20.4655 12.7719L12.7719 20.4655Z" fill="black"/>
</svg>
