<svg width="24" height="24" viewBox="0 0 24 24" fill="none" xmlns="http://www.w3.org/2000/svg">
<path fill-rule="evenodd" clip-rule="evenodd" d="M1.51735 22.317C1.29102 22.1573 1.14108 21.9109 1.10327 21.6365C1.07429 21.4261 1.1339 21.239 1.19137 21.0977C1.24733 20.9601 1.33125 20.7979 1.42291 20.6209L10.8556 2.39561C10.9618 2.19031 11.0569 2.00658 11.146 1.86711C11.2346 1.72855 11.3656 1.55256 11.5766 1.45396C11.845 1.3285 12.1552 1.3285 12.4235 1.45396C12.6345 1.55256 12.7655 1.72855 12.8541 1.8671C12.9432 2.00656 13.0383 2.19026 13.1445 2.39553L22.5772 20.6208C22.6688 20.7979 22.7528 20.96 22.8087 21.0977C22.8662 21.239 22.9258 21.4261 22.8968 21.6365C22.859 21.9109 22.7091 22.1573 22.4828 22.317C22.3093 22.4395 22.1156 22.4726 21.9637 22.4865C21.8158 22.5 21.6332 22.5 21.4338 22.5H2.56628C2.36688 22.5 2.18431 22.5 2.03637 22.4865C1.88446 22.4726 1.69085 22.4395 1.51735 22.317ZM2.1276 21.4906C2.22421 21.4995 2.35996 21.5 2.58698 21.5H21.4131C21.6402 21.5 21.7759 21.4995 21.8725 21.4906C21.8781 21.4901 21.8834 21.4896 21.8882 21.4891C21.8865 21.4845 21.8845 21.4796 21.8824 21.4744C21.8459 21.3845 21.7839 21.2637 21.6796 21.0621L12.2665 2.87465C12.147 2.64385 12.073 2.50184 12.0115 2.40573C12.0075 2.39937 12.0036 2.39352 12.0001 2.38816C11.9965 2.39352 11.9926 2.39937 11.9886 2.40573C11.9271 2.50184 11.8531 2.64385 11.7336 2.87465L2.32055 21.0621C2.2162 21.2637 2.15425 21.3845 2.1177 21.4744C2.11557 21.4796 2.11363 21.4845 2.11187 21.4891C2.11673 21.4896 2.12197 21.4901 2.1276 21.4906Z" fill="black"/>
</svg>
