<svg width="24" height="25" viewBox="0 0 24 25" fill="none" xmlns="http://www.w3.org/2000/svg">
<path fill-rule="evenodd" clip-rule="evenodd" d="M12.7112 0.112437C12.2615 -0.0374791 11.7377 -0.0374791 11.288 0.112437C10.7475 0.292634 10.3626 0.698449 10.1036 0.971549C10.0786 0.997858 10.0548 1.02299 10.0321 1.04651C8.8728 2.25095 6.97118 4.34746 5.35126 6.71194C3.77139 9.01795 2.28809 11.819 2.28809 14.3824C2.28809 19.746 6.63609 24.094 11.9996 24.094C17.3632 24.094 21.7112 19.746 21.7112 14.3824C21.7112 11.819 20.2279 9.01795 18.648 6.71194C17.0281 4.34746 15.1264 2.25095 13.9671 1.04652C13.9445 1.023 13.9207 0.997927 13.8958 0.971625C13.6367 0.698524 13.2517 0.292635 12.7112 0.112437ZM12 21.594C15.9827 21.5938 19.2112 18.3651 19.2112 14.3824C19.2112 12.6375 18.1344 10.3856 16.5856 8.12491C15.0768 5.92267 13.2811 3.9388 12.1659 2.78024C12.1006 2.71233 12.0471 2.65677 12 2.60877V21.594Z" fill="black"/>
</svg>
