<svg width="24" height="24" viewBox="0 0 24 24" fill="none" xmlns="http://www.w3.org/2000/svg">
<path fill-rule="evenodd" clip-rule="evenodd" d="M0 3.27273C0 1.46525 1.46525 0 3.27273 0H20.7273C22.5347 0 24 1.46525 24 3.27273V20.7273C24 22.5347 22.5347 24 20.7273 24H3.27273C1.46525 24 0 22.5347 0 20.7273V3.27273ZM3.27273 1H20.7273C21.9825 1 23 2.01754 23 3.27273V16.995C18.1457 16.8519 13.8941 13.6699 12.397 9.03421C12.377 8.97218 12.3554 8.90278 12.3099 8.75622L11.7028 6.79983C11.6447 6.61268 11.599 6.46526 11.5624 6.35477C11.5287 6.25314 11.4916 6.14675 11.4483 6.06429C10.8655 4.95593 9.26149 5.00733 8.75092 6.15074C8.71294 6.2358 8.68269 6.34434 8.65562 6.44792C8.6262 6.56054 8.58998 6.71061 8.54399 6.90111L7.4218 11.5502C6.68945 14.5842 4.07559 16.7676 1 16.9826V3.27273C1 2.01754 2.01754 1 3.27273 1ZM1 17.9847V20.7273C1 21.9825 2.01754 23 3.27273 23H20.7273C21.9825 23 23 21.9825 23 20.7273V17.9954C17.7113 17.8519 13.0757 14.3897 11.4454 9.34154C11.4234 9.27342 11.4001 9.19831 11.3562 9.05698L10.7494 7.10163C10.6893 6.90789 10.6463 6.76948 10.613 6.66899C10.58 6.56906 10.5654 6.53491 10.5634 6.5302C10.5633 6.53009 10.5631 6.52972 10.5634 6.5302C10.3691 6.16075 9.83421 6.17733 9.66402 6.55847C9.6642 6.55796 9.66407 6.55835 9.66402 6.55847C9.66232 6.56329 9.64975 6.59887 9.62314 6.70071C9.59639 6.80313 9.56236 6.944 9.51476 7.14119L8.39388 11.7848C7.55312 15.268 4.5379 17.7681 1 17.9847Z" fill="black"/>
</svg>
