<svg width="24" height="24" viewBox="0 0 24 24" fill="none" xmlns="http://www.w3.org/2000/svg">
<path fill-rule="evenodd" clip-rule="evenodd" d="M0 3.27273C0 1.46525 1.46525 0 3.27273 0H20.7273C22.5347 0 24 1.46525 24 3.27273V20.7273C24 22.5347 22.5347 24 20.7273 24H3.27273C1.46525 24 0 22.5347 0 20.7273V3.27273ZM3.27273 1H20.7273C21.9825 1 23 2.01754 23 3.27273V17.2451C18.0371 17.1019 13.6895 13.8499 12.1591 9.11106C12.1385 9.04733 12.1165 8.97629 12.0712 8.83033L11.4649 6.87675C11.4061 6.68729 11.3609 6.54163 11.325 6.43334C11.2907 6.32951 11.2593 6.24219 11.227 6.18065C10.7414 5.25701 9.40467 5.29985 8.97919 6.25268C8.95084 6.31617 8.92515 6.40532 8.8975 6.51113C8.86869 6.62141 8.83294 6.76952 8.78645 6.96213L7.66482 11.6089C6.90537 14.7552 4.19118 17.0178 1 17.2332V3.27273C1 2.01754 2.01754 1 3.27273 1Z" fill="black"/>
</svg>
