<svg width="24" height="24" viewBox="0 0 24 24" fill="none" xmlns="http://www.w3.org/2000/svg">
<path d="M21.0919 0.15086C15.3713 1.06486 11 6.02194 11 12C11 17.6443 6.74885 22.2957 1.27374 22.927C0.49008 22.1968 0 21.1556 0 20V4C0 1.79086 1.79086 0 4 0H20C20.3786 0 20.7448 0.0525891 21.0919 0.15086Z" fill="black"/>
<path d="M22.6519 1.0054C16.7379 1.18923 12 6.04132 12 12C12 17.7527 7.95199 22.56 2.54904 23.7287C2.99887 23.9039 3.48821 24 4 24H20C22.2091 24 24 22.2091 24 20V4C24 2.80824 23.4788 1.73821 22.6519 1.0054Z" fill="black"/>
</svg>
