<svg width="24" height="24" viewBox="0 0 24 24" fill="none" xmlns="http://www.w3.org/2000/svg">
<path fill-rule="evenodd" clip-rule="evenodd" d="M0 3.27273C0 1.46525 1.46525 0 3.27273 0H20.7273C22.5347 0 24 1.46525 24 3.27273V20.7273C24 22.5347 22.5347 24 20.7273 24H3.27273C1.46525 24 0 22.5347 0 20.7273V3.27273ZM3.27273 0.5H20.7273C22.2586 0.5 23.5 1.74139 23.5 3.27273V17.25C23.3472 17.25 23.2728 17.25 23.2058 17.2492C18.1576 17.1914 13.7106 13.9153 12.1591 9.11106C12.1385 9.04733 12.1165 8.97629 12.0712 8.83033L11.4649 6.87675C11.4061 6.68729 11.3609 6.54163 11.325 6.43334C11.2907 6.32951 11.2593 6.24219 11.227 6.18065C10.7414 5.25701 9.40467 5.29985 8.97919 6.25268C8.95084 6.31617 8.92515 6.40532 8.8975 6.51113C8.86869 6.62141 8.83294 6.76952 8.78645 6.96213L7.66482 11.6089C6.86599 14.9183 3.90448 17.25 0.5 17.25V3.27273C0.5 1.74139 1.74139 0.5 3.27273 0.5Z" fill="black"/>
</svg>
