<svg width="24" height="24" viewBox="0 0 24 24" fill="none" xmlns="http://www.w3.org/2000/svg">
<path fill-rule="evenodd" clip-rule="evenodd" d="M22.9961 12.2968C22.9954 12.3221 22.9947 12.3473 22.9938 12.3725C22.977 12.8792 22.9258 13.3773 22.8426 13.8645C22.5673 15.4773 21.9408 16.9704 21.0447 18.2622C20.8685 18.5161 20.682 18.7623 20.4857 19C19.8308 19.793 19.0669 20.4926 18.217 21.0759C16.9356 21.9554 15.4585 22.5705 13.8645 22.8426C13.8183 22.8505 13.772 22.8581 13.7257 22.8654C13.2585 22.939 12.7816 22.9832 12.2968 22.9961C12.1982 22.9987 12.0993 23 12 23C8.58413 23 5.53191 21.443 3.51432 19C1.94364 17.0981 1 14.6593 1 12C1 9.34074 1.94364 6.90188 3.51432 5C5.53191 2.55699 8.58413 1 12 1C12.716 1 13.416 1.06841 14.0939 1.19904C14.0982 1.19987 14.1025 1.2007 14.1068 1.20154C14.4873 1.27535 14.8609 1.36878 15.2264 1.48074C15.8648 1.67631 16.4785 1.92841 17.0617 2.2312C17.0751 2.23818 17.0886 2.24519 17.102 2.25223C17.3948 2.40581 17.6799 2.57221 17.9564 2.75067C18.4747 3.08513 18.9631 3.46196 19.4166 3.87626C19.4334 3.89155 19.4501 3.9069 19.4667 3.92229C19.6949 4.13332 19.9141 4.35389 20.1237 4.58337C20.2478 4.71917 20.3685 4.85809 20.4857 5C20.7599 5.33205 21.015 5.68046 21.2493 6.04356C21.2667 6.07041 21.2839 6.09735 21.301 6.12436C21.468 6.38828 21.6242 6.65981 21.7688 6.93831C22.0716 7.52148 22.3237 8.13521 22.5193 8.77363L22.5199 8.77583C22.6329 9.14473 22.7269 9.52188 22.801 9.90615C22.9316 10.584 23 11.284 23 12C23 12.0993 22.9987 12.1982 22.9961 12.2968ZM2 12C2 9.58161 2.85721 7.36608 4.28537 5.63678C6.12113 3.41393 8.89502 2 12 2C12.4128 2 12.8197 2.02499 13.2193 2.07354L12 3.29289V4.70711L14.4139 2.29316C15.0766 2.45735 15.7131 2.68762 16.3162 2.97664L12 7.29289V8.70711L17.2314 3.47567C17.7581 3.79961 18.2525 4.17107 18.7088 4.58413L12 11.2929V12.7071L19.4158 5.29126C19.518 5.40412 19.6176 5.51932 19.7146 5.63678C20.0097 5.99412 20.2805 6.37222 20.5243 6.76859L12 15.2929V16.7071L21.0234 7.68373C21.3124 8.28679 21.5427 8.92331 21.7069 9.58599L12 19.2929V20.7071L21.9265 10.7806C21.975 11.1802 22 11.5872 22 12C22 12.4712 21.9675 12.9347 21.9045 13.3884L13.3884 21.9044C12.9347 21.9674 12.4711 22 12 22C8.89502 22 6.12113 20.5861 4.28537 18.3632C2.85721 16.6339 2 14.4184 2 12ZM15.2452 21.4619L21.462 15.2451C21.0684 16.393 20.4718 17.4464 19.7146 18.3632C18.5505 19.7728 17.0091 20.8571 15.2452 21.4619Z" fill="black"/>
</svg>
