<svg width="24" height="24" viewBox="0 0 24 24" fill="none" xmlns="http://www.w3.org/2000/svg">
<path d="M14.4053 2.24983L14.3555 2.26839C12.1452 3.0868 12.1452 6.21362 14.3555 7.03206L16.2607 7.73714L16.9658 9.64339C17.7839 11.8542 20.911 11.8539 21.7295 9.64339L22.4346 7.73714L23.4971 7.34359C23.4982 7.56602 23.5 7.80124 23.5 8.04964V12.45C23.5 13.2733 23.501 13.9515 23.4561 14.5018C23.4101 15.0637 23.3116 15.5811 23.0645 16.0662C22.681 16.8186 22.0687 17.4308 21.3164 17.8143C20.8312 18.0615 20.3139 18.16 19.752 18.2059C19.2017 18.2508 18.5235 18.2498 17.7002 18.2498H12.4141L8.13965 22.5242C8.04668 22.6172 7.92929 22.7364 7.82227 22.826C7.74002 22.8949 7.47967 23.1123 7.09766 23.1424C6.69895 23.1736 6.30955 23.012 6.04981 22.7078C5.80062 22.416 5.77115 22.078 5.76172 21.9715C5.74944 21.8324 5.75 21.6655 5.75 21.534V18.2469C5.16887 18.2453 4.67067 18.2404 4.24805 18.2059C3.68607 18.16 3.16885 18.0615 2.6836 17.8143C1.93112 17.4308 1.319 16.8187 0.935549 16.0662C0.688334 15.581 0.589873 15.0638 0.543947 14.5018C0.499004 13.9515 0.500002 13.2734 0.500002 12.45V8.04964C0.500002 7.22632 0.498991 6.54818 0.543947 5.99788C0.589884 5.43599 0.688357 4.91861 0.935549 4.43343C1.31901 3.68112 1.93126 3.0688 2.6836 2.68538C3.16877 2.43825 3.68617 2.3397 4.24805 2.29378C4.79835 2.24884 5.47651 2.24983 6.29981 2.24983H14.4053Z" fill="black"/>
<path d="M18.8428 0.352374C19.0166 -0.117458 19.6816 -0.117458 19.8555 0.352374L20.793 2.88753C20.8453 3.02898 20.9558 3.14074 21.0947 3.19808L21.1113 3.20589L23.6475 4.14437C24.1173 4.31822 24.1173 4.98321 23.6475 5.15706L21.1123 6.09456C20.9648 6.14929 20.8476 6.26634 20.793 6.4139L19.8555 8.94905C19.6814 9.41854 19.0166 9.41873 18.8428 8.94905L17.9043 6.4139C17.8496 6.26622 17.7336 6.14921 17.5859 6.09456L15.0498 5.15706C14.5809 4.98292 14.581 4.3186 15.0498 4.14437L17.5859 3.20687C17.7335 3.15225 17.8496 3.03505 17.9043 2.88753L18.8428 0.352374Z" fill="black"/>
<path d="M17.5859 3.20687L15.1709 4.09944L15.4834 3.98323L17.585 3.20589C17.5946 3.2023 17.6039 3.19639 17.6133 3.19222C17.6038 3.19647 17.5957 3.20325 17.5859 3.20687Z" fill="black"/>
</svg>
