<svg width="24" height="24" viewBox="0 0 24 24" fill="none" xmlns="http://www.w3.org/2000/svg">
<path d="M14.0342 3.00079C12.7754 3.89952 12.9409 5.97456 14.5312 6.56329L16.6514 7.34845L17.4375 9.46954C18.0948 11.2447 20.6054 11.2448 21.2627 9.46954L21.9961 7.48907C22.6367 8.68385 23 10.0502 23 11.5008C22.9997 16.1949 19.1942 20.0007 14.5 20.0008H10.5C9.42187 20.0008 8.39044 19.7995 7.44141 19.4334C7.39642 19.4161 7.37334 19.4074 7.35156 19.4031C7.33162 19.3993 7.31227 19.3983 7.29199 19.3992C7.26965 19.4003 7.24661 19.4053 7.20117 19.4158L3.28906 20.3182C3.03616 20.3765 2.90944 20.4055 2.83105 20.369C2.76305 20.3369 2.71243 20.2759 2.69434 20.2029C2.67371 20.1189 2.72747 20 2.83496 19.7635L3.95996 17.2889C3.99817 17.2048 4.01745 17.1616 4.02148 17.1199C4.02497 17.0824 4.02061 17.047 4.00781 17.0115C3.99344 16.9722 3.96223 16.934 3.90137 16.8592C2.71267 15.3972 2.00015 13.5319 2 11.5008C2 6.80641 5.80564 3.00086 10.5 3.00079H14.0342Z" fill="black"/>
<path d="M18.8428 0.352355C19.0166 -0.117464 19.6816 -0.117439 19.8555 0.352355L20.793 2.88751C20.8476 3.03512 20.9647 3.15214 21.1123 3.20685L23.6475 4.14435C24.1173 4.3182 24.1173 4.98319 23.6475 5.15704L21.1123 6.09454C20.9648 6.14926 20.8476 6.2663 20.793 6.41388L19.8555 8.94903L19.8174 9.03107C19.6005 9.41666 19.0058 9.38957 18.8428 8.94903L17.9043 6.41388C17.8496 6.26622 17.7336 6.14919 17.5859 6.09454L15.0498 5.15704C14.5809 4.98289 14.5809 4.31854 15.0498 4.14435L17.0703 3.3963L17.5859 3.20685C17.7335 3.15222 17.8496 3.03508 17.9043 2.88751L18.8428 0.352355Z" fill="black"/>
<path d="M19.8359 8.99298C19.8298 9.00609 19.8253 9.01977 19.8184 9.03204C19.8048 9.0561 19.7888 9.07864 19.7725 9.09943C19.7972 9.06803 19.8176 9.03175 19.8359 8.99298Z" fill="black"/>
</svg>
