<svg width="24" height="24" viewBox="0 0 24 24" fill="none" xmlns="http://www.w3.org/2000/svg">
<path d="M14.5 2.99981C15.0918 2.99983 15.6698 3.06044 16.2275 3.17559L14.877 3.67559C13.9721 4.01056 13.9722 5.29066 14.877 5.62579L17.4121 6.56426C17.4227 6.56828 17.4315 6.57715 17.4355 6.5877L18.374 9.12286C18.7092 10.0275 19.9893 10.0277 20.3242 9.12286L21.2627 6.5877C21.2667 6.57701 21.2754 6.56827 21.2861 6.56426L21.3906 6.5252C22.4022 7.92389 22.9999 9.6418 23 11.4998C23 16.1941 19.1943 19.9997 14.5 19.9998H10.5C9.42178 19.9998 8.38953 19.7986 7.44043 19.4324C7.39557 19.4151 7.37242 19.4063 7.35059 19.4022C7.33092 19.3984 7.31199 19.3973 7.29199 19.3982C7.26974 19.3994 7.24635 19.4044 7.20117 19.4149L3.28906 20.3182C3.03562 20.3767 2.90843 20.4059 2.83008 20.369C2.76204 20.3368 2.71228 20.2751 2.69434 20.202C2.67389 20.1178 2.72739 19.9992 2.83496 19.7625L3.95996 17.2879C3.99815 17.2039 4.0175 17.1616 4.02148 17.1199C4.02502 17.082 4.01989 17.0463 4.00684 17.0106C3.9924 16.9712 3.96224 16.9331 3.90137 16.8582C2.71267 15.3961 2 13.531 2 11.4998C2.00019 6.80563 5.80581 2.99994 10.5 2.99981H14.5Z" fill="black"/>
<path d="M18.8438 0.352349C19.0176 -0.117433 19.6826 -0.117466 19.8564 0.352349L20.7939 2.88751C20.8486 3.03511 20.9656 3.15221 21.1133 3.20684L23.6484 4.14434C24.1177 4.3184 24.1178 4.98303 23.6484 5.15704L21.1133 6.09454C20.9656 6.14919 20.8486 6.26618 20.7939 6.41387L19.8564 8.94903C19.6826 9.41878 19.0177 9.41862 18.8438 8.94903L17.9053 6.41387C17.8507 6.26634 17.7344 6.14926 17.5869 6.09454L15.0508 5.15704L14.9727 5.12188L14.9707 5.11993C14.5829 4.90413 14.6097 4.30785 15.0508 4.14434L17.5869 3.20684C17.7344 3.15213 17.8507 3.03507 17.9053 2.88751L18.8438 0.352349Z" fill="black"/>
</svg>
