<svg width="24" height="24" viewBox="0 0 24 24" fill="none" xmlns="http://www.w3.org/2000/svg">
<path d="M14.5 2.24983C15.0664 2.24984 15.6209 2.30272 16.1592 2.40023L14.6172 2.97151C14.1887 3.13019 13.8783 3.41272 13.6855 3.74983H10.5C6.21985 3.7499 2.75 7.21967 2.75 11.4998C2.75004 13.2662 3.34049 14.8929 4.33496 16.1961L4.53906 16.453C4.78019 16.7429 4.84516 17.1527 4.68262 17.5106L3.8125 19.4266L7.0791 18.6737L7.22949 18.6502C7.33044 18.6428 7.43128 18.6514 7.52832 18.6737L7.6709 18.7176C8.54625 19.061 9.50033 19.2498 10.5 19.2498H14.5C18.7801 19.2498 22.2499 15.7799 22.25 11.4998C22.25 10.2965 21.9767 9.15659 21.4873 8.14046L21.8525 7.15218L22.5264 6.90316C23.3036 8.2575 23.75 9.8263 23.75 11.4998C23.7499 16.6084 19.6085 20.7498 14.5 20.7498H10.5C9.36578 20.7498 8.27848 20.5425 7.27246 20.1678L3.16211 21.117C2.35484 21.3032 1.68369 20.4826 2.02637 19.7283L3.19141 17.1668C1.97594 15.6013 1.25004 13.6348 1.25 11.4998C1.25 6.39124 5.39142 2.2499 10.5 2.24983H14.5Z" fill="black"/>
<path d="M13.7158 7.90706C13.8897 7.43755 14.5545 7.43766 14.7285 7.90706L15.0107 8.66976C15.0654 8.81699 15.1819 8.93338 15.3291 8.98812L16.0928 9.27034C16.5624 9.44426 16.5623 10.1091 16.0928 10.283L15.6582 10.4432L15.3291 10.5653C15.182 10.62 15.0654 10.7365 15.0107 10.8836L14.7285 11.6473L14.6904 11.7293C14.4879 12.089 13.9563 12.0892 13.7539 11.7293L13.7158 11.6473L13.4336 10.8836C13.3788 10.7364 13.2626 10.6198 13.1152 10.5653L12.3525 10.283C11.8832 10.109 11.8832 9.44436 12.3525 9.27034L13.1152 8.98812C13.2626 8.93349 13.3789 8.8171 13.4336 8.66976L13.7158 7.90706Z" fill="black"/>
<path fill-rule="evenodd" clip-rule="evenodd" d="M18.8428 0.352374C19.0166 -0.117458 19.6816 -0.117458 19.8555 0.352374L20.793 2.88753C20.8476 3.03504 20.9648 3.15123 21.1123 3.20589L23.6475 4.14437C24.1173 4.31822 24.1173 4.98321 23.6475 5.15706L23.2129 5.31722L21.1123 6.09456C20.9648 6.14931 20.8476 6.26636 20.793 6.4139L19.8555 8.94905L19.8174 9.03206C19.6003 9.41677 19.0058 9.38904 18.8428 8.94905L17.9043 6.4139C17.8633 6.30322 17.7879 6.21003 17.6904 6.1473L17.5859 6.09456L15.0508 5.15706C14.5814 4.98314 14.5816 4.3185 15.0508 4.14437L15.4844 3.98323L17.5859 3.20589C17.6964 3.16497 17.7898 3.08928 17.8525 2.99202L17.9043 2.88753L18.8428 0.352374ZM19.3115 3.40804C19.1048 3.96604 18.6645 4.4066 18.1064 4.61312L18.0039 4.65023L18.1064 4.68831C18.5949 4.86908 18.9934 5.22827 19.2236 5.68929L19.3115 5.89339L19.3486 5.99495L19.3867 5.89339L19.4746 5.68929C19.7048 5.22846 20.1036 4.86912 20.5918 4.68831L20.6934 4.65023L20.5918 4.61312C20.0337 4.40654 19.5933 3.96607 19.3867 3.40804L19.3486 3.3055L19.3115 3.40804Z" fill="black"/>
</svg>
