<svg width="24" height="24" viewBox="0 0 24 24" fill="none" xmlns="http://www.w3.org/2000/svg">
<path d="M15.1709 2.49983L14.5313 2.73714C12.7556 3.39419 12.7558 5.90506 14.5313 6.56234L16.6514 7.34749L17.4375 9.46859C18.0946 11.2443 20.6056 11.2444 21.2627 9.46859L22.0479 7.34749L23.2451 6.90413C23.2507 7.24671 23.25 7.62734 23.25 8.04964V12.45C23.25 13.2773 23.2509 13.9436 23.207 14.4813C23.1624 15.0277 23.067 15.5079 22.8408 15.952C22.4813 16.6574 21.9076 17.2312 21.2022 17.5907C20.7581 17.8169 20.2779 17.9122 19.7314 17.9569C19.1937 18.0008 18.5276 17.9998 17.7002 17.9998H12.3105L7.96289 22.3475C7.8666 22.4438 7.75849 22.5529 7.66211 22.6336C7.58427 22.6988 7.37624 22.8699 7.07813 22.8934C6.75922 22.9183 6.44702 22.789 6.23926 22.5457C6.04528 22.3184 6.01971 22.0511 6.01074 21.95C5.99965 21.8246 6 21.6704 6 21.534V17.9979C5.3096 17.9974 4.73977 17.9954 4.26856 17.9569C3.72204 17.9122 3.24199 17.8169 2.79785 17.5907C2.09233 17.2311 1.51868 16.6575 1.15918 15.952C0.93298 15.5079 0.837627 15.0277 0.79297 14.4813C0.749066 13.9436 0.750001 13.2773 0.750002 12.45V8.04964C0.750001 7.22234 0.749053 6.5561 0.79297 6.01839C0.837637 5.47205 0.933005 4.99171 1.15918 4.54769C1.51868 3.84234 2.09249 3.26848 2.79785 2.90901C3.2419 2.68284 3.72217 2.58746 4.26856 2.5428C4.8063 2.49888 5.47243 2.49983 6.29981 2.49983H15.1709Z" fill="black"/>
<path d="M18.8428 0.352374C19.0166 -0.117458 19.6816 -0.117458 19.8555 0.352374L20.793 2.88753C20.8476 3.03512 20.9648 3.15216 21.1123 3.20687L23.6475 4.14437C24.1173 4.31822 24.1173 4.98321 23.6475 5.15706L21.1123 6.09456C20.9648 6.14929 20.8476 6.26634 20.793 6.4139L19.8555 8.94905L19.8174 9.03109C19.6005 9.41657 19.0058 9.38951 18.8428 8.94905L17.9043 6.4139C17.8496 6.26622 17.7336 6.14921 17.5859 6.09456L15.0498 5.15706C14.5809 4.98292 14.581 4.3186 15.0498 4.14437L15.0518 4.14339L15.4854 3.98226L17.5869 3.20491L17.5859 3.20687C17.7335 3.15225 17.8496 3.03505 17.9043 2.88753L18.8428 0.352374Z" fill="black"/>
<path d="M19.8184 9.02913C19.8325 9.00421 19.8449 8.97752 19.8555 8.94905L19.8564 8.94808C19.8459 8.97669 19.8324 9.00401 19.8184 9.02913Z" fill="black"/>
<path d="M22.1348 3.58187L22.1367 3.58382L21.1133 3.20589L22.1348 3.58187Z" fill="black"/>
<path d="M19.8174 9.03109C19.8038 9.05514 19.7888 9.07768 19.7725 9.09847C19.7893 9.07713 19.8043 9.05384 19.8184 9.02913L19.8174 9.03109Z" fill="black"/>
</svg>
