<svg width="24" height="24" viewBox="0 0 24 24" fill="none" xmlns="http://www.w3.org/2000/svg">
<path d="M12.6738 2.99982C11.7106 4.51179 12.2137 6.77264 14.1836 7.50177L15.873 8.12579L16.499 9.8172C17.4786 12.4629 21.2218 12.4631 22.2012 9.8172L22.5684 8.82403C22.8473 9.66545 23 10.5648 23 11.4998C23 16.1942 19.1943 19.9997 14.5 19.9998H10.5C9.42178 19.9998 8.38953 19.7996 7.44043 19.4334C7.39535 19.416 7.37248 19.4064 7.35059 19.4022C7.33092 19.3984 7.31199 19.3973 7.29199 19.3983C7.26975 19.3994 7.24633 19.4044 7.20117 19.4149L3.28906 20.3182C3.03562 20.3767 2.90843 20.4059 2.83008 20.369C2.76204 20.3368 2.71228 20.2751 2.69434 20.202C2.67389 20.1178 2.72739 19.9992 2.83496 19.7625L3.95996 17.2879C3.99818 17.2038 4.01752 17.1616 4.02148 17.1199C4.02504 17.082 4.0199 17.0464 4.00684 17.0106C3.9924 16.9712 3.96224 16.9331 3.90137 16.8582C2.71267 15.3961 2 13.5311 2 11.4998C2.00019 6.80564 5.80581 2.99995 10.5 2.99982H12.6738Z" fill="black"/>
<path d="M14.8936 5.0672C14.8729 5.05034 14.8533 5.03275 14.8359 5.01349C14.5977 4.75072 14.6688 4.2859 15.0498 4.14435L17.0703 3.3963L17.5859 3.20685C17.7335 3.15222 17.8496 3.03508 17.9043 2.88751L18.8428 0.352355C19.0166 -0.117464 19.6816 -0.117439 19.8555 0.352355L20.793 2.88751C20.8476 3.03512 20.9647 3.15214 21.1123 3.20685L23.6475 4.14435C24.1173 4.3182 24.1173 4.98319 23.6475 5.15704L21.1123 6.09454C20.9648 6.14926 20.8476 6.2663 20.793 6.41388L19.8555 8.94903C19.6815 9.41864 19.0166 9.41879 18.8428 8.94903L17.9043 6.41388C17.8496 6.26622 17.7336 6.14919 17.5859 6.09454L15.0498 5.15704C14.9898 5.13476 14.9382 5.10347 14.8936 5.0672Z" fill="black"/>
<path d="M19.7734 9.09943C19.7558 9.12195 19.7362 9.14219 19.7158 9.16095C19.7549 9.12481 19.7902 9.08211 19.8184 9.03204L19.7734 9.09943Z" fill="black"/>
</svg>
