<svg width="24" height="24" viewBox="0 0 24 24" fill="none" xmlns="http://www.w3.org/2000/svg">
<path d="M15.127 2.24983L14.4434 2.50276C13.5971 2.81608 13.1109 3.50469 12.9834 4.24984H6.29981C5.44358 4.24984 4.86113 4.2502 4.41113 4.28694C3.97293 4.32276 3.74817 4.38795 3.5918 4.46761C3.21565 4.65934 2.90948 4.96546 2.71778 5.34163C2.63813 5.49802 2.57292 5.72274 2.53711 6.16097C2.50037 6.61098 2.5 7.19336 2.5 8.04964V12.45C2.5 13.3063 2.50035 13.8887 2.53711 14.3387C2.57293 14.777 2.6381 15.0017 2.71778 15.158C2.9095 15.5342 3.21561 15.8403 3.5918 16.0321C3.74818 16.1117 3.97291 16.1769 4.41113 16.2127C4.86113 16.2495 5.44358 16.2498 6.29981 16.2498H6.34961C6.40312 16.2498 6.50396 16.2492 6.59571 16.2567C6.67336 16.263 6.79252 16.2779 6.92774 16.326L7.06738 16.3866C7.27315 16.4914 7.44537 16.6507 7.56543 16.8465L7.61328 16.9325C7.71063 17.1236 7.7347 17.3006 7.74317 17.4041C7.75066 17.4959 7.75 17.5968 7.75 17.6502V20.0858L11.1758 16.66C11.1833 16.6525 11.25 16.5806 11.3457 16.5067L11.4502 16.4344L11.5361 16.3856C11.5941 16.356 11.6549 16.3315 11.7168 16.3114L11.8115 16.284L11.9375 16.2616C12.057 16.2462 12.155 16.2498 12.166 16.2498H17.7002C18.5564 16.2498 19.1389 16.2495 19.5889 16.2127C20.027 16.1769 20.2518 16.1117 20.4082 16.0321C20.7843 15.8404 21.0905 15.5342 21.2822 15.158C21.3619 15.0017 21.4271 14.777 21.4629 14.3387C21.4996 13.8887 21.5 13.3063 21.5 12.45V9.54573L22.2412 7.5428L23.4961 7.07796C23.4993 7.37648 23.5 7.70001 23.5 8.04964V12.45C23.5 13.2734 23.501 13.9514 23.4561 14.5018C23.4101 15.0638 23.3117 15.581 23.0645 16.0662C22.681 16.8186 22.0688 17.4308 21.3164 17.8143C20.8312 18.0615 20.3139 18.16 19.752 18.2059C19.2016 18.2508 18.5235 18.2498 17.7002 18.2498H12.4141L8.13965 22.5242C8.04663 22.6173 7.92932 22.7364 7.82227 22.826C7.73993 22.8949 7.47964 23.1123 7.09766 23.1424C6.699 23.1736 6.30954 23.0119 6.04981 22.7078C5.80064 22.4161 5.77116 22.0781 5.76172 21.9715C5.74942 21.8324 5.75 21.6655 5.75 21.534V18.2469C5.16884 18.2453 4.67068 18.2404 4.24805 18.2059C3.68609 18.16 3.16883 18.0615 2.6836 17.8143C1.93115 17.4308 1.31901 16.8187 0.935549 16.0662C0.688296 15.581 0.589882 15.0638 0.543947 14.5018C0.498982 13.9514 0.500002 13.2734 0.500002 12.45V8.04964C0.500002 7.22624 0.498994 6.54823 0.543947 5.99788C0.58987 5.4359 0.688347 4.91867 0.935549 4.43343C1.31899 3.68101 1.93119 3.06885 2.6836 2.68538C3.16882 2.43817 3.6861 2.33971 4.24805 2.29378C4.79837 2.24883 5.47645 2.24983 6.29981 2.24983H15.127Z" fill="black"/>
<path d="M13.7158 7.90706C13.8897 7.43755 14.5545 7.43766 14.7285 7.90706L15.0107 8.66976C15.0654 8.81699 15.1819 8.93338 15.3291 8.98812L16.0928 9.27034C16.5624 9.44426 16.5623 10.1091 16.0928 10.283L15.6582 10.4432L15.3291 10.5653C15.182 10.62 15.0654 10.7365 15.0107 10.8836L14.7285 11.6473L14.6904 11.7293C14.4879 12.089 13.9563 12.0892 13.7539 11.7293L13.7158 11.6473L13.4336 10.8836C13.3925 10.7732 13.3171 10.6796 13.2197 10.617L13.1152 10.5653L12.3525 10.283C11.8832 10.109 11.8832 9.44436 12.3525 9.27034L12.7852 9.10921L13.1152 8.98812C13.2257 8.94716 13.3192 8.87159 13.3818 8.77425L13.4336 8.66976L13.7158 7.90706Z" fill="black"/>
<path fill-rule="evenodd" clip-rule="evenodd" d="M18.8428 0.352374C19.0166 -0.117458 19.6816 -0.117458 19.8555 0.352374L20.793 2.88753C20.8476 3.03504 20.9648 3.15123 21.1123 3.20589L23.6475 4.14437C24.1173 4.31822 24.1173 4.98321 23.6475 5.15706L23.2129 5.31722L21.1123 6.09456C20.9648 6.14931 20.8476 6.26636 20.793 6.4139L19.8555 8.94905L19.8174 9.03206C19.6003 9.41677 19.0058 9.38904 18.8428 8.94905L17.9043 6.4139C17.8633 6.30322 17.7879 6.21003 17.6904 6.1473L17.5859 6.09456L15.0508 5.15706C14.5814 4.98314 14.5816 4.3185 15.0508 4.14437L15.4844 3.98323L17.5859 3.20589C17.6964 3.16497 17.7898 3.08928 17.8525 2.99202L17.9043 2.88753L18.8428 0.352374ZM19.3486 4.32308C19.2498 4.44178 19.1402 4.5514 19.0215 4.65023C19.1403 4.74912 19.2497 4.85856 19.3486 4.97737C19.4474 4.85869 19.5571 4.74904 19.6758 4.65023C19.557 4.55131 19.4475 4.44189 19.3486 4.32308Z" fill="black"/>
</svg>
