<svg width="24" height="24" viewBox="0 0 24 24" fill="none" xmlns="http://www.w3.org/2000/svg">
<path d="M14.5 1.99983C14.879 1.99984 15.2527 2.02406 15.6201 2.06722L14.4434 2.50276C13.6928 2.78068 13.2252 3.35385 13.04 3.99983H10.5C6.35792 3.9999 3 7.35774 3 11.4998C3.00004 13.3235 3.64992 14.9928 4.73145 16.2928C5.03226 16.6545 5.11352 17.1665 4.91016 17.6141L4.24902 19.0701L7.02246 18.4295C7.21082 18.3861 7.40325 18.3877 7.58496 18.4295L7.7627 18.4852C8.6093 18.8172 9.53227 18.9998 10.5 18.9998H14.5C18.642 18.9998 21.9999 15.6419 22 11.4998C22 10.6914 21.8714 9.91295 21.6348 9.18343L22.2412 7.5428L23.0029 7.26058C23.6404 8.53678 24 9.97627 24 11.4998C23.9999 16.7464 19.7466 20.9998 14.5 20.9998H10.5C9.36207 20.9998 8.26952 20.7969 7.25586 20.4285L3.21777 21.3602C2.2088 21.5926 1.37048 20.5676 1.79883 19.6248L2.90234 17.2C1.70942 15.6122 1.00004 13.6381 1 11.4998C1 6.25317 5.25335 1.9999 10.5 1.99983H14.5Z" fill="black"/>
<path d="M13.7158 7.90706C13.8897 7.43755 14.5545 7.43766 14.7285 7.90706L15.0107 8.66976C15.0654 8.81699 15.1819 8.93338 15.3291 8.98812L16.0928 9.27034C16.5624 9.44426 16.5623 10.1091 16.0928 10.283L15.6582 10.4432L15.3291 10.5653C15.182 10.62 15.0654 10.7365 15.0107 10.8836L14.7285 11.6473L14.6904 11.7293C14.4879 12.089 13.9563 12.0892 13.7539 11.7293L13.7158 11.6473L13.4336 10.8836C13.3925 10.7732 13.3171 10.6796 13.2197 10.617L13.1152 10.5653L12.3525 10.283C11.8832 10.109 11.8832 9.44436 12.3525 9.27034L12.7852 9.10921L13.1152 8.98812C13.2257 8.94716 13.3191 8.87159 13.3818 8.77425L13.4336 8.66976L13.7158 7.90706Z" fill="black"/>
<path fill-rule="evenodd" clip-rule="evenodd" d="M18.8428 0.352374C19.0166 -0.117458 19.6816 -0.117458 19.8555 0.352374L20.793 2.88753C20.8476 3.03504 20.9648 3.15123 21.1123 3.20589L23.6475 4.14437C24.1173 4.31822 24.1173 4.98321 23.6475 5.15706L23.2129 5.31722L21.1123 6.09456C20.9648 6.14931 20.8476 6.26636 20.793 6.4139L19.8555 8.94905L19.8174 9.03206C19.6003 9.41677 19.0058 9.38904 18.8428 8.94905L17.9043 6.4139C17.8633 6.30322 17.7879 6.21003 17.6904 6.1473L17.5859 6.09456L15.0508 5.15706C14.5814 4.98314 14.5816 4.3185 15.0508 4.14437L15.4844 3.98323L17.5859 3.20589C17.6964 3.16497 17.7898 3.08928 17.8525 2.99202L17.9043 2.88753L18.8428 0.352374ZM19.3486 4.32308C19.2498 4.44178 19.1402 4.5514 19.0215 4.65023C19.1403 4.74912 19.2497 4.85856 19.3486 4.97737C19.4474 4.85869 19.5571 4.74904 19.6758 4.65023C19.557 4.55131 19.4475 4.44189 19.3486 4.32308Z" fill="black"/>
</svg>
