<svg width="24" height="24" viewBox="0 0 24 24" fill="none" xmlns="http://www.w3.org/2000/svg">
<path d="M15.9375 2.74983L14.7031 3.20687C13.3636 3.70324 13.3635 5.59833 14.7031 6.09456L17.04 6.95882L17.9053 9.29573C18.4013 10.6359 20.2967 10.6357 20.793 9.29573L21.6572 6.95882L22.9824 6.46859C23.0001 6.91062 23 7.43117 23 8.04964V12.45C23 13.2814 22.9999 13.9356 22.957 14.4608C22.9136 14.9918 22.8234 15.4357 22.6182 15.8387C22.2827 16.4971 21.7472 17.0325 21.0889 17.368C20.6859 17.5733 20.2419 17.6635 19.7109 17.7069C19.1858 17.7497 18.5316 17.7498 17.7002 17.7498H12.207L7.78613 22.1707C7.68628 22.2706 7.58693 22.3702 7.50098 22.4422C7.4274 22.5038 7.27245 22.6274 7.05859 22.6444C6.8195 22.663 6.58549 22.566 6.42969 22.3836C6.29028 22.2202 6.26822 22.023 6.25977 21.9276C6.24991 21.8158 6.25 21.6753 6.25 21.534V17.7489C5.4422 17.7489 4.80372 17.7489 4.28906 17.7069C3.758 17.6635 3.31417 17.5733 2.91113 17.368C2.25271 17.0324 1.71735 16.4971 1.38184 15.8387C1.17658 15.4357 1.08635 14.9918 1.04297 14.4608C1.0001 13.9356 1 13.2814 1 12.45V8.04964C1 7.2182 1.00007 6.56407 1.04297 6.0389C1.08638 5.50796 1.17653 5.06393 1.38184 4.66097C1.71737 4.00271 2.25284 3.46715 2.91113 3.13167C3.31408 2.92644 3.75815 2.8362 4.28906 2.7928C4.81424 2.74992 5.4684 2.74983 6.2998 2.74983H15.9375Z" fill="black"/>
<path d="M18.8428 0.352374C19.0166 -0.117458 19.6816 -0.117458 19.8555 0.352374L20.7939 2.88753C20.8486 3.03515 20.9647 3.15221 21.1123 3.20687L23.6475 4.14437C24.1173 4.31822 24.1173 4.98321 23.6475 5.15706L21.1123 6.09554C20.9649 6.15022 20.8486 6.26646 20.7939 6.4139L19.8555 8.95003C19.6813 9.41909 19.0168 9.41923 18.8428 8.95003L17.9053 6.4139C17.8506 6.26622 17.7336 6.15019 17.5859 6.09554L15.0508 5.15706C14.5811 4.98319 14.5812 4.31833 15.0508 4.14437L17.5859 3.20589L17.6904 3.15413C17.7881 3.0913 17.8643 2.99821 17.9053 2.88753L18.8428 0.352374Z" fill="black"/>
<path d="M21.1123 3.20687L21.3975 3.31038C21.3984 3.31101 21.3994 3.3117 21.4004 3.31233L21.1123 3.20687Z" fill="black"/>
</svg>
