<svg width="24" height="24" viewBox="0 0 24 24" fill="none" xmlns="http://www.w3.org/2000/svg">
<path d="M14.5 2.74983C15.0831 2.74984 15.653 2.80706 16.2041 2.91585L15.2168 3.28206C14.9806 3.26173 14.7415 3.24984 14.5 3.24983H10.5C5.94371 3.2499 2.25 6.94353 2.25 11.4998C2.25004 13.4716 2.94181 15.2818 4.0957 16.701C4.14398 16.7604 4.20989 16.8362 4.24219 16.9246C4.26795 16.9953 4.27755 17.0685 4.27051 17.1434C4.26155 17.2369 4.21792 17.3245 4.1875 17.3914L3.0625 19.866C3.00675 19.9887 2.9728 20.0656 2.95312 20.1219C2.95198 20.1252 2.95115 20.1288 2.9502 20.1317C2.95312 20.1314 2.95664 20.1321 2.95996 20.1317C3.01914 20.1236 3.10191 20.1044 3.2334 20.0741L7.14551 19.1717C7.18193 19.1633 7.22978 19.1507 7.2793 19.1483C7.31939 19.1463 7.35901 19.1495 7.39844 19.1571C7.44749 19.1665 7.495 19.186 7.53125 19.2C8.45202 19.5553 9.45314 19.7498 10.5 19.7498H14.5C19.0562 19.7498 22.7499 16.0561 22.75 11.4998C22.75 9.82315 22.2489 8.26372 21.3896 6.96175L21.4629 6.76351L21.7812 6.64534C22.7091 8.03435 23.25 9.70404 23.25 11.4998C23.2499 16.3322 19.3324 20.2498 14.5 20.2498H10.5C9.39064 20.2498 8.32883 20.0429 7.35156 19.6658C7.32749 19.6566 7.31395 19.6515 7.30469 19.6483H7.30273C7.29387 19.65 7.28145 19.6526 7.25781 19.658L3.3457 20.5614C3.22398 20.5894 3.11541 20.6148 3.02832 20.6268C2.9452 20.6381 2.83156 20.6454 2.72363 20.5946C2.58745 20.5303 2.48711 20.4078 2.45117 20.2616C2.42277 20.1457 2.45284 20.0361 2.48047 19.9569C2.50944 19.8739 2.55573 19.7727 2.60742 19.659L3.73242 17.1844C3.75274 17.1397 3.76378 17.116 3.77051 17.0985L3.77148 17.0965L3.76855 17.0936C3.7568 17.0773 3.7391 17.0559 3.70703 17.0164C2.4833 15.5114 1.75004 13.5907 1.75 11.4998C1.75 6.66738 5.66757 2.7499 10.5 2.74983H14.5Z" fill="black"/>
<path fill-rule="evenodd" clip-rule="evenodd" d="M13.7158 7.90706C13.8897 7.43755 14.5545 7.43766 14.7285 7.90706L15.0107 8.66976C15.0654 8.81699 15.1819 8.93338 15.3291 8.98812L16.0928 9.27034C16.5624 9.44426 16.5623 10.1091 16.0928 10.283L15.3291 10.5653L15.2256 10.617C15.128 10.6796 15.0518 10.773 15.0107 10.8836L14.7285 11.6473L14.6904 11.7293C14.4879 12.089 13.9563 12.0892 13.7539 11.7293L13.7158 11.6473L13.4336 10.8836C13.3925 10.7732 13.3171 10.6796 13.2197 10.617L13.1152 10.5653L12.3525 10.283C11.9125 10.1199 11.8844 9.52534 12.2695 9.30843L12.3525 9.27034L13.1152 8.98812C13.2257 8.94716 13.3191 8.87159 13.3818 8.77425L13.4336 8.66976L13.7158 7.90706ZM14.1973 8.06038L14.1934 8.06429C14.192 8.06615 14.1888 8.07117 14.1855 8.07991L13.9023 8.84261C13.797 9.12702 13.5725 9.35161 13.2881 9.45687L12.5254 9.74007C12.5163 9.74351 12.5114 9.74658 12.5098 9.74788L12.5059 9.75179C12.5035 9.75565 12.5001 9.76516 12.5 9.77718C12.5001 9.78896 12.5035 9.7978 12.5059 9.80159L12.5098 9.8055C12.5115 9.80685 12.5162 9.81083 12.5254 9.81429L13.2881 10.0965C13.5725 10.2018 13.797 10.4264 13.9023 10.7108L14.1855 11.4735C14.1888 11.4822 14.1919 11.4872 14.1934 11.4891L14.1973 11.493C14.2009 11.4954 14.2104 11.4997 14.2227 11.4998C14.2347 11.4998 14.2433 11.4954 14.2471 11.493L14.251 11.4891C14.2523 11.4874 14.2563 11.4827 14.2598 11.4735L14.542 10.7108C14.6473 10.4264 14.8719 10.2018 15.1562 10.0965L15.9189 9.81429C15.9281 9.8109 15.9327 9.807 15.9346 9.8055C15.9361 9.80424 15.9385 9.80159 15.9385 9.80159C15.9409 9.79791 15.9452 9.7892 15.9453 9.77718C15.9452 9.765 15.9409 9.75556 15.9385 9.75179L15.9346 9.74788C15.9326 9.74643 15.9278 9.74336 15.9189 9.74007L15.1562 9.45687C14.8719 9.35154 14.6473 9.12695 14.542 8.84261L14.2598 8.07991C14.2563 8.07086 14.2524 8.06603 14.251 8.06429L14.2471 8.06038C14.2433 8.058 14.2346 8.05459 14.2227 8.05452C14.2103 8.0546 14.2009 8.05798 14.1973 8.06038Z" fill="black"/>
<path fill-rule="evenodd" clip-rule="evenodd" d="M18.8428 0.352374C19.0166 -0.117458 19.6816 -0.117458 19.8555 0.352374L20.793 2.88753C20.8476 3.03504 20.9648 3.15123 21.1123 3.20589L23.6475 4.14437C24.1173 4.31822 24.1173 4.98321 23.6475 5.15706L21.1123 6.09456L21.0078 6.1473C20.9104 6.21003 20.8339 6.30333 20.793 6.4139L19.8555 8.94905L19.8174 9.03206C19.6003 9.41677 19.0058 9.38904 18.8428 8.94905L17.9043 6.4139C17.8633 6.30322 17.7879 6.21003 17.6904 6.1473L17.5859 6.09456L15.0508 5.15706C14.6107 4.99402 14.5829 4.39954 14.9678 4.18245L15.0508 4.14437L17.5859 3.20589C17.6964 3.16497 17.7898 3.08928 17.8525 2.99202L17.9043 2.88753L18.8428 0.352374ZM19.3242 0.505694L19.3203 0.5096C19.3187 0.511591 19.3148 0.516527 19.3115 0.525225L18.374 3.06136C18.2686 3.34548 18.044 3.57038 17.7598 3.67562L15.2236 4.61312C15.2145 4.6166 15.2096 4.62061 15.208 4.62191L15.2041 4.62581C15.2017 4.62973 15.1983 4.63846 15.1982 4.65023C15.1983 4.66248 15.2017 4.67195 15.2041 4.67562L15.208 4.67952C15.2097 4.68085 15.2145 4.68391 15.2236 4.68734L17.7598 5.62581C18.0442 5.73116 18.2688 5.9556 18.374 6.24007L19.3115 8.77523C19.315 8.78458 19.319 8.79012 19.3203 8.79183L19.3242 8.79573C19.3279 8.79811 19.3366 8.80145 19.3486 8.80159C19.3606 8.80159 19.37 8.79813 19.374 8.79573L19.3779 8.79183C19.3792 8.79019 19.3823 8.7845 19.3857 8.77523L20.3242 6.24007C20.4295 5.95573 20.6542 5.7312 20.9385 5.62581L23.4736 4.68734C23.4824 4.68408 23.4881 4.681 23.4902 4.67952L23.4941 4.67562C23.4965 4.67197 23.4999 4.66251 23.5 4.65023C23.4999 4.63814 23.4965 4.62958 23.4941 4.62581C23.4941 4.62581 23.4918 4.62319 23.4902 4.62191C23.4885 4.6205 23.4831 4.61661 23.4736 4.61312L20.9385 3.67562C20.6542 3.57035 20.4296 3.34557 20.3242 3.06136L19.3857 0.525225C19.3823 0.516086 19.3793 0.511349 19.3779 0.5096C19.3766 0.50799 19.374 0.505694 19.374 0.505694C19.3702 0.503275 19.361 0.499835 19.3486 0.499835C19.3365 0.499978 19.3278 0.503321 19.3242 0.505694Z" fill="black"/>
</svg>
