<svg width="24" height="24" viewBox="0 0 24 24" fill="none" xmlns="http://www.w3.org/2000/svg">
<path d="M15.9814 2.99983L14.79 3.44124C14.7434 3.45852 14.699 3.47867 14.6562 3.49983H6.2998C5.45586 3.49983 4.83724 3.50004 4.34961 3.53987C3.86533 3.57948 3.53152 3.65728 3.25195 3.79964C2.73461 4.06329 2.31343 4.48443 2.0498 5.00179C1.90746 5.28137 1.82963 5.61514 1.79004 6.09944C1.75021 6.58709 1.75 7.20564 1.75 8.04964V12.45C1.75 13.294 1.7502 13.9126 1.79004 14.4002C1.82965 14.8846 1.90742 15.2183 2.0498 15.4979C2.31345 16.0153 2.73457 16.4364 3.25195 16.7C3.53152 16.8424 3.86532 16.9202 4.34961 16.9598C4.83724 16.9996 5.45585 16.9998 6.2998 16.9998H6.34961C6.41523 16.9998 6.4801 16.9994 6.53418 17.0037C6.59121 17.0084 6.65887 17.0201 6.72656 17.0545C6.8206 17.1025 6.89739 17.1792 6.94531 17.2733C6.97973 17.341 6.99143 17.4086 6.99609 17.4657C7.00048 17.5198 7 17.5846 7 17.6502V21.534C7 21.69 7.0006 21.7904 7.00684 21.8612C7.00729 21.8659 7.00932 21.8707 7.00977 21.8748C7.01272 21.8725 7.0162 21.8698 7.01953 21.867C7.07395 21.8215 7.14554 21.7508 7.25586 21.6405L11.7061 17.1903C11.7408 17.1555 11.7866 17.1076 11.8428 17.0731C11.8873 17.0459 11.9366 17.0257 11.9873 17.0135C12.0513 16.9983 12.1169 16.9998 12.166 16.9998H17.7002C18.5441 16.9998 19.1628 16.9996 19.6504 16.9598C20.1346 16.9202 20.4685 16.8424 20.748 16.7C21.2654 16.4364 21.6866 16.0152 21.9502 15.4979C22.0926 15.2183 22.1704 14.8845 22.21 14.4002C22.2498 13.9126 22.25 13.294 22.25 12.45V8.04964C22.25 7.41067 22.2507 6.90083 22.2334 6.47933L22.7227 6.29866C22.7484 6.76869 22.75 7.33914 22.75 8.04964V12.45C22.75 13.2856 22.7499 13.9276 22.708 14.4403C22.6659 14.9559 22.5799 15.3635 22.3955 15.7254C22.084 16.3367 21.5868 16.8338 20.9756 17.1453C20.6137 17.3297 20.206 17.4157 19.6904 17.4578C19.1778 17.4997 18.5357 17.4998 17.7002 17.4998H12.166C12.1335 17.4998 12.1163 17.5003 12.1045 17.5008L12.0596 17.5438L7.60938 21.994C7.50598 22.0974 7.4163 22.1876 7.34082 22.2508C7.27159 22.3087 7.16894 22.3841 7.03906 22.3944C6.87965 22.4068 6.72399 22.3421 6.62012 22.2205C6.53558 22.1215 6.51678 21.996 6.50879 21.9061C6.50009 21.8079 6.5 21.6805 6.5 21.534V17.6502C6.5 17.5762 6.49944 17.5348 6.49707 17.5057V17.5028H6.49414C6.46502 17.5004 6.42354 17.4998 6.34961 17.4998H6.2998C5.46425 17.4998 4.82223 17.4997 4.30957 17.4578C3.79397 17.4157 3.38634 17.3297 3.02441 17.1453C2.41311 16.8338 1.91605 16.3367 1.60449 15.7254C1.42007 15.3635 1.33413 14.9559 1.29199 14.4403C1.25013 13.9276 1.25 13.2856 1.25 12.45V8.04964C1.25 7.21404 1.25014 6.57208 1.29199 6.05941C1.33412 5.54379 1.42012 5.13618 1.60449 4.77425C1.91602 4.16297 2.41315 3.66589 3.02441 3.35433C3.38633 3.16994 3.79398 3.08396 4.30957 3.04183C4.82223 2.99997 5.46425 2.99983 6.2998 2.99983H15.9814Z" fill="black"/>
<path fill-rule="evenodd" clip-rule="evenodd" d="M13.7158 7.90706C13.8897 7.43755 14.5545 7.43766 14.7285 7.90706L15.0107 8.66976C15.0654 8.81699 15.1819 8.93338 15.3291 8.98812L16.0928 9.27034C16.5624 9.44426 16.5623 10.1091 16.0928 10.283L15.3291 10.5653L15.2256 10.617C15.128 10.6796 15.0518 10.773 15.0107 10.8836L14.7285 11.6473L14.6904 11.7293C14.4879 12.089 13.9563 12.0892 13.7539 11.7293L13.7158 11.6473L13.4336 10.8836C13.3925 10.7732 13.3171 10.6796 13.2197 10.617L13.1152 10.5653L12.3525 10.283C11.9125 10.1199 11.8844 9.52534 12.2695 9.30843L12.3525 9.27034L13.1152 8.98812C13.2257 8.94716 13.3191 8.87159 13.3818 8.77425L13.4336 8.66976L13.7158 7.90706ZM14.1973 8.06038C14.196 8.06133 14.1946 8.06278 14.1934 8.06429C14.192 8.06615 14.1888 8.07117 14.1855 8.07991L13.9023 8.84261C13.797 9.12702 13.5725 9.35161 13.2881 9.45687L12.5254 9.74007C12.5163 9.74351 12.5114 9.74658 12.5098 9.74788C12.5083 9.7491 12.5068 9.75046 12.5059 9.75179C12.5035 9.75565 12.5001 9.76516 12.5 9.77718C12.5001 9.78896 12.5035 9.7978 12.5059 9.80159C12.5068 9.80293 12.5083 9.80431 12.5098 9.8055C12.5115 9.80685 12.5162 9.81083 12.5254 9.81429L13.2881 10.0965C13.5725 10.2018 13.797 10.4264 13.9023 10.7108L14.1855 11.4735C14.1888 11.4822 14.1919 11.4872 14.1934 11.4891C14.1946 11.4906 14.196 11.4921 14.1973 11.493C14.2009 11.4954 14.2104 11.4997 14.2227 11.4998C14.2347 11.4998 14.2433 11.4954 14.2471 11.493C14.2485 11.4921 14.2497 11.4906 14.251 11.4891C14.2523 11.4874 14.2563 11.4827 14.2598 11.4735L14.542 10.7108C14.6473 10.4264 14.8719 10.2018 15.1562 10.0965L15.9189 9.81429C15.9281 9.8109 15.9327 9.807 15.9346 9.8055C15.9361 9.80424 15.9375 9.80292 15.9385 9.80159C15.9409 9.79791 15.9452 9.7892 15.9453 9.77718C15.9452 9.765 15.9409 9.75556 15.9385 9.75179C15.9375 9.75053 15.9361 9.74908 15.9346 9.74788C15.9326 9.74643 15.9278 9.74336 15.9189 9.74007L15.1562 9.45687C14.8719 9.35154 14.6473 9.12695 14.542 8.84261L14.2598 8.07991C14.2563 8.07086 14.2524 8.06603 14.251 8.06429C14.2498 8.06281 14.2484 8.06131 14.2471 8.06038C14.2433 8.058 14.2346 8.05459 14.2227 8.05452C14.2103 8.0546 14.2009 8.05798 14.1973 8.06038Z" fill="black"/>
<path fill-rule="evenodd" clip-rule="evenodd" d="M18.8428 0.352374C19.0166 -0.117458 19.6816 -0.117458 19.8555 0.352374L20.793 2.88753C20.8476 3.03504 20.9648 3.15123 21.1123 3.20589L23.6475 4.14437C24.1173 4.31822 24.1173 4.98321 23.6475 5.15706L21.1123 6.09456L21.0078 6.1473C20.9104 6.21003 20.8339 6.30333 20.793 6.4139L19.8555 8.94905L19.8174 9.03206C19.6003 9.41677 19.0058 9.38904 18.8428 8.94905L17.9043 6.4139C17.8633 6.30322 17.7879 6.21003 17.6904 6.1473L17.5859 6.09456L15.0508 5.15706C14.6107 4.99402 14.5829 4.39954 14.9678 4.18245L15.0508 4.14437L17.5859 3.20589C17.6964 3.16497 17.7898 3.08928 17.8525 2.99202L17.9043 2.88753L18.8428 0.352374ZM19.3242 0.505694C19.323 0.506644 19.3215 0.508148 19.3203 0.5096C19.3187 0.511591 19.3148 0.516527 19.3115 0.525225L18.374 3.06136C18.2686 3.34548 18.044 3.57038 17.7598 3.67562L15.2236 4.61312C15.2145 4.6166 15.2096 4.62061 15.208 4.62191C15.2066 4.62309 15.205 4.62447 15.2041 4.62581C15.2017 4.62973 15.1983 4.63846 15.1982 4.65023C15.1983 4.66248 15.2017 4.67195 15.2041 4.67562C15.2051 4.67697 15.2065 4.67827 15.208 4.67952C15.2097 4.68085 15.2145 4.68391 15.2236 4.68734L17.7598 5.62581C18.0442 5.73116 18.2688 5.9556 18.374 6.24007L19.3115 8.77523C19.315 8.78458 19.319 8.79012 19.3203 8.79183C19.3216 8.79332 19.3228 8.7948 19.3242 8.79573C19.3279 8.79811 19.3366 8.80145 19.3486 8.80159C19.3606 8.80159 19.37 8.79813 19.374 8.79573C19.3753 8.79487 19.3768 8.79324 19.3779 8.79183C19.3792 8.79019 19.3823 8.7845 19.3857 8.77523L20.3242 6.24007C20.4295 5.95573 20.6542 5.7312 20.9385 5.62581L23.4736 4.68734C23.4824 4.68408 23.4881 4.681 23.4902 4.67952C23.4916 4.67837 23.4932 4.67686 23.4941 4.67562C23.4965 4.67197 23.4999 4.66251 23.5 4.65023C23.4999 4.63814 23.4965 4.62958 23.4941 4.62581C23.4932 4.62438 23.4918 4.62319 23.4902 4.62191C23.4885 4.6205 23.4831 4.61661 23.4736 4.61312L20.9385 3.67562C20.6542 3.57035 20.4296 3.34557 20.3242 3.06136L19.3857 0.525225C19.3823 0.516086 19.3793 0.511349 19.3779 0.5096C19.3766 0.50799 19.3754 0.506663 19.374 0.505694C19.3702 0.503275 19.361 0.499835 19.3486 0.499835C19.3365 0.499978 19.3278 0.503321 19.3242 0.505694Z" fill="black"/>
</svg>
