<svg width="24" height="24" viewBox="0 0 24 24" fill="none" xmlns="http://www.w3.org/2000/svg">
<path d="M13.7461 1.99983C11.5468 3.20879 11.6925 6.57979 14.1836 7.50179L15.873 8.12581L16.499 9.81722C17.4786 12.4629 21.2218 12.4631 22.2012 9.81722L22.8252 8.12581L23.749 7.78499C23.7491 7.87165 23.75 7.95988 23.75 8.04964V12.45C23.75 13.2693 23.7511 13.9594 23.7051 14.5223C23.6579 15.0997 23.5552 15.6532 23.2871 16.1795C22.8797 16.979 22.2292 17.6295 21.4297 18.0369C20.9035 18.305 20.3498 18.4077 19.7725 18.4549C19.2096 18.5009 18.5193 18.4998 17.7002 18.4998H12.5176L8.31641 22.701C8.22689 22.7905 8.09997 22.919 7.98242 23.0174C7.89578 23.09 7.58385 23.3545 7.11817 23.3914C6.63969 23.429 6.17116 23.2358 5.85938 22.8709C5.55537 22.5149 5.52261 22.1058 5.5127 21.994C5.49916 21.841 5.5 21.6607 5.5 21.534V18.4959C5.02106 18.4926 4.59666 18.4851 4.22754 18.4549C3.65021 18.4077 3.09658 18.3051 2.57031 18.0369C1.77075 17.6295 1.12031 16.9791 0.712893 16.1795C0.444765 15.6532 0.342116 15.0997 0.294924 14.5223C0.24895 13.9594 0.250002 13.2693 0.250002 12.45V8.04964C0.250002 7.23038 0.248935 6.54024 0.294924 5.97737C0.342128 5.40003 0.444761 4.84642 0.712893 4.32015C1.12032 3.52069 1.77084 2.87014 2.57031 2.46273C3.09653 2.19467 3.65027 2.09196 4.22754 2.04476C4.79036 1.99879 5.48068 1.99983 6.29981 1.99983H13.7461Z" fill="black"/>
<path d="M18.8428 0.352374C19.0166 -0.117458 19.6816 -0.117458 19.8555 0.352374L20.793 2.88753C20.8476 3.03512 20.9648 3.15216 21.1123 3.20687L23.6475 4.14437C24.1173 4.31822 24.1173 4.98321 23.6475 5.15706L21.1123 6.09456C20.9648 6.14929 20.8476 6.26634 20.793 6.4139L19.8555 8.94905C19.6814 9.41854 19.0166 9.41873 18.8428 8.94905L17.9043 6.4139C17.8496 6.26622 17.7336 6.14921 17.5859 6.09456L15.0498 5.15706C14.9913 5.13532 14.9404 5.10526 14.8965 5.07015L14.8975 5.07112C14.8752 5.05332 14.8545 5.03409 14.8359 5.01351C14.5977 4.75076 14.6688 4.28595 15.0498 4.14437L17.5869 3.20589C17.7341 3.15116 17.8497 3.03481 17.9043 2.88753L18.8428 0.352374Z" fill="black"/>
<path d="M19.7734 9.09944C19.7559 9.12194 19.7361 9.14223 19.7158 9.16097C19.7549 9.12485 19.7902 9.08209 19.8184 9.03206L19.7734 9.09944Z" fill="black"/>
<path d="M23.0547 3.92366L21.1123 3.20687L21.1133 3.20589L23.0547 3.92366Z" fill="black"/>
</svg>
