<svg width="24" height="24" viewBox="0 0 24 24" fill="none" xmlns="http://www.w3.org/2000/svg">
<path d="M16.7021 2.99983L14.877 3.67562C13.9721 4.01061 13.9722 5.29071 14.877 5.62581L17.4121 6.56429C17.4227 6.56831 17.4315 6.57714 17.4355 6.58773L18.374 9.12288C18.7092 10.0275 19.9893 10.0277 20.3242 9.12288L21.2627 6.58773C21.2667 6.577 21.2754 6.56831 21.2861 6.56429L22.7061 6.03792C22.7067 6.04502 22.7074 6.05226 22.708 6.05941C22.7499 6.57206 22.75 7.21406 22.75 8.04964V12.45C22.75 13.2856 22.7499 13.9276 22.708 14.4403C22.6659 14.9559 22.5799 15.3635 22.3955 15.7254C22.084 16.3367 21.5868 16.8338 20.9756 17.1453C20.6137 17.3297 20.206 17.4157 19.6904 17.4578C19.1778 17.4997 18.5356 17.4998 17.7002 17.4998H12.166C12.1337 17.4998 12.1163 17.5003 12.1045 17.5008C12.0957 17.5088 12.0825 17.5208 12.0596 17.5438L7.60938 21.994C7.506 22.0974 7.41629 22.1876 7.34082 22.2508C7.27161 22.3087 7.16894 22.3841 7.03906 22.3944C6.87965 22.4068 6.72398 22.3421 6.62012 22.2205C6.53566 22.1214 6.51677 21.9959 6.50879 21.9061C6.50011 21.8079 6.5 21.6804 6.5 21.534V17.6502C6.5 17.5762 6.49945 17.5348 6.49707 17.5057V17.5028H6.49414C6.46504 17.5004 6.42337 17.4998 6.34961 17.4998H6.2998C5.46435 17.4998 4.82219 17.4997 4.30957 17.4578C3.79404 17.4157 3.3863 17.3297 3.02441 17.1453C2.41315 16.8338 1.91601 16.3367 1.60449 15.7254C1.42012 15.3635 1.33412 14.9559 1.29199 14.4403C1.25014 13.9276 1.25 13.2856 1.25 12.45V8.04964C1.25 7.21406 1.25013 6.57206 1.29199 6.05941C1.33414 5.54381 1.42008 5.13618 1.60449 4.77425C1.91603 4.16302 2.41318 3.66586 3.02441 3.35433C3.38628 3.17 3.79408 3.08396 4.30957 3.04183C4.82219 2.99998 5.46436 2.99983 6.2998 2.99983H16.7021Z" fill="black"/>
<path d="M18.8438 0.352374C19.0176 -0.117458 19.6826 -0.117458 19.8564 0.352374L20.7939 2.88753C20.8487 3.03509 20.9657 3.15225 21.1133 3.20687L23.6484 4.14437C24.1177 4.31843 24.1178 4.98309 23.6484 5.15706L21.1133 6.09456C20.9656 6.14922 20.8486 6.26618 20.7939 6.4139L19.8564 8.94905C19.6826 9.41873 19.0178 9.41855 18.8438 8.94905L17.9053 6.4139C17.8507 6.26637 17.7344 6.14928 17.5869 6.09456L15.0508 5.15706L14.9727 5.12191L14.9707 5.11995C14.5829 4.90417 14.6097 4.30788 15.0508 4.14437L17.5869 3.20687C17.7344 3.15217 17.8506 3.03509 17.9053 2.88753L18.8438 0.352374Z" fill="black"/>
<path d="M17.5869 3.20687L15.0508 4.14437L17.5859 3.20589C17.5957 3.20225 17.6048 3.19638 17.6143 3.19222C17.6047 3.19643 17.5967 3.20319 17.5869 3.20687Z" fill="black"/>
</svg>
