<svg width="25" height="24" viewBox="0 0 25 24" fill="none" xmlns="http://www.w3.org/2000/svg">
<path d="M14.5 1.74983C14.8687 1.74984 15.2327 1.77149 15.5908 1.81136L14.3564 2.26839C13.4013 2.622 12.8602 3.40674 12.7305 4.24984H10.5C6.49599 4.2499 3.25 7.49581 3.25 11.4998C3.25004 13.2629 3.8783 14.8758 4.92383 16.1326C5.28429 16.566 5.38188 17.1803 5.1377 17.7176L4.68652 18.7117L6.96582 18.1864L7.0791 18.1649C7.30618 18.1305 7.53479 18.1498 7.74805 18.2157L7.85352 18.2518C8.67164 18.5727 9.56383 18.7498 10.5 18.7498H14.5C18.504 18.7498 21.7499 15.5038 21.75 11.4998C21.75 10.9731 21.6926 10.4595 21.5859 9.96468C21.6393 9.86314 21.6886 9.75651 21.7305 9.64339L22.4355 7.73714L23.3477 7.39925C23.9263 8.64581 24.25 10.035 24.25 11.4998C24.2499 16.8845 19.8847 21.2498 14.5 21.2498H10.5C9.35852 21.2498 8.26117 21.0505 7.24023 20.6883L3.27441 21.6043C2.06346 21.8836 1.05717 20.6527 1.57129 19.5213L2.61328 17.2293C1.44306 15.6208 0.750036 13.6403 0.75 11.4998C0.75 6.1151 5.11528 1.7499 10.5 1.74983H14.5Z" fill="black"/>
<path fill-rule="evenodd" clip-rule="evenodd" d="M13.7158 7.90706C13.8897 7.43755 14.5545 7.43766 14.7285 7.90706L15.0107 8.66976C15.0654 8.81699 15.1819 8.93338 15.3291 8.98812L16.0928 9.27034C16.5624 9.44426 16.5623 10.1091 16.0928 10.283L15.6582 10.4432L15.3291 10.5653C15.182 10.62 15.0654 10.7365 15.0107 10.8836L14.7285 11.6473L14.6904 11.7293C14.4879 12.089 13.9563 12.0892 13.7539 11.7293L13.7158 11.6473L13.4336 10.8836C13.3925 10.7732 13.3171 10.6796 13.2197 10.617L13.1152 10.5653L12.3525 10.283C11.8832 10.109 11.8832 9.44436 12.3525 9.27034L12.7861 9.10921L13.1152 8.98812C13.2257 8.94716 13.3191 8.87159 13.3818 8.77425L13.4336 8.66976L13.7158 7.90706ZM14.4814 9.51644C14.3092 9.49434 14.1341 9.49421 13.9619 9.51644C13.9397 9.68854 13.9398 9.86386 13.9619 10.036C14.1342 10.0582 14.3091 10.0581 14.4814 10.036C14.5036 9.86372 14.5037 9.68867 14.4814 9.51644Z" fill="black"/>
<path d="M18.8428 0.352374C19.0166 -0.117458 19.6816 -0.117458 19.8555 0.352374L20.793 2.88753C20.8476 3.03504 20.9648 3.15123 21.1123 3.20589L23.6475 4.14437C24.1173 4.31822 24.1173 4.98321 23.6475 5.15706L23.2129 5.31722L21.1123 6.09456C20.9648 6.14931 20.8476 6.26636 20.793 6.4139L19.8555 8.94905L19.8174 9.03206C19.6003 9.41677 19.0058 9.38904 18.8428 8.94905L17.9043 6.4139C17.8633 6.30322 17.7879 6.21003 17.6904 6.1473L17.5859 6.09456L15.0508 5.15706C14.5814 4.98314 14.5816 4.3185 15.0508 4.14437L15.4844 3.98323L17.5859 3.20589C17.6964 3.16497 17.7898 3.08928 17.8525 2.99202L17.9043 2.88753L18.8428 0.352374Z" fill="black"/>
</svg>
