<svg width="24" height="24" viewBox="0 0 24 24" fill="none" xmlns="http://www.w3.org/2000/svg">
<path d="M13.2969 2.99982C12.2349 4.24525 12.5868 6.3771 14.3555 7.03204L16.2607 7.73712L16.9658 9.64337C17.7839 11.8543 20.911 11.854 21.7295 9.64337L22.2969 8.11114C22.7488 9.14937 23 10.2953 23 11.4998C23 16.1942 19.1944 19.9998 14.5 19.9998H10.5C9.42191 19.9998 8.39041 19.7995 7.44141 19.4334C7.39607 19.4159 7.37254 19.4064 7.35059 19.4022C7.33088 19.3984 7.31203 19.3973 7.29199 19.3983C7.2697 19.3993 7.24648 19.4044 7.20117 19.4149L3.28906 20.3182C3.03562 20.3767 2.90843 20.4059 2.83008 20.369C2.76204 20.3368 2.71228 20.2751 2.69434 20.202C2.6739 20.1178 2.7274 19.9992 2.83496 19.7625L3.95996 17.2879C3.9982 17.2038 4.01753 17.1617 4.02148 17.1199C4.02505 17.082 4.01991 17.0464 4.00684 17.0106C3.99239 16.9712 3.96224 16.9331 3.90137 16.8582C2.71267 15.3961 2 13.5311 2 11.4998C2.00019 6.8056 5.80575 2.99988 10.5 2.99982H13.2969Z" fill="black"/>
<path d="M18.8428 0.352355C19.0166 -0.117464 19.6816 -0.117439 19.8555 0.352355L20.793 2.88751C20.8476 3.03512 20.9647 3.15214 21.1123 3.20685L23.6475 4.14435C24.1173 4.3182 24.1173 4.98319 23.6475 5.15704L21.1123 6.09454C20.9648 6.14926 20.8476 6.2663 20.793 6.41388L19.8555 8.94903C19.6815 9.41864 19.0166 9.41879 18.8428 8.94903L17.9043 6.41388C17.8496 6.26622 17.7336 6.14919 17.5859 6.09454L15.0498 5.15704C14.5809 4.98289 14.5809 4.31854 15.0498 4.14435L17.5859 3.20685C17.7335 3.15222 17.8496 3.03508 17.9043 2.88751L18.8428 0.352355Z" fill="black"/>
<path d="M17.0713 3.3963L15.1709 4.09943L15.4834 3.98321L17.0693 3.3963H17.0713Z" fill="black"/>
</svg>
