<svg width="24" height="24" viewBox="0 0 24 24" fill="none" xmlns="http://www.w3.org/2000/svg">
<path d="M16.4574 7.01227C17.7606 7.01227 18.8171 5.95579 18.8171 4.65256C18.8171 3.34933 17.7606 2.29285 16.4574 2.29285C15.1542 2.29285 14.0977 3.34933 14.0977 4.65256C14.0977 5.95579 15.1542 7.01227 16.4574 7.01227Z" fill="black"/>
<path d="M17.4435 10.9295C17.7245 9.80562 17.0412 8.66681 15.9174 8.38585C14.7935 8.10489 13.6547 8.78818 13.3738 9.91202L12.2363 14.4618L9.22264 14.1878C8.17427 14.0925 7.12149 14.3149 6.20127 14.8261L2.32926 16.9773C1.31661 17.5398 0.951757 18.8168 1.51434 19.8295C2.07692 20.8421 3.3539 21.207 4.36655 20.6444L8.23857 18.4933C8.42261 18.391 8.63317 18.3465 8.84284 18.3656L12.7511 18.7209C14.2956 18.8613 15.7121 17.8552 16.0883 16.3506L17.4435 10.9295Z" fill="black"/>
<path d="M10.6892 6.7501C10.6892 9.06696 8.811 10.9451 6.49414 10.9451C4.17728 10.9451 2.29909 9.06696 2.29909 6.7501C2.29909 4.43324 4.17728 2.55506 6.49414 2.55506C8.811 2.55506 10.6892 4.43324 10.6892 6.7501Z" fill="black"/>
<path d="M22.9191 5.1678C23.2137 5.55084 23.142 6.1002 22.759 6.39484L18.5602 9.62468C18.4129 9.04355 18.1068 8.51295 17.6791 8.09463L21.692 5.00775C22.0751 4.71311 22.6244 4.78477 22.9191 5.1678Z" fill="black"/>
<path d="M14.8468 19.4865C15.386 19.2357 15.8691 18.875 16.2631 18.4279L18.6492 20.814C18.9909 21.1557 18.9909 21.7097 18.6492 22.0514C18.3075 22.3931 17.7535 22.3931 17.4118 22.0514L14.8468 19.4865Z" fill="black"/>
</svg>
