<svg width="24" height="24" viewBox="0 0 24 24" fill="none" xmlns="http://www.w3.org/2000/svg">
<path fill-rule="evenodd" clip-rule="evenodd" d="M13.8477 4.65256C13.8477 3.21125 15.0162 2.04285 16.4575 2.04285C17.8988 2.04285 19.0672 3.21125 19.0672 4.65256C19.0672 6.09386 17.8988 7.26227 16.4575 7.26227C15.0162 7.26227 13.8477 6.09386 13.8477 4.65256ZM16.4575 2.54285C15.2923 2.54285 14.3477 3.4874 14.3477 4.65256C14.3477 5.81772 15.2923 6.76227 16.4575 6.76227C17.6226 6.76227 18.5672 5.81772 18.5672 4.65256C18.5672 3.4874 17.6226 2.54285 16.4575 2.54285Z" fill="black"/>
<path fill-rule="evenodd" clip-rule="evenodd" d="M13.1313 9.85138C13.4457 8.59359 14.7203 7.82886 15.9781 8.14331C17.2358 8.45776 18.0006 9.73231 17.6861 10.9901L16.3308 16.4112C15.9248 18.0354 14.3958 19.1214 12.7285 18.9699L8.82025 18.6146C8.66056 18.6001 8.5002 18.6339 8.36002 18.7118L4.48801 20.8629C3.35466 21.4926 1.92548 21.0842 1.29585 19.9509C0.66621 18.8175 1.07455 17.3884 2.20789 16.7587L6.07991 14.6076C7.044 14.072 8.14697 13.839 9.24532 13.9388L12.0458 14.1934L13.1313 9.85138ZM15.8568 8.62838C14.8669 8.38091 13.8638 8.98276 13.6163 9.97265L12.427 14.7301L9.20005 14.4368C8.20167 14.346 7.19907 14.5578 6.32273 15.0447L2.45071 17.1958C1.55876 17.6913 1.2374 18.8161 1.73292 19.7081C2.22845 20.6 3.35323 20.9214 4.24518 20.4259L8.1172 18.2747C8.34512 18.1481 8.60587 18.093 8.86552 18.1166L12.7737 18.4719C14.1956 18.6012 15.4995 17.675 15.8458 16.29L17.2011 10.8688C17.4485 9.87894 16.8467 8.87586 15.8568 8.62838Z" fill="black"/>
<path fill-rule="evenodd" clip-rule="evenodd" d="M6.49418 10.9451C8.81104 10.9451 10.6892 9.06696 10.6892 6.7501C10.6892 4.43324 8.81104 2.55506 6.49418 2.55506C4.17732 2.55506 2.29914 4.43324 2.29914 6.7501C2.29914 9.06696 4.17732 10.9451 6.49418 10.9451ZM6.49418 10.4451C8.5349 10.4451 10.1892 8.79082 10.1892 6.7501C10.1892 4.70938 8.5349 3.05506 6.49418 3.05506C4.45347 3.05506 2.79914 4.70938 2.79914 6.7501C2.79914 8.79082 4.45347 10.4451 6.49418 10.4451Z" fill="black"/>
<path d="M22.4237 5.54887C22.5079 5.65831 22.4874 5.81527 22.378 5.89945L18.1332 9.16472C18.0625 9.01162 17.979 8.86471 17.8839 8.72565L22.0731 5.50314C22.1826 5.41896 22.3395 5.43943 22.4237 5.54887Z" fill="black"/>
<path d="M15.2327 18.9885C15.3744 18.8969 15.5103 18.7966 15.6395 18.6882L18.2073 21.2559C18.3049 21.3536 18.3049 21.5119 18.2073 21.6095C18.1097 21.7071 17.9514 21.7071 17.8537 21.6095L15.2327 18.9885Z" fill="black"/>
</svg>
