<svg width="24" height="24" viewBox="0 0 24 24" fill="none" xmlns="http://www.w3.org/2000/svg">
<path fill-rule="evenodd" clip-rule="evenodd" d="M13.5978 4.65268C13.5978 3.07331 14.8781 1.79297 16.4575 1.79297C18.0369 1.79297 19.3172 3.07331 19.3172 4.65268C19.3172 6.23206 18.0369 7.51239 16.4575 7.51239C14.8781 7.51239 13.5978 6.23206 13.5978 4.65268ZM16.4575 2.79297C15.4304 2.79297 14.5978 3.62559 14.5978 4.65268C14.5978 5.67977 15.4304 6.51239 16.4575 6.51239C17.4846 6.51239 18.3172 5.67977 18.3172 4.65268C18.3172 3.62559 17.4846 2.79297 16.4575 2.79297Z" fill="black"/>
<path fill-rule="evenodd" clip-rule="evenodd" d="M12.8888 9.79087C13.2367 8.39913 14.647 7.55296 16.0387 7.9009C17.4305 8.24883 18.2766 9.65912 17.9287 11.0509L16.5734 16.472C16.1375 18.2157 14.4959 19.3817 12.7059 19.219L8.79766 18.8637C8.68795 18.8537 8.57778 18.877 8.48148 18.9305L4.60946 21.0816C3.35542 21.7783 1.77404 21.3265 1.07735 20.0724C0.380663 18.8184 0.832485 17.237 2.08653 16.5403L5.95854 14.3892C6.9665 13.8292 8.11967 13.5856 9.268 13.69L11.8552 13.9252L12.8888 9.79087ZM15.7962 8.87104C14.9403 8.65705 14.0729 9.17746 13.8589 10.0334L12.6176 14.9986L9.17747 14.6859C8.22906 14.5996 7.27666 14.8009 6.44419 15.2633L2.57217 17.4145C1.80091 17.8429 1.52303 18.8155 1.95151 19.5868C2.37999 20.358 3.35256 20.6359 4.12382 20.2074L7.99584 18.0563C8.26762 17.9053 8.57856 17.8396 8.8882 17.8678L12.7964 18.2231C14.0955 18.3412 15.2869 17.495 15.6033 16.2295L16.9586 10.8083C17.1726 9.95238 16.6521 9.08503 15.7962 8.87104Z" fill="black"/>
<path fill-rule="evenodd" clip-rule="evenodd" d="M6.49423 10.9453C8.81109 10.9453 10.6893 9.06708 10.6893 6.75022C10.6893 4.43336 8.81109 2.55518 6.49423 2.55518C4.17737 2.55518 2.29919 4.43336 2.29919 6.75022C2.29919 9.06708 4.17737 10.9453 6.49423 10.9453ZM6.49423 9.94527C8.2588 9.94527 9.68927 8.5148 9.68927 6.75022C9.68927 4.98565 8.2588 3.55518 6.49423 3.55518C4.72965 3.55518 3.29919 4.98565 3.29919 6.75022C3.29919 8.5148 4.72965 9.94527 6.49423 9.94527Z" fill="black"/>
<path d="M22.6219 5.39656C22.7903 5.61544 22.7493 5.92937 22.5305 6.09773L18.6447 9.08679C18.5158 8.77496 18.3426 8.48297 18.1308 8.22049L21.9208 5.30511C22.1396 5.13674 22.4536 5.17769 22.6219 5.39656Z" fill="black"/>
<path d="M15.3779 19.4872C15.6668 19.3136 15.9359 19.1083 16.18 18.8751L18.3841 21.0793C18.5794 21.2745 18.5794 21.5911 18.3841 21.7864C18.1889 21.9816 17.8723 21.9816 17.677 21.7864L15.3779 19.4872Z" fill="black"/>
</svg>
