<svg width="24" height="24" viewBox="0 0 24 24" fill="none" xmlns="http://www.w3.org/2000/svg">
<path fill-rule="evenodd" clip-rule="evenodd" d="M12.75 3.60971C12.75 1.61612 14.3661 0 16.3597 0C18.3533 0 19.9694 1.61612 19.9694 3.60971C19.9694 5.6033 18.3533 7.21942 16.3597 7.21942C14.3661 7.21942 12.75 5.6033 12.75 3.60971ZM16.3597 2.5C15.7468 2.5 15.25 2.99683 15.25 3.60971C15.25 4.22259 15.7468 4.71942 16.3597 4.71942C16.9726 4.71942 17.4694 4.22259 17.4694 3.60971C17.4694 2.99683 16.9726 2.5 16.3597 2.5Z" fill="black"/>
<path fill-rule="evenodd" clip-rule="evenodd" d="M12.1611 10.1089C12.6095 8.31529 14.4269 7.22479 16.2205 7.67319C18.0141 8.12159 19.1046 9.93907 18.6562 11.7327L17.3009 17.1538C16.7753 19.2562 14.7961 20.662 12.6379 20.4658L8.7914 20.1161L4.97359 22.2371C3.35746 23.135 1.31948 22.5527 0.421627 20.9365C-0.476222 19.3204 0.106058 17.2824 1.72219 16.3846L5.5942 14.2335C6.73378 13.6004 8.03752 13.3249 9.3358 13.4429L11.2833 13.62L12.1611 10.1089ZM15.6142 10.0985C15.1601 9.98502 14.6999 10.2611 14.5864 10.7152L13.1893 16.3036L9.10946 15.9327C8.311 15.8601 7.50917 16.0295 6.80831 16.4189L2.93629 18.57C2.52713 18.7973 2.3797 19.3133 2.60702 19.7224C2.83434 20.1316 3.35031 20.279 3.75948 20.0517L7.6315 17.9006C8.03489 17.6765 8.49642 17.579 8.956 17.6208L12.8642 17.976C13.7951 18.0607 14.6489 17.4543 14.8756 16.5475L16.2309 11.1263C16.3444 10.6722 16.0683 10.2121 15.6142 10.0985Z" fill="black"/>
<path fill-rule="evenodd" clip-rule="evenodd" d="M6.49417 11.4451C8.81103 11.4451 10.6892 9.56696 10.6892 7.2501C10.6892 4.93324 8.81103 3.05506 6.49417 3.05506C4.17731 3.05506 2.29913 4.93324 2.29913 7.2501C2.29913 9.56696 4.17731 11.4451 6.49417 11.4451ZM6.49417 9.19514C7.56839 9.19514 8.43921 8.32432 8.43921 7.2501C8.43921 6.17588 7.56839 5.30506 6.49417 5.30506C5.41995 5.30506 4.54913 6.17588 4.54913 7.2501C4.54913 8.32432 5.41995 9.19514 6.49417 9.19514Z" fill="black"/>
<path d="M23.1806 6.60674C23.509 7.1342 23.3476 7.82799 22.8201 8.15635L19.8195 10.0243C19.6659 9.27118 19.3213 8.57147 18.826 7.99246L21.631 6.24624C22.1585 5.91788 22.8522 6.07928 23.1806 6.60674Z" fill="black"/>
<path d="M15.5441 21.0373C16.2221 20.6933 16.8254 20.2123 17.3126 19.6238L18.826 21.1372C19.2653 21.5766 19.2653 22.2889 18.826 22.7282C18.3867 23.1675 17.6744 23.1675 17.235 22.7282L15.5441 21.0373Z" fill="black"/>
</svg>
