<svg width="24" height="24" viewBox="0 0 24 24" fill="none" xmlns="http://www.w3.org/2000/svg">
<path d="M16.4574 7.01227C17.7606 7.01227 18.8171 5.95579 18.8171 4.65256C18.8171 3.34933 17.7606 2.29285 16.4574 2.29285C15.1542 2.29285 14.0977 3.34933 14.0977 4.65256C14.0977 5.95579 15.1542 7.01227 16.4574 7.01227Z" fill="black"/>
<path d="M17.4435 10.9295C17.7245 9.80562 17.0412 8.66681 15.9174 8.38585C14.7935 8.10489 13.6547 8.78818 13.3738 9.91202L12.2363 14.4618L9.22264 14.1878C8.17427 14.0925 7.12149 14.3149 6.20127 14.8261L2.32926 16.9773C1.31661 17.5398 0.951757 18.8168 1.51434 19.8295C2.07692 20.8421 3.3539 21.207 4.36655 20.6444L8.23857 18.4933C8.42261 18.391 8.63317 18.3465 8.84284 18.3656L12.7511 18.7209C14.2956 18.8613 15.7121 17.8552 16.0883 16.3506L17.4435 10.9295Z" fill="black"/>
<path d="M10.6892 6.7501C10.6892 9.06696 8.811 10.9451 6.49414 10.9451C4.17728 10.9451 2.29909 9.06696 2.29909 6.7501C2.29909 4.43324 4.17728 2.55506 6.49414 2.55506C8.811 2.55506 10.6892 4.43324 10.6892 6.7501Z" fill="black"/>
<path d="M23.0181 5.09159C23.3549 5.52934 23.273 6.15719 22.8352 6.49392L18.5912 9.75858C18.4503 9.08372 18.0969 8.46911 17.5868 8.00788L21.6158 4.90867C22.0536 4.57194 22.6814 4.65383 23.0181 5.09159Z" fill="black"/>
<path d="M14.7246 19.541C15.3515 19.2728 15.9079 18.8583 16.3446 18.3326L18.7376 20.7256C19.1281 21.1161 19.1281 21.7493 18.7376 22.1398C18.3471 22.5303 17.7139 22.5303 17.3234 22.1398L14.7246 19.541Z" fill="black"/>
</svg>
