<svg width="24" height="24" viewBox="0 0 24 24" fill="none" xmlns="http://www.w3.org/2000/svg">
<path d="M16.4574 7.01239C17.7606 7.01239 18.8171 5.95591 18.8171 4.65268C18.8171 3.34945 17.7606 2.29297 16.4574 2.29297C15.1542 2.29297 14.0977 3.34945 14.0977 4.65268C14.0977 5.95591 15.1542 7.01239 16.4574 7.01239Z" fill="black"/>
<path d="M17.4435 10.9296C17.7245 9.80575 17.0412 8.66693 15.9174 8.38597C14.7935 8.10501 13.6547 8.7883 13.3738 9.91214L12.2363 14.4619L9.22264 14.1879C8.17427 14.0926 7.12149 14.315 6.20127 14.8263L2.32926 16.9774C1.31661 17.54 0.951757 18.8169 1.51434 19.8296C2.07692 20.8422 3.3539 21.2071 4.36655 20.6445L8.23857 18.4934C8.42261 18.3911 8.63317 18.3467 8.84284 18.3657L12.7511 18.721C14.2956 18.8614 15.7121 17.8554 16.0883 16.3507L17.4435 10.9296Z" fill="black"/>
<path d="M10.6892 6.75022C10.6892 9.06708 8.811 10.9453 6.49414 10.9453C4.17728 10.9453 2.29909 9.06708 2.29909 6.75022C2.29909 4.43336 4.17728 2.55518 6.49414 2.55518C8.811 2.55518 10.6892 4.43336 10.6892 6.75022Z" fill="black"/>
<path d="M22.9191 5.16792C23.2137 5.55096 23.142 6.10032 22.759 6.39497L18.5602 9.6248C18.4129 9.04367 18.1068 8.51307 17.6791 8.09475L21.692 5.00787C22.0751 4.71323 22.6244 4.78489 22.9191 5.16792Z" fill="black"/>
<path d="M14.8468 19.4866C15.386 19.2358 15.8691 18.8751 16.2631 18.428L18.6492 20.8141C18.9909 21.1558 18.9909 21.7098 18.6492 22.0515C18.3075 22.3933 17.7535 22.3933 17.4118 22.0515L14.8468 19.4866Z" fill="black"/>
</svg>
