<svg width="24" height="24" viewBox="0 0 24 24" fill="none" xmlns="http://www.w3.org/2000/svg">
<path d="M16.4574 7.01227C17.7606 7.01227 18.8171 5.95579 18.8171 4.65256C18.8171 3.34933 17.7606 2.29285 16.4574 2.29285C15.1542 2.29285 14.0977 3.34933 14.0977 4.65256C14.0977 5.95579 15.1542 7.01227 16.4574 7.01227Z" fill="black"/>
<path d="M17.4435 10.9295C17.7245 9.80562 17.0412 8.66681 15.9174 8.38585C14.7935 8.10489 13.6547 8.78818 13.3738 9.91202L12.2363 14.4618L9.22264 14.1878C8.17427 14.0925 7.12149 14.3149 6.20127 14.8261L2.32926 16.9773C1.31661 17.5398 0.951757 18.8168 1.51434 19.8295C2.07692 20.8421 3.3539 21.207 4.36655 20.6444L8.23857 18.4933C8.42261 18.391 8.63317 18.3465 8.84284 18.3656L12.7511 18.7209C14.2956 18.8613 15.7121 17.8552 16.0883 16.3506L17.4435 10.9295Z" fill="black"/>
<path d="M10.6892 6.7501C10.6892 9.06696 8.811 10.9451 6.49414 10.9451C4.17728 10.9451 2.29909 9.06696 2.29909 6.7501C2.29909 4.43324 4.17728 2.55506 6.49414 2.55506C8.811 2.55506 10.6892 4.43324 10.6892 6.7501Z" fill="black"/>
<path d="M22.82 5.24401C23.0725 5.57233 23.0111 6.04322 22.6828 6.29577L18.5243 9.49457C18.3782 9.00471 18.1182 8.55514 17.7674 8.1844L21.7682 5.10683C22.0965 4.85428 22.5674 4.9157 22.82 5.24401Z" fill="black"/>
<path d="M14.9659 19.4288C15.4201 19.2003 15.8313 18.8927 16.179 18.5205L18.5608 20.9024C18.8537 21.1953 18.8537 21.6701 18.5608 21.963C18.2679 22.2559 17.793 22.2559 17.5001 21.963L14.9659 19.4288Z" fill="black"/>
</svg>
