<svg width="24" height="24" viewBox="0 0 24 24" fill="none" xmlns="http://www.w3.org/2000/svg">
<path fill-rule="evenodd" clip-rule="evenodd" d="M13.8477 4.65268C13.8477 3.21138 15.0162 2.04297 16.4575 2.04297C17.8988 2.04297 19.0672 3.21138 19.0672 4.65268C19.0672 6.09398 17.8988 7.26239 16.4575 7.26239C15.0162 7.26239 13.8477 6.09398 13.8477 4.65268ZM16.4575 2.54297C15.2923 2.54297 14.3477 3.48752 14.3477 4.65268C14.3477 5.81784 15.2923 6.76239 16.4575 6.76239C17.6226 6.76239 18.5672 5.81784 18.5672 4.65268C18.5672 3.48752 17.6226 2.54297 16.4575 2.54297Z" fill="black"/>
<path fill-rule="evenodd" clip-rule="evenodd" d="M13.1313 9.85151C13.4457 8.59372 14.7203 7.82899 15.9781 8.14343C17.2358 8.45788 18.0006 9.73243 17.6861 10.9902L16.3308 16.4114C15.9248 18.0355 14.3958 19.1216 12.7285 18.97L8.82025 18.6147C8.66056 18.6002 8.5002 18.6341 8.36002 18.7119L4.48801 20.8631C3.35466 21.4927 1.92548 21.0844 1.29585 19.951C0.66621 18.8177 1.07455 17.3885 2.20789 16.7588L6.07991 14.6077C7.044 14.0721 8.14697 13.8391 9.24532 13.9389L12.0458 14.1935L13.1313 9.85151ZM15.8568 8.6285C14.8669 8.38103 13.8638 8.98288 13.6163 9.97277L12.427 14.7302L9.20005 14.4369C8.20167 14.3461 7.19907 14.5579 6.32273 15.0448L2.45071 17.1959C1.55876 17.6915 1.2374 18.8162 1.73292 19.7082C2.22845 20.6001 3.35323 20.9215 4.24518 20.426L8.1172 18.2749C8.34512 18.1482 8.60587 18.0931 8.86552 18.1167L12.7737 18.472C14.1956 18.6013 15.4995 17.6752 15.8458 16.2901L17.2011 10.869C17.4485 9.87906 16.8467 8.87598 15.8568 8.6285Z" fill="black"/>
<path fill-rule="evenodd" clip-rule="evenodd" d="M6.49418 10.9453C8.81104 10.9453 10.6892 9.06708 10.6892 6.75022C10.6892 4.43336 8.81104 2.55518 6.49418 2.55518C4.17732 2.55518 2.29914 4.43336 2.29914 6.75022C2.29914 9.06708 4.17732 10.9453 6.49418 10.9453ZM6.49418 10.4453C8.5349 10.4453 10.1892 8.79094 10.1892 6.75022C10.1892 4.70951 8.5349 3.05518 6.49418 3.05518C4.45347 3.05518 2.79914 4.70951 2.79914 6.75022C2.79914 8.79094 4.45347 10.4453 6.49418 10.4453Z" fill="black"/>
<path d="M22.4237 5.54899C22.5079 5.65843 22.4874 5.81539 22.378 5.89958L18.1332 9.16484C18.0625 9.01174 17.979 8.86483 17.8839 8.72577L22.0731 5.50326C22.1826 5.41908 22.3395 5.43955 22.4237 5.54899Z" fill="black"/>
<path d="M15.2327 18.9886C15.3744 18.897 15.5103 18.7967 15.6395 18.6883L18.2073 21.2561C18.3049 21.3537 18.3049 21.512 18.2073 21.6096C18.1097 21.7072 17.9514 21.7072 17.8537 21.6096L15.2327 18.9886Z" fill="black"/>
</svg>
