<svg width="24" height="24" viewBox="0 0 24 24" fill="none" xmlns="http://www.w3.org/2000/svg">
<path d="M19.6784 5C19.4022 5 19.1784 5.22386 19.1784 5.5C19.1784 5.77614 19.4022 6 19.6784 6L20.7016 6C20.9778 6 21.2016 5.77614 21.2016 5.5C21.2016 5.22386 20.9778 5 20.7016 5L19.6784 5Z" fill="black"/>
<path fill-rule="evenodd" clip-rule="evenodd" d="M2.83073 3H21.169C21.4326 2.99999 21.66 2.99999 21.8472 3.01529C22.0449 3.03144 22.2415 3.0671 22.4307 3.16349C22.713 3.3073 22.9424 3.53677 23.0862 3.81902C23.1826 4.00821 23.2183 4.20482 23.2344 4.40249C23.2498 4.58977 23.2497 4.81715 23.2497 5.08072V11.9193C23.2497 12.1829 23.2498 12.4102 23.2344 12.5975C23.2183 12.7952 23.1826 12.9918 23.0862 13.181C22.9424 13.4632 22.713 13.6927 22.4307 13.8365C22.2415 13.9329 22.0449 13.9686 21.8472 13.9847C21.66 14 21.4326 14 21.169 14H2.83072C2.56715 14 2.33977 14 2.15249 13.9847C1.95482 13.9686 1.75821 13.9329 1.56902 13.8365C1.28677 13.6927 1.0573 13.4632 0.913492 13.181C0.817095 12.9918 0.781437 12.7952 0.765287 12.5975C0.749986 12.4102 0.749993 12.1829 0.75 11.9193V5.08073C0.749993 4.81718 0.749986 4.58976 0.765287 4.40249C0.781437 4.20482 0.817095 4.00821 0.913492 3.81902C1.0573 3.53677 1.28677 3.3073 1.56902 3.16349C1.75821 3.0671 1.95482 3.03144 2.15249 3.01529C2.33976 2.99999 2.56718 2.99999 2.83073 3ZM21.1497 13H20.5V10.284C20.5 10.1579 20.5 10.0349 20.4915 9.93089C20.4822 9.81659 20.4602 9.68172 20.391 9.54601C20.2951 9.35785 20.1422 9.20487 19.954 9.10899C19.8183 9.03985 19.6834 9.01781 19.5691 9.00847C19.465 8.99997 19.3422 8.99999 19.216 9H4.78405C4.65787 8.99999 4.53496 8.99997 4.43089 9.00847C4.31659 9.01781 4.18172 9.03985 4.04601 9.10899C3.85785 9.20487 3.70487 9.35785 3.60899 9.54601C3.53985 9.68172 3.51781 9.81659 3.50847 9.93089C3.49997 10.035 3.49998 10.1578 3.5 10.284L3.5 13H2.85C2.56172 13 2.37559 12.9996 2.23392 12.988C2.09809 12.9769 2.04773 12.9581 2.02301 12.9455C1.92893 12.8976 1.85244 12.8211 1.8045 12.727C1.7919 12.7023 1.77306 12.6519 1.76197 12.5161C1.75039 12.3744 1.75 12.1883 1.75 11.9V5.1C1.75 4.81173 1.75039 4.62559 1.76197 4.48392C1.77306 4.34809 1.7919 4.29773 1.8045 4.27301C1.85244 4.17893 1.92893 4.10244 2.02301 4.0545C2.04773 4.0419 2.09809 4.02306 2.23392 4.01197C2.37559 4.00039 2.56173 4 2.85 4H21.1497C21.438 4 21.6241 4.00039 21.7658 4.01197C21.9016 4.02306 21.952 4.0419 21.9767 4.0545C22.0708 4.10244 22.1473 4.17893 22.1952 4.27301C22.2078 4.29773 22.2267 4.34809 22.2378 4.48392C22.2493 4.62559 22.2497 4.81173 22.2497 5.1V11.9C22.2497 12.1883 22.2493 12.3744 22.2378 12.5161C22.2267 12.6519 22.2078 12.7023 22.1952 12.727C22.1473 12.8211 22.0708 12.8976 21.9767 12.9455C21.952 12.9581 21.9016 12.9769 21.7658 12.988C21.6241 12.9996 21.438 13 21.1497 13ZM19.5 13H4.5V10.3C4.5 10.1517 4.50039 10.0706 4.50515 10.0123L4.50573 10.0057L4.51232 10.0052C4.57061 10.0004 4.65174 10 4.8 10H19.2C19.3483 10 19.4294 10.0004 19.4877 10.0052L19.4943 10.0057L19.4949 10.0123C19.4996 10.0706 19.5 10.1517 19.5 10.3V13Z" fill="black"/>
<path d="M5.9888 19.3543C5.23996 18.4182 5.28419 17.0763 6.09305 16.1916L6.11951 16.1626C6.30584 15.9588 6.6221 15.9447 6.8259 16.131C7.02971 16.3173 7.04387 16.6336 6.85755 16.8374L6.83109 16.8663C6.35456 17.3875 6.32851 18.1781 6.76967 18.7296C7.48079 19.6185 7.48079 20.8815 6.76967 21.7704L6.73614 21.8123C6.56363 22.028 6.24899 22.0629 6.03336 21.8904C5.81773 21.7179 5.78276 21.4033 5.95527 21.1877L5.9888 21.1457C6.40775 20.6221 6.40775 19.8779 5.9888 19.3543Z" fill="black"/>
<path d="M11.593 16.1916C10.7842 17.0763 10.74 18.4182 11.4888 19.3543C11.9077 19.8779 11.9077 20.6221 11.4888 21.1457L11.4553 21.1877C11.2828 21.4033 11.3177 21.7179 11.5334 21.8904C11.749 22.0629 12.0636 22.028 12.2361 21.8123L12.2697 21.7704C12.9808 20.8815 12.9808 19.6185 12.2697 18.7296C11.8285 18.1781 11.8546 17.3875 12.3311 16.8663L12.3575 16.8374C12.5439 16.6336 12.5297 16.3173 12.3259 16.131C12.1221 15.9447 11.8058 15.9588 11.6195 16.1626L11.593 16.1916Z" fill="black"/>
<path d="M16.9888 19.3543C16.24 18.4182 16.2842 17.0763 17.093 16.1916L17.1195 16.1626C17.3058 15.9588 17.6221 15.9447 17.8259 16.131C18.0297 16.3173 18.0439 16.6336 17.8575 16.8374L17.8311 16.8663C17.3546 17.3875 17.3285 18.1781 17.7697 18.7296C18.4808 19.6185 18.4808 20.8815 17.7697 21.7704L17.7361 21.8123C17.5636 22.028 17.249 22.0629 17.0334 21.8904C16.8177 21.7179 16.7828 21.4033 16.9553 21.1877L16.9888 21.1457C17.4077 20.6221 17.4077 19.8779 16.9888 19.3543Z" fill="black"/>
</svg>
