<svg width="24" height="24" viewBox="0 0 24 24" fill="none" xmlns="http://www.w3.org/2000/svg">
<path d="M19.6786 7.25C19.5405 7.25 19.4286 7.36193 19.4286 7.5C19.4286 7.63807 19.5405 7.75 19.6786 7.75L20.7019 7.75C20.8399 7.75 20.9519 7.63807 20.9519 7.5C20.9519 7.36193 20.8399 7.25 20.7019 7.25L19.6786 7.25Z" fill="black"/>
<path fill-rule="evenodd" clip-rule="evenodd" d="M2.83954 5.25H21.1607C21.4316 5.25 21.6502 5.25 21.8271 5.26445C22.0093 5.27934 22.1694 5.3108 22.3175 5.38624C22.5527 5.50608 22.7439 5.69731 22.8637 5.93251C22.9392 6.08058 22.9706 6.24063 22.9855 6.42284C23 6.59978 23 6.81826 23 7.08913V13.9107C23 14.1816 23 14.4002 22.9855 14.5772C22.9706 14.7594 22.9392 14.9194 22.8637 15.0675C22.7439 15.3027 22.5527 15.4939 22.3175 15.6138C22.1694 15.6892 22.0093 15.7207 21.8271 15.7355C21.6502 15.75 21.4316 15.75 21.1607 15.75H17.7087C17.721 15.5764 17.7714 15.4053 17.8595 15.25H19.7502V12.3C19.7502 12.1559 19.75 12.0628 19.7443 11.992C19.7387 11.924 19.7293 11.8989 19.723 11.8865C19.699 11.8395 19.6608 11.8012 19.6137 11.7772C19.6014 11.771 19.5762 11.7615 19.5083 11.756C19.4375 11.7502 19.3444 11.75 19.2002 11.75H4.80024C4.65611 11.75 4.56304 11.7502 4.4922 11.756C4.42429 11.7615 4.39911 11.771 4.38675 11.7772C4.33971 11.8012 4.30146 11.8395 4.27749 11.8865C4.27119 11.8989 4.26178 11.924 4.25623 11.992C4.25044 12.0628 4.25024 12.1559 4.25024 12.3V15.25H5.26982C5.23323 15.4146 5.21227 15.5821 5.20702 15.75H2.83953C2.56859 15.75 2.35006 15.75 2.17309 15.7355C1.99088 15.7207 1.83083 15.6892 1.68276 15.6138C1.44755 15.4939 1.25633 15.3027 1.13649 15.0675C1.06104 14.9194 1.02959 14.7594 1.0147 14.5772C1.00024 14.4002 1.00024 14.1816 1.00024 13.9107V7.0893C1.00024 6.81836 1.00024 6.59981 1.0147 6.42284C1.02959 6.24063 1.06104 6.08058 1.13649 5.93251C1.25633 5.69731 1.44755 5.50608 1.68276 5.38624C1.83083 5.3108 1.99088 5.27934 2.17309 5.26445C2.35006 5.25 2.5686 5.25 2.83954 5.25ZM21.15 15.25H20.2502V12.2904C20.2502 12.1587 20.2503 12.0448 20.2426 11.9512C20.2345 11.8524 20.2167 11.7541 20.1685 11.6595C20.0966 11.5184 19.9819 11.4037 19.8407 11.3317C19.7461 11.2835 19.6478 11.2657 19.549 11.2576C19.4554 11.25 19.3417 11.25 19.2099 11.25H4.79061C4.65882 11.25 4.54513 11.25 4.45149 11.2576C4.35265 11.2657 4.25435 11.2835 4.15975 11.3317C4.01863 11.4037 3.90389 11.5184 3.83199 11.6595C3.78379 11.7541 3.76596 11.8524 3.75789 11.9512C3.75024 12.0449 3.75024 12.1586 3.75024 12.2904L3.75024 15.25H2.85024C2.56609 15.25 2.36801 15.2498 2.2138 15.2372C2.06251 15.2248 1.97559 15.2018 1.90975 15.1683C1.76863 15.0963 1.65389 14.9816 1.58199 14.8405C1.54844 14.7747 1.5254 14.6877 1.51304 14.5364C1.50044 14.3822 1.50024 14.1842 1.50024 13.9V7.1C1.50024 6.81585 1.50044 6.61777 1.51304 6.46356C1.5254 6.31227 1.54844 6.22535 1.58199 6.15951C1.65389 6.01839 1.76863 5.90365 1.90975 5.83175C1.97559 5.7982 2.06251 5.77516 2.2138 5.76279C2.36801 5.75019 2.56609 5.75 2.85024 5.75H21.15C21.4341 5.75 21.6322 5.75019 21.7864 5.76279C21.9377 5.77516 22.0246 5.7982 22.0905 5.83175C22.2316 5.90365 22.3463 6.01839 22.4182 6.15951C22.4518 6.22535 22.4748 6.31227 22.4872 6.46356C22.4998 6.61777 22.5 6.81585 22.5 7.1V13.9C22.5 14.1842 22.4998 14.3822 22.4872 14.5364C22.4748 14.6877 22.4518 14.7747 22.4182 14.8405C22.3463 14.9816 22.2316 15.0963 22.0905 15.1683C22.0246 15.2018 21.9377 15.2248 21.7864 15.2372C21.6322 15.2498 21.4341 15.25 21.15 15.25Z" fill="black"/>
<path d="M16.2698 15.25C16.2332 15.4146 16.2123 15.5821 16.207 15.75H12.2087C12.221 15.5764 12.2714 15.4053 12.3595 15.25H16.2698Z" fill="black"/>
<path d="M10.7698 15.25H6.85951C6.7714 15.4053 6.72097 15.5764 6.70868 15.75H10.707C10.7123 15.5821 10.7332 15.4146 10.7698 15.25Z" fill="black"/>
<path d="M6.18427 17.1981C5.51234 16.3582 5.55203 15.1541 6.2778 14.3603L6.30426 14.3313C6.39742 14.2294 6.55556 14.2223 6.65746 14.3155C6.75936 14.4087 6.76644 14.5668 6.67328 14.6687L6.64682 14.6976C6.08721 15.3097 6.05661 16.2381 6.5747 16.8857C7.21277 17.6833 7.21277 18.8167 6.5747 19.6143L6.54116 19.6562C6.45491 19.764 6.29759 19.7815 6.18977 19.6952C6.08196 19.609 6.06448 19.4516 6.15073 19.3438L6.18427 19.3019C6.67625 18.6869 6.67625 17.8131 6.18427 17.1981Z" fill="black"/>
<path d="M11.7778 14.3603C11.052 15.1541 11.0123 16.3582 11.6843 17.1981C12.1763 17.8131 12.1763 18.6869 11.6843 19.3019L11.6507 19.3438C11.5645 19.4516 11.582 19.609 11.6898 19.6952C11.7976 19.7815 11.9549 19.764 12.0412 19.6562L12.0747 19.6143C12.7128 18.8167 12.7128 17.6833 12.0747 16.8857C11.5566 16.2381 11.5872 15.3097 12.1468 14.6976L12.1733 14.6687C12.2664 14.5668 12.2594 14.4087 12.1575 14.3155C12.0556 14.2223 11.8974 14.2294 11.8043 14.3313L11.7778 14.3603Z" fill="black"/>
<path d="M17.1843 17.1981C16.5123 16.3582 16.552 15.1541 17.2778 14.3603L17.3043 14.3313C17.3974 14.2294 17.5556 14.2223 17.6575 14.3155C17.7594 14.4087 17.7664 14.5668 17.6733 14.6687L17.6468 14.6976C17.0872 15.3097 17.0566 16.2381 17.5747 16.8857C18.2128 17.6833 18.2128 18.8167 17.5747 19.6143L17.5412 19.6562C17.4549 19.764 17.2976 19.7815 17.1898 19.6952C17.082 19.609 17.0645 19.4516 17.1507 19.3438L17.1843 19.3019C17.6763 18.6869 17.6763 17.8131 17.1843 17.1981Z" fill="black"/>
</svg>
