<svg width="24" height="24" viewBox="0 0 24 24" fill="none" xmlns="http://www.w3.org/2000/svg">
<path d="M19.6786 7C19.4025 7 19.1786 7.22386 19.1786 7.5C19.1786 7.77614 19.4025 8 19.6786 8L20.7019 8C20.978 8 21.2019 7.77614 21.2019 7.5C21.2019 7.22386 20.978 7 20.7019 7L19.6786 7Z" fill="black"/>
<path fill-rule="evenodd" clip-rule="evenodd" d="M2.83097 5H21.1693C21.4328 4.99999 21.6602 4.99999 21.8475 5.01529C22.0452 5.03144 22.2418 5.0671 22.431 5.16349C22.7132 5.3073 22.9427 5.53677 23.0865 5.81902C23.1829 6.00821 23.2185 6.20482 23.2347 6.40249C23.25 6.58977 23.25 6.81715 23.25 7.08072V13.9193C23.25 14.1829 23.25 14.4102 23.2347 14.5975C23.2185 14.7952 23.1829 14.9918 23.0865 15.181C22.9427 15.4632 22.7132 15.6927 22.431 15.8365C22.2418 15.9329 22.0452 15.9686 21.8475 15.9847C21.6602 16 21.4328 16 21.1693 16L17.9705 16C17.9203 15.7212 17.9979 15.4251 18.2003 15.2037L18.2268 15.1748C18.2767 15.1202 18.3195 15.0615 18.355 15H19.5002V12.3C19.5002 12.1517 19.4999 12.0706 19.4951 12.0123L19.4945 12.0057L19.4879 12.0052C19.4296 12.0004 19.3485 12 19.2002 12H4.80025C4.65198 12 4.57085 12.0004 4.51256 12.0052L4.50597 12.0057L4.5054 12.0123C4.50063 12.0706 4.50025 12.1517 4.50025 12.3V15H5.0764C4.98026 15.325 4.94141 15.6636 4.96037 16L2.83096 16C2.56739 16 2.34001 16 2.15273 15.9847C1.95506 15.9686 1.75845 15.9329 1.56926 15.8365C1.28702 15.6927 1.05755 15.4632 0.913736 15.181C0.817339 14.9918 0.781681 14.7952 0.765531 14.5975C0.75023 14.4102 0.750237 14.1829 0.750244 13.9193V7.08073C0.750237 6.81718 0.75023 6.58976 0.765531 6.40249C0.781681 6.20482 0.817339 6.00821 0.913736 5.81902C1.05755 5.53677 1.28702 5.3073 1.56926 5.16349C1.75845 5.0671 1.95506 5.03144 2.15273 5.01529C2.34 4.99999 2.56742 4.99999 2.83097 5ZM21.15 15H20.5002V12.284C20.5003 12.1579 20.5003 12.0349 20.4918 11.9309C20.4824 11.8166 20.4604 11.6817 20.3913 11.546C20.2954 11.3578 20.1424 11.2049 19.9542 11.109C19.8185 11.0398 19.6837 11.0178 19.5694 11.0085C19.4653 11 19.3424 11 19.2162 11H4.7843C4.65811 11 4.5352 11 4.43113 11.0085C4.31683 11.0178 4.18197 11.0398 4.04625 11.109C3.85809 11.2049 3.70511 11.3578 3.60924 11.546C3.54009 11.6817 3.51806 11.8166 3.50872 11.9309C3.50021 12.035 3.50023 12.1578 3.50024 12.284L3.50025 15H2.85024C2.56197 15 2.37583 14.9996 2.23416 14.988C2.09833 14.9769 2.04797 14.9581 2.02325 14.9455C1.92917 14.8976 1.85268 14.8211 1.80474 14.727C1.79215 14.7023 1.77331 14.6519 1.76221 14.5161C1.75064 14.3744 1.75025 14.1883 1.75025 13.9V7.1C1.75025 6.81173 1.75064 6.62559 1.76221 6.48392C1.77331 6.34809 1.79215 6.29773 1.80474 6.27301C1.85268 6.17893 1.92917 6.10244 2.02325 6.0545C2.04797 6.0419 2.09833 6.02306 2.23416 6.01197C2.37583 6.00039 2.56197 6 2.85025 6H21.15C21.4383 6 21.6244 6.00039 21.7661 6.01197C21.9019 6.02306 21.9523 6.0419 21.977 6.0545C22.0711 6.10244 22.1475 6.17893 22.1955 6.27301C22.2081 6.29773 22.2269 6.34809 22.238 6.48392C22.2496 6.62559 22.25 6.81173 22.25 7.1V13.9C22.25 14.1883 22.2496 14.3744 22.238 14.5161C22.2269 14.6519 22.2081 14.7023 22.1955 14.727C22.1475 14.8211 22.0711 14.8976 21.977 14.9455C21.9523 14.9581 21.9019 14.9769 21.7661 14.988C21.6244 14.9996 21.4383 15 21.15 15Z" fill="black"/>
<path d="M16.0764 15C15.9803 15.325 15.9414 15.6636 15.9604 16H12.4705C12.4203 15.7212 12.4979 15.4251 12.7003 15.2037L12.7268 15.1748C12.7767 15.1202 12.8195 15.0615 12.855 15H16.0764Z" fill="black"/>
<path d="M10.5764 15H7.35504C7.31946 15.0615 7.27673 15.1202 7.22681 15.1748L7.20035 15.2037C6.99791 15.4251 6.9203 15.7212 6.97054 16H10.4604C10.4414 15.6636 10.4803 15.325 10.5764 15Z" fill="black"/>
<path d="M5.98905 17.3543C5.2402 16.4182 5.28443 15.0763 6.09329 14.1916L6.11975 14.1626C6.30608 13.9588 6.62234 13.9447 6.82615 14.131C7.02995 14.3173 7.04412 14.6336 6.85779 14.8374L6.83133 14.8663C6.35481 15.3875 6.32875 16.1781 6.76992 16.7296C7.48103 17.6185 7.48103 18.8815 6.76992 19.7704L6.73638 19.8123C6.56388 20.028 6.24923 20.0629 6.0336 19.8904C5.81797 19.7179 5.78301 19.4033 5.95551 19.1877L5.98905 19.1457C6.40799 18.6221 6.40799 17.8779 5.98905 17.3543Z" fill="black"/>
<path d="M11.5933 14.1916C10.7844 15.0763 10.7402 16.4182 11.489 17.3543C11.908 17.8779 11.908 18.6221 11.489 19.1457L11.4555 19.1877C11.283 19.4033 11.318 19.7179 11.5336 19.8904C11.7492 20.0629 12.0639 20.028 12.2364 19.8123L12.2699 19.7704C12.981 18.8815 12.981 17.6185 12.2699 16.7296C11.8287 16.1781 11.8548 15.3875 12.3313 14.8663L12.3578 14.8374C12.5441 14.6336 12.53 14.3173 12.3261 14.131C12.1223 13.9447 11.8061 13.9588 11.6198 14.1626L11.5933 14.1916Z" fill="black"/>
<path d="M16.989 17.3543C16.2402 16.4182 16.2844 15.0763 17.0933 14.1916L17.1198 14.1626C17.3061 13.9588 17.6223 13.9447 17.8261 14.131C18.03 14.3173 18.0441 14.6336 17.8578 14.8374L17.8313 14.8663C17.3548 15.3875 17.3287 16.1781 17.7699 16.7296C18.481 17.6185 18.481 18.8815 17.7699 19.7704L17.7364 19.8123C17.5639 20.028 17.2492 20.0629 17.0336 19.8904C16.818 19.7179 16.783 19.4033 16.9555 19.1877L16.989 19.1457C17.408 18.6221 17.408 17.8779 16.989 17.3543Z" fill="black"/>
</svg>
