<svg width="24" height="24" viewBox="0 0 24 24" fill="none" xmlns="http://www.w3.org/2000/svg">
<path d="M19.18 5.25C18.7658 5.25 18.43 5.58579 18.43 6C18.43 6.41422 18.7658 6.75 19.18 6.75H20.2033C20.6175 6.75 20.9533 6.41422 20.9533 6C20.9533 5.58579 20.6175 5.25 20.2033 5.25L19.18 5.25Z" fill="black"/>
<path fill-rule="evenodd" clip-rule="evenodd" d="M0.5 4.5C0.5 3.5335 1.2835 2.75 2.25 2.75H21.7497C22.7162 2.75 23.4997 3.5335 23.4997 4.5V12.5C23.4997 13.4665 22.7162 14.25 21.7497 14.25H2.25C1.2835 14.25 0.5 13.4665 0.5 12.5V4.5ZM21.7497 12.75H20.75V9.5C20.75 8.80965 20.1904 8.25 19.5 8.25H4.5C3.80964 8.25 3.25 8.80965 3.25 9.5V12.75H2.25C2.11193 12.75 2 12.6381 2 12.5V4.5C2 4.36193 2.11193 4.25 2.25 4.25H21.7497C21.8878 4.25 21.9997 4.36193 21.9997 4.5V12.5C21.9997 12.6381 21.8878 12.75 21.7497 12.75ZM19.25 12.75H4.75V9.75H19.25V12.75Z" fill="black"/>
<path d="M6.79359 19.5104C5.96782 18.4782 6.0166 16.9985 6.90854 16.0229L6.935 15.9939C7.21449 15.6882 7.68889 15.667 7.99459 15.9465C8.3003 16.226 8.32155 16.7004 8.04205 17.0061L8.01559 17.035C7.62215 17.4653 7.60064 18.1181 7.96489 18.5734C8.74905 19.5536 8.74905 20.9464 7.96489 21.9266L7.93135 21.9685C7.6726 22.292 7.20063 22.3444 6.87718 22.0857C6.55374 21.8269 6.50129 21.3549 6.76005 21.0315L6.79359 20.9896C7.13948 20.5572 7.13948 19.9428 6.79359 19.5104Z" fill="black"/>
<path d="M11.9085 16.0229C11.0166 16.9985 10.9678 18.4782 11.7936 19.5104C12.1395 19.9428 12.1395 20.5572 11.7936 20.9896L11.7601 21.0315C11.5013 21.3549 11.5537 21.8269 11.8772 22.0857C12.2006 22.3444 12.6726 22.292 12.9314 21.9685L12.9649 21.9266C13.7491 20.9464 13.7491 19.5536 12.9649 18.5734C12.6006 18.1181 12.6222 17.4653 13.0156 17.035L13.0421 17.0061C13.3215 16.7004 13.3003 16.226 12.9946 15.9465C12.6889 15.667 12.2145 15.6882 11.935 15.9939L11.9085 16.0229Z" fill="black"/>
<path d="M16.7936 19.5104C15.9678 18.4782 16.0166 16.9985 16.9085 16.0229L16.935 15.9939C17.2145 15.6882 17.6889 15.667 17.9946 15.9465C18.3003 16.226 18.3215 16.7004 18.0421 17.0061L18.0156 17.035C17.6222 17.4653 17.6006 18.1181 17.9649 18.5734C18.7491 19.5536 18.7491 20.9464 17.9649 21.9266L17.9314 21.9685C17.6726 22.292 17.2006 22.3444 16.8772 22.0857C16.5537 21.8269 16.5013 21.3549 16.7601 21.0315L16.7936 20.9896C17.1395 20.5572 17.1395 19.9428 16.7936 19.5104Z" fill="black"/>
</svg>
