<svg width="24" height="24" viewBox="0 0 24 24" fill="none" xmlns="http://www.w3.org/2000/svg">
<path d="M19.1802 7.25C18.766 7.25 18.4302 7.58579 18.4302 8C18.4302 8.41422 18.766 8.75 19.1802 8.75H20.2035C20.6177 8.75 20.9535 8.41422 20.9535 8C20.9535 7.58579 20.6177 7.25 20.2035 7.25L19.1802 7.25Z" fill="black"/>
<path fill-rule="evenodd" clip-rule="evenodd" d="M0.500244 6.5C0.500244 5.5335 1.28375 4.75 2.25024 4.75H21.75C22.7165 4.75 23.5 5.5335 23.5 6.5V14.5C23.5 15.4665 22.7165 16.25 21.75 16.25L18.6608 16.25C18.6256 16.2009 18.5889 16.1525 18.5508 16.1049C18.4173 15.938 18.4252 15.6988 18.5694 15.5411L18.5958 15.5121C18.7982 15.2908 18.9217 15.0253 18.968 14.75H19.2502V11.75H4.75024V14.75H5.63082C5.47013 15.2339 5.41972 15.747 5.48087 16.25L2.25024 16.25C1.28374 16.25 0.500244 15.4665 0.500244 14.5V6.5ZM21.75 14.75H20.7502V11.5C20.7502 10.8096 20.1906 10.25 19.5002 10.25H4.50024C3.80989 10.25 3.25024 10.8096 3.25024 11.5V14.75H2.25024C2.11217 14.75 2.00024 14.6381 2.00024 14.5V6.5C2.00024 6.36193 2.11217 6.25 2.25024 6.25H21.75C21.8881 6.25 22 6.36193 22 6.5V14.5C22 14.6381 21.8881 14.75 21.75 14.75Z" fill="black"/>
<path d="M15.6308 14.75C15.4701 15.2339 15.4197 15.747 15.4809 16.25H13.6608C13.6256 16.2009 13.5889 16.1525 13.5508 16.1049C13.4173 15.938 13.4252 15.6988 13.5694 15.5411L13.5958 15.5121C13.7982 15.2908 13.9217 15.0253 13.968 14.75H15.6308Z" fill="black"/>
<path d="M10.6308 14.75H8.96797C8.92171 15.0253 8.79818 15.2908 8.59583 15.5121L8.56937 15.5411C8.42518 15.6988 8.41729 15.938 8.55079 16.1049C8.58889 16.1525 8.62555 16.2009 8.66076 16.25H10.4809C10.4197 15.747 10.4701 15.2339 10.6308 14.75Z" fill="black"/>
<path d="M6.79383 17.5104C5.96807 16.4782 6.01684 14.9985 6.90878 14.0229L6.93524 13.9939C7.21473 13.6882 7.68913 13.667 7.99484 13.9465C8.30054 14.226 8.32179 14.7004 8.0423 15.0061L8.01584 15.035C7.6224 15.4653 7.60088 16.1181 7.96513 16.5734C8.74929 17.5536 8.74929 18.9464 7.96513 19.9266L7.9316 19.9685C7.67284 20.292 7.20087 20.3444 6.87743 20.0857C6.55398 19.8269 6.50154 19.3549 6.7603 19.0315L6.79383 18.9896C7.13973 18.5572 7.13973 17.9428 6.79383 17.5104Z" fill="black"/>
<path d="M11.9088 14.0229C11.0168 14.9985 10.9681 16.4782 11.7938 17.5104C12.1397 17.9428 12.1397 18.5572 11.7938 18.9896L11.7603 19.0315C11.5015 19.3549 11.554 19.8269 11.8774 20.0857C12.2009 20.3444 12.6728 20.292 12.9316 19.9685L12.9651 19.9266C13.7493 18.9464 13.7493 17.5536 12.9651 16.5734C12.6009 16.1181 12.6224 15.4653 13.0158 15.035L13.0423 15.0061C13.3218 14.7004 13.3005 14.226 12.9948 13.9465C12.6891 13.667 12.2147 13.6882 11.9352 13.9939L11.9088 14.0229Z" fill="black"/>
<path d="M16.7938 17.5104C15.9681 16.4782 16.0168 14.9985 16.9088 14.0229L16.9352 13.9939C17.2147 13.6882 17.6891 13.667 17.9948 13.9465C18.3005 14.226 18.3218 14.7004 18.0423 15.0061L18.0158 15.035C17.6224 15.4653 17.6009 16.1181 17.9651 16.5734C18.7493 17.5536 18.7493 18.9464 17.9651 19.9266L17.9316 19.9685C17.6728 20.292 17.2009 20.3444 16.8774 20.0857C16.554 19.8269 16.5015 19.3549 16.7603 19.0315L16.7938 18.9896C17.1397 18.5572 17.1397 17.9428 16.7938 17.5104Z" fill="black"/>
</svg>
