<svg width="24" height="24" viewBox="0 0 24 24" fill="none" xmlns="http://www.w3.org/2000/svg">
<path fill-rule="evenodd" clip-rule="evenodd" d="M2.83097 5C2.56742 4.99999 2.34 4.99999 2.15273 5.01529C1.95506 5.03144 1.75845 5.0671 1.56926 5.16349C1.28702 5.3073 1.05755 5.53677 0.913736 5.81902C0.817339 6.00821 0.781681 6.20482 0.765531 6.40249C0.75023 6.58976 0.750237 6.81712 0.750244 7.08067V13.9193C0.750237 14.1828 0.75023 14.4102 0.765531 14.5975C0.781681 14.7952 0.817339 14.9918 0.913736 15.181C1.05755 15.4632 1.28702 15.6927 1.56926 15.8365C1.75845 15.9329 1.95506 15.9686 2.15273 15.9847C2.34001 16 2.56739 16 2.83096 16H5.46037C5.44141 15.6636 5.48026 15.325 5.5764 15H4.00025V13.1C4.00025 12.5399 4.00025 12.2599 4.10924 12.046C4.20511 11.8578 4.35809 11.7049 4.54626 11.609C4.76017 11.5 5.04019 11.5 5.60025 11.5H18.4002C18.9603 11.5 19.2403 11.5 19.4542 11.609C19.6424 11.7049 19.7954 11.8578 19.8913 12.046C20.0002 12.2599 20.0002 12.5399 20.0002 13.1V15H17.855C17.8195 15.0615 17.7767 15.1202 17.7268 15.1748L17.7003 15.2037C17.4979 15.4251 17.4203 15.7212 17.4705 16H21.1693C21.4328 16 21.6602 16 21.8475 15.9847C22.0452 15.9686 22.2418 15.9329 22.431 15.8365C22.7132 15.6927 22.9427 15.4632 23.0865 15.181C23.1829 14.9918 23.2185 14.7952 23.2347 14.5975C23.25 14.4102 23.25 14.1829 23.25 13.9193V7.08072C23.25 6.81715 23.25 6.58977 23.2347 6.40249C23.2185 6.20482 23.1829 6.00821 23.0865 5.81902C22.9427 5.53677 22.7132 5.3073 22.431 5.16349C22.2418 5.0671 22.0452 5.03144 21.8475 5.01529C21.6602 4.99999 21.4329 4.99999 21.1693 5H2.83097ZM19.6785 7C19.4023 7 19.1785 7.22386 19.1785 7.5C19.1785 7.77614 19.4023 8 19.6785 8H20.7017C20.9779 8 21.2017 7.77614 21.2017 7.5C21.2017 7.22386 20.9779 7 20.7017 7H19.6785Z" fill="black"/>
<path d="M12.855 15H15.5764C15.4803 15.325 15.4414 15.6636 15.4604 16H12.4705C12.4203 15.7212 12.4979 15.4251 12.7003 15.2037L12.7268 15.1748C12.7767 15.1202 12.8195 15.0615 12.855 15Z" fill="black"/>
<path d="M10.4604 16C10.4414 15.6636 10.4803 15.325 10.5764 15H7.85504C7.81946 15.0615 7.77673 15.1202 7.72681 15.1748L7.70035 15.2037C7.49791 15.4251 7.4203 15.7212 7.47054 16H10.4604Z" fill="black"/>
<path d="M6.48905 17.3543C5.7402 16.4182 5.78443 15.0763 6.59329 14.1916L6.61975 14.1626C6.80608 13.9588 7.12234 13.9447 7.32615 14.131C7.52995 14.3173 7.54412 14.6336 7.35779 14.8374L7.33133 14.8663C6.85481 15.3875 6.82875 16.1781 7.26992 16.7296C7.98103 17.6185 7.98103 18.8815 7.26992 19.7704L7.23638 19.8123C7.06388 20.028 6.74923 20.0629 6.5336 19.8904C6.31797 19.7179 6.28301 19.4033 6.45551 19.1877L6.48905 19.1457C6.90799 18.6221 6.90799 17.8779 6.48905 17.3543Z" fill="black"/>
<path d="M11.5933 14.1916C10.7844 15.0763 10.7402 16.4182 11.489 17.3543C11.908 17.8779 11.908 18.6221 11.489 19.1457L11.4555 19.1877C11.283 19.4033 11.318 19.7179 11.5336 19.8904C11.7492 20.0629 12.0639 20.028 12.2364 19.8123L12.2699 19.7704C12.981 18.8815 12.981 17.6185 12.2699 16.7296C11.8287 16.1781 11.8548 15.3875 12.3313 14.8663L12.3578 14.8374C12.5441 14.6336 12.53 14.3173 12.3261 14.131C12.1223 13.9447 11.8061 13.9588 11.6198 14.1626L11.5933 14.1916Z" fill="black"/>
<path d="M16.489 17.3543C15.7402 16.4182 15.7844 15.0763 16.5933 14.1916L16.6198 14.1626C16.8061 13.9588 17.1223 13.9447 17.3261 14.131C17.53 14.3173 17.5441 14.6336 17.3578 14.8374L17.3313 14.8663C16.8548 15.3875 16.8287 16.1781 17.2699 16.7296C17.981 17.6185 17.981 18.8815 17.2699 19.7704L17.2364 19.8123C17.0639 20.028 16.7492 20.0629 16.5336 19.8904C16.318 19.7179 16.283 19.4033 16.4555 19.1877L16.489 19.1457C16.908 18.6221 16.908 17.8779 16.489 17.3543Z" fill="black"/>
</svg>
