<svg width="24" height="24" viewBox="0 0 24 24" fill="none" xmlns="http://www.w3.org/2000/svg">
<path fill-rule="evenodd" clip-rule="evenodd" d="M2.90018 2.75C2.60805 2.74998 2.33964 2.74996 2.11638 2.7706C1.87485 2.79292 1.61192 2.84424 1.35918 2.99371C1.10547 3.14376 0.893758 3.35547 0.743709 3.60918C0.594241 3.86192 0.542917 4.12485 0.520597 4.36638C0.499965 4.58964 0.499982 4.85787 0.500001 5.15V11.8498C0.499982 12.142 0.499965 12.4104 0.520597 12.6336C0.542917 12.8752 0.594241 13.1381 0.743709 13.3908C0.893758 13.6445 1.10547 13.8563 1.35918 14.0063C1.61192 14.1558 1.87485 14.2071 2.11638 14.2294C2.33968 14.2501 2.60797 14.25 2.90016 14.25H21.0996C21.3918 14.25 21.6601 14.2501 21.8834 14.2294C22.1249 14.2071 22.3878 14.1558 22.6406 14.0063C22.8943 13.8563 23.106 13.6445 23.256 13.3908C23.4055 13.1381 23.4568 12.8752 23.4792 12.6336C23.4998 12.4103 23.4998 12.142 23.4997 11.8498V5.15016C23.4998 4.85797 23.4998 4.58968 23.4792 4.36638C23.4568 4.12485 23.4055 3.86192 23.256 3.60918C23.106 3.35547 22.8943 3.14376 22.6406 2.99371C22.3878 2.84424 22.1249 2.79292 21.8834 2.7706C21.6601 2.74996 21.3919 2.74998 21.0998 2.75H2.90018ZM20 12.75V11.1C20 10.54 20 10.2599 19.891 10.046C19.7951 9.85785 19.6422 9.70487 19.454 9.609C19.2401 9.50001 18.9601 9.50001 18.4 9.50001H5.60001C5.03995 9.50001 4.75993 9.50001 4.54602 9.609C4.35785 9.70487 4.20487 9.85785 4.109 10.046C4.00001 10.2599 4.00001 10.54 4.00001 11.1V12.75H20ZM19.6782 4.75001C19.264 4.75001 18.9282 5.08579 18.9282 5.50001C18.9282 5.91422 19.264 6.25001 19.6782 6.25001H20.7015C21.1157 6.25001 21.4515 5.91422 21.4515 5.50001C21.4515 5.08579 21.1157 4.75001 20.7015 4.75001H19.6782Z" fill="black"/>
<path d="M6.29359 19.5104C5.46782 18.4782 5.5166 16.9985 6.40854 16.0229L6.435 15.9939C6.71449 15.6882 7.18889 15.667 7.4946 15.9465C7.8003 16.226 7.82155 16.7004 7.54206 17.0061L7.5156 17.035C7.12216 17.4653 7.10064 18.1181 7.46489 18.5734C8.24905 19.5536 8.24905 20.9464 7.46489 21.9266L7.43136 21.9685C7.1726 22.292 6.70063 22.3444 6.37718 22.0857C6.05374 21.8269 6.0013 21.3549 6.26005 21.0315L6.29359 20.9896C6.63949 20.5572 6.63949 19.9428 6.29359 19.5104Z" fill="black"/>
<path d="M11.4085 16.0229C10.5166 16.9985 10.4678 18.4782 11.2936 19.5104C11.6395 19.9428 11.6395 20.5572 11.2936 20.9896L11.2601 21.0315C11.0013 21.3549 11.0537 21.8269 11.3772 22.0857C11.7006 22.3444 12.1726 22.292 12.4314 21.9685L12.4649 21.9266C13.2491 20.9464 13.2491 19.5536 12.4649 18.5734C12.1006 18.1181 12.1222 17.4653 12.5156 17.035L12.5421 17.0061C12.8215 16.7004 12.8003 16.226 12.4946 15.9465C12.1889 15.667 11.7145 15.6882 11.435 15.9939L11.4085 16.0229Z" fill="black"/>
<path d="M16.2936 19.5104C15.4678 18.4782 15.5166 16.9985 16.4085 16.0229L16.435 15.9939C16.7145 15.6882 17.1889 15.667 17.4946 15.9465C17.8003 16.226 17.8216 16.7004 17.5421 17.0061L17.5156 17.035C17.1222 17.4653 17.1006 18.1181 17.4649 18.5734C18.2491 19.5536 18.2491 20.9464 17.4649 21.9266L17.4314 21.9685C17.1726 22.292 16.7006 22.3444 16.3772 22.0857C16.0537 21.8269 16.0013 21.3549 16.2601 21.0315L16.2936 20.9896C16.6395 20.5572 16.6395 19.9428 16.2936 19.5104Z" fill="black"/>
</svg>
