<svg width="24" height="24" viewBox="0 0 24 24" fill="none" xmlns="http://www.w3.org/2000/svg">
<path fill-rule="evenodd" clip-rule="evenodd" d="M2.88841 2.25001C2.60696 2.24995 2.31741 2.24989 2.07037 2.27272C1.7934 2.29832 1.4474 2.36065 1.10467 2.56334C0.778457 2.75626 0.506262 3.02846 0.313341 3.35467C0.110647 3.6974 0.048318 4.0434 0.0227219 4.32037C-0.00010783 4.56741 -5.03714e-05 4.85696 5.53778e-06 5.13841V11.8616C-5.03714e-05 12.1431 -0.00010783 12.4326 0.0227221 12.6796C0.048318 12.9566 0.110647 13.3026 0.313341 13.6454C0.506262 13.9716 0.778457 14.2438 1.10467 14.4367C1.4474 14.6394 1.7934 14.7017 2.07037 14.7273C2.31739 14.7501 2.6069 14.7501 2.88833 14.75H21.1113C21.3928 14.7501 21.6823 14.7501 21.9294 14.7273C22.2064 14.7017 22.5524 14.6394 22.8951 14.4367C23.2213 14.2438 23.4935 13.9716 23.6864 13.6454C23.8891 13.3026 23.9514 12.9566 23.977 12.6796C23.9999 12.4326 23.9998 12.1431 23.9998 11.8616V5.13841C23.9998 4.85696 23.9999 4.56741 23.977 4.32037C23.9514 4.0434 23.8891 3.6974 23.6864 3.35467C23.4935 3.02846 23.2213 2.75626 22.8951 2.56334C22.5524 2.36065 22.2064 2.29832 21.9294 2.27272C21.6823 2.24989 21.3928 2.24995 21.1113 2.25001H2.88841ZM19.6782 4.75001C19.264 4.75001 18.9282 5.0858 18.9282 5.50001C18.9282 5.91422 19.264 6.25001 19.6782 6.25001H20.7015C21.1157 6.25001 21.4515 5.91422 21.4515 5.50001C21.4515 5.0858 21.1157 4.75001 20.7015 4.75001H19.6782ZM4.00001 12.25H20V11.1C20 10.54 20 10.2599 19.891 10.046C19.7951 9.85786 19.6422 9.70488 19.454 9.609C19.2401 9.50001 18.9601 9.50001 18.4 9.50001H5.60001C5.03996 9.50001 4.75993 9.50001 4.54602 9.609C4.35786 9.70488 4.20488 9.85786 4.109 10.046C4.00001 10.2599 4.00001 10.54 4.00001 11.1V12.25Z" fill="black"/>
<path d="M6.29359 19.5104C5.46782 18.4782 5.5166 16.9985 6.40854 16.0229L6.435 15.9939C6.71449 15.6882 7.18889 15.667 7.49459 15.9465C7.8003 16.226 7.82155 16.7004 7.54205 17.0061L7.51559 17.035C7.12215 17.4653 7.10064 18.1181 7.46489 18.5734C8.24905 19.5536 8.24905 20.9464 7.46489 21.9266L7.43135 21.9685C7.1726 22.292 6.70063 22.3444 6.37718 22.0857C6.05374 21.8269 6.00129 21.3549 6.26005 21.0315L6.29359 20.9896C6.63948 20.5572 6.63948 19.9428 6.29359 19.5104Z" fill="black"/>
<path d="M11.4085 16.0229C10.5166 16.9985 10.4678 18.4782 11.2936 19.5104C11.6395 19.9428 11.6395 20.5572 11.2936 20.9896L11.2601 21.0315C11.0013 21.3549 11.0537 21.8269 11.3772 22.0857C11.7006 22.3444 12.1726 22.292 12.4314 21.9685L12.4649 21.9266C13.2491 20.9464 13.2491 19.5536 12.4649 18.5734C12.1006 18.1181 12.1222 17.4653 12.5156 17.035L12.5421 17.0061C12.8215 16.7004 12.8003 16.226 12.4946 15.9465C12.1889 15.667 11.7145 15.6882 11.435 15.9939L11.4085 16.0229Z" fill="black"/>
<path d="M16.2936 19.5104C15.4678 18.4782 15.5166 16.9985 16.4085 16.0229L16.435 15.9939C16.7145 15.6882 17.1889 15.667 17.4946 15.9465C17.8003 16.226 17.8215 16.7004 17.5421 17.0061L17.5156 17.035C17.1222 17.4653 17.1006 18.1181 17.4649 18.5734C18.2491 19.5536 18.2491 20.9464 17.4649 21.9266L17.4314 21.9685C17.1726 22.292 16.7006 22.3444 16.3772 22.0857C16.0537 21.8269 16.0013 21.3549 16.2601 21.0315L16.2936 20.9896C16.6395 20.5572 16.6395 19.9428 16.2936 19.5104Z" fill="black"/>
</svg>
