<svg width="24" height="24" viewBox="0 0 24 24" fill="none" xmlns="http://www.w3.org/2000/svg">
<path d="M19.1802 7.25C18.766 7.25 18.4302 7.58579 18.4302 8C18.4302 8.41422 18.766 8.75 19.1802 8.75H20.2035C20.6177 8.75 20.9535 8.41422 20.9535 8C20.9535 7.58579 20.6177 7.25 20.2035 7.25L19.1802 7.25Z" fill="black"/>
<path fill-rule="evenodd" clip-rule="evenodd" d="M0.250244 6.5C0.250244 5.39543 1.14567 4.5 2.25024 4.5H21.75C22.8546 4.5 23.75 5.39543 23.75 6.5V14.5C23.75 15.6046 22.8545 16.5 21.75 16.5L18.8241 16.5C18.7432 16.3636 18.6521 16.2316 18.5508 16.1049C18.4173 15.938 18.4252 15.6988 18.5694 15.5411L18.5958 15.5121C18.859 15.2243 18.9889 14.8616 18.9888 14.5H19.0002V12H5.00024V14.5H5.72482C5.45797 15.1335 5.38887 15.8316 5.52065 16.5L2.25024 16.5C1.14567 16.5 0.250244 15.6046 0.250244 14.5V6.5ZM21.75 14.5H21.0002V11.5C21.0002 10.6716 20.3287 10 19.5002 10H4.50024C3.67182 10 3.00024 10.6716 3.00024 11.5V14.5H2.25024V6.5L21.75 6.5L21.75 14.5Z" fill="black"/>
<path d="M15.7248 14.5C15.458 15.1335 15.3889 15.8316 15.5207 16.5H13.8241C13.7432 16.3636 13.6521 16.2316 13.5508 16.1049C13.4173 15.938 13.4252 15.6988 13.5694 15.5411L13.5958 15.5121C13.859 15.2243 13.9889 14.8616 13.9888 14.5H15.7248Z" fill="black"/>
<path d="M10.7248 14.5H8.98878C8.98888 14.8616 8.85903 15.2243 8.59583 15.5121L8.56937 15.5411C8.42518 15.6988 8.41729 15.938 8.55079 16.1049C8.65213 16.2316 8.74324 16.3636 8.82412 16.5H10.5207C10.3889 15.8316 10.458 15.1335 10.7248 14.5Z" fill="black"/>
<path d="M6.79383 17.5104C5.96807 16.4782 6.01684 14.9985 6.90878 14.0229L6.93524 13.9939C7.21473 13.6882 7.68913 13.667 7.99484 13.9465C8.30054 14.226 8.32179 14.7004 8.0423 15.0061L8.01584 15.035C7.6224 15.4653 7.60088 16.1181 7.96513 16.5734C8.74929 17.5536 8.74929 18.9464 7.96513 19.9266L7.9316 19.9685C7.67284 20.292 7.20087 20.3444 6.87743 20.0857C6.55398 19.8269 6.50154 19.3549 6.7603 19.0315L6.79383 18.9896C7.13973 18.5572 7.13973 17.9428 6.79383 17.5104Z" fill="black"/>
<path d="M11.9088 14.0229C11.0168 14.9985 10.9681 16.4782 11.7938 17.5104C12.1397 17.9428 12.1397 18.5572 11.7938 18.9896L11.7603 19.0315C11.5015 19.3549 11.554 19.8269 11.8774 20.0857C12.2009 20.3444 12.6728 20.292 12.9316 19.9685L12.9651 19.9266C13.7493 18.9464 13.7493 17.5536 12.9651 16.5734C12.6009 16.1181 12.6224 15.4653 13.0158 15.035L13.0423 15.0061C13.3218 14.7004 13.3005 14.226 12.9948 13.9465C12.6891 13.667 12.2147 13.6882 11.9352 13.9939L11.9088 14.0229Z" fill="black"/>
<path d="M16.7938 17.5104C15.9681 16.4782 16.0168 14.9985 16.9088 14.0229L16.9352 13.9939C17.2147 13.6882 17.6891 13.667 17.9948 13.9465C18.3005 14.226 18.3218 14.7004 18.0423 15.0061L18.0158 15.035C17.6224 15.4653 17.6009 16.1181 17.9651 16.5734C18.7493 17.5536 18.7493 18.9464 17.9651 19.9266L17.9316 19.9685C17.6728 20.292 17.2009 20.3444 16.8774 20.0857C16.554 19.8269 16.5015 19.3549 16.7603 19.0315L16.7938 18.9896C17.1397 18.5572 17.1397 17.9428 16.7938 17.5104Z" fill="black"/>
</svg>
