<svg width="24" height="24" viewBox="0 0 24 24" fill="none" xmlns="http://www.w3.org/2000/svg">
<path fill-rule="evenodd" clip-rule="evenodd" d="M2.88841 4.25001C2.60696 4.24995 2.31741 4.24989 2.07037 4.27272C1.7934 4.29832 1.4474 4.36065 1.10467 4.56334C0.778457 4.75626 0.506262 5.02846 0.313341 5.35467C0.110647 5.6974 0.048318 6.0434 0.0227219 6.32037C-0.00010783 6.56741 -5.03714e-05 6.85696 5.53778e-06 7.13841V13.8616C-5.03714e-05 14.1431 -0.00010783 14.4326 0.0227221 14.6796C0.048318 14.9566 0.110647 15.3026 0.313341 15.6454C0.506262 15.9716 0.778457 16.2438 1.10467 16.4367C1.4474 16.6394 1.7934 16.7017 2.07037 16.7273C2.31739 16.7501 2.6069 16.7501 2.88833 16.75L5.07951 16.75C4.85008 15.9198 4.93964 15.0237 5.342 14.25H4.00001V13.1C4.00001 12.54 4.00001 12.2599 4.109 12.046C4.20488 11.8579 4.35786 11.7049 4.54602 11.609C4.75993 11.5 5.03996 11.5 5.60001 11.5H18.4C18.9601 11.5 19.2401 11.5 19.454 11.609C19.6422 11.7049 19.7951 11.8579 19.891 12.046C20 12.2599 20 12.54 20 13.1V14.25H18.4676C18.5416 14.6896 18.4197 15.1576 18.0956 15.5121L18.0691 15.5411C17.9249 15.6988 17.917 15.938 18.0505 16.1049C18.2127 16.3076 18.3487 16.5241 18.4585 16.75L21.1113 16.75C21.3928 16.7501 21.6823 16.7501 21.9294 16.7273C22.2064 16.7017 22.5524 16.6394 22.8951 16.4367C23.2213 16.2438 23.4935 15.9716 23.6864 15.6454C23.8891 15.3026 23.9514 14.9566 23.977 14.6796C23.9999 14.4326 23.9998 14.1431 23.9998 13.8616V7.13841C23.9998 6.85696 23.9999 6.56741 23.977 6.32037C23.9514 6.0434 23.8891 5.6974 23.6864 5.35467C23.4935 5.02846 23.2213 4.75626 22.8951 4.56334C22.5524 4.36065 22.2064 4.29832 21.9294 4.27272C21.6823 4.24989 21.3928 4.24995 21.1113 4.25001H2.88841ZM19.6782 6.75001C19.264 6.75001 18.9282 7.0858 18.9282 7.50001C18.9282 7.91422 19.264 8.25001 19.6782 8.25001H20.7015C21.1157 8.25001 21.4515 7.91422 21.4515 7.50001C21.4515 7.0858 21.1157 6.75001 20.7015 6.75001H19.6782Z" fill="black"/>
<path d="M13.4676 14.25H15.342C14.9396 15.0237 14.8501 15.9198 15.0795 16.75H13.4585C13.3487 16.5241 13.2127 16.3076 13.0505 16.1049C12.917 15.938 12.9249 15.6988 13.0691 15.5411L13.0956 15.5121C13.4197 15.1576 13.5416 14.6896 13.4676 14.25Z" fill="black"/>
<path d="M10.0795 16.75C9.85008 15.9198 9.93964 15.0237 10.342 14.25H8.46762C8.54161 14.6896 8.41971 15.1576 8.09558 15.5121L8.06912 15.5411C7.92493 15.6988 7.91705 15.938 8.05054 16.1049C8.21273 16.3076 8.3487 16.5241 8.45845 16.75H10.0795Z" fill="black"/>
<path d="M6.29359 17.5104C5.46782 16.4782 5.5166 14.9985 6.40854 14.0229L6.435 13.9939C6.71449 13.6882 7.18889 13.667 7.49459 13.9465C7.8003 14.226 7.82155 14.7004 7.54205 15.0061L7.51559 15.035C7.12215 15.4653 7.10064 16.1181 7.46489 16.5734C8.24905 17.5536 8.24905 18.9464 7.46489 19.9266L7.43135 19.9685C7.1726 20.292 6.70063 20.3444 6.37718 20.0857C6.05374 19.8269 6.00129 19.3549 6.26005 19.0315L6.29359 18.9896C6.63948 18.5572 6.63948 17.9428 6.29359 17.5104Z" fill="black"/>
<path d="M11.4085 14.0229C10.5166 14.9985 10.4678 16.4782 11.2936 17.5104C11.6395 17.9428 11.6395 18.5572 11.2936 18.9896L11.2601 19.0315C11.0013 19.3549 11.0537 19.8269 11.3772 20.0857C11.7006 20.3444 12.1726 20.292 12.4314 19.9685L12.4649 19.9266C13.2491 18.9464 13.2491 17.5536 12.4649 16.5734C12.1006 16.1181 12.1222 15.4653 12.5156 15.035L12.5421 15.0061C12.8215 14.7004 12.8003 14.226 12.4946 13.9465C12.1889 13.667 11.7145 13.6882 11.435 13.9939L11.4085 14.0229Z" fill="black"/>
<path d="M16.2936 17.5104C15.4678 16.4782 15.5166 14.9985 16.4085 14.0229L16.435 13.9939C16.7145 13.6882 17.1889 13.667 17.4946 13.9465C17.8003 14.226 17.8215 14.7004 17.5421 15.0061L17.5156 15.035C17.1222 15.4653 17.1006 16.1181 17.4649 16.5734C18.2491 17.5536 18.2491 18.9464 17.4649 19.9266L17.4314 19.9685C17.1726 20.292 16.7006 20.3444 16.3772 20.0857C16.0537 19.8269 16.0013 19.3549 16.2601 19.0315L16.2936 18.9896C16.6395 18.5572 16.6395 17.9428 16.2936 17.5104Z" fill="black"/>
</svg>
