<svg width="24" height="24" viewBox="0 0 24 24" fill="none" xmlns="http://www.w3.org/2000/svg">
<path d="M19.6784 7C19.4022 7 19.1784 7.22386 19.1784 7.5C19.1784 7.77614 19.4022 8 19.6784 8L20.7016 8C20.9778 8 21.2016 7.77614 21.2016 7.5C21.2016 7.22386 20.9778 7 20.7016 7L19.6784 7Z" fill="black"/>
<path fill-rule="evenodd" clip-rule="evenodd" d="M2.83073 5H21.169C21.4326 4.99999 21.66 4.99999 21.8472 5.01529C22.0449 5.03144 22.2415 5.0671 22.4307 5.16349C22.713 5.3073 22.9424 5.53677 23.0862 5.81902C23.1826 6.00821 23.2183 6.20482 23.2344 6.40249C23.2498 6.58977 23.2497 6.81715 23.2497 7.08072V13.9193C23.2497 14.1829 23.2498 14.4102 23.2344 14.5975C23.2183 14.7952 23.1826 14.9918 23.0862 15.181C22.9424 15.4632 22.713 15.6927 22.4307 15.8365C22.2415 15.9329 22.0449 15.9686 21.8472 15.9847C21.66 16 21.4326 16 21.169 16L17.9703 16C17.9201 15.7212 17.9977 15.4251 18.2001 15.2037L18.2266 15.1748C18.2765 15.1202 18.3192 15.0615 18.3548 15H19.5V12.3C19.5 12.1517 19.4996 12.0706 19.4949 12.0123L19.4943 12.0057L19.4877 12.0052C19.4294 12.0004 19.3483 12 19.2 12H4.8C4.65174 12 4.57061 12.0004 4.51232 12.0052L4.50573 12.0057L4.50515 12.0123C4.50039 12.0706 4.5 12.1517 4.5 12.3V15H5.07615C4.98001 15.325 4.94116 15.6636 4.96013 16L2.83072 16C2.56715 16 2.33977 16 2.15249 15.9847C1.95482 15.9686 1.75821 15.9329 1.56902 15.8365C1.28677 15.6927 1.0573 15.4632 0.913492 15.181C0.817095 14.9918 0.781437 14.7952 0.765287 14.5975C0.749986 14.4102 0.749993 14.1829 0.75 13.9193V7.08073C0.749993 6.81718 0.749986 6.58976 0.765287 6.40249C0.781437 6.20482 0.817095 6.00821 0.913492 5.81902C1.0573 5.53677 1.28677 5.3073 1.56902 5.16349C1.75821 5.0671 1.95482 5.03144 2.15249 5.01529C2.33976 4.99999 2.56718 4.99999 2.83073 5ZM21.1497 15H20.5V12.284C20.5 12.1579 20.5 12.0349 20.4915 11.9309C20.4822 11.8166 20.4602 11.6817 20.391 11.546C20.2951 11.3578 20.1422 11.2049 19.954 11.109C19.8183 11.0398 19.6834 11.0178 19.5691 11.0085C19.465 11 19.3422 11 19.216 11H4.78405C4.65787 11 4.53496 11 4.43089 11.0085C4.31659 11.0178 4.18172 11.0398 4.04601 11.109C3.85785 11.2049 3.70487 11.3578 3.60899 11.546C3.53985 11.6817 3.51781 11.8166 3.50847 11.9309C3.49997 12.035 3.49998 12.1578 3.5 12.284L3.5 15H2.85C2.56172 15 2.37559 14.9996 2.23392 14.988C2.09809 14.9769 2.04773 14.9581 2.02301 14.9455C1.92893 14.8976 1.85244 14.8211 1.8045 14.727C1.7919 14.7023 1.77306 14.6519 1.76197 14.5161C1.75039 14.3744 1.75 14.1883 1.75 13.9V7.1C1.75 6.81173 1.75039 6.62559 1.76197 6.48392C1.77306 6.34809 1.7919 6.29773 1.8045 6.27301C1.85244 6.17893 1.92893 6.10244 2.02301 6.0545C2.04773 6.0419 2.09809 6.02306 2.23392 6.01197C2.37559 6.00039 2.56173 6 2.85 6H21.1497C21.438 6 21.6241 6.00039 21.7658 6.01197C21.9016 6.02306 21.952 6.0419 21.9767 6.0545C22.0708 6.10244 22.1473 6.17893 22.1952 6.27301C22.2078 6.29773 22.2267 6.34809 22.2378 6.48392C22.2493 6.62559 22.2497 6.81173 22.2497 7.1V13.9C22.2497 14.1883 22.2493 14.3744 22.2378 14.5161C22.2267 14.6519 22.2078 14.7023 22.1952 14.727C22.1473 14.8211 22.0708 14.8976 21.9767 14.9455C21.952 14.9581 21.9016 14.9769 21.7658 14.988C21.6241 14.9996 21.438 15 21.1497 15Z" fill="black"/>
<path d="M16.0761 15C15.98 15.325 15.9412 15.6636 15.9601 16H12.4703C12.4201 15.7212 12.4977 15.4251 12.7001 15.2037L12.7266 15.1748C12.7765 15.1202 12.8192 15.0615 12.8548 15H16.0761Z" fill="black"/>
<path d="M10.5761 15H7.3548C7.31921 15.0615 7.27649 15.1202 7.22657 15.1748L7.20011 15.2037C6.99766 15.4251 6.92005 15.7212 6.9703 16H10.4601C10.4412 15.6636 10.48 15.325 10.5761 15Z" fill="black"/>
<path d="M5.9888 17.3543C5.23996 16.4182 5.28419 15.0763 6.09305 14.1916L6.11951 14.1626C6.30584 13.9588 6.6221 13.9447 6.8259 14.131C7.02971 14.3173 7.04387 14.6336 6.85755 14.8374L6.83109 14.8663C6.35456 15.3875 6.32851 16.1781 6.76967 16.7296C7.48079 17.6185 7.48079 18.8815 6.76967 19.7704L6.73614 19.8123C6.56363 20.028 6.24899 20.0629 6.03336 19.8904C5.81773 19.7179 5.78276 19.4033 5.95527 19.1877L5.9888 19.1457C6.40775 18.6221 6.40775 17.8779 5.9888 17.3543Z" fill="black"/>
<path d="M11.593 14.1916C10.7842 15.0763 10.74 16.4182 11.4888 17.3543C11.9077 17.8779 11.9077 18.6221 11.4888 19.1457L11.4553 19.1877C11.2828 19.4033 11.3177 19.7179 11.5334 19.8904C11.749 20.0629 12.0636 20.028 12.2361 19.8123L12.2697 19.7704C12.9808 18.8815 12.9808 17.6185 12.2697 16.7296C11.8285 16.1781 11.8546 15.3875 12.3311 14.8663L12.3575 14.8374C12.5439 14.6336 12.5297 14.3173 12.3259 14.131C12.1221 13.9447 11.8058 13.9588 11.6195 14.1626L11.593 14.1916Z" fill="black"/>
<path d="M16.9888 17.3543C16.24 16.4182 16.2842 15.0763 17.093 14.1916L17.1195 14.1626C17.3058 13.9588 17.6221 13.9447 17.8259 14.131C18.0297 14.3173 18.0439 14.6336 17.8575 14.8374L17.8311 14.8663C17.3546 15.3875 17.3285 16.1781 17.7697 16.7296C18.4808 17.6185 18.4808 18.8815 17.7697 19.7704L17.7361 19.8123C17.5636 20.028 17.249 20.0629 17.0334 19.8904C16.8177 19.7179 16.7828 19.4033 16.9553 19.1877L16.9888 19.1457C17.4077 18.6221 17.4077 17.8779 16.9888 17.3543Z" fill="black"/>
</svg>
