<svg width="24" height="24" viewBox="0 0 24 24" fill="none" xmlns="http://www.w3.org/2000/svg">
<path d="M19.18 7.25C18.7658 7.25 18.43 7.58579 18.43 8C18.43 8.41422 18.7658 8.75 19.18 8.75H20.2033C20.6175 8.75 20.9533 8.41422 20.9533 8C20.9533 7.58579 20.6175 7.25 20.2033 7.25L19.18 7.25Z" fill="black"/>
<path fill-rule="evenodd" clip-rule="evenodd" d="M0.25 6.5C0.25 5.39543 1.14543 4.5 2.25 4.5H21.7497C22.8543 4.5 23.7497 5.39543 23.7497 6.5V14.5C23.7497 15.6046 22.8543 16.5 21.7497 16.5L18.8239 16.5C18.743 16.3636 18.6519 16.2316 18.5505 16.1049C18.417 15.938 18.4249 15.6988 18.5691 15.5411L18.5956 15.5121C18.8588 15.2243 18.9886 14.8616 18.9885 14.5H19V12H5V14.5H5.72458C5.45772 15.1335 5.38863 15.8316 5.52041 16.5L2.25 16.5C1.14543 16.5 0.25 15.6046 0.25 14.5V6.5ZM21.7497 14.5H21V11.5C21 10.6716 20.3284 10 19.5 10H4.5C3.67157 10 3 10.6716 3 11.5V14.5H2.25V6.5L21.7497 6.5L21.7497 14.5Z" fill="black"/>
<path d="M15.7246 14.5C15.4577 15.1335 15.3886 15.8316 15.5204 16.5H13.8239C13.743 16.3636 13.6519 16.2316 13.5505 16.1049C13.417 15.938 13.4249 15.6988 13.5691 15.5411L13.5956 15.5121C13.8588 15.2243 13.9886 14.8616 13.9885 14.5H15.7246Z" fill="black"/>
<path d="M10.7246 14.5H8.98853C8.98863 14.8616 8.85878 15.2243 8.59558 15.5121L8.56912 15.5411C8.42493 15.6988 8.41705 15.938 8.55054 16.1049C8.65189 16.2316 8.743 16.3636 8.82387 16.5H10.5204C10.3886 15.8316 10.4577 15.1335 10.7246 14.5Z" fill="black"/>
<path d="M6.79359 17.5104C5.96782 16.4782 6.0166 14.9985 6.90854 14.0229L6.935 13.9939C7.21449 13.6882 7.68889 13.667 7.99459 13.9465C8.3003 14.226 8.32155 14.7004 8.04205 15.0061L8.01559 15.035C7.62215 15.4653 7.60064 16.1181 7.96489 16.5734C8.74905 17.5536 8.74905 18.9464 7.96489 19.9266L7.93135 19.9685C7.6726 20.292 7.20063 20.3444 6.87718 20.0857C6.55374 19.8269 6.50129 19.3549 6.76005 19.0315L6.79359 18.9896C7.13948 18.5572 7.13948 17.9428 6.79359 17.5104Z" fill="black"/>
<path d="M11.9085 14.0229C11.0166 14.9985 10.9678 16.4782 11.7936 17.5104C12.1395 17.9428 12.1395 18.5572 11.7936 18.9896L11.7601 19.0315C11.5013 19.3549 11.5537 19.8269 11.8772 20.0857C12.2006 20.3444 12.6726 20.292 12.9314 19.9685L12.9649 19.9266C13.7491 18.9464 13.7491 17.5536 12.9649 16.5734C12.6006 16.1181 12.6222 15.4653 13.0156 15.035L13.0421 15.0061C13.3215 14.7004 13.3003 14.226 12.9946 13.9465C12.6889 13.667 12.2145 13.6882 11.935 13.9939L11.9085 14.0229Z" fill="black"/>
<path d="M16.7936 17.5104C15.9678 16.4782 16.0166 14.9985 16.9085 14.0229L16.935 13.9939C17.2145 13.6882 17.6889 13.667 17.9946 13.9465C18.3003 14.226 18.3215 14.7004 18.0421 15.0061L18.0156 15.035C17.6222 15.4653 17.6006 16.1181 17.9649 16.5734C18.7491 17.5536 18.7491 18.9464 17.9649 19.9266L17.9314 19.9685C17.6726 20.292 17.2006 20.3444 16.8772 20.0857C16.5537 19.8269 16.5013 19.3549 16.7601 19.0315L16.7936 18.9896C17.1395 18.5572 17.1395 17.9428 16.7936 17.5104Z" fill="black"/>
</svg>
