<svg width="24" height="24" viewBox="0 0 24 24" fill="none" xmlns="http://www.w3.org/2000/svg">
<path fill-rule="evenodd" clip-rule="evenodd" d="M2.83954 5.25C2.5686 5.25 2.35006 5.25 2.17309 5.26445C1.99088 5.27934 1.83083 5.3108 1.68276 5.38624C1.44755 5.50608 1.25633 5.69731 1.13649 5.93251C1.06104 6.08059 1.02959 6.24063 1.0147 6.42284C1.00024 6.59981 1.00024 6.81835 1.00024 7.08929V13.9107C1.00024 14.1816 1.00024 14.4002 1.0147 14.5772C1.02959 14.7594 1.06104 14.9194 1.13649 15.0675C1.25633 15.3027 1.44755 15.4939 1.68276 15.6138C1.83083 15.6892 1.99088 15.7207 2.17309 15.7355C2.35006 15.75 2.56859 15.75 2.83953 15.75H5.20702C5.21227 15.5821 5.23323 15.4146 5.26982 15.25H4.00024V13.1C4.00024 12.5399 4.00024 12.2599 4.10924 12.046C4.20511 11.8578 4.35809 11.7049 4.54625 11.609C4.76017 11.5 5.04019 11.5 5.60024 11.5H18.4002C18.9603 11.5 19.2403 11.5 19.4542 11.609C19.6424 11.7049 19.7954 11.8578 19.8913 12.046C20.0002 12.2599 20.0002 12.5399 20.0002 13.1V15.25H17.8595C17.7714 15.4053 17.721 15.5764 17.7087 15.75H21.1607C21.4316 15.75 21.6502 15.75 21.8271 15.7355C22.0093 15.7207 22.1694 15.6892 22.3175 15.6138C22.5527 15.4939 22.7439 15.3027 22.8637 15.0675C22.9392 14.9194 22.9706 14.7594 22.9855 14.5772C23 14.4002 23 14.1817 23 13.9108V7.08929C23 6.81842 23 6.59978 22.9855 6.42284C22.9706 6.24063 22.9392 6.08059 22.8637 5.93251C22.7439 5.69731 22.5527 5.50608 22.3175 5.38624C22.1694 5.3108 22.0093 5.27934 21.8271 5.26445C21.6502 5.25 21.4316 5.25 21.1607 5.25H2.83954ZM19.6785 7.25C19.5404 7.25 19.4285 7.36193 19.4285 7.5C19.4285 7.63807 19.5404 7.75 19.6785 7.75L20.7017 7.75C20.8398 7.75 20.9517 7.63807 20.9517 7.5C20.9517 7.36193 20.8398 7.25 20.7017 7.25H19.6785Z" fill="black"/>
<path d="M12.3595 15.25H16.2698C16.2332 15.4146 16.2123 15.5821 16.207 15.75H12.2087C12.221 15.5764 12.2714 15.4053 12.3595 15.25Z" fill="black"/>
<path d="M10.707 15.75C10.7123 15.5821 10.7332 15.4146 10.7698 15.25H6.85951C6.7714 15.4053 6.72097 15.5764 6.70868 15.75H10.707Z" fill="black"/>
<path d="M6.18427 17.1981C5.51234 16.3582 5.55203 15.1541 6.2778 14.3603L6.30426 14.3313C6.39742 14.2294 6.55556 14.2223 6.65746 14.3155C6.75936 14.4087 6.76644 14.5668 6.67328 14.6687L6.64682 14.6976C6.08721 15.3097 6.05661 16.2381 6.5747 16.8857C7.21277 17.6833 7.21277 18.8167 6.5747 19.6143L6.54116 19.6562C6.45491 19.764 6.29759 19.7815 6.18977 19.6952C6.08196 19.609 6.06448 19.4516 6.15073 19.3438L6.18427 19.3019C6.67625 18.6869 6.67625 17.8131 6.18427 17.1981Z" fill="black"/>
<path d="M11.7778 14.3603C11.052 15.1541 11.0123 16.3582 11.6843 17.1981C12.1763 17.8131 12.1763 18.6869 11.6843 19.3019L11.6507 19.3438C11.5645 19.4516 11.582 19.609 11.6898 19.6952C11.7976 19.7815 11.9549 19.764 12.0412 19.6562L12.0747 19.6143C12.7128 18.8167 12.7128 17.6833 12.0747 16.8857C11.5566 16.2381 11.5872 15.3097 12.1468 14.6976L12.1733 14.6687C12.2664 14.5668 12.2594 14.4087 12.1575 14.3155C12.0556 14.2223 11.8974 14.2294 11.8043 14.3313L11.7778 14.3603Z" fill="black"/>
<path d="M17.1843 17.1981C16.5123 16.3582 16.552 15.1541 17.2778 14.3603L17.3043 14.3313C17.3974 14.2294 17.5556 14.2223 17.6575 14.3155C17.7594 14.4087 17.7664 14.5668 17.6733 14.6687L17.6468 14.6976C17.0872 15.3097 17.0566 16.2381 17.5747 16.8857C18.2128 17.6833 18.2128 18.8167 17.5747 19.6143L17.5412 19.6562C17.4549 19.764 17.2976 19.7815 17.1898 19.6952C17.082 19.609 17.0645 19.4516 17.1507 19.3438L17.1843 19.3019C17.6763 18.6869 17.6763 17.8131 17.1843 17.1981Z" fill="black"/>
</svg>
