<svg width="24" height="24" viewBox="0 0 24 24" fill="none" xmlns="http://www.w3.org/2000/svg">
<path fill-rule="evenodd" clip-rule="evenodd" d="M2.83073 5C2.56718 4.99999 2.33976 4.99999 2.15249 5.01529C1.95482 5.03144 1.75821 5.0671 1.56902 5.16349C1.28677 5.3073 1.0573 5.53677 0.913492 5.81902C0.817095 6.00821 0.781437 6.20482 0.765287 6.40249C0.749986 6.58976 0.749993 6.81712 0.75 7.08067V13.9193C0.749993 14.1828 0.749986 14.4102 0.765287 14.5975C0.781437 14.7952 0.817095 14.9918 0.913492 15.181C1.0573 15.4632 1.28677 15.6927 1.56902 15.8365C1.75821 15.9329 1.95482 15.9686 2.15249 15.9847C2.33977 16 2.56715 16 2.83072 16H5.46013C5.44116 15.6636 5.48001 15.325 5.57615 15H4V13.1C4 12.5399 4 12.2599 4.109 12.046C4.20487 11.8578 4.35785 11.7049 4.54601 11.609C4.75992 11.5 5.03995 11.5 5.6 11.5H18.4C18.9601 11.5 19.2401 11.5 19.454 11.609C19.6422 11.7049 19.7951 11.8578 19.891 12.046C20 12.2599 20 12.5399 20 13.1V15H17.8548C17.8192 15.0615 17.7765 15.1202 17.7266 15.1748L17.7001 15.2037C17.4977 15.4251 17.4201 15.7212 17.4703 16H21.169C21.4326 16 21.66 16 21.8472 15.9847C22.0449 15.9686 22.2415 15.9329 22.4307 15.8365C22.713 15.6927 22.9424 15.4632 23.0862 15.181C23.1826 14.9918 23.2183 14.7952 23.2344 14.5975C23.2498 14.4102 23.2497 14.1829 23.2497 13.9193V7.08072C23.2497 6.81715 23.2498 6.58977 23.2344 6.40249C23.2183 6.20482 23.1826 6.00821 23.0862 5.81902C22.9424 5.53677 22.713 5.3073 22.4307 5.16349C22.2415 5.0671 22.0449 5.03144 21.8472 5.01529C21.66 4.99999 21.4326 4.99999 21.1691 5H2.83073ZM19.6782 7C19.4021 7 19.1782 7.22386 19.1782 7.5C19.1782 7.77614 19.4021 8 19.6782 8H20.7015C20.9776 8 21.2015 7.77614 21.2015 7.5C21.2015 7.22386 20.9776 7 20.7015 7H19.6782Z" fill="black"/>
<path d="M12.8548 15H15.5761C15.48 15.325 15.4412 15.6636 15.4601 16H12.4703C12.4201 15.7212 12.4977 15.4251 12.7001 15.2037L12.7266 15.1748C12.7765 15.1202 12.8192 15.0615 12.8548 15Z" fill="black"/>
<path d="M10.4601 16C10.4412 15.6636 10.48 15.325 10.5761 15H7.8548C7.81921 15.0615 7.77649 15.1202 7.72657 15.1748L7.70011 15.2037C7.49766 15.4251 7.42005 15.7212 7.4703 16H10.4601Z" fill="black"/>
<path d="M6.4888 17.3543C5.73996 16.4182 5.78419 15.0763 6.59305 14.1916L6.61951 14.1626C6.80584 13.9588 7.1221 13.9447 7.3259 14.131C7.52971 14.3173 7.54387 14.6336 7.35755 14.8374L7.33109 14.8663C6.85456 15.3875 6.82851 16.1781 7.26967 16.7296C7.98079 17.6185 7.98079 18.8815 7.26967 19.7704L7.23614 19.8123C7.06363 20.028 6.74899 20.0629 6.53336 19.8904C6.31773 19.7179 6.28276 19.4033 6.45527 19.1877L6.4888 19.1457C6.90775 18.6221 6.90775 17.8779 6.4888 17.3543Z" fill="black"/>
<path d="M11.593 14.1916C10.7842 15.0763 10.74 16.4182 11.4888 17.3543C11.9077 17.8779 11.9077 18.6221 11.4888 19.1457L11.4553 19.1877C11.2828 19.4033 11.3177 19.7179 11.5334 19.8904C11.749 20.0629 12.0636 20.028 12.2361 19.8123L12.2697 19.7704C12.9808 18.8815 12.9808 17.6185 12.2697 16.7296C11.8285 16.1781 11.8546 15.3875 12.3311 14.8663L12.3575 14.8374C12.5439 14.6336 12.5297 14.3173 12.3259 14.131C12.1221 13.9447 11.8058 13.9588 11.6195 14.1626L11.593 14.1916Z" fill="black"/>
<path d="M16.4888 17.3543C15.74 16.4182 15.7842 15.0763 16.593 14.1916L16.6195 14.1626C16.8058 13.9588 17.1221 13.9447 17.3259 14.131C17.5297 14.3173 17.5439 14.6336 17.3575 14.8374L17.3311 14.8663C16.8546 15.3875 16.8285 16.1781 17.2697 16.7296C17.9808 17.6185 17.9808 18.8815 17.2697 19.7704L17.2361 19.8123C17.0636 20.028 16.749 20.0629 16.5334 19.8904C16.3177 19.7179 16.2828 19.4033 16.4553 19.1877L16.4888 19.1457C16.9077 18.6221 16.9077 17.8779 16.4888 17.3543Z" fill="black"/>
</svg>
