<svg width="24" height="24" viewBox="0 0 24 24" fill="none" xmlns="http://www.w3.org/2000/svg">
<path fill-rule="evenodd" clip-rule="evenodd" d="M2.90018 4.75C2.60805 4.74998 2.33964 4.74996 2.11638 4.7706C1.87485 4.79292 1.61192 4.84424 1.35918 4.99371C1.10547 5.14376 0.893758 5.35547 0.743709 5.60918C0.594241 5.86192 0.542917 6.12485 0.520597 6.36638C0.499965 6.58964 0.499982 6.85787 0.500001 7.15V13.8498C0.499982 14.142 0.499965 14.4104 0.520597 14.6336C0.542917 14.8752 0.594241 15.1381 0.743709 15.3908C0.893758 15.6445 1.10547 15.8563 1.35918 16.0063C1.61192 16.1558 1.87485 16.2071 2.11638 16.2294C2.33968 16.2501 2.60797 16.25 2.90016 16.25L4.98063 16.25C4.91947 15.747 4.96989 15.2339 5.13058 14.75H4.00001V13.1C4.00001 12.54 4.00001 12.2599 4.109 12.046C4.20487 11.8579 4.35785 11.7049 4.54602 11.609C4.75993 11.5 5.03995 11.5 5.60001 11.5H18.4C18.9601 11.5 19.2401 11.5 19.454 11.609C19.6422 11.7049 19.7951 11.8579 19.891 12.046C20 12.2599 20 12.54 20 13.1V14.75H18.4677C18.4215 15.0253 18.2979 15.2908 18.0956 15.5121L18.0691 15.5411C17.9249 15.6988 17.9171 15.938 18.0505 16.1049C18.0887 16.1525 18.1253 16.2009 18.1605 16.25L21.0996 16.25C21.3918 16.25 21.6601 16.2501 21.8834 16.2294C22.1249 16.2071 22.3878 16.1558 22.6406 16.0063C22.8943 15.8563 23.106 15.6445 23.256 15.3908C23.4055 15.1381 23.4568 14.8752 23.4792 14.6336C23.4998 14.4103 23.4998 14.142 23.4997 13.8498V7.15016C23.4998 6.85797 23.4998 6.58968 23.4792 6.36638C23.4568 6.12485 23.4055 5.86192 23.256 5.60918C23.106 5.35547 22.8943 5.14376 22.6406 4.99371C22.3878 4.84424 22.1249 4.79292 21.8834 4.7706C21.6601 4.74996 21.3919 4.74998 21.0998 4.75H2.90018ZM19.6782 6.75001C19.264 6.75001 18.9282 7.08579 18.9282 7.50001C18.9282 7.91422 19.264 8.25001 19.6782 8.25001H20.7015C21.1157 8.25001 21.4515 7.91422 21.4515 7.50001C21.4515 7.08579 21.1157 6.75001 20.7015 6.75001H19.6782Z" fill="black"/>
<path d="M13.4677 14.75H15.1306C14.9699 15.2339 14.9195 15.747 14.9806 16.25H13.1605C13.1253 16.2009 13.0887 16.1525 13.0505 16.1049C12.9171 15.938 12.9249 15.6988 13.0691 15.5411L13.0956 15.5121C13.2979 15.2908 13.4215 15.0253 13.4677 14.75Z" fill="black"/>
<path d="M9.98063 16.25C9.91947 15.747 9.96989 15.2339 10.1306 14.75H8.46773C8.42147 15.0253 8.29794 15.2908 8.09559 15.5121L8.06913 15.5411C7.92494 15.6988 7.91705 15.938 8.05054 16.1049C8.08865 16.1525 8.12531 16.2009 8.16052 16.25H9.98063Z" fill="black"/>
<path d="M6.29359 17.5104C5.46782 16.4782 5.5166 14.9985 6.40854 14.0229L6.435 13.9939C6.71449 13.6882 7.18889 13.667 7.4946 13.9465C7.8003 14.226 7.82155 14.7004 7.54206 15.0061L7.5156 15.035C7.12216 15.4653 7.10064 16.1181 7.46489 16.5734C8.24905 17.5536 8.24905 18.9464 7.46489 19.9266L7.43136 19.9685C7.1726 20.292 6.70063 20.3444 6.37718 20.0857C6.05374 19.8269 6.0013 19.3549 6.26005 19.0315L6.29359 18.9896C6.63949 18.5572 6.63949 17.9428 6.29359 17.5104Z" fill="black"/>
<path d="M11.4085 14.0229C10.5166 14.9985 10.4678 16.4782 11.2936 17.5104C11.6395 17.9428 11.6395 18.5572 11.2936 18.9896L11.2601 19.0315C11.0013 19.3549 11.0537 19.8269 11.3772 20.0857C11.7006 20.3444 12.1726 20.292 12.4314 19.9685L12.4649 19.9266C13.2491 18.9464 13.2491 17.5536 12.4649 16.5734C12.1006 16.1181 12.1222 15.4653 12.5156 15.035L12.5421 15.0061C12.8215 14.7004 12.8003 14.226 12.4946 13.9465C12.1889 13.667 11.7145 13.6882 11.435 13.9939L11.4085 14.0229Z" fill="black"/>
<path d="M16.2936 17.5104C15.4678 16.4782 15.5166 14.9985 16.4085 14.0229L16.435 13.9939C16.7145 13.6882 17.1889 13.667 17.4946 13.9465C17.8003 14.226 17.8216 14.7004 17.5421 15.0061L17.5156 15.035C17.1222 15.4653 17.1006 16.1181 17.4649 16.5734C18.2491 17.5536 18.2491 18.9464 17.4649 19.9266L17.4314 19.9685C17.1726 20.292 16.7006 20.3444 16.3772 20.0857C16.0537 19.8269 16.0013 19.3549 16.2601 19.0315L16.2936 18.9896C16.6395 18.5572 16.6395 17.9428 16.2936 17.5104Z" fill="black"/>
</svg>
