<svg width="24" height="24" viewBox="0 0 24 24" fill="none" xmlns="http://www.w3.org/2000/svg">
<path d="M19.6784 5.25C19.5403 5.25 19.4284 5.36193 19.4284 5.5C19.4284 5.63807 19.5403 5.75 19.6784 5.75L20.7016 5.75C20.8397 5.75 20.9516 5.63807 20.9516 5.5C20.9516 5.36193 20.8397 5.25 20.7016 5.25L19.6784 5.25Z" fill="black"/>
<path fill-rule="evenodd" clip-rule="evenodd" d="M2.8393 3.25H21.1604C21.4314 3.25 21.6499 3.25 21.8269 3.26445C22.0091 3.27934 22.1691 3.3108 22.3172 3.38624C22.5524 3.50608 22.7437 3.69731 22.8635 3.93251C22.9389 4.08058 22.9704 4.24063 22.9853 4.42284C22.9997 4.59978 22.9997 4.81826 22.9997 5.08913V11.9107C22.9997 12.1816 22.9997 12.4002 22.9853 12.5772C22.9704 12.7594 22.9389 12.9194 22.8635 13.0675C22.7437 13.3027 22.5524 13.4939 22.3172 13.6138C22.1691 13.6892 22.0091 13.7207 21.8269 13.7355C21.6499 13.75 21.4314 13.75 21.1604 13.75H2.83929C2.56835 13.75 2.34981 13.75 2.17284 13.7355C1.99063 13.7207 1.83058 13.6892 1.68251 13.6138C1.44731 13.4939 1.25608 13.3027 1.13624 13.0675C1.0608 12.9194 1.02934 12.7594 1.01445 12.5772C0.999996 12.4002 0.999998 12.1816 1 11.9107V5.0893C0.999998 4.81836 0.999996 4.59981 1.01445 4.42284C1.02934 4.24063 1.0608 4.08058 1.13624 3.93251C1.25608 3.69731 1.44731 3.50608 1.68251 3.38624C1.83059 3.3108 1.99063 3.27934 2.17284 3.26445C2.34981 3.25 2.56835 3.25 2.8393 3.25ZM21.1497 13.25H20.25V10.2904C20.25 10.1587 20.25 10.0448 20.2424 9.95124C20.2343 9.85241 20.2165 9.7541 20.1683 9.65951C20.0964 9.51839 19.9816 9.40365 19.8405 9.33175C19.7459 9.28355 19.6476 9.26572 19.5488 9.25764C19.4551 9.24999 19.3414 9.25 19.2096 9.25H4.79036C4.65858 9.25 4.54489 9.24999 4.45124 9.25764C4.35241 9.26572 4.2541 9.28355 4.15951 9.33175C4.01839 9.40365 3.90365 9.51839 3.83175 9.65951C3.78355 9.7541 3.76572 9.85241 3.75764 9.95124C3.74999 10.0449 3.75 10.1586 3.75 10.2904L3.75 13.25H2.85C2.56585 13.25 2.36777 13.2498 2.21356 13.2372C2.06227 13.2248 1.97535 13.2018 1.90951 13.1683C1.76839 13.0963 1.65365 12.9816 1.58175 12.8405C1.5482 12.7747 1.52516 12.6877 1.51279 12.5364C1.50019 12.3822 1.5 12.1842 1.5 11.9V5.1C1.5 4.81585 1.50019 4.61777 1.51279 4.46356C1.52516 4.31227 1.5482 4.22535 1.58175 4.15951C1.65365 4.01839 1.76839 3.90365 1.90951 3.83175C1.97535 3.7982 2.06227 3.77516 2.21356 3.76279C2.36777 3.75019 2.56585 3.75 2.85 3.75H21.1497C21.4339 3.75 21.632 3.75019 21.7862 3.76279C21.9375 3.77516 22.0244 3.7982 22.0902 3.83175C22.2313 3.90365 22.3461 4.01839 22.418 4.15951C22.4515 4.22535 22.4746 4.31227 22.4869 4.46356C22.4995 4.61777 22.4997 4.81585 22.4997 5.1V11.9C22.4997 12.1842 22.4995 12.3822 22.4869 12.5364C22.4746 12.6877 22.4515 12.7747 22.418 12.8405C22.3461 12.9816 22.2313 13.0963 22.0902 13.1683C22.0244 13.2018 21.9375 13.2248 21.7862 13.2372C21.632 13.2498 21.4339 13.25 21.1497 13.25ZM19.75 13.25H4.25V10.3C4.25 10.1559 4.25019 10.0628 4.25598 9.99196C4.26153 9.92404 4.27095 9.89886 4.27725 9.8865C4.30122 9.83946 4.33946 9.80122 4.3865 9.77725C4.39886 9.77095 4.42404 9.76153 4.49196 9.75598C4.56279 9.75019 4.65586 9.75 4.8 9.75H19.2C19.3441 9.75 19.4372 9.75019 19.508 9.75598C19.576 9.76153 19.6011 9.77095 19.6135 9.77725C19.6605 9.80122 19.6988 9.83946 19.7228 9.8865C19.729 9.89886 19.7385 9.92404 19.744 9.99196C19.7498 10.0628 19.75 10.1559 19.75 10.3V13.25Z" fill="black"/>
<path d="M6.18402 19.1981C5.5121 18.3582 5.55178 17.1541 6.27756 16.3603L6.30402 16.3313C6.39718 16.2294 6.55531 16.2223 6.65721 16.3155C6.75912 16.4087 6.7662 16.5668 6.67304 16.6687L6.64658 16.6976C6.08697 17.3097 6.05637 18.2381 6.57446 18.8857C7.21253 19.6833 7.21253 20.8167 6.57446 21.6143L6.54092 21.6562C6.45467 21.764 6.29735 21.7815 6.18953 21.6952C6.08171 21.609 6.06423 21.4516 6.15049 21.3438L6.18402 21.3019C6.67601 20.6869 6.67601 19.8131 6.18402 19.1981Z" fill="black"/>
<path d="M11.7776 16.3603C11.0518 17.1541 11.0121 18.3582 11.684 19.1981C12.176 19.8131 12.176 20.6869 11.684 21.3019L11.6505 21.3438C11.5642 21.4516 11.5817 21.609 11.6895 21.6952C11.7973 21.7815 11.9547 21.764 12.0409 21.6562L12.0745 21.6143C12.7125 20.8167 12.7125 19.6833 12.0745 18.8857C11.5564 18.2381 11.587 17.3097 12.1466 16.6976L12.173 16.6687C12.2662 16.5668 12.2591 16.4087 12.1572 16.3155C12.0553 16.2223 11.8972 16.2294 11.804 16.3313L11.7776 16.3603Z" fill="black"/>
<path d="M17.184 19.1981C16.5121 18.3582 16.5518 17.1541 17.2776 16.3603L17.304 16.3313C17.3972 16.2294 17.5553 16.2223 17.6572 16.3155C17.7591 16.4087 17.7662 16.5668 17.673 16.6687L17.6466 16.6976C17.087 17.3097 17.0564 18.2381 17.5745 18.8857C18.2125 19.6833 18.2125 20.8167 17.5745 21.6143L17.5409 21.6562C17.4547 21.764 17.2973 21.7815 17.1895 21.6952C17.0817 21.609 17.0642 21.4516 17.1505 21.3438L17.184 21.3019C17.676 20.6869 17.676 19.8131 17.184 19.1981Z" fill="black"/>
</svg>
