<svg width="24" height="24" viewBox="0 0 24 24" fill="none" xmlns="http://www.w3.org/2000/svg">
<path fill-rule="evenodd" clip-rule="evenodd" d="M2.90042 4.75C2.60829 4.74998 2.33988 4.74996 2.11662 4.7706C1.8751 4.79292 1.61217 4.84424 1.35943 4.99371C1.10571 5.14376 0.894002 5.35547 0.743953 5.60918C0.594485 5.86192 0.543161 6.12485 0.520841 6.36638C0.500209 6.58964 0.500226 6.85787 0.500245 7.15V13.8498C0.500226 14.142 0.500209 14.4104 0.520841 14.6336C0.543161 14.8752 0.594485 15.1381 0.743953 15.3908C0.894002 15.6445 1.10571 15.8563 1.35943 16.0063C1.61217 16.1558 1.8751 16.2071 2.11662 16.2294C2.33993 16.2501 2.60822 16.25 2.90041 16.25L4.98087 16.25C4.91972 15.747 4.97013 15.2339 5.13083 14.75H4.00025V13.1C4.00025 12.54 4.00025 12.2599 4.10925 12.046C4.20512 11.8579 4.3581 11.7049 4.54626 11.609C4.76017 11.5 5.0402 11.5 5.60025 11.5H18.4003C18.9603 11.5 19.2403 11.5 19.4542 11.609C19.6424 11.7049 19.7954 11.8579 19.8913 12.046C20.0003 12.2599 20.0003 12.54 20.0003 13.1V14.75H18.468C18.4217 15.0253 18.2982 15.2908 18.0958 15.5121L18.0694 15.5411C17.9252 15.6988 17.9173 15.938 18.0508 16.1049C18.0889 16.1525 18.1256 16.2009 18.1608 16.25L21.0998 16.25C21.392 16.25 21.6603 16.2501 21.8836 16.2294C22.1251 16.2071 22.3881 16.1558 22.6408 16.0063C22.8945 15.8563 23.1062 15.6445 23.2563 15.3908C23.4058 15.1381 23.4571 14.8752 23.4794 14.6336C23.5 14.4103 23.5 14.142 23.5 13.8498V7.15016C23.5 6.85797 23.5 6.58968 23.4794 6.36638C23.4571 6.12485 23.4058 5.86192 23.2563 5.60918C23.1062 5.35547 22.8945 5.14376 22.6408 4.99371C22.3881 4.84424 22.1251 4.79292 21.8836 4.7706C21.6604 4.74996 21.3921 4.74998 21.1 4.75H2.90042ZM19.6785 6.75001C19.2643 6.75001 18.9285 7.08579 18.9285 7.50001C18.9285 7.91422 19.2643 8.25001 19.6785 8.25001H20.7017C21.1159 8.25001 21.4517 7.91422 21.4517 7.50001C21.4517 7.08579 21.1159 6.75001 20.7017 6.75001H19.6785Z" fill="black"/>
<path d="M13.468 14.75H15.1308C14.9701 15.2339 14.9197 15.747 14.9809 16.25H13.1608C13.1256 16.2009 13.0889 16.1525 13.0508 16.1049C12.9173 15.938 12.9252 15.6988 13.0694 15.5411L13.0958 15.5121C13.2982 15.2908 13.4217 15.0253 13.468 14.75Z" fill="black"/>
<path d="M9.98087 16.25C9.91972 15.747 9.97013 15.2339 10.1308 14.75H8.46797C8.42172 15.0253 8.29818 15.2908 8.09583 15.5121L8.06937 15.5411C7.92518 15.6988 7.9173 15.938 8.05079 16.1049C8.08889 16.1525 8.12555 16.2009 8.16077 16.25H9.98087Z" fill="black"/>
<path d="M6.29383 17.5104C5.46807 16.4782 5.51684 14.9985 6.40878 14.0229L6.43524 13.9939C6.71474 13.6882 7.18913 13.667 7.49484 13.9465C7.80054 14.226 7.82179 14.7004 7.5423 15.0061L7.51584 15.035C7.1224 15.4653 7.10089 16.1181 7.46514 16.5734C8.2493 17.5536 8.2493 18.9464 7.46514 19.9266L7.4316 19.9685C7.17284 20.292 6.70087 20.3444 6.37743 20.0857C6.05398 19.8269 6.00154 19.3549 6.2603 19.0315L6.29383 18.9896C6.63973 18.5572 6.63973 17.9428 6.29383 17.5104Z" fill="black"/>
<path d="M11.4088 14.0229C10.5168 14.9985 10.4681 16.4782 11.2938 17.5104C11.6397 17.9428 11.6397 18.5572 11.2938 18.9896L11.2603 19.0315C11.0015 19.3549 11.054 19.8269 11.3774 20.0857C11.7009 20.3444 12.1728 20.292 12.4316 19.9685L12.4651 19.9266C13.2493 18.9464 13.2493 17.5536 12.4651 16.5734C12.1009 16.1181 12.1224 15.4653 12.5158 15.035L12.5423 15.0061C12.8218 14.7004 12.8005 14.226 12.4948 13.9465C12.1891 13.667 11.7147 13.6882 11.4352 13.9939L11.4088 14.0229Z" fill="black"/>
<path d="M16.2938 17.5104C15.4681 16.4782 15.5168 14.9985 16.4088 14.0229L16.4352 13.9939C16.7147 13.6882 17.1891 13.667 17.4948 13.9465C17.8005 14.226 17.8218 14.7004 17.5423 15.0061L17.5158 15.035C17.1224 15.4653 17.1009 16.1181 17.4651 16.5734C18.2493 17.5536 18.2493 18.9464 17.4651 19.9266L17.4316 19.9685C17.1728 20.292 16.7009 20.3444 16.3774 20.0857C16.054 19.8269 16.0015 19.3549 16.2603 19.0315L16.2938 18.9896C16.6397 18.5572 16.6397 17.9428 16.2938 17.5104Z" fill="black"/>
</svg>
