<svg width="24" height="24" viewBox="0 0 24 24" fill="none" xmlns="http://www.w3.org/2000/svg">
<path fill-rule="evenodd" clip-rule="evenodd" d="M15.3509 5.21587L6.19126 3.90735C5.72387 3.84058 5.25232 3.99776 4.91847 4.33162L3.97944 5.27064C3.50578 5.74431 3.62266 6.54064 4.21245 6.85822L10.3849 10.1819L6.63438 13.9324L3.27099 13.7554C2.84635 13.7331 2.43218 13.892 2.13149 14.1927L1.8888 14.4354C1.39905 14.9251 1.54342 15.7524 2.17011 16.0473L6.17186 17.9305L8.05504 21.9322C8.34995 22.5589 9.17723 22.7033 9.66697 22.2135L9.90967 21.9708C10.2103 21.6702 10.3693 21.256 10.3469 20.8313L10.1699 17.468L13.9463 13.6916L17.5945 20.2584C17.9172 20.8392 18.706 20.9497 19.1758 20.4799L20.1109 19.5447C20.4535 19.2022 20.6095 18.7153 20.5299 18.2375L18.9399 8.69794L21.2496 6.38831C21.7382 5.89971 22.0712 5.27741 22.2067 4.59984L22.4415 3.42587C22.6514 2.37629 21.7261 1.45091 20.6765 1.66082L19.5025 1.89562C18.8249 2.03113 18.2026 2.36417 17.714 2.85278L15.3509 5.21587ZM6.04984 4.8973C5.89404 4.87504 5.73686 4.92744 5.62558 5.03872L4.68655 5.97775L11.1232 9.44363L14.467 6.09976L6.04984 4.8973ZM18.071 9.5669L19.5435 18.4019C19.57 18.5612 19.518 18.7235 19.4038 18.8376L18.4687 19.7728L14.6817 12.9562L18.071 9.5669ZM3.21843 14.754C3.07688 14.7466 2.93883 14.7996 2.8386 14.8998L2.5959 15.1425L6.92339 17.1789L8.95986 21.5064L9.20256 21.2637C9.30279 21.1635 9.35576 21.0255 9.34831 20.8839L9.14789 17.0758L20.5425 5.6812C20.8915 5.3322 21.1293 4.8877 21.2261 4.40373L21.4609 3.22975C21.5309 2.87989 21.2224 2.57143 20.8726 2.6414L19.6986 2.8762C19.2146 2.97299 18.7701 3.21088 18.4211 3.55988L7.02657 14.9545L3.21843 14.754Z" fill="black"/>
</svg>
