<svg width="24" height="24" viewBox="0 0 24 24" fill="none" xmlns="http://www.w3.org/2000/svg">
<path fill-rule="evenodd" clip-rule="evenodd" d="M8.96823 1C8.1309 1 7.53034 1.80717 7.77094 2.60918L9.68819 9.00001H5.33589L3.15727 6.57933C2.82539 6.21058 2.3526 6.00001 1.8565 6.00001H1.51328C0.647522 6.00001 0.0439207 6.85884 0.337166 7.67341L1.80475 11.75L0.337167 15.8266C0.0439218 16.6412 0.647523 17.5 1.51327 17.5H1.8565C2.3526 17.5 2.82539 17.2894 3.15727 16.9207L5.33589 14.5H9.73048L7.75717 21.4066C7.52902 22.2051 8.1286 23 8.95907 23H10.2816C10.8468 23 11.3771 22.7271 11.7056 22.2672L17.2536 14.5H19.8935C20.6339 14.5 21.3577 14.2809 21.9737 13.8702L22.9698 13.2061C24.0088 12.5134 24.0088 10.9866 22.9698 10.2939L21.9737 9.62983C21.3577 9.21916 20.6339 9.00001 19.8935 9.00001H17.1712L11.6962 1.7C11.3657 1.25934 10.847 1 10.2962 1L8.96823 1ZM19.8935 13C20.3377 13 20.772 12.8685 21.1416 12.6221L22.1378 11.958C22.2862 11.8591 22.2862 11.641 22.1378 11.542L21.1416 10.8779C20.772 10.6315 20.3377 10.5 19.8935 10.5L4.66784 10.5L2.04232 7.58277C1.99773 7.53322 1.93533 7.50367 1.8691 7.50033L3.39898 11.75L1.8691 15.9997C1.93533 15.9964 1.99773 15.9668 2.04232 15.9173L4.66784 13L19.8935 13ZM15.4102 14.5L10.485 21.3953C10.4381 21.461 10.3623 21.5 10.2816 21.5H9.29051L11.2905 14.5H15.4102ZM11.2542 9L9.30423 2.5L10.2962 2.5C10.3749 2.5 10.449 2.53705 10.4962 2.6L15.2962 9L11.2542 9Z" fill="black"/>
</svg>
