<svg width="24" height="24" viewBox="0 0 24 24" fill="none" xmlns="http://www.w3.org/2000/svg">
<path fill-rule="evenodd" clip-rule="evenodd" d="M4.56578 3.97753C5.01091 3.53239 5.63965 3.32282 6.26283 3.41184L15.1731 4.68474L17.3574 2.50048C17.9158 1.94208 18.627 1.56145 19.4014 1.40658L20.5753 1.17179C21.9748 0.891898 23.2086 2.12574 22.9287 3.52518L22.6939 4.69916C22.5391 5.47352 22.1584 6.18472 21.6 6.74312L19.476 8.86717L21.0239 18.1548C21.1301 18.7919 20.9221 19.441 20.4653 19.8978L19.5302 20.8329C18.8255 21.5376 17.6423 21.3719 17.1583 20.5007L13.8312 14.512L10.6779 17.6653L10.8432 20.8063C10.873 21.3725 10.6611 21.9247 10.2601 22.3257L10.0174 22.5684C9.28283 23.303 8.04192 23.0864 7.59956 22.1464L5.79302 18.3075L1.95413 16.501C1.01411 16.0586 0.79755 14.8177 1.53217 14.0831L1.77486 13.8404C2.17578 13.4395 2.72801 13.2276 3.2942 13.2574L6.43521 13.4227L9.55566 10.3022L3.97626 7.29792C3.09157 6.82155 2.91625 5.62705 3.62675 4.91656L4.56578 3.97753ZM11.0321 8.82573L5.51615 5.85558L5.97999 5.39174L13.4054 6.45251L11.0321 8.82573ZM15.302 13.0412L17.7381 10.6051L19.0511 18.4836L18.5847 18.95L15.302 13.0412ZM19.7936 3.36774L20.9676 3.13295L20.7328 4.30692C20.6553 4.6941 20.465 5.0497 20.1858 5.3289L8.6338 16.8809L8.79772 19.9954L7.29609 16.8044L4.10512 15.3028L7.21959 15.4667L18.7716 3.91469C19.0508 3.63549 19.4064 3.44518 19.7936 3.36774Z" fill="black"/>
</svg>
