<svg width="24" height="24" viewBox="0 0 24 24" fill="none" xmlns="http://www.w3.org/2000/svg">
<path d="M4.65416 0.750001C4.13343 0.749978 3.66954 0.749956 3.28462 0.781406C2.87381 0.81497 2.44403 0.890491 2.02453 1.10423C1.41301 1.41582 0.915821 1.91301 0.604232 2.52454C0.390487 2.94403 0.314968 3.37381 0.281404 3.78462C0.249952 4.16957 0.249975 4.63338 0.250002 5.15416V14.8458C0.249975 15.3666 0.249952 15.8304 0.281404 16.2154C0.314968 16.6262 0.390487 17.056 0.604232 17.4755C0.915821 18.087 1.41301 18.5842 2.02453 18.8958C2.44403 19.1095 2.87381 19.185 3.28462 19.2186C3.35648 19.2245 3.43109 19.2293 3.5083 19.2331C3.64028 19.0529 3.77802 18.8721 3.9099 18.6989L5.39295 16.75H4.7C4.11933 16.75 3.75899 16.749 3.4882 16.7269C3.23372 16.7061 3.16871 16.673 3.15969 16.6683C3.01856 16.5964 2.90365 16.4816 2.83175 16.3405C2.82714 16.3315 2.79389 16.2663 2.7731 16.0118C2.75098 15.741 2.75 15.3807 2.75 14.8V5.20001C2.75 4.61933 2.75098 4.259 2.7731 3.9882C2.79389 3.73372 2.82705 3.66871 2.83166 3.65969C2.90356 3.51857 3.01839 3.40366 3.15951 3.33175C3.16853 3.32715 3.23372 3.29389 3.4882 3.2731C3.75899 3.25098 4.11933 3.25001 4.7 3.25001H19.3C19.8807 3.25001 20.241 3.25098 20.5118 3.2731C20.7663 3.2939 20.8313 3.32706 20.8403 3.33166C20.9814 3.40357 21.0964 3.51839 21.1683 3.65951C21.1729 3.66856 21.2061 3.73377 21.2269 3.9882C21.249 4.259 21.25 4.61933 21.25 5.20001V14.8C21.25 15.3807 21.249 15.741 21.2269 16.0118C21.2061 16.2663 21.173 16.3313 21.1684 16.3403C21.0964 16.4814 20.9816 16.5964 20.8405 16.6683C20.8315 16.6729 20.7663 16.7061 20.5118 16.7269C20.241 16.749 19.8807 16.75 19.3 16.75H19.1544L20.6375 18.6989C20.7581 18.8573 20.8837 19.0222 21.0052 19.1871C21.3259 19.1424 21.6537 19.0597 21.9755 18.8958C22.587 18.5842 23.0842 18.087 23.3958 17.4755C23.6095 17.056 23.685 16.6262 23.7186 16.2154C23.7501 15.8304 23.75 15.3666 23.75 14.8459V5.15414C23.75 4.63336 23.7501 4.16957 23.7186 3.78462C23.685 3.37381 23.6095 2.94403 23.3958 2.52454C23.0842 1.91301 22.587 1.41582 21.9755 1.10423C21.556 0.890491 21.1262 0.81497 20.7154 0.781406C20.3305 0.749956 19.8667 0.749978 19.346 0.750001H4.65416Z" fill="black"/>
<path fill-rule="evenodd" clip-rule="evenodd" d="M11.0182 13.4775C11.4457 12.9157 11.6595 12.6348 11.9197 12.5338C12.1477 12.4452 12.3999 12.4452 12.6279 12.5338C12.8881 12.6348 13.1018 12.9157 13.5293 13.4775L18.6276 20.1771C19.2627 21.0116 19.5802 21.4289 19.5766 21.779C19.5734 22.0836 19.4349 22.3704 19.1997 22.5593C18.9293 22.7764 18.4102 22.7764 17.3721 22.7764H7.17548C6.13735 22.7764 5.61829 22.7764 5.3479 22.5593C5.11267 22.3704 4.97412 22.0836 4.97098 21.779C4.96737 21.4289 5.28488 21.0116 5.91992 20.1771L11.0182 13.4775ZM15.5532 20.2565L12.2738 15.947L8.99437 20.2565H15.5532Z" fill="black"/>
</svg>
