<svg width="24" height="24" viewBox="0 0 24 24" fill="none" xmlns="http://www.w3.org/2000/svg">
<path fill-rule="evenodd" clip-rule="evenodd" d="M15.3517 5.21587L6.192 3.90735C5.7246 3.84058 5.25305 3.99776 4.9192 4.33162L3.98017 5.27064C3.50651 5.74431 3.62339 6.54064 4.21318 6.85822L10.3857 10.1819L6.63511 13.9324L3.27172 13.7554C2.84708 13.7331 2.43291 13.892 2.13222 14.1927L1.88953 14.4354C1.39978 14.9251 1.54416 15.7524 2.17084 16.0473L6.17259 17.9305L8.05578 21.9322C8.35069 22.5589 9.17796 22.7033 9.6677 22.2135L9.9104 21.9708C10.2111 21.6702 10.37 21.256 10.3477 20.8313L10.1706 17.468L13.947 13.6916L17.5952 20.2584C17.9179 20.8392 18.7067 20.9497 19.1765 20.4799L20.1117 19.5447C20.4542 19.2022 20.6102 18.7153 20.5306 18.2375L18.9407 8.69794L21.2503 6.38831C21.7389 5.89971 22.0719 5.27741 22.2075 4.59984L22.4422 3.42587C22.6522 2.37629 21.7268 1.45091 20.6772 1.66082L19.5032 1.89562C18.8257 2.03113 18.2034 2.36417 17.7148 2.85278L15.3517 5.21587ZM6.05057 4.8973C5.89478 4.87504 5.73759 4.92744 5.62631 5.03872L4.68728 5.97775L11.1239 9.44363L14.4678 6.09976L6.05057 4.8973ZM18.0717 9.5669L19.5442 18.4019C19.5707 18.5612 19.5187 18.7235 19.4046 18.8376L18.4694 19.7728L14.6824 12.9562L18.0717 9.5669ZM3.21916 14.754C3.07762 14.7466 2.93956 14.7996 2.83933 14.8998L2.59663 15.1425L6.92413 17.1789L8.96059 21.5064L9.20329 21.2637C9.30352 21.1635 9.3565 21.0255 9.34905 20.8839L9.14862 17.0758L20.5432 5.6812C20.8922 5.3322 21.1301 4.8877 21.2269 4.40373L21.4617 3.22975C21.5316 2.87989 21.2232 2.57143 20.8733 2.6414L19.6993 2.8762C19.2154 2.97299 18.7709 3.21088 18.4219 3.55988L7.0273 14.9545L3.21916 14.754Z" fill="black"/>
</svg>
