<svg width="24" height="24" viewBox="0 0 24 24" fill="none" xmlns="http://www.w3.org/2000/svg">
<path fill-rule="evenodd" clip-rule="evenodd" d="M20.1231 4.60484C20.5682 5.04997 20.7778 5.67871 20.6887 6.3019L19.4158 15.2122L21.6001 17.3965C22.1585 17.9549 22.5391 18.6661 22.694 19.4404L22.9288 20.6144C23.2087 22.0138 21.9748 23.2477 20.5754 22.9678L19.4014 22.733C18.6271 22.5781 17.9159 22.1975 17.3575 21.6391L15.2334 19.515L5.94583 21.063C5.30872 21.1692 4.65954 20.9611 4.20282 20.5044L3.26766 19.5692C2.56298 18.8646 2.72869 17.6813 3.59985 17.1973L9.58862 13.8703L6.43528 10.7169L3.29426 10.8822C2.72807 10.912 2.17584 10.7001 1.77493 10.2992L1.53223 10.0565C0.797617 9.32189 1.01418 8.08099 1.9542 7.63862L5.79309 5.83209L7.59963 1.9932C8.04199 1.05317 9.2829 0.836613 10.0175 1.57123L10.2602 1.81393C10.6611 2.21484 10.873 2.76707 10.8432 3.33326L10.6779 6.47427L13.7984 9.59472L16.8027 4.01532C17.279 3.13063 18.4735 2.95531 19.184 3.66581L20.1231 4.60484ZM15.2749 11.0712L18.245 5.55521L18.7088 6.01905L17.6481 13.4444L15.2749 11.0712ZM11.0594 15.3411L13.4955 17.7771L5.61703 19.0902L5.15059 18.6237L11.0594 15.3411ZM20.7328 19.8327L20.9676 21.0066L19.7937 20.7718C19.4065 20.6944 19.0509 20.5041 18.7717 20.2249L7.21966 8.67286L4.10519 8.83678L7.29615 7.33515L8.79779 4.14419L8.63387 7.25865L20.1859 18.8107C20.4651 19.0899 20.6554 19.4455 20.7328 19.8327Z" fill="black"/>
</svg>
