<svg width="24" height="24" viewBox="0 0 24 24" fill="none" xmlns="http://www.w3.org/2000/svg">
<path fill-rule="evenodd" clip-rule="evenodd" d="M15.0841 4.42272L6.29838 3.16761C5.5973 3.06746 4.88997 3.30323 4.38919 3.80401L3.45017 4.74304C2.62125 5.57195 2.82579 6.96553 3.85793 7.5213L9.14087 10.366L6.34059 13.1662L3.30555 13.0065C2.66859 12.973 2.04733 13.2114 1.5963 13.6624L1.35361 13.9051C0.496553 14.7622 0.749217 16.2099 1.8459 16.726L5.60336 18.4942L7.37157 22.2516C7.88766 23.3483 9.33539 23.601 10.1924 22.7439L10.4351 22.5012C10.8862 22.0502 11.1246 21.429 11.091 20.792L10.9319 17.7674L13.7735 14.9258L16.9399 20.6254C17.5046 21.6418 18.885 21.8351 19.7071 21.013L20.6423 20.0778C21.1561 19.564 21.3902 18.8337 21.2707 18.1169L19.7438 8.95543L21.7807 6.91857C22.374 6.32527 22.7784 5.56962 22.9429 4.74686L23.1777 3.57288C23.4926 1.99851 22.1045 0.610441 20.5301 0.925315L19.3562 1.16011C18.5334 1.32466 17.7778 1.72907 17.1845 2.32238L15.0841 4.42272ZM6.06857 5.66016L5.93071 5.79802L10.9865 8.52036L12.8744 6.63243L6.06857 5.66016ZM17.5714 11.1278L18.7836 18.401L18.6425 18.5421L15.612 13.0872L17.5714 11.1278ZM5.36338 15.6183L7.48219 16.6154L8.47927 18.7342L8.37679 16.7869L20.0129 5.1508C20.2572 4.9065 20.4237 4.59535 20.4915 4.25657L20.6527 3.45031L19.8465 3.61156C19.5077 3.67932 19.1965 3.84584 18.9522 4.09014L7.32106 15.7213L5.36338 15.6183Z" fill="black"/>
</svg>
