<svg width="24" height="24" viewBox="0 0 24 24" fill="none" xmlns="http://www.w3.org/2000/svg">
<path d="M11.3028 2.72852C11.0668 2.41376 10.6963 2.22852 10.3028 2.22852L8.97486 2.22852C8.47246 2.22852 8.11212 2.71282 8.25649 3.19403L9.76667 8.22799L15.4274 8.22799L11.3028 2.72852Z" fill="black"/>
<path d="M22.1974 10.7739C21.6635 10.4179 21.0362 10.228 20.3946 10.228L4.61424 10.228L2.28666 7.64181C2.25703 7.60888 2.22582 7.57773 2.19321 7.54841C2.10612 7.47011 2.00899 7.40493 1.90494 7.35425C1.73623 7.27207 1.54932 7.22801 1.35754 7.22801H1.01431C0.624726 7.22801 0.323613 7.51787 0.271633 7.86898C0.254309 7.98601 0.264658 8.10985 0.30864 8.23203C0.30864 8.23204 0.30864 8.23202 0.30864 8.23203L1.83719 12.478L0.308647 16.724C0.176923 17.0899 0.346803 17.4707 0.658489 17.639C0.763126 17.6955 0.88375 17.728 1.0143 17.728H1.35753C1.71189 17.728 2.0496 17.5776 2.28665 17.3142L4.61423 14.728L20.3946 14.728C21.0362 14.728 21.6635 14.5381 22.1973 14.1822L23.1935 13.5181C23.7023 13.1789 23.8623 12.5597 23.6735 12.0444C23.5869 11.808 23.4269 11.5935 23.1935 11.438" fill="black"/>
<path d="M15.5747 16.728L11.3054 22.7051C11.0707 23.0336 10.6919 23.2285 10.2882 23.2285H8.9657C8.46742 23.2285 8.10767 22.7516 8.24456 22.2725L9.8287 16.728L15.5747 16.728Z" fill="black"/>
</svg>
