<svg width="24" height="24" viewBox="0 0 24 24" fill="none" xmlns="http://www.w3.org/2000/svg">
<path fill-rule="evenodd" clip-rule="evenodd" d="M6.15882 4.15499C5.76933 4.09935 5.37637 4.23034 5.09816 4.50854L4.15913 5.44757C3.80388 5.80282 3.89154 6.40007 4.33389 6.63826L10.8003 10.1201L6.73238 14.188L3.2578 14.0052C2.90393 13.9865 2.55879 14.119 2.30822 14.3696L2.06552 14.6123C1.69821 14.9796 1.80649 15.6 2.27651 15.8212L6.3597 17.7427L8.2812 21.8259C8.50238 22.2959 9.12284 22.4042 9.49014 22.0369L9.73284 21.7942C9.98341 21.5436 10.1159 21.1985 10.0972 20.8446L9.91435 17.37L14.0057 13.2787L17.816 20.1372C18.0579 20.5728 18.6496 20.6556 19.0019 20.3033L19.9371 19.3681C20.2225 19.0827 20.3525 18.6769 20.2862 18.2787L18.6747 8.6097L21.0727 6.21164C21.5264 5.75794 21.8357 5.18009 21.9615 4.55092L22.1963 3.37694C22.3712 2.50229 21.6001 1.73114 20.7255 1.90607L19.5515 2.14087C18.9223 2.2667 18.3445 2.57596 17.8908 3.02966L15.4396 5.48082L6.15882 4.15499ZM14.9977 5.92276L11.1694 9.75103L4.57094 6.19802C4.42349 6.11862 4.39427 5.91954 4.51269 5.80113L5.45171 4.8621C5.61864 4.69517 5.85441 4.61658 6.08811 4.64997L14.9977 5.92276ZM18.2402 9.04419L19.793 18.3609C19.8328 18.5999 19.7548 18.8433 19.5835 19.0146L18.6483 19.9497C18.5309 20.0672 18.3337 20.0396 18.253 19.8944L14.3734 12.911L18.2402 9.04419ZM3.23152 14.5045C3.0192 14.4933 2.81211 14.5728 2.66177 14.7231L2.41908 14.9658C2.29664 15.0882 2.33273 15.2951 2.4894 15.3688L6.73546 17.3669L8.73361 21.613C8.80733 21.7697 9.01415 21.8058 9.13659 21.6833L9.37928 21.4406C9.52963 21.2903 9.60909 21.0832 9.59792 20.8709L9.40334 17.1739L20.7192 5.85808C21.1031 5.47418 21.3648 4.98524 21.4712 4.45286L21.706 3.27889C21.811 2.75409 21.3483 2.2914 20.8235 2.39636L19.6495 2.63116C19.1172 2.73763 18.6282 2.99931 18.2443 3.38321L6.92847 14.699L3.23152 14.5045Z" fill="black"/>
</svg>
