<svg width="24" height="24" viewBox="0 0 24 24" fill="none" xmlns="http://www.w3.org/2000/svg">
<path fill-rule="evenodd" clip-rule="evenodd" d="M4.56504 3.97728C5.01018 3.53215 5.63891 3.32257 6.2621 3.4116L15.1724 4.6845L17.3567 2.50023C17.9151 1.94183 18.6263 1.56121 19.4006 1.40634L20.5746 1.17154C21.974 0.891654 23.2079 2.12549 22.928 3.52494L22.6932 4.69891C22.5383 5.47328 22.1577 6.18447 21.5993 6.74287L19.4753 8.86693L21.0232 18.1545C21.1294 18.7916 20.9213 19.4408 20.4646 19.8975L19.5294 20.8327C18.8248 21.5374 17.6415 21.3717 17.1576 20.5005L13.8305 14.5117L10.6771 17.6651L10.8424 20.8061C10.8722 21.3723 10.6603 21.9245 10.2594 22.3254L10.0167 22.5681C9.2821 23.3027 8.04119 23.0862 7.59883 22.1461L5.79229 18.3073L1.9534 16.5007C1.01338 16.0584 0.796818 14.8174 1.53143 14.0828L1.77413 13.8401C2.17504 13.4392 2.72728 13.2273 3.29346 13.2571L6.43448 13.4224L9.55493 10.302L3.97553 7.29768C3.09083 6.82131 2.91552 5.62681 3.62602 4.91631L4.56504 3.97728ZM11.0314 8.82549L5.51542 5.85534L5.97926 5.3915L13.4046 6.45227L11.0314 8.82549ZM15.3013 13.0409L17.7373 10.6049L19.0504 18.4833L18.584 18.9498L15.3013 13.0409ZM19.7929 3.3675L20.9668 3.1327L20.732 4.30668C20.6546 4.69386 20.4643 5.04946 20.1851 5.32866L8.63307 16.8807L8.79699 19.9952L7.29535 16.8042L4.10439 15.3026L7.21885 15.4665L18.7709 3.91445C19.0501 3.63525 19.4057 3.44493 19.7929 3.3675Z" fill="black"/>
</svg>
