<svg width="24" height="24" viewBox="0 0 24 24" fill="none" xmlns="http://www.w3.org/2000/svg">
<path fill-rule="evenodd" clip-rule="evenodd" d="M11.2953 2C11.0592 1.68524 10.6887 1.5 10.2953 1.5L8.96732 1.5C8.46492 1.5 8.10458 1.9843 8.24895 2.46551L10.3593 9.5L4.60643 9.5L2.27885 6.91379C2.04179 6.6504 1.70409 6.5 1.34973 6.5H1.0065C0.48705 6.5 0.124888 7.01529 0.300835 7.50404L1.82938 11.75L0.300835 15.996C0.124887 16.4847 0.487051 17 1.0065 17H1.34973C1.70409 17 2.04179 16.8496 2.27884 16.5862L4.60643 14H10.3924L8.23702 21.544C8.10013 22.0231 8.45988 22.5 8.95816 22.5H10.2807C10.6844 22.5 11.0632 22.305 11.2978 21.9765L16.9954 14H20.3868C21.0284 14 21.6557 13.8101 22.1895 13.4542L23.1857 12.7901C23.9279 12.2953 23.9279 11.2047 23.1857 10.7099L22.1895 10.0458C21.6557 9.68993 21.0284 9.5 20.3868 9.5H16.9203L11.2953 2ZM16.2953 9.5L10.8813 9.5L8.72786 2.32184C8.67974 2.16143 8.79985 2 8.96732 2L10.2953 2C10.5314 2 10.7537 2.11115 10.8953 2.3L16.2953 9.5ZM16.3809 14L10.891 21.6859C10.7502 21.883 10.5229 22 10.2807 22H8.95816C8.79207 22 8.67215 21.841 8.71778 21.6813L10.9124 14L16.3809 14ZM1.9072 7.24828C1.76497 7.09024 1.56234 7 1.34973 7H1.0065C0.833352 7 0.71263 7.17176 0.771281 7.33468L2.3608 11.75L0.771278 16.1653C0.712631 16.3282 0.833351 16.5 1.0065 16.5H1.34973C1.56234 16.5 1.76496 16.4098 1.9072 16.2517L4.38375 13.5L20.3868 13.5C20.9297 13.5 21.4605 13.3393 21.9122 13.0381L22.9083 12.374C23.3536 12.0772 23.3536 11.4228 22.9083 11.126L21.9122 10.4619C21.4605 10.1607 20.9297 10 20.3868 10L4.38375 10L1.9072 7.24828Z" fill="black"/>
</svg>
