<svg width="24" height="24" viewBox="0 0 24 24" fill="none" xmlns="http://www.w3.org/2000/svg">
<path d="M6.15953 4.15474C5.77004 4.0991 5.37708 4.23009 5.09887 4.5083L4.15985 5.44732C3.8046 5.80257 3.89226 6.39982 4.3346 6.63801L9.42164 9.37718L13.5835 5.21531L6.15953 4.15474Z" fill="black"/>
<path d="M19.5515 2.14062C18.9223 2.26646 18.3445 2.57571 17.8908 3.02941L6.73238 14.1878L3.2578 14.0049C3.21357 14.0026 3.16947 14.0026 3.12568 14.005C2.94238 14.0147 2.76441 14.0647 2.60407 14.1501C2.49624 14.2076 2.39637 14.2812 2.30822 14.3693L2.06552 14.612C1.69821 14.9793 1.80649 15.5998 2.27651 15.8209L6.35967 17.7424L8.2812 21.8256C8.33649 21.9431 8.41674 22.038 8.51175 22.1085C8.74409 22.281 9.06469 22.3076 9.32449 22.1623C9.38341 22.1293 9.43919 22.0875 9.49012 22.0366L9.73282 21.7939C9.98339 21.5434 10.1158 21.1982 10.0972 20.8443L9.91433 17.3698L21.0727 6.21139C21.5264 5.75769 21.8357 5.17984 21.9615 4.55067L22.1963 3.37669C22.3275 2.72071 21.9265 2.12295 21.3489 1.93886C21.1752 1.88351 20.9855 1.86556 20.7896 1.89466C20.7683 1.89782 20.7469 1.90154 20.7255 1.90583L19.5515 2.14062Z" fill="black"/>
<path d="M18.9783 10.4271L20.2869 18.2785C20.3533 18.6767 20.2232 19.0824 19.9378 19.3679L19.0026 20.303C18.6503 20.6554 18.0587 20.5725 17.8167 20.1369L14.7637 14.6417L18.9783 10.4271Z" fill="black"/>
</svg>
