<svg width="24" height="24" viewBox="0 0 24 24" fill="none" xmlns="http://www.w3.org/2000/svg">
<path d="M11.3028 2.72852C11.0668 2.41376 10.6963 2.22852 10.3028 2.22852L8.97486 2.22852C8.47246 2.22852 8.11212 2.71282 8.25649 3.19403L10.0667 9.22799L16.1774 9.228L11.3028 2.72852Z" fill="black"/>
<path d="M22.1974 10.7739C21.6635 10.4179 21.0362 10.228 20.3946 10.228L4.61424 10.228L2.28666 7.64181C2.25703 7.60888 2.22582 7.57773 2.19321 7.54841C2.06748 7.43537 1.92081 7.34966 1.76261 7.29546C1.63356 7.25125 1.49684 7.22801 1.35754 7.22801H1.01431C0.494862 7.22801 0.1327 7.74331 0.308647 8.23205L1.83718 12.478L0.308648 16.724C0.264661 16.8462 0.254306 16.97 0.271632 17.087C0.311919 17.3592 0.501859 17.5945 0.766654 17.6866C0.843505 17.7133 0.926665 17.728 1.0143 17.728H1.35752C1.71188 17.728 2.04959 17.5776 2.28664 17.3142L4.61423 14.728L20.3946 14.728C21.0362 14.728 21.6635 14.5381 22.1973 14.1822L23.1935 13.5181C23.7501 13.147 23.8893 12.4408 23.611 11.9021C23.5273 11.7402 23.4059 11.5934 23.2467 11.4754C23.2294 11.4626 23.2117 11.4501 23.1935 11.438L22.1974 10.7739Z" fill="black"/>
<path d="M16.289 15.728L11.3054 22.7051C11.0707 23.0336 10.6919 23.2285 10.2882 23.2285H8.9657C8.46742 23.2285 8.10767 22.7516 8.24456 22.2725L10.1144 15.728L16.289 15.728Z" fill="black"/>
</svg>
