<svg width="24" height="24" viewBox="0 0 24 24" fill="none" xmlns="http://www.w3.org/2000/svg">
<path fill-rule="evenodd" clip-rule="evenodd" d="M10.296 0.75C10.9255 0.75 11.5182 1.04639 11.896 1.55L17.296 8.75H19.8933C20.683 8.75 21.455 8.98375 22.1121 9.4218L23.1082 10.0859C24.2957 10.8775 24.2957 12.6225 23.1082 13.4141L22.1121 14.0782C21.455 14.5162 20.683 14.75 19.8933 14.75H17.382L11.9088 22.4125C11.5334 22.9381 10.9272 23.25 10.2813 23.25H8.95882C7.96225 23.25 7.24276 22.2961 7.51653 21.3379L9.3988 14.75H5.92225L4.4194 16.8969C4.04514 17.4316 3.43356 17.75 2.78093 17.75H1.513C0.474098 17.75 -0.250225 16.7194 0.101669 15.7419L1.53877 11.75L0.101672 7.75808C-0.250222 6.78059 0.474097 5.75 1.513 5.75H2.78093C3.43356 5.75 4.04514 6.06842 4.4194 6.60308L5.92225 8.75L9.35192 8.75L7.53123 2.68102C7.24251 1.7186 7.96318 0.75 8.96797 0.75L10.296 0.75ZM4.88093 10.75L2.78093 7.75L2.22442 7.75L3.66442 11.75L2.22442 15.75L2.78093 15.75L4.88093 12.75L19.8933 12.75C20.2881 12.75 20.6741 12.6331 21.0027 12.4141L21.9988 11.75L21.0027 11.0859C20.6741 10.8669 20.2881 10.75 19.8933 10.75L4.88093 10.75ZM11.44 8.75L9.63999 2.75L10.296 2.75L14.796 8.75L11.44 8.75ZM10.2813 21.25L14.9242 14.75L11.4788 14.75L9.62169 21.25L10.2813 21.25Z" fill="black"/>
</svg>
