<svg width="24" height="24" viewBox="0 0 24 24" fill="none" xmlns="http://www.w3.org/2000/svg">
<path fill-rule="evenodd" clip-rule="evenodd" d="M17.0462 9.25L11.4962 1.85C11.213 1.47229 10.7684 1.25 10.2962 1.25L8.96826 1.25C8.2984 1.25 7.81795 1.89574 8.01044 2.53735L10.0242 9.25L4.71872 9.25L2.46562 6.74655C2.18115 6.43048 1.7759 6.25 1.35067 6.25H1.00745C0.314845 6.25 -0.168037 6.93706 0.0665596 7.58872L1.56462 11.75L0.0665588 15.9113C-0.168037 16.5629 0.314846 17.25 1.00745 17.25H1.35067C1.7759 17.25 2.18115 17.0695 2.46561 16.7534L4.71872 14.25H10.062L7.99759 21.4753C7.81507 22.1141 8.29473 22.75 8.95911 22.75H10.2816C10.7661 22.75 11.2207 22.5161 11.5022 22.1219L17.125 14.25H20.3877C21.0787 14.25 21.7542 14.0455 22.3292 13.6622L23.3253 12.9981C24.2159 12.4043 24.2159 11.0957 23.3253 10.5019L22.3292 9.83782C21.7542 9.45453 21.0787 9.25 20.3877 9.25H17.0462ZM10.6962 2.45C10.6018 2.3241 10.4536 2.25 10.2962 2.25L8.96826 2.25L11.0683 9.25L15.7962 9.25L10.6962 2.45ZM20.3877 10.25C20.8813 10.25 21.3638 10.3961 21.7745 10.6699L22.7706 11.334C23.0675 11.5319 23.0675 11.9681 22.7706 12.166L21.7745 12.8301C21.3638 13.1039 20.8813 13.25 20.3877 13.25L4.27335 13.25L1.72232 16.0845C1.6275 16.1898 1.49242 16.25 1.35067 16.25L1.00745 16.25L2.62745 11.75L1.00745 7.25H1.35067C1.49242 7.25 1.6275 7.31016 1.72232 7.41552L4.27335 10.25L20.3877 10.25ZM15.8961 14.25L10.6885 21.5406C10.5946 21.672 10.4431 21.75 10.2816 21.75H8.95911L11.102 14.25L15.8961 14.25Z" fill="black"/>
</svg>
