<svg width="24" height="24" viewBox="0 0 24 24" fill="none" xmlns="http://www.w3.org/2000/svg">
<path d="M19.9468 6.19469C20.0025 5.8052 19.8715 5.41224 19.5933 5.13403L18.6542 4.195C18.299 3.83976 17.7017 3.92741 17.4636 4.36976L14.7244 9.4568L18.8863 13.6187L19.9468 6.19469Z" fill="black"/>
<path d="M21.9609 19.5866C21.8351 18.9575 21.5259 18.3796 21.0721 17.9259L9.91377 6.76753L10.0966 3.29296C10.099 3.24872 10.0989 3.20463 10.0966 3.16083C10.0869 2.97754 10.0369 2.79957 9.95142 2.63922C9.89394 2.53139 9.82041 2.43153 9.73225 2.34337L9.48956 2.10068C9.12225 1.73337 8.50179 1.84165 8.28061 2.31166L6.35911 6.39483L2.27592 8.31636C2.15841 8.37165 2.06352 8.4519 1.99301 8.54691C1.8206 8.77925 1.79401 9.09985 1.93927 9.35965C1.97222 9.41857 2.01401 9.47435 2.06494 9.52528L2.30763 9.76797C2.55821 10.0185 2.90335 10.151 3.25722 10.1324L6.73179 9.94949L17.8902 21.1079C18.3439 21.5616 18.9217 21.8708 19.5509 21.9967L20.7249 22.2315C21.3808 22.3627 21.9786 21.9617 22.1627 21.384C22.2181 21.2103 22.236 21.0207 22.2069 20.8247C22.2037 20.8034 22.2 20.782 22.1957 20.7606L21.9609 19.5866Z" fill="black"/>
<path d="M13.6745 19.0135L5.82307 20.322C5.42487 20.3884 5.01914 20.2584 4.73369 19.9729L3.79853 19.0378C3.44619 18.6854 3.52905 18.0938 3.96462 17.8518L9.45989 14.7989L13.6745 19.0135Z" fill="black"/>
</svg>
