<svg width="24" height="24" viewBox="0 0 24 24" fill="none" xmlns="http://www.w3.org/2000/svg">
<path d="M4.68869 1.75C4.13827 1.75 3.70971 1.75 3.36605 1.77808C3.01708 1.80659 2.73355 1.86529 2.47852 1.99524C2.05516 2.21095 1.71095 2.55516 1.49524 2.97852C1.36529 3.23355 1.30659 3.51708 1.27808 3.86605C1.25 4.20974 1.25 4.63821 1.25 5.18869V14.8113C1.25 15.3618 1.25 15.7903 1.27808 16.134C1.30659 16.4829 1.36529 16.7664 1.49524 17.0215C1.71095 17.4448 2.05516 17.789 2.47852 18.0048C2.73355 18.1347 3.01708 18.1934 3.36605 18.2219C3.70974 18.25 4.1382 18.25 4.68868 18.25H6.13238L6.51287 17.75H4.7C4.13582 17.75 3.72772 17.7498 3.40676 17.7236C3.08872 17.6976 2.87831 17.6473 2.70552 17.5593C2.37623 17.3915 2.10852 17.1238 1.94074 16.7945C1.8527 16.6217 1.8024 16.4113 1.77642 16.0932C1.75019 15.7723 1.75 15.3642 1.75 14.8V5.2C1.75 4.63582 1.75019 4.22772 1.77642 3.90676C1.8024 3.58872 1.8527 3.37831 1.94074 3.20552C2.10852 2.87623 2.37623 2.60852 2.70552 2.44074C2.87831 2.3527 3.08872 2.3024 3.40676 2.27642C3.72772 2.25019 4.13582 2.25 4.7 2.25H19.3C19.8642 2.25 20.2723 2.25019 20.5932 2.27642C20.9113 2.3024 21.1217 2.3527 21.2945 2.44074C21.6238 2.60852 21.8915 2.87623 22.0593 3.20552C22.1473 3.37831 22.1976 3.58872 22.2236 3.90676C22.2498 4.22772 22.25 4.63582 22.25 5.2V14.8C22.25 15.3642 22.2498 15.7723 22.2236 16.0932C22.1976 16.4113 22.1473 16.6217 22.0593 16.7945C21.8915 17.1238 21.6238 17.3915 21.2945 17.5593C21.1217 17.6473 20.9113 17.6976 20.5932 17.7236C20.2723 17.7498 19.8642 17.75 19.3 17.75H18.0345L18.415 18.25H19.3113C19.8618 18.25 20.2903 18.25 20.634 18.2219C20.9829 18.1934 21.2665 18.1347 21.5215 18.0048C21.9448 17.789 22.289 17.4448 22.5048 17.0215C22.6347 16.7664 22.6934 16.4829 22.7219 16.134C22.75 15.7903 22.75 15.3618 22.75 14.8113V5.18868C22.75 4.6382 22.75 4.20974 22.7219 3.86605C22.6934 3.51708 22.6347 3.23355 22.5048 2.97852C22.289 2.55516 21.9448 2.21095 21.5215 1.99524C21.2664 1.86529 20.9829 1.80659 20.634 1.77808C20.2903 1.75 19.8619 1.75 19.3115 1.75H4.68869Z" fill="black"/>
<path fill-rule="evenodd" clip-rule="evenodd" d="M5.91992 20.1771L11.0182 13.4775C11.4457 12.9157 11.6595 12.6348 11.9197 12.5338C12.1477 12.4452 12.3999 12.4452 12.6279 12.5338C12.8881 12.6348 13.1018 12.9157 13.5293 13.4775L18.6276 20.1771C19.2627 21.0116 19.5802 21.4288 19.5766 21.779C19.5734 22.0836 19.4349 22.3704 19.1997 22.5593C18.9293 22.7764 18.4102 22.7764 17.3721 22.7764H7.17548C6.13735 22.7764 5.61828 22.7764 5.3479 22.5593C5.11267 22.3704 4.97412 22.0836 4.97098 21.779C4.96737 21.4288 5.28488 21.0116 5.91992 20.1771ZM11.4106 13.7858L6.31228 20.4854C5.98871 20.9106 5.76748 21.2021 5.62421 21.4306C5.47648 21.6661 5.46671 21.7526 5.46693 21.7737C5.46851 21.926 5.53778 22.0694 5.65539 22.1639C5.67171 22.177 5.74502 22.222 6.01875 22.2474C6.28421 22.2719 6.64652 22.2724 7.17548 22.2724H17.3721C17.901 22.2724 18.2633 22.2719 18.5288 22.2474C18.8025 22.222 18.8758 22.177 18.8922 22.1639C19.0098 22.0694 19.079 21.926 19.0806 21.7737C19.0808 21.7526 19.0711 21.6661 18.9233 21.4306C18.7801 21.2021 18.5588 20.9106 18.2353 20.4854L13.137 13.7858C12.9176 13.4975 12.7728 13.308 12.6518 13.1752C12.5333 13.045 12.4768 13.0146 12.4508 13.0046C12.3368 12.9603 12.2107 12.9603 12.0967 13.0046C12.0707 13.0146 12.0142 13.045 11.8957 13.1752C11.7747 13.308 11.6299 13.4975 11.4106 13.7858Z" fill="black"/>
</svg>
