<svg width="24" height="24" viewBox="0 0 24 24" fill="none" xmlns="http://www.w3.org/2000/svg">
<path fill-rule="evenodd" clip-rule="evenodd" d="M17.4212 8.5L12.0962 1.4C11.6713 0.833437 11.0044 0.5 10.2962 0.5L8.96824 0.5C7.79598 0.5 6.95519 1.63004 7.29204 2.75286L9.01618 8.49999H7.30018L5.87197 6.4597C5.45094 5.85823 4.76292 5.49999 4.02871 5.49999H1.76077C0.548708 5.49999 -0.29632 6.70236 0.114219 7.84275L1.52083 11.75L0.11422 15.6572C-0.296321 16.7976 0.548712 18 1.76077 18H4.0287C4.76291 18 5.45094 17.6418 5.87198 17.0403L7.30018 15H9.06763L7.27642 21.2692C6.957 22.3872 7.79642 23.5 8.95908 23.5H10.2816C11.0082 23.5 11.6901 23.1491 12.1125 22.5578L17.5109 15H19.6426C20.4817 15 21.302 14.7516 22.0001 14.2862L22.9963 13.6221C24.3322 12.7315 24.3322 10.7685 22.9963 9.87788L22.0001 9.21378C21.302 8.74836 20.4817 8.5 19.6426 8.5H17.4212ZM14.2962 8.5L10.1712 3H9.97626L11.6263 8.5H14.2962ZM19.6426 11C19.9881 11 20.3259 11.1023 20.6134 11.2939L21.2975 11.75L20.6134 12.2061C20.3259 12.3977 19.9881 12.5 19.6426 12.5L5.99854 12.5L3.89854 15.5L2.82789 15.5L4.17789 11.75L2.82789 7.99999H3.89854L5.99854 11L19.6426 11ZM10.1529 21L14.4387 15L11.6677 15L9.95338 21H10.1529Z" fill="black"/>
</svg>
