<svg width="24" height="24" viewBox="0 0 24 24" fill="none" xmlns="http://www.w3.org/2000/svg">
<path d="M4.66146 1C4.13434 0.999984 3.67953 0.99997 3.30497 1.03057C2.90963 1.06287 2.51641 1.13419 2.13803 1.32698C1.57354 1.6146 1.1146 2.07355 0.826982 2.63803C0.634187 3.01641 0.562871 3.40963 0.53057 3.80498C0.499967 4.17955 0.499982 4.63431 0.500001 5.16146V14.8385C0.499982 15.3657 0.499967 15.8205 0.53057 16.195C0.562871 16.5904 0.634187 16.9836 0.826982 17.362C1.1146 17.9265 1.57354 18.3854 2.13803 18.673C2.51641 18.8658 2.90963 18.9371 3.30497 18.9694C3.42478 18.9792 3.5528 18.9859 3.68877 18.9904C3.76295 18.8918 3.8373 18.7942 3.90988 18.6989L5.2027 17H4.7C4.12345 17 3.75117 16.9992 3.46784 16.9761C3.19617 16.9539 3.09545 16.9162 3.04601 16.891C2.85785 16.7951 2.70487 16.6422 2.60899 16.454C2.5838 16.4046 2.54612 16.3038 2.52393 16.0322C2.50078 15.7488 2.5 15.3766 2.5 14.8V5.2C2.5 4.62345 2.50078 4.25118 2.52393 3.96784C2.54612 3.69618 2.5838 3.59546 2.60899 3.54601C2.70487 3.35785 2.85785 3.20487 3.04601 3.109C3.09545 3.0838 3.19617 3.04613 3.46784 3.02393C3.75117 3.00078 4.12345 3 4.7 3H19.3C19.8766 3 20.2488 3.00078 20.5322 3.02393C20.8038 3.04613 20.9045 3.0838 20.954 3.109C21.1422 3.20487 21.2951 3.35785 21.391 3.54601C21.4162 3.59546 21.4539 3.69618 21.4761 3.96784C21.4992 4.25118 21.5 4.62345 21.5 5.2V14.8C21.5 15.3766 21.4992 15.7488 21.4761 16.0322C21.4539 16.3038 21.4162 16.4046 21.391 16.454C21.2951 16.6422 21.1422 16.7951 20.954 16.891C20.9045 16.9162 20.8038 16.9539 20.5322 16.9761C20.2562 16.9986 19.8959 16.9999 19.3447 17L20.6375 18.6988C20.7017 18.7832 20.7673 18.8694 20.833 18.9564C21.1817 18.9189 21.5276 18.8434 21.862 18.673C22.4265 18.3854 22.8854 17.9265 23.173 17.362C23.3658 16.9836 23.4371 16.5904 23.4694 16.195C23.5 15.8205 23.5 15.3657 23.5 14.8386V5.16144C23.5 4.6343 23.5 4.17954 23.4694 3.80498C23.4371 3.40963 23.3658 3.01641 23.173 2.63803C22.8854 2.07355 22.4265 1.6146 21.862 1.32698C21.4836 1.13419 21.0904 1.06287 20.695 1.03057C20.3205 0.99997 19.8657 0.999984 19.3386 1H4.66146Z" fill="black"/>
<path fill-rule="evenodd" clip-rule="evenodd" d="M18.6276 20.1771C19.2627 21.0116 19.5802 21.4289 19.5766 21.779C19.5734 22.0836 19.4349 22.3704 19.1997 22.5593C18.9293 22.7764 18.4102 22.7764 17.3721 22.7764H7.17548C6.13735 22.7764 5.61829 22.7764 5.3479 22.5593C5.11267 22.3704 4.97412 22.0836 4.97098 21.779C4.96737 21.4289 5.28488 21.0116 5.91992 20.1771L11.0182 13.4775C11.4457 12.9157 11.6595 12.6348 11.9197 12.5338C12.1477 12.4452 12.3999 12.4452 12.6279 12.5338C12.8881 12.6348 13.1018 12.9157 13.5293 13.4775L18.6276 20.1771ZM12.2738 15.1231L7.98387 20.7605H16.5637L12.2738 15.1231Z" fill="black"/>
</svg>
