<svg width="24" height="24" viewBox="0 0 24 24" fill="none" xmlns="http://www.w3.org/2000/svg">
<path fill-rule="evenodd" clip-rule="evenodd" d="M20.4435 6.26465C20.5214 5.71936 20.338 5.16922 19.9485 4.77973L19.0095 3.8407C18.4174 3.24862 17.422 3.39472 17.025 4.13196L13.8617 10.0066L10.4267 6.57168L10.5979 3.31909C10.624 2.82368 10.4386 2.34047 10.0878 1.98968L9.84509 1.74698C9.2329 1.1348 8.19882 1.31527 7.83018 2.09862L5.98532 6.01894L2.065 7.8638C1.28165 8.23244 1.10118 9.26653 1.71336 9.87871L1.95605 10.1214C2.30685 10.4722 2.79005 10.6576 3.28547 10.6315L6.53728 10.4604L10.0025 13.9256L3.72347 17.414C2.99751 17.8173 2.85941 18.8033 3.44664 19.3906L4.38181 20.3257C4.78144 20.7254 5.34947 20.9074 5.90694 20.8145L15.3222 19.2453L17.5383 21.4614C18.0618 21.9849 18.7285 22.3417 19.4545 22.4869L20.6285 22.7217C21.853 22.9666 22.9326 21.887 22.6877 20.6625L22.4529 19.4885C22.3077 18.7626 21.9509 18.0958 21.4274 17.5723L19.153 15.2979L20.4435 6.26465ZM17.8272 13.9721L14.9691 11.114L18.1864 5.13895L18.8878 5.84039C18.9435 5.89603 18.9697 5.97462 18.9585 6.05252L17.8272 13.9721ZM14.0187 17.9418L5.66034 19.3349C5.5807 19.3482 5.49956 19.3222 5.44246 19.2651L4.74166 18.5643L11.1056 15.0287L14.0187 17.9418ZM9.1 3.24025C9.10351 3.17369 9.08028 3.10866 9.03581 3.05947L7.11262 7.14624L3.02585 9.06943C3.07504 9.1139 3.14007 9.13713 3.20663 9.13362L7.12556 8.92736L18.599 20.4007C18.9131 20.7149 19.3131 20.9289 19.7487 21.0161L20.9227 21.2509C21.0976 21.2858 21.2518 21.1316 21.2168 20.9567L20.982 19.7827C20.8949 19.3471 20.6808 18.9471 20.3667 18.633L8.8937 7.15997L9.1 3.24025Z" fill="black"/>
</svg>
