<svg width="24" height="24" viewBox="0 0 24 24" fill="none" xmlns="http://www.w3.org/2000/svg">
<path d="M11.3028 2.72852C11.0668 2.41376 10.6963 2.22852 10.3028 2.22852L8.97486 2.22852C8.47246 2.22852 8.11212 2.71282 8.25649 3.19403L9.61668 7.72799L15.0524 7.728L11.3028 2.72852Z" fill="black"/>
<path d="M22.1974 10.7739C21.6635 10.4179 21.0362 10.228 20.3946 10.228L4.61424 10.228L2.28666 7.64181C2.25703 7.60888 2.22582 7.57773 2.19321 7.54841C2.06751 7.4354 1.92089 7.3497 1.76273 7.29551C1.63365 7.25127 1.49688 7.22801 1.35754 7.22801H1.01431C0.494863 7.22801 0.132701 7.74331 0.308648 8.23205L1.83718 12.478L0.308648 16.724C0.26466 16.8462 0.254305 16.97 0.271632 17.087C0.311919 17.3592 0.50186 17.5945 0.766655 17.6866C0.843506 17.7133 0.926667 17.728 1.0143 17.728H1.35753C1.66946 17.728 1.96849 17.6114 2.19732 17.4039C2.22844 17.3756 2.25826 17.3457 2.28664 17.3142L4.61423 14.728L20.3946 14.728C21.0362 14.728 21.6635 14.5381 22.1973 14.1822L23.1935 13.5181C23.7501 13.147 23.8893 12.4408 23.611 11.9021C23.5273 11.7402 23.4059 11.5934 23.2467 11.4754C23.2294 11.4626 23.2117 11.4501 23.1935 11.438L22.1974 10.7739Z" fill="black"/>
<path d="M15.2176 17.228L9.68584 17.228L8.24456 22.2725C8.10767 22.7516 8.46742 23.2285 8.9657 23.2285H10.2882C10.6919 23.2285 11.0707 23.0336 11.3054 22.7051L15.2176 17.228Z" fill="black"/>
</svg>
