<svg width="24" height="24" viewBox="0 0 24 24" fill="none" xmlns="http://www.w3.org/2000/svg">
<path d="M10.998 19C10.7219 19 10.498 19.2239 10.498 19.5C10.498 19.7761 10.7219 20 10.998 20H12.998C13.2742 20 13.498 19.7761 13.498 19.5C13.498 19.2239 13.2742 19 12.998 19H10.998Z" fill="black"/>
<path fill-rule="evenodd" clip-rule="evenodd" d="M5.1243 12.5357C5.10377 12.1102 5.18771 11.6467 5.52371 11.3107C5.8597 10.9747 6.32328 10.8907 6.74877 10.9113C7.18052 10.9321 7.65293 11.0622 8.11391 11.2494C9.03668 11.6243 10.0214 12.2728 10.7247 12.9761C11.0596 13.311 11.3381 13.6203 11.5408 13.9178C11.7445 14.2169 11.8904 14.5312 11.924 14.8738C11.9934 15.5808 11.5675 16.1713 10.9759 16.7629C10.3222 17.4166 9.7139 17.8749 9.00114 17.7688C8.65987 17.7181 8.36038 17.5454 8.08502 17.3339C7.80956 17.1225 7.51521 16.8377 7.18916 16.5117C6.48587 15.8084 5.83736 14.8236 5.46249 13.9009C5.27522 13.4399 5.14513 12.9675 5.1243 12.5357ZM6.38895 13.5245C6.71449 14.3258 7.28923 15.1975 7.89627 15.8045C8.22538 16.1337 8.47717 16.3743 8.69399 16.5408C8.91091 16.7073 9.04984 16.7651 9.14829 16.7797C9.31498 16.8045 9.5913 16.7333 10.2688 16.0558C10.8461 15.4786 10.9497 15.1844 10.9288 14.9714C10.9173 14.8539 10.8632 14.6994 10.7143 14.4808C10.5644 14.2607 10.3378 14.0035 10.0176 13.6832C9.41055 13.0762 8.53885 12.5014 7.73753 12.1759C7.33647 12.013 6.97991 11.9236 6.70057 11.9101C6.41497 11.8963 6.28534 11.9632 6.23081 12.0178C6.17628 12.0723 6.10936 12.2019 6.12314 12.4875C6.13661 12.7669 6.22602 13.1234 6.38895 13.5245Z" fill="black"/>
<path fill-rule="evenodd" clip-rule="evenodd" d="M18.4766 11.3107C18.8126 11.6467 18.8965 12.1102 18.876 12.5357C18.8552 12.9675 18.7251 13.4399 18.5378 13.9009C18.163 14.8236 17.5144 15.8084 16.8112 16.5117C16.4851 16.8377 16.1908 17.1225 15.9153 17.3339C15.6399 17.5454 15.3404 17.7181 14.9992 17.7688C14.2864 17.8749 13.6781 17.4166 13.0244 16.7629C12.4328 16.1713 12.0069 15.5808 12.0763 14.8738C12.1099 14.5312 12.2558 14.2169 12.4595 13.9178C12.6622 13.6203 12.9407 13.311 13.2756 12.9761C13.9789 12.2728 14.9636 11.6243 15.8864 11.2494C16.3474 11.0622 16.8198 10.9321 17.2515 10.9113C17.677 10.8907 18.1406 10.9747 18.4766 11.3107ZM16.104 15.8045C16.7111 15.1975 17.2858 14.3258 17.6114 13.5245C17.7743 13.1234 17.8637 12.7669 17.8772 12.4875C17.891 12.2019 17.824 12.0723 17.7695 12.0178C17.715 11.9632 17.5853 11.8963 17.2997 11.9101C17.0204 11.9236 16.6638 12.013 16.2628 12.1759C15.4615 12.5014 14.5898 13.0762 13.9827 13.6832C13.6625 14.0035 13.4359 14.2607 13.286 14.4808C13.1371 14.6994 13.083 14.8539 13.0715 14.9714C13.0506 15.1844 13.1543 15.4786 13.7315 16.0558C14.409 16.7333 14.6853 16.8045 14.852 16.7797C14.9505 16.7651 15.0894 16.7073 15.3063 16.5408C15.5231 16.3743 15.7749 16.1337 16.104 15.8045Z" fill="black"/>
<path fill-rule="evenodd" clip-rule="evenodd" d="M11.998 0.75C9.39819 0.75 7.12912 1.5321 5.51235 3.21623C3.89753 4.89834 2.99805 7.41303 2.99805 10.75C2.99805 13.7945 4.38732 16.7766 6.16287 18.9877C7.05328 20.0965 8.05349 21.0278 9.04961 21.6858C10.0368 22.3379 11.0636 22.75 11.998 22.75C12.9325 22.75 13.9593 22.3379 14.9465 21.6858C15.9426 21.0278 16.9428 20.0965 17.8332 18.9877C19.6088 16.7766 20.998 13.7945 20.998 10.75C20.998 7.41303 20.0986 4.89834 18.4837 3.21623C16.867 1.5321 14.5979 0.75 11.998 0.75ZM3.99805 10.75C3.99805 7.58697 4.84856 5.35166 6.23374 3.90877C7.61697 2.4679 9.5979 1.75 11.998 1.75C14.3982 1.75 16.3791 2.4679 17.7624 3.90877C19.1475 5.35166 19.998 7.58697 19.998 10.75C19.998 13.5045 18.7311 16.2724 17.0535 18.3616C16.2173 19.4028 15.2918 20.2593 14.3953 20.8514C13.4899 21.4495 12.6573 21.75 11.998 21.75C11.3388 21.75 10.5062 21.4495 9.60078 20.8514C8.70433 20.2593 7.77875 19.4028 6.9426 18.3616C5.26502 16.2724 3.99805 13.5045 3.99805 10.75Z" fill="black"/>
</svg>
