<svg width="24" height="24" viewBox="0 0 24 24" fill="none" xmlns="http://www.w3.org/2000/svg">
<path d="M10.9983 19C10.7221 19 10.4983 19.2239 10.4983 19.5C10.4983 19.7761 10.7221 20 10.9983 20H12.9983C13.2744 20 13.4983 19.7761 13.4983 19.5C13.4983 19.2239 13.2744 19 12.9983 19H10.9983Z" fill="black"/>
<path fill-rule="evenodd" clip-rule="evenodd" d="M5.12454 12.5357C5.10401 12.1102 5.18796 11.6467 5.52395 11.3107C5.85995 10.9747 6.32352 10.8907 6.74901 10.9113C7.18076 10.9321 7.65317 11.0622 8.11415 11.2494C9.03693 11.6243 10.0216 12.2728 10.7249 12.9761C11.0598 13.311 11.3384 13.6203 11.541 13.9178C11.7447 14.2169 11.8907 14.5312 11.9243 14.8738C11.9936 15.5808 11.5677 16.1713 10.9762 16.7629C10.3225 17.4166 9.71414 17.8749 9.00138 17.7688C8.66011 17.7181 8.36062 17.5454 8.08526 17.3339C7.8098 17.1225 7.51545 16.8377 7.1894 16.5117C6.48611 15.8084 5.8376 14.8236 5.46273 13.9009C5.27546 13.4399 5.14538 12.9675 5.12454 12.5357ZM6.3892 13.5245C6.71473 14.3258 7.28947 15.1975 7.89651 15.8045C8.22562 16.1337 8.47742 16.3743 8.69424 16.5408C8.91115 16.7073 9.05009 16.7651 9.14854 16.7797C9.31522 16.8045 9.59155 16.7333 10.2691 16.0558C10.8463 15.4786 10.95 15.1844 10.9291 14.9714C10.9175 14.8539 10.8635 14.6994 10.7145 14.4808C10.5646 14.2607 10.3381 14.0035 10.0178 13.6832C9.41079 13.0762 8.5391 12.5014 7.73778 12.1759C7.33671 12.013 6.98015 11.9236 6.70082 11.9101C6.41522 11.8963 6.28559 11.9632 6.23106 12.0178C6.17653 12.0723 6.1096 12.2019 6.12338 12.4875C6.13686 12.7669 6.22627 13.1234 6.3892 13.5245Z" fill="black"/>
<path fill-rule="evenodd" clip-rule="evenodd" d="M18.4768 11.3107C18.8128 11.6467 18.8968 12.1102 18.8763 12.5357C18.8554 12.9675 18.7253 13.4399 18.5381 13.9009C18.1632 14.8236 17.5147 15.8084 16.8114 16.5117C16.4853 16.8377 16.191 17.1225 15.9155 17.3339C15.6402 17.5454 15.3407 17.7181 14.9994 17.7688C14.2867 17.8749 13.6783 17.4166 13.0246 16.7629C12.4331 16.1713 12.0072 15.5808 12.0765 14.8738C12.1101 14.5312 12.2561 14.2169 12.4598 13.9178C12.6624 13.6203 12.941 13.311 13.2759 12.9761C13.9792 12.2728 14.9639 11.6243 15.8867 11.2494C16.3476 11.0622 16.82 10.9321 17.2518 10.9113C17.6773 10.8907 18.1409 10.9747 18.4768 11.3107ZM16.1043 15.8045C16.7113 15.1975 17.2861 14.3258 17.6116 13.5245C17.7745 13.1234 17.8639 12.7669 17.8774 12.4875C17.8912 12.2019 17.8243 12.0723 17.7697 12.0178C17.7152 11.9632 17.5856 11.8963 17.3 11.9101C17.0206 11.9236 16.6641 12.013 16.263 12.1759C15.4617 12.5014 14.59 13.0762 13.983 13.6832C13.6627 14.0035 13.4362 14.2607 13.2863 14.4808C13.1374 14.6994 13.0833 14.8539 13.0717 14.9714C13.0508 15.1844 13.1545 15.4786 13.7317 16.0558C14.4093 16.7333 14.6856 16.8045 14.8523 16.7797C14.9507 16.7651 15.0896 16.7073 15.3066 16.5408C15.5234 16.3743 15.7752 16.1337 16.1043 15.8045Z" fill="black"/>
<path fill-rule="evenodd" clip-rule="evenodd" d="M11.9983 0.75C9.39844 0.75 7.12937 1.5321 5.5126 3.21623C3.89778 4.89834 2.99829 7.41303 2.99829 10.75C2.99829 13.7945 4.38757 16.7766 6.16312 18.9877C7.05353 20.0965 8.05373 21.0278 9.04986 21.6858C10.037 22.3379 11.0638 22.75 11.9983 22.75C12.9327 22.75 13.9595 22.3379 14.9467 21.6858C15.9429 21.0278 16.9431 20.0965 17.8335 18.9877C19.609 16.7766 20.9983 13.7945 20.9983 10.75C20.9983 7.41303 20.0988 4.89834 18.484 3.21623C16.8672 1.5321 14.5981 0.75 11.9983 0.75ZM3.99829 10.75C3.99829 7.58697 4.84881 5.35166 6.23398 3.90877C7.61722 2.4679 9.59815 1.75 11.9983 1.75C14.3984 1.75 16.3794 2.4679 17.7626 3.90877C19.1478 5.35166 19.9983 7.58697 19.9983 10.75C19.9983 13.5045 18.7313 16.2724 17.0537 18.3616C16.2176 19.4028 15.292 20.2593 14.3956 20.8514C13.4902 21.4495 12.6576 21.75 11.9983 21.75C11.339 21.75 10.5064 21.4495 9.60102 20.8514C8.70457 20.2593 7.77899 19.4028 6.94284 18.3616C5.26526 16.2724 3.99829 13.5045 3.99829 10.75Z" fill="black"/>
</svg>
