<svg width="24" height="24" viewBox="0 0 24 24" fill="none" xmlns="http://www.w3.org/2000/svg">
<path d="M11.002 18.75C10.5877 18.75 10.252 19.0858 10.252 19.5C10.252 19.9142 10.5877 20.25 11.002 20.25H13.002C13.4162 20.25 13.752 19.9142 13.752 19.5C13.752 19.0858 13.4162 18.75 13.002 18.75H11.002Z" fill="black"/>
<path fill-rule="evenodd" clip-rule="evenodd" d="M5.36123 12.6635C5.34031 12.2299 5.42279 11.7053 5.81437 11.3137C6.20594 10.9222 6.73054 10.8397 7.16408 10.8606C7.60701 10.882 8.07699 11.0139 8.52031 11.194C9.40816 11.5547 10.3508 12.1753 11.0286 12.8531C11.3423 13.1668 11.6147 13.4676 11.8173 13.765C11.8852 13.8647 11.9484 13.9686 12.0039 14.0769C12.0594 13.9686 12.1226 13.8647 12.1906 13.765C12.3931 13.4676 12.6655 13.1668 12.9792 12.8531C13.657 12.1753 14.5997 11.5547 15.4875 11.194C15.9308 11.0139 16.4008 10.882 16.8437 10.8606C17.2773 10.8397 17.8019 10.9222 18.1934 11.3137C18.585 11.7053 18.6675 12.2299 18.6466 12.6635C18.6252 13.1064 18.4933 13.5764 18.3132 14.0197C17.9525 14.9075 17.3319 15.8502 16.6541 16.528C16.3536 16.8284 16.0693 17.1043 15.7979 17.3128C15.5265 17.5211 15.2035 17.7138 14.8182 17.7711C14.0022 17.8925 13.3443 17.3575 12.747 16.7602C12.4572 16.4704 12.1852 16.1583 12.0039 15.8118C11.8226 16.1583 11.5506 16.4704 11.2608 16.7602C10.6635 17.3575 10.0056 17.8925 9.18964 17.7711C8.80432 17.7138 8.48129 17.5211 8.20996 17.3128C7.93848 17.1043 7.65417 16.8284 7.35369 16.528C6.67596 15.8502 6.05532 14.9075 5.69464 14.0197C5.51454 13.5764 5.3826 13.1064 5.36123 12.6635ZM7.08434 13.4551C7.37102 14.1608 7.88099 14.9339 8.41435 15.4673C8.71943 15.7724 8.9399 15.9821 9.12342 16.123C9.30709 16.264 9.38928 16.2843 9.41037 16.2875C9.41715 16.2885 9.42473 16.2891 9.44114 16.2853C9.4607 16.2808 9.50089 16.2681 9.56668 16.2307C9.70798 16.1505 9.90725 15.9924 10.2001 15.6995C10.7295 15.1701 10.7326 14.9835 10.7272 14.9289C10.7229 14.8851 10.6994 14.7883 10.5775 14.6094C10.4542 14.4283 10.2597 14.2055 9.96793 13.9137C9.43456 13.3804 8.66142 12.8704 7.95575 12.5837C7.6023 12.4401 7.30609 12.3692 7.09179 12.3589C6.96561 12.3528 6.90307 12.3682 6.87801 12.3774C6.86886 12.4024 6.8534 12.465 6.85948 12.5912C6.86982 12.8055 6.94075 13.1017 7.08434 13.4551ZM15.5935 15.4673C16.1268 14.9339 16.6368 14.1608 16.9235 13.4551C17.0671 13.1017 17.138 12.8055 17.1483 12.5912C17.1544 12.465 17.1389 12.4024 17.1298 12.3774C17.1047 12.3682 17.0422 12.3528 16.916 12.3589C16.7017 12.3692 16.4055 12.4401 16.0521 12.5837C15.3464 12.8704 14.5732 13.3804 14.0399 13.9137C13.7481 14.2055 13.5537 14.4283 13.4303 14.6094C13.3084 14.7883 13.2849 14.8851 13.2806 14.9289C13.2752 14.9835 13.2783 15.1701 13.8077 15.6995C14.1006 15.9924 14.2998 16.1505 14.4411 16.2307C14.5069 16.2681 14.5471 16.2808 14.5667 16.2853C14.5831 16.2891 14.5907 16.2885 14.5974 16.2875C14.6185 16.2843 14.7007 16.264 14.8844 16.123C15.0679 15.9821 15.2884 15.7724 15.5935 15.4673Z" fill="black"/>
<path fill-rule="evenodd" clip-rule="evenodd" d="M12.002 0.5C9.35217 0.5 7.01107 1.29815 5.33591 3.0431C3.66368 4.78501 2.75195 7.36954 2.75195 10.75C2.75195 13.867 4.1718 16.9026 5.97185 19.1442C6.87582 20.27 7.89468 21.2199 8.91573 21.8944C9.92336 22.56 10.9987 23 12.002 23C13.0052 23 14.0805 22.56 15.0882 21.8944C16.1092 21.2199 17.1281 20.27 18.0321 19.1442C19.8321 16.9026 21.252 13.867 21.252 10.75C21.252 7.36954 20.3402 4.78501 18.668 3.0431C16.9928 1.29815 14.6517 0.5 12.002 0.5ZM4.25195 10.75C4.25195 7.63046 5.09023 5.46499 6.41799 4.0819C7.74284 2.70185 9.65174 2 12.002 2C14.3522 2 16.2611 2.70185 17.5859 4.0819C18.9137 5.46499 19.752 7.63046 19.752 10.75C19.752 13.432 18.5156 16.1464 16.8625 18.205C16.0399 19.2294 15.133 20.0671 14.2614 20.6428C13.3765 21.2274 12.5925 21.5 12.002 21.5C11.4115 21.5 10.6274 21.2274 9.74248 20.6428C8.87094 20.0671 7.96402 19.2294 7.14143 18.205C5.48835 16.1464 4.25195 13.432 4.25195 10.75Z" fill="black"/>
</svg>
