<svg width="24" height="24" viewBox="0 0 24 24" fill="none" xmlns="http://www.w3.org/2000/svg">
<path d="M11.001 17.25C10.3106 17.25 9.75098 17.8096 9.75098 18.5C9.75098 19.1904 10.3106 19.75 11.001 19.75H13.001C13.6913 19.75 14.251 19.1904 14.251 18.5C14.251 17.8096 13.6913 17.25 13.001 17.25H11.001Z" fill="black"/>
<path fill-rule="evenodd" clip-rule="evenodd" d="M5.2818 11.2897C5.25864 10.8097 5.34465 10.1377 5.86407 9.61829C6.38348 9.09888 7.05548 9.01286 7.53548 9.03602C8.03115 9.05994 8.53169 9.20497 8.97651 9.38568C9.86818 9.74792 10.8061 10.3651 11.4887 11.0477C11.6701 11.229 11.845 11.4136 12.0029 11.6018C12.1609 11.4136 12.3358 11.229 12.5172 11.0477C13.1998 10.3651 14.1377 9.74792 15.0294 9.38568C15.4742 9.20497 15.9747 9.05994 16.4704 9.03602C16.9504 9.01286 17.6224 9.09888 18.1418 9.61829C18.6612 10.1377 18.7472 10.8097 18.7241 11.2897C18.7001 11.7854 18.5551 12.2859 18.3744 12.7307C18.0122 13.6224 17.395 14.5603 16.7124 15.2429C16.4351 15.5203 16.1475 15.8009 15.863 16.0193C15.5787 16.2376 15.1899 16.4802 14.6976 16.5534C13.6376 16.7111 12.843 16 12.3015 15.4586C12.204 15.3611 12.1027 15.2555 12.0029 15.1415C11.9032 15.2555 11.8018 15.3611 11.7043 15.4586C11.1629 16 10.3682 16.7111 9.30823 16.5534C8.816 16.4802 8.42717 16.2376 8.14287 16.0193C7.85832 15.8009 7.57076 15.5203 7.29344 15.2429C6.61083 14.5603 5.99369 13.6224 5.63146 12.7307C5.45075 12.2859 5.30572 11.7854 5.2818 11.2897ZM7.94763 11.7898C8.18651 12.3778 8.61923 13.0332 9.06121 13.4752C9.30927 13.7232 9.47867 13.8844 9.60939 13.9918C9.68808 13.928 9.79498 13.8324 9.93657 13.6908C10.0784 13.549 10.1653 13.4468 10.2176 13.3767C10.1316 13.2517 9.9804 13.0749 9.72094 12.8154C9.27896 12.3735 8.62361 11.9407 8.03558 11.7018C7.9857 11.6816 7.93822 11.6635 7.89321 11.6474C7.90929 11.6924 7.92736 11.7399 7.94763 11.7898ZM7.77919 11.1222L7.77921 11.1233C7.77914 11.1246 7.77893 11.1269 7.77845 11.1302C7.77871 11.1246 7.77907 11.1221 7.77919 11.1222ZM14.9447 13.4752C15.3866 13.0332 15.8193 12.3778 16.0582 11.7898C16.0785 11.7399 16.0966 11.6924 16.1126 11.6474C16.0676 11.6635 16.0202 11.6816 15.9703 11.7018C15.3822 11.9407 14.7269 12.3735 14.2849 12.8154C14.0255 13.0749 13.8742 13.2517 13.7883 13.3767C13.8405 13.4468 13.9275 13.549 14.0693 13.6908C14.2109 13.8324 14.3178 13.928 14.3965 13.9918C14.5272 13.8844 14.6966 13.7232 14.9447 13.4752Z" fill="black"/>
<path fill-rule="evenodd" clip-rule="evenodd" d="M12.001 0C9.25134 0 6.76616 0.83025 4.97424 2.69684C3.18719 4.55835 2.25098 7.28256 2.25098 10.75C2.25098 14.0119 3.73198 17.1546 5.58101 19.4573C6.51212 20.6168 7.56828 21.6042 8.63917 22.3116C9.68769 23.0042 10.8601 23.5 12.001 23.5C13.1418 23.5 14.3143 23.0042 15.3628 22.3116C16.4337 21.6042 17.4898 20.6168 18.4209 19.4573C20.27 17.1546 21.751 14.0119 21.751 10.75C21.751 7.28256 20.8148 4.55835 19.0277 2.69684C17.2358 0.83025 14.7506 0 12.001 0ZM4.75098 10.75C4.75098 7.71744 5.56477 5.69165 6.77771 4.42816C7.98579 3.16975 9.75061 2.5 12.001 2.5C14.2513 2.5 16.0162 3.16975 17.2242 4.42816C18.4372 5.69165 19.251 7.71744 19.251 10.75C19.251 13.287 18.0757 15.8944 16.4716 17.892C15.6762 18.8826 14.8066 19.6828 13.9849 20.2256C13.1408 20.7832 12.4539 21 12.001 21C11.5481 21 10.8611 20.7832 10.0171 20.2256C9.19539 19.6828 8.32577 18.8826 7.53032 17.892C5.92622 15.8944 4.75098 13.287 4.75098 10.75Z" fill="black"/>
</svg>
