<svg width="24" height="24" viewBox="0 0 24 24" fill="none" xmlns="http://www.w3.org/2000/svg">
<path fill-rule="evenodd" clip-rule="evenodd" d="M5.69319 3.38937C7.25157 1.76605 9.44861 1 11.9985 1C14.5485 1 16.7455 1.76605 18.3039 3.38937C19.8613 5.01167 20.7485 7.45651 20.7485 10.75C20.7485 13.722 19.3898 16.6505 17.6388 18.8312C16.7619 19.9231 15.7804 20.8357 14.8092 21.4772C13.8424 22.1158 12.8642 22.5 11.9985 22.5C11.1329 22.5 10.1546 22.1158 9.18789 21.4772C8.21668 20.8357 7.23514 19.9231 6.35829 18.8312C4.60723 16.6505 3.24854 13.722 3.24854 10.75C3.24854 7.45651 4.13578 5.01167 5.69319 3.38937ZM11.9985 20C13.1031 20 13.9985 19.7761 13.9985 19.5C13.9985 19.2239 13.1031 19 11.9985 19C10.894 19 9.99854 19.2239 9.99854 19.5C9.99854 19.7761 10.894 20 11.9985 20ZM10.3715 13.3297C11.6818 14.64 11.7915 15.2405 10.6227 16.4093C9.2915 17.7405 8.85337 17.4684 7.54304 16.1581C6.23272 14.8478 5.09654 12.4453 5.87759 11.6642C6.65864 10.8832 9.06114 12.0193 10.3715 13.3297ZM13.3783 16.4093C12.2095 15.2405 12.3192 14.64 13.6295 13.3297C14.9398 12.0193 17.3423 10.8832 18.1234 11.6642C18.9044 12.4453 17.7683 14.8478 16.4579 16.1581C15.1476 17.4684 14.7095 17.7405 13.3783 16.4093Z" fill="black"/>
</svg>
