<svg width="24" height="24" viewBox="0 0 24 24" fill="none" xmlns="http://www.w3.org/2000/svg">
<path d="M2 1.25C2.13807 1.25 2.25 1.36193 2.25 1.5V22.5C2.25 22.6381 2.13807 22.75 2 22.75C1.86193 22.75 1.75 22.6381 1.75 22.5V1.5C1.75 1.36193 1.86193 1.25 2 1.25Z" fill="black"/>
<path fill-rule="evenodd" clip-rule="evenodd" d="M8 6C7.44772 6 7 6.44772 7 7V9C7 9.55228 7.44772 10 8 10H22C22.5523 10 23 9.55228 23 9V7C23 6.44772 22.5523 6 22 6H8ZM22 6.5H8C7.72386 6.5 7.5 6.72386 7.5 7V9C7.5 9.27614 7.72386 9.5 8 9.5H22C22.2761 9.5 22.5 9.27614 22.5 9V7C22.5 6.72386 22.2761 6.5 22 6.5Z" fill="black"/>
<path fill-rule="evenodd" clip-rule="evenodd" d="M7 15C7 14.4477 7.44772 14 8 14H15C15.5523 14 16 14.4477 16 15V17C16 17.5523 15.5523 18 15 18H8C7.44772 18 7 17.5523 7 17V15ZM8 14.5H15C15.2761 14.5 15.5 14.7239 15.5 15V17C15.5 17.2761 15.2761 17.5 15 17.5H8C7.72386 17.5 7.5 17.2761 7.5 17V15C7.5 14.7239 7.72386 14.5 8 14.5Z" fill="black"/>
</svg>
