<svg width="24" height="24" viewBox="0 0 24 24" fill="none" xmlns="http://www.w3.org/2000/svg">
<path d="M23.125 1.625C23.125 1.76307 23.0131 1.875 22.875 1.875H1.875C1.73693 1.875 1.625 1.76307 1.625 1.625C1.625 1.48693 1.73693 1.375 1.875 1.375H22.875C23.0131 1.375 23.125 1.48693 23.125 1.625Z" fill="black"/>
<path fill-rule="evenodd" clip-rule="evenodd" d="M18.375 7.625C18.375 7.07272 17.9273 6.625 17.375 6.625H15.375C14.8227 6.625 14.375 7.07272 14.375 7.625V21.625C14.375 22.1773 14.8227 22.625 15.375 22.625H17.375C17.9273 22.625 18.375 22.1773 18.375 21.625V7.625ZM17.875 21.625V7.625C17.875 7.34886 17.6511 7.125 17.375 7.125H15.375C15.0989 7.125 14.875 7.34886 14.875 7.625V21.625C14.875 21.9011 15.0989 22.125 15.375 22.125H17.375C17.6511 22.125 17.875 21.9011 17.875 21.625Z" fill="black"/>
<path fill-rule="evenodd" clip-rule="evenodd" d="M9.375 6.625C9.92729 6.625 10.375 7.07272 10.375 7.625V14.625C10.375 15.1773 9.92729 15.625 9.375 15.625H7.375C6.82272 15.625 6.375 15.1773 6.375 14.625V7.625C6.375 7.07272 6.82272 6.625 7.375 6.625H9.375ZM9.875 7.625V14.625C9.875 14.9011 9.65114 15.125 9.375 15.125H7.375C7.09886 15.125 6.875 14.9011 6.875 14.625V7.625C6.875 7.34886 7.09886 7.125 7.375 7.125H9.375C9.65114 7.125 9.875 7.34886 9.875 7.625Z" fill="black"/>
</svg>
