<svg width="24" height="24" viewBox="0 0 24 24" fill="none" xmlns="http://www.w3.org/2000/svg">
<path d="M12.5 0.75C12.9142 0.75 13.25 1.08579 13.25 1.5V6H20.5C21.0523 6 21.5 6.44772 21.5 7V9C21.5 9.55229 21.0523 10 20.5 10H13.25V14H17C17.5523 14 18 14.4477 18 15V17C18 17.5523 17.5523 18 17 18H13.25V22.5C13.25 22.9142 12.9142 23.25 12.5 23.25C12.0858 23.25 11.75 22.9142 11.75 22.5V18H8C7.44772 18 7 17.5523 7 17V15C7 14.4477 7.44772 14 8 14H11.75V10H4.5C3.94772 10 3.5 9.55229 3.5 9V7C3.5 6.44772 3.94772 6 4.5 6H11.75V1.5C11.75 1.08579 12.0858 0.75 12.5 0.75Z" fill="black"/>
</svg>
