<svg width="24" height="24" viewBox="0 0 24 24" fill="none" xmlns="http://www.w3.org/2000/svg">
<path d="M22 1.25C21.8619 1.25 21.75 1.36193 21.75 1.5V22.5C21.75 22.6381 21.8619 22.75 22 22.75C22.1381 22.75 22.25 22.6381 22.25 22.5V1.5C22.25 1.36193 22.1381 1.25 22 1.25Z" fill="black"/>
<path d="M18 7C18 6.44772 17.5523 6 17 6H2C1.44772 6 1 6.44772 1 7V9C1 9.55229 1.44772 10 2 10H17C17.5523 10 18 9.55229 18 9V7Z" fill="black"/>
<path d="M17 14C17.5523 14 18 14.4477 18 15V17C18 17.5523 17.5523 18 17 18H9C8.44771 18 8 17.5523 8 17V15C8 14.4477 8.44772 14 9 14H17Z" fill="black"/>
</svg>
