<svg width="25" height="24" viewBox="0 0 25 24" fill="none" xmlns="http://www.w3.org/2000/svg">
<path d="M0.75 22.5C0.75 21.8096 1.30964 21.25 2 21.25H23C23.6904 21.25 24.25 21.8096 24.25 22.5C24.25 23.1904 23.6904 23.75 23 23.75H2C1.30964 23.75 0.75 23.1904 0.75 22.5Z" fill="black"/>
<path fill-rule="evenodd" clip-rule="evenodd" d="M6.5 18.75C5.25736 18.75 4.25 17.7426 4.25 16.5V2.5C4.25 1.25736 5.25736 0.25 6.5 0.25H9.5C10.7426 0.25 11.75 1.25736 11.75 2.5V16.5C11.75 17.7426 10.7426 18.75 9.5 18.75H6.5ZM6.75 16.25H9.25V2.75H6.75V16.25Z" fill="black"/>
<path fill-rule="evenodd" clip-rule="evenodd" d="M13.25 16.5C13.25 17.7426 14.2574 18.75 15.5 18.75H18.5C19.7426 18.75 20.75 17.7426 20.75 16.5V9.5C20.75 8.25736 19.7426 7.25 18.5 7.25H15.5C14.2574 7.25 13.25 8.25736 13.25 9.5V16.5ZM18.25 16.25H15.75V9.75H18.25V16.25Z" fill="black"/>
</svg>
