<svg width="24" height="24" viewBox="0 0 24 24" fill="none" xmlns="http://www.w3.org/2000/svg">
<path d="M23.625 2.125C23.625 2.81536 23.0654 3.375 22.375 3.375H1.375C0.684645 3.375 0.125 2.81536 0.125 2.125C0.125 1.43464 0.684645 0.875 1.375 0.875H22.375C23.0654 0.875 23.625 1.43464 23.625 2.125Z" fill="black"/>
<path d="M16.875 6.125C17.4273 6.125 17.875 6.57272 17.875 7.125V22.125C17.875 22.6773 17.4273 23.125 16.875 23.125H14.875C14.3227 23.125 13.875 22.6773 13.875 22.125V7.125C13.875 6.57272 14.3227 6.125 14.875 6.125H16.875Z" fill="black"/>
<path d="M9.875 7.125C9.875 6.57272 9.42729 6.125 8.875 6.125H6.875C6.32272 6.125 5.875 6.57272 5.875 7.125V15.125C5.875 15.6773 6.32272 16.125 6.875 16.125H8.875C9.42729 16.125 9.875 15.6773 9.875 15.125V7.125Z" fill="black"/>
</svg>
