<svg width="24" height="24" viewBox="0 0 24 24" fill="none" xmlns="http://www.w3.org/2000/svg">
<path d="M1.25 12C1.25 11.5858 1.58579 11.25 2 11.25H6.5V4C6.5 3.44772 6.94772 3 7.5 3H9.5C10.0523 3 10.5 3.44772 10.5 4V11.25H14.5V7.5C14.5 6.94772 14.9477 6.5 15.5 6.5H17.5C18.0523 6.5 18.5 6.94771 18.5 7.5V11.25H23C23.4142 11.25 23.75 11.5858 23.75 12C23.75 12.4142 23.4142 12.75 23 12.75H18.5V16.5C18.5 17.0523 18.0523 17.5 17.5 17.5H15.5C14.9477 17.5 14.5 17.0523 14.5 16.5V12.75H10.5V20C10.5 20.5523 10.0523 21 9.5 21H7.5C6.94772 21 6.5 20.5523 6.5 20V12.75H2C1.58579 12.75 1.25 12.4142 1.25 12Z" fill="black"/>
</svg>
