<svg width="25" height="24" viewBox="0 0 25 24" fill="none" xmlns="http://www.w3.org/2000/svg">
<path d="M2 0.25C2.69036 0.25 3.25 0.809644 3.25 1.5V22.5C3.25 23.1904 2.69036 23.75 2 23.75C1.30964 23.75 0.75 23.1904 0.75 22.5V1.5C0.75 0.809644 1.30964 0.25 2 0.25Z" fill="black"/>
<path fill-rule="evenodd" clip-rule="evenodd" d="M5.75 6C5.75 4.75736 6.75736 3.75 8 3.75H22C23.2426 3.75 24.25 4.75736 24.25 6V9C24.25 10.2426 23.2426 11.25 22 11.25H8C6.75736 11.25 5.75 10.2426 5.75 9V6ZM8.25 6.25V8.75H21.75V6.25H8.25Z" fill="black"/>
<path fill-rule="evenodd" clip-rule="evenodd" d="M8 12.75C6.75736 12.75 5.75 13.7574 5.75 15V18C5.75 19.2426 6.75736 20.25 8 20.25H15C16.2426 20.25 17.25 19.2426 17.25 18V15C17.25 13.7574 16.2426 12.75 15 12.75H8ZM8.25 17.75V15.25H14.75V17.75H8.25Z" fill="black"/>
</svg>
