<svg width="24" height="24" viewBox="0 0 24 24" fill="none" xmlns="http://www.w3.org/2000/svg">
<path d="M12.5 1C12.7761 1 13 1.22386 13 1.5V6H20.5C21.0523 6 21.5 6.44772 21.5 7V9C21.5 9.55229 21.0523 10 20.5 10H13V14H17C17.5523 14 18 14.4477 18 15V17C18 17.5523 17.5523 18 17 18H13V22.5C13 22.7761 12.7761 23 12.5 23C12.2239 23 12 22.7761 12 22.5V18H8C7.44772 18 7 17.5523 7 17V15C7 14.4477 7.44772 14 8 14H12V10H4.5C3.94772 10 3.5 9.55229 3.5 9V7C3.5 6.44772 3.94772 6 4.5 6H12V1.5C12 1.22386 12.2239 1 12.5 1Z" fill="black"/>
</svg>
