<svg width="24" height="24" viewBox="0 0 24 24" fill="none" xmlns="http://www.w3.org/2000/svg">
<path fill-rule="evenodd" clip-rule="evenodd" d="M12.5 0.25C13.1904 0.25 13.75 0.809644 13.75 1.5V3.75H19.5C20.7426 3.75 21.75 4.75736 21.75 6V9C21.75 10.2426 20.7426 11.25 19.5 11.25H13.75V12.75H16C17.2426 12.75 18.25 13.7574 18.25 15V18C18.25 19.2426 17.2426 20.25 16 20.25H13.75V22.5C13.75 23.1904 13.1904 23.75 12.5 23.75C11.8096 23.75 11.25 23.1904 11.25 22.5V20.25H9C7.75736 20.25 6.75 19.2426 6.75 18V15C6.75 13.7574 7.75736 12.75 9 12.75H11.25V11.25H5.5C4.25736 11.25 3.25 10.2426 3.25 9V6C3.25 4.75736 4.25736 3.75 5.5 3.75H11.25V1.5C11.25 0.809644 11.8096 0.25 12.5 0.25ZM5.75 6.25V8.75H19.25V6.25H5.75ZM9.25 17.75V15.25H15.75V17.75H9.25Z" fill="black"/>
</svg>
