<svg width="24" height="24" viewBox="0 0 24 24" fill="none" xmlns="http://www.w3.org/2000/svg">
<path d="M2 0.25C2.69036 0.25 3.25 0.809644 3.25 1.5V22.5C3.25 23.1904 2.69036 23.75 2 23.75C1.30964 23.75 0.75 23.1904 0.75 22.5V1.5C0.75 0.809644 1.30964 0.25 2 0.25Z" fill="black"/>
<path d="M6 7C6 6.44772 6.44772 6 7 6H22C22.5523 6 23 6.44772 23 7V9C23 9.55229 22.5523 10 22 10H7C6.44772 10 6 9.55229 6 9V7Z" fill="black"/>
<path d="M7 14C6.44772 14 6 14.4477 6 15V17C6 17.5523 6.44772 18 7 18H15C15.5523 18 16 17.5523 16 17V15C16 14.4477 15.5523 14 15 14H7Z" fill="black"/>
</svg>
