<svg width="24" height="24" viewBox="0 0 24 24" fill="none" xmlns="http://www.w3.org/2000/svg">
<path d="M23.5 2C23.5 2.55228 23.0523 3 22.5 3H1.5C0.947716 3 0.5 2.55228 0.5 2C0.5 1.44772 0.947716 1 1.5 1H22.5C23.0523 1 23.5 1.44772 23.5 2Z" fill="black"/>
<path d="M17 6C17.5523 6 18 6.44772 18 7V22C18 22.5523 17.5523 23 17 23H15C14.4477 23 14 22.5523 14 22V7C14 6.44772 14.4477 6 15 6H17Z" fill="black"/>
<path d="M10 7C10 6.44772 9.55229 6 9 6H7C6.44772 6 6 6.44772 6 7V15C6 15.5523 6.44772 16 7 16H9C9.55229 16 10 15.5523 10 15V7Z" fill="black"/>
</svg>
