<svg width="24" height="24" viewBox="0 0 24 24" fill="none" xmlns="http://www.w3.org/2000/svg">
<path fill-rule="evenodd" clip-rule="evenodd" d="M1.5 12C1.5 11.7239 1.72386 11.5 2 11.5H6V5C6 4.17157 6.67157 3.5 7.5 3.5H9.5C10.3284 3.5 11 4.17157 11 5V11.5H14V8.5C14 7.67157 14.6716 7 15.5 7H17.5C18.3284 7 19 7.67157 19 8.5V11.5H23C23.2761 11.5 23.5 11.7239 23.5 12C23.5 12.2761 23.2761 12.5 23 12.5H19V15.5C19 16.3284 18.3284 17 17.5 17H15.5C14.6716 17 14 16.3284 14 15.5V12.5H11V19C11 19.8284 10.3284 20.5 9.5 20.5H7.5C6.67157 20.5 6 19.8284 6 19V12.5H2C1.72386 12.5 1.5 12.2761 1.5 12ZM7 19C7 19.2761 7.22386 19.5 7.5 19.5H9.5C9.77614 19.5 10 19.2761 10 19V5C10 4.72386 9.77614 4.5 9.5 4.5H7.5C7.22386 4.5 7 4.72386 7 5V19ZM15.5 16C15.2239 16 15 15.7761 15 15.5V8.5C15 8.22386 15.2239 8 15.5 8H17.5C17.7761 8 18 8.22386 18 8.5V15.5C18 15.7761 17.7761 16 17.5 16H15.5Z" fill="black"/>
</svg>
