<svg width="24" height="24" viewBox="0 0 24 24" fill="none" xmlns="http://www.w3.org/2000/svg">
<path d="M23 1C22.7239 1 22.5 1.22386 22.5 1.5V22.5C22.5 22.7761 22.7239 23 23 23C23.2761 23 23.5 22.7761 23.5 22.5V1.5C23.5 1.22386 23.2761 1 23 1Z" fill="black"/>
<path fill-rule="evenodd" clip-rule="evenodd" d="M18.5 7C18.5 6.17157 17.8284 5.5 17 5.5H3C2.17157 5.5 1.5 6.17157 1.5 7V9C1.5 9.82843 2.17157 10.5 3 10.5H17C17.8284 10.5 18.5 9.82843 18.5 9V7ZM17 6.5C17.2761 6.5 17.5 6.72386 17.5 7V9C17.5 9.27614 17.2761 9.5 17 9.5H3C2.72386 9.5 2.5 9.27614 2.5 9V7C2.5 6.72386 2.72386 6.5 3 6.5H17Z" fill="black"/>
<path fill-rule="evenodd" clip-rule="evenodd" d="M17 13.5C17.8284 13.5 18.5 14.1716 18.5 15V17C18.5 17.8284 17.8284 18.5 17 18.5H10C9.17157 18.5 8.5 17.8284 8.5 17V15C8.5 14.1716 9.17157 13.5 10 13.5H17ZM17.5 15C17.5 14.7239 17.2761 14.5 17 14.5H10C9.72386 14.5 9.5 14.7239 9.5 15V17C9.5 17.2761 9.72386 17.5 10 17.5H17C17.2761 17.5 17.5 17.2761 17.5 17V15Z" fill="black"/>
</svg>
