<svg width="25" height="24" viewBox="0 0 25 24" fill="none" xmlns="http://www.w3.org/2000/svg">
<path d="M0.75 12C0.75 11.3096 1.30964 10.75 2 10.75H6.5V4C6.5 3.44772 6.94772 3 7.5 3H9.5C10.0523 3 10.5 3.44772 10.5 4V10.75H14.5V7.5C14.5 6.94772 14.9477 6.5 15.5 6.5H17.5C18.0523 6.5 18.5 6.94771 18.5 7.5V10.75H23C23.6904 10.75 24.25 11.3096 24.25 12C24.25 12.6904 23.6904 13.25 23 13.25H18.5V16.5C18.5 17.0523 18.0523 17.5 17.5 17.5H15.5C14.9477 17.5 14.5 17.0523 14.5 16.5V13.25H10.5V20C10.5 20.5523 10.0523 21 9.5 21H7.5C6.94772 21 6.5 20.5523 6.5 20V13.25H2C1.30964 13.25 0.75 12.6904 0.75 12Z" fill="black"/>
</svg>
