<svg width="24" height="24" viewBox="0 0 24 24" fill="none" xmlns="http://www.w3.org/2000/svg">
<path fill-rule="evenodd" clip-rule="evenodd" d="M1 12C1 11.4477 1.44772 11 2 11H4.5V5C4.5 3.89543 5.39543 3 6.5 3H9.5C10.6046 3 11.5 3.89543 11.5 5V11H13.5V8.5C13.5 7.39543 14.3954 6.5 15.5 6.5H18.5C19.6046 6.5 20.5 7.39543 20.5 8.5V11H23C23.5523 11 24 11.4477 24 12C24 12.5523 23.5523 13 23 13H20.5V15.5C20.5 16.6046 19.6046 17.5 18.5 17.5H15.5C14.3954 17.5 13.5 16.6046 13.5 15.5V13H11.5V19C11.5 20.1046 10.6046 21 9.5 21H6.5C5.39543 21 4.5 20.1046 4.5 19V13H2C1.44772 13 1 12.5523 1 12ZM6.5 19H9.5V5H6.5V19ZM18.5 15.5H15.5V8.5H18.5V15.5Z" fill="black"/>
</svg>
