<svg width="25" height="24" viewBox="0 0 25 24" fill="none" xmlns="http://www.w3.org/2000/svg">
<path d="M24.25 1.5C24.25 2.19036 23.6904 2.75 23 2.75H2C1.30964 2.75 0.75 2.19036 0.75 1.5C0.75 0.809644 1.30964 0.25 2 0.25H23C23.6904 0.25 24.25 0.809644 24.25 1.5Z" fill="black"/>
<path fill-rule="evenodd" clip-rule="evenodd" d="M18.5 5.25C19.7426 5.25 20.75 6.25736 20.75 7.5V21.5C20.75 22.7426 19.7426 23.75 18.5 23.75H15.5C14.2574 23.75 13.25 22.7426 13.25 21.5V7.5C13.25 6.25736 14.2574 5.25 15.5 5.25H18.5ZM18.25 7.75H15.75V21.25H18.25V7.75Z" fill="black"/>
<path fill-rule="evenodd" clip-rule="evenodd" d="M11.75 7.5C11.75 6.25736 10.7426 5.25 9.5 5.25H6.5C5.25736 5.25 4.25 6.25736 4.25 7.5V14.5C4.25 15.7426 5.25736 16.75 6.5 16.75H9.5C10.7426 16.75 11.75 15.7426 11.75 14.5V7.5ZM6.75 7.75H9.25V14.25H6.75V7.75Z" fill="black"/>
</svg>
