<svg width="24" height="24" viewBox="0 0 24 24" fill="none" xmlns="http://www.w3.org/2000/svg">
<path d="M23.375 1.875C23.375 2.28921 23.0392 2.625 22.625 2.625H1.625C1.21079 2.625 0.875 2.28921 0.875 1.875C0.875 1.46079 1.21079 1.125 1.625 1.125H22.625C23.0392 1.125 23.375 1.46079 23.375 1.875Z" fill="black"/>
<path d="M17.125 5.875C17.6773 5.875 18.125 6.32272 18.125 6.875V21.875C18.125 22.4273 17.6773 22.875 17.125 22.875H15.125C14.5727 22.875 14.125 22.4273 14.125 21.875V6.875C14.125 6.32272 14.5727 5.875 15.125 5.875H17.125Z" fill="black"/>
<path d="M10.125 6.875C10.125 6.32272 9.67729 5.875 9.125 5.875H7.125C6.57272 5.875 6.125 6.32272 6.125 6.875V14.875C6.125 15.4273 6.57272 15.875 7.125 15.875H9.125C9.67729 15.875 10.125 15.4273 10.125 14.875V6.875Z" fill="black"/>
</svg>
