<svg width="24" height="24" viewBox="0 0 24 24" fill="none" xmlns="http://www.w3.org/2000/svg">
<path d="M22.75 1.25C22.6119 1.25 22.5 1.36193 22.5 1.5V22.5C22.5 22.6381 22.6119 22.75 22.75 22.75C22.8881 22.75 23 22.6381 23 22.5V1.5C23 1.36193 22.8881 1.25 22.75 1.25Z" fill="black"/>
<path fill-rule="evenodd" clip-rule="evenodd" d="M16.75 6C17.3023 6 17.75 6.44772 17.75 7V9C17.75 9.55228 17.3023 10 16.75 10H2.75C2.19772 10 1.75 9.55228 1.75 9V7C1.75 6.44772 2.19772 6 2.75 6H16.75ZM2.75 6.5H16.75C17.0261 6.5 17.25 6.72386 17.25 7V9C17.25 9.27614 17.0261 9.5 16.75 9.5H2.75C2.47386 9.5 2.25 9.27614 2.25 9V7C2.25 6.72386 2.47386 6.5 2.75 6.5Z" fill="black"/>
<path fill-rule="evenodd" clip-rule="evenodd" d="M17.75 15C17.75 14.4477 17.3023 14 16.75 14H9.75C9.19771 14 8.75 14.4477 8.75 15V17C8.75 17.5523 9.19771 18 9.75 18H16.75C17.3023 18 17.75 17.5523 17.75 17V15ZM16.75 14.5H9.75C9.47386 14.5 9.25 14.7239 9.25 15V17C9.25 17.2761 9.47386 17.5 9.75 17.5H16.75C17.0261 17.5 17.25 17.2761 17.25 17V15C17.25 14.7239 17.0261 14.5 16.75 14.5Z" fill="black"/>
</svg>
