<svg width="24" height="24" viewBox="0 0 24 24" fill="none" xmlns="http://www.w3.org/2000/svg">
<path d="M19.4386 12.9022C19.3879 11.8277 19.0383 11.1765 18.9537 10.9442C18.8598 10.6865 18.7546 10.4322 18.6384 10.1837C18.5234 9.93708 18.3973 9.69499 18.2611 9.45954C18.1262 9.22607 17.9806 8.99786 17.8254 8.77681C17.6718 8.55765 17.508 8.34496 17.3357 8.14012C17.176 7.94984 16.847 7.60593 16.7826 7.5392C16.6036 7.36281 16.2652 7.06589 16.2004 7.00942C16.0092 6.85009 15.8113 6.69887 15.6076 6.55602C15.6076 6.55602 14.9163 6.11736 14.9052 6.11106C14.6896 5.98993 14.3097 5.8025 14.2341 5.76552C14.0107 5.66249 13.7829 5.56878 13.5437 5.48213C13.4499 5.45066 13.0403 5.31376 12.8189 5.25487C12.5766 5.19047 12.3316 5.1365 12.0847 5.09348C11.8434 5.05141 11.6001 5.01968 11.3479 4.99778C11.251 4.99166 10.8311 4.96597 10.6078 4.96631C10.364 4.96648 10.1196 4.97735 9.87671 4.99899C9.65238 5.01882 9.22708 5.08374 9.13914 5.09753C8.91387 5.13874 8.51607 5.23565 8.43986 5.25453C8.21596 5.31505 7.99439 5.38531 7.77644 5.4648C7.55556 5.54515 7.33744 5.63525 7.1244 5.73465C6.91361 5.83277 6.70592 5.94079 6.50444 6.05718C6.30485 6.17202 6.1094 6.29651 5.92068 6.42851C5.74515 6.55093 5.42538 6.80604 5.36408 6.85535C5.19476 6.99761 5.03172 7.14684 4.87533 7.30306C4.71678 7.46127 4.56496 7.62628 4.4209 7.7975C4.27821 7.967 4.14268 8.14305 4.01517 8.32418C3.8893 8.50351 3.77084 8.68878 3.66083 8.87837C3.55186 9.06606 3.45116 9.25892 3.359 9.4554C3.26769 9.64999 3.18493 9.84871 3.11122 10.0505C3.03811 10.25 2.97388 10.4529 2.91844 10.6581C2.86369 10.8609 2.81774 11.0662 2.78084 11.2731C2.74429 11.4778 2.71653 11.686 2.69816 11.892C2.67989 12.0967 2.67075 12.3026 2.67066 12.5082C2.6704 12.7115 2.67894 12.9151 2.69635 13.1174C2.69635 13.1174 2.73998 13.5184 2.77463 13.7159C2.77463 13.7159 2.88223 14.1993 2.91353 14.3356C2.96931 14.5327 3.08078 14.8618 3.08078 14.8618C3.14743 15.0446 3.22191 15.2243 3.30416 15.4006C3.38538 15.5746 3.47513 15.7467 3.57065 15.9121C3.66566 16.0765 3.76825 16.237 3.87732 16.3925C3.985 16.5463 4.10052 16.6964 4.22062 16.8392C4.3402 16.9816 4.46719 17.1194 4.59798 17.2498C4.72773 17.3792 4.86335 17.5031 5.00414 17.6205L5.00603 17.6221C5.1438 17.7377 5.28795 17.8478 5.43616 17.9512C5.58298 18.0534 5.7348 18.1498 5.88981 18.2388C6.0394 18.325 6.19338 18.405 6.34977 18.478C6.40572 18.5023 6.69316 18.6277 6.84653 18.6832C7.0087 18.7419 7.17484 18.7936 7.34028 18.8377C7.50469 18.8815 7.67109 18.9179 7.83886 18.9474C7.83886 18.9474 8.17285 18.9982 8.34046 19.0124C8.50478 19.0265 8.67117 19.0337 8.83679 19.0335C9.00068 19.0333 9.16596 19.0258 9.32813 19.0115C9.48917 18.9973 9.65031 18.9758 9.80929 18.9476C9.9649 18.9202 10.2756 18.844 10.2756 18.844C10.4272 18.8033 10.5779 18.7558 10.7245 18.7024C10.87 18.6495 11.0144 18.5895 11.1544 18.5242C11.2928 18.46 11.4289 18.3891 11.5612 18.3128C11.6914 18.2377 11.8189 18.1567 11.9422 18.0704C12.0635 17.9857 12.1812 17.8954 12.2948 17.8005C12.2948 17.8005 12.515 17.6077 12.618 17.5054C12.618 17.5054 12.8177 17.297 12.9096 17.1879C13.001 17.0794 13.0878 16.9667 13.1692 16.8509C13.2491 16.7372 13.3238 16.6202 13.3937 16.5001C13.3937 16.5001 13.5267 16.2587 13.5845 16.1356C13.5845 16.1356 13.6939 15.8879 13.7398 15.7621C13.7854 15.638 13.8256 15.5113 13.8601 15.3836C13.8939 15.2583 13.9223 15.1306 13.9452 15.0027C13.9677 14.8768 13.9846 14.7489 13.9959 14.6225C14.0071 14.497 14.0128 14.371 14.0129 14.245C14.013 14.1217 14.0079 13.9979 13.9972 13.8751C13.9869 13.7546 13.9709 13.6339 13.95 13.5148C13.9296 13.398 13.9037 13.2812 13.873 13.1666C13.843 13.0538 13.807 12.9402 13.7674 12.8312C13.7357 12.7438 13.6589 12.5668 13.6361 12.5145C13.6329 12.5075 13.6306 12.5024 13.6294 12.4998C13.5877 12.4135 13.5055 12.262 13.4803 12.216C13.4767 12.2093 13.474 12.2047 13.4727 12.2024C13.42 12.1122 13.3636 12.024 13.3036 11.9386L13.3022 11.9366C13.2404 11.8484 13.1746 11.7628 13.1053 11.6806C13.0373 11.5999 12.9656 11.5218 12.8908 11.4474L12.8881 11.4448C12.8171 11.3737 12.7402 11.3037 12.6625 11.2387C12.5844 11.1733 12.5025 11.1109 12.4201 11.0533C12.3392 10.9967 12.2555 10.9437 12.1698 10.8944C12.0858 10.846 11.9996 10.8013 11.9114 10.7607C11.9011 10.7559 11.8908 10.751 11.8808 10.7459C11.3736 10.4912 10.6908 10.389 10.1857 10.389V8.38902C10.9594 8.38902 12.0004 8.56817 12.7582 8.94872C12.8979 9.01347 13.0343 9.08434 13.1677 9.16107C13.3039 9.23952 13.4368 9.32375 13.5656 9.41376C13.695 9.5042 13.8237 9.6024 13.9462 9.70499C14.0689 9.80767 14.19 9.91811 14.302 10.0302C14.418 10.1456 14.5288 10.2662 14.6343 10.3913C14.742 10.519 14.8438 10.6515 14.9399 10.7887C15.0367 10.9264 15.1274 11.0687 15.2117 11.2145C15.217 11.2237 15.2222 11.233 15.2272 11.2422C15.2532 11.2898 15.386 11.5348 15.4479 11.6672C15.4524 11.6771 15.4569 11.687 15.4612 11.697C15.4834 11.7476 15.5962 12.0079 15.6471 12.1481C15.7065 12.3116 15.7602 12.4815 15.8053 12.6506C15.8511 12.8218 15.8894 12.995 15.9199 13.1694C15.9509 13.3461 15.9744 13.5241 15.9897 13.7027C16.0055 13.8835 16.0131 14.0648 16.0129 14.2466C16.0127 14.4315 16.0044 14.6164 15.9879 14.8006C15.9715 14.985 15.9468 15.171 15.9139 15.3544C15.8809 15.5398 15.8399 15.7239 15.7908 15.9053C15.7412 16.0891 15.6837 16.2703 15.6182 16.449C15.552 16.6301 15.3949 16.9854 15.3949 16.9854C15.3123 17.1616 15.122 17.5067 15.122 17.5067C15.0235 17.6757 14.9183 17.8403 14.8059 18.0003C14.691 18.164 14.5683 18.3231 14.4393 18.4763C14.3097 18.6303 14.0277 18.9241 14.0277 18.9241C13.8839 19.0669 13.5767 19.3357 13.5767 19.3357C13.4193 19.4672 13.2564 19.592 13.0883 19.7096C12.9172 19.8292 12.741 19.9412 12.5603 20.0454C12.3772 20.151 12.1897 20.2485 11.9981 20.3375C11.8058 20.4272 11.6082 20.5091 11.4082 20.5819C11.2076 20.6549 11.0014 20.7199 10.7939 20.7756C10.7939 20.7756 10.3705 20.8795 10.1578 20.917C9.94163 20.9553 9.72307 20.9844 9.50409 21.0037C9.28459 21.0231 9.06129 21.0332 8.83955 21.0335C8.61617 21.0338 8.39253 21.0241 8.17087 21.0052C7.94396 20.986 7.4928 20.9172 7.4928 20.9172C7.26821 20.8778 7.0456 20.8289 6.82558 20.7702C6.60444 20.7114 6.38244 20.6421 6.16579 20.5637C5.97629 20.4951 5.55168 20.3118 5.55168 20.3118L5.93999 20.3902L5.51901 20.2973C5.30571 20.1983 5.09656 20.0899 4.89266 19.9725C4.68773 19.8548 4.48806 19.728 4.2939 19.5929L4.29157 19.5914C4.09509 19.4543 3.9043 19.3083 3.7217 19.1552C3.53599 19.0002 3.3571 18.8369 3.18588 18.6661C3.01388 18.4946 2.84697 18.3133 2.68963 18.1261C2.53203 17.9386 2.38081 17.7421 2.2395 17.5402C2.0969 17.337 1.9631 17.1276 1.83895 16.9127C1.71437 16.6971 1.59747 16.4729 1.49159 16.246C1.38486 16.0172 1.28813 15.7838 1.20166 15.5464C1.20166 15.5464 1.03768 15.063 0.971809 14.8172C0.967929 14.8028 0.964394 14.7884 0.961204 14.774L0.804639 14.0612C0.75998 13.8062 0.703682 13.2884 0.703682 13.2884C0.681353 13.0284 0.670317 12.7674 0.670662 12.5064C0.670835 12.2418 0.682646 11.9775 0.706096 11.7143C0.729633 11.4504 0.765153 11.184 0.811967 10.9217C0.859126 10.6577 0.917666 10.3957 0.987586 10.1369C1.05811 9.87552 1.13984 9.61748 1.23304 9.36324C1.32693 9.10623 1.43202 8.8538 1.54832 8.60593C1.66523 8.35669 1.79291 8.11227 1.9312 7.87415C2.07009 7.6349 2.21933 7.40143 2.37822 7.17521L2.38003 7.17262C2.54065 6.9445 2.71101 6.72319 2.89068 6.50972C3.0719 6.29427 3.26287 6.08675 3.46237 5.8876C3.66385 5.68646 3.87387 5.49446 4.09233 5.3116C4.09794 5.30694 4.10354 5.30229 4.10923 5.29772C4.10923 5.29772 4.54608 4.9489 4.77541 4.7888C5.01189 4.62352 5.25545 4.46842 5.50547 4.32453C5.75739 4.179 6.01577 4.04468 6.27942 3.92191C6.54522 3.79785 6.81645 3.68577 7.09216 3.5855C7.36994 3.48429 7.65195 3.39514 7.9374 3.31859C7.9443 3.31669 7.95128 3.31496 7.95818 3.31324C7.95818 3.31324 8.52314 3.17538 8.80877 3.12478C8.81601 3.12357 8.82317 3.12236 8.83041 3.12124C8.83041 3.12124 9.40899 3.03261 9.69997 3.00683C10.0009 2.98002 10.303 2.96657 10.6051 2.96631C10.9026 2.9658 11.4962 3.00313 11.4962 3.00313C11.5036 3.00364 11.5109 3.00416 11.5183 3.00485C11.8233 3.03115 12.1269 3.07063 12.4282 3.12322C12.7325 3.17616 13.0343 3.24263 13.333 3.32212C13.6261 3.40006 14.2022 3.59352 14.2022 3.59352C14.2091 3.59594 14.216 3.59835 14.2229 3.60085C14.5168 3.70715 14.8062 3.8263 15.0897 3.95769C15.0965 3.96088 15.1034 3.96407 15.1102 3.96743C15.1102 3.96743 15.6635 4.23996 15.9304 4.39333C15.9431 4.40066 15.9556 4.40816 15.9679 4.41601L16.6989 4.87975C16.7113 4.88768 16.7237 4.89588 16.7357 4.90432C16.9973 5.08701 17.2512 5.28099 17.4961 5.48575C17.5018 5.49049 17.5073 5.49524 17.5128 5.50006C17.5128 5.50006 17.9861 5.91484 18.2087 6.13676C18.2139 6.14193 18.219 6.1471 18.224 6.15236C18.224 6.15236 18.663 6.61068 18.867 6.85354C19.0678 7.09236 19.2585 7.33919 19.4386 7.59395V5.47567H21.4386V16.1055C21.4386 16.6905 21.671 17.2516 22.0847 17.6653C22.4984 18.079 23.0595 18.3114 23.6446 18.3114L23.645 20.3114C22.5296 20.3114 21.4592 19.8683 20.6705 19.0795C19.8817 18.2907 19.4386 17.2209 19.4386 16.1055V12.9022Z" fill="black"/>
</svg>
