<svg width="25" height="24" viewBox="0 0 25 24" fill="none" xmlns="http://www.w3.org/2000/svg">
<path fill-rule="evenodd" clip-rule="evenodd" d="M11.6055 2.2168C11.7942 2.21657 12.0417 2.22766 12.2119 2.23633C12.3037 2.24101 12.3861 2.24553 12.4453 2.24903C12.475 2.25078 12.4996 2.25286 12.5166 2.25391C12.5248 2.25442 12.5315 2.25459 12.5361 2.25489H12.544L12.583 2.25782C12.9089 2.286 13.2346 2.32845 13.5576 2.38477C13.8837 2.44162 14.2071 2.5127 14.5264 2.59766C14.7117 2.64697 14.9529 2.7237 15.1192 2.77735C15.2083 2.80612 15.2882 2.8325 15.3457 2.85157C15.3745 2.86111 15.3986 2.86851 15.415 2.87403C15.4232 2.87675 15.43 2.87934 15.4346 2.88086C15.4366 2.88154 15.4383 2.88241 15.4395 2.88282H15.4424L15.4785 2.89649C15.6357 2.9534 15.7919 3.01357 15.9463 3.07715L16.4053 3.27735L16.4414 3.29493L16.4434 3.2959C16.4446 3.29655 16.4462 3.29784 16.4483 3.29883C16.4526 3.30096 16.4592 3.30385 16.4668 3.30762C16.4826 3.31542 16.5058 3.3262 16.5332 3.33985C16.5883 3.36727 16.6651 3.40615 16.75 3.44922L17.3047 3.74317L17.3701 3.78321L18.1006 4.24707L18.166 4.29004C18.3053 4.38738 18.4427 4.48827 18.5781 4.5918L18.9775 4.91114L19.0068 4.93555L19.0088 4.9375C19.0098 4.93841 19.0111 4.94001 19.0127 4.94141C19.0165 4.94469 19.0227 4.94925 19.0293 4.95508C19.0428 4.96691 19.0617 4.9843 19.085 5.00489C19.1321 5.04649 19.1982 5.10503 19.2705 5.16993C19.338 5.23048 19.4204 5.3045 19.5029 5.38086L19.6885 5.55762V4.47559H23.1885V12.832C23.1924 12.9297 23.1949 13.0299 23.1953 13.1318H23.1885V16.1055C23.1885 16.4915 23.3423 16.8618 23.6152 17.1348C23.8882 17.4077 24.2585 17.5615 24.6445 17.5615L24.6455 21.0615C23.3313 21.0615 22.0691 20.5389 21.1397 19.6094C20.2105 18.6799 19.6885 17.4194 19.6885 16.1055V12.9854C19.6724 12.5475 19.6027 12.2023 19.5274 11.9453C19.4718 11.756 19.4353 11.6608 19.3965 11.5684L19.249 11.2012C19.1627 10.9638 19.0664 10.7305 18.96 10.5029L18.959 10.501C18.8532 10.2741 18.7372 10.0519 18.6123 9.83594C18.4882 9.62138 18.3545 9.41114 18.2119 9.20801L18.2109 9.20704C18.0708 9.00718 17.9212 8.81246 17.7627 8.62403L17.7617 8.62305C17.7005 8.55015 17.5798 8.41771 17.4531 8.28223C17.3943 8.21932 17.3397 8.16205 17.3008 8.1211C17.2846 8.10409 17.2709 8.08972 17.2608 8.07911C17.1922 8.01125 17.0657 7.89385 16.9326 7.77442C16.8691 7.71738 16.8106 7.66599 16.7686 7.62891C16.7509 7.61335 16.7366 7.59952 16.7256 7.58985C16.5509 7.4441 16.369 7.3056 16.1817 7.17383L15.5459 6.77051C15.4629 6.72362 15.3177 6.64726 15.166 6.57032C15.0916 6.53257 15.0237 6.49901 14.9746 6.47461C14.9503 6.46251 14.9303 6.45188 14.917 6.44532C14.7128 6.35135 14.5046 6.26593 14.294 6.18946C14.281 6.18514 14.2639 6.18037 14.2442 6.17383C14.193 6.15688 14.1222 6.13267 14.044 6.10743C13.8755 6.05307 13.7137 6.00356 13.627 5.98047C13.4054 5.92153 13.1808 5.87218 12.9561 5.83301C12.7389 5.79515 12.5195 5.76566 12.2988 5.7461C12.2848 5.74523 12.2644 5.74465 12.2393 5.74317C12.1869 5.74007 12.1142 5.73553 12.0342 5.73145C11.861 5.72263 11.6959 5.71667 11.6094 5.7168C11.3872 5.71701 11.1643 5.72651 10.9434 5.7461C10.8592 5.75356 10.6982 5.77498 10.5293 5.79883C10.4516 5.80981 10.3811 5.81953 10.3301 5.82715C10.3048 5.83093 10.2843 5.83482 10.2705 5.83692H10.2686C10.1831 5.85289 10.0383 5.8846 9.88575 5.91993C9.80985 5.9375 9.74118 5.95388 9.69142 5.96582C9.67547 5.96965 9.66088 5.97184 9.64942 5.97461C9.44178 6.03035 9.23662 6.09613 9.03419 6.16993H9.03224C8.83094 6.24313 8.63412 6.32455 8.44239 6.41407L8.44044 6.41504C8.24932 6.50402 8.06196 6.60189 7.87989 6.70704L7.87794 6.70801C7.69836 6.81141 7.52265 6.92335 7.35157 7.04297L7.34962 7.04395C7.28615 7.08825 7.16592 7.1797 7.0381 7.2793C6.97941 7.32503 6.92602 7.36711 6.88771 7.39746C6.87669 7.40619 6.86665 7.41435 6.85841 7.4209L6.62696 7.62305C6.55167 7.69189 6.47743 7.76198 6.40528 7.83399C6.26125 7.97783 6.12422 8.12685 5.99513 8.28028C5.93087 8.35664 5.86771 8.43536 5.80665 8.51465L5.62892 8.75586C5.57236 8.83639 5.51711 8.9187 5.46388 9.00196L5.30958 9.25586C5.26104 9.33942 5.21402 9.42459 5.16896 9.51075L5.0381 9.77442C4.99713 9.86172 4.95794 9.95011 4.92091 10.0391L4.81544 10.3086C4.75003 10.4873 4.69227 10.6694 4.64259 10.8535C4.59361 11.035 4.55254 11.2201 4.51954 11.4053C4.50328 11.4963 4.48888 11.5895 4.47657 11.6816L4.44532 11.959C4.42906 12.1416 4.42098 12.3256 4.42091 12.5088V12.5107C4.42067 12.6866 4.42774 12.8632 4.44239 13.0391C4.44362 13.05 4.44539 13.0645 4.44728 13.0811C4.45221 13.1244 4.45979 13.1845 4.46778 13.25C4.48395 13.3825 4.4997 13.503 4.51075 13.5703C4.51373 13.5837 4.51776 13.5993 4.52149 13.6162C4.53535 13.6789 4.55382 13.7632 4.57228 13.8467C4.59068 13.93 4.60923 14.0136 4.62306 14.0762C4.62747 14.0962 4.63145 14.1148 4.63478 14.1299C4.6534 14.1953 4.68709 14.3043 4.7256 14.4229C4.75056 14.4997 4.77247 14.5647 4.78614 14.6055L4.87989 14.8467C4.91293 14.9264 4.94794 15.0059 4.98439 15.084L5.09767 15.3135C5.13706 15.389 5.17842 15.4639 5.22071 15.5371C5.26256 15.6095 5.30547 15.6813 5.3506 15.752L5.49122 15.9619L5.4922 15.9639C5.58642 16.0984 5.68855 16.2308 5.79493 16.3574L5.95704 16.542L6.12794 16.7188C6.24201 16.8325 6.36126 16.9422 6.48439 17.0449L6.48829 17.0479C6.60586 17.1465 6.73064 17.242 6.85939 17.332L6.81251 17.3008C6.80984 17.2991 6.80719 17.2978 6.80567 17.2969C6.80734 17.2979 6.81051 17.2998 6.81349 17.3018C6.81988 17.3059 6.83042 17.313 6.84278 17.3213C6.85224 17.3277 6.86401 17.3356 6.87696 17.3447C6.87266 17.3417 6.86822 17.3387 6.86427 17.3359C6.92917 17.3811 6.99632 17.4248 7.06251 17.4668L7.26271 17.5879L7.26564 17.5898C7.39254 17.663 7.52393 17.731 7.65821 17.7939C7.66737 17.7979 7.68017 17.804 7.69532 17.8106C7.7304 17.8257 7.77878 17.8467 7.83204 17.8691C7.95114 17.9194 8.05507 17.9613 8.10255 17.9785L8.31544 18.0508C8.38729 18.0732 8.46031 18.0939 8.53321 18.1133C8.67317 18.1506 8.81663 18.1813 8.96192 18.207C8.96876 18.2081 8.97675 18.2097 8.98536 18.2109C9.02184 18.2163 9.07257 18.2238 9.12794 18.2314C9.18375 18.2392 9.24221 18.2474 9.29493 18.2539C9.35028 18.2607 9.38637 18.2642 9.40333 18.2656H9.40528C9.54912 18.278 9.69308 18.2844 9.83497 18.2842C9.97707 18.284 10.1216 18.277 10.2617 18.2647C10.401 18.2523 10.5412 18.2344 10.6787 18.21C10.6928 18.2075 10.7263 18.2007 10.7783 18.1895C10.8273 18.1789 10.8815 18.1664 10.9336 18.1543C10.985 18.1424 11.0316 18.1312 11.0654 18.1231C11.0753 18.1207 11.0845 18.119 11.0918 18.1172C11.0942 18.1166 11.0963 18.1149 11.0986 18.1143C11.1011 18.114 11.1036 18.1147 11.1055 18.1143C11.1074 18.1138 11.109 18.1127 11.1104 18.1123C11.1094 18.1126 11.1079 18.1129 11.1065 18.1133C11.1057 18.1135 11.1038 18.1129 11.1016 18.1133C11.2252 18.0795 11.3486 18.0414 11.4678 17.9981C11.5914 17.9531 11.7159 17.9021 11.8369 17.8457L11.8389 17.8447C11.9562 17.7902 12.0724 17.7299 12.1865 17.6641C12.2986 17.5995 12.4081 17.5302 12.5127 17.457C12.6102 17.3889 12.7058 17.3142 12.7998 17.2363C12.8239 17.2151 12.8617 17.1828 12.9141 17.1357C12.9507 17.1029 12.9887 17.0683 13.0225 17.0371C13.0476 17.0139 13.0655 16.9956 13.0772 16.9844C13.0817 16.9796 13.0877 16.9741 13.0938 16.9678C13.1157 16.9446 13.1467 16.9132 13.1797 16.8779C13.213 16.8423 13.2469 16.805 13.2774 16.7715C13.3098 16.7357 13.3296 16.7137 13.3369 16.7051C13.4142 16.6132 13.4873 16.5173 13.5557 16.4199C13.6185 16.3305 13.6779 16.2375 13.7344 16.1416C13.7378 16.1354 13.7429 16.1276 13.7481 16.1182C13.7626 16.0915 13.783 16.0543 13.8047 16.0137C13.8267 15.9725 13.8495 15.9298 13.8692 15.8916C13.8902 15.8508 13.9013 15.826 13.9053 15.8174C13.9061 15.8156 13.9073 15.8135 13.9082 15.8115C13.9201 15.7842 13.9364 15.7457 13.9541 15.7041C13.972 15.6622 13.99 15.6188 14.0059 15.5801C14.0227 15.539 14.0322 15.515 14.0352 15.5068L14.0361 15.5039C14.074 15.4007 14.1078 15.2955 14.1367 15.1885C14.1645 15.0858 14.1878 14.9797 14.207 14.8721C14.2254 14.7693 14.2396 14.6621 14.249 14.5566C14.2583 14.4532 14.2636 14.3481 14.2637 14.2451L14.25 13.9404C14.2416 13.8431 14.2293 13.7437 14.2119 13.6445C14.1954 13.5503 14.1737 13.4549 14.1484 13.3604C14.1247 13.2715 14.0952 13.1779 14.0625 13.0879C14.0621 13.0868 14.0604 13.081 14.0567 13.0713C14.0524 13.0605 14.0466 13.0463 14.04 13.0303C14.0268 12.9977 14.0114 12.9608 13.9961 12.9248C13.9809 12.889 13.9663 12.8557 13.9561 12.832C13.9546 12.8286 13.9525 12.8253 13.9512 12.8223C13.9505 12.8209 13.95 12.819 13.9492 12.8174C13.9442 12.8072 13.9375 12.7935 13.9297 12.7783C13.9139 12.7476 13.896 12.7127 13.8779 12.6787L13.8311 12.5918L13.6904 12.3711L13.6885 12.3672C13.6393 12.2969 13.5866 12.2295 13.5322 12.165C13.4774 12.0999 13.4203 12.0371 13.3623 11.9795L13.3574 11.9756L13.1817 11.8145C13.1215 11.7641 13.0565 11.7146 12.9912 11.6689L12.7959 11.5449C12.7303 11.5072 12.6639 11.4729 12.5977 11.4424C12.58 11.4343 12.5623 11.4257 12.5449 11.417C12.2149 11.2512 11.6409 11.1397 11.1856 11.1397V7.63965C11.9941 7.63967 13.118 7.80447 14.0615 8.26368C14.0683 8.26681 14.0762 8.27028 14.083 8.27344C14.0937 8.27868 14.1047 8.28375 14.1152 8.28907C14.2616 8.35824 14.4036 8.43205 14.542 8.51172C14.6955 8.60011 14.8473 8.69559 14.9951 8.79883L14.9961 8.79981C15.1422 8.90193 15.2879 9.01286 15.4277 9.12989L15.6338 9.31055C15.7001 9.37113 15.7656 9.43366 15.8291 9.49707C15.9624 9.62958 16.0891 9.7672 16.208 9.90821L16.3867 10.1309C16.4436 10.2049 16.4992 10.2801 16.5527 10.3564C16.664 10.5146 16.767 10.6766 16.8613 10.8398C16.8675 10.8506 16.8739 10.8622 16.8799 10.8731L16.8809 10.874C16.8813 10.8747 16.8822 10.8759 16.8828 10.877C16.8841 10.8793 16.8856 10.8829 16.8877 10.8867C16.8922 10.8949 16.8987 10.907 16.9063 10.9209C16.9216 10.9491 16.9434 10.9892 16.9668 11.0332L17.1279 11.3506L17.1436 11.3857L17.1445 11.3877C17.1448 11.3884 17.1451 11.3897 17.1455 11.3906C17.1467 11.3932 17.1486 11.3972 17.1504 11.4014C17.1542 11.4101 17.1596 11.4228 17.166 11.4375C17.179 11.4674 17.197 11.5092 17.2168 11.5557L17.3525 11.8926L17.4473 12.1719C17.477 12.266 17.5047 12.362 17.5303 12.458L17.6006 12.7471C17.622 12.844 17.642 12.9418 17.6592 13.04L17.7041 13.3379C17.7171 13.4371 17.7286 13.5373 17.7373 13.6377L17.7568 13.9443C17.7611 14.0456 17.7637 14.1467 17.7637 14.2471C17.7636 14.3509 17.7606 14.4551 17.7559 14.5586L17.7354 14.8682C17.717 15.0731 17.6892 15.281 17.6524 15.4873C17.6157 15.6925 17.5706 15.898 17.5156 16.1016C17.4603 16.3063 17.3956 16.5092 17.3223 16.709C17.2559 16.8904 17.1263 17.1862 17.0723 17.3037L17.0742 17.3047C17.0718 17.3097 17.0689 17.315 17.0664 17.3203C17.062 17.3299 17.0585 17.3381 17.0557 17.3438L17.0537 17.3428C16.9746 17.5061 16.8398 17.7559 16.7676 17.8818L16.7705 17.8838C16.7163 17.977 16.66 18.0699 16.6016 18.1611L16.4199 18.4316C16.2921 18.6136 16.1564 18.7904 16.0137 18.96C15.8586 19.144 15.5798 19.4339 15.5606 19.4531L15.5567 19.457C15.46 19.5531 15.3331 19.6683 15.2529 19.7402C15.1835 19.8026 15.1109 19.8663 15.0986 19.877C15.0852 19.8889 15.0714 19.9006 15.0576 19.9121C14.8851 20.0561 14.7054 20.1946 14.5186 20.3252L14.5176 20.3242C14.3282 20.4567 14.1341 20.5809 13.9356 20.6953C13.7341 20.8115 13.5264 20.9197 13.3135 21.0186C13.1028 21.1167 12.8853 21.2057 12.6641 21.2861L12.665 21.2871C12.4436 21.3677 12.2168 21.4397 11.9883 21.501L11.9873 21.5C11.9826 21.5013 11.9764 21.5042 11.9736 21.5049C11.9687 21.5062 11.9641 21.5066 11.9629 21.5068C11.9601 21.5076 11.9577 21.5086 11.957 21.5088C11.9554 21.5092 11.9539 21.5096 11.9531 21.5098C11.9513 21.5102 11.9491 21.5103 11.9473 21.5107C11.9435 21.5117 11.9386 21.5132 11.9326 21.5147C11.9206 21.5176 11.9033 21.5215 11.8828 21.5264C11.8421 21.5361 11.7855 21.5499 11.7227 21.5645C11.6094 21.5907 11.4307 21.6301 11.2881 21.6553L11.2891 21.6563C11.0514 21.6984 10.8109 21.7297 10.5703 21.751C10.3289 21.7723 10.0841 21.7829 9.84083 21.7832C9.59434 21.7836 9.34808 21.7736 9.10645 21.7529C8.83817 21.7301 8.39367 21.6618 8.37794 21.6592C8.37309 21.6584 8.36814 21.6571 8.36329 21.6563C8.24106 21.6348 8.11878 21.6108 7.99708 21.584L7.63282 21.4951C7.39256 21.4311 7.14942 21.3562 6.91017 21.2695C6.76739 21.2178 6.58791 21.1428 6.47169 21.0938C6.40766 21.0667 6.34983 21.0422 6.3086 21.0244C6.28832 21.0157 6.27163 21.0081 6.25978 21.0029C6.25393 21.0004 6.24852 20.9985 6.24513 20.9971C6.24358 20.9964 6.24217 20.9956 6.24122 20.9951L6.24024 20.9941C6.22854 20.989 6.21571 20.9839 6.20411 20.9785C5.97228 20.8709 5.74377 20.7516 5.52052 20.6231C5.3158 20.5056 5.11692 20.3803 4.92384 20.2481C4.92228 20.2471 4.91917 20.2452 4.91603 20.2432C4.90973 20.2391 4.8993 20.2321 4.88673 20.2236C4.8805 20.2194 4.87308 20.2144 4.86524 20.209C4.86436 20.2084 4.8632 20.2076 4.86231 20.207L4.84669 20.1953C4.84453 20.1938 4.84214 20.192 4.83985 20.1904L4.82228 20.1777C4.6225 20.0367 4.42654 19.8875 4.23829 19.7295C4.03663 19.561 3.84191 19.3824 3.65626 19.1973C3.46929 19.0109 3.28783 18.8134 3.11622 18.6094C2.94511 18.4058 2.77955 18.1915 2.62501 17.9707L2.62599 17.9697C2.47159 17.7496 2.32548 17.5226 2.19044 17.2891L2.18946 17.2881C2.05423 17.054 1.92772 16.8104 1.81251 16.5635C1.69654 16.3149 1.59095 16.0613 1.49708 15.8037C1.4916 15.7887 1.48651 15.773 1.48146 15.7578C1.4783 15.7486 1.44019 15.6354 1.39747 15.5039C1.35435 15.3711 1.2904 15.1703 1.24806 15.0127C1.24135 14.9877 1.23509 14.9618 1.2295 14.9365L1.22853 14.9356C1.22826 14.9343 1.22803 14.931 1.22755 14.9287C1.22648 14.9239 1.22465 14.9162 1.22267 14.9072C1.21866 14.8891 1.21289 14.8629 1.20606 14.832C1.19222 14.7694 1.17375 14.6851 1.15528 14.6016C1.13148 14.4938 1.07373 14.2379 1.06349 14.1768L1.06446 14.1758C1.03685 14.0149 1.00992 13.8111 0.993174 13.6738C0.983798 13.597 0.975418 13.5274 0.969736 13.4775C0.966906 13.4527 0.964494 13.4313 0.9629 13.417C0.962146 13.4102 0.961371 13.4042 0.960947 13.4004C0.961116 13.4013 0.961641 13.4028 0.961924 13.4053C0.962135 13.4073 0.96255 13.4121 0.9629 13.415L0.973643 13.4912C0.966026 13.4455 0.961004 13.3987 0.957041 13.3525C0.932936 13.0712 0.920498 12.7879 0.920908 12.5049C0.92108 12.219 0.933654 11.9329 0.958994 11.6484C0.98447 11.3628 1.02346 11.0741 1.07423 10.79C1.12511 10.5047 1.18819 10.2211 1.26368 9.94141C1.33968 9.65978 1.42784 9.38103 1.52833 9.10645C1.62976 8.82906 1.74435 8.55617 1.87013 8.28809C1.99574 8.0202 2.13331 7.75611 2.28321 7.49805L2.51563 7.11621C2.5959 6.99069 2.67889 6.86626 2.76466 6.74414C2.76535 6.74316 2.76683 6.74218 2.76759 6.74121C2.9401 6.49624 3.12283 6.25742 3.31642 6.02735C3.51254 5.79423 3.7189 5.57085 3.93263 5.35743L4.26563 5.04004C4.37867 4.9367 4.49391 4.83564 4.61134 4.73731L4.64063 4.71289L4.64259 4.71094L4.66212 4.69629C4.67464 4.68632 4.69209 4.67156 4.71388 4.6543C4.75755 4.6197 4.81866 4.5716 4.88673 4.51856L5.34669 4.17383C5.60035 3.9965 5.86247 3.8299 6.13185 3.67481C6.40295 3.51831 6.68085 3.37394 6.96388 3.24219C7.25042 3.10848 7.54207 2.98808 7.83692 2.88086C8.13468 2.77236 8.43688 2.67692 8.74317 2.59473L8.77931 2.58496H8.78224C8.78349 2.58465 8.78502 2.58352 8.78712 2.58301C8.79165 2.58191 8.79856 2.58107 8.80665 2.57911C8.82284 2.57517 8.84583 2.56927 8.87403 2.5625C8.93035 2.54898 9.00839 2.52999 9.09571 2.50977C9.25805 2.47218 9.49607 2.41902 9.67872 2.38672L9.71583 2.38086L9.71876 2.37989C9.72008 2.37968 9.72241 2.37925 9.72462 2.37891C9.72913 2.37822 9.7354 2.37716 9.74317 2.37598C9.7597 2.37347 9.7837 2.37052 9.81251 2.36621C9.87022 2.35759 9.95061 2.34564 10.04 2.33301C10.2063 2.30953 10.4486 2.27619 10.6338 2.25977C10.9568 2.23112 11.2808 2.2181 11.6045 2.21778L11.6055 2.2168ZM4.82521 20.1797C4.82956 20.1829 4.83384 20.1865 4.8379 20.1895L4.83985 20.1904C4.83461 20.1866 4.82801 20.182 4.82228 20.1777C4.82315 20.1784 4.82433 20.1791 4.82521 20.1797ZM11.0811 18.1201C11.0704 18.123 11.0204 18.1379 10.9815 18.1504C11.0146 18.1393 11.0473 18.1292 11.0811 18.1201ZM11.0986 18.1143L11.0967 18.1152C11.0985 18.1148 11.1001 18.1136 11.1016 18.1133C11.1006 18.1136 11.0996 18.114 11.0986 18.1143ZM13.7412 16.1309C13.7381 16.1363 13.7353 16.14 13.7344 16.1416C13.7381 16.1354 13.7424 16.1303 13.7461 16.124L13.751 16.1152C13.7482 16.12 13.743 16.1279 13.7412 16.1309ZM4.50001 13.5195C4.49968 13.518 4.49994 13.5163 4.50001 13.5156L4.49903 13.5137C4.49923 13.5148 4.49954 13.5174 4.50001 13.5195Z" fill="black"/>
</svg>
