<svg width="24" height="24" viewBox="0 0 24 24" fill="none" xmlns="http://www.w3.org/2000/svg">
<path d="M19.6878 12.8961C19.6363 11.7781 19.2758 11.1001 19.1879 10.8587C19.0915 10.5939 18.9835 10.3331 18.8641 10.0779C18.746 9.82455 18.6167 9.57617 18.4768 9.33442C18.3382 9.09457 18.1887 8.86033 18.0293 8.63316C17.8715 8.40805 17.7033 8.18976 17.5263 7.97931C17.361 7.78222 17.0179 7.42383 16.9647 7.36839C16.7813 7.18674 16.4206 6.87033 16.3613 6.81869C16.1628 6.65325 15.9573 6.49625 15.7458 6.34805C15.7458 6.34805 15.0445 5.9031 15.0313 5.89559C14.8084 5.77007 14.4088 5.57298 14.34 5.53936C14.1088 5.43271 13.8731 5.33572 13.6327 5.24856C13.5618 5.22468 13.1179 5.07587 12.8823 5.01328C12.633 4.94689 12.3809 4.89146 12.1269 4.84714C11.8778 4.80369 11.6266 4.77102 11.3732 4.74894C11.2996 4.7442 10.8443 4.71592 10.6067 4.71627C10.3556 4.71653 10.104 4.72765 9.8538 4.74998C9.62007 4.77067 9.1727 4.83895 9.10261 4.8499C8.87061 4.8918 8.44592 4.99526 8.37608 5.01259C8.1446 5.07509 7.91553 5.14769 7.69016 5.22985C7.46239 5.3127 7.23771 5.40555 7.01804 5.50798C6.8006 5.60928 6.58662 5.72049 6.37884 5.84059C6.17288 5.95913 5.97148 6.08734 5.77672 6.22347C5.59438 6.35072 5.25978 6.61781 5.20426 6.66238C5.0289 6.80981 4.86001 6.96431 4.69792 7.12613C4.53429 7.28951 4.37755 7.45978 4.22883 7.63652C4.08158 7.81153 3.94157 7.99336 3.80992 8.18044C3.67991 8.36555 3.55748 8.55703 3.44385 8.75282C3.33117 8.9468 3.22711 9.14613 3.13193 9.34916C3.03744 9.55047 2.95191 9.75584 2.8757 9.96448C2.80009 10.1709 2.73362 10.3806 2.67629 10.593C2.61973 10.8027 2.57223 11.0152 2.53403 11.2292C2.49619 11.4411 2.46748 11.6565 2.44842 11.8697C2.42954 12.0817 2.42006 12.295 2.41989 12.508C2.41963 12.7184 2.42851 12.9292 2.44653 13.1388C2.44653 13.1388 2.49179 13.5544 2.52765 13.759C2.52765 13.759 2.64146 14.2714 2.66835 14.3897C2.72483 14.5925 2.84518 14.9473 2.84518 14.9473C2.91424 15.137 2.99157 15.3235 3.07684 15.5062C3.16107 15.6869 3.25427 15.8655 3.35341 16.0372C3.45204 16.2079 3.5586 16.3745 3.67189 16.536C3.78371 16.6957 3.90372 16.8516 4.02847 17.0001C4.15279 17.148 4.28479 17.2913 4.42066 17.4268C4.55576 17.5614 4.6968 17.6902 4.8432 17.8124L4.84466 17.8137C4.98804 17.9339 5.13822 18.0487 5.29246 18.1563C5.44523 18.2626 5.60309 18.3629 5.76439 18.4555C5.92208 18.5463 6.08434 18.6305 6.24926 18.7072C6.30685 18.7323 6.60274 18.861 6.76069 18.9182C6.92967 18.9794 7.10279 19.0333 7.27521 19.0792C7.44661 19.1248 7.6199 19.1628 7.79483 19.1936C7.79483 19.1936 8.14348 19.2466 8.31849 19.2615C8.49006 19.2761 8.66352 19.2837 8.83638 19.2835C9.00752 19.2832 9.18003 19.2754 9.34936 19.2605C9.51765 19.2456 9.68594 19.2233 9.85207 19.1938C10.0148 19.165 10.3396 19.0853 10.3396 19.0853C10.4982 19.0428 10.6558 18.9931 10.8091 18.9373C10.9616 18.8819 11.1125 18.8192 11.2591 18.7508C11.4042 18.6835 11.5467 18.6094 11.6853 18.5293C11.8219 18.4506 11.9554 18.3658 12.0848 18.2754C12.2118 18.1865 12.3352 18.0919 12.4543 17.9924C12.4543 17.9924 12.6853 17.7901 12.7934 17.6827C12.7934 17.6827 13.0035 17.4637 13.1001 17.3489C13.1961 17.2349 13.2875 17.1164 13.3731 16.9946C13.4569 16.8751 13.5356 16.7521 13.609 16.6259C13.609 16.6259 13.7491 16.3716 13.81 16.2418C13.81 16.2418 13.9254 15.9807 13.9739 15.8481C14.0219 15.7169 14.0643 15.5836 14.1007 15.4488C14.1365 15.3165 14.1664 15.1817 14.1905 15.0466C14.2143 14.9135 14.2322 14.7784 14.2441 14.6448C14.256 14.5119 14.2621 14.3786 14.2622 14.2452C14.2623 14.1145 14.2568 13.9836 14.2455 13.8535C14.2345 13.7258 14.2176 13.5979 14.1955 13.4716C14.1737 13.3475 14.1464 13.2238 14.1138 13.1021C14.0818 12.9822 14.0437 12.8616 14.0016 12.7457C13.967 12.6506 13.8814 12.4535 13.8618 12.4086C13.8598 12.4042 13.8577 12.3994 13.8577 12.3994C13.8134 12.3066 13.7181 12.1312 13.696 12.0908C13.6937 12.0866 13.6913 12.0823 13.6913 12.0823C13.634 11.984 13.5726 11.8877 13.5072 11.7947L13.5062 11.7933C13.44 11.6988 13.3698 11.6073 13.2956 11.5194C13.2229 11.4331 13.1463 11.3497 13.0662 11.27L13.0642 11.268C12.9881 11.1918 12.9056 11.1167 12.8222 11.0469C12.7386 10.977 12.6508 10.91 12.5626 10.8483C12.4756 10.7876 12.3858 10.7307 12.2938 10.6777C12.2031 10.6256 12.1103 10.5774 12.0152 10.5336C12.0075 10.53 11.9998 10.5263 11.9923 10.5225C11.4514 10.2508 10.7237 10.139 10.1849 10.139V8.63902C10.9212 8.63902 11.911 8.80679 12.6487 9.17389C12.783 9.23597 12.9141 9.30399 13.0422 9.37779C13.1721 9.45254 13.2987 9.53289 13.4216 9.61867C13.5451 9.70497 13.668 9.79877 13.7849 9.89663C13.9021 9.99474 14.0178 10.1002 14.1247 10.2072C14.2356 10.3175 14.3416 10.4328 14.4424 10.5525C14.5453 10.6745 14.6427 10.8011 14.7345 10.9322C14.8272 11.064 14.9139 11.2003 14.9945 11.3397C14.9988 11.3472 15.003 11.3547 15.0071 11.3622C15.0323 11.4082 15.1608 11.6451 15.2206 11.7731C15.2244 11.7811 15.228 11.7892 15.2315 11.7973C15.253 11.8462 15.3621 12.0978 15.4114 12.2335C15.4683 12.3902 15.5198 12.553 15.5631 12.7151C15.607 12.8793 15.6437 13.0453 15.6729 13.2125C15.7027 13.3821 15.7252 13.5529 15.7399 13.7244C15.755 13.8978 15.7623 14.072 15.7621 14.2464C15.7621 14.4239 15.754 14.6015 15.7382 14.7783C15.7223 14.9555 15.6987 15.1341 15.6671 15.3105C15.6353 15.4887 15.5959 15.6657 15.5488 15.8401C15.501 16.0169 15.4457 16.1912 15.3826 16.3632C15.319 16.5374 15.1679 16.8792 15.1679 16.8792C15.0883 17.0487 14.9053 17.3808 14.9053 17.3808C14.8103 17.5437 14.7089 17.7024 14.6006 17.8566C14.4898 18.0143 14.3717 18.1677 14.2474 18.3153C14.1224 18.4636 13.8507 18.7468 13.8507 18.7468C13.7121 18.8845 13.4157 19.1438 13.4157 19.1438C13.2637 19.2707 13.1066 19.3912 12.9443 19.5046C12.7791 19.6201 12.609 19.7282 12.4347 19.8288C12.2579 19.9308 12.0769 20.0249 11.8919 20.1109C11.706 20.1974 11.5152 20.2766 11.3219 20.3469C11.1281 20.4174 10.9289 20.4803 10.7284 20.5341C10.7284 20.5341 10.3188 20.6345 10.1134 20.6708C9.9044 20.7079 9.69301 20.736 9.48135 20.7547C9.269 20.7734 9.05304 20.7832 8.83845 20.7834C8.62231 20.7838 8.40583 20.7745 8.19133 20.7561C7.97182 20.7375 7.53532 20.671 7.53532 20.671C7.3178 20.6328 7.10227 20.5855 6.88915 20.5287C6.67499 20.4717 6.45997 20.4046 6.25013 20.3286C6.0652 20.2616 5.65068 20.0826 5.65068 20.0826L5.93924 20.1402L5.62352 20.0705C5.41678 19.9746 5.21409 19.8695 5.01657 19.7557C4.81785 19.6416 4.62421 19.5187 4.43601 19.3877L4.43385 19.3862C4.2434 19.2534 4.05839 19.1119 3.8813 18.9634C3.7012 18.8131 3.52774 18.6547 3.3616 18.4891C3.19478 18.3227 3.03287 18.1468 2.88027 17.9652C2.72733 17.7833 2.58059 17.5926 2.44342 17.3967C2.30505 17.1995 2.17521 16.9962 2.05468 16.7876C1.93372 16.5782 1.82018 16.3606 1.71741 16.1403C1.61378 15.918 1.51981 15.6913 1.43575 15.4607C1.43575 15.4607 1.27651 14.9913 1.21245 14.7524C1.20961 14.7417 1.20694 14.7308 1.20452 14.72L1.05011 14.018C1.00675 13.7702 0.952002 13.267 0.952002 13.267C0.930276 13.0142 0.919585 12.7604 0.91993 12.5065C0.920016 12.2494 0.931483 11.9924 0.954329 11.7364C0.977262 11.4798 1.01183 11.2207 1.05736 10.9657C1.10322 10.7087 1.16021 10.4539 1.22815 10.2021C1.29686 9.94766 1.37635 9.69652 1.46705 9.44909C1.55843 9.19898 1.66068 8.95336 1.77397 8.71213C1.88768 8.46943 2.01201 8.23148 2.14667 7.99965C2.28194 7.76662 2.4273 7.53927 2.58205 7.31882L2.58369 7.31649C2.74017 7.09423 2.90613 6.8787 3.08123 6.67066C3.2578 6.46082 3.44385 6.25856 3.63818 6.06449C3.83458 5.86852 4.03925 5.68144 4.25202 5.50332C4.25625 5.49978 4.26047 5.49634 4.26478 5.49289C4.26478 5.49289 4.69301 5.1507 4.91777 4.99379C5.14831 4.83257 5.38583 4.68144 5.62956 4.54108C5.87527 4.39917 6.12727 4.26821 6.38428 4.14846C6.64352 4.0275 6.90811 3.91818 7.17693 3.82042C7.4479 3.72162 7.72301 3.63471 8.00148 3.56005C8.00666 3.55867 8.01183 3.55729 8.017 3.556C8.017 3.556 8.57127 3.42056 8.85164 3.37098C8.85699 3.37003 8.86242 3.36909 8.86785 3.36831C8.86785 3.36831 9.43574 3.28106 9.72128 3.2558C10.0151 3.22968 10.3099 3.21657 10.6047 3.21631C10.8966 3.2158 11.4794 3.25261 11.4794 3.25261C11.485 3.25296 11.4905 3.25339 11.496 3.2539C11.7938 3.2796 12.0903 3.31813 12.3845 3.36943C12.6816 3.42125 12.9763 3.48608 13.268 3.56367C13.5558 3.64023 14.1216 3.83042 14.1216 3.83042C14.1267 3.83223 14.1319 3.83404 14.1371 3.83585C14.4242 3.93974 14.7069 4.05621 14.9839 4.1845C14.989 4.18691 14.9941 4.18933 14.9992 4.19183C14.9992 4.19183 15.5429 4.45935 15.8051 4.61005C15.8146 4.61557 15.824 4.62118 15.8332 4.62704L16.5642 5.09087C16.5736 5.09682 16.5828 5.10294 16.5919 5.10923C16.8475 5.28787 17.0956 5.47737 17.335 5.67756C17.3392 5.68109 17.3434 5.68463 17.3475 5.68825C17.3475 5.68825 17.8127 6.0957 18.0315 6.31382C18.0354 6.31761 18.0391 6.32149 18.0429 6.32546C18.0429 6.32546 18.4744 6.77576 18.6748 7.01431C18.8799 7.25821 19.0743 7.51082 19.2573 7.7717C19.4088 7.98758 19.5525 8.2089 19.6878 8.43478V6.47564H21.1878V16.1054C21.1879 16.7568 21.4466 17.3815 21.9072 17.842C22.3678 18.3026 22.9924 18.5614 23.6439 18.5614L23.6443 20.0614C22.5951 20.0614 21.5884 19.6446 20.8465 18.9027C20.1046 18.1608 19.6878 17.1546 19.6878 16.1054V12.8961Z" fill="black"/>
</svg>
