<svg width="24" height="24" viewBox="0 0 24 24" fill="none" xmlns="http://www.w3.org/2000/svg">
<path d="M18.9386 12.9148C18.8895 11.9269 18.5618 11.3293 18.4838 11.1152C18.395 10.8713 18.2957 10.6311 18.1857 10.396L18.185 10.3944C18.0762 10.1611 17.9571 9.93256 17.8282 9.70978C17.7006 9.48898 17.5628 9.27293 17.416 9.06386C17.2708 8.85677 17.1157 8.65538 16.9529 8.46174C16.8046 8.28509 16.5039 7.9704 16.4282 7.89186C16.2607 7.72711 15.9509 7.45519 15.8692 7.38432C15.6949 7.23965 15.5149 7.10214 15.3299 6.97187C15.3299 6.97187 14.6599 6.54683 14.6432 6.53735C14.4406 6.42458 14.105 6.25897 14.0116 6.21344C13.8069 6.11956 13.5984 6.03386 13.3789 5.9542C13.2793 5.92066 12.8983 5.79332 12.6903 5.73806C12.4621 5.67736 12.2314 5.6265 11.9988 5.58598C11.7736 5.54675 11.5465 5.51701 11.3105 5.49631C11.2074 5.48976 10.8176 5.46588 10.6084 5.46631C10.3792 5.46648 10.1491 5.47666 9.92081 5.497C9.71243 5.51545 9.32274 5.57477 9.21299 5.59227C9.00185 5.63193 8.65105 5.71728 8.55664 5.74082C8.35119 5.79686 8.14764 5.8616 7.94754 5.93454C7.74028 6.00989 7.53543 6.09455 7.33567 6.18775C7.13807 6.27974 6.94392 6.3807 6.75511 6.48976L6.75312 6.49088C6.5663 6.59839 6.3837 6.71478 6.20696 6.83833C6.04444 6.9517 5.75209 7.18491 5.67545 7.24672C5.52078 7.37725 5.37171 7.5139 5.22851 7.65684C5.08022 7.80487 4.93814 7.95928 4.80339 8.11947C4.66993 8.27793 4.54345 8.44234 4.42413 8.61175C4.30654 8.77927 4.19601 8.95221 4.09316 9.12938C3.99151 9.3044 3.89754 9.48441 3.81167 9.6677C3.72657 9.84893 3.64941 10.0343 3.5807 10.2221C3.51268 10.408 3.45276 10.5972 3.40111 10.7883C3.35016 10.9771 3.3074 11.1683 3.27309 11.361C3.23903 11.5512 3.21325 11.7449 3.19618 11.9363C3.1792 12.1264 3.17075 12.3171 3.17066 12.5079V12.5095C3.17032 12.6981 3.17834 12.8868 3.19446 13.0746C3.19446 13.0746 3.2311 13.4105 3.26222 13.601C3.28421 13.7004 3.39439 14.1984 3.39775 14.2104C3.44991 14.3936 3.55061 14.6905 3.55061 14.6905C3.61217 14.8597 3.68122 15.0262 3.75727 15.1892C3.83227 15.3501 3.91521 15.5091 4.00358 15.6619C4.09117 15.8136 4.18609 15.962 4.28679 16.1055C4.38603 16.2472 4.49267 16.3858 4.60337 16.5175C4.71355 16.6486 4.83046 16.7756 4.95099 16.8956C5.07031 17.0147 5.19497 17.1286 5.32447 17.2365L5.3274 17.239C5.45379 17.3451 5.58587 17.446 5.72192 17.541C5.85693 17.6349 5.99565 17.723 6.13816 17.8048L6.13997 17.8058C6.27334 17.8827 6.40999 17.9538 6.54923 18.0195C6.60199 18.0424 6.87227 18.1607 7.01668 18.213C7.16523 18.2667 7.3174 18.3141 7.46896 18.3545C7.61941 18.3946 7.77175 18.4279 7.92529 18.4549C7.92529 18.4549 8.23006 18.5012 8.38283 18.5142C8.53276 18.527 8.68493 18.5336 8.83606 18.5334C8.98547 18.5332 9.13626 18.5264 9.28412 18.5134C9.43059 18.5004 9.5775 18.4809 9.72208 18.4553C9.86348 18.4303 10.146 18.3609 10.146 18.3609C10.2836 18.324 10.4204 18.2809 10.5534 18.2325C10.6854 18.1845 10.8156 18.1304 10.9425 18.0713L10.9443 18.0704C11.0694 18.0123 11.192 17.9485 11.3114 17.8796C11.429 17.8118 11.5444 17.7386 11.6557 17.6606C11.7652 17.5842 11.8717 17.5024 11.9743 17.4167C11.9743 17.4167 12.1726 17.2429 12.2655 17.1507C12.2655 17.1507 12.4447 16.9637 12.5272 16.8657C12.6091 16.7685 12.687 16.6674 12.7599 16.5635C12.8317 16.4614 12.8988 16.3563 12.9617 16.2484C12.9617 16.2484 13.0802 16.033 13.1319 15.9232C13.1319 15.9232 13.229 15.7032 13.2699 15.5913L13.2706 15.5893C13.3111 15.4789 13.3467 15.3667 13.3774 15.2531C13.4075 15.1419 13.4327 15.0282 13.4529 14.9146C13.4728 14.8033 13.4878 14.6899 13.4978 14.578C13.5078 14.4672 13.5128 14.3559 13.5128 14.2446C13.5129 14.1358 13.5085 14.0272 13.4991 13.9189L13.499 13.9174C13.4898 13.8116 13.4759 13.7057 13.4575 13.6011C13.4396 13.4987 13.4168 13.396 13.3899 13.2955C13.3636 13.1968 13.332 13.0972 13.2974 13.0019C13.2707 12.9283 13.2088 12.785 13.1831 12.7263C13.1777 12.7143 13.1735 12.7052 13.1712 12.7005C13.1351 12.6273 13.0741 12.5151 13.0475 12.4663C13.041 12.4548 13.0362 12.4464 13.0339 12.4424C12.9904 12.3685 12.9438 12.2964 12.8945 12.2263L12.8924 12.2234C12.8393 12.1474 12.7826 12.0735 12.723 12.0029C12.6645 11.9334 12.6027 11.866 12.5383 11.802L12.5343 11.7981C12.4737 11.7374 12.4079 11.6776 12.3415 11.622C12.2746 11.5661 12.2044 11.5124 12.1338 11.4631C12.0647 11.4149 11.9934 11.3697 11.9204 11.3277C11.8493 11.2868 11.7766 11.249 11.7022 11.2147C11.6867 11.2077 11.6714 11.2003 11.6563 11.1927C11.2167 10.9718 10.6235 10.8889 10.1857 10.8889V7.88893C11.0226 7.88893 12.1466 8.0855 12.9756 8.49838C13.1262 8.56839 13.2733 8.64494 13.4171 8.72771C13.5659 8.81341 13.7111 8.90548 13.8518 9.00385C13.9931 9.10248 14.1334 9.20965 14.267 9.32147C14.4008 9.43355 14.5329 9.55399 14.6551 9.67624C14.7813 9.80177 14.9018 9.9329 15.0165 10.0689C15.1337 10.2079 15.2445 10.3521 15.3491 10.5014C15.4543 10.6511 15.5528 10.8057 15.6445 10.9641C15.6517 10.9767 15.6588 10.9894 15.6657 11.0021C15.6935 11.0529 15.8348 11.3142 15.9007 11.4554C15.9071 11.4689 15.9132 11.4825 15.9191 11.4962C15.9428 11.5501 16.0627 11.8278 16.117 11.9773C16.1813 12.1544 16.2395 12.3384 16.2883 12.5217C16.3379 12.7069 16.3794 12.8944 16.4124 13.083C16.4459 13.274 16.4712 13.4665 16.4878 13.6597C16.5048 13.8549 16.513 14.0508 16.5128 14.2469C16.5128 14.4466 16.5037 14.6462 16.4859 14.845C16.4681 15.0439 16.4415 15.2445 16.4061 15.4424C16.3705 15.642 16.3264 15.8403 16.2735 16.0357C16.2201 16.2334 16.1582 16.4283 16.0878 16.6206C16.0165 16.8156 15.8475 17.1979 15.8475 17.1979C15.7586 17.3872 15.554 17.7582 15.554 17.7582C15.4484 17.9395 15.3356 18.116 15.2151 18.2876C15.0917 18.4633 14.9601 18.6341 14.8217 18.7984C14.6826 18.9636 14.3801 19.2787 14.3801 19.2787C14.2262 19.4316 13.8971 19.7195 13.8971 19.7195C13.7287 19.8601 13.5546 19.9936 13.3748 20.1192C13.1918 20.2472 13.0033 20.3671 12.81 20.4785C12.6142 20.5914 12.4139 20.6956 12.2089 20.7908C12.0036 20.8865 11.7926 20.974 11.5791 21.0517C11.365 21.1296 11.1449 21.199 10.9234 21.2585C10.9234 21.2585 10.4718 21.3692 10.2448 21.4093C10.0144 21.4502 9.7814 21.4811 9.54802 21.5017C9.31421 21.5224 9.07643 21.5331 8.8402 21.5334C8.60242 21.5338 8.36438 21.5235 8.12841 21.5034C7.88667 21.4829 7.40628 21.4097 7.40628 21.4097C7.16747 21.3677 6.93081 21.3157 6.69683 21.2533C6.46181 21.1908 6.22584 21.1172 5.99556 21.0338C5.79709 20.9619 5.35206 20.7702 5.35206 20.7702L5.93995 20.8901L5.30852 20.7508C5.08195 20.6456 4.85986 20.5305 4.64338 20.4059C4.42594 20.281 4.2142 20.1466 4.00832 20.0033L4.00548 20.0013C3.79701 19.8559 3.59449 19.7011 3.40077 19.5386C3.20394 19.3743 3.01436 19.2011 2.83279 19.0201C2.65053 18.8384 2.47362 18.6461 2.30688 18.4479C2.13989 18.2492 1.9797 18.041 1.82995 17.8271C1.67907 17.612 1.53742 17.3903 1.40603 17.1628C1.27421 16.9346 1.1504 16.6974 1.0385 16.4573C0.925558 16.2153 0.823222 15.9685 0.731748 15.7174C0.731748 15.7174 0.558544 15.2066 0.488796 14.9467C0.48302 14.9252 0.477761 14.9036 0.472933 14.8819L0.312143 14.1475C0.264898 13.8781 0.20541 13.3311 0.20541 13.3311C0.181874 13.0567 0.170235 12.7812 0.170666 12.5058C0.170752 12.2267 0.183253 11.9476 0.207997 11.6698C0.232826 11.3915 0.27033 11.1104 0.31973 10.8338C0.36939 10.5555 0.431119 10.2794 0.504746 10.0066C0.579149 9.73116 0.665277 9.45924 0.763389 9.19137C0.862363 8.92066 0.973062 8.65469 1.09566 8.39354C1.21869 8.13111 1.35318 7.87376 1.49871 7.62305C1.64484 7.37139 1.80184 7.12585 1.96892 6.8879L1.97116 6.88471C2.14006 6.64486 2.31913 6.41217 2.50811 6.18775C2.69864 5.96127 2.89935 5.74306 3.10902 5.53373C3.32085 5.32225 3.54173 5.12051 3.77132 4.92825C3.77968 4.92118 3.78813 4.91428 3.79667 4.90738C3.79667 4.90738 4.25067 4.54528 4.48905 4.37889C4.73735 4.20526 4.99315 4.04248 5.25567 3.89135C5.52017 3.73858 5.7914 3.59753 6.06815 3.46873C6.34706 3.33854 6.63174 3.22086 6.92107 3.11559C7.21247 3.00946 7.50836 2.91592 7.80787 2.83557C7.81822 2.83281 7.82865 2.83014 7.83899 2.82764C7.83899 2.82764 8.42516 2.68487 8.72165 2.63245C8.73243 2.63047 8.74321 2.62874 8.75407 2.62702C8.75407 2.62702 9.35395 2.53546 9.65579 2.50873C9.97124 2.48071 10.2877 2.46657 10.6044 2.46631C10.9129 2.4658 11.5281 2.50416 11.5281 2.50416C11.5391 2.50485 11.5503 2.50571 11.5613 2.50666C11.8806 2.53425 12.1985 2.57555 12.514 2.63055C12.8326 2.68607 13.1487 2.75565 13.4615 2.83885C13.765 2.91963 14.362 3.11973 14.362 3.11973C14.3723 3.12327 14.3827 3.12689 14.393 3.13059C14.7004 3.24181 15.0031 3.36656 15.2998 3.5039C15.3101 3.50873 15.3203 3.51356 15.3305 3.51856C15.3305 3.51856 15.9032 3.801 16.1795 3.9598C16.1985 3.97075 16.2173 3.98205 16.2357 3.99377L16.9668 4.45752C16.9855 4.46942 17.0038 4.48166 17.022 4.49442C17.2955 4.68538 17.5608 4.88807 17.8168 5.10214C17.8252 5.10921 17.8336 5.11637 17.8418 5.12361C17.8418 5.12361 18.3314 5.55304 18.5617 5.78272C18.5695 5.79039 18.5771 5.79815 18.5847 5.806C18.5847 5.806 18.7569 5.98601 18.9386 6.1831V4.47562H21.9386V16.1054C21.9386 16.5579 22.1183 16.9918 22.4382 17.3117C22.7581 17.6317 23.1921 17.8113 23.6446 17.8113L23.645 20.8113C22.397 20.8113 21.1994 20.3156 20.3169 19.433C19.4344 18.5504 18.9386 17.3534 18.9386 16.1054V12.9148Z" fill="black"/>
</svg>
