<svg width="24" height="24" viewBox="0 0 24 24" fill="none" xmlns="http://www.w3.org/2000/svg">
<path d="M19.1878 12.9085C19.138 11.8773 18.7993 11.253 18.718 11.0298C18.6267 10.7789 18.5242 10.5314 18.4111 10.2895C18.2992 10.0495 18.1765 9.81381 18.044 9.58474C17.9127 9.35757 17.771 9.13548 17.62 8.92038C17.4706 8.70725 17.3112 8.50025 17.1436 8.30101C16.9893 8.11712 16.6735 7.78692 16.6047 7.71553C16.4316 7.54509 16.1078 7.26101 16.0381 7.20023C15.8541 7.04703 15.6638 6.90158 15.468 6.76399C15.468 6.76399 14.7881 6.33248 14.7774 6.32645C14.569 6.20954 14.2077 6.03125 14.1267 5.99159C13.911 5.89227 13.6911 5.80183 13.4607 5.71821C13.3637 5.68562 12.9686 5.55362 12.7539 5.49646C12.5186 5.43396 12.2808 5.38154 12.0411 5.33981C11.808 5.29912 11.573 5.26843 11.3285 5.24713C11.2284 5.24075 10.8236 5.21592 10.6074 5.21635C10.3709 5.21653 10.1337 5.22704 9.89807 5.24799C9.68184 5.26713 9.27474 5.32921 9.18085 5.34386C8.9635 5.38387 8.58408 5.47629 8.50217 5.49646C8.28595 5.555 8.07188 5.62294 7.86125 5.69976C7.64718 5.77761 7.43579 5.86494 7.2293 5.96124C7.02515 6.05634 6.82453 6.16057 6.62943 6.27334L6.62779 6.2742C6.43458 6.3855 6.24586 6.50569 6.06308 6.63346C5.89419 6.75131 5.58847 6.99521 5.51519 7.05436C5.35457 7.1898 5.19982 7.33162 5.05127 7.48C4.89781 7.63311 4.75082 7.79287 4.61149 7.95848C4.47338 8.12255 4.34242 8.29274 4.21896 8.46801C4.09723 8.64147 3.98273 8.82054 3.87626 9.00392C3.77099 9.18523 3.67366 9.37171 3.5846 9.56155C3.4964 9.7495 3.41648 9.9415 3.34527 10.1363C3.27474 10.329 3.21258 10.5251 3.15913 10.7233C3.10628 10.9191 3.06188 11.1174 3.02627 11.3171C2.99101 11.5146 2.9642 11.7154 2.94644 11.9142C2.92885 12.1115 2.92006 12.3103 2.91997 12.5085C2.91971 12.7044 2.92799 12.901 2.94471 13.0961C2.94471 13.0961 2.98179 13.439 3.01394 13.6378C3.01394 13.6378 3.15059 14.2574 3.15499 14.2731C3.20896 14.4633 3.315 14.7762 3.315 14.7762C3.37915 14.9522 3.45088 15.1253 3.53002 15.2949C3.60813 15.4624 3.69452 15.6279 3.78642 15.787C3.87772 15.9451 3.97653 16.0995 4.08136 16.249C4.18482 16.3968 4.29586 16.5411 4.4113 16.6785C4.52614 16.8151 4.64814 16.9475 4.77375 17.0728C4.89833 17.197 5.02851 17.3158 5.16361 17.4286L5.16602 17.4306C5.2981 17.5414 5.43622 17.647 5.57839 17.7461C5.71926 17.8442 5.86419 17.9362 6.01299 18.0217L6.01446 18.0225C6.15594 18.104 6.30104 18.1794 6.44881 18.2488C6.50321 18.2724 6.78202 18.3942 6.93092 18.4481C7.08627 18.5044 7.24543 18.5539 7.40389 18.5961C7.5614 18.638 7.72072 18.6729 7.88134 18.7012C7.88134 18.7012 8.20077 18.7498 8.36095 18.7634C8.51812 18.7767 8.67736 18.7837 8.83573 18.7835C8.99238 18.7833 9.15042 18.7761 9.30543 18.7624C9.45924 18.7489 9.61321 18.7284 9.76504 18.7015C9.9135 18.6753 10.2101 18.6025 10.2101 18.6025C10.3547 18.5637 10.4985 18.5184 10.6382 18.4675C10.777 18.4171 10.914 18.3601 11.0475 18.2979L11.0489 18.2972C11.1807 18.236 11.3097 18.1688 11.4356 18.0962C11.5595 18.0249 11.681 17.9477 11.7982 17.8656C11.9137 17.7849 12.0257 17.699 12.1339 17.6087C12.1339 17.6087 12.3431 17.4253 12.441 17.3281C12.441 17.3281 12.6305 17.1304 12.7178 17.0268C12.8043 16.924 12.8867 16.8171 12.9639 16.7072C13.0396 16.5993 13.1107 16.4883 13.1771 16.3743C13.1771 16.3743 13.3028 16.1459 13.3575 16.0294C13.3575 16.0294 13.4607 15.7959 13.5041 15.6771L13.5047 15.6755C13.5477 15.5582 13.5855 15.439 13.618 15.3184C13.65 15.2001 13.6768 15.0794 13.6983 14.9587C13.7196 14.8401 13.7355 14.7194 13.7462 14.6003C13.7567 14.4821 13.7621 14.3635 13.7622 14.2449C13.7623 14.1288 13.7574 14.0122 13.7474 13.8967C13.7377 13.7836 13.7227 13.6698 13.703 13.5579C13.6838 13.4483 13.6595 13.3387 13.6308 13.2311C13.6026 13.1254 13.5688 13.0187 13.5317 12.9166C13.5026 12.8363 13.4335 12.6769 13.4089 12.6205C13.4046 12.6109 13.4013 12.6038 13.3996 12.6003C13.3607 12.5204 13.2896 12.3896 13.2632 12.3412C13.2581 12.3321 13.2544 12.3256 13.2526 12.3225C13.2045 12.2404 13.153 12.1602 13.0983 12.0825L13.0966 12.08C13.0391 11.9979 12.9779 11.9182 12.9135 11.8417C12.8502 11.7667 12.7835 11.694 12.7138 11.6247L12.7105 11.6215C12.6447 11.5556 12.5734 11.4907 12.5013 11.4303C12.4289 11.3697 12.3528 11.3117 12.2762 11.2582C12.2012 11.2058 12.1238 11.1568 12.0444 11.1111C11.9669 11.0664 11.8874 11.0252 11.8061 10.9877C11.7932 10.9818 11.7805 10.9757 11.7678 10.9693C11.2945 10.7316 10.6565 10.6391 10.185 10.6391V8.13902C10.9903 8.13902 12.0728 8.32688 12.8662 8.72364C13.0113 8.79097 13.1531 8.86468 13.2916 8.94443C13.4342 9.02651 13.5732 9.1147 13.708 9.20885C13.8433 9.30334 13.9778 9.40611 14.1059 9.51327C14.2341 9.62061 14.3608 9.73614 14.4779 9.85321C14.599 9.97374 14.7146 10.0996 14.8247 10.2302C14.9371 10.3635 15.0435 10.5018 15.1438 10.6451C15.2448 10.7887 15.3394 10.9373 15.4274 11.0894C15.4337 11.1002 15.4398 11.1112 15.4458 11.1222C15.4727 11.1714 15.6097 11.4246 15.6736 11.5613C15.6791 11.573 15.6844 11.5848 15.6895 11.5966C15.7124 11.6489 15.8287 11.9179 15.8814 12.0628C15.9432 12.2331 15.9992 12.41 16.0462 12.5862C16.0939 12.7644 16.1337 12.9448 16.1655 13.1263C16.1977 13.3101 16.2221 13.4953 16.2381 13.6812C16.2545 13.8692 16.2623 14.0578 16.2622 14.2468C16.2621 14.4391 16.2533 14.6314 16.2362 14.8229C16.2191 15.0145 16.1935 15.2077 16.1593 15.3985C16.125 15.5909 16.0824 15.7822 16.0314 15.9706C15.98 16.1613 15.9203 16.3494 15.8523 16.5348C15.7836 16.7229 15.6205 17.0918 15.6205 17.0918C15.5348 17.2745 15.3373 17.6325 15.3373 17.6325C15.2353 17.8076 15.1263 17.9782 15.0098 18.144C14.8906 18.3137 14.7636 18.4787 14.6298 18.6374C14.4954 18.797 14.2032 19.1014 14.2032 19.1014C14.0544 19.2493 13.7362 19.5277 13.7362 19.5277C13.5733 19.6637 13.4047 19.7929 13.2309 19.9144C13.0539 20.0383 12.8714 20.1542 12.6845 20.2619C12.495 20.3713 12.3011 20.4721 12.1028 20.5642C11.9039 20.6569 11.6997 20.7416 11.4929 20.8168C11.2856 20.8923 11.0725 20.9595 10.858 21.0171C10.858 21.0171 10.4204 21.1244 10.2006 21.1632C9.9773 21.2028 9.7515 21.2328 9.52536 21.2528C9.2987 21.2728 9.06817 21.2832 8.83918 21.2835C8.60865 21.2838 8.37776 21.2738 8.14895 21.2544C7.91462 21.2344 7.44881 21.1635 7.44881 21.1635C7.21715 21.1228 6.98756 21.0724 6.76047 21.0118C6.53243 20.9511 6.30345 20.8798 6.07998 20.7988C5.886 20.7286 5.45113 20.541 5.45113 20.541L5.93928 20.6403L5.41311 20.524C5.19318 20.422 4.97747 20.3102 4.76728 20.1893C4.55614 20.068 4.35044 19.9374 4.15042 19.7982L4.14783 19.7964C3.9454 19.6551 3.74875 19.5047 3.56054 19.347C3.36932 19.1873 3.18499 19.019 3.0086 18.8432C2.83151 18.6666 2.6596 18.4797 2.49761 18.287C2.33527 18.0939 2.17956 17.8916 2.03403 17.6838C1.8873 17.4746 1.74961 17.2589 1.62184 17.0378C1.49356 16.8159 1.37329 16.5853 1.26431 16.3517C1.15456 16.1162 1.05498 15.8761 0.966011 15.6319C0.966011 15.6319 0.797462 15.1349 0.729611 14.882C0.724783 14.8641 0.720386 14.8461 0.716334 14.828L0.5577 14.1044C0.511748 13.8422 0.453898 13.3098 0.453898 13.3098C0.430965 13.0426 0.419585 12.7743 0.419929 12.5061C0.420102 12.2343 0.432258 11.9626 0.456398 11.6921C0.480538 11.4209 0.517093 11.1473 0.565201 10.8779C0.613567 10.6066 0.673744 10.3377 0.745474 10.0718C0.817894 9.80338 0.901867 9.53836 0.997479 9.2773C1.09395 9.01349 1.20189 8.75433 1.3213 8.49982C1.44131 8.24394 1.57236 7.99306 1.71426 7.74864C1.85678 7.50319 2.00989 7.26368 2.17284 7.03159L2.17491 7.02866C2.33966 6.79468 2.51433 6.56776 2.69866 6.34878C2.88462 6.12781 3.08041 5.91495 3.285 5.71071C3.49166 5.5044 3.70711 5.30748 3.93109 5.11997C3.93807 5.1141 3.94514 5.10833 3.9523 5.10264C3.9523 5.10264 4.39768 4.74709 4.6315 4.58389C4.87393 4.41447 5.12361 4.2555 5.37992 4.10798C5.63813 3.95883 5.9029 3.82115 6.17309 3.69536C6.44544 3.56828 6.7234 3.45336 7.00592 3.35059C7.29052 3.24687 7.57951 3.15557 7.87194 3.07712C7.88057 3.07479 7.88927 3.07255 7.8979 3.07048C7.8979 3.07048 8.47346 2.93021 8.76452 2.87865C8.77349 2.8771 8.78254 2.87555 8.79159 2.87417C8.79159 2.87417 9.38078 2.78408 9.67719 2.75778C9.9854 2.73037 10.2947 2.71666 10.6041 2.71631C10.907 2.71588 11.5114 2.75373 11.5114 2.75373C11.5206 2.75433 11.5298 2.75502 11.5391 2.7558C11.8512 2.78278 12.1621 2.82313 12.4704 2.87693C12.7818 2.93116 13.0908 2.99918 13.3966 3.08048C13.6949 3.15988 14.2814 3.35671 14.2814 3.35671C14.2901 3.35964 14.2987 3.36266 14.3073 3.36576C14.608 3.47457 14.9039 3.59647 15.194 3.73088C15.2027 3.73485 15.2112 3.7389 15.2196 3.74304C15.2196 3.74304 15.7826 4.02048 16.0543 4.17661C16.0701 4.18575 16.0857 4.19515 16.1011 4.20489L16.8321 4.66872C16.8477 4.67864 16.8631 4.68881 16.8782 4.69941C17.1458 4.88624 17.4053 5.08462 17.6558 5.29403C17.6628 5.2999 17.6698 5.30584 17.6766 5.31188C17.6766 5.31188 18.1581 5.73398 18.3846 5.95978C18.3909 5.96616 18.3973 5.97271 18.4036 5.97918C18.4036 5.97918 18.85 6.4456 19.0576 6.69277C19.1015 6.74493 19.145 6.79744 19.1878 6.85037V5.47569H21.6879V16.1055C21.6879 16.6242 21.8939 17.1217 22.2608 17.4885C22.6276 17.8554 23.1251 18.0614 23.6439 18.0614L23.6443 20.5615C22.4626 20.5615 21.3287 20.0919 20.493 19.2563C19.6573 18.4207 19.1878 17.2872 19.1878 16.1055V12.9085Z" fill="black"/>
</svg>
