<svg width="24" height="24" viewBox="0 0 24 24" fill="none" xmlns="http://www.w3.org/2000/svg">
<path d="M19.4378 12.9022C19.3871 11.8277 19.0375 11.1765 18.953 10.9442C18.8591 10.6865 18.7539 10.4322 18.6377 10.1837C18.5227 9.93708 18.3966 9.69499 18.2604 9.45954C18.1255 9.22607 17.9799 8.99786 17.8247 8.77681C17.671 8.55765 17.5072 8.34496 17.335 8.14012C17.1752 7.94984 16.8462 7.60593 16.7818 7.5392C16.6028 7.36281 16.2645 7.06589 16.1997 7.00942C16.0085 6.85009 15.8105 6.69887 15.6069 6.55602C15.6069 6.55602 14.9155 6.11736 14.9044 6.11106C14.6889 5.98993 14.3089 5.8025 14.2333 5.76552C14.0099 5.66249 13.7822 5.56878 13.543 5.48213C13.4492 5.45066 13.0396 5.31376 12.8181 5.25487C12.5759 5.19047 12.3308 5.1365 12.084 5.09348C11.8427 5.05141 11.5994 5.01968 11.3471 4.99778C11.2502 4.99166 10.8304 4.96597 10.6071 4.96631C10.3633 4.96648 10.1188 4.97735 9.87597 4.99899C9.65165 5.01882 9.22635 5.08374 9.13841 5.09753C8.91313 5.13874 8.51534 5.23565 8.43913 5.25453C8.21523 5.31505 7.99366 5.38531 7.77571 5.4648C7.55483 5.54515 7.33671 5.63525 7.12367 5.73465C6.91288 5.83277 6.70519 5.94079 6.5037 6.05718C6.30412 6.17202 6.10867 6.29651 5.91995 6.42851C5.74441 6.55093 5.42465 6.80604 5.36335 6.85535C5.19402 6.99761 5.03099 7.14684 4.8746 7.30306C4.71605 7.46127 4.56423 7.62628 4.42016 7.7975C4.27748 7.967 4.14195 8.14305 4.01444 8.32418C3.88857 8.50351 3.77011 8.68878 3.6601 8.87837C3.55112 9.06606 3.45043 9.25892 3.35826 9.4554C3.26696 9.64999 3.1842 9.84871 3.11048 10.0505C3.03737 10.25 2.97314 10.4529 2.91771 10.6581C2.86296 10.8609 2.81701 11.0662 2.78011 11.2731C2.74356 11.4778 2.71579 11.686 2.69743 11.892C2.67915 12.0967 2.67001 12.3026 2.66993 12.5082C2.66967 12.7115 2.6782 12.9151 2.69562 13.1174C2.69562 13.1174 2.73924 13.5184 2.7739 13.7159C2.7739 13.7159 2.8815 14.1993 2.91279 14.3356C2.96857 14.5327 3.08005 14.8618 3.08005 14.8618C3.14669 15.0446 3.22118 15.2243 3.30343 15.4006C3.38464 15.5746 3.47439 15.7467 3.56992 15.9121C3.66493 16.0765 3.76752 16.237 3.87658 16.3925C3.98426 16.5463 4.09979 16.6964 4.21989 16.8392C4.33947 16.9816 4.46646 17.1194 4.59725 17.2498C4.727 17.3792 4.86262 17.5031 5.0034 17.6205L5.0053 17.6221C5.14307 17.7377 5.28722 17.8478 5.43542 17.9512C5.58225 18.0534 5.73407 18.1498 5.88908 18.2388C6.03866 18.325 6.19264 18.405 6.34904 18.478C6.40499 18.5023 6.69243 18.6277 6.8458 18.6832C7.00797 18.7419 7.17411 18.7936 7.33955 18.8377C7.50396 18.8815 7.67036 18.9179 7.83813 18.9474C7.83813 18.9474 8.17212 18.9982 8.33972 19.0124C8.50405 19.0265 8.67044 19.0337 8.83606 19.0335C8.99995 19.0333 9.16522 19.0258 9.32739 19.0115C9.48844 18.9973 9.64958 18.9758 9.80855 18.9476C9.96417 18.9202 10.2749 18.844 10.2749 18.844C10.4265 18.8033 10.5772 18.7558 10.7237 18.7024C10.8692 18.6495 11.0137 18.5895 11.1537 18.5242C11.292 18.46 11.4282 18.3891 11.5604 18.3128C11.6907 18.2377 11.8182 18.1567 11.9415 18.0704C12.0628 17.9857 12.1805 17.8954 12.2941 17.8005C12.2941 17.8005 12.5142 17.6077 12.6172 17.5054C12.6172 17.5054 12.817 17.297 12.9089 17.1879C13.0003 17.0794 13.0871 16.9667 13.1685 16.8509C13.2483 16.7372 13.3231 16.6202 13.393 16.5001C13.393 16.5001 13.5259 16.2587 13.5838 16.1356C13.5838 16.1356 13.6932 15.8879 13.7391 15.7621C13.7847 15.638 13.8248 15.5113 13.8593 15.3836C13.8932 15.2583 13.9216 15.1306 13.9444 15.0027C13.9669 14.8768 13.9838 14.7489 13.9951 14.6225C14.0063 14.497 14.0121 14.371 14.0122 14.245C14.0123 14.1217 14.0072 13.9979 13.9965 13.8751C13.9862 13.7546 13.9702 13.6339 13.9493 13.5148C13.9288 13.398 13.903 13.2812 13.8723 13.1666C13.8423 13.0538 13.8062 12.9402 13.7667 12.8312C13.7349 12.7438 13.6582 12.5668 13.6353 12.5145C13.6322 12.5075 13.6298 12.5024 13.6286 12.4998C13.587 12.4135 13.5047 12.262 13.4796 12.216C13.4759 12.2093 13.4733 12.2047 13.472 12.2024C13.4193 12.1122 13.3628 12.024 13.3028 11.9386L13.3014 11.9366C13.2396 11.8484 13.1738 11.7628 13.1045 11.6806C13.0366 11.5999 12.9649 11.5218 12.89 11.4474L12.8874 11.4448C12.8164 11.3737 12.7395 11.3037 12.6617 11.2387C12.5837 11.1733 12.5018 11.1109 12.4194 11.0533C12.3384 10.9967 12.2548 10.9437 12.1691 10.8944C12.085 10.846 11.9988 10.8013 11.9106 10.7607C11.9004 10.7559 11.8901 10.751 11.88 10.7459C11.3729 10.4912 10.6901 10.389 10.185 10.389V8.38902C10.9587 8.38902 11.9997 8.56817 12.7574 8.94872C12.8972 9.01347 13.0336 9.08434 13.1669 9.16107C13.3032 9.23952 13.436 9.32375 13.5648 9.41376C13.6942 9.5042 13.8229 9.6024 13.9455 9.70499C14.0681 9.80767 14.1893 9.91811 14.3013 10.0302C14.4173 10.1456 14.5281 10.2662 14.6335 10.3913C14.7412 10.519 14.843 10.6515 14.9392 10.7887C15.036 10.9264 15.1267 11.0687 15.211 11.2145C15.2163 11.2237 15.2214 11.233 15.2264 11.2422C15.2525 11.2898 15.3852 11.5348 15.4471 11.6672C15.4517 11.6771 15.4562 11.687 15.4605 11.697C15.4827 11.7476 15.5954 12.0079 15.6464 12.1481C15.7058 12.3116 15.7595 12.4815 15.8046 12.6506C15.8504 12.8218 15.8886 12.995 15.9192 13.1694C15.9502 13.3461 15.9737 13.5241 15.989 13.7027C16.0048 13.8835 16.0124 14.0648 16.0122 14.2466C16.012 14.4315 16.0037 14.6164 15.9872 14.8006C15.9707 14.985 15.9461 15.171 15.9132 15.3544C15.8802 15.5398 15.8392 15.7239 15.7901 15.9053C15.7404 16.0891 15.6829 16.2703 15.6175 16.449C15.5513 16.6301 15.3942 16.9854 15.3942 16.9854C15.3115 17.1616 15.1213 17.5067 15.1213 17.5067C15.0228 17.6757 14.9175 17.8403 14.8052 18.0003C14.6903 18.164 14.5676 18.3231 14.4386 18.4763C14.3089 18.6303 14.0269 18.9241 14.0269 18.9241C13.8832 19.0669 13.5759 19.3357 13.5759 19.3357C13.4185 19.4672 13.2557 19.592 13.0875 19.7096C12.9165 19.8292 12.7403 19.9412 12.5596 20.0454C12.3764 20.151 12.189 20.2485 11.9974 20.3375C11.805 20.4272 11.6075 20.5091 11.4075 20.5819C11.2069 20.6549 11.0006 20.7199 10.7931 20.7756C10.7931 20.7756 10.3697 20.8795 10.157 20.917C9.94089 20.9553 9.72234 20.9844 9.50336 21.0037C9.28386 21.0231 9.06056 21.0332 8.83882 21.0335C8.61544 21.0338 8.3918 21.0241 8.17014 21.0052C7.94322 20.986 7.49206 20.9172 7.49206 20.9172C7.26748 20.8778 7.04487 20.8289 6.82485 20.7702C6.60371 20.7114 6.38171 20.6421 6.16505 20.5637C5.97556 20.4951 5.55095 20.3118 5.55095 20.3118L5.93926 20.3902L5.51827 20.2973C5.30498 20.1983 5.09582 20.0899 4.89193 19.9725C4.687 19.8548 4.48732 19.728 4.29317 19.5929L4.29084 19.5914C4.09436 19.4543 3.90357 19.3083 3.72097 19.1552C3.53526 19.0002 3.35637 18.8369 3.18514 18.6661C3.01315 18.4946 2.84624 18.3133 2.6889 18.1261C2.5313 17.9386 2.38008 17.7421 2.23877 17.5402C2.09617 17.337 1.96237 17.1276 1.83822 16.9127C1.71364 16.6971 1.59673 16.4729 1.49086 16.246C1.38413 16.0172 1.2874 15.7838 1.20092 15.5464C1.20092 15.5464 1.03694 15.063 0.971076 14.8172C0.967196 14.8028 0.963662 14.7884 0.960472 14.774L0.803907 14.0612C0.759248 13.8062 0.70295 13.2884 0.70295 13.2884C0.68062 13.0284 0.669585 12.7674 0.66993 12.5064C0.670102 12.2418 0.681914 11.9775 0.705364 11.7143C0.7289 11.4504 0.764421 11.184 0.811235 10.9217C0.858394 10.6577 0.916934 10.3957 0.986853 10.1369C1.05738 9.87552 1.13911 9.61748 1.23231 9.36324C1.32619 9.10623 1.43129 8.8538 1.54759 8.60593C1.6645 8.35669 1.79218 8.11227 1.93047 7.87415C2.06936 7.6349 2.2186 7.40143 2.37749 7.17521L2.3793 7.17262C2.53992 6.9445 2.71028 6.72319 2.88995 6.50972C3.07117 6.29427 3.26213 6.08675 3.46163 5.8876C3.66312 5.68646 3.87313 5.49446 4.0916 5.3116C4.09721 5.30694 4.10281 5.30229 4.1085 5.29772C4.1085 5.29772 4.54535 4.9489 4.77468 4.7888C5.01116 4.62352 5.25472 4.46842 5.50474 4.32453C5.75666 4.179 6.01504 4.04468 6.27868 3.92191C6.54448 3.79785 6.81571 3.68577 7.09143 3.5855C7.36921 3.48429 7.65122 3.39514 7.93667 3.31859C7.94357 3.31669 7.95055 3.31496 7.95745 3.31324C7.95745 3.31324 8.52241 3.17538 8.80804 3.12478C8.81528 3.12357 8.82244 3.12236 8.82968 3.12124C8.82968 3.12124 9.40826 3.03261 9.69923 3.00683C10.0002 2.98002 10.3022 2.96657 10.6044 2.96631C10.9018 2.9658 11.4954 3.00313 11.4954 3.00313C11.5028 3.00364 11.5102 3.00416 11.5176 3.00485C11.8225 3.03115 12.1262 3.07063 12.4275 3.12322C12.7317 3.17616 13.0336 3.24263 13.3322 3.32212C13.6253 3.40006 14.2014 3.59352 14.2014 3.59352C14.2084 3.59594 14.2153 3.59835 14.2222 3.60085C14.5161 3.70715 14.8054 3.8263 15.0889 3.95769C15.0958 3.96088 15.1026 3.96407 15.1094 3.96743C15.1094 3.96743 15.6628 4.23996 15.9297 4.39333C15.9424 4.40066 15.9549 4.40816 15.9672 4.41601L16.6982 4.87975C16.7106 4.88768 16.7229 4.89588 16.735 4.90432C16.9966 5.08701 17.2505 5.28099 17.4953 5.48575C17.501 5.49049 17.5065 5.49524 17.5121 5.50006C17.5121 5.50006 17.9854 5.91484 18.208 6.13676C18.2132 6.14193 18.2182 6.1471 18.2232 6.15236C18.2232 6.15236 18.6622 6.61068 18.8662 6.85354C19.067 7.09236 19.2578 7.33919 19.4378 7.59395V5.47567H21.4378V16.1055C21.4378 16.6905 21.6703 17.2516 22.084 17.6653C22.4977 18.079 23.0587 18.3114 23.6439 18.3114L23.6443 20.3114C22.5289 20.3114 21.4585 19.8683 20.6697 19.0795C19.881 18.2907 19.4378 17.2209 19.4378 16.1055V12.9022Z" fill="black"/>
</svg>
