<svg width="24" height="24" viewBox="0 0 24 24" fill="none" xmlns="http://www.w3.org/2000/svg">
<path d="M20.1878 12.8843C20.1347 11.6792 19.7523 10.9474 19.6577 10.6876C19.5563 10.4091 19.4428 10.135 19.3172 9.86641C19.1929 9.59975 19.057 9.33869 18.9097 9.08418C18.7637 8.83166 18.6066 8.58518 18.4386 8.3461C18.2725 8.10893 18.0956 7.87934 17.9092 7.65768C17.731 7.44534 17.3548 7.05272 17.3236 7.02022C17.1282 6.82554 16.7248 6.47215 16.6916 6.4431C16.4763 6.26317 16.2534 6.09281 16.0236 5.9321C16.0236 5.9321 15.3025 5.47465 15.3003 5.47336C15.0651 5.33886 14.6007 5.11022 14.5611 5.09083C14.3119 4.97539 14.0576 4.87064 13.7977 4.77658C13.7466 4.75933 13.2635 4.59725 13.0109 4.53009C12.7474 4.46 12.4812 4.40137 12.2128 4.35464C11.9478 4.30843 11.6807 4.27369 11.4109 4.25032C11.3579 4.24696 10.8615 4.21592 10.6061 4.21636C10.3403 4.21653 10.0745 4.22843 9.8097 4.25196C9.55726 4.27429 9.06601 4.34956 9.02351 4.35611C8.77513 4.40034 8.29879 4.51664 8.25819 4.52655C8.0086 4.59354 7.76194 4.67157 7.51916 4.76011C7.27759 4.84796 7.03972 4.94616 6.80686 5.05487C6.57606 5.1623 6.34966 5.28007 6.12913 5.40749C5.91049 5.53328 5.69719 5.66907 5.49045 5.81365C5.29259 5.95168 4.92333 6.2467 4.89195 6.27179C4.70228 6.43077 4.51976 6.59759 4.34475 6.77226C4.17085 6.9459 4.00437 7.12686 3.84634 7.31464C3.68978 7.5006 3.54132 7.69346 3.40139 7.89227L3.40053 7.89348C3.26224 8.09039 3.13232 8.2936 3.01153 8.50181C2.89152 8.70846 2.78074 8.92055 2.67926 9.13686C2.57856 9.35153 2.48752 9.57026 2.40614 9.79278C2.32552 10.0128 2.25474 10.2364 2.19362 10.4627C2.13327 10.6866 2.08257 10.913 2.04188 11.1414C2.00145 11.3677 1.97075 11.5976 1.95041 11.8254C1.93023 12.052 1.92006 12.2798 1.91997 12.5076C1.91963 12.7325 1.92911 12.9575 1.94834 13.1816C1.94834 13.1816 1.99679 13.6264 2.03516 13.8455C2.03516 13.8455 2.16517 14.4327 2.18025 14.5002C2.23793 14.7129 2.37544 15.1185 2.37544 15.1185C2.4495 15.3218 2.53235 15.5216 2.62374 15.7176C2.71418 15.9116 2.8141 16.1031 2.92058 16.2874C3.02653 16.4707 3.14077 16.6495 3.26242 16.8229C3.38277 16.9948 3.51157 17.1622 3.64581 17.3219C3.77953 17.4809 3.92152 17.6352 4.06774 17.781C4.21319 17.926 4.36535 18.065 4.52313 18.1965C4.67779 18.3263 4.84022 18.4504 5.0067 18.5665C5.17128 18.6811 5.34139 18.7892 5.51519 18.889C5.68581 18.9873 5.86109 19.0781 6.03955 19.1612L6.04972 19.1656C6.11068 19.1922 6.42363 19.328 6.59054 19.3884C6.77315 19.4545 6.96023 19.5127 7.14654 19.5624C7.33181 19.6117 7.51924 19.6528 7.7084 19.6861C7.7084 19.6861 8.08636 19.7436 8.27612 19.7598C8.462 19.7756 8.64977 19.7838 8.83711 19.7835C9.02273 19.7833 9.20965 19.7748 9.39346 19.7586C9.57623 19.7424 9.75883 19.7182 9.93928 19.6861C10.1163 19.6549 10.4692 19.5684 10.4692 19.5684C10.6418 19.5221 10.8133 19.4679 10.9801 19.4072C11.1462 19.3468 11.3103 19.2787 11.4701 19.2042C11.6286 19.1306 11.7837 19.0499 11.9351 18.9625C12.0844 18.8765 12.23 18.784 12.3713 18.6852C12.5102 18.5881 12.6448 18.4849 12.7748 18.3763C12.7748 18.3763 13.0276 18.155 13.1459 18.0374C13.1459 18.0374 13.3766 17.797 13.4826 17.671C13.588 17.5459 13.6883 17.4158 13.7823 17.282C13.8743 17.1509 13.9605 17.016 14.0412 16.8776C14.0412 16.8776 14.1956 16.5973 14.2627 16.4544C14.2627 16.4544 14.39 16.1663 14.4435 16.0199C14.4966 15.8751 14.5432 15.7281 14.5834 15.5793C14.623 15.4328 14.6561 15.2841 14.6827 15.1346C14.7092 14.9871 14.7289 14.8375 14.7422 14.6893C14.7554 14.5419 14.7621 14.3937 14.7622 14.2456C14.7624 14.1003 14.7563 13.9551 14.7437 13.8105C14.7315 13.6681 14.7127 13.5261 14.688 13.3852C14.6637 13.2468 14.6333 13.1091 14.5969 12.9731C14.5612 12.8392 14.5186 12.7045 14.4716 12.5751C14.4291 12.458 14.3342 12.2409 14.3157 12.1987L14.3125 12.1917C14.2598 12.08 14.1514 11.8814 14.13 11.8423L14.1289 11.8405L14.1263 11.8357C14.061 11.7232 13.9908 11.6131 13.916 11.5068C13.8412 11.4 13.7618 11.2965 13.678 11.1971C13.5957 11.0995 13.5089 11.0051 13.4184 10.9151C13.3319 10.8286 13.2379 10.7429 13.1432 10.6635C13.0484 10.5843 12.949 10.5084 12.8489 10.4384C12.75 10.3694 12.648 10.3047 12.5433 10.2445C12.4396 10.1847 12.3333 10.1296 12.2244 10.0794C12.2219 10.0783 12.2193 10.077 12.2168 10.0758C11.6084 9.7701 10.791 9.63906 10.185 9.63906V9.13902C10.8569 9.13902 11.762 9.28886 12.4375 9.62716C12.5587 9.68312 12.6771 9.7445 12.7928 9.81114C12.91 9.87865 13.0245 9.95116 13.1353 10.0286C13.2471 10.1067 13.3583 10.1915 13.4641 10.2801C13.5701 10.3689 13.6748 10.4643 13.7715 10.5611C13.8724 10.6614 13.9686 10.7661 14.0602 10.8749C14.1537 10.9856 14.242 11.1006 14.3253 11.2195C14.4096 11.3394 14.4884 11.4633 14.5617 11.5901L14.5645 11.5949C14.5659 11.5974 14.5672 11.5998 14.5685 11.6023C14.5919 11.6452 14.712 11.8656 14.7678 11.9849L14.7702 11.9902C14.7713 11.9928 14.7724 11.9955 14.7736 11.9981C14.7935 12.0437 14.8956 12.2779 14.9415 12.4043C14.9935 12.5474 15.0406 12.6961 15.08 12.8442C15.1202 12.9943 15.1538 13.1461 15.1805 13.2989C15.2077 13.4541 15.2283 13.6105 15.2419 13.7674C15.2557 13.9265 15.2623 14.0861 15.2622 14.246C15.2621 14.4089 15.2546 14.5717 15.2402 14.7338C15.2257 14.8965 15.204 15.0606 15.1749 15.2226C15.1457 15.3864 15.1095 15.5492 15.0661 15.7097C15.0221 15.8726 14.9711 16.0331 14.9131 16.1916C14.8545 16.3519 14.7153 16.6668 14.7153 16.6668C14.6419 16.823 14.4732 17.1292 14.4732 17.1292C14.3854 17.2799 14.2916 17.4266 14.1915 17.5693C14.089 17.7151 13.9799 17.8568 13.865 17.9932C13.7495 18.1303 13.4983 18.3921 13.4983 18.3921C13.3699 18.5197 13.0952 18.7601 13.0952 18.7601C12.9543 18.8778 12.8084 18.9897 12.6578 19.0949C12.5046 19.2021 12.3467 19.3024 12.1849 19.3957C12.0207 19.4903 11.8528 19.5778 11.681 19.6576C11.5082 19.7381 11.3308 19.8117 11.151 19.8771C10.9707 19.9427 10.7854 20.0012 10.5988 20.0512C10.5988 20.0512 10.2176 20.1448 10.0264 20.1785C9.8316 20.2131 9.63468 20.2392 9.43742 20.2567C9.2393 20.2741 9.03791 20.2832 8.8378 20.2835C8.63606 20.2838 8.43398 20.2751 8.23379 20.2579C8.02912 20.2406 7.62184 20.1786 7.62184 20.1786C7.41855 20.1428 7.21706 20.0987 7.01791 20.0456C6.81763 19.9923 6.61658 19.9296 6.42036 19.8586C6.24439 19.7948 5.91445 19.6521 5.85022 19.6241L5.83927 19.6193L5.93928 19.6403L5.83401 19.617C5.64055 19.5272 5.45079 19.4289 5.26586 19.3224C5.07955 19.2154 4.89807 19.1001 4.72159 18.9774L4.72004 18.9762C4.54149 18.8517 4.36811 18.7191 4.20224 18.58C4.03326 18.439 3.87048 18.2904 3.71469 18.135C3.55813 17.979 3.40622 17.8139 3.2631 17.6436C3.11947 17.4727 2.9817 17.2938 2.85298 17.1099C2.72297 16.9245 2.60089 16.7335 2.48761 16.5375C2.37398 16.3408 2.26724 16.1362 2.1706 15.929C2.07309 15.7198 1.98463 15.5066 1.90558 15.2896C1.90558 15.2896 1.75573 14.8478 1.69547 14.6229C1.69452 14.6193 1.69357 14.6157 1.6928 14.6121L1.5427 13.9318C1.50175 13.6983 1.45019 13.2243 1.45019 13.2243C1.42976 12.9859 1.41959 12.7465 1.41993 12.5071C1.4201 12.2646 1.43088 12.0223 1.45243 11.7809C1.47399 11.5387 1.50666 11.2942 1.5496 11.0536C1.59288 10.8109 1.64676 10.5703 1.7109 10.3324C1.77582 10.092 1.851 9.85477 1.93661 9.62095C2.023 9.38464 2.11965 9.15247 2.22664 8.92452C2.33423 8.69501 2.45174 8.46999 2.57908 8.25075C2.7072 8.03013 2.84479 7.81485 2.99127 7.60621L2.99256 7.6044C3.14077 7.39387 3.29794 7.18971 3.46381 6.99263C3.63107 6.79382 3.80738 6.60225 3.99153 6.41844C4.17749 6.23273 4.37148 6.05548 4.57313 5.88667L4.57736 5.88322C4.57736 5.88322 4.98842 5.55431 5.20413 5.4037C5.42286 5.25084 5.64814 5.10738 5.87936 4.97426C6.11257 4.8396 6.35164 4.71528 6.59554 4.60173C6.84169 4.4869 7.09283 4.38309 7.34811 4.29024C7.60537 4.19644 7.8666 4.11393 8.13102 4.04298L8.13619 4.04169C8.13619 4.04169 8.66917 3.91107 8.93885 3.86331L8.94419 3.86245C8.94419 3.86245 9.49071 3.77821 9.76556 3.7539C10.0448 3.72907 10.3251 3.71657 10.6055 3.71631C10.8864 3.71588 11.4474 3.75166 11.4474 3.75166L11.453 3.75209C11.7364 3.77658 12.0187 3.81322 12.2987 3.8621C12.5815 3.91133 12.8619 3.97306 13.1395 4.04694C13.4168 4.12066 13.9619 4.30429 13.9619 4.30429L13.967 4.3061C14.2406 4.40508 14.5098 4.51595 14.7737 4.6382L14.7789 4.6407C14.7789 4.6407 15.3032 4.89831 15.556 5.04367C15.5592 5.04548 15.5623 5.04737 15.5654 5.04927L16.2964 5.5131C16.2995 5.51509 16.3026 5.51716 16.3056 5.51922C16.5494 5.6895 16.786 5.87029 17.0143 6.06117L17.0184 6.0647C17.0184 6.0647 17.4675 6.45749 17.6785 6.66786L17.6823 6.67174C17.6823 6.67174 18.0989 7.10591 18.2921 7.33602C18.4878 7.5688 18.6734 7.80985 18.848 8.05892C19.0243 8.31007 19.1893 8.56871 19.3426 8.8339C19.4971 9.10108 19.6398 9.37499 19.7703 9.65484C19.902 9.93667 20.0211 10.2243 20.1276 10.5165C20.142 10.5565 20.1628 10.6067 20.1878 10.6675V7.47568H20.6879V16.1055C20.6879 16.8894 20.9993 17.6413 21.5536 18.1957C22.108 18.75 22.8599 19.0614 23.6439 19.0614L23.6443 19.5615C22.7278 19.5615 21.8482 19.1973 21.2001 18.5492C20.552 17.9011 20.1878 17.022 20.1878 16.1055V12.8843Z" fill="black"/>
</svg>
