<svg width="24" height="24" viewBox="0 0 24 24" fill="none" xmlns="http://www.w3.org/2000/svg">
<path d="M19.9387 12.89C19.8863 11.7286 19.5149 11.0237 19.4235 10.7731C19.3247 10.5015 19.214 10.234 19.0915 9.97213C18.9703 9.71211 18.8376 9.45734 18.6941 9.20922C18.5518 8.96308 18.3985 8.72271 18.2348 8.48959C18.0727 8.25845 17.9003 8.03446 17.7186 7.81841C17.5472 7.61425 17.1889 7.23991 17.1433 7.19258C16.9537 7.00446 16.5752 6.67271 16.53 6.63322C16.3223 6.45967 16.1071 6.29518 15.8855 6.14008C15.8855 6.14008 15.1743 5.68883 15.1684 5.68538C14.9399 5.55563 14.5079 5.34268 14.4545 5.31647C14.2134 5.20491 13.9673 5.10352 13.716 5.01257C13.6538 4.99162 13.1912 4.83643 12.9475 4.7716C12.6911 4.7034 12.4319 4.64633 12.1707 4.60089C11.9136 4.55606 11.6545 4.52227 11.3929 4.49959C11.3282 4.49545 10.8533 4.46588 10.6072 4.46631C10.3487 4.46649 10.0901 4.47804 9.83256 4.50089C9.5903 4.52235 9.12362 4.59374 9.06189 4.60331C8.82195 4.6465 8.3764 4.75513 8.32131 4.76858C8.07965 4.83359 7.84066 4.9092 7.60547 4.99489C7.3708 5.08033 7.13957 5.17577 6.91326 5.28138C6.6891 5.38579 6.469 5.50028 6.25475 5.624C6.04249 5.74616 5.83515 5.87816 5.63436 6.01851C5.44468 6.15094 5.09396 6.43096 5.0512 6.4651C4.86782 6.61891 4.69143 6.78022 4.52219 6.9492C4.35338 7.11766 4.19173 7.29328 4.03844 7.47554C3.88645 7.65607 3.74204 7.84367 3.60625 8.03662C3.4721 8.22767 3.34571 8.42527 3.22846 8.62727C3.11216 8.82755 3.00473 9.03334 2.90645 9.24293C2.80886 9.45096 2.72057 9.66296 2.64177 9.87859C2.56366 10.0918 2.49504 10.3085 2.43581 10.5278C2.37727 10.7446 2.32821 10.964 2.28873 11.1852C2.24958 11.4043 2.21993 11.627 2.20027 11.8475C2.1807 12.0669 2.17087 12.2874 2.17078 12.5078C2.17044 12.7254 2.17966 12.9433 2.1982 13.1602C2.1982 13.1602 2.2451 13.5903 2.28217 13.8022C2.28217 13.8022 2.40313 14.3473 2.42468 14.4434C2.48167 14.6511 2.61108 15.0329 2.61108 15.0329C2.68264 15.2294 2.76273 15.4225 2.8511 15.6119C2.93844 15.7992 3.035 15.9843 3.13785 16.1622C3.2401 16.3392 3.35054 16.5119 3.46796 16.6794C3.58409 16.8452 3.7085 17.0069 3.838 17.1609C3.96697 17.3144 4.10397 17.4632 4.24501 17.6038C4.38528 17.7437 4.53228 17.8778 4.68436 18.0047C4.83334 18.1297 4.98999 18.2495 5.15035 18.3614C5.30907 18.4718 5.47305 18.576 5.64056 18.6722C5.80635 18.7677 5.9768 18.8559 6.15026 18.9364C6.20958 18.9622 6.514 19.0945 6.67643 19.1533C6.85222 19.2169 7.03232 19.273 7.21165 19.3208C7.39002 19.3683 7.57038 19.4078 7.75238 19.4398C7.75238 19.4398 8.11569 19.4951 8.29812 19.5106C8.47684 19.5259 8.65746 19.5337 8.83756 19.5334C9.01594 19.5332 9.19569 19.5251 9.37218 19.5095C9.54779 19.494 9.72324 19.4707 9.89653 19.4399C10.0664 19.4099 10.4053 19.3268 10.4053 19.3268C10.5708 19.2824 10.7354 19.2305 10.8954 19.1722C11.0546 19.1143 11.2122 19.0489 11.3654 18.9775C11.5172 18.907 11.666 18.8296 11.8111 18.7459C11.9539 18.6636 12.0935 18.5748 12.2288 18.4802C12.3618 18.3872 12.4908 18.2884 12.6154 18.1843C12.6154 18.1843 12.8573 17.9725 12.9705 17.86C12.9705 17.86 13.1908 17.6303 13.2922 17.5099C13.3929 17.3903 13.4886 17.266 13.5785 17.1382C13.6664 17.0129 13.7488 16.884 13.8259 16.7517C13.8259 16.7517 13.9732 16.4844 14.0371 16.348C14.0371 16.348 14.1585 16.0735 14.2095 15.9339C14.26 15.796 14.3046 15.6558 14.3429 15.514C14.3805 15.3746 14.412 15.2329 14.4374 15.0906C14.4625 14.9503 14.4813 14.8079 14.494 14.667C14.5065 14.5268 14.5129 14.3861 14.513 14.2453C14.5131 14.1074 14.5074 13.9694 14.4955 13.832C14.4838 13.6969 14.466 13.5619 14.4425 13.4284C14.4196 13.2972 14.3906 13.1664 14.3562 13.0376C14.3223 12.9107 14.282 12.7831 14.2374 12.6604C14.1995 12.556 14.1028 12.3338 14.0891 12.3027L14.0875 12.2991C14.0402 12.1989 13.9288 11.9939 13.9133 11.9656L13.9114 11.9623C13.8496 11.8557 13.783 11.7511 13.7122 11.6504C13.6418 11.5497 13.5666 11.4518 13.4876 11.3583C13.4101 11.2663 13.3286 11.1775 13.2433 11.0927L13.242 11.0914C13.1607 11.01 13.0726 10.9298 12.9834 10.8551C12.8944 10.7806 12.8007 10.7092 12.7066 10.6434C12.6137 10.5784 12.5177 10.5177 12.4193 10.461C12.3222 10.4051 12.2226 10.3535 12.1206 10.3065C12.1155 10.3041 12.1104 10.3016 12.1053 10.2991C11.5307 10.0104 10.7582 9.88893 10.1858 9.88893V8.88893C10.8899 8.88893 11.8371 9.04774 12.5408 9.39906C12.6696 9.45846 12.7954 9.52364 12.9183 9.59442C13.0419 9.66555 13.1624 9.74194 13.2792 9.82358C13.3969 9.90583 13.5139 9.99515 13.6253 10.0883C13.7369 10.1817 13.847 10.2822 13.9489 10.3841C14.0548 10.4894 14.1559 10.5994 14.2521 10.7137C14.3503 10.83 14.4431 10.9508 14.5307 11.0758C14.6192 11.2016 14.7019 11.3317 14.7789 11.4648C14.7823 11.4706 14.7855 11.4764 14.7886 11.4823C14.8129 11.5267 14.9372 11.7553 14.9951 11.879C14.9979 11.8851 15.0007 11.8913 15.0033 11.8976C15.024 11.9449 15.1296 12.1878 15.1772 12.3189C15.2317 12.4687 15.281 12.6245 15.3223 12.7795C15.3643 12.9367 15.3995 13.0957 15.4275 13.2557C15.4561 13.4181 15.4776 13.5817 15.4917 13.7458C15.5061 13.9121 15.5131 14.0789 15.513 14.2462C15.5129 14.4164 15.5051 14.5866 15.4899 14.756C15.4748 14.9259 15.4521 15.0973 15.4218 15.2665C15.3913 15.4375 15.3535 15.6073 15.3082 15.7749C15.2623 15.9447 15.2092 16.1121 15.1486 16.2773C15.0876 16.4446 14.9424 16.773 14.9424 16.773C14.8659 16.9358 14.69 17.255 14.69 17.255C14.5987 17.4117 14.5011 17.5644 14.3968 17.7129C14.2903 17.8646 14.1766 18.0122 14.057 18.1542C13.9368 18.2969 13.6753 18.5694 13.6753 18.5694C13.5418 18.702 13.2563 18.9519 13.2563 18.9519C13.1098 19.0742 12.9583 19.1904 12.8019 19.2997C12.6427 19.4111 12.4787 19.5153 12.3106 19.6122C12.1401 19.7105 11.9657 19.8012 11.7872 19.8842C11.6079 19.9677 11.4238 20.0441 11.2373 20.112C11.0502 20.1801 10.8579 20.2407 10.6644 20.2927C10.6644 20.2927 10.2691 20.3896 10.0707 20.4247C9.86877 20.4604 9.6647 20.4876 9.4602 20.5056C9.25501 20.5237 9.04628 20.5332 8.83894 20.5334C8.62996 20.5337 8.42071 20.5247 8.21337 20.507C8.00128 20.489 7.57943 20.4247 7.57943 20.4247C7.36899 20.3878 7.16052 20.342 6.9543 20.2871C6.74712 20.2319 6.53909 20.1671 6.33605 20.0935C6.15561 20.0282 5.75126 19.8533 5.75126 19.8533L5.94007 19.8901L5.72962 19.8437C5.52952 19.7508 5.33321 19.6492 5.14207 19.5391C4.94956 19.4285 4.76195 19.3094 4.57961 19.1825L4.5778 19.1812C4.3933 19.0525 4.21406 18.9155 4.04258 18.7717C3.86808 18.6261 3.69988 18.4725 3.53892 18.312C3.37727 18.1508 3.22036 17.9803 3.0725 17.8044C2.92421 17.628 2.78196 17.4431 2.64901 17.2533C2.51487 17.062 2.38882 16.8648 2.272 16.6625C2.15466 16.4594 2.04448 16.2484 1.94482 16.0345C1.8442 15.8189 1.75299 15.5989 1.67152 15.3752C1.67152 15.3752 1.51693 14.9194 1.45477 14.6876C1.45288 14.6805 1.45107 14.6732 1.44952 14.666L1.29726 13.9748C1.25502 13.7342 1.20191 13.2456 1.20191 13.2456C1.18087 13 1.17044 12.7534 1.17078 12.5067C1.17087 12.257 1.18199 12.0073 1.20424 11.7587C1.22648 11.5092 1.26002 11.2574 1.30433 11.0095C1.34882 10.7598 1.40425 10.512 1.47038 10.2672C1.53711 10.0198 1.61453 9.77556 1.70264 9.53502C1.79153 9.29181 1.89102 9.05291 2.00111 8.81824C2.11181 8.58218 2.23269 8.3507 2.36365 8.12516C2.49538 7.89833 2.63686 7.67702 2.78747 7.46252L2.78894 7.46036C2.94128 7.24405 3.10285 7.03412 3.27329 6.8316C3.44529 6.62727 3.62643 6.43036 3.81567 6.24146C4.0068 6.05059 4.20613 5.86842 4.41339 5.69495C4.41615 5.69262 4.41899 5.6903 4.42184 5.68797C4.42184 5.68797 4.84153 5.35242 5.06181 5.1987C5.28639 5.04162 5.51779 4.89437 5.75531 4.75763C5.99473 4.61934 6.24027 4.49175 6.49072 4.37501C6.74342 4.25716 7.00128 4.1506 7.26329 4.05524C7.52745 3.95903 7.79566 3.87428 8.06706 3.80143C8.07051 3.80057 8.07396 3.79962 8.07741 3.79876C8.07741 3.79876 8.62108 3.66581 8.89601 3.6171C8.89963 3.6165 8.90326 3.6159 8.90688 3.61529C8.90688 3.61529 9.46399 3.5296 9.74419 3.50485C10.0308 3.47933 10.3183 3.46657 10.6059 3.46631C10.8924 3.4658 11.4642 3.50209 11.4642 3.50209C11.468 3.50235 11.4716 3.50261 11.4753 3.50296C11.7659 3.52804 12.0552 3.56563 12.3424 3.61572C12.6324 3.66624 12.92 3.72953 13.2046 3.80522C13.4871 3.8804 14.0425 4.06731 14.0425 4.06731C14.046 4.06852 14.0495 4.06973 14.0529 4.07093C14.3332 4.17232 14.6092 4.28604 14.8796 4.41131C14.8831 4.41295 14.8864 4.4145 14.8899 4.41622C14.8899 4.41622 15.4238 4.67883 15.6814 4.82686C15.6877 4.83048 15.6939 4.83419 15.7001 4.83816L16.4311 5.3019C16.4373 5.30587 16.4435 5.31001 16.4495 5.31423C16.6993 5.48864 16.9416 5.67383 17.1754 5.86936C17.1783 5.87169 17.181 5.87402 17.1838 5.87643C17.1838 5.87643 17.6409 6.27655 17.8557 6.4908C17.8583 6.49338 17.8609 6.49597 17.8634 6.49856C17.8634 6.49856 18.2874 6.94075 18.4842 7.17517C18.6847 7.41346 18.8747 7.66029 19.0534 7.91531C19.2339 8.17241 19.4029 8.43726 19.5598 8.70874C19.695 8.94247 19.8213 9.18137 19.9387 9.42475V7.47562H20.9387V16.1054C20.9387 16.8231 21.2238 17.5113 21.7312 18.0188C22.2387 18.5263 22.927 18.8113 23.6447 18.8113L23.6451 19.8113C22.6623 19.8113 21.7191 19.421 21.0241 18.7259C20.3291 18.0309 19.9387 17.0883 19.9387 16.1054V12.89Z" fill="black"/>
</svg>
