<svg width="24" height="24" viewBox="0 0 24 24" fill="none" xmlns="http://www.w3.org/2000/svg">
<path d="M20.1886 12.8843C20.1354 11.6792 19.753 10.9474 19.6584 10.6876C19.557 10.4091 19.4436 10.135 19.318 9.86641C19.1936 9.59975 19.0577 9.33869 18.9104 9.08418C18.7645 8.83166 18.6073 8.58518 18.4394 8.3461C18.2732 8.10893 18.0963 7.87934 17.9099 7.65768C17.7317 7.44534 17.3556 7.05272 17.3243 7.02022C17.1289 6.82554 16.7255 6.47215 16.6923 6.4431C16.477 6.26317 16.2541 6.09281 16.0243 5.9321C16.0243 5.9321 15.3032 5.47465 15.301 5.47336C15.0658 5.33886 14.6014 5.11022 14.5619 5.09083C14.3126 4.97539 14.0584 4.87064 13.7984 4.77658C13.7473 4.75933 13.2643 4.59725 13.0117 4.53009C12.7482 4.46 12.482 4.40137 12.2136 4.35464C11.9485 4.30843 11.6815 4.27369 11.4116 4.25032C11.3587 4.24696 10.8622 4.21592 10.6069 4.21636C10.3411 4.21653 10.0752 4.22843 9.81043 4.25196C9.558 4.27429 9.06675 4.34956 9.02424 4.35611C8.77586 4.40034 8.29953 4.51664 8.25892 4.52655C8.00933 4.59354 7.76267 4.67157 7.51989 4.76011C7.27832 4.84796 7.04045 4.94616 6.80759 5.05487C6.57679 5.1623 6.35039 5.28007 6.12986 5.40749C5.91122 5.53328 5.69792 5.66907 5.49118 5.81365C5.29332 5.95168 4.92407 6.2467 4.89268 6.27179C4.70301 6.43077 4.5205 6.59759 4.34548 6.77226C4.17159 6.9459 4.00511 7.12686 3.84708 7.31464C3.69051 7.5006 3.54205 7.69346 3.40213 7.89227L3.40126 7.89348C3.26297 8.09039 3.13305 8.2936 3.01226 8.50181C2.89225 8.70846 2.78147 8.92055 2.67999 9.13686C2.5793 9.35153 2.48825 9.57026 2.40687 9.79278C2.32626 10.0128 2.25548 10.2364 2.19435 10.4627C2.134 10.6866 2.08331 10.913 2.04261 11.1414C2.00218 11.3677 1.97149 11.5976 1.95114 11.8254C1.93096 12.052 1.92079 12.2798 1.92071 12.5076C1.92036 12.7325 1.92984 12.9575 1.94907 13.1816C1.94907 13.1816 1.99752 13.6264 2.03589 13.8455C2.03589 13.8455 2.1659 14.4327 2.18099 14.5002C2.23866 14.7129 2.37618 15.1185 2.37618 15.1185C2.45023 15.3218 2.53309 15.5216 2.62447 15.7176C2.71491 15.9116 2.81483 16.1031 2.92131 16.2874C3.02727 16.4707 3.1415 16.6495 3.26315 16.8229C3.3835 16.9948 3.51231 17.1622 3.64654 17.3219C3.78026 17.4809 3.92226 17.6352 4.06848 17.781C4.21392 17.926 4.36609 18.065 4.52386 18.1965C4.67853 18.3263 4.84095 18.4504 5.00743 18.5665C5.17202 18.6811 5.34212 18.7892 5.51593 18.889C5.68654 18.9873 5.86182 19.0781 6.04028 19.1612L6.05045 19.1656C6.11141 19.1922 6.42437 19.328 6.59128 19.3884C6.77388 19.4545 6.96096 19.5127 7.14727 19.5624C7.33255 19.6117 7.51998 19.6528 7.70913 19.6861C7.70913 19.6861 8.08709 19.7436 8.27685 19.7598C8.46273 19.7756 8.6505 19.7838 8.83785 19.7835C9.02347 19.7833 9.21038 19.7748 9.39419 19.7586C9.57696 19.7424 9.75956 19.7182 9.94001 19.6861C10.117 19.6549 10.47 19.5684 10.47 19.5684C10.6426 19.5221 10.8141 19.4679 10.9809 19.4072C11.1469 19.3468 11.3111 19.2787 11.4708 19.2042C11.6293 19.1306 11.7845 19.0499 11.9359 18.9625C12.0851 18.8765 12.2307 18.784 12.372 18.6852C12.5109 18.5881 12.6455 18.4849 12.7755 18.3763C12.7755 18.3763 13.0284 18.155 13.1467 18.0374C13.1467 18.0374 13.3773 17.797 13.4833 17.671C13.5888 17.5459 13.689 17.4158 13.783 17.282C13.875 17.1509 13.9612 17.016 14.0419 16.8776C14.0419 16.8776 14.1963 16.5973 14.2634 16.4544C14.2634 16.4544 14.3907 16.1663 14.4442 16.0199C14.4973 15.8751 14.5439 15.7281 14.5841 15.5793C14.6238 15.4328 14.6568 15.2841 14.6834 15.1346C14.7099 14.9871 14.7296 14.8375 14.7429 14.6893C14.7561 14.5419 14.7628 14.3937 14.7629 14.2456C14.7631 14.1003 14.7571 13.9551 14.7445 13.8105C14.7322 13.6681 14.7134 13.5261 14.6887 13.3852C14.6645 13.2468 14.634 13.1091 14.5976 12.9731C14.562 12.8392 14.5194 12.7045 14.4723 12.5751C14.4298 12.458 14.335 12.2409 14.3164 12.1987L14.3132 12.1917C14.2606 12.08 14.1521 11.8814 14.1307 11.8423L14.1297 11.8405L14.127 11.8357C14.0617 11.7232 13.9916 11.6131 13.9167 11.5068C13.842 11.4 13.7625 11.2965 13.6787 11.1971C13.5964 11.0995 13.5096 11.0051 13.4191 10.9151C13.3326 10.8286 13.2387 10.7429 13.1439 10.6635C13.0492 10.5843 12.9497 10.5084 12.8497 10.4384C12.7508 10.3694 12.6487 10.3047 12.544 10.2445C12.4403 10.1847 12.334 10.1296 12.2251 10.0794C12.2226 10.0783 12.22 10.077 12.2175 10.0758C11.6091 9.7701 10.7917 9.63906 10.1857 9.63906V9.13902C10.8577 9.13902 11.7628 9.28886 12.4382 9.62716C12.5595 9.68312 12.6778 9.7445 12.7935 9.81114C12.9108 9.87865 13.0252 9.95116 13.1361 10.0286C13.2478 10.1067 13.359 10.1915 13.4648 10.2801C13.5708 10.3689 13.6755 10.4643 13.7722 10.5611C13.8731 10.6614 13.9693 10.7661 14.061 10.8749C14.1544 10.9856 14.2427 11.1006 14.326 11.2195C14.4103 11.3394 14.4891 11.4633 14.5625 11.5901L14.5652 11.5949C14.5666 11.5974 14.5679 11.5998 14.5692 11.6023C14.5926 11.6452 14.7127 11.8656 14.7685 11.9849L14.7709 11.9902C14.7721 11.9928 14.7732 11.9955 14.7743 11.9981C14.7942 12.0437 14.8963 12.2779 14.9422 12.4043C14.9942 12.5474 15.0413 12.6961 15.0807 12.8442C15.1209 12.9943 15.1545 13.1461 15.1812 13.2989C15.2085 13.4541 15.2291 13.6105 15.2426 13.7674C15.2564 13.9265 15.2631 14.0861 15.263 14.246C15.2628 14.4089 15.2554 14.5717 15.2409 14.7338C15.2264 14.8965 15.2047 15.0606 15.1756 15.2226C15.1464 15.3864 15.1102 15.5492 15.0668 15.7097C15.0229 15.8726 14.9718 16.0331 14.9138 16.1916C14.8553 16.3519 14.716 16.6668 14.716 16.6668C14.6427 16.823 14.4739 17.1292 14.4739 17.1292C14.3862 17.2799 14.2924 17.4266 14.1922 17.5693C14.0898 17.7151 13.9806 17.8568 13.8657 17.9932C13.7502 18.1303 13.499 18.3921 13.499 18.3921C13.3706 18.5197 13.096 18.7601 13.096 18.7601C12.955 18.8778 12.8091 18.9897 12.6585 19.0949C12.5053 19.2021 12.3475 19.3024 12.1856 19.3957C12.0215 19.4903 11.8535 19.5778 11.6817 19.6576C11.5089 19.7381 11.3315 19.8117 11.1518 19.8771C10.9715 19.9427 10.7861 20.0012 10.5995 20.0512C10.5995 20.0512 10.2183 20.1448 10.0271 20.1785C9.83233 20.2131 9.63542 20.2392 9.43816 20.2567C9.24004 20.2741 9.03864 20.2832 8.83854 20.2835C8.6368 20.2838 8.43471 20.2751 8.23452 20.2579C8.02985 20.2406 7.62257 20.1786 7.62257 20.1786C7.41928 20.1428 7.2178 20.0987 7.01864 20.0456C6.81836 19.9923 6.61731 19.9296 6.42109 19.8586C6.24513 19.7948 5.91518 19.6521 5.85095 19.6241L5.84001 19.6193L5.94001 19.6403L5.83475 19.617C5.64128 19.5272 5.45152 19.4289 5.26659 19.3224C5.08029 19.2154 4.8988 19.1001 4.72232 18.9774L4.72077 18.9762C4.54222 18.8517 4.36885 18.7191 4.20297 18.58C4.03399 18.439 3.87122 18.2904 3.71543 18.135C3.55886 17.979 3.40695 17.8139 3.26384 17.6436C3.1202 17.4727 2.98243 17.2938 2.85372 17.1099C2.72371 16.9245 2.60163 16.7335 2.48834 16.5375C2.37471 16.3408 2.26798 16.1362 2.17133 15.929C2.07382 15.7198 1.98537 15.5066 1.90631 15.2896C1.90631 15.2896 1.75647 14.8478 1.6962 14.6229C1.69526 14.6193 1.69431 14.6157 1.69353 14.6121L1.54343 13.9318C1.50248 13.6983 1.45092 13.2243 1.45092 13.2243C1.43049 12.9859 1.42032 12.7465 1.42066 12.5071C1.42084 12.2646 1.43161 12.0223 1.45317 11.7809C1.47472 11.5387 1.50739 11.2942 1.55033 11.0536C1.59361 10.8109 1.64749 10.5703 1.71164 10.3324C1.77656 10.092 1.85173 9.85477 1.93734 9.62095C2.02373 9.38464 2.12038 9.15247 2.22737 8.92452C2.33496 8.69501 2.45248 8.46999 2.57981 8.25075C2.70793 8.03013 2.84553 7.81485 2.992 7.60621L2.9933 7.6044C3.1415 7.39387 3.29867 7.18971 3.46454 6.99263C3.6318 6.79382 3.80811 6.60225 3.99226 6.41844C4.17823 6.23273 4.37221 6.05548 4.57386 5.88667L4.57809 5.88322C4.57809 5.88322 4.98916 5.55431 5.20487 5.4037C5.42359 5.25084 5.64887 5.10738 5.8801 4.97426C6.1133 4.8396 6.35238 4.71528 6.59628 4.60173C6.84242 4.4869 7.09356 4.38309 7.34884 4.29024C7.6061 4.19644 7.86733 4.11393 8.13175 4.04298L8.13693 4.04169C8.13693 4.04169 8.6699 3.91107 8.93958 3.86331L8.94493 3.86245C8.94493 3.86245 9.49144 3.77821 9.76629 3.7539C10.0455 3.72907 10.3258 3.71657 10.6062 3.71631C10.8872 3.71588 11.4482 3.75166 11.4482 3.75166L11.4538 3.75209C11.7371 3.77658 12.0194 3.81322 12.2994 3.8621C12.5822 3.91133 12.8627 3.97306 13.1402 4.04694C13.4175 4.12066 13.9626 4.30429 13.9626 4.30429L13.9678 4.3061C14.2413 4.40508 14.5106 4.51595 14.7745 4.6382L14.7796 4.6407C14.7796 4.6407 15.3039 4.89831 15.5568 5.04367C15.5599 5.04548 15.5631 5.04737 15.5661 5.04927L16.2971 5.5131C16.3002 5.51509 16.3033 5.51716 16.3063 5.51922C16.5501 5.6895 16.7867 5.87029 17.015 6.06117L17.0191 6.0647C17.0191 6.0647 17.4682 6.45749 17.6792 6.66786L17.683 6.67174C17.683 6.67174 18.0996 7.10591 18.2928 7.33602C18.4885 7.5688 18.6741 7.80985 18.8487 8.05892C19.025 8.31007 19.19 8.56871 19.3433 8.8339C19.4978 9.10108 19.6405 9.37499 19.771 9.65484C19.9028 9.93667 20.0218 10.2243 20.1283 10.5165C20.1428 10.5565 20.1636 10.6067 20.1886 10.6675V7.47568H20.6886V16.1055C20.6886 16.8894 21 17.6413 21.5544 18.1957C22.1087 18.75 22.8606 19.0614 23.6446 19.0614L23.6451 19.5615C22.7285 19.5615 21.849 19.1973 21.2008 18.5492C20.5527 17.9011 20.1886 17.022 20.1886 16.1055V12.8843Z" fill="black"/>
</svg>
