<svg width="24" height="24" viewBox="0 0 24 24" fill="none" xmlns="http://www.w3.org/2000/svg">
<path d="M12 0.25C12.6904 0.25 13.25 0.809644 13.25 1.5V3.27202C14.2828 3.74602 15 4.78925 15 6C15 7.21075 14.2828 8.25397 13.25 8.72798V18.3799C12.8455 18.4587 12.4276 18.5 12 18.5C11.5724 18.5 11.1545 18.4587 10.75 18.3799V8.72798C9.71724 8.25397 9 7.21075 9 6C9 4.78925 9.71724 3.74602 10.75 3.27202V1.5C10.75 0.809644 11.3096 0.25 12 0.25Z" fill="black"/>
<path d="M1.75 12C1.75 11.3096 2.30964 10.75 3 10.75H6.5V13.25H4.35028C4.94796 16.9359 8.14534 19.75 12 19.75C15.8547 19.75 19.052 16.9359 19.6497 13.25H17.5V10.75H21C21.6904 10.75 22.25 11.3096 22.25 12C22.25 17.6609 17.6609 22.25 12 22.25C6.33908 22.25 1.75 17.6609 1.75 12Z" fill="black"/>
</svg>
