<svg width="24" height="24" viewBox="0 0 24 24" fill="none" xmlns="http://www.w3.org/2000/svg">
<path fill-rule="evenodd" clip-rule="evenodd" d="M12 0.25C12.6904 0.25 13.25 0.809644 13.25 1.5V2.19919C14.847 2.72409 16 4.22739 16 6C16 7.77261 14.847 9.27591 13.25 9.80081V19.6497C16.5289 19.118 19.118 16.5289 19.6497 13.25H17.5V10.75H21C21.6904 10.75 22.25 11.3096 22.25 12C22.25 17.2378 18.3213 21.558 13.25 22.1745V22.5C13.25 23.1904 12.6904 23.75 12 23.75C11.3096 23.75 10.75 23.1904 10.75 22.5V22.1745C5.67867 21.558 1.75 17.2378 1.75 12C1.75 11.3096 2.30964 10.75 3 10.75H6.5V13.25H4.35028C4.88198 16.5289 7.47105 19.118 10.75 19.6497V9.80081C9.15303 9.27591 8 7.77261 8 6C8 4.22739 9.15303 2.72409 10.75 2.19919V1.5C10.75 0.809644 11.3096 0.25 12 0.25ZM12 7.5C12.8284 7.5 13.5 6.82843 13.5 6C13.5 5.17157 12.8284 4.5 12 4.5C11.1716 4.5 10.5 5.17157 10.5 6C10.5 6.82843 11.1716 7.5 12 7.5Z" fill="black"/>
</svg>
