<svg width="24" height="24" viewBox="0 0 24 24" fill="none" xmlns="http://www.w3.org/2000/svg">
<path fill-rule="evenodd" clip-rule="evenodd" d="M12.0016 1C12.2777 1 12.5016 1.22386 12.5016 1.5V2.53544C14.1977 2.77806 15.5016 4.23676 15.5016 6C15.5016 7.76324 14.1977 9.22194 12.5016 9.46456V20.4855C16.7978 20.2363 20.2379 16.7962 20.4871 12.5H17.5016V11.5H21.0016C21.2777 11.5 21.5016 11.7239 21.5016 12C21.5016 17.079 17.5159 21.2271 12.5016 21.4871V22.5C12.5016 22.7761 12.2777 23 12.0016 23C11.7254 23 11.5016 22.7761 11.5016 22.5V21.4871C6.4873 21.2271 2.50159 17.079 2.50159 12C2.50159 11.7239 2.72544 11.5 3.00159 11.5H6.50159V12.5H3.51605C3.76526 16.7962 7.20534 20.2363 11.5016 20.4855V9.46456C9.80544 9.22194 8.50159 7.76324 8.50159 6C8.50159 4.23676 9.80544 2.77806 11.5016 2.53544V1.5C11.5016 1.22386 11.7254 1 12.0016 1ZM12.0016 3.5C10.6209 3.5 9.50159 4.61929 9.50159 6C9.50159 7.38071 10.6209 8.5 12.0016 8.5C13.3823 8.5 14.5016 7.38071 14.5016 6C14.5016 4.61929 13.3823 3.5 12.0016 3.5Z" fill="black"/>
</svg>
