<svg width="24" height="24" viewBox="0 0 24 24" fill="none" xmlns="http://www.w3.org/2000/svg">
<path fill-rule="evenodd" clip-rule="evenodd" d="M12.002 0.5C12.5542 0.5 13.002 0.947715 13.002 1.5V2.12602C14.7272 2.57006 16.002 4.13616 16.002 6C16.002 7.86384 14.7272 9.42994 13.002 9.87398V19.9381C16.6207 19.4869 19.4888 16.6187 19.9401 13H17.502V11H21.002C21.5542 11 22.002 11.4477 22.002 12C22.002 17.1853 18.0553 21.4489 13.002 21.9506V22.5C13.002 23.0523 12.5542 23.5 12.002 23.5C11.4497 23.5 11.002 23.0523 11.002 22.5V21.9506C5.94863 21.4489 2.00195 17.1853 2.00195 12C2.00195 11.4477 2.44967 11 3.00195 11H6.50195V13H4.06385C4.51509 16.6187 7.38324 19.4869 11.002 19.9381V9.87398C9.27673 9.42994 8.00195 7.86384 8.00195 6C8.00195 4.13616 9.27673 2.57006 11.002 2.12602V1.5C11.002 0.947715 11.4497 0.5 12.002 0.5ZM12.002 8C13.1065 8 14.002 7.10457 14.002 6C14.002 4.89543 13.1065 4 12.002 4C10.8974 4 10.002 4.89543 10.002 6C10.002 7.10457 10.8974 8 12.002 8Z" fill="black"/>
</svg>
