<svg width="24" height="24" viewBox="0 0 24 24" fill="none" xmlns="http://www.w3.org/2000/svg">
<path fill-rule="evenodd" clip-rule="evenodd" d="M12.002 1C12.2781 1 12.502 1.22386 12.502 1.5V2.53544C14.1981 2.77806 15.502 4.23676 15.502 6C15.502 7.76324 14.1981 9.22194 12.502 9.46456V20.4855C16.7982 20.2363 20.2383 16.7962 20.4875 12.5H17.502V11.5H21.002C21.2781 11.5 21.502 11.7239 21.502 12C21.502 17.079 17.5162 21.2271 12.502 21.4871V22.5C12.502 22.7761 12.2781 23 12.002 23C11.7258 23 11.502 22.7761 11.502 22.5V21.4871C6.48767 21.2271 2.50195 17.079 2.50195 12C2.50195 11.7239 2.72581 11.5 3.00195 11.5H6.50195V12.5H3.51641C3.76563 16.7962 7.20571 20.2363 11.502 20.4855V9.46456C9.80581 9.22194 8.50195 7.76324 8.50195 6C8.50195 4.23676 9.80581 2.77806 11.502 2.53544V1.5C11.502 1.22386 11.7258 1 12.002 1ZM12.002 3.5C10.6212 3.5 9.50195 4.61929 9.50195 6C9.50195 7.38071 10.6212 8.5 12.002 8.5C13.3827 8.5 14.502 7.38071 14.502 6C14.502 4.61929 13.3827 3.5 12.002 3.5Z" fill="black"/>
</svg>
