<svg width="24" height="24" viewBox="0 0 24 24" fill="none" xmlns="http://www.w3.org/2000/svg">
<path d="M12 1.25C12.1381 1.25 12.25 1.36193 12.25 1.5V4.52074C12.9594 4.63976 13.5 5.25675 13.5 6C13.5 6.74325 12.9594 7.36024 12.25 7.47926V20.2463C12.167 20.2488 12.0836 20.25 12 20.25C11.9164 20.25 11.833 20.2488 11.75 20.2463V7.47926C11.0406 7.36024 10.5 6.74325 10.5 6C10.5 5.25675 11.0406 4.63976 11.75 4.52074V1.5C11.75 1.36193 11.8619 1.25 12 1.25Z" fill="black"/>
<path d="M12 21.75C12.0836 21.75 12.1669 21.7489 12.25 21.7469V22.5C12.25 22.6381 12.1381 22.75 12 22.75C11.8619 22.75 11.75 22.6381 11.75 22.5V21.7469C11.8331 21.7489 11.9164 21.75 12 21.75Z" fill="black"/>
<path d="M2.75 12C2.75 11.8619 2.86193 11.75 3 11.75H6.5V12.25H3.2535C3.38584 16.9669 7.25112 20.75 12 20.75C16.7489 20.75 20.6142 16.9669 20.7465 12.25H17.5V11.75H21C21.1381 11.75 21.25 11.8619 21.25 12C21.25 17.1086 17.1086 21.25 12 21.25C6.89137 21.25 2.75 17.1086 2.75 12Z" fill="black"/>
</svg>
