<svg width="24" height="24" viewBox="0 0 24 24" fill="none" xmlns="http://www.w3.org/2000/svg">
<path fill-rule="evenodd" clip-rule="evenodd" d="M11.9994 0.25C12.6897 0.25 13.2494 0.809644 13.2494 1.5V2.19919C14.8464 2.72409 15.9994 4.22739 15.9994 6C15.9994 7.77261 14.8464 9.27591 13.2494 9.80081V19.6497C16.5283 19.118 19.1174 16.5289 19.6491 13.25H17.4994V10.75H20.9994C21.6897 10.75 22.2494 11.3096 22.2494 12C22.2494 17.2378 18.3207 21.558 13.2494 22.1745V22.5C13.2494 23.1904 12.6897 23.75 11.9994 23.75C11.309 23.75 10.7494 23.1904 10.7494 22.5V22.1745C5.67806 21.558 1.74939 17.2378 1.74939 12C1.74939 11.3096 2.30903 10.75 2.99939 10.75H6.49939V13.25H4.34967C4.88137 16.5289 7.47044 19.118 10.7494 19.6497V9.80081C9.15242 9.27591 7.99939 7.77261 7.99939 6C7.99939 4.22739 9.15242 2.72409 10.7494 2.19919V1.5C10.7494 0.809644 11.309 0.25 11.9994 0.25ZM11.9994 7.5C12.8278 7.5 13.4994 6.82843 13.4994 6C13.4994 5.17157 12.8278 4.5 11.9994 4.5C11.171 4.5 10.4994 5.17157 10.4994 6C10.4994 6.82843 11.171 7.5 11.9994 7.5Z" fill="black"/>
</svg>
