<svg width="24" height="25" viewBox="0 0 24 25" fill="none" xmlns="http://www.w3.org/2000/svg">
<path d="M18 17.2503C18 18.3549 17.1046 19.2503 16 19.2503H16.25V23.2503C16.25 23.9407 15.6904 24.5003 15 24.5003C14.3096 24.5003 13.75 23.9407 13.75 23.2503V19.2503H10.25V23.2503C10.25 23.9407 9.69036 24.5003 9 24.5003C8.30964 24.5003 7.75 23.9407 7.75 23.2503V19.2503H8C6.89543 19.2503 6 18.3549 6 17.2503V11.2503H18V17.2503Z" fill="black"/>
<path d="M3 7.00032C3.69022 7.00032 4.24978 7.56015 4.25 8.25032V17.2503C4.25 17.9407 3.69036 18.5003 3 18.5003C2.30964 18.5003 1.75 17.9407 1.75 17.2503V8.25032C1.75022 7.56015 2.30978 7.00032 3 7.00032Z" fill="black"/>
<path d="M21 7.00032C21.6902 7.00032 22.2498 7.56015 22.25 8.25032V17.2503C22.25 17.9407 21.6904 18.5003 21 18.5003C20.3096 18.5003 19.75 17.9407 19.75 17.2503V8.25032C19.7502 7.56015 20.3098 7.00032 21 7.00032Z" fill="black"/>
<path fill-rule="evenodd" clip-rule="evenodd" d="M14.917 0.62532C15.2622 0.0278201 16.0273 -0.177496 16.625 0.167313C17.2227 0.512391 17.4278 1.27753 17.083 1.87532L16.083 3.60774C16.0518 3.66182 16.0152 3.71158 15.9775 3.75911C17.2177 4.85834 17.9999 6.46287 18 8.25032V10.2503H6V8.25032C6.00012 6.46287 6.78226 4.85834 8.02246 3.75911C7.98473 3.71151 7.94826 3.66191 7.91699 3.60774L6.91699 1.87532C6.57224 1.27755 6.77735 0.513384 7.375 0.168289C7.97283 -0.176852 8.73781 0.0275409 9.08301 0.62532L10.083 2.35774C10.1164 2.41566 10.1428 2.47593 10.166 2.53645C10.7441 2.35102 11.3603 2.25032 12 2.25032C12.6394 2.25032 13.2551 2.3512 13.833 2.53645C13.8562 2.47593 13.8836 2.41567 13.917 2.35774L14.917 0.62532ZM10.5 5.75032C10.0859 5.75032 9.75022 6.0863 9.75 6.50032C9.75 6.91453 10.0858 7.25032 10.5 7.25032C10.9142 7.25032 11.25 6.91453 11.25 6.50032C11.2498 6.0863 10.9141 5.75032 10.5 5.75032ZM13.5 5.75032C13.0859 5.75032 12.7502 6.0863 12.75 6.50032C12.75 6.91453 13.0858 7.25032 13.5 7.25032C13.9142 7.25032 14.25 6.91453 14.25 6.50032C14.2498 6.0863 13.9141 5.75032 13.5 5.75032Z" fill="black"/>
</svg>
