<svg width="24" height="24" viewBox="0 0 24 24" fill="none" xmlns="http://www.w3.org/2000/svg">
<path d="M18 17.0002C18 18.0358 17.2128 18.8882 16.2041 18.9904L16 19.0002V23.0002C16 23.5525 15.5523 24.0002 15 24.0002C14.4477 24.0002 14 23.5525 14 23.0002V19.0002H10V23.0002C10 23.5525 9.55228 24.0002 9 24.0002C8.44772 24.0002 8 23.5525 8 23.0002V19.0002C6.89543 19.0002 6 18.1047 6 17.0002V10.0002H18V17.0002Z" fill="black"/>
<path d="M3 7.00017C3.5522 7.00017 3.99987 7.448 4 8.00017V17.0002C4 17.5525 3.55228 18.0002 3 18.0002C2.44772 18.0002 2 17.5525 2 17.0002V8.00017C2.00013 7.448 2.4478 7.00017 3 7.00017Z" fill="black"/>
<path d="M21 7.00017C21.5522 7.00017 21.9999 7.448 22 8.00017V17.0002C22 17.5525 21.5523 18.0002 21 18.0002C20.4477 18.0002 20 17.5525 20 17.0002V8.00017C20.0001 7.448 20.4478 7.00017 21 7.00017Z" fill="black"/>
<path fill-rule="evenodd" clip-rule="evenodd" d="M15.1338 0.500174C15.4099 0.0220941 16.0218 -0.141988 16.5 0.133963C16.9782 0.410052 17.1421 1.02192 16.8662 1.50017L15.8662 3.2326C15.8427 3.27331 15.8152 3.31079 15.7871 3.34685C17.1373 4.44707 17.9999 6.12277 18 8.00017V9.00017H6V8.00017C6.00008 6.12304 6.86208 4.44708 8.21191 3.34685C8.18393 3.31087 8.15723 3.27319 8.13379 3.2326L7.13379 1.50017C6.85798 1.02201 7.022 0.411076 7.5 0.134939C7.97823 -0.141165 8.59002 0.0220314 8.86621 0.500174L9.86621 2.2326C9.89146 2.27635 9.91171 2.32173 9.92969 2.36736C10.575 2.13007 11.2723 2.00017 12 2.00017C12.7273 2.00017 13.4242 2.13027 14.0693 2.36736C14.0873 2.3217 14.1085 2.27639 14.1338 2.2326L15.1338 0.500174ZM10.5 5.00017C10.0859 5.00017 9.75014 5.33608 9.75 5.75017C9.75 6.16439 10.0858 6.50017 10.5 6.50017C10.9142 6.50017 11.25 6.16439 11.25 5.75017C11.2499 5.33608 10.9141 5.00017 10.5 5.00017ZM13.5 5.00017C13.0859 5.00017 12.7501 5.33608 12.75 5.75017C12.75 6.16439 13.0858 6.50017 13.5 6.50017C13.9142 6.50017 14.25 6.16439 14.25 5.75017C14.2499 5.33608 13.9141 5.00017 13.5 5.00017Z" fill="black"/>
</svg>
