<svg width="24" height="24" viewBox="0 0 24 24" fill="none" xmlns="http://www.w3.org/2000/svg">
<path d="M18 17.0003C17.9997 18.1047 17.1044 19.0003 16 19.0003H15.75V23.0003C15.7497 23.4143 15.4141 23.7503 15 23.7503C14.5859 23.7503 14.2503 23.4143 14.25 23.0003V19.0003H9.75V23.0003C9.74975 23.4144 9.41406 23.7503 9 23.7503C8.58594 23.7503 8.25025 23.4144 8.25 23.0003V19.0003H8C6.89559 19.0003 6.00025 18.1047 6 17.0003V9.00035H18V17.0003Z" fill="black"/>
<path d="M3 7.25035C3.41421 7.25035 3.75 7.58613 3.75 8.00035V17.0003C3.74975 17.4143 3.41406 17.7503 3 17.7503C2.58594 17.7503 2.25025 17.4143 2.25 17.0003V8.00035C2.25 7.58613 2.58579 7.25035 3 7.25035Z" fill="black"/>
<path d="M21 7.25035C21.4142 7.25035 21.75 7.58613 21.75 8.00035V17.0003C21.7497 17.4143 21.4141 17.7503 21 17.7503C20.5859 17.7503 20.2503 17.4143 20.25 17.0003V8.00035C20.25 7.58613 20.5858 7.25035 21 7.25035Z" fill="black"/>
<path fill-rule="evenodd" clip-rule="evenodd" d="M15.3506 0.625348C15.5577 0.266664 16.0163 0.143837 16.375 0.350934C16.7335 0.558108 16.8565 1.01671 16.6494 1.37535L15.6494 3.10777C15.6318 3.13819 15.6109 3.16576 15.5898 3.19273C17.0528 4.28691 18 6.0329 18 8.00035H6C6 6.03318 6.94654 4.28694 8.40918 3.19273C8.38817 3.16572 8.36818 3.13726 8.35059 3.10679L7.35059 1.37437C7.14375 1.0157 7.26639 0.556998 7.625 0.349958C7.98355 0.143078 8.44222 0.266046 8.64941 0.624372L9.64941 2.35679C9.66843 2.38973 9.68374 2.42401 9.69727 2.45836C10.4063 2.16339 11.1841 2.00035 12 2.00035C12.8156 2.00035 13.5929 2.16361 14.3018 2.45836C14.3152 2.42412 14.3317 2.3906 14.3506 2.35777L15.3506 0.625348ZM10.5 4.50035C10.0858 4.50035 9.75 4.83613 9.75 5.25035C9.75025 5.66435 10.0859 6.00035 10.5 6.00035C10.9141 6.00035 11.2498 5.66435 11.25 5.25035C11.25 4.83613 10.9142 4.50035 10.5 4.50035ZM13.5 4.50035C13.0858 4.50035 12.75 4.83613 12.75 5.25035C12.7502 5.66435 13.0859 6.00035 13.5 6.00035C13.9141 6.00035 14.2498 5.66435 14.25 5.25035C14.25 4.83613 13.9142 4.50035 13.5 4.50035Z" fill="black"/>
</svg>
