<svg width="24" height="24" viewBox="0 0 24 24" fill="none" xmlns="http://www.w3.org/2000/svg">
<path fill-rule="evenodd" clip-rule="evenodd" d="M18 17C18 18.0356 17.2128 18.887 16.2041 18.9892L16 19H15.5V23C15.5 23.2761 15.2761 23.5 15 23.5C14.7239 23.5 14.5 23.2761 14.5 23V19H9.5V23C9.49997 23.2761 9.27612 23.5 9 23.5C8.72388 23.5 8.50003 23.2761 8.5 23V19H8C6.89545 19 6.00004 18.1045 6 17V8.99999H18V17ZM7 17C7.00004 17.5522 7.44774 18 8 18H16C16.5523 18 17 17.5522 17 17V9.99999H7V17Z" fill="black"/>
<path d="M3 7.49999C3.27614 7.49999 3.5 7.72385 3.5 7.99999V17C3.49996 17.2761 3.27612 17.5 3 17.5C2.72388 17.5 2.50004 17.2761 2.5 17V7.99999C2.5 7.72385 2.72386 7.49999 3 7.49999Z" fill="black"/>
<path d="M21 7.49999C21.2761 7.49999 21.5 7.72385 21.5 7.99999V17C21.5 17.2761 21.2761 17.5 21 17.5C20.7239 17.5 20.5 17.2761 20.5 17V7.99999C20.5 7.72385 20.7239 7.49999 21 7.49999Z" fill="black"/>
<path d="M10.5 4.49999C10.8452 4.49999 11.125 4.77981 11.125 5.12499C11.125 5.47014 10.8452 5.74999 10.5 5.74999C10.1548 5.74999 9.87503 5.47014 9.875 5.12499C9.875 4.77981 10.1548 4.49999 10.5 4.49999Z" fill="black"/>
<path d="M13.5 4.49999C13.8452 4.49999 14.125 4.77981 14.125 5.12499C14.125 5.47014 13.8452 5.74999 13.5 5.74999C13.1548 5.74999 12.875 5.47014 12.875 5.12499C12.875 4.77981 13.1548 4.49999 13.5 4.49999Z" fill="black"/>
<path fill-rule="evenodd" clip-rule="evenodd" d="M15.5674 0.749989C15.7055 0.510975 16.0109 0.429334 16.25 0.567372C16.489 0.705497 16.5706 1.01091 16.4326 1.24999L15.4326 2.98241C15.4192 3.00562 15.4021 3.0257 15.3857 3.04589C16.9642 4.12677 18 5.94242 18 7.99999H6C6 5.94271 7.03515 4.12682 8.61328 3.04589C8.59706 3.02585 8.58071 3.00543 8.56738 2.98241L7.56738 1.24999C7.42943 1.01092 7.51104 0.705477 7.75 0.567372C7.989 0.429387 8.29442 0.511187 8.43262 0.749989L9.43262 2.48241C9.44702 2.50739 9.4581 2.5334 9.46777 2.55956C10.2372 2.20082 11.0951 1.99999 12 1.99999C12.9046 1.99999 13.762 2.20106 14.5312 2.55956C14.541 2.5333 14.5529 2.50748 14.5674 2.48241L15.5674 0.749989ZM12 2.99999C9.58108 2.99999 7.5639 4.7178 7.10059 6.99999H16.8994C16.4361 4.7178 14.4189 2.99999 12 2.99999Z" fill="black"/>
</svg>
