<svg width="24" height="24" viewBox="0 0 24 24" fill="none" xmlns="http://www.w3.org/2000/svg">
<path d="M1 0.5C1.27614 0.5 1.5 0.723858 1.5 1V22.5H23C23.2761 22.5 23.5 22.7239 23.5 23C23.5 23.2761 23.2761 23.5 23 23.5H1C0.723858 23.5 0.5 23.2761 0.5 23V1C0.5 0.723858 0.723858 0.5 1 0.5Z" fill="black"/>
<path d="M2.5 8.5C4.20706 8.5 5.89748 8.83604 7.47461 9.48926C9.05184 10.1426 10.4852 11.1005 11.6924 12.3076C12.8995 13.5148 13.8574 14.9482 14.5107 16.5254C15.164 18.1025 15.5 19.7929 15.5 21.5H2.5V8.5Z" fill="black"/>
</svg>
