<svg width="24" height="24" viewBox="0 0 24 24" fill="none" xmlns="http://www.w3.org/2000/svg">
<path fill-rule="evenodd" clip-rule="evenodd" d="M1 0.5C1.27614 0.5 1.5 0.723858 1.5 1V9.00879C1.66588 9.00271 1.83259 9.00098 2 9.00098C9.1797 9.00098 15 14.8213 15 22.001C15 22.168 14.9965 22.3344 14.9902 22.5H23C23.2761 22.5 23.5 22.7239 23.5 23C23.5 23.2761 23.2761 23.5 23 23.5H1C0.723858 23.5 0.5 23.2761 0.5 23V1C0.5 0.723858 0.723858 0.5 1 0.5ZM1.5 10.0107V22.5H13.9893C13.9963 22.3345 14 22.1681 14 22.001C14 15.3736 8.62742 10.001 2 10.001C1.83251 10.001 1.66581 10.004 1.5 10.0107Z" fill="black"/>
</svg>
