<svg width="24" height="24" viewBox="0 0 24 24" fill="none" xmlns="http://www.w3.org/2000/svg">
<path fill-rule="evenodd" clip-rule="evenodd" d="M22.2402 0.784546C22.3591 0.714391 22.5128 0.754588 22.583 0.873413C22.6529 0.992209 22.6128 1.14603 22.4941 1.21619L15.5254 5.33337C16.5591 7.24231 17.1494 9.42708 17.1494 11.7504C17.1493 14.208 16.4895 16.5106 15.3418 18.4955L22.4941 22.723C22.6129 22.7933 22.6532 22.947 22.583 23.0658C22.5127 23.1843 22.3589 23.2228 22.2402 23.1527L5.54785 13.2875C5.08731 13.8704 4.37585 14.2465 3.5752 14.2465C2.1869 14.2463 1.06192 13.121 1.06152 11.7328C1.06152 10.3442 2.18666 9.21828 3.5752 9.21814C4.52195 9.21814 5.34543 9.74185 5.77441 10.515L22.2402 0.784546ZM5.97363 10.9779C6.04851 11.2162 6.08984 11.4698 6.08984 11.7328C6.08973 12.1408 5.99 12.525 5.81738 12.8656L14.9121 18.2416C16.0156 16.3312 16.6493 14.1151 16.6494 11.7504C16.6494 9.51996 16.0854 7.42154 15.0957 5.58728L5.97363 10.9779ZM3.97266 13.7064C3.84391 13.7322 3.71057 13.7455 3.57422 13.7455L3.5752 13.7465L3.78125 13.7367C3.84608 13.7301 3.9098 13.719 3.97266 13.7064ZM5.33496 10.7543C5.49617 11.0438 5.58881 11.3769 5.58887 11.7318C5.58886 11.8685 5.57381 12.0022 5.54785 12.1312C5.56056 12.068 5.57245 12.004 5.5791 11.9388L5.58984 11.7328C5.58984 11.3774 5.49654 11.0441 5.33496 10.7543Z" fill="black"/>
</svg>
