<svg width="24" height="24" viewBox="0 0 24 24" fill="none" xmlns="http://www.w3.org/2000/svg">
<path fill-rule="evenodd" clip-rule="evenodd" d="M22.2402 0.785795C22.3591 0.715578 22.5127 0.754908 22.583 0.873685C22.6527 0.992463 22.6128 1.14633 22.4941 1.21646L15.5254 5.33365C16.5591 7.24257 17.1494 9.42736 17.1494 11.7506C17.1493 14.2086 16.4897 16.5117 15.3418 18.4967L22.4941 22.7243C22.6127 22.7945 22.653 22.9473 22.583 23.0661C22.5126 23.1843 22.3588 23.2229 22.2402 23.153L5.54785 13.2877C5.08731 13.8707 4.37584 14.2467 3.5752 14.2467C2.18691 14.2466 1.06194 13.1213 1.06152 11.7331C1.06152 10.3445 2.18666 9.21855 3.5752 9.21841C4.52165 9.21841 5.34532 9.74154 5.77441 10.5143L22.2402 0.785795ZM5.97363 10.9782C6.04851 11.2164 6.08984 11.4701 6.08984 11.7331C6.08972 12.1415 5.9894 12.5259 5.81641 12.8668L14.9121 18.2428C16.0159 16.3323 16.6493 14.1157 16.6494 11.7506C16.6494 9.52024 16.0854 7.42181 15.0957 5.58755L5.97363 10.9782ZM3.36914 9.72915C2.35358 9.83251 1.56152 10.6902 1.56152 11.7331L1.57129 11.9391C1.67482 12.9544 2.53262 13.7466 3.5752 13.7467L3.78125 13.737C4.72909 13.6408 5.48243 12.8868 5.5791 11.9391L5.58984 11.7331C5.58984 10.6205 4.68771 9.71841 3.5752 9.71841L3.36914 9.72915Z" fill="black"/>
</svg>
