<svg width="24" height="24" viewBox="0 0 24 24" fill="none" xmlns="http://www.w3.org/2000/svg">
<path fill-rule="evenodd" clip-rule="evenodd" d="M22.1133 0.569267C22.3509 0.42903 22.6573 0.508586 22.7979 0.746025C22.9378 0.983583 22.8594 1.29017 22.6221 1.43059L15.6445 5.55267C16.6057 7.4087 17.1504 9.51555 17.1504 11.7499C17.1503 14.1185 16.5374 16.3432 15.4658 18.2783L22.6211 22.5077C22.8587 22.6483 22.9383 22.9546 22.7979 23.1923C22.6573 23.4297 22.3509 23.5084 22.1133 23.3681L5.82031 13.7382C5.26827 14.3552 4.46831 14.746 3.5752 14.746C1.9107 14.7459 0.561821 13.3968 0.561523 11.7324C0.561523 10.0676 1.91051 8.71784 3.5752 8.7177C4.61574 8.7177 5.53342 9.24484 6.0752 10.0468L22.1133 0.569267ZM6.48633 10.9648C6.55084 11.2101 6.58984 11.4668 6.58984 11.7324C6.58977 12.144 6.50594 12.5361 6.35645 12.8935L14.6035 17.7685C15.5871 15.9828 16.1503 13.9327 16.1504 11.7499C16.1504 9.70154 15.6549 7.76945 14.7812 6.06341L6.48633 10.9648ZM3.36914 9.72845C2.35357 9.83179 1.56152 10.6895 1.56152 11.7324L1.57129 11.9384C1.67472 12.9538 2.53254 13.7459 3.5752 13.746L3.78125 13.7363C4.72916 13.6401 5.48253 12.8862 5.5791 11.9384L5.58984 11.7324C5.58984 10.6198 4.68771 9.7177 3.5752 9.7177L3.36914 9.72845Z" fill="black"/>
</svg>
