<svg width="24" height="24" viewBox="0 0 24 24" fill="none" xmlns="http://www.w3.org/2000/svg">
<path fill-rule="evenodd" clip-rule="evenodd" d="M21.9854 0.354428C22.3418 0.143775 22.8018 0.26189 23.0127 0.6181C23.2231 0.974633 23.1055 1.43476 22.749 1.64544L15.7559 5.77728C16.6463 7.57806 17.1494 9.60506 17.1494 11.7499C17.1493 14.0292 16.5825 16.1756 15.585 18.0585L22.749 22.2929C23.1051 22.5037 23.224 22.9629 23.0137 23.3193C22.8029 23.6755 22.3427 23.7933 21.9863 23.5829L6.08789 14.1865C5.44972 14.8393 4.56029 15.246 3.5752 15.246C1.63463 15.2459 0.0619381 13.6729 0.0615234 11.7324C0.0615234 9.7915 1.63437 8.21785 3.5752 8.21771C4.70907 8.21771 5.71669 8.7552 6.35938 9.5888L21.9854 0.354428ZM7.00195 10.9511C7.05895 11.2023 7.08984 11.464 7.08984 11.7324C7.08975 12.1473 7.01694 12.5454 6.88477 12.915L14.291 17.2929C15.157 15.6347 15.6493 13.7502 15.6494 11.7499C15.6494 9.88384 15.2213 8.11789 14.4609 6.5429L7.00195 10.9511ZM3.97168 13.706C3.84321 13.7317 3.71025 13.7451 3.57422 13.7451L3.5752 13.746L3.78125 13.7363C3.84575 13.7297 3.90913 13.7185 3.97168 13.706ZM5.58887 11.7324C5.58882 11.8688 5.57375 12.002 5.54785 12.1308C5.56056 12.0676 5.57245 12.0036 5.5791 11.9384L5.58887 11.7324ZM3.57422 9.71771C3.80161 9.71771 4.01997 9.75547 4.22363 9.82513L4.01562 9.76654C3.87393 9.73472 3.72565 9.71771 3.57422 9.71771Z" fill="black"/>
</svg>
