<svg width="24" height="24" viewBox="0 0 24 24" fill="none" xmlns="http://www.w3.org/2000/svg">
<path fill-rule="evenodd" clip-rule="evenodd" d="M22.1133 0.569267C22.3509 0.42903 22.6573 0.508586 22.7979 0.746025C22.9377 0.983568 22.8594 1.29019 22.6221 1.43059L15.6445 5.55267C16.6056 7.40867 17.1504 9.51559 17.1504 11.7499C17.1503 14.1185 16.5375 16.3432 15.4658 18.2783L22.6211 22.5077C22.8586 22.6483 22.9383 22.9547 22.7979 23.1923C22.6573 23.4296 22.3508 23.5083 22.1133 23.3681L5.82031 13.7382C5.26827 14.3552 4.46827 14.746 3.5752 14.746C1.91074 14.7459 0.561896 13.3967 0.561523 11.7324C0.561523 10.0676 1.91051 8.71784 3.5752 8.7177C4.61578 8.7177 5.53343 9.24479 6.0752 10.0468L22.1133 0.569267ZM6.48633 10.9648C6.55081 11.2101 6.58984 11.4668 6.58984 11.7324C6.58975 12.144 6.50595 12.5361 6.35645 12.8935L14.6035 17.7685C15.5871 15.9828 16.1503 13.9327 16.1504 11.7499C16.1504 9.70158 15.6548 7.76943 14.7812 6.06341L6.48633 10.9648ZM3.72461 13.7382L3.78125 13.7363C3.80431 13.7339 3.8268 13.7277 3.84961 13.7245C3.80828 13.7302 3.7667 13.7351 3.72461 13.7382ZM5.56836 12.0038C5.57141 11.982 5.57685 11.9605 5.5791 11.9384L5.58105 11.8993C5.57805 11.9345 5.57317 11.9692 5.56836 12.0038ZM5.58887 11.7324C5.58886 11.7566 5.58683 11.7806 5.58594 11.8046L5.58887 11.7324Z" fill="black"/>
</svg>
