<svg width="24" height="24" viewBox="0 0 24 24" fill="none" xmlns="http://www.w3.org/2000/svg">
<path fill-rule="evenodd" clip-rule="evenodd" d="M21.9854 0.354428C22.3418 0.143775 22.8018 0.26189 23.0127 0.6181C23.2232 0.974648 23.1055 1.43474 22.749 1.64544L15.7559 5.77728C16.646 7.57805 17.1484 9.60518 17.1484 11.7499C17.1484 14.0289 16.5813 16.1748 15.584 18.0576L22.749 22.2929C23.1051 22.5037 23.2241 22.9629 23.0137 23.3193C22.8029 23.6756 22.3428 23.7934 21.9863 23.5829L6.08789 14.1865C5.44971 14.8393 4.56033 15.246 3.5752 15.246C1.63458 15.2459 0.0618609 13.6729 0.0615234 11.7324C0.0615234 9.7915 1.63437 8.21785 3.5752 8.21771C4.70903 8.21771 5.71669 8.75525 6.35938 9.5888L21.9854 0.354428ZM7.00195 10.9511C7.05897 11.2023 7.08984 11.4639 7.08984 11.7324C7.08977 12.1473 7.01692 12.5454 6.88477 12.915L14.292 17.2939C15.1578 15.6356 15.6484 13.7501 15.6484 11.7499C15.6484 9.88411 15.2201 8.11869 14.46 6.54388L7.00195 10.9511ZM3.36914 9.72845C2.35358 9.8318 1.56152 10.6895 1.56152 11.7324L1.57129 11.9384C1.67476 12.9538 2.53257 13.7459 3.5752 13.746L3.78125 13.7363C4.72914 13.6401 5.4825 12.8862 5.5791 11.9384L5.58984 11.7324C5.58984 11.3879 5.50208 11.0638 5.34961 10.7802C5.27559 10.6438 5.1871 10.5166 5.08496 10.4013C4.71577 9.98284 4.177 9.71771 3.5752 9.71771L3.36914 9.72845Z" fill="black"/>
</svg>
