<svg width="24" height="24" viewBox="0 0 24 24" fill="none" xmlns="http://www.w3.org/2000/svg">
<path fill-rule="evenodd" clip-rule="evenodd" d="M22.2969 0.139314C22.7722 -0.141605 23.3859 0.0156842 23.667 0.490877C23.948 0.966325 23.7899 1.57999 23.3145 1.86099L16.3037 6.00357C17.1255 7.7472 17.5869 9.6943 17.5869 11.7497C17.5869 13.9395 17.0633 16.0068 16.1377 17.8356L23.3145 22.0778C23.7898 22.3588 23.947 22.9715 23.666 23.4469C23.3849 23.9219 22.7731 24.0791 22.2979 23.7985L6.78809 14.6315C6.06711 15.3213 5.09033 15.7458 4.01367 15.7458C1.79679 15.7456 0.000140838 13.949 0 11.7321C0.000157144 9.51522 1.7968 7.71758 4.01367 7.71744C5.23974 7.71744 6.33682 8.26803 7.07324 9.13443L22.2969 0.139314ZM7.94922 10.9411C8.00038 11.1969 8.0283 11.4612 8.02832 11.7321C8.02829 12.1505 7.96354 12.554 7.84473 12.9333L14.4111 16.8151C15.1627 15.2867 15.5869 13.5679 15.5869 11.7497C15.5869 10.0658 15.222 8.46802 14.5713 7.02701L7.94922 10.9411ZM5.98633 12.1315C5.9991 12.068 6.01092 12.0036 6.01758 11.9381L6.02832 11.7321C6.02832 11.8689 6.01233 12.0023 5.98633 12.1315Z" fill="black"/>
</svg>
