<svg width="24" height="24" viewBox="0 0 24 24" fill="none" xmlns="http://www.w3.org/2000/svg">
<path fill-rule="evenodd" clip-rule="evenodd" d="M20.3831 23.5547C20.5681 23.5547 20.762 23.5547 20.9287 23.5411C21.1156 23.5258 21.3544 23.4886 21.5991 23.3639C21.9284 23.1961 22.1961 22.9284 22.3639 22.5991C22.4886 22.3545 22.5258 22.1156 22.5411 21.9287C22.5547 21.762 22.5547 21.5682 22.5546 21.3831V9.7262C22.5547 9.54115 22.5547 9.34729 22.5411 9.18063C22.5258 8.99372 22.4886 8.75486 22.3639 8.51017C22.1961 8.18089 21.9284 7.91317 21.5991 7.7454C21.3544 7.62072 21.1156 7.58347 20.9287 7.5682C20.762 7.55458 20.5681 7.55462 20.3831 7.55465L13.4999 7.55466L13.4999 4.67155C13.4999 4.48649 13.5 4.29264 13.4863 4.12598C13.4711 3.93907 13.4338 3.70021 13.3091 3.45552C13.1414 3.12624 12.8737 2.85852 12.5444 2.69075C12.2997 2.56607 12.0608 2.52882 11.8739 2.51355C11.7072 2.49993 11.5134 2.49997 11.3283 2.5H3.67144C3.48638 2.49997 3.29252 2.49993 3.12585 2.51355C2.93895 2.52882 2.70009 2.56607 2.4554 2.69075C2.12612 2.85852 1.8584 3.12624 1.69062 3.45552C1.56595 3.70021 1.52869 3.93907 1.51342 4.12598C1.49981 4.29265 1.49985 4.4865 1.49988 4.67157V12.3284C1.49985 12.5135 1.49981 12.7074 1.51342 12.874C1.52869 13.0609 1.56595 13.2998 1.69062 13.5445C1.8584 13.8738 2.12612 14.1415 2.4554 14.3093C2.70009 14.4339 2.93895 14.4712 3.12585 14.4865C3.29252 14.5001 3.48636 14.5 3.67143 14.5L6.55463 14.5L6.55462 21.3831C6.55459 21.5682 6.55455 21.762 6.56817 21.9287C6.58344 22.1156 6.62069 22.3545 6.74537 22.5991C6.91314 22.9284 7.18086 23.1961 7.51014 23.3639C7.75483 23.4886 7.99369 23.5258 8.1806 23.5411C8.34726 23.5547 8.54111 23.5547 8.72616 23.5547H20.3831ZM6.55463 12.5L6.55462 9.72622C6.55459 9.54115 6.55455 9.3473 6.56817 9.18063C6.58344 8.99372 6.62069 8.75486 6.74537 8.51017C6.91314 8.18089 7.18086 7.91317 7.51014 7.7454C7.75483 7.62072 7.99369 7.58347 8.1806 7.5682C8.34727 7.55458 8.54112 7.55462 8.72618 7.55465L11.4999 7.55466V4.70001C11.4999 4.62257 11.4999 4.55761 11.4994 4.50045C11.4423 4.50002 11.3773 4.50001 11.2999 4.50001H3.69988C3.62245 4.50001 3.55748 4.50002 3.50033 4.50045C3.4999 4.55761 3.49989 4.62257 3.49989 4.70001V12.3C3.49989 12.3774 3.4999 12.4424 3.50033 12.4996C3.55748 12.5 3.62245 12.5 3.69988 12.5H6.55463ZM20.5546 21.3547C20.5546 21.4321 20.5546 21.4971 20.5542 21.5542C20.497 21.5546 20.4321 21.5547 20.3546 21.5547H8.75463C8.67719 21.5547 8.61222 21.5546 8.55507 21.5542C8.55464 21.4971 8.55463 21.4321 8.55463 21.3547V9.75466C8.55463 9.67722 8.55464 9.61226 8.55507 9.5551C8.61222 9.55467 8.67719 9.55466 8.75463 9.55466H20.3546C20.4321 9.55466 20.497 9.55467 20.5542 9.5551C20.5546 9.61226 20.5546 9.67722 20.5546 9.75466V21.3547Z" fill="black"/>
</svg>
