<svg width="24" height="24" viewBox="0 0 24 24" fill="none" xmlns="http://www.w3.org/2000/svg">
<path fill-rule="evenodd" clip-rule="evenodd" d="M20.3785 23.3047C20.5678 23.3047 20.7522 23.3047 20.9083 23.2919C21.0797 23.2779 21.282 23.2449 21.4856 23.1412C21.7679 22.9974 21.9973 22.7679 22.1411 22.4856C22.2449 22.2821 22.2779 22.0798 22.2919 21.9083C22.3047 21.7522 22.3046 21.5679 22.3046 21.3786V9.73073C22.3046 9.54144 22.3047 9.3571 22.2919 9.20098C22.2779 9.02954 22.2449 8.82724 22.1411 8.62367C21.9973 8.34142 21.7679 8.11195 21.4856 7.96814C21.282 7.86442 21.0797 7.83137 20.9083 7.81736C20.7522 7.80461 20.5678 7.80463 20.3786 7.80465L13.2499 7.80465L13.2499 4.67608C13.2499 4.48679 13.2499 4.30245 13.2372 4.14633C13.2232 3.97489 13.1901 3.77259 13.0864 3.56902C12.9426 3.28678 12.7131 3.0573 12.4309 2.91349C12.2273 2.80977 12.025 2.77672 11.8536 2.76271C11.6974 2.74996 11.5131 2.74998 11.3238 2.75H3.67595C3.48666 2.74998 3.30233 2.74996 3.14621 2.76271C2.97477 2.77672 2.77246 2.80977 2.5689 2.91349C2.28665 3.0573 2.05718 3.28678 1.91337 3.56902C1.80965 3.77259 1.7766 3.97489 1.76259 4.14633C1.74984 4.30245 1.74986 4.48678 1.74988 4.67607V12.3239C1.74986 12.5132 1.74984 12.6976 1.76259 12.8537C1.7766 13.0251 1.80965 13.2274 1.91337 13.431C2.05718 13.7132 2.28665 13.9427 2.5689 14.0865C2.77246 14.1902 2.97477 14.2233 3.14621 14.2373C3.30233 14.2501 3.48667 14.25 3.67596 14.25L6.80462 14.25L6.80462 21.3786C6.8046 21.5679 6.80458 21.7522 6.81733 21.9083C6.83134 22.0798 6.86439 22.2821 6.96811 22.4856C7.11192 22.7679 7.34139 22.9974 7.62364 23.1412C7.8272 23.2449 8.02951 23.2779 8.20095 23.2919C8.35707 23.3047 8.54141 23.3047 8.7307 23.3047H20.3785ZM6.80462 12.75L6.80462 9.73072C6.8046 9.54143 6.80458 9.3571 6.81733 9.20098C6.83134 9.02954 6.86439 8.82724 6.96811 8.62367C7.11192 8.34142 7.34139 8.11195 7.62364 7.96814C7.8272 7.86442 8.02951 7.83137 8.20095 7.81736C8.35707 7.80461 8.5414 7.80463 8.73069 7.80465L11.7499 7.80465V4.7C11.7499 4.47761 11.7493 4.35592 11.7422 4.26848L11.7413 4.25859L11.7314 4.25773C11.644 4.25059 11.5223 4.25 11.2999 4.25H3.69988C3.47749 4.25 3.3558 4.25059 3.26836 4.25773L3.25847 4.25859L3.25761 4.26848C3.25047 4.35592 3.24988 4.47761 3.24988 4.7V12.3C3.24988 12.5224 3.25047 12.6441 3.25761 12.7315L3.25847 12.7414L3.26836 12.7423C3.3558 12.7494 3.47749 12.75 3.69988 12.75H6.80462ZM20.7969 21.7862L20.796 21.7961L20.7861 21.7969C20.6987 21.8041 20.577 21.8047 20.3546 21.8047H8.75462C8.53223 21.8047 8.41054 21.8041 8.3231 21.7969L8.31321 21.7961L8.31235 21.7862C8.30521 21.6987 8.30462 21.577 8.30462 21.3547V9.75465C8.30462 9.53226 8.30521 9.41057 8.31235 9.32313L8.31321 9.31324L8.3231 9.31238C8.41054 9.30524 8.53223 9.30465 8.75462 9.30465H20.3546C20.577 9.30465 20.6987 9.30524 20.7861 9.31238L20.796 9.31324L20.7969 9.32313C20.804 9.41057 20.8046 9.53226 20.8046 9.75465V21.3547C20.8046 21.577 20.804 21.6987 20.7969 21.7862Z" fill="black"/>
</svg>
