<svg width="24" height="24" viewBox="0 0 24 24" fill="none" xmlns="http://www.w3.org/2000/svg">
<path fill-rule="evenodd" clip-rule="evenodd" d="M3.15885 0.250002H7.84116C8.15188 0.249976 8.44234 0.249951 8.68612 0.269869C8.95045 0.291465 9.24664 0.341371 9.54098 0.491347C9.95763 0.703638 10.2964 1.04238 10.5087 1.45902C10.6586 1.75337 10.7085 2.04956 10.7301 2.31389C10.7501 2.55767 10.75 2.84814 10.75 3.15887L10.75 4.99997L16.4319 4.99997C16.6843 4.99994 16.9301 4.99991 17.1382 5.01692C17.3668 5.03559 17.6365 5.07966 17.908 5.21796C18.2843 5.40971 18.5902 5.71567 18.782 6.09199C18.9203 6.36341 18.9644 6.63315 18.983 6.86174C19 7.0699 19 7.3157 19 7.56809L19 13.3047L20.8959 13.3047C21.2066 13.3046 21.4971 13.3046 21.7409 13.3245C22.0052 13.3461 22.3014 13.396 22.5957 13.546C23.0124 13.7583 23.3511 14.097 23.5634 14.5137C23.7134 14.808 23.7633 15.1042 23.7849 15.3685C23.8048 15.6123 23.8048 15.9028 23.8048 16.2135V20.8958C23.8048 21.2065 23.8048 21.497 23.7849 21.7408C23.7633 22.0051 23.7134 22.3013 23.5634 22.5956C23.3511 23.0123 23.0124 23.351 22.5957 23.5633C22.3014 23.7133 22.0052 23.7632 21.7409 23.7848C21.4971 23.8047 21.2066 23.8047 20.8959 23.8047H16.2136C15.9029 23.8047 15.6124 23.8047 15.3686 23.7848C15.1043 23.7632 14.8081 23.7133 14.5138 23.5633C14.0971 23.351 13.7584 23.0123 13.5461 22.5956C13.3961 22.3013 13.3462 22.0051 13.3246 21.7408C13.3047 21.497 13.3047 21.2065 13.3048 20.8958L13.3048 19L7.5681 19C7.31571 19 7.06991 19 6.86175 18.983C6.63316 18.9643 6.36342 18.9203 6.092 18.782C5.71567 18.5902 5.40971 18.2843 5.21797 17.908C5.07967 17.6365 5.0356 17.3668 5.01692 17.1382C4.99992 16.9301 4.99995 16.6843 4.99998 16.4319L4.99998 10.75L3.15887 10.75C2.84814 10.75 2.55767 10.7501 2.31389 10.7301C2.04956 10.7085 1.75337 10.6586 1.45902 10.5087C1.04238 10.2964 0.703638 9.95763 0.491347 9.54098C0.341371 9.24664 0.291465 8.95045 0.269869 8.68612C0.249951 8.44234 0.249976 8.15188 0.250002 7.84115V3.15885C0.249976 2.84812 0.249951 2.55767 0.269869 2.31389C0.291465 2.04956 0.341371 1.75337 0.491347 1.45902C0.703638 1.04238 1.04238 0.703638 1.45902 0.491347C1.75337 0.341371 2.04956 0.291465 2.31389 0.269869C2.55767 0.249951 2.84812 0.249976 3.15885 0.250002ZM2.35637 2.27917C2.3244 2.2978 2.2978 2.3244 2.27917 2.35637C2.27585 2.37069 2.26894 2.40676 2.26323 2.47675C2.25078 2.62907 2.25 2.83633 2.25 3.19286V7.80715C2.25 8.16368 2.25078 8.37094 2.26323 8.52326C2.26894 8.59325 2.27585 8.62932 2.27917 8.64364C2.2978 8.67561 2.3244 8.70221 2.35637 8.72084C2.37069 8.72416 2.40676 8.73106 2.47675 8.73678C2.62907 8.74923 2.83633 8.75 3.19286 8.75H7.80715C8.16368 8.75 8.37094 8.74923 8.52326 8.73678C8.59325 8.73106 8.62932 8.72416 8.64364 8.72084C8.67561 8.70221 8.70221 8.67561 8.72084 8.64364C8.72416 8.62932 8.73106 8.59325 8.73678 8.52326C8.74923 8.37094 8.75 8.16368 8.75 7.80715V3.19286C8.75 2.83633 8.74923 2.62907 8.73678 2.47675C8.73106 2.40676 8.72416 2.37069 8.72084 2.35637C8.70221 2.3244 8.67561 2.2978 8.64364 2.27917C8.62932 2.27585 8.59325 2.26894 8.52326 2.26323C8.37094 2.25078 8.16368 2.25 7.80715 2.25H3.19286C2.83633 2.25 2.62907 2.25078 2.47675 2.26323C2.40676 2.26894 2.37068 2.27585 2.35637 2.27917ZM15.4111 15.3338C15.3792 15.3525 15.3526 15.3791 15.3339 15.411C15.3306 15.4253 15.3237 15.4614 15.318 15.5314C15.3055 15.6837 15.3048 15.891 15.3048 16.2475V20.8618C15.3048 21.2183 15.3055 21.4256 15.318 21.5779C15.3237 21.6479 15.3306 21.684 15.3339 21.6983C15.3526 21.7303 15.3792 21.7569 15.4111 21.7755C15.4254 21.7788 15.4615 21.7857 15.5315 21.7914C15.6838 21.8039 15.8911 21.8047 16.2476 21.8047H20.8619C21.2184 21.8047 21.4257 21.8039 21.578 21.7914C21.648 21.7857 21.6841 21.7788 21.6984 21.7755C21.7304 21.7569 21.757 21.7303 21.7756 21.6983C21.7789 21.684 21.7858 21.6479 21.7915 21.5779C21.804 21.4256 21.8048 21.2183 21.8048 20.8618V16.2475C21.8048 15.891 21.804 15.6837 21.7915 15.5314C21.7858 15.4614 21.7789 15.4253 21.7756 15.411C21.757 15.3791 21.7304 15.3525 21.6984 15.3338C21.6841 15.3305 21.648 15.3236 21.578 15.3179C21.4257 15.3054 21.2184 15.3047 20.8619 15.3047H16.2476C15.8911 15.3047 15.6838 15.3054 15.5315 15.3179C15.4615 15.3236 15.4254 15.3305 15.4111 15.3338Z" fill="black"/>
</svg>
