<svg width="24" height="24" viewBox="0 0 24 24" fill="none" xmlns="http://www.w3.org/2000/svg">
<path fill-rule="evenodd" clip-rule="evenodd" d="M3.67149 2.5C3.48643 2.49997 3.29258 2.49993 3.12592 2.51355C2.93901 2.52882 2.70015 2.56607 2.45546 2.69075C2.12618 2.85852 1.85846 3.12624 1.69069 3.45552C1.56601 3.70021 1.52876 3.93907 1.51349 4.12598C1.49987 4.29264 1.49991 4.48649 1.49994 4.67154L1.49994 16.3285C1.49991 16.5135 1.49987 16.7074 1.51349 16.874C1.52876 17.0609 1.56601 17.2998 1.69069 17.5445C1.85846 17.8738 2.12618 18.1415 2.45546 18.3093C2.70015 18.4339 2.93901 18.4712 3.12592 18.4865C3.29259 18.5001 3.48644 18.5 3.67151 18.5L10.5547 18.5L10.5547 21.3831C10.5546 21.5682 10.5546 21.762 10.5682 21.9287C10.5835 22.1156 10.6208 22.3545 10.7454 22.5991C10.9132 22.9284 11.1809 23.1961 11.5102 23.3639C11.7549 23.4886 11.9938 23.5258 12.1807 23.5411C12.3473 23.5547 12.5412 23.5547 12.7262 23.5547H20.3831C20.5682 23.5547 20.762 23.5547 20.9287 23.5411C21.1156 23.5258 21.3545 23.4886 21.5992 23.3639C21.9285 23.1961 22.1962 22.9284 22.3639 22.5991C22.4886 22.3545 22.5259 22.1156 22.5411 21.9287C22.5548 21.762 22.5547 21.5682 22.5547 21.3831V13.7262C22.5547 13.5411 22.5548 13.3473 22.5411 13.1806C22.5259 12.9937 22.4886 12.7549 22.3639 12.5102C22.1962 12.1809 21.9285 11.9132 21.5992 11.7454C21.3545 11.6207 21.1156 11.5835 20.9287 11.5682C20.7621 11.5546 20.5682 11.5546 20.3831 11.5547L17.4999 11.5547L17.5 4.67157C17.5 4.4865 17.5 4.29265 17.4864 4.12598C17.4711 3.93907 17.4339 3.70021 17.3092 3.45552C17.1414 3.12624 16.8737 2.85852 16.5444 2.69075C16.2997 2.56607 16.0609 2.52882 15.874 2.51355C15.7073 2.49993 15.5135 2.49997 15.3284 2.5L3.67149 2.5ZM17.4999 13.5547L17.5 16.3284C17.5 16.5135 17.5 16.7074 17.4864 16.874C17.4711 17.0609 17.4339 17.2998 17.3092 17.5445C17.1414 17.8738 16.8737 18.1415 16.5444 18.3093C16.2997 18.4339 16.0609 18.4712 15.874 18.4865C15.7073 18.5001 15.5135 18.5 15.3284 18.5L12.5547 18.5V21.3547C12.5547 21.4321 12.5547 21.4971 12.5551 21.5542C12.6123 21.5546 12.6773 21.5547 12.7547 21.5547H20.3547C20.4321 21.5547 20.4971 21.5546 20.5542 21.5542C20.5547 21.4971 20.5547 21.4321 20.5547 21.3547V13.7547C20.5547 13.6772 20.5547 13.6123 20.5542 13.5551C20.4971 13.5547 20.4321 13.5547 20.3547 13.5547H17.4999ZM3.49995 4.70001C3.49995 4.62257 3.49996 4.5576 3.50039 4.50045C3.55754 4.50002 3.62251 4.50001 3.69995 4.50001H15.2999C15.3774 4.50001 15.4423 4.50002 15.4995 4.50045C15.4999 4.5576 15.4999 4.62257 15.4999 4.70001V16.3C15.4999 16.3774 15.4999 16.4424 15.4995 16.4996C15.4424 16.5 15.3774 16.5 15.2999 16.5H3.69995C3.62251 16.5 3.55754 16.5 3.50039 16.4996C3.49996 16.4424 3.49995 16.3774 3.49995 16.3V4.70001Z" fill="black"/>
</svg>
