<svg width="24" height="24" viewBox="0 0 24 24" fill="none" xmlns="http://www.w3.org/2000/svg">
<path fill-rule="evenodd" clip-rule="evenodd" d="M3.33439 0.75C2.98327 0.749994 2.68976 0.749988 2.44992 0.769584C2.19964 0.790033 1.96408 0.834287 1.74115 0.947876C1.39954 1.12193 1.12181 1.39966 0.947754 1.74127C0.834165 1.9642 0.789911 2.19977 0.769462 2.45005C0.749866 2.68988 0.749872 2.98336 0.749878 3.33448V7.66549C0.749872 8.01661 0.749866 8.31012 0.769462 8.54996C0.789911 8.80024 0.834165 9.0358 0.947754 9.25873C1.12181 9.60034 1.39954 9.87807 1.74115 10.0521C1.96408 10.1657 2.19964 10.21 2.44992 10.2304C2.68977 10.25 2.98325 10.25 3.33438 10.25H5.49995L5.49995 16.2862C5.49994 16.5729 5.49993 16.8177 5.51637 17.0189C5.53365 17.2305 5.57158 17.4374 5.67252 17.6355C5.82432 17.9334 6.06654 18.1756 6.36446 18.3274C6.56256 18.4283 6.76946 18.4663 6.98103 18.4836C7.1822 18.5 7.42703 18.5 7.71369 18.5H13.8051V20.7202C13.805 21.0713 13.805 21.3648 13.8246 21.6046C13.8451 21.8549 13.8893 22.0905 14.0029 22.3134C14.177 22.655 14.4547 22.9327 14.7963 23.1068C15.0193 23.2204 15.2548 23.2646 15.5051 23.2851C15.7449 23.3047 16.0384 23.3047 16.3896 23.3047H20.7206C21.0717 23.3047 21.3652 23.3047 21.605 23.2851C21.8553 23.2646 22.0909 23.2204 22.3138 23.1068C22.6554 22.9327 22.9331 22.655 23.1072 22.3134C23.2208 22.0905 23.265 21.8549 23.2855 21.6046C23.3051 21.3648 23.3051 21.0713 23.3051 20.7202V16.3892C23.3051 16.0381 23.3051 15.7445 23.2855 15.5047C23.265 15.2544 23.2208 15.0189 23.1072 14.7959C22.9331 14.4543 22.6554 14.1766 22.3138 14.0025C22.0909 13.889 21.8553 13.8447 21.605 13.8243C21.3652 13.8047 21.0717 13.8047 20.7205 13.8047H18.4999V7.71372C18.5 7.42708 18.5 7.18221 18.4835 6.98106C18.4662 6.76949 18.4283 6.56259 18.3274 6.36449C18.1756 6.06656 17.9334 5.82434 17.6354 5.67254C17.4373 5.57161 17.2304 5.53368 17.0189 5.51639C16.8177 5.49996 16.5729 5.49996 16.2862 5.49997L10.2499 5.49997V3.33451C10.2499 2.98337 10.2499 2.68989 10.2303 2.45005C10.2098 2.19977 10.1656 1.9642 10.052 1.74127C9.87795 1.39966 9.60021 1.12193 9.25861 0.947876C9.03568 0.834287 8.80011 0.790033 8.54984 0.769584C8.31 0.749988 8.01652 0.749994 7.6654 0.75H3.33439ZM9.24988 5.49997V3.35476C9.24988 2.97814 9.24949 2.72575 9.23362 2.53148C9.21822 2.34304 9.19079 2.25372 9.161 2.19526C9.08281 2.04182 8.95806 1.91707 8.80462 1.83888C8.74616 1.80909 8.65684 1.78166 8.4684 1.76626C8.27413 1.75039 8.02174 1.75 7.64512 1.75H3.35464C2.97802 1.75 2.72563 1.75039 2.53135 1.76626C2.34292 1.78166 2.2536 1.80909 2.19514 1.83888C2.0417 1.91707 1.91694 2.04182 1.83876 2.19526C1.80897 2.25372 1.78154 2.34304 1.76614 2.53148C1.75027 2.72575 1.74988 2.97815 1.74988 3.35476V7.64524C1.74988 8.02186 1.75027 8.27425 1.76614 8.46853C1.78154 8.65696 1.80897 8.74628 1.83876 8.80474C1.91694 8.95818 2.0417 9.08294 2.19514 9.16112C2.2536 9.19091 2.34292 9.21834 2.53135 9.23374C2.72563 9.24961 2.97802 9.25 3.35464 9.25H5.49995L5.49995 7.71373C5.49994 7.42708 5.49993 7.18222 5.51637 6.98106C5.53365 6.76949 5.57158 6.56259 5.67252 6.36449C5.82432 6.06656 6.06654 5.82434 6.36446 5.67254C6.56256 5.57161 6.76946 5.53368 6.98103 5.51639C7.18219 5.49996 7.42702 5.49996 7.71367 5.49997L9.24988 5.49997ZM18.4999 14.8047V16.2862C18.5 16.5729 18.5 16.8177 18.4835 17.0189C18.4662 17.2305 18.4283 17.4374 18.3274 17.6355C18.1756 17.9334 17.9334 18.1756 17.6354 18.3274C17.4373 18.4283 17.2304 18.4663 17.0189 18.4836C16.8177 18.5 16.5729 18.5 16.2862 18.5H14.8051V20.6999C14.8051 21.0765 14.8054 21.3289 14.8213 21.5232C14.8367 21.7116 14.8641 21.8009 14.8939 21.8594C14.9721 22.0129 15.0969 22.1376 15.2503 22.2158C15.3088 22.2456 15.3981 22.273 15.5865 22.2884C15.7808 22.3043 16.0332 22.3047 16.4098 22.3047H20.7003C21.0769 22.3047 21.3293 22.3043 21.5236 22.2884C21.712 22.273 21.8013 22.2456 21.8598 22.2158C22.0132 22.1376 22.138 22.0129 22.2162 21.8594C22.246 21.8009 22.2734 21.7116 22.2888 21.5232C22.3047 21.3289 22.3051 21.0765 22.3051 20.6999V16.4094C22.3051 16.0328 22.3047 15.7804 22.2888 15.5861C22.2734 15.3977 22.246 15.3084 22.2162 15.2499C22.138 15.0965 22.0132 14.9717 21.8598 14.8935C21.8013 14.8638 21.712 14.8363 21.5236 14.8209C21.3293 14.8051 21.0769 14.8047 20.7003 14.8047H18.4999ZM6.81845 6.56355C6.85209 6.54641 6.91274 6.5253 7.06246 6.51307C7.21803 6.50036 7.42167 6.49997 7.73328 6.49997H16.2666C16.5782 6.49997 16.7819 6.50036 16.9374 6.51307C17.0872 6.5253 17.1478 6.54641 17.1814 6.56355C17.2912 6.61948 17.3804 6.70872 17.4364 6.81848C17.4535 6.85211 17.4746 6.91276 17.4868 7.06249C17.4996 7.21805 17.4999 7.42169 17.4999 7.7333V16.2666C17.4999 16.5782 17.4996 16.7819 17.4868 16.9375C17.4746 17.0872 17.4535 17.1478 17.4364 17.1815C17.3804 17.2912 17.2912 17.3805 17.1814 17.4364C17.1478 17.4535 17.0872 17.4746 16.9374 17.4869C16.7819 17.4996 16.5782 17.5 16.2666 17.5H7.73328C7.42167 17.5 7.21803 17.4996 7.06246 17.4869C6.91274 17.4746 6.85209 17.4535 6.81845 17.4364C6.70869 17.3805 6.61945 17.2912 6.56353 17.1815C6.54639 17.1478 6.52528 17.0872 6.51305 16.9375C6.50034 16.7819 6.49995 16.5782 6.49995 16.2666V7.7333C6.49995 7.42169 6.50034 7.21805 6.51305 7.06249C6.52528 6.91276 6.54639 6.85211 6.56353 6.81848C6.61945 6.70872 6.70869 6.61948 6.81845 6.56355Z" fill="black"/>
</svg>
