<svg width="24" height="24" viewBox="0 0 24 24" fill="none" xmlns="http://www.w3.org/2000/svg">
<path fill-rule="evenodd" clip-rule="evenodd" d="M3.33452 0.75H7.66549C8.01661 0.749994 8.31012 0.749988 8.54996 0.769584C8.80024 0.790032 9.0358 0.834287 9.25873 0.947876C9.60034 1.12193 9.87807 1.39966 10.0521 1.74127C10.1657 1.9642 10.21 2.19977 10.2304 2.45004C10.25 2.68989 10.25 2.98337 10.25 3.3345V5.50001H16.2862C16.5729 5.5 16.8177 5.49999 17.0189 5.51643C17.2305 5.53371 17.4374 5.57164 17.6355 5.67258C17.9334 5.82438 18.1756 6.0666 18.3274 6.36452C18.4283 6.56263 18.4663 6.76953 18.4836 6.98109C18.5 7.18224 18.5 7.42704 18.5 7.71367V13.8047H20.7205C21.0716 13.8047 21.3651 13.8046 21.6049 13.8242C21.8552 13.8447 22.0908 13.8889 22.3137 14.0025C22.6553 14.1766 22.933 14.4543 23.1071 14.7959C23.2207 15.0189 23.2649 15.2544 23.2854 15.5047C23.305 15.7445 23.305 16.038 23.305 16.3892V20.7202C23.305 21.0713 23.305 21.3648 23.2854 21.6046C23.2649 21.8549 23.2207 22.0905 23.1071 22.3134C22.933 22.655 22.6553 22.9327 22.3137 23.1068C22.0908 23.2204 21.8552 23.2646 21.6049 23.2851C21.3651 23.3047 21.0716 23.3047 20.7205 23.3047H16.3895C16.0383 23.3047 15.7449 23.3047 15.505 23.2851C15.2547 23.2646 15.0192 23.2204 14.7962 23.1068C14.4546 22.9327 14.1769 22.655 14.0028 22.3134C13.8893 22.0905 13.845 21.8549 13.8245 21.6046C13.805 21.3648 13.805 21.0713 13.805 20.7201V18.5H7.71372C7.42708 18.5 7.18222 18.5 6.98106 18.4836C6.7695 18.4663 6.5626 18.4284 6.36449 18.3274C6.06657 18.1756 5.82435 17.9334 5.67255 17.6355C5.57161 17.4374 5.53368 17.2305 5.5164 17.0189C5.49996 16.8178 5.49997 16.5729 5.49998 16.2863V10.25H3.33451C2.98337 10.25 2.68989 10.25 2.45004 10.2304C2.19977 10.21 1.9642 10.1657 1.74127 10.0521C1.39966 9.87807 1.12193 9.60034 0.947876 9.25873C0.834287 9.0358 0.790032 8.80024 0.769584 8.54996C0.749988 8.31012 0.749994 8.01664 0.75 7.66551V3.33452C0.749994 2.98339 0.749988 2.68989 0.769584 2.45004C0.790032 2.19977 0.834287 1.9642 0.947876 1.74127C1.12193 1.39966 1.39966 1.12193 1.74127 0.947876C1.9642 0.834287 2.19977 0.790032 2.45004 0.769584C2.68989 0.749988 2.98339 0.749994 3.33452 0.75ZM2.53148 1.76626C2.34304 1.78166 2.25372 1.80909 2.19526 1.83888C2.04182 1.91707 1.91707 2.04182 1.83888 2.19526C1.80909 2.25372 1.78166 2.34304 1.76626 2.53148C1.75039 2.72575 1.75 2.97814 1.75 3.35476V7.64524C1.75 8.02186 1.75039 8.27425 1.76626 8.46853C1.78166 8.65696 1.80909 8.74628 1.83888 8.80474C1.91707 8.95818 2.04182 9.08294 2.19526 9.16112C2.25372 9.19091 2.34304 9.21834 2.53148 9.23374C2.72575 9.24961 2.97814 9.25 3.35476 9.25H7.64524C8.02186 9.25 8.27425 9.24961 8.46853 9.23374C8.65696 9.21834 8.74628 9.19091 8.80474 9.16112C8.95818 9.08294 9.08294 8.95818 9.16112 8.80474C9.19091 8.74628 9.21834 8.65696 9.23374 8.46853C9.24961 8.27425 9.25 8.02186 9.25 7.64524V3.35476C9.25 2.97814 9.24961 2.72575 9.23374 2.53148C9.21834 2.34304 9.19091 2.25372 9.16112 2.19526C9.08294 2.04182 8.95818 1.91707 8.80474 1.83888C8.74628 1.80909 8.65696 1.78166 8.46853 1.76626C8.27425 1.75039 8.02186 1.75 7.64524 1.75H3.35476C2.97814 1.75 2.72575 1.75039 2.53148 1.76626ZM15.5864 14.8209C15.398 14.8363 15.3087 14.8638 15.2502 14.8935C15.0968 14.9717 14.972 15.0965 14.8938 15.2499C14.8641 15.3084 14.8366 15.3977 14.8212 15.5861C14.8054 15.7804 14.805 16.0328 14.805 16.4094V20.6999C14.805 21.0765 14.8054 21.3289 14.8212 21.5232C14.8366 21.7116 14.8641 21.8009 14.8938 21.8594C14.972 22.0128 15.0968 22.1376 15.2502 22.2158C15.3087 22.2456 15.398 22.273 15.5864 22.2884C15.7807 22.3043 16.0331 22.3047 16.4097 22.3047H20.7002C21.0768 22.3047 21.3292 22.3043 21.5235 22.2884C21.7119 22.273 21.8012 22.2456 21.8597 22.2158C22.0131 22.1376 22.1379 22.0128 22.2161 21.8594C22.2459 21.8009 22.2733 21.7116 22.2887 21.5232C22.3046 21.3289 22.305 21.0765 22.305 20.6999V16.4094C22.305 16.0328 22.3046 15.7804 22.2887 15.5861C22.2733 15.3977 22.2459 15.3084 22.2161 15.2499C22.1379 15.0965 22.0131 14.9717 21.8597 14.8935C21.8012 14.8638 21.7119 14.8363 21.5235 14.8209C21.3292 14.805 21.0768 14.8047 20.7002 14.8047H16.4097C16.0331 14.8047 15.7807 14.805 15.5864 14.8209Z" fill="black"/>
</svg>
