<svg width="24" height="24" viewBox="0 0 24 24" fill="none" xmlns="http://www.w3.org/2000/svg">
<path fill-rule="evenodd" clip-rule="evenodd" d="M2.97159 0.500001H8.02817C8.31111 0.499986 8.56706 0.499972 8.78017 0.517384C9.00879 0.536063 9.25343 0.578456 9.49366 0.700863C9.84042 0.877544 10.1223 1.15947 10.299 1.50622C10.4214 1.74646 10.4638 1.9911 10.4825 2.21971C10.4999 2.43285 10.4999 2.68873 10.4999 2.9717L10.4999 5.24998L16.5853 5.24998C16.8153 5.24996 17.031 5.24994 17.2121 5.26473C17.4085 5.28079 17.6293 5.31792 17.8489 5.42982C18.1594 5.58801 18.4118 5.84043 18.57 6.1509C18.6819 6.37051 18.7191 6.59133 18.7351 6.78779C18.7499 6.96882 18.7499 7.1844 18.7499 7.4145L18.7499 13.5547L21.0829 13.5547C21.3658 13.5547 21.6217 13.5546 21.8349 13.572C22.0635 13.5907 22.3081 13.6331 22.5484 13.7555C22.8951 13.9322 23.177 14.2141 23.3537 14.5609C23.4761 14.8011 23.5185 15.0458 23.5372 15.2744C23.5546 15.4875 23.5546 15.7434 23.5546 16.0264V21.083C23.5546 21.3659 23.5546 21.6218 23.5372 21.835C23.5185 22.0636 23.4761 22.3082 23.3537 22.5485C23.177 22.8952 22.8951 23.1771 22.5484 23.3538C22.3081 23.4762 22.0635 23.5186 21.8349 23.5373C21.6217 23.5547 21.3658 23.5547 21.0829 23.5547H16.0263C15.7433 23.5547 15.4874 23.5547 15.2743 23.5373C15.0457 23.5186 14.801 23.4762 14.5608 23.3538C14.214 23.1771 13.9321 22.8952 13.7554 22.5485C13.633 22.3082 13.5906 22.0636 13.5719 21.835C13.5545 21.6218 13.5546 21.366 13.5546 21.083L13.5546 18.75L7.41443 18.75C7.18434 18.75 6.9687 18.75 6.78767 18.7352C6.59121 18.7192 6.37039 18.682 6.15077 18.5701C5.84031 18.412 5.58789 18.1595 5.4297 17.8491C5.3178 17.6295 5.28066 17.4086 5.26461 17.2122C5.24982 17.0312 5.24984 16.8156 5.24986 16.5855L5.24986 10.5L2.97158 10.5C2.6886 10.5 2.43273 10.5 2.21959 10.4826C1.99098 10.4639 1.74634 10.4216 1.5061 10.2991C1.15934 10.1225 0.877422 9.84054 0.700741 9.49379C0.578334 9.25355 0.535941 9.00891 0.517262 8.78029C0.49985 8.56718 0.499864 8.31133 0.499879 8.02839V2.97171C0.499864 2.68877 0.49985 2.43283 0.517262 2.21971C0.535941 1.9911 0.578334 1.74646 0.700741 1.50622C0.877422 1.15947 1.15934 0.877544 1.5061 0.700863C1.74634 0.578456 1.99098 0.536063 2.21959 0.517384C2.43271 0.499972 2.68865 0.499986 2.97159 0.500001ZM2.18709 2.03737C2.1858 2.03792 2.18594 2.03796 2.18709 2.03737C2.12257 2.07024 2.07012 2.12269 2.03725 2.18721C2.03783 2.18606 2.0378 2.18593 2.03725 2.18721C2.03469 2.19316 2.02142 2.23005 2.01228 2.34186C2.00047 2.48647 1.99988 2.68017 1.99988 2.99858V8.00143C1.99988 8.31984 2.00047 8.51353 2.01228 8.65814C2.02142 8.76996 2.03466 8.80686 2.03722 8.81281C2.03778 8.81409 2.03781 8.81396 2.03722 8.81281C2.0701 8.87733 2.12257 8.92976 2.18709 8.96264C2.19304 8.9652 2.22993 8.97847 2.34174 8.98761C2.48635 8.99942 2.68005 9 2.99845 9H8.00131C8.31971 9 8.51341 8.99942 8.65802 8.98761C8.76984 8.97847 8.80674 8.96523 8.81269 8.96266C8.81397 8.96211 8.81384 8.96208 8.81269 8.96266C8.87721 8.92979 8.92964 8.87731 8.96251 8.8128C8.96193 8.81394 8.96196 8.81408 8.96251 8.8128C8.96508 8.80684 8.97835 8.76996 8.98748 8.65814C8.9993 8.51353 8.99988 8.31984 8.99988 8.00143V2.99858C8.99988 2.68017 8.9993 2.48647 8.98748 2.34186C8.97835 2.23005 8.96511 2.19315 8.96254 2.18719C8.96239 2.18692 8.96214 2.18642 8.96254 2.18719C8.92967 2.12268 8.87719 2.07024 8.81268 2.03737C8.81382 2.03796 8.81396 2.03792 8.81268 2.03737C8.80672 2.03481 8.76984 2.02154 8.65802 2.0124C8.51341 2.00059 8.31971 2 8.00131 2H2.99845C2.68005 2 2.48635 2.00059 2.34174 2.0124C2.22993 2.02154 2.19304 2.03481 2.18709 2.03737ZM15.2418 15.092C15.2405 15.0926 15.2406 15.0926 15.2418 15.092C15.1773 15.1249 15.1248 15.1774 15.0919 15.2419C15.0925 15.2407 15.0925 15.2406 15.0919 15.2419C15.0894 15.2478 15.0761 15.2847 15.067 15.3965C15.0552 15.5411 15.0546 15.7348 15.0546 16.0532V21.0561C15.0546 21.3745 15.0552 21.5682 15.067 21.7128C15.0761 21.8246 15.0893 21.8615 15.0919 21.8675C15.0925 21.8688 15.0925 21.8686 15.0919 21.8675C15.1248 21.932 15.1773 21.9844 15.2418 22.0173C15.2406 22.0167 15.2405 22.0167 15.2418 22.0173C15.2477 22.0199 15.2846 22.0331 15.3964 22.0423C15.541 22.0541 15.7347 22.0547 16.0531 22.0547H21.056C21.3744 22.0547 21.5681 22.0541 21.7127 22.0423C21.8245 22.0331 21.8614 22.0199 21.8674 22.0173C21.8682 22.017 21.8676 22.0173 21.8674 22.0173C21.9319 21.9845 21.9843 21.932 22.0172 21.8675C22.0166 21.8686 22.0166 21.8687 22.0172 21.8675C22.0198 21.8615 22.033 21.8246 22.0422 21.7128C22.054 21.5682 22.0546 21.3745 22.0546 21.0561V16.0532C22.0546 15.7348 22.054 15.5411 22.0422 15.3965C22.033 15.2847 22.0198 15.2478 22.0172 15.2419C22.0167 15.2406 22.0166 15.2407 22.0172 15.2419C21.9844 15.1773 21.9319 15.1249 21.8674 15.092C21.8685 15.0926 21.8686 15.0926 21.8674 15.092C21.8614 15.0895 21.8245 15.0762 21.7127 15.0671C21.5681 15.0553 21.3744 15.0547 21.056 15.0547H16.0531C15.7347 15.0547 15.541 15.0553 15.3964 15.0671C15.2846 15.0762 15.2477 15.0895 15.2418 15.092Z" fill="black"/>
</svg>
