<svg width="24" height="24" viewBox="0 0 24 24" fill="none" xmlns="http://www.w3.org/2000/svg">
<path fill-rule="evenodd" clip-rule="evenodd" d="M3.34347 1H7.65592C8.01489 1 8.29977 1 8.52929 1.01875C8.76411 1.03794 8.96312 1.07799 9.14493 1.17063C9.43949 1.32071 9.67898 1.5602 9.82907 1.85476C9.92171 2.03658 9.96176 2.23558 9.98094 2.4704C9.9997 2.69995 9.9997 2.98469 9.99969 3.34372V5.72497H16.2782C16.5716 5.72497 16.8085 5.72497 17.0004 5.74065C17.198 5.7568 17.372 5.79094 17.5331 5.87302C17.7887 6.00325 17.9965 6.21105 18.1267 6.46664C18.2088 6.62773 18.2429 6.80173 18.2591 6.99938C18.2748 7.19126 18.2748 7.42813 18.2748 7.7215V14.0547H20.7112C21.0702 14.0547 21.355 14.0547 21.5845 14.0734C21.8193 14.0926 22.0183 14.1327 22.2002 14.2253C22.4947 14.3754 22.7342 14.6149 22.8843 14.9094C22.9769 15.0912 23.017 15.2902 23.0362 15.5251C23.0549 15.7546 23.0549 16.0394 23.0549 16.3984V20.7109C23.0549 21.0699 23.0549 21.3547 23.0362 21.5843C23.017 21.8191 22.9769 22.0181 22.8843 22.1999C22.7342 22.4945 22.4947 22.734 22.2002 22.884C22.0183 22.9767 21.8193 23.0167 21.5845 23.0359C21.355 23.0547 21.0702 23.0547 20.7112 23.0547H16.3987C16.0397 23.0547 15.7549 23.0547 15.5253 23.0359C15.2905 23.0167 15.0915 22.9767 14.9097 22.884C14.6151 22.734 14.3756 22.4945 14.2256 22.1999C14.1329 22.0181 14.0929 21.8191 14.0737 21.5843C14.0549 21.3547 14.0549 21.07 14.0549 20.7109V18.275H7.72131C7.42795 18.275 7.19105 18.275 6.99918 18.2593C6.80152 18.2432 6.62753 18.209 6.46643 18.1269C6.21084 17.9967 6.00305 17.7889 5.87282 17.5333C5.79073 17.3722 5.75659 17.1982 5.74044 17.0006C5.72476 16.8087 5.72477 16.5718 5.72477 16.2784V10H3.34346C2.98443 10 2.69965 10 2.4701 9.98125C2.23528 9.96206 2.03627 9.92201 1.85446 9.82937C1.5599 9.67929 1.32041 9.4398 1.17032 9.14524C1.07768 8.96342 1.03763 8.76442 1.01845 8.5296C0.999695 8.30008 0.999695 8.01539 0.999695 7.65642V3.34377C0.999695 2.98481 0.999695 2.69992 1.01845 2.4704C1.03763 2.23558 1.07768 2.03658 1.17032 1.85476C1.32041 1.5602 1.5599 1.32071 1.85446 1.17063C2.03627 1.07799 2.23528 1.03794 2.4701 1.01875C2.69962 1 2.9845 1 3.34347 1ZM2.51081 1.51709C2.30691 1.53375 2.18104 1.56539 2.08146 1.61613C1.88097 1.71828 1.71798 1.88128 1.61582 2.08176C1.56509 2.18134 1.53345 2.30722 1.51679 2.51112C1.49989 2.71793 1.4997 2.98227 1.4997 3.35476V7.64524C1.4997 8.01773 1.49989 8.28207 1.51679 8.48888C1.53345 8.69278 1.56509 8.81866 1.61582 8.91824C1.71798 9.11872 1.88097 9.28172 2.08146 9.38387C2.18104 9.43461 2.30691 9.46625 2.51081 9.48291C2.71763 9.49981 2.98196 9.5 3.35446 9.5H7.64493C8.01743 9.5 8.28176 9.49981 8.48858 9.48291C8.69248 9.46625 8.81835 9.43461 8.91793 9.38387C9.11842 9.28172 9.28141 9.11872 9.38356 8.91824C9.4343 8.81866 9.46594 8.69278 9.4826 8.48888C9.4995 8.28207 9.49969 8.01773 9.49969 7.64524V3.35476C9.49969 2.98227 9.4995 2.71793 9.4826 2.51112C9.46594 2.30722 9.4343 2.18134 9.38356 2.08176C9.28141 1.88128 9.11842 1.71828 8.91793 1.61613C8.81835 1.56539 8.69248 1.53375 8.48858 1.51709C8.28176 1.50019 8.01743 1.5 7.64493 1.5H3.35446C2.98196 1.5 2.71763 1.50019 2.51081 1.51709ZM15.566 14.5718C15.3621 14.5884 15.2363 14.6201 15.1367 14.6708C14.9362 14.7729 14.7732 14.9359 14.6711 15.1364C14.6203 15.236 14.5887 15.3619 14.572 15.5658C14.5551 15.7726 14.5549 16.0369 14.5549 16.4094V20.6999C14.5549 21.0724 14.5551 21.3367 14.572 21.5435C14.5887 21.7474 14.6203 21.8733 14.6711 21.9729C14.7732 22.1734 14.9362 22.3364 15.1367 22.4385C15.2363 22.4893 15.3621 22.5209 15.566 22.5376C15.7729 22.5545 16.0372 22.5547 16.4097 22.5547H20.7002C21.0727 22.5547 21.337 22.5545 21.5438 22.5376C21.7477 22.5209 21.8736 22.4893 21.9732 22.4385C22.1736 22.3364 22.3366 22.1734 22.4388 21.9729C22.4895 21.8733 22.5212 21.7474 22.5378 21.5435C22.5547 21.3367 22.5549 21.0724 22.5549 20.6999V16.4094C22.5549 16.0369 22.5547 15.7726 22.5378 15.5658C22.5212 15.3619 22.4895 15.236 22.4388 15.1364C22.3366 14.9359 22.1736 14.7729 21.9732 14.6708C21.8736 14.6201 21.7477 14.5884 21.5438 14.5718C21.337 14.5549 21.0727 14.5547 20.7002 14.5547H16.4097C16.0372 14.5547 15.7729 14.5549 15.566 14.5718Z" fill="black"/>
</svg>
