<svg width="24" height="24" viewBox="0 0 24 24" fill="none" xmlns="http://www.w3.org/2000/svg">
<path fill-rule="evenodd" clip-rule="evenodd" d="M3.15873 0.250002H7.84103C8.15176 0.249976 8.44222 0.249951 8.686 0.269869C8.95032 0.291465 9.24652 0.341371 9.54086 0.491347C9.95751 0.703638 10.2962 1.04238 10.5085 1.45902C10.6585 1.75337 10.7084 2.04956 10.73 2.31389C10.7499 2.55767 10.7499 2.84814 10.7499 3.15887L10.7499 4.99998L16.4318 4.99998C16.6841 4.99995 16.9299 4.99992 17.1381 5.01692C17.3667 5.0356 17.6364 5.07967 17.9078 5.21797C18.2842 5.40971 18.5901 5.71567 18.7819 6.092C18.9202 6.36342 18.9642 6.63316 18.9829 6.86175C18.9999 7.06991 18.9999 7.31571 18.9999 7.5681L18.9999 13.3047L20.8958 13.3047C21.2065 13.3046 21.497 13.3046 21.7407 13.3245C22.0051 13.3461 22.3013 13.396 22.5956 13.546C23.0123 13.7583 23.351 14.097 23.5633 14.5137C23.7133 14.808 23.7632 15.1042 23.7848 15.3686C23.8047 15.6123 23.8047 15.9028 23.8046 16.2135V20.8958C23.8047 21.2065 23.8047 21.497 23.7848 21.7408C23.7632 22.0051 23.7133 22.3013 23.5633 22.5956C23.351 23.0123 23.0123 23.351 22.5956 23.5633C22.3013 23.7133 22.0051 23.7632 21.7407 23.7848C21.497 23.8047 21.2065 23.8047 20.8958 23.8047H16.2135C15.9028 23.8047 15.6123 23.8047 15.3685 23.7848C15.1042 23.7632 14.808 23.7133 14.5137 23.5633C14.097 23.351 13.7583 23.0123 13.546 22.5956C13.396 22.3013 13.3461 22.0051 13.3245 21.7408C13.3046 21.497 13.3046 21.2065 13.3046 20.8958L13.3046 19L7.56798 19C7.31559 19 7.0698 19 6.86163 18.983C6.63304 18.9644 6.36331 18.9203 6.09188 18.782C5.71556 18.5902 5.4096 18.2843 5.21785 17.908C5.07955 17.6365 5.03548 17.3668 5.01681 17.1382C4.9998 16.9301 4.99983 16.6843 4.99986 16.4319L4.99986 10.75L3.15875 10.75C2.84801 10.75 2.55755 10.7501 2.31377 10.7301C2.04944 10.7085 1.75325 10.6586 1.4589 10.5087C1.04226 10.2964 0.703515 9.95763 0.491224 9.54098C0.341249 9.24664 0.291343 8.95045 0.269746 8.68612C0.249829 8.44234 0.249853 8.15188 0.24988 7.84115V3.15885C0.249853 2.84812 0.249829 2.55767 0.269746 2.31389C0.291343 2.04956 0.341249 1.75337 0.491224 1.45902C0.703515 1.04238 1.04226 0.703638 1.4589 0.491347C1.75325 0.341371 2.04944 0.291465 2.31377 0.269869C2.55755 0.249951 2.848 0.249976 3.15873 0.250002ZM6.99986 10.75V16.4C6.99986 16.6965 7.00064 16.8588 7.01017 16.9753L7.01131 16.9885L7.0245 16.9897C7.14108 16.9992 7.30334 17 7.59986 17H13.3046L13.3046 16.2135C13.3046 15.9028 13.3046 15.6123 13.3245 15.3686C13.3461 15.1042 13.396 14.808 13.546 14.5137C13.7583 14.097 14.097 13.7583 14.5137 13.546C14.808 13.396 15.1042 13.3461 15.3685 13.3245C15.6123 13.3046 15.9028 13.3046 16.2135 13.3047L16.9999 13.3047V7.59998C16.9999 7.30345 16.9991 7.1412 16.9896 7.02461L16.9884 7.01143L16.9752 7.01028C16.8586 7.00076 16.6964 6.99998 16.3999 6.99998H10.7499L10.7499 7.84114C10.7499 8.15187 10.7499 8.44234 10.73 8.68612C10.7084 8.95045 10.6585 9.24664 10.5085 9.54098C10.2962 9.95763 9.95751 10.2964 9.54086 10.5087C9.24652 10.6586 8.95032 10.7085 8.686 10.7301C8.44221 10.7501 8.15175 10.75 7.84101 10.75L6.99986 10.75ZM2.35624 2.27917C2.32428 2.2978 2.29768 2.3244 2.27904 2.35637C2.27572 2.37069 2.26882 2.40676 2.2631 2.47675C2.25066 2.62907 2.24988 2.83633 2.24988 3.19286V7.80715C2.24988 8.16368 2.25066 8.37094 2.2631 8.52326C2.26882 8.59325 2.27572 8.62932 2.27904 8.64364C2.29768 8.67561 2.32428 8.70221 2.35624 8.72084C2.37056 8.72416 2.40664 8.73106 2.47663 8.73678C2.62895 8.74923 2.83621 8.75 3.19274 8.75H7.80702C8.16356 8.75 8.37082 8.74923 8.52313 8.73678C8.59312 8.73106 8.6292 8.72416 8.64352 8.72084C8.67549 8.70221 8.70209 8.67561 8.72072 8.64364C8.72404 8.62932 8.73094 8.59325 8.73666 8.52326C8.7491 8.37094 8.74988 8.16368 8.74988 7.80715V3.19286C8.74988 2.83633 8.7491 2.62907 8.73666 2.47675C8.73094 2.40676 8.72404 2.37069 8.72072 2.35637C8.70209 2.3244 8.67548 2.2978 8.64352 2.27917C8.6292 2.27585 8.59313 2.26894 8.52313 2.26323C8.37082 2.25078 8.16356 2.25 7.80702 2.25H3.19274C2.83621 2.25 2.62895 2.25078 2.47663 2.26323C2.40664 2.26894 2.37056 2.27585 2.35624 2.27917ZM15.411 15.3338C15.379 15.3525 15.3524 15.3791 15.3338 15.411C15.3305 15.4254 15.3236 15.4614 15.3179 15.5314C15.3054 15.6837 15.3046 15.891 15.3046 16.2475V20.8618C15.3046 21.2183 15.3054 21.4256 15.3179 21.5779C15.3236 21.6479 15.3305 21.684 15.3338 21.6983C15.3524 21.7303 15.379 21.7569 15.411 21.7755C15.4253 21.7788 15.4614 21.7857 15.5314 21.7914C15.6837 21.8039 15.891 21.8047 16.2475 21.8047H20.8618C21.2183 21.8047 21.4256 21.8039 21.5779 21.7914C21.6479 21.7857 21.684 21.7788 21.6983 21.7755C21.7302 21.7569 21.7568 21.7303 21.7755 21.6983C21.7788 21.684 21.7857 21.6479 21.7914 21.5779C21.8039 21.4256 21.8046 21.2183 21.8046 20.8618V16.2475C21.8046 15.891 21.8039 15.6837 21.7914 15.5314C21.7857 15.4614 21.7788 15.4254 21.7755 15.411C21.7568 15.3791 21.7302 15.3525 21.6983 15.3338C21.684 15.3305 21.6479 15.3236 21.5779 15.3179C21.4256 15.3054 21.2183 15.3047 20.8618 15.3047H16.2475C15.891 15.3047 15.6837 15.3054 15.5314 15.3179C15.4614 15.3236 15.4253 15.3305 15.411 15.3338Z" fill="black"/>
</svg>
