<svg width="25" height="25" viewBox="0 0 25 25" fill="none" xmlns="http://www.w3.org/2000/svg">
<path fill-rule="evenodd" clip-rule="evenodd" d="M3.1534 3.29249e-06C2.8476 -3.50929e-05 2.5478 -7.2645e-05 2.29353 0.0207016C2.01375 0.0435611 1.68099 0.0976724 1.34553 0.268598C0.881845 0.504857 0.504857 0.881845 0.268598 1.34553C0.0976724 1.68099 0.0435611 2.01375 0.0207016 2.29353C-7.2645e-05 2.5478 -3.50929e-05 2.8476 3.29249e-06 3.1534V7.84661C-3.50929e-05 8.15241 -7.2645e-05 8.45222 0.0207016 8.70648C0.0435611 8.98627 0.0976724 9.31902 0.268598 9.65448C0.504857 10.1182 0.881845 10.4952 1.34553 10.7314C1.68099 10.9023 2.01375 10.9565 2.29353 10.9793C2.5478 11.0001 2.84761 11 3.15342 11L4.74999 11L4.74998 16.4366C4.74994 16.6846 4.74989 16.9399 4.76776 17.1586C4.7877 17.4026 4.83597 17.7089 4.99522 18.0215C5.21094 18.4448 5.55514 18.789 5.97851 19.0047C6.29105 19.164 6.59734 19.2123 6.8414 19.2322C7.0601 19.2501 7.31537 19.25 7.56343 19.25L13.0549 19.25L13.0549 20.9013C13.0549 21.2071 13.0548 21.5069 13.0756 21.7611C13.0984 22.0409 13.1526 22.3737 13.3235 22.7091C13.5597 23.1728 13.9367 23.5498 14.4004 23.7861C14.7359 23.957 15.0686 24.0111 15.3484 24.034C15.6027 24.0548 15.9025 24.0547 16.2083 24.0547H20.9015C21.2073 24.0547 21.5071 24.0548 21.7614 24.034C22.0412 24.0111 22.3739 23.957 22.7094 23.7861C23.1731 23.5498 23.55 23.1728 23.7863 22.7091C23.9572 22.3737 24.0113 22.0409 24.0342 21.7611C24.055 21.5069 24.0549 21.2071 24.0549 20.9013V16.2081C24.0549 15.9023 24.055 15.6025 24.0342 15.3482C24.0113 15.0684 23.9572 14.7357 23.7863 14.4002C23.55 13.9365 23.1731 13.5595 22.7094 13.3233C22.3739 13.1523 22.0412 13.0982 21.7614 13.0754C21.5071 13.0546 21.2073 13.0546 20.9015 13.0547L19.25 13.0547L19.25 7.56342C19.25 7.31537 19.2501 7.06009 19.2322 6.84139C19.2123 6.59734 19.164 6.29104 19.0047 5.9785C18.789 5.55513 18.4448 5.21093 18.0215 4.99521C17.7089 4.83597 17.4026 4.78769 17.1586 4.76775C16.9399 4.74989 16.6846 4.74993 16.4366 4.74997L11 4.74998L11 3.15342C11 2.84761 11.0001 2.5478 10.9793 2.29353C10.9565 2.01375 10.9023 1.68099 10.7314 1.34553C10.4952 0.881845 10.1182 0.504857 9.65448 0.268598C9.31902 0.0976724 8.98627 0.0435611 8.70648 0.0207016C8.45222 -7.2645e-05 8.15241 -3.50929e-05 7.84661 3.29249e-06H3.1534ZM8.50001 4.74998V3.19286C8.50001 2.84424 8.4991 2.6501 8.48872 2.51129C8.34991 2.50092 8.15578 2.50001 7.80715 2.50001H3.19286C2.84424 2.50001 2.6501 2.50092 2.51129 2.51129C2.50092 2.6501 2.50001 2.84424 2.50001 3.19286V7.80715C2.50001 8.15578 2.50092 8.34991 2.51129 8.48872C2.6501 8.4991 2.84424 8.50001 3.19286 8.50001H4.74999L4.74998 7.56341C4.74994 7.31536 4.74989 7.06008 4.76776 6.84139C4.7877 6.59734 4.83597 6.29104 4.99522 5.9785C5.21094 5.55513 5.55514 5.21093 5.97851 4.99521C6.29105 4.83597 6.59734 4.78769 6.8414 4.76775C7.06009 4.74989 7.31536 4.74993 7.5634 4.74997L8.50001 4.74998ZM19.25 15.5547L19.25 16.4365C19.25 16.6846 19.2501 16.9399 19.2322 17.1586C19.2123 17.4026 19.164 17.7089 19.0047 18.0215C18.789 18.4448 18.4448 18.789 18.0215 19.0047C17.7089 19.164 17.4026 19.2123 17.1586 19.2322C16.9399 19.2501 16.6846 19.25 16.4365 19.25L15.5549 19.25V20.8618C15.5549 21.2104 15.5558 21.4046 15.5662 21.5434C15.705 21.5538 15.8991 21.5547 16.2477 21.5547H20.862C21.2107 21.5547 21.4048 21.5538 21.5436 21.5434C21.554 21.4046 21.5549 21.2104 21.5549 20.8618V16.2475C21.5549 15.8989 21.554 15.7048 21.5436 15.566C21.4048 15.5556 21.2107 15.5547 20.862 15.5547H19.25Z" fill="black"/>
</svg>
