<svg width="24" height="24" viewBox="0 0 24 24" fill="none" xmlns="http://www.w3.org/2000/svg">
<path fill-rule="evenodd" clip-rule="evenodd" d="M3.67596 2.75C3.48667 2.74998 3.30233 2.74996 3.14621 2.76271C2.97476 2.77672 2.77246 2.80977 2.5689 2.91349C2.28665 3.0573 2.05718 3.28677 1.91337 3.56902C1.80965 3.77259 1.7766 3.97489 1.76259 4.14633C1.74984 4.30245 1.74986 4.48679 1.74988 4.67608V16.3239C1.74986 16.5132 1.74984 16.6976 1.76259 16.8537C1.7766 17.0251 1.80965 17.2274 1.91337 17.431C2.05718 17.7132 2.28665 17.9427 2.5689 18.0865C2.77246 18.1902 2.97476 18.2233 3.14621 18.2373C3.30232 18.2501 3.48666 18.25 3.67595 18.25L10.8047 18.25L10.8047 21.3786C10.8046 21.5678 10.8046 21.7522 10.8174 21.9083C10.8314 22.0798 10.8644 22.2821 10.9681 22.4856C11.112 22.7679 11.3414 22.9974 11.6237 23.1412C11.8272 23.2449 12.0295 23.2779 12.201 23.292C12.3571 23.3047 12.5414 23.3047 12.7307 23.3047H20.3786C20.5679 23.3047 20.7522 23.3047 20.9083 23.292C21.0798 23.2779 21.2821 23.2449 21.4856 23.1412C21.7679 22.9974 21.9974 22.7679 22.1412 22.4856C22.2449 22.2821 22.2779 22.0798 22.292 21.9083C22.3047 21.7522 22.3047 21.5679 22.3047 21.3786V13.7307C22.3047 13.5414 22.3047 13.3571 22.292 13.201C22.2779 13.0295 22.2449 12.8272 22.1412 12.6237C21.9974 12.3414 21.7679 12.112 21.4856 11.9681C21.2821 11.8644 21.0798 11.8314 20.9083 11.8174C20.7522 11.8046 20.5679 11.8046 20.3787 11.8047L17.2499 11.8047L17.2499 4.67607C17.2499 4.48678 17.2499 4.30245 17.2372 4.14633C17.2232 3.97489 17.1901 3.77259 17.0864 3.56902C16.9426 3.28677 16.7131 3.0573 16.4309 2.91349C16.2273 2.80977 16.025 2.77672 15.8536 2.76271C15.6974 2.74996 15.5131 2.74998 15.3238 2.75H3.67596ZM3.25761 4.26848L3.25847 4.25859L3.26836 4.25773C3.3558 4.25059 3.47749 4.25 3.69988 4.25H15.2999C15.5223 4.25 15.644 4.25059 15.7314 4.25773L15.7413 4.25859L15.7422 4.26848C15.7493 4.35592 15.7499 4.47761 15.7499 4.7V16.3C15.7499 16.5224 15.7493 16.6441 15.7422 16.7315L15.7413 16.7414L15.7314 16.7423C15.644 16.7494 15.5223 16.75 15.2999 16.75H3.69988C3.47749 16.75 3.3558 16.7494 3.26836 16.7423L3.25847 16.7414L3.25761 16.7315C3.25047 16.6441 3.24988 16.5224 3.24988 16.3V4.7C3.24988 4.47761 3.25047 4.35592 3.25761 4.26848Z" fill="black"/>
</svg>
