<svg width="24" height="24" viewBox="0 0 24 24" fill="none" xmlns="http://www.w3.org/2000/svg">
<path fill-rule="evenodd" clip-rule="evenodd" d="M2.97171 0.500001C2.68879 0.499987 2.43282 0.499974 2.21972 0.517385C1.9911 0.536064 1.74646 0.578457 1.50622 0.700864C1.15947 0.877545 0.877545 1.15947 0.700864 1.50622C0.578457 1.74646 0.536064 1.9911 0.517385 2.21972C0.499974 2.43282 0.499987 2.68866 0.500001 2.97158V8.0283C0.499987 8.31122 0.499974 8.56719 0.517385 8.78029C0.536064 9.00891 0.578457 9.25355 0.700864 9.49379C0.877545 9.84054 1.15947 10.1225 1.50622 10.2991C1.74646 10.4216 1.9911 10.4639 2.21972 10.4826C2.43285 10.5 2.68873 10.5 2.9717 10.5L5.24998 10.5L5.24998 16.5854C5.24996 16.8155 5.24994 17.0311 5.26473 17.2122C5.28078 17.4086 5.31792 17.6294 5.42982 17.8491C5.58801 18.1595 5.84043 18.4119 6.15089 18.5701C6.3705 18.682 6.59133 18.7192 6.78778 18.7352C6.96883 18.75 7.18443 18.75 7.41455 18.75L13.5551 18.75L13.5551 21.083C13.5551 21.3659 13.5551 21.6218 13.5725 21.835C13.5912 22.0636 13.6336 22.3082 13.756 22.5485C13.9326 22.8952 14.2146 23.1771 14.5613 23.3538C14.8016 23.4762 15.0462 23.5186 15.2748 23.5373C15.4879 23.5547 15.7438 23.5547 16.0267 23.5547H21.0834C21.3664 23.5547 21.6223 23.5547 21.8354 23.5373C22.064 23.5186 22.3086 23.4762 22.5489 23.3538C22.8956 23.1771 23.1776 22.8952 23.3542 22.5485C23.4767 22.3082 23.519 22.0636 23.5377 21.835C23.5551 21.6218 23.5551 21.366 23.5551 21.083V16.0264C23.5551 15.7434 23.5551 15.4875 23.5377 15.2744C23.519 15.0458 23.4767 14.8011 23.3542 14.5609C23.1776 14.2141 22.8956 13.9322 22.5489 13.7555C22.3086 13.6331 22.064 13.5907 21.8354 13.572C21.6223 13.5546 21.3664 13.5547 21.0834 13.5547L18.75 13.5547L18.75 7.41455C18.75 7.18443 18.75 6.96883 18.7352 6.78778C18.7192 6.59132 18.682 6.3705 18.5701 6.15089C18.4119 5.84042 18.1595 5.588 17.8491 5.42981C17.6294 5.31791 17.4086 5.28078 17.2122 5.26473C17.0311 5.24993 16.8155 5.24995 16.5854 5.24997L10.5 5.24997L10.5 2.9717C10.5 2.68873 10.5 2.43285 10.4826 2.21972C10.4639 1.9911 10.4216 1.74646 10.2991 1.50622C10.1225 1.15947 9.84054 0.877545 9.49379 0.700864C9.25355 0.578457 9.00891 0.536064 8.78029 0.517385C8.56719 0.499974 8.31135 0.499987 8.02843 0.500001H2.97171ZM9 5.24997V2.99858C9 2.68017 8.99942 2.48647 8.98761 2.34186C8.97847 2.23005 8.96523 2.19315 8.96266 2.18719C8.96227 2.18642 8.96251 2.18692 8.96266 2.18719C8.92979 2.12268 8.87731 2.07024 8.8128 2.03737C8.81408 2.03793 8.81395 2.03796 8.8128 2.03737C8.80685 2.03481 8.76996 2.02154 8.65815 2.0124C8.51354 2.00059 8.31984 2 8.00143 2H2.99858C2.68017 2 2.48647 2.00059 2.34186 2.0124C2.23005 2.02154 2.19315 2.03478 2.18719 2.03735C2.18605 2.03793 2.18591 2.0379 2.18719 2.03735C2.12268 2.07022 2.07024 2.1227 2.03737 2.18721C2.03793 2.18593 2.03796 2.18606 2.03737 2.18721C2.03481 2.19316 2.02154 2.23005 2.0124 2.34186C2.00059 2.48647 2 2.68017 2 2.99858V8.00143C2 8.31984 2.00059 8.51354 2.0124 8.65815C2.02154 8.76996 2.03478 8.80686 2.03735 8.81281C2.03793 8.81396 2.0379 8.8141 2.03735 8.81281C2.07022 8.87733 2.1227 8.92976 2.18721 8.96264C2.18693 8.96249 2.18643 8.96224 2.18721 8.96264C2.19316 8.9652 2.23005 8.97847 2.34186 8.98761C2.48647 8.99942 2.68017 9 2.99858 9H5.24998L5.24998 7.41456C5.24996 7.18444 5.24994 6.96883 5.26473 6.78778C5.28078 6.59132 5.31792 6.3705 5.42982 6.15089C5.58801 5.84042 5.84043 5.588 6.15089 5.42981C6.3705 5.31791 6.59133 5.28078 6.78778 5.26473C6.96884 5.24993 7.18444 5.24995 7.41456 5.24997L9 5.24997ZM18.75 15.0547L18.75 16.5854C18.75 16.8155 18.75 17.0311 18.7352 17.2122C18.7192 17.4086 18.682 17.6294 18.5701 17.8491C18.4119 18.1595 18.1595 18.4119 17.8491 18.5701C17.6294 18.682 17.4086 18.7192 17.2122 18.7352C17.0311 18.75 16.8155 18.75 16.5854 18.75L15.0551 18.75V21.0561C15.0551 21.3745 15.0557 21.5682 15.0675 21.7128C15.0766 21.8246 15.0899 21.8615 15.0925 21.8675C15.1253 21.932 15.1778 21.9844 15.2423 22.0173C15.2412 22.0167 15.241 22.0167 15.2423 22.0173C15.2483 22.0199 15.2852 22.0331 15.397 22.0423C15.5416 22.0541 15.7353 22.0547 16.0537 22.0547H21.0565C21.3749 22.0547 21.5686 22.0541 21.7132 22.0423C21.8251 22.0331 21.862 22.0199 21.8679 22.0173C21.8692 22.0168 21.8691 22.0167 21.8679 22.0173C21.9324 21.9845 21.9849 21.932 22.0177 21.8675C22.0203 21.8615 22.0336 21.8246 22.0427 21.7128C22.0545 21.5682 22.0551 21.3745 22.0551 21.0561V16.0532C22.0551 15.7348 22.0545 15.5411 22.0427 15.3965C22.0336 15.2847 22.0203 15.2478 22.0178 15.2419C22.0172 15.2406 22.0172 15.2407 22.0178 15.2419C21.9849 15.1773 21.9324 15.1249 21.8679 15.092C21.868 15.0921 21.8687 15.0924 21.8679 15.092C21.8619 15.0895 21.8251 15.0762 21.7132 15.0671C21.5686 15.0553 21.3749 15.0547 21.0565 15.0547H18.75ZM6.77107 6.82328C6.78385 6.8018 6.8018 6.78384 6.82328 6.77106C6.83418 6.76862 6.86039 6.76379 6.90993 6.75974C7.02238 6.75056 7.17558 6.74997 7.43998 6.74997H16.56C16.8244 6.74997 16.9776 6.75056 17.09 6.75974C17.1396 6.76379 17.1658 6.76862 17.1767 6.77106C17.1982 6.78384 17.2161 6.8018 17.2289 6.82328C17.2313 6.83418 17.2362 6.86038 17.2402 6.90993C17.2494 7.02238 17.25 7.17557 17.25 7.43997V16.56C17.25 16.8244 17.2494 16.9776 17.2402 17.09C17.2362 17.1396 17.2313 17.1658 17.2289 17.1767C17.2161 17.1981 17.1982 17.2161 17.1767 17.2289C17.1658 17.2313 17.1396 17.2362 17.09 17.2402C16.9776 17.2494 16.8244 17.25 16.56 17.25H7.43998C7.17558 17.25 7.02238 17.2494 6.90993 17.2402C6.86039 17.2362 6.83419 17.2313 6.82328 17.2289C6.8018 17.2161 6.78385 17.1981 6.77107 17.1767C6.76863 17.1658 6.7638 17.1396 6.75975 17.09C6.75056 16.9776 6.74998 16.8244 6.74998 16.56V7.43997C6.74998 7.17557 6.75056 7.02238 6.75975 6.90993C6.7638 6.86038 6.76863 6.83418 6.77107 6.82328Z" fill="black"/>
</svg>
