<svg width="24" height="24" viewBox="0 0 24 24" fill="none" xmlns="http://www.w3.org/2000/svg">
<path fill-rule="evenodd" clip-rule="evenodd" d="M3.67602 2.75C3.48673 2.74998 3.30239 2.74996 3.14627 2.76271C2.97483 2.77672 2.77252 2.80977 2.56896 2.91349C2.28671 3.0573 2.05724 3.28677 1.91343 3.56902C1.80971 3.77259 1.77666 3.97489 1.76265 4.14633C1.7499 4.30245 1.74992 4.48679 1.74994 4.67608V16.3239C1.74992 16.5132 1.7499 16.6976 1.76265 16.8537C1.77666 17.0251 1.80971 17.2274 1.91343 17.431C2.05724 17.7132 2.28671 17.9427 2.56896 18.0865C2.77252 18.1902 2.97483 18.2233 3.14627 18.2373C3.30239 18.2501 3.48672 18.25 3.67601 18.25L10.8047 18.25L10.8047 21.3786C10.8047 21.5679 10.8046 21.7522 10.8174 21.9083C10.8314 22.0798 10.8645 22.2821 10.9682 22.4856C11.112 22.7679 11.3415 22.9974 11.6237 23.1412C11.8273 23.2449 12.0296 23.2779 12.201 23.2919C12.3571 23.3047 12.5415 23.3047 12.7307 23.3047H20.3786C20.5679 23.3047 20.7522 23.3047 20.9084 23.2919C21.0798 23.2779 21.2821 23.2449 21.4857 23.1412C21.7679 22.9974 21.9974 22.7679 22.1412 22.4856C22.2449 22.2821 22.278 22.0798 22.292 21.9083C22.3047 21.7522 22.3047 21.5679 22.3047 21.3786V13.7307C22.3047 13.5414 22.3047 13.3571 22.292 13.201C22.278 13.0295 22.2449 12.8272 22.1412 12.6237C21.9974 12.3414 21.7679 12.112 21.4857 11.9681C21.2821 11.8644 21.0798 11.8314 20.9084 11.8174C20.7522 11.8046 20.5679 11.8046 20.3786 11.8047L17.2499 11.8047L17.2499 4.67607C17.25 4.48678 17.25 4.30245 17.2372 4.14633C17.2232 3.97489 17.1902 3.77259 17.0865 3.56902C16.9426 3.28677 16.7132 3.0573 16.4309 2.91349C16.2274 2.80977 16.0251 2.77672 15.8536 2.76271C15.6975 2.74996 15.5132 2.74998 15.3239 2.75H3.67602ZM17.2499 13.3047L17.2499 16.3239C17.25 16.5132 17.25 16.6976 17.2372 16.8537C17.2232 17.0251 17.1902 17.2274 17.0865 17.431C16.9426 17.7132 16.7132 17.9427 16.4309 18.0865C16.2274 18.1902 16.0251 18.2233 15.8536 18.2373C15.6975 18.2501 15.5132 18.25 15.3239 18.25L12.3047 18.25V21.3547C12.3047 21.577 12.3053 21.6987 12.3124 21.7862L12.3133 21.7961L12.3232 21.7969C12.4106 21.8041 12.5323 21.8047 12.7547 21.8047H20.3547C20.5771 21.8047 20.6988 21.8041 20.7862 21.7969L20.7961 21.7961L20.797 21.7862C20.8041 21.6987 20.8047 21.577 20.8047 21.3547V13.7547C20.8047 13.5323 20.8041 13.4106 20.797 13.3231L20.7961 13.3132L20.7862 13.3124C20.6988 13.3052 20.5771 13.3047 20.3547 13.3047H17.2499ZM3.25767 4.26848L3.25853 4.25859L3.26842 4.25773C3.35586 4.25059 3.47755 4.25 3.69994 4.25H15.2999C15.5223 4.25 15.644 4.25059 15.7315 4.25773L15.7414 4.25859L15.7422 4.26848C15.7494 4.35592 15.7499 4.47761 15.7499 4.7V16.3C15.7499 16.5224 15.7494 16.6441 15.7422 16.7315L15.7414 16.7414L15.7315 16.7423C15.644 16.7494 15.5223 16.75 15.2999 16.75H3.69994C3.47755 16.75 3.35586 16.7494 3.26842 16.7423L3.25853 16.7414L3.25767 16.7315C3.25053 16.6441 3.24994 16.5224 3.24994 16.3V4.7C3.24994 4.47761 3.25053 4.35592 3.25767 4.26848Z" fill="black"/>
</svg>
