<svg width="24" height="24" viewBox="0 0 24 24" fill="none" xmlns="http://www.w3.org/2000/svg">
<path fill-rule="evenodd" clip-rule="evenodd" d="M3.27483 1.25001C3.15811 1.24995 3.00586 1.24986 2.86977 1.26098C2.70909 1.27411 2.46454 1.30876 2.20547 1.44076C1.87619 1.60854 1.60847 1.87625 1.4407 2.20554C1.3087 2.4646 1.27405 2.70915 1.26092 2.86983C1.2498 3.00592 1.24989 3.15817 1.24995 3.27489V15.7251C1.24989 15.8419 1.2498 15.9941 1.26092 16.1302C1.27405 16.2909 1.3087 16.5354 1.4407 16.7945C1.60847 17.1238 1.87619 17.3915 2.20547 17.5593C2.46454 17.6913 2.70909 17.7259 2.86977 17.7391C3.00584 17.7502 3.15807 17.7501 3.27478 17.75L10.3047 17.75L10.3047 20.7798C10.3046 20.8965 10.3045 21.0488 10.3157 21.1849C10.3288 21.3455 10.3634 21.5901 10.4954 21.8492C10.6632 22.1784 10.9309 22.4462 11.2602 22.6139C11.5193 22.7459 11.7638 22.7806 11.9245 22.7937C12.0606 22.8048 12.2128 22.8047 12.3296 22.8047H20.7798C20.8965 22.8047 21.0488 22.8048 21.1849 22.7937C21.3456 22.7806 21.5901 22.7459 21.8492 22.6139C22.1785 22.4462 22.4462 22.1784 22.614 21.8492C22.746 21.5901 22.7806 21.3455 22.7937 21.1849C22.8049 21.0488 22.8048 20.8965 22.8047 20.7798V12.3295C22.8048 12.2128 22.8049 12.0606 22.7937 11.9245C22.7806 11.7638 22.746 11.5192 22.614 11.2602C22.4462 10.9309 22.1785 10.6632 21.8492 10.4954C21.5901 10.3634 21.3456 10.3288 21.1849 10.3156C21.0488 10.3045 20.8966 10.3046 20.7799 10.3047L17.75 10.3047L17.75 3.2749C17.75 3.15819 17.7501 3.0059 17.739 2.86983C17.7259 2.70915 17.6912 2.4646 17.5592 2.20554C17.3914 1.87625 17.1237 1.60854 16.7944 1.44076C16.5354 1.30876 16.2908 1.27411 16.1301 1.26098C15.9941 1.24986 15.8418 1.24995 15.7251 1.25001H3.27483ZM17.75 12.8047L17.75 15.7251C17.75 15.8419 17.7501 15.9941 17.739 16.1302C17.7259 16.2909 17.6912 16.5354 17.5592 16.7945C17.3914 17.1238 17.1237 17.3915 16.7944 17.5593C16.5354 17.6913 16.2908 17.7259 16.1301 17.7391C15.9941 17.7502 15.8418 17.7501 15.7251 17.75L12.8047 17.75V20.3047H20.3047V12.8047H17.75ZM3.74996 15.25V3.75002H15.25V15.25H3.74996Z" fill="black"/>
</svg>
