<svg width="24" height="24" viewBox="0 0 24 24" fill="none" xmlns="http://www.w3.org/2000/svg">
<path d="M17.2145 15.6574C17.605 15.267 18.2381 15.2669 18.6286 15.6574C19.0187 16.0479 19.0188 16.681 18.6286 17.0714L12.7662 22.9337C12.3434 23.3559 11.6579 23.3559 11.235 22.9337L5.37269 17.0714C4.98252 16.681 4.98256 16.0478 5.37269 15.6574C5.76323 15.267 6.39725 15.2669 6.78773 15.6574L12.0006 20.8712L17.2145 15.6574Z" fill="black"/>
<path d="M11.235 1.06654C11.6579 0.644317 12.3433 0.644329 12.7662 1.06654L18.6286 6.92885C19.0188 7.31929 19.0187 7.95243 18.6286 8.34291C18.2381 8.73336 17.605 8.73322 17.2145 8.34291L12.0006 3.12904L6.78773 8.34291C6.39728 8.73336 5.76323 8.73322 5.37269 8.34291C4.98256 7.95244 4.98252 7.31929 5.37269 6.92885L11.235 1.06654Z" fill="black"/>
</svg>
