<svg width="24" height="24" viewBox="0 0 24 24" fill="none" xmlns="http://www.w3.org/2000/svg">
<path d="M19.1132 9.18901C19.0063 9.32436 19.0063 9.58381 19.0063 10.1027V10.9951L1.25 10.9951C0.697716 10.9951 0.25 11.4428 0.25 11.9951C0.25 12.5474 0.697716 12.9951 1.25 12.9951L19.0063 12.9951V13.8973C19.0063 14.4162 19.0063 14.6756 19.1132 14.811C19.2061 14.9288 19.3473 14.9982 19.4973 15C19.6697 15.002 19.8753 14.8437 20.2863 14.527L22.7494 12.6297C23.0276 12.4154 23.1667 12.3083 23.2168 12.1777C23.2606 12.0633 23.2606 11.9367 23.2168 11.8223C23.1667 11.6917 23.0276 11.5846 22.7494 11.3703L20.2863 9.47296C19.8753 9.15631 19.6697 8.99799 19.4973 9.00002C19.3473 9.00179 19.2061 9.07124 19.1132 9.18901Z" fill="black"/>
</svg>
