<svg width="24" height="24" viewBox="0 0 24 24" fill="none" xmlns="http://www.w3.org/2000/svg">
<path d="M5.19545 15.4795C5.68364 14.9917 6.47598 14.9914 6.964 15.4795L12.0001 20.5166L17.0372 15.4795C17.5254 14.9919 18.3168 14.9916 18.8048 15.4795C19.2927 15.9675 19.2924 16.7589 18.8048 17.247L12.9425 23.1094C12.4219 23.6295 11.5783 23.6296 11.0578 23.1094L5.19545 17.247C4.70773 16.7589 4.70754 15.9675 5.19545 15.4795Z" fill="black"/>
<path d="M11.0578 0.890602C11.5783 0.370425 12.4219 0.370476 12.9425 0.890602L18.8048 6.75291C19.2924 7.24106 19.2927 8.03248 18.8048 8.52048C18.3168 9.00834 17.5254 9.0081 17.0372 8.52048L12.0001 3.48338L6.964 8.52048C6.47596 9.00852 5.68363 9.00829 5.19545 8.52048C4.70754 8.03245 4.70773 7.24105 5.19545 6.75291L11.0578 0.890602Z" fill="black"/>
</svg>
