<svg width="24" height="24" viewBox="0 0 24 24" fill="none" xmlns="http://www.w3.org/2000/svg">
<path d="M6.39908 4.84114C7.08248 4.15819 8.19039 4.15801 8.87368 4.84114C9.5571 5.52456 9.5571 6.63331 8.87368 7.31673L4.19009 11.9993L8.87368 16.6829C9.55691 17.3663 9.5569 18.4742 8.87368 19.1575C8.19031 19.8409 7.08249 19.8408 6.39908 19.1575L0.536771 13.2962C-0.178847 12.5803 -0.178837 11.4193 0.536771 10.7034L6.39908 4.84114Z" fill="black"/>
<path d="M15.1266 4.84114C15.8099 4.15801 16.9178 4.15819 17.6012 4.84114L23.4635 10.7034C24.1791 11.4193 24.1792 12.5803 23.4635 13.2962L17.6012 19.1575C16.9178 19.8408 15.81 19.8409 15.1266 19.1575C14.4434 18.4742 14.4434 17.3663 15.1266 16.6829L19.8102 11.9993L15.1266 7.31673C14.4432 6.63331 14.4432 5.52456 15.1266 4.84114Z" fill="black"/>
</svg>
