<svg width="24" height="24" viewBox="0 0 24 24" fill="none" xmlns="http://www.w3.org/2000/svg">
<path d="M7.28245 5.72652C7.47771 5.53126 7.79422 5.53126 7.98948 5.72652C8.18446 5.92181 8.18465 6.23839 7.98948 6.43356L2.4221 12L7.98948 17.5673C8.18459 17.7626 8.18469 18.0792 7.98948 18.2744C7.79426 18.4694 7.47767 18.4694 7.28245 18.2744L1.42014 12.4121C1.19319 12.1844 1.19306 11.8155 1.42014 11.5879L7.28245 5.72652Z" fill="black"/>
<path d="M16.01 5.72652C16.2052 5.53127 16.5218 5.5313 16.717 5.72652L22.5793 11.5879C22.8066 11.8155 22.8063 12.1843 22.5793 12.4121L16.717 18.2744C16.5217 18.4693 16.2051 18.4695 16.01 18.2744C15.8149 18.0792 15.8151 17.7626 16.01 17.5673L21.5774 12L16.01 6.43356C15.8149 6.23844 15.8152 5.92181 16.01 5.72652Z" fill="black"/>
</svg>
