<svg width="24" height="24" viewBox="0 0 24 24" fill="none" xmlns="http://www.w3.org/2000/svg">
<path d="M17.7436 16.1869C17.841 16.0896 17.9995 16.0898 18.0971 16.1869C18.1947 16.2844 18.1945 16.4427 18.0971 16.5404L12.2358 22.4027C12.1056 22.5325 11.8942 22.5325 11.7641 22.4027L5.90274 16.5404C5.80539 16.4427 5.8052 16.2844 5.90274 16.1869C6.00031 16.0897 6.15874 16.0896 6.25626 16.1869L11.9994 21.931L17.7436 16.1869Z" fill="black"/>
<path d="M11.7641 1.59701C11.8942 1.46716 12.1056 1.46719 12.2358 1.59701L18.0971 7.45931C18.1947 7.55695 18.1947 7.71521 18.0971 7.81283C17.9994 7.91013 17.8411 7.91032 17.7436 7.81283L11.9994 2.06869L6.25626 7.81283C6.15871 7.91028 6.00037 7.91017 5.90274 7.81283C5.80519 7.71522 5.80522 7.55693 5.90274 7.45931L11.7641 1.59701Z" fill="black"/>
</svg>
