<svg width="24" height="24" viewBox="0 0 24 24" fill="none" xmlns="http://www.w3.org/2000/svg">
<path d="M5.19594 15.4795C5.68412 14.9917 6.47647 14.9914 6.96449 15.4795L12.0006 20.5166L17.0377 15.4795C17.5259 14.9919 18.3173 14.9916 18.8053 15.4795C19.2932 15.9675 19.2929 16.7589 18.8053 17.247L12.943 23.1094C12.4224 23.6295 11.5788 23.6296 11.0582 23.1094L5.19594 17.247C4.70822 16.7589 4.70803 15.9675 5.19594 15.4795Z" fill="black"/>
<path d="M11.0582 0.890602C11.5788 0.370425 12.4224 0.370476 12.943 0.890602L18.8053 6.75291C19.2929 7.24106 19.2932 8.03248 18.8053 8.52048C18.3173 9.00834 17.5259 9.0081 17.0377 8.52048L12.0006 3.48338L6.96449 8.52048C6.47645 9.00852 5.68412 9.00829 5.19594 8.52048C4.70803 8.03245 4.70822 7.24105 5.19594 6.75291L11.0582 0.890602Z" fill="black"/>
</svg>
