<svg width="24" height="24" viewBox="0 0 24 24" fill="none" xmlns="http://www.w3.org/2000/svg">
<path d="M7.28257 5.72652C7.47783 5.53126 7.79434 5.53126 7.9896 5.72652C8.18458 5.92181 8.18477 6.23839 7.9896 6.43356L2.42222 12L7.9896 17.5673C8.18472 17.7626 8.18482 18.0792 7.9896 18.2744C7.79438 18.4694 7.47779 18.4694 7.28257 18.2744L1.42027 12.4121C1.19331 12.1844 1.19318 11.8155 1.42027 11.5879L7.28257 5.72652Z" fill="black"/>
<path d="M16.0101 5.72652C16.2054 5.53127 16.5219 5.5313 16.7171 5.72652L22.5794 11.5879C22.8067 11.8155 22.8065 12.1843 22.5794 12.4121L16.7171 18.2744C16.5219 18.4693 16.2053 18.4695 16.0101 18.2744C15.815 18.0792 15.8152 17.7626 16.0101 17.5673L21.5775 12L16.0101 6.43356C15.815 6.23844 15.8153 5.92181 16.0101 5.72652Z" fill="black"/>
</svg>
