<svg width="24" height="24" viewBox="0 0 24 24" fill="none" xmlns="http://www.w3.org/2000/svg">
<path d="M16.6833 15.1262C17.3666 14.4432 18.4746 14.4433 19.1579 15.1262C19.8412 15.8096 19.8412 16.9184 19.1579 17.6018L13.2966 23.4631C12.5807 24.1788 11.4198 24.1787 10.7038 23.4631L4.84252 17.6018C4.1591 16.9184 4.1591 15.8096 4.84252 15.1262C5.52592 14.4433 6.63386 14.4431 7.31713 15.1262L12.0007 19.8098L16.6833 15.1262Z" fill="black"/>
<path d="M10.7038 0.53735C11.4197 -0.178299 12.5807 -0.178306 13.2966 0.53735L19.1579 6.39868C19.841 7.08212 19.8413 8.19096 19.1579 8.87426C18.4746 9.55703 17.3666 9.55707 16.6833 8.87426L12.0007 4.19067L7.31713 8.87426C6.63391 9.55718 5.5259 9.55692 4.84252 8.87426C4.15914 8.19089 4.15922 7.08211 4.84252 6.39868L10.7038 0.53735Z" fill="black"/>
</svg>
