<svg width="24" height="24" viewBox="0 0 24 24" fill="none" xmlns="http://www.w3.org/2000/svg">
<path d="M16.8609 15.3037C17.4467 14.7181 18.3962 14.718 18.982 15.3037C19.5673 15.8894 19.5674 16.8391 18.982 17.4248L13.1197 23.2861C12.5014 23.9041 11.4997 23.904 10.8814 23.2861L5.01907 17.4248C4.43335 16.8391 4.43349 15.8895 5.01907 15.3037C5.60487 14.718 6.55443 14.718 7.14017 15.3037L12.0005 20.1631L16.8609 15.3037Z" fill="black"/>
<path d="M10.8814 0.713848C11.4997 0.0958984 12.5014 0.0958462 13.1197 0.713848L18.982 6.57518C19.5674 7.16085 19.5673 8.11053 18.982 8.69627C18.3963 9.28198 17.4467 9.28183 16.8609 8.69627L12.0005 3.83689L7.14017 8.69627C6.55444 9.282 5.60487 9.28188 5.01907 8.69627C4.43349 8.11047 4.43335 7.16089 5.01907 6.57518L10.8814 0.713848Z" fill="black"/>
</svg>
