<svg width="24" height="24" viewBox="0 0 24 24" fill="none" xmlns="http://www.w3.org/2000/svg">
<path d="M17.5668 16.0096C17.7619 15.8147 18.0786 15.8149 18.2738 16.0096C18.469 16.2048 18.4689 16.5213 18.2738 16.7166L12.4125 22.5789C12.1847 22.8064 11.815 22.8064 11.5873 22.5789L5.72597 16.7166C5.53099 16.5213 5.5308 16.2048 5.72597 16.0096C5.92118 15.8149 6.23787 15.8148 6.433 16.0096L11.9994 21.577L17.5668 16.0096Z" fill="black"/>
<path d="M11.5873 1.42072C11.815 1.19324 12.1847 1.19327 12.4125 1.42072L18.2738 7.28303C18.469 7.47829 18.4691 7.79482 18.2738 7.99006C18.0786 8.18499 17.762 8.18515 17.5668 7.99006L11.9994 2.42268L6.433 7.99006C6.23783 8.18514 5.92123 8.18499 5.72597 7.99006C5.53078 7.79482 5.53081 7.47828 5.72597 7.28303L11.5873 1.42072Z" fill="black"/>
</svg>
