<svg width="24" height="24" viewBox="0 0 24 24" fill="none" xmlns="http://www.w3.org/2000/svg">
<path d="M17.39 15.8348C17.6829 15.5419 18.1577 15.5419 18.4506 15.8348C18.7432 16.1277 18.7434 16.6025 18.4506 16.8953L12.5892 22.7567C12.2639 23.0814 11.7358 23.0816 11.4105 22.7567L5.54919 16.8953C5.25641 16.6025 5.25664 16.1277 5.54919 15.8348C5.84209 15.5419 6.31685 15.5419 6.60974 15.8348L11.9994 21.2244L17.39 15.8348Z" fill="black"/>
<path d="M11.4105 1.24396C11.7359 0.918839 12.2639 0.918846 12.5892 1.24396L18.4506 7.10529C18.7434 7.39814 18.7433 7.87293 18.4506 8.16584C18.1576 8.4585 17.6828 8.45865 17.39 8.16584L11.9994 2.77619L6.60974 8.16584C6.31683 8.4585 5.84201 8.45865 5.54919 8.16584C5.2564 7.87302 5.25654 7.39819 5.54919 7.10529L11.4105 1.24396Z" fill="black"/>
</svg>
