<svg width="24" height="24" viewBox="0 0 24 24" fill="none" xmlns="http://www.w3.org/2000/svg">
<path d="M7.10555 5.54881C7.39845 5.25608 7.87423 5.25598 8.16707 5.54881C8.45971 5.84166 8.45973 6.31749 8.16707 6.61033L2.77644 12L8.16707 17.3906C8.45938 17.6834 8.45942 18.1584 8.16707 18.4512C7.87424 18.744 7.39846 18.7438 7.10555 18.4512L1.24422 12.5888C0.9192 12.2635 0.919128 11.7365 1.24422 11.4111L7.10555 5.54881Z" fill="black"/>
<path d="M15.8331 5.54881C16.1259 5.25598 16.6017 5.2561 16.8946 5.54881L22.7559 11.4111C23.081 11.7365 23.081 12.2635 22.7559 12.5888L16.8946 18.4512C16.6017 18.7438 16.1259 18.744 15.8331 18.4512C15.5408 18.1584 15.5408 17.6834 15.8331 17.3906L21.2237 12L15.8331 6.61033C15.5404 6.31749 15.5405 5.84166 15.8331 5.54881Z" fill="black"/>
</svg>
