<svg width="24" height="24" viewBox="0 0 24 24" fill="none" xmlns="http://www.w3.org/2000/svg">
<path d="M4.88644 9.18901C4.99327 9.32436 4.99327 9.58381 4.99327 10.1027V10.9951L22.7496 10.9951C23.3019 10.9951 23.7496 11.4428 23.7496 11.9951C23.7496 12.5474 23.3019 12.9951 22.7496 12.9951L4.99327 12.9951V13.8973C4.99327 14.4162 4.99327 14.6756 4.88644 14.811C4.7935 14.9288 4.65232 14.9982 4.50231 15C4.32988 15.002 4.12435 14.8437 3.71328 14.527L1.25021 12.6297C0.971985 12.4154 0.832873 12.3083 0.782865 12.1777C0.739045 12.0633 0.739045 11.9367 0.782865 11.8223C0.832873 11.6917 0.971985 11.5846 1.25021 11.3703L3.71328 9.47296C4.12435 9.15631 4.32988 8.99799 4.50231 9.00002C4.65232 9.00179 4.7935 9.07124 4.88644 9.18901Z" fill="black"/>
</svg>
