<svg width="24" height="24" viewBox="0 0 24 24" fill="none" xmlns="http://www.w3.org/2000/svg">
<path d="M17.3901 15.8348C17.683 15.5419 18.1577 15.5419 18.4506 15.8348C18.7433 16.1277 18.7434 16.6025 18.4506 16.8953L12.5893 22.7567C12.2639 23.0814 11.7359 23.0816 11.4106 22.7567L5.54925 16.8953C5.25647 16.6025 5.2567 16.1277 5.54925 15.8348C5.84215 15.5419 6.31691 15.5419 6.6098 15.8348L11.9995 21.2244L17.3901 15.8348Z" fill="black"/>
<path d="M11.4106 1.24396C11.736 0.918839 12.2639 0.918846 12.5893 1.24396L18.4506 7.10529C18.7435 7.39814 18.7434 7.87293 18.4506 8.16584C18.1577 8.4585 17.6829 8.45865 17.3901 8.16584L11.9995 2.77619L6.6098 8.16584C6.31689 8.4585 5.84207 8.45865 5.54925 8.16584C5.25646 7.87302 5.2566 7.39819 5.54925 7.10529L11.4106 1.24396Z" fill="black"/>
</svg>
