<svg width="24" height="24" viewBox="0 0 24 24" fill="none" xmlns="http://www.w3.org/2000/svg">
<path d="M6.92907 5.37215C7.31955 4.98179 7.95263 4.98181 8.34313 5.37215C8.73331 5.76266 8.73343 6.39578 8.34313 6.78621L3.13024 12.0001L8.34313 17.2139C8.73319 17.6045 8.73339 18.2376 8.34313 18.628C7.95273 19.0181 7.31954 19.018 6.92907 18.628L1.06676 12.7657C0.644367 12.3428 0.644458 11.6574 1.06676 11.2345L6.92907 5.37215Z" fill="black"/>
<path d="M15.6576 5.37215C16.0481 4.9818 16.6812 4.98168 17.0716 5.37215L22.934 11.2345C23.356 11.6574 23.3562 12.3429 22.934 12.7657L17.0716 18.628C16.6813 19.0182 16.0481 19.018 15.6576 18.628C15.2671 18.2375 15.2672 17.6045 15.6576 17.2139L20.8705 12.0001L15.6576 6.78621C15.2671 6.39569 15.2671 5.76267 15.6576 5.37215Z" fill="black"/>
</svg>
