<svg width="24" height="24" viewBox="0 0 24 24" fill="none" xmlns="http://www.w3.org/2000/svg">
<path d="M6.75277 5.19594C7.24092 4.70781 8.0322 4.70779 8.52034 5.19594C9.0083 5.6841 9.00841 6.47543 8.52034 6.96352L3.48324 12.0006L8.52034 17.0368C9.00836 17.5249 9.00845 18.3172 8.52034 18.8053C8.03231 19.293 7.24084 19.2929 6.75277 18.8053L0.890462 12.943C0.370149 12.4224 0.370194 11.5779 0.890462 11.0573L6.75277 5.19594Z" fill="black"/>
<path d="M15.4803 5.19594C15.9685 4.70779 16.7597 4.70781 17.2479 5.19594L23.1102 11.0573C23.6304 11.5779 23.6305 12.4224 23.1102 12.943L17.2479 18.8053C16.7598 19.293 15.9684 19.2929 15.4803 18.8053C14.9922 18.3172 14.9922 17.5249 15.4803 17.0368L20.5174 12.0006L15.4803 6.96352C14.9922 6.4754 14.9923 5.6841 15.4803 5.19594Z" fill="black"/>
</svg>
