<svg width="24" height="24" viewBox="0 0 24 24" fill="none" xmlns="http://www.w3.org/2000/svg">
<path d="M5.19551 15.4795C5.6837 14.9917 6.47604 14.9914 6.96406 15.4795L12.0002 20.5166L17.0373 15.4795C17.5255 14.9919 18.3169 14.9916 18.8049 15.4795C19.2928 15.9675 19.2925 16.7589 18.8049 17.247L12.9426 23.1094C12.4219 23.6295 11.5784 23.6296 11.0578 23.1094L5.19551 17.247C4.70779 16.7589 4.70761 15.9675 5.19551 15.4795Z" fill="black"/>
<path d="M11.0578 0.890602C11.5784 0.370425 12.422 0.370476 12.9426 0.890602L18.8049 6.75291C19.2925 7.24106 19.2927 8.03248 18.8049 8.52048C18.3169 9.00834 17.5255 9.0081 17.0373 8.52048L12.0002 3.48338L6.96406 8.52048C6.47603 9.00852 5.68369 9.00829 5.19551 8.52048C4.70761 8.03245 4.70779 7.24105 5.19551 6.75291L11.0578 0.890602Z" fill="black"/>
</svg>
