<svg width="24" height="24" viewBox="0 0 24 24" fill="none" xmlns="http://www.w3.org/2000/svg">
<path d="M17.5673 16.0096C17.7624 15.8147 18.0791 15.8149 18.2743 16.0096C18.4695 16.2048 18.4694 16.5213 18.2743 16.7166L12.413 22.5789C12.1852 22.8064 11.8155 22.8064 11.5878 22.5789L5.72646 16.7166C5.53148 16.5213 5.53129 16.2048 5.72646 16.0096C5.92167 15.8149 6.23836 15.8148 6.43349 16.0096L11.9999 21.577L17.5673 16.0096Z" fill="black"/>
<path d="M11.5878 1.42072C11.8155 1.19324 12.1852 1.19327 12.413 1.42072L18.2743 7.28303C18.4695 7.47829 18.4696 7.79482 18.2743 7.99006C18.079 8.18499 17.7624 8.18515 17.5673 7.99006L11.9999 2.42268L6.43349 7.99006C6.23832 8.18514 5.92172 8.18499 5.72646 7.99006C5.53127 7.79482 5.5313 7.47828 5.72646 7.28303L11.5878 1.42072Z" fill="black"/>
</svg>
