<svg width="24" height="24" viewBox="0 0 24 24" fill="none" xmlns="http://www.w3.org/2000/svg">
<path d="M19.8029 9.65751C19.7139 9.7703 19.7139 9.98651 19.7139 10.4189V11.2451L1.25 11.2451C0.835787 11.2451 0.5 11.5809 0.5 11.9951C0.5 12.4093 0.835787 12.7451 1.25 12.7451L19.7139 12.7451V13.5811C19.7139 14.0135 19.7139 14.2297 19.8029 14.3425C19.8803 14.4406 19.998 14.4985 20.123 14.5C20.2667 14.5017 20.438 14.3697 20.7805 14.1059L22.8331 12.5248C23.0649 12.3462 23.1809 12.2569 23.2225 12.1481C23.2591 12.0527 23.2591 11.9473 23.2225 11.8519C23.1809 11.7431 23.0649 11.6538 22.8331 11.4752L20.7805 9.89413C20.438 9.63026 20.2667 9.49832 20.123 9.50002C19.998 9.50149 19.8803 9.55937 19.8029 9.65751Z" fill="black"/>
</svg>
