<svg width="24" height="24" viewBox="0 0 24 24" fill="none" xmlns="http://www.w3.org/2000/svg">
<path d="M7.10548 5.54881C7.39839 5.25608 7.87417 5.25598 8.16701 5.54881C8.45965 5.84166 8.45967 6.31749 8.16701 6.61033L2.77638 12L8.16701 17.3906C8.45932 17.6834 8.45936 18.1584 8.16701 18.4512C7.87418 18.744 7.39839 18.7438 7.10548 18.4512L1.24416 12.5888C0.919139 12.2635 0.919067 11.7365 1.24416 11.4111L7.10548 5.54881Z" fill="black"/>
<path d="M15.833 5.54881C16.1259 5.25598 16.6016 5.2561 16.8945 5.54881L22.7559 11.4111C23.081 11.7365 23.0809 12.2635 22.7559 12.5888L16.8945 18.4512C16.6016 18.7438 16.1258 18.744 15.833 18.4512C15.5407 18.1584 15.5407 17.6834 15.833 17.3906L21.2236 12L15.833 6.61033C15.5404 6.31749 15.5404 5.84166 15.833 5.54881Z" fill="black"/>
</svg>
