<svg width="24" height="24" viewBox="0 0 24 24" fill="none" xmlns="http://www.w3.org/2000/svg">
<path d="M14.811 4.88668C14.6756 4.99352 14.4162 4.99352 13.8973 4.99352H13.0049L13.0049 22.7499C13.0049 23.3021 12.5572 23.7499 12.0049 23.7499C11.4526 23.7499 11.0049 23.3021 11.0049 22.7499L11.0049 4.99352H10.1027C9.58381 4.99352 9.32436 4.99352 9.18901 4.88668C9.07124 4.79374 9.00179 4.65256 9.00002 4.50255C8.99799 4.33013 9.15631 4.12459 9.47296 3.71352L11.3703 1.25045C11.5846 0.972229 11.6917 0.833117 11.8223 0.783109C11.9367 0.739289 12.0633 0.739289 12.1777 0.783109C12.3083 0.833117 12.4154 0.972229 12.6297 1.25045L14.527 3.71352C14.8437 4.12459 15.002 4.33013 15 4.50255C14.9982 4.65256 14.9288 4.79374 14.811 4.88668Z" fill="black"/>
</svg>
