<svg width="24" height="24" viewBox="0 0 24 24" fill="none" xmlns="http://www.w3.org/2000/svg">
<path d="M17.214 15.6574C17.6045 15.267 18.2376 15.2669 18.6281 15.6574C19.0182 16.0479 19.0183 16.681 18.6281 17.0714L12.7658 22.9337C12.3429 23.3559 11.6574 23.3559 11.2345 22.9337L5.3722 17.0714C4.98203 16.681 4.98208 16.0478 5.3722 15.6574C5.76274 15.267 6.39676 15.2669 6.78724 15.6574L12.0001 20.8712L17.214 15.6574Z" fill="black"/>
<path d="M11.2345 1.06654C11.6574 0.644317 12.3428 0.644329 12.7658 1.06654L18.6281 6.92885C19.0183 7.31929 19.0182 7.95243 18.6281 8.34291C18.2376 8.73336 17.6045 8.73322 17.214 8.34291L12.0001 3.12904L6.78724 8.34291C6.39679 8.73336 5.76275 8.73322 5.3722 8.34291C4.98208 7.95244 4.98203 7.31929 5.3722 6.92885L11.2345 1.06654Z" fill="black"/>
</svg>
