<svg width="24" height="24" viewBox="0 0 24 24" fill="none" xmlns="http://www.w3.org/2000/svg">
<path d="M17.7441 16.1869C17.8415 16.0896 18 16.0898 18.0976 16.1869C18.1951 16.2844 18.195 16.4427 18.0976 16.5404L12.2362 22.4027C12.1061 22.5325 11.8947 22.5325 11.7646 22.4027L5.90323 16.5404C5.80588 16.4427 5.80569 16.2844 5.90323 16.1869C6.0008 16.0897 6.15923 16.0896 6.25675 16.1869L11.9999 21.931L17.7441 16.1869Z" fill="black"/>
<path d="M11.7646 1.59701C11.8947 1.46716 12.1061 1.46719 12.2362 1.59701L18.0976 7.45931C18.1952 7.55695 18.1952 7.71521 18.0976 7.81283C17.9999 7.91013 17.8416 7.91032 17.7441 7.81283L11.9999 2.06869L6.25675 7.81283C6.1592 7.91028 6.00085 7.91017 5.90323 7.81283C5.80568 7.71522 5.8057 7.55693 5.90323 7.45931L11.7646 1.59701Z" fill="black"/>
</svg>
