<svg width="24" height="24" viewBox="0 0 24 24" fill="none" xmlns="http://www.w3.org/2000/svg">
<path d="M4.51144 9.18901C4.61827 9.32436 4.61827 9.58381 4.61827 10.1027V10.7451L22.3751 10.7451C23.0655 10.7451 23.6251 11.3047 23.6251 11.9951C23.6251 12.6854 23.0655 13.2451 22.3751 13.2451L4.61827 13.2451V13.8973C4.61827 14.4162 4.61827 14.6756 4.51144 14.811C4.4185 14.9288 4.27732 14.9982 4.12731 15C3.95488 15.002 3.74935 14.8437 3.33828 14.527L0.875207 12.6297C0.596985 12.4154 0.457873 12.3083 0.407865 12.1777C0.364045 12.0633 0.364045 11.9367 0.407865 11.8223C0.457873 11.6917 0.596985 11.5846 0.875207 11.3703L3.33828 9.47296C3.74935 9.15631 3.95488 8.99799 4.12731 9.00002C4.27732 9.00179 4.4185 9.07124 4.51144 9.18901Z" fill="black"/>
</svg>
