<svg width="24" height="24" viewBox="0 0 24 24" fill="none" xmlns="http://www.w3.org/2000/svg">
<path d="M7.45858 5.90289C7.55619 5.80529 7.71446 5.80535 7.8121 5.90289C7.90971 6.00053 7.90972 6.15878 7.8121 6.25641L2.06893 11.9996L7.8121 17.7437C7.90971 17.8413 7.90972 17.9996 7.8121 18.0972C7.71446 18.1947 7.55616 18.1948 7.45858 18.0972L1.59725 12.2359C1.4674 12.1058 1.46743 11.8943 1.59725 11.7642L7.45858 5.90289Z" fill="black"/>
<path d="M16.1881 5.90289C16.2857 5.80535 16.444 5.80529 16.5416 5.90289L22.4029 11.7642C22.5327 11.8943 22.5328 12.1058 22.4029 12.2359L16.5416 18.0972C16.444 18.1948 16.2857 18.1947 16.1881 18.0972C16.0905 17.9996 16.0905 17.8413 16.1881 17.7437L21.9312 11.9996L16.1881 6.25641C16.0905 6.15878 16.0905 6.00053 16.1881 5.90289Z" fill="black"/>
</svg>
