<svg width="24" height="24" viewBox="0 0 24 24" fill="none" xmlns="http://www.w3.org/2000/svg">
<path d="M9.18901 19.1133C9.32436 19.0065 9.58381 19.0065 10.1027 19.0065H10.9951L10.9951 1.25012C10.9951 0.697838 11.4428 0.250122 11.9951 0.250122C12.5474 0.250122 12.9951 0.697838 12.9951 1.25012L12.9951 19.0065H13.8973C14.4162 19.0065 14.6756 19.0065 14.811 19.1133C14.9288 19.2062 14.9982 19.3474 15 19.4974C15.002 19.6699 14.8437 19.8754 14.527 20.2865L12.6297 22.7495C12.4154 23.0278 12.3083 23.1669 12.1777 23.2169C12.0633 23.2607 11.9367 23.2607 11.8223 23.2169C11.6917 23.1669 11.5846 23.0278 11.3703 22.7495L9.47296 20.2865C9.15631 19.8754 8.99799 19.6699 9.00002 19.4974C9.00179 19.3474 9.07124 19.2062 9.18901 19.1133Z" fill="black"/>
</svg>
