<svg width="24" height="24" viewBox="0 0 24 24" fill="none" xmlns="http://www.w3.org/2000/svg">
<path d="M10.126 20.3674C10.2162 20.2961 10.3892 20.2961 10.7351 20.2961H11.4951L11.4951 1.125C11.4951 0.848858 11.7189 0.625 11.9951 0.625C12.2712 0.625 12.4951 0.848858 12.4951 1.125L12.4951 20.2961H13.2649C13.6108 20.2961 13.7838 20.2961 13.874 20.3674C13.9525 20.4293 13.9988 20.5234 14 20.6235C14.0013 20.7384 13.8958 20.8754 13.6847 21.1495L12.4198 22.7915C12.2769 22.977 12.2055 23.0697 12.1185 23.1031C12.0422 23.1323 11.9578 23.1323 11.8815 23.1031C11.7945 23.0697 11.7231 22.977 11.5802 22.7915L10.3153 21.1495C10.1042 20.8754 9.99866 20.7384 10 20.6235C10.0012 20.5234 10.0475 20.4293 10.126 20.3674Z" fill="black"/>
</svg>
