<svg width="24" height="24" viewBox="0 0 24 24" fill="none" xmlns="http://www.w3.org/2000/svg">
<path d="M14.3425 4.19703C14.2297 4.28606 14.0135 4.28606 13.5811 4.28606H12.7549L12.7549 22.7499C12.7549 23.1641 12.4191 23.4999 12.0049 23.4999C11.5907 23.4999 11.2549 23.1641 11.2549 22.7499L11.2549 4.28606H10.4189C9.98651 4.28606 9.7703 4.28606 9.65751 4.19703C9.55937 4.11958 9.50149 4.00193 9.50002 3.87692C9.49832 3.73324 9.63026 3.56196 9.89413 3.2194L11.4752 1.16684C11.6538 0.934989 11.7431 0.819061 11.8519 0.777388C11.9473 0.740871 12.0527 0.740871 12.1481 0.777388C12.2569 0.819061 12.3462 0.934987 12.5248 1.16684L14.1059 3.2194C14.3697 3.56196 14.5017 3.73324 14.5 3.87692C14.4985 4.00193 14.4406 4.11958 14.3425 4.19703Z" fill="black"/>
</svg>
