<svg width="24" height="24" viewBox="0 0 24 24" fill="none" xmlns="http://www.w3.org/2000/svg">
<path d="M14.7071 21.2919C14.6218 21.2066 14.5334 21.1261 14.4424 21.0505C13.7152 21.3273 12.9264 21.4788 12.1021 21.4788C11.2256 21.4788 10.3891 21.3074 9.62434 20.9964C9.50963 21.0874 9.39893 21.1859 9.29291 21.2919L9.22633 21.3585C8.54905 22.0358 7.45097 22.0358 6.7737 21.3585C5.24626 19.8311 2.74535 19.9143 1.32288 21.54L1.24745 21.6262C0.883759 22.0418 0.925867 22.6736 1.3415 23.0373C1.75713 23.4009 2.38889 23.3588 2.75258 22.9432L2.82801 22.857C3.48864 22.102 4.65011 22.0634 5.35948 22.7727C6.81781 24.2311 9.18222 24.2311 10.6405 22.7727L10.7071 22.7062C11.4212 21.9921 12.5789 21.9921 13.2929 22.7062L13.3595 22.7727C14.8178 24.2311 17.1822 24.2311 18.6405 22.7727C19.3499 22.0634 20.5114 22.102 21.172 22.857L21.2474 22.9432C21.6111 23.3588 22.2429 23.4009 22.6585 23.0373C23.0742 22.6736 23.1163 22.0418 22.7526 21.6262L22.6771 21.54C21.2547 19.9143 18.7538 19.8311 17.2263 21.3585C16.5491 22.0358 15.451 22.0358 14.7737 21.3585L14.7071 21.2919Z" fill="black"/>
<path d="M18.6405 17.773C18.3315 18.082 17.9817 18.3256 17.6085 18.5037C18.1908 17.6165 18.5644 16.5801 18.6596 15.4643C20.0438 14.9929 21.6446 15.3602 22.6771 16.5402L22.7526 16.6264C23.1163 17.042 23.0742 17.6738 22.6585 18.0375C22.2429 18.4012 21.6111 18.3591 21.2474 17.9434L21.172 17.8572C20.5114 17.1023 19.3499 17.0636 18.6405 17.773Z" fill="black"/>
<path d="M1.32288 16.5402C2.40846 15.2996 4.12215 14.9573 5.5519 15.5436C5.66275 16.6807 6.06292 17.7329 6.67786 18.6258C6.19718 18.4442 5.74644 18.1599 5.35949 17.773C4.65011 17.0636 3.48864 17.1023 2.82801 17.8572L2.75258 17.9434C2.38889 18.3591 1.75713 18.4012 1.3415 18.0375C0.925867 17.6738 0.883759 17.042 1.24745 16.6264L1.32288 16.5402Z" fill="black"/>
<path fill-rule="evenodd" clip-rule="evenodd" d="M8.90294 3.46848C8.90294 1.70175 10.3352 0.269531 12.1019 0.269531C13.8686 0.269531 15.3008 1.70175 15.3008 3.46848L15.3008 11.3844L15.3635 11.4438C16.2791 12.3088 16.852 13.5366 16.852 14.897C16.852 17.5203 14.7253 19.647 12.1019 19.647C9.47859 19.647 7.35193 17.5203 7.35193 14.897C7.35193 13.5366 7.92476 12.3089 8.84026 11.4439L8.90292 11.3845L8.90294 3.46848ZM12.1021 16.3973C12.9305 16.3973 13.6021 15.7258 13.6021 14.8973C13.6021 14.0689 12.9305 13.3973 12.1021 13.3973C11.2737 13.3973 10.6021 14.0689 10.6021 14.8973C10.6021 15.7258 11.2737 16.3973 12.1021 16.3973Z" fill="black"/>
<path d="M18.0002 3.94289C17.586 3.94289 17.2502 4.27868 17.2502 4.69289C17.2502 5.1071 17.586 5.44289 18.0002 5.44289H21.6736C22.0878 5.44289 22.4236 5.1071 22.4236 4.69289C22.4236 4.27868 22.0878 3.94289 21.6736 3.94289L18.0002 3.94289Z" fill="black"/>
<path d="M18.0002 6.94289C17.586 6.94289 17.2502 7.27868 17.2502 7.69289C17.2502 8.1071 17.586 8.44289 18.0002 8.44289H20.8573C21.2715 8.44289 21.6073 8.1071 21.6073 7.69289C21.6073 7.27868 21.2715 6.94289 20.8573 6.94289H18.0002Z" fill="black"/>
</svg>
