<svg width="24" height="24" viewBox="0 0 24 24" fill="none" xmlns="http://www.w3.org/2000/svg">
<path d="M14.3536 21.6455C14.0079 21.2999 13.6052 21.0461 13.1757 20.8843C12.8272 20.9464 12.4685 20.9788 12.1021 20.9788C11.6886 20.9788 11.2847 20.9375 10.8943 20.8588C10.4386 21.0189 10.0108 21.2811 9.64645 21.6455L9.57987 21.7121C8.70734 22.5846 7.29268 22.5846 6.42014 21.7121C5.09722 20.3892 2.93117 20.4613 1.69916 21.8692L1.62372 21.9554C1.44188 22.1632 1.46293 22.4791 1.67075 22.661C1.87856 22.8428 2.19445 22.8218 2.37629 22.6139L2.45172 22.5277C3.30281 21.5551 4.79914 21.5053 5.71303 22.4192C6.97609 23.6822 9.02392 23.6822 10.287 22.4192L10.3536 22.3526C11.2629 21.4433 12.7371 21.4433 13.6465 22.3526L13.713 22.4192C14.9761 23.6822 17.0239 23.6822 18.287 22.4192C19.2009 21.5053 20.6972 21.5551 21.5483 22.5277L21.6237 22.6139C21.8056 22.8218 22.1215 22.8428 22.3293 22.661C22.5371 22.4791 22.5581 22.1632 22.3763 21.9554L22.3009 21.8692C21.0688 20.4613 18.9028 20.3892 17.5799 21.7121C16.7073 22.5846 15.2927 22.5846 14.4201 21.7121L14.3536 21.6455Z" fill="black"/>
<path d="M18.287 17.4194C17.9849 17.7215 17.6378 17.9514 17.2674 18.109C17.6013 17.5731 17.8542 16.9814 18.0088 16.3512C19.3346 15.418 21.1944 15.605 22.3009 16.8695L22.3763 16.9557C22.5581 17.1635 22.5371 17.4794 22.3293 17.6612C22.1215 17.8431 21.8056 17.822 21.6237 17.6142L21.5483 17.528C20.6972 16.5553 19.2009 16.5055 18.287 17.4194Z" fill="black"/>
<path d="M1.69916 16.8695C2.87925 15.5208 4.91632 15.3978 6.24854 16.5525C6.41621 17.1466 6.67191 17.7038 7.00065 18.2092C6.5298 18.0567 6.08702 17.7934 5.71303 17.4194C4.79914 16.5055 3.30281 16.5553 2.45172 17.528L2.37629 17.6142C2.19445 17.822 1.87856 17.8431 1.67075 17.6612C1.46293 17.4794 1.44188 17.1635 1.62372 16.9557L1.69916 16.8695Z" fill="black"/>
<path d="M12.1021 15.8973C12.6544 15.8973 13.1021 15.4496 13.1021 14.8973C13.1021 14.345 12.6544 13.8973 12.1021 13.8973C11.5498 13.8973 11.1021 14.345 11.1021 14.8973C11.1021 15.4496 11.5498 15.8973 12.1021 15.8973Z" fill="black"/>
<path fill-rule="evenodd" clip-rule="evenodd" d="M12.1019 0.519531C10.4732 0.519531 9.15293 1.83982 9.15294 3.46848V11.3421C9.15294 11.4169 9.15283 11.4572 9.15155 11.4866L9.15134 11.491L9.14203 11.5006C9.115 11.5281 9.0766 11.5645 9.01195 11.6256C8.14435 12.4453 7.60193 13.6082 7.60193 14.897C7.60193 17.3823 9.61666 19.397 12.1019 19.397C14.5872 19.397 16.602 17.3823 16.602 14.897C16.602 13.6082 16.0595 12.4452 15.1918 11.6255C15.1272 11.5644 15.0888 11.528 15.0617 11.5005L15.0524 11.4909L15.0522 11.4865C15.0509 11.4571 15.0508 11.4168 15.0508 11.342L15.0508 3.46848C15.0508 1.83982 13.7305 0.519531 12.1019 0.519531ZM10.1529 3.46848C10.1529 2.3921 11.0255 1.51953 12.1019 1.51953C13.1783 1.51953 14.0508 2.3921 14.0508 3.46848L14.0508 11.342L14.0508 11.3725C14.0505 11.4798 14.0501 11.612 14.0805 11.734C14.1083 11.8459 14.1466 11.9345 14.2087 12.0316C14.2768 12.1378 14.3846 12.2391 14.4767 12.3257L14.5051 12.3524C15.1811 12.9911 15.602 13.8945 15.602 14.897C15.602 16.83 14.0349 18.397 12.1019 18.397C10.1689 18.397 8.60193 16.83 8.60193 14.897C8.60193 13.8945 9.02272 12.9912 9.69872 12.3525L9.72708 12.3258C9.81922 12.2392 9.92701 12.1379 9.99504 12.0317C10.0572 11.9346 10.0954 11.846 10.1233 11.7341C10.1537 11.6121 10.1533 11.4799 10.153 11.3726L10.1529 11.3421V3.46848Z" fill="black"/>
<path d="M18.0002 4.19289C17.724 4.19289 17.5002 4.41675 17.5002 4.69289C17.5002 4.96903 17.724 5.19289 18.0002 5.19289H21.6736C21.9497 5.19289 22.1736 4.96903 22.1736 4.69289C22.1736 4.41675 21.9497 4.19289 21.6736 4.19289L18.0002 4.19289Z" fill="black"/>
<path d="M18.0002 7.19289C17.724 7.19289 17.5002 7.41675 17.5002 7.69289C17.5002 7.96903 17.724 8.19289 18.0002 8.19289H20.8573C21.1334 8.19289 21.3573 7.96903 21.3573 7.69289C21.3573 7.41675 21.1334 7.19289 20.8573 7.19289H18.0002Z" fill="black"/>
</svg>
