<svg width="24" height="24" viewBox="0 0 24 24" fill="none" xmlns="http://www.w3.org/2000/svg">
<path d="M14.5303 21.4687C14.4141 21.3525 14.2919 21.246 14.1647 21.1491C13.516 21.363 12.8226 21.4788 12.1021 21.4788C11.3297 21.4788 10.5883 21.3457 9.89966 21.1012C9.74921 21.2105 9.60535 21.333 9.46968 21.4687L9.4031 21.5353C8.6282 22.3102 7.37183 22.3102 6.59692 21.5353C5.17174 20.1101 2.83826 20.1878 1.51102 21.7046L1.43559 21.7908C1.16282 22.1025 1.1944 22.5763 1.50612 22.8491C1.81785 23.1219 2.29167 23.0903 2.56444 22.7786L2.63987 22.6924C3.39572 21.8286 4.72463 21.7843 5.53626 22.596C6.89695 23.9566 9.10307 23.9566 10.4638 22.596L10.5303 22.5294C11.342 21.7177 12.658 21.7177 13.4697 22.5294L13.5363 22.596C14.897 23.9566 17.1031 23.9566 18.4638 22.596C19.2754 21.7843 20.6043 21.8286 21.3602 22.6924L21.4356 22.7786C21.7084 23.0903 22.1822 23.1219 22.4939 22.8491C22.8056 22.5763 22.8372 22.1025 22.5644 21.7908L22.489 21.7046C21.1618 20.1878 18.8283 20.1101 17.4031 21.5353C16.6282 22.3102 15.3718 22.3102 14.5969 21.5353L14.5303 21.4687Z" fill="black"/>
<path d="M18.4638 17.5962C18.279 17.7809 18.0787 17.9406 17.867 18.0752C18.2584 17.3667 18.523 16.5783 18.6302 15.7406C19.9461 15.2421 21.498 15.5723 22.489 16.7048L22.5644 16.791C22.8372 17.1028 22.8056 17.5766 22.4939 17.8494C22.1822 18.1221 21.7084 18.0905 21.4356 17.7788L21.3602 17.6926C20.6043 16.8288 19.2754 16.7846 18.4638 17.5962Z" fill="black"/>
<path d="M1.51102 16.7048C2.55689 15.5096 4.2276 15.208 5.58631 15.8312C5.71016 16.703 6.00487 17.5199 6.43544 18.2467C6.11113 18.0837 5.80696 17.8669 5.53626 17.5962C4.72463 16.7846 3.39572 16.8288 2.63987 17.6926L2.56444 17.7788C2.29167 18.0905 1.81785 18.1221 1.50612 17.8494C1.1944 17.5766 1.16282 17.1028 1.43559 16.791L1.51102 16.7048Z" fill="black"/>
<path fill-rule="evenodd" clip-rule="evenodd" d="M8.90293 3.46848C8.90293 1.70175 10.3352 0.269531 12.1019 0.269531C13.8686 0.269531 15.3008 1.70175 15.3008 3.46848L15.3008 11.3844L15.3635 11.4438C16.2791 12.3088 16.852 13.5366 16.852 14.897C16.852 17.5203 14.7253 19.647 12.1019 19.647C9.47858 19.647 7.35193 17.5203 7.35193 14.897C7.35193 13.5366 7.92476 12.3089 8.84026 11.4439L8.90292 11.3845L8.90293 3.46848ZM12.1021 16.1473C12.7925 16.1473 13.3521 15.5877 13.3521 14.8973C13.3521 14.207 12.7925 13.6473 12.1021 13.6473C11.4118 13.6473 10.8521 14.207 10.8521 14.8973C10.8521 15.5877 11.4118 16.1473 12.1021 16.1473Z" fill="black"/>
<path d="M18.0002 3.94289C17.586 3.94289 17.2502 4.27868 17.2502 4.69289C17.2502 5.1071 17.586 5.44289 18.0002 5.44289H21.6736C22.0878 5.44289 22.4236 5.1071 22.4236 4.69289C22.4236 4.27868 22.0878 3.94289 21.6736 3.94289L18.0002 3.94289Z" fill="black"/>
<path d="M18.0002 6.94289C17.586 6.94289 17.2502 7.27868 17.2502 7.69289C17.2502 8.1071 17.586 8.44289 18.0002 8.44289H20.8573C21.2715 8.44289 21.6073 8.1071 21.6073 7.69289C21.6073 7.27868 21.2715 6.94289 20.8573 6.94289H18.0002Z" fill="black"/>
</svg>
