<svg width="24" height="24" viewBox="0 0 24 24" fill="none" xmlns="http://www.w3.org/2000/svg">
<path d="M13.1496 22.579C14.0181 22.4616 14.8408 22.2005 15.5932 21.8202C16.1606 21.9566 16.7834 21.8033 17.2263 21.3604C18.7538 19.833 21.2547 19.9163 22.6771 21.5419L22.7526 21.6281C23.1163 22.0437 23.0742 22.6755 22.6585 23.0392C22.2429 23.4029 21.6111 23.3608 21.2474 22.9451L21.172 22.8589C20.5114 22.1039 19.3499 22.0653 18.6405 22.7746C17.1822 24.233 14.8178 24.233 13.3595 22.7746L13.2929 22.7081C13.2469 22.6621 13.1991 22.6191 13.1496 22.579Z" fill="black"/>
<path d="M8.53849 21.7831C7.93766 21.9787 7.25113 21.8379 6.7737 21.3604C5.24626 19.833 2.74535 19.9163 1.32288 21.5419L1.24745 21.6281C0.883759 22.0437 0.925867 22.6755 1.3415 23.0392C1.75713 23.4029 2.38889 23.3608 2.75258 22.9451L2.82801 22.8589C3.48864 22.1039 4.65011 22.0653 5.35948 22.7746C6.81781 24.233 9.18222 24.233 10.6405 22.7747L10.7071 22.7081C10.7629 22.6523 10.8215 22.6008 10.8823 22.5537C10.0494 22.422 9.26075 22.1577 8.53849 21.7831Z" fill="black"/>
<path d="M21.172 17.8592C20.7325 17.3568 20.0712 17.1716 19.4689 17.3128C19.6812 16.6644 19.8103 15.9782 19.8436 15.267C20.8874 15.2608 21.9307 15.6891 22.6771 16.5421L22.7526 16.6283C23.1163 17.044 23.0742 17.6757 22.6585 18.0394C22.2429 18.4031 21.6111 18.361 21.2474 17.9454L21.172 17.8592Z" fill="black"/>
<path d="M4.75872 17.3831C4.53318 16.716 4.39597 16.0083 4.36101 15.2738C3.25026 15.2066 2.11806 15.6334 1.32288 16.5421L1.24745 16.6283C0.883759 17.044 0.925867 17.6757 1.3415 18.0394C1.75713 18.4031 2.38889 18.361 2.75258 17.9454L2.82801 17.8592C3.32377 17.2926 4.10158 17.1294 4.75872 17.3831Z" fill="black"/>
<path d="M12.1022 16.3993C12.9307 16.3993 13.6022 15.7277 13.6022 14.8993C13.6022 14.0709 12.9307 13.3993 12.1022 13.3993C11.2738 13.3993 10.6022 14.0709 10.6022 14.8993C10.6022 15.7277 11.2738 16.3993 12.1022 16.3993Z" fill="black"/>
<path fill-rule="evenodd" clip-rule="evenodd" d="M12.15 0.0214844C10.079 0.0214845 8.40005 1.70042 8.40005 3.77148L8.40005 10.8313C7.29677 11.8359 6.60205 13.287 6.60205 14.8989C6.60205 17.9365 9.06449 20.3989 12.1021 20.3989C15.1396 20.3989 17.6021 17.9365 17.6021 14.8989C17.6021 13.3344 16.9475 11.9211 15.9 10.9208L15.9 3.77148C15.9 1.70042 14.2211 0.0214843 12.15 0.0214844ZM10.4 3.77148C10.4 2.80499 11.1835 2.02148 12.15 2.02148C13.1165 2.02148 13.9 2.80499 13.9 3.77148V10.9883L13.8999 11.0159C13.8992 11.1131 13.8977 11.3109 13.9445 11.4988C13.9854 11.6627 14.0459 11.8031 14.137 11.9453C14.242 12.1092 14.3994 12.2557 14.4804 12.3312L14.5049 12.3541C15.1818 12.9935 15.6021 13.8963 15.6021 14.8989C15.6021 16.8319 14.0351 18.3989 12.1021 18.3989C10.1691 18.3989 8.60205 16.8319 8.60205 14.8989C8.60205 13.8663 9.04801 12.9391 9.76102 12.297L9.78697 12.2739C9.8725 12.1981 10.0385 12.0509 10.1495 11.8839C10.2457 11.739 10.3097 11.5952 10.3529 11.4268C10.4025 11.2337 10.401 11.0295 10.4002 10.9292L10.4 10.9008V3.77148Z" fill="black"/>
<path d="M18.0003 3.81984C17.517 3.81984 17.1253 4.21159 17.1253 4.69484C17.1253 5.17809 17.517 5.56984 18.0003 5.56984H21.6737C22.157 5.56984 22.5487 5.17809 22.5487 4.69484C22.5487 4.21159 22.157 3.81984 21.6737 3.81984L18.0003 3.81984Z" fill="black"/>
<path d="M18.0003 7.81984C17.517 7.81984 17.1253 8.21159 17.1253 8.69484C17.1253 9.17809 17.517 9.56984 18.0003 9.56984H20.8574C21.3406 9.56984 21.7324 9.17809 21.7324 8.69484C21.7324 8.21159 21.3406 7.81984 20.8574 7.81984H18.0003Z" fill="black"/>
</svg>
