<svg width="24" height="26" viewBox="0 0 24 26" fill="none" xmlns="http://www.w3.org/2000/svg">
<path d="M13.0707 23.8411C14.4193 23.6784 15.6647 23.1801 16.7207 22.4321C16.8334 22.3695 16.9396 22.2911 17.0362 22.1968C17.2119 22.059 17.3817 21.914 17.5451 21.7622C19.1804 20.5861 21.4931 20.8091 22.8653 22.3773L22.9407 22.4635C23.3953 22.983 23.3427 23.7727 22.8232 24.2273C22.3036 24.6819 21.5139 24.6293 21.0593 24.1098L20.9839 24.0236C20.4185 23.3774 19.4244 23.3443 18.8173 23.9514C17.2614 25.5074 14.7387 25.5074 13.1827 23.9514L13.1161 23.8848C13.1012 23.8699 13.086 23.8553 13.0707 23.8411Z" fill="black"/>
<path d="M20.9839 19.0238C20.6398 18.6305 20.1368 18.4643 19.659 18.5314C19.9332 17.7443 20.0878 16.9012 20.1012 16.0238C21.1266 16.084 22.1307 16.538 22.8653 17.3775L22.9407 17.4637C23.3953 17.9832 23.3427 18.7729 22.8232 19.2276C22.3036 19.6822 21.5139 19.6295 21.0593 19.11L20.9839 19.0238Z" fill="black"/>
<path d="M1.13474 17.3775C1.918 16.4824 3.00772 16.0255 4.10297 16.017C4.11594 16.9149 4.27681 17.7769 4.56232 18.5799C4.02413 18.418 3.41402 18.5691 3.01616 19.0238L2.94073 19.11C2.48612 19.6295 1.69641 19.6822 1.17687 19.2276C0.657333 18.7729 0.604698 17.9832 1.05931 17.4637L1.13474 17.3775Z" fill="black"/>
<path d="M6.95048 22.1837C7.16795 22.4011 7.43611 22.537 7.71693 22.5913C8.67341 23.2193 9.77262 23.6478 10.9554 23.8176C10.931 23.8391 10.9072 23.8616 10.8839 23.8848L10.8173 23.9514C9.26137 25.5074 6.73867 25.5074 5.18271 23.9514C4.5756 23.3443 3.58155 23.3774 3.01616 24.0236L2.94073 24.1098C2.48612 24.6293 1.69641 24.6819 1.17687 24.2273C0.657333 23.7727 0.604698 22.983 1.05931 22.4635L1.13474 22.3773C2.65245 20.6428 5.32078 20.554 6.95048 22.1837Z" fill="black"/>
<path d="M12.1022 17.3993C12.9307 17.3993 13.6022 16.7277 13.6022 15.8993C13.6022 15.0709 12.9307 14.3993 12.1022 14.3993C11.2738 14.3993 10.6022 15.0709 10.6022 15.8993C10.6022 16.7277 11.2738 17.3993 12.1022 17.3993Z" fill="black"/>
<path fill-rule="evenodd" clip-rule="evenodd" d="M12.1501 0.771484C9.80285 0.771484 7.90006 2.67427 7.90006 5.02148L7.90006 11.9739C6.94096 13.0004 6.35205 14.3821 6.35205 15.8989C6.35205 19.0746 8.92642 21.6489 12.1021 21.6489C15.2777 21.6489 17.8521 19.0746 17.8521 15.8989C17.8521 14.4336 17.3024 13.094 16.4001 12.0792V5.02148C16.4001 2.67427 14.4973 0.771484 12.1501 0.771484ZM10.4001 5.02148C10.4001 4.05499 11.1836 3.27148 12.1501 3.27148C13.1166 3.27148 13.9001 4.05499 13.9001 5.02148L13.9001 12.2376L13.8999 12.2596C13.8991 12.3441 13.8972 12.5567 13.944 12.7618C13.9842 12.9376 14.0449 13.0919 14.1351 13.2479C14.2411 13.4313 14.3995 13.5985 14.465 13.6677L14.4831 13.6869C15.0234 14.268 15.3521 15.0437 15.3521 15.8989C15.3521 17.6938 13.897 19.1489 12.1021 19.1489C10.3071 19.1489 8.85205 17.6938 8.85205 15.8989C8.85205 15.014 9.20409 14.2138 9.77857 13.6265L9.7978 13.6071C9.8676 13.5371 10.0361 13.3681 10.1492 13.1804C10.2454 13.0207 10.3101 12.8619 10.353 12.6805C10.4032 12.4687 10.4011 12.2483 10.4002 12.1607L10.4001 12.138V5.02148Z" fill="black"/>
<path d="M18.5001 4.69481C17.9478 4.69481 17.5001 5.14252 17.5001 5.69481C17.5001 6.24709 17.9478 6.69481 18.5001 6.69481H22.1735C22.7258 6.69481 23.1735 6.24709 23.1735 5.69481C23.1735 5.14252 22.7258 4.69481 22.1735 4.69481L18.5001 4.69481Z" fill="black"/>
<path d="M18.5001 8.69481C17.9478 8.69481 17.5001 9.14252 17.5001 9.69481C17.5001 10.2471 17.9478 10.6948 18.5001 10.6948H21.3572C21.9094 10.6948 22.3572 10.2471 22.3572 9.69481C22.3572 9.14252 21.9094 8.69481 21.3572 8.69481H18.5001Z" fill="black"/>
</svg>
