<svg width="24" height="24" viewBox="0 0 24 24" fill="none" xmlns="http://www.w3.org/2000/svg">
<path d="M14.1768 21.8223C13.7085 21.354 13.1268 21.0681 12.5202 20.9646C12.382 20.974 12.2426 20.9788 12.1021 20.9788C11.9152 20.9788 11.7303 20.9703 11.5477 20.9538C10.9166 21.0471 10.309 21.3365 9.82323 21.8223L9.75665 21.8888C8.78648 22.859 7.21353 22.859 6.24336 21.8888C5.0227 20.6682 3.02407 20.7347 1.88729 22.0339L1.81186 22.1201C1.72094 22.224 1.73147 22.3819 1.83537 22.4728C1.93928 22.5638 2.09722 22.5532 2.18815 22.4493L2.26358 22.3631C3.2099 21.2816 4.87366 21.2263 5.8898 22.2424C7.05524 23.4078 8.94477 23.4078 10.1102 22.2424L10.1768 22.1758C11.1837 21.1689 12.8163 21.1689 13.8232 22.1758L13.8898 22.2424C15.0552 23.4078 16.9448 23.4078 18.1102 22.2424C19.1263 21.2263 20.7901 21.2816 21.7364 22.3631L21.8119 22.4493C21.9028 22.5532 22.0607 22.5638 22.1646 22.4728C22.2685 22.3819 22.2791 22.224 22.1881 22.1201L22.1127 22.0339C20.9759 20.7347 18.9773 20.6682 17.7566 21.8888C16.7865 22.859 15.2135 22.859 14.2434 21.8888L14.1768 21.8223Z" fill="black"/>
<path d="M18.1102 17.2426C17.9209 17.4319 17.7125 17.5905 17.4912 17.7183C17.651 17.4135 17.7858 17.0936 17.8928 16.7611C19.1215 15.6749 21.0173 15.7822 22.1127 17.0341L22.1881 17.1203C22.2791 17.2242 22.2685 17.3822 22.1646 17.4731C22.0607 17.564 21.9028 17.5535 21.8119 17.4496L21.7364 17.3634C20.7901 16.2819 19.1263 16.2265 18.1102 17.2426Z" fill="black"/>
<path d="M6.24336 16.8891C6.29682 16.9425 6.35211 16.9931 6.40903 17.0406C6.51616 17.325 6.64399 17.5993 6.79069 17.8616C6.46386 17.7169 6.1577 17.5105 5.8898 17.2426C4.87366 16.2265 3.2099 16.2819 2.26358 17.3634L2.18815 17.4496C2.09722 17.5535 1.93928 17.564 1.83537 17.4731C1.73147 17.3822 1.72094 17.2242 1.81186 17.1203L1.88729 17.0341C3.02407 15.735 5.0227 15.6684 6.24336 16.8891Z" fill="black"/>
<path d="M12.1021 15.6473C12.5163 15.6473 12.8521 15.3115 12.8521 14.8973C12.8521 14.4831 12.5163 14.1473 12.1021 14.1473C11.6879 14.1473 11.3521 14.4831 11.3521 14.8973C11.3521 15.3115 11.6879 15.6473 12.1021 15.6473Z" fill="black"/>
<path fill-rule="evenodd" clip-rule="evenodd" d="M12.1019 0.769531C10.6113 0.769531 9.40293 1.97789 9.40294 3.46848V11.3421C9.40294 11.4977 9.40109 11.5304 9.39552 11.5528C9.38737 11.5855 9.38165 11.5988 9.36346 11.6272C9.35141 11.646 9.32046 11.678 9.18364 11.8073C8.36395 12.5818 7.85193 13.6798 7.85193 14.897C7.85193 17.2442 9.75473 19.147 12.1019 19.147C14.4492 19.147 16.352 17.2442 16.352 14.897C16.352 13.6797 15.8399 12.5817 15.0201 11.8072C14.8833 11.6779 14.8524 11.6459 14.8403 11.6271C14.8221 11.5987 14.8164 11.5854 14.8082 11.5527C14.8027 11.5303 14.8008 11.4976 14.8008 11.342L14.8008 3.46848C14.8008 1.97789 13.5925 0.769531 12.1019 0.769531ZM9.90294 3.46848C9.90293 2.25403 10.8874 1.26953 12.1019 1.26953C13.3163 1.26953 14.3008 2.25403 14.3008 3.46848L14.3008 11.3672C14.3007 11.483 14.3006 11.5834 14.3231 11.6736C14.3444 11.7591 14.3717 11.8226 14.4193 11.8968C14.4695 11.9752 14.553 12.0539 14.6531 12.1483L14.6768 12.1707C15.4007 12.8546 15.852 13.8229 15.852 14.897C15.852 16.9681 14.173 18.647 12.1019 18.647C10.0309 18.647 8.35193 16.9681 8.35193 14.897C8.35193 13.823 8.80313 12.8547 9.52703 12.1707L9.55066 12.1484C9.65081 12.054 9.7343 11.9753 9.78451 11.8969C9.83203 11.8227 9.8594 11.7591 9.8807 11.6737C9.90316 11.5835 9.90307 11.4831 9.90295 11.3673L9.90294 3.46848Z" fill="black"/>
<path d="M18.0002 4.44289C17.8621 4.44289 17.7502 4.55482 17.7502 4.69289C17.7502 4.83096 17.8621 4.94289 18.0002 4.94289H21.6736C21.8117 4.94289 21.9236 4.83096 21.9236 4.69289C21.9236 4.55482 21.8117 4.44289 21.6736 4.44289L18.0002 4.44289Z" fill="black"/>
<path d="M18.0002 7.44289C17.8621 7.44289 17.7502 7.55482 17.7502 7.69289C17.7502 7.83096 17.8621 7.94289 18.0002 7.94289H20.8573C20.9954 7.94289 21.1073 7.83096 21.1073 7.69289C21.1073 7.55482 20.9954 7.44289 20.8573 7.44289H18.0002Z" fill="black"/>
</svg>
