<svg width="24" height="24" viewBox="0 0 24 24" fill="none" xmlns="http://www.w3.org/2000/svg">
<path d="M12.1021 21.8972C13.0512 21.8972 13.9561 21.7083 14.7814 21.3662C15.4593 22.0358 16.5516 22.0332 17.2263 21.3585C18.7538 19.8311 21.2547 19.9143 22.6771 21.54L22.7526 21.6262C23.1163 22.0418 23.0742 22.6736 22.6585 23.0373C22.2429 23.4009 21.6111 23.3588 21.2474 22.9432L21.172 22.857C20.5114 22.102 19.3499 22.0634 18.6405 22.7727C17.1822 24.2311 14.8178 24.2311 13.3595 22.7727L13.2929 22.7062C12.5789 21.9921 11.4212 21.9921 10.7071 22.7062L10.6405 22.7727C9.18222 24.2311 6.81781 24.2311 5.35948 22.7727C4.65011 22.0634 3.48864 22.102 2.82801 22.857L2.75258 22.9432C2.38889 23.3588 1.75713 23.4009 1.3415 23.0373C0.925867 22.6736 0.883759 22.0418 1.24745 21.6262L1.32288 21.54C2.74535 19.9143 5.24626 19.8311 6.7737 21.3585C7.45097 22.0358 8.54905 22.0358 9.22633 21.3585L9.27987 21.305C10.1432 21.6858 11.098 21.8972 12.1021 21.8972Z" fill="black"/>
<path d="M18.6405 17.773C18.5531 17.8604 18.4625 17.9425 18.369 18.0195C18.7751 17.2059 19.0274 16.3022 19.088 15.3465C20.3636 15.076 21.7496 15.4802 22.6771 16.5402L22.7526 16.6264C23.1163 17.042 23.0742 17.6738 22.6585 18.0375C22.2429 18.4012 21.6111 18.3591 21.2474 17.9434L21.172 17.8572C20.5114 17.1023 19.3499 17.0636 18.6405 17.773Z" fill="black"/>
<path d="M1.32288 16.5402C2.30096 15.4224 3.7889 15.0339 5.11967 15.3967C5.19254 16.4303 5.48977 17.4018 5.96296 18.2631C5.7494 18.1238 5.54695 17.9604 5.35949 17.773C4.65011 17.0636 3.48864 17.1023 2.82801 17.8572L2.75258 17.9434C2.38889 18.3591 1.75713 18.4012 1.3415 18.0375C0.925867 17.6738 0.883759 17.042 1.24745 16.6264L1.32288 16.5402Z" fill="black"/>
<path fill-rule="evenodd" clip-rule="evenodd" d="M8.90294 3.46848C8.90294 1.70175 10.3352 0.269531 12.1019 0.269531C13.8686 0.269531 15.3008 1.70175 15.3008 3.46848L15.3008 11.3844L15.3635 11.4438C16.2791 12.3088 16.852 13.5366 16.852 14.897C16.852 17.5203 14.7253 19.647 12.1019 19.647C9.47859 19.647 7.35193 17.5203 7.35193 14.897C7.35193 13.5366 7.92476 12.3089 8.84026 11.4439L8.90292 11.3845L8.90294 3.46848ZM12.1021 16.6473C13.0686 16.6473 13.8521 15.8638 13.8521 14.8973C13.8521 13.9308 13.0686 13.1473 12.1021 13.1473C11.1356 13.1473 10.3521 13.9308 10.3521 14.8973C10.3521 15.8638 11.1356 16.6473 12.1021 16.6473Z" fill="black"/>
<path d="M18.0002 3.69289C17.4479 3.69289 17.0002 4.14061 17.0002 4.69289C17.0002 5.24517 17.4479 5.69289 18.0002 5.69289H21.6736C22.2259 5.69289 22.6736 5.24518 22.6736 4.69289C22.6736 4.14061 22.2259 3.69289 21.6736 3.69289L18.0002 3.69289Z" fill="black"/>
<path d="M18.0002 7.18904C17.4479 7.18904 17.0002 7.63676 17.0002 8.18904C17.0002 8.74133 17.4479 9.18904 18.0002 9.18904H20.8573C21.4096 9.18904 21.8573 8.74133 21.8573 8.18904C21.8573 7.63676 21.4096 7.18904 20.8573 7.18904H18.0002Z" fill="black"/>
</svg>
