<svg width="24" height="24" viewBox="0 0 24 24" fill="none" xmlns="http://www.w3.org/2000/svg">
<path d="M12 3C7.30558 3 3.5 6.80558 3.5 11.5V11.75C3.5 16.5825 7.41751 20.5 12.25 20.5H17C17.2761 20.5 17.5 20.7239 17.5 21C17.5 21.2761 17.2761 21.5 17 21.5H12.25C6.86522 21.5 2.5 17.1348 2.5 11.75V11.5C2.5 6.25329 6.75329 2 12 2C17.2467 2 21.5 6.25329 21.5 11.5V13.5C21.5 15.1569 20.1569 16.5 18.5 16.5C17.6056 16.5 16.8026 16.1086 16.253 15.4877C16.475 15.2173 16.6718 14.9253 16.8396 14.6153C17.1988 15.1489 17.8084 15.5 18.5 15.5C19.6046 15.5 20.5 14.6046 20.5 13.5V11.5C20.5 6.80558 16.6944 3 12 3Z" fill="black"/>
<path fill-rule="evenodd" clip-rule="evenodd" d="M12 7.5C9.51472 7.5 7.5 9.51472 7.5 12C7.5 14.4853 9.51472 16.5 12 16.5C14.4853 16.5 16.5 14.4853 16.5 12C16.5 9.51472 14.4853 7.5 12 7.5ZM15.5 12C15.5 13.933 13.933 15.5 12 15.5C10.067 15.5 8.5 13.933 8.5 12C8.5 10.067 10.067 8.5 12 8.5C13.933 8.5 15.5 10.067 15.5 12Z" fill="black"/>
</svg>
