<svg width="24" height="24" viewBox="0 0 24 24" fill="none" xmlns="http://www.w3.org/2000/svg">
<path fill-rule="evenodd" clip-rule="evenodd" d="M3.5 11.5C3.5 6.80558 7.30558 3 12 3C16.6944 3 20.5 6.80558 20.5 11.5V13.5C20.5 14.6046 19.6046 15.5 18.5 15.5C17.3954 15.5 16.5 14.6046 16.5 13.5V12C16.5 9.51472 14.4853 7.5 12 7.5C9.51472 7.5 7.5 9.51472 7.5 12C7.5 14.4853 9.51472 16.5 12 16.5C13.5306 16.5 14.8828 15.7358 15.6957 14.5681C16.1262 15.6976 17.2194 16.5 18.5 16.5C20.1569 16.5 21.5 15.1569 21.5 13.5V11.5C21.5 6.25329 17.2467 2 12 2C6.75329 2 2.5 6.25329 2.5 11.5V11.75C2.5 17.1348 6.86522 21.5 12.25 21.5H17C17.2761 21.5 17.5 21.2761 17.5 21C17.5 20.7239 17.2761 20.5 17 20.5H12.25C7.41751 20.5 3.5 16.5825 3.5 11.75V11.5ZM15.5 12C15.5 10.067 13.933 8.5 12 8.5C10.067 8.5 8.5 10.067 8.5 12C8.5 13.933 10.067 15.5 12 15.5C13.933 15.5 15.5 13.933 15.5 12Z" fill="black"/>
</svg>
