<svg width="24" height="24" viewBox="0 0 24 24" fill="none" xmlns="http://www.w3.org/2000/svg">
<path fill-rule="evenodd" clip-rule="evenodd" d="M4 11.5C4 7.08172 7.58172 3.5 12 3.5C16.4183 3.5 20 7.08172 20 11.5V13.5C20 14.3284 19.3284 15 18.5 15C17.6716 15 17 14.3284 17 13.5V12C17 9.23858 14.7614 7 12 7C9.23858 7 7 9.23858 7 12C7 14.7614 9.23858 17 12 17C13.4158 17 14.6942 16.4115 15.6038 15.4659C16.2336 16.3918 17.2958 17 18.5 17C20.433 17 22 15.433 22 13.5V11.5C22 5.97715 17.5228 1.5 12 1.5C6.47715 1.5 2 5.97715 2 11.5V11.75C2 17.4109 6.58908 22 12.25 22H17C17.5523 22 18 21.5523 18 21C18 20.4477 17.5523 20 17 20H12.25C7.69365 20 4 16.3063 4 11.75V11.5ZM15 12C15 10.3431 13.6569 9 12 9C10.3431 9 9 10.3431 9 12C9 13.6569 10.3431 15 12 15C13.6569 15 15 13.6569 15 12Z" fill="black"/>
</svg>
