<svg width="24" height="24" viewBox="0 0 24 24" fill="none" xmlns="http://www.w3.org/2000/svg">
<path fill-rule="evenodd" clip-rule="evenodd" d="M11.0917 0.78728C11.6963 0.737899 12.3042 0.737899 12.9087 0.78728C13.1263 0.805048 13.3013 0.965402 13.3443 1.17448L13.625 2.53907C14.2038 2.63826 14.7732 2.79075 15.3245 2.99458L16.249 1.95315C16.3908 1.79341 16.6227 1.742 16.8201 1.83549C17.3679 2.09503 17.8941 2.39888 18.3933 2.74378C18.5729 2.86788 18.6445 3.09437 18.5771 3.29706L18.1381 4.61845C18.5894 4.99424 19.0063 5.41105 19.382 5.86236L20.7034 5.42336C20.9061 5.35602 21.1326 5.42756 21.2567 5.60719C21.6016 6.10639 21.9055 6.63254 22.165 7.18042C22.2585 7.37778 22.2071 7.60972 22.0473 7.75152L21.0059 8.67597C21.2097 9.22733 21.3622 9.79668 21.4614 10.3755L22.826 10.6562C23.0351 10.6992 23.1954 10.8742 23.2132 11.0918C23.2626 11.6963 23.2626 12.3042 23.2132 12.9087C23.1954 13.1262 23.0351 13.3013 22.826 13.3443L21.4614 13.625C21.3622 14.2038 21.2097 14.7732 21.0059 15.3245L22.0473 16.249C22.2071 16.3908 22.2585 16.6227 22.165 16.8201C21.9055 17.368 21.6016 17.8941 21.2567 18.3933C21.1326 18.5729 20.9061 18.6445 20.7034 18.5771L19.382 18.1381C19.0063 18.5894 18.5894 19.0063 18.1381 19.382L18.5771 20.7034C18.6445 20.9061 18.5729 21.1326 18.3933 21.2567C17.8941 21.6016 17.3679 21.9055 16.8201 22.165C16.6227 22.2585 16.3908 22.2071 16.249 22.0473L15.3245 21.0059C14.7732 21.2097 14.2038 21.3622 13.625 21.4614L13.3443 22.826C13.3013 23.0351 13.1263 23.1954 12.9087 23.2132C12.3042 23.2626 11.6963 23.2626 11.0917 23.2132C10.8742 23.1954 10.6992 23.0351 10.6562 22.826L10.3755 21.4614C9.79667 21.3622 9.22732 21.2097 8.67596 21.0059L7.75151 22.0473C7.60971 22.2071 7.37777 22.2585 7.18041 22.165C6.63254 21.9055 6.1064 21.6016 5.6072 21.2567C5.42757 21.1326 5.35603 20.9061 5.42336 20.7034L5.86236 19.382C5.41105 19.0063 4.99424 18.5894 4.61845 18.1381L3.29708 18.5771C3.09438 18.6445 2.8679 18.5729 2.74379 18.3933C2.3989 17.8941 2.09503 17.3679 1.83549 16.8201C1.742 16.6227 1.79341 16.3908 1.95315 16.249L2.99458 15.3245C2.79074 14.7732 2.63825 14.2038 2.53906 13.625L1.17448 13.3443C0.965401 13.3013 0.805048 13.1262 0.78728 12.9087C0.737899 12.3042 0.737899 11.6963 0.787281 11.0918C0.805048 10.8742 0.965401 10.6992 1.17448 10.6562L2.53906 10.3755C2.63825 9.79668 2.79074 9.22733 2.99458 8.67597L1.95315 7.75152C1.79341 7.60972 1.742 7.37778 1.83549 7.18042C2.09503 6.63254 2.3989 6.10639 2.74379 5.60719C2.8679 5.42756 3.09438 5.35602 3.29708 5.42336L4.61845 5.86236C4.99424 5.41105 5.41105 4.99423 5.86236 4.61845L5.42336 3.29706C5.35603 3.09437 5.42757 2.86788 5.6072 2.74378C6.1064 2.39888 6.63254 2.09503 7.18041 1.83549C7.37777 1.742 7.60971 1.79341 7.75151 1.95315L8.67596 2.99458C9.22732 2.79075 9.79667 2.63826 10.3755 2.53907L10.6562 1.17448C10.6992 0.965402 10.8742 0.805048 11.0917 0.78728ZM12 6.25C12.4142 6.25 12.75 6.58579 12.75 7V12.5C12.75 12.9142 12.4142 13.25 12 13.25C11.5858 13.25 11.25 12.9142 11.25 12.5V7C11.25 6.58579 11.5858 6.25 12 6.25ZM13 16C13 16.5523 12.5523 17 12 17C11.4477 17 11 16.5523 11 16C11 15.4477 11.4477 15 12 15C12.5523 15 13 15.4477 13 16Z" fill="black"/>
</svg>
