<svg width="25" height="24" viewBox="0 0 25 24" fill="none" xmlns="http://www.w3.org/2000/svg">
<path d="M11.9993 6C12.5516 6 12.9993 6.44771 12.9993 7V12.5C12.9993 13.0523 12.5516 13.5 11.9993 13.5C11.447 13.5 10.9993 13.0523 10.9993 12.5V7C10.9993 6.44771 11.447 6 11.9993 6Z" fill="black"/>
<path d="M13.2493 16C13.2493 16.6904 12.6896 17.25 11.9993 17.25C11.3089 17.25 10.7493 16.6904 10.7493 16C10.7493 15.3096 11.3089 14.75 11.9993 14.75C12.6896 14.75 13.2493 15.3096 13.2493 16Z" fill="black"/>
<path fill-rule="evenodd" clip-rule="evenodd" d="M13.5582 0.087338C12.5927 -0.0291127 11.6158 -0.0291127 10.6504 0.087338C10.004 0.165305 9.50952 0.649577 9.37885 1.25041L9.19864 2.07905C8.75023 2.20888 8.31063 2.36863 7.88296 2.55766L7.21294 2.03915C6.72715 1.6632 6.03772 1.6096 5.49244 1.96465C4.67641 2.49599 3.92787 3.12437 3.26261 3.83562C2.8181 4.31087 2.75085 4.99928 3.03682 5.54325L3.43099 6.29304C3.17111 6.68089 2.93742 7.08561 2.73169 7.50465L1.88497 7.53849C1.27109 7.56303 0.708794 7.96544 0.519538 8.58784C0.236311 9.51929 0.0663048 10.4819 0.0138952 11.4544C-0.0211214 12.1041 0.369838 12.6745 0.938307 12.9074L1.72262 13.2287C1.77269 13.693 1.85393 14.1532 1.9656 14.6065L1.33876 15.1761C0.884227 15.5891 0.711609 16.2585 0.966345 16.8571C1.34796 17.7539 1.83696 18.6006 2.42167 19.3788C2.81262 19.8992 3.47903 20.0848 4.06436 19.8975L4.87101 19.6394C5.20789 19.9631 5.56602 20.2636 5.9428 20.5391L5.82879 21.3782C5.74605 21.9871 6.04463 22.6111 6.62489 22.9057C7.49367 23.3468 8.41217 23.6812 9.36025 23.9015C9.99405 24.0487 10.6237 23.7627 10.9517 23.2433L11.404 22.527C11.8703 22.5585 12.3382 22.5585 12.8045 22.527L13.2568 23.2433C13.5849 23.7627 14.2145 24.0487 14.8483 23.9015C15.7964 23.6812 16.7149 23.3468 17.5836 22.9057C18.1639 22.6111 18.4625 21.9871 18.3797 21.3782L18.2657 20.5391C18.6425 20.2636 19.0007 19.9631 19.3375 19.6394L20.1442 19.8975C20.7295 20.0848 21.3959 19.8992 21.7869 19.3788C22.3716 18.6006 22.8606 17.7539 23.2422 16.8571C23.4969 16.2585 23.3243 15.5891 22.8698 15.1761L22.2429 14.6065C22.3546 14.1532 22.4358 13.693 22.4859 13.2287L23.2702 12.9074C23.8387 12.6745 24.2297 12.1041 24.1946 11.4544C24.1422 10.4819 23.9722 9.51929 23.689 8.58784C23.4997 7.96544 22.9375 7.56303 22.3236 7.53849L21.4769 7.50465C21.2711 7.08561 21.0374 6.68089 20.7775 6.29304L21.1717 5.54325C21.4577 4.99928 21.3904 4.31087 20.9459 3.83562C20.2807 3.12437 19.5321 2.49599 18.7161 1.96465C18.1708 1.6096 17.4814 1.6632 16.9956 2.03914L16.3256 2.55766C15.8979 2.36863 15.4583 2.20888 15.0099 2.07905L14.8297 1.25041C14.699 0.649578 14.2046 0.165305 13.5582 0.087338ZM11.0898 2.79452L11.2548 2.03562C11.82 1.98813 12.3885 1.98813 12.9537 2.03562L13.1188 2.79452C13.2443 3.3717 13.6879 3.79814 14.2231 3.93689C14.7432 4.07174 15.2491 4.25549 15.7335 4.48634C16.2326 4.72413 16.847 4.68313 17.3146 4.32122L17.9283 3.84628C18.392 4.17291 18.8274 4.53836 19.23 4.93865L18.869 5.62535C18.5943 6.1479 18.6598 6.75944 18.9802 7.20969C19.292 7.64779 19.561 8.11375 19.7836 8.6015C20.0129 9.10426 20.5096 9.46758 21.1001 9.49119L21.8758 9.52219C22.0211 10.071 22.12 10.6311 22.1712 11.1963L21.4528 11.4907C20.9059 11.7147 20.5633 12.226 20.5196 12.7769C20.4773 13.3117 20.3838 13.8413 20.2405 14.3594C20.0933 14.8923 20.2409 15.4896 20.678 15.8868L21.2522 16.4086C21.0111 16.9223 20.7269 17.4146 20.4028 17.8803L19.6639 17.6439C19.1007 17.4637 18.5092 17.6352 18.1215 18.0295C17.7451 18.4123 17.3328 18.7582 16.8905 19.0628C16.4354 19.3763 16.1644 19.9287 16.2439 20.5139L16.3484 21.2824C15.833 21.521 15.2986 21.7155 14.7512 21.8639L14.3368 21.2078C14.0211 20.7078 13.4577 20.4592 12.9073 20.5121C12.3732 20.5635 11.8354 20.5635 11.3012 20.5121C10.7508 20.4592 10.1875 20.7078 9.87176 21.2078L9.45738 21.8639C8.9099 21.7155 8.37558 21.521 7.86018 21.2824L7.9646 20.5139C8.04412 19.9287 7.77317 19.3763 7.318 19.0628C6.87572 18.7582 6.46341 18.4123 6.08703 18.0295C5.69932 17.6352 5.10782 17.4637 4.54464 17.6439L3.80576 17.8803C3.48167 17.4146 3.19742 16.9223 2.95631 16.4086L3.53055 15.8868C3.96769 15.4896 4.11528 14.8923 3.96799 14.3594C3.82477 13.8413 3.73125 13.3117 3.68889 12.7769C3.64525 12.226 3.30262 11.7147 2.75577 11.4907L2.03739 11.1963C2.08855 10.6311 2.18741 10.071 2.33279 9.52219L3.1084 9.49119C3.69889 9.46758 4.19563 9.10426 4.42499 8.6015C4.6475 8.11375 4.91656 7.64779 5.22831 7.20968C5.5487 6.75944 5.61422 6.1479 5.33951 5.62535L4.97851 4.93865C5.38111 4.53836 5.81653 4.17291 6.28023 3.84628L6.89394 4.32122C7.36158 4.68312 7.97597 4.72413 8.475 4.48634C8.95948 4.25549 9.46533 4.07174 9.98544 3.93689C10.5206 3.79814 10.9643 3.3717 11.0898 2.79452Z" fill="black"/>
</svg>
