<svg width="25" height="24" viewBox="0 0 25 24" fill="none" xmlns="http://www.w3.org/2000/svg">
<path d="M12 6C12.5523 6 13 6.44771 13 7V12.5C13 13.0523 12.5523 13.5 12 13.5C11.4477 13.5 11 13.0523 11 12.5V7C11 6.44771 11.4477 6 12 6Z" fill="black"/>
<path d="M13.25 16C13.25 16.6904 12.6904 17.25 12 17.25C11.3097 17.25 10.75 16.6904 10.75 16C10.75 15.3096 11.3097 14.75 12 14.75C12.6904 14.75 13.25 15.3096 13.25 16Z" fill="black"/>
<path fill-rule="evenodd" clip-rule="evenodd" d="M13.5589 0.087338C12.5935 -0.0291127 11.6165 -0.0291127 10.6511 0.087338C10.0047 0.165305 9.51025 0.649577 9.37958 1.25041L9.19937 2.07905C8.75096 2.20888 8.31136 2.36863 7.88369 2.55766L7.21368 2.03915C6.72788 1.6632 6.03846 1.6096 5.49317 1.96465C4.67714 2.49599 3.9286 3.12437 3.26334 3.83562C2.81883 4.31087 2.75158 4.99928 3.03755 5.54325L3.43173 6.29304C3.17184 6.68089 2.93815 7.08561 2.73242 7.50465L1.8857 7.53849C1.27182 7.56303 0.709526 7.96544 0.520271 8.58784C0.237043 9.51929 0.0670372 10.4819 0.0146276 11.4544C-0.020389 12.1041 0.370571 12.6745 0.93904 12.9074L1.72335 13.2287C1.77342 13.693 1.85466 14.1532 1.96633 14.6065L1.33949 15.1761C0.88496 15.5891 0.712341 16.2585 0.967078 16.8571C1.34869 17.7539 1.83769 18.6006 2.42241 19.3788C2.81335 19.8992 3.47976 20.0848 4.06509 19.8975L4.87174 19.6394C5.20862 19.9631 5.56675 20.2636 5.94354 20.5391L5.82952 21.3782C5.74678 21.9871 6.04536 22.6111 6.62563 22.9057C7.4944 23.3468 8.4129 23.6812 9.36099 23.9015C9.99478 24.0487 10.6244 23.7627 10.9524 23.2433L11.4048 22.527C11.8711 22.5585 12.3389 22.5585 12.8052 22.527L13.2576 23.2433C13.5856 23.7627 14.2152 24.0487 14.849 23.9015C15.7971 23.6812 16.7156 23.3468 17.5844 22.9057C18.1646 22.6111 18.4632 21.9871 18.3805 21.3782L18.2665 20.5391C18.6433 20.2636 19.0014 19.9631 19.3383 19.6394L20.1449 19.8975C20.7302 20.0848 21.3967 19.8992 21.7876 19.3788C22.3723 18.6006 22.8613 17.7539 23.2429 16.8571C23.4977 16.2585 23.325 15.5891 22.8705 15.1761L22.2437 14.6065C22.3553 14.1532 22.4366 13.693 22.4867 13.2287L23.271 12.9074C23.8394 12.6745 24.2304 12.1041 24.1954 11.4544C24.143 10.4819 23.973 9.51929 23.6897 8.58784C23.5005 7.96544 22.9382 7.56303 22.3243 7.53849L21.4776 7.50465C21.2719 7.08561 21.0382 6.68089 20.7783 6.29304L21.1725 5.54325C21.4584 4.99928 21.3912 4.31087 20.9467 3.83562C20.2814 3.12437 19.5329 2.49599 18.7168 1.96465C18.1716 1.6096 17.4821 1.6632 16.9963 2.03914L16.3263 2.55766C15.8986 2.36863 15.459 2.20888 15.0106 2.07905L14.8304 1.25041C14.6998 0.649578 14.2053 0.165305 13.5589 0.087338ZM11.0905 2.79452L11.2556 2.03562C11.8207 1.98813 12.3893 1.98813 12.9544 2.03562L13.1195 2.79452C13.245 3.3717 13.6887 3.79814 14.2238 3.93689C14.7439 4.07174 15.2498 4.25549 15.7343 4.48634C16.2333 4.72413 16.8477 4.68313 17.3153 4.32122L17.929 3.84628C18.3927 4.17291 18.8282 4.53836 19.2308 4.93865L18.8698 5.62535C18.595 6.1479 18.6606 6.75944 18.981 7.20969C19.2927 7.64779 19.5618 8.11375 19.7843 8.6015C20.0136 9.10426 20.5104 9.46758 21.1009 9.49119L21.8765 9.52219C22.0219 10.071 22.1207 10.6311 22.1719 11.1963L21.4535 11.4907C20.9067 11.7147 20.564 12.226 20.5204 12.7769C20.478 13.3117 20.3845 13.8413 20.2413 14.3594C20.094 14.8923 20.2416 15.4896 20.6787 15.8868L21.253 16.4086C21.0118 16.9223 20.7276 17.4146 20.4035 17.8803L19.6646 17.6439C19.1015 17.4637 18.51 17.6352 18.1222 18.0295C17.7459 18.4123 17.3336 18.7582 16.8913 19.0628C16.4361 19.3763 16.1652 19.9287 16.2447 20.5139L16.3491 21.2824C15.8337 21.521 15.2994 21.7155 14.7519 21.8639L14.3375 21.2078C14.0218 20.7078 13.4584 20.4592 12.9081 20.5121C12.3739 20.5635 11.8361 20.5635 11.3019 20.5121C10.7516 20.4592 10.1882 20.7078 9.87249 21.2078L9.45811 21.8639C8.91063 21.7155 8.37631 21.521 7.86091 21.2824L7.96533 20.5139C8.04485 19.9287 7.77391 19.3763 7.31873 19.0628C6.87645 18.7582 6.46415 18.4123 6.08776 18.0295C5.70005 17.6352 5.10855 17.4637 4.54537 17.6439L3.8065 17.8803C3.4824 17.4146 3.19816 16.9223 2.95704 16.4086L3.53128 15.8868C3.96842 15.4896 4.11601 14.8923 3.96872 14.3594C3.8255 13.8413 3.73199 13.3117 3.68962 12.7769C3.64598 12.226 3.30335 11.7147 2.7565 11.4907L2.03812 11.1963C2.08928 10.6311 2.18815 10.071 2.33352 9.52219L3.10913 9.49119C3.69963 9.46758 4.19636 9.10426 4.42572 8.6015C4.64823 8.11375 4.91729 7.64779 5.22904 7.20968C5.54943 6.75944 5.61496 6.1479 5.34024 5.62535L4.97924 4.93865C5.38184 4.53836 5.81727 4.17291 6.28096 3.84628L6.89467 4.32122C7.36231 4.68312 7.9767 4.72413 8.47573 4.48634C8.96021 4.25549 9.46606 4.07174 9.98617 3.93689C10.5213 3.79814 10.965 3.3717 11.0905 2.79452Z" fill="black"/>
</svg>
