<svg width="24" height="24" viewBox="0 0 24 24" fill="none" xmlns="http://www.w3.org/2000/svg">
<path d="M11.9998 6.5C12.2759 6.5 12.4998 6.72386 12.4998 7V12.5C12.4998 12.7761 12.2759 13 11.9998 13C11.7236 13 11.4998 12.7761 11.4998 12.5V7C11.4998 6.72386 11.7236 6.5 11.9998 6.5Z" fill="black"/>
<path d="M12.7498 16C12.7498 16.4142 12.414 16.75 11.9998 16.75C11.5855 16.75 11.2498 16.4142 11.2498 16C11.2498 15.5858 11.5855 15.25 11.9998 15.25C12.414 15.25 12.7498 15.5858 12.7498 16Z" fill="black"/>
<path fill-rule="evenodd" clip-rule="evenodd" d="M12.9289 0.53811C12.3107 0.487622 11.6893 0.487622 11.0711 0.53811C10.7406 0.565113 10.476 0.808608 10.4111 1.12412L10.1645 2.32306C9.68461 2.41395 9.21169 2.54063 8.75033 2.70206L7.93824 1.78719C7.72425 1.54613 7.37309 1.46747 7.07314 1.60956C6.51301 1.87491 5.97514 2.18554 5.46485 2.53809C5.19186 2.72669 5.08425 3.07001 5.18587 3.37588L5.5716 4.53695C5.20177 4.85587 4.85562 5.20201 4.53671 5.57184L3.37565 5.18611C3.06978 5.08449 2.72647 5.1921 2.53786 5.46509C2.18531 5.97538 1.87467 6.51326 1.60932 7.07339C1.46722 7.37334 1.54588 7.7245 1.78694 7.93849L2.70181 8.75059C2.54038 9.21195 2.41369 9.68487 2.32281 10.1647L1.12387 10.4113C0.808362 10.4762 0.564869 10.7408 0.537866 11.0714C0.487378 11.6895 0.487378 12.311 0.537866 12.9291C0.564869 13.2597 0.808364 13.5243 1.12387 13.5892L2.32281 13.8358C2.41369 14.3156 2.54038 14.7885 2.70181 15.2499L1.78694 16.062C1.54588 16.276 1.46722 16.6272 1.60932 16.9271C1.87467 17.4872 2.18531 18.0251 2.53786 18.5354C2.72647 18.8084 3.06978 18.916 3.37565 18.8144L4.53671 18.4286C4.85562 18.7985 5.20177 19.1446 5.5716 19.4635L5.18587 20.6246C5.08425 20.9305 5.19186 21.2738 5.46485 21.4624C5.97514 21.815 6.51301 22.1256 7.07314 22.3909C7.37309 22.533 7.72425 22.4544 7.93823 22.2133L8.75033 21.2984C9.21169 21.4599 9.68462 21.5865 10.1645 21.6774L10.4111 22.8764C10.476 23.1919 10.7406 23.4354 11.0711 23.4624C11.6893 23.5129 12.3107 23.5129 12.9289 23.4624C13.2594 23.4354 13.524 23.1919 13.5889 22.8764L13.8355 21.6774C14.3154 21.5865 14.7883 21.4599 15.2497 21.2984L16.0618 22.2133C16.2757 22.4544 16.6269 22.533 16.9269 22.3909C17.487 22.1256 18.0249 21.815 18.5351 21.4624C18.8081 21.2738 18.9157 20.9305 18.8141 20.6246L18.4284 19.4635C18.7982 19.1446 19.1444 18.7985 19.4633 18.4286L20.6243 18.8144C20.9302 18.916 21.2735 18.8084 21.4621 18.5354C21.8147 18.0251 22.1253 17.4872 22.3907 16.9271C22.5328 16.6272 22.4541 16.276 22.2131 16.062L21.2982 15.2499C21.4596 14.7885 21.5863 14.3156 21.6772 13.8358L22.8761 13.5892C23.1916 13.5243 23.4351 13.2597 23.4621 12.9291C23.5126 12.311 23.5126 11.6895 23.4621 11.0714C23.4351 10.7408 23.1916 10.4762 22.8761 10.4113L21.6772 10.1647C21.5863 9.68487 21.4596 9.21195 21.2982 8.75059L22.2131 7.93849C22.4541 7.7245 22.5328 7.37334 22.3907 7.07339C22.1253 6.51326 21.8147 5.97538 21.4621 5.46509C21.2735 5.1921 20.9302 5.08449 20.6243 5.18611L19.4633 5.57184C19.1444 5.20201 18.7982 4.85587 18.4284 4.53695L18.8141 3.37588C18.9157 3.07001 18.8081 2.72669 18.5351 2.53809C18.0249 2.18554 17.487 1.87491 16.9269 1.60956C16.6269 1.46747 16.2757 1.54613 16.0618 1.78719L15.2497 2.70206C14.7883 2.54063 14.3154 2.41395 13.8355 2.32306L13.5889 1.12412C13.524 0.808609 13.2594 0.565113 12.9289 0.53811ZM11.1087 2.6959L11.3505 1.52052C11.783 1.49348 12.217 1.49348 12.6495 1.52052L12.8913 2.69591C12.954 3.00072 13.1981 3.22702 13.4947 3.27772C14.0304 3.36931 14.5573 3.51044 15.0674 3.69923C15.3497 3.80372 15.6746 3.72975 15.8813 3.49686L16.6774 2.60001C17.0653 2.79288 17.441 3.00985 17.8024 3.24955L17.4243 4.38757C17.3263 4.68256 17.4242 5.00034 17.6553 5.19261C18.0735 5.54055 18.4597 5.92671 18.8076 6.3449C18.9999 6.576 19.3177 6.67396 19.6127 6.57596L20.7507 6.19788C20.9904 6.55926 21.2074 6.93498 21.4002 7.32286L20.5034 8.11897C20.2705 8.3257 20.1965 8.65054 20.301 8.93286C20.4898 9.44292 20.6309 9.96982 20.7225 10.5056C20.7732 10.8021 20.9995 11.0463 21.3043 11.109L22.4797 11.3507C22.5068 11.7833 22.5068 12.2172 22.4797 12.6498L21.3043 12.8915C20.9995 12.9542 20.7732 13.1984 20.7225 13.4949C20.6309 14.0307 20.4898 14.5576 20.301 15.0676C20.1965 15.3499 20.2705 15.6748 20.5034 15.8815L21.4002 16.6776C21.2074 17.0655 20.9904 17.4412 20.7507 17.8026L19.6127 17.4245C19.3177 17.3265 18.9999 17.4245 18.8076 17.6556C18.4597 18.0738 18.0735 18.4599 17.6553 18.8079C17.4242 19.0001 17.3263 19.3179 17.4243 19.6129L17.8024 20.7509C17.441 20.9906 17.0653 21.2076 16.6774 21.4005L15.8813 20.5036C15.6746 20.2707 15.3497 20.1968 15.0674 20.3013C14.5574 20.4901 14.0304 20.6312 13.4947 20.7228C13.1981 20.7735 12.954 20.9998 12.8913 21.3046L12.6495 22.48C12.217 22.507 11.783 22.507 11.3505 22.48L11.1087 21.3046C11.046 20.9998 10.8019 20.7735 10.5053 20.7228C9.96956 20.6312 9.44265 20.4901 8.93259 20.3013C8.65028 20.1968 8.32544 20.2707 8.11871 20.5036L7.32261 21.4005C6.93473 21.2076 6.55901 20.9906 6.19764 20.7509L6.57572 19.6129C6.67371 19.3179 6.57576 19.0001 6.34466 18.8079C5.92647 18.4599 5.5403 18.0738 5.19237 17.6556C5.0001 17.4245 4.68231 17.3265 4.38733 17.4245L3.24932 17.8026C3.00961 17.4412 2.79264 17.0655 2.59976 16.6776L3.49661 15.8815C3.7295 15.6748 3.80347 15.3499 3.69897 15.0676C3.51019 14.5576 3.36906 14.0307 3.27746 13.4949C3.22677 13.1984 3.00046 12.9542 2.69565 12.8915L1.52028 12.6498C1.49324 12.2172 1.49324 11.7833 1.52028 11.3507L2.69566 11.109C3.00046 11.0463 3.22677 10.8021 3.27746 10.5056C3.36906 9.96982 3.51018 9.44292 3.69897 8.93286C3.80347 8.65055 3.7295 8.3257 3.49661 8.11897L2.59976 7.32286C2.79264 6.93498 3.00961 6.55926 3.24932 6.19788L4.38732 6.57596C4.68231 6.67396 5.0001 6.576 5.19237 6.3449C5.5403 5.92671 5.92647 5.54055 6.34466 5.19261C6.57576 5.00034 6.67371 4.68256 6.57572 4.38757L6.19764 3.24955C6.55901 3.00985 6.93473 2.79288 7.3226 2.60001L8.11871 3.49686C8.32544 3.72975 8.65028 3.80372 8.93259 3.69923C9.44266 3.51044 9.96957 3.36931 10.5053 3.27772C10.8019 3.22702 11.046 3.00071 11.1087 2.6959Z" fill="black"/>
</svg>
