<svg width="24" height="24" viewBox="0 0 24 24" fill="none" xmlns="http://www.w3.org/2000/svg">
<path d="M12 6.7C12.1657 6.7 12.3 6.83431 12.3 7V12.5C12.3 12.6657 12.1657 12.8 12 12.8C11.8343 12.8 11.7 12.6657 11.7 12.5V7C11.7 6.83431 11.8343 6.7 12 6.7Z" fill="black"/>
<path d="M12.5 16C12.5 16.2761 12.2761 16.5 12 16.5C11.7239 16.5 11.5 16.2761 11.5 16C11.5 15.7239 11.7239 15.5 12 15.5C12.2761 15.5 12.5 15.7239 12.5 16Z" fill="black"/>
<path fill-rule="evenodd" clip-rule="evenodd" d="M12.9087 0.78728C12.3042 0.737899 11.6963 0.737899 11.0917 0.78728C10.8742 0.805048 10.6992 0.965402 10.6562 1.17448L10.3755 2.53907C9.79667 2.63826 9.22732 2.79075 8.67596 2.99458L7.75151 1.95315C7.60971 1.79341 7.37777 1.742 7.18041 1.83549C6.63254 2.09503 6.1064 2.39888 5.6072 2.74378C5.42757 2.86788 5.35603 3.09437 5.42336 3.29706L5.86236 4.61845C5.41105 4.99423 4.99424 5.41105 4.61845 5.86236L3.29708 5.42336C3.09438 5.35602 2.8679 5.42756 2.74379 5.60719C2.3989 6.10639 2.09503 6.63254 1.83549 7.18042C1.742 7.37778 1.79341 7.60972 1.95315 7.75152L2.99458 8.67597C2.79074 9.22733 2.63825 9.79668 2.53906 10.3755L1.17448 10.6562C0.965401 10.6992 0.805048 10.8742 0.787281 11.0918C0.737899 11.6963 0.737899 12.3042 0.78728 12.9087C0.805048 13.1262 0.965401 13.3013 1.17448 13.3443L2.53906 13.625C2.63825 14.2038 2.79074 14.7732 2.99458 15.3245L1.95315 16.249C1.79341 16.3908 1.742 16.6227 1.83549 16.8201C2.09503 17.3679 2.3989 17.8941 2.74379 18.3933C2.8679 18.5729 3.09438 18.6445 3.29708 18.5771L4.61845 18.1381C4.99424 18.5894 5.41105 19.0063 5.86236 19.382L5.42336 20.7034C5.35603 20.9061 5.42757 21.1326 5.6072 21.2567C6.1064 21.6016 6.63254 21.9055 7.18041 22.165C7.37777 22.2585 7.60971 22.2071 7.75151 22.0473L8.67596 21.0059C9.22732 21.2097 9.79667 21.3622 10.3755 21.4614L10.6562 22.826C10.6992 23.0351 10.8742 23.1954 11.0917 23.2132C11.6963 23.2626 12.3042 23.2626 12.9087 23.2132C13.1263 23.1954 13.3013 23.0351 13.3443 22.826L13.625 21.4614C14.2038 21.3622 14.7732 21.2097 15.3245 21.0059L16.249 22.0473C16.3908 22.2071 16.6227 22.2585 16.8201 22.165C17.3679 21.9055 17.8941 21.6016 18.3933 21.2567C18.5729 21.1326 18.6445 20.9061 18.5771 20.7034L18.1381 19.382C18.5894 19.0063 19.0063 18.5894 19.382 18.1381L20.7034 18.5771C20.9061 18.6445 21.1326 18.5729 21.2567 18.3933C21.6016 17.8941 21.9055 17.368 22.165 16.8201C22.2585 16.6227 22.2071 16.3908 22.0473 16.249L21.0059 15.3245C21.2097 14.7732 21.3622 14.2038 21.4614 13.625L22.826 13.3443C23.0351 13.3013 23.1954 13.1262 23.2132 12.9087C23.2626 12.3042 23.2626 11.6963 23.2132 11.0918C23.1954 10.8742 23.0351 10.6992 22.826 10.6562L21.4614 10.3755C21.3622 9.79668 21.2097 9.22733 21.0059 8.67597L22.0473 7.75152C22.2071 7.60972 22.2585 7.37778 22.165 7.18042C21.9055 6.63254 21.6016 6.10639 21.2567 5.60719C21.1326 5.42756 20.9061 5.35602 20.7034 5.42336L19.382 5.86236C19.0063 5.41105 18.5894 4.99424 18.1381 4.61845L18.5771 3.29706C18.6445 3.09437 18.5729 2.86788 18.3933 2.74378C17.8941 2.39888 17.3679 2.09503 16.8201 1.83549C16.6227 1.742 16.3908 1.79341 16.249 1.95315L15.3245 2.99458C14.7732 2.79075 14.2038 2.63826 13.625 2.53907L13.3443 1.17448C13.3013 0.965402 13.1263 0.805048 12.9087 0.78728ZM10.8641 2.64554L11.144 1.28469C11.7138 1.23876 12.2867 1.23876 12.8565 1.28469L13.1364 2.64554C13.1778 2.84696 13.3395 2.99751 13.5371 3.03129C14.088 3.12548 14.6299 3.27061 15.1544 3.46477C15.3425 3.5344 15.558 3.48479 15.6946 3.33089L16.6165 2.29232C17.1326 2.5375 17.6286 2.82392 18.0996 3.14859L17.6618 4.46639C17.597 4.66132 17.6615 4.87233 17.8155 5.00043C18.2454 5.35812 18.6424 5.75509 19.0001 6.18501C19.1282 6.33898 19.3392 6.40347 19.5341 6.33871L20.8519 5.9009C21.1766 6.37192 21.463 6.8679 21.7082 7.38402L20.6696 8.30593C20.5157 8.44254 20.4661 8.65796 20.5357 8.84608C20.7299 9.37065 20.875 9.9125 20.9692 10.4634C21.003 10.661 21.1535 10.8227 21.355 10.8641L22.7158 11.144C22.7617 11.7138 22.7617 12.2867 22.7158 12.8565L21.355 13.1364C21.1535 13.1778 21.003 13.3395 20.9692 13.537C20.875 14.088 20.7299 14.6298 20.5357 15.1544C20.4661 15.3425 20.5157 15.5579 20.6696 15.6946L21.7082 16.6165C21.463 17.1326 21.1766 17.6286 20.8519 18.0996L19.5341 17.6618C19.3392 17.597 19.1282 17.6615 19.0001 17.8155C18.6424 18.2454 18.2454 18.6424 17.8155 19.0001C17.6615 19.1282 17.597 19.3392 17.6618 19.5341L18.0996 20.8519C17.6286 21.1766 17.1326 21.463 16.6165 21.7082L15.6946 20.6696C15.558 20.5157 15.3425 20.4661 15.1544 20.5357C14.6299 20.7299 14.088 20.875 13.5371 20.9692C13.3395 21.003 13.1778 21.1535 13.1364 21.3549L12.8565 22.7158C12.2867 22.7617 11.7138 22.7617 11.144 22.7158L10.8641 21.3549C10.8227 21.1535 10.661 21.003 10.4634 20.9692C9.91249 20.875 9.37063 20.7299 8.84606 20.5357C8.65795 20.4661 8.44252 20.5157 8.30592 20.6696L7.38401 21.7082C6.86789 21.463 6.37192 21.1766 5.90091 20.8519L6.33871 19.5341C6.40347 19.3392 6.33898 19.1282 6.18501 19.0001C5.75509 18.6424 5.35812 18.2454 5.00043 17.8155C4.87233 17.6615 4.66132 17.597 4.46639 17.6618L3.1486 18.0996C2.82393 17.6286 2.5375 17.1326 2.29232 16.6165L3.33089 15.6946C3.48478 15.5579 3.53439 15.3425 3.46476 15.1544C3.2706 14.6298 3.12547 14.088 3.03128 13.537C2.9975 13.3395 2.84695 13.1778 2.64553 13.1364L1.28469 12.8565C1.23876 12.2867 1.23876 11.7138 1.28469 11.144L2.64554 10.8641C2.84695 10.8227 2.9975 10.661 3.03128 10.4634C3.12547 9.9125 3.2706 9.37065 3.46476 8.84608C3.53439 8.65796 3.48478 8.44254 3.33089 8.30593L2.29232 7.38402C2.5375 6.8679 2.82393 6.37192 3.1486 5.9009L4.46639 6.33871C4.66131 6.40347 4.87233 6.33898 5.00043 6.18501C5.35812 5.75509 5.75509 5.35812 6.18501 5.00043C6.33898 4.87233 6.40347 4.66132 6.33871 4.46639L5.90091 3.14859C6.37192 2.82392 6.86789 2.5375 7.38401 2.29232L8.30592 3.33089C8.44252 3.48479 8.65795 3.5344 8.84606 3.46477C9.37063 3.27061 9.91249 3.12548 10.4634 3.03129C10.661 2.99751 10.8227 2.84696 10.8641 2.64554Z" fill="black"/>
</svg>
