<svg width="24" height="24" viewBox="0 0 24 24" fill="none" xmlns="http://www.w3.org/2000/svg">
<path d="M11.9998 6.7C12.1654 6.7 12.2998 6.83431 12.2998 7V12.5C12.2998 12.6657 12.1654 12.8 11.9998 12.8C11.8341 12.8 11.6998 12.6657 11.6998 12.5V7C11.6998 6.83431 11.8341 6.7 11.9998 6.7Z" fill="black"/>
<path d="M12.4998 16C12.4998 16.2761 12.2759 16.5 11.9998 16.5C11.7236 16.5 11.4998 16.2761 11.4998 16C11.4998 15.7239 11.7236 15.5 11.9998 15.5C12.2759 15.5 12.4998 15.7239 12.4998 16Z" fill="black"/>
<path fill-rule="evenodd" clip-rule="evenodd" d="M12.9085 0.78728C12.3039 0.737899 11.6961 0.737899 11.0915 0.78728C10.874 0.805048 10.6989 0.965402 10.6559 1.17448L10.3753 2.53907C9.79643 2.63826 9.22707 2.79075 8.67571 2.99458L7.75127 1.95315C7.60947 1.79341 7.37753 1.742 7.18017 1.83549C6.63229 2.09503 6.10616 2.39888 5.60695 2.74378C5.42733 2.86788 5.35578 3.09437 5.42312 3.29706L5.86211 4.61845C5.4108 4.99423 4.99399 5.41105 4.61821 5.86236L3.29683 5.42336C3.09414 5.35602 2.86765 5.42756 2.74355 5.60719C2.39865 6.10639 2.09479 6.63254 1.83525 7.18042C1.74175 7.37778 1.79316 7.60972 1.95291 7.75152L2.99433 8.67597C2.7905 9.22733 2.63801 9.79668 2.53881 10.3755L1.17424 10.6562C0.965157 10.6992 0.804804 10.8742 0.787036 11.0918C0.737655 11.6963 0.737655 12.3042 0.787036 12.9087C0.804804 13.1262 0.965157 13.3013 1.17424 13.3443L2.53881 13.625C2.63801 14.2038 2.7905 14.7732 2.99433 15.3245L1.95291 16.249C1.79316 16.3908 1.74175 16.6227 1.83525 16.8201C2.09479 17.3679 2.39865 17.8941 2.74355 18.3933C2.86765 18.5729 3.09414 18.6445 3.29683 18.5771L4.61821 18.1381C4.99399 18.5894 5.4108 19.0063 5.86211 19.382L5.42312 20.7034C5.35578 20.9061 5.42733 21.1326 5.60695 21.2567C6.10616 21.6016 6.63229 21.9055 7.18017 22.165C7.37753 22.2585 7.60947 22.2071 7.75127 22.0473L8.67571 21.0059C9.22707 21.2097 9.79643 21.3622 10.3753 21.4614L10.6559 22.826C10.6989 23.0351 10.874 23.1954 11.0915 23.2132C11.6961 23.2626 12.3039 23.2626 12.9085 23.2132C13.126 23.1954 13.3011 23.0351 13.3441 22.826L13.6247 21.4614C14.2036 21.3622 14.7729 21.2097 15.3243 21.0059L16.2487 22.0473C16.3905 22.2071 16.6225 22.2585 16.8198 22.165C17.3677 21.9055 17.8938 21.6016 18.393 21.2567C18.5727 21.1326 18.6442 20.9061 18.5769 20.7034L18.1379 19.382C18.5892 19.0063 19.006 18.5894 19.3818 18.1381L20.7032 18.5771C20.9059 18.6445 21.1323 18.5729 21.2565 18.3933C21.6013 17.8941 21.9052 17.368 22.1648 16.8201C22.2582 16.6227 22.2068 16.3908 22.0471 16.249L21.0057 15.3245C21.2095 14.7732 21.362 14.2038 21.4612 13.625L22.8258 13.3443C23.0348 13.3013 23.1952 13.1262 23.213 12.9087C23.2623 12.3042 23.2623 11.6963 23.213 11.0918C23.1952 10.8742 23.0348 10.6992 22.8258 10.6562L21.4612 10.3755C21.362 9.79668 21.2095 9.22733 21.0057 8.67597L22.0471 7.75152C22.2068 7.60972 22.2582 7.37778 22.1648 7.18042C21.9052 6.63254 21.6013 6.10639 21.2565 5.60719C21.1323 5.42756 20.9059 5.35602 20.7032 5.42336L19.3818 5.86236C19.006 5.41105 18.5892 4.99424 18.1379 4.61845L18.5769 3.29706C18.6442 3.09437 18.5727 2.86788 18.393 2.74378C17.8938 2.39888 17.3677 2.09503 16.8198 1.83549C16.6225 1.742 16.3905 1.79341 16.2487 1.95315L15.3243 2.99458C14.7729 2.79075 14.2036 2.63826 13.6247 2.53907L13.3441 1.17448C13.3011 0.965402 13.126 0.805048 12.9085 0.78728ZM10.8638 2.64554L11.1437 1.28469C11.7136 1.23876 12.2864 1.23876 12.8563 1.28469L13.1362 2.64554C13.1776 2.84696 13.3392 2.99751 13.5368 3.03129C14.0878 3.12548 14.6296 3.27061 15.1542 3.46477C15.3423 3.5344 15.5577 3.48479 15.6943 3.33089L16.6162 2.29232C17.1324 2.5375 17.6283 2.82392 18.0993 3.14859L17.6615 4.46639C17.5968 4.66132 17.6613 4.87233 17.8152 5.00043C18.2451 5.35812 18.6421 5.75509 18.9998 6.18501C19.1279 6.33898 19.3389 6.40347 19.5339 6.33871L20.8516 5.9009C21.1763 6.37192 21.4627 6.8679 21.7079 7.38402L20.6694 8.30593C20.5155 8.44254 20.4659 8.65796 20.5355 8.84608C20.7296 9.37065 20.8748 9.9125 20.969 10.4634C21.0027 10.661 21.1533 10.8227 21.3547 10.8641L22.7156 11.144C22.7615 11.7138 22.7615 12.2867 22.7156 12.8565L21.3547 13.1364C21.1533 13.1778 21.0027 13.3395 20.969 13.537C20.8748 14.088 20.7296 14.6298 20.5355 15.1544C20.4659 15.3425 20.5155 15.5579 20.6694 15.6946L21.7079 16.6165C21.4627 17.1326 21.1763 17.6286 20.8516 18.0996L19.5339 17.6618C19.3389 17.597 19.1279 17.6615 18.9998 17.8155C18.6421 18.2454 18.2451 18.6424 17.8152 19.0001C17.6613 19.1282 17.5968 19.3392 17.6615 19.5341L18.0993 20.8519C17.6283 21.1766 17.1324 21.463 16.6162 21.7082L15.6943 20.6696C15.5577 20.5157 15.3423 20.4661 15.1542 20.5357C14.6296 20.7299 14.0878 20.875 13.5368 20.9692C13.3392 21.003 13.1776 21.1535 13.1362 21.3549L12.8563 22.7158C12.2864 22.7617 11.7136 22.7617 11.1437 22.7158L10.8638 21.3549C10.8224 21.1535 10.6608 21.003 10.4632 20.9692C9.91224 20.875 9.37038 20.7299 8.84581 20.5357C8.6577 20.4661 8.44228 20.5157 8.30567 20.6696L7.38376 21.7082C6.86765 21.463 6.37168 21.1766 5.90067 20.8519L6.33847 19.5341C6.40322 19.3392 6.33874 19.1282 6.18477 19.0001C5.75485 18.6424 5.35788 18.2454 5.00019 17.8155C4.87208 17.6615 4.66107 17.597 4.46615 17.6618L3.14836 18.0996C2.82368 17.6286 2.53726 17.1326 2.29207 16.6165L3.33065 15.6946C3.48454 15.5579 3.53415 15.3425 3.46452 15.1544C3.27036 14.6298 3.12523 14.088 3.03104 13.537C2.99726 13.3395 2.8467 13.1778 2.64529 13.1364L1.28444 12.8565C1.23852 12.2867 1.23852 11.7138 1.28444 11.144L2.64529 10.8641C2.84671 10.8227 2.99726 10.661 3.03104 10.4634C3.12523 9.9125 3.27036 9.37065 3.46452 8.84608C3.53415 8.65796 3.48454 8.44254 3.33065 8.30593L2.29207 7.38402C2.53726 6.8679 2.82369 6.37192 3.14836 5.9009L4.46614 6.33871C4.66107 6.40347 4.87208 6.33898 5.00019 6.18501C5.35788 5.75509 5.75485 5.35812 6.18477 5.00043C6.33874 4.87233 6.40322 4.66132 6.33847 4.46639L5.90067 3.14859C6.37168 2.82392 6.86765 2.5375 7.38376 2.29232L8.30567 3.33089C8.44228 3.48479 8.6577 3.5344 8.84582 3.46477C9.37039 3.27061 9.91225 3.12548 10.4632 3.03129C10.6608 2.99751 10.8224 2.84696 10.8638 2.64554Z" fill="black"/>
</svg>
