<svg width="24" height="24" viewBox="0 0 24 24" fill="none" xmlns="http://www.w3.org/2000/svg">
<path d="M12 6.5C12.2761 6.5 12.5 6.72386 12.5 7V12.5C12.5 12.7761 12.2761 13 12 13C11.7239 13 11.5 12.7761 11.5 12.5V7C11.5 6.72386 11.7239 6.5 12 6.5Z" fill="black"/>
<path d="M12.75 16C12.75 16.4142 12.4142 16.75 12 16.75C11.5858 16.75 11.25 16.4142 11.25 16C11.25 15.5858 11.5858 15.25 12 15.25C12.4142 15.25 12.75 15.5858 12.75 16Z" fill="black"/>
<path fill-rule="evenodd" clip-rule="evenodd" d="M12.9291 0.53811C12.311 0.487622 11.6895 0.487622 11.0714 0.53811C10.7408 0.565113 10.4762 0.808608 10.4113 1.12412L10.1647 2.32306C9.68486 2.41395 9.21193 2.54063 8.75058 2.70206L7.93848 1.78719C7.7245 1.54613 7.37333 1.46747 7.07338 1.60956C6.51325 1.87491 5.97538 2.18554 5.46509 2.53809C5.19211 2.72669 5.0845 3.07001 5.18611 3.37588L5.57185 4.53695C5.20201 4.85587 4.85587 5.20201 4.53695 5.57184L3.3759 5.18611C3.07003 5.08449 2.72671 5.1921 2.53811 5.46509C2.18555 5.97538 1.87491 6.51326 1.60956 7.07339C1.46747 7.37334 1.54613 7.7245 1.78719 7.93849L2.70205 8.75059C2.54062 9.21195 2.41394 9.68487 2.32306 10.1647L1.12412 10.4113C0.808607 10.4762 0.565113 10.7408 0.53811 11.0714C0.487622 11.6895 0.487622 12.311 0.53811 12.9291C0.565113 13.2597 0.808608 13.5243 1.12412 13.5892L2.32306 13.8358C2.41394 14.3156 2.54062 14.7885 2.70205 15.2499L1.78718 16.062C1.54613 16.276 1.46747 16.6272 1.60956 16.9271C1.87491 17.4872 2.18555 18.0251 2.53811 18.5354C2.72671 18.8084 3.07002 18.916 3.3759 18.8144L4.53695 18.4286C4.85587 18.7985 5.20201 19.1446 5.57185 19.4635L5.18611 20.6246C5.0845 20.9305 5.19211 21.2738 5.46509 21.4624C5.97538 21.815 6.51325 22.1256 7.07338 22.3909C7.37333 22.533 7.7245 22.4544 7.93848 22.2133L8.75058 21.2984C9.21194 21.4599 9.68486 21.5865 10.1647 21.6774L10.4113 22.8764C10.4762 23.1919 10.7408 23.4354 11.0714 23.4624C11.6895 23.5129 12.311 23.5129 12.9291 23.4624C13.2597 23.4354 13.5243 23.1919 13.5892 22.8764L13.8358 21.6774C14.3156 21.5865 14.7885 21.4599 15.2499 21.2984L16.062 22.2133C16.276 22.4544 16.6272 22.533 16.9271 22.3909C17.4872 22.1256 18.0251 21.815 18.5354 21.4624C18.8084 21.2738 18.916 20.9305 18.8144 20.6246L18.4286 19.4635C18.7985 19.1446 19.1446 18.7985 19.4635 18.4286L20.6246 18.8144C20.9305 18.916 21.2738 18.8084 21.4624 18.5354C21.8149 18.0251 22.1256 17.4872 22.3909 16.9271C22.533 16.6272 22.4544 16.276 22.2133 16.062L21.2984 15.2499C21.4599 14.7885 21.5865 14.3156 21.6774 13.8358L22.8764 13.5892C23.1919 13.5243 23.4354 13.2597 23.4624 12.9291C23.5129 12.311 23.5129 11.6895 23.4624 11.0714C23.4354 10.7408 23.1919 10.4762 22.8764 10.4113L21.6774 10.1647C21.5865 9.68487 21.4599 9.21195 21.2984 8.75059L22.2133 7.93849C22.4544 7.7245 22.533 7.37334 22.3909 7.07339C22.1256 6.51326 21.8149 5.97538 21.4624 5.46509C21.2738 5.1921 20.9305 5.08449 20.6246 5.18611L19.4635 5.57184C19.1446 5.20201 18.7985 4.85587 18.4286 4.53695L18.8144 3.37588C18.916 3.07001 18.8084 2.72669 18.5354 2.53809C18.0251 2.18554 17.4872 1.87491 16.9271 1.60956C16.6272 1.46747 16.276 1.54613 16.062 1.78719L15.2499 2.70206C14.7886 2.54063 14.3156 2.41395 13.8358 2.32306L13.5892 1.12412C13.5243 0.808609 13.2597 0.565113 12.9291 0.53811ZM11.109 2.6959L11.3507 1.52052C11.7833 1.49348 12.2172 1.49348 12.6498 1.52052L12.8915 2.69591C12.9542 3.00072 13.1984 3.22702 13.4949 3.27772C14.0307 3.36931 14.5576 3.51044 15.0676 3.69923C15.35 3.80372 15.6748 3.72975 15.8815 3.49686L16.6776 2.60001C17.0655 2.79288 17.4412 3.00985 17.8026 3.24955L17.4245 4.38757C17.3265 4.68256 17.4245 5.00034 17.6556 5.19261C18.0738 5.54055 18.4599 5.92671 18.8079 6.3449C19.0001 6.576 19.3179 6.67396 19.6129 6.57596L20.7509 6.19788C20.9906 6.55926 21.2076 6.93498 21.4005 7.32286L20.5036 8.11897C20.2707 8.3257 20.1968 8.65054 20.3013 8.93286C20.4901 9.44292 20.6312 9.96982 20.7228 10.5056C20.7735 10.8021 20.9998 11.0463 21.3046 11.109L22.48 11.3507C22.507 11.7833 22.507 12.2172 22.48 12.6498L21.3046 12.8915C20.9998 12.9542 20.7735 13.1984 20.7228 13.4949C20.6312 14.0307 20.4901 14.5576 20.3013 15.0676C20.1968 15.3499 20.2707 15.6748 20.5036 15.8815L21.4005 16.6776C21.2076 17.0655 20.9906 17.4412 20.7509 17.8026L19.6129 17.4245C19.3179 17.3265 19.0001 17.4245 18.8079 17.6556C18.4599 18.0738 18.0738 18.4599 17.6556 18.8079C17.4245 19.0001 17.3265 19.3179 17.4245 19.6129L17.8026 20.7509C17.4412 20.9906 17.0655 21.2076 16.6776 21.4005L15.8815 20.5036C15.6748 20.2707 15.35 20.1968 15.0677 20.3013C14.5576 20.4901 14.0307 20.6312 13.4949 20.7228C13.1984 20.7735 12.9542 20.9998 12.8915 21.3046L12.6498 22.48C12.2172 22.507 11.7833 22.507 11.3507 22.48L11.109 21.3046C11.0463 20.9998 10.8021 20.7735 10.5055 20.7228C9.96981 20.6312 9.44289 20.4901 8.93284 20.3013C8.65053 20.1968 8.32568 20.2707 8.11895 20.5036L7.32285 21.4005C6.93498 21.2076 6.55926 20.9906 6.19789 20.7509L6.57596 19.6129C6.67396 19.3179 6.576 19.0001 6.3449 18.8079C5.92671 18.4599 5.54055 18.0738 5.19261 17.6556C5.00034 17.4245 4.68255 17.3265 4.38757 17.4245L3.24956 17.8026C3.00986 17.4412 2.79288 17.0655 2.60001 16.6776L3.49686 15.8815C3.72974 15.6748 3.80371 15.3499 3.69922 15.0676C3.51043 14.5576 3.3693 14.0307 3.27771 13.4949C3.22701 13.1984 3.00071 12.9542 2.6959 12.8915L1.52052 12.6498C1.49348 12.2172 1.49348 11.7833 1.52052 11.3507L2.6959 11.109C3.00071 11.0463 3.22701 10.8021 3.27771 10.5056C3.3693 9.96982 3.51043 9.44292 3.69922 8.93286C3.80371 8.65055 3.72974 8.3257 3.49685 8.11897L2.60001 7.32286C2.79288 6.93498 3.00986 6.55926 3.24956 6.19788L4.38757 6.57596C4.68255 6.67396 5.00034 6.576 5.19261 6.3449C5.54055 5.92671 5.92671 5.54055 6.3449 5.19261C6.576 5.00034 6.67396 4.68256 6.57596 4.38757L6.19789 3.24955C6.55926 3.00985 6.93498 2.79288 7.32285 2.60001L8.11895 3.49686C8.32568 3.72975 8.65053 3.80372 8.93284 3.69923C9.4429 3.51044 9.96981 3.36931 10.5056 3.27772C10.8021 3.22702 11.0463 3.00071 11.109 2.6959Z" fill="black"/>
</svg>
