<svg width="24" height="24" viewBox="0 0 24 24" fill="none" xmlns="http://www.w3.org/2000/svg">
<path fill-rule="evenodd" clip-rule="evenodd" d="M11.0915 0.78728C11.6961 0.737899 12.3039 0.737899 12.9085 0.78728C13.126 0.805048 13.3011 0.965402 13.3441 1.17448L13.6247 2.53907C14.2036 2.63826 14.7729 2.79075 15.3243 2.99458L16.2487 1.95315C16.3905 1.79341 16.6225 1.742 16.8198 1.83549C17.3677 2.09503 17.8938 2.39888 18.393 2.74378C18.5727 2.86788 18.6442 3.09437 18.5769 3.29706L18.1379 4.61845C18.5892 4.99424 19.006 5.41105 19.3818 5.86236L20.7032 5.42336C20.9059 5.35602 21.1323 5.42756 21.2565 5.60719C21.6013 6.10639 21.9052 6.63254 22.1648 7.18042C22.2582 7.37778 22.2068 7.60972 22.0471 7.75152L21.0057 8.67597C21.2095 9.22733 21.362 9.79668 21.4612 10.3755L22.8258 10.6562C23.0348 10.6992 23.1952 10.8742 23.213 11.0918C23.2623 11.6963 23.2623 12.3042 23.213 12.9087C23.1952 13.1262 23.0348 13.3013 22.8258 13.3443L21.4612 13.625C21.362 14.2038 21.2095 14.7732 21.0057 15.3245L22.0471 16.249C22.2068 16.3908 22.2582 16.6227 22.1648 16.8201C21.9052 17.368 21.6013 17.8941 21.2565 18.3933C21.1323 18.5729 20.9059 18.6445 20.7032 18.5771L19.3818 18.1381C19.006 18.5894 18.5892 19.0063 18.1379 19.382L18.5769 20.7034C18.6442 20.9061 18.5727 21.1326 18.393 21.2567C17.8938 21.6016 17.3677 21.9055 16.8198 22.165C16.6225 22.2585 16.3905 22.2071 16.2487 22.0473L15.3243 21.0059C14.7729 21.2097 14.2036 21.3622 13.6247 21.4614L13.3441 22.826C13.3011 23.0351 13.126 23.1954 12.9085 23.2132C12.3039 23.2626 11.6961 23.2626 11.0915 23.2132C10.874 23.1954 10.6989 23.0351 10.6559 22.826L10.3753 21.4614C9.79643 21.3622 9.22707 21.2097 8.67571 21.0059L7.75127 22.0473C7.60947 22.2071 7.37753 22.2585 7.18017 22.165C6.63229 21.9055 6.10616 21.6016 5.60695 21.2567C5.42733 21.1326 5.35578 20.9061 5.42312 20.7034L5.86211 19.382C5.4108 19.0063 4.99399 18.5894 4.61821 18.1381L3.29683 18.5771C3.09414 18.6445 2.86765 18.5729 2.74355 18.3933C2.39865 17.8941 2.09479 17.3679 1.83525 16.8201C1.74175 16.6227 1.79316 16.3908 1.95291 16.249L2.99433 15.3245C2.7905 14.7732 2.63801 14.2038 2.53881 13.625L1.17424 13.3443C0.965157 13.3013 0.804804 13.1262 0.787036 12.9087C0.737655 12.3042 0.737655 11.6963 0.787036 11.0918C0.804804 10.8742 0.965157 10.6992 1.17424 10.6562L2.53881 10.3755C2.63801 9.79668 2.7905 9.22733 2.99433 8.67597L1.95291 7.75152C1.79316 7.60972 1.74175 7.37778 1.83525 7.18042C2.09479 6.63254 2.39865 6.10639 2.74355 5.60719C2.86765 5.42756 3.09414 5.35602 3.29683 5.42336L4.61821 5.86236C4.99399 5.41105 5.4108 4.99423 5.86211 4.61845L5.42312 3.29706C5.35578 3.09437 5.42733 2.86788 5.60695 2.74378C6.10616 2.39888 6.63229 2.09503 7.18017 1.83549C7.37753 1.742 7.60947 1.79341 7.75127 1.95315L8.67571 2.99458C9.22707 2.79075 9.79643 2.63826 10.3753 2.53907L10.6559 1.17448C10.6989 0.965402 10.874 0.805048 11.0915 0.78728ZM11.9998 6.5C12.2759 6.5 12.4998 6.72386 12.4998 7V12.5C12.4998 12.7761 12.2759 13 11.9998 13C11.7236 13 11.4998 12.7761 11.4998 12.5V7C11.4998 6.72386 11.7236 6.5 11.9998 6.5ZM12.7498 16C12.7498 16.4142 12.414 16.75 11.9998 16.75C11.5855 16.75 11.2498 16.4142 11.2498 16C11.2498 15.5858 11.5855 15.25 11.9998 15.25C12.414 15.25 12.7498 15.5858 12.7498 16Z" fill="black"/>
</svg>
