<svg width="25" height="24" viewBox="0 0 25 24" fill="none" xmlns="http://www.w3.org/2000/svg">
<path d="M12 5.74995C12.6903 5.74995 13.25 6.3096 13.25 6.99995V12C13.25 12.6903 12.6903 13.25 12 13.25C11.3096 13.25 10.75 12.6903 10.75 12V6.99995C10.75 6.3096 11.3096 5.74995 12 5.74995Z" fill="black"/>
<path d="M13.5 16.5C13.5 17.3284 12.8284 18 12 18C11.1716 18 10.5 17.3284 10.5 16.5C10.5 15.6715 11.1716 15 12 15C12.8284 15 13.5 15.6715 13.5 16.5Z" fill="black"/>
<path fill-rule="evenodd" clip-rule="evenodd" d="M13.5461 0.188138C12.5891 0.0727041 11.6207 0.0727042 10.6637 0.188138C9.91376 0.278598 9.34201 0.84011 9.19109 1.53405L9.05202 2.17352C8.7155 2.27689 8.3842 2.39733 8.05947 2.53456L7.54252 2.1345C6.98145 1.7003 6.18326 1.63713 5.55059 2.04908C4.74153 2.57588 3.99944 3.19885 3.33996 3.90393C2.82423 4.45533 2.74746 5.25253 3.07774 5.88079L3.38189 6.45933C3.19073 6.75483 3.01465 7.05981 2.85442 7.37318L2.20102 7.3993C1.49202 7.42764 0.840318 7.89268 0.620736 8.61482C0.33997 9.53817 0.171428 10.4924 0.119469 11.4566C0.0788404 12.2104 0.532439 12.8703 1.18899 13.1392L1.79425 13.3872C1.83769 13.7366 1.89889 14.0833 1.97752 14.4264L1.49392 14.8658C0.968961 15.3428 0.768014 16.1176 1.06358 16.8122C1.44193 17.7013 1.92674 18.5407 2.50641 19.3122C2.96 19.916 3.73191 20.1298 4.40795 19.9135L5.03021 19.7144C5.2881 19.9542 5.55794 20.1807 5.8386 20.393L5.75064 21.0404C5.65508 21.7437 5.9998 22.4666 6.67305 22.8084C7.53429 23.2457 8.44486 23.5772 9.3848 23.7956C10.1202 23.9665 10.8487 23.6343 11.2276 23.0344L11.5766 22.4818C11.9286 22.4998 12.2813 22.4998 12.6333 22.4818L12.9822 23.0344C13.3611 23.6343 14.0897 23.9665 14.825 23.7956C15.765 23.5772 16.6755 23.2457 17.5368 22.8084C18.21 22.4666 18.5548 21.7437 18.4592 21.0404L18.3712 20.393C18.6519 20.1807 18.9217 19.9542 19.1796 19.7144L19.8019 19.9135C20.4779 20.1298 21.2498 19.916 21.7034 19.3122C22.2831 18.5407 22.7679 17.7013 23.1463 16.8122C23.4418 16.1176 23.2409 15.3428 22.7159 14.8658L22.2323 14.4264C22.3109 14.0833 22.3721 13.7366 22.4156 13.3872L23.0208 13.1392C23.6774 12.8703 24.131 12.2104 24.0904 11.4566C24.0384 10.4924 23.8699 9.53817 23.5891 8.61482C23.3695 7.89268 22.7178 7.42764 22.0088 7.3993L21.3554 7.37318C21.1952 7.05981 21.0191 6.75483 20.8279 6.45933L21.1321 5.88079C21.4624 5.25253 21.3856 4.45533 20.8699 3.90393C20.2104 3.19885 19.4683 2.57588 18.6592 2.04908C18.0266 1.63713 17.2284 1.7003 16.6673 2.1345L16.1504 2.53456C15.8256 2.39733 15.4943 2.27689 15.1578 2.17352L15.0187 1.53405C14.8678 0.84011 14.2961 0.278598 13.5461 0.188138ZM11.3984 3.14864L11.5134 2.61992C11.9073 2.59544 12.3025 2.59544 12.6965 2.61992L12.8114 3.14864C12.9567 3.81647 13.4694 4.30785 14.0853 4.46751C14.5715 4.59358 15.0442 4.76532 15.4969 4.98101C16.0711 5.25461 16.7802 5.20836 17.3213 4.78961L17.7488 4.45876C18.0664 4.6931 18.3691 4.94719 18.6553 5.21953L18.4038 5.69785C18.086 6.30248 18.1627 7.00812 18.5313 7.52623C18.8228 7.93582 19.0743 8.37134 19.2822 8.8271C19.5461 9.40559 20.1187 9.82575 20.802 9.85306L21.3424 9.87466C21.4352 10.2588 21.504 10.6483 21.5482 11.0409L21.0477 11.246C20.4149 11.5052 20.0204 12.0958 19.9702 12.7297C19.9306 13.2294 19.8432 13.7244 19.7093 14.2088C19.5399 14.822 19.7092 15.5116 20.215 15.9712L20.615 16.3347C20.4394 16.6883 20.2418 17.0306 20.0234 17.3595L19.5088 17.1949C18.8572 16.9864 18.1749 17.1853 17.7288 17.639C17.377 17.9967 16.9917 18.32 16.5783 18.6047C16.0545 18.9655 15.7408 19.6025 15.8329 20.2796L15.9056 20.8149C15.5434 20.973 15.1718 21.1082 14.7931 21.2199L14.5045 20.7628C14.1392 20.1843 13.4886 19.8983 12.8553 19.9593C12.3562 20.0073 11.8537 20.0073 11.3545 19.9593C10.7212 19.8983 10.0707 20.1843 9.70536 20.7628L9.41669 21.2199C9.03799 21.1082 8.66644 20.973 8.30425 20.8149L8.37697 20.2796C8.46898 19.6025 8.15534 18.9655 7.63158 18.6047C7.21815 18.32 6.8328 17.9967 6.48108 17.639C6.03497 17.1853 5.35265 16.9864 4.701 17.1949L4.18641 17.3595C3.96804 17.0306 3.77044 16.6883 3.59486 16.3347L3.99488 15.9712C4.50068 15.5116 4.66998 14.822 4.5005 14.2088C4.36661 13.7244 4.27922 13.2294 4.23963 12.7297C4.18941 12.0958 3.7949 11.5052 3.16215 11.246L2.66163 11.0409C2.70585 10.6483 2.7746 10.2588 2.86743 9.87466L3.40788 9.85306C4.09112 9.82575 4.66374 9.40559 4.92765 8.8271C5.13556 8.37134 5.38703 7.93582 5.67849 7.52622C6.04717 7.00812 6.12384 6.30248 5.80598 5.69785L5.55453 5.21953C5.84068 4.94719 6.14344 4.6931 6.46106 4.45876L6.88857 4.78961C7.42967 5.20836 8.13877 5.2546 8.71295 4.98101C9.16559 4.76532 9.63834 4.59358 10.1246 4.46751C10.7404 4.30785 11.2531 3.81647 11.3984 3.14864Z" fill="black"/>
</svg>
