<svg width="24" height="24" viewBox="0 0 24 24" fill="none" xmlns="http://www.w3.org/2000/svg">
<path d="M11.9998 6.25C12.414 6.25 12.7498 6.58579 12.7498 7V12.5C12.7498 12.9142 12.414 13.25 11.9998 13.25C11.5855 13.25 11.2498 12.9142 11.2498 12.5V7C11.2498 6.58579 11.5855 6.25 11.9998 6.25Z" fill="black"/>
<path d="M12.9998 16C12.9998 16.5523 12.552 17 11.9998 17C11.4475 17 10.9998 16.5523 10.9998 16C10.9998 15.4477 11.4475 15 11.9998 15C12.552 15 12.9998 15.4477 12.9998 16Z" fill="black"/>
<path fill-rule="evenodd" clip-rule="evenodd" d="M12.9492 0.28894C12.3175 0.237346 11.6825 0.237346 11.0508 0.28894C10.6071 0.325178 10.253 0.651815 10.1662 1.07376L9.95304 2.11009C9.57236 2.1888 9.19628 2.28956 8.82702 2.41186L8.1252 1.62123C7.83904 1.29885 7.36865 1.19294 6.96611 1.38363C6.39372 1.65478 5.84412 1.97219 5.32274 2.33241C4.9564 2.58551 4.81273 3.04564 4.94862 3.4547L5.28205 4.45835C4.99196 4.71699 4.71675 4.9922 4.45811 5.2823L3.45447 4.94886C3.04542 4.81296 2.58528 4.95664 2.33218 5.32298C1.97196 5.84436 1.65454 6.39397 1.38339 6.96636C1.1927 7.3689 1.29861 7.83929 1.62098 8.12545L2.41161 8.82728C2.28931 9.19654 2.18855 9.57262 2.10984 9.95329L1.07351 10.1664C0.651568 10.2532 0.324934 10.6074 0.288696 11.0511C0.237101 11.6827 0.237101 12.3178 0.288696 12.9494C0.324934 13.3931 0.65157 13.7473 1.07351 13.834L2.10984 14.0472C2.18855 14.4279 2.28931 14.8039 2.41161 15.1732L1.62098 15.875C1.29861 16.1612 1.19269 16.6316 1.38339 17.0341C1.65455 17.6065 1.97197 18.1561 2.33218 18.6775C2.58528 19.0438 3.04542 19.1875 3.45447 19.0516L4.45811 18.7182C4.71675 19.0083 4.99196 19.2835 5.28205 19.5421L4.94862 20.5458C4.81273 20.9548 4.9564 21.415 5.32274 21.6681C5.84412 22.0283 6.39372 22.3457 6.96611 22.6169C7.36865 22.8075 7.83904 22.7016 8.1252 22.3793L8.82702 21.5886C9.19629 21.7109 9.57236 21.8117 9.95304 21.8904L10.1662 22.9267C10.253 23.3487 10.6071 23.6753 11.0508 23.7115C11.6825 23.7631 12.3175 23.7631 12.9492 23.7115C13.3929 23.6753 13.747 23.3487 13.8338 22.9267L14.047 21.8904C14.4276 21.8117 14.8037 21.7109 15.173 21.5886L15.8748 22.3793C16.161 22.7016 16.6313 22.8075 17.0339 22.6169C17.6063 22.3457 18.1559 22.0283 18.6773 21.6681C19.0436 21.415 19.1873 20.9548 19.0514 20.5458L18.7179 19.5421C19.008 19.2835 19.2833 19.0083 19.5419 18.7182L20.5455 19.0516C20.9546 19.1875 21.4147 19.0438 21.6678 18.6775C22.028 18.1561 22.3455 17.6065 22.6166 17.0341C22.8073 16.6316 22.7014 16.1612 22.379 15.875L21.5884 15.1732C21.7107 14.8039 21.8115 14.4279 21.8902 14.0472L22.9265 13.834C23.3484 13.7473 23.6751 13.3931 23.7113 12.9494C23.7629 12.3178 23.7629 11.6827 23.7113 11.0511C23.6751 10.6074 23.3484 10.2532 22.9265 10.1664L21.8902 9.95329C21.8115 9.57262 21.7107 9.19654 21.5884 8.82727L22.379 8.12545C22.7014 7.83929 22.8073 7.3689 22.6166 6.96636C22.3455 6.39397 22.028 5.84436 21.6678 5.32298C21.4147 4.95664 20.9546 4.81296 20.5455 4.94886L19.5419 5.2823C19.2833 4.9922 19.008 4.71699 18.7179 4.45835L19.0514 3.4547C19.1873 3.04564 19.0436 2.58551 18.6773 2.33241C18.1559 1.97219 17.6063 1.65478 17.0339 1.38363C16.6313 1.19294 16.161 1.29885 15.8748 1.62123L15.173 2.41186C14.8037 2.28956 14.4276 2.1888 14.047 2.11009L13.8338 1.07376C13.747 0.651816 13.3929 0.325178 12.9492 0.28894ZM11.3536 2.74627L11.5565 1.75993C11.852 1.74702 12.148 1.74702 12.4435 1.75993L12.6464 2.74627C12.7304 3.15447 13.0571 3.45652 13.4526 3.52414C13.9731 3.61314 14.4851 3.75026 14.9806 3.93368C15.3571 4.07304 15.7914 3.97471 16.0683 3.66282L16.7361 2.91042C16.9984 3.047 17.2546 3.19499 17.5042 3.35393L17.187 4.30875C17.0558 4.70379 17.1872 5.12836 17.4954 5.3848C17.9019 5.72297 18.2773 6.09833 18.6154 6.5048C18.8719 6.81302 19.2965 6.94445 19.6915 6.81321L20.6463 6.496C20.8052 6.7456 20.9532 7.00189 21.0898 7.26412L20.3374 7.932C20.0255 8.20886 19.9272 8.64313 20.0666 9.01964C20.25 9.51519 20.3871 10.0271 20.4761 10.5477C20.5437 10.9432 20.8458 11.2699 21.254 11.3538L22.2403 11.5567C22.2532 11.8522 22.2532 12.1482 22.2403 12.4438L21.254 12.6466C20.8458 12.7306 20.5437 13.0573 20.4761 13.4528C20.3871 13.9733 20.25 14.4853 20.0666 14.9809C19.9272 15.3574 20.0255 15.7916 20.3374 16.0685L21.0898 16.7364C20.9532 16.9986 20.8053 17.2549 20.6463 17.5045L19.6915 17.1873C19.2965 17.056 18.8719 17.1875 18.6154 17.4957C18.2773 17.9022 17.9019 18.2775 17.4954 18.6157C17.1872 18.8721 17.0558 19.2967 17.187 19.6917L17.5042 20.6466C17.2546 20.8055 16.9984 20.9535 16.7361 21.0901L16.0683 20.3377C15.7914 20.0258 15.3571 19.9275 14.9806 20.0668C14.4851 20.2502 13.9731 20.3873 13.4526 20.4763C13.0571 20.544 12.7304 20.846 12.6464 21.2542L12.4435 22.2406C12.148 22.2535 11.852 22.2535 11.5565 22.2406L11.3536 21.2542C11.2696 20.846 10.9429 20.544 10.5474 20.4763C10.0269 20.3873 9.51491 20.2502 9.01937 20.0668C8.64286 19.9275 8.2086 20.0258 7.93174 20.3377L7.26386 21.0901C7.00164 20.9535 6.74536 20.8055 6.49576 20.6466L6.81296 19.6917C6.94421 19.2967 6.81277 18.8721 6.50455 18.6157C6.09809 18.2775 5.72273 17.9022 5.38455 17.4957C5.12811 17.1875 4.70355 17.056 4.30851 17.1873L3.3537 17.5045C3.19475 17.2549 3.04676 16.9986 2.91017 16.7364L3.66258 16.0685C3.97446 15.7916 4.07279 15.3574 3.93343 14.9809C3.75001 14.4853 3.61288 13.9733 3.52389 13.4528C3.45627 13.0573 3.15422 12.7306 2.74602 12.6466L1.75968 12.4438C1.74677 12.1482 1.74677 11.8522 1.75968 11.5567L2.74602 11.3538C3.15422 11.2699 3.45627 10.9432 3.52389 10.5477C3.61288 10.0271 3.75001 9.51519 3.93343 9.01964C4.07279 8.64313 3.97446 8.20886 3.66257 7.932L2.91017 7.26412C3.04676 7.00189 3.19475 6.7456 3.3537 6.496L4.3085 6.81321C4.70355 6.94445 5.12811 6.81302 5.38455 6.5048C5.72273 6.09833 6.09809 5.72297 6.50455 5.3848C6.81277 5.12836 6.94421 4.70379 6.81297 4.30875L6.49576 3.35393C6.74536 3.19499 7.00164 3.047 7.26386 2.91042L7.93174 3.66282C8.2086 3.97471 8.64286 4.07304 9.01937 3.93368C9.51492 3.75026 10.0269 3.61314 10.5474 3.52414C10.9429 3.45652 11.2696 3.15447 11.3536 2.74627Z" fill="black"/>
</svg>
