<svg width="24" height="24" viewBox="0 0 24 24" fill="none" xmlns="http://www.w3.org/2000/svg">
<path d="M5.29002 15.9149L3.8582 21.2586C3.74103 21.6958 3.68245 21.9145 3.74033 22.0659C3.79083 22.198 3.89488 22.3025 4.02672 22.3536C4.17787 22.4121 4.39676 22.3545 4.83455 22.2393L6.95769 21.6805C7.11883 21.6381 7.1994 21.6169 7.27779 21.6211C7.34716 21.6249 7.41498 21.6431 7.47694 21.6745C7.54695 21.71 7.60612 21.7687 7.72447 21.886L9.28378 23.4314C9.6053 23.7501 9.76607 23.9095 9.92624 23.9343C10.066 23.956 10.2083 23.9175 10.3181 23.8284C10.4439 23.7262 10.5025 23.5076 10.6197 23.0703L11.8445 18.4991C9.32346 18.4606 7.02863 17.4893 5.29002 15.9149Z" fill="black"/>
<path d="M12.1223 18.4995L13.347 23.0703C13.4642 23.5076 13.5227 23.7262 13.6486 23.8284C13.7583 23.9175 13.9007 23.956 14.0404 23.9343C14.2006 23.9095 14.3614 23.7501 14.6829 23.4314L16.2422 21.886C16.3605 21.7687 16.4197 21.71 16.4897 21.6745C16.5517 21.6431 16.6195 21.6249 16.6889 21.6211C16.7673 21.6169 16.8478 21.6381 17.009 21.6805L19.1321 22.2393C19.5699 22.3545 19.7888 22.4121 19.9399 22.3535C20.0718 22.3025 20.1758 22.1979 20.2263 22.0659C20.2842 21.9145 20.2256 21.6958 20.1085 21.2586L18.6831 15.9392C16.9401 17.5061 14.6434 18.4693 12.1223 18.4995Z" fill="black"/>
<path d="M18.2372 14.275C19.6416 12.7589 20.5 10.7298 20.5 8.50025C20.5 4.39263 17.5864 0.965526 13.713 0.172934C13.1597 0.0597057 12.5868 0.000244115 12 0.000244141C7.30558 0.000244346 3.5 3.80582 3.5 8.50024C3.5 10.5541 4.22841 12.4377 5.44099 13.907C5.53667 14.023 5.63536 14.1363 5.73695 14.247C7.29067 15.9394 9.52145 17.0002 12 17.0002C14.4649 17.0002 16.6847 15.9511 18.2372 14.275Z" fill="black"/>
</svg>
