<svg width="24" height="24" viewBox="0 0 24 24" fill="none" xmlns="http://www.w3.org/2000/svg">
<path d="M5.0025 16.9877L3.8582 21.2583C3.74103 21.6956 3.68245 21.9142 3.74033 22.0656C3.79083 22.1977 3.89488 22.3022 4.02672 22.3533C4.17787 22.4119 4.39676 22.3543 4.83455 22.239L6.95769 21.6803C7.11883 21.6379 7.1994 21.6167 7.27779 21.6209C7.34716 21.6247 7.41498 21.6428 7.47694 21.6743C7.54695 21.7098 7.60612 21.7684 7.72447 21.8857L9.28378 23.4312C9.6053 23.7499 9.76607 23.9092 9.92624 23.9341C10.066 23.9558 10.2083 23.9173 10.3181 23.8281C10.4439 23.726 10.5025 23.5073 10.6197 23.0701L11.5784 19.4921C9.08447 19.3981 6.80303 18.4738 5.0025 16.9877Z" fill="black"/>
<path d="M12.3886 19.4933L13.347 23.0701C13.4642 23.5073 13.5227 23.726 13.6486 23.8281C13.7583 23.9173 13.9007 23.9557 14.0404 23.9341C14.2006 23.9092 14.3614 23.7499 14.6829 23.4312L16.2422 21.8857C16.3605 21.7684 16.4197 21.7098 16.4897 21.6742C16.5517 21.6428 16.6195 21.6246 16.6889 21.6209C16.7673 21.6166 16.8478 21.6378 17.009 21.6803L19.1321 22.239C19.5699 22.3542 19.7888 22.4119 19.9399 22.3533C20.0718 22.3022 20.1758 22.1977 20.2263 22.0656C20.2842 21.9142 20.2256 21.6956 20.1085 21.2583L18.9702 17.0102C17.166 18.4897 14.8828 19.4067 12.3886 19.4933Z" fill="black"/>
<path d="M18.2372 14.2747C19.6416 12.7586 20.5 10.7296 20.5 8.5C20.5 4.39238 17.5864 0.965282 13.713 0.172689C13.1597 0.0594615 12.5868 -2.565e-08 12 0C7.30558 2.052e-07 3.5 3.80558 3.5 8.5C3.5 10.5538 4.22841 12.4375 5.44099 13.9068C5.53667 14.0227 5.63536 14.1361 5.73695 14.2467C7.29067 15.9392 9.52145 17 12 17C14.4649 17 16.6847 15.9508 18.2372 14.2747Z" fill="black"/>
</svg>
