<svg width="24" height="24" viewBox="0 0 24 24" fill="none" xmlns="http://www.w3.org/2000/svg">
<path fill-rule="evenodd" clip-rule="evenodd" d="M18.3403 14.1614L20.1083 20.7595C20.2254 21.1968 20.284 21.4154 20.2261 21.5668C20.1756 21.6989 20.0716 21.8034 19.9397 21.8545C19.7886 21.913 19.5697 21.8554 19.1319 21.7402L17.0088 21.1814C16.8476 21.139 16.767 21.1178 16.6887 21.1221C16.6193 21.1258 16.5515 21.144 16.4895 21.1754C16.4195 21.211 16.3603 21.2696 16.242 21.3869L14.6827 22.9324C14.3611 23.2511 14.2004 23.4104 14.0402 23.4353C13.9005 23.4569 13.7581 23.4185 13.6484 23.3293C13.5225 23.2272 13.4639 23.0085 13.3468 22.5712L11.9831 17.482L10.6195 22.5713C10.5023 23.0085 10.4437 23.2272 10.3179 23.3293C10.2081 23.4185 10.0657 23.457 9.92602 23.4353C9.76585 23.4104 9.60508 23.2511 9.28356 22.9324L7.72425 21.3869C7.6059 21.2696 7.54673 21.211 7.47672 21.1755C7.41476 21.144 7.34694 21.1259 7.27757 21.1221C7.19918 21.1178 7.11861 21.1391 6.95747 21.1815L4.83433 21.7402C4.39654 21.8555 4.17765 21.9131 4.02651 21.8545C3.89466 21.8034 3.79061 21.6989 3.74011 21.5668C3.68223 21.4154 3.74081 21.1968 3.85798 20.7595L5.63375 14.1323C4.30602 12.6326 3.5 10.6604 3.5 8.5C3.5 3.80558 7.30558 2.052e-07 12 0C16.6944 -2.052e-07 20.5 3.80558 20.5 8.5C20.5 10.6745 19.6835 12.6583 18.3403 14.1614ZM18.5 8.5C18.5 12.0899 15.5899 15 12 15C8.41015 15 5.5 12.0899 5.5 8.5C5.5 4.91015 8.41015 2 12 2C15.5899 2 18.5 4.91015 18.5 8.5ZM13.8693 16.7938C14.8785 16.5673 15.8199 16.1613 16.6582 15.6111L17.6412 19.2798L17.5178 19.2473L17.5056 19.2438C17.4256 19.2206 17.0149 19.1015 16.5804 19.125C16.2336 19.1438 15.8945 19.2347 15.5847 19.3918C15.1967 19.5887 14.9006 19.8972 14.8429 19.9573L14.8341 19.9664L14.7434 20.0562L13.8693 16.7938ZM7.31312 15.5922C8.14977 16.1462 9.09016 16.5561 10.0989 16.7866L9.2228 20.0563L9.13215 19.9664L9.12336 19.9573C9.06565 19.8972 8.76956 19.5887 8.38152 19.3918C8.07175 19.2347 7.73264 19.1438 7.3858 19.125C6.95134 19.1015 6.54067 19.2206 6.46061 19.2439L6.44844 19.2473L6.32502 19.2798L7.31312 15.5922Z" fill="black"/>
</svg>
