<svg width="24" height="24" viewBox="0 0 24 24" fill="none" xmlns="http://www.w3.org/2000/svg">
<path fill-rule="evenodd" clip-rule="evenodd" d="M5.63375 14.1323L3.85798 20.7595C3.74081 21.1968 3.68223 21.4154 3.74011 21.5668C3.79061 21.6989 3.89466 21.8034 4.02651 21.8545C4.17765 21.9131 4.39654 21.8555 4.83433 21.7402L6.95747 21.1815C7.11861 21.1391 7.19918 21.1178 7.27757 21.1221C7.34694 21.1259 7.41476 21.144 7.47672 21.1755C7.54673 21.211 7.6059 21.2696 7.72425 21.3869L9.28356 22.9324C9.60508 23.2511 9.76585 23.4104 9.92602 23.4353C10.0657 23.457 10.2081 23.4185 10.3179 23.3293C10.4437 23.2272 10.5023 23.0085 10.6195 22.5713L11.9831 17.482L13.3468 22.5712C13.4639 23.0085 13.5225 23.2272 13.6484 23.3293C13.7581 23.4185 13.9005 23.4569 14.0402 23.4353C14.2004 23.4104 14.3611 23.2511 14.6827 22.9324L16.242 21.3869C16.3603 21.2696 16.4195 21.211 16.4895 21.1754C16.5515 21.144 16.6193 21.1258 16.6887 21.1221C16.767 21.1178 16.8476 21.139 17.0088 21.1814L19.1319 21.7402C19.5697 21.8554 19.7886 21.913 19.9397 21.8545C20.0716 21.8034 20.1756 21.6989 20.2261 21.5668C20.284 21.4154 20.2254 21.1968 20.1083 20.7595L18.3403 14.1614C19.6835 12.6583 20.5 10.6745 20.5 8.5C20.5 3.80558 16.6944 -2.052e-07 12 0C7.30558 2.052e-07 3.5 3.80558 3.5 8.5C3.5 10.6604 4.30602 12.6326 5.63375 14.1323ZM18 8.5C18 11.8137 15.3137 14.5 12 14.5C8.68629 14.5 6 11.8137 6 8.5C6 5.18629 8.68629 2.5 12 2.5C15.3137 2.5 18 5.18629 18 8.5ZM14.3537 16.6699L15.018 19.1493C15.1153 19.0818 15.2288 19.0117 15.3585 18.9459C15.7302 18.7573 16.1372 18.6483 16.5534 18.6257C16.6986 18.6179 16.8319 18.6218 16.9499 18.6316L16.2136 15.8838C15.6331 16.2158 15.0097 16.4813 14.3537 16.6699ZM9.61496 16.6608L8.94818 19.1493C8.85092 19.0818 8.73742 19.0117 8.60772 18.9459C8.236 18.7574 7.82906 18.6483 7.41286 18.6258C7.26764 18.6179 7.1343 18.6219 7.01633 18.6316L7.75712 15.867C8.33671 16.2015 8.95945 16.4696 9.61496 16.6608Z" fill="black"/>
</svg>
