<svg width="24" height="24" viewBox="0 0 24 24" fill="none" xmlns="http://www.w3.org/2000/svg">
<path fill-rule="evenodd" clip-rule="evenodd" d="M18.3403 14.1614L20.1083 20.7595C20.2254 21.1968 20.284 21.4154 20.2261 21.5668C20.1756 21.6989 20.0716 21.8034 19.9397 21.8545C19.7886 21.913 19.5697 21.8554 19.1319 21.7402L17.0088 21.1814C16.8476 21.139 16.767 21.1178 16.6887 21.1221C16.6193 21.1258 16.5515 21.144 16.4895 21.1754C16.4195 21.211 16.3603 21.2696 16.242 21.3869L14.6827 22.9324C14.3611 23.2511 14.2004 23.4104 14.0402 23.4353C13.9005 23.4569 13.7581 23.4185 13.6484 23.3293C13.5225 23.2272 13.4639 23.0085 13.3468 22.5712L11.9831 17.482L10.6195 22.5713C10.5023 23.0085 10.4437 23.2272 10.3179 23.3293C10.2081 23.4185 10.0657 23.457 9.92602 23.4353C9.76585 23.4104 9.60508 23.2511 9.28356 22.9324L7.72425 21.3869C7.6059 21.2696 7.54673 21.211 7.47672 21.1755C7.41476 21.144 7.34694 21.1259 7.27757 21.1221C7.19918 21.1178 7.11861 21.1391 6.95747 21.1815L4.83433 21.7402C4.39654 21.8555 4.17765 21.9131 4.02651 21.8545C3.89466 21.8034 3.79061 21.6989 3.74011 21.5668C3.68223 21.4154 3.74081 21.1968 3.85798 20.7595L5.63375 14.1323C4.30602 12.6326 3.5 10.6604 3.5 8.5C3.5 3.80558 7.30558 2.052e-07 12 0C16.6944 -2.052e-07 20.5 3.80558 20.5 8.5C20.5 10.6745 19.6835 12.6583 18.3403 14.1614ZM19.5 8.5C19.5 12.6421 16.1421 16 12 16C7.85786 16 4.5 12.6421 4.5 8.5C4.5 4.35786 7.85786 1 12 1C16.1421 1 19.5 4.35786 19.5 8.5ZM12.8773 16.9553C14.6403 16.7745 16.2437 16.0549 17.52 14.9639L19.0531 20.6854L17.2633 20.2144L17.2319 20.2059C17.1178 20.1747 16.8814 20.1102 16.6345 20.1235C16.4264 20.1348 16.223 20.1893 16.0371 20.2836C15.8167 20.3955 15.6442 20.5696 15.561 20.6536L15.538 20.6767L14.2235 21.9795L12.8773 16.9553ZM6.4525 14.9403C7.7254 16.0377 9.32716 16.7642 11.0899 16.9518L9.74273 21.9795L8.4282 20.6767L8.40526 20.6536C8.32203 20.5696 8.14955 20.3955 7.92912 20.2836C7.74326 20.1894 7.53979 20.1348 7.33169 20.1236C7.08488 20.1102 6.84843 20.1748 6.73434 20.2059L6.70296 20.2144L4.9131 20.6854L6.4525 14.9403Z" fill="black"/>
</svg>
