<svg width="24" height="24" viewBox="0 0 24 24" fill="none" xmlns="http://www.w3.org/2000/svg">
<path d="M5.14546 16.4539L3.8582 21.2581C3.74103 21.6954 3.68245 21.914 3.74033 22.0654C3.79083 22.1975 3.89488 22.302 4.02672 22.3531C4.17787 22.4116 4.39676 22.354 4.83455 22.2388L6.95769 21.68C7.11883 21.6376 7.1994 21.6164 7.27779 21.6207C7.34716 21.6244 7.41498 21.6426 7.47694 21.674C7.54695 21.7095 7.60612 21.7682 7.72447 21.8855L9.28378 23.431C9.6053 23.7496 9.76607 23.909 9.92624 23.9338C10.066 23.9555 10.2083 23.917 10.3181 23.8279C10.4439 23.7257 10.5025 23.5071 10.6197 23.0698L11.7113 18.9959C9.20456 18.9282 6.91703 17.982 5.14546 16.4539Z" fill="black"/>
<path d="M12.2556 18.9967L13.347 23.0698C13.4642 23.5071 13.5227 23.7257 13.6486 23.8279C13.7583 23.917 13.9007 23.9555 14.0404 23.9338C14.2006 23.909 14.3614 23.7496 14.6829 23.431L16.2422 21.8855C16.3605 21.7682 16.4197 21.7095 16.4897 21.674C16.5517 21.6426 16.6195 21.6244 16.6889 21.6206C16.7673 21.6164 16.8478 21.6376 17.009 21.68L19.1321 22.2388C19.5699 22.354 19.7888 22.4116 19.9399 22.3531C20.0718 22.302 20.1758 22.1975 20.2263 22.0654C20.2842 21.914 20.2256 21.6953 20.1085 21.2581L18.8274 16.4772C17.0519 17.9983 14.7625 18.9368 12.2556 18.9967Z" fill="black"/>
<path d="M18.2372 14.2745C19.6416 12.7584 20.5 10.7293 20.5 8.49976C20.5 4.39214 17.5864 0.965038 13.713 0.172445C13.1597 0.0592174 12.5868 -0.000244166 12 -0.000244141C7.30558 -0.000243935 3.5 3.80534 3.5 8.49976C3.5 10.5536 4.22841 12.4372 5.44099 13.9065C5.53667 14.0225 5.63536 14.1358 5.73695 14.2465C7.29067 15.9389 9.52145 16.9998 12 16.9998C14.4649 16.9998 16.6847 15.9506 18.2372 14.2745Z" fill="black"/>
</svg>
