<svg width="24" height="24" viewBox="0 0 24 24" fill="none" xmlns="http://www.w3.org/2000/svg">
<path fill-rule="evenodd" clip-rule="evenodd" d="M12 0C13.858 0 14.7871 -6.97747e-05 15.5645 0.123047C19.8433 0.800792 23.1992 4.1567 23.877 8.43555C24.0001 9.21287 24 10.142 24 12C24 13.858 24.0001 14.7871 23.877 15.5645C23.1992 19.8433 19.8433 23.1992 15.5645 23.877C14.7871 24.0001 13.858 24 12 24C10.142 24 9.21287 24.0001 8.43555 23.877C4.1567 23.1992 0.800792 19.8433 0.123047 15.5645C-6.97747e-05 14.7871 0 13.858 0 12C0 10.142 -6.97747e-05 9.21287 0.123047 8.43555C0.800792 4.1567 4.1567 0.800792 8.43555 0.123047C9.21287 -6.97747e-05 10.142 0 12 0ZM11.0615 6.6582C10.5125 6.10918 9.64286 6.07458 9.05371 6.55469L8.93945 6.6582L4.99414 10.6035C4.37826 11.2194 4.37826 12.2181 4.99414 12.834L8.93945 16.7793C9.52527 17.3647 10.4759 17.3649 11.0615 16.7793C11.6466 16.1936 11.6466 15.2439 11.0615 14.6582L9.62207 13.2188H18.1797L18.333 13.2109C19.0891 13.1339 19.6796 12.4952 19.6797 11.7188C19.6796 10.9424 19.0891 10.3036 18.333 10.2266L18.1797 10.2188H9.62207L11.0615 8.7793L11.1641 8.66504C11.644 8.07606 11.6101 7.20725 11.0615 6.6582Z" fill="black"/>
</svg>
