<svg width="24" height="24" viewBox="0 0 24 24" fill="none" xmlns="http://www.w3.org/2000/svg">
<path fill-rule="evenodd" clip-rule="evenodd" d="M0.123117 8.43565C0 9.21298 0 10.142 0 12C0 13.858 0 14.787 0.123117 15.5643C0.800832 19.8433 4.15673 23.1992 8.43565 23.8769C9.21298 24 10.142 24 12 24C13.858 24 14.787 24 15.5643 23.8769C19.8433 23.1992 23.1992 19.8433 23.8769 15.5643C24 14.787 24 13.858 24 12C24 10.142 24 9.21298 23.8769 8.43565C23.1992 4.15673 19.8433 0.800832 15.5643 0.123117C14.787 0 13.858 0 12 0C10.142 0 9.21298 0 8.43565 0.123117C4.15673 0.800832 0.800832 4.15673 0.123117 8.43565ZM5.52417 12.3036C5.20117 11.9806 5.20118 11.4569 5.52417 11.1339L9.46967 7.18839C9.76256 6.8955 10.2374 6.8955 10.5303 7.18839C10.8232 7.48129 10.8232 7.95616 10.5303 8.24905L7.81065 10.9687H18.1793C18.5935 10.9687 18.9293 11.3045 18.9293 11.7187C18.9293 12.1329 18.5935 12.4687 18.1793 12.4687H7.81066L10.5303 15.1884C10.8232 15.4813 10.8232 15.9562 10.5303 16.2491C10.2374 16.5419 9.76256 16.5419 9.46967 16.2491L5.52417 12.3036Z" fill="black"/>
</svg>
