<svg width="24" height="24" viewBox="0 0 24 24" fill="none" xmlns="http://www.w3.org/2000/svg">
<path d="M7.86801 3.45219C8.45717 2.97194 9.32675 3.00663 9.87582 3.55571C10.4247 4.1048 10.4585 4.97348 9.97836 5.56254L9.87582 5.6768L5.38071 10.1719L22.3036 10.1719C23.132 10.1719 23.8036 10.8435 23.8036 11.6719C23.8035 12.4486 23.2133 13.0873 22.4569 13.1641L22.3036 13.1719L5.38071 13.1719L9.87582 17.667C10.4612 18.2528 10.4613 19.2024 9.87582 19.7881C9.29016 20.3738 8.34054 20.3736 7.75473 19.7881L0.769378 12.8028C0.144917 12.178 0.144899 11.1658 0.769378 10.5411L7.75473 3.55571L7.86801 3.45219Z" fill="black"/>
</svg>
