<svg width="24" height="24" viewBox="0 0 24 24" fill="none" xmlns="http://www.w3.org/2000/svg">
<path fill-rule="evenodd" clip-rule="evenodd" d="M9.18007 3.50003L21.2156 3.50006C21.3418 3.50004 21.4647 3.50003 21.5688 3.50853C21.6831 3.51787 21.818 3.53991 21.9537 3.60905C22.1418 3.70493 22.2948 3.85791 22.3907 4.04607C22.4598 4.18178 22.4819 4.31665 22.4912 4.43095C22.4997 4.53498 22.4997 4.65782 22.4997 4.78396L22.4997 19.216C22.4997 19.3422 22.4997 19.4651 22.4912 19.5692C22.4819 19.6835 22.4598 19.8183 22.3907 19.9541C22.2948 20.1422 22.1418 20.2952 21.9537 20.3911C21.818 20.4602 21.6831 20.4823 21.5688 20.4916C21.4647 20.5001 21.3418 20.5001 21.2157 20.5001L9.18007 20.5001C8.95809 20.5003 8.76244 20.5005 8.57422 20.4513C8.40897 20.4081 8.2523 20.3371 8.11098 20.2411C7.95004 20.1319 7.82136 19.9845 7.67536 19.8173L1.57476 12.8452C1.50141 12.7614 1.42901 12.6786 1.37259 12.6032C1.30997 12.5194 1.24413 12.4156 1.20512 12.2836C1.15038 12.0986 1.15038 11.9016 1.20512 11.7165C1.24413 11.5845 1.30997 11.4807 1.37259 11.3969C1.42901 11.3215 1.50137 11.2388 1.57472 11.155L7.67533 4.18284C7.82134 4.01563 7.95002 3.86826 8.11098 3.759C8.2523 3.66306 8.40897 3.59197 8.57422 3.54879C8.76244 3.49961 8.95808 3.49981 9.18007 3.50003ZM9.36578 7.36955C9.85392 6.88139 10.6454 6.88137 11.1335 7.36951L13.9063 10.1421L16.679 7.36951C17.1671 6.88137 17.9586 6.88139 18.4467 7.36955C18.9349 7.85772 18.9349 8.64918 18.4467 9.13732L15.6741 11.9098L18.4466 14.6822C18.9348 15.1704 18.9348 15.9618 18.4466 16.45C17.9585 16.9382 17.167 16.9382 16.6789 16.45L13.9063 13.6775L11.1336 16.45C10.6455 16.9382 9.85402 16.9382 9.36587 16.45C8.87773 15.9618 8.87775 15.1704 9.36591 14.6822L12.1384 11.9098L9.36582 9.13732C8.87765 8.64918 8.87763 7.85772 9.36578 7.36955Z" fill="black"/>
</svg>
