<svg width="24" height="24" viewBox="0 0 24 24" fill="none" xmlns="http://www.w3.org/2000/svg">
<path fill-rule="evenodd" clip-rule="evenodd" d="M8.87491 2.25065C8.6267 2.25065 8.35637 2.24389 8.09854 2.31706C7.89123 2.37593 7.69652 2.47263 7.52432 2.60222C7.31019 2.76337 7.15287 2.98262 7.00284 3.18034L1.02041 11.0641C0.929762 11.1836 0.743384 11.4067 0.670805 11.6794C0.61494 11.8897 0.61494 12.1116 0.670805 12.3219C0.743384 12.5947 0.929761 12.8177 1.02041 12.9372L7.00284 20.821C7.15287 21.0187 7.31019 21.2379 7.52432 21.3991C7.69652 21.5287 7.89123 21.6254 8.09854 21.6842C8.35637 21.7574 8.6267 21.7507 8.87491 21.7507H21.9511C22.0787 21.7507 22.2198 21.7508 22.3407 21.7409C22.4704 21.7303 22.6416 21.7039 22.8183 21.6139C23.0534 21.4941 23.2443 21.3032 23.3642 21.068C23.4542 20.8914 23.4805 20.7202 23.4911 20.5905C23.501 20.4696 23.5009 20.3284 23.5009 20.2008V3.80046C23.5009 3.67287 23.501 3.53175 23.4911 3.41081C23.4805 3.2811 23.4542 3.10991 23.3642 2.93327C23.2443 2.69815 23.0534 2.5072 22.8183 2.38737C22.6416 2.29737 22.4704 2.27104 22.3407 2.26042C22.2198 2.25054 22.0787 2.25065 21.9511 2.25065H8.87491ZM10.3778 8.37956C10.6706 8.08675 11.1455 8.08691 11.4384 8.37956L13.9081 10.8493L16.3778 8.37956C16.6707 8.08675 17.1455 8.0869 17.4384 8.37956C17.7312 8.67246 17.7312 9.14725 17.4384 9.44011L14.9687 11.9098L17.4384 14.3796C17.7313 14.6724 17.7313 15.1472 17.4384 15.4401C17.1455 15.7327 16.6706 15.7329 16.3778 15.4401L13.9081 12.9704L11.4384 15.4401C11.1456 15.7328 10.6707 15.7327 10.3778 15.4401C10.0852 15.1472 10.0851 14.6724 10.3778 14.3796L12.8476 11.9098L10.3778 9.44011C10.0852 9.14726 10.0852 8.67239 10.3778 8.37956Z" fill="black"/>
</svg>
