<svg width="24" height="24" viewBox="0 0 24 24" fill="none" xmlns="http://www.w3.org/2000/svg">
<path d="M4.88668 9.18901C4.99352 9.32436 4.99352 9.58381 4.99352 10.1027V10.9951L22.7499 10.9951C23.3021 10.9951 23.7499 11.4428 23.7499 11.9951C23.7499 12.5474 23.3021 12.9951 22.7499 12.9951L4.99352 12.9951V13.8973C4.99352 14.4162 4.99352 14.6756 4.88668 14.811C4.79374 14.9288 4.65256 14.9982 4.50255 15C4.33013 15.002 4.12459 14.8437 3.71352 14.527L1.25045 12.6297C0.972229 12.4154 0.833117 12.3083 0.783109 12.1777C0.739289 12.0633 0.739289 11.9367 0.783109 11.8223C0.833117 11.6917 0.972229 11.5846 1.25045 11.3703L3.71352 9.47296C4.12459 9.15631 4.33013 8.99799 4.50255 9.00002C4.65256 9.00179 4.79374 9.07124 4.88668 9.18901Z" fill="black"/>
</svg>
