<svg width="24" height="24" viewBox="0 0 24 24" fill="none" xmlns="http://www.w3.org/2000/svg">
<path d="M11.0836 8.73292C10.986 8.63543 10.8277 8.63534 10.7301 8.73292C10.6328 8.83053 10.6327 8.98889 10.7301 9.08643L13.5533 11.9097L10.7301 14.7329C10.6327 14.8305 10.6326 14.9889 10.7301 15.0864C10.8277 15.1838 10.986 15.1838 11.0836 15.0864L13.9069 12.2632L16.7301 15.0864C16.8276 15.1839 16.986 15.1837 17.0836 15.0864C17.1812 14.9888 17.1813 14.8305 17.0836 14.7329L14.2604 11.9097L17.0836 9.08643C17.1812 8.98881 17.1812 8.83055 17.0836 8.73292C16.986 8.63536 16.8277 8.63532 16.7301 8.73292L13.9069 11.5562L11.0836 8.73292Z" fill="black"/>
<path fill-rule="evenodd" clip-rule="evenodd" d="M8.87366 2.7505C8.59672 2.7505 8.40917 2.74866 8.23401 2.79835C8.08598 2.84038 7.94682 2.90897 7.82385 3.00147C7.67848 3.11091 7.56725 3.26155 7.40002 3.48194L1.4176 11.3657C1.29979 11.521 1.19302 11.6536 1.15198 11.8081C1.11864 11.934 1.11858 12.067 1.15198 12.1929C1.19312 12.3473 1.29985 12.4801 1.4176 12.6353L7.40002 20.5191C7.56714 20.7393 7.67852 20.8901 7.82385 20.9995C7.94674 21.0919 8.08611 21.1606 8.23401 21.2026C8.40911 21.2523 8.59683 21.2505 8.87366 21.2505H21.9498C22.0856 21.2505 22.2026 21.2505 22.2985 21.2427C22.3972 21.2346 22.4959 21.2166 22.5905 21.1685C22.7312 21.0967 22.8457 20.982 22.9176 20.8413C22.9657 20.7469 22.9837 20.648 22.9918 20.5493C22.9996 20.4535 22.9996 20.3363 22.9996 20.2007V3.8003C22.9996 3.66469 22.9996 3.54746 22.9918 3.45167C22.9838 3.353 22.9656 3.25413 22.9176 3.15968C22.8458 3.01895 22.7311 2.90439 22.5905 2.83253C22.496 2.78438 22.3972 2.7664 22.2985 2.75831C22.2026 2.75048 22.0856 2.7505 21.9498 2.7505H8.87366ZM21.9498 3.2505C22.0936 3.2505 22.1867 3.25059 22.2574 3.25636C22.325 3.26189 22.3505 3.27155 22.3629 3.27784C22.4098 3.30182 22.4484 3.34028 22.4723 3.38722C22.4786 3.39977 22.4883 3.42571 22.4938 3.49268C22.4995 3.56341 22.4996 3.65671 22.4996 3.8003V20.2007C22.4996 20.3443 22.4995 20.4376 22.4938 20.5083C22.4882 20.5757 22.4786 20.6014 22.4723 20.6138C22.4483 20.6607 22.4099 20.6992 22.3629 20.7232C22.3505 20.7294 22.325 20.7391 22.2574 20.7446C22.1867 20.7504 22.0936 20.7505 21.9498 20.7505H8.87366C8.56834 20.7505 8.46316 20.7483 8.37073 20.7222C8.28206 20.697 8.19833 20.6554 8.12463 20.6001C8.04782 20.5423 7.9821 20.4596 7.79749 20.2163L1.81604 12.3325C1.67183 12.1425 1.64508 12.1008 1.63538 12.0649C1.62423 12.023 1.62429 11.978 1.63538 11.936C1.64498 11.9001 1.67138 11.8591 1.81604 11.6685L7.79749 3.78468C7.98224 3.54119 8.04782 3.45872 8.12463 3.40089C8.1984 3.34543 8.28194 3.30401 8.37073 3.27882C8.46321 3.25261 8.56811 3.2505 8.87366 3.2505H21.9498Z" fill="black"/>
</svg>
