<svg width="24" height="24" viewBox="0 0 24 24" fill="none" xmlns="http://www.w3.org/2000/svg">
<path d="M11.4384 8.37956C11.1454 8.0869 10.6706 8.08675 10.3778 8.37956C10.0852 8.67239 10.0852 9.14726 10.3778 9.4401L12.8475 11.9098L10.3778 14.3796C10.0851 14.6724 10.0852 15.1472 10.3778 15.4401C10.6707 15.7327 11.1455 15.7328 11.4384 15.4401L13.9081 12.9704L16.3778 15.4401C16.6706 15.7329 17.1454 15.7327 17.4384 15.4401C17.7312 15.1472 17.7313 14.6724 17.4384 14.3796L14.9686 11.9098L17.4384 9.4401C17.7312 9.14725 17.7311 8.67246 17.4384 8.37956C17.1455 8.0869 16.6706 8.08675 16.3778 8.37956L13.9081 10.8493L11.4384 8.37956Z" fill="black"/>
<path fill-rule="evenodd" clip-rule="evenodd" d="M8.87488 2.25065C8.62671 2.25065 8.35631 2.24392 8.09852 2.31706C7.8912 2.37593 7.6965 2.47263 7.5243 2.60221C7.31017 2.76337 7.15284 2.98262 7.00281 3.18034L1.02039 11.0641C0.929722 11.1836 0.743349 11.4067 0.670782 11.6794C0.614963 11.8896 0.614932 12.1117 0.670782 12.3219C0.743411 12.5945 0.929768 12.8178 1.02039 12.9372L7.00281 20.821C7.15279 21.0186 7.31026 21.238 7.5243 21.3991C7.69644 21.5286 7.89129 21.6254 8.09852 21.6842C8.35628 21.7573 8.62675 21.7507 8.87488 21.7507H21.9511C22.0786 21.7507 22.2198 21.7508 22.3407 21.7409C22.4704 21.7303 22.6417 21.7039 22.8182 21.6139C23.0533 21.4941 23.2443 21.3031 23.3641 21.068C23.4541 20.8915 23.4805 20.7202 23.4911 20.5905C23.501 20.4696 23.5009 20.3284 23.5009 20.2008V3.80046C23.5009 3.67296 23.501 3.53169 23.4911 3.41081C23.4805 3.28116 23.454 3.10982 23.3641 2.93327C23.2444 2.69823 23.0532 2.5072 22.8182 2.38737C22.6417 2.29741 22.4704 2.27105 22.3407 2.26042C22.2198 2.25054 22.0786 2.25065 21.9511 2.25065H8.87488ZM21.9999 3.75065C21.9999 3.76626 22.0009 3.78297 22.0009 3.80046V20.2008C22.0009 20.218 21.9999 20.2344 21.9999 20.2497C21.9845 20.2497 21.9682 20.2506 21.9511 20.2507H8.87488C8.7221 20.2507 8.63531 20.2502 8.5702 20.2467C8.53155 20.2447 8.51392 20.2419 8.50867 20.2409C8.4793 20.2325 8.4511 20.2191 8.42664 20.2008C8.42372 20.1983 8.41141 20.1866 8.38465 20.1549C8.34253 20.1051 8.28967 20.0366 8.19715 19.9147L2.2157 12.0309C2.20765 12.0203 2.19943 12.0101 2.19227 12.0007C2.19946 11.9912 2.2076 11.9811 2.2157 11.9704L8.19715 4.08659C8.28975 3.96455 8.34251 3.89618 8.38465 3.84635C8.41152 3.81459 8.4237 3.80298 8.42664 3.80046C8.45115 3.7821 8.47921 3.76878 8.50867 3.76042C8.51381 3.75941 8.53133 3.75662 8.5702 3.75456C8.63531 3.75113 8.72208 3.75065 8.87488 3.75065H21.9999Z" fill="black"/>
</svg>
