<svg width="24" height="24" viewBox="0 0 24 24" fill="none" xmlns="http://www.w3.org/2000/svg">
<path d="M11.6156 8.20337C11.2251 7.81286 10.5921 7.81286 10.2015 8.20337C9.81151 8.59394 9.81119 9.22708 10.2015 9.61744L12.4945 11.9104L10.2015 14.2034C9.8114 14.5939 9.81116 15.227 10.2015 15.6174C10.592 16.0075 11.2252 16.0074 11.6156 15.6174L13.9086 13.3245L16.2015 15.6174C16.5919 16.0076 17.2251 16.0073 17.6156 15.6174C18.0061 15.2269 18.006 14.5939 17.6156 14.2034L15.3226 11.9104L17.6156 9.61744C18.0061 9.22699 18.0059 8.59392 17.6156 8.20337C17.2251 7.81286 16.5921 7.81286 16.2015 8.20337L13.9086 10.4963L11.6156 8.20337Z" fill="black"/>
<path fill-rule="evenodd" clip-rule="evenodd" d="M8.87537 2.00025C8.64162 2.00025 8.32972 1.9916 8.03064 2.07642C7.7938 2.1437 7.57114 2.25455 7.37439 2.40259C7.12618 2.58946 6.94535 2.84238 6.80408 3.02857L0.82166 10.9124C0.754227 11.0012 0.571787 11.2181 0.468145 11.4934L0.429082 11.6155C0.362178 11.8676 0.362184 12.1329 0.429082 12.385C0.517336 12.7172 0.744557 12.9866 0.82166 13.0881L6.80408 20.9719C6.94537 21.1581 7.12612 21.411 7.37439 21.5979C7.57117 21.746 7.79375 21.8568 8.03064 21.9241C8.32974 22.0089 8.6416 22.0002 8.87537 22.0002H21.9515C22.0748 22.0003 22.2275 22.0013 22.3607 21.9905C22.5058 21.9786 22.7143 21.948 22.932 21.8372C23.2141 21.6933 23.4445 21.4631 23.5883 21.1809C23.6991 20.9632 23.7297 20.7547 23.7416 20.6096C23.7524 20.4763 23.7513 20.3237 23.7513 20.2004V3.80005C23.7513 3.67674 23.7524 3.52419 23.7416 3.39087C23.7327 3.28188 23.7127 3.1371 23.6566 2.97974L23.5883 2.81958L23.5297 2.71607C23.4062 2.51475 23.2368 2.34544 23.0355 2.22193L22.932 2.16333L22.7719 2.09497C22.6146 2.03894 22.4697 2.01893 22.3607 2.01001C22.2275 1.99916 22.0748 2.00025 21.9515 2.00025H8.87537ZM21.7513 4.00025V20.0002H8.87537C8.71974 20.0002 8.64042 20.0003 8.58338 19.9973L8.5785 19.9963L8.57557 19.9934C8.53868 19.9498 8.49099 19.887 8.39686 19.7629L2.50623 12.0002L8.39686 4.23755C8.49092 4.11358 8.53869 4.05069 8.57557 4.00708L8.5785 4.00318H8.58338C8.64042 4.00017 8.71975 4.00025 8.87537 4.00025H21.7513Z" fill="black"/>
</svg>
