<svg width="24" height="24" viewBox="0 0 24 24" fill="none" xmlns="http://www.w3.org/2000/svg">
<path fill-rule="evenodd" clip-rule="evenodd" d="M0.123117 8.43565C0 9.21298 0 10.142 0 12C0 13.858 0 14.787 0.123117 15.5643C0.800832 19.8433 4.15673 23.1992 8.43565 23.8769C9.21298 24 10.142 24 12 24C13.858 24 14.787 24 15.5643 23.8769C19.8433 23.1992 23.1992 19.8433 23.8769 15.5643C24 14.787 24 13.858 24 12C24 10.142 24 9.21298 23.8769 8.43565C23.1992 4.15673 19.8433 0.800832 15.5643 0.123117C14.787 0 13.858 0 12 0C10.142 0 9.21298 0 8.43565 0.123117C4.15673 0.800832 0.800832 4.15673 0.123117 8.43565ZM5.34739 12.4803C4.92676 12.0597 4.92677 11.3777 5.34739 10.9571L9.29289 7.01162C9.68342 6.62109 10.3166 6.62109 10.7071 7.01162C11.0976 7.40214 11.0976 8.03531 10.7071 8.42583L8.41421 10.7187H18.1793C18.7316 10.7187 19.1793 11.1664 19.1793 11.7187C19.1793 12.271 18.7316 12.7187 18.1793 12.7187H8.41422L10.7071 15.0116C11.0976 15.4021 11.0976 16.0353 10.7071 16.4258C10.3166 16.8164 9.68342 16.8164 9.29289 16.4258L5.34739 12.4803Z" fill="black"/>
</svg>
