<svg width="24" height="24" viewBox="0 0 24 24" fill="none" xmlns="http://www.w3.org/2000/svg">
<path fill-rule="evenodd" clip-rule="evenodd" d="M8.87527 2.50058C8.61268 2.50058 8.38376 2.49578 8.16726 2.55722C7.98952 2.60769 7.8227 2.69122 7.67507 2.80233C7.49539 2.93765 7.36107 3.12255 7.20241 3.33163L1.21999 11.2144C1.11577 11.3518 0.969159 11.5301 0.912376 11.7437C0.867783 11.9119 0.867717 12.0893 0.912376 12.2574C0.969266 12.471 1.11582 12.6494 1.21999 12.7867L7.20241 20.6695C7.36104 20.8786 7.49536 21.0635 7.67507 21.1988C7.82268 21.3099 7.98955 21.3935 8.16726 21.4439C8.38373 21.5053 8.61272 21.5006 8.87527 21.5006H21.9514C22.0831 21.5006 22.2122 21.5006 22.3206 21.4918C22.4348 21.4824 22.5698 21.4602 22.7053 21.3912C22.8932 21.2954 23.046 21.1425 23.1419 20.9547C23.2109 20.8192 23.2331 20.6841 23.2425 20.5699C23.2513 20.4616 23.2512 20.3323 23.2512 20.2008V3.80038C23.2512 3.66885 23.2513 3.53956 23.2425 3.43124C23.2331 3.31709 23.2108 3.18198 23.1419 3.04647C23.0461 2.85856 22.8932 2.7058 22.7053 2.60995C22.5697 2.54086 22.4348 2.51872 22.3206 2.50936C22.2122 2.50051 22.0831 2.50058 21.9514 2.50058H8.87527ZM10.555 8.55624C10.7501 8.36106 11.0667 8.36123 11.262 8.55624L13.9085 11.2027L16.555 8.55624C16.7501 8.36106 17.0667 8.36122 17.262 8.55624C17.4572 8.75151 17.4572 9.06804 17.262 9.26327L14.6155 11.9098L17.262 14.5562C17.4573 14.7515 17.4572 15.068 17.262 15.2633C17.0667 15.4582 16.7501 15.4584 16.555 15.2633L13.9085 12.6168L11.262 15.2633C11.0668 15.4584 10.7502 15.4583 10.555 15.2633C10.36 15.068 10.3598 14.7514 10.555 14.5562L13.2014 11.9098L10.555 9.26327C10.36 9.06805 10.3599 8.75143 10.555 8.55624Z" fill="black"/>
</svg>
