<svg width="24" height="24" viewBox="0 0 24 24" fill="none" xmlns="http://www.w3.org/2000/svg">
<path d="M11.262 8.55624C11.0667 8.36116 10.7502 8.36104 10.555 8.55624C10.36 8.75146 10.36 9.06807 10.555 9.26327L13.2015 11.9098L10.555 14.5562C10.3599 14.7515 10.3599 15.068 10.555 15.2633C10.7502 15.4583 11.0668 15.4583 11.262 15.2633L13.9085 12.6168L16.555 15.2633C16.7501 15.4584 17.0667 15.4582 17.262 15.2633C17.4573 15.068 17.4573 14.7515 17.262 14.5562L14.6155 11.9098L17.262 9.26327C17.4572 9.06804 17.4572 8.75151 17.262 8.55624C17.0667 8.36115 16.7502 8.36104 16.555 8.55624L13.9085 11.2027L11.262 8.55624Z" fill="black"/>
<path fill-rule="evenodd" clip-rule="evenodd" d="M8.87528 2.50057C8.61273 2.50057 8.38375 2.4958 8.16728 2.55722C7.98949 2.60769 7.82275 2.6912 7.67509 2.80233C7.49532 2.93766 7.36113 3.12248 7.20243 3.33163L1.22001 11.2144C1.11578 11.3518 0.969197 11.53 0.912393 11.7437C0.867766 11.9119 0.867722 12.0893 0.912393 12.2574C0.969276 12.4711 1.11583 12.6494 1.22001 12.7867L7.20243 20.6695C7.36105 20.8786 7.49539 21.0635 7.67509 21.1988C7.82268 21.3098 7.9896 21.3935 8.16728 21.4439C8.38371 21.5053 8.61279 21.5006 8.87528 21.5006H21.9515C22.0831 21.5006 22.2122 21.5006 22.3206 21.4918C22.4348 21.4824 22.5698 21.4603 22.7054 21.3912C22.8933 21.2954 23.046 21.1426 23.1419 20.9547C23.2109 20.8192 23.2331 20.6841 23.2425 20.5699C23.2513 20.4616 23.2513 20.3324 23.2513 20.2008V3.80038C23.2513 3.66882 23.2513 3.53958 23.2425 3.43124C23.2331 3.31708 23.2109 3.18198 23.1419 3.04647C23.0461 2.85859 22.8932 2.7058 22.7054 2.60995C22.5698 2.54089 22.4348 2.51872 22.3206 2.50936C22.2122 2.50051 22.0831 2.50057 21.9515 2.50057H8.87528ZM21.9515 3.50057C22.0991 3.50058 22.1804 3.50073 22.2386 3.50546C22.2408 3.5056 22.2454 3.50546 22.2454 3.50546C22.2456 3.50772 22.2462 3.51075 22.2464 3.51327C22.2511 3.57148 22.2513 3.65285 22.2513 3.80038V20.2008C22.2513 20.3484 22.2511 20.4297 22.2464 20.4879C22.2462 20.4901 22.2454 20.4947 22.2454 20.4947C22.2434 20.4949 22.2408 20.4955 22.2386 20.4957C22.1804 20.5004 22.0991 20.5006 21.9515 20.5006H8.87528C8.55627 20.5006 8.49183 20.4964 8.44071 20.482C8.3816 20.4652 8.32578 20.4369 8.27665 20.4C8.23414 20.368 8.19166 20.3198 7.99833 20.065L2.01689 12.1822C1.9473 12.0905 1.91011 12.0413 1.88603 12.0045L1.8831 12.0006L1.88603 11.9967C1.9101 11.9598 1.94717 11.9108 2.01689 11.8189L7.99833 3.93612C8.19179 3.68117 8.23413 3.63317 8.27665 3.60116C8.32585 3.56416 8.38149 3.53593 8.44071 3.51913C8.49185 3.50468 8.55594 3.50057 8.87528 3.50057H21.9515Z" fill="black"/>
</svg>
