<svg width="24" height="24" viewBox="0 0 24 24" fill="none" xmlns="http://www.w3.org/2000/svg">
<path d="M4.12698 8.99989C4.27699 9.00167 4.41881 9.07159 4.51175 9.18935C4.61833 9.32474 4.6182 9.58423 4.6182 10.1024V10.495H22.375L22.5284 10.5028C23.2847 10.5796 23.875 11.2184 23.875 11.995C23.875 12.7717 23.2847 13.4104 22.5284 13.4872L22.375 13.495H4.6182V13.8974C4.6182 14.4155 4.61828 14.675 4.51175 14.8104C4.41881 14.9282 4.27699 14.9981 4.12698 14.9999C3.95462 15.0018 3.74877 14.8437 3.33792 14.5272L0.875031 12.6298C0.596914 12.4156 0.45828 12.3081 0.408234 12.1776C0.36441 12.0632 0.36441 11.9366 0.408234 11.8222C0.458316 11.6917 0.596948 11.5842 0.875031 11.37L3.33792 9.47353C3.74881 9.15704 3.95461 8.99799 4.12698 8.99989Z" fill="black"/>
</svg>
