<svg width="24" height="24" viewBox="0 0 24 24" fill="none" xmlns="http://www.w3.org/2000/svg">
<path d="M9.71934 7.7232C10.0122 7.4303 10.4871 7.43029 10.78 7.72318L13.9062 10.8493L17.0325 7.72318C17.3254 7.43029 17.8003 7.4303 18.0932 7.7232C18.386 8.0161 18.386 8.49097 18.0931 8.78386L14.9669 11.9099L18.093 15.0359C18.3859 15.3288 18.386 15.8037 18.0931 16.0966C17.8002 16.3895 17.3253 16.3895 17.0324 16.0966L13.9062 12.9706L10.7801 16.0966C10.4872 16.3895 10.0123 16.3895 9.71943 16.0966C9.42654 15.8037 9.42655 15.3288 9.71945 15.0359L12.8456 11.9099L9.71936 8.78386C9.42646 8.49097 9.42645 8.0161 9.71934 7.7232Z" fill="black"/>
<path fill-rule="evenodd" clip-rule="evenodd" d="M21.6952 3.26549C21.5942 3.24949 21.487 3.24984 21.4199 3.25006L21.3997 3.2501L9.02662 3.25009C8.95562 3.25005 8.88004 3.25 8.80453 3.25645C8.40451 3.29061 8.0284 3.46128 7.73927 3.73983C7.68471 3.7924 7.63498 3.8493 7.58826 3.90277L1.28096 11.1111L1.26924 11.1245C1.22964 11.1694 1.16596 11.2418 1.11512 11.3202C0.847045 11.7338 0.847045 12.2664 1.11512 12.68C1.16596 12.7584 1.22964 12.8308 1.26924 12.8757L1.28096 12.8891L7.58822 20.0974C7.63495 20.1509 7.6847 20.2078 7.73927 20.2604C8.0284 20.5389 8.40451 20.7096 8.80453 20.7438C8.88001 20.7502 8.95556 20.7502 9.02654 20.7501L21.3997 20.7501L21.4198 20.7501C21.487 20.7504 21.5942 20.7507 21.6952 20.7347C22.2301 20.65 22.6496 20.2305 22.7343 19.6956C22.7503 19.5946 22.7499 19.4874 22.7497 19.4203L22.7497 19.4001V4.6001L22.7497 4.57993C22.7499 4.51278 22.7503 4.40558 22.7343 4.30456C22.6496 3.76969 22.2301 3.3502 21.6952 3.26549ZM9.0442 4.7501H21.2497V19.2501H9.0442C8.9974 19.2501 8.97116 19.2501 8.95121 19.2497C8.93359 19.2495 8.93032 19.249 8.93217 19.2492C8.87503 19.2443 8.8213 19.2199 8.77999 19.1801C8.78133 19.1814 8.77886 19.1792 8.76704 19.1662C8.75366 19.1514 8.73636 19.1316 8.70554 19.0964L2.49625 12.0001L8.70554 4.90377C8.73636 4.86855 8.75366 4.84882 8.76704 4.83402C8.77886 4.82095 8.78133 4.81877 8.77999 4.82006C8.82127 4.78029 8.87496 4.75592 8.93207 4.75102L21.2497 4.7501L8.9512 4.75045C8.97116 4.75012 8.9974 4.7501 9.0442 4.7501Z" fill="black"/>
</svg>
