<svg width="24" height="24" viewBox="0 0 24 24" fill="none" xmlns="http://www.w3.org/2000/svg">
<path fill-rule="evenodd" clip-rule="evenodd" d="M8.87364 2.7505C8.59667 2.7505 8.40917 2.74864 8.23399 2.79835C8.08602 2.84039 7.94677 2.90899 7.82384 3.00147C7.67854 3.1109 7.56718 3.26163 7.40001 3.48194L1.41759 11.3657C1.29981 11.5209 1.193 11.6536 1.15196 11.8081C1.11866 11.934 1.11858 12.067 1.15196 12.1929C1.19311 12.3473 1.29984 12.4801 1.41759 12.6353L7.40001 20.5191C7.56714 20.7393 7.6785 20.8901 7.82384 20.9995C7.94675 21.0919 8.08606 21.1606 8.23399 21.2026C8.40914 21.2523 8.59673 21.2505 8.87364 21.2505H21.9498C22.0856 21.2505 22.2026 21.2505 22.2984 21.2427C22.3972 21.2346 22.4959 21.2166 22.5904 21.1685C22.7311 21.0967 22.8457 20.982 22.9176 20.8413C22.9657 20.7469 22.9837 20.648 22.9918 20.5493C22.9996 20.4536 22.9996 20.3363 22.9996 20.2007V3.8003C22.9996 3.66472 22.9996 3.54745 22.9918 3.45167C22.9837 3.35299 22.9656 3.25413 22.9176 3.15968C22.8458 3.01892 22.7312 2.90439 22.5904 2.83253C22.4959 2.78435 22.3972 2.76639 22.2984 2.75831C22.2026 2.75048 22.0856 2.7505 21.9498 2.7505H8.87364ZM10.7301 8.73292C10.8277 8.63534 10.986 8.63543 11.0836 8.73292L13.9068 11.5562L16.7301 8.73292C16.8277 8.63532 16.986 8.63537 17.0836 8.73292C17.1812 8.83055 17.1812 8.98881 17.0836 9.08643L14.2604 11.9097L17.0836 14.7329C17.1812 14.8305 17.1812 14.9888 17.0836 15.0864C16.9859 15.1837 16.8276 15.1839 16.7301 15.0864L13.9068 12.2632L11.0836 15.0864C10.986 15.1838 10.8277 15.1838 10.7301 15.0864C10.6326 14.9889 10.6327 14.8305 10.7301 14.7329L13.5533 11.9097L10.7301 9.08643C10.6327 8.98888 10.6328 8.83053 10.7301 8.73292Z" fill="black"/>
</svg>
