<svg width="24" height="24" viewBox="0 0 24 24" fill="none" xmlns="http://www.w3.org/2000/svg">
<path fill-rule="evenodd" clip-rule="evenodd" d="M6.8996 4.75C7.46038 2.45399 9.53113 0.75 11.9999 0.75C14.4686 0.75 16.5394 2.45399 17.1002 4.75H20.7947C22.2035 4.75 23.2658 6.02997 23.0062 7.41465L20.3812 21.4146C20.1816 22.4788 19.2524 23.25 18.1697 23.25H5.82954C4.74681 23.25 3.81761 22.4788 3.61808 21.4146L0.993079 7.41465C0.733453 6.02997 1.79573 4.75 3.20454 4.75H6.8996ZM9.24988 10C9.24988 10.6904 8.69023 11.25 7.99988 11.25C7.30952 11.25 6.74988 10.6904 6.74988 10V7.25H3.50577L6.03702 20.75H17.9622L20.4935 7.25H17.2499V10C17.2499 10.6904 16.6902 11.25 15.9999 11.25C15.3095 11.25 14.7499 10.6904 14.7499 10V7.25H9.24988V10ZM14.45 4.75H9.54973C10.0049 3.85958 10.9312 3.25 11.9999 3.25C13.0685 3.25 13.9948 3.85958 14.45 4.75Z" fill="black"/>
</svg>
