<svg width="24" height="24" viewBox="0 0 24 24" fill="none" xmlns="http://www.w3.org/2000/svg">
<path fill-rule="evenodd" clip-rule="evenodd" d="M7.52736 5.5C7.77608 3.25002 9.68362 1.5 11.9999 1.5C14.3162 1.5 16.2237 3.25002 16.4724 5.5H20.7947C21.7339 5.5 22.4421 6.35331 22.269 7.27643L19.644 21.2764C19.511 21.9859 18.8915 22.5 18.1697 22.5H5.82956C5.10773 22.5 4.48827 21.9859 4.35525 21.2764L1.73025 7.27643C1.55716 6.35331 2.26535 5.5 3.20456 5.5H7.52736ZM8.4999 10C8.4999 10.2761 8.27604 10.5 7.9999 10.5C7.72375 10.5 7.4999 10.2761 7.4999 10V6.5H3.20456C2.89149 6.5 2.65543 6.78444 2.71312 7.09214L5.33812 21.0921C5.38246 21.3286 5.58895 21.5 5.82956 21.5H18.1697C18.4103 21.5 18.6168 21.3286 18.6611 21.0921L21.2861 7.09214C21.3438 6.78444 21.1078 6.5 20.7947 6.5H16.4999V10C16.4999 10.2761 16.276 10.5 15.9999 10.5C15.7238 10.5 15.4999 10.2761 15.4999 10V6.5H8.4999V10ZM15.4645 5.5H8.53534C8.77795 3.80385 10.2367 2.5 11.9999 2.5C13.7631 2.5 15.2218 3.80385 15.4645 5.5Z" fill="black"/>
</svg>
