<svg width="24" height="24" viewBox="0 0 24 24" fill="none" xmlns="http://www.w3.org/2000/svg">
<path fill-rule="evenodd" clip-rule="evenodd" d="M16.4929 5.75C16.3632 3.381 14.4011 1.5 11.9997 1.5C9.59833 1.5 7.63627 3.381 7.50655 5.75H3.20412C2.42144 5.75 1.83129 6.46109 1.97553 7.23036L4.60053 21.2304C4.71138 21.8216 5.2276 22.25 5.82912 22.25H18.1693C18.7708 22.25 19.287 21.8216 19.3979 21.2304L22.0229 7.23036C22.1671 6.46109 21.5769 5.75 20.7943 5.75H16.4929ZM8.50851 5.75H7.50655C7.50202 5.83276 7.49972 5.91611 7.49972 6V10C7.49972 10.2761 7.72358 10.5 7.99972 10.5C8.27586 10.5 8.49972 10.2761 8.49972 10V6C8.49972 5.91594 8.50269 5.83258 8.50851 5.75ZM15.4909 5.75C15.3627 3.93368 13.8487 2.5 11.9997 2.5C10.1508 2.5 8.6367 3.93368 8.50851 5.75H15.4909ZM16.4929 5.75H15.4909C15.4968 5.83258 15.4997 5.91594 15.4997 6V10C15.4997 10.2761 15.7236 10.5 15.9997 10.5C16.2759 10.5 16.4997 10.2761 16.4997 10V6C16.4997 5.91611 16.4974 5.83276 16.4929 5.75Z" fill="black"/>
</svg>
