<svg width="24" height="24" viewBox="0 0 24 24" fill="none" xmlns="http://www.w3.org/2000/svg">
<path fill-rule="evenodd" clip-rule="evenodd" d="M16.9936 5.75C16.8633 3.10472 14.6773 1 11.9997 1C9.32213 1 7.13612 3.10472 7.00586 5.75H3.20412C2.42144 5.75 1.83129 6.46109 1.97553 7.23036L4.60053 21.2304C4.71138 21.8216 5.2276 22.25 5.82912 22.25H18.1693C18.7708 22.25 19.287 21.8216 19.3979 21.2304L22.0229 7.23036C22.1671 6.46109 21.5769 5.75 20.7943 5.75H16.9936ZM9.00999 5.75H7.00586C7.00179 5.83282 6.99972 5.91617 6.99972 6V10C6.99972 10.5523 7.44744 11 7.99972 11C8.55201 11 8.99972 10.5523 8.99972 10V6C8.99972 5.91581 9.00319 5.83243 9.00999 5.75ZM14.9895 5.75C14.8624 4.21012 13.5724 3 11.9997 3C10.4271 3 9.13703 4.21012 9.00999 5.75H14.9895ZM16.9936 5.75H14.9895C14.9963 5.83243 14.9997 5.91581 14.9997 6V10C14.9997 10.5523 15.4474 11 15.9997 11C16.552 11 16.9997 10.5523 16.9997 10V6C16.9997 5.91617 16.9977 5.83282 16.9936 5.75Z" fill="black"/>
</svg>
