<svg width="24" height="24" viewBox="0 0 24 24" fill="none" xmlns="http://www.w3.org/2000/svg">
<path fill-rule="evenodd" clip-rule="evenodd" d="M17.2439 5.75C17.1134 2.96659 14.8154 0.75 11.9997 0.75C9.18403 0.75 6.88606 2.96659 6.75557 5.75H3.20412C2.42144 5.75 1.83129 6.46109 1.97553 7.23036L4.60053 21.2304C4.71138 21.8216 5.2276 22.25 5.82912 22.25H18.1693C18.7708 22.25 19.287 21.8216 19.3979 21.2304L22.0229 7.23036C22.1671 6.46109 21.5769 5.75 20.7943 5.75H17.2439ZM9.26093 5.75H6.75557C6.75169 5.83285 6.74972 5.91619 6.74972 6V10C6.74972 10.6904 7.30937 11.25 7.99972 11.25C8.69008 11.25 9.24972 10.6904 9.24972 10V6C9.24972 5.91573 9.25351 5.83234 9.26093 5.75ZM14.7385 5.75C14.6122 4.34838 13.4342 3.25 11.9997 3.25C10.5652 3.25 9.38724 4.34838 9.26093 5.75H14.7385ZM17.2439 5.75H14.7385C14.7459 5.83234 14.7497 5.91573 14.7497 6V10C14.7497 10.6904 15.3094 11.25 15.9997 11.25C16.6901 11.25 17.2497 10.6904 17.2497 10V6C17.2497 5.91619 17.2478 5.83285 17.2439 5.75Z" fill="black"/>
</svg>
