<svg width="24" height="24" viewBox="0 0 24 24" fill="none" xmlns="http://www.w3.org/2000/svg">
<path fill-rule="evenodd" clip-rule="evenodd" d="M24 12C24 18.6274 18.6274 24 12 24C5.37258 24 0 18.6274 0 12C0 5.37258 5.37258 0 12 0C18.6274 0 24 5.37258 24 12ZM23 12C23 18.0751 18.0751 23 12 23C9.14226 23 6.53904 21.9102 4.58324 20.1236L20.1236 4.58324C21.9102 6.53904 23 9.14226 23 12ZM3.87615 19.4165L19.4165 3.87615C17.4607 2.08966 14.8576 1 12 1C5.92487 1 1 5.92487 1 12C1 14.8576 2.08966 17.4607 3.87615 19.4165Z" fill="black"/>
</svg>
