<svg width="24" height="24" viewBox="0 0 24 24" fill="none" xmlns="http://www.w3.org/2000/svg">
<path d="M1 4C1 2.34315 2.34315 1 4 1H7C7.55228 1 8 1.44772 8 2C8 2.55228 7.55228 3 7 3H4C3.44772 3 3 3.44772 3 4V7C3 7.55228 2.55228 8 2 8C1.44772 8 1 7.55228 1 7V4Z" fill="black"/>
<path d="M16 2C16 1.44772 16.4477 1 17 1H20C21.6569 1 23 2.34315 23 4V7C23 7.55228 22.5523 8 22 8C21.4477 8 21 7.55228 21 7V4C21 3.44772 20.5523 3 20 3H17C16.4477 3 16 2.55228 16 2Z" fill="black"/>
<path d="M2 16C2.55228 16 3 16.4477 3 17V20C3 20.5523 3.44772 21 4 21H7C7.55228 21 8 21.4477 8 22C8 22.5523 7.55228 23 7 23H4C2.34315 23 1 21.6569 1 20V17C1 16.4477 1.44772 16 2 16Z" fill="black"/>
<path d="M22 16C22.5523 16 23 16.4477 23 17V20C23 21.6569 21.6569 23 20 23H17C16.4477 23 16 22.5523 16 22C16 21.4477 16.4477 21 17 21H20C20.5523 21 21 20.5523 21 20V17C21 16.4477 21.4477 16 22 16Z" fill="black"/>
<path d="M18 5C18.5523 5 19 5.44772 19 6V10H17V6C17 5.44772 17.4477 5 18 5Z" fill="black"/>
<path d="M19 18C19 18.5523 18.5523 19 18 19C17.4477 19 17 18.5523 17 18V14H19V18Z" fill="black"/>
<path d="M13 18C13 18.5523 13.4477 19 14 19C14.5523 19 15 18.5523 15 18V14H13V18Z" fill="black"/>
<path d="M13 10H15V6C15 5.44772 14.5523 5 14 5C13.4477 5 13 5.44772 13 6V10Z" fill="black"/>
<path d="M11 18C11 18.5523 10.5523 19 10 19C9.44771 19 9 18.5523 9 18V14H11V18Z" fill="black"/>
<path d="M11 6C11 5.44772 10.5523 5 10 5C9.44771 5 9 5.44772 9 6V10H11V6Z" fill="black"/>
<path d="M7 18C7 18.5523 6.55228 19 6 19C5.44772 19 5 18.5523 5 18V14H7V18Z" fill="black"/>
<path d="M5 10H7V6C7 5.44772 6.55228 5 6 5C5.44772 5 5 5.44772 5 6V10Z" fill="black"/>
<path d="M2 11C1.44772 11 1 11.4477 1 12C1 12.5523 1.44772 13 2 13H22C22.5523 13 23 12.5523 23 12C23 11.4477 22.5523 11 22 11H2Z" fill="black"/>
</svg>
