<svg width="24" height="24" viewBox="0 0 24 24" fill="none" xmlns="http://www.w3.org/2000/svg">
<path d="M5.1595 1H6.99805C7.55033 1 7.99805 1.44772 7.99805 2C7.99805 2.55229 7.55033 3 6.99805 3H5.19805C4.6215 3 4.24922 3.00078 3.96588 3.02393C3.69422 3.04613 3.5935 3.0838 3.54406 3.109C3.3559 3.20487 3.20291 3.35785 3.10704 3.54601C3.08185 3.59546 3.04417 3.69618 3.02198 3.96784C2.99883 4.25118 2.99805 4.62345 2.99805 5.2V7C2.99805 7.55229 2.55033 8 1.99805 8C1.44576 8 0.998048 7.55229 0.998048 7V5.16146C0.998029 4.63431 0.998013 4.17955 1.02862 3.80497C1.06092 3.40963 1.13223 3.01641 1.32503 2.63803C1.61265 2.07354 2.07159 1.6146 2.63608 1.32698C3.01446 1.13419 3.40767 1.06287 3.80302 1.03057C4.17758 0.999969 4.63237 0.999984 5.1595 1Z" fill="black"/>
<path d="M20.0302 3.02393C19.7469 3.00078 19.3746 3 18.798 3H16.998C16.4458 3 15.998 2.55229 15.998 2C15.998 1.44772 16.4458 1 16.998 1H18.8366C19.3637 0.999984 19.8185 0.999969 20.1931 1.03057C20.5884 1.06287 20.9816 1.13419 21.36 1.32698C21.9245 1.6146 22.3834 2.07354 22.6711 2.63803C22.8639 3.01641 22.9352 3.40963 22.9675 3.80497C22.9981 4.17954 22.9981 4.6343 22.998 5.16144V7C22.998 7.55229 22.5503 8 21.998 8C21.4458 8 20.998 7.55229 20.998 7V5.2C20.998 4.62345 20.9973 4.25118 20.9741 3.96784C20.9519 3.69618 20.9142 3.59546 20.8891 3.54601C20.7932 3.35785 20.6402 3.20487 20.452 3.109C20.4026 3.0838 20.3019 3.04613 20.0302 3.02393Z" fill="black"/>
<path d="M1.99805 16C2.55033 16 2.99805 16.4477 2.99805 17V18.8C2.99805 19.3766 2.99883 19.7488 3.02198 20.0322C3.04417 20.3038 3.08185 20.4045 3.10704 20.454C3.20291 20.6422 3.3559 20.7951 3.54406 20.891C3.5935 20.9162 3.69422 20.9539 3.96588 20.9761C4.24922 20.9992 4.6215 21 5.19805 21H6.99805C7.55033 21 7.99805 21.4477 7.99805 22C7.99805 22.5523 7.55033 23 6.99805 23H5.15948C4.63234 23 4.17759 23 3.80302 22.9694C3.40767 22.9371 3.01446 22.8658 2.63608 22.673C2.07159 22.3854 1.61265 21.9265 1.32503 21.362C1.13223 20.9836 1.06092 20.5904 1.02862 20.195C0.998013 19.8205 0.998029 19.3657 0.998048 18.8385V17C0.998048 16.4477 1.44576 16 1.99805 16Z" fill="black"/>
<path d="M21.998 16C22.5503 16 22.998 16.4477 22.998 17V18.8386C22.9981 19.3657 22.9981 19.8205 22.9675 20.195C22.9352 20.5904 22.8639 20.9836 22.6711 21.362C22.3834 21.9265 21.9245 22.3854 21.36 22.673C20.9816 22.8658 20.5884 22.9371 20.1931 22.9694C19.8185 23 19.3638 23 18.8366 23H16.998C16.4458 23 15.998 22.5523 15.998 22C15.998 21.4477 16.4458 21 16.998 21H18.798C19.3746 21 19.7469 20.9992 20.0302 20.9761C20.3019 20.9539 20.4026 20.9162 20.452 20.891C20.6402 20.7951 20.7932 20.6422 20.8891 20.454C20.9142 20.4045 20.9519 20.3038 20.9741 20.0322C20.9973 19.7488 20.998 19.3766 20.998 18.8V17C20.998 16.4477 21.4458 16 21.998 16Z" fill="black"/>
<path d="M9.19805 8H14.798C15.3911 8 15.7156 8.00156 15.9488 8.02061L15.9751 8.0229L15.9774 8.04927C15.9965 8.28244 15.998 8.60695 15.998 9.2V10H17.998V9.2C17.998 8.0799 17.998 7.51985 17.7801 7.09202C17.5883 6.7157 17.2824 6.40974 16.906 6.21799C16.4782 6 15.9182 6 14.798 6H9.19805C8.07794 6 7.51789 6 7.09007 6.21799C6.71374 6.40974 6.40778 6.7157 6.21603 7.09202C5.99805 7.51985 5.99805 8.0799 5.99805 9.2V10H7.99805V9.2C7.99805 8.60695 7.9996 8.28244 8.01865 8.04927L8.02094 8.0229L8.04731 8.02061C8.28049 8.00156 8.60499 8 9.19805 8Z" fill="black"/>
<path d="M15.998 14V14.8C15.998 15.3931 15.9965 15.7176 15.9774 15.9507L15.9752 15.9771L15.9488 15.9794C15.7156 15.9984 15.3911 16 14.798 16H9.19805C8.60499 16 8.28049 15.9984 8.04731 15.9794L8.02095 15.9771L8.01865 15.9507C7.9996 15.7176 7.99805 15.3931 7.99805 14.8V14H5.99805V14.8C5.99805 15.9201 5.99805 16.4802 6.21603 16.908C6.40778 17.2843 6.71374 17.5903 7.09007 17.782C7.51789 18 8.07794 18 9.19805 18H14.798C15.9182 18 16.4782 18 16.906 17.782C17.2824 17.5903 17.5883 17.2843 17.7801 16.908C17.998 16.4802 17.998 15.9201 17.998 14.8V14H15.998Z" fill="black"/>
<path d="M1.99805 11C1.44576 11 0.998048 11.4477 0.998048 12C0.998048 12.5523 1.44576 13 1.99805 13H21.998C22.5503 13 22.998 12.5523 22.998 12C22.998 11.4477 22.5503 11 21.998 11H1.99805Z" fill="black"/>
</svg>
