<svg width="24" height="24" viewBox="0 0 24 24" fill="none" xmlns="http://www.w3.org/2000/svg">
<path d="M5.17664 1.5H6.99805C7.27419 1.5 7.49805 1.72386 7.49805 2C7.49805 2.27614 7.27419 2.5 6.99805 2.5H5.19805C4.62974 2.5 4.23359 2.50039 3.92517 2.52559C3.62258 2.55031 3.44874 2.5964 3.31706 2.66349C3.03482 2.8073 2.80535 3.03677 2.66154 3.31901C2.59444 3.45069 2.54836 3.62454 2.52363 3.92712C2.49844 4.23554 2.49805 4.6317 2.49805 5.2V7C2.49805 7.27614 2.27419 7.5 1.99805 7.5C1.7219 7.5 1.49805 7.27614 1.49805 7V5.1786C1.49804 4.6367 1.49804 4.19963 1.52696 3.84569C1.55673 3.48126 1.61964 3.16117 1.77053 2.86502C2.01021 2.39462 2.39267 2.01217 2.86307 1.77248C3.15922 1.62159 3.47931 1.55868 3.84373 1.52891C4.19767 1.49999 4.63475 1.5 5.17664 1.5Z" fill="black"/>
<path d="M20.0709 2.52559C19.7625 2.50039 19.3664 2.5 18.798 2.5H16.998C16.7219 2.5 16.498 2.27614 16.498 2C16.498 1.72386 16.7219 1.5 16.998 1.5H18.8195C19.3613 1.5 19.7984 1.49999 20.1524 1.52891C20.5168 1.55868 20.8369 1.62159 21.133 1.77248C21.6034 2.01217 21.9859 2.39462 22.2256 2.86502C22.3765 3.16117 22.4394 3.48126 22.4691 3.84569C22.4981 4.19963 22.4981 4.6367 22.498 5.17858V7C22.498 7.27614 22.2742 7.5 21.998 7.5C21.7219 7.5 21.498 7.27614 21.498 7V5.2C21.498 4.6317 21.4977 4.23554 21.4725 3.92712C21.4477 3.62454 21.4016 3.45069 21.3346 3.31901C21.1907 3.03677 20.9613 2.8073 20.679 2.66349C20.5474 2.5964 20.3735 2.55031 20.0709 2.52559Z" fill="black"/>
<path d="M1.99805 16.5C2.27419 16.5 2.49805 16.7239 2.49805 17V18.8C2.49805 19.3683 2.49844 19.7645 2.52363 20.0729C2.54836 20.3755 2.59444 20.5493 2.66154 20.681C2.80535 20.9632 3.03482 21.1927 3.31706 21.3365C3.44874 21.4036 3.62258 21.4497 3.92517 21.4744C4.23359 21.4996 4.62974 21.5 5.19805 21.5H6.99805C7.27419 21.5 7.49805 21.7239 7.49805 22C7.49805 22.2761 7.27419 22.5 6.99805 22.5H5.17663C4.63474 22.5 4.19767 22.5 3.84373 22.4711C3.47931 22.4413 3.15922 22.3784 2.86307 22.2275C2.39267 21.9878 2.01021 21.6054 1.77053 21.135C1.61964 20.8388 1.55673 20.5187 1.52696 20.1543C1.49804 19.8004 1.49804 19.3633 1.49805 18.8214V17C1.49805 16.7239 1.7219 16.5 1.99805 16.5Z" fill="black"/>
<path d="M21.998 16.5C22.2742 16.5 22.498 16.7239 22.498 17V18.8214C22.4981 19.3633 22.4981 19.8004 22.4691 20.1543C22.4394 20.5187 22.3765 20.8388 22.2256 21.135C21.9859 21.6054 21.6034 21.9878 21.133 22.2275C20.8369 22.3784 20.5168 22.4413 20.1524 22.4711C19.7984 22.5 19.3614 22.5 18.8195 22.5H16.998C16.7219 22.5 16.498 22.2761 16.498 22C16.498 21.7239 16.7219 21.5 16.998 21.5H18.798C19.3664 21.5 19.7625 21.4996 20.0709 21.4744C20.3735 21.4497 20.5474 21.4036 20.679 21.3365C20.9613 21.1927 21.1907 20.9632 21.3346 20.681C21.4016 20.5493 21.4477 20.3755 21.4725 20.0729C21.4977 19.7645 21.498 19.3683 21.498 18.8V17C21.498 16.7239 21.7219 16.5 21.998 16.5Z" fill="black"/>
<path d="M9.19805 7H14.798C15.3746 7 15.7469 7.00078 16.0302 7.02393C16.3019 7.04612 16.4026 7.0838 16.452 7.10899C16.6402 7.20487 16.7932 7.35785 16.8891 7.54601C16.9142 7.59545 16.9519 7.69617 16.9741 7.96784C16.9973 8.25117 16.998 8.62345 16.998 9.2V10.75H17.998V9.2C17.998 8.0799 17.998 7.51984 17.7801 7.09202C17.5883 6.7157 17.2824 6.40973 16.906 6.21799C16.4782 6 15.9182 6 14.798 6H9.19805C8.07794 6 7.51789 6 7.09007 6.21799C6.71374 6.40973 6.40778 6.7157 6.21603 7.09202C5.99805 7.51984 5.99805 8.0799 5.99805 9.2V10.75H6.99805V9.2C6.99805 8.62345 6.99883 8.25117 7.02197 7.96784C7.04417 7.69617 7.08185 7.59545 7.10704 7.54601C7.20291 7.35785 7.35589 7.20487 7.54406 7.10899C7.5935 7.0838 7.69422 7.04612 7.96588 7.02393C8.24922 7.00078 8.62149 7 9.19805 7Z" fill="black"/>
<path d="M16.998 13.25V14.8C16.998 15.3766 16.9973 15.7488 16.9741 16.0322C16.9519 16.3038 16.9142 16.4045 16.8891 16.454C16.7932 16.6422 16.6402 16.7951 16.452 16.891C16.4026 16.9162 16.3019 16.9539 16.0302 16.9761C15.7469 16.9992 15.3746 17 14.798 17H9.19805C8.62149 17 8.24922 16.9992 7.96588 16.9761C7.69422 16.9539 7.5935 16.9162 7.54406 16.891C7.35589 16.7951 7.20291 16.6422 7.10704 16.454C7.08185 16.4045 7.04417 16.3038 7.02197 16.0322C6.99883 15.7488 6.99805 15.3766 6.99805 14.8V13.25H5.99805V14.8C5.99805 15.9201 5.99805 16.4802 6.21603 16.908C6.40778 17.2843 6.71374 17.5903 7.09007 17.782C7.51789 18 8.07794 18 9.19805 18H14.798C15.9182 18 16.4782 18 16.906 17.782C17.2824 17.5903 17.5883 17.2843 17.7801 16.908C17.998 16.4802 17.998 15.9201 17.998 14.8V13.25H16.998Z" fill="black"/>
<path d="M1.99805 11.5C1.7219 11.5 1.49805 11.7239 1.49805 12C1.49805 12.2761 1.7219 12.5 1.99805 12.5H21.998C22.2742 12.5 22.498 12.2761 22.498 12C22.498 11.7239 22.2742 11.5 21.998 11.5H1.99805Z" fill="black"/>
</svg>
