<svg width="24" height="24" viewBox="0 0 24 24" fill="none" xmlns="http://www.w3.org/2000/svg">
<path d="M1.25 4C1.25 2.48122 2.48122 1.25 4 1.25H7C7.41421 1.25 7.75 1.58579 7.75 2C7.75 2.41421 7.41421 2.75 7 2.75H4C3.30964 2.75 2.75 3.30964 2.75 4V7C2.75 7.41421 2.41421 7.75 2 7.75C1.58579 7.75 1.25 7.41421 1.25 7V4Z" fill="black"/>
<path d="M16.25 2C16.25 1.58579 16.5858 1.25 17 1.25H20C21.5188 1.25 22.75 2.48122 22.75 4V7C22.75 7.41421 22.4142 7.75 22 7.75C21.5858 7.75 21.25 7.41421 21.25 7V4C21.25 3.30964 20.6904 2.75 20 2.75H17C16.5858 2.75 16.25 2.41421 16.25 2Z" fill="black"/>
<path d="M2 16.25C2.41421 16.25 2.75 16.5858 2.75 17V20C2.75 20.6904 3.30964 21.25 4 21.25H7C7.41421 21.25 7.75 21.5858 7.75 22C7.75 22.4142 7.41421 22.75 7 22.75H4C2.48122 22.75 1.25 21.5188 1.25 20V17C1.25 16.5858 1.58579 16.25 2 16.25Z" fill="black"/>
<path d="M22 16.25C22.4142 16.25 22.75 16.5858 22.75 17V20C22.75 21.5188 21.5188 22.75 20 22.75H17C16.5858 22.75 16.25 22.4142 16.25 22C16.25 21.5858 16.5858 21.25 17 21.25H20C20.6904 21.25 21.25 20.6904 21.25 20V17C21.25 16.5858 21.5858 16.25 22 16.25Z" fill="black"/>
<path d="M18 5.25C18.4142 5.25 18.75 5.58579 18.75 6V10.25H17.25V6C17.25 5.58579 17.5858 5.25 18 5.25Z" fill="black"/>
<path d="M18.75 13.75V18C18.75 18.4142 18.4142 18.75 18 18.75C17.5858 18.75 17.25 18.4142 17.25 18V13.75H18.75Z" fill="black"/>
<path d="M13.25 13.75V18C13.25 18.4142 13.5858 18.75 14 18.75C14.4142 18.75 14.75 18.4142 14.75 18V13.75H13.25Z" fill="black"/>
<path d="M14.75 10.25V6C14.75 5.58579 14.4142 5.25 14 5.25C13.5858 5.25 13.25 5.58579 13.25 6V10.25H14.75Z" fill="black"/>
<path d="M10.75 13.75V18C10.75 18.4142 10.4142 18.75 10 18.75C9.58579 18.75 9.25 18.4142 9.25 18V13.75H10.75Z" fill="black"/>
<path d="M10.75 10.25V6C10.75 5.58579 10.4142 5.25 10 5.25C9.58579 5.25 9.25 5.58579 9.25 6V10.25H10.75Z" fill="black"/>
<path d="M6.75 13.75V18C6.75 18.4142 6.41421 18.75 6 18.75C5.58579 18.75 5.25 18.4142 5.25 18V13.75H6.75Z" fill="black"/>
<path d="M6.75 10.25V6C6.75 5.58579 6.41421 5.25 6 5.25C5.58579 5.25 5.25 5.58579 5.25 6V10.25H6.75Z" fill="black"/>
<path d="M2 11.25C1.58579 11.25 1.25 11.5858 1.25 12C1.25 12.4142 1.58579 12.75 2 12.75H22C22.4142 12.75 22.75 12.4142 22.75 12C22.75 11.5858 22.4142 11.25 22 11.25H2Z" fill="black"/>
</svg>
