<svg width="24" height="24" viewBox="0 0 24 24" fill="none" xmlns="http://www.w3.org/2000/svg">
<path d="M5.16761 1.25H6.99805C7.41226 1.25 7.74805 1.58579 7.74805 2C7.74805 2.41421 7.41226 2.75 6.99805 2.75H5.19805C4.62562 2.75 4.2414 2.75058 3.94552 2.77476C3.6584 2.79822 3.52112 2.8401 3.43056 2.88624C3.19536 3.00608 3.00413 3.19731 2.88429 3.43251C2.83815 3.52307 2.79626 3.66036 2.7728 3.94748C2.74863 4.24336 2.74805 4.62757 2.74805 5.2V7C2.74805 7.41422 2.41226 7.75 1.99805 7.75C1.58383 7.75 1.24805 7.41422 1.24805 7V5.16957C1.24804 4.63541 1.24803 4.18956 1.27779 3.82533C1.30882 3.44545 1.37594 3.08879 1.54778 2.75153C1.81143 2.23408 2.23213 1.81339 2.74957 1.54973C3.08684 1.37789 3.44349 1.31078 3.82338 1.27974C4.18761 1.24998 4.63346 1.24999 5.16761 1.25Z" fill="black"/>
<path d="M20.0506 2.77476C19.7547 2.75058 19.3705 2.75 18.798 2.75H16.998C16.5838 2.75 16.248 2.41421 16.248 2C16.248 1.58579 16.5838 1.25 16.998 1.25H18.8285C19.3626 1.24999 19.8085 1.24998 20.1727 1.27974C20.5526 1.31078 20.9093 1.37789 21.2465 1.54973C21.764 1.81339 22.1847 2.23408 22.4483 2.75153C22.6202 3.08879 22.6873 3.44545 22.7183 3.82533C22.7481 4.18956 22.7481 4.6354 22.748 5.16955V7C22.748 7.41422 22.4123 7.75 21.998 7.75C21.5838 7.75 21.248 7.41422 21.248 7V5.2C21.248 4.62757 21.2475 4.24336 21.2233 3.94748C21.1998 3.66036 21.1579 3.52307 21.1118 3.43251C20.992 3.19731 20.8007 3.00608 20.5655 2.88624C20.475 2.8401 20.3377 2.79822 20.0506 2.77476Z" fill="black"/>
<path d="M1.99805 16.25C2.41226 16.25 2.74805 16.5858 2.74805 17V18.8C2.74805 19.3724 2.74863 19.7566 2.7728 20.0525C2.79626 20.3396 2.83815 20.4769 2.88429 20.5675C3.00413 20.8027 3.19536 20.9939 3.43056 21.1138C3.52112 21.1599 3.6584 21.2018 3.94552 21.2252C4.2414 21.2494 4.62562 21.25 5.19805 21.25H6.99805C7.41226 21.25 7.74805 21.5858 7.74805 22C7.74805 22.4142 7.41226 22.75 6.99805 22.75H5.1676C4.63345 22.75 4.18761 22.75 3.82338 22.7203C3.44349 22.6892 3.08684 22.6221 2.74957 22.4503C2.23213 22.1866 1.81143 21.7659 1.54778 21.2485C1.37594 20.9112 1.30882 20.5546 1.27779 20.1747C1.24803 19.8104 1.24804 19.3646 1.24805 18.8304V17C1.24805 16.5858 1.58383 16.25 1.99805 16.25Z" fill="black"/>
<path d="M21.998 16.25C22.4123 16.25 22.748 16.5858 22.748 17V18.8305C22.7481 19.3646 22.7481 19.8104 22.7183 20.1747C22.6873 20.5546 22.6202 20.9112 22.4483 21.2485C22.1847 21.7659 21.764 22.1866 21.2465 22.4503C20.9093 22.6221 20.5526 22.6892 20.1727 22.7203C19.8085 22.75 19.3626 22.75 18.8285 22.75H16.998C16.5838 22.75 16.248 22.4142 16.248 22C16.248 21.5858 16.5838 21.25 16.998 21.25H18.798C19.3705 21.25 19.7547 21.2494 20.0506 21.2252C20.3377 21.2018 20.475 21.1599 20.5655 21.1138C20.8007 20.9939 20.992 20.8027 21.1118 20.5675C21.1579 20.4769 21.1998 20.3396 21.2233 20.0525C21.2475 19.7566 21.248 19.3724 21.248 18.8V17C21.248 16.5858 21.5838 16.25 21.998 16.25Z" fill="black"/>
<path fill-rule="evenodd" clip-rule="evenodd" d="M9.19805 7.5H14.798C15.3829 7.5 15.7312 7.50117 15.9895 7.52227C16.1471 7.53515 16.2134 7.55214 16.2311 7.55765C16.3204 7.60469 16.3934 7.67765 16.4404 7.76693C16.4459 7.78469 16.4629 7.85094 16.4758 8.00855C16.4969 8.26681 16.498 8.6152 16.498 9.2V10.5H17.998V9.2C17.998 8.0799 17.998 7.51984 17.7801 7.09202C17.5883 6.7157 17.2824 6.40974 16.906 6.21799C16.4782 6 15.9182 6 14.798 6H9.19805C8.07794 6 7.51789 6 7.09007 6.21799C6.71374 6.40974 6.40778 6.7157 6.21603 7.09202C5.99805 7.51984 5.99805 8.0799 5.99805 9.2V10.5H7.49805V9.2C7.49805 8.6152 7.49921 8.26681 7.52031 8.00855C7.53319 7.85094 7.55018 7.78469 7.55569 7.76693C7.60273 7.67765 7.67569 7.60469 7.76497 7.55765C7.78273 7.55214 7.84898 7.53515 8.0066 7.52227C8.26485 7.50117 8.61324 7.5 9.19805 7.5ZM16.2363 7.55946L16.2333 7.55834C16.2354 7.55904 16.2364 7.55943 16.2363 7.55946ZM16.4386 7.76175C16.4386 7.76169 16.439 7.76265 16.4397 7.76479L16.4386 7.76175ZM7.5575 7.76175C7.55749 7.76172 7.55767 7.76133 7.5575 7.76175ZM7.7598 7.55946C7.75974 7.55943 7.76069 7.55904 7.76283 7.55834L7.7598 7.55946Z" fill="black"/>
<path fill-rule="evenodd" clip-rule="evenodd" d="M16.498 13.5V14.8C16.498 15.3848 16.4969 15.7332 16.4758 15.9914C16.4629 16.1491 16.4459 16.2153 16.4404 16.2331C16.3934 16.3224 16.3204 16.3953 16.2311 16.4424C16.2134 16.4479 16.1471 16.4649 15.9895 16.4777C15.7312 16.4988 15.3829 16.5 14.798 16.5H9.19805C8.61324 16.5 8.26485 16.4988 8.0066 16.4777C7.84898 16.4649 7.78273 16.4479 7.76497 16.4424C7.67569 16.3953 7.60273 16.3224 7.55569 16.2331C7.55018 16.2153 7.53319 16.1491 7.52031 15.9914C7.49921 15.7332 7.49805 15.3848 7.49805 14.8V13.5H5.99805V14.8C5.99805 15.9201 5.99805 16.4802 6.21603 16.908C6.40778 17.2843 6.71374 17.5903 7.09007 17.782C7.51789 18 8.07794 18 9.19805 18H14.798C15.9182 18 16.4782 18 16.906 17.782C17.2824 17.5903 17.5883 17.2843 17.7801 16.908C17.998 16.4802 17.998 15.9201 17.998 14.8V13.5H16.498ZM16.4386 16.2383L16.4397 16.2352C16.439 16.2374 16.4386 16.2383 16.4386 16.2383ZM16.2363 16.4405C16.2364 16.4406 16.2354 16.441 16.2333 16.4417L16.2363 16.4405ZM7.7598 16.4405L7.7628 16.4417C7.76068 16.441 7.75974 16.4406 7.7598 16.4405ZM7.5575 16.2383C7.55748 16.2383 7.55709 16.2374 7.55638 16.2352L7.5575 16.2383Z" fill="black"/>
<path d="M1.99805 11.25C1.58383 11.25 1.24805 11.5858 1.24805 12C1.24805 12.4142 1.58383 12.75 1.99805 12.75H21.998C22.4123 12.75 22.748 12.4142 22.748 12C22.748 11.5858 22.4123 11.25 21.998 11.25H1.99805Z" fill="black"/>
</svg>
