<svg width="24" height="24" viewBox="0 0 24 24" fill="none" xmlns="http://www.w3.org/2000/svg">
<path fill-rule="evenodd" clip-rule="evenodd" d="M12.0009 24C12.5811 24 13.1516 23.9588 13.7098 23.8793C13.7098 23.8792 13.7097 23.8793 13.7098 23.8793C16.3106 23.5082 18.6429 22.303 20.4266 20.5436C20.4267 20.5438 20.4265 20.5433 20.4266 20.5436C21.0625 19.9164 21.6289 19.2195 22.1128 18.4642C22.1126 18.4639 22.113 18.4644 22.1128 18.4642C23.0936 16.9329 23.7356 15.1634 23.9344 13.2626C23.9347 13.2625 23.9341 13.2627 23.9344 13.2626C23.9777 12.8477 24.0009 12.4263 24.0009 12C24.0009 11.5396 23.975 11.0853 23.9245 10.6384C23.9242 10.6385 23.9248 10.6383 23.9245 10.6384C23.7831 9.38569 23.4479 8.19168 22.9511 7.0862C22.9512 7.08579 22.9513 7.08538 22.9514 7.08496C22.6199 6.34742 22.216 5.64942 21.7488 5C19.8854 2.4097 17.0142 0.59231 13.71 0.120907C13.7099 0.120853 13.71 0.12096 13.71 0.120907C13.1518 0.0413303 12.5811 -2.5355e-08 12.0009 0C12.0006 0 12.0012 0 12.0009 0C11.9491 2.26733e-09 11.8965 0.000328069 11.8449 0.000982291C5.28896 0.0840247 -2.8743e-07 5.42436 0 12C2.89694e-07 18.6274 5.37351 24 12.0009 24ZM12.6528 21.4779C12.4371 21.4926 12.2194 21.5 12 21.5C11.1862 21.5 10.3962 21.3977 9.64236 21.2052C10.8747 20.4249 12.0569 19.6935 13.2158 19.1457C13.6563 18.9375 14.0807 18.7621 14.49 18.6233C14.3007 19.0632 14.0938 19.475 13.8719 19.8554C13.4893 20.5113 13.0785 21.0503 12.6528 21.4779ZM12.6528 2.52208C12.4371 2.50744 12.2194 2.5 12 2.5C10.1071 2.5 8.34343 3.05364 6.8622 4.00782C7.7394 4.48722 8.62248 5.02159 9.48249 5.542L9.71115 5.68034C11.0631 6.49779 12.3624 7.27246 13.6222 7.8471C14.2611 8.13855 14.864 8.36604 15.4322 8.51977C15.1109 6.82545 14.5644 5.33176 13.8719 4.14456C13.4893 3.4887 13.0785 2.94968 12.6528 2.52208ZM4.83129 5.76604C3.62275 7.15462 2.81102 8.89768 2.57274 10.8186C6.14442 12.0104 10.8074 12.8519 15.7481 12.3849C15.7506 12.2572 15.7519 12.1289 15.7519 12C15.7519 11.7108 15.7455 11.4247 15.7331 11.142C14.6569 10.9642 13.5965 10.5832 12.5847 10.1216C11.1726 9.47754 9.75316 8.62721 8.4176 7.81967L8.22519 7.70329C7.02936 6.9799 5.90478 6.29961 4.83129 5.76604ZM2.6107 13.4549C3.03256 16.1998 4.62937 18.5575 6.87146 19.9981C7.22842 19.7758 7.59203 19.5451 7.96344 19.3095L8.14495 19.1944C9.41781 18.3872 10.7777 17.533 12.1473 16.8855C13.1688 16.4027 14.2492 16.008 15.3603 15.8389C15.4242 15.537 15.481 15.2283 15.5301 14.9133C10.7432 15.2964 6.23443 14.5631 2.6107 13.4549ZM16.411 3.58395C17.154 5.05457 17.698 6.7848 17.9947 8.66646C19.014 8.48076 19.6196 8.00971 20.0019 7.5C20.0737 7.40417 20.1398 7.30408 20.2003 7.2006C19.302 5.66914 17.987 4.41168 16.411 3.58395ZM21.2476 9.81557C20.4806 10.4883 19.4832 10.9697 18.2359 11.1599C18.2465 11.438 18.2519 11.7181 18.2519 12L18.2518 12.047C19.4163 11.8499 20.495 11.6147 21.4789 11.3614C21.4438 10.8331 21.3656 10.3167 21.2476 9.81557ZM21.293 13.9818C20.2996 14.2159 19.2316 14.4284 18.0962 14.6049C18.0444 15.0321 17.98 15.4524 17.9036 15.8647C18.7985 16.0171 19.5793 16.3148 20.2478 16.7174C20.7292 15.8777 21.0859 14.9574 21.293 13.9818ZM18.7118 18.7232C18.3146 18.5228 17.8428 18.372 17.2835 18.2989C17.0353 19.05 16.743 19.7589 16.411 20.4161C17.2623 19.969 18.0374 19.3965 18.7118 18.7232Z" fill="black"/>
</svg>
