<svg width="24" height="24" viewBox="0 0 24 24" fill="none" xmlns="http://www.w3.org/2000/svg">
<path fill-rule="evenodd" clip-rule="evenodd" d="M12.0017 24C12.5818 24 13.1523 23.9588 13.7105 23.8793C13.7106 23.8792 13.7104 23.8793 13.7105 23.8793C16.3114 23.5082 18.6436 22.303 20.4273 20.5436C20.4274 20.5438 20.4272 20.5433 20.4273 20.5436C21.0632 19.9164 21.6297 19.2195 22.1135 18.4642C22.1134 18.4639 22.1137 18.4644 22.1135 18.4642C23.0943 16.9329 23.7364 15.1634 23.9351 13.2626C23.9354 13.2625 23.9348 13.2627 23.9351 13.2626C23.9785 12.8477 24.0017 12.4263 24.0017 12C24.0017 11.5396 23.9757 11.0853 23.9253 10.6384C23.925 10.6385 23.9256 10.6383 23.9253 10.6384C23.7838 9.38569 23.4486 8.19168 22.9518 7.0862C22.9519 7.08579 22.952 7.08538 22.9522 7.08496C22.6206 6.34742 22.2167 5.64942 21.7496 5C19.8862 2.4097 17.0149 0.59231 13.7107 0.120907C13.7106 0.120853 13.7108 0.12096 13.7107 0.120907C13.1525 0.0413303 12.5818 -2.5355e-08 12.0017 0C12.0013 0 12.002 0 12.0017 0C11.9499 2.26733e-09 11.8973 0.000328069 11.8456 0.000982291C5.2897 0.0840247 0.000732134 5.42436 0.000732422 12C0.000732712 18.6274 5.37424 24 12.0017 24ZM12.6535 21.4779C12.4378 21.4926 12.2201 21.5 12.0007 21.5C11.1869 21.5 10.397 21.3977 9.64309 21.2052C10.8754 20.4249 12.0577 19.6935 13.2165 19.1457C13.657 18.9375 14.0814 18.7621 14.4907 18.6233C14.3014 19.0632 14.0945 19.475 13.8726 19.8554C13.49 20.5113 13.0793 21.0503 12.6535 21.4779ZM12.6535 2.52208C12.4378 2.50744 12.2201 2.5 12.0007 2.5C10.1078 2.5 8.34416 3.05364 6.86293 4.00782C7.74013 4.48722 8.62321 5.02159 9.48322 5.542L9.71188 5.68034C11.0638 6.49779 12.3631 7.27246 13.6229 7.8471C14.2619 8.13855 14.8648 8.36604 15.433 8.51977C15.1116 6.82545 14.5652 5.33176 13.8726 4.14456C13.49 3.4887 13.0793 2.94968 12.6535 2.52208ZM4.83203 5.76604C3.62348 7.15462 2.81175 8.89768 2.57347 10.8186C6.14515 12.0104 10.8081 12.8519 15.7489 12.3849C15.7513 12.2572 15.7526 12.1289 15.7526 12C15.7526 11.7108 15.7463 11.4247 15.7339 11.142C14.6576 10.9642 13.5972 10.5832 12.5854 10.1216C11.1733 9.47754 9.75389 8.62721 8.41834 7.81967L8.22593 7.70329C7.03009 6.9799 5.90551 6.29961 4.83203 5.76604ZM2.61144 13.4549C3.03329 16.1998 4.6301 18.5575 6.87219 19.9981C7.22915 19.7758 7.59276 19.5451 7.96417 19.3095L8.14568 19.1944C9.41854 18.3872 10.7784 17.533 12.1481 16.8855C13.1695 16.4027 14.2499 16.008 15.361 15.8389C15.425 15.537 15.4818 15.2283 15.5308 14.9133C10.7439 15.2964 6.23517 14.5631 2.61144 13.4549ZM16.4117 3.58395C17.1548 5.05457 17.6988 6.7848 17.9954 8.66646C19.0147 8.48076 19.6203 8.00971 20.0026 7.5C20.0745 7.40417 20.1405 7.30408 20.201 7.2006C19.3028 5.66914 17.9878 4.41168 16.4117 3.58395ZM21.2484 9.81557C20.4814 10.4883 19.484 10.9697 18.2367 11.1599C18.2472 11.438 18.2526 11.7181 18.2526 12L18.2526 12.047C19.4171 11.8499 20.4958 11.6147 21.4796 11.3614C21.4445 10.8331 21.3663 10.3167 21.2484 9.81557ZM21.2937 13.9818C20.3003 14.2159 19.2324 14.4284 18.0969 14.6049C18.0451 15.0321 17.9808 15.4524 17.9044 15.8647C18.7992 16.0171 19.58 16.3148 20.2486 16.7174C20.7299 15.8777 21.0867 14.9574 21.2937 13.9818ZM18.7126 18.7232C18.3153 18.5228 17.8436 18.372 17.2842 18.2989C17.036 19.05 16.7437 19.7589 16.4117 20.4161C17.263 19.969 18.0381 19.3965 18.7126 18.7232Z" fill="black"/>
</svg>
