<svg width="24" height="24" viewBox="0 0 24 24" fill="none" xmlns="http://www.w3.org/2000/svg">
<path d="M23.9857 11.4082C22.2349 11.9862 20.0395 12.5521 17.483 12.9275C17.4944 12.6209 17.5002 12.3116 17.5002 11.9999C17.5002 11.826 17.4984 11.6529 17.4948 11.4805C19.4173 11.3266 20.6688 10.2757 21.4299 9.00714C22.0012 8.05501 22.2999 6.97929 22.4261 6.05474C23.3358 7.6466 23.8914 9.46686 23.9857 11.4082Z" fill="black"/>
<path d="M23.9914 12.4578C22.1884 13.0347 19.9732 13.5846 17.4239 13.9464C17.3819 14.4761 17.3231 14.9962 17.2484 15.5047C19.311 15.5851 20.6367 16.6707 21.4299 17.9926C21.595 18.2678 21.7373 18.5533 21.8593 18.8425C23.1275 17.0185 23.9026 14.826 23.9914 12.4578Z" fill="black"/>
<path d="M21.1399 19.7761C21 19.3428 20.8139 18.9096 20.5724 18.5071C19.9066 17.3975 18.8285 16.5255 17.0789 16.5004C16.7177 18.363 16.1376 20.0413 15.3902 21.4293C14.8718 22.3921 14.2613 23.2335 13.5751 23.8975C16.5941 23.5017 19.2599 21.9837 21.1399 19.7761Z" fill="black"/>
<path d="M12 24C5.37258 24 2.89694e-07 18.6274 0 12C-2.89255e-07 5.38261 5.35633 0.0162643 11.9699 3.05176e-05C11.9141 0.000171664 11.8584 0.000696187 11.8027 0.00159646C12.8014 0.567564 13.7325 1.60109 14.5097 3.04456C15.5503 4.9771 16.2636 7.56324 16.4511 10.4679C15.4753 10.3568 14.4337 9.96349 13.3356 9.38556C12.0317 8.69927 10.6972 7.77989 9.34977 6.83983L9.13025 6.68661C7.86595 5.80394 6.59031 4.91335 5.36004 4.23406C4.77831 3.91286 4.19383 3.63132 3.61289 3.41857C3.35091 3.67469 3.10061 3.94269 2.86287 4.22173C3.49329 4.41164 4.16508 4.71657 4.87668 5.10948C6.0592 5.7624 7.29454 6.62474 8.57332 7.5174L8.77758 7.65996C10.1177 8.59489 11.5019 9.55052 12.8699 10.2705C14.0667 10.9004 15.2888 11.3709 16.4946 11.4772C16.4983 11.6505 16.5002 11.8248 16.5002 11.9999C16.5002 12.3577 16.4923 12.7118 16.4767 13.0617C10.0495 13.8153 4.02972 12.3622 0.0732588 10.6749C0.035091 11.0224 0.0117583 11.3743 0.00390624 11.73C4.05548 13.3993 10.0236 14.7852 16.4096 14.0759C16.3651 14.5789 16.3049 15.0714 16.2299 15.5516C15.1103 15.6985 13.9792 16.1455 12.8699 16.7293C11.5019 17.4493 10.1177 18.4049 8.77758 19.3398L8.57332 19.4824C7.35979 20.3295 6.18536 21.1493 5.05809 21.7888C5.36259 22.0051 5.67762 22.2076 6.00227 22.3954C7.03129 21.7786 8.08464 21.0432 9.13022 20.3132L9.34976 20.16C10.6972 19.2199 12.0317 18.3005 13.3356 17.6142C14.2809 17.1167 15.1844 16.756 16.04 16.5944C15.6939 18.2526 15.1671 19.7343 14.5097 20.9552C13.7324 22.3989 12.8012 23.4325 11.8024 23.9984C11.8684 23.9995 11.9337 24 12 24Z" fill="black"/>
<path d="M13.5754 0.102474C14.2614 0.766462 14.8718 1.60776 15.3902 2.57046C16.519 4.66671 17.2662 7.425 17.4539 10.4803C18.9847 10.3448 19.9556 9.52073 20.5724 8.49265C21.2637 7.34056 21.5012 5.93615 21.5012 4.99989V4.66912C19.6096 2.2212 16.7931 0.524418 13.5754 0.102474Z" fill="black"/>
</svg>
