<svg width="24" height="24" viewBox="0 0 24 24" fill="none" xmlns="http://www.w3.org/2000/svg">
<path d="M23.9955 11.6685C22.1721 12.2661 19.8822 12.8468 17.2167 13.2184C17.24 12.8175 17.2519 12.411 17.2519 12C17.2519 11.7467 17.2473 11.4951 17.2384 11.2454C19.2042 11.169 20.459 10.1407 21.2162 8.87862C21.8339 7.84914 22.123 6.66334 22.2164 5.70197C23.2931 7.4448 23.9363 9.48379 23.9955 11.6685Z" fill="black"/>
<path d="M23.9985 12.1933C22.1465 12.7908 19.8445 13.3635 17.1807 13.7281C17.123 14.4225 17.031 15.0984 16.9076 15.7508C16.9391 15.7503 16.9705 15.75 17.0019 15.75C19.1042 15.75 20.429 16.8094 21.2162 18.1214C21.402 18.431 21.5581 18.7549 21.6881 19.0824C23.1063 17.1458 23.9578 14.768 23.9985 12.1933Z" fill="black"/>
<path d="M21.3283 19.5494C19.1282 22.2644 15.7668 24 12 24C5.37258 24 2.89694e-07 18.6274 0 12C-2.89694e-07 5.37258 5.37258 2.89694e-07 12 0C16.0175 -1.7561e-07 19.5739 1.97425 21.7519 5.00551C21.7509 5.97364 21.5068 7.42261 20.7875 8.62138C20.1017 9.76434 18.988 10.6783 17.2146 10.746C17.0439 7.89381 16.297 5.32491 15.1676 3.38875C14.2022 1.73383 12.9405 0.517 11.503 0.0101414C10.9938 0.0309239 10.4928 0.0834389 10.0019 0.165758V0.25C11.809 0.25 13.4913 1.50754 14.7357 3.64069C15.8154 5.49166 16.5428 7.9696 16.7134 10.7414C15.6069 10.6765 14.4352 10.2465 13.2199 9.6069C11.8999 8.91219 10.553 7.98375 9.20742 7.04497L8.9915 6.89426C7.72375 6.00921 6.45821 5.12571 5.2399 4.45302C4.62578 4.11394 4.01635 3.82412 3.41754 3.61396C3.28954 3.74496 3.16451 3.87888 3.04256 4.0156C3.66628 4.21433 4.3194 4.51592 4.99822 4.89073C6.19266 5.55024 7.43804 6.41961 8.71304 7.30966L8.92133 7.45503C10.2632 8.39125 11.6351 9.33781 12.987 10.0494C14.2469 10.7124 15.5109 11.1833 16.738 11.2435C16.7472 11.4936 16.7519 11.7458 16.7519 12C16.7519 12.4345 16.7382 12.8633 16.7117 13.2853C10.1962 14.0956 4.08078 12.6419 0.0475025 10.9354C0.0321347 11.1102 0.0205175 11.2861 0.0127273 11.463C4.09343 13.16 10.18 14.5791 16.6732 13.7938C16.6126 14.4788 16.5178 15.144 16.392 15.7841C15.274 15.9066 14.1288 16.3497 12.987 16.9506C11.6351 17.6622 10.2632 18.6087 8.92133 19.545L8.71304 19.6903C7.54015 20.5091 6.3923 21.3104 5.28614 21.9469C5.44094 22.0516 5.59831 22.1528 5.75814 22.2503C6.81527 21.625 7.90256 20.866 8.99148 20.1057L9.20742 19.955C10.553 19.0163 11.8999 18.0878 13.2199 17.3931C14.2786 16.8359 15.3042 16.4378 16.2824 16.3015C15.9325 17.8402 15.401 19.2188 14.7357 20.3593C13.4913 22.4925 11.809 23.75 10.0019 23.75V23.8342C10.4928 23.9166 10.9938 23.9691 11.503 23.9899C12.9405 23.483 14.2022 22.2662 15.1676 20.6112C15.8837 19.3835 16.4461 17.9014 16.8052 16.254C16.871 16.2513 16.9366 16.25 17.0019 16.25C18.8996 16.25 20.0747 17.1906 20.7875 18.3786C21.0115 18.752 21.1894 19.1496 21.3283 19.5494Z" fill="black"/>
</svg>
