<svg width="24" height="24" viewBox="0 0 24 24" fill="none" xmlns="http://www.w3.org/2000/svg">
<path fill-rule="evenodd" clip-rule="evenodd" d="M12.0017 24C12.2324 24 12.4616 23.9935 12.6892 23.9806C12.6892 23.9806 12.6891 23.9807 12.6892 23.9806C15.9673 23.7952 18.8936 22.2939 20.9481 19.9967C20.9482 19.9969 20.948 19.9964 20.9481 19.9967C21.3406 19.5579 21.7016 19.0908 22.0269 18.5975C22.0267 18.5973 22.027 18.5978 22.0269 18.5975C23.1502 16.8937 23.8505 14.8858 23.9792 12.7247C23.9795 12.7246 23.9789 12.7248 23.9792 12.7247C23.9935 12.485 24.0017 12.2432 24.0017 12C24.0017 11.7142 23.9917 11.4308 23.972 11.15C23.9717 11.1501 23.9723 11.1499 23.972 11.15C23.853 9.44941 23.3788 7.84681 22.6246 6.41497C22.6246 6.41453 22.6247 6.41409 22.6248 6.41366C22.2761 5.75198 21.8674 5.12683 21.406 4.54547C21.4058 4.54567 21.4061 4.54527 21.406 4.54547C19.3411 1.94366 16.2189 0.219089 12.6893 0.0194225C12.6892 0.0194034 12.6893 0.0194416 12.6893 0.0194225C12.5274 0.0102825 12.3646 0.00430678 12.2012 0.00164031C12.1603 0.000970834 12.1193 0.000505442 12.0783 0.000246045C12.0528 8.58285e-05 12.0272 -1.11406e-09 12.0017 0C12.0013 0 12.002 0 12.0017 0C11.9499 2.26733e-09 11.8973 0.000328069 11.8456 0.000982291C5.2897 0.0840247 0.000732134 5.42436 0.000732422 12C0.000732712 18.6274 5.37424 24 12.0017 24ZM12.2196 22.4978C12.1468 22.4993 12.0739 22.5 12.0007 22.5C10.4764 22.5 9.02792 22.1752 7.72075 21.591C8.23862 21.2417 8.757 20.8798 9.27124 20.5208L9.49424 20.3651C10.8435 19.4238 12.1655 18.5134 13.4535 17.8356C14.2073 17.4388 14.9243 17.1357 15.6036 16.9518C15.2742 18.1379 14.8315 19.2039 14.3045 20.1074C13.6864 21.1671 12.9759 21.9692 12.2196 22.4978ZM12.2196 1.50224C12.1468 1.50075 12.0739 1.5 12.0007 1.5C9.45342 1.5 7.11797 2.40709 5.29978 3.91588C5.36072 3.94861 5.42157 3.98177 5.48232 4.01531C6.72453 4.7012 8.0103 5.59889 9.27123 6.47924L9.49424 6.6349C10.8435 7.57625 12.1655 8.48657 13.4535 9.16444C14.4197 9.67298 15.3256 10.0278 16.1691 10.1746C15.9414 7.71353 15.2624 5.53466 14.3045 3.89262C13.6864 2.83291 12.9759 2.0308 12.2196 1.50224ZM4.16031 5.01573C2.7163 6.63561 1.76678 8.70587 1.54873 10.9895C5.37478 12.3928 10.6433 13.4515 16.2352 12.8378C16.2467 12.5614 16.2526 12.282 16.2526 12C16.2526 11.9006 16.2519 11.8015 16.2504 11.7027C15.0711 11.5573 13.8922 11.0904 12.7549 10.4918C11.3709 9.76343 9.97421 8.79875 8.63597 7.8651L8.4359 7.72546C7.1532 6.8301 5.92788 5.97479 4.75727 5.32844C4.55407 5.21625 4.35509 5.11186 4.16031 5.01573ZM1.51598 12.5707C1.69981 16.0028 3.53179 18.9971 6.23463 20.7765C6.94895 20.3125 7.68253 19.8004 8.43589 19.2745L8.63597 19.1349C9.97421 18.2012 11.3709 17.2366 12.7549 16.5082C13.8011 15.9575 14.8826 15.5183 15.9672 15.3383C16.0235 15.018 16.072 14.6913 16.1122 14.3589C10.598 14.912 5.41524 13.9309 1.51598 12.5707ZM14.7307 1.85841C15.0438 2.25243 15.3343 2.68098 15.6002 3.13682C16.7056 5.03181 17.4481 7.48767 17.6774 10.203C18.9762 10.0143 19.8108 9.27864 20.3595 8.36413C20.681 7.82822 20.9009 7.23248 21.0421 6.65784C19.6624 4.32791 17.4078 2.57727 14.7307 1.85841ZM21.9367 8.59621C21.8484 8.77896 21.7516 8.95939 21.6457 9.13587C20.8811 10.4102 19.6338 11.4814 17.7506 11.7065C17.7519 11.8041 17.7526 11.9019 17.7526 12C17.7526 12.2131 17.7495 12.4251 17.7433 12.6358C19.5183 12.362 21.1115 11.9974 22.4934 11.6049C22.4546 10.5553 22.2617 9.5451 21.9367 8.59621ZM22.4355 13.1774C21.0169 13.5611 19.4106 13.9091 17.6427 14.1678C17.6045 14.5403 17.5566 14.9076 17.4994 15.2689C19.1506 15.3963 20.3359 16.1577 21.1498 17.1559C21.8272 15.9564 22.2755 14.6105 22.4355 13.1774ZM20.2626 18.4809C19.646 17.535 18.6973 16.8135 17.2042 16.754C16.8337 18.292 16.287 19.6858 15.6002 20.8632C15.3343 21.319 15.0438 21.7476 14.7307 22.1416C16.9515 21.5453 18.8816 20.2389 20.2626 18.4809Z" fill="black"/>
</svg>
