<svg width="24" height="24" viewBox="0 0 24 24" fill="none" xmlns="http://www.w3.org/2000/svg">
<path fill-rule="evenodd" clip-rule="evenodd" d="M21.3293 19.5502C21.3294 19.5504 21.3292 19.5499 21.3293 19.5502C21.4529 19.3976 21.5729 19.2419 21.6891 19.0833C21.689 19.083 21.6892 19.0835 21.6891 19.0833C23.1073 17.1466 23.9585 14.768 23.9992 12.1933C23.9995 12.1932 23.9989 12.1934 23.9992 12.1933C24.0002 12.1291 24.0017 12.0645 24.0017 12C24.0017 11.889 24.0001 11.7784 23.9972 11.6682C23.9969 11.6683 23.9975 11.6681 23.9972 11.6682C23.9379 9.48349 23.2938 7.4448 22.2171 5.70197C22.2172 5.70154 22.2172 5.70111 22.2173 5.70068C22.0703 5.46289 21.9153 5.23062 21.7526 5.00424C21.7526 5.00466 21.7526 5.00508 21.7526 5.00551C19.5746 1.97425 16.0182 -1.7561e-07 12.0007 0C5.37332 2.89694e-07 0.000732132 5.37258 0.000732422 12C0.000732712 18.6274 5.37332 24 12.0007 24C15.7675 24 19.1292 22.2652 21.3293 19.5502ZM12.536 23.4878C16.029 23.3277 19.1156 21.6094 21.1166 19.0117C21.0203 18.7958 20.9112 18.5836 20.7882 18.3786C20.0754 17.1906 18.9003 16.25 17.0026 16.25C16.9373 16.25 16.8718 16.2513 16.806 16.254C16.4468 17.9014 15.8845 19.3835 15.1683 20.6112C14.4416 21.857 13.547 22.8545 12.536 23.4878ZM21.7014 5.821C19.7491 2.76239 16.39 0.688803 12.536 0.512236C13.547 1.14554 14.4416 2.14303 15.1683 3.38875C16.2977 5.32491 17.0446 7.89381 17.2153 10.746C18.9887 10.6783 20.1025 9.76434 20.7882 8.62138C21.3255 7.72597 21.5977 6.69095 21.7014 5.821ZM11.4242 0.5142C8.50727 0.658222 5.87622 1.88905 3.92751 3.81018C4.36134 3.99158 4.79978 4.2096 5.24063 4.45302C6.45895 5.12571 7.72448 6.00921 8.99224 6.89426L9.20815 7.04497C10.5537 7.98375 11.9007 8.91219 13.2206 9.6069C14.4359 10.2465 15.6076 10.6765 16.7141 10.7414C16.5435 7.9696 15.8161 5.49166 14.7364 3.64069C13.8259 2.07987 12.681 0.987837 11.4242 0.5142ZM3.55248 4.19755C1.84121 6.04954 0.731281 8.46541 0.53277 11.1351C4.56228 12.7526 10.4527 14.0638 16.7124 13.2853C16.739 12.8633 16.7526 12.4345 16.7526 12C16.7526 11.7458 16.7479 11.4936 16.7388 11.2435C15.5116 11.1833 14.2476 10.7124 12.9877 10.0494C11.6358 9.33781 10.264 8.39125 8.92206 7.45503L8.71377 7.30966C7.43878 6.41961 6.19339 5.55024 4.99895 4.89073C4.50257 4.61665 4.01993 4.38173 3.55248 4.19755ZM0.505595 11.6624C0.502361 11.7745 0.500733 11.8871 0.500733 12C0.500733 16.0526 2.59703 19.6156 5.76442 21.6639C6.72217 21.0806 7.70876 20.3919 8.71375 19.6904L8.92206 19.545C10.264 18.6087 11.6358 17.6622 12.9877 16.9506C14.1295 16.3497 15.2747 15.9066 16.3928 15.7841C16.5185 15.144 16.6133 14.4788 16.674 13.7938C10.4369 14.5481 4.57495 13.2685 0.505595 11.6624ZM6.24242 21.9567C7.77975 22.8477 9.54249 23.3929 11.4242 23.4858C12.681 23.0122 13.8259 21.9201 14.7364 20.3593C15.4017 19.2188 15.9332 17.8402 16.2832 16.3015C15.3049 16.4378 14.2793 16.8359 13.2206 17.3931C11.9007 18.0878 10.5537 19.0163 9.20815 19.955L8.99224 20.1057C8.06866 20.7505 7.14624 21.3945 6.24242 21.9567ZM22.1011 6.49696C21.9497 7.27395 21.6728 8.11886 21.217 8.87862C20.4597 10.1407 19.2049 11.169 17.2391 11.2454C17.2481 11.4951 17.2526 11.7467 17.2526 12C17.2526 12.411 17.2407 12.8175 17.2174 13.2184C19.6462 12.8798 21.7632 12.3676 23.4995 11.8272C23.471 9.89816 22.9677 8.08417 22.1011 6.49696ZM23.4955 12.3517C21.7357 12.8909 19.6088 13.3959 17.1814 13.7281C17.1237 14.4225 17.0317 15.0984 16.9083 15.7508C16.9398 15.7503 16.9712 15.75 17.0026 15.75C19.1049 15.75 20.4298 16.8094 21.217 18.1214C21.3016 18.2624 21.3801 18.4064 21.4527 18.5524C22.6815 16.7831 23.4263 14.6523 23.4955 12.3517Z" fill="black"/>
</svg>
