<svg width="24" height="24" viewBox="0 0 24 24" fill="none" xmlns="http://www.w3.org/2000/svg">
<path fill-rule="evenodd" clip-rule="evenodd" d="M12.0009 24C12.4094 24 12.8131 23.9796 13.211 23.9397C13.2111 23.9397 13.211 23.9398 13.211 23.9397C16.1057 23.6496 18.6973 22.3306 20.6145 20.3541C20.6146 20.3543 20.6144 20.3539 20.6145 20.3541C21.1118 19.8415 21.564 19.2852 21.9641 18.6906C21.964 18.6904 21.9643 18.6908 21.9641 18.6906C23.0765 17.0372 23.7877 15.0911 23.9595 12.9928C23.9598 12.9927 23.9592 12.9929 23.9595 12.9928C23.9863 12.6655 24.0009 12.3342 24.0009 12C24.0009 11.6269 23.9839 11.2578 23.9506 10.8934C23.9503 10.8935 23.9509 10.8933 23.9506 10.8934C23.8153 9.41389 23.4107 8.01236 22.7875 6.73736C22.7876 6.73694 22.7877 6.73653 22.7878 6.73611C22.4898 6.12663 22.1417 5.54613 21.7488 5C19.7923 2.28019 16.7246 0.412506 13.2112 0.0603637C13.2111 0.0603275 13.2112 0.0604 13.2112 0.0603637C12.877 0.0268974 12.5385 0.00705144 12.1968 0.00158118C12.1571 0.000942223 12.1174 0.000497813 12.0776 0.000246045C12.0521 8.58285e-05 12.0265 -1.11402e-09 12.0009 0C12.0006 0 12.0012 0 12.0009 0C11.9491 2.26733e-09 11.8965 0.000328069 11.8449 0.000982291C5.28896 0.0840247 -2.8743e-07 5.42436 0 12C2.89694e-07 18.6274 5.37351 24 12.0009 24ZM12.4681 21.9892C12.313 21.9964 12.1569 22 12 22C10.8678 22 9.77955 21.8118 8.7648 21.4651C8.88784 21.3872 9.01054 21.3093 9.13282 21.2317L9.34902 21.0945C10.6367 20.2777 11.883 19.4986 13.1073 18.9197C13.737 18.622 14.3407 18.3874 14.92 18.2296C14.6758 18.8658 14.3963 19.4527 14.0878 19.9814C13.5927 20.8303 13.044 21.4992 12.4681 21.9892ZM12.4681 2.01076C12.313 2.00361 12.1569 2 12 2C9.80726 2 7.77935 2.70575 6.13104 3.9025C7.19998 4.45339 8.29065 5.11347 9.35532 5.75782L9.58089 5.89431C10.931 6.71078 12.242 7.493 13.5168 8.07458C14.3044 8.43386 15.0473 8.7017 15.7458 8.8544C15.4324 6.97821 14.8481 5.3218 14.0878 4.01859C13.5927 3.16972 13.044 2.50085 12.4681 2.01076ZM4.53513 5.34585C3.18621 6.85804 2.28993 8.78273 2.05903 10.9072C5.76397 12.2042 10.7279 13.1502 15.9925 12.612C15.9987 12.4096 16.0019 12.2055 16.0019 12C16.0019 11.6372 15.992 11.279 15.9728 10.926C14.8595 10.7698 13.7524 10.3803 12.6867 9.89417C11.29 9.257 9.88286 8.41423 8.54591 7.60569L8.34931 7.48675C7.06375 6.70892 5.84751 5.97303 4.68706 5.41764C4.63612 5.39327 4.58548 5.36933 4.53513 5.34585ZM2.05093 13.0156C2.36581 16.1375 4.11664 18.8355 6.63287 20.4391C7.10875 20.1474 7.59442 19.8392 8.09182 19.5235L8.27779 19.4055C9.55208 18.5973 10.8991 17.7514 12.2525 17.1116C13.3157 16.6089 14.4303 16.2095 15.5676 16.0618C15.67 15.6021 15.7558 15.1266 15.8233 14.6375C10.6713 15.1018 5.82507 14.2502 2.05093 13.0156ZM15.6097 2.67135C15.6799 2.78287 15.7485 2.89608 15.8154 3.01085C16.7713 4.64959 17.4573 6.69226 17.785 8.95164C19.0136 8.79184 19.7459 8.25625 20.2011 7.64975C20.3695 7.42537 20.5075 7.18074 20.6187 6.92552C19.4824 4.99982 17.7192 3.48816 15.6097 2.67135ZM21.5803 9.12422C20.7679 10.0669 19.5859 10.7478 17.9763 10.9429C17.9933 11.2919 18.0019 11.6445 18.0019 12C18.0019 12.1144 18.001 12.2284 17.9992 12.3422C19.4638 12.1053 20.7988 11.8074 21.987 11.4857C21.9456 10.6688 21.8062 9.87784 21.5803 9.12422ZM21.8755 13.5821C20.6594 13.8898 19.3193 14.1679 17.87 14.3867C17.8055 14.9621 17.7181 15.5252 17.6091 16.0728C18.7808 16.2318 19.7543 16.6415 20.5375 17.2097C21.2036 16.1204 21.6671 14.8938 21.8755 13.5821ZM19.3285 18.8039C18.7737 18.4106 18.0484 18.1168 17.1084 18.0279C16.7644 19.1122 16.3289 20.1089 15.8154 20.9892C15.7485 21.1039 15.6799 21.2171 15.6097 21.3286C17.0367 20.7761 18.3053 19.9055 19.3285 18.8039Z" fill="black"/>
</svg>
