<svg width="24" height="24" viewBox="0 0 24 24" fill="none" xmlns="http://www.w3.org/2000/svg">
<path d="M23.9603 12.9928C22.2587 13.5272 20.2147 14.0319 17.8889 14.384C17.8336 14.9617 17.7585 15.5281 17.6648 16.0806C19.3515 16.322 20.6234 17.0856 21.5039 18.0914C21.6727 18.2841 21.8259 18.4844 21.9644 18.6901C23.0767 17.0366 23.7884 15.0912 23.9603 12.9928Z" fill="black"/>
<path d="M20.6152 20.3542C20.4607 20.0258 20.2571 19.7034 19.9992 19.4088C19.4233 18.751 18.5453 18.1946 17.2386 18.0417C16.8802 19.3794 16.4048 20.6024 15.8318 21.6666C15.4164 22.4381 14.9356 23.1484 14.3958 23.761C16.8112 23.2718 18.9635 22.0571 20.6152 20.3542Z" fill="black"/>
<path d="M12.0007 24.0001C5.37332 24.0001 0.000732712 18.6275 0.000732422 12.0001C0.000732135 5.44415 5.25804 0.116127 11.7867 0.00195312C11.4023 0.00870516 11.0223 0.0335484 10.6475 0.0756436C11.84 0.353634 13.0588 1.40227 14.0709 3.28179C14.8753 4.77568 15.4838 6.6923 15.7872 8.86325C15.0769 8.71216 14.3204 8.44092 13.5175 8.07466C12.2427 7.49308 10.9316 6.71085 9.58154 5.89439L9.35596 5.7579C8.09774 4.9964 6.80321 4.21293 5.55111 3.61369C5.06479 3.38093 4.57027 3.16852 4.07216 2.99305C3.51071 3.48772 2.99587 4.03407 2.53509 4.62464C3.1855 4.77071 3.90178 5.04157 4.68771 5.41772C5.84816 5.97311 7.06437 6.70898 8.34993 7.48681L8.54657 7.60577C9.88352 8.4143 11.2907 9.25708 12.6874 9.89425C13.7542 10.3809 14.8626 10.7707 15.9771 10.9266C15.9933 11.2799 16.0016 11.6379 16.0016 12.0001C16.0016 12.2054 15.9989 12.4095 15.9936 12.612C9.75665 13.2497 3.94152 11.8043 0.141887 10.1598C0.049559 10.7598 0.000732395 11.3743 0.000732422 12.0001C0.000732426 12.0903 0.00265374 12.1802 0.00463323 12.2699C3.98481 13.8778 9.70121 15.1948 15.8513 14.6351C15.7951 15.12 15.7238 15.5932 15.6385 16.0531C14.4768 16.1933 13.3382 16.5986 12.2531 17.1117C10.8998 17.7515 9.55273 18.5974 8.27844 19.4056L8.0925 19.5236C6.90724 20.2757 5.78855 20.9856 4.71035 21.5317C5.31749 21.9968 5.97036 22.4053 6.66104 22.7491C7.4894 22.2754 8.32055 21.7478 9.13348 21.2317L9.34967 21.0945C10.6374 20.2778 11.8836 19.4986 13.108 18.9198C13.8095 18.5881 14.4786 18.3348 15.1177 18.1788C14.827 19.1171 14.4734 19.9707 14.0709 20.7184C13.0588 22.5979 11.84 23.6465 10.6475 23.9245C11.092 23.9744 11.5429 24.0001 12.0007 24.0001Z" fill="black"/>
<path d="M14.3958 0.239136C14.9356 0.851805 15.4164 1.56209 15.8318 2.33359C16.8094 4.14912 17.503 6.42717 17.8155 8.94775C19.0261 8.7832 19.7503 8.2514 20.2017 7.64983C20.7828 6.87557 21.0025 5.86018 21.0025 5.00008V4.06465C19.3067 2.14243 17.0048 0.767595 14.3958 0.239136Z" fill="black"/>
<path d="M22.7882 6.73733C23.4114 8.01235 23.8152 9.41421 23.9504 10.8937C22.3432 11.4311 20.3362 11.9644 17.9993 12.3424C18.0008 12.2286 18.0016 12.1145 18.0016 12.0001C18.0016 11.6447 17.9942 11.292 17.9796 10.9427C19.7399 10.7287 20.9885 9.93346 21.8014 8.85033C22.2972 8.1897 22.6074 7.45386 22.7882 6.73733Z" fill="black"/>
</svg>
