<svg width="24" height="24" viewBox="0 0 24 24" fill="none" xmlns="http://www.w3.org/2000/svg">
<path d="M23.9962 11.6685C22.1729 12.2661 19.883 12.8468 17.2174 13.2184C17.2407 12.8175 17.2526 12.411 17.2526 12C17.2526 11.7467 17.2481 11.4951 17.2391 11.2454C19.2049 11.169 20.4597 10.1407 21.217 8.87862C21.8347 7.84914 22.1238 6.66334 22.2171 5.70197C23.2938 7.4448 23.937 9.48379 23.9962 11.6685Z" fill="black"/>
<path d="M23.9992 12.1933C22.1472 12.7908 19.8453 13.3635 17.1814 13.7281C17.1237 14.4225 17.0317 15.0984 16.9083 15.7508C16.9398 15.7503 16.9712 15.75 17.0026 15.75C19.1049 15.75 20.4298 16.8094 21.217 18.1214C21.4028 18.431 21.5588 18.7549 21.6888 19.0824C23.107 17.1458 23.9585 14.768 23.9992 12.1933Z" fill="black"/>
<path d="M21.329 19.5494C19.129 22.2644 15.7675 24 12.0007 24C5.37332 24 0.000732712 18.6274 0.000732422 12C0.000732132 5.37258 5.37332 2.89694e-07 12.0007 0C16.0182 -1.7561e-07 19.5746 1.97425 21.7526 5.00551C21.7517 5.97364 21.5075 7.42261 20.7882 8.62138C20.1025 9.76434 18.9887 10.6783 17.2153 10.746C17.0446 7.89381 16.2977 5.32491 15.1683 3.38875C14.2029 1.73383 12.9412 0.517 11.5038 0.0101414C10.9945 0.0309239 10.4935 0.0834389 10.0026 0.165758V0.25C11.8098 0.25 13.4921 1.50754 14.7364 3.64069C15.8161 5.49166 16.5435 7.9696 16.7141 10.7414C15.6076 10.6765 14.4359 10.2465 13.2206 9.6069C11.9007 8.91219 10.5537 7.98375 9.20815 7.04497L8.99224 6.89426C7.72448 6.00921 6.45895 5.12571 5.24063 4.45302C4.62651 4.11394 4.01708 3.82412 3.41827 3.61396C3.29027 3.74496 3.16524 3.87888 3.04329 4.0156C3.66701 4.21433 4.32013 4.51592 4.99895 4.89073C6.19339 5.55024 7.43878 6.41961 8.71377 7.30966L8.92206 7.45503C10.264 8.39125 11.6358 9.33781 12.9877 10.0494C14.2476 10.7124 15.5116 11.1833 16.7388 11.2435C16.7479 11.4936 16.7526 11.7458 16.7526 12C16.7526 12.4345 16.739 12.8633 16.7124 13.2853C10.1969 14.0956 4.08151 12.6419 0.0482349 10.9354C0.0328671 11.1102 0.02125 11.2861 0.0134598 11.463C4.09417 13.16 10.1808 14.5791 16.674 13.7938C16.6133 14.4788 16.5185 15.144 16.3928 15.7841C15.2747 15.9066 14.1295 16.3497 12.9877 16.9506C11.6358 17.6622 10.264 18.6087 8.92206 19.545L8.71377 19.6903C7.54088 20.5091 6.39304 21.3104 5.28687 21.9469C5.44167 22.0516 5.59904 22.1528 5.75887 22.2503C6.816 21.625 7.90329 20.866 8.99222 20.1057L9.20815 19.955C10.5537 19.0163 11.9007 18.0878 13.2206 17.3931C14.2793 16.8359 15.3049 16.4378 16.2832 16.3015C15.9332 17.8402 15.4017 19.2188 14.7364 20.3593C13.4921 22.4925 11.8098 23.75 10.0026 23.75V23.8342C10.4935 23.9166 10.9945 23.9691 11.5038 23.9899C12.9412 23.483 14.2029 22.2662 15.1683 20.6112C15.8845 19.3835 16.4468 17.9014 16.806 16.254C16.8718 16.2513 16.9373 16.25 17.0026 16.25C18.9003 16.25 20.0754 17.1906 20.7882 18.3786C21.0122 18.752 21.1902 19.1496 21.329 19.5494Z" fill="black"/>
</svg>
