<svg width="24" height="24" viewBox="0 0 24 24" fill="none" xmlns="http://www.w3.org/2000/svg">
<path fill-rule="evenodd" clip-rule="evenodd" d="M21.3286 19.5502C21.3286 19.5504 21.3285 19.5499 21.3286 19.5502C21.4522 19.3976 21.5722 19.2419 21.6884 19.0833C21.6883 19.083 21.6885 19.0835 21.6884 19.0833C23.1066 17.1466 23.9578 14.768 23.9985 12.1933C23.9988 12.1932 23.9982 12.1934 23.9985 12.1933C23.9995 12.1291 24.0009 12.0645 24.0009 12C24.0009 11.889 23.9994 11.7784 23.9964 11.6682C23.9961 11.6683 23.9967 11.6681 23.9964 11.6682C23.9372 9.48349 23.2931 7.4448 22.2164 5.70197C22.2164 5.70154 22.2165 5.70111 22.2165 5.70068C22.0696 5.46289 21.9146 5.23062 21.7519 5.00424C21.7519 5.00466 21.7519 5.00508 21.7519 5.00551C19.5739 1.97425 16.0175 -1.7561e-07 12 0C5.37258 2.89694e-07 -2.89694e-07 5.37258 0 12C2.89694e-07 18.6274 5.37258 24 12 24C15.7668 24 19.1285 22.2652 21.3286 19.5502ZM12.5352 23.4878C16.0283 23.3277 19.1148 21.6094 21.1159 19.0117C21.0195 18.7958 20.9105 18.5836 20.7875 18.3786C20.0747 17.1906 18.8996 16.25 17.0019 16.25C16.9366 16.25 16.871 16.2513 16.8052 16.254C16.4461 17.9014 15.8837 19.3835 15.1676 20.6112C14.4409 21.857 13.5463 22.8545 12.5352 23.4878ZM21.7007 5.821C19.7484 2.76239 16.3892 0.688803 12.5352 0.512236C13.5463 1.14554 14.4409 2.14303 15.1676 3.38875C16.297 5.32491 17.0439 7.89381 17.2146 10.746C18.988 10.6783 20.1017 9.76434 20.7875 8.62138C21.3247 7.72597 21.5969 6.69095 21.7007 5.821ZM11.4235 0.5142C8.50654 0.658222 5.87548 1.88905 3.92678 3.81018C4.3606 3.99158 4.79905 4.2096 5.2399 4.45302C6.45821 5.12571 7.72375 6.00921 8.9915 6.89426L9.20742 7.04497C10.553 7.98375 11.8999 8.91219 13.2199 9.6069C14.4352 10.2465 15.6069 10.6765 16.7134 10.7414C16.5428 7.9696 15.8154 5.49166 14.7357 3.64069C13.8252 2.07987 12.6802 0.987837 11.4235 0.5142ZM3.55174 4.19755C1.84048 6.04954 0.730548 8.46541 0.532038 11.1351C4.56155 12.7526 10.452 14.0638 16.7117 13.2853C16.7382 12.8633 16.7519 12.4345 16.7519 12C16.7519 11.7458 16.7472 11.4936 16.738 11.2435C15.5109 11.1833 14.2469 10.7124 12.987 10.0494C11.6351 9.33781 10.2632 8.39125 8.92133 7.45503L8.71304 7.30966C7.43804 6.41961 6.19266 5.55024 4.99822 4.89073C4.50184 4.61665 4.01919 4.38173 3.55174 4.19755ZM0.504862 11.6624C0.501628 11.7745 0.500001 11.8871 0.500001 12C0.500001 16.0526 2.59629 19.6156 5.76369 21.6639C6.72144 21.0806 7.70803 20.3919 8.71302 19.6904L8.92133 19.545C10.2632 18.6087 11.6351 17.6622 12.987 16.9506C14.1288 16.3497 15.274 15.9066 16.392 15.7841C16.5178 15.144 16.6126 14.4788 16.6732 13.7938C10.4362 14.5481 4.57422 13.2685 0.504862 11.6624ZM6.24169 21.9567C7.77902 22.8477 9.54176 23.3929 11.4235 23.4858C12.6802 23.0122 13.8252 21.9201 14.7357 20.3593C15.401 19.2188 15.9325 17.8402 16.2824 16.3015C15.3042 16.4378 14.2786 16.8359 13.2199 17.3931C11.8999 18.0878 10.553 19.0163 9.20742 19.955L8.9915 20.1057C8.06793 20.7505 7.14551 21.3945 6.24169 21.9567ZM22.1003 6.49696C21.949 7.27395 21.6721 8.11886 21.2162 8.87862C20.459 10.1407 19.2042 11.169 17.2384 11.2454C17.2473 11.4951 17.2519 11.7467 17.2519 12C17.2519 12.411 17.24 12.8175 17.2167 13.2184C19.6455 12.8798 21.7624 12.3676 23.4987 11.8272C23.4703 9.89816 22.9669 8.08417 22.1003 6.49696ZM23.4947 12.3517C21.735 12.8909 19.6081 13.3959 17.1807 13.7281C17.123 14.4225 17.031 15.0984 16.9076 15.7508C16.9391 15.7503 16.9705 15.75 17.0019 15.75C19.1042 15.75 20.429 16.8094 21.2162 18.1214C21.3009 18.2624 21.3793 18.4064 21.452 18.5524C22.6808 16.7831 23.4256 14.6523 23.4947 12.3517Z" fill="black"/>
</svg>
