<svg width="24" height="23" viewBox="0 0 24 23" fill="none" xmlns="http://www.w3.org/2000/svg">
<path d="M16.4561 11.4404C16.872 11.4405 17.1059 11.9187 16.8506 12.247L11.8438 18.6845C11.5163 19.1056 10.8452 18.7902 10.9609 18.2695L12.4785 11.4404H16.4561Z" fill="black"/>
<path d="M8.95898 7.49997H3C2.17157 7.49997 1.5 8.17154 1.5 8.99997V14C1.50003 14.8284 2.17159 15.5 3 15.5H10.2959L9.96191 17H3L2.8457 16.9961C1.31168 16.9183 0.081654 15.6883 0.00390625 14.1543L0 14V8.99997C0 7.34311 1.34315 5.99997 3 5.99997H10.125L8.95898 7.49997Z" fill="black"/>
<path fill-rule="evenodd" clip-rule="evenodd" d="M19 5.99997C20.6569 5.99997 22 7.34311 22 8.99997V9.04977C23.1411 9.2814 24 10.2905 24 11.5C24 12.7094 23.141 13.7175 22 13.9492V14C22 15.605 20.7394 16.9158 19.1543 16.9961L19 17H14.7373L15.9043 15.5H19C19.8284 15.5 20.5 14.8284 20.5 14V8.99997C20.5 8.17154 19.8284 7.49997 19 7.49997H14.6338L14.9678 5.99997H19ZM22 12.3642C22.2984 12.1912 22.5 11.8697 22.5 11.5C22.5 11.13 22.2987 10.8077 22 10.6347V12.3642Z" fill="black"/>
<path d="M6.5 14.5H3.5C2.94774 14.5 2.50003 14.0522 2.5 13.5V9.49997C2.5 8.94768 2.94772 8.49997 3.5 8.49997H6.5V14.5Z" fill="black"/>
<path d="M13.1133 4.19528C13.4407 3.7744 14.1114 4.08984 13.9961 4.61032L12.4785 11.4404H8.50098C8.0849 11.4404 7.851 10.9612 8.10645 10.6328L13.1133 4.19528Z" fill="black"/>
</svg>
