<svg width="24" height="23" viewBox="0 0 24 23" fill="none" xmlns="http://www.w3.org/2000/svg">
<path d="M16.4561 11.4404C16.872 11.4405 17.1059 11.9187 16.8506 12.247L11.8438 18.6845C11.5163 19.1056 10.8452 18.7902 10.9609 18.2695L12.4785 11.4404H16.4561Z" fill="black"/>
<path d="M9.66504 6.99997H3C1.89543 6.99997 1 7.8954 1 8.99997V14C1.00003 15.1045 1.89545 16 3 16H10.4404L10.2188 17H3L2.8457 16.9961C1.31168 16.9183 0.081654 15.6883 0.00390625 14.1543L0 14V8.99997C0 7.34311 1.34315 5.99997 3 5.99997H10.4424L9.66504 6.99997Z" fill="black"/>
<path fill-rule="evenodd" clip-rule="evenodd" d="M19 5.99997C20.6569 5.99997 22 7.34311 22 8.99997V9.04977C23.1411 9.2814 24 10.2905 24 11.5C24 12.7094 23.141 13.7175 22 13.9492V14C22 15.605 20.7394 16.9158 19.1543 16.9961L19 17H14.4209L15.1982 16H19C20.1046 16 21 15.1045 21 14V8.99997C21 7.8954 20.1046 6.99997 19 6.99997H14.4902L14.7119 5.99997H19ZM22 12.9121C22.5822 12.7059 23 12.1528 23 11.5C23 10.847 22.5823 10.2929 22 10.0869V12.9121Z" fill="black"/>
<path d="M7.31738 10.0185C6.55244 11.0023 7.25131 12.4401 8.50098 12.4404H11.2314L10.6631 15H3.5C2.67159 15 2.00003 14.3284 2 13.5V9.49997C2 8.67154 2.67157 7.99997 3.5 7.99997H8.8877L7.31738 10.0185Z" fill="black"/>
<path d="M18.5 7.99997C19.3284 7.99997 20 8.67154 20 9.49997V13.5C20 14.3284 19.3284 15 18.5 15H15.9766L17.6396 12.8613C18.4058 11.8761 17.7039 10.4407 16.4561 10.4404H13.7256L14.2676 7.99997H18.5Z" fill="black"/>
<path d="M13.1133 4.19528C13.4407 3.7744 14.1114 4.08984 13.9961 4.61032L12.4785 11.4404H8.50098C8.0849 11.4404 7.851 10.9612 8.10645 10.6328L13.1133 4.19528Z" fill="black"/>
</svg>
