<svg width="24" height="24" viewBox="0 0 24 24" fill="none" xmlns="http://www.w3.org/2000/svg">
<path d="M13.8936 4.02861C13.9783 3.91975 14.1352 3.90005 14.2441 3.98466C14.3529 4.0694 14.3726 4.22633 14.2881 4.33525L9.14844 10.9427C9.07072 11.0432 9.1425 11.1893 9.26953 11.1897H15.6855C16.2288 11.1899 16.5343 11.8144 16.2012 12.2435L11.0615 18.8509C10.9767 18.9597 10.8199 18.9795 10.7109 18.8948C10.6025 18.81 10.5826 18.653 10.667 18.5442L15.8066 11.9368C15.8845 11.8362 15.8128 11.6899 15.6855 11.6897H9.26953C8.72648 11.6893 8.42091 11.065 8.75391 10.636L13.8936 4.02861Z" fill="black"/>
<path d="M11.0205 6.50029H3C1.6194 6.50029 0.500186 7.61973 0.5 9.00029V14.0003C0.500309 15.3807 1.61948 16.5003 3 16.5003H11.3066L10.917 17.0003H3L2.8457 16.9964C1.31186 16.9187 0.0819008 15.6884 0.00390625 14.1546L0 14.0003V9.00029C0.000185917 7.34359 1.34326 6.00029 3 6.00029H11.4092L11.0205 6.50029Z" fill="black"/>
<path fill-rule="evenodd" clip-rule="evenodd" d="M19 6.00029C20.6567 6.00029 21.9998 7.34359 22 9.00029V9.05009C23.141 9.28173 23.9998 10.291 24 11.5003C23.9997 12.7095 23.1409 13.7178 22 13.9495V14.0003C21.9997 15.6051 20.7392 16.9161 19.1543 16.9964L19 17.0003H13.4521L13.8408 16.5003H19C20.3805 16.5003 21.4997 15.3807 21.5 14.0003V9.00029C21.4998 7.61973 20.3806 6.50029 19 6.50029H13.5547L13.9434 6.00029H19ZM22 13.4339C22.862 13.2116 23.4997 12.4316 23.5 11.5003C23.4998 10.5688 22.8621 9.78796 22 9.56572V13.4339Z" fill="black"/>
<path d="M9.85352 8.00029H3.5C2.67169 8.00029 2.00019 8.67202 2 9.50029V13.5003C2.00039 14.3284 2.67181 15.0003 3.5 15.0003H10.8643V15.5003H3.5C2.39567 15.5003 1.50039 14.6045 1.5 13.5003V9.50029C1.50019 8.39588 2.39555 7.49931 3.5 7.49931H10.2432L9.85352 8.00029Z" fill="black"/>
</svg>
