<svg width="24" height="24" viewBox="0 0 24 24" fill="none" xmlns="http://www.w3.org/2000/svg">
<path d="M13.1035 3.41418C13.5273 2.86951 14.3135 2.77201 14.8584 3.19543C15.4029 3.61932 15.5007 4.40457 15.0771 4.94934L11.002 10.1896H12.4775C12.4836 10.1896 12.4901 10.1904 12.4961 10.1905H15.6855C17.0611 10.1907 17.8348 11.7726 16.9902 12.8585L11.8516 19.4659C11.4277 20.0105 10.6415 20.1084 10.0967 19.6847C9.55253 19.2608 9.45463 18.4755 9.87793 17.9308L13.9531 12.6905L9.26953 12.6896C7.89434 12.689 7.12064 11.1073 7.96484 10.0216L13.1035 3.41418Z" fill="black"/>
<path d="M8.34375 7.50012H3C2.72398 7.50012 2.5002 7.72414 2.5 8.00012V15.0001C2.50026 15.276 2.72402 15.5001 3 15.5001H10.1855L8.8916 17.1632C8.69159 17.4205 8.5515 17.7051 8.46582 18.0001H3L2.8457 17.9962C1.31183 17.9185 0.0818606 16.6882 0.00390625 15.1544L0 15.0001V8.00012C0.000196481 6.34343 1.34327 5.00012 3 5.00012H10.2871L8.34375 7.50012Z" fill="black"/>
<path d="M19 5.00012C20.6567 5.00012 21.9998 6.34343 22 8.00012V9.04992C23.141 9.28155 23.9998 10.2908 24 11.5001C23.9998 12.7094 23.1409 13.7177 22 13.9493V15.0001C21.9997 16.605 20.7393 17.9159 19.1543 17.9962L19 18.0001H14.5752L16.5195 15.5001H19C19.276 15.5001 19.4997 15.276 19.5 15.0001V8.00012C19.4998 7.72414 19.276 7.50012 19 7.50012H14.6768L16.0635 5.71789C16.2363 5.49563 16.3639 5.25222 16.4512 5.00012H19Z" fill="black"/>
<path d="M6.5 10.1554C6.31125 10.7391 6.32445 11.3476 6.5 11.9025V14.5001H3.75L3.69922 14.4952C3.60204 14.4752 3.52509 14.398 3.50488 14.3009L3.5 14.2501V8.75012C3.5002 8.61221 3.61205 8.50012 3.75 8.50012H6.5V10.1554Z" fill="black"/>
</svg>
