<svg width="24" height="24" viewBox="0 0 24 24" fill="none" xmlns="http://www.w3.org/2000/svg">
<path d="M13.8936 4.02916C13.9783 3.92026 14.1352 3.90048 14.2441 3.98522C14.3528 4.06998 14.3726 4.22692 14.2881 4.33581L9.14844 10.9432C9.07113 11.0437 9.14264 11.1899 9.26953 11.1903H15.6855C16.2288 11.1905 16.5343 11.815 16.2012 12.244L11.0615 18.8514C10.9767 18.96 10.8198 18.9799 10.7109 18.8954C10.6025 18.8107 10.5829 18.6536 10.667 18.5448L15.8066 11.9374C15.8845 11.8368 15.8128 11.6905 15.6855 11.6903H9.26953C8.72662 11.6899 8.42133 11.0655 8.75391 10.6366L13.8936 4.02916Z" fill="black"/>
<path d="M11.0205 6.49987H3C1.61948 6.49987 0.500306 7.61942 0.5 8.99987V13.9999C0.500186 15.3804 1.6194 16.4999 3 16.4999H11.3066L10.917 16.9999H3L2.8457 16.996C1.31179 16.9182 0.0817908 15.688 0.00390625 14.1542L0 13.9999V8.99987C0.000306108 7.34327 1.34333 5.99987 3 5.99987H11.4092L11.0205 6.49987Z" fill="black"/>
<path fill-rule="evenodd" clip-rule="evenodd" d="M19 5.99987C20.6567 5.99987 21.9997 7.34327 22 8.99987V9.04967C23.1409 9.28128 23.9997 10.2907 24 11.4999C23.9998 12.7091 23.1409 13.7174 22 13.9491V13.9999C21.9998 15.6048 20.7393 16.9156 19.1543 16.996L19 16.9999H13.4521L13.8408 16.4999H19C20.3806 16.4999 21.4998 15.3804 21.5 13.9999V8.99987C21.4997 7.61942 20.3805 6.49987 19 6.49987H13.5547L13.9434 5.99987H19ZM22 13.4335C22.862 13.2111 23.4998 12.4313 23.5 11.4999C23.4997 10.5684 22.8621 9.78751 22 9.5653V13.4335Z" fill="black"/>
<path fill-rule="evenodd" clip-rule="evenodd" d="M5.5 15.4989H3.5C2.39543 15.4989 1.5 14.6035 1.5 13.4989V9.49889C1.50031 8.39458 2.39562 7.49889 3.5 7.49889H5.5V15.4989ZM3.5 7.99889C2.67176 7.99889 2.00031 8.67072 2 9.49889V13.4989C2 14.3273 2.67157 14.9989 3.5 14.9989H5V7.99889H3.5Z" fill="black"/>
</svg>
