<svg width="24" height="24" viewBox="0 0 24 24" fill="none" xmlns="http://www.w3.org/2000/svg">
<path d="M13.498 3.72165C13.7523 3.39483 14.2239 3.33665 14.5508 3.59079C14.8775 3.84514 14.9369 4.31664 14.6826 4.64353L9.97949 10.6904H15.6855C16.645 10.6906 17.1847 11.7943 16.5957 12.5517L11.457 19.1592C11.2027 19.4857 10.7311 19.5442 10.4043 19.29C10.0777 19.0358 10.0185 18.5641 10.2725 18.2373L14.9756 12.1904H9.26953C8.31049 12.1899 7.77095 11.0864 8.35938 10.3291L13.498 3.72165Z" fill="black"/>
<path d="M9.29395 7.49997H3C2.17173 7.49997 1.50026 8.17177 1.5 8.99997V14C1.50019 14.8282 2.17169 15.5 3 15.5H11.1367L9.96973 17H3L2.8457 16.9961C1.31179 16.9183 0.0817909 15.6881 0.00390625 14.1543L0 14V8.99997C0.000261022 7.34334 1.34331 5.99997 3 5.99997H10.46L9.29395 7.49997Z" fill="black"/>
<path fill-rule="evenodd" clip-rule="evenodd" d="M19 5.99997C20.6567 5.99997 21.9997 7.34334 22 8.99997V9.04978C23.1409 9.2814 23.9998 10.2907 24 11.5C23.9998 12.7091 23.1408 13.7165 22 13.9482V14C21.9998 15.6049 20.7393 16.9158 19.1543 16.9961L19 17H14.4033L15.5693 15.5H19C19.8283 15.5 20.4998 14.8282 20.5 14V8.99997C20.4997 8.17177 19.8283 7.49997 19 7.49997H13.7275L14.8936 5.99997H19ZM22 12.3642C22.2982 12.1913 22.4998 11.8695 22.5 11.5C22.4998 11.1303 22.2984 10.8077 22 10.6347V12.3642Z" fill="black"/>
<path d="M7.57031 9.71579C7.49865 9.80799 7.43596 9.90304 7.38184 9.99997H4V13H8.37598C8.64248 13.1207 8.94286 13.1903 9.26953 13.1904H10.8643V14.5H3.5L3.39746 14.4951C2.92722 14.4472 2.55299 14.0727 2.50488 13.6025L2.5 13.5V9.49997C2.50026 8.94791 2.94788 8.49997 3.5 8.49997H8.51562L7.57031 9.71579Z" fill="black"/>
<path d="M18.5 8.49997C19.0521 8.49997 19.4997 8.94791 19.5 9.49997V13.5L19.4951 13.6025C19.447 14.0727 19.0728 14.4472 18.6025 14.4951L18.5 14.5H16.3477L17.3857 13.165C17.4275 13.1112 17.4652 13.0555 17.501 13H18V9.99997H16.8057C16.4877 9.80604 16.1092 9.69055 15.6865 9.6904H14.0898V8.49997H18.5Z" fill="black"/>
</svg>
