<svg width="24" height="23" viewBox="0 0 24 23" fill="none" xmlns="http://www.w3.org/2000/svg">
<path d="M16.4561 11.4404C16.872 11.4405 17.1059 11.9187 16.8506 12.247L11.8438 18.6845C11.5163 19.1056 10.8452 18.7902 10.9609 18.2695L12.4785 11.4404H16.4561Z" fill="black"/>
<path d="M10.6875 6.49997H3C1.61929 6.49997 0.5 7.61926 0.5 8.99997V14C0.500032 15.3807 1.61931 16.5 3 16.5H10.8418L10.7305 17H3L2.8457 16.9961C1.31168 16.9183 0.081654 15.6883 0.00390625 14.1543L0 14V8.99997C0 7.34311 1.34315 5.99997 3 5.99997H11.0762L10.6875 6.49997Z" fill="black"/>
<path fill-rule="evenodd" clip-rule="evenodd" d="M19 5.99997C20.6569 5.99997 22 7.34311 22 8.99997V9.04977C23.1411 9.2814 24 10.2905 24 11.5C24 12.7094 23.141 13.7175 22 13.9492V14C22 15.605 20.7394 16.9158 19.1543 16.9961L19 17H13.7871L14.1758 16.5H19C20.3807 16.5 21.5 15.3807 21.5 14V8.99997C21.5 7.61926 20.3807 6.49997 19 6.49997H14.0889L14.1992 5.99997H19ZM22 13.4336C22.8622 13.2113 23.5 12.4316 23.5 11.5C23.5 10.5683 22.8623 9.78763 22 9.5654V13.4336Z" fill="black"/>
<path d="M5 16H3C1.89545 16 1.00003 15.1045 1 14V8.99997C1 7.8954 1.89543 6.99997 3 6.99997H5V16Z" fill="black"/>
<path d="M13.1133 4.19528C13.4407 3.7744 14.1114 4.08984 13.9961 4.61032L12.4785 11.4404H8.50098C8.0849 11.4404 7.851 10.9612 8.10645 10.6328L13.1133 4.19528Z" fill="black"/>
</svg>
