<svg width="24" height="23" viewBox="0 0 24 23" fill="none" xmlns="http://www.w3.org/2000/svg">
<path d="M16.4561 11.4404C16.8477 11.4405 17.0771 11.8638 16.8896 12.1875L16.8506 12.247L11.8438 18.6845C11.5163 19.1056 10.8452 18.7902 10.9609 18.2695L12.4785 11.4404H16.4561Z" fill="black"/>
<path d="M8.95898 7.49997H3C2.44772 7.49997 2 7.94768 2 8.49997V14.5C2.00003 15.0522 2.44774 15.5 3 15.5H10.2959L9.85059 17.5H3L2.8457 17.4961C1.26057 17.4158 3.11441e-05 16.105 0 14.5V8.49997C0 6.84311 1.34315 5.49997 3 5.49997H10.5146L8.95898 7.49997Z" fill="black"/>
<path d="M19 5.49997C20.6569 5.49997 22 6.84311 22 8.49997V9.04977C23.1411 9.2814 24 10.2905 24 11.5C24 12.7094 23.141 13.7175 22 13.9492V14.5C22 16.105 20.7394 17.4158 19.1543 17.4961L19 17.5H14.3486L15.9043 15.5H19C19.5523 15.5 20 15.0522 20 14.5V8.49997C20 7.94768 19.5523 7.49997 19 7.49997H14.6338L15.0781 5.49997H19Z" fill="black"/>
<path d="M7.11914 9.8652C6.22674 11.0128 7.04289 12.69 8.50098 12.6904H10.9199L10.5176 14.5H3.5C3.22388 14.5 3.00003 14.2761 3 14V8.99997C3 8.72383 3.22386 8.49997 3.5 8.49997H8.18066L7.11914 9.8652Z" fill="black"/>
<path d="M18.5 8.49997C18.7761 8.49997 19 8.72383 19 8.99997V14C19 14.2761 18.7761 14.5 18.5 14.5H16.6816L17.8369 13.0146C18.7309 11.8652 17.9118 10.1909 16.4561 10.1904H14.0361L14.4121 8.49997H18.5Z" fill="black"/>
<path d="M13.1133 4.19528C13.4407 3.7744 14.1114 4.08984 13.9961 4.61032L12.4785 11.4404H8.50098C8.0849 11.4404 7.851 10.9612 8.10645 10.6328L13.1133 4.19528Z" fill="black"/>
</svg>
