<svg width="24" height="24" viewBox="0 0 24 24" fill="none" xmlns="http://www.w3.org/2000/svg">
<path fill-rule="evenodd" clip-rule="evenodd" d="M24 12C24 18.6274 18.6274 24 12 24C5.37258 24 0 18.6274 0 12C0 5.37258 5.37258 0 12 0C18.6274 0 24 5.37258 24 12ZM18.1726 14.4946C18.2186 14.3554 18.2601 14.2141 18.2968 14.0709C18.3922 13.6989 18.4554 13.314 18.4835 12.9194C18.4944 12.765 18.5 12.6092 18.5 12.4521C18.5 12.1439 18.1697 11.9997 17.915 12.1298C17.8786 12.1484 17.8438 12.1725 17.8117 12.2027C17.7208 12.2878 17.6281 12.371 17.5336 12.4521C17.2523 12.6936 16.9549 12.9171 16.6434 13.1206C16.5724 13.167 16.5007 13.2124 16.4283 13.2567C15.1386 14.0454 13.6223 14.5 11.9998 14.5C10.3775 14.5 8.86139 14.0455 7.57177 13.2569C7.49928 13.2126 7.42752 13.1672 7.35648 13.1208C7.04487 12.9172 6.74743 12.6937 6.46599 12.4521C6.37152 12.371 6.27885 12.2878 6.18805 12.2027C5.94726 11.977 5.55322 12.0843 5.50491 12.3886C5.50168 12.4089 5.5 12.4301 5.5 12.4521C5.5 12.6091 5.50557 12.7649 5.51652 12.9192C5.54455 13.3139 5.60784 13.699 5.70325 14.0711C5.73997 14.2144 5.78145 14.3557 5.82751 14.495C6.68394 17.084 9.12381 18.9521 12 18.9521C14.8763 18.9521 17.3163 17.0838 18.1726 14.4946ZM17.5 9.5C17.5 10.3284 16.8284 11 16 11C15.1716 11 14.5 10.3284 14.5 9.5C14.5 8.67157 15.1716 8 16 8C16.8284 8 17.5 8.67157 17.5 9.5ZM10 9.5C10 10.3284 9.32843 11 8.5 11C7.67157 11 7 10.3284 7 9.5C7 8.67157 7.67157 8 8.5 8C9.32843 8 10 8.67157 10 9.5Z" fill="black"/>
</svg>
