<svg width="24" height="24" viewBox="0 0 24 24" fill="none" xmlns="http://www.w3.org/2000/svg">
<path fill-rule="evenodd" clip-rule="evenodd" d="M17.8117 12.2027C18.0686 11.9618 18.5 12.0999 18.5 12.4521C18.5 16.0419 15.5899 18.9521 12 18.9521C8.41015 18.9521 5.5 16.0419 5.5 12.4521C5.5 12.1 5.93121 11.962 6.18805 12.2027C7.70807 13.6275 9.75205 14.5 11.9998 14.5C14.2476 14.5 16.2916 13.6275 17.8117 12.2027ZM17.9944 12.7131C17.8578 15.9057 15.2262 18.4521 12 18.4521C8.77387 18.4521 6.14244 15.9059 6.00559 12.7135C7.59681 14.1351 9.69783 15 11.9998 15C14.302 15 16.4032 14.135 17.9944 12.7131Z" fill="black"/>
<path d="M16.75 9.5C16.75 9.91421 16.4142 10.25 16 10.25C15.5858 10.25 15.25 9.91421 15.25 9.5C15.25 9.08579 15.5858 8.75 16 8.75C16.4142 8.75 16.75 9.08579 16.75 9.5Z" fill="black"/>
<path d="M9.25 9.5C9.25 9.91421 8.91421 10.25 8.5 10.25C8.08579 10.25 7.75 9.91421 7.75 9.5C7.75 9.08579 8.08579 8.75 8.5 8.75C8.91421 8.75 9.25 9.08579 9.25 9.5Z" fill="black"/>
<path fill-rule="evenodd" clip-rule="evenodd" d="M22.5 12C22.5 17.799 17.799 22.5 12 22.5C6.20101 22.5 1.5 17.799 1.5 12C1.5 6.20101 6.20101 1.5 12 1.5C17.799 1.5 22.5 6.20101 22.5 12ZM12 22C17.5228 22 22 17.5228 22 12C22 6.47715 17.5228 2 12 2C6.47715 2 2 6.47715 2 12C2 17.5228 6.47715 22 12 22Z" fill="black"/>
</svg>
