<svg width="24" height="24" viewBox="0 0 24 24" fill="none" xmlns="http://www.w3.org/2000/svg">
<path fill-rule="evenodd" clip-rule="evenodd" d="M12 22.5C17.799 22.5 22.5 17.799 22.5 12C22.5 6.20101 17.799 1.5 12 1.5C6.20101 1.5 1.5 6.20101 1.5 12C1.5 17.799 6.20101 22.5 12 22.5ZM18.5 12.4521C18.5 12.0999 18.0686 11.9618 17.8117 12.2027C16.2916 13.6275 14.2476 14.5 11.9998 14.5C9.75205 14.5 7.70807 13.6275 6.18805 12.2027C5.9312 11.962 5.5 12.1 5.5 12.4521C5.5 16.0419 8.41015 18.9521 12 18.9521C15.5899 18.9521 18.5 16.0419 18.5 12.4521ZM16.75 9.5C16.75 9.91421 16.4142 10.25 16 10.25C15.5858 10.25 15.25 9.91421 15.25 9.5C15.25 9.08579 15.5858 8.75 16 8.75C16.4142 8.75 16.75 9.08579 16.75 9.5ZM9.25 9.5C9.25 9.91421 8.91421 10.25 8.5 10.25C8.08579 10.25 7.75 9.91421 7.75 9.5C7.75 9.08579 8.08579 8.75 8.5 8.75C8.91421 8.75 9.25 9.08579 9.25 9.5Z" fill="black"/>
</svg>
