<svg width="24" height="25" viewBox="0 0 24 25" fill="none" xmlns="http://www.w3.org/2000/svg">
<path fill-rule="evenodd" clip-rule="evenodd" d="M12 24.875C18.6274 24.875 24 19.5024 24 12.875C24 6.24758 18.6274 0.875 12 0.875C5.37258 0.875 0 6.24758 0 12.875C0 19.5024 5.37258 24.875 12 24.875ZM18.1433 15.4562C18.0542 15.7132 17.9496 15.9627 17.8304 16.2039C16.7691 18.3507 14.5569 19.8271 12 19.8271C9.44319 19.8271 7.23118 18.3508 6.16982 16.2042C6.05057 15.963 5.94584 15.7134 5.85679 15.4564C5.67428 14.9298 5.55758 14.3724 5.51652 13.7942C5.50557 13.6399 5.5 13.4841 5.5 13.3271C5.5 12.975 5.93121 12.837 6.18805 13.0777C6.27885 13.1628 6.37152 13.246 6.46599 13.3271C6.87412 13.6775 7.31588 13.9898 7.78576 14.2585C7.90968 14.3294 8.03555 14.3973 8.16328 14.462C9.31583 15.0459 10.6194 15.375 11.9998 15.375C13.3804 15.375 14.6841 15.0459 15.8368 14.4617C15.9645 14.397 16.0903 14.3292 16.2142 14.2584C16.6839 13.9896 17.1256 13.6774 17.5336 13.3271C17.6281 13.246 17.7208 13.1628 17.8117 13.0777C18.0686 12.8368 18.5 12.9749 18.5 13.3271C18.5 13.4842 18.4944 13.64 18.4835 13.7944C18.4424 14.3725 18.3257 14.9297 18.1433 15.4562ZM17.75 9.375C17.75 10.3415 16.9665 11.125 16 11.125C15.0335 11.125 14.25 10.3415 14.25 9.375C14.25 8.4085 15.0335 7.625 16 7.625C16.9665 7.625 17.75 8.4085 17.75 9.375ZM10.25 9.375C10.25 10.3415 9.4665 11.125 8.5 11.125C7.5335 11.125 6.75 10.3415 6.75 9.375C6.75 8.4085 7.5335 7.625 8.5 7.625C9.4665 7.625 10.25 8.4085 10.25 9.375Z" fill="black"/>
</svg>
