<svg width="24" height="25" viewBox="0 0 24 25" fill="none" xmlns="http://www.w3.org/2000/svg">
<path d="M18.1434 15.4558C18.0545 15.7125 17.9499 15.9618 17.8309 16.2028C16.7698 18.3502 14.5574 19.8271 12 19.8271C9.44349 19.8271 7.2317 18.3512 6.1702 16.205C6.05084 15.9636 5.94603 15.7139 5.8569 15.4567C5.67429 14.9299 5.55753 14.3722 5.51649 13.7937C5.50556 13.6396 5.5 13.484 5.5 13.3271C5.5 12.9754 5.93075 12.8374 6.18735 13.0779C6.27809 13.163 6.37069 13.246 6.4651 13.3271C6.87345 13.6776 7.31546 13.9901 7.78561 14.2589C7.90963 14.3298 8.03559 14.3977 8.16342 14.4624C9.31568 15.046 10.6188 15.3749 11.9988 15.3749C13.3799 15.3749 14.684 15.0455 15.837 14.461C15.9645 14.3963 16.0902 14.3286 16.2139 14.2578C16.6833 13.9892 17.1247 13.6771 17.5325 13.3271C17.6271 13.2459 17.7198 13.1626 17.8108 13.0774C18.068 12.8362 18.5 12.9744 18.5 13.3271C18.5 13.4844 18.4944 13.6404 18.4834 13.795C18.4423 14.3727 18.3257 14.9296 18.1434 15.4558Z" fill="black"/>
<path d="M17.75 9.375C17.75 10.3415 16.9665 11.125 16 11.125C15.0335 11.125 14.25 10.3415 14.25 9.375C14.25 8.4085 15.0335 7.625 16 7.625C16.9665 7.625 17.75 8.4085 17.75 9.375Z" fill="black"/>
<path d="M10.25 9.375C10.25 10.3415 9.4665 11.125 8.5 11.125C7.5335 11.125 6.75 10.3415 6.75 9.375C6.75 8.4085 7.5335 7.625 8.5 7.625C9.4665 7.625 10.25 8.4085 10.25 9.375Z" fill="black"/>
<path fill-rule="evenodd" clip-rule="evenodd" d="M24 12.875C24 19.5024 18.6274 24.875 12 24.875C5.37258 24.875 0 19.5024 0 12.875C0 6.24758 5.37258 0.875 12 0.875C18.6274 0.875 24 6.24758 24 12.875ZM12 22.375C17.2467 22.375 21.5 18.1217 21.5 12.875C21.5 7.62829 17.2467 3.375 12 3.375C6.7533 3.375 2.5 7.62829 2.5 12.875C2.5 18.1217 6.7533 22.375 12 22.375Z" fill="black"/>
</svg>
