<svg width="24" height="24" viewBox="0 0 24 24" fill="none" xmlns="http://www.w3.org/2000/svg">
<path d="M4.08703 20C2.8457 19.9998 2.15774 18.5889 2.87414 17.6162L2.94836 17.5234L4.80578 15.3564C4.93089 15.2105 5.00012 15.0243 5.00012 14.832L5.00012 10C5.00012 7.19908 6.64565 4.78601 9.01867 3.66699C9.18435 2.16705 10.4561 1.00026 12.0001 1C13.5443 1.00001 14.8148 2.16698 14.9806 3.66699C17.3539 4.78588 19.0001 7.19883 19.0001 10L19.0001 14.832C19.0001 15.0242 19.0685 15.2105 19.1935 15.3564L21.0519 17.5234C21.8858 18.4963 21.1945 19.9997 19.9132 20L15.8732 20C15.4288 21.7253 13.8639 23 12.0001 23C10.1364 22.9999 8.57012 21.7252 8.12609 20L4.08703 20ZM18.8253 18L17.6749 16.6582C17.2392 16.1498 17.0001 15.5017 17.0001 14.832L17.0001 10C17.0001 7.91431 15.7223 6.12468 13.9034 5.375C13.2961 5.12449 13.0001 4.53461 13.0001 4L12.9952 3.89746C12.9439 3.39339 12.5177 3.00001 12.0001 3C11.4481 3.00028 11.0002 3.44791 11.0001 4C11.0001 4.53467 10.7043 5.12379 10.0968 5.37402C8.27753 6.12353 7.00012 7.91405 7.00012 10L7.00012 14.832C7.00012 15.5017 6.76015 16.1498 6.32434 16.6582L5.17395 18L18.8253 18ZM10.2696 20C10.6155 20.5973 11.2603 20.9999 12.0001 21C12.7401 21 13.3857 20.5974 13.7316 20L10.2696 20Z" fill="black"/>
</svg>
