<svg width="24" height="24" viewBox="0 0 24 24" fill="none" xmlns="http://www.w3.org/2000/svg">
<path d="M4.08611 19.25C3.44568 19.2497 3.10011 18.4981 3.51678 18.0117L5.3742 15.8447C5.61582 15.5628 5.7492 15.2033 5.7492 14.832L5.7492 10C5.7492 7.39018 7.34902 5.15444 9.62029 4.21875C9.69075 4.18966 9.7492 4.10679 9.7492 4C9.74923 2.75761 10.7569 1.75036 11.9992 1.75C13.2418 1.75 14.2492 2.75739 14.2492 4C14.2492 4.10681 14.3086 4.18943 14.3791 4.21875C16.6499 5.15466 18.2492 7.39053 18.2492 10L18.2492 14.832C18.2492 15.2032 18.3817 15.5629 18.6232 15.8447L20.4816 18.0117C20.8985 18.4981 20.5528 19.2497 19.9123 19.25L4.08611 19.25ZM14.9006 19.75C14.5672 21.0433 13.3966 21.9999 11.9992 22C10.6017 21.9999 9.43014 21.0435 9.09685 19.75L14.9006 19.75Z" fill="black"/>
</svg>
