<svg width="24" height="24" viewBox="0 0 24 24" fill="none" xmlns="http://www.w3.org/2000/svg">
<path fill-rule="evenodd" clip-rule="evenodd" d="M3.79986 2.90567C3.50697 2.61278 3.03209 2.61278 2.7392 2.90567C2.44631 3.19857 2.44631 3.67344 2.7392 3.96634L20.2951 21.5222C20.5879 21.8151 21.0628 21.8151 21.3557 21.5222C21.6486 21.2293 21.6486 20.7544 21.3557 20.4615L3.79986 2.90567ZM5.75028 10C5.75028 9.50391 5.80807 9.02134 5.91729 8.55865L16.6086 19.25L4.08739 19.25C3.44662 19.25 3.10094 18.4984 3.51794 18.0119L5.37583 15.8444C5.61746 15.5625 5.75027 15.2034 5.75028 14.8322L5.75028 10ZM20.4826 18.0119C20.569 18.1127 20.6226 18.2248 20.6477 18.3393L7.73761 5.42923C8.28339 4.92003 8.92042 4.50746 9.62143 4.21871C9.69194 4.18967 9.75076 4.1069 9.75076 4.00006C9.75076 2.75742 10.7581 1.75006 12.0008 1.75006C13.2434 1.75006 14.2508 2.75742 14.2508 4.00006C14.2508 4.10713 14.3097 4.19009 14.3804 4.21923C16.6512 5.15514 18.2503 7.39053 18.2503 10L18.2503 14.8322C18.2503 15.2034 18.3831 15.5625 18.6247 15.8444L20.4826 18.0119ZM12 23C13.5727 23 14.8627 21.7899 14.9897 20.25L9.01027 20.25C9.13731 21.7899 10.4273 23 12 23Z" fill="black"/>
</svg>
