<svg width="24" height="24" viewBox="0 0 24 24" fill="none" xmlns="http://www.w3.org/2000/svg">
<path d="M3.09166 3.61237C2.99426 3.51472 2.99411 3.35641 3.09166 3.25885C3.18924 3.16152 3.34761 3.16152 3.44518 3.25885L21.0008 20.8145C21.0984 20.9121 21.0982 21.0704 21.0008 21.168C20.9032 21.2657 20.745 21.2657 20.6473 21.168L3.09166 3.61237ZM7.38463 5.78522C8.00076 5.11107 8.76243 4.57213 9.61998 4.21881C9.69044 4.18973 9.74889 4.10685 9.74889 4.00006C9.74892 2.75776 10.7567 1.75056 11.9989 1.75006C13.2415 1.75006 14.2489 2.75745 14.2489 4.00006C14.2489 4.10676 14.3084 4.18941 14.3788 4.21881C16.6495 5.15472 18.2489 7.39059 18.2489 10.0001L18.2489 14.8321C18.2489 15.2032 18.3815 15.5629 18.6229 15.8448L20.4813 18.0118C20.7234 18.2942 20.7078 18.6655 20.5272 18.9278L7.38463 5.78522ZM4.0858 19.2501C3.44559 19.2496 3.10003 18.4981 3.51647 18.0118L5.37389 15.8448C5.61552 15.5629 5.74889 15.2034 5.74889 14.8321L5.74889 10.0001C5.74889 9.30384 5.86303 8.63425 6.07311 8.00885L17.3153 19.2501L4.0858 19.2501ZM14.9003 19.7501C14.5669 21.0433 13.3962 21.9999 11.9989 22.0001C10.6015 21.9998 9.42981 21.0434 9.09655 19.7501L14.9003 19.7501Z" fill="black"/>
</svg>
