<svg width="24" height="24" viewBox="0 0 24 24" fill="none" xmlns="http://www.w3.org/2000/svg">
<path fill-rule="evenodd" clip-rule="evenodd" d="M0.123117 8.43565C0 9.21298 0 10.142 0 12C0 13.858 0 14.787 0.123117 15.5643C0.800832 19.8433 4.15673 23.1992 8.43565 23.8769C9.21298 24 10.142 24 12 24C13.858 24 14.787 24 15.5643 23.8769C19.8433 23.1992 23.1992 19.8433 23.8769 15.5643C24 14.787 24 13.858 24 12C24 10.142 24 9.21298 23.8769 8.43565C23.1992 4.15673 19.8433 0.800832 15.5643 0.123117C14.787 0 13.858 0 12 0C10.142 0 9.21298 0 8.43565 0.123117C4.15673 0.800832 0.800832 4.15673 0.123117 8.43565ZM5.82744 6.27047C6.0227 6.07521 6.33928 6.07521 6.53454 6.27047L18.2384 17.9744C18.4337 18.1696 18.4337 18.4862 18.2384 18.6815C18.0432 18.8767 17.7266 18.8767 17.5313 18.6815L5.82744 6.97758C5.63217 6.78232 5.63217 6.46574 5.82744 6.27047ZM7.87586 10.4389C7.85116 10.6224 7.8384 10.8097 7.8384 11V14.2214C7.8384 14.469 7.74986 14.7083 7.58878 14.8963L6.35018 16.3413C6.07218 16.6656 6.30263 17.1667 6.72981 17.1667H14.6036L7.87586 10.4389ZM16.223 14.5434C16.1893 14.4403 16.1717 14.3317 16.1717 14.2214V11C16.1717 9.26021 15.1055 7.76985 13.5914 7.146C13.5443 7.1266 13.5051 7.07134 13.5051 7.00001C13.5051 6.17158 12.8335 5.50001 12.0051 5.50001C11.1766 5.50001 10.5051 6.17158 10.5051 7.00001C10.5051 7.07134 10.4658 7.1266 10.4187 7.146C10.0557 7.29559 9.71836 7.49501 9.41533 7.73575L16.223 14.5434ZM13.5665 18.25C13.2 18.7072 12.6368 19 12.0052 19C11.3736 19 10.8104 18.7072 10.4439 18.25H13.5665Z" fill="black"/>
</svg>
