<svg width="24" height="24" viewBox="0 0 24 24" fill="none" xmlns="http://www.w3.org/2000/svg">
<path fill-rule="evenodd" clip-rule="evenodd" d="M4.15341 2.55212C3.66526 2.06397 2.8738 2.06396 2.38565 2.55212C1.89749 3.04028 1.89749 3.83173 2.38565 4.31989L19.9415 21.8757C20.4297 22.3639 21.2211 22.3639 21.7093 21.8757C22.1974 21.3876 22.1974 20.5961 21.7093 20.108L4.15341 2.55212ZM5.75028 10C5.75028 9.82288 5.75764 9.64749 5.77209 9.47411L15.548 19.25L4.08739 19.25C3.44662 19.25 3.10094 18.4984 3.51794 18.0119L5.37583 15.8444C5.61746 15.5625 5.75027 15.2034 5.75028 14.8322L5.75028 10ZM18.2503 14.8322C18.2503 14.8488 18.2505 14.8654 18.2511 14.882L8.31828 4.94924C8.71917 4.65649 9.15621 4.41033 9.62143 4.21871C9.69194 4.18967 9.75076 4.1069 9.75076 4.00006C9.75076 2.75742 10.7581 1.75006 12.0008 1.75006C13.2434 1.75006 14.2508 2.75742 14.2508 4.00006C14.2508 4.10713 14.3097 4.19009 14.3804 4.21923C16.6512 5.15514 18.2503 7.39053 18.2503 10L18.2503 14.8322ZM12 23C13.3062 23 14.4175 22.1652 14.8293 21L9.17071 21C9.58254 22.1652 10.6938 23 12 23Z" fill="black"/>
</svg>
