<svg width="24" height="24" viewBox="0 0 24 24" fill="none" xmlns="http://www.w3.org/2000/svg">
<path fill-rule="evenodd" clip-rule="evenodd" d="M4.08739 19.25C3.44662 19.25 3.10094 18.4984 3.51794 18.0119L5.37583 15.8444C5.61746 15.5625 5.75028 15.2034 5.75028 14.8322L5.75028 10C5.75028 7.39005 7.34999 5.15432 9.62143 4.21871C9.69194 4.18967 9.75077 4.1069 9.75077 4.00006C9.75077 2.75742 10.7581 1.75006 12.0008 1.75006C13.2434 1.75006 14.2508 2.75742 14.2508 4.00006C14.2508 4.10713 14.3097 4.19009 14.3804 4.21923C16.6512 5.15514 18.2503 7.39053 18.2503 10L18.2503 14.8322C18.2503 15.2034 18.3831 15.5625 18.6247 15.8444L20.4826 18.0119C20.8996 18.4984 20.5539 19.25 19.9132 19.25L4.08739 19.25ZM12 23C13.5727 23 14.8627 21.7899 14.9897 20.25L9.01027 20.25C9.13731 21.7899 10.4273 23 12 23Z" fill="black"/>
</svg>
