<svg width="24" height="24" viewBox="0 0 24 24" fill="none" xmlns="http://www.w3.org/2000/svg">
<path d="M2.91489 3.78912C2.71985 3.59384 2.7197 3.27728 2.91489 3.08209C3.11009 2.88714 3.42671 2.88713 3.62192 3.08209L21.1776 20.6378C21.3728 20.8329 21.3726 21.1495 21.1776 21.3448C20.9823 21.54 20.6658 21.54 20.4706 21.3448L2.91489 3.78912ZM7.55649 5.60358C8.14017 5.01383 8.84069 4.53988 9.61996 4.21881C9.69042 4.18973 9.74887 4.10685 9.74887 4.00006C9.7489 2.75776 10.7567 1.75056 11.9989 1.75006C13.2415 1.75006 14.2488 2.75745 14.2489 4.00006C14.2489 4.10676 14.3084 4.18941 14.3788 4.21881C16.6495 5.15472 18.2489 7.39059 18.2489 10.0001L18.2489 14.8321C18.2489 15.2032 18.3814 15.5629 18.6229 15.8448L20.4813 18.0118C20.6549 18.2144 20.6947 18.4625 20.6375 18.6837L7.55649 5.60358ZM4.08579 19.2501C3.44557 19.2496 3.10001 18.4981 3.51645 18.0118L5.37387 15.8448C5.6155 15.5629 5.74887 15.2034 5.74887 14.8321L5.74887 10.0001C5.74887 9.4029 5.83271 8.82528 5.9891 8.27838L16.9618 19.2501L4.08579 19.2501ZM14.8241 20.0001C14.4119 21.1644 13.3044 21.9999 11.9989 22.0001C10.6932 21.9999 9.58477 21.1646 9.1727 20.0001L14.8241 20.0001Z" fill="black"/>
</svg>
