<svg width="24" height="24" viewBox="0 0 24 24" fill="none" xmlns="http://www.w3.org/2000/svg">
<path d="M2.38456 4.3194C1.89663 3.83122 1.89648 3.0399 2.38456 2.55182C2.87265 2.06397 3.66404 2.06397 4.15213 2.55182L21.7078 20.1075C22.1959 20.5956 22.1957 21.3869 21.7078 21.8751C21.2196 22.3632 20.4284 22.3632 19.9402 21.8751L2.38456 4.3194ZM7.60331 4.23639C7.9722 3.95467 8.36833 3.70673 8.78788 3.49908C9.02878 1.94244 10.3748 0.750627 11.9988 0.750061C13.6236 0.750061 14.9701 1.94262 15.2107 3.50006C17.6014 4.6836 19.2488 7.14778 19.2488 10.0001L19.2488 14.8321C19.2488 14.9645 19.2966 15.0928 19.3826 15.1934L21.24 17.3614C21.4814 17.643 21.6121 17.9628 21.6512 18.2842L16.7488 13.3809L16.7488 10.0001C16.7488 8.01927 15.5357 6.31902 13.8074 5.60651L13.6775 5.54596C13.0512 5.22482 12.7488 4.58132 12.7488 4.00006L12.7449 3.92389C12.7067 3.54554 12.3873 3.25006 11.9988 3.25006C11.5852 3.25069 11.2488 3.58626 11.2488 4.00006C11.2488 4.62025 10.906 5.31102 10.1912 5.60553C9.91114 5.72094 9.64632 5.86506 9.39627 6.02936L7.60331 4.23639ZM4.08573 20.2501C2.63824 20.2494 1.836 18.6044 2.67069 17.4698L2.75663 17.3614L4.61503 15.1934C4.7012 15.0928 4.74881 14.9646 4.74881 14.8321L4.74881 10.0001C4.74881 9.51744 4.79656 9.046 4.88651 8.5899L7.24881 10.9512L7.24881 14.8321C7.24881 15.5613 6.98793 16.2667 6.51346 16.8204L5.71561 17.7501L14.0476 17.7501L16.5476 20.2501L16.0613 20.2501C15.5274 21.9874 13.911 23.2501 11.9988 23.2501C10.0869 23.2497 8.46898 21.9871 7.93534 20.2501L4.08573 20.2501ZM10.7752 20.2501C11.0906 20.5588 11.5226 20.7498 11.9988 20.7501C12.4748 20.7501 12.9059 20.5584 13.2215 20.2501L10.7752 20.2501Z" fill="black"/>
</svg>
