<svg width="24" height="24" viewBox="0 0 24 24" fill="none" xmlns="http://www.w3.org/2000/svg">
<path fill-rule="evenodd" clip-rule="evenodd" d="M0.123117 8.43565C0 9.21298 0 10.142 0 12C0 13.858 0 14.787 0.123117 15.5643C0.800832 19.8433 4.15673 23.1992 8.43565 23.8769C9.21298 24 10.142 24 12 24C13.858 24 14.787 24 15.5643 23.8769C19.8433 23.1992 23.1992 19.8433 23.8769 15.5643C24 14.787 24 13.858 24 12C24 10.142 24 9.21298 23.8769 8.43565C23.1992 4.15673 19.8433 0.800832 15.5643 0.123117C14.787 0 13.858 0 12 0C10.142 0 9.21298 0 8.43565 0.123117C4.15673 0.800832 0.800832 4.15673 0.123117 8.43565ZM5.56227 6.00531C5.90398 5.6636 6.458 5.6636 6.79971 6.00531L18.5036 17.7092C18.8453 18.0509 18.8453 18.6049 18.5036 18.9466C18.1619 19.2884 17.6079 19.2884 17.2662 18.9466L5.56227 7.24275C5.22056 6.90104 5.22056 6.34702 5.56227 6.00531ZM7.8384 11.4621V14.2214C7.8384 14.469 7.74986 14.7083 7.58878 14.8963L6.35018 16.3413C6.07218 16.6656 6.30263 17.1667 6.72981 17.1667H13.543L7.8384 11.4621ZM16.1717 13.4315V11C16.1717 9.26021 15.1055 7.76985 13.5914 7.146C13.5443 7.1266 13.5051 7.07134 13.5051 7.00001C13.5051 6.17158 12.8335 5.50001 12.0051 5.50001C11.1766 5.50001 10.5051 6.17158 10.5051 7.00001C10.5051 7.07134 10.4658 7.1266 10.4187 7.146C10.2949 7.19704 10.174 7.25389 10.0564 7.31619L16.1717 13.4315ZM13.8598 18.75C13.5631 19.483 12.8446 20 12.0052 20C11.1659 20 10.4473 19.483 10.1506 18.75H13.8598Z" fill="black"/>
</svg>
