<svg width="24" height="24" viewBox="0 0 24 24" fill="none" xmlns="http://www.w3.org/2000/svg">
<path d="M2.91489 3.78912C2.71985 3.59384 2.7197 3.27728 2.91489 3.08209C3.11009 2.88713 3.42671 2.88713 3.62192 3.08209L21.1776 20.6378C21.3728 20.8329 21.3726 21.1495 21.1776 21.3448C20.9823 21.54 20.6658 21.54 20.4706 21.3448L2.91489 3.78912ZM7.38071 5.4278C7.98116 4.82145 8.70013 4.33257 9.49985 3.99908C9.50041 2.61894 10.6196 1.50021 11.9998 1.50006C13.38 1.50033 14.4983 2.61902 14.4989 3.99908C16.8469 4.97823 18.4998 7.29529 18.4998 10.0001L18.4998 14.8321C18.4998 15.1437 18.6115 15.4451 18.8143 15.6817L20.6717 17.8497C20.9395 18.1624 20.9697 18.5569 20.8348 18.8819L17.6844 15.7315C17.5646 15.4489 17.4998 15.1438 17.4998 14.8321L17.4998 10.0001C17.4998 7.70502 16.093 5.73742 14.0936 4.91315C13.7009 4.7512 13.4998 4.36368 13.4998 4.00006C13.4998 3.17183 12.828 2.50033 11.9998 2.50006C11.1716 2.50021 10.4999 3.17175 10.4998 4.00006C10.4998 4.36347 10.2985 4.75031 9.9061 4.91217C9.21866 5.19537 8.60383 5.61637 8.08969 6.13678L7.38071 5.4278ZM4.08676 19.5001C3.23241 19.5001 2.77197 18.4983 3.32797 17.8497L5.18539 15.6817C5.38804 15.4452 5.49985 15.1436 5.49985 14.8321L5.49985 10.0001C5.49985 9.33089 5.60115 8.68551 5.78891 8.07819L6.6102 8.89947C6.53798 9.25512 6.49985 9.62316 6.49985 10.0001L6.49985 14.8321C6.49985 15.3823 6.30218 15.9143 5.94418 16.3321L4.08676 18.5001L16.2118 18.5001L17.2118 19.5001L15.4627 19.5001C15.22 21.1962 13.7628 22.4998 11.9998 22.5001C10.2366 22.5001 8.77763 21.1962 8.535 19.5001L4.08676 19.5001ZM9.54965 19.5001C9.78131 20.6412 10.7904 21.5001 11.9998 21.5001C13.2088 21.4998 14.2144 20.6405 14.4461 19.5001L9.54965 19.5001Z" fill="black"/>
</svg>
