<svg width="24" height="24" viewBox="0 0 24 24" fill="none" xmlns="http://www.w3.org/2000/svg">
<path fill-rule="evenodd" clip-rule="evenodd" d="M3.62308 3.08245C3.42782 2.88719 3.11124 2.88719 2.91598 3.08245C2.72071 3.27771 2.72071 3.5943 2.91598 3.78956L20.4718 21.3454C20.6671 21.5407 20.9837 21.5407 21.1789 21.3454C21.3742 21.1502 21.3742 20.8336 21.1789 20.6383L3.62308 3.08245ZM5.50027 10C5.50027 9.33054 5.60147 8.68479 5.78938 8.07718L6.61062 8.89842C6.53826 9.25436 6.50027 9.62276 6.50027 10L6.50027 14.8322C6.50027 15.3825 6.30341 15.9146 5.94527 16.3325L4.08738 18.5L8.50049 18.5L9.00049 18.5L16.2122 18.5L17.2122 19.5L15.465 19.5C15.2224 21.1961 13.7637 22.5 12.0005 22.5C10.2373 22.5 8.77855 21.1961 8.53593 19.5L4.08738 19.5C3.23303 19.5 2.77212 18.4979 3.32813 17.8492L5.18602 15.6817C5.38881 15.4451 5.50027 15.1438 5.50027 14.8322L5.50027 10ZM8.08847 6.13364L7.38147 5.42664C7.98198 4.82023 8.701 4.33152 9.50077 3.9981C9.50182 2.61829 10.6207 1.50006 12.0008 1.50006C13.381 1.50006 14.4999 2.61851 14.5008 3.99851C16.8486 4.97777 18.5003 7.29541 18.5003 10L18.5003 14.8322C18.5003 15.1438 18.6117 15.4451 18.8145 15.6817L20.6724 17.8492C20.9406 18.1621 20.9722 18.5572 20.8372 18.8824L17.6805 15.7256C17.5624 15.4449 17.5003 15.1414 17.5003 14.8322L17.5003 10C17.5003 7.7048 16.0942 5.73681 14.0946 4.91264C13.7017 4.75073 13.5008 4.36372 13.5008 4.00006C13.5008 3.17163 12.8292 2.50006 12.0008 2.50006C11.1723 2.50006 10.5008 3.17163 10.5008 4.00006C10.5008 4.3636 10.2998 4.75043 9.90707 4.91219C9.21979 5.19528 8.6026 5.61348 8.08847 6.13364ZM12.0005 21.5C10.791 21.5 9.78213 20.6411 9.5505 19.5L14.4505 19.5C14.2188 20.6411 13.21 21.5 12.0005 21.5Z" fill="black"/>
</svg>
