<svg width="24" height="24" viewBox="0 0 24 24" fill="none" xmlns="http://www.w3.org/2000/svg">
<path fill-rule="evenodd" clip-rule="evenodd" d="M3.97664 2.7289C3.58611 2.33837 2.95295 2.33837 2.56242 2.7289C2.1719 3.11942 2.1719 3.75259 2.56242 4.14311L20.1183 21.699C20.5088 22.0895 21.142 22.0895 21.5325 21.699C21.923 21.3084 21.923 20.6753 21.5325 20.2848L3.97664 2.7289ZM5.00027 10C5.00027 9.38582 5.07936 8.79022 5.22787 8.22278L7.00028 9.99519L7.00027 10L7.00027 14.8322C7.00027 15.5018 6.76072 16.1494 6.3249 16.6579L5.17449 18L8.00049 18L9.00049 18L15.0005 18L15.0051 18L17.0051 20L15.8745 20C15.4304 21.7252 13.8643 23 12.0005 23C10.1366 23 8.57055 21.7252 8.1265 20L4.08738 20C2.80585 20 2.11449 18.4968 2.9485 17.5238L4.80639 15.3563C4.9315 15.2103 5.00027 15.0244 5.00027 14.8322L5.00027 10ZM8.81085 6.14891L7.39249 4.73055C7.87989 4.30404 8.4269 3.94411 9.01927 3.66491C9.18591 2.1658 10.4572 1.00006 12.0008 1.00006C13.5445 1.00006 14.8159 2.16606 14.9823 3.6654C17.3554 4.78439 19.0003 7.19902 19.0003 10L19.0003 14.8322C19.0003 15.0244 19.069 15.2103 19.1942 15.3563L21.052 17.5238C21.3646 17.8885 21.463 18.3277 21.3962 18.7343L17.0003 14.3383L17.0003 10C17.0003 7.91431 15.723 6.12459 13.904 5.37492C13.2964 5.12449 13.0008 4.53478 13.0008 4.00006C13.0008 3.44778 12.553 3.00006 12.0008 3.00006C11.4485 3.00006 11.0008 3.44777 11.0008 4.00006C11.0008 4.53474 10.705 5.12427 10.0975 5.3745C9.62841 5.56772 9.19532 5.83011 8.81085 6.14891ZM12.0005 21C11.2602 21 10.6139 20.5978 10.2681 20L13.7329 20C13.3871 20.5978 12.7408 21 12.0005 21Z" fill="black"/>
</svg>
