<svg width="24" height="24" viewBox="0 0 24 24" fill="none" xmlns="http://www.w3.org/2000/svg">
<path d="M4.0875 19.5C3.23315 19.5 2.77271 18.4983 3.32871 17.8496L5.18614 15.6816C5.38883 15.4451 5.50059 15.1436 5.50059 14.832L5.50059 10C5.50059 7.29525 7.15255 4.97818 9.50059 3.99902C9.50115 2.61888 10.6204 1.50015 12.0006 1.5C13.3808 1.50016 14.4991 2.61889 14.4996 3.99902C16.8478 4.97813 18.5006 7.29517 18.5006 10L18.5006 14.832C18.5006 15.1436 18.6123 15.4451 18.815 15.6816L20.6725 17.8496C21.2279 18.4981 20.7674 19.4994 19.9137 19.5L15.4635 19.5C15.2207 21.1962 13.7637 22.4999 12.0006 22.5C10.2374 22.5 8.77836 21.1961 8.53575 19.5L4.0875 19.5ZM19.9137 18.5L18.0553 16.332C17.6973 15.9142 17.5006 15.3822 17.5006 14.832L17.5006 10C17.5006 7.70489 16.0939 5.73732 14.0943 4.91309C13.7016 4.75114 13.5006 4.36362 13.5006 4C13.5006 3.1717 12.8289 2.50016 12.0006 2.5C11.1723 2.50015 10.5006 3.17169 10.5006 4C10.5006 4.36346 10.2994 4.75029 9.90684 4.91211C7.90674 5.73607 6.50059 7.70448 6.50059 10L6.50059 14.832C6.50059 15.3823 6.30297 15.9142 5.94492 16.332L4.0875 18.5L19.9137 18.5ZM9.55039 19.5C9.78204 20.6411 10.7911 21.5 12.0006 21.5C13.2096 21.4999 14.2151 20.6405 14.4469 19.5L9.55039 19.5Z" fill="black"/>
</svg>
