<svg width="24" height="24" viewBox="0 0 24 24" fill="none" xmlns="http://www.w3.org/2000/svg">
<path fill-rule="evenodd" clip-rule="evenodd" d="M3.79986 2.90567C3.50697 2.61278 3.03209 2.61278 2.7392 2.90567C2.44631 3.19857 2.44631 3.67344 2.7392 3.96634L20.2951 21.5222C20.5879 21.8151 21.0628 21.8151 21.3557 21.5222C21.6486 21.2293 21.6486 20.7544 21.3557 20.4615L3.79986 2.90567ZM5.25027 10C5.25027 9.35793 5.33991 8.73689 5.50731 8.14867L6.78162 9.42298C6.76091 9.61249 6.75027 9.80501 6.75027 10L6.75027 14.8322C6.75027 15.4421 6.53207 16.032 6.13509 16.4952L4.63094 18.25L8.25049 18.25L9.00049 18.25L15.0005 18.25L15.6086 18.25L17.1086 19.75L15.6755 19.75C15.328 21.4617 13.8147 22.75 12.0005 22.75C10.1863 22.75 8.67295 21.4617 8.3255 19.75L4.08738 19.75C3.01944 19.75 2.44331 18.4973 3.13831 17.6865L4.9962 15.519C5.16015 15.3277 5.25027 15.0841 5.25027 14.8322L5.25027 10ZM8.4451 6.13671L7.38393 5.07554C7.93052 4.56297 8.5624 4.14042 9.25585 3.83147C9.34295 2.3912 10.5386 1.25006 12.0008 1.25006C13.4631 1.25006 14.6588 2.39144 14.7457 3.83192C17.1042 4.88316 18.7503 7.2485 18.7503 10L18.7503 14.8322C18.7503 15.0841 18.8404 15.3277 19.0043 15.519L20.8622 17.6865C21.1538 18.0266 21.2216 18.4445 21.1234 18.815L17.2527 14.9443C17.2511 14.907 17.2503 14.8696 17.2503 14.8322L17.2503 10C17.2503 7.80955 15.9086 5.9307 13.9993 5.14378C13.4991 4.93761 13.2508 4.44925 13.2508 4.00006C13.2508 3.30971 12.6911 2.75006 12.0008 2.75006C11.3104 2.75006 10.7508 3.3097 10.7508 4.00006C10.7508 4.44917 10.5024 4.93735 10.0023 5.14334C9.42402 5.38153 8.89779 5.71988 8.4451 6.13671ZM12.0005 21.25C11.0208 21.25 10.1874 20.6239 9.87852 19.75L14.1225 19.75C13.8136 20.6239 12.9801 21.25 12.0005 21.25Z" fill="black"/>
</svg>
