<svg width="24" height="24" viewBox="0 0 24 24" fill="none" xmlns="http://www.w3.org/2000/svg">
<path fill-rule="evenodd" clip-rule="evenodd" d="M0.123117 8.43565C0 9.21298 0 10.142 0 12C0 13.858 0 14.787 0.123117 15.5643C0.800832 19.8433 4.15673 23.1992 8.43565 23.8769C9.21298 24 10.142 24 12 24C13.858 24 14.787 24 15.5643 23.8769C19.8433 23.1992 23.1992 19.8433 23.8769 15.5643C24 14.787 24 13.858 24 12C24 10.142 24 9.21298 23.8769 8.43565C23.1992 4.15673 19.8433 0.800832 15.5643 0.123117C14.787 0 13.858 0 12 0C10.142 0 9.21298 0 8.43565 0.123117C4.15673 0.800832 0.800832 4.15673 0.123117 8.43565ZM6.00421 6.44725C6.10184 6.34962 6.26014 6.34962 6.35777 6.44725L18.0617 18.1512C18.1593 18.2488 18.1593 18.4071 18.0617 18.5047C17.964 18.6023 17.8057 18.6023 17.7081 18.5047L6.00421 6.80081C5.90658 6.70317 5.90658 6.54488 6.00421 6.44725ZM7.998 9.85395C7.89406 10.218 7.8384 10.6025 7.8384 11V14.2214C7.8384 14.469 7.74986 14.7083 7.58878 14.8963L6.35018 16.3413C6.07218 16.6656 6.30263 17.1667 6.72981 17.1667H15.3107L7.998 9.85395ZM17.7646 16.7921C17.8036 16.644 17.7764 16.4771 17.66 16.3413L16.4214 14.8963C16.2603 14.7083 16.1717 14.469 16.1717 14.2214V11C16.1717 9.26021 15.1055 7.76985 13.5914 7.146C13.5443 7.1266 13.5051 7.07134 13.5051 7.00001C13.5051 6.17158 12.8335 5.50001 12.0051 5.50001C11.1766 5.50001 10.5051 6.17158 10.5051 7.00001C10.5051 7.07134 10.4658 7.1266 10.4187 7.146C9.89887 7.3602 9.4318 7.67656 9.04256 8.07009L17.7646 16.7921ZM13.8598 17.75C13.5631 18.483 12.8446 19 12.0052 19C11.1659 19 10.4473 18.483 10.1506 17.75H13.8598Z" fill="black"/>
</svg>
