<svg width="24" height="24" viewBox="0 0 24 24" fill="none" xmlns="http://www.w3.org/2000/svg">
<path fill-rule="evenodd" clip-rule="evenodd" d="M8.00194 18L5.17595 18L6.32635 16.6579C6.76217 16.1494 7.00173 15.5018 7.00173 14.8322L7.00173 10C7.00173 7.91392 8.27952 6.12393 10.099 5.3745C10.7065 5.12427 11.0022 4.53474 11.0022 4.00006C11.0022 3.44777 11.4499 3.00006 12.0022 3.00006C12.5545 3.00006 13.0022 3.44778 13.0022 4.00006C13.0022 4.53478 13.2979 5.12449 13.9055 5.37491C15.7244 6.12459 17.0017 7.91431 17.0017 10L17.0017 14.8322C17.0017 15.5018 17.2413 16.1494 17.6771 16.6579L18.4364 16.0071L17.6771 16.6579L18.8275 18L16.0019 18L15.0019 18L9.00194 18L8.00194 18ZM8.12795 20L4.08884 20C2.8073 20 2.11594 18.4968 2.94995 17.5238L4.80784 15.3563C4.93295 15.2103 5.00173 15.0244 5.00173 14.8322L5.00173 10C5.00173 7.19861 6.64707 4.78368 9.02072 3.66491C9.18736 2.1658 10.4587 1.00006 12.0022 1.00006C13.5459 1.00006 14.8173 2.16606 14.9838 3.6654C17.3569 4.78439 19.0017 7.19902 19.0017 10L19.0017 14.8322C19.0017 15.0244 19.0705 15.2103 19.1956 15.3563L21.0535 17.5238C21.8875 18.4968 21.1961 20 19.9146 20L15.8759 20C15.4319 21.7252 13.8658 23 12.0019 23C10.1381 23 8.572 21.7252 8.12795 20ZM12.0019 21C11.2617 21 10.6153 20.5978 10.2695 20L13.7344 20C13.3886 20.5978 12.7422 21 12.0019 21Z" fill="black"/>
</svg>
