<svg width="24" height="24" viewBox="0 0 24 24" fill="none" xmlns="http://www.w3.org/2000/svg">
<path fill-rule="evenodd" clip-rule="evenodd" d="M8.50097 18.5L4.08787 18.5L5.94576 16.3325C6.3039 15.9146 6.50076 15.3825 6.50076 14.8322L6.50076 10C6.50076 7.70437 7.90732 5.73608 9.90756 4.91218C10.3003 4.75043 10.5012 4.3636 10.5012 4.00006C10.5012 3.17163 11.1728 2.50006 12.0012 2.50006C12.8297 2.50006 13.5012 3.17163 13.5012 4.00006C13.5012 4.36372 13.7022 4.75073 14.0951 4.91264C16.0947 5.73681 17.5008 7.70479 17.5008 10L17.5008 14.8322C17.5008 15.3825 17.6976 15.9146 18.0558 16.3325L19.9136 18.5L9.00097 18.5L8.50097 18.5ZM8.53642 19.5L4.08787 19.5C3.23352 19.5 2.77261 18.4979 3.32861 17.8492L5.1865 15.6817C5.38929 15.4451 5.50076 15.1438 5.50076 14.8322L5.50076 10C5.50076 7.29503 7.15291 4.97712 9.50125 3.9981C9.50231 2.61829 10.6212 1.50006 12.0012 1.50006C13.3814 1.50006 14.5004 2.61851 14.5012 3.99851C16.8491 4.97776 18.5008 7.29541 18.5008 10L18.5008 14.8322C18.5008 15.1438 18.6122 15.4451 18.815 15.6817L20.6729 17.8492C21.2289 18.4979 20.768 19.5 19.9136 19.5L15.4655 19.5C15.2229 21.1961 13.7642 22.5 12.001 22.5C10.2377 22.5 8.77903 21.1961 8.53642 19.5ZM12.001 21.5C10.7915 21.5 9.78262 20.6411 9.55098 19.5L14.451 19.5C14.2193 20.6411 13.2105 21.5 12.001 21.5Z" fill="black"/>
</svg>
