<svg width="24" height="24" viewBox="0 0 24 24" fill="none" xmlns="http://www.w3.org/2000/svg">
<path fill-rule="evenodd" clip-rule="evenodd" d="M7.74851 17.75L5.71608 17.75L6.51275 16.8206C6.9874 16.2668 7.2483 15.5615 7.2483 14.8322L7.2483 10C7.2483 8.0187 8.46171 6.31785 10.1907 5.60566C10.9056 5.31119 11.2488 4.6203 11.2488 4.00006C11.2488 3.58584 11.5846 3.25006 11.9988 3.25006C12.413 3.25006 12.7488 3.58585 12.7488 4.00006C12.7488 4.62032 13.0918 5.31137 13.8068 5.60605C15.5353 6.31848 16.7483 8.01906 16.7483 10L16.7483 14.8322C16.7483 15.5615 17.0092 16.2668 17.4839 16.8206L18.4329 16.0071L17.4839 16.8206L18.2805 17.75L8.99851 17.75L7.74851 17.75ZM7.93531 20.25L4.08541 20.25C2.59029 20.25 1.78371 18.4963 2.75671 17.3611L4.6146 15.1936C4.70088 15.0929 4.7483 14.9647 4.7483 14.8322L4.7483 10C4.7483 7.14711 6.3958 4.68164 8.78727 3.4984C9.02847 1.94167 10.3745 0.75006 11.9988 0.75006C13.6233 0.75006 14.9694 1.94194 15.2104 3.49892C17.6013 4.68237 19.2483 7.14753 19.2483 10L19.2483 14.8322C19.2483 14.9647 19.2957 15.0929 19.382 15.1936L21.2399 17.3611C22.2129 18.4963 21.4063 20.25 19.9112 20.25L16.0617 20.25C15.5279 21.9872 13.9107 23.25 11.9985 23.25C10.0863 23.25 8.4691 21.9872 7.93531 20.25ZM11.9985 20.75C11.5217 20.75 11.0894 20.5593 10.7738 20.25L13.2233 20.25C12.9076 20.5593 12.4753 20.75 11.9985 20.75Z" fill="black"/>
</svg>
