<svg width="24" height="24" viewBox="0 0 24 24" fill="none" xmlns="http://www.w3.org/2000/svg">
<path d="M5.35742 9.01367L4.1377 11.126C2.90117 11.4964 2.00001 12.6429 2 14C2 15.6569 3.34315 17 5 17C6.00305 17 6.8889 16.5061 7.43359 15.75H9.68457C8.97515 17.6482 7.14569 19 5 19C2.23858 19 0 16.7614 0 14C6.18484e-06 11.2386 2.23858 9 5 9C5.1202 9 5.23934 9.00533 5.35742 9.01367Z" fill="black"/>
<path d="M8.55176 10.4814C8.99526 10.9291 9.35466 11.46 9.60449 12.0488L9.48926 12.25H7.53125L8.55176 10.4814Z" fill="black"/>
<path fill-rule="evenodd" clip-rule="evenodd" d="M14.4131 5.44922C15.1485 4.46872 16.4509 4.10341 17.5889 4.55859L18.8711 5.07129C19.3838 5.27636 19.6336 5.85839 19.4287 6.37109C19.2236 6.88377 18.6416 7.13358 18.1289 6.92871L16.8457 6.41504C16.5476 6.29589 16.2065 6.39171 16.0137 6.64844C15.8356 6.88593 15.8239 7.20923 15.9844 7.45898L17.1914 9.33789C17.7524 9.12013 18.3621 9 19 9C21.7614 9 24 11.2386 24 14C24 16.7614 21.7614 19 19 19C16.2386 19 14 16.7614 14 14C14 12.5967 14.5787 11.329 15.5098 10.4209L14.5674 8.9541L11.3662 14.5C11.1875 14.8092 10.8571 15 10.5 15H4.5C4.14287 15 3.81247 14.8092 3.63379 14.5C3.45547 14.1908 3.45545 13.8092 3.63379 13.5L7.63379 6.57227C7.81242 6.26286 8.14273 6.07227 8.5 6.07227H14.0654C14.1525 5.85376 14.2673 5.64362 14.4131 5.44922ZM19 11C18.7633 11 18.5334 11.0292 18.3125 11.0811L19.8408 13.459C20.1394 13.9234 20.0053 14.5421 19.541 14.8408C19.0766 15.1394 18.4579 15.0053 18.1592 14.541L16.6309 12.1631C16.2366 12.6709 16 13.3073 16 14C16 15.6569 17.3431 17 19 17C20.6569 17 22 15.6569 22 14C22 12.3432 20.6569 11 19 11ZM6.23242 13H9.92285L12.7676 8.07227H9.07715L6.23242 13Z" fill="black"/>
<path d="M9 4C9.55228 4 10 4.44772 10 5C10 5.55228 9.55228 6 9 6H6C5.44772 6 5 5.55228 5 5C5 4.44772 5.44772 4 6 4H9Z" fill="black"/>
</svg>
