<svg width="24" height="24" viewBox="0 0 24 24" fill="none" xmlns="http://www.w3.org/2000/svg">
<path d="M5 9C5.30575 9 5.6049 9.0285 5.89551 9.08105L3.41699 13.375C3.19402 13.7615 3.1941 14.2385 3.41699 14.625C3.64033 15.0115 4.05356 15.25 4.5 15.25H9.84277C9.28774 17.4066 7.32982 19 5 19C2.23858 19 0 16.7614 0 14C6.18484e-06 11.2386 2.23858 9 5 9Z" fill="black"/>
<path d="M19 9C21.7614 9 24 11.2386 24 14C24 16.7614 21.7614 19 19 19C16.2386 19 14 16.7614 14 14C14 12.6886 14.5051 11.4953 15.3311 10.6035L17.9482 14.6758C18.3215 15.2564 19.0951 15.4249 19.6758 15.0518C20.2564 14.6785 20.4249 13.9049 20.0518 13.3242L17.4326 9.25098C17.9256 9.08835 18.4525 9 19 9Z" fill="black"/>
<path d="M8.17383 10.1357C8.96024 10.7824 9.54439 11.6651 9.82129 12.6748L9.77832 12.75H6.66602L8.17383 10.1357Z" fill="black"/>
<path fill-rule="evenodd" clip-rule="evenodd" d="M14.8135 5.74902C15.4132 4.94939 16.4753 4.65124 17.4033 5.02246L18.6855 5.53613C18.9419 5.63869 19.0664 5.92916 18.9639 6.18555C18.8613 6.44194 18.5708 6.56642 18.3145 6.46387L17.0312 5.95117C16.5231 5.74801 15.9417 5.91081 15.6133 6.34863C15.3098 6.75326 15.2901 7.30399 15.5635 7.72949L19.4209 13.7295C19.5702 13.9618 19.5028 14.2716 19.2705 14.4209C19.0382 14.5702 18.7284 14.5028 18.5791 14.2705L14.7227 8.27051C14.6599 8.17286 14.6055 8.07166 14.5596 7.96777L10.9326 14.25C10.8433 14.4045 10.6785 14.5 10.5 14.5H4.5C4.3215 14.5 4.15675 14.4045 4.06738 14.25C3.97824 14.0955 3.97831 13.9046 4.06738 13.75L8.06738 6.82227L8.10352 6.76758C8.19737 6.64541 8.34349 6.57227 8.5 6.57227H14.4307C14.4988 6.28021 14.6259 5.9992 14.8135 5.74902ZM5.36523 13.5H10.2119L13.6348 7.57227H8.78809L5.36523 13.5Z" fill="black"/>
<path d="M9 4.5C9.27614 4.5 9.5 4.72386 9.5 5C9.5 5.27614 9.27614 5.5 9 5.5H6C5.72386 5.5 5.5 5.27614 5.5 5C5.5 4.72386 5.72386 4.5 6 4.5H9Z" fill="black"/>
</svg>
