<svg width="24" height="24" viewBox="0 0 24 24" fill="none" xmlns="http://www.w3.org/2000/svg">
<path d="M5 9C5.21371 9 5.42421 9.01402 5.63086 9.04004L4.78418 10.5068C2.95171 10.6183 1.50001 12.1395 1.5 14C1.5 15.933 3.067 17.5 5 17.5C6.39618 17.5 7.60135 16.6825 8.16309 15.5H9.77148C9.13439 17.5286 7.23886 19 5 19C2.23858 19 0 16.7614 0 14C6.18484e-06 11.2386 2.23858 9 5 9Z" fill="black"/>
<path d="M8.36621 10.3027C8.97387 10.8563 9.44286 11.5583 9.71973 12.3506L9.63379 12.5H8.16309C8.0143 12.1868 7.82052 11.8991 7.58984 11.6455L8.36621 10.3027Z" fill="black"/>
<path fill-rule="evenodd" clip-rule="evenodd" d="M14.6133 5.59863C15.2808 4.70859 16.4631 4.37782 17.4961 4.79102L18.7783 5.30371C19.1628 5.45752 19.35 5.89378 19.1963 6.27832C19.0425 6.66285 18.6062 6.85 18.2217 6.69629L16.9385 6.18359C16.5352 6.02231 16.0741 6.15156 15.8135 6.49902C15.5727 6.82011 15.5565 7.25712 15.7734 7.59473L16.957 9.43555C17.5808 9.15593 18.2722 9 19 9C21.7614 9 24 11.2386 24 14C24 16.7614 21.7614 19 19 19C16.2386 19 14 16.7614 14 14C14 12.505 14.6563 11.1633 15.6963 10.2471L14.5557 8.47363L11.1494 14.375C11.0154 14.6068 10.7678 14.75 10.5 14.75H4.5C4.23219 14.75 3.98461 14.6068 3.85059 14.375C3.71686 14.1431 3.71688 13.8569 3.85059 13.625L7.85059 6.69727L7.90625 6.61426C8.04707 6.43165 8.2657 6.32227 8.5 6.32227H14.2402C14.3223 6.06668 14.4461 5.82156 14.6133 5.59863ZM19 10.5C18.5714 10.5 18.1608 10.5768 17.7812 10.7178L19.6309 13.5947C19.8547 13.9431 19.7536 14.4069 19.4053 14.6309C19.0569 14.8547 18.5931 14.7536 18.3691 14.4053L16.5205 11.5293C15.8897 12.1623 15.5 13.0357 15.5 14C15.5 15.933 17.067 17.5 19 17.5C20.933 17.5 22.5 15.933 22.5 14C22.5 12.067 20.933 10.5 19 10.5ZM5.79883 13.25H10.0674L13.2012 7.82227H8.93262L5.79883 13.25Z" fill="black"/>
<path d="M9 4.25C9.41421 4.25 9.75 4.58579 9.75 5C9.75 5.41421 9.41421 5.75 9 5.75H6C5.58579 5.75 5.25 5.41421 5.25 5C5.25 4.58579 5.58579 4.25 6 4.25H9Z" fill="black"/>
</svg>
