<svg width="24" height="24" viewBox="0 0 24 24" fill="none" xmlns="http://www.w3.org/2000/svg">
<path d="M5 9C5.21371 9 5.42421 9.01402 5.63086 9.04004L3.20117 13.25C2.93349 13.7139 2.93345 14.2861 3.20117 14.75C3.46917 15.2139 3.96424 15.5 4.5 15.5H9.77148C9.13439 17.5286 7.23886 19 5 19C2.23858 19 0 16.7614 0 14C6.18484e-06 11.2386 2.23858 9 5 9Z" fill="black"/>
<path d="M19 9C21.7614 9 24 11.2386 24 14C24 16.7614 21.7614 19 19 19C16.2386 19 14 16.7614 14 14C14 12.7824 14.4348 11.666 15.1582 10.7988L17.7383 14.8115C18.1863 15.5081 19.1148 15.7096 19.8115 15.2617C20.5081 14.8137 20.7096 13.8852 20.2617 13.1885L17.6816 9.17578C18.1017 9.06126 18.5437 9 19 9Z" fill="black"/>
<path d="M8.36621 10.3027C8.97387 10.8563 9.44286 11.5583 9.71973 12.3506L9.63379 12.5H7.09766L8.36621 10.3027Z" fill="black"/>
<path fill-rule="evenodd" clip-rule="evenodd" d="M14.6133 5.59863C15.2808 4.70859 16.4631 4.37782 17.4961 4.79102L18.7783 5.30371C19.1628 5.45752 19.35 5.89378 19.1963 6.27832C19.0425 6.66285 18.6062 6.85 18.2217 6.69629L16.9385 6.18359C16.5352 6.02231 16.0741 6.15156 15.8135 6.49902C15.5727 6.82011 15.5565 7.25712 15.7734 7.59473L19.6309 13.5947C19.8547 13.9431 19.7536 14.4069 19.4053 14.6309C19.0569 14.8547 18.5931 14.7536 18.3691 14.4053L14.5557 8.47363L11.1494 14.375C11.0154 14.6068 10.7678 14.75 10.5 14.75H4.5C4.23219 14.75 3.98461 14.6068 3.85059 14.375C3.71686 14.1431 3.71688 13.8569 3.85059 13.625L7.85059 6.69727L7.90625 6.61426C8.04707 6.43165 8.2657 6.32227 8.5 6.32227H14.2402C14.3223 6.06668 14.4461 5.82156 14.6133 5.59863ZM5.79883 13.25H10.0674L13.2012 7.82227H8.93262L5.79883 13.25Z" fill="black"/>
<path d="M9 4.25C9.41421 4.25 9.75 4.58579 9.75 5C9.75 5.41421 9.41421 5.75 9 5.75H6C5.58579 5.75 5.25 5.41421 5.25 5C5.25 4.58579 5.58579 4.25 6 4.25H9Z" fill="black"/>
</svg>
