<svg width="24" height="24" viewBox="0 0 24 24" fill="none" xmlns="http://www.w3.org/2000/svg">
<path d="M5 9C5.39703 9 5.78301 9.04731 6.15332 9.13477L5.8916 9.58887C5.60338 9.53093 5.30529 9.5 5 9.5C2.51472 9.5 0.500006 11.5147 0.5 14C0.5 16.4853 2.51472 18.5 5 18.5C7.14145 18.5 8.93185 17.0038 9.38672 15H9.89941C9.4361 17.2822 7.41892 19 5 19C2.23858 19 0 16.7614 0 14C6.18484e-06 11.2386 2.23858 9 5 9Z" fill="black"/>
<path d="M7.97461 9.98047C8.94801 10.702 9.64951 11.769 9.89941 13H9.38672C9.1492 11.9537 8.5487 11.0457 7.72266 10.417L7.97461 9.98047Z" fill="black"/>
<path fill-rule="evenodd" clip-rule="evenodd" d="M15.0137 5.89844C15.5456 5.18949 16.4876 4.9257 17.3105 5.25488L18.5928 5.76758C18.7209 5.81883 18.7836 5.96462 18.7324 6.09277C18.6812 6.22091 18.5354 6.28358 18.4072 6.23242L17.124 5.71875C16.5109 5.47371 15.8093 5.67099 15.4131 6.19922C15.0472 6.68746 15.0236 7.35197 15.3535 7.86523L16.5098 9.66406C17.2431 9.242 18.0932 9 19 9C21.7614 9 24 11.2386 24 14C24 16.7614 21.7614 19 19 19C16.2386 19 14 16.7614 14 14C14 12.3247 14.8241 10.8419 16.0889 9.93457L14.9326 8.13574C14.7728 7.88713 14.6755 7.61195 14.6387 7.33105L10.7168 14.125C10.6721 14.2021 10.5892 14.25 10.5 14.25H4.5C4.41082 14.25 4.32791 14.2021 4.2832 14.125C4.23889 14.0479 4.23884 13.9521 4.2832 13.875L8.2832 6.94727C8.32786 6.86992 8.41068 6.82227 8.5 6.82227H14.5C14.548 6.82227 14.5935 6.83659 14.6328 6.86133C14.6703 6.5195 14.7979 6.18612 15.0137 5.89844ZM19 9.5C18.1928 9.5 17.4353 9.71278 16.7803 10.085L19.21 13.8652C19.2845 13.9814 19.2509 14.1353 19.1348 14.21C19.0186 14.2845 18.8647 14.2509 18.79 14.1348L16.3604 10.3555C15.2332 11.1733 14.5 12.5009 14.5 14C14.5 16.4853 16.5147 18.5 19 18.5C21.4853 18.5 23.5 16.4853 23.5 14C23.5 11.5147 21.4853 9.5 19 9.5ZM4.93359 13.75H10.3555L14.0664 7.32227H8.64453L4.93359 13.75Z" fill="black"/>
<path d="M9 4.75C9.13807 4.75 9.25 4.86193 9.25 5C9.25 5.13807 9.13807 5.25 9 5.25H6C5.86193 5.25 5.75 5.13807 5.75 5C5.75 4.86193 5.86193 4.75 6 4.75H9Z" fill="black"/>
</svg>
