<svg width="24" height="24" viewBox="0 0 24 24" fill="none" xmlns="http://www.w3.org/2000/svg">
<path fill-rule="evenodd" clip-rule="evenodd" d="M18.4996 5.5C19.0519 5.5 19.4996 5.94772 19.4996 6.5V7.04004C19.8317 6.92645 20.2338 6.83465 20.6519 6.81055C21.4813 6.76283 22.5003 6.98812 23.0328 8.00684C23.3058 8.52944 23.5847 9.39444 23.1148 10.4844C22.6737 11.5069 21.6043 12.6485 19.4527 13.8887C19.115 16.4902 16.8933 18.4999 14.1998 18.5H5.79938C2.87242 18.4999 0.499678 16.1271 0.499573 13.2002V6.5C0.499573 5.94772 0.947288 5.5 1.49957 5.5H18.4996ZM1.49957 13.2002C1.49968 15.5749 3.42471 17.4999 5.79938 17.5H14.1998C16.5744 17.4999 18.4995 15.5749 18.4996 13.2002V6.5H1.49957V13.2002ZM20.7095 7.80957C20.395 7.8277 20.0822 7.89866 19.8209 7.98828C19.691 8.03285 19.5832 8.07827 19.4996 8.11914V12.6953C21.1761 11.6462 21.9082 10.7571 22.1968 10.0879C22.5096 9.36208 22.3316 8.82305 22.147 8.46973C21.8748 7.94901 21.3488 7.77281 20.7095 7.80957Z" fill="black"/>
</svg>
