<svg width="24" height="24" viewBox="0 0 24 24" fill="none" xmlns="http://www.w3.org/2000/svg">
<path d="M18.4996 6C18.7757 6 18.9996 6.22386 18.9996 6.5V13.2002C18.9995 15.851 16.8506 17.9999 14.1998 18H5.79938C3.14857 17.9999 0.999678 15.851 0.999573 13.2002V6.5C0.999573 6.22386 1.22343 6 1.49957 6H18.4996Z" fill="black"/>
<path d="M20.6373 6.56152C21.5142 6.511 22.6568 6.7474 23.2545 7.89062C23.5496 8.45548 23.8543 9.40209 23.3453 10.583C22.902 11.611 21.8826 12.7113 19.9576 13.8799C19.9836 13.657 19.9996 13.4301 19.9996 13.2002V12.0635C21.202 11.2163 21.7426 10.5103 21.9673 9.98926C22.241 9.35451 22.0878 8.89698 21.9254 8.58594C21.7182 8.18963 21.3151 8.02448 20.7232 8.05859C20.4725 8.07307 20.2211 8.12617 19.9996 8.19434V6.64551C20.2028 6.60374 20.4176 6.57418 20.6373 6.56152Z" fill="black"/>
</svg>
