<svg width="26" height="24" viewBox="0 0 26 24" fill="none" xmlns="http://www.w3.org/2000/svg">
<path fill-rule="evenodd" clip-rule="evenodd" d="M18.4995 4.75C19.2477 4.75 19.884 5.22038 20.1343 5.88086C20.4418 5.82024 20.7712 5.77467 21.1099 5.75781C22.2168 5.7027 23.8279 5.93848 24.7095 7.39551C25.1394 8.10617 25.6068 9.35943 24.8442 10.8877C24.1868 12.2051 22.6994 13.5281 20.0063 14.8945C19.2733 17.4107 16.9525 19.2499 14.1997 19.25H6.79932C3.45815 19.2499 0.749617 16.5414 0.749512 13.2002V6.5C0.749512 5.5335 1.53301 4.75 2.49951 4.75H18.4995ZM3.24951 13.2002C3.24962 15.1607 4.83886 16.7499 6.79932 16.75H14.1997C16.1602 16.7499 17.7494 15.1607 17.7495 13.2002V7.25H3.24951V13.2002ZM21.2339 8.25488C20.8899 8.27204 20.5439 8.33795 20.2495 8.42188V11.9023C21.7455 10.984 22.368 10.2501 22.6069 9.77148C22.8565 9.27136 22.7326 8.9569 22.5708 8.68945C22.4121 8.42717 22.0256 8.21546 21.2339 8.25488Z" fill="black"/>
</svg>
