<svg width="26" height="24" viewBox="0 0 26 24" fill="none" xmlns="http://www.w3.org/2000/svg">
<path fill-rule="evenodd" clip-rule="evenodd" d="M0.749512 4.75V13.2C0.749512 16.5413 3.45819 19.25 6.79951 19.25H14.1995C17.3433 19.25 19.927 16.8521 20.2215 13.7855C22.7796 12.4579 24.2045 11.1696 24.8442 9.88747C25.6069 8.35915 25.1395 7.10604 24.7095 6.39539C23.8279 4.93837 22.2168 4.70239 21.1098 4.7575C20.8132 4.77227 20.5235 4.80805 20.2495 4.85755V4.75H0.749512ZM20.2495 7.42077V10.9032C21.7462 9.98457 22.3684 9.2499 22.6073 8.77124C22.8568 8.27111 22.7324 7.95704 22.5706 7.68958C22.4119 7.4273 22.0259 7.21499 21.2342 7.25441C20.8902 7.27153 20.5439 7.33684 20.2495 7.42077ZM3.24951 13.2V7.25H17.7495V13.2C17.7495 15.1606 16.1601 16.75 14.1995 16.75H6.79951C4.8389 16.75 3.24951 15.1606 3.24951 13.2Z" fill="black"/>
</svg>
