<svg width="24" height="24" viewBox="0 0 24 24" fill="none" xmlns="http://www.w3.org/2000/svg">
<path d="M18.4995 6C18.7757 6 18.9995 6.22386 18.9995 6.5V13.2002C18.9994 15.851 16.8505 17.9999 14.1997 18H5.79932C3.1485 17.9999 0.999617 15.851 0.999512 13.2002V6.5C0.999512 6.22386 1.22337 6 1.49951 6H18.4995Z" fill="black"/>
<path d="M20.6226 6.31152C21.547 6.25824 22.8133 6.50751 23.4761 7.77539C23.7933 8.38256 24.1227 9.41008 23.5747 10.6816C23.1111 11.7568 22.0729 12.8706 20.1909 14.0303C20.2282 13.7589 20.2495 13.4818 20.2495 13.2002V11.5684C21.1492 10.871 21.5609 10.3006 21.7378 9.89062C21.9723 9.34668 21.844 8.96991 21.7036 8.70117C21.5615 8.4295 21.2821 8.27723 20.7378 8.30859C20.5732 8.31808 20.4067 8.34572 20.2495 8.38379V6.5C20.2495 6.44934 20.2459 6.39918 20.2417 6.34961C20.3661 6.33179 20.4934 6.31897 20.6226 6.31152Z" fill="black"/>
</svg>
