<svg width="24" height="24" viewBox="0 0 24 24" fill="none" xmlns="http://www.w3.org/2000/svg">
<path fill-rule="evenodd" clip-rule="evenodd" d="M18.4996 5C19.2918 5 19.9386 5.61436 19.9937 6.39258C20.1948 6.35303 20.4061 6.32401 20.6226 6.31152C21.5471 6.25824 22.8134 6.50751 23.4761 7.77539C23.7933 8.38256 24.1227 9.41008 23.5748 10.6816C23.0886 11.809 21.9719 12.9807 19.9117 14.2012C19.4372 16.9271 17.0614 18.9999 14.1998 19H5.79938C2.59628 18.9999 -0.000321851 16.4033 -0.000427246 13.2002V6.5C-0.000427117 5.67157 0.671145 5 1.49957 5H18.4996ZM1.99957 13.2002C1.99968 15.2987 3.70085 16.9999 5.79938 17H14.1998C16.2983 16.9999 17.9995 15.2987 17.9996 13.2002V7H1.99957V13.2002ZM20.7379 8.30859C20.4823 8.32333 20.2216 8.38046 19.9996 8.45508V11.7549C21.0746 10.9722 21.5453 10.3367 21.7379 9.89062C21.9723 9.34668 21.8441 8.96991 21.7037 8.70117C21.5616 8.4295 21.2821 8.27723 20.7379 8.30859Z" fill="black"/>
</svg>
