<svg width="24" height="24" viewBox="0 0 24 24" fill="none" xmlns="http://www.w3.org/2000/svg">
<path fill-rule="evenodd" clip-rule="evenodd" d="M18.4995 5.5C19.0518 5.5 19.4995 5.94772 19.4995 6.5V7.04004C19.8317 6.92645 20.2337 6.83465 20.6519 6.81055C21.4812 6.76283 22.5002 6.98812 23.0327 8.00684C23.3058 8.52944 23.5846 9.39444 23.1147 10.4844C22.6737 11.5069 21.6043 12.6485 19.4526 13.8887C19.1149 16.4902 16.8932 18.4999 14.1997 18.5H5.79932C2.87236 18.4999 0.499617 16.1271 0.499512 13.2002V6.5C0.499512 5.94772 0.947227 5.5 1.49951 5.5H18.4995ZM1.49951 13.2002C1.49962 15.5749 3.42465 17.4999 5.79932 17.5H14.1997C16.5744 17.4999 18.4994 15.5749 18.4995 13.2002V6.5H1.49951V13.2002ZM20.7095 7.80957C20.3949 7.8277 20.0821 7.89866 19.8208 7.98828C19.6909 8.03285 19.5831 8.07827 19.4995 8.11914V12.6953C21.1761 11.6462 21.9081 10.7571 22.1968 10.0879C22.5096 9.36208 22.3316 8.82305 22.147 8.46973C21.8748 7.94901 21.3487 7.77281 20.7095 7.80957Z" fill="black"/>
</svg>
