<svg width="24" height="24" viewBox="0 0 24 24" fill="none" xmlns="http://www.w3.org/2000/svg">
<path fill-rule="evenodd" clip-rule="evenodd" d="M0.499573 5.5H19.4996V6.0404C19.8318 5.92675 20.2333 5.83447 20.6516 5.81036C21.481 5.76255 22.5003 5.98728 23.0329 7.00614C23.306 7.52869 23.5853 8.39335 23.1152 9.48364C22.6775 10.499 21.621 11.6331 19.4996 12.8633V13.2C19.4996 16.1271 17.1267 18.5 14.1996 18.5H5.79957C2.87246 18.5 0.499573 16.1271 0.499573 13.2V5.5ZM19.4996 11.6963C21.1771 10.6469 21.9083 9.75719 22.1969 9.08777C22.51 8.36154 22.3314 7.82275 22.1467 7.4694C21.8744 6.94858 21.3486 6.77185 20.7091 6.8087C20.3945 6.82683 20.0819 6.89784 19.8205 6.9875C19.6906 7.03206 19.5831 7.07787 19.4996 7.11885V11.6963Z" fill="black"/>
</svg>
