<svg width="24" height="24" viewBox="0 0 24 24" fill="none" xmlns="http://www.w3.org/2000/svg">
<path fill-rule="evenodd" clip-rule="evenodd" d="M0.499512 5.5V13.2C0.499512 16.1271 2.8724 18.5 5.79951 18.5H14.1995C17.1266 18.5 19.4995 16.1271 19.4995 13.2V12.8633C21.6209 11.6331 22.6775 10.499 23.1152 9.48364C23.5852 8.39335 23.306 7.52869 23.0328 7.00614C22.5002 5.98728 21.481 5.76255 20.6515 5.81036C20.2332 5.83447 19.8318 5.92675 19.4995 6.0404V5.5H0.499512ZM19.4995 7.11885V11.6963C21.177 10.6469 21.9083 9.75719 22.1969 9.08777C22.5099 8.36154 22.3313 7.82275 22.1466 7.4694C21.8743 6.94858 21.3485 6.77185 20.7091 6.8087C20.3944 6.82683 20.0818 6.89784 19.8205 6.9875C19.6906 7.03206 19.583 7.07787 19.4995 7.11885ZM1.49951 13.2V6.5H18.4995V13.2C18.4995 15.5748 16.5743 17.5 14.1995 17.5H5.79951C3.42469 17.5 1.49951 15.5748 1.49951 13.2Z" fill="black"/>
</svg>
