<svg width="24" height="24" viewBox="0 0 24 24" fill="none" xmlns="http://www.w3.org/2000/svg">
<path fill-rule="evenodd" clip-rule="evenodd" d="M18.4996 5.25C19.1899 5.25 19.7496 5.80964 19.7496 6.5V6.70508C20.0231 6.63338 20.3251 6.57952 20.6373 6.56152C21.5142 6.511 22.6568 6.7474 23.2545 7.89062C23.5496 8.45548 23.8543 9.40209 23.3453 10.583C22.8815 11.6585 21.7877 12.8139 19.6851 14.043C19.279 16.708 16.9782 18.7499 14.1998 18.75H5.79938C2.73435 18.7499 0.249678 16.2652 0.249573 13.2002V6.5C0.249573 5.80964 0.809216 5.25 1.49957 5.25H18.4996ZM1.74957 13.2002C1.74968 15.4368 3.56278 17.2499 5.79938 17.25H14.1998C16.4364 17.2499 18.2495 15.4368 18.2496 13.2002V6.75H1.74957V13.2002ZM20.7232 8.05859C20.435 8.07524 20.1452 8.14115 19.9019 8.22461C19.8473 8.24334 19.7963 8.2623 19.7496 8.28125V12.2354C21.1286 11.3117 21.7276 10.5452 21.9673 9.98926C22.241 9.35451 22.0878 8.89698 21.9254 8.58594C21.7182 8.18963 21.3151 8.02448 20.7232 8.05859Z" fill="black"/>
</svg>
