<svg width="25" height="24" viewBox="0 0 25 24" fill="none" xmlns="http://www.w3.org/2000/svg">
<path d="M18.4996 6C18.7757 6 18.9996 6.22386 18.9996 6.5V13.2002C18.9995 15.851 16.8506 17.9999 14.1998 18H5.79938C3.14857 17.9999 0.999678 15.851 0.999573 13.2002V6.5C0.999573 6.22386 1.22343 6 1.49957 6H18.4996Z" fill="black"/>
<path d="M20.608 6.0625C21.5799 6.00648 22.97 6.26679 23.6978 7.65918C24.0372 8.30869 24.3918 9.41826 23.8043 10.7812C23.3211 11.9017 22.2654 13.0295 20.4224 14.1816C20.4724 13.8621 20.4995 13.5338 20.4996 13.2002V11.04C21.0947 10.5154 21.3789 10.0912 21.5084 9.79102C21.7034 9.33831 21.6002 9.04373 21.482 8.81738C21.405 8.67011 21.2492 8.52904 20.7525 8.55762C20.6686 8.56245 20.5837 8.57373 20.4996 8.58789V6.5C20.4995 6.35494 20.4821 6.21344 20.4527 6.07715C20.5042 6.07244 20.5558 6.06551 20.608 6.0625Z" fill="black"/>
</svg>
