<svg width="24" height="24" viewBox="0 0 24 24" fill="none" xmlns="http://www.w3.org/2000/svg">
<path fill-rule="evenodd" clip-rule="evenodd" d="M-0.000427246 5H19.9996V5.39058C20.1989 5.35169 20.4083 5.32355 20.6228 5.31119C21.5473 5.25791 22.8132 5.50664 23.476 6.77452C23.7934 7.38166 24.1229 8.40926 23.5744 9.68158C23.0953 10.793 22.004 11.9471 19.9996 13.1489V13.2C19.9996 16.4033 17.4028 19 14.1996 19H5.79957C2.59632 19 -0.000427246 16.4033 -0.000427246 13.2V5ZM19.9996 10.7577C21.076 9.97422 21.5454 9.33617 21.7378 8.88983C21.9724 8.34563 21.844 7.96978 21.7035 7.70102C21.5615 7.42922 21.2823 7.2765 20.7379 7.30787C20.4823 7.3226 20.2216 7.38012 19.9996 7.45474V10.7577Z" fill="black"/>
</svg>
