<svg width="24" height="24" viewBox="0 0 24 24" fill="none" xmlns="http://www.w3.org/2000/svg">
<path d="M18.4995 6C18.7757 6 18.9995 6.22386 18.9995 6.5V13.2002C18.9994 15.851 16.8505 17.9999 14.1997 18H5.79932C3.1485 17.9999 0.999617 15.851 0.999512 13.2002V6.5C0.999512 6.22386 1.22337 6 1.49951 6H18.4995Z" fill="black"/>
<path d="M20.6226 6.31152C21.547 6.25824 22.8133 6.50751 23.4761 7.77539C23.7933 8.38256 24.1227 9.41008 23.5747 10.6816C23.0886 11.809 21.9718 12.9807 19.9116 14.2012C19.9682 13.876 19.9995 13.5416 19.9995 13.2002V11.7559C21.0748 10.9731 21.5453 10.3368 21.7378 9.89062C21.9723 9.34668 21.844 8.96991 21.7036 8.70117C21.5615 8.4295 21.2821 8.27723 20.7378 8.30859C20.4822 8.32333 20.2215 8.38046 19.9995 8.45508V6.5C19.9995 6.46421 19.9961 6.42872 19.9937 6.39355C20.1947 6.35399 20.4059 6.32402 20.6226 6.31152Z" fill="black"/>
</svg>
