<svg width="24" height="24" viewBox="0 0 24 24" fill="none" xmlns="http://www.w3.org/2000/svg">
<path fill-rule="evenodd" clip-rule="evenodd" d="M18.4995 5.75C18.9137 5.75 19.2495 6.08579 19.2495 6.5V7.40918C19.3504 7.36326 19.4603 7.31826 19.5767 7.27832C19.8916 7.17028 20.2722 7.08326 20.6655 7.06055C21.4474 7.01549 22.3435 7.22805 22.811 8.12207C23.062 8.60232 23.3158 9.38586 22.8853 10.3848C22.4681 11.3521 21.4246 12.4807 19.2202 13.7334C18.9537 16.2716 16.8084 18.2499 14.1997 18.25H5.79932C3.01043 18.2499 0.749617 15.9891 0.749512 13.2002V6.5C0.749512 6.08579 1.0853 5.75 1.49951 5.75H18.4995ZM1.49951 6.25C1.36144 6.25 1.24951 6.36193 1.24951 6.5V13.2002C1.24962 15.7129 3.28658 17.7499 5.79932 17.75H14.1997C16.7124 17.7499 18.7494 15.7129 18.7495 13.2002V6.5C18.7495 6.36193 18.6376 6.25 18.4995 6.25H1.49951ZM20.6948 7.55957C20.354 7.57922 20.0189 7.65619 19.7397 7.75195C19.5282 7.82454 19.3598 7.90308 19.2495 7.96973V13.1406C21.2176 11.9789 22.0869 10.9742 22.4263 10.1875C22.7784 9.37061 22.5744 8.75017 22.3677 8.35449C22.0304 7.70921 21.3817 7.52002 20.6948 7.55957Z" fill="black"/>
</svg>
