<svg width="26" height="24" viewBox="0 0 26 24" fill="none" xmlns="http://www.w3.org/2000/svg">
<path fill-rule="evenodd" clip-rule="evenodd" d="M0.749573 4.75V13.2C0.749573 16.5413 3.45825 19.25 6.79957 19.25H14.1996C17.3434 19.25 19.9271 16.8521 20.2216 13.7855C22.7797 12.4579 24.2045 11.1696 24.8443 9.88747C25.6069 8.35915 25.1395 7.10604 24.7096 6.39539C23.828 4.93837 22.2168 4.70239 21.1099 4.7575C20.8133 4.77227 20.5235 4.80805 20.2496 4.85755V4.75H0.749573ZM20.2496 7.42077V10.9032C21.7463 9.98457 22.3685 9.2499 22.6073 8.77124C22.8569 8.27111 22.7324 7.95704 22.5706 7.68958C22.4119 7.4273 22.026 7.21499 21.2342 7.25441C20.8902 7.27153 20.544 7.33684 20.2496 7.42077ZM3.24957 13.2V7.25H17.7496V13.2C17.7496 15.1606 16.1602 16.75 14.1996 16.75H6.79957C4.83896 16.75 3.24957 15.1606 3.24957 13.2Z" fill="black"/>
</svg>
