<svg width="24" height="24" viewBox="0 0 24 24" fill="none" xmlns="http://www.w3.org/2000/svg">
<path d="M18.4995 6C18.7757 6 18.9995 6.22386 18.9995 6.5V13.2002C18.9994 15.851 16.8505 17.9999 14.1997 18H5.79932C3.1485 17.9999 0.999617 15.851 0.999512 13.2002V6.5C0.999512 6.22386 1.22337 6 1.49951 6H18.4995Z" fill="black"/>
<path d="M20.6372 6.56152C21.5141 6.511 22.6567 6.7474 23.2544 7.89062C23.5496 8.45548 23.8542 9.40209 23.3452 10.583C22.9019 11.611 21.8825 12.7113 19.9575 13.8799C19.9835 13.657 19.9995 13.4301 19.9995 13.2002V12.0635C21.2019 11.2163 21.7425 10.5103 21.9673 9.98926C22.2409 9.35451 22.0878 8.89698 21.9253 8.58594C21.7181 8.18963 21.3151 8.02448 20.7231 8.05859C20.4725 8.07307 20.221 8.12617 19.9995 8.19434V6.64551C20.2028 6.60374 20.4176 6.57418 20.6372 6.56152Z" fill="black"/>
</svg>
