<svg width="24" height="24" viewBox="0 0 24 24" fill="none" xmlns="http://www.w3.org/2000/svg">
<path fill-rule="evenodd" clip-rule="evenodd" d="M-0.000488281 5V13.2C-0.000488281 16.4033 2.59626 19 5.79951 19H14.1995C17.4028 19 19.9995 16.4033 19.9995 13.2V13.1489C22.0039 11.9471 23.0952 10.793 23.5743 9.68158C24.1228 8.40926 23.7933 7.38166 23.4759 6.77452C22.8132 5.50664 21.5472 5.25791 20.6228 5.31119C20.4082 5.32355 20.1988 5.35169 19.9995 5.39058V5H-0.000488281ZM19.9995 7.45474V10.7577C21.0759 9.97422 21.5453 9.33617 21.7377 8.88983C21.9723 8.34563 21.844 7.96978 21.7035 7.70102C21.5614 7.42922 21.2823 7.2765 20.7378 7.30787C20.4823 7.3226 20.2215 7.38012 19.9995 7.45474ZM1.99951 13.2V7H17.9995V13.2C17.9995 15.2987 16.2982 17 14.1995 17H5.79951C3.70083 17 1.99951 15.2987 1.99951 13.2Z" fill="black"/>
</svg>
