<svg width="24" height="24" viewBox="0 0 24 24" fill="none" xmlns="http://www.w3.org/2000/svg">
<path fill-rule="evenodd" clip-rule="evenodd" d="M0.749512 5.75H19.2495V6.40758C19.3504 6.36174 19.4608 6.31799 19.5771 6.27809C19.8921 6.17001 20.2724 6.08262 20.6659 6.05994C21.4479 6.01488 22.3438 6.22761 22.8113 7.12196C23.0623 7.60221 23.3164 8.3854 22.8856 9.38467C22.4704 10.3479 21.4348 11.4722 19.2495 12.7186V13.2C19.2495 15.989 16.9886 18.25 14.1995 18.25H5.79951C3.01047 18.25 0.749512 15.989 0.749512 13.2V5.75ZM19.2495 12.1406C21.2182 10.9785 22.0873 9.97352 22.4265 9.18673C22.7788 8.36949 22.575 7.74924 22.3682 7.35358C22.0308 6.70825 21.3816 6.51953 20.6947 6.55912C20.3537 6.57876 20.0186 6.65523 19.7394 6.75103C19.5276 6.82368 19.3597 6.90338 19.2495 6.97025V12.1406Z" fill="black"/>
</svg>
