<svg width="26" height="24" viewBox="0 0 26 24" fill="none" xmlns="http://www.w3.org/2000/svg">
<path fill-rule="evenodd" clip-rule="evenodd" d="M18.4996 4.75C19.2478 4.75 19.8841 5.22038 20.1343 5.88086C20.4418 5.82024 20.7713 5.77467 21.1099 5.75781C22.2168 5.7027 23.8279 5.93848 24.7095 7.39551C25.1395 8.10617 25.6069 9.35943 24.8443 10.8877C24.1868 12.2051 22.6995 13.5281 20.0064 14.8945C19.2734 17.4107 16.9525 19.2499 14.1998 19.25H6.79938C3.45821 19.2499 0.749678 16.5414 0.749573 13.2002V6.5C0.749573 5.5335 1.53307 4.75 2.49957 4.75H18.4996ZM3.24957 13.2002C3.24968 15.1607 4.83892 16.7499 6.79938 16.75H14.1998C16.1602 16.7499 17.7495 15.1607 17.7496 13.2002V7.25H3.24957V13.2002ZM21.2339 8.25488C20.8899 8.27204 20.544 8.33795 20.2496 8.42188V11.9023C21.7456 10.984 22.368 10.2501 22.607 9.77148C22.8566 9.27136 22.7327 8.9569 22.5709 8.68945C22.4122 8.42717 22.0257 8.21546 21.2339 8.25488Z" fill="black"/>
</svg>
