<svg width="24" height="24" viewBox="0 0 24 24" fill="none" xmlns="http://www.w3.org/2000/svg">
<path fill-rule="evenodd" clip-rule="evenodd" d="M0.249573 5.25H19.7496V5.70408C20.023 5.63231 20.325 5.57876 20.6372 5.56077C21.5142 5.51023 22.6568 5.74696 23.2544 6.89033C23.5497 7.45518 23.8541 8.40131 23.3448 9.58261C22.8858 10.6473 21.8107 11.7914 19.7496 13.0067V13.2C19.7496 16.2652 17.2648 18.75 14.1996 18.75H5.79957C2.73439 18.75 0.249573 16.2652 0.249573 13.2V5.25ZM19.7496 11.2368C21.1294 10.3127 21.7276 9.54485 21.9674 8.9888C22.2412 8.35358 22.0877 7.89627 21.9251 7.58521C21.7179 7.1889 21.3154 7.02417 20.7235 7.05829C20.4352 7.0749 20.1451 7.14045 19.9017 7.22397C19.8471 7.24269 19.7962 7.26185 19.7496 7.28087V11.2368Z" fill="black"/>
</svg>
