<svg width="24" height="24" viewBox="0 0 24 24" fill="none" xmlns="http://www.w3.org/2000/svg">
<path fill-rule="evenodd" clip-rule="evenodd" d="M0.249512 5.25V13.2C0.249512 16.2652 2.73433 18.75 5.79951 18.75H14.1995C17.2647 18.75 19.7495 16.2652 19.7495 13.2V13.0067C21.8106 11.7914 22.8858 10.6473 23.3448 9.58261C23.854 8.40131 23.5496 7.45518 23.2544 6.89033C22.6567 5.74696 21.5141 5.51023 20.6371 5.56077C20.325 5.57876 20.0229 5.63231 19.7495 5.70408V5.25H0.249512ZM19.7495 7.28087V11.2368C21.1293 10.3127 21.7276 9.54485 21.9673 8.9888C22.2411 8.35358 22.0876 7.89627 21.925 7.58521C21.7179 7.1889 21.3154 7.02417 20.7234 7.05829C20.4351 7.0749 20.1451 7.14045 19.9016 7.22397C19.847 7.24269 19.7962 7.26185 19.7495 7.28087ZM1.74951 13.2V6.75H18.2495V13.2C18.2495 15.4368 16.4363 17.25 14.1995 17.25H5.79951C3.56276 17.25 1.74951 15.4368 1.74951 13.2Z" fill="black"/>
</svg>
