<svg width="24" height="24" viewBox="0 0 24 24" fill="none" xmlns="http://www.w3.org/2000/svg">
<path fill-rule="evenodd" clip-rule="evenodd" d="M0.749512 5.75V13.2C0.749512 15.989 3.01047 18.25 5.79951 18.25H14.1995C16.9886 18.25 19.2495 15.989 19.2495 13.2V12.7186C21.4348 11.4722 22.4704 10.3479 22.8856 9.38467C23.3164 8.3854 23.0623 7.60221 22.8113 7.12196C22.3438 6.22761 21.4479 6.01488 20.6659 6.05994C20.2724 6.08262 19.8921 6.17001 19.5771 6.27809C19.4608 6.31799 19.3504 6.36174 19.2495 6.40758V5.75H0.749512ZM19.2495 6.97025V12.1406C21.2182 10.9785 22.0873 9.97352 22.4265 9.18673C22.7788 8.36949 22.575 7.74924 22.3682 7.35358C22.0308 6.70825 21.3816 6.51953 20.6947 6.55912C20.3537 6.57876 20.0186 6.65523 19.7394 6.75103C19.5276 6.82368 19.3597 6.90338 19.2495 6.97025ZM1.24951 13.2V6.25H18.7495V13.2C18.7495 15.7129 16.7124 17.75 14.1995 17.75H5.79951C3.28662 17.75 1.24951 15.7129 1.24951 13.2Z" fill="black"/>
</svg>
