<svg width="24" height="24" viewBox="0 0 24 24" fill="none" xmlns="http://www.w3.org/2000/svg">
<path d="M18.4996 6C18.7757 6 18.9996 6.22386 18.9996 6.5V13.2002C18.9995 15.851 16.8506 17.9999 14.1998 18H5.79938C3.14857 17.9999 0.999678 15.851 0.999573 13.2002V6.5C0.999573 6.22386 1.22343 6 1.49957 6H18.4996Z" fill="black"/>
<path d="M20.6226 6.31152C21.5471 6.25824 22.8134 6.50751 23.4761 7.77539C23.7933 8.38256 24.1227 9.41008 23.5748 10.6816C23.1111 11.7568 22.073 12.8706 20.191 14.0303C20.2282 13.7589 20.2496 13.4818 20.2496 13.2002V11.5684C21.1493 10.871 21.5609 10.3006 21.7379 9.89062C21.9723 9.34668 21.8441 8.96991 21.7037 8.70117C21.5616 8.4295 21.2821 8.27723 20.7379 8.30859C20.5733 8.31808 20.4067 8.34572 20.2496 8.38379V6.5C20.2496 6.44934 20.246 6.39918 20.2418 6.34961C20.3661 6.33179 20.4935 6.31897 20.6226 6.31152Z" fill="black"/>
</svg>
