<svg width="26" height="24" viewBox="0 0 26 24" fill="none" xmlns="http://www.w3.org/2000/svg">
<path fill-rule="evenodd" clip-rule="evenodd" d="M0.749512 4.75H20.2495V4.85755C20.5235 4.80805 20.8132 4.77227 21.1098 4.7575C22.2168 4.70239 23.8279 4.93837 24.7095 6.39539C25.1395 7.10604 25.6069 8.35915 24.8442 9.88747C24.2045 11.1696 22.7796 12.4579 20.2215 13.7855C19.927 16.8521 17.3433 19.25 14.1995 19.25H6.79951C3.45819 19.25 0.749512 16.5413 0.749512 13.2V4.75ZM20.2495 10.9032C21.7462 9.98457 22.3684 9.2499 22.6073 8.77124C22.8568 8.27111 22.7324 7.95704 22.5706 7.68958C22.4119 7.4273 22.0259 7.21499 21.2342 7.25441C20.8902 7.27153 20.5439 7.33684 20.2495 7.42077V10.9032Z" fill="black"/>
</svg>
