<svg width="24" height="24" viewBox="0 0 24 24" fill="none" xmlns="http://www.w3.org/2000/svg">
<path fill-rule="evenodd" clip-rule="evenodd" d="M0.749573 5.75H19.2496V6.40758C19.3505 6.36174 19.4609 6.31799 19.5772 6.27809C19.8922 6.17001 20.2724 6.08262 20.666 6.05994C21.4479 6.01488 22.3438 6.22761 22.8113 7.12196C23.0624 7.60221 23.3164 8.3854 22.8857 9.38467C22.4704 10.3479 21.4349 11.4722 19.2496 12.7186V13.2C19.2496 15.989 16.9886 18.25 14.1996 18.25H5.79957C3.01053 18.25 0.749573 15.989 0.749573 13.2V5.75ZM19.2496 12.1406C21.2183 10.9785 22.0873 9.97352 22.4265 9.18673C22.7788 8.36949 22.575 7.74924 22.3682 7.35358C22.0309 6.70825 21.3817 6.51953 20.6947 6.55912C20.3538 6.57876 20.0187 6.65523 19.7394 6.75103C19.5276 6.82368 19.3597 6.90338 19.2496 6.97025V12.1406Z" fill="black"/>
</svg>
