<svg width="24" height="24" viewBox="0 0 24 24" fill="none" xmlns="http://www.w3.org/2000/svg">
<path d="M14.3664 2.55826C13.7554 1.93755 12.921 1.58801 12.0501 1.58801L8.48164 1.58802C8.4144 1.10562 8.0668 0.68666 7.56674 0.552669C6.8999 0.373991 6.21448 0.769719 6.0358 1.43655L0.857234 20.7632C0.678556 21.4301 1.07429 22.1155 1.74112 22.2942C2.40795 22.4728 3.09337 22.0771 3.27205 21.4103L5.0319 14.8424C5.14167 14.8588 5.25437 14.8673 5.36952 14.8673L9.1001 14.8673C9.31461 14.8673 9.51885 14.9591 9.66119 15.1196L11.7659 17.4926C12.193 17.974 12.8057 18.2496 13.4492 18.2496H18.2357C19.2503 18.2496 20.1395 17.5705 20.4064 16.5916L22.861 7.59161C23.2513 6.1603 22.1739 4.7496 20.6903 4.74959L16.5231 4.74957L14.3664 2.55826Z" fill="black"/>
</svg>
