<svg width="24" height="24" viewBox="0 0 24 24" fill="none" xmlns="http://www.w3.org/2000/svg">
<path d="M13.8318 3.08514C13.3618 2.60768 12.7199 2.3388 12.05 2.3388L7.72185 2.33881C7.6825 2.33881 7.64343 2.34034 7.60471 2.34336L7.72611 1.89028C7.79758 1.62354 7.63929 1.34937 7.37256 1.2779C7.10582 1.20643 6.83166 1.36472 6.76018 1.63146L1.58161 20.9581C1.51014 21.2249 1.66844 21.499 1.93517 21.5705C2.2019 21.642 2.47607 21.4837 2.54754 21.217L4.5201 13.8553C4.75918 14.0201 5.05026 14.1181 5.36946 14.1181L9.10003 14.1181C9.52905 14.1181 9.93753 14.3018 10.2222 14.6227L12.327 16.9957C12.6117 17.3167 13.0201 17.5004 13.4492 17.5004H18.2356C18.9121 17.5004 19.5048 17.0476 19.6828 16.395L22.1373 7.39506C22.3976 6.44086 21.6793 5.50039 20.6902 5.50038L16.4183 5.50036C16.2843 5.50036 16.156 5.44659 16.062 5.35109L13.8318 3.08514Z" fill="black"/>
</svg>
