<svg width="24" height="24" viewBox="0 0 24 24" fill="none" xmlns="http://www.w3.org/2000/svg">
<path fill-rule="evenodd" clip-rule="evenodd" d="M12.4689 1.83795C13.0048 1.83795 13.5183 2.05305 13.8943 2.43502L16.4183 4.99951L20.6902 4.99953C22.0089 4.99954 22.9667 6.25349 22.6197 7.52577L20.1652 16.5257C19.9279 17.3959 19.1375 17.9995 18.2356 17.9995H13.4492C12.8771 17.9995 12.3325 17.7546 11.9529 17.3266L9.54974 14.6172L5.36946 14.6172C5.18922 14.6172 5.01571 14.5938 4.85133 14.5501L3.03051 21.3455C2.88756 21.879 2.33923 22.1956 1.80576 22.0526C1.27229 21.9097 0.955711 21.3613 1.09865 20.8279L6.27722 1.50119C6.42017 0.967729 6.9685 0.651146 7.50197 0.794088C7.97513 0.920871 8.27767 1.36658 8.24028 1.83796L12.4689 1.83795ZM12.4689 3.83795L7.72186 3.83796L5.36946 12.6172L9.54974 12.6172C10.1218 12.6172 10.6664 12.8622 11.046 13.2901L13.4492 15.9995L18.2356 15.9995L20.6902 6.99953L16.4183 6.99951C15.8824 6.99951 15.3689 6.78441 14.9929 6.40244L12.4689 3.83795Z" fill="black"/>
</svg>
