<svg width="24" height="24" viewBox="0 0 24 24" fill="none" xmlns="http://www.w3.org/2000/svg">
<path d="M13.6536 3.26045C13.2307 2.83073 12.653 2.58874 12.0501 2.58874L7.72191 2.58875C7.55852 2.58875 7.401 2.62044 7.25608 2.67869L7.48469 1.82551C7.52042 1.69214 7.44128 1.55506 7.30791 1.51932C7.17455 1.48359 7.03746 1.56273 7.00173 1.6961L1.82316 21.0228C1.78742 21.1561 1.86657 21.2932 1.99993 21.329C2.1333 21.3647 2.27038 21.2856 2.30612 21.1522L4.38609 13.3896C4.61214 13.6778 4.96354 13.868 5.36952 13.868L9.10009 13.868C9.60061 13.868 10.0772 14.0823 10.4093 14.4568L12.5141 16.8298C12.7513 17.0972 13.0917 17.2503 13.4492 17.2503H18.2357C18.7994 17.2503 19.2933 16.873 19.4417 16.3292L21.8962 7.32922C22.1131 6.53405 21.5145 5.75033 20.6903 5.75032L16.4184 5.7503C16.2174 5.7503 16.0248 5.66964 15.8839 5.5264L13.6536 3.26045Z" fill="black"/>
</svg>
