<svg width="24" height="24" viewBox="0 0 24 24" fill="none" xmlns="http://www.w3.org/2000/svg">
<path fill-rule="evenodd" clip-rule="evenodd" d="M12.4689 2.3388C12.8708 2.3388 13.256 2.50013 13.5379 2.78661L16.062 5.3511C16.156 5.44659 16.2843 5.50036 16.4183 5.50036L20.6902 5.50038C21.6793 5.50039 22.3976 6.44086 22.1373 7.39506L19.6828 16.395C19.5048 17.0476 18.9121 17.5004 18.2356 17.5004H13.4492C13.0201 17.5004 12.6117 17.3167 12.327 16.9957L9.9238 14.2863C9.82891 14.1793 9.69275 14.1181 9.54974 14.1181L5.36946 14.1181C5.05026 14.1181 4.75918 14.0201 4.5201 13.8553L2.54754 21.217C2.47607 21.4837 2.2019 21.642 1.93517 21.5705C1.66844 21.499 1.51014 21.2249 1.58161 20.9581L6.76018 1.63146C6.83166 1.36472 7.10582 1.20643 7.37256 1.2779C7.63929 1.34937 7.79758 1.62354 7.72611 1.89028L7.60471 2.34336C7.64343 2.34034 7.6825 2.33881 7.72185 2.33881L12.4689 2.3388ZM12.8252 3.48807C12.7312 3.39258 12.6029 3.3388 12.4689 3.3388L7.72185 3.33881C7.49555 3.33881 7.29746 3.49081 7.23889 3.7094L4.88649 12.4887C4.8014 12.8062 5.04069 13.1181 5.36945 13.1181L9.54974 13.1181C9.97876 13.1181 10.3872 13.3018 10.6719 13.6227L13.0751 16.3321C13.17 16.4391 13.3061 16.5004 13.4492 16.5004H18.2356C18.4611 16.5004 18.6587 16.3495 18.718 16.1319L21.1726 7.13194C21.2593 6.81387 21.0199 6.50039 20.6902 6.50038L16.4183 6.50036C16.0164 6.50036 15.6312 6.33903 15.3493 6.05256L12.8252 3.48807Z" fill="black"/>
</svg>
