<svg width="24" height="24" viewBox="0 0 24 24" fill="none" xmlns="http://www.w3.org/2000/svg">
<path fill-rule="evenodd" clip-rule="evenodd" d="M12.4689 2.58874C12.8039 2.58874 13.1249 2.72318 13.3598 2.96191L15.8839 5.5264C16.0248 5.66964 16.2174 5.7503 16.4184 5.7503L20.6903 5.75032C21.5145 5.75033 22.1131 6.53405 21.8962 7.32922L19.4417 16.3292C19.2933 16.873 18.7994 17.2503 18.2357 17.2503L13.4492 17.2503C13.0917 17.2503 12.7513 17.0972 12.5141 16.8298L10.1109 14.1203C9.96855 13.9599 9.76431 13.868 9.5498 13.868L5.36952 13.868C4.96354 13.868 4.61214 13.6778 4.38609 13.3896L2.30612 21.1522C2.27038 21.2856 2.1333 21.3647 1.99993 21.329C1.86657 21.2932 1.78742 21.1561 1.82316 21.0228L7.00173 1.6961C7.03746 1.56273 7.17455 1.48359 7.30791 1.51932C7.44128 1.55506 7.52042 1.69214 7.48469 1.82551L7.25608 2.67869C7.401 2.62044 7.55852 2.58875 7.72191 2.58875L12.4689 2.58874ZM13.0035 3.31264C12.8625 3.1694 12.6699 3.08874 12.4689 3.08874L7.72191 3.08875C7.38246 3.08875 7.08533 3.31675 6.99747 3.64463L4.64507 12.4239C4.51743 12.9003 4.87637 13.368 5.36952 13.368L9.5498 13.368C9.90732 13.368 10.2477 13.5211 10.485 13.7886L12.8881 16.498C13.0305 16.6584 13.2347 16.7503 13.4492 16.7503H18.2357C18.5739 16.7503 18.8703 16.5239 18.9593 16.1976L21.4138 7.19766C21.5439 6.72056 21.1848 6.25033 20.6903 6.25032L16.4184 6.2503C16.0834 6.2503 15.7625 6.11586 15.5275 5.87713L13.0035 3.31264Z" fill="black"/>
</svg>
