<svg width="24" height="24" viewBox="0 0 24 24" fill="none" xmlns="http://www.w3.org/2000/svg">
<path fill-rule="evenodd" clip-rule="evenodd" d="M13.8654 1.3269C13.5453 1.24959 13.2137 1.24978 12.7926 1.25003L7.66957 1.25006C7.13541 1.25004 6.68956 1.25004 6.32533 1.27979C5.94545 1.31083 5.58879 1.37794 5.25153 1.54979C4.73408 1.81344 4.31339 2.23414 4.04973 2.75158C3.87789 3.08884 3.81078 3.4455 3.77974 3.82539C3.74998 4.18962 3.74999 4.63546 3.75 5.16961V18.8305C3.74999 19.3646 3.74998 19.8105 3.77974 20.1747C3.81078 20.5546 3.87789 20.9113 4.04973 21.2485C4.31339 21.766 4.73408 22.1867 5.25153 22.4503C5.58879 22.6222 5.94545 22.6893 6.32533 22.7203C6.68956 22.7501 7.1354 22.7501 7.66955 22.7501H16.8305C17.3646 22.7501 17.8104 22.7501 18.1747 22.7203C18.5546 22.6893 18.9112 22.6222 19.2485 22.4503C19.7659 22.1867 20.1866 21.766 20.4503 21.2485C20.6221 20.9113 20.6892 20.5546 20.7203 20.1747C20.75 19.8105 20.75 19.3646 20.75 18.8304L20.75 9.24515C20.7503 8.82908 20.7505 8.50155 20.6749 8.18486C20.6083 7.90578 20.4984 7.63884 20.3493 7.39373C20.18 7.1156 19.9493 6.8831 19.6563 6.58776L15.4739 2.3677C15.1776 2.06839 14.9443 1.83278 14.664 1.65981C14.4171 1.50739 14.1475 1.39503 13.8654 1.3269ZM12.75 2.75006C13.2532 2.75025 13.3912 2.75552 13.5133 2.78499C13.6415 2.81595 13.764 2.86703 13.8763 2.93631C13.9852 3.00354 14.088 3.10031 14.4598 3.47542L18.5402 7.59251C18.9074 7.96302 19.002 8.06533 19.0678 8.17346C19.1356 8.28487 19.1856 8.40621 19.2159 8.53307C19.2452 8.65618 19.25 8.79551 19.25 9.31715V9.43357H14.1C13.8159 9.43357 13.6178 9.43337 13.4636 9.42077C13.3123 9.40841 13.2253 9.38537 13.1595 9.35182C13.0184 9.27991 12.9037 9.16518 12.8317 9.02406C12.7982 8.95822 12.7752 8.8713 12.7628 8.72001C12.7502 8.56579 12.75 8.36772 12.75 8.08357V2.75006Z" fill="black"/>
</svg>
