<svg width="24" height="24" viewBox="0 0 24 24" fill="none" xmlns="http://www.w3.org/2000/svg">
<path fill-rule="evenodd" clip-rule="evenodd" d="M11.0003 0.25C10.31 0.25 9.75032 0.809644 9.75032 1.5V2.5L8.85343 2.5C8.55911 2.49997 8.27771 2.49993 8.04255 2.5203C7.78867 2.54229 7.48306 2.59438 7.18537 2.76514C6.77974 2.99781 6.46846 3.36526 6.30564 3.80363C6.18614 4.12535 6.185 4.43535 6.20505 4.6894C6.22362 4.92472 6.26991 5.20227 6.31833 5.49258L7.6529 13.5H16.3472L17.3472 7.5H17.9C18.1966 7.5 18.3588 7.50078 18.4754 7.5103L18.4886 7.51145L18.4897 7.52463C18.4993 7.64122 18.5 7.80347 18.5 8.1V12.5C18.5 13.0523 18.9477 13.5 19.5 13.5C20.0523 13.5 20.5 13.0523 20.5 12.5L20.5 8.0681C20.5001 7.81573 20.5001 7.56992 20.4831 7.36177C20.4644 7.13318 20.4203 6.86344 20.282 6.59202C20.0903 6.21569 19.7843 5.90973 19.408 5.71799C19.1366 5.57969 18.8669 5.53562 18.6383 5.51695C18.4301 5.49994 18.1843 5.49997 17.932 5.5L17.6805 5.5L17.6817 5.4926C17.7301 5.20231 17.7764 4.9247 17.795 4.6894C17.8151 4.43535 17.8139 4.12535 17.6944 3.80363C17.5316 3.36526 17.2203 2.99781 16.8147 2.76514C16.517 2.59438 16.2114 2.54229 15.9575 2.5203C15.7223 2.49993 15.441 2.49997 15.1466 2.5L14.2503 2.5V1.5C14.2503 0.809644 13.6907 0.25 13.0003 0.25H11.0003ZM15.5167 6.31705C15.5146 6.32856 15.5127 6.34014 15.5109 6.35178L15.029 9.24343C13.9989 9.19393 12.9996 8.86593 12.1387 8.29199C11.1196 7.61256 9.92211 7.25 8.69725 7.25H8.63882L8.29693 5.19864C8.24059 4.8606 8.20976 4.67026 8.19885 4.53205L8.19757 4.51447L8.21512 4.51284C8.35324 4.50088 8.54606 4.5 8.88876 4.5H15.1113C15.454 4.5 15.6468 4.50088 15.7849 4.51284L15.8025 4.51447L15.8012 4.53205C15.7903 4.67026 15.7595 4.8606 15.7031 5.19864L15.5167 6.31705Z" fill="black"/>
<path d="M11.0006 19.5005C11.0006 18.9482 11.4484 18.5005 12.0006 18.5005C12.5529 18.5005 13.0006 18.9482 13.0006 19.5005C13.0006 20.0527 12.5529 20.5005 12.0006 20.5005C11.4484 20.5005 11.0006 20.0527 11.0006 19.5005Z" fill="black"/>
<path fill-rule="evenodd" clip-rule="evenodd" d="M16.6636 15.5H7.33769C7.29089 15.5412 7.24595 15.5847 7.20304 15.6304C6.95523 15.8939 6.81173 16.2325 6.69747 16.5021L6.6659 16.5763L5.02154 20.4131C4.87556 20.7536 4.74041 21.0689 4.65349 21.3365C4.56295 21.6152 4.47683 21.9765 4.55236 22.3739C4.65203 22.8983 4.95721 23.3611 5.39997 23.6593C5.73547 23.8853 6.10149 23.9484 6.39334 23.975C6.67346 24.0005 7.01643 24.0005 7.38689 24.0005H16.6143C16.9847 24.0005 17.3278 24.0005 17.608 23.975C17.8998 23.9484 18.2658 23.8853 18.6013 23.6593C19.0441 23.3611 19.3493 22.8983 19.4489 22.3739C19.5245 21.9765 19.4383 21.6152 19.3478 21.3365C19.2609 21.0689 19.1257 20.7536 18.9798 20.4131L17.3354 16.5763L17.3038 16.502C17.1896 16.2325 17.0461 15.8939 16.7983 15.6304C16.7553 15.5847 16.7104 15.5412 16.6636 15.5ZM12.0006 22.5005C13.6575 22.5005 15.0006 21.1573 15.0006 19.5005C15.0006 17.8436 13.6575 16.5005 12.0006 16.5005C10.3438 16.5005 9.00065 17.8436 9.00065 19.5005C9.00065 21.1573 10.3438 22.5005 12.0006 22.5005Z" fill="black"/>
</svg>
