<svg width="24" height="24" viewBox="0 0 24 24" fill="none" xmlns="http://www.w3.org/2000/svg">
<path fill-rule="evenodd" clip-rule="evenodd" d="M15.9024 0C17.1897 7.04472e-05 18.3509 0.541482 19.1709 1.4082C19.4967 1.75238 19.9284 2 20.4024 2C21.5068 2.00014 22.4024 2.89551 22.4024 4V5C22.4024 5.76547 21.9715 6.42944 21.3399 6.76562C22.6392 6.9046 23.6512 8.00362 23.6514 9.33984C23.6514 12.4559 22.658 15.4911 20.8154 18.0039L20.3789 18.5996C19.9336 19.2068 19.2672 19.6036 18.5342 19.7158L18.7725 19.9736C20.1028 21.4156 19.0783 23.7498 17.1182 23.75H2.00391C0.473771 23.7499 -0.282022 21.9541 0.690438 20.8428C2.29117 19.0135 3.23717 16.6818 3.35255 14.2588L3.60841 8.89258L3.62989 8.6709C3.64263 8.58409 3.6613 8.49922 3.6836 8.41602C3.69093 8.42018 3.69871 8.42361 3.70606 8.42773C2.33153 7.65757 1.40235 6.18765 1.40235 4.5C1.40235 2.01472 3.41707 5.63724e-08 5.90235 0H15.9024ZM5.85059 14.3779C5.73307 16.8455 4.91665 19.2279 3.53028 21.25H16.5488L15.1631 19.75H13.1094C13.0163 19.75 12.9237 19.7446 12.832 19.7354C12.8285 19.735 12.8249 19.7348 12.8213 19.7344C12.7328 19.7251 12.6452 19.711 12.5586 19.6934C12.5515 19.6919 12.5442 19.691 12.5371 19.6895C12.1726 19.6123 11.828 19.4621 11.5234 19.249C11.5185 19.2456 11.5137 19.2418 11.5088 19.2383C11.3176 19.1026 11.1419 18.943 10.9883 18.7598L10.3291 17.9727C8.2798 15.5274 7.15482 12.4401 7.15138 9.25H6.09474L5.85059 14.3779ZM9.65235 9.25C9.6558 11.8527 10.5739 14.372 12.2461 16.3672L12.9053 17.1543L12.9473 17.1943C12.9936 17.2298 13.051 17.2499 13.1104 17.25H18.1084C18.2087 17.2499 18.3029 17.202 18.3623 17.1211L18.7988 16.5264C20.3272 14.4422 21.1514 11.9243 21.1514 9.33984C21.1512 9.29029 21.1111 9.25015 21.0615 9.25H9.65235ZM5.90235 2.5C4.79778 2.5 3.90235 3.39543 3.90235 4.5C3.90235 5.60457 4.79778 6.5 5.90235 6.5H15.9024C16.2063 6.49996 16.4924 6.43078 16.75 6.30957V2.68945C16.4925 2.56836 16.2061 2.50004 15.9024 2.5H5.90235ZM19.25 4.67285C19.4566 4.60918 19.6743 4.56054 19.9024 4.53125V4.46777C19.6742 4.43846 19.4567 4.38886 19.25 4.3252V4.67285Z" fill="black"/>
</svg>
