<svg width="24" height="24" viewBox="0 0 24 24" fill="none" xmlns="http://www.w3.org/2000/svg">
<path fill-rule="evenodd" clip-rule="evenodd" d="M16.4434 0.5C17.7308 0.500033 18.8919 1.04145 19.7119 1.9082C20.0378 2.25242 20.4694 2.5 20.9434 2.5C22.0479 2.50006 22.9434 3.39547 22.9434 4.5V5.5C22.9434 6.60453 22.0479 7.49994 20.9434 7.5C20.4694 7.5 20.0378 7.74758 19.7119 8.0918L19.5537 8.25098C19.2433 8.54815 18.8902 8.80087 18.5049 9H21.6035C22.4814 9.00026 23.1932 9.71193 23.1934 10.5898C23.1934 13.4933 22.2678 16.3217 20.5508 18.6631L20.1143 19.2578C19.7724 19.724 19.2285 19.9998 18.6504 20H17.5147L18.5772 21.1514C19.3158 21.9518 18.7488 23.2497 17.6592 23.25H1.68653C1.02274 23.2493 0.710703 22.429 1.20606 21.9873C3.43897 20.0026 4.77774 17.2009 4.91992 14.2168L5.14746 9.44043C5.14952 9.39751 5.15391 9.35511 5.16016 9.31348C3.30013 8.76102 1.94336 7.03938 1.94336 5C1.94336 2.51472 3.95808 0.5 6.44336 0.5H16.4434ZM5.64746 9.46387L5.41992 14.2402C5.27139 17.3587 3.87155 20.2862 1.53809 22.3604C1.38587 22.4965 1.48225 22.7494 1.68653 22.75H17.6592L17.7783 22.7412C18.352 22.6534 18.6252 21.9416 18.21 21.4912L16.834 20H13.6514C13.3249 19.9999 13.0084 19.9097 12.7354 19.7441C12.5713 19.6448 12.4229 19.5184 12.2969 19.3682L11.6367 18.5811C9.97278 16.5957 8.96657 14.1529 8.74121 11.5898C8.70902 11.2238 8.69336 10.8553 8.69336 10.4854C8.69336 10.385 8.70354 10.2871 8.72266 10.1924C8.72881 10.1616 8.7371 10.1316 8.74512 10.1016C8.748 10.0909 8.74982 10.0799 8.75293 10.0693C8.78854 9.94713 8.83936 9.83159 8.90332 9.72461C8.90867 9.71571 8.9144 9.70702 8.91992 9.69824C8.96428 9.62748 9.01604 9.56212 9.07129 9.5H6.44336C6.17307 9.5 5.90854 9.47439 5.65137 9.42871C5.65025 9.44037 5.64804 9.45205 5.64746 9.46387ZM10.1787 9.5C9.87282 9.50015 9.59873 9.63951 9.41797 9.8584C9.37786 9.907 9.34282 9.95986 9.3125 10.0156C9.29731 10.0435 9.283 10.0721 9.27051 10.1016C9.24549 10.1607 9.22603 10.2228 9.21289 10.2871C9.1998 10.3511 9.19336 10.4175 9.19336 10.4854C9.19336 10.8363 9.2081 11.1859 9.23828 11.5332C9.40697 13.4756 10.0435 15.346 11.0879 16.9863C11.3693 17.4282 11.68 17.8535 12.0195 18.2588L12.6797 19.0459L12.7754 19.1484C13.01 19.3725 13.3236 19.4999 13.6514 19.5H18.6504C19.0691 19.4998 19.4632 19.3005 19.7109 18.9629L20.1475 18.3672C21.8015 16.1116 22.6934 13.3869 22.6934 10.5898C22.6932 9.98807 22.2053 9.50026 21.6035 9.5H10.1787ZM6.44336 1C4.23422 1 2.44336 2.79086 2.44336 5C2.44336 7.20914 4.23422 9 6.44336 9H16.4434C17.5876 8.99997 18.619 8.52014 19.3486 7.74902C19.4519 7.63983 19.5677 7.53647 19.6934 7.44238V2.55664C19.5679 2.46265 19.4518 2.36003 19.3486 2.25098C18.619 1.47986 17.5876 1.00003 16.4434 1H6.44336ZM20.1934 7.15527C20.4238 7.05921 20.6749 7 20.9434 7C21.7717 6.99994 22.4434 6.32839 22.4434 5.5V4.5C22.4434 3.67161 21.7717 3.00006 20.9434 3C20.6748 3 20.4239 2.9399 20.1934 2.84375V7.15527Z" fill="black"/>
</svg>
