<svg width="24" height="24" viewBox="0 0 24 24" fill="none" xmlns="http://www.w3.org/2000/svg">
<path d="M21.603 8C22.757 8.00025 23.6927 8.93578 23.6928 10.0898C23.6928 13.0997 22.7334 16.0318 20.9535 18.459L20.517 19.0537C20.0809 19.6483 19.3872 19.9998 18.6498 20H17.1743L18.394 21.3213C18.985 21.9618 18.531 22.9997 17.6596 23H1.68695C1.25259 22.9996 1.04833 22.4628 1.37249 22.1738C3.65579 20.1444 5.02501 17.2799 5.17034 14.2285L5.38323 9.75781C5.72469 9.83357 6.07952 9.875 6.44378 9.875H9.70648C9.69819 9.91053 9.69281 9.9473 9.69281 9.98535C9.69282 12.7108 10.6521 15.3496 12.4028 17.4385L13.0629 18.2256C13.2087 18.3993 13.424 18.4999 13.6508 18.5H18.6498C18.9093 18.4998 19.1535 18.3762 19.3071 18.167L19.7436 17.5713C21.3347 15.4014 22.1928 12.7806 22.1928 10.0898C22.1927 9.76421 21.9286 9.50025 21.603 9.5H18.3159C18.9512 9.23516 19.5194 8.84156 19.9848 8.34961C20.1255 8.20103 20.2813 8.08178 20.4448 8H21.603Z" fill="black"/>
<path d="M16.4438 0.875C17.6237 0.875061 18.6877 1.37005 19.4399 2.16504C19.4975 2.2259 19.5599 2.28355 19.6244 2.33984V7.65918C19.5597 7.7156 19.4976 7.77394 19.4399 7.83496C18.6877 8.62995 17.6237 9.12494 16.4438 9.125H6.44378C4.16561 9.125 2.31878 7.27817 2.31878 5C2.31878 2.72183 4.16561 0.875 6.44378 0.875H16.4438Z" fill="black"/>
<path d="M20.3744 2.77734C20.5538 2.83731 20.7437 2.875 20.9438 2.875C21.8411 2.87512 22.5688 3.60261 22.5688 4.5V5.5C22.5688 6.39739 21.8411 7.12488 20.9438 7.125C20.7439 7.125 20.5537 7.16177 20.3744 7.22168V2.77734Z" fill="black"/>
</svg>
