<svg width="24" height="24" viewBox="0 0 24 24" fill="none" xmlns="http://www.w3.org/2000/svg">
<path fill-rule="evenodd" clip-rule="evenodd" d="M11.0003 0.25C10.31 0.25 9.75032 0.809644 9.75032 1.5V2.25L8.84806 2.25C8.55867 2.24995 8.26729 2.2499 8.02098 2.27123C7.75146 2.29458 7.40421 2.35141 7.06098 2.54828C6.60464 2.81004 6.25445 3.22342 6.07128 3.71658C5.93351 4.08751 5.93454 4.43938 5.95582 4.70907C5.97528 4.95554 6.02322 5.24295 6.07085 5.52839L7.39945 13.5H16.6006L17.5589 7.75H17.9C18.0415 7.75 18.1526 7.75003 18.2485 7.75151C18.25 7.8474 18.25 7.95848 18.25 8.1V12.5C18.25 13.1904 18.8097 13.75 19.5 13.75C20.1904 13.75 20.75 13.1904 20.75 12.5L20.75 8.06342C20.7501 7.81545 20.7501 7.56004 20.7323 7.34141C20.7123 7.09736 20.664 6.79106 20.5048 6.47852C20.2891 6.05516 19.9449 5.71095 19.5215 5.49524C19.209 5.33599 18.9027 5.28772 18.6586 5.26778C18.4512 5.25083 18.2108 5.25 17.9749 5.24999C18.0051 5.05985 18.0311 4.87516 18.0442 4.70907C18.0655 4.43938 18.0665 4.08751 17.9288 3.71658C17.7456 3.22342 17.3954 2.81004 16.9391 2.54828C16.5958 2.35141 16.2486 2.29458 15.9791 2.27123C15.7328 2.2499 15.4414 2.24995 15.152 2.25L14.2503 2.25V1.5C14.2503 0.809644 13.6907 0.25 13.0003 0.25H11.0003ZM15.2709 6.27133C15.2682 6.28571 15.2658 6.30017 15.2637 6.31471L14.7785 9.22585C13.8374 9.13899 12.9296 8.81927 12.1387 8.29199C11.1739 7.64876 10.0492 7.28954 8.89278 7.25308L8.54353 5.15754C8.51632 4.99432 8.49483 4.86517 8.47809 4.75338L8.47788 4.75193L8.47935 4.7519C8.59237 4.75003 8.7233 4.75 8.88876 4.75H15.1113C15.2768 4.75 15.4077 4.75003 15.5207 4.7519L15.5222 4.75193L15.522 4.75338C15.5052 4.86517 15.4837 4.99432 15.4565 5.15754L15.2709 6.27133Z" fill="black"/>
<path d="M11.0006 19.5005C11.0006 18.9482 11.4484 18.5005 12.0006 18.5005C12.5529 18.5005 13.0006 18.9482 13.0006 19.5005C13.0006 20.0527 12.5529 20.5005 12.0006 20.5005C11.4484 20.5005 11.0006 20.0527 11.0006 19.5005Z" fill="black"/>
<path fill-rule="evenodd" clip-rule="evenodd" d="M16.6636 15.5H7.33769C7.29089 15.5412 7.24595 15.5847 7.20304 15.6304C6.95523 15.8939 6.81173 16.2325 6.69747 16.5021L6.6659 16.5763L5.02154 20.4131C4.87556 20.7536 4.74041 21.0689 4.65349 21.3365C4.56295 21.6152 4.47683 21.9765 4.55236 22.3739C4.65203 22.8983 4.95721 23.3611 5.39997 23.6593C5.73547 23.8853 6.10149 23.9484 6.39334 23.975C6.67346 24.0005 7.01643 24.0005 7.38689 24.0005H16.6143C16.9847 24.0005 17.3278 24.0005 17.608 23.975C17.8998 23.9484 18.2658 23.8853 18.6013 23.6593C19.0441 23.3611 19.3493 22.8983 19.4489 22.3739C19.5245 21.9765 19.4383 21.6152 19.3478 21.3365C19.2609 21.0689 19.1257 20.7536 18.9798 20.4131L17.3354 16.5763L17.3038 16.502C17.1896 16.2325 17.0461 15.8939 16.7983 15.6304C16.7553 15.5847 16.7104 15.5412 16.6636 15.5ZM13.2005 16.75H10.8008C9.74119 17.2129 9.00065 18.2702 9.00065 19.5005C9.00065 21.1573 10.3438 22.5005 12.0006 22.5005C13.6575 22.5005 15.0006 21.1573 15.0006 19.5005C15.0006 18.2702 14.2601 17.2129 13.2005 16.75Z" fill="black"/>
</svg>
