<svg width="24" height="24" viewBox="0 0 24 24" fill="none" xmlns="http://www.w3.org/2000/svg">
<path d="M22.4385 7.40625C23.3175 7.74298 23.9423 8.59246 23.9424 9.58984C23.9424 12.6529 22.9657 15.6364 21.1543 18.1064L20.7178 18.7012C20.2346 19.36 19.4665 19.7499 18.6494 19.75H17.1748L18.3946 21.0713C18.9855 21.7117 18.5315 22.7495 17.6602 22.75H1.68752C1.25304 22.7497 1.04877 22.2128 1.37307 21.9238C3.65632 19.8944 5.02559 17.0299 5.17092 13.9785L5.37112 9.76172C5.7169 9.83532 6.07565 9.875 6.44338 9.875H9.95119C10.038 12.4025 10.9647 14.8333 12.5938 16.7773L13.2539 17.5645C13.3522 17.6817 13.4975 17.7498 13.6504 17.75H18.6494C18.8294 17.7499 18.999 17.6636 19.1055 17.5186L19.542 16.9238C21.1018 14.7968 21.9424 12.2274 21.9424 9.58984C21.9423 9.40222 21.7902 9.25015 21.6026 9.25H18.8936C19.368 8.991 19.7979 8.66061 20.166 8.27148C20.276 8.15534 20.3922 8.06533 20.5088 8H20.625V7.94336C20.7332 7.89863 20.8405 7.875 20.9434 7.875C21.4993 7.87494 22.0141 7.70111 22.4385 7.40625Z" fill="black"/>
<path d="M16.4434 0.875C17.5518 0.875075 18.5509 1.33972 19.2578 2.08691C19.2949 2.12611 19.3349 2.1633 19.375 2.20117V7.29785C19.3347 7.33587 19.2951 7.37373 19.2578 7.41309C18.5509 8.16028 17.5518 8.62492 16.4434 8.625H6.44338C4.30328 8.625 2.56838 6.8901 2.56838 4.75C2.56838 2.6099 4.30328 0.875 6.44338 0.875H16.4434Z" fill="black"/>
<path d="M20.625 2.84863C20.7282 2.86515 20.8345 2.875 20.9434 2.875C21.7027 2.87515 22.3184 3.4907 22.3184 4.25V5.25C22.3184 6.0093 21.7027 6.62485 20.9434 6.625C20.8345 6.625 20.7282 6.63485 20.625 6.65137V2.84863Z" fill="black"/>
</svg>
