<svg width="24" height="24" viewBox="0 0 24 24" fill="none" xmlns="http://www.w3.org/2000/svg">
<path fill-rule="evenodd" clip-rule="evenodd" d="M11.9998 16C10.6191 16 9.49977 17.1193 9.49977 18.5C9.49977 19.8807 10.6191 21 11.9998 21C13.3805 21 14.4998 19.8807 14.4998 18.5C14.4998 17.1193 13.3805 16 11.9998 16ZM11.4998 18.5C11.4998 18.2239 11.7236 18 11.9998 18C12.2759 18 12.4998 18.2239 12.4998 18.5C12.4998 18.7761 12.2759 19 11.9998 19C11.7236 19 11.4998 18.7761 11.4998 18.5Z" fill="black"/>
<path fill-rule="evenodd" clip-rule="evenodd" d="M16.9834 8.68299L16.1749 13.5342C16.854 13.6614 17.4302 14.1344 17.6789 14.7978L19.9289 20.7978C20.4192 22.1053 19.4527 23.5 18.0562 23.5H5.94224C4.54583 23.5 3.57927 22.1053 4.06958 20.7978L6.31958 14.7978C6.56853 14.1339 7.1455 13.6606 7.8253 13.5338L6.2078 3.8288C6.00462 2.60974 6.9447 1.5 8.18058 1.5H9.26724C9.61305 0.902199 10.2594 0.5 10.9997 0.5H12.9997C13.74 0.5 14.3863 0.902199 14.7321 1.5H15.8197C17.0555 1.5 17.9956 2.60974 17.7925 3.8288L17.6806 4.5H18.5001C19.6047 4.5 20.5001 5.39543 20.5001 6.5V11.5C20.5001 12.0523 20.0524 12.5 19.5001 12.5C18.9478 12.5 18.5001 12.0523 18.5001 11.5V6.5H17.3473L16.9892 8.64818C16.9875 8.65985 16.9856 8.67145 16.9834 8.68299ZM8.18058 3.5H15.8197L15.5168 5.317C15.5147 5.32854 15.5128 5.34016 15.511 5.35184L15.1534 7.49774C14.2276 7.4698 13.3271 7.18281 12.5548 6.66795C11.4125 5.90639 10.0703 5.5 8.69735 5.5H8.51392L8.18058 3.5ZM8.84763 7.50228L9.84725 13.5L14.153 13.5L14.8224 9.48339C13.6186 9.40002 12.4541 9.00449 11.4454 8.33205C10.6733 7.81733 9.77312 7.53036 8.84763 7.50228ZM8.19224 15.5L5.94224 21.5H18.0562L15.8062 15.5H8.19224Z" fill="black"/>
</svg>
