<svg width="24" height="24" viewBox="0 0 24 24" fill="none" xmlns="http://www.w3.org/2000/svg">
<path fill-rule="evenodd" clip-rule="evenodd" d="M12 20C12.8284 20 13.5 19.3284 13.5 18.5C13.5 17.6716 12.8284 17 12 17C11.1715 17 10.5 17.6716 10.5 18.5C10.5 19.3284 11.1715 20 12 20ZM13 18.5C13 19.0523 12.5522 19.5 12 19.5C11.4477 19.5 11 19.0523 11 18.5C11 17.9477 11.4477 17.5 12 17.5C12.5522 17.5 13 17.9477 13 18.5Z" fill="black"/>
<path fill-rule="evenodd" clip-rule="evenodd" d="M9.74996 2.5C9.74996 1.80964 10.3096 1.25 11 1.25H13C13.6903 1.25 14.25 1.80964 14.25 2.5V3.25H15.1229C15.4379 3.25 15.6906 3.25 15.8927 3.2675C16.0997 3.28543 16.2804 3.32331 16.4414 3.41571C16.695 3.56113 16.8895 3.79079 16.9913 4.06477C17.0559 4.23886 17.0636 4.42329 17.0473 4.6304C17.0313 4.83261 16.9898 5.08171 16.938 5.39228L16.7951 6.25H16.9107C17.1816 6.25 17.4001 6.25 17.5771 6.26445C17.7593 6.27934 17.9194 6.31079 18.0674 6.38624C18.3026 6.50608 18.4939 6.69731 18.6137 6.93251C18.6892 7.08058 18.7206 7.24063 18.7355 7.42284C18.75 7.59982 18.75 7.81836 18.75 8.0893V12.5C18.75 12.6381 18.638 12.75 18.5 12.75C18.3619 12.75 18.25 12.6381 18.25 12.5V8.1C18.25 7.81585 18.2498 7.61777 18.2372 7.46356C18.2248 7.31227 18.2018 7.22535 18.1682 7.15951C18.0963 7.01839 17.9816 6.90365 17.8404 6.83175C17.7746 6.7982 17.6877 6.77516 17.5364 6.76279C17.3822 6.75019 17.1841 6.75 16.9 6.75H16.7117L16.2472 9.53708C16.2468 9.53998 16.2463 9.54285 16.2458 9.54571L15.4678 14.2137C15.4296 14.4431 15.3986 14.629 15.3617 14.7793C15.3236 14.9346 15.2753 15.0695 15.1937 15.1922C15.1805 15.212 15.1668 15.2313 15.1526 15.2503C15.4057 15.252 15.5958 15.2625 15.7689 15.3257C15.9523 15.3926 16.1175 15.5015 16.2512 15.6437C16.403 15.8051 16.4947 16.0193 16.6274 16.3293L18.2789 20.183C18.4342 20.5454 18.5576 20.8332 18.6338 21.0677C18.7109 21.3052 18.7517 21.5216 18.7114 21.7334C18.6491 22.0612 18.4584 22.3504 18.1817 22.5368C18.0028 22.6572 17.7879 22.705 17.5393 22.7276C17.2937 22.75 16.9806 22.75 16.5864 22.75H7.41365C7.01944 22.75 6.70619 22.75 6.46064 22.7276C6.21203 22.705 5.99708 22.6572 5.81823 22.5368C5.54151 22.3504 5.35077 22.0612 5.28848 21.7334C5.24822 21.5216 5.28897 21.3052 5.36611 21.0677C5.44229 20.8332 5.56566 20.5454 5.72097 20.183L7.37252 16.3293C7.50525 16.0193 7.5969 15.8051 7.74872 15.6437C7.88245 15.5015 8.04761 15.3926 8.231 15.3257C8.40409 15.2625 8.59426 15.252 8.84729 15.2503C8.83308 15.2313 8.81938 15.212 8.80622 15.1922C8.72464 15.0695 8.67633 14.9346 8.63821 14.7793C8.60134 14.629 8.57035 14.4431 8.53212 14.2137L7.06195 5.39266C7.01016 5.08191 6.96862 4.83269 6.95265 4.6304C6.93631 4.42329 6.94397 4.23886 7.00863 4.06477C7.1104 3.79079 7.30495 3.56113 7.55847 3.41571C7.71956 3.32331 7.90021 3.28543 8.10719 3.2675C8.30936 3.25 8.56202 3.25 8.87705 3.25H9.74996V2.5ZM15.7882 9.25L16.4429 5.32194C16.497 4.99706 16.5347 4.76921 16.5488 4.59106C16.5627 4.41524 16.5507 4.31454 16.5226 4.23886C16.4615 4.07447 16.3448 3.93668 16.1927 3.84943C16.1226 3.80926 16.0253 3.78086 15.8496 3.76564C15.6715 3.75022 15.4406 3.75 15.1112 3.75H8.88869C8.55934 3.75 8.32837 3.75022 8.15034 3.76564C7.97463 3.78086 7.87727 3.80926 7.80725 3.84943C7.65513 3.93668 7.5384 4.07447 7.47735 4.23886C7.44924 4.31454 7.43723 4.41524 7.4511 4.59106C7.46516 4.76921 7.50291 4.99706 7.55706 5.32194L7.8784 7.25H8.69718C9.92204 7.25 11.1195 7.61256 12.1386 8.29199C13.0756 8.91666 14.1766 9.25 15.3027 9.25H15.7882ZM7.96174 7.75H8.69718C9.82332 7.75 10.9243 8.08334 11.8613 8.70801C12.8804 9.38744 14.0779 9.75 15.3027 9.75H15.7048L14.9762 14.1219C14.936 14.3631 14.9079 14.5304 14.8761 14.6601C14.845 14.7868 14.8143 14.8598 14.7773 14.9153C14.699 15.0331 14.5889 15.1264 14.4598 15.1843C14.3989 15.2116 14.3219 15.2299 14.1918 15.2398C14.0586 15.2498 13.8891 15.25 13.6446 15.25H10.3554C10.1108 15.25 9.94126 15.2498 9.80807 15.2398C9.67802 15.2299 9.60096 15.2116 9.5401 15.1843C9.411 15.1264 9.30092 15.0331 9.22256 14.9153C9.18563 14.8598 9.15488 14.7868 9.1238 14.6601C9.09197 14.5304 9.06393 14.3631 9.02373 14.1219L7.96174 7.75ZM13.75 2.5V3.25H10.25V2.5C10.25 2.08579 10.5857 1.75 11 1.75H13C13.4142 1.75 13.75 2.08579 13.75 2.5ZM9.05499 15.75C8.65403 15.75 8.51687 15.7536 8.40234 15.7954C8.29231 15.8355 8.19321 15.9009 8.11298 15.9862C8.02946 16.075 7.97209 16.1997 7.81414 16.5682L6.18557 20.3682C6.0241 20.745 5.90996 21.0119 5.84164 21.2222C5.77345 21.4321 5.76293 21.5519 5.77968 21.64C5.81706 21.8367 5.9315 22.0103 6.09754 22.1221C6.17195 22.1722 6.28618 22.2097 6.50597 22.2297C6.72617 22.2498 7.01651 22.25 7.42642 22.25H16.5735C16.9834 22.25 17.2737 22.2498 17.4939 22.2297C17.7137 22.2097 17.828 22.1722 17.9024 22.1221C18.0684 22.0103 18.1829 21.8367 18.2202 21.64C18.237 21.5519 18.2265 21.4321 18.1583 21.2222C18.09 21.0119 17.9758 20.745 17.8143 20.3682L16.1858 16.5682C16.0278 16.1997 15.9705 16.075 15.8869 15.9862C15.8067 15.9009 15.7076 15.8355 15.5976 15.7954C15.483 15.7536 15.3459 15.75 14.9449 15.75H9.05499Z" fill="black"/>
</svg>
