<svg width="24" height="24" viewBox="0 0 24 24" fill="none" xmlns="http://www.w3.org/2000/svg">
<path fill-rule="evenodd" clip-rule="evenodd" d="M12.0003 21.5C13.381 21.5 14.5003 20.3807 14.5003 19C14.5003 17.6193 13.381 16.5 12.0003 16.5C10.6196 16.5 9.5003 17.6193 9.5003 19C9.5003 20.3807 10.6196 21.5 12.0003 21.5ZM13.0003 19C13.0003 19.5523 12.5526 20 12.0003 20C11.448 20 11.0003 19.5523 11.0003 19C11.0003 18.4477 11.448 18 12.0003 18C12.5526 18 13.0003 18.4477 13.0003 19Z" fill="black"/>
<path fill-rule="evenodd" clip-rule="evenodd" d="M9.24999 2.5C9.24999 1.5335 10.0335 0.75 11 0.75H13C13.9665 0.75 14.75 1.5335 14.75 2.5V2.75H15.8195C16.9009 2.75 17.7235 3.72102 17.5457 4.7877L17.3853 5.75H17.5C18.4665 5.75 19.25 6.5335 19.25 7.5V12.5C19.25 12.9142 18.9142 13.25 18.5 13.25C18.0858 13.25 17.75 12.9142 17.75 12.5V7.5C17.75 7.36193 17.6381 7.25 17.5 7.25H17.1353L16.7418 9.61115C16.7405 9.61989 16.7391 9.62858 16.7375 9.63722L15.8791 14.7877C15.8766 14.8026 15.8739 14.8175 15.871 14.8323C16.3473 14.9838 16.7455 15.3355 16.9491 15.8106L19.092 20.8106C19.5869 21.9654 18.7398 23.25 17.4835 23.25H6.51653C5.26018 23.25 4.41313 21.9654 4.90803 20.8106L7.05089 15.8106C7.2545 15.3355 7.65271 14.9838 8.12894 14.8323C8.12609 14.8175 8.12342 14.8026 8.12093 14.7877L6.45427 4.7877C6.27649 3.72102 7.09906 2.75 8.18045 2.75H9.24999V2.5ZM15.3646 8.75L15.7582 6.38887C15.7595 6.38012 15.7609 6.37141 15.7625 6.36275L16.0661 4.5411C16.0915 4.38872 15.974 4.25 15.8195 4.25H8.18045C8.02597 4.25 7.90846 4.38872 7.93386 4.5411L8.30201 6.75H8.69722C10.0208 6.75 11.3147 7.14178 12.416 7.87596C13.2709 8.44588 14.2753 8.75 15.3028 8.75H15.3646ZM8.55201 8.25H8.69722C9.72465 8.25 10.7291 8.55412 11.584 9.12404C12.6331 9.82348 13.8572 10.2122 15.1151 10.2474L14.3995 14.5411C14.3794 14.6616 14.2751 14.75 14.1529 14.75H9.84712C9.72491 14.75 9.62061 14.6616 9.60052 14.5411L8.55201 8.25ZM13.25 2.5V2.75H10.75V2.5C10.75 2.36193 10.8619 2.25 11 2.25H13C13.1381 2.25 13.25 2.36193 13.25 2.5ZM8.65939 16.25C8.55938 16.25 8.469 16.3096 8.4296 16.4015L6.28675 21.4015C6.21605 21.5665 6.33705 21.75 6.51653 21.75H17.4835C17.6629 21.75 17.7839 21.5665 17.7132 21.4015L15.5704 16.4015C15.531 16.3096 15.4406 16.25 15.3406 16.25H8.65939Z" fill="black"/>
</svg>
