<svg width="24" height="24" viewBox="0 0 24 24" fill="none" xmlns="http://www.w3.org/2000/svg">
<path fill-rule="evenodd" clip-rule="evenodd" d="M10.9999 0.25C10.3096 0.25 9.74995 0.809644 9.74995 1.5V2.5L8.85306 2.5C8.55874 2.49997 8.27735 2.49993 8.04219 2.5203C7.7883 2.54229 7.4827 2.59438 7.185 2.76514C6.77937 2.99781 6.46809 3.36526 6.30527 3.80363C6.18578 4.12535 6.18463 4.43535 6.20468 4.6894C6.22325 4.92472 6.26954 5.20227 6.31796 5.49258L7.65253 13.5H16.3468L17.3468 7.5H17.8997C18.1962 7.5 18.3584 7.50078 18.475 7.5103L18.4882 7.51145L18.4894 7.52463C18.4989 7.64122 18.4997 7.80347 18.4997 8.1V12.5C18.4997 13.0523 18.9474 13.5 19.4997 13.5C20.0519 13.5 20.4997 13.0523 20.4997 12.5L20.4997 8.0681C20.4997 7.81573 20.4997 7.56992 20.4827 7.36177C20.464 7.13318 20.42 6.86344 20.2817 6.59202C20.0899 6.21569 19.784 5.90973 19.4076 5.71799C19.1362 5.57969 18.8665 5.53562 18.6379 5.51695C18.4297 5.49994 18.184 5.49997 17.9316 5.5L17.6801 5.5L17.6814 5.4926C17.7298 5.20231 17.7761 4.9247 17.7946 4.6894C17.8147 4.43535 17.8135 4.12535 17.6941 3.80363C17.5312 3.36526 17.22 2.99781 16.8143 2.76514C16.5166 2.59438 16.211 2.54229 15.9571 2.5203C15.722 2.49993 15.4406 2.49997 15.1463 2.5L14.2499 2.5V1.5C14.2499 0.809644 13.6903 0.25 12.9999 0.25H10.9999ZM15.5164 6.31705C15.5142 6.32856 15.5123 6.34014 15.5106 6.35178L15.0286 9.24343C13.9985 9.19393 12.9992 8.86593 12.1383 8.29199C11.1192 7.61256 9.92174 7.25 8.69689 7.25H8.63845L8.29656 5.19864C8.24022 4.8606 8.20939 4.67026 8.19848 4.53205L8.1972 4.51447L8.21475 4.51284C8.35288 4.50088 8.54569 4.5 8.8884 4.5H15.1109C15.4536 4.5 15.6464 4.50088 15.7846 4.51284L15.8021 4.51447L15.8008 4.53205C15.7899 4.67026 15.7591 4.8606 15.7028 5.19864L15.5164 6.31705Z" fill="black"/>
<path d="M11.0003 19.5005C11.0003 18.9482 11.448 18.5005 12.0003 18.5005C12.5526 18.5005 13.0003 18.9482 13.0003 19.5005C13.0003 20.0527 12.5526 20.5005 12.0003 20.5005C11.448 20.5005 11.0003 20.0527 11.0003 19.5005Z" fill="black"/>
<path fill-rule="evenodd" clip-rule="evenodd" d="M16.6632 15.5H7.33732C7.29053 15.5412 7.24559 15.5847 7.20267 15.6304C6.95487 15.8939 6.81136 16.2325 6.69711 16.5021L6.66554 16.5763L5.02118 20.4131C4.8752 20.7536 4.74004 21.0689 4.65313 21.3365C4.56258 21.6152 4.47647 21.9765 4.55199 22.3739C4.65166 22.8983 4.95684 23.3611 5.3996 23.6593C5.7351 23.8853 6.10112 23.9484 6.39297 23.975C6.6731 24.0005 7.01607 24.0005 7.38652 24.0005H16.6139C16.9844 24.0005 17.3275 24.0005 17.6076 23.975C17.8994 23.9484 18.2655 23.8853 18.601 23.6593C19.0437 23.3611 19.3489 22.8983 19.4486 22.3739C19.5241 21.9765 19.438 21.6152 19.3474 21.3365C19.2605 21.0689 19.1254 20.7536 18.9794 20.4131L17.335 16.5763L17.3035 16.502C17.1892 16.2325 17.0457 15.8939 16.7979 15.6304C16.755 15.5847 16.71 15.5412 16.6632 15.5ZM12.0003 22.5005C13.6571 22.5005 15.0003 21.1573 15.0003 19.5005C15.0003 17.8436 13.6571 16.5005 12.0003 16.5005C10.3434 16.5005 9.00028 17.8436 9.00028 19.5005C9.00028 21.1573 10.3434 22.5005 12.0003 22.5005Z" fill="black"/>
</svg>
