<svg width="24" height="24" viewBox="0 0 24 24" fill="none" xmlns="http://www.w3.org/2000/svg">
<path fill-rule="evenodd" clip-rule="evenodd" d="M12.0001 16C10.6194 16 9.50014 17.1193 9.50014 18.5C9.50014 19.8807 10.6194 21 12.0001 21C13.3809 21 14.5001 19.8807 14.5001 18.5C14.5001 17.1193 13.3809 16 12.0001 16ZM11.5001 18.5C11.5001 18.2239 11.724 18 12.0001 18C12.2763 18 12.5001 18.2239 12.5001 18.5C12.5001 18.7761 12.2763 19 12.0001 19C11.724 19 11.5001 18.7761 11.5001 18.5Z" fill="black"/>
<path fill-rule="evenodd" clip-rule="evenodd" d="M16.9838 8.68299L16.1753 13.5342C16.8543 13.6614 17.4305 14.1344 17.6793 14.7978L19.9293 20.7978C20.4196 22.1053 19.453 23.5 18.0566 23.5H5.94261C4.54619 23.5 3.57963 22.1053 4.06995 20.7978L6.31995 14.7978C6.5689 14.1339 7.14586 13.6606 7.82567 13.5338L6.20816 3.8288C6.00499 2.60974 6.94507 1.5 8.18095 1.5H9.26761C9.61342 0.902199 10.2598 0.5 11 0.5H13C13.7403 0.5 14.3867 0.902199 14.7325 1.5H15.82C17.0559 1.5 17.996 2.60974 17.7928 3.8288L17.681 4.5H18.5005C19.6051 4.5 20.5005 5.39543 20.5005 6.5V11.5C20.5005 12.0523 20.0528 12.5 19.5005 12.5C18.9482 12.5 18.5005 12.0523 18.5005 11.5V6.5H17.3476L16.9896 8.64818C16.9879 8.65985 16.9859 8.67145 16.9838 8.68299ZM8.18095 3.5H15.82L15.5172 5.317C15.5151 5.32854 15.5131 5.34016 15.5114 5.35184L15.1537 7.49774C14.228 7.4698 13.3275 7.18281 12.5552 6.66795C11.4128 5.90639 10.0706 5.5 8.69771 5.5H8.51428L8.18095 3.5ZM8.848 7.50228L9.84762 13.5L14.1534 13.5L14.8228 9.48339C13.6189 9.40002 12.4545 9.00449 11.4458 8.33205C10.6737 7.81733 9.77349 7.53036 8.848 7.50228ZM8.19261 15.5L5.94261 21.5H18.0566L15.8066 15.5H8.19261Z" fill="black"/>
</svg>
