<svg width="24" height="24" viewBox="0 0 24 24" fill="none" xmlns="http://www.w3.org/2000/svg">
<path fill-rule="evenodd" clip-rule="evenodd" d="M11.9997 20C12.8281 20 13.4997 19.3284 13.4997 18.5C13.4997 17.6716 12.8281 17 11.9997 17C11.1713 17 10.4997 17.6716 10.4997 18.5C10.4997 19.3284 11.1713 20 11.9997 20ZM12.9997 18.5C12.9997 19.0523 12.552 19.5 11.9997 19.5C11.4474 19.5 10.9997 19.0523 10.9997 18.5C10.9997 17.9477 11.4474 17.5 11.9997 17.5C12.552 17.5 12.9997 17.9477 12.9997 18.5Z" fill="black"/>
<path fill-rule="evenodd" clip-rule="evenodd" d="M9.74971 2.5C9.74971 1.80964 10.3094 1.25 10.9997 1.25H12.9997C13.6901 1.25 14.2497 1.80964 14.2497 2.5V3.25H15.1226C15.4376 3.25 15.6903 3.25 15.8925 3.2675C16.0995 3.28543 16.2801 3.32331 16.4412 3.41571C16.6947 3.56113 16.8893 3.79079 16.991 4.06477C17.0557 4.23886 17.0634 4.42329 17.047 4.6304C17.0311 4.83261 16.9895 5.08171 16.9378 5.39228L16.7948 6.25H16.9104C17.1813 6.25 17.3999 6.25 17.5769 6.26445C17.7591 6.27934 17.9191 6.31079 18.0672 6.38624C18.3024 6.50608 18.4936 6.69731 18.6135 6.93251C18.6889 7.08058 18.7204 7.24063 18.7353 7.42284C18.7497 7.59982 18.7497 7.81836 18.7497 8.0893V12.5C18.7497 12.6381 18.6378 12.75 18.4997 12.75C18.3616 12.75 18.2497 12.6381 18.2497 12.5V8.1C18.2497 7.81585 18.2495 7.61777 18.2369 7.46356C18.2246 7.31227 18.2015 7.22535 18.168 7.15951C18.0961 7.01839 17.9813 6.90365 17.8402 6.83175C17.7744 6.7982 17.6874 6.77516 17.5362 6.76279C17.3819 6.75019 17.1839 6.75 16.8997 6.75H16.7115L16.247 9.53708C16.2465 9.53998 16.2461 9.54285 16.2455 9.54571L15.4675 14.2137C15.4293 14.4431 15.3983 14.629 15.3615 14.7793C15.3233 14.9346 15.275 15.0695 15.1935 15.1922C15.1803 15.212 15.1666 15.2313 15.1524 15.2503C15.4054 15.252 15.5956 15.2625 15.7687 15.3257C15.9521 15.3926 16.1172 15.5015 16.2509 15.6437C16.4028 15.8051 16.4944 16.0193 16.6272 16.3293L18.2787 20.183C18.434 20.5454 18.5574 20.8332 18.6336 21.0677C18.7107 21.3052 18.7515 21.5216 18.7112 21.7334C18.6489 22.0612 18.4582 22.3504 18.1814 22.5368C18.0026 22.6572 17.7876 22.705 17.539 22.7276C17.2935 22.75 16.9803 22.75 16.5861 22.75H7.4134C7.01919 22.75 6.70594 22.75 6.4604 22.7276C6.21178 22.705 5.99684 22.6572 5.81799 22.5368C5.54126 22.3504 5.35053 22.0612 5.28823 21.7334C5.24797 21.5216 5.28873 21.3052 5.36586 21.0677C5.44205 20.8332 5.56541 20.5454 5.72072 20.183L7.37227 16.3293C7.50501 16.0193 7.59666 15.8051 7.74848 15.6437C7.8822 15.5015 8.04737 15.3926 8.23075 15.3257C8.40385 15.2625 8.59401 15.252 8.84705 15.2503C8.83283 15.2313 8.81913 15.212 8.80597 15.1922C8.72439 15.0695 8.67609 14.9346 8.63796 14.7793C8.60109 14.629 8.57011 14.4431 8.53188 14.2137L7.06171 5.39266C7.00991 5.08191 6.96837 4.83269 6.95241 4.6304C6.93606 4.42329 6.94373 4.23886 7.00839 4.06477C7.11015 3.79079 7.3047 3.56113 7.55822 3.41571C7.71932 3.32331 7.89997 3.28543 8.10695 3.2675C8.30911 3.25 8.56178 3.25 8.87681 3.25H9.74971V2.5ZM15.7879 9.25L16.4426 5.32194C16.4968 4.99706 16.5345 4.76921 16.5486 4.59106C16.5624 4.41524 16.5504 4.31454 16.5223 4.23886C16.4613 4.07447 16.3445 3.93668 16.1924 3.84943C16.1224 3.80926 16.025 3.78086 15.8493 3.76564C15.6713 3.75022 15.4403 3.75 15.111 3.75H8.88845C8.55909 3.75 8.32813 3.75022 8.15009 3.76564C7.97438 3.78086 7.87703 3.80926 7.807 3.84943C7.65489 3.93668 7.53816 4.07447 7.4771 4.23886C7.44899 4.31454 7.43698 4.41524 7.45086 4.59106C7.46492 4.76921 7.50267 4.99706 7.55682 5.32194L7.87816 7.25H8.69694C9.92179 7.25 11.1192 7.61256 12.1384 8.29199C13.0754 8.91666 14.1763 9.25 15.3025 9.25H15.7879ZM7.96149 7.75H8.69694C9.82308 7.75 10.924 8.08334 11.861 8.70801C12.8802 9.38744 14.0776 9.75 15.3025 9.75H15.7046L14.9759 14.1219C14.9357 14.3631 14.9077 14.5304 14.8759 14.6601C14.8448 14.7868 14.814 14.8598 14.7771 14.9153C14.6988 15.0331 14.5887 15.1264 14.4596 15.1843C14.3987 15.2116 14.3217 15.2299 14.1916 15.2398C14.0584 15.2498 13.8888 15.25 13.6443 15.25H10.3551C10.1106 15.25 9.94102 15.2498 9.80783 15.2398C9.67777 15.2299 9.60072 15.2116 9.53986 15.1843C9.41076 15.1264 9.30067 15.0331 9.22232 14.9153C9.18538 14.8598 9.15464 14.7868 9.12356 14.6601C9.09172 14.5304 9.06368 14.3631 9.02348 14.1219L7.96149 7.75ZM13.7497 2.5V3.25H10.2497V2.5C10.2497 2.08579 10.5855 1.75 10.9997 1.75H12.9997C13.4139 1.75 13.7497 2.08579 13.7497 2.5ZM9.05475 15.75C8.65378 15.75 8.51663 15.7536 8.4021 15.7954C8.29207 15.8355 8.19296 15.9009 8.11273 15.9862C8.02922 16.075 7.97185 16.1997 7.8139 16.5682L6.18533 20.3682C6.02386 20.745 5.90971 21.0119 5.8414 21.2222C5.77321 21.4321 5.76269 21.5519 5.77944 21.64C5.81682 21.8367 5.93126 22.0103 6.09729 22.1221C6.17171 22.1722 6.28594 22.2097 6.50573 22.2297C6.72592 22.2498 7.01627 22.25 7.42617 22.25H16.5732C16.9832 22.25 17.2735 22.2498 17.4937 22.2297C17.7135 22.2097 17.8277 22.1722 17.9021 22.1221C18.0682 22.0103 18.1826 21.8367 18.22 21.64C18.2367 21.5519 18.2262 21.4321 18.158 21.2222C18.0897 21.0119 17.9756 20.745 17.8141 20.3682L16.1855 16.5682C16.0276 16.1997 15.9702 16.075 15.8867 15.9862C15.8065 15.9009 15.7074 15.8355 15.5973 15.7954C15.4828 15.7536 15.3456 15.75 14.9447 15.75H9.05475Z" fill="black"/>
</svg>
