<svg width="24" height="24" viewBox="0 0 24 24" fill="none" xmlns="http://www.w3.org/2000/svg">
<path d="M21.6034 9C22.4812 9.00038 23.1931 9.71201 23.1932 10.5898C23.1932 13.4933 22.2676 16.3217 20.5506 18.6631L20.1141 19.2578C19.7723 19.724 19.2283 19.9997 18.6503 20H17.1737L18.3934 21.3213C18.9843 21.9617 18.5304 22.9996 17.659 23H1.68639C1.25212 22.9995 1.04788 22.4628 1.37194 22.1738C3.65515 20.1444 5.02446 17.2798 5.16979 14.2285L5.38854 9.63086C5.7278 9.70778 6.0807 9.75 6.44323 9.75H9.52428C9.32149 9.93048 9.19323 10.1925 9.19323 10.4854C9.19324 13.3283 10.1942 16.0809 12.0204 18.2598L12.6796 19.0469C12.9204 19.3341 13.2765 19.4999 13.6512 19.5H18.6503C19.0689 19.4997 19.4631 19.3004 19.7108 18.9629L20.1473 18.3672C21.8013 16.1116 22.6932 13.3869 22.6932 10.5898C22.6931 9.98815 22.205 9.50038 21.6034 9.5H17.9628C18.3322 9.37516 18.6814 9.20691 19.0038 9H21.6034Z" fill="black"/>
<path d="M16.4432 0.75C17.659 0.750062 18.7553 1.26022 19.5301 2.0791C19.5981 2.15093 19.6725 2.2179 19.7499 2.28223V7.7168C19.6723 7.78123 19.5982 7.84892 19.5301 7.9209C18.7553 8.73978 17.659 9.24994 16.4432 9.25H6.44323C4.09602 9.25 2.19323 7.34721 2.19323 5C2.19323 2.65279 4.09602 0.75 6.44323 0.75H16.4432Z" fill="black"/>
<path d="M20.2499 2.5957C20.4641 2.69078 20.6964 2.75 20.9432 2.75C21.9096 2.75012 22.6932 3.53358 22.6932 4.5V5.5C22.6932 6.46642 21.9096 7.24988 20.9432 7.25C20.6965 7.25 20.464 7.30834 20.2499 7.40332V2.5957Z" fill="black"/>
</svg>
