<svg width="24" height="24" viewBox="0 0 24 24" fill="none" xmlns="http://www.w3.org/2000/svg">
<path fill-rule="evenodd" clip-rule="evenodd" d="M11.9999 20.5C13.1045 20.5 13.9999 19.6046 13.9999 18.5C13.9999 17.3954 13.1045 16.5 11.9999 16.5C10.8954 16.5 9.99994 17.3954 9.99994 18.5C9.99994 19.6046 10.8954 20.5 11.9999 20.5ZM12.9999 18.5C12.9999 19.0523 12.5522 19.5 11.9999 19.5C11.4477 19.5 10.9999 19.0523 10.9999 18.5C10.9999 17.9477 11.4477 17.5 11.9999 17.5C12.5522 17.5 12.9999 17.9477 12.9999 18.5Z" fill="black"/>
<path fill-rule="evenodd" clip-rule="evenodd" d="M9.49994 2.5C9.49994 1.67157 10.1715 1 10.9999 1H12.9999C13.8284 1 14.4999 1.67157 14.4999 2.5V3L15.1323 3C15.4392 2.99999 15.7012 2.99998 15.9143 3.01844C16.1369 3.03772 16.3592 3.08033 16.5658 3.19886C16.87 3.37336 17.1035 3.64895 17.2256 3.97772C17.3086 4.20102 17.3141 4.42731 17.2965 4.65006C17.2796 4.86329 17.2366 5.12173 17.1861 5.42446L17.0901 6.00016C17.2822 6.00075 17.4519 6.0034 17.5975 6.01528C17.7951 6.03144 17.9917 6.06709 18.1809 6.16349C18.4632 6.3073 18.6926 6.53677 18.8365 6.81901C18.9328 7.0082 18.9685 7.20481 18.9847 7.40249C19 7.58976 19 7.81713 18.9999 8.08068L18.9999 12.5C18.9999 12.7761 18.7761 13 18.4999 13C18.2238 13 17.9999 12.7761 17.9999 12.5V8.1C17.9999 7.81172 17.9996 7.62559 17.988 7.48392C17.9769 7.34809 17.958 7.29773 17.9454 7.273C17.8975 7.17892 17.821 7.10243 17.7269 7.0545C17.7022 7.0419 17.6519 7.02306 17.516 7.01196C17.3783 7.00071 17.1984 7.00003 16.9235 7L16.4945 9.57407C16.4936 9.57992 16.4927 9.58573 16.4916 9.59151L15.7131 14.2623C15.676 14.4852 15.6436 14.6793 15.6045 14.8388C15.5895 14.9 15.5725 14.9607 15.552 15.0206C15.6571 15.0338 15.7577 15.0555 15.8546 15.0908C16.0746 15.1711 16.2728 15.3018 16.4333 15.4724C16.6166 15.6674 16.7253 15.922 16.849 16.2118L18.5129 20.0944C18.6646 20.4483 18.7918 20.7451 18.8716 20.9905C18.9532 21.2417 19.009 21.5064 18.957 21.7801C18.8823 22.1734 18.6534 22.5205 18.3213 22.7441C18.0903 22.8998 17.8249 22.9527 17.5619 22.9766C17.3049 23 16.9821 23 16.597 23H7.40294C7.01788 23 6.69496 23 6.43796 22.9766C6.17494 22.9527 5.90963 22.8998 5.67857 22.7441C5.3465 22.5205 5.11761 22.1734 5.04286 21.7801C4.99084 21.5064 5.04672 21.2417 5.12832 20.9905C5.20806 20.745 5.33525 20.4483 5.48696 20.0943L7.15085 16.2118C7.27455 15.922 7.38325 15.6674 7.56658 15.4724C7.72705 15.3018 7.92525 15.1711 8.14531 15.0908C8.24216 15.0555 8.34279 15.0338 8.44792 15.0206C8.42743 14.9607 8.41041 14.9 8.3954 14.8388C8.35624 14.6793 8.32391 14.4852 8.28677 14.2623L6.81378 5.42442C6.76332 5.1217 6.72024 4.86328 6.70341 4.65006C6.68583 4.42731 6.69132 4.20102 6.77426 3.97772C6.89638 3.64895 7.12984 3.37336 7.43406 3.19886C7.64069 3.08033 7.86299 3.03772 8.08561 3.01844C8.29869 2.99998 8.56068 2.99999 8.86757 3L9.49994 3V2.5ZM15.5764 9L16.0054 6.4259C16.0063 6.42007 16.0072 6.41428 16.0083 6.40851L16.1962 5.28084C16.2511 4.95157 16.2866 4.73623 16.2996 4.57139C16.3122 4.41122 16.298 4.35238 16.2882 4.32591C16.2475 4.21632 16.1697 4.12445 16.0683 4.06629C16.0438 4.05224 15.9881 4.02857 15.828 4.01471C15.6633 4.00044 15.445 4 15.1112 4H8.88868C8.55487 4 8.33663 4.00044 8.17189 4.01471C8.01182 4.02857 7.95611 4.05224 7.93162 4.06629C7.83021 4.12445 7.75239 4.21632 7.71169 4.32591C7.70186 4.35238 7.68767 4.41122 7.70031 4.57139C7.71332 4.73623 7.74877 4.95157 7.80365 5.28084L8.09017 7H8.69717C9.97138 7 11.2171 7.37717 12.2773 8.08397C13.1732 8.68127 14.2259 9 15.3027 9H15.5764ZM8.25684 8H8.69717C9.77395 8 10.8266 8.31873 11.7226 8.91603C12.7828 9.62283 14.0285 10 15.3027 10H15.4097L14.7296 14.0808C14.6888 14.3257 14.6624 14.4821 14.6333 14.6005C14.6057 14.7128 14.5838 14.7549 14.5692 14.7769C14.5169 14.8554 14.4435 14.9176 14.3575 14.9562C14.3334 14.967 14.2883 14.9818 14.173 14.9905C14.0514 14.9997 13.8928 15 13.6445 15H10.3553C10.1071 15 9.9485 14.9997 9.82691 14.9905C9.71159 14.9818 9.66649 14.967 9.64242 14.9562C9.55635 14.9176 9.48296 14.8554 9.43072 14.7769C9.41611 14.7549 9.39414 14.7128 9.36658 14.6005C9.33752 14.4821 9.31113 14.3257 9.27031 14.0808L8.25684 8ZM13.4999 2.5V3H10.4999V2.5C10.4999 2.22386 10.7238 2 10.9999 2H12.9999C13.2761 2 13.4999 2.22386 13.4999 2.5ZM9.05498 16C8.6346 16 8.55106 16.0073 8.488 16.0303C8.41464 16.057 8.34858 16.1006 8.29509 16.1575C8.2491 16.2064 8.20951 16.2803 8.04392 16.6667L6.41534 20.4667C6.25198 20.8479 6.14336 21.1026 6.0794 21.2995C6.01568 21.4956 6.02028 21.5671 6.02527 21.5934C6.05019 21.7245 6.12649 21.8402 6.23718 21.9147C6.25938 21.9297 6.32325 21.962 6.52863 21.9807C6.73481 21.9995 7.01169 22 7.4264 22H16.5735C16.9882 22 17.2651 21.9995 17.4713 21.9807C17.6766 21.962 17.7405 21.9297 17.7627 21.9147C17.8734 21.8402 17.9497 21.7245 17.9746 21.5934C17.9796 21.5671 17.9842 21.4956 17.9205 21.2995C17.8565 21.1026 17.7479 20.8479 17.5845 20.4667L15.956 16.6667C15.7904 16.2803 15.7508 16.2064 15.7048 16.1575C15.6513 16.1006 15.5852 16.057 15.5119 16.0303C15.4488 16.0073 15.3653 16 14.9449 16H9.05498Z" fill="black"/>
</svg>
