<svg width="24" height="24" viewBox="0 0 24 24" fill="none" xmlns="http://www.w3.org/2000/svg">
<path fill-rule="evenodd" clip-rule="evenodd" d="M11.9997 20.5C13.1043 20.5 13.9997 19.6046 13.9997 18.5C13.9997 17.3954 13.1043 16.5 11.9997 16.5C10.8951 16.5 9.9997 17.3954 9.9997 18.5C9.9997 19.6046 10.8951 20.5 11.9997 20.5ZM12.9997 18.5C12.9997 19.0523 12.552 19.5 11.9997 19.5C11.4474 19.5 10.9997 19.0523 10.9997 18.5C10.9997 17.9477 11.4474 17.5 11.9997 17.5C12.552 17.5 12.9997 17.9477 12.9997 18.5Z" fill="black"/>
<path fill-rule="evenodd" clip-rule="evenodd" d="M9.4997 2.5C9.4997 1.67157 10.1713 1 10.9997 1H12.9997C13.8281 1 14.4997 1.67157 14.4997 2.5V3L15.1321 3C15.439 2.99999 15.7009 2.99998 15.914 3.01844C16.1366 3.03772 16.3589 3.08033 16.5656 3.19886C16.8698 3.37336 17.1033 3.64895 17.2254 3.97772C17.3083 4.20102 17.3138 4.42731 17.2962 4.65006C17.2794 4.86329 17.2363 5.12173 17.1859 5.42446L17.0899 6.00016C17.282 6.00075 17.4517 6.0034 17.5972 6.01528C17.7949 6.03144 17.9915 6.06709 18.1807 6.16349C18.4629 6.3073 18.6924 6.53677 18.8362 6.81901C18.9326 7.0082 18.9683 7.20481 18.9844 7.40249C18.9997 7.58976 18.9997 7.81713 18.9997 8.08068L18.9997 12.5C18.9997 12.7761 18.7758 13 18.4997 13C18.2236 13 17.9997 12.7761 17.9997 12.5V8.1C17.9997 7.81172 17.9993 7.62559 17.9877 7.48392C17.9766 7.34809 17.9578 7.29773 17.9452 7.273C17.8973 7.17892 17.8208 7.10243 17.7267 7.0545C17.702 7.0419 17.6516 7.02306 17.5158 7.01196C17.378 7.00071 17.1982 7.00003 16.9233 7L16.4942 9.57407C16.4934 9.57992 16.4924 9.58573 16.4913 9.59151L15.7129 14.2623C15.6757 14.4852 15.6434 14.6793 15.6042 14.8388C15.5892 14.9 15.5722 14.9607 15.5517 15.0206C15.6568 15.0338 15.7575 15.0555 15.8543 15.0908C16.0744 15.1711 16.2726 15.3018 16.4331 15.4724C16.6164 15.6674 16.7251 15.922 16.8488 16.2118L18.5127 20.0944C18.6644 20.4483 18.7916 20.7451 18.8713 20.9905C18.9529 21.2417 19.0088 21.5064 18.9568 21.7801C18.882 22.1734 18.6531 22.5205 18.3211 22.7441C18.09 22.8998 17.8247 22.9527 17.5617 22.9766C17.3047 23 16.9818 23 16.5968 23H7.40269C7.01763 23 6.69472 23 6.43772 22.9766C6.17469 22.9527 5.90939 22.8998 5.67832 22.7441C5.34625 22.5205 5.11737 22.1734 5.04261 21.7801C4.9906 21.5064 5.04648 21.2417 5.12808 20.9905C5.20782 20.745 5.33501 20.4483 5.48671 20.0943L7.15061 16.2118C7.27431 15.922 7.38301 15.6674 7.56634 15.4724C7.72681 15.3018 7.92501 15.1711 8.14507 15.0908C8.24192 15.0555 8.34255 15.0338 8.44768 15.0206C8.42718 14.9607 8.41016 14.9 8.39515 14.8388C8.356 14.6793 8.32366 14.4852 8.28652 14.2623L6.81354 5.42442C6.76307 5.1217 6.72 4.86328 6.70317 4.65006C6.68559 4.42731 6.69108 4.20102 6.77402 3.97772C6.89613 3.64895 7.12959 3.37336 7.43382 3.19886C7.64045 3.08033 7.86275 3.03772 8.08537 3.01844C8.29845 2.99998 8.56043 2.99999 8.86733 3L9.4997 3V2.5ZM15.5761 9L16.0051 6.4259C16.006 6.42007 16.007 6.41428 16.008 6.40851L16.196 5.28084C16.2509 4.95157 16.2863 4.73623 16.2993 4.57139C16.312 4.41122 16.2978 4.35238 16.288 4.32591C16.2472 4.21632 16.1694 4.12445 16.068 4.06629C16.0435 4.05224 15.9878 4.02857 15.8277 4.01471C15.663 4.00044 15.4448 4 15.111 4H8.88843C8.55463 4 8.33638 4.00044 8.17165 4.01471C8.01158 4.02857 7.95587 4.05224 7.93138 4.06629C7.82997 4.12445 7.75215 4.21632 7.71145 4.32591C7.70161 4.35238 7.68743 4.41122 7.70007 4.57139C7.71308 4.73623 7.74852 4.95157 7.8034 5.28084L8.08993 7H8.69692C9.97114 7 11.2168 7.37717 12.277 8.08397C13.173 8.68127 14.2257 9 15.3025 9H15.5761ZM8.25659 8H8.69692C9.77371 8 10.8264 8.31873 11.7223 8.91603C12.7826 9.62283 14.0283 10 15.3025 10H15.4095L14.7293 14.0808C14.6885 14.3257 14.6621 14.4821 14.6331 14.6005C14.6055 14.7128 14.5835 14.7549 14.5689 14.7769C14.5167 14.8554 14.4433 14.9176 14.3572 14.9562C14.3331 14.967 14.288 14.9818 14.1727 14.9905C14.0511 14.9997 13.8926 15 13.6443 15H10.3551C10.1068 15 9.94826 14.9997 9.82667 14.9905C9.71135 14.9818 9.66625 14.967 9.64217 14.9562C9.5561 14.9176 9.48271 14.8554 9.43048 14.7769C9.41586 14.7549 9.3939 14.7128 9.36634 14.6005C9.33728 14.4821 9.31089 14.3257 9.27007 14.0808L8.25659 8ZM13.4997 2.5V3H10.4997V2.5C10.4997 2.22386 10.7236 2 10.9997 2H12.9997C13.2758 2 13.4997 2.22386 13.4997 2.5ZM9.05473 16C8.63436 16 8.55082 16.0073 8.48775 16.0303C8.4144 16.057 8.34833 16.1006 8.29484 16.1575C8.24885 16.2064 8.20927 16.2803 8.04367 16.6667L6.4151 20.4667C6.25174 20.8479 6.14312 21.1026 6.07915 21.2995C6.01544 21.4956 6.02003 21.5671 6.02503 21.5934C6.04995 21.7245 6.12624 21.8402 6.23693 21.9147C6.25913 21.9297 6.323 21.962 6.52838 21.9807C6.73457 21.9995 7.01144 22 7.42616 22H16.5732C16.988 22 17.2648 21.9995 17.471 21.9807C17.6764 21.962 17.7403 21.9297 17.7625 21.9147C17.8732 21.8402 17.9494 21.7245 17.9744 21.5934C17.9794 21.5671 17.984 21.4956 17.9202 21.2995C17.8563 21.1026 17.7477 20.8479 17.5843 20.4667L15.9557 16.6667C15.7901 16.2803 15.7505 16.2064 15.7046 16.1575C15.6511 16.1006 15.585 16.057 15.5116 16.0303C15.4486 16.0073 15.365 16 14.9447 16H9.05473Z" fill="black"/>
</svg>
