<svg width="24" height="24" viewBox="0 0 24 24" fill="none" xmlns="http://www.w3.org/2000/svg">
<path d="M21.6039 8.5C22.6199 8.50021 23.4436 9.32383 23.4437 10.3398C23.4437 13.2965 22.5007 16.1763 20.7523 18.5605L20.3158 19.1562C19.9268 19.6865 19.3084 19.9998 18.6508 20H17.1742L18.3939 21.3213C18.9849 21.9617 18.5308 22.9995 17.6595 23H1.68689C1.25261 22.9995 1.04836 22.4628 1.37244 22.1738C3.65569 20.1444 5.02495 17.2799 5.17029 14.2285L5.38318 9.75781C5.72458 9.83355 6.07953 9.875 6.44373 9.875H9.54236C9.48172 9.98192 9.44373 10.1037 9.44373 10.2354C9.44374 13.0195 10.424 15.7148 12.2123 17.8486L12.8724 18.6357C13.0657 18.8663 13.3509 18.9999 13.6517 19H18.6508C18.99 18.9998 19.3095 18.838 19.5101 18.5645L19.9457 17.9697C21.5684 15.757 22.4437 13.0838 22.4437 10.3398C22.4436 9.87612 22.0676 9.50021 21.6039 9.5H18.3158C18.8849 9.26276 19.3998 8.92228 19.8353 8.5H21.6039Z" fill="black"/>
<path d="M16.4437 0.875C17.6236 0.875114 18.6877 1.37009 19.4398 2.16504C19.4977 2.22623 19.5604 2.28425 19.6254 2.34082V7.6582C19.5602 7.7149 19.4979 7.77362 19.4398 7.83496C18.6877 8.62991 17.6236 9.12489 16.4437 9.125H6.44373C4.16555 9.125 2.31873 7.27817 2.31873 5C2.31873 2.72183 4.16555 0.875 6.44373 0.875H16.4437Z" fill="black"/>
<path d="M20.3754 2.77832C20.5543 2.83801 20.7442 2.875 20.9437 2.875C21.841 2.87522 22.5687 3.60267 22.5687 4.5V5.5C22.5687 6.39733 21.841 7.12478 20.9437 7.125C20.7443 7.125 20.5542 7.16108 20.3754 7.2207V2.77832Z" fill="black"/>
</svg>
