<svg width="24" height="24" viewBox="0 0 24 24" fill="none" xmlns="http://www.w3.org/2000/svg">
<path d="M10.1344 12.5809L11.195 13.6416L6.13784 18.6988L5.07718 17.6381L10.1344 12.5809Z" fill="black"/>
<path d="M12.5261 21.1299L15.9126 18.3591L16.9785 19.4251L12.4352 23.1423C11.9572 23.5335 11.2757 23.304 11.0803 22.7807C11.0452 22.6939 11.0258 22.599 11.0258 22.4995V16.4352L12.5258 15.0066L12.5261 21.1299Z" fill="black"/>
<path d="M18.386 7.00443L13.7354 11.2322L12.6736 10.1704L16.8304 6.39144L12.5261 2.86977L12.5259 8.99369L11.0259 7.56512V1.49999C11.0259 1.40119 11.045 1.30684 11.0798 1.22046C11.2743 0.696071 11.9567 0.465767 12.4352 0.857303L18.352 5.69829C18.7598 6.03194 18.7759 6.65 18.386 7.00443Z" fill="black"/>
<path d="M2.23295 1.49739C2.03769 1.30212 1.7211 1.30212 1.52584 1.49739C1.33058 1.69265 1.33058 2.00923 1.52584 2.20449L21.3228 22.0015C21.5181 22.1967 21.8347 22.1967 22.0299 22.0015C22.2252 21.8062 22.2252 21.4896 22.0299 21.2944L2.23295 1.49739Z" fill="black"/>
</svg>
