<svg width="24" height="24" viewBox="0 0 24 24" fill="none" xmlns="http://www.w3.org/2000/svg">
<path fill-rule="evenodd" clip-rule="evenodd" d="M13.026 8.77938L10.526 6.39843V1.49996C10.526 1.35672 10.5501 1.21911 10.5944 1.09095C10.8777 0.2296 11.9819 -0.159734 12.7519 0.470296L18.6687 5.31128C19.3128 5.8383 19.3382 6.81454 18.7224 7.37437L13.6344 11.9998L18.7224 16.6252C19.3382 17.185 19.3128 18.1613 18.6687 18.6883L12.7519 23.5293C11.8621 24.2573 10.5262 23.6242 10.5262 22.4746L10.5262 19.5221L10.526 19.4998V15.0178L6.13788 19.4058L4.37012 17.6381L10.0084 11.9998L4.37012 6.36151L6.13788 4.59374L11.8173 10.2731L16.0652 6.41134L13.0262 3.92486L13.026 8.77938ZM13.026 17.0651L10.6968 14.8469L11.8173 13.7265L16.0652 17.5882L13.0262 20.0747L13.026 17.0651Z" fill="black"/>
</svg>
