<svg width="24" height="24" viewBox="0 0 24 24" fill="none" xmlns="http://www.w3.org/2000/svg">
<path d="M12.0824 5.40257V11.4349L15.5748 8.25997L12.0824 5.40257Z" fill="black"/>
<path d="M12.0824 18.5974V12.5651L15.5748 15.74L12.0824 18.5974Z" fill="black"/>
<path fill-rule="evenodd" clip-rule="evenodd" d="M0.123117 8.43565C0 9.21298 0 10.142 0 12C0 13.858 0 14.787 0.123117 15.5643C0.800832 19.8433 4.15673 23.1992 8.43565 23.8769C9.21298 24 10.142 24 12 24C13.858 24 14.787 24 15.5643 23.8769C19.8433 23.1992 23.1992 19.8433 23.8769 15.5643C24 14.787 24 13.858 24 12C24 10.142 24 9.21298 23.8769 8.43565C23.1992 4.15673 19.8433 0.800832 15.5643 0.123117C14.787 0 13.858 0 12 0C10.142 0 9.21298 0 8.43565 0.123117C4.15673 0.800832 0.800832 4.15673 0.123117 8.43565ZM11.5824 11.3965V5.03327C11.5824 4.7591 11.901 4.60812 12.1132 4.78174L16.0484 8.00146C16.202 8.12714 16.2081 8.35996 16.0612 8.49348L12.204 12L16.0612 15.5065C16.2081 15.64 16.202 15.8729 16.0484 15.9986L12.1132 19.2183C11.901 19.3919 11.5824 19.2409 11.5824 18.9667V12.6036L8.25917 15.9268C8.16154 16.0244 8.00325 16.0244 7.90562 15.9268C7.80799 15.8292 7.80799 15.6709 7.90562 15.5732L11.4788 12L7.90562 8.42678C7.80799 8.32915 7.80799 8.17086 7.90562 8.07323C8.00325 7.9756 8.16154 7.9756 8.25917 8.07323L11.5824 11.3965Z" fill="black"/>
</svg>
