<svg width="24" height="24" viewBox="0 0 24 24" fill="none" xmlns="http://www.w3.org/2000/svg">
<path d="M10.1349 12.5809L11.1955 13.6416L6.13833 18.6988L5.07767 17.6381L10.1349 12.5809Z" fill="black"/>
<path d="M12.5266 21.1299L15.9131 18.3591L16.979 19.4251L12.4357 23.1423C11.9576 23.5335 11.2762 23.304 11.0808 22.7807C11.0457 22.6939 11.0263 22.599 11.0263 22.4995V16.4352L12.5263 15.0066L12.5266 21.1299Z" fill="black"/>
<path d="M18.3865 7.00443L13.7359 11.2322L12.6741 10.1704L16.8309 6.39144L12.5266 2.86977L12.5264 8.99369L11.0264 7.56512V1.49999C11.0264 1.40119 11.0455 1.30684 11.0802 1.22046C11.2748 0.696071 11.9572 0.465767 12.4357 0.857303L18.3525 5.69829C18.7603 6.03194 18.7764 6.65 18.3865 7.00443Z" fill="black"/>
<path d="M2.23344 1.49739C2.03817 1.30212 1.72159 1.30212 1.52633 1.49739C1.33107 1.69265 1.33107 2.00923 1.52633 2.20449L21.3233 22.0015C21.5186 22.1967 21.8351 22.1967 22.0304 22.0015C22.2257 21.8062 22.2257 21.4896 22.0304 21.2944L2.23344 1.49739Z" fill="black"/>
</svg>
