<svg width="24" height="24" viewBox="0 0 24 24" fill="none" xmlns="http://www.w3.org/2000/svg">
<path fill-rule="evenodd" clip-rule="evenodd" d="M11.0262 1.52505V10.1892L6.66827 5.83121C6.37538 5.53832 5.9005 5.53832 5.60761 5.83121C5.31472 6.1241 5.31472 6.59898 5.60761 6.89187L10.7156 11.9998L5.60761 17.1078C5.31472 17.4007 5.31472 17.8755 5.60761 18.1684C5.9005 18.4613 6.37538 18.4613 6.66827 18.1684L11.0262 13.8105V22.4746C11.0262 23.2024 11.872 23.6032 12.4353 23.1423L18.3521 18.3014C18.7599 17.9677 18.776 17.3496 18.3861 16.9952L12.8912 11.9998L18.3861 7.00443C18.776 6.65 18.7599 6.03194 18.3521 5.69829L12.4353 0.857303C11.872 0.396399 11.0262 0.797195 11.0262 1.52505ZM12.5262 10.3044V2.86977L16.8305 6.39144L12.5262 10.3044ZM12.5262 13.6952V21.1299L16.8305 17.6082L12.5262 13.6952Z" fill="black"/>
</svg>
