<svg width="24" height="24" viewBox="0 0 24 24" fill="none" xmlns="http://www.w3.org/2000/svg">
<path d="M9.42776 12.9344L10.842 14.3487L6.13833 19.0523L4.72411 17.6381L9.42776 12.9344Z" fill="black"/>
<path d="M12.7763 16.283L12.3543 15.8609L10.7763 17.3637V22.4995C10.7763 22.6232 10.7988 22.7416 10.8398 22.851C11.0825 23.5389 11.9718 23.8449 12.594 23.3358L16.5733 20.08L15.1521 18.6588L12.7766 20.6023L12.7763 16.283Z" fill="black"/>
<path d="M18.5547 7.1894L14.4685 10.9041L13.0527 9.48829L16.4483 6.40139L12.7766 3.39731L12.7764 8.5413L10.7764 6.63654V1.49997C10.7764 1.3772 10.7985 1.2596 10.839 1.15093C11.0805 0.461376 11.9711 0.154168 12.594 0.663799L18.5108 5.50479C19.0367 5.93512 19.0575 6.73227 18.5547 7.1894Z" fill="black"/>
<path d="M2.41021 1.32059C2.11732 1.0277 1.64245 1.0277 1.34955 1.32059C1.05666 1.61349 1.05666 2.08836 1.34955 2.38125L21.1465 22.1782C21.4394 22.4711 21.9143 22.4711 22.2072 22.1782C22.5001 21.8853 22.5001 21.4105 22.2072 21.1176L2.41021 1.32059Z" fill="black"/>
</svg>
