<svg width="24" height="24" viewBox="0 0 24 24" fill="none" xmlns="http://www.w3.org/2000/svg">
<path fill-rule="evenodd" clip-rule="evenodd" d="M0.123117 8.43565C0 9.21298 0 10.142 0 12C0 13.858 0 14.787 0.123117 15.5643C0.800832 19.8433 4.15673 23.1992 8.43565 23.8769C9.21298 24 10.142 24 12 24C13.858 24 14.787 24 15.5643 23.8769C19.8433 23.1992 23.1992 19.8433 23.8769 15.5643C24 14.787 24 13.858 24 12C24 10.142 24 9.21298 23.8769 8.43565C23.1992 4.15673 19.8433 0.800832 15.5643 0.123117C14.787 0 13.858 0 12 0C10.142 0 9.21298 0 8.43565 0.123117C4.15673 0.800832 0.800832 4.15673 0.123117 8.43565ZM10.6788 12.8001L7.90562 15.5732C7.80799 15.6709 7.80799 15.8292 7.90562 15.9268C8.00325 16.0244 8.16154 16.0244 8.25917 15.9268L11.0323 13.1536L10.6788 12.8001ZM11.5824 13.7037V18.9667C11.5824 19.2409 11.901 19.3919 12.1132 19.2183L14.8543 16.9756L14.499 16.6203L12.0824 18.5974V14.2037L11.5824 13.7037ZM13.2083 11.087L16.0612 8.49348C16.2081 8.35996 16.202 8.12714 16.0484 8.00146L12.1132 4.78174C11.901 4.60812 11.5824 4.7591 11.5824 5.03327V9.46106L12.0824 9.96106V5.40257L15.5748 8.25997L12.8544 10.7331L13.2083 11.087ZM5.07322 5.07322C5.17085 4.97559 5.32915 4.97559 5.42678 5.07322L18.5937 18.2401C18.6913 18.3377 18.6913 18.496 18.5937 18.5937C18.496 18.6913 18.3377 18.6913 18.2401 18.5937L5.07322 5.42677C4.97559 5.32914 4.97559 5.17085 5.07322 5.07322Z" fill="black"/>
</svg>
