<svg width="24" height="24" viewBox="0 0 24 24" fill="none" xmlns="http://www.w3.org/2000/svg">
<path fill-rule="evenodd" clip-rule="evenodd" d="M11.2762 1.52506V10.7927L6.49149 6.008C6.29623 5.81274 5.97965 5.81274 5.78439 6.008C5.58912 6.20326 5.58912 6.51984 5.78439 6.71511L11.0691 11.9998L5.78439 17.2846C5.58912 17.4798 5.58912 17.7964 5.78439 17.9917C5.97965 18.1869 6.29623 18.1869 6.49149 17.9917L11.2762 13.2069V22.4746C11.2762 22.9916 11.8769 23.2762 12.277 22.9489L18.1938 18.1079C18.4834 17.8709 18.4948 17.4319 18.2179 17.1802L12.5195 11.9998L18.2179 6.81946C18.4948 6.56773 18.4834 6.12876 18.1938 5.89179L12.277 1.05081C11.8769 0.723457 11.2762 1.00812 11.2762 1.52506ZM12.2762 10.8696V2.34222L17.2131 6.38149L12.2762 10.8696ZM12.2762 13.1301V21.6575L17.2131 17.6182L12.2762 13.1301Z" fill="black"/>
</svg>
