<svg width="24" height="24" viewBox="0 0 24 24" fill="none" xmlns="http://www.w3.org/2000/svg">
<path fill-rule="evenodd" clip-rule="evenodd" d="M10.526 1.52502V8.98203L7.02158 5.47763C6.53342 4.98947 5.74197 4.98947 5.25381 5.47763C4.76566 5.96578 4.76566 6.75724 5.25381 7.24539L10.0082 11.9998L5.25381 16.7542C4.76566 17.2424 4.76566 18.0338 5.25381 18.522C5.74197 19.0101 6.53342 19.0101 7.02158 18.522L10.526 15.0176V22.4746C10.526 23.6242 11.8619 24.2573 12.7517 23.5293L18.6685 18.6883C19.3126 18.1613 19.338 17.1851 18.7222 16.6252L13.6342 11.9998L18.7222 7.37437C19.338 6.81454 19.3126 5.8383 18.6685 5.31128L12.7517 0.470296C11.8619 -0.257716 10.526 0.375353 10.526 1.52502ZM13.026 9.1741V3.92486L16.065 6.41134L13.026 9.1741ZM13.026 14.8255V20.0747L16.065 17.5882L13.026 14.8255Z" fill="black"/>
</svg>
