<svg width="24" height="24" viewBox="0 0 24 24" fill="none" xmlns="http://www.w3.org/2000/svg">
<path fill-rule="evenodd" clip-rule="evenodd" d="M11.526 1.52507V11.3963L6.31447 6.18479C6.21684 6.08716 6.05855 6.08716 5.96092 6.18479C5.86329 6.28242 5.86329 6.44071 5.96092 6.53834L11.4224 11.9998L5.96092 17.4614C5.86329 17.559 5.86329 17.7173 5.96092 17.8149C6.05855 17.9125 6.21684 17.9125 6.31447 17.8149L11.526 12.6034V22.4746C11.526 22.7807 11.8816 22.9492 12.1185 22.7554L18.0352 17.9144C18.2067 17.7741 18.2135 17.5142 18.0495 17.3652L12.1476 11.9998L18.0495 6.63449C18.2135 6.48546 18.2067 6.22559 18.0352 6.0853L12.1185 1.24431C11.8816 1.05051 11.526 1.21904 11.526 1.52507ZM12.026 11.4347V1.81467L17.5955 6.37153L12.026 11.4347ZM12.026 12.565V22.185L17.5955 17.6282L12.026 12.565Z" fill="black"/>
</svg>
