<svg width="24" height="24" viewBox="0 0 24 24" fill="none" xmlns="http://www.w3.org/2000/svg">
<path d="M12.3324 5.93013V10.8697L15.1922 8.26994L12.3324 5.93013Z" fill="black"/>
<path d="M12.3324 18.0699V13.1303L15.1922 15.7301L12.3324 18.0699Z" fill="black"/>
<path fill-rule="evenodd" clip-rule="evenodd" d="M0.123117 8.43565C0 9.21298 0 10.142 0 12C0 13.858 0 14.787 0.123117 15.5643C0.800832 19.8433 4.15673 23.1992 8.43565 23.8769C9.21298 24 10.142 24 12 24C13.858 24 14.787 24 15.5643 23.8769C19.8433 23.1992 23.1992 19.8433 23.8769 15.5643C24 14.787 24 13.858 24 12C24 10.142 24 9.21298 23.8769 8.43565C23.1992 4.15673 19.8433 0.800832 15.5643 0.123117C14.787 0 13.858 0 12 0C10.142 0 9.21298 0 8.43565 0.123117C4.15673 0.800832 0.800832 4.15673 0.123117 8.43565ZM11.3324 10.7929V5.03327C11.3324 4.54819 11.8961 4.28107 12.2715 4.58825L16.2067 7.80797C16.4785 8.03034 16.4892 8.44225 16.2294 8.67846L12.5757 12L16.2294 15.3216C16.4892 15.5578 16.4785 15.9697 16.2067 16.192L12.2715 19.4118C11.8961 19.7189 11.3324 19.4518 11.3324 18.9667V13.2071L8.43595 16.1036C8.24069 16.2988 7.92411 16.2988 7.72884 16.1036C7.53358 15.9083 7.53358 15.5917 7.72884 15.3965L11.1253 12L7.72884 8.60356C7.53358 8.4083 7.53358 8.09171 7.72884 7.89645C7.92411 7.70119 8.24069 7.70119 8.43595 7.89645L11.3324 10.7929Z" fill="black"/>
</svg>
