<svg width="24" height="24" viewBox="0 0 24 24" fill="none" xmlns="http://www.w3.org/2000/svg">
<path fill-rule="evenodd" clip-rule="evenodd" d="M0.123117 8.43565C0 9.21298 0 10.142 0 12C0 13.858 0 14.787 0.123117 15.5643C0.800832 19.8433 4.15673 23.1992 8.43565 23.8769C9.21298 24 10.142 24 12 24C13.858 24 14.787 24 15.5643 23.8769C19.8433 23.1992 23.1992 19.8433 23.8769 15.5643C24 14.787 24 13.858 24 12C24 10.142 24 9.21298 23.8769 8.43565C23.1992 4.15673 19.8433 0.800832 15.5643 0.123117C14.787 0 13.858 0 12 0C10.142 0 9.21298 0 8.43565 0.123117C4.15673 0.800832 0.800832 4.15673 0.123117 8.43565ZM10.3783 12.4996L7.6051 15.2727C7.3415 15.5363 7.3415 15.9637 7.6051 16.2273C7.8687 16.4909 8.29609 16.4909 8.5597 16.2273L11.1574 13.6296V18.9667C11.1574 19.5995 11.8926 19.9479 12.3823 19.5472L15.1563 17.2776L14.1969 16.3182L12.5074 17.7006V14.6287L10.3783 12.4996ZM13.5092 11.3879L16.3471 8.80795C16.686 8.49985 16.672 7.96257 16.3175 7.67253L12.3823 4.45281C11.8926 4.05214 11.1574 4.40055 11.1574 5.03327V9.03606L12.5074 10.3861V6.29942L14.9243 8.27692L12.5535 10.4322L13.5092 11.3879ZM4.89645 4.89644C5.09171 4.70118 5.40829 4.70118 5.60355 4.89644L18.7704 18.0633C18.9657 18.2586 18.9657 18.5752 18.7704 18.7704C18.5752 18.9657 18.2586 18.9657 18.0633 18.7704L4.89645 5.60355C4.70118 5.40829 4.70118 5.0917 4.89645 4.89644Z" fill="black"/>
</svg>
