<svg width="24" height="24" viewBox="0 0 24 24" fill="none" xmlns="http://www.w3.org/2000/svg">
<path d="M5.43073 16.931L9.60405 12.7577L12.7761 15.9298V20.6023L15.346 18.4997L16.7673 19.9209L12.5935 23.3358C11.867 23.9303 10.7761 23.4133 10.7761 22.4746V14.414L6.84495 18.3452C6.45442 18.7357 5.82126 18.7357 5.43073 18.3452C5.04021 17.9547 5.04021 17.3215 5.43073 16.931Z" fill="black"/>
<path d="M18.5542 7.1894L14.2828 11.0725L12.867 9.65665L16.4478 6.40139L12.7761 3.39731V9.56579L10.7761 7.56579V1.52503C10.7761 0.586274 11.867 0.0693415 12.5935 0.663799L18.5103 5.50479C19.0363 5.93512 19.057 6.73227 18.5542 7.1894Z" fill="black"/>
<path d="M2.40972 1.32059C2.11683 1.0277 1.64196 1.0277 1.34906 1.32059C1.05617 1.61349 1.05617 2.08836 1.34906 2.38125L21.146 22.1782C21.4389 22.4711 21.9138 22.4711 22.2067 22.1782C22.4996 21.8853 22.4996 21.4105 22.2067 21.1176L2.40972 1.32059Z" fill="black"/>
</svg>
