<svg width="24" height="24" viewBox="0 0 24 24" fill="none" xmlns="http://www.w3.org/2000/svg">
<path d="M9.25049 12.7577L11.0183 14.5254L6.13784 19.4058L4.37007 17.6381L9.25049 12.7577Z" fill="black"/>
<path d="M13.0258 16.533L12.3538 15.8609L10.5258 17.6018V22.4995C10.5258 22.644 10.5503 22.7827 10.5954 22.9118C10.8803 23.7709 11.9827 24.1586 12.7518 23.5293L16.7505 20.2577L14.9739 18.4811L13.0261 20.0747L13.0258 16.533Z" fill="black"/>
<path d="M18.7223 7.37437L14.645 11.0811L12.8752 9.3113L16.0652 6.41134L13.0261 3.92486L13.0259 8.77938L10.5259 6.39843V1.49996C10.5259 1.35672 10.55 1.2191 10.5944 1.09094C10.8777 0.229597 11.9818 -0.159732 12.7518 0.470296L18.6686 5.31128C19.3127 5.8383 19.3382 6.81454 18.7223 7.37437Z" fill="black"/>
<path d="M2.40972 1.32058C2.11683 1.02769 1.64196 1.02769 1.34906 1.32058C1.05617 1.61347 1.05617 2.08835 1.34906 2.38124L21.146 22.1782C21.4389 22.4711 21.9138 22.4711 22.2067 22.1782C22.4996 21.8853 22.4996 21.4104 22.2067 21.1176L2.40972 1.32058Z" fill="black"/>
</svg>
