<svg width="24" height="24" viewBox="0 0 24 24" fill="none" xmlns="http://www.w3.org/2000/svg">
<path d="M10.4884 12.9345L10.842 13.288L6.13833 17.9917L5.78477 17.6381L10.4884 12.9345Z" fill="black"/>
<path d="M12.0263 18.7497V14.4724L11.8365 14.2826L11.5263 14.5781V22.4996C11.5263 22.5392 11.5355 22.5766 11.5519 22.6099C11.6373 22.8253 11.9201 22.9182 12.1191 22.7554L16.6237 19.0698L16.2684 18.7145L12.0266 22.185L12.0266 18.9997L12.0263 18.7497Z" fill="black"/>
<path d="M18.0502 6.63449L13.382 10.8783L13.028 10.5243L17.5961 6.37153L12.0266 1.81467L12.0264 9.52275L11.5264 9.02275V1.50001C11.5264 1.46061 11.5355 1.42334 11.5518 1.39019C11.6369 1.17454 11.92 1.08139 12.1191 1.24431L18.0359 6.0853C18.2073 6.22559 18.2141 6.48546 18.0502 6.63449Z" fill="black"/>
<path d="M2.05666 1.67419C1.95903 1.57656 1.80074 1.57656 1.70311 1.67419C1.60548 1.77182 1.60548 1.93011 1.70311 2.02774L21.5001 21.8247C21.5977 21.9224 21.756 21.9224 21.8536 21.8247C21.9513 21.7271 21.9513 21.5688 21.8536 21.4712L2.05666 1.67419Z" fill="black"/>
</svg>
