<svg width="24" height="24" viewBox="0 0 24 24" fill="none" xmlns="http://www.w3.org/2000/svg">
<path fill-rule="evenodd" clip-rule="evenodd" d="M11.5262 1.52507V11.3963L6.31472 6.18479C6.21709 6.08716 6.05879 6.08716 5.96116 6.18479C5.86353 6.28242 5.86353 6.44071 5.96116 6.53834L11.4227 11.9998L5.96116 17.4614C5.86353 17.559 5.86353 17.7173 5.96116 17.8149C6.05879 17.9125 6.21709 17.9125 6.31472 17.8149L11.5262 12.6034V22.4746C11.5262 22.7807 11.8818 22.9492 12.1187 22.7554L18.0355 17.9144C18.2069 17.7741 18.2137 17.5142 18.0498 17.3652L12.1479 11.9998L18.0498 6.63449C18.2137 6.48546 18.2069 6.22559 18.0355 6.0853L12.1187 1.24431C11.8818 1.05051 11.5262 1.21904 11.5262 1.52507ZM12.0262 11.4347V1.81467L17.5957 6.37153L12.0262 11.4347ZM12.0262 12.565V22.185L17.5957 17.6282L12.0262 12.565Z" fill="black"/>
</svg>
