<svg width="24" height="24" viewBox="0 0 24 24" fill="none" xmlns="http://www.w3.org/2000/svg">
<path fill-rule="evenodd" clip-rule="evenodd" d="M11.276 1.52506V10.7927L6.49125 6.008C6.29599 5.81274 5.9794 5.81274 5.78414 6.008C5.58888 6.20326 5.58888 6.51984 5.78414 6.71511L11.0689 11.9998L5.78414 17.2846C5.58888 17.4798 5.58888 17.7964 5.78414 17.9917C5.9794 18.1869 6.29599 18.1869 6.49125 17.9917L11.276 13.2069V22.4746C11.276 22.9916 11.8767 23.2762 12.2768 22.9489L18.1935 18.1079C18.4832 17.8709 18.4946 17.4319 18.2177 17.1802L12.5193 11.9998L18.2177 6.81946C18.4946 6.56773 18.4832 6.12876 18.1935 5.89179L12.2768 1.05081C11.8767 0.723457 11.276 1.00812 11.276 1.52506ZM12.276 10.8696V2.34222L17.2129 6.38149L12.276 10.8696ZM12.276 13.1301V21.6575L17.2129 17.6182L12.276 13.1301Z" fill="black"/>
</svg>
