<svg width="24" height="24" viewBox="0 0 24 24" fill="none" xmlns="http://www.w3.org/2000/svg">
<path d="M5.43122 16.931L9.60454 12.7577L12.7766 15.9298V20.6023L15.3465 18.4997L16.7678 19.9209L12.594 23.3358C11.8675 23.9303 10.7766 23.4133 10.7766 22.4746V14.414L6.84544 18.3452C6.45491 18.7357 5.82175 18.7357 5.43122 18.3452C5.0407 17.9547 5.0407 17.3215 5.43122 16.931Z" fill="black"/>
<path d="M18.5547 7.1894L14.2833 11.0725L12.8675 9.65665L16.4483 6.40139L12.7766 3.39731V9.56579L10.7766 7.56579V1.52503C10.7766 0.586274 11.8675 0.0693415 12.594 0.663799L18.5108 5.50479C19.0367 5.93512 19.0575 6.73227 18.5547 7.1894Z" fill="black"/>
<path d="M2.41021 1.32059C2.11732 1.0277 1.64245 1.0277 1.34955 1.32059C1.05666 1.61349 1.05666 2.08836 1.34955 2.38125L21.1465 22.1782C21.4394 22.4711 21.9143 22.4711 22.2072 22.1782C22.5001 21.8853 22.5001 21.4105 22.2072 21.1176L2.41021 1.32059Z" fill="black"/>
</svg>
