<svg width="24" height="24" viewBox="0 0 24 24" fill="none" xmlns="http://www.w3.org/2000/svg">
<path d="M10.3112 12.7577L11.0183 13.4648L6.13784 18.3452L5.43073 17.6381L10.3112 12.7577Z" fill="black"/>
<path d="M12.2758 14.7224L12.1897 14.6363L11.2758 15.5066V22.4996C11.2758 22.571 11.2908 22.639 11.3179 22.7005C11.4607 23.0662 11.94 23.2246 12.2769 22.9489L16.8009 19.2474L16.0903 18.5368L12.2761 21.6575L12.2758 14.7224Z" fill="black"/>
<path d="M18.2178 6.81946L13.5585 11.0553L12.8506 10.3474L17.213 6.38149L12.2761 2.34222L12.2759 9.44609L11.2759 8.49371V1.5C11.2759 1.42892 11.2908 1.36131 11.3175 1.30008C11.4599 0.933777 11.9397 0.774886 12.2769 1.05081L18.1937 5.89179C18.4833 6.12876 18.4947 6.56773 18.2178 6.81946Z" fill="black"/>
<path d="M2.23295 1.4974C2.03769 1.30214 1.7211 1.30214 1.52584 1.4974C1.33058 1.69266 1.33058 2.00924 1.52584 2.20451L21.3228 22.0015C21.5181 22.1967 21.8347 22.1967 22.0299 22.0015C22.2252 21.8062 22.2252 21.4896 22.0299 21.2944L2.23295 1.4974Z" fill="black"/>
</svg>
