<svg width="24" height="24" viewBox="0 0 24 24" fill="none" xmlns="http://www.w3.org/2000/svg">
<path d="M5.96155 17.4614L10.4884 12.9345L10.842 13.288L6.31511 17.8149C6.21747 17.9125 6.05918 17.9125 5.96155 17.8149C5.86392 17.7173 5.86392 17.559 5.96155 17.4614Z" fill="black"/>
<path d="M11.5266 22.4746V13.9727L12.0266 14.4727V22.185L16.2684 18.7145L16.6237 19.0698L12.1191 22.7554C11.8822 22.9492 11.5266 22.7807 11.5266 22.4746Z" fill="black"/>
<path d="M18.0502 6.63449L13.382 10.8783L13.028 10.5243L17.5961 6.37153L12.0266 1.81467V9.52294L11.5266 9.02294V1.52507C11.5266 1.21904 11.8822 1.05051 12.1191 1.24431L18.0359 6.0853C18.2073 6.22559 18.2141 6.48546 18.0502 6.63449Z" fill="black"/>
<path d="M2.05666 1.67419C1.95903 1.57656 1.80074 1.57656 1.70311 1.67419C1.60548 1.77182 1.60548 1.93011 1.70311 2.02774L21.5001 21.8247C21.5977 21.9224 21.756 21.9224 21.8536 21.8247C21.9513 21.7271 21.9513 21.5688 21.8536 21.4712L2.05666 1.67419Z" fill="black"/>
</svg>
