<svg width="24" height="24" viewBox="0 0 24 24" fill="none" xmlns="http://www.w3.org/2000/svg">
<path d="M9.25098 12.7577L11.0187 14.5254L6.13833 19.4058L4.37056 17.6381L9.25098 12.7577Z" fill="black"/>
<path d="M13.0263 16.533L12.3543 15.8609L10.5263 17.6018V22.4995C10.5263 22.644 10.5508 22.7827 10.5959 22.9118C10.8808 23.7709 11.9832 24.1586 12.7523 23.5293L16.751 20.2577L14.9744 18.4811L13.0266 20.0747L13.0263 16.533Z" fill="black"/>
<path d="M18.7228 7.37437L14.6455 11.0811L12.8757 9.3113L16.0656 6.41134L13.0266 3.92486L13.0264 8.77938L10.5264 6.39843V1.49996C10.5264 1.35672 10.5505 1.2191 10.5949 1.09094C10.8781 0.229597 11.9823 -0.159732 12.7523 0.470296L18.6691 5.31128C19.3132 5.8383 19.3387 6.81454 18.7228 7.37437Z" fill="black"/>
<path d="M2.41021 1.32058C2.11732 1.02769 1.64245 1.02769 1.34955 1.32058C1.05666 1.61347 1.05666 2.08835 1.34955 2.38124L21.1465 22.1782C21.4394 22.4711 21.9143 22.4711 22.2072 22.1782C22.5001 21.8853 22.5001 21.4104 22.2072 21.1176L2.41021 1.32058Z" fill="black"/>
</svg>
