<svg width="24" height="24" viewBox="0 0 24 24" fill="none" xmlns="http://www.w3.org/2000/svg">
<path d="M5.60751 17.1078L10.1344 12.5809L12.5261 14.9727V21.1299L15.9126 18.3591L16.9785 19.4251L12.4352 23.1423C11.8719 23.6032 11.0261 23.2024 11.0261 22.4746V13.8105L6.66817 18.1684C6.37528 18.4613 5.9004 18.4613 5.60751 18.1684C5.31462 17.8755 5.31462 17.4007 5.60751 17.1078Z" fill="black"/>
<path d="M18.386 7.00443L13.7354 11.2322L12.6736 10.1704L16.8304 6.39144L12.5261 2.86977V10.0229L11.0261 8.52291V1.52505C11.0261 0.797195 11.8719 0.396399 12.4352 0.857303L18.352 5.69829C18.7598 6.03194 18.7759 6.65 18.386 7.00443Z" fill="black"/>
<path d="M2.23295 1.49739C2.03769 1.30212 1.7211 1.30212 1.52584 1.49739C1.33058 1.69265 1.33058 2.00923 1.52584 2.20449L21.3228 22.0015C21.5181 22.1967 21.8347 22.1967 22.0299 22.0015C22.2252 21.8062 22.2252 21.4896 22.0299 21.2944L2.23295 1.49739Z" fill="black"/>
</svg>
