<svg width="24" height="24" viewBox="0 0 24 24" fill="none" xmlns="http://www.w3.org/2000/svg">
<path d="M5.78478 17.2846L10.3116 12.7577L11.0187 13.4648L6.49188 17.9917C6.29662 18.1869 5.98004 18.1869 5.78478 17.9917C5.58951 17.7964 5.58951 17.4798 5.78478 17.2846Z" fill="black"/>
<path d="M11.2766 22.4746V13.7227L12.2766 14.7227V21.6575L16.0907 18.5368L16.8014 19.2474L12.2774 22.9489C11.8773 23.2762 11.2766 22.9916 11.2766 22.4746Z" fill="black"/>
<path d="M18.2183 6.81946L13.5589 11.0553L12.851 10.3474L17.2135 6.38149L12.2766 2.34222V9.77293L11.2766 8.77293V1.52506C11.2766 1.00812 11.8773 0.723457 12.2774 1.05081L18.1942 5.89179C18.4838 6.12876 18.4952 6.56773 18.2183 6.81946Z" fill="black"/>
<path d="M2.23344 1.4974C2.03817 1.30214 1.72159 1.30214 1.52633 1.4974C1.33107 1.69266 1.33107 2.00924 1.52633 2.20451L21.3233 22.0015C21.5186 22.1967 21.8351 22.1967 22.0304 22.0015C22.2257 21.8062 22.2257 21.4896 22.0304 21.2944L2.23344 1.4974Z" fill="black"/>
</svg>
