<svg width="24" height="24" viewBox="0 0 24 24" fill="none" xmlns="http://www.w3.org/2000/svg">
<path fill-rule="evenodd" clip-rule="evenodd" d="M10.776 1.52503V9.58559L6.8448 5.65442C6.45428 5.26389 5.82111 5.26389 5.43059 5.65442C5.04006 6.04494 5.04006 6.67811 5.43059 7.06863L10.3618 11.9998L5.43059 16.931C5.04006 17.3215 5.04006 17.9547 5.43059 18.3452C5.82111 18.7357 6.45428 18.7357 6.8448 18.3452L10.776 14.414V22.4746C10.776 23.4133 11.8668 23.9303 12.5934 23.3358L18.5102 18.4948C19.0361 18.0645 19.0569 17.2673 18.554 16.8102L13.2626 11.9998L18.554 7.1894C19.0569 6.73227 19.0361 5.93512 18.5102 5.50479L12.5934 0.663799C11.8668 0.0693415 10.776 0.586274 10.776 1.52503ZM12.776 9.73926V3.39731L16.4476 6.40139L12.776 9.73926ZM12.776 14.2604V20.6023L16.4476 17.5982L12.776 14.2604Z" fill="black"/>
</svg>
