<svg width="24" height="24" viewBox="0 0 24 24" fill="none" xmlns="http://www.w3.org/2000/svg">
<path d="M5.25445 16.7542L9.42776 12.5809L13.0266 16.1797V20.0747L15.1689 18.322L16.9454 20.0986L12.7523 23.5293C11.8625 24.2573 10.5266 23.6242 10.5266 22.4746V15.0176L7.02221 18.522C6.53406 19.0101 5.7426 19.0101 5.25445 18.522C4.76629 18.0338 4.76629 17.2424 5.25445 16.7542Z" fill="black"/>
<path fill-rule="evenodd" clip-rule="evenodd" d="M18.7228 7.37437L14.4603 11.2494L10.5266 7.31578V1.52502C10.5266 0.375353 11.8625 -0.257716 12.7523 0.470296L18.6691 5.31128C19.3132 5.8383 19.3387 6.81454 18.7228 7.37437ZM13.0266 9.1741V3.92486L16.0656 6.41134L13.0266 9.1741Z" fill="black"/>
<path d="M2.41021 1.32058C2.11732 1.02769 1.64245 1.02769 1.34955 1.32058C1.05666 1.61347 1.05666 2.08835 1.34955 2.38124L21.1465 22.1782C21.4394 22.4711 21.9143 22.4711 22.2072 22.1782C22.5001 21.8853 22.5001 21.4104 22.2072 21.1176L2.41021 1.32058Z" fill="black"/>
</svg>
