<svg width="24" height="24" viewBox="0 0 24 24" fill="none" xmlns="http://www.w3.org/2000/svg">
<path d="M12.2759 9.44609L11.2759 8.49371V1.5C11.2759 1.42892 11.2907 1.36131 11.3174 1.30008C11.4599 0.933777 11.9396 0.774886 12.2768 1.05081L18.1936 5.89179C18.4832 6.12876 18.4947 6.56773 18.2178 6.81946L12.5194 11.9998L18.2178 17.1802C18.4947 17.4319 18.4832 17.8709 18.1936 18.1079L12.2768 22.9489C11.8768 23.2762 11.2761 22.9916 11.2761 22.4746L11.2761 20.514L11.2759 20.5V14.0175L12.2759 14.9699L12.2761 21.6575L17.2129 17.6182L11.7925 12.6905L6.13777 18.3452L5.43066 17.6381L11.0689 11.9998L5.43066 6.36155L6.13777 5.65445L11.7925 11.3092L17.2129 6.38149L12.2761 2.34222L12.2759 9.44609Z" fill="black"/>
</svg>
