<svg width="24" height="24" viewBox="0 0 24 24" fill="none" xmlns="http://www.w3.org/2000/svg">
<path d="M12.7759 8.5413L10.7759 6.63654V1.49997C10.7759 1.3772 10.7981 1.2596 10.8385 1.15093C11.08 0.461376 11.9707 0.154168 12.5935 0.663799L18.5103 5.50479C19.0363 5.93512 19.057 6.73227 18.5542 7.1894L13.2627 11.9998L18.5542 16.8102C19.057 17.2673 19.0363 18.0645 18.5103 18.4948L12.5935 23.3358C11.9723 23.8441 11.0848 23.5399 10.8405 22.8542C10.7988 22.7441 10.7759 22.6247 10.7759 22.5V14.9223L12.7759 16.827L12.7761 20.6023L16.4478 17.5982L11.809 13.3811L6.13785 19.0523L4.72363 17.6381L10.3619 11.9998L4.72363 6.36152L6.13785 4.94731L11.809 10.6185L16.4478 6.40139L12.7761 3.39731L12.7759 8.5413Z" fill="black"/>
</svg>
