<svg width="24" height="24" viewBox="0 0 24 24" fill="none" xmlns="http://www.w3.org/2000/svg">
<path d="M12.0258 9.89848L11.5258 9.42229V1.50001C11.5258 1.46061 11.5349 1.42334 11.5512 1.39019C11.6363 1.17454 11.9194 1.08139 12.1185 1.24431L18.0353 6.0853C18.2067 6.22559 18.2135 6.48546 18.0496 6.63449L12.1477 11.9998L18.0496 17.3652C18.2135 17.5142 18.2067 17.7741 18.0353 17.9144L12.1185 22.7554C11.8816 22.9492 11.526 22.7807 11.526 22.4746L11.526 20.0099L11.5258 20V13.5652L12.0258 14.0413L12.026 22.185L17.5955 17.6282L11.7842 12.3452L6.13773 17.9917L5.78418 17.6381L11.4225 11.9998L5.78418 6.36157L6.13773 6.00801L11.7842 11.6545L17.5955 6.37153L12.026 1.81467L12.0258 9.89848Z" fill="black"/>
</svg>
