<svg width="24" height="24" viewBox="0 0 24 24" fill="none" xmlns="http://www.w3.org/2000/svg">
<path fill-rule="evenodd" clip-rule="evenodd" d="M11.026 1.52505V10.1892L6.66803 5.83121C6.37513 5.53832 5.90026 5.53832 5.60737 5.83121C5.31447 6.1241 5.31447 6.59898 5.60737 6.89187L10.7153 11.9998L5.60737 17.1078C5.31447 17.4007 5.31447 17.8755 5.60737 18.1684C5.90026 18.4613 6.37513 18.4613 6.66803 18.1684L11.026 13.8105V22.4746C11.026 23.2024 11.8718 23.6032 12.4351 23.1423L18.3518 18.3014C18.7596 17.9677 18.7757 17.3496 18.3859 16.9952L12.8909 11.9998L18.3859 7.00443C18.7757 6.65 18.7596 6.03194 18.3518 5.69829L12.4351 0.857303C11.8718 0.396399 11.026 0.797195 11.026 1.52505ZM12.526 10.3044V2.86977L16.8302 6.39144L12.526 10.3044ZM12.526 13.6952V21.1299L16.8302 17.6082L12.526 13.6952Z" fill="black"/>
</svg>
