<svg width="24" height="24" viewBox="0 0 24 24" fill="none" xmlns="http://www.w3.org/2000/svg">
<path fill-rule="evenodd" clip-rule="evenodd" d="M12.1759 1.07129L17.5636 2.05176C18.3116 2.1879 18.9205 2.73666 19.13 3.46973L20.3556 7.75977L21.9718 8.44043C22.8711 8.81918 23.3661 9.79229 23.1427 10.7422L21.9337 15.8789C21.3702 18.2725 19.675 20.2417 17.3917 21.1553L12.7423 23.0156C12.2655 23.2063 11.7328 23.2064 11.256 23.0156L6.60756 21.1553C4.32422 20.2419 2.62819 18.2729 2.06459 15.8789L0.855605 10.7422C0.632166 9.79232 1.12724 8.81922 2.0265 8.44043L3.63686 7.76172L4.86439 3.46973C5.0735 2.73787 5.6808 2.18852 6.42885 2.05176L11.8185 1.07129L11.9972 1.03809L12.1759 1.07129ZM3.6183 13.749L4.01186 15.4199C4.42593 17.1791 5.67158 18.6264 7.34975 19.2979L11.0001 20.7578V10.6416L3.6183 13.749ZM13.0001 20.7568L16.6496 19.2979C18.3273 18.6264 19.5724 17.1791 19.9865 15.4199L20.379 13.749L13.0001 10.6426V20.7568ZM2.80287 10.2842L3.15346 11.7754L11.0001 8.47168V6.83203L2.80287 10.2842ZM13.0001 8.47266L20.8439 11.7754L21.1954 10.2842L13.0001 6.83301V8.47266ZM6.78822 4.01855L6.00209 6.7666L11.0001 4.66211V3.25098L6.78822 4.01855ZM13.0001 4.66309L17.9904 6.76367L17.2062 4.01855L13.0001 3.25293V4.66309Z" fill="black"/>
</svg>
