<svg width="24" height="24" viewBox="0 0 24 24" fill="none" xmlns="http://www.w3.org/2000/svg">
<path fill-rule="evenodd" clip-rule="evenodd" d="M12.0879 1.5625L17.4756 2.54297C18.0364 2.64531 18.4923 3.05729 18.6494 3.60645L19.9404 8.12793L21.7773 8.90137C22.452 9.18541 22.8229 9.9154 22.6553 10.6279L21.4463 15.7637C20.9201 17.9988 19.3381 19.8374 17.206 20.6904L12.5566 22.5508C12.1991 22.6937 11.7989 22.6938 11.4414 22.5508L6.79296 20.6904C4.66093 19.8375 3.0779 17.999 2.55175 15.7637L1.34277 10.6279C1.17518 9.91558 1.54635 9.18552 2.22069 8.90137L4.05468 8.12891L5.34667 3.60645C5.50363 3.05773 5.9584 2.64541 6.51952 2.54297L11.9082 1.5625L11.998 1.54688L12.0879 1.5625ZM3.03417 13.4521L3.52441 15.5352C3.97589 17.453 5.33464 19.0308 7.16405 19.7627L11.5 21.4961V9.88867L3.03417 13.4521ZM12.5 21.4951L16.835 19.7627C18.6642 19.0308 20.0221 17.453 20.4736 15.5352L20.9629 13.4521L12.5 9.88867V21.4951ZM2.60839 9.82324C2.38402 9.9181 2.26069 10.1612 2.3164 10.3984L2.80175 12.4648L11.5 8.80371V6.0791L2.60839 9.82324ZM12.5 8.80469L21.1953 12.4648L21.6816 10.3984C21.7374 10.1611 21.6143 9.918 21.3896 9.82324L12.5 6.08008V8.80469ZM6.69921 3.52734C6.51199 3.56156 6.35984 3.69911 6.30761 3.88184L5.23437 7.63184L11.417 5.0293C11.4443 5.01782 11.4722 5.00784 11.5 4.99805V2.65234L6.69921 3.52734ZM12.5 4.99902C12.5271 5.00863 12.5544 5.01808 12.581 5.0293L18.7578 7.62988L17.6885 3.88184C17.6364 3.6995 17.4834 3.56169 17.2959 3.52734L12.5 2.65332V4.99902Z" fill="black"/>
</svg>
