<svg width="24" height="24" viewBox="0 0 24 24" fill="none" xmlns="http://www.w3.org/2000/svg">
<path fill-rule="evenodd" clip-rule="evenodd" d="M12.0431 1.80859L17.4308 2.78906C17.8984 2.8744 18.2785 3.21817 18.4093 3.67578L19.7325 8.31152L21.6808 9.13184C22.2428 9.36858 22.5519 9.97665 22.4122 10.5703L21.2032 15.707C20.6957 17.8627 19.1696 19.6363 17.1134 20.459L12.463 22.3193C12.1653 22.4381 11.8329 22.4374 11.5353 22.3184L6.88585 20.459C4.82962 19.6363 3.30257 17.8628 2.79503 15.707L1.58604 10.5703C1.44652 9.97687 1.75583 9.36872 2.31749 9.13184L4.26182 8.3125L5.58702 3.67578C5.71771 3.21845 6.09687 2.8745 6.56456 2.78906L11.9532 1.80859L11.9982 1.80078L12.0431 1.80859ZM2.74229 13.3027L3.28136 15.5918C3.75144 17.589 5.16641 19.2319 7.07139 19.9941L11.7208 21.8545C11.7301 21.8582 11.7407 21.859 11.7501 21.8623V9.51172L2.74229 13.3027ZM12.2501 21.8623C12.259 21.8591 12.2686 21.858 12.2774 21.8545L16.9278 19.9941C18.8328 19.2319 20.2468 17.589 20.7169 15.5918L21.255 13.3037L12.2501 9.5127V21.8623ZM11.7081 5.7207L2.51182 9.59277C2.17487 9.73493 1.98864 10.1 2.07237 10.4561L2.62608 12.8105L11.7501 8.96973V5.70508C11.7362 5.71 11.7218 5.71493 11.7081 5.7207ZM12.2501 8.9707L21.3712 12.8105L21.9259 10.4561C22.0097 10.0998 21.8238 9.7348 21.4864 9.59277L12.2901 5.7207C12.277 5.71518 12.2635 5.7108 12.2501 5.70605V8.9707ZM6.6544 3.28125C6.37382 3.33255 6.14594 3.53839 6.06749 3.8125L4.85167 8.06445L11.5138 5.25977C11.5904 5.2275 11.6698 5.20284 11.7501 5.18652V2.35352L6.6544 3.28125ZM12.2501 5.1875C12.3299 5.20379 12.4084 5.22777 12.4845 5.25977L19.1417 8.0625L17.9288 3.8125C17.8504 3.53852 17.6218 3.33256 17.3409 3.28125L12.2501 2.35449V5.1875Z" fill="black"/>
</svg>
