<svg width="24" height="24" viewBox="0 0 24 24" fill="none" xmlns="http://www.w3.org/2000/svg">
<path d="M11.752 22.3828C11.6786 22.3679 11.6057 22.3465 11.5352 22.3184L6.88579 20.459C4.82967 19.6363 3.30257 17.8627 2.79497 15.707L2.27544 13.5L11.752 9.51074V22.3828Z" fill="black"/>
<path d="M21.7217 13.501L21.2032 15.707C20.6956 17.8626 19.1695 19.6363 17.1133 20.459L12.4629 22.3193C12.3944 22.3467 12.3233 22.3662 12.252 22.3809V9.51367L21.7217 13.501Z" fill="black"/>
<path fill-rule="evenodd" clip-rule="evenodd" d="M12.043 1.80859L17.4307 2.78906C17.8983 2.87439 18.2784 3.21821 18.4092 3.67578L19.7325 8.31152L21.6807 9.13184C22.2426 9.36859 22.5517 9.97677 22.4122 10.5703L21.8379 13.0078L12.252 8.97168V5.25098H11.752V8.96875L2.15923 13.0078L1.58599 10.5703C1.4466 9.97696 1.75587 9.3687 2.31743 9.13184L4.26177 8.3125L5.58696 3.67578C5.71772 3.21853 6.09685 2.87447 6.5645 2.78906L11.9532 1.80859L11.9981 1.80078L12.043 1.80859ZM6.65435 3.28125C6.3738 3.33252 6.14594 3.53847 6.06743 3.8125L4.85161 8.06445L11.5137 5.25977C11.5909 5.22729 11.6711 5.20283 11.752 5.18652V2.35254L6.65435 3.28125ZM12.252 5.1875C12.331 5.20378 12.409 5.22805 12.4844 5.25977L19.1417 8.0625L17.9288 3.8125C17.8503 3.53857 17.6217 3.33255 17.3409 3.28125L12.252 2.35449V5.1875Z" fill="black"/>
</svg>
