<svg width="24" height="24" viewBox="0 0 24 24" fill="none" xmlns="http://www.w3.org/2000/svg">
<path d="M11.2519 23.2773C11.2229 23.2671 11.1928 23.2585 11.1641 23.2471L6.51562 21.3867C4.15666 20.4431 2.40461 18.4088 1.82226 15.9355L1.458 14.3916L1.9248 14.1904L1.92577 14.1914L11.2519 10.2637V23.2773Z" fill="black"/>
<path d="M22.0488 14.1816L22.5351 14.416L22.1777 15.9355C21.5956 18.4082 19.8439 20.4428 17.4853 21.3867L12.8359 23.2471C12.8087 23.258 12.7795 23.2656 12.7519 23.2754V10.2676L22.0488 14.1816Z" fill="black"/>
<path fill-rule="evenodd" clip-rule="evenodd" d="M17.5205 2.29688C18.1746 2.41631 18.7064 2.89716 18.8896 3.53809L19.9717 7.32617L22.0693 8.20996C23.0806 8.63626 23.638 9.73143 23.3867 10.7998L22.8867 12.9209L22.6875 12.8252L22.6699 12.8164L22.6523 12.8086L12.7519 8.63965V4.75098H11.2519V8.63672L1.34374 12.8086L1.33788 12.8115L1.10937 12.9092L0.613272 10.7998C0.361851 9.7311 0.918818 8.63604 1.93065 8.20996L4.02245 7.3291L5.10644 3.53809C5.28956 2.89778 5.81991 2.41635 6.4746 2.29688L11.8642 1.31641H12.1328L17.5205 2.29688ZM6.74315 3.77246C6.64979 3.78977 6.57393 3.85931 6.54784 3.9502L5.79491 6.58301L11.1269 4.33887L11.2519 4.29395V2.95215L6.74315 3.77246ZM12.7519 4.29395C12.7922 4.30825 12.8334 4.32218 12.873 4.33887L18.1992 6.58008L17.4482 3.9502C17.4224 3.85987 17.3458 3.79097 17.2519 3.77344L12.7519 2.9541V4.29395Z" fill="black"/>
</svg>
