<svg width="24" height="24" viewBox="0 0 24 24" fill="none" xmlns="http://www.w3.org/2000/svg">
<path d="M11.2522 22.7441L6.70044 20.9229C4.49287 20.0397 2.85278 18.1359 2.30786 15.8213L1.92407 14.1904L1.92603 14.1914L11.2522 10.2637V22.7441Z" fill="black"/>
<path d="M22.0491 14.1816L22.0735 14.1934L21.6907 15.8213C21.1458 18.1354 19.5064 20.0395 17.2991 20.9229L12.7522 22.7412V10.2676L22.0491 14.1816Z" fill="black"/>
<path d="M17.5198 2.29688C18.174 2.41619 18.7056 2.89715 18.8889 3.53809L20.1467 7.94336L21.8743 8.6709C22.6608 9.00241 23.094 9.85366 22.8987 10.6846L22.4211 12.7109L12.7522 8.63965V4.8291L18.3743 7.19629L17.4475 3.9502C17.4216 3.85986 17.3452 3.79085 17.2512 3.77344L12.7522 2.9541V4.75098H11.2522V2.95215L6.74243 3.77246C6.64913 3.78987 6.57313 3.8593 6.54712 3.9502L5.61743 7.19922L11.2522 4.82715V8.63672L1.57544 12.71L1.09986 10.6846C0.904497 9.85358 1.33762 9.00237 2.12427 8.6709L3.84497 7.94531L5.10572 3.53809C5.28876 2.89777 5.81925 2.41645 6.47388 2.29688L11.8635 1.31641H12.1321L17.5198 2.29688Z" fill="black"/>
</svg>
