<svg width="24" height="24" viewBox="0 0 24 24" fill="none" xmlns="http://www.w3.org/2000/svg">
<path fill-rule="evenodd" clip-rule="evenodd" d="M17.5203 2.29688C18.1744 2.41635 18.7063 2.89716 18.8894 3.53809L20.1473 7.94336L21.8738 8.6709C22.6608 9.00225 23.0936 9.85341 22.8982 10.6846L21.6902 15.8213C21.1454 18.1358 19.5064 20.0396 17.2986 20.9229L12.6492 22.7832C12.2319 22.9501 11.7657 22.9501 11.3484 22.7832L6.69999 20.9229C4.49217 20.0397 2.85227 18.1361 2.30741 15.8213L1.0994 10.6846C0.903996 9.85341 1.33687 9.00224 2.12382 8.6709L3.84647 7.94531L5.10624 3.53809C5.28932 2.89767 5.81963 2.41634 6.4744 2.29688L11.9978 1.29199L17.5203 2.29688ZM3.32597 13.5996L3.76835 15.4775C4.20114 17.3161 5.50274 18.8286 7.25663 19.5303L11.2498 21.1279V10.2646L3.32597 13.5996ZM12.7498 21.127L16.742 19.5303C18.4955 18.8286 19.7965 17.3161 20.2293 15.4775L20.6707 13.5996L12.7498 10.2656V21.127ZM2.70585 10.0537C2.59344 10.1011 2.53145 10.2231 2.55936 10.3418L2.97733 12.1191L11.2498 8.6377V6.45605L2.70585 10.0537ZM12.7498 8.63867L21.0193 12.1191L21.4383 10.3418C21.4662 10.2231 21.4042 10.1011 21.2918 10.0537L12.7498 6.45703V8.63867ZM6.74296 3.77246C6.6495 3.78976 6.57369 3.85921 6.54765 3.9502L5.61796 7.19922L11.2498 4.82812V2.95312L6.74296 3.77246ZM12.7498 4.8291L18.3748 7.19727L17.448 3.9502C17.4222 3.85987 17.3456 3.79101 17.2517 3.77344L12.7498 2.9541V4.8291Z" fill="black"/>
</svg>
