<svg width="24" height="24" viewBox="0 0 24 24" fill="none" xmlns="http://www.w3.org/2000/svg">
<path fill-rule="evenodd" clip-rule="evenodd" d="M6.60005 1.4502C6.04776 1.4502 5.60005 1.89791 5.60005 2.4502V10.5376C5.6 10.5416 5.59998 10.5457 5.59998 10.5498V18.6498C5.59998 19.2021 6.04769 19.6498 6.59998 19.6498H13.35C16.139 19.6498 18.4 17.3888 18.4 14.5998C18.4 12.6098 17.2489 10.8886 15.5763 10.0658C16.487 9.15231 17.05 7.89201 17.05 6.5002C17.05 3.71116 14.7891 1.4502 12 1.4502H6.60005ZM7.59998 11.5502H12C12.0212 11.5502 12.0424 11.5501 12.0635 11.5498H13.35C15.0344 11.5498 16.4 12.9153 16.4 14.5998C16.4 16.2843 15.0344 17.6498 13.35 17.6498H7.59998V11.5502ZM12.0494 9.5498C13.7111 9.52345 15.05 8.16819 15.05 6.5002C15.05 4.81573 13.6845 3.4502 12 3.4502H7.60005V9.5498H12.0494Z" fill="black"/>
</svg>
