<svg width="24" height="24" viewBox="0 0 24 24" fill="none" xmlns="http://www.w3.org/2000/svg">
<path fill-rule="evenodd" clip-rule="evenodd" d="M6.60005 2.2002C6.46198 2.2002 6.35005 2.31212 6.35005 2.4502V10.5437C6.35 10.5457 6.34998 10.5478 6.34998 10.5498V18.6498C6.34998 18.7879 6.4619 18.8998 6.59998 18.8998H13.35C15.7248 18.8998 17.65 16.9746 17.65 14.5998C17.65 12.4245 16.0347 10.6265 13.9381 10.3397C15.3394 9.63099 16.3 8.17778 16.3 6.5002C16.3 4.12537 14.3749 2.2002 12 2.2002H6.60005ZM6.84998 10.8002H12C12.0196 10.8002 12.0391 10.8001 12.0586 10.7998H13.35C15.4487 10.7998 17.15 12.5011 17.15 14.5998C17.15 16.6985 15.4487 18.3998 13.35 18.3998H6.84998V10.8002ZM12.0551 10.2998C14.1284 10.2703 15.8 8.58049 15.8 6.5002C15.8 4.40151 14.0987 2.7002 12 2.7002H6.85005V10.2998H12.0551Z" fill="black"/>
</svg>
