<svg width="24" height="24" viewBox="0 0 24 24" fill="none" xmlns="http://www.w3.org/2000/svg">
<path fill-rule="evenodd" clip-rule="evenodd" d="M6.60017 1.2002C5.90981 1.2002 5.35017 1.75984 5.35017 2.4502V10.5361C5.35012 10.5407 5.3501 10.5452 5.3501 10.5498V18.6498C5.3501 19.3402 5.90974 19.8998 6.6001 19.8998H13.3501C16.2772 19.8998 18.6501 17.5269 18.6501 14.5998C18.6501 12.6305 17.5761 10.9121 15.9818 9.99834C16.8025 9.06499 17.3002 7.84071 17.3002 6.5002C17.3002 3.57309 14.9273 1.2002 12.0002 1.2002H6.60017ZM7.8501 11.8002H12.0002C12.0219 11.8002 12.0436 11.8001 12.0652 11.7998H13.3501C14.8965 11.7998 16.1501 13.0534 16.1501 14.5998C16.1501 16.1462 14.8965 17.3998 13.3501 17.3998H7.8501V11.8002ZM12.0474 9.2998C13.572 9.27457 14.8002 8.0308 14.8002 6.5002C14.8002 4.9538 13.5466 3.7002 12.0002 3.7002H7.85017V9.2998H12.0474Z" fill="black"/>
</svg>
