<svg width="24" height="24" viewBox="0 0 24 24" fill="none" xmlns="http://www.w3.org/2000/svg">
<path fill-rule="evenodd" clip-rule="evenodd" d="M6.60005 1.9502C6.32391 1.9502 6.10005 2.17405 6.10005 2.4502V10.5412C6.1 10.544 6.09998 10.5469 6.09998 10.5498V18.6498C6.09998 18.9259 6.32383 19.1498 6.59998 19.1498H13.35C15.8629 19.1498 17.9 17.1127 17.9 14.5998C17.9 12.5245 16.5105 10.7737 14.6112 10.2269C15.7837 9.40383 16.55 8.04151 16.55 6.5002C16.55 3.9873 14.5129 1.9502 12 1.9502H6.60005ZM7.09998 11.0502H12C12.0202 11.0502 12.0403 11.0501 12.0603 11.0498H13.35C15.3106 11.0498 16.9 12.6392 16.9 14.5998C16.9 16.5604 15.3106 18.1498 13.35 18.1498H7.09998V11.0502ZM12.0533 10.0498C13.9893 10.0213 15.55 8.44303 15.55 6.5002C15.55 4.53958 13.9607 2.9502 12 2.9502H7.10005V10.0498H12.0533Z" fill="black"/>
</svg>
