<svg width="24" height="24" viewBox="0 0 24 24" fill="none" xmlns="http://www.w3.org/2000/svg">
<path fill-rule="evenodd" clip-rule="evenodd" d="M22.5337 5.4777C19.1417 4.18554 15.3943 4.18127 12 5.46492C8.60571 4.18127 4.85826 4.18554 1.46632 5.4777C1.18555 5.58466 1 5.85391 1 6.15436V19.6843C1 20.1869 1.50329 20.5337 1.9729 20.3548C5.04978 19.1827 8.45022 19.1827 11.5271 20.3548L11.822 20.4672C11.9757 20.5257 12.1483 20.5049 12.2837 20.4116C12.2905 20.4069 12.2972 20.4021 12.3037 20.3971C12.36 20.3901 12.4167 20.3762 12.4729 20.3548C15.5498 19.1827 18.9502 19.1827 22.0271 20.3548L22.322 20.4672C22.4757 20.5257 22.6483 20.5049 22.7837 20.4116C22.9191 20.3183 23 20.1644 23 19.9999V5.99993C23 5.79246 22.8719 5.60654 22.678 5.53268L22.5337 5.4777ZM12.5 19.2806C15.5755 18.2074 18.9245 18.2074 22 19.2806V6.34589C21.5069 6.16572 21.006 6.01452 20.5 5.89228L20.5 11.0529C20.5 11.188 20.5 11.3209 20.4906 11.4279C20.4821 11.5234 20.4599 11.72 20.3203 11.8835C20.1644 12.066 19.9305 12.1629 19.6912 12.1441C19.4768 12.1272 19.3221 12.0038 19.2486 11.9423C19.1663 11.8734 19.0723 11.7794 18.9768 11.6838L17.5 10.207L16.0232 11.6838C15.9277 11.7794 15.8337 11.8734 15.7514 11.9423C15.6779 12.0038 15.5232 12.1272 15.3088 12.1441C15.0695 12.1629 14.8356 12.066 14.6797 11.8835C14.5401 11.72 14.5179 11.5234 14.5094 11.4279C14.5 11.3209 14.5 11.1881 14.5 11.0529L14.5 5.78126C13.8236 5.91836 13.155 6.10657 12.5 6.34589V19.2806ZM15.5 5.61642V10.7928L16.8718 9.42103C16.9139 9.3789 16.9642 9.32858 17.0121 9.2879C17.0676 9.24075 17.1519 9.17798 17.2682 9.14018C17.4189 9.09124 17.5811 9.09124 17.7318 9.14018C17.8481 9.17798 17.9324 9.24075 17.9879 9.2879C18.0358 9.32859 18.0861 9.3789 18.1282 9.42103L19.5 10.7928V5.68943C18.1765 5.47141 16.8289 5.44708 15.5 5.61642ZM11.5 19.2806V6.34589C8.43261 5.2252 5.06739 5.2252 2 6.34589V19.2806C5.07552 18.2074 8.42448 18.2074 11.5 19.2806Z" fill="black"/>
</svg>
