<svg width="24" height="24" viewBox="0 0 24 24" fill="none" xmlns="http://www.w3.org/2000/svg">
<path fill-rule="evenodd" clip-rule="evenodd" d="M12.0553 5.71133C12.0378 5.71799 12.0209 5.72562 12.0046 5.73414L11.9447 5.71133C8.59884 4.43672 4.90116 4.43672 1.55532 5.71133C1.37148 5.78136 1.25 5.95764 1.25 6.15436V19.6843C1.25 20.0118 1.57792 20.2378 1.88391 20.1212C5.01811 18.9272 8.48189 18.9272 11.6161 20.1212L11.911 20.2335C11.9878 20.2628 12.0742 20.2524 12.1419 20.2058C12.1637 20.1907 12.1828 20.1725 12.1985 20.1519C12.2593 20.1543 12.322 20.1448 12.3839 20.1212C15.5181 18.9272 18.9819 18.9272 22.1161 20.1212L22.411 20.2335C22.4878 20.2628 22.5742 20.2524 22.6419 20.2058C22.7096 20.1591 22.75 20.0822 22.75 19.9999V5.99993C22.75 5.89619 22.6859 5.80323 22.589 5.7663L22.4447 5.71133C19.0988 4.43672 15.4012 4.43672 12.0553 5.71133ZM12.25 19.6372C15.4725 18.4219 19.0275 18.4219 22.25 19.6372V6.17223C21.5953 5.92378 20.9268 5.72583 20.25 5.57837V11.0456C20.25 11.1873 20.25 11.3102 20.2415 11.4058C20.2336 11.4958 20.215 11.6218 20.1302 11.7211C20.0263 11.8428 19.8703 11.9074 19.7108 11.8948C19.5806 11.8846 19.4784 11.8086 19.4091 11.7506C19.3355 11.689 19.2486 11.6021 19.1484 11.5019L17.6061 9.95954C17.5536 9.90712 17.5248 9.87858 17.5025 9.85965L17.5 9.85752L17.4975 9.85965C17.4752 9.87858 17.4464 9.90712 17.3939 9.95954L15.8516 11.5019C15.7514 11.6021 15.6645 11.689 15.5909 11.7506C15.5216 11.8086 15.4194 11.8846 15.2892 11.8948C15.1297 11.9074 14.9737 11.8428 14.8698 11.7211C14.785 11.6218 14.7664 11.4958 14.7585 11.4058C14.75 11.3102 14.75 11.1873 14.75 11.0457V5.47887C13.9024 5.63165 13.0654 5.86277 12.25 6.17223V19.6372ZM15.25 5.39799V11.0342C15.25 11.1906 15.2502 11.2909 15.2565 11.3617L15.258 11.377L15.2699 11.3673C15.3244 11.3216 15.3955 11.2509 15.5061 11.1403L17.046 9.60036C17.0906 9.55575 17.1341 9.51227 17.1739 9.47848C17.2176 9.44137 17.2731 9.40148 17.3455 9.37795C17.4459 9.34532 17.5541 9.34532 17.6545 9.37795C17.7269 9.40148 17.7824 9.44137 17.8261 9.47848C17.8659 9.51227 17.9094 9.55572 17.954 9.60033L19.4939 11.1403C19.6045 11.2509 19.6756 11.3216 19.7301 11.3673L19.742 11.377L19.7435 11.3617C19.7498 11.2909 19.75 11.1906 19.75 11.0342V5.47886C18.2631 5.21085 16.7435 5.18389 15.25 5.39799ZM11.75 19.6372V6.17223C8.52876 4.94975 4.97124 4.94975 1.75 6.17223V19.6372C4.97252 18.4219 8.52748 18.4219 11.75 19.6372Z" fill="black"/>
</svg>
