<svg width="24" height="24" viewBox="0 0 24 24" fill="none" xmlns="http://www.w3.org/2000/svg">
<path fill-rule="evenodd" clip-rule="evenodd" d="M5.22483 0.500002C5.23664 0.500002 5.24848 0.500003 5.26035 0.500003L18.7752 0.500002C19.1403 0.499978 19.4722 0.499956 19.749 0.522571C20.0464 0.546871 20.3671 0.602184 20.6826 0.762974C21.1366 0.994289 21.5057 1.36339 21.737 1.81737C21.8978 2.13294 21.9531 2.45364 21.9774 2.75105C22 3.02783 22 3.35972 22 3.72481V19.4134C22 20.116 22 20.7114 21.9577 21.1769C21.916 21.6357 21.8214 22.1691 21.4781 22.6022C21.0242 23.175 20.335 23.5111 19.6042 23.5162C19.0515 23.5201 18.573 23.2662 18.1857 23.0167C17.7928 22.7635 17.3237 22.3969 16.7701 21.9644L12.7759 18.8439C12.5159 18.6408 12.3621 18.5214 12.2403 18.4397C12.1513 18.38 12.1151 18.3655 12.1082 18.3632C12.1065 18.3626 12.1066 18.3627 12.1082 18.3632C12.0374 18.3439 11.9626 18.344 11.8918 18.3632C11.8934 18.3628 11.8935 18.3626 11.8918 18.3632C11.8849 18.3655 11.8487 18.38 11.7597 18.4397C11.6379 18.5214 11.4841 18.6408 11.2241 18.8439L7.23001 21.9643C6.67638 22.3969 6.20718 22.7634 5.81428 23.0167C5.42705 23.2662 4.94848 23.5201 4.39584 23.5162C3.66499 23.5111 2.97585 23.175 2.52188 22.6022C2.17861 22.1691 2.08405 21.6357 2.04231 21.1769C1.99996 20.7114 1.99998 20.116 2 19.4135L2 3.76035C2 3.74848 2 3.73664 2 3.72483C1.99998 3.35973 1.99996 3.02784 2.02257 2.75105C2.04687 2.45364 2.10218 2.13294 2.26297 1.81737C2.49429 1.36339 2.86339 0.994289 3.31737 0.762974C3.63294 0.602184 3.95364 0.546871 4.25105 0.522571C4.52784 0.499956 4.85973 0.499978 5.22483 0.500002ZM4.22452 2.5454C4.23466 2.54159 4.28303 2.52662 4.41391 2.51593C4.59932 2.50078 4.84825 2.5 5.26035 2.5H18.7397C19.1518 2.5 19.4007 2.50078 19.5861 2.51593C19.717 2.52662 19.7653 2.54156 19.7754 2.54537C19.8525 2.58483 19.9152 2.64754 19.9546 2.7246C19.9585 2.73482 19.9734 2.78318 19.9841 2.91391C19.9992 3.09932 20 3.34825 20 3.76035V19.3657C20 20.1289 19.999 20.632 19.9659 20.9957C19.9422 21.2564 19.9074 21.3532 19.8999 21.373C19.8261 21.4587 19.7201 21.5104 19.6071 21.5158C19.5869 21.5095 19.4892 21.4773 19.2691 21.3355C18.9622 21.1377 18.5652 20.8288 17.9637 20.3589L14.0072 17.2679C13.9744 17.2422 13.9414 17.2164 13.9084 17.1904C13.5153 16.8815 13.1095 16.5627 12.6326 16.4332C12.2184 16.3206 11.7816 16.3206 11.3674 16.4332C10.8905 16.5627 10.4847 16.8815 10.0916 17.1904C10.0586 17.2163 10.0257 17.2422 9.99279 17.2679L6.03628 20.3589C5.43485 20.8288 5.03781 21.1377 4.73086 21.3355C4.51081 21.4773 4.41315 21.5095 4.39291 21.5158C4.27986 21.5104 4.17394 21.4587 4.10006 21.373C4.09258 21.3532 4.05781 21.2564 4.03409 20.9957C4.001 20.632 4 20.1289 4 19.3657V3.76035C4 3.34825 4.00078 3.09932 4.01593 2.91391C4.02662 2.78303 4.04156 2.73475 4.04537 2.7246C4.08483 2.64754 4.14746 2.58486 4.22452 2.5454Z" fill="black"/>
</svg>
