<svg width="24" height="24" viewBox="0 0 24 24" fill="none" xmlns="http://www.w3.org/2000/svg">
<path d="M18.9215 10.6767C17.6434 10.4737 16.3438 10.4511 15.0609 10.6088C14.7868 10.6425 14.5373 10.4476 14.5036 10.1735C14.4699 9.89944 14.6648 9.64994 14.9389 9.61625C16.3144 9.44717 17.708 9.47146 19.0783 9.68912C19.351 9.73244 19.537 9.98864 19.4937 10.2614C19.4504 10.5341 19.1942 10.7201 18.9215 10.6767Z" fill="black"/>
<path d="M18.9215 13.6713C17.6434 13.4683 16.3438 13.4456 15.0609 13.6033C14.7868 13.637 14.5373 13.4421 14.5036 13.1681C14.4699 12.894 14.6648 12.6445 14.9389 12.6108C16.3144 12.4417 17.708 12.466 19.0783 12.6837C19.351 12.727 19.537 12.9832 19.4937 13.2559C19.4504 13.5286 19.1942 13.7146 18.9215 13.6713Z" fill="black"/>
<path d="M8.92146 10.6767C7.64343 10.4737 6.34375 10.4511 5.06089 10.6088C4.78681 10.6425 4.53731 10.4476 4.50362 10.1735C4.46994 9.89944 4.66481 9.64994 4.93889 9.61625C6.31442 9.44717 7.70797 9.47146 9.07832 9.68912C9.35105 9.73244 9.53702 9.98864 9.4937 10.2614C9.45038 10.5341 9.19418 10.7201 8.92146 10.6767Z" fill="black"/>
<path d="M5.06089 13.6033C6.34375 13.4456 7.64343 13.4683 8.92146 13.6713C9.19418 13.7146 9.45038 13.5286 9.4937 13.2559C9.53702 12.9832 9.35105 12.727 9.07832 12.6837C7.70797 12.466 6.31442 12.4417 4.93889 12.6108C4.66481 12.6445 4.46994 12.894 4.50362 13.1681C4.53731 13.4421 4.78681 13.637 5.06089 13.6033Z" fill="black"/>
<path fill-rule="evenodd" clip-rule="evenodd" d="M22.5337 5.4777C19.1417 4.18554 15.3943 4.18127 12 5.46492C8.60571 4.18127 4.85826 4.18554 1.46632 5.4777C1.18555 5.58466 1 5.85391 1 6.15436V19.6843C1 20.1869 1.50329 20.5337 1.9729 20.3548C5.04978 19.1827 8.45022 19.1827 11.5271 20.3548L11.822 20.4672C11.9757 20.5257 12.1483 20.5049 12.2837 20.4116C12.2905 20.4069 12.2972 20.4021 12.3037 20.3971C12.36 20.3901 12.4167 20.3762 12.4729 20.3548C15.5498 19.1827 18.9502 19.1827 22.0271 20.3548L22.322 20.4672C22.4757 20.5257 22.6483 20.5049 22.7837 20.4116C22.9191 20.3183 23 20.1644 23 19.9999V5.99993C23 5.79246 22.8719 5.60654 22.678 5.53268L22.5337 5.4777ZM12.5 19.2806C15.5755 18.2074 18.9245 18.2074 22 19.2806V6.34589C18.9326 5.2252 15.5674 5.2252 12.5 6.34589V19.2806ZM11.5 19.2806V6.34589C8.43261 5.2252 5.06739 5.2252 2 6.34589V19.2806C5.07552 18.2074 8.42448 18.2074 11.5 19.2806Z" fill="black"/>
</svg>
