<svg width="24" height="24" viewBox="0 0 24 24" fill="none" xmlns="http://www.w3.org/2000/svg">
<path fill-rule="evenodd" clip-rule="evenodd" d="M13 4.34574C16.2164 3.43446 19.6541 3.57815 22.8007 4.77684L22.945 4.83182C23.4297 5.01646 23.75 5.48125 23.75 5.99993V19.9999C23.75 20.4111 23.5478 20.7959 23.2093 21.0292C22.8708 21.2625 22.4392 21.3144 22.055 21.168L21.7601 21.0557C18.9416 19.982 15.8356 19.95 13 20.9598V4.34574ZM16.0915 10.8569C17.3512 10.7021 18.6274 10.7243 19.8824 10.9236C20.2914 10.9886 20.6757 10.7097 20.7407 10.3006C20.8057 9.89149 20.5267 9.50719 20.1176 9.44221C18.7242 9.22089 17.3072 9.19619 15.9085 9.36812C15.4974 9.41865 15.2051 9.7929 15.2556 10.204C15.3061 10.6151 15.6804 10.9074 16.0915 10.8569ZM16.0915 13.8515C17.3512 13.6967 18.6274 13.7189 19.8824 13.9183C20.2914 13.9832 20.6757 13.7043 20.7407 13.2952C20.8057 12.8861 20.5267 12.5018 20.1176 12.4368C18.7242 12.2155 17.3072 12.1908 15.9085 12.3627C15.4974 12.4133 15.2051 12.7875 15.2556 13.1986C15.3061 13.6098 15.6804 13.9021 16.0915 13.8515Z" fill="black"/>
<path fill-rule="evenodd" clip-rule="evenodd" d="M11 4.34574V20.9598C8.16441 19.95 5.05837 19.982 2.2399 21.0557C1.27938 21.4216 0.25 20.7122 0.25 19.6843V6.15436C0.25 5.5427 0.627731 4.99459 1.19932 4.77684C4.34587 3.57815 7.78363 3.43446 11 4.34574ZM4.09161 10.8569C5.35131 10.7021 6.62752 10.7243 7.88246 10.9236C8.29154 10.9886 8.67585 10.7097 8.74082 10.3006C8.8058 9.89149 8.52684 9.50719 8.11776 9.44221C6.72432 9.22089 5.3073 9.19619 3.90861 9.36812C3.49749 9.41865 3.20518 9.7929 3.25571 10.204C3.30625 10.6151 3.68049 10.9074 4.09161 10.8569ZM7.88246 13.9183C6.62752 13.7189 5.35131 13.6967 4.09161 13.8515C3.68049 13.9021 3.30625 13.6098 3.25571 13.1986C3.20518 12.7875 3.49749 12.4133 3.90861 12.3627C5.3073 12.1908 6.72432 12.2155 8.11776 12.4368C8.52684 12.5018 8.8058 12.8861 8.74082 13.2952C8.67585 13.7043 8.29154 13.9832 7.88246 13.9183Z" fill="black"/>
</svg>
