<svg width="24" height="24" viewBox="0 0 24 24" fill="none" xmlns="http://www.w3.org/2000/svg">
<path fill-rule="evenodd" clip-rule="evenodd" d="M12.5 5.28599C15.7596 4.18477 19.3075 4.24867 22.5337 5.4777L22.678 5.53268C22.8719 5.60654 23 5.79246 23 5.99993V19.9999C23 20.1644 22.9191 20.3183 22.7837 20.4116C22.6483 20.5049 22.4757 20.5257 22.322 20.4672L22.0271 20.3548C18.9592 19.1861 15.5697 19.1827 12.5 20.3446V5.28599ZM15.0609 10.6088C16.3438 10.4511 17.6434 10.4737 18.9215 10.6767C19.1942 10.7201 19.4504 10.5341 19.4937 10.2614C19.537 9.98864 19.351 9.73244 19.0783 9.68912C17.708 9.47146 16.3144 9.44717 14.9389 9.61625C14.6648 9.64994 14.4699 9.89944 14.5036 10.1735C14.5373 10.4476 14.7868 10.6425 15.0609 10.6088ZM15.0609 13.6033C16.3438 13.4456 17.6434 13.4683 18.9215 13.6713C19.1942 13.7146 19.4504 13.5286 19.4937 13.2559C19.537 12.9832 19.351 12.727 19.0783 12.6837C17.708 12.466 16.3144 12.4417 14.9389 12.6108C14.6648 12.6445 14.4699 12.894 14.5036 13.1681C14.5373 13.4421 14.7868 13.637 15.0609 13.6033Z" fill="black"/>
<path fill-rule="evenodd" clip-rule="evenodd" d="M11.5 20.3445C8.43023 19.1827 5.04074 19.1861 1.9729 20.3548C1.50329 20.5337 1 20.1869 1 19.6843V6.15436C1 5.85391 1.18555 5.58466 1.46632 5.4777C4.69251 4.24868 8.24032 4.18477 11.5 5.28597V20.3445ZM5.06089 10.6088C6.34375 10.4511 7.64343 10.4737 8.92146 10.6767C9.19418 10.7201 9.45038 10.5341 9.4937 10.2614C9.53702 9.98864 9.35105 9.73244 9.07832 9.68912C7.70796 9.47146 6.31442 9.44717 4.93889 9.61625C4.66481 9.64994 4.46994 9.89944 4.50362 10.1735C4.53731 10.4476 4.78681 10.6425 5.06089 10.6088ZM8.92146 13.6713C7.64343 13.4683 6.34375 13.4456 5.06089 13.6033C4.78681 13.637 4.53731 13.4421 4.50362 13.1681C4.46994 12.894 4.66481 12.6445 4.93889 12.6108C6.31442 12.4417 7.70796 12.466 9.07832 12.6837C9.35105 12.727 9.53702 12.9832 9.4937 13.2559C9.45038 13.5286 9.19418 13.7146 8.92146 13.6713Z" fill="black"/>
</svg>
