<svg width="24" height="24" viewBox="0 0 24 24" fill="none" xmlns="http://www.w3.org/2000/svg">
<path fill-rule="evenodd" clip-rule="evenodd" d="M5.23988 1H18.7601C19.1383 0.999994 19.4522 0.999988 19.7082 1.02091C19.9747 1.04268 20.2223 1.08959 20.4556 1.20847C20.8155 1.39185 21.1081 1.68446 21.2915 2.04436C21.4104 2.2777 21.4573 2.52527 21.4791 2.79176C21.5 3.04781 21.5 3.36169 21.5 3.73987V19.392C21.5 20.113 21.5 20.689 21.4597 21.1316C21.4198 21.5709 21.3343 21.9787 21.0863 22.2917C20.7264 22.7457 20.1801 23.0122 19.6007 23.0163C19.2014 23.019 18.8274 22.8353 18.4566 22.5964C18.083 22.3556 17.6291 22.001 17.0608 21.557L13.0838 18.4499C12.5496 18.0326 12.3931 17.9225 12.2393 17.8807C12.0826 17.8381 11.9174 17.8381 11.7607 17.8807C11.6069 17.9225 11.4504 18.0326 10.9163 18.4499L6.93903 21.5571C6.37087 22.001 5.91695 22.3556 5.54343 22.5964C5.17263 22.8353 4.79864 23.019 4.39934 23.0163C3.81994 23.0122 3.27362 22.7457 2.91373 22.2917C2.6657 21.9787 2.58022 21.5709 2.54025 21.1316C2.49999 20.689 2.49999 20.113 2.5 19.392L2.5 3.73988C2.49999 3.36169 2.49999 3.04781 2.52091 2.79176C2.54268 2.52527 2.58959 2.2777 2.70847 2.04436C2.89185 1.68446 3.18446 1.39185 3.54436 1.20847C3.7777 1.08959 4.02527 1.04268 4.29176 1.02091C4.54781 0.999988 4.86169 0.999994 5.23988 1ZM4.3732 2.01759C4.16854 2.03431 4.06722 2.06439 3.99835 2.09948C3.82661 2.18699 3.68699 2.32661 3.59948 2.49835C3.56439 2.56722 3.53431 2.66854 3.51759 2.8732C3.50039 3.08369 3.5 3.3565 3.5 3.76035V19.3657C3.5 20.119 3.5005 20.6492 3.53614 21.041C3.57257 21.4413 3.63988 21.5979 3.69742 21.6705C3.86916 21.8872 4.12986 22.0143 4.40633 22.0163C4.49897 22.0169 4.66381 21.9736 5.00172 21.7558C5.33237 21.5427 5.75053 21.2167 6.3441 20.7529L10.3006 17.6619C10.3256 17.6423 10.3503 17.623 10.3747 17.604C10.7987 17.2721 11.1241 17.0174 11.4985 16.9157C11.8269 16.8265 12.1731 16.8265 12.5015 16.9157C12.8759 17.0174 13.2013 17.2721 13.6253 17.604C13.6497 17.623 13.6744 17.6423 13.6994 17.6619L17.6559 20.7529C18.2495 21.2167 18.6676 21.5427 18.9983 21.7558C19.3362 21.9736 19.501 22.0169 19.5937 22.0163C19.8701 22.0143 20.1308 21.8872 20.3026 21.6705C20.3601 21.5979 20.4274 21.4413 20.4639 21.041C20.4995 20.6492 20.5 20.119 20.5 19.3657V3.76035C20.5 3.3565 20.4996 3.08369 20.4824 2.8732C20.4657 2.66854 20.4356 2.56722 20.4005 2.49835C20.313 2.32661 20.1734 2.18699 20.0016 2.09948C19.9328 2.06439 19.8315 2.03431 19.6268 2.01759C19.4163 2.00039 19.1435 2 18.7397 2H5.26035C4.8565 2 4.58369 2.00039 4.3732 2.01759Z" fill="black"/>
</svg>
