<svg width="24" height="24" viewBox="0 0 24 24" fill="none" xmlns="http://www.w3.org/2000/svg">
<path fill-rule="evenodd" clip-rule="evenodd" d="M22.7117 5.01046C19.2643 3.69717 15.4616 3.67088 12 4.9316C8.53838 3.67088 4.73572 3.69717 1.28832 5.01046C0.813669 5.19128 0.5 5.64644 0.5 6.15436V19.6843C0.5 20.5371 1.35402 21.1256 2.1509 20.8221C5.11313 19.6936 8.38687 19.6936 11.3491 20.8221L11.644 20.9344C11.9231 21.0407 12.2335 21.0163 12.491 20.8711C12.5444 20.8586 12.5978 20.8423 12.6509 20.8221C15.6131 19.6936 18.8869 19.6936 21.8491 20.8221L22.144 20.9344C22.4514 21.0515 22.7966 21.01 23.0675 20.8233C23.3383 20.6367 23.5 20.3288 23.5 19.9999V5.99993C23.5 5.58499 23.2438 5.21315 22.856 5.06544L22.7117 5.01046ZM13 18.5939C15.773 17.7697 18.727 17.7697 21.5 18.5939V6.70037C21.2517 6.61693 21.0016 6.54101 20.75 6.4726L20.75 11.0576C20.75 11.1881 20.7501 11.3315 20.7396 11.45C20.7306 11.5509 20.7049 11.8181 20.5104 12.0458C20.3025 12.2892 19.9907 12.4184 19.6715 12.3933C19.373 12.3698 19.1658 12.1991 19.0882 12.134C18.997 12.0577 18.8956 11.9563 18.8033 11.8639L17.5 10.5606L16.1967 11.8639C16.1044 11.9563 16.003 12.0577 15.9118 12.134C15.8342 12.1991 15.627 12.3698 15.3285 12.3933C15.0093 12.4184 14.6975 12.2892 14.4896 12.0458C14.2951 11.8181 14.2694 11.5509 14.2604 11.45C14.2499 11.3315 14.25 11.1881 14.25 11.0576L14.25 6.34699C13.8293 6.44409 13.4121 6.56188 13 6.70037V18.5939ZM15.75 6.08994V10.1893L16.6962 9.24308C16.7367 9.20248 16.7941 9.14501 16.8503 9.09731C16.9177 9.04013 17.0308 8.95447 17.191 8.90242C17.3918 8.83716 17.6082 8.83716 17.809 8.90242C17.9692 8.95447 18.0823 9.04013 18.1497 9.09731C18.2059 9.14502 18.2633 9.20249 18.3038 9.24309L19.25 10.1893V6.1561C18.0907 5.98035 16.9137 5.95829 15.75 6.08994ZM11 18.5939V6.70037C8.2427 5.77371 5.2573 5.77371 2.5 6.70037V18.5939C5.27303 17.7697 8.22698 17.7697 11 18.5939Z" fill="black"/>
</svg>
