<svg width="24" height="24" viewBox="0 0 24 24" fill="none" xmlns="http://www.w3.org/2000/svg">
<path d="M18.8822 10.9236C17.6273 10.7243 16.3511 10.7021 15.0914 10.8569C14.6803 10.9074 14.306 10.6151 14.2555 10.204C14.205 9.79289 14.4973 9.41865 14.9084 9.36812C16.3071 9.19619 17.7241 9.22089 19.1175 9.44221C19.5266 9.50719 19.8056 9.89149 19.7406 10.3006C19.6756 10.7097 19.2913 10.9886 18.8822 10.9236Z" fill="black"/>
<path d="M18.8822 13.9182C17.6273 13.7189 16.3511 13.6966 15.0914 13.8515C14.6803 13.902 14.306 13.6097 14.2555 13.1986C14.205 12.7874 14.4973 12.4132 14.9084 12.3627C16.3071 12.1907 17.7241 12.2154 19.1175 12.4368C19.5266 12.5017 19.8056 12.886 19.7406 13.2951C19.6756 13.7042 19.2913 13.9832 18.8822 13.9182Z" fill="black"/>
<path d="M8.88224 10.9236C7.6273 10.7243 6.35109 10.7021 5.09139 10.8569C4.68027 10.9074 4.30602 10.6151 4.25549 10.204C4.20496 9.79289 4.49727 9.41865 4.90839 9.36812C6.30708 9.19619 7.7241 9.22089 9.11754 9.44221C9.52662 9.50719 9.80558 9.89149 9.7406 10.3006C9.67563 10.7097 9.29132 10.9886 8.88224 10.9236Z" fill="black"/>
<path d="M5.09139 13.8515C6.35109 13.6966 7.6273 13.7189 8.88224 13.9182C9.29132 13.9832 9.67563 13.7042 9.7406 13.2951C9.80558 12.886 9.52662 12.5017 9.11754 12.4368C7.7241 12.2154 6.30708 12.1907 4.90839 12.3627C4.49727 12.4132 4.20496 12.7874 4.25549 13.1986C4.30602 13.6097 4.68027 13.902 5.09139 13.8515Z" fill="black"/>
<path fill-rule="evenodd" clip-rule="evenodd" d="M22.6227 5.24408C19.203 3.94136 15.428 3.92598 12 5.19796C8.57197 3.92598 4.79697 3.94136 1.37732 5.24408C0.999609 5.38797 0.75 5.75017 0.75 6.15436V19.6843C0.75 20.362 1.42865 20.8297 2.0619 20.5884C5.08146 19.4381 8.41854 19.4381 11.4381 20.5884L11.733 20.7008C11.9535 20.7848 12.2 20.7599 12.3988 20.6351C12.4532 20.6245 12.5077 20.6091 12.5619 20.5884C15.5815 19.4381 18.9185 19.4381 21.9381 20.5884L22.233 20.7008C22.4635 20.7886 22.7225 20.7575 22.9256 20.6175C23.1287 20.4775 23.25 20.2466 23.25 19.9999V5.99993C23.25 5.68872 23.0578 5.40985 22.767 5.29906L22.6227 5.24408ZM12.75 18.933C15.6756 17.99 18.8244 17.99 21.75 18.933V6.52191C18.8373 5.49986 15.6627 5.49986 12.75 6.52191V18.933ZM11.25 18.933V6.52191C8.33725 5.49986 5.16275 5.49986 2.25 6.52191V18.933C5.17556 17.99 8.32444 17.99 11.25 18.933Z" fill="black"/>
</svg>
