<svg width="24" height="24" viewBox="0 0 24 24" fill="none" xmlns="http://www.w3.org/2000/svg">
<path fill-rule="evenodd" clip-rule="evenodd" d="M12 4.9316C15.4616 3.67088 19.2643 3.69717 22.7117 5.01046L22.856 5.06544C23.2438 5.21315 23.5 5.58499 23.5 5.99993V19.9999C23.5 20.3288 23.3383 20.6367 23.0675 20.8233C22.7966 21.01 22.4514 21.0515 22.144 20.9344L21.8491 20.8221C18.8869 19.6936 15.6131 19.6936 12.6509 20.8221C12.5978 20.8423 12.5444 20.8586 12.491 20.8711C12.2335 21.0163 11.9231 21.0407 11.644 20.9344L11.3491 20.8221C8.38687 19.6936 5.11313 19.6936 2.1509 20.8221C1.35402 21.1256 0.5 20.5371 0.5 19.6843V6.15436C0.5 5.64644 0.813669 5.19128 1.28832 5.01046C4.73572 3.69717 8.53838 3.67088 12 4.9316ZM21.5 18.5939C18.727 17.7697 15.773 17.7697 13 18.5939V6.70037C15.7573 5.77371 18.7427 5.77371 21.5 6.70037V18.5939ZM11 6.70037V18.5939C8.22698 17.7697 5.27303 17.7697 2.5 18.5939V6.70037C5.2573 5.77371 8.2427 5.77371 11 6.70037Z" fill="black"/>
</svg>
