<svg width="24" height="24" viewBox="0 0 24 24" fill="none" xmlns="http://www.w3.org/2000/svg">
<path fill-rule="evenodd" clip-rule="evenodd" d="M5.2318 0.750001H18.7682C19.1394 0.749987 19.4622 0.749974 19.7286 0.771739C20.0106 0.794776 20.2947 0.845885 20.5691 0.985724C20.9761 1.19307 21.3069 1.52392 21.5143 1.93087C21.6541 2.20532 21.7052 2.48945 21.7283 2.77141C21.75 3.03779 21.75 3.36059 21.75 3.73178V19.4033C21.75 20.1146 21.75 20.7002 21.7087 21.1542C21.6679 21.6033 21.5779 22.0739 21.2822 22.4469C20.8753 22.9604 20.2575 23.2617 19.6024 23.2662C19.1264 23.2696 18.7002 23.0508 18.3211 22.8065C17.938 22.5596 17.4765 22.199 16.9159 21.7611L12.9298 18.6469C12.3774 18.2153 12.267 18.1473 12.1738 18.122C12.06 18.091 11.94 18.091 11.8263 18.122C11.733 18.1473 11.6226 18.2153 11.0702 18.6469L7.08406 21.7611C6.52351 22.199 6.06203 22.5596 5.67885 22.8065C5.29984 23.0508 4.87356 23.2696 4.39759 23.2662C3.74247 23.2617 3.12474 22.9604 2.7178 22.4469C2.42215 22.0739 2.33214 21.6033 2.29128 21.1542C2.24998 20.7002 2.24999 20.1146 2.25 19.4032L2.25 3.7318C2.24999 3.36059 2.24997 3.0378 2.27174 2.77141C2.29478 2.48945 2.34588 2.20532 2.48572 1.93087C2.69307 1.52392 3.02392 1.19307 3.43087 0.985724C3.70532 0.845885 3.98945 0.794776 4.27141 0.771739C4.5378 0.749974 4.86059 0.749987 5.2318 0.750001ZM4.39355 2.26676C4.20436 2.28222 4.1396 2.3081 4.11185 2.32223C3.98715 2.38577 3.88577 2.48715 3.82223 2.61185C3.8081 2.6396 3.78222 2.70436 3.76676 2.89355C3.75058 3.0915 3.75 3.35238 3.75 3.76035V19.3657C3.75 20.124 3.75075 20.6406 3.78511 21.0183C3.82065 21.4089 3.88343 21.5027 3.89335 21.5152C4.01804 21.6726 4.20734 21.7649 4.40808 21.7663C4.42406 21.7664 4.5366 21.7581 4.86629 21.5457C5.18509 21.3402 5.59269 21.0227 6.19019 20.5559L10.1467 17.4649C10.1768 17.4414 10.2067 17.418 10.2363 17.3947C10.6423 17.0764 11.0076 16.79 11.433 16.6744C11.8043 16.5736 12.1957 16.5736 12.567 16.6744C12.9924 16.79 13.3577 17.0764 13.7637 17.3947C13.7933 17.418 13.8232 17.4414 13.8533 17.4649L17.8098 20.5559C18.4073 21.0227 18.8149 21.3402 19.1337 21.5457C19.4634 21.7581 19.5759 21.7664 19.5919 21.7663C19.7927 21.7649 19.982 21.6726 20.1067 21.5152C20.1166 21.5027 20.1794 21.4089 20.2149 21.0183C20.2493 20.6406 20.25 20.124 20.25 19.3657V3.76035C20.25 3.35238 20.2494 3.0915 20.2332 2.89355C20.2178 2.70436 20.1919 2.6396 20.1778 2.61185C20.1142 2.48715 20.0128 2.38577 19.8882 2.32223C19.8604 2.3081 19.7956 2.28222 19.6064 2.26676C19.4085 2.25058 19.1476 2.25 18.7397 2.25H5.26035C4.85238 2.25 4.5915 2.25058 4.39355 2.26676Z" fill="black"/>
</svg>
