<svg width="24" height="24" viewBox="0 0 24 24" fill="none" xmlns="http://www.w3.org/2000/svg">
<path fill-rule="evenodd" clip-rule="evenodd" d="M5.2493 1.25H18.7507C19.1369 1.25 19.4421 1.25 19.6879 1.27008C19.9389 1.29059 20.1499 1.33329 20.3421 1.43123C20.655 1.59064 20.9094 1.845 21.0688 2.15786C21.1667 2.35008 21.2094 2.56109 21.2299 2.81212C21.25 3.0579 21.25 3.36306 21.25 3.74929V19.3796C21.25 20.1112 21.25 20.6778 21.2108 21.1089C21.1717 21.5385 21.0908 21.8835 20.8904 22.1364C20.5775 22.5311 20.1026 22.7627 19.5989 22.7663C19.2763 22.7685 18.9546 22.6199 18.592 22.3862C18.2281 22.1517 17.7815 21.8028 17.205 21.3524L13.2377 18.2529C12.7218 17.8499 12.5192 17.6977 12.3048 17.6394C12.1052 17.5852 11.8948 17.5852 11.6952 17.6394C11.4808 17.6977 11.2782 17.8499 10.7623 18.2529L6.79488 21.3525C6.2184 21.8029 5.7719 22.1517 5.408 22.3862C5.04543 22.6199 4.72372 22.7685 4.40108 22.7663C3.89742 22.7627 3.4225 22.5311 3.10965 22.1364C2.90924 21.8835 2.82831 21.5385 2.78923 21.1089C2.75 20.6778 2.75 20.1111 2.75 19.3795L2.75 3.7493C2.75 3.36306 2.75 3.0579 2.77008 2.81212C2.79059 2.56109 2.83329 2.35008 2.93123 2.15786C3.09064 1.845 3.345 1.59064 3.65786 1.43123C3.85008 1.33329 4.06109 1.29059 4.31212 1.27008C4.5579 1.25 4.86306 1.25 5.2493 1.25ZM4.35284 1.76842C4.13272 1.7864 3.99484 1.82069 3.88486 1.87673C3.66608 1.9882 3.4882 2.16608 3.37673 2.38486C3.32069 2.49484 3.2864 2.63272 3.26842 2.85284C3.25019 3.07587 3.25 3.36063 3.25 3.76035V19.3657C3.25 20.114 3.25025 20.6578 3.28717 21.0636C3.32448 21.4737 3.39633 21.6931 3.5015 21.8258C3.72027 22.1018 4.05238 22.2638 4.40458 22.2663C4.57389 22.2675 4.79101 22.189 5.13714 21.9659C5.47964 21.7452 5.90837 21.4106 6.49801 20.9499L10.4545 17.8589C10.4706 17.8464 10.4864 17.834 10.5021 17.8217C10.9536 17.4688 11.2399 17.245 11.5641 17.1569C11.8495 17.0794 12.1505 17.0794 12.4359 17.1569C12.7601 17.245 13.0464 17.4688 13.4979 17.8217C13.5136 17.834 13.5294 17.8464 13.5455 17.8589L17.502 20.9499C18.0916 21.4106 18.5204 21.7452 18.8629 21.9659C19.209 22.189 19.4261 22.2675 19.5954 22.2663C19.9476 22.2638 20.2797 22.1018 20.4985 21.8258C20.6037 21.6931 20.6755 21.4737 20.7128 21.0636C20.7498 20.6578 20.75 20.114 20.75 19.3657V3.76035C20.75 3.36063 20.7498 3.07587 20.7316 2.85284C20.7136 2.63272 20.6793 2.49484 20.6233 2.38486C20.5118 2.16608 20.3339 1.9882 20.1151 1.87673C20.0052 1.82069 19.8673 1.7864 19.6472 1.76842C19.4241 1.75019 19.1394 1.75 18.7397 1.75H5.26035C4.86063 1.75 4.57587 1.75019 4.35284 1.76842Z" fill="black"/>
</svg>
