<svg width="24" height="24" viewBox="0 0 24 24" fill="none" xmlns="http://www.w3.org/2000/svg">
<path d="M18.9607 10.4298C17.6596 10.2232 16.3364 10.2001 15.0304 10.3606C14.8934 10.3775 14.7686 10.2801 14.7518 10.143C14.7349 10.006 14.8324 9.88123 14.9694 9.86438C16.3218 9.69815 17.6918 9.72203 19.0391 9.93603C19.1755 9.95768 19.2685 10.0858 19.2468 10.2221C19.2251 10.3585 19.097 10.4515 18.9607 10.4298Z" fill="black"/>
<path d="M18.9607 13.4244C17.6596 13.2177 16.3364 13.1947 15.0304 13.3552C14.8934 13.372 14.7686 13.2746 14.7518 13.1376C14.7349 13.0005 14.8324 12.8758 14.9694 12.8589C16.3218 12.6927 17.6918 12.7166 19.0391 12.9306C19.1755 12.9522 19.2685 13.0803 19.2468 13.2167C19.2251 13.3531 19.097 13.446 18.9607 13.4244Z" fill="black"/>
<path d="M8.96067 10.4298C7.65956 10.2232 6.33642 10.2001 5.03039 10.3606C4.89335 10.3775 4.7686 10.2801 4.75176 10.143C4.73491 10.006 4.83235 9.88123 4.96939 9.86438C6.32175 9.69815 7.69183 9.72203 9.03911 9.93603C9.17547 9.95768 9.26845 10.0858 9.24679 10.2221C9.22514 10.3585 9.09703 10.4515 8.96067 10.4298Z" fill="black"/>
<path d="M5.03039 13.3552C6.33642 13.1947 7.65956 13.2177 8.96067 13.4244C9.09703 13.446 9.22514 13.3531 9.24679 13.2167C9.26845 13.0803 9.17547 12.9522 9.03911 12.9306C7.69183 12.7166 6.32175 12.6927 4.96939 12.8589C4.83235 12.8758 4.73491 13.0005 4.75176 13.1376C4.7686 13.2746 4.89335 13.372 5.03039 13.3552Z" fill="black"/>
<path fill-rule="evenodd" clip-rule="evenodd" d="M12.0553 5.71133C12.0378 5.71799 12.0209 5.72562 12.0046 5.73414L11.9447 5.71133C8.59884 4.43672 4.90116 4.43672 1.55532 5.71133C1.37148 5.78136 1.25 5.95764 1.25 6.15436V19.6843C1.25 20.0118 1.57792 20.2378 1.88391 20.1212C5.01811 18.9272 8.48189 18.9272 11.6161 20.1212L11.911 20.2335C11.9878 20.2628 12.0742 20.2524 12.1419 20.2058C12.1637 20.1907 12.1828 20.1725 12.1985 20.1519C12.2593 20.1543 12.322 20.1448 12.3839 20.1212C15.5181 18.9272 18.9819 18.9272 22.1161 20.1212L22.411 20.2335C22.4878 20.2628 22.5742 20.2524 22.6419 20.2058C22.7096 20.1591 22.75 20.0822 22.75 19.9999V5.99993C22.75 5.89619 22.6859 5.80323 22.589 5.7663L22.4447 5.71133C19.0988 4.43672 15.4012 4.43672 12.0553 5.71133ZM12.25 19.6372C15.4725 18.4219 19.0275 18.4219 22.25 19.6372V6.17223C19.0288 4.94975 15.4712 4.94975 12.25 6.17223V19.6372ZM11.75 19.6372V6.17223C8.52876 4.94975 4.97124 4.94975 1.75 6.17223V19.6372C4.97252 18.4219 8.52748 18.4219 11.75 19.6372Z" fill="black"/>
</svg>
