<svg width="24" height="24" viewBox="0 0 24 24" fill="none" xmlns="http://www.w3.org/2000/svg">
<path fill-rule="evenodd" clip-rule="evenodd" d="M12.2499 5.63877C15.5441 4.4372 19.1636 4.46138 22.4447 5.71133L22.589 5.7663C22.6859 5.80323 22.75 5.89619 22.75 5.99993V19.9999C22.75 20.0822 22.7096 20.1591 22.6419 20.2058C22.5742 20.2524 22.4878 20.2628 22.411 20.2335L22.1161 20.1212C18.9819 18.9272 15.5181 18.9272 12.3839 20.1212C12.3394 20.1382 12.2943 20.1479 12.2499 20.1511V5.63877ZM15.0304 10.3606C16.3364 10.2001 17.6596 10.2232 18.9607 10.4298C19.097 10.4515 19.2251 10.3585 19.2468 10.2221C19.2685 10.0858 19.1755 9.95768 19.0391 9.93603C17.6918 9.72203 16.3218 9.69815 14.9694 9.86438C14.8324 9.88123 14.7349 10.006 14.7518 10.143C14.7686 10.2801 14.8934 10.3775 15.0304 10.3606ZM15.0304 13.3552C16.3364 13.1947 17.6596 13.2177 18.9607 13.4244C19.097 13.446 19.2251 13.3531 19.2468 13.2167C19.2685 13.0803 19.1755 12.9522 19.0391 12.9306C17.6918 12.7166 16.3218 12.6927 14.9694 12.8589C14.8324 12.8758 14.7349 13.0005 14.7518 13.1376C14.7686 13.2746 14.8934 13.372 15.0304 13.3552Z" fill="black"/>
<path fill-rule="evenodd" clip-rule="evenodd" d="M11.7499 20.1722L11.6161 20.1212C8.48189 18.9272 5.01811 18.9272 1.88391 20.1212C1.57792 20.2378 1.25 20.0118 1.25 19.6843V6.15436C1.25 5.95764 1.37148 5.78136 1.55532 5.71133C4.83637 4.4614 8.45577 4.4372 11.7499 5.63872V20.1722ZM5.03039 10.3606C6.33642 10.2001 7.65956 10.2232 8.96067 10.4298C9.09703 10.4515 9.22514 10.3585 9.24679 10.2221C9.26845 10.0858 9.17547 9.95768 9.03911 9.93603C7.69183 9.72203 6.32175 9.69815 4.96939 9.86438C4.83235 9.88123 4.73491 10.006 4.75176 10.143C4.7686 10.2801 4.89335 10.3775 5.03039 10.3606ZM8.96067 13.4244C7.65956 13.2177 6.33642 13.1947 5.03039 13.3552C4.89335 13.372 4.7686 13.2746 4.75176 13.1376C4.73491 13.0005 4.83235 12.8758 4.96939 12.8589C6.32175 12.6927 7.69183 12.7166 9.03911 12.9306C9.17547 12.9522 9.26845 13.0803 9.24679 13.2167C9.22514 13.3531 9.09703 13.446 8.96067 13.4244Z" fill="black"/>
</svg>
