<svg width="24" height="24" viewBox="0 0 24 24" fill="none" xmlns="http://www.w3.org/2000/svg">
<path d="M11.5 20.3445C8.43023 19.1827 5.04074 19.1861 1.9729 20.3548C1.50329 20.5337 1 20.1869 1 19.6843V6.15436C1 5.85391 1.18555 5.58466 1.46632 5.4777C4.69251 4.24868 8.24032 4.18477 11.5 5.28597V20.3445Z" fill="black"/>
<path d="M12.5 5.28599V20.3446C15.5697 19.1827 18.9592 19.1861 22.0271 20.3548L22.322 20.4672C22.4757 20.5257 22.6483 20.5049 22.7837 20.4116C22.9191 20.3183 23 20.1644 23 19.9999V5.99993C23 5.79246 22.8719 5.60654 22.678 5.53268L22.5337 5.4777C19.3075 4.24867 15.7596 4.18477 12.5 5.28599Z" fill="black"/>
</svg>
