<svg width="24" height="24" viewBox="0 0 24 24" fill="none" xmlns="http://www.w3.org/2000/svg">
<path fill-rule="evenodd" clip-rule="evenodd" d="M12 5.46492C15.3943 4.18127 19.1417 4.18554 22.5337 5.4777L22.678 5.53268C22.8719 5.60654 23 5.79246 23 5.99993V19.9999C23 20.1644 22.9191 20.3183 22.7837 20.4116C22.6483 20.5049 22.4757 20.5257 22.322 20.4672L22.0271 20.3548C18.9502 19.1827 15.5498 19.1827 12.4729 20.3548C12.4167 20.3762 12.36 20.3901 12.3037 20.3971C12.2972 20.4021 12.2905 20.4069 12.2837 20.4116C12.1483 20.5049 11.9757 20.5257 11.822 20.4672L11.5271 20.3548C8.45022 19.1827 5.04978 19.1827 1.9729 20.3548C1.50329 20.5337 1 20.1869 1 19.6843V6.15436C1 5.85391 1.18555 5.58466 1.46632 5.4777C4.85826 4.18554 8.60571 4.18127 12 5.46492ZM22 19.2806C18.9245 18.2074 15.5755 18.2074 12.5 19.2806V6.34589C15.5674 5.2252 18.9326 5.2252 22 6.34589V19.2806ZM11.5 6.34589V19.2806C8.42448 18.2074 5.07552 18.2074 2 19.2806V6.34589C5.06739 5.2252 8.43261 5.2252 11.5 6.34589Z" fill="black"/>
</svg>
