<svg width="24" height="24" viewBox="0 0 24 24" fill="none" xmlns="http://www.w3.org/2000/svg">
<path d="M18.8822 10.9236C17.6273 10.7243 16.3511 10.7021 15.0914 10.8569C14.6803 10.9074 14.306 10.6151 14.2555 10.204C14.205 9.79289 14.4973 9.41865 14.9084 9.36812C16.3071 9.19619 17.7241 9.22089 19.1175 9.44221C19.5266 9.50719 19.8056 9.89149 19.7406 10.3006C19.6756 10.7097 19.2913 10.9886 18.8822 10.9236Z" fill="black"/>
<path d="M18.8822 13.9182C17.6273 13.7189 16.3511 13.6966 15.0914 13.8515C14.6803 13.902 14.306 13.6097 14.2555 13.1986C14.205 12.7874 14.4973 12.4132 14.9084 12.3627C16.3071 12.1907 17.7241 12.2154 19.1175 12.4368C19.5266 12.5017 19.8056 12.886 19.7406 13.2951C19.6756 13.7042 19.2913 13.9832 18.8822 13.9182Z" fill="black"/>
<path d="M8.88224 10.9236C7.6273 10.7243 6.35109 10.7021 5.09139 10.8569C4.68027 10.9074 4.30602 10.6151 4.25549 10.204C4.20496 9.79289 4.49727 9.41865 4.90839 9.36812C6.30708 9.19619 7.7241 9.22089 9.11754 9.44221C9.52662 9.50719 9.80558 9.89149 9.7406 10.3006C9.67563 10.7097 9.29132 10.9886 8.88224 10.9236Z" fill="black"/>
<path d="M5.09139 13.8515C6.35109 13.6966 7.6273 13.7189 8.88224 13.9182C9.29132 13.9832 9.67563 13.7042 9.7406 13.2951C9.80558 12.886 9.52662 12.5017 9.11754 12.4368C7.7241 12.2154 6.30708 12.1907 4.90839 12.3627C4.49727 12.4132 4.20496 12.7874 4.25549 13.1986C4.30602 13.6097 4.68027 13.902 5.09139 13.8515Z" fill="black"/>
<path fill-rule="evenodd" clip-rule="evenodd" d="M22.8007 4.77684C19.3255 3.45295 15.4951 3.41595 12 4.66582C8.50494 3.41595 4.67452 3.45295 1.19932 4.77684C0.627731 4.99459 0.25 5.5427 0.25 6.15436V19.6843C0.25 20.7122 1.27938 21.4216 2.2399 21.0557C5.14481 19.9491 8.35519 19.9491 11.2601 21.0557L11.555 21.168C11.8925 21.2966 12.2666 21.2722 12.5821 21.1061C12.6348 21.0925 12.6874 21.0757 12.7399 21.0557C15.6448 19.9491 18.8552 19.9491 21.7601 21.0557L22.055 21.168C22.4392 21.3144 22.8708 21.2625 23.2093 21.0292C23.5478 20.7959 23.75 20.4111 23.75 19.9999V5.99993C23.75 5.48125 23.4297 5.01646 22.945 4.83182L22.8007 4.77684ZM13.25 18.2626C15.8683 17.5468 18.6317 17.5468 21.25 18.2626V6.88139C18.6489 6.0467 15.8511 6.0467 13.25 6.88139V18.2626ZM10.75 18.2626V6.88139C8.14895 6.0467 5.35105 6.0467 2.75 6.88139V18.2626C5.36826 17.5468 8.13174 17.5468 10.75 18.2626Z" fill="black"/>
</svg>
