<svg width="24" height="24" viewBox="0 0 24 24" fill="none" xmlns="http://www.w3.org/2000/svg">
<path fill-rule="evenodd" clip-rule="evenodd" d="M12 4.66582C15.4951 3.41595 19.3255 3.45295 22.8007 4.77684L22.945 4.83182C23.4297 5.01646 23.75 5.48125 23.75 5.99993V19.9999C23.75 20.4111 23.5478 20.7959 23.2093 21.0292C22.8708 21.2625 22.4392 21.3144 22.055 21.168L21.7601 21.0557C18.8552 19.9491 15.6448 19.9491 12.7399 21.0557C12.6874 21.0757 12.6348 21.0925 12.5821 21.1061C12.2666 21.2722 11.8925 21.2966 11.555 21.168L11.2601 21.0557C8.35519 19.9491 5.14481 19.9491 2.2399 21.0557C1.27938 21.4216 0.25 20.7122 0.25 19.6843V6.15436C0.25 5.5427 0.627731 4.99459 1.19932 4.77684C4.67452 3.45295 8.50494 3.41595 12 4.66582ZM21.25 18.2626C18.6317 17.5468 15.8683 17.5468 13.25 18.2626V6.88139C15.8511 6.0467 18.6489 6.0467 21.25 6.88139V18.2626ZM10.75 6.88139V18.2626C8.13174 17.5468 5.36826 17.5468 2.75 18.2626V6.88139C5.35105 6.0467 8.14895 6.0467 10.75 6.88139Z" fill="black"/>
</svg>
