<svg width="24" height="24" viewBox="0 0 24 24" fill="none" xmlns="http://www.w3.org/2000/svg">
<path fill-rule="evenodd" clip-rule="evenodd" d="M3.22254 1.25H13.7775C14.0717 1.25 14.3077 1.25 14.4986 1.26559C14.6947 1.28161 14.865 1.31534 15.022 1.39532C15.2729 1.52316 15.4768 1.72713 15.6047 1.97801C15.6847 2.135 15.7184 2.30534 15.7344 2.50144C15.75 2.6923 15.75 2.92831 15.75 3.22249V8.30465H20.8322C21.1264 8.30465 21.3624 8.30465 21.5533 8.32024C21.7494 8.33626 21.9197 8.36999 22.0767 8.44997C22.3276 8.57781 22.5316 8.78178 22.6594 9.03266C22.7394 9.18965 22.7731 9.35999 22.7892 9.55609C22.8047 9.74694 22.8047 9.98295 22.8047 10.2771V20.8321C22.8047 21.1263 22.8047 21.3624 22.7892 21.5532C22.7731 21.7493 22.7394 21.9197 22.6594 22.0766C22.5316 22.3275 22.3276 22.5315 22.0767 22.6593C21.9197 22.7393 21.7494 22.773 21.5533 22.7891C21.3624 22.8047 21.1264 22.8047 20.8323 22.8046H10.2773C9.98309 22.8047 9.74704 22.8047 9.55618 22.7891C9.36008 22.773 9.18974 22.7393 9.03275 22.6593C8.78187 22.5315 8.5779 22.3275 8.45007 22.0766C8.37008 21.9197 8.33635 21.7493 8.32033 21.5532C8.30474 21.3623 8.30474 21.1263 8.30474 20.8321V15.75H3.22253C2.92835 15.75 2.6923 15.75 2.50144 15.7344C2.30534 15.7184 2.135 15.6847 1.97801 15.6047C1.72713 15.4768 1.52316 15.2729 1.39532 15.022C1.31534 14.865 1.28161 14.6947 1.26559 14.4986C1.25 14.3077 1.25 14.0717 1.25 13.7775V3.22254C1.25 2.92833 1.25 2.69231 1.26559 2.50144C1.28161 2.30534 1.31534 2.135 1.39532 1.97801C1.52316 1.72713 1.72713 1.52316 1.97801 1.39532C2.135 1.31534 2.30534 1.28161 2.50144 1.26559C2.69231 1.25 2.92833 1.25 3.22254 1.25ZM8.80474 10.288V15.25H13.7667C14.0742 15.25 14.2897 15.2498 14.4578 15.2361C14.623 15.2226 14.7202 15.1973 14.795 15.1592C14.9518 15.0793 15.0793 14.9518 15.1592 14.795C15.1973 14.7202 15.2226 14.623 15.2361 14.4578C15.2498 14.2897 15.25 14.0742 15.25 13.7667V8.80465H10.2881C9.98059 8.80465 9.76501 8.80484 9.5969 8.81858C9.43171 8.83208 9.3345 8.85739 9.25975 8.89548C9.10295 8.97537 8.97546 9.10286 8.89557 9.25966C8.85748 9.33441 8.83217 9.43162 8.81867 9.59681C8.80494 9.76492 8.80474 9.9805 8.80474 10.288Z" fill="black"/>
</svg>
