<svg width="24" height="24" viewBox="0 0 24 24" fill="none" xmlns="http://www.w3.org/2000/svg">
<path fill-rule="evenodd" clip-rule="evenodd" d="M3.19555 0.249989C3.20816 0.249991 3.22075 0.249992 3.23334 0.249992L13.8045 0.249989C14.0749 0.249947 14.3475 0.249906 14.58 0.268903C14.8379 0.289979 15.1545 0.340522 15.476 0.50431C15.915 0.728015 16.272 1.08497 16.4957 1.52401C16.6595 1.84547 16.71 2.16206 16.7311 2.42C16.7501 2.65253 16.7501 2.92511 16.75 3.19555L16.75 7.30465L20.8592 7.30465C21.1296 7.3046 21.4022 7.30456 21.6347 7.32356C21.8926 7.34464 22.2092 7.39518 22.5307 7.55897C22.9697 7.78267 23.3267 8.13963 23.5504 8.57867C23.7142 8.90013 23.7647 9.21671 23.7858 9.47466C23.8048 9.70718 23.8047 9.97974 23.8047 10.2502V20.8591C23.8047 21.1296 23.8048 21.4021 23.7858 21.6346C23.7647 21.8926 23.7142 22.2092 23.5504 22.5306C23.3267 22.9697 22.9697 23.3266 22.5307 23.5503C22.2092 23.7141 21.8926 23.7647 21.6347 23.7857C21.4022 23.8047 21.1296 23.8047 20.8592 23.8047H10.2502C9.97979 23.8047 9.70722 23.8047 9.47471 23.7857C9.21676 23.7647 8.90017 23.7141 8.57872 23.5503C8.13967 23.3266 7.78272 22.9697 7.55901 22.5306C7.39522 22.2092 7.34468 21.8926 7.32361 21.6346C7.30461 21.4021 7.30465 21.1295 7.30469 20.8591L7.3047 16.75L3.19557 16.75C2.92513 16.75 2.65255 16.7501 2.42002 16.7311C2.16207 16.71 1.84548 16.6595 1.52403 16.4957C1.08499 16.272 0.728031 15.915 0.504326 15.476C0.340537 15.1545 0.289994 14.8379 0.268919 14.58C0.249921 14.3475 0.249962 14.0749 0.250004 13.8044L0.250008 3.23333C0.250008 3.22074 0.250006 3.20814 0.250004 3.19554C0.249962 2.9251 0.249921 2.65253 0.268919 2.42C0.289994 2.16206 0.340537 1.84547 0.504326 1.52401C0.72803 1.08497 1.08499 0.728015 1.52403 0.504311C1.84548 0.340522 2.16207 0.289979 2.42002 0.268903C2.65254 0.249906 2.92512 0.249947 3.19555 0.249989ZM2.75383 2.75381C2.75046 2.86329 2.75001 3.0118 2.75001 3.23333V13.7667C2.75001 13.9882 2.75046 14.1367 2.75383 14.2462C2.86331 14.2495 3.01182 14.25 3.23334 14.25H9.8047V20.8213C9.8047 21.0428 9.80515 21.1913 9.80852 21.3008C9.918 21.3042 10.0665 21.3046 10.288 21.3046H20.8214C21.0429 21.3046 21.1914 21.3042 21.3009 21.3008C21.3042 21.1913 21.3047 21.0428 21.3047 20.8213V10.288C21.3047 10.0665 21.3042 9.91795 21.3009 9.80847C21.1914 9.8051 21.0429 9.80465 20.8214 9.80465H14.25V3.23333C14.25 3.01181 14.2496 2.86329 14.2462 2.75381C14.1367 2.75045 13.9882 2.74999 13.7667 2.74999H3.23334C3.01182 2.74999 2.86331 2.75045 2.75383 2.75381Z" fill="black"/>
</svg>
