<svg width="24" height="24" viewBox="0 0 24 24" fill="none" xmlns="http://www.w3.org/2000/svg">
<path d="M1.61808 2.09151C1.5 2.32325 1.5 2.62661 1.5 3.23333V13.7667C1.5 14.3734 1.5 14.6768 1.61808 14.9085C1.72194 15.1123 1.88767 15.2781 2.09151 15.3819C2.32325 15.5 2.62661 15.5 3.23333 15.5H8.55469V20.8213C8.55469 21.428 8.55469 21.7314 8.67276 21.9631C8.77663 22.167 8.94236 22.3327 9.1462 22.4366C9.37794 22.5547 9.6813 22.5547 10.288 22.5547H20.8214C21.4281 22.5547 21.7314 22.5547 21.9632 22.4366C22.167 22.3327 22.3327 22.167 22.4366 21.9631C22.5547 21.7314 22.5547 21.428 22.5547 20.8213V10.288C22.5547 9.68127 22.5547 9.3779 22.4366 9.14617C22.3327 8.94233 22.167 8.7766 21.9632 8.67273C21.7314 8.55466 21.4281 8.55466 20.8214 8.55466H15.5V3.23333C15.5 2.62661 15.5 2.32325 15.3819 2.09151C15.2781 1.88767 15.1123 1.72194 14.9085 1.61808C14.6768 1.5 14.3734 1.5 13.7667 1.5H3.23333C2.62661 1.5 2.32325 1.5 2.09151 1.61808C1.88767 1.72194 1.72194 1.88767 1.61808 2.09151Z" fill="black"/>
</svg>
