<svg width="24" height="24" viewBox="0 0 24 24" fill="none" xmlns="http://www.w3.org/2000/svg">
<path fill-rule="evenodd" clip-rule="evenodd" d="M3.22254 1.25H13.7775C14.0717 1.25 14.3077 1.25 14.4986 1.26559C14.6947 1.28161 14.865 1.31534 15.022 1.39532C15.2729 1.52316 15.4768 1.72713 15.6047 1.97801C15.6847 2.135 15.7184 2.30534 15.7344 2.50144C15.75 2.6923 15.75 2.92831 15.75 3.22249V8.30465H20.8322C21.1264 8.30465 21.3624 8.30465 21.5533 8.32024C21.7494 8.33626 21.9197 8.36999 22.0767 8.44997C22.3276 8.57781 22.5316 8.78178 22.6594 9.03266C22.7394 9.18965 22.7731 9.35999 22.7892 9.55609C22.8047 9.74694 22.8047 9.98295 22.8047 10.2771V20.8321C22.8047 21.1263 22.8047 21.3624 22.7892 21.5532C22.7731 21.7493 22.7394 21.9197 22.6594 22.0766C22.5316 22.3275 22.3276 22.5315 22.0767 22.6593C21.9197 22.7393 21.7494 22.773 21.5533 22.7891C21.3624 22.8047 21.1264 22.8047 20.8323 22.8046H10.2773C9.98309 22.8047 9.74704 22.8047 9.55618 22.7891C9.36008 22.773 9.18974 22.7393 9.03275 22.6593C8.78187 22.5315 8.5779 22.3275 8.45007 22.0766C8.37008 21.9197 8.33635 21.7493 8.32033 21.5532C8.30474 21.3623 8.30474 21.1263 8.30474 20.8321V15.75H3.22253C2.92835 15.75 2.6923 15.75 2.50144 15.7344C2.30534 15.7184 2.135 15.6847 1.97801 15.6047C1.72713 15.4768 1.52316 15.2729 1.39532 15.022C1.31534 14.865 1.28161 14.6947 1.26559 14.4986C1.25 14.3077 1.25 14.0717 1.25 13.7775V3.22254C1.25 2.92833 1.25 2.69231 1.26559 2.50144C1.28161 2.30534 1.31534 2.135 1.39532 1.97801C1.52316 1.72713 1.72713 1.52316 1.97801 1.39532C2.135 1.31534 2.30534 1.28161 2.50144 1.26559C2.69231 1.25 2.92833 1.25 3.22254 1.25ZM15.25 5.10367V8.30465H12.049L15.25 5.10367ZM15.25 4.39656L11.3419 8.30465H10.2773C9.98307 8.30465 9.74705 8.30465 9.55618 8.32024C9.36008 8.33626 9.18974 8.36999 9.03275 8.44997C8.78187 8.57781 8.5779 8.78178 8.45007 9.03266C8.37008 9.18965 8.33635 9.35999 8.32033 9.55609C8.30474 9.74695 8.30474 9.98298 8.30474 10.2772V11.3418L4.39656 15.25H3.23333C2.92585 15.25 2.71027 15.2498 2.54216 15.2361C2.37697 15.2226 2.27976 15.1973 2.20501 15.1592C2.04821 15.0793 1.92072 14.9518 1.84083 14.795C1.8129 14.7402 1.79184 14.6733 1.77727 14.5764L14.5764 1.77727C14.6733 1.79184 14.7402 1.8129 14.795 1.84083C14.9518 1.92072 15.0793 2.04821 15.1592 2.20501C15.1973 2.27976 15.2226 2.37697 15.2361 2.54216C15.2498 2.71027 15.25 2.92585 15.25 3.23333V4.39656ZM13.8965 1.75006L1.75006 13.8965C1.75 13.8551 1.75 13.8119 1.75 13.7667V10.6037L10.6037 1.75H13.7667C13.8119 1.75 13.8551 1.75 13.8965 1.75006ZM9.89656 1.75L1.75 9.89656V6.60367L6.60367 1.75H9.89656ZM5.89656 1.75H3.23333C2.92585 1.75 2.71027 1.75019 2.54216 1.76393C2.37697 1.77743 2.27976 1.80274 2.20501 1.84083C2.04821 1.92072 1.92072 2.04821 1.84083 2.20501C1.80274 2.27976 1.77743 2.37697 1.76393 2.54216C1.75019 2.71027 1.75 2.92585 1.75 3.23333V5.89656L5.89656 1.75ZM5.10367 15.25H8.30474V12.0489L5.10367 15.25ZM8.80474 10.288V15.25H13.7667C14.0742 15.25 14.2897 15.2498 14.4578 15.2361C14.623 15.2226 14.7202 15.1973 14.795 15.1592C14.9518 15.0793 15.0793 14.9518 15.1592 14.795C15.1973 14.7202 15.2226 14.623 15.2361 14.4578C15.2498 14.2897 15.25 14.0742 15.25 13.7667V8.80465H10.2881C9.98059 8.80465 9.76501 8.80484 9.5969 8.81858C9.43171 8.83208 9.3345 8.85739 9.25975 8.89548C9.10295 8.97537 8.97546 9.10286 8.89557 9.25966C8.85748 9.33441 8.83217 9.43162 8.81867 9.59681C8.80494 9.76492 8.80474 9.9805 8.80474 10.288ZM11.8966 15.75H8.80474V18.8418L11.8966 15.75ZM12.6037 15.75L8.80474 19.5489V20.8213C8.80474 21.1288 8.80494 21.3444 8.81867 21.5125C8.83217 21.6777 8.85748 21.7749 8.89557 21.8496C8.97546 22.0064 9.10295 22.1339 9.25975 22.2138C9.29538 22.232 9.33611 22.2472 9.38688 22.2597L22.2598 9.38679C22.2473 9.33602 22.2321 9.29529 22.2139 9.25966C22.134 9.10286 22.0065 8.97537 21.8497 8.89548C21.775 8.85739 21.6778 8.83208 21.5126 8.81858C21.3445 8.80484 21.1289 8.80465 20.8214 8.80465H19.549L15.75 12.6037V13.7775C15.75 14.0717 15.75 14.3077 15.7344 14.4986C15.7184 14.6947 15.6847 14.865 15.6047 15.022C15.4768 15.2729 15.2729 15.4768 15.022 15.6047C14.865 15.6847 14.6947 15.7184 14.4986 15.7344C14.3077 15.75 14.0717 15.75 13.7775 15.75H12.6037ZM15.75 11.8966L18.8419 8.80465H15.75V11.8966ZM22.3044 10.0493L10.0494 22.3043C10.1223 22.3046 10.2016 22.3046 10.2881 22.3046H13.3419L22.3047 13.3418V10.288C22.3047 10.2015 22.3047 10.1222 22.3044 10.0493ZM22.3047 14.0489L14.049 22.3046H17.3419L22.3047 17.3418V14.0489ZM22.3047 18.0489L18.049 22.3046H20.8214C21.1289 22.3046 21.3445 22.3045 21.5126 22.2907C21.6778 22.2772 21.775 22.2519 21.8497 22.2138C22.0065 22.1339 22.134 22.0064 22.2139 21.8496C22.252 21.7749 22.2773 21.6777 22.2908 21.5125C22.3045 21.3444 22.3047 21.1288 22.3047 20.8213V18.0489Z" fill="black"/>
</svg>
