<svg width="24" height="24" viewBox="0 0 24 24" fill="none" xmlns="http://www.w3.org/2000/svg">
<path fill-rule="evenodd" clip-rule="evenodd" d="M0.5 2.50001C0.5 1.53351 1.2835 0.750008 2.25 0.750008H14.25C15.2165 0.750008 16 1.53351 16 2.50001V7.80466H21.3047C22.2712 7.80466 23.0547 8.58816 23.0547 9.55466V21.5547C23.0547 22.5212 22.2712 23.3047 21.3047 23.3047H9.30474C8.33824 23.3047 7.55474 22.5212 7.55474 21.5547V16.25H2.25C1.2835 16.25 0.5 15.4665 0.5 14.5V2.50001ZM14.5 2.50001V7.80466H9.30474C8.33824 7.80466 7.55474 8.58816 7.55474 9.55466V14.75H2.25C2.11193 14.75 2 14.6381 2 14.5V2.50001C2 2.36194 2.11193 2.25001 2.25 2.25001H14.25C14.3881 2.25001 14.5 2.36194 14.5 2.50001ZM9.05474 14.0059V14.75H10.1893L14.5 10.4393V9.30466H13.756L9.05474 14.0059ZM9.05474 11.8846L11.6347 9.30466H9.756L9.05474 10.0059V11.8846ZM14.5 12.5607L12.3106 14.75H14.1893L14.5 14.4393V12.5607ZM14.25 16.25H9.05474V21.5547C9.05474 21.6927 9.16667 21.8047 9.30474 21.8047H21.3047C21.4428 21.8047 21.5547 21.6927 21.5547 21.5547V9.55466C21.5547 9.41659 21.4428 9.30466 21.3047 9.30466H16V14.5C16 15.4665 15.2165 16.25 14.25 16.25Z" fill="black"/>
</svg>
