<svg width="24" height="24" viewBox="0 0 24 24" fill="none" xmlns="http://www.w3.org/2000/svg">
<path d="M15.5 3.9C15.5 3.05992 15.5 2.63988 15.3365 2.31901C15.1927 2.03677 14.9632 1.8073 14.681 1.66349C14.3601 1.5 13.9401 1.5 13.1 1.5H3.9C3.05992 1.5 2.63988 1.5 2.31901 1.66349C2.03677 1.8073 1.8073 2.03677 1.66349 2.31901C1.5 2.63988 1.5 3.05992 1.5 3.9V13.1C1.5 13.9401 1.5 14.3601 1.66349 14.681C1.8073 14.9632 2.03677 15.1927 2.31901 15.3365C2.63988 15.5 3.05992 15.5 3.9 15.5L6.55469 15.5L6.55468 10.2396C6.55459 9.97962 6.55449 9.67798 6.57609 9.4136C6.60096 9.10927 6.66411 8.68299 6.89075 8.23819C7.18636 7.65802 7.65805 7.18633 8.23822 6.89072C8.68302 6.66408 9.1093 6.60092 9.41363 6.57606C9.67801 6.55446 9.97965 6.55456 10.2396 6.55465L15.5 6.55466L15.5 3.9Z" fill="black"/>
<path d="M20.2474 8.55466H17.5L17.5 13.8151C17.5001 14.075 17.5002 14.3767 17.4786 14.6411C17.4537 14.9454 17.3906 15.3717 17.1639 15.8165C16.8683 16.3966 16.3966 16.8683 15.8165 17.1639C15.3717 17.3906 14.9454 17.4537 14.6411 17.4786C14.3767 17.5002 14.0751 17.5001 13.8152 17.5L8.55474 17.5V20.1546C8.55474 20.9947 8.55474 21.4148 8.71823 21.7356C8.86204 22.0179 9.09151 22.2473 9.37375 22.3912C9.69462 22.5546 10.1147 22.5546 10.9547 22.5546H20.1547C20.9948 22.5546 21.4149 22.5546 21.7357 22.3912C22.018 22.2473 22.2474 22.0179 22.3913 21.7356C22.5435 21.4369 22.554 21.0521 22.5547 20.3223V10.787C22.554 10.0572 22.5435 9.67243 22.3913 9.37366C22.2474 9.09142 22.018 8.86195 21.7357 8.71814C21.4269 8.56077 21.0261 8.55488 20.2474 8.55466Z" fill="black"/>
<path d="M8.55474 15.5L13.7667 15.5C14.3734 15.5 14.6768 15.5 14.9085 15.3819C15.1123 15.2781 15.2781 15.1123 15.3819 14.9085C15.5 14.6768 15.5 14.3734 15.5 13.7667V8.55466H10.288C9.6813 8.55466 9.37794 8.55466 9.1462 8.67273C8.94236 8.7766 8.77663 8.94233 8.67276 9.14617C8.55469 9.37791 8.55469 9.68127 8.55469 10.288L8.55474 15.5Z" fill="black"/>
</svg>
