<svg width="24" height="24" viewBox="0 0 24 24" fill="none" xmlns="http://www.w3.org/2000/svg">
<path fill-rule="evenodd" clip-rule="evenodd" d="M0.75 2.5C0.75 1.5335 1.5335 0.75 2.5 0.75H14.5C15.4665 0.75 16.25 1.5335 16.25 2.5V7.80465H21.5547C22.5212 7.80465 23.3047 8.58815 23.3047 9.55465V21.5546C23.3047 22.5211 22.5212 23.3046 21.5547 23.3046H9.55474C8.58824 23.3046 7.80474 22.5211 7.80474 21.5546V16.25H2.5C1.5335 16.25 0.75 15.4665 0.75 14.5V2.5ZM14.75 5.63398V7.80465H12.5793L14.75 5.63398ZM14.75 3.86622L10.8116 7.80465H9.55474C8.58824 7.80465 7.80474 8.58815 7.80474 9.55465V10.8115L3.86622 14.75H2.5C2.36193 14.75 2.25 14.6381 2.25 14.5V14.134L14.134 2.25H14.5C14.6381 2.25 14.75 2.36193 14.75 2.5V3.86622ZM12.3662 2.25L2.25 12.3662V10.134L10.134 2.25H12.3662ZM8.36622 2.25L2.25 8.36622V6.13398L6.13398 2.25H8.36622ZM4.36622 2.25H2.5C2.36193 2.25 2.25 2.36193 2.25 2.5V4.36622L4.36622 2.25ZM5.63398 14.75H7.80474V12.5792L5.63398 14.75ZM9.30474 9.55465V14.75H14.5C14.6381 14.75 14.75 14.6381 14.75 14.5V9.30465H9.55474C9.41667 9.30465 9.30474 9.41658 9.30474 9.55465ZM10.3662 16.25H9.30474V17.3115L10.3662 16.25ZM12.134 16.25L9.30474 19.0792V21.3115L14.3662 16.25H12.134ZM16.25 14.3662L21.3116 9.30465H19.0793L16.25 12.134V14.3662ZM16.25 10.3662L17.3116 9.30465H16.25V10.3662ZM21.8047 10.5792L10.5793 21.8046H12.8116L21.8047 12.8115V10.5792ZM21.8047 14.5792L14.5793 21.8046H16.8116L21.8047 16.8115V14.5792ZM21.8047 18.5792L18.5793 21.8046H20.8116L21.8047 20.8115V18.5792Z" fill="black"/>
</svg>
