<svg width="24" height="24" viewBox="0 0 24 24" fill="none" xmlns="http://www.w3.org/2000/svg">
<path fill-rule="evenodd" clip-rule="evenodd" d="M3.20055 0.499987C3.21146 0.499988 3.22239 0.499989 3.23334 0.499989L13.7995 0.499987C14.0745 0.499959 14.3376 0.499931 14.5596 0.51807C14.8021 0.537882 15.0821 0.58422 15.3625 0.727059C15.7545 0.926795 16.0732 1.24551 16.2729 1.63751C16.4158 1.91785 16.4621 2.19787 16.4819 2.44036C16.5001 2.66237 16.5 2.92553 16.5 3.20055L16.5 7.55465L20.8541 7.55464C21.1292 7.55462 21.3923 7.55459 21.6143 7.57273C21.8568 7.59254 22.1368 7.63888 22.4172 7.78172C22.8092 7.98145 23.1279 8.30016 23.3276 8.69217C23.4705 8.9725 23.5168 9.25253 23.5366 9.49502C23.5547 9.71702 23.5547 9.98016 23.5547 10.2552V20.8541C23.5547 21.1291 23.5547 21.3923 23.5366 21.6143C23.5168 21.8568 23.4705 22.1368 23.3276 22.4171C23.1279 22.8091 22.8092 23.1278 22.4172 23.3276C22.1368 23.4704 21.8568 23.5168 21.6143 23.5366C21.3923 23.5547 21.1292 23.5547 20.8542 23.5546H10.2552C9.9802 23.5547 9.71706 23.5547 9.49506 23.5366C9.25257 23.5168 8.97255 23.4704 8.69221 23.3276C8.30021 23.1278 7.9815 22.8091 7.78176 22.4171C7.63892 22.1368 7.59258 21.8568 7.57277 21.6143C7.55463 21.3923 7.55466 21.1291 7.55469 20.8541L7.55469 16.5L3.20057 16.5C2.92554 16.5 2.66239 16.5 2.44037 16.4819C2.19789 16.4621 1.91786 16.4158 1.63752 16.2729C1.24552 16.0732 0.926811 15.7545 0.727074 15.3625C0.584236 15.0821 0.537897 14.8021 0.518085 14.5596C0.499946 14.3376 0.499974 14.0745 0.500002 13.7994L0.500005 3.23332C0.500005 3.22237 0.500003 3.21144 0.500002 3.20053C0.499974 2.92551 0.499946 2.66237 0.518085 2.44036C0.537897 2.19787 0.584236 1.91785 0.727074 1.63751C0.92681 1.2455 1.24552 0.926795 1.63752 0.727059C1.91786 0.58422 2.19789 0.537882 2.44037 0.51807C2.66238 0.499931 2.92553 0.499959 3.20055 0.499987ZM2.51987 2.52932C2.52277 2.52592 2.52593 2.52275 2.52933 2.51986C2.54393 2.5175 2.56771 2.51433 2.60324 2.51143C2.73372 2.50077 2.91348 2.49999 3.23334 2.49999H13.7667C14.0865 2.49999 14.2663 2.50077 14.3968 2.51143C14.4323 2.51433 14.4561 2.5175 14.4707 2.51986C14.4741 2.52275 14.4772 2.52592 14.4801 2.52932C14.4825 2.54391 14.4857 2.5677 14.4886 2.60322C14.4992 2.7337 14.5 2.91346 14.5 3.23332V9.55465H20.8214C21.1412 9.55465 21.321 9.55542 21.4515 9.56608C21.487 9.56899 21.5108 9.57216 21.5254 9.57451C21.5288 9.57741 21.5319 9.58057 21.5348 9.58397C21.5372 9.59857 21.5404 9.62236 21.5433 9.65788C21.5539 9.78836 21.5547 9.96812 21.5547 10.288V20.8213C21.5547 21.1412 21.5539 21.3209 21.5433 21.4514C21.5404 21.4869 21.5372 21.5107 21.5348 21.5253C21.5319 21.5287 21.5288 21.5319 21.5254 21.5348C21.5108 21.5371 21.487 21.5403 21.4515 21.5432C21.321 21.5539 21.1412 21.5546 20.8214 21.5546H10.288C9.96816 21.5546 9.78841 21.5539 9.65793 21.5432C9.62241 21.5403 9.59861 21.5371 9.58402 21.5348C9.58062 21.5319 9.57745 21.5287 9.57456 21.5253C9.5722 21.5107 9.56903 21.4869 9.56613 21.4514C9.55547 21.3209 9.55469 21.1412 9.55469 20.8213V14.5H3.23334C2.91348 14.5 2.73372 14.4992 2.60324 14.4886C2.56771 14.4856 2.54393 14.4825 2.52933 14.4801C2.52593 14.4772 2.52277 14.4741 2.51987 14.4707C2.51752 14.4561 2.51435 14.4323 2.51144 14.3968C2.50078 14.2663 2.5 14.0865 2.5 13.7667V3.23332C2.5 2.91346 2.50078 2.7337 2.51144 2.60322C2.51435 2.5677 2.51752 2.54391 2.51987 2.52932Z" fill="black"/>
</svg>
