<svg width="24" height="24" viewBox="0 0 24 24" fill="none" xmlns="http://www.w3.org/2000/svg">
<path d="M15.4209 2.18222C15.5 2.40383 15.5 2.70245 15.5 3.23333V7.55466L10.2552 7.55465C9.98023 7.55463 9.71706 7.5546 9.49506 7.57274C9.25257 7.59255 8.97254 7.63889 8.69221 7.78173C8.3002 7.98146 7.98149 8.30017 7.78176 8.69218C7.63892 8.97251 7.59258 9.25254 7.57277 9.49503C7.55463 9.71702 7.55466 9.98016 7.55469 10.2552L7.55469 15.5H3.23333C2.62661 15.5 2.32325 15.5 2.09151 15.3819C1.88767 15.2781 1.72194 15.1123 1.61808 14.9085C1.5 14.6768 1.5 14.3734 1.5 13.7667V3.23333C1.5 2.62661 1.5 2.32325 1.61808 2.09151C1.6341 2.06007 1.65159 2.02954 1.67046 2C1.75867 1.86196 1.87711 1.74562 2.0169 1.65988C2.04115 1.64501 2.06603 1.63106 2.09151 1.61808C2.32325 1.5 2.62661 1.5 3.23333 1.5H13.7667C14.3734 1.5 14.6768 1.5 14.9085 1.61808C15.1123 1.72194 15.2781 1.88767 15.3819 2.09151C15.3967 2.12048 15.4096 2.15056 15.4209 2.18222Z" fill="black"/>
<path d="M8.55469 15.5H13.7667C14.3734 15.5 14.6768 15.5 14.9085 15.3819C15.1123 15.2781 15.2781 15.1123 15.3819 14.9085C15.5 14.6768 15.5 14.3734 15.5 13.7667V8.55466H10.288C9.6813 8.55466 9.37794 8.55466 9.1462 8.67273C8.94236 8.7766 8.77663 8.94232 8.67276 9.14617C8.55469 9.3779 8.55469 9.68127 8.55469 10.288V15.5Z" fill="black"/>
<path d="M9.57649 22.5399C9.39587 22.5251 9.26211 22.4956 9.14625 22.4366C8.94241 22.3327 8.77668 22.167 8.67282 21.9631C8.55474 21.7314 8.55474 21.428 8.55474 20.8213V16.5L13.7994 16.5C14.0744 16.5 14.3376 16.5001 14.5596 16.4819C14.8021 16.4621 15.0821 16.4158 15.3625 16.2729C15.7545 16.0732 16.0732 15.7545 16.2729 15.3625C16.4158 15.0821 16.4621 14.8021 16.4819 14.5596C16.5001 14.3376 16.5 14.0745 16.5 13.7995L16.5 8.55466H20.8214C20.8213 8.55466 20.8214 8.55466 20.8214 8.55466C21.1626 8.55466 21.4079 8.55466 21.5985 8.57567C21.7467 8.59202 21.8618 8.62107 21.9632 8.67273C22.167 8.7766 22.3327 8.94232 22.4366 9.14617C22.5547 9.3779 22.5547 9.68127 22.5547 10.288V20.8213C22.5547 21.428 22.5547 21.7314 22.4366 21.9631C22.3327 22.167 22.167 22.3327 21.9632 22.4366C21.9541 22.4412 21.945 22.4456 21.9357 22.4499C21.7222 22.5478 21.4435 22.5542 20.9316 22.5546C20.896 22.5547 20.8593 22.5546 20.8214 22.5546H10.2881C10.2881 22.5546 10.2881 22.5546 10.2881 22.5546C9.98471 22.5546 9.75714 22.5547 9.57649 22.5399Z" fill="black"/>
</svg>
