<svg width="24" height="24" viewBox="0 0 24 24" fill="none" xmlns="http://www.w3.org/2000/svg">
<path fill-rule="evenodd" clip-rule="evenodd" d="M3.20055 0.500002C2.92553 0.499974 2.66238 0.499946 2.44037 0.518085C2.19789 0.537897 1.91786 0.584236 1.63752 0.727074C1.24552 0.92681 0.92681 1.24552 0.727074 1.63752C0.584236 1.91786 0.537897 2.19789 0.518085 2.44037C0.499946 2.66238 0.499974 2.92553 0.500002 3.20055V13.7995C0.499974 14.0745 0.499946 14.3376 0.518085 14.5596C0.537897 14.8021 0.584236 15.0821 0.727074 15.3625C0.92681 15.7545 1.24552 16.0732 1.63752 16.2729C1.91786 16.4158 2.19789 16.4621 2.44037 16.4819C2.66237 16.5001 2.92551 16.5 3.20051 16.5L7.55474 16.5L7.55474 20.8541C7.55471 21.1291 7.55469 21.3923 7.57283 21.6143C7.59264 21.8568 7.63898 22.1368 7.78181 22.4171C7.98155 22.8091 8.30026 23.1278 8.69226 23.3276C8.9726 23.4704 9.25263 23.5168 9.49512 23.5366C9.71713 23.5547 9.98028 23.5547 10.2553 23.5547H20.8542C21.1292 23.5547 21.3924 23.5547 21.6144 23.5366C21.8569 23.5168 22.1369 23.4704 22.4172 23.3276C22.8092 23.1278 23.1279 22.8091 23.3277 22.4171C23.4705 22.1368 23.5169 21.8568 23.5367 21.6143C23.5548 21.3923 23.5548 21.1291 23.5547 20.8541V10.2552C23.5548 9.98019 23.5548 9.71704 23.5367 9.49502C23.5169 9.25253 23.4705 8.97251 23.3277 8.69217C23.1279 8.30017 22.8092 7.98146 22.4172 7.78172C22.1369 7.63888 21.8569 7.59255 21.6144 7.57273C21.3924 7.5546 21.1292 7.55462 20.8542 7.55465L16.5 7.55465L16.5 3.20057C16.5 2.92556 16.5001 2.66237 16.4819 2.44037C16.4621 2.19789 16.4158 1.91786 16.2729 1.63752C16.0732 1.24552 15.7545 0.92681 15.3625 0.727074C15.0821 0.584236 14.8021 0.537897 14.5596 0.518085C14.3376 0.499946 14.0745 0.499974 13.7995 0.500002H3.20055ZM2.52933 2.51987C2.52593 2.52277 2.52277 2.52593 2.51987 2.52933C2.51752 2.54393 2.51435 2.56771 2.51144 2.60324C2.50078 2.73372 2.5 2.91348 2.5 3.23334V13.7667C2.5 14.0865 2.50078 14.2663 2.51144 14.3968C2.51435 14.4323 2.51752 14.4561 2.51987 14.4707C2.52277 14.4741 2.52593 14.4772 2.52933 14.4801C2.54393 14.4825 2.56771 14.4857 2.60324 14.4886C2.73372 14.4992 2.91348 14.5 3.23334 14.5H13.7667C14.0865 14.5 14.2663 14.4992 14.3968 14.4886C14.4323 14.4857 14.4561 14.4825 14.4707 14.4801C14.4741 14.4772 14.4772 14.4741 14.4801 14.4707C14.4825 14.4561 14.4857 14.4323 14.4886 14.3968C14.4992 14.2663 14.5 14.0865 14.5 13.7667V3.23334C14.5 2.91348 14.4992 2.73372 14.4886 2.60324C14.4857 2.56771 14.4825 2.54393 14.4801 2.52933C14.4772 2.52593 14.4741 2.52277 14.4707 2.51987C14.4561 2.51752 14.4323 2.51435 14.3968 2.51144C14.2663 2.50078 14.0865 2.5 13.7667 2.5H3.23334C2.91348 2.5 2.73372 2.50078 2.60324 2.51144C2.56771 2.51435 2.54393 2.51752 2.52933 2.51987Z" fill="black"/>
</svg>
