<svg width="24" height="24" viewBox="0 0 24 24" fill="none" xmlns="http://www.w3.org/2000/svg">
<path d="M23.2501 18.5C23.2501 17.5335 22.4666 16.75 21.5001 16.75H2.50012C1.53362 16.75 0.750122 17.5335 0.750122 18.5V21.5C0.750172 22.4665 1.53365 23.25 2.50012 23.25H21.5001C22.4666 23.25 23.2501 22.4665 23.2501 21.5V18.5Z" fill="black"/>
<path d="M4.25012 11.667H1.75012V15.333H4.25012V11.667Z" fill="black"/>
<path d="M4.25012 6.16699H1.75012V9.83301H4.25012V6.16699Z" fill="black"/>
<path d="M5.38879 0.75H3.50012C2.53362 0.75 1.75012 1.5335 1.75012 2.5V4.33301H4.25012V3.25H5.38879V0.75Z" fill="black"/>
<path d="M11.0558 0.75H7.27747V3.25H11.0558V0.75Z" fill="black"/>
<path d="M16.7228 0.75H12.9445V3.25H16.7228V0.75Z" fill="black"/>
<path d="M22.2501 2.5C22.2501 1.5335 21.4666 0.75 20.5001 0.75H18.6115V3.25H19.7501V4.33301H22.2501V2.5Z" fill="black"/>
<path d="M22.2501 11.667H19.7501V15.333H22.2501V11.667Z" fill="black"/>
<path d="M22.2501 6.16699H19.7501V9.83301H22.2501V6.16699Z" fill="black"/>
</svg>
