<svg width="24" height="24" viewBox="0 0 24 24" fill="none" xmlns="http://www.w3.org/2000/svg">
<path d="M2 16.25C2.13807 16.25 2.25 16.1381 2.25 16V8.40039C2.25 7.27616 2.25024 6.44744 2.30371 5.79297C2.35695 5.14156 2.46219 4.6845 2.65918 4.29785C3.0187 3.59224 3.59224 3.0187 4.29785 2.65918C4.6845 2.46219 5.14156 2.35695 5.79297 2.30371C6.44744 2.25024 7.27616 2.25 8.40039 2.25H16C16.1381 2.25 16.25 2.13807 16.25 2C16.25 1.86193 16.1381 1.75 16 1.75H8.40039C7.28466 1.75 6.43241 1.75018 5.75293 1.80566C5.07046 1.86142 4.53925 1.97395 4.07031 2.21289C3.27066 2.62035 2.62035 3.27066 2.21289 4.07031C1.97395 4.53925 1.86142 5.07046 1.80566 5.75293C1.75018 6.43241 1.75 7.28466 1.75 8.40039V16C1.75 16.1381 1.86193 16.25 2 16.25Z" fill="black"/>
</svg>
