<svg width="24" height="24" viewBox="0 0 24 24" fill="none" xmlns="http://www.w3.org/2000/svg">
<path d="M22 7.25C22.4142 7.25 22.75 7.58579 22.75 8V15.5996C22.75 16.7072 22.7509 17.5835 22.6934 18.2881C22.6351 19.0014 22.5132 19.6051 22.2324 20.1562C21.777 21.05 21.05 21.777 20.1562 22.2324C19.6051 22.5132 19.0014 22.6351 18.2881 22.6934C17.5835 22.7509 16.7072 22.75 15.5996 22.75H8C7.58579 22.75 7.25 22.4142 7.25 22C7.25 21.5858 7.58579 21.25 8 21.25H15.5996C16.732 21.25 17.5367 21.2497 18.166 21.1982C18.7866 21.1475 19.1711 21.0506 19.4756 20.8955C20.087 20.5839 20.5839 20.087 20.8955 19.4756C21.0506 19.1711 21.1475 18.7866 21.1982 18.166C21.2497 17.5367 21.25 16.732 21.25 15.5996V8C21.25 7.58579 21.5858 7.25 22 7.25Z" fill="black"/>
</svg>
