<svg width="24" height="24" viewBox="0 0 24 24" fill="none" xmlns="http://www.w3.org/2000/svg">
<path d="M22 17.25C22.6904 17.25 23.25 16.6904 23.25 16V8.40039C23.25 7.30091 23.251 6.40062 23.1914 5.6709C23.1306 4.92663 23.0005 4.24959 22.6777 3.61621C22.1744 2.62859 21.3714 1.82556 20.3838 1.32227C19.7504 0.999546 19.0734 0.869412 18.3291 0.808595C17.5994 0.748975 16.6991 0.750001 15.5996 0.750001H8C7.30964 0.750001 6.75 1.30964 6.75 2C6.75 2.69036 7.30964 3.25 8 3.25H15.5996C16.7401 3.25 17.5208 3.25144 18.125 3.30078C18.7144 3.34894 19.0258 3.43665 19.248 3.54981C19.7655 3.81346 20.1865 4.23451 20.4502 4.75195C20.5634 4.97417 20.6511 5.28557 20.6992 5.875C20.7486 6.47925 20.75 7.25989 20.75 8.40039V16C20.75 16.6904 21.3096 17.25 22 17.25Z" fill="black"/>
</svg>
