<svg width="24" height="24" viewBox="0 0 24 24" fill="none" xmlns="http://www.w3.org/2000/svg">
<path d="M22.5001 5.5C22.5001 6.05228 22.0524 6.5 21.5001 6.5H2.50012C1.94784 6.5 1.50012 6.05228 1.50012 5.5V2.5C1.50017 1.94776 1.94787 1.5 2.50012 1.5H21.5001C22.0524 1.5 22.5001 1.94776 22.5001 2.5V5.5Z" fill="black"/>
<path d="M2.50012 12.0557V8.27734H3.50012V12.0557H2.50012Z" fill="black"/>
<path d="M2.50012 17.7227V13.9443H3.50012V17.7227H2.50012Z" fill="black"/>
<path d="M3.50012 22.5C2.94784 22.5 2.50012 22.0523 2.50012 21.5V19.6113H3.50012V21.5H5.38879V22.5H3.50012Z" fill="black"/>
<path d="M7.27747 22.5V21.5H11.0558V22.5H7.27747Z" fill="black"/>
<path d="M12.9445 22.5V21.5H16.7228V22.5H12.9445Z" fill="black"/>
<path d="M21.5001 21.5C21.5001 22.0523 21.0524 22.5 20.5001 22.5H18.6115V21.5H20.5001V19.6113H21.5001V21.5Z" fill="black"/>
<path d="M20.5001 12.0557V8.27734H21.5001V12.0557H20.5001Z" fill="black"/>
<path d="M20.5001 17.7227V13.9443H21.5001V17.7227H20.5001Z" fill="black"/>
</svg>
