<svg width="24" height="24" viewBox="0 0 24 24" fill="none" xmlns="http://www.w3.org/2000/svg">
<path d="M23.2501 5.5C23.2501 6.4665 22.4666 7.25 21.5001 7.25H2.50012C1.53362 7.25 0.750122 6.4665 0.750122 5.5V2.5C0.750172 1.53355 1.53365 0.75 2.50012 0.75H21.5001C22.4666 0.75 23.2501 1.53354 23.2501 2.5V5.5Z" fill="black"/>
<path d="M4.25012 12.333H1.75012V8.66699H4.25012V12.333Z" fill="black"/>
<path d="M4.25012 17.833H1.75012V14.167H4.25012V17.833Z" fill="black"/>
<path d="M5.38879 23.25H3.50012C2.53362 23.25 1.75012 22.4665 1.75012 21.5V19.667H4.25012V20.75H5.38879V23.25Z" fill="black"/>
<path d="M11.0558 23.25H7.27747V20.75H11.0558V23.25Z" fill="black"/>
<path d="M16.7228 23.25H12.9445V20.75H16.7228V23.25Z" fill="black"/>
<path d="M22.2501 21.5C22.2501 22.4665 21.4666 23.25 20.5001 23.25H18.6115V20.75H19.7501V19.667H22.2501V21.5Z" fill="black"/>
<path d="M22.2501 12.333H19.7501V8.66699H22.2501V12.333Z" fill="black"/>
<path d="M22.2501 17.833H19.7501V14.167H22.2501V17.833Z" fill="black"/>
</svg>
