<svg width="24" height="24" viewBox="0 0 24 24" fill="none" xmlns="http://www.w3.org/2000/svg">
<path d="M22 16.5C22.2761 16.5 22.5 16.2761 22.5 16V8.40039C22.5 7.28869 22.4999 6.42447 22.4434 5.73242C22.3863 5.03453 22.2696 4.46707 22.0098 3.95703C21.5783 3.1103 20.8897 2.42166 20.043 1.99023C19.5329 1.73038 18.9655 1.61366 18.2676 1.55664C17.5755 1.50012 16.7113 1.5 15.5996 1.5H8C7.72386 1.5 7.5 1.72386 7.5 2C7.5 2.27614 7.72386 2.5 8 2.5H15.5996C16.728 2.5 17.5446 2.50029 18.1865 2.55273C18.8226 2.60471 19.2433 2.70575 19.5889 2.88184C20.2474 3.21738 20.7826 3.75262 21.1182 4.41113C21.2942 4.75672 21.3953 5.17741 21.4473 5.81348C21.4997 6.4554 21.5 7.27204 21.5 8.40039V16C21.5 16.2761 21.7239 16.5 22 16.5Z" fill="black"/>
</svg>
