<svg width="24" height="24" viewBox="0 0 24 24" fill="none" xmlns="http://www.w3.org/2000/svg">
<path fill-rule="evenodd" clip-rule="evenodd" d="M23 5.5C23 6.32843 22.3284 7 21.5 7H2.5C1.67157 7 1 6.32843 1 5.5V2.5C1.00005 1.67162 1.6716 1 2.5 1H21.5C22.3284 1 23 1.67161 23 2.5V5.5ZM21 3H3V5H21V3Z" fill="black"/>
<path d="M4 12.333H2V8.66699H4V12.333Z" fill="black"/>
<path d="M4 17.833H2V14.167H4V17.833Z" fill="black"/>
<path d="M5.38867 23H3.5C2.67157 23 2 22.3284 2 21.5V19.667H4V21H5.38867V23Z" fill="black"/>
<path d="M11.0557 23H7.27734V21H11.0557V23Z" fill="black"/>
<path d="M16.7227 23H12.9443V21H16.7227V23Z" fill="black"/>
<path d="M22 21.5C22 22.3284 21.3284 23 20.5 23H18.6113V21H20V19.667H22V21.5Z" fill="black"/>
<path d="M22 12.333H20V8.66699H22V12.333Z" fill="black"/>
<path d="M22 17.833H20V14.167H22V17.833Z" fill="black"/>
</svg>
