<svg width="24" height="24" viewBox="0 0 24 24" fill="none" xmlns="http://www.w3.org/2000/svg">
<path fill-rule="evenodd" clip-rule="evenodd" d="M18.5996 18.1006C18.5994 18.3766 18.3756 18.6006 18.0996 18.6006H5.90039C5.62455 18.6004 5.4006 18.3764 5.40039 18.1006V5.90039C5.4005 5.62447 5.6245 5.4006 5.90039 5.40039H18.0996C18.3757 5.40039 18.5995 5.62434 18.5996 5.90039V18.1006ZM7.40039 7.40039V16.6006H16.5996V7.40039H7.40039Z" fill="black"/>
<path fill-rule="evenodd" clip-rule="evenodd" d="M23 22.5C23 22.7761 22.7761 23 22.5 23H1.5C1.22386 23 1 22.7761 1 22.5V1.5C1.00025 1.22407 1.22401 1 1.5 1H22.5C22.776 1 22.9998 1.22407 23 1.5V22.5ZM3 3V21H21V3H3Z" fill="black"/>
</svg>
