<svg width="24" height="24" viewBox="0 0 24 24" fill="none" xmlns="http://www.w3.org/2000/svg">
<path fill-rule="evenodd" clip-rule="evenodd" d="M22.5 18.5C22.5 17.9477 22.0523 17.5 21.5 17.5H2.5C1.94772 17.5 1.5 17.9477 1.5 18.5V21.5C1.50005 22.0522 1.94774 22.5 2.5 22.5H21.5C22.0523 22.5 22.5 22.0522 22.5 21.5V18.5ZM21.5 21.5H2.5V18.5H21.5V21.5Z" fill="black"/>
<path d="M2.5 11.9443V15.7227H3.5V11.9443H2.5Z" fill="black"/>
<path d="M2.5 6.27734V10.0557H3.5V6.27734H2.5Z" fill="black"/>
<path d="M3.5 1.5C2.94772 1.5 2.5 1.94772 2.5 2.5V4.38867H3.5V2.5H5.38867V1.5H3.5Z" fill="black"/>
<path d="M7.27734 1.5V2.5H11.0557V1.5H7.27734Z" fill="black"/>
<path d="M12.9443 1.5V2.5H16.7227V1.5H12.9443Z" fill="black"/>
<path d="M21.5 2.5C21.5 1.94772 21.0523 1.5 20.5 1.5H18.6113V2.5H20.5V4.38867H21.5V2.5Z" fill="black"/>
<path d="M20.5 11.9443V15.7227H21.5V11.9443H20.5Z" fill="black"/>
<path d="M20.5 6.27734V10.0557H21.5V6.27734H20.5Z" fill="black"/>
</svg>
