<svg width="24" height="24" viewBox="0 0 24 24" fill="none" xmlns="http://www.w3.org/2000/svg">
<path d="M22 16.25C22.1381 16.25 22.25 16.1381 22.25 16V8.40039C22.25 7.28466 22.2498 6.43241 22.1943 5.75293C22.1386 5.07046 22.026 4.53925 21.7871 4.07031C21.3797 3.27066 20.7293 2.62035 19.9297 2.21289C19.4607 1.97395 18.9295 1.86142 18.2471 1.80566C17.5676 1.75018 16.7153 1.75 15.5996 1.75H8C7.86193 1.75 7.75 1.86193 7.75 2C7.75 2.13807 7.86193 2.25 8 2.25H15.5996C16.7238 2.25 17.5526 2.25024 18.207 2.30371C18.8584 2.35695 19.3155 2.46219 19.7021 2.65918C20.4078 3.0187 20.9813 3.59224 21.3408 4.29785C21.5378 4.6845 21.6431 5.14156 21.6963 5.79297C21.7498 6.44744 21.75 7.27616 21.75 8.40039V16C21.75 16.1381 21.8619 16.25 22 16.25Z" fill="black"/>
</svg>
