<svg width="24" height="24" viewBox="0 0 24 24" fill="none" xmlns="http://www.w3.org/2000/svg">
<path d="M5.5 1C6.32843 1 7 1.67157 7 2.5V21.5C7 22.3284 6.32843 23 5.5 23H2.5C1.67162 23 1 22.3284 1 21.5V2.5C1 1.6716 1.67161 1.00005 2.5 1H5.5Z" fill="black"/>
<path d="M12.333 20V22H8.66699V20H12.333Z" fill="black"/>
<path d="M17.833 20V22H14.167V20H17.833Z" fill="black"/>
<path d="M23 18.6113V20.5C23 21.3284 22.3284 22 21.5 22H19.667V20H21V18.6113H23Z" fill="black"/>
<path d="M23 12.9443V16.7227H21V12.9443H23Z" fill="black"/>
<path d="M23 7.27734V11.0557H21V7.27734H23Z" fill="black"/>
<path d="M21.5 2C22.3284 2 23 2.67157 23 3.5V5.38867H21V4H19.667V2H21.5Z" fill="black"/>
<path d="M12.333 2V4H8.66699V2H12.333Z" fill="black"/>
<path d="M17.833 2V4H14.167V2H17.833Z" fill="black"/>
</svg>
