<svg width="24" height="24" viewBox="0 0 24 24" fill="none" xmlns="http://www.w3.org/2000/svg">
<path d="M23.0001 18.5C23.0001 17.6716 22.3286 17 21.5001 17H2.50012C1.6717 17 1.00012 17.6716 1.00012 18.5V21.5C1.00017 22.3284 1.67172 23 2.50012 23H21.5001C22.3285 23 23.0001 22.3284 23.0001 21.5V18.5Z" fill="black"/>
<path d="M4.00012 11.667H2.00012V15.333H4.00012V11.667Z" fill="black"/>
<path d="M4.00012 6.16699H2.00012V9.83301H4.00012V6.16699Z" fill="black"/>
<path d="M5.38879 1H3.50012C2.6717 1 2.00012 1.67157 2.00012 2.5V4.33301H4.00012V3H5.38879V1Z" fill="black"/>
<path d="M11.0558 1H7.27747V3H11.0558V1Z" fill="black"/>
<path d="M16.7228 1H12.9445V3H16.7228V1Z" fill="black"/>
<path d="M22.0001 2.5C22.0001 1.67157 21.3285 1 20.5001 1H18.6115V3H20.0001V4.33301H22.0001V2.5Z" fill="black"/>
<path d="M22.0001 11.667H20.0001V15.333H22.0001V11.667Z" fill="black"/>
<path d="M22.0001 6.16699H20.0001V9.83301H22.0001V6.16699Z" fill="black"/>
</svg>
