<svg width="24" height="24" viewBox="0 0 24 24" fill="none" xmlns="http://www.w3.org/2000/svg">
<path d="M2 17.25C2.69036 17.25 3.25 16.6904 3.25 16V8.40039C3.25 7.25989 3.25144 6.47925 3.30078 5.875C3.34894 5.28557 3.43665 4.97417 3.54981 4.75195C3.81346 4.23451 4.23451 3.81346 4.75195 3.54981C4.97417 3.43665 5.28557 3.34894 5.875 3.30078C6.47925 3.25144 7.25989 3.25 8.40039 3.25H16C16.6904 3.25 17.25 2.69036 17.25 2C17.25 1.30964 16.6904 0.750001 16 0.750001H8.40039C7.30091 0.750001 6.40062 0.748975 5.6709 0.808595C4.92664 0.869412 4.24959 0.999546 3.61621 1.32227C2.62859 1.82556 1.82556 2.62859 1.32227 3.61621C0.999546 4.24959 0.869411 4.92663 0.808595 5.6709C0.748975 6.40062 0.750001 7.30091 0.750001 8.40039V16C0.750001 16.6904 1.30965 17.25 2 17.25Z" fill="black"/>
</svg>
