<svg width="24" height="24" viewBox="0 0 24 24" fill="none" xmlns="http://www.w3.org/2000/svg">
<path fill-rule="evenodd" clip-rule="evenodd" d="M18.5 1.75C18.0858 1.75 17.75 2.08579 17.75 2.5V21.5C17.75 21.9142 18.0858 22.25 18.5 22.25H21.5C21.9142 22.25 22.25 21.9142 22.25 21.5V2.5C22.25 2.08582 21.9142 1.75005 21.5 1.75H18.5ZM21.5 2.25C21.638 2.25005 21.75 2.36196 21.75 2.5V21.5C21.75 21.638 21.638 21.75 21.5 21.75H18.5C18.3619 21.75 18.25 21.6381 18.25 21.5V2.5C18.25 2.36193 18.3619 2.25 18.5 2.25H21.5Z" fill="black"/>
<path d="M12.083 21.25H15.917V20.75H12.083V21.25Z" fill="black"/>
<path d="M6.33301 21.25H10.167V20.75H6.33301V21.25Z" fill="black"/>
<path d="M1.75 20.5C1.75 20.9142 2.08579 21.25 2.5 21.25H4.41699V20.75H2.5C2.36193 20.75 2.25 20.6381 2.25 20.5V18.6113H1.75V20.5Z" fill="black"/>
<path d="M1.75 16.7227H2.25V12.9443H1.75V16.7227Z" fill="black"/>
<path d="M1.75 11.0557H2.25V7.27734H1.75V11.0557Z" fill="black"/>
<path d="M2.5 2.75C2.08579 2.75 1.75 3.08579 1.75 3.5V5.38867H2.25V3.5C2.25 3.36193 2.36193 3.25 2.5 3.25H4.41699V2.75H2.5Z" fill="black"/>
<path d="M12.083 3.25H15.917V2.75H12.083V3.25Z" fill="black"/>
<path d="M6.33301 3.25H10.167V2.75H6.33301V3.25Z" fill="black"/>
</svg>
