<svg width="24" height="24" viewBox="0 0 24 24" fill="none" xmlns="http://www.w3.org/2000/svg">
<path d="M23.0001 5.5C23.0001 6.32843 22.3286 7 21.5001 7H2.50012C1.6717 7 1.00012 6.32843 1.00012 5.5V2.5C1.00017 1.67162 1.67172 1 2.50012 1H21.5001C22.3285 1 23.0001 1.67161 23.0001 2.5V5.5Z" fill="black"/>
<path d="M4.00012 12.333H2.00012V8.66699H4.00012V12.333Z" fill="black"/>
<path d="M4.00012 17.833H2.00012V14.167H4.00012V17.833Z" fill="black"/>
<path d="M5.38879 23H3.50012C2.6717 23 2.00012 22.3284 2.00012 21.5V19.667H4.00012V21H5.38879V23Z" fill="black"/>
<path d="M11.0558 23H7.27747V21H11.0558V23Z" fill="black"/>
<path d="M16.7228 23H12.9445V21H16.7228V23Z" fill="black"/>
<path d="M22.0001 21.5C22.0001 22.3284 21.3285 23 20.5001 23H18.6115V21H20.0001V19.667H22.0001V21.5Z" fill="black"/>
<path d="M22.0001 12.333H20.0001V8.66699H22.0001V12.333Z" fill="black"/>
<path d="M22.0001 17.833H20.0001V14.167H22.0001V17.833Z" fill="black"/>
</svg>
