<svg width="24" height="24" viewBox="0 0 24 24" fill="none" xmlns="http://www.w3.org/2000/svg">
<path fill-rule="evenodd" clip-rule="evenodd" d="M22.5 5.5C22.5 6.05228 22.0523 6.5 21.5 6.5H2.5C1.94772 6.5 1.5 6.05228 1.5 5.5V2.5C1.50005 1.94776 1.94774 1.5 2.5 1.5H21.5C22.0523 1.5 22.5 1.94776 22.5 2.5V5.5ZM21.5 2.5H2.5V5.5H21.5V2.5Z" fill="black"/>
<path d="M2.5 12.0557V8.27734H3.5V12.0557H2.5Z" fill="black"/>
<path d="M2.5 17.7227V13.9443H3.5V17.7227H2.5Z" fill="black"/>
<path d="M3.5 22.5C2.94772 22.5 2.5 22.0523 2.5 21.5V19.6113H3.5V21.5H5.38867V22.5H3.5Z" fill="black"/>
<path d="M7.27734 22.5V21.5H11.0557V22.5H7.27734Z" fill="black"/>
<path d="M12.9443 22.5V21.5H16.7227V22.5H12.9443Z" fill="black"/>
<path d="M21.5 21.5C21.5 22.0523 21.0523 22.5 20.5 22.5H18.6113V21.5H20.5V19.6113H21.5V21.5Z" fill="black"/>
<path d="M20.5 12.0557V8.27734H21.5V12.0557H20.5Z" fill="black"/>
<path d="M20.5 17.7227V13.9443H21.5V17.7227H20.5Z" fill="black"/>
</svg>
