<svg width="24" height="24" viewBox="0 0 24 24" fill="none" xmlns="http://www.w3.org/2000/svg">
<path fill-rule="evenodd" clip-rule="evenodd" d="M23 22.5C23 22.7761 22.7761 23 22.5 23H1.5C1.22386 23 1 22.7761 1 22.5V1.5C1.00025 1.22407 1.22401 1 1.5 1H22.5C22.776 1 22.9998 1.22407 23 1.5V22.5ZM18.5996 5.90039C18.5995 5.62434 18.3757 5.40039 18.0996 5.40039H5.90039C5.62432 5.40039 5.4005 5.62434 5.40039 5.90039V18.1006C5.4006 18.3766 5.62438 18.6006 5.90039 18.6006H18.0996C18.3756 18.6006 18.5994 18.3766 18.5996 18.1006V5.90039Z" fill="black"/>
</svg>
