<svg width="24" height="24" viewBox="0 0 24 24" fill="none" xmlns="http://www.w3.org/2000/svg">
<path d="M22.2501 18.5C22.2501 18.0858 21.9143 17.75 21.5001 17.75H2.50012C2.08591 17.75 1.75012 18.0858 1.75012 18.5V21.5C1.75017 21.9142 2.08594 22.25 2.50012 22.25H21.5001C21.9143 22.25 22.2501 21.9142 22.2501 21.5V18.5Z" fill="black"/>
<path d="M2.75012 12.083V15.917H3.25012V12.083H2.75012Z" fill="black"/>
<path d="M2.75012 6.33301V10.167H3.25012V6.33301H2.75012Z" fill="black"/>
<path d="M3.50012 1.75C3.08591 1.75 2.75012 2.08579 2.75012 2.5V4.41699H3.25012V2.5C3.25012 2.36193 3.36205 2.25 3.50012 2.25H5.38879V1.75H3.50012Z" fill="black"/>
<path d="M7.27747 1.75V2.25H11.0558V1.75H7.27747Z" fill="black"/>
<path d="M12.9445 1.75V2.25H16.7228V1.75H12.9445Z" fill="black"/>
<path d="M21.2501 2.5C21.2501 2.08579 20.9143 1.75 20.5001 1.75H18.6115V2.25H20.5001C20.6382 2.25 20.7501 2.36193 20.7501 2.5V4.41699H21.2501V2.5Z" fill="black"/>
<path d="M20.7501 12.083V15.917H21.2501V12.083H20.7501Z" fill="black"/>
<path d="M20.7501 6.33301V10.167H21.2501V6.33301H20.7501Z" fill="black"/>
</svg>
