<svg width="24" height="24" viewBox="0 0 24 24" fill="none" xmlns="http://www.w3.org/2000/svg">
<path fill-rule="evenodd" clip-rule="evenodd" d="M5.5 1.75C5.91421 1.75 6.25 2.08579 6.25 2.5V21.5C6.25 21.9142 5.91421 22.25 5.5 22.25H2.5C2.08583 22.25 1.75 21.9142 1.75 21.5V2.5C1.75 2.08582 2.08583 1.75005 2.5 1.75H5.5ZM2.5 2.25C2.36197 2.25005 2.25 2.36196 2.25 2.5V21.5C2.25 21.638 2.36197 21.75 2.5 21.75H5.5C5.63807 21.75 5.75 21.6381 5.75 21.5V2.5C5.75 2.36193 5.63807 2.25 5.5 2.25H2.5Z" fill="black"/>
<path d="M11.917 21.25H8.08301V20.75H11.917V21.25Z" fill="black"/>
<path d="M17.667 21.25H13.833V20.75H17.667V21.25Z" fill="black"/>
<path d="M22.25 20.5C22.25 20.9142 21.9142 21.25 21.5 21.25H19.583V20.75H21.5C21.6381 20.75 21.75 20.6381 21.75 20.5V18.6113H22.25V20.5Z" fill="black"/>
<path d="M22.25 16.7227H21.75V12.9443H22.25V16.7227Z" fill="black"/>
<path d="M22.25 11.0557H21.75V7.27734H22.25V11.0557Z" fill="black"/>
<path d="M21.5 2.75C21.9142 2.75 22.25 3.08579 22.25 3.5V5.38867H21.75V3.5C21.75 3.36193 21.6381 3.25 21.5 3.25H19.583V2.75H21.5Z" fill="black"/>
<path d="M11.917 3.25H8.08301V2.75H11.917V3.25Z" fill="black"/>
<path d="M17.667 3.25H13.833V2.75H17.667V3.25Z" fill="black"/>
</svg>
