<svg width="24" height="24" viewBox="0 0 24 24" fill="none" xmlns="http://www.w3.org/2000/svg">
<path d="M5.5 1.5C6.05228 1.5 6.5 1.94771 6.5 2.5V21.5C6.5 22.0523 6.05228 22.5 5.5 22.5H2.5C1.94776 22.5 1.5 22.0523 1.5 21.5V2.5C1.5 1.94775 1.94776 1.50005 2.5 1.5H5.5Z" fill="black"/>
<path d="M12.0557 21.5H8.27734V20.5H12.0557V21.5Z" fill="black"/>
<path d="M17.7227 21.5H13.9443V20.5H17.7227V21.5Z" fill="black"/>
<path d="M22.5 20.5C22.5 21.0523 22.0523 21.5 21.5 21.5H19.6113V20.5H21.5V18.6113H22.5V20.5Z" fill="black"/>
<path d="M22.5 16.7227H21.5V12.9443H22.5V16.7227Z" fill="black"/>
<path d="M22.5 11.0557H21.5V7.27734H22.5V11.0557Z" fill="black"/>
<path d="M21.5 2.5C22.0523 2.5 22.5 2.94772 22.5 3.5V5.38867H21.5V3.5H19.6113V2.5H21.5Z" fill="black"/>
<path d="M12.0557 3.5H8.27734V2.5H12.0557V3.5Z" fill="black"/>
<path d="M17.7227 3.5H13.9443V2.5H17.7227V3.5Z" fill="black"/>
</svg>
