<svg width="24" height="24" viewBox="0 0 24 24" fill="none" xmlns="http://www.w3.org/2000/svg">
<path d="M22 16.75C22.4142 16.75 22.75 16.4142 22.75 16V8.40039C22.75 7.29277 22.7509 6.41651 22.6934 5.71192C22.6351 4.99862 22.5132 4.39487 22.2324 3.84375C21.777 2.94998 21.05 2.22298 20.1562 1.76758C19.6051 1.48682 19.0014 1.36492 18.2881 1.30664C17.5835 1.24909 16.7072 1.25 15.5996 1.25H8C7.58579 1.25 7.25 1.58579 7.25 2C7.25 2.41421 7.58579 2.75 8 2.75H15.5996C16.732 2.75 17.5367 2.75035 18.166 2.80176C18.7866 2.85247 19.1711 2.94936 19.4756 3.10449C20.087 3.41605 20.5839 3.91305 20.8955 4.52442C21.0506 4.82889 21.1475 5.21336 21.1982 5.83399C21.2497 6.46335 21.25 7.26798 21.25 8.40039V16C21.25 16.4142 21.5858 16.75 22 16.75Z" fill="black"/>
</svg>
