<svg width="24" height="24" viewBox="0 0 24 24" fill="none" xmlns="http://www.w3.org/2000/svg">
<path d="M22 6.75C22.6904 6.75 23.25 7.30964 23.25 8V15.5996C23.25 16.6991 23.251 17.5994 23.1914 18.3291C23.1306 19.0734 23.0005 19.7504 22.6777 20.3838C22.1744 21.3714 21.3714 22.1744 20.3838 22.6777C19.7504 23.0005 19.0734 23.1306 18.3291 23.1914C17.5994 23.251 16.6991 23.25 15.5996 23.25H8C7.30964 23.25 6.75 22.6904 6.75 22C6.75 21.3096 7.30964 20.75 8 20.75H15.5996C16.7401 20.75 17.5208 20.7486 18.125 20.6992C18.7144 20.6511 19.0258 20.5634 19.248 20.4502C19.7655 20.1865 20.1865 19.7655 20.4502 19.248C20.5634 19.0258 20.6511 18.7144 20.6992 18.125C20.7486 17.5208 20.75 16.7401 20.75 15.5996V8C20.75 7.30964 21.3096 6.75 22 6.75Z" fill="black"/>
</svg>
