<svg width="24" height="24" viewBox="0 0 24 24" fill="none" xmlns="http://www.w3.org/2000/svg">
<path d="M5.5 0.75C6.4665 0.75 7.25 1.5335 7.25 2.5V21.5C7.25 22.4665 6.4665 23.25 5.5 23.25H2.5C1.53355 23.25 0.75 22.4665 0.75 21.5V2.5C0.75 1.53353 1.53354 0.750049 2.5 0.75H5.5Z" fill="black"/>
<path d="M12.333 19.75V22.25H8.66699V19.75H12.333Z" fill="black"/>
<path d="M17.833 19.75V22.25H14.167V19.75H17.833Z" fill="black"/>
<path d="M23.25 18.6113V20.5C23.25 21.4665 22.4665 22.25 21.5 22.25H19.667V19.75H20.75V18.6113H23.25Z" fill="black"/>
<path d="M23.25 12.9443V16.7227H20.75V12.9443H23.25Z" fill="black"/>
<path d="M23.25 7.27734V11.0557H20.75V7.27734H23.25Z" fill="black"/>
<path d="M21.5 1.75C22.4665 1.75 23.25 2.5335 23.25 3.5V5.38867H20.75V4.25H19.667V1.75H21.5Z" fill="black"/>
<path d="M12.333 1.75V4.25H8.66699V1.75H12.333Z" fill="black"/>
<path d="M17.833 1.75V4.25H14.167V1.75H17.833Z" fill="black"/>
</svg>
