<svg width="24" height="24" viewBox="0 0 24 24" fill="none" xmlns="http://www.w3.org/2000/svg">
<path d="M22.5001 18.5C22.5001 17.9477 22.0524 17.5 21.5001 17.5H2.50012C1.94784 17.5 1.50012 17.9477 1.50012 18.5V21.5C1.50017 22.0522 1.94787 22.5 2.50012 22.5H21.5001C22.0524 22.5 22.5001 22.0522 22.5001 21.5V18.5Z" fill="black"/>
<path d="M2.50012 11.9443V15.7227H3.50012V11.9443H2.50012Z" fill="black"/>
<path d="M2.50012 6.27734V10.0557H3.50012V6.27734H2.50012Z" fill="black"/>
<path d="M3.50012 1.5C2.94784 1.5 2.50012 1.94772 2.50012 2.5V4.38867H3.50012V2.5H5.38879V1.5H3.50012Z" fill="black"/>
<path d="M7.27747 1.5V2.5H11.0558V1.5H7.27747Z" fill="black"/>
<path d="M12.9445 1.5V2.5H16.7228V1.5H12.9445Z" fill="black"/>
<path d="M21.5001 2.5C21.5001 1.94772 21.0524 1.5 20.5001 1.5H18.6115V2.5H20.5001V4.38867H21.5001V2.5Z" fill="black"/>
<path d="M20.5001 11.9443V15.7227H21.5001V11.9443H20.5001Z" fill="black"/>
<path d="M20.5001 6.27734V10.0557H21.5001V6.27734H20.5001Z" fill="black"/>
</svg>
