<svg width="24" height="24" viewBox="0 0 24 24" fill="none" xmlns="http://www.w3.org/2000/svg">
<path d="M2 15.75C2.13807 15.75 2.25 15.8619 2.25 16C2.25 16.9353 2.24976 17.6245 2.28711 18.1719C2.32431 18.7168 2.39766 19.1036 2.53516 19.4355C2.91575 20.3542 3.64585 21.0842 4.56445 21.4648C4.89641 21.6023 5.28316 21.6757 5.82812 21.7129C6.37547 21.7502 7.0647 21.75 8 21.75C8.13807 21.75 8.25 21.8619 8.25 22C8.25 22.1381 8.13807 22.25 8 22.25C7.07154 22.25 6.36226 22.2497 5.79395 22.2109C5.22382 22.172 4.77688 22.0935 4.37402 21.9268C3.33265 21.4954 2.50459 20.6673 2.07324 19.626C1.90645 19.2231 1.82799 18.7762 1.78906 18.2061C1.75029 17.6377 1.75 16.9285 1.75 16C1.75 15.8619 1.86193 15.75 2 15.75Z" fill="black"/>
<path d="M22 15.75C22.1381 15.75 22.25 15.8619 22.25 16C22.25 16.9285 22.2497 17.6377 22.2109 18.2061C22.172 18.7762 22.0935 19.2231 21.9268 19.626C21.4954 20.6673 20.6673 21.4954 19.626 21.9268C19.2231 22.0935 18.7762 22.172 18.2061 22.2109C17.6377 22.2497 16.9285 22.25 16 22.25C15.8619 22.25 15.75 22.1381 15.75 22C15.75 21.8619 15.8619 21.75 16 21.75C16.9353 21.75 17.6245 21.7502 18.1719 21.7129C18.7168 21.6757 19.1036 21.6023 19.4355 21.4648C20.3542 21.0842 21.0842 20.3542 21.4648 19.4355C21.6023 19.1036 21.6757 18.7168 21.7129 18.1719C21.7502 17.6245 21.75 16.9353 21.75 16C21.75 15.8619 21.8619 15.75 22 15.75Z" fill="black"/>
<path d="M8 1.75C8.13807 1.75 8.25 1.86193 8.25 2C8.25 2.13807 8.13807 2.25 8 2.25C7.0647 2.25 6.37547 2.24976 5.82812 2.28711C5.28316 2.32431 4.89641 2.39766 4.56445 2.53516C3.64585 2.91575 2.91575 3.64585 2.53516 4.56445C2.39766 4.89641 2.32431 5.28316 2.28711 5.82812C2.24976 6.37547 2.25 7.0647 2.25 8C2.25 8.13807 2.13807 8.25 2 8.25C1.86193 8.25 1.75 8.13807 1.75 8C1.75 7.07154 1.75029 6.36226 1.78906 5.79395C1.82799 5.22382 1.90645 4.77688 2.07324 4.37402C2.50459 3.33265 3.33265 2.50459 4.37402 2.07324C4.77688 1.90645 5.22382 1.82799 5.79395 1.78906C6.36226 1.75029 7.07154 1.75 8 1.75Z" fill="black"/>
<path d="M16 1.75C16.9285 1.75 17.6377 1.75029 18.2061 1.78906C18.7762 1.82799 19.2231 1.90645 19.626 2.07324C20.6673 2.50459 21.4954 3.33265 21.9268 4.37402C22.0935 4.77688 22.172 5.22382 22.2109 5.79395C22.2497 6.36226 22.25 7.07154 22.25 8C22.25 8.13807 22.1381 8.25 22 8.25C21.8619 8.25 21.75 8.13807 21.75 8C21.75 7.0647 21.7502 6.37547 21.7129 5.82812C21.6757 5.28316 21.6023 4.89641 21.4648 4.56445C21.0842 3.64585 20.3542 2.91575 19.4355 2.53516C19.1036 2.39766 18.7168 2.32431 18.1719 2.28711C17.6245 2.24976 16.9353 2.25 16 2.25C15.8619 2.25 15.75 2.13807 15.75 2C15.75 1.86193 15.8619 1.75 16 1.75Z" fill="black"/>
</svg>
