<svg width="24" height="24" viewBox="0 0 24 24" fill="none" xmlns="http://www.w3.org/2000/svg">
<path d="M2 15C2.55229 15 3 15.4477 3 16C3 16.9453 3.00096 17.6043 3.03613 18.1201C3.07072 18.627 3.13516 18.9231 3.22852 19.1484C3.53299 19.8832 4.11679 20.467 4.85156 20.7715C5.07695 20.8648 5.37297 20.9293 5.87988 20.9639C6.39572 20.999 7.05468 21 8 21C8.55229 21 9 21.4477 9 22C9 22.5523 8.55229 23 8 23C7.0818 23 6.34293 23.0009 5.74317 22.96C5.13455 22.9184 4.59653 22.8302 4.08692 22.6191C2.86178 22.1117 1.88833 21.1382 1.38086 19.9131C1.16981 19.4035 1.08157 18.8655 1.04004 18.2568C0.999119 17.6571 1 16.9182 1 16C1 15.4477 1.44772 15 2 15Z" fill="black"/>
<path d="M22 15C22.5523 15 23 15.4477 23 16C23 16.9182 23.0009 17.6571 22.96 18.2568C22.9184 18.8655 22.8302 19.4035 22.6191 19.9131C22.1117 21.1382 21.1382 22.1117 19.9131 22.6191C19.4035 22.8302 18.8655 22.9184 18.2568 22.96C17.6571 23.0009 16.9182 23 16 23C15.4477 23 15 22.5523 15 22C15 21.4477 15.4477 21 16 21C16.9453 21 17.6043 20.999 18.1201 20.9639C18.627 20.9293 18.9231 20.8648 19.1484 20.7715C19.8832 20.467 20.467 19.8832 20.7715 19.1484C20.8648 18.9231 20.9293 18.627 20.9639 18.1201C20.999 17.6043 21 16.9453 21 16C21 15.4477 21.4477 15 22 15Z" fill="black"/>
<path d="M8 1C8.55229 1 9 1.44772 9 2C9 2.55229 8.55229 3 8 3C7.05468 3 6.39572 3.00096 5.87988 3.03613C5.37297 3.07072 5.07695 3.13516 4.85156 3.22852C4.11679 3.53299 3.53299 4.11679 3.22852 4.85156C3.13516 5.07695 3.07072 5.37297 3.03613 5.87988C3.00096 6.39572 3 7.05468 3 8C3 8.55229 2.55229 9 2 9C1.44772 9 1 8.55229 1 8C1 7.0818 0.999119 6.34293 1.04004 5.74317C1.08157 5.13455 1.16981 4.59652 1.38086 4.08692C1.88833 2.86178 2.86178 1.88833 4.08692 1.38086C4.59652 1.16981 5.13455 1.08157 5.74317 1.04004C6.34293 0.999119 7.0818 1 8 1Z" fill="black"/>
<path d="M16 1C16.9182 1 17.6571 0.999119 18.2568 1.04004C18.8655 1.08157 19.4035 1.16981 19.9131 1.38086C21.1382 1.88833 22.1117 2.86178 22.6191 4.08692C22.8302 4.59652 22.9184 5.13455 22.96 5.74317C23.0009 6.34293 23 7.0818 23 8C23 8.55229 22.5523 9 22 9C21.4477 9 21 8.55229 21 8C21 7.05468 20.999 6.39572 20.9639 5.87988C20.9293 5.37297 20.8648 5.07695 20.7715 4.85156C20.467 4.11679 19.8832 3.53299 19.1484 3.22852C18.9231 3.13516 18.627 3.07072 18.1201 3.03613C17.6043 3.00096 16.9453 3 16 3C15.4477 3 15 2.55229 15 2C15 1.44772 15.4477 1 16 1Z" fill="black"/>
</svg>
