<svg width="24" height="24" viewBox="0 0 24 24" fill="none" xmlns="http://www.w3.org/2000/svg">
<path d="M22 7.5C22.2761 7.5 22.5 7.72386 22.5 8V15.5996C22.5 16.7113 22.4999 17.5755 22.4434 18.2676C22.3863 18.9655 22.2696 19.5329 22.0098 20.043C21.5783 20.8897 20.8897 21.5783 20.043 22.0098C19.5329 22.2696 18.9655 22.3863 18.2676 22.4434C17.5755 22.4999 16.7113 22.5 15.5996 22.5H8C7.72386 22.5 7.5 22.2761 7.5 22C7.5 21.7239 7.72386 21.5 8 21.5H15.5996C16.728 21.5 17.5446 21.4997 18.1865 21.4473C18.8226 21.3953 19.2433 21.2942 19.5889 21.1182C20.2474 20.7826 20.7826 20.2474 21.1182 19.5889C21.2942 19.2433 21.3953 18.8226 21.4473 18.1865C21.4997 17.5446 21.5 16.728 21.5 15.5996V8C21.5 7.72386 21.7239 7.5 22 7.5Z" fill="black"/>
</svg>
