<svg width="24" height="24" viewBox="0 0 24 24" fill="none" xmlns="http://www.w3.org/2000/svg">
<path d="M2 7.25C2.41421 7.25 2.75 7.58579 2.75 8V15.5996C2.75 16.732 2.75035 17.5367 2.80176 18.166C2.85247 18.7866 2.94936 19.1711 3.10449 19.4756C3.41605 20.087 3.91305 20.5839 4.52442 20.8955C4.82889 21.0506 5.21336 21.1475 5.83399 21.1982C6.46335 21.2497 7.26798 21.25 8.40039 21.25H16C16.4142 21.25 16.75 21.5858 16.75 22C16.75 22.4142 16.4142 22.75 16 22.75H8.40039C7.29277 22.75 6.41651 22.7509 5.71192 22.6934C4.99862 22.6351 4.39487 22.5132 3.84375 22.2324C2.94998 21.777 2.22298 21.05 1.76758 20.1562C1.48682 19.6051 1.36492 19.0014 1.30664 18.2881C1.24909 17.5835 1.25 16.7072 1.25 15.5996V8C1.25 7.58579 1.58579 7.25 2 7.25Z" fill="black"/>
</svg>
