<svg width="24" height="24" viewBox="0 0 24 24" fill="none" xmlns="http://www.w3.org/2000/svg">
<path d="M18.5 1.5C17.9477 1.5 17.5 1.94771 17.5 2.5V21.5C17.5 22.0523 17.9477 22.5 18.5 22.5H21.5C22.0522 22.5 22.5 22.0523 22.5 21.5V2.5C22.5 1.94775 22.0522 1.50005 21.5 1.5H18.5Z" fill="black"/>
<path d="M11.9443 21.5H15.7227V20.5H11.9443V21.5Z" fill="black"/>
<path d="M6.27734 21.5H10.0557V20.5H6.27734V21.5Z" fill="black"/>
<path d="M1.5 20.5C1.5 21.0523 1.94772 21.5 2.5 21.5H4.38867V20.5H2.5V18.6113H1.5V20.5Z" fill="black"/>
<path d="M1.5 16.7227H2.5V12.9443H1.5V16.7227Z" fill="black"/>
<path d="M1.5 11.0557H2.5V7.27734H1.5V11.0557Z" fill="black"/>
<path d="M2.5 2.5C1.94772 2.5 1.5 2.94772 1.5 3.5V5.38867H2.5V3.5H4.38867V2.5H2.5Z" fill="black"/>
<path d="M11.9443 3.5H15.7227V2.5H11.9443V3.5Z" fill="black"/>
<path d="M6.27734 3.5H10.0557V2.5H6.27734V3.5Z" fill="black"/>
</svg>
