<svg width="24" height="24" viewBox="0 0 24 24" fill="none" xmlns="http://www.w3.org/2000/svg">
<path d="M22.7501 18.5C22.7501 17.8096 22.1905 17.25 21.5001 17.25H2.50012C1.80977 17.25 1.25012 17.8096 1.25012 18.5V21.5C1.25017 22.1903 1.8098 22.75 2.50012 22.75H21.5001C22.1904 22.75 22.7501 22.1903 22.7501 21.5V18.5Z" fill="black"/>
<path d="M2.25012 11.8057V15.5273H3.75012V11.8057H2.25012Z" fill="black"/>
<path d="M2.25012 6.22266V9.94434H3.75012V6.22266H2.25012Z" fill="black"/>
<path d="M3.50012 1.25C2.80977 1.25 2.25012 1.80964 2.25012 2.5V4.36133H3.75012V2.75H5.38879V1.25H3.50012Z" fill="black"/>
<path d="M7.27747 1.25V2.75H11.0558V1.25H7.27747Z" fill="black"/>
<path d="M12.9445 1.25V2.75H16.7228V1.25H12.9445Z" fill="black"/>
<path d="M21.7501 2.5C21.7501 1.80964 21.1905 1.25 20.5001 1.25H18.6115V2.75H20.2501V4.36133H21.7501V2.5Z" fill="black"/>
<path d="M20.2501 11.8057V15.5273H21.7501V11.8057H20.2501Z" fill="black"/>
<path d="M20.2501 6.22266V9.94434H21.7501V6.22266H20.2501Z" fill="black"/>
</svg>
