<svg width="24" height="24" viewBox="0 0 24 24" fill="none" xmlns="http://www.w3.org/2000/svg">
<path d="M2 16.5C2.27614 16.5 2.5 16.2761 2.5 16V8.40039C2.5 7.27204 2.50029 6.4554 2.55273 5.81348C2.60471 5.17741 2.70575 4.75672 2.88184 4.41113C3.21738 3.75262 3.75262 3.21738 4.41113 2.88184C4.75672 2.70575 5.17741 2.60471 5.81348 2.55273C6.4554 2.50029 7.27204 2.5 8.40039 2.5H16C16.2761 2.5 16.5 2.27614 16.5 2C16.5 1.72386 16.2761 1.5 16 1.5H8.40039C7.28869 1.5 6.42447 1.50012 5.73242 1.55664C5.03453 1.61366 4.46707 1.73038 3.95703 1.99023C3.1103 2.42166 2.42166 3.1103 1.99023 3.95703C1.73038 4.46707 1.61366 5.03453 1.55664 5.73242C1.50012 6.42447 1.5 7.28869 1.5 8.40039V16C1.5 16.2761 1.72386 16.5 2 16.5Z" fill="black"/>
</svg>
