<svg width="24" height="24" viewBox="0 0 24 24" fill="none" xmlns="http://www.w3.org/2000/svg">
<path d="M2 15.25C2.41421 15.25 2.75 15.5858 2.75 16C2.75 16.9421 2.75022 17.6113 2.78613 18.1377C2.82159 18.6573 2.889 18.9832 2.99707 19.2441C3.32692 20.0403 3.95971 20.6731 4.75586 21.0029C5.01676 21.111 5.34273 21.1784 5.8623 21.2139C6.38868 21.2498 7.05786 21.25 8 21.25C8.41421 21.25 8.75 21.5858 8.75 22C8.75 22.4142 8.41421 22.75 8 22.75C7.07859 22.75 6.34995 22.7501 5.76074 22.71C5.16489 22.6693 4.65666 22.585 4.18262 22.3887C3.01873 21.9066 2.09342 20.9813 1.61133 19.8174C1.41504 19.3433 1.33069 18.8351 1.29004 18.2393C1.24986 17.6501 1.25 16.9214 1.25 16C1.25 15.5858 1.58579 15.25 2 15.25Z" fill="black"/>
<path d="M22 15.25C22.4142 15.25 22.75 15.5858 22.75 16C22.75 16.9214 22.7501 17.6501 22.71 18.2393C22.6693 18.8351 22.585 19.3433 22.3887 19.8174C21.9066 20.9813 20.9813 21.9066 19.8174 22.3887C19.3433 22.585 18.8351 22.6693 18.2393 22.71C17.6501 22.7501 16.9214 22.75 16 22.75C15.5858 22.75 15.25 22.4142 15.25 22C15.25 21.5858 15.5858 21.25 16 21.25C16.9421 21.25 17.6113 21.2498 18.1377 21.2139C18.6573 21.1784 18.9832 21.111 19.2441 21.0029C20.0403 20.6731 20.6731 20.0403 21.0029 19.2441C21.111 18.9832 21.1784 18.6573 21.2139 18.1377C21.2498 17.6113 21.25 16.9421 21.25 16C21.25 15.5858 21.5858 15.25 22 15.25Z" fill="black"/>
<path d="M8 1.25C8.41421 1.25 8.75 1.58579 8.75 2C8.75 2.41421 8.41421 2.75 8 2.75C7.05786 2.75 6.38868 2.75022 5.8623 2.78613C5.34273 2.82159 5.01676 2.889 4.75586 2.99707C3.95971 3.32692 3.32692 3.95971 2.99707 4.75586C2.889 5.01676 2.82159 5.34273 2.78613 5.8623C2.75022 6.38868 2.75 7.05786 2.75 8C2.75 8.41421 2.41421 8.75 2 8.75C1.58579 8.75 1.25 8.41421 1.25 8C1.25 7.07859 1.24986 6.34995 1.29004 5.76074C1.33069 5.16489 1.41504 4.65666 1.61133 4.18262C2.09342 3.01873 3.01873 2.09342 4.18262 1.61133C4.65666 1.41504 5.16489 1.33069 5.76074 1.29004C6.34995 1.24986 7.07859 1.25 8 1.25Z" fill="black"/>
<path d="M16 1.25C16.9214 1.25 17.6501 1.24986 18.2393 1.29004C18.8351 1.33069 19.3433 1.41504 19.8174 1.61133C20.9813 2.09342 21.9066 3.01873 22.3887 4.18262C22.585 4.65666 22.6693 5.1649 22.71 5.76074C22.7501 6.34995 22.75 7.07859 22.75 8C22.75 8.41421 22.4142 8.75 22 8.75C21.5858 8.75 21.25 8.41421 21.25 8C21.25 7.05786 21.2498 6.38868 21.2139 5.8623C21.1784 5.34273 21.111 5.01676 21.0029 4.75586C20.6731 3.95972 20.0403 3.32692 19.2441 2.99707C18.9832 2.889 18.6573 2.82159 18.1377 2.78613C17.6113 2.75022 16.9421 2.75 16 2.75C15.5858 2.75 15.25 2.41421 15.25 2C15.25 1.58579 15.5858 1.25 16 1.25Z" fill="black"/>
</svg>
