<svg width="24" height="24" viewBox="0 0 24 24" fill="none" xmlns="http://www.w3.org/2000/svg">
<path d="M18.5 1C17.6716 1 17 1.67157 17 2.5V21.5C17 22.3284 17.6716 23 18.5 23H21.5C22.3284 23 23 22.3284 23 21.5V2.5C23 1.6716 22.3284 1.00005 21.5 1H18.5Z" fill="black"/>
<path d="M11.667 20V22H15.333V20H11.667Z" fill="black"/>
<path d="M6.16699 20V22H9.83301V20H6.16699Z" fill="black"/>
<path d="M1 18.6113V20.5C1 21.3284 1.67157 22 2.5 22H4.33301V20H3V18.6113H1Z" fill="black"/>
<path d="M1 12.9443V16.7227H3V12.9443H1Z" fill="black"/>
<path d="M1 7.27734V11.0557H3V7.27734H1Z" fill="black"/>
<path d="M2.5 2C1.67157 2 1 2.67157 1 3.5V5.38867H3V4H4.33301V2H2.5Z" fill="black"/>
<path d="M11.667 2V4H15.333V2H11.667Z" fill="black"/>
<path d="M6.16699 2V4H9.83301V2H6.16699Z" fill="black"/>
</svg>
