<svg width="24" height="24" viewBox="0 0 24 24" fill="none" xmlns="http://www.w3.org/2000/svg">
<path fill-rule="evenodd" clip-rule="evenodd" d="M5.5 1.25C6.19035 1.25 6.75 1.80964 6.75 2.5V21.5C6.75 22.1904 6.19036 22.75 5.5 22.75H2.5C1.80969 22.75 1.25 22.1903 1.25 21.5V2.5C1.25 1.80967 1.80969 1.25005 2.5 1.25H5.5ZM2.75 2.75V21.25H5.25V2.75H2.75Z" fill="black"/>
<path d="M12.1943 21.75H8.47266V20.25H12.1943V21.75Z" fill="black"/>
<path d="M17.7773 21.75H14.0557V20.25H17.7773V21.75Z" fill="black"/>
<path d="M22.75 20.5C22.75 21.1904 22.1904 21.75 21.5 21.75H19.6387V20.25H21.25V18.6113H22.75V20.5Z" fill="black"/>
<path d="M22.75 16.7227H21.25V12.9443H22.75V16.7227Z" fill="black"/>
<path d="M22.75 11.0557H21.25V7.27734H22.75V11.0557Z" fill="black"/>
<path d="M21.5 2.25C22.1904 2.25 22.75 2.80964 22.75 3.5V5.38867H21.25V3.75H19.6387V2.25H21.5Z" fill="black"/>
<path d="M12.1943 3.75H8.47266V2.25H12.1943V3.75Z" fill="black"/>
<path d="M17.7773 3.75H14.0557V2.25H17.7773V3.75Z" fill="black"/>
</svg>
