<svg width="24" height="24" viewBox="0 0 24 24" fill="none" xmlns="http://www.w3.org/2000/svg">
<path d="M18.5 1.25C17.8096 1.25 17.25 1.80964 17.25 2.5V21.5C17.25 22.1904 17.8096 22.75 18.5 22.75H21.5C22.1903 22.75 22.75 22.1903 22.75 21.5V2.5C22.75 1.80967 22.1903 1.25005 21.5 1.25H18.5Z" fill="black"/>
<path d="M11.8057 21.75H15.5273V20.25H11.8057V21.75Z" fill="black"/>
<path d="M6.22266 21.75H9.94434V20.25H6.22266V21.75Z" fill="black"/>
<path d="M1.25 20.5C1.25 21.1904 1.80964 21.75 2.5 21.75H4.36133V20.25H2.75V18.6113H1.25V20.5Z" fill="black"/>
<path d="M1.25 16.7227H2.75V12.9443H1.25V16.7227Z" fill="black"/>
<path d="M1.25 11.0557H2.75V7.27734H1.25V11.0557Z" fill="black"/>
<path d="M2.5 2.25C1.80964 2.25 1.25 2.80964 1.25 3.5V5.38867H2.75V3.75H4.36133V2.25H2.5Z" fill="black"/>
<path d="M11.8057 3.75H15.5273V2.25H11.8057V3.75Z" fill="black"/>
<path d="M6.22266 3.75H9.94434V2.25H6.22266V3.75Z" fill="black"/>
</svg>
