<svg width="24" height="24" viewBox="0 0 24 24" fill="none" xmlns="http://www.w3.org/2000/svg">
<path fill-rule="evenodd" clip-rule="evenodd" d="M0.123117 8.43565C0 9.21298 0 10.142 0 12C0 13.858 0 14.787 0.123117 15.5643C0.800832 19.8433 4.15673 23.1992 8.43565 23.8769C9.21298 24 10.142 24 12 24C13.858 24 14.787 24 15.5643 23.8769C19.8433 23.1992 23.1992 19.8433 23.8769 15.5643C24 14.787 24 13.858 24 12C24 10.142 24 9.21298 23.8769 8.43565C23.1992 4.15673 19.8433 0.800832 15.5643 0.123117C14.787 0 13.858 0 12 0C10.142 0 9.21298 0 8.43565 0.123117C4.15673 0.800832 0.800832 4.15673 0.123117 8.43565ZM11.5208 18.3002C11.8438 18.6232 12.3675 18.6232 12.6905 18.3002L16.636 14.3547C16.9289 14.0618 16.9289 13.5869 16.636 13.294C16.3431 13.0011 15.8682 13.0011 15.5753 13.294L12.8556 16.0137V5.64508C12.8556 5.23086 12.5199 4.89508 12.1056 4.89508C11.6914 4.89508 11.3556 5.23086 11.3556 5.64508V16.0137L8.63598 13.294C8.34309 13.0011 7.86822 13.0011 7.57532 13.294C7.28243 13.5869 7.28243 14.0618 7.57532 14.3547L11.5208 18.3002Z" fill="black"/>
</svg>
