<svg width="24" height="24" viewBox="0 0 24 24" fill="none" xmlns="http://www.w3.org/2000/svg">
<path fill-rule="evenodd" clip-rule="evenodd" d="M12 0C13.858 0 14.7871 -6.97747e-05 15.5645 0.123047C19.8433 0.800792 23.1992 4.1567 23.877 8.43555C24.0001 9.21287 24 10.142 24 12C24 13.858 24.0001 14.7871 23.877 15.5645C23.1992 19.8433 19.8433 23.1992 15.5645 23.877C14.7871 24.0001 13.858 24 12 24C10.142 24 9.21287 24.0001 8.43555 23.877C4.1567 23.1992 0.800792 19.8433 0.123047 15.5645C-6.97747e-05 14.7871 0 13.858 0 12C0 10.142 -6.97747e-05 9.21287 0.123047 8.43555C0.800792 4.1567 4.1567 0.800792 8.43555 0.123047C9.21287 -6.97747e-05 10.142 0 12 0ZM12.1055 4.14453C11.3292 4.14471 10.6904 4.73526 10.6133 5.49121L10.6055 5.64453V14.2021L9.16602 12.7627C8.58018 12.1776 7.62951 12.1771 7.04395 12.7627C6.4584 13.3483 6.45883 14.2989 7.04395 14.8848L10.9902 18.8301C11.6061 19.4459 12.6048 19.4459 13.2207 18.8301L17.166 14.8848L17.2695 14.7705C17.7497 14.1814 17.715 13.3117 17.166 12.7627C16.617 12.2143 15.7481 12.1802 15.1592 12.6602L15.0449 12.7627L13.6055 14.2021V5.64453L13.5977 5.49121C13.5205 4.73523 12.8818 4.14461 12.1055 4.14453Z" fill="black"/>
</svg>
