<svg width="24" height="24" viewBox="0 0 24 24" fill="none" xmlns="http://www.w3.org/2000/svg">
<path fill-rule="evenodd" clip-rule="evenodd" d="M0.123117 8.43565C0 9.21298 0 10.142 0 12C0 13.858 0 14.787 0.123117 15.5643C0.800832 19.8433 4.15673 23.1992 8.43565 23.8769C9.21298 24 10.142 24 12 24C13.858 24 14.787 24 15.5643 23.8769C19.8433 23.1992 23.1992 19.8433 23.8769 15.5643C24 14.787 24 13.858 24 12C24 10.142 24 9.21298 23.8769 8.43565C23.1992 4.15673 19.8433 0.800832 15.5643 0.123117C14.787 0 13.858 0 12 0C10.142 0 9.21298 0 8.43565 0.123117C4.15673 0.800832 0.800832 4.15673 0.123117 8.43565ZM11.344 18.477C11.7647 18.8976 12.4466 18.8976 12.8673 18.477L16.8128 14.5315C17.2033 14.1409 17.2033 13.5078 16.8128 13.1172C16.4222 12.7267 15.7891 12.7267 15.3985 13.1172L13.1056 15.4101V5.64508C13.1056 5.09279 12.6579 4.64508 12.1056 4.64508C11.5534 4.64508 11.1056 5.09279 11.1056 5.64508V15.4101L8.81276 13.1172C8.42224 12.7267 7.78907 12.7267 7.39855 13.1172C7.00802 13.5078 7.00802 14.1409 7.39855 14.5315L11.344 18.477Z" fill="black"/>
</svg>
