<svg width="24" height="24" viewBox="0 0 24 24" fill="none" xmlns="http://www.w3.org/2000/svg">
<path fill-rule="evenodd" clip-rule="evenodd" d="M0.123117 8.43565C0 9.21298 0 10.142 0 12C0 13.858 0 14.787 0.123117 15.5643C0.800832 19.8433 4.15673 23.1992 8.43565 23.8769C9.21298 24 10.142 24 12 24C13.858 24 14.787 24 15.5643 23.8769C19.8433 23.1992 23.1992 19.8433 23.8769 15.5643C24 14.787 24 13.858 24 12C24 10.142 24 9.21298 23.8769 8.43565C23.1992 4.15673 19.8433 0.800832 15.5643 0.123117C14.787 0 13.858 0 12 0C10.142 0 9.21298 0 8.43565 0.123117C4.15673 0.800832 0.800832 4.15673 0.123117 8.43565ZM11.8744 17.9466C12.0021 18.0744 12.2092 18.0744 12.3369 17.9466L16.2824 14.0011C16.3801 13.9035 16.3801 13.7452 16.2824 13.6476C16.1848 13.5499 16.0265 13.5499 15.9289 13.6476L12.3556 17.2208V5.64508C12.3556 5.50701 12.2437 5.39508 12.1056 5.39508C11.9676 5.39508 11.8556 5.50701 11.8556 5.64508V17.2208L8.28243 13.6476C8.1848 13.5499 8.02651 13.5499 7.92888 13.6476C7.83125 13.7452 7.83125 13.9035 7.92888 14.0011L11.8744 17.9466Z" fill="black"/>
</svg>
