<svg width="24" height="24" viewBox="0 0 24 24" fill="none" xmlns="http://www.w3.org/2000/svg">
<path fill-rule="evenodd" clip-rule="evenodd" d="M0.123117 8.43565C0 9.21298 0 10.142 0 12C0 13.858 0 14.787 0.123117 15.5643C0.800832 19.8433 4.15673 23.1992 8.43565 23.8769C9.21298 24 10.142 24 12 24C13.858 24 14.787 24 15.5643 23.8769C19.8433 23.1992 23.1992 19.8433 23.8769 15.5643C24 14.787 24 13.858 24 12C24 10.142 24 9.21298 23.8769 8.43565C23.1992 4.15673 19.8433 0.800832 15.5643 0.123117C14.787 0 13.858 0 12 0C10.142 0 9.21298 0 8.43565 0.123117C4.15673 0.800832 0.800832 4.15673 0.123117 8.43565ZM11.1673 18.6537C11.6855 19.172 12.5258 19.172 13.044 18.6537L16.9895 14.7082C17.4777 14.2201 17.4777 13.4286 16.9895 12.9405C16.5014 12.4523 15.7099 12.4523 15.2218 12.9405L13.3556 14.8066V5.64508C13.3556 4.95472 12.796 4.39508 12.1056 4.39508C11.4153 4.39508 10.8556 4.95472 10.8556 5.64508V14.8066L8.98954 12.9405C8.50138 12.4523 7.70993 12.4523 7.22177 12.9405C6.73361 13.4286 6.73361 14.2201 7.22177 14.7082L11.1673 18.6537Z" fill="black"/>
</svg>
