<svg width="24" height="24" viewBox="0 0 24 24" fill="none" xmlns="http://www.w3.org/2000/svg">
<path d="M4.00003 19.5C4.00003 20.8807 5.11932 22 6.50003 22H9.00003C9.27617 22 9.50003 21.7761 9.50003 21.5C9.50003 21.2239 9.27617 21 9.00003 21H6.50003C5.6716 21 5.00003 20.3284 5.00003 19.5V14.4846C5.00003 13.5172 4.44693 12.6643 3.62187 12.25C4.44693 11.8357 5.00003 10.9828 5.00003 10.0154V5C5.00003 4.17157 5.6716 3.5 6.50003 3.5H9.00003C9.27617 3.5 9.50003 3.27614 9.50003 3C9.50003 2.72386 9.27617 2.5 9.00003 2.5H6.50003C5.11932 2.5 4.00003 3.61929 4.00003 5V10.0154C4.00003 10.7619 3.45114 11.3948 2.71217 11.5003L0.929321 11.755V12.745L2.71216 12.9997C3.45114 13.1052 4.00003 13.7381 4.00003 14.4846V19.5Z" fill="black"/>
<path d="M20 19.5C20 20.8807 18.8807 22 17.5 22H15C14.7239 22 14.5 21.7761 14.5 21.5C14.5 21.2239 14.7239 21 15 21H17.5C18.3285 21 19 20.3284 19 19.5V14.4846C19 13.5172 19.5531 12.6643 20.3782 12.25C19.5531 11.8357 19 10.9828 19 10.0154V5C19 4.17157 18.3285 3.5 17.5 3.5H15C14.7239 3.5 14.5 3.27614 14.5 3C14.5 2.72386 14.7239 2.5 15 2.5H17.5C18.8807 2.5 20 3.61929 20 5V10.0154C20 10.7619 20.5489 11.3948 21.2879 11.5003L23.0707 11.755V12.745L21.2879 12.9997C20.5489 13.1052 20 13.7381 20 14.4846V19.5Z" fill="black"/>
<path d="M8.00003 17.875C8.48328 17.875 8.87503 17.4832 8.87503 17C8.87503 16.5168 8.48328 16.125 8.00003 16.125C7.51678 16.125 7.12503 16.5168 7.12503 17C7.12503 17.4832 7.51678 17.875 8.00003 17.875Z" fill="black"/>
<path d="M12 17.875C12.4833 17.875 12.875 17.4832 12.875 17C12.875 16.5168 12.4833 16.125 12 16.125C11.5168 16.125 11.125 16.5168 11.125 17C11.125 17.4832 11.5168 17.875 12 17.875Z" fill="black"/>
<path d="M16.875 17C16.875 17.4832 16.4833 17.875 16 17.875C15.5168 17.875 15.125 17.4832 15.125 17C15.125 16.5168 15.5168 16.125 16 16.125C16.4833 16.125 16.875 16.5168 16.875 17Z" fill="black"/>
</svg>
