<svg width="24" height="24" viewBox="0 0 24 24" fill="none" xmlns="http://www.w3.org/2000/svg">
<path d="M3.74999 19.5C3.74999 21.0188 4.9812 22.25 6.49999 22.25H8.99999C9.4142 22.25 9.74999 21.9142 9.74999 21.5C9.74999 21.0858 9.4142 20.75 8.99999 20.75H6.49999C5.80963 20.75 5.24999 20.1904 5.24999 19.5V14.4846C5.24999 13.5723 4.80278 12.7525 4.10326 12.25C4.80278 11.7475 5.24999 10.9277 5.24999 10.0154V5C5.24999 4.30964 5.80963 3.75 6.49999 3.75H8.99999C9.4142 3.75 9.74999 3.41421 9.74999 3C9.74999 2.58579 9.4142 2.25 8.99999 2.25H6.49999C4.9812 2.25 3.74999 3.48122 3.74999 5V10.0154C3.74999 10.6375 3.29258 11.1649 2.67677 11.2528L0.893921 11.5075V12.9925L2.67676 13.2472C3.29257 13.3351 3.74999 13.8625 3.74999 14.4846V19.5Z" fill="black"/>
<path d="M20.25 19.5C20.25 21.0188 19.0188 22.25 17.5 22.25H15C14.5858 22.25 14.25 21.9142 14.25 21.5C14.25 21.0858 14.5858 20.75 15 20.75H17.5C18.1903 20.75 18.75 20.1904 18.75 19.5V14.4846C18.75 13.5723 19.1972 12.7525 19.8967 12.25C19.1972 11.7475 18.75 10.9277 18.75 10.0154V5C18.75 4.30964 18.1903 3.75 17.5 3.75H15C14.5858 3.75 14.25 3.41421 14.25 3C14.25 2.58579 14.5858 2.25 15 2.25H17.5C19.0188 2.25 20.25 3.48122 20.25 5V10.0154C20.25 10.6375 20.7074 11.1649 21.3232 11.2528L23.1061 11.5075V12.9925L21.3232 13.2472C20.7074 13.3351 20.25 13.8625 20.25 14.4846V19.5Z" fill="black"/>
<path d="M7.99999 18C8.55227 18 8.99999 17.5523 8.99999 17C8.99999 16.4477 8.55227 16 7.99999 16C7.4477 16 6.99999 16.4477 6.99999 17C6.99999 17.5523 7.4477 18 7.99999 18Z" fill="black"/>
<path d="M12 18C12.5523 18 13 17.5523 13 17C13 16.4477 12.5523 16 12 16C11.4477 16 11 16.4477 11 17C11 17.5523 11.4477 18 12 18Z" fill="black"/>
<path d="M17 17C17 17.5523 16.5523 18 16 18C15.4477 18 15 17.5523 15 17C15 16.4477 15.4477 16 16 16C16.5523 16 17 16.4477 17 17Z" fill="black"/>
</svg>
