<svg width="24" height="24" viewBox="0 0 24 24" fill="none" xmlns="http://www.w3.org/2000/svg">
<path d="M2.75014 19.5C2.75014 21.2949 4.20522 22.75 6.00014 22.75H8.50014C9.1905 22.75 9.75014 22.1904 9.75014 21.5C9.75014 20.8096 9.1905 20.25 8.50014 20.25H6.00014C5.58593 20.25 5.25014 19.9142 5.25014 19.5V14.4846C5.25014 13.6255 4.91461 12.8359 4.36005 12.25C4.91461 11.6641 5.25014 10.8745 5.25014 10.0154V5C5.25014 4.58579 5.58593 4.25 6.00014 4.25H8.50014C9.1905 4.25 9.75014 3.69036 9.75014 3C9.75014 2.30964 9.1905 1.75 8.50014 1.75H6.00014C4.20522 1.75 2.75014 3.20507 2.75014 5V10.0154C2.75014 10.3886 2.47569 10.7051 2.10621 10.7579L0.323364 11.0126V13.4874L2.10621 13.7421C2.47569 13.7949 2.75014 14.1114 2.75014 14.4846V19.5Z" fill="black"/>
<path d="M21.2501 19.5C21.2501 21.2949 19.795 22.75 18.0001 22.75H15.5001C14.8098 22.75 14.2501 22.1904 14.2501 21.5C14.2501 20.8096 14.8098 20.25 15.5001 20.25H18.0001C18.4143 20.25 18.7501 19.9142 18.7501 19.5V14.4846C18.7501 13.6255 19.0857 12.8359 19.6402 12.25C19.0857 11.6641 18.7501 10.8745 18.7501 10.0154V5C18.7501 4.58579 18.4143 4.25 18.0001 4.25H15.5001C14.8098 4.25 14.2501 3.69036 14.2501 3C14.2501 2.30964 14.8098 1.75 15.5001 1.75H18.0001C19.795 1.75 21.2501 3.20507 21.2501 5V10.0154C21.2501 10.3886 21.5246 10.7051 21.8941 10.7579L23.6769 11.0126V13.4874L21.8941 13.7421C21.5246 13.7949 21.2501 14.1114 21.2501 14.4846V19.5Z" fill="black"/>
<path d="M8.00005 18.5C8.82848 18.5 9.50005 17.8284 9.50005 17C9.50005 16.1716 8.82848 15.5 8.00005 15.5C7.17162 15.5 6.50005 16.1716 6.50005 17C6.50005 17.8284 7.17162 18.5 8.00005 18.5Z" fill="black"/>
<path d="M12.0001 18.5C12.8285 18.5 13.5001 17.8284 13.5001 17C13.5001 16.1716 12.8285 15.5 12.0001 15.5C11.1716 15.5 10.5001 16.1716 10.5001 17C10.5001 17.8284 11.1716 18.5 12.0001 18.5Z" fill="black"/>
<path d="M17.5001 17C17.5001 17.8284 16.8285 18.5 16.0001 18.5C15.1716 18.5 14.5001 17.8284 14.5001 17C14.5001 16.1716 15.1716 15.5 16.0001 15.5C16.8285 15.5 17.5001 16.1716 17.5001 17Z" fill="black"/>
</svg>
