<svg width="24" height="24" viewBox="0 0 24 24" fill="none" xmlns="http://www.w3.org/2000/svg">
<path d="M3.00019 19.5C3.00019 21.1569 4.34333 22.5 6.00019 22.5H8.50019C9.05247 22.5 9.50019 22.0523 9.50019 21.5C9.50019 20.9477 9.05247 20.5 8.50019 20.5H6.00019C5.4479 20.5 5.00019 20.0523 5.00019 19.5V14.4846C5.00019 13.6041 4.61839 12.8027 4.00198 12.25C4.61839 11.6973 5.00019 10.8959 5.00019 10.0154V5C5.00019 4.44772 5.4479 4 6.00019 4H8.50019C9.05247 4 9.50019 3.55228 9.50019 3C9.50019 2.44772 9.05247 2 8.50019 2H6.00019C4.34333 2 3.00019 3.34315 3.00019 5V10.0154C3.00019 10.5131 2.63426 10.935 2.14161 11.0054L0.358765 11.2601V13.2399L2.14161 13.4946C2.63426 13.565 3.00019 13.9869 3.00019 14.4846V19.5Z" fill="black"/>
<path d="M21.0002 19.5C21.0002 21.1569 19.657 22.5 18.0002 22.5H15.5002C14.9479 22.5 14.5002 22.0523 14.5002 21.5C14.5002 20.9477 14.9479 20.5 15.5002 20.5H18.0002C18.5525 20.5 19.0002 20.0523 19.0002 19.5V14.4846C19.0002 13.6041 19.382 12.8027 19.9984 12.25C19.382 11.6973 19.0002 10.8959 19.0002 10.0154V5C19.0002 4.44772 18.5525 4 18.0002 4H15.5002C14.9479 4 14.5002 3.55228 14.5002 3C14.5002 2.44772 14.9479 2 15.5002 2H18.0002C19.657 2 21.0002 3.34315 21.0002 5V10.0154C21.0002 10.5131 21.3661 10.935 21.8588 11.0054L23.6416 11.2601V13.2399L21.8588 13.4946C21.3661 13.565 21.0002 13.9869 21.0002 14.4846V19.5Z" fill="black"/>
<path d="M8.00001 18.25C8.69036 18.25 9.25001 17.6904 9.25001 17C9.25001 16.3096 8.69036 15.75 8.00001 15.75C7.30965 15.75 6.75001 16.3096 6.75001 17C6.75001 17.6904 7.30965 18.25 8.00001 18.25Z" fill="black"/>
<path d="M12 18.25C12.6904 18.25 13.25 17.6904 13.25 17C13.25 16.3096 12.6904 15.75 12 15.75C11.3097 15.75 10.75 16.3096 10.75 17C10.75 17.6904 11.3097 18.25 12 18.25Z" fill="black"/>
<path d="M17.25 17C17.25 17.6904 16.6904 18.25 16 18.25C15.3096 18.25 14.75 17.6904 14.75 17C14.75 16.3096 15.3096 15.75 16 15.75C16.6904 15.75 17.25 16.3096 17.25 17Z" fill="black"/>
</svg>
