<svg width="24" height="24" viewBox="0 0 24 24" fill="none" xmlns="http://www.w3.org/2000/svg">
<path d="M4.24995 19.5C4.24995 20.7426 5.25731 21.75 6.49996 21.75H8.99996C9.13803 21.75 9.24996 21.6381 9.24996 21.5C9.24996 21.3619 9.13803 21.25 8.99996 21.25H6.49996C5.53346 21.25 4.74995 20.4665 4.74995 19.5V14.4846C4.74995 13.3649 3.92661 12.4156 2.81815 12.2572L2.76772 12.25L2.81815 12.2428C3.92661 12.0844 4.74995 11.1351 4.74995 10.0154V5C4.74995 4.0335 5.53346 3.25 6.49996 3.25H8.99996C9.13803 3.25 9.24996 3.13807 9.24996 3C9.24996 2.86193 9.13803 2.75 8.99996 2.75H6.49996C5.25731 2.75 4.24995 3.75736 4.24995 5V10.0154C4.24995 10.8863 3.60958 11.6247 2.74744 11.7478L0.9646 12.0025V12.4975L2.74744 12.7522C3.60958 12.8753 4.24995 13.6137 4.24995 14.4846V19.5Z" fill="black"/>
<path d="M19.75 19.5C19.75 20.7426 18.7426 21.75 17.5 21.75H15C14.8619 21.75 14.75 21.6381 14.75 21.5C14.75 21.3619 14.8619 21.25 15 21.25H17.5C18.4665 21.25 19.25 20.4665 19.25 19.5V14.4846C19.25 13.3649 20.0733 12.4156 21.1818 12.2572L21.2322 12.25L21.1818 12.2428C20.0733 12.0844 19.25 11.1351 19.25 10.0154V5C19.25 4.0335 18.4665 3.25 17.5 3.25H15C14.8619 3.25 14.75 3.13807 14.75 3C14.75 2.86193 14.8619 2.75 15 2.75H17.5C18.7426 2.75 19.75 3.75736 19.75 5V10.0154C19.75 10.8863 20.3903 11.6247 21.2525 11.7478L23.0353 12.0025V12.4975L21.2525 12.7522C20.3903 12.8753 19.75 13.6137 19.75 14.4846V19.5Z" fill="black"/>
<path d="M7.99996 17.75C8.41417 17.75 8.74996 17.4142 8.74996 17C8.74996 16.5858 8.41417 16.25 7.99996 16.25C7.58574 16.25 7.24996 16.5858 7.24996 17C7.24996 17.4142 7.58574 17.75 7.99996 17.75Z" fill="black"/>
<path d="M12 17.75C12.4142 17.75 12.75 17.4142 12.75 17C12.75 16.5858 12.4142 16.25 12 16.25C11.5857 16.25 11.25 16.5858 11.25 17C11.25 17.4142 11.5857 17.75 12 17.75Z" fill="black"/>
<path d="M16.75 17C16.75 17.4142 16.4142 17.75 16 17.75C15.5857 17.75 15.25 17.4142 15.25 17C15.25 16.5858 15.5857 16.25 16 16.25C16.4142 16.25 16.75 16.5858 16.75 17Z" fill="black"/>
</svg>
