<svg width="24" height="24" viewBox="0 0 24 24" fill="none" xmlns="http://www.w3.org/2000/svg">
<path fill-rule="evenodd" clip-rule="evenodd" d="M13.2981 0.482766C14.7195 -0.227767 16.427 -0.0296567 17.6477 0.987649L18.4212 1.6312C18.8633 1.99972 19.1836 2.48373 19.3557 3.01988C20.1645 3.11636 20.9059 3.53984 21.4007 4.19956L22.1106 5.14585C22.2894 5.38422 22.4355 5.64558 22.5462 5.92222C23.2034 7.56543 23.0698 9.41549 22.1926 10.9476L22.3743 11.2025C23.7828 13.1746 23.9853 15.7643 22.9016 17.932C22.1745 19.386 21.1481 20.6701 19.8899 21.6996L18.2346 23.0541C16.6442 24.3553 14.3264 24.2396 12.8733 22.7865L11.5003 21.4134L10.0325 22.8822C8.93345 23.9812 7.24075 24.2241 5.87624 23.4798L5.70632 23.3871C3.11245 21.9722 1.22871 19.5367 0.511983 16.6703C0.148959 15.218 0.236383 13.6891 0.761983 12.2875L1.428 10.5101L1.27077 10.1175C0.726975 8.75796 0.726948 7.24077 1.27077 5.8812C2.20327 3.55042 4.03253 1.66866 6.32058 0.651711C7.37743 0.182098 8.59581 0.166988 9.6653 0.625344L11.468 1.3978L13.2981 0.482766ZM16.3675 2.52378C15.7572 2.01522 14.9033 1.9158 14.1926 2.27085L12.5003 3.11655V9.49937H14.0003C14.5524 9.49951 15.0001 9.94727 15.0003 10.4994C15.0003 11.0516 14.5524 11.4992 14.0003 11.4994H12.5003V19.6839C12.6478 19.7694 12.7881 19.8731 12.9143 19.9994L14.2874 21.3724C15.0139 22.0989 16.1728 22.1567 16.968 21.5062L18.6233 20.1517C18.9311 19.8998 19.2196 19.6271 19.4925 19.3402C18.1396 19.6269 16.7267 19.3528 15.555 18.5716L14.4456 17.8314C13.986 17.525 13.8619 16.9042 14.1682 16.4447C14.4746 15.9854 15.0955 15.861 15.555 16.1673L16.6643 16.9076C17.569 17.5106 18.6818 17.6194 19.6663 17.1976C20.3674 16.8971 20.9588 16.347 21.2932 15.6781L21.5891 15.0843C21.6043 14.1915 21.357 13.3014 20.8557 12.5306C20.1485 13.1392 19.3088 13.5776 18.3997 13.805L17.7425 13.9691C17.2067 14.1029 16.6645 13.7773 16.5305 13.2416C16.3968 12.7059 16.7224 12.1636 17.2581 12.0296L17.9143 11.8656C18.6175 11.6897 19.2602 11.3254 19.7727 10.8128L20.2356 10.349C20.2596 10.2958 20.2872 10.2435 20.3176 10.1927L20.4202 10.0218C21.0293 9.00632 21.1295 7.76391 20.6897 6.66441C20.6443 6.55085 20.5834 6.4439 20.51 6.34605L19.8001 5.39976C19.7027 5.26995 19.5761 5.16868 19.4339 5.09995C19.1587 6.80618 18.0113 8.27199 16.3714 8.92808C15.8587 9.13294 15.2766 8.88313 15.0716 8.37046C14.8668 7.85778 15.1165 7.27571 15.6292 7.07066C16.759 6.61843 17.5002 5.524 17.5003 4.30698V3.93589C17.5001 3.6395 17.3685 3.35821 17.1409 3.16831L16.3675 2.52378ZM8.87722 2.46323C8.32598 2.22709 7.68761 2.23258 7.13308 2.47886C5.31515 3.28683 3.8637 4.78338 3.12722 6.62437C2.77422 7.507 2.77425 8.49173 3.12722 9.37437L3.28933 9.78062C3.30804 9.82741 3.32317 9.87543 3.33816 9.9232L4.29323 10.8783C5.01119 11.5961 5.98498 11.9994 7.00026 11.9994C7.55236 11.9995 8.00015 12.4473 8.00026 12.9994C8.00026 13.5516 7.55243 13.9992 7.00026 13.9994C5.45985 13.9994 3.98283 13.389 2.89089 12.3031L2.63405 12.9896C2.25086 14.0114 2.18776 15.1262 2.45241 16.1849C3.03353 18.5092 4.56106 20.484 6.66433 21.6312L6.83425 21.724C7.41987 22.0433 8.14576 21.9388 8.61745 21.4671L10.0862 19.9994C10.2125 19.8731 10.3527 19.7694 10.5003 19.6839V17.4994H8.00026C7.44798 17.4994 7.00026 17.0517 7.00026 16.4994C7.00038 15.9472 7.44805 15.4994 8.00026 15.4994H10.5003V6.74937C10.0145 7.02242 9.4856 7.22195 8.92898 7.33335L8.19655 7.47984C7.65506 7.58814 7.12819 7.23711 7.0198 6.69566C6.9116 6.15422 7.26258 5.62728 7.80398 5.5189L8.5364 5.37241C9.31509 5.2166 10.0093 4.78971 10.5003 4.1732V3.15855L8.87722 2.46323Z" fill="black"/>
</svg>
