<svg width="24" height="24" viewBox="0 0 24 24" fill="none" xmlns="http://www.w3.org/2000/svg">
<path d="M13.6321 1.15453C14.7868 0.577177 16.1743 0.738427 17.1663 1.56469L17.9397 2.20824C17.9689 2.23258 17.9959 2.25975 18.0237 2.28539C17.9914 2.43159 17.9918 2.58724 18.0305 2.74242C18.2045 3.43849 18.1498 4.03169 18.0198 4.60375C17.7827 5.6465 17.0122 6.62601 16.053 7.1057C15.559 7.35269 15.3587 7.95352 15.6057 8.4475C15.8527 8.94147 16.4535 9.14175 16.9475 8.89477C18.4396 8.14864 19.5995 6.67683 19.97 5.04711C20.0396 4.74087 20.0946 4.40988 20.1213 4.05395C20.3816 4.20402 20.614 4.40394 20.7991 4.65063L21.509 5.59691C21.6482 5.78254 21.7627 5.98599 21.8489 6.20141C22.4338 7.66376 22.3018 9.3157 21.4915 10.6663L21.3889 10.8371C21.3341 10.9288 21.3387 11.045 21.4006 11.1321L21.7629 11.6389C22.1702 12.2091 22.4608 12.8386 22.6379 13.4934C22.6266 13.5127 22.6159 13.5326 22.6057 13.553C22.3911 13.9822 21.8856 14.8231 21.3948 15.6555C20.9929 16.3369 20.3714 16.8962 19.6663 17.1985C18.6817 17.6203 17.5689 17.5115 16.6643 16.9084L15.5549 16.1682C15.0955 15.8619 14.4746 15.9862 14.1682 16.4455C13.8619 16.9051 13.986 17.5259 14.4456 17.8323L15.5549 18.5725C17.0085 19.5415 18.8338 19.7309 20.4543 19.0364C21.0192 18.7943 21.5379 18.4548 21.9915 18.0461C21.3327 19.2215 20.4593 20.2653 19.4143 21.1204L17.759 22.4748C16.4668 23.5318 14.5831 23.4376 13.4026 22.2571L12.4514 21.3059C12.4824 21.2095 12.5002 21.1069 12.5002 21.0002V1.71996L13.6321 1.15453Z" fill="black"/>
<path d="M6.62426 1.33813C7.49265 0.952174 8.49423 0.940824 9.36938 1.31566L10.5002 1.80004V21.0002C10.5002 21.1064 10.5164 21.2089 10.5471 21.3049L9.50122 22.3518C8.63739 23.2153 7.30694 23.4074 6.23462 22.8225L6.06469 22.7297C3.655 21.4151 1.90428 19.1515 1.23852 16.4885C0.912527 15.1841 0.991079 13.811 1.46313 12.552L1.76391 11.7473C2.09049 12.0595 2.42848 12.3506 2.7561 12.6116C3.98982 13.5942 5.52158 14.0002 7.00024 14.0002C7.55242 14.0001 8.00024 13.5524 8.00024 13.0002C8.00018 12.4481 7.55238 12.0004 7.00024 12.0002C5.87078 12.0002 4.80857 11.6894 4.00219 11.0471C2.94574 10.2056 2.17781 9.37182 1.94848 8.68383C1.88401 8.49063 1.76565 8.33085 1.61645 8.2141C1.58645 7.51862 1.70301 6.81808 1.96606 6.16039C2.82497 4.0135 4.5128 2.27677 6.62426 1.33813Z" fill="black"/>
</svg>
