<svg width="24" height="24" viewBox="0 0 24 24" fill="none" xmlns="http://www.w3.org/2000/svg">
<path d="M13.6331 1.15464C14.7879 0.577225 16.1753 0.738246 17.1672 1.5648L17.9407 2.20836C17.9698 2.2326 17.996 2.25996 18.0237 2.2855C17.9915 2.4316 17.9918 2.58747 18.0305 2.74254C18.2045 3.43853 18.1498 4.03184 18.0198 4.60386C17.7827 5.6466 17.0122 6.62619 16.053 7.10582C15.559 7.35281 15.3587 7.95364 15.6057 8.44761C15.8528 8.94138 16.4536 9.14182 16.9475 8.89488C18.4396 8.14882 19.5994 6.67693 19.97 5.04722C20.0396 4.74106 20.0946 4.40991 20.1213 4.05406C20.3819 4.20419 20.6148 4.40381 20.8001 4.65074L21.51 5.59703C21.6492 5.78263 21.7637 5.98614 21.8499 6.20152C22.4346 7.66375 22.3027 9.31594 21.4924 10.6664L21.3899 10.8373C21.3349 10.9291 21.3395 11.0451 21.4016 11.1322L21.7639 11.639C22.1708 12.2087 22.4617 12.8374 22.6389 13.4916C22.6272 13.5114 22.6162 13.5321 22.6057 13.5531C22.391 13.9824 21.8856 14.8233 21.3948 15.6556C20.9929 16.3371 20.3714 16.8964 19.6663 17.1986C18.6818 17.6204 17.5689 17.5115 16.6643 16.9086L15.5549 16.1683C15.0954 15.862 14.4746 15.9861 14.1682 16.4457C13.862 16.9052 13.9861 17.5261 14.4456 17.8324L15.5549 18.5726C17.0085 19.5415 18.8339 19.731 20.4544 19.0365C21.0206 18.7938 21.54 18.4524 21.9944 18.0423C21.3354 19.2193 20.4615 20.2645 19.4153 21.1205L17.76 22.475C16.4679 23.5321 14.5842 23.4375 13.4036 22.2572L12.4514 21.305C12.4822 21.2089 12.5002 21.1067 12.5003 21.0003V11.5003H14.0003C14.5524 11.5003 15.0001 11.0525 15.0003 10.5003C15.0003 9.94812 14.5525 9.50044 14.0003 9.50035H12.5003V1.72105L13.6331 1.15464Z" fill="black"/>
<path d="M6.62525 1.33824C7.49383 0.952216 8.49509 0.940683 9.37037 1.31578L10.5003 1.80015V15.5003H8.00025C7.44797 15.5003 7.00025 15.9481 7.00025 16.5003C7.0004 17.0525 7.44806 17.5003 8.00025 17.5003H10.5003V21.0003C10.5003 21.1067 10.5173 21.2089 10.5481 21.305L9.5022 22.3519C8.63847 23.2156 7.30796 23.4074 6.2356 22.8226L6.06568 22.7298C3.65583 21.4153 1.90539 19.1517 1.23951 16.4886C0.913476 15.1842 0.992085 13.8111 1.46412 12.5521L1.7649 11.7484C2.09112 12.0602 2.42888 12.351 2.75611 12.6117C3.9898 13.5942 5.52165 14.0003 7.00025 14.0003C7.55236 14.0003 8.0001 13.5524 8.00025 13.0003C8.00024 12.4481 7.55245 12.0004 7.00025 12.0003C5.87086 12.0003 4.80857 11.6894 4.0022 11.0472C2.94591 10.2058 2.17795 9.37188 1.94849 8.68394C1.88413 8.49106 1.76628 8.33091 1.61744 8.21422C1.58744 7.5187 1.70401 6.81821 1.96705 6.1605C2.82604 4.01345 4.51355 2.27681 6.62525 1.33824Z" fill="black"/>
</svg>
