<svg width="24" height="24" viewBox="0 0 24 24" fill="none" xmlns="http://www.w3.org/2000/svg">
<path fill-rule="evenodd" clip-rule="evenodd" d="M13.6331 1.15358C14.7879 0.576347 16.1754 0.737206 17.1673 1.56374L17.9407 2.20729C18.4054 2.59458 18.6896 3.15157 18.7395 3.74928H19.0003C19.7083 3.74938 20.3752 4.08323 20.8001 4.64967L21.51 5.59596C21.6493 5.78164 21.7637 5.98498 21.8499 6.20046C22.4348 7.66268 22.3026 9.31481 21.4925 10.6653L21.3899 10.8362C21.3348 10.928 21.3394 11.0439 21.4016 11.1311L21.7639 11.638C23.011 13.3839 23.1909 15.6768 22.2317 17.596C21.5519 18.9556 20.5917 20.1568 19.4153 21.1194L17.76 22.4739C16.4678 23.5312 14.5842 23.4368 13.4036 22.2561L12.0305 20.8831C11.7378 20.5904 11.2629 20.5906 10.97 20.8831L9.50222 22.3508C8.63843 23.2146 7.30806 23.4065 6.23562 22.8215L6.0657 22.7288C3.65568 21.4142 1.90534 19.1508 1.23952 16.4876C0.913506 15.1831 0.992028 13.8101 1.46413 12.551L2.13503 10.762C2.19753 10.595 2.1954 10.41 2.12917 10.2444L1.96706 9.83913C1.49482 8.65839 1.49477 7.34017 1.96706 6.15944C2.8261 4.01252 4.51366 2.2757 6.62527 1.33717C7.49379 0.951284 8.4952 0.939634 9.37038 1.31471L11.1721 2.08717C11.3748 2.17396 11.6058 2.16708 11.803 2.06862L13.6331 1.15358ZM16.8479 1.94753C16.0087 1.24817 14.8339 1.11147 13.8567 1.59987L12.0266 2.51588C11.9381 2.56014 11.8449 2.59259 11.7503 2.61452V10.2493H14.0003C14.1381 10.2494 14.2501 10.3615 14.2503 10.4993C14.2503 10.6373 14.1382 10.7491 14.0003 10.7493H11.7503V19.9993C11.7503 20.0689 11.721 20.1317 11.6751 20.177C11.9343 20.2135 12.1847 20.3302 12.3841 20.5296L13.7571 21.9026C14.7561 22.9016 16.3502 22.9808 17.4436 22.0862L19.0989 20.7327C20.2208 19.8147 21.1362 18.6689 21.7844 17.3723C21.8574 17.2265 21.9202 17.0771 21.9788 16.927C21.5069 17.5456 20.8733 18.0395 20.1585 18.346C18.7765 18.9382 17.2187 18.7793 15.971 17.9475L14.8616 17.2073C14.7467 17.1307 14.7157 16.9755 14.7923 16.8606C14.8689 16.746 15.0242 16.7148 15.1389 16.7913L16.2483 17.5315C17.3589 18.2719 18.7391 18.4112 19.9622 17.887C20.821 17.5188 21.5479 16.8463 21.9641 16.0139L22.2766 15.388C22.291 15.3592 22.3098 15.334 22.3323 15.3137C22.4011 14.1274 22.0716 12.9298 21.3567 11.929L20.9944 11.4212C20.8167 11.172 20.8038 10.8408 20.9612 10.5784L21.0637 10.4075C21.7933 9.19107 21.9128 7.70299 21.386 6.386C21.3161 6.21132 21.2235 6.04629 21.1106 5.89577L20.4007 4.94948C20.0702 4.50894 19.551 4.24938 19.0003 4.24928H18.7415C18.6519 6.08379 17.5831 7.73743 15.929 8.56471L15.6116 8.72292C15.4882 8.78436 15.3383 8.73398 15.2766 8.61061C15.2153 8.48722 15.2656 8.33731 15.3889 8.27565L15.7053 8.11745C17.1675 7.38619 18.1247 5.93935 18.2385 4.32448L18.2503 3.99928V3.93581C18.2501 3.41669 18.0192 2.92443 17.6204 2.59206L16.8479 1.94753ZM9.17312 1.7737C8.42746 1.45413 7.57138 1.46411 6.82839 1.79421C4.8342 2.68055 3.24091 4.32132 2.43093 6.34596C2.00651 7.40727 2.00656 8.59128 2.43093 9.6526L2.59304 10.0589C2.62555 10.1401 2.64709 10.2247 2.6614 10.3098C2.66646 10.3141 2.67224 10.3177 2.67702 10.3225L3.76296 11.4085C4.62157 12.267 5.78606 12.7493 7.00027 12.7493C7.13809 12.7494 7.25009 12.8615 7.25027 12.9993C7.25027 13.1373 7.1382 13.2491 7.00027 13.2493C5.65345 13.2493 4.36182 12.7143 3.40945 11.762L2.59792 10.9505L1.93191 12.7268C1.49548 13.8909 1.42341 15.1604 1.72488 16.3665C2.35678 18.8941 4.01769 21.0417 6.30495 22.2893L6.47487 22.3831C7.35259 22.8618 8.44175 22.7043 9.1487 21.9973L10.6165 20.5296C10.8157 20.3305 11.0655 20.2136 11.3245 20.177C11.2787 20.1317 11.2503 20.0688 11.2503 19.9993V16.7493H8.00027C7.86219 16.7493 7.75027 16.6374 7.75027 16.4993C7.75044 16.3614 7.8623 16.2493 8.00027 16.2493H11.2503V2.62721C11.1568 2.61064 11.0647 2.58421 10.9759 2.54616L9.17312 1.7737Z" fill="black"/>
</svg>
