<svg width="24" height="25" viewBox="0 0 24 25" fill="none" xmlns="http://www.w3.org/2000/svg">
<path fill-rule="evenodd" clip-rule="evenodd" d="M13.1864 0.448633C14.6964 -0.306282 16.5104 -0.0958758 17.8075 0.984766L18.5809 1.6293C19.0184 1.99405 19.3452 2.46366 19.5409 2.98477C20.3556 3.12231 21.0954 3.56697 21.5995 4.23867L22.3094 5.18594C22.5013 5.44176 22.6594 5.72207 22.7782 6.01895C23.4438 7.68316 23.3325 9.55142 22.4881 11.1215L22.577 11.2465C24.0395 13.294 24.25 15.9822 23.1248 18.2328C22.3819 19.7186 21.3333 21.0305 20.0477 22.0824L18.3924 23.4369C16.7025 24.8195 14.24 24.6966 12.6961 23.1527L11.4998 21.9564L10.2088 23.2484C9.03135 24.4259 7.21856 24.6864 5.75668 23.8891L5.58578 23.7963C2.93088 22.3479 1.00299 19.8543 0.269377 16.9203C-0.10584 15.419 -0.0161691 13.838 0.52719 12.3891L1.15903 10.7035L1.03793 10.3998C0.470448 8.98073 0.470318 7.39697 1.03793 5.97793C1.99491 3.58585 3.87172 1.65579 6.2186 0.612695C7.33815 0.115117 8.62926 0.0984081 9.76352 0.584375L11.4598 1.31094L13.1864 0.448633ZM16.2069 2.90566C15.6728 2.46083 14.9253 2.37313 14.3036 2.68398L12.7498 3.46035V9.43887H13.9998C14.69 9.43887 15.2496 9.99873 15.2498 10.6889C15.2498 11.3792 14.6902 11.9389 13.9998 11.9389H12.7498V19.7318C12.808 19.7708 12.8647 19.8129 12.9198 19.8578L13.0907 20.0121L14.4637 21.3852C15.0994 22.0208 16.1136 22.0715 16.8094 21.5023L18.4647 20.1479C18.5716 20.0603 18.6754 19.9694 18.7782 19.8773C17.6028 19.9529 16.4234 19.6408 15.4159 18.9691L14.3065 18.2289C13.7324 17.8459 13.5769 17.0698 13.9598 16.4955C14.3427 15.9214 15.1189 15.7663 15.6932 16.1488L16.8026 16.8891C17.6387 17.4464 18.6621 17.5445 19.5672 17.1566C20.2158 16.8787 20.762 16.3706 21.0692 15.7563L21.3407 15.2113C21.3433 14.4784 21.1584 13.7493 20.7918 13.0961C20.1046 13.6335 19.3115 14.0247 18.4598 14.2377L17.8026 14.4018C17.133 14.5688 16.4544 14.1612 16.287 13.4916C16.1202 12.8222 16.5278 12.1434 17.1971 11.976L17.8534 11.8119C18.5126 11.647 19.115 11.3061 19.5955 10.8256L20.0301 10.391C20.0526 10.3449 20.0766 10.2988 20.1034 10.2543L20.2059 10.0834C20.7748 9.13498 20.8675 7.97457 20.4569 6.94766C20.4196 6.85456 20.3696 6.76617 20.3094 6.68594L19.6678 5.82949C19.3953 7.31788 18.4416 8.61544 17.0584 9.30703C16.441 9.61546 15.6904 9.36481 15.3817 8.74746C15.0736 8.13015 15.3241 7.3793 15.9413 7.0707C16.7433 6.66951 17.2498 5.84933 17.2498 4.95254V4.12539C17.2496 3.9031 17.1511 3.69156 16.9803 3.54922L16.2069 2.90566ZM8.77817 2.88223C8.29172 2.67405 7.72585 2.67845 7.23422 2.89687C5.4751 3.67871 4.07121 5.12692 3.35922 6.90664C3.03003 7.72964 3.03016 8.64806 3.35922 9.47109L3.52133 9.87734C3.53433 9.90986 3.54411 9.944 3.55551 9.97695L4.46957 10.891C5.14059 11.562 6.05094 11.9388 6.99985 11.9389C7.69004 11.9389 8.24959 12.4987 8.24985 13.1889C8.24985 13.8792 7.6902 14.4389 6.99985 14.4389C5.5211 14.4388 4.09908 13.8991 2.99399 12.9301L2.86801 13.267C2.50266 14.2412 2.44193 15.3044 2.69418 16.3139C3.25828 18.57 4.74152 20.4871 6.78305 21.601L6.95395 21.6947C7.44217 21.9608 8.04706 21.8731 8.44028 21.4799L9.90903 20.0121L10.0799 19.8578C10.1349 19.813 10.1919 19.7717 10.2498 19.7328V17.9389H7.99985C7.30959 17.9388 6.74985 17.3792 6.74985 16.6889C6.7501 15.9988 7.30975 15.439 7.99985 15.4389H10.2498V7.35C9.84717 7.53814 9.42044 7.67934 8.97739 7.76797L8.24496 7.91445C7.56805 8.04977 6.90964 7.6109 6.77426 6.93398C6.6392 6.25725 7.07801 5.59869 7.75473 5.46328L8.48715 5.3168C9.17983 5.17822 9.79921 4.80706 10.2498 4.27187V3.51211L8.77817 2.88223Z" fill="black"/>
</svg>
