<svg width="24" height="24" viewBox="0 0 24 24" fill="none" xmlns="http://www.w3.org/2000/svg">
<path fill-rule="evenodd" clip-rule="evenodd" d="M13.5211 0.931124C14.7648 0.30929 16.2586 0.48246 17.3268 1.37253L18.1002 2.01706C18.5566 2.39751 18.8584 2.92452 18.9606 3.50046H18.9996C19.7865 3.50046 20.5275 3.87094 20.9996 4.50046L21.7096 5.44675C21.8621 5.65006 21.9873 5.87289 22.0817 6.10886C22.6955 7.6437 22.5562 9.37789 21.7057 10.7954L21.6032 10.9663C21.5998 10.9726 21.6 10.9809 21.6041 10.9868L21.9664 11.4936C23.2675 13.3152 23.4558 15.7073 22.4547 17.7094C21.7591 19.1005 20.7766 20.3291 19.5729 21.3139L17.9176 22.6684C16.5259 23.8066 14.4975 23.7054 13.2262 22.4341L11.8532 21.061C11.6579 20.8659 11.3413 20.8659 11.1461 21.061L9.67835 22.5298C8.73619 23.4715 7.28542 23.6802 6.11585 23.0425L5.94495 22.9497C3.47377 21.6017 1.67949 19.2801 0.996706 16.5493C0.658362 15.1957 0.739348 13.7708 1.22913 12.4643L1.90003 10.6753C1.94077 10.5666 1.9392 10.4461 1.89612 10.3384L1.73401 9.93308C1.23792 8.69284 1.23804 7.30811 1.73401 6.06784C2.6174 3.8596 4.35275 2.07462 6.52307 1.10983C7.45422 0.695989 8.5275 0.682837 9.46741 1.08542L11.2701 1.85788C11.4051 1.91574 11.5596 1.91169 11.691 1.84616L13.5211 0.931124ZM16.6871 2.14108C15.9242 1.50535 14.8567 1.38064 13.9684 1.82468L12.1383 2.74069C12.093 2.76331 12.0465 2.78249 11.9996 2.80026V20.0005C12.2047 20.0726 12.3962 20.19 12.5602 20.354L13.9332 21.727C14.8412 22.635 16.2898 22.7068 17.2838 21.894L18.9391 20.5395C19.7764 19.8544 20.4947 19.0386 21.0699 18.1274C20.8138 18.3027 20.5416 18.4554 20.2565 18.5776C18.7951 19.2035 17.1478 19.0341 15.8317 18.1567L14.7223 17.4165C14.4928 17.2634 14.4309 16.9528 14.5836 16.7231C14.7368 16.4934 15.0472 16.4314 15.277 16.5844L16.3864 17.3247C17.4281 18.0192 18.7194 18.1475 19.8629 17.6577C20.6691 17.3121 21.3508 16.6806 21.7399 15.9028L22.0524 15.2768C22.0621 15.2575 22.0748 15.2397 22.0865 15.2221C22.1336 14.1174 21.8184 13.0074 21.153 12.0757L20.7907 11.5678C20.5551 11.2379 20.5375 10.7994 20.7457 10.4516L20.8483 10.2807C21.538 9.13121 21.6508 7.72465 21.153 6.47995C21.0912 6.32571 21.0094 6.18026 20.9098 6.04733L20.1998 5.10007C19.9165 4.72246 19.4717 4.50046 18.9996 4.50046H18.9928C18.9175 6.25302 17.8249 7.80843 16.1852 8.46433C15.929 8.56648 15.6383 8.44211 15.5358 8.18601C15.4333 7.92979 15.5581 7.63934 15.8141 7.53659C17.134 7.00863 17.9994 5.72963 17.9996 4.30808V3.93698C17.9996 3.4919 17.8015 3.06958 17.4596 2.78464L16.6871 2.14108ZM9.07385 2.00437C8.39303 1.71274 7.60941 1.72074 6.92932 2.02292C4.99398 2.88324 3.4481 4.47648 2.66272 6.43991C2.26222 7.44166 2.26209 8.5593 2.66272 9.56101L2.82483 9.96726C2.85324 10.0383 2.87436 10.1113 2.89124 10.185L3.93909 11.2329C4.7507 12.0444 5.85191 12.5003 6.99964 12.5005C7.27578 12.5005 7.49964 12.7243 7.49964 13.0005C7.49944 13.2764 7.27566 13.5005 6.99964 13.5005C5.58669 13.5003 4.23121 12.939 3.23206 11.9399L2.69495 11.4028L2.16565 12.8149C1.747 13.9316 1.67719 15.1501 1.96643 16.3071C2.58143 18.7668 4.19862 20.8576 6.42444 22.0717L6.59436 22.1645C7.37454 22.5901 8.34178 22.4499 8.97034 21.8217L10.4391 20.354C10.6026 20.1905 10.7953 20.0737 10.9996 20.0014V2.82175C10.9585 2.80822 10.9167 2.795 10.8766 2.7778L9.07385 2.00437Z" fill="black"/>
</svg>
