<svg width="24" height="24" viewBox="0 0 24 24" fill="none" xmlns="http://www.w3.org/2000/svg">
<path d="M13.6325 1.15354C14.7872 0.576215 16.1748 0.737447 17.1667 1.56369L17.9401 2.20725C18.1803 2.40735 18.3702 2.65405 18.5065 2.92697C18.5031 2.95081 18.4997 2.97542 18.4997 3.00022C18.4997 3.42868 18.4557 3.84867 18.3923 4.26389C18.1726 5.69962 17.156 6.99962 15.8142 7.53635C15.5581 7.63906 15.4333 7.92952 15.5358 8.18576C15.6384 8.44185 15.9291 8.56629 16.1853 8.46408C17.8628 7.79306 19.1086 6.19314 19.3806 4.41428C19.4111 4.21422 19.4371 4.00798 19.4577 3.79709C19.9887 3.90768 20.4678 4.20766 20.7995 4.64963L21.5095 5.59592C21.6486 5.78146 21.7631 5.9851 21.8493 6.20041C22.4342 7.66267 22.3021 9.31475 21.4919 10.6653L21.3894 10.8362C21.3344 10.9278 21.3392 11.044 21.4011 11.1311L21.7634 11.6379C22.3271 12.4271 22.6707 13.3285 22.7917 14.2561C22.5301 14.7193 22.1685 15.3268 21.8249 15.9094C21.3721 16.6771 20.6712 17.311 19.863 17.6574C18.7195 18.1473 17.4283 18.019 16.3864 17.3244L15.2771 16.5842C15.0473 16.4311 14.7369 16.4931 14.5837 16.7229C14.4309 16.9526 14.4928 17.2631 14.7224 17.4162L15.8317 18.1565C17.1479 19.0339 18.7952 19.2034 20.2565 18.5774C21.2527 18.1504 22.0984 17.3857 22.654 16.468C22.5535 16.8532 22.4134 17.2314 22.2312 17.5959C21.5513 18.9556 20.5913 20.1567 19.4148 21.1194L17.7595 22.4739C16.4672 23.5311 14.5837 23.4367 13.403 22.2561L12.03 20.883C12.0203 20.8734 12.0098 20.8647 11.9997 20.8557V1.96994L13.6325 1.15354Z" fill="black"/>
<path d="M6.62471 1.33713C7.49315 0.951175 8.49466 0.939766 9.36983 1.31467L10.9997 2.01291V20.8557C10.9897 20.8647 10.9791 20.8734 10.9694 20.883L9.50167 22.3508C8.63785 23.2146 7.30752 23.4065 6.23507 22.8215L6.06514 22.7287C3.6554 21.4141 1.90474 19.1506 1.23897 16.4875C0.913069 15.1831 0.991524 13.8099 1.46358 12.551L1.95577 11.2375C2.30823 11.588 2.68848 11.9193 3.0671 12.2209C4.1939 13.1184 5.60843 13.5002 6.99971 13.5002C7.27572 13.5002 7.4995 13.2762 7.49971 13.0002C7.49971 12.7241 7.27585 12.5002 6.99971 12.5002C5.78304 12.5002 4.60328 12.166 3.69014 11.4387C2.95484 10.853 2.30904 10.2335 1.88839 9.62912C1.4964 8.50364 1.52208 7.27049 1.96651 6.1594C2.82553 4.01252 4.51317 2.27567 6.62471 1.33713Z" fill="black"/>
</svg>
