<svg width="24" height="24" viewBox="0 0 24 24" fill="none" xmlns="http://www.w3.org/2000/svg">
<path fill-rule="evenodd" clip-rule="evenodd" d="M13.4105 0.706467C14.7429 0.0405484 16.3433 0.225596 17.4877 1.17912L18.2611 1.82365C18.7093 2.19724 19.0205 2.70015 19.1625 3.25432C19.9668 3.30182 20.7138 3.70018 21.2006 4.34904L21.9105 5.29631C22.0761 5.51707 22.2123 5.75888 22.3148 6.01506C22.9576 7.62222 22.8116 9.43792 21.9213 10.9223L21.8959 10.9623L22.1713 11.3481C23.5257 13.2447 23.7211 15.7351 22.6791 17.8197C21.9678 19.2424 20.9628 20.499 19.7318 21.5063L18.0766 22.8608C16.5855 24.0807 14.4125 23.9721 13.0502 22.6098L11.6771 21.2367C11.5796 21.1393 11.4213 21.1395 11.3236 21.2367L9.85585 22.7055C8.83525 23.7261 7.2636 23.9522 5.99647 23.2612L5.82655 23.1674C3.29386 21.7859 1.45399 19.4076 0.754286 16.6088C0.403734 15.206 0.487813 13.7293 0.995497 12.3754L1.6664 10.5863C1.68515 10.536 1.68536 10.48 1.66542 10.4301L1.50233 10.0248C0.982399 8.72487 0.982357 7.27398 1.50233 5.97404C2.41032 3.70447 4.19296 1.87113 6.42225 0.880295C7.41626 0.438629 8.56211 0.424395 9.56679 0.854904L11.3695 1.62737C11.437 1.65622 11.5138 1.65419 11.5795 1.62151L13.4105 0.706467ZM16.5277 2.33147C15.8411 1.75928 14.8799 1.64772 14.0805 2.04729L12.2504 2.9633V19.8344C12.4263 19.9179 12.5921 20.0306 12.7377 20.1762L14.1107 21.5492C14.9281 22.3666 16.2317 22.4315 17.1264 21.6996L18.7816 20.3451C19.3272 19.8987 19.82 19.3948 20.2553 18.8451C18.7393 19.4562 17.049 19.2672 15.6937 18.3637L14.5844 17.6235C14.2397 17.3937 14.1466 16.9281 14.3764 16.5834C14.6062 16.239 15.0719 16.1457 15.4164 16.3754L16.5258 17.1156C17.4991 17.7645 18.7009 17.8832 19.765 17.4272C20.5187 17.1041 21.1553 16.5138 21.517 15.7905L21.8295 15.1645C21.8323 15.1589 21.8353 15.1534 21.8383 15.1479C21.8688 14.1185 21.5705 13.0871 20.9506 12.2192L20.5883 11.7123C20.2946 11.3012 20.2727 10.755 20.5326 10.3217L20.6351 10.1508C21.2844 9.06831 21.3901 7.74372 20.9213 6.5717C20.8677 6.43785 20.7969 6.31107 20.7103 6.19572L20.0004 5.24944C19.8151 5.00238 19.5464 4.83631 19.2494 4.7758C19.2447 6.42532 18.3113 7.93222 16.8353 8.67033C16.4649 8.85527 16.0147 8.70475 15.8295 8.3344C15.6446 7.96401 15.7951 7.51369 16.1654 7.32854C17.1366 6.84259 17.7504 5.84916 17.7504 4.76311V3.93596C17.7502 3.56519 17.585 3.21338 17.3002 2.976L16.5277 2.33147ZM8.97597 2.23381C8.35993 1.96982 7.649 1.97622 7.03163 2.25041C5.15494 3.08449 3.6559 4.62946 2.89491 6.53166C2.51817 7.47377 2.51821 8.52508 2.89491 9.46721L3.058 9.87346C3.08173 9.9328 3.09973 9.99401 3.11659 10.0551L4.11659 11.0551C4.88143 11.8199 5.91878 12.2494 7.00038 12.2494C7.41436 12.2496 7.75022 12.5855 7.75038 12.9994C7.75038 13.4136 7.41446 13.7493 7.00038 13.7494C5.52096 13.7494 4.10219 13.1617 3.05604 12.1156L2.79335 11.853L2.40077 12.9018C1.99979 13.9711 1.93341 15.1376 2.21034 16.2455C2.8084 18.6375 4.37976 20.6703 6.54432 21.851L6.71522 21.9438C7.39816 22.3161 8.24428 22.194 8.79432 21.644L10.2631 20.1762C10.4087 20.0306 10.5744 19.9179 10.7504 19.8344V2.99358L8.97597 2.23381Z" fill="black"/>
</svg>
