<svg width="24" height="24" viewBox="0 0 24 24" fill="none" xmlns="http://www.w3.org/2000/svg">
<path d="M13.6331 1.15461C14.7879 0.577284 16.1754 0.738196 17.1673 1.56476L17.9407 2.20832C17.9697 2.23245 17.9962 2.25908 18.0237 2.28449C17.9913 2.43087 17.9917 2.58709 18.0305 2.7425C18.2045 3.43849 18.1498 4.0318 18.0198 4.60382C17.7827 5.64655 17.0122 6.62614 16.053 7.10578C15.559 7.35277 15.3588 7.9536 15.6057 8.44757C15.8528 8.94133 16.4537 9.14178 16.9475 8.89484C18.4396 8.14877 19.5995 6.67688 19.97 5.04718C20.0396 4.74101 20.0946 4.40988 20.1214 4.05402C20.3819 4.20416 20.6149 4.40379 20.8001 4.6507L21.51 5.59699C21.6492 5.78264 21.7637 5.98604 21.8499 6.20148C22.2965 7.31831 22.323 8.54506 21.9505 9.66437C21.8948 9.70108 21.8422 9.74427 21.7932 9.79328C21.3988 10.1877 20.409 10.8648 19.5003 11.3694C19.2745 11.4948 19.0147 11.5909 18.7249 11.6634L17.2581 12.0306C16.7224 12.1645 16.3968 12.7068 16.5305 13.2425C16.6646 13.778 17.2068 14.1038 17.7425 13.97L19.2102 13.6038C19.6281 13.4993 20.0589 13.3463 20.471 13.1175C20.9779 12.836 21.5517 12.4791 22.0686 12.1185C22.3195 12.5543 22.51 13.0156 22.6389 13.4915C22.6272 13.5114 22.6162 13.5321 22.6057 13.553C22.3911 13.9823 21.8857 14.8232 21.3948 15.6556C20.9929 16.337 20.3714 16.8963 19.6663 17.1986C18.6818 17.6204 17.5689 17.5114 16.6643 16.9085L15.555 16.1683C15.0954 15.8619 14.4746 15.9861 14.1682 16.4456C13.8619 16.9051 13.9861 17.526 14.4456 17.8323L15.555 18.5726C17.0085 19.5415 18.8339 19.7309 20.4544 19.0364C21.0207 18.7937 21.54 18.4523 21.9944 18.0423C21.3354 19.2191 20.4614 20.2645 19.4153 21.1204L17.76 22.4749C16.4679 23.532 14.5842 23.4375 13.4036 22.2571L12.4514 21.305C12.4822 21.2088 12.5002 21.1067 12.5003 21.0003V11.5003H14.0003C14.5524 11.5002 15.0001 11.0524 15.0003 10.5003C15.0003 9.9481 14.5524 9.50044 14.0003 9.50031H12.5003V1.72101L13.6331 1.15461Z" fill="black"/>
<path d="M6.62527 1.3382C7.49383 0.952248 8.49516 0.940638 9.37039 1.31574L10.5003 1.80011V4.17414C10.0093 4.79052 9.31502 5.21759 8.53641 5.37336L7.80398 5.51984C7.26253 5.62824 6.91151 6.1551 7.0198 6.6966C7.12833 7.23789 7.65516 7.58906 8.19656 7.48078L8.92898 7.33429C9.48557 7.22292 10.0145 7.02332 10.5003 6.75031V15.5003H8.00027C7.44799 15.5003 7.00027 15.948 7.00027 16.5003C7.00041 17.0525 7.44807 17.5003 8.00027 17.5003H10.5003V21.0003C10.5003 21.1066 10.5174 21.2089 10.5481 21.305L9.50223 22.3519C8.63849 23.2155 7.30797 23.4073 6.23563 22.8226L6.0657 22.7298C3.65578 21.4153 1.9054 19.1517 1.23953 16.4886C0.913463 15.1841 0.992082 13.8111 1.46414 12.5521L1.76492 11.7484C2.09114 12.0601 2.42891 12.351 2.75613 12.6116C3.98982 13.5942 5.52169 14.0003 7.00027 14.0003C7.55236 14.0002 8.00013 13.5524 8.00027 13.0003C8.00027 12.4481 7.55244 12.0004 7.00027 12.0003C5.87089 12.0003 4.80858 11.6893 4.00223 11.0472C2.94593 10.2058 2.17797 9.37184 1.94852 8.6839C1.88416 8.49103 1.76629 8.33087 1.61746 8.21418C1.58739 7.51864 1.70399 6.81826 1.96707 6.16046C2.82605 4.01346 4.51363 2.27678 6.62527 1.3382Z" fill="black"/>
</svg>
