<svg width="24" height="24" viewBox="0 0 24 24" fill="none" xmlns="http://www.w3.org/2000/svg">
<path d="M13.6335 1.1545C14.7883 0.577374 16.1759 0.738166 17.1677 1.56465L17.9412 2.20821C18.4056 2.59548 18.6901 3.15269 18.74 3.7502H18.7419C18.7384 3.80922 18.734 3.86854 18.7283 3.92793C18.557 5.71158 17.2559 7.34233 15.6238 8.1584L15.3884 8.27657C15.2652 8.33832 15.2147 8.48819 15.2761 8.61153C15.3378 8.73481 15.4877 8.7851 15.6111 8.72383L15.8474 8.60567C17.603 7.72787 19.0356 5.96241 19.2263 3.97578C19.2331 3.90518 19.238 3.83412 19.2419 3.76289C19.8581 3.82957 20.4244 4.14911 20.8005 4.65059L21.5105 5.59688C21.6496 5.78242 21.7642 5.98608 21.8503 6.20137C22.435 7.66346 22.3029 9.31589 21.4929 10.6662L21.3904 10.8371C21.3354 10.9289 21.3399 11.0449 21.4021 11.132L21.7644 11.6389C22.3463 12.4538 22.6918 13.3883 22.8015 14.3479C22.7919 14.3604 22.7834 14.3743 22.7761 14.3889C22.5661 14.809 22.2604 15.4194 21.9626 16.0148C21.5463 16.8471 20.8205 17.5198 19.9617 17.8879C18.7386 18.412 17.3583 18.2728 16.2478 17.5324L15.1384 16.7922C15.0236 16.7157 14.8683 16.7467 14.7917 16.8615C14.7153 16.9763 14.7464 17.1316 14.8611 17.2082L15.9704 17.9484C17.2181 18.7802 18.776 18.939 20.1579 18.3469C21.122 17.9337 21.939 17.1799 22.4099 16.2385C22.5509 15.9564 22.6934 15.6706 22.8269 15.4035C22.7754 16.1543 22.5802 16.9005 22.2322 17.5969C21.5524 18.9564 20.5921 20.1577 19.4158 21.1203L17.7605 22.4748C16.4684 23.5319 14.5847 23.4373 13.404 22.257L12.031 20.884C11.9492 20.8022 11.852 20.7452 11.7497 20.7092V10.7502H13.9997C14.1378 10.7502 14.2497 10.6382 14.2497 10.5002C14.2497 10.3621 14.1378 10.2502 13.9997 10.2502H11.7497V2.092C11.7676 2.08474 11.7861 2.07821 11.8035 2.06953L13.6335 1.1545Z" fill="black"/>
<path d="M6.62572 1.33809C7.4942 0.952293 8.49573 0.94058 9.37084 1.31563L11.1726 2.08809C11.1978 2.09888 11.2237 2.10755 11.2497 2.11543V4.42012C10.6453 5.29315 9.7264 5.89988 8.68334 6.1086L7.95092 6.25508C7.81573 6.28226 7.72768 6.41378 7.75463 6.54903C7.78169 6.68426 7.91335 6.77212 8.04857 6.74532L8.78099 6.59883C9.73475 6.40808 10.5962 5.92063 11.2497 5.217V16.2502H7.99974C7.86179 16.2503 7.74974 16.3622 7.74974 16.5002C7.74979 16.6382 7.86181 16.7501 7.99974 16.7502H11.2497V20.7092C11.1479 20.7453 11.052 20.8026 10.9704 20.884L9.50267 22.3518C8.63902 23.2154 7.30842 23.407 6.23607 22.8225L6.06615 22.7297C3.65629 21.4152 1.90589 19.1515 1.23998 16.4885C0.913985 15.1841 0.992561 13.8109 1.46459 12.552L2.05248 10.9826C2.41492 11.3513 2.8171 11.702 3.22338 12.0256C4.29673 12.8804 5.65223 13.2502 6.99974 13.2502C7.13778 13.2502 7.24969 13.1382 7.24974 13.0002C7.24974 12.8621 7.13781 12.7502 6.99974 12.7502C5.73943 12.7502 4.50146 12.4038 3.5349 11.634C3.03123 11.2328 2.55873 10.806 2.16674 10.3723C2.15824 10.3292 2.1461 10.2866 2.12963 10.2453L1.96752 9.84004C1.49531 8.65938 1.49532 7.34102 1.96752 6.16036C2.82655 4.01345 4.51412 2.27661 6.62572 1.33809Z" fill="black"/>
</svg>
