<svg width="24" height="24" viewBox="0 0 24 24" fill="none" xmlns="http://www.w3.org/2000/svg">
<path d="M13.6323 1.15356C14.787 0.576202 16.1746 0.737448 17.1665 1.56371L17.7505 2.04907C17.7538 2.1328 17.7655 2.2175 17.7866 2.302C17.9668 3.02291 17.8891 3.75547 17.7163 4.54223C17.4979 5.53586 16.8075 6.44762 15.9409 6.8811C15.3238 7.18972 15.0733 7.94061 15.3813 8.55785C15.69 9.17515 16.4407 9.42575 17.0581 9.11742C18.6427 8.32512 19.7878 6.76241 20.1577 5.07934C20.2186 4.80221 20.275 4.5011 20.3178 4.1809C20.4983 4.31172 20.6624 4.4672 20.7993 4.64965L21.5092 5.59594C21.6484 5.7815 21.7629 5.98509 21.8491 6.20043C22.2264 7.14375 22.3032 8.16567 22.0942 9.135C21.665 9.55352 20.3099 10.5796 19.3374 11.1604C19.1612 11.2655 18.9406 11.3509 18.6635 11.4202L17.1967 11.7864C16.5275 11.9538 16.1199 12.6327 16.2866 13.302C16.454 13.9715 17.1327 14.3791 17.8022 14.2122L19.27 13.845C19.7004 13.7374 20.1696 13.5756 20.6196 13.3069C21.0841 13.0295 21.6335 12.658 22.1587 12.2776C22.3159 12.572 22.4442 12.8779 22.5473 13.1907C22.4837 13.2656 22.4273 13.3488 22.3813 13.4407C22.1717 13.8598 21.6731 14.6883 21.1782 15.5276C20.8018 16.1658 20.2204 16.687 19.5669 16.967C18.662 17.3547 17.6391 17.2565 16.8032 16.6995L15.6928 15.9592C15.1185 15.5767 14.3423 15.7318 13.9594 16.3059C13.5766 16.8801 13.7321 17.6562 14.3061 18.0393C14.6415 18.2629 15.0308 18.5231 15.4155 18.7795C16.9377 19.7943 18.8522 19.9934 20.5522 19.2649C20.9269 19.1043 21.2815 18.9026 21.6118 18.6682C21.0095 19.5905 20.2707 20.4189 19.4145 21.1194L17.7592 22.4739C16.467 23.5311 14.5834 23.4367 13.4028 22.2561L12.7495 21.6028V11.7493H13.9995C14.6898 11.7493 15.2495 11.1896 15.2495 10.4993C15.2492 9.80913 14.6897 9.24926 13.9995 9.24926H12.7495V4.51293C12.7496 4.50055 12.7497 4.48819 12.7495 4.47582V1.59496L13.6323 1.15356Z" fill="black"/>
<path d="M6.62448 1.33715C7.49292 0.951179 8.49442 0.939789 9.3696 1.31469L10.2495 1.69164V4.08227C9.79885 4.61741 9.17943 4.9896 8.48679 5.12817L7.75437 5.27465C7.07769 5.41026 6.63854 6.06857 6.7739 6.74535C6.90943 7.42192 7.56795 7.86088 8.2446 7.72582L8.97702 7.57934C9.42002 7.49073 9.84685 7.34849 10.2495 7.16039V15.2493H7.99948C7.30948 15.2495 6.74975 15.8093 6.74948 16.4993C6.74948 17.1895 7.30932 17.749 7.99948 17.7493H10.2495V21.6028L9.50144 22.3508C8.63762 23.2146 7.30729 23.4065 6.23483 22.8215L6.06491 22.7288C3.65517 21.4142 1.90451 19.1506 1.23874 16.4875C0.912814 15.1831 0.991283 13.81 1.46335 12.551L1.60007 12.1848C1.70687 12.2851 1.81326 12.384 1.92136 12.4788C2.89065 13.3279 4.03984 13.83 5.10398 14.1848C5.75881 14.4031 6.46661 14.0495 6.68503 13.3948C6.9031 12.74 6.54962 12.0321 5.89499 11.8137C4.9685 11.5048 4.17783 11.1314 3.56882 10.5979C2.63008 9.77535 1.94296 8.87756 1.68503 8.10375C1.66528 8.04466 1.64009 7.9888 1.61276 7.93481C1.62061 7.33164 1.73829 6.7294 1.96628 6.15942C2.82528 4.01251 4.51292 2.27571 6.62448 1.33715Z" fill="black"/>
</svg>
