<svg width="24" height="24" viewBox="0 0 24 24" fill="none" xmlns="http://www.w3.org/2000/svg">
<path d="M13.6326 1.15357C14.7873 0.576255 16.1749 0.737352 17.1667 1.56373L17.7507 2.04908C17.7541 2.13282 17.7658 2.21751 17.7869 2.30201C17.9671 3.02298 17.8894 3.75541 17.7166 4.54224C17.4982 5.53587 16.8078 6.44763 15.9412 6.88111C15.324 7.18977 15.0734 7.94057 15.3816 8.55787C15.6902 9.17517 16.441 9.42578 17.0583 9.11744C18.6429 8.32514 19.788 6.76243 20.158 5.07935C20.2189 4.802 20.2743 4.50044 20.3171 4.17994C20.498 4.31091 20.6624 4.46682 20.7996 4.64967L21.5095 5.59596C21.6487 5.78159 21.7631 5.98502 21.8494 6.20045C22.4343 7.66273 22.3022 9.31477 21.4919 10.6653L21.3894 10.8362C21.3345 10.9279 21.3391 11.044 21.4011 11.1311L21.7634 11.6379C22.1077 12.1199 22.3675 12.6448 22.5476 13.1907C22.484 13.2657 22.4275 13.3488 22.3816 13.4407C22.1719 13.8599 21.6734 14.6883 21.1785 15.5276C20.802 16.1658 20.2206 16.687 19.5671 16.967C18.6622 17.3547 17.6394 17.2565 16.8035 16.6995L15.6931 15.9592C15.1187 15.5766 14.3426 15.7316 13.9597 16.3059C13.5768 16.8802 13.7322 17.6563 14.3064 18.0393C14.6418 18.2629 15.031 18.523 15.4158 18.7795C16.938 19.7943 18.8525 19.9934 20.5525 19.2649C20.928 19.104 21.2831 18.9013 21.614 18.6663C21.0115 19.5894 20.2716 20.4183 19.4148 21.1194L17.7595 22.4739C16.4673 23.531 14.5837 23.4367 13.4031 22.2561L12.7498 21.6028V11.7493H13.9998C14.6901 11.7493 15.2498 11.1896 15.2498 10.4993C15.2496 9.80904 14.69 9.24928 13.9998 9.24928H12.7498V1.59498L13.6326 1.15357Z" fill="black"/>
<path d="M6.62475 1.33717C7.49323 0.951218 8.49468 0.939734 9.36987 1.31471L10.2498 1.69166V15.2493H7.99975C7.30961 15.2494 6.74989 15.8091 6.74975 16.4993C6.74975 17.1895 7.30952 17.7491 7.99975 17.7493H10.2498V21.6028L9.50171 22.3508C8.63789 23.2145 7.30749 23.4065 6.2351 22.8215L6.06518 22.7288C3.65534 21.4142 1.90479 19.1507 1.23901 16.4876C0.913021 15.1831 0.991557 13.81 1.46362 12.551L1.60034 12.1848C1.70714 12.2851 1.81353 12.3841 1.92163 12.4788C2.89098 13.328 4.04005 13.83 5.10425 14.1848C5.75908 14.4031 6.46688 14.0495 6.6853 13.3948C6.90349 12.74 6.54995 12.0321 5.89526 11.8137C4.96869 11.5048 4.17814 11.1315 3.56909 10.5979C2.63025 9.77532 1.94325 8.87763 1.6853 8.10377C1.66557 8.04467 1.64034 7.98881 1.61303 7.93482C1.62091 7.33169 1.73857 6.72941 1.96655 6.15943C2.82553 4.01253 4.51322 2.27574 6.62475 1.33717Z" fill="black"/>
</svg>
