<svg width="24" height="24" viewBox="0 0 24 24" fill="none" xmlns="http://www.w3.org/2000/svg">
<path fill-rule="evenodd" clip-rule="evenodd" d="M13.2981 0.483769C14.7195 -0.226812 16.427 -0.0286732 17.6477 0.988652L18.4212 1.63221C18.8633 2.00074 19.1837 2.48472 19.3558 3.02088C20.1645 3.11737 20.9059 3.54084 21.4007 4.20057L22.1106 5.14685C22.2894 5.38523 22.4355 5.64658 22.5462 5.92322C23.2034 7.56647 23.0699 9.41648 22.1927 10.9486L22.3743 11.2035C23.7828 13.1757 23.9854 15.7653 22.9017 17.933C22.1745 19.3871 21.1482 20.6711 19.8899 21.7006L18.2347 23.0551C16.6442 24.3563 14.3264 24.2405 12.8733 22.7875L11.5003 21.4144L10.0325 22.8832C8.93349 23.9822 7.24076 24.225 5.87626 23.4808L5.70634 23.3881C3.11249 21.9732 1.22874 19.5376 0.512007 16.6713C0.14894 15.219 0.236389 13.6901 0.762007 12.2885L1.42802 10.5111L1.2708 10.1185C0.726958 8.75894 0.726958 7.2418 1.2708 5.88221C2.20327 3.55135 4.03249 1.66969 6.3206 0.652714C7.37747 0.183068 8.5958 0.16798 9.66533 0.626347L11.4681 1.39881L13.2981 0.483769ZM16.3675 2.52478C15.7572 2.0162 14.9033 1.91676 14.1927 2.27185L12.5003 3.11756V9.50037H14.0003C14.5524 9.50051 15.0003 9.94818 15.0003 10.5004C15.0003 11.0526 14.5525 11.5002 14.0003 11.5004H12.5003V19.6849C12.6478 19.7704 12.7881 19.8741 12.9144 20.0004L14.2874 21.3734C15.0139 22.0998 16.1729 22.1577 16.9681 21.5072L18.6233 20.1527C18.9317 19.9004 19.2202 19.6267 19.4935 19.3392C18.1403 19.6264 16.7271 19.354 15.555 18.5726L14.4456 17.8324C13.9861 17.526 13.8619 16.9052 14.1683 16.4457C14.4746 15.9863 15.0955 15.862 15.555 16.1683L16.6644 16.9086C17.569 17.5116 18.6818 17.6204 19.6663 17.1986C20.3674 16.8981 20.9588 16.348 21.2933 15.6791L21.5892 15.0853C21.6055 14.1284 21.3227 13.1725 20.7464 12.3656L20.3841 11.8588C20.0326 11.3666 20.0065 10.7123 20.3177 10.1937L20.4202 10.0228C21.0294 9.00732 21.1295 7.76495 20.6897 6.66541C20.6443 6.55186 20.5834 6.44491 20.5101 6.34705L19.8001 5.40076C19.7028 5.27109 19.5769 5.16871 19.4349 5.09998C19.16 6.80663 18.0116 8.27289 16.3714 8.92908C15.8587 9.13393 15.2767 8.88409 15.0716 8.37146C14.8667 7.85876 15.1165 7.27673 15.6292 7.07166C16.7591 6.61945 17.5002 5.52503 17.5003 4.30799V3.93689C17.5002 3.64047 17.3685 3.35925 17.1409 3.16932L16.3675 2.52478ZM8.87724 2.46424C8.32598 2.22808 7.68765 2.23355 7.1331 2.47986C5.31512 3.28785 3.8637 4.7843 3.12724 6.62537C2.77423 7.50803 2.77423 8.49271 3.12724 9.37537L3.28935 9.78162C3.30808 9.82845 3.32319 9.87639 3.33818 9.9242L4.29326 10.8793C5.0112 11.5971 5.98505 12.0004 7.00029 12.0004C7.55245 12.0005 8.00027 12.4482 8.00029 13.0004C8.00029 13.5526 7.55246 14.0002 7.00029 14.0004C5.45991 14.0004 3.98284 13.3899 2.89091 12.3041L2.63408 12.9906C2.25087 14.0125 2.18774 15.1271 2.45244 16.1859C3.03356 18.5102 4.5611 20.485 6.66435 21.6322L6.83427 21.725C7.41988 22.0443 8.14581 21.9398 8.61748 21.4681L10.0862 20.0004C10.2125 19.8741 10.3527 19.7704 10.5003 19.6849V17.5004H8.00029C7.448 17.5004 7.00029 17.0527 7.00029 16.5004C7.0003 15.9481 7.44801 15.5004 8.00029 15.5004H10.5003V6.75037C10.0145 7.02341 9.48561 7.22296 8.929 7.33435L8.19658 7.48084C7.65509 7.58914 7.12822 7.2381 7.01982 6.69666C6.91152 6.15516 7.26255 5.6283 7.804 5.5199L8.53642 5.37342C9.31508 5.21762 10.0093 4.79066 10.5003 4.1742V3.15955L8.87724 2.46424Z" fill="black"/>
</svg>
