<svg width="24" height="24" viewBox="0 0 24 24" fill="none" xmlns="http://www.w3.org/2000/svg">
<path d="M13.6328 1.15348C14.7875 0.576321 16.1752 0.737343 17.167 1.56364L17.9404 2.20719C18.0953 2.33625 18.2281 2.48566 18.3408 2.64762C18.2845 2.7528 18.2501 2.87157 18.25 2.99918C18.25 3.41073 18.2078 3.81702 18.1455 4.22477C17.9392 5.57492 16.9796 6.79952 15.7217 7.3029C15.3373 7.45666 15.1503 7.89305 15.3037 8.2775C15.4575 8.66204 15.8938 8.84919 16.2783 8.69547C18.0397 7.99079 19.343 6.31595 19.6279 4.45133C19.6569 4.26157 19.6806 4.06558 19.7012 3.86442C20.1337 4.00678 20.5198 4.27645 20.7998 4.64957L21.5098 5.59586C21.6489 5.78146 21.7634 5.98498 21.8496 6.20036C22.4345 7.66256 22.3023 9.31472 21.4922 10.6652L21.3896 10.8361C21.3346 10.9279 21.3393 11.0439 21.4014 11.131L21.7637 11.6379C22.2462 12.3134 22.5658 13.0716 22.7246 13.8576C22.4714 14.327 22.0317 15.0653 21.6094 15.7814C21.182 16.506 20.5213 17.1026 19.7646 17.4269C18.7005 17.883 17.4987 17.7643 16.5254 17.1154L15.416 16.3752C15.0715 16.1456 14.6058 16.2389 14.376 16.5832C14.1462 16.9278 14.2395 17.3934 14.584 17.6232L15.6933 18.3634C17.0783 19.2867 18.8144 19.4662 20.3555 18.8058C21.1363 18.4711 21.8262 17.9403 22.3682 17.2941C22.3246 17.3952 22.281 17.4967 22.2314 17.5959C21.5516 18.9555 20.5915 20.1567 19.415 21.1193L17.7598 22.4738C16.4675 23.531 14.5839 23.4366 13.4033 22.256L12.2422 21.0949C12.2461 21.0636 12.25 21.0315 12.25 20.9992V11.2502H14C14.414 11.2501 14.7497 10.9141 14.75 10.5002C14.75 10.086 14.4142 9.75022 14 9.75016H12.25V1.84489L13.6328 1.15348Z" fill="black"/>
<path d="M6.62499 1.33707C7.49339 0.951248 8.49501 0.939691 9.37011 1.31461L10.75 1.90543V15.7502H7.99999C7.58578 15.7502 7.24999 16.0859 7.24999 16.5002C7.25025 16.9142 7.58594 17.2502 7.99999 17.2502H10.75V20.9992C10.75 21.0318 10.7518 21.0644 10.7558 21.0959L9.50194 22.3507C8.63819 23.2145 7.30776 23.4063 6.23534 22.8214L6.06542 22.7287C3.65559 21.4141 1.90503 19.1506 1.23925 16.4875C0.913288 15.183 0.991776 13.8099 1.46386 12.5509L1.86034 11.4923C2.20073 11.8238 2.55979 12.1346 2.9121 12.4152C4.09239 13.3553 5.565 13.7492 6.99999 13.7492C7.41415 13.7491 7.74999 13.4134 7.74999 12.9992C7.74972 12.5852 7.41399 12.2492 6.99999 12.2492C5.827 12.2492 4.70643 11.927 3.84667 11.2423C2.78847 10.3995 1.96651 9.52569 1.7119 8.76188C1.69668 8.71631 1.67691 8.67344 1.65429 8.63297C1.54715 7.8018 1.65063 6.94972 1.96679 6.15934C2.82581 4.0125 4.51347 2.2756 6.62499 1.33707Z" fill="black"/>
</svg>
