<svg width="24" height="24" viewBox="0 0 24 24" fill="none" xmlns="http://www.w3.org/2000/svg">
<path d="M13.6336 1.15449C14.7883 0.577383 16.176 0.738164 17.1677 1.56464L17.9412 2.2082C18.1806 2.40782 18.3714 2.6529 18.5076 2.92499C18.5038 2.94961 18.4998 2.97453 18.4998 3.00019C18.4998 3.42877 18.4558 3.84853 18.3923 4.26386C18.1728 5.69977 17.1562 6.99953 15.8142 7.53632C15.558 7.63893 15.4335 7.92947 15.5359 8.18574C15.6384 8.44205 15.929 8.56645 16.1853 8.46406C17.863 7.79297 19.1088 6.19329 19.3806 4.41425C19.4112 4.21405 19.4371 4.00811 19.4578 3.79706C19.9891 3.90756 20.4688 4.20826 20.8005 4.65058L21.5105 5.59687C21.6497 5.78245 21.7642 5.98601 21.8504 6.20136C22.3473 7.44402 22.3241 8.82304 21.8093 10.0383C21.7502 10.0627 21.6943 10.0986 21.6463 10.1467C21.3513 10.4416 20.8307 10.8174 20.2771 11.2277C19.5832 11.742 18.8309 12.1518 18.0349 12.3508L17.3787 12.5148C17.1111 12.5819 16.9478 12.8536 17.0144 13.1213C17.0814 13.389 17.3531 13.5522 17.6209 13.4855L18.2771 13.3215C19.2391 13.081 20.1109 12.5961 20.8728 12.0314C21.1189 11.849 21.3854 11.6534 21.6365 11.4601L21.7644 11.6389C22.328 12.428 22.6708 13.3294 22.7918 14.257C22.5302 14.7202 22.1684 15.3269 21.825 15.9094C21.3721 16.6772 20.6714 17.3109 19.863 17.6574C18.7195 18.1474 17.4284 18.019 16.3865 17.3244L15.2771 16.5842C15.0474 16.4312 14.7369 16.4932 14.5838 16.7228C14.4307 16.9525 14.4929 17.263 14.7224 17.4162L15.8318 18.1564C17.148 19.0339 18.7952 19.2034 20.2566 18.5773C21.2536 18.1501 22.0995 17.3847 22.655 16.466C22.5545 16.8521 22.4148 17.2315 22.2322 17.5969C21.5524 18.9564 20.5921 20.1577 19.4158 21.1203L17.7605 22.4748C16.4683 23.532 14.5847 23.4374 13.4041 22.257L12.031 20.884C12.0211 20.8741 12.0101 20.8649 11.9998 20.8557V11.0002H13.9998C14.2759 11.0002 14.4998 10.7763 14.4998 10.5002C14.4997 10.2241 14.2759 10.0002 13.9998 10.0002H11.9998V1.97089L13.6336 1.15449Z" fill="black"/>
<path d="M6.62574 1.33808C7.49421 0.952293 8.49576 0.940573 9.37086 1.31562L10.9998 2.01386V4.34199C10.4319 5.12767 9.58764 5.67265 8.63356 5.86347L7.90211 6.00995C7.63167 6.06419 7.45575 6.32735 7.50953 6.59784C7.56365 6.86841 7.82687 7.04417 8.09742 6.99042L8.82984 6.84394C9.63681 6.68255 10.3809 6.31916 10.9998 5.79902V16.0002H7.99977C7.72381 16.0004 7.49984 16.2242 7.49977 16.5002C7.49977 16.7762 7.72377 17 7.99977 17.0002H10.9998V20.8566C10.9899 20.8655 10.98 20.8745 10.9705 20.884L9.5027 22.3518C8.63901 23.2154 7.30847 23.4071 6.23609 22.8225L6.06617 22.7297C3.65625 21.4152 1.90587 19.1516 1.24 16.4885C0.913993 15.184 0.992528 13.811 1.46461 12.5519L1.9568 11.2385C2.30898 11.5886 2.68888 11.9196 3.06715 12.2209C4.19396 13.1184 5.60847 13.5001 6.99977 13.5002C7.27591 13.5002 7.49977 13.2763 7.49977 13.0002C7.49969 12.7241 7.27586 12.5002 6.99977 12.5002C5.78307 12.5001 4.60335 12.166 3.6902 11.4387C2.95656 10.8543 2.31106 10.237 1.89039 9.63398C1.49677 8.50731 1.52253 7.27291 1.96754 6.16034C2.82658 4.01344 4.51414 2.2766 6.62574 1.33808Z" fill="black"/>
</svg>
