<svg width="24" height="24" viewBox="0 0 24 24" fill="none" xmlns="http://www.w3.org/2000/svg">
<path d="M13.6331 1.15459C14.7879 0.577278 16.1754 0.738222 17.1673 1.56474L17.9407 2.2083C18.0956 2.33737 18.2283 2.48678 18.3411 2.64873C18.2849 2.75395 18.2503 2.87263 18.2503 3.00029C18.2503 3.41199 18.2081 3.81797 18.1458 4.22588C17.9395 5.57606 16.98 6.80065 15.722 7.304C15.3374 7.45781 15.1503 7.89406 15.304 8.27861C15.4578 8.66311 15.8941 8.85029 16.2786 8.69658C18.0401 7.99192 19.3433 6.31709 19.6282 4.45244C19.6572 4.26268 19.6809 4.06669 19.7015 3.86553C20.1342 4.00782 20.5201 4.27738 20.8001 4.65068L21.5101 5.59697C21.6493 5.78265 21.7637 5.98598 21.8499 6.20146C22.4348 7.66375 22.3027 9.3158 21.4925 10.6663L21.3899 10.8372C21.3349 10.9291 21.3394 11.045 21.4017 11.1321L21.764 11.639C22.2462 12.3141 22.5669 13.0713 22.7259 13.8567C22.4728 14.3262 22.0325 15.0655 21.6097 15.7825C21.1823 16.5071 20.5216 17.1037 19.7649 17.428C18.7009 17.884 17.499 17.7653 16.5257 17.1165L15.4163 16.3763C15.0717 16.1465 14.6061 16.2397 14.3763 16.5843C14.1465 16.9289 14.2396 17.3945 14.5843 17.6243L15.6937 18.3645C17.0786 19.2878 18.8148 19.4673 20.3558 18.8069C21.1381 18.4716 21.829 17.9391 22.3714 17.2913C22.3273 17.3939 22.282 17.4963 22.2317 17.597C21.5519 18.9566 20.5918 20.1578 19.4153 21.1204L17.7601 22.4749C16.4678 23.5321 14.5843 23.4376 13.4036 22.2571L12.2425 21.096C12.2465 21.0646 12.2503 21.0328 12.2503 21.0003V11.2503H14.0003C14.4144 11.2502 14.7503 10.9144 14.7503 10.5003C14.7503 10.0862 14.4144 9.75039 14.0003 9.75029H12.2503V1.84599L13.6331 1.15459Z" fill="black"/>
<path d="M6.6253 1.33818C7.49383 0.952241 8.4952 0.940655 9.37041 1.31572L10.7503 1.90654V4.26006C10.2203 4.96017 9.45115 5.44523 8.58526 5.61845L7.85284 5.76494C7.44688 5.84634 7.18374 6.24171 7.26495 6.64775C7.34635 7.05371 7.74172 7.31685 8.14776 7.23564L8.8792 7.08916C9.55597 6.95378 10.1906 6.68317 10.7503 6.30205V15.7503H8.0003C7.58609 15.7503 7.25031 16.0861 7.2503 16.5003C7.2503 16.9145 7.58608 17.2503 8.0003 17.2503H10.7503V21.0003C10.7503 21.033 10.7521 21.0653 10.7562 21.097L9.50225 22.3519C8.63849 23.2156 7.30805 23.4074 6.23565 22.8226L6.06573 22.7298C3.65577 21.4152 1.90537 19.1518 1.23955 16.4886C0.91348 15.184 0.992036 13.8111 1.46416 12.552L1.86065 11.4935C2.20101 11.8249 2.56014 12.1357 2.91241 12.4163C4.09268 13.3563 5.56535 13.7503 7.0003 13.7503C7.41442 13.7502 7.7503 13.4144 7.7503 13.0003C7.75028 12.5862 7.41441 12.2504 7.0003 12.2503C5.82736 12.2503 4.70672 11.9281 3.84698 11.2435C2.78871 10.4005 1.96684 9.52682 1.71221 8.76299C1.69687 8.71697 1.6765 8.67391 1.65362 8.6331C1.54668 7.80226 1.65103 6.9506 1.96709 6.16045C2.82608 4.01342 4.51363 2.27676 6.6253 1.33818Z" fill="black"/>
</svg>
