<svg width="24" height="24" viewBox="0 0 24 24" fill="none" xmlns="http://www.w3.org/2000/svg">
<path fill-rule="evenodd" clip-rule="evenodd" d="M13.2981 0.483838C14.7195 -0.226869 16.4269 -0.0286547 17.6477 0.988721L18.4211 1.63228C18.8632 2.00079 19.1837 2.48487 19.3557 3.02095C20.1644 3.11744 20.9058 3.54091 21.4006 4.20064L22.1106 5.14692C22.2893 5.38522 22.4355 5.64676 22.5461 5.92329C23.2032 7.56649 23.0699 9.41664 22.1926 10.9487L22.3743 11.2036C23.7826 13.1757 23.9854 15.7655 22.9016 17.9331C22.1745 19.3871 21.1481 20.6712 19.8899 21.7006L18.2346 23.0551C16.6443 24.3562 14.3264 24.2403 12.8733 22.7875L11.5002 21.4145L10.0325 22.8833C8.93349 23.9821 7.24064 24.2249 5.87622 23.4809L5.7063 23.3881C3.11257 21.9734 1.22877 19.5375 0.511964 16.6713C0.148925 15.2192 0.236452 13.6901 0.761964 12.2885L1.42798 10.5112L1.27075 10.1186C0.726956 8.75911 0.727039 7.24179 1.27075 5.88228C2.20321 3.55137 4.03241 1.66977 6.32056 0.652784C7.37748 0.183043 8.59569 0.168018 9.66528 0.626416L11.468 1.39888L13.2981 0.483838ZM16.3674 2.52485C15.7571 2.01622 14.9033 1.9167 14.1926 2.27192L12.5002 3.11763V19.684C12.6478 19.7695 12.788 19.8741 12.9143 20.0004L14.2874 21.3735C15.0139 22.0997 16.1729 22.1576 16.968 21.5073L18.6233 20.1528C18.9316 19.9005 19.2202 19.6267 19.4934 19.3393C18.1403 19.6264 16.727 19.3539 15.5549 18.5727L14.4456 17.8325C13.9861 17.5262 13.862 16.9053 14.1682 16.4458C14.4746 15.9862 15.0954 15.8621 15.5549 16.1684L16.6643 16.9086C17.5689 17.5115 18.6818 17.6205 19.6663 17.1987C20.3674 16.8982 20.9587 16.348 21.2932 15.6792L21.5891 15.0854C21.6055 14.1284 21.3226 13.1726 20.7463 12.3657L20.384 11.8588C20.0326 11.3668 20.0066 10.7124 20.3176 10.1938L20.4202 10.0229C21.0294 9.00748 21.1293 7.76497 20.6897 6.66548C20.6443 6.55203 20.5833 6.4449 20.51 6.34712L19.8 5.40083C19.7026 5.27096 19.5762 5.16878 19.4338 5.10005C19.1588 6.8065 18.0115 8.27308 16.3713 8.92915C15.8588 9.13395 15.2768 8.8839 15.0715 8.37153C14.8667 7.85883 15.1165 7.2768 15.6292 7.07173C16.759 6.61963 17.5 5.525 17.5002 4.30806V3.93696C17.5002 3.64061 17.3683 3.35932 17.1409 3.16939L16.3674 2.52485ZM8.8772 2.46431C8.32586 2.22812 7.68766 2.23353 7.13306 2.47993C5.31504 3.28794 3.86365 4.78432 3.1272 6.62544C2.77431 7.50802 2.77423 8.49288 3.1272 9.37544L3.28931 9.78169C3.30803 9.82853 3.32315 9.87645 3.33814 9.92427L4.29321 10.8793C5.01114 11.597 5.98511 12.0004 7.00025 12.0004C7.55244 12.0005 8.00025 12.4482 8.00025 13.0004C8.00001 13.5525 7.55229 14.0003 7.00025 14.0004C5.45997 14.0004 3.98278 13.3899 2.89087 12.3042L2.63403 12.9907C2.25093 14.0125 2.18772 15.1273 2.45239 16.186C3.0336 18.51 4.56118 20.4851 6.66431 21.6323L6.83423 21.725C7.41976 22.0442 8.1458 21.9397 8.61743 21.4682L10.0862 20.0004C10.2126 19.8741 10.3525 19.7695 10.5002 19.684V3.15962L8.8772 2.46431Z" fill="black"/>
</svg>
