<svg width="24" height="24" viewBox="0 0 24 24" fill="none" xmlns="http://www.w3.org/2000/svg">
<path d="M13.6331 1.15448C14.7878 0.577278 16.1754 0.738326 17.1672 1.56464L17.9407 2.20819C17.9698 2.23246 17.996 2.25977 18.0237 2.28534C17.9914 2.43153 17.9918 2.5872 18.0305 2.74237C18.2045 3.43841 18.1497 4.03165 18.0198 4.6037C17.7827 5.64645 17.0122 6.62596 16.053 7.10565C15.559 7.35263 15.3588 7.95349 15.6057 8.44745C15.8527 8.94143 16.4535 9.1417 16.9475 8.89471C18.4396 8.14859 19.5995 6.67679 19.97 5.04706C20.0396 4.74082 20.0946 4.40983 20.1213 4.05389C20.3817 4.20403 20.6149 4.40383 20.8001 4.65057L21.51 5.59686C21.6491 5.7824 21.7637 5.98606 21.8499 6.20136C22.4346 7.66357 22.3026 9.31576 21.4924 10.6662L21.3899 10.8371C21.3349 10.9289 21.3396 11.0449 21.4016 11.132L21.7639 11.6389C22.1712 12.2091 22.4618 12.8385 22.6389 13.4933C22.6275 13.5128 22.616 13.5324 22.6057 13.5529C22.3911 13.9822 21.8856 14.8231 21.3948 15.6555C20.9929 16.3369 20.3714 16.8962 19.6663 17.1984C18.6817 17.6203 17.569 17.5115 16.6643 16.9084L15.5549 16.1682C15.0955 15.8618 14.4746 15.9861 14.1682 16.4455C13.8619 16.905 13.986 17.5259 14.4456 17.8322L15.5549 18.5724C17.0085 19.5415 18.8338 19.7308 20.4543 19.0363C21.0192 18.7942 21.5379 18.4547 21.9915 18.0461C21.3327 19.2213 20.4602 20.2653 19.4153 21.1203L17.76 22.4748C16.4678 23.532 14.5842 23.4374 13.4036 22.257L12.4524 21.3058C12.4833 21.2095 12.5002 21.1067 12.5002 21.0002V11.5002H14.0002C14.5525 11.5001 15.0002 11.0524 15.0002 10.5002C15.0001 9.94804 14.5524 9.50028 14.0002 9.50018H12.5002V1.72089L13.6331 1.15448Z" fill="black"/>
<path d="M6.62525 1.33807C7.49367 0.952221 8.49525 0.940682 9.37036 1.31561L10.5002 1.79999V4.17401C10.0093 4.79052 9.31509 5.21744 8.53638 5.37323L7.80396 5.51971C7.26256 5.6281 6.91158 6.15503 7.01978 6.69647C7.12817 7.23793 7.65504 7.58895 8.19654 7.48065L8.92896 7.33417C9.48559 7.22278 10.0145 7.02323 10.5002 6.75018V15.5002H8.00025C7.44803 15.5002 7.00035 15.948 7.00025 16.5002C7.00025 17.0525 7.44796 17.5002 8.00025 17.5002H10.5002V21.0002C10.5002 21.1067 10.5163 21.2096 10.5471 21.3058L9.5022 22.3517C8.63849 23.2155 7.30798 23.4072 6.2356 22.8224L6.06568 22.7297C3.65591 21.4151 1.90533 19.1515 1.2395 16.4885C0.913521 15.184 0.992023 13.8109 1.46411 12.5519L1.7649 11.7482C2.09119 12.0601 2.4288 12.3508 2.75611 12.6115C3.98984 13.5942 5.52156 14.0002 7.00025 14.0002C7.55245 14.0001 8.00025 13.5524 8.00025 13.0002C8.00014 12.448 7.55239 12.0003 7.00025 12.0002C5.87075 12.0002 4.80859 11.6894 4.0022 11.0471C2.94575 10.2055 2.17782 9.37177 1.94849 8.68378C1.88416 8.49105 1.76613 8.33169 1.61743 8.21503C1.58722 7.5191 1.70382 6.8184 1.96704 6.16034C2.82604 4.01339 4.51365 2.27664 6.62525 1.33807Z" fill="black"/>
</svg>
