<svg width="24" height="24" viewBox="0 0 24 24" fill="none" xmlns="http://www.w3.org/2000/svg">
<path fill-rule="evenodd" clip-rule="evenodd" d="M13.5214 0.931145C14.7651 0.309297 16.2588 0.482427 17.3271 1.37255L18.1005 2.01708C18.5569 2.39753 18.8587 2.92454 18.9609 3.50048H18.9999C19.7868 3.50048 20.5278 3.87098 20.9999 4.50048L21.7099 5.44677C21.8624 5.65008 21.9876 5.87292 22.082 6.10888C22.6959 7.64376 22.5565 9.37787 21.706 10.7954L21.6035 10.9663C21.5999 10.9727 21.6002 10.9808 21.6044 10.9868L21.9667 11.4936C23.2678 13.3152 23.4561 15.7073 22.455 17.7095C21.7594 19.1007 20.777 20.329 19.5732 21.314L17.9179 22.6684C16.5262 23.807 14.4979 23.7055 13.2265 22.4341L11.8535 21.061C11.6582 20.8659 11.3417 20.8659 11.1464 21.061L9.67865 22.5298C8.7365 23.4719 7.28589 23.6803 6.11615 23.0425L5.94525 22.9497C3.47392 21.6017 1.67976 19.2803 0.99701 16.5493C0.658631 15.1956 0.7395 13.7709 1.22943 12.4643L1.90033 10.6753C1.9411 10.5665 1.93956 10.4462 1.89642 10.3384L1.73431 9.9331C1.23817 8.69272 1.23816 7.30824 1.73431 6.06786C2.61777 3.85946 4.35282 2.07459 6.52338 1.10986C7.4546 0.695977 8.52775 0.682758 9.46771 1.08544L11.2704 1.8579C11.4056 1.91583 11.5598 1.91194 11.6913 1.84618L13.5214 0.931145ZM16.6874 2.14111C15.9245 1.50532 14.857 1.38064 13.9687 1.8247L12.1386 2.74072C12.0933 2.76335 12.0468 2.7825 11.9999 2.80029V10.0005H13.9999C14.2761 10.0005 14.4999 10.2243 14.4999 10.5005C14.4999 10.7766 14.2761 11.0005 13.9999 11.0005H11.9999V20.0005L11.999 20.0015C12.2038 20.0736 12.3966 20.1902 12.5605 20.354L13.9335 21.727C14.8417 22.6352 16.2901 22.7072 17.2841 21.894L18.9394 20.5395C19.7765 19.8546 20.4941 19.0393 21.0693 18.1284C20.8133 18.3035 20.5417 18.4555 20.2568 18.5776C18.7953 19.2038 17.1482 19.0342 15.832 18.1567L14.7226 17.4165C14.4929 17.2633 14.4308 16.9529 14.5839 16.7231C14.7371 16.4934 15.0475 16.4313 15.2773 16.5845L16.3867 17.3247C17.4286 18.0193 18.7196 18.1478 19.8632 17.6577C20.6696 17.3121 21.3512 16.6808 21.7402 15.9028L22.0527 15.2768C22.0624 15.2575 22.0741 15.2397 22.0859 15.2222C22.1328 14.1175 21.8186 13.0073 21.1533 12.0757L20.9355 11.771L20.8329 11.8745C20.1281 12.5793 19.2443 13.08 18.2773 13.3218L17.621 13.4858C17.3532 13.5526 17.0815 13.3894 17.0146 13.1216C16.9478 12.8538 17.1111 12.5821 17.3788 12.5151L18.0351 12.3511C18.8263 12.1533 19.5492 11.7442 20.1259 11.1675L20.6464 10.647C20.6513 10.6421 20.657 10.638 20.662 10.6333C20.6843 10.571 20.7112 10.5098 20.746 10.4517L20.8486 10.2808C21.5383 9.13119 21.6512 7.7247 21.1533 6.47997C21.0915 6.32574 21.0097 6.18028 20.9101 6.04736L20.2001 5.10009C19.9168 4.72249 19.472 4.50048 18.9999 4.50048H18.9931C18.918 6.25319 17.8254 7.8084 16.1855 8.46435C15.9291 8.56688 15.6386 8.4424 15.5361 8.18603C15.4335 7.92965 15.558 7.63918 15.8144 7.53661C17.1344 7.00861 17.9999 5.72979 17.9999 4.3081V3.937C17.9999 3.49192 17.8018 3.0696 17.4599 2.78466L16.6874 2.14111ZM9.07416 2.00439C8.39328 1.71266 7.60979 1.72073 6.92963 2.02294C4.99405 2.88321 3.44847 4.47633 2.66303 6.43993C2.26234 7.44179 2.26234 8.55917 2.66303 9.56103L2.82513 9.96728C2.85353 10.0383 2.87466 10.1113 2.89154 10.1851L3.93939 11.2329C4.75111 12.0445 5.85205 12.5005 6.99994 12.5005C7.27608 12.5005 7.49994 12.7243 7.49994 13.0005C7.49994 13.2766 7.27608 13.5005 6.99994 13.5005C5.58684 13.5005 4.23161 12.9391 3.23236 11.9399L2.69525 11.4028L2.16595 12.8149C1.74715 13.9317 1.67746 15.15 1.96674 16.3071C2.58171 18.767 4.19876 20.8576 6.42474 22.0718L6.59467 22.1645C7.37501 22.5902 8.3421 22.4503 8.97064 21.8218L10.4394 20.354C10.603 20.1904 10.7954 20.0737 10.9999 20.0015V17.0005H7.99994C7.72382 17.0005 7.49994 16.7766 7.49994 16.5005C7.49994 16.2244 7.72382 16.0005 7.99994 16.0005H10.9999V5.79931C10.381 6.31949 9.63703 6.68283 8.83002 6.84423L8.0976 6.99072C7.82696 7.04461 7.56383 6.86878 7.5097 6.59814C7.4558 6.32751 7.63165 6.06439 7.90228 6.01025L8.63373 5.86376C9.58809 5.67289 10.4321 5.12735 10.9999 4.3413V2.82275C10.9586 2.80917 10.9172 2.7951 10.8769 2.77782L9.07416 2.00439Z" fill="black"/>
</svg>
