<svg width="24" height="24" viewBox="0 0 24 24" fill="none" xmlns="http://www.w3.org/2000/svg">
<path d="M13.6326 1.15452C14.7873 0.577256 16.1749 0.738317 17.1668 1.56468L17.9402 2.20823C18.4049 2.59557 18.6892 3.15249 18.739 3.75023H18.741C18.7375 3.80927 18.734 3.86855 18.7283 3.92796C18.5571 5.71166 17.256 7.34234 15.6238 8.15843L15.3885 8.27659C15.2652 8.3383 15.2148 8.48819 15.2761 8.61156C15.3378 8.73488 15.4877 8.78522 15.6111 8.72386L15.8474 8.6057C17.6031 7.72788 19.0357 5.96249 19.2263 3.97581C19.2331 3.9055 19.2381 3.83483 19.242 3.7639C19.858 3.83058 20.4235 4.14926 20.7996 4.65062L21.5095 5.59691C21.6488 5.78254 21.7632 5.98597 21.8494 6.2014C22.4343 7.66369 22.3022 9.31574 21.492 10.6662L21.3894 10.8371C21.3345 10.9289 21.3391 11.045 21.4011 11.1321L21.7635 11.6389C22.3455 12.4538 22.6917 13.3883 22.8015 14.3479C22.7919 14.3604 22.7835 14.3742 22.7761 14.3889C22.5661 14.809 22.2604 15.4193 21.9627 16.0149C21.5463 16.8472 20.8205 17.5198 19.9617 17.8879C18.7386 18.412 17.3583 18.2728 16.2478 17.5325L15.1385 16.7922C15.0236 16.7157 14.8683 16.7467 14.7918 16.8616C14.7153 16.9764 14.7464 17.1316 14.8611 17.2082L15.9705 17.9485C17.2181 18.7802 18.776 18.939 20.158 18.3469C21.1221 17.9337 21.939 17.18 22.4099 16.2385C22.551 15.9564 22.6934 15.6706 22.8269 15.4035C22.7754 16.1545 22.5794 16.9004 22.2312 17.5969C21.5514 18.9565 20.5913 20.1577 19.4148 21.1203L17.7595 22.4748C16.4673 23.5319 14.5837 23.4375 13.4031 22.2571L12.0301 20.884C11.9483 20.8024 11.8519 20.7453 11.7498 20.7092V2.09202C11.7674 2.08485 11.7853 2.07813 11.8025 2.06956L13.6326 1.15452Z" fill="black"/>
<path d="M6.62478 1.33812C7.49321 0.952222 8.49476 0.940725 9.3699 1.31566L11.1717 2.08812C11.1971 2.09903 11.2235 2.10848 11.2498 2.11644V20.7092C11.1478 20.7453 11.0511 20.8025 10.9695 20.884L9.50173 22.3518C8.63797 23.2154 7.30747 23.4073 6.23513 22.8225L6.06521 22.7297C3.6554 21.4151 1.90483 19.1516 1.23904 16.4885C0.913 15.184 0.991563 13.811 1.46365 12.552L2.05154 10.9817C2.41423 11.3507 2.81677 11.7017 3.22341 12.0256C4.29679 12.8804 5.65224 13.2502 6.99978 13.2502C7.13785 13.2502 7.24978 13.1383 7.24978 13.0002C7.24975 12.8622 7.13783 12.7502 6.99978 12.7502C5.73944 12.7502 4.50152 12.4039 3.53494 11.634C3.03126 11.2328 2.55876 10.8061 2.16677 10.3723C2.15823 10.3292 2.1452 10.2866 2.12869 10.2453L1.96658 9.84007C1.49435 8.65937 1.49433 7.34108 1.96658 6.16038C2.82553 4.01345 4.51324 2.27672 6.62478 1.33812Z" fill="black"/>
</svg>
