<svg width="24" height="24" viewBox="0 0 24 24" fill="none" xmlns="http://www.w3.org/2000/svg">
<path d="M13.6325 1.15457C14.7873 0.577282 16.1748 0.738232 17.1667 1.56473L17.7507 2.05008C17.7541 2.13381 17.7657 2.21852 17.7868 2.30301C17.9671 3.02402 17.8894 3.75635 17.7165 4.54324C17.4981 5.53682 16.8077 6.44865 15.9411 6.88211C15.3239 7.19084 15.0732 7.94154 15.3815 8.55887C15.6902 9.17614 16.4409 9.42672 17.0583 9.11844C18.6428 8.32615 19.788 6.76338 20.1579 5.08035C20.2189 4.80304 20.2742 4.50139 20.3171 4.18094C20.498 4.31193 20.6623 4.46778 20.7995 4.65066L21.5095 5.59695C21.6487 5.78259 21.7631 5.98601 21.8493 6.20144C22.4341 7.66364 22.302 9.31586 21.4919 10.6663L21.3894 10.8372C21.3346 10.9289 21.339 11.0451 21.4011 11.1321L21.7634 11.6389C22.1077 12.121 22.3675 12.6456 22.5476 13.1917C22.484 13.2666 22.4275 13.3499 22.3815 13.4417C22.1719 13.8609 21.6733 14.6894 21.1784 15.5286C20.802 16.1667 20.2206 16.688 19.5671 16.968C18.6622 17.3557 17.6393 17.2575 16.8034 16.7005L15.6931 15.9602C15.1187 15.5774 14.3426 15.7325 13.9597 16.3069C13.5769 16.8813 13.7321 17.6574 14.3064 18.0403C14.6418 18.2639 15.0309 18.524 15.4157 18.7805C16.9379 19.7953 18.8524 19.9944 20.5524 19.2659C20.9275 19.1051 21.2824 18.9029 21.613 18.6682C21.0106 19.5907 20.271 20.4198 19.4147 21.1204L17.7595 22.4749C16.4672 23.5318 14.5835 23.4376 13.403 22.2571L12.7497 21.6038V1.59598L13.6325 1.15457Z" fill="black"/>
<path d="M6.62471 1.33816C7.49321 0.952242 8.49464 0.940675 9.36983 1.3157L10.2497 1.69266V21.6038L9.50166 22.3518C8.63784 23.2153 7.30736 23.4074 6.23506 22.8225L6.06514 22.7298C3.65528 21.4152 1.90482 19.1516 1.23897 16.4886C0.912999 15.1842 0.99163 13.8109 1.46358 12.552L1.6003 12.1858C1.7071 12.2861 1.81349 12.3851 1.92159 12.4798C2.89098 13.329 4.03997 13.831 5.1042 14.1858C5.75899 14.4041 6.46678 14.0504 6.68526 13.3958C6.90353 12.741 6.54995 12.0332 5.89522 11.8147C4.96858 11.5058 4.17813 11.1325 3.56905 10.5989C2.63011 9.77627 1.94323 8.87867 1.68526 8.10476C1.66568 8.04609 1.64101 7.99044 1.61397 7.9368C1.62164 7.33329 1.73844 6.73078 1.96651 6.16043C2.82547 4.01364 4.5133 2.27675 6.62471 1.33816Z" fill="black"/>
</svg>
