<svg width="24" height="24" viewBox="0 0 24 24" fill="none" xmlns="http://www.w3.org/2000/svg">
<path d="M13.6325 1.15468C14.7874 0.577226 16.1748 0.738214 17.1667 1.56483L17.9402 2.20839C18.4049 2.59574 18.6892 3.15261 18.739 3.75038H18.7419C18.7384 3.80912 18.7339 3.86803 18.7283 3.92714C18.5571 5.71083 17.2559 7.34151 15.6238 8.15761L15.3884 8.27577C15.2652 8.3374 15.215 8.48739 15.2761 8.61073C15.3378 8.73408 15.4876 8.78446 15.6111 8.72303L15.8474 8.60487C17.603 7.72706 19.0356 5.96166 19.2263 3.97499C19.233 3.90499 19.238 3.83466 19.2419 3.76405C19.8579 3.83079 20.4235 4.14933 20.7995 4.65077L21.5095 5.59706C21.6487 5.78271 21.7632 5.98611 21.8493 6.20155C22.4341 7.6638 22.3022 9.31597 21.4919 10.6664L21.3894 10.8373C21.3346 10.9291 21.339 11.0452 21.4011 11.1322L21.7634 11.6391C22.3455 12.454 22.6917 13.3884 22.8015 14.348C22.792 14.3604 22.7833 14.3737 22.7761 14.3881C22.5661 14.8081 22.2604 15.4185 21.9626 16.0141C21.5463 16.8464 20.8205 17.519 19.9616 17.8871C18.7386 18.4113 17.3583 18.272 16.2478 17.5316L15.1384 16.7914C15.0236 16.7151 14.8683 16.7461 14.7917 16.8607C14.7152 16.9755 14.7464 17.1307 14.8611 17.2074L15.9704 17.9476C17.2181 18.7794 18.7759 18.9383 20.1579 18.3461C21.1221 17.9329 21.939 17.1792 22.4099 16.2377C22.551 15.9556 22.6933 15.6698 22.8269 15.4027C22.7755 16.1539 22.5795 16.9003 22.2312 17.5971C21.5513 18.9565 20.5912 20.158 19.4148 21.1205L17.7595 22.475C16.4673 23.5318 14.5836 23.4375 13.4031 22.2572L12.03 20.8842C11.9483 20.8025 11.8518 20.7455 11.7497 20.7094V10.7494H13.9997C14.1378 10.7494 14.2497 10.6375 14.2497 10.4994C14.2495 10.3615 14.1377 10.2494 13.9997 10.2494H11.7497V2.09218C11.7674 2.085 11.7853 2.07828 11.8025 2.06971L13.6325 1.15468Z" fill="black"/>
<path d="M6.62474 1.33827C7.49333 0.952226 8.49456 0.940696 9.36985 1.31581L11.1716 2.08827C11.1972 2.09924 11.2233 2.10861 11.2497 2.11659V16.2494H7.99974C7.86189 16.2495 7.74994 16.3616 7.74974 16.4994C7.74974 16.6374 7.86177 16.7493 7.99974 16.7494H11.2497V20.7094C11.1477 20.7455 11.0511 20.8025 10.9695 20.8842L9.50169 22.3519C8.63789 23.2154 7.30735 23.4075 6.23509 22.8226L6.06517 22.7299C3.65531 21.4154 1.9049 19.1517 1.23899 16.4887C0.912957 15.1843 0.991668 13.8111 1.4636 12.5521L2.05247 10.9808C2.41503 11.3497 2.8169 11.701 3.22337 12.0248C4.29673 12.8796 5.65222 13.2494 6.99974 13.2494C7.1378 13.2494 7.24974 13.1375 7.24974 12.9994C7.24953 12.8615 7.13768 12.7494 6.99974 12.7494C5.73942 12.7494 4.50146 12.403 3.53489 11.6332C3.03102 11.2318 2.55781 10.8054 2.16575 10.3715C2.15723 10.3287 2.14501 10.2865 2.12864 10.2455L1.96653 9.84022C1.4943 8.65963 1.49446 7.34117 1.96653 6.16053C2.82546 4.01358 4.5132 2.2769 6.62474 1.33827Z" fill="black"/>
</svg>
