<svg width="24" height="24" viewBox="0 0 24 24" fill="none" xmlns="http://www.w3.org/2000/svg">
<path fill-rule="evenodd" clip-rule="evenodd" d="M13.5219 0.931097C14.7656 0.309347 16.2594 0.4824 17.3276 1.3725L18.101 2.01703C18.5572 2.39747 18.8592 2.92463 18.9614 3.50043H19.0004C19.7872 3.50054 20.5283 3.87101 21.0004 4.50043L21.7104 5.44672C21.8628 5.64995 21.9881 5.87299 22.0824 6.10883C22.6962 7.64363 22.5569 9.37793 21.7065 10.7954L21.6039 10.9663C21.6004 10.9727 21.6007 10.9807 21.6049 10.9868L21.9672 11.4936C23.2681 13.3151 23.4565 15.7074 22.4555 17.7094C21.7599 19.1006 20.7775 20.329 19.5737 21.3139L17.9184 22.6684C16.5268 23.8069 14.4985 23.7052 13.227 22.434L11.8539 21.061C11.6587 20.8658 11.3421 20.8659 11.1469 21.061L9.67913 22.5297C8.73708 23.4718 7.28631 23.68 6.11663 23.0424L5.94573 22.9497C3.47448 21.6017 1.68031 19.2802 0.997486 16.5493C0.659112 15.1955 0.74001 13.7709 1.22991 12.4643L1.90081 10.6752C1.94153 10.5666 1.9399 10.4461 1.8969 10.3383L1.73479 9.93305C1.23865 8.69269 1.23868 7.30818 1.73479 6.06782C2.61825 3.8594 4.35328 2.07454 6.52385 1.10981C7.45505 0.696008 8.52828 0.682721 9.46819 1.08539L11.2709 1.85786C11.406 1.91562 11.5604 1.91185 11.6918 1.84614L13.5219 0.931097ZM16.6879 2.14106C15.925 1.50529 14.8575 1.38069 13.9692 1.82465L12.1391 2.74067C12.0939 2.76327 12.0472 2.78247 12.0004 2.80024V10.0004H14.0004C14.2764 10.0006 14.5004 10.2244 14.5004 10.5004C14.5003 10.7763 14.2763 11.0002 14.0004 11.0004H12.0004V20.0004L11.9994 20.0014C12.2041 20.0736 12.3972 20.1902 12.561 20.3539L13.934 21.727C14.8422 22.6349 16.2907 22.7071 17.2846 21.894L18.9399 20.5395C19.777 19.8546 20.4946 19.0392 21.0698 18.1284C20.8138 18.3034 20.5421 18.4555 20.2573 18.5776C18.7959 19.2037 17.1487 19.034 15.8324 18.1567L14.7231 17.4164C14.4933 17.2633 14.4312 16.9529 14.5844 16.7231C14.7376 16.4933 15.048 16.4312 15.2778 16.5844L16.3871 17.3247C17.429 18.0191 18.7202 18.1477 19.8637 17.6577C20.67 17.312 21.3517 16.6807 21.7407 15.9028L22.0532 15.2768C22.0627 15.2577 22.0748 15.2404 22.0864 15.2231C22.1336 14.1182 21.8192 13.0075 21.1537 12.0756L20.7914 11.5678C20.5558 11.2378 20.538 10.7994 20.7465 10.4516L20.849 10.2807C21.5387 9.13124 21.6515 7.72457 21.1537 6.47993C21.0921 6.32581 21.0101 6.18015 20.9106 6.04731L20.2006 5.10004C19.9174 4.72252 19.4724 4.50054 19.0004 4.50043H18.9926C18.9174 6.25295 17.8256 7.80834 16.186 8.4643C15.9297 8.56681 15.6392 8.44213 15.5365 8.18598C15.434 7.92959 15.5585 7.63912 15.8149 7.53657C17.1347 7.00854 18.0002 5.72956 18.0004 4.30805V3.93696C18.0003 3.49201 17.8021 3.06955 17.4604 2.78461L16.6879 2.14106ZM9.07463 2.00434C8.39381 1.71262 7.61024 1.72076 6.9301 2.02289C4.99452 2.88316 3.44895 4.47627 2.6635 6.43989C2.26285 7.44173 2.26283 8.55915 2.6635 9.56098L2.82561 9.96723C2.85384 10.0379 2.87421 10.1107 2.89104 10.184L3.93987 11.2329C4.75156 12.0443 5.85266 12.5004 7.00042 12.5004C7.2764 12.5006 7.50042 12.7244 7.50042 13.0004C7.50027 13.2763 7.27631 13.5002 7.00042 13.5004C5.58744 13.5004 4.23207 12.9389 3.23284 11.9399L2.69573 11.4028L2.16643 12.8149C1.74766 13.9317 1.67794 15.15 1.96721 16.3071C2.58225 18.7668 4.19932 20.8576 6.42522 22.0717L6.59514 22.1645C7.37543 22.5899 8.34268 22.4501 8.97112 21.8217L10.4399 20.3539C10.6036 20.1902 10.7957 20.0726 11.0004 20.0004V17.0004H8.00042C7.72436 17.0004 7.50056 16.7765 7.50042 16.5004C7.50042 16.2243 7.72427 16.0004 8.00042 16.0004H11.0004V2.82172C10.9592 2.80818 10.9176 2.795 10.8774 2.77778L9.07463 2.00434Z" fill="black"/>
</svg>
