<svg width="24" height="24" viewBox="0 0 24 24" fill="none" xmlns="http://www.w3.org/2000/svg">
<path fill-rule="evenodd" clip-rule="evenodd" d="M13.6331 1.15462C14.788 0.577269 16.1754 0.7382 17.1673 1.56478L17.9407 2.20833C18.4053 2.59568 18.6897 3.15266 18.7395 3.75033H19.0003C19.7083 3.75045 20.3752 4.08425 20.8001 4.65072L21.51 5.59701C21.6492 5.78262 21.7637 5.98611 21.8499 6.2015C22.4346 7.66375 22.3027 9.31592 21.4925 10.6663L21.3899 10.8372C21.3349 10.9291 21.3394 11.045 21.4016 11.1322L21.764 11.639C23.0109 13.385 23.1911 15.6779 22.2317 17.597C21.5519 18.9567 20.5918 20.1578 19.4153 21.1204L17.76 22.4749C16.4679 23.5321 14.5843 23.4375 13.4036 22.2572L12.0306 20.8841C11.7377 20.5913 11.2629 20.5913 10.97 20.8841L9.50223 22.3519C8.63854 23.2156 7.30801 23.4073 6.23563 22.8226L6.06571 22.7298C3.65582 21.4153 1.90543 19.1517 1.23954 16.4886C0.913465 15.1841 0.992074 13.8111 1.46415 12.5521L2.13505 10.763C2.19764 10.5961 2.19529 10.411 2.12919 10.2454L1.96708 9.84017C1.49478 8.65944 1.49483 7.34123 1.96708 6.16048C2.82606 4.01339 4.51355 2.2768 6.62528 1.33822C7.49385 0.952248 8.49515 0.940651 9.3704 1.31576L11.1722 2.08822C11.3747 2.17486 11.6059 2.16807 11.803 2.06966L13.6331 1.15462ZM16.8479 1.94857C16.0086 1.24916 14.8339 1.1124 13.8567 1.60091L12.0266 2.51693C11.9381 2.56116 11.8449 2.59266 11.7503 2.61458V10.2503H14.0003C14.1382 10.2505 14.2503 10.3624 14.2503 10.5003C14.2501 10.6381 14.1381 10.7501 14.0003 10.7503H11.7503V20.0003C11.7502 20.07 11.7211 20.1328 11.6751 20.1781C11.9342 20.2146 12.1847 20.3313 12.3841 20.5306L13.7571 21.9036C14.7562 22.9023 16.3503 22.9818 17.4436 22.0872L19.0989 20.7337C20.2209 19.8157 21.1361 18.67 21.7845 17.3734C21.8573 17.2277 21.9193 17.078 21.9778 16.9281C21.5059 17.5463 20.8731 18.0407 20.1585 18.347C18.7766 18.9391 17.2186 18.7801 15.971 17.9486L14.8616 17.2083C14.7467 17.1318 14.7157 16.9765 14.7923 16.8617C14.8689 16.7468 15.0241 16.7157 15.139 16.7923L16.2483 17.5326C17.3588 18.2727 18.7392 18.4121 19.9622 17.888C20.821 17.5199 21.5479 16.8474 21.9641 16.015L22.2766 15.389C22.291 15.3602 22.3098 15.3351 22.3323 15.3148C22.4013 14.1284 22.0716 12.931 21.3567 11.93L20.9944 11.4222C20.8167 11.1731 20.8038 10.8419 20.9612 10.5794L21.0638 10.4085C21.7934 9.19217 21.9127 7.70406 21.386 6.38705C21.3162 6.21246 21.2234 6.04728 21.1106 5.89681L20.4007 4.95052C20.0703 4.50996 19.551 4.25045 19.0003 4.25033H18.7415C18.6517 6.08464 17.5831 7.73861 15.929 8.56576L15.6116 8.72396C15.4883 8.78533 15.3385 8.7347 15.2766 8.61165C15.2152 8.48823 15.2656 8.33838 15.389 8.27669L15.7054 8.11849C17.1674 7.38737 18.1245 5.9402 18.2386 4.32552L18.2503 4.00033V3.93685C18.2502 3.41778 18.019 2.92554 17.6204 2.5931L16.8479 1.94857ZM9.17313 1.77474C8.42741 1.45515 7.57143 1.46507 6.8284 1.79525C4.83409 2.68165 3.24087 4.32218 2.43094 6.34701C2.00657 7.40833 2.00653 8.59233 2.43094 9.65365L2.59305 10.0599C2.62556 10.1412 2.64714 10.2256 2.66141 10.3109C2.66634 10.3151 2.67237 10.3189 2.67704 10.3236L3.76297 11.4095C4.62155 12.2678 5.78625 12.7503 7.00028 12.7503C7.13818 12.7505 7.25028 12.8624 7.25028 13.0003C7.25009 13.1381 7.13806 13.2501 7.00028 13.2503C5.65364 13.2503 4.3618 12.7151 3.40946 11.763L2.59794 10.9515L1.93192 12.7279C1.49553 13.892 1.42337 15.1614 1.72489 16.3675C2.35688 18.895 4.01783 21.0428 6.30497 22.2904L6.47489 22.3841C7.35254 22.8626 8.44186 22.7052 9.14872 21.9984L10.6165 20.5306C10.8158 20.3313 11.0654 20.2136 11.3245 20.1771C11.2788 20.1319 11.2504 20.0697 11.2503 20.0003V16.7503H8.00028C7.86233 16.7503 7.75047 16.6382 7.75028 16.5003C7.75028 16.3623 7.86221 16.2503 8.00028 16.2503H11.2503V5.21712C10.5968 5.92077 9.73524 6.40815 8.78153 6.59896L8.04911 6.74544C7.91392 6.77238 7.78241 6.68425 7.75516 6.54915C7.7282 6.41383 7.81612 6.28227 7.95145 6.25521L8.68387 6.10873C9.72686 5.89995 10.6459 5.29326 11.2503 4.42025V2.62728C11.1569 2.61073 11.0646 2.58518 10.9759 2.5472L9.17313 1.77474Z" fill="black"/>
</svg>
