<svg width="24" height="24" viewBox="0 0 24 24" fill="none" xmlns="http://www.w3.org/2000/svg">
<path fill-rule="evenodd" clip-rule="evenodd" d="M12 3C7.02946 3 3.00003 7.02944 3.00003 12C3.00003 16.9706 7.02946 21 12 21C16.9706 21 21 16.9706 21 12C21 7.02944 16.9706 3 12 3ZM5.00003 12C5.00003 8.13401 8.13403 5 12 5C15.866 5 19 8.13401 19 12C19 15.866 15.866 19 12 19C8.13403 19 5.00003 15.866 5.00003 12Z" fill="black"/>
<path d="M4.09261 5.47758C4.35637 5.15821 4.31129 4.68548 3.99191 4.42171C3.67253 4.15795 3.1998 4.20304 2.93604 4.52242C2.21054 5.4009 1.61018 6.38693 1.16242 7.45289L2.57051 7.97441C2.95821 7.06749 3.473 6.22784 4.09261 5.47758Z" fill="black"/>
<path d="M2.2231 8.91212L0.814985 8.39059C0.448182 9.528 0.25 10.7411 0.25 12C0.25 13.259 0.448182 14.472 0.814985 15.6094L2.2231 15.0879C1.91572 14.1136 1.75 13.0763 1.75 12C1.75 10.9237 1.91572 9.88641 2.2231 8.91212Z" fill="black"/>
<path d="M2.93604 19.4776C2.21054 18.5991 1.61018 17.6131 1.16242 16.5471L2.57051 16.0256C2.95821 16.9325 3.473 17.7722 4.09261 18.5224C4.35637 18.8418 4.31129 19.3145 3.99191 19.5783C3.67253 19.842 3.1998 19.797 2.93604 19.4776Z" fill="black"/>
<path d="M19.9074 18.5224C20.527 17.7722 21.0418 16.9325 21.4295 16.0256L22.8376 16.5471C22.3898 17.6131 21.7895 18.5991 21.064 19.4776C20.8002 19.797 20.3275 19.842 20.0081 19.5783C19.6887 19.3145 19.6436 18.8418 19.9074 18.5224Z" fill="black"/>
<path d="M23.75 12C23.75 13.259 23.5518 14.472 23.185 15.6094L21.7769 15.0879C22.0843 14.1136 22.25 13.0763 22.25 12C22.25 10.9237 22.0843 9.88641 21.7769 8.91212L23.185 8.39059C23.5518 9.528 23.75 10.7411 23.75 12Z" fill="black"/>
<path d="M22.8376 7.45289L21.4295 7.97441C21.0418 7.06749 20.527 6.22784 19.9074 5.47758C19.6436 5.15821 19.6887 4.68548 20.0081 4.42171C20.3275 4.15795 20.8002 4.20304 21.064 4.52242C21.7895 5.4009 22.3898 6.38693 22.8376 7.45289Z" fill="black"/>
</svg>
