<svg width="25" height="24" viewBox="0 0 25 24" fill="none" xmlns="http://www.w3.org/2000/svg">
<path d="M12.125 7.0625C12.6773 7.0625 13.125 7.51022 13.125 8.0625V13.0625C13.125 13.6148 12.6773 14.0625 12.125 14.0625C11.5727 14.0625 11.125 13.6148 11.125 13.0625V8.0625C11.125 7.51022 11.5727 7.0625 12.125 7.0625Z" fill="black"/>
<path d="M13.25 15.9375C13.25 16.5588 12.7463 17.0625 12.125 17.0625C11.5037 17.0625 11 16.5588 11 15.9375C11 15.3162 11.5037 14.8125 12.125 14.8125C12.7463 14.8125 13.25 15.3162 13.25 15.9375Z" fill="black"/>
<path fill-rule="evenodd" clip-rule="evenodd" d="M3.375 12C3.375 7.16751 7.29251 3.25 12.125 3.25C16.9575 3.25 20.875 7.16751 20.875 12C20.875 16.8325 16.9575 20.75 12.125 20.75C7.29251 20.75 3.375 16.8325 3.375 12ZM12.125 5.75C8.67322 5.75 5.875 8.54822 5.875 12C5.875 15.4518 8.67322 18.25 12.125 18.25C15.5768 18.25 18.375 15.4518 18.375 12C18.375 8.54822 15.5768 5.75 12.125 5.75Z" fill="black"/>
<path d="M4.3557 4.13257C4.83477 4.52821 4.9024 5.23731 4.50675 5.71637C3.09641 7.4241 2.25 9.61171 2.25 12C2.25 14.3883 3.09641 16.5759 4.50675 18.2836C4.9024 18.7627 4.83477 19.4718 4.3557 19.8674C3.87663 20.2631 3.16754 20.1954 2.7719 19.7164C1.04086 17.6203 0 14.9302 0 12C0 9.06977 1.04086 6.37966 2.7719 4.28363C3.16754 3.80456 3.87663 3.73693 4.3557 4.13257Z" fill="black"/>
<path d="M19.8943 4.13257C20.3734 3.73693 21.0825 3.80456 21.4781 4.28363C23.2091 6.37966 24.25 9.06977 24.25 12C24.25 14.9302 23.2091 17.6203 21.4781 19.7164C21.0825 20.1954 20.3734 20.2631 19.8943 19.8674C19.4152 19.4718 19.3476 18.7627 19.7432 18.2836C21.1536 16.5759 22 14.3883 22 12C22 9.61171 21.1536 7.4241 19.7432 5.71637C19.3476 5.23731 19.4152 4.52821 19.8943 4.13257Z" fill="black"/>
</svg>
