<svg width="24" height="24" viewBox="0 0 24 24" fill="none" xmlns="http://www.w3.org/2000/svg">
<path d="M3.00001 12C3.00001 7.02944 7.02945 3 12 3C16.9706 3 21 7.02944 21 12C21 16.9706 16.9706 21 12 21C7.02945 21 3.00001 16.9706 3.00001 12Z" fill="black"/>
<path d="M3.83271 4.61448C4.04563 4.79032 4.07569 5.10547 3.89985 5.31839C3.29903 6.04589 2.79439 6.85554 2.40531 7.72803L1.46578 7.38006C1.89544 6.40173 2.45735 5.49465 3.1288 4.68161C3.30464 4.46869 3.61979 4.43863 3.83271 4.61448Z" fill="black"/>
<path d="M1.10408 8.31248L2.04225 8.65995C1.69053 9.70905 1.5 10.8321 1.5 12C1.5 13.1679 1.69053 14.2909 2.04225 15.34L1.10408 15.6875C0.712402 14.5299 0.5 13.2896 0.5 12C0.5 10.7104 0.712402 9.47015 1.10408 8.31248Z" fill="black"/>
<path d="M1.46578 16.6199C1.89544 17.5983 2.45735 18.5054 3.1288 19.3184C3.30464 19.5313 3.61979 19.5614 3.83271 19.3855C4.04563 19.2097 4.07569 18.8945 3.89985 18.6816C3.29903 17.9541 2.79439 17.1445 2.40531 16.272L1.46578 16.6199Z" fill="black"/>
<path d="M21.731 15.9521C21.3265 16.947 20.7738 17.866 20.1002 18.6816C19.9243 18.8945 19.9544 19.2097 20.1673 19.3855C20.3802 19.5614 20.6954 19.5313 20.8712 19.3184C21.6154 18.4173 22.225 17.4007 22.6692 16.2995L21.731 15.9521Z" fill="black"/>
<path d="M23.0023 15.3566C23.3259 14.2946 23.5 13.1675 23.5 12C23.5 10.8325 23.3259 9.70541 23.0023 8.64345L22.0628 8.99143C22.3472 9.9444 22.5 10.9542 22.5 12C22.5 13.0458 22.3472 14.0556 22.0628 15.0086L23.0023 15.3566Z" fill="black"/>
<path d="M21.731 8.04792L22.6692 7.70045C22.225 6.59934 21.6154 5.58271 20.8712 4.68161C20.6954 4.46869 20.3802 4.43863 20.1673 4.61448C19.9544 4.79032 19.9243 5.10547 20.1002 5.31839C20.7738 6.13404 21.3265 7.05296 21.731 8.04792Z" fill="black"/>
</svg>
