<svg width="24" height="24" viewBox="0 0 24 24" fill="none" xmlns="http://www.w3.org/2000/svg">
<path d="M3.50003 12C3.50003 7.30558 7.30561 3.5 12 3.5C16.6944 3.5 20.5 7.30558 20.5 12C20.5 16.6944 16.6944 20.5 12 20.5C7.30561 20.5 3.50003 16.6944 3.50003 12Z" fill="black"/>
<path d="M4.1511 4.22895C4.57694 4.58064 4.63705 5.21094 4.28537 5.63678C3.74618 6.28966 3.28838 7.01184 2.92736 7.78809L1.04681 7.09159C1.49001 6.10401 2.06275 5.18725 2.74328 4.36322C3.09496 3.93738 3.72526 3.87727 4.1511 4.22895Z" fill="black"/>
<path d="M0.595418 8.25738L2.47254 8.95262C2.16562 9.91317 2 10.937 2 12C2 13.063 2.16562 14.0868 2.47254 15.0474L0.595417 15.7426C0.209044 14.5647 0 13.3065 0 12C0 10.6935 0.209045 9.43532 0.595418 8.25738Z" fill="black"/>
<path d="M1.04681 16.9084C1.49001 17.896 2.06275 18.8128 2.74328 19.6368C3.09496 20.0626 3.72526 20.1227 4.1511 19.771C4.57694 19.4194 4.63705 18.7891 4.28537 18.3632C3.74618 17.7103 3.28838 16.9882 2.92736 16.2119L1.04681 16.9084Z" fill="black"/>
<path d="M21.2139 15.8938C20.834 16.7914 20.3268 17.622 19.7146 18.3632C19.3629 18.7891 19.4231 19.4194 19.8489 19.771C20.2747 20.1227 20.905 20.0626 21.2567 19.6368C22.0101 18.7246 22.6313 17.6988 23.091 16.5891L21.2139 15.8938Z" fill="black"/>
<path d="M23.5081 15.4106C23.8282 14.3293 24 13.1845 24 12C24 10.8155 23.8282 9.67069 23.5081 8.5894L21.6275 9.28592C21.8702 10.1488 22 11.059 22 12C22 12.941 21.8702 13.8512 21.6275 14.7141L23.5081 15.4106Z" fill="black"/>
<path d="M21.2139 8.10616L23.091 7.41093C22.6313 6.30122 22.0101 5.2754 21.2567 4.36322C20.905 3.93738 20.2747 3.87727 19.8489 4.22895C19.4231 4.58064 19.3629 5.21094 19.7146 5.63678C20.3268 6.37801 20.834 7.20857 21.2139 8.10616Z" fill="black"/>
</svg>
