<svg width="24" height="24" viewBox="0 0 24 24" fill="none" xmlns="http://www.w3.org/2000/svg">
<path d="M3.25001 12C3.25001 7.16751 7.16752 3.25 12 3.25C16.8325 3.25 20.75 7.16751 20.75 12C20.75 16.8325 16.8325 20.75 12 20.75C7.16752 20.75 3.25001 16.8325 3.25001 12Z" fill="black"/>
<path d="M3.99191 4.42171C4.31129 4.68548 4.35637 5.15821 4.09261 5.47758C3.50945 6.1837 3.01914 6.969 2.64025 7.81505L1.23095 7.29308C1.67072 6.28828 2.24693 5.35683 2.93604 4.52242C3.1998 4.20304 3.67253 4.15795 3.99191 4.42171Z" fill="black"/>
<path d="M0.869548 8.22562L2.27681 8.74682C1.93507 9.76878 1.75 10.8626 1.75 12C1.75 13.1374 1.93507 14.2312 2.27681 15.2532L0.869548 15.7744C0.467875 14.5896 0.25 13.32 0.25 12C0.25 10.68 0.467875 9.41043 0.869548 8.22562Z" fill="black"/>
<path d="M1.23095 16.7069C1.67072 17.7117 2.24693 18.6432 2.93604 19.4776C3.1998 19.797 3.67253 19.842 3.99191 19.5783C4.31129 19.3145 4.35637 18.8418 4.09261 18.5224C3.50945 17.8163 3.01914 17.031 2.64025 16.185L1.23095 16.7069Z" fill="black"/>
<path d="M21.4964 15.8652C21.1019 16.8336 20.5634 17.7281 19.9074 18.5224C19.6436 18.8418 19.6887 19.3145 20.0081 19.5783C20.3275 19.842 20.8002 19.797 21.064 19.4776C21.8258 18.5551 22.4496 17.5141 22.9037 16.3864L21.4964 15.8652Z" fill="black"/>
<path d="M23.2371 15.4435C23.5706 14.3543 23.75 13.1979 23.75 12C23.75 10.8021 23.5706 9.64567 23.2371 8.55647L21.8278 9.07845C22.1025 10.0042 22.25 10.9847 22.25 12C22.25 13.0153 22.1025 13.9958 21.8278 14.9216L23.2371 15.4435Z" fill="black"/>
<path d="M21.4964 8.13479L22.9037 7.61359C22.4496 6.48593 21.8258 5.44488 21.064 4.52242C20.8002 4.20304 20.3275 4.15795 20.0081 4.42171C19.6887 4.68548 19.6436 5.15821 19.9074 5.47758C20.5634 6.27188 21.1019 7.16636 21.4964 8.13479Z" fill="black"/>
</svg>
