<svg width="24" height="24" viewBox="0 0 24 24" fill="none" xmlns="http://www.w3.org/2000/svg">
<path fill-rule="evenodd" clip-rule="evenodd" d="M12 3.25C7.16751 3.25 3.25 7.16751 3.25 12C3.25 16.8325 7.16751 20.75 12 20.75C16.8325 20.75 20.75 16.8325 20.75 12C20.75 7.16751 16.8325 3.25 12 3.25ZM12 7.49375C12.1657 7.49375 12.3 7.62806 12.3 7.79375V13.2938C12.3 13.4594 12.1657 13.5938 12 13.5938C11.8343 13.5938 11.7 13.4594 11.7 13.2938V7.79375C11.7 7.62806 11.8343 7.49375 12 7.49375ZM12.5 15.6313C12.5 15.9074 12.2761 16.1313 12 16.1313C11.7239 16.1313 11.5 15.9074 11.5 15.6313C11.5 15.3551 11.7239 15.1313 12 15.1313C12.2761 15.1313 12.5 15.3551 12.5 15.6313Z" fill="black"/>
<path d="M3.67352 4.80724C3.77998 4.89516 3.79501 5.05273 3.70709 5.15919C2.17203 7.01793 1.25 9.40096 1.25 12C1.25 14.599 2.17203 16.9821 3.70709 18.8408C3.79501 18.9473 3.77998 19.1048 3.67352 19.1928C3.56706 19.2807 3.40948 19.2657 3.32156 19.1592C1.71524 17.2142 0.75 14.7195 0.75 12C0.75 9.28053 1.71524 6.78583 3.32156 4.84081C3.40948 4.73435 3.56706 4.71932 3.67352 4.80724Z" fill="black"/>
<path d="M20.3265 4.80724C20.4329 4.71932 20.5905 4.73435 20.6784 4.84081C22.2848 6.78583 23.25 9.28053 23.25 12C23.25 14.7195 22.2848 17.2142 20.6784 19.1592C20.5905 19.2657 20.4329 19.2807 20.3265 19.1928C20.22 19.1048 20.205 18.9473 20.2929 18.8408C21.828 16.9821 22.75 14.599 22.75 12C22.75 9.40096 21.828 7.01793 20.2929 5.15919C20.205 5.05273 20.22 4.89516 20.3265 4.80724Z" fill="black"/>
</svg>
