<svg width="24" height="24" viewBox="0 0 24 24" fill="none" xmlns="http://www.w3.org/2000/svg">
<path fill-rule="evenodd" clip-rule="evenodd" d="M0.606723 8.30891C0.450352 8.10989 0.467359 7.82542 0.646329 7.64645L5.64633 2.64645C5.7401 2.55268 5.86727 2.5 5.99988 2.5L17.9999 2.5C18.1325 2.5 18.2597 2.55268 18.3534 2.64645L23.3476 7.64058C23.4415 7.73148 23.5 7.85891 23.5 7.99999C23.5 8.11985 23.4578 8.22987 23.3875 8.316L12.3974 22.3034C12.3045 22.425 12.1587 22.5 11.9999 22.5C11.9177 22.5 11.8389 22.4799 11.7691 22.4436C11.7197 22.4179 11.6745 22.3839 11.6357 22.3426C11.6248 22.331 11.6144 22.3189 11.6046 22.3062L0.606723 8.30891ZM21.7928 7.49999L17.7928 3.5L13.207 3.5L17.207 7.49999H21.7928ZM17.3523 8.49999H21.9712L13.5032 19.2774L17.3523 8.49999ZM15.7928 7.49999L11.9999 3.70711L8.20702 7.49999L15.7928 7.49999ZM7.7094 8.49999L16.2904 8.49999L11.9999 20.5134L7.7094 8.49999ZM6.79281 7.49999L10.7928 3.5L6.20699 3.5L2.207 7.49999H6.79281ZM2.02861 8.49999H6.64754L10.4967 19.2775L2.02861 8.49999Z" fill="black"/>
</svg>
