<svg width="24" height="24" viewBox="0 0 24 24" fill="none" xmlns="http://www.w3.org/2000/svg">
<path d="M0.259506 7.88015C0.227109 8.0808 0.27626 8.29297 0.410145 8.46337L11.4066 22.4588C11.3591 22.3975 11.3207 22.3281 11.2936 22.2523L6.47137 8.74999L0.999982 8.75C0.585768 8.75 0.249982 8.41421 0.249982 8C0.249982 7.9592 0.253239 7.91917 0.259506 7.88015Z" fill="black"/>
<path d="M0.303156 7.72209C0.413578 7.44546 0.683953 7.25 0.999982 7.25L6.68926 7.24999L11.4696 2.46967C11.6102 2.32902 11.801 2.25 11.9999 2.25C12.1988 2.25 12.3896 2.32902 12.5302 2.46967L17.3106 7.25H23C23.2033 7.25 23.3877 7.33088 23.5228 7.46223L18.5302 2.46967C18.3896 2.32902 18.1988 2.25 17.9999 2.25L5.99988 2.25C5.80097 2.25 5.61021 2.32902 5.46955 2.46967L0.469554 7.46967C0.395462 7.54376 0.339876 7.62991 0.303156 7.72209Z" fill="black"/>
<path d="M23.5822 8.47275C23.4447 8.64192 23.235 8.75 23 8.75H17.5285L12.7062 22.2523C12.6797 22.3266 12.6422 22.3948 12.596 22.4553L23.5822 8.47275Z" fill="black"/>
<path d="M15.1892 7.25L11.9999 4.06067L8.81058 7.24999L15.1892 7.25Z" fill="black"/>
<path d="M8.06416 8.74999L15.9357 8.75L11.9999 19.7701L8.06416 8.74999Z" fill="black"/>
</svg>
