<svg width="24" height="24" viewBox="0 0 24 24" fill="none" xmlns="http://www.w3.org/2000/svg">
<path d="M0.0796143 8.3917C0.113412 8.47104 0.15802 8.54712 0.213568 8.61782L11.2086 22.6115C11.1454 22.5297 11.0942 22.4373 11.0582 22.3363L6.29519 8.99999L0.999986 8.99999C0.586719 8.99999 0.232003 8.7493 0.0796143 8.3917Z" fill="black"/>
<path d="M0.0321747 8.25263C0.0111672 8.17193 -1.40693e-05 8.08727 -1.40693e-05 7.99999C-1.40693e-05 7.95696 0.00270329 7.91457 0.00797575 7.87298C0.0703803 7.38066 0.490728 6.99999 0.999986 6.99999L6.58571 6.99999L11.2928 2.29289C11.4803 2.10536 11.7347 2 11.9999 2C12.2651 2 12.5195 2.10536 12.707 2.29289L17.4141 6.99999H23C23.2716 6.99999 23.518 7.1083 23.6982 7.28409L18.707 2.29289C18.5195 2.10536 18.2651 2 17.9999 2L11.9999 2L5.99989 2C5.73467 2 5.48032 2.10536 5.29278 2.29289L0.292779 7.29289C0.130825 7.45485 0.0351852 7.66 0.00797575 7.87298C-0.00815507 7.99924 -0.000235643 8.12825 0.0321747 8.25263Z" fill="black"/>
<path d="M23.7772 8.62926C23.5939 8.85543 23.3138 8.99999 23 8.99999H17.7046L12.9417 22.3363C12.9062 22.4357 12.8561 22.5268 12.7942 22.6076L23.7772 8.62926Z" fill="black"/>
<path d="M14.5857 6.99999L11.9999 4.41421L9.41414 6.99999L14.5857 6.99999Z" fill="black"/>
<path d="M8.41892 8.99999L15.5809 8.99999L11.9999 19.0268L8.41892 8.99999Z" fill="black"/>
</svg>
