<svg width="26" height="24" viewBox="0 0 26 24" fill="none" xmlns="http://www.w3.org/2000/svg">
<path fill-rule="evenodd" clip-rule="evenodd" d="M0.872381 7.45986C0.932057 7.33524 1.01338 7.21874 1.116 7.11612L6.116 2.11612C6.35043 1.8817 6.66837 1.75 6.99989 1.75L18.9999 1.75C19.3314 1.75 19.6494 1.8817 19.8838 2.11612L24.8744 7.10675C25.1062 7.33365 25.25 7.65003 25.25 7.99999C25.25 8.29744 25.1461 8.57062 24.9726 8.78522L13.9922 22.7602C13.76 23.0633 13.396 23.25 12.9999 23.25C12.7763 23.25 12.563 23.1905 12.3778 23.0842C12.2924 23.0352 12.2127 22.9761 12.1404 22.9077C12.0933 22.8631 12.0496 22.8148 12.0097 22.763L1.01699 8.77228C1.00537 8.75749 0.99414 8.74252 0.983288 8.72737C0.878893 8.58171 0.805023 8.41269 0.771033 8.22966C0.749072 8.11174 0.744259 7.99152 0.756362 7.87289C0.771171 7.72625 0.811327 7.58709 0.872381 7.45986ZM4.57171 9.24999L9.24176 15.1937L7.11901 9.24999H4.57171ZM7.48215 6.74999H5.01766L7.51766 4.25H9.98215L7.48215 6.74999ZM9.77366 9.24999L12.9999 18.2835L16.2262 9.24999L9.77366 9.24999ZM14.9821 6.74999L11.0177 6.74999L12.9999 4.76777L14.9821 6.74999ZM18.8808 9.24999L16.7581 15.1936L21.4281 9.24999H18.8808ZM20.9821 6.74999H18.5177L16.0177 4.25L18.4821 4.25L20.9821 6.74999Z" fill="black"/>
</svg>
