<svg width="24" height="24" viewBox="0 0 24 24" fill="none" xmlns="http://www.w3.org/2000/svg">
<path d="M0.452271 9.1239L10.7588 22.2413L6.11906 9.24999L1.00003 9.24999C0.80356 9.24999 0.617679 9.20466 0.452271 9.1239Z" fill="black"/>
<path d="M8.77371 9.24999L12 18.2835L15.2262 9.24999L8.77371 9.24999Z" fill="black"/>
<path d="M13.9822 6.74999L10.0177 6.74999L12 4.76777L13.9822 6.74999Z" fill="black"/>
<path d="M17.8809 9.24999L13.2412 22.2412L23.5475 9.12406C23.3821 9.20472 23.1964 9.24999 23 9.24999H17.8809Z" fill="black"/>
<path d="M23.4095 6.81861C23.2812 6.77414 23.1434 6.74999 23 6.74999H17.5177L12.8838 2.11611C12.7824 2.01466 12.6678 1.93428 12.5456 1.875L17.9999 1.875C18.2983 1.875 18.5844 1.99353 18.7954 2.2045L23.4095 6.81861Z" fill="black"/>
<path d="M6.4822 6.74999L1.00003 6.74999C0.856489 6.74999 0.718601 6.77418 0.590219 6.81872L5.20443 2.2045C5.41541 1.99353 5.70156 1.875 5.99993 1.875L11.4543 1.875C11.3321 1.93428 11.2175 2.01466 11.1161 2.11611L6.4822 6.74999Z" fill="black"/>
</svg>
