<svg width="24" height="24" viewBox="0 0 24 24" fill="none" xmlns="http://www.w3.org/2000/svg">
<path fill-rule="evenodd" clip-rule="evenodd" d="M0.306455 7.71395C0.343172 7.62484 0.397648 7.54158 0.469554 7.46967L5.46955 2.46967C5.61021 2.32902 5.80097 2.25 5.99988 2.25L17.9999 2.25C18.1988 2.25 18.3896 2.32902 18.5302 2.46967L23.523 7.46245C23.663 7.59871 23.75 7.78919 23.75 7.99999C23.75 8.1791 23.6872 8.34354 23.5824 8.47251L12.5957 22.4556C12.4563 22.6378 12.2378 22.75 11.9999 22.75C11.8719 22.75 11.7495 22.7175 11.642 22.6591C11.5786 22.6247 11.5201 22.5811 11.4685 22.5293C11.4464 22.5071 11.4256 22.4835 11.4063 22.4585L0.410145 8.46337C0.277785 8.29491 0.228239 8.08563 0.258431 7.887C0.267549 7.82666 0.283857 7.76867 0.306455 7.71395ZM2.54298 8.74999L9.74502 17.9162L6.47136 8.74999H2.54298ZM6.68926 7.24999H2.81055L6.31055 3.75L10.1892 3.75L6.68926 7.24999ZM8.06416 8.74999L11.9999 19.7701L15.9357 8.74999L8.06416 8.74999ZM15.1892 7.24999L8.81058 7.24999L11.9999 4.06066L15.1892 7.24999ZM17.5285 8.74999L14.2548 17.9161L21.4568 8.74999H17.5285ZM21.1892 7.24999H17.3106L13.8106 3.75L17.6892 3.75L21.1892 7.24999Z" fill="black"/>
</svg>
