<svg width="24" height="24" viewBox="0 0 24 24" fill="none" xmlns="http://www.w3.org/2000/svg">
<path d="M0.823103 7.82298C0.733619 7.91246 0.725115 8.0547 0.8033 8.15421L11.7295 22.0603L6.8061 8.27475L0.999972 8.27475V7.72475L6.886 7.72475L11.8054 2.8053C11.8292 2.78152 11.8563 2.763 11.8852 2.74976L5.99988 2.74976C5.93358 2.74976 5.86999 2.77609 5.8231 2.82298L0.823103 7.82298Z" fill="black"/>
<path d="M7.39013 8.27475L11.9999 21.1821L16.6097 8.27475L7.39013 8.27475Z" fill="black"/>
<path d="M16.336 7.72475L7.66382 7.72475L11.9999 3.38867L16.336 7.72475Z" fill="black"/>
<path d="M17.1937 8.27475L12.2703 22.0602L23.1255 8.24447C23.0879 8.26383 23.0452 8.27475 23 8.27475H17.1937Z" fill="black"/>
<path d="M23.0955 7.74178C23.0657 7.73077 23.0335 7.72475 23 7.72475H17.1138L12.1944 2.8053C12.1706 2.78152 12.1435 2.763 12.1146 2.74976L17.9999 2.74976C18.0662 2.74976 18.1298 2.77609 18.1767 2.82298L23.0955 7.74178Z" fill="black"/>
</svg>
