<svg width="24" height="24" viewBox="0 0 24 24" fill="none" xmlns="http://www.w3.org/2000/svg">
<path fill-rule="evenodd" clip-rule="evenodd" d="M20.3787 23.3047H8.73089C8.5416 23.3047 8.35726 23.3047 8.20114 23.2919C8.02969 23.2779 7.82739 23.2449 7.62382 23.1412C7.34158 22.9974 7.11211 22.7679 6.9683 22.4856C6.86458 22.2821 6.83153 22.0798 6.81752 21.9083C6.80476 21.7522 6.80478 21.5679 6.80481 21.3786L6.80481 14.25L3.67608 14.25C3.48679 14.25 3.30245 14.2501 3.14633 14.2373C2.97489 14.2233 2.77259 14.1902 2.56902 14.0865C2.28677 13.9427 2.0573 13.7132 1.91349 13.431C1.80977 13.2274 1.77672 13.0251 1.76271 12.8537C1.74996 12.6976 1.74998 12.5132 1.75 12.3239V4.67607C1.74998 4.48678 1.74996 4.30245 1.76271 4.14633C1.77672 3.97489 1.80977 3.77259 1.91349 3.56902C2.0573 3.28677 2.28677 3.0573 2.56902 2.91349C2.77259 2.80977 2.97489 2.77672 3.14633 2.76271C3.30245 2.74996 3.48678 2.74998 3.67607 2.75H11.3239C11.5132 2.74998 11.6976 2.74996 11.8537 2.76271C12.0251 2.77672 12.2274 2.80977 12.431 2.91349C12.7132 3.0573 12.9427 3.28677 13.0865 3.56902C13.1902 3.77259 13.2233 3.97489 13.2373 4.14633C13.2501 4.30245 13.25 4.48679 13.25 4.67608L13.25 7.80466L20.3787 7.80466C20.568 7.80463 20.7524 7.80461 20.9085 7.81737C21.0799 7.83137 21.2822 7.86442 21.4858 7.96815C21.768 8.11196 21.9975 8.34143 22.1413 8.62367C22.245 8.82724 22.2781 9.02954 22.2921 9.20098C22.3049 9.3571 22.3048 9.54145 22.3048 9.73073V21.3786C22.3048 21.5679 22.3049 21.7522 22.2921 21.9083C22.2781 22.0798 22.245 22.2821 22.1413 22.4856C21.9975 22.7679 21.768 22.9974 21.4858 23.1412C21.2822 23.2449 21.0799 23.2779 20.9085 23.2919C20.7524 23.3047 20.568 23.3047 20.3787 23.3047ZM11.75 7.80466V4.7C11.75 4.47761 11.7494 4.35592 11.7423 4.26848L11.7414 4.25859L11.7315 4.25773C11.6441 4.25059 11.5224 4.25 11.3 4.25H3.7C3.47761 4.25 3.35592 4.25059 3.26848 4.25773L3.25859 4.25859L3.25773 4.26848C3.25059 4.35592 3.25 4.47761 3.25 4.7V12.3C3.25 12.5224 3.25059 12.6441 3.25773 12.7315L3.25859 12.7414L3.26848 12.7423C3.35592 12.7494 3.47761 12.75 3.7 12.75H6.80481L6.80481 9.73072C6.80478 9.54144 6.80476 9.3571 6.81752 9.20098C6.83153 9.02954 6.86458 8.82724 6.9683 8.62367C7.11211 8.34143 7.34158 8.11196 7.62382 7.96815C7.82739 7.86442 8.02969 7.83137 8.20114 7.81737C8.35725 7.80461 8.54159 7.80463 8.73087 7.80466L11.75 7.80466Z" fill="black"/>
</svg>
