<svg width="24" height="24" viewBox="0 0 24 24" fill="none" xmlns="http://www.w3.org/2000/svg">
<path fill-rule="evenodd" clip-rule="evenodd" d="M3.34377 1C2.98481 1 2.69992 1 2.4704 1.01875C2.23558 1.03794 2.03658 1.07799 1.85476 1.17063C1.5602 1.32071 1.32071 1.5602 1.17063 1.85476C1.07799 2.03658 1.03794 2.23558 1.01875 2.4704C1 2.69992 1 2.98461 1 3.34358V7.65623C1 8.01519 1 8.30008 1.01875 8.5296C1.03794 8.76442 1.07799 8.96342 1.17063 9.14524C1.32071 9.4398 1.5602 9.67929 1.85476 9.82937C2.03658 9.92201 2.23558 9.96206 2.4704 9.98125C2.69995 10 2.98468 10 3.3437 10H5.72507V16.2784C5.72507 16.5718 5.72506 16.8087 5.74074 17.0006C5.75689 17.1982 5.79103 17.3722 5.87312 17.5333C6.00335 17.7889 6.21114 17.9967 6.46673 18.1269C6.62783 18.209 6.80182 18.2431 6.99948 18.2593C7.19133 18.275 7.42816 18.275 7.72147 18.275H14.0548V20.7109C14.0548 21.0699 14.0548 21.3547 14.0736 21.5843C14.0928 21.8191 14.1328 22.0181 14.2255 22.1999C14.3755 22.4945 14.615 22.7339 14.9096 22.884C15.0914 22.9767 15.2904 23.0167 15.5252 23.0359C15.7548 23.0547 16.0395 23.0547 16.3985 23.0547H20.7111C21.0701 23.0547 21.3549 23.0547 21.5844 23.0359C21.8192 23.0167 22.0182 22.9767 22.2001 22.884C22.4946 22.7339 22.7341 22.4945 22.8842 22.1999C22.9768 22.0181 23.0169 21.8191 23.0361 21.5843C23.0548 21.3547 23.0548 21.07 23.0548 20.711V16.3984C23.0548 16.0394 23.0548 15.7546 23.0361 15.5251C23.0169 15.2902 22.9768 15.0912 22.8842 14.9094C22.7341 14.6149 22.4946 14.3754 22.2001 14.2253C22.0182 14.1326 21.8192 14.0926 21.5844 14.0734C21.3549 14.0547 21.0701 14.0547 20.7111 14.0547H18.2751V7.72151C18.2751 7.42821 18.2751 7.19123 18.2594 6.99938C18.2432 6.80172 18.2091 6.62773 18.127 6.46663C17.9968 6.21105 17.789 6.00325 17.5334 5.87302C17.3723 5.79094 17.1983 5.75679 17.0007 5.74064C16.8088 5.72496 16.5719 5.72497 16.2785 5.72497H10V3.34377C10 2.98475 10 2.69995 9.98125 2.4704C9.96206 2.23558 9.92201 2.03658 9.82937 1.85476C9.67929 1.5602 9.4398 1.32071 9.14524 1.17063C8.96342 1.07799 8.76442 1.03794 8.5296 1.01875C8.30008 1 8.01539 1 7.65642 1H3.34377ZM9.5 5.72497V3.35476C9.5 2.98227 9.49981 2.71793 9.48291 2.51112C9.46625 2.30722 9.43461 2.18134 9.38387 2.08176C9.28172 1.88128 9.11872 1.71828 8.91824 1.61613C8.81866 1.56539 8.69278 1.53375 8.48888 1.51709C8.28207 1.50019 8.01773 1.5 7.64524 1.5H3.35476C2.98227 1.5 2.71793 1.50019 2.51112 1.51709C2.30722 1.53375 2.18134 1.56539 2.08176 1.61613C1.88128 1.71828 1.71828 1.88128 1.61613 2.08176C1.56539 2.18134 1.53375 2.30722 1.51709 2.51112C1.50019 2.71793 1.5 2.98227 1.5 3.35476V7.64524C1.5 8.01773 1.50019 8.28207 1.51709 8.48888C1.53375 8.69278 1.56539 8.81866 1.61613 8.91824C1.71828 9.11872 1.88128 9.28172 2.08176 9.38387C2.18134 9.43461 2.30722 9.46625 2.51112 9.48291C2.71793 9.49981 2.98227 9.5 3.35476 9.5H5.72507V7.72155C5.72507 7.42816 5.72506 7.19127 5.74074 6.99938C5.75689 6.80172 5.79103 6.62773 5.87312 6.46663C6.00335 6.21105 6.21114 6.00325 6.46673 5.87302C6.62783 5.79094 6.80182 5.75679 6.99948 5.74064C7.19137 5.72496 7.42826 5.72497 7.72165 5.72497H9.5ZM18.2751 14.5547V16.2784C18.2751 16.5717 18.2751 16.8087 18.2594 17.0006C18.2432 17.1982 18.2091 17.3722 18.127 17.5333C17.9968 17.7889 17.789 17.9967 17.5334 18.1269C17.3723 18.209 17.1983 18.2431 17.0007 18.2593C16.8088 18.275 16.572 18.275 16.2787 18.275H14.5548V20.6999C14.5548 21.0724 14.555 21.3367 14.5719 21.5435C14.5886 21.7474 14.6202 21.8733 14.671 21.9729C14.7731 22.1734 14.9361 22.3364 15.1366 22.4385C15.2362 22.4893 15.362 22.5209 15.5659 22.5376C15.7728 22.5545 16.0371 22.5547 16.4096 22.5547H20.7001C21.0726 22.5547 21.3369 22.5545 21.5437 22.5376C21.7476 22.5209 21.8735 22.4893 21.9731 22.4385C22.1735 22.3364 22.3365 22.1734 22.4387 21.9729C22.4894 21.8733 22.5211 21.7474 22.5377 21.5435C22.5546 21.3367 22.5548 21.0724 22.5548 20.6999V16.4094C22.5548 16.0369 22.5546 15.7726 22.5377 15.5658C22.5211 15.3619 22.4894 15.236 22.4387 15.1364C22.3365 14.9359 22.1735 14.7729 21.9731 14.6708C21.8735 14.62 21.7476 14.5884 21.5437 14.5718C21.3369 14.5549 21.0726 14.5547 20.7001 14.5547H18.2751Z" fill="black"/>
</svg>
