<svg width="24" height="24" viewBox="0 0 24 24" fill="none" xmlns="http://www.w3.org/2000/svg">
<path fill-rule="evenodd" clip-rule="evenodd" d="M3.34377 1C2.98481 1 2.69992 1 2.4704 1.01875C2.23558 1.03794 2.03658 1.07799 1.85476 1.17063C1.5602 1.32071 1.32071 1.5602 1.17063 1.85476C1.07799 2.03658 1.03794 2.23558 1.01875 2.4704C1 2.69992 1 2.98461 1 3.34358V7.65623C1 8.01519 1 8.30008 1.01875 8.5296C1.03794 8.76442 1.07799 8.96342 1.17063 9.14524C1.32071 9.4398 1.5602 9.67929 1.85476 9.82937C2.03658 9.92201 2.23558 9.96206 2.4704 9.98125C2.69995 10 2.98468 10 3.3437 10H5.75007V16.2774C5.75007 16.5716 5.75006 16.8077 5.76566 16.9985C5.78168 17.1946 5.8154 17.365 5.89539 17.522C6.02322 17.7728 6.2272 17.9768 6.47808 18.1046C6.63507 18.1846 6.8054 18.2184 7.00151 18.2344C7.19237 18.25 7.42839 18.25 7.72258 18.25H14.0552V20.7109C14.0552 21.0699 14.0552 21.3547 14.0739 21.5843C14.0931 21.8191 14.1332 22.0181 14.2258 22.1999C14.3759 22.4945 14.6154 22.734 14.9099 22.884C15.0918 22.9767 15.2908 23.0167 15.5256 23.0359C15.7551 23.0547 16.0399 23.0547 16.3989 23.0547H20.7114C21.0704 23.0547 21.3552 23.0547 21.5848 23.0359C21.8196 23.0167 22.0186 22.9767 22.2004 22.884C22.495 22.734 22.7345 22.4945 22.8845 22.1999C22.9772 22.0181 23.0172 21.8191 23.0364 21.5843C23.0552 21.3547 23.0552 21.07 23.0552 20.711V16.3984C23.0552 16.0394 23.0552 15.7546 23.0364 15.5251C23.0172 15.2902 22.9772 15.0912 22.8845 14.9094C22.7345 14.6149 22.495 14.3754 22.2004 14.2253C22.0186 14.1327 21.8196 14.0926 21.5848 14.0734C21.3552 14.0547 21.0705 14.0547 20.7115 14.0547H18.2501V7.72251C18.2501 7.42831 18.2501 7.19227 18.2345 7.00142C18.2185 6.80531 18.1847 6.63497 18.1047 6.47798C17.9769 6.2271 17.7729 6.02313 17.5221 5.8953C17.3651 5.81531 17.1947 5.78158 16.9986 5.76556C16.8078 5.74997 16.5717 5.74997 16.2775 5.74997H10V3.34377C10 2.98475 10 2.69995 9.98125 2.4704C9.96206 2.23558 9.92201 2.03658 9.82937 1.85476C9.67929 1.5602 9.4398 1.32071 9.14524 1.17063C8.96342 1.07799 8.76442 1.03794 8.5296 1.01875C8.30008 1 8.01539 1 7.65642 1H3.34377ZM9.5 5.74997V3.35476C9.5 2.98227 9.49981 2.71793 9.48291 2.51112C9.46625 2.30722 9.43461 2.18134 9.38387 2.08176C9.28172 1.88128 9.11872 1.71828 8.91824 1.61613C8.81866 1.56539 8.69278 1.53375 8.48888 1.51709C8.28207 1.50019 8.01773 1.5 7.64524 1.5H3.35476C2.98227 1.5 2.71793 1.50019 2.51112 1.51709C2.30722 1.53375 2.18134 1.56539 2.08176 1.61613C1.88128 1.71828 1.71828 1.88128 1.61613 2.08176C1.56539 2.18134 1.53375 2.30722 1.51709 2.51112C1.50019 2.71793 1.5 2.98227 1.5 3.35476V7.64524C1.5 8.01773 1.50019 8.28207 1.51709 8.48888C1.53375 8.69278 1.56539 8.81866 1.61613 8.91824C1.71828 9.11872 1.88128 9.28172 2.08176 9.38387C2.18134 9.43461 2.30722 9.46625 2.51112 9.48291C2.71793 9.49981 2.98227 9.5 3.35476 9.5H5.75007V7.72251C5.75007 7.4283 5.75006 7.19228 5.76566 7.00142C5.78168 6.80531 5.8154 6.63497 5.89539 6.47798C6.02322 6.2271 6.2272 6.02313 6.47808 5.8953C6.63507 5.81531 6.8054 5.78158 7.00151 5.76556C7.19237 5.74997 7.4284 5.74997 7.72261 5.74997H9.5ZM18.2501 14.5547V16.2774C18.2501 16.5716 18.2501 16.8077 18.2345 16.9985C18.2185 17.1946 18.1847 17.365 18.1047 17.522C17.9769 17.7728 17.7729 17.9768 17.5221 18.1046C17.3651 18.1846 17.1947 18.2184 16.9986 18.2344C16.8078 18.25 16.5718 18.25 16.2776 18.25H14.5552V20.6999C14.5552 21.0724 14.5554 21.3367 14.5723 21.5435C14.5889 21.7474 14.6206 21.8733 14.6713 21.9729C14.7735 22.1734 14.9365 22.3364 15.1369 22.4385C15.2365 22.4893 15.3624 22.5209 15.5663 22.5376C15.7731 22.5545 16.0374 22.5547 16.4099 22.5547H20.7004C21.0729 22.5547 21.3372 22.5545 21.5441 22.5376C21.748 22.5209 21.8738 22.4893 21.9734 22.4385C22.1739 22.3364 22.3369 22.1734 22.439 21.9729C22.4898 21.8733 22.5214 21.7474 22.5381 21.5435C22.555 21.3367 22.5552 21.0724 22.5552 20.6999V16.4094C22.5552 16.0369 22.555 15.7726 22.5381 15.5658C22.5214 15.3619 22.4898 15.236 22.439 15.1364C22.3369 14.9359 22.1739 14.7729 21.9734 14.6708C21.8738 14.6201 21.748 14.5884 21.5441 14.5718C21.3372 14.5549 21.0729 14.5547 20.7004 14.5547H18.2501ZM6.70508 6.3408C6.77983 6.30271 6.87704 6.2774 7.04223 6.2639C7.21033 6.25017 7.42591 6.24997 7.7334 6.24997H16.2667C16.5742 6.24997 16.7898 6.25017 16.9579 6.2639C17.1231 6.2774 17.2203 6.30271 17.2951 6.3408C17.4519 6.42069 17.5793 6.54818 17.6592 6.70498C17.6973 6.77973 17.7226 6.87694 17.7361 7.04213C17.7499 7.21024 17.7501 7.42582 17.7501 7.7333V16.2666C17.7501 16.5741 17.7499 16.7897 17.7361 16.9578C17.7226 17.123 17.6973 17.2202 17.6592 17.295C17.5793 17.4518 17.4519 17.5792 17.2951 17.6591C17.2203 17.6972 17.1231 17.7225 16.9579 17.736C16.7898 17.7498 16.5742 17.75 16.2667 17.75H7.7334C7.42591 17.75 7.21033 17.7498 7.04223 17.736C6.87704 17.7225 6.77983 17.6972 6.70508 17.6591C6.54827 17.5792 6.42079 17.4518 6.3409 17.295C6.30281 17.2202 6.27749 17.123 6.264 16.9578C6.25026 16.7897 6.25007 16.5741 6.25007 16.2666V7.7333C6.25007 7.42582 6.25026 7.21024 6.264 7.04213C6.27749 6.87694 6.30281 6.77973 6.3409 6.70498C6.42079 6.54818 6.54827 6.42069 6.70508 6.3408Z" fill="black"/>
</svg>
