<svg width="24" height="24" viewBox="0 0 24 24" fill="none" xmlns="http://www.w3.org/2000/svg">
<path fill-rule="evenodd" clip-rule="evenodd" d="M20.7799 22.8047C20.8966 22.8047 21.0489 22.8048 21.1849 22.7937C21.3456 22.7806 21.5902 22.7459 21.8492 22.6139C22.1785 22.4462 22.4462 22.1784 22.614 21.8492C22.746 21.5901 22.7807 21.3455 22.7938 21.1849C22.8049 21.0488 22.8048 20.8965 22.8048 20.7798V8.32954C22.8048 8.21282 22.8049 8.06057 22.7938 7.92448C22.7807 7.7638 22.746 7.51925 22.614 7.26019C22.4462 6.9309 22.1785 6.66319 21.8492 6.49541C21.5902 6.36341 21.3456 6.32876 21.1849 6.31563C21.0489 6.30451 20.8966 6.3046 20.7799 6.30466L13.75 6.30467L13.75 3.27489C13.7501 3.15818 13.7502 3.00591 13.7391 2.86983C13.7259 2.70915 13.6913 2.4646 13.5593 2.20554C13.3915 1.87625 13.1238 1.60854 12.7945 1.44076C12.5354 1.30876 12.2909 1.27411 12.1302 1.26098C11.9941 1.24986 11.8419 1.24995 11.7252 1.25001H3.2749C3.15818 1.24995 3.00591 1.24986 2.86983 1.26098C2.70915 1.27411 2.4646 1.30876 2.20554 1.44076C1.87625 1.60854 1.60854 1.87625 1.44076 2.20554C1.30876 2.4646 1.27411 2.70915 1.26098 2.86983C1.24986 3.00591 1.24995 3.15816 1.25001 3.27487V11.7251C1.24995 11.8419 1.24986 11.9941 1.26098 12.1302C1.27411 12.2909 1.30876 12.5354 1.44076 12.7945C1.60854 13.1238 1.87625 13.3915 2.20554 13.5593C2.4646 13.6913 2.70915 13.7259 2.86983 13.7391C3.00591 13.7502 3.15815 13.7501 3.27486 13.75L6.30476 13.75L6.30475 20.7798C6.30469 20.8965 6.30461 21.0488 6.31572 21.1849C6.32885 21.3455 6.3635 21.5901 6.4955 21.8492C6.66328 22.1784 6.93099 22.4462 7.26028 22.6139C7.51934 22.7459 7.76389 22.7806 7.92457 22.7937C8.06066 22.8048 8.21291 22.8047 8.32963 22.8047H20.7799ZM6.30476 11.25L6.30475 8.32955C6.30469 8.21284 6.30461 8.06055 6.31572 7.92448C6.32885 7.7638 6.3635 7.51925 6.4955 7.26019C6.66328 6.9309 6.93099 6.66319 7.26028 6.49541C7.51934 6.36341 7.76389 6.32876 7.92457 6.31563C8.06064 6.30451 8.21287 6.3046 8.32958 6.30466L11.25 6.30467V3.75002H3.75002V11.25H6.30476ZM20.3048 8.80467V20.3047H8.80476V8.80467H20.3048Z" fill="black"/>
</svg>
