<svg width="24" height="24" viewBox="0 0 24 24" fill="none" xmlns="http://www.w3.org/2000/svg">
<path fill-rule="evenodd" clip-rule="evenodd" d="M20.7798 23.8047H8.32956C8.21284 23.8048 8.06059 23.8048 7.9245 23.7937C7.76382 23.7806 7.51927 23.7459 7.2602 23.6139C6.93092 23.4462 6.6632 23.1785 6.49543 22.8492C6.36343 22.5901 6.32878 22.3456 6.31565 22.1849C6.30453 22.0488 6.30462 21.8966 6.30468 21.7799L6.30469 14.75L3.27489 14.75C3.15818 14.7501 3.00591 14.7502 2.86983 14.7391C2.70915 14.7259 2.4646 14.6913 2.20554 14.5593C1.87625 14.3915 1.60854 14.1238 1.44076 13.7945C1.30876 13.5354 1.27411 13.2909 1.26098 13.1302C1.24986 12.9941 1.24995 12.8419 1.25001 12.7252V4.2749C1.24995 4.15819 1.24986 4.0059 1.26098 3.86983C1.27411 3.70915 1.30876 3.4646 1.44076 3.20554C1.60854 2.87625 1.87625 2.60854 2.20554 2.44076C2.4646 2.30876 2.70915 2.27411 2.86983 2.26098C3.0059 2.24986 3.15813 2.24995 3.27484 2.25001H11.7251C11.8419 2.24995 11.9941 2.24986 12.1302 2.26098C12.2909 2.27411 12.5354 2.30876 12.7945 2.44076C13.1238 2.60854 13.3915 2.87625 13.5593 3.20554C13.6913 3.4646 13.7259 3.70915 13.7391 3.86983C13.7502 4.00591 13.7501 4.15815 13.75 4.27486L13.75 7.30469L20.7798 7.30468C20.8965 7.30462 21.0488 7.30453 21.1849 7.31565C21.3456 7.32878 21.5901 7.36343 21.8492 7.49543C22.1785 7.6632 22.4462 7.93092 22.6139 8.2602C22.7459 8.51927 22.7806 8.76382 22.7937 8.9245C22.8048 9.06059 22.8048 9.21284 22.8047 9.32956V21.7798C22.8048 21.8965 22.8048 22.0488 22.7937 22.1849C22.7806 22.3456 22.7459 22.5901 22.6139 22.8492C22.4462 23.1785 22.1785 23.4462 21.8492 23.6139C21.5901 23.7459 21.3456 23.7806 21.1849 23.7937C21.0488 23.8048 20.8965 23.8048 20.7798 23.8047ZM11.25 7.30469V4.75002H3.75002V12.25H6.30469L6.30468 9.32957C6.30462 9.21286 6.30453 9.06057 6.31565 8.9245C6.32878 8.76382 6.36343 8.51927 6.49543 8.2602C6.6632 7.93092 6.93092 7.6632 7.2602 7.49543C7.51927 7.36343 7.76382 7.32878 7.9245 7.31565C8.06057 7.30453 8.2128 7.30462 8.32951 7.30468L11.25 7.30469Z" fill="black"/>
</svg>
