<svg width="24" height="24" viewBox="0 0 24 24" fill="none" xmlns="http://www.w3.org/2000/svg">
<path fill-rule="evenodd" clip-rule="evenodd" d="M20.3832 23.5547C20.5683 23.5547 20.7621 23.5547 20.9288 23.5411C21.1157 23.5258 21.3545 23.4886 21.5992 23.3639C21.9285 23.1961 22.1962 22.9284 22.364 22.5991C22.4887 22.3545 22.5259 22.1156 22.5412 21.9287C22.5548 21.762 22.5548 21.5682 22.5548 21.3831V9.7262C22.5548 9.54115 22.5548 9.34729 22.5412 9.18063C22.5259 8.99372 22.4887 8.75486 22.364 8.51017C22.1962 8.18089 21.9285 7.91317 21.5992 7.7454C21.3545 7.62072 21.1157 7.58347 20.9288 7.5682C20.7621 7.55458 20.5683 7.55462 20.3832 7.55465L13.5 7.55466L13.5 4.67155C13.5 4.48649 13.5001 4.29264 13.4865 4.12598C13.4712 3.93907 13.4339 3.70021 13.3093 3.45552C13.1415 3.12624 12.8738 2.85852 12.5445 2.69075C12.2998 2.56607 12.0609 2.52882 11.874 2.51355C11.7074 2.49993 11.5135 2.49997 11.3284 2.5H3.67157C3.4865 2.49997 3.29265 2.49993 3.12598 2.51355C2.93907 2.52882 2.70021 2.56607 2.45552 2.69075C2.12624 2.85852 1.85852 3.12624 1.69075 3.45552C1.56607 3.70021 1.52882 3.93907 1.51355 4.12598C1.49993 4.29265 1.49997 4.4865 1.5 4.67157V12.3284C1.49997 12.5135 1.49993 12.7074 1.51355 12.874C1.52882 13.0609 1.56607 13.2998 1.69075 13.5445C1.85852 13.8738 2.12624 14.1415 2.45552 14.3093C2.70021 14.4339 2.93907 14.4712 3.12598 14.4865C3.29264 14.5001 3.48649 14.5 3.67155 14.5L6.55475 14.5L6.55474 21.3831C6.55471 21.5682 6.55467 21.762 6.56829 21.9287C6.58356 22.1156 6.62081 22.3545 6.74549 22.5991C6.91327 22.9284 7.18098 23.1961 7.51027 23.3639C7.75495 23.4886 7.99381 23.5258 8.18072 23.5411C8.34738 23.5547 8.54123 23.5547 8.72628 23.5547H20.3832ZM6.55475 12.5L6.55474 9.72622C6.55471 9.54115 6.55467 9.3473 6.56829 9.18063C6.58356 8.99372 6.62081 8.75486 6.74549 8.51017C6.91327 8.18089 7.18098 7.91317 7.51027 7.7454C7.75495 7.62072 7.99381 7.58347 8.18072 7.5682C8.34739 7.55458 8.54124 7.55462 8.72631 7.55465L11.5 7.55466V4.70001C11.5 4.62257 11.5 4.55761 11.4996 4.50045C11.4424 4.50002 11.3774 4.50001 11.3 4.50001H3.70001C3.62257 4.50001 3.5576 4.50002 3.50045 4.50045C3.50002 4.55761 3.50001 4.62257 3.50001 4.70001V12.3C3.50001 12.3774 3.50002 12.4424 3.50045 12.4996C3.55761 12.5 3.62257 12.5 3.70001 12.5H6.55475ZM20.5547 21.3547C20.5547 21.4321 20.5547 21.4971 20.5543 21.5542C20.4972 21.5546 20.4322 21.5547 20.3547 21.5547H8.75475C8.67731 21.5547 8.61235 21.5546 8.5552 21.5542C8.55476 21.4971 8.55475 21.4321 8.55475 21.3547V9.75466C8.55475 9.67722 8.55476 9.61226 8.55519 9.5551C8.61234 9.55467 8.67731 9.55466 8.75475 9.55466H20.3547C20.4322 9.55466 20.4972 9.55467 20.5543 9.5551C20.5547 9.61226 20.5547 9.67722 20.5547 9.75466V21.3547Z" fill="black"/>
</svg>
