<svg width="24" height="24" viewBox="0 0 24 24" fill="none" xmlns="http://www.w3.org/2000/svg">
<path d="M3.61328 15.2159C4.41438 14.4148 5.60961 14.1109 6.70898 14.3057C7.37798 14.4243 8.01147 14.7276 8.49902 15.2149L8.66504 15.3907C9.09977 15.8763 9.36689 16.4007 9.50879 16.9268C9.9015 18.3832 9.32496 19.8548 8.61328 20.5665C8.54034 20.6394 8.46621 20.7098 8.3916 20.7784C8.21166 20.9438 8.02595 21.095 7.83789 21.2354C7.64528 21.3792 7.44978 21.5109 7.25098 21.629C7.0332 21.7583 6.81208 21.8715 6.58984 21.9708C5.4538 22.478 4.28075 22.5962 3.27539 22.3731C3.14851 22.3449 3.02441 22.3115 2.90332 22.2725C2.67036 22.1976 2.4492 22.1031 2.24219 21.9893C1.9672 21.8381 1.71701 21.6545 1.5 21.4375C1.88868 21.0486 2.0695 20.6108 2.1582 20.1368C2.16932 20.0774 2.17903 20.0175 2.1875 19.9571C2.24843 19.5213 2.24718 19.057 2.26758 18.5733C2.31235 17.5163 2.46317 16.3662 3.61328 15.2159Z" fill="black"/>
<path d="M10.5957 10.3125C11.0253 10.5069 11.6142 10.9209 12.2041 11.5108C12.7786 12.0854 13.179 12.6529 13.3779 13.0713L13.4512 13.2422L13.5625 13.5723C12.6899 14.4469 11.7587 15.2539 10.7793 15.9971C10.5274 15.3553 10.1335 14.7274 9.56055 14.1543C9.06362 13.6574 8.46903 13.2931 7.8291 13.0596C8.59184 12.0537 9.4219 11.0981 10.3232 10.2051C10.3266 10.2018 10.3296 10.1977 10.333 10.1944L10.5957 10.3125Z" fill="black"/>
<path d="M20.833 1.50396C21.6182 1.59612 22.238 2.21581 22.3301 3.00103C22.3494 3.16827 22.3036 3.33496 22.2002 3.46782C21.426 4.46167 18.023 8.80635 15.9062 11.1299C15.5412 11.5307 15.1365 11.9576 14.7148 12.3956C14.4133 11.7751 13.8981 11.0837 13.2646 10.4502C12.68 9.86559 12.0513 9.38498 11.4775 9.07817C11.9012 8.67077 12.3148 8.28055 12.7031 7.92681C15.0267 5.81004 19.3713 2.40712 20.3652 1.63286C20.4982 1.52932 20.6656 1.48448 20.833 1.50396Z" fill="black"/>
</svg>
