<svg width="24" height="24" viewBox="0 0 24 24" fill="none" xmlns="http://www.w3.org/2000/svg">
<path fill-rule="evenodd" clip-rule="evenodd" d="M20.8623 1.2556C21.7625 1.36135 22.4737 2.07212 22.5791 2.97239C22.6059 3.20343 22.5441 3.43701 22.3994 3.62278C21.6272 4.61406 18.2175 8.96613 16.0928 11.2986C15.418 12.0392 14.614 12.8722 13.8076 13.6863C12.5119 14.9942 11.0859 16.153 9.56641 17.1736C9.83609 18.547 9.28477 19.8947 8.61328 20.5661L8.3916 20.7781C6.07964 22.9033 3.00706 22.944 1.5 21.4372C3.05443 19.8816 1.28046 17.5486 3.61328 15.2156C4.39762 14.4312 5.55956 14.1253 6.63965 14.2956C7.66479 12.7655 8.83332 11.3319 10.1494 10.0281C10.9634 9.22167 11.7955 8.41763 12.5361 7.7429C14.8686 5.61803 19.2219 2.20825 20.2129 1.43626C20.3988 1.29152 20.6311 1.22867 20.8623 1.2556ZM8.14551 15.5691C7.05204 14.4757 5.06026 14.4756 3.9668 15.5691C2.93252 16.6035 2.80422 17.6154 2.76367 18.6374C2.73011 19.484 2.77919 20.5006 2.19629 21.3708C3.61579 22.3745 6.23334 22.2389 8.25977 20.2126C8.67 19.8024 9.05782 19.0407 9.12695 18.1697C9.19447 17.318 8.95622 16.3798 8.14551 15.5691ZM9.95996 10.9363C8.93114 12.0186 7.99908 13.1842 7.16211 14.4167C7.66088 14.5733 8.12316 14.8397 8.49902 15.2156L8.66504 15.3904C9.02705 15.7947 9.27334 16.2262 9.42773 16.6628C10.6398 15.8391 11.7874 14.9239 12.8545 13.9148C12.63 13.4167 12.1788 12.7782 11.5576 12.157C11.0028 11.6022 10.4323 11.1807 9.95996 10.9363ZM20.8047 1.75267C20.701 1.74054 20.6006 1.76852 20.5205 1.83079C19.5257 2.60577 15.1876 6.00265 12.8721 8.11204C12.1386 8.78022 11.3116 9.57951 10.5 10.3835C10.44 10.443 10.3817 10.5042 10.3223 10.5642C10.8208 10.8435 11.3792 11.2716 11.9111 11.8034C12.4978 12.3901 12.9587 13.0114 13.2324 13.5495C13.3054 13.4777 13.38 13.4075 13.4521 13.3347C14.2561 12.5232 15.0545 11.696 15.7227 10.9626C17.832 8.64724 21.2297 4.31022 22.0049 3.31517C22.067 3.23535 22.0938 3.13426 22.082 3.03099C22.0036 2.36074 21.4748 1.83152 20.8047 1.75267Z" fill="black"/>
</svg>
