<svg width="24" height="24" viewBox="0 0 24 24" fill="none" xmlns="http://www.w3.org/2000/svg">
<path d="M3.61328 15.2158C4.40965 14.4194 5.59546 14.1149 6.68945 14.3027L6.90723 14.3467C7.50241 14.4865 8.05992 14.7759 8.49902 15.2148L8.66504 15.3906C9.09977 15.8762 9.36689 16.4007 9.50879 16.9267C9.90153 18.3832 9.32497 19.8547 8.61328 20.5664L8.3916 20.7783C8.21166 20.9437 8.02595 21.0949 7.83789 21.2353C7.57644 21.4305 7.3092 21.6029 7.03711 21.751C6.88918 21.8315 6.73957 21.9038 6.58984 21.9707C5.45378 22.4779 4.28076 22.5961 3.27539 22.373C3.1485 22.3449 3.02441 22.3114 2.90332 22.2724C2.67036 22.1975 2.4492 22.103 2.24219 21.9892C2.14828 21.9376 2.05643 21.8836 1.96875 21.8242C1.94905 21.8109 1.9305 21.7959 1.91113 21.7822C1.76427 21.678 1.62626 21.5637 1.5 21.4375C1.88869 21.0485 2.0695 20.6108 2.1582 20.1367C2.16932 20.0774 2.17904 20.0175 2.1875 19.957C2.30564 19.1119 2.18684 18.1598 2.4541 17.166C2.626 16.5274 2.95749 15.8717 3.61328 15.2158Z" fill="black"/>
<path d="M11.3906 9.76854C11.7498 9.93117 12.2896 10.3033 12.8506 10.8642C13.4709 11.4846 13.847 12.0677 13.9785 12.4062L14.166 12.9599C13.9875 13.1426 13.8102 13.3287 13.6299 13.5107C12.983 14.1637 12.3019 14.7778 11.5938 15.3574C11.2942 14.6907 10.8623 14.042 10.2676 13.4472C9.74349 12.9232 9.13162 12.5218 8.47363 12.2402C9.05399 11.5319 9.67085 10.8524 10.3242 10.2051C10.5368 9.99442 10.7528 9.78598 10.9658 9.57811L11.3906 9.76854Z" fill="black"/>
<path d="M20.833 1.50389C21.6183 1.59603 22.2381 2.21564 22.3301 3.00096C22.3495 3.16812 22.3044 3.33489 22.2012 3.46775C21.4451 4.43828 18.1796 8.60522 16.0557 10.9638C15.7158 10.3391 15.2077 9.68624 14.6182 9.09666C14.0711 8.54963 13.4764 8.07925 12.9053 7.7451C15.2698 5.62069 19.4001 2.3864 20.3662 1.63377C20.4991 1.53039 20.6657 1.48441 20.833 1.50389Z" fill="black"/>
</svg>
