<svg width="24" height="24" viewBox="0 0 24 24" fill="none" xmlns="http://www.w3.org/2000/svg">
<path fill-rule="evenodd" clip-rule="evenodd" d="M20.9209 0.758537L21.1289 0.79174C22.1586 1.00286 22.9507 1.85332 23.0752 2.91283C23.1119 3.22658 23.042 3.54522 22.8721 3.81518L22.793 3.92846L21.7803 5.2185C20.3933 6.97397 18.0672 9.87332 16.4619 11.6355C15.7805 12.3834 14.971 13.2214 14.1621 14.0378C12.7814 15.4315 11.2589 16.6599 9.63379 17.7312C9.68464 18.9013 9.19338 19.9861 8.61328 20.5662L8.3916 20.7781C6.07983 22.9032 3.00722 22.9446 1.5 21.4382C3.05512 19.8826 1.28013 17.5488 3.61328 15.2156C4.27193 14.5569 5.19703 14.2351 6.11621 14.2497C6.10026 14.2495 6.08431 14.2488 6.06836 14.2488C7.14732 12.605 8.38802 11.0664 9.7959 9.67162C10.6124 8.86278 11.4503 8.0532 12.1982 7.37182C14.5476 5.23156 18.9179 1.80996 19.9053 1.04076L20.0176 0.961662C20.2876 0.791407 20.6069 0.721896 20.9209 0.758537ZM7.43848 16.2761C6.73552 15.5733 5.37675 15.5732 4.67383 16.2761C3.90358 17.0464 3.80046 17.7498 3.76367 18.6775C3.7438 19.1787 3.77686 20.0107 3.51562 20.8757C4.57682 21.1493 6.14706 20.9113 7.55273 19.5056C7.78339 19.275 8.07815 18.7417 8.12988 18.0915C8.1769 17.4991 8.02022 16.8579 7.43848 16.2761ZM10.0527 11.5681C9.17477 12.5208 8.37068 13.5375 7.63867 14.6062C7.63065 14.6023 7.62231 14.5983 7.61426 14.5945C7.93942 14.7494 8.23979 14.9564 8.49902 15.2156L8.66504 15.3904C8.89718 15.6497 9.08023 15.9213 9.22363 16.197C10.2824 15.4723 11.2902 14.6761 12.2354 13.8083C12.0128 13.4295 11.6652 12.9716 11.2041 12.5105C10.8035 12.1099 10.4028 11.7923 10.0527 11.5681ZM20.7852 2.25561C19.714 3.0906 15.4771 6.41495 13.209 8.48119C12.5618 9.07076 11.8405 9.76674 11.1182 10.4783C11.5008 10.7483 11.892 11.0774 12.2646 11.4499C12.6811 11.8664 13.0454 12.3092 13.333 12.739C14.0523 12.0089 14.7567 11.2788 15.3525 10.6247C17.4193 8.35601 20.7432 4.11649 21.5771 3.04662C21.5112 2.63961 21.1925 2.32066 20.7852 2.25561Z" fill="black"/>
</svg>
