<svg width="24" height="24" viewBox="0 0 24 24" fill="none" xmlns="http://www.w3.org/2000/svg">
<path fill-rule="evenodd" clip-rule="evenodd" d="M6.3623 14.2597C7.41246 12.6777 8.61352 11.1961 9.97168 9.85053C10.7868 9.04302 11.622 8.23559 12.3662 7.55756C14.7068 5.42525 19.0687 2.00935 20.0586 1.23823C20.2973 1.0525 20.5959 0.972447 20.8906 1.00678C21.9059 1.12574 22.707 1.92714 22.8262 2.94233C22.8605 3.23709 22.7814 3.5366 22.5957 3.77534C21.8245 4.76528 18.4087 9.12712 16.2764 11.4677C15.5983 12.2119 14.7909 13.0471 13.9834 13.8623C12.6483 15.2098 11.1783 16.4017 9.61035 17.4462C9.76312 18.7227 9.24021 19.9394 8.61328 20.5664L8.3916 20.7783C6.07971 22.9033 3.00707 22.9441 1.5 21.4374C3.05468 19.8818 1.2801 17.548 3.61328 15.2148C4.33076 14.4974 5.36461 14.1783 6.3623 14.2597ZM7.79199 15.9218C6.89376 15.0241 5.21844 15.0239 4.32031 15.9218C3.4178 16.8243 3.30233 17.6831 3.26367 18.6581C3.23752 19.3187 3.27867 20.277 2.86914 21.1816C4.12237 21.7631 6.18867 21.5767 7.90625 19.8593C8.22673 19.5388 8.56853 18.8905 8.62891 18.1298C8.68606 17.4079 8.48808 16.6179 7.79199 15.9218ZM10.0088 11.248C9.05663 12.2642 8.18845 13.3531 7.4043 14.5019C7.39951 14.5 7.39445 14.4979 7.38965 14.496C7.80116 14.657 8.18102 14.8969 8.49902 15.2148L8.66504 15.3906C8.96128 15.7215 9.17955 16.0707 9.33398 16.4257C10.4681 15.6514 11.5436 14.7952 12.5488 13.8574C12.3206 13.4198 11.9217 12.8748 11.3809 12.3339C10.9032 11.8563 10.4198 11.4863 10.0088 11.248ZM20.7734 2.00092C20.7341 1.99667 20.6987 2.00735 20.6719 2.02827C19.6727 2.80664 15.3461 6.19607 13.04 8.29682C12.3248 8.94845 11.5183 9.72617 10.7236 10.5126C11.1688 10.7975 11.6396 11.1786 12.0879 11.6269C12.5838 12.1228 12.9982 12.6495 13.291 13.1396C14.0876 12.3352 14.8773 11.5181 15.5371 10.7939C17.6383 8.48742 21.0281 4.15916 21.8057 3.16108C21.8267 3.13403 21.8365 3.09919 21.832 3.05952C21.767 2.50413 21.3288 2.06605 20.7734 2.00092Z" fill="black"/>
</svg>
