<svg width="24" height="24" viewBox="0 0 24 24" fill="none" xmlns="http://www.w3.org/2000/svg">
<path fill-rule="evenodd" clip-rule="evenodd" d="M8.75 5C8.75 3.20507 10.2051 1.75 12 1.75C13.7949 1.75 15.25 3.20507 15.25 5V6.82501C16.718 7.12301 17.8746 8.27856 18.1742 9.74602C20.1644 9.65503 21.75 8.01269 21.75 6V5C21.75 4.86193 21.8619 4.75 22 4.75C22.1381 4.75 22.25 4.86193 22.25 5V6C22.25 8.26621 20.4763 10.1181 18.2413 10.2433C18.2471 10.3281 18.25 10.4137 18.25 10.5V13.25H22C22.1381 13.25 22.25 13.3619 22.25 13.5C22.25 13.6381 22.1381 13.75 22 13.75H18.25V15C18.25 15.6075 18.1633 16.1947 18.0017 16.75C20.3481 16.7509 22.25 18.6534 22.25 21V22C22.25 22.1381 22.1381 22.25 22 22.25C21.8619 22.25 21.75 22.1381 21.75 22V21C21.75 18.9289 20.0711 17.25 18 17.25C17.9443 17.25 17.8929 17.2318 17.8514 17.2011C16.9611 19.5669 14.6771 21.25 12 21.25C9.32291 21.25 7.03894 19.5669 6.14859 17.2011C6.10705 17.2318 6.05565 17.25 6 17.25C3.92893 17.25 2.25 18.9289 2.25 21V22C2.25 22.1381 2.13807 22.25 2 22.25C1.86193 22.25 1.75 22.1381 1.75 22V21C1.75 18.6534 3.65188 16.7509 5.99831 16.75C5.83667 16.1947 5.75 15.6075 5.75 15V13.75H2C1.86193 13.75 1.75 13.6381 1.75 13.5C1.75 13.3619 1.86193 13.25 2 13.25H5.75V10.5C5.75 10.4137 5.75291 10.3281 5.75865 10.2433C3.52373 10.1181 1.75 8.26621 1.75 6V5C1.75 4.86193 1.86193 4.75 2 4.75C2.13807 4.75 2.25 4.86193 2.25 5V6C2.25 8.01269 3.83561 9.65504 5.82582 9.74603C6.12536 8.27857 7.28198 7.12301 8.75 6.82501V5ZM6.25 15C6.25 18.1756 8.82436 20.75 12 20.75C15.1756 20.75 17.75 18.1756 17.75 15V10.5C17.75 8.70507 16.2949 7.25 14.5 7.25H9.5C7.70507 7.25 6.25 8.70507 6.25 10.5V15ZM14.75 6.75H9.25V5C9.25 3.48122 10.4812 2.25 12 2.25C13.5188 2.25 14.75 3.48122 14.75 5V6.75Z" fill="black"/>
</svg>
