<svg width="24" height="24" viewBox="0 0 24 24" fill="none" xmlns="http://www.w3.org/2000/svg">
<path fill-rule="evenodd" clip-rule="evenodd" d="M7.75 5C7.75 2.65279 9.65279 0.75 12 0.75C14.3472 0.75 16.25 2.65279 16.25 5V6.08276C17.4196 6.54653 18.3613 7.46142 18.8603 8.61275C19.9577 8.2516 20.75 7.21833 20.75 6V5C20.75 4.30964 21.3096 3.75 22 3.75C22.6904 3.75 23.25 4.30964 23.25 5V6C23.25 8.46874 21.546 10.5395 19.25 11.1003V12.25H22C22.6904 12.25 23.25 12.8096 23.25 13.5C23.25 14.1904 22.6904 14.75 22 14.75H19.25V15C19.25 15.3002 19.2317 15.5962 19.1963 15.8869C21.5194 16.4283 23.25 18.512 23.25 21V22C23.25 22.6904 22.6904 23.25 22 23.25C21.3096 23.25 20.75 22.6904 20.75 22V21C20.75 19.639 19.7613 18.5089 18.4629 18.2888C17.2641 20.6399 14.8201 22.25 12 22.25C9.17993 22.25 6.73592 20.6399 5.53712 18.2888C4.23874 18.5089 3.25 19.639 3.25 21V22C3.25 22.6904 2.69036 23.25 2 23.25C1.30964 23.25 0.75 22.6904 0.75 22V21C0.75 18.512 2.48062 16.4283 4.80371 15.8869C4.76825 15.5962 4.75 15.3002 4.75 15V14.75H2C1.30964 14.75 0.75 14.1904 0.75 13.5C0.75 12.8096 1.30964 12.25 2 12.25H4.75V11.1003C2.45399 10.5395 0.75 8.46874 0.75 6V5C0.75 4.30964 1.30964 3.75 2 3.75C2.69036 3.75 3.25 4.30964 3.25 5V6C3.25 7.21832 4.04226 8.2516 5.13969 8.61275C5.6387 7.46142 6.58036 6.54653 7.75 6.08276V5ZM7.25 15C7.25 17.6234 9.37665 19.75 12 19.75C14.6234 19.75 16.75 17.6234 16.75 15V10.5C16.75 9.25736 15.7426 8.25 14.5 8.25H9.5C8.25736 8.25 7.25 9.25736 7.25 10.5V15ZM13.75 5V5.75H10.25V5C10.25 4.0335 11.0335 3.25 12 3.25C12.9665 3.25 13.75 4.0335 13.75 5Z" fill="black"/>
</svg>
