<svg width="24" height="24" viewBox="0 0 24 24" fill="none" xmlns="http://www.w3.org/2000/svg">
<path fill-rule="evenodd" clip-rule="evenodd" d="M8.25 5C8.25 2.92893 9.92893 1.25 12 1.25C14.0711 1.25 15.75 2.92893 15.75 5V6.4368C17.0765 6.84441 18.1265 7.8838 18.5487 9.20387C20.0823 8.94308 21.25 7.6079 21.25 6V5C21.25 4.58579 21.5858 4.25 22 4.25C22.4142 4.25 22.75 4.58579 22.75 5V6C22.75 8.36815 21.017 10.3315 18.75 10.6911V12.75H22C22.4142 12.75 22.75 13.0858 22.75 13.5C22.75 13.9142 22.4142 14.25 22 14.25H18.75V15C18.75 15.4415 18.7076 15.8731 18.6267 16.291C20.9538 16.5977 22.75 18.5891 22.75 21V22C22.75 22.4142 22.4142 22.75 22 22.75C21.5858 22.75 21.25 22.4142 21.25 22V21C21.25 19.2602 19.883 17.8397 18.1644 17.7541C17.1107 20.1091 14.7469 21.75 12 21.75C9.25305 21.75 6.88935 20.1091 5.83558 17.7541C4.11705 17.8397 2.75 19.2602 2.75 21V22C2.75 22.4142 2.41421 22.75 2 22.75C1.58579 22.75 1.25 22.4142 1.25 22V21C1.25 18.5891 3.04616 16.5977 5.37332 16.291C5.29239 15.8731 5.25 15.4415 5.25 15V14.25H2C1.58579 14.25 1.25 13.9142 1.25 13.5C1.25 13.0858 1.58579 12.75 2 12.75H5.25V10.6911C2.98301 10.3315 1.25 8.36815 1.25 6V5C1.25 4.58579 1.58579 4.25 2 4.25C2.41421 4.25 2.75 4.58579 2.75 5V6C2.75 7.6079 3.91765 8.94308 5.45126 9.20387C5.87351 7.8838 6.92346 6.84441 8.25 6.4368V5ZM6.75 15C6.75 17.8995 9.1005 20.25 12 20.25C14.8995 20.25 17.25 17.8995 17.25 15V10.5C17.25 8.98122 16.0188 7.75 14.5 7.75H9.5C7.98122 7.75 6.75 8.98122 6.75 10.5V15ZM14.25 5V6.25H9.75V5C9.75 3.75736 10.7574 2.75 12 2.75C13.2426 2.75 14.25 3.75736 14.25 5Z" fill="black"/>
</svg>
