<svg width="24" height="24" viewBox="0 0 24 24" fill="none" xmlns="http://www.w3.org/2000/svg">
<path d="M12 2C10.5074 2 9.2694 3.09003 9.0386 4.51748C9.19088 4.5059 9.34475 4.5 9.5 4.5H14.5C14.6552 4.5 14.8091 4.5059 14.9614 4.51748C14.7306 3.09003 13.4926 2 12 2Z" fill="black"/>
<path d="M17.5737 8.82458C16.9799 7.73744 15.826 7 14.5 7H9.5C8.17395 7 7.02015 7.73744 6.42631 8.82458C6.1545 9.32218 6 9.89305 6 10.5V15C6 15.2543 6.01582 15.5049 6.04653 15.7509C6.14638 16.5507 6.40367 17.3016 6.78641 17.9717C7.81975 19.7807 9.76748 21 12 21C14.2325 21 16.1803 19.7807 17.2136 17.9717C17.5963 17.3016 17.8536 16.5507 17.9535 15.7509C17.9842 15.5049 18 15.2543 18 15V10.5C18 9.89305 17.8455 9.32219 17.5737 8.82458Z" fill="black"/>
<path d="M20.5 10.6177V10.5C20.5 9.58988 20.2974 8.7271 19.9347 7.95429C20.4382 7.45589 20.75 6.76436 20.75 6V5C20.75 4.30964 21.3096 3.75 22 3.75C22.6904 3.75 23.25 4.30964 23.25 5V6C23.25 7.9944 22.1379 9.72906 20.5 10.6177Z" fill="black"/>
<path d="M20.5 12.25V14.75H22C22.6904 14.75 23.25 14.1904 23.25 13.5C23.25 12.8096 22.6904 12.25 22 12.25H20.5Z" fill="black"/>
<path d="M20.3969 16.3278C20.261 17.1942 19.9942 18.0171 19.6175 18.7757C20.3039 19.2757 20.75 20.0858 20.75 21V22C20.75 22.6904 21.3096 23.25 22 23.25C22.6904 23.25 23.25 22.6904 23.25 22V21C23.25 18.964 22.0911 17.1987 20.3969 16.3278Z" fill="black"/>
<path d="M4.38253 18.7757C4.00578 18.0171 3.73902 17.1942 3.60311 16.3278C1.90894 17.1987 0.75 18.964 0.75 21V22C0.75 22.6904 1.30964 23.25 2 23.25C2.69036 23.25 3.25 22.6904 3.25 22V21C3.25 20.0858 3.69612 19.2757 4.38253 18.7757Z" fill="black"/>
<path d="M3.5 14.75V12.25H2C1.30964 12.25 0.75 12.8096 0.75 13.5C0.75 14.1904 1.30964 14.75 2 14.75H3.5Z" fill="black"/>
<path d="M3.5 10.6177C1.8621 9.72906 0.75 7.9944 0.75 6V5C0.75 4.30964 1.30964 3.75 2 3.75C2.69036 3.75 3.25 4.30964 3.25 5V6C3.25 6.76436 3.56185 7.45589 4.06526 7.95429C3.70264 8.7271 3.5 9.58988 3.5 10.5V10.6177Z" fill="black"/>
</svg>
