<svg width="24" height="24" viewBox="0 0 24 24" fill="none" xmlns="http://www.w3.org/2000/svg">
<path d="M12 2C10.3431 2 9 3.34315 9 5V5.52469C9.16445 5.50836 9.33125 5.5 9.5 5.5H14.5C14.6687 5.5 14.8355 5.50836 15 5.52469V5C15 3.34315 13.6569 2 12 2Z" fill="black"/>
<path d="M17.7823 9.28209C17.2876 7.94953 16.0047 7 14.5 7H9.5C7.99529 7 6.71236 7.94953 6.21772 9.28209C6.07693 9.66138 6 10.0717 6 10.5V15C6 15.4328 6.04583 15.8549 6.13289 16.2617C6.22617 16.6976 6.36677 17.1158 6.54906 17.5109C7.4994 19.5706 9.58277 21 12 21C14.4172 21 16.5006 19.5706 17.4509 17.5109C17.6332 17.1158 17.7738 16.6976 17.8671 16.2617C17.9542 15.8549 18 15.4328 18 15V10.5C18 10.0717 17.9231 9.66139 17.7823 9.28209Z" fill="black"/>
<path d="M19.5 10.5083V10.5C19.5 9.97481 19.419 9.46853 19.2689 8.99297C20.4333 8.49869 21.25 7.34472 21.25 6V5C21.25 4.58579 21.5858 4.25 22 4.25C22.4142 4.25 22.75 4.58579 22.75 5V6C22.75 8.09919 21.3883 9.88033 19.5 10.5083Z" fill="black"/>
<path d="M19.5 12.75V14.25H22C22.4142 14.25 22.75 13.9142 22.75 13.5C22.75 13.0858 22.4142 12.75 22 12.75H19.5Z" fill="black"/>
<path d="M19.3604 16.4477C19.263 16.9458 19.1163 17.4262 18.9256 17.8837C20.2696 18.2823 21.25 19.5266 21.25 21V22C21.25 22.4142 21.5858 22.75 22 22.75C22.4142 22.75 22.75 22.4142 22.75 22V21C22.75 18.8494 21.3208 17.0327 19.3604 16.4477Z" fill="black"/>
<path d="M5.07442 17.8837C4.88371 17.4262 4.73701 16.9458 4.6396 16.4477C2.67919 17.0327 1.25 18.8494 1.25 21V22C1.25 22.4142 1.58579 22.75 2 22.75C2.41421 22.75 2.75 22.4142 2.75 22V21C2.75 19.5266 3.73041 18.2823 5.07442 17.8837Z" fill="black"/>
<path d="M4.5 14.25V12.75H2C1.58579 12.75 1.25 13.0858 1.25 13.5C1.25 13.9142 1.58579 14.25 2 14.25H4.5Z" fill="black"/>
<path d="M4.5 10.5083V10.5C4.5 9.97481 4.58097 9.46853 4.73111 8.99297C3.56668 8.49869 2.75 7.34472 2.75 6V5C2.75 4.58579 2.41421 4.25 2 4.25C1.58579 4.25 1.25 4.58579 1.25 5V6C1.25 8.09919 2.61171 9.88033 4.5 10.5083Z" fill="black"/>
</svg>
