<svg width="24" height="24" viewBox="0 0 24 24" fill="none" xmlns="http://www.w3.org/2000/svg">
<path fill-rule="evenodd" clip-rule="evenodd" d="M8.5 5C8.5 3.067 10.067 1.5 12 1.5C13.933 1.5 15.5 3.067 15.5 5V6.62602C16.8992 6.98615 18.0021 8.08431 18.369 9.48078C20.1285 9.29643 21.5 7.80837 21.5 6V5C21.5 4.72386 21.7239 4.5 22 4.5C22.2761 4.5 22.5 4.72386 22.5 5V6C22.5 8.31631 20.7499 10.2239 18.4999 10.4725C18.5 10.4817 18.5 10.4908 18.5 10.5V13H22C22.2761 13 22.5 13.2239 22.5 13.5C22.5 13.7761 22.2761 14 22 14H18.5V15C18.5 15.5204 18.4389 16.0264 18.3234 16.5114C20.6577 16.6772 22.5 18.6234 22.5 21V22C22.5 22.2761 22.2761 22.5 22 22.5C21.7239 22.5 21.5 22.2761 21.5 22V21C21.5 19.0676 19.934 17.501 18.0018 17.5C17.0223 19.849 14.7039 21.5 12 21.5C9.29605 21.5 6.97773 19.849 5.99816 17.5C4.06601 17.501 2.5 19.0676 2.5 21V22C2.5 22.2761 2.27614 22.5 2 22.5C1.72386 22.5 1.5 22.2761 1.5 22V21C1.5 18.6234 3.34229 16.6772 5.67665 16.5114C5.56115 16.0264 5.5 15.5204 5.5 15V14H2C1.72386 14 1.5 13.7761 1.5 13.5C1.5 13.2239 1.72386 13 2 13H5.5V10.5C5.5 10.4908 5.50003 10.4817 5.50009 10.4725C3.25007 10.2239 1.5 8.31631 1.5 6V5C1.5 4.72386 1.72386 4.5 2 4.5C2.27614 4.5 2.5 4.72386 2.5 5V6C2.5 7.80837 3.87146 9.29643 5.63102 9.48078C5.9979 8.08431 7.1008 6.98615 8.5 6.62602V5ZM6.5 15C6.5 18.0376 8.96243 20.5 12 20.5C15.0376 20.5 17.5 18.0376 17.5 15V10.5C17.5 8.84315 16.1569 7.5 14.5 7.5H9.5C7.84315 7.5 6.5 8.84315 6.5 10.5V15ZM14.5 5V6.5H9.5V5C9.5 3.61929 10.6193 2.5 12 2.5C13.3807 2.5 14.5 3.61929 14.5 5Z" fill="black"/>
</svg>
