<svg width="24" height="24" viewBox="0 0 24 24" fill="none" xmlns="http://www.w3.org/2000/svg">
<path d="M12 2C10.3431 2 9 3.34315 9 5V6.53095C9.1638 6.51052 9.33067 6.5 9.5 6.5H14.5C14.6693 6.5 14.8362 6.51052 15 6.53095V5C15 3.34315 13.6569 2 12 2Z" fill="black"/>
<path d="M17.9221 9.76237C17.5835 8.18359 16.1799 7 14.5 7H9.5C7.82005 7 6.41654 8.18359 6.07787 9.76237C6.04381 9.92113 6.02052 10.0839 6.0088 10.2498C6.00297 10.3325 6 10.4159 6 10.5V15C6 18.3137 8.68629 21 12 21C15.3137 21 18 18.3137 18 15V10.5C18 10.4159 17.997 10.3325 17.9912 10.2498C17.9795 10.0839 17.9562 9.92113 17.9221 9.76237Z" fill="black"/>
<path d="M18.4905 10.222C18.4789 10.0536 18.457 9.88815 18.4252 9.72616C20.2961 9.51502 21.75 7.9273 21.75 6V5C21.75 4.86193 21.8619 4.75 22 4.75C22.1381 4.75 22.25 4.86193 22.25 5V6C22.25 8.18132 20.6067 9.97883 18.4905 10.222Z" fill="black"/>
<path d="M18.5 13.25V13.75H22C22.1381 13.75 22.25 13.6381 22.25 13.5C22.25 13.3619 22.1381 13.25 22 13.25H18.5Z" fill="black"/>
<path d="M18.0996 17.2513C18.1592 17.0897 18.2126 16.9251 18.2595 16.7578C20.4859 16.8919 22.25 18.7399 22.25 21V22C22.25 22.1381 22.1381 22.25 22 22.25C21.8619 22.25 21.75 22.1381 21.75 22V21C21.75 18.9622 20.1246 17.3041 18.0996 17.2513Z" fill="black"/>
<path d="M5.74047 16.7578C5.78736 16.9251 5.84078 17.0897 5.90044 17.2513C3.87539 17.3041 2.25 18.9622 2.25 21V22C2.25 22.1381 2.13807 22.25 2 22.25C1.86193 22.25 1.75 22.1381 1.75 22V21C1.75 18.7399 3.51412 16.8919 5.74047 16.7578Z" fill="black"/>
<path d="M5.5 13.75V13.25H2C1.86193 13.25 1.75 13.3619 1.75 13.5C1.75 13.6381 1.86193 13.75 2 13.75H5.5Z" fill="black"/>
<path d="M5.50951 10.222C5.52107 10.0536 5.54304 9.88815 5.5748 9.72616C3.70393 9.51502 2.25 7.9273 2.25 6V5C2.25 4.86193 2.13807 4.75 2 4.75C1.86193 4.75 1.75 4.86193 1.75 5V6C1.75 8.18132 3.39334 9.97883 5.50951 10.222Z" fill="black"/>
</svg>
