<svg width="24" height="24" viewBox="0 0 24 24" fill="none" xmlns="http://www.w3.org/2000/svg">
<path fill-rule="evenodd" clip-rule="evenodd" d="M8 5C8 2.79086 9.79086 1 12 1C14.2091 1 16 2.79086 16 5V6.25606C17.2501 6.6979 18.2466 7.67643 18.7128 8.91479C20.0256 8.59486 21 7.41123 21 6V5C21 4.44772 21.4477 4 22 4C22.5523 4 23 4.44772 23 5V6C23 8.41896 21.2822 10.4367 19 10.9V12.5H22C22.5523 12.5 23 12.9477 23 13.5C23 14.0523 22.5523 14.5 22 14.5H19V15C19 15.3686 18.9715 15.7306 18.9166 16.0838C21.2403 16.5143 23 18.5517 23 21V22C23 22.5523 22.5523 23 22 23C21.4477 23 21 22.5523 21 22V21C21 19.4507 19.8256 18.1757 18.3184 18.0167C17.1915 20.3726 14.7858 22 12 22C9.21418 22 6.80845 20.3726 5.68159 18.0167C4.17443 18.1757 3 19.4507 3 21V22C3 22.5523 2.55228 23 2 23C1.44772 23 1 22.5523 1 22V21C1 18.5517 2.75974 16.5143 5.0834 16.0838C5.02849 15.7306 5 15.3686 5 15V14.5H2C1.44772 14.5 1 14.0523 1 13.5C1 12.9477 1.44772 12.5 2 12.5H5V10.9C2.71776 10.4367 1 8.41896 1 6V5C1 4.44772 1.44772 4 2 4C2.55228 4 3 4.44772 3 5V6C3 7.41123 3.97442 8.59486 5.28715 8.91479C5.75335 7.67643 6.74992 6.6979 8 6.25606V5ZM7 15C7 17.7614 9.23858 20 12 20C14.7614 20 17 17.7614 17 15V10.5C17 9.11929 15.8807 8 14.5 8H9.5C8.11929 8 7 9.11929 7 10.5V15ZM14 5V6H10V5C10 3.89543 10.8954 3 12 3C13.1046 3 14 3.89543 14 5Z" fill="black"/>
</svg>
