<svg width="24" height="24" viewBox="0 0 24 24" fill="none" xmlns="http://www.w3.org/2000/svg">
<path fill-rule="evenodd" clip-rule="evenodd" d="M2.91429 7.5012C1.29707 7.54657 0 8.87181 0 10.5C0 11.1531 0.208691 11.7574 0.563025 12.25C0.208691 12.7426 0 13.3469 0 14C0 15.5745 1.21294 16.8657 2.7554 16.9902C2.88093 19.7782 5.181 22 8 22H16C18.819 22 21.1191 19.7782 21.2446 16.9902C22.7871 16.8657 24 15.5745 24 14C24 13.3469 23.7913 12.7426 23.437 12.25C23.7913 11.7574 24 11.1531 24 10.5C24 8.87181 22.7029 7.54657 21.0857 7.5012C19.7429 4.04822 16.4106 1.75 12.6754 1.75H11.3246C7.58936 1.75 4.25712 4.04822 2.91429 7.5012ZM21 13.5H3C2.72386 13.5 2.5 13.7239 2.5 14C2.5 14.2761 2.72386 14.5 3 14.5H21C21.2761 14.5 21.5 14.2761 21.5 14C21.5 13.7239 21.2761 13.5 21 13.5ZM3 11H21C21.2761 11 21.5 10.7761 21.5 10.5C21.5 10.2239 21.2761 10 21 10H3C2.72386 10 2.5 10.2239 2.5 10.5C2.5 10.7761 2.72386 11 3 11ZM13.75 4.75C13.75 5.44036 13.1904 6 12.5 6C11.8096 6 11.25 5.44036 11.25 4.75C11.25 4.05964 11.8096 3.5 12.5 3.5C13.1904 3.5 13.75 4.05964 13.75 4.75ZM9 5.75C9 6.44036 8.44036 7 7.75 7C7.05964 7 6.5 6.44036 6.5 5.75C6.5 5.05964 7.05964 4.5 7.75 4.5C8.44036 4.5 9 5.05964 9 5.75ZM16.75 7C17.4404 7 18 6.44036 18 5.75C18 5.05964 17.4404 4.5 16.75 4.5C16.0596 4.5 15.5 5.05964 15.5 5.75C15.5 6.44036 16.0596 7 16.75 7ZM14 17.25V17H11V17.25C11 18.0784 11.6716 18.75 12.5 18.75C13.3284 18.75 14 18.0784 14 17.25ZM9 17H6V18.25C6 19.0784 6.67157 19.75 7.5 19.75C8.32843 19.75 9 19.0784 9 18.25V17Z" fill="black"/>
</svg>
