<svg width="24" height="24" viewBox="0 0 24 24" fill="none" xmlns="http://www.w3.org/2000/svg">
<path fill-rule="evenodd" clip-rule="evenodd" d="M2.8217 8.75H2.5C1.5335 8.75 0.75 9.5335 0.75 10.5C0.75 11.1366 1.0899 11.6938 1.5981 12C1.0899 12.3062 0.75 12.8634 0.75 13.5C0.75 14.4665 1.5335 15.25 2.5 15.25H2.75585C2.88634 18.0334 5.18431 20.25 8 20.25H16C18.8157 20.25 21.1137 18.0334 21.2442 15.25H21.5C22.4665 15.25 23.25 14.4665 23.25 13.5C23.25 12.8634 22.9101 12.3062 22.4019 12C22.9101 11.6938 23.25 11.1366 23.25 10.5C23.25 9.5335 22.4665 8.75 21.5 8.75H21.1783C19.9015 5.15905 16.4996 2.75 12.6754 2.75H11.3246C7.50036 2.75 4.09854 5.15905 2.8217 8.75ZM2.5 9.25C1.80964 9.25 1.25 9.80964 1.25 10.5C1.25 11.1904 1.80964 11.75 2.5 11.75H21.5C22.1904 11.75 22.75 11.1904 22.75 10.5C22.75 9.80964 22.1904 9.25 21.5 9.25H2.5ZM21.5 12.25H2.5C1.80964 12.25 1.25 12.8096 1.25 13.5C1.25 14.1904 1.80964 14.75 2.5 14.75H21.5C22.1904 14.75 22.75 14.1904 22.75 13.5C22.75 12.8096 22.1904 12.25 21.5 12.25ZM13.25 5.75C13.25 6.02614 13.0261 6.25 12.75 6.25C12.4739 6.25 12.25 6.02614 12.25 5.75C12.25 5.47386 12.4739 5.25 12.75 5.25C13.0261 5.25 13.25 5.47386 13.25 5.75ZM8.25 6.75C8.25 7.02614 8.02614 7.25 7.75 7.25C7.47386 7.25 7.25 7.02614 7.25 6.75C7.25 6.47386 7.47386 6.25 7.75 6.25C8.02614 6.25 8.25 6.47386 8.25 6.75ZM16.75 7.25C17.0261 7.25 17.25 7.02614 17.25 6.75C17.25 6.47386 17.0261 6.25 16.75 6.25C16.4739 6.25 16.25 6.47386 16.25 6.75C16.25 7.02614 16.4739 7.25 16.75 7.25ZM14 15.25H11V15.5C11 16.3284 11.6716 17 12.5 17C13.3284 17 14 16.3284 14 15.5V15.25ZM9 15.25H6V16.5C6 17.3284 6.67157 18 7.5 18C8.32843 18 9 17.3284 9 16.5V15.25Z" fill="black"/>
</svg>
