<svg width="24" height="24" viewBox="0 0 24 24" fill="none" xmlns="http://www.w3.org/2000/svg">
<path d="M12.75 6.25C13.0261 6.25 13.25 6.02614 13.25 5.75C13.25 5.47386 13.0261 5.25 12.75 5.25C12.4739 5.25 12.25 5.47386 12.25 5.75C12.25 6.02614 12.4739 6.25 12.75 6.25Z" fill="black"/>
<path d="M7.75 7.25C8.02614 7.25 8.25 7.02614 8.25 6.75C8.25 6.47386 8.02614 6.25 7.75 6.25C7.47386 6.25 7.25 6.47386 7.25 6.75C7.25 7.02614 7.47386 7.25 7.75 7.25Z" fill="black"/>
<path d="M17.25 6.75C17.25 7.02614 17.0261 7.25 16.75 7.25C16.4739 7.25 16.25 7.02614 16.25 6.75C16.25 6.47386 16.4739 6.25 16.75 6.25C17.0261 6.25 17.25 6.47386 17.25 6.75Z" fill="black"/>
<path fill-rule="evenodd" clip-rule="evenodd" d="M2.5 8.75H2.8217C4.09854 5.15905 7.50036 2.75 11.3246 2.75H12.6754C16.4996 2.75 19.9015 5.15905 21.1783 8.75H21.5C22.4665 8.75 23.25 9.5335 23.25 10.5C23.25 11.1366 22.9101 11.6938 22.4019 12C22.9101 12.3062 23.25 12.8634 23.25 13.5C23.25 14.4665 22.4665 15.25 21.5 15.25H21.2442C21.1137 18.0334 18.8157 20.25 16 20.25H8C5.18431 20.25 2.88634 18.0334 2.75585 15.25H2.5C1.5335 15.25 0.75 14.4665 0.75 13.5C0.75 12.8634 1.0899 12.3062 1.5981 12C1.0899 11.6938 0.75 11.1366 0.75 10.5C0.75 9.5335 1.5335 8.75 2.5 8.75ZM20.6457 8.75H3.35434C4.60541 5.45085 7.77204 3.25 11.3246 3.25H12.6754C16.228 3.25 19.3946 5.45085 20.6457 8.75ZM21.5 9.25C22.1904 9.25 22.75 9.80964 22.75 10.5C22.75 11.1904 22.1904 11.75 21.5 11.75H2.5C1.80964 11.75 1.25 11.1904 1.25 10.5C1.25 9.80964 1.80964 9.25 2.5 9.25H21.5ZM2.5 12.25H21.5C22.1904 12.25 22.75 12.8096 22.75 13.5C22.75 14.1904 22.1904 14.75 21.5 14.75H2.5C1.80964 14.75 1.25 14.1904 1.25 13.5C1.25 12.8096 1.80964 12.25 2.5 12.25ZM10.75 15.25H9.25V16.5C9.25 17.4665 8.4665 18.25 7.5 18.25C6.5335 18.25 5.75 17.4665 5.75 16.5V15.25H3.25647C3.38647 17.7571 5.46051 19.75 8 19.75H16C18.5395 19.75 20.6135 17.7571 20.7435 15.25H14.25V15.5C14.25 16.4665 13.4665 17.25 12.5 17.25C11.5335 17.25 10.75 16.4665 10.75 15.5V15.25ZM11.25 15.25V15.5C11.25 16.1904 11.8096 16.75 12.5 16.75C13.1904 16.75 13.75 16.1904 13.75 15.5V15.25H11.25ZM6.25 15.25H8.75V16.5C8.75 17.1904 8.19036 17.75 7.5 17.75C6.80964 17.75 6.25 17.1904 6.25 16.5V15.25Z" fill="black"/>
</svg>
