<svg width="24" height="24" viewBox="0 0 24 24" fill="none" xmlns="http://www.w3.org/2000/svg">
<path fill-rule="evenodd" clip-rule="evenodd" d="M3.01634 8.25H2.5C1.25736 8.25 0.25 9.25736 0.25 10.5C0.25 11.0763 0.466641 11.6019 0.822922 12C0.466641 12.3981 0.25 12.9237 0.25 13.5C0.25 14.7426 1.25736 15.75 2.5 15.75H2.80317C3.16709 18.2942 5.35515 20.25 8 20.25H16C18.6449 20.25 20.8329 18.2942 21.1968 15.75H21.5C22.7426 15.75 23.75 14.7426 23.75 13.5C23.75 12.9237 23.5334 12.3981 23.1771 12C23.5334 11.6019 23.75 11.0763 23.75 10.5C23.75 9.25736 22.7426 8.25 21.5 8.25H20.9837C19.5797 4.93721 16.3193 2.75 12.6754 2.75H11.3246C7.68069 2.75 4.42032 4.93721 3.01634 8.25ZM21.5 12.75H2.5C2.08579 12.75 1.75 13.0858 1.75 13.5C1.75 13.9142 2.08579 14.25 2.5 14.25H21.5C21.9142 14.25 22.25 13.9142 22.25 13.5C22.25 13.0858 21.9142 12.75 21.5 12.75ZM2.5 11.25H21.5C21.9142 11.25 22.25 10.9142 22.25 10.5C22.25 10.0858 21.9142 9.75 21.5 9.75H2.5C2.08579 9.75 1.75 10.0858 1.75 10.5C1.75 10.9142 2.08579 11.25 2.5 11.25ZM13.5 5.75C13.5 6.30228 13.0523 6.75 12.5 6.75C11.9477 6.75 11.5 6.30228 11.5 5.75C11.5 5.19772 11.9477 4.75 12.5 4.75C13.0523 4.75 13.5 5.19772 13.5 5.75ZM8.75 6.75C8.75 7.30228 8.30228 7.75 7.75 7.75C7.19772 7.75 6.75 7.30228 6.75 6.75C6.75 6.19772 7.19772 5.75 7.75 5.75C8.30228 5.75 8.75 6.19772 8.75 6.75ZM16.75 7.75C17.3023 7.75 17.75 7.30228 17.75 6.75C17.75 6.19772 17.3023 5.75 16.75 5.75C16.1977 5.75 15.75 6.19772 15.75 6.75C15.75 7.30228 16.1977 7.75 16.75 7.75ZM12.5 17C13.2432 17 13.8602 16.4594 13.9793 15.75H11.0207C11.1398 16.4594 11.7568 17 12.5 17ZM9 15.75H6V16.5C6 17.3284 6.67157 18 7.5 18C8.32843 18 9 17.3284 9 16.5V15.75Z" fill="black"/>
</svg>
