<svg width="24" height="24" viewBox="0 0 24 24" fill="none" xmlns="http://www.w3.org/2000/svg">
<path fill-rule="evenodd" clip-rule="evenodd" d="M2.74009 21.2066C4.72528 20.2438 6.26309 18.5685 7.05762 16.529C7.7007 18.5661 9.11803 20.2856 11.0237 21.3022L11.6619 21.6427C12.271 21.9677 13.0282 21.7373 13.3532 21.1282C13.6781 20.5191 13.4477 19.7619 12.8386 19.437L12.2004 19.0965C10.8267 18.3637 9.81777 17.1057 9.39503 15.621L9.56432 15.5039C12.0292 13.7993 13.5003 10.9934 13.5003 7.99658V4.86732L13.5003 4.83577C13.5005 4.7301 13.5008 4.58176 13.4839 4.44225C13.3591 3.41457 12.5492 2.60466 11.5215 2.47987C11.382 2.46294 11.2337 2.46322 11.128 2.46343L11.0964 2.46347L2.30875 2.46346C2.25822 2.46341 2.18738 2.46335 2.12037 2.46722C0.979989 2.53318 0.0699952 3.44317 0.0040391 4.58355C0.00016313 4.65057 0.000228815 4.72141 0.000275664 4.77193L0.000285201 7.60542C0.000285201 10.8496 1.7115 13.8531 4.50223 15.5073L4.72186 15.6375C4.15343 17.0847 3.05964 18.2731 1.64918 18.9572L0.704828 19.4151C0.0836667 19.7164 -0.175674 20.4642 0.125574 21.0853C0.426821 21.7065 1.17458 21.9658 1.79574 21.6646L2.74009 21.2066ZM2.50029 4.96347L11.0003 4.96347V7.99658C11.0003 10.1726 9.93211 12.21 8.14236 13.4477L7.56666 13.8458C7.36779 13.9833 7.20326 14.1566 7.07825 14.3529C6.92906 14.12 6.72524 13.9188 6.47499 13.7705L5.77698 13.3568C3.74578 12.1528 2.50029 9.96664 2.50029 7.60542L2.50029 4.96347Z" fill="black"/>
<path d="M15.751 2.75315C16.4413 2.75315 17.001 3.31279 17.001 4.00315V8.50315C17.001 9.1935 16.4414 9.75315 15.751 9.75315C15.0606 9.75315 14.501 9.1935 14.501 8.50315V4.00315C14.501 3.31279 15.0606 2.75315 15.751 2.75315Z" fill="black"/>
<path d="M20.501 4.00315C20.501 3.31279 19.9414 2.75315 19.251 2.75315C18.5606 2.75315 18.001 3.31279 18.001 4.00315V8.50315C18.001 9.1935 18.5606 9.75315 19.251 9.75315C19.9414 9.75315 20.501 9.1935 20.501 8.50315V4.00315Z" fill="black"/>
<path d="M24 4.00315C24 3.31279 23.4404 2.75315 22.75 2.75315C22.0597 2.75315 21.5 3.31279 21.5 4.00315V9.92201C21.5 10.3282 21.2401 10.6888 20.8547 10.8173C19.4485 11.286 18.5 12.602 18.5 14.0843V20.5031C18.5 21.1935 19.0597 21.7531 19.75 21.7531C20.4404 21.7531 21 21.1935 21 20.5031V14.0843C21 13.6781 21.2599 13.3175 21.6453 13.189C23.0515 12.7203 24 11.4043 24 9.92201V4.00315Z" fill="black"/>
</svg>
