<svg width="24" height="24" viewBox="0 0 24 24" fill="none" xmlns="http://www.w3.org/2000/svg">
<path d="M12.6458 4.21364C12.7853 4.21364 12.8155 4.21436 12.8354 4.21649C13.0693 4.24161 13.2541 4.42636 13.2792 4.66025C13.2813 4.68016 13.2821 4.71038 13.2821 4.84984V7.91044C13.2821 10.3787 12.0514 12.6844 10.0009 14.0583L9.40085 14.4602C9.05539 14.6917 8.88421 15.1091 8.96766 15.5164C9.4166 17.7078 10.8326 19.5785 12.8197 20.6055L13.5525 20.9842C13.7978 21.111 14.0995 21.0149 14.2262 20.7696C14.353 20.5243 14.2569 20.2226 14.0116 20.0958L13.2789 19.7171C11.5602 18.8289 10.3356 17.211 9.94731 15.3157C9.94536 15.3062 9.94937 15.2964 9.95745 15.291L10.5575 14.889C12.8851 13.3296 14.2821 10.7122 14.2821 7.91044L14.2821 4.82698C14.2821 4.7233 14.2821 4.63416 14.2735 4.55347C14.1981 3.85181 13.6439 3.29756 12.9422 3.22221C12.8615 3.21355 12.7724 3.21358 12.6687 3.21363L3.4767 3.21363C3.43206 3.21363 3.39362 3.21362 3.35874 3.21523C2.58463 3.25094 1.96515 3.87042 1.92945 4.64452C1.92784 4.67942 1.92784 4.71781 1.92785 4.76248L1.92785 7.5047C1.92785 10.5429 3.55241 13.3492 6.1871 14.8622L6.91576 15.2806C6.94183 15.2956 6.95407 15.3266 6.94524 15.3553C6.37116 17.2235 5.03528 18.7625 3.26646 19.5936L2.21523 20.0875C1.9653 20.2049 1.85789 20.5027 1.97531 20.7526C2.09274 21.0026 2.39055 21.11 2.64048 20.9926L3.69171 20.4986C5.71566 19.5477 7.24424 17.7867 7.90112 15.6491C8.04714 15.1739 7.84482 14.661 7.41375 14.4134L6.68508 13.995C4.36094 12.6603 2.92785 10.1848 2.92785 7.5047V4.77232C2.92785 4.71225 2.92799 4.69921 2.92838 4.6906C2.94029 4.43256 3.14678 4.22607 3.40481 4.21417C3.41342 4.21377 3.42647 4.21364 3.48654 4.21364L12.6458 4.21364Z" fill="black"/>
<path d="M15.9996 3.50331C16.2758 3.50331 16.4996 3.72717 16.4996 4.00331L16.4996 10.0033C16.4996 10.2795 16.2758 10.5033 15.9996 10.5033C15.7235 10.5033 15.4996 10.2795 15.4996 10.0033L15.4996 4.00331C15.4996 3.72717 15.7235 3.50331 15.9996 3.50331Z" fill="black"/>
<path d="M22.4996 4.00331C22.4996 3.72717 22.2758 3.50331 21.9996 3.50331C21.7235 3.50331 21.4996 3.72717 21.4996 4.00331V10.0618C21.4996 10.7074 21.0865 11.2806 20.474 11.4848L20.2091 11.5731C19.1882 11.9134 18.4996 12.8688 18.4996 13.9448V20.5033C18.4996 20.7795 18.7235 21.0033 18.9996 21.0033C19.2758 21.0033 19.4996 20.7795 19.4996 20.5033V13.9448C19.4996 13.2992 19.9128 12.726 20.5253 12.5218L20.7902 12.4335C21.8111 12.0932 22.4996 11.1379 22.4996 10.0618V4.00331Z" fill="black"/>
<path d="M19.4996 4.00332C19.4996 3.72717 19.2758 3.50332 18.9996 3.50332C18.7235 3.50332 18.4996 3.72717 18.4996 4.00332L18.4996 10.0033C18.4996 10.2795 18.7235 10.5033 18.9996 10.5033C19.2758 10.5033 19.4996 10.2795 19.4996 10.0033L19.4996 4.00332Z" fill="black"/>
</svg>
