<svg width="24" height="24" viewBox="0 0 24 24" fill="none" xmlns="http://www.w3.org/2000/svg">
<path d="M12.6463 4.46292C12.7123 4.46292 12.7516 4.46295 12.7812 4.4635C12.8001 4.46386 12.8083 4.46434 12.8103 4.46447C12.9263 4.47745 13.018 4.56907 13.0309 4.68512C13.0311 4.68709 13.0315 4.69531 13.0319 4.71416C13.0325 4.74382 13.0325 4.78311 13.0325 4.84913V7.90973C13.0325 10.2946 11.8434 12.5224 9.86213 13.8498L9.26213 14.2518C8.83232 14.5398 8.61934 15.0591 8.72317 15.5659C9.18728 17.8313 10.6511 19.7652 12.7054 20.8269L13.4381 21.2056C13.8061 21.3958 14.2586 21.2516 14.4488 20.8837C14.6389 20.5157 14.4948 20.0632 14.1268 19.873L13.3941 19.4943C11.7874 18.6639 10.6299 17.1699 10.2248 15.4124L10.697 15.096C13.094 13.4901 14.5325 10.7949 14.5325 7.90973L14.5325 4.82292C14.5326 4.72381 14.5327 4.6209 14.5225 4.52606C14.4346 3.70746 13.7879 3.06083 12.9693 2.97292C12.8745 2.96274 12.7716 2.96282 12.6725 2.96291L3.47567 2.96292C3.43297 2.9629 3.38866 2.96289 3.34764 2.96478C2.44452 3.00644 1.72179 3.72916 1.68014 4.63228C1.67824 4.6733 1.67826 4.71761 1.67828 4.76031L1.67828 7.50399C1.67828 10.6317 3.35071 13.5207 6.06302 15.0783L6.6617 15.422C6.08557 17.1592 4.82094 18.5865 3.16057 19.3666L2.10934 19.8605C1.73445 20.0366 1.57333 20.4833 1.74947 20.8582C1.92561 21.2331 2.37232 21.3943 2.74721 21.2181L3.79844 20.7242C5.88618 19.7433 7.46294 17.9268 8.14052 15.7218C8.32083 15.135 8.07099 14.5016 7.53867 14.1959L6.81 13.7775C4.56349 12.4874 3.17828 10.0946 3.17828 7.50399V4.77161L3.17839 4.71346L3.17857 4.70091C3.18475 4.57233 3.28757 4.46946 3.41614 4.46321L3.42882 4.46303L3.48697 4.46292L12.6463 4.46292Z" fill="black"/>
<path d="M16.0001 3.2526C16.4143 3.2526 16.7501 3.58838 16.7501 4.0026L16.7501 10.0026C16.7501 10.4168 16.4143 10.7526 16.0001 10.7526C15.5858 10.7526 15.2501 10.4168 15.2501 10.0026L15.2501 4.0026C15.2501 3.58838 15.5858 3.2526 16.0001 3.2526Z" fill="black"/>
<path d="M22.7501 4.00259C22.7501 3.58838 22.4143 3.25259 22.0001 3.25259C21.5858 3.25259 21.2501 3.58838 21.2501 4.00259V10.0611C21.2501 10.5991 20.9058 11.0768 20.3953 11.2469L20.1304 11.3352C19.0075 11.7095 18.2501 12.7604 18.2501 13.9441V20.5026C18.2501 20.9168 18.5858 21.2526 19.0001 21.2526C19.4143 21.2526 19.7501 20.9168 19.7501 20.5026V13.9441C19.7501 13.4061 20.0943 12.9284 20.6048 12.7583L20.8697 12.67C21.9926 12.2956 22.7501 11.2448 22.7501 10.0611V4.00259Z" fill="black"/>
<path d="M19.7501 4.0026C19.7501 3.58838 19.4143 3.2526 19.0001 3.2526C18.5858 3.2526 18.2501 3.58838 18.2501 4.0026L18.2501 10.0026C18.2501 10.4168 18.5858 10.7526 19.0001 10.7526C19.4143 10.7526 19.7501 10.4168 19.7501 10.0026L19.7501 4.0026Z" fill="black"/>
</svg>
