<svg width="24" height="24" viewBox="0 0 24 24" fill="none" xmlns="http://www.w3.org/2000/svg">
<path fill-rule="evenodd" clip-rule="evenodd" d="M7.38138 15.7953C7.42473 15.6542 7.4472 15.5108 7.45021 15.3689C7.4534 15.4511 7.46328 15.5337 7.48015 15.6161C7.95942 17.9555 9.47109 19.9526 11.5925 21.049L12.3252 21.4277C12.8159 21.6813 13.4192 21.4891 13.6727 20.9985C13.9263 20.5078 13.7341 19.9045 13.2435 19.651L12.5108 19.2723C11.0203 18.502 9.9329 17.1364 9.5112 15.5227L9.83807 15.3037C12.3043 13.6514 13.7844 10.8783 13.7844 7.90975L13.7844 4.8215C13.7845 4.72553 13.7847 4.60855 13.7729 4.49939C13.6725 3.56384 12.9335 2.82484 11.9979 2.72437C11.8888 2.71265 11.7718 2.7128 11.6758 2.71292L2.47694 2.71294C2.43559 2.71291 2.38523 2.71289 2.33801 2.71506C1.30588 2.76267 0.479902 3.58865 0.432293 4.62078C0.430115 4.668 0.430142 4.71836 0.430164 4.75971L0.430168 7.50401C0.430168 10.7213 2.15047 13.6929 4.94042 15.2951L5.35917 15.5355C4.77723 17.1206 3.59275 18.4184 2.05615 19.1403L1.00492 19.6343C0.505061 19.8691 0.290234 20.4647 0.525091 20.9646C0.759948 21.4644 1.35555 21.6793 1.85542 21.4444L2.90664 20.9505C5.05817 19.9396 6.6831 18.0676 7.38138 15.7953ZM11.6482 4.71294C11.7151 4.71294 11.7517 4.71298 11.7785 4.71348L11.7837 4.71359L11.7838 4.71885C11.7843 4.74563 11.7844 4.78221 11.7844 4.84915V7.90975C11.7844 10.2112 10.6369 12.3612 8.72488 13.6422L8.12487 14.0442C7.70678 14.3243 7.4602 14.7874 7.44944 15.2766C7.42941 14.7497 7.14283 14.2535 6.66506 13.9791L5.93639 13.5607C3.76751 12.3152 2.43017 10.0051 2.43017 7.50401V4.77163L2.43027 4.71549L2.43029 4.71306L2.43272 4.71304L2.48886 4.71294L11.6482 4.71294Z" fill="black"/>
<path d="M16.4996 3.00261C17.0519 3.00261 17.4996 3.45033 17.4996 4.00261V9.00261C17.4996 9.5549 17.0519 10.0026 16.4996 10.0026C15.9473 10.0026 15.4996 9.5549 15.4996 9.00261V4.00261C15.4996 3.45033 15.9473 3.00261 16.4996 3.00261Z" fill="black"/>
<path d="M23.4996 4.00261C23.4996 3.45033 23.0519 3.00261 22.4996 3.00261C21.9473 3.00261 21.4996 3.45033 21.4996 4.00261V10.0611C21.4996 10.4915 21.2242 10.8737 20.8158 11.0098L20.5509 11.0981C19.3259 11.5064 18.4996 12.6528 18.4996 13.9441V20.5026C18.4996 21.0549 18.9473 21.5026 19.4996 21.5026C20.0519 21.5026 20.4996 21.0549 20.4996 20.5026V13.9441C20.4996 13.5137 20.7751 13.1316 21.1834 12.9955L21.4483 12.9071C22.6733 12.4988 23.4996 11.3524 23.4996 10.0611V4.00261Z" fill="black"/>
<path d="M20.4996 4.00262C20.4996 3.45033 20.0519 3.00262 19.4996 3.00262C18.9473 3.00262 18.4996 3.45033 18.4996 4.00262V9.00262C18.4996 9.5549 18.9473 10.0026 19.4996 10.0026C20.0519 10.0026 20.4996 9.5549 20.4996 9.00262V4.00262Z" fill="black"/>
</svg>
