<svg width="24" height="24" viewBox="0 0 24 24" fill="none" xmlns="http://www.w3.org/2000/svg">
<path fill-rule="evenodd" clip-rule="evenodd" d="M14.75 2.75L9.25 2.75V1.5C9.25 0.809645 8.69036 0.25 8 0.25C7.30965 0.25 6.75 0.809645 6.75 1.5V2.77534C6.31018 2.79268 5.90694 2.82187 5.54163 2.87098C4.58608 2.99945 3.7051 3.28449 2.9948 3.9948C2.2845 4.7051 1.99946 5.58607 1.87099 6.54162C1.7499 7.44222 1.74995 8.57331 1.75 9.91484V16.0852C1.74995 17.4267 1.7499 18.5578 1.87099 19.4584C1.99946 20.4139 2.2845 21.2949 2.9948 22.0052C3.7051 22.7155 4.58608 23.0005 5.54163 23.129C6.4422 23.2501 7.57324 23.2501 8.91471 23.25H15.0852C16.4266 23.2501 17.5578 23.2501 18.4584 23.129C19.4139 23.0005 20.2949 22.7155 21.0052 22.0052C21.7155 21.2949 22.0006 20.4139 22.129 19.4584C22.2501 18.5578 22.2501 17.4268 22.25 16.0853V9.91483C22.2501 8.57334 22.2501 7.4422 22.129 6.54163C22.0006 5.58607 21.7155 4.7051 21.0052 3.9948C20.2949 3.2845 19.4139 2.99945 18.4584 2.87098C18.0931 2.82187 17.6898 2.79268 17.25 2.77534V1.5C17.25 0.809645 16.6904 0.25 16 0.25C15.3096 0.25 14.75 0.809645 14.75 1.5V2.75ZM14.75 5.25L9.25 5.25V6C9.25 6.69036 8.69036 7.25 8 7.25C7.30965 7.25 6.75 6.69036 6.75 6V5.2772C6.41903 5.2918 6.13099 5.31424 5.87475 5.34869C5.19642 5.43989 4.93095 5.59419 4.76257 5.76256C4.59419 5.93094 4.43989 6.19641 4.34869 6.87474C4.2834 7.36036 4.26127 7.9602 4.2538 8.75H19.7462C19.7387 7.9602 19.7166 7.36036 19.6513 6.87474C19.5601 6.19641 19.4058 5.93094 19.2374 5.76256C19.0691 5.59418 18.8036 5.43989 18.1253 5.34869C17.869 5.31424 17.581 5.29181 17.25 5.2772V6C17.25 6.69036 16.6904 7.25 16 7.25C15.3096 7.25 14.75 6.69036 14.75 6V5.25ZM19.75 11.25V16C19.75 17.4496 19.7473 18.411 19.6513 19.1253C19.5601 19.8036 19.4058 20.0691 19.2374 20.2374C19.0691 20.4058 18.8036 20.5601 18.1253 20.6513C17.411 20.7473 16.4496 20.75 15 20.75H9C7.55045 20.75 6.58904 20.7473 5.87475 20.6513C5.19642 20.5601 4.93095 20.4058 4.76257 20.2374C4.59419 20.0691 4.43989 19.8036 4.34869 19.1253C4.25266 18.411 4.25 17.4496 4.25 16V11.25H19.75Z" fill="black"/>
</svg>
