<svg width="24" height="24" viewBox="0 0 24 24" fill="none" xmlns="http://www.w3.org/2000/svg">
<path fill-rule="evenodd" clip-rule="evenodd" d="M15 3L9 3L9 1.5C9 0.947716 8.55229 0.5 8 0.5C7.44772 0.5 7 0.947716 7 1.5V3.01692C6.4716 3.03241 5.99675 3.06204 5.57494 3.11875C4.64711 3.2435 3.82769 3.51547 3.17158 4.17157C2.51547 4.82768 2.2435 5.64711 2.11876 6.57494C1.99994 7.45868 1.99997 8.57528 2 9.92939L2 16.0706C1.99997 17.4247 1.99994 18.5413 2.11876 19.4251C2.2435 20.3529 2.51547 21.1723 3.17158 21.8284C3.82769 22.4845 4.64711 22.7565 5.57494 22.8812C6.45869 23.0001 7.57529 23 8.92939 23H15.0705C16.4247 23 17.5413 23.0001 18.4251 22.8812C19.3529 22.7565 20.1723 22.4845 20.8284 21.8284C21.4845 21.1723 21.7565 20.3529 21.8813 19.4251C22.0001 18.5413 22 17.4247 22 16.0706V9.92946C22 8.57536 22.0001 7.45869 21.8813 6.57494C21.7565 5.64711 21.4845 4.82768 20.8284 4.17157C20.1723 3.51546 19.3529 3.2435 18.4251 3.11875C18.0033 3.06204 17.5284 3.03241 17 3.01692V1.5C17 0.947716 16.5523 0.5 16 0.5C15.4477 0.5 15 0.947716 15 1.5L15 3ZM15 5L9 5L9 6C9 6.55228 8.55229 7 8 7C7.44772 7 7 6.55228 7 6V5.01774C6.55114 5.03168 6.17144 5.05655 5.84144 5.10092C5.13538 5.19585 4.80836 5.36322 4.58579 5.58579C4.36322 5.80836 4.19585 6.13538 4.10092 6.84143C4.02686 7.3923 4.00713 8.08166 4.00189 9H19.9981C19.9929 8.08166 19.9731 7.3923 19.8991 6.84143C19.8042 6.13538 19.6368 5.80836 19.4142 5.58579C19.1916 5.36322 18.8646 5.19584 18.1586 5.10092C17.8286 5.05655 17.4489 5.03168 17 5.01774V6C17 6.55228 16.5523 7 16 7C15.4477 7 15 6.55228 15 6L15 5ZM20 11V16C20 17.4425 19.9979 18.4237 19.8991 19.1586C19.8042 19.8646 19.6368 20.1916 19.4142 20.4142C19.1916 20.6368 18.8646 20.8042 18.1586 20.8991C17.4238 20.9979 16.4425 21 15 21H9C7.55752 21 6.57626 20.9979 5.84144 20.8991C5.13538 20.8042 4.80836 20.6368 4.58579 20.4142C4.36322 20.1916 4.19585 19.8646 4.10092 19.1586C4.00213 18.4237 4 17.4425 4 16V11H20Z" fill="black"/>
</svg>
