<svg width="24" height="24" viewBox="0 0 24 24" fill="none" xmlns="http://www.w3.org/2000/svg">
<path fill-rule="evenodd" clip-rule="evenodd" d="M8.98028 3.75C8.72636 3.75 8.48308 3.75 8.25 3.75067V1.5C8.25 1.36193 8.13807 1.25 8 1.25C7.86193 1.25 7.75 1.36193 7.75 1.5V3.75353C6.92802 3.76118 6.24511 3.7854 5.67487 3.86206C4.83021 3.97563 4.19544 4.20837 3.7019 4.7019C3.20837 5.19544 2.97563 5.83021 2.86206 6.67487C2.75 7.50843 2.75 8.58275 2.75 9.98027L2.75 16.0197C2.75 17.4172 2.75 18.4916 2.86206 19.3251C2.97563 20.1698 3.20837 20.8046 3.7019 21.2981C4.19544 21.7916 4.83021 22.0244 5.67487 22.1379C6.50843 22.25 7.58276 22.25 8.9803 22.25H15.0197C16.4172 22.25 17.4916 22.25 18.3251 22.1379C19.1698 22.0244 19.8046 21.7916 20.2981 21.2981C20.7916 20.8046 21.0244 20.1698 21.1379 19.3251C21.25 18.4916 21.25 17.4173 21.25 16.0197V9.98031C21.25 8.5828 21.25 7.50843 21.1379 6.67487C21.0244 5.83021 20.7916 5.19544 20.2981 4.7019C19.8046 4.20837 19.1698 3.97563 18.3251 3.86206C17.7549 3.7854 17.072 3.76118 16.25 3.75353V1.5C16.25 1.36193 16.1381 1.25 16 1.25C15.8619 1.25 15.75 1.36193 15.75 1.5V3.75067C15.5169 3.75 15.2737 3.75 15.0198 3.75L8.98028 3.75ZM15.75 4.25072C15.5124 4.25002 15.2627 4.25 15 4.25L9 4.25C8.73729 4.25 8.48757 4.25002 8.25 4.25073V6C8.25 6.13807 8.13807 6.25 8 6.25C7.86193 6.25 7.75 6.13807 7.75 6V4.25362C6.93871 4.26121 6.2835 4.28474 5.7415 4.35761C4.95228 4.46371 4.4406 4.67031 4.05546 5.05546C3.67031 5.4406 3.46371 5.95228 3.35761 6.7415C3.25691 7.49046 3.25044 8.45557 3.25003 9.75H20.75C20.7496 8.45557 20.7431 7.49046 20.6424 6.7415C20.5363 5.95228 20.3297 5.4406 19.9445 5.05546C19.5594 4.67031 19.0477 4.46371 18.2585 4.35761C17.7165 4.28474 17.0613 4.26121 16.25 4.25362V6C16.25 6.13807 16.1381 6.25 16 6.25C15.8619 6.25 15.75 6.13807 15.75 6V4.25072ZM20.75 10.25V16C20.75 17.4213 20.7495 18.4621 20.6424 19.2585C20.5363 20.0477 20.3297 20.5594 19.9445 20.9445C19.5594 21.3297 19.0477 21.5363 18.2585 21.6424C17.4621 21.7495 16.4213 21.75 15 21.75H9C7.57872 21.75 6.53791 21.7495 5.7415 21.6424C4.95228 21.5363 4.4406 21.3297 4.05546 20.9445C3.67031 20.5594 3.46371 20.0477 3.35761 19.2585C3.25053 18.4621 3.25 17.4213 3.25 16L3.25 10.25H20.75Z" fill="black"/>
</svg>
