<svg width="24" height="24" viewBox="0 0 24 24" fill="none" xmlns="http://www.w3.org/2000/svg">
<path fill-rule="evenodd" clip-rule="evenodd" d="M7 3.01692C6.4716 3.0324 5.99675 3.06204 5.57494 3.11875C4.64711 3.24349 3.82769 3.51546 3.17158 4.17157C2.51547 4.82768 2.2435 5.6471 2.11876 6.57493C1.99994 7.45868 1.99997 8.57528 2 9.92939L2 16.0706C1.99997 17.4247 1.99994 18.5413 2.11876 19.4251C2.2435 20.3529 2.51547 21.1723 3.17158 21.8284C3.82769 22.4845 4.64711 22.7565 5.57494 22.8812C6.45869 23.0001 7.57529 23 8.92939 23H15.0705C16.4247 23 17.5413 23.0001 18.4251 22.8812C19.3529 22.7565 20.1723 22.4845 20.8284 21.8284C21.4845 21.1723 21.7565 20.3529 21.8813 19.4251C22.0001 18.5413 22 17.4247 22 16.0706V9.92945C22 8.57533 22.0001 7.45869 21.8813 6.57494C21.7565 5.64711 21.4845 4.82768 20.8284 4.17157C20.1723 3.51546 19.3529 3.24349 18.4251 3.11875C18.0033 3.06204 17.5284 3.0324 17 3.01692V1.5C17 0.947716 16.5523 0.5 16 0.5C15.4477 0.5 15 0.947716 15 1.5V3L9 3V1.5C9 0.947716 8.55229 0.5 8 0.5C7.44772 0.5 7 0.947716 7 1.5V3.01692ZM9 5V6C9 6.55228 8.55229 7 8 7C7.44772 7 7 6.55228 7 6V5.01774C6.55114 5.03168 6.17144 5.05655 5.84144 5.10092C5.13538 5.19584 4.80836 5.36321 4.58579 5.58579C4.36322 5.80836 4.19585 6.13538 4.10092 6.84143C4.00794 7.53299 4.00059 8.44284 4.00005 9.75H20C19.9994 8.44284 19.9921 7.53299 19.8991 6.84143C19.8042 6.13538 19.6368 5.80836 19.4142 5.58578C19.1916 5.36321 18.8646 5.19584 18.1586 5.10092C17.8286 5.05655 17.4489 5.03168 17 5.01774V6C17 6.55228 16.5523 7 16 7C15.4477 7 15 6.55228 15 6V5L9 5Z" fill="black"/>
</svg>
