<svg width="24" height="24" viewBox="0 0 24 24" fill="none" xmlns="http://www.w3.org/2000/svg">
<path fill-rule="evenodd" clip-rule="evenodd" d="M8.75 3.25001V1.5C8.75 1.08579 8.41422 0.75 8 0.75C7.58579 0.75 7.25 1.08579 7.25 1.5V3.26075C6.62883 3.2738 6.08322 3.30267 5.60825 3.36652C4.70814 3.48754 3.95027 3.74643 3.34835 4.34835C2.74643 4.95027 2.48754 5.70814 2.36652 6.60825C2.24996 7.47521 2.24998 8.57752 2.25 9.9451L2.25 16.0549C2.24998 17.4225 2.24996 18.5248 2.36652 19.3918C2.48754 20.2919 2.74643 21.0497 3.34835 21.6517C3.95027 22.2536 4.70814 22.5125 5.60825 22.6335C6.47521 22.75 7.57751 22.75 8.94508 22.75H15.0549C16.4224 22.75 17.5248 22.75 18.3918 22.6335C19.2919 22.5125 20.0497 22.2536 20.6517 21.6517C21.2536 21.0497 21.5125 20.2919 21.6335 19.3918C21.75 18.5248 21.75 17.4225 21.75 16.0549V9.94513C21.75 8.57754 21.75 7.47522 21.6335 6.60825C21.5125 5.70814 21.2536 4.95027 20.6517 4.34835C20.0497 3.74643 19.2919 3.48754 18.3918 3.36652C17.9168 3.30267 17.3712 3.2738 16.75 3.26075V1.5C16.75 1.08579 16.4142 0.75 16 0.75C15.5858 0.75 15.25 1.08579 15.25 1.5V3.25001C15.1856 3.25 15.1205 3.25 15.0549 3.25L8.75 3.25001ZM15.25 4.75004C15.1682 4.75001 15.0848 4.75 15 4.75L8.75 4.75004V6C8.75 6.41421 8.41422 6.75 8 6.75C7.58579 6.75 7.25 6.41421 7.25 6V4.76115C6.68098 4.77341 6.2098 4.79914 5.80812 4.85315C5.07435 4.9518 4.68577 5.13225 4.40901 5.40901C4.13225 5.68577 3.9518 6.07435 3.85315 6.80812C3.7703 7.42437 3.75398 8.2042 3.75078 9.25H20.2492C20.246 8.2042 20.2297 7.42437 20.1469 6.80812C20.0482 6.07435 19.8678 5.68577 19.591 5.40901C19.3142 5.13225 18.9257 4.9518 18.1919 4.85315C17.7902 4.79914 17.319 4.77341 16.75 4.76114V6C16.75 6.41421 16.4142 6.75 16 6.75C15.5858 6.75 15.25 6.41421 15.25 6V4.75004ZM20.25 10.75V16C20.25 17.4354 20.2484 18.4365 20.1469 19.1919C20.0482 19.9257 19.8678 20.3142 19.591 20.591C19.3142 20.8678 18.9257 21.0482 18.1919 21.1469C17.4365 21.2484 16.4354 21.25 15 21.25H9C7.56459 21.25 6.56347 21.2484 5.80812 21.1469C5.07435 21.0482 4.68577 20.8678 4.40901 20.591C4.13225 20.3142 3.9518 19.9257 3.85315 19.1919C3.75159 18.4365 3.75 17.4354 3.75 16V10.75H20.25Z" fill="black"/>
</svg>
