<svg width="24" height="24" viewBox="0 0 24 24" fill="none" xmlns="http://www.w3.org/2000/svg">
<path fill-rule="evenodd" clip-rule="evenodd" d="M8.96204 3.5C8.80422 3.5 8.65024 3.5 8.5 3.50017V1.5C8.5 1.22386 8.27614 1 8 1C7.72386 1 7.5 1.22386 7.5 1.5V3.50641C6.78121 3.51676 6.16609 3.54377 5.64156 3.61429C4.76918 3.73158 4.07285 3.9774 3.52513 4.52512C2.9774 5.07285 2.73158 5.76917 2.61429 6.64156C2.49998 7.49179 2.49999 8.58 2.5 9.96202L2.5 16.038C2.49999 17.42 2.49998 18.5082 2.61429 19.3584C2.73158 20.2308 2.9774 20.9271 3.52513 21.4749C4.07285 22.0226 4.76918 22.2684 5.64156 22.3857C6.49179 22.5 7.58 22.5 8.96202 22.5H15.038C16.42 22.5 17.5082 22.5 18.3584 22.3857C19.2308 22.2684 19.9271 22.0226 20.4749 21.4749C21.0226 20.9271 21.2684 20.2308 21.3857 19.3584C21.5 18.5082 21.5 17.42 21.5 16.038V9.96202C21.5 8.58 21.5 7.49179 21.3857 6.64156C21.2684 5.76917 21.0226 5.07285 20.4749 4.52513C19.9271 3.9774 19.2308 3.73158 18.3584 3.61429C17.8339 3.54377 17.2188 3.51676 16.5 3.50641V1.5C16.5 1.22386 16.2761 1 16 1C15.7239 1 15.5 1.22386 15.5 1.5V3.50017C15.3498 3.5 15.1958 3.5 15.038 3.5L8.96204 3.5ZM15.5 4.50023C15.3391 4.50001 15.1725 4.5 15 4.5L9 4.5C8.82749 4.5 8.66092 4.50001 8.5 4.50023V6C8.5 6.27614 8.27614 6.5 8 6.5C7.72386 6.5 7.5 6.27614 7.5 6V4.50662C6.80981 4.51666 6.24694 4.5419 5.77481 4.60538C5.01331 4.70776 4.56319 4.90128 4.23223 5.23223C3.90128 5.56319 3.70776 6.01331 3.60538 6.77481C3.50725 7.50465 3.50049 8.45135 3.50003 9.75H20.5C20.4995 8.45135 20.4927 7.50465 20.3946 6.77481C20.2922 6.01331 20.0987 5.56319 19.7678 5.23223C19.4368 4.90128 18.9867 4.70776 18.2252 4.60538C17.7531 4.5419 17.1902 4.51665 16.5 4.50662V6C16.5 6.27614 16.2761 6.5 16 6.5C15.7239 6.5 15.5 6.27614 15.5 6V4.50023Z" fill="black"/>
</svg>
