<svg width="25" height="25" viewBox="0 0 25 25" fill="none" xmlns="http://www.w3.org/2000/svg">
<path fill-rule="evenodd" clip-rule="evenodd" d="M12.25 0C8.44551 0 5.04538 1.73582 2.80051 4.45403C1.05167 6.57163 0 9.28966 0 12.25C0 15.2103 1.05167 17.9284 2.80051 20.046C5.04538 22.7642 8.44551 24.5 12.25 24.5C16.0545 24.5 19.4546 22.7642 21.6995 20.046C23.4483 17.9284 24.5 15.2103 24.5 12.25C24.5 9.28966 23.4483 6.57163 21.6995 4.45403C19.4546 1.73582 16.0545 0 12.25 0ZM10.7911 2.60832C8.36142 2.97262 6.22522 4.23322 4.72813 6.04597C4.64191 6.15038 4.55782 6.2566 4.47593 6.36457L6.32234 9.8107L10.7911 2.60832ZM3.16969 8.69078C2.73729 9.79307 2.5 10.9934 2.5 12.25C2.5 13.5948 2.77173 14.875 3.26352 16.0397L7.17365 16.1638L3.16969 8.69078ZM4.63075 18.3342C4.6629 18.3744 4.69536 18.4143 4.72813 18.454C6.27606 20.3283 8.50724 21.6124 11.0397 21.9257L13.1012 18.6031L4.63075 18.3342ZM13.7087 21.8917C16.1385 21.5274 18.2747 20.2668 19.7719 18.454C19.8581 18.3496 19.9421 18.2434 20.024 18.1355L18.1775 14.6892L13.7087 21.8917ZM21.3303 15.8093C21.7627 14.707 22 13.5067 22 12.25C22 10.9052 21.7283 9.62496 21.2365 8.46027L17.3262 8.33615L21.3303 15.8093ZM19.8692 6.16573C19.8371 6.12555 19.8046 6.08563 19.7719 6.04597C18.2239 4.17162 15.9927 2.88759 13.4602 2.5743L11.3986 5.89687L19.8692 6.16573ZM9.77042 16.2462L14.471 16.3954L16.9505 12.3991L14.7295 8.25373L10.0289 8.10452L7.54934 12.1008L9.77042 16.2462Z" fill="black"/>
</svg>
