<svg width="24" height="24" viewBox="0 0 24 24" fill="none" xmlns="http://www.w3.org/2000/svg">
<path d="M5.67033 3.91504C4.89869 3.91504 4.28899 3.91503 3.79794 3.95515C3.29637 3.99613 2.87472 4.08145 2.4906 4.27716C1.86544 4.5957 1.35717 5.10397 1.03864 5.72913C0.842924 6.11324 0.757608 6.53489 0.716627 7.03646C0.676508 7.52752 0.67651 8.13722 0.676514 8.90886V15.0919C0.67651 15.8635 0.676508 16.4732 0.716627 16.9643C0.757608 17.4659 0.842924 17.8875 1.03864 18.2716C1.35717 18.8968 1.86544 19.4051 2.4906 19.7236C2.87472 19.9193 3.29637 20.0046 3.79794 20.0456C4.28896 20.0857 4.89862 20.0857 5.67018 20.0857H11.8534C12.625 20.0857 13.2347 20.0857 13.7258 20.0456C14.2273 20.0046 14.649 19.9193 15.0331 19.7236C15.6583 19.4051 16.1665 18.8968 16.4851 18.2716C16.6808 17.8875 16.7661 17.4659 16.8071 16.9643C16.8472 16.4732 16.8472 15.8635 16.8472 15.0919V14.4223L19.7552 16.7071C20.1878 17.047 20.5397 17.3236 20.8309 17.5124C21.1193 17.6994 21.4308 17.8579 21.7734 17.8562C22.2537 17.8537 22.707 17.6334 23.0056 17.2573C23.2186 16.9889 23.2864 16.6461 23.3176 16.3038C23.349 15.9581 23.349 15.5106 23.349 14.9604V9.04036C23.349 8.49016 23.349 8.04257 23.3176 7.69691C23.2864 7.35466 23.2186 7.01178 23.0056 6.74347C22.707 6.36728 22.2537 6.14698 21.7734 6.14455C21.4308 6.14282 21.1193 6.30136 20.8309 6.48833C20.5397 6.67716 20.1878 6.95369 19.7552 7.29362L16.8472 9.57846V8.90884C16.8472 8.13721 16.8472 7.52752 16.8071 7.03646C16.7661 6.53489 16.6808 6.11324 16.4851 5.72913C16.1665 5.10397 15.6583 4.5957 15.0331 4.27716C14.649 4.08145 14.2273 3.99613 13.7258 3.95515C13.2347 3.91503 12.625 3.91504 11.8534 3.91504H5.67033Z" fill="black"/>
</svg>
