<svg width="24" height="24" viewBox="0 0 24 24" fill="none" xmlns="http://www.w3.org/2000/svg">
<path d="M7.26499 3.16437C7.60669 2.31014 8.43403 1.75 9.35407 1.75H14.6459C15.566 1.75 16.3933 2.31014 16.735 3.16437L17.4693 5H6.53074L7.26499 3.16437Z" fill="black"/>
<path d="M12 11.5C10.3431 11.5 9 12.8431 9 14.5C9 16.1569 10.3431 17.5 12 17.5C13.6569 17.5 15 16.1569 15 14.5C15 12.8431 13.6569 11.5 12 11.5Z" fill="black"/>
<path fill-rule="evenodd" clip-rule="evenodd" d="M1 10C1 8.34315 2.34315 7 4 7H20C21.6569 7 23 8.34315 23 10V19C23 20.6569 21.6569 22 20 22H4C2.34315 22 1 20.6569 1 19V10ZM7 14.5C7 11.7386 9.23858 9.5 12 9.5C14.7614 9.5 17 11.7386 17 14.5C17 17.2614 14.7614 19.5 12 19.5C9.23858 19.5 7 17.2614 7 14.5ZM18.75 11C19.3023 11 19.75 10.5523 19.75 10C19.75 9.44772 19.3023 9 18.75 9C18.1977 9 17.75 9.44772 17.75 10C17.75 10.5523 18.1977 11 18.75 11Z" fill="black"/>
</svg>
