<svg width="24" height="24" viewBox="0 0 24 24" fill="none" xmlns="http://www.w3.org/2000/svg">
<path d="M7.26499 3.16437C7.60669 2.31014 8.43403 1.75 9.35407 1.75H14.6459C15.566 1.75 16.3933 2.31014 16.735 3.16437L17.2693 4.5H6.73074L7.26499 3.16437Z" fill="black"/>
<path d="M12 11.75C10.4812 11.75 9.25 12.9812 9.25 14.5C9.25 16.0188 10.4812 17.25 12 17.25C13.5188 17.25 14.75 16.0188 14.75 14.5C14.75 12.9812 13.5188 11.75 12 11.75Z" fill="black"/>
<path fill-rule="evenodd" clip-rule="evenodd" d="M1 10C1 8.34315 2.34315 7 4 7H20C21.6569 7 23 8.34315 23 10V19C23 20.6569 21.6569 22 20 22H4C2.34315 22 1 20.6569 1 19V10ZM6.75 14.5C6.75 11.6005 9.1005 9.25 12 9.25C14.8995 9.25 17.25 11.6005 17.25 14.5C17.25 17.3995 14.8995 19.75 12 19.75C9.1005 19.75 6.75 17.3995 6.75 14.5ZM18.75 11.25C19.4404 11.25 20 10.6904 20 10C20 9.30964 19.4404 8.75 18.75 8.75C18.0596 8.75 17.5 9.30964 17.5 10C17.5 10.6904 18.0596 11.25 18.75 11.25Z" fill="black"/>
</svg>
