<svg width="24" height="24" viewBox="0 0 24 24" fill="none" xmlns="http://www.w3.org/2000/svg">
<path fill-rule="evenodd" clip-rule="evenodd" d="M0.123117 8.43565C0 9.21298 0 10.142 0 12C0 13.858 0 14.787 0.123117 15.5643C0.800832 19.8433 4.15673 23.1992 8.43565 23.8769C9.21298 24 10.142 24 12 24C13.858 24 14.787 24 15.5643 23.8769C19.8433 23.1992 23.1992 19.8433 23.8769 15.5643C24 14.787 24 13.858 24 12C24 10.142 24 9.21298 23.8769 8.43565C23.1992 4.15673 19.8433 0.800832 15.5643 0.123117C14.787 0 13.858 0 12 0C10.142 0 9.21298 0 8.43565 0.123117C4.15673 0.800832 0.800832 4.15673 0.123117 8.43565ZM7.78119 6.6097H11.9032C12.4176 6.6097 12.8241 6.6097 13.1515 6.63644C13.4859 6.66376 13.767 6.72064 14.023 6.85112C14.4398 7.06347 14.7787 7.40232 14.991 7.81909C15.1215 8.07517 15.1784 8.35627 15.2057 8.69065C15.2324 9.01802 15.2324 9.42448 15.2324 9.9389V10.3848L17.1705 8.86202C17.4589 8.63541 17.6936 8.45104 17.8877 8.32515C18.0799 8.20051 18.2876 8.09481 18.516 8.09597C18.8362 8.09759 19.1384 8.24446 19.3375 8.49525C19.4795 8.67412 19.5247 8.90271 19.5455 9.13087C19.5664 9.36132 19.5664 9.65971 19.5664 10.0265V13.9732C19.5664 14.34 19.5664 14.6384 19.5455 14.8688C19.5247 15.097 19.4795 15.3256 19.3375 15.5044C19.1384 15.7552 18.8362 15.9021 18.516 15.9037C18.2876 15.9049 18.0799 15.7992 17.8877 15.6745C17.6936 15.5487 17.459 15.3643 17.1707 15.1378L15.2324 13.6149V14.0609C15.2324 14.5754 15.2324 14.9818 15.2057 15.3092C15.1784 15.6436 15.1215 15.9247 14.991 16.1808C14.7787 16.5975 14.4398 16.9364 14.023 17.1487C13.767 17.2792 13.4859 17.3361 13.1515 17.3634C12.8241 17.3902 12.4177 17.3902 11.9032 17.3902H7.78119C7.26678 17.3902 6.86029 17.3902 6.53293 17.3634C6.19855 17.3361 5.91745 17.2792 5.66137 17.1487C5.2446 16.9364 4.90575 16.5975 4.6934 16.1808C4.56292 15.9247 4.50604 15.6436 4.47872 15.3092C4.45197 14.9818 4.45198 14.5754 4.45198 14.0609V9.93892C4.45198 9.42449 4.45197 9.01802 4.47872 8.69065C4.50604 8.35627 4.56292 8.07517 4.6934 7.81909C4.90575 7.40232 5.2446 7.06347 5.66137 6.85112C5.91745 6.72064 6.19855 6.66376 6.53293 6.63644C6.8603 6.6097 7.26677 6.6097 7.78119 6.6097Z" fill="black"/>
</svg>
