<svg width="24" height="24" viewBox="0 0 24 24" fill="none" xmlns="http://www.w3.org/2000/svg">
<path fill-rule="evenodd" clip-rule="evenodd" d="M12 0C8.27324 0 4.94268 1.70005 2.74328 4.36322C1.03006 6.43768 0 9.09988 0 12C0 14.9001 1.03006 17.5623 2.74328 19.6368C4.94268 22.2999 8.27324 24 12 24C15.7268 24 19.0573 22.2999 21.2567 19.6368C22.9699 17.5623 24 14.9001 24 12C24 9.09988 22.9699 6.43768 21.2567 4.36322C19.0573 1.70005 15.7268 0 12 0ZM10.8715 2.06292C8.22749 2.35969 5.89556 3.68707 4.28537 5.63678C4.1921 5.74971 4.10127 5.86472 4.01295 5.98173L6.06441 9.81058L10.8715 2.06292ZM2.82889 8.00664C2.29562 9.22954 2 10.5798 2 12C2 13.3871 2.28201 14.7075 2.79202 15.9077L7.13608 16.0456L2.82889 8.00664ZM3.95871 17.9457C4.06396 18.0878 4.1729 18.227 4.28537 18.3632C5.87719 20.2907 8.17437 21.6099 10.7811 21.9265L13.0716 18.235L3.95871 17.9457ZM13.1283 21.9371C15.7724 21.6404 18.1044 20.313 19.7146 18.3632C19.8079 18.2503 19.8987 18.1353 19.987 18.0183L17.9355 14.1893L13.1283 21.9371ZM21.1711 15.9934C21.7044 14.7705 22 13.4202 22 12C22 10.6128 21.718 9.29243 21.208 8.09223L16.8638 7.95435L21.1711 15.9934ZM20.0412 6.05419C19.936 5.91213 19.8271 5.77295 19.7146 5.63678C18.1228 3.70928 15.8255 2.39001 13.2187 2.07346L10.9283 5.76494L20.0412 6.05419ZM9.44432 16.1189L14.2892 16.2726L16.8448 12.1537L14.5556 7.88108L9.71071 7.7273L7.15508 11.8462L9.44432 16.1189Z" fill="black"/>
</svg>
