<svg width="24" height="24" viewBox="0 0 24 24" fill="none" xmlns="http://www.w3.org/2000/svg">
<path fill-rule="evenodd" clip-rule="evenodd" d="M7 14.5C7 11.7386 9.23858 9.5 12 9.5C14.7614 9.5 17 11.7386 17 14.5C17 17.2614 14.7614 19.5 12 19.5C9.23858 19.5 7 17.2614 7 14.5ZM12 11.5C10.3431 11.5 9 12.8431 9 14.5C9 16.1569 10.3431 17.5 12 17.5C13.6569 17.5 15 16.1569 15 14.5C15 12.8431 13.6569 11.5 12 11.5Z" fill="black"/>
<path d="M18.75 11.5C19.3023 11.5 19.75 11.0523 19.75 10.5C19.75 9.94771 19.3023 9.5 18.75 9.5C18.1977 9.5 17.75 9.94771 17.75 10.5C17.75 11.0523 18.1977 11.5 18.75 11.5Z" fill="black"/>
<path fill-rule="evenodd" clip-rule="evenodd" d="M9.35407 1C8.12735 1 7.02423 1.74685 6.56864 2.88583L5.32297 6H4C1.79086 6 0 7.79086 0 10V19C0 21.2091 1.79086 23 4 23H20C22.2091 23 24 21.2091 24 19V10C24 7.79086 22.2091 6 20 6H18.677L17.4314 2.88583C16.9758 1.74685 15.8726 1 14.6459 1H9.35407ZM16.523 6L15.5744 3.62861C15.4225 3.24895 15.0548 3 14.6459 3H9.35407C8.94516 3 8.57745 3.24895 8.42559 3.62861L7.47703 6H16.523ZM2 10C2 8.89543 2.89543 8 4 8H20C21.1046 8 22 8.89543 22 10V19C22 20.1046 21.1046 21 20 21H4C2.89543 21 2 20.1046 2 19V10Z" fill="black"/>
</svg>
