<svg width="24" height="24" viewBox="0 0 24 24" fill="none" xmlns="http://www.w3.org/2000/svg">
<path d="M1.4447 2.25877C1.34707 2.16114 1.18878 2.16114 1.09115 2.25877C0.993519 2.3564 0.993519 2.51469 1.09115 2.61232L18.647 20.1682C18.7446 20.2658 18.9029 20.2658 19.0006 20.1682C19.0982 20.0705 19.0982 19.9123 19.0006 19.8146L1.4447 2.25877Z" fill="black"/>
<path fill-rule="evenodd" clip-rule="evenodd" d="M5.68044 4.16422C5.34445 4.16422 5.0417 4.16422 4.76749 4.16735L5.26463 4.66449C5.39987 4.66423 5.54211 4.66422 5.69195 4.66422H11.8308C12.6253 4.66422 13.2061 4.66441 13.6642 4.70184C14.1194 4.73903 14.4314 4.81174 14.6921 4.9446C15.1762 5.19123 15.5697 5.58476 15.8163 6.0688C15.9492 6.32956 16.0219 6.64153 16.0591 7.09672C16.0965 7.55483 16.0967 8.13565 16.0967 8.93014V15.069C16.0967 15.2188 16.0967 15.361 16.0964 15.4963L16.5936 15.9934C16.5967 15.7193 16.5967 15.4167 16.5967 15.0808V13.9031C16.6637 13.9598 16.74 14.0197 16.8279 14.0887L19.8997 16.5023C20.3404 16.8485 20.6849 17.1192 20.9665 17.3018C21.2467 17.4835 21.5059 17.6067 21.7716 17.6054C22.1761 17.6033 22.5578 17.4178 22.8093 17.101C22.9746 16.8928 23.0379 16.6129 23.0681 16.2804C23.0985 15.9461 23.0985 15.5081 23.0985 14.9478V9.05144C23.0985 8.49118 23.0985 8.05295 23.0681 7.71873C23.0379 7.38615 22.9746 7.10623 22.8093 6.89809C22.5578 6.5813 22.1761 6.39577 21.7716 6.39373C21.5059 6.39238 21.2467 6.51558 20.9665 6.69727C20.6849 6.87987 20.3404 7.15054 19.8998 7.49675L16.8279 9.91036C16.7401 9.97931 16.6636 10.0393 16.5967 10.096V8.91863C16.5967 8.13802 16.5967 7.53682 16.5574 7.056C16.5177 6.56989 16.4366 6.1848 16.2618 5.84181C15.9673 5.26369 15.4972 4.79366 14.9191 4.4991C14.5761 4.32433 14.191 4.24322 13.7049 4.2035C13.2241 4.16422 12.6229 4.16422 11.8423 4.16422H5.68044ZM20.198 7.8983C20.6516 7.54192 20.9783 7.28553 21.2385 7.11679C21.5024 6.94565 21.657 6.89315 21.7691 6.89372C22.0219 6.895 22.2605 7.01097 22.4177 7.20899C22.4874 7.29678 22.5417 7.45076 22.5702 7.76402C22.5982 8.0729 22.5985 8.48819 22.5985 9.06503V14.934C22.5985 15.5109 22.5982 15.9262 22.5702 16.2351C22.5417 16.5483 22.4874 16.7023 22.4177 16.7901C22.2605 16.9881 22.0219 17.1041 21.7691 17.1054C21.657 17.1059 21.5024 17.0534 21.2385 16.8823C20.9783 16.7135 20.6516 16.4572 20.198 16.1008L17.1638 13.7168C16.9096 13.517 16.8211 13.4448 16.7585 13.3595C16.6988 13.2782 16.6543 13.1868 16.6273 13.0896C16.5989 12.9876 16.5968 12.8735 16.5968 12.5501V11.449C16.5968 11.1256 16.5989 11.0114 16.6273 10.9095C16.6543 10.8123 16.6988 10.7209 16.7585 10.6396C16.8211 10.5543 16.9096 10.4821 17.1638 10.2823L20.198 7.8983Z" fill="black"/>
<path d="M1.9826 4.918L2.33719 5.27259C2.07758 5.49217 1.86255 5.76235 1.70641 6.0688C1.57354 6.32956 1.50084 6.64153 1.46365 7.09672C1.42622 7.55482 1.42603 8.13565 1.42603 8.93014V15.069C1.42603 15.8635 1.42622 16.4443 1.46365 16.9024C1.50084 17.3576 1.57354 17.6696 1.70641 17.9303C1.95304 18.4143 2.34657 18.8079 2.83061 19.0545C3.09137 19.1874 3.40334 19.2601 3.85852 19.2973C4.31663 19.3347 4.89746 19.3349 5.69194 19.3349H11.8308C12.6253 19.3349 13.2061 19.3347 13.6642 19.2973C14.1194 19.2601 14.4314 19.1874 14.6921 19.0545C14.9986 18.8984 15.2687 18.6833 15.4883 18.4237L15.8429 18.7783C15.5857 19.0742 15.2726 19.3199 14.9191 19.5C14.5761 19.6748 14.191 19.7559 13.7049 19.7956C13.2241 19.8349 12.6229 19.8349 11.8423 19.8349H5.68043C4.8998 19.8349 4.29864 19.8349 3.81781 19.7956C3.3317 19.7559 2.94661 19.6748 2.60361 19.5C2.02549 19.2055 1.55547 18.7354 1.2609 18.1573C1.08614 17.8143 1.00503 17.4292 0.965309 16.9431C0.926024 16.4623 0.926024 15.8611 0.926025 15.0805V8.91863C0.926024 8.138 0.926024 7.53683 0.965309 7.056C1.00503 6.56989 1.08614 6.1848 1.2609 5.84181C1.44101 5.48833 1.68671 5.17526 1.9826 4.918Z" fill="black"/>
</svg>
