<svg width="24" height="24" viewBox="0 0 24 24" fill="none" xmlns="http://www.w3.org/2000/svg">
<path d="M1.79826 1.90522C1.50537 1.61232 1.0305 1.61232 0.737601 1.90522C0.444708 2.19811 0.444708 2.67298 0.737601 2.96588L18.2935 20.5217C18.5863 20.8146 19.0612 20.8146 19.3541 20.5217C19.647 20.2288 19.647 19.754 19.3541 19.4611L1.79826 1.90522Z" fill="black"/>
<path fill-rule="evenodd" clip-rule="evenodd" d="M5.78212 3.41422L7.78212 5.41422H11.8308C12.6376 5.41422 13.1826 5.415 13.6031 5.44935C14.0119 5.48275 14.2142 5.54284 14.3516 5.61285C14.6945 5.78758 14.9733 6.06638 15.1481 6.4093C15.2181 6.5467 15.2782 6.74898 15.3116 7.15779C15.3459 7.57828 15.3467 8.12328 15.3467 8.93014V11.2572C15.3464 11.301 15.3465 11.3437 15.3467 11.385L15.3467 11.4082V12.5908L15.3467 12.6141C15.3465 12.6554 15.3464 12.6981 15.3467 12.7419V12.9788L19.5464 17.1785C19.9303 17.48 20.269 17.7434 20.5584 17.9311C20.8631 18.1286 21.2792 18.3579 21.7754 18.3553C22.4074 18.3521 23.0038 18.0623 23.3967 17.5673C23.7053 17.1787 23.7821 16.7098 23.815 16.3483C23.8485 15.9797 23.8485 15.5125 23.8485 14.9795V9.01983C23.8485 8.4868 23.8485 8.01943 23.815 7.6508C23.7821 7.28923 23.7053 6.82041 23.3967 6.43175C23.0038 5.93679 22.4074 5.64694 21.7754 5.64374C21.2792 5.64123 20.8631 5.87046 20.5584 6.06798C20.2478 6.26939 19.8805 6.55807 19.4613 6.88744L17.3466 8.54903C17.3457 7.94313 17.3403 7.4277 17.3049 6.99493C17.2614 6.46244 17.1677 5.96766 16.9301 5.50131C16.5636 4.78207 15.9788 4.19731 15.2596 3.83084C14.7933 3.59323 14.2985 3.4995 13.766 3.45599C13.2544 3.4142 12.6273 3.41421 11.8718 3.41422H5.78212ZM20.6614 8.48804C21.1267 8.12242 21.4218 7.89182 21.6466 7.74607C21.7179 7.69978 21.7679 7.67204 21.7996 7.6559C21.8065 7.69083 21.8155 7.74721 21.8232 7.83195C21.8475 8.09872 21.8485 8.47324 21.8485 9.06504V14.934C21.8485 15.5258 21.8475 15.9004 21.8232 16.1671C21.8155 16.2519 21.8065 16.3082 21.7996 16.3432C21.7679 16.327 21.7179 16.2993 21.6466 16.253C21.4218 16.1073 21.1267 15.8767 20.6614 15.511L17.6272 13.1271C17.4977 13.0253 17.4304 12.972 17.3827 12.9304C17.3707 12.9199 17.3628 12.9125 17.358 12.908C17.356 12.9045 17.3542 12.9009 17.3527 12.8971C17.3521 12.8905 17.3512 12.8798 17.3504 12.8638C17.3471 12.8007 17.3468 12.7147 17.3468 12.5501V11.449C17.3468 11.2843 17.3471 11.1984 17.3504 11.1352C17.3512 11.1193 17.3521 11.1085 17.3527 11.102C17.3542 11.0982 17.356 11.0946 17.358 11.0911C17.3628 11.0865 17.3707 11.0792 17.3827 11.0687C17.4304 11.0271 17.4977 10.9737 17.6272 10.872L20.6614 8.48804Z" fill="black"/>
<path d="M0.664256 5.36742L2.23412 6.93728C2.2255 7.00336 2.2178 7.07649 2.21116 7.15779C2.1768 7.57827 2.17603 8.12328 2.17603 8.93014V15.069C2.17603 15.8758 2.1768 16.4208 2.21116 16.8413C2.24456 17.2501 2.30465 17.4524 2.37466 17.5898C2.54939 17.9327 2.82818 18.2115 3.1711 18.3863C3.30851 18.4563 3.51079 18.5164 3.9196 18.5498C4.34008 18.5841 4.88508 18.5849 5.69194 18.5849H11.8308C12.6376 18.5849 13.1826 18.5841 13.6031 18.5498C13.6844 18.5431 13.7576 18.5354 13.8236 18.5268L15.3935 20.0967C15.3494 20.1214 15.3048 20.1453 15.2596 20.1683C14.7933 20.4059 14.2985 20.4996 13.766 20.5431C13.2544 20.5849 12.6273 20.5849 11.8718 20.5849H5.65099C4.8955 20.5849 4.26831 20.5849 3.75674 20.5431C3.22424 20.4996 2.72947 20.4059 2.26312 20.1683C1.54388 19.8018 0.95912 19.217 0.592648 18.4978C0.355032 18.0315 0.261307 17.5367 0.217801 17.0042C0.176001 16.4926 0.176013 15.8655 0.176026 15.11V8.8892C0.176013 8.13369 0.176001 7.50652 0.217801 6.99493C0.261307 6.46244 0.355032 5.96766 0.592648 5.50131C0.615662 5.45614 0.63954 5.41151 0.664256 5.36742Z" fill="black"/>
</svg>
