<svg width="24" height="24" viewBox="0 0 24 24" fill="none" xmlns="http://www.w3.org/2000/svg">
<path fill-rule="evenodd" clip-rule="evenodd" d="M7.5 14.5C7.5 12.0147 9.51472 10 12 10C14.4853 10 16.5 12.0147 16.5 14.5C16.5 16.9853 14.4853 19 12 19C9.51472 19 7.5 16.9853 7.5 14.5ZM12 11C10.067 11 8.5 12.567 8.5 14.5C8.5 16.433 10.067 18 12 18C13.933 18 15.5 16.433 15.5 14.5C15.5 12.567 13.933 11 12 11Z" fill="black"/>
<path d="M18.75 10.75C19.1642 10.75 19.5 10.4142 19.5 10C19.5 9.58579 19.1642 9.25 18.75 9.25C18.3358 9.25 18 9.58579 18 10C18 10.4142 18.3358 10.75 18.75 10.75Z" fill="black"/>
<path fill-rule="evenodd" clip-rule="evenodd" d="M9.35407 1.5C8.3318 1.5 7.41253 2.12238 7.03287 3.07152L5.66148 6.5H4C2.067 6.5 0.5 8.067 0.5 10V19C0.5 20.933 2.067 22.5 4 22.5H20C21.933 22.5 23.5 20.933 23.5 19V10C23.5 8.067 21.933 6.5 20 6.5H18.3385L16.9671 3.07152C16.5875 2.12238 15.6682 1.5 14.6459 1.5H9.35407ZM17.2615 6.5L16.0386 3.44291C15.8109 2.87343 15.2593 2.5 14.6459 2.5H9.35407C8.74071 2.5 8.18915 2.87343 7.96135 3.44291L6.73852 6.5H17.2615ZM1.5 10C1.5 8.61929 2.61929 7.5 4 7.5H20C21.3807 7.5 22.5 8.61929 22.5 10V19C22.5 20.3807 21.3807 21.5 20 21.5H4C2.61929 21.5 1.5 20.3807 1.5 19V10Z" fill="black"/>
</svg>
