<svg width="24" height="24" viewBox="0 0 24 24" fill="none" xmlns="http://www.w3.org/2000/svg">
<path fill-rule="evenodd" clip-rule="evenodd" d="M7.25 14.5C7.25 11.8766 9.37665 9.75 12 9.75C14.6234 9.75 16.75 11.8766 16.75 14.5C16.75 17.1234 14.6234 19.25 12 19.25C9.37665 19.25 7.25 17.1234 7.25 14.5ZM12 11.25C10.2051 11.25 8.75 12.7051 8.75 14.5C8.75 16.2949 10.2051 17.75 12 17.75C13.7949 17.75 15.25 16.2949 15.25 14.5C15.25 12.7051 13.7949 11.25 12 11.25Z" fill="black"/>
<path d="M18.75 11C19.1642 11 19.5 10.6642 19.5 10.25C19.5 9.83579 19.1642 9.5 18.75 9.5C18.3358 9.5 18 9.83579 18 10.25C18 10.6642 18.3358 11 18.75 11Z" fill="black"/>
<path fill-rule="evenodd" clip-rule="evenodd" d="M9.35407 1.25C8.22958 1.25 7.21838 1.93462 6.80075 2.97868L5.49223 6.25H4C1.92893 6.25 0.25 7.92893 0.25 10V19C0.25 21.0711 1.92893 22.75 4 22.75H20C22.0711 22.75 23.75 21.0711 23.75 19V10C23.75 7.92893 22.0711 6.25 20 6.25H18.5078L17.1992 2.97868C16.7816 1.93462 15.7704 1.25 14.6459 1.25H9.35407ZM16.8922 6.25L15.8065 3.53576C15.6167 3.06119 15.1571 2.75 14.6459 2.75H9.35407C8.84294 2.75 8.3833 3.06119 8.19347 3.53576L7.10777 6.25H16.8922ZM1.75 10C1.75 8.75736 2.75736 7.75 4 7.75H20C21.2426 7.75 22.25 8.75736 22.25 10V19C22.25 20.2426 21.2426 21.25 20 21.25H4C2.75736 21.25 1.75 20.2426 1.75 19V10Z" fill="black"/>
</svg>
