<svg width="24" height="24" viewBox="0 0 24 24" fill="none" xmlns="http://www.w3.org/2000/svg">
<path fill-rule="evenodd" clip-rule="evenodd" d="M7.75 14.5C7.75 12.1528 9.65279 10.25 12 10.25C14.3472 10.25 16.25 12.1528 16.25 14.5C16.25 16.8472 14.3472 18.75 12 18.75C9.65279 18.75 7.75 16.8472 7.75 14.5ZM12 10.75C9.92893 10.75 8.25 12.4289 8.25 14.5C8.25 16.5711 9.92893 18.25 12 18.25C14.0711 18.25 15.75 16.5711 15.75 14.5C15.75 12.4289 14.0711 10.75 12 10.75Z" fill="black"/>
<path d="M18.75 10.5C19.0261 10.5 19.25 10.2761 19.25 10C19.25 9.72386 19.0261 9.5 18.75 9.5C18.4739 9.5 18.25 9.72386 18.25 10C18.25 10.2761 18.4739 10.5 18.75 10.5Z" fill="black"/>
<path fill-rule="evenodd" clip-rule="evenodd" d="M9.35407 1.75C8.43403 1.75 7.60669 2.31014 7.26499 3.16437L5.83074 6.75H4C2.20507 6.75 0.75 8.20507 0.75 10V19C0.75 20.7949 2.20507 22.25 4 22.25H20C21.7949 22.25 23.25 20.7949 23.25 19V10C23.25 8.20507 21.7949 6.75 20 6.75H18.1693L16.735 3.16437C16.3933 2.31014 15.566 1.75 14.6459 1.75H9.35407ZM17.6307 6.75L16.2708 3.35007C16.005 2.68566 15.3615 2.25 14.6459 2.25H9.35407C8.63848 2.25 7.99499 2.68566 7.72923 3.35007L6.36926 6.75H17.6307ZM1.25 10C1.25 8.48122 2.48122 7.25 4 7.25H20C21.5188 7.25 22.75 8.48122 22.75 10V19C22.75 20.5188 21.5188 21.75 20 21.75H4C2.48122 21.75 1.25 20.5188 1.25 19V10Z" fill="black"/>
</svg>
