<svg width="24" height="24" viewBox="0 0 24 24" fill="none" xmlns="http://www.w3.org/2000/svg">
<path d="M11.3816 0.766724C8.26145 0.935789 5.47938 2.3764 3.54484 4.5787L6.08027 9.31084L11.3816 0.766724Z" fill="black"/>
<path d="M1.96129 6.91672C1.18664 8.44357 0.75 10.1709 0.75 12C0.75 13.2632 0.958264 14.4779 1.3423 15.6116L6.71122 15.782L1.96129 6.91672Z" fill="black"/>
<path d="M2.57967 18.1521C2.80851 18.5018 3.0563 18.838 3.32156 19.1592C4.93985 21.1187 7.20962 22.5212 9.79928 23.0348L12.6309 18.4711L2.57967 18.1521Z" fill="black"/>
<path d="M12.6183 23.2333C15.7384 23.0643 18.5205 21.6237 20.4551 19.4214L17.9196 14.6891L12.6183 23.2333Z" fill="black"/>
<path d="M22.0387 17.0834C22.8133 15.5565 23.25 13.8291 23.25 12C23.25 10.7368 23.0417 9.52205 22.6577 8.38839L17.2887 8.21797L22.0387 17.0834Z" fill="black"/>
<path d="M21.4203 5.84785L11.369 5.52881L14.2006 0.965161C16.7903 1.47876 19.0601 2.88126 20.6784 4.84082C20.9437 5.16199 21.1915 5.49816 21.4203 5.84785Z" fill="black"/>
<path d="M14.1528 16.0182L9.59651 15.8736L7.44361 11.8554L9.84704 7.98176L14.4034 8.12638L16.5563 12.1446L14.1528 16.0182Z" fill="black"/>
</svg>
