<svg width="24" height="24" viewBox="0 0 24 24" fill="none" xmlns="http://www.w3.org/2000/svg">
<path d="M1.4447 2.25877C1.34707 2.16114 1.18878 2.16114 1.09115 2.25877C0.993519 2.3564 0.993519 2.51469 1.09115 2.61232L18.647 20.1682C18.7446 20.2658 18.9029 20.2658 19.0006 20.1682C19.0982 20.0705 19.0982 19.9123 19.0006 19.8146L1.4447 2.25877Z" fill="black"/>
<path d="M5.66983 3.91422C5.23903 3.91422 4.85871 3.91422 4.52133 3.9212L16.8397 16.2396C16.8467 15.9022 16.8467 15.5219 16.8467 15.0911V14.4214L19.7547 16.7063C20.1873 17.0462 20.5392 17.3227 20.8305 17.5116C21.1188 17.6985 21.4303 17.8571 21.7729 17.8553C22.2532 17.8529 22.7065 17.6326 23.0051 17.2564C23.2182 16.9881 23.2859 16.6452 23.3171 16.303C23.3485 15.9573 23.3485 15.5098 23.3485 14.9596V9.03954C23.3485 8.48936 23.3485 8.04174 23.3171 7.69609C23.2859 7.35384 23.2182 7.01096 23.0051 6.74265C22.7065 6.36646 22.2532 6.14616 21.7729 6.14373C21.4303 6.142 21.1188 6.30054 20.8305 6.48751C20.5392 6.67634 20.1873 6.95287 19.7547 7.29279L16.8467 9.57764V8.90802C16.8467 8.13639 16.8467 7.5267 16.8066 7.03564C16.7656 6.53407 16.6803 6.11242 16.4846 5.72831C16.166 5.10315 15.6578 4.59488 15.0326 4.27634C14.6485 4.08063 14.2268 3.99531 13.7253 3.95433C13.2342 3.91421 12.6245 3.91422 11.8529 3.91422H5.66983Z" fill="black"/>
<path d="M1.80543 4.74083L16.0201 18.9555C15.7441 19.2696 15.4096 19.5307 15.0326 19.7228C14.6485 19.9185 14.2268 20.0038 13.7253 20.0448C13.2343 20.0849 12.6247 20.0849 11.8531 20.0849H5.66983C4.89831 20.0849 4.28845 20.0849 3.79745 20.0448C3.29588 20.0038 2.87423 19.9185 2.49011 19.7228C1.86496 19.4042 1.35669 18.896 1.03815 18.2708C0.842436 17.8867 0.75712 17.465 0.716139 16.9635C0.67602 16.4724 0.676022 15.8627 0.676025 15.0911V8.90804C0.676022 8.1364 0.67602 7.5267 0.716139 7.03564C0.75712 6.53407 0.842436 6.11242 1.03815 5.72831C1.23024 5.35132 1.49132 5.01683 1.80543 4.74083Z" fill="black"/>
</svg>
