<svg width="24" height="24" viewBox="0 0 24 24" fill="none" xmlns="http://www.w3.org/2000/svg">
<path fill-rule="evenodd" clip-rule="evenodd" d="M0.123117 8.43565C0 9.21298 0 10.142 0 12C0 13.858 0 14.787 0.123117 15.5643C0.800832 19.8433 4.15673 23.1992 8.43565 23.8769C9.21298 24 10.142 24 12 24C13.858 24 14.787 24 15.5643 23.8769C19.8433 23.1992 23.1992 19.8433 23.8769 15.5643C24 14.787 24 13.858 24 12C24 10.142 24 9.21298 23.8769 8.43565C23.1992 4.15673 19.8433 0.800832 15.5643 0.123117C14.787 0 13.858 0 12 0C10.142 0 9.21298 0 8.43565 0.123117C4.15673 0.800832 0.800832 4.15673 0.123117 8.43565ZM4.22373 5.00514C4.56544 4.66343 5.11946 4.66343 5.46117 5.00514L17.1651 16.709C17.5068 17.0508 17.5068 17.6048 17.1651 17.9465C16.8234 18.2882 16.2693 18.2882 15.9276 17.9465L4.22373 6.24258C3.88202 5.90087 3.88202 5.34685 4.22373 5.00514ZM8.65509 6.60921H11.8967C12.4111 6.60921 12.8176 6.60921 13.145 6.63596C13.4793 6.66328 13.7605 6.72015 14.0165 6.85063C14.4333 7.06299 14.7721 7.40183 14.9845 7.81861C15.115 8.07468 15.1719 8.35578 15.1992 8.69016C15.2259 9.01753 15.2259 9.424 15.2259 9.93842V10.3853L17.1653 8.86154C17.4537 8.63493 17.6884 8.45055 17.8825 8.32467C18.0747 8.20002 18.2824 8.09433 18.5108 8.09548C18.831 8.0971 19.1332 8.24397 19.3323 8.49476C19.4743 8.67364 19.5195 8.90222 19.5402 9.13039C19.5612 9.36082 19.5612 9.6592 19.5612 10.026V13.9727C19.5612 14.3395 19.5612 14.6379 19.5402 14.8683C19.5195 15.0965 19.4743 15.3251 19.3323 15.504C19.1332 15.7547 18.831 15.9016 18.5108 15.9032C18.2824 15.9044 18.0747 15.7987 17.8825 15.674C17.7073 15.5604 17.499 15.3991 17.248 15.2021L8.65509 6.60921ZM13.6686 17.2796L4.55552 8.1665C4.51281 8.3273 4.48774 8.50013 4.47221 8.69016C4.44547 9.01753 4.44547 9.424 4.44547 9.93843V14.0604C4.44547 14.5749 4.44547 14.9813 4.47221 15.3087C4.49953 15.6431 4.55641 15.9242 4.68689 16.1803C4.89924 16.597 5.23809 16.9359 5.65486 17.1482C5.91094 17.2787 6.19204 17.3356 6.52642 17.3629C6.85378 17.3897 7.26024 17.3897 7.77465 17.3897H11.8967C12.4111 17.3897 12.8176 17.3897 13.145 17.3629C13.335 17.3474 13.5078 17.3223 13.6686 17.2796Z" fill="black"/>
</svg>
