<svg width="24" height="24" viewBox="0 0 24 24" fill="none" xmlns="http://www.w3.org/2000/svg">
<path fill-rule="evenodd" clip-rule="evenodd" d="M5.68093 4.16504C4.9003 4.16504 4.29913 4.16504 3.8183 4.20432C3.33219 4.24404 2.9471 4.32515 2.6041 4.49992C2.02598 4.79448 1.55596 5.26451 1.26139 5.84263C1.08663 6.18562 1.00551 6.57071 0.965797 7.05682C0.926512 7.53765 0.926512 8.13882 0.926514 8.91945V15.0813C0.926512 15.8619 0.926512 16.4631 0.965797 16.9439C1.00551 17.43 1.08663 17.8151 1.26139 18.1581C1.55596 18.7362 2.02598 19.2063 2.6041 19.5008C2.9471 19.6756 3.33219 19.7567 3.8183 19.7964C4.29913 19.8357 4.90029 19.8357 5.68092 19.8357H11.8428C12.6234 19.8357 13.2246 19.8357 13.7054 19.7964C14.1915 19.7567 14.5766 19.6756 14.9196 19.5008C15.4977 19.2063 15.9677 18.7362 16.2623 18.1581C16.4371 17.8151 16.5182 17.43 16.5579 16.9439C16.5972 16.4631 16.5972 15.8619 16.5972 15.0813V13.9039C16.6642 13.9606 16.7405 14.0206 16.8284 14.0895L19.9002 16.5031C20.3409 16.8493 20.6853 17.12 20.967 17.3026C21.2472 17.4843 21.5064 17.6075 21.7721 17.6062C22.1766 17.6041 22.5583 17.4186 22.8098 17.1018C22.9751 16.8937 23.0383 16.6138 23.0686 16.2812C23.099 15.9469 23.099 15.5088 23.099 14.9485V9.05226C23.099 8.49191 23.099 8.0538 23.0686 7.71955C23.0383 7.38697 22.9751 7.10705 22.8098 6.89891C22.5583 6.58212 22.1766 6.39659 21.7721 6.39455C21.5064 6.3932 21.2472 6.5164 20.967 6.69809C20.6854 6.88069 20.3409 7.15136 19.9002 7.49757L16.8284 9.91118C16.7405 9.98015 16.6642 10.0401 16.5972 10.0968V8.91945C16.5972 8.13883 16.5972 7.53765 16.5579 7.05682C16.5182 6.57071 16.4371 6.18562 16.2623 5.84263C15.9677 5.26451 15.4977 4.79448 14.9196 4.49992C14.5766 4.32515 14.1915 4.24404 13.7054 4.20432C13.2246 4.16504 12.6234 4.16504 11.8428 4.16504H5.68093ZM2.8311 4.94542C3.09186 4.81256 3.40382 4.73985 3.85901 4.70266C4.31712 4.66523 4.89795 4.66504 5.69243 4.66504H11.8313C12.6258 4.66504 13.2066 4.66523 13.6647 4.70266C14.1199 4.73985 14.4318 4.81256 14.6926 4.94542C15.1766 5.19205 15.5702 5.58558 15.8168 6.06962C15.9497 6.33038 16.0224 6.64235 16.0596 7.09754C16.097 7.55565 16.0972 8.13647 16.0972 8.93096V15.0698C16.0972 15.8643 16.097 16.4451 16.0596 16.9032C16.0224 17.3584 15.9497 17.6704 15.8168 17.9311C15.5702 18.4152 15.1766 18.8087 14.6926 19.0553C14.4318 19.1882 14.1199 19.2609 13.6647 19.2981C13.2066 19.3355 12.6258 19.3357 11.8313 19.3357H5.69243C4.89795 19.3357 4.31712 19.3355 3.85901 19.2981C3.40382 19.2609 3.09186 19.1882 2.8311 19.0553C2.34706 18.8087 1.95352 18.4152 1.70689 17.9311C1.57403 17.6704 1.50133 17.3584 1.46414 16.9032C1.42671 16.4451 1.42651 15.8643 1.42651 15.0698V8.93096C1.42651 8.13647 1.42671 7.55564 1.46414 7.09754C1.50133 6.64235 1.57403 6.33038 1.70689 6.06962C1.95352 5.58558 2.34706 5.19205 2.8311 4.94542ZM20.1985 7.89912C20.6521 7.54274 20.9788 7.28636 21.239 7.11761C21.5029 6.94648 21.6575 6.89397 21.7696 6.89454C22.0224 6.89582 22.261 7.01179 22.4182 7.20981C22.4879 7.2976 22.5422 7.45158 22.5706 7.76484C22.5987 8.07372 22.599 8.48902 22.599 9.06585V14.9349C22.599 15.5117 22.5987 15.927 22.5706 16.2359C22.5422 16.5491 22.4879 16.7031 22.4182 16.7909C22.261 16.9889 22.0224 17.1049 21.7696 17.1062C21.6575 17.1067 21.5029 17.0542 21.239 16.8831C20.9788 16.7144 20.6521 16.458 20.1985 16.1016L17.1643 13.7176C16.91 13.5178 16.8216 13.4456 16.759 13.3603C16.6993 13.279 16.6548 13.1876 16.6278 13.0904C16.5994 12.9885 16.5973 12.8743 16.5973 12.5509V11.4498C16.5973 11.1264 16.5994 11.0123 16.6278 10.9103C16.6548 10.8131 16.6993 10.7217 16.759 10.6404C16.8216 10.5551 16.91 10.4829 17.1643 10.2831L20.1985 7.89912Z" fill="black"/>
</svg>
