<svg width="24" height="24" viewBox="0 0 24 24" fill="none" xmlns="http://www.w3.org/2000/svg">
<path fill-rule="evenodd" clip-rule="evenodd" d="M5.67033 3.91504C4.89869 3.91504 4.28899 3.91503 3.79794 3.95515C3.29637 3.99613 2.87472 4.08145 2.4906 4.27716C1.86544 4.5957 1.35717 5.10397 1.03864 5.72913C0.842924 6.11324 0.757608 6.53489 0.716627 7.03646C0.676508 7.52752 0.67651 8.13722 0.676514 8.90886V15.0919C0.67651 15.8635 0.676508 16.4732 0.716627 16.9643C0.757608 17.4659 0.842924 17.8875 1.03864 18.2716C1.35717 18.8968 1.86544 19.4051 2.4906 19.7236C2.87472 19.9193 3.29637 20.0046 3.79794 20.0456C4.28898 20.0857 4.89866 20.0857 5.67027 20.0857H11.8534C12.625 20.0857 13.2347 20.0857 13.7258 20.0456C14.2273 20.0046 14.649 19.9193 15.0331 19.7236C15.6583 19.4051 16.1665 18.8968 16.4851 18.2716C16.6808 17.8875 16.7661 17.4659 16.8071 16.9643C16.8472 16.4732 16.8472 15.8635 16.8472 15.0919V14.4223L19.7552 16.7071C20.1878 17.047 20.5397 17.3236 20.8309 17.5124C21.1193 17.6994 21.4308 17.8579 21.7734 17.8562C22.2537 17.8537 22.707 17.6334 23.0056 17.2573C23.2186 16.9889 23.2864 16.6461 23.3176 16.3038C23.349 15.9581 23.349 15.5106 23.349 14.9604V9.04036C23.349 8.49016 23.349 8.04257 23.3176 7.69691C23.2864 7.35466 23.2186 7.01178 23.0056 6.74347C22.707 6.36728 22.2537 6.14698 21.7734 6.14455C21.4308 6.14282 21.1193 6.30136 20.8309 6.48833C20.5397 6.67717 20.1878 6.9537 19.7552 7.29363L16.8472 9.57846V8.90884C16.8472 8.13721 16.8472 7.52752 16.8071 7.03646C16.7661 6.53489 16.6808 6.11324 16.4851 5.72913C16.1665 5.10397 15.6583 4.5957 15.0331 4.27716C14.649 4.08145 14.2273 3.99613 13.7258 3.95515C13.2347 3.91503 12.625 3.91504 11.8534 3.91504H5.67033ZM2.94459 5.16817C3.16424 5.05626 3.43964 4.98776 3.87937 4.95183C4.32494 4.91543 4.89382 4.91504 5.69243 4.91504H11.8313C12.6299 4.91504 13.1988 4.91543 13.6443 4.95183C14.0841 4.98776 14.3595 5.05626 14.5791 5.16817C15.0161 5.39083 15.3714 5.74612 15.5941 6.18312C15.706 6.40276 15.7745 6.67817 15.8104 7.1179C15.8468 7.56346 15.8472 8.13235 15.8472 8.93096V15.0698C15.8472 15.8684 15.8468 16.4373 15.8104 16.8829C15.7745 17.3226 15.706 17.598 15.5941 17.8176C15.3714 18.2546 15.0161 18.6099 14.5791 18.8326C14.3595 18.9445 14.0841 19.013 13.6443 19.0489C13.1988 19.0853 12.6299 19.0857 11.8313 19.0857H5.69243C4.89382 19.0857 4.32494 19.0853 3.87937 19.0489C3.43964 19.013 3.16424 18.9445 2.94459 18.8326C2.5076 18.6099 2.15231 18.2546 1.92965 17.8176C1.81773 17.598 1.74923 17.3226 1.71331 16.8829C1.6769 16.4373 1.67651 15.8684 1.67651 15.0698V8.93096C1.67651 8.13235 1.6769 7.56346 1.71331 7.1179C1.74923 6.67817 1.81773 6.40276 1.92965 6.18312C2.15231 5.74612 2.5076 5.39083 2.94459 5.16817ZM20.3529 8.0957C20.8104 7.73624 21.1266 7.48845 21.375 7.32737C21.6308 7.16151 21.7331 7.14436 21.7683 7.14454C21.9453 7.14543 22.1124 7.22662 22.2224 7.36526C22.2444 7.39288 22.2941 7.48388 22.3217 7.78748C22.3485 8.08233 22.349 8.48403 22.349 9.06585V14.9349C22.349 15.5167 22.3485 15.9184 22.3217 16.2132C22.2941 16.5168 22.2444 16.6078 22.2224 16.6355C22.1124 16.7741 21.9453 16.8553 21.7683 16.8562C21.7331 16.8564 21.6308 16.8392 21.375 16.6733C21.1266 16.5123 20.8104 16.2645 20.3529 15.905L17.3188 13.5211C17.0534 13.3126 16.9982 13.2637 16.9605 13.2123C16.9187 13.1554 16.8876 13.0914 16.8686 13.0234C16.8516 12.962 16.8473 12.8884 16.8473 12.5509V11.4498C16.8473 11.1124 16.8516 11.0387 16.8686 10.9773C16.8876 10.9093 16.9187 10.8453 16.9605 10.7884C16.9982 10.7371 17.0534 10.6882 17.3188 10.4797L20.3529 8.0957Z" fill="black"/>
</svg>
