<svg width="24" height="24" viewBox="0 0 24 24" fill="none" xmlns="http://www.w3.org/2000/svg">
<path d="M1.62148 2.08199C1.42622 1.88673 1.10964 1.88673 0.914373 2.08199C0.719112 2.27726 0.719112 2.59384 0.914373 2.7891L18.4702 20.345C18.6655 20.5402 18.9821 20.5402 19.1773 20.345C19.3726 20.1497 19.3726 19.8331 19.1773 19.6378L1.62148 2.08199Z" fill="black"/>
<path fill-rule="evenodd" clip-rule="evenodd" d="M5.66984 3.91422C5.38135 3.91422 5.11549 3.91422 4.87 3.91631L5.86791 4.91422H11.8308C12.6294 4.91422 13.1983 4.91461 13.6438 4.95101C14.0836 4.98694 14.359 5.05544 14.5786 5.16735C15.0156 5.39001 15.3709 5.7453 15.5936 6.1823C15.7055 6.40194 15.774 6.67735 15.8099 7.11708C15.8463 7.56264 15.8467 8.13153 15.8467 8.93014V14.893L16.8446 15.8909C16.8467 15.6454 16.8467 15.3796 16.8467 15.0911V14.4214L19.7547 16.7063C20.1873 17.0462 20.5392 17.3227 20.8305 17.5116C21.1188 17.6985 21.4303 17.8571 21.7729 17.8553C22.2532 17.8529 22.7065 17.6326 23.0051 17.2564C23.2182 16.9881 23.2859 16.6452 23.3171 16.303C23.3485 15.9573 23.3485 15.5098 23.3485 14.9596V9.03954C23.3485 8.48935 23.3485 8.04175 23.3171 7.69609C23.2859 7.35384 23.2182 7.01096 23.0051 6.74265C22.7065 6.36646 22.2532 6.14616 21.7729 6.14373C21.4303 6.142 21.1188 6.30054 20.8305 6.48751C20.5392 6.67635 20.1873 6.95288 19.7547 7.29281L16.8467 9.57764V8.90802C16.8467 8.13639 16.8467 7.5267 16.8066 7.03564C16.7656 6.53407 16.6803 6.11242 16.4846 5.72831C16.166 5.10315 15.6578 4.59488 15.0326 4.27634C14.6485 4.08063 14.2268 3.99531 13.7253 3.95433C13.2342 3.91421 12.6245 3.91422 11.8529 3.91422H5.66984ZM20.3524 8.09488C20.8099 7.73542 21.1261 7.48763 21.3745 7.32655C21.6303 7.16069 21.7326 7.14354 21.7678 7.14372C21.9448 7.14461 22.1119 7.2258 22.222 7.36444C22.2439 7.39206 22.2936 7.48306 22.3212 7.78666C22.348 8.08151 22.3485 8.48321 22.3485 9.06503V14.934C22.3485 15.5159 22.348 15.9176 22.3212 16.2124C22.2936 16.516 22.2439 16.607 22.222 16.6346C22.1119 16.7733 21.9448 16.8545 21.7678 16.8554C21.7326 16.8555 21.6303 16.8384 21.3745 16.6725C21.1261 16.5115 20.8099 16.2637 20.3524 15.9042L17.3183 13.5202C17.053 13.3117 16.9977 13.2628 16.96 13.2115C16.9182 13.1546 16.8871 13.0906 16.8681 13.0226C16.8511 12.9612 16.8468 12.8875 16.8468 12.5501V11.449C16.8468 11.1115 16.8511 11.0379 16.8681 10.9765C16.8871 10.9085 16.9182 10.8445 16.96 10.7876C16.9977 10.7362 17.053 10.6873 17.3183 10.4788L20.3524 8.09488Z" fill="black"/>
<path d="M1.62391 4.91286L2.33107 5.62002C2.17078 5.78535 2.03499 5.97459 1.92916 6.1823C1.81724 6.40194 1.74875 6.67735 1.71282 7.11708C1.67641 7.56264 1.67603 8.13153 1.67603 8.93014V15.069C1.67603 15.8676 1.67641 16.4365 1.71282 16.882C1.74875 17.3218 1.81724 17.5972 1.92916 17.8168C2.15182 18.2538 2.50711 18.6091 2.94411 18.8318C3.16375 18.9437 3.43915 19.0122 3.87888 19.0481C4.32445 19.0845 4.89333 19.0849 5.69194 19.0849H11.8308C12.6294 19.0849 13.1983 19.0845 13.6438 19.0481C14.0836 19.0122 14.359 18.9437 14.5786 18.8318C14.7863 18.7259 14.9756 18.5901 15.1409 18.4298L15.8481 19.137C15.6089 19.371 15.3344 19.569 15.0326 19.7228C14.6485 19.9185 14.2268 20.0038 13.7253 20.0448C13.2343 20.0849 12.6246 20.0849 11.853 20.0849H5.66983C4.89827 20.0849 4.28847 20.0849 3.79745 20.0448C3.29588 20.0038 2.87423 19.9185 2.49011 19.7228C1.86496 19.4042 1.35669 18.896 1.03815 18.2708C0.842436 17.8867 0.75712 17.465 0.716139 16.9635C0.67602 16.4724 0.676022 15.8627 0.676025 15.0911V8.90804C0.676022 8.1364 0.67602 7.5267 0.716139 7.03564C0.75712 6.53407 0.842436 6.11242 1.03815 5.72831C1.19192 5.42652 1.3899 5.15197 1.62391 4.91286Z" fill="black"/>
</svg>
