<svg width="24" height="24" viewBox="0 0 24 24" fill="none" xmlns="http://www.w3.org/2000/svg">
<path fill-rule="evenodd" clip-rule="evenodd" d="M13.25 1.5C13.25 0.809644 12.6904 0.25 12 0.25C11.3096 0.25 10.75 0.809644 10.75 1.5V4H6.36724C5.86959 4 5.44766 4.36593 5.37729 4.85858L3.663 16.8586C3.57694 17.461 4.0444 18 4.65295 18H6.05528L3.46721 21.7958C3.07831 22.3662 3.22544 23.1439 3.79583 23.5328C4.36622 23.9217 5.14388 23.7746 5.53278 23.2042L9.08108 18H10.75V22C10.75 22.6904 11.3096 23.25 12 23.25C12.6904 23.25 13.25 22.6904 13.25 22V18H14.9189L18.4672 23.2042C18.8561 23.7746 19.6338 23.9217 20.2042 23.5328C20.7746 23.1439 20.9217 22.3662 20.5328 21.7958L17.9447 18H19.3469C19.9555 18 20.4229 17.461 20.3369 16.8586L18.6226 4.85858C18.5522 4.36593 18.1303 4 17.6326 4H13.25V1.5ZM6.38246 15.5L7.66818 6.5H16.3317L17.6174 15.5H6.38246Z" fill="black"/>
</svg>
