<svg width="24" height="24" viewBox="0 0 24 24" fill="none" xmlns="http://www.w3.org/2000/svg">
<path fill-rule="evenodd" clip-rule="evenodd" d="M12.7496 1.5C12.7496 1.08579 12.4138 0.75 11.9996 0.75C11.5854 0.75 11.2496 1.08579 11.2496 1.5V3.5H6.36682C5.86917 3.5 5.44725 3.86593 5.37687 4.35858L3.66258 16.3586C3.57652 16.961 4.04398 17.5 4.65253 17.5H7.00092L3.8799 22.0775C3.64656 22.4197 3.73483 22.8863 4.07707 23.1197C4.4193 23.353 4.8859 23.2647 5.11924 22.9225L8.8164 17.5H11.2496V22C11.2496 22.4142 11.5854 22.75 11.9996 22.75C12.4138 22.75 12.7496 22.4142 12.7496 22V17.5H15.1827L18.8799 22.9225C19.1132 23.2647 19.5798 23.353 19.9221 23.1197C20.2643 22.8863 20.3526 22.4197 20.1192 22.0775L16.9982 17.5H19.3465C19.9551 17.5 20.4225 16.961 20.3365 16.3586L18.6222 4.35858C18.5518 3.86593 18.1299 3.5 17.6322 3.5H12.7496V1.5ZM5.22904 16L6.80047 5H17.1986L18.77 16H5.22904Z" fill="black"/>
</svg>
