<svg width="24" height="24" viewBox="0 0 24 24" fill="none" xmlns="http://www.w3.org/2000/svg">
<path d="M12.0001 0.75C12.1382 0.75 12.2501 0.861929 12.2501 1V3H11.7501V1C11.7501 0.861929 11.862 0.75 12.0001 0.75Z" fill="black"/>
<path d="M7.26571 18L4.29355 22.3592C4.21577 22.4732 4.24519 22.6288 4.35927 22.7066C4.47335 22.7843 4.62888 22.7549 4.70666 22.6408L7.87087 18H7.26571Z" fill="black"/>
<path d="M11.7501 18V22C11.7501 22.1381 11.862 22.25 12.0001 22.25C12.1382 22.25 12.2501 22.1381 12.2501 22V18H11.7501Z" fill="black"/>
<path d="M16.1293 18L19.2935 22.6408C19.3713 22.7549 19.5269 22.7843 19.6409 22.7066C19.755 22.6288 19.7844 22.4732 19.7067 22.3592L16.7345 18H16.1293Z" fill="black"/>
<path d="M6.36731 3.5C5.86966 3.5 5.44773 3.86593 5.37736 4.35858L3.66307 16.3586C3.57701 16.961 4.04447 17.5 4.65302 17.5H19.347C19.9555 17.5 20.423 16.961 20.337 16.3586L18.6227 4.35858C18.5523 3.86593 18.1304 3.5 17.6327 3.5H6.36731Z" fill="black"/>
</svg>
