<svg width="24" height="24" viewBox="0 0 24 24" fill="none" xmlns="http://www.w3.org/2000/svg">
<path d="M11.9999 0.25C12.6903 0.25 13.2499 0.809644 13.2499 1.5V2H10.7499V1.5C10.7499 0.809644 11.3095 0.25 11.9999 0.25Z" fill="black"/>
<path d="M4.69164 20L3.46721 21.7958C3.07831 22.3662 3.22544 23.1439 3.79583 23.5328C4.36622 23.9217 5.14388 23.7746 5.53278 23.2042L7.71745 20H4.69164Z" fill="black"/>
<path d="M10.7499 20V22.5C10.7499 23.1904 11.3095 23.75 11.9999 23.75C12.6903 23.75 13.2499 23.1904 13.2499 22.5V20H10.7499Z" fill="black"/>
<path d="M16.2826 20L18.4672 23.2042C18.8561 23.7746 19.6338 23.9217 20.2042 23.5328C20.7746 23.1439 20.9217 22.3662 20.5328 21.7958L19.3084 20H16.2826Z" fill="black"/>
<path d="M6.36717 4C5.86952 4 5.4476 4.36593 5.37722 4.85858L3.66294 16.8586C3.57688 17.461 4.04434 18 4.65289 18H19.3469C19.9174 18 20.3639 17.5263 20.3466 16.9707C20.3454 16.9336 20.3422 16.8962 20.3368 16.8586L18.6225 4.85858C18.5522 4.36593 18.1302 4 17.6326 4H6.36717Z" fill="black"/>
</svg>
