<svg width="24" height="24" viewBox="0 0 24 24" fill="none" xmlns="http://www.w3.org/2000/svg">
<path d="M12.0001 0.25C12.4143 0.25 12.7501 0.585786 12.7501 1V2H11.2501V1C11.2501 0.585786 11.5859 0.25 12.0001 0.25Z" fill="black"/>
<path d="M5.97873 19L3.88044 22.0775C3.64709 22.4197 3.73537 22.8863 4.0776 23.1197C4.41984 23.353 4.88644 23.2647 5.11978 22.9225L7.79421 19H5.97873Z" fill="black"/>
<path d="M11.2501 19V22C11.2501 22.4142 11.5859 22.75 12.0001 22.75C12.4143 22.75 12.7501 22.4142 12.7501 22V19H11.2501Z" fill="black"/>
<path d="M16.206 19L18.8804 22.9225C19.1138 23.2647 19.5804 23.353 19.9226 23.1197C20.2648 22.8863 20.3531 22.4197 20.1198 22.0775L18.0215 19H16.206Z" fill="black"/>
<path d="M6.36731 3.5C5.86966 3.5 5.44773 3.86593 5.37736 4.35858L3.66307 16.3586C3.57701 16.961 4.04447 17.5 4.65302 17.5H19.347C19.9175 17.5 20.364 17.0263 20.3467 16.4707C20.3455 16.4336 20.3423 16.3962 20.337 16.3586L18.6227 4.35858C18.5523 3.86593 18.1304 3.5 17.6327 3.5H6.36731Z" fill="black"/>
</svg>
