<svg width="24" height="24" viewBox="0 0 24 24" fill="none" xmlns="http://www.w3.org/2000/svg">
<path fill-rule="evenodd" clip-rule="evenodd" d="M12.2496 1.5C12.2496 1.36193 12.1376 1.25 11.9996 1.25C11.8615 1.25 11.7496 1.36193 11.7496 1.5V3.5H6.36682C5.86917 3.5 5.44725 3.86593 5.37687 4.35858L3.66258 16.3586C3.57652 16.961 4.04398 17.5 4.65253 17.5H7.60608L4.29301 22.3592C4.21523 22.4732 4.24466 22.6288 4.35874 22.7066C4.47281 22.7843 4.62835 22.7549 4.70613 22.6408L8.21124 17.5H11.7496V22C11.7496 22.1381 11.8615 22.25 11.9996 22.25C12.1376 22.25 12.2496 22.1381 12.2496 22V17.5H15.7879L19.293 22.6408C19.3708 22.7549 19.5263 22.7843 19.6404 22.7066C19.7545 22.6288 19.7839 22.4732 19.7061 22.3592L16.3931 17.5H19.3465C19.9551 17.5 20.4225 16.961 20.3365 16.3586L18.6222 4.35858C18.5518 3.86593 18.1299 3.5 17.6322 3.5H12.2496V1.5ZM6.36682 4H17.6322C17.8811 4 18.092 4.18296 18.1272 4.42929L19.8415 16.4293C19.8845 16.7305 19.6508 17 19.3465 17H4.65253C4.34826 17 4.11453 16.7305 4.15756 16.4293L5.87184 4.42929C5.90703 4.18296 6.11799 4 6.36682 4Z" fill="black"/>
</svg>
