<svg width="24" height="24" viewBox="0 0 24 24" fill="none" xmlns="http://www.w3.org/2000/svg">
<path fill-rule="evenodd" clip-rule="evenodd" d="M12.7501 1.5C12.7501 1.08579 12.4143 0.75 12.0001 0.75C11.5858 0.75 11.2501 1.08579 11.2501 1.5V3.5H6.36731C5.86966 3.5 5.44773 3.86593 5.37736 4.35858L3.66307 16.3586C3.57701 16.961 4.04447 17.5 4.65302 17.5H7.00141L3.88039 22.0775C3.64705 22.4197 3.73532 22.8863 4.07756 23.1197C4.41979 23.353 4.88639 23.2647 5.11973 22.9225L8.81689 17.5H11.2501V22C11.2501 22.4142 11.5858 22.75 12.0001 22.75C12.4143 22.75 12.7501 22.4142 12.7501 22V17.5H15.1832L18.8804 22.9225C19.1137 23.2647 19.5803 23.353 19.9226 23.1197C20.2648 22.8863 20.3531 22.4197 20.1197 22.0775L16.9987 17.5H19.347C19.9555 17.5 20.423 16.961 20.337 16.3586L18.6227 4.35858C18.5523 3.86593 18.1304 3.5 17.6327 3.5H12.7501V1.5ZM5.22952 16L6.80095 5H17.1991L18.7705 16H5.22952Z" fill="black"/>
</svg>
