<svg width="24" height="24" viewBox="0 0 24 24" fill="none" xmlns="http://www.w3.org/2000/svg">
<path fill-rule="evenodd" clip-rule="evenodd" d="M13.0001 1.5C13.0001 0.947715 12.5524 0.5 12.0001 0.5C11.4478 0.5 11.0001 0.947715 11.0001 1.5V3.5H6.36734C5.86969 3.5 5.44777 3.86593 5.37739 4.35858L3.66311 16.3586C3.57705 16.961 4.04451 17.5 4.65306 17.5H6.69887L3.67387 21.9367C3.36275 22.393 3.48045 23.0151 3.93676 23.3262C4.39307 23.6374 5.0152 23.5196 5.32632 23.0633L9.11951 17.5H11.0001V22C11.0001 22.5523 11.4478 23 12.0001 23C12.5524 23 13.0001 22.5523 13.0001 22V17.5H14.8807L18.6739 23.0633C18.985 23.5196 19.6071 23.6374 20.0634 23.3262C20.5197 23.0151 20.6374 22.393 20.3263 21.9367L17.3013 17.5H19.347C19.9556 17.5 20.423 16.961 20.337 16.3586L18.6227 4.35858C18.5523 3.86593 18.1304 3.5 17.6328 3.5H13.0001V1.5ZM5.80607 15.5L7.23464 5.5H16.7655L18.194 15.5H5.80607Z" fill="black"/>
</svg>
