<svg width="24" height="24" viewBox="0 0 24 24" fill="none" xmlns="http://www.w3.org/2000/svg">
<path fill-rule="evenodd" clip-rule="evenodd" d="M13.2501 1.5C13.2501 0.809644 12.6905 0.25 12.0001 0.25C11.3098 0.25 10.7501 0.809644 10.7501 1.5V4H6.36736C5.86971 4 5.44779 4.36593 5.37741 4.85858L3.66312 16.8586C3.57706 17.461 4.04452 18 4.65307 18H6.0554L3.46734 21.7958C3.07843 22.3662 3.22556 23.1439 3.79595 23.5328C4.36634 23.9217 5.144 23.7746 5.53291 23.2042L9.0812 18H10.7501V22C10.7501 22.6904 11.3098 23.25 12.0001 23.25C12.6905 23.25 13.2501 22.6904 13.2501 22V18H14.919L18.4673 23.2042C18.8562 23.7746 19.6339 23.9217 20.2043 23.5328C20.7747 23.1439 20.9218 22.3662 20.5329 21.7958L17.9448 18H19.3471C19.9556 18 20.4231 17.461 20.337 16.8586L18.6227 4.85858C18.5523 4.36593 18.1304 4 17.6328 4H13.2501V1.5ZM6.38259 15.5L7.6683 6.5H16.3318L17.6175 15.5H6.38259Z" fill="black"/>
</svg>
