<svg width="24" height="24" viewBox="0 0 24 24" fill="none" xmlns="http://www.w3.org/2000/svg">
<path d="M12.0001 0C12.5524 0 13.0001 0.447715 13.0001 1V1.5H11.0001V1C11.0001 0.447715 11.4478 0 12.0001 0Z" fill="black"/>
<path d="M5.33523 19.5L3.67387 21.9367C3.36275 22.393 3.48045 23.0151 3.93676 23.3262C4.39307 23.6374 5.0152 23.5196 5.32632 23.0633L7.75587 19.5H5.33523Z" fill="black"/>
<path d="M11.0001 19.5V22C11.0001 22.5523 11.4478 23 12.0001 23C12.5524 23 13.0001 22.5523 13.0001 22V19.5H11.0001Z" fill="black"/>
<path d="M16.2443 19.5L18.6739 23.0633C18.985 23.5196 19.6071 23.6374 20.0634 23.3262C20.5197 23.0151 20.6374 22.393 20.3263 21.9367L18.665 19.5H16.2443Z" fill="black"/>
<path d="M6.3673 3.5C5.86965 3.5 5.44772 3.86593 5.37735 4.35858L3.66306 16.3586C3.58776 16.8857 3.93624 17.3643 4.43222 17.4757C4.50308 17.4916 4.57694 17.5 4.65301 17.5H19.347C19.9175 17.5 20.364 17.0263 20.3467 16.4707C20.3455 16.4336 20.3423 16.3962 20.3369 16.3586L18.6227 4.35858C18.5523 3.86593 18.1304 3.5 17.6327 3.5H6.3673Z" fill="black"/>
</svg>
