<svg width="24" height="24" viewBox="0 0 24 24" fill="none" xmlns="http://www.w3.org/2000/svg">
<path fill-rule="evenodd" clip-rule="evenodd" d="M12.2451 1.6011C12.1089 1.4663 11.8892 1.4663 11.7531 1.6011L1.85241 11.4048C1.62758 11.6274 1.792 12 2.09839 12H7.74933V16C7.74933 16.1381 7.86126 16.25 7.99933 16.25H15.9993C16.1374 16.25 16.2493 16.1381 16.2493 16V12H21.8998C22.2062 12 22.3706 11.6274 22.1458 11.4048L12.2451 1.6011ZM11.9991 2.06118L21.5313 11.5H15.9993C15.8613 11.5 15.7493 11.6119 15.7493 11.75V15.75H8.24933V11.75C8.24933 11.6119 8.1374 11.5 7.99933 11.5H2.4669L11.9991 2.06118ZM2.20422 11.7601C2.2041 11.7602 2.20433 11.76 2.20422 11.7601Z" fill="black"/>
<path fill-rule="evenodd" clip-rule="evenodd" d="M16.2491 17.75C16.2491 17.6119 16.1372 17.5 15.9991 17.5H7.99908C7.86101 17.5 7.74908 17.6119 7.74908 17.75V20.75C7.74908 20.8881 7.86101 21 7.99908 21H15.9991C16.1372 21 16.2491 20.8881 16.2491 20.75V17.75ZM15.7491 18V20.5H8.24908V18H15.7491Z" fill="black"/>
</svg>
