<svg width="24" height="24" viewBox="0 0 24 24" fill="none" xmlns="http://www.w3.org/2000/svg">
<path d="M13.1889 14.1892C13.1889 13.5324 12.6565 13 11.9997 13C11.343 13 10.8105 13.5324 10.8105 14.1892C10.8105 14.846 11.343 15.3784 11.9997 15.3784C12.6565 15.3784 13.1889 14.846 13.1889 14.1892Z" fill="black"/>
<path fill-rule="evenodd" clip-rule="evenodd" d="M11.9997 18.7568C9.4771 18.7568 7.43213 16.7118 7.43213 14.1892C7.43213 11.6666 9.4771 9.62162 11.9997 9.62162C14.5223 9.62162 16.5673 11.6666 16.5673 14.1892C16.5673 16.7118 14.5223 18.7568 11.9997 18.7568ZM9.43213 14.1892C9.43213 15.6072 10.5817 16.7568 11.9997 16.7568C13.4177 16.7568 14.5673 15.6072 14.5673 14.1892C14.5673 12.7712 13.4177 11.6216 11.9997 11.6216C10.5817 11.6216 9.43213 12.7712 9.43213 14.1892Z" fill="black"/>
<path fill-rule="evenodd" clip-rule="evenodd" d="M12 22C6.47715 22 2 17.5228 2 12C2 10.8233 2.20366 9.69252 2.57801 8.64217C1.63837 8.13547 1 7.14238 1 6V3H23V6C23 7.14238 22.3616 8.13547 21.422 8.64217C21.7963 9.69252 22 10.8233 22 12C22 17.5228 17.5228 22 12 22ZM4 12C4 16.4183 7.58172 20 12 20C16.4183 20 20 16.4183 20 12C20 10.9223 19.7874 9.89627 19.4025 8.96H4.59755C4.21258 9.89627 4 10.9223 4 12ZM3.71879 6.96C3.30358 6.83859 3 6.45461 3 6V5H21V6C21 6.45461 20.6964 6.83859 20.2812 6.96H3.71879Z" fill="black"/>
</svg>
