<svg width="24" height="24" viewBox="0 0 24 24" fill="none" xmlns="http://www.w3.org/2000/svg">
<path d="M13.1889 14.1892C13.1889 13.5324 12.6565 13 11.9997 13C11.343 13 10.8105 13.5324 10.8105 14.1892C10.8105 14.846 11.343 15.3784 11.9997 15.3784C12.6565 15.3784 13.1889 14.846 13.1889 14.1892Z" fill="black"/>
<path fill-rule="evenodd" clip-rule="evenodd" d="M11.9997 19.0068C9.33903 19.0068 7.18213 16.8499 7.18213 14.1892C7.18213 11.5285 9.33903 9.37162 11.9997 9.37162C14.6604 9.37162 16.8173 11.5285 16.8173 14.1892C16.8173 16.8499 14.6604 19.0068 11.9997 19.0068ZM9.68213 14.1892C9.68213 15.4691 10.7197 16.5068 11.9997 16.5068C13.2797 16.5068 14.3173 15.4691 14.3173 14.1892C14.3173 12.9092 13.2797 11.8716 11.9997 11.8716C10.7197 11.8716 9.68213 12.9092 9.68213 14.1892Z" fill="black"/>
<path fill-rule="evenodd" clip-rule="evenodd" d="M12 22.25C6.33908 22.25 1.75 17.6609 1.75 12C1.75 10.8671 1.93423 9.77555 2.27475 8.7547C1.35878 8.17993 0.75 7.16116 0.75 6V2.75H23.25V6C23.25 7.16116 22.6412 8.17993 21.7253 8.7547C22.0658 9.77554 22.25 10.8671 22.25 12C22.25 17.6609 17.6609 22.25 12 22.25ZM4.25 12C4.25 16.2802 7.71979 19.75 12 19.75C16.2802 19.75 19.75 16.2802 19.75 12C19.75 10.8212 19.4876 9.70687 19.0191 8.70946H4.98089C4.51236 9.70687 4.25 10.8212 4.25 12ZM3.28526 6.22784C3.26236 6.15598 3.25 6.07942 3.25 6V5.25H20.75V6C20.75 6.07942 20.7376 6.15598 20.7147 6.22784C20.645 6.21576 20.5732 6.20946 20.5 6.20946H3.5C3.42678 6.20946 3.35503 6.21576 3.28526 6.22784Z" fill="black"/>
</svg>
