<svg width="24" height="24" viewBox="0 0 24 24" fill="none" xmlns="http://www.w3.org/2000/svg">
<path d="M11.3106 14.1892C11.3106 14.5698 11.6191 14.8784 11.9998 14.8784C12.3804 14.8784 12.689 14.5698 12.689 14.1892C12.689 13.8086 12.3804 13.5 11.9998 13.5C11.6191 13.5 11.3106 13.8086 11.3106 14.1892Z" fill="black"/>
<path fill-rule="evenodd" clip-rule="evenodd" d="M11.9997 17.2568C10.3056 17.2568 8.93216 15.8834 8.93216 14.1892C8.93216 12.495 10.3056 11.1216 11.9997 11.1216C13.6939 11.1216 15.0673 12.495 15.0673 14.1892C15.0673 15.8834 13.6939 17.2568 11.9997 17.2568ZM11.9998 15.8784C11.0669 15.8784 10.3106 15.1221 10.3106 14.1892C10.3106 13.2563 11.0669 12.5 11.9998 12.5C12.9327 12.5 13.689 13.2563 13.689 14.1892C13.689 15.1221 12.9327 15.8784 11.9998 15.8784Z" fill="black"/>
<path fill-rule="evenodd" clip-rule="evenodd" d="M2.5 12C2.5 17.2467 6.75329 21.5 12 21.5C17.2467 21.5 21.5 17.2467 21.5 12C21.5 10.7495 21.2581 9.55451 20.8184 8.46H3.18162C2.74186 9.55451 2.5 10.7495 2.5 12ZM7.93216 14.1892C7.93216 16.4356 9.75327 18.2568 11.9997 18.2568C14.2462 18.2568 16.0673 16.4356 16.0673 14.1892C16.0673 11.9427 14.2462 10.1216 11.9997 10.1216C9.75327 10.1216 7.93216 11.9427 7.93216 14.1892Z" fill="black"/>
<path d="M1.97038 7.46C1.67437 7.04924 1.5 6.545 1.5 6V3.5H22.5V6C22.5 6.545 22.3256 7.04924 22.0296 7.46H1.97038Z" fill="black"/>
</svg>
