<svg width="24" height="24" viewBox="0 0 24 24" fill="none" xmlns="http://www.w3.org/2000/svg">
<path d="M11.0605 14.1892C11.0605 14.7079 11.481 15.1284 11.9997 15.1284C12.5184 15.1284 12.9389 14.7079 12.9389 14.1892C12.9389 13.6705 12.5184 13.25 11.9997 13.25C11.481 13.25 11.0605 13.6705 11.0605 14.1892Z" fill="black"/>
<path fill-rule="evenodd" clip-rule="evenodd" d="M11.9997 17.5068C10.1675 17.5068 8.68213 16.0214 8.68213 14.1892C8.68213 12.357 10.1675 10.8716 11.9997 10.8716C13.8319 10.8716 15.3173 12.357 15.3173 14.1892C15.3173 16.0214 13.8319 17.5068 11.9997 17.5068ZM11.9997 15.6284C11.2049 15.6284 10.5605 14.984 10.5605 14.1892C10.5605 13.3944 11.2049 12.75 11.9997 12.75C12.7946 12.75 13.4389 13.3944 13.4389 14.1892C13.4389 14.984 12.7946 15.6284 11.9997 15.6284Z" fill="black"/>
<path fill-rule="evenodd" clip-rule="evenodd" d="M2.75 12C2.75 17.1086 6.89137 21.25 12 21.25C17.1086 21.25 21.25 17.1086 21.25 12C21.25 10.65 20.9606 9.36692 20.4404 8.21H3.55965C3.03937 9.36692 2.75 10.65 2.75 12ZM8.18213 14.1892C8.18213 16.2976 9.89131 18.0068 11.9997 18.0068C14.1081 18.0068 15.8173 16.2976 15.8173 14.1892C15.8173 12.0808 14.1081 10.3716 11.9997 10.3716C9.89131 10.3716 8.18213 12.0808 8.18213 14.1892Z" fill="black"/>
<path d="M2.53762 7.71C2.05551 7.29734 1.75 6.68436 1.75 6V3.75H22.25V6C22.25 6.68436 21.9445 7.29734 21.4624 7.71H2.53762Z" fill="black"/>
</svg>
