<svg width="24" height="24" viewBox="0 0 24 24" fill="none" xmlns="http://www.w3.org/2000/svg">
<path fill-rule="evenodd" clip-rule="evenodd" d="M11.9997 17.7568C10.5817 17.7568 9.43213 16.6072 9.43213 15.1892C9.43213 13.7712 10.5817 12.6216 11.9997 12.6216C13.4177 12.6216 14.5673 13.7712 14.5673 15.1892C14.5673 16.6072 13.4177 17.7568 11.9997 17.7568ZM11.9997 14C12.6565 14 13.1889 14.5324 13.1889 15.1892C13.1889 15.846 12.6565 16.3784 11.9997 16.3784C11.343 16.3784 10.8105 15.846 10.8105 15.1892C10.8105 14.5324 11.343 14 11.9997 14Z" fill="black"/>
<path fill-rule="evenodd" clip-rule="evenodd" d="M2 12C2 17.5228 6.47715 22 12 22C17.5228 22 22 17.5228 22 12C22 10.9411 21.8351 9.91938 21.5293 8.96H2.47074C2.16492 9.91938 2 10.9411 2 12ZM7.43213 15.1892C7.43213 17.7118 9.4771 19.7568 11.9997 19.7568C14.5223 19.7568 16.5673 17.7118 16.5673 15.1892C16.5673 12.6666 14.5223 10.6216 11.9997 10.6216C9.4771 10.6216 7.43213 12.6666 7.43213 15.1892Z" fill="black"/>
<path d="M1.1756 7.0138C1.06193 6.69714 1 6.35581 1 6V3H23V6C23 6.35581 22.9381 6.69714 22.8244 7.0138C22.7227 6.97893 22.6135 6.96 22.5 6.96H1.5C1.38645 6.96 1.27732 6.97893 1.1756 7.0138Z" fill="black"/>
</svg>
