<svg width="24" height="24" viewBox="0 0 24 24" fill="none" xmlns="http://www.w3.org/2000/svg">
<path d="M4.19643 19.8036C2.45047 18.0577 2.45047 15.2269 4.19643 13.4809L7.29119 10.3862C7.68171 9.99566 7.68171 9.3625 7.29119 8.97197C6.90066 8.58145 6.2675 8.58145 5.87697 8.97197L2.78222 12.0667C0.25521 14.5937 0.255212 18.6908 2.78222 21.2178C5.30922 23.7448 9.40631 23.7448 11.9333 21.2178L15.0281 18.1231C15.4186 17.7326 15.4186 17.0994 15.0281 16.7089C14.6376 16.3183 14.0044 16.3183 13.6139 16.7089L10.5191 19.8036C8.77315 21.5496 5.94239 21.5496 4.19643 19.8036Z" fill="black"/>
<path d="M9.74542 5.10353C9.35489 5.49405 9.35489 6.12722 9.74542 6.51774C10.1359 6.90827 10.7691 6.90827 11.1596 6.51774L13.4807 4.19667C15.2267 2.45072 18.0574 2.45072 19.8034 4.19668C21.5493 5.94264 21.5493 8.77339 19.8034 10.5194L17.4823 12.8404C17.0918 13.2309 17.0918 13.8641 17.4823 14.2546C17.8728 14.6452 18.506 14.6452 18.8965 14.2546L21.2176 11.9336C23.7446 9.40656 23.7446 5.30947 21.2176 2.78246C18.6906 0.255457 14.5935 0.255453 12.0665 2.78246L9.74542 5.10353Z" fill="black"/>
<path d="M16.576 8.83984C16.9666 8.44932 16.9666 7.81615 16.576 7.42563C16.1855 7.03511 15.5524 7.03511 15.1618 7.42563L7.42494 15.1625C7.03442 15.553 7.03442 16.1862 7.42494 16.5767C7.81547 16.9673 8.44863 16.9673 8.83916 16.5767L16.576 8.83984Z" fill="black"/>
</svg>
