<svg width="24" height="24" viewBox="0 0 24 24" fill="none" xmlns="http://www.w3.org/2000/svg">
<path d="M4.37321 19.6264C2.72488 17.978 2.72488 15.3056 4.37321 13.6572L7.46796 10.5625C7.95612 10.0743 7.95612 9.28286 7.46796 8.79471C6.97981 8.30655 6.18835 8.30655 5.7002 8.79471L2.60544 11.8895C-0.0191977 14.5141 -0.0191953 18.7695 2.60544 21.3941C5.23008 24.0188 9.48546 24.0188 12.1101 21.3941L15.2049 18.2994C15.693 17.8112 15.693 17.0198 15.2049 16.5316C14.7167 16.0434 13.9252 16.0434 13.4371 16.5316L10.3423 19.6264C8.694 21.2747 6.02154 21.2747 4.37321 19.6264Z" fill="black"/>
<path d="M9.56864 4.92626C9.08049 5.41442 9.08049 6.20587 9.56864 6.69403C10.0568 7.18219 10.8483 7.18219 11.3364 6.69403L13.6575 4.37296C15.3058 2.72464 17.9783 2.72464 19.6266 4.37296C21.2749 6.02129 21.2749 8.69376 19.6266 10.3421L17.3055 12.6632C16.8174 13.1513 16.8174 13.9428 17.3055 14.4309C17.7937 14.9191 18.5851 14.9191 19.0733 14.4309L21.3944 12.1099C24.019 9.48521 24.019 5.22984 21.3944 2.6052C18.7697 -0.0194383 14.5143 -0.0194428 11.8897 2.6052L9.56864 4.92626Z" fill="black"/>
<path d="M16.7528 9.01613C17.241 8.52798 17.241 7.73652 16.7528 7.24836C16.2647 6.76021 15.4732 6.76021 14.9851 7.24836L7.24817 14.9853C6.76001 15.4734 6.76001 16.2649 7.24817 16.753C7.73632 17.2412 8.52778 17.2412 9.01593 16.753L16.7528 9.01613Z" fill="black"/>
</svg>
