<svg width="24" height="24" viewBox="0 0 24 24" fill="none" xmlns="http://www.w3.org/2000/svg">
<path d="M5 12.5C5.55228 12.5 6 12.9477 6 13.5V22.5C6 23.0523 5.55228 23.5 5 23.5H2C1.44772 23.5 1 23.0523 1 22.5V13.5C1 12.9477 1.44772 12.5 2 12.5H5Z" fill="black"/>
<path d="M13.5 6.5C14.0523 6.5 14.5 6.94772 14.5 7.5V22.5C14.5 23.0523 14.0523 23.5 13.5 23.5H10.5C9.94772 23.5 9.5 23.0523 9.5 22.5V7.5C9.5 6.94772 9.94772 6.5 10.5 6.5H13.5Z" fill="black"/>
<path d="M22 0.5C22.5523 0.5 23 0.947715 23 1.5V22.5C23 23.0523 22.5523 23.5 22 23.5H19C18.4477 23.5 18 23.0523 18 22.5V1.5C18 0.947715 18.4477 0.5 19 0.5H22Z" fill="black"/>
</svg>
