<svg width="24" height="24" viewBox="0 0 24 24" fill="none" xmlns="http://www.w3.org/2000/svg">
<path fill-rule="evenodd" clip-rule="evenodd" d="M4.5 12.5C5.32843 12.5 6 13.1716 6 14V22C6 22.8284 5.32843 23.5 4.5 23.5H2.5C1.67157 23.5 1 22.8284 1 22V14C1 13.1716 1.67157 12.5 2.5 12.5H4.5ZM2.5 13.5C2.22386 13.5 2 13.7239 2 14V22C2 22.2761 2.22386 22.5 2.5 22.5H4.5C4.77614 22.5 5 22.2761 5 22V14C5 13.7239 4.77614 13.5 4.5 13.5H2.5Z" fill="black"/>
<path fill-rule="evenodd" clip-rule="evenodd" d="M13 6.5C13.8284 6.5 14.5 7.17157 14.5 8V22C14.5 22.8284 13.8284 23.5 13 23.5H11C10.1716 23.5 9.5 22.8284 9.5 22V8C9.5 7.17157 10.1716 6.5 11 6.5H13ZM11 7.5C10.7239 7.5 10.5 7.72386 10.5 8V22C10.5 22.2761 10.7239 22.5 11 22.5H13C13.2761 22.5 13.5 22.2761 13.5 22V8C13.5 7.72386 13.2761 7.5 13 7.5H11Z" fill="black"/>
<path fill-rule="evenodd" clip-rule="evenodd" d="M21.5 0.5C22.3284 0.5 23 1.17157 23 2V22C23 22.8284 22.3284 23.5 21.5 23.5H19.5C18.7233 23.5 18.0846 22.9097 18.0078 22.1533L18 22V2C18 1.17157 18.6716 0.5 19.5 0.5H21.5ZM19.5 1.5C19.2239 1.5 19 1.72386 19 2V22L19.0098 22.1006C19.0563 22.3286 19.2583 22.5 19.5 22.5H21.5C21.7761 22.5 22 22.2761 22 22V2C22 1.72386 21.7761 1.5 21.5 1.5H19.5Z" fill="black"/>
</svg>
