<svg width="24" height="24" viewBox="0 0 24 24" fill="none" xmlns="http://www.w3.org/2000/svg">
<path d="M2.00195 1.75C2.14003 1.75 2.25195 1.86193 2.25195 2L2.25195 21.75H22.002C22.14 21.75 22.252 21.8619 22.252 22C22.252 22.1381 22.14 22.25 22.002 22.25H2.25195C1.97581 22.25 1.75195 22.0261 1.75195 21.75L1.75195 2C1.75195 1.86193 1.86388 1.75 2.00195 1.75Z" fill="black"/>
<path d="M21.3789 2.37598C21.4479 2.25645 21.6012 2.2152 21.7207 2.28418C21.8401 2.35329 21.8815 2.50649 21.8125 2.62598L16.3545 12.0742L16.2969 12.1484C16.2304 12.2136 16.1396 12.2511 16.0439 12.249L8.25195 12.0674L3.50195 20.3037V19.3027L7.86231 11.7402C7.92626 11.6293 8.04582 11.5624 8.17383 11.5654L15.9668 11.7471L21.3789 2.37598Z" fill="black"/>
</svg>
