<svg width="24" height="24" viewBox="0 0 24 24" fill="none" xmlns="http://www.w3.org/2000/svg">
<path d="M18.75 10.25C18.75 9.97386 18.5261 9.75 18.25 9.75C17.9739 9.75 17.75 9.97386 17.75 10.25V11.5H16.5C16.2239 11.5 16 11.7239 16 12C16 12.2761 16.2239 12.5 16.5 12.5H17.75V13.75C17.75 14.0261 17.9739 14.25 18.25 14.25C18.5261 14.25 18.75 14.0261 18.75 13.75V12.5H20C20.2761 12.5 20.5 12.2761 20.5 12C20.5 11.7239 20.2761 11.5 20 11.5H18.75V10.25Z" fill="black"/>
<path d="M4.5 11.5C4.22386 11.5 4 11.7239 4 12C4 12.2761 4.22386 12.5 4.5 12.5H8C8.27614 12.5 8.5 12.2761 8.5 12C8.5 11.7239 8.27614 11.5 8 11.5H4.5Z" fill="black"/>
<path fill-rule="evenodd" clip-rule="evenodd" d="M4 5V6C2.59987 6 1.8998 6 1.36502 6.27248C0.894619 6.51217 0.512167 6.89462 0.272484 7.36502C0 7.8998 0 8.59987 0 10V17C0 18.4001 0 19.1002 0.272484 19.635C0.512167 20.1054 0.894619 20.4878 1.36502 20.7275C1.8998 21 2.59987 21 4 21H20C21.4001 21 22.1002 21 22.635 20.7275C23.1054 20.4878 23.4878 20.1054 23.7275 19.635C24 19.1002 24 18.4001 24 17V10C24 8.59987 24 7.8998 23.7275 7.36502C23.4878 6.89462 23.1054 6.51217 22.635 6.27248C22.1002 6 21.4001 6 20 6V5C20 4.44772 19.5523 4 19 4H17C16.4477 4 16 4.44772 16 5V6H8V5C8 4.44772 7.55228 4 7 4H5C4.44772 4 4 4.44772 4 5ZM7 5H5V6H7V5ZM17 6H19V5H17V6ZM4 7C3.28343 7 2.80615 7.00078 2.43944 7.03074C2.0844 7.05975 1.92194 7.11105 1.81901 7.16349C1.53677 7.3073 1.3073 7.53677 1.16349 7.81901C1.11105 7.92194 1.05975 8.0844 1.03074 8.43944C1.00078 8.80615 1 9.28343 1 10V17C1 17.7166 1.00078 18.1938 1.03074 18.5606C1.05975 18.9156 1.11105 19.0781 1.16349 19.181C1.3073 19.4632 1.53677 19.6927 1.81901 19.8365C1.92194 19.889 2.0844 19.9403 2.43944 19.9693C2.80615 19.9992 3.28343 20 4 20H20C20.7166 20 21.1938 19.9992 21.5606 19.9693C21.9156 19.9403 22.0781 19.889 22.181 19.8365C22.4632 19.6927 22.6927 19.4632 22.8365 19.181C22.889 19.0781 22.9403 18.9156 22.9693 18.5606C22.9992 18.1938 23 17.7166 23 17V10C23 9.28343 22.9992 8.80615 22.9693 8.43944C22.9403 8.0844 22.889 7.92194 22.8365 7.81901C22.6927 7.53677 22.4632 7.3073 22.181 7.16349C22.0781 7.11105 21.9156 7.05975 21.5606 7.03074C21.1938 7.00078 20.7166 7 20 7H4Z" fill="black"/>
</svg>
