<svg width="24" height="24" viewBox="0 0 24 24" fill="none" xmlns="http://www.w3.org/2000/svg">
<path d="M2.00195 1.5C2.2781 1.5 2.50195 1.72386 2.50195 2L2.50195 21.5H22.002C22.2781 21.5 22.502 21.7239 22.502 22C22.502 22.2761 22.2781 22.5 22.002 22.5H2.25195C1.83774 22.5 1.50195 22.1642 1.50195 21.75L1.50195 2C1.50195 1.72386 1.72581 1.5 2.00195 1.5Z" fill="black"/>
<path d="M21.1631 2.25098C21.3012 2.01194 21.6066 1.92948 21.8457 2.06738C22.0847 2.20556 22.1664 2.51193 22.0283 2.75098L16.5713 12.1992L16.5254 12.2666C16.4098 12.4154 16.2296 12.5034 16.0381 12.499L8.39356 12.3203L3.82129 20.25H3.75195L3.75195 18.3682L7.64551 11.6152C7.75515 11.4251 7.96025 11.3103 8.17969 11.3154L15.8242 11.4941L21.1631 2.25098Z" fill="black"/>
</svg>
