<svg width="24" height="24" viewBox="0 0 24 24" fill="none" xmlns="http://www.w3.org/2000/svg">
<path d="M5 3C4.44772 3 4 3.44772 4 4V5.5H8V4C8 3.44772 7.55228 3 7 3H5Z" fill="black"/>
<path d="M16 5.5H20V4C20 3.44772 19.5523 3 19 3H17C16.4477 3 16 3.44772 16 4V5.5Z" fill="black"/>
<path fill-rule="evenodd" clip-rule="evenodd" d="M20 6H4C2.59987 6 1.8998 6 1.36502 6.27248C0.894619 6.51217 0.512167 6.89462 0.272484 7.36502C0 7.8998 0 8.59987 0 10V17C0 18.4001 0 19.1002 0.272484 19.635C0.512167 20.1054 0.894619 20.4878 1.36502 20.7275C1.8998 21 2.59987 21 4 21H20C21.4001 21 22.1002 21 22.635 20.7275C23.1054 20.4878 23.4878 20.1054 23.7275 19.635C24 19.1002 24 18.4001 24 17V10C24 8.59987 24 7.8998 23.7275 7.36502C23.4878 6.89462 23.1054 6.51217 22.635 6.27248C22.1002 6 21.4001 6 20 6ZM18.25 10C18.3881 10 18.5 10.1119 18.5 10.25V11.75H20C20.1381 11.75 20.25 11.8619 20.25 12C20.25 12.1381 20.1381 12.25 20 12.25H18.5V13.75C18.5 13.8881 18.3881 14 18.25 14C18.1119 14 18 13.8881 18 13.75V12.25H16.5C16.3619 12.25 16.25 12.1381 16.25 12C16.25 11.8619 16.3619 11.75 16.5 11.75H18V10.25C18 10.1119 18.1119 10 18.25 10ZM4.25 12C4.25 11.8619 4.36193 11.75 4.5 11.75H8C8.13807 11.75 8.25 11.8619 8.25 12C8.25 12.1381 8.13807 12.25 8 12.25H4.5C4.36193 12.25 4.25 12.1381 4.25 12Z" fill="black"/>
</svg>
