<svg width="24" height="24" viewBox="0 0 24 24" fill="none" xmlns="http://www.w3.org/2000/svg">
<path d="M5 2.5C4.44772 2.5 4 2.94772 4 3.5V4.5H8V3.5C8 2.94772 7.55228 2.5 7 2.5H5Z" fill="black"/>
<path d="M20 4.5H16V3.5C16 2.94772 16.4477 2.5 17 2.5H19C19.5523 2.5 20 2.94772 20 3.5V4.5Z" fill="black"/>
<path fill-rule="evenodd" clip-rule="evenodd" d="M20 6H4C2.59987 6 1.8998 6 1.36502 6.27248C0.894619 6.51217 0.512167 6.89462 0.272484 7.36502C0 7.8998 0 8.59987 0 10V18C0 19.4001 0 20.1002 0.272484 20.635C0.512167 21.1054 0.894619 21.4878 1.36502 21.7275C1.8998 22 2.59987 22 4 22H20C21.4001 22 22.1002 22 22.635 21.7275C23.1054 21.4878 23.4878 21.1054 23.7275 20.635C24 20.1002 24 19.4001 24 18V10C24 8.59987 24 7.8998 23.7275 7.36502C23.4878 6.89462 23.1054 6.51217 22.635 6.27248C22.1002 6 21.4001 6 20 6ZM18.25 9.5C18.6642 9.5 19 9.83579 19 10.25V11.25H20C20.4142 11.25 20.75 11.5858 20.75 12C20.75 12.4142 20.4142 12.75 20 12.75H19V13.75C19 14.1642 18.6642 14.5 18.25 14.5C17.8358 14.5 17.5 14.1642 17.5 13.75V12.75H16.5C16.0858 12.75 15.75 12.4142 15.75 12C15.75 11.5858 16.0858 11.25 16.5 11.25H17.5V10.25C17.5 9.83579 17.8358 9.5 18.25 9.5ZM3.75 12C3.75 11.5858 4.08579 11.25 4.5 11.25H8C8.41421 11.25 8.75 11.5858 8.75 12C8.75 12.4142 8.41421 12.75 8 12.75H4.5C4.08579 12.75 3.75 12.4142 3.75 12Z" fill="black"/>
</svg>
