<svg width="24" height="24" viewBox="0 0 24 24" fill="none" xmlns="http://www.w3.org/2000/svg">
<path d="M2.00195 1C2.55424 1 3.00195 1.44772 3.00195 2L3.00195 21H22.002C22.5542 21 23.002 21.4477 23.002 22C23.002 22.5523 22.5542 23 22.002 23H2.25195C1.5616 23 1.00195 22.4404 1.00195 21.75L1.00195 2C1.00195 1.44772 1.44967 1 2.00195 1Z" fill="black"/>
<path d="M20.7295 2C21.0058 1.52217 21.6176 1.35793 22.0957 1.63379C22.5738 1.90993 22.7378 2.52183 22.4619 3L17.0039 12.4482L16.9209 12.5723C16.7089 12.8457 16.378 13.0061 16.0264 12.998L8.67871 12.8262L4.68652 19.75H4.25195L4.25195 16.499L7.21289 11.3643C7.41399 11.016 7.78935 10.8051 8.19141 10.8145L15.54 10.9863L20.7295 2Z" fill="black"/>
</svg>
