<svg width="24" height="24" viewBox="0 0 24 24" fill="none" xmlns="http://www.w3.org/2000/svg">
<path fill-rule="evenodd" clip-rule="evenodd" d="M10.5 3C5.80558 3 2 6.80558 2 11.5C2 13.5314 2.71259 15.3963 3.90143 16.8585C3.96244 16.9335 3.99301 16.9711 4.00739 17.0106C4.02047 17.0464 4.02501 17.0817 4.02144 17.1197C4.01751 17.1615 3.99833 17.2037 3.95999 17.288L2.83519 19.7626C2.72749 19.9995 2.67364 20.118 2.69429 20.2021C2.71226 20.2754 2.7623 20.3366 2.8305 20.3687C2.90887 20.4056 3.03568 20.3764 3.28928 20.3179L7.20128 19.4151C7.24673 19.4046 7.26945 19.3994 7.2918 19.3983C7.31213 19.3973 7.33102 19.3986 7.35102 19.4025C7.37296 19.4067 7.39563 19.4154 7.44093 19.4329C8.3901 19.7991 9.42169 20 10.5 20H14.5C19.1944 20 23 16.1944 23 11.5C23 6.80558 19.1944 3 14.5 3H10.5ZM17 13C17.5523 13 18 12.5523 18 12C18 11.4477 17.5523 11 17 11C16.4477 11 16 11.4477 16 12C16 12.5523 16.4477 13 17 13ZM13 12C13 12.5523 12.5523 13 12 13C11.4477 13 11 12.5523 11 12C11 11.4477 11.4477 11 12 11C12.5523 11 13 11.4477 13 12ZM7 13C7.55229 13 8 12.5523 8 12C8 11.4477 7.55229 11 7 11C6.44772 11 6 11.4477 6 12C6 12.5523 6.44772 13 7 13Z" fill="black"/>
</svg>
