<svg width="24" height="24" viewBox="0 0 24 24" fill="none" xmlns="http://www.w3.org/2000/svg">
<path fill-rule="evenodd" clip-rule="evenodd" d="M1.04297 14.4609C1.00006 13.9357 1 13.2819 1 12.4502V8.0498C1 7.21814 1.00006 6.56434 1.04297 6.03906C1.08637 5.50789 1.17645 5.06423 1.38184 4.66113C1.71738 4.00262 2.25261 3.46738 2.91113 3.13184C3.31423 2.92645 3.75788 2.83637 4.28906 2.79297C4.81434 2.75006 5.46814 2.75 6.2998 2.75H17.7002C18.5319 2.75 19.1857 2.75006 19.7109 2.79297C20.2421 2.83637 20.6858 2.92645 21.0889 3.13184C21.7474 3.46738 22.2826 4.00262 22.6182 4.66113C22.8236 5.06423 22.9136 5.50789 22.957 6.03906C22.9999 6.56434 23 7.21814 23 8.0498V12.4502C23 13.2819 22.9999 13.9357 22.957 14.4609C22.9136 14.9921 22.8236 15.4358 22.6182 15.8389C22.2826 16.4974 21.7474 17.0326 21.0889 17.3682C20.6858 17.5736 20.2421 17.6636 19.7109 17.707C19.1857 17.7499 18.5319 17.75 17.7002 17.75H12.207L7.78613 22.1709L7.77916 22.1779C7.68151 22.2755 7.58504 22.372 7.50098 22.4424C7.42742 22.504 7.27271 22.6277 7.05859 22.6445C6.81942 22.6633 6.58554 22.5662 6.42969 22.3838C6.29007 22.2203 6.26822 22.0232 6.25977 21.9277C6.25 21.8173 6.25 21.6792 6.25 21.5396V21.5342V17.749H6.24662C5.4402 17.749 4.80309 17.749 4.28906 17.707C3.75788 17.6636 3.31423 17.5736 2.91113 17.3682C2.25261 17.0326 1.71738 16.4974 1.38184 15.8389C1.17645 15.4358 1.08637 14.9921 1.04297 14.4609Z" fill="black"/>
</svg>
