<svg width="24" height="24" viewBox="0 0 24 24" fill="none" xmlns="http://www.w3.org/2000/svg">
<path fill-rule="evenodd" clip-rule="evenodd" d="M23.75 11.5C23.75 6.39137 19.6086 2.25 14.5 2.25H10.5C5.39137 2.25 1.25 6.39137 1.25 11.5C1.25 13.6354 1.97443 15.6033 3.19025 17.169L2.02672 19.7288C1.68383 20.4831 2.35454 21.3033 3.16195 21.117L7.26792 20.1694C8.27498 20.545 9.36437 20.75 10.5 20.75H14.5C19.6086 20.75 23.75 16.6086 23.75 11.5ZM14.5 3.75C18.7802 3.75 22.25 7.21979 22.25 11.5C22.25 15.7802 18.7802 19.25 14.5 19.25H10.5C9.50025 19.25 8.54642 19.0611 7.67099 18.7177C7.48582 18.645 7.27947 18.6273 7.07865 18.6737L3.81126 19.4277L4.68251 17.5109C4.84522 17.153 4.78031 16.7431 4.53902 16.453C3.42149 15.1097 2.75 13.3843 2.75 11.5C2.75 7.21979 6.21979 3.75 10.5 3.75H14.5Z" fill="black"/>
</svg>
