<svg width="24" height="24" viewBox="0 0 24 24" fill="none" xmlns="http://www.w3.org/2000/svg">
<path d="M6.2998 2.25C5.47631 2.25 4.79842 2.24898 4.24804 2.29395C3.68599 2.33988 3.1689 2.43827 2.68359 2.68555C1.93108 3.06902 1.31901 3.68109 0.935545 4.4336C0.688269 4.9189 0.589872 5.43599 0.543943 5.99805C0.498975 6.54843 0.499998 7.22632 0.499998 8.04981V12.4502C0.499998 13.2737 0.498976 13.9516 0.543943 14.502C0.589872 15.064 0.688269 15.5811 0.935545 16.0664C1.31901 16.8189 1.93108 17.431 2.68359 17.8145C3.1689 18.0617 3.68599 18.1601 4.24804 18.2061C4.67074 18.2406 5.16872 18.2454 5.75 18.2471V21.5342C5.75 21.6657 5.74941 21.8325 5.76172 21.9717C5.77114 22.0781 5.80051 22.4161 6.0498 22.708C6.30958 23.0122 6.69891 23.1738 7.09765 23.1426C7.47997 23.1125 7.74012 22.8949 7.82226 22.8262C7.9294 22.7365 8.04658 22.6175 8.13965 22.5244L12.4141 18.25H17.7002C18.5237 18.25 19.2016 18.251 19.752 18.2061C20.314 18.1601 20.8311 18.0617 21.3164 17.8145C22.0689 17.431 22.681 16.8189 23.0645 16.0664C23.3117 15.5811 23.4101 15.064 23.4561 14.502C23.501 13.9516 23.5 13.2737 23.5 12.4502V8.04981C23.5 7.22632 23.501 6.54843 23.4561 5.99805C23.4101 5.43599 23.3117 4.9189 23.0645 4.4336C22.681 3.68109 22.0689 3.06902 21.3164 2.68555C20.8311 2.43827 20.314 2.33988 19.752 2.29395C19.2016 2.24898 18.5237 2.25 17.7002 2.25H6.2998ZM17.7002 4.25C18.5566 4.25 19.1388 4.25035 19.5889 4.28711C20.0273 4.32293 20.2518 4.38809 20.4082 4.46778C20.7845 4.65951 21.0905 4.96555 21.2822 5.3418C21.3619 5.4982 21.4271 5.72272 21.4629 6.16113C21.4996 6.61117 21.5 7.19342 21.5 8.04981V12.4502C21.5 13.3066 21.4996 13.8888 21.4629 14.3389C21.4271 14.7773 21.3619 15.0018 21.2822 15.1582C21.0905 15.5345 20.7845 15.8405 20.4082 16.0322C20.2518 16.1119 20.0273 16.1771 19.5889 16.2129C19.1388 16.2497 18.5566 16.25 17.7002 16.25H12.166C12.1559 16.25 12.0577 16.2463 11.9375 16.2617L11.8115 16.2842L11.7168 16.3115C11.6548 16.3317 11.5942 16.3562 11.5361 16.3857L11.4502 16.4346L11.3457 16.5068C11.2497 16.581 11.183 16.653 11.1758 16.6602L7.75 20.0859V17.6504C7.75 17.5969 7.75067 17.4962 7.74316 17.4043C7.7347 17.3008 7.71068 17.1238 7.61328 16.9326L7.56543 16.8467C7.44534 16.6508 7.27318 16.4916 7.06738 16.3867L6.92773 16.3262C6.79241 16.278 6.67337 16.2632 6.5957 16.2568C6.50385 16.2493 6.40311 16.25 6.34961 16.25H6.2998C5.44341 16.25 4.86117 16.2497 4.41113 16.2129C3.97272 16.1771 3.74819 16.1119 3.59179 16.0322C3.21554 15.8405 2.90951 15.5345 2.71777 15.1582C2.63808 15.0018 2.57293 14.7773 2.53711 14.3389C2.50035 13.8888 2.5 13.3066 2.5 12.4502V8.04981C2.5 7.19342 2.50035 6.61117 2.53711 6.16113C2.57293 5.72272 2.63808 5.4982 2.71777 5.3418C2.90951 4.96555 3.21554 4.65951 3.59179 4.46778C3.74819 4.38809 3.97272 4.32293 4.41113 4.28711C4.86117 4.25035 5.44341 4.25 6.2998 4.25H17.7002ZM17.25 10C16.5596 10 16 10.5596 16 11.25C16 11.9404 16.5596 12.5 17.25 12.5C17.9404 12.5 18.5 11.9404 18.5 11.25C18.5 10.5596 17.9404 10 17.25 10ZM12 10C11.3096 10 10.75 10.5596 10.75 11.25C10.75 11.9404 11.3096 12.5 12 12.5C12.6904 12.5 13.25 11.9404 13.25 11.25C13.25 10.5596 12.6904 10 12 10ZM6.75 10C6.05964 10 5.5 10.5596 5.5 11.25C5.5 11.9404 6.05964 12.5 6.75 12.5C7.44035 12.5 8 11.9404 8 11.25C8 10.5596 7.44035 10 6.75 10Z" fill="black"/>
</svg>
