<svg width="24" height="24" viewBox="0 0 24 24" fill="none" xmlns="http://www.w3.org/2000/svg">
<path fill-rule="evenodd" clip-rule="evenodd" d="M10.5 3C5.80558 3 2 6.80558 2 11.5C2 13.5314 2.71259 15.3963 3.90143 16.8585C3.96244 16.9335 3.99301 16.9711 4.00739 17.0106C4.02047 17.0464 4.02501 17.0817 4.02144 17.1197C4.01751 17.1615 3.99833 17.2037 3.95999 17.288L2.83519 19.7626C2.72749 19.9995 2.67364 20.118 2.69429 20.2021C2.71226 20.2754 2.7623 20.3366 2.8305 20.3687C2.90887 20.4056 3.03568 20.3764 3.28928 20.3179L7.20128 19.4151C7.24673 19.4046 7.26945 19.3994 7.2918 19.3983C7.31213 19.3973 7.33102 19.3986 7.35102 19.4025C7.37296 19.4067 7.39563 19.4154 7.44093 19.4329C8.3901 19.7991 9.42169 20 10.5 20H14.5C19.1944 20 23 16.1944 23 11.5C23 6.80558 19.1944 3 14.5 3H10.5ZM16.5 14C17.3284 14 18 13.3284 18 12.5C18 11.6716 17.3284 11 16.5 11C15.6716 11 15 11.6716 15 12.5C15 13.3284 15.6716 14 16.5 14ZM13.5 12.5C13.5 13.3284 12.8284 14 12 14C11.1716 14 10.5 13.3284 10.5 12.5C10.5 11.6716 11.1716 11 12 11C12.8284 11 13.5 11.6716 13.5 12.5ZM7.5 14C8.32843 14 9 13.3284 9 12.5C9 11.6716 8.32843 11 7.5 11C6.67157 11 6 11.6716 6 12.5C6 13.3284 6.67157 14 7.5 14Z" fill="black"/>
</svg>
