<svg width="24" height="24" viewBox="0 0 24 24" fill="none" xmlns="http://www.w3.org/2000/svg">
<path fill-rule="evenodd" clip-rule="evenodd" d="M1 12.4502C1 13.2819 1.00006 13.9357 1.04297 14.4609C1.08637 14.9921 1.17645 15.4358 1.38184 15.8389C1.71738 16.4974 2.25261 17.0326 2.91113 17.3682C3.31423 17.5736 3.75788 17.6636 4.28906 17.707C4.80308 17.749 5.44018 17.749 6.24659 17.749H6.24662H6.25V21.5342V21.5396C6.25 21.6792 6.25 21.8173 6.25977 21.9277C6.26822 22.0232 6.29007 22.2203 6.42969 22.3838C6.58554 22.5662 6.81942 22.6633 7.05859 22.6445C7.27271 22.6277 7.42742 22.504 7.50098 22.4424C7.58503 22.372 7.68147 22.2756 7.7791 22.1779L7.77916 22.1779L7.78613 22.1709L12.207 17.75H17.7002C18.5319 17.75 19.1857 17.7499 19.7109 17.707C20.2421 17.6636 20.6858 17.5736 21.0889 17.3682C21.7474 17.0326 22.2826 16.4974 22.6182 15.8389C22.8236 15.4358 22.9136 14.9921 22.957 14.4609C22.9999 13.9357 23 13.2819 23 12.4502V8.0498C23 7.21814 22.9999 6.56434 22.957 6.03906C22.9136 5.50789 22.8236 5.06423 22.6182 4.66113C22.2826 4.00262 21.7474 3.46738 21.0889 3.13184C20.6858 2.92645 20.2421 2.83637 19.7109 2.79297C19.1857 2.75006 18.5319 2.75 17.7002 2.75H6.2998C5.46814 2.75 4.81434 2.75006 4.28906 2.79297C3.75788 2.83637 3.31423 2.92645 2.91113 3.13184C2.25261 3.46738 1.71738 4.00262 1.38184 4.66113C1.17645 5.06423 1.08637 5.50789 1.04297 6.03906C1.00006 6.56434 1 7.21814 1 8.0498V12.4502ZM18 13C18.8284 13 19.5 12.3284 19.5 11.5C19.5 10.6716 18.8284 10 18 10C17.1716 10 16.5 10.6716 16.5 11.5C16.5 12.3284 17.1716 13 18 13ZM13.5 11.5C13.5 12.3284 12.8284 13 12 13C11.1716 13 10.5 12.3284 10.5 11.5C10.5 10.6716 11.1716 10 12 10C12.8284 10 13.5 10.6716 13.5 11.5ZM6 13C6.82843 13 7.5 12.3284 7.5 11.5C7.5 10.6716 6.82843 10 6 10C5.17157 10 4.5 10.6716 4.5 11.5C4.5 12.3284 5.17157 13 6 13Z" fill="black"/>
</svg>
