<svg width="24" height="24" viewBox="0 0 24 24" fill="none" xmlns="http://www.w3.org/2000/svg">
<path fill-rule="evenodd" clip-rule="evenodd" d="M17.7 2.75H17.7222H17.7222C18.5435 2.75 19.1905 2.74999 19.7111 2.79253C20.2423 2.83593 20.6859 2.92609 21.089 3.13148C21.7475 3.46703 22.283 4.00247 22.6185 4.66103C22.8239 5.06414 22.9141 5.50771 22.9575 6.03889C23 6.55954 23 7.20652 23 8.02779V8.02779V8.05V12.45V12.4722V12.4722C23 13.2935 23 13.9405 22.9575 14.4611C22.9141 14.9923 22.8239 15.4359 22.6185 15.839C22.283 16.4975 21.7475 17.033 21.089 17.3685C20.6859 17.5739 20.2423 17.6641 19.7111 17.7075C19.1905 17.75 18.5435 17.75 17.7222 17.75H17.7H12.2071L7.7864 22.1707L7.77319 22.1839L7.77316 22.184C7.67761 22.2795 7.58369 22.3735 7.50135 22.4424C7.42788 22.5039 7.27316 22.6273 7.05884 22.6441C6.81951 22.663 6.58561 22.5661 6.4297 22.3835C6.29008 22.2201 6.2679 22.0234 6.25944 21.928C6.24996 21.821 6.24998 21.6882 6.25 21.553V21.553V21.553V21.5529V21.5343V17.75C5.44191 17.75 4.80366 17.7495 4.28889 17.7075C3.75771 17.6641 3.31413 17.5739 2.91103 17.3685C2.25246 17.033 1.71704 16.4975 1.38148 15.839C1.17609 15.4359 1.08593 14.9923 1.04253 14.4611C0.999994 13.9405 0.999996 13.2935 1 12.4722V12.45V8.05V8.02778C0.999996 7.20652 0.999994 6.55954 1.04253 6.03889C1.08593 5.50771 1.17609 5.06413 1.38148 4.66103C1.71704 4.00247 2.25246 3.46703 2.91103 3.13148C3.31413 2.92609 3.75771 2.83593 4.28889 2.79253C4.80955 2.74999 5.45652 2.75 6.2778 2.75H6.3H17.7ZM20.635 4.02248C20.3963 3.90089 20.099 3.82756 19.6297 3.78921C19.1545 3.75039 18.5483 3.75 17.7 3.75H6.3C5.45167 3.75 4.8455 3.75039 4.37032 3.78921C3.90099 3.82756 3.60366 3.90089 3.36502 4.02248C2.89462 4.26217 2.51217 4.64462 2.27248 5.11502C2.15089 5.35366 2.07756 5.65099 2.03921 6.12032C2.00039 6.5955 2 7.20167 2 8.05V12.45C2 13.2983 2.00039 13.9045 2.03921 14.3797C2.07756 14.849 2.15089 15.1463 2.27248 15.385C2.51217 15.8554 2.89462 16.2378 3.36502 16.4775C3.60366 16.5991 3.90099 16.6724 4.37032 16.7108C4.8455 16.7496 5.45167 16.75 6.3 16.75H6.35L6.36158 16.75H6.36163C6.42117 16.75 6.49228 16.7499 6.55491 16.7551C6.62752 16.761 6.73152 16.7762 6.84049 16.8317C6.98161 16.9037 7.09635 17.0184 7.16825 17.1595C7.22378 17.2685 7.239 17.3725 7.24493 17.4451C7.25005 17.5077 7.25003 17.5788 7.25 17.6384V17.6384L7.25 17.65V21.2929L11.5293 17.0136L11.5377 17.0051C11.5686 16.9738 11.6324 16.9091 11.7117 16.8605C11.7788 16.8194 11.8519 16.7891 11.9285 16.7707C12.0189 16.749 12.1097 16.7496 12.1537 16.7499L12.1657 16.75H17.7C18.5483 16.75 19.1545 16.7496 19.6297 16.7108C20.099 16.6724 20.3963 16.5991 20.635 16.4775C21.1054 16.2378 21.4878 15.8554 21.7275 15.385C21.8491 15.1463 21.9224 14.849 21.9608 14.3797C21.9996 13.9045 22 13.2983 22 12.45V8.05C22 7.20167 21.9996 6.5955 21.9608 6.12032C21.9224 5.65099 21.8491 5.35366 21.7275 5.11502C21.4878 4.64462 21.1054 4.26217 20.635 4.02248ZM17.25 11.5C17.6642 11.5 18 11.1642 18 10.75C18 10.3358 17.6642 10 17.25 10C16.8358 10 16.5 10.3358 16.5 10.75C16.5 11.1642 16.8358 11.5 17.25 11.5ZM12.75 10.75C12.75 11.1642 12.4142 11.5 12 11.5C11.5858 11.5 11.25 11.1642 11.25 10.75C11.25 10.3358 11.5858 10 12 10C12.4142 10 12.75 10.3358 12.75 10.75ZM6.75 11.5C7.16421 11.5 7.5 11.1642 7.5 10.75C7.5 10.3358 7.16421 10 6.75 10C6.33579 10 6 10.3358 6 10.75C6 11.1642 6.33579 11.5 6.75 11.5Z" fill="black"/>
</svg>
