<svg width="24" height="24" viewBox="0 0 24 24" fill="none" xmlns="http://www.w3.org/2000/svg">
<path fill-rule="evenodd" clip-rule="evenodd" d="M17.7 2.75H17.7222H17.7222C18.5435 2.75 19.1905 2.74999 19.7111 2.79253C20.2423 2.83593 20.6859 2.92609 21.089 3.13148C21.7475 3.46703 22.283 4.00247 22.6185 4.66103C22.8239 5.06414 22.9141 5.50771 22.9575 6.03889C23 6.55954 23 7.20652 23 8.02779V8.02779V8.05V12.45V12.4722V12.4722C23 13.2935 23 13.9405 22.9575 14.4611C22.9141 14.9923 22.8239 15.4359 22.6185 15.839C22.283 16.4975 21.7475 17.033 21.089 17.3685C20.6859 17.5739 20.2423 17.6641 19.7111 17.7075C19.1905 17.75 18.5435 17.75 17.7222 17.75H17.7H12.2071L7.7864 22.1707L7.77319 22.1839L7.77316 22.184C7.67761 22.2795 7.58369 22.3735 7.50135 22.4424C7.42788 22.5039 7.27316 22.6273 7.05884 22.6441C6.81951 22.663 6.58561 22.5661 6.4297 22.3835C6.29008 22.2201 6.2679 22.0234 6.25944 21.928C6.24996 21.821 6.24998 21.6881 6.25 21.553V21.5529V21.5343V17.75C5.44191 17.75 4.80366 17.7495 4.28889 17.7075C3.75771 17.6641 3.31413 17.5739 2.91103 17.3685C2.25246 17.033 1.71704 16.4975 1.38148 15.839C1.17609 15.4359 1.08593 14.9923 1.04253 14.4611C0.999994 13.9405 0.999996 13.2935 1 12.4722V12.45V8.05V8.02778C0.999996 7.20652 0.999994 6.55954 1.04253 6.03889C1.08593 5.50771 1.17609 5.06413 1.38148 4.66103C1.71704 4.00247 2.25246 3.46703 2.91103 3.13148C3.31413 2.92609 3.75771 2.83593 4.28889 2.79253C4.80955 2.74999 5.45652 2.75 6.2778 2.75H6.3H17.7Z" fill="black"/>
</svg>
