<svg width="24" height="24" viewBox="0 0 24 24" fill="none" xmlns="http://www.w3.org/2000/svg">
<path fill-rule="evenodd" clip-rule="evenodd" d="M17.7413 2.25L17.7 2.25H6.3L6.2587 2.25C5.45373 2.24999 4.78937 2.24998 4.24817 2.29419C3.68608 2.34012 3.16937 2.43868 2.68404 2.68597C1.93139 3.06947 1.31947 3.68139 0.935973 4.43404C0.688682 4.91937 0.590118 5.43608 0.544192 5.99818C0.499976 6.53936 0.499986 7.20372 0.499999 8.00868V8.05V12.45V12.4913C0.499986 13.2963 0.499976 13.9606 0.544192 14.5018C0.590118 15.0639 0.688682 15.5806 0.935973 16.066C1.31947 16.8186 1.93139 17.4305 2.68404 17.814C3.16937 18.0613 3.68608 18.1599 4.24817 18.2058C4.67088 18.2403 5.16871 18.2479 5.75 18.2495V21.5343C5.75 21.543 5.75 21.5518 5.74999 21.5607C5.74993 21.6878 5.74986 21.842 5.76139 21.9721L5.76146 21.9729C5.77096 22.0802 5.80081 22.4171 6.04949 22.7083C6.30936 23.0125 6.69917 23.174 7.09807 23.1426C7.4798 23.1126 7.73914 22.8954 7.82171 22.8263L7.82232 22.8258C7.92248 22.7419 8.03144 22.6329 8.12125 22.543C8.12758 22.5366 8.13382 22.5304 8.13995 22.5243L12.4142 18.25H17.7H17.7413C18.5463 18.25 19.2106 18.25 19.7518 18.2058C20.3139 18.1599 20.8306 18.0613 21.316 17.814C22.0686 17.4305 22.6805 16.8186 23.064 16.066C23.3113 15.5806 23.4099 15.0639 23.4558 14.5018C23.5 13.9606 23.5 13.2963 23.5 12.4913L23.5 12.45V8.05L23.5 8.0087C23.5 7.20373 23.5 6.53937 23.4558 5.99817C23.4099 5.43608 23.3113 4.91937 23.064 4.43404C22.6805 3.68139 22.0686 3.06947 21.316 2.68597C20.8306 2.43868 20.3139 2.34012 19.7518 2.29419C19.2106 2.24998 18.5463 2.24999 17.7413 2.25ZM19.589 4.28755C20.0274 4.32337 20.2516 4.3883 20.408 4.46799C20.7843 4.65973 21.0903 4.9657 21.282 5.34202C21.3617 5.49842 21.4266 5.72262 21.4624 6.16104C21.4992 6.61113 21.5 7.19342 21.5 8.05V12.45C21.5 13.3066 21.4992 13.8889 21.4624 14.339C21.4266 14.7774 21.3617 15.0016 21.282 15.158C21.0903 15.5343 20.7843 15.8403 20.408 16.032C20.2516 16.1117 20.0274 16.1766 19.589 16.2124C19.1389 16.2492 18.5566 16.25 17.7 16.25H12.1657C12.1647 16.25 12.163 16.25 12.1606 16.2499C12.1284 16.2493 11.9705 16.2464 11.8117 16.2845C11.6842 16.3152 11.5623 16.3657 11.4504 16.4342C11.3113 16.5195 11.2016 16.6332 11.1793 16.6564C11.1776 16.6581 11.1764 16.6594 11.1757 16.6601L7.75 20.0858V17.65C7.75 17.6457 7.75 17.6411 7.75001 17.6362C7.75007 17.5804 7.75017 17.4888 7.74327 17.4044C7.73481 17.3008 7.71118 17.1237 7.61376 16.9325C7.49392 16.6973 7.30269 16.5061 7.06749 16.3862C6.87628 16.2888 6.69916 16.2652 6.59563 16.2567C6.51119 16.2498 6.41963 16.2499 6.36383 16.25C6.35894 16.25 6.35432 16.25 6.35 16.25H6.3C5.44342 16.25 4.86113 16.2492 4.41104 16.2124C3.97262 16.1766 3.74842 16.1117 3.59202 16.032C3.21569 15.8403 2.90973 15.5343 2.71799 15.158C2.6383 15.0016 2.57337 14.7774 2.53755 14.339C2.50078 13.8889 2.5 13.3066 2.5 12.45V8.05C2.5 7.19342 2.50078 6.61113 2.53755 6.16104C2.57337 5.72262 2.6383 5.49842 2.71799 5.34202C2.90973 4.9657 3.21569 4.65973 3.59202 4.46799L3.13803 3.57698L3.59202 4.46799C3.74842 4.3883 3.97262 4.32337 4.41104 4.28755C4.86113 4.25078 5.44342 4.25 6.3 4.25H17.7C18.5566 4.25 19.1389 4.25078 19.589 4.28755ZM6.53904 21.2918C6.53883 21.2919 6.53864 21.2921 6.53846 21.2923C6.53758 21.293 6.53718 21.2933 6.53725 21.2932" fill="black"/>
</svg>
