<svg width="24" height="24" viewBox="0 0 24 24" fill="none" xmlns="http://www.w3.org/2000/svg">
<path fill-rule="evenodd" clip-rule="evenodd" d="M17.7 2H17.7498H17.7499C18.5475 1.99998 19.2207 1.99997 19.7722 2.04503C20.3497 2.09221 20.903 2.19498 21.4295 2.46322C22.2291 2.87069 22.8793 3.52085 23.2868 4.32054C23.555 4.847 23.6578 5.40026 23.705 5.97782C23.75 6.52932 23.75 7.20252 23.75 8.00012V8.00015V8.05V12.45V12.4999V12.4999C23.75 13.2975 23.75 13.9707 23.705 14.5222C23.6578 15.0997 23.555 15.653 23.2868 16.1795C22.8793 16.9792 22.2291 17.6293 21.4295 18.0368C20.903 18.305 20.3497 18.4078 19.7722 18.455C19.2207 18.5 18.5475 18.5 17.7499 18.5H17.7498H17.7H12.5178L8.31672 22.701L8.29663 22.7212L8.29659 22.7212L8.29652 22.7213C8.20869 22.8092 8.09197 22.9261 7.9828 23.0175L7.97983 23.02C7.8897 23.0955 7.57931 23.3555 7.11769 23.3918C6.63901 23.4295 6.17123 23.2357 5.85939 22.8706C5.55866 22.5185 5.52305 22.1152 5.51271 21.998L5.51236 21.9942C5.49979 21.8523 5.4999 21.6871 5.49999 21.5628L5.5 21.5343V18.4984C5.02084 18.4951 4.59705 18.4851 4.22781 18.455C3.65026 18.4078 3.09699 18.305 2.57054 18.0368C1.77085 17.6293 1.12068 16.9791 0.71322 16.1795C0.444978 15.653 0.34221 15.0997 0.295022 14.5222C0.249963 13.9707 0.249978 13.2975 0.249997 12.4999V12.4999V12.45V8.05V8.00012V8.00007C0.249978 7.20249 0.249963 6.52931 0.295022 5.97782C0.34221 5.40026 0.444978 4.847 0.71322 4.32054C1.12068 3.52085 1.77085 2.87069 2.57054 2.46322C3.09699 2.19498 3.65026 2.09221 4.22781 2.04503C4.77932 1.99997 5.45252 1.99998 6.25012 2H6.25015H6.3H17.7ZM20.2945 4.69074C20.1792 4.632 19.9916 4.57128 19.5686 4.53672C19.1311 4.50097 18.5607 4.5 17.7 4.5H6.3C5.43929 4.5 4.86894 4.50097 4.43139 4.53672C4.00844 4.57128 3.8208 4.632 3.70551 4.69074C3.37623 4.85852 3.10852 5.12623 2.94074 5.45552C2.882 5.5708 2.82127 5.75844 2.78672 6.1814C2.75097 6.61895 2.75 7.1893 2.75 8.05V12.45C2.75 13.3107 2.75097 13.8811 2.78672 14.3186C2.82127 14.7416 2.882 14.9292 2.94074 15.0445C3.10852 15.3738 3.37623 15.6415 3.70551 15.8093C3.8208 15.868 4.00844 15.9287 4.43139 15.9633C4.86894 15.999 5.43929 16 6.3 16H6.35L6.36384 16C6.41831 15.9999 6.52043 15.9998 6.61599 16.0076C6.73498 16.0173 6.94866 16.0451 7.18098 16.1635C7.46323 16.3073 7.6927 16.5368 7.83651 16.819C7.95488 17.0513 7.98272 17.265 7.99244 17.384C8.00025 17.4796 8.00009 17.5817 8.00001 17.6362L8 17.65V19.4822L10.999 16.4833L10.9994 16.4828C11.0083 16.4733 11.1444 16.3285 11.3198 16.221C11.454 16.1388 11.6003 16.0782 11.7534 16.0414C11.9534 15.9934 12.1519 15.9996 12.165 16H12.165L12.1657 16H17.7C18.5607 16 19.1311 15.999 19.5686 15.9633C19.9916 15.9287 20.1792 15.868 20.2945 15.8093L20.8394 16.8787L20.2945 15.8093C20.6238 15.6415 20.8915 15.3738 21.0593 15.0445C21.118 14.9292 21.1787 14.7416 21.2133 14.3186C21.249 13.8811 21.25 13.3107 21.25 12.45V8.05C21.25 7.1893 21.249 6.61895 21.2133 6.1814C21.1787 5.75844 21.118 5.5708 21.0593 5.45552C20.8915 5.12624 20.6238 4.85852 20.2945 4.69074ZM17.5 13C18.3284 13 19 12.3284 19 11.5C19 10.6716 18.3284 10 17.5 10C16.6716 10 16 10.6716 16 11.5C16 12.3284 16.6716 13 17.5 13ZM13.5 11.5C13.5 12.3284 12.8284 13 12 13C11.1716 13 10.5 12.3284 10.5 11.5C10.5 10.6716 11.1716 10 12 10C12.8284 10 13.5 10.6716 13.5 11.5ZM6.5 13C7.32843 13 8 12.3284 8 11.5C8 10.6716 7.32843 10 6.5 10C5.67157 10 5 10.6716 5 11.5C5 12.3284 5.67157 13 6.5 13Z" fill="black"/>
</svg>
