<svg width="24" height="24" viewBox="0 0 24 24" fill="none" xmlns="http://www.w3.org/2000/svg">
<path fill-rule="evenodd" clip-rule="evenodd" d="M17.7115 3H17.7H6.3H6.28847C5.45814 3 4.81969 3 4.30925 3.0417C3.79353 3.08384 3.38652 3.16979 3.02453 3.35423C2.413 3.66582 1.91582 4.163 1.60423 4.77453C1.41979 5.13652 1.33384 5.54353 1.2917 6.05925C1.25 6.56968 1.25 7.20814 1.25 8.03846V8.05V12.45V12.4615C1.25 13.2919 1.25 13.9303 1.2917 14.4408C1.33384 14.9565 1.41979 15.3635 1.60423 15.7255C1.91582 16.337 2.413 16.8342 3.02453 17.1458C3.38652 17.3302 3.79353 17.4162 4.30925 17.4583C4.81968 17.5 5.45814 17.5 6.28846 17.5H6.3H6.35C6.42413 17.5 6.46469 17.5002 6.49384 17.5026C6.495 17.5027 6.4961 17.5028 6.49713 17.5029C6.49723 17.5039 6.49733 17.505 6.49743 17.5062C6.49981 17.5353 6.5 17.5759 6.5 17.65V21.5343V21.5457C6.49999 21.6874 6.49999 21.8103 6.50846 21.9059C6.51644 21.9959 6.53501 22.1219 6.6198 22.2212C6.72374 22.3429 6.87967 22.4075 7.03923 22.3949C7.16938 22.3847 7.27162 22.3087 7.34087 22.2507C7.41449 22.1891 7.50138 22.1022 7.60158 22.002L7.60962 21.9939L12.0596 17.5439C12.0828 17.5208 12.0944 17.5093 12.1032 17.5012C12.1034 17.501 12.1036 17.5008 12.1038 17.5006C12.1041 17.5006 12.1044 17.5006 12.1047 17.5006C12.1166 17.5001 12.1329 17.5 12.1657 17.5H17.7H17.7115C18.5419 17.5 19.1803 17.5 19.6908 17.4583C20.2065 17.4162 20.6135 17.3302 20.9755 17.1458C21.587 16.8342 22.0842 16.337 22.3958 15.7255C22.5802 15.3635 22.6662 14.9565 22.7083 14.4408C22.75 13.9303 22.75 13.2919 22.75 12.4615V12.45V8.05V8.03847C22.75 7.20814 22.75 6.56969 22.7083 6.05925C22.6662 5.54353 22.5802 5.13652 22.3958 4.77453C22.0842 4.163 21.587 3.66582 20.9755 3.35423C20.6135 3.16979 20.2065 3.08384 19.6908 3.0417C19.1803 3 18.5419 3 17.7115 3ZM19.65 3.54004C20.1348 3.57965 20.4687 3.65719 20.7485 3.79973C21.2659 4.06338 21.6866 4.48408 21.9503 5.00153C22.0928 5.28128 22.1703 5.61517 22.21 6.09996C22.2498 6.58768 22.25 7.2058 22.25 8.05V12.45C22.25 13.2942 22.2498 13.9123 22.21 14.4C22.1703 14.8848 22.0928 15.2187 21.9503 15.4985C21.6866 16.0159 21.2659 16.4366 20.7485 16.7003C20.4687 16.8428 20.1348 16.9203 19.65 16.96C19.1623 16.9998 18.5442 17 17.7 17H12.1657C12.1615 17 12.1573 17 12.1529 17C12.1054 16.9999 12.0457 16.9997 11.9868 17.0138C11.9358 17.0261 11.887 17.0463 11.8423 17.0737C11.7907 17.1053 11.7485 17.1477 11.7151 17.1813C11.712 17.1844 11.709 17.1875 11.7061 17.1904L7.25607 21.6404C7.14547 21.751 7.0744 21.8217 7.01991 21.8673C7.01564 21.8709 7.01168 21.8741 7.00803 21.877C7.00751 21.8724 7.007 21.8673 7.00651 21.8618C7.00024 21.791 7 21.6907 7 21.5343V17.65V17.642C7.00001 17.5789 7.00002 17.5175 6.99576 17.4654C6.99109 17.4083 6.98008 17.3409 6.9455 17.273C6.89757 17.1789 6.82108 17.1024 6.727 17.0545C6.65914 17.0199 6.59171 17.0089 6.53456 17.0042C6.48252 17 6.42107 17 6.35798 17H6.35H6.3C5.4558 17 4.83768 16.9998 4.34996 16.96C3.86517 16.9203 3.53128 16.8428 3.25153 16.7003C2.73408 16.4366 2.31339 16.0159 2.04973 15.4985C1.90719 15.2187 1.82965 14.8848 1.79004 14.4C1.75019 13.9123 1.75 13.2942 1.75 12.45V8.05C1.75 7.2058 1.75019 6.58768 1.79004 6.09996C1.82965 5.61517 1.90719 5.28128 2.04973 5.00153C2.31339 4.48408 2.73408 4.06338 3.25153 3.79973C3.53128 3.65719 3.86517 3.57965 4.34996 3.54004C4.83768 3.50019 5.4558 3.5 6.3 3.5H17.7C18.5442 3.5 19.1623 3.50019 19.65 3.54004Z" fill="black"/>
</svg>
