<svg width="24" height="24" viewBox="0 0 24 24" fill="none" xmlns="http://www.w3.org/2000/svg">
<path fill-rule="evenodd" clip-rule="evenodd" d="M23.5 11.5C23.5 6.52944 19.4706 2.5 14.5 2.5H10.5C5.52944 2.5 1.5 6.52944 1.5 11.5C1.5 13.6318 2.24182 15.5917 3.48093 17.1337L2.25431 19.8322C1.99714 20.398 2.50018 21.0131 3.10573 20.8734L7.28545 19.9088C8.2844 20.2909 9.36835 20.5 10.5 20.5H14.5C19.4706 20.5 23.5 16.4706 23.5 11.5ZM14.5 3.5C18.9183 3.5 22.5 7.08172 22.5 11.5C22.5 15.9183 18.9183 19.5 14.5 19.5H10.5C9.4685 19.5 8.48373 19.305 7.5797 18.9504C7.44035 18.8957 7.28538 18.8825 7.13486 18.9173L3.37417 19.7851L4.45492 17.4075C4.57685 17.1392 4.5285 16.8313 4.34683 16.6129C3.19333 15.2264 2.5 13.4448 2.5 11.5C2.5 7.08172 6.08172 3.5 10.5 3.5H14.5Z" fill="black"/>
</svg>
