<svg width="24" height="24" viewBox="0 0 24 24" fill="none" xmlns="http://www.w3.org/2000/svg">
<path d="M17.5 12C17.7761 12 18 11.7761 18 11.5C18 11.2239 17.7761 11 17.5 11C17.2239 11 17 11.2239 17 11.5C17 11.7761 17.2239 12 17.5 12Z" fill="black"/>
<path d="M12.5 11.5C12.5 11.7761 12.2761 12 12 12C11.7239 12 11.5 11.7761 11.5 11.5C11.5 11.2239 11.7239 11 12 11C12.2761 11 12.5 11.2239 12.5 11.5Z" fill="black"/>
<path d="M6.5 12C6.77614 12 7 11.7761 7 11.5C7 11.2239 6.77614 11 6.5 11C6.22386 11 6 11.2239 6 11.5C6 11.7761 6.22386 12 6.5 12Z" fill="black"/>
<path fill-rule="evenodd" clip-rule="evenodd" d="M14.5 2.75C19.3325 2.75 23.25 6.66751 23.25 11.5C23.25 16.3325 19.3325 20.25 14.5 20.25H10.5C9.39043 20.25 8.32853 20.0434 7.35111 19.6662C7.32691 19.6569 7.31435 19.6521 7.30508 19.6488L7.30379 19.6484L7.28813 19.6517L7.2575 19.6587L3.33475 20.5639C3.21719 20.5911 3.11267 20.6152 3.02806 20.6268C2.9449 20.6381 2.83192 20.6458 2.7239 20.5948C2.58752 20.5306 2.48743 20.4082 2.45149 20.2617C2.42303 20.1458 2.45291 20.0365 2.48057 19.9573C2.50871 19.8766 2.55311 19.779 2.60305 19.6691L3.7324 17.1846C3.7528 17.1397 3.76343 17.116 3.77015 17.0985L3.77088 17.0966L3.76901 17.094C3.75724 17.0776 3.73982 17.056 3.70745 17.0162C2.4837 15.5111 1.75 13.5909 1.75 11.5C1.75 6.66751 5.66751 2.75 10.5 2.75H14.5ZM22.75 11.5C22.75 6.94365 19.0563 3.25 14.5 3.25H10.5C5.94365 3.25 2.25 6.94365 2.25 11.5C2.25 13.4719 2.94148 15.2815 4.0954 16.7008L4.10864 16.717C4.15519 16.7738 4.21274 16.844 4.24225 16.9249C4.26805 16.9956 4.27739 17.0682 4.27034 17.1431C4.26228 17.2287 4.22537 17.3091 4.19581 17.3735L4.18758 17.3915L3.06278 19.866C3.00687 19.989 2.97234 20.0656 2.95265 20.122L2.949 20.1328L2.96029 20.1314C3.01951 20.1233 3.10141 20.1046 3.23307 20.0743L7.14507 19.1715L7.15459 19.1693C7.18983 19.1611 7.23403 19.1508 7.27973 19.1486C7.3199 19.1466 7.35867 19.1494 7.39817 19.157C7.44315 19.1656 7.48657 19.1825 7.52146 19.196L7.5311 19.1997C8.45201 19.5551 9.45295 19.75 10.5 19.75H14.5C19.0563 19.75 22.75 16.0563 22.75 11.5Z" fill="black"/>
</svg>
