<svg width="24" height="24" viewBox="0 0 24 24" fill="none" xmlns="http://www.w3.org/2000/svg">
<path d="M6.2998 2C5.48044 2 4.79046 1.99893 4.22754 2.04492C3.65008 2.09212 3.09668 2.19469 2.57031 2.46289C1.77066 2.87035 1.12034 3.52067 0.712888 4.32031C0.444688 4.84669 0.342117 5.40008 0.29492 5.97754C0.248926 6.54046 0.249998 7.23044 0.249998 8.04981V12.4502C0.249998 13.2696 0.248926 13.9595 0.29492 14.5225C0.342117 15.0999 0.444688 15.6533 0.712888 16.1797C1.12034 16.9793 1.77065 17.6297 2.57031 18.0371C3.09668 18.3053 3.65008 18.4079 4.22754 18.4551C4.59677 18.4852 5.02085 18.4928 5.5 18.4961V21.5342C5.5 21.6609 5.49914 21.8412 5.51269 21.9941C5.52261 22.106 5.55525 22.515 5.85937 22.8711C6.17121 23.236 6.6396 23.4293 7.11816 23.3916C7.58423 23.3548 7.89595 23.09 7.98242 23.0176C8.10009 22.9191 8.22681 22.7908 8.3164 22.7012L12.5176 18.5H17.7002C18.5196 18.5 19.2095 18.5011 19.7725 18.4551C20.3499 18.4079 20.9033 18.3053 21.4297 18.0371C22.2293 17.6297 22.8797 16.9793 23.2871 16.1797C23.5553 15.6533 23.6579 15.0999 23.7051 14.5225C23.7511 13.9595 23.75 13.2696 23.75 12.4502V8.04981C23.75 7.23044 23.7511 6.54046 23.7051 5.97754C23.6579 5.40008 23.5553 4.84669 23.2871 4.32031C22.8797 3.52066 22.2293 2.87035 21.4297 2.46289C20.9033 2.19469 20.3499 2.09212 19.7725 2.04492C19.2095 1.99893 18.5196 2 17.7002 2H6.2998ZM17.7002 4.5C18.5606 4.5 19.1309 4.50138 19.5684 4.53711C19.9913 4.57167 20.1796 4.63169 20.2949 4.69043C20.624 4.85818 20.8918 5.12597 21.0596 5.45508C21.1183 5.57036 21.1783 5.75869 21.2129 6.18164C21.2486 6.61913 21.25 7.18935 21.25 8.04981V12.4502C21.25 13.3107 21.2486 13.8809 21.2129 14.3184C21.1783 14.7413 21.1183 14.9296 21.0596 15.0449C20.8918 15.374 20.624 15.6418 20.2949 15.8096C20.1796 15.8683 19.9913 15.9283 19.5684 15.9629C19.1309 15.9986 18.5606 16 17.7002 16H12.0889C12.0417 16.0011 11.9766 16.0044 11.9043 16.0137L11.7529 16.041L11.6396 16.0732C11.5652 16.0975 11.4927 16.1275 11.4228 16.1631L11.3193 16.2207L11.1934 16.3086C11.1359 16.3529 11.0878 16.3963 11.0537 16.4287L8 19.4824V17.6504C8 17.601 8.00071 17.4882 7.99219 17.3838C7.98245 17.2648 7.95503 17.0513 7.83691 16.8193L7.77832 16.7158C7.6342 16.4809 7.4276 16.2889 7.18066 16.1631L7.01172 16.0908C6.84803 16.0326 6.70553 16.0151 6.61621 16.0078C6.51181 15.9993 6.39899 16 6.34961 16H6.2998C5.43935 16 4.86913 15.9986 4.43164 15.9629C4.00868 15.9283 3.82036 15.8683 3.70508 15.8096C3.37597 15.6418 3.10818 15.374 2.94043 15.0449C2.88169 14.9296 2.82166 14.7413 2.78711 14.3184C2.75138 13.8809 2.75 13.3107 2.75 12.4502V8.04981C2.75 7.18935 2.75138 6.61913 2.78711 6.18164C2.82166 5.75869 2.88169 5.57036 2.94043 5.45508C3.10818 5.12597 3.37597 4.85818 3.70508 4.69043C3.82036 4.63169 4.00869 4.57167 4.43164 4.53711C4.86913 4.50138 5.43935 4.5 6.2998 4.5H17.7002ZM17.5 10C16.6716 10 16 10.6716 16 11.5C16 12.3284 16.6716 13 17.5 13C18.3284 13 19 12.3284 19 11.5C19 10.6716 18.3284 10 17.5 10ZM12 10C11.1716 10 10.5 10.6716 10.5 11.5C10.5 12.3284 11.1716 13 12 13C12.8284 13 13.5 12.3284 13.5 11.5C13.5 10.6716 12.8284 10 12 10ZM6.5 10C5.67157 10 5 10.6716 5 11.5C5 12.3284 5.67157 13 6.5 13C7.32842 13 8 12.3284 8 11.5C8 10.6716 7.32842 10 6.5 10Z" fill="black"/>
</svg>
