<svg width="24" height="24" viewBox="0 0 24 24" fill="none" xmlns="http://www.w3.org/2000/svg">
<path fill-rule="evenodd" clip-rule="evenodd" d="M23.25 11.5C23.25 6.66751 19.3325 2.75 14.5 2.75H10.5C5.66751 2.75 1.75 6.66751 1.75 11.5C1.75 13.5909 2.4837 15.5111 3.70745 17.0162C3.73982 17.056 3.75724 17.0776 3.76901 17.094C3.76969 17.0949 3.77031 17.0958 3.77088 17.0966C3.77065 17.0972 3.77041 17.0978 3.77015 17.0985C3.76343 17.116 3.7528 17.1397 3.7324 17.1846L2.60305 19.6691C2.55311 19.779 2.50871 19.8766 2.48057 19.9573C2.45291 20.0365 2.42303 20.1458 2.45149 20.2617C2.48743 20.4082 2.58752 20.5306 2.7239 20.5948C2.83192 20.6458 2.9449 20.6381 3.02806 20.6268C3.11267 20.6152 3.21719 20.5911 3.33475 20.5639L7.2575 19.6587C7.28182 19.6531 7.29403 19.6503 7.303 19.6485C7.30327 19.6485 7.30275 19.6486 7.303 19.6485C7.3034 19.6487 7.30462 19.6487 7.30508 19.6488C7.31435 19.6521 7.32691 19.6569 7.35111 19.6662C8.32853 20.0434 9.39043 20.25 10.5 20.25H14.5C19.3325 20.25 23.25 16.3325 23.25 11.5ZM14.5 3.25C19.0563 3.25 22.75 6.94365 22.75 11.5C22.75 16.0563 19.0563 19.75 14.5 19.75H10.5C9.45295 19.75 8.45201 19.5551 7.5311 19.1997C7.52797 19.1985 7.52475 19.1973 7.52146 19.196C7.48657 19.1825 7.44315 19.1656 7.39817 19.157C7.35867 19.1494 7.3199 19.1466 7.27973 19.1486C7.23403 19.1508 7.18983 19.1611 7.15459 19.1693C7.15134 19.17 7.14816 19.1708 7.14507 19.1715L3.23307 20.0743C3.10141 20.1046 3.01951 20.1233 2.96029 20.1314C2.95623 20.1319 2.95247 20.1324 2.949 20.1328C2.95008 20.1295 2.9513 20.1259 2.95265 20.122C2.97234 20.0656 3.00687 19.989 3.06278 19.866L4.18758 17.3915C4.19023 17.3856 4.19298 17.3797 4.1958 17.3735C4.22536 17.3091 4.26228 17.2287 4.27034 17.1431C4.27739 17.0682 4.26805 16.9956 4.24225 16.9249C4.21274 16.844 4.15519 16.7738 4.10864 16.717C4.10411 16.7115 4.09969 16.7061 4.0954 16.7008C2.94148 15.2815 2.25 13.4719 2.25 11.5C2.25 6.94365 5.94365 3.25 10.5 3.25H14.5Z" fill="black"/>
</svg>
