<svg width="24" height="24" viewBox="0 0 24 24" fill="none" xmlns="http://www.w3.org/2000/svg">
<path d="M6.2998 2.75C5.46814 2.75 4.81434 2.75006 4.28906 2.79297C3.75789 2.83637 3.31423 2.92645 2.91113 3.13184C2.25262 3.46738 1.71738 4.00262 1.38184 4.66113C1.17645 5.06423 1.08637 5.50789 1.04297 6.03906C1.00006 6.56434 1 7.21814 1 8.0498V12.4502C1 13.2819 1.00006 13.9357 1.04297 14.4609C1.08637 14.9921 1.17645 15.4358 1.38184 15.8389C1.71738 16.4974 2.25262 17.0326 2.91113 17.3682C3.31423 17.5736 3.75789 17.6636 4.28906 17.707C4.80381 17.7491 5.44198 17.749 6.25 17.749V21.5342C6.25 21.6756 6.24987 21.8159 6.25977 21.9277C6.26822 22.0232 6.29007 22.2203 6.42969 22.3838C6.58555 22.5662 6.81942 22.6633 7.05859 22.6445C7.27271 22.6277 7.42742 22.504 7.50098 22.4424C7.58704 22.3703 7.68611 22.2709 7.78613 22.1709L12.207 17.75H17.7002C18.5319 17.75 19.1857 17.7499 19.7109 17.707C20.2421 17.6636 20.6858 17.5736 21.0889 17.3682C21.7474 17.0326 22.2826 16.4974 22.6182 15.8389C22.8236 15.4358 22.9136 14.9921 22.957 14.4609C22.9999 13.9357 23 13.2819 23 12.4502V8.0498C23 7.21814 22.9999 6.56434 22.957 6.03906C22.9136 5.50789 22.8236 5.06423 22.6182 4.66113C22.2826 4.00262 21.7474 3.46738 21.0889 3.13184C20.6858 2.92645 20.2421 2.83637 19.7109 2.79297C19.1857 2.75006 18.5319 2.75 17.7002 2.75H6.2998ZM17.7002 3.75C18.5484 3.75 19.1547 3.75024 19.6299 3.78906C20.099 3.8274 20.3962 3.90094 20.6348 4.02246C21.1052 4.26214 21.4879 4.64483 21.7275 5.11523C21.8491 5.35381 21.9226 5.65101 21.9609 6.12012C21.9998 6.59525 22 7.20158 22 8.0498V12.4502C22 13.2984 21.9998 13.9047 21.9609 14.3799C21.9226 14.849 21.8491 15.1462 21.7275 15.3848C21.4879 15.8552 21.1052 16.2379 20.6348 16.4775C20.3962 16.5991 20.099 16.6726 19.6299 16.7109C19.1547 16.7498 18.5484 16.75 17.7002 16.75H12.166C12.1287 16.75 12.0283 16.7466 11.9287 16.7705C11.8523 16.7889 11.779 16.8193 11.7119 16.8604C11.6245 16.9139 11.5557 16.9873 11.5293 17.0137L7.25 21.293V17.6504C7.25 17.5887 7.25055 17.512 7.24512 17.4453C7.23919 17.3727 7.22349 17.2682 7.16797 17.1592L7.10645 17.0586C7.03733 16.9636 6.94641 16.8859 6.84082 16.832L6.75977 16.7969C6.6813 16.769 6.60905 16.7593 6.55469 16.7549C6.48797 16.7494 6.41129 16.75 6.34961 16.75H6.2998C5.45158 16.75 4.84525 16.7498 4.37012 16.7109C3.90101 16.6726 3.60381 16.5991 3.36523 16.4775C2.89483 16.2379 2.51214 15.8552 2.27246 15.3848C2.15094 15.1462 2.0774 14.849 2.03906 14.3799C2.00024 13.9047 2 13.2984 2 12.4502V8.0498C2 7.20158 2.00024 6.59525 2.03906 6.12012C2.0774 5.65101 2.15094 5.35381 2.27246 5.11523C2.51214 4.64483 2.89483 4.26214 3.36523 4.02246C3.60381 3.90094 3.90101 3.8274 4.37012 3.78906C4.84525 3.75024 5.45158 3.75 6.2998 3.75H17.7002ZM17.25 10C16.8358 10 16.5 10.3358 16.5 10.75C16.5 11.1642 16.8358 11.5 17.25 11.5C17.6642 11.5 18 11.1642 18 10.75C18 10.3358 17.6642 10 17.25 10ZM12 10C11.5858 10 11.25 10.3358 11.25 10.75C11.25 11.1642 11.5858 11.5 12 11.5C12.4142 11.5 12.75 11.1642 12.75 10.75C12.75 10.3358 12.4142 10 12 10ZM6.75 10C6.33579 10 6 10.3358 6 10.75C6 11.1642 6.33579 11.5 6.75 11.5C7.16421 11.5 7.5 11.1642 7.5 10.75C7.5 10.3358 7.16421 10 6.75 10Z" fill="black"/>
</svg>
