<svg width="24" height="24" viewBox="0 0 24 24" fill="none" xmlns="http://www.w3.org/2000/svg">
<path fill-rule="evenodd" clip-rule="evenodd" d="M10.5 3C5.80558 3 2 6.80558 2 11.5C2 13.5314 2.71259 15.3963 3.90143 16.8585C3.96244 16.9335 3.99301 16.9711 4.00739 17.0106C4.02047 17.0464 4.02501 17.0817 4.02144 17.1197C4.01751 17.1615 3.99833 17.2037 3.95999 17.288L2.83519 19.7626C2.72749 19.9995 2.67364 20.118 2.69429 20.2021C2.71226 20.2754 2.7623 20.3366 2.8305 20.3687C2.90887 20.4056 3.03568 20.3764 3.28928 20.3179L7.20128 19.4151C7.24673 19.4046 7.26945 19.3994 7.2918 19.3983C7.31213 19.3973 7.33102 19.3986 7.35102 19.4025C7.37296 19.4067 7.39563 19.4154 7.44093 19.4329C8.3901 19.7991 9.42169 20 10.5 20H14.5C19.1944 20 23 16.1944 23 11.5C23 6.80558 19.1944 3 14.5 3H10.5ZM17.25 12.5C17.6642 12.5 18 12.1642 18 11.75C18 11.3358 17.6642 11 17.25 11C16.8358 11 16.5 11.3358 16.5 11.75C16.5 12.1642 16.8358 12.5 17.25 12.5ZM12.75 11.75C12.75 12.1642 12.4142 12.5 12 12.5C11.5858 12.5 11.25 12.1642 11.25 11.75C11.25 11.3358 11.5858 11 12 11C12.4142 11 12.75 11.3358 12.75 11.75ZM6.75 12.5C7.16421 12.5 7.5 12.1642 7.5 11.75C7.5 11.3358 7.16421 11 6.75 11C6.33579 11 6 11.3358 6 11.75C6 12.1642 6.33579 12.5 6.75 12.5Z" fill="black"/>
</svg>
