<svg width="25" height="24" viewBox="0 0 25 24" fill="none" xmlns="http://www.w3.org/2000/svg">
<path d="M16.5 14C17.3284 14 18 13.3284 18 12.5C18 11.6716 17.3284 11 16.5 11C15.6716 11 15 11.6716 15 12.5C15 13.3284 15.6716 14 16.5 14Z" fill="black"/>
<path d="M13.5 12.5C13.5 13.3284 12.8284 14 12 14C11.1716 14 10.5 13.3284 10.5 12.5C10.5 11.6716 11.1716 11 12 11C12.8284 11 13.5 11.6716 13.5 12.5Z" fill="black"/>
<path d="M7.5 14C8.32843 14 9 13.3284 9 12.5C9 11.6716 8.32843 11 7.5 11C6.67157 11 6 11.6716 6 12.5C6 13.3284 6.67157 14 7.5 14Z" fill="black"/>
<path fill-rule="evenodd" clip-rule="evenodd" d="M14.5 1.75C19.8848 1.75 24.25 6.11522 24.25 11.5C24.25 16.8848 19.8848 21.25 14.5 21.25H10.5C9.35723 21.25 8.258 21.0529 7.23608 20.6899L3.27438 21.6042C2.06327 21.8836 1.05721 20.6534 1.57154 19.5219L2.61229 17.2322C1.44147 15.6234 0.75 13.6411 0.75 11.5C0.75 6.11522 5.11522 1.75 10.5 1.75H14.5ZM21.75 11.5C21.75 7.49594 18.5041 4.25 14.5 4.25H10.5C6.49594 4.25 3.25 7.49594 3.25 11.5C3.25 13.2632 3.87781 14.8764 4.9234 16.1333C5.28394 16.5667 5.38195 17.1805 5.1377 17.7178L4.68543 18.7128L6.96622 18.1865C7.26764 18.1169 7.57676 18.1436 7.85359 18.2522C8.67178 18.5732 9.56374 18.75 10.5 18.75H14.5C18.5041 18.75 21.75 15.5041 21.75 11.5Z" fill="black"/>
</svg>
