<svg width="24" height="24" viewBox="0 0 24 24" fill="none" xmlns="http://www.w3.org/2000/svg">
<path d="M4.5 21.5003C3.94772 21.5003 3.5 21.948 3.5 22.5003C3.5 23.0526 3.94772 23.5003 4.5 23.5003H20C20.5523 23.5003 21 23.0526 21 22.5003C21 21.948 20.5523 21.5003 20 21.5003H4.5Z" fill="black"/>
<path fill-rule="evenodd" clip-rule="evenodd" d="M8.02051 8.61196C8.02051 6.41457 9.80184 4.63323 11.9992 4.63323C14.1966 4.63323 15.978 6.41457 15.978 8.61196C15.978 10.8093 14.1966 12.5907 11.9992 12.5907C9.80184 12.5907 8.02051 10.8093 8.02051 8.61196ZM11.9992 6.63323C10.9064 6.63323 10.0205 7.51914 10.0205 8.61196C10.0205 9.70478 10.9064 10.5907 11.9992 10.5907C13.092 10.5907 13.978 9.70478 13.978 8.61196C13.978 7.51914 13.092 6.63323 11.9992 6.63323Z" fill="black"/>
<path fill-rule="evenodd" clip-rule="evenodd" d="M11.9997 19.2503C11.4634 20.0943 11.4632 20.0942 11.4629 20.094L11.4602 20.0922L11.4542 20.0885L11.4347 20.0758C11.4182 20.0652 11.3951 20.0501 11.3658 20.0306C11.3071 19.9917 11.2233 19.9353 11.1182 19.8622C10.9079 19.7161 10.6113 19.5028 10.257 19.2284C9.55013 18.6809 8.60546 17.8839 7.65755 16.8858C5.79258 14.9221 3.76562 12.0226 3.76562 8.61197C3.76562 4.06444 7.45213 0.37793 11.9997 0.37793C16.5472 0.377929 20.2337 4.06444 20.2337 8.61197C20.2337 12.0226 18.2068 14.9221 16.3418 16.8858C15.3939 17.8839 14.4492 18.6809 13.7423 19.2284C13.3881 19.5028 13.0914 19.7161 12.8812 19.8622C12.776 19.9353 12.6923 19.9917 12.6336 20.0306C12.6042 20.0501 12.5811 20.0652 12.5647 20.0758L12.5451 20.0885L12.5392 20.0922L12.5372 20.0935C12.5369 20.0937 12.5359 20.0943 11.9997 19.2503ZM11.9997 2.37793C8.5567 2.37793 5.76562 5.169 5.76562 8.61197C5.76562 11.244 7.35569 13.6637 9.10774 15.5085C9.96834 16.4146 10.8322 17.1441 11.4817 17.6472C11.6764 17.798 11.851 17.9278 11.9997 18.0354C12.1483 17.9278 12.323 17.798 12.5177 17.6472C13.1672 17.1441 14.031 16.4146 14.8916 15.5085C16.6436 13.6637 18.2337 11.244 18.2337 8.61197C18.2337 5.16901 15.4426 2.37793 11.9997 2.37793Z" fill="black"/>
<path d="M11.9997 19.2503L12.5359 20.0943C12.2086 20.3022 11.7901 20.3019 11.4629 20.094L11.9997 19.2503Z" fill="black"/>
</svg>
