<svg width="24" height="24" viewBox="0 0 24 24" fill="none" xmlns="http://www.w3.org/2000/svg">
<path fill-rule="evenodd" clip-rule="evenodd" d="M0.123117 15.5643C0 14.787 0 13.858 0 12C0 10.142 0 9.21298 0.123117 8.43565C0.800832 4.15673 4.15673 0.800833 8.43565 0.123117C9.21298 0 10.142 0 12 0C13.858 0 14.787 0 15.5643 0.123117C19.8433 0.800833 23.1992 4.15673 23.8769 8.43565C24 9.21298 24 10.142 24 12C24 13.858 24 14.787 23.8769 15.5643C23.1992 19.8433 19.8433 23.1992 15.5643 23.8769C14.787 24 13.858 24 12 24C10.142 24 9.21298 24 8.43565 23.8769C4.15673 23.1992 0.800832 19.8433 0.123117 15.5643ZM17.6161 6.42862C18.1043 5.94046 18.8957 5.94046 19.3839 6.42862C19.872 6.91677 19.872 7.70823 19.3839 8.19638L11.0607 16.5196C10.5441 17.0362 9.70659 17.0362 9.19003 16.5196L5.61612 12.9457C5.12796 12.4575 5.12796 11.6661 5.61612 11.1779C6.10427 10.6898 6.89573 10.6898 7.38388 11.1779L10.1253 13.9194L17.6161 6.42862Z" fill="black"/>
</svg>
