<svg width="24" height="24" viewBox="0 0 24 24" fill="none" xmlns="http://www.w3.org/2000/svg">
<path d="M4.5 22.2503C4.36193 22.2503 4.25 22.3622 4.25 22.5003C4.25 22.6383 4.36193 22.7503 4.5 22.7503H20C20.1381 22.7503 20.25 22.6383 20.25 22.5003C20.25 22.3622 20.1381 22.2503 20 22.2503H4.5Z" fill="black"/>
<path fill-rule="evenodd" clip-rule="evenodd" d="M8.77051 8.61196C8.77051 6.82878 10.2161 5.38324 11.9992 5.38324C13.7824 5.38324 15.228 6.82878 15.228 8.61196C15.228 10.3951 13.7824 11.8407 11.9992 11.8407C10.2161 11.8407 8.77051 10.3951 8.77051 8.61196ZM11.9992 5.88324C10.4922 5.88324 9.27051 7.10493 9.27051 8.61196C9.27051 10.119 10.4922 11.3407 11.9992 11.3407C13.5063 11.3407 14.728 10.119 14.728 8.61196C14.728 7.10493 13.5063 5.88324 11.9992 5.88324Z" fill="black"/>
<path fill-rule="evenodd" clip-rule="evenodd" d="M11.9997 19.2503C11.8656 19.4613 11.8655 19.4612 11.8654 19.4612L11.8638 19.4601L11.8594 19.4573L11.8429 19.4466C11.8285 19.4373 11.8075 19.4236 11.7803 19.4055C11.7258 19.3695 11.6466 19.3161 11.5462 19.2463C11.3452 19.1067 11.0592 18.901 10.7163 18.6354C10.0309 18.1046 9.11654 17.3329 8.20137 16.3693C6.37875 14.4502 4.51562 11.7306 4.51562 8.61197C4.51562 4.47865 7.86634 1.12793 11.9997 1.12793C16.133 1.12793 19.4837 4.47865 19.4837 8.61197C19.4837 11.7306 17.6206 14.4502 15.798 16.3693C14.8828 17.3329 13.9684 18.1046 13.2831 18.6354C12.9402 18.901 12.6541 19.1067 12.4532 19.2463C12.3527 19.3161 12.2735 19.3695 12.2191 19.4055L12.1761 19.4339L12.1565 19.4466L12.14 19.4573L12.1355 19.4601L12.1343 19.4609C12.1342 19.461 12.1337 19.4613 11.9997 19.2503ZM11.9997 1.62793C8.14249 1.62793 5.01562 4.75479 5.01562 8.61197C5.01562 11.536 6.76952 14.1356 8.56392 16.025C9.45726 16.9656 10.3514 17.7204 11.0224 18.2401C11.3577 18.4998 11.6368 18.7004 11.8315 18.8357C11.8977 18.8817 11.9541 18.9202 11.9997 18.9508C12.0452 18.9202 12.1016 18.8817 12.1678 18.8357C12.3625 18.7004 12.6416 18.4998 12.9769 18.2401C13.6479 17.7204 14.5421 16.9656 15.4354 16.025C17.2298 14.1356 18.9837 11.536 18.9837 8.61197C18.9837 4.75479 15.8568 1.62793 11.9997 1.62793Z" fill="black"/>
<path d="M11.9997 19.2503L12.1343 19.4609C12.0525 19.5129 11.9472 19.5131 11.8654 19.4612L11.9997 19.2503Z" fill="black"/>
</svg>
