<svg width="24" height="24" viewBox="0 0 24 24" fill="none" xmlns="http://www.w3.org/2000/svg">
<path d="M8.51387 0.616961C9.24254 0.501553 10.1229 0.5 12 0.5C13.8771 0.5 14.7575 0.501553 15.4861 0.616961C17.4874 0.933932 19.2761 1.86759 20.6534 3.21895L21.0069 2.86539C19.5568 1.4411 17.6726 0.457032 15.5643 0.123117C14.787 0 13.858 0 12 0C10.142 0 9.21298 0 8.43565 0.123117C4.15673 0.800833 0.800832 4.15673 0.123117 8.43565C0 9.21298 0 10.142 0 12C0 13.858 0 14.787 0.123117 15.5643C0.800832 19.8433 4.15673 23.1992 8.43565 23.8769C9.21298 24 10.142 24 12 24C13.858 24 14.787 24 15.5643 23.8769C19.8433 23.1992 23.1992 19.8433 23.8769 15.5643C24 14.787 24 13.858 24 12C24 10.142 24 9.21298 23.8769 8.43565C23.6992 7.31373 23.3374 6.25527 22.8231 5.29189L22.4526 5.66234C22.9037 6.54109 23.2225 7.50022 23.383 8.51387C23.4984 9.24254 23.5 10.1229 23.5 12C23.5 13.8771 23.4984 14.7575 23.383 15.4861C22.7392 19.5511 19.5511 22.7392 15.4861 23.383C14.7575 23.4984 13.8771 23.5 12 23.5C10.1229 23.5 9.24254 23.4984 8.51387 23.383C4.44889 22.7392 1.26079 19.5511 0.616961 15.4861C0.501552 14.7575 0.5 13.8771 0.5 12C0.5 10.1229 0.501552 9.24254 0.616961 8.51387C1.26079 4.44889 4.44889 1.26079 8.51387 0.616961Z" fill="black"/>
<path d="M19.9233 5.71678C20.021 5.61915 20.1792 5.61915 20.2769 5.71678C20.3745 5.81441 20.3745 5.9727 20.2769 6.07033L11.1213 15.2259C10.9924 15.3548 10.7835 15.3548 10.6546 15.2259L6.72332 11.2946C6.62569 11.1969 6.62569 11.0387 6.72332 10.941C6.82095 10.8434 6.97924 10.8434 7.07687 10.941L10.888 14.7521L19.9233 5.71678Z" fill="black"/>
</svg>
