<svg width="24" height="24" viewBox="0 0 24 24" fill="none" xmlns="http://www.w3.org/2000/svg">
<path fill-rule="evenodd" clip-rule="evenodd" d="M12 24C18.6274 24 24 18.6274 24 12C24 5.37258 18.6274 0 12 0C5.37258 0 0 5.37258 0 12C0 18.6274 5.37258 24 12 24ZM17.2865 7.29289C17.6771 6.90237 18.3102 6.90237 18.7008 7.29289C19.0913 7.68342 19.0913 8.31658 18.7008 8.70711L11.6517 15.7562C11.2299 16.178 10.5461 16.178 10.1243 15.7562L6.19299 11.8249C5.80247 11.4344 5.80247 10.8012 6.19299 10.4107C6.58352 10.0202 7.21668 10.0202 7.6072 10.4107L10.888 13.6915L17.2865 7.29289Z" fill="black"/>
</svg>
