<svg width="24" height="24" viewBox="0 0 24 24" fill="none" xmlns="http://www.w3.org/2000/svg">
<path d="M8.59209 1.11081C9.27209 1.0031 10.1038 1 12 1C13.8962 1 14.7279 1.0031 15.4079 1.11081C17.1292 1.38344 18.6846 2.13763 19.9329 3.23232L20.6414 2.52384C19.2461 1.28401 17.4996 0.429637 15.5643 0.123117C14.787 0 13.858 0 12 0C10.142 0 9.21298 0 8.43565 0.123117C4.15673 0.800833 0.800832 4.15673 0.123117 8.43565C0 9.21298 0 10.142 0 12C0 13.858 0 14.787 0.123117 15.5643C0.800832 19.8433 4.15673 23.1992 8.43565 23.8769C9.21298 24 10.142 24 12 24C13.858 24 14.787 24 15.5643 23.8769C19.8433 23.1992 23.1992 19.8433 23.8769 15.5643C24 14.787 24 13.858 24 12C24 10.142 24 9.21298 23.8769 8.43565C23.7277 7.49388 23.4488 6.59682 23.0589 5.76318L22.3011 6.521C22.5751 7.1751 22.7747 7.86895 22.8892 8.59209C22.9969 9.27209 23 10.1038 23 12C23 13.8962 22.9969 14.7279 22.8892 15.4079C22.2793 19.2589 19.2589 22.2793 15.4079 22.8892C14.7279 22.9969 13.8962 23 12 23C10.1038 23 9.27209 22.9969 8.59209 22.8892C4.74106 22.2793 1.72075 19.2589 1.11081 15.4079C1.0031 14.7279 1 13.8962 1 12C1 10.1038 1.0031 9.27209 1.11081 8.59209C1.72075 4.74106 4.74106 1.72075 8.59209 1.11081Z" fill="black"/>
<path d="M19.7465 5.54C19.9418 5.34474 20.2584 5.34474 20.4537 5.54C20.6489 5.73526 20.6489 6.05185 20.4537 6.24711L11.2981 15.4027C11.0716 15.6292 10.7044 15.6292 10.4779 15.4027L6.54654 11.4714C6.35128 11.2761 6.35128 10.9595 6.54654 10.7642C6.74181 10.569 7.05839 10.569 7.25365 10.7642L10.888 14.3986L19.7465 5.54Z" fill="black"/>
</svg>
