<svg width="24" height="24" viewBox="0 0 24 24" fill="none" xmlns="http://www.w3.org/2000/svg">
<path fill-rule="evenodd" clip-rule="evenodd" d="M0.123117 15.5643C0 14.787 0 13.858 0 12C0 10.142 0 9.21298 0.123117 8.43565C0.800832 4.15673 4.15673 0.800833 8.43565 0.123117C9.21298 0 10.142 0 12 0C13.858 0 14.787 0 15.5643 0.123117C19.8433 0.800833 23.1992 4.15673 23.8769 8.43565C24 9.21298 24 10.142 24 12C24 13.858 24 14.787 23.8769 15.5643C23.1992 19.8433 19.8433 23.1992 15.5643 23.8769C14.787 24 13.858 24 12 24C10.142 24 9.21298 24 8.43565 23.8769C4.15673 23.1992 0.800832 19.8433 0.123117 15.5643ZM18.3232 7.13572C18.4209 7.03809 18.5791 7.03809 18.6768 7.13572C18.7744 7.23335 18.7744 7.39165 18.6768 7.48928L10.3535 15.8125C10.2275 15.9385 10.0232 15.9385 9.89714 15.8125L6.32322 12.2386C6.22559 12.141 6.22559 11.9827 6.32322 11.885C6.42085 11.7874 6.57915 11.7874 6.67678 11.885L10.1253 15.3336L18.3232 7.13572Z" fill="black"/>
</svg>
