<svg width="24" height="24" viewBox="0 0 24 24" fill="none" xmlns="http://www.w3.org/2000/svg">
<path fill-rule="evenodd" clip-rule="evenodd" d="M12.2681 22.922L12 22.5C12.2681 22.922 12.2679 22.9222 12.2681 22.922L12.2706 22.9204L12.2763 22.9168L12.2965 22.9038C12.314 22.8924 12.3392 22.8759 12.3718 22.8543C12.4369 22.8111 12.5312 22.7476 12.6506 22.6647C12.8892 22.4988 13.2283 22.2551 13.6343 21.9406C14.4455 21.3123 15.5282 20.3986 16.6125 19.2569C18.7658 16.9897 21 13.7447 21 10C21 5.02944 16.9706 1 12 1C7.02944 1 3 5.02944 3 10C3 13.7447 5.23422 16.9897 7.38745 19.2569C8.47178 20.3986 9.55449 21.3123 10.3657 21.9406C10.7717 22.2551 11.1108 22.4988 11.3494 22.6647C11.4688 22.7476 11.5631 22.8111 11.6282 22.8543C11.6608 22.8759 11.686 22.8924 11.7035 22.9038L11.7237 22.9168L11.7294 22.9204L11.731 22.9215C11.7312 22.9216 11.7319 22.922 12 22.5L11.7319 22.922C11.8955 23.026 12.1045 23.026 12.2681 22.922ZM15.5 10C15.5 11.933 13.933 13.5 12 13.5C10.067 13.5 8.5 11.933 8.5 10C8.5 8.067 10.067 6.5 12 6.5C13.933 6.5 15.5 8.067 15.5 10Z" fill="black"/>
</svg>
