<svg width="24" height="24" viewBox="0 0 24 24" fill="none" xmlns="http://www.w3.org/2000/svg">
<path fill-rule="evenodd" clip-rule="evenodd" d="M12.5362 23.3441L12 22.5C12.5362 23.3441 12.5359 23.3443 12.5362 23.3441L12.5397 23.3418L12.5464 23.3376L12.5686 23.3232C12.5875 23.311 12.6141 23.2936 12.6481 23.271C12.7161 23.226 12.8134 23.1604 12.9359 23.0753C13.1808 22.9051 13.5269 22.6563 13.9404 22.3359C14.766 21.6965 15.8689 20.7659 16.9751 19.6012C19.1566 17.3043 21.5 13.9393 21.5 10C21.5 4.7533 17.2467 0.5 12 0.5C6.7533 0.5 2.5 4.75329 2.5 10C2.5 13.9393 4.84344 17.3043 7.0249 19.6012C8.13106 20.7659 9.23397 21.6965 10.0596 22.3359C10.4731 22.6563 10.8192 22.9051 11.0641 23.0753C11.1866 23.1604 11.2839 23.226 11.3519 23.271C11.3859 23.2936 11.4125 23.311 11.4314 23.3232L11.4536 23.3376L11.4603 23.3418L11.4624 23.3432C11.4627 23.3434 11.4638 23.3441 12 22.5L11.4638 23.3441C11.791 23.552 12.209 23.552 12.5362 23.3441ZM15.5 10C15.5 11.933 13.933 13.5 12 13.5C10.067 13.5 8.5 11.933 8.5 10C8.5 8.067 10.067 6.5 12 6.5C13.933 6.5 15.5 8.067 15.5 10Z" fill="black"/>
</svg>
