<svg width="24" height="24" viewBox="0 0 24 24" fill="none" xmlns="http://www.w3.org/2000/svg">
<path d="M4.5 21.2503C3.80964 21.2503 3.25 21.8099 3.25 22.5003C3.25 23.1906 3.80964 23.7503 4.5 23.7503H20C20.6904 23.7503 21.25 23.1906 21.25 22.5003C21.25 21.8099 20.6904 21.2503 20 21.2503H4.5Z" fill="black"/>
<path fill-rule="evenodd" clip-rule="evenodd" d="M7.77051 8.61196C7.77051 6.2765 9.66377 4.38324 11.9992 4.38324C14.3347 4.38324 16.228 6.2765 16.228 8.61196C16.228 10.9474 14.3347 12.8407 11.9992 12.8407C9.66377 12.8407 7.77051 10.9474 7.77051 8.61196ZM11.9992 6.88323C11.0445 6.88323 10.2705 7.65721 10.2705 8.61196C10.2705 9.5667 11.0445 10.3407 11.9992 10.3407C12.954 10.3407 13.728 9.5667 13.728 8.61196C13.728 7.65721 12.954 6.88323 11.9992 6.88323Z" fill="black"/>
<path fill-rule="evenodd" clip-rule="evenodd" d="M11.9997 19.2503C11.3294 20.3054 11.3291 20.3052 11.3287 20.3049L11.3278 20.3044L11.3256 20.303L11.3192 20.2988L11.2986 20.2856C11.2815 20.2745 11.2577 20.2589 11.2276 20.2389C11.1675 20.1991 11.0822 20.1417 10.9755 20.0675C10.7621 19.9192 10.462 19.7033 10.1039 19.426C9.38988 18.873 8.4351 18.0675 7.47627 17.0579C5.59719 15.0794 3.51562 12.1199 3.51562 8.61197C3.51562 3.92636 7.31406 0.12793 11.9997 0.12793C16.6853 0.127929 20.4837 3.92636 20.4837 8.61197C20.4837 12.1199 18.4021 15.0794 16.5231 17.0579C15.5642 18.0675 14.6095 18.873 13.8954 19.426C13.5374 19.7033 13.2372 19.9192 13.0238 20.0675C12.9171 20.1417 12.8319 20.1991 12.7717 20.2389C12.7417 20.2589 12.7178 20.2745 12.7007 20.2856L12.6802 20.2988L12.6737 20.303L12.6715 20.3044L12.6706 20.3049C12.6703 20.3052 12.6699 20.3054 11.9997 19.2503ZM11.9997 2.62793C8.69477 2.62793 6.01562 5.30708 6.01562 8.61197C6.01562 11.1467 7.55108 13.5064 9.28902 15.3363C10.1387 16.231 10.9924 16.9521 11.6348 17.4495C11.7663 17.5514 11.8886 17.6436 11.9997 17.7257C12.1107 17.6436 12.233 17.5514 12.3646 17.4495C13.0069 16.9521 13.8606 16.231 14.7103 15.3363C16.4483 13.5064 17.9837 11.1467 17.9837 8.61197C17.9837 5.30708 15.3046 2.62793 11.9997 2.62793Z" fill="black"/>
<path d="M11.9997 19.2503L12.6706 20.3049C12.2616 20.5648 11.7378 20.5648 11.3287 20.3049L11.9997 19.2503Z" fill="black"/>
</svg>
