<svg width="24" height="24" viewBox="0 0 24 24" fill="none" xmlns="http://www.w3.org/2000/svg">
<path fill-rule="evenodd" clip-rule="evenodd" d="M12 24C18.6274 24 24 18.6274 24 12C24 5.37258 18.6274 0 12 0C5.37258 0 0 5.37258 0 12C0 18.6274 5.37258 24 12 24ZM17.4633 7.46967C17.7562 7.17678 18.2311 7.17678 18.524 7.46967C18.8169 7.76256 18.8169 8.23744 18.524 8.53033L11.4749 15.5794C11.1507 15.9036 10.6252 15.9036 10.3011 15.5794L6.36977 11.6481C6.07687 11.3552 6.07687 10.8804 6.36977 10.5875C6.66266 10.2946 7.13754 10.2946 7.43043 10.5875L10.888 14.045L17.4633 7.46967Z" fill="black"/>
</svg>
