<svg width="24" height="24" viewBox="0 0 24 24" fill="none" xmlns="http://www.w3.org/2000/svg">
<path fill-rule="evenodd" clip-rule="evenodd" d="M12.4022 23.1331L12 22.5C12.4022 23.1331 12.4019 23.1332 12.4022 23.1331L12.4052 23.1311L12.4113 23.1272L12.4326 23.1135C12.4507 23.1017 12.4767 23.0847 12.51 23.0627C12.5765 23.0186 12.6723 22.954 12.7932 22.87C13.035 22.702 13.3776 22.4557 13.7874 22.1383C14.6058 21.5044 15.6986 20.5822 16.7938 19.429C18.9612 17.147 21.25 13.842 21.25 10C21.25 4.89137 17.1086 0.75 12 0.75C6.89137 0.75 2.75 4.89137 2.75 10C2.75 13.842 5.03883 17.147 7.20618 19.429C8.30142 20.5822 9.39423 21.5044 10.2126 22.1383C10.6224 22.4557 10.965 22.702 11.2068 22.87C11.3277 22.954 11.4235 23.0186 11.4901 23.0627C11.5233 23.0847 11.5493 23.1017 11.5674 23.1135L11.5887 23.1272L11.5948 23.1311L11.5967 23.1323C11.597 23.1325 11.5978 23.1331 12 22.5L11.5978 23.1331C11.8433 23.289 12.1567 23.289 12.4022 23.1331ZM15.5 10C15.5 11.933 13.933 13.5 12 13.5C10.067 13.5 8.5 11.933 8.5 10C8.5 8.067 10.067 6.5 12 6.5C13.933 6.5 15.5 8.067 15.5 10Z" fill="black"/>
</svg>
