<svg width="24" height="24" viewBox="0 0 24 24" fill="none" xmlns="http://www.w3.org/2000/svg">
<path fill-rule="evenodd" clip-rule="evenodd" d="M12 24C18.6274 24 24 18.6274 24 12C24 5.37258 18.6274 0 12 0C5.37258 0 0 5.37258 0 12C0 18.6274 5.37258 24 12 24ZM17.1098 7.11612C17.5979 6.62796 18.3894 6.62796 18.8775 7.11612C19.3657 7.60427 19.3657 8.39573 18.8775 8.88388L11.8284 15.933C11.309 16.4524 10.4669 16.4524 9.94752 15.933L6.01621 12.0017C5.52806 11.5135 5.52806 10.7221 6.01621 10.2339C6.50437 9.74576 7.29583 9.74576 7.78398 10.2339L10.888 13.3379L17.1098 7.11612Z" fill="black"/>
</svg>
