<svg width="24" height="24" viewBox="0 0 24 24" fill="none" xmlns="http://www.w3.org/2000/svg">
<path d="M8.67031 1.60465C9.30164 1.50466 10.0847 1.5 12 1.5C13.9153 1.5 14.6984 1.50466 15.3297 1.60465C16.7705 1.83285 18.0881 2.41827 19.1899 3.26818L20.2581 2.20004C18.9317 1.13533 17.3263 0.402179 15.5643 0.123117C14.787 0 13.858 0 12 0C10.142 0 9.21298 0 8.43565 0.123117C4.15673 0.800833 0.800832 4.15673 0.123117 8.43565C0 9.21298 0 10.142 0 12C0 13.858 0 14.787 0.123117 15.5643C0.800832 19.8433 4.15673 23.1992 8.43565 23.8769C9.21298 24 10.142 24 12 24C13.858 24 14.787 24 15.5643 23.8769C19.8433 23.1992 23.1992 19.8433 23.8769 15.5643C24 14.787 24 13.858 24 12C24 10.142 24 9.21298 23.8769 8.43565C23.7567 7.67675 23.5522 6.94688 23.2733 6.25584L22.1018 7.42741C22.2292 7.82936 22.3279 8.24445 22.3954 8.67031C22.4953 9.30164 22.5 10.0847 22.5 12C22.5 13.9153 22.4953 14.6984 22.3954 15.3297C21.8193 18.9668 18.9668 21.8193 15.3297 22.3954C14.6984 22.4953 13.9153 22.5 12 22.5C10.0847 22.5 9.30164 22.4953 8.67031 22.3954C5.03322 21.8193 2.18071 18.9668 1.60465 15.3297C1.50466 14.6984 1.5 13.9153 1.5 12C1.5 10.0847 1.50466 9.30164 1.60465 8.67031C2.18071 5.03322 5.03322 2.18071 8.67031 1.60465Z" fill="black"/>
<path d="M19.5698 5.36322C19.8627 5.07033 20.3375 5.07033 20.6304 5.36322C20.9233 5.65612 20.9233 6.13099 20.6304 6.42388L11.4749 15.5794C11.1507 15.9036 10.6252 15.9036 10.3011 15.5794L6.36977 11.6481C6.07687 11.3552 6.07687 10.8804 6.36977 10.5875C6.66266 10.2946 7.13753 10.2946 7.43043 10.5875L10.888 14.045L19.5698 5.36322Z" fill="black"/>
</svg>
