<svg width="24" height="24" viewBox="0 0 24 24" fill="none" xmlns="http://www.w3.org/2000/svg">
<path fill-rule="evenodd" clip-rule="evenodd" d="M0.123117 15.5643C0 14.787 0 13.858 0 12C0 10.142 0 9.21298 0.123117 8.43565C0.800832 4.15673 4.15673 0.800833 8.43565 0.123117C9.21298 0 10.142 0 12 0C13.858 0 14.787 0 15.5643 0.123117C19.8433 0.800833 23.1992 4.15673 23.8769 8.43565C24 9.21298 24 10.142 24 12C24 13.858 24 14.787 23.8769 15.5643C23.1992 19.8433 19.8433 23.1992 15.5643 23.8769C14.787 24 13.858 24 12 24C10.142 24 9.21298 24 8.43565 23.8769C4.15673 23.1992 0.800832 19.8433 0.123117 15.5643ZM18.1464 6.95895C18.3417 6.76369 18.6583 6.76369 18.8536 6.95895C19.0488 7.15421 19.0488 7.47079 18.8536 7.66605L10.5303 15.9893C10.3067 16.2129 9.94403 16.2129 9.72036 15.9893L6.14645 12.4154C5.95118 12.2201 5.95118 11.9035 6.14645 11.7083C6.34171 11.513 6.65829 11.513 6.85355 11.7083L10.1253 14.98L18.1464 6.95895Z" fill="black"/>
</svg>
