<svg width="24" height="24" viewBox="0 0 24 24" fill="none" xmlns="http://www.w3.org/2000/svg">
<path d="M12 0C14.5719 0 16.9529 0.811873 18.9062 2.18945C18.7735 2.28884 18.6461 2.39882 18.5254 2.51953L16.7119 4.33203C15.3413 3.48797 13.7278 3 12 3C7.02944 3 3 7.02944 3 12C3 16.9706 7.02944 21 12 21C16.9706 21 21 16.9706 21 12C21 11.3611 20.9323 10.738 20.8057 10.1367L23.2139 7.72852C23.7198 9.05589 24 10.495 24 12C24 18.6274 18.6274 24 12 24C5.37258 24 0 18.6274 0 12C0 5.37258 5.37258 0 12 0Z" fill="black"/>
<path d="M19.0391 4.83301C19.6248 4.2473 20.5744 4.24747 21.1602 4.83301C21.7459 5.41879 21.7459 6.36832 21.1602 6.9541L12.0049 16.1094C11.3878 16.7261 10.3874 16.7263 9.77051 16.1094L5.83887 12.1787C5.25353 11.5931 5.25379 10.6434 5.83887 10.0576C6.42457 9.47191 7.37415 9.47207 7.95996 10.0576L10.8877 12.9844L19.0391 4.83301Z" fill="black"/>
</svg>
