<svg width="24" height="24" viewBox="0 0 24 24" fill="none" xmlns="http://www.w3.org/2000/svg">
<path d="M12 0C13.858 0 14.7871 -6.97747e-05 15.5645 0.123047C16.8673 0.329404 18.0839 0.785099 19.166 1.43848C18.808 1.62329 18.472 1.86585 18.1719 2.16602L16.3838 3.95312C15.9493 3.78191 15.4918 3.65534 15.0166 3.58008C14.5799 3.51094 13.9914 3.5 12 3.5C10.0086 3.5 9.42006 3.51094 8.9834 3.58008C6.2021 4.02059 4.02059 6.2021 3.58008 8.9834C3.51094 9.42006 3.5 10.0086 3.5 12C3.5 13.9914 3.51094 14.5799 3.58008 15.0166C4.02059 17.7979 6.2021 19.9794 8.9834 20.4199C9.42006 20.4891 10.0086 20.5 12 20.5C13.9914 20.5 14.5799 20.4891 15.0166 20.4199C17.7979 19.9794 19.9794 17.7979 20.4199 15.0166C20.4891 14.5799 20.5 13.9914 20.5 12C20.5 11.6837 20.4978 11.4029 20.4971 11.1523L23.7705 7.87891C23.8103 8.06273 23.8473 8.24803 23.877 8.43555C24.0001 9.21287 24 10.142 24 12C24 13.858 24.0001 14.7871 23.877 15.5645L23.8057 15.9629C22.9886 20.0505 19.7096 23.2204 15.5645 23.877L15.2646 23.918C14.5406 24.0005 13.626 24 12 24C10.374 24 9.45938 24.0005 8.73535 23.918L8.43555 23.877C4.29043 23.2204 1.0114 20.0505 0.194336 15.9629L0.123047 15.5645C-6.97747e-05 14.7871 0 13.858 0 12C0 10.142 -6.97747e-05 9.21287 0.123047 8.43555C0.800792 4.1567 4.1567 0.800792 8.43555 0.123047C9.21287 -6.97747e-05 10.142 0 12 0Z" fill="black"/>
<path d="M18.8623 4.65625C19.5456 3.97291 20.6535 3.97308 21.3369 4.65625C22.0203 5.33967 22.0203 6.44744 21.3369 7.13086L12.1816 16.2861C11.4669 17.0004 10.3083 17.0007 9.59375 16.2861L5.66211 12.3555C4.97906 11.6722 4.97915 10.5632 5.66211 9.87988C6.34533 9.19689 7.45332 9.19718 8.13672 9.87988L10.8877 12.6309L18.8623 4.65625Z" fill="black"/>
</svg>
