<svg width="24" height="24" viewBox="0 0 24 24" fill="none" xmlns="http://www.w3.org/2000/svg">
<path d="M12 23C18.0751 23 23 18.0751 23 12C23 10.2054 22.5702 8.51113 21.808 7.01456L22.4142 6.40835C22.4601 6.36244 22.5034 6.31484 22.5439 6.26576C23.4724 7.96946 24 9.92311 24 12C24 18.6274 18.6274 24 12 24C5.37258 24 0 18.6274 0 12C0 5.37258 5.37258 0 12 0C15.1432 0 18.0042 1.20849 20.1436 3.18618C19.9418 3.28175 19.7527 3.413 19.5858 3.57993L19.3499 3.81581C17.4018 2.06516 14.8253 1 12 1C5.92487 1 1 5.92487 1 12C1 18.0751 5.92487 23 12 23Z" fill="black"/>
<path d="M19.7465 5.54C19.9418 5.34474 20.2584 5.34474 20.4537 5.54C20.6489 5.73526 20.6489 6.05185 20.4537 6.24711L11.2981 15.4027C11.0716 15.6292 10.7044 15.6292 10.4779 15.4027L6.54654 11.4714C6.35128 11.2761 6.35128 10.9595 6.54654 10.7642C6.74181 10.569 7.05839 10.569 7.25365 10.7642L10.888 14.3986L19.7465 5.54Z" fill="black"/>
</svg>
