<svg width="24" height="24" viewBox="0 0 24 24" fill="none" xmlns="http://www.w3.org/2000/svg">
<path fill-rule="evenodd" clip-rule="evenodd" d="M12 0C18.6274 0 24 5.37258 24 12C24 18.6274 18.6274 24 12 24C5.37258 24 0 18.6274 0 12C0 5.37258 5.37258 0 12 0ZM19.2305 6.7627C18.547 6.07952 17.4392 6.07936 16.7559 6.7627L10.8877 12.6309L8.13672 9.87988C7.45332 9.19718 6.34533 9.19689 5.66211 9.87988C4.97915 10.5632 4.97906 11.6722 5.66211 12.3555L9.59375 16.2861C10.3083 17.0007 11.467 17.0004 12.1816 16.2861L19.2305 9.2373C19.9139 8.55389 19.9139 7.44611 19.2305 6.7627Z" fill="black"/>
</svg>
