<svg width="24" height="24" viewBox="0 0 24 24" fill="none" xmlns="http://www.w3.org/2000/svg">
<path d="M4.5 22C4.22386 22 4 22.2239 4 22.5C4 22.7762 4.22386 23 4.5 23H20C20.2761 23 20.5 22.7762 20.5 22.5C20.5 22.2239 20.2761 22 20 22H4.5Z" fill="black"/>
<path d="M11.9997 19.25L12.2678 19.6721C12.1042 19.776 11.8952 19.776 11.7316 19.6721L11.9997 19.25Z" fill="black"/>
<path fill-rule="evenodd" clip-rule="evenodd" d="M8.52051 8.61171C8.52051 6.69047 10.078 5.13299 11.9992 5.13299C13.9205 5.13299 15.478 6.69047 15.478 8.61171C15.478 10.533 13.9205 12.0904 11.9992 12.0904C10.078 12.0904 8.52051 10.533 8.52051 8.61171ZM11.9992 6.13299C10.6303 6.13299 9.52051 7.24275 9.52051 8.61171C9.52051 9.98067 10.6303 11.0904 11.9992 11.0904C13.3682 11.0904 14.478 9.98067 14.478 8.61171C14.478 7.24275 13.3682 6.13299 11.9992 6.13299Z" fill="black"/>
<path fill-rule="evenodd" clip-rule="evenodd" d="M12.2678 19.6721C12.2676 19.6722 12.2678 19.6721 11.9997 19.25C11.7316 19.6721 11.7317 19.6722 11.7316 19.6721L11.7293 19.6706L11.7243 19.6674L11.7068 19.6561C11.6917 19.6464 11.67 19.6322 11.6421 19.6136C11.5863 19.5766 11.5055 19.5223 11.4035 19.4513C11.1995 19.3096 10.9099 19.1013 10.5632 18.8328C9.87064 18.2965 8.94618 17.5163 8.0201 16.5412C6.18336 14.6072 4.26562 11.8277 4.26562 8.61173C4.26562 4.34033 7.72827 0.877686 11.9997 0.877686C16.2711 0.877685 19.7337 4.34033 19.7337 8.61173C19.7337 11.8277 17.816 14.6072 15.9792 16.5412C15.0532 17.5163 14.1287 18.2965 13.4361 18.8328C13.0895 19.1013 12.7999 19.3096 12.5958 19.4513C12.4938 19.5223 12.4131 19.5766 12.3572 19.6136C12.3293 19.6322 12.3076 19.6464 12.2925 19.6561L12.275 19.6674L12.2701 19.6706L12.2678 19.6721ZM11.9997 1.87769C8.28056 1.87769 5.26562 4.89262 5.26562 8.61173C5.26562 11.4384 6.96491 13.978 8.74519 15.8525C9.62762 16.7817 10.5117 17.5281 11.1755 18.0422C11.507 18.299 11.7826 18.497 11.9742 18.6302L11.9997 18.6478L12.0252 18.6302C12.2167 18.497 12.4923 18.299 12.8238 18.0422C13.4877 17.5281 14.3717 16.7817 15.2541 15.8525C17.0344 13.978 18.7337 11.4384 18.7337 8.61173C18.7337 4.89262 15.7188 1.87769 11.9997 1.87769Z" fill="black"/>
</svg>
