<svg width="24" height="24" viewBox="0 0 24 24" fill="none" xmlns="http://www.w3.org/2000/svg">
<path fill-rule="evenodd" clip-rule="evenodd" d="M12 5.5C9.51472 5.5 7.5 7.51472 7.5 10C7.5 12.4853 9.51472 14.5 12 14.5C14.4853 14.5 16.5 12.4853 16.5 10C16.5 7.51472 14.4853 5.5 12 5.5ZM9.5 10C9.5 8.61929 10.6193 7.5 12 7.5C13.3807 7.5 14.5 8.61929 14.5 10C14.5 11.3807 13.3807 12.5 12 12.5C10.6193 12.5 9.5 11.3807 9.5 10Z" fill="black"/>
<path fill-rule="evenodd" clip-rule="evenodd" d="M11.4632 23.3437C11.4635 23.3439 11.4638 23.3441 12 22.5L11.4632 23.3437C11.7904 23.5516 12.209 23.552 12.5362 23.3441L12 22.5C12.5362 23.3441 12.5359 23.3443 12.5362 23.3441L12.5376 23.3432L12.5397 23.3418L12.5464 23.3376L12.5686 23.3232C12.5875 23.311 12.6141 23.2936 12.6481 23.271C12.7161 23.226 12.8134 23.1604 12.9359 23.0753C13.1808 22.9051 13.5269 22.6563 13.9404 22.3359C14.766 21.6965 15.8689 20.7659 16.9751 19.6012C19.1566 17.3043 21.5 13.9393 21.5 10C21.5 4.7533 17.2467 0.5 12 0.5C6.7533 0.5 2.5 4.75329 2.5 10C2.5 13.9393 4.84344 17.3043 7.0249 19.6012C8.13106 20.7659 9.23397 21.6965 10.0596 22.3359C10.4731 22.6563 10.8192 22.9051 11.0641 23.0753C11.1866 23.1604 11.2839 23.226 11.3519 23.271C11.3859 23.2936 11.4125 23.311 11.4314 23.3232L11.4536 23.3376L11.4603 23.3418L11.4632 23.3437ZM4.5 10C4.5 5.85786 7.85786 2.5 12 2.5C16.1421 2.5 19.5 5.85786 19.5 10C19.5 13.1608 17.5934 16.0459 15.5249 18.2239C14.5061 19.2967 13.484 20.1598 12.7158 20.7547C12.4391 20.9691 12.1963 21.1478 12 21.2881C11.8037 21.1478 11.5609 20.9691 11.2842 20.7547C10.516 20.1598 9.49394 19.2967 8.4751 18.2239C6.40656 16.0459 4.5 13.1608 4.5 10Z" fill="black"/>
</svg>
