<svg width="24" height="24" viewBox="0 0 24 24" fill="none" xmlns="http://www.w3.org/2000/svg">
<path d="M12 0C14.3833 0 16.6025 0.697473 18.4697 1.89551C18.367 1.97964 18.2678 2.07011 18.1719 2.16602L15.8926 4.44434C14.7261 3.84214 13.4033 3.5 12 3.5C7.30558 3.5 3.5 7.30558 3.5 12C3.5 16.6944 7.30558 20.5 12 20.5C16.6944 20.5 20.5 16.6944 20.5 12C20.5 11.7266 20.4852 11.4563 20.46 11.1895L23.3994 8.25C23.7874 9.43008 24 10.6901 24 12C24 18.6274 18.6274 24 12 24C5.37258 24 0 18.6274 0 12C0 5.37258 5.37258 0 12 0Z" fill="black"/>
<path d="M18.8633 4.65625C19.5467 3.97307 20.6546 3.97291 21.3379 4.65625C22.021 5.33961 22.021 6.4475 21.3379 7.13086L12.1826 16.2861C11.468 17.0006 10.3094 17.0005 9.59473 16.2861L5.66309 12.3555C4.97971 11.6721 4.9798 10.5633 5.66309 9.87988C6.3464 9.19704 7.45439 9.19702 8.1377 9.87988L10.8887 12.6309L18.8633 4.65625Z" fill="black"/>
</svg>
