<svg width="24" height="24" viewBox="0 0 24 24" fill="none" xmlns="http://www.w3.org/2000/svg">
<path d="M12 22.5C17.799 22.5 22.5 17.799 22.5 12C22.5 10.5346 22.1998 9.13923 21.6575 7.87216L22.7678 6.76191L22.789 6.74043C23.5647 8.32863 24 10.1135 24 12C24 18.6274 18.6274 24 12 24C5.37258 24 0 18.6274 0 12C0 5.37258 5.37258 0 12 0C14.9511 0 17.6534 1.06527 19.7433 2.83225C19.5607 2.93856 19.3887 3.06993 19.2322 3.22637L18.6141 3.84455C16.8086 2.37855 14.5069 1.5 12 1.5C6.20101 1.5 1.5 6.20101 1.5 12C1.5 17.799 6.20101 22.5 12 22.5Z" fill="black"/>
<path d="M19.5698 5.36322C19.8627 5.07033 20.3375 5.07033 20.6304 5.36322C20.9233 5.65612 20.9233 6.13099 20.6304 6.42388L11.4749 15.5794C11.1507 15.9036 10.6252 15.9036 10.3011 15.5794L6.36977 11.6481C6.07687 11.3552 6.07687 10.8804 6.36977 10.5875C6.66266 10.2946 7.13753 10.2946 7.43043 10.5875L10.888 14.045L19.5698 5.36322Z" fill="black"/>
</svg>
