<svg width="24" height="24" viewBox="0 0 24 24" fill="none" xmlns="http://www.w3.org/2000/svg">
<path d="M12 0C13.858 0 14.7871 -6.97747e-05 15.5645 0.123047C17.0708 0.361637 18.4621 0.932969 19.6631 1.75879C19.2493 1.9296 18.8617 2.18324 18.5254 2.51953L17.2461 3.79785C16.5849 3.45161 15.861 3.2073 15.0947 3.08594C14.6094 3.00912 13.9722 3 12 3C10.0278 3 9.39058 3.00912 8.90527 3.08594C5.91003 3.56034 3.56034 5.91003 3.08594 8.90527C3.00912 9.39058 3 10.0278 3 12C3 13.9722 3.00912 14.6094 3.08594 15.0947C3.56034 18.09 5.91003 20.4397 8.90527 20.9141C9.39058 20.9909 10.0278 21 12 21C13.9722 21 14.6094 20.9909 15.0947 20.9141C18.09 20.4397 20.4397 18.09 20.9141 15.0947C20.9909 14.6094 21 13.9722 21 12C21 11.0568 20.9959 10.419 20.9854 9.95703L23.4746 7.46875C23.5286 7.41475 23.5792 7.3583 23.6289 7.30176C23.7323 7.67138 23.8158 8.04962 23.877 8.43555C24.0001 9.21287 24 10.142 24 12C24 13.858 24.0001 14.7871 23.877 15.5645L23.8057 15.9629C22.9886 20.0505 19.7096 23.2204 15.5645 23.877L15.2646 23.918C14.5406 24.0005 13.626 24 12 24C10.374 24 9.45938 24.0005 8.73535 23.918L8.43555 23.877C4.29043 23.2204 1.0114 20.0505 0.194336 15.9629L0.123047 15.5645C-6.97747e-05 14.7871 0 13.858 0 12C0 10.142 -6.97747e-05 9.21287 0.123047 8.43555C0.800792 4.1567 4.1567 0.800792 8.43555 0.123047C9.21287 -6.97747e-05 10.142 0 12 0Z" fill="black"/>
<path d="M19.0391 4.83301C19.6248 4.2473 20.5744 4.24747 21.1602 4.83301C21.7459 5.41879 21.7459 6.36832 21.1602 6.9541L12.0049 16.1094C11.3878 16.7261 10.3874 16.7263 9.77051 16.1094L5.83887 12.1787C5.25353 11.5931 5.25379 10.6434 5.83887 10.0576C6.42457 9.47191 7.37415 9.47207 7.95996 10.0576L10.8877 12.9844L19.0391 4.83301Z" fill="black"/>
</svg>
