<svg width="24" height="24" viewBox="0 0 24 24" fill="none" xmlns="http://www.w3.org/2000/svg">
<path fill-rule="evenodd" clip-rule="evenodd" d="M12 5.25C9.37665 5.25 7.25 7.37665 7.25 10C7.25 12.6234 9.37665 14.75 12 14.75C14.6234 14.75 16.75 12.6234 16.75 10C16.75 7.37665 14.6234 5.25 12 5.25ZM9.75 10C9.75 8.75736 10.7574 7.75 12 7.75C13.2426 7.75 14.25 8.75736 14.25 10C14.25 11.2426 13.2426 12.25 12 12.25C10.7574 12.25 9.75 11.2426 9.75 10Z" fill="black"/>
<path fill-rule="evenodd" clip-rule="evenodd" d="M11.329 23.5546C11.3294 23.5549 11.3297 23.5551 12 22.5L11.329 23.5546C11.7381 23.8145 12.2612 23.815 12.6703 23.5551L12 22.5C12.6703 23.5551 12.6699 23.5553 12.6703 23.5551L12.6743 23.5525L12.6814 23.548L12.7047 23.5329C12.7242 23.5203 12.7516 23.5024 12.7863 23.4794C12.8557 23.4334 12.9545 23.3668 13.0786 23.2806C13.3266 23.1082 13.6762 22.8568 14.0935 22.5336C14.9263 21.8886 16.0393 20.9496 17.1564 19.7733C19.3519 17.4616 21.75 14.0367 21.75 10C21.75 4.61522 17.3848 0.25 12 0.25C6.61522 0.25 2.25 4.61522 2.25 10C2.25 14.0367 4.64805 17.4616 6.84363 19.7733C7.9607 20.9496 9.07372 21.8886 9.90647 22.5336C10.3238 22.8568 10.6734 23.1082 10.9214 23.2806C11.0455 23.3668 11.1443 23.4334 11.2137 23.4794C11.2484 23.5024 11.2758 23.5203 11.2953 23.5329L11.3186 23.548L11.3257 23.5525L11.329 23.5546ZM4.75 10C4.75 5.99594 7.99594 2.75 12 2.75C16.0041 2.75 19.25 5.99594 19.25 10C19.25 13.0634 17.3981 15.8886 15.3436 18.0517C14.3357 19.113 13.3237 19.9677 12.5627 20.5571C12.3536 20.719 12.1642 20.8604 12 20.9799C11.8358 20.8604 11.6464 20.719 11.4373 20.5571C10.6763 19.9677 9.6643 19.113 8.65637 18.0517C6.60195 15.8886 4.75 13.0634 4.75 10Z" fill="black"/>
</svg>
