<svg width="24" height="24" viewBox="0 0 24 24" fill="none" xmlns="http://www.w3.org/2000/svg">
<path d="M4.5 22.0003C4.22386 22.0003 4 22.2241 4 22.5003C4 22.7764 4.22386 23.0003 4.5 23.0003H20C20.2761 23.0003 20.5 22.7764 20.5 22.5003C20.5 22.2241 20.2761 22.0003 20 22.0003H4.5Z" fill="black"/>
<path d="M11.9997 19.2503L12.2678 19.6723C12.1042 19.7763 11.8952 19.7763 11.7316 19.6723L11.9997 19.2503Z" fill="black"/>
<path fill-rule="evenodd" clip-rule="evenodd" d="M8.52051 8.61196C8.52051 6.69071 10.078 5.13323 11.9992 5.13323C13.9205 5.13323 15.478 6.69071 15.478 8.61196C15.478 10.5332 13.9205 12.0907 11.9992 12.0907C10.078 12.0907 8.52051 10.5332 8.52051 8.61196ZM11.9992 6.13323C10.6303 6.13323 9.52051 7.243 9.52051 8.61196C9.52051 9.98092 10.6303 11.0907 11.9992 11.0907C13.3682 11.0907 14.478 9.98092 14.478 8.61196C14.478 7.243 13.3682 6.13323 11.9992 6.13323Z" fill="black"/>
<path fill-rule="evenodd" clip-rule="evenodd" d="M12.2678 19.6723C12.2676 19.6724 12.2678 19.6723 11.9997 19.2503C11.7316 19.6723 11.7317 19.6724 11.7316 19.6723L11.7293 19.6708L11.7243 19.6677L11.7068 19.6564C11.6917 19.6466 11.67 19.6324 11.6421 19.6139C11.5863 19.5769 11.5055 19.5225 11.4035 19.4516C11.1995 19.3098 10.9099 19.1016 10.5632 18.8331C9.87064 18.2967 8.94618 17.5165 8.0201 16.5414C6.18336 14.6075 4.26562 11.8279 4.26562 8.61197C4.26562 4.34058 7.72827 0.87793 11.9997 0.87793C16.2711 0.87793 19.7337 4.34058 19.7337 8.61197C19.7337 11.8279 17.816 14.6075 15.9792 16.5414C15.0532 17.5165 14.1287 18.2967 13.4361 18.8331C13.0895 19.1016 12.7999 19.3098 12.5958 19.4516C12.4938 19.5225 12.4131 19.5769 12.3572 19.6139C12.3293 19.6324 12.3076 19.6466 12.2925 19.6564L12.275 19.6677L12.2701 19.6708L12.2678 19.6723ZM11.9997 1.87793C8.28056 1.87793 5.26562 4.89286 5.26562 8.61197C5.26562 11.4387 6.96491 13.9783 8.74519 15.8528C9.62762 16.7819 10.5117 17.5283 11.1755 18.0425C11.507 18.2992 11.7826 18.4973 11.9742 18.6304L11.9997 18.6481L12.0252 18.6304C12.2167 18.4973 12.4923 18.2992 12.8238 18.0425C13.4877 17.5283 14.3717 16.7819 15.2541 15.8528C17.0344 13.9783 18.7337 11.4387 18.7337 8.61197C18.7337 4.89286 15.7188 1.87793 11.9997 1.87793Z" fill="black"/>
</svg>
