<svg width="24" height="24" viewBox="0 0 24 24" fill="none" xmlns="http://www.w3.org/2000/svg">
<path fill-rule="evenodd" clip-rule="evenodd" d="M12.6703 23.5551L12 22.5C12.6703 23.5551 12.6699 23.5553 12.6703 23.5551L12.6743 23.5525L12.6814 23.548L12.7047 23.5329C12.7242 23.5203 12.7516 23.5024 12.7863 23.4794C12.8557 23.4334 12.9545 23.3668 13.0786 23.2806C13.3266 23.1082 13.6762 22.8568 14.0935 22.5336C14.9263 21.8886 16.0393 20.9496 17.1564 19.7733C19.3519 17.4616 21.75 14.0367 21.75 10C21.75 4.61522 17.3848 0.25 12 0.25C6.61522 0.25 2.25 4.61522 2.25 10C2.25 14.0367 4.64805 17.4616 6.84363 19.7733C7.9607 20.9496 9.07372 21.8886 9.90647 22.5336C10.3238 22.8568 10.6734 23.1082 10.9214 23.2806C11.0455 23.3668 11.1443 23.4334 11.2137 23.4794C11.2484 23.5024 11.2758 23.5203 11.2953 23.5329L11.3186 23.548L11.3257 23.5525L11.3281 23.5541L11.329 23.5546C11.3294 23.5549 11.3297 23.5551 12 22.5L11.329 23.5546C11.7381 23.8145 12.2612 23.815 12.6703 23.5551ZM15.5 10C15.5 11.933 13.933 13.5 12 13.5C10.067 13.5 8.5 11.933 8.5 10C8.5 8.067 10.067 6.5 12 6.5C13.933 6.5 15.5 8.067 15.5 10Z" fill="black"/>
</svg>
