<svg width="24" height="24" viewBox="0 0 24 24" fill="none" xmlns="http://www.w3.org/2000/svg">
<path d="M4.5 21.25C3.80964 21.25 3.25 21.8097 3.25 22.5C3.25 23.1904 3.80964 23.75 4.5 23.75H20C20.6904 23.75 21.25 23.1904 21.25 22.5C21.25 21.8097 20.6904 21.25 20 21.25H4.5Z" fill="black"/>
<path fill-rule="evenodd" clip-rule="evenodd" d="M7.77051 8.61171C7.77051 6.27625 9.66377 4.38299 11.9992 4.38299C14.3347 4.38299 16.228 6.27625 16.228 8.61171C16.228 10.9472 14.3347 12.8404 11.9992 12.8404C9.66377 12.8404 7.77051 10.9472 7.77051 8.61171ZM11.9992 6.88299C11.0445 6.88299 10.2705 7.65697 10.2705 8.61171C10.2705 9.56646 11.0445 10.3404 11.9992 10.3404C12.954 10.3404 13.728 9.56646 13.728 8.61171C13.728 7.65697 12.954 6.88299 11.9992 6.88299Z" fill="black"/>
<path fill-rule="evenodd" clip-rule="evenodd" d="M11.9997 19.25C11.3294 20.3051 11.3291 20.3049 11.3287 20.3047L11.3278 20.3041L11.3256 20.3027L11.3192 20.2986L11.2986 20.2853C11.2815 20.2742 11.2577 20.2586 11.2276 20.2387C11.1675 20.1988 11.0822 20.1414 10.9755 20.0672C10.7621 19.9189 10.462 19.7031 10.1039 19.4258C9.38988 18.8728 8.4351 18.0673 7.47627 17.0577C5.59719 15.0791 3.51562 12.1197 3.51562 8.61173C3.51562 3.92612 7.31406 0.127686 11.9997 0.127686C16.6853 0.127685 20.4837 3.92612 20.4837 8.61173C20.4837 12.1197 18.4021 15.0791 16.5231 17.0577C15.5642 18.0673 14.6095 18.8728 13.8954 19.4258C13.5374 19.7031 13.2372 19.9189 13.0238 20.0672C12.9171 20.1414 12.8319 20.1988 12.7717 20.2387C12.7417 20.2586 12.7178 20.2742 12.7007 20.2853L12.6802 20.2986L12.6737 20.3027L12.6715 20.3041L12.6706 20.3047C12.6703 20.3049 12.6699 20.3051 11.9997 19.25ZM11.9997 2.62769C8.69477 2.62769 6.01562 5.30683 6.01562 8.61173C6.01562 11.1464 7.55108 13.5061 9.28902 15.3361C10.1387 16.2307 10.9924 16.9518 11.6348 17.4493C11.7663 17.5512 11.8886 17.6434 11.9997 17.7254C12.1107 17.6434 12.233 17.5512 12.3646 17.4493C13.0069 16.9518 13.8606 16.2307 14.7103 15.3361C16.4483 13.5061 17.9837 11.1464 17.9837 8.61173C17.9837 5.30683 15.3046 2.62769 11.9997 2.62769Z" fill="black"/>
<path d="M11.9997 19.25L12.6706 20.3047C12.2616 20.5646 11.7378 20.5646 11.3287 20.3047L11.9997 19.25Z" fill="black"/>
</svg>
