<svg width="24" height="24" viewBox="0 0 24 24" fill="none" xmlns="http://www.w3.org/2000/svg">
<path fill-rule="evenodd" clip-rule="evenodd" d="M12 5.75C9.65279 5.75 7.75 7.65279 7.75 10C7.75 12.3472 9.65279 14.25 12 14.25C14.3472 14.25 16.25 12.3472 16.25 10C16.25 7.65279 14.3472 5.75 12 5.75ZM9.25 10C9.25 8.48122 10.4812 7.25 12 7.25C13.5188 7.25 14.75 8.48122 14.75 10C14.75 11.5188 13.5188 12.75 12 12.75C10.4812 12.75 9.25 11.5188 9.25 10Z" fill="black"/>
<path fill-rule="evenodd" clip-rule="evenodd" d="M11.5974 23.1328C11.5976 23.1329 11.5978 23.1331 12 22.5L11.5974 23.1328C11.8428 23.2887 12.1567 23.289 12.4022 23.1331L12 22.5C12.4022 23.1331 12.4019 23.1332 12.4022 23.1331L12.4052 23.1311L12.4113 23.1272L12.4326 23.1135C12.4507 23.1017 12.4767 23.0847 12.5099 23.0627C12.5765 23.0186 12.6723 22.954 12.7932 22.87C13.035 22.702 13.3776 22.4557 13.7874 22.1383C14.6058 21.5044 15.6986 20.5822 16.7938 19.429C18.9612 17.147 21.25 13.842 21.25 10C21.25 4.89137 17.1086 0.75 12 0.75C6.89137 0.75 2.75 4.89137 2.75 10C2.75 13.842 5.03883 17.147 7.20618 19.429C8.30142 20.5822 9.39423 21.5044 10.2126 22.1383C10.6224 22.4557 10.965 22.702 11.2068 22.87C11.3277 22.954 11.4235 23.0186 11.4901 23.0627C11.5233 23.0847 11.5493 23.1017 11.5674 23.1135L11.5887 23.1272L11.5948 23.1311L11.5974 23.1328ZM4.25 10C4.25 5.71979 7.71979 2.25 12 2.25C16.2802 2.25 19.75 5.71979 19.75 10C19.75 13.2581 17.7888 16.2032 15.7062 18.3961C14.6764 19.4803 13.6442 20.3519 12.8689 20.9524C12.5167 21.2251 12.2189 21.4409 12 21.5944C11.7811 21.4409 11.4833 21.2251 11.1311 20.9524C10.3558 20.3519 9.32358 19.4803 8.29382 18.3961C6.21117 16.2032 4.25 13.2581 4.25 10Z" fill="black"/>
</svg>
