<svg width="24" height="24" viewBox="0 0 24 24" fill="none" xmlns="http://www.w3.org/2000/svg">
<path fill-rule="evenodd" clip-rule="evenodd" d="M21.4254 10.6091L21.7262 11.8124C22.791 12.4739 23.5 13.6542 23.5 15V15.762C23.5 16.3866 22.8935 16.8315 22.2977 16.6439L21.742 16.4689C21.7353 16.781 21.7227 17.0618 21.6992 17.3152C21.6518 17.8271 21.5561 18.2807 21.3412 18.7025C20.9816 19.4081 20.408 19.9818 19.7023 20.3413C19.2581 20.5676 18.778 20.662 18.2313 20.7066C17.7004 20.75 17.0448 20.75 16.232 20.75H7.76778C6.95494 20.75 6.29932 20.75 5.76841 20.7066C5.22178 20.662 4.74164 20.5676 4.29742 20.3413C3.59181 19.9818 3.01813 19.4081 2.65861 18.7025C2.4437 18.2807 2.34798 17.8271 2.30054 17.3152C2.27706 17.0619 2.2645 16.781 2.25776 16.469L1.70229 16.6439C1.10652 16.8315 0.5 16.3866 0.5 15.762V15C0.5 13.6542 1.20898 12.4739 2.27383 11.8124L2.57464 10.6091C3.65589 6.2841 7.5419 3.25 12 3.25C16.4581 3.25 20.3441 6.2841 21.4254 10.6091ZM2.0001 14.9788C2.01146 13.7459 3.01442 12.75 4.25 12.75H19.75C20.9856 12.75 21.9885 13.7459 21.9999 14.9788C21.8025 14.9199 21.6041 14.8668 21.4051 14.8195C21.3263 14.7689 21.237 14.7324 21.1403 14.714C20.1483 14.5248 19.1444 14.4726 18.1551 14.5516C15.9259 14.7052 13.7673 15.546 12 17.0034C10.2322 15.5456 8.07293 14.7048 5.8431 14.5515C4.85427 14.4726 3.85092 14.5249 2.85942 14.714C2.76273 14.7324 2.67336 14.769 2.59452 14.8196C2.39563 14.8669 2.19741 14.92 2.0001 14.9788ZM20.0394 11.25H3.96058L4.02986 10.9729C4.94417 7.31566 8.2302 4.75 12 4.75C14.5204 4.75 16.8246 5.89684 18.3483 7.75H14.75C14.3358 7.75 14 8.08579 14 8.5C14 8.91421 14.3358 9.25 14.75 9.25H18.75C18.935 9.25 19.1044 9.18301 19.2351 9.07198C19.5528 9.66242 19.8017 10.2991 19.9701 10.9729L20.0394 11.25ZM20.2471 16.1237C19.5865 16.0273 18.9219 16.0028 18.2643 16.0477C16.1976 16.215 14.2045 17.0438 12.6065 18.4642C12.2606 18.7718 11.7392 18.7718 11.3932 18.4642C9.79489 17.0435 7.80139 16.2146 5.73415 16.0476C5.07705 16.0029 4.41287 16.0274 3.75268 16.1237C3.75696 16.5514 3.76767 16.8911 3.79414 17.1768C3.83239 17.5896 3.89973 17.8343 3.99512 18.0215C4.21083 18.4448 4.55504 18.7891 4.9784 19.0048C5.17592 19.1054 5.43669 19.1745 5.89056 19.2116C6.35319 19.2494 6.94743 19.25 7.79988 19.25H16.1999C17.0523 19.25 17.6466 19.2494 18.1092 19.2116C18.5631 19.1745 18.8238 19.1054 19.0214 19.0048C19.4447 18.7891 19.7889 18.4448 20.0046 18.0215C20.1 17.8343 20.1674 17.5896 20.2056 17.1768C20.2321 16.8911 20.2428 16.5514 20.2471 16.1237Z" fill="black"/>
</svg>
