<svg width="24" height="24" viewBox="0 0 24 24" fill="none" xmlns="http://www.w3.org/2000/svg">
<path fill-rule="evenodd" clip-rule="evenodd" d="M21.2125 11.8193L20.9403 10.7304C20.8343 10.3066 20.7 9.89584 20.5396 9.5H15.25C14.9739 9.5 14.75 9.27614 14.75 9C14.75 8.72386 14.9739 8.5 15.25 8.5H20.0623C18.469 5.62262 15.411 3.75 12 3.75C7.77134 3.75 4.08532 6.62795 3.05972 10.7304L2.78749 11.8193C1.58484 12.3732 0.75 13.5891 0.75 15V15.762C0.75 16.2177 1.19252 16.5423 1.62721 16.4054L2.21895 16.2191C2.39587 16.1634 2.57368 16.1131 2.75215 16.068C2.7561 16.5376 2.76719 16.9314 2.79848 17.269C2.84285 17.7479 2.92912 18.1319 3.10419 18.4755C3.41577 19.087 3.91296 19.5842 4.52449 19.8958C4.88647 20.0802 5.29349 20.1662 5.8092 20.2083C6.31962 20.25 6.95803 20.25 7.7883 20.25H16.2115C17.0418 20.25 17.6803 20.25 18.1907 20.2083C18.7064 20.1662 19.1134 20.0802 19.4754 19.8958C20.087 19.5842 20.5841 19.087 20.8957 18.4755C21.0708 18.1319 21.1571 17.7479 21.2014 17.269C21.2327 16.9314 21.2438 16.5376 21.2478 16.068C21.4263 16.113 21.6041 16.1634 21.7811 16.2191L22.3728 16.4054C22.8075 16.5423 23.25 16.2177 23.25 15.762V15C23.25 13.5891 22.4152 12.3732 21.2125 11.8193ZM4.25 12.5C2.86929 12.5 1.75 13.6193 1.75 15V15.3184L1.91863 15.2653C5.41672 14.1639 9.22779 14.9513 12 17.3301C14.7722 14.9513 18.5833 14.1639 22.0814 15.2653L22.25 15.3184V15C22.25 13.6193 21.1307 12.5 19.75 12.5H4.25Z" fill="black"/>
</svg>
