<svg width="24" height="24" viewBox="0 0 24 24" fill="none" xmlns="http://www.w3.org/2000/svg">
<path fill-rule="evenodd" clip-rule="evenodd" d="M2.93721 10.2204C1.3729 10.7637 0.25 12.2507 0.25 14V15.762C0.25 16.5555 1.02051 17.1206 1.77737 16.8824L2.36911 16.696C2.49919 16.6551 2.62977 16.6172 2.76076 16.5823C2.76777 16.8352 2.77935 17.0626 2.79848 17.269C2.84285 17.7479 2.92912 18.1319 3.10419 18.4755C3.41577 19.087 3.91296 19.5842 4.52449 19.8958C4.88647 20.0802 5.29349 20.1662 5.8092 20.2083C6.31962 20.25 6.95803 20.25 7.7883 20.25H16.2115C17.0418 20.25 17.6803 20.25 18.1907 20.2083C18.7064 20.1662 19.1134 20.0802 19.4754 19.8958C20.087 19.5842 20.5841 19.087 20.8957 18.4755C21.0708 18.1319 21.1571 17.7479 21.2014 17.269C21.2206 17.0626 21.2321 16.8352 21.2392 16.5823C21.3702 16.6172 21.5008 16.6551 21.6309 16.696L22.2226 16.8824C22.9795 17.1207 23.75 16.5555 23.75 15.762V14C23.75 12.2507 22.6271 10.7637 21.0628 10.2204L20.9403 9.73036C20.8783 9.48231 20.8065 9.23873 20.7255 9H15.25C14.6977 9 14.25 8.55228 14.25 8C14.25 7.44772 14.6977 7 15.25 7H19.7643C18.1059 4.40759 15.2092 2.75 12 2.75C7.77134 2.75 4.08532 5.62795 3.05972 9.73036L2.93721 10.2204ZM4.25 12C3.14543 12 2.25 12.8954 2.25 14V14.6486C5.64196 13.7464 9.25877 14.5048 12 16.6818C14.7412 14.5048 18.358 13.7464 21.75 14.6486V14C21.75 12.8954 20.8546 12 19.75 12H4.25Z" fill="black"/>
</svg>
