<svg width="24" height="24" viewBox="0 0 24 24" fill="none" xmlns="http://www.w3.org/2000/svg">
<path fill-rule="evenodd" clip-rule="evenodd" d="M3.00878 9.93411C1.26709 10.4651 0 12.0846 0 14V15.762C0 16.7243 0.934498 17.4098 1.85245 17.1208L2.44419 16.9345C2.55243 16.9004 2.66103 16.8685 2.76993 16.8388C2.7768 16.9919 2.78605 17.1349 2.79848 17.269C2.84285 17.7479 2.92912 18.1319 3.10419 18.4755C3.41577 19.087 3.91296 19.5842 4.52449 19.8958C4.88647 20.0802 5.29349 20.1662 5.8092 20.2083C6.31962 20.25 6.95803 20.25 7.7883 20.25H16.2115C17.0418 20.25 17.6803 20.25 18.1907 20.2083C18.7064 20.1662 19.1134 20.0802 19.4754 19.8958C20.087 19.5842 20.5841 19.087 20.8957 18.4755C21.0708 18.1319 21.1571 17.7479 21.2014 17.269C21.2139 17.1349 21.2231 16.9919 21.23 16.8387C21.3389 16.8685 21.4475 16.9004 21.5558 16.9345L22.1476 17.1208C23.0655 17.4098 24 16.7243 24 15.762V14C24 12.0846 22.7329 10.4651 20.9912 9.93411L20.9403 9.73036C20.8119 9.21662 20.6417 8.72209 20.434 8.25H15.25C14.5596 8.25 14 7.69036 14 7C14 6.30964 14.5596 5.75 15.25 5.75H18.8043C17.1011 3.88684 14.6577 2.75 12 2.75C7.77134 2.75 4.08532 5.62795 3.05972 9.73036L3.00878 9.93411ZM4.25 12.25C3.2835 12.25 2.5 13.0335 2.5 14V14.3282C5.81231 13.5476 9.30206 14.2975 12 16.3648C14.6979 14.2975 18.1877 13.5476 21.5 14.3282V14C21.5 13.0335 20.7165 12.25 19.75 12.25H4.25Z" fill="black"/>
</svg>
