<svg width="24" height="24" viewBox="0 0 24 24" fill="none" xmlns="http://www.w3.org/2000/svg">
<path fill-rule="evenodd" clip-rule="evenodd" d="M21.2272 12.1043C21.2507 12.0532 21.2565 11.995 21.2425 11.9394L20.9403 10.7304C20.8998 10.5683 20.8551 10.4081 20.8064 10.25H16C15.8619 10.25 15.75 10.1381 15.75 10C15.75 9.86193 15.8619 9.75 16 9.75H20.6367C20.4411 9.22377 20.2 8.72241 19.9187 8.25H15.25C15.1119 8.25 15 8.13807 15 8C15 7.86193 15.1119 7.75 15.25 7.75H19.5986C17.9171 5.3015 15.1048 3.75 12 3.75C7.77134 3.75 4.08532 6.62795 3.05972 10.7304L2.75747 11.9394C2.74355 11.995 2.74933 12.0532 2.77281 12.1043C1.72045 12.6423 1 13.737 1 15V15.762C1 16.0488 1.27853 16.2531 1.55214 16.167L2.14387 15.9807C2.34512 15.9173 2.54748 15.8607 2.75065 15.8107C2.7528 16.3961 2.76164 16.8715 2.79848 17.269C2.84285 17.7479 2.92912 18.1319 3.10419 18.4755C3.41577 19.087 3.91296 19.5842 4.52449 19.8958C4.88647 20.0802 5.29349 20.1662 5.8092 20.2083C6.31962 20.25 6.95803 20.25 7.7883 20.25H16.2115C17.0418 20.25 17.6803 20.25 18.1907 20.2083C18.7064 20.1662 19.1134 20.0802 19.4754 19.8958C20.087 19.5842 20.5841 19.087 20.8957 18.4755C21.0708 18.1319 21.1571 17.7479 21.2014 17.269C21.2383 16.8715 21.2471 16.3961 21.2493 15.8107C21.4525 15.8607 21.6549 15.9173 21.8561 15.9807L22.4479 16.167C22.7215 16.2531 23 16.0488 23 15.762V15C23 13.737 22.2796 12.6423 21.2272 12.1043ZM19.75 12.25H4.25C2.73122 12.25 1.5 13.4812 1.5 15V15.6592L1.99371 15.5037C2.26607 15.418 2.54038 15.344 2.81596 15.2815C2.85129 15.2431 2.89876 15.2155 2.95316 15.2051C3.90162 15.0243 4.86143 14.9745 5.8073 15.0502C8.07057 15.2054 10.2577 16.1032 12 17.6625C13.7421 16.1034 15.929 15.2056 18.1921 15.0503C19.1381 14.9744 20.0981 15.0242 21.0467 15.2051C21.1011 15.2155 21.1486 15.2431 21.1839 15.2815C21.4595 15.3439 21.7339 15.418 22.0063 15.5037L22.5 15.6592V15C22.5 13.4812 21.2688 12.25 19.75 12.25Z" fill="black"/>
</svg>
