<svg width="24" height="24" viewBox="0 0 24 24" fill="none" xmlns="http://www.w3.org/2000/svg">
<path fill-rule="evenodd" clip-rule="evenodd" d="M21.9104 10.4878L22.1639 11.5016C23.2732 12.2684 24 13.5493 24 15V15.762C24 16.6885 23.1337 17.3585 22.25 17.1491V17.3731C22.25 17.4896 22.25 17.5828 22.2467 17.6669C22.1596 19.883 20.383 21.6597 18.1669 21.7467C18.0828 21.75 17.9896 21.75 17.8732 21.75H6.12684C6.01037 21.75 5.91723 21.75 5.83315 21.7467C3.61697 21.6597 1.84035 19.883 1.75328 17.6669C1.74997 17.5828 1.74998 17.4896 1.75 17.3732L1.75 17.1491C0.866273 17.3584 0 16.6885 0 15.762V15C0 13.5493 0.726806 12.2684 1.83614 11.5016L2.08957 10.4878C3.22647 5.94025 7.31247 2.75 12 2.75C16.6875 2.75 20.7735 5.94025 21.9104 10.4878ZM2.67089 14.2448C2.95282 13.6564 3.55395 13.25 4.25 13.25H19.75C20.4461 13.25 21.0472 13.6564 21.3291 14.2448C21.298 14.2363 21.2663 14.229 21.2342 14.2229C20.1992 14.0255 19.1519 13.9708 18.1196 14.0529C15.9202 14.2046 13.7865 14.9959 12 16.3648C10.2134 14.9959 8.07969 14.2046 5.88017 14.0529C4.84802 13.9708 3.80075 14.0255 2.76582 14.2229C2.73368 14.229 2.70202 14.2363 2.67089 14.2448ZM18.7628 9.25C19.0209 9.72 19.2325 10.2218 19.3906 10.75H4.6094C5.5824 7.49963 8.57911 5.25 12 5.25C13.6921 5.25 15.2803 5.80038 16.5713 6.75H15C14.3096 6.75 13.75 7.30964 13.75 8C13.75 8.69036 14.3096 9.25 15 9.25H18.7628ZM19.75 16.567C19.2664 16.5202 18.782 16.5137 18.3016 16.5463C16.3425 16.7056 14.4536 17.4915 12.9388 18.8379C12.4034 19.3139 11.5966 19.3139 11.0612 18.8379C9.54644 17.4915 7.65746 16.7056 5.69843 16.5463C5.218 16.5137 4.73358 16.5202 4.25 16.567V17.35C4.25 17.5012 4.25024 17.5406 4.25135 17.5687C4.2872 18.4813 5.01875 19.2128 5.9313 19.2487C5.95945 19.2498 5.99885 19.25 6.15 19.25H17.85C18.0011 19.25 18.0406 19.2498 18.0687 19.2487C18.9813 19.2128 19.7128 18.4813 19.7487 17.5687C19.7498 17.5406 19.75 17.5011 19.75 17.35V16.567Z" fill="black"/>
</svg>
