<svg width="24" height="24" viewBox="0 0 24 24" fill="none" xmlns="http://www.w3.org/2000/svg">
<path d="M18 10.5005C18.0001 10.2244 18.224 10.0005 18.5 10.0005C18.7761 10.0005 18.9999 10.2244 19 10.5005C19 10.7766 18.7762 11.0005 18.5 11.0005C18.2239 11.0005 18 10.7766 18 10.5005Z" fill="black"/>
<path d="M18 6.50047C18.0001 6.22442 18.224 6.00047 18.5 6.00047C18.7761 6.00047 18.9999 6.22442 19 6.50047C19 6.77661 18.7762 7.00047 18.5 7.00047C18.2239 7.00047 18 6.77661 18 6.50047Z" fill="black"/>
<path d="M14.5 8.00047C14.5001 7.72442 14.724 7.50047 15 7.50047C15.2761 7.50047 15.4999 7.72442 15.5 8.00047C15.5 8.27661 15.2762 8.50047 15 8.50047C14.7239 8.50047 14.5 8.27661 14.5 8.00047Z" fill="black"/>
<path fill-rule="evenodd" clip-rule="evenodd" d="M1.47463 19.5063C0.49906 18.5301 0.498808 16.9473 1.47463 15.9712C2.4509 14.9951 4.0345 14.9951 5.01077 15.9712C5.10303 16.0633 5.24057 16.1359 5.36819 16.1577C5.49372 16.179 5.54416 16.1447 5.56057 16.1284L6.98342 14.7055C6.71242 14.0682 6.60748 13.3727 6.62795 12.6577C6.66294 11.4411 7.05659 10.1449 7.6094 8.9116C8.71469 6.44601 10.5193 4.09849 11.7276 2.89012C14.266 0.35172 18.3815 0.351744 20.9199 2.89012C23.4584 5.42852 23.4584 9.54409 20.9199 12.0825C19.7115 13.2908 17.3642 15.0964 14.8985 16.2016C13.6651 16.7545 12.369 17.1471 11.1524 17.1821C10.4373 17.2026 9.74182 17.0976 9.10452 16.8266L7.68166 18.2505C7.66525 18.2672 7.63146 18.3168 7.65237 18.4409C7.67412 18.5688 7.74751 18.7079 7.83987 18.8003C8.8153 19.7766 8.81474 21.3594 7.83889 22.3354C6.86267 23.3114 5.27998 23.3113 4.30373 22.3354C3.7818 21.8135 3.53923 21.1172 3.57522 20.436C3.5805 20.3341 3.55025 20.2862 3.53713 20.2729C3.52384 20.2598 3.47531 20.2285 3.37307 20.2339C2.69213 20.2697 1.99644 20.028 1.47463 19.5063ZM7.62795 12.686C7.59855 13.7106 7.8707 14.5889 8.54592 15.2641C9.22116 15.9394 10.0995 16.2115 11.124 16.1821C12.1597 16.1523 13.3208 15.8128 14.4903 15.2886C16.8297 14.2398 19.0781 12.5102 20.2129 11.3755C22.3608 9.22758 22.3608 5.74503 20.2129 3.59715C18.065 1.4493 14.5825 1.44928 12.4346 3.59715C11.2999 4.73198 9.57028 6.98039 8.52151 9.3198C7.99728 10.4893 7.65774 11.6503 7.62795 12.686ZM2.18166 16.6782C1.59636 17.2638 1.59662 18.2135 2.18166 18.7993C2.49395 19.1114 2.90959 19.2574 3.32034 19.2358C3.61647 19.2201 3.97482 19.2967 4.24416 19.5659C4.51334 19.8352 4.58988 20.1936 4.57424 20.4897C4.55269 20.9005 4.69849 21.3161 5.01077 21.6284C5.59645 22.2137 6.54615 22.2137 7.13186 21.6284C7.71732 21.0426 7.71654 20.093 7.13088 19.5073C6.89449 19.2708 6.72309 18.9445 6.66604 18.6089C6.60882 18.2711 6.66117 17.8552 6.97366 17.5425L8.21291 16.3022C8.08419 16.2016 7.95925 16.0915 7.83889 15.9712C7.71819 15.8505 7.60772 15.7253 7.50686 15.5962L6.2676 16.8354C5.95498 17.1479 5.53996 17.2002 5.20217 17.143C4.86642 17.0861 4.54031 16.9146 4.30373 16.6782C3.718 16.0927 2.7674 16.0927 2.18166 16.6782Z" fill="black"/>
</svg>
