<svg width="24" height="24" viewBox="0 0 24 24" fill="none" xmlns="http://www.w3.org/2000/svg">
<path fill-rule="evenodd" clip-rule="evenodd" d="M1.12095 19.8585C-0.0500565 18.6869 -0.0494537 16.7867 1.12192 15.6153C2.29348 14.4445 4.19274 14.4451 5.36411 15.6163L7.21567 13.7647C6.51614 10.2834 10.1278 5.19534 12.0819 3.24129C14.4249 0.898744 18.2232 0.898729 20.5663 3.24129C22.9094 5.58442 22.9094 9.38349 20.5663 11.7266C18.6122 13.6807 13.5251 17.2923 10.0438 16.5929L8.19321 18.4434C9.36454 19.6148 9.36412 21.515 8.19321 22.6866C7.02178 23.858 5.12165 23.8587 3.95005 22.6876C3.4057 22.1432 3.11553 21.4405 3.077 20.7306C2.36749 20.6918 1.66499 20.4024 1.12095 19.8585ZM17.4999 10.2481C17.4999 10.6623 17.8357 10.9981 18.2499 10.9981C18.664 10.9981 18.9999 10.6623 18.9999 10.2481C18.9994 9.83435 18.6637 9.49817 18.2499 9.49813C17.836 9.49819 17.5003 9.83437 17.4999 10.2481ZM17.4999 6.2491C17.4999 6.6632 17.8357 6.99904 18.2499 6.9991C18.664 6.99906 18.9998 6.66322 18.9999 6.2491C18.9998 5.83495 18.664 5.49915 18.2499 5.4991C17.8357 5.49917 17.4999 5.83497 17.4999 6.2491ZM13.9999 7.7491C14.0001 8.16303 14.3359 8.49898 14.7499 8.4991C15.1639 8.499 15.4997 8.16311 15.4999 7.7491C15.4997 7.33531 15.1645 6.99961 14.7508 6.9991C14.3367 6.9991 14.0001 7.33506 13.9999 7.7491ZM2.53598 17.0294C2.14562 17.4198 2.14592 18.0529 2.53598 18.4434C2.74358 18.6509 3.01901 18.748 3.29477 18.7335C3.63841 18.7154 4.0746 18.7897 4.44419 19.0743L4.59848 19.21L4.73423 19.3643C5.01879 19.7339 5.09314 20.1701 5.07505 20.5138C5.06054 20.7896 5.15656 21.0649 5.36411 21.2725C5.75454 21.6629 6.38763 21.6628 6.77817 21.2725C7.16823 20.882 7.16852 20.2489 6.77817 19.8585C6.46965 19.5499 6.24937 19.1302 6.17466 18.6905C6.09947 18.2466 6.15999 17.6476 6.62095 17.1866C6.15998 17.6476 5.5619 17.7091 5.11802 17.6339C4.67836 17.5592 4.25863 17.3379 3.95005 17.0294C3.5597 16.6395 2.92641 16.6397 2.53598 17.0294Z" fill="black"/>
</svg>
