<svg width="24" height="24" viewBox="0 0 24 24" fill="none" xmlns="http://www.w3.org/2000/svg">
<path fill-rule="evenodd" clip-rule="evenodd" d="M0.944264 20.0352C-0.324371 18.766 -0.323774 16.7076 0.94524 15.4385C2.15474 14.2297 4.07973 14.1732 5.35637 15.2686L7.16497 13.462C7.16548 13.4657 7.16643 13.47 7.16692 13.4737C6.71346 10.0057 10.1818 5.14146 12.082 3.24128C14.425 0.898753 18.2233 0.898726 20.5663 3.24128C22.9095 5.58441 22.9094 9.38348 20.5663 11.7266C18.7256 13.5673 14.1048 16.8794 10.665 16.6729L10.3466 16.6436L8.53899 18.4512C9.63509 19.7279 9.57911 21.6536 8.37005 22.8634C7.10098 24.1324 5.0426 24.1331 3.77337 22.8643C3.23911 22.3301 2.93191 21.6548 2.84758 20.961C2.154 20.8767 1.47844 20.5693 0.944264 20.0352ZM17.4999 10.2481C17.4999 10.6623 17.8358 10.9981 18.2499 10.9981C18.6641 10.9981 18.9999 10.6623 18.9999 10.2481C18.9994 9.83435 18.6638 9.49914 18.2499 9.49909C17.8361 9.49915 17.5004 9.83436 17.4999 10.2481ZM17.4999 6.24909C17.5 6.66321 17.8358 6.99904 18.2499 6.99909C18.6641 6.99905 18.9999 6.66322 18.9999 6.24909C18.9999 5.83494 18.6641 5.49914 18.2499 5.49909C17.8358 5.49915 17.5 5.83495 17.4999 6.24909ZM13.9999 7.74909C14.0002 8.16302 14.336 8.49897 14.7499 8.49909C15.1639 8.49898 15.4998 8.1631 15.4999 7.74909C15.4998 7.33514 15.1639 6.99934 14.7499 6.99909C14.3361 6.99935 14.0001 7.33522 13.9999 7.74909ZM2.71282 17.2061C2.42008 17.4989 2.42038 17.9737 2.71282 18.2667C2.8681 18.4218 3.07385 18.4964 3.28215 18.4854C3.69569 18.4637 4.24096 18.5584 4.68743 18.9503L4.77532 19.0333L4.85833 19.1212C5.25029 19.5678 5.34597 20.1138 5.32415 20.5274C5.3133 20.7356 5.38586 20.9406 5.54094 21.0958C5.83374 21.3885 6.30858 21.3884 6.60149 21.0958C6.8939 20.8028 6.8942 20.328 6.60149 20.0352C6.25676 19.6905 6.01107 19.2234 5.92766 18.7315C5.88349 18.4706 5.882 18.1566 5.96672 17.8399C5.65058 17.9243 5.33758 17.924 5.07708 17.88C4.58537 17.7965 4.11803 17.5507 3.77337 17.2061C3.48066 16.9139 3.00561 16.9141 2.71282 17.2061Z" fill="black"/>
</svg>
