<svg width="24" height="24" viewBox="0 0 24 24" fill="none" xmlns="http://www.w3.org/2000/svg">
<path fill-rule="evenodd" clip-rule="evenodd" d="M1.4746 19.506C0.498875 18.5296 0.499503 16.946 1.47558 15.9699C2.45188 14.9943 4.03463 14.9949 5.01073 15.9708C5.10307 16.063 5.24148 16.1346 5.36913 16.1564C5.49463 16.1776 5.54425 16.1433 5.56054 16.1271L7.36816 14.3204C6.11578 10.8489 10.0214 5.30292 12.082 3.24231C14.4252 0.899588 18.2244 0.899318 20.5674 3.24231C22.9103 5.58533 22.9101 9.38451 20.5674 11.7277C18.5068 13.7882 12.9608 17.6936 9.48925 16.4415L7.68163 18.2492C7.66528 18.2658 7.63253 18.3155 7.65331 18.4396C7.67508 18.5674 7.74749 18.7076 7.83984 18.7999C8.81502 19.7761 8.81519 21.3581 7.83984 22.3341C6.86353 23.3104 5.28 23.3104 4.3037 22.3341C3.78174 21.8121 3.54008 21.116 3.57616 20.4347C3.58136 20.3332 3.55123 20.285 3.53808 20.2716C3.52482 20.2585 3.47602 20.2272 3.37402 20.2325C2.69295 20.2685 1.99652 20.0277 1.4746 19.506ZM17.75 10.2492C17.75 10.5252 17.9739 10.7491 18.25 10.7492C18.5261 10.7491 18.75 10.5253 18.75 10.2492C18.7495 9.97343 18.5258 9.7492 18.25 9.74915C17.9742 9.74924 17.7505 9.97345 17.75 10.2492ZM17.75 6.25013C17.7501 6.52613 17.974 6.75004 18.25 6.75013C18.526 6.75008 18.7499 6.52615 18.75 6.25013C18.75 5.97405 18.5261 5.75017 18.25 5.75013C17.9739 5.75022 17.75 5.97407 17.75 6.25013ZM14.25 7.75013C14.2502 8.02598 14.4741 8.25 14.75 8.25013C15.0259 8.25004 15.2498 8.02606 15.25 7.75013C15.2499 7.47439 15.0266 7.25061 14.751 7.25013C14.4749 7.25013 14.2502 7.47414 14.25 7.75013ZM2.18261 16.6769C1.59706 17.2625 1.59643 18.2131 2.18163 18.799C2.49393 19.1111 2.91053 19.2561 3.32128 19.2345C3.61727 19.219 3.976 19.2956 4.24511 19.5646C4.51409 19.8337 4.59073 20.1924 4.57519 20.4884C4.55358 20.8993 4.69846 21.3148 5.01074 21.6271C5.59642 22.2127 6.54602 22.2126 7.13183 21.6271C7.71718 21.0413 7.71745 20.0916 7.13183 19.506C6.89531 19.2694 6.724 18.9434 6.66698 18.6075C6.6098 18.2697 6.66197 17.8538 6.9746 17.5411L8.5703 15.9454C8.43956 15.847 8.31303 15.738 8.19238 15.6173C8.07149 15.4964 7.96287 15.3694 7.86425 15.2384L6.26757 16.8341C5.95496 17.1467 5.53995 17.1989 5.20214 17.1417C4.86646 17.0847 4.5402 16.9133 4.3037 16.6769C3.7181 16.0918 2.7683 16.0919 2.18261 16.6769Z" fill="black"/>
</svg>
