<svg width="24" height="24" viewBox="0 0 24 24" fill="none" xmlns="http://www.w3.org/2000/svg">
<path fill-rule="evenodd" clip-rule="evenodd" d="M1.29771 19.6817C0.224371 18.6077 0.224944 16.8658 1.29868 15.792C2.37262 14.7188 4.11362 14.7195 5.18736 15.793C5.21163 15.8172 5.24805 15.8434 5.29185 15.8663C5.33595 15.8891 5.37823 15.9037 5.41099 15.9092C5.41504 15.9099 5.41934 15.9088 5.42271 15.9092L7.28306 14.0508C6.31365 10.5683 10.0737 5.24949 12.0819 3.24127C14.4249 0.898746 18.2232 0.898744 20.5663 3.24126C22.9094 5.5844 22.9094 9.38347 20.5663 11.7266C18.558 13.7349 13.2402 17.4949 9.75767 16.5254L7.89634 18.3848C7.89677 18.3885 7.89851 18.394 7.89927 18.3985C7.90492 18.4311 7.91865 18.473 7.94126 18.5167C7.96417 18.5606 7.99221 18.5959 8.01646 18.6202C9.09016 19.6939 9.08973 21.4358 8.01646 22.5098C6.94265 23.5836 5.20078 23.5844 4.12681 22.5108C3.56806 21.952 3.30363 21.2117 3.32603 20.4825C2.59705 20.5048 1.85638 20.2402 1.29771 19.6817ZM17.4999 10.2481C17.4999 10.6623 17.8357 10.998 18.2499 10.9981C18.664 10.9981 18.9999 10.6623 18.9999 10.2481C18.9993 9.83435 18.6637 9.49912 18.2499 9.49908C17.836 9.49916 17.5004 9.83437 17.4999 10.2481ZM17.4999 6.24908C17.4999 6.66319 17.8357 6.999 18.2499 6.99908C18.664 6.99903 18.9998 6.66321 18.9999 6.24908C18.9998 5.83493 18.664 5.49912 18.2499 5.49908C17.8357 5.49916 17.4999 5.83495 17.4999 6.24908ZM13.9999 7.74908C14.0001 8.163 14.3359 8.49895 14.7499 8.49908C15.1639 8.49899 15.4997 8.16311 15.4999 7.74908C15.4997 7.33528 15.1645 6.99957 14.7508 6.99908C14.3368 6.99908 14.0001 7.33506 13.9999 7.74908ZM2.35923 16.8526C1.87124 17.3406 1.87157 18.132 2.35923 18.6202C2.61926 18.8801 2.96506 19.0016 3.30845 18.9835C3.60957 18.9677 3.98083 19.0333 4.29185 19.2725L4.42173 19.3868L4.53599 19.5157C4.77561 19.8269 4.84088 20.1987 4.82505 20.5001C4.80686 20.8435 4.92735 21.1892 5.18736 21.4493C5.67541 21.9373 6.46676 21.9371 6.95493 21.4493C7.4426 20.9611 7.44291 20.1697 6.95493 19.6817C6.68233 19.409 6.48654 19.0354 6.42075 18.6475C6.35471 18.2567 6.41107 17.75 6.79771 17.3633L8.37486 15.7862C8.38736 15.7971 8.40033 15.8077 8.41294 15.8184C8.33783 15.7548 8.26374 15.6878 8.19224 15.6163C8.11885 15.5429 8.05031 15.4669 7.98521 15.3897C7.99724 15.404 8.00903 15.4185 8.02134 15.4327L6.44419 17.0098C6.05746 17.3966 5.55086 17.4539 5.16001 17.3877C4.77237 17.3219 4.39933 17.125 4.12681 16.8526C3.63883 16.3652 2.84727 16.3653 2.35923 16.8526Z" fill="black"/>
</svg>
