<svg width="24" height="24" viewBox="0 0 24 24" fill="none" xmlns="http://www.w3.org/2000/svg">
<path fill-rule="evenodd" clip-rule="evenodd" d="M1.65118 19.3284C0.773143 18.4497 0.773693 17.0243 1.65216 16.1458C2.53083 15.2678 3.95533 15.2685 4.8338 16.1468C4.9621 16.2749 5.14739 16.372 5.32696 16.4026C5.50563 16.4328 5.64683 16.3933 5.73712 16.303L7.47052 14.5706C5.92462 11.1215 9.97081 5.35253 12.0818 3.24149C14.425 0.89882 18.2242 0.898518 20.5672 3.24149C22.9102 5.58448 22.9099 9.38366 20.5672 11.7268C18.4562 13.8379 12.6872 17.8841 9.2381 16.3382L7.5047 18.0716C7.41467 18.1619 7.37685 18.3032 7.40704 18.4817C7.43766 18.6614 7.53367 18.8466 7.66192 18.9749C8.54049 19.8535 8.54033 21.2788 7.66192 22.1575C6.78332 23.0355 5.3588 23.0356 4.48028 22.1575C4.01069 21.6879 3.79352 21.0612 3.82599 20.4475C3.83381 20.2969 3.79157 20.1711 3.71466 20.094C3.63765 20.0171 3.51173 19.9759 3.36114 19.9837C2.74763 20.0161 2.12072 19.7978 1.65118 19.3284ZM17.9998 10.2483C17.9998 10.3863 18.1118 10.4982 18.2498 10.4983C18.3878 10.4983 18.4998 10.3864 18.4998 10.2483C18.4993 10.1107 18.3875 9.99935 18.2498 9.99931C18.1122 9.99941 18.0003 10.1108 17.9998 10.2483ZM17.9998 6.24931C17.9999 6.38728 18.1119 6.49921 18.2498 6.49931C18.3878 6.49926 18.4998 6.38732 18.4998 6.24931C18.4998 6.1113 18.3878 5.99935 18.2498 5.99931C18.1119 5.99941 17.9999 6.11133 17.9998 6.24931ZM14.4998 7.74931C14.5001 7.88709 14.612 7.99918 14.7498 7.99931C14.8877 7.99923 15.0007 7.88723 15.0008 7.74931C15.0007 7.61163 14.8884 7.49978 14.7508 7.49931C14.6129 7.49931 14.5001 7.61144 14.4998 7.74931ZM2.00567 16.4993C1.32236 17.1826 1.32256 18.2914 2.00567 18.9749C2.37038 19.3393 2.85648 19.5089 3.33478 19.4837C3.58227 19.4708 3.86319 19.5356 4.06817 19.7405C4.27316 19.9456 4.33799 20.2263 4.32501 20.4739C4.29966 20.9525 4.46894 21.4391 4.8338 21.804C5.51705 22.4869 6.62506 22.4867 7.30841 21.804C7.99155 21.1206 7.99172 20.0117 7.30841 19.3284C7.10796 19.1279 6.96205 18.8485 6.91388 18.5647C6.86571 18.2799 6.91267 17.9556 7.15118 17.7171L8.77814 16.0901C8.57177 15.9572 8.37573 15.8 8.1922 15.6165C8.00513 15.4294 7.84621 15.2286 7.71173 15.0179C7.71406 15.0215 7.71621 15.0259 7.71856 15.0296L6.09064 16.6565C5.8521 16.8951 5.52879 16.943 5.24396 16.8948C4.96013 16.8467 4.68082 16.6998 4.48028 16.4993C3.79704 15.8166 2.68897 15.8167 2.00567 16.4993Z" fill="black"/>
</svg>
