<svg width="24" height="24" viewBox="0 0 24 24" fill="none" xmlns="http://www.w3.org/2000/svg">
<path d="M17.5002 10.2494C17.5002 9.83521 17.836 9.49942 18.2502 9.49942C18.6643 9.49953 19.0002 9.83527 19.0002 10.2494C19 10.6634 18.6642 10.9993 18.2502 10.9994C17.8361 10.9994 17.5004 10.6635 17.5002 10.2494Z" fill="black"/>
<path d="M17.5002 6.24942C17.5002 5.83521 17.836 5.49942 18.2502 5.49942C18.6643 5.49952 19.0002 5.83527 19.0002 6.24942C19 6.6634 18.6642 6.99932 18.2502 6.99942C17.8361 6.99942 17.5004 6.66347 17.5002 6.24942Z" fill="black"/>
<path d="M14.0002 7.74942C14.0002 7.33521 14.336 6.99942 14.7502 6.99942C15.1643 6.99953 15.5002 7.33527 15.5002 7.74942C15.5 8.1634 15.1642 8.49932 14.7502 8.49942C14.3361 8.49942 14.0004 8.16347 14.0002 7.74942Z" fill="black"/>
<path fill-rule="evenodd" clip-rule="evenodd" d="M1.29803 19.682C0.224426 18.6081 0.22435 16.8663 1.29803 15.7924C2.37178 14.7191 4.11283 14.7192 5.1867 15.7924C5.21095 15.8166 5.24733 15.8437 5.29119 15.8666C5.33538 15.8896 5.37848 15.903 5.41131 15.9086C5.41528 15.9092 5.41973 15.9092 5.42303 15.9096L6.68963 14.644C6.45023 14.0128 6.35932 13.3352 6.37908 12.6479C6.41543 11.386 6.82004 10.0564 7.38006 8.80704C8.49956 6.30964 10.3243 3.93804 11.551 2.71134C14.187 0.0753428 18.4608 0.0754333 21.0969 2.71134C23.7329 5.34737 23.7329 9.62119 21.0969 12.2572C19.8701 13.4839 17.4986 15.3086 15.0012 16.4281C13.7517 16.9882 12.4223 17.3928 11.1603 17.4291C10.473 17.4489 9.79539 17.358 9.16424 17.1186L7.89666 18.3852C7.89709 18.3888 7.89786 18.3934 7.89861 18.3979C7.90422 18.4306 7.91771 18.4739 7.94061 18.518C7.96353 18.5619 7.99254 18.5963 8.01678 18.6205C9.09036 19.6943 9.08928 21.4363 8.0158 22.5102C6.94185 23.5839 5.20004 23.584 4.12615 22.5102C3.5675 21.9514 3.30288 21.211 3.32537 20.4818C2.59641 20.5042 1.85668 20.2405 1.29803 19.682ZM7.87713 12.6908C7.84912 13.6648 8.10769 14.4701 8.72283 15.0854C9.33804 15.7006 10.1434 15.959 11.1174 15.9311C12.1076 15.9025 13.2336 15.5759 14.3869 15.059C16.6952 14.0243 18.9198 12.3131 20.0363 11.1967C22.0866 9.14644 22.0866 5.82214 20.0363 3.77188C17.986 1.72177 14.6617 1.72168 12.6115 3.77188C11.4951 4.88835 9.7839 7.11298 8.7492 9.4213C8.23227 10.5746 7.90568 11.7006 7.87713 12.6908ZM2.35857 16.8539C1.87095 17.342 1.87076 18.1335 2.35857 18.6215C2.61852 18.8813 2.96452 19.0019 3.30779 18.9838C3.60895 18.968 3.98007 19.0336 4.29119 19.2729L4.42107 19.3871L4.53533 19.516C4.77505 19.8273 4.84025 20.199 4.82439 20.5004C4.80626 20.8437 4.92686 21.1896 5.1867 21.4496C5.67476 21.9377 6.46708 21.9375 6.95525 21.4496C7.44282 20.9615 7.44203 20.171 6.95428 19.683C6.6816 19.4103 6.48588 19.0358 6.4201 18.6479C6.354 18.2571 6.41048 17.7504 6.79705 17.3637L7.84295 16.3178C7.78178 16.2631 7.72153 16.2061 7.66228 16.1469C7.60282 16.0874 7.54524 16.0267 7.49041 15.9652L6.44354 17.0111C6.05664 17.3977 5.55014 17.4544 5.15936 17.3881C4.77169 17.3222 4.39869 17.1264 4.12615 16.8539C3.63804 16.366 2.84668 16.366 2.35857 16.8539Z" fill="black"/>
</svg>
