<svg width="24" height="24" viewBox="0 0 24 24" fill="none" xmlns="http://www.w3.org/2000/svg">
<path fill-rule="evenodd" clip-rule="evenodd" d="M1.47448 19.5052C0.498753 18.5289 0.499381 16.9452 1.47546 15.9691C2.45176 14.9935 4.03451 14.9941 5.01061 15.97C5.10295 16.0622 5.24135 16.1338 5.36901 16.1556C5.49451 16.1768 5.54413 16.1425 5.56042 16.1263L7.36803 14.3196C6.11566 10.8481 10.0213 5.30213 12.0819 3.24152C14.4251 0.898795 18.2242 0.898525 20.5673 3.24152C22.9102 5.58453 22.91 9.38372 20.5673 11.7269C18.5067 13.7874 12.9607 17.6928 9.48913 16.4407L7.68151 18.2484C7.66516 18.265 7.63241 18.3148 7.65319 18.4388C7.67496 18.5667 7.74737 18.7068 7.83971 18.7991C8.81489 19.7753 8.81507 21.3573 7.83971 22.3333C6.86341 23.3096 5.27988 23.3096 4.30358 22.3333C3.78161 21.8113 3.53996 21.1152 3.57604 20.4339C3.58123 20.3324 3.55111 20.2842 3.53796 20.2708C3.52469 20.2577 3.4759 20.2264 3.37389 20.2318C2.69283 20.2678 1.9964 20.0269 1.47448 19.5052ZM17.7499 10.2484C17.7499 10.5244 17.9738 10.7483 18.2499 10.7484C18.526 10.7483 18.7499 10.5245 18.7499 10.2484C18.7494 9.97264 18.5257 9.7484 18.2499 9.74836C17.9741 9.74845 17.7503 9.97266 17.7499 10.2484ZM17.7499 6.24933C17.75 6.52533 17.9739 6.74925 18.2499 6.74933C18.5259 6.74929 18.7498 6.52536 18.7499 6.24933C18.7498 5.97325 18.5259 5.74938 18.2499 5.74933C17.9738 5.74942 17.7499 5.97328 17.7499 6.24933ZM14.2499 7.74933C14.2501 8.02519 14.474 8.24921 14.7499 8.24933C15.0258 8.24925 15.2497 8.02526 15.2499 7.74933C15.2497 7.4736 15.0265 7.24982 14.7508 7.24933C14.4748 7.24933 14.2501 7.47335 14.2499 7.74933ZM2.18249 16.6761C1.59694 17.2617 1.59631 18.2123 2.18151 18.7982C2.49381 19.1103 2.91041 19.2553 3.32116 19.2337C3.61714 19.2182 3.97588 19.2948 4.24499 19.5638C4.51397 19.8329 4.59061 20.1916 4.57507 20.4876C4.55345 20.8985 4.69834 21.314 5.01061 21.6263C5.5963 22.212 6.5459 22.2118 7.13171 21.6263C7.71706 21.0405 7.71733 20.0908 7.13171 19.5052C6.89519 19.2686 6.72387 18.9426 6.66686 18.6068C6.60967 18.2689 6.66185 17.853 6.97448 17.5403L8.57018 15.9446C8.43943 15.8462 8.3129 15.7372 8.19225 15.6165C8.07137 15.4956 7.96274 15.3686 7.86413 15.2376L6.26745 16.8333C5.95484 17.1459 5.53983 17.1981 5.20202 17.1409C4.86634 17.0839 4.54008 16.9125 4.30358 16.6761C3.71798 16.091 2.76817 16.0911 2.18249 16.6761Z" fill="black"/>
</svg>
