<svg width="24" height="24" viewBox="0 0 24 24" fill="none" xmlns="http://www.w3.org/2000/svg">
<path d="M18 10.5005C18.0001 10.2244 18.2239 10.0005 18.5 10.0005C18.776 10.0005 18.9998 10.2244 19 10.5005C19 10.7766 18.7761 11.0005 18.5 11.0005C18.2238 11.0005 18 10.7766 18 10.5005Z" fill="black"/>
<path d="M18 6.50047C18.0001 6.22442 18.2239 6.00047 18.5 6.00047C18.776 6.00047 18.9998 6.22442 19 6.50047C19 6.77661 18.7761 7.00047 18.5 7.00047C18.2238 7.00047 18 6.77661 18 6.50047Z" fill="black"/>
<path d="M14.5 8.00047C14.5001 7.72442 14.7239 7.50047 15 7.50047C15.276 7.50047 15.4998 7.72442 15.5 8.00047C15.5 8.27661 15.2761 8.50047 15 8.50047C14.7238 8.50047 14.5 8.27661 14.5 8.00047Z" fill="black"/>
<path fill-rule="evenodd" clip-rule="evenodd" d="M1.47457 19.5063C0.498999 18.5301 0.498747 16.9473 1.47457 15.9712C2.45084 14.9951 4.03444 14.9951 5.0107 15.9712C5.10297 16.0633 5.2405 16.1359 5.36813 16.1577C5.49366 16.179 5.5441 16.1447 5.56051 16.1284L6.98336 14.7055C6.71236 14.0682 6.60742 13.3727 6.62789 12.6577C6.66288 11.4411 7.05652 10.1449 7.60934 8.9116C8.71463 6.44601 10.5192 4.09849 11.7275 2.89012C14.2659 0.35172 18.3815 0.351744 20.9199 2.89012C23.4583 5.42852 23.4583 9.54409 20.9199 12.0825C19.7115 13.2908 17.3641 15.0964 14.8984 16.2016C13.6651 16.7545 12.3689 17.1471 11.1523 17.1821C10.4373 17.2026 9.74175 17.0976 9.10445 16.8266L7.6816 18.2505C7.66519 18.2672 7.6314 18.3168 7.65231 18.4409C7.67406 18.5688 7.74745 18.7079 7.83981 18.8003C8.81524 19.7766 8.81468 21.3594 7.83883 22.3354C6.86261 23.3114 5.27992 23.3113 4.30367 22.3354C3.78174 21.8135 3.53917 21.1172 3.57516 20.436C3.58043 20.3341 3.55019 20.2862 3.53707 20.2729C3.52378 20.2598 3.47525 20.2285 3.37301 20.2339C2.69207 20.2697 1.99638 20.028 1.47457 19.5063ZM7.62789 12.686C7.59849 13.7106 7.87064 14.5889 8.54586 15.2641C9.2211 15.9394 10.0994 16.2115 11.124 16.1821C12.1597 16.1523 13.3207 15.8128 14.4902 15.2886C16.8296 14.2398 19.078 12.5102 20.2129 11.3755C22.3607 9.22758 22.3607 5.74503 20.2129 3.59715C18.065 1.4493 14.5824 1.44928 12.4345 3.59715C11.2998 4.73198 9.57022 6.98039 8.52145 9.3198C7.99722 10.4893 7.65768 11.6503 7.62789 12.686ZM2.1816 16.6782C1.5963 17.2638 1.59655 18.2135 2.1816 18.7993C2.49389 19.1114 2.90953 19.2574 3.32028 19.2358C3.61641 19.2201 3.97476 19.2967 4.2441 19.5659C4.51328 19.8352 4.58982 20.1936 4.57418 20.4897C4.55263 20.9005 4.69843 21.3161 5.0107 21.6284C5.59639 22.2137 6.54609 22.2137 7.1318 21.6284C7.71726 21.0426 7.71648 20.093 7.13082 19.5073C6.89443 19.2708 6.72303 18.9445 6.66598 18.6089C6.60876 18.2711 6.66111 17.8552 6.9736 17.5425L8.21285 16.3022C8.08413 16.2016 7.95918 16.0915 7.83883 15.9712C7.71813 15.8505 7.60765 15.7253 7.5068 15.5962L6.26754 16.8354C5.95492 17.1479 5.5399 17.2002 5.20211 17.143C4.86636 17.0861 4.54025 16.9146 4.30367 16.6782C3.71793 16.0927 2.76734 16.0927 2.1816 16.6782Z" fill="black"/>
</svg>
