<svg width="24" height="24" viewBox="0 0 24 24" fill="none" xmlns="http://www.w3.org/2000/svg">
<path fill-rule="evenodd" clip-rule="evenodd" d="M1.65137 19.3291C0.773326 18.4503 0.773876 17.0249 1.65234 16.1465C2.53101 15.2685 3.95551 15.2692 4.83398 16.1474C4.96228 16.2756 5.14757 16.3727 5.32715 16.4033C5.50582 16.4335 5.64702 16.394 5.7373 16.3037L7.4707 14.5713C5.9248 11.1222 9.971 5.3532 12.082 3.24216C14.4252 0.899491 18.2244 0.899189 20.5674 3.24216C22.9104 5.58516 22.9101 9.38433 20.5674 11.7275C18.4563 13.8385 12.6874 17.8848 9.23828 16.3388L7.50488 18.0722C7.41485 18.1626 7.37703 18.3039 7.40722 18.4824C7.43784 18.6621 7.53385 18.8472 7.66211 18.9756C8.54068 19.8542 8.54051 21.2795 7.66211 22.1582C6.7835 23.0362 5.35898 23.0363 4.48047 22.1582C4.01087 21.6886 3.79371 21.0619 3.82617 20.4482C3.834 20.2976 3.79175 20.1717 3.71484 20.0947C3.63783 20.0178 3.51191 19.9765 3.36133 19.9844C2.74781 20.0168 2.1209 19.7984 1.65137 19.3291ZM18 10.249C18 10.387 18.112 10.4989 18.25 10.499C18.388 10.499 18.5 10.387 18.5 10.249C18.4995 10.1114 18.3877 10 18.25 9.99998C18.1123 10.0001 18.0005 10.1114 18 10.249ZM18 6.24998C18 6.38795 18.112 6.49988 18.25 6.49998C18.388 6.49993 18.5 6.38799 18.5 6.24998C18.5 6.11197 18.388 6.00002 18.25 5.99998C18.112 6.00008 18 6.112 18 6.24998ZM14.5 7.74998C14.5002 7.88776 14.6122 7.99985 14.75 7.99998C14.8879 7.99991 15.0008 7.8879 15.001 7.74998C15.0008 7.61231 14.8886 7.50045 14.751 7.49998C14.6131 7.49998 14.5002 7.61212 14.5 7.74998ZM2.00586 16.5C1.32254 17.1833 1.32274 18.2921 2.00586 18.9756C2.37057 19.34 2.85666 19.5096 3.33496 19.4844C3.58245 19.4715 3.86337 19.5363 4.06836 19.7412C4.27334 19.9463 4.33817 20.227 4.32519 20.4746C4.29985 20.9532 4.46913 21.4398 4.83398 21.8047C5.51724 22.4875 6.62525 22.4874 7.30859 21.8047C7.99174 21.1212 7.9919 20.0124 7.30859 19.3291C7.10814 19.1286 6.96223 18.8492 6.91406 18.5654C6.86589 18.2806 6.91285 17.9563 7.15137 17.7178L8.77832 16.0908C8.57196 15.9579 8.37591 15.8007 8.19238 15.6172C8.00531 15.4301 7.84639 15.2293 7.71191 15.0185C7.71425 15.0222 7.7164 15.0266 7.71875 15.0303L6.09082 16.6572C5.85228 16.8957 5.52897 16.9437 5.24414 16.8955C4.96032 16.8473 4.68101 16.7004 4.48047 16.5C3.79723 15.8173 2.68915 15.8174 2.00586 16.5Z" fill="black"/>
</svg>
