<svg width="24" height="24" viewBox="0 0 24 24" fill="none" xmlns="http://www.w3.org/2000/svg">
<path fill-rule="evenodd" clip-rule="evenodd" d="M1.29774 19.6817C0.224402 18.6077 0.224975 16.8658 1.29871 15.792C2.37265 14.7188 4.11365 14.7195 5.18739 15.793C5.21166 15.8172 5.24808 15.8434 5.29188 15.8663C5.33598 15.8891 5.37826 15.9037 5.41102 15.9092C5.41507 15.9099 5.41937 15.9088 5.42274 15.9092L7.28309 14.0508C6.31368 10.5683 10.0737 5.24949 12.0819 3.24127C14.4249 0.898746 18.2233 0.898744 20.5663 3.24126C22.9094 5.5844 22.9094 9.38347 20.5663 11.7266C18.558 13.7349 13.2402 17.4949 9.7577 16.5254L7.89637 18.3848C7.8968 18.3885 7.89854 18.394 7.8993 18.3985C7.90495 18.4311 7.91868 18.473 7.94129 18.5167C7.9642 18.5606 7.99224 18.5959 8.01649 18.6202C9.09019 19.6939 9.08976 21.4358 8.01649 22.5098C6.94268 23.5836 5.20081 23.5844 4.12684 22.5108C3.56809 21.952 3.30366 21.2117 3.32606 20.4825C2.59708 20.5048 1.85641 20.2402 1.29774 19.6817ZM17.4999 10.2481C17.4999 10.6623 17.8357 10.998 18.2499 10.9981C18.6641 10.9981 18.9999 10.6623 18.9999 10.2481C18.9994 9.83435 18.6637 9.49912 18.2499 9.49908C17.8361 9.49916 17.5004 9.83437 17.4999 10.2481ZM17.4999 6.24908C17.4999 6.66319 17.8358 6.999 18.2499 6.99908C18.664 6.99903 18.9998 6.66321 18.9999 6.24908C18.9998 5.83493 18.664 5.49912 18.2499 5.49908C17.8358 5.49916 17.4999 5.83495 17.4999 6.24908ZM13.9999 7.74908C14.0001 8.163 14.3359 8.49895 14.7499 8.49908C15.1639 8.49899 15.4997 8.16311 15.4999 7.74908C15.4998 7.33528 15.1646 6.99957 14.7509 6.99908C14.3368 6.99908 14.0001 7.33506 13.9999 7.74908ZM2.35926 16.8526C1.87127 17.3406 1.8716 18.132 2.35926 18.6202C2.61929 18.8801 2.96509 19.0016 3.30848 18.9835C3.6096 18.9677 3.98086 19.0333 4.29188 19.2725L4.42176 19.3868L4.53602 19.5157C4.77564 19.8269 4.84091 20.1987 4.82508 20.5001C4.80689 20.8435 4.92738 21.1892 5.18739 21.4493C5.67544 21.9373 6.46679 21.9371 6.95496 21.4493C7.44264 20.9611 7.44294 20.1697 6.95496 19.6817C6.68236 19.409 6.48657 19.0354 6.42078 18.6475C6.35474 18.2567 6.4111 17.75 6.79774 17.3633L8.37489 15.7862C8.38739 15.7971 8.40036 15.8077 8.41297 15.8184C8.33786 15.7548 8.26377 15.6878 8.19227 15.6163C8.11888 15.5429 8.05034 15.4669 7.98524 15.3897C7.99727 15.404 8.00906 15.4185 8.02137 15.4327L6.44422 17.0098C6.05749 17.3966 5.55089 17.4539 5.16004 17.3877C4.7724 17.3219 4.39936 17.125 4.12684 16.8526C3.63887 16.3652 2.84731 16.3653 2.35926 16.8526Z" fill="black"/>
</svg>
