<svg width="24" height="24" viewBox="0 0 24 24" fill="none" xmlns="http://www.w3.org/2000/svg">
<path fill-rule="evenodd" clip-rule="evenodd" d="M1.12098 19.8585C-0.050026 18.6869 -0.0494232 16.7867 1.12195 15.6153C2.29352 14.4445 4.19277 14.4451 5.36414 15.6163L7.2157 13.7647C6.51617 10.2834 10.1279 5.19534 12.0819 3.24129C14.425 0.898744 18.2233 0.898729 20.5663 3.24129C22.9094 5.58442 22.9094 9.38349 20.5663 11.7266C18.6122 13.6807 13.5251 17.2923 10.0438 16.5929L8.19324 18.4434C9.36457 19.6148 9.36415 21.515 8.19324 22.6866C7.02181 23.858 5.12168 23.8587 3.95008 22.6876C3.40573 22.1432 3.11556 21.4405 3.07703 20.7306C2.36752 20.6918 1.66502 20.4024 1.12098 19.8585ZM17.4999 10.2481C17.4999 10.6623 17.8357 10.9981 18.2499 10.9981C18.6641 10.9981 18.9999 10.6623 18.9999 10.2481C18.9994 9.83435 18.6638 9.49817 18.2499 9.49813C17.836 9.49819 17.5004 9.83437 17.4999 10.2481ZM17.4999 6.2491C17.5 6.6632 17.8358 6.99904 18.2499 6.9991C18.664 6.99906 18.9998 6.66322 18.9999 6.2491C18.9998 5.83495 18.664 5.49915 18.2499 5.4991C17.8358 5.49917 17.4999 5.83497 17.4999 6.2491ZM13.9999 7.7491C14.0001 8.16303 14.3359 8.49898 14.7499 8.4991C15.1639 8.499 15.4997 8.16311 15.4999 7.7491C15.4998 7.33531 15.1646 6.99961 14.7509 6.9991C14.3368 6.9991 14.0001 7.33506 13.9999 7.7491ZM2.53601 17.0294C2.14565 17.4198 2.14595 18.0529 2.53602 18.4434C2.74361 18.6509 3.01904 18.748 3.2948 18.7335C3.63844 18.7154 4.07463 18.7897 4.44422 19.0743L4.59852 19.21L4.73426 19.3643C5.01882 19.7339 5.09317 20.1701 5.07508 20.5138C5.06057 20.7896 5.15659 21.0649 5.36414 21.2725C5.75457 21.6629 6.38766 21.6628 6.7782 21.2725C7.16826 20.882 7.16855 20.2489 6.7782 19.8585C6.46968 19.5499 6.2494 19.1302 6.17469 18.6905C6.0995 18.2466 6.16002 17.6476 6.62098 17.1866C6.16001 17.6476 5.56193 17.7091 5.11805 17.6339C4.67839 17.5592 4.25866 17.3379 3.95008 17.0294C3.55973 16.6395 2.92644 16.6397 2.53601 17.0294Z" fill="black"/>
</svg>
