<svg width="24" height="24" viewBox="0 0 24 24" fill="none" xmlns="http://www.w3.org/2000/svg">
<path d="M17.0005 10.2494C17.0005 9.559 17.5601 8.99935 18.2505 8.99935C18.9406 8.99961 19.5005 9.55916 19.5005 10.2494C19.5003 10.9394 18.9405 11.4991 18.2505 11.4994C17.5602 11.4994 17.0006 10.9396 17.0005 10.2494Z" fill="black"/>
<path d="M17.0005 6.24935C17.0005 5.559 17.5601 4.99935 18.2505 4.99935C18.9406 4.99961 19.5005 5.55916 19.5005 6.24935C19.5003 6.93944 18.9405 7.49909 18.2505 7.49935C17.5602 7.49935 17.0006 6.9396 17.0005 6.24935Z" fill="black"/>
<path d="M13.5005 7.74935C13.5005 7.059 14.0601 6.49935 14.7505 6.49935C15.4406 6.49961 16.0005 7.05916 16.0005 7.74935C16.0003 8.43944 15.4405 8.99909 14.7505 8.99935C14.0602 8.99935 13.5006 8.4396 13.5005 7.74935Z" fill="black"/>
<path fill-rule="evenodd" clip-rule="evenodd" d="M0.944801 20.0355C-0.324037 18.7663 -0.32406 16.7089 0.944801 15.4398C2.15429 14.2305 4.07913 14.1743 5.35593 15.2699L6.11668 14.5101C5.93097 13.9021 5.86023 13.2671 5.87839 12.6341C5.91731 11.2817 6.3499 9.88427 6.92429 8.60287C8.07208 6.04235 9.93429 3.62119 11.1977 2.35775C14.029 -0.47339 18.6194 -0.473444 21.4507 2.35775C24.2819 5.189 24.2818 9.77937 21.4507 12.6107C20.1872 13.8741 17.7661 15.7363 15.2055 16.8841C13.9243 17.4584 12.5276 17.891 11.1753 17.93C10.5421 17.9482 9.9065 17.8785 9.29832 17.6927L8.53855 18.4525C9.63437 19.7291 9.57863 21.654 8.36961 22.8636C7.10039 24.1326 5.04207 24.1327 3.77293 22.8636C3.23865 22.3292 2.93137 21.6542 2.84714 20.9603C2.15365 20.8759 1.47893 20.5694 0.944801 20.0355ZM8.37839 12.7054C8.3533 13.5779 8.58161 14.2367 9.07664 14.7318C9.5717 15.2268 10.2305 15.4551 11.103 15.43C12.0028 15.4041 13.0617 15.1055 14.1831 14.6029C16.4283 13.5964 18.6035 11.9227 19.6831 10.8431C21.5379 8.9881 21.538 5.98027 19.6831 4.12533C17.8281 2.27045 14.8203 2.2705 12.9653 4.12533C11.8857 5.20494 10.212 7.38016 9.20554 9.62533C8.70292 10.7467 8.40433 11.8056 8.37839 12.7054ZM2.71238 17.2074C2.4198 17.5002 2.41976 17.9751 2.71238 18.2679C2.86758 18.4229 3.07354 18.4966 3.28172 18.4857C3.69526 18.4639 4.24049 18.5587 4.68699 18.9505L4.77488 19.0335L4.85789 19.1224C5.24969 19.5691 5.34558 20.1142 5.32371 20.5277C5.31283 20.7358 5.38547 20.9409 5.5405 21.096C5.83327 21.3888 6.30813 21.3885 6.60105 21.096C6.89353 20.8032 6.89354 20.3293 6.60105 20.0365C6.25627 19.6917 6.01064 19.2237 5.92722 18.7318C5.88306 18.471 5.88169 18.1577 5.96629 17.8411C5.65001 17.9255 5.33718 17.9253 5.07664 17.8812C4.58485 17.7978 4.11767 17.552 3.77293 17.2074C3.48008 16.9147 3.00522 16.9147 2.71238 17.2074Z" fill="black"/>
</svg>
