<svg width="24" height="24" viewBox="0 0 24 24" fill="none" xmlns="http://www.w3.org/2000/svg">
<path fill-rule="evenodd" clip-rule="evenodd" d="M1.65124 19.3284C0.773204 18.4497 0.773754 17.0243 1.65222 16.1458C2.53089 15.2678 3.95539 15.2685 4.83386 16.1468C4.96216 16.2749 5.14745 16.372 5.32702 16.4026C5.50569 16.4328 5.64689 16.3933 5.73718 16.303L7.47058 14.5706C5.92468 11.1215 9.97088 5.35253 12.0819 3.24149C14.4251 0.89882 18.2243 0.898518 20.5673 3.24149C22.9102 5.58448 22.9099 9.38366 20.5673 11.7268C18.4562 13.8379 12.6873 17.8841 9.23816 16.3382L7.50476 18.0716C7.41473 18.1619 7.37691 18.3032 7.4071 18.4817C7.43772 18.6614 7.53373 18.8466 7.66199 18.9749C8.54056 19.8535 8.54039 21.2788 7.66199 22.1575C6.78338 23.0355 5.35886 23.0356 4.48035 22.1575C4.01075 21.6879 3.79359 21.0612 3.82605 20.4475C3.83387 20.2969 3.79163 20.1711 3.71472 20.094C3.63771 20.0171 3.51179 19.9759 3.3612 19.9837C2.74769 20.0161 2.12078 19.7978 1.65124 19.3284ZM17.9999 10.2483C17.9999 10.3863 18.1119 10.4982 18.2499 10.4983C18.3879 10.4983 18.4999 10.3864 18.4999 10.2483C18.4993 10.1107 18.3876 9.99935 18.2499 9.99931C18.1122 9.99941 18.0004 10.1108 17.9999 10.2483ZM17.9999 6.24931C17.9999 6.38728 18.1119 6.49921 18.2499 6.49931C18.3879 6.49926 18.4998 6.38732 18.4999 6.24931C18.4998 6.1113 18.3879 5.99935 18.2499 5.99931C18.1119 5.99941 17.9999 6.11133 17.9999 6.24931ZM14.4999 7.74931C14.5001 7.88709 14.6121 7.99918 14.7499 7.99931C14.8878 7.99923 15.0007 7.88723 15.0009 7.74931C15.0007 7.61163 14.8884 7.49978 14.7509 7.49931C14.6129 7.49931 14.5001 7.61144 14.4999 7.74931ZM2.00574 16.4993C1.32242 17.1826 1.32262 18.2914 2.00574 18.9749C2.37045 19.3393 2.85654 19.5089 3.33484 19.4837C3.58233 19.4708 3.86325 19.5356 4.06824 19.7405C4.27322 19.9456 4.33805 20.2263 4.32507 20.4739C4.29972 20.9525 4.469 21.4391 4.83386 21.804C5.51711 22.4869 6.62512 22.4867 7.30847 21.804C7.99161 21.1206 7.99178 20.0117 7.30847 19.3284C7.10802 19.1279 6.96211 18.8485 6.91394 18.5647C6.86577 18.2799 6.91273 17.9556 7.15124 17.7171L8.7782 16.0901C8.57183 15.9572 8.37579 15.8 8.19226 15.6165C8.00519 15.4294 7.84627 15.2286 7.71179 15.0179C7.71413 15.0215 7.71628 15.0259 7.71863 15.0296L6.0907 16.6565C5.85216 16.8951 5.52885 16.943 5.24402 16.8948C4.96019 16.8467 4.68088 16.6998 4.48035 16.4993C3.79711 15.8166 2.68903 15.8167 2.00574 16.4993Z" fill="black"/>
</svg>
