<svg width="24" height="24" viewBox="0 0 24 24" fill="none" xmlns="http://www.w3.org/2000/svg">
<path d="M18.0004 10.2503C18.0004 10.1122 18.1123 10.0003 18.2504 10.0003C18.3884 10.0003 18.5004 10.1122 18.5004 10.2503C18.5002 10.3882 18.3883 10.5002 18.2504 10.5003C18.1124 10.5003 18.0006 10.3882 18.0004 10.2503Z" fill="black"/>
<path d="M18.0004 6.25027C18.0004 6.1122 18.1123 6.00027 18.2504 6.00027C18.3884 6.00033 18.5004 6.11224 18.5004 6.25027C18.5002 6.38817 18.3883 6.50022 18.2504 6.50027C18.1124 6.50027 18.0006 6.38821 18.0004 6.25027Z" fill="black"/>
<path d="M14.5004 7.75027C14.5004 7.6122 14.6123 7.50028 14.7504 7.50027C14.8884 7.50033 15.0004 7.61224 15.0004 7.75027C15.0002 7.88817 14.8883 8.00022 14.7504 8.00027C14.6124 8.00027 14.5006 7.88821 14.5004 7.75027Z" fill="black"/>
<path fill-rule="evenodd" clip-rule="evenodd" d="M1.65177 19.3294C0.773584 18.4508 0.773676 17.0263 1.65177 16.1477C2.5304 15.2693 3.95575 15.2693 4.83438 16.1477C4.96262 16.2757 5.14719 16.372 5.32657 16.4026C5.50519 16.4329 5.64633 16.395 5.73673 16.305L7.28165 14.76C6.97544 14.1204 6.85695 13.4075 6.87833 12.6634C6.91205 11.4921 7.29171 10.2302 7.83731 9.01297C8.92856 6.57872 10.7148 4.25561 11.9047 3.0657C14.3454 0.625 18.3028 0.625143 20.7436 3.0657C23.1843 5.50648 23.1843 9.46379 20.7436 11.9046C19.5536 13.0945 17.2307 14.8817 14.7963 15.9729C13.579 16.5185 12.3172 16.8973 11.1459 16.9309C10.4018 16.9523 9.68887 16.8338 9.04923 16.5276L7.50528 18.0725C7.41527 18.1629 7.37745 18.3032 7.40762 18.4817C7.43815 18.6617 7.53306 18.8484 7.66153 18.9768C8.5399 19.8554 8.54064 21.2788 7.66251 22.1575C6.78385 23.0358 5.35946 23.0359 4.48087 22.1575C4.01141 21.688 3.79329 21.063 3.82559 20.4495C3.83359 20.2986 3.79131 20.1721 3.71427 20.095C3.63713 20.0181 3.51148 19.9767 3.36075 19.9846C2.74725 20.017 2.12128 19.7987 1.65177 19.3294ZM7.37833 12.677C7.3474 13.7524 7.63429 14.7043 8.36954 15.4397C9.10493 16.1751 10.0568 16.4619 11.1322 16.4309C12.213 16.3998 13.4069 16.0472 14.5922 15.5159C16.9634 14.4529 19.2369 12.7042 20.39 11.5511C22.6356 9.30554 22.6356 5.66473 20.39 3.41922C18.1445 1.17392 14.5037 1.17378 12.2582 3.41922C11.1051 4.57239 9.35635 6.84584 8.29337 9.21707C7.7621 10.4023 7.40956 11.5963 7.37833 12.677ZM2.00528 16.5013C1.32245 17.1846 1.32236 18.2926 2.00528 18.9759C2.36996 19.3404 2.85608 19.5088 3.33438 19.4837C3.5819 19.4707 3.8627 19.5366 4.06778 19.7415C4.27285 19.9467 4.33766 20.2272 4.32462 20.4749C4.29927 20.9535 4.46953 21.4391 4.83438 21.804C5.51771 22.4872 6.6256 22.4871 7.30899 21.804C7.99186 21.1206 7.99112 20.0136 7.30802 19.3304C7.10751 19.1298 6.96168 18.8496 6.91348 18.5657C6.86531 18.2809 6.91239 17.9566 7.15079 17.718L8.59903 16.2698C8.39507 16.1342 8.19935 15.9775 8.01602 15.7942C7.83238 15.6106 7.67426 15.4146 7.53848 15.2102L6.09024 16.6585C5.85182 16.8965 5.52913 16.9439 5.24454 16.8958C4.96088 16.8477 4.6814 16.7015 4.48087 16.5013C3.7975 15.8181 2.68865 15.8181 2.00528 16.5013Z" fill="black"/>
</svg>
