<svg width="24" height="24" viewBox="0 0 24 24" fill="none" xmlns="http://www.w3.org/2000/svg">
<path d="M18.0001 10.2494C18.0001 10.1113 18.112 9.99942 18.2501 9.99942C18.3881 9.99947 18.5001 10.1114 18.5001 10.2494C18.4999 10.3873 18.388 10.4994 18.2501 10.4994C18.1121 10.4994 18.0003 10.3874 18.0001 10.2494Z" fill="black"/>
<path d="M18.0001 6.24942C18.0001 6.11135 18.112 5.99942 18.2501 5.99942C18.3881 5.99947 18.5001 6.11138 18.5001 6.24942C18.4999 6.38732 18.388 6.49937 18.2501 6.49942C18.1121 6.49942 18.0003 6.38735 18.0001 6.24942Z" fill="black"/>
<path d="M14.5001 7.74942C14.5001 7.61135 14.612 7.49942 14.7501 7.49942C14.8881 7.49947 15.0001 7.61138 15.0001 7.74942C14.9999 7.88732 14.888 7.99937 14.7501 7.99942C14.6121 7.99942 14.5003 7.88735 14.5001 7.74942Z" fill="black"/>
<path fill-rule="evenodd" clip-rule="evenodd" d="M1.65146 19.3285C0.773279 18.45 0.773371 17.0255 1.65146 16.1469C2.53009 15.2685 3.95545 15.2685 4.83408 16.1469C4.96232 16.2748 5.14689 16.3711 5.32626 16.4018C5.50489 16.432 5.64602 16.3941 5.73642 16.3041L7.28134 14.7592C6.97513 14.1195 6.85664 13.4067 6.87802 12.6625C6.91175 11.4912 7.2914 10.2294 7.83701 9.01212C8.92825 6.57787 10.7145 4.25476 11.9044 3.06485C14.3451 0.624145 18.3025 0.624288 20.7433 3.06485C23.184 5.50563 23.184 9.46294 20.7433 11.9037C19.5533 13.0937 17.2304 14.8808 14.796 15.9721C13.5787 16.5177 12.3169 16.8964 11.1456 16.9301C10.4015 16.9514 9.68857 16.833 9.04892 16.5268L7.50498 18.0717C7.41496 18.162 7.37715 18.3024 7.40732 18.4809C7.43784 18.6608 7.53276 18.8475 7.66123 18.976C8.53959 19.8545 8.54033 21.278 7.6622 22.1566C6.78355 23.035 5.35915 23.0351 4.48056 22.1566C4.01111 21.6872 3.79299 21.0621 3.82529 20.4486C3.83328 20.2977 3.791 20.1713 3.71396 20.0941C3.63683 20.0173 3.51117 19.9759 3.36044 19.9838C2.74695 20.0162 2.12097 19.7979 1.65146 19.3285ZM7.37802 12.6762C7.3471 13.7515 7.63398 14.7035 8.36923 15.4389C9.10463 16.1743 10.0565 16.461 11.1319 16.4301C12.2127 16.3989 13.4066 16.0463 14.5919 15.515C16.9631 14.4521 19.2366 12.7033 20.3897 11.5502C22.6353 9.30469 22.6353 5.66388 20.3897 3.41837C18.1442 1.17307 14.5033 1.17292 12.2579 3.41837C11.1048 4.57153 9.35604 6.84498 8.29306 9.21622C7.76179 10.4014 7.40925 11.5954 7.37802 12.6762ZM2.00498 16.5004C1.32215 17.1837 1.32206 18.2917 2.00498 18.975C2.36965 19.3395 2.85577 19.508 3.33408 19.4828C3.5816 19.4698 3.86239 19.5358 4.06748 19.7406C4.27255 19.9458 4.33736 20.2264 4.32431 20.474C4.29897 20.9526 4.46922 21.4383 4.83408 21.8031C5.51741 22.4863 6.62529 22.4862 7.30869 21.8031C7.99155 21.1197 7.99081 20.0128 7.30771 19.3295C7.1072 19.129 6.96138 18.8487 6.91318 18.5648C6.865 18.2801 6.91208 17.9557 7.15048 17.7172L8.59873 16.269C8.39477 16.1334 8.19904 15.9767 8.01572 15.7934C7.83207 15.6097 7.67395 15.4137 7.53818 15.2094L6.08994 16.6576C5.85151 16.8957 5.52882 16.943 5.24423 16.8949C4.96058 16.8468 4.68109 16.7006 4.48056 16.5004C3.79719 15.8172 2.68835 15.8172 2.00498 16.5004Z" fill="black"/>
</svg>
