<svg width="24" height="24" viewBox="0 0 24 24" fill="none" xmlns="http://www.w3.org/2000/svg">
<path fill-rule="evenodd" clip-rule="evenodd" d="M0.944294 20.0352C-0.324341 18.766 -0.323743 16.7076 0.945271 15.4385C2.15477 14.2297 4.07976 14.1732 5.3564 15.2686L7.165 13.462C7.16551 13.4657 7.16646 13.47 7.16695 13.4737C6.71349 10.0057 10.1818 5.14146 12.082 3.24128C14.425 0.898753 18.2233 0.898726 20.5664 3.24128C22.9095 5.58441 22.9095 9.38348 20.5664 11.7266C18.7257 13.5673 14.1049 16.8794 10.665 16.6729L10.3466 16.6436L8.53902 18.4512C9.63512 19.7279 9.57914 21.6536 8.37008 22.8634C7.10101 24.1324 5.04263 24.1331 3.7734 22.8643C3.23914 22.3301 2.93194 21.6548 2.84761 20.961C2.15403 20.8767 1.47847 20.5693 0.944294 20.0352ZM17.5 10.2481C17.5 10.6623 17.8358 10.9981 18.25 10.9981C18.6641 10.9981 19 10.6623 19 10.2481C18.9995 9.83435 18.6638 9.49914 18.25 9.49909C17.8361 9.49915 17.5005 9.83436 17.5 10.2481ZM17.5 6.24909C17.5 6.66321 17.8358 6.99904 18.25 6.99909C18.6641 6.99905 18.9999 6.66322 19 6.24909C18.9999 5.83494 18.6641 5.49914 18.25 5.49909C17.8358 5.49915 17.5 5.83495 17.5 6.24909ZM14 7.74909C14.0002 8.16302 14.336 8.49897 14.75 8.49909C15.164 8.49898 15.4998 8.1631 15.5 7.74909C15.4998 7.33514 15.1639 6.99934 14.75 6.99909C14.3361 6.99935 14.0002 7.33522 14 7.74909ZM2.71285 17.2061C2.42011 17.4989 2.42041 17.9737 2.71285 18.2667C2.86813 18.4218 3.07388 18.4964 3.28218 18.4854C3.69572 18.4637 4.24099 18.5584 4.68746 18.9503L4.77535 19.0333L4.85836 19.1212C5.25032 19.5678 5.346 20.1138 5.32418 20.5274C5.31333 20.7356 5.38589 20.9406 5.54097 21.0958C5.83377 21.3885 6.30861 21.3884 6.60152 21.0958C6.89393 20.8028 6.89423 20.328 6.60152 20.0352C6.25679 19.6905 6.0111 19.2234 5.92769 18.7315C5.88352 18.4706 5.88203 18.1566 5.96676 17.8399C5.65061 17.9243 5.33761 17.924 5.07711 17.88C4.5854 17.7965 4.11807 17.5507 3.7734 17.2061C3.48069 16.9139 3.00564 16.9141 2.71285 17.2061Z" fill="black"/>
</svg>
