<svg width="24" height="24" viewBox="0 0 24 24" fill="none" xmlns="http://www.w3.org/2000/svg">
<path d="M18.0002 10.2494C18.0002 10.1113 18.1121 9.99942 18.2502 9.99942C18.3882 9.99947 18.5002 10.1114 18.5002 10.2494C18.5 10.3873 18.3881 10.4994 18.2502 10.4994C18.1122 10.4994 18.0003 10.3874 18.0002 10.2494Z" fill="black"/>
<path d="M18.0002 6.24942C18.0002 6.11135 18.1121 5.99942 18.2502 5.99942C18.3882 5.99947 18.5002 6.11138 18.5002 6.24942C18.5 6.38732 18.3881 6.49937 18.2502 6.49942C18.1122 6.49942 18.0003 6.38735 18.0002 6.24942Z" fill="black"/>
<path d="M14.5002 7.74942C14.5002 7.61135 14.6121 7.49942 14.7502 7.49942C14.8882 7.49947 15.0002 7.61138 15.0002 7.74942C15 7.88732 14.8881 7.99937 14.7502 7.99942C14.6122 7.99942 14.5003 7.88735 14.5002 7.74942Z" fill="black"/>
<path fill-rule="evenodd" clip-rule="evenodd" d="M1.65152 19.3285C0.77334 18.45 0.773432 17.0255 1.65152 16.1469C2.53015 15.2685 3.95551 15.2685 4.83414 16.1469C4.96238 16.2748 5.14695 16.3711 5.32633 16.4018C5.50495 16.432 5.64608 16.3941 5.73648 16.3041L7.2814 14.7592C6.97519 14.1195 6.8567 13.4067 6.87808 12.6625C6.91181 11.4912 7.29147 10.2294 7.83707 9.01212C8.92832 6.57787 10.7146 4.25476 11.9045 3.06485C14.3452 0.624145 18.3025 0.624288 20.7433 3.06485C23.1841 5.50563 23.1841 9.46294 20.7433 11.9037C19.5533 13.0937 17.2305 14.8808 14.7961 15.9721C13.5787 16.5177 12.317 16.8964 11.1457 16.9301C10.4015 16.9514 9.68863 16.833 9.04898 16.5268L7.50504 18.0717C7.41502 18.162 7.37721 18.3024 7.40738 18.4809C7.4379 18.6608 7.53282 18.8475 7.66129 18.976C8.53965 19.8545 8.54039 21.278 7.66226 22.1566C6.78361 23.035 5.35921 23.0351 4.48062 22.1566C4.01117 21.6872 3.79305 21.0621 3.82535 20.4486C3.83334 20.2977 3.79106 20.1713 3.71402 20.0941C3.63689 20.0173 3.51123 19.9759 3.36051 19.9838C2.74701 20.0162 2.12103 19.7979 1.65152 19.3285ZM7.37808 12.6762C7.34716 13.7515 7.63404 14.7035 8.36929 15.4389C9.10469 16.1743 10.0566 16.461 11.132 16.4301C12.2128 16.3989 13.4067 16.0463 14.592 15.515C16.9632 14.4521 19.2366 12.7033 20.3898 11.5502C22.6353 9.30469 22.6353 5.66388 20.3898 3.41837C18.1443 1.17307 14.5034 1.17292 12.258 3.41837C11.1048 4.57153 9.3561 6.84498 8.29312 9.21622C7.76186 10.4014 7.40931 11.5954 7.37808 12.6762ZM2.00504 16.5004C1.32221 17.1837 1.32212 18.2917 2.00504 18.975C2.36971 19.3395 2.85583 19.508 3.33414 19.4828C3.58166 19.4698 3.86245 19.5358 4.06754 19.7406C4.27261 19.9458 4.33742 20.2264 4.32437 20.474C4.29903 20.9526 4.46928 21.4383 4.83414 21.8031C5.51747 22.4863 6.62536 22.4862 7.30875 21.8031C7.99162 21.1197 7.99087 20.0128 7.30777 19.3295C7.10726 19.129 6.96144 18.8487 6.91324 18.5648C6.86506 18.2801 6.91215 17.9557 7.15054 17.7172L8.59879 16.269C8.39483 16.1334 8.1991 15.9767 8.01578 15.7934C7.83213 15.6097 7.67401 15.4137 7.53824 15.2094L6.09 16.6576C5.85157 16.8957 5.52888 16.943 5.24429 16.8949C4.96064 16.8468 4.68116 16.7006 4.48062 16.5004C3.79725 15.8172 2.68841 15.8172 2.00504 16.5004Z" fill="black"/>
</svg>
