<svg width="24" height="24" viewBox="0 0 24 24" fill="none" xmlns="http://www.w3.org/2000/svg">
<path d="M10.2568 9.50005C10.1188 9.50005 10.0068 9.61197 10.0068 9.75005V13.15C10.0068 13.2881 10.1188 13.4 10.2568 13.4H13.7295C13.8676 13.4 13.9795 13.2881 13.9795 13.15V9.75005C13.9795 9.61197 13.8676 9.50005 13.7295 9.50005H10.2568Z" fill="black"/>
<path fill-rule="evenodd" clip-rule="evenodd" d="M7.76952 1.55005C7.76952 1.41198 7.65759 1.30005 7.51952 1.30005C7.38145 1.30005 7.26952 1.41198 7.26952 1.55005V3.34694C7.10253 3.35301 6.94731 3.36148 6.80241 3.37332C6.2867 3.41546 5.87968 3.50141 5.51769 3.68585C4.90617 3.99744 4.40898 4.49462 4.09739 5.10615C3.91295 5.46813 3.827 5.87515 3.78487 6.39087C3.77441 6.51887 3.76657 6.65493 3.7607 6.80005H2C1.86193 6.80005 1.75 6.91198 1.75 7.05005C1.75 7.18812 1.86193 7.30005 2 7.30005H3.74777C3.74316 7.61723 3.74316 7.97156 3.74316 8.37009V11.2H2C1.86193 11.2 1.75 11.312 1.75 11.45C1.75 11.5881 1.86193 11.7 2 11.7H3.74316V14.7931C3.74316 15.0849 3.74316 15.3529 3.74497 15.6001H2C1.86193 15.6001 1.75 15.712 1.75 15.8501C1.75 15.9881 1.86193 16.1001 2 16.1001H3.75231C3.75833 16.347 3.76831 16.5698 3.78487 16.7724C3.827 17.2881 3.91295 17.6951 4.09739 18.0571C4.40898 18.6686 4.90617 19.1658 5.51769 19.4774C5.87968 19.6618 6.2867 19.7478 6.80241 19.7899C6.94731 19.8018 7.10253 19.8102 7.26952 19.8163V21.55C7.26952 21.6881 7.38145 21.8 7.51952 21.8C7.65759 21.8 7.76952 21.6881 7.76952 21.55V19.8278C8.07174 19.8316 8.40712 19.8316 8.78151 19.8316H11.7498V21.55C11.7498 21.6881 11.8617 21.8 11.9998 21.8C12.1378 21.8 12.2498 21.6881 12.2498 21.55V19.8316H15.2047C15.5819 19.8316 15.9195 19.8316 16.2235 19.8277V21.55C16.2235 21.6881 16.3354 21.8 16.4735 21.8C16.6116 21.8 16.7235 21.6881 16.7235 21.55V19.8161C16.8879 19.81 17.041 19.8016 17.1839 19.7899C17.6996 19.7478 18.1066 19.6618 18.4686 19.4774C19.0802 19.1658 19.5773 18.6686 19.8889 18.0571C20.0734 17.6951 20.1593 17.2881 20.2015 16.7724C20.218 16.5698 20.228 16.347 20.234 16.1001H22C22.1381 16.1001 22.25 15.9881 22.25 15.8501C22.25 15.712 22.1381 15.6001 22 15.6001H20.2414C20.2432 15.353 20.2432 15.085 20.2432 14.7933V11.7H22C22.1381 11.7 22.25 11.5881 22.25 11.45C22.25 11.312 22.1381 11.2 22 11.2H20.2432V8.37008C20.2432 7.9716 20.2432 7.6172 20.2386 7.30005H22C22.1381 7.30005 22.25 7.18812 22.25 7.05005C22.25 6.91198 22.1381 6.80005 22 6.80005H20.2256C20.2198 6.65493 20.2119 6.51887 20.2015 6.39087C20.1593 5.87515 20.0734 5.46813 19.8889 5.10615C19.5773 4.49462 19.0802 3.99744 18.4686 3.68585C18.1066 3.50141 17.6996 3.41546 17.1839 3.37332C17.041 3.36164 16.8879 3.35323 16.7235 3.34718V1.55005C16.7235 1.41198 16.6116 1.30005 16.4735 1.30005C16.3354 1.30005 16.2235 1.41198 16.2235 1.55005V3.33553C15.9195 3.33162 15.5819 3.33162 15.2047 3.33162H12.2498V1.55005C12.2498 1.41198 12.1378 1.30005 11.9998 1.30005C11.8617 1.30005 11.7498 1.41198 11.7498 1.55005V3.33162H8.78163C8.40719 3.33162 8.07177 3.33162 7.76952 3.33544V1.55005ZM9.50684 9.75005C9.50684 9.33583 9.84262 9.00005 10.2568 9.00005H13.7295C14.1438 9.00005 14.4795 9.33583 14.4795 9.75005V13.15C14.4795 13.5643 14.1438 13.9 13.7295 13.9H10.2568C9.84262 13.9 9.50684 13.5643 9.50684 13.15V9.75005Z" fill="black"/>
</svg>
