<svg width="24" height="24" viewBox="0 0 24 24" fill="none" xmlns="http://www.w3.org/2000/svg">
<path d="M10.5063 12.9V10H13.479V12.9H10.5063Z" fill="black"/>
<path fill-rule="evenodd" clip-rule="evenodd" d="M8.26947 1.55005C8.26947 1.13584 7.93368 0.800049 7.51947 0.800049C7.10526 0.800049 6.76947 1.13584 6.76947 1.55005V4.41793C5.92727 4.78982 5.24772 5.46261 4.86709 6.30005L1.375 6.30005C0.960787 6.30005 0.625 6.63583 0.625 7.05005C0.625 7.46426 0.960787 7.80005 1.375 7.80005L4.5331 7.80005C4.53288 7.81669 4.53277 7.83336 4.53277 7.85005V10.7H1.375C0.960787 10.7 0.625 11.0358 0.625 11.45C0.625 11.8643 0.960787 12.2 1.375 12.2H4.53277V15.0501C4.53277 15.0667 4.53288 15.0834 4.5331 15.1001H1.375C0.960787 15.1001 0.625 15.4358 0.625 15.8501C0.625 16.2643 0.960787 16.6001 1.375 16.6001H4.86709C5.24772 17.4375 5.92727 18.1103 6.76947 18.4822V22.45C6.76947 22.8643 7.10526 23.2 7.51947 23.2C7.93368 23.2 8.26947 22.8643 8.26947 22.45V18.8C8.2739 18.8 8.27834 18.8001 8.28277 18.8001H11.2497V22.45C11.2497 22.8643 11.5855 23.2 11.9997 23.2C12.4139 23.2 12.7497 22.8643 12.7497 22.45V18.8001H15.7035C15.7101 18.8001 15.7168 18.8 15.7234 18.8V22.45C15.7234 22.8643 16.0592 23.2 16.4734 23.2C16.8877 23.2 17.2234 22.8643 17.2234 22.45V18.4792C18.0626 18.1067 18.7395 17.4353 19.1192 16.6001H22.6245C23.0387 16.6001 23.3745 16.2643 23.3745 15.8501C23.3745 15.4358 23.0387 15.1001 22.6245 15.1001H19.4532C19.4534 15.0834 19.4535 15.0667 19.4535 15.0501V12.2H22.6245C23.0387 12.2 23.3745 11.8643 23.3745 11.45C23.3745 11.0358 23.0387 10.7 22.6245 10.7H19.4535V7.85005C19.4535 7.83336 19.4534 7.81669 19.4532 7.80005L22.6245 7.80005C23.0387 7.80005 23.3745 7.46426 23.3745 7.05005C23.3745 6.63584 23.0387 6.30005 22.6245 6.30005L19.1192 6.30005C18.7395 5.46482 18.0626 4.79337 17.2234 4.42088V1.55005C17.2234 1.13584 16.8877 0.800049 16.4734 0.800049C16.0592 0.800049 15.7234 1.13584 15.7234 1.55005V4.1001C15.7168 4.10007 15.7101 4.10005 15.7035 4.10005H12.7497V1.55005C12.7497 1.13584 12.4139 0.800049 11.9997 0.800049C11.5855 0.800049 11.2497 1.13584 11.2497 1.55005V4.10005H8.28277C8.27834 4.10005 8.2739 4.10006 8.26947 4.10008V1.55005ZM10.2563 8.50005C9.56599 8.50005 9.00635 9.05969 9.00635 9.75005V13.15C9.00635 13.8404 9.56599 14.4 10.2563 14.4H13.729C14.4194 14.4 14.979 13.8404 14.979 13.15V9.75005C14.979 9.05969 14.4194 8.50005 13.729 8.50005H10.2563Z" fill="black"/>
</svg>
