<svg width="24" height="24" viewBox="0 0 24 24" fill="none" xmlns="http://www.w3.org/2000/svg">
<path fill-rule="evenodd" clip-rule="evenodd" d="M9.00656 9.75005C9.00656 9.05969 9.56621 8.50005 10.2566 8.50005H13.7293C14.4196 8.50005 14.9793 9.05969 14.9793 9.75005V13.15C14.9793 13.8404 14.4196 14.4 13.7293 14.4H10.2566C9.56621 14.4 9.00656 13.8404 9.00656 13.15V9.75005ZM10.5066 10V12.9H13.4793V10H10.5066Z" fill="black"/>
<path fill-rule="evenodd" clip-rule="evenodd" d="M8.26947 1.55005C8.26947 1.13584 7.93368 0.800049 7.51947 0.800049C7.10526 0.800049 6.76947 1.13584 6.76947 1.55005V4.14787C5.67456 4.35459 4.80899 5.21032 4.58778 6.30005L1.375 6.30005C0.960787 6.30005 0.625 6.63583 0.625 7.05005C0.625 7.46426 0.960787 7.80005 1.375 7.80005L4.53277 7.80005V10.7H1.375C0.960787 10.7 0.625 11.0358 0.625 11.45C0.625 11.8643 0.960787 12.2 1.375 12.2H4.53277V15.1001H1.375C0.960787 15.1001 0.625 15.4358 0.625 15.8501C0.625 16.2643 0.960787 16.6001 1.375 16.6001H4.58778C4.80899 17.6898 5.67456 18.5455 6.76947 18.7522V22.45C6.76947 22.8643 7.10526 23.2 7.51947 23.2C7.93368 23.2 8.26947 22.8643 8.26947 22.45V18.8001H11.2497V22.45C11.2497 22.8643 11.5855 23.2 11.9997 23.2C12.4139 23.2 12.7497 22.8643 12.7497 22.45V18.8001H15.7234V22.45C15.7234 22.8643 16.0592 23.2 16.4734 23.2C16.8877 23.2 17.2234 22.8643 17.2234 22.45V18.751C18.3152 18.542 19.1777 17.6876 19.3985 16.6001H22.6245C23.0387 16.6001 23.3745 16.2643 23.3745 15.8501C23.3745 15.4358 23.0387 15.1001 22.6245 15.1001H19.4535V12.2H22.6245C23.0387 12.2 23.3745 11.8643 23.3745 11.45C23.3745 11.0358 23.0387 10.7 22.6245 10.7H19.4535V7.80005L22.6245 7.80005C23.0387 7.80005 23.3745 7.46426 23.3745 7.05005C23.3745 6.63584 23.0387 6.30005 22.6245 6.30005L19.3985 6.30005C19.1777 5.21253 18.3152 4.35806 17.2234 4.14914V1.55005C17.2234 1.13584 16.8877 0.800049 16.4734 0.800049C16.0592 0.800049 15.7234 1.13584 15.7234 1.55005V4.10005H12.7497V1.55005C12.7497 1.13584 12.4139 0.800049 11.9997 0.800049C11.5855 0.800049 11.2497 1.13584 11.2497 1.55005V4.10005H8.26947V1.55005ZM7.28277 5.60005C6.59242 5.60005 6.03277 6.1597 6.03277 6.85005V16.0501C6.03277 16.7404 6.59242 17.3001 7.28277 17.3001H16.7035C17.3938 17.3001 17.9535 16.7404 17.9535 16.0501V6.85005C17.9535 6.1597 17.3938 5.60005 16.7035 5.60005H7.28277Z" fill="black"/>
</svg>
