<svg width="24" height="24" viewBox="0 0 24 24" fill="none" xmlns="http://www.w3.org/2000/svg">
<path d="M10.2571 9.50078C10.119 9.50078 10.0071 9.61271 10.0071 9.75078V13.1508C10.0071 13.2888 10.119 13.4008 10.2571 13.4008H13.7298C13.8679 13.4008 13.9798 13.2888 13.9798 13.1508V9.75078C13.9798 9.61271 13.8679 9.50078 13.7298 9.50078H10.2571Z" fill="black"/>
<path fill-rule="evenodd" clip-rule="evenodd" d="M7.76976 1.55078C7.76976 1.41271 7.65783 1.30078 7.51976 1.30078C7.38169 1.30078 7.26976 1.41271 7.26976 1.55078V3.34767C7.10277 3.35374 6.94756 3.36222 6.80266 3.37405C6.28694 3.41619 5.87992 3.50214 5.51794 3.68658C4.90641 3.99817 4.40923 4.49536 4.09764 5.10688C3.9132 5.46887 3.82725 5.87588 3.78511 6.3916C3.77465 6.51961 3.76682 6.65566 3.76095 6.80078H2.00024C1.86217 6.80078 1.75024 6.91271 1.75024 7.05078C1.75024 7.18885 1.86217 7.30078 2.00024 7.30078H3.74802C3.74341 7.61797 3.74341 7.97229 3.74341 8.37082V11.2008H2.00024C1.86217 11.2008 1.75024 11.3127 1.75024 11.4508C1.75024 11.5888 1.86217 11.7008 2.00024 11.7008H3.74341V14.7939C3.74341 15.0856 3.74341 15.3537 3.74522 15.6008H2.00024C1.86217 15.6008 1.75024 15.7127 1.75024 15.8508C1.75024 15.9889 1.86217 16.1008 2.00024 16.1008H3.75256C3.75858 16.3477 3.76856 16.5705 3.78511 16.7731C3.82725 17.2888 3.9132 17.6958 4.09764 18.0578C4.40923 18.6693 4.90641 19.1665 5.51794 19.4781C5.87992 19.6626 6.28694 19.7485 6.80266 19.7906C6.94756 19.8025 7.10277 19.811 7.26976 19.817V21.5508C7.26976 21.6889 7.38169 21.8008 7.51976 21.8008C7.65783 21.8008 7.76976 21.6889 7.76976 21.5508V19.8285C8.07198 19.8324 8.40736 19.8324 8.78176 19.8324H11.75V21.5508C11.75 21.6889 11.8619 21.8008 12 21.8008C12.1381 21.8008 12.25 21.6889 12.25 21.5508V19.8324H15.2049C15.5821 19.8324 15.9198 19.8324 16.2237 19.8284V21.5508C16.2237 21.6889 16.3357 21.8008 16.4737 21.8008C16.6118 21.8008 16.7237 21.6889 16.7237 21.5508V19.8168C16.8882 19.8107 17.0412 19.8023 17.1842 19.7906C17.6999 19.7485 18.1069 19.6626 18.4689 19.4781C19.0804 19.1665 19.5776 18.6693 19.8892 18.0578C20.0736 17.6958 20.1596 17.2888 20.2017 16.7731C20.2183 16.5705 20.2282 16.3477 20.2343 16.1008H22.0002C22.1383 16.1008 22.2502 15.9889 22.2502 15.8508C22.2502 15.7127 22.1383 15.6008 22.0002 15.6008H20.2416C20.2434 15.3537 20.2434 15.0857 20.2434 14.794V11.7008H22.0002C22.1383 11.7008 22.2502 11.5888 22.2502 11.4508C22.2502 11.3127 22.1383 11.2008 22.0002 11.2008H20.2434V8.37081C20.2434 7.97234 20.2434 7.61793 20.2388 7.30078H22.0002C22.1383 7.30078 22.2502 7.18885 22.2502 7.05078C22.2502 6.91271 22.1383 6.80078 22.0002 6.80078H20.2259C20.22 6.65566 20.2122 6.51961 20.2017 6.3916C20.1596 5.87588 20.0736 5.46887 19.8892 5.10688C19.5776 4.49536 19.0804 3.99817 18.4689 3.68658C18.1069 3.50214 17.6999 3.41619 17.1842 3.37405C17.0412 3.36237 16.8882 3.35397 16.7237 3.34791V1.55078C16.7237 1.41271 16.6118 1.30078 16.4737 1.30078C16.3357 1.30078 16.2237 1.41271 16.2237 1.55078V3.33626C15.9197 3.33235 15.5821 3.33235 15.2049 3.33235H12.25V1.55078C12.25 1.41271 12.1381 1.30078 12 1.30078C11.8619 1.30078 11.75 1.41271 11.75 1.55078V3.33235H8.78188C8.40744 3.33235 8.07202 3.33235 7.76976 3.33618V1.55078ZM9.50708 9.75078C9.50708 9.33657 9.84287 9.00078 10.2571 9.00078H13.7298C14.144 9.00078 14.4798 9.33657 14.4798 9.75078V13.1508C14.4798 13.565 14.144 13.9008 13.7298 13.9008H10.2571C9.84287 13.9008 9.50708 13.565 9.50708 13.1508V9.75078Z" fill="black"/>
</svg>
