<svg width="24" height="24" viewBox="0 0 24 24" fill="none" xmlns="http://www.w3.org/2000/svg">
<path fill-rule="evenodd" clip-rule="evenodd" d="M9.25685 9.75078C9.25685 9.19849 9.70457 8.75078 10.2569 8.75078H13.7296C14.2818 8.75078 14.7296 9.19849 14.7296 9.75078V13.1508C14.7296 13.7031 14.2818 14.1508 13.7296 14.1508H10.2569C9.70457 14.1508 9.25685 13.7031 9.25685 13.1508V9.75078ZM13.7296 9.75078H10.2569V13.1508H13.7296V9.75078Z" fill="black"/>
<path fill-rule="evenodd" clip-rule="evenodd" d="M8.01976 1.55078C8.01976 1.27464 7.7959 1.05078 7.51976 1.05078C7.24362 1.05078 7.01976 1.27464 7.01976 1.55078V3.10877C6.93777 3.11332 6.85865 3.11864 6.78225 3.12488C6.25108 3.16828 5.8075 3.25844 5.4044 3.46383C4.74583 3.79939 4.2104 4.33482 3.87484 4.99338C3.66945 5.39649 3.57929 5.84006 3.5359 6.37124C3.53114 6.42948 3.52691 6.48931 3.52316 6.55078H2.00024C1.7241 6.55078 1.50024 6.77464 1.50024 7.05078C1.50024 7.32692 1.7241 7.55078 2.00024 7.55078H3.49525C3.49336 7.80011 3.49336 8.06919 3.49336 8.36014L3.49336 10.9508H2.00024C1.7241 10.9508 1.50024 11.1746 1.50024 11.4508C1.50024 11.7269 1.7241 11.9508 2.00024 11.9508H3.49336L3.49336 14.8046C3.49336 14.9959 3.49336 15.1778 3.4939 15.3508H2.00024C1.7241 15.3508 1.50024 15.5746 1.50024 15.8508C1.50024 16.1269 1.7241 16.3508 2.00024 16.3508H3.5102C3.51629 16.5079 3.52459 16.6551 3.5359 16.7935C3.57929 17.3246 3.66945 17.7682 3.87484 18.1713C4.2104 18.8299 4.74583 19.3653 5.4044 19.7009C5.8075 19.9063 6.25108 19.9964 6.78225 20.0398C6.85865 20.0461 6.93777 20.0514 7.01976 20.0559V21.5508C7.01976 21.8269 7.24362 22.0508 7.51976 22.0508C7.7959 22.0508 8.01976 21.8269 8.01976 21.5508V20.0809C8.25271 20.0824 8.50261 20.0824 8.77114 20.0824H11.5V21.5508C11.5 21.8269 11.7239 22.0508 12 22.0508C12.2761 22.0508 12.5 21.8269 12.5 21.5508V20.0824H15.2156C15.4867 20.0824 15.7389 20.0824 15.9737 20.0808V21.5508C15.9737 21.8269 16.1976 22.0508 16.4737 22.0508C16.7499 22.0508 16.9737 21.8269 16.9737 21.5508V20.0556C17.0533 20.0511 17.1302 20.0459 17.2045 20.0398C17.7356 19.9964 18.1792 19.9063 18.5823 19.7009C19.2409 19.3653 19.7763 18.8299 20.1119 18.1713C20.3173 17.7682 20.4074 17.3246 20.4508 16.7935C20.4621 16.6551 20.4704 16.5079 20.4765 16.3508H22.0002C22.2764 16.3508 22.5002 16.1269 22.5002 15.8508C22.5002 15.5746 22.2764 15.3508 22.0002 15.3508H20.4928C20.4934 15.1778 20.4934 14.9959 20.4934 14.8046V11.9508H22.0002C22.2764 11.9508 22.5002 11.7269 22.5002 11.4508C22.5002 11.1746 22.2764 10.9508 22.0002 10.9508H20.4934V8.36013C20.4934 8.06919 20.4934 7.80011 20.4915 7.55078H22.0002C22.2764 7.55078 22.5002 7.32692 22.5002 7.05078C22.5002 6.77464 22.2764 6.55078 22.0002 6.55078H20.4636C20.4598 6.48931 20.4556 6.42948 20.4508 6.37124C20.4074 5.84006 20.3173 5.39649 20.1119 4.99338C19.7763 4.33482 19.2409 3.79939 18.5823 3.46383C18.1792 3.25844 17.7356 3.16828 17.2045 3.12488C17.1302 3.11881 17.0533 3.11361 16.9737 3.10915V1.55078C16.9737 1.27464 16.7499 1.05078 16.4737 1.05078C16.1976 1.05078 15.9737 1.27464 15.9737 1.55078V3.08388C15.7389 3.08235 15.4867 3.08235 15.2156 3.08235H12.5V1.55078C12.5 1.27464 12.2761 1.05078 12 1.05078C11.7239 1.05078 11.5 1.27464 11.5 1.55078V3.08235H8.77116C8.50262 3.08235 8.25271 3.08235 8.01976 3.08384V1.55078ZM6.86368 4.12156C6.39435 4.15991 6.09702 4.23324 5.85839 4.35484C5.38798 4.59452 5.00553 4.97697 4.76585 5.44737C4.64426 5.68601 4.57092 5.98334 4.53257 6.45267C4.49375 6.92785 4.49336 7.53402 4.49336 8.38235V14.7824C4.49336 15.6307 4.49375 16.2369 4.53257 16.712C4.57092 17.1814 4.64426 17.4787 4.76585 17.7173C5.00553 18.1877 5.38798 18.5702 5.85839 18.8099C6.09702 18.9315 6.39435 19.0048 6.86368 19.0431C7.33886 19.082 7.94503 19.0824 8.79336 19.0824H15.1934C16.0417 19.0824 16.6479 19.082 17.123 19.0431C17.5924 19.0048 17.8897 18.9315 18.1283 18.8099C18.5987 18.5702 18.9812 18.1877 19.2209 17.7173C19.3425 17.4787 19.4158 17.1814 19.4542 16.712C19.493 16.2369 19.4934 15.6307 19.4934 14.7824V8.38235C19.4934 7.53402 19.493 6.92785 19.4542 6.45267C19.4158 5.98334 19.3425 5.68601 19.2209 5.44737C18.9812 4.97697 18.5987 4.59452 18.1283 4.35484C17.8897 4.23324 17.5924 4.15991 17.123 4.12156C16.6479 4.08274 16.0417 4.08235 15.1934 4.08235H8.79336C7.94503 4.08235 7.33886 4.08274 6.86368 4.12156Z" fill="black"/>
</svg>
