<svg width="24" height="24" viewBox="0 0 24 24" fill="none" xmlns="http://www.w3.org/2000/svg">
<path fill-rule="evenodd" clip-rule="evenodd" d="M8.75656 9.75005C8.75656 8.92162 9.42813 8.25005 10.2566 8.25005H13.7293C14.5577 8.25005 15.2293 8.92162 15.2293 9.75005V13.15C15.2293 13.9785 14.5577 14.65 13.7293 14.65H10.2566C9.42813 14.65 8.75656 13.9785 8.75656 13.15V9.75005ZM10.7566 10.25V12.65H13.2293V10.25H10.7566Z" fill="black"/>
<path fill-rule="evenodd" clip-rule="evenodd" d="M8.51947 1.55005C8.51947 0.997764 8.07176 0.550049 7.51947 0.550049C6.96719 0.550049 6.51947 0.997764 6.51947 1.55005V4.25868C5.73875 4.64273 5.10148 5.27386 4.70969 6.05005H1.375C0.822716 6.05005 0.375 6.49776 0.375 7.05005C0.375 7.60233 0.822716 8.05005 1.375 8.05005H4.28277V10.45H1.375C0.822716 10.45 0.375 10.8978 0.375 11.45C0.375 12.0023 0.822716 12.45 1.375 12.45H4.28277V14.8501H1.375C0.822716 14.8501 0.375 15.2978 0.375 15.8501C0.375 16.4023 0.822716 16.8501 1.375 16.8501H4.70969C5.10148 17.6262 5.73875 18.2574 6.51947 18.6414V22.45C6.51947 23.0023 6.96719 23.45 7.51947 23.45C8.07176 23.45 8.51947 23.0023 8.51947 22.45V19.0501H10.9997V22.45C10.9997 23.0023 11.4474 23.45 11.9997 23.45C12.552 23.45 12.9997 23.0023 12.9997 22.45V19.0501H15.4734V22.45C15.4734 23.0023 15.9212 23.45 16.4734 23.45C17.0257 23.45 17.4734 23.0023 17.4734 22.45V18.6381C18.2511 18.2538 18.8859 17.624 19.2766 16.8501H22.6245C23.1768 16.8501 23.6245 16.4023 23.6245 15.8501C23.6245 15.2978 23.1768 14.8501 22.6245 14.8501H19.7035V12.45H22.6245C23.1768 12.45 23.6245 12.0023 23.6245 11.45C23.6245 10.8978 23.1768 10.45 22.6245 10.45H19.7035V8.05005H22.6245C23.1768 8.05005 23.6245 7.60233 23.6245 7.05005C23.6245 6.49776 23.1768 6.05005 22.6245 6.05005H19.2766C18.8859 5.27607 18.2511 4.64632 17.4734 4.26196V1.55005C17.4734 0.997764 17.0257 0.550049 16.4734 0.550049C15.9212 0.550049 15.4734 0.997764 15.4734 1.55005V3.85005H12.9997V1.55005C12.9997 0.997764 12.552 0.550049 11.9997 0.550049C11.4474 0.550049 10.9997 0.997764 10.9997 1.55005V3.85005H8.51947V1.55005ZM8.28277 5.85005C7.1782 5.85005 6.28277 6.74548 6.28277 7.85005V15.0501C6.28277 16.1546 7.1782 17.0501 8.28277 17.0501H15.7035C16.8081 17.0501 17.7035 16.1546 17.7035 15.0501V7.85005C17.7035 6.74548 16.8081 5.85005 15.7035 5.85005H8.28277Z" fill="black"/>
</svg>
