<svg width="24" height="24" viewBox="0 0 24 24" fill="none" xmlns="http://www.w3.org/2000/svg">
<path fill-rule="evenodd" clip-rule="evenodd" d="M9.50661 9.75005C9.50661 9.33583 9.84239 9.00005 10.2566 9.00005H13.7293C14.1435 9.00005 14.4793 9.33583 14.4793 9.75005V13.15C14.4793 13.5643 14.1435 13.9 13.7293 13.9H10.2566C9.84239 13.9 9.50661 13.5643 9.50661 13.15V9.75005ZM10.2566 9.50005C10.1185 9.50005 10.0066 9.61197 10.0066 9.75005V13.15C10.0066 13.2881 10.1185 13.4 10.2566 13.4H13.7293C13.8674 13.4 13.9793 13.2881 13.9793 13.15V9.75005C13.9793 9.61197 13.8674 9.50005 13.7293 9.50005H10.2566Z" fill="black"/>
<path fill-rule="evenodd" clip-rule="evenodd" d="M7.76952 1.55005C7.76952 1.41198 7.65759 1.30005 7.51952 1.30005C7.38145 1.30005 7.26952 1.41198 7.26952 1.55005V3.34693C7.10251 3.353 6.94728 3.36148 6.80237 3.37332C6.28665 3.41546 5.87963 3.50141 5.51765 3.68585C4.90612 3.99744 4.40894 4.49462 4.09735 5.10615C3.91291 5.46813 3.82696 5.87515 3.78482 6.39087C3.77436 6.51887 3.76653 6.65493 3.76066 6.80005H2C1.86193 6.80005 1.75 6.91198 1.75 7.05005C1.75 7.18812 1.86193 7.30005 2 7.30005H3.74773C3.74312 7.61723 3.74312 7.97156 3.74312 8.37009V11.2H2C1.86193 11.2 1.75 11.312 1.75 11.45C1.75 11.5881 1.86193 11.7 2 11.7H3.74312V14.7931C3.74312 15.0849 3.74312 15.3529 3.74493 15.6001H2C1.86193 15.6001 1.75 15.712 1.75 15.8501C1.75 15.9881 1.86193 16.1001 2 16.1001H3.75226C3.75828 16.347 3.76827 16.5698 3.78482 16.7724C3.82696 17.2881 3.91291 17.6951 4.09735 18.0571C4.40894 18.6686 4.90612 19.1658 5.51765 19.4774C5.87963 19.6618 6.28665 19.7478 6.80237 19.7899C6.94728 19.8018 7.10251 19.8102 7.26952 19.8163V21.55C7.26952 21.6881 7.38145 21.8 7.51952 21.8C7.65759 21.8 7.76952 21.6881 7.76952 21.55V19.8278C8.07173 19.8316 8.40709 19.8316 8.78147 19.8316H11.7498V21.55C11.7498 21.6881 11.8617 21.8 11.9998 21.8C12.1378 21.8 12.2498 21.6881 12.2498 21.55V19.8316H15.2047C15.5818 19.8316 15.9195 19.8316 16.2235 19.8277V21.55C16.2235 21.6881 16.3354 21.8 16.4735 21.8C16.6116 21.8 16.7235 21.6881 16.7235 21.55V19.8161C16.8879 19.81 17.0409 19.8016 17.1839 19.7899C17.6996 19.7478 18.1066 19.6618 18.4686 19.4774C19.0801 19.1658 19.5773 18.6686 19.8889 18.0571C20.0733 17.6951 20.1593 17.2881 20.2014 16.7724C20.218 16.5698 20.228 16.347 20.234 16.1001H22C22.1381 16.1001 22.25 15.9881 22.25 15.8501C22.25 15.712 22.1381 15.6001 22 15.6001H20.2413C20.2431 15.353 20.2431 15.085 20.2431 14.7933V11.7H22C22.1381 11.7 22.25 11.5881 22.25 11.45C22.25 11.312 22.1381 11.2 22 11.2H20.2431V8.37008C20.2431 7.9716 20.2431 7.6172 20.2385 7.30005H22C22.1381 7.30005 22.25 7.18812 22.25 7.05005C22.25 6.91198 22.1381 6.80005 22 6.80005H20.2256C20.2197 6.65493 20.2119 6.51887 20.2014 6.39087C20.1593 5.87515 20.0733 5.46813 19.8889 5.10615C19.5773 4.49462 19.0801 3.99744 18.4686 3.68585C18.1066 3.50141 17.6996 3.41546 17.1839 3.37332C17.0409 3.36164 16.8879 3.35323 16.7235 3.34718V1.55005C16.7235 1.41198 16.6116 1.30005 16.4735 1.30005C16.3354 1.30005 16.2235 1.41198 16.2235 1.55005V3.33553C15.9195 3.33162 15.5819 3.33162 15.2046 3.33162H12.2498V1.55005C12.2498 1.41198 12.1378 1.30005 11.9998 1.30005C11.8617 1.30005 11.7498 1.41198 11.7498 1.55005V3.33162H8.78159C8.40717 3.33162 8.07176 3.33162 7.76952 3.33544V1.55005ZM6.84308 3.87166C6.35829 3.91127 6.02439 3.98881 5.74464 4.13135C5.2272 4.395 4.8065 4.8157 4.54285 5.33315C4.40031 5.6129 4.32277 5.94679 4.28316 6.43158C4.24331 6.9193 4.24312 7.53742 4.24312 8.38162V14.7816C4.24312 15.6258 4.24331 16.2439 4.28316 16.7317C4.32277 17.2165 4.40031 17.5503 4.54285 17.8301C4.8065 18.3475 5.2272 18.7682 5.74464 19.0319C6.02439 19.1744 6.35829 19.252 6.84308 19.2916C7.3308 19.3314 7.94891 19.3316 8.79312 19.3316H15.1931C16.0373 19.3316 16.6554 19.3314 17.1432 19.2916C17.628 19.252 17.9618 19.1744 18.2416 19.0319C18.759 18.7682 19.1797 18.3475 19.4434 17.8301C19.5859 17.5503 19.6635 17.2165 19.7031 16.7317C19.7429 16.2439 19.7431 15.6258 19.7431 14.7816V8.38162C19.7431 7.53742 19.7429 6.9193 19.7031 6.43158C19.6635 5.94679 19.5859 5.6129 19.4434 5.33315C19.1797 4.8157 18.759 4.395 18.2416 4.13135C17.9618 3.98881 17.628 3.91127 17.1432 3.87166C16.6554 3.83181 16.0373 3.83162 15.1931 3.83162H8.79312C7.94891 3.83162 7.3308 3.83181 6.84308 3.87166Z" fill="black"/>
</svg>
