<svg width="24" height="24" viewBox="0 0 24 24" fill="none" xmlns="http://www.w3.org/2000/svg">
<path fill-rule="evenodd" clip-rule="evenodd" d="M9.00661 9.75005C9.00661 9.05969 9.56625 8.50005 10.2566 8.50005H13.7293C14.4197 8.50005 14.9793 9.05969 14.9793 9.75005V13.15C14.9793 13.8404 14.4197 14.4 13.7293 14.4H10.2566C9.56625 14.4 9.00661 13.8404 9.00661 13.15V9.75005ZM10.5066 10V12.9H13.4793V10H10.5066Z" fill="black"/>
<path fill-rule="evenodd" clip-rule="evenodd" d="M8.26952 1.55005C8.26952 1.13584 7.93373 0.800049 7.51952 0.800049C7.1053 0.800049 6.76952 1.13584 6.76952 1.55005V2.87434C6.76689 2.87456 6.76427 2.87477 6.76165 2.87498C6.21501 2.91964 5.73487 3.014 5.29065 3.24034C4.58505 3.59987 4.01137 4.17355 3.65184 4.87915C3.43244 5.30975 3.33706 5.7741 3.29073 6.30005H2C1.58578 6.30005 1.25 6.63583 1.25 7.05005C1.25 7.46426 1.58578 7.80005 2 7.80005H3.24368C3.24311 7.97474 3.24312 8.15775 3.24312 8.34951L3.24312 10.7H2C1.58578 10.7 1.25 11.0358 1.25 11.45C1.25 11.8643 1.58578 12.2 2 12.2H3.24312L3.24312 14.8137C3.24312 14.9114 3.24312 15.0068 3.24319 15.1001H2C1.58578 15.1001 1.25 15.4358 1.25 15.8501C1.25 16.2643 1.58578 16.6001 2 16.6001H3.27169C3.27596 16.6732 3.28085 16.7442 3.28648 16.8131C3.33114 17.3597 3.4255 17.8399 3.65184 18.2841C4.01137 18.9897 4.58505 19.5634 5.29065 19.9229C5.73487 20.1492 6.21501 20.2436 6.76165 20.2883C6.76427 20.2885 6.76689 20.2887 6.76952 20.2889V21.55C6.76952 21.9643 7.1053 22.3 7.51952 22.3C7.93373 22.3 8.26952 21.9643 8.26952 21.55V20.3312C8.42661 20.3316 8.59034 20.3316 8.76099 20.3316H11.2498V21.55C11.2498 21.9643 11.5856 22.3 11.9998 22.3C12.414 22.3 12.7498 21.9643 12.7498 21.55V20.3316H15.2252C15.3984 20.3316 15.5643 20.3316 15.7235 20.3312V21.55C15.7235 21.9643 16.0593 22.3 16.4735 22.3C16.8877 22.3 17.2235 21.9643 17.2235 21.55V20.2883L17.2246 20.2883C17.7712 20.2436 18.2514 20.1492 18.6956 19.9229C19.4012 19.5634 19.9749 18.9897 20.3344 18.2841C20.5607 17.8399 20.6551 17.3597 20.6998 16.8131C20.7054 16.7442 20.7103 16.6732 20.7145 16.6001H22C22.4142 16.6001 22.75 16.2643 22.75 15.8501C22.75 15.4358 22.4142 15.1001 22 15.1001H20.743C20.7431 15.0068 20.7431 14.9114 20.7431 14.8137V12.2H22C22.4142 12.2 22.75 11.8643 22.75 11.45C22.75 11.0358 22.4142 10.7 22 10.7H20.7431V8.3495C20.7431 8.15774 20.7431 7.97473 20.7426 7.80005H22C22.4142 7.80005 22.75 7.46426 22.75 7.05005C22.75 6.63584 22.4142 6.30005 22 6.30005H20.6955C20.6492 5.7741 20.5538 5.30975 20.3344 4.87915C19.9749 4.17355 19.4012 3.59987 18.6956 3.24034C18.2514 3.014 17.7712 2.91964 17.2246 2.87498L17.2235 2.87489V1.55005C17.2235 1.13584 16.8877 0.800049 16.4735 0.800049C16.0593 0.800049 15.7235 1.13584 15.7235 1.55005V2.83203C15.5643 2.83162 15.3983 2.83162 15.2252 2.83162L12.7498 2.83162V1.55005C12.7498 1.13584 12.414 0.800049 11.9998 0.800049C11.5856 0.800049 11.2498 1.13584 11.2498 1.55005V2.83162L8.76101 2.83162C8.59035 2.83162 8.42662 2.83162 8.26952 2.83202V1.55005ZM6.8838 4.37C6.42992 4.40708 6.16916 4.47621 5.97164 4.57685C5.54827 4.79257 5.20407 5.13678 4.98835 5.56014C4.88771 5.75766 4.81858 6.01842 4.7815 6.4723C4.7437 6.93493 4.74312 7.52916 4.74312 8.38162V14.7816C4.74312 15.6341 4.7437 16.2283 4.7815 16.6909C4.81858 17.1448 4.88771 17.4056 4.98835 17.6031C5.20407 18.0265 5.54827 18.3707 5.97164 18.5864C6.16916 18.687 6.42992 18.7562 6.8838 18.7932C7.34643 18.831 7.94066 18.8316 8.79312 18.8316H15.1931C16.0456 18.8316 16.6398 18.831 17.1024 18.7932C17.5563 18.7562 17.8171 18.687 18.0146 18.5864C18.438 18.3707 18.7822 18.0265 18.9979 17.6031C19.0985 17.4056 19.1677 17.1448 19.2047 16.6909C19.2425 16.2283 19.2431 15.6341 19.2431 14.7816V8.38162C19.2431 7.52916 19.2425 6.93493 19.2047 6.4723C19.1677 6.01842 19.0985 5.75766 18.9979 5.56014C18.7822 5.13678 18.438 4.79257 18.0146 4.57685C17.8171 4.47621 17.5563 4.40708 17.1024 4.37C16.6398 4.3322 16.0456 4.33162 15.1931 4.33162H8.79312C7.94066 4.33162 7.34643 4.3322 6.8838 4.37Z" fill="black"/>
</svg>
