<svg width="24" height="24" viewBox="0 0 24 24" fill="none" xmlns="http://www.w3.org/2000/svg">
<path d="M13.7298 9.75078H10.2571V13.1508H13.7298V9.75078Z" fill="black"/>
<path fill-rule="evenodd" clip-rule="evenodd" d="M8.01976 1.55078C8.01976 1.27464 7.7959 1.05078 7.51976 1.05078C7.24362 1.05078 7.01976 1.27464 7.01976 1.55078V3.35916C6.94488 3.36341 6.87257 3.36834 6.80266 3.37405C6.28694 3.41619 5.87992 3.50214 5.51794 3.68658C4.90641 3.99817 4.40923 4.49536 4.09764 5.10688C3.9132 5.46887 3.82725 5.87588 3.78511 6.3916C3.78089 6.44332 3.77709 6.49636 3.77367 6.55078H2.00024C1.7241 6.55078 1.50024 6.77464 1.50024 7.05078C1.50024 7.32692 1.7241 7.55078 2.00024 7.55078H3.74531C3.74341 7.80154 3.74341 8.07391 3.74341 8.37082V10.9508H2.00024C1.7241 10.9508 1.50024 11.1746 1.50024 11.4508C1.50024 11.7269 1.7241 11.9508 2.00024 11.9508H3.74341V14.7939C3.74341 14.9899 3.74341 15.1753 3.74396 15.3508H2.00024C1.7241 15.3508 1.50024 15.5746 1.50024 15.8508C1.50024 16.1269 1.7241 16.3508 2.00024 16.3508H3.76042C3.76635 16.5008 3.77434 16.6412 3.78511 16.7731C3.82725 17.2888 3.9132 17.6958 4.09764 18.0578C4.40923 18.6693 4.90641 19.1665 5.51794 19.4781C5.87992 19.6626 6.28694 19.7485 6.80266 19.7906C6.87257 19.7964 6.94488 19.8013 7.01976 19.8055V21.5508C7.01976 21.8269 7.24362 22.0508 7.51976 22.0508C7.7959 22.0508 8.01976 21.8269 8.01976 21.5508V19.8309C8.25437 19.8324 8.50761 19.8324 8.78176 19.8324H11.5V21.5508C11.5 21.8269 11.7239 22.0508 12 22.0508C12.2761 22.0508 12.5 21.8269 12.5 21.5508V19.8324H15.2049C15.4817 19.8324 15.7373 19.8324 15.9737 19.8308V21.5508C15.9737 21.8269 16.1976 22.0508 16.4737 22.0508C16.7499 22.0508 16.9737 21.8269 16.9737 21.5508V19.8052C17.0462 19.801 17.1163 19.7962 17.1842 19.7906C17.6999 19.7485 18.1069 19.6626 18.4689 19.4781C19.0804 19.1665 19.5776 18.6693 19.8892 18.0578C20.0736 17.6958 20.1596 17.2888 20.2017 16.7731C20.2125 16.6412 20.2205 16.5008 20.2264 16.3508H22.0002C22.2764 16.3508 22.5002 16.1269 22.5002 15.8508C22.5002 15.5746 22.2764 15.3508 22.0002 15.3508H20.2429C20.2434 15.1753 20.2434 14.99 20.2434 14.794V11.9508H22.0002C22.2764 11.9508 22.5002 11.7269 22.5002 11.4508C22.5002 11.1746 22.2764 10.9508 22.0002 10.9508H20.2434V8.37081C20.2434 8.07395 20.2434 7.80151 20.2415 7.55078H22.0002C22.2764 7.55078 22.5002 7.32692 22.5002 7.05078C22.5002 6.77464 22.2764 6.55078 22.0002 6.55078H20.2131C20.2097 6.49636 20.2059 6.44332 20.2017 6.3916C20.1596 5.87588 20.0736 5.46887 19.8892 5.10688C19.5776 4.49536 19.0804 3.99817 18.4689 3.68658C18.1069 3.50214 17.6999 3.41619 17.1842 3.37405C17.1163 3.36851 17.0462 3.36371 16.9737 3.35954V1.55078C16.9737 1.27464 16.7499 1.05078 16.4737 1.05078C16.1976 1.05078 15.9737 1.27464 15.9737 1.55078V3.3339C15.7372 3.33235 15.4817 3.33235 15.2049 3.33235H12.5V1.55078C12.5 1.27464 12.2761 1.05078 12 1.05078C11.7239 1.05078 11.5 1.27464 11.5 1.55078V3.33235H8.78188C8.50768 3.33235 8.25441 3.33235 8.01976 3.33385V1.55078ZM9.25708 9.75078C9.25708 9.19849 9.70479 8.75078 10.2571 8.75078H13.7298C14.2821 8.75078 14.7298 9.19849 14.7298 9.75078V13.1508C14.7298 13.7031 14.2821 14.1508 13.7298 14.1508H10.2571C9.7048 14.1508 9.25708 13.7031 9.25708 13.1508V9.75078Z" fill="black"/>
</svg>
