<svg width="24" height="24" viewBox="0 0 24 24" fill="none" xmlns="http://www.w3.org/2000/svg">
<path d="M10.5068 10V12.9H13.4795V10H10.5068Z" fill="black"/>
<path fill-rule="evenodd" clip-rule="evenodd" d="M8.26952 1.55005C8.26952 1.13584 7.93373 0.800049 7.51952 0.800049C7.1053 0.800049 6.76952 1.13584 6.76952 1.55005V3.37608C6.26933 3.41917 5.87195 3.50535 5.51769 3.68585C4.90617 3.99744 4.40898 4.49462 4.09739 5.10615C3.92391 5.44662 3.83757 5.82693 3.79286 6.30005H2C1.58578 6.30005 1.25 6.63583 1.25 7.05005C1.25 7.46426 1.58578 7.80005 2 7.80005H3.74376C3.74316 7.97943 3.74316 8.16914 3.74316 8.37009V10.7H2C1.58578 10.7 1.25 11.0358 1.25 11.45C1.25 11.8643 1.58578 12.2 2 12.2H3.74316V14.7931C3.74316 14.8985 3.74316 15.0008 3.74325 15.1001H2C1.58578 15.1001 1.25 15.4358 1.25 15.8501C1.25 16.2643 1.58578 16.6001 2 16.6001H3.77262C3.77624 16.6591 3.7803 16.7165 3.78487 16.7724C3.827 17.2881 3.91295 17.6951 4.09739 18.0571C4.40898 18.6686 4.90617 19.1658 5.51769 19.4774C5.87195 19.6579 6.26933 19.7441 6.76952 19.7872V21.55C6.76952 21.9643 7.1053 22.3 7.51952 22.3C7.93373 22.3 8.26952 21.9643 8.26952 21.55V19.8312C8.43165 19.8316 8.6021 19.8316 8.78151 19.8316H11.2498V21.55C11.2498 21.9643 11.5856 22.3 11.9998 22.3C12.414 22.3 12.7498 21.9643 12.7498 21.55V19.8316H15.2047C15.3866 19.8316 15.5594 19.8316 15.7235 19.8312V21.55C15.7235 21.9643 16.0593 22.3 16.4735 22.3C16.8877 22.3 17.2235 21.9643 17.2235 21.55V19.7866C17.7205 19.7433 18.116 19.6571 18.4686 19.4774C19.0802 19.1658 19.5773 18.6686 19.8889 18.0571C20.0734 17.6951 20.1593 17.2881 20.2015 16.7724C20.206 16.7165 20.2101 16.6591 20.2137 16.6001H22C22.4142 16.6001 22.75 16.2643 22.75 15.8501C22.75 15.4358 22.4142 15.1001 22 15.1001H20.2431C20.2432 15.0008 20.2432 14.8986 20.2432 14.7933V12.2H22C22.4142 12.2 22.75 11.8643 22.75 11.45C22.75 11.0358 22.4142 10.7 22 10.7H20.2432V8.37008C20.2432 8.16918 20.2432 7.97939 20.2426 7.80005H22C22.4142 7.80005 22.75 7.46426 22.75 7.05005C22.75 6.63584 22.4142 6.30005 22 6.30005H20.1935C20.1488 5.82693 20.0624 5.44662 19.8889 5.10615C19.5773 4.49462 19.0802 3.99744 18.4686 3.68585C18.116 3.50615 17.7205 3.41994 17.2235 3.37666V1.55005C17.2235 1.13584 16.8877 0.800049 16.4735 0.800049C16.0593 0.800049 15.7235 1.13584 15.7235 1.55005V3.33206C15.5593 3.33162 15.3866 3.33162 15.2047 3.33162H12.7498V1.55005C12.7498 1.13584 12.414 0.800049 11.9998 0.800049C11.5856 0.800049 11.2498 1.13584 11.2498 1.55005V3.33162H8.78163C8.60218 3.33162 8.43169 3.33162 8.26952 3.33204V1.55005ZM9.00684 9.75005C9.00684 9.05969 9.56648 8.50005 10.2568 8.50005H13.7295C14.4199 8.50005 14.9795 9.05969 14.9795 9.75005V13.15C14.9795 13.8404 14.4199 14.4 13.7295 14.4H10.2568C9.56648 14.4 9.00684 13.8404 9.00684 13.15V9.75005Z" fill="black"/>
</svg>
