<svg width="24" height="24" viewBox="0 0 24 24" fill="none" xmlns="http://www.w3.org/2000/svg">
<path d="M10.2563 9.75005H13.729V13.15H10.2563V9.75005Z" fill="black"/>
<path fill-rule="evenodd" clip-rule="evenodd" d="M8.01947 1.55005C8.01947 1.27391 7.79561 1.05005 7.51947 1.05005C7.24333 1.05005 7.01947 1.27391 7.01947 1.55005V4.36375C5.86131 4.48498 4.93849 5.39693 4.80059 6.55005L1.375 6.55005C1.09886 6.55005 0.875 6.77391 0.875 7.05005C0.875 7.32619 1.09886 7.55005 1.375 7.55005L4.78277 7.55005V10.95H1.375C1.09886 10.95 0.875 11.1739 0.875 11.45C0.875 11.7262 1.09886 11.95 1.375 11.95H4.78277V15.3501H1.375C1.09886 15.3501 0.875 15.5739 0.875 15.8501C0.875 16.1262 1.09886 16.3501 1.375 16.3501H4.80059C4.93849 17.5032 5.86131 18.4151 7.01947 18.5364V22.45C7.01947 22.7262 7.24333 22.95 7.51947 22.95C7.79561 22.95 8.01947 22.7262 8.01947 22.45V18.5501H11.4997V22.45C11.4997 22.7262 11.7236 22.95 11.9997 22.95C12.2759 22.95 12.4997 22.7262 12.4997 22.45V18.5501H15.9734V22.45C15.9734 22.7262 16.1973 22.95 16.4734 22.95C16.7496 22.95 16.9734 22.7262 16.9734 22.45V18.5356C18.1285 18.4116 19.048 17.501 19.1857 16.3501H22.6245C22.9006 16.3501 23.1245 16.1262 23.1245 15.8501C23.1245 15.5739 22.9006 15.3501 22.6245 15.3501H19.2035V11.95H22.6245C22.9006 11.95 23.1245 11.7262 23.1245 11.45C23.1245 11.1739 22.9006 10.95 22.6245 10.95H19.2035V7.55005L22.6245 7.55005C22.9006 7.55005 23.1245 7.32619 23.1245 7.05005C23.1245 6.77391 22.9006 6.55005 22.6245 6.55005L19.1857 6.55005C19.048 5.39915 18.1285 4.48847 16.9734 4.36446V1.55005C16.9734 1.27391 16.7496 1.05005 16.4734 1.05005C16.1973 1.05005 15.9734 1.27391 15.9734 1.55005V4.35005H12.4997V1.55005C12.4997 1.27391 12.2759 1.05005 11.9997 1.05005C11.7236 1.05005 11.4997 1.27391 11.4997 1.55005V4.35005H8.01947V1.55005ZM10.2563 8.75005C9.70406 8.75005 9.25635 9.19776 9.25635 9.75005V13.15C9.25635 13.7023 9.70406 14.15 10.2563 14.15H13.729C14.2813 14.15 14.729 13.7023 14.729 13.15V9.75005C14.729 9.19776 14.2813 8.75005 13.729 8.75005H10.2563Z" fill="black"/>
</svg>
