<svg width="24" height="24" viewBox="0 0 24 24" fill="none" xmlns="http://www.w3.org/2000/svg">
<path fill-rule="evenodd" clip-rule="evenodd" d="M9.50685 9.75078C9.50685 9.33657 9.84264 9.00078 10.2569 9.00078H13.7296C14.1438 9.00078 14.4796 9.33657 14.4796 9.75078V13.1508C14.4796 13.565 14.1438 13.9008 13.7296 13.9008H10.2569C9.84264 13.9008 9.50685 13.565 9.50685 13.1508V9.75078ZM10.2569 9.50078C10.1188 9.50078 10.0069 9.61271 10.0069 9.75078V13.1508C10.0069 13.2888 10.1188 13.4008 10.2569 13.4008H13.7296C13.8676 13.4008 13.9796 13.2888 13.9796 13.1508V9.75078C13.9796 9.61271 13.8676 9.50078 13.7296 9.50078H10.2569Z" fill="black"/>
<path fill-rule="evenodd" clip-rule="evenodd" d="M7.76976 1.55078C7.76976 1.41271 7.65783 1.30078 7.51976 1.30078C7.38169 1.30078 7.26976 1.41271 7.26976 1.55078V3.34766C7.10275 3.35374 6.94752 3.36221 6.80261 3.37405C6.28689 3.41619 5.87988 3.50214 5.51789 3.68658C4.90637 3.99817 4.40918 4.49536 4.09759 5.10688C3.91315 5.46887 3.8272 5.87588 3.78507 6.3916C3.77461 6.51961 3.76677 6.65566 3.7609 6.80078H2.00024C1.86217 6.80078 1.75024 6.91271 1.75024 7.05078C1.75024 7.18885 1.86217 7.30078 2.00024 7.30078H3.74797C3.74336 7.61797 3.74336 7.97229 3.74336 8.37082V11.2008H2.00024C1.86217 11.2008 1.75024 11.3127 1.75024 11.4508C1.75024 11.5888 1.86217 11.7008 2.00024 11.7008H3.74336V14.7939C3.74336 15.0856 3.74336 15.3537 3.74517 15.6008H2.00024C1.86217 15.6008 1.75024 15.7127 1.75024 15.8508C1.75024 15.9889 1.86217 16.1008 2.00024 16.1008H3.75251C3.75853 16.3477 3.76851 16.5705 3.78507 16.7731C3.8272 17.2888 3.91315 17.6958 4.09759 18.0578C4.40918 18.6693 4.90637 19.1665 5.51789 19.4781C5.87988 19.6626 6.28689 19.7485 6.80261 19.7906C6.94752 19.8025 7.10275 19.811 7.26976 19.817V21.5508C7.26976 21.6889 7.38169 21.8008 7.51976 21.8008C7.65783 21.8008 7.76976 21.6889 7.76976 21.5508V19.8285C8.07197 19.8324 8.40734 19.8324 8.78171 19.8324H11.75V21.5508C11.75 21.6889 11.8619 21.8008 12 21.8008C12.1381 21.8008 12.25 21.6889 12.25 21.5508V19.8324H15.2049C15.5821 19.8324 15.9198 19.8324 16.2237 19.8284V21.5508C16.2237 21.6889 16.3357 21.8008 16.4737 21.8008C16.6118 21.8008 16.7237 21.6889 16.7237 21.5508V19.8168C16.8882 19.8107 17.0412 19.8023 17.1841 19.7906C17.6998 19.7485 18.1068 19.6626 18.4688 19.4781C19.0804 19.1665 19.5775 18.6693 19.8891 18.0578C20.0736 17.6958 20.1595 17.2888 20.2017 16.7731C20.2182 16.5705 20.2282 16.3477 20.2342 16.1008H22.0002C22.1383 16.1008 22.2502 15.9889 22.2502 15.8508C22.2502 15.7127 22.1383 15.6008 22.0002 15.6008H20.2416C20.2434 15.3537 20.2434 15.0857 20.2434 14.794V11.7008H22.0002C22.1383 11.7008 22.2502 11.5888 22.2502 11.4508C22.2502 11.3127 22.1383 11.2008 22.0002 11.2008H20.2434V8.37081C20.2434 7.97234 20.2434 7.61793 20.2388 7.30078H22.0002C22.1383 7.30078 22.2502 7.18885 22.2502 7.05078C22.2502 6.91271 22.1383 6.80078 22.0002 6.80078H20.2258C20.22 6.65566 20.2121 6.51961 20.2017 6.3916C20.1595 5.87588 20.0736 5.46887 19.8891 5.10688C19.5775 4.49536 19.0804 3.99817 18.4688 3.68658C18.1068 3.50214 17.6998 3.41619 17.1841 3.37405C17.0412 3.36237 16.8882 3.35397 16.7237 3.34791V1.55078C16.7237 1.41271 16.6118 1.30078 16.4737 1.30078C16.3357 1.30078 16.2237 1.41271 16.2237 1.55078V3.33626C15.9197 3.33235 15.5821 3.33235 15.2049 3.33235H12.25V1.55078C12.25 1.41271 12.1381 1.30078 12 1.30078C11.8619 1.30078 11.75 1.41271 11.75 1.55078V3.33235H8.78183C8.40741 3.33235 8.07201 3.33235 7.76976 3.33617V1.55078ZM6.84333 3.87239C6.35853 3.912 6.02464 3.98954 5.74489 4.13208C5.22744 4.39574 4.80675 4.81643 4.54309 5.33388C4.40055 5.61363 4.32301 5.94752 4.2834 6.43231C4.24356 6.92003 4.24336 7.53815 4.24336 8.38235V14.7824C4.24336 15.6266 4.24356 16.2447 4.2834 16.7324C4.32301 17.2172 4.40055 17.5511 4.54309 17.8308C4.80675 18.3483 5.22744 18.769 5.74489 19.0326C6.02464 19.1752 6.35853 19.2527 6.84333 19.2923C7.33104 19.3322 7.94916 19.3324 8.79336 19.3324H15.1934C16.0376 19.3324 16.6557 19.3322 17.1434 19.2923C17.6282 19.2527 17.9621 19.1752 18.2418 19.0326C18.7593 18.769 19.18 18.3483 19.4436 17.8308C19.5862 17.5511 19.6637 17.2172 19.7033 16.7324C19.7432 16.2447 19.7434 15.6266 19.7434 14.7824V8.38235C19.7434 7.53815 19.7432 6.92003 19.7033 6.43231C19.6637 5.94752 19.5862 5.61363 19.4436 5.33388C19.18 4.81643 18.7593 4.39574 18.2418 4.13208C17.9621 3.98954 17.6282 3.912 17.1434 3.87239C16.6557 3.83255 16.0376 3.83235 15.1934 3.83235H8.79336C7.94916 3.83235 7.33104 3.83255 6.84333 3.87239Z" fill="black"/>
</svg>
