<svg width="24" height="24" viewBox="0 0 24 24" fill="none" xmlns="http://www.w3.org/2000/svg">
<path d="M10.7568 10.25V12.65H13.2295V10.25H10.7568Z" fill="black"/>
<path fill-rule="evenodd" clip-rule="evenodd" d="M8.51952 1.55005C8.51952 0.997764 8.0718 0.550049 7.51952 0.550049C6.96723 0.550049 6.51952 0.997764 6.51952 1.55005V3.40249C6.1335 3.45171 5.81083 3.53649 5.51769 3.68585C4.90617 3.99744 4.40898 4.49462 4.09739 5.10615C3.95556 5.38451 3.87197 5.68949 3.82176 6.05005H2C1.44771 6.05005 1 6.49776 1 7.05005C1 7.60233 1.44771 8.05005 2 8.05005H3.74326C3.74316 8.15346 3.74316 8.26009 3.74316 8.37009V10.45H2C1.44771 10.45 1 10.8978 1 11.45C1 12.0023 1.44771 12.45 2 12.45H3.74316V14.7931C3.74316 14.8122 3.74316 14.8312 3.74316 14.8501H2C1.44771 14.8501 1 15.2978 1 15.8501C1 16.4023 1.44771 16.8501 2 16.8501H3.79163C3.83598 17.3293 3.92231 17.7135 4.09739 18.0571C4.40898 18.6686 4.90617 19.1658 5.51769 19.4774C5.81083 19.6268 6.1335 19.7115 6.51952 19.7607V21.55C6.51952 22.1023 6.96723 22.55 7.51952 22.55C8.0718 22.55 8.51952 22.1023 8.51952 21.55V19.8316C8.60467 19.8316 8.69198 19.8316 8.78151 19.8316H10.9998V21.55C10.9998 22.1023 11.4475 22.55 11.9998 22.55C12.552 22.55 12.9998 22.1023 12.9998 21.55V19.8316H15.2047C15.2966 19.8316 15.3862 19.8316 15.4735 19.8316V21.55C15.4735 22.1023 15.9212 22.55 16.4735 22.55C17.0258 22.55 17.4735 22.1023 17.4735 21.55V19.7599C17.8566 19.7105 18.1772 19.6259 18.4686 19.4774C19.0802 19.1658 19.5773 18.6686 19.8889 18.0571C20.064 17.7135 20.1503 17.3293 20.1947 16.8501H22C22.5523 16.8501 23 16.4023 23 15.8501C23 15.2978 22.5523 14.8501 22 14.8501H20.2432C20.2432 14.8312 20.2432 14.8123 20.2432 14.7933V12.45H22C22.5523 12.45 23 12.0023 23 11.45C23 10.8978 22.5523 10.45 22 10.45H20.2432V8.37008C20.2432 8.26013 20.2432 8.15342 20.2431 8.05005H22C22.5523 8.05005 23 7.60233 23 7.05005C23 6.49776 22.5523 6.05005 22 6.05005H20.1646C20.1144 5.68949 20.0308 5.38451 19.8889 5.10615C19.5773 4.49462 19.0802 3.99744 18.4686 3.68585C18.1772 3.53735 17.8566 3.4527 17.4735 3.40335V1.55005C17.4735 0.997764 17.0258 0.550049 16.4735 0.550049C15.9212 0.550049 15.4735 0.997764 15.4735 1.55005V3.33168C15.3862 3.33162 15.2966 3.33162 15.2047 3.33162H12.9998V1.55005C12.9998 0.997764 12.552 0.550049 11.9998 0.550049C11.4475 0.550049 10.9998 0.997764 10.9998 1.55005V3.33162H8.78163C8.69205 3.33162 8.60471 3.33162 8.51952 3.33167V1.55005ZM8.75684 9.75005C8.75684 8.92162 9.42841 8.25005 10.2568 8.25005H13.7295C14.558 8.25005 15.2295 8.92162 15.2295 9.75005V13.15C15.2295 13.9785 14.558 14.65 13.7295 14.65H10.2568C9.42841 14.65 8.75684 13.9785 8.75684 13.15V9.75005Z" fill="black"/>
</svg>
