<svg width="24" height="24" viewBox="0 0 24 24" fill="none" xmlns="http://www.w3.org/2000/svg">
<path d="M10.7571 10.2508V12.6508H13.2298V10.2508H10.7571Z" fill="black"/>
<path fill-rule="evenodd" clip-rule="evenodd" d="M8.51976 1.55078C8.51976 0.998496 8.07205 0.550781 7.51976 0.550781C6.96748 0.550781 6.51976 0.998496 6.51976 1.55078V3.40323C6.13375 3.45245 5.81108 3.53722 5.51794 3.68658C4.90641 3.99817 4.40923 4.49536 4.09764 5.10688C3.95581 5.38524 3.87222 5.69022 3.82201 6.05078H2.00024C1.44796 6.05078 1.00024 6.4985 1.00024 7.05078C1.00024 7.60307 1.44796 8.05078 2.00024 8.05078H3.74351C3.74341 8.15419 3.74341 8.26082 3.74341 8.37082V10.4508H2.00024C1.44796 10.4508 1.00024 10.8985 1.00024 11.4508C1.00024 12.0031 1.44796 12.4508 2.00024 12.4508H3.74341V14.7939C3.74341 14.813 3.74341 14.8319 3.74341 14.8508H2.00024C1.44796 14.8508 1.00024 15.2985 1.00024 15.8508C1.00024 16.4031 1.44796 16.8508 2.00024 16.8508H3.79187C3.83622 17.33 3.92256 17.7142 4.09764 18.0578C4.40923 18.6693 4.90641 19.1665 5.51794 19.4781C5.81108 19.6275 6.13375 19.7123 6.51976 19.7615V21.5508C6.51976 22.1031 6.96748 22.5508 7.51976 22.5508C8.07205 22.5508 8.51976 22.1031 8.51976 21.5508V19.8323C8.60491 19.8324 8.69222 19.8324 8.78176 19.8324H11V21.5508C11 22.1031 11.4477 22.5508 12 22.5508C12.5523 22.5508 13 22.1031 13 21.5508V19.8324H15.2049C15.2968 19.8324 15.3865 19.8324 15.4737 19.8323V21.5508C15.4737 22.1031 15.9215 22.5508 16.4737 22.5508C17.026 22.5508 17.4737 22.1031 17.4737 21.5508V19.7606C17.8568 19.7113 18.1774 19.6266 18.4689 19.4781C19.0804 19.1665 19.5776 18.6693 19.8892 18.0578C20.0643 17.7142 20.1506 17.33 20.1949 16.8508H22.0002C22.5525 16.8508 23.0002 16.4031 23.0002 15.8508C23.0002 15.2985 22.5525 14.8508 22.0002 14.8508H20.2434C20.2434 14.832 20.2434 14.813 20.2434 14.794V12.4508H22.0002C22.5525 12.4508 23.0002 12.0031 23.0002 11.4508C23.0002 10.8985 22.5525 10.4508 22.0002 10.4508H20.2434V8.37081C20.2434 8.26086 20.2434 8.15415 20.2433 8.05078H22.0002C22.5525 8.05078 23.0002 7.60307 23.0002 7.05078C23.0002 6.4985 22.5525 6.05078 22.0002 6.05078H20.1648C20.1146 5.69022 20.031 5.38524 19.8892 5.10688C19.5776 4.49536 19.0804 3.99817 18.4689 3.68658C18.1774 3.53808 17.8568 3.45343 17.4737 3.40408V1.55078C17.4737 0.998496 17.026 0.550781 16.4737 0.550781C15.9215 0.550781 15.4737 0.998496 15.4737 1.55078V3.33241C15.3864 3.33235 15.2969 3.33235 15.2049 3.33235H13V1.55078C13 0.998496 12.5523 0.550781 12 0.550781C11.4477 0.550781 11 0.998496 11 1.55078V3.33235H8.78188C8.6923 3.33235 8.60495 3.33235 8.51976 3.3324V1.55078ZM8.75708 9.75078C8.75708 8.92235 9.42865 8.25078 10.2571 8.25078H13.7298C14.5582 8.25078 15.2298 8.92235 15.2298 9.75078V13.1508C15.2298 13.9792 14.5582 14.6508 13.7298 14.6508H10.2571C9.42865 14.6508 8.75708 13.9792 8.75708 13.1508V9.75078Z" fill="black"/>
</svg>
