<svg width="24" height="24" viewBox="0 0 24 24" fill="none" xmlns="http://www.w3.org/2000/svg">
<path fill-rule="evenodd" clip-rule="evenodd" d="M9.00685 9.75078C9.00685 9.06042 9.56649 8.50078 10.2569 8.50078H13.7296C14.4199 8.50078 14.9796 9.06042 14.9796 9.75078V13.1508C14.9796 13.8411 14.4199 14.4008 13.7296 14.4008H10.2569C9.5665 14.4008 9.00685 13.8411 9.00685 13.1508V9.75078ZM10.5069 10.0008V12.9008H13.4796V10.0008H10.5069Z" fill="black"/>
<path fill-rule="evenodd" clip-rule="evenodd" d="M8.26976 1.55078C8.26976 1.13657 7.93397 0.800781 7.51976 0.800781C7.10555 0.800781 6.76976 1.13657 6.76976 1.55078V2.87508C6.76714 2.87529 6.76451 2.8755 6.76189 2.87571C6.21526 2.92038 5.73512 3.01474 5.2909 3.24108C4.58529 3.6006 4.01161 4.17428 3.65209 4.87989C3.43269 5.31048 3.3373 5.77483 3.29098 6.30078H2.00024C1.58603 6.30078 1.25024 6.63657 1.25024 7.05078C1.25024 7.46499 1.58603 7.80078 2.00024 7.80078H3.24393C3.24336 7.97547 3.24336 8.15848 3.24336 8.35025L3.24336 10.7008H2.00024C1.58603 10.7008 1.25024 11.0366 1.25024 11.4508C1.25024 11.865 1.58603 12.2008 2.00024 12.2008H3.24336L3.24336 14.8145C3.24336 14.9122 3.24336 15.0076 3.24343 15.1008H2.00024C1.58603 15.1008 1.25024 15.4366 1.25024 15.8508C1.25024 16.265 1.58603 16.6008 2.00024 16.6008H3.27194C3.2762 16.6739 3.2811 16.7449 3.28673 16.8138C3.33139 17.3605 3.42575 17.8406 3.65209 18.2848C4.01161 18.9904 4.58529 19.5641 5.2909 19.9236C5.73512 20.15 6.21526 20.2443 6.76189 20.289C6.76451 20.2892 6.76714 20.2894 6.76976 20.2896V21.5508C6.76976 21.965 7.10555 22.3008 7.51976 22.3008C7.93397 22.3008 8.26976 21.965 8.26976 21.5508V20.332C8.42686 20.3324 8.59058 20.3324 8.76124 20.3324H11.25V21.5508C11.25 21.965 11.5858 22.3008 12 22.3008C12.4142 22.3008 12.75 21.965 12.75 21.5508V20.3324H15.2255C15.3986 20.3324 15.5646 20.3324 15.7237 20.3319V21.5508C15.7237 21.965 16.0595 22.3008 16.4737 22.3008C16.888 22.3008 17.2237 21.965 17.2237 21.5508V20.2891L17.2248 20.289C17.7715 20.2443 18.2516 20.15 18.6958 19.9236C19.4014 19.5641 19.9751 18.9904 20.3346 18.2848C20.561 17.8406 20.6553 17.3605 20.7 16.8138C20.7056 16.7449 20.7105 16.6739 20.7148 16.6008H22.0002C22.4145 16.6008 22.7502 16.265 22.7502 15.8508C22.7502 15.4366 22.4145 15.1008 22.0002 15.1008H20.7433C20.7434 15.0076 20.7434 14.9122 20.7434 14.8145V12.2008H22.0002C22.4145 12.2008 22.7502 11.865 22.7502 11.4508C22.7502 11.0366 22.4145 10.7008 22.0002 10.7008H20.7434V8.35023C20.7434 8.15847 20.7434 7.97546 20.7428 7.80078H22.0002C22.4145 7.80078 22.7502 7.46499 22.7502 7.05078C22.7502 6.63657 22.4145 6.30078 22.0002 6.30078H20.6957C20.6494 5.77483 20.554 5.31048 20.3346 4.87989C19.9751 4.17428 19.4014 3.6006 18.6958 3.24108C18.2516 3.01474 17.7715 2.92038 17.2248 2.87571L17.2237 2.87563V1.55078C17.2237 1.13657 16.888 0.800781 16.4737 0.800781C16.0595 0.800781 15.7237 1.13657 15.7237 1.55078V2.83277C15.5646 2.83235 15.3986 2.83235 15.2255 2.83235L12.75 2.83235V1.55078C12.75 1.13657 12.4142 0.800781 12 0.800781C11.5858 0.800781 11.25 1.13657 11.25 1.55078V2.83235L8.76126 2.83235C8.59059 2.83235 8.42686 2.83235 8.26976 2.83275V1.55078ZM6.88404 4.37073C6.43017 4.40782 6.1694 4.47695 5.97188 4.57759C5.54852 4.7933 5.20431 5.13751 4.9886 5.56087C4.88796 5.75839 4.81883 6.01916 4.78174 6.47303C4.74395 6.93566 4.74336 7.5299 4.74336 8.38235V14.7824C4.74336 15.6348 4.74395 16.229 4.78174 16.6917C4.81883 17.1455 4.88796 17.4063 4.9886 17.6038C5.20431 18.0272 5.54852 18.3714 5.97188 18.5871C6.1694 18.6878 6.43017 18.7569 6.88404 18.794C7.34667 18.8318 7.94091 18.8324 8.79336 18.8324H15.1934C16.0458 18.8324 16.6401 18.8318 17.1027 18.794C17.5566 18.7569 17.8173 18.6878 18.0148 18.5871C18.4382 18.3714 18.7824 18.0272 18.9981 17.6038C19.0988 17.4063 19.1679 17.1455 19.205 16.6917C19.2428 16.229 19.2434 15.6348 19.2434 14.7824V8.38235C19.2434 7.5299 19.2428 6.93566 19.205 6.47303C19.1679 6.01916 19.0988 5.75839 18.9981 5.56087C18.7824 5.13751 18.4382 4.7933 18.0148 4.57759C17.8173 4.47695 17.5566 4.40782 17.1027 4.37073C16.6401 4.33293 16.0458 4.33235 15.1934 4.33235H8.79336C7.94091 4.33235 7.34667 4.33293 6.88404 4.37073Z" fill="black"/>
</svg>
