<svg width="24" height="24" viewBox="0 0 24 24" fill="none" xmlns="http://www.w3.org/2000/svg">
<path d="M4.429 2C3.88711 2 3.45003 1.99999 3.09609 2.02891C2.73167 2.05868 2.41158 2.12159 2.11543 2.27248C1.64503 2.51217 1.26257 2.89462 1.02289 3.36502C0.871996 3.66117 0.80909 3.98126 0.779316 4.34569C0.750397 4.69963 0.750401 5.13671 0.750406 5.6786V7.17543C4.48774 6.93687 8.30537 8.24569 11.1616 11.1019C14.0318 13.9722 15.3394 17.8133 15.0844 21.5682H19.5718C20.1137 21.5682 20.5508 21.5682 20.9047 21.5393C21.2691 21.5095 21.5892 21.4466 21.8854 21.2957C22.3558 21.056 22.7382 20.6736 22.9779 20.2032C23.1288 19.907 23.1917 19.5869 23.2215 19.2225C23.2504 18.8686 23.2504 18.4315 23.2504 17.8896V5.67859C23.2504 5.1367 23.2504 4.69963 23.2215 4.34569C23.1917 3.98126 23.1288 3.66117 22.9779 3.36502C22.7382 2.89462 22.3558 2.51217 21.8854 2.27248C21.5892 2.12159 21.2691 2.05868 20.9047 2.02891C20.5508 1.99999 20.1137 2 19.5718 2H4.429Z" fill="black"/>
<path d="M6.03451 21.5029C6.3074 20.0859 5.89523 18.5631 4.79802 17.4659C3.69664 16.3645 2.1664 15.9534 0.744852 16.2325V15.2169C2.42655 14.9486 4.20887 15.4625 5.50513 16.7588C6.79724 18.0509 7.31205 19.826 7.04955 21.5029H6.03451Z" fill="black"/>
<path d="M10.5756 21.5029C10.8203 18.9237 9.95511 16.2589 7.98 14.2838C6.0008 12.3046 3.32911 11.4399 0.744852 11.6898V10.6856C3.58605 10.4386 6.51269 11.4023 8.68711 13.5767C10.8574 15.747 11.8216 18.6668 11.5796 21.5029L10.5756 21.5029Z" fill="black"/>
<path d="M2.3232 21.355C1.93267 21.7455 1.29951 21.7455 0.908983 21.355C0.518457 20.9644 0.518457 20.3313 0.908983 19.9407C1.29951 19.5502 1.93267 19.5502 2.3232 19.9407C2.71372 20.3313 2.71372 20.9644 2.3232 21.355Z" fill="black"/>
</svg>
