<svg width="24" height="24" viewBox="0 0 24 24" fill="none" xmlns="http://www.w3.org/2000/svg">
<path d="M4.41951 1.75H19.5804C20.1145 1.74999 20.5604 1.74998 20.9246 1.77974C21.3045 1.81078 21.6612 1.87789 21.9984 2.04973C22.5159 2.31339 22.9366 2.73408 23.2002 3.25153C23.3721 3.58879 23.4392 3.94545 23.4702 4.32533C23.5 4.68956 23.5 5.1354 23.4999 5.66955V17.8986C23.5 18.4328 23.5 18.8786 23.4702 19.2429C23.4392 19.6227 23.3721 19.9794 23.2002 20.3167C22.9366 20.8341 22.5159 21.2548 21.9984 21.5184C21.6612 21.6903 21.3045 21.7574 20.9246 21.7884C20.5604 21.8182 20.1145 21.8182 19.5804 21.8182H13.9999V20.3182H19.5499C20.1224 20.3182 20.5066 20.3176 20.8025 20.2934C21.0896 20.27 21.2269 20.2281 21.3174 20.1819C21.5526 20.0621 21.7439 19.8709 21.8637 19.6357C21.9098 19.5451 21.9517 19.4078 21.9752 19.1207C21.9994 18.8248 21.9999 18.4406 21.9999 17.8682V5.7C21.9999 5.12757 21.9994 4.74336 21.9752 4.44748C21.9517 4.16036 21.9098 4.02307 21.8637 3.93251C21.7439 3.69731 21.5526 3.50609 21.3174 3.38624C21.2269 3.3401 21.0896 3.29822 20.8025 3.27476C20.5066 3.25058 20.1224 3.25 19.5499 3.25H4.44994C3.87751 3.25 3.4933 3.25058 3.19742 3.27476C2.9103 3.29822 2.77302 3.3401 2.68246 3.38624C2.44725 3.50609 2.25603 3.69731 2.13619 3.93251C2.09004 4.02307 2.04816 4.16036 2.0247 4.44748C2.00053 4.74336 1.99994 5.12757 1.99994 5.7V8.50001H0.499944V5.66957C0.499932 5.13541 0.499925 4.68957 0.529683 4.32533C0.560721 3.94545 0.627831 3.58879 0.799676 3.25153C1.06333 2.73408 1.48403 2.31339 2.00147 2.04973C2.33873 1.87789 2.69539 1.81078 3.07527 1.77974C3.4395 1.74998 3.88536 1.74999 4.41951 1.75Z" fill="black"/>
<path d="M5.52778 21.7552C5.80406 20.4035 5.41794 18.9434 4.36941 17.8949C3.31671 16.8422 1.84917 16.4572 0.49302 16.7399V15.2161C2.2395 14.9498 4.08506 15.4892 5.43007 16.8342C6.77094 18.1751 7.31114 20.0135 7.05065 21.7552H5.52778Z" fill="black"/>
<path d="M10.0726 21.7552C10.3181 19.2402 9.4777 16.6391 7.55139 14.7128C5.62099 12.7824 3.01301 11.9426 0.493022 12.1932L0.49302 10.6869C3.39842 10.4405 6.38883 11.4289 8.61205 13.6522C10.8312 15.8713 11.8201 18.8548 11.5787 21.7552H10.0726Z" fill="black"/>
<path d="M2.24814 21.784C1.75999 22.2721 0.96853 22.2721 0.480374 21.784C-0.00778103 21.2958 -0.00778103 20.5044 0.480374 20.0162C0.96853 19.5281 1.75999 19.5281 2.24814 20.0162C2.7363 20.5044 2.7363 21.2958 2.24814 21.784Z" fill="black"/>
</svg>
