<svg width="24" height="24" viewBox="0 0 24 24" fill="none" xmlns="http://www.w3.org/2000/svg">
<path d="M4.43868 2.25H19.5613C20.1117 2.25 20.5403 2.25 20.8839 2.27808C21.2329 2.30659 21.5164 2.36529 21.7715 2.49524C22.1948 2.71095 22.539 3.05516 22.7548 3.47852C22.8847 3.73355 22.9434 4.01708 22.9719 4.36605C23 4.70974 23 5.1382 23 5.68868V17.8795C23 18.43 23 18.8584 22.9719 19.2021C22.9434 19.5511 22.8847 19.8346 22.7548 20.0897C22.539 20.513 22.1948 20.8572 21.7715 21.0729C21.5164 21.2029 21.2329 21.2616 20.8839 21.2901C20.5403 21.3182 20.1118 21.3182 19.5613 21.3182H14V20.8182H19.55C20.1142 20.8182 20.5223 20.818 20.8432 20.7918C21.1613 20.7658 21.3717 20.7155 21.5445 20.6274C21.8738 20.4597 22.1415 20.1919 22.3093 19.8627C22.3973 19.6899 22.4476 19.4795 22.4736 19.1614C22.4998 18.8405 22.5 18.4324 22.5 17.8682V5.7C22.5 5.13582 22.4998 4.72772 22.4736 4.40676C22.4476 4.08872 22.3973 3.87831 22.3093 3.70552C22.1415 3.37623 21.8738 3.10852 21.5445 2.94074C21.3717 2.8527 21.1613 2.8024 20.8432 2.77642C20.5223 2.75019 20.1142 2.75 19.55 2.75H4.44999C3.88581 2.75 3.47772 2.75019 3.15675 2.77642C2.83871 2.8024 2.6283 2.8527 2.45551 2.94074C2.12622 3.10852 1.85851 3.37623 1.69073 3.70552C1.60269 3.87831 1.55239 4.08872 1.52641 4.40676C1.50019 4.72772 1.49999 5.13582 1.49999 5.7V8.50001H0.999992V5.68869C0.99999 5.13821 0.99999 4.70974 1.02807 4.36605C1.05658 4.01708 1.11528 3.73355 1.24523 3.47852C1.46094 3.05516 1.80515 2.71095 2.22851 2.49524C2.48354 2.36529 2.76707 2.30659 3.11604 2.27808C3.45971 2.25 3.88826 2.25 4.43868 2.25Z" fill="black"/>
<path d="M0.995728 15.7257C2.48251 15.4497 4.0756 15.8868 5.22567 17.0368C6.37159 18.1828 6.80962 19.7685 6.53975 21.2507H7.04722C7.31193 19.6385 6.8226 17.9267 5.57922 16.6833C4.33171 15.4358 2.61256 14.9473 0.995728 15.218V15.7257Z" fill="black"/>
<path d="M11.0775 21.2507H11.5796C11.8222 18.4787 10.8827 15.6227 8.7612 13.5012C6.6356 11.3756 3.77271 10.4366 0.995728 10.6843V11.1864C3.64425 10.9373 6.37965 11.8268 8.40765 13.8548C10.4316 15.8787 11.3215 18.6071 11.0775 21.2507Z" fill="black"/>
<path d="M2.39729 20.9259C2.1044 21.2188 1.62953 21.2188 1.33663 20.9259C1.04374 20.633 1.04374 20.1582 1.33663 19.8653C1.62953 19.5724 2.1044 19.5724 2.39729 19.8653C2.69019 20.1582 2.69019 20.633 2.39729 20.9259Z" fill="black"/>
</svg>
