<svg width="24" height="24" viewBox="0 0 24 24" fill="none" xmlns="http://www.w3.org/2000/svg">
<path d="M4.41183 1.5H19.5889C20.116 1.49998 20.5708 1.49997 20.9454 1.53057C21.3407 1.56287 21.734 1.63419 22.1123 1.82698C22.6768 2.1146 23.1358 2.57355 23.4234 3.13803C23.6162 3.51641 23.6875 3.90963 23.7198 4.30498C23.7504 4.67954 23.7504 5.1343 23.7504 5.66144V17.9067C23.7504 18.4339 23.7504 18.8886 23.7198 19.2632C23.6875 19.6586 23.6162 20.0518 23.4234 20.4302C23.1358 20.9946 22.6768 21.4536 22.1123 21.7412C21.734 21.934 21.3407 22.0053 20.9454 22.0376C20.5708 22.0682 20.1161 22.0682 19.5889 22.0682H14.0004V20.0682H19.5504C20.1269 20.0682 20.4992 20.0674 20.7825 20.0443C21.0542 20.0221 21.1549 19.9844 21.2044 19.9592C21.3925 19.8633 21.5455 19.7103 21.6414 19.5222C21.6666 19.4727 21.7042 19.372 21.7264 19.1003C21.7496 18.817 21.7504 18.4447 21.7504 17.8682V5.7C21.7504 5.12345 21.7496 4.75118 21.7264 4.46784C21.7042 4.19618 21.6666 4.09546 21.6414 4.04601C21.5455 3.85785 21.3925 3.70487 21.2044 3.609C21.1549 3.5838 21.0542 3.54613 20.7825 3.52393C20.4992 3.50078 20.1269 3.5 19.5504 3.5H4.45037C3.87382 3.5 3.50155 3.50078 3.21821 3.52393C2.94655 3.54613 2.84583 3.5838 2.79638 3.609C2.60822 3.70487 2.45524 3.85785 2.35937 4.04601C2.33418 4.09546 2.2965 4.19618 2.2743 4.46784C2.25115 4.75118 2.25037 5.12345 2.25037 5.70001V8.50001H0.250374V5.66146C0.250355 5.13431 0.25034 4.67955 0.280943 4.30498C0.313244 3.90963 0.38456 3.51641 0.577354 3.13803C0.864975 2.57355 1.32392 2.1146 1.8884 1.82698C2.26678 1.63419 2.66 1.56287 3.05535 1.53057C3.4299 1.49997 3.88471 1.49998 4.41183 1.5Z" fill="black"/>
<path d="M0.242188 17.2378C1.53273 16.9512 2.93775 17.3098 3.9418 18.3139C4.94167 19.3138 5.30154 20.7113 5.02141 21.9974L7.05249 21.9974C7.31114 20.191 6.74565 18.2893 5.35601 16.8997C3.96225 15.5059 2.05337 14.9412 0.242188 15.2055V17.2378Z" fill="black"/>
<path d="M9.57051 21.9974L11.5787 21.9974C11.8195 19.0328 10.8059 15.9855 8.53799 13.7176C6.26597 11.4456 3.21178 10.4325 0.242188 10.6782V12.6867C2.69789 12.4352 5.24217 13.2502 7.12378 15.1318C9.0013 17.0093 9.81687 19.5467 9.57051 21.9974Z" fill="black"/>
<path d="M2.92801 21.4563C2.34222 22.042 1.39247 22.042 0.806686 21.4563C0.2209 20.8705 0.2209 19.9207 0.806686 19.3349C1.39247 18.7491 2.34222 18.7491 2.92801 19.3349C3.51379 19.9207 3.51379 20.8705 2.92801 21.4563Z" fill="black"/>
</svg>
