<svg width="24" height="24" viewBox="0 0 24 24" fill="none" xmlns="http://www.w3.org/2000/svg">
<path d="M4.42049 1.75H19.5814C20.1155 1.74999 20.5614 1.74998 20.9256 1.77974C21.3055 1.81078 21.6621 1.87789 21.9994 2.04973C22.5168 2.31339 22.9375 2.73408 23.2012 3.25153C23.373 3.58879 23.4401 3.94545 23.4712 4.32533C23.5009 4.68956 23.5009 5.1354 23.5009 5.66955V17.8986C23.5009 18.4328 23.5009 18.8786 23.4712 19.2429C23.4401 19.6227 23.373 19.9794 23.2012 20.3167C22.9375 20.8341 22.5168 21.2548 21.9994 21.5184C21.6621 21.6903 21.3055 21.7574 20.9256 21.7884C20.5614 21.8182 20.1155 21.8182 19.5814 21.8182H14.0009V20.3182H19.5509C20.1233 20.3182 20.5076 20.3176 20.8034 20.2934C21.0906 20.27 21.2278 20.2281 21.3184 20.1819C21.5536 20.0621 21.7448 19.8709 21.8647 19.6357C21.9108 19.5451 21.9527 19.4078 21.9762 19.1207C22.0003 18.8248 22.0009 18.4406 22.0009 17.8682V5.7C22.0009 5.12757 22.0003 4.74336 21.9762 4.44748C21.9527 4.16036 21.9108 4.02307 21.8647 3.93251C21.7448 3.69731 21.5536 3.50609 21.3184 3.38624C21.2278 3.3401 21.0906 3.29822 20.8034 3.27476C20.5076 3.25058 20.1233 3.25 19.5509 3.25H4.45092C3.87849 3.25 3.49428 3.25058 3.1984 3.27476C2.91127 3.29822 2.77399 3.3401 2.68343 3.38624C2.44823 3.50609 2.257 3.69731 2.13716 3.93251C2.09102 4.02307 2.04914 4.16036 2.02568 4.44748C2.0015 4.74336 2.00092 5.12757 2.00092 5.7V8.50001H0.50092V5.66957C0.500909 5.13541 0.500901 4.68957 0.53066 4.32533C0.561698 3.94545 0.628808 3.58879 0.800653 3.25153C1.0643 2.73408 1.485 2.31339 2.00245 2.04973C2.33971 1.87789 2.69637 1.81078 3.07625 1.77974C3.44048 1.74998 3.88634 1.74999 4.42049 1.75Z" fill="black"/>
<path d="M5.52876 21.7552C5.80504 20.4035 5.41892 18.9434 4.37039 17.8949C3.31769 16.8422 1.85015 16.4572 0.493997 16.7399V15.2161C2.24047 14.9498 4.08604 15.4892 5.43105 16.8342C6.77192 18.1751 7.31211 20.0135 7.05162 21.7552H5.52876Z" fill="black"/>
<path d="M10.0735 21.7552C10.3191 19.2402 9.47868 16.6391 7.55237 14.7128C5.62196 12.7824 3.01399 11.9426 0.493999 12.1932L0.493997 10.6869C3.3994 10.4405 6.38981 11.4289 8.61303 13.6522C10.8322 15.8713 11.821 18.8548 11.5797 21.7552H10.0735Z" fill="black"/>
<path d="M2.24912 21.784C1.76096 22.2721 0.969506 22.2721 0.481351 21.784C-0.00680447 21.2958 -0.00680447 20.5044 0.481351 20.0162C0.969506 19.5281 1.76096 19.5281 2.24912 20.0162C2.73727 20.5044 2.73727 21.2958 2.24912 21.784Z" fill="black"/>
</svg>
