<svg width="24" height="24" viewBox="0 0 24 24" fill="none" xmlns="http://www.w3.org/2000/svg">
<path d="M4.41146 1.5H19.5886C20.1157 1.49998 20.5705 1.49997 20.945 1.53057C21.3404 1.56287 21.7336 1.63419 22.112 1.82698C22.6765 2.1146 23.1354 2.57355 23.423 3.13803C23.6158 3.51641 23.6871 3.90963 23.7194 4.30498C23.75 4.67954 23.75 5.1343 23.75 5.66144V17.9067C23.75 18.4339 23.75 18.8886 23.7194 19.2632C23.6871 19.6586 23.6158 20.0518 23.423 20.4302C23.1354 20.9946 22.6765 21.4536 22.112 21.7412C21.7336 21.934 21.3404 22.0053 20.945 22.0376C20.5705 22.0682 20.1157 22.0682 19.5886 22.0682H14V20.0682H19.55C20.1266 20.0682 20.4988 20.0674 20.7822 20.0443C21.0538 20.0221 21.1546 19.9844 21.204 19.9592C21.3922 19.8633 21.5451 19.7103 21.641 19.5222C21.6662 19.4727 21.7039 19.372 21.7261 19.1003C21.7492 18.817 21.75 18.4447 21.75 17.8682V5.7C21.75 5.12345 21.7492 4.75118 21.7261 4.46784C21.7039 4.19618 21.6662 4.09546 21.641 4.04601C21.5451 3.85785 21.3922 3.70487 21.204 3.609C21.1546 3.5838 21.0538 3.54613 20.7822 3.52393C20.4988 3.50078 20.1266 3.5 19.55 3.5H4.45001C3.87346 3.5 3.50118 3.50078 3.21784 3.52393C2.94618 3.54613 2.84546 3.5838 2.79602 3.609C2.60785 3.70487 2.45487 3.85785 2.359 4.04601C2.33381 4.09546 2.29613 4.19618 2.27394 4.46784C2.25079 4.75118 2.25001 5.12345 2.25001 5.70001V8.50001H0.250008V5.66146C0.249989 5.13431 0.249973 4.67955 0.280577 4.30498C0.312878 3.90963 0.384193 3.51641 0.576988 3.13803C0.864609 2.57355 1.32355 2.1146 1.88804 1.82698C2.26642 1.63419 2.65963 1.56287 3.05498 1.53057C3.42953 1.49997 3.88435 1.49998 4.41146 1.5Z" fill="black"/>
<path d="M0.241821 17.2378C1.53236 16.9512 2.93739 17.3098 3.94143 18.3139C4.94131 19.3138 5.30118 20.7113 5.02105 21.9974L7.05213 21.9974C7.31078 20.191 6.74528 18.2893 5.35565 16.8997C3.96188 15.5059 2.053 14.9412 0.241821 15.2055V17.2378Z" fill="black"/>
<path d="M9.57014 21.9974L11.5783 21.9974C11.8191 19.0328 10.8056 15.9855 8.53763 13.7176C6.26561 11.4456 3.21141 10.4325 0.241821 10.6782V12.6867C2.69752 12.4352 5.24181 13.2502 7.12341 15.1318C9.00093 17.0093 9.8165 19.5467 9.57014 21.9974Z" fill="black"/>
<path d="M2.92764 21.4563C2.34185 22.042 1.39211 22.042 0.80632 21.4563C0.220533 20.8705 0.220533 19.9207 0.80632 19.3349C1.39211 18.7491 2.34185 18.7491 2.92764 19.3349C3.51343 19.9207 3.51343 20.8705 2.92764 21.4563Z" fill="black"/>
</svg>
