<svg width="24" height="24" viewBox="0 0 24 24" fill="none" xmlns="http://www.w3.org/2000/svg">
<path d="M4.4111 1.5C3.88397 1.49998 3.42918 1.49997 3.05461 1.53057C2.65927 1.56287 2.26605 1.63419 1.88767 1.82698C1.32318 2.1146 0.864243 2.57354 0.576622 3.13803C0.383827 3.51641 0.312511 3.90963 0.28021 4.30498C0.249607 4.67955 0.249622 5.13431 0.249641 5.66146V8.72536C3.75831 8.32575 7.40956 9.47149 10.1006 12.1626C12.8057 14.8676 13.9493 18.5428 13.5315 22.0682H19.5882C20.1153 22.0682 20.5701 22.0682 20.9447 22.0376C21.34 22.0053 21.7332 21.934 22.1116 21.7412C22.6761 21.4536 23.135 20.9946 23.4227 20.4302C23.6155 20.0518 23.6868 19.6586 23.7191 19.2632C23.7497 18.8886 23.7497 18.4339 23.7496 17.9068V5.66144C23.7497 5.13431 23.7497 4.67954 23.7191 4.30497C23.6868 3.90963 23.6155 3.51641 23.4227 3.13803C23.135 2.57354 22.6761 2.1146 22.1116 1.82698C21.7332 1.63419 21.34 1.56287 20.9447 1.53057C20.5701 1.49997 20.1154 1.49998 19.5882 1.5H4.4111Z" fill="black"/>
<path d="M0.241455 17.2378C1.532 16.9512 2.93702 17.3098 3.94107 18.3139C4.94094 19.3138 5.30081 20.7113 5.02068 21.9974H7.05176C7.31041 20.191 6.74492 18.2893 5.35528 16.8997C3.96151 15.5059 2.05264 14.9412 0.241455 15.2055V17.2378Z" fill="black"/>
<path d="M9.56977 21.9974L11.578 21.9974C11.8188 19.0328 10.8052 15.9855 8.53726 13.7176C6.26524 11.4456 3.21104 10.4325 0.241455 10.6782V12.6867C2.69715 12.4352 5.24144 13.2502 7.12305 15.1318C9.00056 17.0093 9.81614 19.5467 9.56977 21.9974Z" fill="black"/>
<path d="M2.92727 21.4563C2.34149 22.042 1.39174 22.042 0.805954 21.4563C0.220167 20.8705 0.220167 19.9207 0.805954 19.3349C1.39174 18.7491 2.34149 18.7491 2.92727 19.3349C3.51306 19.9207 3.51306 20.8705 2.92727 21.4563Z" fill="black"/>
</svg>
