<svg width="24" height="24" viewBox="0 0 24 24" fill="none" xmlns="http://www.w3.org/2000/svg">
<path d="M4.40416 1.25C3.88341 1.24998 3.41955 1.24995 3.03462 1.2814C2.62381 1.31497 2.19403 1.39049 1.77453 1.60423C1.16301 1.91582 0.665821 2.41301 0.354232 3.02454C0.140487 3.44403 0.0649677 3.87381 0.0314022 4.28462C-4.80451e-05 4.66957 -2.51569e-05 5.13338 1.54602e-06 5.65416L3.45337e-06 8.2521C3.71359 7.77076 7.60194 8.9564 10.4546 11.809C13.3212 14.6756 14.5044 18.5881 14.0043 22.3182H19.5959C20.1166 22.3182 20.5804 22.3182 20.9654 22.2868C21.3762 22.2532 21.806 22.1777 22.2255 21.964C22.837 21.6524 23.3342 21.1552 23.6458 20.5437C23.8595 20.1242 23.935 19.6944 23.9686 19.2836C24.0001 18.8986 24 18.4348 24 17.9141V5.65413C24 5.13337 24.0001 4.66956 23.9686 4.28462C23.935 3.87381 23.8595 3.44403 23.6458 3.02454C23.3342 2.41301 22.837 1.91582 22.2255 1.60423C21.806 1.39049 21.3762 1.31497 20.9654 1.2814C20.5805 1.24995 20.1167 1.24998 19.5959 1.25H4.40416Z" fill="black"/>
<path d="M0.241819 16.9821C1.59797 16.6994 3.06551 17.0844 4.11821 18.1371C5.16674 19.1857 5.55286 20.6457 5.27658 21.9974H7.80895C8.06292 19.9973 7.42193 17.9053 5.88597 16.3694C4.34589 14.8293 2.24676 14.189 0.241819 14.4485V16.9821Z" fill="black"/>
<path d="M9.82137 21.9974H12.3307C12.5699 18.8404 11.4823 15.6016 9.06796 13.1873C6.64952 10.7688 3.40392 9.68167 0.241819 9.9258V12.4354C2.76181 12.1848 5.36978 13.0246 7.30019 14.955C9.2265 16.8814 10.0669 19.4824 9.82137 21.9974Z" fill="black"/>
<path d="M3.10441 21.633C2.42099 22.3165 1.31295 22.3165 0.629535 21.633C-0.053883 20.9496 -0.053883 19.8416 0.629535 19.1582C1.31295 18.4747 2.42099 18.4747 3.10441 19.1582C3.78783 19.8416 3.78783 20.9496 3.10441 21.633Z" fill="black"/>
</svg>
