<svg width="24" height="24" viewBox="0 0 24 24" fill="none" xmlns="http://www.w3.org/2000/svg">
<path d="M4.42864 2H19.5714C20.1133 2 20.5504 1.99999 20.9044 2.02891C21.2688 2.05868 21.5889 2.12159 21.885 2.27248C22.3554 2.51217 22.7379 2.89462 22.9776 3.36502C23.1285 3.66117 23.1914 3.98126 23.2211 4.34569C23.25 4.69963 23.25 5.1367 23.25 5.67859V17.8896C23.25 18.4315 23.25 18.8686 23.2211 19.2225C23.1914 19.5869 23.1285 19.907 22.9776 20.2032C22.7379 20.6736 22.3554 21.056 21.885 21.2957C21.5889 21.4466 21.2688 21.5095 20.9044 21.5393C20.5504 21.5682 20.1133 21.5682 19.5715 21.5682H14V20.5682H19.55C20.1183 20.5682 20.5145 20.5678 20.8229 20.5426C21.1255 20.5179 21.2993 20.4718 21.431 20.4047C21.7133 20.2609 21.9427 20.0314 22.0865 19.7492C22.1536 19.6175 22.1997 19.4436 22.2245 19.1411C22.2497 18.8326 22.25 18.4365 22.25 17.8682V5.7C22.25 5.1317 22.2497 4.73554 22.2245 4.42712C22.1997 4.12454 22.1536 3.95069 22.0865 3.81901C21.9427 3.53677 21.7133 3.3073 21.431 3.16349C21.2993 3.0964 21.1255 3.05031 20.8229 3.02559C20.5145 3.00039 20.1183 3 19.55 3H4.45004C3.88174 3 3.48558 3.00039 3.17716 3.02559C2.87458 3.05031 2.70073 3.0964 2.56905 3.16349C2.28681 3.3073 2.05734 3.53677 1.91353 3.81901C1.84644 3.95069 1.80035 4.12454 1.77563 4.42712C1.75043 4.73554 1.75004 5.1317 1.75004 5.7V8.50001H0.75004V5.6786C0.750034 5.13671 0.750031 4.69963 0.77895 4.34569C0.808723 3.98126 0.87163 3.66117 1.02252 3.36502C1.26221 2.89462 1.64466 2.51217 2.11506 2.27248C2.41121 2.12159 2.7313 2.05868 3.09573 2.02891C3.44967 1.99999 3.88674 2 4.42864 2Z" fill="black"/>
<path d="M6.03415 21.5029C6.30703 20.0859 5.89487 18.5631 4.79765 17.4659C3.69628 16.3645 2.16603 15.9534 0.744486 16.2325V15.2169C2.42618 14.9486 4.2085 15.4625 5.50476 16.7588C6.79688 18.0509 7.31169 19.826 7.04918 21.5029H6.03415Z" fill="black"/>
<path d="M10.5752 21.5029C10.8199 18.9237 9.95475 16.2589 7.97963 14.2838C6.00043 12.3046 3.32875 11.4399 0.744486 11.6898V10.6856C3.58569 10.4386 6.51233 11.4023 8.68674 13.5767C10.8571 15.747 11.8212 18.6668 11.5793 21.5029L10.5752 21.5029Z" fill="black"/>
<path d="M2.32283 21.355C1.9323 21.7455 1.29914 21.7455 0.908617 21.355C0.518091 20.9644 0.518091 20.3313 0.908617 19.9407C1.29914 19.5502 1.93231 19.5502 2.32283 19.9407C2.71335 20.3313 2.71335 20.9644 2.32283 21.355Z" fill="black"/>
</svg>
