<svg width="24" height="24" viewBox="0 0 24 24" fill="none" xmlns="http://www.w3.org/2000/svg">
<path d="M4.41951 1.75C3.88537 1.74999 3.4395 1.74998 3.07527 1.77974C2.69539 1.81078 2.33873 1.87789 2.00147 2.04973C1.48403 2.31339 1.06333 2.73408 0.799676 3.25153C0.627831 3.58879 0.560721 3.94545 0.529683 4.32533C0.499925 4.68957 0.499932 5.13541 0.499944 5.66957V7.19371C4.31646 6.87924 8.24119 8.18197 11.1611 11.1019C14.0951 14.0359 15.3963 17.9844 15.0647 21.8182H19.5804C20.1145 21.8182 20.5604 21.8182 20.9246 21.7884C21.3045 21.7574 21.6612 21.6903 21.9984 21.5184C22.5159 21.2548 22.9366 20.8341 23.2002 20.3167C23.3721 19.9794 23.4392 19.6227 23.4702 19.2429C23.5 18.8786 23.5 18.4328 23.4999 17.8986V5.66955C23.5 5.1354 23.5 4.68956 23.4702 4.32533C23.4392 3.94545 23.3721 3.58879 23.2002 3.25153C22.9366 2.73408 22.5159 2.31339 21.9984 2.04973C21.6612 1.87789 21.3045 1.81078 20.9246 1.77974C20.5604 1.74998 20.1146 1.74999 19.5804 1.75H4.41951Z" fill="black"/>
<path d="M5.52778 21.7552C5.80406 20.4035 5.41794 18.9434 4.36941 17.8949C3.31671 16.8422 1.84917 16.4572 0.49302 16.7399V15.2161C2.2395 14.9498 4.08506 15.4892 5.43007 16.8342C6.77094 18.1751 7.31114 20.0135 7.05065 21.7552H5.52778Z" fill="black"/>
<path d="M10.0726 21.7552C10.3181 19.2402 9.4777 16.6391 7.55139 14.7128C5.62099 12.7824 3.01301 11.9426 0.493022 12.1932L0.49302 10.6869C3.39842 10.4405 6.38883 11.4289 8.61205 13.6522C10.8312 15.8713 11.8201 18.8548 11.5787 21.7552H10.0726Z" fill="black"/>
<path d="M2.24814 21.784C1.75999 22.2721 0.96853 22.2721 0.480374 21.784C-0.00778103 21.2958 -0.00778103 20.5044 0.480374 20.0162C0.96853 19.5281 1.75999 19.5281 2.24814 20.0162C2.7363 20.5044 2.7363 21.2958 2.24814 21.784Z" fill="black"/>
</svg>
