<svg width="24" height="24" viewBox="0 0 24 24" fill="none" xmlns="http://www.w3.org/2000/svg">
<path d="M4.41085 1.5C3.88372 1.49998 3.42893 1.49997 3.05437 1.53057C2.65902 1.56287 2.26581 1.63419 1.88743 1.82698C1.32294 2.1146 0.863998 2.57354 0.576378 3.13803C0.383583 3.51641 0.312267 3.90963 0.279966 4.30498C0.249363 4.67955 0.249378 5.13431 0.249397 5.66146V8.72536C3.75807 8.32575 7.40931 9.47149 10.1004 12.1626C12.8055 14.8676 13.9491 18.5428 13.5313 22.0682H19.588C20.1151 22.0682 20.5699 22.0682 20.9444 22.0376C21.3398 22.0053 21.733 21.934 22.1114 21.7412C22.6759 21.4536 23.1348 20.9946 23.4224 20.4302C23.6152 20.0518 23.6865 19.6586 23.7188 19.2632C23.7494 18.8886 23.7494 18.4339 23.7494 17.9068V5.66144C23.7494 5.13431 23.7494 4.67954 23.7188 4.30497C23.6865 3.90963 23.6152 3.51641 23.4224 3.13803C23.1348 2.57354 22.6759 2.1146 22.1114 1.82698C21.733 1.63419 21.3398 1.56287 20.9444 1.53057C20.5699 1.49997 20.1151 1.49998 19.588 1.5H4.41085Z" fill="black"/>
<path d="M0.241211 17.2378C1.53175 16.9512 2.93678 17.3098 3.94082 18.3139C4.94069 19.3138 5.30057 20.7113 5.02044 21.9974H7.05151C7.31017 20.191 6.74467 18.2893 5.35504 16.8997C3.96127 15.5059 2.05239 14.9412 0.241211 15.2055V17.2378Z" fill="black"/>
<path d="M9.56953 21.9974L11.5777 21.9974C11.8185 19.0328 10.805 15.9855 8.53702 13.7176C6.265 11.4456 3.2108 10.4325 0.241211 10.6782V12.6867C2.69691 12.4352 5.2412 13.2502 7.1228 15.1318C9.00032 17.0093 9.81589 19.5467 9.56953 21.9974Z" fill="black"/>
<path d="M2.92703 21.4563C2.34124 22.042 1.3915 22.042 0.80571 21.4563C0.219923 20.8705 0.219923 19.9207 0.80571 19.3349C1.3915 18.7491 2.34124 18.7491 2.92703 19.3349C3.51282 19.9207 3.51282 20.8705 2.92703 21.4563Z" fill="black"/>
</svg>
