<svg width="24" height="24" viewBox="0 0 24 24" fill="none" xmlns="http://www.w3.org/2000/svg">
<path fill-rule="evenodd" clip-rule="evenodd" d="M13.6132 4.20582L22.4966 10.6665C22.6294 10.763 22.7663 10.8625 22.874 10.9567C22.9902 11.0582 23.1457 11.2142 23.2373 11.4455C23.3542 11.741 23.3542 12.0699 23.2373 12.3654C23.1457 12.5968 22.9902 12.7527 22.874 12.8542C22.7663 12.9484 22.6294 13.0479 22.4966 13.1444L13.6132 19.6051C13.4287 19.7393 13.2509 19.8686 13.0971 19.9604C12.9457 20.0507 12.6956 20.1826 12.3862 20.173C12.0138 20.1614 11.6659 19.9843 11.4375 19.6898C11.2477 19.4453 11.2073 19.1654 11.1913 18.9899C11.175 18.8115 11.175 18.5917 11.175 18.3635L11.175 15.7055C11.175 15.6966 11.175 15.6879 11.175 15.6795C11.1746 15.6796 11.1741 15.6796 11.1737 15.6796C8.15924 15.8737 5.32534 17.2301 3.2803 19.4796L2.98356 19.8061C2.93114 19.8637 2.88313 19.9165 2.84347 19.9581C2.8085 19.9948 2.74693 20.0585 2.67244 20.1141C1.93409 20.6649 0.873891 20.255 0.698039 19.3508C0.680297 19.2596 0.677614 19.171 0.67641 19.1203C0.675046 19.0629 0.675047 18.9916 0.675049 18.9137L0.675049 18.9055C0.675049 13.052 5.35347 8.29116 11.175 8.15831L11.175 5.44738C11.175 5.21923 11.175 4.99941 11.1913 4.82107C11.2073 4.64547 11.2477 4.36565 11.4375 4.12107C11.6659 3.82667 12.0138 3.64953 12.3862 3.63795C12.6956 3.62833 12.9457 3.76026 13.0971 3.85057C13.2509 3.94229 13.4287 4.07161 13.6132 4.20582ZM12.6751 5.37839C12.6751 5.40921 12.675 5.44185 12.675 5.47648L12.675 8.40546C12.675 9.09582 12.1154 9.65546 11.425 9.65546C6.46791 9.65546 2.42152 13.5548 2.18589 18.4536C4.49233 15.9254 7.68335 14.4013 11.0773 14.1827C11.084 14.1823 11.0909 14.1818 11.0977 14.1814C11.2103 14.1741 11.3399 14.1657 11.4552 14.169C11.593 14.1729 11.7625 14.1933 11.9418 14.2748C12.1882 14.3866 12.4002 14.5854 12.5277 14.824C12.623 15.0027 12.6527 15.1763 12.6648 15.3124C12.6751 15.4296 12.6751 15.5639 12.6751 15.6846L12.675 18.3344C12.675 18.3691 12.6751 18.4017 12.6751 18.4325C12.7 18.4144 12.7265 18.3952 12.7545 18.3749L21.5943 11.9459C21.6139 11.9317 21.6323 11.9182 21.6499 11.9055C21.6323 11.8927 21.6139 11.8792 21.5943 11.865L12.7545 5.43604C12.7265 5.41567 12.7 5.39648 12.6751 5.37839Z" fill="black"/>
</svg>
