<svg width="24" height="24" viewBox="0 0 24 24" fill="none" xmlns="http://www.w3.org/2000/svg">
<path d="M1.94168 19.736C4.15308 17.2442 7.19203 15.6703 10.464 15.2817C10.9544 15.2234 11.1995 15.1943 11.4392 15.2924C11.6346 15.3724 11.8322 15.5479 11.9347 15.7325C12.0604 15.9589 12.0604 16.235 12.0604 16.7872V17.6636C12.0604 18.69 12.0604 19.2032 12.2724 19.4745C12.457 19.7107 12.7377 19.8516 13.0373 19.8585C13.3816 19.8665 13.7932 19.5599 14.6163 18.9467L22.5017 13.0722C23.0855 12.6372 23.3774 12.4198 23.4816 12.1528C23.5729 11.9189 23.5729 11.6593 23.4816 11.4254C23.3774 11.1584 23.0855 10.9409 22.5017 10.506L14.6163 4.63148C13.7932 4.01829 13.3816 3.7117 13.0373 3.71963C12.7377 3.72654 12.457 3.86747 12.2724 4.10363C12.0604 4.37498 12.0604 4.88818 12.0604 5.91456V7.97191C12.0604 8.20333 11.8728 8.39095 11.6413 8.39095C5.46037 8.39094 0.449707 13.4016 0.449707 19.5826C0.449707 20.2235 1.24204 20.5243 1.66743 20.045L1.94168 19.736Z" fill="black"/>
</svg>
