<svg width="24" height="24" viewBox="0 0 24 24" fill="none" xmlns="http://www.w3.org/2000/svg">
<path fill-rule="evenodd" clip-rule="evenodd" d="M10.1007 3.79564C10.0901 3.80334 10.0796 3.81098 10.0692 3.81857L1.22935 10.2476C1.22094 10.2537 1.21239 10.2599 1.2037 10.2662C1.07674 10.3584 0.922403 10.4706 0.796959 10.5802C0.657887 10.7018 0.432598 10.9209 0.297812 11.2616C0.134119 11.6752 0.134119 12.1357 0.297812 12.5494C0.4326 12.89 0.65789 13.1091 0.796961 13.2307C0.922405 13.3403 1.07674 13.4525 1.2037 13.5447C1.21239 13.551 1.22094 13.5573 1.22935 13.5634L10.0692 19.9924C10.0796 19.9999 10.0901 20.0076 10.1007 20.0153C10.2774 20.1439 10.4726 20.2859 10.6468 20.3898C10.8166 20.4911 11.1707 20.687 11.6293 20.6727C12.1508 20.6565 12.6378 20.4085 12.9576 19.9964C13.2389 19.6338 13.2887 19.2322 13.3066 19.0353C13.3251 18.8333 13.325 18.592 13.325 18.3734C13.325 18.3603 13.325 18.3473 13.325 18.3344V16.2255C16.0107 16.5275 18.5127 17.7953 20.3497 19.816L20.6487 20.1448C20.6991 20.2003 20.7508 20.2571 20.7947 20.3032C20.8308 20.3411 20.9175 20.432 21.0286 20.5149C22.0623 21.286 23.5466 20.7121 23.7928 19.4462C23.8192 19.3102 23.8222 19.1849 23.8234 19.1325C23.825 19.0689 23.825 18.9918 23.825 18.9169L23.825 18.9055C23.825 12.9443 19.1885 8.066 13.3249 7.68006L13.325 5.47648C13.325 5.46358 13.325 5.4506 13.325 5.43753C13.325 5.21893 13.3251 4.9776 13.3066 4.77558C13.2887 4.57868 13.2389 4.17709 12.9576 3.81456C12.6378 3.4024 12.1508 3.1544 11.6293 3.13819C11.1707 3.12393 10.8166 3.31986 10.6468 3.42113C10.4726 3.52502 10.2774 3.66702 10.1007 3.79564ZM10.825 6.36017L3.20018 11.9055L10.825 17.4507V15.7055C10.825 15.6972 10.8249 15.6887 10.8249 15.6799C10.8249 15.5646 10.8248 15.4088 10.8372 15.2684C10.8523 15.0972 10.892 14.8494 11.0313 14.5885C11.2106 14.2528 11.5049 13.9768 11.8514 13.8195C12.1123 13.701 12.354 13.6742 12.5306 13.6692C12.6706 13.6652 12.8228 13.6751 12.9303 13.6822C12.9388 13.6827 12.947 13.6832 12.9548 13.6838C15.9885 13.8791 18.8659 15.0794 21.1353 17.0848C20.2975 13.1262 16.7831 10.1555 12.5749 10.1555C11.6085 10.1555 10.8249 9.37196 10.8249 8.40546L10.825 6.36017Z" fill="black"/>
</svg>
