<svg width="24" height="24" viewBox="0 0 24 24" fill="none" xmlns="http://www.w3.org/2000/svg">
<path fill-rule="evenodd" clip-rule="evenodd" d="M13.7557 4.00037C13.7651 4.00718 13.7744 4.01397 13.7838 4.02075L22.6469 10.4667C22.7764 10.5608 22.922 10.6666 23.0385 10.7685C23.1661 10.88 23.3566 11.0675 23.4697 11.3535C23.61 11.7081 23.61 12.1028 23.4697 12.4574C23.3566 12.7434 23.1661 12.9309 23.0385 13.0425C22.922 13.1444 22.7764 13.2501 22.6469 13.3443L13.7557 19.8106C13.5755 19.9417 13.3891 20.0773 13.2252 20.1751C13.0645 20.2709 12.7625 20.4348 12.3784 20.4229C11.9315 20.409 11.5141 20.1964 11.2399 19.8431C11.0044 19.5396 10.9593 19.1988 10.9423 19.0126C10.9249 18.8225 10.925 18.592 10.925 18.3691C10.925 18.3575 10.925 18.346 10.925 18.3344V15.9492C8.07432 16.1994 5.40659 17.5124 3.46529 19.6478L3.16729 19.9756C3.11598 20.0321 3.06616 20.0869 3.02441 20.1306C2.98891 20.1679 2.91481 20.2452 2.82192 20.3145C1.9359 20.9754 0.66366 20.4836 0.452637 19.3985C0.430514 19.2848 0.427703 19.1777 0.426481 19.1263C0.425044 19.0658 0.425046 18.9917 0.425049 18.9154L0.425049 18.9055C0.425049 12.9979 5.08198 8.17802 10.9251 7.91662L10.925 5.47648C10.925 5.46495 10.925 5.4534 10.925 5.44183C10.925 5.21891 10.9249 4.98845 10.9423 4.79833C10.9593 4.61207 11.0044 4.27137 11.24 3.96781C11.5141 3.61453 11.9315 3.40197 12.3784 3.38807C12.7625 3.37613 13.0645 3.54006 13.2252 3.63585C13.3891 3.73363 13.5755 3.86922 13.7557 4.00037ZM12.925 5.86923L12.9251 8.40546C12.9251 9.23389 12.2535 9.90546 11.4251 9.90546C6.83875 9.90546 3.05369 13.336 2.49587 17.771C4.79714 15.5027 7.83946 14.1407 11.0612 13.9332C11.0687 13.9328 11.0763 13.9323 11.0841 13.9317C11.1939 13.9246 11.3347 13.9155 11.4623 13.9191C11.6195 13.9235 11.8251 13.9472 12.0452 14.0471C12.3416 14.1817 12.5948 14.4191 12.7482 14.7063C12.8655 14.926 12.9002 15.1368 12.9138 15.2904C12.9252 15.4192 12.9251 15.5641 12.9251 15.6818C12.9251 15.6898 12.925 15.6977 12.925 15.7055V17.9417L21.2249 11.9055L12.925 5.86923Z" fill="black"/>
</svg>
