<svg width="24" height="24" viewBox="0 0 24 24" fill="none" xmlns="http://www.w3.org/2000/svg">
<path d="M22.0581 19.7358C19.8467 17.244 16.8078 15.6701 13.5358 15.2814C13.0455 15.2232 12.8003 15.194 12.5606 15.2921C12.3652 15.3721 12.1676 15.5477 12.0651 15.7323C11.9394 15.9587 11.9394 16.2348 11.9394 16.787V17.6634C11.9394 18.6897 11.9394 19.2029 11.7274 19.4743C11.5428 19.7104 11.2621 19.8514 10.9625 19.8583C10.6182 19.8662 10.2066 19.5596 9.38354 18.9464L1.49814 13.0719C0.914327 12.637 0.622421 12.4195 0.518179 12.1525C0.426883 11.9187 0.426883 11.659 0.518179 11.4252C0.622421 11.1582 0.914328 10.9407 1.49814 10.5058L9.38354 4.63123C10.2066 4.01805 10.6182 3.71145 10.9625 3.71939C11.2621 3.72629 11.5428 3.86723 11.7274 4.10338C11.9394 4.37474 11.9394 4.88793 11.9394 5.91432V7.97166C11.9394 8.20309 12.127 8.3907 12.3585 8.3907C18.5394 8.3907 23.5501 13.4014 23.5501 19.5823C23.5501 20.2232 22.7578 20.5241 22.3324 20.0448L22.0581 19.7358Z" fill="black"/>
</svg>
