<svg width="24" height="24" viewBox="0 0 24 24" fill="none" xmlns="http://www.w3.org/2000/svg">
<path d="M22.1519 2.34767C21.3989 1.59472 20.1723 1.61422 19.4436 2.39071L14.2329 7.94362C12.1673 6.61162 9.3885 6.95936 7.72124 8.81438L16.5325 17.6257L16.579 17.5577L16.7285 17.3377C18.1161 15.2961 18.1255 12.6702 16.8688 10.6456L22.1936 4.97118C22.8902 4.22881 22.8717 3.06752 22.1519 2.34767Z" fill="black"/>
<path d="M16.2368 18.037L7.40401 9.20425C7.36573 9.25629 7.32825 9.30928 7.29158 9.36323C6.42837 10.6334 5.26715 11.6727 3.90945 12.3904L1.46271 13.6837C1.30568 13.7667 1.24858 13.9629 1.33572 14.1171C2.02678 15.3403 2.8287 16.4911 3.72835 17.556L4.00111 17.4864C4.75454 17.2942 5.45209 16.9272 6.03727 16.4152C6.14118 16.3242 6.29912 16.3348 6.39004 16.4387C6.48096 16.5426 6.47043 16.7005 6.36652 16.7914C5.72224 17.3552 4.95424 17.7592 4.12472 17.9709L4.09449 17.9786C5.71455 19.8021 7.62868 21.3572 9.76653 22.5728L9.85107 22.6208C9.94471 22.6741 10.0591 22.6758 10.1543 22.6255L12.0172 21.6408C13.6746 20.7646 15.115 19.5331 16.2368 18.037Z" fill="black"/>
</svg>
