<svg width="24" height="24" viewBox="0 0 24 24" fill="none" xmlns="http://www.w3.org/2000/svg">
<path d="M22.1519 2.34767C21.3989 1.59472 20.1723 1.61422 19.4436 2.39071L14.2329 7.94362C12.342 6.72426 9.85337 6.91256 8.16696 8.37621L16.8855 17.0948C18.1149 15.0909 18.0762 12.5908 16.8688 10.6456L22.1936 4.97118C22.8902 4.22881 22.8717 3.06752 22.1519 2.34767Z" fill="black"/>
<path d="M15.8469 18.531L7.03638 9.7205C6.20493 10.8288 5.13757 11.7412 3.90945 12.3904L1.46271 13.6837C1.30568 13.7667 1.24858 13.9629 1.33572 14.1171C1.91287 15.1387 2.56734 16.1097 3.29149 17.0224L3.84659 16.8808C4.50491 16.7129 5.1144 16.3922 5.6257 15.9448C5.98938 15.6266 6.54217 15.6634 6.8604 16.0271C7.17862 16.3908 7.14177 16.9436 6.77808 17.2618C6.13532 17.8242 5.38207 18.2441 4.56806 18.4952C6.0833 20.0969 7.83346 21.4737 9.76653 22.5728L9.85107 22.6208C9.94471 22.6741 10.0591 22.6758 10.1543 22.6255L12.0172 21.6408C13.4885 20.8631 14.7887 19.8053 15.8469 18.531Z" fill="black"/>
</svg>
