<svg width="24" height="24" viewBox="0 0 24 24" fill="none" xmlns="http://www.w3.org/2000/svg">
<path d="M22.1528 2.34767C21.3999 1.59472 20.1732 1.61422 19.4446 2.39071L14.2339 7.94362C12.1969 6.63011 9.46652 6.95002 7.79232 8.73796L16.9214 17.0371C18.115 15.0432 18.0656 12.5722 16.8698 10.6456L22.1945 4.97118C22.8911 4.22881 22.8727 3.06752 22.1528 2.34767Z" fill="black"/>
<path d="M15.7367 18.663L6.55295 10.3142C5.80611 11.1569 4.9117 11.8611 3.91042 12.3904L1.46369 13.6837C1.30666 13.7667 1.24956 13.9629 1.33669 14.1171C2.18569 15.6199 3.202 17.0132 4.36129 18.2725L4.81663 18.1564C5.45592 17.9932 6.0478 17.6818 6.54432 17.2474C6.95996 16.8837 7.59172 16.9258 7.95541 17.3415C8.31909 17.7571 8.27697 18.3889 7.86133 18.7525C7.30951 19.2354 6.6779 19.6153 5.99671 19.8763C7.15225 20.899 8.41511 21.8038 9.76751 22.5728L9.85205 22.6208C9.94569 22.6741 10.06 22.6758 10.1553 22.6255L12.0181 21.6408C13.4383 20.8901 14.6991 19.8784 15.7367 18.663Z" fill="black"/>
</svg>
