<svg width="24" height="24" viewBox="0 0 24 24" fill="none" xmlns="http://www.w3.org/2000/svg">
<path fill-rule="evenodd" clip-rule="evenodd" d="M19.0795 2.04857C20.0013 1.06617 21.5532 1.0415 22.5059 1.99412C23.4166 2.90486 23.44 4.3741 22.5586 5.31332L17.4885 10.7165C18.6484 12.8549 18.5677 15.5218 17.1425 17.6188L16.993 17.8388C15.7828 19.6195 14.1547 21.0767 12.2513 22.0828L10.3884 23.0675C10.1422 23.1977 9.84651 23.1931 9.60439 23.0555L9.51985 23.0074C5.91857 20.9598 2.93839 17.9697 0.900834 14.363C0.675414 13.964 0.823068 13.4565 1.2295 13.2417L3.67624 11.9483C4.96173 11.2688 6.06119 10.2848 6.8785 9.08218C8.53212 6.64904 11.7046 5.98705 14.1431 7.30914L19.0795 2.04857ZM16.3455 9.18652C16.4358 9.27683 16.5231 9.36921 16.6072 9.46351L21.4648 4.2869C21.7919 3.93825 21.7833 3.39285 21.4452 3.05478C21.0916 2.70116 20.5155 2.71031 20.1733 3.07499L15.361 8.20329C15.3851 8.22648 15.4089 8.24993 15.4326 8.27365L16.3455 9.18652ZM7.89834 10.2376L15.1225 17.8381C14.1399 19.0361 12.9263 20.0293 11.5503 20.7567L10.0213 21.5649C9.26332 21.1209 8.53567 20.6317 7.84183 20.1011C8.83011 19.6609 9.7336 19.0418 10.5047 18.2706L10.5508 18.2245C10.8437 17.9316 10.8437 17.4568 10.5508 17.1639C10.258 16.871 9.78308 16.871 9.49019 17.1639L9.44408 17.21C8.6227 18.0314 7.6206 18.6452 6.52102 19.0043C6.1573 18.6767 5.80497 18.3368 5.46463 17.9852C5.90785 17.7694 6.32228 17.4949 6.69622 17.1677C7.00795 16.895 7.03954 16.4212 6.76678 16.1094C6.49402 15.7977 6.02019 15.7661 5.70846 16.0389C5.32457 16.3748 4.88233 16.6347 4.40539 16.8067C3.73075 15.9977 3.11475 15.1378 2.56361 14.2331L4.37722 13.2745C5.7665 12.5401 6.96982 11.5013 7.89834 10.2376ZM16.0158 16.6006C17.274 14.5791 16.9814 11.9437 15.2848 10.2472L14.372 9.33431C12.839 7.80136 10.4442 7.77232 8.87482 9.08772L16.0158 16.6006Z" fill="black"/>
</svg>
