<svg width="24" height="24" viewBox="0 0 24 24" fill="none" xmlns="http://www.w3.org/2000/svg">
<path fill-rule="evenodd" clip-rule="evenodd" d="M19.2618 2.21964C20.0871 1.34019 21.4764 1.31811 22.3292 2.17089C23.1445 2.98619 23.1654 4.30146 22.3764 5.14225L17.1809 10.679C18.3882 12.7621 18.3424 15.4086 16.9358 17.4782L16.7863 17.6983C15.599 19.4452 14.0019 20.8747 12.1345 21.8618L10.2716 22.8465C10.1009 22.9368 9.89592 22.9336 9.72804 22.8382L9.64349 22.7901C6.08158 20.7649 3.13391 17.8074 1.11858 14.2401C0.962303 13.9634 1.06468 13.6116 1.34641 13.4627L3.79315 12.1694C5.11474 11.4708 6.24508 10.4591 7.08535 9.22271C8.7028 6.84278 11.8416 6.23692 14.191 7.62355L19.2618 2.21964ZM16.1688 9.36329C16.3212 9.5157 16.4645 9.67421 16.5986 9.83808L21.6472 4.45797C22.0667 4.01089 22.0556 3.31152 21.6221 2.878C21.1686 2.42455 20.4299 2.43629 19.9911 2.90392L15.0064 8.21599C15.0913 8.2909 15.1746 8.36904 15.2559 8.45042L16.1688 9.36329ZM7.87074 9.84565L15.4545 17.8244C14.4273 19.1252 13.1381 20.2002 11.6672 20.9777L10.0156 21.8508C9.08024 21.3109 8.18986 20.7034 7.35081 20.0349C8.46363 19.6031 9.47848 18.9434 10.328 18.0939L10.3742 18.0478C10.5694 17.8525 10.5694 17.5359 10.3742 17.3407C10.1789 17.1454 9.86231 17.1454 9.66704 17.3407L9.62094 17.3868C8.73742 18.2703 7.65167 18.9215 6.4606 19.2856C5.96608 18.8461 5.49201 18.3843 5.03988 17.9016C5.5827 17.6795 6.08713 17.3686 6.53167 16.9796C6.73949 16.7978 6.76055 16.4819 6.57871 16.2741C6.39687 16.0662 6.08099 16.0452 5.87317 16.227C5.42145 16.6223 4.8936 16.9184 4.32384 17.0981C3.54112 16.1745 2.83457 15.1839 2.21339 14.1355L4.26047 13.0535C5.70474 12.29 6.94311 11.1895 7.87074 9.84565ZM16.0513 17.0007L16.1088 16.9161C17.5641 14.7747 17.2925 11.9012 15.4617 10.0704L14.5488 9.15753C12.8558 7.46447 10.1721 7.49987 8.51598 9.07299L16.0513 17.0007Z" fill="black"/>
</svg>
