<svg width="24" height="24" viewBox="0 0 24 24" fill="none" xmlns="http://www.w3.org/2000/svg">
<path fill-rule="evenodd" clip-rule="evenodd" d="M19.4441 2.39071C20.1727 1.61422 21.3994 1.59472 22.1523 2.34767C22.8722 3.06752 22.8907 4.22881 22.194 4.97118L16.8693 10.6456C18.126 12.6702 18.1166 15.2961 16.729 17.3377L16.5795 17.5577C15.4152 19.2709 13.8489 20.6728 12.0177 21.6408L10.1548 22.6255C10.0595 22.6758 9.9452 22.6741 9.85156 22.6208L9.76702 22.5728C8.52141 21.8645 7.35176 21.041 6.27196 20.1163L6.26302 20.1186L6.25986 20.1059C4.29127 18.4177 2.6219 16.3929 1.3362 14.1171C1.24907 13.9629 1.30617 13.7667 1.4632 13.6837L3.90993 12.3904C5.26763 11.6727 6.42886 10.6334 7.29207 9.36323C8.87279 7.03736 11.9781 6.48934 14.2334 7.94362L19.4441 2.39071ZM9.79768 17.5635C8.85194 18.5093 7.68184 19.1973 6.39881 19.5646C5.76669 19.01 5.16705 18.4195 4.6029 17.7961C5.25087 17.5839 5.85123 17.2428 6.36701 16.7914C6.47092 16.7005 6.48144 16.5426 6.39053 16.4387C6.2996 16.3348 6.14166 16.3242 6.03775 16.4152C5.51794 16.87 4.90284 17.2007 4.23902 17.3837C3.34833 16.3485 2.55297 15.2284 1.86586 14.0364L4.1436 12.8324C5.5735 12.0766 6.79648 10.982 7.70561 9.64428C7.74996 9.57903 7.79563 9.51533 7.84258 9.45319L15.7837 17.8079C14.714 19.2131 13.3499 20.371 11.784 21.1987L10.0107 22.1361C8.89046 21.4989 7.83311 20.7663 6.84919 19.9491C8.09104 19.5404 9.22279 18.8455 10.1512 17.9171L10.1973 17.871C10.295 17.7734 10.295 17.6151 10.1973 17.5174C10.0997 17.4198 9.94141 17.4198 9.84378 17.5174L9.79768 17.5635ZM21.8294 4.62904L16.5811 10.222C16.4038 9.98353 16.2074 9.75546 15.992 9.54007L15.0791 8.6272C14.9393 8.48735 14.7937 8.35754 14.6431 8.23771L19.8087 2.73285C20.3441 2.16227 21.2455 2.14794 21.7988 2.70122C22.3278 3.23019 22.3413 4.08353 21.8294 4.62904ZM8.16714 9.0689L16.0831 17.3971C16.1109 17.3571 16.1385 17.317 16.1659 17.2767L16.3155 17.0567C17.8383 14.816 17.5541 11.8093 15.6384 9.89362L14.7256 8.98075C12.873 7.12821 9.89931 7.23203 8.16714 9.0689Z" fill="black"/>
</svg>
