<svg width="24" height="24" viewBox="0 0 24 24" fill="none" xmlns="http://www.w3.org/2000/svg">
<path d="M22.1523 2.34767C21.3994 1.59472 20.1727 1.61422 19.4441 2.39071L14.2334 7.94362C12.3424 6.72426 9.85386 6.91256 8.16744 8.37621L16.886 17.0948C18.1154 15.0909 18.0767 12.5908 16.8693 10.6456L22.194 4.97118C22.8907 4.22881 22.8722 3.06752 22.1523 2.34767Z" fill="black"/>
<path d="M15.8473 18.531L7.03686 9.7205C6.20542 10.8288 5.13806 11.7412 3.90993 12.3904L1.4632 13.6837C1.30617 13.7667 1.24907 13.9629 1.3362 14.1171C1.91336 15.1387 2.56783 16.1097 3.29198 17.0224L3.84708 16.8808C4.50539 16.7129 5.11489 16.3922 5.62619 15.9448C5.98987 15.6266 6.54266 15.6634 6.86089 16.0271C7.17911 16.3908 7.14225 16.9436 6.77857 17.2618C6.13581 17.8242 5.38256 18.2441 4.56855 18.4952C6.08379 20.0969 7.83395 21.4737 9.76702 22.5728L9.85156 22.6208C9.9452 22.6741 10.0595 22.6758 10.1548 22.6255L12.0177 21.6408C13.489 20.8631 14.7892 19.8053 15.8473 18.531Z" fill="black"/>
</svg>
