<svg width="24" height="24" viewBox="0 0 24 24" fill="none" xmlns="http://www.w3.org/2000/svg">
<path d="M22.1519 2.34767C21.3989 1.59472 20.1723 1.61422 19.4436 2.39071L14.2329 7.94362C12.3067 6.70151 9.76031 6.92007 8.07342 8.45945L16.8173 17.2034C18.1159 15.1818 18.0981 12.6261 16.8688 10.6456L22.1936 4.97118C22.8902 4.22881 22.8717 3.06752 22.1519 2.34767Z" fill="black"/>
<path d="M15.9266 18.434L7.11154 9.61889C6.26967 10.7731 5.1749 11.7215 3.90945 12.3904L1.46271 13.6837C1.30568 13.7667 1.24858 13.9629 1.33572 14.1171C1.93552 15.1788 2.61882 16.1859 3.37705 17.1296L3.8775 17.0019C4.55483 16.8291 5.18194 16.4992 5.70801 16.0389C6.01974 15.7661 6.49356 15.7977 6.76632 16.1094C7.03909 16.4212 7.0075 16.895 6.69577 17.1677C6.0508 17.7321 5.29225 18.1499 4.47249 18.3935C6.00955 20.0387 7.79269 21.4505 9.76653 22.5728L9.85107 22.6208C9.94471 22.6741 10.0591 22.6758 10.1543 22.6255L12.0172 21.6408C13.5256 20.8434 14.8543 19.7516 15.9266 18.434Z" fill="black"/>
</svg>
