<svg width="24" height="24" viewBox="0 0 24 24" fill="none" xmlns="http://www.w3.org/2000/svg">
<path fill-rule="evenodd" clip-rule="evenodd" d="M19.4436 2.39071C20.1723 1.61422 21.3989 1.59472 22.1519 2.34767C22.8717 3.06752 22.8902 4.22881 22.1936 4.97118L16.8688 10.6456C18.1255 12.6702 18.1161 15.2961 16.7285 17.3377L16.579 17.5577C15.4147 19.2709 13.8484 20.6728 12.0172 21.6408L10.1543 22.6255C10.0591 22.6758 9.94471 22.6741 9.85107 22.6208L9.76653 22.5728C8.52093 21.8645 7.35127 21.041 6.27147 20.1163L6.26253 20.1186L6.25937 20.1059C4.29078 18.4177 2.62141 16.3929 1.33572 14.1171C1.24858 13.9629 1.30568 13.7667 1.46271 13.6837L3.90945 12.3904C5.26715 11.6727 6.42837 10.6334 7.29158 9.36323C8.8723 7.03736 11.9776 6.48934 14.2329 7.94362L19.4436 2.39071ZM9.79719 17.5635C8.85145 18.5093 7.68135 19.1973 6.39832 19.5646C5.7662 19.01 5.16656 18.4195 4.60242 17.7961C5.25038 17.5839 5.85074 17.2428 6.36652 16.7914C6.47043 16.7005 6.48096 16.5426 6.39004 16.4387C6.29912 16.3348 6.14118 16.3242 6.03727 16.4152C5.51746 16.87 4.90235 17.2007 4.23853 17.3837C3.34784 16.3485 2.55248 15.2284 1.86537 14.0364L4.14311 12.8324C5.57302 12.0766 6.79599 10.982 7.70512 9.64428C7.74947 9.57903 7.79514 9.51533 7.84209 9.45319L15.7832 17.8079C14.7135 19.2131 13.3494 20.371 11.7835 21.1987L10.0102 22.1361C8.88997 21.4989 7.83262 20.7663 6.8487 19.9491C8.09056 19.5404 9.2223 18.8455 10.1507 17.9171L10.1968 17.871C10.2945 17.7734 10.2945 17.6151 10.1968 17.5174C10.0992 17.4198 9.94092 17.4198 9.84329 17.5174L9.79719 17.5635ZM21.8289 4.62904L16.5806 10.222C16.4033 9.98353 16.2069 9.75546 15.9915 9.54007L15.0786 8.6272C14.9388 8.48735 14.7932 8.35754 14.6426 8.23771L19.8082 2.73285C20.3437 2.16227 21.245 2.14794 21.7983 2.70122C22.3273 3.23019 22.3408 4.08353 21.8289 4.62904ZM8.16665 9.0689L16.0826 17.3971C16.1104 17.3571 16.1381 17.317 16.1655 17.2767L16.315 17.0567C17.8378 14.816 17.5536 11.8093 15.6379 9.89362L14.7251 8.98075C12.8725 7.12821 9.89882 7.23203 8.16665 9.0689Z" fill="black"/>
</svg>
