<svg width="24" height="24" viewBox="0 0 24 24" fill="none" xmlns="http://www.w3.org/2000/svg">
<path d="M22.1519 2.34767C21.3989 1.59472 20.1723 1.61422 19.4436 2.39071L14.2329 7.94362C12.2367 6.65636 9.57439 6.93789 7.89296 8.63254L16.6758 17.4153L16.7285 17.3377C18.1161 15.2961 18.1255 12.6702 16.8688 10.6456L22.1936 4.97118C22.8902 4.22881 22.8717 3.06752 22.1519 2.34767Z" fill="black"/>
<path d="M16.0835 18.2373L7.25821 9.41201C6.39853 10.66 5.24972 11.6819 3.90945 12.3904L1.46271 13.6837C1.30568 13.7667 1.24858 13.9629 1.33572 14.1171C1.98101 15.2593 2.72296 16.3383 3.55088 17.3433L3.9393 17.2442C4.65468 17.0617 5.31701 16.7132 5.87264 16.227C6.08046 16.0452 6.39634 16.0662 6.57818 16.2741C6.76002 16.4819 6.73896 16.7978 6.53114 16.9796C5.88227 17.5474 5.1134 17.9603 4.28263 18.1877C5.86206 19.9211 7.71087 21.404 9.76653 22.5728L9.85107 22.6208C9.94471 22.6741 10.0591 22.6758 10.1543 22.6255L12.0172 21.6408C13.6001 20.8041 14.985 19.6432 16.0835 18.2373Z" fill="black"/>
</svg>
