<svg width="24" height="24" viewBox="0 0 24 24" fill="none" xmlns="http://www.w3.org/2000/svg">
<path d="M22.1523 2.34767C21.3994 1.59472 20.1727 1.61422 19.4441 2.39071L14.2334 7.94362C12.1964 6.63011 9.46603 6.95002 7.79183 8.73796L16.9209 17.0371C18.1145 15.0432 18.0651 12.5722 16.8693 10.6456L22.194 4.97118C22.8907 4.22881 22.8722 3.06752 22.1523 2.34767Z" fill="black"/>
<path d="M15.7362 18.663L6.55246 10.3142C5.80563 11.1569 4.91121 11.8611 3.90993 12.3904L1.4632 13.6837C1.30617 13.7667 1.24907 13.9629 1.3362 14.1171C2.1852 15.6199 3.20151 17.0132 4.3608 18.2725L4.81614 18.1564C5.45543 17.9932 6.04731 17.6818 6.54384 17.2474C6.95947 16.8837 7.59123 16.9258 7.95492 17.3415C8.3186 17.7571 8.27648 18.3889 7.86085 18.7525C7.30903 19.2354 6.67741 19.6153 5.99622 19.8763C7.15176 20.899 8.41463 21.8038 9.76702 22.5728L9.85156 22.6208C9.9452 22.6741 10.0595 22.6758 10.1548 22.6255L12.0177 21.6408C13.4378 20.8901 14.6986 19.8784 15.7362 18.663Z" fill="black"/>
</svg>
