<svg width="24" height="24" viewBox="0 0 24 24" fill="none" xmlns="http://www.w3.org/2000/svg">
<path fill-rule="evenodd" clip-rule="evenodd" d="M18.7149 1.70643C19.83 0.518121 21.7072 0.488285 22.8595 1.64057C23.9611 2.74219 23.9894 4.51938 22.9233 5.65546L18.0935 10.8025C19.1641 13.0428 19.0173 15.7499 17.5561 17.8998L17.4066 18.1198C16.1505 19.9681 14.4607 21.4805 12.485 22.5249L10.6221 23.5096C10.2249 23.7196 9.74794 23.7122 9.35734 23.4901L9.2728 23.4421C5.59278 21.3497 2.5476 18.2943 0.465587 14.609C0.101879 13.9652 0.340089 13.1463 0.995926 12.7996L3.44266 11.5063C4.65594 10.865 5.69365 9.93617 6.46505 8.80113C8.1894 6.26392 11.4294 5.49412 14.0337 6.69507L18.7149 1.70643ZM16.0578 8.19159L16.6033 8.73709L21.1003 3.94476C21.2427 3.79297 21.2389 3.55552 21.0917 3.40833C20.9378 3.25438 20.687 3.25836 20.538 3.41713L16.0578 8.19159ZM7.5408 11.4578L14.4115 17.8991C13.5331 18.8776 12.4862 19.6965 11.3167 20.3146L10.0358 20.9918C9.61251 20.7362 9.19921 20.466 8.79653 20.1821C9.54906 19.7624 10.2435 19.239 10.8584 18.6242L10.9045 18.5781C11.3926 18.0899 11.3926 17.2985 10.9045 16.8103C10.4163 16.3222 9.62487 16.3222 9.13672 16.8103L9.09061 16.8564C8.39325 17.5538 7.55613 18.0906 6.6379 18.4338C6.51883 18.3235 6.40105 18.2118 6.2846 18.0988C6.54445 17.9335 6.79224 17.7482 7.02556 17.544C7.5451 17.0894 7.59775 16.2997 7.14315 15.7802C6.68854 15.2606 5.89884 15.208 5.37929 15.6626C5.13034 15.8804 4.85343 16.0618 4.55693 16.2026C4.09909 15.6336 3.67045 15.0399 3.27318 14.4237L4.61097 13.7165C5.71257 13.1342 6.70263 12.3693 7.5408 11.4578ZM15.8632 15.8332C16.6696 14.0917 16.3257 11.995 14.9314 10.6007L14.0185 9.68786C12.6533 8.32268 10.509 8.31703 9.13393 9.52455L15.8632 15.8332Z" fill="black"/>
</svg>
