<svg width="24" height="24" viewBox="0 0 24 24" fill="none" xmlns="http://www.w3.org/2000/svg">
<path fill-rule="evenodd" clip-rule="evenodd" d="M19.2614 2.21964C20.0866 1.34019 21.4759 1.31811 22.3287 2.17089C23.144 2.98619 23.1649 4.30146 22.3759 5.14225L17.1804 10.679C18.3877 12.7621 18.3419 15.4086 16.9353 17.4782L16.7858 17.6983C15.5985 19.4452 14.0014 20.8747 12.134 21.8618L10.2712 22.8465C10.1004 22.9368 9.89543 22.9336 9.72755 22.8382L9.643 22.7901C6.08109 20.7649 3.13342 17.8074 1.11809 14.2401C0.961815 13.9634 1.06419 13.6116 1.34593 13.4627L3.79266 12.1694C5.11426 11.4708 6.2446 10.4591 7.08486 9.22271C8.70231 6.84278 11.8411 6.23692 14.1905 7.62355L19.2614 2.21964ZM16.1683 9.36329C16.3207 9.5157 16.464 9.67421 16.5981 9.83808L21.6467 4.45797C22.0662 4.01089 22.0551 3.31152 21.6216 2.878C21.1681 2.42455 20.4294 2.43629 19.9906 2.90392L15.0059 8.21599C15.0908 8.2909 15.1741 8.36904 15.2554 8.45042L16.1683 9.36329ZM7.87025 9.84565L15.4541 17.8244C14.4268 19.1252 13.1376 20.2002 11.6667 20.9777L10.0151 21.8508C9.07975 21.3109 8.18937 20.7034 7.35032 20.0349C8.46314 19.6031 9.478 18.9434 10.3276 18.0939L10.3737 18.0478C10.5689 17.8525 10.5689 17.5359 10.3737 17.3407C10.1784 17.1454 9.86182 17.1454 9.66656 17.3407L9.62045 17.3868C8.73693 18.2703 7.65119 18.9215 6.46011 19.2856C5.96559 18.8461 5.49152 18.3843 5.0394 17.9016C5.58221 17.6795 6.08664 17.3686 6.53119 16.9796C6.73901 16.7978 6.76006 16.4819 6.57822 16.2741C6.39638 16.0662 6.0805 16.0452 5.87268 16.227C5.42096 16.6223 4.89312 16.9184 4.32335 17.0981C3.54063 16.1745 2.83408 15.1839 2.2129 14.1355L4.25998 13.0535C5.70425 12.29 6.94262 11.1895 7.87025 9.84565ZM16.0508 17.0007L16.1083 16.9161C17.5636 14.7747 17.292 11.9012 15.4612 10.0704L14.5483 9.15753C12.8553 7.46447 10.1717 7.49987 8.5155 9.07299L16.0508 17.0007Z" fill="black"/>
</svg>
