<svg width="24" height="24" viewBox="0 0 24 24" fill="none" xmlns="http://www.w3.org/2000/svg">
<path fill-rule="evenodd" clip-rule="evenodd" d="M3.32698 5.13827C3 5.78001 3 6.62009 3 8.30024L3 18.7002C3 20.3804 3 21.2205 3.32698 21.8622C3.6146 22.4267 4.07354 22.8856 4.63803 23.1733C5.27976 23.5002 6.11984 23.5002 7.8 23.5002H16.2C17.8802 23.5002 18.7202 23.5002 19.362 23.1733C19.9265 22.8856 20.3854 22.4267 20.673 21.8622C21 21.2205 21 20.3804 21 18.7002V8.30024C21 6.62009 21 5.78001 20.673 5.13827C20.3854 4.57379 19.9265 4.11485 19.362 3.82722C19.0057 3.64568 18.5883 3.56494 17.9999 3.52902C18 3.51944 18 3.50985 18 3.50024C18 1.84339 16.6569 0.500244 15 0.500244L9 0.500244C7.34315 0.500245 6 1.84339 6 3.50024C6 3.50985 6.00005 3.51944 6.00014 3.52902C5.41175 3.56494 4.99432 3.64569 4.63803 3.82723C4.07354 4.11485 3.6146 4.57379 3.32698 5.13827ZM8 3.50024C8 4.05253 8.44772 4.50024 9 4.50024L15 4.50024C15.5523 4.50024 16 4.05253 16 3.50024C16 2.94796 15.5523 2.50024 15 2.50024L9 2.50024C8.44772 2.50024 8 2.94796 8 3.50024ZM7.25 17.3752C7.25 16.823 7.69772 16.3752 8.25 16.3752H16.25C16.8023 16.3752 17.25 16.823 17.25 17.3752C17.25 17.9275 16.8023 18.3752 16.25 18.3752L8.25 18.3752C7.69772 18.3752 7.25 17.9275 7.25 17.3752ZM7.25 11.3752C7.25 10.823 7.69772 10.3752 8.25 10.3752H16.25C16.8023 10.3752 17.25 10.823 17.25 11.3752C17.25 11.9275 16.8023 12.3752 16.25 12.3752H8.25C7.69772 12.3752 7.25 11.9275 7.25 11.3752Z" fill="black"/>
</svg>
