<svg width="24" height="24" viewBox="0 0 24 24" fill="none" xmlns="http://www.w3.org/2000/svg">
<path d="M3.34477 20.9039C0.661278 18.2204 0.66128 13.8696 3.34478 11.1861L12.3773 2.15359C14.2657 0.265208 17.3274 0.26521 19.2158 2.15359C21.1041 4.04197 21.1041 7.10365 19.2158 8.99203L11.9979 16.2098C10.9049 17.3029 9.13265 17.3029 8.03958 16.2098C6.94651 15.1168 6.9465 13.3446 8.03958 12.2515L15.2574 5.03367C15.5503 4.74078 16.0252 4.74078 16.3181 5.03367C16.6109 5.32656 16.6109 5.80144 16.3181 6.09433L9.10024 13.3122C8.59295 13.8194 8.59295 14.6419 9.10024 15.1492C9.60752 15.6565 10.43 15.6565 10.9373 15.1492L18.1551 7.93137C19.4577 6.62877 19.4577 4.51685 18.1551 3.21425C16.8525 1.91166 14.7406 1.91166 13.438 3.21425L4.40544 12.2468C2.30773 14.3445 2.30773 17.7456 4.40543 19.8433C6.50314 21.941 9.90421 21.941 12.0019 19.8433L21.7567 10.0885C22.0496 9.79562 22.5244 9.79562 22.8173 10.0885C23.1102 10.3814 23.1102 10.8563 22.8173 11.1492L13.0626 20.9039C10.3791 23.5874 6.02827 23.5874 3.34477 20.9039Z" fill="black"/>
</svg>
