<svg width="24" height="24" viewBox="0 0 24 24" fill="none" xmlns="http://www.w3.org/2000/svg">
<path d="M8.25 10.2498C8.11193 10.2498 8 10.3617 8 10.4998C8 10.6378 8.11193 10.7498 8.25 10.7498H16.25C16.3881 10.7498 16.5 10.6378 16.5 10.4998C16.5 10.3617 16.3881 10.2498 16.25 10.2498H8.25Z" fill="black"/>
<path d="M8 16.4998C8 16.3617 8.11193 16.2498 8.25 16.2498H16.25C16.3881 16.2498 16.5 16.3617 16.5 16.4998C16.5 16.6378 16.3881 16.7498 16.25 16.7498H8.25C8.11193 16.7498 8 16.6378 8 16.4998Z" fill="black"/>
<path fill-rule="evenodd" clip-rule="evenodd" d="M16.4793 2.37481C17.1811 2.37526 17.7366 2.37935 18.1908 2.41646C18.7065 2.4586 19.1135 2.54454 19.4755 2.72898C20.087 3.04057 20.5842 3.53776 20.8958 4.14929C21.0802 4.51127 21.1662 4.91829 21.2083 5.434C21.25 5.94442 21.25 6.58283 21.25 7.4131V17.8363C21.25 18.6666 21.25 19.3051 21.2083 19.8155C21.1662 20.3312 21.0802 20.7382 20.8958 21.1002C20.5842 21.7118 20.087 22.2089 19.4755 22.5205C19.1135 22.705 18.7065 22.7909 18.1908 22.8331C17.6803 22.8748 17.0419 22.8748 16.2117 22.8748H7.78846C6.9582 22.8748 6.31966 22.8748 5.80925 22.8331C5.29353 22.7909 4.88652 22.705 4.52453 22.5205C3.913 22.2089 3.41582 21.7118 3.10423 21.1002C2.91979 20.7382 2.83384 20.3312 2.7917 19.8155C2.75 19.3051 2.75 18.6666 2.75 17.8363L2.75 7.41323C2.75 6.5829 2.75 5.94444 2.7917 5.434C2.83384 4.91829 2.91979 4.51127 3.10423 4.14929C3.41582 3.53776 3.913 3.04057 4.52453 2.72899C4.88652 2.54454 5.29353 2.4586 5.80925 2.41646C6.26341 2.37935 6.81891 2.37526 7.52074 2.37481C7.63973 1.66536 8.25673 1.12476 9 1.12476L15 1.12476C15.7433 1.12476 16.3603 1.66536 16.4793 2.37481ZM8.03151 2.37476C8.01094 2.45466 8 2.53843 8 2.62476C8 2.71108 8.01094 2.79485 8.03151 2.87476C8.14252 3.30606 8.53404 3.62476 9 3.62476L15 3.62476C15.466 3.62476 15.8575 3.30606 15.9685 2.87476C15.9891 2.79485 16 2.71108 16 2.62476C16 2.53843 15.9891 2.45466 15.9685 2.37476C15.8575 1.94345 15.466 1.62476 15 1.62476L9 1.62476C8.53404 1.62476 8.14252 1.94345 8.03151 2.37476ZM16.4792 2.87482C17.183 2.87531 17.7178 2.87948 18.15 2.9148C18.6348 2.95441 18.9687 3.03195 19.2485 3.17449C19.7659 3.43814 20.1866 3.85884 20.4503 4.37628C20.5928 4.65603 20.6703 4.98992 20.71 5.47472C20.7498 5.96243 20.75 6.58055 20.75 7.42476V17.8248C20.75 18.669 20.7498 19.2871 20.71 19.7748C20.6703 20.2596 20.5928 20.5935 20.4503 20.8732C20.1866 21.3907 19.7659 21.8114 19.2485 22.075C18.9687 22.2176 18.6348 22.2951 18.15 22.3347C17.6623 22.3746 17.0442 22.3748 16.2 22.3748H7.8C6.9558 22.3748 6.33768 22.3746 5.84996 22.3347C5.36517 22.2951 5.03128 22.2176 4.75153 22.075C4.23408 21.8114 3.81338 21.3907 3.54973 20.8732C3.40719 20.5935 3.32965 20.2596 3.29004 19.7748C3.25019 19.2871 3.25 18.669 3.25 17.8248L3.25 7.42476C3.25 6.58055 3.25019 5.96244 3.29004 5.47472C3.32965 4.98992 3.40719 4.65603 3.54973 4.37628C3.81338 3.85884 4.23408 3.43814 4.75153 3.17449C5.03128 3.03195 5.36517 2.95441 5.84996 2.9148C6.28224 2.87948 6.81697 2.87531 7.52076 2.87482C7.6398 3.58422 8.25677 4.12476 9 4.12476L15 4.12476C15.7432 4.12476 16.3602 3.58422 16.4792 2.87482Z" fill="black"/>
</svg>
