<svg width="24" height="24" viewBox="0 0 24 24" fill="none" xmlns="http://www.w3.org/2000/svg">
<path d="M8.25 10.1248C7.97386 10.1248 7.75 10.3486 7.75 10.6248C7.75 10.9009 7.97386 11.1248 8.25 11.1248H16.25C16.5261 11.1248 16.75 10.9009 16.75 10.6248C16.75 10.3486 16.5261 10.1248 16.25 10.1248H8.25Z" fill="black"/>
<path d="M7.75 16.6248C7.75 16.3486 7.97386 16.1248 8.25 16.1248H16.25C16.5261 16.1248 16.75 16.3486 16.75 16.6248C16.75 16.9009 16.5261 17.1248 16.25 17.1248H8.25C7.97386 17.1248 7.75 16.9009 7.75 16.6248Z" fill="black"/>
<path fill-rule="evenodd" clip-rule="evenodd" d="M16.9373 2.25102C17.4325 2.25384 17.8519 2.26294 18.2111 2.29229C18.7423 2.33569 19.1859 2.42584 19.589 2.63123C20.2475 2.96679 20.783 3.50222 21.1185 4.16079C21.3239 4.56389 21.4141 5.00747 21.4575 5.53865C21.5 6.0593 21.5 6.70627 21.5 7.52754V17.972C21.5 18.7932 21.5 19.4402 21.4575 19.9609C21.4141 20.492 21.3239 20.9356 21.1185 21.3387C20.783 21.9973 20.2475 22.5327 19.589 22.8683C19.1859 23.0737 18.7423 23.1638 18.2111 23.2072C17.6905 23.2498 17.0435 23.2498 16.2222 23.2498H7.77778C6.95651 23.2498 6.30954 23.2498 5.78889 23.2072C5.25771 23.1638 4.81414 23.0737 4.41103 22.8683C3.75247 22.5327 3.21703 21.9973 2.88148 21.3387C2.67609 20.9356 2.58593 20.492 2.54253 19.9609C2.49999 19.4402 2.5 18.7932 2.5 17.972L2.5 7.52755C2.5 6.70629 2.5 6.0593 2.54253 5.53865C2.58593 5.00747 2.67609 4.56389 2.88148 4.16079C3.21703 3.50222 3.75247 2.96679 4.41103 2.63123C4.81414 2.42584 5.25771 2.33569 5.78889 2.29229C6.14811 2.26294 6.56745 2.25384 7.06269 2.25102C7.28427 1.38777 8.06763 0.749756 9 0.749756L15 0.749756C15.9324 0.749756 16.7157 1.38777 16.9373 2.25102ZM8.13378 2.24976C8.0487 2.39684 8 2.56761 8 2.74976C8 2.9319 8.0487 3.10267 8.13378 3.24976C8.30669 3.54866 8.62986 3.74976 9 3.74976L15 3.74976C15.3701 3.74976 15.6933 3.54866 15.8662 3.24976C15.9513 3.10267 16 2.9319 16 2.74976C16 2.56761 15.9513 2.39684 15.8662 2.24976C15.6933 1.95086 15.3701 1.74976 15 1.74976L9 1.74976C8.62986 1.74976 8.30669 1.95086 8.13378 2.24976ZM16.9366 3.25108C17.4191 3.25386 17.805 3.26244 18.1297 3.28897C18.599 3.32731 18.8963 3.40065 19.135 3.52224C19.6054 3.76192 19.9878 4.14437 20.2275 4.61478C20.3491 4.85341 20.4224 5.15074 20.4608 5.62008C20.4996 6.09525 20.5 6.70143 20.5 7.54976V17.9498C20.5 18.7981 20.4996 19.4043 20.4608 19.8794C20.4224 20.3488 20.3491 20.6461 20.2275 20.8847C19.9878 21.3551 19.6054 21.7376 19.135 21.9773C18.8963 22.0989 18.599 22.1722 18.1297 22.2105C17.6545 22.2494 17.0483 22.2498 16.2 22.2498H7.8C6.95167 22.2498 6.3455 22.2494 5.87032 22.2105C5.40099 22.1722 5.10366 22.0989 4.86502 21.9773C4.39462 21.7376 4.01217 21.3551 3.77248 20.8847C3.65089 20.6461 3.57756 20.3488 3.53921 19.8794C3.50039 19.4043 3.5 18.7981 3.5 17.9498L3.5 7.54976C3.5 6.70143 3.50039 6.09525 3.53921 5.62008C3.57756 5.15074 3.65089 4.85341 3.77248 4.61478C4.01217 4.14438 4.39462 3.76192 4.86502 3.52224C5.10366 3.40065 5.40099 3.32731 5.87032 3.28897C6.19501 3.26244 6.58087 3.25386 7.06335 3.25108C7.28584 4.11302 8.06856 4.74976 9 4.74976L15 4.74976C15.9314 4.74976 16.7142 4.11302 16.9366 3.25108Z" fill="black"/>
</svg>
