<svg width="24" height="24" viewBox="0 0 24 24" fill="none" xmlns="http://www.w3.org/2000/svg">
<path d="M2.9911 21.2575C0.11234 18.3787 0.112343 13.7113 2.9911 10.8326L12.0236 1.80004C14.1073 -0.283607 17.4855 -0.283606 19.5692 1.80004C21.6528 3.88368 21.6528 7.26194 19.5692 9.34558L12.3514 16.5634C11.063 17.8517 8.97423 17.8517 7.6859 16.5634C6.39757 15.2751 6.39757 13.1863 7.6859 11.8979L14.9037 4.68012C15.3919 4.19196 16.1833 4.19196 16.6715 4.68012C17.1596 5.16827 17.1596 5.95973 16.6715 6.44788L9.45367 13.6657C9.14165 13.9777 9.14164 14.4836 9.45367 14.7956C9.76569 15.1077 10.2716 15.1077 10.5836 14.7956L17.8014 7.57782C18.9087 6.47048 18.9087 4.67514 17.8014 3.5678C16.6941 2.46047 14.8987 2.46047 13.7914 3.5678L4.75887 12.6003C2.85642 14.5028 2.85642 17.5873 4.75887 19.4897C6.66131 21.3922 9.74579 21.3922 11.6482 19.4897L21.403 9.73496C21.8912 9.2468 22.6826 9.2468 23.1708 9.73496C23.6589 10.2231 23.6589 11.0146 23.1708 11.5027L13.416 21.2575C10.5372 24.1362 5.86986 24.1362 2.9911 21.2575Z" fill="black"/>
</svg>
