<svg width="24" height="24" viewBox="0 0 24 24" fill="none" xmlns="http://www.w3.org/2000/svg">
<path d="M3.69833 20.5504C1.21009 18.0621 1.2101 14.0279 3.69833 11.5397L12.7309 2.50714C14.424 0.814024 17.1691 0.814025 18.8622 2.50714C20.5553 4.20026 20.5553 6.94536 18.8622 8.63848L11.6444 15.8563C10.7466 16.7541 9.29094 16.7541 8.39313 15.8563C7.49532 14.9585 7.49532 13.5029 8.39313 12.605L15.6109 5.38722C15.7086 5.28959 15.8669 5.28959 15.9645 5.38722C16.0621 5.48485 16.0621 5.64315 15.9645 5.74078L8.74668 12.9586C8.04414 13.6611 8.04414 14.8002 8.74668 15.5027C9.44923 16.2053 10.5883 16.2053 11.2908 15.5027L18.5086 8.28492C20.0065 6.78707 20.0065 4.35856 18.5086 2.8607C17.0108 1.36284 14.5823 1.36284 13.0844 2.8607L4.05188 11.8932C1.75891 14.1862 1.75891 17.9039 4.05188 20.1968C6.34485 22.4898 10.0625 22.4898 12.3555 20.1968L22.1102 10.4421C22.2079 10.3444 22.3662 10.3444 22.4638 10.4421C22.5614 10.5397 22.5614 10.698 22.4638 10.7956L12.709 20.5504C10.2208 23.0386 6.18656 23.0386 3.69833 20.5504Z" fill="black"/>
</svg>
