<svg width="24" height="26" viewBox="0 0 24 26" fill="none" xmlns="http://www.w3.org/2000/svg">
<path d="M8.25 10.9998C7.69772 10.9998 7.25 11.4475 7.25 11.9998C7.25 12.552 7.69772 12.9998 8.25 12.9998H16.25C16.8023 12.9998 17.25 12.552 17.25 11.9998C17.25 11.4475 16.8023 10.9998 16.25 10.9998H8.25Z" fill="black"/>
<path d="M7.25 17.9998C7.25 17.4475 7.69772 16.9998 8.25 16.9998H16.25C16.8023 16.9998 17.25 17.4475 17.25 17.9998C17.25 18.552 16.8023 18.9998 16.25 18.9998H8.25C7.69772 18.9998 7.25 18.552 7.25 17.9998Z" fill="black"/>
<path fill-rule="evenodd" clip-rule="evenodd" d="M18.2875 2.92105C18.8595 2.9688 19.4077 3.07211 19.9295 3.33798C20.7291 3.74544 21.3793 4.39561 21.7868 5.1953C22.055 5.72175 22.1578 6.27501 22.205 6.85257C22.25 7.40406 22.25 8.07725 22.25 8.87482L22.25 19.3746C22.25 20.1722 22.25 20.8454 22.205 21.3969C22.1578 21.9745 22.055 22.5278 21.7868 23.0542C21.3793 23.8539 20.7292 24.5041 19.9295 24.9115C19.403 25.1798 18.8497 25.2825 18.2722 25.3297C17.7207 25.3748 17.0475 25.3748 16.2499 25.3748H7.75012C6.95256 25.3748 6.2793 25.3748 5.72782 25.3297C5.15026 25.2825 4.597 25.1798 4.07054 24.9115C3.27085 24.5041 2.62069 23.8539 2.21322 23.0542C1.94498 22.5278 1.84221 21.9745 1.79503 21.3969C1.74997 20.8454 1.74998 20.1722 1.75 19.3746L1.75 8.87491C1.74998 8.0773 1.74997 7.40408 1.79503 6.85257C1.84221 6.27502 1.94498 5.72175 2.21322 5.1953C2.62069 4.39561 3.27085 3.74544 4.07054 3.33798C4.59234 3.07211 5.14047 2.9688 5.71249 2.92105C6.20327 1.58104 7.48996 0.624756 9 0.624756L15 0.624756C16.51 0.624756 17.7967 1.58104 18.2875 2.92105ZM18.2488 5.42931C18.5479 5.4648 18.6971 5.51585 18.7945 5.56549C19.1238 5.73327 19.3915 6.00099 19.5593 6.33027C19.618 6.44556 19.6787 6.6332 19.7133 7.05615C19.749 7.4937 19.75 8.06405 19.75 8.92476L19.75 19.3248C19.75 20.1855 19.749 20.7558 19.7133 21.1934C19.6787 21.6163 19.618 21.804 19.5593 21.9192C19.3915 22.2485 19.1238 22.5162 18.7945 22.684C18.6792 22.7428 18.4916 22.8035 18.0686 22.838C17.6311 22.8738 17.0607 22.8748 16.2 22.8748H7.8C6.9393 22.8748 6.36895 22.8738 5.9314 22.838C5.50844 22.8035 5.3208 22.7428 5.20552 22.684C4.87624 22.5162 4.60852 22.2485 4.44074 21.9192C4.382 21.804 4.32128 21.6163 4.28672 21.1934C4.25097 20.7558 4.25 20.1855 4.25 19.3248V8.92476C4.25 8.06405 4.25097 7.4937 4.28672 7.05615C4.32128 6.6332 4.382 6.44556 4.44074 6.33027C4.60852 6.00099 4.87624 5.73327 5.20552 5.5655C5.30295 5.51585 5.45206 5.46479 5.75121 5.42931C6.26844 6.71619 7.52812 7.62476 9 7.62476L15 7.62476C16.4719 7.62476 17.7316 6.71619 18.2488 5.42931ZM8 4.12476C8 3.57247 8.44772 3.12476 9 3.12476L15 3.12476C15.5523 3.12476 16 3.57247 16 4.12476C16 4.67704 15.5523 5.12476 15 5.12476L9 5.12476C8.96548 5.12476 8.93138 5.12301 8.89776 5.11959C8.3935 5.06838 8 4.64252 8 4.12476Z" fill="black"/>
</svg>
