<svg width="24" height="24" viewBox="0 0 24 24" fill="none" xmlns="http://www.w3.org/2000/svg">
<path fill-rule="evenodd" clip-rule="evenodd" d="M3.32698 4.88827C3 5.53001 3 6.37009 3 8.05024L3 18.4502C3 20.1304 3 20.9705 3.32698 21.6122C3.6146 22.1767 4.07354 22.6356 4.63803 22.9233C5.27976 23.2502 6.11984 23.2502 7.8 23.2502H16.2C17.8802 23.2502 18.7202 23.2502 19.362 22.9233C19.9265 22.6356 20.3854 22.1767 20.673 21.6122C21 20.9705 21 20.1304 21 18.4502V8.05024C21 6.37009 21 5.53001 20.673 4.88827C20.3854 4.32379 19.9265 3.86485 19.362 3.57722C18.9123 3.3481 18.3652 3.27953 17.5 3.25901C17.5 3.25609 17.5 3.25317 17.5 3.25024C17.5 1.86953 16.3807 0.750244 15 0.750244L9 0.750244C7.61929 0.750245 6.5 1.86953 6.5 3.25024C6.5 3.25317 6.50001 3.25609 6.50002 3.25901C5.63477 3.27953 5.08771 3.3481 4.63803 3.57723C4.07354 3.86485 3.6146 4.32379 3.32698 4.88827ZM8 3.25024C8 3.80253 8.44772 4.25024 9 4.25024L15 4.25024C15.5523 4.25024 16 3.80253 16 3.25024C16 2.69796 15.5523 2.25024 15 2.25024L9 2.25024C8.44772 2.25024 8 2.69796 8 3.25024ZM7.5 17.1252C7.5 16.711 7.83579 16.3752 8.25 16.3752H16.25C16.6642 16.3752 17 16.711 17 17.1252C17 17.5395 16.6642 17.8752 16.25 17.8752L8.25 17.8752C7.83579 17.8752 7.5 17.5395 7.5 17.1252ZM7.5 11.1252C7.5 10.711 7.83579 10.3752 8.25 10.3752H16.25C16.6642 10.3752 17 10.711 17 11.1252C17 11.5395 16.6642 11.8752 16.25 11.8752H8.25C7.83579 11.8752 7.5 11.5395 7.5 11.1252Z" fill="black"/>
</svg>
