<svg width="24" height="24" viewBox="0 0 24 24" fill="none" xmlns="http://www.w3.org/2000/svg">
<path d="M9.0007 0.5C8.72456 0.5 8.5007 0.723858 8.5007 1C8.5007 1.27614 8.72456 1.5 9.0007 1.5H15.0007C15.2768 1.5 15.5007 1.27614 15.5007 1C15.5007 0.723858 15.2768 0.5 15.0007 0.5H9.0007Z" fill="black"/>
<path fill-rule="evenodd" clip-rule="evenodd" d="M21.7663 13C21.7663 18.3944 17.3933 22.7674 11.9989 22.7674C6.60448 22.7674 2.23145 18.3944 2.23145 13C2.23145 7.60559 6.60448 3.23256 11.9989 3.23256C17.3933 3.23256 21.7663 7.60559 21.7663 13ZM12.4988 6.55814C12.4988 6.282 12.2749 6.05814 11.9988 6.05814C11.7226 6.05814 11.4988 6.282 11.4988 6.55814V11.854C11.0573 12.0469 10.7488 12.4874 10.7488 13C10.7488 13.6904 11.3084 14.25 11.9988 14.25C12.5113 14.25 12.9518 13.9415 13.1447 13.5H18.4406C18.7168 13.5 18.9406 13.2761 18.9406 13C18.9406 12.7239 18.7168 12.5 18.4406 12.5H13.1447C13.0188 12.2116 12.7871 11.98 12.4988 11.854V6.55814ZM14.0328 6.66589C14.1301 6.40746 14.4185 6.27686 14.6769 6.37418C16.4959 7.05917 17.9411 8.5047 18.6256 10.3239C18.7229 10.5824 18.5922 10.8707 18.3337 10.968C18.0753 11.0652 17.7869 10.9345 17.6897 10.6761C17.1066 9.12636 15.8741 7.89354 14.3245 7.31002C14.0661 7.2127 13.9355 6.92431 14.0328 6.66589Z" fill="black"/>
</svg>
