<svg width="24" height="24" viewBox="0 0 24 24" fill="none" xmlns="http://www.w3.org/2000/svg">
<path d="M8.99854 0.75C8.86046 0.75 8.74854 0.861929 8.74854 1C8.74854 1.13807 8.86046 1.25 8.99854 1.25H14.9985C15.1366 1.25 15.2485 1.13807 15.2485 1C15.2485 0.861929 15.1366 0.75 14.9985 0.75H8.99854Z" fill="black"/>
<path d="M14.2646 6.75399C14.3132 6.62478 14.4574 6.55948 14.5866 6.60814C16.3383 7.26777 17.7303 8.66011 18.3894 10.412C18.4381 10.5412 18.3727 10.6854 18.2435 10.734C18.1143 10.7826 17.9701 10.7173 17.9215 10.588C17.313 8.97095 16.0273 7.68495 14.4104 7.07606C14.2812 7.0274 14.2159 6.88321 14.2646 6.75399Z" fill="black"/>
<path d="M11.997 13.75C12.3236 13.75 12.6014 13.5413 12.7043 13.25H18.4387C18.5767 13.25 18.6887 13.1381 18.6887 13C18.6887 12.8619 18.5767 12.75 18.4387 12.75H12.7043C12.629 12.5368 12.46 12.3679 12.2468 12.2926V6.55814C12.2468 6.42007 12.1349 6.30814 11.9968 6.30814C11.8587 6.30814 11.7468 6.42007 11.7468 6.55814V12.2927C11.4556 12.3958 11.247 12.6735 11.247 13C11.247 13.4142 11.5828 13.75 11.997 13.75Z" fill="black"/>
<path fill-rule="evenodd" clip-rule="evenodd" d="M1.97949 13C1.97949 7.46752 6.46445 2.98256 11.9969 2.98256C17.5294 2.98256 22.0144 7.46752 22.0144 13C22.0144 18.5325 17.5294 23.0174 11.9969 23.0174C6.46445 23.0174 1.97949 18.5325 1.97949 13ZM11.9969 3.48256C6.7406 3.48256 2.47949 7.74366 2.47949 13C2.47949 18.2563 6.7406 22.5174 11.9969 22.5174C17.2533 22.5174 21.5144 18.2563 21.5144 13C21.5144 7.74366 17.2533 3.48256 11.9969 3.48256Z" fill="black"/>
</svg>
