<svg width="24" height="24" viewBox="0 0 24 24" fill="none" xmlns="http://www.w3.org/2000/svg">
<path d="M9.00244 0.5C8.7263 0.5 8.50244 0.723858 8.50244 1C8.50244 1.27614 8.7263 1.5 9.00244 1.5H15.0024C15.2786 1.5 15.5024 1.27614 15.5024 1C15.5024 0.723858 15.2786 0.5 15.0024 0.5H9.00244Z" fill="black"/>
<path d="M14.0345 6.66589C14.1318 6.40746 14.4202 6.27686 14.6787 6.37418C16.4976 7.05917 17.9428 8.5047 18.6273 10.3239C18.7246 10.5824 18.5939 10.8707 18.3354 10.968C18.077 11.0652 17.7886 10.9345 17.6914 10.6761C17.1083 9.12636 15.8758 7.89354 14.3262 7.31002C14.0678 7.2127 13.9372 6.92431 14.0345 6.66589Z" fill="black"/>
<path d="M12.0009 14.25C12.5135 14.25 12.954 13.9415 13.1469 13.5H18.4426C18.7187 13.5 18.9426 13.2761 18.9426 13C18.9426 12.7239 18.7187 12.5 18.4426 12.5H13.1469C13.0209 12.2116 12.7892 11.9799 12.5007 11.8539V6.55814C12.5007 6.282 12.2768 6.05814 12.0007 6.05814C11.7246 6.05814 11.5007 6.282 11.5007 6.55814V11.8541C11.0593 12.047 10.7509 12.4875 10.7509 13C10.7509 13.6904 11.3106 14.25 12.0009 14.25Z" fill="black"/>
<path fill-rule="evenodd" clip-rule="evenodd" d="M1.7334 13C1.7334 7.32945 6.33029 2.73256 12.0008 2.73256C17.6714 2.73256 22.2683 7.32945 22.2683 13C22.2683 18.6706 17.6714 23.2674 12.0008 23.2674C6.33029 23.2674 1.7334 18.6706 1.7334 13ZM12.0008 3.73256C6.88257 3.73256 2.7334 7.88173 2.7334 13C2.7334 18.1183 6.88257 22.2674 12.0008 22.2674C17.1191 22.2674 21.2683 18.1183 21.2683 13C21.2683 7.88173 17.1191 3.73256 12.0008 3.73256Z" fill="black"/>
</svg>
