<svg width="24" height="24" viewBox="0 0 24 24" fill="none" xmlns="http://www.w3.org/2000/svg">
<path d="M8.19266 10.1927C8.29029 10.095 8.44858 10.095 8.54622 10.1927L11.3252 12.9715L14.1041 10.1927C14.2017 10.095 14.36 10.095 14.4577 10.1927C14.5553 10.2903 14.5553 10.4486 14.4577 10.5462L11.6787 13.325L14.4576 16.1038C14.5552 16.2014 14.5552 16.3597 14.4576 16.4573C14.3599 16.555 14.2017 16.555 14.104 16.4573L11.3252 13.6786L8.5463 16.4573C8.44867 16.555 8.29038 16.555 8.19275 16.4573C8.09512 16.3597 8.09512 16.2014 8.19276 16.1038L10.9716 13.325L8.19267 10.5462C8.09504 10.4486 8.09503 10.2903 8.19266 10.1927Z" fill="black"/>
<path fill-rule="evenodd" clip-rule="evenodd" d="M18 21H6.00983C6.0044 21 6 20.9956 6 20.9902C6 20.985 5.996 20.9808 5.99087 20.9804C2.63898 20.7207 1.49428e-07 17.9185 0 14.5C-1.07031e-07 12.0514 1.35391 9.91907 3.35394 8.81073C3.40639 8.78166 3.43263 8.76712 3.45233 8.75005C3.47091 8.73396 3.48432 8.71862 3.49778 8.69806C3.51207 8.67625 3.52287 8.64858 3.54446 8.59323C4.70761 5.6121 7.60715 3.5 11 3.5C14.4647 3.5 17.415 5.7025 18.5271 8.78374C18.5606 8.87652 18.5773 8.92291 18.6027 8.95493C18.6267 8.98527 18.6512 9.0052 18.6857 9.02268C18.7222 9.04112 18.7717 9.04833 18.8708 9.06274C21.7718 9.48454 24 11.9821 24 15C24 18.3137 21.3137 21 18 21ZM18 20.5H6.13048C6.09801 20.4907 6.06423 20.4845 6.02949 20.4818C2.93596 20.2422 0.5 17.6553 0.5 14.5C0.5 12.2404 1.74882 10.2719 3.5963 9.24807L3.60673 9.24235C3.64333 9.22236 3.71748 9.18188 3.77971 9.12797C3.83325 9.08159 3.87725 9.03126 3.91606 8.97201C3.96116 8.90315 3.99122 8.82463 4.00604 8.78595L4.01027 8.77496C5.10105 5.97931 7.81999 4 11 4C14.2474 4 17.0139 6.06411 18.0568 8.95349L18.0633 8.97194C18.0856 9.03562 18.1306 9.16424 18.2109 9.26557C18.2799 9.35255 18.3609 9.41871 18.46 9.46882C18.5363 9.50744 18.608 9.5247 18.6561 9.53438C18.6991 9.54305 18.7485 9.55022 18.7909 9.55638L18.7989 9.55754C21.4577 9.94412 23.5 12.234 23.5 15C23.5 18.0376 21.0376 20.5 18 20.5Z" fill="black"/>
</svg>
