<svg width="24" height="24" viewBox="0 0 24 24" fill="none" xmlns="http://www.w3.org/2000/svg">
<path fill-rule="evenodd" clip-rule="evenodd" d="M18 21C21.3137 21 24 18.3137 24 15C24 11.9821 21.7718 9.48454 18.8708 9.06274C18.7717 9.04833 18.7222 9.04112 18.6857 9.02268C18.6512 9.0052 18.6267 8.98527 18.6027 8.95493C18.5773 8.92291 18.5606 8.87652 18.5271 8.78374C17.415 5.7025 14.4647 3.5 11 3.5C7.60715 3.5 4.70761 5.6121 3.54447 8.59322C3.52287 8.64858 3.51207 8.67625 3.49778 8.69806C3.48432 8.71862 3.47091 8.73396 3.45233 8.75005C3.43263 8.76712 3.4064 8.78166 3.35395 8.81072C1.35392 9.91907 -1.07031e-07 12.0514 0 14.5C1.49428e-07 17.9185 2.63898 20.7207 5.99087 20.9804C5.996 20.9808 6 20.985 6 20.9902C6 20.9956 6.0044 21 6.00983 21H18ZM8.66328 10.6632C8.76091 10.5656 8.9192 10.5656 9.01683 10.6632L11.5002 13.1465L13.9836 10.6632C14.0812 10.5656 14.2395 10.5656 14.3372 10.6632C14.4348 10.7609 14.4348 10.9191 14.3372 11.0168L11.8538 13.5L14.3371 15.9832C14.4347 16.0808 14.4347 16.2391 14.3371 16.3368C14.2395 16.4344 14.0812 16.4344 13.9835 16.3368L11.5002 13.8536L9.01691 16.3368C8.91928 16.4344 8.76098 16.4344 8.66336 16.3368C8.56573 16.2391 8.56573 16.0808 8.66336 15.9832L11.1467 13.5L8.66328 11.0168C8.56565 10.9191 8.56565 10.7609 8.66328 10.6632Z" fill="black"/>
</svg>
