<svg width="24" height="24" viewBox="0 0 24 24" fill="none" xmlns="http://www.w3.org/2000/svg">
<path fill-rule="evenodd" clip-rule="evenodd" d="M18 21C21.3137 21 24 18.3137 24 15C24 11.9821 21.7718 9.48454 18.8708 9.06274C18.7717 9.04833 18.7222 9.04112 18.6857 9.02268C18.6512 9.0052 18.6267 8.98527 18.6027 8.95493C18.5773 8.92291 18.5606 8.87652 18.5271 8.78374C17.415 5.7025 14.4647 3.5 11 3.5C7.60715 3.5 4.70761 5.6121 3.54447 8.59322C3.52287 8.64858 3.51207 8.67625 3.49778 8.69806C3.48432 8.71862 3.47091 8.73396 3.45233 8.75005C3.43263 8.76712 3.4064 8.78166 3.35395 8.81072C1.35392 9.91907 -1.07031e-07 12.0514 0 14.5C1.49428e-07 17.9185 2.63898 20.7207 5.99087 20.9804C5.996 20.9808 6 20.985 6 20.9902C6 20.9956 6.0044 21 6.00983 21H18ZM12.1071 9.8539C11.8142 9.56101 11.3393 9.56101 11.0464 9.8539L8.94927 11.951C8.65638 12.2439 8.65638 12.7188 8.94927 13.0117C9.24217 13.3046 9.71704 13.3046 10.0099 13.0117L10.8267 12.1949V16.4907C10.8267 16.9049 11.1625 17.2407 11.5767 17.2407C11.991 17.2407 12.3267 16.9049 12.3267 16.4907V12.1949L13.1436 13.0117C13.4364 13.3046 13.9113 13.3046 14.2042 13.0117C14.4971 12.7188 14.4971 12.2439 14.2042 11.951L12.1071 9.8539Z" fill="black"/>
</svg>
