<svg width="24" height="24" viewBox="0 0 24 24" fill="none" xmlns="http://www.w3.org/2000/svg">
<path d="M12.2025 8.5182C11.8569 8.18047 11.2965 8.18047 10.9508 8.5182L8.62837 10.7875C8.28273 11.1252 8.28273 11.6728 8.62837 12.0105C8.97402 12.3482 9.53442 12.3482 9.88006 12.0105L10.7017 11.2077L10.7017 15.7375C10.7017 16.2207 11.0934 16.6125 11.5767 16.6125C12.0599 16.6125 12.4517 16.2207 12.4517 15.7375L12.4517 11.2077L13.2733 12.0105C13.6189 12.3482 14.1793 12.3482 14.525 12.0105C14.8706 11.6728 14.8706 11.1252 14.525 10.7875L12.2025 8.5182Z" fill="black"/>
<path fill-rule="evenodd" clip-rule="evenodd" d="M18 21H6.00983C6.0044 21 6 20.9956 6 20.9902C6 20.985 5.996 20.9808 5.99087 20.9804C2.63898 20.7207 1.49428e-07 17.9185 0 14.5C-1.07031e-07 12.0514 1.35391 9.91907 3.35394 8.81073C3.40639 8.78166 3.43263 8.76712 3.45233 8.75005C3.47091 8.73396 3.48432 8.71862 3.49778 8.69806C3.51207 8.67625 3.52287 8.64858 3.54446 8.59323C4.70761 5.6121 7.60715 3.5 11 3.5C14.4647 3.5 17.415 5.7025 18.5271 8.78374C18.5606 8.87652 18.5773 8.92291 18.6027 8.95493C18.6267 8.98527 18.6512 9.0052 18.6857 9.02268C18.7222 9.04112 18.7717 9.04833 18.8708 9.06274C21.7718 9.48454 24 11.9821 24 15C24 18.3137 21.3137 21 18 21ZM18 19H6.27085C6.2294 18.9942 6.18756 18.9896 6.14536 18.9863C3.82687 18.8067 2 16.8657 2 14.5C2 12.8075 2.93356 11.3303 4.32336 10.5601L4.32772 10.5577C4.34658 10.5473 4.3989 10.5184 4.44883 10.4882C4.51184 10.4502 4.63068 10.3754 4.76185 10.2617C4.92028 10.1245 5.05605 9.96918 5.17089 9.79383C5.26548 9.64941 5.32362 9.52231 5.35322 9.45407C5.37648 9.40043 5.39815 9.34468 5.40588 9.32479L5.40767 9.32018C6.28136 7.08092 8.45852 5.5 11 5.5C13.5954 5.5 15.8107 7.14894 16.6459 9.46273L16.6488 9.47089C16.661 9.50486 16.6922 9.59173 16.7269 9.67361C16.7693 9.77354 16.8625 9.97926 17.0355 10.1975C17.2392 10.4544 17.4903 10.6593 17.7828 10.8073C18.0334 10.9341 18.2556 10.9838 18.3599 11.0049C18.4468 11.0223 18.5379 11.0354 18.5742 11.0407L18.5831 11.0419C20.5152 11.3229 22 12.9898 22 15C22 17.2091 20.2091 19 18 19Z" fill="black"/>
</svg>
