<svg width="24" height="24" viewBox="0 0 24 24" fill="none" xmlns="http://www.w3.org/2000/svg">
<path d="M11.9304 9.03067C11.7352 8.83541 11.4186 8.83541 11.2233 9.03067L9.12618 11.1278C8.93092 11.3231 8.93092 11.6397 9.12618 11.8349C9.32144 12.0302 9.63803 12.0302 9.83329 11.8349L11.0769 10.5913V15.4907C11.0769 15.7669 11.3007 15.9907 11.5769 15.9907C11.853 15.9907 12.0769 15.7669 12.0769 15.4907V10.5913L13.3205 11.8349C13.5157 12.0302 13.8323 12.0302 14.0276 11.8349C14.2228 11.6397 14.2228 11.3231 14.0276 11.1278L11.9304 9.03067Z" fill="black"/>
<path fill-rule="evenodd" clip-rule="evenodd" d="M18 21H6.00983C6.0044 21 6 20.9956 6 20.9902C6 20.985 5.996 20.9808 5.99087 20.9804C2.63898 20.7207 1.49428e-07 17.9185 0 14.5C-1.07031e-07 12.0514 1.35391 9.91907 3.35394 8.81073C3.40639 8.78166 3.43263 8.76712 3.45233 8.75005C3.47091 8.73396 3.48432 8.71862 3.49778 8.69806C3.51207 8.67625 3.52287 8.64858 3.54446 8.59323C4.70761 5.6121 7.60715 3.5 11 3.5C14.4647 3.5 17.415 5.7025 18.5271 8.78374C18.5606 8.87652 18.5773 8.92291 18.6027 8.95493C18.6267 8.98527 18.6512 9.0052 18.6857 9.02268C18.7222 9.04112 18.7717 9.04833 18.8708 9.06274C21.7718 9.48454 24 11.9821 24 15C24 18.3137 21.3137 21 18 21ZM18 20H6.18866C6.14925 19.9921 6.10901 19.9865 6.06812 19.9833C3.23293 19.7637 1 17.3921 1 14.5C0.999999 12.4295 2.14373 10.6247 3.83865 9.6854L3.84242 9.68339C3.86738 9.67012 3.99708 9.60119 4.10709 9.50589C4.1956 9.42923 4.27019 9.3439 4.33434 9.24595C4.41401 9.1243 4.46476 8.98721 4.47457 8.96071L4.47607 8.9567C5.49448 6.34651 8.03283 4.5 11 4.5C14.03 4.5 16.6129 6.42572 17.5865 9.12324L17.5884 9.12915C17.602 9.17033 17.6764 9.39627 17.8191 9.57622C17.933 9.71984 18.0707 9.83223 18.2343 9.91497C18.3687 9.98298 18.4905 10.0111 18.5573 10.0245C18.6147 10.0361 18.6775 10.0452 18.7173 10.0509L18.727 10.0523C21.1435 10.4037 23 12.4859 23 15C23 17.7614 20.7614 20 18 20Z" fill="black"/>
</svg>
