<svg width="24" height="24" viewBox="0 0 24 24" fill="none" xmlns="http://www.w3.org/2000/svg">
<path fill-rule="evenodd" clip-rule="evenodd" d="M18 21C21.3137 21 24 18.3137 24 15C24 11.9821 21.7718 9.48454 18.8708 9.06274C18.7717 9.04833 18.7222 9.04112 18.6857 9.02268C18.6512 9.0052 18.6267 8.98527 18.6027 8.95493C18.5773 8.92291 18.5606 8.87652 18.5271 8.78374C17.415 5.7025 14.4647 3.5 11 3.5C7.60715 3.5 4.70761 5.6121 3.54447 8.59322C3.52287 8.64858 3.51207 8.67625 3.49778 8.69806C3.48432 8.71862 3.47091 8.73396 3.45233 8.75005C3.43263 8.76712 3.4064 8.78166 3.35395 8.81072C1.35392 9.91907 -1.0703e-07 12.0514 0 14.5C1.49428e-07 17.9185 2.63898 20.7207 5.99087 20.9804C5.996 20.9808 6 20.985 6 20.9902C6 20.9956 6.0044 21 6.00983 21H18ZM12.1955 9.76551C11.8538 9.4238 11.2997 9.4238 10.958 9.76551L8.86088 11.8627C8.51917 12.2044 8.51917 12.7584 8.86088 13.1001C9.20259 13.4418 9.75661 13.4418 10.0983 13.1001L10.7017 12.4967V16.4907C10.7017 16.974 11.0935 17.3657 11.5767 17.3657C12.06 17.3657 12.4517 16.974 12.4517 16.4907V12.4967L13.0552 13.1001C13.3969 13.4418 13.9509 13.4418 14.2926 13.1001C14.6343 12.7584 14.6343 12.2044 14.2926 11.8627L12.1955 9.76551Z" fill="black"/>
</svg>
