<svg width="24" height="24" viewBox="0 0 24 24" fill="none" xmlns="http://www.w3.org/2000/svg">
<path d="M8.31144 10.3119C8.5067 10.1167 8.82328 10.1167 9.01855 10.3119L11.3252 12.6184L13.6318 10.3119C13.827 10.1167 14.1436 10.1167 14.3389 10.3119C14.5341 10.5072 14.5341 10.8238 14.3389 11.019L12.0323 13.3255L14.3388 15.6319C14.5341 15.8272 14.5341 16.1438 14.3388 16.339C14.1435 16.5343 13.827 16.5343 13.6317 16.3391L11.3252 14.0326L9.01862 16.3391C8.82336 16.5343 8.50678 16.5343 8.31152 16.339C8.11626 16.1438 8.11627 15.8272 8.31153 15.6319L10.618 13.3255L8.31145 11.019C8.11619 10.8238 8.11618 10.5072 8.31144 10.3119Z" fill="black"/>
<path fill-rule="evenodd" clip-rule="evenodd" d="M18 21.0005H6.00983C6.0044 21.0005 6 20.9961 6 20.9907C6 20.9855 5.996 20.9812 5.99087 20.9808C2.63898 20.7211 1.49428e-07 17.919 0 14.5005C-1.07031e-07 12.0519 1.35391 9.91956 3.35394 8.81122C3.40639 8.78215 3.43263 8.76761 3.45233 8.75054C3.47091 8.73445 3.48432 8.71911 3.49778 8.69855C3.51207 8.67674 3.52287 8.64907 3.54446 8.59371C4.70761 5.61259 7.60715 3.50049 11 3.50049C14.4647 3.50049 17.415 5.70298 18.5271 8.78423C18.5606 8.87701 18.5773 8.9234 18.6027 8.95542C18.6267 8.98576 18.6512 9.00569 18.6857 9.02317C18.7222 9.04161 18.7717 9.04882 18.8708 9.06323C21.7718 9.48502 24 11.9825 24 15.0005C24 18.3142 21.3137 21.0005 18 21.0005ZM18 20.0005H6.18866C6.14925 19.9926 6.10901 19.987 6.06812 19.9838C3.23293 19.7642 1 17.3926 1 14.5005C0.999999 12.4299 2.14373 10.6252 3.83865 9.68589L3.84242 9.68388C3.86738 9.67061 3.99708 9.60168 4.10709 9.50638C4.1956 9.42971 4.27019 9.34439 4.33434 9.24644C4.41401 9.12479 4.46476 8.9877 4.47457 8.9612L4.47607 8.95719C5.49448 6.347 8.03283 4.50049 11 4.50049C14.03 4.50049 16.6129 6.42621 17.5865 9.12372L17.5884 9.12964C17.602 9.17082 17.6764 9.39675 17.8191 9.57671C17.933 9.72032 18.0707 9.83271 18.2343 9.91546C18.3687 9.98346 18.4905 10.0116 18.5573 10.025C18.6147 10.0366 18.6775 10.0457 18.7173 10.0514L18.727 10.0528C21.1435 10.4042 23 12.4864 23 15.0005C23 17.7619 20.7614 20.0005 18 20.0005Z" fill="black"/>
</svg>
