<svg width="24" height="24" viewBox="0 0 24 24" fill="none" xmlns="http://www.w3.org/2000/svg">
<path d="M12.2025 8.5182C11.8569 8.18047 11.2965 8.18047 10.9508 8.5182L8.62837 10.7875C8.28273 11.1252 8.28273 11.6728 8.62837 12.0105C8.97402 12.3482 9.53442 12.3482 9.88006 12.0105L10.7017 11.2077L10.7017 15.7374C10.7017 16.2207 11.0934 16.6124 11.5767 16.6124C12.0599 16.6124 12.4517 16.2207 12.4517 15.7374L12.4517 11.2077L13.2733 12.0105C13.6189 12.3482 14.1793 12.3482 14.525 12.0105C14.8706 11.6728 14.8706 11.1252 14.525 10.7875L12.2025 8.5182Z" fill="black"/>
<path fill-rule="evenodd" clip-rule="evenodd" d="M18 21H6.00983C6.0044 21 6 20.9956 6 20.9902C6 20.985 5.996 20.9808 5.99087 20.9804C2.63898 20.7207 1.49428e-07 17.9185 0 14.5C-1.07031e-07 12.0514 1.35391 9.91907 3.35394 8.81073C3.40639 8.78166 3.43263 8.76712 3.45233 8.75005C3.47091 8.73396 3.48432 8.71862 3.49778 8.69806C3.51207 8.67625 3.52287 8.64858 3.54446 8.59323C4.70761 5.6121 7.60715 3.5 11 3.5C14.4647 3.5 17.415 5.7025 18.5271 8.78374C18.5606 8.87652 18.5773 8.92291 18.6027 8.95493C18.6267 8.98527 18.6512 9.0052 18.6857 9.02268C18.7222 9.04112 18.7717 9.04833 18.8708 9.06274C21.7718 9.48454 24 11.9821 24 15C24 18.3137 21.3137 21 18 21ZM18 18.5H6.30393C6.26423 18.495 6.22424 18.4909 6.18399 18.4878C4.12384 18.3282 2.5 16.6025 2.5 14.5C2.5 12.9965 3.32847 11.6831 4.56572 10.9974L4.56923 10.9955C4.58671 10.9858 4.64803 10.952 4.70719 10.9163C4.78205 10.8711 4.92773 10.7796 5.08923 10.6397C5.28262 10.4721 5.44899 10.2818 5.58917 10.0678C5.70561 9.88998 5.77673 9.73419 5.81193 9.65303C5.83955 9.58934 5.86495 9.52387 5.87205 9.50557L5.87347 9.50192C6.6748 7.44813 8.67136 6 11 6C13.3781 6 15.4097 7.51055 16.1756 9.63247L16.178 9.63935C16.1894 9.67116 16.2257 9.77235 16.2667 9.86898C16.3168 9.9871 16.4306 10.2393 16.6437 10.5082C16.8923 10.8217 17.2 11.0728 17.5571 11.2534C17.8658 11.4096 18.1381 11.4702 18.2612 11.495C18.3634 11.5156 18.4694 11.5308 18.5036 11.5357L18.5111 11.5367C20.2011 11.7824 21.5 13.2417 21.5 15C21.5 16.933 19.933 18.5 18 18.5Z" fill="black"/>
</svg>
