<svg width="24" height="24" viewBox="0 0 24 24" fill="none" xmlns="http://www.w3.org/2000/svg">
<path fill-rule="evenodd" clip-rule="evenodd" d="M18 21C21.3137 21 24 18.3137 24 15C24 11.9821 21.7718 9.48454 18.8708 9.06274C18.7717 9.04833 18.7222 9.04112 18.6857 9.02268C18.6512 9.0052 18.6267 8.98527 18.6027 8.95493C18.5773 8.92291 18.5606 8.87652 18.5271 8.78374C17.415 5.7025 14.4647 3.5 11 3.5C7.60715 3.5 4.70761 5.6121 3.54447 8.59322C3.52287 8.64858 3.51207 8.67625 3.49778 8.69806C3.48432 8.71862 3.47091 8.73396 3.45233 8.75005C3.43263 8.76712 3.4064 8.78166 3.35395 8.81072C1.35392 9.91907 -1.07031e-07 12.0514 0 14.5C1.49428e-07 17.9185 2.63898 20.7207 5.99087 20.9804C5.996 20.9808 6 20.985 6 20.9902C6 20.9956 6.0044 21 6.00983 21H18ZM11.7535 16.6675C11.6559 16.7651 11.4976 16.7651 11.3999 16.6675L9.30279 14.5704C9.20516 14.4727 9.20516 14.3144 9.30279 14.2168C9.40042 14.1192 9.55871 14.1192 9.65634 14.2168L11.3267 15.8872V10.3842C11.3267 10.2462 11.4386 10.1342 11.5767 10.1342C11.7148 10.1342 11.8267 10.2462 11.8267 10.3842V15.8872L13.4971 14.2168C13.5947 14.1192 13.753 14.1192 13.8506 14.2168C13.9483 14.3144 13.9483 14.4727 13.8506 14.5704L11.7535 16.6675Z" fill="black"/>
</svg>
