<svg width="24" height="24" viewBox="0 0 24 24" fill="none" xmlns="http://www.w3.org/2000/svg">
<path fill-rule="evenodd" clip-rule="evenodd" d="M18 21C21.3137 21 24 18.3137 24 15C24 11.9821 21.7718 9.48454 18.8708 9.06274C18.7717 9.04833 18.7222 9.04112 18.6857 9.02268C18.6512 9.0052 18.6267 8.98527 18.6027 8.95493C18.5773 8.92291 18.5606 8.87652 18.5271 8.78374C17.415 5.7025 14.4647 3.5 11 3.5C7.60715 3.5 4.70761 5.6121 3.54447 8.59322C3.52287 8.64858 3.51207 8.67625 3.49778 8.69806C3.48432 8.71862 3.47091 8.73396 3.45233 8.75005C3.43263 8.76712 3.4064 8.78166 3.35395 8.81072C1.35392 9.91907 -1.07031e-07 12.0514 0 14.5C1.49428e-07 17.9185 2.63898 20.7207 5.99087 20.9804C5.996 20.9808 6 20.985 6 20.9902C6 20.9956 6.0044 21 6.00983 21H18ZM11.9303 10.0307C11.735 9.83542 11.4184 9.83542 11.2232 10.0307L9.12603 12.1278C8.93077 12.3231 8.93077 12.6397 9.12603 12.8349C9.32129 13.0302 9.63787 13.0302 9.83314 12.8349L11.0767 11.5913V16.4907C11.0767 16.7669 11.3006 16.9907 11.5767 16.9907C11.8529 16.9907 12.0767 16.7669 12.0767 16.4907V11.5913L13.3203 12.8349C13.5156 13.0302 13.8322 13.0302 14.0274 12.8349C14.2227 12.6397 14.2227 12.3231 14.0274 12.1278L11.9303 10.0307Z" fill="black"/>
</svg>
