<svg width="24" height="24" viewBox="0 0 24 24" fill="none" xmlns="http://www.w3.org/2000/svg">
<path d="M8.37648 10.3765C8.66936 10.0836 9.14424 10.0836 9.43714 10.3765L11.3252 12.2644L13.2132 10.3765C13.5061 10.0836 13.981 10.0836 14.2738 10.3765C14.5667 10.6694 14.5667 11.1443 14.2738 11.4372L12.3858 13.325L14.2737 15.2128C14.5666 15.5057 14.5667 15.9806 14.2738 16.2735C13.9809 16.5664 13.506 16.5664 13.2131 16.2735L11.3252 14.3857L9.43721 16.2735C9.14431 16.5664 8.66944 16.5664 8.37655 16.2735C8.08366 15.9806 8.08368 15.5057 8.37658 15.2128L10.2645 13.325L8.3765 11.4372C8.0836 11.1443 8.08359 10.6694 8.37648 10.3765Z" fill="black"/>
<path fill-rule="evenodd" clip-rule="evenodd" d="M18 21H6.00983C6.0044 21 6 20.9956 6 20.9902C6 20.985 5.996 20.9808 5.99087 20.9804C2.63898 20.7207 1.49428e-07 17.9185 0 14.5C-1.07031e-07 12.0514 1.35391 9.91907 3.35394 8.81073C3.40639 8.78166 3.43263 8.76712 3.45233 8.75005C3.47091 8.73396 3.48432 8.71862 3.49778 8.69806C3.51207 8.67625 3.52287 8.64858 3.54446 8.59323C4.70761 5.6121 7.60715 3.5 11 3.5C14.4647 3.5 17.415 5.7025 18.5271 8.78374C18.5606 8.87652 18.5773 8.92291 18.6027 8.95493C18.6267 8.98527 18.6512 9.0052 18.6857 9.02268C18.7222 9.04112 18.7717 9.04833 18.8708 9.06274C21.7718 9.48454 24 11.9821 24 15C24 18.3137 21.3137 21 18 21ZM18 19.5H6.23326C6.19163 19.4932 6.14943 19.4881 6.10674 19.4848C3.5299 19.2852 1.5 17.1289 1.5 14.5C1.5 12.6185 2.53865 10.9775 4.08101 10.1227L4.08599 10.12C4.10593 10.109 4.14952 10.0849 4.19048 10.0601C4.24163 10.0293 4.33363 9.97117 4.43447 9.88381C4.55794 9.77686 4.66312 9.65654 4.75262 9.51989C4.82534 9.40885 4.87051 9.31043 4.89451 9.25511C4.91359 9.21112 4.93166 9.16468 4.93983 9.14368L4.94187 9.13844C5.88792 6.71372 8.24567 5 11 5C13.8127 5 16.2118 6.78733 17.1162 9.29298L17.1194 9.30199C17.1322 9.33753 17.1584 9.41051 17.1872 9.47824C17.2219 9.55998 17.2944 9.71918 17.4273 9.88686C17.5861 10.0871 17.7805 10.2457 18.0085 10.3611C18.201 10.4585 18.373 10.4975 18.4586 10.5147C18.5305 10.5292 18.6073 10.5402 18.6453 10.5457L18.655 10.5471C20.8294 10.8633 22.5 12.7379 22.5 15C22.5 17.4853 20.4853 19.5 18 19.5Z" fill="black"/>
</svg>
