<svg width="24" height="24" viewBox="0 0 24 24" fill="none" xmlns="http://www.w3.org/2000/svg">
<path d="M7.43349 6.01443C7.72711 6.30659 7.72711 6.78027 7.43349 7.07243L2.4812 12L7.43349 16.9275C7.72711 17.2197 7.72711 17.6934 7.43349 17.9855C7.13986 18.2777 6.6638 18.2777 6.37018 17.9855L0.886235 12.529C0.592609 12.2368 0.592609 11.7631 0.886235 11.471L6.37018 6.01443C6.6638 5.72227 7.13986 5.72227 7.43349 6.01443Z" fill="black"/>
<path d="M10.2445 18.5216C9.8443 18.4149 9.60716 18.0041 9.71487 17.6042L12.8373 6.00939C12.945 5.60942 13.3568 5.37169 13.757 5.4784C14.1572 5.5851 14.3944 5.99584 14.2866 6.39581L11.1642 17.9906C11.0565 18.3906 10.6448 18.6283 10.2445 18.5216Z" fill="black"/>
<path d="M16.5683 7.07243C16.2747 6.78027 16.2747 6.30659 16.5683 6.01443C16.8619 5.72227 17.338 5.72227 17.6316 6.01443L23.1155 11.471C23.4092 11.7631 23.4092 12.2368 23.1155 12.529L17.6316 17.9855C17.338 18.2777 16.8619 18.2777 16.5683 17.9855C16.2747 17.6934 16.2747 17.2197 16.5683 16.9275L21.5206 12L16.5683 7.07243Z" fill="black"/>
</svg>
