<svg width="24" height="24" viewBox="0 0 24 24" fill="none" xmlns="http://www.w3.org/2000/svg">
<path d="M7.43276 6.01467C7.72638 6.30683 7.72638 6.78052 7.43276 7.07268L2.48047 12.0002L7.43276 16.9278C7.72638 17.2199 7.72638 17.6936 7.43276 17.9858C7.13913 18.2779 6.66307 18.2779 6.36944 17.9858L0.885502 12.5292C0.591877 12.2371 0.591877 11.7634 0.885502 11.4712L6.36944 6.01467C6.66307 5.72251 7.13913 5.72251 7.43276 6.01467Z" fill="black"/>
<path d="M10.2438 18.5218C9.84357 18.4151 9.60643 18.0044 9.71414 17.6044L12.8365 6.00963C12.9443 5.60967 13.356 5.37193 13.7563 5.47864C14.1565 5.58535 14.3936 5.99609 14.2859 6.39605L11.1635 17.9908C11.0558 18.3908 10.644 18.6285 10.2438 18.5218Z" fill="black"/>
<path d="M16.5676 7.07268C16.2739 6.78052 16.2739 6.30683 16.5676 6.01467C16.8612 5.72252 17.3372 5.72251 17.6309 6.01467L23.1148 11.4712C23.4084 11.7634 23.4084 12.2371 23.1148 12.5292L17.6309 17.9858C17.3372 18.2779 16.8612 18.2779 16.5675 17.9858C16.2739 17.6936 16.2739 17.2199 16.5675 16.9278L21.5198 12.0002L16.5676 7.07268Z" fill="black"/>
</svg>
