<svg width="24" height="24" viewBox="0 0 24 24" fill="none" xmlns="http://www.w3.org/2000/svg">
<path d="M7.25552 6.19061C7.45127 6.38539 7.45127 6.70118 7.25552 6.89595L2.12602 11.9998L7.25552 17.1037C7.45127 17.2985 7.45127 17.6143 7.25552 17.8091C7.05977 18.0038 6.7424 18.0038 6.54665 17.8091L1.06271 12.3525C0.866956 12.1577 0.866956 11.8419 1.06271 11.6472L6.54665 6.19061C6.7424 5.99584 7.05977 5.99584 7.25552 6.19061Z" fill="black"/>
<path d="M10.3088 18.28C10.042 18.2089 9.88388 17.9351 9.95568 17.6684L13.0781 6.07364C13.1499 5.807 13.4244 5.64851 13.6912 5.71965C13.9581 5.79079 14.1161 6.06461 14.0443 6.33125L10.9219 17.926C10.8501 18.1927 10.5756 18.3512 10.3088 18.28Z" fill="black"/>
<path d="M16.7448 6.89595C16.549 6.70118 16.549 6.38539 16.7448 6.19061C16.9405 5.99584 17.2579 5.99584 17.4536 6.19061L22.9376 11.6472C23.1333 11.8419 23.1333 12.1577 22.9376 12.3525L17.4536 17.8091C17.2579 18.0038 16.9405 18.0038 16.7448 17.8091C16.549 17.6143 16.549 17.2985 16.7448 17.1037L21.8743 11.9998L16.7448 6.89595Z" fill="black"/>
</svg>
