<svg width="24" height="24" viewBox="0 0 24 24" fill="none" xmlns="http://www.w3.org/2000/svg">
<path d="M7.78722 5.66182C8.2766 6.14875 8.2766 6.93822 7.78722 7.42515L3.18937 12L7.78722 16.5749C8.2766 17.0619 8.2766 17.8513 7.78722 18.3383C7.29785 18.8252 6.50441 18.8252 6.01504 18.3383L0.531095 12.8817C0.0417186 12.3948 0.0417184 11.6053 0.531095 11.1184L6.01504 5.66182C6.50441 5.17488 7.29785 5.17488 7.78722 5.66182Z" fill="black"/>
<path d="M10.1138 19.0044C9.44676 18.8266 9.05153 18.142 9.23104 17.4754L12.3535 5.88064C12.533 5.21403 13.2192 4.81781 13.8863 4.99565C14.5534 5.17349 14.9486 5.85806 14.7691 6.52467L11.6467 18.1194C11.4671 18.7861 10.7809 19.1823 10.1138 19.0044Z" fill="black"/>
<path d="M16.2131 7.42515C15.7238 6.93822 15.7238 6.14875 16.2131 5.66182C16.7025 5.17488 17.496 5.17489 17.9853 5.66182L23.4693 11.1184C23.9586 11.6053 23.9586 12.3948 23.4693 12.8817L17.9853 18.3383C17.496 18.8252 16.7025 18.8252 16.2131 18.3383C15.7238 17.8513 15.7238 17.0619 16.2131 16.5749L20.811 12L16.2131 7.42515Z" fill="black"/>
</svg>
