<svg width="24" height="24" viewBox="0 0 24 24" fill="none" xmlns="http://www.w3.org/2000/svg">
<path d="M7.2554 6.19061C7.45115 6.38539 7.45115 6.70118 7.2554 6.89595L2.1259 11.9998L7.2554 17.1037C7.45115 17.2985 7.45115 17.6143 7.2554 17.8091C7.05965 18.0038 6.74228 18.0038 6.54653 17.8091L1.06258 12.3525C0.866834 12.1577 0.866834 11.8419 1.06258 11.6472L6.54653 6.19061C6.74228 5.99584 7.05965 5.99584 7.2554 6.19061Z" fill="black"/>
<path d="M10.3087 18.28C10.0418 18.2089 9.88376 17.9351 9.95556 17.6684L13.078 6.07364C13.1498 5.807 13.4243 5.64851 13.6911 5.71965C13.9579 5.79079 14.116 6.06461 14.0442 6.33125L10.9218 17.926C10.85 18.1927 10.5755 18.3512 10.3087 18.28Z" fill="black"/>
<path d="M16.7446 6.89595C16.5489 6.70118 16.5489 6.38539 16.7446 6.19061C16.9404 5.99584 17.2578 5.99584 17.4535 6.19061L22.9375 11.6472C23.1332 11.8419 23.1332 12.1577 22.9375 12.3525L17.4535 17.8091C17.2578 18.0038 16.9404 18.0038 16.7446 17.8091C16.5489 17.6143 16.5489 17.2985 16.7446 17.1037L21.8741 11.9998L16.7446 6.89595Z" fill="black"/>
</svg>
