<svg width="24" height="24" viewBox="0 0 24 24" fill="none" xmlns="http://www.w3.org/2000/svg">
<path d="M7.07829 6.36704C7.17616 6.46443 7.17616 6.62232 7.07829 6.71971L1.77157 11.9999L7.07829 17.2801C7.17616 17.3775 7.17616 17.5354 7.07829 17.6328C6.98041 17.7302 6.82173 17.7302 6.72385 17.6328L1.23991 12.1763C1.14204 12.0789 1.14204 11.921 1.23991 11.8236L6.72385 6.36704C6.82173 6.26966 6.98041 6.26966 7.07829 6.36704Z" fill="black"/>
<path d="M10.3738 18.0387C10.2404 18.0032 10.1613 17.8662 10.1972 17.7329L13.3196 6.13814C13.3555 6.00482 13.4928 5.92557 13.6262 5.96114C13.7596 5.99671 13.8387 6.13362 13.8028 6.26694L10.6804 17.8617C10.6445 17.995 10.5072 18.0743 10.3738 18.0387Z" fill="black"/>
<path d="M16.922 6.71971C16.8241 6.62232 16.8241 6.46443 16.922 6.36704C17.0198 6.26966 17.1785 6.26966 17.2764 6.36704L22.7603 11.8236C22.8582 11.921 22.8582 12.0789 22.7603 12.1763L17.2764 17.6328C17.1785 17.7302 17.0198 17.7302 16.922 17.6328C16.8241 17.5354 16.8241 17.3775 16.922 17.2801L22.2287 11.9999L16.922 6.71971Z" fill="black"/>
</svg>
