<svg width="24" height="24" viewBox="0 0 24 24" fill="none" xmlns="http://www.w3.org/2000/svg">
<path d="M7.25564 6.19086C7.45139 6.38563 7.4514 6.70142 7.25564 6.89619L2.12614 12.0001L7.25564 17.104C7.45139 17.2987 7.4514 17.6145 7.25564 17.8093C7.05989 18.0041 6.74252 18.0041 6.54677 17.8093L1.06283 12.3527C0.867078 12.158 0.867078 11.8422 1.06283 11.6474L6.54677 6.19086C6.74252 5.99609 7.05989 5.99609 7.25564 6.19086Z" fill="black"/>
<path d="M10.3089 18.2803C10.0421 18.2091 9.884 17.9353 9.95581 17.6687L13.0782 6.07389C13.15 5.80724 13.4245 5.64875 13.6914 5.71989C13.9582 5.79103 14.1163 6.06486 14.0445 6.3315L10.9221 17.9263C10.8502 18.1929 10.5757 18.3514 10.3089 18.2803Z" fill="black"/>
<path d="M16.7449 6.89619C16.5491 6.70142 16.5491 6.38563 16.7449 6.19086C16.9406 5.99609 17.258 5.99609 17.4538 6.19086L22.9377 11.6474C23.1334 11.8422 23.1334 12.158 22.9377 12.3527L17.4538 17.8093C17.258 18.0041 16.9406 18.0041 16.7449 17.8093C16.5491 17.6145 16.5491 17.2987 16.7449 17.104L21.8744 12.0001L16.7449 6.89619Z" fill="black"/>
</svg>
