<svg width="24" height="24" viewBox="0 0 24 24" fill="none" xmlns="http://www.w3.org/2000/svg">
<path d="M7.60987 5.83824C8.00137 6.22779 8.00137 6.85937 7.60987 7.24891L2.8348 12.0001L7.60987 16.7513C8.00137 17.1409 8.00137 17.7725 7.60987 18.162C7.21837 18.5516 6.58362 18.5516 6.19212 18.162L0.708176 12.7055C0.316676 12.3159 0.316675 11.6843 0.708176 11.2948L6.19212 5.83824C6.58362 5.4487 7.21837 5.4487 7.60987 5.83824Z" fill="black"/>
<path d="M10.1787 18.7631C9.64504 18.6209 9.32886 18.0732 9.47247 17.5399L12.5949 5.94513C12.7385 5.41185 13.2875 5.09487 13.8212 5.23715C14.3548 5.37942 14.671 5.92707 14.5274 6.46036L11.405 18.0551C11.2614 18.5884 10.7123 18.9054 10.1787 18.7631Z" fill="black"/>
<path d="M16.3902 7.24891C15.9987 6.85937 15.9987 6.22779 16.3902 5.83825C16.7817 5.4487 17.4165 5.4487 17.808 5.83825L23.2919 11.2948C23.6834 11.6843 23.6834 12.3159 23.2919 12.7055L17.808 18.162C17.4165 18.5516 16.7817 18.5516 16.3902 18.162C15.9987 17.7725 15.9987 17.1409 16.3902 16.7513L21.1653 12.0001L16.3902 7.24891Z" fill="black"/>
</svg>
