<svg width="24" height="24" viewBox="0 0 24 24" fill="none" xmlns="http://www.w3.org/2000/svg">
<path d="M7.0778 6.36704C7.17568 6.46443 7.17568 6.62232 7.0778 6.71971L1.77108 11.9999L7.0778 17.2801C7.17568 17.3775 7.17568 17.5354 7.0778 17.6328C6.97993 17.7302 6.82124 17.7302 6.72336 17.6328L1.23942 12.1763C1.14155 12.0789 1.14155 11.921 1.23942 11.8236L6.72336 6.36704C6.82124 6.26966 6.97993 6.26966 7.0778 6.36704Z" fill="black"/>
<path d="M10.3733 18.0387C10.2399 18.0032 10.1608 17.8662 10.1967 17.7329L13.3192 6.13814C13.3551 6.00482 13.4923 5.92557 13.6257 5.96114C13.7591 5.99671 13.8382 6.13362 13.8023 6.26694L10.6799 17.8617C10.644 17.995 10.5067 18.0743 10.3733 18.0387Z" fill="black"/>
<path d="M16.9215 6.71971C16.8236 6.62232 16.8236 6.46443 16.9215 6.36704C17.0193 6.26966 17.178 6.26966 17.2759 6.36704L22.7598 11.8236C22.8577 11.921 22.8577 12.0789 22.7598 12.1763L17.2759 17.6328C17.178 17.7302 17.0193 17.7302 16.9215 17.6328C16.8236 17.5354 16.8236 17.3775 16.9215 17.2801L22.2282 11.9999L16.9215 6.71971Z" fill="black"/>
</svg>
