<svg width="24" height="24" viewBox="0 0 24 24" fill="none" xmlns="http://www.w3.org/2000/svg">
<path d="M7.40651 16.8084C7.40658 14.1316 9.20446 11.788 11.7899 11.095C13.5014 10.6364 14.6914 9.08535 14.6914 7.31354L14.6916 5.00083C14.6916 4.44875 15.1398 4.00099 15.6918 4.00076C16.244 4.00084 16.691 4.44836 16.691 5.00052L16.6918 7.31372C16.6918 9.99075 14.8933 12.3338 12.3075 13.0266C10.5965 13.4854 9.40615 15.0366 9.40598 16.8081L9.40652 19.0005L9.4017 19.1026C9.35053 19.6069 8.92406 20.0006 8.40626 20.0006C7.88869 20.0003 7.4626 19.6067 7.41143 19.1026L7.4062 19.0003L7.40651 16.8084Z" fill="black"/>
<path fill-rule="evenodd" clip-rule="evenodd" d="M4.43885 7.66725C7.75253 1.92793 13.7996 -0.784714 17.9447 1.60844L18.1364 1.72364C22.1095 4.20755 22.7114 10.6842 19.4497 16.3338L19.1318 16.8629C15.7607 22.2376 9.96032 24.7111 5.94469 22.393L5.75212 22.2774C1.90513 19.8722 1.21918 13.724 4.14041 8.20761L4.43885 7.66725ZM6.94469 20.661C8.32118 21.4555 10.1679 21.496 12.1905 20.5887C14.2103 19.6825 16.2477 17.8797 17.7176 15.3338C19.1875 12.7878 19.7301 10.1219 19.5049 7.91966C19.2794 5.71438 18.321 4.1353 16.9447 3.34049C15.5682 2.54581 13.7215 2.50553 11.6989 3.41283C9.67908 4.31897 7.64089 6.12123 6.1709 8.66725C4.70101 11.2132 4.15931 13.8796 4.38443 16.0818C4.61004 18.2871 5.56827 19.8663 6.94469 20.661Z" fill="black"/>
</svg>
