<svg width="24" height="24" viewBox="0 0 24 24" fill="none" xmlns="http://www.w3.org/2000/svg">
<path fill-rule="evenodd" clip-rule="evenodd" d="M17.0557 4C20.4001 4 23.1113 7.75399 23.1113 12.3848C23.1113 17.0155 20.4001 20.7695 17.0557 20.7695C13.7113 20.7694 11 17.0155 11 12.3848C11 7.75406 13.7113 4.00011 17.0557 4ZM17.9287 6.15918C17.5836 5.56181 16.8193 5.35662 16.2217 5.70117C15.624 6.04632 15.4188 6.8114 15.7637 7.40918L16.6035 8.86426C17.0976 9.72011 16.9553 10.801 16.2568 11.5C14.7579 12.999 14.453 15.3184 15.5127 17.1543L16.3096 18.5361L16.3799 18.6436C16.7505 19.1572 17.4572 19.3175 18.0176 18.9941C18.5778 18.6705 18.7927 17.9781 18.5332 17.4004L18.4746 17.2861L17.6777 15.9043C17.1838 15.0484 17.3258 13.9674 18.0244 13.2686C19.5232 11.7695 19.8285 9.45014 18.7686 7.61426L17.9287 6.15918Z" fill="black"/>
<path d="M2.28223 7.28125C4.11117 5.45277 7.2598 5.48025 10.1074 7.10059C9.43025 8.59136 9.04303 10.3028 9.00586 12.0996C8.72721 12.0479 8.44076 12.0205 8.14941 12.0205C7.1613 12.0203 6.29541 11.3573 6.03808 10.4033L5.70703 9.1748C5.52722 8.50875 4.84104 8.11374 4.1748 8.29297C3.50886 8.47279 3.11388 9.15904 3.29297 9.8252L3.62402 11.0527C4.17513 13.0984 6.03081 14.5193 8.14941 14.5195C8.53402 14.5196 8.89907 14.6226 9.21777 14.8018C9.53859 16.5613 10.2059 18.1724 11.1533 19.4844C11.3774 19.7947 11.6215 20.0906 11.8818 20.3701C9.46182 20.9402 6.34357 19.9061 3.92969 17.4922C0.655391 14.2177 -0.0826097 9.64609 2.28223 7.28125Z" fill="black"/>
</svg>
