<svg width="24" height="24" viewBox="0 0 24 24" fill="none" xmlns="http://www.w3.org/2000/svg">
<path d="M7.90617 16.8082C7.90636 14.3579 9.55258 12.2124 11.9193 11.5779C13.8491 11.0608 15.1911 9.31248 15.1915 7.31468L15.1919 4.90967L15.2014 4.80917C15.2479 4.58148 15.45 4.41017 15.6913 4.40981C15.9329 4.40981 16.1348 4.58113 16.1815 4.80893L16.192 4.90976L16.1916 7.31477C16.1913 9.76516 14.5446 11.9103 12.1776 12.5446C10.2484 13.0621 8.90648 14.8107 8.90633 16.8083L8.90621 19.0917C8.90609 19.3677 8.68197 19.591 8.40591 19.591C8.13021 19.5906 7.90615 19.3674 7.90605 19.0916L7.90617 16.8082Z" fill="black"/>
<path fill-rule="evenodd" clip-rule="evenodd" d="M4.43885 7.66725C7.75253 1.92793 13.7996 -0.784715 17.9447 1.60844L18.1364 1.72364C22.1095 4.20755 22.7114 10.6842 19.4497 16.3338L19.1318 16.8629C15.7607 22.2377 9.96032 24.7111 5.94469 22.3931L5.75213 22.2774C1.90513 19.8722 1.21918 13.724 4.14041 8.20761L4.43885 7.66725ZM6.44469 21.527C8.16919 22.5225 10.3667 22.5024 12.6 21.5005C14.8317 20.4992 17.0203 18.5414 18.5837 15.8338C20.1469 13.1261 20.748 10.2517 20.4994 7.81835C20.2504 5.38343 19.169 3.47019 17.4447 2.47447C15.7202 1.47882 13.5219 1.49856 11.2886 2.50048C9.05687 3.50183 6.86816 5.45964 5.30488 8.16725C3.74163 10.8749 3.14047 13.7493 3.38915 16.1827C3.63812 18.6178 4.72014 20.5313 6.44469 21.527Z" fill="black"/>
</svg>
