<svg width="24" height="24" viewBox="0 0 24 24" fill="none" xmlns="http://www.w3.org/2000/svg">
<path d="M4.13967 8.20772L4.4385 7.66768C7.75203 1.92849 13.7992 -0.784568 17.9444 1.6081L18.1358 1.72334C22.1089 4.20726 22.711 10.6841 19.4492 16.3337L19.1319 16.863C19.0952 16.9214 19.0558 16.9781 19.0186 17.0358L18.584 16.7868C18.7322 16.5577 18.8778 16.3241 19.0166 16.0837C20.6265 13.2951 21.2566 10.3163 20.9961 7.76728C20.7354 5.21758 19.5926 3.13789 17.6944 2.0417C15.7959 0.945773 13.4225 0.995521 11.084 2.04463C8.74638 3.09362 6.48103 5.12923 4.87112 7.91768C4.73265 8.15755 4.60355 8.4 4.47952 8.64229L4.0469 8.39229C4.0783 8.33118 4.1074 8.26867 4.13967 8.20772Z" fill="black"/>
<path d="M5.94534 22.3933C1.97364 20.1002 1.1908 13.9515 4.0469 8.39229L10.8252 12.3063C9.47161 13.1163 8.60075 14.5919 8.60061 16.2292L8.59964 18.236L8.60452 18.2858C8.62775 18.3996 8.72911 18.4857 8.84964 18.486C8.9875 18.486 9.10028 18.3738 9.10061 18.236V16.2282C9.1009 14.6717 9.98558 13.2815 11.333 12.5993L19.0176 17.0368C15.6315 22.2891 9.91688 24.6853 5.94534 22.3933Z" fill="black"/>
<path d="M11.3555 12.0349C11.5582 11.9472 11.7691 11.8717 11.9873 11.8132C13.7667 11.3364 15.0045 9.72453 15.0049 7.88252V5.76826L15.0098 5.71748C15.0332 5.60402 15.1346 5.51764 15.2549 5.51728C15.3754 5.51741 15.4766 5.60387 15.5 5.71748L15.5049 5.76826L15.5039 7.88252C15.5035 9.95072 14.115 11.7611 12.1172 12.2966C12.0497 12.3147 11.983 12.3377 11.917 12.3591L11.3555 12.0349Z" fill="black"/>
</svg>
