<svg width="24" height="24" viewBox="0 0 24 24" fill="none" xmlns="http://www.w3.org/2000/svg">
<path d="M16.7213 6.56738C16.8407 6.49894 16.9931 6.54017 17.0622 6.65918L17.903 8.11426C18.7364 9.55812 18.4957 11.3826 17.317 12.5615C16.2985 13.5804 16.0911 15.1565 16.8112 16.4043L17.609 17.7861C17.6779 17.9056 17.6365 18.0588 17.5172 18.1279C17.4127 18.1881 17.2828 18.1639 17.2057 18.0771L17.1754 18.0361L16.3776 16.6543C15.5445 15.2105 15.785 13.3869 16.9635 12.208C17.9823 11.189 18.1898 9.61217 17.4694 8.36426L16.6295 6.90918C16.5609 6.78974 16.6021 6.6364 16.7213 6.56738Z" fill="black"/>
<path fill-rule="evenodd" clip-rule="evenodd" d="M17.3668 4.01074C20.5665 4.23524 23.111 7.89865 23.111 12.3848L23.1032 12.8164C22.9409 17.2466 20.2952 20.7695 17.0553 20.7695L16.7438 20.7588C13.6475 20.5414 11.1645 17.1036 11.0075 12.8164L10.9997 12.3848C10.9997 7.75413 13.711 4.00021 17.0553 4L17.3668 4.01074ZM17.0553 4.5C15.5841 4.50011 14.2066 5.32533 13.1784 6.74902C12.1508 8.17211 11.4997 10.1631 11.4997 12.3848C11.4997 14.6064 12.1508 16.5974 13.1784 18.0205C14.2066 19.4442 15.5841 20.2694 17.0553 20.2695C18.5266 20.2695 19.904 19.4442 20.9323 18.0205C21.9599 16.5974 22.611 14.6065 22.611 12.3848C22.611 10.163 21.9599 8.17212 20.9323 6.74902C19.904 5.32532 18.5266 4.5 17.0553 4.5Z" fill="black"/>
<path d="M2.28188 7.28223C4.34152 5.2228 8.07416 5.51701 11.1666 7.79004C11.0986 7.94746 11.0353 8.10845 10.9743 8.27148C9.68732 7.30127 8.28883 6.69764 6.96743 6.48438C5.23364 6.20473 3.67576 6.5955 2.6354 7.63574C1.59537 8.676 1.20456 10.2333 1.48403 11.9668C1.76366 13.6997 2.71187 15.5686 4.28286 17.1396C5.85379 18.7104 7.72194 19.6579 9.45473 19.9375C10.6988 20.1381 11.8512 19.9916 12.7877 19.5098C12.9068 19.6382 13.0277 19.7636 13.154 19.8818C10.7393 21.2289 7.06751 20.4198 4.23989 17.792L3.92934 17.4932C0.757319 14.3211 -0.0345055 9.93106 2.06899 7.50977L2.28188 7.28223Z" fill="black"/>
<path d="M4.33364 8.86133C4.4668 8.82575 4.60437 8.90505 4.64028 9.03809L5.07485 10.6602C5.44786 12.052 6.71012 13.0203 8.15102 13.0205C8.9544 13.0206 9.70774 13.2837 10.3229 13.7334C10.3508 13.9877 10.3872 14.2389 10.4303 14.4863C9.84555 13.8858 9.03298 13.5207 8.15102 13.5205C6.48391 13.5203 5.02313 12.4003 4.59145 10.79L4.15786 9.16699C4.12254 9.03405 4.20092 8.89734 4.33364 8.86133Z" fill="black"/>
</svg>
