<svg width="24" height="24" viewBox="0 0 24 24" fill="none" xmlns="http://www.w3.org/2000/svg">
<path fill-rule="evenodd" clip-rule="evenodd" d="M4.14936 7.50012C7.59052 1.53992 13.8699 -1.27745 18.1745 1.20779L18.3739 1.32738C22.5001 3.90677 23.1251 10.6331 19.7378 16.5001L19.4074 17.0491C15.9065 22.6309 9.88329 25.1993 5.71312 22.7916L5.51379 22.672C1.5185 20.1745 0.805431 13.7896 3.8392 8.06078L4.14936 7.50012ZM7.75033 22.017C9.1432 22.3765 10.76 22.1952 12.4351 21.4437C14.6549 20.4478 16.8584 18.4873 18.4388 15.7501C20.0192 13.0127 20.6157 10.1236 20.3682 7.70316C20.1341 5.41383 19.1686 3.65353 17.6876 2.67225L7.75033 22.017ZM5.4484 8.25012C3.86812 10.9874 3.27202 13.8759 3.51945 16.2962C3.76207 18.6692 4.79062 20.4734 6.36444 21.4311L16.3261 2.03838C14.8913 1.61078 13.2042 1.7699 11.4526 2.5557C9.23266 3.55161 7.02885 5.51273 5.4484 8.25012Z" fill="black"/>
</svg>
