<svg width="24" height="24" viewBox="0 0 24 24" fill="none" xmlns="http://www.w3.org/2000/svg">
<path fill-rule="evenodd" clip-rule="evenodd" d="M17.0556 4C20.4001 4 23.1113 7.75399 23.1113 12.3848C23.1113 17.0155 20.4001 20.7695 17.0556 20.7695C13.7113 20.7694 11 17.0155 11 12.3848C11 7.75406 13.7113 4.00012 17.0556 4ZM17.0625 6.65918C16.9934 6.54012 16.841 6.49892 16.7216 6.56738C16.6023 6.63639 16.5611 6.7897 16.6299 6.90918L17.4697 8.36426C18.1901 9.61217 17.9826 11.189 16.9638 12.208C15.7853 13.3869 15.5448 15.2105 16.3779 16.6543L17.1758 18.0361L17.206 18.0771C17.2831 18.1639 17.413 18.1882 17.5175 18.1279C17.6368 18.0588 17.6782 17.9056 17.6093 17.7861L16.8115 16.4043C16.0914 15.1564 16.2987 13.5804 17.3174 12.5615C18.496 11.3826 18.7367 9.55812 17.9033 8.11426L17.0625 6.65918Z" fill="black"/>
<path d="M2.2822 7.28125C4.38794 5.17581 8.24186 5.53202 11.373 7.94629C10.8166 9.25695 10.501 10.7744 10.5009 12.3848C10.501 12.9209 10.5374 13.4466 10.6045 13.958C9.94608 13.3703 9.08133 13.0206 8.15134 13.0205C6.71044 13.0203 5.44915 12.052 5.07614 10.6602L4.64059 9.03809C4.60474 8.905 4.46713 8.82579 4.33395 8.86133C4.20127 8.89741 4.12279 9.03406 4.15817 9.16699L4.59274 10.79C5.02442 12.4003 6.48423 13.5203 8.15134 13.5205C9.21696 13.5207 10.1822 14.0518 10.7646 14.8906C10.9568 15.7825 11.2492 16.6179 11.6259 17.3721L11.6396 17.4219C11.6526 17.4698 11.6784 17.5109 11.7129 17.542C11.9109 17.9192 12.1302 18.2756 12.3691 18.6064C12.6738 19.0283 13.0121 19.4117 13.3789 19.748C10.8856 21.3331 6.88117 20.4436 3.92966 17.4922C0.655285 14.2177 -0.0826615 9.64611 2.2822 7.28125Z" fill="black"/>
</svg>
