<svg width="24" height="24" viewBox="0 0 24 24" fill="none" xmlns="http://www.w3.org/2000/svg">
<path fill-rule="evenodd" clip-rule="evenodd" d="M4.14991 7.50061C7.59107 1.54041 13.8705 -1.27697 18.1751 1.20828L18.3744 1.32787C22.5007 3.90726 23.1257 10.6335 19.7384 16.5006L19.4079 17.0496C15.907 22.6313 9.88384 25.1997 5.71367 22.7921L5.51434 22.6725C1.51905 20.175 0.80598 13.79 3.83975 8.06127L4.14991 7.50061ZM9.83303 20.1513C10.3755 20.0779 10.9718 19.9092 11.6172 19.6196C13.4128 18.814 15.3137 17.1642 16.7073 14.7506C18.1009 12.3368 18.5796 9.86511 18.3794 7.90713C18.2619 6.75764 17.9304 5.88333 17.4899 5.24657L9.83303 20.1513ZM7.181 9.25061C5.78759 11.6642 5.30923 14.1354 5.50936 16.0932C5.63801 17.3516 6.02111 18.2815 6.52524 18.9294L14.2851 3.82478C13.6829 3.87789 13.0092 4.04984 12.2716 4.38076C10.4758 5.18639 8.57461 6.83684 7.181 9.25061Z" fill="black"/>
</svg>
