<svg width="24" height="24" viewBox="0 0 24 24" fill="none" xmlns="http://www.w3.org/2000/svg">
<path fill-rule="evenodd" clip-rule="evenodd" d="M4.14936 7.50012C7.59052 1.53992 13.8699 -1.27745 18.1745 1.20779L18.3739 1.32738C22.5001 3.90677 23.1251 10.6331 19.7378 16.5001L19.4074 17.0491C15.9065 22.6309 9.88329 25.1993 5.71312 22.7916L5.51379 22.672C1.5185 20.1745 0.805431 13.7896 3.8392 8.06078L4.14936 7.50012ZM17.5833 3.84904C17.5691 3.92744 17.5477 4.00542 17.5177 4.0818L17.4652 4.19809L8.86307 20.9432L8.79911 21.054C8.77238 21.0951 8.74236 21.1333 8.71162 21.1703C9.69308 21.2649 10.8154 21.0748 12.0256 20.5318C14.0334 19.6311 16.0858 17.8255 17.5728 15.2501C19.0598 12.6745 19.5976 9.99369 19.3738 7.80448C19.19 6.00776 18.5231 4.67829 17.5833 3.84904ZM6.31443 8.75012C4.82756 11.3256 4.29009 14.0058 4.51389 16.1949C4.71044 18.1167 5.45859 19.505 6.50349 20.3172C6.50935 20.1832 6.53633 20.0483 6.58739 19.918L6.63987 19.8017L15.242 3.05661C15.2797 2.98321 15.324 2.9152 15.3733 2.85272C14.346 2.71071 13.1542 2.88795 11.862 3.46757C9.85421 4.36833 7.80146 6.17454 6.31443 8.75012Z" fill="black"/>
</svg>
