<svg width="24" height="24" viewBox="0 0 24 24" fill="none" xmlns="http://www.w3.org/2000/svg">
<path fill-rule="evenodd" clip-rule="evenodd" d="M4.43888 7.66728C7.75254 1.92786 13.7996 -0.784724 17.9447 1.60848C22.0895 4.00185 22.7633 10.5945 19.4497 16.3338C16.1361 22.073 10.0898 24.7859 5.94472 22.3931C1.79957 19.9999 1.12522 13.4067 4.43888 7.66728ZM11.7253 10.8536C9.0306 11.5759 7.15646 14.0185 7.15628 16.8083L7.15617 19.0917C7.15627 19.7815 7.71579 20.3411 8.4055 20.3418C9.09579 20.3418 9.65605 19.7819 9.65615 19.0916L9.65626 16.8082C9.65644 15.1502 10.7704 13.6986 12.3717 13.269C15.0666 12.5469 16.9412 10.1046 16.9416 7.31475L16.942 4.90974L16.9348 4.78155C16.8705 4.15147 16.3383 3.65993 15.6913 3.65993C15.0444 3.66035 14.5117 4.15214 14.4479 4.78235L14.442 4.90975L14.4416 7.31476C14.4412 8.97309 13.3271 10.4243 11.7253 10.8536Z" fill="black"/>
</svg>
