<svg width="24" height="24" viewBox="0 0 24 24" fill="none" xmlns="http://www.w3.org/2000/svg">
<path fill-rule="evenodd" clip-rule="evenodd" d="M4.43961 7.6668C7.75327 1.92737 13.8003 -0.785212 17.9454 1.60799C22.0903 4.00136 22.764 10.594 19.4504 16.3333C16.1369 22.0726 10.0906 24.7854 5.94545 22.3926C1.80031 19.9994 1.12595 13.4062 4.43961 7.6668ZM11.8554 11.336C9.37939 11.9997 7.65693 14.2442 7.65667 16.8076L7.65656 19.091C7.65666 19.5048 7.99282 19.8403 8.40652 19.8408C8.82061 19.8408 9.15702 19.5054 9.15722 19.0914L9.15734 16.808C9.15743 14.9235 10.4231 13.2738 12.2431 12.7856C14.7194 12.122 16.4416 9.87766 16.4418 7.31397L16.4422 4.90896L16.4389 4.83263C16.4005 4.45443 16.0806 4.1591 15.6922 4.1591C15.3043 4.15942 14.9847 4.45447 14.9461 4.83229L14.9424 4.90906L14.942 7.31408C14.9417 9.19879 13.6759 10.8481 11.8554 11.336Z" fill="black"/>
</svg>
