<svg width="24" height="24" viewBox="0 0 24 24" fill="none" xmlns="http://www.w3.org/2000/svg">
<path d="M7.90678 16.8077C7.90697 14.3574 9.55319 12.2119 11.9199 11.5774C13.8497 11.0603 15.1918 9.31199 15.1921 7.31419L15.1925 4.90918L15.202 4.80868C15.2485 4.58099 15.4506 4.40969 15.6919 4.40932C15.9335 4.40932 16.1354 4.58064 16.1821 4.80844L16.1926 4.90927L16.1922 7.31428C16.1919 9.76467 14.5452 11.9099 12.1782 12.5441C10.249 13.0616 8.90709 14.8102 8.90694 16.8078L8.90682 19.0912C8.9067 19.3672 8.68258 19.5905 8.40652 19.5905C8.13082 19.5901 7.90676 19.3669 7.90666 19.0911L7.90678 16.8077Z" fill="black"/>
<path fill-rule="evenodd" clip-rule="evenodd" d="M4.43946 7.66676C7.75314 1.92744 13.8002 -0.785204 17.9453 1.60795L18.137 1.72315C22.1102 4.20707 22.712 10.6837 19.4503 16.3333L19.1324 16.8624C15.7613 22.2372 9.96093 24.7106 5.9453 22.3926L5.75274 22.2769C1.90574 19.8717 1.21979 13.7235 4.14102 8.20712L4.43946 7.66676ZM6.4453 21.5265C8.1698 22.522 10.3673 22.5019 12.6006 21.5C14.8323 20.4987 17.0209 18.541 18.5843 15.8333C20.1475 13.1256 20.7487 10.2512 20.5 7.81786C20.251 5.38294 19.1696 3.4697 17.4453 2.47398C15.7208 1.47833 13.5225 1.49807 11.2892 2.49999C9.05748 3.50134 6.86877 5.45915 5.30549 8.16676C3.74224 10.8745 3.14108 13.7488 3.38976 16.1822C3.63873 18.6173 4.72075 20.5309 6.4453 21.5265Z" fill="black"/>
</svg>
