<svg width="24" height="24" viewBox="0 0 24 24" fill="none" xmlns="http://www.w3.org/2000/svg">
<path fill-rule="evenodd" clip-rule="evenodd" d="M4.14998 7.50061C7.59113 1.54041 13.8705 -1.27697 18.1752 1.20828L18.3745 1.32787C22.5007 3.90726 23.1258 10.6335 19.7384 16.5006L19.408 17.0496C15.9071 22.6313 9.8839 25.1997 5.71374 22.7921L5.51441 22.6725C1.51911 20.175 0.806041 13.79 3.83981 8.06127L4.14998 7.50061ZM9.83309 20.1513C10.3755 20.0779 10.9719 19.9092 11.6173 19.6196C13.4129 18.814 15.3138 17.1642 16.7073 14.7506C18.1009 12.3368 18.5797 9.86511 18.3795 7.90713C18.2619 6.75764 17.9304 5.88333 17.49 5.24657L9.83309 20.1513ZM7.18106 9.25061C5.78765 11.6642 5.3093 14.1354 5.50942 16.0932C5.63807 17.3516 6.02117 18.2815 6.5253 18.9294L14.2852 3.82478C13.6829 3.87789 13.0093 4.04984 12.2716 4.38076C10.4759 5.18639 8.57467 6.83684 7.18106 9.25061Z" fill="black"/>
</svg>
