<svg width="24" height="24" viewBox="0 0 24 24" fill="none" xmlns="http://www.w3.org/2000/svg">
<path d="M7.56159 15.627C7.56169 13.1588 9.21947 10.9973 11.6036 10.3585C12.4573 10.1295 13.0507 9.3566 13.0508 8.47273L13.0508 6.66023L13.0606 6.48152C13.1503 5.5994 13.8951 4.91056 14.8008 4.91023C15.7068 4.91036 16.4534 5.59922 16.543 6.48152L16.5508 6.66023L16.5518 8.47273C16.5517 10.9408 14.8928 13.1014 12.5089 13.7403C11.6552 13.9693 11.0626 14.7431 11.0626 15.627L11.0616 17.3468C11.0616 18.313 10.2777 19.0964 9.31159 19.0968C8.34541 19.0965 7.56179 18.3139 7.56159 17.3477V15.627Z" fill="black"/>
<path fill-rule="evenodd" clip-rule="evenodd" d="M5.75299 22.2774C1.90598 19.8723 1.21945 13.7235 4.14069 8.20711L4.43951 7.66707C7.7532 1.92779 13.8003 -0.784694 17.9454 1.60847L18.1368 1.72371C22.1098 4.2077 22.7119 10.6846 19.4503 16.3341L19.1319 16.8624C15.7609 22.2371 9.961 24.7105 5.94537 22.3927L5.75299 22.2774ZM7.47076 9.41707C6.14099 11.7204 5.68734 14.0734 5.87702 15.9288C6.06735 17.7897 6.84093 18.868 7.69537 19.3614C8.54993 19.8545 9.87063 19.9844 11.5772 19.2188C13.2786 18.4553 15.0893 16.8869 16.419 14.5841C17.7488 12.2807 18.2024 9.92679 18.0128 8.07137C17.8224 6.21117 17.0495 5.13324 16.1954 4.63972C15.3409 4.14642 14.0202 4.01586 12.3135 4.78133C10.6119 5.54475 8.8006 7.11386 7.47076 9.41707Z" fill="black"/>
</svg>
