<svg width="24" height="24" viewBox="0 0 24 24" fill="none" xmlns="http://www.w3.org/2000/svg">
<path fill-rule="evenodd" clip-rule="evenodd" d="M4.14998 7.50061C7.59113 1.54041 13.8705 -1.27697 18.1752 1.20828L18.3745 1.32787C22.5007 3.90726 23.1258 10.6335 19.7384 16.5006L19.408 17.0496C15.9071 22.6313 9.8839 25.1997 5.71374 22.7921L5.51441 22.6725C1.51911 20.175 0.806041 13.79 3.83981 8.06127L4.14998 7.50061ZM17.6759 1.50864C17.6794 1.53993 17.6785 1.57189 17.6697 1.60321L17.6516 1.65025L6.90042 22.5785L6.87249 22.621C6.82531 22.6798 6.75475 22.7102 6.68155 22.7115C8.52299 23.4734 10.6988 23.3205 12.8456 22.3574C15.2774 21.2663 17.6316 19.1496 19.3054 16.2506C20.9793 13.3514 21.6357 10.2536 21.3646 7.60197C21.0934 4.9495 19.9035 2.78346 17.9252 1.64129C17.8434 1.59408 17.7593 1.55178 17.6759 1.50864ZM5.96374 22.3591C6.13441 22.4576 6.30998 22.5446 6.48764 22.6255C6.43508 22.563 6.41422 22.4778 6.43657 22.3975L6.45471 22.3505L17.2059 1.42224L17.2338 1.37972C17.2504 1.35902 17.2706 1.3418 17.2921 1.32766C15.4327 0.524877 13.2235 0.664924 11.0433 1.64299C8.61137 2.73404 6.25685 4.85142 4.58299 7.75061C2.90931 10.6497 2.25326 13.7469 2.52429 16.3984C2.79549 19.0509 3.98544 21.2169 5.96374 22.3591Z" fill="black"/>
</svg>
