<svg width="24" height="24" viewBox="0 0 24 24" fill="none" xmlns="http://www.w3.org/2000/svg">
<path d="M7.47096 16.072C7.47105 13.5104 9.19164 11.2679 11.6659 10.6049C12.8282 10.2932 13.6369 9.23991 13.6371 8.03646L13.6364 6.92426C13.6366 6.09599 14.3087 5.42482 15.137 5.42482C15.9652 5.42501 16.6369 6.09629 16.6369 6.92453L16.6367 8.03625C16.6367 10.5978 14.916 12.8402 12.4418 13.5033C11.2792 13.8149 10.4708 14.8682 10.4706 16.0717L10.4708 17.0811L10.4625 17.2342C10.3858 17.9904 9.74753 18.5807 8.97111 18.581C8.19451 18.581 7.5555 17.9908 7.47862 17.2345L7.47034 17.0808L7.47096 16.072Z" fill="black"/>
<path fill-rule="evenodd" clip-rule="evenodd" d="M4.43898 7.66725C7.75265 1.92793 13.7997 -0.784714 17.9448 1.60844L18.1365 1.72364C22.1097 4.20755 22.7115 10.6842 19.4498 16.3338L19.1319 16.8629C15.7608 22.2376 9.96044 24.7111 5.94481 22.393L5.75225 22.2774C1.90525 19.8722 1.2193 13.724 4.14053 8.20761L4.43898 7.66725ZM7.44481 19.795C8.47331 20.3886 9.96886 20.4883 11.7808 19.6755C13.5885 18.8644 15.4752 17.2179 16.8517 14.8338C18.2282 12.4495 18.7108 9.99237 18.5093 8.02134C18.3073 6.04571 17.4731 4.80042 16.4448 4.20652C15.4163 3.61271 13.9202 3.51257 12.108 4.32554C10.3003 5.13655 8.41359 6.78308 7.03705 9.16725C5.66058 11.5514 5.17799 14.0087 5.37947 15.9797C5.58152 17.9555 6.41631 19.2012 7.44481 19.795Z" fill="black"/>
</svg>
