<svg width="24" height="24" viewBox="0 0 24 24" fill="none" xmlns="http://www.w3.org/2000/svg">
<path d="M8.15703 16.8078C8.15716 14.4706 9.72713 12.4241 11.9846 11.8189C14.0238 11.2724 15.4413 9.42494 15.4415 7.31385L15.4419 4.90883L15.4471 4.85883C15.4704 4.74523 15.5714 4.66 15.6918 4.65957C15.8127 4.65957 15.9143 4.74497 15.9375 4.85896L15.9424 4.90912L15.942 7.31414C15.9417 9.65141 14.3717 11.6968 12.114 12.3018C10.0752 12.8484 8.6569 14.6968 8.65669 16.8076L8.65657 19.091C8.65648 19.229 8.54419 19.3411 8.40617 19.3411C8.26874 19.3405 8.15707 19.2288 8.15691 19.0912L8.15703 16.8078Z" fill="black"/>
<path fill-rule="evenodd" clip-rule="evenodd" d="M4.43946 7.66676C7.75314 1.92744 13.8002 -0.785203 17.9453 1.60795L18.137 1.72315C22.1102 4.20707 22.712 10.6837 19.4503 16.3333L19.1324 16.8624C15.7613 22.2372 9.96093 24.7106 5.9453 22.3926L5.75274 22.2769C1.90574 19.8717 1.21979 13.7235 4.14102 8.20712L4.43946 7.66676ZM6.1953 21.9596C8.0938 23.0555 10.4665 23.0055 12.8051 21.9564C15.1429 20.9075 17.4072 18.8719 19.0173 16.0833C20.6273 13.2946 21.258 10.3158 20.9975 7.76678C20.7367 5.21704 19.5936 3.13714 17.6953 2.04097C15.7968 0.944859 13.4233 0.994478 11.0847 2.04363C8.74689 3.09253 6.48252 5.12816 4.87248 7.91676C3.26247 10.7054 2.63174 13.6842 2.8923 16.2333C3.15301 18.7832 4.29675 20.8634 6.1953 21.9596Z" fill="black"/>
</svg>
