<svg width="24" height="24" viewBox="0 0 24 24" fill="none" xmlns="http://www.w3.org/2000/svg">
<path d="M16.4717 6.13477C16.8302 5.92809 17.2889 6.05088 17.4961 6.40918L18.3359 7.86426C19.2826 9.50413 19.0096 11.576 17.6709 12.915C16.8123 13.7739 16.6373 15.1025 17.2441 16.1543L18.042 17.5361L18.0771 17.6045C18.2328 17.9511 18.1035 18.3663 17.7675 18.5605C17.4314 18.7546 17.0075 18.6587 16.7851 18.3506L16.7431 18.2861L15.9453 16.9043C14.9989 15.2644 15.2715 13.1924 16.6103 11.8535C17.4688 10.9946 17.6441 9.66606 17.0371 8.61426L16.1972 7.15918C15.9904 6.80056 16.1132 6.34184 16.4717 6.13477Z" fill="black"/>
<path fill-rule="evenodd" clip-rule="evenodd" d="M17.3672 4.01074C20.5668 4.23524 23.1113 7.89865 23.1113 12.3848L23.1035 12.8164C22.9412 17.2466 20.2955 20.7695 17.0556 20.7695L16.7441 20.7588C13.6478 20.5414 11.1648 17.1036 11.0078 12.8164L11 12.3848C11 7.75408 13.7113 4.00014 17.0556 4L17.3672 4.01074ZM17.0556 5.5C15.9862 5.50007 14.8823 6.09737 13.9892 7.33398C13.0976 8.56867 12.5 10.3498 12.5 12.3848C12.5 14.4198 13.0976 16.2009 13.9892 17.4355C14.8823 18.6722 15.9862 19.2695 17.0556 19.2695C18.1251 19.2695 19.2289 18.6722 20.122 17.4355C21.0137 16.2009 21.6113 14.4198 21.6113 12.3848C21.6113 10.3497 21.0137 8.56867 20.122 7.33398C19.2289 6.09736 18.1251 5.5 17.0556 5.5Z" fill="black"/>
<path d="M2.2822 7.28125C4.20387 5.36002 7.58246 5.48777 10.5381 7.35938C10.3318 7.81993 10.1541 8.3033 10.0068 8.80469C8.947 8.08106 7.83627 7.63655 6.80857 7.4707C5.30272 7.22784 4.09897 7.58672 3.34275 8.34277C2.58685 9.09894 2.22892 10.302 2.47165 11.8076C2.71423 13.311 3.55142 14.9928 4.99021 16.4316C6.4291 17.8705 8.11075 18.7076 9.61423 18.9502C10.2655 19.0552 10.8604 19.0486 11.3867 18.9453C11.4428 19.0285 11.4992 19.1116 11.5576 19.1924C11.8203 19.5562 12.1101 19.8979 12.4218 20.2129C10.0386 21.0562 6.7947 20.166 4.24021 17.792L3.92966 17.4922C0.757852 14.3202 -0.0340682 9.93102 2.06931 7.50977L2.2822 7.28125Z" fill="black"/>
<path d="M4.20505 8.37793C4.60464 8.2711 5.01538 8.50893 5.12302 8.9082L5.55857 10.5312C5.87302 11.7042 6.93606 12.5201 8.15036 12.5205C8.62153 12.5205 9.07821 12.5996 9.50583 12.7461C9.52206 13.3423 9.57926 13.9279 9.67282 14.4971C9.23614 14.196 8.71044 14.0206 8.15134 14.0205C6.25786 14.0203 4.59953 12.7479 4.10935 10.9189L3.67478 9.29688C3.56809 8.89717 3.80549 8.48528 4.20505 8.37793Z" fill="black"/>
</svg>
