<svg width="24" height="24" viewBox="0 0 24 24" fill="none" xmlns="http://www.w3.org/2000/svg">
<path fill-rule="evenodd" clip-rule="evenodd" d="M4.43888 7.66728C7.75254 1.92786 13.7996 -0.784724 17.9447 1.60848C22.0895 4.00185 22.7633 10.5945 19.4497 16.3338C16.1361 22.073 10.0898 24.7859 5.94472 22.3931C1.79957 19.9999 1.12522 13.4067 4.43888 7.66728ZM11.6006 10.3644C8.99908 11.0614 7.19014 13.4196 7.19015 16.1129L7.1903 18.0638C7.19049 19.0301 7.97395 19.8139 8.94033 19.8139C9.90646 19.8136 10.6902 19.03 10.6904 18.0639L10.6894 16.1125C10.6894 15.0033 11.435 14.0318 12.5064 13.7448C15.1076 13.0476 16.917 10.6906 16.9172 7.99757L16.9163 5.94249C16.9163 4.97613 16.1334 4.19309 15.1671 4.19287C14.2006 4.19287 13.417 4.9764 13.417 5.9429L13.4171 7.99749C13.4169 9.10643 12.6717 10.0772 11.6006 10.3644Z" fill="black"/>
</svg>
