<svg width="24" height="24" viewBox="0 0 24 24" fill="none" xmlns="http://www.w3.org/2000/svg">
<path fill-rule="evenodd" clip-rule="evenodd" d="M4.14998 7.50061C7.59113 1.54041 13.8705 -1.27697 18.1752 1.20828L18.3745 1.32787C22.5007 3.90726 23.1258 10.6335 19.7384 16.5006L19.408 17.0496C15.9071 22.6313 9.8839 25.1997 5.71374 22.7921L5.51441 22.6725C1.51911 20.175 0.806041 13.79 3.83981 8.06127L4.14998 7.50061ZM7.75094 22.0175C9.14381 22.377 10.7606 22.1957 12.4357 21.4442C14.6555 20.4483 16.859 18.4878 18.4394 15.7506C20.0198 13.0132 20.6163 10.1241 20.3688 7.70365C20.1347 5.41432 19.1692 3.65402 17.6882 2.67274L7.75094 22.0175ZM5.44901 8.25061C3.86873 10.9879 3.27263 13.8764 3.52006 16.2967C3.76268 18.6697 4.79123 20.4739 6.36505 21.4316L16.3267 2.03887C14.8919 1.61126 13.2048 1.77039 11.4532 2.55619C9.23327 3.5521 7.02946 5.51322 5.44901 8.25061Z" fill="black"/>
</svg>
