<svg width="24" height="24" viewBox="0 0 24 24" fill="none" xmlns="http://www.w3.org/2000/svg">
<path fill-rule="evenodd" clip-rule="evenodd" d="M17.3674 4.01074C20.567 4.23536 23.1115 7.89874 23.1115 12.3848L23.1037 12.8164C22.9414 17.2465 20.2957 20.7694 17.0558 20.7695L16.7443 20.7588C13.6479 20.5415 11.165 17.1037 11.008 12.8164L11.0002 12.3848C11.0002 7.75399 13.7114 4 17.0558 4L17.3674 4.01074ZM16.0158 6.23047C15.4598 6.47639 14.901 6.92736 14.3957 7.62695C13.572 8.76743 13.0002 10.4431 13.0002 12.3848C13.0002 14.3265 13.572 16.0021 14.3957 17.1426C15.1614 18.2026 16.048 18.6958 16.8654 18.7617C16.757 18.6946 16.6603 18.6054 16.5822 18.4971L16.5265 18.4111L15.7287 17.0293C14.7257 15.2914 15.0149 13.0957 16.4338 11.6768C17.2121 10.8978 17.371 9.69304 16.8205 8.73926L15.9806 7.28418C15.7843 6.94379 15.8118 6.53691 16.0158 6.23047ZM17.5197 6.04688C17.5935 6.11429 17.6594 6.19307 17.7121 6.28418L18.5529 7.73926C19.556 9.47705 19.2665 11.6728 17.8478 13.0918C17.0692 13.8707 16.9107 15.0754 17.4611 16.0293L18.259 17.4111C18.46 17.7595 18.4264 18.1786 18.2092 18.4873C18.7275 18.2317 19.2449 17.7948 19.716 17.1426C20.5396 16.0021 21.1115 14.3264 21.1115 12.3848C21.1115 10.4431 20.5396 8.76743 19.716 7.62695C19.0351 6.68424 18.2582 6.1912 17.5197 6.04688Z" fill="black"/>
<path d="M2.28241 7.28125C4.15781 5.40653 7.41935 5.4843 10.3224 7.22852C10.0468 7.83953 9.82008 8.48887 9.64764 9.16699C8.66733 8.51262 7.65339 8.11514 6.72772 7.96582C5.87594 7.82847 5.16189 7.90394 4.59491 8.12305C4.9557 8.19551 5.26256 8.46439 5.36444 8.84375L5.79998 10.4668C6.08526 11.5304 7.04942 12.2702 8.15057 12.2705C8.52818 12.2705 8.89683 12.3187 9.25018 12.4092C9.25157 13.1732 9.3183 13.9222 9.44354 14.6455C9.06543 14.4079 8.621 14.2706 8.15057 14.2705C6.14411 14.2702 4.38686 12.9224 3.86737 10.9844L3.4328 9.36133C3.40564 9.2597 3.39706 9.15641 3.40155 9.05664C2.98138 9.68083 2.78092 10.5795 2.966 11.7275C3.19003 13.1162 3.97027 14.7053 5.34295 16.0781C6.71594 17.4511 8.30565 18.232 9.69452 18.4561C10.1024 18.5218 10.4787 18.5388 10.8224 18.5146C10.9884 18.8003 11.1654 19.0758 11.3547 19.3379C11.5996 19.6769 11.8667 19.9992 12.1545 20.2988C9.79997 20.9883 6.69979 20.0785 4.23944 17.792L3.92889 17.4922C0.757058 14.3201 -0.0341678 9.93092 2.06952 7.50977L2.28241 7.28125Z" fill="black"/>
</svg>
