<svg width="24" height="24" viewBox="0 0 24 24" fill="none" xmlns="http://www.w3.org/2000/svg">
<path d="M7.15687 16.8077C7.15701 14.0179 9.03113 11.5753 11.7258 10.853C13.3279 10.4238 14.4426 8.97197 14.4426 7.31339L14.4423 5.99951C14.4426 5.30951 15.0025 4.75036 15.6925 4.75018C16.3826 4.75024 16.942 5.30943 16.9423 5.9995L16.9426 7.31338C16.9425 10.1035 15.0679 12.5455 12.3728 13.2676C10.7711 13.697 9.65698 15.1494 9.65684 16.8077L9.65663 17.9995L9.65024 18.1278C9.58611 18.758 9.05394 19.2502 8.40682 19.2502C7.75992 19.2499 7.22792 18.7578 7.16383 18.1277L7.15665 17.9995L7.15687 16.8077Z" fill="black"/>
<path fill-rule="evenodd" clip-rule="evenodd" d="M4.43946 7.66676C7.75314 1.92745 13.8002 -0.785202 17.9453 1.60795L18.137 1.72315C22.1102 4.20706 22.712 10.6837 19.4503 16.3333L19.1324 16.8624C15.7613 22.2372 9.96093 24.7106 5.9453 22.3926L5.75273 22.2769C1.90574 19.8717 1.21979 13.7235 4.14102 8.20712L4.43946 7.66676ZM7.21044 20.2013C8.40252 20.8893 10.0633 20.9617 11.9743 20.1044C13.8816 19.2486 15.8386 17.5283 17.259 15.0681C18.6793 12.608 19.1907 10.0529 18.9782 7.97327C18.7651 5.88971 17.872 4.48756 16.6802 3.79923C15.4881 3.11101 13.8274 3.03882 11.9163 3.89612C10.0089 4.75184 8.05122 6.47163 6.63074 8.9319C5.21036 11.3921 4.69984 13.9476 4.91243 16.0272C5.12557 18.1109 6.01842 19.5131 7.21044 20.2013Z" fill="black"/>
</svg>
