<svg width="24" height="24" viewBox="0 0 24 24" fill="none" xmlns="http://www.w3.org/2000/svg">
<path fill-rule="evenodd" clip-rule="evenodd" d="M17.0556 4C20.4001 4 23.1113 7.75399 23.1113 12.3848C23.1113 17.0155 20.4001 20.7695 17.0556 20.7695C13.7112 20.7694 11 17.0155 11 12.3848C11 7.75405 13.7112 4.00009 17.0556 4ZM17.2793 6.53418C17.1412 6.29553 16.8356 6.21318 16.5966 6.35059C16.3577 6.48862 16.2753 6.79512 16.413 7.03418L17.2529 8.48926C17.9167 9.6391 17.7256 11.0912 16.7871 12.0303C15.5282 13.2892 15.2721 15.2374 16.1621 16.7793L16.9599 18.1611L17.0185 18.2432C17.1728 18.4173 17.4332 18.4645 17.6425 18.3438C17.8513 18.2229 17.9404 17.9742 17.8672 17.7539L17.8252 17.6611L17.0283 16.2793C16.3646 15.1294 16.5554 13.6772 17.4941 12.7383C18.7529 11.4792 19.0093 9.53116 18.1191 7.98926L17.2793 6.53418Z" fill="black"/>
<path d="M2.28219 7.28223C4.29561 5.2688 7.90779 5.50547 10.958 7.64062C10.3439 9.04244 10 10.6678 9.99996 12.3848C9.99997 12.6762 10.0108 12.9655 10.0302 13.251C9.46699 12.9441 8.82493 12.7705 8.15035 12.7705C6.82287 12.7701 5.66108 11.878 5.31735 10.5957L4.8818 8.97363C4.81019 8.70709 4.53514 8.54868 4.26852 8.62012C4.00271 8.69213 3.84483 8.96624 3.91598 9.23242L4.35153 10.8555C4.81262 12.5748 6.3712 13.7713 8.15133 13.7715C8.93727 13.7716 9.66287 14.0863 10.1972 14.6074C10.4922 16.2375 11.1066 17.7138 11.9629 18.8994C12.2524 19.3003 12.5742 19.6708 12.9218 20.0039C10.4163 21.2214 6.70676 20.27 3.92965 17.4932C0.65527 14.2188 -0.0825069 9.64715 2.28219 7.28223Z" fill="black"/>
</svg>
