<svg width="24" height="24" viewBox="0 0 24 24" fill="none" xmlns="http://www.w3.org/2000/svg">
<path d="M7.90729 16.8077C7.90753 14.3572 9.55392 12.2115 11.921 11.5772C13.8503 11.0599 15.1921 9.31204 15.1924 7.31453L15.1934 4.90926L15.2022 4.80867C15.2488 4.58088 15.4509 4.40939 15.6924 4.40926C15.9339 4.40937 16.136 4.58096 16.1827 4.80867L16.1934 4.90926L16.1924 7.31453C16.1921 9.76481 14.5456 11.9097 12.1788 12.544C10.2493 13.0614 8.90753 14.81 8.90729 16.8077V19.0909C8.90724 19.3669 8.68323 19.5907 8.40729 19.5909C8.13126 19.5908 7.90731 19.367 7.90729 19.0909V16.8077Z" fill="black"/>
<path fill-rule="evenodd" clip-rule="evenodd" d="M5.75299 22.2774C1.90598 19.8723 1.21945 13.7235 4.14069 8.20711L4.43951 7.66707C7.7532 1.92779 13.8003 -0.784694 17.9454 1.60847L18.1368 1.72371C22.1098 4.2077 22.7119 10.6846 19.4503 16.3341L19.1319 16.8624C15.7609 22.2371 9.961 24.7105 5.94537 22.3927L5.75299 22.2774ZM5.30573 8.16707C3.74246 10.8748 3.141 13.7493 3.38971 16.1827C3.63871 18.6177 4.72092 20.5308 6.44537 21.5264C8.16985 22.5218 10.3675 22.5019 12.6006 21.5001C14.8322 20.4988 17.0208 18.5414 18.584 15.8341C20.1472 13.1265 20.7487 10.2518 20.5001 7.81844C20.2511 5.38366 19.1695 3.47048 17.4454 2.47469C15.7209 1.47906 13.5224 1.49825 11.2891 2.50008C9.05748 3.50141 6.869 5.45953 5.30573 8.16707Z" fill="black"/>
</svg>
