<svg width="24" height="24" viewBox="0 0 24 24" fill="none" xmlns="http://www.w3.org/2000/svg">
<path fill-rule="evenodd" clip-rule="evenodd" d="M4.14991 7.50061C7.59107 1.54041 13.8705 -1.27697 18.1751 1.20828L18.3744 1.32787C22.5007 3.90726 23.1257 10.6335 19.7384 16.5006L19.4079 17.0496C15.907 22.6313 9.88384 25.1997 5.71367 22.7921L5.51434 22.6725C1.51905 20.175 0.80598 13.79 3.83975 8.06127L4.14991 7.50061ZM9.27282 20.6939C10.0345 20.6828 10.8908 20.4936 11.8217 20.076C13.7234 19.2228 15.7 17.4951 17.1403 15.0006C18.5806 12.5059 19.0889 9.92965 18.8769 7.85605C18.726 6.38105 18.2364 5.2841 17.5699 4.54172L9.27282 20.6939ZM6.74799 9.00061C5.30783 11.4952 4.79992 14.0708 5.0119 16.1443C5.17314 17.7212 5.71966 18.8676 6.45777 19.6088L14.8311 3.3089C14.0168 3.28406 13.0867 3.46704 12.0671 3.92441C10.1653 4.7776 8.18831 6.50593 6.74799 9.00061Z" fill="black"/>
</svg>
