<svg width="24" height="24" viewBox="0 0 24 24" fill="none" xmlns="http://www.w3.org/2000/svg">
<path d="M7.40712 16.8079C7.40719 14.1311 9.20507 11.7875 11.7905 11.0945C13.502 10.6359 14.6921 9.08487 14.6921 7.31305L14.6922 5.00034C14.6923 4.44827 15.1404 4.0005 15.6924 4.00027C16.2446 4.00035 16.6916 4.44787 16.6917 5.00003L16.6924 7.31324C16.6924 9.99026 14.8939 12.3333 12.3081 13.0261C10.5971 13.4849 9.40676 15.0361 9.40659 16.8076L9.40713 19L9.40231 19.1021C9.35114 19.6064 8.92467 20.0001 8.40687 20.0001C7.8893 19.9998 7.46321 19.6062 7.41204 19.1021L7.40681 18.9998L7.40712 16.8079Z" fill="black"/>
<path fill-rule="evenodd" clip-rule="evenodd" d="M4.43946 7.66676C7.75314 1.92745 13.8002 -0.785202 17.9453 1.60795L18.137 1.72315C22.1102 4.20706 22.712 10.6837 19.4503 16.3333L19.1324 16.8624C15.7613 22.2372 9.96093 24.7106 5.9453 22.3926L5.75273 22.2769C1.90574 19.8717 1.21979 13.7235 4.14102 8.20712L4.43946 7.66676ZM6.9453 20.6605C8.32179 21.455 10.1685 21.4956 12.1911 20.5882C14.2109 19.682 16.2483 17.8792 17.7182 15.3333C19.1881 12.7873 19.7307 10.1214 19.5056 7.91917C19.2801 5.7139 18.3216 4.13481 16.9453 3.34C15.5688 2.54532 13.7221 2.50504 11.6995 3.41234C9.67969 4.31848 7.6415 6.12074 6.17151 8.66676C4.70162 11.2128 4.15992 13.8791 4.38504 16.0813C4.61065 18.2866 5.56889 19.8658 6.9453 20.6605Z" fill="black"/>
</svg>
