<svg width="24" height="24" viewBox="0 0 24 24" fill="none" xmlns="http://www.w3.org/2000/svg">
<path fill-rule="evenodd" clip-rule="evenodd" d="M4.14936 7.50012C7.59052 1.53992 13.8699 -1.27745 18.1745 1.20779L18.3739 1.32738C22.5001 3.90677 23.1251 10.6331 19.7378 16.5001L19.4074 17.0491C15.9065 22.6309 9.88329 25.1993 5.71312 22.7916L5.51379 22.672C1.5185 20.1745 0.805431 13.7896 3.8392 8.06078L4.14936 7.50012ZM17.6753 1.50815C17.6788 1.53944 17.6779 1.5714 17.6691 1.60272L17.651 1.64976L6.89981 22.578L6.87188 22.6205C6.8247 22.6793 6.75414 22.7097 6.68094 22.711C8.52238 23.4729 10.6982 23.32 12.8449 22.3569C15.2768 21.2659 17.631 19.1491 19.3048 16.2501C20.9787 13.3509 21.6351 10.2532 21.364 7.60149C21.0928 4.94902 19.9028 2.78297 17.9246 1.6408C17.8428 1.59359 17.7587 1.55129 17.6753 1.50815ZM5.96312 22.3586C6.1338 22.4571 6.30937 22.5441 6.48703 22.625C6.43446 22.5625 6.41361 22.4773 6.43596 22.397L6.4541 22.35L17.2053 1.42175L17.2332 1.37924C17.2498 1.35853 17.27 1.34131 17.2915 1.32717C15.432 0.524388 13.2229 0.664435 11.0427 1.6425C8.61076 2.73355 6.25624 4.85093 4.58238 7.75012C2.9087 10.6492 2.25265 13.7464 2.52368 16.3979C2.79488 19.0504 3.98483 21.2164 5.96312 22.3586Z" fill="black"/>
</svg>
