<svg width="24" height="24" viewBox="0 0 24 24" fill="none" xmlns="http://www.w3.org/2000/svg">
<path d="M7.72438 15.4143C7.72443 13.045 9.31608 10.9709 11.6046 10.3576C12.3627 10.1542 12.8898 9.46698 12.89 8.68203L12.8899 7.75054L12.8989 7.57083C12.9888 6.68873 13.7342 6.00065 14.64 6.00051C15.6065 6.00051 16.39 6.78413 16.39 7.75062L16.3901 8.68211C16.3899 11.0513 14.7984 13.1256 12.5099 13.7388C11.7517 13.9421 11.2239 14.6289 11.2237 15.4139L11.2237 16.2596L11.2151 16.4384C11.1255 17.3209 10.3797 18.0096 9.47355 18.0096C8.56771 18.0093 7.82249 17.3208 7.7329 16.4386L7.72352 16.2595L7.72438 15.4143Z" fill="black"/>
<path fill-rule="evenodd" clip-rule="evenodd" d="M4.43898 7.66725C7.75265 1.92793 13.7997 -0.784714 17.9448 1.60844L18.1365 1.72364C22.1097 4.20755 22.7115 10.6842 19.4498 16.3338L19.1319 16.8629C15.7608 22.2376 9.96044 24.7111 5.94481 22.393L5.75225 22.2774C1.90525 19.8722 1.2193 13.724 4.14053 8.20761L4.43898 7.66725ZM7.69481 19.362C8.54936 19.8551 9.8696 19.9848 11.5763 19.2191C13.278 18.4557 15.0889 16.887 16.4187 14.5838C17.7485 12.2804 18.202 9.927 18.0123 8.07157C17.822 6.2111 17.0491 5.13294 16.1948 4.63953C15.3404 4.14622 14.0196 4.01553 12.313 4.78104C10.6113 5.54447 8.79992 7.11394 7.47006 9.41725C6.14032 11.7205 5.68729 14.0732 5.87693 15.9286C6.06722 17.7897 6.84028 18.8686 7.69481 19.362Z" fill="black"/>
</svg>
