<svg width="24" height="24" viewBox="0 0 24 24" fill="none" xmlns="http://www.w3.org/2000/svg">
<path fill-rule="evenodd" clip-rule="evenodd" d="M4.14998 7.50061C7.59113 1.54041 13.8705 -1.27697 18.1752 1.20828L18.3745 1.32787C22.5007 3.90726 23.1258 10.6335 19.7384 16.5006L19.408 17.0496C15.9071 22.6313 9.8839 25.1997 5.71374 22.7921L5.51441 22.6725C1.51911 20.175 0.806041 13.79 3.83981 8.06127L4.14998 7.50061ZM17.5839 3.84953C17.5697 3.92793 17.5483 4.0059 17.5183 4.08229L17.4658 4.19858L8.86369 20.9436L8.79972 21.0544C8.77299 21.0956 8.74297 21.1338 8.71223 21.1708C9.69369 21.2654 10.816 21.0752 12.0263 20.5323C14.034 19.6316 16.0864 17.826 17.5734 15.2506C19.0604 12.675 19.5982 9.99418 19.3744 7.80497C19.1906 6.00825 18.5238 4.67878 17.5839 3.84953ZM6.31504 8.75061C4.82817 11.3261 4.2907 14.0063 4.5145 16.1954C4.71105 18.1172 5.4592 19.5055 6.5041 20.3177C6.50996 20.1837 6.53694 20.0488 6.588 19.9185L6.64048 19.8022L15.2426 3.05709C15.2803 2.98369 15.3246 2.91569 15.3739 2.85321C14.3466 2.7112 13.1548 2.88844 11.8626 3.46805C9.85482 4.36882 7.80207 6.17503 6.31504 8.75061Z" fill="black"/>
</svg>
