<svg width="24" height="24" viewBox="0 0 24 24" fill="none" xmlns="http://www.w3.org/2000/svg">
<path d="M4.13952 8.20777L4.43835 7.66773C7.7519 1.92849 13.7991 -0.784627 17.9442 1.60816L18.1356 1.72339C22.1088 4.20732 22.7108 10.6842 19.4491 16.3337L19.1317 16.863C19.0965 16.9191 19.059 16.9736 19.0233 17.0291L17.288 16.0281C17.435 15.803 17.5791 15.572 17.7167 15.3337C19.1865 12.7878 19.7298 10.1219 19.5048 7.91968C19.2793 5.71439 18.3205 4.1354 16.9442 3.34058C15.5678 2.54601 13.7207 2.50555 11.6981 3.41285C9.67852 4.31912 7.64058 6.12194 6.17077 8.66773C6.03319 8.90606 5.90551 9.14653 5.78405 9.38648L4.05066 8.38453C4.08074 8.32605 4.10863 8.26611 4.13952 8.20777Z" fill="black"/>
<path d="M5.94519 22.3923C1.97349 20.0992 1.1895 13.9507 4.04577 8.39136L10.0975 11.8855C8.71907 12.8618 7.84991 14.4637 7.84948 16.2273V18.2351L7.85534 18.3367C7.90652 18.8407 8.33204 19.2347 8.84948 19.2351C9.40165 19.235 9.85036 18.7873 9.85046 18.2351L9.84948 16.2273C9.85005 14.7817 10.7858 13.5107 12.1493 13.0701L19.0175 17.0359C15.6313 22.2885 9.91681 24.6846 5.94519 22.3923Z" fill="black"/>
<path d="M11.7928 11.0886C13.2442 10.6997 14.2542 9.38507 14.2548 7.88257L14.2538 5.76734L14.2596 5.66578C14.311 5.16194 14.7374 4.76771 15.2548 4.76734C15.7722 4.7675 16.1975 5.16185 16.2489 5.66578L16.2548 5.76832L16.2538 7.8816C16.2536 9.70814 15.3228 11.362 13.8583 12.3259L11.7421 11.1043C11.7589 11.0996 11.7759 11.0932 11.7928 11.0886Z" fill="black"/>
</svg>
