<svg width="24" height="24" viewBox="0 0 24 24" fill="none" xmlns="http://www.w3.org/2000/svg">
<path fill-rule="evenodd" clip-rule="evenodd" d="M4.14998 7.50061C7.59113 1.54041 13.8705 -1.27697 18.1752 1.20828L18.3745 1.32787C22.5007 3.90726 23.1258 10.6335 19.7384 16.5006L19.408 17.0496C15.9071 22.6313 9.8839 25.1997 5.71374 22.7921L5.51441 22.6725C1.51911 20.175 0.806041 13.79 3.83981 8.06127L4.14998 7.50061ZM9.27288 20.6939C10.0345 20.6828 10.8909 20.4936 11.8218 20.076C13.7235 19.2228 15.7001 17.4951 17.1404 15.0006C18.5807 12.5059 19.0889 9.92965 18.8769 7.85605C18.7261 6.38105 18.2364 5.2841 17.5699 4.54172L9.27288 20.6939ZM6.74805 9.00061C5.30789 11.4952 4.79998 14.0708 5.01196 16.1443C5.1732 17.7212 5.71972 18.8676 6.45783 19.6088L14.8311 3.3089C14.0168 3.28406 13.0867 3.46704 12.0671 3.92441C10.1653 4.7776 8.18837 6.50593 6.74805 9.00061Z" fill="black"/>
</svg>
