<svg width="24" height="24" viewBox="0 0 24 24" fill="none" xmlns="http://www.w3.org/2000/svg">
<path fill-rule="evenodd" clip-rule="evenodd" d="M4.14936 7.50012C7.59052 1.53992 13.8699 -1.27745 18.1745 1.20779L18.3739 1.32738C22.5001 3.90677 23.1251 10.6331 19.7378 16.5001L19.4074 17.0491C15.9065 22.6309 9.88329 25.1993 5.71312 22.7916L5.51379 22.672C1.5185 20.1745 0.805431 13.7896 3.8392 8.06078L4.14936 7.50012ZM7.27199 22.3982C8.87561 22.9235 10.7475 22.7498 12.6405 21.9005C14.9662 20.857 17.2447 18.8181 18.8718 16.0001C20.4989 13.1819 21.1258 10.1886 20.8665 7.65257C20.6085 5.12877 19.4902 3.13901 17.7032 2.0926L7.27199 22.3982ZM6.35342 22.0009L16.7981 1.66813C15.1546 1.06696 13.2128 1.21704 11.2472 2.09886C8.92135 3.14236 6.6425 5.18191 5.01539 8.00012C3.38847 10.8182 2.76199 13.811 3.02115 16.3468C3.2806 18.8845 4.40883 20.8839 6.21312 21.9256C6.25915 21.9522 6.30676 21.9758 6.35342 22.0009Z" fill="black"/>
</svg>
