<svg width="24" height="24" viewBox="0 0 24 24" fill="none" xmlns="http://www.w3.org/2000/svg">
<path d="M7.65591 16.808C7.65618 14.2446 9.37863 12.0002 11.8546 11.3364C13.6751 10.8486 14.941 9.19924 14.9412 7.31453L14.9416 4.90952L14.9454 4.83274C14.9839 4.45493 15.3036 4.15987 15.6915 4.15956C16.0798 4.15956 16.3997 4.45488 16.4381 4.83309L16.4414 4.90942L16.441 7.31443C16.4408 9.87811 14.7187 12.1225 12.2423 12.786C10.4223 13.2743 9.15667 14.924 9.15658 16.8084L9.15646 19.0918C9.15626 19.5059 8.81985 19.8413 8.40576 19.8413C7.99206 19.8408 7.6559 19.5052 7.6558 19.0914L7.65591 16.808Z" fill="black"/>
<path fill-rule="evenodd" clip-rule="evenodd" d="M4.43885 7.66725C7.75253 1.92793 13.7996 -0.784715 17.9447 1.60844L18.1364 1.72364C22.1095 4.20755 22.7114 10.6842 19.4497 16.3338L19.1318 16.8629C15.7607 22.2377 9.96032 24.7111 5.94469 22.3931L5.75213 22.2774C1.90513 19.8722 1.21918 13.724 4.14041 8.20761L4.43885 7.66725ZM6.69469 21.094C8.2452 21.989 10.2675 21.9988 12.3955 21.0442C14.5211 20.0904 16.6341 18.2105 18.1506 15.5838C19.6673 12.9568 20.2394 10.1865 20.0024 7.86858C19.7652 5.54849 18.745 3.80274 17.1947 2.90748C15.6442 2.01229 13.6216 2.00131 11.4935 2.95598C9.36771 3.9097 7.25458 5.79033 5.73789 8.41725C4.2214 11.044 3.64981 13.8138 3.88661 16.1316C4.12384 18.4519 5.14414 20.1988 6.69469 21.094Z" fill="black"/>
</svg>
