<svg width="24" height="24" viewBox="0 0 24 24" fill="none" xmlns="http://www.w3.org/2000/svg">
<path d="M4.14 8.20773L4.43883 7.66769C7.75242 1.92864 13.7996 -0.784631 17.9447 1.60812L18.1361 1.72335C22.109 4.20731 22.7111 10.6843 19.4496 16.3337L19.1322 16.863C19.0956 16.9214 19.0561 16.9782 19.0189 17.0359L16.4164 15.5349C16.5658 15.3085 16.7124 15.0753 16.8519 14.8337C18.2282 12.4497 18.7106 9.99209 18.5091 8.0212C18.3071 6.04587 17.4729 4.80069 16.4447 4.20675C15.4162 3.61307 13.9197 3.5131 12.1078 4.32589C10.3003 5.13699 8.41287 6.78385 7.03649 9.16769C6.89725 9.4089 6.76897 9.65212 6.64781 9.89425L4.04723 8.3923C4.07858 8.33126 4.10776 8.26861 4.14 8.20773Z" fill="black"/>
<path d="M5.94469 22.3923C1.97332 20.0991 1.19123 13.9514 4.04723 8.3923L9.64684 11.6257C8.37161 12.6481 7.58155 14.2145 7.58141 15.9275V17.7917C7.58167 18.6199 8.25316 19.2907 9.08141 19.2907C9.85749 19.2903 10.4966 18.7009 10.5736 17.945L10.5804 17.7907L10.5814 15.9275C10.5817 14.7908 11.3448 13.795 12.4427 13.5007C12.5428 13.4739 12.6421 13.4439 12.7396 13.4118L19.0179 17.0368C15.6317 22.2894 9.91624 24.6848 5.94469 22.3923Z" fill="black"/>
<path d="M11.1595 10.7673C11.3243 10.7057 11.4938 10.6505 11.6664 10.6042C12.7641 10.3098 13.5273 9.31394 13.5277 8.17745L13.5287 6.21456L13.5355 6.06124C13.6126 5.30542 14.2516 4.71499 15.0277 4.71456C15.8041 4.71477 16.4439 5.30514 16.5209 6.06124L16.5277 6.21456V8.17745C16.5275 9.95386 15.6771 11.5726 14.3177 12.5905L11.1595 10.7673Z" fill="black"/>
</svg>
