<svg width="24" height="24" viewBox="0 0 24 24" fill="none" xmlns="http://www.w3.org/2000/svg">
<path fill-rule="evenodd" clip-rule="evenodd" d="M4.14998 7.50061C7.59113 1.54041 13.8705 -1.27697 18.1752 1.20828L18.3745 1.32787C22.5007 3.90726 23.1258 10.6335 19.7384 16.5006L19.408 17.0496C15.9071 22.6313 9.8839 25.1997 5.71374 22.7921L5.51441 22.6725C1.51911 20.175 0.806041 13.79 3.83981 8.06127L4.14998 7.50061ZM7.2726 22.3987C8.87622 22.924 10.7481 22.7503 12.6411 21.901C14.9668 20.8575 17.2454 18.8186 18.8724 16.0006C20.4995 13.1824 21.1264 10.1891 20.8671 7.65306C20.6091 5.12926 19.4908 3.1395 17.7038 2.09309L7.2726 22.3987ZM6.35403 22.0014L16.7987 1.66862C15.1552 1.06744 13.2134 1.21752 11.2478 2.09935C8.92196 3.14285 6.64311 5.1824 5.016 8.00061C3.38908 10.8187 2.7626 13.8114 3.02176 16.3473C3.28121 18.885 4.40944 20.8844 6.21374 21.9261C6.25976 21.9526 6.30737 21.9762 6.35403 22.0014Z" fill="black"/>
</svg>
