<svg width="24" height="24" viewBox="0 0 24 24" fill="none" xmlns="http://www.w3.org/2000/svg">
<path d="M11.7281 10.8474C13.0701 10.4878 14.0038 9.27173 14.0044 7.88251V5.76825L14.0113 5.63935C14.0758 5.00994 14.6081 4.51777 15.2544 4.51728C15.9015 4.51738 16.4345 5.01014 16.4986 5.64032L16.5044 5.76825V7.88251C16.504 9.75102 15.5724 11.4465 14.0992 12.4645L11.4449 10.9323C11.5379 10.9021 11.6328 10.8729 11.7281 10.8474Z" fill="black"/>
<path fill-rule="evenodd" clip-rule="evenodd" d="M5.94487 22.3913C1.97339 20.0982 1.18949 13.9504 4.04546 8.3913L4.04644 8.39228C4.07775 8.33133 4.10703 8.26851 4.13921 8.20771L4.43804 7.66767C7.75155 1.92849 13.7988 -0.784558 17.9439 1.6081L18.1353 1.72333C22.1085 4.20725 22.7105 10.6841 19.4488 16.3337L19.1314 16.863C19.0948 16.9213 19.0553 16.9782 19.0181 17.0358L19.0171 17.0349L18.6929 17.5192C15.2754 22.4334 9.79249 24.6124 5.94487 22.3913ZM9.85894 11.7477C8.47022 12.7754 7.60049 14.4209 7.60015 16.2272L7.60015 18.2341L7.60698 18.363C7.67132 18.9928 8.20338 19.4848 8.85015 19.4851C9.49692 19.4848 10.029 18.9928 10.0933 18.363L10.0992 18.2341L10.1001 16.2272C10.1006 14.838 11.0336 13.6202 12.3755 13.2604C12.3986 13.2542 12.4219 13.2474 12.4449 13.2409L16.8492 15.7839C16.9981 15.5572 17.1446 15.3247 17.2837 15.0837C18.7068 12.6187 19.2186 10.057 19.0054 7.9704C18.7917 5.87995 17.8962 4.46749 16.6939 3.77313C15.4915 3.0792 13.8199 3.00896 11.9029 3.86884C9.98939 4.72758 8.02612 6.45289 6.60308 8.91767C6.46401 9.15861 6.33527 9.40198 6.21343 9.64423L9.85894 11.7477Z" fill="black"/>
</svg>
