<svg width="24" height="24" viewBox="0 0 24 24" fill="none" xmlns="http://www.w3.org/2000/svg">
<path fill-rule="evenodd" clip-rule="evenodd" d="M17.0556 4C20.4001 4 23.1113 7.75399 23.1113 12.3848C23.1113 17.0155 20.4001 20.7695 17.0556 20.7695C13.7113 20.7694 11 17.0155 11 12.3848C11 7.75406 13.7113 4.00011 17.0556 4ZM17.4961 6.40918C17.289 6.05087 16.8302 5.92809 16.4717 6.13477C16.1131 6.34184 15.9904 6.80055 16.1972 7.15918L17.0371 8.61426C17.6442 9.66606 17.4688 10.9946 16.6103 11.8535C15.2715 13.1924 14.9988 15.2644 15.9453 16.9043L16.7431 18.2861L16.7851 18.3506C17.0075 18.6587 17.4313 18.7546 17.7676 18.5605C18.1035 18.3663 18.2328 17.9511 18.0771 17.6045L18.042 17.5361L17.2441 16.1543C16.6372 15.1025 16.8123 13.7739 17.6709 12.915C19.0096 11.576 19.2826 9.50413 18.3359 7.86426L17.4961 6.40918Z" fill="black"/>
<path d="M2.2822 7.28223C4.20384 5.36066 7.58228 5.48858 10.5381 7.36035C9.87183 8.84846 9.50095 10.5723 9.50095 12.3857C9.50096 12.5065 9.50355 12.6272 9.50681 12.7471C9.079 12.6004 8.62178 12.5215 8.15037 12.5215C6.93626 12.521 5.87317 11.7049 5.55857 10.5322L5.12302 8.90918C5.01554 8.50963 4.60481 8.27197 4.20505 8.37891C3.80536 8.48629 3.56782 8.89802 3.67478 9.29785L4.10935 10.9199C4.59969 12.7486 6.25803 14.0213 8.15134 14.0215C8.71092 14.0216 9.23691 14.1975 9.6738 14.499C9.96604 16.2749 10.6202 17.8941 11.5586 19.1934C11.8209 19.5565 12.1097 19.8983 12.4209 20.2129C9.94003 21.0903 6.52705 20.0903 3.92966 17.4932C0.65533 14.2188 -0.0825551 9.64711 2.2822 7.28223Z" fill="black"/>
</svg>
