<svg width="24" height="24" viewBox="0 0 24 24" fill="none" xmlns="http://www.w3.org/2000/svg">
<path fill-rule="evenodd" clip-rule="evenodd" d="M4.14998 7.50061C7.59113 1.54041 13.8705 -1.27697 18.1752 1.20828L18.3745 1.32787C22.5007 3.90726 23.1258 10.6335 19.7384 16.5006L19.408 17.0496C15.9071 22.6313 9.8839 25.1997 5.71374 22.7921L5.51441 22.6725C1.51911 20.175 0.806041 13.79 3.83981 8.06127L4.14998 7.50061ZM8.23992 21.6119C9.42317 21.8245 10.7868 21.6364 12.2307 20.9887C14.3445 20.0404 16.4727 18.1569 18.0064 15.5006C19.5401 12.8442 20.107 10.0595 19.8714 7.75473C19.6628 5.71517 18.8535 4.17882 17.6634 3.26846L8.23992 21.6119ZM5.88203 8.50061C4.34845 11.157 3.78142 13.9418 4.01704 16.2465C4.23479 18.3752 5.10717 19.9557 6.38388 20.8482L15.8455 2.43088C14.6175 2.15933 13.1827 2.32838 11.6577 3.01254C9.54383 3.96089 7.41574 5.84416 5.88203 8.50061Z" fill="black"/>
</svg>
