<svg width="24" height="24" viewBox="0 0 24 24" fill="none" xmlns="http://www.w3.org/2000/svg">
<path fill-rule="evenodd" clip-rule="evenodd" d="M5.9441 22.3925C1.79942 19.9992 1.12486 13.4061 4.43824 7.66695C7.75185 1.92772 13.799 -0.784552 17.9441 1.60836C22.0889 4.00171 22.7624 10.5938 19.449 16.333C16.1354 22.0722 10.0892 24.7854 5.9441 22.3925ZM7.90602 19.0908C7.90611 19.3665 8.13037 19.5903 8.40602 19.5908C8.68191 19.5906 8.90589 19.3667 8.90602 19.0908L8.90602 16.8076C8.90639 14.8103 10.2484 13.0614 12.1775 12.5439C14.5443 11.9096 16.1908 9.76471 16.1912 7.31441L16.1922 4.90914L16.1814 4.80856C16.1347 4.5809 15.9326 4.4092 15.6912 4.40914C15.45 4.40956 15.2476 4.58107 15.2009 4.80856L15.1912 4.90914V7.31441C15.1908 9.31215 13.8484 11.06 11.9187 11.5771C9.55224 12.2116 7.90639 14.3575 7.90602 16.8076L7.90602 19.0908Z" fill="black"/>
</svg>
