<svg width="24" height="24" viewBox="0 0 24 24" fill="none" xmlns="http://www.w3.org/2000/svg">
<path fill-rule="evenodd" clip-rule="evenodd" d="M5.9441 22.3925C1.79942 19.9992 1.12486 13.4061 4.43824 7.66695C7.75185 1.92772 13.799 -0.784552 17.9441 1.60836C22.0889 4.00171 22.7624 10.5938 19.449 16.333C16.1354 22.0722 10.0892 24.7854 5.9441 22.3925ZM8.15602 19.0918C8.15641 19.229 8.26793 19.34 8.40504 19.3408C8.54305 19.3408 8.65592 19.2288 8.65602 19.0908L8.65602 16.8076C8.65639 14.6969 10.0744 12.8483 12.113 12.3017C14.3707 11.6968 15.9408 9.65161 15.9412 7.31441V4.90914L15.9363 4.85934C15.913 4.74555 15.8118 4.66024 15.6912 4.66012C15.5709 4.6606 15.4694 4.74587 15.4461 4.85934L15.4412 4.90914L15.4402 7.31344C15.44 9.42444 14.0232 11.2728 11.9841 11.8193C9.72685 12.4245 8.15639 14.4706 8.15602 16.8076L8.15602 19.0918Z" fill="black"/>
</svg>
