<svg width="24" height="24" viewBox="0 0 24 24" fill="none" xmlns="http://www.w3.org/2000/svg">
<path d="M9.36709 0.349376C8.88968 0.508535 8.54829 0.867031 8.2828 1.14583C8.25867 1.17117 8.23517 1.19584 8.21225 1.21966C7.05734 2.4195 5.1663 4.50475 3.5575 6.853C1.98074 9.15448 0.538086 11.9007 0.538086 14.3822C0.538086 19.6077 4.77416 23.8437 9.99963 23.8437C15.2251 23.8437 19.4612 19.6077 19.4612 14.3822C19.4612 14.212 19.4544 14.0406 19.4412 13.8681C19.3469 13.8052 19.2573 13.732 19.174 13.6488L17.7496 12.2244V14.2389C17.7496 15.2054 16.9661 15.9889 15.9996 15.9889C15.0331 15.9889 14.2496 15.2054 14.2496 14.2389V12.2245L12.8254 13.6488C12.1419 14.3322 11.0339 14.3322 10.3505 13.6488C9.66706 12.9653 9.66706 11.8573 10.3505 11.1739L11.7746 9.74977L9.7605 9.74977C8.794 9.74977 8.0105 8.96627 8.0105 7.99977C8.0105 7.03327 8.794 6.24977 9.7605 6.24977H11.7745L10.3503 4.82565C9.66692 4.14223 9.66692 3.03419 10.3503 2.35078C11.0338 1.66736 12.1418 1.66736 12.8252 2.35078L13.0107 2.53622C12.5541 2.02768 12.1368 1.58306 11.787 1.21966C11.7641 1.19589 11.7407 1.17126 11.7166 1.14597C11.4511 0.867177 11.1096 0.508535 10.6322 0.349376C10.2338 0.216569 9.76546 0.216569 9.36709 0.349376Z" fill="black"/>
<path d="M9.01087 7.99999C9.01087 7.58577 9.34665 7.24999 9.76087 7.24999L14.189 7.24999L11.0578 4.11876C10.7649 3.82587 10.7649 3.351 11.0578 3.0581C11.3507 2.76521 11.8256 2.76521 12.1185 3.0581L15.25 6.18962V1.76086C15.25 1.34665 15.5858 1.01086 16 1.01086C16.4142 1.01086 16.75 1.34665 16.75 1.76086L16.75 6.18948L19.8814 3.0581C20.1743 2.76521 20.6491 2.76521 20.942 3.0581C21.2349 3.351 21.2349 3.82587 20.942 4.11876L17.8108 7.24999H22.2391C22.6533 7.24999 22.9891 7.58578 22.9891 7.99999C22.9891 8.41421 22.6533 8.74999 22.2391 8.74999H17.8109L20.9422 11.8812C21.2351 12.1741 21.2351 12.649 20.9422 12.9419C20.6493 13.2348 20.1744 13.2348 19.8815 12.9419L16.75 9.81036V14.2391C16.75 14.6533 16.4142 14.9891 16 14.9891C15.5858 14.9891 15.25 14.6533 15.25 14.2391L15.25 9.8105L12.1186 12.9419C11.8257 13.2348 11.3508 13.2348 11.058 12.9419C10.7651 12.649 10.7651 12.1741 11.058 11.8812L14.1892 8.74999H9.76087C9.34665 8.74999 9.01087 8.4142 9.01087 7.99999Z" fill="black"/>
</svg>
