<svg width="24" height="24" viewBox="0 0 24 24" fill="none" xmlns="http://www.w3.org/2000/svg">
<path d="M9.92043 2.00982C9.91961 2.01008 9.91654 2.01105 9.90797 2.01631C9.89692 2.02308 9.87545 2.03779 9.83892 2.06922C9.75643 2.1402 9.65494 2.24454 9.47307 2.43349C8.34906 3.60123 6.53218 5.60763 5.00118 7.84231C3.44615 10.1121 2.28809 12.4738 2.28809 14.3824C2.28809 18.6414 5.74066 22.094 9.99963 22.094C13.9234 22.094 17.1628 19.1634 17.6483 15.3716C17.7407 15.2374 17.8171 15.0914 17.8748 14.9363C18.151 14.8403 18.4104 14.682 18.6311 14.4613C18.7017 14.3907 18.7659 14.3162 18.8237 14.2384C18.956 14.2194 19.0841 14.1875 19.2066 14.1439C19.2096 14.2237 19.2112 14.3032 19.2112 14.3824C19.2112 19.4698 15.087 23.594 9.99963 23.594C4.91223 23.594 0.788086 19.4698 0.788086 14.3824C0.788086 11.9827 2.19008 9.29148 3.76374 6.99453C5.36143 4.6625 7.24187 2.58852 8.39237 1.39326L8.45911 1.32359C8.73289 1.03716 9.03113 0.725134 9.44616 0.586772C9.79321 0.471076 10.206 0.471076 10.5531 0.586772C10.9681 0.725135 11.2664 1.03715 11.5401 1.32359L11.6069 1.39326C11.6707 1.45957 11.7368 1.52859 11.8049 1.6002C11.2447 1.53937 10.6637 1.7147 10.2232 2.12622C10.2006 2.10487 10.1799 2.0861 10.1603 2.06922C10.1238 2.03779 10.1023 2.02308 10.0913 2.01631C10.0827 2.01105 10.0796 2.01008 10.0788 2.00982C10.0397 1.99678 9.95954 1.99678 9.92043 2.00982Z" fill="black"/>
<path d="M9.01087 8.00022C9.01087 7.586 9.34665 7.25022 9.76087 7.25022L14.189 7.25022L11.0578 4.11899C10.7649 3.8261 10.7649 3.35122 11.0578 3.05833C11.3507 2.76544 11.8256 2.76544 12.1185 3.05833L15.25 6.18985V1.76109C15.25 1.34688 15.5858 1.01109 16 1.01109C16.4142 1.01109 16.75 1.34687 16.75 1.76109V6.18971L19.8814 3.05833C20.1743 2.76544 20.6491 2.76544 20.942 3.05833C21.2349 3.35122 21.2349 3.8261 20.942 4.11899L17.8108 7.25022H22.2391C22.6533 7.25022 22.9891 7.58601 22.9891 8.00022C22.9891 8.41443 22.6533 8.75022 22.2391 8.75022H17.8109L20.9422 11.8814C21.2351 12.1743 21.2351 12.6492 20.9422 12.9421C20.6493 13.235 20.1744 13.235 19.8815 12.9421L16.75 9.81059L16.75 14.2393C16.75 14.6536 16.4142 14.9893 16 14.9893C15.5858 14.9893 15.25 14.6536 15.25 14.2393L15.25 9.81073L12.1186 12.9421C11.8257 13.235 11.3508 13.235 11.058 12.9421C10.7651 12.6492 10.7651 12.1743 11.058 11.8814L14.1892 8.75022H9.76087C9.34665 8.75022 9.01087 8.41443 9.01087 8.00022Z" fill="black"/>
</svg>
