<svg width="24" height="24" viewBox="0 0 24 24" fill="none" xmlns="http://www.w3.org/2000/svg">
<path d="M9.99963 2.26053C9.92842 2.32213 9.8362 2.4165 9.65318 2.60664C8.53359 3.76979 6.7273 5.76492 5.20742 7.98338C3.6555 10.2486 2.53809 12.5555 2.53809 14.3822C2.53809 18.5031 5.87873 21.8437 9.99963 21.8437C13.6631 21.8437 16.7099 19.2036 17.3412 15.7223C17.577 15.5088 17.7618 15.2399 17.8748 14.9361C18.151 14.8401 18.4104 14.6818 18.6311 14.4611C18.7017 14.3905 18.7659 14.316 18.8237 14.2382C19.0014 14.2127 19.1715 14.1638 19.3309 14.0948C19.3724 14.1215 19.4147 14.1465 19.4577 14.1698C19.46 14.2408 19.4612 14.3116 19.4612 14.3822C19.4612 19.6077 15.2251 23.8437 9.99963 23.8437C4.77416 23.8437 0.538086 19.6077 0.538086 14.3822C0.538086 11.9007 1.98074 9.15448 3.5575 6.853C5.1663 4.50475 7.05734 2.4195 8.21225 1.21966C8.23517 1.19584 8.25868 1.17116 8.28281 1.14582C8.54829 0.867031 8.88968 0.508535 9.36709 0.349376C9.76546 0.216569 10.2338 0.216569 10.6322 0.349376C11.1096 0.508535 11.451 0.867031 11.7164 1.14582C11.7406 1.17116 11.7641 1.19584 11.787 1.21966C11.9279 1.36609 12.0799 1.52571 12.2409 1.69738C11.5405 1.45603 10.7327 1.61489 10.1736 2.174C10.1305 2.2171 10.0898 2.26167 10.0514 2.30756C10.0326 2.28977 10.0156 2.27433 9.99963 2.26053Z" fill="black"/>
<path d="M9.01087 7.99999C9.01087 7.58577 9.34665 7.24999 9.76087 7.24999L14.189 7.24999L11.0578 4.11876C10.7649 3.82587 10.7649 3.351 11.0578 3.0581C11.3507 2.76521 11.8256 2.76521 12.1185 3.0581L15.25 6.18962V1.76086C15.25 1.34665 15.5858 1.01086 16 1.01086C16.4142 1.01086 16.75 1.34665 16.75 1.76086L16.75 6.18948L19.8814 3.0581C20.1743 2.76521 20.6491 2.76521 20.942 3.0581C21.2349 3.351 21.2349 3.82587 20.942 4.11876L17.8108 7.24999H22.2391C22.6533 7.24999 22.9891 7.58578 22.9891 7.99999C22.9891 8.41421 22.6533 8.74999 22.2391 8.74999H17.8109L20.9422 11.8812C21.2351 12.1741 21.2351 12.649 20.9422 12.9419C20.6493 13.2348 20.1744 13.2348 19.8815 12.9419L16.75 9.81036V14.2391C16.75 14.6533 16.4142 14.9891 16 14.9891C15.5858 14.9891 15.25 14.6533 15.25 14.2391L15.25 9.8105L12.1186 12.9419C11.8257 13.2348 11.3508 13.2348 11.058 12.9419C10.7651 12.649 10.7651 12.1741 11.058 11.8812L14.1892 8.74999H9.76087C9.34665 8.74999 9.01087 8.4142 9.01087 7.99999Z" fill="black"/>
</svg>
