<svg width="24" height="24" viewBox="0 0 24 24" fill="none" xmlns="http://www.w3.org/2000/svg">
<path d="M9.92043 2.00959C9.91961 2.00985 9.91654 2.01082 9.90797 2.01608C9.89692 2.02285 9.87545 2.03756 9.83892 2.069C9.75643 2.13998 9.65494 2.24431 9.47307 2.43326C8.34906 3.601 6.53218 5.6074 5.00118 7.84208C3.44615 10.1118 2.28809 12.4736 2.28809 14.3822C2.28809 18.6412 5.74066 22.0937 9.99963 22.0937C13.9234 22.0937 17.1628 19.1632 17.6483 15.3714C17.7407 15.2372 17.8171 15.0912 17.8748 14.9361C18.151 14.8401 18.4104 14.6818 18.6311 14.4611C18.7017 14.3905 18.7659 14.316 18.8237 14.2382C18.956 14.2192 19.0841 14.1872 19.2066 14.1437C19.2096 14.2235 19.2112 14.303 19.2112 14.3822C19.2112 19.4696 15.087 23.5937 9.99963 23.5937C4.91223 23.5937 0.788086 19.4696 0.788086 14.3822C0.788086 11.9825 2.19008 9.29125 3.76374 6.9943C5.36143 4.66227 7.24187 2.58829 8.39237 1.39303L8.45911 1.32337C8.73289 1.03693 9.03113 0.724906 9.44616 0.586543C9.79321 0.470847 10.206 0.470847 10.5531 0.586543C10.9681 0.724906 11.2664 1.03693 11.5401 1.32337L11.6069 1.39303C11.6707 1.45934 11.7368 1.52836 11.8049 1.59997C11.2447 1.53914 10.6637 1.71447 10.2232 2.12599C10.2006 2.10464 10.1799 2.08588 10.1603 2.069C10.1238 2.03756 10.1023 2.02285 10.0913 2.01608C10.0827 2.01082 10.0796 2.00985 10.0788 2.00959C10.0397 1.99655 9.95954 1.99655 9.92043 2.00959Z" fill="black"/>
<path d="M9.01087 7.99999C9.01087 7.58577 9.34665 7.24999 9.76087 7.24999L14.189 7.24999L11.0578 4.11876C10.7649 3.82587 10.7649 3.35099 11.0578 3.0581C11.3507 2.76521 11.8256 2.76521 12.1185 3.0581L15.25 6.18962V1.76086C15.25 1.34665 15.5858 1.01086 16 1.01086C16.4142 1.01086 16.75 1.34665 16.75 1.76086V6.18948L19.8814 3.0581C20.1743 2.76521 20.6491 2.76521 20.942 3.0581C21.2349 3.35099 21.2349 3.82587 20.942 4.11876L17.8108 7.24999H22.2391C22.6533 7.24999 22.9891 7.58578 22.9891 7.99999C22.9891 8.4142 22.6533 8.74999 22.2391 8.74999H17.8109L20.9422 11.8812C21.2351 12.1741 21.2351 12.649 20.9422 12.9419C20.6493 13.2348 20.1744 13.2348 19.8815 12.9419L16.75 9.81036L16.75 14.2391C16.75 14.6533 16.4142 14.9891 16 14.9891C15.5858 14.9891 15.25 14.6533 15.25 14.2391L15.25 9.8105L12.1186 12.9419C11.8257 13.2348 11.3508 13.2348 11.058 12.9419C10.7651 12.649 10.7651 12.1741 11.058 11.8812L14.1892 8.74999H9.76087C9.34665 8.74999 9.01087 8.4142 9.01087 7.99999Z" fill="black"/>
</svg>
