<svg width="24" height="24" viewBox="0 0 24 24" fill="none" xmlns="http://www.w3.org/2000/svg">
<path d="M9.44616 0.586772C9.03113 0.725135 8.73289 1.03715 8.45911 1.32359L8.39237 1.39326C7.24187 2.58852 5.36143 4.6625 3.76374 6.99453C2.19008 9.29148 0.788086 11.9827 0.788086 14.3824C0.788086 19.4698 4.91223 23.594 9.99963 23.594C15.087 23.594 19.2112 19.4698 19.2112 14.3824C19.2112 14.1391 19.1967 13.8928 19.1692 13.6442L17.7496 12.2246V14.2391C17.7496 15.2056 16.9661 15.9891 15.9996 15.9891C15.0331 15.9891 14.2496 15.2056 14.2496 14.2391V12.2247L12.8254 13.649C12.1419 14.3324 11.0339 14.3324 10.3505 13.649C9.66706 12.9656 9.66706 11.8575 10.3505 11.1741L11.7746 9.75L9.7605 9.75C8.794 9.75 8.0105 8.9665 8.0105 8C8.0105 7.0335 8.794 6.25 9.7605 6.25H11.7745L10.3503 4.82588C9.66692 4.14246 9.66692 3.03442 10.3503 2.351C10.8245 1.87684 11.5031 1.73166 12.1024 1.91545C11.9259 1.72681 11.7599 1.55226 11.6069 1.39326L11.5401 1.32359C11.2664 1.03715 10.9681 0.725135 10.5531 0.586772C10.206 0.471076 9.79321 0.471076 9.44616 0.586772Z" fill="black"/>
<path d="M9.01087 8.00022C9.01087 7.586 9.34665 7.25022 9.76087 7.25022L14.189 7.25022L11.0578 4.11899C10.7649 3.8261 10.7649 3.35122 11.0578 3.05833C11.3507 2.76544 11.8256 2.76544 12.1185 3.05833L15.25 6.18985V1.76109C15.25 1.34688 15.5858 1.01109 16 1.01109C16.4142 1.01109 16.75 1.34687 16.75 1.76109V6.18971L19.8814 3.05833C20.1743 2.76544 20.6491 2.76544 20.942 3.05833C21.2349 3.35122 21.2349 3.8261 20.942 4.11899L17.8108 7.25022H22.2391C22.6533 7.25022 22.9891 7.58601 22.9891 8.00022C22.9891 8.41443 22.6533 8.75022 22.2391 8.75022H17.8109L20.9422 11.8814C21.2351 12.1743 21.2351 12.6492 20.9422 12.9421C20.6493 13.235 20.1744 13.235 19.8815 12.9421L16.75 9.81059L16.75 14.2393C16.75 14.6536 16.4142 14.9893 16 14.9893C15.5858 14.9893 15.25 14.6536 15.25 14.2393L15.25 9.81073L12.1186 12.9421C11.8257 13.235 11.3508 13.235 11.058 12.9421C10.7651 12.6492 10.7651 12.1743 11.058 11.8814L14.1892 8.75022H9.76087C9.34665 8.75022 9.01087 8.41443 9.01087 8.00022Z" fill="black"/>
</svg>
