<svg width="24" height="24" viewBox="0 0 24 24" fill="none" xmlns="http://www.w3.org/2000/svg">
<path d="M9.84149 1.77238C9.75164 1.80234 9.67253 1.86554 9.29295 2.25989C8.16453 3.43222 6.33705 5.44988 4.79494 7.70079C3.23681 9.97508 2.03809 12.3918 2.03809 14.3822C2.03809 18.7792 5.60259 22.3437 9.99963 22.3437C14.3967 22.3437 17.9612 18.7792 17.9612 14.3822L17.9611 14.3497C18.0743 14.2849 18.1809 14.2042 18.2776 14.1075C18.3834 14.0017 18.4701 13.8839 18.5377 13.7586C18.6715 13.7585 18.8013 13.7409 18.9247 13.708C18.9487 13.9352 18.9612 14.1602 18.9612 14.3822C18.9612 19.3315 14.9489 23.3437 9.99963 23.3437C5.0503 23.3437 1.03809 19.3315 1.03809 14.3822C1.03809 12.0644 2.39943 9.42802 3.96998 7.1356C5.55655 4.8198 7.4264 2.75707 8.57248 1.5664L8.63044 1.50604C8.91625 1.208 9.17178 0.941544 9.52523 0.823711C9.82095 0.725124 10.1783 0.725124 10.474 0.823711C10.8275 0.941545 11.083 1.208 11.3688 1.50605L11.4268 1.5664C11.5928 1.73886 11.7739 1.9296 11.9672 2.13676C11.5664 2.03236 11.1307 2.09636 10.7725 2.32877L10.7063 2.25989C10.3267 1.86554 10.2476 1.80234 10.1578 1.77238C10.0673 1.74224 9.93192 1.74224 9.84149 1.77238Z" fill="black"/>
<path d="M9.26087 7.99999C9.26087 7.72385 9.48472 7.49999 9.76087 7.49999L14.7926 7.49999L11.2346 3.94199C11.0393 3.74672 11.0393 3.43014 11.2346 3.23488C11.4299 3.03962 11.7464 3.03962 11.9417 3.23488L15.5 6.79318V1.76086C15.5 1.48472 15.7239 1.26086 16 1.26086C16.2761 1.26086 16.5 1.48472 16.5 1.76086V6.79303L20.0581 3.23488C20.2534 3.03962 20.57 3.03962 20.7653 3.23488C20.9605 3.43014 20.9605 3.74672 20.7653 3.94199L17.2072 7.49999L22.2391 7.49999C22.5153 7.49999 22.7391 7.72385 22.7391 7.99999C22.7391 8.27613 22.5153 8.49999 22.2391 8.49999L17.2074 8.49999L20.7654 12.058C20.9607 12.2533 20.9607 12.5698 20.7654 12.7651C20.5701 12.9604 20.2536 12.9604 20.0583 12.7651L16.5 9.20681L16.5 14.2391C16.5 14.5153 16.2761 14.7391 16 14.7391C15.7239 14.7391 15.5 14.5153 15.5 14.2391L15.5 9.20695L11.9418 12.7651C11.7466 12.9604 11.43 12.9604 11.2347 12.7651C11.0395 12.5698 11.0395 12.2533 11.2347 12.058L14.7927 8.49999L9.76087 8.49999C9.48472 8.49999 9.26087 8.27613 9.26087 7.99999Z" fill="black"/>
</svg>
