<svg width="24" height="24" viewBox="0 0 24 24" fill="none" xmlns="http://www.w3.org/2000/svg">
<path d="M8.63044 1.50604L8.57248 1.5664C7.4264 2.75707 5.55655 4.8198 3.96998 7.1356C2.39943 9.42802 1.03809 12.0644 1.03809 14.3822C1.03809 19.3315 5.0503 23.3437 9.99963 23.3437C14.9489 23.3437 18.9612 19.3315 18.9612 14.3822C18.9612 13.7588 18.8627 13.1124 18.6881 12.4558L17.2496 11.0172V14.2389C17.2496 14.9293 16.69 15.4889 15.9996 15.4889C15.3093 15.4889 14.7496 14.9293 14.7496 14.2389V11.0174L12.4718 13.2952C11.9836 13.7834 11.1922 13.7834 10.704 13.2952C10.2159 12.8071 10.2159 12.0156 10.704 11.5274L12.9817 9.24977H9.7605C9.07014 9.24977 8.5105 8.69012 8.5105 7.99977C8.5105 7.30941 9.07014 6.74977 9.7605 6.74977L12.9816 6.74977L10.7039 4.4721C10.2157 3.98394 10.2157 3.19248 10.7039 2.70433C11.192 2.21617 11.9835 2.21617 12.4717 2.70433L12.6475 2.88014C12.1924 2.37294 11.776 1.92919 11.4268 1.5664L11.3688 1.50605C11.083 1.208 10.8275 0.941545 10.474 0.823711C10.1783 0.725124 9.82095 0.725124 9.52523 0.823711C9.17178 0.941542 8.91625 1.20801 8.63044 1.50604Z" fill="black"/>
<path d="M9.26087 7.99999C9.26087 7.72385 9.48472 7.49999 9.76087 7.49999L14.7926 7.49999L11.2346 3.94199C11.0393 3.74672 11.0393 3.43014 11.2346 3.23488C11.4299 3.03962 11.7464 3.03962 11.9417 3.23488L15.5 6.79318L15.5 1.76086C15.5 1.48472 15.7239 1.26086 16 1.26086C16.2761 1.26086 16.5 1.48472 16.5 1.76086L16.5 6.79303L20.0581 3.23488C20.2534 3.03962 20.57 3.03962 20.7653 3.23488C20.9605 3.43014 20.9605 3.74672 20.7653 3.94199L17.2072 7.49999H22.2391C22.5153 7.49999 22.7391 7.72385 22.7391 7.99999C22.7391 8.27614 22.5153 8.49999 22.2391 8.49999H17.2074L20.7654 12.058C20.9607 12.2533 20.9607 12.5698 20.7654 12.7651C20.5701 12.9604 20.2536 12.9604 20.0583 12.7651L16.5 9.20681V14.2391C16.5 14.5153 16.2761 14.7391 16 14.7391C15.7239 14.7391 15.5 14.5153 15.5 14.2391V9.20695L11.9418 12.7651C11.7466 12.9604 11.43 12.9604 11.2347 12.7651C11.0395 12.5698 11.0395 12.2533 11.2347 12.058L14.7927 8.49999L9.76087 8.49999C9.48472 8.49999 9.26087 8.27613 9.26087 7.99999Z" fill="black"/>
</svg>
