<svg width="24" height="24" viewBox="0 0 24 24" fill="none" xmlns="http://www.w3.org/2000/svg">
<path d="M8.63044 1.50627L8.57248 1.56663C7.4264 2.7573 5.55655 4.82002 3.96998 7.13583C2.39943 9.42824 1.03809 12.0646 1.03809 14.3824C1.03809 19.3318 5.0503 23.344 9.99963 23.344C14.9489 23.344 18.9612 19.3318 18.9612 14.3824C18.9612 13.759 18.8627 13.1126 18.6881 12.456L17.2496 11.0175V14.2391C17.2496 14.9295 16.69 15.4891 15.9996 15.4891C15.3093 15.4891 14.7496 14.9295 14.7496 14.2391V11.0176L12.4718 13.2954C11.9836 13.7836 11.1922 13.7836 10.704 13.2954C10.2159 12.8073 10.2159 12.0158 10.704 11.5277L12.9817 9.25H9.7605C9.07014 9.25 8.5105 8.69035 8.5105 8C8.5105 7.30964 9.07014 6.75 9.7605 6.75L12.9816 6.75L10.7039 4.47232C10.2157 3.98417 10.2157 3.19271 10.7039 2.70456C11.192 2.2164 11.9835 2.2164 12.4717 2.70456L12.6475 2.88037C12.1924 2.37317 11.776 1.92942 11.4268 1.56663L11.3688 1.50628C11.083 1.20823 10.8275 0.941774 10.474 0.82394C10.1783 0.725353 9.82095 0.725353 9.52523 0.82394C9.17178 0.941771 8.91625 1.20823 8.63044 1.50627Z" fill="black"/>
<path d="M9.26087 8.00022C9.26087 7.72408 9.48472 7.50022 9.76087 7.50022L14.7926 7.50022L11.2346 3.94222C11.0393 3.74695 11.0393 3.43037 11.2346 3.23511C11.4299 3.03985 11.7464 3.03985 11.9417 3.23511L15.5 6.79341L15.5 1.76109C15.5 1.48495 15.7239 1.26109 16 1.26109C16.2761 1.26109 16.5 1.48495 16.5 1.76109L16.5 6.79326L20.0581 3.23511C20.2534 3.03985 20.57 3.03985 20.7653 3.23511C20.9605 3.43037 20.9605 3.74695 20.7653 3.94222L17.2072 7.50022H22.2391C22.5153 7.50022 22.7391 7.72408 22.7391 8.00022C22.7391 8.27636 22.5153 8.50022 22.2391 8.50022H17.2074L20.7654 12.0582C20.9607 12.2535 20.9607 12.5701 20.7654 12.7653C20.5701 12.9606 20.2536 12.9606 20.0583 12.7653L16.5 9.20703V14.2393C16.5 14.5155 16.2761 14.7393 16 14.7393C15.7239 14.7393 15.5 14.5155 15.5 14.2393V9.20718L11.9418 12.7653C11.7466 12.9606 11.43 12.9606 11.2347 12.7653C11.0395 12.5701 11.0395 12.2535 11.2347 12.0582L14.7927 8.50022L9.76087 8.50022C9.48472 8.50022 9.26087 8.27636 9.26087 8.00022Z" fill="black"/>
</svg>
