<svg width="24" height="25" viewBox="0 0 24 25" fill="none" xmlns="http://www.w3.org/2000/svg">
<path d="M9.28803 0.112438C8.74751 0.292635 8.3626 0.69845 8.10357 0.97155C8.07878 0.99768 8.05464 1.02314 8.03213 1.04651C6.8728 2.25095 4.97118 4.34746 3.35126 6.71194C1.77139 9.01795 0.288086 11.819 0.288086 14.3824C0.288086 19.746 4.63609 24.094 9.99963 24.094C15.3632 24.094 19.7112 19.746 19.7112 14.3824C19.7112 14.3501 19.7109 14.3176 19.7105 14.2852C19.4504 14.1881 19.2064 14.0349 18.9973 13.8258L17.9996 12.8281V14.2391C17.9996 15.3437 17.1042 16.2391 15.9996 16.2391C14.8951 16.2391 13.9996 15.3437 13.9996 14.2391V12.8283L13.0021 13.8258C12.2211 14.6068 10.9548 14.6068 10.1737 13.8258C9.39266 13.0447 9.39266 11.7784 10.1737 10.9973L11.1711 10H9.7605C8.65593 10 7.7605 9.10457 7.7605 8C7.7605 6.89543 8.65593 6 9.7605 6H11.1709L10.1736 5.00266C9.39251 4.22161 9.39251 2.95528 10.1736 2.17423C10.9546 1.39318 12.2209 1.39318 13.002 2.17423L13.1922 2.36444C12.735 1.85525 12.3172 1.41021 11.9671 1.04652C11.9445 1.02299 11.9207 0.997919 11.8957 0.971611C11.6367 0.698511 11.2517 0.292634 10.7112 0.112438C10.2615 -0.0374794 9.73772 -0.0374794 9.28803 0.112438Z" fill="black"/>
<path d="M9.01087 8.00022C9.01087 7.586 9.34665 7.25022 9.76087 7.25022L14.189 7.25022L11.0578 4.11899C10.7649 3.8261 10.7649 3.35123 11.0578 3.05833C11.3507 2.76544 11.8256 2.76544 12.1185 3.05833L15.25 6.18985V1.76109C15.25 1.34688 15.5858 1.01109 16 1.01109C16.4142 1.01109 16.75 1.34688 16.75 1.76109L16.75 6.18971L19.8814 3.05833C20.1743 2.76544 20.6491 2.76544 20.942 3.05833C21.2349 3.35122 21.2349 3.8261 20.942 4.11899L17.8108 7.25022H22.2391C22.6533 7.25022 22.9891 7.58601 22.9891 8.00022C22.9891 8.41444 22.6533 8.75022 22.2391 8.75022H17.8109L20.9422 11.8814C21.2351 12.1743 21.2351 12.6492 20.9422 12.9421C20.6493 13.235 20.1744 13.235 19.8815 12.9421L16.75 9.81059V14.2393C16.75 14.6536 16.4142 14.9893 16 14.9893C15.5858 14.9893 15.25 14.6536 15.25 14.2393L15.25 9.81073L12.1186 12.9421C11.8257 13.235 11.3508 13.235 11.058 12.9421C10.7651 12.6492 10.7651 12.1743 11.058 11.8814L14.1892 8.75022H9.76087C9.34665 8.75022 9.01087 8.41443 9.01087 8.00022Z" fill="black"/>
</svg>
