<svg width="24" height="24" viewBox="0 0 24 24" fill="none" xmlns="http://www.w3.org/2000/svg">
<path d="M18.293 16.2929C18.6834 15.9025 19.3165 15.9027 19.707 16.2929L22.5068 19.0927C22.8973 19.4832 22.8973 20.1162 22.5068 20.5068C22.1163 20.897 21.4832 20.8972 21.0928 20.5068L19 18.414L16.9072 20.5068C16.5167 20.8968 15.8835 20.8971 15.4932 20.5068C15.1031 20.1164 15.1032 19.4831 15.4932 19.0927L18.293 16.2929Z" fill="black"/>
<path d="M9.90137 18.0986C10.4531 18.0988 10.9009 18.5469 10.9014 19.0986C10.9014 19.6507 10.4534 20.0983 9.90137 20.0986H2.20215C1.64986 20.0986 1.20215 19.6508 1.20215 19.0986C1.20265 18.5467 1.65017 18.0986 2.20215 18.0986H9.90137Z" fill="black"/>
<path d="M9.90137 13.2001C10.4533 13.2004 10.9011 13.6482 10.9014 14.2001C10.9011 14.752 10.4532 15.1998 9.90137 15.2001H2.20215C1.65002 15.2001 1.20241 14.7522 1.20215 14.2001C1.2024 13.6481 1.65002 13.2001 2.20215 13.2001H9.90137Z" fill="black"/>
<path d="M9.90137 8.30071C10.4533 8.30099 10.9011 8.74881 10.9014 9.30071C10.9011 9.85261 10.4533 10.3004 9.90137 10.3007H2.20215C1.65001 10.3007 1.20239 9.85278 1.20215 9.30071C1.2024 8.74864 1.65002 8.30071 2.20215 8.30071H9.90137Z" fill="black"/>
<path d="M21.0908 2.99504C21.4813 2.60452 22.1144 2.60452 22.5049 2.99504C22.895 3.3856 22.8953 4.01871 22.5049 4.4091L19.7051 7.20891C19.3147 7.5991 18.6815 7.59899 18.291 7.20891L15.4912 4.4091C15.1009 4.01863 15.1009 3.38553 15.4912 2.99504C15.8817 2.60457 16.5147 2.60468 16.9053 2.99504L18.998 5.08781L21.0908 2.99504Z" fill="black"/>
<path d="M9.90137 3.40129C10.4533 3.40158 10.9011 3.8494 10.9014 4.40129C10.9011 4.95321 10.4533 5.40101 9.90137 5.40129H2.20215C1.65 5.40129 1.20237 4.95339 1.20215 4.40129C1.2024 3.84922 1.65002 3.40129 2.20215 3.40129H9.90137Z" fill="black"/>
</svg>
