<svg width="24" height="24" viewBox="0 0 24 24" fill="none" xmlns="http://www.w3.org/2000/svg">
<path d="M18.1172 16.1161C18.6053 15.6282 19.3967 15.6282 19.8848 16.1161L22.6846 18.9159C23.1723 19.404 23.1723 20.1954 22.6846 20.6835C22.1965 21.1715 21.4052 21.1713 20.917 20.6835L19.001 18.7674L17.085 20.6835C16.5969 21.1713 15.8055 21.1712 15.3174 20.6835C14.8294 20.1953 14.8294 19.404 15.3174 18.9159L18.1172 16.1161Z" fill="black"/>
<path d="M9.90137 17.8485C10.5912 17.8488 11.1509 18.4087 11.1514 19.0985C11.1514 19.7887 10.5915 20.3482 9.90137 20.3485H2.20215C1.51179 20.3485 0.952148 19.7889 0.952148 19.0985C0.95264 18.4086 1.5121 17.8485 2.20215 17.8485H9.90137Z" fill="black"/>
<path d="M9.90137 12.9501C10.5913 12.9503 11.1511 13.5101 11.1514 14.2001C11.1511 14.89 10.5913 15.4498 9.90137 15.4501H2.20215C1.51195 15.4501 0.95241 14.8902 0.952148 14.2001C0.952394 13.5099 1.51194 12.9501 2.20215 12.9501H9.90137Z" fill="black"/>
<path d="M9.90137 8.05064C10.5913 8.05093 11.1511 8.61067 11.1514 9.30064C11.1511 9.99062 10.5913 10.5504 9.90137 10.5506H2.20215C1.51194 10.5506 0.95239 9.9908 0.952148 9.30064C0.952394 8.6105 1.51194 8.05064 2.20215 8.05064H9.90137Z" fill="black"/>
<path d="M20.9141 2.81822C21.4022 2.33015 22.1935 2.3301 22.6816 2.81822C23.1694 3.30638 23.1696 4.09777 22.6816 4.5858L19.8818 7.38561C19.3938 7.87341 18.6024 7.8733 18.1143 7.38561L15.3145 4.5858C14.8265 4.09771 14.8266 3.30634 15.3145 2.81822C15.8026 2.33021 16.5939 2.33026 17.082 2.81822L18.998 4.73424L20.9141 2.81822Z" fill="black"/>
<path d="M9.90137 3.15123C10.5913 3.15152 11.1511 3.71126 11.1514 4.40123C11.1511 5.09122 10.5913 5.65095 9.90137 5.65123H2.20215C1.51193 5.65123 0.95237 5.0914 0.952148 4.40123C0.952394 3.71108 1.51194 3.15123 2.20215 3.15123H9.90137Z" fill="black"/>
</svg>
