<svg width="24" height="24" viewBox="0 0 24 24" fill="none" xmlns="http://www.w3.org/2000/svg">
<path d="M18.4697 16.4697C18.7625 16.1769 19.2374 16.1771 19.5303 16.4697L22.3301 19.2695C22.6229 19.5624 22.623 20.0371 22.3301 20.33C22.0372 20.6226 21.5623 20.6228 21.2695 20.33L19 18.0605L16.7305 20.33C16.4376 20.6225 15.9627 20.6227 15.6699 20.33C15.3775 20.0372 15.3776 19.5623 15.6699 19.2695L18.4697 16.4697Z" fill="black"/>
<path d="M9.90137 18.3495C10.3152 18.3498 10.6511 18.6857 10.6514 19.0995C10.6511 19.5134 10.3152 19.8493 9.90137 19.8495H2.20215C1.7881 19.8495 1.45241 19.5135 1.45215 19.0995C1.45239 18.6855 1.78809 18.3495 2.20215 18.3495H9.90137Z" fill="black"/>
<path d="M9.90137 13.4511C10.3153 13.4514 10.6514 13.7871 10.6514 14.2011C10.6508 14.6147 10.315 14.9508 9.90137 14.9511H2.20215C1.78826 14.9511 1.45267 14.6149 1.45215 14.2011C1.45215 13.7869 1.78793 13.4511 2.20215 13.4511H9.90137Z" fill="black"/>
<path d="M9.90137 8.5517C10.3153 8.55198 10.6514 8.88766 10.6514 9.3017C10.6509 9.71531 10.315 10.0514 9.90137 10.0517H2.20215C1.78825 10.0517 1.45265 9.71548 1.45215 9.3017C1.45215 8.88748 1.78793 8.5517 2.20215 8.5517H9.90137Z" fill="black"/>
<path d="M21.2676 3.17181C21.5605 2.87893 22.0352 2.87892 22.3281 3.17181C22.6206 3.46473 22.6209 3.93959 22.3281 4.23236L19.5283 7.03217C19.2355 7.32475 18.7606 7.32463 18.4678 7.03217L15.668 4.23236C15.3753 3.93952 15.3753 3.46467 15.668 3.17181C15.9608 2.87898 16.4356 2.87908 16.7285 3.17181L18.998 5.44134L21.2676 3.17181Z" fill="black"/>
<path d="M9.90137 3.65228C10.3153 3.65257 10.6514 3.98824 10.6514 4.40228C10.6509 4.81591 10.315 5.152 9.90137 5.15228H2.20215C1.78823 5.15228 1.45263 4.81608 1.45215 4.40228C1.45215 3.98807 1.78793 3.65228 2.20215 3.65228H9.90137Z" fill="black"/>
</svg>
