<svg width="24" height="24" viewBox="0 0 24 24" fill="none" xmlns="http://www.w3.org/2000/svg">
<path d="M18.8232 16.8232C18.9208 16.7257 19.0791 16.7259 19.1768 16.8232L21.9766 19.623C22.0742 19.7206 22.0742 19.8789 21.9766 19.9765C21.8789 20.0739 21.7206 20.0741 21.623 19.9765L19 17.3535L16.377 19.9765C16.2793 20.0738 16.1209 20.074 16.0234 19.9765C15.9263 19.879 15.9263 19.7206 16.0234 19.623L18.8232 16.8232Z" fill="black"/>
<path d="M9.90137 18.8496C10.039 18.8499 10.1511 18.9619 10.1514 19.0996C10.1511 19.2373 10.039 19.3493 9.90137 19.3496H2.20215C2.06423 19.3496 1.95239 19.2374 1.95215 19.0996C1.95239 18.9617 2.06423 18.8496 2.20215 18.8496H9.90137Z" fill="black"/>
<path d="M9.90137 13.9511C10.0392 13.9514 10.1514 14.0632 10.1514 14.2011C10.1509 14.3386 10.0389 14.4509 9.90137 14.4511H2.20215C2.06439 14.4511 1.95265 14.3388 1.95215 14.2011C1.95215 14.0631 2.06408 13.9511 2.20215 13.9511H9.90137Z" fill="black"/>
<path d="M9.90137 9.05172C10.0392 9.05201 10.1514 9.16382 10.1514 9.30172C10.1509 9.43921 10.0389 9.55144 9.90137 9.55172H2.20215C2.06438 9.55172 1.95263 9.43938 1.95215 9.30172C1.95215 9.16365 2.06408 9.05172 2.20215 9.05172H9.90137Z" fill="black"/>
<path d="M21.6211 3.52535C21.7187 3.42776 21.877 3.42773 21.9746 3.52535C22.0719 3.623 22.0721 3.78135 21.9746 3.87887L19.1748 6.67867C19.0773 6.77603 18.9189 6.7759 18.8213 6.67867L16.0215 3.87887C15.9241 3.78128 15.9241 3.62294 16.0215 3.52535C16.1191 3.42781 16.2774 3.42789 16.375 3.52535L18.998 6.1484L21.6211 3.52535Z" fill="black"/>
<path d="M9.90137 4.15231C10.0392 4.15259 10.1514 4.26441 10.1514 4.40231C10.1509 4.53981 10.0389 4.65202 9.90137 4.65231H2.20215C2.06436 4.65231 1.95261 4.53998 1.95215 4.40231C1.95215 4.26423 2.06408 4.15231 2.20215 4.15231H9.90137Z" fill="black"/>
</svg>
