<svg width="24" height="24" viewBox="0 0 24 24" fill="none" xmlns="http://www.w3.org/2000/svg">
<path fill-rule="evenodd" clip-rule="evenodd" d="M19.6 19.9564C23.6543 15.9021 23.6543 9.32885 19.6 5.27459L18.726 4.40056C14.6717 0.346298 8.09848 0.346299 4.04422 4.40056C2.49437 5.95041 1.5367 7.86905 1.1719 9.87415L1.16963 9.88665C1.11389 10.193 1.06877 10.441 1.05211 10.6486C1.03476 10.8648 1.04624 11.0559 1.11506 11.2472C1.23064 11.5684 1.4388 11.8178 1.73422 11.9889C1.9213 12.0972 2.1596 12.1385 2.44342 12.1583C2.72962 12.1783 3.10234 12.1782 3.58093 12.178L3.59147 12.178C5.6769 12.1772 7.78689 12.9889 9.40552 14.6075C11.0211 16.2231 11.8328 18.3281 11.835 20.4097L11.8351 20.4201C11.8356 20.8987 11.836 21.2716 11.8564 21.5577C11.8767 21.8415 11.9183 22.0797 12.0269 22.2667C12.1985 22.5618 12.4482 22.7696 12.7696 22.8847C12.961 22.9532 13.1522 22.9644 13.3684 22.9467C13.5759 22.9298 13.8239 22.8842 14.1301 22.828L14.1426 22.8257C16.1419 22.4587 18.0543 21.502 19.6 19.9564ZM15.7794 8.23957C15.9808 8.44093 16.3023 8.44587 16.4976 8.2506C16.6928 8.05534 16.6879 7.73382 16.4865 7.53246C16.2852 7.33111 15.9636 7.32617 15.7684 7.52143C15.5731 7.71669 15.5781 8.03821 15.7794 8.23957ZM17.5198 13.2555C17.7211 13.4568 18.0427 13.4618 18.2379 13.2665C18.4332 13.0712 18.4282 12.7497 18.2269 12.5484C18.0255 12.347 17.704 12.3421 17.5087 12.5373C17.3135 12.7326 17.3184 13.0541 17.5198 13.2555ZM10.7537 5.77727C10.5585 5.97253 10.5634 6.29406 10.7648 6.49541C10.9661 6.69677 11.2876 6.70171 11.4829 6.50645C11.6782 6.31119 11.6732 5.98966 11.4719 5.78831C11.2705 5.58695 10.949 5.58201 10.7537 5.77727ZM15.9338 18.2197C16.1352 18.4211 16.4567 18.426 16.652 18.2308C16.8472 18.0355 16.8423 17.714 16.641 17.5126C16.4396 17.3113 16.1181 17.3063 15.9228 17.5016C15.7275 17.6968 15.7325 18.0184 15.9338 18.2197ZM5.79008 7.36252C5.59482 7.55778 5.59976 7.8793 5.80112 8.08066C6.00247 8.28202 6.324 8.28696 6.51926 8.0917C6.71452 7.89643 6.70958 7.57491 6.50822 7.37355C6.30687 7.1722 5.98534 7.16726 5.79008 7.36252Z" fill="black"/>
</svg>
