<svg width="24" height="24" viewBox="0 0 24 24" fill="none" xmlns="http://www.w3.org/2000/svg">
<path fill-rule="evenodd" clip-rule="evenodd" d="M19.7761 20.1331C23.928 15.9812 23.928 9.2497 19.7761 5.09781L18.902 4.22378C14.7501 0.0718906 8.0186 0.0718908 3.86671 4.22378C2.27977 5.81072 1.29881 7.77589 0.925205 9.8294L0.921129 9.8518C0.86694 10.1496 0.819853 10.4083 0.802179 10.6286C0.783134 10.8659 0.79416 11.0958 0.879093 11.3319C1.01464 11.7086 1.26174 12.0046 1.6082 12.2052C1.84764 12.3439 2.13502 12.3874 2.42524 12.4077C2.72028 12.4284 3.10033 12.4282 3.57099 12.428L3.59084 12.428C5.61146 12.4272 7.65737 13.2136 9.22801 14.7843C10.7957 16.352 11.5821 18.3931 11.5843 20.4099L11.5843 20.4298C11.5848 20.9004 11.5852 21.2805 11.6063 21.5755C11.6271 21.8657 11.671 22.153 11.81 22.3923C12.0112 22.7384 12.3076 22.9851 12.6846 23.1201C12.9208 23.2047 13.1507 23.2153 13.388 23.1959C13.6083 23.1779 13.8669 23.1304 14.1646 23.0757L14.187 23.0716C16.2345 22.6958 18.1934 21.7158 19.7761 20.1331ZM15.6017 8.41634C15.9037 8.71838 16.386 8.72579 16.6789 8.4329C16.9718 8.14 16.9643 7.65772 16.6623 7.35568C16.3603 7.05365 15.878 7.04624 15.5851 7.33913C15.2922 7.63202 15.2996 8.11431 15.6017 8.41634ZM17.3428 13.4322C17.6448 13.7343 18.1271 13.7417 18.42 13.4488C18.7129 13.1559 18.7055 12.6736 18.4034 12.3716C18.1014 12.0695 17.6191 12.0621 17.3262 12.355C17.0333 12.6479 17.0407 13.1302 17.3428 13.4322ZM10.5712 5.59498C10.2783 5.88787 10.2857 6.37016 10.5877 6.67219C10.8898 6.97423 11.372 6.98164 11.6649 6.68874C11.9578 6.39585 11.9504 5.91357 11.6484 5.61153C11.3464 5.30949 10.8641 5.30208 10.5712 5.59498ZM15.7568 18.3965C16.0589 18.6985 16.5411 18.706 16.834 18.4131C17.1269 18.1202 17.1195 17.6379 16.8175 17.3358C16.5154 17.0338 16.0332 17.0264 15.7403 17.3193C15.4474 17.6122 15.4548 18.0945 15.7568 18.3965ZM5.60695 7.18022C5.31406 7.47312 5.32147 7.9554 5.6235 8.25744C5.92554 8.55947 6.40782 8.56688 6.70072 8.27399C6.99361 7.9811 6.9862 7.49881 6.68416 7.19678C6.38213 6.89474 5.89984 6.88733 5.60695 7.18022Z" fill="black"/>
</svg>
