<svg width="24" height="24" viewBox="0 0 24 24" fill="none" xmlns="http://www.w3.org/2000/svg">
<path fill-rule="evenodd" clip-rule="evenodd" d="M19.9531 20.3099C24.2026 16.0604 24.2026 9.17056 19.9531 4.92104L19.0791 4.047C14.8295 -0.202517 7.9397 -0.202517 3.69018 4.047C2.06615 5.67103 1.06191 7.68273 0.679488 9.78465L0.67395 9.81509C0.621021 10.1059 0.571921 10.3756 0.553226 10.6086C0.532484 10.8671 0.543054 11.1357 0.644101 11.4165C0.799614 11.8487 1.08566 12.1914 1.48315 12.4216C1.77496 12.5906 2.11142 12.6364 2.40804 12.6571C2.71195 12.6784 3.09948 12.6782 3.563 12.678L3.59119 12.678C5.547 12.6772 7.52882 13.4384 9.05148 14.9611C10.5713 16.4808 11.3324 18.458 11.3346 20.4102L11.3346 20.4383C11.3351 20.9018 11.3355 21.2894 11.3572 21.5933C11.3784 21.8899 11.4247 22.2263 11.5941 22.5179C11.825 22.9151 12.1681 23.2006 12.6006 23.3555C12.8816 23.4561 13.1502 23.4662 13.4087 23.4451C13.6416 23.426 13.9113 23.3765 14.202 23.3231L14.2324 23.3175C16.3282 22.9328 18.3334 21.9296 19.9531 20.3099ZM15.4253 8.59312C15.828 8.99584 16.4711 9.00572 16.8616 8.61519C17.2521 8.22467 17.2422 7.58162 16.8395 7.17891C16.4368 6.7762 15.7938 6.76631 15.4032 7.15684C15.0127 7.54736 15.0226 8.19041 15.4253 8.59312ZM17.1657 13.609C17.5684 14.0117 18.2115 14.0216 18.602 13.6311C18.9925 13.2406 18.9826 12.5975 18.5799 12.1948C18.1772 11.7921 17.5342 11.7822 17.1436 12.1727C16.7531 12.5633 16.763 13.2063 17.1657 13.609ZM10.3887 5.41268C9.99821 5.80321 10.0081 6.44625 10.4108 6.84897C10.8135 7.25168 11.4566 7.26156 11.8471 6.87104C12.2376 6.48051 12.2277 5.83747 11.825 5.43475C11.4223 5.03204 10.7793 5.02216 10.3887 5.41268ZM15.5798 18.5733C15.9825 18.976 16.6255 18.9859 17.0161 18.5954C17.4066 18.2048 17.3967 17.5618 16.994 17.1591C16.5913 16.7564 15.9482 16.7465 15.5577 17.137C15.1672 17.5275 15.1771 18.1706 15.5798 18.5733ZM5.42434 6.99793C5.03382 7.38845 5.0437 8.0315 5.44641 8.43421C5.84913 8.83693 6.49217 8.84681 6.8827 8.45628C7.27322 8.06576 7.26334 7.42271 6.86063 7.02C6.45791 6.61729 5.81487 6.60741 5.42434 6.99793Z" fill="black"/>
</svg>
