<svg width="24" height="24" viewBox="0 0 24 24" fill="none" xmlns="http://www.w3.org/2000/svg">
<path d="M15.0728 8.94669C15.6769 9.55076 16.6414 9.56558 17.2272 8.97979C17.813 8.39401 17.7982 7.42944 17.1941 6.82537C16.59 6.2213 15.6255 6.20647 15.0397 6.79226C14.4539 7.37805 14.4687 8.34262 15.0728 8.94669Z" fill="black"/>
<path d="M16.8131 13.9626C17.4172 14.5666 18.3818 14.5815 18.9675 13.9957C19.5533 13.4099 19.5385 12.4453 18.9344 11.8412C18.3304 11.2372 17.3658 11.2224 16.78 11.8081C16.1942 12.3939 16.209 13.3585 16.8131 13.9626Z" fill="black"/>
<path d="M10.0248 5.04809C9.43899 5.63388 9.45381 6.59845 10.0579 7.20252C10.662 7.80659 11.6265 7.82141 12.2123 7.23562C12.7981 6.64984 12.7833 5.68527 12.1792 5.0812C11.5751 4.47713 10.6106 4.46231 10.0248 5.04809Z" fill="black"/>
<path d="M15.2272 18.9268C15.8312 19.5309 16.7958 19.5457 17.3816 18.9599C17.9674 18.3742 17.9526 17.4096 17.3485 16.8055C16.7444 16.2014 15.7799 16.1866 15.1941 16.7724C14.6083 17.3582 14.6231 18.3228 15.2272 18.9268Z" fill="black"/>
<path d="M5.05993 6.63334C4.47415 7.21913 4.48897 8.1837 5.09304 8.78777C5.69711 9.39184 6.66168 9.40666 7.24747 8.82088C7.83325 8.23509 7.81843 7.27052 7.21436 6.66645C6.61029 6.06238 5.64572 6.04756 5.05993 6.63334Z" fill="black"/>
<path fill-rule="evenodd" clip-rule="evenodd" d="M20.3071 4.56748C24.7519 9.01226 24.7519 16.2187 20.3071 20.6635C18.6135 22.3571 16.5155 23.4068 14.3232 23.8093L14.2811 23.817C14.0011 23.8685 13.7087 23.9222 13.4499 23.9434C13.1491 23.968 12.8031 23.9589 12.4325 23.8262C11.889 23.6316 11.4524 23.2683 11.1623 22.7691C10.9321 22.3729 10.8811 21.9384 10.859 21.629C10.836 21.3072 10.8356 20.9042 10.8351 20.4529L10.835 20.4108C10.8331 18.5879 10.1224 16.7386 8.69842 15.3146C7.27172 13.8879 5.41808 13.1773 3.59188 13.178L3.54979 13.178C3.0985 13.1782 2.69545 13.1784 2.37364 13.1559C2.06421 13.1342 1.6296 13.0839 1.23306 12.8542C0.733498 12.5649 0.369564 12.129 0.17412 11.5858C0.0408442 11.2154 0.0311821 10.8694 0.0553184 10.5686C0.0760816 10.3098 0.129359 10.0174 0.180378 9.73731L0.188053 9.69516C0.588088 7.49641 1.63891 5.39166 3.33712 3.69345C7.7819 -0.751333 14.9883 -0.751333 19.4331 3.69345L20.3071 4.56748ZM18.5394 18.8957C22.0078 15.4272 22.0078 9.80372 18.5394 6.33525L17.6653 5.46122C14.1969 1.99274 8.57335 1.99275 5.10488 5.46122C3.77757 6.78853 2.95963 8.42802 2.64768 10.1427C2.61822 10.3046 2.59541 10.4302 2.57778 10.5391C2.57 10.5872 2.56392 10.628 2.55921 10.6627C2.78151 10.6776 3.09264 10.6782 3.59088 10.678C6.06513 10.677 8.55966 11.6403 10.4662 13.5469C12.3691 15.4498 13.3324 17.9384 13.335 20.4081C13.3356 20.9063 13.3366 21.2174 13.3518 21.4397C13.3866 21.4349 13.4273 21.4288 13.4754 21.4209C13.5843 21.4031 13.7099 21.3801 13.8718 21.3504C15.5814 21.0365 17.2156 20.2195 18.5394 18.8957Z" fill="black"/>
</svg>
