<svg width="24" height="24" viewBox="0 0 24 24" fill="none" xmlns="http://www.w3.org/2000/svg">
<path fill-rule="evenodd" clip-rule="evenodd" d="M20.1299 20.4867C24.477 16.1395 24.477 9.09141 20.1299 4.74426L19.2558 3.87023C14.9087 -0.476925 7.86055 -0.476925 3.5134 3.87023C1.85228 5.53135 0.824754 7.58957 0.433526 9.73991L0.42682 9.77674C0.374928 10.0617 0.323756 10.3427 0.304028 10.5886C0.281588 10.8682 0.291705 11.1755 0.408868 11.5011C0.584346 11.9888 0.909337 12.3781 1.35786 12.6379C1.70203 12.8372 2.08757 12.8853 2.3906 12.9065C2.70346 12.9284 3.09867 12.9282 3.55583 12.928L3.59129 12.928C5.4823 12.9272 7.40003 13.6632 8.87471 15.1378C10.3466 16.6097 11.0825 18.523 11.0846 20.4105L11.0846 20.4459C11.0851 20.9031 11.0855 21.2983 11.1078 21.6112C11.1295 21.9142 11.1781 22.2996 11.378 22.6435C11.6385 23.0917 12.0283 23.4161 12.5163 23.5908C12.8421 23.7075 13.1494 23.7171 13.429 23.6942C13.6749 23.6741 13.9558 23.6225 14.2407 23.5702L14.2775 23.5634C16.4216 23.1698 18.4732 22.1433 20.1299 20.4867ZM15.2485 8.7699C15.7519 9.27329 16.5557 9.28565 17.0439 8.79749C17.532 8.30934 17.5197 7.50553 17.0163 7.00214C16.5129 6.49874 15.7091 6.48639 15.2209 6.97455C14.7328 7.4627 14.7451 8.26651 15.2485 8.7699ZM16.989 13.7858C17.4924 14.2892 18.2962 14.3015 18.7844 13.8134C19.2725 13.3252 19.2602 12.5214 18.7568 12.018C18.2534 11.5146 17.4496 11.5023 16.9614 11.9904C16.4733 12.4786 16.4856 13.2824 16.989 13.7858ZM10.2059 5.23039C9.71778 5.71855 9.73013 6.52236 10.2335 7.02575C10.7369 7.52914 11.5407 7.54149 12.0289 7.05333C12.517 6.56518 12.5047 5.76137 12.0013 5.25798C11.4979 4.75459 10.6941 4.74224 10.2059 5.23039ZM15.4031 18.7501C15.9065 19.2534 16.7103 19.2658 17.1984 18.7776C17.6866 18.2895 17.6742 17.4857 17.1708 16.9823C16.6674 16.4789 15.8636 16.4665 15.3755 16.9547C14.8873 17.4429 14.8997 18.2467 15.4031 18.7501ZM5.24206 6.81563C4.75391 7.30379 4.76626 8.1076 5.26965 8.61099C5.77305 9.11438 6.57685 9.12673 7.06501 8.63858C7.55316 8.15042 7.54081 7.34661 7.03742 6.84322C6.53403 6.33983 5.73022 6.32748 5.24206 6.81563Z" fill="black"/>
</svg>
