<svg width="24" height="24" viewBox="0 0 24 24" fill="none" xmlns="http://www.w3.org/2000/svg">
<path fill-rule="evenodd" clip-rule="evenodd" d="M19.5995 19.9564C23.6538 15.9021 23.6538 9.32885 19.5995 5.27459L18.7255 4.40056C14.6712 0.346298 8.09799 0.346299 4.04373 4.40056C2.49388 5.95041 1.53621 7.86905 1.17141 9.87415L1.16914 9.88665C1.11341 10.193 1.06828 10.441 1.05162 10.6486C1.03427 10.8648 1.04575 11.0559 1.11457 11.2472C1.23015 11.5684 1.43831 11.8178 1.73373 11.9889C1.92081 12.0972 2.15911 12.1385 2.44293 12.1583C2.72913 12.1783 3.10186 12.1782 3.58044 12.178L3.59098 12.178C5.67641 12.1772 7.78641 12.9889 9.40504 14.6075C11.0206 16.2231 11.8323 18.3281 11.8346 20.4097L11.8346 20.4201C11.8351 20.8987 11.8355 21.2716 11.8559 21.5577C11.8762 21.8415 11.9178 22.0797 12.0264 22.2667C12.198 22.5618 12.4477 22.7696 12.7691 22.8847C12.9605 22.9532 13.1517 22.9644 13.3679 22.9467C13.5755 22.9298 13.8234 22.8842 14.1296 22.828L14.1421 22.8257C16.1414 22.4587 18.0539 21.502 19.5995 19.9564ZM15.7789 8.23957C15.9803 8.44093 16.3018 8.44587 16.4971 8.2506C16.6923 8.05534 16.6874 7.73382 16.486 7.53246C16.2847 7.33111 15.9632 7.32617 15.7679 7.52143C15.5726 7.71669 15.5776 8.03821 15.7789 8.23957ZM17.5193 13.2555C17.7207 13.4568 18.0422 13.4618 18.2374 13.2665C18.4327 13.0712 18.4278 12.7497 18.2264 12.5484C18.025 12.347 17.7035 12.3421 17.5083 12.5373C17.313 12.7326 17.3179 13.0541 17.5193 13.2555ZM10.7532 5.77727C10.558 5.97253 10.5629 6.29406 10.7643 6.49541C10.9656 6.69677 11.2871 6.70171 11.4824 6.50645C11.6777 6.31119 11.6727 5.98966 11.4714 5.78831C11.27 5.58695 10.9485 5.58201 10.7532 5.77727ZM15.9334 18.2197C16.1347 18.4211 16.4562 18.426 16.6515 18.2308C16.8468 18.0355 16.8418 17.714 16.6405 17.5126C16.4391 17.3113 16.1176 17.3063 15.9223 17.5016C15.7271 17.6968 15.732 18.0184 15.9334 18.2197ZM5.78959 7.36252C5.59433 7.55778 5.59927 7.8793 5.80063 8.08066C6.00198 8.28202 6.32351 8.28696 6.51877 8.0917C6.71403 7.89643 6.70909 7.57491 6.50773 7.37355C6.30638 7.1722 5.98486 7.16726 5.78959 7.36252Z" fill="black"/>
</svg>
