<svg width="24" height="24" viewBox="0 0 24 24" fill="none" xmlns="http://www.w3.org/2000/svg">
<path d="M15.4252 8.59312C15.8279 8.99584 16.4709 9.00572 16.8615 8.61519C17.252 8.22467 17.2421 7.58162 16.8394 7.17891C16.4367 6.7762 15.7936 6.76631 15.4031 7.15684C15.0126 7.54736 15.0225 8.19041 15.4252 8.59312Z" fill="black"/>
<path d="M17.1656 13.609C17.5683 14.0117 18.2113 14.0216 18.6019 13.6311C18.9924 13.2406 18.9825 12.5975 18.5798 12.1948C18.1771 11.7921 17.534 11.7822 17.1435 12.1727C16.753 12.5633 16.7629 13.2063 17.1656 13.609Z" fill="black"/>
<path d="M10.3886 5.41268C9.99808 5.80321 10.008 6.44625 10.4107 6.84897C10.8134 7.25168 11.4564 7.26156 11.847 6.87104C12.2375 6.48051 12.2276 5.83747 11.8249 5.43475C11.4222 5.03204 10.7791 5.02216 10.3886 5.41268Z" fill="black"/>
<path d="M15.5796 18.5733C15.9824 18.976 16.6254 18.9859 17.0159 18.5954C17.4064 18.2048 17.3966 17.5618 16.9939 17.1591C16.5911 16.7564 15.9481 16.7465 15.5576 17.137C15.167 17.5275 15.1769 18.1706 15.5796 18.5733Z" fill="black"/>
<path d="M5.42421 6.99793C5.03369 7.38845 5.04357 8.0315 5.44628 8.43421C5.84899 8.83693 6.49204 8.84681 6.88257 8.45628C7.27309 8.06576 7.26321 7.42271 6.8605 7.02C6.45778 6.61729 5.81474 6.60741 5.42421 6.99793Z" fill="black"/>
<path fill-rule="evenodd" clip-rule="evenodd" d="M19.9528 4.92104C24.2024 9.17056 24.2024 16.0604 19.9528 20.3099C18.3332 21.9296 16.3279 22.9328 14.2322 23.3175L14.2018 23.3231C13.9111 23.3765 13.6414 23.426 13.4084 23.4451C13.1499 23.4662 12.8813 23.4561 12.6003 23.3555C12.1678 23.2006 11.8247 22.9151 11.5939 22.5179C11.4245 22.2263 11.3782 21.8899 11.357 21.5933C11.3352 21.2894 11.3348 20.9018 11.3343 20.4383L11.3343 20.4102C11.3322 18.458 10.571 16.4808 9.05124 14.9611C7.52858 13.4384 5.54676 12.6772 3.59094 12.678L3.56284 12.678C3.0993 12.6782 2.71172 12.6784 2.4078 12.6571C2.11117 12.6364 1.77472 12.5906 1.48291 12.4216C1.08542 12.1914 0.79937 11.8487 0.643857 11.4165C0.54281 11.1357 0.53224 10.8671 0.552981 10.6086C0.571677 10.3756 0.620776 10.1059 0.673706 9.81509L0.679244 9.78465C1.06166 7.68273 2.0659 5.67103 3.68993 4.047C7.93945 -0.202517 14.8293 -0.202517 19.0788 4.047L19.9528 4.92104ZM18.8922 19.2493C22.5559 15.5855 22.5559 9.64543 18.8922 5.9817L18.0182 5.10766C14.3544 1.44393 8.41433 1.44393 4.75059 5.10766C3.3491 6.50916 2.48459 8.2417 2.15502 10.0532C2.09472 10.3846 2.06014 10.5795 2.04818 10.7285C2.03765 10.8597 2.05082 10.8963 2.05523 10.9085C2.09027 11.0059 2.14142 11.0683 2.22955 11.1205C2.2298 11.1206 2.23054 11.1208 2.23182 11.1212C2.24507 11.1252 2.31649 11.1471 2.51247 11.1608C2.75726 11.1779 3.0914 11.1782 3.59034 11.178C5.93498 11.1771 8.30134 12.0899 10.1119 13.9004C11.919 15.7075 12.8318 18.0683 12.8343 20.4086C12.8349 20.9075 12.8357 21.2417 12.8531 21.4864C12.8672 21.6824 12.8891 21.7538 12.8931 21.767C12.8935 21.7683 12.8938 21.769 12.8938 21.7693C12.9462 21.8573 13.0085 21.9084 13.106 21.9433C13.1182 21.9476 13.155 21.9608 13.2861 21.9501C13.4351 21.9379 13.63 21.903 13.9613 21.8422C15.7675 21.5106 17.4945 20.647 18.8922 19.2493Z" fill="black"/>
</svg>
