<svg width="24" height="24" viewBox="0 0 24 24" fill="none" xmlns="http://www.w3.org/2000/svg">
<path d="M15.2491 8.7699C15.7525 9.27329 16.5563 9.28565 17.0445 8.79749C17.5326 8.30933 17.5203 7.50553 17.0169 7.00214C16.5135 6.49874 15.7097 6.48639 15.2215 6.97455C14.7334 7.4627 14.7457 8.26651 15.2491 8.7699Z" fill="black"/>
<path d="M16.9896 13.7858C17.493 14.2892 18.2968 14.3015 18.785 13.8134C19.2731 13.3252 19.2608 12.5214 18.7574 12.018C18.254 11.5146 17.4502 11.5023 16.9621 11.9904C16.4739 12.4786 16.4862 13.2824 16.9896 13.7858Z" fill="black"/>
<path d="M10.2066 5.23039C9.71842 5.71855 9.73077 6.52236 10.2342 7.02575C10.7376 7.52914 11.5414 7.54149 12.0295 7.05333C12.5177 6.56518 12.5053 5.76137 12.0019 5.25798C11.4985 4.75459 10.6947 4.74224 10.2066 5.23039Z" fill="black"/>
<path d="M15.4037 18.7501C15.9071 19.2534 16.7109 19.2658 17.1991 18.7776C17.6872 18.2895 17.6749 17.4857 17.1715 16.9823C16.6681 16.4789 15.8643 16.4665 15.3761 16.9547C14.888 17.4429 14.9003 18.2467 15.4037 18.7501Z" fill="black"/>
<path d="M5.2427 6.81563C4.75455 7.30379 4.7669 8.1076 5.27029 8.61099C5.77368 9.11438 6.57749 9.12673 7.06565 8.63858C7.5538 8.15042 7.54145 7.34661 7.03806 6.84322C6.53467 6.33983 5.73086 6.32748 5.2427 6.81563Z" fill="black"/>
<path fill-rule="evenodd" clip-rule="evenodd" d="M20.1304 4.74426C24.4775 9.09141 24.4775 16.1395 20.1304 20.4867C18.4737 22.1433 16.4221 23.1698 14.278 23.5634L14.2412 23.5702C13.9563 23.6225 13.6754 23.6741 13.4295 23.6942C13.1499 23.7171 12.8426 23.7075 12.5168 23.5908C12.0288 23.4161 11.6389 23.0917 11.3785 22.6435C11.1786 22.2996 11.13 21.9142 11.1083 21.6112C11.086 21.2983 11.0856 20.9031 11.0851 20.446L11.085 20.4105C11.083 18.523 10.3471 16.6097 8.8752 15.1378C7.40052 13.6632 5.48279 12.9272 3.59178 12.928L3.55632 12.928C3.09916 12.9282 2.70395 12.9284 2.39109 12.9065C2.08806 12.8853 1.70252 12.8372 1.35835 12.6379C0.909825 12.3781 0.584834 11.9888 0.409356 11.5011C0.292193 11.1755 0.282077 10.8682 0.304516 10.5886C0.324244 10.3427 0.375416 10.0617 0.427309 9.77674L0.434014 9.73991C0.825242 7.58957 1.85277 5.53135 3.51389 3.87023C7.86104 -0.476925 14.9092 -0.476925 19.2563 3.87023L20.1304 4.74426ZM18.7161 19.0725C22.2822 15.5064 22.2822 9.72458 18.7161 6.15847L17.8421 5.28444C14.276 1.71834 8.49421 1.71834 4.9281 5.28444C3.5637 6.64884 2.72248 8.33486 2.40171 10.0979C2.34053 10.4342 2.30884 10.6148 2.29811 10.7485C2.2943 10.796 2.29467 10.8227 2.29539 10.835C2.30516 10.8596 2.31503 10.8744 2.33218 10.8883C2.35894 10.8935 2.41963 10.9036 2.53065 10.9114C2.76456 10.9277 3.08821 10.9282 3.59098 10.928C6.00042 10.927 8.43087 11.8651 10.2894 13.7236C12.1444 15.5786 13.0824 18.0034 13.085 20.4083C13.0856 20.9111 13.0865 21.2347 13.1032 21.4686C13.1112 21.5796 13.1214 21.6403 13.1267 21.667C13.1405 21.6842 13.1554 21.694 13.18 21.7038C13.1923 21.7045 13.219 21.7048 13.2664 21.7009C13.4001 21.69 13.5807 21.658 13.9169 21.5963C15.6748 21.2736 17.3554 20.4332 18.7161 19.0725ZM2.29627 10.8437C2.29634 10.8442 2.29629 10.8436 2.29627 10.8437C2.29623 10.8438 2.29602 10.8426 2.29577 10.8401C2.296 10.8413 2.2962 10.843 2.29627 10.8437Z" fill="black"/>
</svg>
