<svg width="24" height="24" viewBox="0 0 24 24" fill="none" xmlns="http://www.w3.org/2000/svg">
<path fill-rule="evenodd" clip-rule="evenodd" d="M20.3064 20.6635C24.7512 16.2187 24.7512 9.01226 20.3064 4.56748L19.4324 3.69345C14.9876 -0.751333 7.78117 -0.751333 3.33638 3.69345C1.63817 5.39166 0.587356 7.49641 0.187321 9.69516L0.179645 9.73731C0.128627 10.0174 0.0753492 10.3098 0.054586 10.5686C0.0304497 10.8694 0.0401118 11.2154 0.173388 11.5858C0.368832 12.129 0.732766 12.5649 1.23233 12.8542C1.62887 13.0839 2.06348 13.1342 2.37291 13.1559C2.69473 13.1784 3.0977 13.1782 3.54903 13.178L3.59115 13.178C5.41735 13.1773 7.27099 13.8879 8.69769 15.3146C10.1217 16.7386 10.8323 18.5879 10.8343 20.4108L10.8344 20.4529C10.8348 20.9042 10.8352 21.3072 10.8582 21.629C10.8803 21.9384 10.9313 22.3729 11.1616 22.7691C11.4517 23.2683 11.8882 23.6316 12.4318 23.8262C12.8024 23.9589 13.1484 23.968 13.4492 23.9434C13.7079 23.9222 14.0003 23.8685 14.2803 23.817L14.3224 23.8093C16.5148 23.4068 18.6128 22.3571 20.3064 20.6635ZM15.0721 8.94669C15.6761 9.55076 16.6407 9.56558 17.2265 8.97979C17.8123 8.39401 17.7974 7.42944 17.1934 6.82537C16.5893 6.2213 15.6247 6.20647 15.0389 6.79226C14.4532 7.37805 14.468 8.34262 15.0721 8.94669ZM16.8124 13.9626C17.4165 14.5666 18.381 14.5815 18.9668 13.9957C19.5526 13.4099 19.5378 12.4453 18.9337 11.8412C18.3296 11.2372 17.3651 11.2224 16.7793 11.8081C16.1935 12.3939 16.2083 13.3585 16.8124 13.9626ZM10.024 5.04809C9.43826 5.63388 9.45308 6.59845 10.0572 7.20252C10.6612 7.80659 11.6258 7.82141 12.2116 7.23562C12.7974 6.64984 12.7825 5.68527 12.1785 5.0812C11.5744 4.47713 10.6098 4.46231 10.024 5.04809ZM15.2264 18.9268C15.8305 19.5309 16.7951 19.5457 17.3809 18.9599C17.9667 18.3742 17.9518 17.4096 17.3478 16.8055C16.7437 16.2014 15.7791 16.1866 15.1933 16.7724C14.6076 17.3582 14.6224 18.3228 15.2264 18.9268ZM5.0592 6.63334C4.47342 7.21913 4.48824 8.1837 5.09231 8.78777C5.69638 9.39184 6.66095 9.40666 7.24673 8.82088C7.83252 8.23509 7.8177 7.27052 7.21363 6.66645C6.60956 6.06238 5.64499 6.04756 5.0592 6.63334Z" fill="black"/>
</svg>
