<svg width="24" height="24" viewBox="0 0 24 24" fill="none" xmlns="http://www.w3.org/2000/svg">
<path d="M15.6017 8.41634C15.9037 8.71838 16.386 8.72579 16.6789 8.4329C16.9718 8.14 16.9643 7.65772 16.6623 7.35568C16.3603 7.05365 15.878 7.04624 15.5851 7.33913C15.2922 7.63202 15.2996 8.11431 15.6017 8.41634Z" fill="black"/>
<path d="M17.3428 13.4322C17.6448 13.7343 18.1271 13.7417 18.42 13.4488C18.7129 13.1559 18.7055 12.6736 18.4034 12.3716C18.1014 12.0695 17.6191 12.0621 17.3262 12.355C17.0333 12.6479 17.0407 13.1302 17.3428 13.4322Z" fill="black"/>
<path d="M10.5712 5.59498C10.2783 5.88787 10.2857 6.37015 10.5877 6.67219C10.8898 6.97422 11.372 6.98164 11.6649 6.68874C11.9578 6.39585 11.9504 5.91357 11.6484 5.61153C11.3464 5.30949 10.8641 5.30208 10.5712 5.59498Z" fill="black"/>
<path d="M15.7568 18.3965C16.0589 18.6985 16.5411 18.706 16.834 18.4131C17.1269 18.1202 17.1195 17.6379 16.8175 17.3358C16.5154 17.0338 16.0332 17.0264 15.7403 17.3193C15.4474 17.6122 15.4548 18.0945 15.7568 18.3965Z" fill="black"/>
<path d="M5.60695 7.18022C5.31406 7.47312 5.32147 7.9554 5.6235 8.25744C5.92554 8.55947 6.40782 8.56688 6.70072 8.27399C6.99361 7.9811 6.9862 7.49881 6.68416 7.19678C6.38213 6.89474 5.89984 6.88733 5.60695 7.18022Z" fill="black"/>
<path fill-rule="evenodd" clip-rule="evenodd" d="M19.7761 5.09781C23.928 9.2497 23.928 15.9812 19.7761 20.1331C18.1934 21.7158 16.2345 22.6958 14.187 23.0716L14.1646 23.0757C13.8669 23.1304 13.6083 23.1779 13.388 23.1959C13.1507 23.2153 12.9208 23.2047 12.6846 23.1201C12.3076 22.9851 12.0112 22.7384 11.81 22.3923C11.671 22.153 11.6271 21.8657 11.6063 21.5755C11.5852 21.2805 11.5848 20.9005 11.5843 20.4299L11.5843 20.4099C11.5821 18.3931 10.7957 16.352 9.22801 14.7843C7.65737 13.2136 5.61146 12.4272 3.59084 12.428L3.57104 12.428C3.10038 12.4282 2.72028 12.4284 2.42524 12.4077C2.13502 12.3874 1.84764 12.3439 1.6082 12.2052C1.26174 12.0046 1.01464 11.7086 0.879093 11.3319C0.79416 11.0958 0.783134 10.8659 0.802179 10.6286C0.819853 10.4083 0.866936 10.1496 0.921125 9.85182L0.925205 9.8294C1.29881 7.77589 2.27977 5.81072 3.86671 4.22378C8.0186 0.0718908 14.7501 0.0718906 18.902 4.22378L19.7761 5.09781ZM19.069 19.426C22.8303 15.6647 22.8303 9.56628 19.069 5.80492L18.1949 4.93089C14.4336 1.16952 8.33518 1.16952 4.57382 4.93089C3.13524 6.36947 2.24743 8.14854 1.90905 10.0084C1.84964 10.335 1.81217 10.5442 1.79898 10.7086C1.78672 10.8613 1.79957 10.9364 1.82004 10.9933C1.87572 11.148 1.96705 11.2575 2.10937 11.3399C2.13935 11.3572 2.23042 11.3916 2.49503 11.4102C2.75069 11.428 3.09532 11.4282 3.59044 11.428C5.87028 11.4271 8.17254 12.3146 9.93512 14.0772C11.6943 15.8364 12.5819 18.1333 12.5843 20.4089C12.5848 20.904 12.5855 21.2486 12.6038 21.5043C12.6227 21.7688 12.6572 21.8599 12.6746 21.8898C12.7573 22.032 12.8668 22.1232 13.0217 22.1786C13.0786 22.199 13.1537 22.2117 13.3065 22.1992C13.4708 22.1858 13.68 22.148 14.0065 22.0881C15.8609 21.7476 17.6343 20.8607 19.069 19.426Z" fill="black"/>
</svg>
