<svg width="24" height="24" viewBox="0 0 24 24" fill="none" xmlns="http://www.w3.org/2000/svg">
<path fill-rule="evenodd" clip-rule="evenodd" d="M4.5 9C2.01472 9 0 6.98528 0 4.5C0 2.01472 2.01472 0 4.5 0C6.98528 0 9 2.01472 9 4.5V6.99987H15V4.5C15 2.01472 17.0147 0 19.5 0C21.9853 0 24 2.01472 24 4.5C24 6.98528 21.9853 9 19.5 9H16.9999V15H19.5C21.9853 15 24 17.0147 24 19.5C24 21.9853 21.9853 24 19.5 24C17.0147 24 15 21.9853 15 19.5V16.9999H9V19.5C9 21.9853 6.98528 24 4.5 24C2.01472 24 0 21.9853 0 19.5C0 17.0147 2.01472 15 4.5 15H6.99993V9H4.5ZM9 9L8.99993 14.9999H14.9999V8.99987L9 9ZM6.99993 7H4.5C3.11929 7 2 5.88071 2 4.5C2 3.11929 3.11929 2 4.5 2C5.88071 2 7 3.11929 7 4.5L6.99993 7ZM19.5 17C20.8807 17 22 18.1193 22 19.5C22 20.8807 20.8807 22 19.5 22C18.1193 22 17 20.8807 17 19.5V17H19.5ZM4.5 17C3.11929 17 2 18.1193 2 19.5C2 20.8807 3.11929 22 4.5 22C5.88071 22 7 20.8807 7 19.5V17H4.5ZM19.5 7C20.8807 7 22 5.88071 22 4.5C22 3.11929 20.8807 2 19.5 2C18.1193 2 17 3.11929 17 4.5V7H19.5Z" fill="black"/>
</svg>
