<svg width="24" height="24" viewBox="0 0 24 24" fill="none" xmlns="http://www.w3.org/2000/svg">
<path fill-rule="evenodd" clip-rule="evenodd" d="M0.5 4.5C0.5 6.70914 2.29086 8.5 4.5 8.5H6.5V7.5H4.5C2.84315 7.5 1.5 6.15685 1.5 4.5C1.5 2.84315 2.84315 1.5 4.5 1.5C6.15685 1.5 7.5 2.84315 7.5 4.5V19.5C7.5 21.1569 6.15685 22.5 4.5 22.5C2.84315 22.5 1.5 21.1569 1.5 19.5C1.5 17.8431 2.84315 16.5 4.5 16.5H6.5V15.5H4.5C2.29086 15.5 0.5 17.2909 0.5 19.5C0.5 21.7091 2.29086 23.5 4.5 23.5C6.70914 23.5 8.5 21.7091 8.5 19.5V16.4999H15.5V19.5C15.5 21.7091 17.2909 23.5 19.5 23.5C21.7091 23.5 23.5 21.7091 23.5 19.5C23.5 17.2909 21.7091 15.5 19.5 15.5H17.5V16.5H19.5C21.1569 16.5 22.5 17.8431 22.5 19.5C22.5 21.1569 21.1569 22.5 19.5 22.5C17.8431 22.5 16.5 21.1569 16.5 19.5V4.5C16.5 2.84315 17.8431 1.5 19.5 1.5C21.1569 1.5 22.5 2.84315 22.5 4.5C22.5 6.15685 21.1569 7.5 19.5 7.5H17.5V8.5H19.5C21.7091 8.5 23.5 6.70914 23.5 4.5C23.5 2.29086 21.7091 0.5 19.5 0.5C17.2909 0.5 15.5 2.29086 15.5 4.5V7.49987H8.5V4.5C8.5 2.29086 6.70914 0.5 4.5 0.5C2.29086 0.5 0.5 2.29086 0.5 4.5ZM8.5 8.49987H15.4999V15.4999H8.49993L8.5 8.49987Z" fill="black"/>
</svg>
