<svg width="24" height="24" viewBox="0 0 24 24" fill="none" xmlns="http://www.w3.org/2000/svg">
<path fill-rule="evenodd" clip-rule="evenodd" d="M4.5 8.75C2.15279 8.75 0.25 6.84721 0.25 4.5C0.25 2.15279 2.15279 0.25 4.5 0.25C6.84721 0.25 8.75 2.15279 8.75 4.5V7.24987H15.25V4.5C15.25 2.15279 17.1528 0.25 19.5 0.25C21.8472 0.25 23.75 2.15279 23.75 4.5C23.75 6.84721 21.8472 8.75 19.5 8.75H16.7499V15.25H19.5C21.8472 15.25 23.75 17.1528 23.75 19.5C23.75 21.8472 21.8472 23.75 19.5 23.75C17.1528 23.75 15.25 21.8472 15.25 19.5V16.7499H8.75V19.5C8.75 21.8472 6.84721 23.75 4.5 23.75C2.15279 23.75 0.25 21.8472 0.25 19.5C0.25 17.1528 2.15279 15.25 4.5 15.25H7.24993V8.75H4.5ZM8.75 8.75L8.74993 15.2499H15.2499V8.74987L8.75 8.75ZM7.24993 7.25H4.5C2.98122 7.25 1.75 6.01878 1.75 4.5C1.75 2.98122 2.98122 1.75 4.5 1.75C6.01878 1.75 7.25 2.98122 7.25 4.5L7.24993 7.25ZM19.5 16.75C21.0188 16.75 22.25 17.9812 22.25 19.5C22.25 21.0188 21.0188 22.25 19.5 22.25C17.9812 22.25 16.75 21.0188 16.75 19.5V16.75H19.5ZM4.5 16.75C2.98122 16.75 1.75 17.9812 1.75 19.5C1.75 21.0188 2.98122 22.25 4.5 22.25C6.01878 22.25 7.25 21.0188 7.25 19.5V16.75H4.5ZM19.5 7.25C21.0188 7.25 22.25 6.01878 22.25 4.5C22.25 2.98122 21.0188 1.75 19.5 1.75C17.9812 1.75 16.75 2.98122 16.75 4.5V7.25H19.5Z" fill="black"/>
</svg>
