<svg width="24" height="24" viewBox="0 0 24 24" fill="none" xmlns="http://www.w3.org/2000/svg">
<path fill-rule="evenodd" clip-rule="evenodd" d="M7.76297 11.8019C8.49987 9.95968 9.9596 8.49995 11.8018 7.76305L15.4022 6.32292C16.8307 5.7515 18.2484 7.16914 17.6769 8.59769L16.2368 12.198C15.4999 14.0403 14.0402 15.5 12.1979 16.2369L8.5976 17.677C7.16906 18.2484 5.75142 16.8308 6.32284 15.4023L7.76297 11.8019ZM12.7303 10.0842C11.5233 10.567 10.567 11.5234 10.0842 12.7304L9.29396 14.7059L11.2695 13.9157C12.4764 13.4329 13.4328 12.4765 13.9156 11.2695L14.7058 9.29404L12.7303 10.0842Z" fill="black"/>
<path fill-rule="evenodd" clip-rule="evenodd" d="M12 0.25C5.51065 0.25 0.25 5.51065 0.25 12C0.25 18.4893 5.51065 23.75 12 23.75C18.4893 23.75 23.75 18.4893 23.75 12C23.75 5.51065 18.4893 0.25 12 0.25ZM2.75 12C2.75 6.89137 6.89137 2.75 12 2.75C17.1086 2.75 21.25 6.89137 21.25 12C21.25 17.1086 17.1086 21.25 12 21.25C6.89137 21.25 2.75 17.1086 2.75 12Z" fill="black"/>
</svg>
