<svg width="24" height="24" viewBox="0 0 24 24" fill="none" xmlns="http://www.w3.org/2000/svg">
<path d="M7.75753 4.75885C7.36701 5.14937 7.36701 5.78254 7.75753 6.17306L11.2931 9.70859C11.6836 10.0991 12.3168 10.0991 12.7073 9.70859L16.2428 6.17306C16.6333 5.78254 16.6333 5.14937 16.2428 4.75885L12.7073 1.22331C12.3168 0.832789 11.6836 0.832789 11.2931 1.22331L7.75753 4.75885Z" fill="black"/>
<path d="M4.75909 16.2426C5.14962 16.6331 5.78278 16.6331 6.17331 16.2426L9.70884 12.7071C10.0994 12.3166 10.0994 11.6834 9.70884 11.2929L6.1733 7.75733C5.78278 7.36681 5.14962 7.36681 4.75909 7.75733L1.22356 11.2929C0.833033 11.6834 0.833033 12.3166 1.22356 12.7071L4.75909 16.2426Z" fill="black"/>
<path d="M7.75753 19.2411C7.36701 18.8506 7.36701 18.2174 7.75753 17.8269L11.2931 14.2914C11.6836 13.9008 12.3168 13.9008 12.7073 14.2914L16.2428 17.8269C16.6333 18.2174 16.6333 18.8506 16.2428 19.2411L12.7073 22.7766C12.3168 23.1672 11.6836 23.1672 11.2931 22.7766L7.75753 19.2411Z" fill="black"/>
<path d="M17.8271 16.2426C18.2176 16.6331 18.8508 16.6331 19.2413 16.2426L22.7768 12.7071C23.1674 12.3166 23.1674 11.6834 22.7768 11.2929L19.2413 7.75733C18.8508 7.36681 18.2176 7.36681 17.8271 7.75733L14.2915 11.2929C13.901 11.6834 13.901 12.3166 14.2915 12.7071L17.8271 16.2426Z" fill="black"/>
</svg>
