<svg width="24" height="24" viewBox="0 0 24 24" fill="none" xmlns="http://www.w3.org/2000/svg">
<path d="M13.25 3.99908C14.4245 4.48886 15.25 5.64803 15.25 7V10C15.25 11.7949 13.7949 13.25 12 13.25C10.2051 13.25 8.75 11.7949 8.75 10V7C8.75 5.64803 9.57552 4.48886 10.75 3.99908V0H7.78947C5.69661 0 4 1.69661 4 3.78948V16C4 20.4183 7.58172 24 12 24C16.4183 24 20 20.4183 20 16V3.78947C20 1.69661 18.3034 0 16.2105 0H13.25V3.99908Z" fill="black"/>
<path d="M12 6.25C11.5858 6.25 11.25 6.58579 11.25 7V10C11.25 10.4142 11.5858 10.75 12 10.75C12.4142 10.75 12.75 10.4142 12.75 10V7C12.75 6.58579 12.4142 6.25 12 6.25Z" fill="black"/>
</svg>
