<svg width="24" height="24" viewBox="0 0 24 24" fill="none" xmlns="http://www.w3.org/2000/svg">
<path d="M12.25 4.76373C13.375 4.88809 14.25 5.84186 14.25 7V10C14.25 11.2426 13.2426 12.25 12 12.25C10.7574 12.25 9.75 11.2426 9.75 10V7C9.75 5.84186 10.625 4.88809 11.75 4.76373V0H7.78947C5.69661 0 4 1.69661 4 3.78948V16C4 20.4183 7.58172 24 12 24C16.4183 24 20 20.4183 20 16V3.78947C20 1.69661 18.3034 0 16.2105 0H12.25V4.76373Z" fill="black"/>
<path d="M12 5.25C11.0335 5.25 10.25 6.0335 10.25 7V10C10.25 10.9665 11.0335 11.75 12 11.75C12.9665 11.75 13.75 10.9665 13.75 10V7C13.75 6.0335 12.9665 5.25 12 5.25Z" fill="black"/>
</svg>
