<svg width="24" height="24" viewBox="0 0 24 24" fill="none" xmlns="http://www.w3.org/2000/svg">
<path fill-rule="evenodd" clip-rule="evenodd" d="M15.6842 6.94337C16.5769 6.40776 17.5918 7.42268 17.0562 8.31535L14.6143 12.3852C14.0653 13.3001 13.2997 14.0658 12.3848 14.6147L8.31494 17.0566C7.42226 17.5922 6.40734 16.5773 6.94295 15.6846L9.38485 11.6148C9.93378 10.6999 10.6995 9.9342 11.6143 9.38527L15.6842 6.94337ZM16.1987 7.80086L12.1288 10.2428C11.3547 10.7072 10.7068 11.3551 10.2423 12.1292L7.80044 16.1991L11.8703 13.7572C12.6444 13.2927 13.2923 12.6448 13.7568 11.8707L16.1987 7.80086Z" fill="black"/>
<path fill-rule="evenodd" clip-rule="evenodd" d="M12 1C5.92487 1 1 5.92487 1 12C1 18.0751 5.92487 23 12 23C18.0751 23 23 18.0751 23 12C23 5.92487 18.0751 1 12 1ZM2 12C2 6.47715 6.47715 2 12 2C17.5228 2 22 6.47715 22 12C22 17.5228 17.5228 22 12 22C6.47715 22 2 17.5228 2 12Z" fill="black"/>
</svg>
