<svg width="24" height="24" viewBox="0 0 24 24" fill="none" xmlns="http://www.w3.org/2000/svg">
<path fill-rule="evenodd" clip-rule="evenodd" d="M7.75729 6.17312C7.36677 5.7826 7.36677 5.14943 7.75729 4.75891L11.2928 1.22337C11.6833 0.83285 12.3165 0.83285 12.707 1.22337L16.2426 4.75891C16.6331 5.14943 16.6331 5.7826 16.2426 6.17312L12.707 9.70866C12.3165 10.0992 11.6833 10.0992 11.2928 9.70866L7.75729 6.17312ZM8.4644 5.46601L11.9999 1.93048L15.5355 5.46601L11.9999 9.00155L8.4644 5.46601Z" fill="black"/>
<path fill-rule="evenodd" clip-rule="evenodd" d="M6.17306 16.2427C5.78254 16.6332 5.14937 16.6332 4.75885 16.2427L1.22331 12.7071C0.832789 12.3166 0.832789 11.6834 1.22331 11.2929L4.75885 7.75738C5.14937 7.36686 5.78254 7.36686 6.17306 7.75738L9.70859 11.2929C10.0991 11.6834 10.0991 12.3166 9.70859 12.7071L6.17306 16.2427ZM5.46595 15.5356L1.93042 12L5.46595 8.46449L9.00149 12L5.46595 15.5356Z" fill="black"/>
<path fill-rule="evenodd" clip-rule="evenodd" d="M7.75729 17.8269C7.36677 18.2174 7.36677 18.8506 7.75729 19.2411L11.2928 22.7767C11.6833 23.1672 12.3165 23.1672 12.707 22.7767L16.2426 19.2411C16.6331 18.8506 16.6331 18.2174 16.2426 17.8269L12.707 14.2914C12.3165 13.9009 11.6833 13.9009 11.2928 14.2914L7.75729 17.8269ZM11.9999 14.9985L8.4644 18.534L11.9999 22.0696L15.5355 18.534L11.9999 14.9985Z" fill="black"/>
<path fill-rule="evenodd" clip-rule="evenodd" d="M19.2411 16.2427C18.8505 16.6332 18.2174 16.6332 17.8268 16.2427L14.2913 12.7071C13.9008 12.3166 13.9008 11.6834 14.2913 11.2929L17.8268 7.75738C18.2174 7.36686 18.8505 7.36686 19.2411 7.75738L22.7766 11.2929C23.1671 11.6834 23.1671 12.3166 22.7766 12.7071L19.2411 16.2427ZM18.5339 15.5356L14.9984 12L18.5339 8.46449L22.0695 12L18.5339 15.5356Z" fill="black"/>
</svg>
