<svg width="24" height="24" viewBox="0 0 24 24" fill="none" xmlns="http://www.w3.org/2000/svg">
<path d="M7.75729 4.75885C7.36677 5.14937 7.36677 5.78254 7.75729 6.17306L11.2928 9.70859C11.6833 10.0991 12.3165 10.0991 12.707 9.70859L16.2426 6.17306C16.6331 5.78254 16.6331 5.14937 16.2426 4.75885L12.707 1.22331C12.3165 0.832789 11.6833 0.832789 11.2928 1.22331L7.75729 4.75885Z" fill="black"/>
<path d="M4.75885 16.2426C5.14937 16.6331 5.78254 16.6331 6.17306 16.2426L9.70859 12.7071C10.0991 12.3166 10.0991 11.6834 9.70859 11.2929L6.17306 7.75733C5.78254 7.36681 5.14937 7.36681 4.75885 7.75733L1.22331 11.2929C0.832789 11.6834 0.832789 12.3166 1.22331 12.7071L4.75885 16.2426Z" fill="black"/>
<path d="M7.75729 19.2411C7.36677 18.8506 7.36677 18.2174 7.75729 17.8269L11.2928 14.2914C11.6833 13.9008 12.3165 13.9008 12.707 14.2914L16.2426 17.8269C16.6331 18.2174 16.6331 18.8506 16.2426 19.2411L12.707 22.7766C12.3165 23.1672 11.6833 23.1672 11.2928 22.7766L7.75729 19.2411Z" fill="black"/>
<path d="M17.8268 16.2426C18.2174 16.6331 18.8505 16.6331 19.2411 16.2426L22.7766 12.7071C23.1671 12.3166 23.1671 11.6834 22.7766 11.2929L19.2411 7.75733C18.8505 7.36681 18.2174 7.36681 17.8268 7.75733L14.2913 11.2929C13.9008 11.6834 13.9008 12.3166 14.2913 12.7071L17.8268 16.2426Z" fill="black"/>
</svg>
