<svg width="24" height="24" viewBox="0 0 24 24" fill="none" xmlns="http://www.w3.org/2000/svg">
<path fill-rule="evenodd" clip-rule="evenodd" d="M7.78947 0C5.69661 0 4 1.69661 4 3.78948V16C4 20.4183 7.58172 24 12 24C16.4183 24 20 20.4183 20 16V3.78947C20 1.69661 18.3034 0 16.2105 0H7.78947ZM11.75 0.5H7.78947C5.97275 0.5 4.5 1.97275 4.5 3.78948V16C4.5 20.1421 7.85786 23.5 12 23.5C16.1421 23.5 19.5 20.1421 19.5 16V3.78947C19.5 1.97275 18.0273 0.5 16.2105 0.5H12.25V4.76373C13.375 4.88809 14.25 5.84186 14.25 7V10C14.25 11.2426 13.2426 12.25 12 12.25C10.7574 12.25 9.75 11.2426 9.75 10V7C9.75 5.84186 10.625 4.88809 11.75 4.76373V0.5ZM12 5.25C11.0335 5.25 10.25 6.0335 10.25 7V10C10.25 10.9665 11.0335 11.75 12 11.75C12.9665 11.75 13.75 10.9665 13.75 10V7C13.75 6.0335 12.9665 5.25 12 5.25Z" fill="black"/>
</svg>
