<svg width="24" height="24" viewBox="0 0 24 24" fill="none" xmlns="http://www.w3.org/2000/svg">
<path fill-rule="evenodd" clip-rule="evenodd" d="M7.75753 6.17306C7.36701 5.78254 7.36701 5.14937 7.75753 4.75885L11.2931 1.22331C11.6836 0.832789 12.3168 0.832789 12.7073 1.22331L16.2428 4.75885C16.6333 5.14937 16.6333 5.78254 16.2428 6.17306L12.7073 9.70859C12.3168 10.0991 11.6836 10.0991 11.2931 9.70859L7.75753 6.17306ZM12.0002 8.29438L9.17175 5.46595L12.0002 2.63753L14.8286 5.46595L12.0002 8.29438Z" fill="black"/>
<path fill-rule="evenodd" clip-rule="evenodd" d="M6.17331 16.2426C5.78278 16.6331 5.14962 16.6331 4.75909 16.2426L1.22356 12.7071C0.833033 12.3165 0.833033 11.6834 1.22356 11.2929L4.75909 7.75732C5.14962 7.3668 5.78278 7.3668 6.1733 7.75732L9.70884 11.2929C10.0994 11.6834 10.0994 12.3165 9.70884 12.7071L6.17331 16.2426ZM8.29463 12L5.4662 14.8284L2.63777 12L5.4662 9.17154L8.29463 12Z" fill="black"/>
<path fill-rule="evenodd" clip-rule="evenodd" d="M7.75753 17.8269C7.36701 18.2174 7.36701 18.8506 7.75753 19.2411L11.2931 22.7766C11.6836 23.1671 12.3168 23.1671 12.7073 22.7766L16.2428 19.2411C16.6333 18.8506 16.6333 18.2174 16.2428 17.8269L12.7073 14.2913C12.3168 13.9008 11.6836 13.9008 11.2931 14.2913L7.75753 17.8269ZM9.17175 18.534L12.0002 21.3624L14.8286 18.534L12.0002 15.7055L9.17175 18.534Z" fill="black"/>
<path fill-rule="evenodd" clip-rule="evenodd" d="M19.2413 16.2426C18.8508 16.6331 18.2176 16.6331 17.8271 16.2426L14.2915 12.7071C13.901 12.3165 13.901 11.6834 14.2915 11.2929L17.8271 7.75732C18.2176 7.3668 18.8508 7.3668 19.2413 7.75732L22.7768 11.2929C23.1674 11.6834 23.1674 12.3165 22.7768 12.7071L19.2413 16.2426ZM21.3626 12L18.5342 14.8284L15.7058 12L18.5342 9.17154L21.3626 12Z" fill="black"/>
</svg>
