<svg width="24" height="24" viewBox="0 0 24 24" fill="none" xmlns="http://www.w3.org/2000/svg">
<path d="M16.1993 7.80086L12.1294 10.2428C11.3553 10.7072 10.7074 11.3551 10.243 12.1292L7.80105 16.1991L11.8709 13.7572C12.645 13.2927 13.2929 12.6448 13.7574 11.8707L16.1993 7.80086Z" fill="black"/>
<path fill-rule="evenodd" clip-rule="evenodd" d="M1.25024 12C1.25024 6.06294 6.06318 1.25 12.0002 1.25C17.9373 1.25 22.7502 6.06294 22.7502 12C22.7502 17.9371 17.9373 22.75 12.0002 22.75C6.06318 22.75 1.25024 17.9371 1.25024 12ZM15.6848 6.94337C16.5775 6.40776 17.5924 7.42268 17.0568 8.31536L14.6149 12.3852C14.0659 13.3001 13.3003 14.0658 12.3854 14.6147L8.31554 17.0566C7.42287 17.5922 6.40794 16.5773 6.94355 15.6846L9.38546 11.6148C9.93438 10.6999 10.7001 9.9342 11.6149 9.38527L15.6848 6.94337Z" fill="black"/>
</svg>
