<svg width="24" height="24" viewBox="0 0 24 24" fill="none" xmlns="http://www.w3.org/2000/svg">
<path d="M13.5428 11.7421L15.4702 8.52973L12.2578 10.4571C11.5189 10.9005 10.9004 11.5189 10.4571 12.2579L8.52967 15.4702L11.742 13.5428C12.481 13.0995 13.0994 12.481 13.5428 11.7421Z" fill="black"/>
<path fill-rule="evenodd" clip-rule="evenodd" d="M1.25 12C1.25 6.06294 6.06294 1.25 12 1.25C17.9371 1.25 22.75 6.06294 22.75 12C22.75 17.9371 17.9371 22.75 12 22.75C6.06294 22.75 1.25 17.9371 1.25 12ZM15.5559 6.72899C16.6718 6.05948 17.9404 7.32813 17.2709 8.44398L14.829 12.5138C14.259 13.4639 13.4638 14.259 12.5138 14.8291L8.44392 17.271C7.32808 17.9405 6.05942 16.6718 6.72894 15.556L9.17084 11.4861C9.74088 10.5361 10.536 9.74094 11.4861 9.1709L15.5559 6.72899Z" fill="black"/>
</svg>
