<svg width="24" height="24" viewBox="0 0 24 24" fill="none" xmlns="http://www.w3.org/2000/svg">
<path fill-rule="evenodd" clip-rule="evenodd" d="M7.75753 6.17306C7.36701 5.78254 7.36701 5.14937 7.75753 4.75885L11.2931 1.22331C11.6836 0.832789 12.3168 0.832789 12.7073 1.22331L16.2428 4.75885C16.6333 5.14937 16.6333 5.78254 16.2428 6.17306L12.7073 9.70859C12.3168 10.0991 11.6836 10.0991 11.2931 9.70859L7.75753 6.17306ZM8.11109 5.1124L11.6466 1.57687C11.8419 1.3816 12.1585 1.3816 12.3537 1.57687L15.8893 5.1124C16.0845 5.30766 16.0845 5.62424 15.8893 5.81951L12.3537 9.35504C12.1585 9.5503 11.8419 9.5503 11.6466 9.35504L8.11109 5.81951C7.91582 5.62425 7.91582 5.30766 8.11109 5.1124Z" fill="black"/>
<path fill-rule="evenodd" clip-rule="evenodd" d="M6.17331 16.2426C5.78278 16.6331 5.14962 16.6331 4.75909 16.2426L1.22356 12.7071C0.833033 12.3165 0.833033 11.6834 1.22356 11.2929L4.75909 7.75732C5.14962 7.3668 5.78278 7.3668 6.1733 7.75732L9.70884 11.2929C10.0994 11.6834 10.0994 12.3165 9.70884 12.7071L6.17331 16.2426ZM5.11265 15.8891L1.57711 12.3535C1.38185 12.1583 1.38185 11.8417 1.57711 11.6464L5.11264 8.11088C5.30791 7.91561 5.62449 7.91561 5.81975 8.11088L9.35529 11.6464C9.55055 11.8417 9.55055 12.1583 9.35529 12.3535L5.81975 15.8891C5.62449 16.0843 5.30791 16.0843 5.11265 15.8891Z" fill="black"/>
<path fill-rule="evenodd" clip-rule="evenodd" d="M7.75753 17.8269C7.36701 18.2174 7.36701 18.8506 7.75753 19.2411L11.2931 22.7766C11.6836 23.1671 12.3168 23.1671 12.7073 22.7766L16.2428 19.2411C16.6333 18.8506 16.6333 18.2174 16.2428 17.8269L12.7073 14.2913C12.3168 13.9008 11.6836 13.9008 11.2931 14.2913L7.75753 17.8269ZM11.6466 14.6449L8.11109 18.1804C7.91582 18.3757 7.91582 18.6923 8.11109 18.8875L11.6466 22.4231C11.8419 22.6183 12.1585 22.6183 12.3537 22.4231L15.8893 18.8875C16.0845 18.6923 16.0845 18.3757 15.8893 18.1804L12.3537 14.6449C12.1585 14.4496 11.8419 14.4496 11.6466 14.6449Z" fill="black"/>
<path fill-rule="evenodd" clip-rule="evenodd" d="M19.2413 16.2426C18.8508 16.6331 18.2176 16.6331 17.8271 16.2426L14.2915 12.7071C13.901 12.3165 13.901 11.6834 14.2915 11.2929L17.8271 7.75732C18.2176 7.3668 18.8508 7.3668 19.2413 7.75732L22.7768 11.2929C23.1674 11.6834 23.1674 12.3165 22.7768 12.7071L19.2413 16.2426ZM18.1806 15.8891L14.6451 12.3535C14.4498 12.1583 14.4498 11.8417 14.6451 11.6464L18.1806 8.11088C18.3759 7.91561 18.6925 7.91561 18.8877 8.11088L22.4233 11.6464C22.6185 11.8417 22.6185 12.1583 22.4233 12.3535L18.8877 15.8891C18.6925 16.0843 18.3759 16.0843 18.1806 15.8891Z" fill="black"/>
</svg>
