<svg width="24" height="24" viewBox="0 0 24 24" fill="none" xmlns="http://www.w3.org/2000/svg">
<path fill-rule="evenodd" clip-rule="evenodd" d="M7.78947 0C5.69661 0 4 1.69661 4 3.78948V16C4 20.4183 7.58172 24 12 24C16.4183 24 20 20.4183 20 16V3.78947C20 1.69661 18.3034 0 16.2105 0H7.78947ZM11.25 1.5H7.78947C6.52503 1.5 5.5 2.52503 5.5 3.78948V16C5.5 19.5899 8.41015 22.5 12 22.5C15.5899 22.5 18.5 19.5899 18.5 16V3.78947C18.5 2.52503 17.475 1.5 16.2105 1.5H12.75V4.35352C13.9043 4.67998 14.75 5.74122 14.75 7V10C14.75 11.5188 13.5188 12.75 12 12.75C10.4812 12.75 9.25 11.5188 9.25 10V7C9.25 5.74122 10.0957 4.67998 11.25 4.35352V1.5ZM12 5.75C11.3096 5.75 10.75 6.30964 10.75 7V10C10.75 10.6904 11.3096 11.25 12 11.25C12.6904 11.25 13.25 10.6904 13.25 10V7C13.25 6.30964 12.6904 5.75 12 5.75Z" fill="black"/>
</svg>
