<svg width="24" height="24" viewBox="0 0 24 24" fill="none" xmlns="http://www.w3.org/2000/svg">
<path fill-rule="evenodd" clip-rule="evenodd" d="M15.813 7.15774C16.4826 6.75603 17.2437 7.51722 16.842 8.18673L14.4001 12.2566C13.8723 13.1363 13.1361 13.8725 12.2564 14.4003L8.18656 16.8422C7.51705 17.2439 6.75586 16.4827 7.15757 15.8132L9.59947 11.7434C10.1273 10.8637 10.8635 10.1275 11.7432 9.59965L15.813 7.15774ZM16.4133 7.92948C16.5472 7.70631 16.2935 7.45258 16.0703 7.58649L12.0005 10.0284C11.1911 10.514 10.5138 11.1913 10.0282 12.0006L7.58631 16.0705C7.45241 16.2936 7.70614 16.5474 7.92931 16.4135L11.9992 13.9716C12.8085 13.486 13.4858 12.8086 13.9714 11.9993L16.4133 7.92948Z" fill="black"/>
<path fill-rule="evenodd" clip-rule="evenodd" d="M12.0002 1.25C6.06318 1.25 1.25024 6.06294 1.25024 12C1.25024 17.9371 6.06318 22.75 12.0002 22.75C17.9373 22.75 22.7502 17.9371 22.7502 12C22.7502 6.06294 17.9373 1.25 12.0002 1.25ZM1.75024 12C1.75024 6.33908 6.33932 1.75 12.0002 1.75C17.6612 1.75 22.2502 6.33908 22.2502 12C22.2502 17.6609 17.6612 22.25 12.0002 22.25C6.33932 22.25 1.75024 17.6609 1.75024 12Z" fill="black"/>
</svg>
