<svg width="24" height="24" viewBox="0 0 24 24" fill="none" xmlns="http://www.w3.org/2000/svg">
<path fill-rule="evenodd" clip-rule="evenodd" d="M7.78947 0C5.69661 0 4 1.69661 4 3.78948V16C4 20.4183 7.58172 24 12 24C16.4183 24 20 20.4183 20 16V3.78947C20 1.69661 18.3034 0 16.2105 0H7.78947ZM11 2H7.78947C6.80118 2 6 2.80118 6 3.78948V16C6 19.3137 8.68629 22 12 22C15.3137 22 18 19.3137 18 16V3.78947C18 2.80118 17.1988 2 16.2105 2H13V4.17071C14.1652 4.58254 15 5.69378 15 7V10C15 11.6569 13.6569 13 12 13C10.3431 13 9 11.6569 9 10V7C9 5.69378 9.83481 4.58254 11 4.17071V2ZM12 6C11.4477 6 11 6.44772 11 7V10C11 10.5523 11.4477 11 12 11C12.5523 11 13 10.5523 13 10V7C13 6.44772 12.5523 6 12 6Z" fill="black"/>
</svg>
