<svg width="24" height="24" viewBox="0 0 24 24" fill="none" xmlns="http://www.w3.org/2000/svg">
<path d="M12.3407 9.85796C11.2401 10.3582 10.3581 11.2402 9.85785 12.3408L8.35684 15.643L11.659 14.142C12.7596 13.6417 13.6416 12.7597 14.1419 11.6592L15.6429 8.35696L12.3407 9.85796Z" fill="black"/>
<path fill-rule="evenodd" clip-rule="evenodd" d="M1.25 12C1.25 6.06294 6.06294 1.25 12 1.25C17.9371 1.25 22.75 6.06294 22.75 12C22.75 17.9371 17.9371 22.75 12 22.75C6.06294 22.75 1.25 17.9371 1.25 12ZM8.03711 11.5132C8.73746 9.97241 9.9723 8.73757 11.5131 8.03722L16.0291 5.98448C17.2909 5.41095 18.5889 6.70897 18.0153 7.97074L15.9626 12.4868C15.2623 14.0275 14.0274 15.2624 12.4867 15.9627L7.97063 18.0155C6.70886 18.589 5.41084 17.291 5.98437 16.0292L8.03711 11.5132Z" fill="black"/>
</svg>
