<svg width="24" height="24" viewBox="0 0 24 24" fill="none" xmlns="http://www.w3.org/2000/svg">
<path d="M16.4134 7.92948C16.5473 7.70631 16.2936 7.45259 16.0704 7.58649L12.0006 10.0284C11.1913 10.514 10.5139 11.1913 10.0283 12.0006L7.58643 16.0705C7.45253 16.2936 7.70626 16.5474 7.92943 16.4135L11.9993 13.9716C12.8086 13.486 13.4859 12.8086 13.9715 11.9993L16.4134 7.92948Z" fill="black"/>
<path fill-rule="evenodd" clip-rule="evenodd" d="M1.25 12C1.25 6.06294 6.06294 1.25 12 1.25C17.9371 1.25 22.75 6.06294 22.75 12C22.75 17.9371 17.9371 22.75 12 22.75C6.06294 22.75 1.25 17.9371 1.25 12ZM15.8132 7.15774C16.4827 6.75603 17.2439 7.51722 16.8422 8.18673L14.4003 12.2566C13.8724 13.1363 13.1362 13.8725 12.2565 14.4003L8.18668 16.8422C7.51717 17.2439 6.75598 16.4827 7.15768 15.8132L9.59959 11.7434C10.1274 10.8637 10.8636 10.1275 11.7433 9.59965L15.8132 7.15774Z" fill="black"/>
</svg>
