<svg width="24" height="24" viewBox="0 0 24 24" fill="none" xmlns="http://www.w3.org/2000/svg">
<path d="M13.543 11.7421L15.4704 8.52973L12.2581 10.4571C11.5191 10.9005 10.9007 11.5189 10.4573 12.2579L8.52992 15.4702L11.7423 13.5428C12.4812 13.0995 13.0996 12.481 13.543 11.7421Z" fill="black"/>
<path fill-rule="evenodd" clip-rule="evenodd" d="M1.25024 12C1.25024 6.06294 6.06318 1.25 12.0002 1.25C17.9373 1.25 22.7502 6.06294 22.7502 12C22.7502 17.9371 17.9373 22.75 12.0002 22.75C6.06318 22.75 1.25024 17.9371 1.25024 12ZM15.5562 6.72899C16.672 6.05948 17.9407 7.32813 17.2711 8.44398L14.8292 12.5138C14.2592 13.4639 13.4641 14.259 12.514 14.8291L8.44417 17.271C7.32832 17.9405 6.05967 16.6718 6.72918 15.556L9.17109 11.4861C9.74112 10.5361 10.5363 9.74094 11.4863 9.1709L15.5562 6.72899Z" fill="black"/>
</svg>
