<svg width="24" height="24" viewBox="0 0 24 24" fill="none" xmlns="http://www.w3.org/2000/svg">
<path d="M16.199 7.80086L12.1292 10.2428C11.3551 10.7072 10.7072 11.3551 10.2427 12.1292L7.8008 16.1991L11.8706 13.7572C12.6448 13.2927 13.2927 12.6448 13.7571 11.8707L16.199 7.80086Z" fill="black"/>
<path fill-rule="evenodd" clip-rule="evenodd" d="M1.25 12C1.25 6.06294 6.06294 1.25 12 1.25C17.9371 1.25 22.75 6.06294 22.75 12C22.75 17.9371 17.9371 22.75 12 22.75C6.06294 22.75 1.25 17.9371 1.25 12ZM15.6845 6.94337C16.5772 6.40776 17.5921 7.42268 17.0565 8.31536L14.6146 12.3852C14.0657 13.3001 13.3 14.0658 12.3851 14.6147L8.3153 17.0566C7.42262 17.5922 6.4077 16.5773 6.94331 15.6846L9.38522 11.6148C9.93414 10.6999 10.6998 9.9342 11.6147 9.38527L15.6845 6.94337Z" fill="black"/>
</svg>
