<svg width="24" height="24" viewBox="0 0 24 24" fill="none" xmlns="http://www.w3.org/2000/svg">
<path d="M16.4137 7.92948C16.5476 7.70631 16.2938 7.45259 16.0707 7.58649L12.0008 10.0284C11.1915 10.514 10.5142 11.1913 10.0286 12.0006L7.58667 16.0705C7.45277 16.2936 7.7065 16.5474 7.92967 16.4135L11.9995 13.9716C12.8088 13.486 13.4862 12.8086 13.9717 11.9993L16.4137 7.92948Z" fill="black"/>
<path fill-rule="evenodd" clip-rule="evenodd" d="M1.25024 12C1.25024 6.06294 6.06318 1.25 12.0002 1.25C17.9373 1.25 22.7502 6.06294 22.7502 12C22.7502 17.9371 17.9373 22.75 12.0002 22.75C6.06318 22.75 1.25024 17.9371 1.25024 12ZM15.8134 7.15774C16.4829 6.75603 17.2441 7.51722 16.8424 8.18673L14.4005 12.2566C13.8727 13.1363 13.1364 13.8725 12.2568 14.4003L8.18692 16.8422C7.51741 17.2439 6.75622 16.4827 7.15793 15.8132L9.59984 11.7434C10.1276 10.8637 10.8639 10.1275 11.7436 9.59965L15.8134 7.15774Z" fill="black"/>
</svg>
