<svg width="24" height="24" viewBox="0 0 24 24" fill="none" xmlns="http://www.w3.org/2000/svg">
<path fill-rule="evenodd" clip-rule="evenodd" d="M8.03762 11.5132C8.73796 9.97242 9.97281 8.73757 11.5136 8.03723L16.0296 5.98449C17.2914 5.41096 18.5894 6.70898 18.0158 7.97075L15.9631 12.4868C15.2628 14.0275 14.0279 15.2624 12.4872 15.9627L7.97114 18.0155C6.70937 18.589 5.41135 17.291 5.98488 16.0292L8.03762 11.5132ZM12.3412 9.85796C11.2406 10.3582 10.3586 11.2402 9.85835 12.3408L8.35735 15.643L11.6596 14.142C12.7601 13.6417 13.6421 12.7597 14.1424 11.6592L15.6434 8.35696L12.3412 9.85796Z" fill="black"/>
<path fill-rule="evenodd" clip-rule="evenodd" d="M12.0002 0.5C5.64897 0.5 0.500244 5.64873 0.500244 12C0.500244 18.3513 5.64897 23.5 12.0002 23.5C18.3515 23.5 23.5002 18.3513 23.5002 12C23.5002 5.64873 18.3515 0.5 12.0002 0.5ZM2.50024 12C2.50024 6.75329 6.75354 2.5 12.0002 2.5C17.2469 2.5 21.5002 6.75329 21.5002 12C21.5002 17.2467 17.2469 21.5 12.0002 21.5C6.75354 21.5 2.50024 17.2467 2.50024 12Z" fill="black"/>
</svg>
