<svg width="24" height="24" viewBox="0 0 24 24" fill="none" xmlns="http://www.w3.org/2000/svg">
<path fill-rule="evenodd" clip-rule="evenodd" d="M7.62737 0.75H16.3726C17.4736 0.749997 18.3305 0.749995 19.0179 0.806157C19.7158 0.86318 20.2829 0.980583 20.793 1.24047C21.6397 1.6719 22.3281 2.36031 22.7595 3.20704C23.0194 3.7171 23.1368 4.28416 23.1938 4.98209C23.25 5.66943 23.25 6.52629 23.25 7.62714V16.3726C23.25 17.4735 23.25 18.3306 23.1938 19.0179C23.1368 19.7158 23.0194 20.2829 22.7595 20.793C22.3281 21.6397 21.6397 22.3281 20.793 22.7595C20.2829 23.0194 19.7158 23.1368 19.0179 23.1938C18.3305 23.25 17.4736 23.25 16.3727 23.25H7.62736C6.52644 23.25 5.66947 23.25 4.98209 23.1938C4.28416 23.1368 3.7171 23.0194 3.20704 22.7595C2.36031 22.3281 1.6719 21.6397 1.24047 20.793C0.980583 20.2829 0.86318 19.7158 0.806158 19.0179C0.749996 18.3305 0.749998 17.4736 0.75 16.3727V7.62737C0.749998 6.52644 0.749996 5.66947 0.806158 4.98209C0.86318 4.28416 0.980583 3.7171 1.24047 3.20704C1.6719 2.36031 2.36031 1.6719 3.20704 1.24047C3.7171 0.980583 4.28416 0.86318 4.98209 0.806157C5.66948 0.749995 6.52641 0.749997 7.62737 0.75ZM5.29289 6.29289C5.68342 5.90237 6.31658 5.90237 6.70711 6.29289L12.364 11.9497C12.7545 12.3403 12.7545 12.9734 12.364 13.364L6.70711 19.0208C6.31658 19.4113 5.68342 19.4113 5.29289 19.0208C4.90237 18.6303 4.90237 17.9971 5.29289 17.6066L10.2426 12.6569L5.29289 7.70711C4.90237 7.31658 4.90237 6.68342 5.29289 6.29289ZM20 18C20 17.4477 19.5523 17 19 17H12C11.4477 17 11 17.4477 11 18C11 18.5523 11.4477 19 12 19H19C19.5523 19 20 18.5523 20 18Z" fill="black"/>
</svg>
