<svg width="24" height="24" viewBox="0 0 24 24" fill="none" xmlns="http://www.w3.org/2000/svg">
<path fill-rule="evenodd" clip-rule="evenodd" d="M19.515 3.78715C19.6183 3.05953 20.2438 2.5 21 2.5C21.8284 2.5 22.5 3.17157 22.5 4C22.5 4.82843 21.8284 5.5 21 5.5C20.4521 5.5 19.9729 5.20629 19.7111 4.76773L17.485 5.21295C17.3816 5.94052 16.7561 6.5 16 6.5C15.8729 6.5 15.7494 6.48419 15.6316 6.45442L13.2007 10.1008C13.3886 10.3513 13.5 10.6627 13.5 11C13.5 11.5478 13.2064 12.027 12.7679 12.2888L13.2132 14.515C13.9406 14.6185 14.5 15.2439 14.5 16C14.5 16.8284 13.8284 17.5 13 17.5C12.7093 17.5 12.4379 17.4173 12.208 17.2741L9.41706 19.5069C9.4708 19.6613 9.5 19.8272 9.5 20C9.5 20.8284 8.82843 21.5 8 21.5C7.17157 21.5 6.5 20.8284 6.5 20C6.5 19.8271 6.52924 19.6611 6.58305 19.5065L3.79228 17.2739C3.56237 17.4172 3.29085 17.5 3 17.5C2.17157 17.5 1.5 16.8284 1.5 16C1.5 15.1716 2.17157 14.5 3 14.5C3.38107 14.5 3.72894 14.6421 3.99354 14.8762L10.5207 11.25C10.5071 11.1687 10.5 11.0852 10.5 11C10.5 10.1716 11.1716 9.5 12 9.5C12.1273 9.5 12.2509 9.51585 12.3689 9.54569L14.7996 5.8996C14.6115 5.64897 14.5 5.3375 14.5 5C14.5 4.17157 15.1716 3.5 16 3.5C16.5479 3.5 17.0272 3.79375 17.289 4.23236L19.515 3.78715ZM20.5 4C20.5 3.72386 20.7239 3.5 21 3.5C21.2761 3.5 21.5 3.72386 21.5 4C21.5 4.27614 21.2761 4.5 21 4.5C20.7239 4.5 20.5 4.27614 20.5 4ZM11.0067 12.124C11.2211 12.3136 11.4902 12.4429 11.7874 12.485L12.2325 14.7109C11.7938 14.9727 11.5 15.452 11.5 16C11.5 16.1729 11.5292 16.3389 11.5831 16.4934L8.79228 18.7261C8.56237 18.5828 8.29085 18.5 8 18.5C7.70927 18.5 7.43785 18.5827 7.20801 18.7259L4.41706 16.4931C4.4708 16.3387 4.5 16.1728 4.5 16C4.5 15.9149 4.49292 15.8315 4.47931 15.7503L11.0067 12.124ZM16 4.5C15.7239 4.5 15.5 4.72386 15.5 5C15.5 5.27614 15.7239 5.5 16 5.5C16.2761 5.5 16.5 5.27614 16.5 5C16.5 4.72386 16.2761 4.5 16 4.5ZM12 10.5C11.7239 10.5 11.5 10.7239 11.5 11C11.5 11.2761 11.7239 11.5 12 11.5C12.2761 11.5 12.5 11.2761 12.5 11C12.5 10.7239 12.2761 10.5 12 10.5ZM13 15.5C12.7239 15.5 12.5 15.7239 12.5 16C12.5 16.2761 12.7239 16.5 13 16.5C13.2761 16.5 13.5 16.2761 13.5 16C13.5 15.7239 13.2761 15.5 13 15.5ZM7.5 20C7.5 19.7239 7.72386 19.5 8 19.5C8.27614 19.5 8.5 19.7239 8.5 20C8.5 20.2761 8.27614 20.5 8 20.5C7.72386 20.5 7.5 20.2761 7.5 20ZM3 15.5C2.72386 15.5 2.5 15.7239 2.5 16C2.5 16.2761 2.72386 16.5 3 16.5C3.27614 16.5 3.5 16.2761 3.5 16C3.5 15.7239 3.27614 15.5 3 15.5Z" fill="black"/>
</svg>
