<svg width="24" height="24" viewBox="0 0 24 24" fill="none" xmlns="http://www.w3.org/2000/svg">
<path fill-rule="evenodd" clip-rule="evenodd" d="M7.62737 0.75H16.3726C17.4736 0.749997 18.3305 0.749995 19.0179 0.806157C19.7158 0.86318 20.2829 0.980583 20.793 1.24047C21.6397 1.6719 22.3281 2.36031 22.7595 3.20704C23.0194 3.7171 23.1368 4.28416 23.1938 4.98209C23.25 5.66943 23.25 6.52629 23.25 7.62714V16.3726C23.25 17.4735 23.25 18.3306 23.1938 19.0179C23.1368 19.7158 23.0194 20.2829 22.7595 20.793C22.3281 21.6397 21.6397 22.3281 20.793 22.7595C20.2829 23.0194 19.7158 23.1368 19.0179 23.1938C18.3305 23.25 17.4736 23.25 16.3727 23.25H7.62736C6.52644 23.25 5.66947 23.25 4.98209 23.1938C4.28416 23.1368 3.7171 23.0194 3.20704 22.7595C2.36031 22.3281 1.6719 21.6397 1.24047 20.793C0.980583 20.2829 0.86318 19.7158 0.806158 19.0179C0.749996 18.3305 0.749998 17.4736 0.75 16.3727V7.62737C0.749998 6.52644 0.749996 5.66947 0.806158 4.98209C0.86318 4.28416 0.980583 3.7171 1.24047 3.20704C1.6719 2.36031 2.36031 1.6719 3.20704 1.24047C3.7171 0.980583 4.28416 0.86318 4.98209 0.806157C5.66948 0.749995 6.52641 0.749997 7.62737 0.75ZM5.46967 6.46967C5.76256 6.17678 6.23744 6.17678 6.53033 6.46967L12.1872 12.1265C12.4801 12.4194 12.4801 12.8943 12.1872 13.1872L6.53033 18.844C6.23744 19.1369 5.76256 19.1369 5.46967 18.844C5.17678 18.5511 5.17678 18.0763 5.46967 17.7834L10.5962 12.6569L5.46967 7.53033C5.17678 7.23744 5.17678 6.76256 5.46967 6.46967ZM19.75 18C19.75 17.5858 19.4142 17.25 19 17.25H12C11.5858 17.25 11.25 17.5858 11.25 18C11.25 18.4142 11.5858 18.75 12 18.75H19C19.4142 18.75 19.75 18.4142 19.75 18Z" fill="black"/>
</svg>
