<svg width="24" height="24" viewBox="0 0 24 24" fill="none" xmlns="http://www.w3.org/2000/svg">
<path d="M21 5C21.5523 5 22 4.55228 22 4C22 3.44772 21.5523 3 21 3C20.4662 3 20.0301 3.41819 20.0015 3.9448L16.9009 4.56492C16.9646 4.69646 17.0003 4.84406 17.0003 5C17.0003 5.01854 16.9998 5.03696 16.9988 5.05525L20.0994 4.43513C20.2612 4.76944 20.6037 5 21 5Z" fill="black"/>
<path d="M17.0003 5C17.0003 5.55228 16.5523 6 16 6C15.8847 6 15.774 5.9805 15.671 5.94461L12.7454 10.333C12.6336 10.2083 12.491 10.1117 12.3295 10.0555L15.255 5.66713C15.0965 5.49015 15 5.25634 15 5C15 4.44772 15.4477 4 16 4C16.5523 4 17.0003 4.44771 17.0003 5Z" fill="black"/>
<path fill-rule="evenodd" clip-rule="evenodd" d="M13 11C13 11.5512 12.5541 11.9982 12.0034 12C12.1582 11.9995 12.3047 11.9639 12.4353 11.9006L13.0555 15.0015C13.0372 15.0005 13.0188 15 13.0003 15C13.5524 15.0001 14 15.4478 14 16C14 16.5523 13.5523 17 13 17C12.775 17 12.5673 16.9257 12.4002 16.8002L8.9127 19.5902C8.84291 19.435 8.73471 19.3009 8.6002 19.1999L12.0876 16.41C12.0313 16.2849 12 16.1461 12 16C12 15.6036 12.2307 15.261 12.5652 15.0992L11.945 11.9985C11.6817 11.9842 11.4455 11.8681 11.2751 11.6889L3.96828 15.7482C3.92511 15.5817 3.84014 15.4321 3.72525 15.3112L11.032 11.2519C11.0111 11.1714 11 11.087 11 11C11 10.4477 11.4477 10 12 10C12.5523 10 13 10.4477 13 11ZM13.0003 15C13.0003 15 13.0002 15 13.0003 15Z" fill="black"/>
<path d="M8 21C8.55229 21 9 20.5523 9 20C9 19.4477 8.55229 19 8 19C7.77496 19 7.56729 19.0743 7.40019 19.1998L3.9127 16.4098C3.84291 16.565 3.73471 16.6991 3.6002 16.8001L7.08762 19.59C7.03132 19.7151 7 19.8539 7 20C7 20.5523 7.44771 21 8 21Z" fill="black"/>
<path d="M4 16C4 16.5523 3.55228 17 3 17C2.44772 17 2 16.5523 2 16C2 15.4477 2.44772 15 3 15C3.55228 15 4 15.4477 4 16Z" fill="black"/>
</svg>
