<svg width="24" height="24" viewBox="0 0 24 24" fill="none" xmlns="http://www.w3.org/2000/svg">
<path d="M21 2.5C20.1716 2.5 19.5 3.17157 19.5 4C19.5 4.55411 19.8005 5.03804 20.2473 5.29778L17.1937 5.90851C17.3859 5.65637 17.5 5.34151 17.5 5C17.5 4.17157 16.8284 3.5 16 3.5C16.2743 3.5 16.5314 3.57361 16.7526 3.70217L19.8064 3.09141C20.0804 2.73196 20.5131 2.5 21 2.5Z" fill="black"/>
<path d="M16.3852 6.45008L13.4865 10.7981C13.3879 10.0652 12.76 9.5 12 9.5C11.7477 9.5 11.5099 9.56228 11.3013 9.67233C11.3997 9.62042 11.5046 9.57914 11.6144 9.55001L14.5134 5.20152C14.6119 5.93465 15.2399 6.5 16 6.5C16.1332 6.5 16.2623 6.48265 16.3852 6.45008Z" fill="black"/>
<path d="M10.5858 10.4986C10.5303 10.6554 10.5 10.8242 10.5 11C10.5 11.8284 11.1716 12.5 12 12.5C12.5541 12.5 13.0379 12.1996 13.2977 11.7528L13.9084 14.8062C13.6563 14.6141 13.3415 14.5 13 14.5C12.4458 14.5 11.9618 14.8006 11.7021 15.2476L11.199 12.7319L5.01206 16.1691L7.92786 18.5017C7.95177 18.5006 7.97582 18.5 8 18.5C8.02409 18.5 8.04805 18.5006 8.07186 18.5017L11.5222 15.7414C11.5076 15.8254 11.5 15.9118 11.5 16C11.5 16.8042 12.1329 17.4607 12.9279 17.4983L9.47784 20.2583C9.49241 20.1744 9.5 20.0881 9.5 20C9.5 19.1716 8.82843 18.5 8 18.5C7.17157 18.5 6.5 19.1716 6.5 20C6.5 20.0882 6.50761 20.1746 6.52221 20.2586L3.07186 17.4983C3.86691 17.4608 4.5 16.8043 4.5 16C4.5 15.2818 3.99532 14.6816 3.32127 14.5345L10.5858 10.4986Z" fill="black"/>
<path d="M13.4991 11.0512C13.4997 11.0342 13.5 11.0171 13.5 11C13.5 11 13.5 11 13.5 11" fill="black"/>
<path d="M22 4C22 4.55228 21.5523 5 21 5C20.4477 5 20 4.55228 20 4C20 3.44772 20.4477 3 21 3C21.5523 3 22 3.44772 22 4Z" fill="black"/>
<path d="M16 6C16.5523 6 17 5.55228 17 5C17 4.44772 16.5523 4 16 4C15.4477 4 15 4.44772 15 5C15 5.55228 15.4477 6 16 6Z" fill="black"/>
<path d="M12 12C12.5523 12 13 11.5523 13 11C13 10.4477 12.5523 10 12 10C11.4477 10 11 10.4477 11 11C11 11.5523 11.4477 12 12 12Z" fill="black"/>
<path d="M13 17C13.5523 17 14 16.5523 14 16C14 15.4477 13.5523 15 13 15C12.4477 15 12 15.4477 12 16C12 16.5523 12.4477 17 13 17Z" fill="black"/>
<path d="M9 20C9 20.5523 8.55229 21 8 21C7.44771 21 7 20.5523 7 20C7 19.4477 7.44771 19 8 19C8.55229 19 9 19.4477 9 20Z" fill="black"/>
<path d="M3 17C3.55228 17 4 16.5523 4 16C4 15.4477 3.55228 15 3 15C2.44772 15 2 15.4477 2 16C2 16.5523 2.44772 17 3 17Z" fill="black"/>
</svg>
