<svg width="24" height="24" viewBox="0 0 24 24" fill="none" xmlns="http://www.w3.org/2000/svg">
<path fill-rule="evenodd" clip-rule="evenodd" d="M19.0345 3.6283C19.2087 2.70134 20.0224 2 21 2C22.1046 2 23 2.89543 23 4C23 5.10457 22.1046 6 21 6C20.3014 6 19.6865 5.64184 19.3288 5.09914L17.9655 5.3718C17.7912 6.29871 16.9775 7 16 7C15.8615 7 15.7262 6.98591 15.5956 6.95909L13.6527 9.87338C13.8719 10.1942 14 10.5821 14 11C14 11.6985 13.6419 12.3134 13.0993 12.671L13.372 14.0345C14.2988 14.2089 15 15.0226 15 16C15 17.1046 14.1046 18 13 18C12.6442 18 12.3101 17.9071 12.0206 17.7442L9.91678 19.4272C9.97092 19.6087 10 19.801 10 20C10 21.1046 9.10457 22 8 22C6.89543 22 6 21.1046 6 20C6 19.8008 6.02911 19.6085 6.08331 19.4269L3.9797 17.744C3.69016 17.907 3.35594 18 3 18C1.89543 18 1 17.1046 1 16C1 14.8954 1.89543 14 3 14C3.47605 14 3.91325 14.1663 4.25667 14.444L10.0149 11.245C10.005 11.1647 10 11.083 10 11C10 9.89543 10.8954 9 12 9C12.1387 9 12.2741 9.01412 12.4049 9.041L14.3475 6.127C14.1282 5.80608 14 5.41802 14 5C14 3.89543 14.8954 3 16 3C16.6986 3 17.3136 3.3582 17.6712 3.90095L19.0345 3.6283ZM20.5 4C20.5 3.72386 20.7239 3.5 21 3.5C21.2761 3.5 21.5 3.72386 21.5 4C21.5 4.27614 21.2761 4.5 21 4.5C20.7239 4.5 20.5 4.27614 20.5 4ZM11.6285 12.9656C11.2976 12.9034 10.9953 12.7597 10.7435 12.5561L4.98517 15.7552C4.99496 15.8355 5 15.9171 5 16C5 16.199 4.97092 16.3913 4.91678 16.5728L7.0206 18.2558C7.31007 18.0929 7.64419 18 8 18C8.35594 18 8.69016 18.093 8.9797 18.256L11.0833 16.5731C11.0291 16.3915 11 16.1992 11 16C11 15.3013 11.3583 14.6863 11.9011 14.3287L11.6285 12.9656ZM16 4.5C15.7239 4.5 15.5 4.72386 15.5 5C15.5 5.27614 15.7239 5.5 16 5.5C16.2761 5.5 16.5 5.27614 16.5 5C16.5 4.72386 16.2761 4.5 16 4.5ZM12 10.5C11.7239 10.5 11.5 10.7239 11.5 11C11.5 11.2761 11.7239 11.5 12 11.5C12.2761 11.5 12.5 11.2761 12.5 11C12.5 10.7239 12.2761 10.5 12 10.5ZM13 15.5C12.7239 15.5 12.5 15.7239 12.5 16C12.5 16.2761 12.7239 16.5 13 16.5C13.2761 16.5 13.5 16.2761 13.5 16C13.5 15.7239 13.2761 15.5 13 15.5ZM7.5 20C7.5 19.7239 7.72386 19.5 8 19.5C8.27614 19.5 8.5 19.7239 8.5 20C8.5 20.2761 8.27614 20.5 8 20.5C7.72386 20.5 7.5 20.2761 7.5 20ZM3 15.5C2.72386 15.5 2.5 15.7239 2.5 16C2.5 16.2761 2.72386 16.5 3 16.5C3.27614 16.5 3.5 16.2761 3.5 16C3.5 15.7239 3.27614 15.5 3 15.5Z" fill="black"/>
</svg>
