<svg width="24" height="24" viewBox="0 0 24 24" fill="none" xmlns="http://www.w3.org/2000/svg">
<path fill-rule="evenodd" clip-rule="evenodd" d="M7.62737 0.75H16.3726C17.4736 0.749997 18.3305 0.749995 19.0179 0.806157C19.7158 0.86318 20.2829 0.980583 20.793 1.24047C21.6397 1.6719 22.3281 2.36031 22.7595 3.20704C23.0194 3.7171 23.1368 4.28416 23.1938 4.98209C23.25 5.66943 23.25 6.52629 23.25 7.62714V16.3726C23.25 17.4735 23.25 18.3306 23.1938 19.0179C23.1368 19.7158 23.0194 20.2829 22.7595 20.793C22.3281 21.6397 21.6397 22.3281 20.793 22.7595C20.2829 23.0194 19.7158 23.1368 19.0179 23.1938C18.3305 23.25 17.4736 23.25 16.3727 23.25H7.62736C6.52644 23.25 5.66947 23.25 4.98209 23.1938C4.28416 23.1368 3.7171 23.0194 3.20704 22.7595C2.36031 22.3281 1.6719 21.6397 1.24047 20.793C0.980583 20.2829 0.86318 19.7158 0.806158 19.0179C0.749996 18.3305 0.749998 17.4736 0.75 16.3727V7.62737C0.749998 6.52644 0.749996 5.66947 0.806158 4.98209C0.86318 4.28416 0.980583 3.7171 1.24047 3.20704C1.6719 2.36031 2.36031 1.6719 3.20704 1.24047C3.7171 0.980583 4.28416 0.86318 4.98209 0.806157C5.66948 0.749995 6.52641 0.749997 7.62737 0.75ZM5.64645 6.64645C5.84171 6.45118 6.15829 6.45118 6.35355 6.64645L12.0104 12.3033C12.2057 12.4986 12.2057 12.8151 12.0104 13.0104L6.35355 18.6673C6.15829 18.8625 5.84171 18.8625 5.64645 18.6673C5.45118 18.472 5.45118 18.1554 5.64645 17.9602L10.9497 12.6569L5.64645 7.35355C5.45118 7.15829 5.45118 6.84171 5.64645 6.64645ZM19.5 18C19.5 17.7239 19.2761 17.5 19 17.5H12C11.7239 17.5 11.5 17.7239 11.5 18C11.5 18.2761 11.7239 18.5 12 18.5H19C19.2761 18.5 19.5 18.2761 19.5 18Z" fill="black"/>
</svg>
