<svg width="24" height="24" viewBox="0 0 24 24" fill="none" xmlns="http://www.w3.org/2000/svg">
<path d="M5.5 -0.00292969C6.4665 -0.00292969 7.25 0.780572 7.25 1.74707V4.10547C7.38312 4.13598 7.51648 4.17386 7.64844 4.22852C8.38321 4.53299 8.96701 5.11679 9.27148 5.85156C9.40649 6.17749 9.45601 6.50806 9.47852 6.83789C9.50039 7.15869 9.5 7.54786 9.5 8C9.5 8.45214 9.50039 8.84131 9.47852 9.16211C9.45601 9.49194 9.40649 9.82251 9.27148 10.1484C8.96701 10.8832 8.38321 11.467 7.64844 11.7715C7.51655 11.8261 7.38305 11.863 7.25 11.8936V22.2529L7.24121 22.4316C7.15162 23.3141 6.40612 24.0029 5.5 24.0029C4.59389 24.0029 3.84838 23.3141 3.75879 22.4316L3.75 22.2529V11.8936C3.61695 11.863 3.48345 11.8261 3.35156 11.7715C2.61679 11.467 2.03299 10.8832 1.72852 10.1484C1.59351 9.82251 1.54399 9.49194 1.52148 9.16211C1.49961 8.84131 1.5 8.45214 1.5 8C1.5 7.54786 1.49961 7.15869 1.52148 6.83789C1.54399 6.50806 1.59351 6.17749 1.72852 5.85156C2.03299 5.11679 2.61679 4.53299 3.35156 4.22852C3.48352 4.17386 3.61688 4.13598 3.75 4.10547V1.74707C3.75 0.780572 4.5335 -0.00292896 5.5 -0.00292969Z" fill="black"/>
<path d="M18.5 -0.00292969C19.4061 -0.00292969 20.1516 0.68588 20.2412 1.56836L20.25 1.74707V12.1064C20.3831 12.137 20.5165 12.1739 20.6484 12.2285C21.3832 12.533 21.967 13.1168 22.2715 13.8516C22.4065 14.1775 22.456 14.5081 22.4785 14.8379C22.5004 15.1587 22.5 15.5479 22.5 16C22.5 16.4521 22.5004 16.8413 22.4785 17.1621C22.456 17.4919 22.4065 17.8225 22.2715 18.1484C21.967 18.8832 21.3832 19.467 20.6484 19.7715C20.5165 19.8261 20.3831 19.864 20.25 19.8945V22.2529C20.25 23.2194 19.4665 24.0029 18.5 24.0029C17.5335 24.0029 16.75 23.2194 16.75 22.2529V19.8945C16.6169 19.864 16.4835 19.8261 16.3516 19.7715C15.6168 19.467 15.033 18.8832 14.7285 18.1484C14.5935 17.8225 14.544 17.4919 14.5215 17.1621C14.4996 16.8413 14.5 16.4521 14.5 16C14.5 15.5479 14.4996 15.1587 14.5215 14.8379C14.544 14.5081 14.5935 14.1775 14.7285 13.8516C15.033 13.1168 15.6168 12.533 16.3516 12.2285C16.4835 12.1739 16.6169 12.137 16.75 12.1064V1.74707L16.7588 1.56836C16.8484 0.68588 17.5939 -0.00292899 18.5 -0.00292969Z" fill="black"/>
</svg>
