<svg width="24" height="24" viewBox="0 0 24 24" fill="none" xmlns="http://www.w3.org/2000/svg">
<path d="M7 0.5C7.27614 0.5 7.5 0.723858 7.5 1V5.00117C8.11192 5.00593 8.47034 5.03004 8.76537 5.15224C9.25542 5.35523 9.64477 5.74458 9.84776 6.23463C10 6.60218 10 7.06812 10 8C10 8.93188 10 9.39782 9.84776 9.76537C9.64477 10.2554 9.25542 10.6448 8.76537 10.8478C8.47034 10.97 8.11192 10.9941 7.5 10.9988L7.5 23C7.5 23.2761 7.27614 23.5 7 23.5C6.72386 23.5 6.5 23.2761 6.5 23L6.5 10.9988C5.88808 10.9941 5.52966 10.97 5.23463 10.8478C4.74458 10.6448 4.35523 10.2554 4.15224 9.76537C4 9.39782 4 8.93188 4 8C4 7.06812 4 6.60218 4.15224 6.23463C4.35523 5.74458 4.74458 5.35523 5.23463 5.15224C5.52966 5.03004 5.88808 5.00593 6.5 5.00117V1C6.5 0.723858 6.72386 0.5 7 0.5Z" fill="black"/>
<path d="M17 23.5C17.2761 23.5 17.5 23.2761 17.5 23V18.9988C18.1119 18.9941 18.4703 18.97 18.7654 18.8478C19.2554 18.6448 19.6448 18.2554 19.8478 17.7654C20 17.3978 20 16.9319 20 16C20 15.0681 20 14.6022 19.8478 14.2346C19.6448 13.7446 19.2554 13.3552 18.7654 13.1522C18.4703 13.03 18.1119 13.0059 17.5 13.0012V1C17.5 0.723858 17.2761 0.5 17 0.5C16.7239 0.5 16.5 0.723858 16.5 1V13.0012C15.8881 13.0059 15.5297 13.03 15.2346 13.1522C14.7446 13.3552 14.3552 13.7446 14.1522 14.2346C14 14.6022 14 15.0681 14 16C14 16.9319 14 17.3978 14.1522 17.7654C14.3552 18.2554 14.7446 18.6448 15.2346 18.8478C15.5297 18.97 15.8881 18.9941 16.5 18.9988V23C16.5 23.2761 16.7239 23.5 17 23.5Z" fill="black"/>
</svg>
