<svg width="24" height="26" viewBox="0 0 24 26" fill="none" xmlns="http://www.w3.org/2000/svg">
<path fill-rule="evenodd" clip-rule="evenodd" d="M6 0.5C6.82843 0.5 7.5 1.17157 7.5 2V4.55176C7.76935 4.58612 8.05312 4.64783 8.33985 4.7666C9.19708 5.12182 9.87818 5.80292 10.2334 6.66016C10.3978 7.05716 10.4533 7.44842 10.4775 7.80371C10.5009 8.1455 10.5 8.55464 10.5 9C10.5 9.44536 10.5009 9.8545 10.4775 10.1963C10.4533 10.5516 10.3978 10.9428 10.2334 11.3398C9.87818 12.1971 9.19708 12.8782 8.33985 13.2334C8.05316 13.3521 7.76932 13.4129 7.5 13.4473V24L7.49219 24.1533C7.41539 24.9097 6.77666 25.5 6 25.5C5.22335 25.5 4.58462 24.9097 4.50782 24.1533L4.5 24V13.4473C4.23069 13.4129 3.94685 13.3521 3.66016 13.2334C2.80293 12.8782 2.12182 12.1971 1.76661 11.3398C1.60216 10.9428 1.54671 10.5516 1.52246 10.1963C1.49915 9.8545 1.5 9.44536 1.5 9C1.5 8.55464 1.49915 8.1455 1.52246 7.80371C1.54671 7.44843 1.60216 7.05716 1.76661 6.66016C2.12182 5.80292 2.80293 5.12182 3.66016 4.7666C3.94689 4.64783 4.23066 4.58612 4.5 4.55176V2C4.5 1.17158 5.17158 0.500006 6 0.5ZM6 7.5C5.51355 7.5 5.22383 7.50089 5.00782 7.51562C4.80545 7.52943 4.77925 7.55023 4.8086 7.53809C4.68614 7.58883 4.58883 7.68613 4.53809 7.80859C4.55024 7.77923 4.52944 7.80542 4.51563 8.00781C4.50089 8.22382 4.5 8.51354 4.5 9C4.5 9.48646 4.50089 9.77618 4.51563 9.99219C4.52944 10.1946 4.55024 10.2208 4.53809 10.1914C4.58883 10.3139 4.68614 10.4112 4.8086 10.4619C4.77925 10.4498 4.80545 10.4706 5.00782 10.4844C5.22383 10.4991 5.51355 10.5 6 10.5C6.48645 10.5 6.77618 10.4991 6.99219 10.4844C7.19458 10.4706 7.22077 10.4498 7.19141 10.4619C7.31387 10.4112 7.41117 10.3139 7.46192 10.1914C7.44977 10.2208 7.47057 10.1946 7.48438 9.99219C7.49912 9.77618 7.5 9.48646 7.5 9C7.5 8.51354 7.49912 8.22382 7.48438 8.00781C7.47057 7.80543 7.44977 7.77924 7.46192 7.80859C7.41117 7.68613 7.31387 7.58883 7.19141 7.53809C7.22077 7.55023 7.19458 7.52943 6.99219 7.51562C6.77618 7.50089 6.48645 7.5 6 7.5Z" fill="black"/>
<path fill-rule="evenodd" clip-rule="evenodd" d="M18 0.5C18.7767 0.5 19.4154 1.09028 19.4922 1.84668L19.5 2V12.5527C19.7693 12.5871 20.0532 12.6479 20.3398 12.7666C21.1971 13.1218 21.8782 13.8029 22.2334 14.6602C22.3978 15.0572 22.4533 15.4484 22.4775 15.8037C22.5009 16.1455 22.5 16.5546 22.5 17C22.5 17.4454 22.5009 17.8545 22.4775 18.1963C22.4533 18.5516 22.3978 18.9428 22.2334 19.3398C21.8782 20.1971 21.1971 20.8782 20.3398 21.2334C20.0531 21.3522 19.7694 21.4139 19.5 21.4482V24C19.5 24.8284 18.8284 25.5 18 25.5C17.1716 25.5 16.5 24.8284 16.5 24V21.4482C16.2307 21.4139 15.9469 21.3522 15.6602 21.2334C14.8029 20.8782 14.1218 20.1971 13.7666 19.3398C13.6022 18.9428 13.5467 18.5516 13.5225 18.1963C13.4992 17.8545 13.5 17.4454 13.5 17C13.5 16.5546 13.4992 16.1455 13.5225 15.8037C13.5467 15.4484 13.6022 15.0572 13.7666 14.6602C14.1218 13.8029 14.8029 13.1218 15.6602 12.7666C15.9468 12.6479 16.2307 12.5871 16.5 12.5527V2L16.5078 1.84668C16.5846 1.09028 17.2233 0.500006 18 0.5ZM18 15.5C17.5136 15.5 17.2238 15.5009 17.0078 15.5156C16.8055 15.5294 16.7793 15.5502 16.8086 15.5381C16.6861 15.5888 16.5888 15.6861 16.5381 15.8086C16.5502 15.7792 16.5294 15.8054 16.5156 16.0078C16.5009 16.2238 16.5 16.5135 16.5 17C16.5 17.4865 16.5009 17.7762 16.5156 17.9922C16.5294 18.1946 16.5502 18.2208 16.5381 18.1914C16.5888 18.3139 16.6861 18.4112 16.8086 18.4619C16.7793 18.4498 16.8055 18.4706 17.0078 18.4844C17.2238 18.4991 17.5136 18.5 18 18.5C18.4865 18.5 18.7762 18.4991 18.9922 18.4844C19.1946 18.4706 19.2208 18.4498 19.1914 18.4619C19.3139 18.4112 19.4112 18.3139 19.4619 18.1914C19.4498 18.2208 19.4706 18.1946 19.4844 17.9922C19.4991 17.7762 19.5 17.4865 19.5 17C19.5 16.5135 19.4991 16.2238 19.4844 16.0078C19.4706 15.8054 19.4498 15.7792 19.4619 15.8086C19.4112 15.6861 19.3139 15.5888 19.1914 15.5381C19.2208 15.5502 19.1946 15.5294 18.9922 15.5156C18.7762 15.5009 18.4865 15.5 18 15.5Z" fill="black"/>
</svg>
