<svg width="24" height="26" viewBox="0 0 24 26" fill="none" xmlns="http://www.w3.org/2000/svg">
<path fill-rule="evenodd" clip-rule="evenodd" d="M6 0.25C6.9665 0.25 7.75 1.0335 7.75 2V4.33691C7.91963 4.36757 8.09508 4.41116 8.27344 4.47363L8.43555 4.53516L8.60547 4.61133C9.44385 5.00849 10.1081 5.70333 10.4648 6.56445C10.6439 6.99682 10.7014 7.41822 10.7266 7.78613C10.7506 8.13843 10.75 8.558 10.75 9C10.75 9.442 10.7506 9.86157 10.7266 10.2139C10.7014 10.5818 10.6439 11.0032 10.4648 11.4355C10.0842 12.3542 9.35416 13.0842 8.43555 13.4648C8.20168 13.5617 7.97072 13.6213 7.75 13.6611V24L7.74121 24.1797C7.65126 25.0618 6.90584 25.75 6 25.75C5.09416 25.75 4.34875 25.0618 4.25879 24.1797L4.25 24V13.6611C4.02929 13.6213 3.79832 13.5617 3.56445 13.4648C2.64585 13.0842 1.91575 12.3542 1.53516 11.4355C1.35607 11.0032 1.29857 10.5818 1.27344 10.2139C1.2494 9.86157 1.25 9.442 1.25 9C1.25 8.558 1.2494 8.13843 1.27344 7.78613C1.29857 7.41823 1.35607 6.99682 1.53516 6.56445L1.61133 6.39453C2.00849 5.55615 2.70334 4.89193 3.56445 4.53516L3.72656 4.47363C3.90493 4.41116 4.08038 4.36757 4.25 4.33691V2C4.25 1.0335 5.03351 0.250003 6 0.25ZM6 7.75C5.51012 7.75 5.22994 7.75063 5.02442 7.76465C4.9488 7.76982 4.90417 7.77667 4.88184 7.78027C4.83868 7.80348 4.80348 7.83868 4.78027 7.88184C4.77668 7.90416 4.76982 7.94879 4.76465 8.02441C4.75063 8.22994 4.75 8.51011 4.75 9C4.75 9.48989 4.75063 9.77006 4.76465 9.97559C4.76975 10.0501 4.77666 10.0946 4.78027 10.1172C4.8034 10.1606 4.83861 10.1954 4.88184 10.2188C4.90411 10.2223 4.94862 10.2302 5.02442 10.2354C5.22994 10.2494 5.51012 10.25 6 10.25C6.48988 10.25 6.77006 10.2494 6.97559 10.2354C7.05031 10.2302 7.0946 10.2224 7.11719 10.2188C7.16063 10.1955 7.19548 10.1606 7.21875 10.1172C7.22236 10.0946 7.23024 10.0503 7.23535 9.97559C7.24938 9.77006 7.25 9.48989 7.25 9C7.25 8.51011 7.24938 8.22994 7.23535 8.02441C7.23017 7.94862 7.22235 7.90411 7.21875 7.88184C7.1954 7.83861 7.16056 7.8034 7.11719 7.78027C7.09455 7.77666 7.05014 7.76974 6.97559 7.76465C6.77006 7.75063 6.48988 7.75 6 7.75Z" fill="black"/>
<path fill-rule="evenodd" clip-rule="evenodd" d="M18 0.25C18.9058 0.25 19.6513 0.938218 19.7412 1.82031L19.75 2V12.3379C19.9196 12.3685 20.0951 12.4112 20.2734 12.4736L20.4355 12.5352L20.6055 12.6113C21.4439 13.0085 22.1081 13.7033 22.4648 14.5645C22.6439 14.9968 22.7014 15.4182 22.7266 15.7861C22.7506 16.1384 22.75 16.558 22.75 17C22.75 17.442 22.7506 17.8616 22.7266 18.2139C22.7014 18.5818 22.6439 19.0032 22.4648 19.4355C22.0843 20.3542 21.3542 21.0842 20.4355 21.4648C20.2016 21.5617 19.9708 21.6223 19.75 21.6621V24C19.75 24.9665 18.9665 25.75 18 25.75C17.0335 25.75 16.25 24.9665 16.25 24V21.6621C16.0292 21.6223 15.7984 21.5617 15.5645 21.4648C14.6458 21.0842 13.9158 20.3542 13.5352 19.4355C13.3561 19.0032 13.2986 18.5818 13.2734 18.2139C13.2494 17.8616 13.25 17.442 13.25 17C13.25 16.558 13.2494 16.1384 13.2734 15.7861C13.2986 15.4182 13.3561 14.9968 13.5352 14.5645L13.6113 14.3945C14.0085 13.5561 14.7033 12.8919 15.5645 12.5352L15.7266 12.4736C15.9049 12.4112 16.0804 12.3685 16.25 12.3379V2L16.2588 1.82031C16.3487 0.938219 17.0942 0.250003 18 0.25ZM18 15.75C17.5101 15.75 17.2299 15.7506 17.0244 15.7646C16.9488 15.7698 16.9042 15.7767 16.8818 15.7803C16.8387 15.8035 16.8035 15.8387 16.7803 15.8818C16.7767 15.9042 16.7698 15.9488 16.7646 16.0244C16.7506 16.2299 16.75 16.5101 16.75 17C16.75 17.4899 16.7506 17.7701 16.7646 17.9756C16.7697 18.0501 16.7767 18.0946 16.7803 18.1172C16.8034 18.1606 16.8386 18.1954 16.8818 18.2188C16.9041 18.2223 16.9486 18.2302 17.0244 18.2354C17.2299 18.2494 17.5101 18.25 18 18.25C18.4899 18.25 18.7701 18.2494 18.9756 18.2354C19.0503 18.2302 19.0946 18.2224 19.1172 18.2188C19.1606 18.1955 19.1955 18.1606 19.2188 18.1172C19.2224 18.0946 19.2302 18.0503 19.2354 17.9756C19.2494 17.7701 19.25 17.4899 19.25 17C19.25 16.5101 19.2494 16.2299 19.2354 16.0244C19.2302 15.9486 19.2223 15.9041 19.2188 15.8818C19.1954 15.8386 19.1606 15.8034 19.1172 15.7803C19.0946 15.7767 19.0501 15.7697 18.9756 15.7646C18.7701 15.7506 18.4899 15.75 18 15.75Z" fill="black"/>
</svg>
