<svg width="24" height="24" viewBox="0 0 24 24" fill="none" xmlns="http://www.w3.org/2000/svg">
<path fill-rule="evenodd" clip-rule="evenodd" d="M7.25 1C7.25 0.861929 7.13807 0.75 7 0.75C6.86193 0.75 6.75 0.861929 6.75 1V4.75012C6.4049 4.75065 6.12369 4.75357 5.88867 4.76961C5.59703 4.78951 5.35827 4.83043 5.13896 4.92127C4.58765 5.14963 4.14963 5.58765 3.92127 6.13896C3.83043 6.35827 3.78951 6.59703 3.76961 6.88867C3.75 7.17611 3.75 7.53261 3.75 7.99061V8.00939C3.75 8.46739 3.75 8.82389 3.76961 9.11133C3.78951 9.40297 3.83043 9.64173 3.92127 9.86104C4.14963 10.4124 4.58765 10.8504 5.13896 11.0787C5.35827 11.1696 5.59703 11.2105 5.88867 11.2304C6.12369 11.2464 6.4049 11.2493 6.75 11.2499V23C6.75 23.1381 6.86193 23.25 7 23.25C7.13807 23.25 7.25 23.1381 7.25 23L7.25 11.2499C7.5951 11.2493 7.87631 11.2464 8.11133 11.2304C8.40297 11.2105 8.64173 11.1696 8.86104 11.0787C9.41235 10.8504 9.85037 10.4124 10.0787 9.86104C10.1696 9.64173 10.2105 9.40297 10.2304 9.11133C10.25 8.82389 10.25 8.46739 10.25 8.00939V7.99061C10.25 7.53261 10.25 7.17611 10.2304 6.88867C10.2105 6.59703 10.1696 6.35827 10.0787 6.13896C9.85037 5.58765 9.41235 5.14963 8.86104 4.92127C8.64173 4.83043 8.40297 4.78951 8.11133 4.76961C7.87631 4.75357 7.5951 4.75065 7.25 4.75012V1ZM5.92271 5.26845C5.65652 5.28661 5.47854 5.32181 5.3303 5.38321C4.9015 5.56083 4.56083 5.9015 4.38321 6.3303C4.32181 6.47854 4.28661 6.65652 4.26845 6.92271C4.25014 7.19114 4.25 7.53064 4.25 8C4.25 8.46936 4.25014 8.80886 4.26845 9.07729C4.28661 9.34348 4.32181 9.52146 4.38321 9.6697C4.56083 10.0985 4.9015 10.4392 5.3303 10.6168C5.47854 10.6782 5.65652 10.7134 5.92271 10.7316C6.19114 10.7499 6.53064 10.75 7 10.75C7.46936 10.75 7.80886 10.7499 8.07729 10.7316C8.34348 10.7134 8.52146 10.6782 8.6697 10.6168C9.0985 10.4392 9.43917 10.0985 9.61679 9.6697C9.67819 9.52146 9.71339 9.34348 9.73155 9.07729C9.74986 8.80886 9.75 8.46936 9.75 8C9.75 7.53064 9.74986 7.19114 9.73155 6.92271C9.71339 6.65652 9.67819 6.47854 9.61679 6.3303C9.43917 5.9015 9.0985 5.56083 8.6697 5.38321C8.52146 5.32181 8.34348 5.28661 8.07729 5.26845C7.80886 5.25014 7.46936 5.25 7 5.25C6.53064 5.25 6.19114 5.25014 5.92271 5.26845Z" fill="black"/>
<path fill-rule="evenodd" clip-rule="evenodd" d="M17.25 23C17.25 23.1381 17.1381 23.25 17 23.25C16.8619 23.25 16.75 23.1381 16.75 23V19.2499C16.4049 19.2493 16.1237 19.2464 15.8887 19.2304C15.597 19.2105 15.3583 19.1696 15.139 19.0787C14.5876 18.8504 14.1496 18.4123 13.9213 17.861C13.8304 17.6417 13.7895 17.403 13.7696 17.1113C13.75 16.8239 13.75 16.4674 13.75 16.0094V15.9906C13.75 15.5326 13.75 15.1761 13.7696 14.8887C13.7895 14.597 13.8304 14.3583 13.9213 14.139C14.1496 13.5876 14.5876 13.1496 15.139 12.9213C15.3583 12.8304 15.597 12.7895 15.8887 12.7696C16.1237 12.7536 16.4049 12.7506 16.75 12.7501V1C16.75 0.861929 16.8619 0.750002 17 0.750002C17.1381 0.750002 17.25 0.861929 17.25 1V12.7501C17.5951 12.7506 17.8763 12.7536 18.1113 12.7696C18.403 12.7895 18.6417 12.8304 18.861 12.9213C19.4124 13.1496 19.8504 13.5876 20.0787 14.139C20.1696 14.3583 20.2105 14.597 20.2304 14.8887C20.25 15.1761 20.25 15.5325 20.25 15.9905V16.0094C20.25 16.4673 20.25 16.8239 20.2304 17.1113C20.2105 17.403 20.1696 17.6417 20.0787 17.861C19.8504 18.4123 19.4124 18.8504 18.861 19.0787C18.6417 19.1696 18.403 19.2105 18.1113 19.2304C17.8763 19.2464 17.5951 19.2493 17.25 19.2499V23ZM15.9227 13.2684C15.6565 13.2866 15.4785 13.3218 15.3303 13.3832C14.9015 13.5608 14.5608 13.9015 14.3832 14.3303C14.3218 14.4785 14.2866 14.6565 14.2684 14.9227C14.2501 15.1911 14.25 15.5306 14.25 16C14.25 16.4694 14.2501 16.8089 14.2684 17.0773C14.2866 17.3435 14.3218 17.5215 14.3832 17.6697C14.5608 18.0985 14.9015 18.4392 15.3303 18.6168C15.4785 18.6782 15.6565 18.7134 15.9227 18.7315C16.1911 18.7499 16.5306 18.75 17 18.75C17.4694 18.75 17.8089 18.7499 18.0773 18.7315C18.3435 18.7134 18.5215 18.6782 18.6697 18.6168C19.0985 18.4392 19.4392 18.0985 19.6168 17.6697C19.6782 17.5215 19.7134 17.3435 19.7316 17.0773C19.7499 16.8089 19.75 16.4694 19.75 16C19.75 15.5306 19.7499 15.1911 19.7316 14.9227C19.7134 14.6565 19.6782 14.4785 19.6168 14.3303C19.4392 13.9015 19.0985 13.5608 18.6697 13.3832C18.5215 13.3218 18.3435 13.2866 18.0773 13.2684C17.8089 13.2501 17.4694 13.25 17 13.25C16.5306 13.25 16.1911 13.2501 15.9227 13.2684Z" fill="black"/>
</svg>
