<svg width="24" height="24" viewBox="0 0 24 24" fill="none" xmlns="http://www.w3.org/2000/svg">
<path fill-rule="evenodd" clip-rule="evenodd" d="M7.25 1C7.25 0.585786 6.91421 0.25 6.5 0.25C6.08579 0.25 5.75 0.585786 5.75 1V4.25453C5.60741 4.25753 5.47577 4.2625 5.35464 4.27077C5.03754 4.29241 4.73801 4.33905 4.44762 4.45933C3.77379 4.73844 3.23844 5.27379 2.95933 5.94762C2.83905 6.23801 2.79241 6.53754 2.77077 6.85464C2.74999 7.15925 2.74999 7.53029 2.75 7.97475V8.02525C2.74999 8.46971 2.74999 8.84075 2.77077 9.14536C2.79241 9.46247 2.83905 9.76199 2.95933 10.0524C3.23844 10.7262 3.77379 11.2616 4.44762 11.5407C4.73801 11.661 5.03754 11.7076 5.35464 11.7292C5.47577 11.7375 5.60741 11.7425 5.75 11.7455V23C5.75 23.4142 6.08579 23.75 6.5 23.75C6.91421 23.75 7.25 23.4142 7.25 23V11.7455C7.39259 11.7425 7.52423 11.7375 7.64537 11.7292C7.96247 11.7076 8.26199 11.661 8.55238 11.5407C9.22621 11.2616 9.76156 10.7262 10.0407 10.0524C10.161 9.76199 10.2076 9.46247 10.2292 9.14536C10.25 8.84075 10.25 8.46972 10.25 8.02526V7.97474C10.25 7.53028 10.25 7.15925 10.2292 6.85464C10.2076 6.53754 10.161 6.23801 10.0407 5.94762C9.76156 5.27379 9.22621 4.73844 8.55238 4.45933C8.26199 4.33905 7.96247 4.29241 7.64537 4.27077C7.52423 4.2625 7.39259 4.25753 7.25 4.25453V1ZM5.45674 5.76729C5.21602 5.78372 5.0988 5.81319 5.02165 5.84515C4.71536 5.97202 4.47202 6.21536 4.34515 6.52165C4.31319 6.5988 4.28372 6.71601 4.26729 6.95674C4.25041 7.20421 4.25 7.5238 4.25 8C4.25 8.4762 4.25041 8.79579 4.26729 9.04326C4.28372 9.28399 4.31319 9.4012 4.34515 9.47835C4.47202 9.78464 4.71536 10.028 5.02165 10.1549C5.0988 10.1868 5.21602 10.2163 5.45674 10.2327C5.70421 10.2496 6.0238 10.25 6.5 10.25C6.9762 10.25 7.29579 10.2496 7.54326 10.2327C7.78399 10.2163 7.9012 10.1868 7.97835 10.1549C8.28464 10.028 8.52798 9.78464 8.65485 9.47835C8.68681 9.4012 8.71629 9.28399 8.73271 9.04326C8.74959 8.79579 8.75 8.4762 8.75 8C8.75 7.5238 8.74959 7.20421 8.73271 6.95674C8.71629 6.71601 8.68681 6.5988 8.65485 6.52165C8.52798 6.21536 8.28464 5.97202 7.97835 5.84515C7.9012 5.81319 7.78399 5.78372 7.54326 5.76729C7.29579 5.75041 6.9762 5.75 6.5 5.75C6.0238 5.75 5.70421 5.75041 5.45674 5.76729Z" fill="black"/>
<path fill-rule="evenodd" clip-rule="evenodd" d="M18.25 23C18.25 23.4142 17.9142 23.75 17.5 23.75C17.0858 23.75 16.75 23.4142 16.75 23V19.7455C16.6074 19.7425 16.4758 19.7375 16.3546 19.7292C16.0375 19.7076 15.738 19.6609 15.4476 19.5407C14.7738 19.2616 14.2384 18.7262 13.9593 18.0524C13.839 17.762 13.7924 17.4625 13.7708 17.1454C13.75 16.8408 13.75 16.4697 13.75 16.0253V15.9747C13.75 15.5303 13.75 15.1592 13.7708 14.8546C13.7924 14.5375 13.839 14.238 13.9593 13.9476C14.2384 13.2738 14.7738 12.7384 15.4476 12.4593C15.738 12.339 16.0375 12.2924 16.3546 12.2708C16.4758 12.2625 16.6074 12.2575 16.75 12.2545V1C16.75 0.585787 17.0858 0.250002 17.5 0.25C17.9142 0.250002 18.25 0.585787 18.25 1V12.2545C18.3926 12.2575 18.5242 12.2625 18.6454 12.2708C18.9625 12.2924 19.262 12.339 19.5524 12.4593C20.2262 12.7384 20.7616 13.2738 21.0407 13.9476C21.161 14.238 21.2076 14.5375 21.2292 14.8546C21.25 15.1592 21.25 15.5302 21.25 15.9747V16.0253C21.25 16.4697 21.25 16.8408 21.2292 17.1454C21.2076 17.4625 21.161 17.762 21.0407 18.0524C20.7616 18.7262 20.2262 19.2616 19.5524 19.5407C19.262 19.6609 18.9625 19.7076 18.6454 19.7292C18.5242 19.7375 18.3926 19.7425 18.25 19.7455V23ZM16.4567 13.7673C16.216 13.7837 16.0988 13.8132 16.0216 13.8451C15.7154 13.972 15.472 14.2154 15.3452 14.5216C15.3132 14.5988 15.2837 14.716 15.2673 14.9567C15.2504 15.2042 15.25 15.5238 15.25 16C15.25 16.4762 15.2504 16.7958 15.2673 17.0433C15.2837 17.284 15.3132 17.4012 15.3452 17.4783C15.472 17.7846 15.7154 18.028 16.0216 18.1548C16.0988 18.1868 16.216 18.2163 16.4567 18.2327C16.7042 18.2496 17.0238 18.25 17.5 18.25C17.9762 18.25 18.2958 18.2496 18.5433 18.2327C18.784 18.2163 18.9012 18.1868 18.9784 18.1548C19.2846 18.028 19.528 17.7846 19.6549 17.4783C19.6868 17.4012 19.7163 17.284 19.7327 17.0433C19.7496 16.7958 19.75 16.4762 19.75 16C19.75 15.5238 19.7496 15.2042 19.7327 14.9567C19.7163 14.716 19.6868 14.5988 19.6549 14.5216C19.528 14.2154 19.2846 13.972 18.9784 13.8451C18.9012 13.8132 18.784 13.7837 18.5433 13.7673C18.2958 13.7504 17.9762 13.75 17.5 13.75C17.0238 13.75 16.7042 13.7504 16.4567 13.7673Z" fill="black"/>
</svg>
