<svg width="24" height="24" viewBox="0 0 24 24" fill="none" xmlns="http://www.w3.org/2000/svg">
<path fill-rule="evenodd" clip-rule="evenodd" d="M7.5 1C7.5 0.447715 7.05229 0 6.5 0C5.94772 0 5.5 0.447715 5.5 1V4.01233C5.44407 4.01481 5.38993 4.01778 5.33762 4.02135C5.00779 4.04385 4.67788 4.09336 4.35195 4.22836C3.61687 4.53284 3.03284 5.11687 2.72836 5.85195C2.59336 6.17788 2.54385 6.50779 2.52135 6.83762C2.49998 7.15087 2.49999 7.52936 2.5 7.968V8.03198C2.49999 8.47063 2.49998 8.84913 2.52135 9.16238C2.54385 9.49221 2.59336 9.82212 2.72836 10.1481C3.03284 10.8831 3.61687 11.4672 4.35195 11.7716C4.67788 11.9066 5.00779 11.9561 5.33762 11.9787C5.38993 11.9822 5.44407 11.9852 5.5 11.9877L5.5 23C5.5 23.5523 5.94772 24 6.5 24C7.05229 24 7.5 23.5523 7.5 23V11.9877C7.55593 11.9852 7.61007 11.9822 7.66238 11.9787C7.99221 11.9561 8.32212 11.9066 8.64805 11.7716C9.38314 11.4672 9.96716 10.8831 10.2716 10.1481C10.4066 9.82212 10.4561 9.49221 10.4787 9.16238C10.5 8.84912 10.5 8.47064 10.5 8.03199V7.96801C10.5 7.52936 10.5 7.15087 10.4787 6.83762C10.4561 6.50779 10.4066 6.17788 10.2716 5.85195C9.96716 5.11687 9.38314 4.53284 8.64805 4.22836C8.32212 4.09336 7.99221 4.04385 7.66238 4.02135C7.61007 4.01778 7.55593 4.01481 7.5 4.01233L7.5 1ZM5.47376 6.01671C5.24576 6.03227 5.15893 6.05888 5.11732 6.07612C4.87229 6.17761 4.67762 6.37229 4.57612 6.61732C4.55888 6.65893 4.53227 6.74576 4.51671 6.97376C4.50054 7.21074 4.5 7.52038 4.5 8C4.5 8.47962 4.50054 8.78926 4.51671 9.02624C4.53227 9.25424 4.55888 9.34107 4.57612 9.38268C4.67762 9.62771 4.87229 9.82239 5.11732 9.92388C5.15893 9.94112 5.24576 9.96773 5.47376 9.98329C5.71074 9.99946 6.02038 10 6.5 10C6.97963 10 7.28926 9.99946 7.52624 9.98329C7.75424 9.96773 7.84107 9.94112 7.88268 9.92388C8.12771 9.82239 8.32239 9.62771 8.42388 9.38268C8.44112 9.34107 8.46773 9.25424 8.48329 9.02624C8.49946 8.78926 8.5 8.47962 8.5 8C8.5 7.52038 8.49946 7.21074 8.48329 6.97376C8.46773 6.74576 8.44112 6.65893 8.42388 6.61732C8.32239 6.37229 8.12771 6.17761 7.88268 6.07612C7.84107 6.05888 7.75424 6.03227 7.52624 6.01671C7.28926 6.00054 6.97963 6 6.5 6C6.02038 6 5.71074 6.00054 5.47376 6.01671Z" fill="black"/>
<path fill-rule="evenodd" clip-rule="evenodd" d="M18.5 23C18.5 23.5523 18.0523 24 17.5 24C16.9477 24 16.5 23.5523 16.5 23L16.5 19.9877C16.4441 19.9852 16.3899 19.9822 16.3376 19.9787C16.0078 19.9561 15.6779 19.9066 15.352 19.7716C14.6169 19.4672 14.0328 18.8831 13.7284 18.1481C13.5934 17.8221 13.5439 17.4922 13.5214 17.1624C13.5 16.8491 13.5 16.4706 13.5 16.032V15.968C13.5 15.5294 13.5 15.1509 13.5214 14.8376C13.5439 14.5078 13.5934 14.1779 13.7284 13.8519C14.0328 13.1169 14.6169 12.5328 15.352 12.2284C15.6779 12.0934 16.0078 12.0439 16.3376 12.0213C16.3899 12.0178 16.4441 12.0148 16.5 12.0123V1.00001C16.5 0.447723 16.9477 9.50694e-06 17.5 7.59959e-06C18.0523 9.50694e-06 18.5 0.447723 18.5 1.00001V12.0123C18.5559 12.0148 18.6101 12.0178 18.6624 12.0213C18.9922 12.0439 19.3221 12.0934 19.6481 12.2284C20.3831 12.5328 20.9672 13.1169 21.2716 13.8519C21.4066 14.1779 21.4561 14.5078 21.4787 14.8376C21.5 15.1509 21.5 15.5294 21.5 15.968V16.032C21.5 16.4706 21.5 16.8491 21.4787 17.1624C21.4561 17.4922 21.4066 17.8221 21.2716 18.1481C20.9672 18.8831 20.3831 19.4672 19.6481 19.7716C19.3221 19.9066 18.9922 19.9561 18.6624 19.9787C18.6101 19.9822 18.5559 19.9852 18.5 19.9877V23ZM16.4738 14.0167C16.2458 14.0323 16.1589 14.0589 16.1173 14.0761C15.8723 14.1776 15.6776 14.3723 15.5761 14.6173C15.5589 14.6589 15.5323 14.7458 15.5167 14.9738C15.5005 15.2107 15.5 15.5204 15.5 16C15.5 16.4796 15.5005 16.7893 15.5167 17.0262C15.5323 17.2542 15.5589 17.3411 15.5761 17.3827C15.6776 17.6277 15.8723 17.8224 16.1173 17.9239C16.1589 17.9411 16.2458 17.9677 16.4738 17.9833C16.7107 17.9995 17.0204 18 17.5 18C17.9796 18 18.2893 17.9995 18.5262 17.9833C18.7542 17.9677 18.8411 17.9411 18.8827 17.9239C19.1277 17.8224 19.3224 17.6277 19.4239 17.3827C19.4411 17.3411 19.4677 17.2542 19.4833 17.0262C19.4995 16.7893 19.5 16.4796 19.5 16C19.5 15.5204 19.4995 15.2107 19.4833 14.9738C19.4677 14.7458 19.4411 14.6589 19.4239 14.6173C19.3224 14.3723 19.1277 14.1776 18.8827 14.0761C18.8411 14.0589 18.7542 14.0323 18.5262 14.0167C18.2893 14.0005 17.9796 14 17.5 14C17.0204 14 16.7107 14.0005 16.4738 14.0167Z" fill="black"/>
</svg>
