<svg width="24" height="24" viewBox="0 0 24 24" fill="none" xmlns="http://www.w3.org/2000/svg">
<path d="M5.5 0.24707C6.32843 0.24707 7 0.918643 7 1.74707V4.31055C7.18902 4.34008 7.37284 4.38447 7.55274 4.45898C8.22642 4.73809 8.76191 5.27358 9.04102 5.94727C9.16129 6.23762 9.20786 6.53744 9.22949 6.85449C9.25067 7.16486 9.25 7.54432 9.25 8C9.25 8.45568 9.25067 8.83514 9.22949 9.14551C9.20786 9.46256 9.16129 9.76238 9.04102 10.0527C8.76191 10.7264 8.22642 11.2619 7.55274 11.541C7.37289 11.6155 7.18896 11.6589 7 11.6885V22.2529L6.99219 22.4072C6.91504 23.1633 6.2764 23.7529 5.5 23.7529C4.72361 23.7529 4.08497 23.1633 4.00781 22.4072L4 22.2529V11.6885C3.81104 11.6589 3.62712 11.6155 3.44727 11.541C2.77359 11.2619 2.23809 10.7264 1.95899 10.0527C1.83872 9.76238 1.79215 9.46256 1.77051 9.14551C1.74933 8.83514 1.75 8.45568 1.75 8C1.75 7.54432 1.74933 7.16486 1.77051 6.85449C1.79215 6.53744 1.83872 6.23762 1.95899 5.94727C2.23809 5.27359 2.77359 4.73809 3.44727 4.45898C3.62716 4.38447 3.81099 4.34008 4 4.31055V1.74707C4 0.918646 4.67158 0.247074 5.5 0.24707Z" fill="black"/>
<path d="M18.5 0.24707C19.2764 0.24707 19.915 0.836781 19.9922 1.59277L20 1.74707V12.3115C20.189 12.3411 20.3729 12.3845 20.5527 12.459C21.2264 12.7381 21.7619 13.2736 22.041 13.9473C22.1613 14.2376 22.2079 14.5374 22.2295 14.8545C22.2507 15.1649 22.25 15.5443 22.25 16C22.25 16.4557 22.2507 16.8351 22.2295 17.1455C22.2079 17.4626 22.1613 17.7624 22.041 18.0527C21.7619 18.7264 21.2264 19.2619 20.5527 19.541C20.3728 19.6155 20.189 19.6599 20 19.6895V22.2529C20 23.0814 19.3284 23.7529 18.5 23.7529C17.6716 23.7529 17 23.0814 17 22.2529V19.6895C16.811 19.6599 16.6272 19.6155 16.4473 19.541C15.7736 19.2619 15.2381 18.7264 14.959 18.0527C14.8387 17.7624 14.7921 17.4626 14.7705 17.1455C14.7493 16.8351 14.75 16.4557 14.75 16C14.75 15.5443 14.7493 15.1649 14.7705 14.8545C14.7921 14.5374 14.8387 14.2376 14.959 13.9473C15.2381 13.2736 15.7736 12.7381 16.4473 12.459C16.6271 12.3845 16.811 12.3411 17 12.3115V1.74707L17.0078 1.59277C17.085 0.836783 17.7236 0.247074 18.5 0.24707Z" fill="black"/>
</svg>
