<svg width="24" height="26" viewBox="0 0 24 26" fill="none" xmlns="http://www.w3.org/2000/svg">
<path d="M6.75 2C6.75 1.30964 6.19036 0.75 5.5 0.75C4.80964 0.75 4.25 1.30964 4.25 2L4.25 5.52998C3.99472 5.55393 3.76366 5.59902 3.54329 5.6903C2.93072 5.94404 2.44404 6.43072 2.1903 7.04329C2.08474 7.29814 2.04096 7.56728 2.02019 7.87165C1.99999 8.16766 2 8.53136 2 8.98224V9.01776C2 9.46864 1.99999 9.83234 2.02019 10.1283C2.04096 10.4327 2.08474 10.7019 2.1903 10.9567C2.44404 11.5693 2.93072 12.056 3.54329 12.3097C3.76366 12.401 3.99472 12.4461 4.25 12.47L4.25 24C4.25 24.6903 4.80964 25.25 5.5 25.25C6.19036 25.25 6.75 24.6903 6.75 24L6.75 12.47C7.00528 12.4461 7.23634 12.401 7.45671 12.3097C8.06928 12.056 8.55596 11.5693 8.8097 10.9567C8.91526 10.7019 8.95904 10.4327 8.97981 10.1283C9.00001 9.83235 9 9.46865 9 9.01778V8.98224C9 8.53137 9.00001 8.16765 8.97981 7.87165C8.95904 7.56728 8.91526 7.29814 8.8097 7.04329C8.55596 6.43072 8.06928 5.94404 7.45671 5.6903C7.23634 5.59902 7.00528 5.55393 6.75 5.52998V2Z" fill="black"/>
<path d="M19.75 24C19.75 24.6904 19.1904 25.25 18.5 25.25C17.8096 25.25 17.25 24.6904 17.25 24V20.47C16.9947 20.4461 16.7637 20.401 16.5433 20.3097C15.9307 20.056 15.444 19.5693 15.1903 18.9567C15.0847 18.7019 15.041 18.4327 15.0202 18.1283C15 17.8323 15 17.4686 15 17.0178V16.9822C15 16.5314 15 16.1677 15.0202 15.8717C15.041 15.5673 15.0847 15.2981 15.1903 15.0433C15.444 14.4307 15.9307 13.944 16.5433 13.6903C16.7637 13.599 16.9947 13.5539 17.25 13.53V2.00001C17.25 1.30965 17.8096 0.750008 18.5 0.750008C19.1904 0.750008 19.75 1.30965 19.75 2.00001V13.53C20.0053 13.5539 20.2363 13.599 20.4567 13.6903C21.0693 13.944 21.556 14.4307 21.8097 15.0433C21.9153 15.2981 21.959 15.5673 21.9798 15.8717C22 16.1677 22 16.5314 22 16.9822V17.0178C22 17.4686 22 17.8323 21.9798 18.1283C21.959 18.4327 21.9153 18.7019 21.8097 18.9567C21.556 19.5693 21.0693 20.056 20.4567 20.3097C20.2363 20.401 20.0053 20.4461 19.75 20.47V24Z" fill="black"/>
</svg>
