<svg width="24" height="26" viewBox="0 0 24 26" fill="none" xmlns="http://www.w3.org/2000/svg">
<path fill-rule="evenodd" clip-rule="evenodd" d="M5.92704 5.14581C5.43095 5.14572 4.9204 5.14563 4.48301 5.18137C3.99491 5.22125 3.38231 5.31779 2.75723 5.63629C1.9105 6.06772 1.22209 6.75613 0.790659 7.60286C0.472164 8.22794 0.375619 8.84053 0.335739 9.32864C0.300003 9.76603 0.300093 10.2766 0.30018 10.7727L0.300179 19.519C0.300092 20.0151 0.300003 20.5256 0.335739 20.963C0.375619 21.4511 0.472164 22.0637 0.790659 22.6888C1.22209 23.5355 1.9105 24.2239 2.75723 24.6553C3.38231 24.9738 3.99491 25.0704 4.48301 25.1103C4.92041 25.146 5.43096 25.1459 5.92707 25.1458H13.6733C14.1694 25.1459 14.68 25.146 15.1174 25.1103C15.6055 25.0704 16.2181 24.9738 16.8431 24.6553C17.6899 24.2239 18.3783 23.5355 18.8097 22.6888C19.1282 22.0637 19.2248 21.4511 19.2646 20.963C19.3004 20.5256 19.3003 20.015 19.3002 19.5189V10.7727C19.3003 10.2766 19.3004 9.76604 19.2646 9.32864C19.2248 8.84053 19.1282 8.22794 18.8097 7.60286C18.3783 6.75613 17.6899 6.06772 16.8431 5.63628C16.2181 5.31779 15.6055 5.22125 15.1174 5.18137C14.68 5.14563 14.1694 5.14572 13.6733 5.14581L5.92704 5.14581ZM2.80019 10.8458C2.80019 9.72571 2.80019 9.16566 3.01818 8.73783C3.20992 8.36151 3.51588 8.05555 3.89221 7.8638C4.32003 7.64581 4.88008 7.64581 6.00019 7.64581L13.6002 7.64581C14.7203 7.64581 15.2803 7.64581 15.7082 7.8638C16.0845 8.05555 16.3905 8.36151 16.5822 8.73783C16.8002 9.16566 16.8002 9.72571 16.8002 10.8458V19.4458C16.8002 20.5659 16.8002 21.126 16.5822 21.5538C16.3905 21.9301 16.0845 22.2361 15.7082 22.4278C15.2803 22.6458 14.7203 22.6458 13.6002 22.6458H6.00019C4.88008 22.6458 4.32003 22.6458 3.89221 22.4278C3.51588 22.2361 3.20992 21.9301 3.01818 21.5538C2.80019 21.126 2.80019 20.5659 2.80019 19.4458V10.8458Z" fill="black"/>
<path d="M5.90345 3.14638C5.71012 3.14629 5.49695 3.14619 5.27676 3.14905C5.711 2.37634 6.3646 1.74776 7.15678 1.34413C7.78186 1.02563 8.39445 0.929086 8.88256 0.889206C9.31995 0.853469 9.8305 0.853559 10.3266 0.853647L18.0729 0.853646C18.569 0.853559 19.0795 0.853469 19.5169 0.889205C20.005 0.929086 20.6176 1.02563 21.2427 1.34412C22.0894 1.77556 22.7778 2.46397 23.2093 3.3107C23.5278 3.93578 23.6243 4.54837 23.6642 5.03648C23.6999 5.47388 23.6998 5.98443 23.6997 6.48053V15.2268C23.6998 15.7229 23.6999 16.2334 23.6642 16.6708C23.6243 17.1589 23.5278 17.7715 23.2093 18.3966C22.7868 19.2258 22.1178 19.9032 21.295 20.3361C21.3006 20.0575 21.3005 19.7851 21.3004 19.5435V10.7495C21.3006 10.2781 21.3009 9.68914 21.2582 9.16637C21.2454 9.01039 21.2275 8.83534 21.1997 8.64527V6.55365C21.1997 5.43355 21.1997 4.8735 20.9818 4.44567C20.79 4.06935 20.484 3.76339 20.1077 3.57164C19.6799 3.35365 19.1198 3.35365 17.9997 3.35365H16.3682C15.9539 3.25726 15.5816 3.21321 15.2804 3.1886C14.7577 3.14589 14.1688 3.14616 13.6974 3.14638L5.90345 3.14638Z" fill="black"/>
</svg>
