<svg width="24" height="24" viewBox="0 0 24 24" fill="none" xmlns="http://www.w3.org/2000/svg">
<path d="M2.12776 6.78414C1.80078 7.42587 1.80078 8.26595 1.80078 9.94611L1.80078 18.3461C1.80078 20.0263 1.80078 20.8663 2.12776 21.5081C2.41538 22.0726 2.87432 22.5315 3.43881 22.8191C4.08055 23.1461 4.92062 23.1461 6.60078 23.1461H13.0008C14.6809 23.1461 15.521 23.1461 16.1628 22.8191C16.7272 22.5315 17.1862 22.0726 17.4738 21.5081C17.7661 20.9345 17.7971 20.2024 17.8004 18.8536C17.8002 18.8536 17.8006 18.8536 17.8004 18.8536L17.8009 8.27206C17.8009 7.1781 17.8009 6.63113 17.588 6.21329C17.4007 5.84575 17.1019 5.54693 16.7344 5.35966C16.3165 5.14676 15.7696 5.14676 14.6756 5.14676H13.5972C13.4109 5.14611 13.2125 5.14611 13.0008 5.14611L6.60078 5.14611C4.92062 5.14611 4.08055 5.14611 3.43881 5.47309C2.87432 5.76071 2.41538 6.21965 2.12776 6.78414Z" fill="black"/>
<path d="M20.5624 18.5268C20.2267 18.6978 19.8369 18.7794 19.3009 18.8183L19.3009 8.21995C19.3009 7.7178 19.301 7.25457 19.2693 6.86698C19.2351 6.4485 19.1567 5.98792 18.9245 5.5323C18.5934 4.88252 18.0652 4.35423 17.4154 4.02315C16.9598 3.791 16.4992 3.71255 16.0807 3.67836C15.6931 3.64669 15.2299 3.64672 14.7277 3.64676L6.24437 3.64677C6.28622 3.16496 6.36791 2.80478 6.52739 2.49179C6.81501 1.9273 7.27395 1.46836 7.83844 1.18074C8.48018 0.85376 9.32025 0.85376 11.0004 0.85376L17.4004 0.85376C19.0806 0.85376 19.9206 0.85376 20.5624 1.18074C21.1269 1.46836 21.5858 1.9273 21.8734 2.49179C22.2004 3.13352 22.2004 3.9736 22.2004 5.65376V14.0538C22.2004 15.7339 22.2004 16.574 21.8734 17.2157C21.5858 17.7802 21.1269 18.2392 20.5624 18.5268Z" fill="black"/>
</svg>
