<svg width="24" height="24" viewBox="0 0 24 24" fill="none" xmlns="http://www.w3.org/2000/svg">
<path fill-rule="evenodd" clip-rule="evenodd" d="M5.94774 5.1458C5.43277 5.14576 4.9598 5.14573 4.56443 5.17803C4.13817 5.21286 3.67182 5.29259 3.21121 5.52728C2.55264 5.86284 2.01721 6.39827 1.68165 7.05684C1.44696 7.51745 1.36723 7.98379 1.33241 8.41006C1.3001 8.80543 1.30014 9.27839 1.30018 9.79337L1.30017 18.4982C1.30014 19.0132 1.3001 19.4862 1.33241 19.8815C1.36723 20.3078 1.44696 20.7742 1.68165 21.2348C2.01721 21.8933 2.55264 22.4288 3.21121 22.7643C3.67182 22.999 4.13817 23.0787 4.56443 23.1136C4.9598 23.1459 5.43275 23.1458 5.94771 23.1458H13.6526C14.1676 23.1458 14.6406 23.1459 15.0359 23.1136C15.4622 23.0787 15.9285 22.999 16.3891 22.7643C17.0477 22.4288 17.5831 21.8933 17.9187 21.2348C18.1534 20.7742 18.2331 20.3078 18.2679 19.8815C18.3002 19.4862 18.3002 19.0132 18.3002 18.4982V9.79338C18.3002 9.2784 18.3002 8.80543 18.2679 8.41006C18.2331 7.98379 18.1534 7.51745 17.9187 7.05684C17.5831 6.39827 17.0477 5.86284 16.3891 5.52728C15.9285 5.29259 15.4622 5.21286 15.0359 5.17803C14.6406 5.14573 14.1676 5.14576 13.6527 5.1458H5.94774ZM2.80018 9.8458C2.80018 8.7257 2.80018 8.16565 3.01816 7.73782C3.20991 7.3615 3.51587 7.05554 3.89219 6.86379C4.32002 6.6458 4.88007 6.6458 6.00018 6.6458H13.6002C14.7203 6.6458 15.2803 6.6458 15.7082 6.86379C16.0845 7.05554 16.3904 7.3615 16.5822 7.73782C16.8002 8.16565 16.8002 8.7257 16.8002 9.8458L16.8002 18.4458C16.8002 19.5659 16.8002 20.126 16.5822 20.5538C16.3904 20.9301 16.0845 21.2361 15.7082 21.4278C15.2803 21.6458 14.7203 21.6458 13.6002 21.6458H6.00018C4.88007 21.6458 4.32002 21.6458 3.89219 21.4278C3.51587 21.2361 3.20991 20.9301 3.01816 20.5538C2.80018 20.126 2.80018 19.5659 2.80018 18.4458L2.80018 9.8458Z" fill="black"/>
<path d="M7.41771 3.44566C7.38534 3.5092 7.35777 3.57566 7.3343 3.64644L5.79174 3.64642C5.8438 3.35821 5.93059 3.06027 6.0812 2.76468C6.41676 2.10611 6.95219 1.57068 7.61076 1.23512C8.07137 1.00043 8.53772 0.920699 8.96398 0.885873C9.35936 0.85357 9.83232 0.853602 10.3473 0.853641L18.0522 0.85364C18.5671 0.853604 19.0401 0.853571 19.4355 0.885872C19.8617 0.9207 20.3281 1.00043 20.7887 1.23512C21.4473 1.57068 21.9827 2.10611 22.3182 2.76468C22.5529 3.22529 22.6327 3.69163 22.6675 4.1179C22.6998 4.51327 22.6998 4.98624 22.6997 5.50122V14.2061C22.6998 14.721 22.6998 15.194 22.6675 15.5894C22.6327 16.0157 22.5529 16.482 22.3182 16.9426C21.9827 17.6012 21.4473 18.1366 20.7887 18.4722C20.4565 18.6415 20.1212 18.7301 19.8002 18.7794C19.8004 18.6946 19.8004 18.6103 19.8003 18.5273L19.8003 17.2505C19.9123 17.2213 20.0132 17.1838 20.1077 17.1357C20.484 16.9439 20.79 16.6379 20.9817 16.2616C21.1997 15.8338 21.1997 15.2737 21.1997 14.1536V5.55364C21.1997 4.43354 21.1997 3.87348 20.9817 3.44566C20.79 3.06934 20.484 2.76338 20.1077 2.57163C19.6799 2.35364 19.1198 2.35364 17.9997 2.35364L10.3997 2.35364C9.27962 2.35364 8.71957 2.35364 8.29175 2.57163C7.91542 2.76338 7.60946 3.06934 7.41771 3.44566Z" fill="black"/>
</svg>
