<svg width="24" height="24" viewBox="0 0 24 24" fill="none" xmlns="http://www.w3.org/2000/svg">
<path d="M2.12715 6.78426C1.80017 7.426 1.80017 8.26608 1.80017 9.94623L1.80017 18.3462C1.80017 20.0264 1.80017 20.8665 2.12715 21.5082C2.41477 22.0727 2.87371 22.5316 3.4382 22.8193C4.07993 23.1462 4.92001 23.1462 6.60017 23.1462H13.0002C14.6803 23.1462 15.5204 23.1462 16.1621 22.8193C16.7266 22.5316 17.1856 22.0727 17.4732 21.5082C17.7655 20.9346 17.7965 20.2025 17.7998 18.8537C17.7996 18.8537 17.8 18.8537 17.7998 18.8537L17.8003 8.27218C17.8003 7.17823 17.8003 6.63125 17.5874 6.21341C17.4001 5.84587 17.1013 5.54706 16.7338 5.35979C16.3159 5.14689 15.769 5.14689 14.675 5.14689H13.5966C13.4103 5.14623 13.2119 5.14623 13.0002 5.14623L6.60017 5.14623C4.92001 5.14623 4.07993 5.14623 3.4382 5.47321C2.87371 5.76083 2.41477 6.21978 2.12715 6.78426Z" fill="black"/>
<path d="M20.5618 18.5269C20.2261 18.6979 19.8363 18.7795 19.3003 18.8184L19.3003 8.22007C19.3003 7.71792 19.3004 7.25469 19.2687 6.86711C19.2345 6.44863 19.1561 5.98805 18.9239 5.53243C18.5928 4.88264 18.0645 4.35436 17.4148 4.02328C16.9591 3.79113 16.4986 3.71267 16.0801 3.67848C15.6925 3.64681 15.2293 3.64685 14.7271 3.64689L6.24376 3.64689C6.28561 3.16508 6.3673 2.8049 6.52678 2.49191C6.8144 1.92742 7.27334 1.46848 7.83783 1.18086C8.47957 0.853882 9.31964 0.853882 10.9998 0.853882L17.3998 0.853882C19.08 0.853882 19.92 0.853882 20.5618 1.18086C21.1263 1.46848 21.5852 1.92742 21.8728 2.49191C22.1998 3.13365 22.1998 3.97372 22.1998 5.65388V14.0539C22.1998 15.734 22.1998 16.5741 21.8728 17.2159C21.5852 17.7803 21.1263 18.2393 20.5618 18.5269Z" fill="black"/>
</svg>
