<svg width="24" height="24" viewBox="0 0 24 24" fill="none" xmlns="http://www.w3.org/2000/svg">
<path fill-rule="evenodd" clip-rule="evenodd" d="M5.94835 5.14592C5.43338 5.14588 4.96041 5.14585 4.56504 5.17816C4.13878 5.21298 3.67243 5.29271 3.21182 5.5274C2.55325 5.86296 2.01782 6.39839 1.68226 7.05696C1.44757 7.51757 1.36784 7.98391 1.33302 8.41018C1.30071 8.80555 1.30075 9.27852 1.30079 9.79349L1.30078 18.4984C1.30075 19.0133 1.30071 19.4863 1.33302 19.8817C1.36784 20.3079 1.44757 20.7743 1.68226 21.2349C2.01782 21.8935 2.55325 22.4289 3.21182 22.7644C3.67243 22.9991 4.13878 23.0789 4.56504 23.1137C4.96041 23.146 5.43336 23.146 5.94832 23.1459H13.6533C14.1682 23.146 14.6412 23.146 15.0365 23.1137C15.4628 23.0789 15.9291 22.9991 16.3898 22.7644C17.0483 22.4289 17.5838 21.8935 17.9193 21.2349C18.154 20.7743 18.2337 20.3079 18.2686 19.8817C18.3009 19.4863 18.3008 19.0133 18.3008 18.4984V9.7935C18.3008 9.27852 18.3009 8.80555 18.2686 8.41018C18.2337 7.98391 18.154 7.51757 17.9193 7.05696C17.5838 6.39839 17.0483 5.86296 16.3898 5.5274C15.9291 5.29271 15.4628 5.21298 15.0365 5.17815C14.6412 5.14585 14.1682 5.14589 13.6533 5.14592H5.94835ZM2.80079 9.84592C2.80079 8.72582 2.80079 8.16577 3.01877 7.73794C3.21052 7.36162 3.51648 7.05566 3.89281 6.86391C4.32063 6.64593 4.88068 6.64592 6.00079 6.64592H13.6008C14.7209 6.64592 15.2809 6.64592 15.7088 6.86391C16.0851 7.05566 16.3911 7.36162 16.5828 7.73794C16.8008 8.16577 16.8008 8.72582 16.8008 9.84593L16.8008 18.4459C16.8008 19.566 16.8008 20.1261 16.5828 20.5539C16.3911 20.9302 16.0851 21.2362 15.7088 21.4279C15.2809 21.6459 14.7209 21.6459 13.6008 21.6459H6.00079C4.88068 21.6459 4.32063 21.6459 3.89281 21.4279C3.51648 21.2362 3.21052 20.9302 3.01877 20.5539C2.80079 20.1261 2.80079 19.566 2.80079 18.4459L2.80079 9.84592Z" fill="black"/>
<path d="M7.41832 3.44578C7.38595 3.50932 7.35838 3.57578 7.33491 3.64656L5.79235 3.64654C5.84441 3.35834 5.9312 3.06039 6.08181 2.7648C6.41737 2.10623 6.9528 1.5708 7.61137 1.23524C8.07198 1.00055 8.53833 0.920821 8.96459 0.885995C9.35997 0.853692 9.83293 0.853724 10.3479 0.853763L18.0528 0.853762C18.5677 0.853726 19.0407 0.853693 19.4361 0.885994C19.8623 0.920823 20.3287 1.00055 20.7893 1.23524C21.4479 1.5708 21.9833 2.10623 22.3189 2.7648C22.5536 3.22541 22.6333 3.69175 22.6681 4.11802C22.7004 4.51339 22.7004 4.98636 22.7003 5.50134V14.2062C22.7004 14.7211 22.7004 15.1941 22.6681 15.5895C22.6333 16.0158 22.5536 16.4821 22.3189 16.9427C21.9833 17.6013 21.4479 18.1367 20.7893 18.4723C20.4571 18.6416 20.1218 18.7302 19.8008 18.7796C19.801 18.6947 19.801 18.6105 19.8009 18.5274L19.8009 17.2506C19.9129 17.2214 20.0138 17.1839 20.1083 17.1358C20.4846 16.944 20.7906 16.6381 20.9823 16.2617C21.2003 15.8339 21.2003 15.2739 21.2003 14.1538V5.55376C21.2003 4.43366 21.2003 3.87361 20.9823 3.44578C20.7906 3.06946 20.4846 2.7635 20.1083 2.57175C19.6805 2.35376 19.1204 2.35376 18.0003 2.35376L10.4003 2.35376C9.28023 2.35376 8.72018 2.35376 8.29236 2.57175C7.91603 2.7635 7.61007 3.06946 7.41832 3.44578Z" fill="black"/>
</svg>
