<svg width="24" height="24" viewBox="0 0 24 24" fill="none" xmlns="http://www.w3.org/2000/svg">
<path d="M2.12679 6.78414C1.7998 7.42587 1.7998 8.26595 1.7998 9.94611L1.7998 18.3461C1.79981 20.0263 1.79981 20.8663 2.12679 21.5081C2.41441 22.0726 2.87335 22.5315 3.43783 22.8191C4.07957 23.1461 4.91965 23.1461 6.5998 23.1461H12.9998C14.68 23.1461 15.52 23.1461 16.1618 22.8191C16.7263 22.5315 17.1852 22.0726 17.4728 21.5081C17.7651 20.9345 17.7961 20.2024 17.7994 18.8536C17.7992 18.8536 17.7996 18.8536 17.7994 18.8536L17.7999 8.27206C17.7999 7.17811 17.7999 6.63113 17.587 6.21329C17.3998 5.84575 17.1009 5.54693 16.7334 5.35966C16.3156 5.14677 15.7686 5.14677 14.6746 5.14677H13.5968C13.4103 5.14611 13.2117 5.14611 12.9998 5.14611L6.59981 5.14611C4.91965 5.14611 4.07957 5.14611 3.43783 5.47309C2.87335 5.76071 2.41441 6.21965 2.12679 6.78414Z" fill="black"/>
<path d="M20.5614 18.5268C20.4781 18.5692 20.3914 18.6062 20.2999 18.6383L20.2999 8.19967C20.3 7.71608 20.3001 7.21521 20.265 6.78555C20.2258 6.30523 20.1305 5.6984 19.8146 5.07832C19.3876 4.24037 18.7063 3.5591 17.8684 3.13215C17.2483 2.8162 16.6415 2.72092 16.1611 2.68168C15.7315 2.64658 15.2307 2.64667 14.7471 2.64676L6.45535 2.64677C6.47713 2.59368 6.50077 2.54212 6.52642 2.49179C6.81404 1.9273 7.27298 1.46836 7.83746 1.18074C8.4792 0.85376 9.31928 0.85376 10.9994 0.85376L17.3994 0.85376C19.0796 0.85376 19.9197 0.85376 20.5614 1.18074C21.1259 1.46836 21.5848 1.9273 21.8725 2.49179C22.1994 3.13352 22.1994 3.9736 22.1994 5.65376V14.0538C22.1994 15.7339 22.1994 16.574 21.8725 17.2157C21.5848 17.7802 21.1259 18.2392 20.5614 18.5268Z" fill="black"/>
</svg>
