<svg width="24" height="24" viewBox="0 0 24 24" fill="none" xmlns="http://www.w3.org/2000/svg">
<path fill-rule="evenodd" clip-rule="evenodd" d="M5.93639 4.6458C5.43164 4.64574 4.94002 4.64569 4.52372 4.6797C4.06654 4.71705 3.52707 4.80519 2.98422 5.08178C2.23157 5.46528 1.61965 6.0772 1.23616 6.82985C0.959561 7.37269 0.871425 7.91216 0.834072 8.36935C0.800058 8.78566 0.800116 9.27723 0.800176 9.78199L0.800176 18.5096C0.800116 19.0144 0.800058 19.506 0.834072 19.9223C0.871425 20.3795 0.95956 20.9189 1.23616 21.4618C1.61965 22.2144 2.23157 22.8263 2.98422 23.2098C3.52707 23.4864 4.06653 23.5746 4.52372 23.6119C4.94005 23.6459 5.43164 23.6459 5.93642 23.6458H13.6639C14.1687 23.6459 14.6603 23.6459 15.0766 23.6119C15.5338 23.5746 16.0733 23.4864 16.6161 23.2098C17.3688 22.8263 17.9807 22.2144 18.3642 21.4618C18.6408 20.9189 18.7289 20.3795 18.7663 19.9223C18.8003 19.5059 18.8002 19.0143 18.8002 18.5096V9.78205C18.8002 9.27727 18.8003 8.78568 18.7663 8.36935C18.7289 7.91216 18.6408 7.37269 18.3642 6.82985C17.9807 6.0772 17.3688 5.46528 16.6161 5.08178C16.0733 4.80519 15.5338 4.71705 15.0766 4.6797C14.6603 4.64569 14.1688 4.64574 13.664 4.6458L5.93639 4.6458ZM2.80018 9.84581C2.80018 8.7257 2.80018 8.16565 3.01817 7.73783C3.20992 7.3615 3.51588 7.05554 3.8922 6.8638C4.32002 6.64581 4.88008 6.64581 6.00018 6.64581L13.6002 6.64581C14.7203 6.64581 15.2803 6.64581 15.7082 6.8638C16.0845 7.05554 16.3904 7.3615 16.5822 7.73783C16.8002 8.16565 16.8002 8.7257 16.8002 9.84581V18.4458C16.8002 19.5659 16.8002 20.126 16.5822 20.5538C16.3904 20.9301 16.0845 21.2361 15.7082 21.4278C15.2803 21.6458 14.7203 21.6458 13.6002 21.6458H6.00018C4.88008 21.6458 4.32002 21.6458 3.8922 21.4278C3.51588 21.2361 3.20991 20.9301 3.01817 20.5538C2.80018 20.126 2.80018 19.5659 2.80018 18.4458V9.84581Z" fill="black"/>
<path d="M8.29175 2.57164C8.24608 2.59491 8.20145 2.61986 8.15793 2.64642L5.9078 2.64639C5.80334 2.64635 5.69429 2.64631 5.58262 2.6467C5.5995 2.61039 5.61718 2.57405 5.63571 2.53769C6.0192 1.78504 6.63112 1.17312 7.38377 0.789623C7.92662 0.513029 8.46609 0.424892 8.92327 0.387539C9.33957 0.353527 9.83113 0.353584 10.3359 0.353643L18.0635 0.353643C18.5683 0.353583 19.0599 0.353526 19.4762 0.38754C19.9334 0.424893 20.4728 0.513028 21.0157 0.789622C21.7683 1.17312 22.3803 1.78504 22.7638 2.53769C23.0404 3.08053 23.1285 3.62 23.1658 4.07719C23.1999 4.49352 23.1998 4.98511 23.1997 5.48989V14.2174C23.1998 14.7222 23.1999 15.2138 23.1658 15.6301C23.1285 16.0873 23.0404 16.6268 22.7638 17.1696C22.3803 17.9223 21.7683 18.5342 21.0157 18.9177C20.9434 18.9545 20.8712 18.988 20.7992 19.0185C20.8005 18.8527 20.8004 18.6911 20.8004 18.539L20.8004 16.5528C20.8687 16.4616 20.9295 16.3642 20.9817 16.2616C21.1997 15.8338 21.1997 15.2738 21.1997 14.1536V5.55365C21.1997 4.43354 21.1997 3.87349 20.9817 3.44567C20.79 3.06934 20.484 2.76338 20.1077 2.57164C19.6799 2.35365 19.1198 2.35365 17.9997 2.35365L10.3997 2.35365C9.27963 2.35365 8.71958 2.35365 8.29175 2.57164Z" fill="black"/>
</svg>
