<svg width="24" height="25" viewBox="0 0 24 25" fill="none" xmlns="http://www.w3.org/2000/svg">
<path fill-rule="evenodd" clip-rule="evenodd" d="M5.92766 4.29217C5.43156 4.29208 4.92101 4.29199 4.48362 4.32773C3.99552 4.36761 3.38292 4.46415 2.75784 4.78265C1.91111 5.21408 1.2227 5.90249 0.791269 6.74922C0.472774 7.3743 0.37623 7.98689 0.33635 8.475C0.300613 8.91239 0.300703 9.42294 0.30079 9.91903L0.30079 18.6653C0.300703 19.1614 0.300613 19.672 0.336349 20.1094C0.376229 20.5975 0.472774 21.2101 0.791269 21.8351C1.2227 22.6819 1.91111 23.3703 2.75784 23.8017C3.38292 24.1202 3.99552 24.2167 4.48362 24.2566C4.92102 24.2924 5.43157 24.2923 5.92768 24.2922H13.6739C14.17 24.2923 14.6806 24.2924 15.118 24.2566C15.6061 24.2167 16.2187 24.1202 16.8438 23.8017C17.6905 23.3703 18.3789 22.6819 18.8103 21.8351C19.1288 21.2101 19.2254 20.5975 19.2652 20.1094C19.301 19.672 19.3009 19.1614 19.3008 18.6653V9.91906C19.3009 9.42295 19.301 8.9124 19.2652 8.475C19.2254 7.98689 19.1288 7.3743 18.8103 6.74922C18.3789 5.90249 17.6905 5.21408 16.8438 4.78265C16.2187 4.46415 15.6061 4.36761 15.118 4.32773C14.6806 4.29199 14.17 4.29208 13.6739 4.29217L5.92766 4.29217ZM2.8008 9.99218C2.8008 8.87207 2.8008 8.31202 3.01879 7.8842C3.21053 7.50787 3.51649 7.20191 3.89282 7.01016C4.32064 6.79218 4.88069 6.79218 6.0008 6.79218L13.6008 6.79218C14.7209 6.79218 15.281 6.79218 15.7088 7.01016C16.0851 7.20191 16.3911 7.50787 16.5828 7.8842C16.8008 8.31202 16.8008 8.87207 16.8008 9.99218V18.5922C16.8008 19.7123 16.8008 20.2723 16.5828 20.7002C16.3911 21.0765 16.0851 21.3824 15.7088 21.5742C15.281 21.7922 14.7209 21.7922 13.6008 21.7922H6.0008C4.88069 21.7922 4.32064 21.7922 3.89282 21.5742C3.51649 21.3824 3.21053 21.0765 3.01879 20.7002C2.8008 20.2723 2.8008 19.7123 2.8008 18.5922V9.99218Z" fill="black"/>
<path d="M5.90406 2.29274C5.71073 2.29265 5.49757 2.29255 5.27737 2.29542C5.71161 1.5227 6.36521 0.894127 7.15739 0.490488C7.78247 0.171993 8.39507 0.0754487 8.88317 0.0355679C9.32056 -0.000168208 9.83111 -7.85925e-05 10.3272 9.11885e-06L18.0735 8.70166e-06C18.5696 -7.90631e-05 19.0801 -0.000168737 19.5175 0.0355673C20.0056 0.0754481 20.6182 0.171992 21.2433 0.490487C22.09 0.921918 22.7784 1.61033 23.2099 2.45706C23.5284 3.08214 23.6249 3.69474 23.6648 4.18284C23.7005 4.62024 23.7004 5.13079 23.7004 5.6269V14.3731C23.7004 14.8692 23.7005 15.3798 23.6648 15.8172C23.6249 16.3053 23.5284 16.9179 23.2099 17.543C22.7874 18.3722 22.1184 19.0496 21.2956 19.4825C21.3012 19.2039 21.3011 18.9314 21.301 18.6898V9.89584C21.3012 9.42444 21.3015 8.8355 21.2588 8.31273C21.246 8.15675 21.2281 7.9817 21.2003 7.79163V5.70002C21.2003 4.57991 21.2003 4.01986 20.9824 3.59204C20.7906 3.21571 20.4847 2.90975 20.1083 2.718C19.6805 2.50002 19.1205 2.50002 18.0003 2.50002H16.3688C15.9545 2.40362 15.5822 2.35957 15.281 2.33497C14.7583 2.29226 14.1694 2.29253 13.698 2.29274L5.90406 2.29274Z" fill="black"/>
</svg>
