<svg width="24" height="24" viewBox="0 0 24 24" fill="none" xmlns="http://www.w3.org/2000/svg">
<path fill-rule="evenodd" clip-rule="evenodd" d="M0.498047 6C0.498047 4.89543 1.39348 4 2.49805 4H21.498C22.6026 4 23.498 4.89543 23.498 6V7.88628C23.498 8.55765 23.2163 9.1982 22.7214 9.65186C21.3441 10.9144 21.3441 13.0856 22.7214 14.3481C23.2163 14.8018 23.498 15.4424 23.498 16.1137V18C23.498 19.1046 22.6026 20 21.498 20H2.49805C1.39348 20 0.498047 19.1046 0.498047 18V16.1137C0.498047 15.4424 0.779826 14.8018 1.27473 14.3481C2.652 13.0856 2.652 10.9144 1.27473 9.65186C0.779826 9.1982 0.498047 8.55765 0.498047 7.88628V6ZM16.3416 9.32234C16.7321 8.93182 16.7321 8.29865 16.3416 7.90813C15.951 7.5176 15.3179 7.5176 14.9274 7.90813L8.15813 14.6774C7.7676 15.0679 7.7676 15.701 8.15813 16.0916C8.54865 16.4821 9.18182 16.4821 9.57234 16.0916L16.3416 9.32234ZM9.48242 10.3555C10.1037 10.3555 10.6074 9.85179 10.6074 9.23047C10.6074 8.60915 10.1037 8.10547 9.48242 8.10547C8.8611 8.10547 8.35742 8.60915 8.35742 9.23047C8.35742 9.85179 8.8611 10.3555 9.48242 10.3555ZM16.1465 14.769C16.1465 15.3904 15.6428 15.894 15.0215 15.894C14.4002 15.894 13.8965 15.3904 13.8965 14.769C13.8965 14.1477 14.4002 13.644 15.0215 13.644C15.6428 13.644 16.1465 14.1477 16.1465 14.769Z" fill="black"/>
</svg>
