<svg width="24" height="24" viewBox="0 0 24 24" fill="none" xmlns="http://www.w3.org/2000/svg">
<path d="M15.988 8.96879C16.1833 8.77353 16.1833 8.45694 15.988 8.26168C15.7928 8.06642 15.4762 8.06642 15.2809 8.26168L8.51168 15.0309C8.31642 15.2262 8.31642 15.5428 8.51168 15.738C8.70694 15.9333 9.02353 15.9333 9.21879 15.738L15.988 8.96879Z" fill="black"/>
<path d="M9.48242 9.98047C9.89664 9.98047 10.2324 9.64468 10.2324 9.23047C10.2324 8.81626 9.89664 8.48047 9.48242 8.48047C9.06821 8.48047 8.73242 8.81626 8.73242 9.23047C8.73242 9.64468 9.06821 9.98047 9.48242 9.98047Z" fill="black"/>
<path d="M15.7676 14.769C15.7676 15.1833 15.4318 15.519 15.0176 15.519C14.6034 15.519 14.2676 15.1833 14.2676 14.769C14.2676 14.3548 14.6034 14.019 15.0176 14.019C15.4318 14.019 15.7676 14.3548 15.7676 14.769Z" fill="black"/>
<path fill-rule="evenodd" clip-rule="evenodd" d="M2.49805 4.5C1.66962 4.5 0.998047 5.17157 0.998047 6V7.88628C0.998047 8.4175 1.221 8.92433 1.61259 9.28329C3.20604 10.7439 3.20604 13.2561 1.61259 14.7167C1.221 15.0757 0.998047 15.5825 0.998047 16.1137V18C0.998047 18.8284 1.66962 19.5 2.49805 19.5H21.498C22.3265 19.5 22.998 18.8284 22.998 18V16.1137C22.998 15.5825 22.7751 15.0757 22.3835 14.7167C20.7901 13.2561 20.7901 10.7439 22.3835 9.28328C22.7751 8.92433 22.998 8.4175 22.998 7.88628V6C22.998 5.17157 22.3265 4.5 21.498 4.5H2.49805ZM1.99805 6C1.99805 5.72386 2.2219 5.5 2.49805 5.5H21.498C21.7742 5.5 21.998 5.72386 21.998 6V7.88628C21.998 8.13719 21.8927 8.37658 21.7078 8.54613C19.682 10.4031 19.682 13.5969 21.7078 15.4539C21.8927 15.6234 21.998 15.8628 21.998 16.1137V18C21.998 18.2761 21.7742 18.5 21.498 18.5H2.49805C2.2219 18.5 1.99805 18.2761 1.99805 18V16.1137C1.99805 15.8628 2.10336 15.6234 2.28832 15.4539C4.31414 13.5969 4.31414 10.4031 2.28832 8.54613C2.10336 8.37658 1.99805 8.13719 1.99805 7.88628V6Z" fill="black"/>
</svg>
