<svg width="24" height="24" viewBox="0 0 24 24" fill="none" xmlns="http://www.w3.org/2000/svg">
<path fill-rule="evenodd" clip-rule="evenodd" d="M0.248047 6C0.248047 4.75736 1.25541 3.75 2.49805 3.75H21.498C22.7407 3.75 23.748 4.75736 23.748 6V7.88628C23.748 8.62773 23.4369 9.33514 22.8903 9.83615C21.6211 10.9996 21.6211 13.0004 22.8903 14.1638C23.4369 14.6649 23.748 15.3723 23.748 16.1137V18C23.748 19.2426 22.7407 20.25 21.498 20.25H2.49805C1.25541 20.25 0.248047 19.2426 0.248047 18V16.1137C0.248047 15.3723 0.559238 14.6649 1.1058 14.1638C2.37497 13.0004 2.37497 10.9996 1.1058 9.83615C0.559238 9.33514 0.248047 8.62773 0.248047 7.88628V6ZM16.5183 9.49912C17.0065 9.01096 17.0065 8.21951 16.5183 7.73135C16.0302 7.2432 15.2387 7.2432 14.7506 7.73135L7.98135 14.5006C7.4932 14.9887 7.4932 15.7802 7.98135 16.2683C8.46951 16.7565 9.26096 16.7565 9.74912 16.2683L16.5183 9.49912ZM9.48242 10.7305C10.3108 10.7305 10.9824 10.0589 10.9824 9.23047C10.9824 8.40204 10.3108 7.73047 9.48242 7.73047C8.65399 7.73047 7.98242 8.40204 7.98242 9.23047C7.98242 10.0589 8.65399 10.7305 9.48242 10.7305ZM16.5215 14.769C16.5215 15.5975 15.8499 16.269 15.0215 16.269C14.1931 16.269 13.5215 15.5975 13.5215 14.769C13.5215 13.9406 14.1931 13.269 15.0215 13.269C15.8499 13.269 16.5215 13.9406 16.5215 14.769Z" fill="black"/>
</svg>
