<svg width="24" height="24" viewBox="0 0 24 24" fill="none" xmlns="http://www.w3.org/2000/svg">
<path fill-rule="evenodd" clip-rule="evenodd" d="M1.24805 6C1.24805 5.30964 1.80769 4.75 2.49805 4.75H21.498C22.1884 4.75 22.748 5.30964 22.748 6V7.88628C22.748 8.34742 22.5545 8.78739 22.2146 9.099C20.513 10.6587 20.513 13.3413 22.2146 14.901C22.5545 15.2126 22.748 15.6526 22.748 16.1137V18C22.748 18.6904 22.1884 19.25 21.498 19.25H2.49805C1.80769 19.25 1.24805 18.6904 1.24805 18V16.1137C1.24805 15.6526 1.44159 15.2126 1.78152 14.901C3.48307 13.3413 3.48307 10.6587 1.78152 9.099C1.44159 8.78739 1.24805 8.34742 1.24805 7.88628V6ZM15.8112 8.79201C15.9089 8.69438 15.9089 8.53609 15.8112 8.43846C15.7136 8.34083 15.5553 8.34083 15.4577 8.43846L8.68846 15.2077C8.59083 15.3053 8.59083 15.4636 8.68846 15.5612C8.78609 15.6589 8.94438 15.6589 9.04201 15.5612L15.8112 8.79201ZM9.48242 9.73047C9.75856 9.73047 9.98242 9.50661 9.98242 9.23047C9.98242 8.95433 9.75856 8.73047 9.48242 8.73047C9.20628 8.73047 8.98242 8.95433 8.98242 9.23047C8.98242 9.50661 9.20628 9.73047 9.48242 9.73047ZM15.5215 14.769C15.5215 15.0452 15.2976 15.269 15.0215 15.269C14.7453 15.269 14.5215 15.0452 14.5215 14.769C14.5215 14.4929 14.7453 14.269 15.0215 14.269C15.2976 14.269 15.5215 14.4929 15.5215 14.769Z" fill="black"/>
</svg>
