<svg width="24" height="24" viewBox="0 0 24 24" fill="none" xmlns="http://www.w3.org/2000/svg">
<path fill-rule="evenodd" clip-rule="evenodd" d="M0.748047 6C0.748047 5.0335 1.53155 4.25 2.49805 4.25H21.498C22.4645 4.25 23.248 5.0335 23.248 6V7.88628C23.248 8.48757 22.9957 9.06126 22.5524 9.46757C21.0671 10.8292 21.0671 13.1708 22.5524 14.5324C22.9957 14.9387 23.248 15.5124 23.248 16.1137V18C23.248 18.9665 22.4645 19.75 21.498 19.75H2.49805C1.53155 19.75 0.748047 18.9665 0.748047 18V16.1137C0.748047 15.5124 1.00041 14.9387 1.44366 14.5324C2.92902 13.1708 2.92902 10.8292 1.44366 9.46757C1.00041 9.06126 0.748047 8.48757 0.748047 7.88628V6ZM16.1648 9.14556C16.4577 8.85267 16.4577 8.3778 16.1648 8.0849C15.8719 7.79201 15.397 7.79201 15.1041 8.0849L8.3349 14.8541C8.04201 15.147 8.04201 15.6219 8.3349 15.9148C8.6278 16.2077 9.10267 16.2077 9.39556 15.9148L16.1648 9.14556ZM9.48242 10.2305C10.0347 10.2305 10.4824 9.78275 10.4824 9.23047C10.4824 8.67818 10.0347 8.23047 9.48242 8.23047C8.93014 8.23047 8.48242 8.67818 8.48242 9.23047C8.48242 9.78275 8.93014 10.2305 9.48242 10.2305ZM16.0215 14.769C16.0215 15.3213 15.5738 15.769 15.0215 15.769C14.4692 15.769 14.0215 15.3213 14.0215 14.769C14.0215 14.2168 14.4692 13.769 15.0215 13.769C15.5738 13.769 16.0215 14.2168 16.0215 14.769Z" fill="black"/>
</svg>
