<svg width="24" height="24" viewBox="0 0 24 24" fill="none" xmlns="http://www.w3.org/2000/svg">
<path d="M16.1648 9.14556C16.4577 8.85267 16.4577 8.3778 16.1648 8.0849C15.8719 7.79201 15.397 7.79201 15.1041 8.0849L8.3349 14.8541C8.04201 15.147 8.04201 15.6219 8.3349 15.9148C8.6278 16.2077 9.10267 16.2077 9.39556 15.9148L16.1648 9.14556Z" fill="black"/>
<path d="M9.48242 10.2305C10.0347 10.2305 10.4824 9.78275 10.4824 9.23047C10.4824 8.67818 10.0347 8.23047 9.48242 8.23047C8.93014 8.23047 8.48242 8.67818 8.48242 9.23047C8.48242 9.78275 8.93014 10.2305 9.48242 10.2305Z" fill="black"/>
<path d="M16.0215 14.769C16.0215 15.3213 15.5738 15.769 15.0215 15.769C14.4692 15.769 14.0215 15.3213 14.0215 14.769C14.0215 14.2168 14.4692 13.769 15.0215 13.769C15.5738 13.769 16.0215 14.2168 16.0215 14.769Z" fill="black"/>
<path fill-rule="evenodd" clip-rule="evenodd" d="M2.49805 4.25C1.53155 4.25 0.748047 5.0335 0.748047 6V7.88628C0.748047 8.48757 1.00041 9.06126 1.44366 9.46757C2.92902 10.8292 2.92902 13.1708 1.44366 14.5324C1.00041 14.9387 0.748047 15.5124 0.748047 16.1137V18C0.748047 18.9665 1.53155 19.75 2.49805 19.75H21.498C22.4645 19.75 23.248 18.9665 23.248 18V16.1137C23.248 15.5124 22.9957 14.9387 22.5524 14.5324C21.0671 13.1708 21.0671 10.8292 22.5524 9.46757C22.9957 9.06126 23.248 8.48757 23.248 7.88628V6C23.248 5.0335 22.4645 4.25 21.498 4.25H2.49805ZM2.24805 6C2.24805 5.86193 2.35998 5.75 2.49805 5.75H21.498C21.6361 5.75 21.748 5.86193 21.748 6V7.88628C21.748 8.06711 21.6721 8.23965 21.5388 8.36184C19.4049 10.3179 19.4049 13.6821 21.5388 15.6382C21.6721 15.7604 21.748 15.9329 21.748 16.1137V18C21.748 18.1381 21.6361 18.25 21.498 18.25H2.49805C2.35998 18.25 2.24805 18.1381 2.24805 18V16.1137C2.24805 15.9329 2.32394 15.7604 2.45725 15.6382C4.59116 13.6821 4.59116 10.3179 2.45725 8.36184C2.32394 8.23965 2.24805 8.06711 2.24805 7.88628V6Z" fill="black"/>
</svg>
