<svg width="24" height="24" viewBox="0 0 24 24" fill="none" xmlns="http://www.w3.org/2000/svg">
<path fill-rule="evenodd" clip-rule="evenodd" d="M1.25779 14.669C1.17746 13.9438 1.74593 13.3092 2.47557 13.3087C3.02431 13.3086 3.53928 13.0432 3.85838 12.5968L5.60545 10.1514C5.77034 9.92048 5.87682 9.65309 5.91697 9.37215C6.18008 7.53101 7.38657 5.98007 9.06932 5.25399C8.51851 4.36637 7.75214 3.62157 6.83201 3.09579L5.59959 2.39168C5.18997 2.15741 4.99984 1.66834 5.14353 1.21883C5.28736 0.769533 5.72585 0.481622 6.19529 0.528402L8.82615 0.791097C10.7383 0.98238 12.5258 1.82978 13.8847 3.18856L14.5469 3.85262C14.7292 3.63456 14.9328 3.4337 15.1572 3.25594L15.4385 3.05184C15.6769 2.89328 15.9499 2.76278 16.3906 2.57039L16.8926 2.3536C17.052 2.28524 17.1325 2.25122 17.2012 2.24227C17.4019 2.21633 17.5986 2.31372 17.6992 2.48934C17.7336 2.54944 17.7545 2.63243 17.7959 2.79793L17.8418 2.9825C17.997 3.60334 18.0748 3.91394 18.1054 4.20809C18.1903 5.02194 18.0329 5.83307 17.6679 6.54696L18.2119 6.89168C18.8674 7.30878 19.6544 7.46932 20.4209 7.34188C21.5892 7.14716 22.7021 7.91901 22.9394 9.07723C23.7747 13.1585 22.6752 17.4187 19.9541 20.5743L19.6748 20.8985C18.763 21.9554 17.1379 21.9938 16.1767 20.9815L13.8359 18.5177H4.71873C2.99221 18.5171 1.54143 17.219 1.35057 15.503L1.25779 14.669ZM15.8633 5.67879C15.9526 5.51315 16.0213 5.33784 16.0654 5.15535C15.9458 5.30173 15.8441 5.46253 15.7656 5.63582C15.7981 5.65013 15.8311 5.66374 15.8633 5.67879ZM9.90525 3.04598C10.6533 3.88429 11.2315 4.87172 11.5928 5.95516L11.7539 6.43953C11.798 6.57188 11.8126 6.70715 11.8017 6.83797C11.9122 6.86931 12.026 6.89234 12.1426 6.90535L12.4707 6.94149C12.8125 6.97955 13.1576 6.89803 13.4463 6.71102C13.4684 6.69665 13.4887 6.67952 13.5097 6.66414C13.5751 6.20738 13.6234 5.88729 13.6777 5.62703C13.5165 5.58257 13.364 5.49688 13.2373 5.3702L12.4707 4.60262C11.7487 3.88072 10.8666 3.35018 9.90525 3.04598ZM8.70506 9.88973C8.4127 10.1826 8.41244 10.6575 8.70506 10.9503C8.99781 11.2427 9.47278 11.2426 9.7656 10.9503L10.8125 9.9034C11.1051 9.6106 11.105 9.13572 10.8125 8.84286C10.5196 8.55013 10.0448 8.55017 9.75193 8.84286L8.70506 9.88973Z" fill="black"/>
</svg>
