<svg width="24" height="24" viewBox="0 0 24 24" fill="none" xmlns="http://www.w3.org/2000/svg">
<path d="M6.19562 0.52832L8.82648 0.791016C10.7164 0.980103 12.4833 1.81133 13.8362 3.14258C14.0157 2.93526 14.212 2.74164 14.4232 2.56445C15.0366 2.04988 15.8057 1.73171 16.9525 1.24023L17.2142 1.12793C17.4834 1.01269 17.7907 1.02124 18.053 1.15137C18.315 1.28161 18.5074 1.52084 18.5784 1.80469L18.8128 2.74023C18.9605 3.3312 19.0601 3.72345 19.0999 4.10449C19.1777 4.85109 19.091 5.59646 18.8577 6.29199C19.5357 6.53674 20.2704 6.60651 20.9915 6.48633L22.1536 6.29297C22.698 6.20271 23.2131 6.57096 23.304 7.11523C23.3945 7.65967 23.0261 8.17461 22.4818 8.26562L21.3206 8.45898C20.1423 8.65536 18.9401 8.50653 17.8538 8.04395C17.8095 8.09489 17.7655 8.1469 17.7191 8.19629C17.4564 8.47537 17.1393 8.72673 16.6634 9.10742L16.6624 9.10547C16.2365 9.44661 15.6151 9.38416 15.2669 8.96191C14.916 8.53559 14.9764 7.90475 15.4026 7.55371C15.4061 7.55086 15.4099 7.54772 15.4134 7.54492C15.9366 7.12639 16.1204 6.97679 16.263 6.8252C16.8973 6.15063 17.2076 5.23252 17.1116 4.31152C17.0925 4.12835 17.045 3.92706 16.9222 3.43262C16.2623 3.72521 15.9566 3.8884 15.7083 4.09668C15.3512 4.39641 15.0641 4.77157 14.8675 5.19434C14.684 5.58923 14.6065 6.06237 14.4124 7.4209C14.3342 7.96735 13.8271 8.34737 13.2806 8.26953C12.734 8.19136 12.354 7.68427 12.4319 7.1377C12.5613 6.23242 12.6543 5.54707 12.8275 4.95996L12.471 4.60254C11.749 3.88058 10.867 3.35012 9.90558 3.0459C10.6536 3.88419 11.2318 4.87166 11.5931 5.95508L11.7542 6.43945C11.9288 6.96328 11.6451 7.53033 11.1214 7.70508C10.5976 7.87938 10.0314 7.59599 9.85675 7.07227L9.69562 6.58789C9.67197 6.51699 9.6455 6.44676 9.61945 6.37695C8.30463 6.92152 7.36063 8.12151 7.15656 9.54883C7.0881 10.028 6.90459 10.484 6.62335 10.8779L4.87726 13.3232C4.32893 14.0908 3.44634 14.5486 2.50421 14.5576L2.59406 15.3643C2.71447 16.4477 3.62998 17.2674 4.72003 17.2676H13.595L13.8939 17.0283C14.9476 16.1851 15.5618 14.9082 15.5618 13.5586C15.5621 13.0065 16.0097 12.5587 16.5618 12.5586C17.1137 12.5589 17.5616 13.0067 17.5618 13.5586C17.5618 15.3977 16.7751 17.1429 15.4124 18.3613L18.6898 21.8115C19.0697 22.2119 19.0526 22.8453 18.6526 23.2256C18.2522 23.6057 17.6188 23.5888 17.2386 23.1885L13.5159 19.2676H4.72003C2.61089 19.2674 0.838726 17.6812 0.605774 15.585L0.513 14.752C0.383263 13.5821 1.29984 12.5586 2.47687 12.5586C2.7834 12.5583 3.07113 12.4096 3.24933 12.1602L4.9964 9.71582C5.09139 9.58264 5.15295 9.42757 5.17609 9.26562C5.46886 7.21803 6.78144 5.48191 8.62531 4.62793C8.13262 4.01462 7.52666 3.49246 6.83234 3.0957L5.59991 2.3916C5.1902 2.15741 5.00024 1.66829 5.14386 1.21875C5.28782 0.769576 5.72622 0.481444 6.19562 0.52832ZM9.5755 8.66504C9.96597 8.27514 10.5992 8.27499 10.9896 8.66504C11.3797 9.0554 11.3795 9.68859 10.9896 10.0791L9.94269 11.126C9.55221 11.5163 8.91911 11.5163 8.52863 11.126C8.13846 10.7355 8.13837 10.1024 8.52863 9.71191L9.5755 8.66504Z" fill="black"/>
</svg>
