<svg width="24" height="24" viewBox="0 0 24 24" fill="none" xmlns="http://www.w3.org/2000/svg">
<path d="M6.14844 1.00293L8.7793 1.26562C10.5819 1.44605 12.2678 2.24438 13.5488 3.52539L13.8828 3.86035C14.1216 3.51448 14.4058 3.20032 14.7295 2.92871C15.2762 2.47014 15.9656 2.1799 17.1396 1.67676L17.4023 1.56445L17.5107 1.53223C17.6214 1.51136 17.7381 1.52629 17.8408 1.57715C17.9777 1.64526 18.078 1.77069 18.1152 1.91895L18.3496 2.85449C18.5009 3.45967 18.5905 3.81372 18.626 4.15332C18.713 4.98849 18.5739 5.82187 18.2373 6.57129C19.1138 6.99478 20.1042 7.14085 21.0732 6.97949L22.2354 6.78613C22.5074 6.74119 22.7651 6.92523 22.8105 7.19727C22.8554 7.46917 22.6712 7.72684 22.3994 7.77246L21.2383 7.96582C20.038 8.16576 18.8097 7.97765 17.7305 7.4375C17.6201 7.58703 17.5009 7.73125 17.3721 7.86816C17.1389 8.11598 16.854 8.34143 16.3701 8.72852C16.1473 8.91184 15.8186 8.88051 15.6348 8.6582C15.4744 8.46305 15.478 8.18542 15.6309 7.99609L15.7109 7.91602C16.2228 7.50649 16.4381 7.33335 16.6094 7.15137C17.339 6.37583 17.6953 5.32077 17.585 4.26172C17.559 4.01326 17.4929 3.74418 17.334 3.1084L17.249 2.76953C16.2305 3.208 15.7681 3.4237 15.4023 3.73047C14.9917 4.07509 14.6606 4.50606 14.4346 4.99219C14.2143 5.46609 14.1294 6.02317 13.9395 7.35254C13.8986 7.63844 13.6335 7.83747 13.3477 7.79688C13.0619 7.75575 12.8635 7.48999 12.9043 7.2041C13.0596 6.11687 13.1569 5.4173 13.3721 4.83105L12.8086 4.26562C11.6984 3.15544 10.237 2.46401 8.6748 2.30762L8.35645 2.27539C9.65052 3.23114 10.6272 4.56624 11.1406 6.10645L11.3027 6.59082C11.3935 6.86459 11.2453 7.16146 10.9717 7.25293C10.6978 7.34422 10.4013 7.19549 10.3096 6.92188L10.1484 6.4375C10.0705 6.20379 9.9778 5.97592 9.87598 5.75391L9.83105 5.76758C8.14556 6.28659 6.91065 7.73262 6.66113 9.47852C6.60389 9.8781 6.45137 10.2594 6.2168 10.5879L4.46973 13.0322C4.00995 13.6755 3.26728 14.0583 2.47656 14.0586C2.19371 14.0588 1.97285 14.3048 2.00391 14.5859L2.09668 15.4199C2.24552 16.7561 3.37532 17.7672 4.71973 17.7676H13.7324L14.1914 17.4004C15.3583 16.4667 16.0379 15.053 16.0381 13.5586C16.0381 13.2697 16.2726 13.0353 16.5615 13.0352C16.8503 13.0354 17.085 13.2697 17.085 13.5586C17.0848 15.3709 16.2608 17.0855 14.8457 18.2178L14.6982 18.3359L18.3262 22.1562C18.5159 22.3564 18.5084 22.6732 18.3086 22.8633C18.1085 23.0528 17.7916 23.0443 17.6016 22.8447L13.7305 18.7676H4.71973C2.86573 18.7672 1.30761 17.3729 1.10254 15.5303L1.00977 14.6963C0.912962 13.8228 1.59774 13.0588 2.47656 13.0586C2.94433 13.0583 3.38419 12.8317 3.65625 12.4512L5.40234 10.0059C5.54375 9.80771 5.63634 9.57788 5.6709 9.33691C5.96751 7.2613 7.40733 5.53617 9.38379 4.86426C8.79919 3.97159 8.00989 3.22023 7.06934 2.68262L5.83691 1.97754C5.62268 1.85499 5.52362 1.59938 5.59863 1.36426C5.67383 1.12909 5.90278 0.9785 6.14844 1.00293ZM9.91309 9.00195C10.1175 8.79809 10.4491 8.79777 10.6533 9.00195C10.8569 9.20619 10.857 9.53799 10.6533 9.74219L9.60645 10.7891C9.40228 10.993 9.07055 10.9928 8.86621 10.7891C8.66192 10.5848 8.66203 10.2532 8.86621 10.0488L9.91309 9.00195Z" fill="black"/>
</svg>
