<svg width="24" height="24" viewBox="0 0 24 24" fill="none" xmlns="http://www.w3.org/2000/svg">
<path d="M6.2193 0.280273L8.85016 0.543945C10.7104 0.729969 12.4554 1.5191 13.8228 2.78516C13.9608 2.64049 14.1075 2.50312 14.2613 2.37402C14.9097 1.82993 15.7206 1.49607 16.8531 1.01074L17.1148 0.898438L17.2437 0.852539C17.5468 0.760265 17.8757 0.785641 18.1627 0.927734C18.4907 1.09052 18.7311 1.38982 18.8199 1.74512L19.0543 2.68066C19.2002 3.26422 19.3062 3.67634 19.3482 4.0791C19.4209 4.77678 19.3565 5.47327 19.1685 6.13281C19.7418 6.30179 20.351 6.3409 20.9498 6.24121L22.1119 6.04688C22.7926 5.93375 23.4368 6.39453 23.5504 7.0752C23.6632 7.75573 23.2026 8.40017 22.522 8.51367L21.3609 8.70703C20.1955 8.90115 19.0067 8.77189 17.9214 8.34473C17.9146 8.35215 17.9079 8.36081 17.9009 8.36816C17.6234 8.66301 17.2886 8.92694 16.8189 9.30273L16.8179 9.30176C16.2855 9.72763 15.5079 9.64986 15.0728 9.12207C14.6343 8.58948 14.7107 7.8013 15.2427 7.3623L15.2574 7.35059C15.7855 6.92811 15.9521 6.7907 16.0797 6.65527C16.6645 6.03369 16.9502 5.18774 16.8619 4.33887C16.8486 4.21194 16.8183 4.07386 16.7496 3.78809C16.2861 4.00126 16.0574 4.13074 15.8687 4.28906C15.5397 4.56531 15.2744 4.9112 15.0933 5.30078C14.9292 5.65417 14.8549 6.08367 14.6588 7.45703C14.5608 8.14002 13.9278 8.61513 13.2447 8.51758C12.5618 8.41976 12.087 7.78649 12.1841 7.10352C12.3018 6.28025 12.3923 5.61643 12.5474 5.03613L12.2935 4.78027C11.8209 4.30772 11.2767 3.92042 10.6861 3.62891C11.1715 4.31309 11.5591 5.06926 11.8287 5.87793L11.9908 6.36133C12.2089 7.0162 11.8546 7.72507 11.1998 7.94336C10.5453 8.16077 9.83697 7.80671 9.61871 7.15234L9.47418 6.71875C8.36688 7.27059 7.58165 8.33455 7.40289 9.58496C7.32868 10.1037 7.13028 10.598 6.82574 11.0244L5.07965 13.4697C4.5383 14.227 3.69671 14.7055 2.77985 14.793L2.84137 15.3379C2.94792 16.2943 3.75704 17.0181 4.7193 17.0186H13.5054L13.7369 16.834C14.7315 16.0383 15.3109 14.8333 15.3111 13.5596C15.3111 12.8694 15.871 12.3099 16.5611 12.3096C17.2514 12.3097 17.8111 12.8693 17.8111 13.5596C17.8109 15.3835 17.0654 17.1173 15.7662 18.3721L18.8697 21.6406C19.3448 22.1412 19.3242 22.9329 18.8238 23.4082C18.3232 23.8824 17.5323 23.8622 17.0572 23.3623L13.4078 19.5186H4.7193C2.48326 19.5181 0.604351 17.8366 0.356995 15.6143L0.264221 14.7803C0.117917 13.4625 1.15028 12.3099 2.47614 12.3096L2.56012 12.3047C2.75346 12.2812 2.93053 12.1769 3.04547 12.0166L4.79156 9.57129C4.86329 9.4708 4.91071 9.35364 4.92828 9.23145C5.21733 7.20898 6.46239 5.47875 8.22809 4.54688C7.79453 4.06075 7.28248 3.64297 6.70758 3.31445L5.47516 2.60938C4.96345 2.31663 4.72569 1.70519 4.90485 1.14355C5.08448 0.582067 5.63273 0.222191 6.2193 0.280273ZM9.39801 8.48926C9.88607 8.00139 10.6775 8.0015 11.1656 8.48926C11.6535 8.97737 11.6535 9.76872 11.1656 10.2568L10.1187 11.3037C9.63056 11.7911 8.83908 11.7915 8.35114 11.3037C7.86355 10.8158 7.86377 10.0242 8.35114 9.53613L9.39801 8.48926Z" fill="black"/>
</svg>
