<svg width="24" height="24" viewBox="0 0 24 24" fill="none" xmlns="http://www.w3.org/2000/svg">
<path d="M8.75159 1.53809C10.4914 1.71216 12.1186 2.48243 13.3551 3.71875L13.9293 4.29492C14.1857 3.85801 14.5154 3.46651 14.9049 3.13965C15.4134 2.71307 16.0571 2.43952 17.2467 1.92969L17.5094 1.81738L17.5612 1.80078C17.6139 1.79081 17.6694 1.79907 17.7184 1.82324C17.7838 1.8557 17.8323 1.91553 17.8502 1.98633L18.0836 2.92188C18.2369 3.53508 18.3211 3.86682 18.3541 4.18262C18.4444 5.04932 18.2753 5.91353 17.8844 6.67285C18.8648 7.21485 20.0031 7.41253 21.1139 7.22754L22.276 7.0332C22.412 7.01066 22.5412 7.1034 22.5641 7.23926C22.5863 7.37516 22.4939 7.50368 22.358 7.52637L21.1959 7.7207C19.9695 7.92492 18.7127 7.70541 17.6315 7.10449C17.4957 7.308 17.3426 7.50181 17.1725 7.68262C16.9552 7.91352 16.688 8.1249 16.1959 8.51855C16.0895 8.60596 15.9331 8.59145 15.8453 8.48535C15.758 8.37881 15.7722 8.22047 15.8785 8.13281L15.8815 8.13086C16.3869 7.72648 16.6206 7.53925 16.8082 7.33984C17.5923 6.50639 17.9747 5.37252 17.8561 4.23438C17.8276 3.96213 17.7562 3.67079 17.5992 3.04297L17.4362 2.3916C16.2229 2.91157 15.6638 3.15533 15.2262 3.52246C14.785 3.8927 14.4301 4.35569 14.1871 4.87793C13.9458 5.39702 13.856 6.00234 13.6686 7.31445C13.6491 7.45106 13.5229 7.54673 13.3864 7.52734C13.2498 7.50768 13.1549 7.38073 13.1744 7.24414C13.3478 6.03051 13.4447 5.34516 13.692 4.76465L13.0016 4.07227C11.8467 2.91756 10.3268 2.19775 8.70178 2.03516L7.23987 1.88867L7.45276 2.01074C9.07072 2.93535 10.292 4.42459 10.8815 6.19238L11.0426 6.67676C11.0862 6.80756 11.015 6.94929 10.8844 6.99316C10.7535 7.03662 10.6126 6.96585 10.569 6.83496L10.4069 6.35059C10.3029 6.03887 10.1764 5.73663 10.0319 5.44531L9.75745 5.5293C7.9793 6.07657 6.67611 7.60166 6.41272 9.44336C6.36118 9.80348 6.22373 10.1473 6.01233 10.4434L4.26624 12.8877C3.85331 13.4655 3.18639 13.8094 2.4762 13.8096C2.04444 13.8098 1.70828 14.1852 1.75549 14.6143L1.84729 15.4482C2.01011 16.9111 3.24744 18.0182 4.71936 18.0186H13.8561L14.3619 17.6143C15.5937 16.6287 16.3112 15.1362 16.3112 13.5586C16.3116 13.4209 16.4234 13.3087 16.5612 13.3086C16.6989 13.3086 16.8107 13.4209 16.8112 13.5586C16.8112 15.2881 16.0248 16.9244 14.6744 18.0049L14.3121 18.2939L18.1451 22.3291C18.2398 22.4292 18.2352 22.5876 18.1354 22.6826C18.0353 22.7771 17.8768 22.7735 17.7819 22.6738L13.8365 18.5186H4.71936C2.99279 18.5182 1.54233 17.2198 1.3512 15.5039L1.25842 14.6699C1.17811 13.9445 1.74633 13.3098 2.4762 13.3096C3.0248 13.3094 3.53992 13.0439 3.85901 12.5977L5.60608 10.1523C5.77075 9.92158 5.8774 9.65367 5.9176 9.37305C6.20828 7.33956 7.64767 5.65597 9.61096 5.05176L9.78772 4.99805C9.16683 3.9447 8.28107 3.06042 7.20471 2.44531L5.97229 1.74023C5.87009 1.6816 5.82214 1.55954 5.85803 1.44727C5.89417 1.33551 6.00381 1.26301 6.12073 1.27441L8.75159 1.53809ZM10.1061 9.19629C10.2037 9.09921 10.3621 9.09909 10.4596 9.19629C10.5565 9.29381 10.5566 9.45232 10.4596 9.5498L9.41272 10.5967C9.31526 10.694 9.15682 10.6937 9.0592 10.5967C8.96191 10.4991 8.96184 10.3407 9.0592 10.2432L10.1061 9.19629Z" fill="black"/>
</svg>
