<svg width="24" height="24" viewBox="0 0 24 24" fill="none" xmlns="http://www.w3.org/2000/svg">
<path d="M6.16992 0.777132L8.80078 1.03983C10.6557 1.22532 12.3898 2.04692 13.708 3.36502L13.8555 3.51444C14.0702 3.23761 14.314 2.98314 14.584 2.75662C15.1625 2.2712 15.8894 1.96725 17.0508 1.46952L17.3125 1.35721L17.3896 1.32889C17.5716 1.27358 17.7692 1.28939 17.9414 1.37479C18.1381 1.47249 18.2827 1.65195 18.3359 1.86502L18.5693 2.80057C18.719 3.39921 18.8141 3.7712 18.8516 4.13065C18.9339 4.9214 18.8223 5.71025 18.54 6.43436C19.3209 6.76694 20.1852 6.87429 21.0322 6.73319L22.1943 6.53885C22.6026 6.47115 22.9894 6.74781 23.0576 7.15604C23.1253 7.56425 22.8486 7.95111 22.4404 8.01932L21.2793 8.21268C20.087 8.41137 18.8683 8.24268 17.7822 7.74002C17.704 7.83701 17.6232 7.93273 17.5371 8.0242C17.2894 8.28742 16.9888 8.52633 16.5068 8.9119L16.5059 8.91092C16.1864 9.16635 15.72 9.11915 15.459 8.80252C15.1959 8.48282 15.2419 8.01014 15.5615 7.74686L15.5693 7.74002C16.0866 7.32621 16.2867 7.16436 16.4443 6.99686C17.1288 6.26934 17.4628 5.27946 17.3594 4.28592C17.3355 4.0571 17.2749 3.80658 17.1143 3.16385L17.0937 3.08475C16.2426 3.45471 15.8568 3.64586 15.5478 3.90506C15.1626 4.22839 14.8527 4.63257 14.6406 5.08866C14.4378 5.525 14.356 6.04206 14.1641 7.38553C14.1053 7.79525 13.7252 8.08066 13.3154 8.02225C12.9057 7.96355 12.6215 7.58334 12.6797 7.17362C12.8219 6.178 12.9181 5.48016 13.1113 4.89139L12.6475 4.42557C11.7425 3.52071 10.5968 2.90425 9.35449 2.64237L9.10449 2.59452C10.1314 3.52157 10.9118 4.70315 11.3555 6.03397L11.5166 6.51834C11.6474 6.91125 11.4349 7.3366 11.042 7.46756C10.6493 7.59814 10.2247 7.3856 10.0937 6.99295L9.93261 6.50858C9.88146 6.35512 9.82266 6.20479 9.76074 6.05643C8.24199 6.58325 7.13686 7.91374 6.9082 9.51346C6.84535 9.9527 6.67771 10.3711 6.41992 10.7322L4.67382 13.1775C4.16708 13.8868 3.34823 14.3082 2.47656 14.3084C2.34252 14.3084 2.23828 14.4252 2.25292 14.5584L2.34472 15.3924C2.4795 16.602 3.50253 17.5172 4.71972 17.5174H13.6826L14.0498 17.2234C15.163 16.3327 15.8115 14.984 15.8115 13.5584C15.8115 13.1442 16.1474 12.8084 16.5615 12.8084C16.9755 12.8086 17.3115 13.1443 17.3115 13.5584C17.3115 15.4123 16.4797 17.1661 15.0498 18.3416L18.5078 21.9832C18.7927 22.2834 18.7803 22.7585 18.4805 23.0437C18.1801 23.3287 17.7051 23.3166 17.4199 23.0164L13.623 19.0174H4.71972C2.73808 19.0172 1.07349 17.5269 0.854487 15.5574L0.761713 14.7234C0.64861 13.7018 1.44865 12.8084 2.47656 12.8084C2.8638 12.8082 3.22794 12.6205 3.45312 12.3055L5.19921 9.86112C5.31743 9.69549 5.39492 9.50297 5.42382 9.30155C5.71939 7.23343 7.10041 5.49795 9.01855 4.73221C8.47443 3.9812 7.77428 3.34627 6.95605 2.87869L5.72363 2.17459C5.41645 1.99893 5.27321 1.6318 5.38085 1.29471C5.48859 0.957689 5.81788 0.742226 6.16992 0.777132ZM9.75195 8.84159C10.0448 8.54908 10.5197 8.5491 10.8125 8.84159C11.105 9.13441 11.105 9.60931 10.8125 9.90213L9.76562 10.949C9.4728 11.2415 8.9979 11.2415 8.70507 10.949C8.41258 10.6562 8.41256 10.1813 8.70507 9.88846L9.75195 8.84159Z" fill="black"/>
</svg>
