<svg width="24" height="24" viewBox="0 0 24 24" fill="none" xmlns="http://www.w3.org/2000/svg">
<path fill-rule="evenodd" clip-rule="evenodd" d="M0.858541 11.7813C0.419569 11.4883 0.349751 10.8614 0.729634 10.4815L1.70424 9.50784C2.17195 9.04023 2.75642 8.71707 3.38881 8.5635C2.46587 7.51002 2.02135 6.10233 2.19838 4.68558L2.30092 3.86526C2.33624 3.58295 2.49293 3.32976 2.72963 3.1719C3.38027 2.73845 4.25176 3.20459 4.25209 3.98636L4.2521 4.11038C4.2521 5.16385 5.18186 5.97597 6.22573 5.83401L9.64272 5.36819C9.65588 5.36458 9.66956 5.36291 9.68276 5.3594C9.69459 5.35626 9.70605 5.35171 9.71792 5.34866C9.72751 5.34619 9.73759 5.34521 9.74721 5.3428C9.8412 5.31927 9.93627 5.29914 10.0324 5.28128C10.069 5.27443 10.1058 5.26874 10.1427 5.26272C10.2078 5.2522 10.2731 5.24229 10.339 5.2344C10.3693 5.23074 10.3994 5.2248 10.4298 5.22171C10.4573 5.21891 10.4852 5.21816 10.5128 5.21585C10.5492 5.21282 10.5856 5.20928 10.6222 5.20706C10.7214 5.20109 10.8213 5.1973 10.922 5.19729L13.0802 5.19729C13.0965 5.19729 13.1128 5.19911 13.129 5.19925L13.13 5.19729C13.1718 5.1973 13.2135 5.20015 13.255 5.2012C13.2795 5.20202 13.3039 5.20192 13.3283 5.20315C13.3308 5.20328 13.3335 5.20399 13.3361 5.20413C13.7061 5.21952 14.0656 5.27371 14.4093 5.36819L17.8263 5.83401C18.8702 5.97597 19.7999 5.16385 19.7999 4.11038V3.98636C19.8003 3.20452 20.6718 2.73825 21.3224 3.1719C21.5591 3.32976 21.7158 3.58294 21.7511 3.86526L21.8537 4.68557C22.031 6.1046 21.5843 7.51435 20.6583 8.56839C21.2824 8.72408 21.8592 9.0456 22.3214 9.50784L23.296 10.4815C23.6757 10.8614 23.605 11.4884 23.1662 11.7813L21.8908 12.6319C20.7649 13.3822 19.3116 13.4317 18.1369 12.7608L17.3976 12.3399L16.0587 15.5528C15.5872 15.1454 15.03 14.83 14.4201 14.6699L14.3136 14.6426C12.7978 14.2451 11.2045 14.2445 9.68862 14.6416L9.57924 14.6709C8.96915 14.8309 8.41159 15.1457 7.94057 15.5528L6.60756 12.3506L5.88881 12.7608C4.71385 13.4321 3.26004 13.3826 2.13393 12.6319L0.858541 11.7813ZM18.88 11.458C19.5616 11.8473 20.4057 11.819 21.0587 11.3838L21.6681 10.9756L21.2609 10.5684C20.8721 10.1796 20.3444 9.9611 19.7951 9.96097H18.4191C18.4193 9.97847 18.4201 9.99614 18.4201 10.0137C18.4201 10.3908 18.385 10.7667 18.3165 11.1358L18.88 11.458ZM13.6027 12.9756C13.6028 13.3895 13.9388 13.7253 14.3527 13.7256C14.7668 13.7256 15.1025 13.3897 15.1027 12.9756C15.1027 12.5616 14.7676 12.2259 14.3537 12.2256C13.9395 12.2257 13.6027 12.5614 13.6027 12.9756ZM8.8976 12.9756C8.89767 13.3896 9.23365 13.7254 9.6476 13.7256C10.0618 13.7256 10.3975 13.3898 10.3976 12.9756C10.3976 12.5614 10.0618 12.2256 9.6476 12.2256C9.23361 12.2259 8.8976 12.5616 8.8976 12.9756ZM2.96596 11.3828C3.61922 11.8183 4.46285 11.8476 5.14467 11.458L5.70815 11.1358C5.63971 10.7667 5.60465 10.3907 5.60463 10.0137C5.60464 9.99614 5.60543 9.97847 5.60561 9.96097H4.23061L4.02553 9.97073C3.61878 10.0111 3.23249 10.1714 2.91616 10.4307L2.76479 10.5684L2.35561 10.9766L2.96596 11.3828Z" fill="black"/>
<path fill-rule="evenodd" clip-rule="evenodd" d="M8.13198 20.3467C7.64227 19.6119 7.52758 18.6927 7.81362 17.8643L7.87612 17.7002C8.20606 16.9087 8.91515 16.2047 9.73159 15.9287L9.89663 15.8799L10.006 15.8506C11.3139 15.5081 12.6885 15.5087 13.9962 15.8516L14.1027 15.8789C14.9878 16.1112 15.7741 16.8556 16.1261 17.7002L16.1886 17.8643C16.4748 18.6928 16.3591 19.6128 15.8693 20.3477L15.7414 20.5264C15.0782 21.3979 14.0431 21.9149 12.9396 21.9151H11.0626C9.8853 21.9149 8.78516 21.3263 8.13198 20.3467ZM12.6623 19.0918C12.6623 19.506 12.9981 19.8418 13.4123 19.8418C13.8264 19.8418 14.1623 19.506 14.1623 19.0918C14.1621 18.6778 13.8263 18.3419 13.4123 18.3418C12.9982 18.3419 12.6625 18.6778 12.6623 19.0918ZM9.83901 19.0918C9.83901 19.506 10.1748 19.8418 10.589 19.8418C11.0032 19.8418 11.339 19.506 11.339 19.0918C11.3388 18.6778 11.0031 18.3418 10.589 18.3418C10.175 18.3419 9.83921 18.6778 9.83901 19.0918Z" fill="black"/>
</svg>
