<svg width="24" height="24" viewBox="0 0 24 24" fill="none" xmlns="http://www.w3.org/2000/svg">
<path d="M6.21924 0.280273L8.8501 0.543945C10.7103 0.729969 12.4553 1.5191 13.8228 2.78516C13.9607 2.64049 14.1074 2.50312 14.2612 2.37402C14.9096 1.82993 15.7206 1.49607 16.853 1.01074L17.1147 0.898438L17.2437 0.852539C17.5467 0.760265 17.8757 0.785641 18.1626 0.927734C18.4906 1.09052 18.731 1.38982 18.8198 1.74512L19.0542 2.68066C19.2001 3.26422 19.3061 3.67634 19.3481 4.0791C19.4208 4.77678 19.3564 5.47327 19.1685 6.13281C19.7417 6.30179 20.3509 6.3409 20.9497 6.24121L22.1118 6.04688C22.7925 5.93375 23.4367 6.39453 23.5503 7.0752C23.6631 7.75573 23.2025 8.40017 22.522 8.51367L21.3608 8.70703C20.1954 8.90115 19.0066 8.77189 17.9214 8.34473C17.9145 8.35215 17.9078 8.36081 17.9009 8.36816C17.6233 8.66301 17.2886 8.92694 16.8188 9.30273L16.8179 9.30176C16.2854 9.72763 15.5078 9.64986 15.0728 9.12207C14.6342 8.58948 14.7107 7.8013 15.2427 7.3623L15.2573 7.35059C15.7854 6.92811 15.952 6.7907 16.0796 6.65527C16.6644 6.03369 16.9501 5.18774 16.8618 4.33887C16.8486 4.21194 16.8182 4.07386 16.7495 3.78809C16.286 4.00126 16.0574 4.13074 15.8687 4.28906C15.5396 4.56531 15.2744 4.9112 15.0933 5.30078C14.9292 5.65417 14.8549 6.08367 14.6587 7.45703C14.5607 8.14002 13.9278 8.61513 13.2446 8.51758C12.5617 8.41976 12.0869 7.78649 12.1841 7.10352C12.3017 6.28025 12.3922 5.61643 12.5474 5.03613L12.2935 4.78027C11.8209 4.30772 11.2766 3.92042 10.686 3.62891C11.1714 4.31309 11.5591 5.06926 11.8286 5.87793L11.9907 6.36133C12.2089 7.0162 11.8546 7.72507 11.1997 7.94336C10.5452 8.16077 9.8369 7.80671 9.61865 7.15234L9.47412 6.71875C8.36682 7.27059 7.58159 8.33455 7.40283 9.58496C7.32861 10.1037 7.13022 10.598 6.82568 11.0244L5.07959 13.4697C4.53824 14.227 3.69665 14.7055 2.77979 14.793L2.84131 15.3379C2.94786 16.2943 3.75698 17.0181 4.71924 17.0186H13.5054L13.7368 16.834C14.7315 16.0383 15.3109 14.8333 15.311 13.5596C15.311 12.8694 15.871 12.3099 16.561 12.3096C17.2513 12.3097 17.811 12.8693 17.811 13.5596C17.8109 15.3835 17.0654 17.1173 15.7661 18.3721L18.8696 21.6406C19.3448 22.1412 19.3242 22.9329 18.8237 23.4082C18.3232 23.8824 17.5322 23.8622 17.0571 23.3623L13.4077 19.5186H4.71924C2.4832 19.5181 0.60429 17.8366 0.356934 15.6143L0.26416 14.7803C0.117856 13.4625 1.15022 12.3099 2.47607 12.3096L2.56006 12.3047C2.7534 12.2812 2.93047 12.1769 3.04541 12.0166L4.7915 9.57129C4.86323 9.4708 4.91065 9.35364 4.92822 9.23145C5.21727 7.20898 6.46233 5.47875 8.22803 4.54688C7.79447 4.06075 7.28242 3.64297 6.70752 3.31445L5.4751 2.60938C4.96339 2.31663 4.72563 1.70519 4.90479 1.14355C5.08442 0.582067 5.63267 0.222191 6.21924 0.280273ZM9.39795 8.48926C9.886 8.00139 10.6774 8.0015 11.1655 8.48926C11.6535 8.97737 11.6535 9.76872 11.1655 10.2568L10.1187 11.3037C9.6305 11.7911 8.83902 11.7915 8.35107 11.3037C7.86349 10.8158 7.86371 10.0242 8.35107 9.53613L9.39795 8.48926Z" fill="black"/>
</svg>
