<svg width="24" height="24" viewBox="0 0 24 24" fill="none" xmlns="http://www.w3.org/2000/svg">
<path fill-rule="evenodd" clip-rule="evenodd" d="M1.25758 14.6683C1.17725 13.943 1.74572 13.3084 2.47535 13.3079C3.0241 13.3078 3.53907 13.0424 3.85816 12.596L5.60524 10.1507C5.77012 9.91974 5.8766 9.65235 5.91676 9.37141C6.19195 7.44569 7.49853 5.83621 9.30348 5.15755C8.72934 4.21911 7.92469 3.43189 6.95582 2.87825L5.7234 2.17415C5.41625 1.99842 5.27286 1.63136 5.38063 1.29426C5.48839 0.957335 5.81772 0.741834 6.16969 0.776686L8.80055 1.03938C10.6554 1.22486 12.3896 2.04654 13.7078 3.36458L14.3914 4.05012C14.6102 3.75398 14.8662 3.4855 15.157 3.2552L15.4382 3.0511C15.6767 2.89254 15.9497 2.76204 16.3904 2.56965L16.8923 2.35286C17.0518 2.28451 17.1323 2.25048 17.2009 2.24153C17.4016 2.21559 17.5983 2.31298 17.699 2.4886C17.7334 2.5487 17.7543 2.63169 17.7957 2.79719L17.8416 2.98176C17.9968 3.6026 18.0745 3.9132 18.1052 4.20735C18.1901 5.0212 18.0327 5.83233 17.6677 6.54622L18.2117 6.89094C18.8672 7.30804 19.6542 7.46858 20.4207 7.34114C21.589 7.14642 22.7019 7.91828 22.9392 9.07649C23.7745 13.1578 22.675 17.418 19.9539 20.5736L19.6746 20.8978C18.7628 21.9547 17.1377 21.9931 16.1765 20.9808L13.8357 18.5169H4.71852C2.99199 18.5163 1.54122 17.2183 1.35035 15.5023L1.25758 14.6683ZM15.1453 5.93391C15.4534 6.03156 15.7489 6.16584 16.0271 6.33235C16.4739 5.78132 16.6872 5.07351 16.613 4.36262C16.6064 4.29886 16.5944 4.23143 16.574 4.13313C16.433 4.20072 16.3456 4.2487 16.2683 4.30012C15.7719 4.63033 15.3995 5.11679 15.2097 5.68196C15.186 5.75267 15.167 5.82856 15.1453 5.93391ZM9.10426 2.59407C10.1311 3.5211 10.9115 4.70273 11.3552 6.03352L11.5164 6.5179C11.542 6.59487 11.551 6.67332 11.5515 6.75032C11.7369 6.82926 11.9357 6.88154 12.1423 6.90462L12.4705 6.94075C12.8123 6.97881 13.1574 6.89729 13.4461 6.71028C13.4682 6.69591 13.4885 6.67878 13.5095 6.6634C13.5868 6.12363 13.6385 5.77431 13.7068 5.48958L13.7371 5.3802C13.6191 5.34626 13.5067 5.28561 13.4138 5.1927L12.6472 4.42512C11.682 3.45998 10.4424 2.82263 9.10426 2.59407ZM8.70484 9.88899C8.41248 10.1819 8.41223 10.6568 8.70484 10.9495C8.9976 11.2419 9.47257 11.2418 9.76539 10.9495L10.8123 9.90266C11.1049 9.60986 11.1048 9.13498 10.8123 8.84212C10.5194 8.54939 10.0446 8.54943 9.75172 8.84212L8.70484 9.88899Z" fill="black"/>
</svg>
