<svg width="24" height="24" viewBox="0 0 24 24" fill="none" xmlns="http://www.w3.org/2000/svg">
<path fill-rule="evenodd" clip-rule="evenodd" d="M0.719852 11.9893C0.150953 11.6097 0.0603329 10.7973 0.55286 10.3047L1.52649 9.33107C1.99796 8.8597 2.58136 8.5253 3.21302 8.3506C2.41041 7.32423 2.033 6.00899 2.19837 4.68556L2.30091 3.86525C2.33623 3.58294 2.49291 3.32975 2.72962 3.17189C3.38026 2.73841 4.25174 3.20457 4.25208 3.98634V4.11037C4.25208 5.16384 5.18185 5.97596 6.22571 5.834L9.6427 5.36818C9.65556 5.36465 9.66887 5.36282 9.68177 5.35939C9.6939 5.35617 9.70573 5.35178 9.7179 5.34865C9.7391 5.34319 9.76104 5.34015 9.78235 5.33498C9.86431 5.31512 9.94685 5.29683 10.0304 5.28127C10.0658 5.27464 10.1012 5.26856 10.1368 5.26271C10.2079 5.25112 10.2796 5.24185 10.3517 5.23341C10.3778 5.23033 10.4036 5.22436 10.4298 5.2217C10.4606 5.21857 10.4917 5.21737 10.5226 5.21486C10.5557 5.21217 10.5889 5.20907 10.6222 5.20705C10.7214 5.20108 10.8213 5.19728 10.922 5.19728H13.0802C13.0965 5.19728 13.1128 5.1991 13.129 5.19923L13.13 5.19728C13.1656 5.19728 13.2011 5.20043 13.2365 5.20119C13.2671 5.20209 13.2977 5.20159 13.3282 5.20314C13.3325 5.20335 13.3367 5.20487 13.3409 5.20509C13.7093 5.22078 14.0671 5.27412 14.4093 5.36818L17.8263 5.834C18.8702 5.97595 19.7999 5.16384 19.7999 4.11037V3.98634C19.8003 3.20451 20.6717 2.73826 21.3224 3.17189C21.5591 3.32975 21.7158 3.58293 21.7511 3.86525L21.8536 4.68556C22.0193 6.01173 21.6392 7.32917 20.8331 8.35646C21.4568 8.53274 22.0319 8.86489 22.4982 9.33107L23.4728 10.3047C23.9651 10.7973 23.8736 11.6097 23.3048 11.9893L22.0294 12.8399C20.8247 13.6428 19.2698 13.6956 18.0128 12.9776L17.3009 12.5723L16.2609 15.0684C15.762 14.665 15.1815 14.353 14.547 14.1865L14.4406 14.1582C12.8416 13.739 11.1607 13.7393 9.56165 14.1582L9.45325 14.1865C8.81829 14.3529 8.23772 14.6651 7.73938 15.0684L6.70423 12.583L6.01282 12.9776C4.75566 13.6959 3.20018 13.6431 1.99524 12.8399L0.719852 11.9893ZM19.004 11.2412C19.6034 11.5835 20.3458 11.5584 20.92 11.1758L21.2755 10.9375L21.0841 10.7451C20.7421 10.4032 20.2781 10.2111 19.795 10.211H18.6671C18.6589 10.4776 18.6331 10.7431 18.5919 11.0059L19.004 11.2412ZM13.4786 12.4795C13.4786 12.9627 13.8705 13.3544 14.3536 13.3545C14.8367 13.3542 15.2286 12.9626 15.2286 12.4795C15.2284 11.9966 14.8365 11.6048 14.3536 11.6045C13.8706 11.6046 13.4788 11.9965 13.4786 12.4795ZM8.77259 12.4795C8.77259 12.9626 9.16457 13.3542 9.64759 13.3545C10.1308 13.3545 10.5226 12.9628 10.5226 12.4795C10.5224 11.9964 10.1307 11.6045 9.64759 11.6045C9.16469 11.6048 8.77278 11.9966 8.77259 12.4795ZM3.10462 11.1748C3.67905 11.5578 4.42101 11.5838 5.02063 11.2412L5.43274 11.0049C5.39163 10.7424 5.36573 10.4773 5.35755 10.211L4.23059 10.211L4.04993 10.2197C3.63301 10.2613 3.24076 10.446 2.94153 10.7451L2.74817 10.9375L3.10462 11.1748Z" fill="black"/>
<path fill-rule="evenodd" clip-rule="evenodd" d="M8.13196 20.3467C7.64226 19.6119 7.52757 18.6927 7.8136 17.8643L7.8761 17.7002C8.20604 16.9087 8.91515 16.2047 9.73157 15.9287L9.89661 15.8799L10.006 15.8506C11.3138 15.5081 12.6884 15.5087 13.9962 15.8516L14.1027 15.8789C14.9877 16.1112 15.774 16.8556 16.1261 17.7002L16.1886 17.8643C16.4747 18.6928 16.3591 19.6128 15.8693 20.3477L15.7413 20.5264C15.0782 21.3978 14.043 21.9149 12.9396 21.9151H11.0626C9.8853 21.9149 8.78513 21.3262 8.13196 20.3467ZM12.5372 19.0918C12.5372 19.575 12.929 19.9667 13.4122 19.9668C13.8954 19.9667 14.2872 19.575 14.2872 19.0918C14.287 18.6088 13.8953 18.2169 13.4122 18.2168C12.9292 18.2169 12.5374 18.6088 12.5372 19.0918ZM9.71399 19.0918C9.71399 19.575 10.1058 19.9667 10.589 19.9668C11.0722 19.9668 11.464 19.5751 11.464 19.0918C11.4638 18.6087 11.0721 18.2168 10.589 18.2168C10.1059 18.2169 9.71419 18.6088 9.71399 19.0918Z" fill="black"/>
</svg>
