<svg width="24" height="24" viewBox="0 0 24 24" fill="none" xmlns="http://www.w3.org/2000/svg">
<path fill-rule="evenodd" clip-rule="evenodd" d="M1.25758 14.6683C1.17725 13.943 1.74572 13.3084 2.47535 13.3079C3.0241 13.3078 3.53907 13.0424 3.85816 12.596L5.60524 10.1507C5.77012 9.91974 5.8766 9.65235 5.91676 9.37142C6.20398 7.36151 7.61438 5.69552 9.54274 5.07356C8.94531 4.07935 8.10119 3.24508 7.07984 2.66146L5.84742 1.95735C5.64273 1.84018 5.54708 1.59513 5.61891 1.37044C5.69077 1.14579 5.91059 1.00241 6.14527 1.02571L8.77613 1.28841C10.5734 1.46821 12.2537 2.26418 13.531 3.54134L14.2468 4.25911C14.4936 3.87889 14.7993 3.5385 15.157 3.2552L15.4382 3.0511C15.6767 2.89255 15.9497 2.76205 16.3904 2.56966L16.8923 2.35286C17.0518 2.28451 17.1323 2.25048 17.2009 2.24153C17.4016 2.21559 17.5983 2.31298 17.699 2.4886C17.7334 2.5487 17.7543 2.63169 17.7957 2.7972L17.8416 2.98177C17.9968 3.6026 18.0745 3.9132 18.1052 4.20735C18.1901 5.0212 18.0327 5.83233 17.6677 6.54622L18.2117 6.89095C18.8672 7.30804 19.6542 7.46858 20.4207 7.34114C21.589 7.14642 22.7019 7.91828 22.9392 9.07649C23.7745 13.1578 22.675 17.418 19.9539 20.5736L19.6746 20.8978C18.7628 21.9547 17.1377 21.9931 16.1765 20.9808L13.8357 18.5169H4.71852C2.99199 18.5163 1.54122 17.2183 1.35035 15.5023L1.25758 14.6683ZM14.5759 6.30501C15.1269 6.41056 15.6484 6.64071 16.0984 6.98079C16.1638 6.92249 16.216 6.87395 16.2625 6.82454C16.897 6.14988 17.2071 5.23208 17.1111 4.31087C17.0919 4.12743 17.0448 3.9267 16.9216 3.43099C16.4003 3.65674 16.1774 3.76079 15.992 3.88411C15.4031 4.27578 14.9612 4.85239 14.7361 5.52278C14.6754 5.70352 14.6373 5.90437 14.5759 6.30501ZM8.27125 2.24251C9.5965 3.19855 10.5967 4.54931 11.1179 6.11263L11.2791 6.597C11.2805 6.60133 11.2807 6.60634 11.282 6.61067C11.5391 6.7673 11.8314 6.8699 12.1423 6.90462L12.4705 6.94075C12.8123 6.97882 13.1574 6.8973 13.4461 6.71028C13.4682 6.69592 13.4885 6.67878 13.5095 6.66341C13.5868 6.12363 13.6385 5.77431 13.7068 5.48958L13.7879 5.20442C13.7948 5.18361 13.804 5.16357 13.8113 5.1429C13.7307 5.12067 13.6539 5.07925 13.5906 5.01595L12.824 4.24837C11.7099 3.13442 10.2442 2.44033 8.67652 2.28353L8.27125 2.24251ZM8.8816 10.0658C8.68687 10.261 8.68662 10.5777 8.8816 10.7728C9.07673 10.9676 9.39344 10.9674 9.58863 10.7728L10.6355 9.72591C10.8305 9.53074 10.8304 9.21411 10.6355 9.01888C10.4403 8.82379 10.1237 8.82382 9.92848 9.01888L8.8816 10.0658Z" fill="black"/>
</svg>
