<svg width="24" height="24" viewBox="0 0 24 24" fill="none" xmlns="http://www.w3.org/2000/svg">
<path fill-rule="evenodd" clip-rule="evenodd" d="M1.136 11.3653C0.956883 11.2456 0.92869 10.9896 1.08327 10.835L2.05788 9.86139C2.53488 9.38451 3.15294 9.0839 3.81374 8.99322C2.60529 7.91323 1.99614 6.30512 2.1985 4.68561L2.30104 3.86529C2.33637 3.58298 2.49305 3.32979 2.72975 3.17193C3.38038 2.73854 4.25188 3.20464 4.25221 3.98639V4.11041C4.25221 5.16388 5.18198 5.976 6.22585 5.83404L9.64284 5.36822C9.656 5.36461 9.66968 5.36294 9.68288 5.35943C9.69471 5.35629 9.70617 5.35175 9.71803 5.34869C9.73507 5.34431 9.75269 5.34215 9.76979 5.33795C9.85651 5.31669 9.94399 5.29776 10.0325 5.28131C10.0643 5.27536 10.0962 5.27002 10.1282 5.26471C10.2022 5.2525 10.2767 5.24224 10.3518 5.23346C10.3779 5.23038 10.4037 5.2244 10.4299 5.22174C10.4669 5.21799 10.5041 5.2168 10.5413 5.21393C10.5683 5.21184 10.5952 5.20874 10.6223 5.20709C10.7215 5.20112 10.8214 5.19733 10.9221 5.19732H13.0803C13.0966 5.19733 13.1129 5.19914 13.1292 5.19928L13.1301 5.19732C13.1595 5.19733 13.1888 5.19974 13.218 5.20025C13.2549 5.2012 13.2917 5.20132 13.3284 5.20318C13.333 5.20342 13.3375 5.20489 13.3421 5.20514C13.71 5.22089 14.0675 5.27424 14.4094 5.36822L17.8264 5.83404C18.8703 5.976 19.8001 5.16388 19.8001 4.11041V3.98639C19.8004 3.20453 20.6719 2.73822 21.3225 3.17193C21.5592 3.3298 21.7159 3.58296 21.7512 3.86529L21.8538 4.68561C22.0564 6.30734 21.4444 7.91711 20.2327 8.99713C20.8854 9.09137 21.4953 9.38976 21.9671 9.86139L22.9417 10.835C23.0963 10.9897 23.0673 11.2457 22.888 11.3653L21.6126 12.2159C20.6442 12.8611 19.3944 12.9035 18.3841 12.3262L17.5813 11.8692C17.5748 11.888 17.5695 11.9071 17.5628 11.9258C17.5313 12.0134 17.4981 12.1005 17.4622 12.1866L15.8909 15.9561C15.8314 16.099 15.8241 16.2566 15.8645 16.4044C15.4198 15.9291 14.8523 15.5589 14.2298 15.3956L14.1233 15.3682C12.7322 15.0035 11.2703 15.0028 9.87917 15.3672L9.76979 15.3956C9.14721 15.5587 8.57917 15.9283 8.13503 16.4034C8.13929 16.3879 8.14655 16.3732 8.14968 16.3575C8.17624 16.2237 8.16273 16.0837 8.10964 15.9561L6.53932 12.1856C6.50342 12.0994 6.4693 12.0125 6.43776 11.9249C6.4325 11.9102 6.42727 11.8956 6.42214 11.8809L5.64089 12.3262C4.63029 12.9037 3.37992 12.8615 2.41139 12.2159L1.136 11.3653ZM18.6321 11.8926C19.478 12.3759 20.5245 12.34 21.3352 11.7999L22.4534 11.0538L21.6135 10.2149C21.131 9.73254 20.4764 9.46101 19.7942 9.461L17.886 9.461C17.9071 9.64212 17.9192 9.82654 17.9192 10.0137C17.9192 10.4778 17.8587 10.9386 17.7464 11.3868L18.6321 11.8926ZM13.8538 12.9756C13.8539 13.2517 14.0777 13.4756 14.3538 13.4756C14.6297 13.4754 14.8537 13.2516 14.8538 12.9756C14.8538 12.6996 14.6297 12.4759 14.3538 12.4756C14.0776 12.4757 13.8538 12.6995 13.8538 12.9756ZM9.14772 12.9756C9.14782 13.2516 9.37185 13.4754 9.64772 13.4756C9.9238 13.4756 10.1476 13.2517 10.1477 12.9756C10.1477 12.6995 9.92386 12.4756 9.64772 12.4756C9.37179 12.4759 9.14772 12.6997 9.14772 12.9756ZM2.68874 11.7999C3.49962 12.3404 4.54663 12.3762 5.39284 11.8926L6.27468 11.3887C6.25246 11.3003 6.23203 11.2115 6.21413 11.1221C6.18667 10.9851 6.16583 10.8469 6.1487 10.7081L6.14772 10.7042C6.14229 10.6599 6.13651 10.6157 6.1321 10.5713C6.12535 10.5035 6.12071 10.4354 6.11647 10.3672C6.1163 10.3646 6.11566 10.362 6.1155 10.3594C6.10854 10.2448 6.10477 10.1298 6.10475 10.0147C6.10475 9.92491 6.10772 9.83572 6.11257 9.74713C6.11301 9.73963 6.11404 9.73216 6.11452 9.72467C6.11818 9.6631 6.1242 9.602 6.13014 9.54108C6.13284 9.51439 6.13486 9.48755 6.13796 9.461H4.22975C3.54777 9.46117 2.89382 9.73263 2.41139 10.2149L1.57057 11.0538L2.68874 11.7999Z" fill="black"/>
<path fill-rule="evenodd" clip-rule="evenodd" d="M8.1321 20.3467C7.64236 19.6119 7.52768 18.6928 7.81374 17.8643L7.87624 17.7003C8.20619 16.9087 8.91524 16.2047 9.73171 15.9288L9.89675 15.8799L10.0061 15.8506C11.314 15.5081 12.6885 15.5088 13.9964 15.8516L14.1028 15.879C14.9879 16.1112 15.7742 16.8556 16.1262 17.7003L16.1887 17.8643C16.4749 18.6929 16.3593 19.6128 15.8694 20.3477L15.7415 20.5264C15.0783 21.3979 14.0432 21.9149 12.9397 21.9151H11.0628C9.88539 21.9149 8.78529 21.3263 8.1321 20.3467ZM12.9124 19.0919C12.9124 19.368 13.1362 19.5918 13.4124 19.5919C13.6885 19.5918 13.9124 19.368 13.9124 19.0919C13.9121 18.8159 13.6883 18.5919 13.4124 18.5919C13.1364 18.5919 12.9126 18.8159 12.9124 19.0919ZM10.0891 19.0919C10.0891 19.368 10.313 19.5918 10.5891 19.5919C10.8653 19.5919 11.0891 19.368 11.0891 19.0919C11.0889 18.8159 10.8651 18.5919 10.5891 18.5919C10.3132 18.5919 10.0894 18.8159 10.0891 19.0919Z" fill="black"/>
</svg>
