<svg width="24" height="24" viewBox="0 0 24 24" fill="none" xmlns="http://www.w3.org/2000/svg">
<path fill-rule="evenodd" clip-rule="evenodd" d="M1.25782 14.6691C1.1775 13.9439 1.74596 13.3093 2.4756 13.3088C3.02434 13.3087 3.53931 13.0433 3.85841 12.5969L5.60548 10.1516C5.77037 9.92059 5.87685 9.6532 5.917 9.37226C6.20759 7.3388 7.64718 5.6553 9.61036 5.05097L9.7881 4.99726C9.16717 3.94393 8.28049 3.06058 7.20411 2.4455L5.97169 1.74042C5.86954 1.68177 5.82155 1.5597 5.85743 1.44745C5.89332 1.33537 6.00305 1.26329 6.12013 1.2746L8.75099 1.53828C10.491 1.71227 12.1179 2.48252 13.3545 3.71894L14.1133 4.47968C14.3788 4.0096 14.7319 3.59293 15.1572 3.25605L15.4385 3.05195C15.677 2.89339 15.95 2.76289 16.3906 2.5705L16.8926 2.3537C16.9724 2.31949 17.0326 2.29379 17.0811 2.27558L17.2012 2.24238C17.4019 2.21643 17.5986 2.31383 17.6992 2.48945C17.7336 2.54954 17.7545 2.63254 17.7959 2.79804L17.8418 2.98261C17.997 3.60344 18.0748 3.91405 18.1055 4.2082C18.1903 5.02205 18.0329 5.83318 17.668 6.54706L18.2119 6.89179C18.8675 7.30889 19.6545 7.46943 20.4209 7.34199C21.5892 7.14727 22.7021 7.91912 22.9395 9.07734C23.7747 13.1587 22.6753 17.4188 19.9541 20.5744L19.6748 20.8986C18.763 21.9555 17.138 21.9939 16.1768 20.9816L13.8359 18.5178H4.71876C2.99224 18.5172 1.54146 17.2191 1.3506 15.5031L1.25782 14.6691ZM14.0049 6.7414C14.7848 6.77055 15.531 7.0873 16.0947 7.63495C16.3549 7.42373 16.5035 7.29941 16.627 7.16816C17.3611 6.38761 17.7195 5.32578 17.6084 4.25995C17.5823 4.00938 17.5153 3.73914 17.3565 3.1037L17.3106 2.91913C17.2887 2.83185 17.2762 2.78254 17.2656 2.74726C17.2649 2.74467 17.2634 2.74255 17.2627 2.74042C17.2609 2.7411 17.259 2.74252 17.2568 2.74335C17.2215 2.75662 17.1738 2.77769 17.0899 2.81367C16.3144 3.14602 15.9859 3.28864 15.7149 3.46894C15.0337 3.92208 14.5222 4.58892 14.2617 5.36445C14.1625 5.65989 14.1122 5.99196 14.0049 6.7414ZM7.45216 2.01093C9.0703 2.93559 10.2914 4.42457 10.8809 6.19257L10.9307 6.34492C11.2564 6.65254 11.6793 6.85373 12.1426 6.90546L12.4707 6.9416C12.8125 6.97966 13.1577 6.89814 13.4463 6.71113C13.4685 6.69676 13.4887 6.67963 13.5098 6.66425C13.587 6.12448 13.6387 5.77515 13.707 5.49042L13.7881 5.20527C13.8218 5.10494 13.8595 5.00633 13.9004 4.90937C13.8519 4.90071 13.8051 4.87752 13.7676 4.84003L13.001 4.07245C11.846 2.91765 10.3263 2.19786 8.70118 2.03535L7.23927 1.88886L7.45216 2.01093ZM9.0586 10.2434C8.9615 10.341 8.96125 10.4994 9.0586 10.5969C9.1561 10.694 9.31456 10.6939 9.41212 10.5969L10.459 9.54999C10.5563 9.45246 10.5562 9.29408 10.459 9.19648C10.3614 9.09902 10.2031 9.09906 10.1055 9.19648L9.0586 10.2434Z" fill="black"/>
</svg>
