<svg width="24" height="24" viewBox="0 0 24 24" fill="none" xmlns="http://www.w3.org/2000/svg">
<path fill-rule="evenodd" clip-rule="evenodd" d="M1.25758 14.6683C1.17725 13.943 1.74572 13.3084 2.47535 13.3079C3.0241 13.3078 3.53907 13.0424 3.85816 12.596L5.60524 10.1507C5.77012 9.91974 5.8766 9.65235 5.91676 9.37141C6.17986 7.53027 7.38636 5.97933 9.0691 5.25325C8.51829 4.36563 7.75193 3.62083 6.8318 3.09505L5.59938 2.39094C5.18976 2.15667 4.99963 1.6676 5.14332 1.21809C5.28715 0.768793 5.72564 0.480882 6.19508 0.527662L8.82594 0.790357C10.7381 0.98164 12.5256 1.82904 13.8845 3.18782L14.5466 3.85188C14.729 3.63382 14.9325 3.43296 15.157 3.2552L15.4382 3.0511C15.6767 2.89254 15.9497 2.76204 16.3904 2.56965L16.8923 2.35286C17.0518 2.2845 17.1323 2.25048 17.2009 2.24153C17.4016 2.21559 17.5983 2.31298 17.699 2.4886C17.7334 2.5487 17.7543 2.63169 17.7957 2.79719L17.8416 2.98176C17.9968 3.6026 18.0745 3.9132 18.1052 4.20735C18.1901 5.0212 18.0327 5.83233 17.6677 6.54622L18.2117 6.89094C18.8672 7.30804 19.6542 7.46858 20.4207 7.34114C21.589 7.14642 22.7019 7.91827 22.9392 9.07649C23.7745 13.1578 22.675 17.418 19.9539 20.5736L19.6746 20.8978C18.7628 21.9547 17.1377 21.9931 16.1765 20.9808L13.8357 18.5169H4.71852C2.99199 18.5163 1.54122 17.2183 1.35035 15.5023L1.25758 14.6683ZM15.863 5.67805C15.9524 5.51241 16.0211 5.3371 16.0652 5.15461C15.9455 5.30099 15.8439 5.46179 15.7654 5.63508C15.7979 5.64939 15.8308 5.663 15.863 5.67805ZM9.90504 3.04524C10.6531 3.88355 11.2313 4.87098 11.5925 5.95442L11.7537 6.43879C11.7978 6.57114 11.8124 6.70641 11.8015 6.83723C11.912 6.86857 12.0258 6.8916 12.1423 6.90461L12.4705 6.94075C12.8123 6.97881 13.1574 6.89729 13.4461 6.71028C13.4682 6.69591 13.4885 6.67878 13.5095 6.6634C13.5749 6.20664 13.6232 5.88655 13.6775 5.62629C13.5163 5.58183 13.3637 5.49614 13.2371 5.36946L12.4705 4.60188C11.7485 3.87998 10.8664 3.34944 9.90504 3.04524ZM8.70484 9.88899C8.41248 10.1819 8.41223 10.6568 8.70484 10.9495C8.9976 11.2419 9.47257 11.2418 9.76539 10.9495L10.8123 9.90266C11.1049 9.60986 11.1048 9.13498 10.8123 8.84212C10.5194 8.54939 10.0446 8.54943 9.75172 8.84212L8.70484 9.88899Z" fill="black"/>
</svg>
