<svg width="24" height="24" viewBox="0 0 24 24" fill="none" xmlns="http://www.w3.org/2000/svg">
<path d="M8.75169 1.5377C10.4915 1.71177 12.1187 2.48205 13.3552 3.71836L13.9294 4.29453C14.1858 3.85754 14.5154 3.46618 14.905 3.13926C15.4135 2.71261 16.0571 2.43915 17.2468 1.9293L17.5095 1.817L17.5613 1.80039C17.614 1.79043 17.6695 1.79872 17.7185 1.82285C17.784 1.85533 17.8325 1.91509 17.8503 1.98594L18.0837 2.92149C18.237 3.5348 18.3212 3.86639 18.3542 4.18223C18.4445 5.04857 18.276 5.91239 17.8855 6.67149C18.8658 7.21335 20.0033 7.41114 21.114 7.22618L22.2761 7.03184C22.412 7.00927 22.5411 7.10216 22.5642 7.23789C22.5868 7.37401 22.4943 7.50231 22.3581 7.525L21.196 7.71934C19.9698 7.92353 18.7137 7.70391 17.6325 7.10313C17.4965 7.30713 17.3431 7.50103 17.1726 7.68223C16.9553 7.91316 16.6882 8.12442 16.196 8.51817C16.0896 8.60555 15.9332 8.59105 15.8454 8.48496C15.7581 8.37843 15.7723 8.22009 15.8786 8.13243L15.8816 8.13047C16.3872 7.72599 16.6207 7.53889 16.8083 7.33946C17.5925 6.50599 17.9748 5.37222 17.8562 4.23399C17.8277 3.9617 17.7563 3.67053 17.5993 3.04258L17.4363 2.39121C16.223 2.91121 15.6639 3.15486 15.2263 3.52207C14.785 3.89237 14.4302 4.35522 14.1872 4.87754C13.9459 5.39666 13.8561 6.00181 13.6687 7.31407C13.6492 7.45067 13.523 7.54634 13.3865 7.52696C13.25 7.50721 13.155 7.38028 13.1745 7.24375C13.3479 6.02999 13.4448 5.3448 13.6921 4.76426L13.0017 4.07188C11.8468 2.91718 10.3269 2.19736 8.70189 2.03477L7.23997 1.88828L7.45286 2.01035C9.07085 2.93498 10.2921 4.42415 10.8816 6.192L11.0427 6.67637C11.0863 6.8072 11.0152 6.94893 10.8845 6.99278C10.7537 7.0361 10.6127 6.9654 10.5691 6.83457L10.407 6.3502C10.3029 6.03816 10.1766 5.73554 10.032 5.44395L9.75755 5.52793C7.97944 6.07518 6.67628 7.60037 6.41282 9.442C6.36135 9.8023 6.22393 10.1458 6.01243 10.442L4.26634 12.8863C3.85341 13.4644 3.1867 13.8081 2.4763 13.8082C2.04468 13.8084 1.70856 14.1839 1.7556 14.6129L1.84739 15.4469C2.00997 16.91 3.2474 18.0168 4.71946 18.0172H13.8581L14.362 17.6139C15.5939 16.6283 16.3113 15.1359 16.3113 13.5582C16.3116 13.4205 16.4236 13.3084 16.5613 13.3082C16.6991 13.3082 16.8109 13.4204 16.8113 13.5582C16.8113 15.2878 16.025 16.924 14.6745 18.0045L14.3132 18.2936L18.1452 22.3277C18.2401 22.4278 18.2354 22.5862 18.1355 22.6813C18.0353 22.7761 17.877 22.7725 17.782 22.6725L13.8367 18.5172H4.71946C2.99276 18.5168 1.54218 17.2187 1.3513 15.5025L1.25853 14.6686C1.17838 13.9433 1.74657 13.3084 2.4763 13.3082C3.02511 13.3081 3.54002 13.0428 3.85911 12.5963L5.60618 10.151C5.77095 9.92008 5.87757 9.6525 5.91771 9.37168C6.20845 7.33827 7.64781 5.65458 9.61107 5.05039L9.78782 4.99668C9.16695 3.94364 8.28094 3.0599 7.20482 2.44493L5.97239 1.73985C5.87025 1.6812 5.82226 1.55912 5.85814 1.44688C5.89418 1.33506 6.00391 1.26271 6.12083 1.27403L8.75169 1.5377ZM10.1062 9.1959C10.2037 9.09863 10.3621 9.09865 10.4597 9.1959C10.5567 9.29349 10.5569 9.45195 10.4597 9.54942L9.41282 10.5963C9.31536 10.6936 9.15693 10.6933 9.05931 10.5963C8.96203 10.4987 8.96195 10.3403 9.05931 10.2428L10.1062 9.1959Z" fill="black"/>
</svg>
