<svg width="24" height="24" viewBox="0 0 24 24" fill="none" xmlns="http://www.w3.org/2000/svg">
<path d="M13.6036 12.9757C13.6036 12.5615 13.9393 12.2257 14.3536 12.2257C14.7676 12.2259 15.1036 12.5616 15.1036 12.9757C15.1034 13.3897 14.7675 13.7256 14.3536 13.7257C13.9394 13.7257 13.6037 13.3899 13.6036 12.9757Z" fill="black"/>
<path d="M8.89847 12.9757C8.89847 12.5615 9.23426 12.2257 9.64847 12.2257C10.0625 12.226 10.3985 12.5617 10.3985 12.9757C10.3984 13.3898 10.0625 13.7255 9.64847 13.7257C9.23429 13.7257 8.89852 13.3899 8.89847 12.9757Z" fill="black"/>
<path d="M12.6621 19.0919C12.6624 18.6779 12.9981 18.342 13.4121 18.3419C13.8262 18.3419 14.1619 18.6779 14.1621 19.0919C14.1621 19.5062 13.8264 19.8419 13.4121 19.8419C12.9979 19.8419 12.6621 19.5062 12.6621 19.0919Z" fill="black"/>
<path d="M9.83891 19.0919C9.83913 18.678 10.1749 18.342 10.5889 18.3419C11.003 18.3419 11.3387 18.6779 11.3389 19.0919C11.3389 19.5062 11.0031 19.8419 10.5889 19.8419C10.1748 19.8419 9.83891 19.5061 9.83891 19.0919Z" fill="black"/>
<path fill-rule="evenodd" clip-rule="evenodd" d="M0.858436 11.7814C0.419483 11.4885 0.349663 10.8615 0.72953 10.4816L1.70414 9.50797C2.04209 9.17008 2.44128 8.90772 2.87504 8.72964C1.95284 7.58961 1.51623 6.11084 1.70219 4.6232L1.80472 3.80386L1.83305 3.64566C1.91888 3.28351 2.13927 2.96467 2.45219 2.75601C3.4351 2.10102 4.75165 2.80536 4.75199 3.98648V4.1105C4.75199 4.86106 5.41453 5.43918 6.15824 5.33804L9.54594 4.87711C9.55013 4.87598 9.55443 4.87529 9.55863 4.87418C9.65811 4.84786 9.75872 4.82447 9.86039 4.80386C9.87302 4.8013 9.88581 4.7995 9.89847 4.79703C9.98243 4.78065 10.0671 4.76643 10.1524 4.75406C10.1913 4.74842 10.2304 4.74322 10.2696 4.73843C10.3494 4.72866 10.4298 4.72119 10.5108 4.715C10.5394 4.71281 10.568 4.71087 10.5967 4.70914C10.7043 4.70264 10.8127 4.69742 10.9219 4.69742H13.0801C13.0964 4.69742 13.1127 4.69922 13.1289 4.69937L13.1299 4.69742C13.1789 4.69742 13.2278 4.70099 13.2764 4.7023C13.3064 4.70339 13.3364 4.70462 13.3662 4.70621C13.7587 4.72335 14.1402 4.77937 14.5059 4.8771L17.8936 5.33804C18.6373 5.43918 19.2998 4.86106 19.2998 4.1105V3.98648C19.3002 2.8053 20.6167 2.10086 21.5996 2.75601C21.9126 2.96467 22.133 3.28349 22.2188 3.64566L22.2471 3.80386L22.3496 4.6232C22.5361 6.11451 22.0959 7.5963 21.169 8.73746C21.5955 8.91537 21.9883 9.17498 22.3213 9.50796L23.2959 10.4816C23.6756 10.8615 23.6049 11.4885 23.1661 11.7814L21.8907 12.632C20.7648 13.3823 19.3115 13.4319 18.1368 12.7609L17.836 12.59L16.3526 16.1486C16.333 16.1956 16.333 16.249 16.3526 16.2961L16.8174 17.4113C16.8637 17.5223 16.9021 17.6354 16.9366 17.7492C16.9429 17.77 16.9492 17.7908 16.9551 17.8117C16.9648 17.8458 16.9738 17.8799 16.9825 17.9142C16.9917 17.951 17.0017 17.9876 17.0098 18.0246C17.0175 18.0599 17.0227 18.0956 17.0293 18.131C17.0353 18.1629 17.0418 18.1947 17.0469 18.2267C17.0534 18.2677 17.0585 18.3087 17.0635 18.3498C17.067 18.3784 17.0714 18.407 17.0743 18.4357C17.078 18.4734 17.0806 18.5112 17.083 18.549C17.0854 18.5841 17.0866 18.6193 17.0879 18.6544C17.0891 18.687 17.0896 18.7195 17.0899 18.7521C17.0902 18.7889 17.0907 18.8257 17.0899 18.8625C17.0891 18.8983 17.0869 18.9341 17.085 18.9699C17.0831 19.0074 17.0813 19.0448 17.0782 19.0822C17.076 19.108 17.0731 19.1336 17.0704 19.1593C17.0652 19.2079 17.0599 19.2565 17.0528 19.3048C17.0492 19.329 17.0451 19.353 17.0411 19.3771C17.0348 19.4143 17.028 19.4514 17.0205 19.4884C17.0134 19.524 17.0063 19.5595 16.9981 19.5949C16.9902 19.6289 16.9807 19.6626 16.9717 19.6964C16.9631 19.729 16.9549 19.7617 16.9454 19.7941C16.9326 19.8373 16.9187 19.8802 16.9043 19.923C16.8972 19.9442 16.8904 19.9654 16.8829 19.9865C16.8106 20.1887 16.7207 20.3858 16.6114 20.5744L16.4932 20.7638C16.3409 20.9921 16.1676 21.2022 15.9786 21.3937C15.8223 21.552 15.654 21.6962 15.4766 21.8273C15.0308 22.1566 14.5252 22.3989 13.9854 22.5353C13.6473 22.6207 13.2963 22.6652 12.9395 22.6652H11.0625C10.2591 22.6652 9.48541 22.4395 8.82133 22.0304C8.37828 21.7576 7.98413 21.4029 7.66215 20.9796C7.60864 20.9093 7.55725 20.8369 7.50785 20.7628C7.42518 20.6388 7.35094 20.5105 7.28519 20.3791C7.25235 20.3134 7.221 20.2471 7.19242 20.1798C6.96506 19.6451 6.87345 19.0643 6.92094 18.4894C6.92817 18.4019 6.93943 18.3147 6.95316 18.2277C6.97139 18.1121 6.99468 17.997 7.02445 17.883C7.03479 17.8433 7.0469 17.8042 7.05863 17.7648C7.09406 17.646 7.13443 17.5281 7.18265 17.4123L7.64848 16.2961C7.66805 16.2491 7.66802 16.1956 7.64848 16.1486L6.16898 12.6007L5.88871 12.7609C4.71375 13.4322 3.25993 13.3827 2.13383 12.632L0.858436 11.7814ZM18.8799 11.4582C19.5615 11.8475 20.4055 11.8191 21.0586 11.3839L21.668 10.9757L21.2608 10.5685C20.872 10.1797 20.3444 9.96122 19.795 9.96109H18.419C18.4192 9.9786 18.42 9.99627 18.42 10.0138C18.4199 10.3909 18.3849 10.7668 18.3164 11.1359L18.8799 11.4582ZM17.3477 6.7775C17.7306 7.27612 18.026 7.84519 18.2139 8.46109H19.3164L19.4073 8.38882C20.4811 7.52973 21.0309 6.17431 20.8604 4.80972L20.795 4.27457C20.7024 5.85316 19.2811 7.04054 17.6914 6.82437L17.3477 6.7775ZM7.1143 10.3097C7.14695 10.8222 7.26399 11.3267 7.46195 11.8019L8.97758 15.4416C9.20884 15.3188 9.45293 15.2208 9.70609 15.1544L9.81547 15.1261C11.2483 14.7507 12.7538 14.7505 14.1866 15.1261L14.293 15.1535C14.5464 15.22 14.7899 15.3195 15.0215 15.4425L16.5391 11.8019C16.7752 11.2355 16.8965 10.6274 16.8965 10.0138C16.8964 8.25722 15.7093 6.77929 14.0938 6.33511L13.0782 6.19742H10.9727L9.86332 6.34781C9.85519 6.35015 9.84701 6.35225 9.8389 6.35464C9.41998 6.47848 9.03099 6.67186 8.68558 6.92203C8.67878 6.92696 8.67185 6.9317 8.66508 6.93668C8.39142 7.13763 8.14586 7.37445 7.93461 7.6398C7.92564 7.65106 7.91708 7.66262 7.90824 7.67398C7.80637 7.80494 7.71233 7.94229 7.62797 8.08609C7.62508 8.091 7.62204 8.09581 7.61918 8.10074C7.49053 8.32228 7.38323 8.55789 7.30082 8.80484C7.29824 8.81255 7.29651 8.82054 7.29398 8.82828C7.26735 8.90983 7.2429 8.99245 7.22172 9.07632L7.16508 9.34195C7.14563 9.45153 7.13041 9.56235 7.12015 9.67398C7.11022 9.78626 7.10453 9.89995 7.10453 10.0148C7.10455 10.1133 7.10809 10.2116 7.1143 10.3097ZM8.41703 18.6056C8.3773 19.067 8.49239 19.5354 8.7559 19.9308C8.78801 19.979 8.8217 20.0257 8.85648 20.0714C9.37861 20.7578 10.1936 21.1652 11.0625 21.1652H12.9395C13.866 21.165 14.7312 20.7018 15.2452 19.9308C15.6284 19.3558 15.6993 18.6273 15.4336 17.9894L15.4278 17.9757C15.1526 17.3273 14.5416 16.7699 13.9121 16.6046L13.8067 16.5773C12.6232 16.267 11.3789 16.2663 10.1954 16.5763L10.086 16.6056C9.45377 16.7715 8.84119 17.3343 8.5684 17.9884C8.51852 18.1082 8.48047 18.2311 8.45414 18.3556C8.43662 18.4385 8.42424 18.5219 8.41703 18.6056ZM3.19144 4.80972C3.02091 6.17431 3.57072 7.52973 4.64457 8.38882L4.73539 8.46109H5.835C5.92784 8.15679 6.04818 7.86453 6.19144 7.58609C6.19463 7.57987 6.198 7.57374 6.20121 7.56753C6.23255 7.50721 6.26531 7.44777 6.29887 7.38882C6.30664 7.37512 6.31441 7.36143 6.3223 7.34781C6.35463 7.29219 6.38765 7.23709 6.42191 7.18277C6.43158 7.1674 6.44139 7.15213 6.45121 7.13687C6.48315 7.08736 6.51632 7.03875 6.54984 6.99039C6.5646 6.96906 6.5797 6.94801 6.59476 6.92691C6.62716 6.88159 6.65962 6.83639 6.6934 6.79214C6.69702 6.7874 6.7005 6.78223 6.70414 6.7775L6.36039 6.82437C4.77077 7.04054 3.34943 5.85316 3.25687 4.27457L3.19144 4.80972ZM2.96586 11.383C3.61911 11.8184 4.46275 11.8477 5.14457 11.4582L5.70805 11.1359C5.70245 11.1057 5.69757 11.0754 5.69242 11.0451C5.68325 10.9912 5.67476 10.9371 5.66703 10.883C5.66057 10.8378 5.65491 10.7925 5.64945 10.7472C5.6434 10.6968 5.63766 10.6464 5.63285 10.5959C5.62773 10.5422 5.62386 10.4885 5.62015 10.4347C5.61721 10.3918 5.61341 10.3489 5.61137 10.3058C5.60672 10.2087 5.60453 10.1112 5.60453 10.0138C5.60454 9.99627 5.60533 9.97859 5.60551 9.96109H4.23051L4.02543 9.97086C3.61868 10.0113 3.23238 10.1715 2.91605 10.4308L2.76469 10.5685L2.35551 10.9767L2.96586 11.383Z" fill="black"/>
</svg>
