<svg width="24" height="24" viewBox="0 0 24 24" fill="none" xmlns="http://www.w3.org/2000/svg">
<path fill-rule="evenodd" clip-rule="evenodd" d="M0.858449 11.7814C0.419478 11.4885 0.349659 10.8615 0.729543 10.4816L1.70415 9.50796C2.17185 9.04036 2.75633 8.71719 3.38872 8.56363C2.46578 7.51014 2.02126 6.10246 2.19829 4.6857L2.30083 3.86539C2.33615 3.58307 2.49284 3.32988 2.72954 3.17203C3.38018 2.73857 4.25167 3.20471 4.252 3.98648L4.252 4.1105C4.252 5.16398 5.18177 5.97609 6.22564 5.83414L9.64263 5.36832C9.65579 5.3647 9.66947 5.36303 9.68267 5.35953C9.6945 5.35638 9.70596 5.35184 9.71782 5.34878C9.72742 5.34632 9.7375 5.34534 9.74712 5.34293C9.8411 5.31939 9.93618 5.29926 10.0323 5.2814C10.0689 5.27455 10.1057 5.26886 10.1426 5.26285C10.2077 5.25232 10.273 5.24241 10.3389 5.23453C10.3692 5.23087 10.3993 5.22492 10.4297 5.22183C10.4573 5.21904 10.4851 5.21828 10.5127 5.21597C10.5491 5.21294 10.5855 5.2094 10.6221 5.20718C10.7213 5.20121 10.8212 5.19742 10.9219 5.19742L13.0801 5.19742C13.0964 5.19742 13.1127 5.19924 13.129 5.19937L13.1299 5.19742C13.1717 5.19742 13.2134 5.20028 13.2549 5.20132C13.2794 5.20214 13.3038 5.20204 13.3282 5.20328C13.3308 5.20341 13.3334 5.20412 13.336 5.20425C13.706 5.21965 14.0655 5.27384 14.4092 5.36832L17.8262 5.83414C18.8701 5.97609 19.7999 5.16397 19.7999 4.1105V3.98648C19.8002 3.20464 20.6717 2.73837 21.3223 3.17203C21.559 3.32989 21.7157 3.58306 21.751 3.86539L21.8536 4.6857C22.0309 6.10472 21.5842 7.51448 20.6583 8.56851C21.2823 8.7242 21.8591 9.04573 22.3213 9.50796L23.2959 10.4816C23.6756 10.8615 23.6049 11.4885 23.1661 11.7814L21.8907 12.632C20.7648 13.3823 19.3115 13.4319 18.1368 12.7609L17.3975 12.34L16.0586 15.5529C15.5871 15.1455 15.0299 14.8301 14.42 14.6701L14.3135 14.6427C12.7977 14.2453 11.2044 14.2446 9.68853 14.6418L9.57915 14.6711C8.96905 14.831 8.4115 15.1459 7.94048 15.5529L6.60747 12.3507L5.88872 12.7609C4.71376 13.4322 3.25995 13.3827 2.13384 12.632L0.858449 11.7814ZM18.8799 11.4582C19.5615 11.8474 20.4056 11.8191 21.0586 11.3839L21.668 10.9757L21.2608 10.5685C20.872 10.1797 20.3444 9.96123 19.795 9.96109H18.419C18.4192 9.9786 18.42 9.99627 18.42 10.0138C18.42 10.3909 18.3849 10.7668 18.3165 11.1359L18.8799 11.4582ZM13.6026 12.9757C13.6027 13.3896 13.9387 13.7254 14.3526 13.7257C14.7667 13.7257 15.1025 13.3898 15.1026 12.9757C15.1026 12.5617 14.7676 12.226 14.3536 12.2257C13.9394 12.2258 13.6026 12.5616 13.6026 12.9757ZM8.89751 12.9757C8.89758 13.3897 9.23356 13.7255 9.64751 13.7257C10.0617 13.7257 10.3974 13.3899 10.3975 12.9757C10.3975 12.5615 10.0617 12.2257 9.64751 12.2257C9.23351 12.226 8.89751 12.5617 8.89751 12.9757ZM2.96587 11.383C3.61913 11.8185 4.46276 11.8477 5.14458 11.4582L5.70806 11.1359C5.63962 10.7668 5.60455 10.3909 5.60454 10.0138C5.60455 9.99627 5.60534 9.97859 5.60552 9.96109H4.23052L4.02544 9.97086C3.61869 10.0113 3.2324 10.1715 2.91607 10.4308L2.7647 10.5685L2.35552 10.9767L2.96587 11.383Z" fill="black"/>
<path fill-rule="evenodd" clip-rule="evenodd" d="M8.13189 20.3468C7.64218 19.612 7.52749 18.6929 7.81353 17.8644L7.87603 17.7003C8.20597 16.9088 8.91506 16.2048 9.7315 15.9289L9.89653 15.88L10.0059 15.8507C11.3138 15.5082 12.6884 15.5089 13.9961 15.8517L14.1026 15.8791C14.9877 16.1113 15.774 16.8557 16.126 17.7003L16.1885 17.8644C16.4747 18.6929 16.359 19.6129 15.8692 20.3478L15.7413 20.5265C15.0781 21.398 14.043 21.915 12.9395 21.9152H11.0626C9.88521 21.915 8.78506 21.3264 8.13189 20.3468ZM12.6622 19.0919C12.6622 19.5061 12.998 19.8419 13.4122 19.8419C13.8263 19.8419 14.1622 19.5061 14.1622 19.0919C14.162 18.6779 13.8262 18.342 13.4122 18.3419C12.9981 18.342 12.6624 18.6779 12.6622 19.0919ZM9.83892 19.0919C9.83892 19.5061 10.1748 19.8419 10.5889 19.8419C11.0031 19.8419 11.3389 19.5062 11.3389 19.0919C11.3387 18.6779 11.003 18.3419 10.5889 18.3419C10.1749 18.342 9.83912 18.6779 9.83892 19.0919Z" fill="black"/>
</svg>
