<svg width="24" height="24" viewBox="0 0 24 24" fill="none" xmlns="http://www.w3.org/2000/svg">
<path d="M3.99805 13.5C3.99805 13.2239 4.2219 13 4.49805 13H6.49805C6.77419 13 6.99805 13.2239 6.99805 13.5C6.99805 13.7761 6.77419 14 6.49805 14H4.49805C4.2219 14 3.99805 13.7761 3.99805 13.5Z" fill="black"/>
<path fill-rule="evenodd" clip-rule="evenodd" d="M18.498 12.5C17.9353 12.5 17.4159 12.686 16.9981 12.9998C16.5803 12.686 16.0609 12.5 15.4981 12.5C14.1174 12.5 12.9981 13.6193 12.9981 15C12.9981 16.3807 14.1174 17.5 15.4981 17.5C16.0609 17.5 16.5803 17.314 16.9981 17.0002C17.4159 17.314 17.9353 17.5 18.498 17.5C19.8788 17.5 20.998 16.3807 20.998 15C20.998 13.6193 19.8788 12.5 18.498 12.5ZM18.498 13.5C17.6696 13.5 16.998 14.1716 16.998 15C16.998 15.8284 17.6696 16.5 18.498 16.5C19.3265 16.5 19.998 15.8284 19.998 15C19.998 14.1716 19.3265 13.5 18.498 13.5ZM15.998 15C15.998 14.5456 16.1193 14.1195 16.3311 13.7524C16.0929 13.593 15.8064 13.5 15.4981 13.5C14.6697 13.5 13.9981 14.1716 13.9981 15C13.9981 15.8284 14.6697 16.5 15.4981 16.5C15.8064 16.5 16.0929 16.407 16.3311 16.2476C16.1193 15.8805 15.998 15.4544 15.998 15Z" fill="black"/>
<path fill-rule="evenodd" clip-rule="evenodd" d="M4.67664 4.5C4.13475 4.5 3.69767 4.49999 3.34373 4.52891C2.97931 4.55868 2.65922 4.62159 2.36307 4.77248C1.89267 5.01217 1.51021 5.39462 1.27053 5.86502C1.11964 6.16117 1.05673 6.48126 1.02696 6.84569C0.998037 7.19963 0.998041 7.6367 0.998047 8.1786V15.8214C0.998041 16.3633 0.998037 16.8004 1.02696 17.1543C1.05673 17.5187 1.11964 17.8388 1.27053 18.135C1.51021 18.6054 1.89267 18.9878 2.36307 19.2275C2.65922 19.3784 2.97931 19.4413 3.34373 19.4711C3.69766 19.5 4.13472 19.5 4.67658 19.5H19.3195C19.8613 19.5 20.2984 19.5 20.6524 19.4711C21.0168 19.4413 21.3369 19.3784 21.633 19.2275C22.1034 18.9878 22.4859 18.6054 22.7256 18.135C22.8765 17.8388 22.9394 17.5187 22.9691 17.1543C22.9981 16.8004 22.9981 16.3633 22.998 15.8214V8.17858C22.9981 7.6367 22.9981 7.19963 22.9691 6.84569C22.9394 6.48126 22.8765 6.16117 22.7256 5.86502C22.4859 5.39462 22.1034 5.01217 21.633 4.77248C21.3369 4.62159 21.0168 4.55868 20.6524 4.52891C20.2984 4.49999 19.8613 4.5 19.3194 4.5H4.67664ZM2.81706 5.66349C2.94874 5.5964 3.12258 5.55031 3.42517 5.52559C3.73359 5.50039 4.12974 5.5 4.69805 5.5H19.298C19.8663 5.5 20.2625 5.50039 20.5709 5.52559C20.8735 5.55031 21.0474 5.5964 21.179 5.66349C21.4613 5.8073 21.6907 6.03677 21.8346 6.31901C21.9016 6.45069 21.9477 6.62454 21.9725 6.92712C21.9977 7.23554 21.998 7.6317 21.998 8.2V8.5H1.99805V8.2C1.99805 7.6317 1.99844 7.23554 2.02363 6.92712C2.04836 6.62454 2.09444 6.45069 2.16154 6.31901C2.30535 6.03677 2.53482 5.8073 2.81706 5.66349ZM1.99805 9.5H21.998V15.8C21.998 16.3683 21.9977 16.7645 21.9725 17.0729C21.9477 17.3755 21.9016 17.5493 21.8346 17.681C21.6907 17.9632 21.4613 18.1927 21.179 18.3365C21.0474 18.4036 20.8735 18.4497 20.5709 18.4744C20.2625 18.4996 19.8664 18.5 19.298 18.5H4.69805C4.12975 18.5 3.73359 18.4996 3.42517 18.4744C3.12258 18.4497 2.94874 18.4036 2.81706 18.3365C2.53482 18.1927 2.30535 17.9632 2.16154 17.681C2.09444 17.5493 2.04836 17.3755 2.02363 17.0729C1.99844 16.7645 1.99805 16.3683 1.99805 15.8V9.5Z" fill="black"/>
</svg>
