<svg width="24" height="24" viewBox="0 0 24 24" fill="none" xmlns="http://www.w3.org/2000/svg">
<path d="M4.49805 14.75C4.08383 14.75 3.74805 15.0858 3.74805 15.5C3.74805 15.9142 4.08383 16.25 4.49805 16.25H6.49805C6.91226 16.25 7.24805 15.9142 7.24805 15.5C7.24805 15.0858 6.91226 14.75 6.49805 14.75H4.49805Z" fill="black"/>
<path fill-rule="evenodd" clip-rule="evenodd" d="M6.29785 4.25C5.47027 4.25 4.80443 4.24903 4.2666 4.29297C3.71999 4.33763 3.2401 4.43287 2.7959 4.65918C2.09029 5.01871 1.51675 5.59225 1.15723 6.29785C0.930912 6.74205 0.835677 7.22195 0.791017 7.76856C0.747079 8.30639 0.748049 8.97222 0.748049 9.79981V14.2002C0.748049 15.0278 0.747079 15.6936 0.791017 16.2314C0.835677 16.7781 0.930913 17.258 1.15723 17.7022C1.51675 18.4078 2.09029 18.9813 2.7959 19.3408C3.2401 19.5671 3.71999 19.6624 4.2666 19.707C4.80443 19.751 5.47027 19.75 6.29785 19.75H17.6982C18.5258 19.75 19.1917 19.751 19.7295 19.707C20.2761 19.6624 20.756 19.5671 21.2002 19.3408C21.9058 18.9813 22.4793 18.4078 22.8389 17.7022C23.0652 17.258 23.1604 16.7781 23.2051 16.2314C23.249 15.6936 23.248 15.0278 23.248 14.2002V9.79981C23.248 8.97222 23.249 8.30639 23.2051 7.76856C23.1604 7.22195 23.0652 6.74205 22.8389 6.29785C22.4793 5.59225 21.9058 5.01871 21.2002 4.65918C20.756 4.43287 20.2761 4.33763 19.7295 4.29297C19.1917 4.24903 18.5258 4.25 17.6982 4.25H6.29785ZM21.748 14.2002C21.748 15.0525 21.7478 15.6468 21.71 16.1094C21.6729 16.5632 21.6036 16.824 21.5029 17.0215C21.2872 17.4449 20.9429 17.7892 20.5195 18.0049C20.322 18.1055 20.0612 18.1748 19.6074 18.2119C19.1448 18.2497 18.5506 18.25 17.6982 18.25H6.29785C5.4455 18.25 4.85127 18.2497 4.38867 18.2119C3.93485 18.1748 3.67407 18.1055 3.47656 18.0049C3.0532 17.7892 2.70888 17.4449 2.49317 17.0215C2.39254 16.824 2.32322 16.5632 2.28613 16.1094C2.24834 15.6468 2.24805 15.0525 2.24805 14.2002V9.75H21.748V14.2002ZM17.6982 5.75C18.5506 5.75 19.1448 5.75029 19.6074 5.78809C20.0612 5.82517 20.322 5.89449 20.5195 5.99512C20.9429 6.21083 21.2872 6.55515 21.5029 6.97852C21.6036 7.17602 21.6729 7.4368 21.71 7.89063C21.7191 8.00216 21.7252 8.12139 21.7305 8.25H2.26563C2.2709 8.12139 2.27702 8.00216 2.28613 7.89063C2.32322 7.4368 2.39254 7.17602 2.49317 6.97852C2.70888 6.55515 3.0532 6.21083 3.47656 5.99512C3.67407 5.89449 3.93485 5.82517 4.38867 5.78809C4.85127 5.75029 5.4455 5.75 6.29785 5.75H17.6982Z" fill="black"/>
</svg>
