<svg width="24" height="24" viewBox="0 0 24 24" fill="none" xmlns="http://www.w3.org/2000/svg">
<path d="M4.49866 13.5C4.49866 12.9477 4.94637 12.5 5.49866 12.5H7.49866C8.05094 12.5 8.49866 12.9477 8.49866 13.5C8.49866 14.0523 8.05094 14.5 7.49866 14.5H5.49866C4.94637 14.5 4.49866 14.0523 4.49866 13.5Z" fill="black"/>
<path fill-rule="evenodd" clip-rule="evenodd" d="M17.4987 17C16.9522 17 16.44 16.8539 15.9987 16.5987C15.5575 16.8539 15.0452 17 14.4988 17C12.8419 17 11.4988 15.6569 11.4988 14C11.4988 12.3431 12.8419 11 14.4988 11C15.0452 11 15.5575 11.1461 15.9987 11.4013C16.44 11.1461 16.9522 11 17.4987 11C19.1555 11 20.4987 12.3431 20.4987 14C20.4987 15.6569 19.1555 17 17.4987 17ZM17.4987 13C16.9464 13 16.4987 13.4477 16.4987 14C16.4987 14.5523 16.9464 15 17.4987 15C18.0509 15 18.4987 14.5523 18.4987 14C18.4987 13.4477 18.0509 13 17.4987 13ZM14.4987 14C14.4987 13.6545 14.5571 13.3226 14.6646 13.0137C14.6106 13.0047 14.5552 13 14.4988 13C13.9465 13 13.4988 13.4477 13.4988 14C13.4988 14.5523 13.9465 15 14.4988 15C14.5552 15 14.6106 14.9953 14.6646 14.9863C14.5571 14.6774 14.4987 14.3455 14.4987 14Z" fill="black"/>
<path fill-rule="evenodd" clip-rule="evenodd" d="M4.66011 4C4.13298 3.99998 3.67819 3.99997 3.30363 4.03057C2.90828 4.06287 2.51507 4.13419 2.13669 4.32698C1.5722 4.6146 1.11326 5.07354 0.825639 5.63803C0.632844 6.01641 0.561528 6.40963 0.529227 6.80497C0.498624 7.17955 0.498639 7.63431 0.498658 8.16146V15.8385C0.498639 16.3657 0.498624 16.8205 0.529227 17.195C0.561528 17.5904 0.632844 17.9836 0.825639 18.362C1.11326 18.9265 1.5722 19.3854 2.13669 19.673C2.51507 19.8658 2.90829 19.9371 3.30363 19.9694C3.67817 20 4.13288 20 4.65997 20H19.3372C19.8643 20 20.3191 20 20.6937 19.9694C21.089 19.9371 21.4822 19.8658 21.8606 19.673C22.4251 19.3854 22.8841 18.9265 23.1717 18.362C23.3645 17.9836 23.4358 17.5904 23.4681 17.195C23.4987 16.8205 23.4987 16.3657 23.4987 15.8386V8.16144C23.4987 7.6343 23.4987 7.17954 23.4681 6.80497C23.4358 6.40963 23.3645 6.01641 23.1717 5.63803C22.8841 5.07354 22.4251 4.6146 21.8606 4.32698C21.4822 4.13419 21.089 4.06287 20.6937 4.03057C20.3191 3.99997 19.8644 3.99998 19.3372 4H4.66011ZM3.04467 6.109C3.09411 6.0838 3.19483 6.04613 3.46649 6.02393C3.74983 6.00078 4.12211 6 4.69866 6H19.2987C19.8752 6 20.2475 6.00078 20.5308 6.02393C20.8025 6.04613 20.9032 6.0838 20.9526 6.109C21.1408 6.20487 21.2938 6.35785 21.3897 6.54601C21.4149 6.59546 21.4525 6.69618 21.4747 6.96784C21.4951 7.21698 21.4981 7.5349 21.4986 8H2.49873C2.49917 7.5349 2.50223 7.21698 2.52259 6.96784C2.54478 6.69618 2.58246 6.59546 2.60765 6.54601C2.70352 6.35785 2.85651 6.20487 3.04467 6.109ZM2.49866 10H21.4987V15.8C21.4987 16.3766 21.4979 16.7488 21.4747 17.0322C21.4525 17.3038 21.4149 17.4045 21.3897 17.454C21.2938 17.6422 21.1408 17.7951 20.9526 17.891C20.9032 17.9162 20.8025 17.9539 20.5308 17.9761C20.2475 17.9992 19.8752 18 19.2987 18H4.69866C4.12211 18 3.74983 17.9992 3.46649 17.9761C3.19483 17.9539 3.09411 17.9162 3.04467 17.891C2.85651 17.7951 2.70352 17.6422 2.60765 17.454C2.58246 17.4045 2.54478 17.3038 2.52259 17.0322C2.49944 16.7488 2.49866 16.3766 2.49866 15.8V10Z" fill="black"/>
</svg>
