<svg width="24" height="24" viewBox="0 0 24 24" fill="none" xmlns="http://www.w3.org/2000/svg">
<path fill-rule="evenodd" clip-rule="evenodd" d="M1.49869 10H22.4987V14.8983C22.4987 16.5784 22.4987 17.4185 22.1717 18.0602C21.8841 18.6247 21.4251 19.0837 20.8607 19.3713C20.2189 19.6983 19.3788 19.6983 17.6987 19.6983H6.29869C4.61853 19.6983 3.77845 19.6983 3.13672 19.3713C2.57223 19.0837 2.11329 18.6247 1.82567 18.0602C1.49869 17.4185 1.49869 16.5784 1.49869 14.8983V10ZM3.74869 15.75C3.74869 14.7835 4.53219 14 5.49869 14H7.49869C8.46519 14 9.24869 14.7835 9.24869 15.75C9.24869 16.7165 8.46519 17.5 7.49869 17.5H5.49869C4.53219 17.5 3.74869 16.7165 3.74869 15.75Z" fill="black"/>
<path d="M1.82567 5.88803C1.73246 6.07095 1.66582 6.27 1.61818 6.50002H22.3792C22.3315 6.27 22.2649 6.07095 22.1717 5.88803C21.8841 5.32354 21.4251 4.8646 20.8607 4.57698C20.2189 4.25 19.3788 4.25 17.6987 4.25H6.29869C4.61853 4.25 3.77845 4.25 3.13672 4.57698C2.57223 4.8646 2.11329 5.32354 1.82567 5.88803Z" fill="black"/>
</svg>
