<svg width="24" height="24" viewBox="0 0 24 24" fill="none" xmlns="http://www.w3.org/2000/svg">
<path d="M3.74805 13.5C3.74805 13.0858 4.08383 12.75 4.49805 12.75H6.49805C6.91226 12.75 7.24805 13.0858 7.24805 13.5C7.24805 13.9142 6.91226 14.25 6.49805 14.25H4.49805C4.08383 14.25 3.74805 13.9142 3.74805 13.5Z" fill="black"/>
<path fill-rule="evenodd" clip-rule="evenodd" d="M18.498 12.25C17.9447 12.25 17.4295 12.4134 16.9981 12.6947C16.5667 12.4134 16.0515 12.25 15.4981 12.25C13.9794 12.25 12.7481 13.4812 12.7481 15C12.7481 16.5188 13.9794 17.75 15.4981 17.75C16.0515 17.75 16.5667 17.5866 16.9981 17.3053C17.4295 17.5866 17.9447 17.75 18.498 17.75C20.0168 17.75 21.248 16.5188 21.248 15C21.248 13.4812 20.0168 12.25 18.498 12.25ZM18.498 13.75C17.8077 13.75 17.248 14.3096 17.248 15C17.248 15.6904 17.8077 16.25 18.498 16.25C19.1884 16.25 19.748 15.6904 19.748 15C19.748 14.3096 19.1884 13.75 18.498 13.75ZM15.748 15C15.748 14.5909 15.8374 14.2027 15.9976 13.8538C15.8446 13.787 15.6757 13.75 15.4981 13.75C14.8078 13.75 14.2481 14.3096 14.2481 15C14.2481 15.6904 14.8078 16.25 15.4981 16.25C15.6757 16.25 15.8446 16.213 15.9976 16.1462C15.8374 15.7973 15.748 15.4091 15.748 15Z" fill="black"/>
<path fill-rule="evenodd" clip-rule="evenodd" d="M4.66761 4.25C4.13346 4.24999 3.68761 4.24998 3.32338 4.27974C2.94349 4.31078 2.58684 4.37789 2.24957 4.54973C1.73213 4.81339 1.31143 5.23408 1.04778 5.75153C0.875935 6.08879 0.808825 6.44545 0.777787 6.82533C0.748028 7.18956 0.748036 7.63541 0.748047 8.16957V15.8304C0.748036 16.3646 0.748028 16.8104 0.777787 17.1747C0.808825 17.5546 0.875935 17.9112 1.04778 18.2485C1.31143 18.7659 1.73213 19.1866 2.24957 19.4503C2.58684 19.6221 2.94349 19.6892 3.32338 19.7203C3.6876 19.75 4.13343 19.75 4.66756 19.75H19.3285C19.8626 19.75 20.3085 19.75 20.6727 19.7203C21.0526 19.6892 21.4093 19.6221 21.7465 19.4503C22.264 19.1866 22.6847 18.7659 22.9483 18.2485C23.1202 17.9112 23.1873 17.5546 23.2183 17.1747C23.2481 16.8104 23.2481 16.3646 23.248 15.8305V8.16955C23.2481 7.6354 23.2481 7.18956 23.2183 6.82533C23.1873 6.44545 23.1202 6.08879 22.9483 5.75153C22.6847 5.23408 22.264 4.81339 21.7465 4.54973C21.4093 4.37789 21.0526 4.31078 20.6727 4.27974C20.3085 4.24998 19.8626 4.24999 19.3285 4.25H4.66761ZM2.93056 5.88624C3.02112 5.8401 3.1584 5.79822 3.44552 5.77476C3.7414 5.75058 4.12562 5.75 4.69805 5.75H19.298C19.8705 5.75 20.2547 5.75058 20.5506 5.77476C20.8377 5.79822 20.975 5.8401 21.0655 5.88624C21.3007 6.00608 21.492 6.19731 21.6118 6.43251C21.6579 6.52307 21.6998 6.66036 21.7233 6.94748C21.7475 7.24336 21.748 7.62757 21.748 8.2V8.25H2.24805V8.2C2.24805 7.62757 2.24863 7.24336 2.2728 6.94748C2.29626 6.66036 2.33815 6.52307 2.38429 6.43251C2.50413 6.19731 2.69536 6.00608 2.93056 5.88624ZM2.24805 9.75H21.748V15.8C21.748 16.3724 21.7475 16.7566 21.7233 17.0525C21.6998 17.3396 21.6579 17.4769 21.6118 17.5675C21.492 17.8027 21.3007 17.9939 21.0655 18.1138C20.975 18.1599 20.8377 18.2018 20.5506 18.2252C20.2547 18.2494 19.8705 18.25 19.298 18.25H4.69805C4.12562 18.25 3.7414 18.2494 3.44552 18.2252C3.1584 18.2018 3.02112 18.1599 2.93056 18.1138C2.69536 17.9939 2.50413 17.8027 2.38429 17.5675C2.33815 17.4769 2.29626 17.3396 2.2728 17.0525C2.24863 16.7566 2.24805 16.3724 2.24805 15.8V9.75Z" fill="black"/>
</svg>
