<svg width="24" height="24" viewBox="0 0 24 24" fill="none" xmlns="http://www.w3.org/2000/svg">
<path d="M4.68673 4.75H19.3094C19.8598 4.75 20.2883 4.75 20.632 4.77808C20.981 4.80659 21.2645 4.86529 21.5195 4.99524C21.9429 5.21095 22.2871 5.55516 22.5028 5.97852C22.6328 6.23355 22.6915 6.51708 22.72 6.86605C22.748 7.20974 22.748 7.6382 22.748 8.18868V8.5H1.24805V8.18869C1.24804 7.63821 1.24804 7.20974 1.27612 6.86605C1.30464 6.51708 1.36334 6.23355 1.49328 5.97852C1.709 5.55516 2.0532 5.21095 2.47657 4.99524C2.7316 4.86529 3.01513 4.80659 3.36409 4.77808C3.70776 4.75 4.13632 4.75 4.68673 4.75Z" fill="black"/>
<path d="M15.998 15C15.998 15.4544 16.1193 15.8805 16.3312 16.2477C16.0929 16.4071 15.8065 16.5 15.4983 16.5C14.6699 16.5 13.9983 15.8284 13.9983 15C13.9983 14.1716 14.6699 13.5 15.4983 13.5C15.8065 13.5 16.0929 13.5929 16.3312 13.7523C16.1193 14.1195 15.998 14.5456 15.998 15Z" fill="black"/>
<path fill-rule="evenodd" clip-rule="evenodd" d="M1.24805 9.5H22.748V15.8113C22.748 16.3618 22.748 16.7903 22.72 17.134C22.6915 17.4829 22.6328 17.7664 22.5028 18.0215C22.2871 18.4448 21.9429 18.789 21.5195 19.0048C21.2645 19.1347 20.981 19.1934 20.632 19.2219C20.2883 19.25 19.8599 19.25 19.3094 19.25H4.68673C4.13625 19.25 3.70779 19.25 3.36409 19.2219C3.01513 19.1934 2.7316 19.1347 2.47657 19.0048C2.0532 18.789 1.709 18.4448 1.49328 18.0215C1.36334 17.7664 1.30464 17.4829 1.27612 17.134C1.24804 16.7903 1.24804 16.3618 1.24805 15.8113V9.5ZM4.49805 13C4.2219 13 3.99805 13.2239 3.99805 13.5C3.99805 13.7761 4.2219 14 4.49805 14H6.49805C6.77419 14 6.99805 13.7761 6.99805 13.5C6.99805 13.2239 6.77419 13 6.49805 13H4.49805ZM18.498 12.5C17.9353 12.5 17.416 12.6859 16.9982 12.9997C16.5804 12.6859 16.061 12.5 15.4983 12.5C14.1176 12.5 12.9983 13.6193 12.9983 15C12.9983 16.3807 14.1176 17.5 15.4983 17.5C16.061 17.5 16.5804 17.3141 16.9982 17.0003C17.416 17.3141 17.9353 17.5 18.498 17.5C19.8788 17.5 20.998 16.3807 20.998 15C20.998 13.6193 19.8788 12.5 18.498 12.5Z" fill="black"/>
</svg>
