<svg width="24" height="24" viewBox="0 0 24 24" fill="none" xmlns="http://www.w3.org/2000/svg">
<path fill-rule="evenodd" clip-rule="evenodd" d="M1.29458 14.4318C1.34298 14.5158 1.39295 14.6024 1.4445 14.6917L4.36864 19.7564C5.20872 21.2115 5.62876 21.939 6.2328 22.3313C6.76413 22.6763 7.39106 22.8443 8.02373 22.8111C8.74298 22.7735 9.4705 22.3534 10.9256 21.5133L20.7983 15.8133C22.2533 14.9733 22.9808 14.5532 23.3731 13.9492C23.7182 13.4178 23.8861 12.7909 23.853 12.1583C23.8153 11.439 23.3953 10.7115 22.5552 9.25641L19.631 4.19166C19.5795 4.10237 19.5295 4.01581 19.481 3.9319L1.29458 14.4318ZM6.45958 18.378C6.3215 18.1389 6.40344 17.8331 6.64259 17.695L8.37464 16.695C8.61379 16.5569 8.91958 16.6389 9.05765 16.878C9.19572 17.1172 9.11379 17.423 8.87464 17.561L7.14259 18.561C6.90344 18.6991 6.59765 18.6172 6.45958 18.378Z" fill="black"/>
<path d="M0.802102 13.5615C0.387252 12.8019 0.173103 12.2938 0.146691 11.7898C0.113534 11.1572 0.281518 10.5302 0.626568 9.9989C1.01884 9.39486 1.74637 8.97482 3.20143 8.13474L13.0741 2.43474C14.5292 1.59466 15.2567 1.17462 15.976 1.13693C16.6086 1.10377 17.2355 1.27175 17.7669 1.6168C18.1901 1.89167 18.5231 2.33116 18.9735 3.07022L0.802102 13.5615Z" fill="black"/>
</svg>
