<svg width="24" height="24" viewBox="0 0 24 24" fill="none" xmlns="http://www.w3.org/2000/svg">
<path d="M4.68673 4.75H19.3094C19.8598 4.75 20.2883 4.75 20.632 4.77808C20.981 4.80659 21.2645 4.86529 21.5195 4.99524C21.9429 5.21095 22.2871 5.55516 22.5028 5.97852C22.6328 6.23355 22.6915 6.51708 22.72 6.86605C22.748 7.20974 22.748 7.6382 22.748 8.18868V8.75H1.24805V8.18869C1.24804 7.63821 1.24804 7.20974 1.27612 6.86605C1.30464 6.51708 1.36334 6.23355 1.49328 5.97852C1.709 5.55516 2.0532 5.21095 2.47657 4.99524C2.7316 4.86529 3.01513 4.80659 3.36409 4.77808C3.70776 4.75 4.13632 4.75 4.68673 4.75Z" fill="black"/>
<path d="M16.248 15C16.248 15.4864 16.4024 15.9367 16.6647 16.3046C16.3551 16.5816 15.9464 16.75 15.4983 16.75C14.5318 16.75 13.7483 15.9665 13.7483 15C13.7483 14.0335 14.5318 13.25 15.4983 13.25C15.9464 13.25 16.3551 13.4184 16.6647 13.6954C16.4024 14.0633 16.248 14.5136 16.248 15Z" fill="black"/>
<path fill-rule="evenodd" clip-rule="evenodd" d="M1.24805 9.25H22.748V15.8113C22.748 16.3618 22.748 16.7903 22.72 17.134C22.6915 17.4829 22.6328 17.7664 22.5028 18.0215C22.2871 18.4448 21.9429 18.789 21.5195 19.0048C21.2645 19.1347 20.981 19.1934 20.632 19.2219C20.2883 19.25 19.8599 19.25 19.3094 19.25H4.68673C4.13625 19.25 3.70779 19.25 3.36409 19.2219C3.01513 19.1934 2.7316 19.1347 2.47657 19.0048C2.0532 18.789 1.709 18.4448 1.49328 18.0215C1.36334 17.7664 1.30464 17.4829 1.27612 17.134C1.24804 16.7903 1.24804 16.3618 1.24805 15.8113V9.25ZM4.49805 13.25C4.35998 13.25 4.24805 13.3619 4.24805 13.5C4.24805 13.6381 4.35998 13.75 4.49805 13.75H6.49805C6.63612 13.75 6.74805 13.6381 6.74805 13.5C6.74805 13.3619 6.63612 13.25 6.49805 13.25H4.49805ZM18.498 12.75C17.9218 12.75 17.3962 12.9666 16.9982 13.3228C16.6001 12.9666 16.0745 12.75 15.4983 12.75C14.2557 12.75 13.2483 13.7574 13.2483 15C13.2483 16.2426 14.2557 17.25 15.4983 17.25C16.0745 17.25 16.6001 17.0334 16.9982 16.6772C17.3962 17.0334 17.9218 17.25 18.498 17.25C19.7407 17.25 20.748 16.2426 20.748 15C20.748 13.7574 19.7407 12.75 18.498 12.75Z" fill="black"/>
</svg>
