<svg width="24" height="24" viewBox="0 0 24 24" fill="none" xmlns="http://www.w3.org/2000/svg">
<path d="M6.49866 13C5.67023 13 4.99866 13.6716 4.99866 14.5C4.99866 15.3284 5.67023 16 6.49866 16H8.49866C9.32709 16 9.99866 15.3284 9.99866 14.5C9.99866 13.6716 9.32709 13 8.49866 13H6.49866Z" fill="black"/>
<path fill-rule="evenodd" clip-rule="evenodd" d="M6.29846 3.5C5.48322 3.5 4.78115 3.49888 4.20569 3.5459C3.61285 3.59437 3.02309 3.70115 2.45569 3.99024C1.60896 4.42167 0.920324 5.11031 0.488894 5.95703C0.199807 6.52444 0.0930238 7.11419 0.044558 7.70703C-0.00245884 8.28249 -0.00134064 8.98457 -0.00134044 9.79981V14.2002C-0.00134063 15.0154 -0.00245839 15.7175 0.044558 16.293C0.0930234 16.8858 0.199807 17.4756 0.488894 18.043C0.920324 18.8897 1.60896 19.5783 2.45569 20.0098C3.0231 20.2989 3.61285 20.4056 4.20569 20.4541C4.78115 20.5011 5.48322 20.5 6.29846 20.5H17.6989C18.5141 20.5 19.2162 20.5011 19.7916 20.4541C20.3845 20.4056 20.9742 20.2989 21.5416 20.0098C22.3884 19.5783 23.077 18.8897 23.5084 18.043C23.7975 17.4756 23.9043 16.8858 23.9528 16.293C23.9998 15.7175 23.9987 15.0154 23.9987 14.2002V9.79981C23.9987 8.98457 23.9998 8.28249 23.9528 7.70703C23.9043 7.11419 23.7975 6.52444 23.5084 5.95703C23.077 5.11031 22.3884 4.42167 21.5416 3.99024C20.9742 3.70115 20.3845 3.59437 19.7916 3.5459C19.2162 3.49888 18.5141 3.5 17.6989 3.5H6.29846ZM20.9987 14.2002C20.9987 15.0647 20.9972 15.6229 20.9625 16.0479C20.9293 16.4546 20.8734 16.6063 20.8356 16.6807C20.6918 16.9629 20.4616 17.1931 20.1793 17.3369C20.105 17.3747 19.9532 17.4306 19.5465 17.4639C19.1216 17.4986 18.5633 17.5 17.6989 17.5H6.29846C5.434 17.5 4.87574 17.4986 4.45081 17.4639C4.04408 17.4306 3.89231 17.3747 3.818 17.3369C3.53575 17.1931 3.30556 16.9629 3.16175 16.6807C3.12396 16.6063 3.06802 16.4546 3.03479 16.0479C3.0001 15.6229 2.99866 15.0647 2.99866 14.2002V11.5H20.9987V14.2002ZM17.6989 6.5C18.5633 6.5 19.1216 6.50144 19.5465 6.53614C19.9532 6.56937 20.105 6.6253 20.1793 6.66309C20.4616 6.8069 20.6918 7.0371 20.8356 7.31934C20.8734 7.39365 20.9293 7.54543 20.9625 7.95215C20.9756 8.11263 20.9826 8.29217 20.9879 8.5H3.0094C3.01473 8.29217 3.02169 8.11263 3.03479 7.95215C3.06802 7.54543 3.12396 7.39365 3.16175 7.31934C3.30556 7.0371 3.53576 6.8069 3.818 6.66309C3.89231 6.6253 4.04409 6.56937 4.45081 6.53614C4.87574 6.50144 5.434 6.5 6.29846 6.5H17.6989Z" fill="black"/>
</svg>
