<svg width="24" height="24" viewBox="0 0 24 24" fill="none" xmlns="http://www.w3.org/2000/svg">
<path fill-rule="evenodd" clip-rule="evenodd" d="M1.54451 15.6149L19.731 5.11488L22.5552 10.0064C23.3953 11.4615 23.8153 12.189 23.853 12.9083C23.8861 13.5409 23.7182 14.1678 23.3731 14.6992C22.9808 15.3032 22.2533 15.7233 20.7983 16.5633L10.9256 22.2633C9.4705 23.1034 8.74298 23.5235 8.02373 23.5611C7.39106 23.5943 6.76413 23.4263 6.2328 23.0813C5.62876 22.689 5.20872 21.9615 4.36864 20.5064L1.54451 15.6149ZM7.39259 19.744C7.11645 19.2658 7.28032 18.6542 7.75861 18.378L9.49066 17.378C9.96896 17.1019 10.5805 17.2658 10.8567 17.744C11.1328 18.2223 10.969 18.8339 10.4907 19.1101L8.75861 20.1101C8.28032 20.3862 7.66873 20.2223 7.39259 19.744Z" fill="black"/>
<path d="M0.146691 12.5398C0.167617 12.9391 0.306384 13.341 0.569439 13.8684L18.7061 3.39722C18.3808 2.90567 18.1022 2.58457 17.7669 2.3668C17.2355 2.02175 16.6086 1.85377 15.976 1.88693C15.2567 1.92462 14.5292 2.34466 13.0741 3.18474L3.20143 8.88474C1.74637 9.72482 1.01884 10.1449 0.626568 10.7489C0.281518 11.2802 0.113534 11.9072 0.146691 12.5398Z" fill="black"/>
</svg>
