<svg width="24" height="24" viewBox="0 0 24 24" fill="none" xmlns="http://www.w3.org/2000/svg">
<path d="M3.99866 13.5C3.99866 13.2239 4.22252 13 4.49866 13H6.49866C6.7748 13 6.99866 13.2239 6.99866 13.5C6.99866 13.7761 6.7748 14 6.49866 14H4.49866C4.22252 14 3.99866 13.7761 3.99866 13.5Z" fill="black"/>
<path fill-rule="evenodd" clip-rule="evenodd" d="M18.4987 12.5C17.9359 12.5 17.4165 12.686 16.9987 12.9998C16.5809 12.686 16.0615 12.5 15.4988 12.5C14.118 12.5 12.9988 13.6193 12.9988 15C12.9988 16.3807 14.118 17.5 15.4988 17.5C16.0615 17.5 16.5809 17.314 16.9987 17.0002C17.4165 17.314 17.9359 17.5 18.4987 17.5C19.8794 17.5 20.9987 16.3807 20.9987 15C20.9987 13.6193 19.8794 12.5 18.4987 12.5ZM18.4987 13.5C17.6702 13.5 16.9987 14.1716 16.9987 15C16.9987 15.8284 17.6702 16.5 18.4987 16.5C19.3271 16.5 19.9987 15.8284 19.9987 15C19.9987 14.1716 19.3271 13.5 18.4987 13.5ZM15.9987 15C15.9987 14.5456 16.1199 14.1195 16.3317 13.7524C16.0935 13.593 15.807 13.5 15.4988 13.5C14.6703 13.5 13.9988 14.1716 13.9988 15C13.9988 15.8284 14.6703 16.5 15.4988 16.5C15.807 16.5 16.0935 16.407 16.3317 16.2476C16.1199 15.8805 15.9987 15.4544 15.9987 15Z" fill="black"/>
<path fill-rule="evenodd" clip-rule="evenodd" d="M4.67725 4.5C4.13536 4.5 3.69828 4.49999 3.34435 4.52891C2.97992 4.55868 2.65983 4.62159 2.36368 4.77248C1.89328 5.01217 1.51082 5.39462 1.27114 5.86502C1.12025 6.16117 1.05734 6.48126 1.02757 6.84569C0.998648 7.19963 0.998652 7.6367 0.998657 8.1786V15.8214C0.998652 16.3633 0.998648 16.8004 1.02757 17.1543C1.05734 17.5187 1.12025 17.8388 1.27114 18.135C1.51082 18.6054 1.89328 18.9878 2.36368 19.2275C2.65983 19.3784 2.97992 19.4413 3.34435 19.4711C3.69827 19.5 4.13533 19.5 4.67719 19.5H19.3201C19.8619 19.5 20.299 19.5 20.653 19.4711C21.0174 19.4413 21.3375 19.3784 21.6336 19.2275C22.104 18.9878 22.4865 18.6054 22.7262 18.135C22.8771 17.8388 22.94 17.5187 22.9697 17.1543C22.9987 16.8004 22.9987 16.3633 22.9987 15.8214V8.17858C22.9987 7.6367 22.9987 7.19963 22.9697 6.84569C22.94 6.48126 22.8771 6.16117 22.7262 5.86502C22.4865 5.39462 22.104 5.01217 21.6336 4.77248C21.3375 4.62159 21.0174 4.55868 20.653 4.52891C20.299 4.49999 19.862 4.5 19.3201 4.5H4.67725ZM2.81767 5.66349C2.94935 5.5964 3.12319 5.55031 3.42578 5.52559C3.7342 5.50039 4.13035 5.5 4.69866 5.5H19.2987C19.867 5.5 20.2631 5.50039 20.5715 5.52559C20.8741 5.55031 21.048 5.5964 21.1796 5.66349C21.4619 5.8073 21.6914 6.03677 21.8352 6.31901C21.9023 6.45069 21.9483 6.62454 21.9731 6.92712C21.9983 7.23554 21.9987 7.6317 21.9987 8.2V8.5H1.99866V8.2C1.99866 7.6317 1.99905 7.23554 2.02424 6.92712C2.04897 6.62454 2.09505 6.45069 2.16215 6.31901C2.30596 6.03677 2.53543 5.8073 2.81767 5.66349ZM1.99866 9.5H21.9987V15.8C21.9987 16.3683 21.9983 16.7645 21.9731 17.0729C21.9483 17.3755 21.9023 17.5493 21.8352 17.681C21.6914 17.9632 21.4619 18.1927 21.1796 18.3365C21.048 18.4036 20.8741 18.4497 20.5715 18.4744C20.2631 18.4996 19.867 18.5 19.2987 18.5H4.69866C4.13036 18.5 3.7342 18.4996 3.42578 18.4744C3.12319 18.4497 2.94935 18.4036 2.81767 18.3365C2.53543 18.1927 2.30596 17.9632 2.16215 17.681C2.09505 17.5493 2.04897 17.3755 2.02424 17.0729C1.99905 16.7645 1.99866 16.3683 1.99866 15.8V9.5Z" fill="black"/>
</svg>
