<svg width="24" height="24" viewBox="0 0 24 24" fill="none" xmlns="http://www.w3.org/2000/svg">
<path fill-rule="evenodd" clip-rule="evenodd" d="M1.41963 14.6484C1.42792 14.6627 1.43625 14.6772 1.44463 14.6917L4.36876 19.7564C5.20884 21.2115 5.62888 21.939 6.23292 22.3313C6.76425 22.6763 7.39118 22.8443 8.02385 22.8111C8.7431 22.7735 9.47063 22.3534 10.9257 21.5133L20.7984 15.8133C22.2534 14.9733 22.981 14.5532 23.3732 13.9492C23.7183 13.4178 23.8863 12.7909 23.8531 12.1583C23.8154 11.439 23.3954 10.7115 22.5553 9.25641L19.6312 4.19166C19.6228 4.17716 19.6145 4.16273 19.6062 4.14837L1.41963 14.6484ZM6.24319 18.503C6.03608 18.1443 6.15899 17.6856 6.51771 17.4785L8.24976 16.4785C8.60848 16.2714 9.06717 16.3943 9.27428 16.753C9.48139 17.1117 9.35848 17.5704 8.99976 17.7775L7.26771 18.7775C6.90899 18.9846 6.4503 18.8617 6.24319 18.503Z" fill="black"/>
<path d="M0.683894 13.3411C0.346462 12.7004 0.170587 12.2435 0.146813 11.7898C0.113657 11.1572 0.28164 10.5302 0.62669 9.9989C1.01896 9.39486 1.74649 8.97482 3.20155 8.13474L13.0742 2.43474C14.5293 1.59466 15.2568 1.17462 15.9761 1.13693C16.6087 1.10377 17.2357 1.27175 17.767 1.6168C18.148 1.86421 18.4558 2.24499 18.8419 2.85757L0.683894 13.3411Z" fill="black"/>
</svg>
