<svg width="24" height="24" viewBox="0 0 24 24" fill="none" xmlns="http://www.w3.org/2000/svg">
<path d="M4.24866 13.5C4.24866 12.8096 4.80831 12.25 5.49866 12.25H7.49866C8.18902 12.25 8.74866 12.8096 8.74866 13.5C8.74866 14.1904 8.18902 14.75 7.49866 14.75H5.49866C4.80831 14.75 4.24866 14.1904 4.24866 13.5Z" fill="black"/>
<path fill-rule="evenodd" clip-rule="evenodd" d="M17.4987 17.25C16.9576 17.25 16.4475 17.1178 15.9987 16.8839C15.55 17.1178 15.0398 17.25 14.4988 17.25C12.7038 17.25 11.2488 15.7949 11.2488 14C11.2488 12.2051 12.7038 10.75 14.4988 10.75C15.0398 10.75 15.55 10.8822 15.9987 11.1161C16.4475 10.8822 16.9576 10.75 17.4987 10.75C19.2936 10.75 20.7487 12.2051 20.7487 14C20.7487 15.7949 19.2936 17.25 17.4987 17.25ZM17.4987 13.25C17.0844 13.25 16.7487 13.5858 16.7487 14C16.7487 14.4142 17.0844 14.75 17.4987 14.75C17.9129 14.75 18.2487 14.4142 18.2487 14C18.2487 13.5858 17.9129 13.25 17.4987 13.25ZM14.2487 14C14.2487 13.7486 14.2772 13.5038 14.3313 13.2688C13.9977 13.3449 13.7488 13.6434 13.7488 14C13.7488 14.3566 13.9977 14.6551 14.3313 14.7312C14.2772 14.4962 14.2487 14.2514 14.2487 14Z" fill="black"/>
<path fill-rule="evenodd" clip-rule="evenodd" d="M4.65281 3.75C4.13206 3.74998 3.66821 3.74995 3.28328 3.7814C2.87247 3.81497 2.44269 3.89049 2.02319 4.10423C1.41166 4.41582 0.914478 4.91301 0.60289 5.52454C0.389145 5.94403 0.313625 6.37381 0.280061 6.78462C0.248609 7.16957 0.248632 7.63338 0.248659 8.15416V15.8458C0.248632 16.3666 0.248609 16.8304 0.280061 17.2154C0.313625 17.6262 0.389145 18.056 0.60289 18.4755C0.914478 19.087 1.41166 19.5842 2.02319 19.8958C2.44269 20.1095 2.87247 20.185 3.28328 20.2186C3.66823 20.2501 4.13204 20.25 4.65283 20.25H19.3445C19.8653 20.25 20.3291 20.2501 20.714 20.2186C21.1249 20.185 21.5546 20.1095 21.9741 19.8958C22.5857 19.5842 23.0828 19.087 23.3944 18.4755C23.6082 18.056 23.6837 17.6262 23.7173 17.2154C23.7487 16.8304 23.7487 16.3666 23.7487 15.8459V8.15413C23.7487 7.63336 23.7487 7.16957 23.7173 6.78462C23.6837 6.37381 23.6082 5.94403 23.3944 5.52454C23.0828 4.91301 22.5857 4.41582 21.9741 4.10423C21.5546 3.89049 21.1249 3.81497 20.714 3.7814C20.3291 3.74995 19.8653 3.74998 19.3446 3.75H4.65281ZM3.15834 6.33166C3.16737 6.32706 3.23238 6.29389 3.48685 6.2731C3.75765 6.25098 4.11798 6.25 4.69866 6.25H19.2987C19.8793 6.25 20.2397 6.25098 20.5105 6.2731C20.765 6.29389 20.83 6.32706 20.839 6.33166C20.9801 6.40357 21.095 6.51839 21.1669 6.65951C21.1715 6.66855 21.2048 6.73377 21.2256 6.9882C21.2413 7.18101 21.2463 7.4192 21.2479 7.75H2.74939C2.75098 7.4192 2.756 7.18101 2.77176 6.9882C2.79255 6.73372 2.82571 6.66871 2.83032 6.65969C2.90222 6.51857 3.01722 6.40356 3.15834 6.33166ZM2.74866 10.25H21.2487V15.8C21.2487 16.3807 21.2477 16.741 21.2256 17.0118C21.2048 17.2663 21.1716 17.3313 21.167 17.3403C21.0951 17.4814 20.9803 17.5964 20.8392 17.6683C20.8301 17.6729 20.765 17.7061 20.5105 17.7269C20.2397 17.749 19.8793 17.75 19.2987 17.75H4.69866C4.11798 17.75 3.75765 17.749 3.48685 17.7269C3.23237 17.7061 3.16737 17.673 3.15834 17.6683C3.01722 17.5964 2.90231 17.4816 2.83041 17.3405C2.8258 17.3315 2.79255 17.2663 2.77176 17.0118C2.74963 16.741 2.74866 16.3807 2.74866 15.8V10.25Z" fill="black"/>
</svg>
