<svg width="24" height="24" viewBox="0 0 24 24" fill="none" xmlns="http://www.w3.org/2000/svg">
<path d="M6.88333 18.1314C6.52463 18.3385 6.40175 18.7972 6.60881 19.1559C6.81592 19.5146 7.27461 19.6375 7.63333 19.4304L9.36538 18.4304C9.72406 18.2233 9.847 17.7646 9.6399 17.4059C9.43279 17.0472 8.97407 16.9243 8.61538 17.1314L6.88333 18.1314Z" fill="black"/>
<path fill-rule="evenodd" clip-rule="evenodd" d="M3.62551 7.88905C2.9088 8.30284 2.33168 8.63492 1.88788 8.94189C1.43685 9.25386 1.06884 9.5763 0.797318 9.99439C0.366087 10.6585 0.15608 11.4421 0.197523 12.2329C0.223695 12.7305 0.381166 13.1941 0.615726 13.6896C0.846581 14.1773 1.18047 14.7537 1.59414 15.4702L3.79433 19.2811C4.20801 19.9976 4.54026 20.575 4.84717 21.0187C5.15907 21.4696 5.4817 21.8378 5.89967 22.1093C6.56375 22.5404 7.34745 22.7505 8.13814 22.7091C8.6359 22.6829 9.09928 22.5255 9.59491 22.2909C10.0826 22.06 10.6588 21.7262 11.3755 21.3124L20.3825 16.1123C21.0992 15.6985 21.6763 15.3664 22.1201 15.0594C22.5711 14.7475 22.9392 14.4249 23.2107 14.0069C23.6419 13.3429 23.8518 12.5591 23.8105 11.7684C23.7844 11.2707 23.6268 10.8072 23.3923 10.3117C23.1615 9.82403 22.8276 9.24759 22.4139 8.53108L20.2137 4.72023C19.8 4.00373 19.4677 3.42635 19.1608 2.9826C18.849 2.53168 18.5263 2.16354 18.1083 1.89204C17.4442 1.46076 16.6606 1.25084 15.8699 1.29224C15.372 1.31834 14.9088 1.47583 14.4131 1.71044C13.9254 1.94131 13.3492 2.27506 12.6325 2.68886L3.62551 7.88905ZM21.1148 9.28108C21.5409 10.019 21.8379 10.5341 22.0364 10.9535C22.2311 11.3648 22.3016 11.6257 22.3132 11.8469C22.338 12.3213 22.212 12.7919 21.9533 13.1903C21.8325 13.3761 21.6412 13.5667 21.2669 13.8256C20.8851 14.0897 20.3706 14.387 19.6325 14.8132L10.6255 20.0134C9.88737 20.4396 9.37258 20.7364 8.95307 20.935C8.54164 21.1297 8.28095 21.2001 8.05964 21.2118C7.58528 21.2366 7.11471 21.1105 6.71629 20.8518C6.53046 20.7311 6.33983 20.5397 6.08095 20.1654C5.81697 19.7838 5.51942 19.269 5.09337 18.5311L2.86779 14.6762L18.8893 5.42625L21.1148 9.28108ZM13.3825 3.98789C14.1207 3.56172 14.6354 3.26485 15.055 3.06629C15.4665 2.8715 15.727 2.80114 15.9484 2.78953C16.4228 2.76471 16.8933 2.89073 17.2917 3.14948C17.4775 3.27022 17.6682 3.46163 17.9271 3.83587C17.9906 3.92768 18.0554 4.02757 18.124 4.136L2.13301 13.3684C2.07345 13.2547 2.01933 13.1487 1.97157 13.0478C1.7769 12.6365 1.70649 12.3756 1.69481 12.1544C1.66995 11.6799 1.79605 11.2095 2.05476 10.811C2.17549 10.6251 2.36669 10.4347 2.74115 10.1757C3.12288 9.91163 3.63735 9.61426 4.37551 9.18809L13.3825 3.98789Z" fill="black"/>
</svg>
