<svg width="24" height="24" viewBox="0 0 24 24" fill="none" xmlns="http://www.w3.org/2000/svg">
<path d="M4.68673 4.75H19.3094C19.8598 4.75 20.2883 4.75 20.632 4.77808C20.981 4.80659 21.2645 4.86529 21.5195 4.99524C21.9429 5.21095 22.2871 5.55516 22.5028 5.97852C22.6328 6.23355 22.6915 6.51708 22.72 6.86605C22.7448 7.16944 22.7477 7.53888 22.748 8H1.24809C1.24843 7.53888 1.25134 7.16944 1.27612 6.86605C1.30464 6.51708 1.36334 6.23355 1.49328 5.97852C1.709 5.55516 2.0532 5.21095 2.47657 4.99524C2.7316 4.86529 3.01513 4.80659 3.36409 4.77808C3.70776 4.75 4.13632 4.75 4.68673 4.75Z" fill="black"/>
<path d="M15.748 15C15.748 15.4091 15.8374 15.7974 15.9976 16.1463C15.8447 16.213 15.6758 16.25 15.4983 16.25C14.8079 16.25 14.2483 15.6904 14.2483 15C14.2483 14.3096 14.8079 13.75 15.4983 13.75C15.6758 13.75 15.8447 13.787 15.9976 13.8537C15.8374 14.2026 15.748 14.5909 15.748 15Z" fill="black"/>
<path fill-rule="evenodd" clip-rule="evenodd" d="M1.24805 10H22.748V15.8113C22.748 16.3618 22.748 16.7903 22.72 17.134C22.6915 17.4829 22.6328 17.7664 22.5028 18.0215C22.2871 18.4448 21.9429 18.789 21.5195 19.0048C21.2645 19.1347 20.981 19.1934 20.632 19.2219C20.2883 19.25 19.8599 19.25 19.3094 19.25H4.68673C4.13625 19.25 3.70779 19.25 3.36409 19.2219C3.01513 19.1934 2.7316 19.1347 2.47657 19.0048C2.0532 18.789 1.709 18.4448 1.49328 18.0215C1.36334 17.7664 1.30464 17.4829 1.27612 17.134C1.24804 16.7903 1.24804 16.3618 1.24805 15.8113V10ZM5.49805 13.5C4.94576 13.5 4.49805 13.9477 4.49805 14.5C4.49805 15.0523 4.94576 15.5 5.49805 15.5H7.49805C8.05033 15.5 8.49805 15.0523 8.49805 14.5C8.49805 13.9477 8.05033 13.5 7.49805 13.5H5.49805ZM18.498 12.25C17.9447 12.25 17.4295 12.4134 16.9982 12.6947C16.5668 12.4134 16.0516 12.25 15.4983 12.25C13.9795 12.25 12.7483 13.4812 12.7483 15C12.7483 16.5188 13.9795 17.75 15.4983 17.75C16.0516 17.75 16.5668 17.5866 16.9982 17.3053C17.4295 17.5866 17.9447 17.75 18.498 17.75C20.0168 17.75 21.248 16.5188 21.248 15C21.248 13.4812 20.0168 12.25 18.498 12.25Z" fill="black"/>
</svg>
