<svg width="24" height="24" viewBox="0 0 24 24" fill="none" xmlns="http://www.w3.org/2000/svg">
<path d="M4.68673 4.75H19.3094C19.8598 4.75 20.2883 4.75 20.632 4.77808C20.981 4.80659 21.2645 4.86529 21.5195 4.99524C21.9429 5.21095 22.2871 5.55516 22.5028 5.97852C22.6328 6.23355 22.6915 6.51708 22.72 6.86605C22.7401 7.11252 22.7458 7.4026 22.7474 7.75H1.24868C1.25029 7.4026 1.25599 7.11252 1.27612 6.86605C1.30464 6.51708 1.36334 6.23355 1.49328 5.97852C1.709 5.55516 2.0532 5.21095 2.47657 4.99524C2.7316 4.86529 3.01513 4.80659 3.36409 4.77808C3.70776 4.75 4.13632 4.75 4.68673 4.75Z" fill="black"/>
<path fill-rule="evenodd" clip-rule="evenodd" d="M1.24805 10.25H22.748V15.8113C22.748 16.3618 22.748 16.7903 22.72 17.134C22.6915 17.4829 22.6328 17.7664 22.5028 18.0215C22.2871 18.4448 21.9429 18.789 21.5195 19.0048C21.2645 19.1347 20.981 19.1934 20.632 19.2219C20.2883 19.25 19.8599 19.25 19.3094 19.25H4.68673C4.13625 19.25 3.70779 19.25 3.36409 19.2219C3.01513 19.1934 2.7316 19.1347 2.47657 19.0048C2.0532 18.789 1.709 18.4448 1.49328 18.0215C1.36334 17.7664 1.30464 17.4829 1.27612 17.134C1.24804 16.7903 1.24804 16.3618 1.24805 15.8113V10.25ZM5.49805 13.25C4.80769 13.25 4.24805 13.8096 4.24805 14.5C4.24805 15.1904 4.80769 15.75 5.49805 15.75H7.49805C8.1884 15.75 8.74805 15.1904 8.74805 14.5C8.74805 13.8096 8.1884 13.25 7.49805 13.25H5.49805ZM17.498 17.5C18.8788 17.5 19.998 16.3807 19.998 15C19.998 13.6193 18.8788 12.5 17.498 12.5C16.9352 12.5 16.4159 12.686 15.998 12.9998C15.5802 12.686 15.0609 12.5 14.498 12.5C13.1173 12.5 11.998 13.6193 11.998 15C11.998 16.3807 13.1173 17.5 14.498 17.5C15.0609 17.5 15.5802 17.314 15.998 17.0002C16.4159 17.314 16.9352 17.5 17.498 17.5Z" fill="black"/>
</svg>
