<svg width="26" height="24" viewBox="0 0 26 24" fill="none" xmlns="http://www.w3.org/2000/svg">
<path d="M7.49866 12.75C6.53216 12.75 5.74866 13.5335 5.74866 14.5C5.74866 15.4665 6.53216 16.25 7.49866 16.25H9.49866C10.4652 16.25 11.2487 15.4665 11.2487 14.5C11.2487 13.5335 10.4652 12.75 9.49866 12.75H7.49866Z" fill="black"/>
<path fill-rule="evenodd" clip-rule="evenodd" d="M7.29846 3.25C6.48752 3.25 5.77409 3.24887 5.18616 3.29688C4.57776 3.34659 3.95103 3.45753 3.34241 3.76758C2.44864 4.22298 1.72164 4.94999 1.26624 5.84375C0.956183 6.45237 0.845243 7.0791 0.795535 7.6875C0.747525 8.27543 0.748659 8.98886 0.74866 9.79981V14.2002C0.748659 15.0111 0.747525 15.7246 0.795535 16.3125C0.845243 16.9209 0.956183 17.5476 1.26624 18.1563C1.72164 19.05 2.44864 19.777 3.34241 20.2324C3.95103 20.5425 4.57776 20.6534 5.18616 20.7031C5.77409 20.7511 6.48752 20.75 7.29846 20.75H18.6989C19.5098 20.75 20.2232 20.7511 20.8112 20.7031C21.4196 20.6534 22.0463 20.5425 22.6549 20.2324C23.5487 19.777 24.2757 19.05 24.7311 18.1563C25.0411 17.5476 25.1521 16.9209 25.2018 16.3125C25.2498 15.7246 25.2487 15.0111 25.2487 14.2002V9.79981C25.2487 8.98886 25.2498 8.27543 25.2018 7.6875C25.1521 7.0791 25.0411 6.45237 24.7311 5.84375C24.2757 4.94998 23.5487 4.22298 22.6549 3.76758C22.0463 3.45752 21.4196 3.34659 20.8112 3.29688C20.2232 3.24887 19.5098 3.25 18.6989 3.25H7.29846ZM21.7487 14.2002C21.7487 15.069 21.7472 15.6159 21.7135 16.0283C21.6815 16.42 21.6288 16.5343 21.6119 16.5674C21.4921 16.8025 21.3012 16.9935 21.066 17.1133C21.033 17.1301 20.9187 17.1828 20.527 17.2148C20.1145 17.2485 19.5677 17.25 18.6989 17.25H7.29846C6.42962 17.25 5.88277 17.2485 5.47034 17.2148C5.07866 17.1828 4.96431 17.1301 4.93128 17.1133C4.69616 16.9935 4.50521 16.8025 4.38538 16.5674C4.36854 16.5343 4.31585 16.42 4.28382 16.0283C4.25012 15.6159 4.24866 15.069 4.24866 14.2002V11.75H21.7487V14.2002ZM18.6989 6.75C19.5677 6.75 20.1145 6.75146 20.527 6.78516C20.9187 6.81719 21.033 6.86989 21.066 6.88672C21.3012 7.00655 21.4921 7.19751 21.6119 7.43262C21.6288 7.46566 21.6815 7.58 21.7135 7.97168C21.7206 8.05797 21.7246 8.15023 21.7291 8.25H4.26819C4.2727 8.15023 4.27677 8.05797 4.28382 7.97168C4.31585 7.58 4.36855 7.46566 4.38538 7.43262C4.50521 7.19751 4.69616 7.00655 4.93128 6.88672C4.96432 6.86989 5.07868 6.81719 5.47034 6.78516C5.88277 6.75146 6.42963 6.75 7.29846 6.75H18.6989Z" fill="black"/>
</svg>
