<svg width="24" height="24" viewBox="0 0 24 24" fill="none" xmlns="http://www.w3.org/2000/svg">
<path fill-rule="evenodd" clip-rule="evenodd" d="M1.41951 14.6484C1.4278 14.6627 1.43613 14.6772 1.4445 14.6917L4.36864 19.7564C5.20872 21.2115 5.62876 21.939 6.2328 22.3313C6.76413 22.6763 7.39106 22.8443 8.02373 22.8111C8.74298 22.7735 9.4705 22.3534 10.9256 21.5133L20.7983 15.8133C22.2533 14.9733 22.9808 14.5532 23.3731 13.9492C23.7182 13.4178 23.8861 12.7909 23.853 12.1583C23.8153 11.439 23.3953 10.7115 22.5552 9.25641L19.631 4.19166C19.6227 4.17716 19.6143 4.16273 19.606 4.14837L1.41951 14.6484ZM6.24307 18.503C6.03596 18.1443 6.15887 17.6856 6.51759 17.4785L8.24964 16.4785C8.60836 16.2714 9.06705 16.3943 9.27416 16.753C9.48127 17.1117 9.35836 17.5704 8.99964 17.7775L7.26759 18.7775C6.90887 18.9846 6.45018 18.8617 6.24307 18.503Z" fill="black"/>
<path d="M0.683772 13.3411C0.34634 12.7004 0.170465 12.2435 0.146691 11.7898C0.113534 11.1572 0.281518 10.5302 0.626568 9.9989C1.01884 9.39486 1.74637 8.97482 3.20143 8.13474L13.0741 2.43474C14.5292 1.59466 15.2567 1.17462 15.976 1.13693C16.6086 1.10377 17.2355 1.27175 17.7669 1.6168C18.1479 1.86421 18.4556 2.24499 18.8418 2.85757L0.683772 13.3411Z" fill="black"/>
</svg>
