<svg width="24" height="24" viewBox="0 0 24 24" fill="none" xmlns="http://www.w3.org/2000/svg">
<path d="M7.49649 17.1985C6.89863 17.5436 6.69379 18.3081 7.03896 18.906C7.38414 19.5039 8.14863 19.7087 8.74649 19.3635L10.4785 18.3635C11.0764 18.0183 11.2813 17.2539 10.9361 16.656C10.5909 16.0581 9.8264 15.8533 9.22854 16.1985L7.49649 17.1985Z" fill="black"/>
<path fill-rule="evenodd" clip-rule="evenodd" d="M3.80517 7.20529C3.09558 7.61497 2.4975 7.95903 2.033 8.28033C1.5565 8.60993 1.12853 8.97546 0.80678 9.47091C0.317989 10.2236 0.0799577 11.1119 0.126916 12.0082C0.157834 12.5981 0.345703 13.1287 0.593558 13.6524C0.835187 14.1629 1.1811 14.7599 1.59079 15.4695L3.79098 19.2803C4.20066 19.9899 4.54473 20.588 4.86602 21.0525C5.19562 21.529 5.56115 21.957 6.0566 22.2787C6.8093 22.7675 7.69764 23.0055 8.59389 22.9586C9.18384 22.9277 9.71438 22.7398 10.2381 22.4919C10.7486 22.2503 11.3456 21.9044 12.0552 21.4947L20.1961 16.7945C20.9057 16.3848 21.5038 16.0408 21.9683 15.7195C22.4448 15.3899 22.8728 15.0243 23.1945 14.5289C23.6833 13.7762 23.9214 12.8879 23.8744 11.9916C23.8435 11.4017 23.6556 10.8711 23.4078 10.3474C23.1661 9.83692 22.8202 9.23992 22.4105 8.53033L20.2103 4.71948C19.8007 4.00989 19.4566 3.41181 19.1353 2.9473C18.8057 2.47081 18.4402 2.04284 17.9447 1.72109C17.192 1.2323 16.3037 0.994263 15.4074 1.04122C14.8175 1.07214 14.2869 1.26001 13.7632 1.50786C13.2527 1.74949 12.6557 2.09541 11.9461 2.50509L3.80517 7.20529ZM20.2455 9.78033C20.6757 10.5255 20.9596 11.02 21.1474 11.4168C21.329 11.8003 21.3711 11.9934 21.3779 12.1226C21.3972 12.4915 21.2992 12.8573 21.098 13.1672C21.0276 13.2757 20.8945 13.4218 20.5455 13.6632C20.1845 13.9129 19.6913 14.1992 18.9461 14.6294L10.8052 19.3296C10.06 19.7599 9.56548 20.0438 9.16874 20.2316C8.78517 20.4131 8.59206 20.4553 8.46286 20.4621C8.09397 20.4814 7.72815 20.3833 7.41833 20.1822C7.30981 20.1117 7.16367 19.9787 6.92227 19.6296C6.67258 19.2686 6.38627 18.7755 5.95605 18.0303L3.98095 14.6094L18.2704 6.35936L20.2455 9.78033ZM13.1961 4.67016C13.9413 4.23993 14.4358 3.95601 14.8326 3.76821C15.2161 3.58666 15.4093 3.54448 15.5385 3.53771C15.9073 3.51843 16.2732 3.61645 16.583 3.81759C16.6745 3.87704 16.7916 3.98199 16.9713 4.22261L2.78 12.416C2.66147 12.14 2.62912 11.9862 2.6234 11.8772C2.60413 11.5083 2.70214 11.1425 2.90329 10.8326C2.97375 10.7241 3.10684 10.578 3.45585 10.3366C3.81686 10.0869 4.30999 9.80058 5.05517 9.37035L13.1961 4.67016Z" fill="black"/>
</svg>
