<svg width="24" height="24" viewBox="0 0 24 24" fill="none" xmlns="http://www.w3.org/2000/svg">
<path fill-rule="evenodd" clip-rule="evenodd" d="M1.79463 15.2979L19.9812 4.79789L22.5553 9.25641C23.3954 10.7115 23.8154 11.439 23.8531 12.1583C23.8863 12.7909 23.7183 13.4178 23.3732 13.9492C22.981 14.5532 22.2534 14.9733 20.7984 15.8133L10.9257 21.5133C9.47063 22.3534 8.7431 22.7735 8.02385 22.8111C7.39118 22.8443 6.76425 22.6763 6.23292 22.3313C5.62888 21.939 5.20884 21.2115 4.36876 19.7564L1.79463 15.2979ZM6.9597 19.244C6.54548 18.5266 6.7913 17.6092 7.50874 17.195L9.24079 16.195C9.95823 15.7808 10.8756 16.0266 11.2898 16.744C11.704 17.4615 11.4582 18.3789 10.7408 18.7931L9.00874 19.7931C8.2913 20.2073 7.37391 19.9615 6.9597 19.244Z" fill="black"/>
<path d="M0.146813 11.7898C0.161268 12.0656 0.231953 12.3427 0.36099 12.6615L18.4148 2.23813C18.2032 1.96697 17.9986 1.76723 17.767 1.6168C17.2357 1.27175 16.6087 1.10377 15.9761 1.13693C15.2568 1.17462 14.5293 1.59466 13.0742 2.43474L3.20155 8.13474C1.74649 8.97482 1.01896 9.39486 0.62669 9.9989C0.28164 10.5302 0.113657 11.1572 0.146813 11.7898Z" fill="black"/>
</svg>
