<svg width="24" height="24" viewBox="0 0 24 24" fill="none" xmlns="http://www.w3.org/2000/svg">
<path fill-rule="evenodd" clip-rule="evenodd" d="M1.66963 15.0814L19.8562 4.58139L22.5553 9.25641C23.3954 10.7115 23.8154 11.439 23.8531 12.1583C23.8863 12.7909 23.7183 13.4178 23.3732 13.9492C22.981 14.5532 22.2534 14.9733 20.7984 15.8133L10.9257 21.5133C9.47063 22.3534 8.7431 22.7735 8.02385 22.8111C7.39118 22.8443 6.76425 22.6763 6.23292 22.3313C5.62888 21.939 5.20884 21.2115 4.36876 19.7564L1.66963 15.0814ZM7.1762 19.119C6.83103 18.5212 7.03587 17.7567 7.63374 17.4115L9.36579 16.4115C9.96365 16.0663 10.7281 16.2712 11.0733 16.869C11.4185 17.4669 11.2137 18.2314 10.6158 18.5766L8.88374 19.5766C8.28587 19.9218 7.52138 19.7169 7.1762 19.119Z" fill="black"/>
<path d="M0.146813 11.7898C0.164646 12.1301 0.268062 12.4722 0.461053 12.8924L18.5647 2.44024C18.2974 2.06302 18.0528 1.80239 17.767 1.6168C17.2357 1.27175 16.6087 1.10377 15.9761 1.13693C15.2568 1.17462 14.5293 1.59466 13.0742 2.43474L3.20155 8.13474C1.74649 8.97482 1.01896 9.39486 0.62669 9.9989C0.28164 10.5302 0.113657 11.1572 0.146813 11.7898Z" fill="black"/>
</svg>
