<svg width="24" height="24" viewBox="0 0 24 24" fill="none" xmlns="http://www.w3.org/2000/svg">
<path d="M4.49866 15.25C4.36059 15.25 4.24866 15.3619 4.24866 15.5C4.24866 15.6381 4.36059 15.75 4.49866 15.75H6.49866C6.63673 15.75 6.74866 15.6381 6.74866 15.5C6.74866 15.3619 6.63673 15.25 6.49866 15.25H4.49866Z" fill="black"/>
<path fill-rule="evenodd" clip-rule="evenodd" d="M6.29846 4.75C5.46276 4.75 4.82094 4.75012 4.30823 4.79199C3.79251 4.83413 3.38506 4.92005 3.02307 5.10449C2.4117 5.41605 1.91471 5.91304 1.60315 6.52441C1.41871 6.8864 1.33279 7.29385 1.29065 7.80957C1.24878 8.32228 1.24866 8.96411 1.24866 9.7998V14.2002C1.24866 15.0359 1.24878 15.6777 1.29065 16.1904C1.33279 16.7061 1.41871 17.1136 1.60315 17.4756C1.91471 18.087 2.4117 18.5839 3.02307 18.8955C3.38506 19.0799 3.79251 19.1659 4.30823 19.208C4.82094 19.2499 5.46276 19.25 6.29846 19.25H17.6989C18.5345 19.25 19.1764 19.2499 19.6891 19.208C20.2048 19.1659 20.6123 19.0799 20.9742 18.8955C21.5856 18.5839 22.0826 18.087 22.3942 17.4756C22.5786 17.1136 22.6645 16.7061 22.7067 16.1904C22.7485 15.6777 22.7487 15.0359 22.7487 14.2002V9.7998C22.7487 8.96411 22.7485 8.32228 22.7067 7.80957C22.6645 7.29385 22.5786 6.8864 22.3942 6.52441C22.0826 5.91304 21.5856 5.41605 20.9742 5.10449C20.6123 4.92005 20.2048 4.83413 19.6891 4.79199C19.1764 4.75012 18.5345 4.75 17.6989 4.75H6.29846ZM22.2487 9.7998V14.2002C22.2487 15.0443 22.2485 15.6627 22.2086 16.1504C22.169 16.6348 22.0913 16.9684 21.9489 17.248C21.6852 17.7655 21.2641 18.1865 20.7467 18.4502C20.4671 18.5926 20.1335 18.6704 19.649 18.71C19.1614 18.7498 18.543 18.75 17.6989 18.75H6.29846C5.45436 18.75 4.83594 18.7498 4.34827 18.71C3.86384 18.6704 3.53023 18.5926 3.25061 18.4502C2.73316 18.1865 2.31211 17.7655 2.04846 17.248C1.90606 16.9684 1.8283 16.6348 1.7887 16.1504C1.74885 15.6627 1.74866 15.0443 1.74866 14.2002V9.7998C1.74866 9.60489 1.7501 9.42202 1.75061 9.25H22.2467C22.2472 9.42202 22.2487 9.60489 22.2487 9.7998ZM17.6989 5.25C18.543 5.25 19.1614 5.25019 19.649 5.29004C20.1335 5.32964 20.4671 5.4074 20.7467 5.5498C21.2641 5.81346 21.6852 6.23451 21.9489 6.75195C22.0913 7.03157 22.169 7.36518 22.2086 7.84961C22.2297 8.10824 22.2391 8.40366 22.2438 8.75H1.75354C1.75825 8.40366 1.76757 8.10824 1.7887 7.84961C1.8283 7.36518 1.90606 7.03157 2.04846 6.75195C2.31211 6.23451 2.73316 5.81346 3.25061 5.5498C3.53023 5.4074 3.86384 5.32964 4.34827 5.29004C4.83594 5.25019 5.45436 5.25 6.29846 5.25H17.6989Z" fill="black"/>
</svg>
