<svg width="24" height="24" viewBox="0 0 24 24" fill="none" xmlns="http://www.w3.org/2000/svg">
<path d="M4.49866 15C4.22251 15 3.99866 15.2239 3.99866 15.5C3.99866 15.7761 4.22251 16 4.49866 16H6.49866C6.7748 16 6.99866 15.7761 6.99866 15.5C6.99866 15.2239 6.7748 15 6.49866 15H4.49866Z" fill="black"/>
<path fill-rule="evenodd" clip-rule="evenodd" d="M6.29846 4.5C5.4668 4.5 4.813 4.50006 4.28772 4.54297C3.75654 4.58637 3.31289 4.67645 2.90979 4.88184C2.25128 5.21738 1.71604 5.75262 1.38049 6.41113C1.1751 6.81423 1.08502 7.25789 1.04163 7.78906C0.998719 8.31434 0.998657 8.96814 0.998657 9.7998V14.2002C0.998657 15.0319 0.998719 15.6857 1.04163 16.2109C1.08502 16.7421 1.1751 17.1858 1.38049 17.5889C1.71604 18.2474 2.25128 18.7826 2.90979 19.1182C3.31289 19.3236 3.75654 19.4136 4.28772 19.457C4.813 19.4999 5.4668 19.5 6.29846 19.5H17.6989C18.5305 19.5 19.1843 19.4999 19.7096 19.457C20.2408 19.4136 20.6844 19.3236 21.0875 19.1182C21.746 18.7826 22.2813 18.2474 22.6168 17.5889C22.8222 17.1858 22.9123 16.7421 22.9557 16.2109C22.9986 15.6857 22.9987 15.0319 22.9987 14.2002V9.7998C22.9987 8.96814 22.9986 8.31434 22.9557 7.78906C22.9123 7.25789 22.8222 6.81423 22.6168 6.41113C22.2813 5.75262 21.746 5.21738 21.0875 4.88184C20.6844 4.67645 20.2408 4.58637 19.7096 4.54297C19.1843 4.50006 18.5305 4.5 17.6989 4.5H6.29846ZM21.9987 9.7998V14.2002C21.9987 15.0484 21.9984 15.6547 21.9596 16.1299C21.9213 16.599 21.8477 16.8962 21.7262 17.1348C21.4865 17.6052 21.1038 17.9879 20.6334 18.2275C20.3949 18.3491 20.0976 18.4226 19.6285 18.4609C19.1534 18.4998 18.5471 18.5 17.6989 18.5H6.29846C5.45023 18.5 4.84391 18.4998 4.36877 18.4609C3.89966 18.4226 3.60246 18.3491 3.36389 18.2275C2.89349 17.9879 2.5108 17.6052 2.27112 17.1348C2.1496 16.8962 2.07606 16.599 2.03772 16.1299C1.9989 15.6547 1.99866 15.0484 1.99866 14.2002V9.7998C1.99866 9.69634 1.99956 9.59647 1.99963 9.5H21.9977C21.9978 9.59647 21.9987 9.69634 21.9987 9.7998ZM17.6989 5.5C18.5471 5.5 19.1534 5.50024 19.6285 5.53906C20.0976 5.5774 20.3949 5.65094 20.6334 5.77246C21.1038 6.01214 21.4865 6.39483 21.7262 6.86523C21.8477 7.10381 21.9213 7.40101 21.9596 7.87012C21.9749 8.05742 21.9832 8.26514 21.9889 8.5H2.00842C2.01408 8.26514 2.02242 8.05742 2.03772 7.87012C2.07606 7.40101 2.1496 7.10381 2.27112 6.86523C2.5108 6.39483 2.89349 6.01214 3.36389 5.77246C3.60246 5.65094 3.89966 5.5774 4.36877 5.53906C4.84391 5.50024 5.45024 5.5 6.29846 5.5H17.6989Z" fill="black"/>
</svg>
