<svg width="24" height="24" viewBox="0 0 24 24" fill="none" xmlns="http://www.w3.org/2000/svg">
<path fill-rule="evenodd" clip-rule="evenodd" d="M1.54463 15.6149L19.7312 5.11488L22.5553 10.0064C23.3954 11.4615 23.8154 12.189 23.8531 12.9083C23.8863 13.5409 23.7183 14.1678 23.3732 14.6992C22.981 15.3032 22.2534 15.7233 20.7984 16.5633L10.9257 22.2633C9.47063 23.1034 8.7431 23.5235 8.02385 23.5611C7.39118 23.5943 6.76425 23.4263 6.23292 23.0813C5.62888 22.689 5.20884 21.9615 4.36876 20.5064L1.54463 15.6149ZM7.39271 19.744C7.11657 19.2658 7.28044 18.6542 7.75874 18.378L9.49079 17.378C9.96908 17.1019 10.5807 17.2658 10.8568 17.744C11.133 18.2223 10.9691 18.8339 10.4908 19.1101L8.75874 20.1101C8.28044 20.3862 7.66885 20.2223 7.39271 19.744Z" fill="black"/>
<path d="M0.146813 12.5398C0.167739 12.9391 0.306506 13.341 0.569561 13.8684L18.7062 3.39722C18.381 2.90567 18.1023 2.58457 17.767 2.3668C17.2357 2.02175 16.6087 1.85377 15.9761 1.88693C15.2568 1.92462 14.5293 2.34466 13.0742 3.18474L3.20155 8.88474C1.74649 9.72482 1.01896 10.1449 0.62669 10.7489C0.28164 11.2802 0.113657 11.9072 0.146813 12.5398Z" fill="black"/>
</svg>
