<svg width="24" height="24" viewBox="0 0 24 24" fill="none" xmlns="http://www.w3.org/2000/svg">
<path d="M6.88235 18.1311C6.52365 18.3382 6.40077 18.7969 6.60784 19.1556C6.81494 19.5144 7.27363 19.6373 7.63235 19.4302L9.3644 18.4302C9.72308 18.223 9.84602 17.7643 9.63892 17.4056C9.43181 17.047 8.9731 16.9241 8.6144 17.1311L6.88235 18.1311Z" fill="black"/>
<path fill-rule="evenodd" clip-rule="evenodd" d="M3.62453 7.88881C2.90782 8.3026 2.33071 8.63468 1.8869 8.94164C1.43587 9.25362 1.06787 9.57606 0.796342 9.99414C0.36511 10.6583 0.155104 11.4418 0.196546 12.2326C0.222719 12.7303 0.380189 13.1938 0.61475 13.6894C0.845605 14.177 1.17949 14.7535 1.59316 15.47L3.79336 19.2808C4.20704 19.9973 4.53929 20.5747 4.84619 21.0185C5.15809 21.4693 5.48072 21.8376 5.89869 22.109C6.56278 22.5402 7.34647 22.7503 8.13716 22.7088C8.63492 22.6827 9.0983 22.5252 9.59393 22.2906C10.0817 22.0598 10.6578 21.726 11.3745 21.3122L20.3815 16.112C21.0982 15.6982 21.6754 15.3661 22.1192 15.0592C22.5701 14.7472 22.9382 14.4247 23.2097 14.0067C23.641 13.3426 23.8509 12.5589 23.8095 11.7682C23.7834 11.2705 23.6258 10.807 23.3913 10.3114C23.1605 9.82378 22.8266 9.24735 22.4129 8.53083L20.2127 4.71998C19.799 4.00349 19.4668 3.4261 19.1599 2.98235C18.848 2.53143 18.5253 2.1633 18.1074 1.89179C17.4433 1.46052 16.6597 1.2506 15.8689 1.292C15.3711 1.3181 14.9078 1.47558 14.4121 1.7102C13.9244 1.94106 13.3482 2.27482 12.6315 2.68861L3.62453 7.88881ZM21.1139 9.28083C21.5399 10.0188 21.8369 10.5338 22.0355 10.9533C22.2301 11.3646 22.3006 11.6254 22.3122 11.8467C22.337 12.3211 22.211 12.7917 21.9523 13.19C21.8315 13.3759 21.6402 13.5665 21.2659 13.8254C20.8842 14.0894 20.3697 14.3868 19.6315 14.813L10.6245 20.0132C9.8864 20.4393 9.3716 20.7362 8.95209 20.9348C8.54066 21.1295 8.27998 21.1999 8.05867 21.2115C7.58431 21.2364 7.11374 21.1102 6.71532 20.8516C6.52949 20.7309 6.33885 20.5394 6.07997 20.1652C5.81599 19.7835 5.51844 19.2688 5.0924 18.5308L2.86681 14.676L18.8883 5.426L21.1139 9.28083ZM13.3815 3.98765C14.1197 3.56148 14.6345 3.26461 15.054 3.06604C15.4655 2.87126 15.726 2.80089 15.9474 2.78928C16.4218 2.76447 16.8923 2.89049 17.2907 3.14923C17.4765 3.26998 17.6672 3.46139 17.9261 3.83563C17.9896 3.92744 18.0544 4.02733 18.1231 4.13576L2.13203 13.3682C2.07247 13.2545 2.01836 13.1484 1.97059 13.0475C1.77592 12.6362 1.70551 12.3754 1.69383 12.1541C1.66897 11.6797 1.79508 11.2092 2.05378 10.8108C2.17451 10.6249 2.36571 10.4344 2.74018 10.1754C3.1219 9.91139 3.63638 9.61402 4.37453 9.18785L13.3815 3.98765Z" fill="black"/>
</svg>
