<svg width="24" height="24" viewBox="0 0 24 24" fill="none" xmlns="http://www.w3.org/2000/svg">
<path d="M8.04537 15.1488C7.20836 15.632 6.92158 16.7023 7.40482 17.5393C7.88807 18.3764 8.95835 18.6631 9.79537 18.1799L11.5274 17.1799C12.3644 16.6966 12.6512 15.6263 12.168 14.7893C11.6847 13.9523 10.6144 13.6656 9.77742 14.1488L8.04537 15.1488Z" fill="black"/>
<path fill-rule="evenodd" clip-rule="evenodd" d="M3.98802 6.52165C3.28572 6.92712 2.6673 7.28286 2.18214 7.6184C1.68011 7.96565 1.19281 8.37509 0.820762 8.94792C0.274435 9.78918 0.00833376 10.7823 0.0608305 11.784C0.0966226 12.4661 0.313912 13.0644 0.575065 13.6161C0.82745 14.1493 1.18515 14.7666 1.59062 15.4689L3.79082 19.2797C4.19629 19.982 4.55202 20.6004 4.88756 21.0856C5.23481 21.5876 5.64426 22.0749 6.21708 22.447C7.05835 22.9933 8.05146 23.2594 9.05318 23.2069C9.73529 23.1711 10.3335 22.9538 10.8853 22.6927C11.4184 22.4403 12.0357 22.0826 12.738 21.6771L20.013 17.4769C20.7153 17.0714 21.3337 16.7157 21.8188 16.3802C22.3209 16.0329 22.8082 15.6235 23.1802 15.0506C23.7265 14.2094 23.9927 13.2163 23.9402 12.2145C23.9044 11.5324 23.6871 10.9342 23.4259 10.3824C23.1735 9.84928 22.8158 9.232 22.4104 8.5297L20.2102 4.71885C19.8047 4.01655 19.449 3.39813 19.1134 2.91298C18.7662 2.41094 18.3567 1.92365 17.7839 1.5516C16.9426 1.00527 15.9495 0.739168 14.9478 0.791666C14.2657 0.827458 13.6675 1.04475 13.1157 1.3059C12.5825 1.55829 11.9653 1.91598 11.263 2.32146L3.98802 6.52165ZM19.3793 10.2797C19.8137 11.0321 20.0859 11.5065 20.2629 11.8805C20.431 12.2357 20.4425 12.3611 20.4445 12.3981C20.4583 12.6616 20.3884 12.9225 20.2447 13.1438C20.2245 13.1749 20.1518 13.2777 19.8286 13.5013C19.4883 13.7367 19.0154 14.0114 18.263 14.4458L10.988 18.646C10.2356 19.0804 9.76126 19.3526 9.38724 19.5296C9.03201 19.6977 8.90664 19.7093 8.86961 19.7112C8.60608 19.725 8.34523 19.6551 8.1239 19.5114C8.0928 19.4912 7.98999 19.4185 7.76641 19.0953C7.53102 18.755 7.25632 18.2821 6.82191 17.5297L5.59681 15.4078L18.1542 8.15777L19.3793 10.2797ZM13.013 5.35255C13.7654 4.91813 14.2397 4.64596 14.6137 4.46893C14.969 4.30083 15.0943 4.28929 15.1314 4.28735C15.3949 4.27357 15.6558 4.34347 15.8771 4.48717C15.9082 4.50736 16.011 4.58004 16.2346 4.90323C16.2838 4.97443 16.3335 5.05229 16.3873 5.13645L3.86372 12.3669C3.81774 12.2783 3.77513 12.1963 3.73809 12.1181C3.57 11.7629 3.55846 11.6375 3.55652 11.6004C3.54274 11.3369 3.61263 11.0761 3.75633 10.8547C3.77653 10.8236 3.84922 10.7208 4.17239 10.4972C4.51272 10.2619 4.98558 9.98716 5.73802 9.55274L13.013 5.35255Z" fill="black"/>
</svg>
