<svg width="24" height="24" viewBox="0 0 24 24" fill="none" xmlns="http://www.w3.org/2000/svg">
<path d="M4.49866 14.75C4.08445 14.75 3.74866 15.0858 3.74866 15.5C3.74866 15.9142 4.08445 16.25 4.49866 16.25H6.49866C6.91287 16.25 7.24866 15.9142 7.24866 15.5C7.24866 15.0858 6.91287 14.75 6.49866 14.75H4.49866Z" fill="black"/>
<path fill-rule="evenodd" clip-rule="evenodd" d="M6.29846 4.25C5.47088 4.25 4.80504 4.24903 4.26721 4.29297C3.7206 4.33763 3.24071 4.43287 2.79651 4.65918C2.0909 5.01871 1.51736 5.59225 1.15784 6.29785C0.931523 6.74205 0.836288 7.22195 0.791628 7.76856C0.747689 8.30639 0.748659 8.97222 0.748659 9.79981V14.2002C0.748659 15.0278 0.747689 15.6936 0.791628 16.2314C0.836287 16.7781 0.931523 17.258 1.15784 17.7022C1.51736 18.4078 2.0909 18.9813 2.79651 19.3408C3.24071 19.5671 3.7206 19.6624 4.26721 19.707C4.80504 19.751 5.47088 19.75 6.29846 19.75H17.6989C18.5264 19.75 19.1923 19.751 19.7301 19.707C20.2767 19.6624 20.7566 19.5671 21.2008 19.3408C21.9064 18.9813 22.48 18.4078 22.8395 17.7022C23.0658 17.258 23.161 16.7781 23.2057 16.2314C23.2496 15.6936 23.2487 15.0278 23.2487 14.2002V9.79981C23.2487 8.97222 23.2496 8.30639 23.2057 7.76856C23.161 7.22195 23.0658 6.74205 22.8395 6.29785C22.48 5.59225 21.9064 5.01871 21.2008 4.65918C20.7566 4.43287 20.2767 4.33763 19.7301 4.29297C19.1923 4.24903 18.5264 4.25 17.6989 4.25H6.29846ZM21.7487 14.2002C21.7487 15.0525 21.7484 15.6468 21.7106 16.1094C21.6735 16.5632 21.6042 16.824 21.5035 17.0215C21.2878 17.4449 20.9435 17.7892 20.5201 18.0049C20.3226 18.1055 20.0619 18.1748 19.608 18.2119C19.1454 18.2497 18.5512 18.25 17.6989 18.25H6.29846C5.44611 18.25 4.85188 18.2497 4.38928 18.2119C3.93546 18.1748 3.67468 18.1055 3.47717 18.0049C3.05381 17.7892 2.70949 17.4449 2.49378 17.0215C2.39315 16.824 2.32383 16.5632 2.28674 16.1094C2.24895 15.6468 2.24866 15.0525 2.24866 14.2002V9.75H21.7487V14.2002ZM17.6989 5.75C18.5512 5.75 19.1454 5.75029 19.608 5.78809C20.0619 5.82517 20.3226 5.89449 20.5201 5.99512C20.9435 6.21083 21.2878 6.55515 21.5035 6.97852C21.6042 7.17602 21.6735 7.4368 21.7106 7.89063C21.7197 8.00216 21.7258 8.12139 21.7311 8.25H2.26624C2.27151 8.12139 2.27763 8.00216 2.28674 7.89063C2.32383 7.4368 2.39315 7.17602 2.49378 6.97852C2.70949 6.55515 3.05381 6.21083 3.47717 5.99512C3.67468 5.89449 3.93546 5.82517 4.38928 5.78809C4.85188 5.75029 5.44611 5.75 6.29846 5.75H17.6989Z" fill="black"/>
</svg>
