<svg width="24" height="24" viewBox="0 0 24 24" fill="none" xmlns="http://www.w3.org/2000/svg">
<path d="M4.49805 15.25C4.35998 15.25 4.24805 15.3619 4.24805 15.5C4.24805 15.6381 4.35998 15.75 4.49805 15.75H6.49805C6.63612 15.75 6.74805 15.6381 6.74805 15.5C6.74805 15.3619 6.63612 15.25 6.49805 15.25H4.49805Z" fill="black"/>
<path fill-rule="evenodd" clip-rule="evenodd" d="M6.29785 4.75C5.46215 4.75 4.82033 4.75012 4.30762 4.79199C3.7919 4.83413 3.38445 4.92005 3.02246 5.10449C2.41109 5.41605 1.9141 5.91304 1.60254 6.52441C1.4181 6.8864 1.33217 7.29385 1.29004 7.80957C1.24817 8.32228 1.24805 8.96411 1.24805 9.7998V14.2002C1.24805 15.0359 1.24817 15.6777 1.29004 16.1904C1.33217 16.7061 1.4181 17.1136 1.60254 17.4756C1.9141 18.087 2.41109 18.5839 3.02246 18.8955C3.38445 19.0799 3.7919 19.1659 4.30762 19.208C4.82033 19.2499 5.46215 19.25 6.29785 19.25H17.6982C18.5339 19.25 19.1758 19.2499 19.6885 19.208C20.2042 19.1659 20.6116 19.0799 20.9736 18.8955C21.585 18.5839 22.082 18.087 22.3936 17.4756C22.578 17.1136 22.6639 16.7061 22.7061 16.1904C22.7479 15.6777 22.748 15.0359 22.748 14.2002V9.7998C22.748 8.96411 22.7479 8.32228 22.7061 7.80957C22.6639 7.29385 22.578 6.8864 22.3936 6.52441C22.082 5.91304 21.585 5.41605 20.9736 5.10449C20.6116 4.92005 20.2042 4.83413 19.6885 4.79199C19.1758 4.75012 18.5339 4.75 17.6982 4.75H6.29785ZM22.248 9.7998V14.2002C22.248 15.0443 22.2479 15.6627 22.208 16.1504C22.1684 16.6348 22.0906 16.9684 21.9482 17.248C21.6846 17.7655 21.2635 18.1865 20.7461 18.4502C20.4665 18.5926 20.1329 18.6704 19.6484 18.71C19.1608 18.7498 18.5423 18.75 17.6982 18.75H6.29785C5.45375 18.75 4.83533 18.7498 4.34766 18.71C3.86323 18.6704 3.52962 18.5926 3.25 18.4502C2.73255 18.1865 2.3115 17.7655 2.04785 17.248C1.90545 16.9684 1.82769 16.6348 1.78809 16.1504C1.74824 15.6627 1.74805 15.0443 1.74805 14.2002V9.7998C1.74805 9.60489 1.74949 9.42202 1.75 9.25H22.2461C22.2466 9.42202 22.248 9.60489 22.248 9.7998ZM17.6982 5.25C18.5423 5.25 19.1608 5.25019 19.6484 5.29004C20.1329 5.32964 20.4665 5.4074 20.7461 5.5498C21.2635 5.81346 21.6846 6.23451 21.9482 6.75195C22.0906 7.03157 22.1684 7.36518 22.208 7.84961C22.2291 8.10824 22.2385 8.40366 22.2432 8.75H1.75293C1.75764 8.40366 1.76695 8.10824 1.78809 7.84961C1.82769 7.36518 1.90545 7.03157 2.04785 6.75195C2.3115 6.23451 2.73255 5.81346 3.25 5.5498C3.52962 5.4074 3.86323 5.32964 4.34766 5.29004C4.83533 5.25019 5.45375 5.25 6.29785 5.25H17.6982Z" fill="black"/>
</svg>
