<svg width="24" height="24" viewBox="0 0 24 24" fill="none" xmlns="http://www.w3.org/2000/svg">
<path d="M5.49866 14.25C4.8083 14.25 4.24866 14.8096 4.24866 15.5C4.24866 16.1904 4.8083 16.75 5.49866 16.75H7.49866C8.18902 16.75 8.74866 16.1904 8.74866 15.5C8.74866 14.8096 8.18902 14.25 7.49866 14.25H5.49866Z" fill="black"/>
<path fill-rule="evenodd" clip-rule="evenodd" d="M6.29846 3.75C5.4791 3.75 4.78912 3.74893 4.2262 3.79492C3.64874 3.84212 3.09534 3.94469 2.56897 4.21289C1.76932 4.62035 1.11901 5.27066 0.71155 6.07031C0.443351 6.59669 0.34078 7.15008 0.293581 7.72754C0.247589 8.29046 0.248659 8.98044 0.248659 9.79981V14.2002C0.248659 15.0196 0.247589 15.7095 0.293581 16.2725C0.340779 16.8499 0.443351 17.4033 0.71155 17.9297C1.11901 18.7293 1.76932 19.3797 2.56897 19.7871C3.09534 20.0553 3.64874 20.1579 4.2262 20.2051C4.78912 20.2511 5.4791 20.25 6.29846 20.25H17.6989C18.5182 20.25 19.2082 20.2511 19.7711 20.2051C20.3486 20.1579 20.902 20.0553 21.4283 19.7871C22.228 19.3797 22.8783 18.7293 23.2858 17.9297C23.554 17.4033 23.6565 16.8499 23.7037 16.2725C23.7497 15.7095 23.7487 15.0196 23.7487 14.2002V9.79981C23.7487 8.98044 23.7497 8.29046 23.7037 7.72754C23.6565 7.15008 23.554 6.59669 23.2858 6.07031C22.8783 5.27066 22.228 4.62035 21.4283 4.21289C20.902 3.94469 20.3486 3.84212 19.7711 3.79492C19.2082 3.74893 18.5182 3.75 17.6989 3.75H6.29846ZM21.2487 14.2002C21.2487 15.0607 21.2473 15.6309 21.2115 16.0684C21.177 16.4913 21.117 16.6796 21.0582 16.7949C20.8905 17.124 20.6227 17.3918 20.2936 17.5596C20.1783 17.6183 19.99 17.6783 19.567 17.7129C19.1295 17.7486 18.5593 17.75 17.6989 17.75H6.29846C5.43801 17.75 4.86779 17.7486 4.4303 17.7129C4.00734 17.6783 3.81902 17.6183 3.70374 17.5596C3.37463 17.3918 3.10684 17.124 2.93909 16.7949C2.88035 16.6796 2.82033 16.4913 2.78577 16.0684C2.75004 15.6309 2.74866 15.0607 2.74866 14.2002V10.25H21.2487V14.2002ZM17.6989 6.25C18.5593 6.25 19.1295 6.25138 19.567 6.28711C19.99 6.32167 20.1783 6.38169 20.2936 6.44043C20.6227 6.60818 20.8905 6.87597 21.0582 7.20508C21.1078 7.30234 21.1567 7.45176 21.192 7.75H2.8053C2.84062 7.45176 2.88954 7.30234 2.93909 7.20508C3.10684 6.87597 3.37463 6.60818 3.70374 6.44043C3.81902 6.38169 4.00735 6.32167 4.4303 6.28711C4.86779 6.25138 5.43801 6.25 6.29846 6.25H17.6989Z" fill="black"/>
</svg>
