<svg width="24" height="24" viewBox="0 0 24 24" fill="none" xmlns="http://www.w3.org/2000/svg">
<path fill-rule="evenodd" clip-rule="evenodd" d="M1.16995 14.2151C1.25589 14.365 1.34739 14.5235 1.4445 14.6917L4.36864 19.7564C5.20872 21.2115 5.62876 21.939 6.2328 22.3313C6.76413 22.6763 7.39106 22.8443 8.02373 22.8111C8.74298 22.7735 9.4705 22.3534 10.9256 21.5133L20.7983 15.8133C22.2533 14.9733 22.9808 14.5532 23.3731 13.9492C23.7182 13.4178 23.8861 12.7909 23.853 12.1583C23.8153 11.439 23.3953 10.7115 22.5552 9.25641L19.631 4.19166C19.5339 4.02346 19.4424 3.86498 19.3556 3.71561L1.16995 14.2151ZM6.67608 18.253C6.60705 18.1334 6.64802 17.9805 6.76759 17.9115L8.49964 16.9115C8.61921 16.8425 8.77211 16.8834 8.84115 17.003C8.91018 17.1226 8.86921 17.2755 8.74964 17.3445L7.01759 18.3445C6.89802 18.4136 6.74512 18.3726 6.67608 18.253Z" fill="black"/>
<path d="M0.923144 13.7803C0.428734 12.8965 0.175563 12.3407 0.146691 11.7898C0.113534 11.1572 0.281518 10.5302 0.626568 9.9989C1.01884 9.39486 1.74637 8.97482 3.20143 8.13474L13.0741 2.43474C14.5292 1.59466 15.2567 1.17462 15.976 1.13693C16.6086 1.10377 17.2355 1.27175 17.7669 1.6168C18.2295 1.91725 18.5842 2.41438 19.1024 3.28444L0.923144 13.7803Z" fill="black"/>
</svg>
