<svg width="26" height="24" viewBox="0 0 26 24" fill="none" xmlns="http://www.w3.org/2000/svg">
<path d="M8.62085 17.4149C8.14256 17.691 7.97868 18.3026 8.25482 18.7809C8.53097 19.2592 9.14256 19.4231 9.62085 19.147L11.3529 18.147C11.8312 17.8708 11.9951 17.2592 11.7189 16.7809C11.4428 16.3026 10.8312 16.1388 10.3529 16.4149L8.62085 17.4149Z" fill="black"/>
<path fill-rule="evenodd" clip-rule="evenodd" d="M4.49651 7.67173C3.78335 8.08348 3.19577 8.42154 2.74161 8.73567C2.27782 9.05647 1.87921 9.40024 1.58256 9.85703C1.1226 10.5654 0.898569 11.4015 0.942727 12.2449C0.971233 12.7888 1.14457 13.2858 1.38582 13.7956C1.62206 14.2947 1.96189 14.8813 2.37364 15.5944L4.57383 19.4053C4.98558 20.1184 5.32364 20.706 5.63777 21.1602C5.95857 21.624 6.30234 22.0226 6.75913 22.3192C7.46748 22.7792 8.30359 23.0032 9.14701 22.9591C9.69093 22.9305 10.1879 22.7572 10.6977 22.516C11.1968 22.2797 11.7834 21.9399 12.4965 21.5281L21.5035 16.3279C22.2167 15.9162 22.8043 15.5781 23.2584 15.264C23.7222 14.9432 24.1208 14.5994 24.4175 14.1426C24.8774 13.4343 25.1015 12.5982 25.0573 11.7548C25.0288 11.2108 24.8555 10.7138 24.6142 10.2041C24.378 9.70499 24.0381 9.11842 23.6264 8.40526L21.4262 4.59441C21.0145 3.88125 20.6764 3.29367 20.3623 2.83951C20.0415 2.37572 19.6977 1.97711 19.2409 1.68046C18.5325 1.2205 17.6964 0.996468 16.853 1.04063C16.3091 1.06913 15.8121 1.24246 15.3024 1.48372C14.8032 1.71996 14.2167 2.05979 13.5035 2.47154L4.49651 7.67173ZM21.8943 9.40526C22.3225 10.1469 22.6134 10.6513 22.8065 11.0595C22.9947 11.457 23.0506 11.6841 23.0597 11.8594C23.0818 12.2811 22.9698 12.6991 22.7398 13.0533C22.6442 13.2005 22.4824 13.3692 22.1206 13.6194C21.7492 13.8763 21.2452 14.1677 20.5035 14.5959L11.4965 19.7961C10.7549 20.2243 10.2504 20.5151 9.84232 20.7083C9.44473 20.8965 9.21771 20.9523 9.04242 20.9615C8.62071 20.9836 8.20266 20.8716 7.84848 20.6416C7.70127 20.546 7.53258 20.3841 7.28236 20.0223C7.0255 19.651 6.73408 19.1469 6.30588 18.4053L4.20579 14.7678L19.7942 5.76779L21.8943 9.40526ZM14.5035 4.20359C15.2452 3.77539 15.7496 3.48457 16.1577 3.29139C16.5553 3.1032 16.7823 3.04737 16.9576 3.03818C17.3793 3.0161 17.7974 3.12812 18.1515 3.3581C18.2988 3.4537 18.4674 3.61556 18.7177 3.97733C18.7342 4.00128 18.7495 4.02677 18.7663 4.05185L3.2337 13.0196C3.22042 12.9925 3.20595 12.9665 3.19349 12.9402C3.0053 12.5426 2.94947 12.3156 2.94028 12.1403C2.9182 11.7186 3.03022 11.3006 3.2602 10.9464C3.3558 10.7992 3.51766 10.6305 3.87943 10.3803C4.25079 10.1234 4.75486 9.83198 5.49651 9.40378L14.5035 4.20359Z" fill="black"/>
</svg>
