<svg width="24" height="24" viewBox="0 0 24 24" fill="none" xmlns="http://www.w3.org/2000/svg">
<path d="M5.5 0.75C5.91422 0.75 6.25 1.08579 6.25 1.5V3.5L4.75 3.5V1.5C4.75 1.08579 5.08579 0.75 5.5 0.75Z" fill="black"/>
<path d="M6.25 17.46V7.5H4.75L4.75 17.4677C4.74999 17.4968 4.74999 17.527 4.75087 17.555C4.77988 18.4783 5.52166 19.2201 6.44503 19.2491C6.473 19.25 6.50319 19.25 6.53229 19.25H16.5V17.75H6.54L6.50037 17.75C6.4921 17.7499 6.49077 17.7498 6.49215 17.7499C6.36035 17.7457 6.25446 17.64 6.25014 17.5082L6.25005 17.4996L6.25 17.46Z" fill="black"/>
<path d="M20.5 17.75V19.25H22.5C22.9142 19.25 23.25 18.9142 23.25 18.5C23.25 18.0858 22.9142 17.75 22.5 17.75H20.5Z" fill="black"/>
<path d="M17.75 22.5C17.75 22.9142 18.0858 23.25 18.5 23.25C18.9142 23.25 19.25 22.9142 19.25 22.5L19.25 6.5323C19.25 6.5032 19.25 6.473 19.2491 6.44503C19.2201 5.52165 18.4783 4.77988 17.555 4.75086C17.527 4.74998 17.4968 4.74999 17.4677 4.75L1.5 4.75C1.08579 4.75 0.75 5.08579 0.75 5.5C0.75 5.91421 1.08579 6.25 1.5 6.25L17.46 6.25L17.4996 6.25005C17.5037 6.25007 17.5061 6.2501 17.5073 6.25012C17.5086 6.25014 17.508 6.25014 17.5073 6.25012C17.6391 6.25426 17.7455 6.36005 17.7499 6.4918L17.7499 6.50037L17.75 6.54L17.75 22.5Z" fill="black"/>
</svg>
