<svg width="24" height="24" viewBox="0 0 24 24" fill="none" xmlns="http://www.w3.org/2000/svg">
<path d="M5.5 1.25C5.63807 1.25 5.75 1.36193 5.75 1.5V3.5L5.25 3.5V1.5C5.25 1.36193 5.36193 1.25 5.5 1.25Z" fill="black"/>
<path d="M5.75 17.5V7.5H5.25V17.5C5.25 18.1904 5.80964 18.75 6.5 18.75H16.5V18.25H6.5C6.08579 18.25 5.75 17.9142 5.75 17.5Z" fill="black"/>
<path d="M20.5 18.25V18.75H22.5C22.6381 18.75 22.75 18.6381 22.75 18.5C22.75 18.3619 22.6381 18.25 22.5 18.25H20.5Z" fill="black"/>
<path d="M18.25 22.5C18.25 22.6381 18.3619 22.75 18.5 22.75C18.6381 22.75 18.75 22.6381 18.75 22.5L18.75 7.0893C18.75 6.81836 18.75 6.59981 18.7355 6.42284C18.7207 6.24063 18.6892 6.08059 18.6138 5.93251C18.4939 5.69731 18.3027 5.50608 18.0675 5.38624C17.9194 5.31079 17.7594 5.27934 17.5772 5.26445C17.4002 5.25 17.1817 5.25 16.9107 5.25L1.5 5.25C1.36193 5.25 1.25 5.36193 1.25 5.5C1.25 5.63807 1.36193 5.75 1.5 5.75L16.9 5.75C17.1842 5.75 17.3822 5.75019 17.5364 5.76279C17.6877 5.77515 17.7747 5.7982 17.8405 5.83175C17.9816 5.90365 18.0963 6.01838 18.1683 6.15951C18.2018 6.22535 18.2248 6.31227 18.2372 6.46356C18.2498 6.61777 18.25 6.81585 18.25 7.1L18.25 22.5Z" fill="black"/>
</svg>
