<svg width="24" height="24" viewBox="0 0 24 24" fill="none" xmlns="http://www.w3.org/2000/svg">
<path d="M5.5 0.25C6.19036 0.25 6.75 0.809644 6.75 1.5V3L4.25 3V1.5C4.25 0.809644 4.80964 0.25 5.5 0.25Z" fill="black"/>
<path d="M6.75 17.25V8H4.25V17.5C4.25 18.7426 5.25736 19.75 6.5 19.75H16V17.25H6.75Z" fill="black"/>
<path d="M21 17.25V19.75H22.5C23.1904 19.75 23.75 19.1904 23.75 18.5C23.75 17.8096 23.1904 17.25 22.5 17.25H21Z" fill="black"/>
<path d="M17.25 22.5C17.25 23.1904 17.8096 23.75 18.5 23.75C19.1904 23.75 19.75 23.1904 19.75 22.5L19.75 7.06343C19.75 6.81538 19.7501 6.56011 19.7322 6.34141C19.7123 6.09736 19.664 5.79106 19.5048 5.47852C19.289 5.05516 18.9448 4.71095 18.5215 4.49524C18.2089 4.33599 17.9026 4.28772 17.6586 4.26778C17.4399 4.24991 17.1847 4.24995 16.9366 4.25L1.5 4.25C0.809644 4.25 0.25 4.80964 0.25 5.5C0.25 6.19035 0.809644 6.75 1.5 6.75L16.9 6.75C17.0415 6.75 17.1526 6.75003 17.2485 6.75151C17.25 6.8474 17.25 6.95848 17.25 7.1L17.25 22.5Z" fill="black"/>
</svg>
