<svg width="24" height="24" viewBox="0 0 24 24" fill="none" xmlns="http://www.w3.org/2000/svg">
<path d="M5.5 1C5.77614 1 6 1.22386 6 1.5V3.5L5 3.5V1.5C5 1.22386 5.22386 1 5.5 1Z" fill="black"/>
<path d="M6 17.5V7.5H5V17.5C5 18.3284 5.67157 19 6.5 19H16.5V18H6.5C6.22386 18 6 17.7761 6 17.5Z" fill="black"/>
<path d="M20.5 18V19H22.5C22.7761 19 23 18.7761 23 18.5C23 18.2239 22.7761 18 22.5 18H20.5Z" fill="black"/>
<path d="M18 22.5C18 22.7761 18.2239 23 18.5 23C18.7761 23 19 22.7761 19 22.5L19 7.08073C19 6.81715 19 6.58977 18.9847 6.40249C18.9686 6.20481 18.9329 6.0082 18.8365 5.81901C18.6927 5.53677 18.4632 5.3073 18.181 5.16349C17.9918 5.06709 17.7952 5.03144 17.5975 5.01529C17.4102 4.99998 17.1829 4.99999 16.9193 5L1.5 5C1.22386 5 1 5.22386 1 5.5C1 5.77614 1.22386 6 1.5 6L16.9 6C17.1883 6 17.3744 6.00039 17.5161 6.01196C17.6519 6.02306 17.7023 6.0419 17.727 6.0545C17.8211 6.10243 17.8976 6.17892 17.9455 6.273C17.9581 6.29773 17.9769 6.34809 17.988 6.48392C17.9996 6.62559 18 6.81172 18 7.1L18 22.5Z" fill="black"/>
</svg>
