<svg width="24" height="24" viewBox="0 0 24 24" fill="none" xmlns="http://www.w3.org/2000/svg">
<path fill-rule="evenodd" clip-rule="evenodd" d="M12 23.5C18.3513 23.5 23.5 18.3513 23.5 12C23.5 5.64873 18.3513 0.5 12 0.5C5.64873 0.5 0.5 5.64873 0.5 12C0.5 18.3513 5.64873 23.5 12 23.5ZM7.71746 7.71747C7.81509 7.61984 7.97338 7.61984 8.07101 7.71747L12 11.6464L15.929 7.71747C16.0266 7.61984 16.1849 7.61984 16.2825 7.71747C16.3802 7.8151 16.3802 7.97339 16.2825 8.07102L12.3535 12L16.2825 15.929C16.3802 16.0266 16.3802 16.1849 16.2825 16.2825C16.1849 16.3802 16.0266 16.3802 15.929 16.2825L12 12.3536L8.07101 16.2825C7.97338 16.3802 7.81509 16.3802 7.71746 16.2825C7.61983 16.1849 7.61983 16.0266 7.71746 15.929L11.6464 12L7.71746 8.07102C7.61983 7.97339 7.61983 7.8151 7.71746 7.71747Z" fill="black"/>
</svg>
