<svg width="24" height="24" viewBox="0 0 24 24" fill="none" xmlns="http://www.w3.org/2000/svg">
<path fill-rule="evenodd" clip-rule="evenodd" d="M0.123117 8.43565C0 9.21298 0 10.142 0 12C0 13.858 0 14.787 0.123117 15.5643C0.800832 19.8433 4.15673 23.1992 8.43565 23.8769C9.21298 24 10.142 24 12 24C13.858 24 14.787 24 15.5643 23.8769C19.8433 23.1992 23.1992 19.8433 23.8769 15.5643C24 14.787 24 13.858 24 12C24 10.142 24 9.21298 23.8769 8.43565C23.1992 4.15673 19.8433 0.800832 15.5643 0.123117C14.787 0 13.858 0 12 0C10.142 0 9.21298 0 8.43565 0.123117C4.15673 0.800832 0.800832 4.15673 0.123117 8.43565ZM18.0927 5.90731C17.8974 5.71205 17.5808 5.71205 17.3856 5.90731L12 11.2929L6.61442 5.90731C6.41916 5.71205 6.10258 5.71205 5.90732 5.90731C5.71205 6.10257 5.71205 6.41916 5.90732 6.61442L11.2929 12L5.90731 17.3856C5.71205 17.5808 5.71205 17.8974 5.90731 18.0927C6.10258 18.2879 6.41916 18.2879 6.61442 18.0927L12 12.7071L17.3856 18.0927C17.5808 18.2879 17.8974 18.2879 18.0927 18.0927C18.2879 17.8974 18.2879 17.5808 18.0927 17.3856L12.7071 12L18.0927 6.61442C18.2879 6.41916 18.2879 6.10257 18.0927 5.90731Z" fill="black"/>
</svg>
