<svg width="24" height="24" viewBox="0 0 24 24" fill="none" xmlns="http://www.w3.org/2000/svg">
<path d="M7.71746 7.71747C7.81509 7.61984 7.97338 7.61984 8.07101 7.71747L12 11.6464L15.929 7.71747C16.0266 7.61984 16.1849 7.61984 16.2825 7.71747C16.3802 7.8151 16.3802 7.97339 16.2825 8.07102L12.3535 12L16.2825 15.929C16.3802 16.0266 16.3802 16.1849 16.2825 16.2825C16.1849 16.3802 16.0266 16.3802 15.929 16.2825L12 12.3536L8.07101 16.2825C7.97338 16.3802 7.81509 16.3802 7.71746 16.2825C7.61983 16.1849 7.61983 16.0266 7.71746 15.929L11.6464 12L7.71746 8.07102C7.61983 7.97339 7.61983 7.8151 7.71746 7.71747Z" fill="black"/>
<path fill-rule="evenodd" clip-rule="evenodd" d="M0 12C0 13.858 0 14.787 0.123117 15.5643C0.800832 19.8433 4.15673 23.1992 8.43565 23.8769C9.21298 24 10.142 24 12 24C13.858 24 14.787 24 15.5643 23.8769C19.8433 23.1992 23.1992 19.8433 23.8769 15.5643C24 14.787 24 13.858 24 12C24 10.142 24 9.21298 23.8769 8.43565C23.1992 4.15673 19.8433 0.800833 15.5643 0.123117C14.787 0 13.858 0 12 0C10.142 0 9.21298 0 8.43565 0.123117C4.15673 0.800833 0.800832 4.15673 0.123117 8.43565C0 9.21298 0 10.142 0 12ZM12 0.5C10.1229 0.5 9.24254 0.501553 8.51387 0.616961C4.44889 1.26079 1.26079 4.44889 0.616961 8.51387C0.501552 9.24254 0.5 10.1229 0.5 12C0.5 13.8771 0.501552 14.7575 0.616961 15.4861C1.26079 19.5511 4.44889 22.7392 8.51387 23.383C9.24254 23.4984 10.1229 23.5 12 23.5C13.8771 23.5 14.7575 23.4984 15.4861 23.383C19.5511 22.7392 22.7392 19.5511 23.383 15.4861C23.4984 14.7575 23.5 13.8771 23.5 12C23.5 10.1229 23.4984 9.24254 23.383 8.51387C22.7392 4.44889 19.5511 1.26079 15.4861 0.616961C14.7575 0.501553 13.8771 0.5 12 0.5Z" fill="black"/>
</svg>
