<svg width="24" height="24" viewBox="0 0 24 24" fill="none" xmlns="http://www.w3.org/2000/svg">
<path fill-rule="evenodd" clip-rule="evenodd" d="M12 0C13.858 0 14.7871 -6.97747e-05 15.5645 0.123047C19.8433 0.800792 23.1992 4.1567 23.877 8.43555C24.0001 9.21287 24 10.142 24 12C24 13.858 24.0001 14.7871 23.877 15.5645C23.1992 19.8433 19.8433 23.1992 15.5645 23.877C14.7871 24.0001 13.858 24 12 24C10.142 24 9.21287 24.0001 8.43555 23.877C4.1567 23.1992 0.800792 19.8433 0.123047 15.5645C-6.97747e-05 14.7871 0 13.858 0 12C0 10.142 -6.97747e-05 9.21287 0.123047 8.43555C0.800792 4.1567 4.1567 0.800792 8.43555 0.123047C9.21287 -6.97747e-05 10.142 0 12 0ZM18.9766 5.02344C18.2932 4.34018 17.1853 4.34019 16.502 5.02344L12 9.52539L7.49805 5.02344C6.81462 4.34014 5.70682 4.34007 5.02344 5.02344C4.34006 5.70682 4.34013 6.81462 5.02344 7.49805L9.52539 12L5.02344 16.502L4.90332 16.6348C4.34293 17.3221 4.38291 18.3359 5.02344 18.9766C5.66408 19.6169 6.67798 19.657 7.36523 19.0967L7.49805 18.9766L12 14.4746L16.502 18.9766L16.6348 19.0967C17.3221 19.657 18.336 19.6172 18.9766 18.9766C19.6171 18.336 19.657 17.3221 19.0967 16.6348L18.9766 16.502L14.4746 12L18.9766 7.49805C19.6598 6.81471 19.6597 5.70683 18.9766 5.02344Z" fill="black"/>
</svg>
