<svg width="24" height="24" viewBox="0 0 24 24" fill="none" xmlns="http://www.w3.org/2000/svg">
<path d="M16.8128 7.18718C16.4223 6.79666 15.7892 6.79666 15.3986 7.18718L12 10.5858L8.60133 7.18718C8.21081 6.79666 7.57764 6.79666 7.18712 7.18718C6.7966 7.5777 6.7966 8.21087 7.18712 8.60139L10.5858 12L7.18712 15.3987C6.79659 15.7892 6.79659 16.4224 7.18712 16.8129C7.57764 17.2034 8.21081 17.2034 8.60133 16.8129L12 13.4143L15.3986 16.8129C15.7892 17.2034 16.4223 17.2034 16.8128 16.8129C17.2034 16.4224 17.2034 15.7892 16.8128 15.3987L13.4142 12L16.8128 8.60139C17.2034 8.21087 17.2034 7.5777 16.8128 7.18718Z" fill="black"/>
<path fill-rule="evenodd" clip-rule="evenodd" d="M24 12C24 18.6274 18.6274 24 12 24C5.37258 24 0 18.6274 0 12C0 5.37258 5.37258 0 12 0C18.6274 0 24 5.37258 24 12ZM22 12C22 17.5228 17.5228 22 12 22C6.47715 22 2 17.5228 2 12C2 6.47715 6.47715 2 12 2C17.5228 2 22 6.47715 22 12Z" fill="black"/>
</svg>
