<svg width="24" height="24" viewBox="0 0 24 24" fill="none" xmlns="http://www.w3.org/2000/svg">
<path fill-rule="evenodd" clip-rule="evenodd" d="M12 23.5C18.3513 23.5 23.5 18.3513 23.5 12C23.5 5.64873 18.3513 0.5 12 0.5C5.64873 0.5 0.5 5.64873 0.5 12C0.5 18.3513 5.64873 23.5 12 23.5ZM7.36391 7.36392C7.6568 7.07102 8.13167 7.07102 8.42457 7.36392L12 10.9393L15.5754 7.36392C15.8683 7.07102 16.3432 7.07102 16.6361 7.36392C16.929 7.65681 16.929 8.13168 16.6361 8.42458L13.0607 12L16.6361 15.5754C16.929 15.8683 16.929 16.3432 16.6361 16.6361C16.3432 16.929 15.8683 16.929 15.5754 16.6361L12 13.0607L8.42457 16.6361C8.13167 16.929 7.6568 16.929 7.36391 16.6361C7.07101 16.3432 7.07101 15.8683 7.36391 15.5754L10.9393 12L7.36391 8.42458C7.07101 8.13168 7.07101 7.65681 7.36391 7.36392Z" fill="black"/>
</svg>
