<svg width="24" height="24" viewBox="0 0 24 24" fill="none" xmlns="http://www.w3.org/2000/svg">
<path fill-rule="evenodd" clip-rule="evenodd" d="M12 0C13.858 0 14.7871 -6.97747e-05 15.5645 0.123047C19.8433 0.800792 23.1992 4.1567 23.877 8.43555C24.0001 9.21287 24 10.142 24 12C24 13.858 24.0001 14.7871 23.877 15.5645C23.1992 19.8433 19.8433 23.1992 15.5645 23.877C14.7871 24.0001 13.858 24 12 24C10.142 24 9.21287 24.0001 8.43555 23.877C4.1567 23.1992 0.800792 19.8433 0.123047 15.5645C-6.97747e-05 14.7871 0 13.858 0 12C0 10.142 -6.97747e-05 9.21287 0.123047 8.43555C0.800792 4.1567 4.1567 0.800792 8.43555 0.123047C9.21287 -6.97747e-05 10.142 0 12 0ZM18.7998 5.2002C18.2141 4.61457 17.2645 4.61458 16.6787 5.2002L12 9.87891L7.32129 5.2002C6.7355 4.61453 5.78594 4.61445 5.2002 5.2002C4.61445 5.78594 4.61452 6.73549 5.2002 7.32129L9.87891 12L5.2002 16.6787L5.09766 16.792C4.6169 17.3811 4.65104 18.2505 5.2002 18.7998C5.74948 19.3488 6.61893 19.3831 7.20801 18.9023L7.32129 18.7998L12 14.1211L16.6787 18.7998L16.792 18.9023C17.3812 19.383 18.2506 19.349 18.7998 18.7998C19.349 18.2506 19.383 17.3812 18.9023 16.792L18.7998 16.6787L14.1211 12L18.7998 7.32129C19.3854 6.73557 19.3853 5.78596 18.7998 5.2002Z" fill="black"/>
</svg>
