<svg width="24" height="24" viewBox="0 0 24 24" fill="none" xmlns="http://www.w3.org/2000/svg">
<path fill-rule="evenodd" clip-rule="evenodd" d="M0.123117 8.43565C0 9.21298 0 10.142 0 12C0 13.858 0 14.787 0.123117 15.5643C0.800832 19.8433 4.15673 23.1992 8.43565 23.8769C9.21298 24 10.142 24 12 24C13.858 24 14.787 24 15.5643 23.8769C19.8433 23.1992 23.1992 19.8433 23.8769 15.5643C24 14.787 24 13.858 24 12C24 10.142 24 9.21298 23.8769 8.43565C23.1992 4.15673 19.8433 0.800832 15.5643 0.123117C14.787 0 13.858 0 12 0C10.142 0 9.21298 0 8.43565 0.123117C4.15673 0.800832 0.800832 4.15673 0.123117 8.43565ZM18.623 5.37698C18.1348 4.88883 17.3434 4.88883 16.8552 5.37698L12 10.2322L7.14473 5.37698C6.65658 4.88883 5.86512 4.88883 5.37697 5.37698C4.88881 5.86514 4.88881 6.65659 5.37697 7.14475L10.2322 12L5.37697 16.8552C4.88881 17.3434 4.88881 18.1349 5.37697 18.623C5.86512 19.1112 6.65658 19.1112 7.14473 18.623L12 13.7678L16.8552 18.623C17.3434 19.1112 18.1348 19.1112 18.623 18.623C19.1111 18.1349 19.1111 17.3434 18.623 16.8552L13.7677 12L18.623 7.14475C19.1111 6.65659 19.1111 5.86514 18.623 5.37698Z" fill="black"/>
</svg>
