<svg width="24" height="24" viewBox="0 0 24 24" fill="none" xmlns="http://www.w3.org/2000/svg">
<path d="M16.4593 7.54073C16.264 7.34547 15.9474 7.34547 15.7522 7.54073L12 11.2929L8.24778 7.54073C8.05252 7.34547 7.73594 7.34547 7.54067 7.54073C7.34541 7.736 7.34541 8.05258 7.54067 8.24784L11.2929 12L7.54067 15.7522C7.34541 15.9475 7.34541 16.2641 7.54067 16.4594C7.73594 16.6546 8.05252 16.6546 8.24778 16.4594L12 12.7071L15.7522 16.4594C15.9474 16.6546 16.264 16.6546 16.4593 16.4594C16.6546 16.2641 16.6546 15.9475 16.4593 15.7522L12.7071 12L16.4593 8.24784C16.6546 8.05258 16.6546 7.736 16.4593 7.54073Z" fill="black"/>
<path fill-rule="evenodd" clip-rule="evenodd" d="M24 12C24 18.6274 18.6274 24 12 24C5.37258 24 0 18.6274 0 12C0 5.37258 5.37258 0 12 0C18.6274 0 24 5.37258 24 12ZM23 12C23 18.0751 18.0751 23 12 23C5.92487 23 1 18.0751 1 12C1 5.92487 5.92487 1 12 1C18.0751 1 23 5.92487 23 12Z" fill="black"/>
</svg>
