<svg width="24" height="24" viewBox="0 0 24 24" fill="none" xmlns="http://www.w3.org/2000/svg">
<path d="M7.3639 7.36396C7.65679 7.07106 8.13166 7.07106 8.42456 7.36396L12 10.9394L15.5754 7.36396C15.8683 7.07106 16.3432 7.07106 16.6361 7.36396C16.929 7.65685 16.929 8.13172 16.6361 8.42462L13.0606 12L16.6361 15.5755C16.929 15.8684 16.929 16.3432 16.6361 16.6361C16.3432 16.929 15.8683 16.929 15.5754 16.6361L12 13.0607L8.42456 16.6361C8.13166 16.929 7.65679 16.929 7.3639 16.6361C7.071 16.3432 7.071 15.8684 7.3639 15.5755L10.9393 12L7.3639 8.42462C7.071 8.13172 7.071 7.65685 7.3639 7.36396Z" fill="black"/>
<path fill-rule="evenodd" clip-rule="evenodd" d="M24 12C24 18.6274 18.6274 24 12 24C5.37258 24 0 18.6274 0 12C0 5.37258 5.37258 0 12 0C18.6274 0 24 5.37258 24 12ZM22.5 12C22.5 17.799 17.799 22.5 12 22.5C6.20101 22.5 1.5 17.799 1.5 12C1.5 6.20101 6.20101 1.5 12 1.5C17.799 1.5 22.5 6.20101 22.5 12Z" fill="black"/>
</svg>
