<svg width="24" height="24" viewBox="0 0 24 24" fill="none" xmlns="http://www.w3.org/2000/svg">
<path d="M7.01034 7.0104C7.4985 6.52225 8.28995 6.52225 8.77811 7.0104L12 10.2323L15.2219 7.0104C15.71 6.52225 16.5015 6.52225 16.9896 7.0104C17.4778 7.49856 17.4778 8.29002 16.9896 8.77817L13.7677 12L16.9896 15.2219C17.4778 15.7101 17.4778 16.5015 16.9896 16.9897C16.5015 17.4778 15.71 17.4778 15.2219 16.9897L12 13.7678L8.77811 16.9897C8.28995 17.4778 7.4985 17.4778 7.01034 16.9897C6.52219 16.5015 6.52219 15.7101 7.01034 15.2219L10.2322 12L7.01034 8.77817C6.52219 8.29002 6.52219 7.49856 7.01034 7.0104Z" fill="black"/>
<path fill-rule="evenodd" clip-rule="evenodd" d="M24 12C24 18.6274 18.6274 24 12 24C5.37258 24 0 18.6274 0 12C0 5.37258 5.37258 0 12 0C18.6274 0 24 5.37258 24 12ZM21.5 12C21.5 17.2467 17.2467 21.5 12 21.5C6.75329 21.5 2.5 17.2467 2.5 12C2.5 6.75329 6.75329 2.5 12 2.5C17.2467 2.5 21.5 6.75329 21.5 12Z" fill="black"/>
</svg>
