<svg width="24" height="24" viewBox="0 0 24 24" fill="none" xmlns="http://www.w3.org/2000/svg">
<path d="M16.4593 7.54069C16.264 7.34543 15.9475 7.34543 15.7522 7.54069L12 11.2929L8.24779 7.54069C8.05253 7.34543 7.73595 7.34543 7.54068 7.54069C7.34542 7.73595 7.34542 8.05254 7.54068 8.2478L11.2929 12L7.54068 15.7522C7.34542 15.9475 7.34542 16.264 7.54068 16.4593C7.73595 16.6546 8.05253 16.6546 8.24779 16.4593L12 12.7071L15.7522 16.4593C15.9475 16.6546 16.264 16.6546 16.4593 16.4593C16.6546 16.264 16.6546 15.9475 16.4593 15.7522L12.7071 12L16.4593 8.2478C16.6546 8.05254 16.6546 7.73595 16.4593 7.54069Z" fill="black"/>
<path fill-rule="evenodd" clip-rule="evenodd" d="M0 12C0 13.858 0 14.787 0.123117 15.5643C0.800832 19.8433 4.15673 23.1992 8.43565 23.8769C9.21298 24 10.142 24 12 24C13.858 24 14.787 24 15.5643 23.8769C19.8433 23.1992 23.1992 19.8433 23.8769 15.5643C24 14.787 24 13.858 24 12C24 10.142 24 9.21298 23.8769 8.43565C23.1992 4.15673 19.8433 0.800833 15.5643 0.123117C14.787 0 13.858 0 12 0C10.142 0 9.21298 0 8.43565 0.123117C4.15673 0.800833 0.800832 4.15673 0.123117 8.43565C0 9.21298 0 10.142 0 12ZM12 1C10.1038 1 9.27209 1.0031 8.59209 1.11081C4.74106 1.72075 1.72075 4.74106 1.11081 8.59209C1.0031 9.27209 1 10.1038 1 12C1 13.8962 1.0031 14.7279 1.11081 15.4079C1.72075 19.2589 4.74106 22.2793 8.59209 22.8892C9.27209 22.9969 10.1038 23 12 23C13.8962 23 14.7279 22.9969 15.4079 22.8892C19.2589 22.2793 22.2793 19.2589 22.8892 15.4079C22.9969 14.7279 23 13.8962 23 12C23 10.1038 22.9969 9.27209 22.8892 8.59209C22.2793 4.74106 19.2589 1.72075 15.4079 1.11081C14.7279 1.0031 13.8962 1 12 1Z" fill="black"/>
</svg>
