<svg width="24" height="24" viewBox="0 0 24 24" fill="none" xmlns="http://www.w3.org/2000/svg">
<path d="M16.8128 7.18712C16.4223 6.7966 15.7892 6.7966 15.3986 7.18712L12 10.5858L8.60133 7.18712C8.21081 6.7966 7.57764 6.7966 7.18712 7.18712C6.7966 7.57764 6.7966 8.21081 7.18712 8.60133L10.5858 12L7.18712 15.3986C6.79659 15.7892 6.79659 16.4223 7.18712 16.8128C7.57764 17.2034 8.21081 17.2034 8.60133 16.8128L12 13.4142L15.3986 16.8128C15.7892 17.2034 16.4223 17.2034 16.8128 16.8128C17.2034 16.4223 17.2034 15.7892 16.8128 15.3986L13.4142 12L16.8128 8.60133C17.2034 8.21081 17.2034 7.57764 16.8128 7.18712Z" fill="black"/>
<path fill-rule="evenodd" clip-rule="evenodd" d="M24 11.9999C24 18.6274 18.6274 23.9999 12 23.9999C5.37258 23.9999 0 18.6274 0 11.9999C0 5.37252 5.37258 -6.10352e-05 12 -6.10352e-05C18.6274 -6.10352e-05 24 5.37252 24 11.9999ZM22 11.9999C22 17.5228 17.5228 21.9999 12 21.9999C6.47715 21.9999 2 17.5228 2 11.9999C2 6.47709 6.47715 1.99994 12 1.99994C17.5228 1.99994 22 6.47709 22 11.9999Z" fill="black"/>
</svg>
