<svg width="24" height="24" viewBox="0 0 24 24" fill="none" xmlns="http://www.w3.org/2000/svg">
<path d="M7.71745 7.71751C7.81508 7.61988 7.97337 7.61988 8.071 7.71751L12 11.6465L15.929 7.71751C16.0266 7.61988 16.1849 7.61988 16.2825 7.71751C16.3801 7.81514 16.3801 7.97343 16.2825 8.07106L12.3535 12L16.2825 15.929C16.3801 16.0267 16.3801 16.1849 16.2825 16.2826C16.1849 16.3802 16.0266 16.3802 15.929 16.2826L12 12.3536L8.071 16.2826C7.97337 16.3802 7.81508 16.3802 7.71745 16.2826C7.61982 16.1849 7.61982 16.0267 7.71745 15.929L11.6464 12L7.71745 8.07106C7.61982 7.97343 7.61982 7.81514 7.71745 7.71751Z" fill="black"/>
<path fill-rule="evenodd" clip-rule="evenodd" d="M24 12C24 18.6274 18.6274 24 12 24C5.37258 24 0 18.6274 0 12C0 5.37258 5.37258 0 12 0C18.6274 0 24 5.37258 24 12ZM23.5 12C23.5 18.3513 18.3513 23.5 12 23.5C5.64873 23.5 0.5 18.3513 0.5 12C0.5 5.64873 5.64873 0.5 12 0.5C18.3513 0.5 23.5 5.64873 23.5 12Z" fill="black"/>
</svg>
