<svg width="24" height="24" viewBox="0 0 24 24" fill="none" xmlns="http://www.w3.org/2000/svg">
<path fill-rule="evenodd" clip-rule="evenodd" d="M12 23.5C18.3513 23.5 23.5 18.3513 23.5 12C23.5 5.64873 18.3513 0.5 12 0.5C5.64873 0.5 0.5 5.64873 0.5 12C0.5 18.3513 5.64873 23.5 12 23.5ZM17.3426 6.65707C16.6592 5.97381 15.5514 5.97371 14.868 6.65707L11.9998 9.52426L9.13167 6.65707C8.44826 5.97366 7.34048 5.97366 6.65706 6.65707C5.97365 7.34049 5.97365 8.44827 6.65706 9.13168L9.52425 11.9989L6.65609 14.868L6.53597 15.0018C5.97598 15.6891 6.01574 16.7031 6.65609 17.3436C7.29657 17.9841 8.31054 18.0237 8.99788 17.4637L9.13167 17.3436L11.9998 14.4745L14.868 17.3436L15.0018 17.4637C15.6891 18.0239 16.703 17.9841 17.3436 17.3436C17.9841 16.7031 18.0239 15.6891 17.4637 15.0018L17.3436 14.868L14.4744 11.9989L17.3426 9.13168C18.026 8.44827 18.026 7.34049 17.3426 6.65707Z" fill="black"/>
</svg>
