<svg width="24" height="24" viewBox="0 0 24 24" fill="none" xmlns="http://www.w3.org/2000/svg">
<path d="M7.01035 7.01036C7.49851 6.52221 8.28996 6.52221 8.77812 7.01036L12 10.2322L15.2219 7.01036C15.71 6.52221 16.5015 6.52221 16.9896 7.01036C17.4778 7.49852 17.4778 8.28997 16.9896 8.77813L13.7678 12L16.9896 15.2219C17.4778 15.71 17.4778 16.5015 16.9896 16.9896C16.5015 17.4778 15.71 17.4778 15.2219 16.9896L12 13.7678L8.77812 16.9896C8.28996 17.4778 7.49851 17.4778 7.01035 16.9896C6.5222 16.5015 6.5222 15.71 7.01035 15.2219L10.2322 12L7.01035 8.77813C6.5222 8.28997 6.5222 7.49852 7.01035 7.01036Z" fill="black"/>
<path fill-rule="evenodd" clip-rule="evenodd" d="M0 12C0 13.858 0 14.787 0.123117 15.5643C0.800832 19.8433 4.15673 23.1992 8.43565 23.8769C9.21298 24 10.142 24 12 24C13.858 24 14.787 24 15.5643 23.8769C19.8433 23.1992 23.1992 19.8433 23.8769 15.5643C24 14.787 24 13.858 24 12C24 10.142 24 9.21298 23.8769 8.43565C23.1992 4.15673 19.8433 0.800833 15.5643 0.123117C14.787 0 13.858 0 12 0C10.142 0 9.21298 0 8.43565 0.123117C4.15673 0.800833 0.800832 4.15673 0.123117 8.43565C0 9.21298 0 10.142 0 12ZM12 2.5C10.0465 2.5 9.36075 2.50776 8.82674 2.59234C5.61755 3.10062 3.10062 5.61755 2.59234 8.82674C2.50776 9.36075 2.5 10.0465 2.5 12C2.5 13.9535 2.50776 14.6392 2.59234 15.1733C3.10062 18.3825 5.61755 20.8994 8.82674 21.4077C9.36075 21.4922 10.0465 21.5 12 21.5C13.9535 21.5 14.6392 21.4922 15.1733 21.4077C18.3825 20.8994 20.8994 18.3825 21.4077 15.1733C21.4922 14.6392 21.5 13.9535 21.5 12C21.5 10.0465 21.4922 9.36075 21.4077 8.82674C20.8994 5.61755 18.3825 3.10062 15.1733 2.59234C14.6392 2.50776 13.9535 2.5 12 2.5Z" fill="black"/>
</svg>
