<svg width="24" height="24" viewBox="0 0 24 24" fill="none" xmlns="http://www.w3.org/2000/svg">
<path d="M16.4593 7.54067C16.264 7.34541 15.9474 7.34541 15.7522 7.54067L12 11.2929L8.24778 7.54067C8.05252 7.34541 7.73594 7.34541 7.54067 7.54067C7.34541 7.73593 7.34541 8.05252 7.54067 8.24778L11.2929 12L7.54067 15.7522C7.34541 15.9474 7.34541 16.264 7.54067 16.4593C7.73594 16.6546 8.05252 16.6546 8.24778 16.4593L12 12.7071L15.7522 16.4593C15.9474 16.6546 16.264 16.6546 16.4593 16.4593C16.6546 16.264 16.6546 15.9474 16.4593 15.7522L12.7071 12L16.4593 8.24778C16.6546 8.05252 16.6546 7.73593 16.4593 7.54067Z" fill="black"/>
<path fill-rule="evenodd" clip-rule="evenodd" d="M24 11.9999C24 18.6274 18.6274 23.9999 12 23.9999C5.37258 23.9999 0 18.6274 0 11.9999C0 5.37252 5.37258 -6.10352e-05 12 -6.10352e-05C18.6274 -6.10352e-05 24 5.37252 24 11.9999ZM23 11.9999C23 18.0751 18.0751 22.9999 12 22.9999C5.92487 22.9999 1 18.0751 1 11.9999C1 5.92481 5.92487 0.999939 12 0.999939C18.0751 0.999939 23 5.92481 23 11.9999Z" fill="black"/>
</svg>
