<svg width="24" height="24" viewBox="0 0 24 24" fill="none" xmlns="http://www.w3.org/2000/svg">
<path d="M7.3639 7.3639C7.65679 7.071 8.13166 7.071 8.42456 7.3639L12 10.9393L15.5754 7.3639C15.8683 7.071 16.3432 7.071 16.6361 7.3639C16.929 7.65679 16.929 8.13166 16.6361 8.42456L13.0606 12L16.6361 15.5754C16.929 15.8683 16.929 16.3432 16.6361 16.6361C16.3432 16.929 15.8683 16.929 15.5754 16.6361L12 13.0606L8.42456 16.6361C8.13166 16.929 7.65679 16.929 7.3639 16.6361C7.071 16.3432 7.071 15.8683 7.3639 15.5754L10.9393 12L7.3639 8.42456C7.071 8.13166 7.071 7.65679 7.3639 7.3639Z" fill="black"/>
<path fill-rule="evenodd" clip-rule="evenodd" d="M24 11.9999C24 18.6274 18.6274 23.9999 12 23.9999C5.37258 23.9999 0 18.6274 0 11.9999C0 5.37252 5.37258 -6.10352e-05 12 -6.10352e-05C18.6274 -6.10352e-05 24 5.37252 24 11.9999ZM22.5 11.9999C22.5 17.7989 17.799 22.4999 12 22.4999C6.20101 22.4999 1.5 17.7989 1.5 11.9999C1.5 6.20095 6.20101 1.49994 12 1.49994C17.799 1.49994 22.5 6.20095 22.5 11.9999Z" fill="black"/>
</svg>
