<svg width="24" height="24" viewBox="0 0 24 24" fill="none" xmlns="http://www.w3.org/2000/svg">
<path d="M16.8129 7.18714C16.4223 6.79662 15.7892 6.79662 15.3986 7.18714L12 10.5858L8.60134 7.18714C8.21082 6.79662 7.57765 6.79662 7.18713 7.18714C6.79661 7.57766 6.79661 8.21083 7.18713 8.60135L10.5858 12L7.18713 15.3986C6.79661 15.7892 6.79661 16.4223 7.18713 16.8129C7.57765 17.2034 8.21082 17.2034 8.60134 16.8129L12 13.4142L15.3986 16.8129C15.7892 17.2034 16.4223 17.2034 16.8129 16.8129C17.2034 16.4223 17.2034 15.7892 16.8129 15.3986L13.4142 12L16.8129 8.60135C17.2034 8.21083 17.2034 7.57766 16.8129 7.18714Z" fill="black"/>
<path fill-rule="evenodd" clip-rule="evenodd" d="M0 12C0 13.858 0 14.787 0.123117 15.5643C0.800832 19.8433 4.15673 23.1992 8.43565 23.8769C9.21298 24 10.142 24 12 24C13.858 24 14.787 24 15.5643 23.8769C19.8433 23.1992 23.1992 19.8433 23.8769 15.5643C24 14.787 24 13.858 24 12C24 10.142 24 9.21298 23.8769 8.43565C23.1992 4.15673 19.8433 0.800833 15.5643 0.123117C14.787 0 13.858 0 12 0C10.142 0 9.21298 0 8.43565 0.123117C4.15673 0.800833 0.800832 4.15673 0.123117 8.43565C0 9.21298 0 10.142 0 12ZM12 2C10.0656 2 9.3312 2.00621 8.74852 2.09849C5.32538 2.64067 2.64067 5.32538 2.09849 8.74852C2.00621 9.3312 2 10.0656 2 12C2 13.9344 2.00621 14.6688 2.09849 15.2515C2.64067 18.6746 5.32538 21.3593 8.74852 21.9015C9.3312 21.9938 10.0656 22 12 22C13.9344 22 14.6688 21.9938 15.2515 21.9015C18.6746 21.3593 21.3593 18.6746 21.9015 15.2515C21.9938 14.6688 22 13.9344 22 12C22 10.0656 21.9938 9.3312 21.9015 8.74852C21.3593 5.32538 18.6746 2.64067 15.2515 2.09849C14.6688 2.00621 13.9344 2 12 2Z" fill="black"/>
</svg>
