<svg width="24" height="24" viewBox="0 0 24 24" fill="none" xmlns="http://www.w3.org/2000/svg">
<path fill-rule="evenodd" clip-rule="evenodd" d="M12 23.5C18.3513 23.5 23.5 18.3513 23.5 12C23.5 5.64873 18.3513 0.5 12 0.5C5.64873 0.5 0.5 5.64873 0.5 12C0.5 18.3513 5.64873 23.5 12 23.5ZM16.4593 7.54069C16.264 7.34543 15.9475 7.34543 15.7522 7.54069L12 11.2929L8.24779 7.54069C8.05253 7.34543 7.73595 7.34543 7.54068 7.54069C7.34542 7.73595 7.34542 8.05254 7.54068 8.2478L11.2929 12L7.54068 15.7522C7.34542 15.9475 7.34542 16.264 7.54068 16.4593C7.73595 16.6546 8.05253 16.6546 8.24779 16.4593L12 12.7071L15.7522 16.4593C15.9475 16.6546 16.264 16.6546 16.4593 16.4593C16.6546 16.264 16.6546 15.9475 16.4593 15.7522L12.7071 12L16.4593 8.2478C16.6546 8.05254 16.6546 7.73595 16.4593 7.54069Z" fill="black"/>
</svg>
