<svg width="24" height="24" viewBox="0 0 24 24" fill="none" xmlns="http://www.w3.org/2000/svg">
<path d="M15.5127 6.0127C16.1961 5.32937 17.3039 5.32931 17.9873 6.0127C18.6702 6.69612 18.6705 7.80403 17.9873 8.4873L14.4746 12L17.9873 15.5127L18.1074 15.6455C18.6677 16.3328 18.6279 17.3467 17.9873 17.9873C17.3467 18.6279 16.3328 18.6677 15.6455 18.1074L15.5127 17.9873L12 14.4746L8.4873 17.9873L8.35449 18.1074C7.6673 18.6679 6.65344 18.6276 6.0127 17.9873C5.37198 17.3466 5.33193 16.3329 5.89258 15.6455L6.0127 15.5127L9.52539 12L6.0127 8.4873C5.32931 7.8039 5.32931 6.69611 6.0127 6.0127C6.69611 5.32931 7.8039 5.32931 8.4873 6.0127L12 9.52539L15.5127 6.0127Z" fill="black"/>
<path fill-rule="evenodd" clip-rule="evenodd" d="M12 0C13.858 0 14.7871 -6.97747e-05 15.5645 0.123047C19.8433 0.800792 23.1992 4.1567 23.877 8.43555C24.0001 9.21287 24 10.142 24 12C24 13.858 24.0001 14.7871 23.877 15.5645L23.8057 15.9629C22.9886 20.0505 19.7096 23.2204 15.5645 23.877L15.2646 23.918C14.5406 24.0005 13.626 24 12 24C10.374 24 9.45938 24.0005 8.73535 23.918L8.43555 23.877C4.29043 23.2204 1.0114 20.0505 0.194336 15.9629L0.123047 15.5645C-6.97747e-05 14.7871 0 13.858 0 12C0 10.142 -6.97747e-05 9.21287 0.123047 8.43555C0.800792 4.1567 4.1567 0.800792 8.43555 0.123047C9.21287 -6.97747e-05 10.142 0 12 0ZM12 3.5C10.0086 3.5 9.42006 3.51094 8.9834 3.58008C6.2021 4.02059 4.02059 6.2021 3.58008 8.9834C3.51094 9.42006 3.5 10.0086 3.5 12C3.5 13.9914 3.51094 14.5799 3.58008 15.0166C4.02059 17.7979 6.2021 19.9794 8.9834 20.4199C9.42006 20.4891 10.0086 20.5 12 20.5C13.9914 20.5 14.5799 20.4891 15.0166 20.4199C17.7979 19.9794 19.9794 17.7979 20.4199 15.0166C20.4891 14.5799 20.5 13.9914 20.5 12C20.5 10.0086 20.4891 9.42006 20.4199 8.9834C19.9794 6.2021 17.7979 4.02059 15.0166 3.58008C14.5799 3.51094 13.9914 3.5 12 3.5Z" fill="black"/>
</svg>
