<svg width="24" height="24" viewBox="0 0 24 24" fill="none" xmlns="http://www.w3.org/2000/svg">
<path fill-rule="evenodd" clip-rule="evenodd" d="M0.123117 8.43565C0 9.21298 0 10.142 0 12C0 13.858 0 14.787 0.123117 15.5643C0.800832 19.8433 4.15673 23.1992 8.43565 23.8769C9.21298 24 10.142 24 12 24C13.858 24 14.787 24 15.5643 23.8769C19.8433 23.1992 23.1992 19.8433 23.8769 15.5643C24 14.787 24 13.858 24 12C24 10.142 24 9.21298 23.8769 8.43565C23.1992 4.15673 19.8433 0.800832 15.5643 0.123117C14.787 0 13.858 0 12 0C10.142 0 9.21298 0 8.43565 0.123117C4.15673 0.800832 0.800832 4.15673 0.123117 8.43565ZM18.4462 5.55376C18.0557 5.16323 17.4225 5.16323 17.032 5.55376L12 10.5858L6.96797 5.55376C6.57745 5.16323 5.94428 5.16323 5.55376 5.55376C5.16323 5.94428 5.16323 6.57745 5.55376 6.96797L10.5858 12L5.55376 17.032C5.16323 17.4225 5.16323 18.0557 5.55376 18.4462C5.94428 18.8368 6.57745 18.8368 6.96797 18.4462L12 13.4142L17.032 18.4462C17.4225 18.8368 18.0557 18.8368 18.4462 18.4462C18.8368 18.0557 18.8368 17.4225 18.4462 17.032L13.4142 12L18.4462 6.96797C18.8368 6.57745 18.8368 5.94428 18.4462 5.55376Z" fill="black"/>
</svg>
