<svg width="24" height="24" viewBox="0 0 24 24" fill="none" xmlns="http://www.w3.org/2000/svg">
<path fill-rule="evenodd" clip-rule="evenodd" d="M12 23.5C18.3513 23.5 23.5 18.3513 23.5 12C23.5 5.64873 18.3513 0.5 12 0.5C5.64873 0.5 0.5 5.64873 0.5 12C0.5 18.3513 5.64873 23.5 12 23.5ZM16.8129 7.18714C16.4223 6.79662 15.7892 6.79662 15.3986 7.18714L12 10.5858L8.60134 7.18714C8.21082 6.79662 7.57765 6.79662 7.18713 7.18714C6.79661 7.57766 6.79661 8.21083 7.18713 8.60135L10.5858 12L7.18713 15.3986C6.79661 15.7892 6.79661 16.4223 7.18713 16.8129C7.57765 17.2034 8.21082 17.2034 8.60134 16.8129L12 13.4142L15.3986 16.8129C15.7892 17.2034 16.4223 17.2034 16.8129 16.8129C17.2034 16.4223 17.2034 15.7892 16.8129 15.3986L13.4142 12L16.8129 8.60135C17.2034 8.21083 17.2034 7.57766 16.8129 7.18714Z" fill="black"/>
</svg>
