<svg width="24" height="24" viewBox="0 0 24 24" fill="none" xmlns="http://www.w3.org/2000/svg">
<path d="M15.6895 6.18945C16.2752 5.60373 17.2248 5.60369 17.8105 6.18945C18.396 6.77524 18.3962 7.72486 17.8105 8.31055L14.1211 12L17.8105 15.6895L17.9141 15.8037C18.394 16.3929 18.3595 17.2616 17.8105 17.8105C17.2616 18.3595 16.3928 18.394 15.8037 17.9141L15.6895 17.8105L12 14.1211L8.31055 17.8105L8.19629 17.9141C7.60725 18.3941 6.7385 18.3593 6.18945 17.8105C5.64043 17.2615 5.60583 16.3929 6.08594 15.8037L6.18945 15.6895L9.87891 12L6.18945 8.31055C5.60368 7.72477 5.6037 6.77524 6.18945 6.18945C6.77524 5.60367 7.72476 5.60367 8.31055 6.18945L12 9.87891L15.6895 6.18945Z" fill="black"/>
<path fill-rule="evenodd" clip-rule="evenodd" d="M12 0C13.858 0 14.7871 -6.97747e-05 15.5645 0.123047C19.8433 0.800792 23.1992 4.1567 23.877 8.43555C24.0001 9.21287 24 10.142 24 12C24 13.858 24.0001 14.7871 23.877 15.5645L23.8057 15.9629C22.9886 20.0505 19.7096 23.2204 15.5645 23.877L15.2646 23.918C14.5406 24.0005 13.626 24 12 24C10.374 24 9.45938 24.0005 8.73535 23.918L8.43555 23.877C4.29043 23.2204 1.0114 20.0505 0.194336 15.9629L0.123047 15.5645C-6.97747e-05 14.7871 0 13.858 0 12C0 10.142 -6.97747e-05 9.21287 0.123047 8.43555C0.800792 4.1567 4.1567 0.800792 8.43555 0.123047C9.21287 -6.97747e-05 10.142 0 12 0ZM12 3C10.0278 3 9.39058 3.00912 8.90527 3.08594C5.91003 3.56034 3.56034 5.91003 3.08594 8.90527C3.00912 9.39058 3 10.0278 3 12C3 13.9722 3.00912 14.6094 3.08594 15.0947C3.56034 18.09 5.91003 20.4397 8.90527 20.9141C9.39058 20.9909 10.0278 21 12 21C13.9722 21 14.6094 20.9909 15.0947 20.9141C18.09 20.4397 20.4397 18.09 20.9141 15.0947C20.9909 14.6094 21 13.9722 21 12C21 10.0278 20.9909 9.39058 20.9141 8.90527C20.4397 5.91003 18.09 3.56034 15.0947 3.08594C14.6094 3.00912 13.9722 3 12 3Z" fill="black"/>
</svg>
