<svg width="24" height="24" viewBox="0 0 24 24" fill="none" xmlns="http://www.w3.org/2000/svg">
<path fill-rule="evenodd" clip-rule="evenodd" d="M1 4.89394C1 4.26216 1.51216 3.75 2.14394 3.75H17.3561C17.4572 3.75 17.5552 3.76311 17.6485 3.78773C17.8456 3.76283 18.0463 3.75 18.2501 3.75C20.8735 3.75 23.0001 5.87665 23.0001 8.5C23.0001 11.1234 20.8735 13.25 18.2501 13.25C18.0552 13.25 17.863 13.2383 17.6743 13.2154C16.2771 16.1902 13.2541 18.25 9.75 18.25C4.91751 18.25 1 14.3325 1 9.5V4.89394ZM18.2081 11.7497C18.2221 11.7499 18.2361 11.75 18.2501 11.75C20.045 11.75 21.5001 10.2949 21.5001 8.5C21.5001 6.78915 20.1782 5.38706 18.5 5.25946V9.5C18.5 10.2778 18.3985 11.0319 18.2081 11.7497ZM2.5 5.25V9.5C2.5 13.5041 5.74594 16.75 9.75 16.75C13.7541 16.75 17 13.5041 17 9.5V5.25H2.5Z" fill="black"/>
<path d="M2.25 20.5C2.25 20.0858 2.58579 19.75 3 19.75H17C17.4142 19.75 17.75 20.0858 17.75 20.5C17.75 20.9142 17.4142 21.25 17 21.25H3C2.58579 21.25 2.25 20.9142 2.25 20.5Z" fill="black"/>
</svg>
