<svg width="24" height="24" viewBox="0 0 24 24" fill="none" xmlns="http://www.w3.org/2000/svg">
<path fill-rule="evenodd" clip-rule="evenodd" d="M1.25 4.89394C1.25 4.40023 1.65023 4 2.14394 4H17.3561C17.4513 4 17.5431 4.0149 17.6292 4.04249C17.8322 4.01448 18.0394 4 18.2501 4C20.7354 4 22.7501 6.01472 22.7501 8.5C22.7501 10.9853 20.7354 13 18.2501 13C18.003 13 17.7606 12.9801 17.5243 12.9418C16.2032 15.9215 13.2194 18 9.75 18C5.05558 18 1.25 14.1944 1.25 9.5V4.89394ZM17.8822 11.9809C18.0031 11.9935 18.1259 12 18.2501 12C20.1831 12 21.7501 10.433 21.7501 8.5C21.7501 6.567 20.1831 5 18.2501 5C18.2501 5 18.2502 5 18.2501 5L18.25 9.5C18.25 10.363 18.1214 11.1961 17.8822 11.9809ZM2.25 5V9.5C2.25 13.6421 5.60786 17 9.75 17C13.8921 17 17.25 13.6421 17.25 9.5V5H2.25Z" fill="black"/>
<path d="M2.5 20.5C2.5 20.2239 2.72386 20 3 20H17C17.2761 20 17.5 20.2239 17.5 20.5C17.5 20.7761 17.2761 21 17 21H3C2.72386 21 2.5 20.7761 2.5 20.5Z" fill="black"/>
</svg>
