<svg width="24" height="24" viewBox="0 0 24 24" fill="none" xmlns="http://www.w3.org/2000/svg">
<path fill-rule="evenodd" clip-rule="evenodd" d="M2.14394 4C1.65023 4 1.25 4.40023 1.25 4.89394V9.5C1.25 14.1944 5.05558 18 9.75 18C12.668 18 15.2425 16.5297 16.7732 14.2894C17.2416 14.4265 17.7372 14.5 18.25 14.5C21.1495 14.5 23.5 12.1495 23.5 9.25C23.5 6.35051 21.1495 4 18.25 4C18.035 4 17.8231 4.01292 17.6148 4.03803C17.5329 4.0133 17.446 4 17.3561 4H2.14394ZM18.25 6.5L18.25 9.5C18.25 10.3612 18.1219 11.1925 17.8838 11.9758C18.0036 11.9918 18.1258 12 18.25 12C19.7688 12 21 10.7688 21 9.25C21 7.73122 19.7688 6.5 18.25 6.5Z" fill="black"/>
<path d="M1.75 21C1.75 20.3096 2.30964 19.75 3 19.75H17C17.6904 19.75 18.25 20.3096 18.25 21C18.25 21.6904 17.6904 22.25 17 22.25H3C2.30964 22.25 1.75 21.6904 1.75 21Z" fill="black"/>
</svg>
