<svg width="24" height="24" viewBox="0 0 24 24" fill="none" xmlns="http://www.w3.org/2000/svg">
<path fill-rule="evenodd" clip-rule="evenodd" d="M1.5 4.89394C1.5 4.5383 1.7883 4.25 2.14394 4.25H17.3561C17.4435 4.25 17.5268 4.26742 17.6028 4.29898C17.8139 4.26673 18.0301 4.25 18.2501 4.25C20.5973 4.25 22.5001 6.15279 22.5001 8.5C22.5001 10.8472 20.5973 12.75 18.2501 12.75C17.9496 12.75 17.6563 12.7188 17.3734 12.6595C16.1334 15.6481 13.1872 17.75 9.75 17.75C5.19365 17.75 1.5 14.0563 1.5 9.5V4.89394ZM17.5531 12.1853C17.779 12.2278 18.0119 12.25 18.2501 12.25C20.3212 12.25 22.0001 10.5711 22.0001 8.5C22.0001 6.42893 20.3212 4.75 18.2501 4.75C18.1613 4.75 18.0732 4.75309 17.9859 4.75917C17.9951 4.80263 18 4.84772 18 4.89394V9.5C18 10.4401 17.8427 11.3435 17.5531 12.1853ZM2.14394 4.75C2.06444 4.75 2 4.81444 2 4.89394V9.5C2 13.7802 5.46979 17.25 9.75 17.25C14.0302 17.25 17.5 13.7802 17.5 9.5V4.89394C17.5 4.81444 17.4356 4.75 17.3561 4.75H2.14394Z" fill="black"/>
<path d="M2.75 20.5C2.75 20.3619 2.86193 20.25 3 20.25H17C17.1381 20.25 17.25 20.3619 17.25 20.5C17.25 20.6381 17.1381 20.75 17 20.75H3C2.86193 20.75 2.75 20.6381 2.75 20.5Z" fill="black"/>
</svg>
