<svg width="24" height="24" viewBox="0 0 24 24" fill="none" xmlns="http://www.w3.org/2000/svg">
<path fill-rule="evenodd" clip-rule="evenodd" d="M17.2685 8.02933C17.3918 8.02933 17.5452 8.02823 17.6786 8.0391C17.7874 8.04798 17.9318 8.06825 18.0888 8.12406L18.2499 8.19242L18.3534 8.25101C18.3726 8.26279 18.3905 8.27749 18.4091 8.29007C18.4361 8.28159 18.4632 8.27268 18.4901 8.26468C18.8723 8.15146 19.3339 8.05927 19.8173 8.03519C20.7289 7.98981 22.0459 8.18507 22.7655 9.37406C23.1176 9.95606 23.4997 10.9811 22.8759 12.2315C22.3453 13.2945 21.1528 14.3683 18.994 15.4785C18.9289 16.1274 18.8017 16.7063 18.5273 17.2452C18.0505 18.1807 17.289 18.9413 16.3534 19.418C15.7642 19.7181 15.1273 19.8442 14.4032 19.9034C13.6908 19.9615 12.8083 19.96 11.7128 19.96H11.3554C10.2599 19.96 9.37736 19.9616 8.66495 19.9034C7.94102 19.8442 7.30388 19.7182 6.71475 19.418C5.77953 18.9413 5.01851 18.1804 4.5419 17.2452C4.24187 16.656 4.11669 16.0189 4.05753 15.295C3.99935 14.5825 3.99991 13.7001 3.99991 12.6045V9.82914C3.99991 9.70595 3.99884 9.55313 4.00967 9.41996C4.02155 9.27489 4.05229 9.06623 4.163 8.84867L4.22159 8.74515C4.36566 8.51033 4.57245 8.31823 4.81925 8.19242L4.9794 8.12406C5.13663 8.06805 5.28158 8.04802 5.39053 8.0391C5.52376 8.02824 5.67645 8.02933 5.79971 8.02933H17.2685ZM5.99991 12.6045C5.99991 13.7329 6.00072 14.5198 6.05069 15.1319C6.09972 15.7317 6.19165 16.0767 6.32413 16.3369C6.60904 16.896 7.06393 17.3518 7.62296 17.6368C7.88325 17.7693 8.22803 17.8602 8.82803 17.9092C9.44014 17.9592 10.2269 17.96 11.3554 17.96H11.7128C12.8415 17.96 13.6289 17.9592 14.2411 17.9092C14.8412 17.8602 15.1859 17.7693 15.4462 17.6368C16.0054 17.3518 16.4601 16.8961 16.745 16.3369C16.8775 16.0766 16.9694 15.7319 17.0185 15.1319C17.0684 14.5198 17.0692 13.7329 17.0692 12.6045V10.0293H5.99991V12.6045ZM19.9169 10.0332C19.6194 10.0481 19.3203 10.1062 19.0692 10.1797V12.6045C19.0692 12.7922 19.0666 12.9741 19.0663 13.1494C20.3474 12.3717 20.8813 11.7477 21.0858 11.3379C21.299 10.9103 21.1911 10.6375 21.0536 10.4102C20.9122 10.1768 20.5762 10.0004 19.9169 10.0332Z" fill="black"/>
<path d="M13.5185 3.03324C13.6419 3.03324 13.7952 3.03211 13.9286 3.043C14.0375 3.05191 14.1817 3.07208 14.3388 3.12796L14.4999 3.19632L14.6034 3.25492C14.8382 3.399 15.0294 3.60581 15.1552 3.85257C15.2661 4.0703 15.2966 4.2787 15.3085 4.42386C15.3194 4.55711 15.3192 4.70976 15.3192 4.83304V7.03324H13.3192V5.03324H2.24991V7.60843C2.24991 8.73694 2.25072 9.52362 2.30069 10.1358C2.34973 10.736 2.44156 11.0805 2.57413 11.3409C2.68936 11.567 2.83352 11.7751 2.99991 11.9629V14.4375C2.98844 14.4318 2.97618 14.4277 2.96475 14.4219C2.02926 13.9452 1.26858 13.1846 0.791901 12.2491C0.491738 11.6598 0.366689 11.023 0.307526 10.2989C0.249336 9.58635 0.249909 8.70412 0.249909 7.60843V4.83304C0.249906 4.70977 0.248821 4.5571 0.259675 4.42386C0.271553 4.27875 0.302212 4.07019 0.412995 3.85257L0.471589 3.74906C0.6157 3.51428 0.822432 3.32208 1.06925 3.19632L1.2294 3.12796C1.38666 3.07199 1.53162 3.0519 1.64053 3.043C1.77382 3.03216 1.92648 3.03324 2.04971 3.03324H13.5185Z" fill="black"/>
</svg>
