<svg width="24" height="24" viewBox="0 0 24 24" fill="none" xmlns="http://www.w3.org/2000/svg">
<path fill-rule="evenodd" clip-rule="evenodd" d="M17.6182 8.78906C17.7167 8.79714 17.8149 8.81534 17.9092 8.86328C18.0404 8.93017 18.1473 9.0354 18.2197 9.16309C18.3599 9.10062 18.5247 9.03922 18.7031 8.98633C19.037 8.8874 19.4392 8.80684 19.8545 8.78613C20.6716 8.74546 21.6213 8.93391 22.124 9.76465C22.3956 10.2137 22.6739 10.9567 22.2041 11.8984C21.7538 12.8004 20.6338 13.8441 18.2773 15C18.2724 15.0809 18.2699 15.1599 18.2637 15.2363C18.2083 15.9138 18.0957 16.4414 17.8584 16.9072C17.4536 17.7014 16.8079 18.3472 16.0137 18.752C15.5478 18.9893 15.0204 19.1018 14.3428 19.1572C13.6679 19.2123 12.821 19.2119 11.7129 19.2119H11.3555C10.2476 19.2119 9.40134 19.2123 8.72656 19.1572C8.04896 19.1018 7.52152 18.9893 7.05566 18.752C6.26148 18.3472 5.61473 17.7014 5.20996 16.9072C4.97273 16.4415 4.86008 15.9137 4.80469 15.2363C4.74957 14.5615 4.75 13.7144 4.75 12.6064V9.83105C4.75 9.69549 4.75001 9.57818 4.75781 9.48242C4.7659 9.38377 4.78396 9.28486 4.83203 9.19043C4.90384 9.04973 5.0185 8.93513 5.15918 8.86328C5.25364 8.81515 5.35247 8.79715 5.45117 8.78906C5.54697 8.78124 5.66414 8.78125 5.7998 8.78125H17.2686C17.4043 8.78125 17.5223 8.78125 17.6182 8.78906ZM19.8799 9.28613C19.5098 9.30456 19.1464 9.37641 18.8447 9.46582C18.6176 9.53317 18.4356 9.60636 18.3154 9.66895C18.316 9.71943 18.3193 9.77366 18.3193 9.83105V12.6064C18.3193 13.3116 18.3171 13.9113 18.3027 14.4277C20.4527 13.3393 21.3943 12.4012 21.7568 11.6748C22.124 10.9387 21.9142 10.3838 21.6963 10.0234C21.3381 9.43168 20.6338 9.24864 19.8799 9.28613Z" fill="black"/>
<path d="M13.8682 3.79297C13.9667 3.80107 14.0648 3.81914 14.1592 3.86719C14.3001 3.93903 14.4154 4.05341 14.4873 4.19434C14.5354 4.28882 14.5534 4.38761 14.5615 4.48633C14.5694 4.58213 14.5693 4.69929 14.5693 4.83496V7.61035C14.5693 7.84536 14.5671 8.06891 14.5664 8.28125H5.7998C5.67232 8.28125 5.53098 8.28114 5.41016 8.29102C5.28049 8.30166 5.1091 8.32805 4.93262 8.41797C4.69762 8.5378 4.5065 8.72884 4.38672 8.96387C4.29676 9.14046 4.27039 9.31173 4.25977 9.44141C4.24989 9.56233 4.25 9.70348 4.25 9.83105V12.6064C4.25 13.1464 4.24922 13.6311 4.25586 14.0674C3.90209 14.0001 3.59231 13.9019 3.30566 13.7559C2.51124 13.3511 1.86479 12.7055 1.45996 11.9111C1.22263 11.4453 1.11008 10.9178 1.05469 10.2402C0.999566 9.56534 1 8.71844 1 7.61035V4.83496C1 4.69929 0.999985 4.58213 1.00781 4.48633C1.0159 4.38763 1.0339 4.2888 1.08203 4.19434C1.1539 4.05367 1.26847 3.93898 1.40918 3.86719C1.50365 3.81912 1.60247 3.80104 1.70117 3.79297C1.79699 3.78516 1.91413 3.78516 2.0498 3.78516H13.5186C13.6543 3.78516 13.7723 3.78514 13.8682 3.79297Z" fill="black"/>
</svg>
