<svg width="24" height="24" viewBox="0 0 24 24" fill="none" xmlns="http://www.w3.org/2000/svg">
<path fill-rule="evenodd" clip-rule="evenodd" d="M17.2686 8.28125C17.396 8.28125 17.5373 8.28118 17.6582 8.29102C17.7555 8.29897 17.8769 8.31543 18.0059 8.36133L18.1367 8.41797L18.2227 8.46582C18.2732 8.49684 18.3218 8.53169 18.3672 8.56934C18.431 8.54764 18.4956 8.5261 18.5605 8.50684C18.9267 8.39832 19.3692 8.31006 19.8301 8.28711C20.7102 8.24332 21.9044 8.43624 22.5518 9.50586C22.877 10.0436 23.2237 10.9738 22.6514 12.1211C22.1465 13.1328 20.9764 14.1949 18.7578 15.3184C18.6986 16.0088 18.5784 16.5965 18.3047 17.1338C17.8519 18.0223 17.1287 18.7445 16.2402 19.1973C15.6921 19.4765 15.0915 19.5974 14.3828 19.6553C13.6829 19.7124 12.8125 19.7119 11.7129 19.7119H11.3555C10.2558 19.7119 9.38542 19.7125 8.68555 19.6553C7.97705 19.5973 7.37618 19.4765 6.82812 19.1973C5.93998 18.7445 5.21727 18.022 4.76465 17.1338C4.4855 16.5857 4.36455 15.9849 4.30664 15.2764C4.24949 14.5765 4.25 13.706 4.25 12.6064V9.83105C4.25 9.70364 4.24991 9.56219 4.25977 9.44141C4.2704 9.31178 4.29687 9.14031 4.38672 8.96387C4.50651 8.72888 4.69765 8.53779 4.93262 8.41797C5.10911 8.32804 5.28049 8.30166 5.41016 8.29102C5.53099 8.28114 5.67231 8.28125 5.7998 8.28125H17.2686ZM5.75 12.6064C5.75 13.7308 5.75075 14.5296 5.80176 15.1543C5.85207 15.7699 5.94806 16.1517 6.10156 16.4531C6.41046 17.0591 6.90381 17.5525 7.50977 17.8613C7.81112 18.0148 8.19223 18.1108 8.80762 18.1611C9.43226 18.2122 10.2311 18.2119 11.3555 18.2119H11.7129C12.8372 18.2119 13.6361 18.2121 14.2607 18.1611C14.8766 18.1108 15.2581 18.0149 15.5596 17.8613C16.1658 17.5525 16.6588 17.0593 16.9678 16.4531C17.1214 16.1517 17.2172 15.7701 17.2676 15.1543C17.3186 14.5296 17.3193 13.7308 17.3193 12.6064V9.83105C17.3193 9.8137 17.3184 9.79676 17.3184 9.78125H5.75V12.6064ZM19.9043 9.78516C19.5799 9.80133 19.2566 9.86455 18.9873 9.94434C18.9257 9.9626 18.8696 9.98131 18.8193 9.99902V12.6064C18.8193 12.9556 18.8162 13.2822 18.8145 13.5869C20.3904 12.6949 21.0548 11.9622 21.3096 11.4521C21.5742 10.9216 21.4329 10.5539 21.2686 10.2822C21.0549 9.92935 20.5952 9.75077 19.9043 9.78516Z" fill="black"/>
<path d="M13.5186 3.28516C13.646 3.28516 13.7873 3.28506 13.9082 3.29492C14.0056 3.30289 14.1269 3.31927 14.2559 3.36523L14.3867 3.42188L14.4727 3.46973C14.6683 3.5898 14.8278 3.7621 14.9326 3.96777C15.0225 4.14429 15.0489 4.31564 15.0596 4.44531C15.0694 4.56616 15.0693 4.70746 15.0693 4.83496V7.28516H13.5693V4.83496C13.5693 4.8175 13.5684 4.80074 13.5684 4.78516H2V7.61035C2 8.73486 2.00074 9.53348 2.05176 10.1582C2.10208 10.7742 2.19796 11.1555 2.35156 11.457C2.5682 11.8821 2.87678 12.2497 3.25 12.5391V14.2812C3.19231 14.2557 3.13464 14.23 3.07813 14.2012C2.18973 13.7484 1.46733 13.0261 1.01465 12.1377C0.735371 11.5895 0.614546 10.989 0.556641 10.2803C0.499485 9.58033 0.5 8.7101 0.5 7.61035V4.83496C0.499999 4.70746 0.499893 4.56616 0.509766 4.44531C0.520406 4.31564 0.54679 4.14427 0.636719 3.96777C0.756557 3.73283 0.947623 3.54164 1.18262 3.42188C1.35913 3.33202 1.53054 3.30554 1.66016 3.29492C1.78102 3.28507 1.92233 3.28516 2.0498 3.28516H13.5186Z" fill="black"/>
</svg>
