<svg width="24" height="24" viewBox="0 0 24 24" fill="none" xmlns="http://www.w3.org/2000/svg">
<path fill-rule="evenodd" clip-rule="evenodd" d="M17.2685 7.77933C17.3877 7.77933 17.5531 7.77817 17.6991 7.79007C17.8195 7.79991 17.9874 7.82187 18.1728 7.88773L18.3632 7.96976L18.4482 8.01663C18.8406 7.90258 19.3108 7.8108 19.8046 7.78617C20.7478 7.73921 22.1875 7.93657 22.9794 9.24515C23.3583 9.87149 23.7744 10.9898 23.0995 12.3428C22.5447 13.4546 21.331 14.5375 19.2284 15.6358C19.1574 16.2509 19.024 16.8204 18.7499 17.3584C18.2492 18.341 17.4503 19.141 16.4677 19.6416C15.8373 19.9628 15.1633 20.0919 14.4237 20.1524C13.6987 20.2116 12.8043 20.21 11.7128 20.21H11.3554C10.264 20.21 9.36938 20.2116 8.64444 20.1524C7.90519 20.0919 7.2316 19.9626 6.60147 19.6416C5.61906 19.141 4.81987 18.3409 4.31924 17.3584C3.99833 16.7283 3.86893 16.0548 3.8085 15.3155C3.74929 14.5905 3.74991 13.696 3.74991 12.6045V9.82913C3.74991 9.70994 3.74878 9.54518 3.76065 9.39945C3.77379 9.23881 3.80851 8.99323 3.94034 8.73441L4.00772 8.61429C4.17577 8.34027 4.41705 8.11659 4.70499 7.96976L4.89639 7.88773C5.08158 7.8219 5.24966 7.79992 5.37003 7.79007C5.51579 7.77818 5.68046 7.77933 5.79971 7.77933H17.2685ZM19.9296 10.2823C19.7219 10.2926 19.5111 10.3258 19.3192 10.3711V12.6045C19.3192 12.6341 19.3183 12.6641 19.3183 12.6934C20.2968 12.0461 20.7052 11.5411 20.8622 11.2266C21.0243 10.9016 20.9505 10.7221 20.8398 10.5391C20.7704 10.425 20.5565 10.2511 19.9296 10.2823Z" fill="black"/>
<path d="M13.5185 2.78324C13.6378 2.78323 13.8032 2.78205 13.9491 2.79398C14.0696 2.80383 14.2374 2.82571 14.4228 2.89163L14.6132 2.97367L14.7343 3.04105C14.9691 3.18511 15.1664 3.38339 15.3105 3.6182L15.3778 3.73831L15.4599 3.92972C15.5258 4.115 15.5477 4.28295 15.5575 4.40335C15.5694 4.54914 15.5692 4.71377 15.5692 4.83304V6.27933H5.79971C5.70473 6.27932 5.46869 6.27695 5.24796 6.29495C5.02613 6.3131 4.64264 6.36166 4.21182 6.54593L4.02432 6.63382C3.48941 6.90649 3.04157 7.32111 2.7294 7.83011L2.6044 8.05374C2.34676 8.55942 2.28625 9.02393 2.26553 9.27738C2.24751 9.49835 2.2499 9.73435 2.24991 9.82913V12.6045C2.24991 13.2033 2.2506 13.7703 2.26163 14.294C1.5486 13.803 0.965477 13.14 0.569245 12.3623C0.248218 11.7321 0.118928 11.0588 0.0585028 10.3194C-0.000712369 9.59432 -9.09166e-05 8.7 -9.09022e-05 7.60843V4.83304C-9.43259e-05 4.71379 -0.00123781 4.54913 0.0106513 4.40335C0.0238028 4.24267 0.0584447 3.99717 0.190339 3.73831L0.257722 3.6182C0.425814 3.34423 0.667033 3.12044 0.954987 2.97367L1.14639 2.89163C1.33164 2.82583 1.49971 2.80381 1.62003 2.79398C1.76587 2.7821 1.93051 2.78323 2.04971 2.78324H13.5185Z" fill="black"/>
</svg>
