<svg width="24" height="24" viewBox="0 0 24 24" fill="none" xmlns="http://www.w3.org/2000/svg">
<path fill-rule="evenodd" clip-rule="evenodd" d="M17.2686 8.28125C17.396 8.28125 17.5373 8.28118 17.6582 8.29102C17.7555 8.29897 17.8769 8.31543 18.0059 8.36133L18.1367 8.41797L18.2227 8.46582C18.2732 8.49684 18.3218 8.53169 18.3672 8.56934C18.431 8.54764 18.4956 8.5261 18.5605 8.50684C18.9267 8.39832 19.3692 8.31006 19.8301 8.28711C20.7102 8.24332 21.9044 8.43624 22.5518 9.50586C22.877 10.0436 23.2237 10.9738 22.6514 12.1211C22.1465 13.1328 20.9764 14.1949 18.7578 15.3184C18.6986 16.0088 18.5784 16.5965 18.3047 17.1338C17.8519 18.0223 17.1287 18.7445 16.2402 19.1973C15.6921 19.4765 15.0915 19.5974 14.3828 19.6553C13.6829 19.7124 12.8125 19.7119 11.7129 19.7119H11.3555C10.2558 19.7119 9.38542 19.7125 8.68555 19.6553C7.97705 19.5973 7.37618 19.4765 6.82812 19.1973C5.93998 18.7445 5.21727 18.022 4.76465 17.1338C4.4855 16.5857 4.36455 15.9849 4.30664 15.2764C4.24949 14.5765 4.25 13.706 4.25 12.6064V9.83105C4.25 9.70364 4.24991 9.56219 4.25977 9.44141C4.2704 9.31178 4.29687 9.14031 4.38672 8.96387C4.50651 8.72888 4.69765 8.53779 4.93262 8.41797C5.10911 8.32804 5.28049 8.30166 5.41016 8.29102C5.53099 8.28114 5.67231 8.28125 5.7998 8.28125H17.2686ZM19.9043 9.78516C19.5799 9.80133 19.2566 9.86455 18.9873 9.94434C18.9257 9.9626 18.8696 9.98131 18.8193 9.99902V12.6064C18.8193 12.9556 18.8162 13.2822 18.8145 13.5869C20.3904 12.6949 21.0548 11.9622 21.3096 11.4521C21.5742 10.9216 21.4329 10.5539 21.2686 10.2822C21.0549 9.92935 20.5952 9.75077 19.9043 9.78516Z" fill="black"/>
<path d="M13.9072 3.29492C14.0045 3.30287 14.1261 3.31941 14.2549 3.36523L14.3857 3.42188L14.4717 3.46973C14.6673 3.58973 14.8268 3.76224 14.9316 3.96777C15.0216 4.14425 15.048 4.31565 15.0586 4.44531C15.0685 4.56616 15.0684 4.70746 15.0684 4.83496V7.28125H5.7998C5.6886 7.28125 5.49998 7.27998 5.3291 7.29395C5.16151 7.30766 4.89718 7.34206 4.60547 7.4668L4.47852 7.52637C4.10827 7.71508 3.79816 8.00223 3.58203 8.35449L3.49512 8.50977C3.32129 8.85099 3.27835 9.16878 3.2627 9.36035C3.24872 9.53139 3.25 9.71988 3.25 9.83105V12.6064C3.25 13.2198 3.2501 13.7802 3.26074 14.2871C3.19909 14.2601 3.13745 14.2319 3.07715 14.2012C2.18906 13.7484 1.46624 13.0259 1.01367 12.1377C0.734537 11.5896 0.613555 10.9888 0.555664 10.2803C0.498515 9.58034 0.499024 8.71005 0.499024 7.61035V4.83496C0.499023 4.70747 0.498918 4.56615 0.508789 4.44531C0.519424 4.31567 0.545863 4.14424 0.635742 3.96777C0.755503 3.73285 0.946752 3.54169 1.18164 3.42188C1.35799 3.33202 1.52955 3.30558 1.65918 3.29492C1.77991 3.28506 1.92142 3.28516 2.04883 3.28516H13.5176C13.6449 3.28516 13.7864 3.28511 13.9072 3.29492Z" fill="black"/>
</svg>
