<svg width="24" height="24" viewBox="0 0 24 24" fill="none" xmlns="http://www.w3.org/2000/svg">
<path d="M8.43449 6.20048C10.0642 4.57078 9.97536 1.90245 8.24089 0.384741L8.15469 0.309309C7.63515 -0.145302 6.84545 -0.0926665 6.39084 0.426872C5.93622 0.946411 5.98886 1.73611 6.5084 2.19073L6.5946 2.26616C7.24075 2.83155 7.27384 3.8256 6.66673 4.43271C6.08041 5.01902 5.71503 5.74261 5.57059 6.50001H8.20277C8.26548 6.39304 8.34272 6.29225 8.43449 6.20048Z" fill="black"/>
<path d="M13.4352 6.20048C13.3435 6.29225 13.2662 6.39304 13.2035 6.50001H10.5713C10.7158 5.74261 11.0812 5.01902 11.6675 4.43271C12.2746 3.8256 12.2415 2.83155 11.5953 2.26616L11.5091 2.19073C10.9896 1.73611 10.937 0.946411 11.3916 0.426872C11.8462 -0.0926667 12.6359 -0.145302 13.1554 0.309309L13.2416 0.384741C14.9761 1.90245 15.0649 4.57078 13.4352 6.20048Z" fill="black"/>
<path fill-rule="evenodd" clip-rule="evenodd" d="M0.5 9.89395C0.5 8.98603 1.23602 8.25001 2.14394 8.25001H17.3561C17.4654 8.25001 17.5723 8.26069 17.6757 8.28107C17.8644 8.26055 18.056 8.25001 18.2501 8.25001C21.1496 8.25001 23.5001 10.6005 23.5001 13.5C23.5001 16.3995 21.1496 18.75 18.2501 18.75C18.1567 18.75 18.0639 18.7476 17.9718 18.7428C16.4338 21.717 13.3293 23.75 9.75 23.75C4.64137 23.75 0.5 19.6086 0.5 14.5V9.89395ZM19 14.5V10.8535C20.1543 11.1799 21.0001 12.2412 21.0001 13.5C21.0001 14.8139 20.0787 15.9125 18.8469 16.1851C18.9474 15.6387 19 15.0755 19 14.5ZM3 10.75V14.5C3 18.2279 6.02208 21.25 9.75 21.25C13.4779 21.25 16.5 18.2279 16.5 14.5V10.75H3Z" fill="black"/>
</svg>
