<svg width="24" height="24" viewBox="0 0 24 24" fill="none" xmlns="http://www.w3.org/2000/svg">
<path d="M18.5 6C18.7761 6 19 6.22386 19 6.5V13.2002C18.9999 15.851 16.851 17.9999 14.2002 18H5.7998C3.14899 17.9999 1.00011 15.851 1 13.2002V6.5C1 6.22386 1.22386 6 1.5 6H18.5Z" fill="black"/>
<path d="M20.666 7.06055C21.4479 7.01549 22.344 7.22805 22.8115 8.12207C23.0625 8.60232 23.3163 9.38586 22.8857 10.3848C22.4856 11.3127 21.5093 12.39 19.4844 13.582C19.4933 13.4561 19.5 13.3284 19.5 13.2002V12.9883C21.2917 11.8903 22.1022 10.9399 22.4268 10.1875C22.7789 9.37061 22.5749 8.75017 22.3682 8.35449C22.0309 7.70921 21.3822 7.52002 20.6953 7.55957C20.3545 7.57922 20.0194 7.65619 19.7402 7.75195C19.6523 7.78212 19.5719 7.81364 19.5 7.84473V7.30664C19.5255 7.29731 19.5511 7.28728 19.5771 7.27832C19.8921 7.17028 20.2726 7.08326 20.666 7.06055Z" fill="black"/>
</svg>
