<svg width="24" height="24" viewBox="0 0 24 24" fill="none" xmlns="http://www.w3.org/2000/svg">
<path fill-rule="evenodd" clip-rule="evenodd" d="M18.5 5.75C18.9142 5.75 19.25 6.08579 19.25 6.5V7.40918C19.3509 7.36326 19.4608 7.31826 19.5771 7.27832C19.8921 7.17028 20.2726 7.08326 20.666 7.06055C21.4479 7.01549 22.344 7.22805 22.8115 8.12207C23.0625 8.60232 23.3163 9.38586 22.8857 10.3848C22.4686 11.3521 21.4251 12.4807 19.2207 13.7334C18.9542 16.2716 16.8089 18.2499 14.2002 18.25H5.7998C3.01092 18.2499 0.750105 15.9891 0.75 13.2002V6.5C0.75 6.08579 1.08579 5.75 1.5 5.75H18.5ZM1.5 6.25C1.36193 6.25 1.25 6.36193 1.25 6.5V13.2002C1.25011 15.7129 3.28706 17.7499 5.7998 17.75H14.2002C16.7129 17.7499 18.7499 15.7129 18.75 13.2002V6.5C18.75 6.36193 18.6381 6.25 18.5 6.25H1.5ZM20.6953 7.55957C20.3545 7.57922 20.0194 7.65619 19.7402 7.75195C19.5287 7.82454 19.3603 7.90308 19.25 7.96973V13.1406C21.2181 11.9789 22.0874 10.9742 22.4268 10.1875C22.7789 9.37061 22.5749 8.75017 22.3682 8.35449C22.0309 7.70921 21.3822 7.52002 20.6953 7.55957Z" fill="black"/>
</svg>
