<svg width="25" height="24" viewBox="0 0 25 24" fill="none" xmlns="http://www.w3.org/2000/svg">
<path fill-rule="evenodd" clip-rule="evenodd" d="M17.75 4.75C18.4982 4.75 19.1345 5.22038 19.3848 5.88086C19.6923 5.82024 20.0217 5.77467 20.3604 5.75781C21.4673 5.7027 23.0784 5.93848 23.96 7.39551C24.3899 8.10617 24.8573 9.35943 24.0947 10.8877C23.4373 12.2051 21.9499 13.5281 19.2568 14.8945C18.5238 17.4107 16.2029 19.2499 13.4502 19.25H6.0498C2.70864 19.2499 0.000105396 16.5414 0 13.2002V6.5C1.28853e-07 5.5335 0.783501 4.75 1.75 4.75H17.75ZM2.5 13.2002C2.50011 15.1607 4.08935 16.7499 6.0498 16.75H13.4502C15.4107 16.7499 16.9999 15.1607 17 13.2002V7.25H2.5V13.2002ZM20.4844 8.25488C20.1403 8.27204 19.7944 8.33795 19.5 8.42188V11.9023C20.996 10.984 21.6185 10.2501 21.8574 9.77148C22.107 9.27136 21.9831 8.9569 21.8213 8.68945C21.6626 8.42717 21.2761 8.21546 20.4844 8.25488Z" fill="black"/>
</svg>
