<svg width="24" height="24" viewBox="0 0 24 24" fill="none" xmlns="http://www.w3.org/2000/svg">
<path fill-rule="evenodd" clip-rule="evenodd" d="M18.5 5C19.2923 5 19.939 5.61436 19.9941 6.39258C20.1952 6.35303 20.4065 6.32401 20.623 6.31152C21.5475 6.25824 22.8138 6.50751 23.4766 7.77539C23.7938 8.38256 24.1232 9.41008 23.5752 10.6816C23.089 11.809 21.9723 12.9807 19.9121 14.2012C19.4376 16.9271 17.0618 18.9999 14.2002 19H5.7998C2.59671 18.9999 0.000105395 16.4033 0 13.2002V6.5C1.28852e-07 5.67157 0.671572 5 1.5 5H18.5ZM2 13.2002C2.00011 15.2987 3.70128 16.9999 5.7998 17H14.2002C16.2987 16.9999 17.9999 15.2987 18 13.2002V7H2V13.2002ZM20.7383 8.30859C20.4827 8.32333 20.222 8.38046 20 8.45508V11.7549C21.075 10.9722 21.5458 10.3367 21.7383 9.89062C21.9728 9.34668 21.8445 8.96991 21.7041 8.70117C21.562 8.4295 21.2826 8.27723 20.7383 8.30859Z" fill="black"/>
</svg>
