<svg width="24" height="24" viewBox="0 0 24 24" fill="none" xmlns="http://www.w3.org/2000/svg">
<path d="M18.5 6C18.7761 6 19 6.22386 19 6.5V13.2002C18.9999 15.851 16.851 17.9999 14.2002 18H5.7998C3.14899 17.9999 1.00011 15.851 1 13.2002V6.5C1 6.22386 1.22386 6 1.5 6H18.5Z" fill="black"/>
<path d="M20.6377 6.56152C21.5146 6.511 22.6572 6.7474 23.2549 7.89062C23.5501 8.45548 23.8547 9.40209 23.3457 10.583C22.9024 11.611 21.883 12.7113 19.958 13.8799C19.984 13.657 20 13.4301 20 13.2002V12.0635C21.2024 11.2163 21.743 10.5103 21.9678 9.98926C22.2414 9.35451 22.0882 8.89698 21.9258 8.58594C21.7186 8.18963 21.3156 8.02448 20.7236 8.05859C20.4729 8.07307 20.2215 8.12617 20 8.19434V6.64551C20.2032 6.60374 20.4181 6.57418 20.6377 6.56152Z" fill="black"/>
</svg>
