<svg width="24" height="24" viewBox="0 0 24 24" fill="none" xmlns="http://www.w3.org/2000/svg">
<path d="M18.5 6C18.7761 6 19 6.22386 19 6.5V13.2002C18.9999 15.851 16.851 17.9999 14.2002 18H5.7998C3.14899 17.9999 1.00011 15.851 1 13.2002V6.5C1 6.22386 1.22386 6 1.5 6H18.5Z" fill="black"/>
<path d="M20.623 6.31152C21.5475 6.25824 22.8138 6.50751 23.4766 7.77539C23.7938 8.38256 24.1232 9.41008 23.5752 10.6816C23.1116 11.7568 22.0734 12.8706 20.1914 14.0303C20.2287 13.7589 20.25 13.4818 20.25 13.2002V11.5684C21.1497 10.871 21.5614 10.3006 21.7383 9.89062C21.9728 9.34668 21.8445 8.96991 21.7041 8.70117C21.562 8.4295 21.2826 8.27723 20.7383 8.30859C20.5737 8.31808 20.4071 8.34572 20.25 8.38379V6.5C20.25 6.44934 20.2464 6.39918 20.2422 6.34961C20.3666 6.33179 20.4939 6.31897 20.623 6.31152Z" fill="black"/>
</svg>
