<svg width="24" height="24" viewBox="0 0 24 24" fill="none" xmlns="http://www.w3.org/2000/svg">
<path d="M18.5 6C18.7761 6 19 6.22386 19 6.5V13.2002C18.9999 15.851 16.851 17.9999 14.2002 18H5.7998C3.14899 17.9999 1.00011 15.851 1 13.2002V6.5C1 6.22386 1.22386 6 1.5 6H18.5Z" fill="black"/>
<path d="M20.623 6.31152C21.5475 6.25824 22.8138 6.50751 23.4766 7.77539C23.7938 8.38256 24.1232 9.41008 23.5752 10.6816C23.089 11.809 21.9723 12.9807 19.9121 14.2012C19.9687 13.876 20 13.5416 20 13.2002V11.7559C21.0753 10.9731 21.5457 10.3368 21.7383 9.89062C21.9728 9.34668 21.8445 8.96991 21.7041 8.70117C21.562 8.4295 21.2826 8.27723 20.7383 8.30859C20.4827 8.32333 20.222 8.38046 20 8.45508V6.5C20 6.46421 19.9966 6.42872 19.9941 6.39355C20.1952 6.35399 20.4064 6.32402 20.623 6.31152Z" fill="black"/>
</svg>
