<svg width="24" height="24" viewBox="0 0 24 24" fill="none" xmlns="http://www.w3.org/2000/svg">
<path d="M8.25748 6.0237C9.78491 4.49626 9.70166 1.99535 8.07603 0.572879L7.98982 0.497447C7.57419 0.133759 6.94243 0.175867 6.57874 0.591498C6.21505 1.00713 6.25716 1.63889 6.67279 2.00258L6.75899 2.07801C7.51397 2.73864 7.55264 3.90011 6.84326 4.60949C6.17772 5.27503 5.81592 6.12928 5.75785 7.00001H7.76753C7.81928 6.64277 7.9826 6.29857 8.25748 6.0237Z" fill="black"/>
<path d="M13.2572 6.0237C12.9824 6.29857 12.819 6.64277 12.7673 7.00001H10.7576C10.8157 6.12928 11.1775 5.27503 11.843 4.60948C12.5524 3.90011 12.5137 2.73864 11.7588 2.07801L11.6725 2.00258C11.2569 1.63889 11.2148 1.00713 11.5785 0.591498C11.9422 0.175866 12.5739 0.133759 12.9896 0.497446L13.0758 0.572879C14.7014 1.99535 14.7847 4.49626 13.2572 6.0237Z" fill="black"/>
<path fill-rule="evenodd" clip-rule="evenodd" d="M0.75 9.89395C0.75 9.12409 1.37409 8.50001 2.14394 8.50001H17.3561C17.4617 8.50001 17.5647 8.51177 17.6636 8.53405C17.856 8.51157 18.0517 8.50001 18.2501 8.50001C21.0115 8.50001 23.2501 10.7386 23.2501 13.5C23.2501 16.2614 21.0115 18.5 18.2501 18.5C18.1064 18.5 17.9641 18.4939 17.8234 18.4821C16.3541 21.4552 13.2909 23.5 9.75 23.5C4.77944 23.5 0.75 19.4706 0.75 14.5V9.89395ZM18.75 14.5V10.5415C20.1689 10.7795 21.2501 12.0135 21.2501 13.5C21.2501 15.0625 20.0556 16.346 18.5299 16.4871C18.674 15.8479 18.75 15.1828 18.75 14.5ZM2.75 10.5V14.5C2.75 18.366 5.88401 21.5 9.75 21.5C13.616 21.5 16.75 18.366 16.75 14.5V10.5H2.75Z" fill="black"/>
</svg>
