<svg width="24" height="24" viewBox="0 0 24 24" fill="none" xmlns="http://www.w3.org/2000/svg">
<path d="M8.22763 5.49336C9.44829 4.2727 9.38176 2.27407 8.08262 1.13729L7.99641 1.06186C7.8925 0.970939 7.73456 0.981467 7.64364 1.08537C7.55272 1.18928 7.56325 1.34722 7.66715 1.43815L7.75336 1.51358C8.83483 2.4599 8.89022 4.12366 7.87407 5.1398C6.96539 6.04848 6.76521 7.39736 7.27351 8.5H7.83668C7.28226 7.5489 7.41257 6.30841 8.22763 5.49336Z" fill="black"/>
<path d="M12.2276 5.49336C11.4126 6.30841 11.2823 7.5489 11.8367 8.5H11.2735C10.7652 7.39736 10.9654 6.04848 11.8741 5.13981C12.8902 4.12366 12.8348 2.4599 11.7534 1.51358L11.6672 1.43815C11.5632 1.34722 11.5527 1.18928 11.6436 1.08538C11.7346 0.981469 11.8925 0.970941 11.9964 1.06186L12.0826 1.1373C13.3818 2.27408 13.4483 4.2727 12.2276 5.49336Z" fill="black"/>
<path fill-rule="evenodd" clip-rule="evenodd" d="M2.14394 9.25C1.7883 9.25 1.5 9.5383 1.5 9.89394V14.5C1.5 19.0563 5.19365 22.75 9.75 22.75C13.1872 22.75 16.1334 20.6481 17.3734 17.6595C17.6563 17.7188 17.9496 17.75 18.2501 17.75C20.5973 17.75 22.5001 15.8472 22.5001 13.5C22.5001 11.1528 20.5973 9.25 18.2501 9.25C18.0301 9.25 17.8139 9.26673 17.6028 9.29898C17.5268 9.26742 17.4435 9.25 17.3561 9.25H2.14394ZM18.2501 17.25C18.0119 17.25 17.779 17.2278 17.5531 17.1853C17.8427 16.3435 18 15.4401 18 14.5V9.89394C18 9.84772 17.9951 9.80263 17.9859 9.75917C18.0732 9.75309 18.1613 9.75 18.2501 9.75C20.3212 9.75 22.0001 11.4289 22.0001 13.5C22.0001 15.5711 20.3212 17.25 18.2501 17.25Z" fill="black"/>
</svg>
