<svg width="24" height="24" viewBox="0 0 24 24" fill="none" xmlns="http://www.w3.org/2000/svg">
<path fill-rule="evenodd" clip-rule="evenodd" d="M15.8682 7.00809C15.9668 7.01618 16.0648 7.03427 16.1592 7.08231C16.2904 7.14916 16.3973 7.25351 16.4697 7.38114C16.6099 7.31869 16.7747 7.25824 16.9531 7.20536C17.287 7.10642 17.6891 7.02588 18.1045 7.00516C18.9216 6.96448 19.8713 7.15277 20.374 7.98368C20.6456 8.43278 20.924 9.17567 20.4541 10.1175C20.0037 11.0195 18.8838 12.0631 16.5273 13.219C16.5224 13.2999 16.5199 13.379 16.5137 13.4554C16.4583 14.1327 16.3457 14.6605 16.1084 15.1263C15.7036 15.9202 15.0577 16.5663 14.2637 16.971C13.7979 17.2082 13.2703 17.3209 12.5928 17.3763C11.9179 17.4314 11.0709 17.4309 9.96289 17.4309H9.60547C8.49767 17.4309 7.65133 17.4314 6.97656 17.3763C6.29891 17.3209 5.77155 17.2083 5.30566 16.971C4.51137 16.5662 3.86477 15.9205 3.45996 15.1263C3.22263 14.6605 3.1101 14.1328 3.05469 13.4554C2.99955 12.7805 3 11.9335 3 10.8255V8.05008C3 7.91452 3.00002 7.79723 3.00781 7.70145C3.01588 7.60283 3.03405 7.50386 3.08203 7.40946C3.1538 7.2688 3.26859 7.15418 3.40918 7.08231C3.50361 7.0342 3.60251 7.01619 3.70117 7.00809C3.79695 7.00027 3.91417 7.00028 4.0498 7.00028H15.5186C15.6543 7.00028 15.7723 7.00028 15.8682 7.00809ZM18.1299 7.50516C17.7598 7.52359 17.3964 7.59543 17.0947 7.68485C16.8674 7.75226 16.6856 7.82536 16.5654 7.88797C16.566 7.9384 16.5693 7.99278 16.5693 8.05008V10.8255C16.5693 11.5313 16.5671 12.1309 16.5527 12.6477C18.703 11.5592 19.6442 10.6202 20.0068 9.89383C20.3741 9.15768 20.1642 8.60288 19.9463 8.24247C19.5881 7.65055 18.8839 7.46765 18.1299 7.50516Z" fill="black"/>
</svg>
