<svg width="24" height="24" viewBox="0 0 24 24" fill="none" xmlns="http://www.w3.org/2000/svg">
<path fill-rule="evenodd" clip-rule="evenodd" d="M2.14394 4C1.65023 4 1.25 4.40023 1.25 4.89394V9.5C1.25 14.1944 5.05558 18 9.75 18C13.2194 18 16.2032 15.9215 17.5243 12.9418C17.7606 12.9801 18.003 13 18.2501 13C20.7354 13 22.7501 10.9853 22.7501 8.5C22.7501 6.01472 20.7354 4 18.2501 4C18.0394 4 17.8322 4.01448 17.6292 4.04249C17.5431 4.0149 17.4513 4 17.3561 4H2.14394ZM18.25 5V9.5C18.25 10.363 18.1214 11.1961 17.8822 11.9809C18.0031 11.9935 18.1259 12 18.2501 12C20.1831 12 21.7501 10.433 21.7501 8.5C21.7501 6.567 20.183 5 18.25 5C18.25 5 18.25 5 18.25 5Z" fill="black"/>
<path d="M2.5 20.5C2.5 20.2239 2.72386 20 3 20H17C17.2761 20 17.5 20.2239 17.5 20.5C17.5 20.7761 17.2761 21 17 21H3C2.72386 21 2.5 20.7761 2.5 20.5Z" fill="black"/>
</svg>
