<svg width="24" height="24" viewBox="0 0 24 24" fill="none" xmlns="http://www.w3.org/2000/svg">
<path fill-rule="evenodd" clip-rule="evenodd" d="M15.5185 6.25004C15.6418 6.25004 15.7952 6.24894 15.9286 6.25981C16.0374 6.26869 16.1818 6.28896 16.3388 6.34477L16.4999 6.41313L16.6034 6.47172C16.6227 6.48352 16.6405 6.49816 16.6591 6.51078C16.6862 6.50228 16.7131 6.4934 16.7401 6.48539C17.1223 6.37216 17.5839 6.27999 18.0673 6.2559C18.9789 6.21051 20.2959 6.40566 21.0155 7.59477C21.3677 8.17676 21.7499 9.2016 21.1259 10.4522C20.5953 11.5153 19.403 12.5889 17.2441 13.6993C17.1789 14.3482 17.0518 14.9269 16.7773 15.4659C16.3005 16.4015 15.539 17.162 14.6034 17.6387C14.0142 17.9388 13.3773 18.0649 12.6532 18.1241C11.9408 18.1822 11.0583 18.1807 9.9628 18.1807H9.60538C8.50988 18.1807 7.62735 18.1823 6.91495 18.1241C6.19099 18.0649 5.5539 17.9389 4.96475 17.6387C4.02944 17.162 3.26851 16.4013 2.7919 15.4659C2.49178 14.8766 2.36668 14.2397 2.30753 13.5157C2.24932 12.8031 2.24991 11.921 2.24991 10.8252V8.04985C2.24991 7.92654 2.24881 7.77397 2.25967 7.64067C2.27154 7.49556 2.30217 7.2871 2.413 7.06938L2.47159 6.96586C2.61566 6.73101 2.82243 6.53895 3.06925 6.41313L3.2294 6.34477C3.3866 6.28877 3.53158 6.26873 3.64053 6.25981C3.77374 6.24896 3.92646 6.25004 4.04971 6.25004H15.5185ZM4.24991 10.8252C4.24991 11.9538 4.2507 12.7404 4.30069 13.3526C4.34972 13.9527 4.44159 14.2973 4.57413 14.5577C4.85904 15.1168 5.31384 15.5725 5.87296 15.8575C6.13326 15.99 6.47797 16.0809 7.07803 16.1299C7.69013 16.1799 8.47693 16.1807 9.60538 16.1807H9.9628C11.0914 16.1807 11.8789 16.1799 12.4911 16.1299C13.0912 16.0809 13.4359 15.99 13.6962 15.8575C14.2554 15.5725 14.7101 15.1169 14.995 14.5577C15.1276 14.2973 15.2194 13.9528 15.2685 13.3526C15.3185 12.7404 15.3192 11.9539 15.3192 10.8252V8.25004H4.24991V10.8252ZM18.1669 8.25395C17.8694 8.26877 17.5704 8.32689 17.3192 8.40043V10.8252C17.3192 11.013 17.3166 11.1947 17.3163 11.3702C18.5977 10.5922 19.1314 9.96842 19.3358 9.55863C19.5492 9.13078 19.4412 8.85828 19.3036 8.6309C19.1623 8.39742 18.8263 8.22111 18.1669 8.25395Z" fill="black"/>
</svg>
