<svg width="24" height="24" viewBox="0 0 24 24" fill="none" xmlns="http://www.w3.org/2000/svg">
<path fill-rule="evenodd" clip-rule="evenodd" d="M2.14394 4C1.65023 4 1.25 4.40023 1.25 4.89394V9.5C1.25 14.1944 5.05558 18 9.75 18C12.8525 18 15.5668 16.3378 17.0509 13.8554C17.4349 13.9499 17.8364 14 18.2496 14C21.0111 14 23.2496 11.7614 23.2496 9C23.2496 6.23858 21.0111 4 18.2496 4C18.0361 4 17.8257 4.01339 17.6192 4.03936C17.536 4.01377 17.4476 4 17.3561 4H2.14394ZM18.25 6V9.5C18.25 10.3619 18.1217 11.1939 17.8832 11.9778C18.0033 11.9925 18.1256 12 18.2496 12C19.9065 12 21.2496 10.6569 21.2496 9C21.2496 7.34327 19.9067 6.0002 18.25 6Z" fill="black"/>
<path d="M2 20.5C2 19.9477 2.44772 19.5 3 19.5H17C17.5523 19.5 18 19.9477 18 20.5C18 21.0523 17.5523 21.5 17 21.5H3C2.44772 21.5 2 21.0523 2 20.5Z" fill="black"/>
</svg>
