<svg width="24" height="24" viewBox="0 0 24 24" fill="none" xmlns="http://www.w3.org/2000/svg">
<path fill-rule="evenodd" clip-rule="evenodd" d="M2.14394 4C1.65023 4 1.25 4.40023 1.25 4.89394V9.5C1.25 14.1944 5.05558 18 9.75 18C13.3108 18 16.3601 15.8105 17.6253 12.7044C17.8292 12.7344 18.0378 12.75 18.2501 12.75C20.5973 12.75 22.5001 10.8472 22.5001 8.5C22.5001 6.15279 20.5973 4.25 18.2501 4.25C18.1609 4.25 18.0723 4.25275 17.9845 4.25817C17.823 4.09855 17.601 4 17.3561 4H2.14394ZM18.2385 4.75002C18.2461 4.79687 18.25 4.84495 18.25 4.89394V9.5C18.25 10.4527 18.0933 11.3687 17.8042 12.2238C17.9504 12.2411 18.0992 12.25 18.2501 12.25C20.3212 12.25 22.0001 10.5711 22.0001 8.5C22.0001 6.42893 20.3212 4.75 18.2501 4.75C18.2462 4.75 18.2424 4.75001 18.2385 4.75002Z" fill="black"/>
<path d="M2.75 20.5C2.75 20.3619 2.86193 20.25 3 20.25H17C17.1381 20.25 17.25 20.3619 17.25 20.5C17.25 20.6381 17.1381 20.75 17 20.75H3C2.86193 20.75 2.75 20.6381 2.75 20.5Z" fill="black"/>
</svg>
