<svg width="24" height="24" viewBox="0 0 24 24" fill="none" xmlns="http://www.w3.org/2000/svg">
<path fill-rule="evenodd" clip-rule="evenodd" d="M0.75 4.89394C0.75 4.12409 1.37409 3.5 2.14394 3.5H17.3561C17.4617 3.5 17.5647 3.51176 17.6636 3.53404C17.856 3.51156 18.0517 3.5 18.2501 3.5C21.0115 3.5 23.2501 5.73858 23.2501 8.5C23.2501 11.2614 21.0115 13.5 18.2501 13.5C18.1064 13.5 17.9641 13.4939 17.8234 13.482C16.3541 16.4552 13.2909 18.5 9.75 18.5C4.77944 18.5 0.75 14.4706 0.75 9.5V4.89394ZM18.5299 11.4871C20.0556 11.346 21.2501 10.0625 21.2501 8.5C21.2501 7.01346 20.1689 5.77945 18.75 5.54146V9.5C18.75 10.1828 18.674 10.8478 18.5299 11.4871ZM2.75 5.5V9.5C2.75 13.366 5.88401 16.5 9.75 16.5C13.616 16.5 16.75 13.366 16.75 9.5V5.5H2.75Z" fill="black"/>
<path d="M2 20.5C2 19.9477 2.44772 19.5 3 19.5H17C17.5523 19.5 18 19.9477 18 20.5C18 21.0523 17.5523 21.5 17 21.5H3C2.44772 21.5 2 21.0523 2 20.5Z" fill="black"/>
</svg>
