<svg width="24" height="24" viewBox="0 0 24 24" fill="none" xmlns="http://www.w3.org/2000/svg">
<path d="M2.75002 19.5C2.75002 21.2949 4.20509 22.75 6.00002 22.75H8.50002C9.19038 22.75 9.75002 22.1904 9.75002 21.5C9.75002 20.8096 9.19038 20.25 8.50002 20.25H6.00002C5.58581 20.25 5.25002 19.9142 5.25002 19.5V14.4846C5.25002 13.6255 4.91449 12.8359 4.35993 12.25C4.91449 11.6641 5.25002 10.8745 5.25002 10.0154V5C5.25002 4.58579 5.58581 4.25 6.00002 4.25H8.50002C9.19038 4.25 9.75002 3.69036 9.75002 3C9.75002 2.30964 9.19038 1.75 8.50002 1.75H6.00002C4.20509 1.75 2.75002 3.20507 2.75002 5V10.0154C2.75002 10.3886 2.47557 10.7051 2.10609 10.7579L0.323242 11.0126V13.4874L2.10609 13.7421C2.47557 13.7949 2.75002 14.1114 2.75002 14.4846V19.5Z" fill="black"/>
<path d="M21.25 19.5C21.25 21.2949 19.7949 22.75 18 22.75H15.5C14.8096 22.75 14.25 22.1904 14.25 21.5C14.25 20.8096 14.8096 20.25 15.5 20.25H18C18.4142 20.25 18.75 19.9142 18.75 19.5V14.4846C18.75 13.6255 19.0855 12.8359 19.6401 12.25C19.0855 11.6641 18.75 10.8745 18.75 10.0154V5C18.75 4.58579 18.4142 4.25 18 4.25H15.5C14.8096 4.25 14.25 3.69036 14.25 3C14.25 2.30964 14.8096 1.75 15.5 1.75H18C19.7949 1.75 21.25 3.20507 21.25 5V10.0154C21.25 10.3886 21.5244 10.7051 21.8939 10.7579L23.6768 11.0126V13.4874L21.8939 13.7421C21.5244 13.7949 21.25 14.1114 21.25 14.4846V19.5Z" fill="black"/>
<path d="M7.99993 18.5C8.82836 18.5 9.49993 17.8284 9.49993 17C9.49993 16.1716 8.82836 15.5 7.99993 15.5C7.1715 15.5 6.49993 16.1716 6.49993 17C6.49993 17.8284 7.1715 18.5 7.99993 18.5Z" fill="black"/>
<path d="M11.9999 18.5C12.8284 18.5 13.4999 17.8284 13.4999 17C13.4999 16.1716 12.8284 15.5 11.9999 15.5C11.1715 15.5 10.4999 16.1716 10.4999 17C10.4999 17.8284 11.1715 18.5 11.9999 18.5Z" fill="black"/>
<path d="M17.4999 17C17.4999 17.8284 16.8284 18.5 15.9999 18.5C15.1715 18.5 14.4999 17.8284 14.4999 17C14.4999 16.1716 15.1715 15.5 15.9999 15.5C16.8284 15.5 17.4999 16.1716 17.4999 17Z" fill="black"/>
</svg>
