<svg width="24" height="24" viewBox="0 0 24 24" fill="none" xmlns="http://www.w3.org/2000/svg">
<path d="M2.751 19.5C2.751 21.2949 4.20607 22.75 6.001 22.75H8.501C9.19135 22.75 9.751 22.1904 9.751 21.5C9.751 20.8096 9.19135 20.25 8.501 20.25H6.001C5.58678 20.25 5.251 19.9142 5.251 19.5V14.4846C5.251 13.6255 4.91547 12.8359 4.36091 12.25C4.91547 11.6641 5.251 10.8745 5.251 10.0154V5C5.251 4.58579 5.58678 4.25 6.001 4.25H8.501C9.19135 4.25 9.751 3.69036 9.751 3C9.751 2.30964 9.19135 1.75 8.501 1.75H6.001C4.20607 1.75 2.751 3.20507 2.751 5V10.0154C2.751 10.3886 2.47655 10.7051 2.10706 10.7579L0.324219 11.0126V13.4874L2.10706 13.7421C2.47655 13.7949 2.751 14.1114 2.751 14.4846V19.5Z" fill="black"/>
<path d="M21.251 19.5C21.251 21.2949 19.7959 22.75 18.001 22.75H15.501C14.8106 22.75 14.251 22.1904 14.251 21.5C14.251 20.8096 14.8106 20.25 15.501 20.25H18.001C18.4152 20.25 18.751 19.9142 18.751 19.5V14.4846C18.751 13.6255 19.0865 12.8359 19.6411 12.25C19.0865 11.6641 18.751 10.8745 18.751 10.0154V5C18.751 4.58579 18.4152 4.25 18.001 4.25H15.501C14.8106 4.25 14.251 3.69036 14.251 3C14.251 2.30964 14.8106 1.75 15.501 1.75H18.001C19.7959 1.75 21.251 3.20507 21.251 5V10.0154C21.251 10.3886 21.5254 10.7051 21.8949 10.7579L23.6778 11.0126V13.4874L21.8949 13.7421C21.5254 13.7949 21.251 14.1114 21.251 14.4846V19.5Z" fill="black"/>
<path d="M8.00091 18.5C8.82933 18.5 9.50091 17.8284 9.50091 17C9.50091 16.1716 8.82933 15.5 8.00091 15.5C7.17248 15.5 6.50091 16.1716 6.50091 17C6.50091 17.8284 7.17248 18.5 8.00091 18.5Z" fill="black"/>
<path d="M12.0009 18.5C12.8293 18.5 13.5009 17.8284 13.5009 17C13.5009 16.1716 12.8293 15.5 12.0009 15.5C11.1725 15.5 10.5009 16.1716 10.5009 17C10.5009 17.8284 11.1725 18.5 12.0009 18.5Z" fill="black"/>
<path d="M17.5009 17C17.5009 17.8284 16.8293 18.5 16.0009 18.5C15.1725 18.5 14.5009 17.8284 14.5009 17C14.5009 16.1716 15.1725 15.5 16.0009 15.5C16.8293 15.5 17.5009 16.1716 17.5009 17Z" fill="black"/>
</svg>
