<svg width="24" height="24" viewBox="0 0 24 24" fill="none" xmlns="http://www.w3.org/2000/svg">
<path d="M3.7506 19.5C3.7506 21.0188 4.98181 22.25 6.5006 22.25H9.0006C9.41481 22.25 9.7506 21.9142 9.7506 21.5C9.7506 21.0858 9.41481 20.75 9.0006 20.75H6.5006C5.81024 20.75 5.2506 20.1904 5.2506 19.5V14.4846C5.2506 13.5723 4.80339 12.7525 4.10387 12.25C4.80339 11.7475 5.2506 10.9277 5.2506 10.0154V5C5.2506 4.30964 5.81024 3.75 6.5006 3.75H9.0006C9.41481 3.75 9.7506 3.41421 9.7506 3C9.7506 2.58579 9.41481 2.25 9.0006 2.25H6.5006C4.98181 2.25 3.7506 3.48122 3.7506 5V10.0154C3.7506 10.6375 3.29319 11.1649 2.67738 11.2528L0.894531 11.5075V12.9925L2.67737 13.2472C3.29318 13.3351 3.7506 13.8625 3.7506 14.4846V19.5Z" fill="black"/>
<path d="M20.2506 19.5C20.2506 21.0188 19.0194 22.25 17.5006 22.25H15.0006C14.5864 22.25 14.2506 21.9142 14.2506 21.5C14.2506 21.0858 14.5864 20.75 15.0006 20.75H17.5006C18.191 20.75 18.7506 20.1904 18.7506 19.5V14.4846C18.7506 13.5723 19.1978 12.7525 19.8973 12.25C19.1978 11.7475 18.7506 10.9277 18.7506 10.0154V5C18.7506 4.30964 18.191 3.75 17.5006 3.75H15.0006C14.5864 3.75 14.2506 3.41421 14.2506 3C14.2506 2.58579 14.5864 2.25 15.0006 2.25H17.5006C19.0194 2.25 20.2506 3.48122 20.2506 5V10.0154C20.2506 10.6375 20.708 11.1649 21.3238 11.2528L23.1067 11.5075V12.9925L21.3238 13.2472C20.708 13.3351 20.2506 13.8625 20.2506 14.4846V19.5Z" fill="black"/>
<path d="M8.0006 18C8.55288 18 9.0006 17.5523 9.0006 17C9.0006 16.4477 8.55288 16 8.0006 16C7.44831 16 7.0006 16.4477 7.0006 17C7.0006 17.5523 7.44831 18 8.0006 18Z" fill="black"/>
<path d="M12.0006 18C12.5529 18 13.0006 17.5523 13.0006 17C13.0006 16.4477 12.5529 16 12.0006 16C11.4483 16 11.0006 16.4477 11.0006 17C11.0006 17.5523 11.4483 18 12.0006 18Z" fill="black"/>
<path d="M17.0006 17C17.0006 17.5523 16.5529 18 16.0006 18C15.4483 18 15.0006 17.5523 15.0006 17C15.0006 16.4477 15.4483 16 16.0006 16C16.5529 16 17.0006 16.4477 17.0006 17Z" fill="black"/>
</svg>
