<svg width="24" height="24" viewBox="0 0 24 24" fill="none" xmlns="http://www.w3.org/2000/svg">
<path d="M3.0008 19.5C3.0008 21.1569 4.34394 22.5 6.0008 22.5H8.5008C9.05308 22.5 9.5008 22.0523 9.5008 21.5C9.5008 20.9477 9.05308 20.5 8.5008 20.5H6.0008C5.44851 20.5 5.0008 20.0523 5.0008 19.5V14.4846C5.0008 13.6041 4.619 12.8027 4.00259 12.25C4.619 11.6973 5.0008 10.8959 5.0008 10.0154V5C5.0008 4.44772 5.44851 4 6.0008 4H8.5008C9.05308 4 9.5008 3.55228 9.5008 3C9.5008 2.44772 9.05308 2 8.5008 2H6.0008C4.34394 2 3.0008 3.34315 3.0008 5V10.0154C3.0008 10.5131 2.63487 10.935 2.14222 11.0054L0.359375 11.2601V13.2399L2.14222 13.4946C2.63487 13.565 3.0008 13.9869 3.0008 14.4846V19.5Z" fill="black"/>
<path d="M21.0008 19.5C21.0008 21.1569 19.6577 22.5 18.0008 22.5H15.5008C14.9485 22.5 14.5008 22.0523 14.5008 21.5C14.5008 20.9477 14.9485 20.5 15.5008 20.5H18.0008C18.5531 20.5 19.0008 20.0523 19.0008 19.5V14.4846C19.0008 13.6041 19.3826 12.8027 19.999 12.25C19.3826 11.6973 19.0008 10.8959 19.0008 10.0154V5C19.0008 4.44772 18.5531 4 18.0008 4H15.5008C14.9485 4 14.5008 3.55228 14.5008 3C14.5008 2.44772 14.9485 2 15.5008 2H18.0008C19.6577 2 21.0008 3.34315 21.0008 5V10.0154C21.0008 10.5131 21.3667 10.935 21.8594 11.0054L23.6422 11.2601V13.2399L21.8594 13.4946C21.3667 13.565 21.0008 13.9869 21.0008 14.4846V19.5Z" fill="black"/>
<path d="M8.00062 18.25C8.69097 18.25 9.25062 17.6904 9.25062 17C9.25062 16.3096 8.69097 15.75 8.00062 15.75C7.31026 15.75 6.75062 16.3096 6.75062 17C6.75062 17.6904 7.31026 18.25 8.00062 18.25Z" fill="black"/>
<path d="M12.0006 18.25C12.691 18.25 13.2506 17.6904 13.2506 17C13.2506 16.3096 12.691 15.75 12.0006 15.75C11.3103 15.75 10.7506 16.3096 10.7506 17C10.7506 17.6904 11.3103 18.25 12.0006 18.25Z" fill="black"/>
<path d="M17.2506 17C17.2506 17.6904 16.691 18.25 16.0006 18.25C15.3103 18.25 14.7506 17.6904 14.7506 17C14.7506 16.3096 15.3103 15.75 16.0006 15.75C16.691 15.75 17.2506 16.3096 17.2506 17Z" fill="black"/>
</svg>
