<svg width="24" height="24" viewBox="0 0 24 24" fill="none" xmlns="http://www.w3.org/2000/svg">
<path d="M4.2502 19.5C4.2502 20.7426 5.25756 21.75 6.5002 21.75H9.0002C9.13827 21.75 9.2502 21.6381 9.2502 21.5C9.2502 21.3619 9.13827 21.25 9.0002 21.25H6.5002C5.5337 21.25 4.7502 20.4665 4.7502 19.5V14.4846C4.7502 13.3649 3.92686 12.4156 2.8184 12.2572L2.76797 12.25L2.8184 12.2428C3.92686 12.0844 4.7502 11.1351 4.7502 10.0154V5C4.7502 4.0335 5.5337 3.25 6.5002 3.25H9.0002C9.13827 3.25 9.2502 3.13807 9.2502 3C9.2502 2.86193 9.13827 2.75 9.0002 2.75H6.5002C5.25756 2.75 4.2502 3.75736 4.2502 5V10.0154C4.2502 10.8863 3.60982 11.6247 2.74769 11.7478L0.964844 12.0025V12.4975L2.74769 12.7522C3.60982 12.8753 4.2502 13.6137 4.2502 14.4846V19.5Z" fill="black"/>
<path d="M19.7502 19.5C19.7502 20.7426 18.7428 21.75 17.5002 21.75H15.0002C14.8621 21.75 14.7502 21.6381 14.7502 21.5C14.7502 21.3619 14.8621 21.25 15.0002 21.25H17.5002C18.4667 21.25 19.2502 20.4665 19.2502 19.5V14.4846C19.2502 13.3649 20.0735 12.4156 21.182 12.2572L21.2324 12.25L21.182 12.2428C20.0735 12.0844 19.2502 11.1351 19.2502 10.0154V5C19.2502 4.0335 18.4667 3.25 17.5002 3.25H15.0002C14.8621 3.25 14.7502 3.13807 14.7502 3C14.7502 2.86193 14.8621 2.75 15.0002 2.75H17.5002C18.7428 2.75 19.7502 3.75736 19.7502 5V10.0154C19.7502 10.8863 20.3906 11.6247 21.2527 11.7478L23.0356 12.0025V12.4975L21.2527 12.7522C20.3906 12.8753 19.7502 13.6137 19.7502 14.4846V19.5Z" fill="black"/>
<path d="M8.0002 17.75C8.41441 17.75 8.7502 17.4142 8.7502 17C8.7502 16.5858 8.41441 16.25 8.0002 16.25C7.58599 16.25 7.2502 16.5858 7.2502 17C7.2502 17.4142 7.58599 17.75 8.0002 17.75Z" fill="black"/>
<path d="M12.0002 17.75C12.4144 17.75 12.7502 17.4142 12.7502 17C12.7502 16.5858 12.4144 16.25 12.0002 16.25C11.586 16.25 11.2502 16.5858 11.2502 17C11.2502 17.4142 11.586 17.75 12.0002 17.75Z" fill="black"/>
<path d="M16.7502 17C16.7502 17.4142 16.4144 17.75 16.0002 17.75C15.586 17.75 15.2502 17.4142 15.2502 17C15.2502 16.5858 15.586 16.25 16.0002 16.25C16.4144 16.25 16.7502 16.5858 16.7502 17Z" fill="black"/>
</svg>
