<svg width="24" height="24" viewBox="0 0 24 24" fill="none" xmlns="http://www.w3.org/2000/svg">
<path d="M12 0.75C12.4142 0.75 12.75 1.08579 12.75 1.5V2.99538L15.1031 3.25684L15.1641 3.26701C17.2334 3.61188 18.75 5.4022 18.75 7.5C18.75 7.91421 18.4142 8.25 18 8.25C17.5858 8.25 17.25 7.91421 17.25 7.5C17.25 6.13546 16.2635 4.97093 14.9175 4.7466L14.8969 4.74316L10.4394 4.24788C8.47128 4.0292 6.75 5.56982 6.75 7.55007C6.75 9.17424 7.92422 10.5604 9.52629 10.8274L14.7203 11.693C17.0457 12.0806 18.75 14.0925 18.75 16.4499C18.75 19.3242 16.2516 21.5604 13.3949 21.2429L12.25 21.1157V22.5C12.25 22.9142 11.9142 23.25 11.5 23.25C11.0858 23.25 10.75 22.9142 10.75 22.5V20.9491L8.89686 20.7432L8.83588 20.733C6.76663 20.3881 5.25 18.5978 5.25 16.5C5.25 16.0858 5.58579 15.75 6 15.75C6.41421 15.75 6.75 16.0858 6.75 16.5C6.75 17.8645 7.73651 19.0291 9.08248 19.2534L9.10314 19.2568L13.5606 19.7521C15.5287 19.9708 17.25 18.4302 17.25 16.4499C17.25 14.8258 16.0758 13.4396 14.4737 13.1726L9.27969 12.307C6.95434 11.9194 5.25 9.9075 5.25 7.55007C5.25 4.6758 7.74837 2.43965 10.6051 2.75706L11.25 2.82872V1.5C11.25 1.08579 11.5858 0.75 12 0.75Z" fill="black"/>
</svg>
