<svg width="24" height="24" viewBox="0 0 24 24" fill="none" xmlns="http://www.w3.org/2000/svg">
<path d="M12 0.25C12.6904 0.25 13.25 0.809644 13.25 1.5V2.54786L15.1719 2.76141L15.2463 2.77381C17.5567 3.15887 19.25 5.15779 19.25 7.5C19.25 8.19036 18.6904 8.75 18 8.75C17.3096 8.75 16.75 8.19036 16.75 7.5C16.75 6.37988 15.9402 5.42394 14.8353 5.2398L14.8281 5.23859L10.3842 4.74483C8.71224 4.55905 7.25 5.86782 7.25 7.55007C7.25 8.92982 8.24751 10.1073 9.60849 10.3342L14.8025 11.1998C17.369 11.6276 19.25 13.8481 19.25 16.4499C19.25 19.6222 16.4926 22.0902 13.3397 21.7399L12.75 21.6744V22.5C12.75 23.1904 12.1904 23.75 11.5 23.75C10.8096 23.75 10.25 23.1904 10.25 22.5V21.3966L8.8281 21.2386L8.75368 21.2262C6.44334 20.8411 4.75 18.8422 4.75 16.5C4.75 15.8096 5.30964 15.25 6 15.25C6.69036 15.25 7.25 15.8096 7.25 16.5C7.25 17.6201 8.0598 18.5761 9.16469 18.7602L9.17191 18.7614L13.6158 19.2552C15.2878 19.4409 16.75 18.1322 16.75 16.4499C16.75 15.0702 15.7525 13.8927 14.3915 13.6658L9.19749 12.8002C6.63104 12.3724 4.75 10.1519 4.75 7.55007C4.75 4.3778 7.50741 1.9098 10.6603 2.26012L10.75 2.27009V1.5C10.75 0.809644 11.3096 0.25 12 0.25Z" fill="black"/>
</svg>
