<svg width="24" height="24" viewBox="0 0 24 24" fill="none" xmlns="http://www.w3.org/2000/svg">
<path d="M13.25 1.5C13.25 0.809644 12.6904 0.25 12 0.25C11.3096 0.25 10.75 0.809644 10.75 1.5V22.5C10.75 23.1904 11.3096 23.75 12 23.75C12.6904 23.75 13.25 23.1904 13.25 22.5V1.5Z" fill="black"/>
<path d="M14.5 2.68675V5.20214L14.8281 5.23859L14.8353 5.23979C15.9402 5.42394 16.75 6.37988 16.75 7.5C16.75 8.19036 17.3096 8.75 18 8.75C18.6904 8.75 19.25 8.19036 19.25 7.5C19.25 5.15779 17.5567 3.15887 15.2463 2.77381L15.1719 2.76141L14.5 2.68675Z" fill="black"/>
<path d="M9.5 2.25684V4.78509C8.22857 5.04764 7.25 6.17388 7.25 7.55007C7.25 8.89289 8.19483 10.0442 9.5 10.3139V12.8506L9.19749 12.8002C6.63104 12.3724 4.75 10.1519 4.75 7.55007C4.75 4.77472 6.86055 2.53842 9.5 2.25684Z" fill="black"/>
<path d="M14.8025 11.1998L14.5 11.1494V13.6861C15.8052 13.9558 16.75 15.1071 16.75 16.4499C16.75 17.8261 15.7714 18.9524 14.5 19.2149V21.7432C17.1394 21.4616 19.25 19.2253 19.25 16.4499C19.25 13.8481 17.369 11.6276 14.8025 11.1998Z" fill="black"/>
<path d="M9.5 21.3132V18.7979L9.17191 18.7614L9.16469 18.7602C8.0598 18.5761 7.25 17.6201 7.25 16.5C7.25 15.8096 6.69036 15.25 6 15.25C5.30964 15.25 4.75 15.8096 4.75 16.5C4.75 18.8422 6.44334 20.8411 8.75368 21.2262L8.8281 21.2386L9.5 21.3132Z" fill="black"/>
</svg>
