<svg width="24" height="24" viewBox="0 0 24 24" fill="none" xmlns="http://www.w3.org/2000/svg">
<path d="M14.3408 23.7705C13.5836 23.9202 12.8011 24 12 24C11.1986 24 10.4157 23.9204 9.6582 23.7705L9.75488 23.2812L9.85254 22.791C10.5463 22.9282 11.2642 23 12 23C12.7358 23 13.4537 22.9282 14.1475 22.791L14.3408 23.7705Z" fill="black"/>
<path d="M2.85254 18.1113C3.65581 19.3111 4.68894 20.3442 5.88867 21.1475L5.33301 21.9775C4.02425 21.1013 2.89759 19.9749 2.02148 18.666L2.43652 18.3896L2.85254 18.1113Z" fill="black"/>
<path d="M21.5635 18.3896L21.9775 18.666C21.1013 19.9749 19.9749 21.1013 18.666 21.9775L18.1113 21.1475C19.3111 20.3442 20.3442 19.3111 21.1475 18.1113L21.5635 18.3896Z" fill="black"/>
<path d="M0.71875 9.75488L1.20898 9.85254C1.07178 10.5463 1 11.2642 1 12C1 12.7358 1.07178 13.4537 1.20898 14.1475L0.717773 14.2441L0.71875 14.2451L0.228516 14.3408C0.0788069 13.5837 0 12.8011 0 12C0 11.1986 0.078686 10.4156 0.228516 9.6582L0.71875 9.75488Z" fill="black"/>
<path d="M23.7705 9.6582C23.9204 10.4157 24 11.1986 24 12C24 12.8011 23.9202 13.5836 23.7705 14.3408L23.2812 14.2451L22.791 14.1475C22.9282 13.4537 23 12.7358 23 12C23 11.2642 22.9282 10.5463 22.791 9.85254L23.2812 9.75488L23.7705 9.6582Z" fill="black"/>
<path d="M5.88867 2.85254C4.68894 3.65581 3.65581 4.68894 2.85254 5.88867L2.02148 5.33301C2.89763 4.02428 4.02428 2.89763 5.33301 2.02148L5.88867 2.85254Z" fill="black"/>
<path d="M18.666 2.02148C19.9749 2.89759 21.1013 4.02425 21.9775 5.33301L21.1475 5.88867C20.3442 4.68894 19.3111 3.65581 18.1113 2.85254L18.666 2.02148Z" fill="black"/>
<path d="M12 0C12.8011 0 13.5837 0.0788069 14.3408 0.228516L14.1475 1.20898C13.4537 1.07178 12.7358 1 12 1C11.2642 1 10.5463 1.07178 9.85254 1.20898L9.6582 0.228516C10.4156 0.078686 11.1986 0 12 0Z" fill="black"/>
</svg>
