<svg width="24" height="24" viewBox="0 0 24 24" fill="none" xmlns="http://www.w3.org/2000/svg">
<path d="M15.1064 23.5908C14.1154 23.8558 13.0746 24 12 24C10.9251 24 9.88391 23.8559 8.89258 23.5908L9.53906 21.1787C10.3212 21.3877 11.1456 21.5 12 21.5C12.8544 21.5 13.6788 21.3877 14.4609 21.1787L15.1064 23.5908Z" fill="black"/>
<path d="M3.76953 16.749C4.60418 18.1916 5.80843 19.3958 7.25098 20.2305L6 22.3906C4.17919 21.3369 2.66189 19.82 1.6084 17.999L3.76953 16.749Z" fill="black"/>
<path d="M22.3906 17.999C21.337 19.82 19.82 21.337 17.999 22.3906L16.749 20.2305C18.1916 19.3958 19.3958 18.1916 20.2305 16.749L22.3906 17.999Z" fill="black"/>
<path d="M2.82129 9.53906C2.61225 10.3212 2.5 11.1456 2.5 12C2.5 12.8544 2.61225 13.6788 2.82129 14.4609L0.408203 15.1064C0.143304 14.1155 0 13.0745 0 12C0 10.9252 0.143147 9.88383 0.408203 8.89258L2.82129 9.53906Z" fill="black"/>
<path d="M23.5908 8.89258C23.8559 9.88391 24 10.9251 24 12C24 13.0746 23.8558 14.1154 23.5908 15.1064L21.1787 14.4609C21.3877 13.6788 21.5 12.8544 21.5 12C21.5 11.1456 21.3877 10.3212 21.1787 9.53906L23.5908 8.89258Z" fill="black"/>
<path d="M7.25098 3.76953C5.80843 4.60418 4.60418 5.80843 3.76953 7.25098L1.6084 6C2.66195 4.17925 4.17925 2.66195 6 1.6084L7.25098 3.76953Z" fill="black"/>
<path d="M17.999 1.6084C19.82 2.66189 21.3369 4.17919 22.3906 6L20.2305 7.25098C19.3958 5.80843 18.1916 4.60418 16.749 3.76953L17.999 1.6084Z" fill="black"/>
<path d="M12 0C13.0745 0 14.1155 0.143304 15.1064 0.408203L14.4609 2.82129C13.6788 2.61225 12.8544 2.5 12 2.5C11.1456 2.5 10.3212 2.61225 9.53906 2.82129L8.89258 0.408203C9.88383 0.143147 10.9252 0 12 0Z" fill="black"/>
</svg>
