<svg width="24" height="24" viewBox="0 0 24 24" fill="none" xmlns="http://www.w3.org/2000/svg">
<path d="M18.8154 21.874C16.8793 23.213 14.5322 24 12 24C9.46753 24 7.11986 23.2132 5.18359 21.874L6.32031 20.2314C7.93289 21.3466 9.88717 22 12 22C14.1128 22 16.0671 21.3466 17.6797 20.2314L18.8154 21.874Z" fill="black"/>
<path d="M3.76855 6.32031C2.65339 7.93289 2 9.88717 2 12C2 14.1128 2.65339 16.0671 3.76855 17.6797L2.125 18.8154C0.786258 16.8794 0 14.532 0 12C0 9.46773 0.785979 7.11977 2.125 5.18359L3.76855 6.32031Z" fill="black"/>
<path d="M21.874 5.18359C23.2132 7.11986 24 9.46753 24 12C24 14.5322 23.213 16.8793 21.874 18.8154L20.2314 17.6797C21.3466 16.0671 22 14.1128 22 12C22 9.88717 21.3466 7.93289 20.2314 6.32031L21.874 5.18359Z" fill="black"/>
<path d="M12 0C14.532 0 16.8794 0.786258 18.8154 2.125L17.6797 3.76855C16.0671 2.65339 14.1128 2 12 2C9.88717 2 7.93289 2.65339 6.32031 3.76855L5.18359 2.125C7.11977 0.785979 9.46773 0 12 0Z" fill="black"/>
</svg>
