<svg width="24" height="24" viewBox="0 0 24 24" fill="none" xmlns="http://www.w3.org/2000/svg">
<path d="M15.1064 23.5908C14.1154 23.8558 13.0746 24 12 24C10.9251 24 9.88391 23.8559 8.89258 23.5908L9.79688 20.2129C10.4956 20.3997 11.2334 20.5 12 20.5C12.7666 20.5 13.5044 20.3997 14.2031 20.2129L15.1064 23.5908Z" fill="black"/>
<path d="M4.63574 16.248C5.38278 17.5391 6.46086 18.6172 7.75195 19.3643L6.20703 22.0352L6 22.3906C4.17919 21.3369 2.66189 19.82 1.6084 17.999L4.63574 16.248Z" fill="black"/>
<path d="M22.3906 17.999C21.337 19.82 19.82 21.337 17.999 22.3906L16.248 19.3643C17.5391 18.6172 18.6172 17.5391 19.3643 16.248L22.3906 17.999Z" fill="black"/>
<path d="M3.78711 9.79688C3.60033 10.4956 3.5 11.2334 3.5 12C3.5 12.7666 3.60033 13.5044 3.78711 14.2031L0.408203 15.1064C0.143304 14.1155 0 13.0745 0 12C0 10.9252 0.143147 9.88383 0.408203 8.89258L3.78711 9.79688Z" fill="black"/>
<path d="M23.5908 8.89258C23.8559 9.88391 24 10.9251 24 12C24 13.0746 23.8558 14.1154 23.5908 15.1064L20.2129 14.2031C20.3997 13.5044 20.5 12.7666 20.5 12C20.5 11.2334 20.3997 10.4956 20.2129 9.79688L23.5908 8.89258Z" fill="black"/>
<path d="M7.75195 4.63574C6.46086 5.38278 5.38278 6.46086 4.63574 7.75195L1.6084 6C2.66195 4.17925 4.17925 2.66195 6 1.6084L7.75195 4.63574Z" fill="black"/>
<path d="M17.999 1.6084C19.82 2.66189 21.3369 4.17919 22.3906 6L19.3643 7.75195C18.6172 6.46086 17.5391 5.38278 16.248 4.63574L17.999 1.6084Z" fill="black"/>
<path d="M12 0C13.0745 0 14.1155 0.143304 15.1064 0.408203L14.2031 3.78711C13.5044 3.60033 12.7666 3.5 12 3.5C11.2334 3.5 10.4956 3.60033 9.79688 3.78711L8.89258 0.408203C9.88383 0.143147 10.9252 0 12 0Z" fill="black"/>
</svg>
