<svg width="24" height="24" viewBox="0 0 24 24" fill="none" xmlns="http://www.w3.org/2000/svg">
<path d="M15.1064 23.5908C14.1154 23.8558 13.0746 24 12 24C10.9251 24 9.88391 23.8559 8.89258 23.5908L9.40918 21.6621C10.2332 21.8824 11.1014 22 12 22C12.8986 22 13.7668 21.8824 14.5908 21.6621L15.1064 23.5908Z" fill="black"/>
<path d="M3.33691 16.999C4.21536 18.5173 5.48274 19.7846 7.00098 20.6631L6 22.3906C4.17919 21.3369 2.66189 19.82 1.6084 17.999L3.33691 16.999Z" fill="black"/>
<path d="M22.3906 17.999C21.337 19.82 19.82 21.337 17.999 22.3906L16.999 20.6631C18.5173 19.7846 19.7846 18.5173 20.6631 16.999L22.3906 17.999Z" fill="black"/>
<path d="M2.33789 9.40918C2.11763 10.2332 2 11.1014 2 12C2 12.8986 2.11763 13.7668 2.33789 14.5908L0.408203 15.1064C0.143304 14.1155 0 13.0745 0 12C0 10.9252 0.143147 9.88383 0.408203 8.89258L2.33789 9.40918Z" fill="black"/>
<path d="M23.5908 8.89258C23.8559 9.88391 24 10.9251 24 12C24 13.0746 23.8558 14.1154 23.5908 15.1064L21.6621 14.5908C21.8824 13.7668 22 12.8986 22 12C22 11.1014 21.8824 10.2332 21.6621 9.40918L23.5908 8.89258Z" fill="black"/>
<path d="M7.00098 3.33691C5.48274 4.21536 4.21536 5.48274 3.33691 7.00098L1.6084 6C2.66195 4.17925 4.17925 2.66195 6 1.6084L7.00098 3.33691Z" fill="black"/>
<path d="M17.999 1.6084C19.82 2.66189 21.3369 4.17919 22.3906 6L20.6631 7.00098C19.7846 5.48274 18.5173 4.21536 16.999 3.33691L17.999 1.6084Z" fill="black"/>
<path d="M12 0C13.0745 0 14.1155 0.143304 15.1064 0.408203L14.5908 2.33789C13.7668 2.11763 12.8986 2 12 2C11.1014 2 10.2332 2.11763 9.40918 2.33789L8.89258 0.408203C9.88383 0.143147 10.9252 0 12 0Z" fill="black"/>
</svg>
