<svg width="24" height="24" viewBox="0 0 24 24" fill="none" xmlns="http://www.w3.org/2000/svg">
<path d="M18.6748 21.6709L18.8154 21.874C16.8793 23.213 14.5322 24 12 24C9.46753 24 7.11986 23.2132 5.18359 21.874L5.3252 21.6709L5.4668 21.4658C7.32204 22.7488 9.57267 23.5 12 23.5C14.4273 23.5 16.678 22.7488 18.5332 21.4658L18.6748 21.6709Z" fill="black"/>
<path d="M2.53418 5.4668C1.2512 7.32204 0.5 9.57267 0.5 12C0.5 14.4273 1.2512 16.678 2.53418 18.5332L2.26562 18.7188L2.125 18.8154C0.786258 16.8794 0 14.532 0 12C0 9.46773 0.785979 7.11977 2.125 5.18359L2.53418 5.4668Z" fill="black"/>
<path d="M21.874 5.18359C23.2132 7.11986 24 9.46753 24 12C24 14.5322 23.213 16.8793 21.874 18.8154L21.4658 18.5332C22.7488 16.678 23.5 14.4273 23.5 12C23.5 9.57267 22.7488 7.32204 21.4658 5.4668L21.874 5.18359Z" fill="black"/>
<path d="M12 0C14.532 0 16.8794 0.786258 18.8154 2.125L18.5332 2.53418C16.678 1.2512 14.4273 0.5 12 0.5C9.57267 0.5 7.32204 1.2512 5.4668 2.53418L5.18359 2.125C7.11977 0.785979 9.46773 0 12 0Z" fill="black"/>
</svg>
