<svg width="24" height="24" viewBox="0 0 24 24" fill="none" xmlns="http://www.w3.org/2000/svg">
<path d="M14.3408 23.7705C13.5836 23.9202 12.8011 24 12 24C11.1986 24 10.4157 23.9204 9.6582 23.7705L9.75488 23.2812C10.4805 23.4248 11.2313 23.5 12 23.5C12.7687 23.5 13.5195 23.4248 14.2451 23.2812L14.3408 23.7705Z" fill="black"/>
<path d="M2.43652 18.3896C3.27619 19.6438 4.3562 20.7238 5.61035 21.5635L5.33301 21.9775C4.02425 21.1013 2.89759 19.9749 2.02148 18.666L2.43652 18.3896Z" fill="black"/>
<path d="M21.9775 18.666C21.1013 19.9749 19.9749 21.1013 18.666 21.9775L18.3896 21.5635C19.6438 20.7238 20.7238 19.6438 21.5635 18.3896L21.9775 18.666Z" fill="black"/>
<path d="M0.71875 9.75488C0.575193 10.4805 0.5 11.2313 0.5 12C0.5 12.7687 0.575193 13.5195 0.71875 14.2451L0.228516 14.3408C0.0788069 13.5837 0 12.8011 0 12C0 11.1986 0.078686 10.4156 0.228516 9.6582L0.71875 9.75488Z" fill="black"/>
<path d="M23.7705 9.6582C23.9204 10.4157 24 11.1986 24 12C24 12.8011 23.9202 13.5836 23.7705 14.3408L23.2812 14.2451C23.4248 13.5195 23.5 12.7687 23.5 12C23.5 11.2313 23.4248 10.4805 23.2812 9.75488L23.7705 9.6582Z" fill="black"/>
<path d="M5.61035 2.43652C4.3562 3.27619 3.27619 4.3562 2.43652 5.61035L2.22852 5.4707L2.02148 5.33301C2.89763 4.02428 4.02428 2.89763 5.33301 2.02148L5.61035 2.43652Z" fill="black"/>
<path d="M18.666 2.02148C19.9749 2.89759 21.1013 4.02425 21.9775 5.33301L21.7715 5.47168L21.7705 5.4707L21.5635 5.61035C20.7238 4.3562 19.6438 3.27619 18.3896 2.43652L18.666 2.02148Z" fill="black"/>
<path d="M12 0C12.8011 0 13.5837 0.0788069 14.3408 0.228516L14.2451 0.71875C13.5195 0.575193 12.7687 0.5 12 0.5C11.2313 0.5 10.4805 0.575193 9.75488 0.71875L9.6582 0.228516C10.4156 0.078686 11.1986 0 12 0Z" fill="black"/>
</svg>
