<svg width="24" height="24" viewBox="0 0 24 24" fill="none" xmlns="http://www.w3.org/2000/svg">
<path d="M22.455 5.20455C22.455 2.6063 17.7743 0.5 12.0004 0.5C6.22656 0.5 1.5459 2.6063 1.5459 5.20455C1.5459 7.80279 6.22657 9.90909 12.0005 9.90909C17.7687 9.90909 22.4459 7.8069 22.455 5.21214C22.455 5.20961 22.455 5.20708 22.455 5.20455Z" fill="black"/>
<path d="M22.455 7.61972C21.7794 8.37359 20.8266 8.98259 19.8033 9.44308C17.7549 10.3648 14.9953 10.9091 12.0005 10.9091C9.0056 10.9091 6.24598 10.3648 4.19761 9.44308C3.17429 8.98259 2.22151 8.37359 1.54591 7.61971L1.54591 12C1.54591 14.5982 6.22657 16.7046 12.0005 16.7046C17.7704 16.7046 22.4485 14.6012 22.455 12.0054C22.455 12.0037 22.455 12.0019 22.455 12.0001L22.455 7.61972Z" fill="black"/>
<path d="M22.455 14.4152C21.7794 15.1691 20.8266 15.7781 19.8033 16.2386C17.7549 17.1604 14.9953 17.7046 12.0005 17.7046C9.0056 17.7046 6.24598 17.1604 4.19761 16.2386C3.17429 15.7781 2.22151 15.1691 1.54591 14.4152V18.7955C1.54591 21.3937 6.22657 23.5 12.0005 23.5C17.7743 23.5 22.455 21.3937 22.455 18.7955L22.455 14.4152Z" fill="black"/>
</svg>
