<svg width="24" height="24" viewBox="0 0 24 24" fill="none" xmlns="http://www.w3.org/2000/svg">
<path fill-rule="evenodd" clip-rule="evenodd" d="M3.50005 15C3.50005 16.396 4.61872 17.5252 6.11959 18.2756C7.53722 18.9845 9.42569 19.4305 11.5 19.4925V22.1338C11.3482 22.2216 11.2216 22.3482 11.1338 22.5H2C1.72386 22.5 1.5 22.7239 1.5 23C1.5 23.2761 1.72386 23.5 2 23.5H11.1338C11.3067 23.7989 11.6299 24 12 24C12.3701 24 12.6933 23.7989 12.8662 23.5H22C22.2761 23.5 22.5 23.2761 22.5 23C22.5 22.7239 22.2761 22.5 22 22.5H12.8662C12.7784 22.3482 12.6518 22.2216 12.5 22.1338V19.4925C14.5743 19.4305 16.4629 18.9845 17.8805 18.2756C19.3814 17.5252 20.5 16.396 20.5 15V4.5C20.5 3.85132 20.1975 3.27276 19.7308 2.79011C19.2666 2.30987 18.6189 1.90023 17.8573 1.56705C16.3327 0.900035 14.2615 0.5 12 0.5C9.73863 0.5 7.66734 0.900035 6.14274 1.56705C5.38118 1.90023 4.73349 2.30987 4.26921 2.79011C3.8026 3.27276 3.5 3.85132 3.5 4.5L3.50005 4.51428V15ZM6.5436 2.4832C7.40036 2.10837 8.47505 1.81801 9.68716 1.65296C10.4144 1.55393 11.1912 1.5 12 1.5C12.1348 1.5 12.2687 1.5015 12.4017 1.50445C13.1161 1.52033 13.8024 1.57829 14.4482 1.67199C15.605 1.83984 16.6317 2.12238 17.4564 2.4832C18.1426 2.7834 18.6665 3.12794 19.0118 3.48517C19.3549 3.84 19.5 4.18218 19.5 4.5C19.5 4.81782 19.3549 5.16 19.0118 5.51483C18.6665 5.87206 18.1426 6.2166 17.4564 6.5168C16.0856 7.11653 14.1569 7.5 12 7.5C9.84314 7.5 7.91439 7.11653 6.54356 6.5168C5.8574 6.2166 5.33351 5.87206 4.98815 5.51483C4.64875 5.16376 4.5031 4.82507 4.50005 4.5101V4.5C4.50005 4.18218 4.64517 3.84 4.9882 3.48517C5.33356 3.12794 5.85745 2.7834 6.5436 2.4832ZM17.8573 7.43295C18.4999 7.15182 19.0614 6.81625 19.5 6.42976V9.5002C19.5 9.81801 19.3549 10.1602 19.0118 10.515C18.6665 10.8723 18.1426 11.2168 17.4564 11.517C16.0856 12.1167 14.1569 12.5002 12 12.5002C9.84314 12.5002 7.91439 12.1167 6.54356 11.517C5.8574 11.2168 5.33351 10.8723 4.98815 10.515C4.64875 10.164 4.5031 9.82526 4.50005 9.5103V6.42985C4.93871 6.8163 5.50019 7.15184 6.14274 7.43295C7.66734 8.09996 9.73858 8.5 12 8.5C14.2614 8.5 16.3327 8.09996 17.8573 7.43295ZM4.50005 11.43C4.93871 11.8165 5.50019 12.152 6.14274 12.4331C7.66734 13.1002 9.73858 13.5002 12 13.5002C14.2614 13.5002 16.3327 13.1002 17.8573 12.4331C18.4999 12.152 19.0614 11.8164 19.5 11.43V15C19.5 15.8132 18.8279 16.6839 17.4333 17.3812C16.0686 18.0635 14.1484 18.5 12 18.5C9.8517 18.5 7.93146 18.0635 6.5668 17.3812C5.17224 16.6839 4.50005 15.8132 4.50005 15V11.43Z" fill="black"/>
</svg>
