<svg width="24" height="24" viewBox="0 0 24 24" fill="none" xmlns="http://www.w3.org/2000/svg">
<path d="M20.1818 4.68185C20.1818 6.71527 16.5186 8.36385 11.9999 8.36385C7.49055 8.36385 3.83323 6.72225 3.81814 4.69463V4.69047L3.81812 4.68182C3.81812 2.64841 7.48124 1 11.9999 1C16.5186 1 20.1818 2.64844 20.1818 4.68185Z" fill="black"/>
<path d="M18.4009 8.65335C19.0103 8.37912 19.6394 8.01805 20.1818 7.56396V10.0001C20.1818 12.0335 16.5186 13.682 11.9999 13.682C7.49438 13.682 3.83947 12.0432 3.81814 10.018V7.56404C4.36044 8.01809 4.98957 8.37913 5.59894 8.65335C7.31426 9.42524 9.57868 9.86385 11.9999 9.86385C14.4211 9.86385 16.6856 9.42524 18.4009 8.65335Z" fill="black"/>
<path d="M18.4008 13.9715C19.0103 13.6973 19.6394 13.3362 20.1818 12.8821V15.3181C20.1817 17.3515 16.5186 18.9999 12 18.9999C7.48134 18.9999 3.81826 17.3516 3.81814 15.3182V12.8822C4.36043 13.3363 4.98954 13.6973 5.5989 13.9715C7.31421 14.7434 9.57864 15.182 11.9999 15.182C14.4211 15.182 16.6855 14.7434 18.4008 13.9715Z" fill="black"/>
<path d="M22 22.25H12.75V19H11.25V22.25H2C1.58579 22.25 1.25 22.5858 1.25 23C1.25 23.4142 1.58579 23.75 2 23.75H22C22.4142 23.75 22.75 23.4142 22.75 23C22.75 22.5858 22.4142 22.25 22 22.25Z" fill="black"/>
</svg>
