<svg width="24" height="24" viewBox="0 0 24 24" fill="none" xmlns="http://www.w3.org/2000/svg">
<path d="M20.1818 4.68185C20.1818 6.71527 16.5186 8.36385 11.9999 8.36385C7.49055 8.36385 3.83323 6.72225 3.81814 4.69463V4.69047L3.81812 4.68182C3.81812 2.64841 7.48124 1 11.9999 1C16.5186 1 20.1818 2.64844 20.1818 4.68185Z" fill="black"/>
<path d="M18.1957 8.19739C18.9282 7.86777 19.6381 7.43199 20.1818 6.88808V10.0001C20.1818 12.0335 16.5186 13.682 11.9999 13.682C7.49438 13.682 3.83947 12.0432 3.81814 10.018V6.88818C4.36183 7.43204 5.07167 7.86778 5.80412 8.19739C7.44121 8.93408 9.63264 9.36385 11.9999 9.36385C14.3672 9.36385 16.5586 8.93408 18.1957 8.19739Z" fill="black"/>
<path d="M18.1956 13.5155C18.9282 13.1859 19.6381 12.7501 20.1818 12.2062V15.3181C20.1817 17.3515 16.5186 18.9999 12 18.9999C7.48134 18.9999 3.81826 17.3516 3.81814 15.3182V12.2064C4.36182 12.7502 5.07164 13.1859 5.80408 13.5155C7.44116 14.2522 9.6326 14.682 11.9999 14.682C14.3671 14.682 16.5586 14.2522 18.1956 13.5155Z" fill="black"/>
<path d="M12.8662 22.5C12.7784 22.3482 12.6518 22.2216 12.5 22.1338V19H11.5V22.1338C11.3482 22.2216 11.2216 22.3482 11.1338 22.5H2C1.72386 22.5 1.5 22.7239 1.5 23C1.5 23.2761 1.72386 23.5 2 23.5H11.1338C11.3067 23.7989 11.6299 24 12 24C12.3701 24 12.6933 23.7989 12.8662 23.5H22C22.2761 23.5 22.5 23.2761 22.5 23C22.5 22.7239 22.2761 22.5 22 22.5H12.8662Z" fill="black"/>
</svg>
