<svg width="24" height="24" viewBox="0 0 24 24" fill="none" xmlns="http://www.w3.org/2000/svg">
<path d="M22.455 5.20455C22.455 2.6063 17.7743 0.5 12.0004 0.5C6.22656 0.5 1.5459 2.6063 1.5459 5.20455C1.5459 7.80279 6.22657 9.90909 12.0005 9.90909C17.7687 9.90909 22.4459 7.8069 22.455 5.21214C22.455 5.20961 22.455 5.20708 22.455 5.20455Z" fill="black"/>
<path d="M22.455 8.9952C21.7655 9.56192 20.9748 10.0125 20.2137 10.355C18.0088 11.3472 15.1032 11.9091 12.0005 11.9091C8.89768 11.9091 5.99208 11.3472 3.78725 10.355C3.02608 10.0125 2.23542 9.56192 1.54591 8.99519L1.54591 12C1.54591 14.5982 6.22657 16.7046 12.0005 16.7046C17.7704 16.7046 22.4485 14.6012 22.455 12.0054C22.455 12.0037 22.455 12.0019 22.455 12.0001L22.455 8.9952Z" fill="black"/>
<path d="M22.455 15.7907C21.7655 16.3574 20.9748 16.808 20.2137 17.1505C18.0088 18.1427 15.1032 18.7046 12.0005 18.7046C8.89768 18.7046 5.99208 18.1427 3.78725 17.1505C3.02608 16.808 2.23542 16.3574 1.54591 15.7907V18.7955C1.54591 21.3937 6.22657 23.5 12.0005 23.5C17.7743 23.5 22.455 21.3937 22.455 18.7955L22.455 15.7907Z" fill="black"/>
</svg>
