<svg width="24" height="24" viewBox="0 0 24 24" fill="none" xmlns="http://www.w3.org/2000/svg">
<path fill-rule="evenodd" clip-rule="evenodd" d="M4.82634 2.09004C6.6751 1.2581 9.2116 0.75 12 0.75C14.7884 0.75 17.3249 1.2581 19.1737 2.09004C20.999 2.91142 22.25 4.0977 22.25 5.5V18.5C22.25 19.9023 20.999 21.0886 19.1737 21.91C17.3249 22.7419 14.7884 23.25 12 23.25C9.2116 23.25 6.6751 22.7419 4.82634 21.91C3.00105 21.0886 1.75 19.9023 1.75 18.5V5.5C1.75 4.18535 2.84955 3.06055 4.49099 2.24829C4.60042 2.19414 4.71226 2.14138 4.82634 2.09004ZM2.25 12.0001C2.25 13.0831 3.23753 14.1468 5.03152 14.9541C6.80205 15.7508 9.26556 16.2501 12 16.2501C14.7344 16.2501 17.1979 15.7508 18.9685 14.9541C20.7625 14.1468 21.75 13.0831 21.75 12.0001V6.98998C21.2218 7.74723 20.3088 8.39915 19.1737 8.90996C17.3249 9.7419 14.7884 10.25 12 10.25C9.2116 10.25 6.6751 9.7419 4.82634 8.90996C3.69122 8.39915 2.77818 7.74723 2.25 6.98998V12.0001ZM21.75 13.4901C21.2218 14.2473 20.3088 14.8992 19.1737 15.41C17.3249 16.242 14.7884 16.7501 12 16.7501C9.2116 16.7501 6.6751 16.242 4.82634 15.41C3.69122 14.8992 2.77818 14.2473 2.25 13.4901V18.5C2.25 19.583 3.23753 20.6467 5.03152 21.454C6.80205 22.2507 9.26556 22.75 12 22.75C14.7344 22.75 17.1979 22.2507 18.9685 21.454C20.7625 20.6467 21.75 19.583 21.75 18.5V13.4901ZM18.9685 2.546C20.7625 3.3533 21.75 4.41701 21.75 5.5C21.75 6.58299 20.7625 7.6467 18.9685 8.454C17.1979 9.25074 14.7344 9.75 12 9.75C9.26556 9.75 6.80205 9.25074 5.03152 8.454C3.23753 7.6467 2.25 6.58299 2.25 5.5C2.25 4.41701 3.23753 3.3533 5.03152 2.546C5.25284 2.44641 5.48498 2.35146 5.72713 2.26156C7.42216 1.63225 9.60736 1.25 12 1.25C14.7344 1.25 17.1979 1.74926 18.9685 2.546Z" fill="black"/>
</svg>
