<svg width="24" height="24" viewBox="0 0 24 24" fill="none" xmlns="http://www.w3.org/2000/svg">
<path d="M22.4545 5.20455C22.4545 2.6063 17.7738 0.5 12 0.5C6.22607 0.5 1.54541 2.6063 1.54541 5.20455C1.54541 7.80279 6.22608 9.90909 12 9.90909C17.7682 9.90909 22.4454 7.8069 22.4545 5.21214C22.4545 5.20961 22.4545 5.20708 22.4545 5.20455Z" fill="black"/>
<path d="M22.4545 7.61972C21.7789 8.37359 20.8261 8.98259 19.8028 9.44308C17.7544 10.3648 14.9948 10.9091 12 10.9091C9.00511 10.9091 6.24549 10.3648 4.19712 9.44308C3.17381 8.98259 2.22102 8.37359 1.54542 7.61971L1.54542 12C1.54542 14.5982 6.22608 16.7046 12 16.7046C17.7699 16.7046 22.4481 14.6012 22.4545 12.0054C22.4545 12.0037 22.4545 12.0019 22.4545 12.0001L22.4545 7.61972Z" fill="black"/>
<path d="M22.4545 14.4152C21.7789 15.1691 20.8261 15.7781 19.8028 16.2386C17.7544 17.1604 14.9948 17.7046 12 17.7046C9.00511 17.7046 6.24549 17.1604 4.19713 16.2386C3.17381 15.7781 2.22102 15.1691 1.54542 14.4152V18.7955C1.54542 21.3937 6.22608 23.5 12 23.5C17.7739 23.5 22.4545 21.3937 22.4545 18.7955L22.4545 14.4152Z" fill="black"/>
</svg>
