<svg width="24" height="24" viewBox="0 0 24 24" fill="none" xmlns="http://www.w3.org/2000/svg">
<path fill-rule="evenodd" clip-rule="evenodd" d="M3.75005 15C3.75005 16.2503 4.7571 17.3149 6.23139 18.052C7.66502 18.7688 9.60893 19.2157 11.75 19.2481V22.0315C11.3986 22.1219 11.1219 22.3986 11.0315 22.75H2C1.86193 22.75 1.75 22.8619 1.75 23C1.75 23.1381 1.86193 23.25 2 23.25H11.0315C11.1425 23.6813 11.534 24 12 24C12.466 24 12.8575 23.6813 12.9685 23.25H22C22.1381 23.25 22.25 23.1381 22.25 23C22.25 22.8619 22.1381 22.75 22 22.75H12.9685C12.8781 22.3986 12.6014 22.1219 12.25 22.0315V19.2481C14.3911 19.2157 16.3351 18.7689 17.7687 18.052C19.243 17.3149 20.25 16.2503 20.25 15V4.5C20.25 3.93403 19.9868 3.41457 19.5511 2.96388C19.1166 2.51439 18.4998 2.12102 17.7571 1.79609C16.271 1.14589 14.2353 0.75 12 0.75C9.76477 0.75 7.7291 1.14589 6.24294 1.79609C5.50023 2.12102 4.8835 2.51439 4.44894 2.96388C4.01323 3.41457 3.75 3.93403 3.75 4.5L3.75005 4.51336V15ZM6.4434 2.25417C7.50034 1.79175 8.86953 1.45812 10.409 1.3202C10.9222 1.27423 11.4543 1.25 12 1.25C12.1364 1.25 12.272 1.25151 12.4067 1.2545C13.1775 1.27162 13.9177 1.33709 14.6118 1.44365C15.7363 1.61629 16.7397 1.89676 17.5566 2.25417C18.2617 2.56261 18.8165 2.92343 19.1916 3.31141C19.5655 3.69819 19.75 4.09947 19.75 4.5C19.75 4.90053 19.5655 5.30181 19.1916 5.68859C18.8165 6.07657 18.2617 6.43739 17.5566 6.74583C16.1474 7.36239 14.183 7.75 12 7.75C9.817 7.75 7.85262 7.36239 6.44335 6.74583C5.73834 6.43739 5.18351 6.07657 4.80842 5.68859C4.438 5.30545 4.25348 4.90807 4.25005 4.51129V4.5C4.25005 4.09947 4.43454 3.69819 4.80847 3.31141C5.18356 2.92343 5.73839 2.56261 6.4434 2.25417ZM19.5511 6.03612C19.6221 5.96263 19.6886 5.88732 19.75 5.81027V9.5002C19.75 9.90073 19.5655 10.302 19.1916 10.6888C18.8165 11.0768 18.2617 11.4376 17.5566 11.746C16.1474 12.3626 14.183 12.7502 12 12.7502C9.817 12.7502 7.85262 12.3626 6.44335 11.746C5.73834 11.4376 5.18351 11.0768 4.80842 10.6888C4.438 10.3056 4.25348 9.90827 4.25005 9.51149V5.81039C4.3115 5.8874 4.37793 5.96267 4.44894 6.03612C4.8835 6.48561 5.50023 6.87898 6.24294 7.20391C7.7291 7.85411 9.76472 8.25 12 8.25C14.2353 8.25 16.2709 7.85411 17.7571 7.20391C18.4998 6.87898 19.1165 6.48561 19.5511 6.03612ZM4.25005 10.8106C4.3115 10.8876 4.37793 10.9629 4.44894 11.0363C4.8835 11.4858 5.50023 11.8792 6.24294 12.2041C7.7291 12.8543 9.76472 13.2502 12 13.2502C14.2353 13.2502 16.2709 12.8543 17.7571 12.2041C18.4998 11.8792 19.1165 11.4858 19.5511 11.0363C19.6221 10.9628 19.6886 10.8875 19.75 10.8105V15C19.75 15.9589 18.9662 16.8943 17.5451 17.6048C16.1389 18.3079 14.1788 18.75 12 18.75C9.82131 18.75 7.86118 18.3079 6.455 17.6048C5.03386 16.8943 4.25005 15.9589 4.25005 15V10.8106Z" fill="black"/>
</svg>
