<svg width="24" height="26" viewBox="0 0 24 26" fill="none" xmlns="http://www.w3.org/2000/svg">
<path fill-rule="evenodd" clip-rule="evenodd" d="M4.41598 2.17812C6.4212 1.27577 9.10368 0.75 12 0.75C14.8963 0.75 17.5788 1.27577 19.584 2.17812C21.4719 3.02767 23.25 4.45909 23.25 6.5V19.5C23.25 21.5409 21.4719 22.9723 19.584 23.8219C17.5788 24.7242 14.8963 25.25 12 25.25C9.10368 25.25 6.4212 24.7242 4.41598 23.8219C2.52809 22.9723 0.75 21.5409 0.75 19.5V6.5C0.75 4.7142 2.11135 3.39505 3.71642 2.52403C3.94572 2.3996 4.17999 2.28431 4.41598 2.17812ZM3.25 13.0001C3.25 13.4444 3.71049 14.263 5.44189 15.0421C7.05595 15.7685 9.37347 16.2501 12 16.2501C14.6265 16.2501 16.944 15.7685 18.5581 15.0421C20.2895 14.263 20.75 13.4444 20.75 13.0001V10.2053C20.3767 10.437 19.9828 10.6424 19.584 10.8219C17.5788 11.7242 14.8963 12.25 12 12.25C9.10368 12.25 6.4212 11.7242 4.41598 10.8219C4.01718 10.6424 3.62328 10.437 3.25 10.2053V13.0001ZM20.75 16.7054C20.3767 16.9371 19.9828 17.1425 19.584 17.3219C17.5788 18.2243 14.8963 18.7501 12 18.7501C9.10368 18.7501 6.4212 18.2243 4.41598 17.3219C4.01718 17.1425 3.62328 16.9371 3.25 16.7054V19.5C3.25 19.9444 3.71049 20.7629 5.44189 21.5421C7.05595 22.2684 9.37347 22.75 12 22.75C14.6265 22.75 16.944 22.2684 18.5581 21.5421C20.2895 20.7629 20.75 19.9444 20.75 19.5V16.7054ZM18.5581 4.45792C20.2895 5.23705 20.75 6.05563 20.75 6.5C20.75 6.94437 20.2895 7.76295 18.5581 8.54208C16.944 9.26841 14.6265 9.75 12 9.75C9.37347 9.75 7.05595 9.26841 5.44189 8.54208C3.71049 7.76295 3.25 6.94437 3.25 6.5C3.25 6.05563 3.71049 5.23705 5.44189 4.45792C7.05595 3.73159 9.37347 3.25 12 3.25C14.6265 3.25 16.944 3.73159 18.5581 4.45792Z" fill="black"/>
</svg>
