<svg width="24" height="24" viewBox="0 0 24 24" fill="none" xmlns="http://www.w3.org/2000/svg">
<path fill-rule="evenodd" clip-rule="evenodd" d="M3.00005 15C3.00005 16.6874 4.34196 17.9458 5.89598 18.7229C7.27625 19.413 9.05569 19.8568 11 19.9709V22H2C1.44772 22 1 22.4477 1 23C1 23.5523 1.44772 24 2 24H22C22.5523 24 23 23.5523 23 23C23 22.4477 22.5523 22 22 22H13V19.9709C14.9444 19.8569 16.7238 19.413 18.1041 18.7229C19.6581 17.9458 21 16.6874 21 15V4.5C21 3.68589 20.6187 2.98914 20.0903 2.44258C19.5666 1.90083 18.857 1.45864 18.0577 1.10897C16.4562 0.40832 14.3138 0 12 0C9.68635 0 7.54381 0.40832 5.94233 1.10897C5.14307 1.45864 4.43348 1.90083 3.90973 2.44258C3.38133 2.98914 3 3.68589 3 4.5L3.00005 4.51596V15ZM6.74401 2.94128C7.55272 2.58748 8.58156 2.30824 9.75327 2.14856C10.4563 2.05276 11.2108 2 12 2C12.1315 2 12.2621 2.00147 12.3916 2.00435C13.107 2.02029 13.7906 2.07957 14.4294 2.17459C15.5255 2.33765 16.4896 2.60598 17.256 2.94128C17.9045 3.22498 18.3665 3.53698 18.6524 3.8327C18.9336 4.12362 19 4.34762 19 4.5C19 4.65238 18.9336 4.87638 18.6524 5.1673C18.3665 5.46302 17.9045 5.77502 17.256 6.05872C15.9621 6.62482 14.1046 7 12 7C9.89543 7 8.03791 6.62482 6.74396 6.05872C6.09551 5.77502 5.63353 5.46302 5.34763 5.1673C5.07075 4.8809 5.00211 4.65936 5.00005 4.50715V4.5C5.00005 4.34762 5.06643 4.12362 5.34768 3.8327C5.63358 3.53698 6.09556 3.22498 6.74401 2.94128ZM18.0577 7.89103C18.3896 7.74583 18.706 7.58468 19 7.40708V9.5002C19 9.65258 18.9336 9.87658 18.6524 10.1675C18.3665 10.4632 17.9045 10.7752 17.256 11.0589C15.9621 11.625 14.1046 12.0002 12 12.0002C9.89543 12.0002 8.03791 11.625 6.74396 11.0589C6.09551 10.7752 5.63353 10.4632 5.34763 10.1675C5.07075 9.8811 5.00211 9.65956 5.00005 9.50735V7.40714C5.2941 7.58472 5.61048 7.74585 5.94233 7.89103C7.54381 8.59168 9.6863 9 12 9C14.3137 9 16.4562 8.59168 18.0577 7.89103ZM5.00005 12.4073C5.2941 12.5849 5.61048 12.746 5.94233 12.8912C7.54381 13.5919 9.6863 14.0002 12 14.0002C14.3137 14.0002 16.4562 13.5919 18.0577 12.8912C18.3896 12.746 18.706 12.5849 19 12.4073V15C19 15.5217 18.5511 16.2633 17.2097 16.934C15.9281 17.5748 14.0876 18 12 18C9.91249 18 8.072 17.5748 6.79041 16.934C5.449 16.2633 5.00005 15.5217 5.00005 15V12.4073Z" fill="black"/>
</svg>
