<svg width="24" height="24" viewBox="0 0 24 24" fill="none" xmlns="http://www.w3.org/2000/svg">
<path d="M22.4545 5.20455C22.4545 2.6063 17.7738 0.5 12 0.5C6.22607 0.5 1.54541 2.6063 1.54541 5.20455C1.54541 7.80279 6.22608 9.90909 12 9.90909C17.7682 9.90909 22.4454 7.8069 22.4545 5.21214C22.4545 5.20961 22.4545 5.20708 22.4545 5.20455Z" fill="black"/>
<path d="M22.4545 8.9952C21.765 9.56192 20.9743 10.0125 20.2132 10.355C18.0083 11.3472 15.1027 11.9091 12 11.9091C8.89719 11.9091 5.99159 11.3472 3.78676 10.355C3.02559 10.0125 2.23493 9.56192 1.54542 8.99519L1.54542 12C1.54542 14.5982 6.22608 16.7046 12 16.7046C17.7699 16.7046 22.4481 14.6012 22.4545 12.0054C22.4545 12.0037 22.4545 12.0019 22.4545 12.0001L22.4545 8.9952Z" fill="black"/>
<path d="M22.4545 15.7907C21.765 16.3574 20.9743 16.808 20.2132 17.1505C18.0083 18.1427 15.1027 18.7046 12 18.7046C8.89719 18.7046 5.99159 18.1427 3.78676 17.1505C3.02559 16.808 2.23493 16.3574 1.54542 15.7907V18.7955C1.54542 21.3937 6.22608 23.5 12 23.5C17.7739 23.5 22.4545 21.3937 22.4545 18.7955L22.4545 15.7907Z" fill="black"/>
</svg>
