<svg width="24" height="25" viewBox="0 0 24 25" fill="none" xmlns="http://www.w3.org/2000/svg">
<path fill-rule="evenodd" clip-rule="evenodd" d="M4.41598 1.42812C6.4212 0.525766 9.10368 0 12 0C14.8963 0 17.5788 0.525766 19.584 1.42812C21.4719 2.27767 23.25 3.70909 23.25 5.75V18.75C23.25 20.7909 21.4719 22.2223 19.584 23.0719C17.5788 23.9742 14.8963 24.5 12 24.5C9.10368 24.5 6.4212 23.9742 4.41598 23.0719C2.52809 22.2223 0.75 20.7909 0.75 18.75V5.75C0.75 3.9642 2.11135 2.64505 3.71642 1.77403C3.94572 1.6496 4.17999 1.53431 4.41598 1.42812ZM3.25 12.2501C3.25 12.6944 3.71049 13.513 5.44189 14.2921C7.05595 15.0185 9.37347 15.5001 12 15.5001C14.6265 15.5001 16.944 15.0185 18.5581 14.2921C20.2895 13.513 20.75 12.6944 20.75 12.2501V9.45535C20.3767 9.687 19.9828 9.89242 19.584 10.0719C17.5788 10.9742 14.8963 11.5 12 11.5C9.10368 11.5 6.4212 10.9742 4.41598 10.0719C4.01718 9.89242 3.62328 9.687 3.25 9.45535V12.2501ZM20.75 15.9554C20.3767 16.1871 19.9828 16.3925 19.584 16.5719C17.5788 17.4743 14.8963 18.0001 12 18.0001C9.10368 18.0001 6.4212 17.4743 4.41598 16.5719C4.01718 16.3925 3.62328 16.1871 3.25 15.9554V18.75C3.25 19.1944 3.71049 20.0129 5.44189 20.7921C7.05595 21.5184 9.37347 22 12 22C14.6265 22 16.944 21.5184 18.5581 20.7921C20.2895 20.0129 20.75 19.1944 20.75 18.75V15.9554ZM18.5581 3.70792C20.2895 4.48705 20.75 5.30563 20.75 5.75C20.75 6.19437 20.2895 7.01295 18.5581 7.79208C16.944 8.51841 14.6265 9 12 9C9.37347 9 7.05595 8.51841 5.44189 7.79208C3.71049 7.01295 3.25 6.19437 3.25 5.75C3.25 5.30563 3.71049 4.48705 5.44189 3.70792C7.05595 2.98159 9.37347 2.5 12 2.5C14.6265 2.5 16.944 2.98159 18.5581 3.70792Z" fill="black"/>
</svg>
