<svg width="24" height="24" viewBox="0 0 24 24" fill="none" xmlns="http://www.w3.org/2000/svg">
<path d="M22.4545 5.20455C22.4545 2.6063 17.7738 0.5 12 0.5C6.22607 0.5 1.54541 2.6063 1.54541 5.20455C1.54541 7.80279 6.22608 9.90909 12 9.90909C17.7682 9.90909 22.4454 7.8069 22.4545 5.21214C22.4545 5.20961 22.4545 5.20708 22.4545 5.20455Z" fill="black"/>
<path d="M22.4545 6.80254C21.8747 7.69064 20.8379 8.42898 19.5976 8.98712C17.6275 9.87368 14.9409 10.4091 12 10.4091C9.05907 10.4091 6.37244 9.87368 4.40231 8.98712C3.16199 8.42898 2.12527 7.69063 1.54542 6.80252L1.54542 12C1.54542 14.5982 6.22608 16.7046 12 16.7046C17.7699 16.7046 22.4481 14.6012 22.4545 12.0054C22.4545 12.0037 22.4545 12.0019 22.4545 12.0001L22.4545 6.80254Z" fill="black"/>
<path d="M22.4545 13.5981C21.8747 14.4862 20.8379 15.2245 19.5976 15.7826C17.6275 16.6692 14.9409 17.2046 12 17.2046C9.05907 17.2046 6.37244 16.6692 4.40231 15.7826C3.16199 15.2245 2.12527 14.4862 1.54542 13.598V18.7955C1.54542 21.3937 6.22608 23.5 12 23.5C17.7739 23.5 22.4545 21.3937 22.4545 18.7955L22.4545 13.5981Z" fill="black"/>
</svg>
