<svg width="24" height="24" viewBox="0 0 24 24" fill="none" xmlns="http://www.w3.org/2000/svg">
<path d="M20.1818 4.18185C20.1818 6.21527 16.5186 7.86385 11.9999 7.86385C7.49055 7.86385 3.83323 6.22225 3.81814 4.19463V4.19047L3.81812 4.18182C3.81812 2.14841 7.48124 0.5 11.9999 0.5C16.5186 0.5 20.1818 2.14844 20.1818 4.18185Z" fill="black"/>
<path d="M18.8112 9.06527C19.2439 8.8706 19.7181 8.6203 20.1818 8.30914V9.50011C20.1818 11.5335 16.5186 13.182 11.9999 13.182C7.49438 13.182 3.83947 11.5432 3.81814 9.518V8.3092C4.28178 8.62033 4.75599 8.87061 5.18858 9.06527C7.06036 9.90757 9.47077 10.3638 11.9999 10.3638C14.5291 10.3638 16.9395 9.90757 18.8112 9.06527Z" fill="black"/>
<path d="M18.8112 14.3834C19.2438 14.1887 19.7181 13.9384 20.1818 13.6273V14.8181C20.1817 16.6602 17.1753 18.1864 13.25 18.4572V21.25H22C22.6904 21.25 23.25 21.8096 23.25 22.5C23.25 23.1904 22.6904 23.75 22 23.75H2C1.30964 23.75 0.75 23.1904 0.75 22.5C0.75 21.8096 1.30964 21.25 2 21.25H10.75V18.4572C6.82468 18.1865 3.81825 16.6603 3.81814 14.8182V13.6274C4.28176 13.9385 4.75596 14.1888 5.18853 14.3834C7.06031 15.2257 9.47072 15.682 11.9999 15.682C14.529 15.682 16.9394 15.2257 18.8112 14.3834Z" fill="black"/>
</svg>
