<svg width="24" height="24" viewBox="0 0 24 24" fill="none" xmlns="http://www.w3.org/2000/svg">
<path fill-rule="evenodd" clip-rule="evenodd" d="M7.27469 4.75001C7.52555 2.22334 9.65732 0.25 12.25 0.25C14.8427 0.25 16.9745 2.22334 17.2253 4.75001L20.1693 4.75001C20.4328 4.75 20.6602 4.74999 20.8475 4.76529C21.0452 4.78144 21.2418 4.8171 21.431 4.9135C21.7132 5.05731 21.9427 5.28678 22.0865 5.56902C22.1829 5.75821 22.2186 5.95482 22.2347 6.15249C22.25 6.33978 22.25 6.56716 22.25 6.83073V7.66929C22.25 7.93286 22.25 8.16024 22.2347 8.34752C22.2186 8.54519 22.1829 8.7418 22.0865 8.93099C21.9427 9.21324 21.7132 9.44271 21.431 9.58652C21.2418 9.68291 21.0452 9.71857 20.8475 9.73472C20.671 9.74915 20.4588 9.74997 20.2143 9.75001H4.28566C4.04116 9.74997 3.82901 9.74915 3.65249 9.73472C3.45481 9.71857 3.2582 9.68291 3.06901 9.58652C2.78677 9.44271 2.5573 9.21324 2.41349 8.93099C2.31709 8.7418 2.28144 8.54519 2.26529 8.34752C2.24998 8.16024 2.24999 7.93285 2.25 7.66928V6.83074C2.24999 6.56716 2.24998 6.33978 2.26529 6.15249C2.28144 5.95482 2.31709 5.75821 2.41349 5.56902C2.5573 5.28678 2.78677 5.05731 3.06901 4.9135C3.2582 4.8171 3.45481 4.78144 3.65249 4.76529C3.83977 4.74999 4.06715 4.75 4.33073 4.75001L7.27469 4.75001ZM12.25 2.25C13.7365 2.25 14.9705 3.33115 15.2085 4.75001H9.29148C9.52951 3.33115 10.7635 2.25 12.25 2.25Z" fill="black"/>
<path fill-rule="evenodd" clip-rule="evenodd" d="M4.43381 11.75H20.0662L19.4666 19.8438C19.4292 20.3487 19.399 20.7569 19.3481 21.0872C19.2956 21.4279 19.216 21.7255 19.0585 21.9987C18.8074 22.4342 18.4308 22.7839 17.978 23.0021C17.6939 23.139 17.3912 23.1965 17.0475 23.2237C16.7144 23.25 16.3051 23.25 15.7988 23.25H8.70123C8.1949 23.25 7.78558 23.25 7.45249 23.2237C7.10881 23.1965 6.80611 23.139 6.52203 23.0021C6.06916 22.7839 5.6926 22.4342 5.44151 21.9987C5.284 21.7255 5.20437 21.4279 5.15186 21.0872C5.101 20.7571 5.07077 20.3491 5.03339 19.8444L4.43381 11.75ZM10 14C10.5523 14 11 14.4477 11 15V19C11 19.5523 10.5523 20 10 20C9.44772 20 9 19.5523 9 19V15C9 14.4477 9.44772 14 10 14ZM13.5 15C13.5 14.4477 13.9477 14 14.5 14C15.0523 14 15.5 14.4477 15.5 15V19C15.5 19.5523 15.0523 20 14.5 20C13.9477 20 13.5 19.5523 13.5 19V15Z" fill="black"/>
</svg>
