<svg width="24" height="24" viewBox="0 0 24 24" fill="none" xmlns="http://www.w3.org/2000/svg">
<path fill-rule="evenodd" clip-rule="evenodd" d="M7.0235 4.75001C7.27528 2.08504 9.51915 0 12.25 0C14.9809 0 17.2247 2.08504 17.4765 4.75001L20.1693 4.75001C20.4328 4.75 20.6602 4.74999 20.8475 4.76529C21.0452 4.78144 21.2418 4.8171 21.431 4.9135C21.7132 5.05731 21.9427 5.28678 22.0865 5.56902C22.1829 5.75821 22.2186 5.95482 22.2347 6.15249C22.25 6.33978 22.25 6.56716 22.25 6.83073V7.66929C22.25 7.93286 22.25 8.16024 22.2347 8.34752C22.2186 8.54519 22.1829 8.7418 22.0865 8.93099C21.9427 9.21324 21.7132 9.44271 21.431 9.58652C21.2418 9.68291 21.0452 9.71857 20.8475 9.73472C20.671 9.74915 20.4588 9.74997 20.2143 9.75001H4.28566C4.04116 9.74997 3.82901 9.74915 3.65249 9.73472C3.45481 9.71857 3.2582 9.68291 3.06901 9.58652C2.78677 9.44271 2.5573 9.21324 2.41349 8.93099C2.31709 8.7418 2.28144 8.54519 2.26529 8.34752C2.24998 8.16024 2.24999 7.93285 2.25 7.66928V6.83074C2.24999 6.56716 2.24998 6.33978 2.26529 6.15249C2.28144 5.95482 2.31709 5.75821 2.41349 5.56902C2.5573 5.28678 2.78677 5.05731 3.06901 4.9135C3.2582 4.8171 3.45481 4.78144 3.65249 4.76529C3.83977 4.74999 4.06715 4.75 4.33073 4.75001L7.0235 4.75001ZM12.25 2.5C13.598 2.5 14.7195 3.46994 14.9547 4.75001H9.54534C9.78047 3.46994 10.902 2.5 12.25 2.5Z" fill="black"/>
<path fill-rule="evenodd" clip-rule="evenodd" d="M4.47084 12.25H20.0291L19.4666 19.8438C19.4292 20.3487 19.399 20.7569 19.3481 21.0872C19.2956 21.4279 19.216 21.7255 19.0585 21.9987C18.8074 22.4342 18.4308 22.7839 17.978 23.0021C17.6939 23.139 17.3912 23.1965 17.0475 23.2237C16.7144 23.25 16.3051 23.25 15.7988 23.25H8.70123C8.1949 23.25 7.78558 23.25 7.45249 23.2237C7.10881 23.1965 6.80611 23.139 6.52203 23.0021C6.06916 22.7839 5.6926 22.4342 5.44151 21.9987C5.284 21.7255 5.20437 21.4279 5.15186 21.0872C5.101 20.7571 5.07077 20.3491 5.03339 19.8444L4.47084 12.25ZM10 14.25C10.6904 14.25 11.25 14.8096 11.25 15.5V19.5C11.25 20.1904 10.6904 20.75 10 20.75C9.30964 20.75 8.75 20.1904 8.75 19.5V15.5C8.75 14.8096 9.30964 14.25 10 14.25ZM13.25 15.5C13.25 14.8096 13.8096 14.25 14.5 14.25C15.1904 14.25 15.75 14.8096 15.75 15.5V19.5C15.75 20.1904 15.1904 20.75 14.5 20.75C13.8096 20.75 13.25 20.1904 13.25 19.5V15.5Z" fill="black"/>
</svg>
