<svg width="24" height="24" viewBox="0 0 24 24" fill="none" xmlns="http://www.w3.org/2000/svg">
<path fill-rule="evenodd" clip-rule="evenodd" d="M8.00723 5.00001H3.54036C3.40858 5 3.29489 5 3.20124 5.00765C3.10241 5.01573 3.0041 5.03355 2.90951 5.08175C2.76839 5.15366 2.65365 5.26839 2.58175 5.40951C2.53355 5.50411 2.51572 5.60241 2.50764 5.70125C2.49999 5.79488 2.5 5.90855 2.5 6.04032V8.45964C2.5 8.59141 2.49999 8.70513 2.50764 8.79876C2.51572 8.8976 2.53355 8.99591 2.58175 9.0905C2.65365 9.23162 2.76839 9.34636 2.90951 9.41826C3.0041 9.46646 3.10241 9.48429 3.20124 9.49236C3.29488 9.50002 3.40857 9.50001 3.54036 9.50001H4.51783L5.28195 19.8157C5.31995 20.3287 5.34959 20.7288 5.39895 21.0491C5.44913 21.3747 5.5223 21.6383 5.65809 21.8738C5.88407 22.2658 6.22298 22.5805 6.63056 22.7769C6.87547 22.895 7.14372 22.9485 7.4722 22.9744C7.79536 23 8.19632 23 8.71085 23H15.7891C16.3037 23 16.7046 23 17.0278 22.9744C17.3563 22.9485 17.6245 22.895 17.8694 22.7769C18.277 22.5805 18.6159 22.2658 18.8419 21.8738C18.9777 21.6383 19.0509 21.3747 19.101 21.0491C19.1504 20.7287 19.18 20.3288 19.218 19.8157L19.9822 9.50001H20.9596C21.0914 9.50001 21.2051 9.50002 21.2988 9.49236C21.3976 9.48429 21.4959 9.46646 21.5905 9.41826C21.7316 9.34636 21.8463 9.23162 21.9183 9.0905C21.9665 8.99591 21.9843 8.8976 21.9924 8.79876C22 8.70515 22 8.59151 22 8.45977V6.04037C22 5.90864 22 5.79486 21.9924 5.70125C21.9843 5.60241 21.9665 5.50411 21.9183 5.40951C21.8463 5.26839 21.7316 5.15366 21.5905 5.08175C21.4959 5.03355 21.3976 5.01573 21.2988 5.00765C21.2051 5 21.0914 5 20.9596 5.00001H16.4928C16.3634 2.76916 14.5133 1 12.25 1C9.98671 1 8.13663 2.76916 8.00723 5.00001ZM15.9918 5.00001C15.8632 3.0455 14.2371 1.5 12.25 1.5C10.2629 1.5 8.63684 3.0455 8.5082 5.00001H15.9918ZM3.55 9.00001H20.95C21.0941 9.00001 21.1872 8.99981 21.258 8.99403C21.326 8.98848 21.3511 8.97906 21.3635 8.97276C21.4105 8.94879 21.4488 8.91055 21.4728 8.86351C21.479 8.85114 21.4885 8.82596 21.494 8.75805C21.4998 8.68721 21.5 8.59415 21.5 8.45001V6.05001C21.5 5.90587 21.4998 5.8128 21.494 5.74197C21.4885 5.67405 21.479 5.64887 21.4728 5.63651C21.4488 5.58947 21.4105 5.55122 21.3635 5.52726C21.3511 5.52096 21.326 5.51154 21.258 5.50599C21.1872 5.5002 21.0941 5.50001 20.95 5.50001H3.55C3.40586 5.50001 3.31279 5.5002 3.24196 5.50599C3.17404 5.51154 3.14886 5.52096 3.1365 5.52726C3.08946 5.55122 3.05122 5.58947 3.02725 5.63651C3.02095 5.64887 3.01153 5.67405 3.00598 5.74197C3.00019 5.8128 3 5.90587 3 6.05001V8.45001C3 8.59415 3.00019 8.68721 3.00598 8.75805C3.01153 8.82596 3.02095 8.85114 3.02725 8.86351C3.05122 8.91055 3.08946 8.94879 3.1365 8.97276C3.14886 8.97906 3.17404 8.98848 3.24196 8.99403C3.31279 8.99981 3.40586 9.00001 3.55 9.00001ZM18.7202 19.7679L19.4808 9.50001H5.0192L5.77978 19.7679C5.81876 20.2942 5.84711 20.6744 5.89312 20.9729C5.93866 21.2685 5.9989 21.4639 6.09125 21.6241C6.26702 21.929 6.53061 22.1737 6.84762 22.3265C7.01419 22.4068 7.21354 22.4524 7.51164 22.476C7.81279 22.4998 8.19404 22.5 8.72172 22.5H15.7783C16.3059 22.5 16.6872 22.4998 16.9883 22.476C17.2864 22.4524 17.4858 22.4068 17.6524 22.3265C17.9694 22.1737 18.233 21.929 18.4087 21.6241C18.5011 21.4639 18.5613 21.2685 18.6069 20.9729C18.6529 20.6744 18.6812 20.2942 18.7202 19.7679Z" fill="black"/>
</svg>
