<svg width="24" height="24" viewBox="0 0 24 24" fill="none" xmlns="http://www.w3.org/2000/svg">
<path d="M10 12.5C10.2761 12.5 10.5 12.7239 10.5 13V18C10.5 18.2761 10.2761 18.5 10 18.5C9.72386 18.5 9.5 18.2761 9.5 18V13C9.5 12.7239 9.72386 12.5 10 12.5Z" fill="black"/>
<path d="M14 13C14 12.7239 14.2239 12.5 14.5 12.5C14.7761 12.5 15 12.7239 15 13V18C15 18.2761 14.7761 18.5 14.5 18.5C14.2239 18.5 14 18.2761 14 18V13Z" fill="black"/>
<path fill-rule="evenodd" clip-rule="evenodd" d="M7.77746 4.75001H3.75C2.92157 4.75001 2.25 5.42158 2.25 6.25001V8.25001C2.25 9.07843 2.92157 9.75001 3.75 9.75001H4.28566L5.11415 20.9347C5.21086 22.2402 6.29826 23.25 7.60732 23.25H16.8927C18.2017 23.25 19.2891 22.2402 19.3858 20.9347L20.2143 9.75001H20.75C21.5784 9.75001 22.25 9.07843 22.25 8.25001V6.25001C22.25 5.42158 21.5784 4.75001 20.75 4.75001H16.7225C16.4738 2.50003 14.5663 0.75 12.25 0.75C9.93372 0.75 8.02618 2.50003 7.77746 4.75001ZM15.7146 4.75001C15.4719 3.05386 14.0132 1.75 12.25 1.75C10.4868 1.75 9.02806 3.05386 8.78544 4.75001H15.7146ZM3.75 8.75001H20.75C21.0261 8.75001 21.25 8.52615 21.25 8.25001V6.25001C21.25 5.97387 21.0261 5.75001 20.75 5.75001H3.75C3.47386 5.75001 3.25 5.97387 3.25 6.25001V8.25001C3.25 8.52615 3.47386 8.75001 3.75 8.75001ZM18.3886 20.8608L19.2116 9.75001H5.2884L6.11142 20.8608C6.16944 21.6441 6.82188 22.25 7.60732 22.25H16.8927C17.6781 22.25 18.3305 21.6441 18.3886 20.8608Z" fill="black"/>
</svg>
