<svg width="24" height="24" viewBox="0 0 24 24" fill="none" xmlns="http://www.w3.org/2000/svg">
<path fill-rule="evenodd" clip-rule="evenodd" d="M7.27469 4.75025C7.52555 2.22359 9.65733 0.250244 12.25 0.250244C14.8427 0.250244 16.9745 2.22359 17.2253 4.75025L20.966 4.75025C21.0921 4.75024 21.215 4.75022 21.3191 4.75872C21.4334 4.76806 21.5683 4.7901 21.704 4.85925C21.8922 4.95512 22.0451 5.1081 22.141 5.29626C22.2102 5.43197 22.2322 5.56684 22.2415 5.68114C22.25 5.78519 22.25 5.90806 22.25 6.03422V8.46621C22.25 8.59237 22.25 8.71531 22.2415 8.81937C22.2322 8.93366 22.2102 9.06853 22.141 9.20424C22.0451 9.3924 21.8922 9.54539 21.704 9.64126C21.5683 9.71041 21.4334 9.73244 21.3191 9.74178C21.2236 9.74959 21.1122 9.75021 20.9969 9.75025L3.53406 9.75025C3.52372 9.75025 3.5134 9.75026 3.50311 9.75025C3.38785 9.75021 3.27644 9.74959 3.18089 9.74178C3.06659 9.73244 2.93172 9.71041 2.79601 9.64126C2.60785 9.54539 2.45487 9.3924 2.359 9.20424C2.28985 9.06853 2.26781 8.93366 2.25848 8.81937C2.24997 8.71529 2.24999 8.59239 2.25 8.4662V6.0343C2.24999 5.90811 2.24997 5.78522 2.25848 5.68114C2.26781 5.56684 2.28985 5.43197 2.359 5.29626C2.45487 5.1081 2.60785 4.95512 2.79601 4.85925C2.93172 4.7901 3.06659 4.76806 3.18089 4.75872C3.28496 4.75022 3.40785 4.75024 3.53404 4.75025L7.27469 4.75025ZM12.25 2.25024C13.7365 2.25024 14.9705 3.33139 15.2085 4.75025H9.29148C9.52952 3.33139 10.7635 2.25024 12.25 2.25024Z" fill="black"/>
<path d="M4.43381 11.7503H20.0662L19.4666 19.844C19.4292 20.349 19.399 20.7572 19.3481 21.0874C19.2956 21.4281 19.216 21.7258 19.0585 21.9989C18.8074 22.4345 18.4308 22.7842 17.978 23.0024C17.6939 23.1393 17.3912 23.1967 17.0475 23.2239C16.7144 23.2503 16.3051 23.2503 15.7988 23.2502H8.70123C8.19491 23.2503 7.78558 23.2503 7.45249 23.2239C7.10881 23.1967 6.80611 23.1393 6.52204 23.0024C6.06916 22.7842 5.69261 22.4345 5.44151 21.9989C5.28401 21.7258 5.20437 21.4281 5.15187 21.0874C5.101 20.7573 5.07078 20.3493 5.03339 19.8446L4.43381 11.7503Z" fill="black"/>
</svg>
