<svg width="24" height="24" viewBox="0 0 24 24" fill="none" xmlns="http://www.w3.org/2000/svg">
<path fill-rule="evenodd" clip-rule="evenodd" d="M1.20468 5.75182C0.929031 5.76836 0.718988 6.00523 0.735533 6.28088C0.75208 6.55652 0.988946 6.76657 1.26459 6.75002L2.50957 6.67529C2.90406 6.65162 2.98265 6.65343 3.0441 6.67059C3.11548 6.69051 3.18155 6.72606 3.23751 6.77465C3.28568 6.81648 3.3305 6.88106 3.5281 7.22332L9.80868 18.1016C8.93626 18.8728 8.69688 20.1759 9.30162 21.2234C9.99198 22.4191 11.521 22.8288 12.7167 22.1384C13.7641 21.5337 14.2084 20.2854 13.8384 19.1814L22.975 13.9064C23.2142 13.7683 23.2961 13.4625 23.158 13.2234C23.02 12.9842 22.7142 12.9023 22.475 13.0403L13.3384 18.3153C12.6765 17.5664 11.6225 17.284 10.6747 17.6016L4.36308 6.66944C4.21503 6.41223 4.08484 6.18603 3.89316 6.01959C3.72528 5.87381 3.5271 5.76718 3.31294 5.7074C3.06844 5.63916 2.80794 5.65514 2.51172 5.67331L1.20468 5.75182ZM10.1676 20.7234C9.75343 20.0059 9.99925 19.0885 10.7167 18.6743C11.4341 18.2601 12.3515 18.5059 12.7657 19.2234C13.1799 19.9408 12.9341 20.8582 12.2167 21.2724C11.4992 21.6866 10.5819 21.4408 10.1676 20.7234Z" fill="black"/>
<path fill-rule="evenodd" clip-rule="evenodd" d="M9.91278 5.28191L9.90333 5.28751L8.68372 5.99165C8.45545 6.12343 8.25853 6.23712 8.10398 6.34401C7.94087 6.45683 7.78843 6.58602 7.67279 6.7641C7.50026 7.02976 7.41627 7.34322 7.43285 7.65956C7.44396 7.8716 7.51138 8.0597 7.59623 8.23896C7.67663 8.40881 7.79032 8.60572 7.92212 8.83398L11.3414 14.7563C11.4732 14.9846 11.5869 15.1815 11.6937 15.3361C11.8066 15.4992 11.9358 15.6516 12.1138 15.7673C12.3795 15.9398 12.693 16.0238 13.0093 16.0072C13.2213 15.9961 13.4094 15.9287 13.5887 15.8438C13.7585 15.7634 13.9555 15.6497 14.1837 15.5179L20.1061 12.0987C20.3343 11.9669 20.5313 11.8532 20.6858 11.7463C20.8489 11.6335 21.0014 11.5043 21.117 11.3262C21.2895 11.0606 21.3735 10.7471 21.3569 10.4308C21.3458 10.2187 21.2784 10.0306 21.1936 9.85135C21.1132 9.68151 20.9995 9.4846 20.8677 9.25634L17.4484 3.33397C17.3166 3.10571 17.2029 2.90879 17.096 2.75425C16.9832 2.59113 16.854 2.43869 16.676 2.32305C16.4103 2.15053 16.0968 2.06653 15.7805 2.08311C15.5684 2.09422 15.3804 2.16165 15.2011 2.2465C15.0312 2.32689 14.8343 2.44059 14.6061 2.57238L13.3865 3.27653L13.3769 3.28191L9.91278 5.28191ZM13.4439 4.39804L10.8459 5.89804L12.1913 8.2284L12.9776 7.03751C13.0643 6.90617 13.2078 6.82333 13.3649 6.8139L14.7894 6.7284L13.4439 4.39804ZM14.31 3.89804L16.0599 6.92903C16.1465 7.0791 16.1493 7.26334 16.0672 7.41594C15.9851 7.56854 15.8298 7.66775 15.6568 7.67813L13.6743 7.79713L12.58 9.45452C12.4846 9.59914 12.321 9.684 12.1478 9.6788C11.9746 9.67361 11.8164 9.5791 11.7298 9.42903L9.97983 6.39804L9.20041 6.84804C8.95075 6.99218 8.78975 7.08559 8.67285 7.16644C8.56076 7.24397 8.52657 7.28547 8.51146 7.30874C8.45395 7.39729 8.42595 7.50178 8.43148 7.60722C8.43293 7.63493 8.44179 7.68796 8.5001 7.81115C8.56091 7.93962 8.65364 8.10102 8.79778 8.35067L12.1978 14.2396C12.3419 14.4893 12.4353 14.6503 12.5162 14.7672C12.5937 14.8793 12.6352 14.9135 12.6585 14.9286C12.747 14.9861 12.8515 15.0141 12.957 15.0086C12.9847 15.0071 13.0377 14.9983 13.1609 14.94C13.2894 14.8791 13.4508 14.7864 13.7004 14.6423L19.5894 11.2423C19.839 11.0981 20 11.0047 20.1169 10.9239C20.229 10.8463 20.2632 10.8048 20.2783 10.7816C20.3358 10.693 20.3638 10.5885 20.3583 10.4831C20.3569 10.4554 20.348 10.4024 20.2897 10.2792C20.2289 10.1507 20.1361 9.9893 19.992 9.73964L16.592 3.85067C16.4479 3.60102 16.3545 3.44001 16.2736 3.32311C16.1961 3.21103 16.1546 3.17683 16.1313 3.16172C16.0428 3.10421 15.9383 3.07621 15.8328 3.08174C15.8051 3.08319 15.7521 3.09206 15.6289 3.15036C15.5004 3.21117 15.339 3.3039 15.0894 3.44804L14.31 3.89804Z" fill="black"/>
</svg>
