<svg width="24" height="24" viewBox="0 0 24 24" fill="none" xmlns="http://www.w3.org/2000/svg">
<path fill-rule="evenodd" clip-rule="evenodd" d="M12.431 1.38298C12.165 1.22651 11.835 1.22651 11.569 1.38298L3.26626 6.26696C3.09535 6.3675 2.97672 6.5129 2.91037 6.67571C2.81055 6.81275 2.75 6.98305 2.75 7.17445V16.9424C2.75 17.2436 2.90941 17.5223 3.16903 17.6751L11.469 22.5574C11.6405 22.6582 11.8254 22.6912 12 22.6699C12.1746 22.6912 12.3595 22.6582 12.531 22.5574L20.831 17.6751C21.0906 17.5223 21.25 17.2436 21.25 16.9424V7.17445C21.25 6.98305 21.1895 6.81275 21.0896 6.67571C21.0233 6.5129 20.9047 6.3675 20.7337 6.26696L12.431 1.38298ZM19.0208 6.99961L12 11.1295L4.97923 6.99961L12 2.86974L19.0208 6.99961ZM19.75 8.31092V16.5706L12.75 20.6883V12.4286L19.75 8.31092ZM11.25 12.4286V20.6883L4.25 16.5706V8.31092L11.25 12.4286Z" fill="black"/>
</svg>
