<svg width="24" height="24" viewBox="0 0 24 24" fill="none" xmlns="http://www.w3.org/2000/svg">
<path fill-rule="evenodd" clip-rule="evenodd" d="M1.17644 5.25272C0.625152 5.28581 0.205065 5.75954 0.238156 6.31084C0.271246 6.86213 0.744981 7.28221 1.29627 7.24912L2.54125 7.1744C2.73249 7.16292 2.83085 7.15746 2.90228 7.15763L2.90845 7.15766L2.91188 7.16279C2.95138 7.22231 3.00102 7.3074 3.09681 7.47332L9.18774 18.0231C8.38457 18.9624 8.21722 20.3421 8.87033 21.4734C9.69876 22.9082 11.5335 23.3999 12.9684 22.5714C14.0996 21.9183 14.6446 20.6397 14.4187 19.4247L23.2267 14.3394C23.705 14.0632 23.8689 13.4516 23.5928 12.9734C23.3166 12.4951 22.705 12.3312 22.2267 12.6073L13.4187 17.6927C12.7315 17.1051 11.8086 16.8578 10.9198 17.0231L4.82886 6.47332L4.79119 6.40767C4.65408 6.16811 4.48176 5.867 4.22272 5.64206C3.99888 5.44769 3.73463 5.30551 3.44909 5.22581C3.11864 5.13358 2.77242 5.15568 2.49696 5.17326L2.42142 5.17799L1.17644 5.25272ZM10.6024 20.4734C10.3262 19.9951 10.4901 19.3835 10.9684 19.1073C11.4467 18.8312 12.0583 18.9951 12.3344 19.4734C12.6106 19.9516 12.4467 20.5632 11.9684 20.8394C11.4901 21.1155 10.8785 20.9516 10.6024 20.4734Z" fill="black"/>
<path fill-rule="evenodd" clip-rule="evenodd" d="M9.66449 4.84886L9.64859 4.85823L8.42451 5.56495C8.20593 5.69111 7.99304 5.81399 7.82128 5.93279C7.63265 6.06327 7.42109 6.2363 7.25518 6.49178C7.02514 6.846 6.91315 7.26395 6.93526 7.68573C6.9512 7.98994 7.0479 8.24557 7.14603 8.45287C7.23537 8.64164 7.35829 8.85447 7.4845 9.07302L10.9164 15.0173C11.0426 15.2358 11.1655 15.4487 11.2843 15.6205C11.4147 15.8091 11.5878 16.0207 11.8432 16.1866C12.1975 16.4166 12.6154 16.5286 13.0372 16.5065C13.3414 16.4906 13.597 16.3939 13.8043 16.2957C13.9931 16.2064 14.206 16.0835 14.4245 15.9573L20.3687 12.5254C20.5873 12.3992 20.8002 12.2763 20.972 12.1575C21.1606 12.027 21.3721 11.854 21.5381 11.5985C21.7681 11.2443 21.8801 10.8264 21.858 10.4046C21.842 10.1004 21.7453 9.84475 21.6472 9.63744C21.5579 9.44866 21.4349 9.23581 21.3087 9.01725L17.8768 3.07306C17.7507 2.85447 17.6278 2.64159 17.509 2.46982C17.3785 2.28119 17.2055 2.06963 16.95 1.90371C16.5958 1.67368 16.1778 1.56169 15.756 1.5838C15.4518 1.59974 15.1962 1.69644 14.9889 1.79456C14.8001 1.88391 14.5873 2.00683 14.3687 2.13305L13.1447 2.83977L13.1286 2.84886L9.66449 4.84886ZM13.2626 5.08105L11.5306 6.08105L12.2215 7.27773L12.562 6.76197C12.7355 6.4993 13.0224 6.33361 13.3366 6.31476L13.9535 6.27773L13.2626 5.08105ZM14.9947 4.08105L16.4946 6.67898C16.6679 6.97913 16.6734 7.3476 16.5092 7.6528C16.345 7.95801 16.0345 8.15642 15.6885 8.17719L13.9556 8.2812L12.999 9.72997C12.808 10.0192 12.4809 10.1889 12.1345 10.1785C11.7881 10.1681 11.4718 9.97913 11.2985 9.67898L9.79855 7.08105L9.45213 7.28105C9.19533 7.42932 9.05521 7.51112 8.959 7.57766L8.94816 7.58525L8.95376 7.59724C9.0038 7.70297 9.08425 7.84387 9.23252 8.10067L12.6325 13.9896C12.7808 14.2464 12.8626 14.3866 12.9291 14.4828L12.9367 14.4936L12.9487 14.488C13.0544 14.438 13.1953 14.3575 13.4521 14.2093L19.3411 10.8093C19.5979 10.661 19.738 10.5792 19.8342 10.5127L19.8451 10.5051L19.8395 10.4931C19.7894 10.3873 19.709 10.2464 19.5607 9.98964L16.1607 4.10067C16.0125 3.84387 15.9307 3.70374 15.8641 3.60754L15.8565 3.59669L15.8445 3.6023C15.7388 3.65234 15.5979 3.73279 15.3411 3.88106L14.9947 4.08105Z" fill="black"/>
</svg>
