<svg width="24" height="24" viewBox="0 0 24 24" fill="none" xmlns="http://www.w3.org/2000/svg">
<path fill-rule="evenodd" clip-rule="evenodd" d="M12.3042 1.59846C12.1164 1.48801 11.8836 1.48801 11.6958 1.59846L3.39302 6.48245C3.26268 6.55912 3.17541 6.67275 3.13122 6.79891C3.05009 6.89937 3 7.02819 3 7.17445V16.9424C3 17.155 3.11252 17.3518 3.29579 17.4596L11.5958 22.3419C11.7265 22.4188 11.8683 22.4398 12 22.417C12.1317 22.4398 12.2735 22.4188 12.4042 22.3419L20.7042 17.4596C20.8875 17.3518 21 17.155 21 16.9424V7.17445C21 7.02819 20.9499 6.89937 20.8688 6.79891C20.8246 6.67275 20.7373 6.55912 20.607 6.48245L12.3042 1.59846ZM19.5138 6.99961L12 11.4195L4.48615 6.99961L12 2.5797L19.5138 6.99961ZM20 7.87382V16.7136L12.5 21.1254V12.2856L20 7.87382ZM11.5 12.2856V21.1254L4 16.7136V7.87382L11.5 12.2856Z" fill="black"/>
</svg>
