<svg width="24" height="24" viewBox="0 0 24 24" fill="none" xmlns="http://www.w3.org/2000/svg">
<path d="M4.40714 16.1382C4.26713 16.3763 4.34658 16.6827 4.58459 16.8227L6.87517 18.1701C7.11319 18.3101 7.41964 18.2307 7.55965 17.9927C7.69966 17.7546 7.62021 17.4482 7.3822 17.3082L5.09161 15.9608C4.8536 15.8208 4.54715 15.9002 4.40714 16.1382Z" fill="black"/>
<path d="M4.58475 14.8227C4.34674 14.6827 4.26729 14.3762 4.4073 14.1382C4.54731 13.9002 4.85376 13.8207 5.09177 13.9608L7.38236 15.3082C7.62037 15.4482 7.69982 15.7546 7.55981 15.9926C7.4198 16.2307 7.11335 16.3101 6.87533 16.1701L4.58475 14.8227Z" fill="black"/>
<path fill-rule="evenodd" clip-rule="evenodd" d="M11.6921 0.82415C11.8823 0.712263 12.1182 0.712262 12.3084 0.82415L21.2581 6.08869C21.3923 6.16763 21.4814 6.28523 21.5254 6.41553C21.6101 6.51802 21.6625 6.65039 21.6625 6.80103V17.3301C21.6625 17.5455 21.5486 17.7448 21.3629 17.854L12.4162 23.1168C12.2816 23.1959 12.1355 23.2166 12.0002 23.1917C11.865 23.2166 11.7188 23.1959 11.5843 23.1168L2.63752 17.854C2.45188 17.7448 2.33789 17.5455 2.33789 17.3301V6.80103C2.33789 6.65039 2.39035 6.51802 2.47498 6.41553C2.51902 6.28523 2.60814 6.16763 2.74233 6.08869L5.80554 4.2868C5.8075 4.28562 5.80946 4.28445 5.81143 4.28329L8.6701 2.60173C8.67201 2.6006 8.67393 2.59949 8.67586 2.59838L11.6921 0.82415ZM9.95066 3.00868L12.0002 1.80306L20.1764 6.61257L17.9593 7.91671L9.95066 3.00868ZM13.9985 10.2466L12.0002 11.4221L3.82405 6.61257L5.90603 5.38787L13.9985 10.2466ZM8.97416 3.58309L6.88732 4.81064L14.9797 9.66939L16.9828 8.4911L8.97416 3.58309ZM20.6625 17.1058V7.48678L18.4543 8.78575V12.2174C18.4543 12.4328 18.3403 12.6321 18.1547 12.7413L15.3933 14.3656C14.9881 14.604 14.4774 14.3118 14.4774 13.8418V11.1251L12.5002 12.2881V21.9072L20.6625 17.1058ZM11.5002 21.9072V12.2881L3.33789 7.48678V17.1058L11.5002 21.9072ZM17.4543 9.37409L15.4774 10.537V13.156L17.4543 11.9931V9.37409Z" fill="black"/>
</svg>
