<svg width="24" height="24" viewBox="0 0 24 24" fill="none" xmlns="http://www.w3.org/2000/svg">
<path fill-rule="evenodd" clip-rule="evenodd" d="M2.47125 6.43045C2.5801 6.19412 2.7606 5.98432 3.01275 5.836L11.3155 0.952014C11.738 0.703496 12.262 0.703495 12.6845 0.952014L20.9872 5.836C21.2394 5.98432 21.4199 6.19412 21.5287 6.43045C21.6673 6.63935 21.75 6.89249 21.75 7.17445V16.9424C21.75 17.4208 21.4968 17.8635 21.0845 18.106L12.7845 22.9884C12.5314 23.1373 12.2597 23.1929 12 23.1729C11.7403 23.1929 11.4686 23.1373 11.2155 22.9884L2.91552 18.106C2.50318 17.8635 2.25 17.4208 2.25 16.9424V7.17445C2.25 6.89249 2.33274 6.63935 2.47125 6.43045ZM5.96539 6.99961L12 3.44983L18.0346 6.99961L12 10.5494L5.96539 6.99961ZM4.75 9.18513L10.75 12.7145V19.8141L4.75 16.2847V9.18513ZM13.25 12.7145L19.25 9.18513V16.2847L13.25 19.8141V12.7145Z" fill="black"/>
</svg>
