<svg width="24" height="24" viewBox="0 0 24 24" fill="none" xmlns="http://www.w3.org/2000/svg">
<path d="M1.20639 5.75198C0.93074 5.76853 0.720697 6.00539 0.737242 6.28104C0.753789 6.55668 0.990655 6.76673 1.2663 6.75018L2.51127 6.67546C2.90577 6.65178 2.98436 6.6536 3.04581 6.67075C3.11719 6.69067 3.18325 6.72622 3.23921 6.77481C3.28739 6.81664 3.33221 6.88122 3.52981 7.22348L9.81039 18.1018C8.93797 18.8729 8.69859 20.1761 9.30333 21.2235C9.99369 22.4192 11.5227 22.8289 12.7184 22.1386C13.7658 21.5338 14.2101 20.2856 13.8402 19.1815L22.9767 13.9065C23.2159 13.7685 23.2978 13.4627 23.1597 13.2235C23.0217 12.9844 22.7159 12.9024 22.4767 13.0405L13.3402 18.3155C12.6782 17.5666 11.6242 17.2842 10.6764 17.6018L4.36479 6.6696C4.21674 6.41239 4.08654 6.18619 3.89487 6.01975C3.72699 5.87397 3.52881 5.76734 3.31465 5.70757C3.07015 5.63932 2.80965 5.6553 2.51343 5.67347L1.20639 5.75198Z" fill="black"/>
<path fill-rule="evenodd" clip-rule="evenodd" d="M8.68646 5.99165C8.45819 6.12343 8.26127 6.23712 8.10673 6.34401C7.94361 6.45683 7.79117 6.58602 7.67553 6.7641C7.503 7.02976 7.41901 7.34322 7.43559 7.65956C7.4467 7.8716 7.51413 8.0597 7.59898 8.23896C7.67937 8.40881 7.79307 8.60572 7.92486 8.83398L11.3441 14.7563C11.4759 14.9846 11.5896 15.1815 11.6965 15.3361C11.8093 15.4992 11.9385 15.6516 12.1166 15.7673C12.3822 15.9398 12.6957 16.0238 13.012 16.0072C13.2241 15.9961 13.4122 15.9287 13.5914 15.8438C13.7613 15.7634 13.9582 15.6497 14.1865 15.5179L20.1088 12.0987C20.3371 11.9669 20.534 11.8532 20.6885 11.7463C20.8517 11.6335 21.0041 11.5043 21.1197 11.3262C21.2923 11.0606 21.3763 10.7471 21.3597 10.4308C21.3486 10.2187 21.2811 10.0306 21.1963 9.85135C21.1159 9.68151 21.0022 9.4846 20.8704 9.25634L17.4511 3.33397C17.3194 3.10571 17.2057 2.90879 17.0988 2.75425C16.986 2.59113 16.8568 2.43869 16.6787 2.32305C16.413 2.15053 16.0996 2.06653 15.7832 2.08311C15.5712 2.09422 15.3831 2.16165 15.2038 2.2465C15.034 2.32689 14.8371 2.44059 14.6088 2.57238L8.68646 5.99165ZM13.8794 4.1482L15.3056 6.61837C15.4127 6.80396 15.4663 6.89676 15.4595 6.97521C15.4535 7.04372 15.4196 7.10675 15.3657 7.14947C15.304 7.19839 15.197 7.20481 14.9831 7.21765L13.7964 7.28888C13.65 7.29767 13.5768 7.30206 13.5108 7.32528C13.4523 7.34585 13.3981 7.37711 13.3511 7.41748C13.2979 7.46306 13.2575 7.52425 13.1767 7.64665L12.5217 8.63876C12.4036 8.8176 12.3446 8.90702 12.2713 8.93601C12.2074 8.96132 12.1358 8.95917 12.0735 8.93008C12.0022 8.89676 11.9486 8.80396 11.8415 8.61837L10.4153 6.1482L13.8794 4.1482Z" fill="black"/>
</svg>
