<svg width="24" height="24" viewBox="0 0 24 24" fill="none" xmlns="http://www.w3.org/2000/svg">
<path d="M4.62262 16.265C4.55262 16.384 4.59234 16.5372 4.71135 16.6072L7.00193 17.9546C7.12094 18.0246 7.27416 17.9849 7.34417 17.8659C7.41417 17.7469 7.37445 17.5937 7.25544 17.5237L4.96486 16.1763C4.84585 16.1063 4.69263 16.146 4.62262 16.265Z" fill="black"/>
<path d="M4.71151 14.6072C4.5925 14.5372 4.55278 14.384 4.62278 14.265C4.69279 14.146 4.84601 14.1062 4.96502 14.1762L7.2556 15.5236C7.37461 15.5936 7.41433 15.7469 7.34433 15.8659C7.27432 15.9849 7.1211 16.0246 7.00209 15.9546L4.71151 14.6072Z" fill="black"/>
<path fill-rule="evenodd" clip-rule="evenodd" d="M8.8013 2.81464L11.8188 1.03963C11.9308 0.973768 12.0696 0.973768 12.1816 1.03963L21.1313 6.30418C21.2253 6.35944 21.2817 6.4469 21.3006 6.54083C21.3684 6.60443 21.4125 6.69505 21.4125 6.80103V17.3301C21.4125 17.4569 21.3454 17.5742 21.2362 17.6385L12.2894 22.9013C12.1953 22.9567 12.0914 22.9634 12.0002 22.9342C11.909 22.9634 11.8052 22.9567 11.711 22.9013L2.76427 17.6385C2.65499 17.5742 2.58789 17.4569 2.58789 17.3301V6.80103C2.58789 6.69505 2.63199 6.60443 2.69983 6.54084C2.71872 6.4469 2.77514 6.35944 2.86908 6.30418L5.93366 4.50149L5.93819 4.49878L8.79685 2.81721L8.8013 2.81464ZM5.90868 5.09627L3.33097 6.61257L12.0002 11.7121L14.4878 10.2488L5.93542 5.11392C5.92614 5.10834 5.91722 5.10245 5.90868 5.09627ZM8.97679 3.2915L6.39798 4.80844L14.9784 9.96021L17.4684 8.49549L8.97679 3.2915ZM9.46504 3.00429L17.9316 8.19292C17.9399 8.19801 17.9479 8.20336 17.9556 8.20894L20.6695 6.61257L12.0002 1.51301L9.46504 3.00429ZM11.7502 12.1452L3.08789 7.04967V17.2488L11.7502 22.3443V12.1452ZM14.7274 10.688L12.2502 12.1452V22.3443L20.9125 17.2488V7.04967L18.2017 8.64429C18.2034 8.65864 18.2043 8.67334 18.2043 8.68834V12.2174C18.2043 12.3442 18.1372 12.4615 18.0279 12.5258L15.2666 14.1501C15.028 14.2904 14.7274 14.1185 14.7274 13.8418V10.688ZM17.7043 8.93698L15.2274 10.394V13.5931L17.7043 12.1361V8.93698Z" fill="black"/>
</svg>
