<svg width="24" height="24" viewBox="0 0 24 24" fill="none" xmlns="http://www.w3.org/2000/svg">
<path d="M3.82597 6.03248L6.05842 4.71927C5.99578 4.76341 5.99793 4.8591 6.06536 4.89959L14.0027 9.66521L12.0021 10.842L3.82597 6.03248Z" fill="black"/>
<path d="M11.9475 1.25512L8.93282 3.02845C8.96563 3.01268 9.00445 3.01447 9.03583 3.0337L16.9897 7.90813L20.1783 6.03248L12.0568 1.25512C12.0231 1.23527 11.9812 1.23527 11.9475 1.25512Z" fill="black"/>
<path d="M21.1642 7.77288L17.9552 9.66058V12.2174C17.9552 12.2556 17.9349 12.291 17.902 12.3103L15.1407 13.9347C15.0688 13.9769 14.9782 13.9251 14.9782 13.8418V11.4117L13.0019 12.5742V22.1931L21.1111 17.423C21.144 17.4037 21.1642 17.3683 21.1642 17.3301V7.77288Z" fill="black"/>
<path fill-rule="evenodd" clip-rule="evenodd" d="M2.8396 7.77263L11.0019 12.574V22.1931L2.89274 17.423C2.85982 17.4037 2.8396 17.3683 2.8396 17.3301V7.77263ZM5.33247 16.2537C4.85643 15.9737 4.69753 15.3608 4.97755 14.8847C5.25757 14.4087 5.87047 14.2498 6.34651 14.5298L8.63709 15.8772C9.11312 16.1572 9.27202 16.7701 8.992 17.2462C8.71198 17.7222 8.09908 17.8811 7.62305 17.6011L5.33247 16.2537Z" fill="black"/>
</svg>
