<svg width="24" height="24" viewBox="0 0 24 24" fill="none" xmlns="http://www.w3.org/2000/svg">
<path d="M1.29209 6.40241C0.602973 6.44377 0.0778659 7.03594 0.119229 7.72505C0.160591 8.41417 0.752761 8.93928 1.44188 8.89791L2.90277 8.81023L8.93446 19.2574C8.50415 20.0052 8.47301 20.9556 8.93543 21.7566C9.62579 22.9523 11.1548 23.362 12.3505 22.6716C13.1521 22.2088 13.6005 21.369 13.6009 20.5055L22.9824 15.0891C23.5802 14.7439 23.7851 13.9794 23.4399 13.3816C23.0947 12.7837 22.3302 12.5789 21.7324 12.924L12.3502 18.3408C11.97 18.122 11.5375 18.0063 11.0988 18.0062L4.99058 7.42642C4.56447 6.68836 3.75792 6.2544 2.90722 6.30546L1.29209 6.40241Z" fill="black"/>
<path fill-rule="evenodd" clip-rule="evenodd" d="M8.22005 5.71555C7.19173 6.30926 6.83939 7.62418 7.4331 8.65251L11.0331 14.8879C11.6268 15.9162 12.9417 16.2686 13.9701 15.6748L20.2054 12.0748C21.2338 11.4811 21.5861 10.1662 20.9924 9.13789L17.3924 2.90251C16.7987 1.87418 15.4838 1.52185 14.4554 2.11555L8.22005 5.71555ZM14.3192 5.08096L15.8702 7.76745C15.9774 7.95304 16.031 8.04584 16.0241 8.12429C16.0182 8.1928 15.9843 8.25583 15.9304 8.29855C15.8687 8.34747 15.7617 8.35389 15.5478 8.36673L14.3611 8.43796C14.2147 8.44675 14.1415 8.45114 14.0754 8.47436C14.0169 8.49493 13.9628 8.52619 13.9157 8.56656C13.8626 8.61214 13.8222 8.67333 13.7414 8.79571L13.0864 9.78785C12.9683 9.96669 12.9092 10.0561 12.836 10.0851C12.7721 10.1104 12.7005 10.1083 12.6382 10.0792C12.5669 10.0458 12.5133 9.95304 12.4061 9.76745L10.8551 7.08096L14.3192 5.08096Z" fill="black"/>
</svg>
