<svg width="24" height="24" viewBox="0 0 24 24" fill="none" xmlns="http://www.w3.org/2000/svg">
<path fill-rule="evenodd" clip-rule="evenodd" d="M1.20443 5.75157C0.928787 5.76812 0.718744 6.00499 0.735289 6.28063C0.751835 6.55628 0.988702 6.76632 1.26435 6.74978L2.50932 6.67505C2.90382 6.65137 2.9824 6.65319 3.04386 6.67034C3.11524 6.69027 3.1813 6.72581 3.23726 6.77441C3.28543 6.81624 3.33025 6.88082 3.52786 7.22307L9.80843 18.1014C8.93601 18.8725 8.69664 20.1757 9.30138 21.2231C9.99173 22.4188 11.5207 22.8285 12.7164 22.1382C13.7639 21.5334 14.2082 20.2852 13.8382 19.1811L22.9748 13.9061C23.2139 13.768 23.2959 13.4623 23.1578 13.2231C23.0197 12.984 22.7139 12.902 22.4748 13.0401L13.3382 18.3151C12.6762 17.5662 11.6222 17.2838 10.6745 17.6014L4.36284 6.6692C4.21479 6.41198 4.08459 6.18579 3.89292 6.01935C3.72504 5.87357 3.52685 5.76693 3.3127 5.70716C3.0682 5.63891 2.8077 5.65489 2.51147 5.67307L1.20443 5.75157ZM10.1674 20.7231C9.75319 20.0057 9.999 19.0883 10.7164 18.6741C11.4339 18.2599 12.3513 18.5057 12.7655 19.2231C13.1797 19.9405 12.9339 20.8579 12.2164 21.2721C11.499 21.6864 10.5816 21.4405 10.1674 20.7231Z" fill="black"/>
<path fill-rule="evenodd" clip-rule="evenodd" d="M9.91254 5.28167L9.90309 5.28726L8.68347 5.99141C8.45521 6.12319 8.25828 6.23687 8.10374 6.34377C7.94063 6.45659 7.78819 6.58577 7.67254 6.76385C7.50002 7.02952 7.41603 7.34298 7.4326 7.65931C7.44372 7.87136 7.51114 8.05945 7.59599 8.23872C7.67638 8.40856 7.79008 8.60548 7.92187 8.83374L11.3411 14.7561C11.4729 14.9844 11.5866 15.1813 11.6935 15.3358C11.8063 15.4989 11.9355 15.6514 12.1136 15.767C12.3793 15.9395 12.6927 16.0235 13.0091 16.007C13.2211 15.9958 13.4092 15.9284 13.5885 15.8436C13.7583 15.7632 13.9552 15.6495 14.1835 15.5177L20.1058 12.0984C20.3341 11.9666 20.531 11.853 20.6856 11.7461C20.8487 11.6332 21.0011 11.5041 21.1168 11.326C21.2893 11.0603 21.3733 10.7468 21.3567 10.4305C21.3456 10.2185 21.2782 10.0304 21.1933 9.85111C21.1129 9.68126 20.9992 9.48435 20.8674 9.2561L17.4481 3.33373C17.3164 3.10546 17.2027 2.90855 17.0958 2.754C16.983 2.59089 16.8538 2.43845 16.6757 2.32281C16.41 2.15028 16.0966 2.06629 15.7802 2.08287C15.5682 2.09398 15.3801 2.1614 15.2008 2.24625C15.031 2.32664 14.8341 2.44034 14.6058 2.57214L13.3862 3.27628L13.3766 3.28167L9.91254 5.28167ZM13.4437 4.3978L10.8456 5.8978L12.191 8.22816L12.9773 7.03726C13.064 6.90593 13.2075 6.82309 13.3646 6.81366L14.7891 6.72816L13.4437 4.3978ZM14.3097 3.8978L16.0597 6.92878C16.1463 7.07886 16.1491 7.26309 16.067 7.41569C15.9848 7.5683 15.8296 7.6675 15.6566 7.67789L13.6741 7.79688L12.5798 9.45428C12.4843 9.59889 12.3208 9.68375 12.1476 9.67856C11.9743 9.67337 11.8162 9.57886 11.7295 9.42878L9.97959 6.3978L9.20016 6.8478C8.95051 6.99194 8.7895 7.08534 8.6726 7.1662C8.56052 7.24373 8.52632 7.28522 8.51121 7.30849C8.4537 7.39705 8.42571 7.50153 8.43123 7.60698C8.43269 7.63469 8.44155 7.68772 8.49986 7.8109C8.56067 7.93938 8.6534 8.10077 8.79754 8.35043L12.1975 14.2394C12.3417 14.4891 12.4351 14.6501 12.5159 14.767C12.5935 14.879 12.635 14.9132 12.6582 14.9283C12.7468 14.9859 12.8513 15.0139 12.9567 15.0083C12.9844 15.0069 13.0375 14.998 13.1606 14.9397C13.2891 14.8789 13.4505 14.7862 13.7002 14.642L19.5891 11.242C19.8388 11.0979 19.9998 11.0045 20.1167 10.9236C20.2288 10.8461 20.263 10.8046 20.2781 10.7813C20.3356 10.6928 20.3636 10.5883 20.3581 10.4828C20.3566 10.4551 20.3477 10.4021 20.2894 10.2789C20.2286 10.1504 20.1359 9.98905 19.9918 9.7394L16.5918 3.85043C16.4476 3.60077 16.3542 3.43977 16.2734 3.32287C16.1958 3.21078 16.1543 3.17659 16.1311 3.16148C16.0425 3.10397 15.938 3.07597 15.8326 3.0815C15.8049 3.08295 15.7518 3.09181 15.6287 3.15012C15.5002 3.21093 15.3388 3.30366 15.0891 3.4478L14.3097 3.8978Z" fill="black"/>
</svg>
