<svg width="24" height="24" viewBox="0 0 24 24" fill="none" xmlns="http://www.w3.org/2000/svg">
<path d="M2.41664 6.04642C2.42534 6.04034 2.43439 6.03452 2.44378 6.029L11.8003 0.525159C11.9237 0.452551 12.0768 0.452551 12.2003 0.525159L21.5568 6.029C21.5662 6.03451 21.5752 6.04032 21.5839 6.0464L12.0002 11.7095L2.41664 6.04642Z" fill="black"/>
<path d="M2.15115 6.47031L11.7502 12.1425V23.4457C11.7291 23.4377 11.7081 23.4277 11.6876 23.4156L2.33421 17.9136C2.21374 17.8428 2.13977 17.7134 2.13977 17.5737V6.566C2.13977 6.53262 2.14374 6.50062 2.15115 6.47031Z" fill="black"/>
<path d="M12.2502 23.4457V12.1425L21.8494 6.47027C21.8568 6.5006 21.8608 6.5326 21.8608 6.566V17.5737C21.8608 17.7134 21.7868 17.8428 21.6664 17.9136L12.313 23.4156C12.2924 23.4277 12.2714 23.4377 12.2502 23.4457Z" fill="black"/>
</svg>
