<svg width="25" height="24" viewBox="0 0 25 24" fill="none" xmlns="http://www.w3.org/2000/svg">
<path fill-rule="evenodd" clip-rule="evenodd" d="M1.17515 5.25302C0.48603 5.29439 -0.0390775 5.88656 0.00228514 6.57567C0.0436478 7.26479 0.635818 7.7899 1.32493 7.74853L2.56991 7.67381C2.65824 7.6685 2.7265 7.66442 2.78545 7.66155C2.81553 7.71233 2.84974 7.77154 2.89399 7.84818L8.8991 18.2493C8.12686 19.2607 7.99152 20.6774 8.66751 21.8482C9.56497 23.4027 11.5526 23.9353 13.1071 23.0378C14.2779 22.3618 14.869 21.0673 14.706 19.8053L23.3654 14.8057C23.9633 14.4606 24.1681 13.6961 23.823 13.0982C23.4778 12.5003 22.7133 12.2955 22.1154 12.6407L13.456 17.6402C12.7759 17.121 11.9127 16.8897 11.0642 16.9993L5.05905 6.59818L5.02095 6.53163C4.88735 6.29743 4.69367 5.9579 4.40031 5.70316C4.14849 5.48449 3.85121 5.32454 3.52998 5.23487C3.15576 5.13042 2.7657 5.15587 2.49665 5.17343L2.42012 5.1783L1.17515 5.25302ZM10.8326 20.5982C10.6255 20.2395 10.7484 19.7808 11.1071 19.5737C11.4658 19.3666 11.9245 19.4895 12.1316 19.8482C12.3387 20.2069 12.2158 20.6656 11.8571 20.8727C11.4984 21.0798 11.0397 20.9569 10.8326 20.5982Z" fill="black"/>
<path fill-rule="evenodd" clip-rule="evenodd" d="M8.60539 5.42982C8.4137 5.54044 8.21056 5.65767 8.04377 5.77303C7.85615 5.9028 7.62435 6.08922 7.43985 6.37334C7.19256 6.75412 7.07217 7.20342 7.09594 7.65683C7.11367 7.99514 7.22119 8.27248 7.31879 8.47868C7.40555 8.66198 7.52287 8.86508 7.63357 9.05672L10.7285 14.4173C10.8391 14.609 10.9563 14.8121 11.0717 14.9789C11.2015 15.1665 11.3879 15.3983 11.672 15.5828C12.0528 15.8301 12.5021 15.9505 12.9555 15.9267C13.2938 15.909 13.5712 15.8015 13.7774 15.7039C13.9607 15.6171 14.1638 15.4998 14.3554 15.3891L19.716 12.2942C19.9077 12.1836 20.1108 12.0663 20.2776 11.951C20.4652 11.8212 20.697 11.6348 20.8815 11.3507C21.1288 10.9699 21.2492 10.5206 21.2254 10.0672C21.2077 9.72887 21.1002 9.45153 21.0026 9.24532C20.9158 9.06203 20.7985 8.85893 20.6878 8.66728L17.5929 3.30672C17.4823 3.11503 17.365 2.91188 17.2497 2.7451C17.1199 2.55747 16.9335 2.32568 16.6493 2.14117C16.2686 1.89389 15.8193 1.7735 15.3658 1.79726C15.0275 1.81499 14.7502 1.92252 14.544 2.02012C14.3607 2.10688 14.1576 2.22419 13.966 2.33489L8.60539 5.42982ZM9.8161 7.83697C9.78042 7.77517 9.74924 7.72114 9.72143 7.67251C9.76983 7.6443 9.82385 7.6131 9.88564 7.57742L10.3693 7.29817L11.7442 9.67957C11.9286 9.99896 12.2738 10.1909 12.6424 10.1791C13.011 10.1672 13.3432 9.95339 13.5067 9.6228L14.0102 8.60438L15.144 8.6775C15.512 8.70123 15.8632 8.52048 16.0578 8.20719C16.2524 7.89391 16.2587 7.49896 16.0743 7.17957L14.6994 4.79817L15.1857 4.51742C15.2475 4.48174 15.3015 4.45056 15.3502 4.42276C15.3784 4.47115 15.4096 4.52517 15.4453 4.58697L18.5053 9.88704C18.5409 9.94884 18.5721 10.0029 18.5999 10.0515C18.5515 10.0797 18.4975 10.1109 18.4357 10.1466L13.1356 13.2066C13.0738 13.2423 13.0198 13.2734 12.9712 13.3012C12.943 13.2529 12.9118 13.1988 12.8761 13.137L9.8161 7.83697ZM12.9674 5.79817L13.4093 6.56353C13.0522 6.56344 12.7217 6.75426 12.5433 7.06353L12.1014 6.29817L12.9674 5.79817Z" fill="black"/>
</svg>
