<svg width="24" height="24" viewBox="0 0 24 24" fill="none" xmlns="http://www.w3.org/2000/svg">
<path fill-rule="evenodd" clip-rule="evenodd" d="M12.1775 1.81395C12.0679 1.74952 11.9321 1.74952 11.8225 1.81395L3.51977 6.69793C3.42974 6.75089 3.37494 6.83408 3.35538 6.92384C3.29136 6.98583 3.25 7.07293 3.25 7.17445V16.9424C3.25 17.0664 3.31564 17.1812 3.42254 17.2441L11.7225 22.1264C11.8128 22.1795 11.9121 22.1869 12 22.1604C12.0879 22.1869 12.1872 22.1795 12.2775 22.1264L20.5775 17.2441C20.6844 17.1812 20.75 17.0664 20.75 16.9424V7.17445C20.75 7.07293 20.7086 6.98583 20.6446 6.92384C20.6251 6.83408 20.5703 6.75089 20.4802 6.69793L12.1775 1.81395ZM20.0069 6.99961L12 11.7096L3.99308 6.99961L12 2.28965L20.0069 6.99961ZM20.25 7.43671V16.8566L12.25 21.5625V12.1426L20.25 7.43671ZM11.75 12.1426V21.5625L3.75 16.8566V7.43671L11.75 12.1426Z" fill="black"/>
</svg>
