<svg width="24" height="24" viewBox="0 0 24 24" fill="none" xmlns="http://www.w3.org/2000/svg">
<path fill-rule="evenodd" clip-rule="evenodd" d="M1.2194 6.001C1.08158 6.00928 0.97656 6.12771 0.984832 6.26553C0.993105 6.40336 1.11154 6.50838 1.24936 6.5001L2.49433 6.42538C2.87074 6.40279 2.99961 6.39832 3.11106 6.42943C3.21814 6.45931 3.31723 6.51263 3.40117 6.58552C3.48854 6.66138 3.55581 6.77139 3.74435 7.09795L10.1318 18.1613C9.21971 18.8315 8.93881 20.095 9.51788 21.098C10.1392 22.1741 11.5153 22.5429 12.5914 21.9215C13.5944 21.3425 13.9829 20.1078 13.5281 19.0714L22.8498 13.6895C22.9693 13.6205 23.0103 13.4676 22.9413 13.348C22.8722 13.2284 22.7193 13.1874 22.5998 13.2565L13.2781 18.6383C12.6568 17.7928 11.5256 17.4897 10.5648 17.9113L4.15603 6.81098C3.99736 6.53588 3.88774 6.34583 3.729 6.20799C3.5891 6.08651 3.42394 5.99765 3.24548 5.94783C3.04299 5.89131 2.82399 5.90455 2.50699 5.92371L1.2194 6.001ZM9.95089 20.848C9.46764 20.011 9.75442 18.9407 10.5914 18.4574C11.4284 17.9742 12.4987 18.261 12.982 19.098C13.4652 19.935 13.1784 21.0053 12.3414 21.4885C11.5044 21.9718 10.4341 21.685 9.95089 20.848Z" fill="black"/>
<path fill-rule="evenodd" clip-rule="evenodd" d="M10.0376 5.4981L10.0327 5.501L8.81589 6.20351C8.58125 6.33897 8.39197 6.44825 8.24595 6.54925C8.09559 6.65325 7.97271 6.76051 7.8822 6.89989C7.73843 7.12128 7.66844 7.3825 7.68225 7.64611C7.69095 7.81207 7.74374 7.9664 7.82195 8.13164C7.89791 8.29213 8.00718 8.48139 8.14266 8.71604L11.5534 14.6235C11.6888 14.8582 11.7981 15.0475 11.8991 15.1935C12.0031 15.3438 12.1104 15.4667 12.2497 15.5572C12.4711 15.701 12.7323 15.771 12.996 15.7572C13.1619 15.7485 13.3163 15.6957 13.4815 15.6175C13.642 15.5415 13.8312 15.4323 14.0659 15.2968L19.9734 11.8861C20.208 11.7506 20.3973 11.6413 20.5433 11.5403C20.6937 11.4363 20.8166 11.3291 20.9071 11.1897C21.0509 10.9683 21.1208 10.7071 21.107 10.4435C21.0983 10.2775 21.0455 10.1232 20.9673 9.95794C20.8914 9.79745 20.7821 9.60819 20.6466 9.37355L17.2359 3.46603C17.1005 3.23139 16.9912 3.04213 16.8902 2.8961C16.7862 2.74574 16.6789 2.62286 16.5395 2.53235C16.3182 2.38858 16.0569 2.31859 15.7933 2.3324C15.6274 2.3411 15.473 2.39388 15.3078 2.4721C15.1473 2.54806 14.9581 2.65732 14.7234 2.79279L13.5066 3.49531L13.5017 3.4981L10.0376 5.4981ZM13.5352 4.05617L10.5041 5.80617L12.1768 8.70339L13.186 7.17494C13.2293 7.10927 13.3011 7.06785 13.3796 7.06313L15.2079 6.95339L13.5352 4.05617ZM13.9682 3.80617L15.8432 7.05371C15.8865 7.12875 15.8879 7.22086 15.8468 7.29716C15.8058 7.37347 15.7281 7.42307 15.6416 7.42826L13.5344 7.55475L12.3712 9.31646C12.3234 9.38876 12.2417 9.43119 12.1551 9.4286C12.0685 9.426 11.9894 9.37875 11.9461 9.30371L10.0711 6.05617L9.07516 6.63117C8.82907 6.77325 8.65763 6.87245 8.53038 6.96047C8.40554 7.04682 8.34178 7.11024 8.30154 7.17221C8.21528 7.30504 8.17328 7.46177 8.18157 7.61994C8.18544 7.69373 8.20894 7.78053 8.27388 7.91773C8.34008 8.05758 8.43895 8.22922 8.58102 8.4753L11.981 14.3643C12.1231 14.6104 12.2223 14.7818 12.3103 14.9091C12.3967 15.0339 12.4601 15.0976 12.5221 15.1379C12.6549 15.2242 12.8116 15.2662 12.9698 15.2579C13.0436 15.254 13.1304 15.2305 13.2676 15.1656C13.4074 15.0994 13.5791 15.0005 13.8252 14.8584L19.7141 11.4584C19.9602 11.3163 20.1317 11.2171 20.2589 11.1291C20.3837 11.0428 20.4475 10.9793 20.4877 10.9174C20.574 10.7845 20.616 10.6278 20.6077 10.4696C20.6038 10.3958 20.5803 10.309 20.5154 10.1718C20.4492 10.032 20.3503 9.86036 20.2083 9.61428L16.8083 3.7253C16.6662 3.47922 16.567 3.30778 16.479 3.18053C16.3926 3.05569 16.3292 2.99193 16.2672 2.95169C16.1344 2.86542 15.9777 2.82343 15.8195 2.83172C15.7457 2.83558 15.6589 2.85909 15.5217 2.92403C15.3818 2.99022 15.2102 3.08909 14.9641 3.23117L13.9682 3.80617Z" fill="black"/>
</svg>
