<svg width="24" height="24" viewBox="0 0 24 24" fill="none" xmlns="http://www.w3.org/2000/svg">
<path d="M4.07251 5.88746L6.05842 4.71927C5.99578 4.76341 5.99793 4.8591 6.06536 4.89959L13.7586 9.5187L12.0021 10.5519L4.07251 5.88746Z" fill="black"/>
<path d="M11.9475 1.25512L8.93283 3.02844C8.96563 3.01268 9.00445 3.01447 9.03583 3.0337L16.7482 7.76014L19.9318 5.88746L12.0568 1.25512C12.0231 1.23527 11.9812 1.23527 11.9475 1.25512Z" fill="black"/>
<path d="M21.1642 8.06292L17.9552 9.95062V12.2174C17.9552 12.2556 17.9349 12.291 17.902 12.3103L15.1407 13.9347C15.0688 13.9769 14.9782 13.9251 14.9782 13.8418V11.7018L13.2519 12.7172V22.0461L21.1111 17.423C21.144 17.4037 21.1642 17.3683 21.1642 17.3301V8.06292Z" fill="black"/>
<path fill-rule="evenodd" clip-rule="evenodd" d="M2.8396 8.06267L10.7519 12.717V22.0461L2.89274 17.423C2.85982 17.4037 2.8396 17.3683 2.8396 17.3301V8.06267ZM4.20571 16.4692C3.61067 16.1191 3.41204 15.353 3.76207 14.758C4.11209 14.1629 4.87822 13.9643 5.47326 14.3143L7.76384 15.6617C8.35888 16.0118 8.55751 16.7779 8.20748 17.3729C7.85746 17.968 7.09133 18.1666 6.49629 17.8166L4.20571 16.4692Z" fill="black"/>
</svg>
