<svg width="24" height="24" viewBox="0 0 24 24" fill="none" xmlns="http://www.w3.org/2000/svg">
<path d="M4.19133 15.0115C3.98131 15.3685 4.10049 15.8282 4.45751 16.0382L6.74809 17.3856C7.10512 17.5956 7.56479 17.4764 7.77481 17.1194C7.98482 16.7624 7.86565 16.3027 7.50862 16.0927L5.21804 14.7453C4.86102 14.5353 4.40134 14.6545 4.19133 15.0115Z" fill="black"/>
<path d="M4.45849 13.0382C4.10146 12.8282 3.98229 12.3685 4.1923 12.0115C4.40232 11.6544 4.86199 11.5353 5.21902 11.7453L7.5096 13.0927C7.86662 13.3027 7.9858 13.7624 7.77578 14.1194C7.56577 14.4764 7.10609 14.5956 6.74907 14.3856L4.45849 13.0382Z" fill="black"/>
<path fill-rule="evenodd" clip-rule="evenodd" d="M8.55024 2.38223L11.5653 0.608666C11.8337 0.450757 12.1667 0.450757 12.4351 0.608666L21.3849 5.87321C21.5596 5.976 21.6802 6.12525 21.7466 6.29217C21.8498 6.43141 21.9125 6.60529 21.9125 6.80103V17.3301C21.9125 17.6341 21.7517 17.9154 21.4897 18.0695L12.5429 23.3323C12.3677 23.4354 12.1784 23.4681 12.0002 23.4449C11.822 23.4681 11.6328 23.4354 11.4575 23.3323L2.51077 18.0695C2.24876 17.9154 2.08789 17.6341 2.08789 17.3301V6.80103C2.08789 6.60529 2.15065 6.43141 2.25381 6.29216C2.32025 6.12525 2.44083 5.976 2.61557 5.87321L5.67766 4.07198C5.67999 4.07058 5.68233 4.06919 5.68468 4.06781L8.54334 2.38624C8.54564 2.38489 8.54794 2.38355 8.55024 2.38223ZM5.90472 5.67869L4.31712 6.61257L12.0002 11.132L13.5091 10.2444L5.90472 5.67869ZM8.97152 3.87469L7.37665 4.81285L14.981 9.37858L16.4972 8.48671L8.97152 3.87469ZM10.4363 3.01307L17.962 7.62511L19.6833 6.61257L12.0002 2.0931L10.4363 3.01307ZM11.2502 12.4311L3.58789 7.92388V16.9628L11.2502 21.4701V12.4311ZM14.2274 11.5622L12.7502 12.4311V21.4701L20.4125 16.9628V7.92388L18.7043 8.92873V12.2174C18.7043 12.5214 18.5434 12.8027 18.2814 12.9568L15.5201 14.5811C14.9482 14.9175 14.2274 14.5052 14.2274 13.8418V11.5622ZM17.2043 9.81119L15.7274 10.68V12.7189L17.2043 11.8501V9.81119Z" fill="black"/>
</svg>
