<svg width="24" height="24" viewBox="0 0 24 24" fill="none" xmlns="http://www.w3.org/2000/svg">
<path d="M0.99114 5.48563C0.439849 5.51872 0.0197625 5.99246 0.0528536 6.54375C0.0859431 7.09504 0.559679 7.51513 1.11097 7.48204L2.7261 7.3851L9.27109 18.7214C8.69932 19.4969 8.60546 20.5685 9.11804 21.4563C9.8084 22.652 11.3374 23.0617 12.5331 22.3713C13.4209 21.8587 13.8754 20.8839 13.768 19.9263L23.0414 14.5723C23.5197 14.2962 23.6836 13.6846 23.4075 13.2063C23.1313 12.728 22.5197 12.5641 22.0414 12.8402L12.768 18.1943C12.2614 17.8208 11.6286 17.6512 11.0031 17.7214L4.45815 6.3851C4.07938 5.72904 3.36245 5.3433 2.60627 5.38869L0.99114 5.48563Z" fill="black"/>
<path fill-rule="evenodd" clip-rule="evenodd" d="M7.74825 6.08176C6.79166 6.63404 6.46391 7.85723 7.0162 8.81381L11.0162 15.742C11.5685 16.6986 12.7917 17.0263 13.7482 16.4741L20.6765 12.4741C21.633 11.9218 21.9608 10.6986 21.4085 9.74201L17.4085 2.81381C16.8562 1.85722 15.633 1.52948 14.6765 2.08176L7.74825 6.08176ZM13.9441 4.81397L15.6203 7.71715C15.7274 7.90274 15.781 7.99554 15.7742 8.07399C15.7682 8.1425 15.7343 8.20553 15.6804 8.24825C15.6187 8.29717 15.5117 8.30359 15.2978 8.31643L14.1111 8.38766C13.9647 8.39644 13.8915 8.40084 13.8255 8.42406C13.767 8.44463 13.7128 8.47589 13.6658 8.51626C13.6126 8.56184 13.5722 8.62303 13.4914 8.74542L12.8364 9.73754C12.7183 9.91638 12.6593 10.0058 12.586 10.0348C12.5221 10.0601 12.4506 10.058 12.3883 10.0289C12.3169 9.99554 12.2633 9.90274 12.1562 9.71715L10.48 6.81397L13.9441 4.81397Z" fill="black"/>
</svg>
