<svg width="26" height="24" viewBox="0 0 26 24" fill="none" xmlns="http://www.w3.org/2000/svg">
<path fill-rule="evenodd" clip-rule="evenodd" d="M4.00121 2.75C2.20641 2.75 0.751386 4.20488 0.751206 5.99967L0.75 17.9997C0.74982 19.7947 2.20495 21.25 4 21.25H15.6548C16.2462 21.8663 17.0783 22.25 18 22.25H21.9999C23.7948 22.25 25.2499 20.7949 25.2499 19L25.2499 10C25.2499 8.28917 23.928 6.88709 22.2498 6.75947V6C22.2498 4.20508 20.7947 2.75 18.9998 2.75L4.00121 2.75ZM19.7498 6.75001V6C19.7498 5.58578 19.414 5.25 18.9998 5.25L4.00121 5.25C3.58702 5.25 3.25125 5.58574 3.25121 5.99993L3.2503 15H14.7502L14.7505 9.99984C14.7506 8.20498 16.2056 6.75001 18.0005 6.75001H19.7498ZM14.7501 17H3.2501L3.25 17.9999C3.24996 18.4142 3.58576 18.75 4 18.75H14.75L14.7501 17ZM17.2505 9.99997C17.2505 9.58577 17.5863 9.25001 18.0005 9.25001H21.9999C22.4141 9.25001 22.7499 9.58579 22.7499 10L22.7499 19C22.7499 19.4142 22.4141 19.75 21.9999 19.75H18C17.5858 19.75 17.25 19.4142 17.25 19L17.2505 9.99997Z" fill="black"/>
</svg>
