<svg width="24" height="24" viewBox="0 0 24 24" fill="none" xmlns="http://www.w3.org/2000/svg">
<path fill-rule="evenodd" clip-rule="evenodd" d="M3.00121 3C1.34447 3 0.00137215 4.34296 0.00120573 5.9997L1.54674e-08 17.9997C-0.000166429 19.6567 1.34303 21 3 21H14.7639C15.3132 21.6138 16.1115 22 17 22H20.9999C22.6567 22 23.9999 20.6569 23.9999 19V10C23.9999 8.34316 22.6567 7.00001 20.9999 7.00001L20.9998 6C20.9998 4.34315 19.6567 3 17.9998 3L3.00121 3ZM18.9998 7.00001V6C18.9998 5.44772 18.5521 5 17.9998 5L3.00121 5C2.44896 5 2.00126 5.44766 2.00121 5.9999L2.00025 15.5L14.0002 15.5L14.0005 9.99985C14.0005 8.34306 15.3437 7.00001 17.0005 7.00001H18.9998ZM14.0001 17.5H2.00005L2 17.9999C1.99994 18.5522 2.44768 19 3 19H14C14 19 14 19 14 19L14.0001 17.5ZM16.0005 9.99996C16.0005 9.44769 16.4482 9.00001 17.0005 9.00001H20.9999C21.5522 9.00001 21.9999 9.44772 21.9999 10V19C21.9999 19.5523 21.5522 20 20.9999 20H17C16.4477 20 16 19.5523 16 19L16.0005 9.99996Z" fill="black"/>
</svg>
