<svg width="24" height="24" viewBox="0 0 24 24" fill="none" xmlns="http://www.w3.org/2000/svg">
<path d="M0.251206 5.99972C0.251358 4.48105 1.48253 3.25 3.00121 3.25L17.9998 3.25C19.5186 3.25 20.7498 4.48122 20.7498 6V7L19.2498 7V6C19.2498 5.30964 18.6902 4.75 17.9998 4.75L3.00121 4.75C2.3109 4.75 1.75128 5.30957 1.75121 5.99987L1.7501 17H14L13.9999 18.9998C13.9998 19.653 14.2085 20.2574 14.5629 20.75H3C1.48111 20.75 0.249847 19.5186 0.25 17.9997L0.251206 5.99972Z" fill="black"/>
<path d="M16.0309 20.75C16.2462 20.8695 16.4858 20.9504 16.7405 20.9833C16.8039 20.9916 16.8683 20.9968 16.9335 20.9989C16.9555 20.9996 16.9777 21 16.9999 21H20.9998C21.0317 21 21.0634 20.9993 21.0949 20.9978C21.1475 20.9953 21.1995 20.9908 21.251 20.9844C22.1702 20.8692 22.8954 20.1301 22.9894 19.2045C22.9963 19.1373 22.9998 19.069 22.9998 19V10C22.9998 8.89975 22.1113 8.007 21.0127 8.00004C21.0084 8.00001 21.0041 8 20.9998 8H17.0003C15.8958 8 15.0004 8.89537 15.0003 9.9999L14.9999 18.9999C14.9998 19.7529 15.416 20.4088 16.0309 20.75Z" fill="black"/>
</svg>
