<svg width="25" height="24" viewBox="0 0 25 24" fill="none" xmlns="http://www.w3.org/2000/svg">
<path fill-rule="evenodd" clip-rule="evenodd" d="M3.25121 2.75C1.45641 2.75 0.001386 4.20488 0.00120576 5.99967L1.67547e-08 17.9997C-0.00018029 19.7947 1.45495 21.25 3.25 21.25H14.9048C15.4962 21.8663 16.3283 22.25 17.25 22.25H21.2499C23.0448 22.25 24.4999 20.7949 24.4999 19L24.4999 10C24.4999 8.28917 23.178 6.88709 21.4998 6.75947V6C21.4998 4.20508 20.0447 2.75 18.2498 2.75L3.25121 2.75ZM18.9998 6.75001V6C18.9998 5.58578 18.664 5.25 18.2498 5.25L3.25121 5.25C2.83702 5.25 2.50125 5.58574 2.50121 5.99993L2.5003 15H14.0002L14.0005 9.99984C14.0006 8.20498 15.4556 6.75001 17.2505 6.75001H18.9998ZM14.0001 17H2.5001L2.5 17.9999C2.49996 18.4142 2.83576 18.75 3.25 18.75H14L14.0001 17ZM16.5005 9.99997C16.5005 9.58577 16.8363 9.25001 17.2505 9.25001H21.2499C21.6641 9.25001 21.9999 9.58579 21.9999 10L21.9999 19C21.9999 19.4142 21.6641 19.75 21.2499 19.75H17.25C16.8358 19.75 16.5 19.4142 16.5 19L16.5005 9.99997Z" fill="black"/>
</svg>
