<svg width="24" height="24" viewBox="0 0 24 24" fill="none" xmlns="http://www.w3.org/2000/svg">
<path d="M0.751206 5.99977C0.751331 4.75722 1.75865 3.75 3.00121 3.75L17.9998 3.75C19.2424 3.75 20.2498 4.75736 20.2498 6V7.5H19.7498V6C19.7498 5.0335 18.9663 4.25 17.9998 4.25L3.00121 4.25C2.03478 4.25 1.2513 5.03339 1.25121 5.99982L1.2501 17H14.5L14.4999 18.9999C14.4998 19.4553 14.6216 19.8822 14.8343 20.25H3C1.75727 20.25 0.749875 19.2425 0.75 17.9998L0.751206 5.99977Z" fill="black"/>
<path d="M15.4385 20.25C15.7306 20.6144 16.1476 20.8743 16.6245 20.9648C16.6425 20.9683 16.6606 20.9714 16.6788 20.9744C16.6984 20.9775 16.7181 20.9804 16.7378 20.983C16.802 20.9914 16.8672 20.9967 16.9332 20.9989C16.9553 20.9996 16.9775 21 16.9999 21H20.9998C21.0317 21 21.0634 20.9993 21.0949 20.9978C21.1475 20.9953 21.1995 20.9908 21.251 20.9844C22.1702 20.8692 22.8954 20.1301 22.9894 19.2045C22.9963 19.1373 22.9998 19.069 22.9998 19V10C22.9998 8.89975 22.1113 8.007 21.0127 8.00004C21.0084 8.00001 21.0041 8 20.9998 8H17.0003C15.8958 8 15.0004 8.89537 15.0003 9.9999L14.9999 18.9999C14.9998 19.4729 15.164 19.9076 15.4385 20.25Z" fill="black"/>
</svg>
