<svg width="25" height="24" viewBox="0 0 25 24" fill="none" xmlns="http://www.w3.org/2000/svg">
<path d="M0.00120574 5.99967C0.00138599 4.20487 1.45641 2.75 3.25121 2.75L18.2498 2.75C20.0447 2.75 21.4998 4.20508 21.4998 6V6.50879C21.4172 6.50296 21.3338 6.5 21.2498 6.5L18.9998 6.5V6C18.9998 5.58578 18.664 5.25 18.2498 5.25L3.25121 5.25C2.83702 5.25 2.50125 5.58574 2.50121 5.99992L2.5001 17L13.75 17L13.7499 18.9998C13.7498 19.8566 14.0577 20.6416 14.5688 21.25H3.25C1.45495 21.25 -0.000180306 19.7947 1.67577e-08 17.9997L0.00120574 5.99967Z" fill="black"/>
<path d="M21.4998 8.01548C21.4179 8.00526 21.3344 8 21.2498 8L17.2503 8C16.1458 8 15.2504 8.89537 15.2503 9.9999L15.2499 18.9999C15.2498 20.1045 16.1453 21 17.2499 21H21.2498C22.2853 21 23.137 20.213 23.2394 19.2045C23.2463 19.1373 23.2498 19.069 23.2498 19V10C23.2498 8.98011 22.4864 8.13852 21.4998 8.01548Z" fill="black"/>
</svg>
