<svg width="24" height="24" viewBox="0 0 24 24" fill="none" xmlns="http://www.w3.org/2000/svg">
<path d="M0.452148 9.1239L10.7587 22.2413L6.11893 9.24999L0.999905 9.24999C0.803438 9.24999 0.617557 9.20466 0.452148 9.1239Z" fill="black"/>
<path d="M8.77359 9.24999L11.9998 18.2835L15.2261 9.24999L8.77359 9.24999Z" fill="black"/>
<path d="M13.9821 6.74999L10.0176 6.74999L11.9998 4.76777L13.9821 6.74999Z" fill="black"/>
<path d="M17.8807 9.24999L13.241 22.2412L23.5473 9.12406C23.382 9.20472 23.1962 9.24999 22.9999 9.24999H17.8807Z" fill="black"/>
<path d="M23.4094 6.81861C23.2811 6.77414 23.1433 6.74999 22.9999 6.74999H17.5176L12.8837 2.11611C12.7823 2.01466 12.6677 1.93428 12.5455 1.875L17.9998 1.875C18.2982 1.875 18.5843 1.99353 18.7953 2.2045L23.4094 6.81861Z" fill="black"/>
<path d="M6.48208 6.74999L0.999905 6.74999C0.856367 6.74999 0.718479 6.77418 0.590097 6.81872L5.20431 2.2045C5.41529 1.99353 5.70144 1.875 5.9998 1.875L11.4542 1.875C11.332 1.93428 11.2174 2.01466 11.116 2.11611L6.48208 6.74999Z" fill="black"/>
</svg>
