<svg width="24" height="24" viewBox="0 0 24 24" fill="none" xmlns="http://www.w3.org/2000/svg">
<path fill-rule="evenodd" clip-rule="evenodd" d="M22.1768 2.17678C22.2744 2.07915 22.2744 1.92085 22.1768 1.82322C22.0791 1.72559 21.9209 1.72559 21.8232 1.82322L18.8921 4.75435C17.0983 3.04756 14.6715 1.99998 12 1.99998C6.47714 1.99998 1.99999 6.47713 1.99999 12C1.99999 14.6715 3.04757 17.0983 4.75435 18.8921L1.82322 21.8232C1.72559 21.9209 1.72559 22.0791 1.82322 22.1768C1.92086 22.2744 2.07915 22.2744 2.17678 22.1768L5.10791 19.2456C6.90168 20.9524 9.3285 22 12 22C17.5228 22 22 17.5228 22 12C22 9.32849 20.9524 6.90167 19.2457 5.1079L22.1768 2.17678ZM18.5384 5.10802C16.8352 3.49166 14.5334 2.49998 12 2.49998C6.75328 2.49998 2.49999 6.75327 2.49999 12C2.49999 14.5334 3.49167 16.8352 5.10802 18.5384L18.5384 5.10802ZM5.46158 18.892L18.892 5.46157C20.5083 7.16476 21.5 9.46656 21.5 12C21.5 17.2467 17.2467 21.5 12 21.5C9.46657 21.5 7.16477 20.5083 5.46158 18.892Z" fill="black"/>
</svg>
