<svg width="24" height="24" viewBox="0 0 24 24" fill="none" xmlns="http://www.w3.org/2000/svg">
<path fill-rule="evenodd" clip-rule="evenodd" d="M0.249878 8C0.249878 7.96793 0.25183 7.93629 0.255737 7.90527C0.257282 7.89317 0.259464 7.88116 0.261597 7.86914C0.263921 7.85593 0.267379 7.84304 0.270386 7.83008C0.277743 7.7985 0.288219 7.76786 0.299683 7.73731C0.306393 7.71942 0.31316 7.70177 0.321167 7.68457C0.331284 7.66281 0.343056 7.64197 0.355347 7.62109C0.365109 7.60452 0.374651 7.58799 0.38562 7.57227C0.410598 7.53647 0.437779 7.50155 0.469604 7.46973L5.4696 2.46973C5.61025 2.32908 5.80097 2.25 5.99988 2.25L17.9999 2.25C18.1988 2.25 18.3895 2.32908 18.5302 2.46973L23.5302 7.46973C23.5821 7.52171 23.6231 7.58307 23.6581 7.64844C23.6672 7.66551 23.6777 7.68162 23.6854 7.69922C23.6949 7.72069 23.7014 7.74315 23.7089 7.76562C23.7166 7.78902 23.725 7.81199 23.7303 7.83594C23.7382 7.87098 23.7442 7.90666 23.7469 7.94336C23.7477 7.95279 23.7476 7.96223 23.7479 7.97168C23.7483 7.98109 23.7499 7.9905 23.7499 8C23.7499 8.02807 23.748 8.05574 23.745 8.08301C23.7443 8.08891 23.7429 8.0947 23.7421 8.10059C23.7383 8.12896 23.7314 8.15632 23.7245 8.18359C23.7184 8.20746 23.7105 8.23057 23.702 8.25391C23.6941 8.2758 23.6865 8.29746 23.6766 8.31836C23.666 8.34083 23.6535 8.36219 23.6405 8.38379C23.6289 8.4031 23.6176 8.4223 23.6044 8.44043C23.5991 8.44762 23.5953 8.45584 23.5897 8.46289L12.5897 22.4629C12.4475 22.6439 12.23 22.75 11.9999 22.75C11.7697 22.75 11.5522 22.6439 11.41 22.4629L0.410034 8.46289L0.394409 8.44043C0.381209 8.42231 0.369842 8.40309 0.358276 8.38379L0.333862 8.3457C0.328802 8.33597 0.325768 8.32532 0.321167 8.31543C0.313415 8.29878 0.30622 8.28194 0.299683 8.26465C0.289229 8.23698 0.280359 8.2091 0.273315 8.18067C0.269472 8.16515 0.265435 8.14967 0.262573 8.13379C0.260985 8.12498 0.25896 8.11627 0.25769 8.10742C0.252657 8.07234 0.249878 8.03648 0.249878 8ZM12.7499 19.832L21.4569 8.75H12.7499L12.7499 19.832ZM12.7499 7.25H21.1884L17.6893 3.75L12.7499 3.75V7.25ZM11.2499 19.833L11.2499 8.75H2.54089L11.2499 19.833ZM11.2499 7.25V3.75L6.31042 3.75L2.81042 7.25H11.2499Z" fill="black"/>
</svg>
