<svg width="24" height="24" viewBox="0 0 24 24" fill="none" xmlns="http://www.w3.org/2000/svg">
<path fill-rule="evenodd" clip-rule="evenodd" d="M0.803422 8.15446C0.725237 8.05495 0.733741 7.91271 0.823225 7.82322L5.82323 2.82322C5.87011 2.77634 5.9337 2.75 6 2.75L18 2.75C18.0663 2.75 18.1299 2.77634 18.1768 2.82322L23.1726 7.81908C23.2204 7.8646 23.2501 7.92883 23.2501 7.99999C23.2501 8.06049 23.2286 8.11597 23.1928 8.15921L12.1966 22.1545C12.1492 22.2148 12.0767 22.25 12 22.25C11.9233 22.25 11.8508 22.2148 11.8034 22.1545L0.803422 8.15446ZM22.3964 7.74999L17.8964 3.25L12.6036 3.25L17.1036 7.74999H22.3964ZM17.1758 8.24999H22.4856L12.6922 20.7144L17.1758 8.24999ZM16.3965 7.74999L12 3.35356L7.60359 7.74999L16.3965 7.74999ZM7.35563 8.24999L16.6444 8.24999L12 21.1614L7.35563 8.24999ZM6.89648 7.74999L11.3965 3.25L6.10356 3.25L1.60356 7.74999L6.89648 7.74999ZM1.51436 8.24999L6.82427 8.24999L11.3079 20.7145L1.51436 8.24999Z" fill="black"/>
</svg>
