<svg width="24" height="24" viewBox="0 0 24 24" fill="none" xmlns="http://www.w3.org/2000/svg">
<path d="M0.646451 7.64645C0.467481 7.82541 0.450474 8.10989 0.606845 8.30891L11.605 22.3066C11.5731 22.2655 11.5473 22.219 11.5292 22.1682L6.64767 8.49999L1.0001 8.49999C0.723958 8.49999 0.5001 8.27613 0.5001 7.99999C0.5001 7.72385 0.723958 7.49999 1.0001 7.49999L6.79293 7.49999L11.6465 2.64645C11.8417 2.45119 12.1583 2.45119 12.3536 2.64645L17.2071 7.49999H23.0001C23.1351 7.49999 23.2576 7.5535 23.3476 7.64046L18.3536 2.64645C18.2598 2.55268 18.1326 2.5 18 2.5L6 2.5C5.8674 2.5 5.74022 2.55268 5.64645 2.64645L0.646451 7.64645Z" fill="black"/>
<path d="M23.3875 8.31612C23.2958 8.42835 23.1563 8.49999 23.0001 8.49999H17.3524L12.4709 22.1682C12.4532 22.2176 12.4284 22.2629 12.3977 22.3032L23.3875 8.31612Z" fill="black"/>
<path d="M15.7929 7.49999L12 3.70711L8.20715 7.49999L15.7929 7.49999Z" fill="black"/>
<path d="M7.70953 8.49999L16.2905 8.49999L12 20.5134L7.70953 8.49999Z" fill="black"/>
</svg>
