<svg width="24" height="24" viewBox="0 0 24 24" fill="none" xmlns="http://www.w3.org/2000/svg">
<path fill-rule="evenodd" clip-rule="evenodd" d="M0.0892973 7.58656C0.137718 7.47983 0.205696 7.3801 0.292901 7.29289L5.2929 2.29289C5.48044 2.10536 5.73479 2 6.00001 2L18 2C18.2652 2 18.5196 2.10536 18.7071 2.29289L23.6988 7.28458C23.8847 7.46616 24.0001 7.7196 24.0001 7.99999C24.0001 8.2383 23.9167 8.45714 23.7776 8.62894L12.7941 22.6079C12.6083 22.8506 12.317 23 12 23C11.8242 23 11.6563 22.954 11.5099 22.8717C11.4361 22.8302 11.3675 22.7793 11.3059 22.7199C11.2708 22.6861 11.2381 22.6496 11.2081 22.6108L0.21369 8.61782C0.171396 8.56399 0.135443 8.50704 0.105776 8.4479C0.0705349 8.37767 0.0433224 8.30272 0.0253426 8.22425C-0.000596872 8.11121 -0.00655281 7.99486 0.00714929 7.88064C0.0194865 7.77691 0.0477025 7.67805 0.0892973 7.58656ZM3.05747 8.99999L8.99351 16.555L6.29531 8.99999H3.05747ZM6.58583 6.99999H3.41423L6.41422 4H9.58582L6.58583 6.99999ZM8.41903 8.99999L12 19.0268L15.581 8.99999L8.41903 8.99999ZM14.5858 6.99999L9.41425 6.99999L12 4.41422L14.5858 6.99999ZM17.7048 8.99999L15.0066 16.5549L20.9425 8.99999H17.7048ZM20.5858 6.99999H17.4142L14.4142 4L17.5858 4L20.5858 6.99999Z" fill="black"/>
</svg>
