<svg width="24" height="24" viewBox="0 0 24 24" fill="none" xmlns="http://www.w3.org/2000/svg">
<path d="M22.7071 1.29289C23.0976 1.68342 23.0976 2.31658 22.7071 2.70711L20.8082 4.60598C20.3786 4.09471 19.9053 3.62139 19.394 3.19176L21.2929 1.29289C21.6834 0.902369 22.3166 0.902369 22.7071 1.29289Z" fill="black"/>
<path fill-rule="evenodd" clip-rule="evenodd" d="M19.743 5.67125C19.3198 5.15414 18.8459 4.6802 18.3288 4.25703C16.6049 2.84634 14.4013 1.99998 12 1.99998C6.47714 1.99998 1.99998 6.47713 1.99998 12C1.99998 17.5228 6.47714 22 12 22C17.5228 22 22 17.5228 22 12C22 9.59872 21.1536 7.39512 19.743 5.67125ZM16.9056 5.68014C15.551 4.62707 13.8487 3.99998 12 3.99998C7.58171 3.99998 3.99998 7.5817 3.99998 12C3.99998 13.8487 4.62707 15.551 5.68014 16.9056L16.9056 5.68014ZM7.09436 18.3199L18.3199 7.09436C19.3729 8.44904 20 10.1513 20 12C20 16.4183 16.4183 20 12 20C10.1513 20 8.44904 19.3729 7.09436 18.3199Z" fill="black"/>
<path d="M4.60601 20.8082C4.09475 20.3786 3.62143 19.9053 3.1918 19.394L1.29289 21.2929C0.902369 21.6834 0.902369 22.3166 1.29289 22.7071C1.68342 23.0976 2.31658 23.0976 2.70711 22.7071L4.60601 20.8082Z" fill="black"/>
</svg>
