<svg width="24" height="24" viewBox="0 0 24 24" fill="none" xmlns="http://www.w3.org/2000/svg">
<path fill-rule="evenodd" clip-rule="evenodd" d="M0.752808 7.96973C0.753158 7.96684 0.752357 7.96381 0.752808 7.96094C0.756009 7.94051 0.761578 7.92081 0.769409 7.90234L0.776245 7.88867L0.779175 7.88379C0.790933 7.86149 0.805459 7.84091 0.82312 7.82324L5.82312 2.82324C5.87 2.77636 5.93357 2.75 5.99988 2.75L17.9999 2.75C18.0662 2.75 18.1298 2.77636 18.1766 2.82324L23.1766 7.82324C23.2046 7.85123 23.2249 7.88613 23.2372 7.9248C23.2392 7.93132 23.2415 7.9377 23.243 7.94434C23.2453 7.95421 23.2459 7.96433 23.2469 7.97461C23.2474 7.97951 23.2477 7.98434 23.2479 7.98926C23.2481 7.99284 23.2499 7.99638 23.2499 8C23.2499 8.00628 23.2484 8.0124 23.2479 8.01855C23.2474 8.0251 23.247 8.03159 23.246 8.03809C23.2446 8.04671 23.2433 8.05517 23.2411 8.06348C23.2392 8.07073 23.2368 8.07786 23.2343 8.08496C23.2313 8.09298 23.2282 8.10078 23.2245 8.1084C23.2214 8.11481 23.2174 8.12076 23.2137 8.12695C23.2095 8.13407 23.205 8.14082 23.2001 8.14746C23.1985 8.14955 23.1978 8.15224 23.1962 8.1543L12.1962 22.1543C12.1488 22.2146 12.0766 22.25 11.9999 22.25C11.9232 22.25 11.851 22.2146 11.8036 22.1543L0.803589 8.1543L0.798706 8.14746C0.793843 8.14084 0.789238 8.13405 0.785034 8.12695L0.778198 8.11524L0.769409 8.09766C0.756699 8.06769 0.749879 8.0346 0.749878 8C0.749878 7.98972 0.751601 7.97969 0.752808 7.96973ZM22.4852 8.25L12.2499 8.25L12.2499 21.2783L22.4852 8.25ZM22.3954 7.75L17.8964 3.25L12.2499 3.25V7.75L22.3954 7.75ZM11.7499 7.75V3.25L6.10339 3.25L1.60339 7.75L11.7499 7.75ZM11.7499 21.2783L11.7499 8.25L1.51257 8.25L11.7499 21.2783Z" fill="black"/>
</svg>
