<svg width="24" height="24" viewBox="0 0 24 24" fill="none" xmlns="http://www.w3.org/2000/svg">
<path d="M0.823225 7.82322C0.733741 7.91271 0.725237 8.05495 0.803422 8.15445L11.7296 22.0605L6.80622 8.27499L1.00009 8.27499V7.72499L6.88612 7.72499L11.8056 2.80555C11.8294 2.78177 11.8564 2.76325 11.8853 2.75L6 2.75C5.9337 2.75 5.87011 2.77634 5.82323 2.82322L0.823225 7.82322Z" fill="black"/>
<path d="M7.39025 8.27499L12 21.1824L16.6098 8.27499L7.39025 8.27499Z" fill="black"/>
<path d="M16.3361 7.72499L7.66394 7.72499L12 3.38891L16.3361 7.72499Z" fill="black"/>
<path d="M17.1938 8.27499L12.2705 22.0604L23.1257 8.24472C23.088 8.26407 23.0453 8.27499 23.0001 8.27499H17.1938Z" fill="black"/>
<path d="M23.0956 7.74202C23.0658 7.73101 23.0337 7.72499 23.0001 7.72499H17.1139L12.1945 2.80555C12.1707 2.78177 12.1436 2.76325 12.1148 2.75L18 2.75C18.0663 2.75 18.1299 2.77634 18.1768 2.82322L23.0956 7.74202Z" fill="black"/>
</svg>
