<svg width="24" height="24" viewBox="0 0 24 24" fill="none" xmlns="http://www.w3.org/2000/svg">
<path d="M22.5303 1.46967C22.8232 1.76256 22.8232 2.23744 22.5303 2.53033L20.6449 4.41579C20.3147 4.0397 19.9603 3.68534 19.5842 3.35513L21.4697 1.46967C21.7626 1.17678 22.2374 1.17678 22.5303 1.46967Z" fill="black"/>
<path fill-rule="evenodd" clip-rule="evenodd" d="M19.5816 5.47904C19.255 5.09963 18.9004 4.745 18.521 4.41838C16.7701 2.91111 14.4915 1.99998 12 1.99998C6.47714 1.99998 1.99998 6.47713 1.99998 12C1.99998 17.5228 6.47714 22 12 22C17.5228 22 22 17.5228 22 12C22 9.50852 21.0889 7.22985 19.5816 5.47904ZM17.4568 5.48256C15.9803 4.24507 14.0772 3.49998 12 3.49998C7.30556 3.49998 3.49998 7.30556 3.49998 12C3.49998 14.0772 4.24507 15.9803 5.48256 17.4568L17.4568 5.48256ZM6.54322 18.5174L18.5174 6.54322C19.7549 8.01967 20.5 9.92281 20.5 12C20.5 16.6944 16.6944 20.5 12 20.5C9.92282 20.5 8.01967 19.7549 6.54322 18.5174Z" fill="black"/>
<path d="M4.41583 20.6448C4.03974 20.3146 3.68538 19.9603 3.35516 19.5842L1.46967 21.4697C1.17678 21.7626 1.17678 22.2374 1.46967 22.5303C1.76256 22.8232 2.23744 22.8232 2.53033 22.5303L4.41583 20.6448Z" fill="black"/>
</svg>
