<svg width="25" height="24" viewBox="0 0 25 24" fill="none" xmlns="http://www.w3.org/2000/svg">
<path fill-rule="evenodd" clip-rule="evenodd" d="M0.00195312 7.95508C0.00258484 7.93747 0.00351087 7.91991 0.00488281 7.90234C0.00630071 7.88401 0.00756502 7.86576 0.00976562 7.84766C0.012488 7.8254 0.016592 7.80335 0.0205078 7.78125C0.0238661 7.76224 0.0270431 7.74331 0.03125 7.72461C0.0354619 7.7059 0.0408211 7.68748 0.0458984 7.66895C0.0511231 7.6499 0.0564081 7.63098 0.0625 7.61231C0.0683943 7.5942 0.0752945 7.57646 0.0820312 7.55859C0.0892386 7.53953 0.0963926 7.52056 0.104492 7.50195C0.128838 7.44587 0.157566 7.3915 0.19043 7.33887C0.220118 7.29138 0.251504 7.24508 0.287109 7.20215C0.311763 7.17244 0.338424 7.144 0.366211 7.11621L5.36621 2.11621C5.60063 1.88179 5.91848 1.75 6.25 1.75L18.25 1.75C18.5815 1.75 18.8994 1.88179 19.1338 2.11621L24.1338 7.11621C24.2887 7.27112 24.4013 7.4669 24.458 7.68555C24.4611 7.69757 24.464 7.70958 24.4668 7.72168C24.4713 7.74138 24.475 7.76121 24.4785 7.78125C24.4824 7.80337 24.4865 7.82538 24.4893 7.84766C24.4915 7.86578 24.4927 7.88399 24.4941 7.90234C24.4955 7.91992 24.4964 7.93746 24.4971 7.95508C24.4976 7.97001 24.5 7.98494 24.5 8C24.5 8.00784 24.4982 8.01563 24.498 8.02344C24.4976 8.04758 24.496 8.0716 24.4941 8.0957C24.4931 8.10911 24.4926 8.12246 24.4912 8.13574C24.4889 8.1573 24.4859 8.17874 24.4824 8.20019C24.4681 8.28931 24.4452 8.37527 24.4131 8.45703C24.4105 8.46355 24.408 8.47007 24.4053 8.47656C24.3635 8.57777 24.3087 8.67203 24.2432 8.75781C24.2395 8.76262 24.2362 8.76769 24.2324 8.77246L13.2324 22.7725C12.9954 23.0739 12.6334 23.25 12.25 23.25C11.8666 23.25 11.5046 23.0739 11.2676 22.7725L0.267578 8.77246C0.260519 8.76348 0.253847 8.75424 0.24707 8.74512C0.233005 8.72621 0.219056 8.70721 0.206055 8.6875C0.194667 8.67023 0.184264 8.65243 0.173828 8.63477C0.164342 8.61872 0.155263 8.60244 0.146484 8.58594C0.0959891 8.49096 0.0593826 8.3911 0.0351563 8.28906C0.0282189 8.2598 0.0224173 8.23022 0.0175781 8.2002C0.0141 8.17871 0.0101621 8.15734 0.00781251 8.13574C0.00637881 8.12247 0.00589779 8.1091 0.00488282 8.0957C0.00304036 8.07162 0.0014258 8.04756 0.000976564 8.02344C0.000833014 8.01564 5.88145e-08 8.00783 0 8C0 7.98495 0.00142584 7.97 0.00195312 7.95508ZM13.5 18.3867L20.6787 9.25H13.5V18.3867ZM13.5 6.75H20.2314L17.7324 4.25L13.5 4.25V6.75ZM11 18.3867V9.25H3.81934L11 18.3867ZM11 6.75V4.25L6.76758 4.25L4.26758 6.75H11Z" fill="black"/>
</svg>
