<svg width="24" height="24" viewBox="0 0 24 24" fill="none" xmlns="http://www.w3.org/2000/svg">
<path d="M22.8839 1.11612C23.372 1.60427 23.372 2.39573 22.8839 2.88388L20.9677 4.80003C20.4442 4.14879 19.8512 3.55579 19.2 3.03226L21.1161 1.11612C21.6043 0.627961 22.3957 0.627961 22.8839 1.11612Z" fill="black"/>
<path fill-rule="evenodd" clip-rule="evenodd" d="M19.8998 5.86793C19.3866 5.20765 18.7924 4.61342 18.1321 4.10016C16.4387 2.78382 14.3109 1.99998 12 1.99998C6.47714 1.99998 1.99999 6.47713 1.99999 12C1.99999 17.5228 6.47714 22 12 22C17.5228 22 22 17.5228 22 12C22 9.6891 21.2162 7.56128 19.8998 5.86793ZM16.3457 5.88656C15.1196 5.01347 13.6198 4.49998 12 4.49998C7.85785 4.49998 4.49999 7.85784 4.49999 12C4.49999 13.6198 5.01348 15.1196 5.88657 16.3457L16.3457 5.88656ZM7.65434 18.1134L18.1134 7.65433C18.9865 8.88035 19.5 10.3802 19.5 12C19.5 16.1421 16.1421 19.5 12 19.5C10.3802 19.5 8.88036 18.9865 7.65434 18.1134Z" fill="black"/>
<path d="M4.80007 20.9677C4.14883 20.4442 3.55582 19.8512 3.03229 19.1999L1.11612 21.1161C0.627961 21.6043 0.627962 22.3957 1.11612 22.8839C1.60427 23.372 2.39573 23.372 2.88388 22.8839L4.80007 20.9677Z" fill="black"/>
</svg>
