<svg width="24" height="24" viewBox="0 0 24 24" fill="none" xmlns="http://www.w3.org/2000/svg">
<path fill-rule="evenodd" clip-rule="evenodd" d="M0.000976561 7.96484C0.00146062 7.95116 0.00188726 7.93748 0.00292968 7.92383C0.00359302 7.91502 0.00399273 7.90621 0.00488281 7.89746L0.0107422 7.85254C0.0122059 7.8427 0.0148446 7.83305 0.0166016 7.82324C0.0191695 7.80886 0.021238 7.79444 0.0244141 7.78027C0.027509 7.76649 0.031475 7.75292 0.0351562 7.73926C0.039651 7.72258 0.0435046 7.70577 0.0488281 7.68945C0.0543417 7.67253 0.0619263 7.65631 0.0683594 7.63965C0.0730174 7.62761 0.076926 7.61532 0.0820312 7.60352C0.102504 7.55606 0.127194 7.51018 0.155273 7.46582C0.161223 7.45643 0.166601 7.44668 0.172852 7.4375C0.207632 7.38642 0.247842 7.3381 0.292969 7.29297L5.29297 2.29297C5.4805 2.10543 5.73479 2 6 2L18 2C18.2652 2 18.5195 2.10543 18.707 2.29297L23.707 7.29297C23.7294 7.31533 23.7507 7.33838 23.7705 7.3623L23.8291 7.44043C23.8747 7.50782 23.9112 7.58145 23.9395 7.65918C23.9429 7.66858 23.9461 7.67801 23.9492 7.6875C23.9548 7.7045 23.9592 7.72186 23.9639 7.73926C23.9676 7.75293 23.9715 7.76648 23.9746 7.78027C23.9778 7.79445 23.9798 7.80884 23.9824 7.82324C23.9855 7.8405 23.989 7.85762 23.9912 7.875C23.9932 7.89118 23.9949 7.90742 23.9961 7.92383C23.9971 7.93749 23.9976 7.95115 23.998 7.96484C23.9985 7.97653 24 7.98822 24 8C24 8.00752 23.9982 8.01498 23.998 8.02246C23.9978 8.03257 23.9976 8.04263 23.9971 8.05273C23.996 8.07308 23.9954 8.09328 23.9932 8.11328C23.9906 8.13619 23.9866 8.1589 23.9824 8.18164C23.9811 8.18882 23.98 8.196 23.9785 8.20312C23.9661 8.26315 23.9484 8.32234 23.9248 8.37988C23.9175 8.39773 23.9097 8.41531 23.9014 8.43262C23.8954 8.44505 23.8893 8.45748 23.8828 8.46973C23.8762 8.48211 23.8684 8.49379 23.8613 8.50586C23.8523 8.52115 23.8439 8.53683 23.834 8.55176C23.8268 8.56262 23.8182 8.57245 23.8105 8.58301C23.8022 8.59454 23.795 8.6069 23.7861 8.61816L12.7861 22.6182C12.5965 22.8593 12.3067 23 12 23C11.6933 23 11.4035 22.8593 11.2139 22.6182L0.213867 8.61817C0.204895 8.60675 0.196879 8.5947 0.188477 8.58301C0.181145 8.57282 0.172969 8.56321 0.166016 8.55274C0.151318 8.53058 0.138711 8.50733 0.125977 8.48438C0.123354 8.47965 0.119736 8.47547 0.117188 8.4707C0.0716952 8.38545 0.039524 8.29522 0.0205078 8.20313C0.0190399 8.19601 0.0179174 8.18881 0.0166016 8.18164C0.012426 8.15892 0.00844858 8.13617 0.00585938 8.11328C0.0036078 8.0933 0.00300948 8.07305 0.00195313 8.05274C0.00142605 8.04264 0.00119876 8.03256 0.000976563 8.02246C0.00081173 8.01499 7.04113e-08 8.00751 0 8C0 7.98823 0.000573385 7.97651 0.000976561 7.96484ZM13 19.1094L20.9414 9H13L13 19.1094ZM13 7H20.585L17.5859 4L13 4V7ZM11 19.1094L11 9H3.05664L11 19.1094ZM11 7V4L6.41406 4L3.41406 7H11Z" fill="black"/>
</svg>
