<svg width="24" height="24" viewBox="0 0 24 24" fill="none" xmlns="http://www.w3.org/2000/svg">
<path d="M22.499 6.5C23.0513 6.50004 23.499 6.94774 23.499 7.5V15.5C23.499 16.0522 23.0512 16.5 22.499 16.5C21.9468 16.5 21.4991 16.0522 21.499 15.5V12.3672H2.49902V15.5C2.49898 16.0522 2.05125 16.5 1.49902 16.5C0.946765 16.5 0.499067 16.0522 0.499023 15.5V7.5C0.499023 6.94772 0.946739 6.5 1.49902 6.5C2.05127 6.50004 2.49902 6.94774 2.49902 7.5V10.3672H21.499V7.5C21.499 6.94772 21.9467 6.5 22.499 6.5Z" fill="black"/>
</svg>
