<svg width="24" height="24" viewBox="0 0 24 24" fill="none" xmlns="http://www.w3.org/2000/svg">
<path d="M15.999 0.250977C16.4132 0.250977 16.749 0.586763 16.749 1.00098C16.7488 1.41497 16.4131 1.75098 15.999 1.75098H12.8809V21.251H15.999C16.4132 21.251 16.749 21.5868 16.749 22.001C16.7488 22.415 16.4131 22.751 15.999 22.751L7.99902 22.75C7.58481 22.75 7.24902 22.4142 7.24902 22C7.24929 21.586 7.58497 21.25 7.99902 21.25H11.3809V1.75H7.99902C7.58481 1.75 7.24902 1.41421 7.24902 1C7.24929 0.586011 7.58497 0.25 7.99902 0.25L15.999 0.250977Z" fill="black"/>
</svg>
