<svg width="24" height="24" viewBox="0 0 24 24" fill="none" xmlns="http://www.w3.org/2000/svg">
<path d="M22.499 6.75C22.9132 6.75004 23.249 7.08581 23.249 7.5V15.5C23.249 15.9142 22.9132 16.25 22.499 16.25C22.0848 16.25 21.7491 15.9142 21.749 15.5V12.1182H2.24902V15.5C2.24898 15.9142 1.91318 16.25 1.49902 16.25C1.08484 16.25 0.749067 15.9142 0.749023 15.5V7.5C0.749023 7.08579 1.08481 6.75 1.49902 6.75C1.9132 6.75004 2.24902 7.08581 2.24902 7.5V10.6182H21.749V7.5C21.749 7.08579 22.0848 6.75 22.499 6.75Z" fill="black"/>
</svg>
