<svg width="24" height="25" viewBox="0 0 24 25" fill="none" xmlns="http://www.w3.org/2000/svg">
<path d="M16.0015 0.000976562C16.6918 0.000976623 17.2515 0.560621 17.2515 1.25098C17.2512 1.94111 16.6917 2.50098 16.0015 2.50098H13.3843V21.001H16.0015C16.6918 21.001 17.2515 21.5606 17.2515 22.251C17.2512 22.9411 16.6917 23.501 16.0015 23.501L8.00146 23.5C7.31111 23.5 6.75147 22.9404 6.75146 22.25C6.75173 21.5599 7.31127 21 8.00146 21H10.8843V2.5H8.00146C7.31111 2.5 6.75147 1.94036 6.75146 1.25C6.75173 0.559869 7.31127 4.84285e-07 8.00146 0L16.0015 0.000976562Z" fill="black"/>
</svg>
