<svg width="24" height="24" viewBox="0 0 24 24" fill="none" xmlns="http://www.w3.org/2000/svg">
<path d="M22.499 6.25C23.1893 6.25005 23.749 6.80968 23.749 7.5V15.5C23.749 16.1903 23.1893 16.7499 22.499 16.75C21.8087 16.75 21.2491 16.1903 21.249 15.5V12.6172H2.74902V15.5C2.74896 16.1903 2.1893 16.7499 1.49902 16.75C0.808705 16.75 0.249085 16.1903 0.249023 15.5V7.5C0.249023 6.80964 0.808667 6.25 1.49902 6.25C2.18933 6.25005 2.74902 6.80968 2.74902 7.5V10.1172H21.249V7.5C21.249 6.80964 21.8087 6.25 22.499 6.25Z" fill="black"/>
</svg>
