<svg width="24" height="24" viewBox="0 0 24 24" fill="none" xmlns="http://www.w3.org/2000/svg">
<path fill-rule="evenodd" clip-rule="evenodd" d="M12.4039 3.75C11.7013 3.75 11.1072 4.27012 11.0144 4.96656L10.9195 5.67784C10.36 9.87405 10.36 14.126 10.9195 18.3222L11.0144 19.0334C11.1072 19.7299 11.7013 20.25 12.4039 20.25H15.3332C19.8896 20.25 23.5832 16.5563 23.5832 12C23.5832 7.44365 19.8896 3.75 15.3332 3.75H12.4039ZM12.4064 5.87608L12.4899 5.25H15.3332C19.0611 5.25 22.0832 8.27208 22.0832 12C22.0832 15.7279 19.0611 18.75 15.3332 18.75H12.4899L12.4064 18.1239C11.8644 14.0593 11.8644 9.94071 12.4064 5.87608Z" fill="black"/>
<path d="M8.17074 5.66459C8.35598 6.03507 8.20581 6.48558 7.83533 6.67082L1.83533 9.67082C1.46485 9.85606 1.01434 9.70589 0.8291 9.33541C0.643858 8.96493 0.794026 8.51442 1.16451 8.32918L7.16451 5.32918C7.53499 5.14394 7.9855 5.29411 8.17074 5.66459Z" fill="black"/>
<path d="M8.17074 9.66459C8.35598 10.0351 8.20581 10.4856 7.83533 10.6708L1.83533 13.6708C1.46485 13.8561 1.01434 13.7059 0.8291 13.3354C0.643858 12.9649 0.794026 12.5144 1.16451 12.3292L7.16451 9.32918C7.53499 9.14394 7.9855 9.29411 8.17074 9.66459Z" fill="black"/>
<path d="M7.83533 14.6708C8.20581 14.4856 8.35598 14.0351 8.17074 13.6646C7.9855 13.2941 7.53499 13.1439 7.16451 13.3292L1.16451 16.3292C0.794026 16.5144 0.643858 16.9649 0.8291 17.3354C1.01434 17.7059 1.46485 17.8561 1.83533 17.6708L7.83533 14.6708Z" fill="black"/>
<path d="M8.17074 17.6646C8.35598 18.0351 8.20581 18.4856 7.83533 18.6708L1.83533 21.6708C1.46485 21.8561 1.01434 21.7059 0.8291 21.3354C0.643858 20.9649 0.794026 20.5144 1.16451 20.3292L7.16451 17.3292C7.53499 17.1439 7.9855 17.2941 8.17074 17.6646Z" fill="black"/>
</svg>
