<svg width="25" height="24" viewBox="0 0 25 24" fill="none" xmlns="http://www.w3.org/2000/svg">
<path d="M10.5188 4.90048C10.6448 3.95564 11.4508 3.25 12.404 3.25H15.3333C20.1658 3.25 24.0833 7.16751 24.0833 12C24.0833 16.8325 20.1658 20.75 15.3333 20.75H12.404C11.4508 20.75 10.6448 20.0444 10.5188 19.0995L10.424 18.3882C9.85867 14.1482 9.85867 9.85182 10.424 5.61176L10.5188 4.90048Z" fill="black"/>
<path d="M8.50623 5.49688C8.7841 6.05261 8.55884 6.72837 8.00312 7.00623L2.00312 10.0062C1.44739 10.2841 0.771635 10.0588 0.493772 9.50312C0.215909 8.94739 0.441161 8.27163 0.996887 7.99377L6.99689 4.99377C7.55261 4.71591 8.22837 4.94116 8.50623 5.49688Z" fill="black"/>
<path d="M8.50623 9.49688C8.7841 10.0526 8.55884 10.7284 8.00312 11.0062L2.00312 14.0062C1.44739 14.2841 0.771635 14.0588 0.493772 13.5031C0.215909 12.9474 0.441161 12.2716 0.996887 11.9938L6.99689 8.99377C7.55261 8.71591 8.22837 8.94116 8.50623 9.49688Z" fill="black"/>
<path d="M8.00312 15.0062C8.55884 14.7284 8.7841 14.0526 8.50623 13.4969C8.22837 12.9412 7.55261 12.7159 6.99689 12.9938L0.996887 15.9938C0.441161 16.2716 0.215909 16.9474 0.493772 17.5031C0.771635 18.0588 1.44739 18.2841 2.00312 18.0062L8.00312 15.0062Z" fill="black"/>
<path d="M8.50623 17.4969C8.7841 18.0526 8.55884 18.7284 8.00312 19.0062L2.00312 22.0062C1.44739 22.2841 0.771635 22.0588 0.493772 21.5031C0.215909 20.9474 0.441161 20.2716 0.996887 19.9938L6.99689 16.9938C7.55261 16.7159 8.22837 16.9412 8.50623 17.4969Z" fill="black"/>
</svg>
