<svg width="24" height="24" viewBox="0 0 24 24" fill="none" xmlns="http://www.w3.org/2000/svg">
<path fill-rule="evenodd" clip-rule="evenodd" d="M24 12C24 18.6274 18.6274 24 12 24C5.37258 24 0 18.6274 0 12C0 5.37258 5.37258 0 12 0C18.6274 0 24 5.37258 24 12ZM21.5 12C21.5 17.2467 17.2467 21.5 12 21.5C9.8271 21.5 7.82459 20.7705 6.22402 19.543L19.543 6.22402C20.7705 7.82459 21.5 9.8271 21.5 12ZM4.45635 17.7752L17.7752 4.45635C16.1747 3.22926 14.1725 2.5 12 2.5C6.75329 2.5 2.5 6.75329 2.5 12C2.5 14.1725 3.22926 16.1747 4.45635 17.7752Z" fill="black"/>
</svg>
