<svg width="24" height="24" viewBox="0 0 24 24" fill="none" xmlns="http://www.w3.org/2000/svg">
<path fill-rule="evenodd" clip-rule="evenodd" d="M24 12C24 18.6274 18.6274 24 12 24C5.37258 24 0 18.6274 0 12C0 5.37258 5.37258 0 12 0C18.6274 0 24 5.37258 24 12ZM22 12C22 17.5228 17.5228 22 12 22C9.59867 22 7.39503 21.1536 5.67114 19.7428L19.7428 5.67114C21.1536 7.39503 22 9.59867 22 12ZM4.25695 18.3286L18.3286 4.25695C16.6047 2.84632 14.4012 2 12 2C6.47715 2 2 6.47715 2 12C2 14.4012 2.84632 16.6047 4.25695 18.3286Z" fill="black"/>
</svg>
