<svg width="24" height="24" viewBox="0 0 24 24" fill="none" xmlns="http://www.w3.org/2000/svg">
<path fill-rule="evenodd" clip-rule="evenodd" d="M0.248657 6C0.248657 4.75736 1.25602 3.75 2.49866 3.75H21.4987C22.7413 3.75 23.7487 4.75736 23.7487 6V7.88628C23.7487 8.62773 23.4375 9.33514 22.8909 9.83615C21.6217 10.9996 21.6217 13.0004 22.8909 14.1638C23.4375 14.6649 23.7487 15.3723 23.7487 16.1137V18C23.7487 19.2426 22.7413 20.25 21.4987 20.25H2.49866C1.25602 20.25 0.248657 19.2426 0.248657 18V16.1137C0.248657 15.3723 0.559848 14.6649 1.10641 14.1638C2.37559 13.0004 2.37559 10.9996 1.10641 9.83615C0.559848 9.33514 0.248657 8.62773 0.248657 7.88628V6ZM16.519 9.49912C17.0071 9.01096 17.0071 8.21951 16.519 7.73135C16.0308 7.2432 15.2393 7.2432 14.7512 7.73135L7.98196 14.5006C7.49381 14.9887 7.49381 15.7802 7.98196 16.2683C8.47012 16.7565 9.26157 16.7565 9.74973 16.2683L16.519 9.49912ZM9.48303 10.7305C10.3115 10.7305 10.983 10.0589 10.983 9.23047C10.983 8.40204 10.3115 7.73047 9.48303 7.73047C8.6546 7.73047 7.98303 8.40204 7.98303 9.23047C7.98303 10.0589 8.6546 10.7305 9.48303 10.7305ZM16.5221 14.769C16.5221 15.5975 15.8505 16.269 15.0221 16.269C14.1937 16.269 13.5221 15.5975 13.5221 14.769C13.5221 13.9406 14.1937 13.269 15.0221 13.269C15.8505 13.269 16.5221 13.9406 16.5221 14.769Z" fill="black"/>
</svg>
