<svg width="24" height="24" viewBox="0 0 24 24" fill="none" xmlns="http://www.w3.org/2000/svg">
<path d="M15.8119 8.79201C15.9095 8.69438 15.9095 8.53609 15.8119 8.43846C15.7142 8.34083 15.5559 8.34083 15.4583 8.43846L8.68907 15.2077C8.59144 15.3053 8.59144 15.4636 8.68907 15.5612C8.7867 15.6589 8.94499 15.6589 9.04262 15.5612L15.8119 8.79201Z" fill="black"/>
<path d="M9.48303 9.73047C9.75917 9.73047 9.98303 9.50661 9.98303 9.23047C9.98303 8.95433 9.75917 8.73047 9.48303 8.73047C9.20689 8.73047 8.98303 8.95433 8.98303 9.23047C8.98303 9.50661 9.20689 9.73047 9.48303 9.73047Z" fill="black"/>
<path d="M15.5221 14.769C15.5221 15.0452 15.2982 15.269 15.0221 15.269C14.746 15.269 14.5221 15.0452 14.5221 14.769C14.5221 14.4929 14.746 14.269 15.0221 14.269C15.2982 14.269 15.5221 14.4929 15.5221 14.769Z" fill="black"/>
<path fill-rule="evenodd" clip-rule="evenodd" d="M2.49866 4.75C1.8083 4.75 1.24866 5.30964 1.24866 6V7.88628C1.24866 8.34742 1.4422 8.78739 1.78213 9.099C3.48368 10.6587 3.48368 13.3413 1.78213 14.901C1.4422 15.2126 1.24866 15.6526 1.24866 16.1137V18C1.24866 18.6904 1.8083 19.25 2.49866 19.25H21.4987C22.189 19.25 22.7487 18.6904 22.7487 18V16.1137C22.7487 15.6526 22.5551 15.2126 22.2152 14.901C20.5136 13.3413 20.5136 10.6587 22.2152 9.099C22.5551 8.78739 22.7487 8.34742 22.7487 7.88628V6C22.7487 5.30964 22.189 4.75 21.4987 4.75H2.49866ZM1.74866 6C1.74866 5.58579 2.08444 5.25 2.49866 5.25H21.4987C21.9129 5.25 22.2487 5.58579 22.2487 6V7.88628C22.2487 8.20727 22.1139 8.51352 21.8773 8.73042C19.9596 10.4883 19.9596 13.5117 21.8773 15.2696C22.1139 15.4865 22.2487 15.7927 22.2487 16.1137V18C22.2487 18.4142 21.9129 18.75 21.4987 18.75H2.49866C2.08444 18.75 1.74866 18.4142 1.74866 18V16.1137C1.74866 15.7927 1.88338 15.4865 2.12 15.2696C4.03772 13.5117 4.03772 10.4883 2.12 8.73042C1.88338 8.51352 1.74866 8.20727 1.74866 7.88628V6Z" fill="black"/>
</svg>
