<svg width="24" height="24" viewBox="0 0 24 24" fill="none" xmlns="http://www.w3.org/2000/svg">
<path d="M15.9866 9.21902C16.1819 9.02376 16.1819 8.70717 15.9866 8.51191C15.7914 8.31665 15.4748 8.31665 15.2795 8.51191L8.51029 15.2811C8.31503 15.4764 8.31503 15.793 8.51029 15.9882C8.70556 16.1835 9.02214 16.1835 9.2174 15.9882L15.9866 9.21902Z" fill="black"/>
<path d="M9.47923 10.2308C9.89345 10.2308 10.2292 9.89506 10.2292 9.48085C10.2292 9.06663 9.89345 8.73085 9.47923 8.73085C9.06502 8.73085 8.72923 9.06663 8.72923 9.48085C8.72923 9.89506 9.06502 10.2308 9.47923 10.2308Z" fill="black"/>
<path d="M15.7675 15.0193C15.7675 15.4335 15.4317 15.7693 15.0175 15.7693C14.6033 15.7693 14.2675 15.4335 14.2675 15.0193C14.2675 14.6051 14.6033 14.2693 15.0175 14.2693C15.4317 14.2693 15.7675 14.6051 15.7675 15.0193Z" fill="black"/>
<path fill-rule="evenodd" clip-rule="evenodd" d="M14.4532 2.06284C13.1569 0.570849 10.8403 0.570849 9.54398 2.06284C9.03447 2.64925 8.25868 2.93162 7.49144 2.80991C5.53935 2.50025 3.76474 3.98931 3.73073 5.96552C3.71736 6.74224 3.30456 7.45722 2.63859 7.85716C0.944154 8.87472 0.541884 11.1561 1.78611 12.6918C2.27513 13.2954 2.41849 14.1085 2.1654 14.8429C1.52147 16.7116 2.67975 18.7178 4.62003 19.0945C5.38263 19.2425 6.01506 19.7732 6.29328 20.4985C7.00115 22.3439 9.17802 23.1362 10.9065 22.1776C11.5858 21.8008 12.4114 21.8008 13.0908 22.1776C14.8192 23.1362 16.9961 22.3439 17.7039 20.4985C17.9822 19.7732 18.6146 19.2425 19.3772 19.0945C21.3175 18.7178 22.4758 16.7116 21.8318 14.8429C21.5787 14.1085 21.7221 13.2954 22.2111 12.6918C23.4553 11.1561 23.0531 8.87472 21.3586 7.85716C20.6927 7.45722 20.2799 6.74224 20.2665 5.96552C20.2325 3.98931 18.4579 2.50025 16.5058 2.80991C15.7385 2.93162 14.9628 2.64925 14.4532 2.06284ZM10.2989 2.71872C11.1965 1.68556 12.8007 1.68556 13.6984 2.71872C14.4342 3.56556 15.5545 3.97332 16.6625 3.79756C18.0142 3.58313 19.2431 4.61426 19.2666 5.98273C19.286 7.1044 19.8821 8.13689 20.8438 8.71445C22.0172 9.41908 22.2957 10.9989 21.4341 12.0623C20.7279 12.934 20.5209 14.1081 20.8864 15.1687C21.3323 16.4627 20.5302 17.852 19.1866 18.1128C18.0854 18.3266 17.1721 19.0929 16.7703 20.1403C16.2801 21.4182 14.7727 21.9669 13.5758 21.3031C12.5947 20.7589 11.4025 20.7589 10.4215 21.3031C9.22455 21.9669 7.71713 21.4182 7.22695 20.1403C6.82517 19.0929 5.91187 18.3266 4.8106 18.1128C3.46702 17.852 2.66493 16.4627 3.11084 15.1687C3.47633 14.1081 3.2693 12.934 2.5631 12.0623C1.70151 10.9989 1.98007 9.41908 3.15342 8.71445C4.11516 8.13689 4.71127 7.1044 4.73058 5.98273C4.75414 4.61426 5.983 3.58313 7.33476 3.79756C8.44274 3.97332 9.56307 3.56556 10.2989 2.71872Z" fill="black"/>
</svg>
