<svg width="24" height="24" viewBox="0 0 24 24" fill="none" xmlns="http://www.w3.org/2000/svg">
<path fill-rule="evenodd" clip-rule="evenodd" d="M1.24866 6C1.24866 5.30964 1.8083 4.75 2.49866 4.75H21.4987C22.189 4.75 22.7487 5.30964 22.7487 6V7.88628C22.7487 8.34742 22.5551 8.78739 22.2152 9.099C20.5136 10.6587 20.5136 13.3413 22.2152 14.901C22.5551 15.2126 22.7487 15.6526 22.7487 16.1137V18C22.7487 18.6904 22.189 19.25 21.4987 19.25H2.49866C1.8083 19.25 1.24866 18.6904 1.24866 18V16.1137C1.24866 15.6526 1.4422 15.2126 1.78213 14.901C3.48368 13.3413 3.48368 10.6587 1.78213 9.099C1.4422 8.78739 1.24866 8.34742 1.24866 7.88628V6ZM15.8119 8.79201C15.9095 8.69438 15.9095 8.53609 15.8119 8.43846C15.7142 8.34083 15.5559 8.34083 15.4583 8.43846L8.68907 15.2077C8.59144 15.3053 8.59144 15.4636 8.68907 15.5612C8.7867 15.6589 8.94499 15.6589 9.04262 15.5612L15.8119 8.79201ZM9.48303 9.73047C9.75917 9.73047 9.98303 9.50661 9.98303 9.23047C9.98303 8.95433 9.75917 8.73047 9.48303 8.73047C9.20689 8.73047 8.98303 8.95433 8.98303 9.23047C8.98303 9.50661 9.20689 9.73047 9.48303 9.73047ZM15.5221 14.769C15.5221 15.0452 15.2982 15.269 15.0221 15.269C14.746 15.269 14.5221 15.0452 14.5221 14.769C14.5221 14.4929 14.746 14.269 15.0221 14.269C15.2982 14.269 15.5221 14.4929 15.5221 14.769Z" fill="black"/>
</svg>
