<svg width="24" height="24" viewBox="0 0 24 24" fill="none" xmlns="http://www.w3.org/2000/svg">
<path d="M16.5171 9.74886C17.0052 9.2607 17.0052 8.46925 16.5171 7.98109C16.0289 7.49294 15.2374 7.49294 14.7493 7.98109L7.98006 14.7503C7.4919 15.2385 7.4919 16.0299 7.98006 16.5181C8.46821 17.0062 9.25967 17.0062 9.74782 16.5181L16.5171 9.74886Z" fill="black"/>
<path d="M9.47918 10.9804C10.3076 10.9804 10.9792 10.3088 10.9792 9.48036C10.9792 8.65194 10.3076 7.98036 9.47918 7.98036C8.65075 7.98036 7.97918 8.65194 7.97918 9.48036C7.97918 10.3088 8.65075 10.9804 9.47918 10.9804Z" fill="black"/>
<path d="M16.5182 15.0188C16.5182 15.8473 15.8467 16.5188 15.0182 16.5188C14.1898 16.5188 13.5182 15.8473 13.5182 15.0188C13.5182 14.1904 14.1898 13.5188 15.0182 13.5188C15.8467 13.5188 16.5182 14.1904 16.5182 15.0188Z" fill="black"/>
<path fill-rule="evenodd" clip-rule="evenodd" d="M15.0195 1.57045C13.4242 -0.26567 10.5733 -0.26567 8.97793 1.57045C8.63812 1.96154 8.12073 2.14985 7.60903 2.06868C5.2067 1.6876 3.0228 3.52011 2.98093 5.95212C2.97201 6.47014 2.69671 6.94697 2.25256 7.2137C0.167308 8.46596 -0.327743 11.2735 1.20345 13.1635C1.52959 13.566 1.62521 14.1083 1.45641 14.5981C0.663957 16.8977 2.0894 19.3667 4.47719 19.8302C4.98579 19.929 5.40757 20.2829 5.59312 20.7666C6.46426 23.0376 9.14322 24.0127 11.2703 22.8329C11.7234 22.5817 12.274 22.5817 12.7271 22.8329C14.8542 24.0127 17.5332 23.0376 18.4043 20.7666C18.5898 20.2829 19.0116 19.929 19.5202 19.8302C21.908 19.3667 23.3335 16.8978 22.541 14.5981C22.3722 14.1083 22.4678 13.566 22.794 13.1635C24.3252 11.2735 23.8301 8.46596 21.7449 7.2137C21.3007 6.94697 21.0254 6.47014 21.0165 5.95212C20.9746 3.52011 18.7907 1.6876 16.3884 2.06868C15.8767 2.14985 15.3593 1.96154 15.0195 1.57045ZM10.8651 3.21014C11.4638 2.5211 12.5336 2.5211 13.1323 3.21014C14.0378 4.25229 15.4165 4.75411 16.7801 4.53781C17.6816 4.3948 18.5011 5.08249 18.5169 5.99515C18.5406 7.37553 19.2742 8.64616 20.4578 9.35693C21.2403 9.82687 21.4261 10.8805 20.8515 11.5897C19.9824 12.6624 19.7276 14.1073 20.1774 15.4126C20.4748 16.2756 19.9399 17.2021 19.0438 17.3761C17.6885 17.6392 16.5646 18.5823 16.0701 19.8713C15.7432 20.7235 14.7379 21.0894 13.9396 20.6467C12.7323 19.9771 11.2651 19.9771 10.0578 20.6467C9.25954 21.0894 8.2542 20.7235 7.92729 19.8713C7.43285 18.5823 6.3089 17.6392 4.95363 17.3761C4.05756 17.2021 3.52263 16.2756 3.82001 15.4126C4.2698 14.1073 4.01502 12.6624 3.14594 11.5897C2.57133 10.8805 2.7571 9.82687 3.53964 9.35693C4.7232 8.64616 5.4568 7.37553 5.48056 5.99515C5.49627 5.08249 6.31583 4.3948 7.21735 4.53781C8.58088 4.75411 9.95961 4.25229 10.8651 3.21014Z" fill="black"/>
</svg>
