<svg width="24" height="24" viewBox="0 0 24 24" fill="none" xmlns="http://www.w3.org/2000/svg">
<path d="M16.1634 9.39531C16.4563 9.10241 16.4563 8.62754 16.1634 8.33465C15.8705 8.04175 15.3957 8.04175 15.1028 8.33465L8.33355 15.1039C8.04066 15.3968 8.04066 15.8716 8.33355 16.1645C8.62644 16.4574 9.10132 16.4574 9.39421 16.1645L16.1634 9.39531Z" fill="black"/>
<path d="M9.47911 10.4804C10.0314 10.4804 10.4791 10.0326 10.4791 9.48036C10.4791 8.92807 10.0314 8.48036 9.47911 8.48036C8.92683 8.48036 8.47911 8.92807 8.47911 9.48036C8.47911 10.0326 8.92683 10.4804 9.47911 10.4804Z" fill="black"/>
<path d="M16.0182 15.0188C16.0182 15.5711 15.5705 16.0188 15.0182 16.0188C14.4659 16.0188 14.0182 15.5711 14.0182 15.0188C14.0182 14.4666 14.4659 14.0188 15.0182 14.0188C15.5705 14.0188 16.0182 14.4666 16.0182 15.0188Z" fill="black"/>
<path fill-rule="evenodd" clip-rule="evenodd" d="M14.642 1.89839C13.246 0.291684 10.7513 0.291684 9.3553 1.89839C8.90236 2.41969 8.2127 2.6707 7.53064 2.56251C5.42847 2.22904 3.51743 3.83259 3.48079 5.96073C3.46891 6.65122 3.10195 7.28681 2.50991 7.64235C0.685205 8.73814 0.252008 11.1949 1.59189 12.8487C2.02662 13.3853 2.15406 14.1081 1.92907 14.761C1.23563 16.7733 2.48297 18.9338 4.57242 19.3394C5.25035 19.471 5.81257 19.9428 6.0599 20.5875C6.82219 22.5748 9.16642 23.428 11.0278 22.3957C11.6317 22.0607 12.3656 22.0607 12.9695 22.3957C14.8309 23.428 17.1751 22.5748 17.9374 20.5875C18.1847 19.9428 18.7469 19.471 19.4249 19.3394C21.5143 18.9338 22.7617 16.7733 22.0682 14.761C21.8432 14.1081 21.9707 13.3853 22.4054 12.8487C23.7453 11.1949 23.3121 8.73814 21.4874 7.64235C20.8953 7.28681 20.5284 6.65122 20.5165 5.96073C20.4799 3.83259 18.5688 2.22904 16.4667 2.56251C15.7846 2.6707 15.0949 2.41969 14.642 1.89839ZM10.4876 2.8822C11.2856 1.96375 12.7117 1.96375 13.5097 2.8822C14.302 3.79414 15.5085 4.23326 16.7017 4.04398C17.9033 3.85336 18.9958 4.77001 19.0167 5.98655C19.0375 7.19445 19.6795 8.30633 20.7151 8.92828C21.7582 9.55469 22.0058 10.9591 21.2399 11.9045C20.4794 12.8431 20.2565 14.1075 20.6501 15.2497C21.0465 16.4 20.3334 17.635 19.139 17.8669C17.9531 18.0971 16.9696 18.9224 16.5369 20.0503C16.1011 21.1863 14.7611 21.6741 13.6971 21.0839C12.6406 20.498 11.3567 20.498 10.3002 21.0839C9.23621 21.6741 7.89615 21.1863 7.4604 20.0503C7.02773 18.9224 6.04422 18.0971 4.85828 17.8669C3.66386 17.635 2.95083 16.4 3.34723 15.2497C3.74082 14.1075 3.51787 12.8431 2.75738 11.9045C1.99145 10.9591 2.23908 9.55469 3.28216 8.92828C4.31784 8.30633 4.95978 7.19445 4.98057 5.98655C5.00151 4.77001 6.09394 3.85336 7.29563 4.04398C8.48879 4.23326 9.69525 3.79414 10.4876 2.8822Z" fill="black"/>
</svg>
