<svg width="24" height="24" viewBox="0 0 24 24" fill="none" xmlns="http://www.w3.org/2000/svg">
<path fill-rule="evenodd" clip-rule="evenodd" d="M9.73462 2.22681C10.9313 0.849526 13.0698 0.849526 14.2664 2.22681C14.8325 2.87833 15.6945 3.19204 16.5469 3.05682C18.3489 2.77097 19.9871 4.14555 20.0185 5.96982C20.0333 6.83278 20.4919 7.62714 21.2319 8.07148C22.796 9.01081 23.1674 11.1168 22.0188 12.5345C21.4755 13.2051 21.3162 14.1084 21.5974 14.9244C22.1918 16.6494 21.1226 18.5013 19.3315 18.849C18.4842 19.0135 17.7816 19.6031 17.4725 20.409C16.819 22.1125 14.8095 22.8439 13.2139 21.9589C12.4592 21.5403 11.5419 21.5403 10.7871 21.9589C9.19158 22.8439 7.18207 22.1125 6.52862 20.409C6.21951 19.6031 5.51686 19.0135 4.6696 18.849C2.87849 18.5013 1.80925 16.6494 2.40368 14.9244C2.68487 14.1084 2.52559 13.2051 1.98228 12.5345C0.833713 11.1168 1.20506 9.01081 2.76922 8.07148C3.50914 7.62714 3.96776 6.83278 3.98261 5.96982C4.01401 4.14555 5.65218 2.77097 7.45419 3.05682C8.30662 3.19204 9.16855 2.87833 9.73462 2.22681ZM15.8109 9.04224C15.9085 8.94461 15.9085 8.78632 15.8109 8.68869C15.7133 8.59105 15.555 8.59105 15.4573 8.68869L8.68811 15.4579C8.59048 15.5555 8.59048 15.7138 8.68811 15.8115C8.78574 15.9091 8.94403 15.9091 9.04166 15.8115L15.8109 9.04224ZM9.48012 9.98085C9.75626 9.98085 9.98012 9.75699 9.98012 9.48085C9.98012 9.2047 9.75626 8.98085 9.48012 8.98085C9.20398 8.98085 8.98012 9.2047 8.98012 9.48085C8.98012 9.75699 9.20398 9.98085 9.48012 9.98085ZM15.5192 15.0193C15.5192 15.2955 15.2953 15.5193 15.0192 15.5193C14.743 15.5193 14.5192 15.2955 14.5192 15.0193C14.5192 14.7432 14.743 14.5193 15.0192 14.5193C15.2953 14.5193 15.5192 14.7432 15.5192 15.0193Z" fill="black"/>
</svg>
