<svg width="24" height="24" viewBox="0 0 24 24" fill="none" xmlns="http://www.w3.org/2000/svg">
<path d="M15.9866 9.21853C16.1819 9.02327 16.1819 8.70668 15.9866 8.51142C15.7914 8.31616 15.4748 8.31616 15.2795 8.51142L8.51029 15.2807C8.31503 15.4759 8.31503 15.7925 8.51029 15.9878C8.70556 16.183 9.02214 16.183 9.2174 15.9878L15.9866 9.21853Z" fill="black"/>
<path d="M9.47923 10.2304C9.89345 10.2304 10.2292 9.89457 10.2292 9.48036C10.2292 9.06615 9.89345 8.73036 9.47923 8.73036C9.06502 8.73036 8.72923 9.06615 8.72923 9.48036C8.72923 9.89457 9.06502 10.2304 9.47923 10.2304Z" fill="black"/>
<path d="M15.7675 15.0188C15.7675 15.4331 15.4317 15.7688 15.0175 15.7688C14.6033 15.7688 14.2675 15.4331 14.2675 15.0188C14.2675 14.6046 14.6033 14.2688 15.0175 14.2688C15.4317 14.2688 15.7675 14.6046 15.7675 15.0188Z" fill="black"/>
<path fill-rule="evenodd" clip-rule="evenodd" d="M14.4532 2.06236C13.1569 0.570361 10.8403 0.570361 9.54398 2.06236C9.03447 2.64876 8.25868 2.93113 7.49144 2.80942C5.53935 2.49976 3.76474 3.98883 3.73073 5.96503C3.71736 6.74175 3.30456 7.45673 2.63859 7.85667C0.944154 8.87423 0.541884 11.1556 1.78611 12.6913C2.27513 13.2949 2.41849 14.108 2.1654 14.8424C1.52147 16.7111 2.67975 18.7173 4.62003 19.094C5.38263 19.242 6.01506 19.7727 6.29328 20.498C7.00115 22.3434 9.17802 23.1357 10.9065 22.1771C11.5858 21.8003 12.4114 21.8003 13.0908 22.1771C14.8192 23.1357 16.9961 22.3434 17.7039 20.498C17.9822 19.7727 18.6146 19.242 19.3772 19.094C21.3175 18.7173 22.4758 16.7111 21.8318 14.8424C21.5787 14.108 21.7221 13.2949 22.2111 12.6913C23.4553 11.1556 23.0531 8.87423 21.3586 7.85667C20.6927 7.45673 20.2799 6.74175 20.2665 5.96503C20.2325 3.98883 18.4579 2.49976 16.5058 2.80942C15.7385 2.93113 14.9628 2.64876 14.4532 2.06236ZM10.2989 2.71823C11.1965 1.68507 12.8007 1.68507 13.6984 2.71823C14.4342 3.56507 15.5545 3.97283 16.6625 3.79707C18.0142 3.58264 19.2431 4.61378 19.2666 5.98224C19.286 7.10391 19.8821 8.13641 20.8438 8.71396C22.0172 9.41859 22.2957 10.9984 21.4341 12.0618C20.7279 12.9335 20.5209 14.1076 20.8864 15.1682C21.3323 16.4622 20.5302 17.8515 19.1866 18.1123C18.0854 18.3261 17.1721 19.0924 16.7703 20.1399C16.2801 21.4177 14.7727 21.9664 13.5758 21.3026C12.5947 20.7585 11.4025 20.7585 10.4215 21.3026C9.22455 21.9664 7.71713 21.4177 7.22695 20.1399C6.82517 19.0924 5.91187 18.3261 4.8106 18.1123C3.46702 17.8515 2.66493 16.4622 3.11084 15.1682C3.47633 14.1076 3.2693 12.9335 2.5631 12.0618C1.70151 10.9984 1.98007 9.41859 3.15342 8.71396C4.11516 8.13641 4.71127 7.10391 4.73058 5.98224C4.75414 4.61378 5.983 3.58264 7.33476 3.79707C8.44274 3.97283 9.56307 3.56507 10.2989 2.71823Z" fill="black"/>
</svg>
