<svg width="24" height="24" viewBox="0 0 24 24" fill="none" xmlns="http://www.w3.org/2000/svg">
<path fill-rule="evenodd" clip-rule="evenodd" d="M9.3553 1.89887C10.7513 0.292172 13.246 0.292172 14.642 1.89887C15.0949 2.42018 15.7846 2.67119 16.4667 2.563C18.5688 2.22953 20.4799 3.83308 20.5165 5.96122C20.5284 6.6517 20.8953 7.2873 21.4874 7.64284C23.3121 8.73863 23.7453 11.1954 22.4054 12.8492C21.9707 13.3858 21.8432 14.1086 22.0682 14.7615C22.7617 16.7738 21.5143 18.9343 19.4249 19.3399C18.7469 19.4715 18.1847 19.9432 17.9374 20.588C17.1751 22.5753 14.8309 23.4285 12.9695 22.3962C12.3656 22.0612 11.6317 22.0612 11.0278 22.3962C9.16642 23.4285 6.82219 22.5753 6.0599 20.588C5.81257 19.9432 5.25035 19.4715 4.57242 19.3399C2.48297 18.9343 1.23563 16.7738 1.92907 14.7615C2.15406 14.1086 2.02662 13.3858 1.59189 12.8492C0.252008 11.1954 0.685205 8.73863 2.50991 7.64283C3.10195 7.2873 3.46891 6.6517 3.48079 5.96122C3.51743 3.83308 5.42847 2.22953 7.53064 2.563C8.2127 2.67119 8.90236 2.42018 9.3553 1.89887ZM16.1627 9.39579C16.4556 9.1029 16.4556 8.62803 16.1627 8.33513C15.8698 8.04224 15.3949 8.04224 15.102 8.33513L8.33279 15.1044C8.0399 15.3973 8.0399 15.8721 8.33279 16.165C8.62568 16.4579 9.10056 16.4579 9.39345 16.165L16.1627 9.39579ZM9.47835 10.4808C10.0306 10.4808 10.4784 10.0331 10.4784 9.48085C10.4784 8.92856 10.0306 8.48085 9.47835 8.48085C8.92607 8.48085 8.47835 8.92856 8.47835 9.48085C8.47835 10.0331 8.92607 10.4808 9.47835 10.4808ZM16.0174 15.0193C16.0174 15.5716 15.5697 16.0193 15.0174 16.0193C14.4651 16.0193 14.0174 15.5716 14.0174 15.0193C14.0174 14.467 14.4651 14.0193 15.0174 14.0193C15.5697 14.0193 16.0174 14.467 16.0174 15.0193Z" fill="black"/>
</svg>
