<svg width="24" height="24" viewBox="0 0 24 24" fill="none" xmlns="http://www.w3.org/2000/svg">
<path fill-rule="evenodd" clip-rule="evenodd" d="M8.97793 1.57094C10.5733 -0.265182 13.4242 -0.265182 15.0195 1.57094C15.3593 1.96203 15.8767 2.15034 16.3884 2.06917C18.7907 1.68809 20.9746 3.5206 21.0165 5.95261C21.0254 6.47063 21.3007 6.94746 21.7449 7.21419C23.8301 8.46645 24.3252 11.274 22.794 13.164C22.4678 13.5665 22.3722 14.1088 22.541 14.5986C23.3335 16.8982 21.908 19.3672 19.5202 19.8307C19.0116 19.9295 18.5898 20.2834 18.4043 20.7671C17.5332 23.0381 14.8542 24.0132 12.7271 22.8334C12.274 22.5821 11.7234 22.5821 11.2703 22.8334C9.14322 24.0132 6.46426 23.0381 5.59312 20.7671C5.40757 20.2834 4.98579 19.9295 4.47719 19.8307C2.0894 19.3672 0.663957 16.8982 1.45641 14.5986C1.62521 14.1088 1.52959 13.5665 1.20345 13.164C-0.327743 11.274 0.167308 8.46645 2.25256 7.21419C2.69671 6.94746 2.97201 6.47063 2.98093 5.95261C3.0228 3.5206 5.2067 1.68809 7.60903 2.06917C8.12073 2.15034 8.63812 1.96203 8.97793 1.57094ZM16.5164 9.74934C17.0046 9.26119 17.0046 8.46973 16.5164 7.98158C16.0283 7.49342 15.2368 7.49342 14.7487 7.98158L7.97942 14.7508C7.49127 15.239 7.49127 16.0304 7.97942 16.5186C8.46758 17.0067 9.25904 17.0067 9.74719 16.5186L16.5164 9.74934ZM9.47854 10.9808C10.307 10.9808 10.9785 10.3093 10.9785 9.48085C10.9785 8.65242 10.307 7.98085 9.47854 7.98085C8.65011 7.98085 7.97854 8.65242 7.97854 9.48085C7.97854 10.3093 8.65011 10.9808 9.47854 10.9808ZM16.5176 15.0193C16.5176 15.8478 15.846 16.5193 15.0176 16.5193C14.1892 16.5193 13.5176 15.8478 13.5176 15.0193C13.5176 14.1909 14.1892 13.5193 15.0176 13.5193C15.846 13.5193 16.5176 14.1909 16.5176 15.0193Z" fill="black"/>
</svg>
