<svg width="24" height="24" viewBox="0 0 24 24" fill="none" xmlns="http://www.w3.org/2000/svg">
<path fill-rule="evenodd" clip-rule="evenodd" d="M9.54398 2.06284C10.8403 0.570849 13.1569 0.570849 14.4532 2.06284C14.9628 2.64925 15.7385 2.93162 16.5058 2.80991C18.4579 2.50025 20.2325 3.98931 20.2665 5.96552C20.2799 6.74224 20.6927 7.45722 21.3586 7.85716C23.0531 8.87472 23.4553 11.1561 22.2111 12.6918C21.7221 13.2954 21.5787 14.1085 21.8318 14.8429C22.4758 16.7116 21.3175 18.7178 19.3772 19.0945C18.6146 19.2425 17.9822 19.7732 17.7039 20.4985C16.9961 22.3439 14.8192 23.1362 13.0908 22.1776C12.4114 21.8008 11.5858 21.8008 10.9065 22.1776C9.17802 23.1362 7.00115 22.3439 6.29328 20.4985C6.01506 19.7732 5.38263 19.2425 4.62003 19.0945C2.67975 18.7178 1.52147 16.7116 2.1654 14.8429C2.41849 14.1085 2.27513 13.2954 1.78611 12.6918C0.541884 11.1561 0.944154 8.87472 2.63859 7.85716C3.30456 7.45722 3.71736 6.74224 3.73073 5.96552C3.76474 3.98931 5.53935 2.50025 7.49144 2.80991C8.25868 2.93162 9.03447 2.64925 9.54398 2.06284ZM15.9871 9.21902C16.1823 9.02376 16.1823 8.70717 15.9871 8.51191C15.7918 8.31665 15.4752 8.31665 15.28 8.51191L8.51074 15.2811C8.31547 15.4764 8.31547 15.793 8.51074 15.9882C8.706 16.1835 9.02258 16.1835 9.21784 15.9882L15.9871 9.21902ZM9.47967 10.2308C9.89389 10.2308 10.2297 9.89506 10.2297 9.48085C10.2297 9.06663 9.89389 8.73085 9.47967 8.73085C9.06546 8.73085 8.72967 9.06663 8.72967 9.48085C8.72967 9.89506 9.06546 10.2308 9.47967 10.2308ZM15.7679 15.0193C15.7679 15.4335 15.4321 15.7693 15.0179 15.7693C14.6037 15.7693 14.2679 15.4335 14.2679 15.0193C14.2679 14.6051 14.6037 14.2693 15.0179 14.2693C15.4321 14.2693 15.7679 14.6051 15.7679 15.0193Z" fill="black"/>
</svg>
