<svg width="24" height="24" viewBox="0 0 24 24" fill="none" xmlns="http://www.w3.org/2000/svg">
<path fill-rule="evenodd" clip-rule="evenodd" d="M9.73365 2.22632C10.9303 0.849038 13.0688 0.849038 14.2655 2.22632C14.8315 2.87784 15.6935 3.19156 16.5459 3.05633C18.3479 2.77048 19.9861 4.14506 20.0175 5.96934C20.0323 6.83229 20.491 7.62665 21.2309 8.07099C22.795 9.01032 23.1664 11.1163 22.0178 12.534C21.4745 13.2046 21.3152 14.1079 21.5964 14.9239C22.1908 16.6489 21.1216 18.5009 19.3305 18.8486C18.4832 19.013 17.7806 19.6026 17.4715 20.4085C16.818 22.112 14.8085 22.8434 13.213 21.9584C12.4582 21.5398 11.5409 21.5398 10.7862 21.9584C9.1906 22.8434 7.18109 22.112 6.52764 20.4085C6.21854 19.6026 5.51589 19.013 4.66862 18.8486C2.87752 18.5009 1.80828 16.6489 2.40271 14.9239C2.6839 14.1079 2.52462 13.2046 1.9813 12.534C0.832737 11.1163 1.20408 9.01032 2.76824 8.07099C3.50816 7.62665 3.96678 6.83229 3.98164 5.96934C4.01304 4.14506 5.65121 2.77048 7.45321 3.05633C8.30564 3.19156 9.16757 2.87784 9.73365 2.22632ZM15.8099 9.04175C15.9075 8.94412 15.9075 8.78583 15.8099 8.6882C15.7123 8.59057 15.554 8.59057 15.4564 8.6882L8.68713 15.4574C8.5895 15.5551 8.5895 15.7134 8.68713 15.811C8.78477 15.9086 8.94306 15.9086 9.04069 15.811L15.8099 9.04175ZM9.47915 9.98036C9.75529 9.98036 9.97915 9.7565 9.97915 9.48036C9.97915 9.20422 9.75529 8.98036 9.47915 8.98036C9.203 8.98036 8.97915 9.20422 8.97915 9.48036C8.97915 9.7565 9.203 9.98036 9.47915 9.98036ZM15.5182 15.0188C15.5182 15.295 15.2944 15.5188 15.0182 15.5188C14.7421 15.5188 14.5182 15.295 14.5182 15.0188C14.5182 14.7427 14.7421 14.5188 15.0182 14.5188C15.2944 14.5188 15.5182 14.7427 15.5182 15.0188Z" fill="black"/>
</svg>
