<svg width="24" height="24" viewBox="0 0 24 24" fill="none" xmlns="http://www.w3.org/2000/svg">
<path fill-rule="evenodd" clip-rule="evenodd" d="M0.998657 6C0.998657 5.17157 1.67023 4.5 2.49866 4.5H21.4987C22.3271 4.5 22.9987 5.17157 22.9987 6V7.88628C22.9987 8.4175 22.7757 8.92433 22.3841 9.28328C20.7907 10.7439 20.7907 13.2561 22.3841 14.7167C22.7757 15.0757 22.9987 15.5825 22.9987 16.1137V18C22.9987 18.8284 22.3271 19.5 21.4987 19.5H2.49866C1.67023 19.5 0.998657 18.8284 0.998657 18V16.1137C0.998657 15.5825 1.22161 15.0757 1.6132 14.7167C3.20665 13.2561 3.20665 10.7439 1.6132 9.28329C1.22161 8.92433 0.998657 8.4175 0.998657 7.88628V6ZM15.9886 8.96879C16.1839 8.77353 16.1839 8.45694 15.9886 8.26168C15.7934 8.06642 15.4768 8.06642 15.2815 8.26168L8.51229 15.0309C8.31703 15.2262 8.31703 15.5428 8.51229 15.738C8.70755 15.9333 9.02414 15.9333 9.2194 15.738L15.9886 8.96879ZM9.48303 9.98047C9.89725 9.98047 10.233 9.64468 10.233 9.23047C10.233 8.81626 9.89725 8.48047 9.48303 8.48047C9.06882 8.48047 8.73303 8.81626 8.73303 9.23047C8.73303 9.64468 9.06882 9.98047 9.48303 9.98047ZM15.7682 14.769C15.7682 15.1833 15.4324 15.519 15.0182 15.519C14.604 15.519 14.2682 15.1833 14.2682 14.769C14.2682 14.3548 14.604 14.019 15.0182 14.019C15.4324 14.019 15.7682 14.3548 15.7682 14.769Z" fill="black"/>
</svg>
