<svg width="24" height="24" viewBox="0 0 24 24" fill="none" xmlns="http://www.w3.org/2000/svg">
<path d="M15.8098 9.04224C15.9075 8.94461 15.9075 8.78632 15.8098 8.68869C15.7122 8.59106 15.5539 8.59106 15.4563 8.68869L8.68704 15.4579C8.58941 15.5555 8.58941 15.7138 8.68704 15.8115C8.78467 15.9091 8.94296 15.9091 9.04059 15.8115L15.8098 9.04224Z" fill="black"/>
<path d="M9.47905 9.98085C9.75519 9.98085 9.97905 9.75699 9.97905 9.48085C9.97905 9.2047 9.75519 8.98085 9.47905 8.98085C9.20291 8.98085 8.97905 9.2047 8.97905 9.48085C8.97905 9.75699 9.20291 9.98085 9.47905 9.98085Z" fill="black"/>
<path d="M15.5181 15.0193C15.5181 15.2955 15.2943 15.5193 15.0181 15.5193C14.742 15.5193 14.5181 15.2955 14.5181 15.0193C14.5181 14.7432 14.742 14.5193 15.0181 14.5193C15.2943 14.5193 15.5181 14.7432 15.5181 15.0193Z" fill="black"/>
<path fill-rule="evenodd" clip-rule="evenodd" d="M14.2645 2.22681C13.0678 0.849526 10.9293 0.849526 9.73267 2.22681C9.16659 2.87833 8.30467 3.19204 7.45224 3.05682C5.65023 2.77097 4.01206 4.14555 3.98066 5.96982C3.9658 6.83278 3.50718 7.62714 2.76727 8.07148C1.2031 9.01081 0.83176 11.1168 1.98032 12.5345C2.52364 13.2051 2.68292 14.1084 2.40173 14.9244C1.8073 16.6494 2.87654 18.5013 4.66764 18.849C5.51491 19.0135 6.21756 19.6031 6.52667 20.409C7.18011 22.1125 9.18962 22.8439 10.7852 21.9589C11.54 21.5403 12.4572 21.5403 13.212 21.9589C14.8075 22.8439 16.8171 22.1125 17.4705 20.409C17.7796 19.6031 18.4823 19.0135 19.3295 18.849C21.1206 18.5013 22.1899 16.6494 21.5954 14.9244C21.3142 14.1084 21.4735 13.2051 22.0168 12.5345C23.1654 11.1168 22.7941 9.01081 21.2299 8.07148C20.49 7.62714 20.0314 6.83278 20.0165 5.96982C19.9851 4.14555 18.3469 2.77097 16.5449 3.05682C15.6925 3.19204 14.8306 2.87833 14.2645 2.22681ZM10.1101 2.55475C11.1074 1.40688 12.8897 1.40688 13.8871 2.55475C14.5663 3.33648 15.6005 3.7129 16.6233 3.55065C18.1251 3.31241 19.4904 4.45803 19.5166 5.97843C19.5344 7.01386 20.0847 7.96698 20.9725 8.50013C22.2761 9.28299 22.5856 11.0382 21.6283 12.2197C20.9764 13.0243 20.7853 14.1082 21.1227 15.0873C21.6181 16.5249 20.727 18.0684 19.2342 18.3582C18.2176 18.5556 17.3745 19.263 17.0037 20.2299C16.4591 21.6496 14.7843 22.2592 13.4545 21.5217C12.5489 21.0194 11.4483 21.0194 10.5427 21.5217C9.21289 22.2592 7.5381 21.6496 6.9935 20.2299C6.62261 19.263 5.77953 18.5556 4.76293 18.3582C3.27017 18.0684 2.37904 16.5249 2.87445 15.0873C3.21184 14.1082 3.02073 13.0243 2.36882 12.2197C1.41157 11.0382 1.72106 9.28299 3.02468 8.50013C3.91248 7.96698 4.46276 7.01386 4.48058 5.97843C4.50676 4.45803 5.87205 3.31241 7.3739 3.55065C8.3967 3.7129 9.43089 3.33648 10.1101 2.55475Z" fill="black"/>
</svg>
