<svg width="24" height="24" viewBox="0 0 24 24" fill="none" xmlns="http://www.w3.org/2000/svg">
<path d="M16.3402 9.57257C16.7308 9.18205 16.7308 8.54888 16.3402 8.15836C15.9497 7.76783 15.3166 7.76783 14.926 8.15836L8.1568 14.9276C7.76628 15.3181 7.76628 15.9513 8.1568 16.3418C8.54733 16.7323 9.18049 16.7323 9.57102 16.3418L16.3402 9.57257Z" fill="black"/>
<path d="M9.47914 10.6059C10.1005 10.6059 10.6041 10.1022 10.6041 9.48085C10.6041 8.85953 10.1005 8.35585 9.47914 8.35585C8.85782 8.35585 8.35414 8.85953 8.35414 9.48085C8.35414 10.1022 8.85782 10.6059 9.47914 10.6059Z" fill="black"/>
<path d="M16.1432 15.0193C16.1432 15.6406 15.6395 16.1443 15.0182 16.1443C14.3969 16.1443 13.8932 15.6406 13.8932 15.0193C13.8932 14.398 14.3969 13.8943 15.0182 13.8943C15.6395 13.8943 16.1432 14.398 16.1432 15.0193Z" fill="black"/>
<path fill-rule="evenodd" clip-rule="evenodd" d="M14.8307 1.73491C13.3351 0.0134952 10.6623 0.013495 9.16661 1.73491C8.77024 2.1911 8.16671 2.41077 7.56984 2.31608C5.31758 1.95881 3.27011 3.67684 3.23086 5.95691C3.22046 6.56116 2.89933 7.11738 2.38124 7.42851C0.426257 8.60254 -0.0378672 11.2347 1.39767 13.0066C1.77811 13.4762 1.88963 14.1087 1.69274 14.68C0.949793 16.836 2.28619 19.1507 4.52481 19.5853C5.11807 19.7005 5.61007 20.1133 5.82651 20.6776C6.64322 22.8067 9.15482 23.7209 11.149 22.6148C11.6775 22.3217 12.3198 22.3217 12.8483 22.6148C14.8425 23.7209 17.3541 22.8067 18.1708 20.6776C18.3873 20.1133 18.8793 19.7005 19.4725 19.5853C21.7112 19.1507 23.0476 16.836 22.3046 14.68C22.1077 14.1087 22.2192 13.4762 22.5997 13.0066C24.0352 11.2347 23.5711 8.60254 21.6161 7.42851C21.098 7.11738 20.7769 6.56116 20.7665 5.95691C20.7272 3.67684 18.6798 1.95881 16.4275 2.31608C15.8306 2.41077 15.2271 2.1911 14.8307 1.73491ZM10.6763 3.04666C11.3747 2.24291 12.6227 2.24291 13.321 3.04666C14.1699 4.02371 15.4625 4.49417 16.7409 4.29139C17.7925 4.12457 18.7485 4.92674 18.7668 5.99134C18.7891 7.28548 19.4768 8.47673 20.5865 9.1431C21.4993 9.69127 21.716 10.9203 21.0457 11.7476C20.2309 12.7533 19.992 14.1079 20.4137 15.3316C20.7606 16.3383 20.1366 17.419 19.0914 17.622C17.8208 17.8686 16.7671 18.7528 16.3035 19.9613C15.9222 20.9554 14.7495 21.3822 13.8183 20.8658C12.6864 20.238 11.3109 20.238 10.179 20.8658C9.24788 21.3822 8.07518 20.9554 7.69384 19.9613C7.23029 18.7528 6.17656 17.8686 4.90595 17.622C3.86071 17.419 3.23673 16.3383 3.58362 15.3316C4.00531 14.1079 3.76645 12.7533 2.95166 11.7476C2.28139 10.9203 2.49809 9.69127 3.4109 9.1431C4.52052 8.47673 5.20829 7.28547 5.23057 5.99134C5.24889 4.92674 6.20488 4.12457 7.25649 4.29139C8.53484 4.49417 9.82743 4.02371 10.6763 3.04666Z" fill="black"/>
</svg>
