<svg width="24" height="24" viewBox="0 0 24 24" fill="none" xmlns="http://www.w3.org/2000/svg">
<path fill-rule="evenodd" clip-rule="evenodd" d="M8.97841 1.57045C10.5738 -0.26567 13.4246 -0.26567 15.02 1.57045C15.3598 1.96154 15.8772 2.14985 16.3889 2.06868C18.7912 1.6876 20.9751 3.52011 21.017 5.95212C21.0259 6.47014 21.3012 6.94697 21.7453 7.2137C23.8306 8.46596 24.3256 11.2735 22.7944 13.1635C22.4683 13.566 22.3727 14.1083 22.5415 14.5981C23.3339 16.8978 21.9085 19.3667 19.5207 19.8302C19.0121 19.929 18.5903 20.2829 18.4048 20.7666C17.5336 23.0376 14.8547 24.0127 12.7276 22.8329C12.2745 22.5817 11.7239 22.5817 11.2708 22.8329C9.14371 24.0127 6.46475 23.0376 5.59361 20.7666C5.40806 20.2829 4.98628 19.929 4.47768 19.8302C2.08989 19.3667 0.664446 16.8977 1.4569 14.5981C1.62569 14.1083 1.53008 13.566 1.20394 13.1635C-0.327255 11.2735 0.167797 8.46596 2.25305 7.2137C2.6972 6.94697 2.9725 6.47014 2.98142 5.95212C3.02328 3.52011 5.20719 1.6876 7.60952 2.06868C8.12122 2.14985 8.63861 1.96154 8.97841 1.57045ZM16.5169 9.74886C17.0051 9.2607 17.0051 8.46924 16.5169 7.98109C16.0288 7.49293 15.2373 7.49293 14.7491 7.98109L7.97991 14.7503C7.49176 15.2385 7.49176 16.0299 7.97991 16.5181C8.46807 17.0062 9.25952 17.0062 9.74768 16.5181L16.5169 9.74886ZM9.47903 10.9804C10.3075 10.9804 10.979 10.3088 10.979 9.48036C10.979 8.65193 10.3075 7.98036 9.47903 7.98036C8.6506 7.98036 7.97903 8.65193 7.97903 9.48036C7.97903 10.3088 8.6506 10.9804 9.47903 10.9804ZM16.5181 15.0188C16.5181 15.8473 15.8465 16.5188 15.0181 16.5188C14.1897 16.5188 13.5181 15.8473 13.5181 15.0188C13.5181 14.1904 14.1897 13.5188 15.0181 13.5188C15.8465 13.5188 16.5181 14.1904 16.5181 15.0188Z" fill="black"/>
</svg>
