<svg width="24" height="24" viewBox="0 0 24 24" fill="none" xmlns="http://www.w3.org/2000/svg">
<path d="M15.8099 9.04175C15.9076 8.94412 15.9076 8.78583 15.8099 8.6882C15.7123 8.59057 15.554 8.59057 15.4564 8.6882L8.68716 15.4574C8.58953 15.5551 8.58953 15.7134 8.68716 15.811C8.78479 15.9086 8.94308 15.9086 9.04072 15.811L15.8099 9.04175Z" fill="black"/>
<path d="M9.47917 9.98036C9.75532 9.98036 9.97917 9.7565 9.97917 9.48036C9.97917 9.20422 9.75532 8.98036 9.47917 8.98036C9.20303 8.98036 8.97917 9.20422 8.97917 9.48036C8.97917 9.7565 9.20303 9.98036 9.47917 9.98036Z" fill="black"/>
<path d="M15.5182 15.0188C15.5182 15.295 15.2944 15.5188 15.0182 15.5188C14.7421 15.5188 14.5182 15.295 14.5182 15.0188C14.5182 14.7427 14.7421 14.5188 15.0182 14.5188C15.2944 14.5188 15.5182 14.7427 15.5182 15.0188Z" fill="black"/>
<path fill-rule="evenodd" clip-rule="evenodd" d="M14.2646 2.22632C13.0679 0.849038 10.9295 0.849037 9.73279 2.22632C9.16671 2.87784 8.30479 3.19156 7.45236 3.05633C5.65035 2.77048 4.01218 4.14506 3.98078 5.96934C3.96593 6.83229 3.5073 7.62665 2.76739 8.07099C1.20322 9.01032 0.831882 11.1163 1.98045 12.534C2.52376 13.2046 2.68304 14.1079 2.40185 14.9239C1.80742 16.6489 2.87666 18.5009 4.66776 18.8486C5.51503 19.013 6.21768 19.6026 6.52679 20.4085C7.18024 22.112 9.18975 22.8434 10.7853 21.9584C11.5401 21.5398 12.4573 21.5398 13.2121 21.9584C14.8077 22.8434 16.8172 22.112 17.4706 20.4085C17.7797 19.6026 18.4824 19.013 19.3296 18.8486C21.1207 18.5009 22.19 16.6489 21.5956 14.9239C21.3144 14.1079 21.4736 13.2046 22.017 12.534C23.1655 11.1163 22.7942 9.01032 21.23 8.07099C20.4901 7.62665 20.0315 6.83229 20.0166 5.96934C19.9852 4.14506 18.3471 2.77048 16.545 3.05633C15.6926 3.19156 14.8307 2.87784 14.2646 2.22632ZM10.1102 2.55426C11.1076 1.40639 12.8898 1.40639 13.8872 2.55426C14.5664 3.33599 15.6006 3.71241 16.6234 3.55016C18.1252 3.31192 19.4905 4.45754 19.5167 5.97794C19.5345 7.01337 20.0848 7.96649 20.9726 8.49964C22.2762 9.28251 22.5857 11.0377 21.6285 12.2192C20.9766 13.0239 20.7854 14.1077 21.1228 15.0868C21.6183 16.5244 20.7271 18.0679 19.2344 18.3577C18.2178 18.5551 17.3747 19.2625 17.0038 20.2294C16.4592 21.6492 14.7844 22.2587 13.4546 21.5212C12.549 21.0189 11.4484 21.0189 10.5428 21.5212C9.21301 22.2587 7.53822 21.6492 6.99362 20.2294C6.62274 19.2625 5.77965 18.5551 4.76305 18.3577C3.27029 18.0679 2.37916 16.5244 2.87457 15.0868C3.21196 14.1077 3.02085 13.0239 2.36894 12.2192C1.4117 11.0377 1.72118 9.28251 3.0248 8.49964C3.9126 7.96649 4.46288 7.01337 4.48071 5.97794C4.50688 4.45754 5.87218 3.31192 7.37402 3.55016C8.39682 3.71241 9.43101 3.33599 10.1102 2.55426Z" fill="black"/>
</svg>
