<svg width="24" height="24" viewBox="0 0 24 24" fill="none" xmlns="http://www.w3.org/2000/svg">
<path fill-rule="evenodd" clip-rule="evenodd" d="M4.00134 1.5C4.0014 0.671611 4.67295 5.68216e-07 5.50134 5.68216e-07L18.5004 0C19.3286 0.000262706 20.0004 0.671735 20.0004 1.5L20.0004 19.5C20.0004 20.3283 19.3286 20.9997 18.5004 21H18.2504V24H15.7504V21H13.2504V24H10.7504V21H8.75037V24H6.25037L6.25037 21H5.50037C4.67193 21 4.00037 20.3284 4.00037 19.5L4.00134 1.5ZM15.4789 16.7529L16.7308 15.501V12.2832L15.4789 11.0322L14.2308 12.2803V15.5049L15.4789 16.7529ZM15.4789 9.96973L16.7308 8.71777L16.7308 5.5L15.4799 4.24902L14.2308 5.49805L14.2308 8.72168L15.4789 9.96973ZM10.475 18.5332H13.6986L14.9486 17.2832L13.6976 16.0332H10.4769L9.22595 17.2842L10.475 18.5332ZM10.4769 4.9668L13.6996 4.9668L14.9486 3.71777L13.6976 2.4668H10.4789L9.2279 3.71777L10.4769 4.9668ZM10.476 11.75H13.6986L14.9476 10.501L13.6967 9.25H10.4789L9.2279 10.501L10.476 11.75ZM8.69568 16.7539L9.94763 15.502L9.94763 12.2832L8.69665 11.0322L7.44763 12.2813V15.5059L8.69568 16.7539ZM8.69665 9.96973L9.94763 8.71875V5.5L8.69665 4.24902L7.44763 5.49805L7.44763 8.7207L8.69665 9.96973Z" fill="black"/>
</svg>
