<svg width="24" height="24" viewBox="0 0 24 24" fill="none" xmlns="http://www.w3.org/2000/svg">
<path d="M15.4789 11.0322L16.7308 12.2832V15.501L15.4789 16.7529L14.2308 15.5049V12.2803L15.4789 11.0322Z" fill="black"/>
<path d="M15.4799 4.24902L16.7308 5.5L16.7308 8.71777L15.4789 9.96973L14.2308 8.72168L14.2308 5.49805L15.4799 4.24902Z" fill="black"/>
<path d="M10.4789 9.25H13.6967L14.9476 10.501L13.6986 11.75H10.476L9.2279 10.501L10.4789 9.25Z" fill="black"/>
<path d="M8.69665 11.0322L9.94763 12.2832L9.94763 15.502L8.69568 16.7539L7.44763 15.5059V12.2813L8.69665 11.0322Z" fill="black"/>
<path d="M8.69665 4.24902L9.94763 5.5V8.71875L8.69665 9.96973L7.44763 8.7207L7.44763 5.49805L8.69665 4.24902Z" fill="black"/>
<path fill-rule="evenodd" clip-rule="evenodd" d="M4.00134 1.5C4.0014 0.671705 4.67308 0.000152155 5.50134 5.68216e-07L18.5004 0C19.3286 0.00026331 20.0004 0.671736 20.0004 1.5L20.0004 19.5L19.9926 19.6533C19.9209 20.3591 19.3594 20.9203 18.6537 20.9922L18.5004 21H18.2504V24H15.7504V21H13.2504V24H10.7504V21H8.75037V24H6.25037L6.25037 21H5.50037L5.34705 20.9922C4.64111 20.9205 4.07987 20.3593 4.00818 19.6533L4.00037 19.5L4.00134 1.5ZM10.4418 18.5L9.22595 17.2842L10.4769 16.0332H13.6976L14.9486 17.2832L13.7318 18.5H17.5004L17.5004 2.5L13.7308 2.5L14.9486 3.71777L13.6996 4.9668L10.4769 4.9668L9.2279 3.71777L10.4457 2.5L6.50134 2.5L6.50037 18.5H10.4418Z" fill="black"/>
</svg>
