<svg width="24" height="24" viewBox="0 0 24 24" fill="none" xmlns="http://www.w3.org/2000/svg">
<path fill-rule="evenodd" clip-rule="evenodd" d="M4.00134 1.5C4.0014 0.671611 4.67295 5.68216e-07 5.50134 5.68216e-07L18.5004 0C19.3286 0.000262706 20.0004 0.671735 20.0004 1.5L20.0004 19.5C20.0004 20.3283 19.3286 20.9997 18.5004 21H17.5004V24H16.5004V21H12.5004V24H11.5004V21H8.00037V24H7.00037L7.00037 21H5.50037C4.67193 21 4.00037 20.3284 4.00037 19.5L4.00134 1.5ZM15.4799 16.7529L15.9808 16.252V11.5322L15.4799 11.0312L14.9808 11.5303V16.2539L15.4799 16.7529ZM15.4799 9.96973L15.9808 9.46875L15.9808 4.74805L15.4808 4.24805L14.9808 4.74805L14.9808 9.4707L15.4799 9.96973ZM9.72595 17.7832H14.4496L14.9496 17.2832L14.4486 16.7832H9.72791L9.22693 17.2842L9.72595 17.7832ZM9.72693 11H14.4506L14.9496 10.501L14.4486 10H9.7279L9.2279 10.5L9.72693 11ZM9.72888 4.2168L14.4496 4.2168L14.9496 3.7168L14.4496 3.2168L9.72888 3.2168L9.22888 3.7168L9.72888 4.2168ZM8.69666 16.7539L9.19763 16.2529L9.19763 11.5322L8.69665 11.0312L8.19763 11.5303L8.19763 16.2549L8.69666 16.7539ZM8.69763 9.96973L9.19763 9.46973V4.74805L8.69763 4.24805L8.19763 4.74805V9.46973L8.69763 9.96973Z" fill="black"/>
</svg>
