<svg width="24" height="24" viewBox="0 0 24 24" fill="none" xmlns="http://www.w3.org/2000/svg">
<path fill-rule="evenodd" clip-rule="evenodd" d="M4.00134 1.5C4.0014 0.671611 4.67295 5.68209e-07 5.50134 5.68209e-07L18.5004 0C19.3286 0.000262706 20.0004 0.671735 20.0004 1.5L20.0004 19.5C20.0004 20.3283 19.3286 20.9997 18.5004 21H17.7504V24H16.2504V21H12.7504V24H11.2504V21H8.25037V24H6.75037L6.75037 21H5.50037C4.67193 21 4.00037 20.3284 4.00037 19.5L4.00134 1.5ZM15.4799 16.7539L16.2308 16.0029V11.7842L15.4789 11.0322L14.7308 11.7803V16.0049L15.4799 16.7539ZM15.4789 9.9707L16.2308 9.21875L16.2308 5L15.4799 4.24902L14.7308 4.99805L14.7308 9.22168L15.4789 9.9707ZM9.97498 18.0332H14.2006L14.9496 17.2842L14.1976 16.5332H9.97791L9.22693 17.2852L9.97498 18.0332ZM9.97595 11.25H14.2006L14.9486 10.502L14.1967 9.75H9.97888L9.2279 10.501L9.97595 11.25ZM9.97693 4.4668L14.1996 4.4668L14.9486 3.71777L14.1976 2.9668L9.97888 2.9668L9.2279 3.71777L9.97693 4.4668ZM8.69568 16.7539L9.44763 16.002L9.44763 11.7832L8.69665 11.0322L7.94763 11.7812V16.0059L8.69568 16.7539ZM8.69665 9.96973L9.44763 9.21875V5L8.69665 4.24902L7.94763 4.99805L7.94763 9.2207L8.69665 9.96973Z" fill="black"/>
</svg>
