<svg width="24" height="24" viewBox="0 0 24 24" fill="none" xmlns="http://www.w3.org/2000/svg">
<path fill-rule="evenodd" clip-rule="evenodd" d="M4.00134 1.5C4.0014 0.671611 4.67295 5.68209e-07 5.50134 5.68209e-07L18.5004 0C19.3286 0.000262706 20.0004 0.671735 20.0004 1.5L20.0004 19.5C20.0004 20.3283 19.3286 20.9997 18.5004 21H18.0004V24H16.0004V21H13.0004V24H11.0004V21H8.50037V24H6.50037L6.50037 21H5.50037C4.67193 21 4.00037 20.3284 4.00037 19.5L4.00134 1.5ZM15.4799 16.7529L16.4808 15.752V12.0322L15.4799 11.0312L14.4808 12.0303V15.7539L15.4799 16.7529ZM15.4789 9.96973L16.4808 8.96777L16.4808 5.24902L15.4799 4.24805L14.4808 5.24707L14.4808 8.9707L15.4789 9.96973ZM10.225 18.2832H13.9496L14.9496 17.2832L13.9486 16.2832H10.2269L9.22595 17.2842L10.225 18.2832ZM10.2269 11.5H13.9486L14.9486 10.5L13.9486 9.5H10.2279L9.2279 10.5L10.2269 11.5ZM10.2279 4.7168L13.9486 4.7168L14.9486 3.7168L13.9486 2.7168L10.2279 2.7168L9.2279 3.7168L10.2279 4.7168ZM8.69568 16.7539L9.69763 15.752L9.69763 12.0322L8.69665 11.0312L7.69763 12.0303V15.7549L8.69568 16.7539ZM8.69665 9.96875L9.69763 8.96777V5.24902L8.69665 4.24805L7.69763 5.24707L7.69763 8.96973L8.69665 9.96875Z" fill="black"/>
</svg>
