<svg width="24" height="24" viewBox="0 0 24 24" fill="none" xmlns="http://www.w3.org/2000/svg">
<path d="M15.48 11.0312L16.231 11.7822V16.002L15.48 16.7529L14.731 16.0039V11.7803L15.48 11.0312Z" fill="black"/>
<path d="M15.481 4.24805L16.231 4.99805L16.231 9.21875L15.48 9.96973L14.731 9.21973L14.731 4.99805L15.481 4.24805Z" fill="black"/>
<path d="M9.97803 16.5332H14.1987L14.9497 17.2832L14.1997 18.0332H9.97607L9.22705 17.2842L9.97803 16.5332Z" fill="black"/>
<path d="M9.97803 9.75H14.1987L14.9497 10.501L14.2007 11.25H9.97705L9.22803 10.5L9.97803 9.75Z" fill="black"/>
<path d="M9.979 2.9668L14.1997 2.9668L14.9497 3.7168L14.1997 4.4668L9.979 4.4668L9.229 3.7168L9.979 2.9668Z" fill="black"/>
<path d="M8.69678 11.0312L9.44775 11.7822L9.44775 16.0029L8.69678 16.7539L7.94775 16.0039V11.7803L8.69678 11.0312Z" fill="black"/>
<path d="M8.69775 4.24805L9.44775 4.99805V9.21973L8.69775 9.96973L7.94775 9.21973L7.94775 4.99805L8.69775 4.24805Z" fill="black"/>
<path fill-rule="evenodd" clip-rule="evenodd" d="M4.00146 1.5C4.00152 0.671705 4.6732 0.000152155 5.50146 5.68209e-07L18.5005 0C19.3287 0.00026331 20.0005 0.671736 20.0005 1.5L20.0005 19.5L19.9927 19.6533C19.921 20.3591 19.3596 20.9203 18.6538 20.9922L18.5005 21H17.7505V24H16.2505V21H12.7505V24H11.2505V21H8.25049V24H6.75049L6.75049 21H5.50049L5.34717 20.9922C4.64123 20.9205 4.07999 20.3593 4.0083 19.6533L4.00049 19.5L4.00146 1.5ZM18.5005 19.5L18.5005 1.5L5.50146 1.5L5.50049 19.5H18.5005Z" fill="black"/>
</svg>
