<svg width="24" height="24" viewBox="0 0 24 24" fill="none" xmlns="http://www.w3.org/2000/svg">
<path fill-rule="evenodd" clip-rule="evenodd" d="M16.75 5.75018C15.9216 5.75018 15.25 6.42176 15.25 7.25018V16.2502C15.25 17.0786 15.9216 17.7502 16.75 17.7502H17.5V22.2502C17.5 22.3883 17.6119 22.5002 17.75 22.5002C17.8881 22.5002 18 22.3883 18 22.2502V17.7502H18.75C19.5784 17.7502 20.25 17.0786 20.25 16.2502V7.25018C20.25 6.42176 19.5784 5.75018 18.75 5.75018H18V1.25C18 1.11193 17.8881 1 17.75 1C17.6119 1 17.5 1.11193 17.5 1.25V5.75018H16.75ZM15.75 7.25018V16.2502C15.75 16.8025 16.1977 17.2502 16.75 17.2502H18.75C19.3023 17.2502 19.75 16.8025 19.75 16.2502V7.25018C19.75 6.6979 19.3023 6.25018 18.75 6.25018H16.75C16.1977 6.25018 15.75 6.6979 15.75 7.25018Z" fill="black"/>
<path fill-rule="evenodd" clip-rule="evenodd" d="M5.25 2.75018C4.42157 2.75018 3.75 3.42176 3.75 4.25018V19.2502C3.75 20.0786 4.42157 20.7502 5.25 20.7502H6V22.2502C6 22.3883 6.11193 22.5002 6.25 22.5002C6.38807 22.5002 6.5 22.3883 6.5 22.2502V20.7502H7.25C8.07843 20.7502 8.75 20.0786 8.75 19.2502V4.25018C8.75 3.42176 8.07843 2.75018 7.25 2.75018H6.5V1.25C6.5 1.11193 6.38807 1 6.25 1C6.11193 1 6 1.11193 6 1.25V2.75018H5.25ZM4.25 4.25018V19.2502C4.25 19.8025 4.69771 20.2502 5.25 20.2502H7.25C7.80228 20.2502 8.25 19.8025 8.25 19.2502V4.25018C8.25 3.6979 7.80228 3.25018 7.25 3.25018H5.25C4.69772 3.25018 4.25 3.6979 4.25 4.25018Z" fill="black"/>
</svg>
