<svg width="24" height="24" viewBox="0 0 24 24" fill="none" xmlns="http://www.w3.org/2000/svg">
<path d="M7.00024 17.5C6.44796 17.5 6.00024 17.9477 6.00024 18.5V21.5C6.00024 22.0523 6.44796 22.5 7.00024 22.5H17.0002C17.5525 22.5 18.0002 22.0523 18.0002 21.5V18.5C18.0002 17.9477 17.5525 17.5 17.0002 17.5H7.00024Z" fill="black"/>
<path d="M22.5002 15.5C23.0525 15.5 23.5002 15.0523 23.5002 14.5C23.5002 13.9477 23.0525 13.5 22.5002 13.5L1.5 13.5C0.947716 13.5 0.5 13.9477 0.5 14.5C0.5 15.0523 0.947716 15.5 1.5 15.5L22.5002 15.5Z" fill="black"/>
<path d="M4.00024 4.5C3.44796 4.5 3.00024 4.94772 3.00024 5.5V8.5C3.00024 9.05229 3.44796 9.5 4.00024 9.5H20.0002C20.5525 9.5 21.0002 9.05229 21.0002 8.5V5.5C21.0002 4.94772 20.5525 4.5 20.0002 4.5H4.00024Z" fill="black"/>
<path d="M23.5002 1.5C23.5002 2.05228 23.0525 2.5 22.5002 2.5H1.50006C0.947777 2.5 0.500061 2.05228 0.500061 1.5C0.500061 0.947714 0.947777 0.5 1.50006 0.5H22.5002C23.0525 0.5 23.5002 0.947716 23.5002 1.5Z" fill="black"/>
</svg>
