<svg width="24" height="24" viewBox="0 0 24 24" fill="none" xmlns="http://www.w3.org/2000/svg">
<path fill-rule="evenodd" clip-rule="evenodd" d="M18.3751 6.37524C17.5467 6.37524 16.8751 7.04682 16.8751 7.87524V16.8752C16.8751 17.7037 17.5467 18.3752 18.3751 18.3752H20.3751C21.2035 18.3752 21.8751 17.7037 21.8751 16.8752V7.87524C21.8751 7.04682 21.2035 6.37524 20.3751 6.37524H18.3751ZM17.3751 7.87524V16.8752C17.3751 17.4275 17.8228 17.8752 18.3751 17.8752H20.3751C20.9274 17.8752 21.3751 17.4275 21.3751 16.8752V7.87524C21.3751 7.32296 20.9274 6.87524 20.3751 6.87524H18.3751C17.8228 6.87524 17.3751 7.32296 17.3751 7.87524Z" fill="black"/>
<path d="M15.1251 22.8752C15.1251 23.0133 15.0132 23.1252 14.8751 23.1252C14.7371 23.1252 14.6251 23.0133 14.6251 22.8752L14.6251 1.87506C14.6251 1.73699 14.7371 1.62506 14.8751 1.62506C15.0132 1.62506 15.1251 1.73699 15.1251 1.87506L15.1251 22.8752Z" fill="black"/>
<path fill-rule="evenodd" clip-rule="evenodd" d="M5.87512 3.37518C5.0467 3.37518 4.37512 4.04676 4.37512 4.87518V19.8752C4.37512 20.7036 5.0467 21.3752 5.87512 21.3752H7.87512C8.70355 21.3752 9.37512 20.7036 9.37512 19.8752V4.87518C9.37512 4.04676 8.70355 3.37518 7.87512 3.37518H5.87512ZM4.87512 4.87518V19.8752C4.87512 20.4275 5.32284 20.8752 5.87512 20.8752H7.87512C8.42741 20.8752 8.87512 20.4275 8.87512 19.8752V4.87518C8.87512 4.3229 8.42741 3.87518 7.87512 3.87518H5.87512C5.32284 3.87518 4.87512 4.3229 4.87512 4.87518Z" fill="black"/>
<path d="M2.37512 23.1252C2.51319 23.1252 2.62512 23.0133 2.62512 22.8752V1.875C2.62512 1.73693 2.51319 1.625 2.37512 1.625C2.23705 1.625 2.12512 1.73693 2.12512 1.875V22.8752C2.12512 23.0133 2.23705 23.1252 2.37512 23.1252Z" fill="black"/>
</svg>
