<svg width="24" height="24" viewBox="0 0 24 24" fill="none" xmlns="http://www.w3.org/2000/svg">
<path d="M7 6.5C6.44772 6.5 6 6.05228 6 5.5V2.5C6 1.94772 6.44771 1.5 7 1.5H17C17.5523 1.5 18 1.94772 18 2.5V5.5C18 6.05228 17.5523 6.5 17 6.5H7Z" fill="black"/>
<path d="M22.4999 8.5C23.0522 8.5 23.4999 8.94772 23.4999 9.5C23.4999 10.0523 23.0522 10.5 22.4999 10.5L1.49976 10.5C0.947472 10.5 0.499756 10.0523 0.499756 9.5C0.499756 8.94772 0.947472 8.5 1.49976 8.5L22.4999 8.5Z" fill="black"/>
<path d="M4 19.5C3.44772 19.5 3 19.0523 3 18.5V15.5C3 14.9477 3.44772 14.5 4 14.5H20C20.5523 14.5 21 14.9477 21 15.5V18.5C21 19.0523 20.5523 19.5 20 19.5H4Z" fill="black"/>
<path d="M23.5 22.5C23.5 21.9477 23.0523 21.5 22.5 21.5H1.49982C0.947533 21.5 0.499817 21.9477 0.499817 22.5C0.499817 23.0523 0.947533 23.5 1.49982 23.5H22.5C23.0523 23.5 23.5 23.0523 23.5 22.5Z" fill="black"/>
</svg>
