<svg width="24" height="24" viewBox="0 0 24 24" fill="none" xmlns="http://www.w3.org/2000/svg">
<path d="M7 8.5C6.44772 8.5 6 8.05228 6 7.5V4.5C6 3.94772 6.44771 3.5 7 3.5H17C17.5523 3.5 18 3.94772 18 4.5V7.5C18 8.05228 17.5523 8.5 17 8.5H7Z" fill="black"/>
<path d="M4 20C3.44772 20 3 19.5523 3 19V16C3 15.4477 3.44772 15 4 15H20C20.5523 15 21 15.4477 21 16V19C21 19.5523 20.5523 20 20 20H4Z" fill="black"/>
<path d="M18.5001 6.75H22.5001C22.9143 6.75 23.2501 6.41421 23.2501 6C23.2501 5.58579 22.9143 5.25 22.5001 5.25H18.5001V6.75Z" fill="black"/>
<path d="M5.50006 6.75V5.25H1.49988C1.08566 5.25 0.749878 5.58579 0.749878 6C0.749878 6.41421 1.08566 6.75 1.49988 6.75L5.50006 6.75Z" fill="black"/>
<path d="M22.5001 18.25H21.5001V16.75H22.5001C22.9143 16.75 23.2501 17.0858 23.2501 17.5C23.2501 17.9142 22.9143 18.25 22.5001 18.25Z" fill="black"/>
<path d="M2.50006 16.75V18.25H1.49988C1.08566 18.25 0.749878 17.9142 0.749878 17.5C0.749878 17.0858 1.08566 16.75 1.49988 16.75H2.50006Z" fill="black"/>
</svg>
