<svg width="24" height="25" viewBox="0 0 24 25" fill="none" xmlns="http://www.w3.org/2000/svg">
<path d="M18.3751 7.62524C18.3751 7.07296 18.8228 6.62524 19.3751 6.62524H22.3751C22.9274 6.62524 23.3751 7.07296 23.3751 7.62524V17.6252C23.3751 18.1775 22.9274 18.6252 22.3751 18.6252H19.3751C18.8228 18.6252 18.3751 18.1775 18.3751 17.6252V7.62524Z" fill="black"/>
<path d="M16.1251 23.1252C16.1251 23.8155 15.5655 24.3752 14.8751 24.3752C14.1848 24.3752 13.6251 23.8155 13.6251 23.1252L13.6251 2.125C13.6251 1.43464 14.1848 0.875 14.8751 0.875C15.5655 0.875 16.1251 1.43464 16.1251 2.125L16.1251 23.1252Z" fill="black"/>
<path d="M5.37512 4.62524C5.37512 4.07296 5.82284 3.62524 6.37512 3.62524H9.37512C9.92741 3.62524 10.3751 4.07296 10.3751 4.62524V20.6252C10.3751 21.1775 9.92741 21.6252 9.37512 21.6252H6.37512C5.82284 21.6252 5.37512 21.1775 5.37512 20.6252V4.62524Z" fill="black"/>
<path d="M1.87512 24.3752C2.56548 24.3752 3.12512 23.8156 3.12512 23.1252V2.12506C3.12512 1.43471 2.56548 0.875061 1.87512 0.875061C1.18476 0.875061 0.625122 1.43471 0.625122 2.12506V23.1252C0.625122 23.8156 1.18477 24.3752 1.87512 24.3752Z" fill="black"/>
</svg>
