<svg width="24" height="24" viewBox="0 0 24 24" fill="none" xmlns="http://www.w3.org/2000/svg">
<path d="M7.00024 6.5C6.44796 6.5 6.00024 6.05228 6.00024 5.5V2.5C6.00024 1.94772 6.44796 1.5 7.00024 1.5H17.0002C17.5525 1.5 18.0002 1.94772 18.0002 2.5V5.5C18.0002 6.05228 17.5525 6.5 17.0002 6.5H7.00024Z" fill="black"/>
<path d="M22.5002 8.5C23.0525 8.5 23.5002 8.94772 23.5002 9.5C23.5002 10.0523 23.0525 10.5 22.5002 10.5L1.5 10.5C0.947716 10.5 0.5 10.0523 0.5 9.5C0.5 8.94772 0.947716 8.5 1.5 8.5L22.5002 8.5Z" fill="black"/>
<path d="M4.00024 19.5C3.44796 19.5 3.00024 19.0523 3.00024 18.5V15.5C3.00024 14.9477 3.44796 14.5 4.00024 14.5H20.0002C20.5525 14.5 21.0002 14.9477 21.0002 15.5V18.5C21.0002 19.0523 20.5525 19.5 20.0002 19.5H4.00024Z" fill="black"/>
<path d="M23.5002 22.5C23.5002 21.9477 23.0525 21.5 22.5002 21.5H1.50006C0.947777 21.5 0.500061 21.9477 0.500061 22.5C0.500061 23.0523 0.947777 23.5 1.50006 23.5H22.5002C23.0525 23.5 23.5002 23.0523 23.5002 22.5Z" fill="black"/>
</svg>
