<svg width="26" height="25" viewBox="0 0 26 25" fill="none" xmlns="http://www.w3.org/2000/svg">
<path fill-rule="evenodd" clip-rule="evenodd" d="M6.12512 6.375C6.95355 6.375 7.62512 7.04657 7.62512 7.875V16.875C7.62512 17.7034 6.95355 18.375 6.12512 18.375H2.12512C1.2967 18.375 0.625122 17.7034 0.625122 16.875V7.875C0.625122 7.04657 1.29669 6.375 2.12512 6.375H6.12512ZM3.12512 8.875H5.12512V15.875H3.12512V8.875Z" fill="black"/>
<path d="M9.87512 22.8752C9.87512 23.5655 10.4348 24.1252 11.1251 24.1252C11.8155 24.1252 12.3751 23.5655 12.3751 22.8752L12.3751 1.875C12.3751 1.18464 11.8155 0.625 11.1251 0.625C10.4348 0.625 9.87512 1.18464 9.87512 1.875L9.87512 22.8752Z" fill="black"/>
<path fill-rule="evenodd" clip-rule="evenodd" d="M19.1251 3.375C19.9535 3.375 20.6251 4.04657 20.6251 4.875V19.875C20.6251 20.7034 19.9535 21.375 19.1251 21.375H15.1251C14.2967 21.375 13.6251 20.7034 13.6251 19.875V4.875C13.6251 4.04657 14.2967 3.375 15.1251 3.375H19.1251ZM16.1251 5.875H18.1251V18.875H16.1251V5.875Z" fill="black"/>
<path d="M24.1251 24.1252C23.4348 24.1252 22.8751 23.5656 22.8751 22.8752V1.87506C22.8751 1.18471 23.4348 0.625061 24.1251 0.625061C24.8155 0.625061 25.3751 1.18471 25.3751 1.87506V22.8752C25.3751 23.5656 24.8155 24.1252 24.1251 24.1252Z" fill="black"/>
</svg>
