<svg width="24" height="24" viewBox="0 0 24 24" fill="none" xmlns="http://www.w3.org/2000/svg">
<path fill-rule="evenodd" clip-rule="evenodd" d="M6 5C6 5.82843 6.67157 6.5 7.5 6.5H16.5C17.3284 6.5 18 5.82843 18 5V2C18 1.17157 17.3284 0.5 16.5 0.5H7.5C6.67157 0.5 6 1.17157 6 2V5ZM8 2.5V4.5H16V2.5H8Z" fill="black"/>
<path d="M22.5002 8.5C23.0525 8.5 23.5002 8.94771 23.5002 9.5C23.5002 10.0523 23.0525 10.5 22.5002 10.5L1.5 10.5C0.947716 10.5 0.5 10.0523 0.5 9.5C0.5 8.94772 0.947716 8.5 1.5 8.5L22.5002 8.5Z" fill="black"/>
<path fill-rule="evenodd" clip-rule="evenodd" d="M3 18C3 18.8284 3.67157 19.5 4.5 19.5H19.5C20.3284 19.5 21 18.8284 21 18V15C21 14.1716 20.3284 13.5 19.5 13.5H4.5C3.67157 13.5 3 14.1716 3 15V18ZM5 15.5V17.5H19V15.5H5Z" fill="black"/>
<path d="M23.5002 22.5C23.5002 21.9477 23.0525 21.5 22.5002 21.5H1.50006C0.947777 21.5 0.500061 21.9477 0.500061 22.5C0.500061 23.0523 0.947777 23.5 1.50006 23.5H22.5002C23.0525 23.5 23.5002 23.0523 23.5002 22.5Z" fill="black"/>
</svg>
