<svg width="24" height="24" viewBox="0 0 24 24" fill="none" xmlns="http://www.w3.org/2000/svg">
<path d="M7.00012 8.5C6.44784 8.5 6.00012 8.05228 6.00012 7.5V4.5C6.00012 3.94772 6.44784 3.5 7.00012 3.5H17.0001C17.5524 3.5 18.0001 3.94772 18.0001 4.5V7.5C18.0001 8.05228 17.5524 8.5 17.0001 8.5H7.00012Z" fill="black"/>
<path d="M4.00012 20C3.44784 20 3.00012 19.5523 3.00012 19V16C3.00012 15.4477 3.44784 15 4.00012 15H20.0001C20.5524 15 21.0001 15.4477 21.0001 16V19C21.0001 19.5523 20.5524 20 20.0001 20H4.00012Z" fill="black"/>
<path d="M18.5002 6.75H22.5002C22.9144 6.75 23.2502 6.41421 23.2502 6C23.2502 5.58579 22.9144 5.25 22.5002 5.25H18.5002V6.75Z" fill="black"/>
<path d="M5.50018 6.75V5.25H1.5C1.08579 5.25 0.75 5.58579 0.75 6C0.75 6.41421 1.08579 6.75 1.5 6.75L5.50018 6.75Z" fill="black"/>
<path d="M22.5002 18.25H21.5002V16.75H22.5002C22.9144 16.75 23.2502 17.0858 23.2502 17.5C23.2502 17.9142 22.9144 18.25 22.5002 18.25Z" fill="black"/>
<path d="M2.50018 16.75V18.25H1.5C1.08579 18.25 0.75 17.9142 0.75 17.5C0.75 17.0858 1.08579 16.75 1.5 16.75H2.50018Z" fill="black"/>
</svg>
