<svg width="24" height="24" viewBox="0 0 24 24" fill="none" xmlns="http://www.w3.org/2000/svg">
<path fill-rule="evenodd" clip-rule="evenodd" d="M16.2501 5.75C15.4217 5.75 14.7501 6.42157 14.7501 7.25V16.25C14.7501 17.0784 15.4217 17.75 16.2501 17.75H19.2501C20.0785 17.75 20.7501 17.0784 20.7501 16.25V7.25C20.7501 6.42157 20.0785 5.75 19.2501 5.75H18.7501V1.25C18.7501 0.697716 18.3024 0.25 17.7501 0.25C17.1978 0.25 16.7501 0.697716 16.7501 1.25L16.7501 5.75H16.2501ZM18.7501 7.75H16.7501V15.75H18.7501V7.75Z" fill="black"/>
<path fill-rule="evenodd" clip-rule="evenodd" d="M4.75012 2.75C3.9217 2.75 3.25012 3.42157 3.25012 4.25V19.25C3.25012 20.0784 3.9217 20.75 4.75012 20.75H7.75012C8.57855 20.75 9.25012 20.0784 9.25012 19.25V4.25C9.25012 3.42157 8.57855 2.75 7.75012 2.75H7.25012V1.25C7.25012 0.697716 6.80241 0.25 6.25012 0.25C5.69784 0.25 5.25012 0.697716 5.25012 1.25V2.75H4.75012ZM7.25012 4.75H5.25012V18.75H7.25012V4.75Z" fill="black"/>
<path d="M16.7501 17.7502V22.2502C16.7501 22.8025 17.1978 23.2502 17.7501 23.2502C18.3024 23.2502 18.7501 22.8025 18.7501 22.2502V17.7502H16.7501Z" fill="black"/>
<path d="M5.25012 22.2502V20.7502H7.25012V22.2502C7.25012 22.8025 6.80241 23.2502 6.25012 23.2502C5.69784 23.2502 5.25012 22.8025 5.25012 22.2502Z" fill="black"/>
</svg>
