<svg width="24" height="24" viewBox="0 0 24 24" fill="none" xmlns="http://www.w3.org/2000/svg">
<path d="M15.2501 6.75012C15.2501 6.19784 15.6978 5.75012 16.2501 5.75012H19.2501C19.8024 5.75012 20.2501 6.19784 20.2501 6.75012V16.7501C20.2501 17.3024 19.8024 17.7501 19.2501 17.7501H16.2501C15.6978 17.7501 15.2501 17.3024 15.2501 16.7501V6.75012Z" fill="black"/>
<path d="M3.75012 3.75012C3.75012 3.19784 4.19784 2.75012 4.75012 2.75012H7.75012C8.30241 2.75012 8.75012 3.19784 8.75012 3.75012V19.7501C8.75012 20.3024 8.30241 20.7501 7.75012 20.7501H4.75012C4.19784 20.7501 3.75012 20.3024 3.75012 19.7501V3.75012Z" fill="black"/>
<path d="M16.7501 18.5002V22.2502C16.7501 22.8025 17.1978 23.2502 17.7501 23.2502C18.3024 23.2502 18.7501 22.8025 18.7501 22.2502V18.5002H16.7501Z" fill="black"/>
<path d="M16.7501 5.00018H18.7501V1.25C18.7501 0.697716 18.3024 0.25 17.7501 0.25C17.1978 0.25 16.7501 0.697716 16.7501 1.25L16.7501 5.00018Z" fill="black"/>
<path d="M5.25012 22.2502V21.5002H7.25012V22.2502C7.25012 22.8025 6.80241 23.2502 6.25012 23.2502C5.69784 23.2502 5.25012 22.8025 5.25012 22.2502Z" fill="black"/>
<path d="M7.25012 2.00018H5.25012V1.25C5.25012 0.697716 5.69784 0.25 6.25012 0.25C6.80241 0.25 7.25012 0.697716 7.25012 1.25V2.00018Z" fill="black"/>
</svg>
