<svg width="24" height="24" viewBox="0 0 24 24" fill="none" xmlns="http://www.w3.org/2000/svg">
<path d="M15.2501 6.75012C15.2501 6.19784 15.6978 5.75012 16.2501 5.75012H19.2501C19.8024 5.75012 20.2501 6.19784 20.2501 6.75012V16.7501C20.2501 17.3024 19.8024 17.7501 19.2501 17.7501H16.2501C15.6978 17.7501 15.2501 17.3024 15.2501 16.7501V6.75012Z" fill="black"/>
<path d="M3.75012 3.75012C3.75012 3.19784 4.19784 2.75012 4.75012 2.75012H7.75012C8.30241 2.75012 8.75012 3.19784 8.75012 3.75012V19.7501C8.75012 20.3024 8.30241 20.7501 7.75012 20.7501H4.75012C4.19784 20.7501 3.75012 20.3024 3.75012 19.7501V3.75012Z" fill="black"/>
<path d="M17.2501 18.2502V22.2502C17.2501 22.5263 17.474 22.7502 17.7501 22.7502C18.0263 22.7502 18.2501 22.5263 18.2501 22.2502V18.2502H17.2501Z" fill="black"/>
<path d="M17.2501 5.25018H18.2501V1.25C18.2501 0.973858 18.0263 0.75 17.7501 0.75C17.474 0.75 17.2501 0.973858 17.2501 1.25V5.25018Z" fill="black"/>
<path d="M5.75012 22.2502V21.2502H6.75012V22.2502C6.75012 22.5263 6.52626 22.7502 6.25012 22.7502C5.97398 22.7502 5.75012 22.5263 5.75012 22.2502Z" fill="black"/>
<path d="M6.75012 2.25018H5.75012V1.25C5.75012 0.973858 5.97398 0.75 6.25012 0.75C6.52626 0.75 6.75012 0.973858 6.75012 1.25V2.25018Z" fill="black"/>
</svg>
