<svg width="24" height="24" viewBox="0 0 24 24" fill="none" xmlns="http://www.w3.org/2000/svg">
<path fill-rule="evenodd" clip-rule="evenodd" d="M18.5 6.50024C17.6716 6.50024 17 7.17182 17 8.00024V17.0002C17 17.8287 17.6716 18.5002 18.5 18.5002H20.5C21.3284 18.5002 22 17.8287 22 17.0002V8.00024C22 7.17182 21.3284 6.50024 20.5 6.50024H18.5ZM18 8.00024V17.0002C18 17.2764 18.2239 17.5002 18.5 17.5002H20.5C20.7761 17.5002 21 17.2764 21 17.0002V8.00024C21 7.7241 20.7761 7.50024 20.5 7.50024H18.5C18.2239 7.50024 18 7.7241 18 8.00024Z" fill="black"/>
<path d="M15.5 23.0002C15.5 23.2764 15.2761 23.5002 15 23.5002C14.7239 23.5002 14.5 23.2764 14.5 23.0002L14.5 2.00006C14.5 1.72392 14.7239 1.50006 15 1.50006C15.2761 1.50006 15.5 1.72392 15.5 2.00006L15.5 23.0002Z" fill="black"/>
<path fill-rule="evenodd" clip-rule="evenodd" d="M6 3.50018C5.17157 3.50018 4.5 4.17176 4.5 5.00018V20.0002C4.5 20.8286 5.17157 21.5002 6 21.5002H8C8.82843 21.5002 9.5 20.8286 9.5 20.0002V5.00018C9.5 4.17176 8.82843 3.50018 8 3.50018H6ZM5.5 5.00018V20.0002C5.5 20.2763 5.72386 20.5002 6 20.5002H8C8.27614 20.5002 8.5 20.2763 8.5 20.0002V5.00018C8.5 4.72404 8.27614 4.50018 8 4.50018H6C5.72386 4.50018 5.5 4.72404 5.5 5.00018Z" fill="black"/>
<path d="M2.5 23.5002C2.77614 23.5002 3 23.2763 3 23.0002V2C3 1.72386 2.77614 1.5 2.5 1.5C2.22386 1.5 2 1.72386 2 2V23.0002C2 23.2763 2.22386 23.5002 2.5 23.5002Z" fill="black"/>
</svg>
