<svg width="24" height="24" viewBox="0 0 24 24" fill="none" xmlns="http://www.w3.org/2000/svg">
<path fill-rule="evenodd" clip-rule="evenodd" d="M6.00006 6C6.00006 6.82843 6.67163 7.5 7.50006 7.5H16.5001C17.3285 7.5 18.0001 6.82843 18.0001 6V4C18.0001 3.17157 17.3285 2.5 16.5001 2.5H7.50006C6.67163 2.5 6.00006 3.17157 6.00006 4V6ZM7.50006 7H16.5001C17.0523 7 17.5001 6.55228 17.5001 6V4C17.5001 3.44772 17.0523 3 16.5001 3H7.50006C6.94778 3 6.50006 3.44772 6.50006 4V6C6.50006 6.55228 6.94778 7 7.50006 7Z" fill="black"/>
<path d="M22.5001 9.25C22.6381 9.25 22.7501 9.36193 22.7501 9.5C22.7501 9.63807 22.6381 9.75 22.5001 9.75L1.49988 9.75C1.36181 9.75 1.24988 9.63807 1.24988 9.5C1.24988 9.36193 1.36181 9.25 1.49988 9.25L22.5001 9.25Z" fill="black"/>
<path fill-rule="evenodd" clip-rule="evenodd" d="M3 18.5C3 19.3284 3.67157 20 4.5 20H19.5C20.3284 20 21 19.3284 21 18.5V16.5C21 15.6716 20.3284 15 19.5 15H4.5C3.67157 15 3 15.6716 3 16.5V18.5ZM4.5 19.5H19.5C20.0523 19.5 20.5 19.0523 20.5 18.5V16.5C20.5 15.9477 20.0523 15.5 19.5 15.5H4.5C3.94772 15.5 3.5 15.9477 3.5 16.5V18.5C3.5 19.0523 3.94772 19.5 4.5 19.5Z" fill="black"/>
<path d="M22.75 22C22.75 21.8619 22.6381 21.75 22.5 21.75H1.49982C1.36175 21.75 1.24982 21.8619 1.24982 22C1.24982 22.1381 1.36175 22.25 1.49982 22.25H22.5C22.6381 22.25 22.75 22.1381 22.75 22Z" fill="black"/>
</svg>
