<svg width="24" height="24" viewBox="0 0 24 24" fill="none" xmlns="http://www.w3.org/2000/svg">
<path d="M6 6.50024C6 5.94796 5.55228 5.50024 5 5.50024H2C1.44772 5.50024 1 5.94796 1 6.50024V16.5002C1 17.0525 1.44772 17.5002 2 17.5002H5C5.55228 17.5002 6 17.0525 6 16.5002V6.50024Z" fill="black"/>
<path d="M8 22.0002C8 22.5525 8.44772 23.0002 9 23.0002C9.55229 23.0002 10 22.5525 10 22.0002L10 1C10 0.447716 9.55229 0 9 0C8.44772 0 8 0.447716 8 1L8 22.0002Z" fill="black"/>
<path d="M19 3.50024C19 2.94796 18.5523 2.50024 18 2.50024H15C14.4477 2.50024 14 2.94796 14 3.50024V19.5002C14 20.0525 14.4477 20.5002 15 20.5002H18C18.5523 20.5002 19 20.0525 19 19.5002V3.50024Z" fill="black"/>
<path d="M22 23.0002C21.4477 23.0002 21 22.5525 21 22.0002V1.00006C21 0.447777 21.4477 6.10083e-05 22 6.10352e-05C22.5523 6.1062e-05 23 0.447777 23 1.00006V22.0002C23 22.5525 22.5523 23.0002 22 23.0002Z" fill="black"/>
</svg>
