<svg width="24" height="24" viewBox="0 0 24 24" fill="none" xmlns="http://www.w3.org/2000/svg">
<path fill-rule="evenodd" clip-rule="evenodd" d="M5 6C5.82843 6 6.5 6.67157 6.5 7.5V16.5C6.5 17.3284 5.82843 18 5 18H2C1.17157 18 0.5 17.3284 0.5 16.5V7.5C0.5 6.67157 1.17157 6 2 6H5ZM2.5 8H4.5V16H2.5V8Z" fill="black"/>
<path d="M8.5 22.5002C8.5 23.0525 8.94771 23.5002 9.5 23.5002C10.0523 23.5002 10.5 23.0525 10.5 22.5002L10.5 1.5C10.5 0.947716 10.0523 0.5 9.5 0.5C8.94772 0.5 8.5 0.947716 8.5 1.5L8.5 22.5002Z" fill="black"/>
<path fill-rule="evenodd" clip-rule="evenodd" d="M18 3C18.8284 3 19.5 3.67157 19.5 4.5V19.5C19.5 20.3284 18.8284 21 18 21H15C14.1716 21 13.5 20.3284 13.5 19.5V4.5C13.5 3.67157 14.1716 3 15 3H18ZM15.5 5H17.5V19H15.5V5Z" fill="black"/>
<path d="M22.5 23.5002C21.9477 23.5002 21.5 23.0525 21.5 22.5002V1.50006C21.5 0.947777 21.9477 0.500061 22.5 0.500061C23.0523 0.500061 23.5 0.947777 23.5 1.50006V22.5002C23.5 23.0525 23.0523 23.5002 22.5 23.5002Z" fill="black"/>
</svg>
