<svg width="24" height="24" viewBox="0 0 24 24" fill="none" xmlns="http://www.w3.org/2000/svg">
<path fill-rule="evenodd" clip-rule="evenodd" d="M18.375 6.37524C17.5466 6.37524 16.875 7.04682 16.875 7.87524V16.8752C16.875 17.7037 17.5466 18.3752 18.375 18.3752H20.375C21.2034 18.3752 21.875 17.7037 21.875 16.8752V7.87524C21.875 7.04682 21.2034 6.37524 20.375 6.37524H18.375ZM17.375 7.87524V16.8752C17.375 17.4275 17.8227 17.8752 18.375 17.8752H20.375C20.9273 17.8752 21.375 17.4275 21.375 16.8752V7.87524C21.375 7.32296 20.9273 6.87524 20.375 6.87524H18.375C17.8227 6.87524 17.375 7.32296 17.375 7.87524Z" fill="black"/>
<path d="M15.125 22.8752C15.125 23.0133 15.0131 23.1252 14.875 23.1252C14.7369 23.1252 14.625 23.0133 14.625 22.8752L14.625 1.87506C14.625 1.73699 14.7369 1.62506 14.875 1.62506C15.0131 1.62506 15.125 1.73699 15.125 1.87506L15.125 22.8752Z" fill="black"/>
<path fill-rule="evenodd" clip-rule="evenodd" d="M5.875 3.37518C5.04657 3.37518 4.375 4.04676 4.375 4.87518V19.8752C4.375 20.7036 5.04657 21.3752 5.875 21.3752H7.875C8.70343 21.3752 9.375 20.7036 9.375 19.8752V4.87518C9.375 4.04676 8.70343 3.37518 7.875 3.37518H5.875ZM4.875 4.87518V19.8752C4.875 20.4275 5.32272 20.8752 5.875 20.8752H7.875C8.42728 20.8752 8.875 20.4275 8.875 19.8752V4.87518C8.875 4.3229 8.42728 3.87518 7.875 3.87518H5.875C5.32272 3.87518 4.875 4.3229 4.875 4.87518Z" fill="black"/>
<path d="M2.375 23.1252C2.51307 23.1252 2.625 23.0133 2.625 22.8752V1.875C2.625 1.73693 2.51307 1.625 2.375 1.625C2.23693 1.625 2.125 1.73693 2.125 1.875V22.8752C2.125 23.0133 2.23693 23.1252 2.375 23.1252Z" fill="black"/>
</svg>
