<svg width="24" height="24" viewBox="0 0 24 24" fill="none" xmlns="http://www.w3.org/2000/svg">
<path d="M7.00024 7.5C6.44796 7.5 6.00024 7.05228 6.00024 6.5V3.5C6.00024 2.94772 6.44796 2.5 7.00024 2.5H17.0002C17.5525 2.5 18.0002 2.94772 18.0002 3.5V6.5C18.0002 7.05228 17.5525 7.5 17.0002 7.5H7.00024Z" fill="black"/>
<path d="M22.5002 9.25C22.6383 9.25 22.7502 9.36193 22.7502 9.5C22.7502 9.63807 22.6383 9.75 22.5002 9.75L1.50006 9.75C1.36199 9.75 1.25006 9.63807 1.25006 9.5C1.25006 9.36193 1.36199 9.25 1.50006 9.25L22.5002 9.25Z" fill="black"/>
<path d="M4.00024 20C3.44796 20 3.00024 19.5523 3.00024 19V16C3.00024 15.4477 3.44796 15 4.00024 15H20.0002C20.5525 15 21.0002 15.4477 21.0002 16V19C21.0002 19.5523 20.5525 20 20.0002 20H4.00024Z" fill="black"/>
<path d="M22.7502 22C22.7502 21.8619 22.6383 21.75 22.5002 21.75H1.5C1.36193 21.75 1.25 21.8619 1.25 22C1.25 22.1381 1.36193 22.25 1.5 22.25H22.5002C22.6383 22.25 22.7502 22.1381 22.7502 22Z" fill="black"/>
</svg>
