<svg width="24" height="24" viewBox="0 0 24 24" fill="none" xmlns="http://www.w3.org/2000/svg">
<path d="M15.2501 6.75012C15.2501 6.19784 15.6978 5.75012 16.2501 5.75012H19.2501C19.8024 5.75012 20.2501 6.19784 20.2501 6.75012V16.7501C20.2501 17.3024 19.8024 17.7501 19.2501 17.7501H16.2501C15.6978 17.7501 15.2501 17.3024 15.2501 16.7501V6.75012Z" fill="black"/>
<path d="M3.75012 3.75012C3.75012 3.19784 4.19784 2.75012 4.75012 2.75012H7.75012C8.30241 2.75012 8.75012 3.19784 8.75012 3.75012V19.7501C8.75012 20.3024 8.30241 20.7501 7.75012 20.7501H4.75012C4.19784 20.7501 3.75012 20.3024 3.75012 19.7501V3.75012Z" fill="black"/>
<path d="M17.5001 18.2502V22.2502C17.5001 22.3883 17.6121 22.5002 17.7501 22.5002C17.8882 22.5002 18.0001 22.3883 18.0001 22.2502V18.2502H17.5001Z" fill="black"/>
<path d="M17.5001 5.25018H18.0001V1.25C18.0001 1.11193 17.8882 1 17.7501 1C17.6121 1 17.5001 1.11193 17.5001 1.25V5.25018Z" fill="black"/>
<path d="M6.00012 22.2502V21.2502H6.50012V22.2502C6.50012 22.3883 6.38819 22.5002 6.25012 22.5002C6.11205 22.5002 6.00012 22.3883 6.00012 22.2502Z" fill="black"/>
<path d="M6.50012 2.25018H6.00012V1.25C6.00012 1.11193 6.11205 1 6.25012 1C6.38819 1 6.50012 1.11193 6.50012 1.25V2.25018Z" fill="black"/>
</svg>
