<svg width="24" height="24" viewBox="0 0 24 24" fill="none" xmlns="http://www.w3.org/2000/svg">
<path d="M7.00006 17C6.44778 17 6.00006 17.4477 6.00006 18V21C6.00006 21.5523 6.44778 22 7.00006 22H17.0001C17.5523 22 18.0001 21.5523 18.0001 21V18C18.0001 17.4477 17.5523 17 17.0001 17H7.00006Z" fill="black"/>
<path d="M22.5001 15.25C22.6381 15.25 22.7501 15.1381 22.7501 15C22.7501 14.8619 22.6381 14.75 22.5001 14.75L1.49988 14.75C1.36181 14.75 1.24988 14.8619 1.24988 15C1.24988 15.1381 1.36181 15.25 1.49988 15.25L22.5001 15.25Z" fill="black"/>
<path d="M4.00006 4.5C3.44778 4.5 3.00006 4.94772 3.00006 5.5V8.5C3.00006 9.05229 3.44778 9.5 4.00006 9.5H20.0001C20.5523 9.5 21.0001 9.05229 21.0001 8.5V5.5C21.0001 4.94772 20.5523 4.5 20.0001 4.5H4.00006Z" fill="black"/>
<path d="M22.75 2.5C22.75 2.63807 22.6381 2.75 22.5 2.75H1.49982C1.36175 2.75 1.24982 2.63807 1.24982 2.5C1.24982 2.36193 1.36175 2.25 1.49982 2.25H22.5C22.6381 2.25 22.75 2.36193 22.75 2.5Z" fill="black"/>
</svg>
