<svg width="24" height="24" viewBox="0 0 24 24" fill="none" xmlns="http://www.w3.org/2000/svg">
<path d="M7 17.75C6.44772 17.75 6 18.1977 6 18.75V21.75C6 22.3023 6.44771 22.75 7 22.75H17C17.5523 22.75 18 22.3023 18 21.75V18.75C18 18.1977 17.5523 17.75 17 17.75H7Z" fill="black"/>
<path d="M22.4999 15.5C23.1903 15.5 23.7499 14.9404 23.7499 14.25C23.7499 13.5596 23.1903 13 22.4999 13L1.49976 13C0.809401 13 0.249756 13.5596 0.249756 14.25C0.249756 14.9404 0.8094 15.5 1.49976 15.5L22.4999 15.5Z" fill="black"/>
<path d="M4 4.75C3.44772 4.75 3 5.19772 3 5.75V8.75C3 9.30229 3.44772 9.75 4 9.75H20C20.5523 9.75 21 9.30229 21 8.75V5.75C21 5.19772 20.5523 4.75 20 4.75H4Z" fill="black"/>
<path d="M23.75 1.25C23.75 1.94036 23.1904 2.5 22.5 2.5H1.49982C0.809462 2.5 0.249817 1.94036 0.249817 1.25C0.249817 0.559643 0.809462 0 1.49982 0H22.5C23.1904 0 23.75 0.559645 23.75 1.25Z" fill="black"/>
</svg>
