<svg width="25" height="25" viewBox="0 0 25 25" fill="none" xmlns="http://www.w3.org/2000/svg">
<path fill-rule="evenodd" clip-rule="evenodd" d="M19.25 5.75C18.4216 5.75 17.75 6.42157 17.75 7.25V16.25C17.75 17.0784 18.4216 17.75 19.25 17.75H23.25C24.0784 17.75 24.75 17.0784 24.75 16.25V7.25C24.75 6.42157 24.0784 5.75 23.25 5.75H19.25ZM22.25 8.25H20.25V15.25H22.25V8.25Z" fill="black"/>
<path d="M15.5 22.2502C15.5 22.9405 14.9404 23.5002 14.25 23.5002C13.5596 23.5002 13 22.9405 13 22.2502L13 1.25C13 0.559645 13.5596 0 14.25 0C14.9404 0 15.5 0.559645 15.5 1.25L15.5 22.2502Z" fill="black"/>
<path fill-rule="evenodd" clip-rule="evenodd" d="M6.25 2.75C5.42157 2.75 4.75 3.42157 4.75 4.25V19.25C4.75 20.0784 5.42157 20.75 6.25 20.75H10.25C11.0784 20.75 11.75 20.0784 11.75 19.25V4.25C11.75 3.42157 11.0784 2.75 10.25 2.75H6.25ZM9.25 5.25H7.25V18.25H9.25V5.25Z" fill="black"/>
<path d="M1.25 23.5002C1.94036 23.5002 2.5 22.9406 2.5 22.2502V1.25006C2.5 0.559706 1.94036 6.10016e-05 1.25 6.10352e-05C0.559643 6.10687e-05 0 0.559706 0 1.25006V22.2502C0 22.9406 0.559645 23.5002 1.25 23.5002Z" fill="black"/>
</svg>
