<svg width="24" height="24" viewBox="0 0 24 24" fill="none" xmlns="http://www.w3.org/2000/svg">
<path fill-rule="evenodd" clip-rule="evenodd" d="M6.00006 6C6.00006 6.82843 6.67163 7.5 7.50006 7.5H16.5001C17.3285 7.5 18.0001 6.82843 18.0001 6V4C18.0001 3.17157 17.3285 2.5 16.5001 2.5H7.50006C6.67163 2.5 6.00006 3.17157 6.00006 4V6ZM7.50006 6.5H16.5001C16.7762 6.5 17.0001 6.27614 17.0001 6V4C17.0001 3.72386 16.7762 3.5 16.5001 3.5H7.50006C7.22392 3.5 7.00006 3.72386 7.00006 4V6C7.00006 6.27614 7.22392 6.5 7.50006 6.5Z" fill="black"/>
<path d="M22.5001 9C22.7762 9 23.0001 9.22386 23.0001 9.5C23.0001 9.77614 22.7762 10 22.5001 10L1.49988 10C1.22374 10 0.999878 9.77614 0.999878 9.5C0.999878 9.22386 1.22374 9 1.49988 9L22.5001 9Z" fill="black"/>
<path fill-rule="evenodd" clip-rule="evenodd" d="M3 18.5C3 19.3284 3.67157 20 4.5 20H19.5C20.3284 20 21 19.3284 21 18.5V16.5C21 15.6716 20.3284 15 19.5 15H4.5C3.67157 15 3 15.6716 3 16.5V18.5ZM4.5 19H19.5C19.7761 19 20 18.7761 20 18.5V16.5C20 16.2239 19.7761 16 19.5 16H4.5C4.22386 16 4 16.2239 4 16.5V18.5C4 18.7761 4.22386 19 4.5 19Z" fill="black"/>
<path d="M23 22C23 21.7239 22.7761 21.5 22.5 21.5H1.49982C1.22367 21.5 0.999817 21.7239 0.999817 22C0.999817 22.2761 1.22367 22.5 1.49982 22.5H22.5C22.7761 22.5 23 22.2761 23 22Z" fill="black"/>
</svg>
