<svg width="24" height="24" viewBox="0 0 24 24" fill="none" xmlns="http://www.w3.org/2000/svg">
<path d="M7 8.5C6.44772 8.5 6 8.05228 6 7.5V4.5C6 3.94772 6.44771 3.5 7 3.5H17C17.5523 3.5 18 3.94772 18 4.5V7.5C18 8.05228 17.5523 8.5 17 8.5H7Z" fill="black"/>
<path d="M4 20C3.44772 20 3 19.5523 3 19V16C3 15.4477 3.44772 15 4 15H20C20.5523 15 21 15.4477 21 16V19C21 19.5523 20.5523 20 20 20H4Z" fill="black"/>
<path d="M18.5001 6.5H22.5001C22.7762 6.5 23.0001 6.27614 23.0001 6C23.0001 5.72386 22.7762 5.5 22.5001 5.5H18.5001V6.5Z" fill="black"/>
<path d="M5.50006 6.5V5.5H1.49988C1.22374 5.5 0.999878 5.72386 0.999878 6C0.999878 6.27614 1.22374 6.5 1.49988 6.5L5.50006 6.5Z" fill="black"/>
<path d="M22.5001 18H21.5001V17H22.5001C22.7762 17 23.0001 17.2239 23.0001 17.5C23.0001 17.7761 22.7762 18 22.5001 18Z" fill="black"/>
<path d="M2.50006 17V18H1.49988C1.22374 18 0.999878 17.7761 0.999878 17.5C0.999878 17.2239 1.22374 17 1.49988 17H2.50006Z" fill="black"/>
</svg>
