<svg width="24" height="24" viewBox="0 0 24 24" fill="none" xmlns="http://www.w3.org/2000/svg">
<path d="M15.25 6.75012C15.25 6.19784 15.6977 5.75012 16.25 5.75012H19.25C19.8023 5.75012 20.25 6.19784 20.25 6.75012V16.7501C20.25 17.3024 19.8023 17.7501 19.25 17.7501H16.25C15.6977 17.7501 15.25 17.3024 15.25 16.7501V6.75012Z" fill="black"/>
<path d="M3.75 3.75012C3.75 3.19784 4.19772 2.75012 4.75 2.75012H7.75C8.30229 2.75012 8.75 3.19784 8.75 3.75012V19.7501C8.75 20.3024 8.30229 20.7501 7.75 20.7501H4.75C4.19772 20.7501 3.75 20.3024 3.75 19.7501V3.75012Z" fill="black"/>
<path d="M17.25 18.2502V22.2502C17.25 22.5263 17.4739 22.7502 17.75 22.7502C18.0261 22.7502 18.25 22.5263 18.25 22.2502V18.2502H17.25Z" fill="black"/>
<path d="M17.25 5.25018H18.25V1.25C18.25 0.973858 18.0261 0.75 17.75 0.75C17.4739 0.75 17.25 0.973858 17.25 1.25V5.25018Z" fill="black"/>
<path d="M5.75 22.2502V21.2502H6.75V22.2502C6.75 22.5263 6.52614 22.7502 6.25 22.7502C5.97386 22.7502 5.75 22.5263 5.75 22.2502Z" fill="black"/>
<path d="M6.75 2.25018H5.75V1.25C5.75 0.973858 5.97386 0.75 6.25 0.75C6.52614 0.75 6.75 0.973858 6.75 1.25V2.25018Z" fill="black"/>
</svg>
