<svg width="24" height="24" viewBox="0 0 24 24" fill="none" xmlns="http://www.w3.org/2000/svg">
<path fill-rule="evenodd" clip-rule="evenodd" d="M16.5 6C15.6716 6 15 6.67157 15 7.5V16.5C15 17.3284 15.6716 18 16.5 18H19C19.8284 18 20.5 17.3284 20.5 16.5V7.5C20.5 6.67157 19.8284 6 19 6H18.75V1.5C18.75 1.08579 18.4142 0.75 18 0.75C17.5858 0.75 17.25 1.08579 17.25 1.5L17.25 6H16.5ZM16.5 7.5V16.5H19V7.5H16.5Z" fill="black"/>
<path fill-rule="evenodd" clip-rule="evenodd" d="M5 3C4.17157 3 3.5 3.67157 3.5 4.5V19.5C3.5 20.3284 4.17157 21 5 21H7.5C8.32843 21 9 20.3284 9 19.5V4.5C9 3.67157 8.32843 3 7.5 3H7.25V1.5C7.25 1.08579 6.91421 0.75 6.5 0.75C6.08579 0.75 5.75 1.08579 5.75 1.5V3H5ZM5 4.5V19.5H7.5V4.5L5 4.5Z" fill="black"/>
<path d="M17.25 18.0002V22.5002C17.25 22.9144 17.5858 23.2502 18 23.2502C18.4142 23.2502 18.75 22.9144 18.75 22.5002V18.0002H17.25Z" fill="black"/>
<path d="M5.75 22.5002V21.0002H7.25V22.5002C7.25 22.9144 6.91421 23.2502 6.5 23.2502C6.08579 23.2502 5.75 22.9144 5.75 22.5002Z" fill="black"/>
</svg>
