<svg width="24" height="24" viewBox="0 0 24 24" fill="none" xmlns="http://www.w3.org/2000/svg">
<path d="M7.00024 6.25C6.44796 6.25 6.00024 5.80228 6.00024 5.25V2.25C6.00024 1.69772 6.44796 1.25 7.00024 1.25H17.0002C17.5525 1.25 18.0002 1.69772 18.0002 2.25V5.25C18.0002 5.80228 17.5525 6.25 17.0002 6.25H7.00024Z" fill="black"/>
<path d="M22.5002 8.5C23.1905 8.5 23.7502 9.05964 23.7502 9.75C23.7502 10.4404 23.1905 11 22.5002 11L1.5 11C0.809645 11 0.25 10.4404 0.25 9.75C0.25 9.05964 0.809645 8.5 1.5 8.5L22.5002 8.5Z" fill="black"/>
<path d="M4.00024 19.25C3.44796 19.25 3.00024 18.8023 3.00024 18.25V15.25C3.00024 14.6977 3.44796 14.25 4.00024 14.25H20.0002C20.5525 14.25 21.0002 14.6977 21.0002 15.25V18.25C21.0002 18.8023 20.5525 19.25 20.0002 19.25H4.00024Z" fill="black"/>
<path d="M23.7502 22.75C23.7502 22.0596 23.1906 21.5 22.5002 21.5H1.50006C0.809706 21.5 0.250061 22.0596 0.250061 22.75C0.250061 23.4404 0.809706 24 1.50006 24H22.5002C23.1906 24 23.7502 23.4404 23.7502 22.75Z" fill="black"/>
</svg>
