<svg width="24" height="24" viewBox="0 0 24 24" fill="none" xmlns="http://www.w3.org/2000/svg">
<path d="M17 7.50024C17 6.94796 17.4477 6.50024 18 6.50024H21C21.5523 6.50024 22 6.94796 22 7.50024V17.5002C22 18.0525 21.5523 18.5002 21 18.5002H18C17.4477 18.5002 17 18.0525 17 17.5002V7.50024Z" fill="black"/>
<path d="M15.5 23.0002C15.5 23.2764 15.2761 23.5002 15 23.5002C14.7239 23.5002 14.5 23.2764 14.5 23.0002L14.5 2.00006C14.5 1.72392 14.7239 1.50006 15 1.50006C15.2761 1.50006 15.5 1.72392 15.5 2.00006L15.5 23.0002Z" fill="black"/>
<path d="M4.5 4.50024C4.5 3.94796 4.94772 3.50024 5.5 3.50024H8.5C9.05229 3.50024 9.5 3.94796 9.5 4.50024V20.5002C9.5 21.0525 9.05229 21.5002 8.5 21.5002H5.5C4.94772 21.5002 4.5 21.0525 4.5 20.5002V4.50024Z" fill="black"/>
<path d="M2.5 23.5002C2.77614 23.5002 3 23.2763 3 23.0002V2C3 1.72386 2.77614 1.5 2.5 1.5C2.22386 1.5 2 1.72386 2 2V23.0002C2 23.2763 2.22386 23.5002 2.5 23.5002Z" fill="black"/>
</svg>
