<svg width="24" height="24" viewBox="0 0 24 24" fill="none" xmlns="http://www.w3.org/2000/svg">
<path d="M15.25 6.75012C15.25 6.19784 15.6977 5.75012 16.25 5.75012H19.25C19.8023 5.75012 20.25 6.19784 20.25 6.75012V16.7501C20.25 17.3024 19.8023 17.7501 19.25 17.7501H16.25C15.6977 17.7501 15.25 17.3024 15.25 16.7501V6.75012Z" fill="black"/>
<path d="M3.75 3.75012C3.75 3.19784 4.19772 2.75012 4.75 2.75012H7.75C8.30229 2.75012 8.75 3.19784 8.75 3.75012V19.7501C8.75 20.3024 8.30229 20.7501 7.75 20.7501H4.75C4.19772 20.7501 3.75 20.3024 3.75 19.7501V3.75012Z" fill="black"/>
<path d="M16.75 18.5002V22.2502C16.75 22.8025 17.1977 23.2502 17.75 23.2502C18.3023 23.2502 18.75 22.8025 18.75 22.2502V18.5002H16.75Z" fill="black"/>
<path d="M16.75 5.00018H18.75V1.25C18.75 0.697716 18.3023 0.25 17.75 0.25C17.1977 0.25 16.75 0.697716 16.75 1.25L16.75 5.00018Z" fill="black"/>
<path d="M5.25 22.2502V21.5002H7.25V22.2502C7.25 22.8025 6.80229 23.2502 6.25 23.2502C5.69772 23.2502 5.25 22.8025 5.25 22.2502Z" fill="black"/>
<path d="M7.25 2.00018H5.25V1.25C5.25 0.697716 5.69771 0.25 6.25 0.25C6.80228 0.25 7.25 0.697716 7.25 1.25V2.00018Z" fill="black"/>
</svg>
