<svg width="24" height="24" viewBox="0 0 24 24" fill="none" xmlns="http://www.w3.org/2000/svg">
<path d="M6.37512 6.87524C6.37512 6.32296 5.92741 5.87524 5.37512 5.87524H2.37512C1.82284 5.87524 1.37512 6.32296 1.37512 6.87524V16.8752C1.37512 17.4275 1.82284 17.8752 2.37512 17.8752H5.37512C5.92741 17.8752 6.37512 17.4275 6.37512 16.8752V6.87524Z" fill="black"/>
<path d="M8.12512 22.3752C8.12512 22.7894 8.46091 23.1252 8.87512 23.1252C9.28934 23.1252 9.62512 22.7894 9.62512 22.3752L9.62512 1.375C9.62512 0.960787 9.28934 0.625 8.87512 0.625C8.46091 0.625 8.12512 0.960787 8.12512 1.375L8.12512 22.3752Z" fill="black"/>
<path d="M19.3751 3.87524C19.3751 3.32296 18.9274 2.87524 18.3751 2.87524H15.3751C14.8228 2.87524 14.3751 3.32296 14.3751 3.87524V19.8752C14.3751 20.4275 14.8228 20.8752 15.3751 20.8752H18.3751C18.9274 20.8752 19.3751 20.4275 19.3751 19.8752V3.87524Z" fill="black"/>
<path d="M21.8751 23.1252C21.4609 23.1252 21.1251 22.7895 21.1251 22.3752V1.37506C21.1251 0.960848 21.4609 0.625061 21.8751 0.625061C22.2893 0.625061 22.6251 0.960848 22.6251 1.37506V22.3752C22.6251 22.7895 22.2893 23.1252 21.8751 23.1252Z" fill="black"/>
</svg>
