<svg width="24" height="24" viewBox="0 0 24 24" fill="none" xmlns="http://www.w3.org/2000/svg">
<path fill-rule="evenodd" clip-rule="evenodd" d="M6.00018 19C6.00018 18.1716 6.67176 17.5 7.50018 17.5H16.5002C17.3286 17.5 18.0002 18.1716 18.0002 19V21.5C18.0002 22.3284 17.3286 23 16.5002 23H7.50018C6.67176 23 6.00018 22.3284 6.00018 21.5V19ZM7.50018 19H16.5002V21.5H7.50018V19Z" fill="black"/>
<path d="M22.5002 15.75C22.9144 15.75 23.2502 15.4142 23.2502 15C23.2502 14.5858 22.9144 14.25 22.5002 14.25L1.5 14.25C1.08579 14.25 0.75 14.5858 0.75 15C0.75 15.4142 1.08579 15.75 1.5 15.75L22.5002 15.75Z" fill="black"/>
<path fill-rule="evenodd" clip-rule="evenodd" d="M3.00018 6C3.00018 5.17157 3.67176 4.5 4.50018 4.5H19.5002C20.3286 4.5 21.0002 5.17157 21.0002 6V8.5C21.0002 9.32843 20.3286 10 19.5002 10H4.50018C3.67176 10 3.00018 9.32843 3.00018 8.5V6ZM4.50018 6H19.5002V8.5H4.50018L4.50018 6Z" fill="black"/>
<path d="M23.2502 2C23.2502 2.41421 22.9145 2.75 22.5002 2.75H1.50006C1.08585 2.75 0.750061 2.41421 0.750061 2C0.750061 1.58578 1.08585 1.25 1.50006 1.25H22.5002C22.9145 1.25 23.2502 1.58579 23.2502 2Z" fill="black"/>
</svg>
