<svg width="24" height="24" viewBox="0 0 24 24" fill="none" xmlns="http://www.w3.org/2000/svg">
<path d="M6.375 6.87524C6.375 6.32296 5.92728 5.87524 5.375 5.87524H2.375C1.82272 5.87524 1.375 6.32296 1.375 6.87524V16.8752C1.375 17.4275 1.82272 17.8752 2.375 17.8752H5.375C5.92728 17.8752 6.375 17.4275 6.375 16.8752V6.87524Z" fill="black"/>
<path d="M8.125 22.3752C8.125 22.7894 8.46079 23.1252 8.875 23.1252C9.28921 23.1252 9.625 22.7894 9.625 22.3752L9.625 1.375C9.625 0.960787 9.28921 0.625 8.875 0.625C8.46079 0.625 8.125 0.960787 8.125 1.375L8.125 22.3752Z" fill="black"/>
<path d="M19.375 3.87524C19.375 3.32296 18.9273 2.87524 18.375 2.87524H15.375C14.8227 2.87524 14.375 3.32296 14.375 3.87524V19.8752C14.375 20.4275 14.8227 20.8752 15.375 20.8752H18.375C18.9273 20.8752 19.375 20.4275 19.375 19.8752V3.87524Z" fill="black"/>
<path d="M21.875 23.1252C21.4608 23.1252 21.125 22.7895 21.125 22.3752V1.37506C21.125 0.960848 21.4608 0.625061 21.875 0.625061C22.2892 0.625061 22.625 0.960848 22.625 1.37506V22.3752C22.625 22.7895 22.2892 23.1252 21.875 23.1252Z" fill="black"/>
</svg>
