<svg width="24" height="25" viewBox="0 0 24 25" fill="none" xmlns="http://www.w3.org/2000/svg">
<path fill-rule="evenodd" clip-rule="evenodd" d="M5.99976 19.25C5.99976 18.4216 6.67133 17.75 7.49976 17.75H16.4998C17.3282 17.75 17.9998 18.4216 17.9998 19.25V23.25C17.9998 24.0784 17.3282 24.75 16.4998 24.75H7.49976C6.67133 24.75 5.99976 24.0784 5.99976 23.25V19.25ZM8.49976 22.25V20.25H15.4998V22.25H8.49976Z" fill="black"/>
<path d="M22.4999 15.5C23.1903 15.5 23.7499 14.9404 23.7499 14.25C23.7499 13.5596 23.1903 13 22.4999 13L1.49976 13C0.809401 13 0.249756 13.5596 0.249756 14.25C0.249756 14.9404 0.8094 15.5 1.49976 15.5L22.4999 15.5Z" fill="black"/>
<path fill-rule="evenodd" clip-rule="evenodd" d="M2.99976 6.25C2.99976 5.42157 3.67133 4.75 4.49976 4.75H19.4998C20.3282 4.75 20.9998 5.42157 20.9998 6.25V10.25C20.9998 11.0784 20.3282 11.75 19.4998 11.75H4.49976C3.67133 11.75 2.99976 11.0784 2.99976 10.25V6.25ZM5.49976 9.25V7.25H18.4998V9.25H5.49976Z" fill="black"/>
<path d="M23.75 1.25C23.75 1.94036 23.1904 2.5 22.5 2.5H1.49982C0.809462 2.5 0.249817 1.94036 0.249817 1.25C0.249817 0.559643 0.809462 0 1.49982 0H22.5C23.1904 0 23.75 0.559645 23.75 1.25Z" fill="black"/>
</svg>
