<svg width="24" height="24" viewBox="0 0 24 24" fill="none" xmlns="http://www.w3.org/2000/svg">
<path fill-rule="evenodd" clip-rule="evenodd" d="M6 7.5C6 8.32843 6.67157 9 7.5 9H16.5C17.3284 9 18 8.32843 18 7.5V5C18 4.17157 17.3284 3.5 16.5 3.5H7.5C6.67157 3.5 6 4.17157 6 5V5.25H1.5C1.08579 5.25 0.75 5.58579 0.75 6C0.75 6.41421 1.08579 6.75 1.5 6.75L6 6.75V7.5ZM7.5 7.5H16.5V5H7.5V7.5Z" fill="black"/>
<path fill-rule="evenodd" clip-rule="evenodd" d="M3 19C3 19.8284 3.67157 20.5 4.5 20.5H19.5C20.3284 20.5 21 19.8284 21 19V16.5C21 15.6716 20.3284 15 19.5 15H4.5C3.67157 15 3 15.6716 3 16.5V16.75H1.5C1.08579 16.75 0.75 17.0858 0.75 17.5C0.75 17.9142 1.08579 18.25 1.5 18.25H3V19ZM4.5 19H19.5V16.5H4.5L4.5 19Z" fill="black"/>
<path d="M18.0002 6.75H22.5002C22.9144 6.75 23.2502 6.41421 23.2502 6C23.2502 5.58579 22.9144 5.25 22.5002 5.25H18.0002V6.75Z" fill="black"/>
<path d="M22.5002 18.25H21.0002V16.75H22.5002C22.9144 16.75 23.2502 17.0858 23.2502 17.5C23.2502 17.9142 22.9144 18.25 22.5002 18.25Z" fill="black"/>
</svg>
