<svg width="24" height="25" viewBox="0 0 24 25" fill="none" xmlns="http://www.w3.org/2000/svg">
<path d="M5.62512 7.37524C5.62512 6.82296 5.17741 6.37524 4.62512 6.37524H1.62512C1.07284 6.37524 0.625122 6.82296 0.625122 7.37524V17.3752C0.625122 17.9275 1.07284 18.3752 1.62512 18.3752H4.62512C5.17741 18.3752 5.62512 17.9275 5.62512 17.3752V7.37524Z" fill="black"/>
<path d="M7.87512 22.8752C7.87512 23.5655 8.43477 24.1252 9.12512 24.1252C9.81548 24.1252 10.3751 23.5655 10.3751 22.8752L10.3751 1.875C10.3751 1.18464 9.81548 0.625 9.12512 0.625C8.43477 0.625 7.87512 1.18464 7.87512 1.875L7.87512 22.8752Z" fill="black"/>
<path d="M18.6251 4.37524C18.6251 3.82296 18.1774 3.37524 17.6251 3.37524H14.6251C14.0728 3.37524 13.6251 3.82296 13.6251 4.37524V20.3752C13.6251 20.9275 14.0728 21.3752 14.6251 21.3752H17.6251C18.1774 21.3752 18.6251 20.9275 18.6251 20.3752V4.37524Z" fill="black"/>
<path d="M22.1251 24.1252C21.4348 24.1252 20.8751 23.5656 20.8751 22.8752V1.87506C20.8751 1.18471 21.4348 0.625061 22.1251 0.625061C22.8155 0.625061 23.3751 1.18471 23.3751 1.87506V22.8752C23.3751 23.5656 22.8155 24.1252 22.1251 24.1252Z" fill="black"/>
</svg>
