<svg width="24" height="24" viewBox="0 0 24 24" fill="none" xmlns="http://www.w3.org/2000/svg">
<path d="M7.00024 7.5C6.44796 7.5 6.00024 7.05228 6.00024 6.5V3.5C6.00024 2.94772 6.44796 2.5 7.00024 2.5H17.0002C17.5525 2.5 18.0002 2.94772 18.0002 3.5V6.5C18.0002 7.05228 17.5525 7.5 17.0002 7.5H7.00024Z" fill="black"/>
<path d="M22.5002 9C22.7764 9 23.0002 9.22386 23.0002 9.5C23.0002 9.77614 22.7764 10 22.5002 10L1.50006 10C1.22392 10 1.00006 9.77614 1.00006 9.5C1.00006 9.22386 1.22392 9 1.50006 9L22.5002 9Z" fill="black"/>
<path d="M4.00024 20C3.44796 20 3.00024 19.5523 3.00024 19V16C3.00024 15.4477 3.44796 15 4.00024 15H20.0002C20.5525 15 21.0002 15.4477 21.0002 16V19C21.0002 19.5523 20.5525 20 20.0002 20H4.00024Z" fill="black"/>
<path d="M23.0002 22C23.0002 21.7239 22.7763 21.5 22.5002 21.5H1.5C1.22386 21.5 1 21.7239 1 22C1 22.2761 1.22386 22.5 1.5 22.5H22.5002C22.7763 22.5 23.0002 22.2761 23.0002 22Z" fill="black"/>
</svg>
