<svg width="24" height="24" viewBox="0 0 24 24" fill="none" xmlns="http://www.w3.org/2000/svg">
<path fill-rule="evenodd" clip-rule="evenodd" d="M6 7.5C6 8.32843 6.67157 9 7.5 9H16.5C17.3284 9 18 8.32843 18 7.5V4.5C18 3.67157 17.3284 3 16.5 3H7.5C6.67157 3 6 3.67157 6 4.5V5H1.5C0.947716 5 0.5 5.44772 0.5 6C0.5 6.55229 0.947716 7 1.5 7L6 7V7.5ZM8 5V7H16V5H8Z" fill="black"/>
<path fill-rule="evenodd" clip-rule="evenodd" d="M3 19C3 19.8284 3.67157 20.5 4.5 20.5H19.5C20.3284 20.5 21 19.8284 21 19V16C21 15.1716 20.3284 14.5 19.5 14.5H4.5C3.67157 14.5 3 15.1716 3 16V16.5H1.5C0.947716 16.5 0.5 16.9477 0.5 17.5C0.5 18.0523 0.947716 18.5 1.5 18.5H3V19ZM5 16.5V18.5H19V16.5H5Z" fill="black"/>
<path d="M18.0002 7H22.5002C23.0525 7 23.5002 6.55228 23.5002 6C23.5002 5.44772 23.0525 5 22.5002 5H18.0002V7Z" fill="black"/>
<path d="M22.5002 18.5H21.0002V16.5H22.5002C23.0525 16.5 23.5002 16.9477 23.5002 17.5C23.5002 18.0523 23.0525 18.5 22.5002 18.5Z" fill="black"/>
</svg>
