<svg width="24" height="24" viewBox="0 0 24 24" fill="none" xmlns="http://www.w3.org/2000/svg">
<path fill-rule="evenodd" clip-rule="evenodd" d="M6.00006 18.5C6.00006 17.6716 6.67163 17 7.50006 17H16.5001C17.3285 17 18.0001 17.6716 18.0001 18.5V20.5C18.0001 21.3284 17.3285 22 16.5001 22H7.50006C6.67163 22 6.00006 21.3284 6.00006 20.5V18.5ZM7.50006 18H16.5001C16.7762 18 17.0001 18.2239 17.0001 18.5V20.5C17.0001 20.7761 16.7762 21 16.5001 21H7.50006C7.22392 21 7.00006 20.7761 7.00006 20.5V18.5C7.00006 18.2239 7.22392 18 7.50006 18Z" fill="black"/>
<path d="M22.5001 15.5C22.7762 15.5 23.0001 15.2761 23.0001 15C23.0001 14.7239 22.7762 14.5 22.5001 14.5L1.49988 14.5C1.22374 14.5 0.999878 14.7239 0.999878 15C0.999878 15.2761 1.22374 15.5 1.49988 15.5L22.5001 15.5Z" fill="black"/>
<path fill-rule="evenodd" clip-rule="evenodd" d="M3 6C3 5.17157 3.67157 4.5 4.5 4.5H19.5C20.3284 4.5 21 5.17157 21 6V8C21 8.82843 20.3284 9.5 19.5 9.5H4.5C3.67157 9.5 3 8.82843 3 8V6ZM4.5 5.5H19.5C19.7761 5.5 20 5.72386 20 6V8C20 8.27614 19.7761 8.5 19.5 8.5H4.5C4.22386 8.5 4 8.27614 4 8V6C4 5.72386 4.22386 5.5 4.5 5.5Z" fill="black"/>
<path d="M23 2.5C23 2.77614 22.7761 3 22.5 3H1.49982C1.22367 3 0.999817 2.77614 0.999817 2.5C0.999817 2.22386 1.22367 2 1.49982 2H22.5C22.7761 2 23 2.22386 23 2.5Z" fill="black"/>
</svg>
