<svg width="24" height="24" viewBox="0 0 24 24" fill="none" xmlns="http://www.w3.org/2000/svg">
<path fill-rule="evenodd" clip-rule="evenodd" d="M18.5001 6.50024C17.6717 6.50024 17.0001 7.17182 17.0001 8.00024V17.0002C17.0001 17.8287 17.6717 18.5002 18.5001 18.5002H20.5001C21.3285 18.5002 22.0001 17.8287 22.0001 17.0002V8.00024C22.0001 7.17182 21.3285 6.50024 20.5001 6.50024H18.5001ZM18.0001 8.00024V17.0002C18.0001 17.2764 18.224 17.5002 18.5001 17.5002H20.5001C20.7763 17.5002 21.0001 17.2764 21.0001 17.0002V8.00024C21.0001 7.7241 20.7763 7.50024 20.5001 7.50024H18.5001C18.224 7.50024 18.0001 7.7241 18.0001 8.00024Z" fill="black"/>
<path d="M15.5001 23.0002C15.5001 23.2764 15.2763 23.5002 15.0001 23.5002C14.724 23.5002 14.5001 23.2764 14.5001 23.0002L14.5001 2.00006C14.5001 1.72392 14.724 1.50006 15.0001 1.50006C15.2763 1.50006 15.5001 1.72392 15.5001 2.00006L15.5001 23.0002Z" fill="black"/>
<path fill-rule="evenodd" clip-rule="evenodd" d="M6.00012 3.50018C5.1717 3.50018 4.50012 4.17176 4.50012 5.00018V20.0002C4.50012 20.8286 5.1717 21.5002 6.00012 21.5002H8.00012C8.82855 21.5002 9.50012 20.8286 9.50012 20.0002V5.00018C9.50012 4.17176 8.82855 3.50018 8.00012 3.50018H6.00012ZM5.50012 5.00018V20.0002C5.50012 20.2763 5.72398 20.5002 6.00012 20.5002H8.00012C8.27626 20.5002 8.50012 20.2763 8.50012 20.0002V5.00018C8.50012 4.72404 8.27626 4.50018 8.00012 4.50018H6.00012C5.72398 4.50018 5.50012 4.72404 5.50012 5.00018Z" fill="black"/>
<path d="M2.50012 23.5002C2.77626 23.5002 3.00012 23.2763 3.00012 23.0002V2C3.00012 1.72386 2.77626 1.5 2.50012 1.5C2.22398 1.5 2.00012 1.72386 2.00012 2V23.0002C2.00012 23.2763 2.22398 23.5002 2.50012 23.5002Z" fill="black"/>
</svg>
