<svg width="24" height="24" viewBox="0 0 24 24" fill="none" xmlns="http://www.w3.org/2000/svg">
<path fill-rule="evenodd" clip-rule="evenodd" d="M5.99982 5C5.99982 5.82843 6.67139 6.5 7.49982 6.5H16.4998C17.3282 6.5 17.9998 5.82843 17.9998 5V2C17.9998 1.17157 17.3282 0.5 16.4998 0.5H7.49982C6.67139 0.5 5.99982 1.17157 5.99982 2V5ZM7.99982 2.5V4.5H15.9998V2.5H7.99982Z" fill="black"/>
<path d="M22.5 8.5C23.0523 8.5 23.5 8.94771 23.5 9.5C23.5 10.0523 23.0523 10.5 22.5 10.5L1.49982 10.5C0.947533 10.5 0.499817 10.0523 0.499817 9.5C0.499817 8.94772 0.947533 8.5 1.49982 8.5L22.5 8.5Z" fill="black"/>
<path fill-rule="evenodd" clip-rule="evenodd" d="M2.99982 18C2.99982 18.8284 3.67139 19.5 4.49982 19.5H19.4998C20.3282 19.5 20.9998 18.8284 20.9998 18V15C20.9998 14.1716 20.3282 13.5 19.4998 13.5H4.49982C3.67139 13.5 2.99982 14.1716 2.99982 15V18ZM4.99982 15.5V17.5H18.9998V15.5H4.99982Z" fill="black"/>
<path d="M23.5001 22.5C23.5001 21.9477 23.0523 21.5 22.5001 21.5H1.49988C0.947594 21.5 0.499878 21.9477 0.499878 22.5C0.499878 23.0523 0.947594 23.5 1.49988 23.5H22.5001C23.0523 23.5 23.5001 23.0523 23.5001 22.5Z" fill="black"/>
</svg>
