<svg width="24" height="24" viewBox="0 0 24 24" fill="none" xmlns="http://www.w3.org/2000/svg">
<path d="M17.6251 7.62524C17.6251 7.07296 18.0728 6.62524 18.6251 6.62524H21.6251C22.1774 6.62524 22.6251 7.07296 22.6251 7.62524V17.6252C22.6251 18.1775 22.1774 18.6252 21.6251 18.6252H18.6251C18.0728 18.6252 17.6251 18.1775 17.6251 17.6252V7.62524Z" fill="black"/>
<path d="M15.8751 23.1252C15.8751 23.5394 15.5393 23.8752 15.1251 23.8752C14.7109 23.8752 14.3751 23.5394 14.3751 23.1252L14.3751 2.125C14.3751 1.71079 14.7109 1.375 15.1251 1.375C15.5393 1.375 15.8751 1.71079 15.8751 2.125L15.8751 23.1252Z" fill="black"/>
<path d="M4.62512 4.62524C4.62512 4.07296 5.07284 3.62524 5.62512 3.62524H8.62512C9.17741 3.62524 9.62512 4.07296 9.62512 4.62524V20.6252C9.62512 21.1775 9.17741 21.6252 8.62512 21.6252H5.62512C5.07284 21.6252 4.62512 21.1775 4.62512 20.6252V4.62524Z" fill="black"/>
<path d="M2.12512 23.8752C2.53934 23.8752 2.87512 23.5395 2.87512 23.1252V2.12506C2.87512 1.71085 2.53934 1.37506 2.12512 1.37506C1.71091 1.37506 1.37512 1.71085 1.37512 2.12506V23.1252C1.37512 23.5395 1.71091 23.8752 2.12512 23.8752Z" fill="black"/>
</svg>
