<svg width="24" height="24" viewBox="0 0 24 24" fill="none" xmlns="http://www.w3.org/2000/svg">
<path d="M7 17.5C6.44772 17.5 6 17.9477 6 18.5V21.5C6 22.0523 6.44771 22.5 7 22.5H17C17.5523 22.5 18 22.0523 18 21.5V18.5C18 17.9477 17.5523 17.5 17 17.5H7Z" fill="black"/>
<path d="M22.4999 15.5C23.0522 15.5 23.4999 15.0523 23.4999 14.5C23.4999 13.9477 23.0522 13.5 22.4999 13.5L1.49976 13.5C0.947472 13.5 0.499756 13.9477 0.499756 14.5C0.499756 15.0523 0.947472 15.5 1.49976 15.5L22.4999 15.5Z" fill="black"/>
<path d="M4 4.5C3.44772 4.5 3 4.94772 3 5.5V8.5C3 9.05229 3.44772 9.5 4 9.5H20C20.5523 9.5 21 9.05229 21 8.5V5.5C21 4.94772 20.5523 4.5 20 4.5H4Z" fill="black"/>
<path d="M23.5 1.5C23.5 2.05228 23.0523 2.5 22.5 2.5H1.49982C0.947533 2.5 0.499817 2.05228 0.499817 1.5C0.499817 0.947714 0.947533 0.5 1.49982 0.5H22.5C23.0523 0.5 23.5 0.947716 23.5 1.5Z" fill="black"/>
</svg>
