<svg width="24" height="24" viewBox="0 0 24 24" fill="none" xmlns="http://www.w3.org/2000/svg">
<path fill-rule="evenodd" clip-rule="evenodd" d="M15.7501 5.75C14.9217 5.75 14.2501 6.42157 14.2501 7.25V16.25C14.2501 17.0784 14.9217 17.75 15.7501 17.75H19.7501C20.5785 17.75 21.2501 17.0784 21.2501 16.25V7.25C21.2501 6.42157 20.5785 5.75 19.7501 5.75H19.0001V1.25C19.0001 0.559645 18.4405 0 17.7501 0C17.0598 0 16.5001 0.559645 16.5001 1.25L16.5001 5.75H15.7501ZM18.7501 8.25H16.7501V15.25H18.7501V8.25Z" fill="black"/>
<path fill-rule="evenodd" clip-rule="evenodd" d="M4.25012 2.75C3.4217 2.75 2.75012 3.42157 2.75012 4.25V19.25C2.75012 20.0784 3.4217 20.75 4.25012 20.75H8.25012C9.07855 20.75 9.75012 20.0784 9.75012 19.25V4.25C9.75012 3.42157 9.07855 2.75 8.25012 2.75H7.50012V1.25C7.50012 0.559645 6.94048 0 6.25012 0C5.55976 0 5.00012 0.559645 5.00012 1.25V2.75H4.25012ZM7.25012 5.25H5.25012V18.25H7.25012V5.25Z" fill="black"/>
<path d="M16.5001 17.7502V22.2502C16.5001 22.9405 17.0598 23.5002 17.7501 23.5002C18.4405 23.5002 19.0001 22.9405 19.0001 22.2502V17.7502H16.5001Z" fill="black"/>
<path d="M5.00012 22.2502V20.7502H7.50012V22.2502C7.50012 22.9405 6.94048 23.5002 6.25012 23.5002C5.55977 23.5002 5.00012 22.9405 5.00012 22.2502Z" fill="black"/>
</svg>
