<svg width="24" height="24" viewBox="0 0 24 24" fill="none" xmlns="http://www.w3.org/2000/svg">
<path fill-rule="evenodd" clip-rule="evenodd" d="M19 6C18.1716 6 17.5 6.67157 17.5 7.5V16.5C17.5 17.3284 18.1716 18 19 18H22C22.8284 18 23.5 17.3284 23.5 16.5V7.5C23.5 6.67157 22.8284 6 22 6H19ZM21.5 8H19.5V16H21.5V8Z" fill="black"/>
<path d="M15.5 22.5002C15.5 23.0525 15.0523 23.5002 14.5 23.5002C13.9477 23.5002 13.5 23.0525 13.5 22.5002L13.5 1.5C13.5 0.947716 13.9477 0.5 14.5 0.5C15.0523 0.5 15.5 0.947716 15.5 1.5L15.5 22.5002Z" fill="black"/>
<path fill-rule="evenodd" clip-rule="evenodd" d="M6 3C5.17157 3 4.5 3.67157 4.5 4.5V19.5C4.5 20.3284 5.17157 21 6 21H9C9.82843 21 10.5 20.3284 10.5 19.5V4.5C10.5 3.67157 9.82843 3 9 3H6ZM8.5 5H6.5V19H8.5V5Z" fill="black"/>
<path d="M1.5 23.5002C2.05228 23.5002 2.5 23.0525 2.5 22.5002V1.50006C2.5 0.947777 2.05228 0.500061 1.5 0.500061C0.947714 0.500061 0.5 0.947777 0.5 1.50006V22.5002C0.5 23.0525 0.947716 23.5002 1.5 23.5002Z" fill="black"/>
</svg>
