<svg width="24" height="25" viewBox="0 0 24 25" fill="none" xmlns="http://www.w3.org/2000/svg">
<path fill-rule="evenodd" clip-rule="evenodd" d="M6 5.5C6 6.32843 6.67157 7 7.5 7H16.5C17.3284 7 18 6.32843 18 5.5V1.5C18 0.671573 17.3284 0 16.5 0H7.5C6.67157 0 6 0.671573 6 1.5V5.5ZM8.5 2.5V4.5H15.5V2.5H8.5Z" fill="black"/>
<path d="M22.5002 9.25C23.1905 9.25 23.7502 9.80964 23.7502 10.5C23.7502 11.1904 23.1905 11.75 22.5002 11.75L1.5 11.75C0.809645 11.75 0.25 11.1904 0.25 10.5C0.25 9.80964 0.809645 9.25 1.5 9.25L22.5002 9.25Z" fill="black"/>
<path fill-rule="evenodd" clip-rule="evenodd" d="M3 18.5C3 19.3284 3.67157 20 4.5 20H19.5C20.3284 20 21 19.3284 21 18.5V14.5C21 13.6716 20.3284 13 19.5 13H4.5C3.67157 13 3 13.6716 3 14.5V18.5ZM5.5 15.5V17.5H18.5V15.5H5.5Z" fill="black"/>
<path d="M23.7502 23.5C23.7502 22.8096 23.1906 22.25 22.5002 22.25H1.50006C0.809706 22.25 0.250061 22.8096 0.250061 23.5C0.250061 24.1904 0.809706 24.75 1.50006 24.75H22.5002C23.1906 24.75 23.7502 24.1904 23.7502 23.5Z" fill="black"/>
</svg>
