<svg width="24" height="24" viewBox="0 0 24 24" fill="none" xmlns="http://www.w3.org/2000/svg">
<path d="M7.12512 7.12524C7.12512 6.57296 6.67741 6.12524 6.12512 6.12524H3.12512C2.57284 6.12524 2.12512 6.57296 2.12512 7.12524V17.1252C2.12512 17.6775 2.57284 18.1252 3.12512 18.1252H6.12512C6.67741 18.1252 7.12512 17.6775 7.12512 17.1252V7.12524Z" fill="black"/>
<path d="M8.87512 22.6252C8.87512 22.7633 8.98705 22.8752 9.12512 22.8752C9.26319 22.8752 9.37512 22.7633 9.37512 22.6252L9.37512 1.62506C9.37512 1.48699 9.26319 1.37506 9.12512 1.37506C8.98705 1.37506 8.87512 1.48699 8.87512 1.62506L8.87512 22.6252Z" fill="black"/>
<path d="M19.6251 4.12524C19.6251 3.57296 19.1774 3.12524 18.6251 3.12524H15.6251C15.0728 3.12524 14.6251 3.57296 14.6251 4.12524V20.1252C14.6251 20.6775 15.0728 21.1252 15.6251 21.1252H18.6251C19.1774 21.1252 19.6251 20.6775 19.6251 20.1252V4.12524Z" fill="black"/>
<path d="M21.6251 22.8752C21.4871 22.8752 21.3751 22.7633 21.3751 22.6252V1.625C21.3751 1.48693 21.4871 1.375 21.6251 1.375C21.7632 1.375 21.8751 1.48693 21.8751 1.625V22.6252C21.8751 22.7633 21.7632 22.8752 21.6251 22.8752Z" fill="black"/>
</svg>
