<svg width="24" height="24" viewBox="0 0 24 24" fill="none" xmlns="http://www.w3.org/2000/svg">
<path fill-rule="evenodd" clip-rule="evenodd" d="M5.625 6.12524C6.45343 6.12524 7.125 6.79682 7.125 7.62524V16.6252C7.125 17.4537 6.45343 18.1252 5.625 18.1252H3.625C2.79657 18.1252 2.125 17.4537 2.125 16.6252V7.62524C2.125 6.79682 2.79657 6.12524 3.625 6.12524H5.625ZM6.625 7.62524V16.6252C6.625 17.1775 6.17728 17.6252 5.625 17.6252H3.625C3.07272 17.6252 2.625 17.1775 2.625 16.6252V7.62524C2.625 7.07296 3.07272 6.62524 3.625 6.62524H5.625C6.17728 6.62524 6.625 7.07296 6.625 7.62524Z" fill="black"/>
<path d="M8.875 22.6252C8.875 22.7633 8.98693 22.8752 9.125 22.8752C9.26307 22.8752 9.375 22.7633 9.375 22.6252L9.375 1.62506C9.375 1.48699 9.26307 1.37506 9.125 1.37506C8.98693 1.37506 8.875 1.48699 8.875 1.62506L8.875 22.6252Z" fill="black"/>
<path fill-rule="evenodd" clip-rule="evenodd" d="M18.125 3.12518C18.9534 3.12518 19.625 3.79676 19.625 4.62518V19.6252C19.625 20.4536 18.9534 21.1252 18.125 21.1252H16.125C15.2966 21.1252 14.625 20.4536 14.625 19.6252V4.62518C14.625 3.79676 15.2966 3.12518 16.125 3.12518H18.125ZM19.125 4.62518V19.6252C19.125 20.1775 18.6773 20.6252 18.125 20.6252H16.125C15.5727 20.6252 15.125 20.1775 15.125 19.6252V4.62518C15.125 4.0729 15.5727 3.62518 16.125 3.62518H18.125C18.6773 3.62518 19.125 4.0729 19.125 4.62518Z" fill="black"/>
<path d="M21.625 22.8752C21.4869 22.8752 21.375 22.7633 21.375 22.6252V1.625C21.375 1.48693 21.4869 1.375 21.625 1.375C21.7631 1.375 21.875 1.48693 21.875 1.625V22.6252C21.875 22.7633 21.7631 22.8752 21.625 22.8752Z" fill="black"/>
</svg>
