<svg width="24" height="24" viewBox="0 0 24 24" fill="none" xmlns="http://www.w3.org/2000/svg">
<path d="M7.00012 8.5C6.44784 8.5 6.00012 8.05228 6.00012 7.5V4.5C6.00012 3.94772 6.44784 3.5 7.00012 3.5H17.0001C17.5524 3.5 18.0001 3.94772 18.0001 4.5V7.5C18.0001 8.05228 17.5524 8.5 17.0001 8.5H7.00012Z" fill="black"/>
<path d="M4.00012 20C3.44784 20 3.00012 19.5523 3.00012 19V16C3.00012 15.4477 3.44784 15 4.00012 15H20.0001C20.5524 15 21.0001 15.4477 21.0001 16V19C21.0001 19.5523 20.5524 20 20.0001 20H4.00012Z" fill="black"/>
<path d="M19.0002 7.25H22.5002C23.1905 7.25 23.7502 6.69036 23.7502 6C23.7502 5.30964 23.1905 4.75 22.5002 4.75H19.0002V7.25Z" fill="black"/>
<path d="M5.00018 7.25V4.75H1.5C0.809645 4.75 0.25 5.30964 0.25 6C0.25 6.69036 0.809645 7.25 1.5 7.25L5.00018 7.25Z" fill="black"/>
<path d="M22.5002 18.75H22.0002V16.25H22.5002C23.1905 16.25 23.7502 16.8096 23.7502 17.5C23.7502 18.1904 23.1905 18.75 22.5002 18.75Z" fill="black"/>
<path d="M2.00018 16.25V18.75H1.5C0.809645 18.75 0.25 18.1904 0.25 17.5C0.25 16.8096 0.809645 16.25 1.5 16.25H2.00018Z" fill="black"/>
</svg>
