<svg width="24" height="24" viewBox="0 0 24 24" fill="none" xmlns="http://www.w3.org/2000/svg">
<path fill-rule="evenodd" clip-rule="evenodd" d="M6 19C6 18.1716 6.67157 17.5 7.5 17.5H16.5C17.3284 17.5 18 18.1716 18 19V22C18 22.8284 17.3284 23.5 16.5 23.5H7.5C6.67157 23.5 6 22.8284 6 22V19ZM8 21.5V19.5H16V21.5H8Z" fill="black"/>
<path d="M22.5002 15.5C23.0525 15.5 23.5002 15.0523 23.5002 14.5C23.5002 13.9477 23.0525 13.5 22.5002 13.5L1.5 13.5C0.947716 13.5 0.5 13.9477 0.5 14.5C0.5 15.0523 0.947716 15.5 1.5 15.5L22.5002 15.5Z" fill="black"/>
<path fill-rule="evenodd" clip-rule="evenodd" d="M3 6C3 5.17157 3.67157 4.5 4.5 4.5H19.5C20.3284 4.5 21 5.17157 21 6V9C21 9.82843 20.3284 10.5 19.5 10.5H4.5C3.67157 10.5 3 9.82843 3 9V6ZM5 8.5V6.5H19V8.5H5Z" fill="black"/>
<path d="M23.5002 1.5C23.5002 2.05228 23.0525 2.5 22.5002 2.5H1.50006C0.947777 2.5 0.500061 2.05228 0.500061 1.5C0.500061 0.947714 0.947777 0.5 1.50006 0.5H22.5002C23.0525 0.5 23.5002 0.947716 23.5002 1.5Z" fill="black"/>
</svg>
