<svg width="24" height="24" viewBox="0 0 24 24" fill="none" xmlns="http://www.w3.org/2000/svg">
<path fill-rule="evenodd" clip-rule="evenodd" d="M6 19C6 18.1716 6.67157 17.5 7.5 17.5H16.5C17.3284 17.5 18 18.1716 18 19V21.5C18 22.3284 17.3284 23 16.5 23H7.5C6.67157 23 6 22.3284 6 21.5V19ZM7.5 19H16.5V21.5H7.5V19Z" fill="black"/>
<path d="M22.5 15.75C22.9142 15.75 23.25 15.4142 23.25 15C23.25 14.5858 22.9142 14.25 22.5 14.25L1.49982 14.25C1.0856 14.25 0.749817 14.5858 0.749817 15C0.749817 15.4142 1.0856 15.75 1.49982 15.75L22.5 15.75Z" fill="black"/>
<path fill-rule="evenodd" clip-rule="evenodd" d="M3 6C3 5.17157 3.67157 4.5 4.5 4.5H19.5C20.3284 4.5 21 5.17157 21 6V8.5C21 9.32843 20.3284 10 19.5 10H4.5C3.67157 10 3 9.32843 3 8.5V6ZM4.5 6H19.5V8.5H4.5L4.5 6Z" fill="black"/>
<path d="M23.2501 2C23.2501 2.41421 22.9143 2.75 22.5001 2.75H1.49988C1.08566 2.75 0.749878 2.41421 0.749878 2C0.749878 1.58578 1.08566 1.25 1.49988 1.25H22.5001C22.9143 1.25 23.2501 1.58579 23.2501 2Z" fill="black"/>
</svg>
