<svg width="26" height="25" viewBox="0 0 26 25" fill="none" xmlns="http://www.w3.org/2000/svg">
<path fill-rule="evenodd" clip-rule="evenodd" d="M19.8751 6.625C19.0467 6.625 18.3751 7.29657 18.3751 8.125V17.125C18.3751 17.9534 19.0467 18.625 19.8751 18.625H23.8751C24.7035 18.625 25.3751 17.9534 25.3751 17.125V8.125C25.3751 7.29657 24.7035 6.625 23.8751 6.625H19.8751ZM22.8751 9.125H20.8751V16.125H22.8751V9.125Z" fill="black"/>
<path d="M16.1251 23.1252C16.1251 23.8155 15.5655 24.3752 14.8751 24.3752C14.1848 24.3752 13.6251 23.8155 13.6251 23.1252L13.6251 2.125C13.6251 1.43464 14.1848 0.875 14.8751 0.875C15.5655 0.875 16.1251 1.43464 16.1251 2.125L16.1251 23.1252Z" fill="black"/>
<path fill-rule="evenodd" clip-rule="evenodd" d="M6.87512 3.625C6.0467 3.625 5.37512 4.29657 5.37512 5.125V20.125C5.37512 20.9534 6.0467 21.625 6.87512 21.625H10.8751C11.7035 21.625 12.3751 20.9534 12.3751 20.125V5.125C12.3751 4.29657 11.7035 3.625 10.8751 3.625H6.87512ZM9.87512 6.125H7.87512V19.125H9.87512V6.125Z" fill="black"/>
<path d="M1.87512 24.3752C2.56548 24.3752 3.12512 23.8156 3.12512 23.1252V2.12506C3.12512 1.43471 2.56548 0.875061 1.87512 0.875061C1.18476 0.875061 0.625122 1.43471 0.625122 2.12506V23.1252C0.625122 23.8156 1.18477 24.3752 1.87512 24.3752Z" fill="black"/>
</svg>
