<svg width="24" height="24" viewBox="0 0 24 24" fill="none" xmlns="http://www.w3.org/2000/svg">
<path d="M7.00024 17C6.44796 17 6.00024 17.4477 6.00024 18V21C6.00024 21.5523 6.44796 22 7.00024 22H17.0002C17.5525 22 18.0002 21.5523 18.0002 21V18C18.0002 17.4477 17.5525 17 17.0002 17H7.00024Z" fill="black"/>
<path d="M22.5002 15.25C22.6383 15.25 22.7502 15.1381 22.7502 15C22.7502 14.8619 22.6383 14.75 22.5002 14.75L1.50006 14.75C1.36199 14.75 1.25006 14.8619 1.25006 15C1.25006 15.1381 1.36199 15.25 1.50006 15.25L22.5002 15.25Z" fill="black"/>
<path d="M4.00024 4.5C3.44796 4.5 3.00024 4.94772 3.00024 5.5V8.5C3.00024 9.05229 3.44796 9.5 4.00024 9.5H20.0002C20.5525 9.5 21.0002 9.05229 21.0002 8.5V5.5C21.0002 4.94772 20.5525 4.5 20.0002 4.5H4.00024Z" fill="black"/>
<path d="M22.7502 2.5C22.7502 2.63807 22.6383 2.75 22.5002 2.75H1.5C1.36193 2.75 1.25 2.63807 1.25 2.5C1.25 2.36193 1.36193 2.25 1.5 2.25H22.5002C22.6383 2.25 22.7502 2.36193 22.7502 2.5Z" fill="black"/>
</svg>
