<svg width="24" height="24" viewBox="0 0 24 24" fill="none" xmlns="http://www.w3.org/2000/svg">
<path d="M7.00024 7C6.44796 7 6.00024 6.55228 6.00024 6V3C6.00024 2.44772 6.44796 2 7.00024 2H17.0002C17.5525 2 18.0002 2.44772 18.0002 3V6C18.0002 6.55228 17.5525 7 17.0002 7H7.00024Z" fill="black"/>
<path d="M22.5002 8.75C22.9144 8.75 23.2502 9.08579 23.2502 9.5C23.2502 9.91421 22.9144 10.25 22.5002 10.25L1.5 10.25C1.08579 10.25 0.75 9.91421 0.75 9.5C0.75 9.08579 1.08579 8.75 1.5 8.75L22.5002 8.75Z" fill="black"/>
<path d="M4.00024 20C3.44796 20 3.00024 19.5523 3.00024 19V16C3.00024 15.4477 3.44796 15 4.00024 15H20.0002C20.5525 15 21.0002 15.4477 21.0002 16V19C21.0002 19.5523 20.5525 20 20.0002 20H4.00024Z" fill="black"/>
<path d="M23.2502 22.5C23.2502 22.0858 22.9145 21.75 22.5002 21.75H1.50006C1.08585 21.75 0.750061 22.0858 0.750061 22.5C0.750061 22.9142 1.08585 23.25 1.50006 23.25H22.5002C22.9145 23.25 23.2502 22.9142 23.2502 22.5Z" fill="black"/>
</svg>
