<svg width="24" height="25" viewBox="0 0 24 25" fill="none" xmlns="http://www.w3.org/2000/svg">
<path d="M5.625 6.75024C5.625 6.19796 5.17728 5.75024 4.625 5.75024H1.625C1.07272 5.75024 0.625 6.19796 0.625 6.75024V16.7502C0.625 17.3025 1.07272 17.7502 1.625 17.7502H4.625C5.17728 17.7502 5.625 17.3025 5.625 16.7502V6.75024Z" fill="black"/>
<path d="M7.875 22.2502C7.875 22.9405 8.43464 23.5002 9.125 23.5002C9.81536 23.5002 10.375 22.9405 10.375 22.2502L10.375 1.25C10.375 0.559645 9.81536 0 9.125 0C8.43464 0 7.875 0.559645 7.875 1.25L7.875 22.2502Z" fill="black"/>
<path d="M18.625 3.75024C18.625 3.19796 18.1773 2.75024 17.625 2.75024H14.625C14.0727 2.75024 13.625 3.19796 13.625 3.75024V19.7502C13.625 20.3025 14.0727 20.7502 14.625 20.7502H17.625C18.1773 20.7502 18.625 20.3025 18.625 19.7502V3.75024Z" fill="black"/>
<path d="M22.125 23.5002C21.4346 23.5002 20.875 22.9406 20.875 22.2502V1.25006C20.875 0.559706 21.4346 6.10016e-05 22.125 6.10352e-05C22.8154 6.10687e-05 23.375 0.559706 23.375 1.25006V22.2502C23.375 22.9406 22.8154 23.5002 22.125 23.5002Z" fill="black"/>
</svg>
