<svg width="24" height="24" viewBox="0 0 24 24" fill="none" xmlns="http://www.w3.org/2000/svg">
<path d="M7 7C6.44772 7 6 6.55228 6 6V3C6 2.44772 6.44771 2 7 2H17C17.5523 2 18 2.44772 18 3V6C18 6.55228 17.5523 7 17 7H7Z" fill="black"/>
<path d="M22.4999 8.75C22.9142 8.75 23.2499 9.08579 23.2499 9.5C23.2499 9.91421 22.9142 10.25 22.4999 10.25L1.49976 10.25C1.08554 10.25 0.749756 9.91421 0.749756 9.5C0.749756 9.08579 1.08554 8.75 1.49976 8.75L22.4999 8.75Z" fill="black"/>
<path d="M4 20C3.44772 20 3 19.5523 3 19V16C3 15.4477 3.44772 15 4 15H20C20.5523 15 21 15.4477 21 16V19C21 19.5523 20.5523 20 20 20H4Z" fill="black"/>
<path d="M23.25 22.5C23.25 22.0858 22.9142 21.75 22.5 21.75H1.49982C1.0856 21.75 0.749817 22.0858 0.749817 22.5C0.749817 22.9142 1.0856 23.25 1.49982 23.25H22.5C22.9142 23.25 23.25 22.9142 23.25 22.5Z" fill="black"/>
</svg>
