<svg width="24" height="24" viewBox="0 0 24 24" fill="none" xmlns="http://www.w3.org/2000/svg">
<path fill-rule="evenodd" clip-rule="evenodd" d="M5.50012 6.00024C6.32855 6.00024 7.00012 6.67182 7.00012 7.50024V16.5002C7.00012 17.3287 6.32855 18.0002 5.50012 18.0002H3.50012C2.6717 18.0002 2.00012 17.3287 2.00012 16.5002V7.50024C2.00012 6.67182 2.6717 6.00024 3.50012 6.00024H5.50012ZM6.00012 7.50024V16.5002C6.00012 16.7764 5.77626 17.0002 5.50012 17.0002H3.50012C3.22398 17.0002 3.00012 16.7764 3.00012 16.5002V7.50024C3.00012 7.2241 3.22398 7.00024 3.50012 7.00024H5.50012C5.77626 7.00024 6.00012 7.2241 6.00012 7.50024Z" fill="black"/>
<path d="M8.50012 22.5002C8.50012 22.7764 8.72398 23.0002 9.00012 23.0002C9.27626 23.0002 9.50012 22.7764 9.50012 22.5002L9.50012 1.50006C9.50012 1.22392 9.27627 1.00006 9.00012 1.00006C8.72398 1.00006 8.50012 1.22392 8.50012 1.50006L8.50012 22.5002Z" fill="black"/>
<path fill-rule="evenodd" clip-rule="evenodd" d="M18.0001 3.00018C18.8285 3.00018 19.5001 3.67176 19.5001 4.50018V19.5002C19.5001 20.3286 18.8285 21.0002 18.0001 21.0002H16.0001C15.1717 21.0002 14.5001 20.3286 14.5001 19.5002V4.50018C14.5001 3.67176 15.1717 3.00018 16.0001 3.00018H18.0001ZM18.5001 4.50018V19.5002C18.5001 19.7763 18.2763 20.0002 18.0001 20.0002H16.0001C15.724 20.0002 15.5001 19.7763 15.5001 19.5002V4.50018C15.5001 4.22404 15.724 4.00018 16.0001 4.00018H18.0001C18.2763 4.00018 18.5001 4.22404 18.5001 4.50018Z" fill="black"/>
<path d="M21.5001 23.0002C21.224 23.0002 21.0001 22.7763 21.0001 22.5002V1.5C21.0001 1.22386 21.224 1 21.5001 1C21.7763 1 22.0001 1.22386 22.0001 1.5V22.5002C22.0001 22.7763 21.7763 23.0002 21.5001 23.0002Z" fill="black"/>
</svg>
