<svg width="24" height="24" viewBox="0 0 24 24" fill="none" xmlns="http://www.w3.org/2000/svg">
<path fill-rule="evenodd" clip-rule="evenodd" d="M6.00006 7C6.00006 7.82843 6.67163 8.5 7.50006 8.5H16.5001C17.3285 8.5 18.0001 7.82843 18.0001 7V6.25L22.5001 6.25C22.6381 6.25 22.7501 6.13807 22.7501 6C22.7501 5.86193 22.6381 5.75 22.5001 5.75H18.0001V5C18.0001 4.17157 17.3285 3.5 16.5001 3.5H7.50006C6.67163 3.5 6.00006 4.17157 6.00006 5V5.75H1.49988C1.36181 5.75 1.24988 5.86193 1.24988 6C1.24988 6.13807 1.36181 6.25 1.49988 6.25L6.00006 6.25V7ZM7.50006 8H16.5001C17.0523 8 17.5001 7.55228 17.5001 7V5C17.5001 4.44772 17.0523 4 16.5001 4H7.50006C6.94778 4 6.50006 4.44772 6.50006 5V7C6.50006 7.55228 6.94778 8 7.50006 8Z" fill="black"/>
<path fill-rule="evenodd" clip-rule="evenodd" d="M3.00006 18.5C3.00006 19.3284 3.67163 20 4.50006 20H19.5001C20.3285 20 21.0001 19.3284 21.0001 18.5V17.75H22.5001C22.6381 17.75 22.7501 17.6381 22.7501 17.5C22.7501 17.3619 22.6381 17.25 22.5001 17.25H21.0001V16.5C21.0001 15.6716 20.3285 15 19.5001 15H4.50006C3.67163 15 3.00006 15.6716 3.00006 16.5V17.25H1.49988C1.36181 17.25 1.24988 17.3619 1.24988 17.5C1.24988 17.6381 1.36181 17.75 1.49988 17.75H3.00006V18.5ZM4.50006 19.5H19.5001C20.0523 19.5 20.5001 19.0523 20.5001 18.5V16.5C20.5001 15.9477 20.0523 15.5 19.5001 15.5H4.50006C3.94778 15.5 3.50006 15.9477 3.50006 16.5V18.5C3.50006 19.0523 3.94778 19.5 4.50006 19.5Z" fill="black"/>
</svg>
