<svg width="24" height="24" viewBox="0 0 24 24" fill="none" xmlns="http://www.w3.org/2000/svg">
<path d="M7 8.5C6.44772 8.5 6 8.05228 6 7.5V4.5C6 3.94772 6.44771 3.5 7 3.5H17C17.5523 3.5 18 3.94772 18 4.5V7.5C18 8.05228 17.5523 8.5 17 8.5H7Z" fill="black"/>
<path d="M4 20C3.44772 20 3 19.5523 3 19V16C3 15.4477 3.44772 15 4 15H20C20.5523 15 21 15.4477 21 16V19C21 19.5523 20.5523 20 20 20H4Z" fill="black"/>
<path d="M19.0001 7.25H22.5001C23.1904 7.25 23.7501 6.69036 23.7501 6C23.7501 5.30964 23.1904 4.75 22.5001 4.75H19.0001V7.25Z" fill="black"/>
<path d="M5.00006 7.25V4.75H1.49988C0.809523 4.75 0.249878 5.30964 0.249878 6C0.249878 6.69036 0.809523 7.25 1.49988 7.25L5.00006 7.25Z" fill="black"/>
<path d="M22.5001 18.75H22.0001V16.25H22.5001C23.1904 16.25 23.7501 16.8096 23.7501 17.5C23.7501 18.1904 23.1904 18.75 22.5001 18.75Z" fill="black"/>
<path d="M2.00006 16.25V18.75H1.49988C0.809523 18.75 0.249878 18.1904 0.249878 17.5C0.249878 16.8096 0.809523 16.25 1.49988 16.25H2.00006Z" fill="black"/>
</svg>
