<svg width="24" height="24" viewBox="0 0 24 24" fill="none" xmlns="http://www.w3.org/2000/svg">
<path d="M16.8751 7.37524C16.8751 6.82296 17.3228 6.37524 17.8751 6.37524H20.8751C21.4274 6.37524 21.8751 6.82296 21.8751 7.37524V17.3752C21.8751 17.9275 21.4274 18.3752 20.8751 18.3752H17.8751C17.3228 18.3752 16.8751 17.9275 16.8751 17.3752V7.37524Z" fill="black"/>
<path d="M15.1251 22.8752C15.1251 23.0133 15.0132 23.1252 14.8751 23.1252C14.7371 23.1252 14.6251 23.0133 14.6251 22.8752L14.6251 1.87506C14.6251 1.73699 14.7371 1.62506 14.8751 1.62506C15.0132 1.62506 15.1251 1.73699 15.1251 1.87506L15.1251 22.8752Z" fill="black"/>
<path d="M4.37512 4.37524C4.37512 3.82296 4.82284 3.37524 5.37512 3.37524H8.37512C8.92741 3.37524 9.37512 3.82296 9.37512 4.37524V20.3752C9.37512 20.9275 8.92741 21.3752 8.37512 21.3752H5.37512C4.82284 21.3752 4.37512 20.9275 4.37512 20.3752V4.37524Z" fill="black"/>
<path d="M2.37512 23.1252C2.51319 23.1252 2.62512 23.0133 2.62512 22.8752V1.875C2.62512 1.73693 2.51319 1.625 2.37512 1.625C2.23705 1.625 2.12512 1.73693 2.12512 1.875V22.8752C2.12512 23.0133 2.23705 23.1252 2.37512 23.1252Z" fill="black"/>
</svg>
