<svg width="24" height="25" viewBox="0 0 24 25" fill="none" xmlns="http://www.w3.org/2000/svg">
<path fill-rule="evenodd" clip-rule="evenodd" d="M6 19.25C6 18.4216 6.67157 17.75 7.5 17.75H16.5C17.3284 17.75 18 18.4216 18 19.25V23.25C18 24.0784 17.3284 24.75 16.5 24.75H7.5C6.67157 24.75 6 24.0784 6 23.25V19.25ZM8.5 22.25V20.25H15.5V22.25H8.5Z" fill="black"/>
<path d="M22.5002 15.5C23.1905 15.5 23.7502 14.9404 23.7502 14.25C23.7502 13.5596 23.1905 13 22.5002 13L1.5 13C0.809645 13 0.25 13.5596 0.25 14.25C0.25 14.9404 0.809645 15.5 1.5 15.5L22.5002 15.5Z" fill="black"/>
<path fill-rule="evenodd" clip-rule="evenodd" d="M3 6.25C3 5.42157 3.67157 4.75 4.5 4.75H19.5C20.3284 4.75 21 5.42157 21 6.25V10.25C21 11.0784 20.3284 11.75 19.5 11.75H4.5C3.67157 11.75 3 11.0784 3 10.25V6.25ZM5.5 9.25V7.25H18.5V9.25H5.5Z" fill="black"/>
<path d="M23.7502 1.25C23.7502 1.94036 23.1906 2.5 22.5002 2.5H1.50006C0.809706 2.5 0.250061 1.94036 0.250061 1.25C0.250061 0.559643 0.809706 0 1.50006 0H22.5002C23.1906 0 23.7502 0.559645 23.7502 1.25Z" fill="black"/>
</svg>
