<svg width="24" height="24" viewBox="0 0 24 24" fill="none" xmlns="http://www.w3.org/2000/svg">
<path d="M18 7.50024C18 6.94796 18.4477 6.50024 19 6.50024H22C22.5523 6.50024 23 6.94796 23 7.50024V17.5002C23 18.0525 22.5523 18.5002 22 18.5002H19C18.4477 18.5002 18 18.0525 18 17.5002V7.50024Z" fill="black"/>
<path d="M16 23.0002C16 23.5525 15.5523 24.0002 15 24.0002C14.4477 24.0002 14 23.5525 14 23.0002L14 2C14 1.44772 14.4477 1 15 1C15.5523 1 16 1.44772 16 2L16 23.0002Z" fill="black"/>
<path d="M5 4.50024C5 3.94796 5.44772 3.50024 6 3.50024H9C9.55229 3.50024 10 3.94796 10 4.50024V20.5002C10 21.0525 9.55229 21.5002 9 21.5002H6C5.44772 21.5002 5 21.0525 5 20.5002V4.50024Z" fill="black"/>
<path d="M2 24.0002C2.55228 24.0002 3 23.5525 3 23.0002V2.00006C3 1.44778 2.55228 1.00006 2 1.00006C1.44771 1.00006 1 1.44778 1 2.00006V23.0002C1 23.5525 1.44772 24.0002 2 24.0002Z" fill="black"/>
</svg>
