<svg width="24" height="24" viewBox="0 0 24 24" fill="none" xmlns="http://www.w3.org/2000/svg">
<path d="M7.00012 7.00024C7.00012 6.44796 6.55241 6.00024 6.00012 6.00024H3.00012C2.44784 6.00024 2.00012 6.44796 2.00012 7.00024V17.0002C2.00012 17.5525 2.44784 18.0002 3.00012 18.0002H6.00012C6.55241 18.0002 7.00012 17.5525 7.00012 17.0002V7.00024Z" fill="black"/>
<path d="M8.50012 22.5002C8.50012 22.7764 8.72398 23.0002 9.00012 23.0002C9.27626 23.0002 9.50012 22.7764 9.50012 22.5002L9.50012 1.50006C9.50012 1.22392 9.27627 1.00006 9.00012 1.00006C8.72398 1.00006 8.50012 1.22392 8.50012 1.50006L8.50012 22.5002Z" fill="black"/>
<path d="M19.5001 4.00024C19.5001 3.44796 19.0524 3.00024 18.5001 3.00024H15.5001C14.9478 3.00024 14.5001 3.44796 14.5001 4.00024V20.0002C14.5001 20.5525 14.9478 21.0002 15.5001 21.0002H18.5001C19.0524 21.0002 19.5001 20.5525 19.5001 20.0002V4.00024Z" fill="black"/>
<path d="M21.5001 23.0002C21.224 23.0002 21.0001 22.7763 21.0001 22.5002V1.5C21.0001 1.22386 21.224 1 21.5001 1C21.7763 1 22.0001 1.22386 22.0001 1.5V22.5002C22.0001 22.7763 21.7763 23.0002 21.5001 23.0002Z" fill="black"/>
</svg>
