<svg width="24" height="24" viewBox="0 0 24 24" fill="none" xmlns="http://www.w3.org/2000/svg">
<path fill-rule="evenodd" clip-rule="evenodd" d="M15.75 5.75C14.9216 5.75 14.25 6.42157 14.25 7.25V16.25C14.25 17.0784 14.9216 17.75 15.75 17.75H19.75C20.5784 17.75 21.25 17.0784 21.25 16.25V7.25C21.25 6.42157 20.5784 5.75 19.75 5.75H19V1.25C19 0.559645 18.4404 0 17.75 0C17.0596 0 16.5 0.559645 16.5 1.25L16.5 5.75H15.75ZM18.75 8.25H16.75V15.25H18.75V8.25Z" fill="black"/>
<path fill-rule="evenodd" clip-rule="evenodd" d="M4.25 2.75C3.42157 2.75 2.75 3.42157 2.75 4.25V19.25C2.75 20.0784 3.42157 20.75 4.25 20.75H8.25C9.07843 20.75 9.75 20.0784 9.75 19.25V4.25C9.75 3.42157 9.07843 2.75 8.25 2.75H7.5V1.25C7.5 0.559645 6.94036 0 6.25 0C5.55964 0 5 0.559645 5 1.25V2.75H4.25ZM7.25 5.25H5.25V18.25H7.25V5.25Z" fill="black"/>
<path d="M16.5 17.7502V22.2502C16.5 22.9405 17.0596 23.5002 17.75 23.5002C18.4404 23.5002 19 22.9405 19 22.2502V17.7502H16.5Z" fill="black"/>
<path d="M5 22.2502V20.7502H7.5V22.2502C7.5 22.9405 6.94036 23.5002 6.25 23.5002C5.55964 23.5002 5 22.9405 5 22.2502Z" fill="black"/>
</svg>
