<svg width="24" height="24" viewBox="0 0 24 24" fill="none" xmlns="http://www.w3.org/2000/svg">
<path fill-rule="evenodd" clip-rule="evenodd" d="M16.7501 5.75018C15.9217 5.75018 15.2501 6.42176 15.2501 7.25018V16.2502C15.2501 17.0786 15.9217 17.7502 16.7501 17.7502H17.2501V22.2502C17.2501 22.5263 17.474 22.7502 17.7501 22.7502C18.0263 22.7502 18.2501 22.5263 18.2501 22.2502V17.7502H18.7501C19.5785 17.7502 20.2501 17.0786 20.2501 16.2502V7.25018C20.2501 6.42176 19.5785 5.75018 18.7501 5.75018H18.2501V1.25C18.2501 0.973858 18.0263 0.75 17.7501 0.75C17.474 0.75 17.2501 0.973858 17.2501 1.25L17.2501 5.75018H16.7501ZM16.2501 7.25018V16.2502C16.2501 16.5263 16.474 16.7502 16.7501 16.7502H18.7501C19.0263 16.7502 19.2501 16.5263 19.2501 16.2502V7.25018C19.2501 6.97404 19.0263 6.75018 18.7501 6.75018H16.7501C16.474 6.75018 16.2501 6.97404 16.2501 7.25018Z" fill="black"/>
<path fill-rule="evenodd" clip-rule="evenodd" d="M5.25012 2.75018C4.42169 2.75018 3.75012 3.42176 3.75012 4.25018V19.2502C3.75012 20.0786 4.42169 20.7502 5.25012 20.7502H5.75012V22.2502C5.75012 22.5263 5.97398 22.7502 6.25012 22.7502C6.52626 22.7502 6.75012 22.5263 6.75012 22.2502V20.7502H7.25012C8.07855 20.7502 8.75012 20.0786 8.75012 19.2502V4.25018C8.75012 3.42176 8.07855 2.75018 7.25012 2.75018H6.75012V1.25C6.75012 0.973858 6.52626 0.75 6.25012 0.75C5.97398 0.75 5.75012 0.973858 5.75012 1.25V2.75018H5.25012ZM4.75012 4.25018V19.2502C4.75012 19.5263 4.97398 19.7502 5.25012 19.7502H7.25012C7.52626 19.7502 7.75012 19.5263 7.75012 19.2502V4.25018C7.75012 3.97404 7.52626 3.75018 7.25012 3.75018H5.25012C4.97398 3.75018 4.75012 3.97404 4.75012 4.25018Z" fill="black"/>
</svg>
