<svg width="24" height="24" viewBox="0 0 24 24" fill="none" xmlns="http://www.w3.org/2000/svg">
<path fill-rule="evenodd" clip-rule="evenodd" d="M12.0012 0.5C12.5535 0.5 13.0012 0.947715 13.0012 1.5V3.67071C14.1664 4.08255 15.0012 5.19379 15.0012 6.5C15.0012 7.28223 14.7018 7.99453 14.2114 8.52859L18.6812 16.9423C19.3317 16.358 19.9053 15.6895 20.385 14.9538C20.6866 14.4912 21.3062 14.3607 21.7688 14.6623C22.2315 14.964 22.362 15.5835 22.0603 16.0462C21.3953 17.0662 20.5789 17.979 19.643 18.7527L21.3845 22.0308C21.6436 22.5186 21.4583 23.124 20.9705 23.3831C20.4828 23.6422 19.8774 23.4569 19.6182 22.9692L17.9887 19.9018C16.2269 20.9181 14.1822 21.5 12.0016 21.5C9.82078 21.5 7.77605 20.9181 6.0141 19.9016L4.38448 22.9692C4.12537 23.4569 3.51994 23.6422 3.03221 23.3831C2.54448 23.124 2.35914 22.5186 2.61825 22.0308L4.35987 18.7525C3.42408 17.9788 2.60781 17.066 1.94284 16.0462C1.6412 15.5835 1.7717 14.964 2.23434 14.6623C2.69697 14.3607 3.31654 14.4912 3.61818 14.9538C4.0978 15.6894 4.67132 16.3578 5.3217 16.942L9.79121 8.52879C9.30067 7.99472 9.00121 7.28233 9.00121 6.5C9.00121 5.19377 9.83603 4.08253 11.0012 3.6707V1.5C11.0012 0.947715 11.4489 0.5 12.0012 0.5ZM6.95308 18.1342C8.43512 19.0026 10.1603 19.5 12.0016 19.5C13.8427 19.5 15.5678 19.0027 17.0498 18.1343L12.4454 9.46734C12.3005 9.48886 12.1521 9.5 12.0012 9.5C11.8504 9.5 11.7022 9.48887 11.5573 9.46738L6.95308 18.1342ZM12.0012 7.5C12.5535 7.5 13.0012 7.05228 13.0012 6.5C13.0012 5.94772 12.5535 5.5 12.0012 5.5C11.4489 5.5 11.0012 5.94772 11.0012 6.5C11.0012 7.05228 11.4489 7.5 12.0012 7.5Z" fill="black"/>
</svg>
