<svg width="24" height="24" viewBox="0 0 24 24" fill="none" xmlns="http://www.w3.org/2000/svg">
<path d="M12.5006 1.5C12.5006 1.22386 12.2767 1 12.0006 1C11.7244 1 11.5006 1.22386 11.5006 1.5V3.54148C10.0817 3.77951 9.00057 5.01349 9.00057 6.5C9.00057 7.46827 9.45929 8.3294 10.1713 8.87793L5.71062 17.2744C5.97205 17.4862 6.24435 17.6851 6.52655 17.8701L11.0541 9.34764C11.3516 9.44648 11.6698 9.5 12.0006 9.5C12.3314 9.5 12.6497 9.44645 12.9473 9.34756L17.475 17.8702C17.7572 17.6853 18.0295 17.4864 18.2909 17.2747L13.8301 8.87776C14.5419 8.32923 15.0006 7.46817 15.0006 6.5C15.0006 5.01351 13.9194 3.77953 12.5006 3.54148V1.5Z" fill="black"/>
<path d="M3.05916 22.2654L4.75774 19.0681C5.02495 19.2707 5.30092 19.4623 5.58499 19.6424L3.94228 22.7346C3.81272 22.9784 3.51001 23.0711 3.26614 22.9416C3.02227 22.812 2.92961 22.5093 3.05916 22.2654Z" fill="black"/>
<path d="M20.0592 22.7346L18.4165 19.6426C18.7006 19.4625 18.9766 19.2709 19.2438 19.0683L20.9423 22.2654C21.0718 22.5093 20.9792 22.812 20.7353 22.9416C20.4914 23.0711 20.1887 22.9784 20.0592 22.7346Z" fill="black"/>
<path d="M3.1988 15.2269C3.04798 14.9956 2.73819 14.9303 2.50688 15.0812C2.27556 15.232 2.21031 15.5418 2.36113 15.7731C4.41221 18.9188 7.96345 21 12.001 21C16.0386 21 19.5899 18.9188 21.6409 15.7731C21.7918 15.5418 21.7265 15.232 21.4952 15.0812C21.2639 14.9303 20.9541 14.9956 20.8033 15.2269C18.9289 18.1016 15.6866 20 12.001 20C8.31551 20 5.07312 18.1016 3.1988 15.2269Z" fill="black"/>
</svg>
