<svg width="24" height="24" viewBox="0 0 24 24" fill="none" xmlns="http://www.w3.org/2000/svg">
<path d="M12.751 1.5C12.751 1.08579 12.4152 0.75 12.001 0.75C11.5868 0.75 11.251 1.08579 11.251 1.5V3.59451C9.95705 3.92753 9.00096 5.10211 9.00096 6.5C9.00096 7.37637 9.37674 8.16497 9.97595 8.71346L5.7552 16.6584C6.13585 16.9909 6.54317 17.2934 6.97352 17.5623L11.3003 9.41774C11.5251 9.47152 11.7597 9.5 12.001 9.5C12.2423 9.5 12.477 9.4715 12.7019 9.41768L17.0288 17.5625C17.4592 17.2936 17.8665 16.9911 18.2471 16.6586L14.0262 8.71328C14.6253 8.16479 15.001 7.37627 15.001 6.5C15.001 5.10213 14.0449 3.92756 12.751 3.59452V1.5Z" fill="black"/>
<path d="M2.83878 22.1481L4.31929 19.3613C4.71555 19.6704 5.13097 19.9562 5.56346 20.2165L4.16345 22.8519C3.96912 23.2177 3.51505 23.3567 3.14925 23.1623C2.78345 22.968 2.64445 22.5139 2.83878 22.1481Z" fill="black"/>
<path d="M19.8388 22.8519L18.4389 20.2167C18.8714 19.9564 19.2868 19.6706 19.683 19.3615L21.1634 22.1481C21.3578 22.5139 21.2188 22.968 20.853 23.1623C20.4872 23.3567 20.0331 23.2177 19.8388 22.8519Z" fill="black"/>
<path d="M21.8508 15.9096C22.077 15.5627 21.9791 15.098 21.6321 14.8717C21.2852 14.6455 20.8205 14.7434 20.5942 15.0904C18.7641 17.8973 15.5989 19.75 12.0014 19.75C8.40393 19.75 5.23874 17.8973 3.40861 15.0904C3.18238 14.7434 2.7177 14.6455 2.37073 14.8717C2.02375 15.098 1.92587 15.5627 2.15211 15.9096C4.24738 19.1232 7.87583 21.25 12.0014 21.25C16.127 21.25 19.7555 19.1232 21.8508 15.9096Z" fill="black"/>
</svg>
