<svg width="24" height="24" viewBox="0 0 24 24" fill="none" xmlns="http://www.w3.org/2000/svg">
<path d="M12.501 1.5C12.501 1.22386 12.2771 1 12.001 1C11.7248 1 11.501 1.22386 11.501 1.5V3.54148C10.0821 3.77951 9.00093 5.01349 9.00093 6.5C9.00093 7.46827 9.45965 8.3294 10.1716 8.87793L5.71099 17.2744C5.97241 17.4862 6.24471 17.6851 6.52692 17.8701L11.0545 9.34764C11.352 9.44648 11.6702 9.5 12.0009 9.5C12.3318 9.5 12.6501 9.44645 12.9477 9.34756L17.4753 17.8702C17.7576 17.6853 18.0299 17.4864 18.2913 17.2747L13.8304 8.87776C14.5423 8.32923 15.0009 7.46817 15.0009 6.5C15.0009 5.01351 13.9198 3.77953 12.501 3.54148V1.5Z" fill="black"/>
<path d="M3.05953 22.2654L4.7581 19.0681C5.02531 19.2707 5.30129 19.4623 5.58535 19.6424L3.94264 22.7346C3.81309 22.9784 3.51037 23.0711 3.26651 22.9416C3.02264 22.812 2.92997 22.5093 3.05953 22.2654Z" fill="black"/>
<path d="M20.0595 22.7346L18.4169 19.6426C18.701 19.4625 18.977 19.2709 19.2442 19.0683L20.9426 22.2654C21.0722 22.5093 20.9795 22.812 20.7357 22.9416C20.4918 23.0711 20.1891 22.9784 20.0595 22.7346Z" fill="black"/>
<path d="M3.19917 15.2269C3.04835 14.9956 2.73856 14.9303 2.50724 15.0812C2.27593 15.232 2.21067 15.5418 2.3615 15.7731C4.41258 18.9188 7.96381 21 12.0014 21C16.039 21 19.5902 18.9188 21.6413 15.7731C21.7921 15.5418 21.7269 15.232 21.4956 15.0812C21.2642 14.9303 20.9545 14.9956 20.8036 15.2269C18.9293 18.1016 15.6869 20 12.0014 20C8.31588 20 5.07349 18.1016 3.19917 15.2269Z" fill="black"/>
</svg>
