<svg width="24" height="24" viewBox="0 0 24 24" fill="none" xmlns="http://www.w3.org/2000/svg">
<path d="M12.2506 1.5C12.2506 1.36193 12.1386 1.25 12.0006 1.25C11.8625 1.25 11.7506 1.36193 11.7506 1.5V3.51027C10.2107 3.6373 9.00054 4.92733 9.00054 6.5C9.00054 7.55868 9.54892 8.48928 10.3771 9.02324L5.79114 17.6557C5.92487 17.7577 6.06119 17.8564 6.19997 17.9519L10.8185 9.25815C11.1812 9.41381 11.5808 9.5 12.0005 9.5C12.4204 9.5 12.82 9.41377 13.1828 9.25805L17.8015 17.9521C17.9403 17.8566 18.0766 17.7579 18.2103 17.6559L13.6242 9.02309C14.4523 8.48911 15.0005 7.55859 15.0005 6.5C15.0005 4.92734 13.7904 3.63732 12.2506 3.51027V1.5Z" fill="black"/>
<path d="M3.27991 22.3827L5.07923 18.9958C5.21474 19.0947 5.35245 19.1908 5.49227 19.284L3.72147 22.6173C3.65669 22.7392 3.50533 22.7856 3.3834 22.7208C3.26147 22.656 3.21513 22.5046 3.27991 22.3827Z" fill="black"/>
<path d="M20.2799 22.6173L18.5092 19.2842C18.649 19.191 18.7867 19.0949 18.9223 18.996L20.7215 22.3827C20.7862 22.5046 20.7399 22.656 20.618 22.7208C20.496 22.7856 20.3447 22.7392 20.2799 22.6173Z" fill="black"/>
<path d="M2.98935 15.3635C2.91394 15.2478 2.75905 15.2152 2.64339 15.2906C2.52773 15.366 2.49511 15.5209 2.57052 15.6365C4.57741 18.7145 8.05143 20.75 12.001 20.75C15.9506 20.75 19.4246 18.7145 21.4315 15.6365C21.5069 15.5209 21.4743 15.366 21.3586 15.2906C21.243 15.2152 21.0881 15.2478 21.0127 15.3635C19.0941 18.3059 15.7745 20.25 12.001 20.25C8.22747 20.25 4.90786 18.3059 2.98935 15.3635Z" fill="black"/>
</svg>
