<svg width="24" height="24" viewBox="0 0 24 24" fill="none" xmlns="http://www.w3.org/2000/svg">
<path d="M12.7506 1.5C12.7506 1.08579 12.4148 0.75 12.0006 0.75C11.5864 0.75 11.2506 1.08579 11.2506 1.5V3.59451C9.95669 3.92753 9.0006 5.10211 9.0006 6.5C9.0006 7.37637 9.37637 8.16497 9.97558 8.71346L5.75483 16.6584C6.13548 16.9909 6.5428 17.2934 6.97316 17.5623L11.3 9.41774C11.5247 9.47152 11.7593 9.5 12.0006 9.5C12.2419 9.5 12.4766 9.4715 12.7015 9.41768L17.0284 17.5625C17.4588 17.2936 17.8661 16.9911 18.2468 16.6586L14.0258 8.71328C14.6249 8.16479 15.0006 7.37627 15.0006 6.5C15.0006 5.10213 14.0445 3.92756 12.7506 3.59452V1.5Z" fill="black"/>
<path d="M2.83841 22.1481L4.31892 19.3613C4.71518 19.6704 5.1306 19.9562 5.5631 20.2165L4.16308 22.8519C3.96875 23.2177 3.51468 23.3567 3.14888 23.1623C2.78308 22.968 2.64408 22.5139 2.83841 22.1481Z" fill="black"/>
<path d="M19.8384 22.8519L18.4385 20.2167C18.871 19.9564 19.2864 19.6706 19.6827 19.3615L21.1631 22.1481C21.3574 22.5139 21.2184 22.968 20.8526 23.1623C20.4868 23.3567 20.0327 23.2177 19.8384 22.8519Z" fill="black"/>
<path d="M21.8504 15.9096C22.0766 15.5627 21.9787 15.098 21.6318 14.8717C21.2848 14.6455 20.8201 14.7434 20.5939 15.0904C18.7637 17.8973 15.5986 19.75 12.0011 19.75C8.40356 19.75 5.23838 17.8973 3.40825 15.0904C3.18201 14.7434 2.71734 14.6455 2.37036 14.8717C2.02339 15.098 1.92551 15.5627 2.15174 15.9096C4.24701 19.1232 7.87546 21.25 12.0011 21.25C16.1267 21.25 19.7551 19.1232 21.8504 15.9096Z" fill="black"/>
</svg>
