<svg width="24" height="24" viewBox="0 0 24 24" fill="none" xmlns="http://www.w3.org/2000/svg">
<path fill-rule="evenodd" clip-rule="evenodd" d="M12.0013 1.25C12.1393 1.25 12.2513 1.36193 12.2513 1.5V3.51027C13.7911 3.63732 15.0012 4.92734 15.0012 6.5C15.0012 7.55859 14.453 8.48911 13.6249 9.02309L18.4486 18.1031C19.4549 17.3478 20.3244 16.42 21.0133 15.3635C21.0887 15.2478 21.2436 15.2152 21.3592 15.2906C21.4749 15.366 21.5075 15.5209 21.4321 15.6365C20.6972 16.7637 19.7656 17.751 18.6859 18.5497L20.7222 22.3827C20.787 22.5046 20.7406 22.656 20.6187 22.7208C20.4968 22.7856 20.3454 22.7392 20.2806 22.6173L18.2741 18.8404C16.4822 20.0462 14.3241 20.75 12.0016 20.75C9.67899 20.75 7.52082 20.0461 5.72877 18.8402L3.72218 22.6173C3.6574 22.7392 3.50605 22.7856 3.38411 22.7208C3.26218 22.656 3.21585 22.5046 3.28062 22.3827L5.31701 18.5495C4.23747 17.7508 3.30595 16.7635 2.57113 15.6365C2.49572 15.5209 2.52834 15.366 2.644 15.2906C2.75966 15.2152 2.91455 15.2478 2.98996 15.3635C3.67875 16.4199 4.54814 17.3476 5.5543 18.1029L10.3778 9.02324C9.54963 8.48928 9.00125 7.55868 9.00125 6.5C9.00125 4.92733 10.2114 3.63729 11.7513 3.51027V1.5C11.7513 1.36193 11.8632 1.25 12.0013 1.25ZM5.96466 18.3961C7.68565 19.5663 9.76381 20.25 12.0016 20.25C14.2393 20.25 16.3173 19.5664 18.0383 18.3964L13.1835 9.25805C12.8207 9.41377 12.4211 9.5 12.0012 9.5C11.5815 9.5 11.1819 9.41381 10.8192 9.25815L5.96466 18.3961ZM12.0012 9C13.382 9 14.5012 7.88071 14.5012 6.5C14.5012 5.11929 13.382 4 12.0012 4C10.6205 4 9.50125 5.11929 9.50125 6.5C9.50125 7.88071 10.6205 9 12.0012 9Z" fill="black"/>
</svg>
