<svg width="24" height="24" viewBox="0 0 24 24" fill="none" xmlns="http://www.w3.org/2000/svg">
<path d="M13.251 1.5C13.251 0.809644 12.6914 0.25 12.001 0.25C11.3107 0.25 10.751 0.809644 10.751 1.5V3.77201C9.71826 4.24601 9.00102 5.28925 9.00102 6.5C9.00102 7.18538 9.23086 7.81709 9.61766 8.32224L5.86635 15.3835C6.45281 15.995 7.12919 16.5185 7.87408 16.933L11.8255 9.49495C11.8836 9.4983 11.9421 9.5 12.001 9.5C12.06 9.5 12.1186 9.4983 12.1768 9.49494L16.1283 16.9332C16.8732 16.5187 17.5496 15.9953 18.1361 15.3838L14.3846 8.322C14.7713 7.81689 15.001 7.18528 15.001 6.5C15.001 5.28926 14.2838 4.24604 13.251 3.77203V1.5Z" fill="black"/>
<path d="M2.39728 21.9136L3.44469 19.942C4.09152 20.4725 4.7887 20.9444 5.52801 21.3491L4.60507 23.0864C4.28118 23.6961 3.52439 23.9278 2.91473 23.6039C2.30506 23.28 2.07339 22.5232 2.39728 21.9136Z" fill="black"/>
<path d="M19.3973 23.0864L18.4744 21.3493C19.2137 20.9445 19.9109 20.4727 20.5578 19.9422L21.6051 21.9136C21.9289 22.5232 21.6973 23.28 21.0876 23.6039C20.478 23.9278 19.7212 23.6961 19.3973 23.0864Z" fill="black"/>
<path d="M3.82751 14.8173C3.45045 14.239 2.67599 14.0759 2.0977 14.4529C1.51941 14.83 1.35627 15.6044 1.73333 16.1827C3.91698 19.5318 7.69985 21.75 12.0015 21.75C16.3031 21.75 20.086 19.5318 22.2696 16.1827C22.6467 15.6044 22.4836 14.83 21.9053 14.4529C21.327 14.0759 20.5525 14.239 20.1755 14.8173C18.4337 17.4886 15.423 19.25 12.0015 19.25C8.58002 19.25 5.56926 17.4886 3.82751 14.8173Z" fill="black"/>
</svg>
