<svg width="24" height="24" viewBox="0 0 24 24" fill="none" xmlns="http://www.w3.org/2000/svg">
<path fill-rule="evenodd" clip-rule="evenodd" d="M12.0012 1C12.2773 1 12.5012 1.22386 12.5012 1.5V3.54148C13.92 3.77953 15.0012 5.01351 15.0012 6.5C15.0012 7.46817 14.5425 8.32923 13.8307 8.87776L18.5303 17.7241C19.4153 17.0205 20.1843 16.177 20.8038 15.2269C20.9546 14.9956 21.2644 14.9303 21.4957 15.0812C21.727 15.232 21.7922 15.5418 21.6414 15.7731C20.9297 16.8647 20.0373 17.8281 19.0067 18.6208L20.9429 22.2654C21.0724 22.5093 20.9798 22.812 20.7359 22.9416C20.492 23.0711 20.1893 22.9784 20.0598 22.7346L18.1819 19.1997C16.397 20.3393 14.2765 21 12.0015 21C9.72642 21 7.60575 20.3392 5.82087 19.1995L3.94287 22.7346C3.81331 22.9784 3.5106 23.0711 3.26673 22.9416C3.02286 22.812 2.9302 22.5093 3.05975 22.2654L4.99607 18.6206C3.96555 17.8279 3.07328 16.8646 2.36162 15.7731C2.2108 15.5418 2.27605 15.232 2.50737 15.0812C2.73868 14.9303 3.04847 14.9956 3.19929 15.2269C3.81872 16.1769 4.58758 17.0203 5.47246 17.7238L10.1719 8.87793C9.45988 8.3294 9.00116 7.46827 9.00116 6.5C9.00116 5.01349 10.0823 3.77951 11.5012 3.54148V1.5C11.5012 1.22386 11.725 1 12.0012 1ZM6.29164 18.3134C7.93538 19.3805 9.89615 20 12.0015 20C14.1068 20 16.0674 19.3806 17.7111 18.3136L12.9479 9.34756C12.6503 9.44645 12.332 9.5 12.0012 9.5C11.6704 9.5 11.3522 9.44648 11.0547 9.34764L6.29164 18.3134ZM12.0012 8.5C13.1057 8.5 14.0012 7.60457 14.0012 6.5C14.0012 5.39543 13.1057 4.5 12.0012 4.5C10.8966 4.5 10.0012 5.39543 10.0012 6.5C10.0012 7.60457 10.8966 8.5 12.0012 8.5Z" fill="black"/>
</svg>
