<svg width="24" height="24" viewBox="0 0 24 24" fill="none" xmlns="http://www.w3.org/2000/svg">
<path d="M12.2509 1.5C12.2509 1.36193 12.139 1.25 12.0009 1.25C11.8629 1.25 11.7509 1.36193 11.7509 1.5V3.51027C10.211 3.6373 9.0009 4.92733 9.0009 6.5C9.0009 7.55868 9.54929 8.48928 10.3775 9.02324L5.79151 17.6557C5.92524 17.7577 6.06155 17.8564 6.20033 17.9519L10.8189 9.25815C11.1816 9.41381 11.5812 9.5 12.0009 9.5C12.4207 9.5 12.8204 9.41377 13.1832 9.25805L17.8019 17.9521C17.9407 17.8566 18.077 17.7579 18.2107 17.6559L13.6245 9.02309C14.4526 8.48911 15.0009 7.55859 15.0009 6.5C15.0009 4.92734 13.7908 3.63732 12.2509 3.51027V1.5Z" fill="black"/>
<path d="M3.28028 22.3827L5.07959 18.9958C5.2151 19.0947 5.35281 19.1908 5.49264 19.284L3.72183 22.6173C3.65706 22.7392 3.5057 22.7856 3.38377 22.7208C3.26183 22.656 3.2155 22.5046 3.28028 22.3827Z" fill="black"/>
<path d="M20.2803 22.6173L18.5096 19.2842C18.6494 19.191 18.7871 19.0949 18.9226 18.996L20.7218 22.3827C20.7866 22.5046 20.7403 22.656 20.6183 22.7208C20.4964 22.7856 20.3451 22.7392 20.2803 22.6173Z" fill="black"/>
<path d="M2.98972 15.3635C2.91431 15.2478 2.75942 15.2152 2.64376 15.2906C2.5281 15.366 2.49547 15.5209 2.57088 15.6365C4.57778 18.7145 8.0518 20.75 12.0014 20.75C15.9509 20.75 19.425 18.7145 21.4319 15.6365C21.5073 15.5209 21.4746 15.366 21.359 15.2906C21.2433 15.2152 21.0884 15.2478 21.013 15.3635C19.0945 18.3059 15.7749 20.25 12.0014 20.25C8.22783 20.25 4.90823 18.3059 2.98972 15.3635Z" fill="black"/>
</svg>
