<svg width="24" height="24" viewBox="0 0 24 24" fill="none" xmlns="http://www.w3.org/2000/svg">
<path d="M13.001 1.5C13.001 0.947715 12.5533 0.5 12.001 0.5C11.4487 0.5 11.001 0.947715 11.001 1.5V3.6707C9.83581 4.08253 9.00099 5.19377 9.00099 6.5C9.00099 7.28233 9.30045 7.99472 9.79099 8.52879L5.80649 16.029C6.29633 16.4941 6.83821 16.9043 7.42244 17.2502L11.5571 9.46738C11.7019 9.48887 11.8502 9.5 12.001 9.5C12.1519 9.5 12.3002 9.48886 12.4452 9.46734L16.5799 17.2504C17.1642 16.9045 17.7061 16.4943 18.1959 16.0293L14.2112 8.52859C14.7016 7.99453 15.001 7.28223 15.001 6.5C15.001 5.19379 14.1662 4.08255 13.001 3.67071V1.5Z" fill="black"/>
<path d="M2.61803 22.0308L3.88152 19.6525C4.40423 20.0711 4.96006 20.4502 5.54446 20.7852L4.38426 22.9692C4.12515 23.4569 3.51972 23.6422 3.03199 23.3831C2.54426 23.124 2.35892 22.5186 2.61803 22.0308Z" fill="black"/>
<path d="M19.618 22.9692L18.4579 20.7854C19.0423 20.4503 19.5982 20.0712 20.1209 19.6527L21.3843 22.0308C21.6434 22.5186 21.458 23.124 20.9703 23.3831C20.4826 23.6422 19.8771 23.4569 19.618 22.9692Z" fill="black"/>
<path d="M3.61806 14.9538C3.31642 14.4912 2.69685 14.3607 2.23421 14.6623C1.77158 14.964 1.64107 15.5835 1.94272 16.0462C4.08218 19.3275 7.78784 21.5 12.0015 21.5C16.2151 21.5 19.9207 19.3275 22.0602 16.0462C22.3618 15.5835 22.2313 14.964 21.7687 14.6623C21.3061 14.3607 20.6865 14.4912 20.3849 14.9538C18.5989 17.6929 15.5109 19.5 12.0015 19.5C8.49197 19.5 5.404 17.6929 3.61806 14.9538Z" fill="black"/>
</svg>
