<svg width="24" height="24" viewBox="0 0 24 24" fill="none" xmlns="http://www.w3.org/2000/svg">
<path d="M7.75 13.9998C7.75 13.3094 8.30965 12.7498 9 12.7498L16 12.7498C16.6904 12.7498 17.25 13.3094 17.25 13.9998C17.25 14.6901 16.6904 15.2498 16 15.2498L9 15.2498C8.30965 15.2498 7.75 14.6901 7.75 13.9998Z" fill="black"/>
<path d="M9 16.7498C8.30965 16.7498 7.75 17.3094 7.75 17.9998C7.75 18.6901 8.30965 19.2498 9 19.2498H13C13.6904 19.2498 14.25 18.6901 14.25 17.9998C14.25 17.3094 13.6904 16.7498 13 16.7498H9Z" fill="black"/>
<path fill-rule="evenodd" clip-rule="evenodd" d="M13.9828 0.840738C13.602 0.748784 13.2114 0.749304 12.8111 0.749837L7.65416 0.749916C7.13338 0.749889 6.66957 0.749866 6.28462 0.781317C5.87381 0.814882 5.44403 0.890402 5.02454 1.10415C4.41301 1.41573 3.91582 1.91292 3.60423 2.52445C3.39049 2.94395 3.31497 3.37373 3.2814 3.78453C3.24995 4.16947 3.24998 4.63325 3.25 5.154V18.8458C3.24998 19.3665 3.24995 19.8304 3.2814 20.2153C3.31497 20.6261 3.39049 21.0559 3.60423 21.4754C3.91582 22.0869 4.41301 22.5841 5.02454 22.8957C5.44403 23.1094 5.87381 23.185 6.28462 23.2185C6.66957 23.25 7.13336 23.2499 7.65413 23.2499H16.8459C17.3666 23.2499 17.8304 23.25 18.2154 23.2185C18.6262 23.185 19.056 23.1094 19.4755 22.8957C20.087 22.5841 20.5842 22.0869 20.8958 21.4754C21.1095 21.0559 21.185 20.6261 21.2186 20.2153C21.2501 19.8304 21.25 19.3665 21.25 18.8458L21.2501 9.22668C21.2506 8.83123 21.2511 8.44529 21.1612 8.06865C21.0825 7.73883 20.9527 7.42335 20.7764 7.13368C20.5751 6.80289 20.3031 6.52913 20.0243 6.24863L15.816 2.00238C15.5346 1.7177 15.26 1.43989 14.9266 1.23418C14.6347 1.05405 14.3162 0.921256 13.9828 0.840738ZM11.25 3.24992H7.7C7.11933 3.24992 6.75899 3.25089 6.4882 3.27301C6.23372 3.29381 6.16871 3.32697 6.15969 3.33157C6.01857 3.40348 5.90365 3.5183 5.83175 3.65942C5.82715 3.66845 5.79389 3.73363 5.7731 3.98811C5.75098 4.25891 5.75 4.61924 5.75 5.19992V18.7999C5.75 19.3806 5.75098 19.7409 5.7731 20.0117C5.79389 20.2662 5.82706 20.3312 5.83166 20.3402C5.90357 20.4814 6.01839 20.5963 6.15951 20.6682C6.16854 20.6728 6.23374 20.706 6.4882 20.7268C6.75899 20.7489 7.11933 20.7499 7.7 20.7499H16.8C17.3807 20.7499 17.741 20.7489 18.0118 20.7268C18.2663 20.706 18.3313 20.6729 18.3403 20.6683C18.4814 20.5964 18.5964 20.4815 18.6683 20.3404C18.6729 20.3314 18.7061 20.2662 18.7269 20.0117C18.749 19.7409 18.75 19.3806 18.75 18.7999V10.9335L14.0634 10.9335C13.8154 10.9335 13.5601 10.9336 13.3414 10.9157C13.0974 10.8958 12.7911 10.8475 12.4785 10.6882C12.0552 10.4725 11.711 10.1283 11.4952 9.70496C11.336 9.39242 11.2877 9.08612 11.2678 8.84207C11.2499 8.62338 11.25 8.36811 11.25 8.12007L11.25 3.24992ZM18.6407 8.43323C18.6126 8.38706 18.5689 8.33164 18.185 7.94434L14.1046 3.82725C13.9275 3.64849 13.8195 3.54192 13.75 3.47615V8.08348C13.75 8.225 13.75 8.33608 13.7515 8.43197C13.8474 8.43345 13.9585 8.43348 14.1 8.43348L18.6407 8.43323Z" fill="black"/>
</svg>
