<svg width="24" height="24" viewBox="0 0 24 24" fill="none" xmlns="http://www.w3.org/2000/svg">
<path fill-rule="evenodd" clip-rule="evenodd" d="M13.748 1.81288C13.4874 1.74994 13.2134 1.74996 12.7542 1.75L7.68869 1.75C7.13827 1.75 6.70971 1.75 6.36605 1.77808C6.01708 1.80659 5.73355 1.8653 5.47852 1.99524C5.05516 2.21095 4.71095 2.55516 4.49524 2.97853C4.36529 3.23355 4.30659 3.51709 4.27808 3.86605C4.25 4.20972 4.25 4.63814 4.25 5.18855V18.8113C4.25 19.3617 4.25 19.7903 4.27808 20.134C4.30659 20.4829 4.36529 20.7665 4.49524 21.0215C4.71095 21.4448 5.05516 21.7891 5.47852 22.0048C5.73355 22.1347 6.01708 22.1934 6.36605 22.2219C6.70974 22.25 7.1382 22.25 7.68868 22.25H16.8113C17.3618 22.25 17.7903 22.25 18.134 22.2219C18.4829 22.1934 18.7664 22.1347 19.0215 22.0048C19.4448 21.7891 19.789 21.4448 20.0048 21.0215C20.1347 20.7665 20.1934 20.4829 20.2219 20.134C20.25 19.7903 20.25 19.3618 20.25 18.8113L20.25 9.28298C20.25 8.8293 20.2501 8.55867 20.1885 8.30088C20.134 8.07254 20.0441 7.85413 19.9221 7.65359C19.7843 7.42718 19.5938 7.23497 19.2744 6.91277L15.1457 2.7469C14.8225 2.42066 14.6296 2.22606 14.4015 2.08526C14.1994 1.96055 13.9788 1.86862 13.748 1.81288ZM12.75 2.25001C13.2324 2.25009 13.4389 2.25259 13.6306 2.29891C13.8102 2.34226 13.9817 2.41376 14.1389 2.51076C14.3103 2.61652 14.46 2.76531 14.8149 3.1234L18.8953 7.2405C19.2458 7.59421 19.3915 7.74342 19.495 7.9135C19.5899 8.06948 19.6598 8.23935 19.7022 8.41694C19.7484 8.6106 19.75 8.8191 19.75 9.3171V9.43351H14.1C13.8158 9.43351 13.6178 9.43332 13.4636 9.42072C13.3123 9.40836 13.2253 9.38531 13.1595 9.35177C13.0184 9.27986 12.9037 9.16513 12.8317 9.02401C12.7982 8.95817 12.7752 8.87125 12.7628 8.71995C12.7502 8.56574 12.75 8.36767 12.75 8.08351V2.25001ZM8.75 14C8.75 13.8619 8.86193 13.75 9 13.75L16 13.75C16.1381 13.75 16.25 13.8619 16.25 14C16.25 14.1381 16.1381 14.25 16 14.25L9 14.25C8.86193 14.25 8.75 14.1381 8.75 14ZM9 17.75C8.86193 17.75 8.75 17.8619 8.75 18C8.75 18.1381 8.86193 18.25 9 18.25H13C13.1381 18.25 13.25 18.1381 13.25 18C13.25 17.8619 13.1381 17.75 13 17.75H9Z" fill="black"/>
</svg>
