<svg width="24" height="24" viewBox="0 0 24 24" fill="none" xmlns="http://www.w3.org/2000/svg">
<path d="M12 0.5C12.5523 0.5 13 0.947715 13 1.5V2.77162L15.1375 3.00913L15.2052 3.02041C17.395 3.38538 19 5.27999 19 7.5C19 8.05228 18.5523 8.5 18 8.5C17.4477 8.5 17 8.05228 17 7.5C17 6.25767 16.1018 5.19743 14.8764 4.9932L14.8625 4.99087L10.4118 4.49635C8.59176 4.29413 7 5.71882 7 7.55007C7 9.05203 8.08586 10.3339 9.56739 10.5808L14.7614 11.4464C17.2073 11.8541 19 13.9703 19 16.4499C19 19.4732 16.3721 21.8253 13.3673 21.4914L12.5 21.395V22.5C12.5 23.0523 12.0523 23.5 11.5 23.5C10.9477 23.5 10.5 23.0523 10.5 22.5V21.1728L8.86248 20.9909L8.79478 20.9796C6.60498 20.6146 5 18.72 5 16.5C5 15.9477 5.44771 15.5 6 15.5C6.55229 15.5 7 15.9477 7 16.5C7 17.7423 7.89816 18.8026 9.12358 19.0068L9.13754 19.0091L13.5882 19.5036C15.4082 19.7059 17 18.2812 17 16.4499C17 14.948 15.9141 13.6661 14.4326 13.4192L9.23859 12.5536C6.79269 12.1459 5 10.0297 5 7.55007C5 4.5268 7.62789 2.17472 10.6327 2.50859L11 2.5494V1.5C11 0.947715 11.4477 0.5 12 0.5Z" fill="black"/>
</svg>
