<svg width="24" height="24" viewBox="0 0 24 24" fill="none" xmlns="http://www.w3.org/2000/svg">
<path d="M12.25 1.5C12.25 1.36193 12.1381 1.25 12 1.25C11.8619 1.25 11.75 1.36193 11.75 1.5V22.5C11.75 22.6381 11.8619 22.75 12 22.75C12.1381 22.75 12.25 22.6381 12.25 22.5V1.5Z" fill="black"/>
<path d="M15.0276 3.75153L13 3.52624V4.02932L14.9656 4.24772L14.9997 4.2534C16.5868 4.51791 17.75 5.89104 17.75 7.5C17.75 7.63807 17.8619 7.75 18 7.75C18.1381 7.75 18.25 7.63807 18.25 7.5C18.25 5.64662 16.9101 4.0649 15.0819 3.76021L15.0411 3.7534L15.0276 3.75153Z" fill="black"/>
<path d="M11 3.30402V3.80709L10.4946 3.75094C8.23031 3.49935 6.25 5.27181 6.25 7.55007C6.25 9.41866 7.60092 11.0134 9.44409 11.3206L11 11.5799V12.0868L9.36189 11.8138C7.27763 11.4664 5.75 9.66308 5.75 7.55007C5.75 4.97381 7.98934 2.9695 10.5498 3.254L11 3.30402Z" fill="black"/>
<path d="M14.6381 12.1862L13 11.9132V12.4201L14.5559 12.6794C16.3991 12.9866 17.75 14.5813 17.75 16.4499C17.75 18.7282 15.7697 20.5007 13.5054 20.2491L13 20.1929V20.696L13.4502 20.746C16.0107 21.0305 18.25 19.0262 18.25 16.4499C18.25 14.3369 16.7224 12.5336 14.6381 12.1862Z" fill="black"/>
<path d="M11 20.4738V19.9707L9.03438 19.7523L9.00028 19.7466C7.41322 19.4821 6.25 18.109 6.25 16.5C6.25 16.3619 6.13807 16.25 6 16.25C5.86193 16.25 5.75 16.3619 5.75 16.5C5.75 18.3534 7.08992 19.9351 8.91808 20.2398L8.9589 20.2466L8.97239 20.2485L11 20.4738Z" fill="black"/>
</svg>
