<svg width="24" height="24" viewBox="0 0 24 24" fill="none" xmlns="http://www.w3.org/2000/svg">
<path d="M12 1C12.2761 1 12.5 1.22386 12.5 1.5V3.21915L15.0688 3.50456L15.123 3.51361C17.0717 3.83839 18.5 5.52441 18.5 7.5C18.5 7.77614 18.2761 8 18 8C17.7239 8 17.5 7.77614 17.5 7.5C17.5 6.01325 16.4251 4.74442 14.9586 4.5L14.9312 4.49544L10.467 3.99941C8.35079 3.76428 6.5 5.42081 6.5 7.55007C6.5 9.29645 7.76257 10.7869 9.48519 11.074L14.6792 11.9396C16.884 12.3071 18.5 14.2147 18.5 16.4499C18.5 19.1752 16.1311 21.2954 13.4225 20.9945L12 20.8364V22.5C12 22.7761 11.7761 23 11.5 23C11.2239 23 11 22.7761 11 22.5V20.7253L8.93124 20.4954L8.87698 20.4864C6.92828 20.1616 5.5 18.4756 5.5 16.5C5.5 16.2239 5.72386 16 6 16C6.27614 16 6.5 16.2239 6.5 16.5C6.5 17.9867 7.57486 19.2556 9.04138 19.5L9.06876 19.5046L13.533 20.0006C15.6492 20.2357 17.5 18.5792 17.5 16.4499C17.5 14.7035 16.2374 13.2131 14.5148 12.926L9.32079 12.0604C7.11598 11.6929 5.5 9.78529 5.5 7.55007C5.5 4.8248 7.86886 2.70457 10.5775 3.00553L11.5 3.10803V1.5C11.5 1.22386 11.7239 1 12 1Z" fill="black"/>
</svg>
