<svg width="24" height="24" viewBox="0 0 24 24" fill="none" xmlns="http://www.w3.org/2000/svg">
<path d="M12 1.25C12.1381 1.25 12.25 1.36193 12.25 1.5V3.44291L15.0412 3.75304L15.0819 3.7602C16.9101 4.0649 18.25 5.64662 18.25 7.5C18.25 7.63807 18.1381 7.75 18 7.75C17.8619 7.75 17.75 7.63807 17.75 7.5C17.75 5.89104 16.5868 4.51791 14.9997 4.2534L14.9656 4.24772L10.4946 3.75094C8.23031 3.49935 6.25 5.27181 6.25 7.55007C6.25 9.41866 7.60092 11.0134 9.44409 11.3206L14.6381 12.1862C16.7224 12.5336 18.25 14.3369 18.25 16.4499C18.25 19.0262 16.0107 21.0305 13.4502 20.746L11.75 20.5571V22.5C11.75 22.6381 11.6381 22.75 11.5 22.75C11.3619 22.75 11.25 22.6381 11.25 22.5V20.5015L8.95884 20.247L8.91808 20.2398C7.08992 19.9351 5.75 18.3534 5.75 16.5C5.75 16.3619 5.86193 16.25 6 16.25C6.13807 16.25 6.25 16.3619 6.25 16.5C6.25 18.109 7.41322 19.4821 9.00028 19.7466L9.03438 19.7523L13.5054 20.2491C15.7697 20.5007 17.75 18.7282 17.75 16.4499C17.75 14.5813 16.3991 12.9866 14.5559 12.6794L9.36189 11.8138C7.27763 11.4664 5.75 9.66308 5.75 7.55007C5.75 4.97381 7.98934 2.9695 10.5498 3.254L11.75 3.38735V1.5C11.75 1.36193 11.8619 1.25 12 1.25Z" fill="black"/>
</svg>
