<svg width="24" height="24" viewBox="0 0 24 24" fill="none" xmlns="http://www.w3.org/2000/svg">
<path d="M1.5 8.74988C1.08579 8.74988 0.75 8.41409 0.75 7.99988C0.75 7.58567 1.08579 7.24988 1.5 7.24988L22.4999 7.24988C22.9141 7.24988 23.2499 7.58567 23.2499 7.99988C23.2499 8.41409 22.9141 8.74988 22.4999 8.74988H16.8552C16.4941 11.1068 14.4579 12.912 11.9999 12.912C9.54204 12.912 7.50576 11.1068 7.14468 8.74988H1.5Z" fill="black"/>
<path d="M11.9999 19.2499C12.4141 19.2499 12.7499 18.9141 12.7499 18.4999V15.6469C12.7499 15.2327 12.4141 14.8969 11.9999 14.8969C11.5857 14.8969 11.2499 15.2327 11.2499 15.6469V18.4999C11.2499 18.9141 11.5857 19.2499 11.9999 19.2499Z" fill="black"/>
<path d="M19.955 14.8941C20.2479 15.187 20.2479 15.6619 19.955 15.9547C19.6621 16.2476 19.1872 16.2476 18.8943 15.9547L17.5841 14.6445C17.2912 14.3516 17.2912 13.8768 17.5841 13.5839C17.877 13.291 18.3518 13.291 18.6447 13.5839L19.955 14.8941Z" fill="black"/>
<path d="M4.04491 15.9547C4.3378 16.2476 4.81268 16.2476 5.10557 15.9547L6.41579 14.6445C6.70868 14.3516 6.70868 13.8768 6.41579 13.5839C6.1229 13.291 5.64802 13.291 5.35513 13.5839L4.04491 14.8941C3.75202 15.187 3.75202 15.6618 4.04491 15.9547Z" fill="black"/>
</svg>
