<svg width="24" height="24" viewBox="0 0 24 24" fill="none" xmlns="http://www.w3.org/2000/svg">
<path fill-rule="evenodd" clip-rule="evenodd" d="M1.5 8.24988C1.36193 8.24988 1.25 8.13795 1.25 7.99988C1.25 7.86181 1.36193 7.74988 1.5 7.74988L22.4999 7.74988C22.638 7.74988 22.7499 7.86181 22.7499 7.99988C22.7499 8.13795 22.638 8.24988 22.4999 8.24988H16.4051C16.2755 10.5703 14.3528 12.412 11.9999 12.412C9.64707 12.412 7.72436 10.5703 7.59475 8.24988H1.5ZM8.09564 8.24988H15.9043C15.7753 10.294 14.0766 11.912 11.9999 11.912C9.92329 11.912 8.22455 10.294 8.09564 8.24988Z" fill="black"/>
<path d="M11.9999 18.7499C12.138 18.7499 12.2499 18.638 12.2499 18.4999V15.6469C12.2499 15.5089 12.138 15.3969 11.9999 15.3969C11.8619 15.3969 11.7499 15.5089 11.7499 15.6469V18.4999C11.7499 18.638 11.8619 18.7499 11.9999 18.7499Z" fill="black"/>
<path d="M19.6014 15.2476C19.699 15.3453 19.699 15.5036 19.6014 15.6012C19.5038 15.6988 19.3455 15.6988 19.2479 15.6012L17.9376 14.291C17.84 14.1933 17.84 14.035 17.9376 13.9374C18.0353 13.8398 18.1936 13.8398 18.2912 13.9374L19.6014 15.2476Z" fill="black"/>
<path d="M4.39846 15.6012C4.49609 15.6988 4.65439 15.6988 4.75202 15.6012L6.06224 14.291C6.15987 14.1933 6.15987 14.035 6.06224 13.9374C5.96461 13.8398 5.80632 13.8398 5.70868 13.9374L4.39846 15.2476C4.30083 15.3453 4.30083 15.5036 4.39846 15.6012Z" fill="black"/>
</svg>
