<svg width="24" height="24" viewBox="0 0 24 24" fill="none" xmlns="http://www.w3.org/2000/svg">
<path fill-rule="evenodd" clip-rule="evenodd" d="M1.5 8.99988C0.947715 8.99988 0.5 8.55216 0.5 7.99988C0.5 7.44759 0.947715 6.99988 1.5 6.99988L22.4999 6.99988C23.0522 6.99988 23.4999 7.44759 23.4999 7.99988C23.4999 8.55216 23.0522 8.99988 22.4999 8.99988H17.0653C16.5996 11.3723 14.5088 13.162 11.9999 13.162C9.49109 13.162 7.40025 11.3723 6.93457 8.99988H1.5ZM8.99916 8.99988L15.0007 8.99988C14.5823 10.2562 13.3969 11.162 11.9999 11.162C10.603 11.162 9.41763 10.2562 8.99916 8.99988Z" fill="black"/>
<path d="M3.86813 16.1315C4.25866 16.522 4.89182 16.522 5.28235 16.1315L6.59257 14.8213C6.98309 14.4308 6.98309 13.7976 6.59257 13.4071C6.20204 13.0166 5.56888 13.0166 5.17835 13.4071L3.86813 14.7173C3.47761 15.1078 3.47761 15.741 3.86813 16.1315Z" fill="black"/>
<path d="M11.9999 19.4999C12.5522 19.4999 12.9999 19.0522 12.9999 18.4999V15.6469C12.9999 15.0947 12.5522 14.6469 11.9999 14.6469C11.4476 14.6469 10.9999 15.0947 10.9999 15.6469V18.4999C10.9999 19.0522 11.4476 19.4999 11.9999 19.4999Z" fill="black"/>
<path d="M20.1317 14.7173C20.5223 15.1078 20.5223 15.741 20.1317 16.1315C19.7412 16.522 19.108 16.522 18.7175 16.1315L17.4073 14.8213C17.0168 14.4308 17.0168 13.7976 17.4073 13.4071C17.7978 13.0166 18.431 13.0166 18.8215 13.4071L20.1317 14.7173Z" fill="black"/>
</svg>
