<svg width="24" height="24" viewBox="0 0 24 24" fill="none" xmlns="http://www.w3.org/2000/svg">
<path d="M1.5 9.24988C0.809644 9.24988 0.25 8.69023 0.25 7.99988C0.25 7.30952 0.809644 6.74988 1.5 6.74988L22.4999 6.74988C23.1903 6.74988 23.7499 7.30952 23.7499 7.99988C23.7499 8.69023 23.1903 9.24988 22.4999 9.24988H17.267C16.7028 11.6363 14.5588 13.412 11.9999 13.412C9.44113 13.412 7.29706 11.6363 6.73285 9.24988H1.5Z" fill="black"/>
<path d="M3.69136 16.3083C4.17951 16.7965 4.97097 16.7965 5.45912 16.3083L6.76934 14.9981C7.2575 14.5099 7.2575 13.7185 6.76934 13.2303C6.28119 12.7422 5.48973 12.7422 5.00158 13.2303L3.69136 14.5405C3.2032 15.0287 3.2032 15.8201 3.69136 16.3083Z" fill="black"/>
<path d="M11.9999 19.7499C12.6903 19.7499 13.2499 19.1902 13.2499 18.4999V15.6469C13.2499 14.9566 12.6903 14.3969 11.9999 14.3969C11.3096 14.3969 10.7499 14.9566 10.7499 15.6469V18.4999C10.7499 19.1902 11.3096 19.7499 11.9999 19.7499Z" fill="black"/>
<path d="M20.3085 14.5405C20.7967 15.0287 20.7967 15.8201 20.3085 16.3083C19.8204 16.7965 19.0289 16.7965 18.5407 16.3083L17.2305 14.9981C16.7424 14.5099 16.7424 13.7185 17.2305 13.2303C17.7187 12.7422 18.5101 12.7422 18.9983 13.2303L20.3085 14.5405Z" fill="black"/>
</svg>
