<svg width="24" height="24" viewBox="0 0 24 24" fill="none" xmlns="http://www.w3.org/2000/svg">
<path fill-rule="evenodd" clip-rule="evenodd" d="M1.5 8.49988C1.22386 8.49988 1 8.27602 1 7.99988C1 7.72374 1.22386 7.49988 1.5 7.49988L22.4999 7.49988C22.7761 7.49988 22.9999 7.72374 22.9999 7.99988C22.9999 8.27602 22.7761 8.49988 22.4999 8.49988H16.6356C16.3861 10.8396 14.4059 12.662 11.9999 12.662C9.59402 12.662 7.61374 10.8396 7.36428 8.49988H1.5ZM8.37163 8.49988H15.6283C15.3844 10.2859 13.8529 11.662 11.9999 11.662C10.147 11.662 8.61546 10.2859 8.37163 8.49988Z" fill="black"/>
<path d="M11.9999 18.9999C12.2761 18.9999 12.4999 18.776 12.4999 18.4999V15.6469C12.4999 15.3708 12.2761 15.1469 11.9999 15.1469C11.7238 15.1469 11.4999 15.3708 11.4999 15.6469V18.4999C11.4999 18.776 11.7238 18.9999 11.9999 18.9999Z" fill="black"/>
<path d="M19.7782 15.0709C19.9734 15.2661 19.9734 15.5827 19.7782 15.778C19.5829 15.9732 19.2663 15.9732 19.0711 15.778L17.7609 14.4677C17.5656 14.2725 17.5656 13.9559 17.7609 13.7606C17.9561 13.5654 18.2727 13.5654 18.468 13.7606L19.7782 15.0709Z" fill="black"/>
<path d="M4.22169 15.778C4.41695 15.9732 4.73353 15.9732 4.92879 15.778L6.23901 14.4677C6.43428 14.2725 6.43428 13.9559 6.23901 13.7606C6.04375 13.5654 5.72717 13.5654 5.53191 13.7606L4.22169 15.0709C4.02643 15.2661 4.02643 15.5827 4.22169 15.778Z" fill="black"/>
</svg>
