<svg width="24" height="24" viewBox="0 0 24 24" fill="none" xmlns="http://www.w3.org/2000/svg">
<path fill-rule="evenodd" clip-rule="evenodd" d="M12 23.4998C18.3513 23.4998 23.5 18.351 23.5 11.9998C23.5 5.64848 18.3513 0.499756 12 0.499756C5.64873 0.499756 0.5 5.64848 0.5 11.9998C0.5 18.351 5.64873 23.4998 12 23.4998ZM12.8015 17.5179C12.3134 18.0061 11.5219 18.0061 11.0337 17.5179L7.49063 13.9748C7.00247 13.4866 7.00247 12.6952 7.49063 12.207C7.97878 11.7189 8.77024 11.7189 9.2584 12.207L10.6676 13.6163V6.90043C10.6676 6.21008 11.2273 5.65043 11.9176 5.65043C12.608 5.65043 13.1676 6.21008 13.1676 6.90043V13.6163L14.5769 12.207C15.065 11.7189 15.8565 11.7189 16.3446 12.207C16.8328 12.6952 16.8328 13.4866 16.3446 13.9748L12.8015 17.5179Z" fill="black"/>
</svg>
