<svg width="24" height="24" viewBox="0 0 24 24" fill="none" xmlns="http://www.w3.org/2000/svg">
<path d="M2.75 20C2.75 19.5858 2.41421 19.25 2 19.25C1.58579 19.25 1.25 19.5858 1.25 20C1.25 22.0711 2.92893 23.75 5 23.75H19C21.0711 23.75 22.75 22.0711 22.75 20C22.75 19.5858 22.4142 19.25 22 19.25C21.5858 19.25 21.25 19.5858 21.25 20C21.25 21.2426 20.2426 22.25 19 22.25H5C3.75736 22.25 2.75 21.2426 2.75 20Z" fill="black"/>
<path d="M12.8542 19.7607C12.5614 20.0536 12.0865 20.0536 11.7936 19.7607L5.71967 13.6868C5.42678 13.3939 5.42678 12.919 5.71967 12.6261C6.01256 12.3332 6.48744 12.3332 6.78033 12.6261L11.5739 17.4197L11.5739 1.54419C11.5739 1.12998 11.9097 0.794189 12.3239 0.794189C12.7381 0.794189 13.0739 1.12998 13.0739 1.54419L13.0739 17.4197L17.8675 12.6261C18.1604 12.3332 18.6353 12.3332 18.9282 12.6261C19.2211 12.919 19.2211 13.3939 18.9282 13.6868L12.8542 19.7607Z" fill="black"/>
</svg>
