<svg width="24" height="24" viewBox="0 0 24 24" fill="none" xmlns="http://www.w3.org/2000/svg">
<path d="M3 20C3 19.4477 2.55228 19 2 19C1.44772 19 1 19.4477 1 20C1 22.2091 2.79086 24 5 24H19C21.2091 24 23 22.2091 23 20C23 19.4477 22.5523 19 22 19C21.4477 19 21 19.4477 21 20C21 21.1046 20.1046 22 19 22H5C3.89543 22 3 21.1046 3 20Z" fill="black"/>
<path d="M12.781 19.9375C12.3905 20.328 11.7573 20.328 11.3668 19.9375L5.29289 13.8636C4.90237 13.473 4.90237 12.8399 5.29289 12.4493C5.68342 12.0588 6.31658 12.0588 6.70711 12.4493L11.0739 16.8161L11.0739 1.54419C11.0739 0.991905 11.5216 0.544189 12.0739 0.544189C12.6262 0.544189 13.0739 0.991905 13.0739 1.54419L13.0739 16.8161L17.4407 12.4493C17.8313 12.0588 18.4644 12.0588 18.8549 12.4493C19.2455 12.8399 19.2455 13.473 18.8549 13.8636L12.781 19.9375Z" fill="black"/>
</svg>
