<svg width="24" height="24" viewBox="0 0 24 24" fill="none" xmlns="http://www.w3.org/2000/svg">
<path d="M12.8015 17.5179C12.3134 18.0061 11.5219 18.0061 11.0337 17.5179L7.49063 13.9748C7.00247 13.4866 7.00247 12.6952 7.49063 12.207C7.97878 11.7189 8.77024 11.7189 9.2584 12.207L10.6676 13.6163V6.90043C10.6676 6.21008 11.2273 5.65043 11.9176 5.65043C12.608 5.65043 13.1676 6.21008 13.1676 6.90043V13.6163L14.5769 12.207C15.065 11.7189 15.8565 11.7189 16.3446 12.207C16.8328 12.6952 16.8328 13.4866 16.3446 13.9748L12.8015 17.5179Z" fill="black"/>
<path fill-rule="evenodd" clip-rule="evenodd" d="M23.5 11.9998C23.5 18.351 18.3513 23.4998 12 23.4998C5.64873 23.4998 0.5 18.351 0.5 11.9998C0.5 5.64848 5.64873 0.499756 12 0.499756C18.3513 0.499756 23.5 5.64848 23.5 11.9998ZM21 11.9998C21 16.9703 16.9706 20.9998 12 20.9998C7.02944 20.9998 3 16.9703 3 11.9998C3 7.02919 7.02944 2.99976 12 2.99976C16.9706 2.99976 21 7.02919 21 11.9998Z" fill="black"/>
</svg>
