<svg width="24" height="24" viewBox="0 0 24 24" fill="none" xmlns="http://www.w3.org/2000/svg">
<path fill-rule="evenodd" clip-rule="evenodd" d="M0.123117 8.43565C0 9.21298 0 10.142 0 12C0 13.858 0 14.787 0.123117 15.5643C0.800832 19.8433 4.15673 23.1992 8.43565 23.8769C9.21298 24 10.142 24 12 24C13.858 24 14.787 24 15.5643 23.8769C19.8433 23.1992 23.1992 19.8433 23.8769 15.5643C24 14.787 24 13.858 24 12C24 10.142 24 9.21298 23.8769 8.43565C23.1992 4.15673 19.8433 0.800832 15.5643 0.123117C14.787 0 13.858 0 12 0C10.142 0 9.21298 0 8.43565 0.123117C4.15673 0.800832 0.800832 4.15673 0.123117 8.43565ZM6.16667 15.6667C6.71895 15.6667 7.16667 16.1144 7.16667 16.6667C7.16667 17.0809 7.50245 17.4167 7.91667 17.4167H16.0833C16.4975 17.4167 16.8333 17.0809 16.8333 16.6667C16.8333 16.1144 17.281 15.6667 17.8333 15.6667C18.3856 15.6667 18.8333 16.1144 18.8333 16.6667C18.8333 18.1854 17.6021 19.4167 16.0833 19.4167H7.91667C6.39789 19.4167 5.16667 18.1854 5.16667 16.6667C5.16667 16.1144 5.61438 15.6667 6.16667 15.6667ZM7.66781 12.7984L11.2109 16.3415C11.6015 16.732 12.2346 16.732 12.6251 16.3415L16.1683 12.7984C16.5588 12.4078 16.5588 11.7747 16.1683 11.3842C15.7777 10.9936 15.1446 10.9936 14.7541 11.3842L12.918 13.2202V5.90079C12.918 5.3485 12.4703 4.90079 11.918 4.90079C11.3658 4.90079 10.918 5.3485 10.918 5.90079V13.2202L9.08202 11.3842C8.6915 10.9936 8.05834 10.9936 7.66781 11.3842C7.27729 11.7747 7.27729 12.4078 7.66781 12.7984Z" fill="black"/>
</svg>
