<svg width="24" height="24" viewBox="0 0 24 24" fill="none" xmlns="http://www.w3.org/2000/svg">
<path fill-rule="evenodd" clip-rule="evenodd" d="M0.123117 8.43565C0 9.21298 0 10.142 0 12C0 13.858 0 14.787 0.123117 15.5643C0.800832 19.8433 4.15673 23.1992 8.43565 23.8769C9.21298 24 10.142 24 12 24C13.858 24 14.787 24 15.5643 23.8769C19.8433 23.1992 23.1992 19.8433 23.8769 15.5643C24 14.787 24 13.858 24 12C24 10.142 24 9.21298 23.8769 8.43565C23.1992 4.15673 19.8433 0.800832 15.5643 0.123117C14.787 0 13.858 0 12 0C10.142 0 9.21298 0 8.43565 0.123117C4.15673 0.800832 0.800832 4.15673 0.123117 8.43565ZM5.46967 10.0782L11.3879 15.9965C11.726 16.3345 12.274 16.3345 12.6121 15.9965L18.5303 10.0782C18.8232 9.78532 18.8232 9.31045 18.5303 9.01756C18.2374 8.72466 17.7626 8.72466 17.4697 9.01756L12 14.4872L6.53033 9.01756C6.23744 8.72466 5.76256 8.72466 5.46967 9.01756C5.17678 9.31045 5.17678 9.78532 5.46967 10.0782Z" fill="black"/>
</svg>
