<svg width="24" height="24" viewBox="0 0 24 24" fill="none" xmlns="http://www.w3.org/2000/svg">
<path fill-rule="evenodd" clip-rule="evenodd" d="M12 23.4998C18.3513 23.4998 23.5 18.351 23.5 11.9998C23.5 5.64848 18.3513 0.499756 12 0.499756C5.64873 0.499756 0.5 5.64848 0.5 11.9998C0.5 18.351 5.64873 23.4998 12 23.4998ZM15.8143 13.4445L12.2712 16.9876C12.0759 17.1828 11.7593 17.1828 11.5641 16.9876L8.02096 13.4445C7.8257 13.2492 7.8257 12.9326 8.02096 12.7374C8.21622 12.5421 8.5328 12.5421 8.72807 12.7374L11.4176 15.4269L11.4176 6.90043C11.4176 6.62429 11.6415 6.40043 11.9176 6.40043C12.1938 6.40043 12.4176 6.62429 12.4176 6.90043L12.4176 15.4269L15.1072 12.7374C15.3025 12.5421 15.619 12.5421 15.8143 12.7374C16.0096 12.9326 16.0096 13.2492 15.8143 13.4445Z" fill="black"/>
</svg>
