<svg width="24" height="24" viewBox="0 0 24 24" fill="none" xmlns="http://www.w3.org/2000/svg">
<path fill-rule="evenodd" clip-rule="evenodd" d="M0.123117 8.43565C0 9.21298 0 10.142 0 12C0 13.858 0 14.787 0.123117 15.5643C0.800832 19.8433 4.15673 23.1992 8.43565 23.8769C9.21298 24 10.142 24 12 24C13.858 24 14.787 24 15.5643 23.8769C19.8433 23.1992 23.1992 19.8433 23.8769 15.5643C24 14.787 24 13.858 24 12C24 10.142 24 9.21298 23.8769 8.43565C23.1992 4.15673 19.8433 0.800832 15.5643 0.123117C14.787 0 13.858 0 12 0C10.142 0 9.21298 0 8.43565 0.123117C4.15673 0.800832 0.800832 4.15673 0.123117 8.43565ZM5.82322 9.72466L11.7415 15.6429C11.8843 15.7857 12.1157 15.7857 12.2585 15.6429L18.1768 9.72466C18.2744 9.62703 18.2744 9.46874 18.1768 9.37111C18.0791 9.27348 17.9209 9.27348 17.8232 9.37111L12 15.1943L6.17678 9.37111C6.07915 9.27348 5.92085 9.27348 5.82322 9.37111C5.72559 9.46874 5.72559 9.62703 5.82322 9.72466Z" fill="black"/>
</svg>
