<svg width="24" height="24" viewBox="0 0 24 24" fill="none" xmlns="http://www.w3.org/2000/svg">
<path fill-rule="evenodd" clip-rule="evenodd" d="M0.123117 8.43565C0 9.21298 0 10.142 0 12C0 13.858 0 14.787 0.123117 15.5643C0.800832 19.8433 4.15673 23.1992 8.43565 23.8769C9.21298 24 10.142 24 12 24C13.858 24 14.787 24 15.5643 23.8769C19.8433 23.1992 23.1992 19.8433 23.8769 15.5643C24 14.787 24 13.858 24 12C24 10.142 24 9.21298 23.8769 8.43565C23.1992 4.15673 19.8433 0.800832 15.5643 0.123117C14.787 0 13.858 0 12 0C10.142 0 9.21298 0 8.43565 0.123117C4.15673 0.800832 0.800832 4.15673 0.123117 8.43565ZM11.0344 16.35C11.5677 16.8833 12.4323 16.8833 12.9656 16.35L18.8839 10.4318C19.372 9.94361 19.372 9.15216 18.8839 8.664C18.3957 8.17585 17.6043 8.17585 17.1161 8.664L12 13.7801L6.88388 8.664C6.39573 8.17585 5.60427 8.17585 5.11612 8.664C4.62796 9.15216 4.62796 9.94361 5.11612 10.4318L11.0344 16.35Z" fill="black"/>
</svg>
