<svg width="24" height="24" viewBox="0 0 24 24" fill="none" xmlns="http://www.w3.org/2000/svg">
<path fill-rule="evenodd" clip-rule="evenodd" d="M12 0C13.858 0 14.7871 -6.97747e-05 15.5645 0.123047C19.8433 0.800792 23.1992 4.1567 23.877 8.43555C24.0001 9.21287 24 10.142 24 12C24 13.858 24.0001 14.7871 23.877 15.5645C23.1992 19.8433 19.8433 23.1992 15.5645 23.877C14.7871 24.0001 13.858 24 12 24C10.142 24 9.21287 24.0001 8.43555 23.877C4.1567 23.1992 0.800792 19.8433 0.123047 15.5645C-6.97747e-05 14.7871 0 13.858 0 12C0 10.142 -6.97747e-05 9.21287 0.123047 8.43555C0.800792 4.1567 4.1567 0.800792 8.43555 0.123047C9.21287 -6.97747e-05 10.142 0 12 0ZM19.0605 8.48633C18.4748 7.90113 17.5251 7.90104 16.9395 8.48633L12 13.4258L7.06055 8.48633L6.94629 8.38379C6.35726 7.90377 5.4885 7.93763 4.93945 8.48633C4.39042 9.03536 4.35579 9.90499 4.83594 10.4941L4.93945 10.6084L10.8574 16.5264C11.4882 17.1569 12.5107 17.1568 13.1416 16.5264L19.0605 10.6084C19.6462 10.0226 19.6463 9.07207 19.0605 8.48633Z" fill="black"/>
</svg>
