<svg width="24" height="24" viewBox="0 0 24 24" fill="none" xmlns="http://www.w3.org/2000/svg">
<path fill-rule="evenodd" clip-rule="evenodd" d="M0.123117 8.43565C0 9.21298 0 10.142 0 12C0 13.858 0 14.787 0.123117 15.5643C0.800832 19.8433 4.15673 23.1992 8.43565 23.8769C9.21298 24 10.142 24 12 24C13.858 24 14.787 24 15.5643 23.8769C19.8433 23.1992 23.1992 19.8433 23.8769 15.5643C24 14.787 24 13.858 24 12C24 10.142 24 9.21298 23.8769 8.43565C23.1992 4.15673 19.8433 0.800832 15.5643 0.123117C14.787 0 13.858 0 12 0C10.142 0 9.21298 0 8.43565 0.123117C4.15673 0.800832 0.800832 4.15673 0.123117 8.43565ZM11.5647 15.8197C11.8051 16.0601 12.1949 16.0601 12.4353 15.8197L18.3536 9.90144C18.5488 9.70618 18.5488 9.3896 18.3536 9.19433C18.1583 8.99907 17.8417 8.99907 17.6464 9.19433L12 14.8408L6.35355 9.19433C6.15829 8.99907 5.84171 8.99907 5.64645 9.19433C5.45118 9.3896 5.45118 9.70618 5.64645 9.90144L11.5647 15.8197Z" fill="black"/>
</svg>
