<svg width="24" height="24" viewBox="0 0 24 24" fill="none" xmlns="http://www.w3.org/2000/svg">
<path fill-rule="evenodd" clip-rule="evenodd" d="M0.123117 8.43565C0 9.21298 0 10.142 0 12C0 13.858 0 14.787 0.123117 15.5643C0.800832 19.8433 4.15673 23.1992 8.43565 23.8769C9.21298 24 10.142 24 12 24C13.858 24 14.787 24 15.5643 23.8769C19.8433 23.1992 23.1992 19.8433 23.8769 15.5643C24 14.787 24 13.858 24 12C24 10.142 24 9.21298 23.8769 8.43565C23.1992 4.15673 19.8433 0.800832 15.5643 0.123117C14.787 0 13.858 0 12 0C10.142 0 9.21298 0 8.43565 0.123117C4.15673 0.800832 0.800832 4.15673 0.123117 8.43565ZM6.16667 16.0417C6.51184 16.0417 6.79167 16.3215 6.79167 16.6667C6.79167 17.288 7.29535 17.7917 7.91667 17.7917H16.0833C16.7047 17.7917 17.2083 17.288 17.2083 16.6667C17.2083 16.3215 17.4882 16.0417 17.8333 16.0417C18.1785 16.0417 18.4583 16.3215 18.4583 16.6667C18.4583 17.9783 17.395 19.0417 16.0833 19.0417H7.91667C6.60499 19.0417 5.54167 17.9783 5.54167 16.6667C5.54167 16.3215 5.82149 16.0417 6.16667 16.0417ZM7.93298 12.5332L11.4761 16.0763C11.7202 16.3204 12.1159 16.3204 12.36 16.0763L15.9031 12.5332C16.1472 12.2891 16.1472 11.8934 15.9031 11.6493C15.659 11.4052 15.2633 11.4052 15.0192 11.6493L12.543 14.1255V5.90079C12.543 5.55561 12.2632 5.27579 11.918 5.27579C11.5729 5.27579 11.293 5.55561 11.293 5.90079V14.1255L8.81686 11.6493C8.57278 11.4052 8.17705 11.4052 7.93298 11.6493C7.6889 11.8934 7.6889 12.2891 7.93298 12.5332Z" fill="black"/>
</svg>
