<svg width="24" height="24" viewBox="0 0 24 24" fill="none" xmlns="http://www.w3.org/2000/svg">
<path fill-rule="evenodd" clip-rule="evenodd" d="M0.123117 8.43565C0 9.21298 0 10.142 0 12C0 13.858 0 14.787 0.123117 15.5643C0.800832 19.8433 4.15673 23.1992 8.43565 23.8769C9.21298 24 10.142 24 12 24C13.858 24 14.787 24 15.5643 23.8769C19.8433 23.1992 23.1992 19.8433 23.8769 15.5643C24 14.787 24 13.858 24 12C24 10.142 24 9.21298 23.8769 8.43565C23.1992 4.15673 19.8433 0.800832 15.5643 0.123117C14.787 0 13.858 0 12 0C10.142 0 9.21298 0 8.43565 0.123117C4.15673 0.800832 0.800832 4.15673 0.123117 8.43565ZM6.16667 16.4167C6.30474 16.4167 6.41667 16.5286 6.41667 16.6667C6.41667 17.4951 7.08824 18.1667 7.91667 18.1667H16.0833C16.9118 18.1667 17.5833 17.4951 17.5833 16.6667C17.5833 16.5286 17.6953 16.4167 17.8333 16.4167C17.9714 16.4167 18.0833 16.5286 18.0833 16.6667C18.0833 17.7712 17.1879 18.6667 16.0833 18.6667H7.91667C6.8121 18.6667 5.91667 17.7712 5.91667 16.6667C5.91667 16.5286 6.0286 16.4167 6.16667 16.4167ZM8.19814 12.268L11.7413 15.8112C11.8389 15.9088 11.9972 15.9088 12.0948 15.8112L15.6379 12.268C15.7356 12.1704 15.7356 12.0121 15.6379 11.9145C15.5403 11.8169 15.382 11.8169 15.2844 11.9145L12.168 15.0308L12.168 5.90079C12.168 5.76272 12.0561 5.65079 11.918 5.65079C11.78 5.65079 11.668 5.76272 11.668 5.90079V15.0308L8.55169 11.9145C8.45406 11.8169 8.29577 11.8169 8.19814 11.9145C8.10051 12.0121 8.10051 12.1704 8.19814 12.268Z" fill="black"/>
</svg>
