<svg width="24" height="24" viewBox="0 0 24 24" fill="none" xmlns="http://www.w3.org/2000/svg">
<path fill-rule="evenodd" clip-rule="evenodd" d="M12 23.4998C18.3513 23.4998 23.5 18.351 23.5 11.9998C23.5 5.64848 18.3513 0.499756 12 0.499756C5.64873 0.499756 0.5 5.64848 0.5 11.9998C0.5 18.351 5.64873 23.4998 12 23.4998ZM15.9911 13.6212L12.448 17.1644C12.1551 17.4573 11.6802 17.4573 11.3873 17.1644L7.84418 13.6212C7.55129 13.3284 7.55129 12.8535 7.84418 12.5606C8.13707 12.2677 8.61195 12.2677 8.90484 12.5606L11.1676 14.8234L11.1676 6.90043C11.1676 6.48622 11.5034 6.15043 11.9176 6.15043C12.3318 6.15043 12.6676 6.48622 12.6676 6.90043L12.6676 14.8234L14.9304 12.5606C15.2233 12.2677 15.6982 12.2677 15.9911 12.5606C16.284 12.8535 16.284 13.3284 15.9911 13.6212Z" fill="black"/>
</svg>
