<svg width="24" height="24" viewBox="0 0 24 24" fill="none" xmlns="http://www.w3.org/2000/svg">
<path d="M15.6375 13.2677L12.0944 16.8108C11.9968 16.9084 11.8385 16.9084 11.7409 16.8108L8.19774 13.2677C8.1001 13.1701 8.1001 13.0118 8.19774 12.9141C8.29537 12.8165 8.45366 12.8165 8.55129 12.9141L11.6676 16.0305L11.6676 6.90043C11.6676 6.76236 11.7796 6.65043 11.9176 6.65043C12.0557 6.65043 12.1676 6.76236 12.1676 6.90043L12.1676 16.0305L15.284 12.9141C15.3816 12.8165 15.5399 12.8165 15.6375 12.9141C15.7352 13.0118 15.7352 13.1701 15.6375 13.2677Z" fill="black"/>
<path fill-rule="evenodd" clip-rule="evenodd" d="M23.5 11.9998C23.5 18.351 18.3513 23.4998 12 23.4998C5.64873 23.4998 0.5 18.351 0.5 11.9998C0.5 5.64848 5.64873 0.499756 12 0.499756C18.3513 0.499756 23.5 5.64848 23.5 11.9998ZM23 11.9998C23 18.0749 18.0751 22.9998 12 22.9998C5.92487 22.9998 1 18.0749 1 11.9998C1 5.92462 5.92487 0.999756 12 0.999756C18.0751 0.999756 23 5.92462 23 11.9998Z" fill="black"/>
</svg>
