<svg width="24" height="24" viewBox="0 0 24 24" fill="none" xmlns="http://www.w3.org/2000/svg">
<path fill-rule="evenodd" clip-rule="evenodd" d="M12 0C13.858 0 14.7871 -6.97747e-05 15.5645 0.123047C19.8433 0.800792 23.1992 4.1567 23.877 8.43555C24.0001 9.21287 24 10.142 24 12C24 13.858 24.0001 14.7871 23.877 15.5645C23.1992 19.8433 19.8433 23.1992 15.5645 23.877C14.7871 24.0001 13.858 24 12 24C10.142 24 9.21287 24.0001 8.43555 23.877C4.1567 23.1992 0.800792 19.8433 0.123047 15.5645C-6.97747e-05 14.7871 0 13.858 0 12C0 10.142 -6.97747e-05 9.21287 0.123047 8.43555C0.800792 4.1567 4.1567 0.800792 8.43555 0.123047C9.21287 -6.97747e-05 10.142 0 12 0ZM19.2373 8.31055C18.5539 7.62715 17.4451 7.62718 16.7617 8.31055L12 13.0732L7.2373 8.31055L7.10449 8.19043C6.41714 7.62973 5.40245 7.66981 4.76172 8.31055C4.12144 8.95132 4.08101 9.96614 4.6416 10.6533L4.76172 10.7852L10.6807 16.7041C11.409 17.4321 12.5899 17.4319 13.3184 16.7041L19.2373 10.7852C19.9203 10.1018 19.9205 8.99386 19.2373 8.31055Z" fill="black"/>
</svg>
