<svg width="24" height="24" viewBox="0 0 24 24" fill="none" xmlns="http://www.w3.org/2000/svg">
<path d="M1.5 4.5C2.32843 4.5 3 5.17157 3 6V18C3 18.8284 2.32843 19.5 1.5 19.5C0.671573 19.5 -7.76312e-10 18.8284 0 18V6C3.62117e-08 5.17157 0.671573 4.5 1.5 4.5Z" fill="black"/>
<path d="M8.5 4.5C9.32843 4.5 10 5.17157 10 6V18C10 18.8284 9.32843 19.5 8.5 19.5C7.67157 19.5 7 18.8284 7 18V6C7 5.17157 7.67157 4.5 8.5 4.5Z" fill="black"/>
<path d="M15.5 4.5C16.3284 4.5 17 5.17157 17 6V18C17 18.8284 16.3284 19.5 15.5 19.5C14.6716 19.5 14 18.8284 14 18V6C14 5.17157 14.6716 4.5 15.5 4.5Z" fill="black"/>
<path d="M22.5 4.5C23.3284 4.5 24 5.17157 24 6V18C24 18.8284 23.3284 19.5 22.5 19.5C21.6716 19.5 21 18.8284 21 18V6C21 5.17157 21.6716 4.5 22.5 4.5Z" fill="black"/>
</svg>
