<svg width="24" height="24" viewBox="0 0 24 24" fill="none" xmlns="http://www.w3.org/2000/svg">
<path d="M3 16C4.65685 16 6 17.3431 6 19C6 20.6569 4.65685 22 3 22C1.34315 22 7.24234e-08 20.6569 0 19C1.08724e-06 17.3431 1.34315 16 3 16Z" fill="black"/>
<path d="M12 16C13.6569 16 15 17.3431 15 19C15 20.6569 13.6569 22 12 22C10.3431 22 9 20.6569 9 19C9 17.3431 10.3431 16 12 16Z" fill="black"/>
<path d="M21 16C22.6569 16 24 17.3431 24 19C24 20.6569 22.6569 22 21 22C19.3431 22 18 20.6569 18 19C18 17.3431 19.3431 16 21 16Z" fill="black"/>
<path d="M3 1C4.65685 1 6 2.34315 6 4C6 5.65685 4.65685 7 3 7C1.34315 7 7.24234e-08 5.65685 0 4C6.23389e-07 2.34315 1.34315 1 3 1Z" fill="black"/>
<path d="M12 1C13.6569 1 15 2.34315 15 4C15 5.65685 13.6569 7 12 7C10.3431 7 9 5.65685 9 4C9 2.34315 10.3431 1 12 1Z" fill="black"/>
<path d="M21 1C22.6569 1 24 2.34315 24 4C24 5.65685 22.6569 7 21 7C19.3431 7 18 5.65685 18 4C18 2.34315 19.3431 1 21 1Z" fill="black"/>
</svg>
