<svg width="24" height="24" viewBox="0 0 24 24" fill="none" xmlns="http://www.w3.org/2000/svg">
<path d="M6 0.25C5.30964 0.25 4.75 0.809644 4.75 1.5C4.75 2.19036 5.30964 2.75 6 2.75H18C18.6904 2.75 19.25 2.19036 19.25 1.5C19.25 0.809644 18.6904 0.25 18 0.25H6Z" fill="black"/>
<path d="M4.75 8.5C4.75 7.80964 5.30964 7.25 6 7.25H18C18.6904 7.25 19.25 7.80964 19.25 8.5C19.25 9.19036 18.6904 9.75 18 9.75H6C5.30964 9.75 4.75 9.19036 4.75 8.5Z" fill="black"/>
<path d="M6 14.25C5.30964 14.25 4.75 14.8096 4.75 15.5C4.75 16.1904 5.30964 16.75 6 16.75H18C18.6904 16.75 19.25 16.1904 19.25 15.5C19.25 14.8096 18.6904 14.25 18 14.25H6Z" fill="black"/>
<path d="M6 21.25C5.30964 21.25 4.75 21.8096 4.75 22.5C4.75 23.1904 5.30964 23.75 6 23.75H18C18.6904 23.75 19.25 23.1904 19.25 22.5C19.25 21.8096 18.6904 21.25 18 21.25H6Z" fill="black"/>
</svg>
