<svg width="24" height="24" viewBox="0 0 24 24" fill="none" xmlns="http://www.w3.org/2000/svg">
<path d="M3 4.25C3.9665 4.25 4.75 5.0335 4.75 6V18C4.75 18.9665 3.9665 19.75 3 19.75C2.0335 19.75 1.25 18.9665 1.25 18V6C1.25 5.0335 2.0335 4.25 3 4.25Z" fill="black"/>
<path d="M9 4.25C9.9665 4.25 10.75 5.0335 10.75 6V18C10.75 18.9665 9.9665 19.75 9 19.75C8.0335 19.75 7.25 18.9665 7.25 18V6C7.25 5.0335 8.0335 4.25 9 4.25Z" fill="black"/>
<path d="M15 4.25C15.9665 4.25 16.75 5.0335 16.75 6V18C16.75 18.9665 15.9665 19.75 15 19.75C14.0335 19.75 13.25 18.9665 13.25 18V6C13.25 5.0335 14.0335 4.25 15 4.25Z" fill="black"/>
<path d="M21 4.25C21.9665 4.25 22.75 5.0335 22.75 6V18C22.75 18.9665 21.9665 19.75 21 19.75C20.0335 19.75 19.25 18.9665 19.25 18V6C19.25 5.0335 20.0335 4.25 21 4.25Z" fill="black"/>
</svg>
