<svg width="24" height="24" viewBox="0 0 24 24" fill="none" xmlns="http://www.w3.org/2000/svg">
<path d="M1.5 5.25C1.91421 5.25 2.25 5.58579 2.25 6V18C2.25 18.4142 1.91421 18.75 1.5 18.75C1.08579 18.75 0.75 18.4142 0.75 18V6C0.75 5.58579 1.08579 5.25 1.5 5.25Z" fill="black"/>
<path d="M8.5 5.25C8.91421 5.25 9.25 5.58579 9.25 6V18C9.25 18.4142 8.91421 18.75 8.5 18.75C8.08579 18.75 7.75 18.4142 7.75 18V6C7.75 5.58579 8.08579 5.25 8.5 5.25Z" fill="black"/>
<path d="M15.5 5.25C15.9142 5.25 16.25 5.58579 16.25 6V18C16.25 18.4142 15.9142 18.75 15.5 18.75C15.0858 18.75 14.75 18.4142 14.75 18V6C14.75 5.58579 15.0858 5.25 15.5 5.25Z" fill="black"/>
<path d="M22.5 5.25C22.9142 5.25 23.25 5.58579 23.25 6V18C23.25 18.4142 22.9142 18.75 22.5 18.75C22.0858 18.75 21.75 18.4142 21.75 18V6C21.75 5.58579 22.0858 5.25 22.5 5.25Z" fill="black"/>
</svg>
