<svg width="24" height="24" viewBox="0 0 24 24" fill="none" xmlns="http://www.w3.org/2000/svg">
<path d="M4.5 0C5.88071 0 7 1.11929 7 2.5C7 3.88071 5.88071 5 4.5 5C3.11929 5 2 3.88071 2 2.5C2 1.11929 3.11929 0 4.5 0Z" fill="black"/>
<path d="M7 12C7 10.6193 5.88071 9.5 4.5 9.5C3.11929 9.5 2 10.6193 2 12C2 13.3807 3.11929 14.5 4.5 14.5C5.88071 14.5 7 13.3807 7 12Z" fill="black"/>
<path d="M7 21.5C7 20.1193 5.88071 19 4.5 19C3.11929 19 2 20.1193 2 21.5C2 22.8807 3.11929 24 4.5 24C5.88071 24 7 22.8807 7 21.5Z" fill="black"/>
<path d="M22 21.5C22 20.1193 20.8807 19 19.5 19C18.1193 19 17 20.1193 17 21.5C17 22.8807 18.1193 24 19.5 24C20.8807 24 22 22.8807 22 21.5Z" fill="black"/>
<path d="M19.5 9.5C20.8807 9.5 22 10.6193 22 12C22 13.3807 20.8807 14.5 19.5 14.5C18.1193 14.5 17 13.3807 17 12C17 10.6193 18.1193 9.5 19.5 9.5Z" fill="black"/>
<path d="M22 2.5C22 1.11929 20.8807 0 19.5 0C18.1193 0 17 1.11929 17 2.5C17 3.88071 18.1193 5 19.5 5C20.8807 5 22 3.88071 22 2.5Z" fill="black"/>
</svg>
