<svg width="24" height="24" viewBox="0 0 24 24" fill="none" xmlns="http://www.w3.org/2000/svg">
<path d="M5 0C6.10457 0 7 0.89543 7 2C7 3.10457 6.10457 4 5 4C3.89543 4 3 3.10457 3 2C3 0.895431 3.89543 0 5 0Z" fill="black"/>
<path d="M7 12C7 10.8954 6.10457 10 5 10C3.89543 10 3 10.8954 3 12C3 13.1046 3.89543 14 5 14C6.10457 14 7 13.1046 7 12Z" fill="black"/>
<path d="M7 22C7 20.8954 6.10457 20 5 20C3.89543 20 3 20.8954 3 22C3 23.1046 3.89543 24 5 24C6.10457 24 7 23.1046 7 22Z" fill="black"/>
<path d="M21 22C21 20.8954 20.1046 20 19 20C17.8954 20 17 20.8954 17 22C17 23.1046 17.8954 24 19 24C20.1046 24 21 23.1046 21 22Z" fill="black"/>
<path d="M19 10C20.1046 10 21 10.8954 21 12C21 13.1046 20.1046 14 19 14C17.8954 14 17 13.1046 17 12C17 10.8954 17.8954 10 19 10Z" fill="black"/>
<path d="M21 2C21 0.89543 20.1046 0 19 0C17.8954 0 17 0.895431 17 2C17 3.10457 17.8954 4 19 4C20.1046 4 21 3.10457 21 2Z" fill="black"/>
</svg>
