<svg width="24" height="24" viewBox="0 0 24 24" fill="none" xmlns="http://www.w3.org/2000/svg">
<path d="M22 3C20.8954 3 20 3.89543 20 5C20 6.10457 20.8954 7 22 7C23.1046 7 24 6.10457 24 5C24 3.89543 23.1046 3 22 3Z" fill="black"/>
<path d="M12 17C10.8954 17 10 17.8954 10 19C10 20.1046 10.8954 21 12 21C13.1046 21 14 20.1046 14 19C14 17.8954 13.1046 17 12 17Z" fill="black"/>
<path d="M22 17C20.8954 17 20 17.8954 20 19C20 20.1046 20.8954 21 22 21C23.1046 21 24 20.1046 24 19C24 17.8954 23.1046 17 22 17Z" fill="black"/>
<path d="M0 19C0 17.8954 0.89543 17 2 17C3.10457 17 4 17.8954 4 19C4 20.1046 3.10457 21 2 21C0.895431 21 0 20.1046 0 19Z" fill="black"/>
<path d="M10 5C10 3.89543 10.8954 3 12 3C13.1046 3 14 3.89543 14 5C14 6.10457 13.1046 7 12 7C10.8954 7 10 6.10457 10 5Z" fill="black"/>
<path d="M2 3C0.89543 3 0 3.89543 0 5C0 6.10457 0.895431 7 2 7C3.10457 7 4 6.10457 4 5C4 3.89543 3.10457 3 2 3Z" fill="black"/>
</svg>
