<svg width="24" height="24" viewBox="0 0 24 24" fill="none" xmlns="http://www.w3.org/2000/svg">
<path d="M6 0.5C5.44772 0.5 5 0.947715 5 1.5C5 2.05228 5.44772 2.5 6 2.5H18C18.5523 2.5 19 2.05228 19 1.5C19 0.947715 18.5523 0.5 18 0.5H6Z" fill="black"/>
<path d="M5 8.5C5 7.94771 5.44772 7.5 6 7.5H18C18.5523 7.5 19 7.94771 19 8.5C19 9.05228 18.5523 9.5 18 9.5H6C5.44772 9.5 5 9.05228 5 8.5Z" fill="black"/>
<path d="M6 14.5C5.44772 14.5 5 14.9477 5 15.5C5 16.0523 5.44772 16.5 6 16.5H18C18.5523 16.5 19 16.0523 19 15.5C19 14.9477 18.5523 14.5 18 14.5H6Z" fill="black"/>
<path d="M6 21.5C5.44772 21.5 5 21.9477 5 22.5C5 23.0523 5.44772 23.5 6 23.5H18C18.5523 23.5 19 23.0523 19 22.5C19 21.9477 18.5523 21.5 18 21.5H6Z" fill="black"/>
</svg>
