<svg width="24" height="24" viewBox="0 0 24 24" fill="none" xmlns="http://www.w3.org/2000/svg">
<path d="M1.5 5C2.05228 5 2.5 5.44772 2.5 6V18C2.5 18.5523 2.05228 19 1.5 19C0.947715 19 0.5 18.5523 0.5 18V6C0.5 5.44772 0.947715 5 1.5 5Z" fill="black"/>
<path d="M8.5 5C9.05228 5 9.5 5.44772 9.5 6V18C9.5 18.5523 9.05228 19 8.5 19C7.94772 19 7.5 18.5523 7.5 18V6C7.5 5.44772 7.94772 5 8.5 5Z" fill="black"/>
<path d="M15.5 5C16.0523 5 16.5 5.44772 16.5 6V18C16.5 18.5523 16.0523 19 15.5 19C14.9477 19 14.5 18.5523 14.5 18V6C14.5 5.44772 14.9477 5 15.5 5Z" fill="black"/>
<path d="M22.5 5C23.0523 5 23.5 5.44772 23.5 6V18C23.5 18.5523 23.0523 19 22.5 19C21.9477 19 21.5 18.5523 21.5 18V6C21.5 5.44772 21.9477 5 22.5 5Z" fill="black"/>
</svg>
