<svg width="24" height="24" viewBox="0 0 24 24" fill="none" xmlns="http://www.w3.org/2000/svg">
<path d="M6 1C5.72386 1 5.5 1.22386 5.5 1.5C5.5 1.77614 5.72386 2 6 2H18C18.2761 2 18.5 1.77614 18.5 1.5C18.5 1.22386 18.2761 1 18 1H6Z" fill="black"/>
<path d="M5.5 8.5C5.5 8.22386 5.72386 8 6 8H18C18.2761 8 18.5 8.22386 18.5 8.5C18.5 8.77614 18.2761 9 18 9H6C5.72386 9 5.5 8.77614 5.5 8.5Z" fill="black"/>
<path d="M6 15C5.72386 15 5.5 15.2239 5.5 15.5C5.5 15.7761 5.72386 16 6 16H18C18.2761 16 18.5 15.7761 18.5 15.5C18.5 15.2239 18.2761 15 18 15H6Z" fill="black"/>
<path d="M6 22C5.72386 22 5.5 22.2239 5.5 22.5C5.5 22.7761 5.72386 23 6 23H18C18.2761 23 18.5 22.7761 18.5 22.5C18.5 22.2239 18.2761 22 18 22H6Z" fill="black"/>
</svg>
