<svg width="24" height="24" viewBox="0 0 24 24" fill="none" xmlns="http://www.w3.org/2000/svg">
<path d="M6.5 0C6.77614 0 7 0.223858 7 0.5C7 0.776142 6.77614 1 6.5 1C6.22386 1 6 0.776142 6 0.5C6 0.223858 6.22386 0 6.5 0Z" fill="black"/>
<path d="M7 12C7 11.7239 6.77614 11.5 6.5 11.5C6.22386 11.5 6 11.7239 6 12C6 12.2761 6.22386 12.5 6.5 12.5C6.77614 12.5 7 12.2761 7 12Z" fill="black"/>
<path d="M7 23.5C7 23.2239 6.77614 23 6.5 23C6.22386 23 6 23.2239 6 23.5C6 23.7761 6.22386 24 6.5 24C6.77614 24 7 23.7761 7 23.5Z" fill="black"/>
<path d="M18 23.5C18 23.2239 17.7761 23 17.5 23C17.2239 23 17 23.2239 17 23.5C17 23.7761 17.2239 24 17.5 24C17.7761 24 18 23.7761 18 23.5Z" fill="black"/>
<path d="M17.5 11.5C17.7761 11.5 18 11.7239 18 12C18 12.2761 17.7761 12.5 17.5 12.5C17.2239 12.5 17 12.2761 17 12C17 11.7239 17.2239 11.5 17.5 11.5Z" fill="black"/>
<path d="M18 0.5C18 0.223858 17.7761 0 17.5 0C17.2239 0 17 0.223858 17 0.5C17 0.776142 17.2239 1 17.5 1C17.7761 1 18 0.776142 18 0.5Z" fill="black"/>
</svg>
