<svg width="24" height="24" viewBox="0 0 24 24" fill="none" xmlns="http://www.w3.org/2000/svg">
<path d="M1.5 5.75C1.63807 5.75 1.75 5.86193 1.75 6V18C1.75 18.1381 1.63807 18.25 1.5 18.25C1.36193 18.25 1.25 18.1381 1.25 18V6C1.25 5.86193 1.36193 5.75 1.5 5.75Z" fill="black"/>
<path d="M8.5 5.75C8.63807 5.75 8.75 5.86193 8.75 6V18C8.75 18.1381 8.63807 18.25 8.5 18.25C8.36193 18.25 8.25 18.1381 8.25 18V6C8.25 5.86193 8.36193 5.75 8.5 5.75Z" fill="black"/>
<path d="M15.5 5.75C15.6381 5.75 15.75 5.86193 15.75 6V18C15.75 18.1381 15.6381 18.25 15.5 18.25C15.3619 18.25 15.25 18.1381 15.25 18V6C15.25 5.86193 15.3619 5.75 15.5 5.75Z" fill="black"/>
<path d="M22.5 5.75C22.6381 5.75 22.75 5.86193 22.75 6V18C22.75 18.1381 22.6381 18.25 22.5 18.25C22.3619 18.25 22.25 18.1381 22.25 18V6C22.25 5.86193 22.3619 5.75 22.5 5.75Z" fill="black"/>
</svg>
