<svg width="24" height="24" viewBox="0 0 24 24" fill="none" xmlns="http://www.w3.org/2000/svg">
<path d="M17.6699 22.5C17.7555 22.2807 17.8156 22.0477 17.8427 21.8037L17.9316 21H18.9111L20.6396 5.44043C21.083 5.01317 21.3239 4.39166 21.2412 3.75H22.0595L21.5986 2.56836C21.5331 2.40063 21.3833 2.28275 21.209 2.25586L21.1328 2.25H20.6992L20.4101 1.54785L20.332 1.37598C20.2141 1.14165 20.0606 0.9321 19.8818 0.75L21.1328 0.75C21.9568 0.750085 22.6967 1.25571 22.9961 2.02344L23.7226 3.88672C23.9781 4.54234 23.4937 5.24998 22.79 5.25H22.1709L20.3525 21.6104C20.2962 22.1168 19.8679 22.5 19.3584 22.5H17.6699Z" fill="black"/>
<path fill-rule="evenodd" clip-rule="evenodd" d="M1.49899 5.25C0.610458 5.24872 0.00654251 4.34648 0.344695 3.52442L1.04098 1.83301C1.31116 1.17775 1.95054 0.750162 2.65915 0.750001L17.8486 0.75L17.9804 0.754883C18.6356 0.804263 19.2134 1.2186 19.4668 1.83301L20.1631 3.52441C20.4807 4.2966 19.9672 5.13703 19.1699 5.23926L19.0068 5.25H18.4248L16.5986 21.6934C16.5001 22.5795 15.7499 23.2499 14.8584 23.25H5.64938C4.75787 23.2498 4.00764 22.5794 3.90915 21.6934L2.082 5.25H1.49899ZM18.6338 3.75L18.08 2.40527L18.042 2.34082C17.9953 2.28436 17.9244 2.25006 17.8486 2.25L2.65915 2.25C2.55794 2.25016 2.46621 2.31188 2.4277 2.40527L1.87302 3.75L18.6338 3.75ZM4.45212 13L16.0547 13L16.916 5.25L3.59177 5.25L4.45212 13Z" fill="black"/>
</svg>
