<svg width="24" height="24" viewBox="0 0 24 24" fill="none" xmlns="http://www.w3.org/2000/svg">
<path fill-rule="evenodd" clip-rule="evenodd" d="M3.11905 4.99121C2.48099 4.90883 2.0722 4.23586 2.32608 3.61914L3.02237 1.92871L3.06924 1.8252C3.32247 1.32219 3.83965 1.0001 4.40908 1L19.5985 1L19.7118 1.00391C20.2359 1.04344 20.702 1.35572 20.9384 1.8252L20.9853 1.92871L21.6815 3.61914C21.9359 4.23679 21.5256 4.91032 20.8876 4.99219L20.7567 5H19.9511L18.0995 21.666C18.0149 22.4255 17.3725 23 16.6083 23H7.39932C6.63522 22.9999 5.99267 22.4254 5.90811 21.666L4.05557 5H3.2499L3.11905 4.99121ZM20.7577 4L20.0614 2.30957L20.0272 2.24219C19.9378 2.09357 19.7757 2 19.5985 2L4.40908 2C4.23199 2.00009 4.06979 2.09357 3.98037 2.24219L3.94619 2.30957L3.2499 4L20.7577 4ZM5.33975 7.5L18.6669 7.5L18.9452 5L5.0624 5L5.33975 7.5ZM6.90225 21.5557C6.93059 21.8086 7.1448 21.9999 7.39932 22H16.6083C16.8629 22 17.077 21.8086 17.1054 21.5557L18.5556 8.5L5.45108 8.5L6.90225 21.5557Z" fill="black"/>
</svg>
