<svg width="24" height="24" viewBox="0 0 24 24" fill="none" xmlns="http://www.w3.org/2000/svg">
<path d="M18.1703 22.5C18.256 22.2807 18.3161 22.0476 18.3432 21.8037L20.101 5.96973C21.3308 5.75995 22.1038 4.44537 21.6069 3.23828L20.9106 1.54785L20.8324 1.37598C20.656 1.02522 20.4016 0.728027 20.0971 0.5L21.0834 0.5C21.9323 0.500515 22.6891 1.03685 22.9701 1.83789L23.7875 4.16895C24.0153 4.8189 23.5328 5.49946 22.8442 5.5H22.143L20.3539 21.6104C20.2977 22.1165 19.869 22.4996 19.3598 22.5H18.1703Z" fill="black"/>
<path fill-rule="evenodd" clip-rule="evenodd" d="M1.50139 5.5C0.50112 5.49905 -0.199303 4.54652 0.0521753 3.61426L0.115652 3.42871L0.811941 1.73828L0.874441 1.60059C1.2121 0.929663 1.90214 0.500001 2.66155 0.500001L17.851 0.5L18.0024 0.50586C18.7008 0.558994 19.3232 0.974578 19.6381 1.60059L19.7006 1.73828L20.3969 3.42871C20.7782 4.35541 20.1611 5.36448 19.2045 5.4873L19.0092 5.5H18.6498L16.8481 21.7207C16.7355 22.7334 15.8787 23.4998 14.8598 23.5H5.65081C4.63191 23.4998 3.77507 22.7334 3.66253 21.7207L1.85979 5.5H1.50139ZM18.2621 3.5L17.851 2.5L2.66155 2.5L2.24944 3.5L18.2621 3.5ZM4.0385 7L16.4711 7L16.6381 5.5L3.87249 5.5L4.0385 7ZM5.65081 21.5H14.8598L16.2485 9L4.26116 9L5.65081 21.5Z" fill="black"/>
</svg>
