<svg width="24" height="24" viewBox="0 0 24 24" fill="none" xmlns="http://www.w3.org/2000/svg">
<path d="M17.421 22.5C17.5066 22.2807 17.5667 22.0477 17.5938 21.8037L17.628 21.5H19.3595L21.3038 4H22.7247L21.9786 2.29883C21.8989 2.11763 21.7193 2 21.5206 2H20.3477L20.1612 1.54785L20.0831 1.37598C20.0159 1.24233 19.9359 1.11737 19.8477 1L21.5206 1C22.116 1 22.6554 1.35223 22.8946 1.89746L23.6407 3.59863C23.9301 4.25925 23.446 4.99984 22.7247 5H22.1993L20.3536 21.6104C20.2973 22.1168 19.869 22.5 19.3595 22.5H17.421Z" fill="black"/>
<path fill-rule="evenodd" clip-rule="evenodd" d="M0.869233 4.99121C0.231339 4.9087 -0.177505 4.23576 0.0762646 3.61914L0.772554 1.92871L0.819429 1.8252C1.07262 1.32226 1.58994 1.00019 2.15927 1L17.3487 1C17.9182 1 18.4353 1.3222 18.6886 1.8252L18.7354 1.92871L19.4317 3.61914C19.7031 4.27806 19.2179 5 18.5069 5H17.7013L15.8497 21.666C15.7651 22.4255 15.1227 23 14.3585 23H5.14951C4.3855 22.9998 3.74285 22.4253 3.6583 21.666L1.80576 5H1.00009L0.869233 4.99121ZM18.5079 4L17.8116 2.30957L17.7774 2.24219C17.688 2.09363 17.5259 2 17.3487 2L2.15927 2C1.98227 2.00018 1.81993 2.09364 1.73056 2.24219L1.69638 2.30957L1.00009 4L18.5079 4ZM4.08994 16.5L15.4171 16.5L16.6954 5L2.81259 5L4.08994 16.5ZM4.65244 21.5557C4.68077 21.8085 4.89509 21.9998 5.14951 22H14.3585C14.6131 22 14.8272 21.8086 14.8556 21.5557L15.3058 17.5H4.20127L4.65244 21.5557Z" fill="black"/>
</svg>
