<svg width="24" height="24" viewBox="0 0 24 24" fill="none" xmlns="http://www.w3.org/2000/svg">
<path fill-rule="evenodd" clip-rule="evenodd" d="M3.24945 5.25C2.36065 5.24899 1.75682 4.34664 2.09515 3.52441L2.79144 1.83301C3.06168 1.17764 3.70085 0.750001 4.40961 0.750001L19.5991 0.75L19.7309 0.754883C20.3861 0.804292 20.9639 1.21855 21.2172 1.83301L21.9135 3.52441C22.2312 4.29657 21.7176 5.13699 20.9203 5.23926L20.7573 5.25H20.4272L18.5971 21.7207C18.4846 22.7335 17.6278 23.4998 16.6088 23.5H7.39984C6.38075 23.5 5.52412 22.7336 5.41156 21.7207L3.5805 5.25H3.24945ZM20.2807 3.5L19.8305 2.40527L19.7924 2.34082C19.7458 2.28427 19.675 2.25008 19.5991 2.25L4.40961 2.25C4.30825 2.25 4.21673 2.31177 4.17816 2.40527L3.72601 3.5L20.2807 3.5ZM6.45453 13L17.5532 13L18.3871 5.5L5.62152 5.5L6.45453 13Z" fill="black"/>
</svg>
