<svg width="24" height="24" viewBox="0 0 24 24" fill="none" xmlns="http://www.w3.org/2000/svg">
<path fill-rule="evenodd" clip-rule="evenodd" d="M3.24879 5.5C2.24874 5.49882 1.54819 4.54638 1.79957 3.61426L1.86305 3.42871L2.55934 1.73828L2.62184 1.60059C2.95938 0.929558 3.64953 0.500136 4.40894 0.500001L19.5984 0.5C20.3579 0.5 21.0479 0.929498 21.3855 1.60059L21.448 1.73828L22.1443 3.42871C22.5514 4.41747 21.8227 5.5 20.7566 5.5H20.3982L18.5964 21.7207C18.4839 22.7336 17.6273 23.5 16.6082 23.5H7.39918C6.38022 23.4998 5.52343 22.7335 5.4109 21.7207L3.60816 5.5H3.24879ZM20.0095 3.5L19.5984 2.5L4.40895 2.5L3.99684 3.5L20.0095 3.5ZM5.78687 7L18.2195 7L18.3865 5.5L5.62086 5.5L5.78687 7ZM7.39918 21.5H16.6082L17.9968 9L6.00953 9L7.39918 21.5Z" fill="black"/>
</svg>
