<svg width="24" height="24" viewBox="0 0 24 24" fill="none" xmlns="http://www.w3.org/2000/svg">
<path fill-rule="evenodd" clip-rule="evenodd" d="M3.24881 5.75C2.0822 5.74874 1.26554 4.63813 1.55838 3.55078L1.63162 3.33399L2.32791 1.64356C2.67522 0.800738 3.4977 0.250128 4.40897 0.250001L19.5984 0.25L19.7683 0.256836C20.6107 0.320403 21.3538 0.852425 21.6795 1.64258L22.3758 3.33398C22.8207 4.41537 22.1012 5.59231 20.9851 5.73535L20.7566 5.75H20.6219L18.8445 21.748C18.7179 22.8875 17.7547 23.75 16.6082 23.75H7.3992C6.25283 23.7499 5.28947 22.8874 5.16287 21.748L3.38455 5.75H3.24881ZM19.6365 3.25L19.4305 2.75L4.57596 2.75L4.3699 3.25L19.6365 3.25ZM7.15018 17H16.8562L18.1072 5.75L5.90018 5.75L7.15018 17Z" fill="black"/>
</svg>
