<svg width="24" height="24" viewBox="0 0 24 24" fill="none" xmlns="http://www.w3.org/2000/svg">
<path fill-rule="evenodd" clip-rule="evenodd" d="M3.25051 4.75C2.71724 4.74951 2.35441 4.20814 2.55715 3.71484L3.25344 2.02441C3.44646 1.55637 3.90342 1.25 4.40969 1.25L19.5991 1.25L19.7866 1.26367C20.2156 1.32874 20.5866 1.61403 20.7554 2.02344L21.4517 3.71484C21.6418 4.17778 21.3335 4.68282 20.855 4.74414L20.7573 4.75H19.7271L17.8521 21.6377C17.7817 22.2706 17.2457 22.7498 16.6089 22.75H7.39992C6.763 22.75 6.22712 22.2707 6.15676 21.6377L4.28078 4.75H3.25051ZM3.02004 3.9043C2.95235 4.06868 3.07281 4.24968 3.25051 4.25L20.7573 4.25L20.8208 4.24219C20.9626 4.20536 21.0478 4.04795 20.9888 3.9043L20.2925 2.21484C20.1768 1.93403 19.9029 1.75016 19.5991 1.75L4.40969 1.75C4.10583 1.75 3.83209 1.934 3.71633 2.21484L3.02004 3.9043ZM5.11672 7.75L18.8911 7.75L19.2251 4.75L4.78371 4.75L5.11672 7.75ZM6.65383 21.583C6.69612 21.9627 7.01783 22.25 7.39992 22.25H16.6089C16.9908 22.2498 17.3127 21.9626 17.355 21.583L18.8355 8.25L5.17238 8.25L6.65383 21.583Z" fill="black"/>
</svg>
