<svg width="24" height="24" viewBox="0 0 24 24" fill="none" xmlns="http://www.w3.org/2000/svg">
<path fill-rule="evenodd" clip-rule="evenodd" d="M3.11891 4.99121C2.48089 4.90881 2.07209 4.23584 2.32594 3.61914L3.02223 1.92871L3.06911 1.8252C3.32233 1.3222 3.83954 1.00012 4.40895 1L19.5984 1L19.7117 1.00391C20.2357 1.04344 20.7019 1.35573 20.9382 1.8252L20.9851 1.92871L21.6814 3.61914C21.9357 4.23679 21.5255 4.91032 20.8875 4.99219L20.7566 5H19.9509L18.0994 21.666C18.0148 22.4255 17.3724 23 16.6082 23H7.39919C6.6351 22.9999 5.99254 22.4254 5.90798 21.666L4.05544 5H3.24977L3.11891 4.99121ZM20.7576 4L20.0613 2.30957L20.0271 2.24219C19.9377 2.09358 19.7756 2 19.5984 2L4.40895 2C4.23187 2.00011 4.06964 2.09359 3.98024 2.24219L3.94606 2.30957L3.24977 4L20.7576 4ZM6.33962 16.5L17.6668 16.5L18.9451 5L5.06227 5L6.33962 16.5ZM6.90212 21.5557C6.93046 21.8086 7.14469 21.9999 7.39919 22H16.6082C16.8628 22 17.0769 21.8086 17.1052 21.5557L17.5554 17.5H6.45094L6.90212 21.5557Z" fill="black"/>
</svg>
