<svg width="24" height="24" viewBox="0 0 24 24" fill="none" xmlns="http://www.w3.org/2000/svg">
<path d="M17.6697 22.5C17.7554 22.2807 17.8154 22.0477 17.8426 21.8037L17.9314 21H18.9109L20.6394 5.44043C21.0829 5.01317 21.3238 4.39167 21.241 3.75H22.0594L21.5984 2.56836C21.5235 2.37632 21.3384 2.25001 21.1326 2.25H20.699L20.4099 1.54785L20.3318 1.37598C20.2139 1.14167 20.0605 0.932088 19.8816 0.75L21.1326 0.75C21.9567 0.750006 22.6964 1.25568 22.9959 2.02344L23.7224 3.88672C23.9779 4.54232 23.4944 5.24992 22.7908 5.25H22.1707L20.3523 21.6104C20.2961 22.1167 19.8685 22.4998 19.3592 22.5H17.6697Z" fill="black"/>
<path fill-rule="evenodd" clip-rule="evenodd" d="M1.49881 5.25C0.610275 5.24872 0.00635941 4.34648 0.344512 3.52442L1.0408 1.83301C1.31096 1.17771 1.95034 0.750162 2.65897 0.750001L17.8484 0.75L17.9803 0.754883C18.6355 0.804199 19.2132 1.21854 19.4666 1.83301L20.1629 3.52441C20.5018 4.34817 19.895 5.24999 19.0066 5.25H18.4246L16.5984 21.6934C16.4999 22.5795 15.7498 23.25 14.8582 23.25H5.6492C4.75768 23.2498 4.00745 22.5795 3.90897 21.6934L2.08182 5.25H1.49881ZM18.6336 3.75L18.0799 2.40527L18.0418 2.34082C18.0106 2.3031 17.9685 2.27508 17.9217 2.26074L17.8484 2.25L2.65897 2.25L2.58572 2.26074C2.51546 2.28237 2.45642 2.33512 2.42752 2.40527L1.87283 3.75L18.6336 3.75ZM3.89627 8L16.6101 8L16.9158 5.25L3.59158 5.25L3.89627 8Z" fill="black"/>
</svg>
