<svg width="24" height="24" viewBox="0 0 24 24" fill="none" xmlns="http://www.w3.org/2000/svg">
<path fill-rule="evenodd" clip-rule="evenodd" d="M3.15122 4.74414C2.67321 4.68203 2.36662 4.17703 2.55649 3.71484L3.25278 2.02441C3.44573 1.55639 3.90284 1.25013 4.40903 1.25L19.5985 1.25L19.786 1.26367C20.215 1.32863 20.5859 1.61397 20.7547 2.02344L21.451 3.71484C21.6413 4.17794 21.3331 4.68303 20.8543 4.74414L20.7567 4.75H19.7264L17.8514 21.6377C17.8205 21.916 17.6993 22.1643 17.5194 22.3555L17.5038 22.5H17.3582C17.1484 22.6573 16.888 22.75 16.6082 22.75H7.39926C7.11946 22.7499 6.85914 22.6574 6.64926 22.5H6.50376L6.48715 22.3555C6.30758 22.1643 6.18699 21.9157 6.1561 21.6377L4.28012 4.75H3.24985L3.15122 4.74414ZM3.01938 3.9043C2.95183 4.06855 3.07237 4.24947 3.24985 4.25L20.7567 4.25L20.8202 4.24219C20.9622 4.20552 21.0473 4.04811 20.9881 3.9043L20.2918 2.21484C20.1906 1.9691 19.9684 1.79775 19.7108 1.75879L19.5985 1.75L4.40903 1.75C4.10525 1.75013 3.83136 1.93402 3.71567 2.21484L3.01938 3.9043ZM5.1434 8L18.8631 8L19.2245 4.75L4.78305 4.75L5.1434 8Z" fill="black"/>
</svg>
