<svg width="24" height="24" viewBox="0 0 24 24" fill="none" xmlns="http://www.w3.org/2000/svg">
<path fill-rule="evenodd" clip-rule="evenodd" d="M3.24882 5.25C2.36024 5.24877 1.75634 4.34651 2.09453 3.52441L2.79082 1.83301C3.06099 1.17769 3.70032 0.750134 4.40898 0.750001L19.5984 0.75C20.3072 0.75 20.9464 1.17761 21.2166 1.83301L21.9129 3.52441C22.2518 4.34817 21.645 5.25 20.7566 5.25H20.1746L18.3484 21.6934C18.2499 22.5796 17.4999 23.25 16.6082 23.25H7.39922C6.50765 23.2499 5.75747 22.5795 5.65898 21.6934L3.83183 5.25H3.24882ZM20.3836 3.75L19.8299 2.40527L19.7918 2.34082C19.7451 2.28429 19.6744 2.25 19.5984 2.25L4.40898 2.25C4.30772 2.25013 4.21604 2.31181 4.17754 2.40527L3.62285 3.75L20.3836 3.75ZM6.64629 17H17.3602L18.6658 5.25L5.3416 5.25L6.64629 17Z" fill="black"/>
</svg>
