<svg width="24" height="24" viewBox="0 0 24 24" fill="none" xmlns="http://www.w3.org/2000/svg">
<path fill-rule="evenodd" clip-rule="evenodd" d="M3.24939 5.25C2.36058 5.24899 1.75676 4.34664 2.09509 3.52441L2.79138 1.83301C3.06161 1.17764 3.70079 0.750001 4.40954 0.750001L19.599 0.75L19.7308 0.754883C20.386 0.804289 20.9638 1.21854 21.2172 1.83301L21.9135 3.52441C22.2523 4.34807 21.6454 5.24982 20.7572 5.25H20.1752L18.349 21.6934C18.2505 22.5795 17.5003 23.2498 16.6088 23.25H7.39978C6.5081 23.25 5.75806 22.5796 5.65955 21.6934L3.8324 5.25H3.24939ZM20.3842 3.75L19.8304 2.40527L19.7924 2.34082C19.7612 2.30306 19.7191 2.27513 19.6722 2.26074L19.599 2.25L4.40954 2.25L4.3363 2.26074C4.2659 2.28229 4.20706 2.33504 4.1781 2.40527L3.62341 3.75L20.3842 3.75ZM6.56384 16.25L17.4437 16.25L18.6664 5.25L5.34216 5.25L6.56384 16.25ZM7.15076 21.5273C7.16484 21.6539 7.2724 21.75 7.39978 21.75H16.6088C16.736 21.7498 16.8437 21.6538 16.8578 21.5273L17.2767 17.75H6.73083L7.15076 21.5273Z" fill="black"/>
</svg>
