<svg width="24" height="24" viewBox="0 0 24 24" fill="none" xmlns="http://www.w3.org/2000/svg">
<path d="M16.6243 22.5C16.7024 22.3431 16.763 22.1759 16.803 22H19.3607C19.615 21.9998 19.8286 21.808 19.8567 21.5547L21.8079 4H23.5091L22.8128 2.30957C22.7356 2.12235 22.5525 2 22.3499 2L19.5569 2L19.4495 1.73828C19.4154 1.65544 19.3753 1.57616 19.3314 1.5L22.3499 1.5C22.7551 1.5 23.1204 1.74456 23.2747 2.11914L23.971 3.80957C24.1064 4.13851 23.8647 4.49967 23.5091 4.5H22.2552L20.3538 21.6104C20.2976 22.1166 19.87 22.4998 19.3607 22.5H16.6243Z" fill="black"/>
<path fill-rule="evenodd" clip-rule="evenodd" d="M0.750298 4.75C0.217284 4.74926 -0.145626 4.20799 0.056939 3.71484L0.753228 2.02441C0.946175 1.55641 1.40331 1.25015 1.90948 1.25L17.0989 1.25L17.2864 1.26367C17.7155 1.32863 18.0863 1.61398 18.2552 2.02344L18.9515 3.71484C19.1418 4.17794 18.8336 4.68303 18.3548 4.74414L18.2571 4.75H17.2269L15.3519 21.6377C15.2815 22.2707 14.7456 22.75 14.1087 22.75H4.89971C4.26291 22.7498 3.72688 22.2706 3.65655 21.6377L1.78057 4.75H0.750298ZM0.51983 3.9043C0.452309 4.06853 0.572859 4.24943 0.750298 4.25L18.2571 4.25L18.3206 4.24219C18.4626 4.20552 18.5478 4.04811 18.4886 3.9043L17.7923 2.21484C17.6765 1.93399 17.4028 1.75 17.0989 1.75L1.90948 1.75C1.60572 1.75015 1.3318 1.93403 1.21612 2.21484L0.51983 3.9043ZM3.17217 12.75L15.8353 12.75L16.7249 4.75L2.2835 4.75L3.17217 12.75ZM4.15362 21.583C4.19588 21.9627 4.51774 22.2498 4.89971 22.25H14.1087C14.4908 22.25 14.8125 21.9627 14.8548 21.583L15.7806 13.25L3.22686 13.25L4.15362 21.583Z" fill="black"/>
</svg>
