<svg width="24" height="24" viewBox="0 0 24 24" fill="none" xmlns="http://www.w3.org/2000/svg">
<path fill-rule="evenodd" clip-rule="evenodd" d="M3.24881 5.75C2.08222 5.74872 1.26554 4.63811 1.55838 3.55078L1.63162 3.33399L2.32791 1.64356C2.67521 0.800748 3.49771 0.250141 4.40896 0.250001L19.5984 0.25C20.5097 0.25 21.3321 0.799679 21.6795 1.64258L22.3758 3.33398C22.8504 4.48754 22.0001 5.75 20.7566 5.75H20.6219L18.8445 21.748C18.7179 22.8875 17.7547 23.75 16.6082 23.75H7.3992C6.25285 23.7498 5.28947 22.8874 5.16287 21.748L3.38455 5.75H3.24881ZM19.6365 3.25L19.4304 2.75L4.57596 2.75L4.3699 3.25L19.6365 3.25ZM6.01053 6.75L17.9959 6.75L18.1072 5.75L5.90017 5.75L6.01053 6.75ZM7.62283 21.25H16.3846L17.7176 9.25L6.28885 9.25L7.62283 21.25Z" fill="black"/>
</svg>
