<svg width="24" height="24" viewBox="0 0 24 24" fill="none" xmlns="http://www.w3.org/2000/svg">
<path fill-rule="evenodd" clip-rule="evenodd" d="M3.08618 5.23926C2.28868 5.13629 1.77778 4.29526 2.09497 3.52441L2.79126 1.83301C3.06148 1.17761 3.70064 0.750001 4.40942 0.750001L19.5989 0.75L19.7307 0.754883C20.386 0.804228 20.9637 1.21849 21.217 1.83301L21.9133 3.52441C22.2311 4.29664 21.7176 5.13709 20.9202 5.23926L20.7571 5.25H20.175L18.3489 21.6934C18.2504 22.5795 17.5003 23.2499 16.6086 23.25H7.39966C6.50797 23.25 5.75793 22.5796 5.65942 21.6934L3.83227 5.25H3.24927L3.08618 5.23926ZM20.384 3.75L19.8303 2.40527L19.7922 2.34082C19.761 2.30302 19.719 2.27511 19.6721 2.26074L19.5989 2.25L4.40942 2.25L4.33618 2.26074C4.26576 2.2823 4.20693 2.33501 4.17798 2.40527L3.62329 3.75L20.384 3.75ZM5.56372 7.25L18.4436 7.25L18.6663 5.25L5.34204 5.25L5.56372 7.25ZM7.15063 21.5273C7.16471 21.6539 7.27228 21.75 7.39966 21.75H16.6086C16.736 21.7499 16.8436 21.6539 16.8577 21.5273L18.2766 8.75L5.73071 8.75L7.15063 21.5273Z" fill="black"/>
</svg>
