<svg width="24" height="24" viewBox="0 0 24 24" fill="none" xmlns="http://www.w3.org/2000/svg">
<path fill-rule="evenodd" clip-rule="evenodd" d="M3.24927 5.25C2.36046 5.24899 1.75664 4.34664 2.09497 3.52441L2.79126 1.83301C3.06148 1.17761 3.70065 0.750001 4.40942 0.750001L19.5989 0.75C20.3076 0.750045 20.9468 1.17758 21.217 1.83301L21.9133 3.52441C22.2522 4.34813 21.6454 5.24992 20.7571 5.25H20.175L18.3489 21.6934C18.2504 22.5795 17.5003 23.2499 16.6086 23.25H7.39966C6.50797 23.25 5.75793 22.5796 5.65942 21.6934L3.83227 5.25H3.24927ZM20.384 3.75L19.8303 2.40527L19.7922 2.34082C19.7455 2.28423 19.6748 2.25003 19.5989 2.25L4.40942 2.25C4.30805 2.25 4.21653 2.31174 4.17798 2.40527L3.62329 3.75L20.384 3.75ZM5.64673 8L18.3606 8L18.6663 5.25L5.34204 5.25L5.64673 8Z" fill="black"/>
</svg>
