<svg width="24" height="24" viewBox="0 0 24 24" fill="none" xmlns="http://www.w3.org/2000/svg">
<path d="M18.1701 22.5C18.2557 22.2807 18.3158 22.0477 18.3429 21.8037L20.1008 5.96973C21.3307 5.76011 22.1037 4.44549 21.6066 3.23828L20.9103 1.54785L20.8322 1.37598C20.6557 1.02514 20.4014 0.728046 20.0969 0.5L21.0832 0.5C21.9321 0.500385 22.6888 1.03675 22.9699 1.83789L23.7873 4.16895C24.0152 4.81903 23.5327 5.49967 22.8439 5.5H22.1428L20.3537 21.6104C20.2974 22.1166 19.8689 22.4997 19.3595 22.5H18.1701Z" fill="black"/>
<path fill-rule="evenodd" clip-rule="evenodd" d="M1.50115 5.5C0.500876 5.49905 -0.199547 4.54652 0.0519312 3.61426L0.115408 3.42871L0.811697 1.73828L0.874197 1.60059C1.21183 0.929593 1.90184 0.500001 2.66131 0.500001L17.8508 0.5L18.0021 0.50586C18.7007 0.558896 19.3229 0.974487 19.6379 1.60059L19.7004 1.73828L20.3967 3.42871C20.7781 4.35554 20.161 5.36465 19.2043 5.4873L19.009 5.5H18.6506L16.8488 21.7207C16.7363 22.7333 15.8793 23.4997 14.8605 23.5H5.65154C4.63247 23.5 3.77583 22.7335 3.66326 21.7207L1.86053 5.5H1.50115ZM18.2619 3.5L17.8508 2.5L2.66131 2.5L2.2492 3.5L18.2619 3.5ZM4.5949 12L15.9162 12L16.6388 5.5L3.87322 5.5L4.5949 12ZM5.65154 21.5H14.8605L15.6935 14L4.81756 14L5.65154 21.5Z" fill="black"/>
</svg>
