<svg width="24" height="24" viewBox="0 0 24 24" fill="none" xmlns="http://www.w3.org/2000/svg">
<path d="M17.6701 22.5C17.7558 22.2807 17.8158 22.0477 17.843 21.8037L17.9319 21H18.9113L20.6399 5.44043C21.0832 5.01318 21.3242 4.39159 21.2414 3.75H22.0608L21.5998 2.56836L21.5666 2.5C21.4785 2.34765 21.3141 2.25014 21.133 2.25H20.6994L20.4104 1.54785L20.3322 1.37598C20.2144 1.1417 20.0608 0.932073 19.882 0.75L21.133 0.75C21.9571 0.750158 22.698 1.2556 22.9973 2.02344L23.7229 3.88672C23.9782 4.5422 23.4946 5.24974 22.7912 5.25H22.1711L20.3528 21.6104C20.2965 22.1166 19.8689 22.4997 19.3596 22.5H17.6701Z" fill="black"/>
<path fill-rule="evenodd" clip-rule="evenodd" d="M1.49924 5.25C0.6107 5.24872 0.00678585 4.34648 0.34494 3.52442L1.04123 1.83301C1.31143 1.1778 1.95081 0.75016 2.65939 0.750001L17.8488 0.75L17.9807 0.754883C18.6357 0.804341 19.2137 1.21867 19.467 1.83301L20.1633 3.52441C20.5021 4.348 19.8952 5.24971 19.007 5.25H18.424L16.5979 21.6934C16.4993 22.5795 15.7493 23.25 14.8576 23.25H5.64865C4.75735 23.2496 4.00688 22.5793 3.90842 21.6934L2.08127 5.25H1.49924ZM18.634 3.75L18.0803 2.40527L18.0422 2.34082C18.0111 2.3032 17.9688 2.27512 17.9221 2.26074L17.8488 2.25L2.65939 2.25L2.58615 2.26074C2.51593 2.28235 2.45687 2.33519 2.42795 2.40527L1.87326 3.75L18.634 3.75ZM4.89572 17H15.6096L16.9153 5.25L3.59103 5.25L4.89572 17Z" fill="black"/>
</svg>
