<svg width="24" height="24" viewBox="0 0 24 24" fill="none" xmlns="http://www.w3.org/2000/svg">
<path fill-rule="evenodd" clip-rule="evenodd" d="M3.24966 4.75C2.71672 4.74919 2.35379 4.20794 2.55631 3.71484L3.25259 2.02441C3.44553 1.55644 3.90272 1.25019 4.40884 1.25L19.5983 1.25L19.7858 1.26367C20.2148 1.32862 20.5857 1.614 20.7545 2.02344L21.4508 3.71484C21.6412 4.17794 21.333 4.68303 20.8542 4.74414L20.7565 4.75H19.7262L17.8512 21.6377C17.7809 22.2707 17.245 22.75 16.6081 22.75H7.39908C6.76233 22.7498 6.22624 22.2706 6.15592 21.6377L4.27994 4.75H3.24966ZM3.0192 3.9043C2.95172 4.06849 3.07229 4.24936 3.24966 4.25L20.7565 4.25L20.82 4.24219C20.962 4.20552 21.0472 4.04811 20.9879 3.9043L20.2917 2.21484C20.1759 1.93401 19.9022 1.75 19.5983 1.75L4.40884 1.75C4.10513 1.75019 3.83116 1.93407 3.71548 2.21484L3.0192 3.9043ZM6.11588 16.75L17.8903 16.75L19.2243 4.75L4.78287 4.75L6.11588 16.75ZM6.65299 21.583C6.69524 21.9626 7.01716 22.2498 7.39908 22.25H16.6081C16.9902 22.25 17.3119 21.9627 17.3542 21.583L17.8346 17.25H6.17154L6.65299 21.583Z" fill="black"/>
</svg>
