<svg width="24" height="24" viewBox="0 0 24 24" fill="none" xmlns="http://www.w3.org/2000/svg">
<path d="M17.421 22.5C17.5066 22.2807 17.5667 22.0477 17.5938 21.8037L17.628 21.5H19.3594L21.3038 4H22.7247L21.9786 2.29883C21.8989 2.11763 21.7192 2 21.5206 2H20.3477L20.1612 1.54785L20.0831 1.37598C20.0158 1.24233 19.9359 1.11737 19.8477 1L21.5206 1C22.116 1 22.6554 1.35223 22.8946 1.89746L23.6407 3.59863C23.9301 4.25925 23.4459 4.99984 22.7247 5H22.1993L20.3536 21.6104C20.2973 22.1168 19.869 22.5 19.3594 22.5H17.421Z" fill="black"/>
<path fill-rule="evenodd" clip-rule="evenodd" d="M1.00005 5C0.289136 4.99901 -0.194455 4.27685 0.0762254 3.61914L0.772514 1.92871L0.819389 1.8252C1.07258 1.32226 1.5899 1.00019 2.15923 1L17.3487 1L17.462 1.00391C17.986 1.04343 18.4521 1.35577 18.6885 1.8252L18.7354 1.92871L19.4317 3.61914C19.686 4.23679 19.2758 4.91032 18.6377 4.99219L18.5069 5H17.7012L15.8497 21.666C15.7651 22.4255 15.1226 23 14.3585 23H5.14947C4.38546 22.9998 3.74282 22.4253 3.65826 21.666L1.80572 5H1.00005ZM18.5079 4L17.8116 2.30957L17.7774 2.24219C17.6879 2.09363 17.5258 2 17.3487 2L2.15923 2C1.98223 2.00018 1.81989 2.09364 1.73052 2.24219L1.69634 2.30957L1.00005 4L18.5079 4ZM3.0899 7.5L16.417 7.5L16.6954 5L2.81255 5L3.0899 7.5ZM4.6524 21.5557C4.68073 21.8085 4.89505 21.9998 5.14947 22H14.3585C14.6131 22 14.8271 21.8086 14.8555 21.5557L16.3057 8.5L3.20123 8.5L4.6524 21.5557Z" fill="black"/>
</svg>
