<svg width="24" height="24" viewBox="0 0 24 24" fill="none" xmlns="http://www.w3.org/2000/svg">
<path d="M17.6702 22.5C17.7558 22.2807 17.8159 22.0477 17.843 21.8037L17.9319 21H18.9124L20.6409 5.43945C21.0836 5.01223 21.3242 4.39109 21.2415 3.75H22.0608L21.5999 2.56836L21.5667 2.5C21.4912 2.36933 21.3597 2.27914 21.2102 2.25586L21.1341 2.25H20.6995L20.4104 1.54785L20.3323 1.37598C20.2145 1.14171 20.0609 0.932067 19.8821 0.75L21.1341 0.75C21.9579 0.750436 22.6981 1.25585 22.9973 2.02344L23.7229 3.88672C23.9782 4.54209 23.4945 5.24956 22.7913 5.25H22.1721L20.3538 21.6104C20.2975 22.1166 19.8689 22.4997 19.3596 22.5H17.6702Z" fill="black"/>
<path fill-rule="evenodd" clip-rule="evenodd" d="M1.4993 5.25C0.610762 5.24872 0.006847 4.34648 0.345001 3.52442L1.04129 1.83301C1.31149 1.17781 1.95088 0.750161 2.65945 0.750001L17.8489 0.75C18.5574 0.750192 19.1969 1.17778 19.4671 1.83301L20.1634 3.52441C20.5021 4.34798 19.8952 5.24968 19.0071 5.25H18.4241L16.5979 21.6934C16.4994 22.5795 15.7494 23.25 14.8577 23.25H5.64871C4.75738 23.2496 4.00694 22.5793 3.90848 21.6934L2.08133 5.25H1.4993ZM18.6341 3.75L18.0804 2.40527L18.0423 2.34082C17.9956 2.28443 17.9246 2.25014 17.8489 2.25L2.65945 2.25C2.55828 2.25016 2.46654 2.31193 2.42801 2.40527L1.87332 3.75L18.6341 3.75ZM4.81278 16.25L15.6927 16.25L16.9153 5.25L3.59109 5.25L4.81278 16.25ZM5.39969 21.5273C5.41373 21.6537 5.52169 21.7496 5.64871 21.75H14.8577C14.9851 21.75 15.0926 21.6539 15.1067 21.5273L15.5257 17.75H4.97977L5.39969 21.5273Z" fill="black"/>
</svg>
