<svg width="24" height="24" viewBox="0 0 24 24" fill="none" xmlns="http://www.w3.org/2000/svg">
<path d="M17.67 22.5C17.7556 22.2807 17.8157 22.0477 17.8428 21.8037L17.9317 21H18.9112L20.6397 5.44043C21.0831 5.01317 21.324 4.39163 21.2412 3.75H22.0596L21.5987 2.56836C21.5238 2.37635 21.3387 2.25004 21.1328 2.25H20.6992L20.4102 1.54785L20.3321 1.37598C20.2142 1.14166 20.0607 0.932092 19.8819 0.75L21.1328 0.75C21.9569 0.750043 22.6967 1.25567 22.9961 2.02344L23.7227 3.88672C23.9781 4.54225 23.4945 5.24978 22.791 5.25H22.1709L20.3526 21.6104C20.2963 22.1166 19.8687 22.4997 19.3594 22.5H17.67Z" fill="black"/>
<path fill-rule="evenodd" clip-rule="evenodd" d="M1.49905 5.25C0.610519 5.24872 0.00660355 4.34648 0.344756 3.52442L1.04105 1.83301C1.31123 1.17776 1.95061 0.750162 2.65921 0.750001L17.8487 0.75L17.9805 0.754883C18.6356 0.804286 19.2135 1.21862 19.4668 1.83301L20.1631 3.52441C20.502 4.34806 19.8951 5.24982 19.0069 5.25H18.4248L16.5987 21.6934C16.5002 22.5795 15.75 23.2498 14.8584 23.25H5.64944C4.75794 23.2498 4.00771 22.5794 3.90921 21.6934L2.08206 5.25H1.49905ZM18.6338 3.75L18.0801 2.40527L18.042 2.34082C18.0109 2.30316 17.9687 2.2751 17.9219 2.26074L17.8487 2.25L2.65921 2.25L2.58597 2.26074C2.51573 2.28236 2.45668 2.33517 2.42776 2.40527L1.87308 3.75L18.6338 3.75ZM4.36917 12.25L16.1377 12.25L16.916 5.25L3.59183 5.25L4.36917 12.25ZM5.40042 21.5273C5.41449 21.6538 5.52224 21.7498 5.64944 21.75H14.8584C14.9857 21.7498 15.0934 21.6538 15.1075 21.5273L15.9707 13.75L4.53616 13.75L5.40042 21.5273Z" fill="black"/>
</svg>
