<svg width="24" height="24" viewBox="0 0 24 24" fill="none" xmlns="http://www.w3.org/2000/svg">
<path fill-rule="evenodd" clip-rule="evenodd" d="M3.24946 5.75C2.08265 5.74894 1.2661 4.63825 1.55903 3.55078L1.63227 3.33399L2.32856 1.64356C2.67593 0.800695 3.49826 0.250001 4.40961 0.250001L19.5991 0.25L19.769 0.256836C20.6113 0.3205 21.3545 0.852448 21.6801 1.64258L22.3764 3.33398C22.8212 4.41525 22.1017 5.59216 20.9858 5.73535L20.7573 5.75H20.6225L18.8452 21.748C18.7186 22.8874 17.7552 23.7498 16.6088 23.75H7.39985C6.25338 23.75 5.29015 22.8875 5.16352 21.748L3.3852 5.75H3.24946ZM19.6372 3.25L19.4311 2.75L4.57661 2.75L4.37055 3.25L19.6372 3.25ZM6.70649 13L17.3012 13L18.1079 5.75L5.90083 5.75L6.70649 13Z" fill="black"/>
</svg>
