<svg width="24" height="24" viewBox="0 0 24 24" fill="none" xmlns="http://www.w3.org/2000/svg">
<path d="M18.1721 22.5C18.2578 22.2807 18.3178 22.0477 18.345 21.8037L20.1028 5.96973C21.3329 5.76019 22.1058 4.44556 21.6086 3.23828L20.9124 1.54785L20.8342 1.37598C20.5831 0.87672 20.1753 0.485842 19.6868 0.25L21.0413 0.25C21.9116 0.250133 22.6821 0.813364 22.9465 1.64258L23.8411 4.44629C24.0465 5.09118 23.5648 5.7498 22.8879 5.75H22.1174L20.3557 21.6104C20.2994 22.1167 19.871 22.4998 19.3616 22.5H18.1721Z" fill="black"/>
<path fill-rule="evenodd" clip-rule="evenodd" d="M1.75024 5.75C0.583814 5.74855 -0.23295 4.63801 0.0598117 3.55078L0.133054 3.33399L0.829343 1.64356C1.17661 0.800829 1.99925 0.250247 2.9104 0.250001L18.0998 0.25C19.0111 0.25 19.8335 0.799731 20.1809 1.64258L20.8772 3.33398C21.3518 4.48754 20.5015 5.75 19.2581 5.75H19.1233L17.3459 21.748C17.2193 22.8875 16.2561 23.75 15.1096 23.75H5.90063C4.75439 23.7497 3.79089 22.8873 3.6643 21.748L1.88598 5.75H1.75024ZM18.1379 3.25L17.9319 2.75L3.07739 2.75L2.87134 3.25L18.1379 3.25ZM5.51294 15.75L15.4963 15.75L16.6086 5.75L4.40161 5.75L5.51294 15.75ZM6.12427 21.25H14.886L15.219 18.25H5.79028L6.12427 21.25Z" fill="black"/>
</svg>
