<svg width="24" height="24" viewBox="0 0 24 24" fill="none" xmlns="http://www.w3.org/2000/svg">
<path d="M16.6234 22.5C16.7015 22.3431 16.7621 22.1759 16.8021 22H19.3598C19.6141 21.9998 19.8277 21.808 19.8559 21.5547L21.807 4H23.5082L22.8119 2.30957C22.7347 2.1224 22.5516 2 22.349 2L19.556 2L19.4486 1.73828C19.4145 1.65548 19.3744 1.57614 19.3305 1.5L22.349 1.5C22.7541 1.5 23.1195 1.74461 23.2738 2.11914L23.9701 3.80957C24.1056 4.13851 23.8638 4.49967 23.5082 4.5H22.2543L20.3529 21.6104C20.2966 22.1166 19.8691 22.4998 19.3598 22.5H16.6234Z" fill="black"/>
<path fill-rule="evenodd" clip-rule="evenodd" d="M0.651748 4.74414C0.173612 4.68213 -0.132924 4.17711 0.0570215 3.71484L0.753311 2.02441C0.946328 1.55643 1.40336 1.25005 1.90956 1.25L17.099 1.25L17.2865 1.26367C17.7154 1.32877 18.0865 1.61409 18.2553 2.02344L18.9516 3.71484C19.1543 4.20852 18.7902 4.74968 18.2572 4.75H17.226L15.351 21.6377C15.2806 22.2707 14.7447 22.75 14.1078 22.75H4.89882C4.26213 22.7497 3.72597 22.2705 3.65566 21.6377L1.77968 4.75H0.750381L0.651748 4.74414ZM0.519912 3.9043C0.452283 4.06863 0.572776 4.2496 0.750381 4.25L18.2572 4.25C18.4352 4.24968 18.5561 4.06828 18.4887 3.9043L17.7924 2.21484C17.6912 1.96921 17.4687 1.79788 17.2113 1.75879L17.099 1.75L1.90956 1.75C1.60577 1.75005 1.33196 1.93405 1.2162 2.21484L0.519912 3.9043ZM3.61562 16.75L15.39 16.75L16.724 4.75L2.28261 4.75L3.61562 16.75ZM4.15273 21.583C4.19498 21.9626 4.51696 22.2497 4.89882 22.25H14.1078C14.4899 22.25 14.8116 21.9627 14.8539 21.583L15.3344 17.25H3.67128L4.15273 21.583Z" fill="black"/>
</svg>
