<svg width="24" height="24" viewBox="0 0 24 24" fill="none" xmlns="http://www.w3.org/2000/svg">
<path d="M17.6694 22.5C17.755 22.2807 17.8151 22.0477 17.8423 21.8037L17.9311 21H18.9116L20.6401 5.43945C21.0829 5.01221 21.3234 4.39118 21.2407 3.75H22.06L21.5991 2.56836L21.5659 2.5C21.4903 2.3693 21.3589 2.27905 21.2094 2.25586L21.1333 2.25H20.6987L20.4096 1.54785L20.3315 1.37598C20.2137 1.14171 20.0601 0.932059 19.8813 0.75L21.1333 0.75C21.9571 0.750307 22.6972 1.25586 22.9966 2.02344L23.7221 3.88672C23.9775 4.54217 23.4939 5.24969 22.7905 5.25H22.1714L20.353 21.6104C20.2967 22.1166 19.8682 22.4998 19.3589 22.5H17.6694Z" fill="black"/>
<path fill-rule="evenodd" clip-rule="evenodd" d="M1.49851 5.25C0.610146 5.24855 0.00617128 4.34638 0.344209 3.52442L1.0405 1.83301C1.31062 1.17779 1.95013 0.750266 2.65866 0.750001L17.8481 0.75L17.98 0.754883C18.6352 0.804192 19.2129 1.21859 19.4663 1.83301L20.1626 3.52441C20.5015 4.34817 19.8947 5.25 19.0063 5.25H18.4243L16.5981 21.6934C16.4996 22.5796 15.7496 23.25 14.8579 23.25H5.6489C4.75746 23.2497 4.00714 22.5794 3.90866 21.6934L2.08151 5.25H1.49851ZM18.6333 3.75L18.0796 2.40527L18.0415 2.34082C18.0103 2.30316 17.9682 2.27507 17.9214 2.26074L17.8481 2.25L2.65866 2.25L2.58542 2.26074C2.51525 2.28242 2.45609 2.3352 2.42722 2.40527L1.87253 3.75L18.6333 3.75ZM3.81296 7.25L16.6928 7.25L16.9155 5.25L3.59128 5.25L3.81296 7.25ZM5.39987 21.5273C5.41392 21.6538 5.52177 21.7497 5.6489 21.75H14.8579C14.9852 21.75 15.0928 21.6539 15.1069 21.5273L16.5259 8.75L3.97995 8.75L5.39987 21.5273Z" fill="black"/>
</svg>
