<svg width="24" height="24" viewBox="0 0 24 24" fill="none" xmlns="http://www.w3.org/2000/svg">
<path fill-rule="evenodd" clip-rule="evenodd" d="M20.8553 6.22283C21.734 5.34415 21.734 3.91953 20.8553 3.04085C19.9767 2.16217 18.552 2.16217 17.6734 3.04085L14.7031 6.01105C14.6012 6.11297 14.5353 6.17864 14.4811 6.22464C14.4292 6.26874 14.4047 6.27988 14.3915 6.28417C14.3413 6.30048 14.2872 6.30048 14.237 6.28417C14.2238 6.27988 14.1993 6.26874 14.1474 6.22464C14.0932 6.17864 14.0273 6.11297 13.9253 6.01105L13.8602 5.9459C13.1768 5.26248 12.0687 5.26248 11.3853 5.9459C10.7019 6.62932 10.7019 7.73736 11.3853 8.42077L11.8391 8.87459L3.73348 16.9805C3.25826 17.4557 2.94206 18.0666 2.82841 18.729L2.64301 19.8096C2.49712 20.6599 3.23608 21.3988 4.08639 21.2529L5.16695 21.0675C5.82937 20.9539 6.44026 20.6377 6.9155 20.1624L15.0211 12.0566L15.6279 12.6634C16.3114 13.3468 17.4194 13.3468 18.1028 12.6634C18.7862 11.98 18.7862 10.872 18.1028 10.1885L17.8851 9.97085C17.7832 9.86893 17.7175 9.80298 17.6715 9.7488C17.6274 9.69685 17.6163 9.67239 17.612 9.65919C17.5957 9.60898 17.5957 9.5549 17.612 9.50469C17.6163 9.49149 17.6274 9.46703 17.6715 9.41508C17.7175 9.3609 17.7832 9.29495 17.8851 9.19303L20.8553 6.22283ZM14.6467 11.7238L6.56194 19.8089C6.15982 20.211 5.64291 20.4786 5.0824 20.5747L4.00183 20.7601C3.49165 20.8477 3.04828 20.4043 3.13581 19.8941L3.32121 18.8135C3.41738 18.253 3.68493 17.7361 4.08704 17.334L12.1719 9.24895L14.6467 11.7238Z" fill="black"/>
</svg>
