<svg width="24" height="24" viewBox="0 0 24 24" fill="none" xmlns="http://www.w3.org/2000/svg">
<path fill-rule="evenodd" clip-rule="evenodd" d="M21.0321 2.86407C22.0084 3.84038 22.0084 5.42329 21.0321 6.3996L18.0619 9.36981C17.957 9.47465 17.9 9.53229 17.8621 9.57687L17.8578 9.58194L17.8621 9.58701C17.9 9.63159 17.957 9.68923 18.0619 9.79407L18.2796 10.0118C19.0606 10.7928 19.0606 12.0591 18.2796 12.8402C17.4985 13.6212 16.2322 13.6212 15.4511 12.8402L15.0211 12.4101L7.09226 20.3392C6.58046 20.851 5.92258 21.1916 5.2092 21.3139L4.12864 21.4993C3.10827 21.6744 2.22152 20.7877 2.39659 19.7673L2.58199 18.6867C2.70438 17.9733 3.04491 17.3155 3.55667 16.8037L11.4855 8.87459L11.2085 8.59755C10.4275 7.8165 10.4275 6.55017 11.2085 5.76912C11.9896 4.98807 13.2559 4.98807 14.0369 5.76912L14.1021 5.83427C14.2069 5.93911 14.2646 5.9962 14.3091 6.03405L14.3142 6.03831L14.3193 6.03405C14.3639 5.9962 14.4215 5.93911 14.5263 5.83427L17.4966 2.86407C18.4729 1.88776 20.0558 1.88776 21.0321 2.86407ZM20.325 5.6925C20.9108 5.10671 20.9108 4.15696 20.325 3.57118C19.7392 2.98539 18.7894 2.98539 18.2037 3.57118L15.2222 6.55265C15.133 6.6419 15.0461 6.72881 14.9665 6.79639C14.879 6.87061 14.7681 6.9504 14.6232 6.99746C14.4224 7.06272 14.206 7.06272 14.0052 6.99746C13.8603 6.9504 13.7494 6.87061 13.662 6.79639C13.5824 6.72881 13.4955 6.6419 13.4062 6.55265L13.3298 6.47623C12.9393 6.0857 12.3061 6.0857 11.9156 6.47623C11.5251 6.86675 11.5251 7.49992 11.9156 7.89044L16.1583 12.1331C16.5488 12.5236 17.1819 12.5236 17.5725 12.1331C17.963 11.7426 17.963 11.1094 17.5725 10.7189L17.3435 10.4899C17.2543 10.4007 17.1673 10.3138 17.0998 10.2342C17.0255 10.1468 16.9458 10.0358 16.8987 9.89096C16.8334 9.69011 16.8334 9.47377 16.8987 9.27292C16.9458 9.12806 17.0255 9.01712 17.0998 8.9297C17.1673 8.85009 17.2543 8.7632 17.3435 8.67398L20.325 5.6925ZM6.38514 19.6321L14.2932 11.7238L12.1718 9.60251L4.26379 17.5108C3.89824 17.8764 3.65501 18.3463 3.56759 18.8558L3.38219 19.9364C3.32383 20.2765 3.61941 20.5721 3.95954 20.5137L5.0401 20.3283C5.54965 20.2409 6.01957 19.9977 6.38514 19.6321Z" fill="black"/>
</svg>
