<svg width="24" height="24" viewBox="0 0 24 24" fill="none" xmlns="http://www.w3.org/2000/svg">
<path fill-rule="evenodd" clip-rule="evenodd" d="M21.3857 6.75316C22.5573 5.58158 22.5573 3.68209 21.3857 2.51052C20.2141 1.33894 18.3146 1.33894 17.1431 2.51052L14.3127 5.34091C13.3318 4.43993 11.8058 4.46481 10.855 5.41557C9.90435 6.36624 9.87939 7.89209 10.7801 8.87297L3.20319 16.4502C2.61831 17.035 2.22914 17.7869 2.08927 18.6021L1.90387 19.6827C1.67044 21.0432 2.85278 22.2256 4.21327 21.9921L5.29383 21.8067C6.10912 21.6669 6.86098 21.2777 7.44589 20.6927L15.0212 13.1172L15.0977 13.1937C16.074 14.1701 17.6569 14.1701 18.6332 13.1937C19.6095 12.2174 19.6095 10.6345 18.6332 9.65821L18.5569 9.58194L21.3857 6.75316ZM13.5861 11.7238L6.03166 19.2785C5.7392 19.571 5.36327 19.7656 4.95563 19.8355L3.87506 20.0209L4.06047 18.9403C4.1304 18.5327 4.32499 18.1568 4.61743 17.8643L12.1719 10.3096L13.5861 11.7238Z" fill="black"/>
</svg>
