<svg width="24" height="24" viewBox="0 0 24 24" fill="none" xmlns="http://www.w3.org/2000/svg">
<path fill-rule="evenodd" clip-rule="evenodd" d="M21.4415 3.20339C22.613 4.37496 22.613 6.27445 21.4415 7.44603L16.4917 12.3958L17.1991 13.1032C17.3944 13.2984 17.3944 13.615 17.1991 13.8103C17.0039 14.0055 16.6873 14.0055 16.492 13.8103L15.7848 13.103L9.13325 19.7548C8.73721 20.1509 8.2519 20.4461 7.71809 20.6157L5.07297 21.4561C3.91346 21.8245 2.82081 20.7318 3.1892 19.5723L4.02959 16.9271C4.19917 16.3934 4.49436 15.9081 4.89036 15.5121L11.5419 8.86021L10.8352 8.15343C10.6399 7.95817 10.6399 7.64159 10.8352 7.44633C11.0304 7.25106 11.347 7.25106 11.5423 7.44633L12.2491 8.15314L17.1988 3.20339C18.3704 2.03181 20.2699 2.03181 21.4415 3.20339ZM8.42612 19.0477L15.0776 12.3959L12.249 9.56732L5.59748 16.2192C5.31462 16.502 5.10378 16.8487 4.98265 17.2299L4.14226 19.8751C4.01946 20.2616 4.38368 20.6258 4.77018 20.503L7.4153 19.6627C7.79659 19.5415 8.14324 19.3306 8.42612 19.0477Z" fill="black"/>
</svg>
