<svg width="24" height="24" viewBox="0 0 24 24" fill="none" xmlns="http://www.w3.org/2000/svg">
<path fill-rule="evenodd" clip-rule="evenodd" d="M21.972 2.67306C23.4364 4.13752 23.4364 6.51189 21.972 7.97636L17.5526 12.3958L17.7296 12.5728C18.2178 13.061 18.2178 13.8525 17.7296 14.3406C17.2415 14.8288 16.45 14.8288 15.9619 14.3406L15.785 14.1637L9.66378 20.2852C9.18287 20.7661 8.59357 21.1246 7.94537 21.3305L5.30026 22.1709C3.56098 22.7235 1.92202 21.0845 2.4746 19.3452L3.31499 16.7C3.5209 16.0519 3.87935 15.4627 4.36021 14.9818L10.4815 8.86024L10.305 8.68376C9.81686 8.19561 9.81686 7.40415 10.305 6.916C10.7932 6.42784 11.5846 6.42784 12.0728 6.916L12.2493 7.09248L16.6687 2.67306C18.1331 1.20859 20.5075 1.20859 21.972 2.67306ZM7.89597 18.5174L14.0172 12.3959L12.2492 10.628L6.12801 16.7495C5.93001 16.9475 5.78242 17.1901 5.69763 17.457L5.00343 19.642L7.18839 18.9479C7.45529 18.8631 7.69795 18.7155 7.89597 18.5174Z" fill="black"/>
</svg>
