<svg width="24" height="24" viewBox="0 0 24 24" fill="none" xmlns="http://www.w3.org/2000/svg">
<path fill-rule="evenodd" clip-rule="evenodd" d="M21.2648 3.38016C22.3387 4.4541 22.3387 6.19531 21.2648 7.26925L16.1383 12.3958L17.0224 13.28C17.1201 13.3776 17.1201 13.5359 17.0224 13.6335C16.9248 13.7311 16.7665 13.7311 16.6689 13.6335L15.7848 12.7495L8.95657 19.5781C8.58881 19.9458 8.13817 20.22 7.64249 20.3775L4.99738 21.2178C4.03111 21.5248 3.12058 20.6143 3.42756 19.648L4.26796 17.0028C4.42542 16.5072 4.69952 16.0566 5.06724 15.6889L11.8956 8.86021L11.012 7.97666C10.9144 7.87902 10.9144 7.72073 11.012 7.6231C11.1097 7.52547 11.268 7.52547 11.3656 7.6231L12.2492 8.50669L17.3757 3.38016C18.4496 2.30622 20.1908 2.30622 21.2648 3.38016ZM8.60301 19.2245L15.4313 12.3959L12.2491 9.21376L5.4208 16.0424C5.10966 16.3536 4.87773 16.7348 4.74449 17.1542L3.90409 19.7994C3.7199 20.3792 4.26622 20.9255 4.84598 20.7413L7.4911 19.9009C7.91051 19.7677 8.29183 19.5357 8.60301 19.2245Z" fill="black"/>
</svg>
