<svg width="24" height="24" viewBox="0 0 24 24" fill="none" xmlns="http://www.w3.org/2000/svg">
<path fill-rule="evenodd" clip-rule="evenodd" d="M21.6184 3.02661C22.8876 4.29581 22.8876 6.3536 21.6184 7.6228L16.8454 12.3958L17.376 12.9264C17.6689 13.2193 17.6689 13.6942 17.376 13.9871C17.0831 14.28 16.6083 14.28 16.3154 13.9871L15.7849 13.4566L9.31017 19.9316C8.88584 20.356 8.36587 20.6723 7.79393 20.854L5.14882 21.6944C3.79605 22.1241 2.5213 20.8494 2.95108 19.4966L3.79147 16.8514C3.97316 16.2796 4.28944 15.7596 4.71372 15.3353L11.1885 8.86021L10.6585 8.33021C10.3656 8.03732 10.3656 7.56244 10.6585 7.26955C10.9514 6.97666 11.4263 6.97666 11.7192 7.26955L12.2492 7.79958L17.0222 3.02661C18.2914 1.75741 20.3492 1.75741 21.6184 3.02661ZM8.24949 18.871L14.7242 12.3959L12.2492 9.92088L5.77441 16.3959C5.51983 16.6505 5.33007 16.9625 5.22106 17.3056L4.38066 19.9508C4.31927 20.1441 4.50137 20.3262 4.69463 20.2648L7.33975 19.4244C7.68291 19.3154 7.99489 19.1256 8.24949 18.871Z" fill="black"/>
</svg>
