<svg width="24" height="24" viewBox="0 0 24 24" fill="none" xmlns="http://www.w3.org/2000/svg">
<path fill-rule="evenodd" clip-rule="evenodd" d="M21.7953 2.85032C23.1621 4.21716 23.1621 6.43323 21.7953 7.80007L17.1991 12.3963L17.553 12.7501C17.9435 13.1406 17.9435 13.7738 17.553 14.1643C17.1624 14.5549 16.5293 14.5549 16.1387 14.1643L15.785 13.8106L9.4871 20.1089C9.03448 20.5615 8.47984 20.8989 7.86978 21.0927L5.22466 21.9331C3.67864 22.4243 2.22178 20.9674 2.71296 19.4214L3.55335 16.7762C3.74716 16.1662 4.08451 15.6116 4.53709 15.159L10.8351 8.86071L10.4819 8.50747C10.0914 8.11695 10.0914 7.48378 10.4819 7.09326C10.8724 6.70274 11.5056 6.70274 11.8961 7.09326L12.2494 7.44652L16.8456 2.85032C18.2124 1.48349 20.4285 1.48349 21.7953 2.85032ZM8.07285 18.6947L14.3708 12.3964L12.2493 10.2749L5.95133 16.5732C5.72505 16.7995 5.55637 17.0768 5.45947 17.3818L4.61907 20.027L7.26419 19.1866C7.56922 19.0897 7.84654 18.921 8.07285 18.6947Z" fill="black"/>
</svg>
