<svg width="24" height="24" viewBox="0 0 24 24" fill="none" xmlns="http://www.w3.org/2000/svg">
<path fill-rule="evenodd" clip-rule="evenodd" d="M21.2088 6.57638C22.2828 5.50244 22.2828 3.76123 21.2088 2.68729C20.1349 1.61335 18.3937 1.61335 17.3198 2.68729L14.3142 5.69283L14.2137 5.59234C13.335 4.71366 11.9104 4.71367 11.0317 5.59235C10.153 6.47102 10.153 7.89565 11.0317 8.77433L11.132 8.87459L3.37987 16.6269C2.83155 17.1753 2.4667 17.8801 2.33557 18.6444L2.15017 19.725C1.94592 20.9154 2.98046 21.95 4.17089 21.7457L5.25146 21.5603C6.01579 21.4292 6.72066 21.0643 7.26901 20.516L15.0211 12.7637L15.2743 13.017C16.153 13.8956 17.5776 13.8956 18.4563 13.017C19.335 12.1383 19.335 10.7137 18.4563 9.83498L18.2033 9.58194L21.2088 6.57638ZM13.9396 11.7238L6.20834 19.4553C5.87932 19.7843 5.4564 20.0033 4.9978 20.0819L3.91724 20.2673C3.74718 20.2965 3.59939 20.1487 3.62856 19.9787L3.81397 18.8981C3.89265 18.4395 4.11155 18.0166 4.44055 17.6876L12.1718 9.95606L13.9396 11.7238Z" fill="black"/>
</svg>
