<svg width="24" height="24" viewBox="0 0 24 24" fill="none" xmlns="http://www.w3.org/2000/svg">
<path fill-rule="evenodd" clip-rule="evenodd" d="M21.3856 2.51052C22.5572 3.68209 22.5572 5.58158 21.3856 6.75316L18.5568 9.58194L18.6331 9.65821C19.6094 10.6345 19.6094 12.2174 18.6331 13.1937C17.6568 14.1701 16.0739 14.1701 15.0975 13.1937L15.021 13.1172L7.44577 20.6927C6.86086 21.2777 6.10899 21.6669 5.29371 21.8067L4.21314 21.9921C2.85265 22.2256 1.67032 21.0432 1.90374 19.6827L2.08915 18.6021C2.22902 17.7869 2.61819 17.035 3.20307 16.4502L10.78 8.87297C9.87927 7.89209 9.90423 6.36624 10.8549 5.41557C11.8057 4.46481 13.3317 4.43993 14.3126 5.34091L17.143 2.51052C18.3145 1.33894 20.214 1.33894 21.3856 2.51052ZM19.9714 5.33894C20.3619 4.94842 20.3619 4.31525 19.9714 3.92473C19.5809 3.5342 18.9477 3.5342 18.5572 3.92473L15.5706 6.9113C15.4864 6.99556 15.3859 7.09619 15.29 7.17756C15.1789 7.27186 15.0103 7.3974 14.7777 7.47299C14.4764 7.57088 14.1519 7.57088 13.8506 7.47299C13.618 7.3974 13.4494 7.27186 13.3383 7.17756C13.2425 7.09619 13.1419 6.99555 13.0577 6.91129L12.9762 6.82978C12.781 6.63452 12.4644 6.63452 12.2691 6.82978C12.0739 7.02504 12.0739 7.34163 12.2691 7.53689L16.5118 11.7795C16.707 11.9748 17.0236 11.9748 17.2189 11.7795C17.4141 11.5843 17.4141 11.2677 17.2189 11.0724L16.9848 10.8384C16.9006 10.7542 16.7999 10.6536 16.7185 10.5578C16.6243 10.4467 16.4987 10.2781 16.4231 10.0455C16.3252 9.7442 16.3252 9.41968 16.4231 9.11841C16.4987 8.88578 16.6243 8.71718 16.7185 8.60611C16.7999 8.51025 16.9006 8.4097 16.9848 8.3255L19.9714 5.33894ZM6.03153 19.2785L13.586 11.7238L12.1718 10.3096L4.61731 17.8643C4.32487 18.1568 4.13028 18.5327 4.06034 18.9403L3.87494 20.0209L4.9555 19.8355C5.36315 19.7656 5.73908 19.571 6.03153 19.2785Z" fill="black"/>
</svg>
