<svg width="24" height="24" viewBox="0 0 24 24" fill="none" xmlns="http://www.w3.org/2000/svg">
<path fill-rule="evenodd" clip-rule="evenodd" d="M21.7952 7.80007C23.162 6.43323 23.162 4.21716 21.7952 2.85032C20.4283 1.48349 18.2123 1.48349 16.8454 2.85032L12.2492 7.44652L11.896 7.09326C11.5055 6.70274 10.8723 6.70274 10.4818 7.09326C10.0912 7.48378 10.0912 8.11695 10.4818 8.50747L10.835 8.86071L4.53696 15.159C4.08439 15.6116 3.74703 16.1662 3.55323 16.7762L2.71284 19.4214C2.22166 20.9674 3.67852 22.4243 5.22453 21.9331L7.86965 21.0927C8.47972 20.8989 9.03436 20.5615 9.48698 20.1089L15.7849 13.8106L16.1386 14.1643C16.5291 14.5549 17.1623 14.5549 17.5528 14.1643C17.9434 13.7738 17.9434 13.1406 17.5528 12.7501L17.199 12.3963L21.7952 7.80007ZM15.7848 10.982L13.6635 8.86073L18.2596 4.26453C18.8454 3.67875 19.7952 3.67875 20.381 4.26453C20.9668 4.85032 20.9667 5.80007 20.381 6.38585L15.7848 10.982ZM14.3707 12.3964L8.07273 18.6947C7.84642 18.921 7.5691 19.0897 7.26407 19.1866L4.61895 20.027L5.45934 17.3818C5.55625 17.0768 5.72492 16.7995 5.95121 16.5732L12.2492 10.2749L14.3707 12.3964Z" fill="black"/>
</svg>
