<svg width="24" height="24" viewBox="0 0 24 24" fill="none" xmlns="http://www.w3.org/2000/svg">
<path fill-rule="evenodd" clip-rule="evenodd" d="M21.2088 2.68729C22.2828 3.76123 22.2828 5.50244 21.2088 6.57638L18.2033 9.58194L18.4563 9.83498C19.335 10.7137 19.335 12.1383 18.4563 13.017C17.5776 13.8956 16.153 13.8956 15.2743 13.017L15.0211 12.7637L7.26901 20.516C6.72066 21.0643 6.01579 21.4292 5.25146 21.5603L4.17089 21.7457C2.98046 21.95 1.94592 20.9154 2.15017 19.725L2.33557 18.6444C2.4667 17.8801 2.83155 17.1753 3.37987 16.6269L11.132 8.87459L11.0317 8.77433C10.153 7.89565 10.153 6.47102 11.0317 5.59235C11.9104 4.71367 13.335 4.71366 14.2137 5.59234L14.3142 5.69283L17.3198 2.68729C18.3937 1.61335 20.1349 1.61335 21.2088 2.68729ZM20.1482 5.51572C20.6363 5.02756 20.6363 4.23611 20.1482 3.74795C19.66 3.2598 18.8686 3.2598 18.3804 3.74795L15.3959 6.73245C15.3096 6.81885 15.2159 6.91253 15.1282 6.98698C15.029 7.07123 14.8892 7.1739 14.7005 7.23523C14.4494 7.3168 14.179 7.3168 13.9279 7.23523C13.7392 7.1739 13.5994 7.07123 13.5002 6.98698C13.4125 6.91253 13.3188 6.81885 13.2325 6.73245L13.153 6.65301C12.8601 6.36011 12.3853 6.36011 12.0924 6.65301C11.7995 6.9459 11.7995 7.42077 12.0924 7.71367L16.335 11.9563C16.6279 12.2492 17.1028 12.2492 17.3957 11.9563C17.6886 11.6634 17.6886 11.1885 17.3957 10.8956L17.1637 10.6637C17.0773 10.5773 16.9836 10.4837 16.9092 10.396C16.8249 10.2967 16.7222 10.157 16.6609 9.96821C16.5793 9.71716 16.5793 9.44672 16.6609 9.19567C16.7222 9.00692 16.8249 8.86715 16.9092 8.7679C16.9836 8.68021 17.0773 8.58658 17.1637 8.50022L20.1482 5.51572ZM6.20834 19.4553L13.9396 11.7238L12.1718 9.95606L4.44055 17.6876C4.11155 18.0166 3.89265 18.4395 3.81397 18.8981L3.62856 19.9787C3.59939 20.1487 3.74718 20.2965 3.91724 20.2673L4.9978 20.0819C5.4564 20.0033 5.87932 19.7843 6.20834 19.4553Z" fill="black"/>
</svg>
