<svg width="24" height="24" viewBox="0 0 24 24" fill="none" xmlns="http://www.w3.org/2000/svg">
<path fill-rule="evenodd" clip-rule="evenodd" d="M20.8553 3.04085C21.734 3.91953 21.734 5.34415 20.8553 6.22283L17.8851 9.19303C17.7832 9.29495 17.7175 9.3609 17.6715 9.41508C17.6274 9.46703 17.6163 9.49149 17.612 9.50469C17.5957 9.5549 17.5957 9.60898 17.612 9.65919C17.6163 9.67239 17.6274 9.69685 17.6715 9.7488C17.7175 9.80298 17.7832 9.86893 17.8851 9.97085L18.1028 10.1885C18.7862 10.872 18.7862 11.98 18.1028 12.6634C17.4194 13.3468 16.3114 13.3468 15.6279 12.6634L15.0211 12.0566L6.9155 20.1624C6.44026 20.6377 5.82937 20.9539 5.16695 21.0675L4.08639 21.2529C3.23608 21.3988 2.49712 20.6599 2.64301 19.8096L2.82842 18.729C2.94206 18.0666 3.25826 17.4557 3.73348 16.9805L11.8391 8.87459L11.3853 8.42077C10.7019 7.73736 10.7019 6.62932 11.3853 5.9459C12.0687 5.26248 13.1768 5.26248 13.8602 5.9459L13.9253 6.01105C14.0273 6.11297 14.0932 6.17864 14.1474 6.22464C14.1993 6.26874 14.2238 6.27988 14.237 6.28417C14.2872 6.30048 14.3413 6.30048 14.3915 6.28417C14.4047 6.27988 14.4292 6.26874 14.4811 6.22464C14.5353 6.17864 14.6012 6.11297 14.7031 6.01105L17.6734 3.04085C18.552 2.16217 19.9767 2.16217 20.8553 3.04085ZM20.5018 5.86927C21.1852 5.18585 21.1852 4.07782 20.5018 3.3944C19.8184 2.71098 18.7103 2.71098 18.0269 3.3944L15.0499 6.37142C14.9567 6.46461 14.8763 6.545 14.8047 6.60581C14.7291 6.66999 14.647 6.72689 14.546 6.7597C14.3954 6.80864 14.2331 6.80864 14.0825 6.7597C13.9815 6.72689 13.8994 6.66999 13.8238 6.60581C13.7522 6.545 13.6718 6.46461 13.5786 6.37142L13.5066 6.29945C13.0185 5.8113 12.227 5.8113 11.7389 6.29945C11.2507 6.78761 11.2507 7.57906 11.7389 8.06722L15.9815 12.3099C16.4697 12.798 17.2611 12.798 17.7493 12.3099C18.2374 11.8217 18.2374 11.0302 17.7493 10.5421L17.5248 10.3176C17.4316 10.2244 17.3512 10.144 17.2904 10.0724C17.2262 9.99679 17.1693 9.91467 17.1365 9.8137C17.0875 9.66307 17.0875 9.50081 17.1365 9.35018C17.1693 9.24921 17.2262 9.16709 17.2904 9.09149C17.3512 9.01987 17.4316 8.93948 17.5248 8.8463L20.5018 5.86927ZM6.56194 19.8089L14.6467 11.7238L12.1719 9.24895L4.08704 17.334C3.68493 17.7361 3.41738 18.253 3.32121 18.8135L3.13581 19.8941C3.04828 20.4043 3.49165 20.8477 4.00183 20.7601L5.0824 20.5747C5.64291 20.4786 6.15982 20.211 6.56194 19.8089Z" fill="black"/>
</svg>
