<svg width="24" height="24" viewBox="0 0 24 24" fill="none" xmlns="http://www.w3.org/2000/svg">
<path d="M9.86823 17.6709C9.30299 17.1052 9.39634 16.1635 10.0616 15.7197C10.5643 15.3846 11.2339 15.4509 11.6612 15.8779L11.9659 16.1826C12.4894 16.7057 13.1994 17 13.9395 17H15.9532L13.5811 18.7246C12.6951 19.3688 11.4712 19.2733 10.6964 18.499L9.86823 17.6709Z" fill="black"/>
<path fill-rule="evenodd" clip-rule="evenodd" d="M5.64069 17.4004C5.64069 15.5723 6.69185 13.9901 8.22272 13.2246C8.73863 12.9667 8.9978 12.8373 9.10748 12.7256C9.2274 12.6032 9.26649 12.5377 9.32233 12.376C9.37321 12.2282 9.37408 12.02 9.37408 11.6064V11.2314C7.40633 10.5594 5.99065 8.69527 5.9903 6.5C5.99045 3.73871 8.22897 1.5 10.9903 1.5C13.7516 1.50007 15.9901 3.73875 15.9903 6.5C15.99 8.50447 14.8096 10.2333 13.1065 11.0303V11.3145C13.1072 12.3246 13.9789 13.1155 14.9844 13.0176C17.0893 12.8125 19.0583 11.882 20.5538 10.3867L21.0811 9.85938C21.2674 9.67361 21.5854 9.76365 21.6465 10.0195L22.3506 12.9775C23.2173 16.6195 21.4052 20.3698 18.0128 21.9531C17.2408 22.3133 16.3986 22.5016 15.5469 22.4814C14.0538 22.4461 11.58 22.3434 9.83795 22.0439C7.18555 21.5879 5.64108 19.8188 5.64069 17.4004ZM9.5069 14.8877C8.31659 15.6815 8.14974 17.3661 9.16119 18.3779L9.98932 19.2061C11.1121 20.3282 12.885 20.4677 14.169 19.5342L17.4151 17.1729C17.4575 17.142 17.5111 17.1041 17.5528 17.0693C17.5746 17.0511 17.6946 16.9558 17.7501 16.7959C17.8266 16.5742 17.7661 16.331 17.6026 16.1709L17.5264 16.1084L17.421 16.0508C17.3186 16.0085 17.2277 16.0044 17.2061 16.0029C17.1519 15.9993 17.0858 16 17.0333 16H13.9395C13.4647 16 13.0089 15.8111 12.6729 15.4756L12.3682 15.1709C11.6038 14.4068 10.4062 14.2882 9.5069 14.8877ZM9.2403 5.5C9.24058 5.91397 9.57626 6.25 9.9903 6.25C10.4043 6.24993 10.74 5.91393 10.7403 5.5C10.7403 5.08583 10.4045 4.75007 9.9903 4.75C9.57608 4.75 9.2403 5.08579 9.2403 5.5Z" fill="black"/>
<path d="M1.50006 5.11523C1.50062 4.81278 1.79702 4.59898 2.08405 4.69434L2.52643 4.84277C3.36389 5.12284 4.23823 5.26626 5.1153 5.27148C5.03295 5.66758 4.99033 6.07851 4.9903 6.49902C4.9903 7.3458 5.16504 8.15233 5.48151 8.88281C4.51277 8.68879 3.6005 8.25583 2.83307 7.61426L2.56061 7.38672C1.88827 6.82437 1.50006 5.99177 1.50006 5.11523Z" fill="black"/>
</svg>
