<svg width="24" height="24" viewBox="0 0 24 24" fill="none" xmlns="http://www.w3.org/2000/svg">
<path d="M9.78027 17.7603C9.15895 17.139 9.26138 16.1044 9.99219 15.6167C10.5446 15.2485 11.2806 15.3211 11.75 15.7906L12.0537 16.0943C12.5538 16.5942 13.2323 16.8755 13.9395 16.8755H16.3369L13.6543 18.8267C12.7184 19.5072 11.4258 19.4055 10.6074 18.5874L9.78027 17.7603Z" fill="black"/>
<path fill-rule="evenodd" clip-rule="evenodd" d="M5.64063 17.3999C5.64083 15.572 6.69181 13.9895 8.22266 13.2242C8.73864 12.9662 8.99781 12.8368 9.10742 12.7251C9.22708 12.6029 9.26646 12.5382 9.32227 12.3765C9.37321 12.2287 9.37402 12.0209 9.37402 11.607V11.232C7.40615 10.56 5.99053 8.6959 5.99023 6.50052C5.99031 3.73916 8.22886 1.50052 10.9902 1.50052C13.7516 1.50058 15.9902 3.7392 15.9902 6.50052C15.99 8.50507 14.8096 10.2338 13.1064 11.0308V11.314C13.1067 12.3245 13.9786 13.1151 14.9844 13.0171C17.0892 12.812 19.0582 11.8826 20.5537 10.3872L21.0811 9.85989C21.2673 9.67393 21.5854 9.76395 21.6465 10.0201L22.3506 12.9771C23.2175 16.6192 21.4053 20.3703 18.0127 21.9536C17.2407 22.3139 16.3985 22.5021 15.5469 22.482C14.0537 22.4467 11.5799 22.3439 9.83789 22.0445C7.18533 21.5884 5.64083 19.8186 5.64063 17.3999ZM9.57617 14.9927C8.45156 15.7429 8.29401 17.3346 9.25 18.2906L10.0771 19.1177C11.1565 20.1967 12.8613 20.3307 14.0957 19.4331L17.3418 17.0728C17.3857 17.0408 17.435 17.0046 17.4727 16.9732C17.4961 16.9537 17.5892 16.8783 17.6318 16.7554C17.6923 16.5799 17.644 16.3879 17.5146 16.2613L17.4541 16.2115L17.373 16.1665C17.2928 16.1334 17.2195 16.1299 17.1973 16.1284C17.1483 16.1252 17.0875 16.1255 17.0332 16.1255H13.9395C13.4312 16.1255 12.9434 15.9233 12.584 15.564L12.2803 15.2603C11.558 14.5381 10.426 14.4262 9.57617 14.9927ZM9.36523 5.50052C9.36552 5.84545 9.64524 6.12552 9.99023 6.12552C10.3352 6.12545 10.6149 5.84541 10.6152 5.50052C10.6152 5.15538 10.3354 4.87558 9.99023 4.87552C9.64506 4.87552 9.36523 5.15534 9.36523 5.50052Z" fill="black"/>
<path d="M1.5 5.11575C1.50056 4.8133 1.79696 4.59949 2.08398 4.69486L2.52637 4.84329C3.44556 5.15069 4.40904 5.29406 5.37207 5.27005C5.2858 5.66606 5.24027 6.07768 5.24023 6.49954C5.24023 7.37003 5.43404 8.1956 5.78027 8.93509C4.70061 8.77559 3.67891 8.32195 2.83301 7.61478L2.56055 7.38724C1.88821 6.82489 1.5 5.99229 1.5 5.11575Z" fill="black"/>
</svg>
