<svg width="24" height="24" viewBox="0 0 24 24" fill="none" xmlns="http://www.w3.org/2000/svg">
<path d="M9.78027 17.7598C9.15895 17.1384 9.26138 16.1039 9.99219 15.6162C10.5446 15.248 11.2806 15.3206 11.75 15.79L12.0537 16.0938C12.5538 16.5937 13.2323 16.875 13.9395 16.875H16.3369L13.6543 18.8262C12.7184 19.5066 11.4258 19.405 10.6074 18.5869L9.78027 17.7598Z" fill="black"/>
<path fill-rule="evenodd" clip-rule="evenodd" d="M5.64063 17.3994C5.64083 15.5715 6.69181 13.989 8.22266 13.2236C8.73864 12.9657 8.99781 12.8363 9.10742 12.7246C9.22708 12.6024 9.26646 12.5376 9.32227 12.376C9.37321 12.2282 9.37402 12.0204 9.37402 11.6064V11.2314C7.40615 10.5594 5.99053 8.69538 5.99023 6.5C5.99031 3.73864 8.22886 1.5 10.9902 1.5C13.7516 1.50007 15.9902 3.73868 15.9902 6.5C15.99 8.50455 14.8096 10.2333 13.1064 11.0303V11.3135C13.1067 12.324 13.9786 13.1145 14.9844 13.0166C17.0892 12.8115 19.0582 11.8821 20.5537 10.3867L21.0811 9.85938C21.2673 9.67341 21.5854 9.76343 21.6465 10.0195L22.3506 12.9766C23.2175 16.6187 21.4053 20.3698 18.0127 21.9531C17.2407 22.3134 16.3985 22.5016 15.5469 22.4814C14.0537 22.4461 11.5799 22.3434 9.83789 22.0439C7.18533 21.5879 5.64083 19.8181 5.64063 17.3994ZM9.57617 14.9922C8.45156 15.7424 8.29401 17.334 9.25 18.29L10.0771 19.1172C11.1565 20.1962 12.8613 20.3302 14.0957 19.4326L17.3418 17.0723C17.3857 17.0403 17.435 17.0041 17.4727 16.9727C17.4961 16.9531 17.5892 16.8777 17.6318 16.7549C17.6923 16.5794 17.644 16.3874 17.5146 16.2607L17.4541 16.2109L17.373 16.166C17.2928 16.1329 17.2195 16.1294 17.1973 16.1279C17.1483 16.1246 17.0875 16.125 17.0332 16.125H13.9395C13.4312 16.125 12.9434 15.9227 12.584 15.5635L12.2803 15.2598C11.558 14.5375 10.426 14.4257 9.57617 14.9922ZM9.36523 5.5C9.36552 5.84493 9.64524 6.125 9.99023 6.125C10.3352 6.12493 10.6149 5.84489 10.6152 5.5C10.6152 5.15486 10.3354 4.87507 9.99023 4.875C9.64506 4.875 9.36523 5.15482 9.36523 5.5Z" fill="black"/>
<path d="M1.5 5.11523C1.50056 4.81278 1.79696 4.59898 2.08398 4.69434L2.52637 4.84277C3.44556 5.15017 4.40904 5.29354 5.37207 5.26953C5.2858 5.66554 5.24027 6.07716 5.24023 6.49902C5.24023 7.36951 5.43404 8.19508 5.78027 8.93457C4.70061 8.77507 3.67891 8.32143 2.83301 7.61426L2.56055 7.38672C1.88821 6.82437 1.5 5.99177 1.5 5.11523Z" fill="black"/>
</svg>
