<svg width="24" height="24" viewBox="0 0 24 24" fill="none" xmlns="http://www.w3.org/2000/svg">
<path d="M9.86817 17.6714C9.30293 17.1058 9.39627 16.164 10.0615 15.7202C10.5642 15.3852 11.2338 15.4515 11.6611 15.8784L11.9658 16.1831C12.4893 16.7062 13.1994 17.0005 13.9395 17.0005H15.9531L13.5811 18.7251C12.695 19.3693 11.4712 19.2738 10.6963 18.4995L9.86817 17.6714Z" fill="black"/>
<path fill-rule="evenodd" clip-rule="evenodd" d="M5.64063 17.4009C5.64063 15.5728 6.69179 13.9906 8.22266 13.2251C8.73857 12.9672 8.99774 12.8378 9.10742 12.7261C9.22734 12.6037 9.26643 12.5382 9.32227 12.3765C9.37314 12.2287 9.37402 12.0205 9.37402 11.607V11.232C7.40627 10.5599 5.99059 8.69579 5.99023 6.50052C5.99039 3.73923 8.22891 1.50052 10.9902 1.50052C13.7515 1.50058 15.9901 3.73927 15.9902 6.50052C15.9899 8.50499 14.8095 10.2338 13.1064 11.0308V11.315C13.1071 12.3251 13.9788 13.116 14.9844 13.0181C17.0892 12.813 19.0582 11.8826 20.5537 10.3872L21.0811 9.85989C21.2673 9.67413 21.5853 9.76417 21.6465 10.0201L22.3506 12.9781C23.2172 16.62 21.4051 20.3704 18.0127 21.9536C17.2407 22.3139 16.3985 22.5021 15.5469 22.482C14.0537 22.4467 11.5799 22.3439 9.83789 22.0445C7.18549 21.5884 5.64102 19.8193 5.64063 17.4009ZM9.50684 14.8882C8.31652 15.682 8.14968 17.3666 9.16113 18.3784L9.98926 19.2066C11.112 20.3287 12.885 20.4682 14.1689 19.5347L17.415 17.1734C17.4574 17.1425 17.5111 17.1046 17.5527 17.0699C17.5745 17.0517 17.6946 16.9563 17.75 16.7964C17.8266 16.5747 17.766 16.3315 17.6025 16.1714L17.5264 16.1089L17.4209 16.0513C17.3185 16.009 17.2276 16.0049 17.2061 16.0034C17.1518 15.9998 17.0857 16.0005 17.0332 16.0005H13.9395C13.4646 16.0005 13.0088 15.8117 12.6729 15.4761L12.3682 15.1714C11.6038 14.4074 10.4061 14.2887 9.50684 14.8882ZM9.24023 5.50052C9.24052 5.91449 9.5762 6.25052 9.99023 6.25052C10.4042 6.25045 10.7399 5.91445 10.7402 5.50052C10.7402 5.08635 10.4044 4.75058 9.99023 4.75052C9.57602 4.75052 9.24023 5.08631 9.24023 5.50052Z" fill="black"/>
<path d="M1.5 5.11575C1.50056 4.8133 1.79696 4.59949 2.08398 4.69486L2.52637 4.84329C3.36383 5.12336 4.23817 5.26678 5.11523 5.272C5.03289 5.6681 4.99027 6.07903 4.99023 6.49954C4.99023 7.34632 5.16497 8.15285 5.48145 8.88333C4.51271 8.68931 3.60044 8.25635 2.83301 7.61478L2.56055 7.38724C1.88821 6.82489 1.5 5.99229 1.5 5.11575Z" fill="black"/>
</svg>
