<svg width="24" height="24" viewBox="0 0 24 24" fill="none" xmlns="http://www.w3.org/2000/svg">
<path fill-rule="evenodd" clip-rule="evenodd" d="M9.16113 18.3781C8.14962 17.3662 8.31634 15.6816 9.50684 14.8879C10.4061 14.2883 11.6038 14.407 12.3682 15.1711L12.6729 15.4758C13.0088 15.8114 13.4645 16.0001 13.9395 16.0002H17.0332C17.0857 16.0002 17.1518 15.9995 17.2061 16.0031C17.2276 16.0045 17.3184 16.0087 17.4209 16.051L17.5264 16.1086L17.6025 16.1711C17.7662 16.3311 17.8266 16.5743 17.75 16.7961C17.6946 16.9563 17.5744 17.0514 17.5527 17.0695C17.511 17.1044 17.4575 17.1422 17.415 17.173L14.1689 19.5344C12.8849 20.4681 11.1121 20.3286 9.98926 19.2062L9.16113 18.3781ZM10.0615 15.7199C9.39609 16.1636 9.30287 17.1054 9.86817 17.6711L10.6963 18.4992C11.4712 19.2737 12.6949 19.3692 13.5811 18.7248L15.9531 17.0002H13.9395C13.1993 17.0001 12.4893 16.706 11.9658 16.1828L11.6611 15.8781C11.2338 15.4511 10.5642 15.3848 10.0615 15.7199Z" fill="black"/>
<path d="M9.49023 5.50018C9.49023 5.22404 9.71409 5.00018 9.99023 5.00018C10.2663 5.00025 10.4902 5.22408 10.4902 5.50018C10.4901 5.77619 10.2663 6.00012 9.99023 6.00018C9.71416 6.00018 9.49035 5.77623 9.49023 5.50018Z" fill="black"/>
<path fill-rule="evenodd" clip-rule="evenodd" d="M1 5.11639C1.00026 4.472 1.63195 4.01765 2.24316 4.22186L2.68555 4.36932C3.68237 4.70264 4.73408 4.82783 5.77734 4.7453C6.51 2.56848 8.56646 1.00018 10.9902 1.00018L11.2734 1.00702C14.0856 1.14969 16.3408 3.40485 16.4834 6.21698L16.4902 6.50018C16.4902 8.59053 15.3226 10.4049 13.6074 11.3351C13.6196 12.0399 14.2304 12.5872 14.9355 12.5187C16.9253 12.3249 18.7867 11.4469 20.2002 10.0334L20.7275 9.50604L20.8184 9.42694C21.2871 9.07318 21.9905 9.30703 22.1328 9.9035L22.8369 12.8605C23.759 16.7335 21.8323 20.7226 18.2246 22.4064C17.387 22.7973 16.4685 23.0037 15.5352 22.9816C14.0426 22.9463 11.5352 22.8437 9.75293 22.5373C8.33588 22.2936 7.1777 21.6911 6.37207 20.7912C5.56442 19.889 5.14063 18.7197 5.14063 17.3996L5.1543 17.0236C5.28846 15.1597 6.41094 13.5705 7.99902 12.7766C8.26115 12.6455 8.44479 12.5543 8.57715 12.4816C8.70721 12.4102 8.74577 12.3785 8.75 12.3752C8.79965 12.3245 8.80938 12.308 8.8125 12.3029C8.81595 12.2973 8.82624 12.2808 8.84961 12.2131C8.85261 12.2043 8.8625 12.1698 8.86816 12.0646C8.87384 11.959 8.87402 11.8187 8.87402 11.6066V11.5754C7.84748 11.1469 6.97933 10.4159 6.37891 9.49432C4.9634 9.43475 3.60349 8.91013 2.5127 7.99823L2.24023 7.77069C1.45433 7.11338 1.00006 6.14096 1 5.11639ZM6.14063 17.3996C6.14063 18.4983 6.48944 19.4229 7.11719 20.1242C7.74697 20.8277 8.68729 21.3385 9.92285 21.551C11.6246 21.8435 14.0648 21.9463 15.5586 21.9816C16.3286 21.9998 17.0944 21.8298 17.8008 21.5002C20.9783 20.0172 22.6763 16.5043 21.8643 13.093L21.2275 10.4201L20.9072 10.7404C19.3298 12.3179 17.2533 13.2984 15.0332 13.5148C13.7336 13.6414 12.6064 12.62 12.6064 11.3137V10.7121L12.8945 10.5773C14.4287 9.85939 15.4902 8.30354 15.4902 6.50018C15.4902 4.01494 13.4755 2.00024 10.9902 2.00018L10.7588 2.00604C8.45773 2.12262 6.61268 3.96768 6.49609 6.26874L6.49023 6.50018C6.49032 8.47502 7.76341 10.1527 9.53516 10.758L9.87402 10.8742V11.6066C9.87402 11.8089 9.87366 11.9798 9.86621 12.1183C9.85876 12.2569 9.84293 12.4 9.79492 12.5392C9.76267 12.6327 9.72512 12.7296 9.66504 12.8273C9.60475 12.9254 9.53493 13.0028 9.46484 13.0744C9.3532 13.1884 9.20136 13.2792 9.05859 13.3576C8.9051 13.4419 8.7005 13.544 8.44629 13.6711C7.07821 14.355 6.14077 15.7681 6.14063 17.3996ZM2.00391 5.1955C2.02634 5.89486 2.34313 6.55365 2.88184 7.00409L3.1543 7.23163C3.92631 7.87695 4.85788 8.29199 5.84277 8.43964C5.61519 7.83666 5.49026 7.1832 5.49023 6.50018L5.49707 6.21698C5.50482 6.06415 5.52006 5.91314 5.54004 5.76385C4.46741 5.80939 3.39201 5.65993 2.36816 5.31757L2.00391 5.1955Z" fill="black"/>
</svg>
