<svg width="24" height="24" viewBox="0 0 24 24" fill="none" xmlns="http://www.w3.org/2000/svg">
<path fill-rule="evenodd" clip-rule="evenodd" d="M8.80762 18.7312C7.5731 17.4961 7.77648 15.4401 9.22949 14.4714C10.3271 13.7398 11.7888 13.8846 12.7217 14.8171L13.0264 15.1208C13.2686 15.3631 13.5968 15.4997 13.9395 15.4997H17.0332C17.0781 15.4997 17.1642 15.4996 17.2393 15.5046C17.2599 15.506 17.4799 15.5115 17.7119 15.6364L17.8125 15.698L17.8848 15.7527C18.235 16.0427 18.373 16.5229 18.2227 16.9587C18.1177 17.2624 17.8934 17.4351 17.873 17.4519C17.8153 17.5001 17.7454 17.5504 17.709 17.5769L14.4629 19.9382C12.9798 21.0166 10.9325 20.8558 9.63574 19.5593L8.80762 18.7312ZM10.3389 16.1355C9.93599 16.4041 9.8796 16.9745 10.2217 17.3171L11.0498 18.1452C11.6508 18.7459 12.5999 18.8198 13.2871 18.32L14.415 17.4997H13.9395C13.0664 17.4997 12.2287 17.1532 11.6113 16.5359L11.3076 16.2312C11.0489 15.9728 10.6432 15.9327 10.3389 16.1355Z" fill="black"/>
<path d="M8.99023 5.49973C8.99038 4.94757 9.43804 4.49973 9.99023 4.49973C10.5424 4.49979 10.9901 4.94761 10.9902 5.49973C10.9902 6.05197 10.5425 6.49966 9.99023 6.49973C9.43795 6.49973 8.99023 6.05201 8.99023 5.49973Z" fill="black"/>
<path fill-rule="evenodd" clip-rule="evenodd" d="M0.5 5.11594C0.500421 4.19181 1.35001 3.52246 2.22656 3.69992L2.40234 3.7468L2.84375 3.89523C3.67531 4.17329 4.54841 4.29688 5.41992 4.26633C6.30598 2.05895 8.46607 0.499726 10.9902 0.499725L11.2988 0.507538C14.4689 0.668183 16.99 3.28976 16.9902 6.49972C16.9901 8.64932 15.8574 10.5298 14.1621 11.5886C14.279 11.8661 14.5667 12.0525 14.8877 12.0212C16.7621 11.8385 18.5152 11.0109 19.8467 9.67941L20.374 9.15207L20.5186 9.02609C21.2675 8.46047 22.3919 8.83459 22.6191 9.78781L23.3232 12.7448C24.3003 16.8486 22.2584 21.0749 18.4355 22.8591C17.5325 23.2805 16.5383 23.5051 15.5234 23.4812C14.0315 23.4459 11.4904 23.3423 9.66797 23.029C8.16025 22.7697 6.89254 22.1228 5.99902 21.1247C5.10153 20.122 4.64063 18.8299 4.64063 17.3991L4.65527 16.9861C4.80285 14.9418 6.03489 13.199 7.77539 12.3288C8.04116 12.196 8.21419 12.1095 8.33594 12.0427C8.3481 12.036 8.35926 12.0287 8.36914 12.0232C8.37077 11.9879 8.36944 11.9466 8.37012 11.8972C7.46304 11.4562 6.68468 10.7927 6.10352 9.97824C4.67039 9.86514 3.30222 9.30933 2.19238 8.38156L1.91992 8.15402C1.02029 7.40167 0.5 6.28872 0.5 5.11594ZM6.64063 17.3991C6.64063 18.387 6.95157 19.19 7.48926 19.7907C8.0311 20.396 8.86301 20.8615 10.0078 21.0583C11.6693 21.3439 14.0759 21.4458 15.5703 21.4812C16.2588 21.4974 16.9489 21.3457 17.5898 21.0466C20.5523 19.6639 22.1352 16.3884 21.3779 13.2077L20.9453 11.3952C19.3291 12.8778 17.2714 13.798 15.0811 14.0114C13.488 14.1665 12.1064 12.9151 12.1064 11.3132V10.3943L12.6826 10.1247C14.0477 9.48587 14.9902 8.10164 14.9902 6.49973C14.99 4.29084 13.1992 2.49978 10.9902 2.49973L10.7842 2.50461C8.7392 2.60837 7.09912 4.24875 6.99512 6.29367L6.99023 6.49973C6.99032 8.25419 8.12127 9.74668 9.69727 10.2849L10.374 10.5163V11.6062C10.374 11.8032 10.3745 11.9895 10.3662 12.1443C10.3579 12.2993 10.338 12.4974 10.2676 12.7019C10.231 12.8078 10.1791 12.9449 10.0908 13.0886C10.0021 13.2328 9.90255 13.3415 9.82227 13.4236C9.65369 13.5956 9.44158 13.7172 9.29883 13.7956C9.13485 13.8857 8.91994 13.9929 8.66992 14.1179C7.46488 14.7203 6.64096 15.9644 6.64063 17.3991ZM2.67969 5.93332C2.79975 6.19487 2.97706 6.43076 3.20312 6.61984L3.47461 6.84738C3.96411 7.2566 4.5242 7.56529 5.12207 7.75949C5.03534 7.35355 4.99025 6.93173 4.99023 6.49973L4.99609 6.2673C4.21466 6.2536 3.43624 6.14271 2.67969 5.93332Z" fill="black"/>
</svg>
