<svg width="24" height="24" viewBox="0 0 24 24" fill="none" xmlns="http://www.w3.org/2000/svg">
<path d="M10.5449 17.4932C10.0914 17.039 10.1661 16.2829 10.7002 15.9268C11.1036 15.658 11.6414 15.7112 11.9844 16.0537L12.2891 16.3584C12.8595 16.9286 13.6329 17.249 14.4395 17.249H15.6836L13.9336 18.5215C13.1469 19.0936 12.061 19.0089 11.373 18.3213L10.5449 17.4932Z" fill="black"/>
<path fill-rule="evenodd" clip-rule="evenodd" d="M6.14063 17.3994C6.14079 15.5714 7.1917 13.989 8.72266 13.2236C9.23894 12.9655 9.49788 12.8363 9.60742 12.7246C9.72721 12.6023 9.76641 12.5378 9.82227 12.376C9.87326 12.2281 9.87402 12.0206 9.87402 11.6064V11.2314C7.90611 10.5594 6.49047 8.69544 6.49023 6.5C6.49025 3.73859 8.72882 1.5 11.4902 1.5C14.2516 1.50007 16.4902 3.73863 16.4902 6.5C16.49 8.50466 15.3097 10.2333 13.6064 11.0303V11.3135C13.6066 12.3241 14.4785 13.1146 15.4844 13.0166C17.5893 12.8115 19.5582 11.8822 21.0537 10.3867L21.5811 9.85938C21.7674 9.67324 22.0855 9.76331 22.1465 10.0195L22.8506 12.9766C23.7176 16.6188 21.9054 20.3698 18.5127 21.9531C17.7407 22.3134 16.8986 22.5016 16.0469 22.4814C14.5537 22.4461 12.0799 22.3434 10.3379 22.0439C7.68528 21.5878 6.14077 19.8181 6.14063 17.3994ZM9.86816 14.6787C8.54645 15.5599 8.36151 17.4302 9.48438 18.5537L10.3125 19.3818C11.5224 20.5914 13.4328 20.7416 14.8164 19.7354L18.0625 17.374C18.1019 17.3454 18.1634 17.3011 18.2129 17.2598C18.2343 17.242 18.4063 17.1084 18.4863 16.877C18.5948 16.5627 18.5092 16.2179 18.2773 15.9912L18.1689 15.9023L18.0928 15.8555C17.9154 15.7599 17.7454 15.7545 17.7227 15.7529C17.658 15.7486 17.5819 15.749 17.5332 15.749H14.4395C14.0307 15.749 13.6387 15.5867 13.3496 15.2979L13.0449 14.9932C12.1963 14.1451 10.8665 14.0133 9.86816 14.6787ZM9.49023 5.49902C9.49023 6.05131 9.93795 6.49902 10.4902 6.49902C11.0425 6.49896 11.4902 6.05127 11.4902 5.49902C11.49 4.94699 11.0423 4.49909 10.4902 4.49902C9.9381 4.49902 9.49049 4.94695 9.49023 5.49902Z" fill="black"/>
<path d="M1 5.11621C1.00026 4.8134 1.29672 4.59965 1.58398 4.69531L2.02637 4.84375C3.02107 5.1764 4.06745 5.3165 5.10938 5.26074C5.03196 5.66183 4.99023 6.07631 4.99023 6.5C4.9903 7.37054 5.16213 8.20119 5.47266 8.95996C4.32211 8.82824 3.22899 8.36425 2.33301 7.61523L2.06055 7.3877C1.38807 6.82544 1.00014 5.99275 1 5.11621Z" fill="black"/>
</svg>
