<svg width="24" height="24" viewBox="0 0 24 24" fill="none" xmlns="http://www.w3.org/2000/svg">
<path d="M9.86817 17.6709C9.30293 17.1052 9.39627 16.1635 10.0615 15.7197C10.5642 15.3846 11.2338 15.4509 11.6611 15.8779L11.9658 16.1826C12.4893 16.7057 13.1994 17 13.9395 17H15.9531L13.5811 18.7246C12.695 19.3688 11.4712 19.2733 10.6963 18.499L9.86817 17.6709Z" fill="black"/>
<path fill-rule="evenodd" clip-rule="evenodd" d="M5.64063 17.4004C5.64063 15.5723 6.69179 13.9901 8.22266 13.2246C8.73857 12.9667 8.99774 12.8373 9.10742 12.7256C9.22734 12.6032 9.26643 12.5377 9.32227 12.376C9.37314 12.2282 9.37402 12.02 9.37402 11.6064V11.2314C7.40627 10.5594 5.99059 8.69527 5.99023 6.5C5.99039 3.73871 8.22891 1.5 10.9902 1.5C13.7515 1.50007 15.9901 3.73875 15.9902 6.5C15.9899 8.50447 14.8095 10.2333 13.1064 11.0303V11.3145C13.1071 12.3246 13.9788 13.1155 14.9844 13.0176C17.0892 12.8125 19.0582 11.882 20.5537 10.3867L21.0811 9.85938C21.2673 9.67361 21.5853 9.76365 21.6465 10.0195L22.3506 12.9775C23.2172 16.6195 21.4051 20.3698 18.0127 21.9531C17.2407 22.3133 16.3985 22.5016 15.5469 22.4814C14.0537 22.4461 11.5799 22.3434 9.83789 22.0439C7.18549 21.5879 5.64102 19.8188 5.64063 17.4004ZM9.50684 14.8877C8.31652 15.6815 8.14968 17.3661 9.16113 18.3779L9.98926 19.2061C11.112 20.3282 12.885 20.4677 14.1689 19.5342L17.415 17.1729C17.4574 17.142 17.5111 17.1041 17.5527 17.0693C17.5745 17.0511 17.6946 16.9558 17.75 16.7959C17.8266 16.5742 17.766 16.331 17.6025 16.1709L17.5264 16.1084L17.4209 16.0508C17.3185 16.0085 17.2276 16.0044 17.2061 16.0029C17.1518 15.9993 17.0857 16 17.0332 16H13.9395C13.4646 16 13.0088 15.8111 12.6729 15.4756L12.3682 15.1709C11.6038 14.4068 10.4061 14.2882 9.50684 14.8877ZM9.24023 5.5C9.24052 5.91397 9.5762 6.25 9.99023 6.25C10.4042 6.24993 10.7399 5.91393 10.7402 5.5C10.7402 5.08583 10.4044 4.75007 9.99023 4.75C9.57602 4.75 9.24023 5.08579 9.24023 5.5Z" fill="black"/>
<path d="M1.5 5.11523C1.50056 4.81278 1.79696 4.59898 2.08398 4.69434L2.52637 4.84277C3.36383 5.12284 4.23817 5.26626 5.11523 5.27148C5.03289 5.66758 4.99027 6.07851 4.99023 6.49902C4.99023 7.3458 5.16497 8.15233 5.48145 8.88281C4.51271 8.68879 3.60044 8.25583 2.83301 7.61426L2.56055 7.38672C1.88821 6.82437 1.5 5.99177 1.5 5.11523Z" fill="black"/>
</svg>
