<svg width="24" height="24" viewBox="0 0 24 24" fill="none" xmlns="http://www.w3.org/2000/svg">
<path d="M9.69141 17.8477C9.01479 17.1704 9.1264 16.043 9.92285 15.5117C10.5246 15.1107 11.3264 15.1901 11.8379 15.7012L12.1426 16.0059C12.6192 16.4821 13.2656 16.75 13.9395 16.75H16.7207L13.7275 18.9268C12.742 19.6434 11.3814 19.5371 10.5195 18.6758L9.69141 17.8477Z" fill="black"/>
<path fill-rule="evenodd" clip-rule="evenodd" d="M5.64063 17.4004C5.64068 15.5724 6.69181 13.9901 8.22266 13.2246C8.73864 12.9667 8.99781 12.8373 9.10742 12.7256C9.22731 12.6032 9.2664 12.5378 9.32227 12.376C9.37311 12.2282 9.37402 12.0201 9.37402 11.6064V11.2314C7.40617 10.5594 5.99044 8.69542 5.99023 6.5C5.99046 3.73877 8.22895 1.5 10.9902 1.5C13.7515 1.50007 15.99 3.73881 15.9902 6.5C15.99 8.50456 14.8095 10.2332 13.1064 11.0303V11.3145C13.1069 12.3248 13.9787 13.1155 14.9844 13.0176C17.0893 12.8125 19.0582 11.8821 20.5537 10.3867L21.0811 9.85938C21.2673 9.6738 21.5853 9.76378 21.6465 10.0195L22.3506 12.9775C23.2174 16.6195 21.4051 20.3697 18.0127 21.9531C17.2407 22.3134 16.3985 22.5016 15.5469 22.4814C14.0537 22.4461 11.5799 22.3434 9.83789 22.0439C7.18537 21.5879 5.64088 19.819 5.64063 17.4004ZM9.64551 15.0957C8.58652 15.802 8.43817 17.3008 9.33789 18.2012L10.166 19.0293C11.2017 20.0645 12.837 20.193 14.0215 19.332L17.2676 16.9707C17.3129 16.9378 17.3581 16.9049 17.3916 16.877C17.4155 16.857 17.4835 16.8008 17.5137 16.7139C17.5642 16.5663 17.5107 16.4019 17.3828 16.3125C17.3074 16.2601 17.2206 16.255 17.1895 16.2529C17.1457 16.25 17.0895 16.25 17.0332 16.25H13.9395C13.3982 16.25 12.8789 16.0348 12.4961 15.6523L12.1914 15.3477C11.5113 14.6681 10.4456 14.5625 9.64551 15.0957ZM9.49023 5.5C9.4905 5.77592 9.71425 6 9.99023 6C10.2662 5.99993 10.49 5.77588 10.4902 5.5C10.49 5.2241 10.2662 5.00007 9.99023 5C9.71424 5 9.49047 5.22406 9.49023 5.5Z" fill="black"/>
<path d="M1.5 5.11621C1.50026 4.81346 1.79677 4.59978 2.08398 4.69531L2.52637 4.84375C3.52823 5.1788 4.58256 5.31782 5.63184 5.25879C5.5398 5.65774 5.49023 6.07309 5.49023 6.5C5.49024 7.38933 5.70138 8.22929 6.07617 8.97266C4.88769 8.85759 3.75588 8.38675 2.83301 7.61523L2.56055 7.3877C1.88806 6.82535 1.50001 5.99284 1.5 5.11621Z" fill="black"/>
</svg>
