<svg width="24" height="24" viewBox="0 0 24 24" fill="none" xmlns="http://www.w3.org/2000/svg">
<path fill-rule="evenodd" clip-rule="evenodd" d="M9.16113 18.3779C8.14962 17.366 8.31634 15.6814 9.50684 14.8877C10.4061 14.2882 11.6038 14.4068 12.3682 15.1709L12.6729 15.4756C13.0088 15.8113 13.4645 16 13.9395 16H17.0332C17.0857 16 17.1518 15.9993 17.2061 16.0029C17.2276 16.0044 17.3184 16.0085 17.4209 16.0508L17.5264 16.1084L17.6025 16.1709C17.7662 16.331 17.8266 16.5741 17.75 16.7959C17.6946 16.9561 17.5744 17.0512 17.5527 17.0693C17.511 17.1042 17.4575 17.142 17.415 17.1729L14.1689 19.5342C12.8849 20.4679 11.1121 20.3284 9.98926 19.2061L9.16113 18.3779ZM10.0615 15.7197C9.39609 16.1634 9.30287 17.1052 9.86817 17.6709L10.6963 18.499C11.4712 19.2735 12.6949 19.369 13.5811 18.7246L15.9531 17H13.9395C13.1993 17 12.4893 16.7058 11.9658 16.1826L11.6611 15.8779C11.2338 15.4509 10.5642 15.3846 10.0615 15.7197Z" fill="black"/>
<path d="M9.49023 5.5C9.49023 5.22386 9.71409 5 9.99023 5C10.2663 5.00007 10.4902 5.2239 10.4902 5.5C10.4901 5.77601 10.2663 5.99993 9.99023 6C9.71416 6 9.49035 5.77605 9.49023 5.5Z" fill="black"/>
<path fill-rule="evenodd" clip-rule="evenodd" d="M1 5.11621C1.00026 4.47181 1.63195 4.01747 2.24316 4.22168L2.68555 4.36914C3.68237 4.70246 4.73408 4.82765 5.77734 4.74512C6.51 2.5683 8.56646 1 10.9902 1L11.2734 1.00684C14.0856 1.14951 16.3408 3.40466 16.4834 6.2168L16.4902 6.5C16.4902 8.59034 15.3226 10.4048 13.6074 11.335C13.6196 12.0397 14.2304 12.5871 14.9355 12.5186C16.9253 12.3247 18.7867 11.4467 20.2002 10.0332L20.7275 9.50586L20.8184 9.42676C21.2871 9.073 21.9905 9.30684 22.1328 9.90332L22.8369 12.8604C23.759 16.7333 21.8323 20.7224 18.2246 22.4062C17.387 22.7971 16.4685 23.0035 15.5352 22.9814C14.0426 22.9462 11.5352 22.8435 9.75293 22.5371C8.33588 22.2934 7.1777 21.6909 6.37207 20.791C5.56442 19.8888 5.14063 18.7196 5.14063 17.3994L5.1543 17.0234C5.28846 15.1595 6.41094 13.5703 7.99902 12.7764C8.26115 12.6453 8.44479 12.5541 8.57715 12.4814C8.70721 12.41 8.74577 12.3783 8.75 12.375C8.79965 12.3243 8.80938 12.3078 8.8125 12.3027C8.81595 12.2971 8.82624 12.2806 8.84961 12.2129C8.85261 12.2042 8.8625 12.1696 8.86816 12.0645C8.87384 11.9588 8.87402 11.8186 8.87402 11.6064V11.5752C7.84748 11.1468 6.97933 10.4157 6.37891 9.49414C4.9634 9.43456 3.60349 8.90995 2.5127 7.99805L2.24023 7.77051C1.45433 7.1132 1.00006 6.14078 1 5.11621ZM6.14063 17.3994C6.14063 18.4981 6.48944 19.4228 7.11719 20.124C7.74697 20.8275 8.68729 21.3383 9.92285 21.5508C11.6246 21.8433 14.0648 21.9461 15.5586 21.9814C16.3286 21.9996 17.0944 21.8296 17.8008 21.5C20.9783 20.017 22.6763 16.5041 21.8643 13.0928L21.2275 10.4199L20.9072 10.7402C19.3298 12.3177 17.2533 13.2983 15.0332 13.5146C13.7336 13.6412 12.6064 12.6198 12.6064 11.3135V10.7119L12.8945 10.5771C14.4287 9.8592 15.4902 8.30335 15.4902 6.5C15.4902 4.01475 13.4755 2.00005 10.9902 2L10.7588 2.00586C8.45773 2.12244 6.61268 3.96749 6.49609 6.26855L6.49023 6.5C6.49032 8.47484 7.76341 10.1525 9.53516 10.7578L9.87402 10.874V11.6064C9.87402 11.8087 9.87366 11.9796 9.86621 12.1182C9.85876 12.2567 9.84293 12.3999 9.79492 12.5391C9.76267 12.6325 9.72512 12.7294 9.66504 12.8271C9.60475 12.9252 9.53493 13.0026 9.46484 13.0742C9.3532 13.1882 9.20136 13.279 9.05859 13.3574C8.9051 13.4417 8.7005 13.5438 8.44629 13.6709C7.07821 14.3548 6.14077 15.7679 6.14063 17.3994ZM2.00391 5.19531C2.02634 5.89467 2.34313 6.55347 2.88184 7.00391L3.1543 7.23145C3.92631 7.87677 4.85788 8.29181 5.84277 8.43945C5.61519 7.83648 5.49026 7.18302 5.49023 6.5L5.49707 6.2168C5.50482 6.06397 5.52006 5.91296 5.54004 5.76367C4.46741 5.80921 3.39201 5.65974 2.36816 5.31738L2.00391 5.19531Z" fill="black"/>
</svg>
