<svg width="24" height="24" viewBox="0 0 24 24" fill="none" xmlns="http://www.w3.org/2000/svg">
<path fill-rule="evenodd" clip-rule="evenodd" d="M8.63086 18.9081C7.28468 17.5615 7.50651 15.3199 9.09082 14.2636C10.2876 13.4658 11.8813 13.6237 12.8984 14.6406L13.2031 14.9443C13.3985 15.1396 13.6632 15.2499 13.9395 15.2499H17.0332C17.0743 15.2499 17.1712 15.249 17.2568 15.2548C17.2787 15.2561 17.5471 15.2632 17.832 15.4169L17.9551 15.4931L18.0449 15.5605C18.4747 15.9166 18.6438 16.5061 18.459 17.041C18.3284 17.4186 18.0499 17.6306 18.0332 17.6445C17.9676 17.6993 17.8899 17.7549 17.8564 17.7792L14.6104 20.1406C13.0278 21.2915 10.8428 21.1198 9.45899 19.7363L8.63086 18.9081ZM10.4775 16.3437C10.2059 16.5249 10.1678 16.9095 10.3984 17.1406L11.2266 17.9687C11.7405 18.4824 12.5519 18.5455 13.1396 18.1181L13.6621 17.7372C12.8243 17.6714 12.0331 17.3113 11.4346 16.7128L11.1309 16.4081C10.9564 16.234 10.6828 16.2069 10.4775 16.3437Z" fill="black"/>
<path d="M8.74023 5.49994C8.74027 4.80961 9.2999 4.24994 9.99023 4.24994C10.6805 4.25 11.2402 4.80966 11.2402 5.49994C11.2402 6.19025 10.6805 6.74987 9.99023 6.74994C9.29988 6.74994 8.74023 6.19029 8.74023 5.49994Z" fill="black"/>
<path fill-rule="evenodd" clip-rule="evenodd" d="M0.25 5.11615C0.250288 4.03184 1.24696 3.2468 2.27539 3.45502L2.48145 3.50971L2.92383 3.65814C3.67658 3.90979 4.46426 4.02928 5.25293 4.01947C6.21309 1.80191 8.41994 0.249939 10.9902 0.249939L11.3115 0.257751C14.5075 0.419648 17.0705 2.98281 17.2324 6.17865L17.2402 6.49994C17.2402 8.64648 16.1572 10.5369 14.5127 11.6611C14.6049 11.7421 14.7301 11.7863 14.8633 11.7734C16.6798 11.5964 18.3791 10.7936 19.6699 9.50287L20.1982 8.97455C21.0758 8.09928 22.5738 8.52283 22.8623 9.72845V9.73041L23.5664 12.6884C24.5706 16.9075 22.4711 21.2517 18.541 23.0859C17.6053 23.5225 16.5732 23.7563 15.5176 23.7314C14.026 23.6961 11.4685 23.5921 9.62598 23.2753C8.07302 23.0083 6.75106 22.3389 5.81348 21.2919C4.87081 20.2392 4.3907 18.8865 4.39063 17.4003L4.39453 17.1835C4.47476 14.9562 5.78665 13.0451 7.66406 12.1064C7.77624 12.0503 7.86962 12.0006 7.9502 11.9599C7.17227 11.526 6.49806 10.9292 5.96973 10.2177C4.52643 10.0808 3.15155 9.51073 2.03125 8.57416L1.75977 8.34662C0.803199 7.54676 0.25 6.36307 0.25 5.11615ZM6.89063 17.4003C6.89069 18.3328 7.18317 19.0738 7.67578 19.624C8.1736 20.1798 8.95036 20.6234 10.0498 20.8124C11.6912 21.0946 14.0814 21.196 15.5762 21.2314C16.2239 21.2467 16.8762 21.1041 17.4844 20.8203C20.3392 19.4877 21.8643 16.3315 21.1348 13.2665L20.7988 11.8574C19.1945 13.2137 17.21 14.0566 15.1055 14.2617C13.3654 14.4311 11.8569 13.0634 11.8564 11.3144V10.2353L12.5762 9.89838C13.8569 9.29905 14.7401 8.00109 14.7402 6.49994L14.7354 6.30658C14.6346 4.32544 12.9962 2.74999 10.9902 2.74994L10.7969 2.75482C8.81585 2.85546 7.24038 4.49377 7.24023 6.49994C7.24033 8.14399 8.30025 9.54398 9.77832 10.0488L10.624 10.3378V11.6064C10.624 11.8013 10.624 11.995 10.6152 12.1581C10.6086 12.2806 10.5954 12.4377 10.5547 12.6083L10.5039 12.7831C10.4657 12.894 10.4067 13.051 10.3047 13.2177C10.2015 13.3863 10.087 13.5117 10 13.6005C9.80291 13.8016 9.56155 13.9372 9.41895 14.0156C9.24961 14.1086 9.02941 14.2187 8.78125 14.3427C7.72767 14.8697 6.98767 15.9215 6.89941 17.1523L6.89063 17.4003ZM3.36328 6.42865L3.63477 6.65619C3.989 6.95232 4.38245 7.19227 4.80078 7.37103C4.76159 7.09016 4.74078 6.80331 4.74023 6.51166C4.24298 6.48974 3.74741 6.43031 3.25879 6.33099C3.29236 6.36419 3.32676 6.3981 3.36328 6.42865Z" fill="black"/>
</svg>
