<svg width="24" height="24" viewBox="0 0 24 24" fill="none" xmlns="http://www.w3.org/2000/svg">
<path fill-rule="evenodd" clip-rule="evenodd" d="M8.80762 18.7314C7.5731 17.4964 7.77648 15.4404 9.22949 14.4717C10.3271 13.7401 11.7888 13.8849 12.7217 14.8174L13.0264 15.1211C13.2686 15.3634 13.5968 15.5 13.9395 15.5H17.0332C17.0781 15.5 17.1642 15.4998 17.2393 15.5049C17.2599 15.5063 17.4799 15.5117 17.7119 15.6367L17.8125 15.6982L17.8848 15.7529C18.235 16.043 18.373 16.5232 18.2227 16.959C18.1177 17.2627 17.8934 17.4354 17.873 17.4521C17.8153 17.5004 17.7454 17.5507 17.709 17.5771L14.4629 19.9385C12.9798 21.0169 10.9325 20.8561 9.63574 19.5596L8.80762 18.7314ZM10.3389 16.1357C9.93599 16.4044 9.8796 16.9748 10.2217 17.3174L11.0498 18.1455C11.6508 18.7462 12.5999 18.8201 13.2871 18.3203L14.415 17.5H13.9395C13.0664 17.5 12.2287 17.1535 11.6113 16.5361L11.3076 16.2314C11.0489 15.9731 10.6432 15.933 10.3389 16.1357Z" fill="black"/>
<path d="M8.99023 5.5C8.99038 4.94784 9.43804 4.5 9.99023 4.5C10.5424 4.50007 10.9901 4.94788 10.9902 5.5C10.9902 6.05224 10.5425 6.49993 9.99023 6.5C9.43795 6.5 8.99023 6.05228 8.99023 5.5Z" fill="black"/>
<path fill-rule="evenodd" clip-rule="evenodd" d="M0.5 5.11621C0.500421 4.19208 1.35001 3.52274 2.22656 3.7002L2.40234 3.74707L2.84375 3.89551C3.67531 4.17356 4.54841 4.29715 5.41992 4.2666C6.30598 2.05922 8.46607 0.5 10.9902 0.5L11.2988 0.507812C14.4689 0.668457 16.99 3.29003 16.9902 6.5C16.9901 8.6496 15.8574 10.5301 14.1621 11.5889C14.279 11.8664 14.5667 12.0528 14.8877 12.0215C16.7621 11.8388 18.5152 11.0111 19.8467 9.67969L20.374 9.15234L20.5186 9.02637C21.2675 8.46075 22.3919 8.83486 22.6191 9.78808L23.3232 12.7451C24.3003 16.8489 22.2584 21.0752 18.4355 22.8594C17.5325 23.2808 16.5383 23.5054 15.5234 23.4814C14.0315 23.4462 11.4904 23.3426 9.66797 23.0293C8.16025 22.77 6.89254 22.1231 5.99902 21.125C5.10153 20.1223 4.64063 18.8302 4.64063 17.3994L4.65527 16.9863C4.80285 14.9421 6.03489 13.1992 7.77539 12.3291C8.04116 12.1962 8.21419 12.1098 8.33594 12.043C8.3481 12.0363 8.35926 12.029 8.36914 12.0234C8.37077 11.9882 8.36944 11.9469 8.37012 11.8975C7.46304 11.4564 6.68468 10.793 6.10352 9.97852C4.67039 9.86541 3.30222 9.3096 2.19238 8.38184L1.91992 8.1543C1.02029 7.40194 0.5 6.289 0.5 5.11621ZM6.64063 17.3994C6.64063 18.3873 6.95157 19.1903 7.48926 19.791C8.0311 20.3963 8.86301 20.8618 10.0078 21.0586C11.6693 21.3442 14.0759 21.4461 15.5703 21.4814C16.2588 21.4977 16.9489 21.346 17.5898 21.0469C20.5523 19.6642 22.1352 16.3886 21.3779 13.208L20.9453 11.3955C19.3291 12.878 17.2714 13.7983 15.0811 14.0117C13.488 14.1667 12.1064 12.9154 12.1064 11.3135V10.3945L12.6826 10.125C14.0477 9.48614 14.9902 8.10192 14.9902 6.5C14.99 4.29112 13.1992 2.50005 10.9902 2.5L10.7842 2.50488C8.7392 2.60864 7.09912 4.24903 6.99512 6.29395L6.99023 6.5C6.99032 8.25446 8.12127 9.74695 9.69727 10.2852L10.374 10.5166V11.6064C10.374 11.8035 10.3745 11.9897 10.3662 12.1445C10.3579 12.2995 10.338 12.4977 10.2676 12.7021C10.231 12.8081 10.1791 12.9452 10.0908 13.0889C10.0021 13.2331 9.90255 13.3418 9.82227 13.4238C9.65369 13.5959 9.44158 13.7175 9.29883 13.7959C9.13485 13.886 8.91994 13.9932 8.66992 14.1182C7.46488 14.7206 6.64096 15.9647 6.64063 17.3994ZM2.67969 5.93359C2.79975 6.19515 2.97706 6.43103 3.20312 6.62012L3.47461 6.84766C3.96411 7.25687 4.5242 7.56556 5.12207 7.75977C5.03534 7.35383 4.99025 6.93201 4.99023 6.5L4.99609 6.26758C4.21466 6.25387 3.43624 6.14299 2.67969 5.93359Z" fill="black"/>
</svg>
