<svg width="24" height="24" viewBox="0 0 24 24" fill="none" xmlns="http://www.w3.org/2000/svg">
<path d="M9.78034 17.7598C9.15901 17.1384 9.26144 16.1039 9.99225 15.6162C10.5446 15.248 11.2806 15.3206 11.7501 15.79L12.0538 16.0938C12.5539 16.5937 13.2324 16.875 13.9395 16.875H16.337L13.6544 18.8262C12.7185 19.5066 11.4258 19.405 10.6075 18.5869L9.78034 17.7598Z" fill="black"/>
<path fill-rule="evenodd" clip-rule="evenodd" d="M5.64069 17.3994C5.64089 15.5715 6.69187 13.989 8.22272 13.2236C8.7387 12.9657 8.99788 12.8363 9.10748 12.7246C9.22714 12.6024 9.26652 12.5376 9.32233 12.376C9.37327 12.2282 9.37408 12.0204 9.37408 11.6064V11.2314C7.40621 10.5594 5.99059 8.69538 5.9903 6.5C5.99037 3.73864 8.22892 1.5 10.9903 1.5C13.7516 1.50007 15.9902 3.73868 15.9903 6.5C15.99 8.50455 14.8096 10.2333 13.1065 11.0303V11.3135C13.1068 12.324 13.9786 13.1145 14.9844 13.0166C17.0893 12.8115 19.0583 11.8821 20.5538 10.3867L21.0811 9.85938C21.2674 9.67341 21.5855 9.76343 21.6465 10.0195L22.3506 12.9766C23.2176 16.6187 21.4054 20.3698 18.0128 21.9531C17.2408 22.3134 16.3986 22.5016 15.5469 22.4814C14.0538 22.4461 11.58 22.3434 9.83795 22.0439C7.18539 21.5879 5.64089 19.8181 5.64069 17.3994ZM9.57623 14.9922C8.45163 15.7424 8.29407 17.334 9.25006 18.29L10.0772 19.1172C11.1565 20.1962 12.8614 20.3302 14.0958 19.4326L17.3419 17.0723C17.3858 17.0403 17.4351 17.0041 17.4727 16.9727C17.4961 16.9531 17.5893 16.8777 17.6319 16.7549C17.6924 16.5794 17.644 16.3874 17.5147 16.2607L17.4542 16.2109L17.3731 16.166C17.2929 16.1329 17.2196 16.1294 17.1973 16.1279C17.1484 16.1246 17.0876 16.125 17.0333 16.125H13.9395C13.4313 16.125 12.9435 15.9227 12.584 15.5635L12.2803 15.2598C11.5581 14.5375 10.4261 14.4257 9.57623 14.9922ZM9.3653 5.5C9.36558 5.84493 9.6453 6.125 9.9903 6.125C10.3352 6.12493 10.615 5.84489 10.6153 5.5C10.6153 5.15486 10.3354 4.87507 9.9903 4.875C9.64512 4.875 9.3653 5.15482 9.3653 5.5Z" fill="black"/>
<path d="M1.50006 5.11523C1.50062 4.81278 1.79702 4.59898 2.08405 4.69434L2.52643 4.84277C3.44562 5.15017 4.40911 5.29354 5.37213 5.26953C5.28586 5.66554 5.24033 6.07716 5.2403 6.49902C5.2403 7.36951 5.4341 8.19508 5.78033 8.93457C4.70068 8.77507 3.67897 8.32143 2.83307 7.61426L2.56061 7.38672C1.88827 6.82437 1.50006 5.99177 1.50006 5.11523Z" fill="black"/>
</svg>
