<svg width="24" height="24" viewBox="0 0 24 24" fill="none" xmlns="http://www.w3.org/2000/svg">
<path fill-rule="evenodd" clip-rule="evenodd" d="M8.98438 18.5557C7.86133 17.4322 8.04646 15.5619 9.36816 14.6807C10.3666 14.015 11.6963 14.1468 12.5449 14.9951L12.8496 15.2998C13.1387 15.5886 13.5308 15.7509 13.9395 15.751H17.0332C17.0819 15.751 17.158 15.7505 17.2227 15.7549C17.2455 15.7564 17.4155 15.7619 17.5928 15.8574L17.6689 15.9043L17.7773 15.9932C18.0092 16.22 18.095 16.5646 17.9863 16.8789C17.9058 17.1113 17.7329 17.245 17.7129 17.2617C17.6633 17.3032 17.6019 17.3473 17.5625 17.376L14.3164 19.7373C12.9329 20.7434 11.0224 20.5931 9.8125 19.3838L8.98438 18.5557ZM10.2002 15.9287C9.66609 16.2849 9.5912 17.041 10.0449 17.4951L10.873 18.3232C11.561 19.0107 12.647 19.0954 13.4336 18.5234L15.1836 17.251H13.9395C13.133 17.2509 12.3595 16.9304 11.7891 16.3604L11.4844 16.0557C11.1413 15.7129 10.6037 15.6597 10.2002 15.9287Z" fill="black"/>
<path d="M9.24023 5.50098C9.24023 5.08676 9.57602 4.75098 9.99023 4.75098C10.4044 4.75104 10.7402 5.0868 10.7402 5.50098C10.74 5.91499 10.4043 6.25091 9.99023 6.25098C9.57614 6.25098 9.24042 5.91503 9.24023 5.50098Z" fill="black"/>
<path fill-rule="evenodd" clip-rule="evenodd" d="M0.75 5.11719C0.750262 4.30211 1.54919 3.72714 2.32227 3.98535L2.76465 4.13281C3.67781 4.43815 4.63911 4.56316 5.5957 4.50879C6.40588 2.31495 8.5149 0.75 10.9902 0.75L11.2861 0.757812C14.226 0.906902 16.5831 3.26434 16.7324 6.2041L16.7402 6.5C16.7402 8.62645 15.5843 10.4793 13.8711 11.4736C13.9527 11.9622 14.401 12.3213 14.9121 12.2715C16.8439 12.0832 18.6508 11.229 20.0234 9.85645L20.5518 9.32812C21.1528 8.72944 22.1782 9.0196 22.376 9.84473L23.0801 12.8037C24.0296 16.7921 22.0451 20.8988 18.3301 22.6328C17.4598 23.039 16.5034 23.2544 15.5293 23.2314C14.0371 23.1962 11.5133 23.093 9.71094 22.7832C8.24859 22.5318 7.03521 21.9078 6.18555 20.959C5.33292 20.0067 4.89065 18.7758 4.89063 17.4004L4.9043 17.0059C5.04508 15.0517 6.2235 13.3858 7.8877 12.5537C8.15158 12.4218 8.33003 12.3324 8.45703 12.2627C8.59919 12.1846 8.60173 12.1702 8.57129 12.2012C8.61435 12.1572 8.61051 12.1562 8.59961 12.1738C8.58907 12.191 8.59158 12.1947 8.61328 12.1318C8.60508 12.1557 8.61292 12.1482 8.61816 12.0508C8.62222 11.9751 8.62175 11.878 8.62207 11.7383C7.65607 11.301 6.83303 10.6043 6.24023 9.7373C4.8162 9.65005 3.45261 9.11098 2.35254 8.19141L2.08008 7.96387C1.23711 7.25908 0.750099 6.21596 0.75 5.11719ZM6.39063 17.4004C6.39065 18.4436 6.72107 19.3073 7.30371 19.958C7.88947 20.612 8.77483 21.1 9.96484 21.3047C11.6465 21.5938 14.0702 21.6961 15.5645 21.7314C16.2937 21.7487 17.0216 21.5878 17.6953 21.2734C20.7653 19.8405 22.4057 16.4472 21.6211 13.1514L21.0879 10.9131L21.084 10.917C19.4656 12.5353 17.3347 13.5417 15.0566 13.7637C13.6104 13.9043 12.3567 12.768 12.3564 11.3145V10.5527L12.7881 10.3506C14.2378 9.6721 15.2402 8.20259 15.2402 6.5L15.2344 6.28125C15.1202 4.03597 13.2638 2.25005 10.9902 2.25L10.7715 2.25586C8.5262 2.36972 6.74057 4.2264 6.74023 6.5C6.74023 8.36464 7.94227 9.94967 9.61621 10.5215L10.124 10.6953V11.6064C10.124 11.8061 10.1241 11.9851 10.1162 12.1318C10.1083 12.2785 10.0902 12.4487 10.0312 12.6201C9.99715 12.719 9.95267 12.8364 9.87891 12.957C9.80447 13.0786 9.71965 13.1723 9.64355 13.25C9.50349 13.393 9.32145 13.4987 9.17871 13.5771C9.01995 13.6643 8.8098 13.7694 8.55762 13.8955C7.35164 14.4986 6.50202 15.704 6.40039 17.1152L6.39063 17.4004ZM2.29492 5.55762C2.39391 6.0442 2.65454 6.4884 3.04199 6.8125L3.31445 7.04004C3.94329 7.56574 4.68308 7.93169 5.4707 8.11523C5.32094 7.60306 5.24023 7.06092 5.24023 6.5L5.24805 6.2041C5.25117 6.1426 5.25668 6.08148 5.26172 6.02051C4.25709 6.0313 3.25411 5.87764 2.29492 5.55762Z" fill="black"/>
</svg>
