<svg width="24" height="24" viewBox="0 0 24 24" fill="none" xmlns="http://www.w3.org/2000/svg">
<path d="M6.63305 6.65603C7.07064 5.64344 7.70328 4.69442 8.53192 3.86578C9.36055 3.03714 10.3096 2.4045 11.3222 1.96692C11.5757 1.85737 11.6923 1.56308 11.5828 1.3096C11.4733 1.05611 11.179 0.939421 10.9255 1.04896C9.79895 1.53579 8.74415 2.23934 7.82481 3.15867C6.90547 4.07801 6.20192 5.13281 5.7151 6.25934C5.60556 6.51283 5.72225 6.80712 5.97573 6.91666C6.22922 7.02621 6.52351 6.90952 6.63305 6.65603Z" fill="black"/>
<path fill-rule="evenodd" clip-rule="evenodd" d="M14.4839 2.22427C16.101 2.3077 17.6952 2.96742 18.9305 4.2027C21.5805 6.85268 21.5805 11.1492 18.9305 13.7991L14.486 18.2437C14.481 18.2486 14.476 18.2534 14.4709 18.2581L10.3214 22.4076C9.3897 23.3393 7.87915 23.3393 6.94747 22.4076C6.01579 21.476 6.01579 19.9654 6.94747 19.0337L10.6671 15.3141C10.7173 15.2639 10.7173 15.1825 10.6671 15.1322L9.33404 13.7991C8.09876 12.5639 7.43904 10.9696 7.35561 9.35255C7.33905 9.03158 7.46851 8.73418 7.67996 8.52273L8.56482 7.63787C8.6607 7.77223 8.76893 7.90049 8.88951 8.02107C10.0667 9.19823 11.9752 9.19823 13.1524 8.02107C14.3295 6.84392 14.3295 4.93538 13.1524 3.75823C13.0318 3.63765 12.9035 3.52941 12.7692 3.43354L13.6541 2.54862C13.8655 2.33717 14.1629 2.20771 14.4839 2.22427ZM17.1516 9.5363C17.3469 9.73157 17.3469 10.0481 17.1516 10.2434L15.3737 12.0213C15.1785 12.2165 14.8619 12.2165 14.6666 12.0213C14.4714 11.826 14.4714 11.5094 14.6666 11.3142L16.4445 9.5363C16.6398 9.34104 16.9563 9.34104 17.1516 9.5363Z" fill="black"/>
<path d="M9.287 6.91569L12.047 4.15571C12.1891 4.23994 12.3231 4.34315 12.4453 4.46534C13.2319 5.25196 13.2319 6.52734 12.4453 7.31397C11.6586 8.10059 10.3832 8.10059 9.59662 7.31397C9.47443 7.19178 9.37123 7.0578 9.287 6.91569Z" fill="black"/>
</svg>
