<svg width="24" height="24" viewBox="0 0 24 24" fill="none" xmlns="http://www.w3.org/2000/svg">
<path d="M6.86248 6.75478C7.28776 5.77067 7.90267 4.84809 8.70864 4.04213C9.5146 3.23617 10.4372 2.62126 11.4213 2.19598C11.8015 2.03167 11.9765 1.59023 11.8122 1.21C11.6479 0.829771 11.2065 0.654737 10.8263 0.81905C9.67123 1.31818 8.58999 2.03946 7.64798 2.98147C6.70596 3.92348 5.98469 5.00473 5.48555 6.15975C5.32124 6.53998 5.49628 6.98142 5.8765 7.14573C6.25673 7.31004 6.69817 7.13501 6.86248 6.75478Z" fill="black"/>
<path d="M17.3283 10.4198C17.6212 10.1269 17.6212 9.65199 17.3283 9.3591C17.0354 9.06621 16.5606 9.06621 16.2677 9.3591L14.4898 11.137C14.1969 11.4299 14.1969 11.9047 14.4898 12.1976C14.7827 12.4905 15.2576 12.4905 15.5505 12.1976L17.3283 10.4198Z" fill="black"/>
<path fill-rule="evenodd" clip-rule="evenodd" d="M14.4967 1.97418C16.1732 2.06067 17.8265 2.74481 19.1072 4.0255C21.8548 6.77311 21.8548 11.2279 19.1072 13.9755L14.6627 18.42C14.6566 18.4261 14.6505 18.432 14.6443 18.4378L10.4981 22.584C9.46879 23.6133 7.79994 23.6133 6.77063 22.584C5.74132 21.5547 5.74132 19.8858 6.77063 18.8565L10.4044 15.2227L9.1572 13.9755C7.87651 12.6948 7.19238 11.0415 7.10588 9.365C7.08539 8.96786 7.24565 8.603 7.50312 8.34553L13.4772 2.37142C13.7347 2.11394 14.0996 1.95369 14.4967 1.97418ZM14.4935 3.4765L13.7979 4.17209C14.5778 5.43092 14.4215 7.105 13.3291 8.19743C12.2366 9.28985 10.5626 9.44612 9.30373 8.66624L8.6082 9.36177C8.69228 10.6565 9.22849 11.9255 10.2179 12.9148L11.551 14.2479C12.0893 14.7863 12.0893 15.6592 11.551 16.1975L7.83129 19.9172C7.38777 20.3607 7.38777 21.0798 7.83129 21.5233C8.27482 21.9669 8.99391 21.9669 9.43744 21.5233L13.6014 17.3594C13.6075 17.3533 13.6136 17.3474 13.6198 17.3415L18.0465 12.9148C20.2084 10.753 20.2084 7.24799 18.0465 5.08616C17.0572 4.09678 15.7882 3.56058 14.4935 3.4765ZM10.4211 7.54888L12.6805 5.28944C12.9053 5.91272 12.7679 6.63725 12.2684 7.13677C11.7689 7.63628 11.0444 7.77365 10.4211 7.54888Z" fill="black"/>
</svg>
