<svg width="24" height="24" viewBox="0 0 24 24" fill="none" xmlns="http://www.w3.org/2000/svg">
<path fill-rule="evenodd" clip-rule="evenodd" d="M1.02578 3.97841C2.0444 3.06 3.39519 2.5 4.875 2.5C8.05064 2.5 10.625 5.07436 10.625 8.25V18.75C10.625 19.9926 9.61764 21 8.375 21C7.13236 21 6.125 19.9926 6.125 18.75V14H4.875C3.39519 14 2.0444 13.44 1.02578 12.5216C0.756034 12.2784 0.625 11.9403 0.625 11.6107V11.1555C0.864715 11.2172 1.11603 11.25 1.375 11.25C3.03185 11.25 4.375 9.90685 4.375 8.25C4.375 6.59314 3.03185 5.25 1.375 5.25C1.11603 5.25 0.864715 5.28281 0.625 5.34451V4.88931C0.625 4.55966 0.756034 4.22162 1.02578 3.97841ZM6.875 6.25C7.42728 6.25 7.875 6.69771 7.875 7.25V9.25C7.875 9.80228 7.42728 10.25 6.875 10.25C6.32272 10.25 5.875 9.80228 5.875 9.25V7.25C5.875 6.69771 6.32272 6.25 6.875 6.25Z" fill="black"/>
<path d="M0.625 8.91145V7.58854C0.808236 7.38094 1.07633 7.25 1.375 7.25C1.92728 7.25 2.375 7.69771 2.375 8.25C2.375 8.80228 1.92728 9.25 1.375 9.25C1.07633 9.25 0.808236 9.11906 0.625 8.91145Z" fill="black"/>
<path fill-rule="evenodd" clip-rule="evenodd" d="M22.9508 3.97841C21.9322 3.05999 20.5814 2.5 19.1016 2.5C15.9346 2.5 13.3656 5.06033 13.3516 8.22401C13.3513 8.2327 13.3512 8.24143 13.3512 8.2502V18.75C13.3512 19.9926 14.3585 21 15.6012 21C16.8438 21 17.8512 19.9926 17.8512 18.75V14H19.1016C20.5814 14 21.9322 13.44 22.9508 12.5216C23.2205 12.2784 23.3516 11.9403 23.3516 11.6107V11.1553C23.1116 11.2171 22.86 11.25 22.6008 11.25C20.9439 11.25 19.6008 9.90685 19.6008 8.25C19.6008 6.59315 20.9439 5.25 22.6008 5.25C22.86 5.25 23.1116 5.28289 23.3516 5.34471V4.88931C23.3516 4.55966 23.2205 4.22162 22.9508 3.97841ZM17.1004 6.25C16.5481 6.25 16.1004 6.69771 16.1004 7.25V9.25C16.1004 9.80228 16.5481 10.25 17.1004 10.25C17.6527 10.25 18.1004 9.80228 18.1004 9.25V7.25C18.1004 6.69771 17.6527 6.25 17.1004 6.25Z" fill="black"/>
<path d="M22.6008 9.25C22.8999 9.25 23.1683 9.11869 23.3516 8.91057V7.58943C23.1683 7.38131 22.8999 7.25 22.6008 7.25C22.0485 7.25 21.6008 7.69772 21.6008 8.25C21.6008 8.80228 22.0485 9.25 22.6008 9.25Z" fill="black"/>
</svg>
