<svg width="24" height="24" viewBox="0 0 24 24" fill="none" xmlns="http://www.w3.org/2000/svg">
<path d="M7.875 7.25C7.875 6.69771 7.42728 6.25 6.875 6.25C6.32272 6.25 5.875 6.69771 5.875 7.25V9.25C5.875 9.80228 6.32272 10.25 6.875 10.25C7.42728 10.25 7.875 9.80228 7.875 9.25V7.25Z" fill="black"/>
<path fill-rule="evenodd" clip-rule="evenodd" d="M0.858375 3.79273C1.92113 2.83453 3.33098 2.25 4.875 2.25C8.18871 2.25 10.875 4.93629 10.875 8.25V18.75C10.875 20.1307 9.75571 21.25 8.375 21.25C6.99429 21.25 5.875 20.1307 5.875 18.75V14.25H4.875C3.33098 14.25 1.92113 13.6655 0.858374 12.7073C0.531966 12.413 0.375 12.0054 0.375 11.6107V4.88931C0.375 4.49456 0.531966 4.08703 0.858375 3.79273ZM2.375 5.12726V5.25C4.03185 5.25 5.375 6.59315 5.375 8.25C5.375 9.90685 4.03185 11.25 2.375 11.25V11.3727C3.06019 11.9222 3.92832 12.25 4.875 12.25H6.375C7.20343 12.25 7.875 12.9216 7.875 13.75V18.75C7.875 19.0261 8.09886 19.25 8.375 19.25C8.65114 19.25 8.875 19.0261 8.875 18.75V8.25C8.875 6.04086 7.08414 4.25 4.875 4.25C3.92832 4.25 3.06019 4.57776 2.375 5.12726ZM3.375 8.25C3.375 7.69772 2.92728 7.25 2.375 7.25V9.25C2.92728 9.25 3.375 8.80228 3.375 8.25Z" fill="black"/>
<path d="M16.125 7.25C16.125 6.69771 16.5727 6.25 17.125 6.25C17.6773 6.25 18.125 6.69771 18.125 7.25V9.25C18.125 9.80228 17.6773 10.25 17.125 10.25C16.5727 10.25 16.125 9.80228 16.125 9.25V7.25Z" fill="black"/>
<path fill-rule="evenodd" clip-rule="evenodd" d="M23.1416 3.79273C22.0789 2.83453 20.669 2.25 19.125 2.25C15.8113 2.25 13.125 4.93629 13.125 8.25V18.75C13.125 20.1307 14.2443 21.25 15.625 21.25C17.0057 21.25 18.125 20.1307 18.125 18.75V14.25H19.125C20.669 14.25 22.0789 13.6655 23.1416 12.7073C23.468 12.413 23.625 12.0054 23.625 11.6107V4.88931C23.625 4.49456 23.468 4.08703 23.1416 3.79273ZM21.625 5.12726V5.25C19.9681 5.25 18.625 6.59315 18.625 8.25C18.625 9.90685 19.9681 11.25 21.625 11.25V11.3727C20.9398 11.9222 20.0717 12.25 19.125 12.25H17.625C16.7966 12.25 16.125 12.9216 16.125 13.75V18.75C16.125 19.0261 15.9011 19.25 15.625 19.25C15.3489 19.25 15.125 19.0261 15.125 18.75V8.25C15.125 6.04086 16.9159 4.25 19.125 4.25C20.0717 4.25 20.9398 4.57776 21.625 5.12726ZM20.625 8.25C20.625 7.69772 21.0727 7.25 21.625 7.25V9.25C21.0727 9.25 20.625 8.80228 20.625 8.25Z" fill="black"/>
</svg>
