<svg width="24" height="24" viewBox="0 0 24 24" fill="none" xmlns="http://www.w3.org/2000/svg">
<path d="M7.09204 6.8545C7.505 5.89888 8.10219 5.00275 8.88548 4.21946C9.66876 3.43617 10.5649 2.83899 11.5205 2.42602C12.0275 2.20694 12.2609 1.61835 12.0418 1.11138C11.8227 0.604409 11.2341 0.371029 10.7271 0.590114C9.54364 1.10156 8.43595 1.84056 7.47126 2.80525C6.50657 3.76993 5.76757 4.87762 5.25613 6.06113C5.03704 6.5681 5.27042 7.15668 5.7774 7.37577C6.28437 7.59485 6.87295 7.36147 7.09204 6.8545Z" fill="black"/>
<path fill-rule="evenodd" clip-rule="evenodd" d="M14.5097 1.72506C16.2455 1.81462 17.9579 2.52318 19.284 3.84927C22.1293 6.69452 22.1293 11.3076 19.284 14.1528L14.8395 18.5973C14.8325 18.6043 14.8255 18.6112 14.8183 18.618L10.6749 22.7613C9.548 23.8883 7.72086 23.8883 6.59392 22.7613C5.46698 21.6344 5.46698 19.8073 6.59392 18.6803L10.0509 15.2233L8.98049 14.1528C7.65439 12.8267 6.94583 11.1143 6.85628 9.37844C6.83186 8.90512 7.02291 8.47281 7.32641 8.1693L7.83834 7.65738C7.90059 7.73073 7.96633 7.80214 8.03557 7.87138C9.40798 9.24379 11.6331 9.24379 13.0055 7.87137C14.3779 6.49896 14.3779 4.27384 13.0055 2.90143C12.9363 2.83219 12.8649 2.76645 12.7915 2.7042L13.3005 2.1952C13.604 1.89169 14.0363 1.70064 14.5097 1.72506ZM17.5052 9.18288C17.8957 9.5734 17.8957 10.2066 17.5052 10.5971L15.7273 12.375C15.3368 12.7655 14.7036 12.7655 14.3131 12.375C13.9226 11.9844 13.9226 11.3513 14.3131 10.9607L16.091 9.18288C16.4815 8.79235 17.1146 8.79235 17.5052 9.18288Z" fill="black"/>
<path d="M11.366 4.12975L9.26389 6.23182C9.31749 6.31131 9.37946 6.38683 9.44978 6.45716C10.0411 7.04853 10.9999 7.04853 11.5913 6.45716C12.1827 5.8658 12.1827 4.907 11.5913 4.31564C11.521 4.24531 11.4455 4.18335 11.366 4.12975Z" fill="black"/>
</svg>
