<svg width="24" height="24" viewBox="0 0 24 24" fill="none" xmlns="http://www.w3.org/2000/svg">
<path d="M6.86248 6.75478C7.28776 5.77067 7.90267 4.84809 8.70864 4.04213C9.5146 3.23617 10.4372 2.62126 11.4213 2.19598C11.8015 2.03167 11.9765 1.59023 11.8122 1.21C11.6479 0.829771 11.2065 0.654737 10.8263 0.81905C9.67123 1.31818 8.58999 2.03946 7.64798 2.98147C6.70596 3.92348 5.98469 5.00473 5.48555 6.15975C5.32124 6.53998 5.49628 6.98142 5.8765 7.14573C6.25673 7.31004 6.69817 7.13501 6.86248 6.75478Z" fill="black"/>
<path fill-rule="evenodd" clip-rule="evenodd" d="M14.4967 1.97418C16.1732 2.06067 17.8265 2.74481 19.1072 4.0255C21.8548 6.77312 21.8548 11.2279 19.1072 13.9755L14.6627 18.42L14.6508 18.4316L14.6443 18.4378L10.4981 22.584C9.46879 23.6133 7.79994 23.6133 6.77063 22.584C5.74132 21.5547 5.74132 19.8858 6.77063 18.8565L10.4044 15.2227L9.1572 13.9755C7.87651 12.6948 7.19238 11.0415 7.10588 9.36501C7.08539 8.96786 7.24565 8.603 7.50312 8.34553L8.18362 7.66503L8.21228 7.69405C9.48707 8.96883 11.5539 8.96883 12.8287 7.69405C14.1035 6.41926 14.1035 4.35243 12.8287 3.07765L12.7997 3.04899L13.4772 2.37142C13.7347 2.11395 14.0996 1.95369 14.4967 1.97418ZM17.3283 9.3591C17.6212 9.65199 17.6212 10.1269 17.3283 10.4198L15.5505 12.1976C15.2576 12.4905 14.7827 12.4905 14.4898 12.1976C14.1969 11.9047 14.1969 11.4299 14.4898 11.137L16.2677 9.3591C16.5606 9.06621 17.0354 9.06621 17.3283 9.3591Z" fill="black"/>
<path d="M11.7389 4.1098L9.24443 6.60422C9.2538 6.61402 9.2633 6.62375 9.27294 6.63339C9.96194 7.32238 11.079 7.32238 11.768 6.63339C12.457 5.94439 12.457 4.82731 11.768 4.13831C11.7584 4.12867 11.7487 4.11917 11.7389 4.1098Z" fill="black"/>
</svg>
