<svg width="24" height="24" viewBox="0 0 24 24" fill="none" xmlns="http://www.w3.org/2000/svg">
<path d="M7.125 7.25C7.125 7.11193 7.01307 7 6.875 7C6.73693 7 6.625 7.11193 6.625 7.25V9.25C6.625 9.38807 6.73693 9.5 6.875 9.5C7.01307 9.5 7.125 9.38807 7.125 9.25V7.25Z" fill="black"/>
<path fill-rule="evenodd" clip-rule="evenodd" d="M1.3606 4.34976C2.29095 3.51093 3.5236 3 4.875 3C7.77449 3 10.125 5.35051 10.125 8.25V18.75C10.125 19.7165 9.3415 20.5 8.375 20.5C7.4085 20.5 6.625 19.7165 6.625 18.75V13.75C6.625 13.6119 6.51307 13.5 6.375 13.5H4.875C3.5236 13.5 2.29095 12.9891 1.3606 12.1502C1.20417 12.0092 1.125 11.8101 1.125 11.6107V4.88931C1.125 4.68987 1.20417 4.49079 1.3606 4.34976ZM4.875 3.5C3.65201 3.5 2.53749 3.96187 1.69541 4.7211C1.65231 4.75997 1.625 4.82008 1.625 4.88931V6.01373C2.74999 6.13809 3.625 7.09186 3.625 8.25C3.625 9.40814 2.74999 10.3619 1.625 10.4863V11.6107C1.625 11.6799 1.65231 11.74 1.69541 11.7789C2.53749 12.5381 3.65201 13 4.875 13H6.375C6.78921 13 7.125 13.3358 7.125 13.75V18.75C7.125 19.4404 7.68464 20 8.375 20C9.06536 20 9.625 19.4404 9.625 18.75V8.25C9.625 5.62665 7.49835 3.5 4.875 3.5ZM3.125 8.25C3.125 9.13162 2.47307 9.86097 1.625 9.98228V6.51772C2.47307 6.63903 3.125 7.36838 3.125 8.25Z" fill="black"/>
<path d="M16.875 7.25C16.875 7.11193 16.9869 7 17.125 7C17.2631 7 17.375 7.11193 17.375 7.25V9.25C17.375 9.38807 17.2631 9.5 17.125 9.5C16.9869 9.5 16.875 9.38807 16.875 9.25V7.25Z" fill="black"/>
<path fill-rule="evenodd" clip-rule="evenodd" d="M22.6394 4.34976C21.7091 3.51093 20.4764 3 19.125 3C16.2255 3 13.875 5.35051 13.875 8.25V18.75C13.875 19.7165 14.6585 20.5 15.625 20.5C16.5915 20.5 17.375 19.7165 17.375 18.75V13.75C17.375 13.6119 17.4869 13.5 17.625 13.5H19.125C20.4764 13.5 21.7091 12.9891 22.6394 12.1502C22.7958 12.0092 22.875 11.8101 22.875 11.6107V4.88931C22.875 4.68987 22.7958 4.4908 22.6394 4.34976ZM19.125 3.5C20.348 3.5 21.4625 3.96187 22.3046 4.7211C22.3477 4.75997 22.375 4.82008 22.375 4.88931V6.01373C21.25 6.1381 20.375 7.09186 20.375 8.25C20.375 9.40814 21.25 10.3619 22.375 10.4863V11.6107C22.375 11.6799 22.3477 11.74 22.3046 11.7789C21.4625 12.5381 20.348 13 19.125 13H17.625C17.2108 13 16.875 13.3358 16.875 13.75V18.75C16.875 19.4404 16.3154 20 15.625 20C14.9346 20 14.375 19.4404 14.375 18.75V8.25C14.375 5.62665 16.5016 3.5 19.125 3.5ZM20.875 8.25C20.875 9.13162 21.5269 9.86097 22.375 9.98228V6.51772C21.5269 6.63903 20.875 7.36838 20.875 8.25Z" fill="black"/>
</svg>
