<svg width="24" height="24" viewBox="0 0 24 24" fill="none" xmlns="http://www.w3.org/2000/svg">
<path d="M6.63293 6.65554C7.07052 5.64295 7.70316 4.69393 8.5318 3.86529C9.36043 3.03666 10.3095 2.40401 11.322 1.96643C11.5755 1.85689 11.6922 1.56259 11.5827 1.30911C11.4731 1.05562 11.1788 0.938933 10.9254 1.04847C9.79883 1.5353 8.74403 2.23885 7.82469 3.15818C6.90535 4.07752 6.2018 5.13232 5.71498 6.25886C5.60544 6.51234 5.72213 6.80663 5.97561 6.91618C6.2291 7.02572 6.52339 6.90903 6.63293 6.65554Z" fill="black"/>
<path d="M17.1515 10.2429C17.3468 10.0477 17.3468 9.73108 17.1515 9.53582C16.9562 9.34055 16.6396 9.34055 16.4444 9.53582L14.6665 11.3137C14.4713 11.5089 14.4713 11.8255 14.6665 12.0208C14.8618 12.2161 15.1784 12.2161 15.3736 12.0208L17.1515 10.2429Z" fill="black"/>
<path fill-rule="evenodd" clip-rule="evenodd" d="M14.4838 2.22378C16.1009 2.30721 17.6951 2.96693 18.9304 4.20221C21.5803 6.8522 21.5803 11.1487 18.9304 13.7987L14.4858 18.2432C14.4809 18.2481 14.4759 18.253 14.4708 18.2577L10.3213 22.4072C9.38958 23.3388 7.87903 23.3388 6.94735 22.4072C6.01567 21.4755 6.01567 19.9649 6.94735 19.0332L10.667 15.3136C10.7172 15.2634 10.7172 15.182 10.667 15.1318L9.33391 13.7987C8.09864 12.5634 7.43892 10.9692 7.35549 9.35206C7.33893 9.03109 7.46839 8.73369 7.67984 8.52224L13.6539 2.54813C13.8654 2.33669 14.1628 2.20722 14.4838 2.22378ZM18.2233 4.90932C17.1696 3.85568 15.8119 3.29363 14.4322 3.22245C14.416 3.22162 14.3884 3.2279 14.3611 3.25524L13.4763 4.14002C14.3171 5.31737 14.2091 6.96374 13.1522 8.02059C12.0954 9.07743 10.449 9.18544 9.27167 8.34462L8.38694 9.22935C8.35961 9.25668 8.35332 9.28427 8.35416 9.30054C8.42534 10.6802 8.98738 12.0379 10.041 13.0915L11.3741 14.4247C11.8149 14.8654 11.8149 15.58 11.3741 16.0207L7.65445 19.7404C7.1133 20.2815 7.1133 21.1589 7.65445 21.7001C8.19561 22.2412 9.07299 22.2412 9.61415 21.7001L13.7781 17.5361C13.782 17.5322 13.7859 17.5285 13.7898 17.5248L13.7932 17.5216L18.2233 13.0916C20.4827 10.8321 20.4827 7.16878 18.2233 4.90932ZM9.99378 7.62251L12.7542 4.86213C13.2129 5.63502 13.1099 6.64875 12.4451 7.31348C11.7804 7.9782 10.7667 8.08121 9.99378 7.62251Z" fill="black"/>
</svg>
