<svg width="24" height="24" viewBox="0 0 24 24" fill="none" xmlns="http://www.w3.org/2000/svg">
<path d="M7.09204 6.8545C7.505 5.89888 8.10219 5.00275 8.88548 4.21946C9.66876 3.43617 10.5649 2.83899 11.5205 2.42602C12.0275 2.20694 12.2609 1.61835 12.0418 1.11138C11.8227 0.604409 11.2341 0.371029 10.7271 0.590114C9.54364 1.10156 8.43595 1.84056 7.47126 2.80525C6.50657 3.76993 5.76757 4.87762 5.25613 6.06113C5.03704 6.5681 5.27042 7.15668 5.7774 7.37577C6.28437 7.59485 6.87295 7.36147 7.09204 6.8545Z" fill="black"/>
<path d="M17.5052 10.5971C17.8957 10.2066 17.8957 9.5734 17.5052 9.18288C17.1146 8.79235 16.4815 8.79235 16.091 9.18288L14.3131 10.9607C13.9226 11.3513 13.9226 11.9844 14.3131 12.375C14.7036 12.7655 15.3368 12.7655 15.7273 12.375L17.5052 10.5971Z" fill="black"/>
<path fill-rule="evenodd" clip-rule="evenodd" d="M14.5097 1.72506C16.2455 1.81462 17.9579 2.52318 19.284 3.84927C22.1293 6.69452 22.1293 11.3076 19.284 14.1528L14.8395 18.5973C14.8325 18.6043 14.8255 18.6112 14.8183 18.618L10.6749 22.7613C9.548 23.8883 7.72086 23.8883 6.59392 22.7613C5.46698 21.6344 5.46698 19.8073 6.59392 18.6803L10.0509 15.2233L8.98049 14.1528C7.65439 12.8267 6.94583 11.1143 6.85628 9.37844C6.83186 8.90512 7.02291 8.47281 7.32641 8.1693L13.3005 2.19519C13.604 1.89169 14.0363 1.70064 14.5097 1.72506ZM14.5892 3.73497L14.1958 4.12832C14.3035 4.21329 14.4073 4.30545 14.5066 4.4048C15.8791 5.77722 15.8791 8.00234 14.5066 9.37475C13.1342 10.7472 10.9091 10.7472 9.5367 9.37475C9.43734 9.2754 9.34518 9.17158 9.26021 9.06393L8.86619 9.45795C8.96931 10.6554 9.47839 11.8223 10.3947 12.7386L11.7278 14.0717C12.3638 14.7077 12.3638 15.7389 11.7278 16.3749L8.00813 20.0945C7.66224 20.4404 7.66224 21.0012 8.00813 21.3471C8.35403 21.693 8.91483 21.693 9.26072 21.3471L13.4247 17.1831C13.4317 17.1761 13.4388 17.1693 13.4459 17.1625L17.8698 12.7386C19.934 10.6744 19.934 7.32769 17.8698 5.26348C16.9535 4.34718 15.7866 3.8381 14.5892 3.73497ZM10.698 7.62612L12.758 5.56613C12.8779 5.63289 12.9906 5.71719 13.0924 5.81902C13.6838 6.41038 13.6838 7.36918 13.0924 7.96054C12.5011 8.55191 11.5423 8.55191 10.9509 7.96054C10.8491 7.85871 10.7648 7.74599 10.698 7.62612Z" fill="black"/>
</svg>
