<svg width="24" height="24" viewBox="0 0 24 24" fill="none" xmlns="http://www.w3.org/2000/svg">
<path d="M7.09204 6.85401C7.505 5.89839 8.10219 5.00226 8.88548 4.21897C9.66876 3.43569 10.5649 2.8385 11.5205 2.42553C12.0275 2.20645 12.2609 1.61786 12.0418 1.11089C11.8227 0.60392 11.2341 0.370541 10.7271 0.589625C9.54364 1.10107 8.43595 1.84007 7.47126 2.80476C6.50657 3.76945 5.76757 4.87714 5.25613 6.06064C5.03704 6.56761 5.27042 7.1562 5.7774 7.37528C6.28437 7.59436 6.87295 7.36099 7.09204 6.85401Z" fill="black"/>
<path fill-rule="evenodd" clip-rule="evenodd" d="M14.5097 1.72458C16.2455 1.81413 17.9579 2.52269 19.284 3.84878C22.1293 6.69403 22.1293 11.3071 19.284 14.1523L14.8395 18.5969C14.8325 18.6039 14.8255 18.6107 14.8183 18.6175L10.6749 22.7608C9.548 23.8878 7.72086 23.8878 6.59392 22.7608C5.46698 21.6339 5.46698 19.8068 6.59392 18.6798L10.0509 15.2228L8.98049 14.1523C7.65439 12.8262 6.94583 11.1138 6.85628 9.37795C6.83186 8.90463 7.02291 8.47232 7.32641 8.16882L7.83834 7.65689C7.90059 7.73024 7.96633 7.80165 8.03557 7.87089C9.40798 9.2433 11.6331 9.2433 13.0055 7.87089C14.3779 6.49847 14.3779 4.27335 13.0055 2.90094C12.9363 2.8317 12.8649 2.76596 12.7915 2.70371L13.3005 2.19471C13.604 1.8912 14.0363 1.70016 14.5097 1.72458ZM17.5052 9.18239C17.8957 9.57291 17.8957 10.2061 17.5052 10.5966L15.7273 12.3745C15.3368 12.765 14.7036 12.765 14.3131 12.3745C13.9226 11.9839 13.9226 11.3508 14.3131 10.9603L16.091 9.18239C16.4815 8.79186 17.1146 8.79186 17.5052 9.18239Z" fill="black"/>
<path d="M11.366 4.12926L9.26389 6.23134C9.31749 6.31082 9.37946 6.38635 9.44978 6.45667C10.0411 7.04804 10.9999 7.04804 11.5913 6.45667C12.1827 5.86531 12.1827 4.90652 11.5913 4.31515C11.521 4.24482 11.4455 4.18286 11.366 4.12926Z" fill="black"/>
</svg>
