<svg width="24" height="24" viewBox="0 0 24 24" fill="none" xmlns="http://www.w3.org/2000/svg">
<path d="M7.32159 6.95325C7.72224 6.02611 8.30171 5.15642 9.06232 4.39581C9.82293 3.6352 10.6926 3.05574 11.6198 2.65509C12.2535 2.38123 12.5452 1.6455 12.2713 1.01178C11.9975 0.378069 11.2618 0.0863451 10.628 0.360201C9.41605 0.883953 8.28191 1.64068 7.29455 2.62805C6.30719 3.61541 5.55046 4.74954 5.0267 5.96153C4.75285 6.59525 5.04457 7.33098 5.67829 7.60483C6.312 7.87869 7.04773 7.58696 7.32159 6.95325Z" fill="black"/>
<path d="M17.682 10.7734C18.1702 10.2853 18.1702 9.49383 17.682 9.00568C17.1939 8.51752 16.4024 8.51752 15.9142 9.00568L14.1364 10.7835C13.6482 11.2717 13.6482 12.0632 14.1364 12.5513C14.6245 13.0395 15.416 13.0395 15.9041 12.5513L17.682 10.7734Z" fill="black"/>
<path fill-rule="evenodd" clip-rule="evenodd" d="M14.5226 1.47497C16.3178 1.56759 18.0894 2.30057 19.4609 3.67207C22.4038 6.61495 22.4038 11.3863 19.4609 14.3292L15.0164 18.7737C15.0085 18.7815 15.0006 18.7892 14.9927 18.7968L10.8518 22.9377C9.62721 24.1623 7.64178 24.1623 6.41721 22.9377C5.19264 21.7131 5.19264 19.7277 6.41721 18.5031L9.69746 15.2229L8.80377 14.3292C7.43227 12.9577 6.69929 11.1861 6.60667 9.39089C6.57832 8.8414 6.80017 8.34163 7.1497 7.9921L13.1238 2.01799C13.4733 1.66846 13.9731 1.44662 14.5226 1.47497ZM14.6825 3.99482L14.5641 4.11323C14.6045 4.15031 14.6443 4.18843 14.6835 4.2276C16.1536 5.69765 16.1536 8.08106 14.6835 9.5511C13.2135 11.0211 10.83 11.0211 9.36 9.5511C9.32084 9.51194 9.28272 9.47213 9.24564 9.4317L9.12652 9.55081C9.24655 10.6514 9.72775 11.7176 10.5715 12.5614L11.9046 13.8945C12.6383 14.6281 12.6383 15.8176 11.9046 16.5512L8.18497 20.2709C7.93671 20.5191 7.93671 20.9216 8.18497 21.1699C8.43324 21.4182 8.83575 21.4182 9.08401 21.1699L13.248 17.0059C13.2558 16.9981 13.2637 16.9904 13.2717 16.9828L17.6931 12.5614C19.6597 10.5948 19.6597 7.40641 17.6931 5.43984C16.8493 4.59604 15.7831 4.11485 14.6825 3.99482ZM12.7913 5.88605L11.0185 7.65888C11.0517 7.70213 11.0882 7.74372 11.1278 7.78334C11.6215 8.27707 12.422 8.27707 12.9157 7.78334C13.4095 7.2896 13.4095 6.4891 12.9157 5.99537C12.8761 5.95575 12.8345 5.91931 12.7913 5.88605Z" fill="black"/>
</svg>
