<svg width="24" height="24" viewBox="0 0 24 24" fill="none" xmlns="http://www.w3.org/2000/svg">
<path d="M7.375 7.25C7.375 6.97386 7.15114 6.75 6.875 6.75C6.59886 6.75 6.375 6.97386 6.375 7.25V9.25C6.375 9.52614 6.59886 9.75 6.875 9.75C7.15114 9.75 7.375 9.52614 7.375 9.25V7.25Z" fill="black"/>
<path fill-rule="evenodd" clip-rule="evenodd" d="M1.19319 4.16408C2.16768 3.28546 3.45939 2.75 4.875 2.75C7.91257 2.75 10.375 5.21243 10.375 8.25V18.75C10.375 19.8546 9.47957 20.75 8.375 20.75C7.27043 20.75 6.375 19.8546 6.375 18.75V13.75H4.875C3.45939 13.75 2.16768 13.2145 1.19319 12.3359C0.980102 12.1438 0.875 11.8752 0.875 11.6107V4.88931C0.875 4.62477 0.980102 4.35621 1.19319 4.16408ZM1.875 4.89583V5.80001C3.01612 6.03164 3.875 7.04052 3.875 8.25C3.875 9.45948 3.01612 10.4684 1.875 10.7V11.6042C2.67148 12.3171 3.7221 12.75 4.875 12.75H6.375C6.92728 12.75 7.375 13.1977 7.375 13.75V18.75C7.375 19.3023 7.82271 19.75 8.375 19.75C8.92729 19.75 9.375 19.3023 9.375 18.75V8.25C9.375 5.76472 7.36028 3.75 4.875 3.75C3.7221 3.75 2.67148 4.18291 1.875 4.89583ZM2.875 8.25C2.875 8.90311 2.4576 9.45873 1.875 9.66465V6.83535C2.4576 7.04127 2.875 7.59689 2.875 8.25Z" fill="black"/>
<path d="M16.625 7.25C16.625 6.97386 16.8489 6.75 17.125 6.75C17.4011 6.75 17.625 6.97386 17.625 7.25V9.25C17.625 9.52614 17.4011 9.75 17.125 9.75C16.8489 9.75 16.625 9.52614 16.625 9.25V7.25Z" fill="black"/>
<path fill-rule="evenodd" clip-rule="evenodd" d="M22.8068 4.16408C21.8323 3.28546 20.5406 2.75 19.125 2.75C16.0874 2.75 13.625 5.21243 13.625 8.25V18.75C13.625 19.8546 14.5204 20.75 15.625 20.75C16.7296 20.75 17.625 19.8546 17.625 18.75V13.75H19.125C20.5406 13.75 21.8323 13.2145 22.8068 12.3359C23.0199 12.1438 23.125 11.8752 23.125 11.6107V4.88931C23.125 4.62477 23.0199 4.35621 22.8068 4.16408ZM22.125 4.89583V5.80001C20.9839 6.03164 20.125 7.04052 20.125 8.25C20.125 9.45948 20.9839 10.4684 22.125 10.7V11.6042C21.3285 12.3171 20.2779 12.75 19.125 12.75H17.625C17.0727 12.75 16.625 13.1977 16.625 13.75V18.75C16.625 19.3023 16.1773 19.75 15.625 19.75C15.0727 19.75 14.625 19.3023 14.625 18.75V8.25C14.625 5.76472 16.6397 3.75 19.125 3.75C20.2779 3.75 21.3285 4.18291 22.125 4.89583ZM21.125 8.25C21.125 8.90311 21.5424 9.45873 22.125 9.66465V6.83535C21.5424 7.04127 21.125 7.59689 21.125 8.25Z" fill="black"/>
</svg>
