<svg width="24" height="24" viewBox="0 0 24 24" fill="none" xmlns="http://www.w3.org/2000/svg">
<path d="M6.40338 6.55631C6.85327 5.51523 7.50364 4.53976 8.35495 3.68845C9.20627 2.83714 10.1817 2.18677 11.2228 1.73688C11.3496 1.68211 11.4079 1.53496 11.3531 1.40822C11.2984 1.28147 11.1512 1.22313 11.0245 1.2779C9.92642 1.75241 8.89806 2.43824 8.0014 3.3349C7.10474 4.23156 6.41892 5.25991 5.9444 6.35796C5.88963 6.48471 5.94798 6.63185 6.07472 6.68662C6.20146 6.74139 6.34861 6.68305 6.40338 6.55631Z" fill="black"/>
<path fill-rule="evenodd" clip-rule="evenodd" d="M14.4708 2.47339C16.0286 2.55376 17.5637 3.18906 18.7535 4.37892C21.3059 6.93128 21.3059 11.0695 18.7535 13.6218L14.309 18.0663C14.3055 18.0698 14.3019 18.0732 14.2983 18.0765L10.1444 22.2303C9.31037 23.0644 7.95811 23.0644 7.12406 22.2303C6.29001 21.3963 6.29001 20.044 7.12406 19.21L10.8437 15.4903C10.9916 15.3425 10.9916 15.1028 10.8437 14.9549L9.51063 13.6218C8.32076 12.4319 7.68546 10.8968 7.60509 9.33912C7.59246 9.09432 7.69113 8.86437 7.85655 8.69895L8.89685 7.65865C8.94997 7.72225 9.00638 7.78402 9.0661 7.84375C10.1456 8.92327 11.8959 8.92326 12.9754 7.84374C14.0549 6.76422 14.0549 5.01398 12.9754 3.93446C12.9157 3.87473 12.8539 3.81832 12.7903 3.7652L13.8307 2.72485C13.9961 2.55943 14.226 2.46076 14.4708 2.47339ZM16.9746 9.71253C17.0723 9.81016 17.0723 9.96845 16.9746 10.0661L15.1968 11.8439C15.0991 11.9416 14.9409 11.9416 14.8432 11.8439C14.7456 11.7463 14.7456 11.588 14.8432 11.4904L16.6211 9.71253C16.7187 9.6149 16.877 9.6149 16.9746 9.71253Z" fill="black"/>
<path d="M9.25218 7.30333L12.435 4.12053C12.4996 4.1723 12.562 4.22813 12.6218 4.28801C13.5061 5.17227 13.5061 6.60593 12.6218 7.49019C11.7376 8.37445 10.3039 8.37445 9.41966 7.49019C9.35978 7.43031 9.30395 7.36791 9.25218 7.30333Z" fill="black"/>
</svg>
