<svg width="24" height="24" viewBox="0 0 24 24" fill="none" xmlns="http://www.w3.org/2000/svg">
<path fill-rule="evenodd" clip-rule="evenodd" d="M1.19319 4.16408C2.16768 3.28546 3.45939 2.75 4.875 2.75C7.91257 2.75 10.375 5.21243 10.375 8.25V18.75C10.375 19.8546 9.47957 20.75 8.375 20.75C7.27043 20.75 6.375 19.8546 6.375 18.75V13.75H4.875C3.45939 13.75 2.16768 13.2145 1.19319 12.3359C0.980102 12.1438 0.875 11.8752 0.875 11.6107V10.9547C1.03714 10.9844 1.20425 11 1.375 11C2.89378 11 4.125 9.76878 4.125 8.25C4.125 6.73122 2.89378 5.5 1.375 5.5C1.20425 5.5 1.03714 5.51556 0.875 5.54534V4.88931C0.875 4.62477 0.980102 4.35621 1.19319 4.16408ZM6.875 6.5C7.28921 6.5 7.625 6.83578 7.625 7.25V9.25C7.625 9.66421 7.28921 10 6.875 10C6.46079 10 6.125 9.66421 6.125 9.25V7.25C6.125 6.83578 6.46079 6.5 6.875 6.5Z" fill="black"/>
<path d="M0.875 9.39599V7.10401C1.02812 7.03711 1.19722 7 1.375 7C2.06536 7 2.625 7.55964 2.625 8.25C2.625 8.94035 2.06536 9.5 1.375 9.5C1.19722 9.5 1.02812 9.46289 0.875 9.39599Z" fill="black"/>
<path fill-rule="evenodd" clip-rule="evenodd" d="M22.7834 4.16408C21.8089 3.28546 20.5172 2.75 19.1016 2.75C16.0709 2.75 13.6128 5.20125 13.6016 8.22928C13.6013 8.23622 13.6012 8.24319 13.6012 8.2502V18.75C13.6012 19.8546 14.4966 20.75 15.6012 20.75C16.7057 20.75 17.6012 19.8546 17.6012 18.75V13.75H19.1016C20.5172 13.75 21.8089 13.2145 22.7834 12.3359C22.9965 12.1438 23.1016 11.8752 23.1016 11.6107V10.9545C22.9392 10.9844 22.7718 11 22.6008 11C21.082 11 19.8508 9.76878 19.8508 8.25C19.8508 6.73122 21.082 5.5 22.6008 5.5C22.7718 5.5 22.9392 5.51561 23.1016 5.54549V4.88931C23.1016 4.62477 22.9965 4.35621 22.7834 4.16408ZM17.1004 6.5C16.6862 6.5 16.3504 6.83578 16.3504 7.25V9.25C16.3504 9.66421 16.6862 10 17.1004 10C17.5146 10 17.8504 9.66421 17.8504 9.25V7.25C17.8504 6.83578 17.5146 6.5 17.1004 6.5Z" fill="black"/>
<path d="M22.6008 9.5C22.7789 9.5 22.9482 9.46276 23.1016 9.39565V7.10435C22.9482 7.03724 22.7789 7 22.6008 7C21.9104 7 21.3508 7.55964 21.3508 8.25C21.3508 8.94036 21.9104 9.5 22.6008 9.5Z" fill="black"/>
</svg>
