<svg width="24" height="24" viewBox="0 0 24 24" fill="none" xmlns="http://www.w3.org/2000/svg">
<path fill-rule="evenodd" clip-rule="evenodd" d="M1.19319 4.16408C2.16768 3.28546 3.45939 2.75 4.875 2.75C7.91257 2.75 10.375 5.21243 10.375 8.25V18.75C10.375 19.8546 9.47957 20.75 8.375 20.75C7.27043 20.75 6.375 19.8546 6.375 18.75V13.75H4.875C3.45939 13.75 2.16768 13.2145 1.19319 12.3359C0.980102 12.1438 0.875 11.8752 0.875 11.6107V10.7C1.03655 10.7328 1.20377 10.75 1.375 10.75C2.75571 10.75 3.875 9.63071 3.875 8.25C3.875 6.86929 2.75571 5.75 1.375 5.75C1.20377 5.75 1.03655 5.76721 0.875 5.80001V4.88931C0.875 4.62477 0.980102 4.35621 1.19319 4.16408ZM6.875 6.75C7.15114 6.75 7.375 6.97385 7.375 7.25V9.25C7.375 9.52614 7.15114 9.75 6.875 9.75C6.59886 9.75 6.375 9.52614 6.375 9.25V7.25C6.375 6.97385 6.59886 6.75 6.875 6.75Z" fill="black"/>
<path d="M0.875 9.66465V6.83535C1.03139 6.78008 1.19968 6.75 1.375 6.75C2.20343 6.75 2.875 7.42157 2.875 8.25C2.875 9.07843 2.20343 9.75 1.375 9.75C1.19968 9.75 1.03139 9.71992 0.875 9.66465Z" fill="black"/>
<path fill-rule="evenodd" clip-rule="evenodd" d="M22.7834 4.16408C21.8089 3.28546 20.5172 2.75 19.1016 2.75C16.0709 2.75 13.6128 5.20125 13.6016 8.22928C13.6013 8.23622 13.6012 8.24319 13.6012 8.2502V18.75C13.6012 19.8546 14.4966 20.75 15.6012 20.75C16.7057 20.75 17.6012 19.8546 17.6012 18.75V13.75H19.1016C20.5172 13.75 21.8089 13.2145 22.7834 12.3359C22.9965 12.1438 23.1016 11.8752 23.1016 11.6107V10.6998C22.9398 10.7327 22.7723 10.75 22.6008 10.75C21.2201 10.75 20.1008 9.63071 20.1008 8.25C20.1008 6.86929 21.2201 5.75 22.6008 5.75C22.7723 5.75 22.9398 5.76727 23.1016 5.80017V4.88931C23.1016 4.62477 22.9965 4.35621 22.7834 4.16408ZM17.1004 6.75C16.8242 6.75 16.6004 6.97385 16.6004 7.25V9.25C16.6004 9.52614 16.8242 9.75 17.1004 9.75C17.3765 9.75 17.6004 9.52614 17.6004 9.25V7.25C17.6004 6.97385 17.3765 6.75 17.1004 6.75Z" fill="black"/>
<path d="M22.6008 9.75C22.7764 9.75 22.945 9.71982 23.1016 9.66437V6.83563C22.945 6.78018 22.7764 6.75 22.6008 6.75C21.7724 6.75 21.1008 7.42157 21.1008 8.25C21.1008 9.07843 21.7724 9.75 22.6008 9.75Z" fill="black"/>
</svg>
