<svg width="24" height="24" viewBox="0 0 24 24" fill="none" xmlns="http://www.w3.org/2000/svg">
<path d="M7.625 7.25C7.625 6.83578 7.28921 6.5 6.875 6.5C6.46079 6.5 6.125 6.83578 6.125 7.25V9.25C6.125 9.66421 6.46079 10 6.875 10C7.28921 10 7.625 9.66421 7.625 9.25V7.25Z" fill="black"/>
<path fill-rule="evenodd" clip-rule="evenodd" d="M1.02578 3.97841C2.0444 3.06 3.39519 2.5 4.875 2.5C8.05064 2.5 10.625 5.07436 10.625 8.25V18.75C10.625 19.9926 9.61764 21 8.375 21C7.13236 21 6.125 19.9926 6.125 18.75V14H4.875C3.39519 14 2.0444 13.44 1.02578 12.5216C0.756034 12.2784 0.625 11.9403 0.625 11.6107V4.88931C0.625 4.55966 0.756034 4.22162 1.02578 3.97841ZM2.125 5.00949V5.60352C3.27925 5.92998 4.125 6.99122 4.125 8.25C4.125 9.50878 3.27925 10.57 2.125 10.8965V11.4905C2.86662 12.1206 3.8257 12.5 4.875 12.5H6.375C7.06536 12.5 7.625 13.0596 7.625 13.75V18.75C7.625 19.1642 7.96079 19.5 8.375 19.5C8.78921 19.5 9.125 19.1642 9.125 18.75V8.25C9.125 5.90279 7.22221 4 4.875 4C3.8257 4 2.86662 4.37936 2.125 5.00949ZM2.625 8.25C2.625 8.65895 2.42861 9.02204 2.125 9.25009V7.24991C2.42861 7.47796 2.625 7.84105 2.625 8.25Z" fill="black"/>
<path d="M16.375 7.25C16.375 6.83578 16.7108 6.5 17.125 6.5C17.5392 6.5 17.875 6.83578 17.875 7.25V9.25C17.875 9.66421 17.5392 10 17.125 10C16.7108 10 16.375 9.66421 16.375 9.25V7.25Z" fill="black"/>
<path fill-rule="evenodd" clip-rule="evenodd" d="M22.9742 3.97841C21.9556 3.06 20.6048 2.5 19.125 2.5C15.9494 2.5 13.375 5.07436 13.375 8.25V18.75C13.375 19.9926 14.3824 21 15.625 21C16.8676 21 17.875 19.9926 17.875 18.75V14H19.125C20.6048 14 21.9556 13.44 22.9742 12.5216C23.244 12.2784 23.375 11.9403 23.375 11.6107V4.88931C23.375 4.55966 23.244 4.22162 22.9742 3.97841ZM21.875 5.00949V5.60352C20.7207 5.92998 19.875 6.99122 19.875 8.25C19.875 9.50878 20.7207 10.57 21.875 10.8965V11.4905C21.1334 12.1206 20.1743 12.5 19.125 12.5H17.625C16.9346 12.5 16.375 13.0596 16.375 13.75V18.75C16.375 19.1642 16.0392 19.5 15.625 19.5C15.2108 19.5 14.875 19.1642 14.875 18.75V8.25C14.875 5.90279 16.7778 4 19.125 4C20.1743 4 21.1334 4.37936 21.875 5.00949ZM21.375 8.25C21.375 8.65895 21.5714 9.02204 21.875 9.25009V7.24991C21.5714 7.47796 21.375 7.84105 21.375 8.25Z" fill="black"/>
</svg>
