<svg width="24" height="24" viewBox="0 0 24 24" fill="none" xmlns="http://www.w3.org/2000/svg">
<path d="M22.2912 3.18362C22.1128 2.81147 21.7702 2.5555 21.3628 2.4899C21.1545 2.45638 20.9678 2.49315 20.8469 2.52217C20.7273 2.55089 20.5863 2.59506 20.4436 2.63977L20.4242 2.64584C19.5762 2.91145 18.3012 3.24087 17.0131 3.32213C16.6436 3.34544 16.2562 3.36448 15.8555 3.38418C14.4367 3.45392 12.8512 3.53186 11.3068 3.83623C9.29738 4.23223 7.26963 5.02249 5.56983 6.72229C3.17246 9.11966 2.45704 12.5621 3.42358 15.5831L3.94399 15.3796C7.94324 13.8158 11.5637 11.4184 14.5646 8.34697L15.1016 7.79741C15.777 7.1061 16.885 7.09322 17.5763 7.76866C18.2676 8.44409 18.2805 9.55205 17.605 10.2434L17.0681 10.7929C13.72 14.2198 9.68059 16.8945 5.21862 18.6393L5.16261 18.6612C5.29248 18.8098 5.42822 18.9551 5.56983 19.0967C8.98692 22.5137 14.5271 22.5137 17.9442 19.0967C19.9632 17.0776 21.0504 13.9946 21.649 11.1549C22.2528 8.29067 22.3849 5.54627 22.4083 4.0891L22.4087 4.0689C22.4109 3.93232 22.4132 3.79242 22.4065 3.67412C22.3993 3.54861 22.3796 3.36802 22.2912 3.18362Z" fill="black"/>
<path d="M16.7109 9.36981C16.9039 9.1723 16.9002 8.85573 16.7027 8.66275C16.5052 8.46977 16.1886 8.47345 15.9956 8.67097L15.4587 9.22053C12.3338 12.4189 8.5637 14.9154 4.3992 16.5438L1.32195 17.7471C1.06477 17.8477 0.937811 18.1377 1.03838 18.3949C1.13894 18.652 1.42895 18.779 1.68613 18.6784L4.76338 17.4751C9.06009 15.795 12.9498 13.2193 16.174 9.91937L16.7109 9.36981Z" fill="black"/>
</svg>
