<svg width="24" height="24" viewBox="0 0 24 24" fill="none" xmlns="http://www.w3.org/2000/svg">
<path d="M22.2913 3.18362C22.1129 2.81147 21.7703 2.5555 21.3629 2.4899C21.1547 2.45638 20.9679 2.49315 20.8471 2.52217C20.7274 2.55089 20.5864 2.59506 20.4437 2.63977L20.4244 2.64584C19.5763 2.91145 18.3013 3.24087 17.0132 3.32213C16.6438 3.34544 16.2563 3.36448 15.8556 3.38418C14.4368 3.45392 12.8513 3.53186 11.3069 3.83623C9.2975 4.23223 7.26976 5.02249 5.56995 6.72229C3.23582 9.05643 2.49608 12.3812 3.35073 15.3432L3.85302 15.1468C7.81921 13.5959 11.4098 11.2184 14.3859 8.17226L14.9228 7.6227C15.6947 6.83263 16.961 6.81792 17.7511 7.58984C18.5411 8.36176 18.5558 9.628 17.7839 10.4181L17.247 10.9676C13.882 14.4117 9.82395 17.1017 5.34155 18.8597C5.41591 18.9397 5.49204 19.0187 5.56995 19.0967C8.98704 22.5137 14.5272 22.5137 17.9443 19.0967C19.9634 17.0776 21.0505 13.9946 21.6491 11.1549C22.2529 8.29067 22.385 5.54627 22.4085 4.0891L22.4088 4.0689C22.411 3.93232 22.4133 3.79242 22.4066 3.67412C22.3995 3.54861 22.3797 3.36802 22.2913 3.18362Z" fill="black"/>
<path d="M16.8898 9.54452C17.1793 9.24825 17.1738 8.7734 16.8775 8.48393C16.5812 8.19446 16.1064 8.19998 15.8169 8.49626L15.28 9.04582C12.1798 12.2188 8.43967 14.6955 4.30822 16.311L1.23097 17.5143C0.845204 17.6651 0.654762 18.1001 0.805612 18.4859C0.956459 18.8717 1.39147 19.0621 1.77724 18.9113L4.85449 17.708C9.18425 16.0149 13.1039 13.4194 16.3529 10.0941L16.8898 9.54452Z" fill="black"/>
</svg>
