<svg width="24" height="24" viewBox="0 0 24 24" fill="none" xmlns="http://www.w3.org/2000/svg">
<path d="M21.3231 2.73675C21.6497 2.78933 21.9229 2.99346 22.0659 3.29173C22.1333 3.43238 22.1505 3.57448 22.1569 3.68831C22.1631 3.79721 22.161 3.92869 22.1587 4.06953L22.1585 4.0851C22.1351 5.53422 22.0036 8.26097 21.4044 11.1033C20.8087 13.9294 19.7341 16.9533 17.7675 18.9199C14.5242 22.1632 9.3121 22.2376 5.97846 19.1432C6.321 19.0032 6.66102 18.8579 6.99839 18.7072C9.94456 21.1312 14.3067 20.9665 17.0604 18.2128C18.8172 16.456 19.8418 13.6683 20.426 10.8971C21.0067 8.14211 21.1358 5.48591 21.1586 4.069C21.1612 3.90714 21.1624 3.81289 21.1585 3.74493L21.1578 3.73331L21.1388 3.73767C21.0649 3.7554 20.9644 3.7866 20.7979 3.83873C19.9044 4.11858 18.5217 4.47947 17.0919 4.56968C16.6878 4.59517 16.2771 4.61547 15.8614 4.63602C14.4557 4.7055 12.9943 4.77775 11.5485 5.06267C9.6945 5.42805 7.92408 6.13591 6.45379 7.6062C4.61243 9.44756 3.92869 12.0082 4.40259 14.3837C4.16018 14.486 3.91625 14.5852 3.67086 14.6812L3.46062 14.7634C2.85038 12.0203 3.6124 9.03338 5.74668 6.8991C7.40058 5.24519 9.37686 4.47142 11.3552 4.08154C12.8798 3.78107 14.4403 3.70427 15.8569 3.63456C16.2606 3.61469 16.6527 3.59539 17.0289 3.57166C18.3454 3.48861 19.6419 3.15289 20.499 2.88444L20.5137 2.87983C20.6607 2.83381 20.7943 2.79196 20.9054 2.76529C21.0174 2.7384 21.1649 2.71128 21.3231 2.73675Z" fill="black"/>
<path d="M16.7109 9.36984C16.9039 9.17232 16.9002 8.85576 16.7027 8.66278C16.5052 8.4698 16.1886 8.47348 15.9956 8.67099L15.4587 9.22055C12.3338 12.419 8.5637 14.9154 4.3992 16.5438L1.32195 17.7471C1.06477 17.8477 0.937811 18.1377 1.03838 18.3949C1.13894 18.6521 1.42895 18.779 1.68613 18.6785L4.76338 17.4752C9.06009 15.795 12.9498 13.2193 16.174 9.9194L16.7109 9.36984Z" fill="black"/>
</svg>
