<svg width="24" height="24" viewBox="0 0 24 24" fill="none" xmlns="http://www.w3.org/2000/svg">
<path d="M22.2911 3.18362C22.1127 2.81147 21.7701 2.5555 21.3627 2.4899C21.1545 2.45638 20.9677 2.49315 20.8469 2.52217C20.7272 2.55089 20.5862 2.59506 20.4436 2.63977L20.4242 2.64584C19.5761 2.91145 18.3011 3.24087 17.013 3.32213C16.6436 3.34544 16.2561 3.36448 15.8554 3.38418C14.4366 3.45392 12.8511 3.53186 11.3067 3.83623C9.29731 4.23223 7.26956 5.02249 5.56976 6.72229C3.04658 9.24547 2.38652 12.9262 3.58958 16.0551L4.12602 15.8453C8.19137 14.2556 11.8717 11.8186 14.9222 8.69639L15.4591 8.14683C15.9416 7.65304 16.733 7.64384 17.2268 8.12629C17.7206 8.60874 17.7298 9.40015 17.2473 9.89394L16.7104 10.4435C13.4119 13.8196 9.43233 16.4547 5.03646 18.1736L4.8284 18.255C5.05448 18.5473 5.3016 18.8285 5.56976 19.0967C8.98685 22.5137 14.527 22.5137 17.9441 19.0967C19.9632 17.0776 21.0503 13.9946 21.6489 11.1549C22.2527 8.29067 22.3848 5.54627 22.4083 4.0891L22.4086 4.0689C22.4108 3.93232 22.4131 3.79242 22.4064 3.67412C22.3993 3.54861 22.3796 3.36802 22.2911 3.18362Z" fill="black"/>
<path d="M16.532 9.1951C16.6285 9.09634 16.6267 8.93806 16.5279 8.84157C16.4292 8.74508 16.2709 8.74692 16.1744 8.84568L15.6375 9.39524C12.4877 12.619 8.68773 15.1353 4.49018 16.7766L1.41293 17.9799C1.28434 18.0302 1.22086 18.1752 1.27114 18.3038C1.32142 18.4324 1.46643 18.4959 1.59502 18.4456L4.67227 17.2423C8.93592 15.5751 12.7958 13.0192 15.9951 9.74466L16.532 9.1951Z" fill="black"/>
</svg>
