<svg width="24" height="24" viewBox="0 0 24 24" fill="none" xmlns="http://www.w3.org/2000/svg">
<path d="M22.2914 3.18362C22.113 2.81147 21.7704 2.5555 21.3629 2.4899C21.1547 2.45638 20.968 2.49315 20.8471 2.52217C20.7275 2.55089 20.5865 2.59506 20.4438 2.63977L20.4244 2.64584C19.5764 2.91145 18.3014 3.24087 17.0133 3.32213C16.6438 3.34544 16.2564 3.36448 15.8557 3.38418C14.4369 3.45392 12.8514 3.53186 11.307 3.83623C9.29757 4.23223 7.26982 5.02249 5.57002 6.72229C3.36321 8.9291 2.58159 12.0214 3.22517 14.8555L3.67099 14.6812C7.57108 13.1561 11.1018 10.8182 14.0283 7.82284L14.5652 7.27328C15.5302 6.28569 17.113 6.2673 18.1005 7.2322C19.0881 8.1971 19.1065 9.77991 18.1416 10.7675L17.6047 11.3171C14.2401 14.7607 10.1927 17.4614 5.72333 19.2463C9.15085 22.513 14.5779 22.4631 17.9444 19.0967C19.9634 17.0776 21.0506 13.9946 21.6492 11.1549C22.253 8.29067 22.3851 5.54627 22.4085 4.0891L22.4089 4.0689C22.4111 3.93232 22.4134 3.79242 22.4066 3.67412C22.3995 3.54861 22.3798 3.36802 22.2914 3.18362Z" fill="black"/>
<path d="M17.0687 9.71924C17.4547 9.3242 17.4473 8.69108 17.0523 8.30512C16.6572 7.91916 16.0241 7.92651 15.6381 8.32155L15.1012 8.87111C12.0259 12.0187 8.31564 14.4755 4.21724 16.0782L1.13999 17.2815C0.625637 17.4826 0.371715 18.0626 0.572846 18.577C0.773975 19.0913 1.35399 19.3452 1.86835 19.1441L4.9456 17.9408C9.30841 16.2348 13.258 13.6195 16.5318 10.2688L17.0687 9.71924Z" fill="black"/>
</svg>
