<svg width="24" height="24" viewBox="0 0 24 24" fill="none" xmlns="http://www.w3.org/2000/svg">
<path d="M17.6222 1.49428C18.2598 0.856724 19.2935 0.856726 19.931 1.49428L21.5327 3.09596C22.1702 3.73351 22.1702 4.76719 21.5327 5.40474L20.4614 6.476L16.551 2.56554L17.6222 1.49428Z" fill="black"/>
<path d="M15.4903 3.6262L19.4008 7.53666L9.24962 17.6878L5.33916 13.7774L15.4903 3.6262Z" fill="black"/>
<path d="M4.50192 15.0614L3.26542 18.771C3.06135 19.3832 3.64379 19.9656 4.25602 19.7616L7.96553 18.5251L4.50192 15.0614Z" fill="black"/>
<path d="M4.50026 21.2499C3.8099 21.2499 3.25026 21.8095 3.25026 22.4999C3.25026 23.1902 3.8099 23.7499 4.50026 23.7499H22.0003C22.6906 23.7499 23.2503 23.1902 23.2503 22.4999C23.2503 21.8095 22.6906 21.2499 22.0003 21.2499H4.50026Z" fill="black"/>
</svg>
