<svg width="24" height="24" viewBox="0 0 24 24" fill="none" xmlns="http://www.w3.org/2000/svg">
<path d="M17.622 1.99721C18.2595 1.35965 19.2932 1.35966 19.9308 1.99721L21.5325 3.59889C22.17 4.23644 22.17 5.27012 21.5325 5.90767L20.1076 7.33249L16.1972 3.42202L17.622 1.99721Z" fill="black"/>
<path d="M15.8436 3.77558L19.7541 7.68604L8.90808 18.532L8.89576 18.5442L4.98542 14.6339L4.99762 14.6216L15.8436 3.77558Z" fill="black"/>
<path d="M4.6913 15.0469C4.65707 15.1155 4.62761 15.1866 4.60323 15.2597L3.26518 19.2739C3.0611 19.8861 3.64355 20.4686 4.25578 20.2645L8.26995 18.9264C8.34308 18.902 8.41419 18.8726 8.48277 18.8384L4.6913 15.0469Z" fill="black"/>
<path d="M4.50016 21.75C4.36209 21.75 4.25016 21.8619 4.25016 22C4.25016 22.138 4.36209 22.25 4.50016 22.25H22.0002C22.1382 22.25 22.2502 22.138 22.2502 22C22.2502 21.8619 22.1382 21.75 22.0002 21.75H4.50016Z" fill="black"/>
</svg>
