<svg width="24" height="24" viewBox="0 0 24 24" fill="none" xmlns="http://www.w3.org/2000/svg">
<path d="M5.75 9.34248C5.35048 9.44531 4.93162 9.5 4.5 9.5C4.06838 9.5 3.64952 9.44531 3.25 9.34248V14.6575C3.64952 14.5547 4.06838 14.5 4.5 14.5C4.93162 14.5 5.35048 14.5547 5.75 14.6575V9.34248Z" fill="black"/>
<path d="M9.34248 5.75H14.6575C14.5547 5.35048 14.5 4.93162 14.5 4.5C14.5 4.06838 14.5547 3.64952 14.6575 3.25H9.34248C9.44531 3.64952 9.5 4.06838 9.5 4.5C9.5 4.93162 9.44531 5.35048 9.34248 5.75Z" fill="black"/>
<path d="M20.75 7.22798C20.8111 7.19992 20.8711 7.16988 20.93 7.13792C21.8652 6.6299 22.5 5.63909 22.5 4.5C22.5 2.84315 21.1569 1.5 19.5 1.5C18.2893 1.5 17.246 2.21724 16.772 3.25C16.5974 3.63053 16.5 4.05389 16.5 4.5C16.5 4.94611 16.5974 5.36947 16.772 5.75C16.7798 5.76696 16.7877 5.78384 16.7958 5.80062C17.0988 6.42946 17.6147 6.93641 18.25 7.22798C18.6305 7.40263 19.0539 7.5 19.5 7.5C19.9461 7.5 20.3695 7.40263 20.75 7.22798Z" fill="black"/>
<path d="M18.25 9.34248C18.6495 9.44531 19.0684 9.5 19.5 9.5C19.9316 9.5 20.3505 9.44531 20.75 9.34248V14.6575C20.3505 14.5547 19.9316 14.5 19.5 14.5C19.0684 14.5 18.6495 14.5547 18.25 14.6575V9.34248Z" fill="black"/>
<path d="M18.25 16.772C18.233 16.7798 18.2162 16.7877 18.1994 16.7958C17.5705 17.0988 17.0636 17.6147 16.772 18.25C16.5974 18.6305 16.5 19.0539 16.5 19.5C16.5 19.9461 16.5974 20.3695 16.772 20.75C16.8001 20.8111 16.8301 20.8711 16.8621 20.93C17.3701 21.8652 18.3609 22.5 19.5 22.5C21.1569 22.5 22.5 21.1569 22.5 19.5C22.5 18.2893 21.7828 17.246 20.75 16.772C20.3695 16.5974 19.9461 16.5 19.5 16.5C19.0539 16.5 18.6305 16.5974 18.25 16.772Z" fill="black"/>
<path d="M14.6575 20.75C14.5547 20.3505 14.5 19.9316 14.5 19.5C14.5 19.0684 14.5547 18.6495 14.6575 18.25H9.34248C9.44531 18.6495 9.5 19.0684 9.5 19.5C9.5 19.9316 9.44531 20.3505 9.34248 20.75H14.6575Z" fill="black"/>
<path d="M3.25 7.22798C2.21724 6.75397 1.5 5.71075 1.5 4.5C1.5 2.84315 2.84315 1.5 4.5 1.5C5.63909 1.5 6.6299 2.13485 7.13792 3.07002C7.16988 3.12885 7.19992 3.18887 7.22798 3.25C7.40263 3.63053 7.5 4.05389 7.5 4.5C7.5 4.94611 7.40263 5.36947 7.22798 5.75C6.93641 6.38528 6.42946 6.90116 5.80062 7.20417C5.78384 7.21226 5.76696 7.22019 5.75 7.22798C5.36947 7.40263 4.94611 7.5 4.5 7.5C4.05389 7.5 3.63053 7.40263 3.25 7.22798Z" fill="black"/>
<path d="M7.13792 20.93C6.6299 21.8652 5.63909 22.5 4.5 22.5C2.84315 22.5 1.5 21.1569 1.5 19.5C1.5 18.2893 2.21724 17.246 3.25 16.772C3.63053 16.5974 4.05389 16.5 4.5 16.5C4.94611 16.5 5.36947 16.5974 5.75 16.772C5.76696 16.7798 5.78384 16.7877 5.80062 16.7958C6.42945 17.0988 6.9364 17.6147 7.22797 18.25C7.40263 18.6305 7.5 19.0539 7.5 19.5C7.5 19.9461 7.40263 20.3695 7.22798 20.75C7.19992 20.8111 7.16988 20.8711 7.13792 20.93Z" fill="black"/>
</svg>
