<svg width="24" height="24" viewBox="0 0 24 24" fill="none" xmlns="http://www.w3.org/2000/svg">
<path fill-rule="evenodd" clip-rule="evenodd" d="M20.1076 1.82043C19.3724 1.08525 18.1805 1.08525 17.4453 1.82043L4.82091 14.4448C4.61425 14.6515 4.45855 14.9034 4.36613 15.1807L3.02807 19.1948C2.75885 20.0025 3.52723 20.7709 4.3349 20.5017L8.34907 19.1636C8.62633 19.0712 8.87827 18.9155 9.08493 18.7088L20.098 7.69578L20.1078 7.68613L20.1174 7.6763L21.7093 6.08445C22.4445 5.34926 22.4445 4.15729 21.7093 3.42211L20.1076 1.82043ZM20.6486 5.02379L19.5774 6.09505L17.4347 3.95235L18.5059 2.88109C18.6553 2.73169 18.8976 2.73169 19.047 2.88109L20.6486 4.48277C20.798 4.63217 20.798 4.87439 20.6486 5.02379ZM18.5167 7.15571L16.374 5.01301L6.22277 15.1643L8.36546 17.307L18.5167 7.15571ZM5.48991 16.5527L4.74636 18.7834L6.977 18.0398L5.48991 16.5527Z" fill="black"/>
<path d="M4.50022 21.25C4.08601 21.25 3.75022 21.5858 3.75022 22C3.75022 22.4142 4.08601 22.75 4.50022 22.75H22.0002C22.4144 22.75 22.7502 22.4142 22.7502 22C22.7502 21.5858 22.4144 21.25 22.0002 21.25H4.50022Z" fill="black"/>
</svg>
