<svg width="24" height="24" viewBox="0 0 24 24" fill="none" xmlns="http://www.w3.org/2000/svg">
<path fill-rule="evenodd" clip-rule="evenodd" d="M20.2843 1.64365C19.4515 0.81084 18.1013 0.810838 17.2684 1.64365L4.64408 14.268C4.40998 14.5021 4.2336 14.7875 4.1289 15.1016L2.79084 19.1158C2.45648 20.1189 3.41079 21.0732 4.4139 20.7388L8.42807 19.4008C8.74215 19.2961 9.02754 19.1197 9.26165 18.8856L20.2732 7.87406L20.2845 7.8629L20.2957 7.85157L21.886 6.26122C22.7188 5.42841 22.7188 4.07815 21.886 3.24533L20.2843 1.64365ZM20.4718 4.84701L19.5773 5.7415L17.7882 3.95235L18.6827 3.05787C18.7344 3.0061 18.8184 3.0061 18.8701 3.05787L20.4718 4.65955C20.5236 4.71131 20.5236 4.79524 20.4718 4.84701ZM18.1631 7.15571L16.374 5.36657L6.57627 15.1643L8.36541 16.9534L18.1631 7.15571ZM5.59911 17.0155L5.14159 18.3881L6.51414 17.9306L5.59911 17.0155Z" fill="black"/>
<path d="M4.50017 21C3.94788 21 3.50017 21.4477 3.50017 22C3.50017 22.5522 3.94788 23 4.50017 23H22.0002C22.5525 23 23.0002 22.5522 23.0002 22C23.0002 21.4477 22.5525 21 22.0002 21H4.50017Z" fill="black"/>
</svg>
