<svg width="24" height="24" viewBox="0 0 24 24" fill="none" xmlns="http://www.w3.org/2000/svg">
<path fill-rule="evenodd" clip-rule="evenodd" d="M19.9317 1.99721C19.2942 1.35966 18.2605 1.35965 17.623 1.99721L4.9986 14.6216C4.81938 14.8008 4.68436 15.0193 4.60421 15.2597L3.26615 19.2739C3.06208 19.8861 3.64453 20.4686 4.25675 20.2645L8.27093 18.9264C8.51137 18.8463 8.72985 18.7113 8.90906 18.532L19.9239 7.51721L19.9319 7.50935L19.9398 7.50131L21.5334 5.90767C22.171 5.27012 22.171 4.23644 21.5334 3.59889L19.9317 1.99721ZM20.8263 5.20056L19.5783 6.4486L17.082 3.95235L18.3301 2.70431C18.5771 2.45729 18.9776 2.45729 19.2246 2.70432L20.8263 4.30599C21.0733 4.55302 21.0733 4.95353 20.8263 5.20056ZM18.8712 7.15571L16.3749 4.65946L5.87013 15.1643L8.36637 17.6605L18.8712 7.15571ZM5.38157 16.0899L4.35199 19.1786L7.44072 18.1491L5.38157 16.0899Z" fill="black"/>
<path d="M4.50113 21.5C4.22499 21.5 4.00113 21.7238 4.00113 22C4.00113 22.2761 4.22499 22.5 4.50113 22.5H22.0011C22.2773 22.5 22.5011 22.2761 22.5011 22C22.5011 21.7238 22.2773 21.5 22.0011 21.5H4.50113Z" fill="black"/>
</svg>
