<svg width="24" height="24" viewBox="0 0 24 24" fill="none" xmlns="http://www.w3.org/2000/svg">
<path d="M17.623 1.99721C18.2605 1.35965 19.2942 1.35966 19.9317 1.99721L21.5334 3.59889C22.171 4.23644 22.171 5.27012 21.5334 5.90767L20.2854 7.15571L16.3749 3.24525L17.623 1.99721Z" fill="black"/>
<path d="M15.6678 3.95235L19.5783 7.86282L9.07358 18.3675L5.16311 14.4571L15.6678 3.95235Z" fill="black"/>
<path d="M4.59104 15.2992L3.26615 19.2739C3.06208 19.8861 3.64453 20.4686 4.25675 20.2645L8.23143 18.9396L4.59104 15.2992Z" fill="black"/>
<path d="M4.50113 21.5C4.22499 21.5 4.00113 21.7238 4.00113 22C4.00113 22.2761 4.22499 22.5 4.50113 22.5H22.0011C22.2773 22.5 22.5011 22.2761 22.5011 22C22.5011 21.7238 22.2773 21.5 22.0011 21.5H4.50113Z" fill="black"/>
</svg>
