<svg width="24" height="24" viewBox="0 0 24 24" fill="none" xmlns="http://www.w3.org/2000/svg">
<path fill-rule="evenodd" clip-rule="evenodd" d="M19.7545 2.17398C19.2146 1.63406 18.3392 1.63406 17.7993 2.17398L5.17494 14.7984C5.02317 14.9501 4.90882 15.1351 4.84095 15.3388L3.50289 19.3529C3.36396 19.7697 3.76048 20.1662 4.17726 20.0273L8.19144 18.6893C8.39506 18.6214 8.58008 18.507 8.73185 18.3553L19.749 7.33811L19.7547 7.33257L19.7602 7.32687L21.3562 5.73089C21.8961 5.19097 21.8961 4.31558 21.3562 3.77566L19.7545 2.17398ZM21.0027 5.37734L19.5779 6.80216L16.728 3.95235L18.1529 2.52754C18.4975 2.18288 19.0563 2.18288 19.401 2.52754L21.0027 4.12922C21.3473 4.47388 21.3473 5.03268 21.0027 5.37734ZM19.2243 7.15571L16.3745 4.30591L5.5285 15.1519L5.51596 15.1647C5.51964 15.168 5.52324 15.1714 5.52676 15.1749L8.35519 18.0033C8.35876 18.0069 8.36219 18.0105 8.3655 18.0143L8.3783 18.0017L19.2243 7.15571ZM5.27188 15.6271L3.97723 19.5111C3.97426 19.52 3.97487 19.5255 3.97584 19.5293C3.97707 19.534 3.98003 19.5398 3.98524 19.545C3.99045 19.5502 3.99617 19.5531 4.00094 19.5544C4.00473 19.5553 4.01023 19.5559 4.01915 19.553L7.9031 18.2583L5.27188 15.6271Z" fill="black"/>
<path d="M4.5007 21.75C4.36263 21.75 4.2507 21.8619 4.2507 22C4.2507 22.138 4.36263 22.25 4.5007 22.25H22.0007C22.1388 22.25 22.2507 22.138 22.2507 22C22.2507 21.8619 22.1388 21.75 22.0007 21.75H4.5007Z" fill="black"/>
</svg>
