<svg width="24" height="24" viewBox="0 0 24 24" fill="none" xmlns="http://www.w3.org/2000/svg">
<path fill-rule="evenodd" clip-rule="evenodd" d="M1.25 4.5C1.25 2.70507 2.70507 1.25 4.5 1.25C6.21081 1.25 7.61287 2.57189 7.74053 4.25H16.2595C16.3871 2.57189 17.7892 1.25 19.5 1.25C21.2949 1.25 22.75 2.70507 22.75 4.5C22.75 6.21081 21.4281 7.61287 19.75 7.74053V16.2595C21.4281 16.3871 22.75 17.7892 22.75 19.5C22.75 21.2949 21.2949 22.75 19.5 22.75C17.7892 22.75 16.3871 21.4281 16.2595 19.75H7.74053C7.61287 21.4281 6.21081 22.75 4.5 22.75C2.70507 22.75 1.25 21.2949 1.25 19.5C1.25 17.7892 2.57189 16.3871 4.25 16.2595V7.74053C2.57189 7.61287 1.25 6.21081 1.25 4.5ZM4.5 1.75C2.98122 1.75 1.75 2.98122 1.75 4.5C1.75 6.01878 2.98122 7.25 4.5 7.25C6.01878 7.25 7.25 6.01878 7.25 4.5C7.25 2.98122 6.01878 1.75 4.5 1.75ZM4.75 7.74053V16.2595C6.3456 16.3809 7.61915 17.6544 7.74053 19.25H16.2595C16.3809 17.6544 17.6544 16.3809 19.25 16.2595V7.74053C17.6544 7.61915 16.3809 6.3456 16.2595 4.75H7.74053C7.61915 6.3456 6.3456 7.61915 4.75 7.74053ZM19.5 1.75C17.9812 1.75 16.75 2.98122 16.75 4.5C16.75 6.01878 17.9812 7.25 19.5 7.25C21.0188 7.25 22.25 6.01878 22.25 4.5C22.25 2.98122 21.0188 1.75 19.5 1.75ZM1.75 19.5C1.75 17.9812 2.98122 16.75 4.5 16.75C6.01878 16.75 7.25 17.9812 7.25 19.5C7.25 21.0188 6.01878 22.25 4.5 22.25C2.98122 22.25 1.75 21.0188 1.75 19.5ZM19.5 16.75C17.9812 16.75 16.75 17.9812 16.75 19.5C16.75 21.0188 17.9812 22.25 19.5 22.25C21.0188 22.25 22.25 21.0188 22.25 19.5C22.25 17.9812 21.0188 16.75 19.5 16.75Z" fill="black"/>
</svg>
