<svg width="24" height="24" viewBox="0 0 24 24" fill="none" xmlns="http://www.w3.org/2000/svg">
<path fill-rule="evenodd" clip-rule="evenodd" d="M20.2842 1.64365C19.4514 0.81084 18.1011 0.810838 17.2683 1.64365L4.64396 14.268C4.40985 14.5021 4.23347 14.7875 4.12878 15.1016L2.79072 19.1158C2.45636 20.1189 3.41067 21.0732 4.41378 20.7388L8.42795 19.4008C8.74203 19.2961 9.02742 19.1197 9.26152 18.8856L20.2731 7.87406L20.2844 7.8629L20.2955 7.85157L21.8859 6.26122C22.7187 5.42841 22.7187 4.07815 21.8859 3.24533L20.2842 1.64365ZM20.4717 4.84701L19.5772 5.7415L17.7881 3.95235L18.6825 3.05787C18.7343 3.0061 18.8182 3.0061 18.87 3.05787L20.4717 4.65955C20.5234 4.71131 20.5234 4.79524 20.4717 4.84701ZM18.163 7.15571L16.3738 5.36657L6.57614 15.1643L8.36529 16.9534L18.163 7.15571ZM5.59899 17.0155L5.14147 18.3881L6.51402 17.9306L5.59899 17.0155Z" fill="black"/>
<path d="M4.50004 21C3.94776 21 3.50004 21.4477 3.50004 22C3.50004 22.5522 3.94776 23 4.50004 23H22C22.5523 23 23 22.5522 23 22C23 21.4477 22.5523 21 22 21H4.50004Z" fill="black"/>
</svg>
