<svg width="24" height="24" viewBox="0 0 24 24" fill="none" xmlns="http://www.w3.org/2000/svg">
<path fill-rule="evenodd" clip-rule="evenodd" d="M1 4.5C1 2.567 2.567 1 4.5 1C6.26324 1 7.72194 2.30385 7.96456 4H16.0354C16.2781 2.30385 17.7368 1 19.5 1C21.433 1 23 2.567 23 4.5C23 6.26324 21.6961 7.72194 20 7.96456V16.0354C21.6961 16.2781 23 17.7368 23 19.5C23 21.433 21.433 23 19.5 23C17.7368 23 16.2781 21.6961 16.0354 20H7.96456C7.72194 21.6961 6.26324 23 4.5 23C2.567 23 1 21.433 1 19.5C1 17.7368 2.30385 16.2781 4 16.0354V7.96456C2.30385 7.72194 1 6.26324 1 4.5ZM4.5 2C3.11929 2 2 3.11929 2 4.5C2 5.88071 3.11929 7 4.5 7C5.88071 7 7 5.88071 7 4.5C7 3.11929 5.88071 2 4.5 2ZM5 7.96456V16.0354C6.53285 16.2547 7.7453 17.4672 7.96456 19H16.0354C16.2547 17.4672 17.4672 16.2547 19 16.0354V7.96456C17.4672 7.7453 16.2547 6.53285 16.0354 5H7.96456C7.7453 6.53285 6.53285 7.7453 5 7.96456ZM19.5 2C18.1193 2 17 3.11929 17 4.5C17 5.88071 18.1193 7 19.5 7C20.8807 7 22 5.88071 22 4.5C22 3.11929 20.8807 2 19.5 2ZM2 19.5C2 18.1193 3.11929 17 4.5 17C5.88071 17 7 18.1193 7 19.5C7 20.8807 5.88071 22 4.5 22C3.11929 22 2 20.8807 2 19.5ZM19.5 17C18.1193 17 17 18.1193 17 19.5C17 20.8807 18.1193 22 19.5 22C20.8807 22 22 20.8807 22 19.5C22 18.1193 20.8807 17 19.5 17Z" fill="black"/>
</svg>
