<svg width="24" height="24" viewBox="0 0 24 24" fill="none" xmlns="http://www.w3.org/2000/svg">
<path d="M4.75 7.99121C4.66742 7.99704 4.58406 8 4.5 8C4.41594 8 4.33258 7.99704 4.25 7.99121V16.0088C4.33258 16.003 4.41594 16 4.5 16C4.58406 16 4.66742 16.003 4.75 16.0088V7.99121Z" fill="black"/>
<path d="M7.99121 4.75H16.0088C16.003 4.66742 16 4.58406 16 4.5C16 4.41594 16.003 4.33258 16.0088 4.25H7.99121C7.99704 4.33258 8 4.41594 8 4.5C8 4.58406 7.99704 4.66742 7.99121 4.75Z" fill="black"/>
<path d="M19.75 7.48973C19.769 7.48817 19.7879 7.48643 19.8067 7.48451C21.3195 7.33088 22.5 6.0533 22.5 4.5C22.5 2.84315 21.1569 1.5 19.5 1.5C17.9273 1.5 16.6373 2.71012 16.5103 4.25C16.5035 4.33243 16.5 4.41581 16.5 4.5C16.5 4.58419 16.5035 4.66757 16.5103 4.75C16.5118 4.76896 16.5136 4.78787 16.5155 4.80673C16.6608 6.23751 17.8115 7.37106 19.25 7.48973C19.3324 7.49653 19.4158 7.5 19.5 7.5C19.5842 7.5 19.6676 7.49653 19.75 7.48973Z" fill="black"/>
<path d="M19.25 7.99121C19.3326 7.99704 19.4159 8 19.5 8C19.5841 8 19.6674 7.99704 19.75 7.99121V16.0088C19.6674 16.003 19.5841 16 19.5 16C19.4159 16 19.3326 16.003 19.25 16.0088V7.99121Z" fill="black"/>
<path d="M19.25 16.5103C19.231 16.5118 19.2121 16.5136 19.1933 16.5155C17.7625 16.6608 16.6289 17.8115 16.5103 19.25C16.5035 19.3324 16.5 19.4158 16.5 19.5C16.5 19.5842 16.5035 19.6676 16.5103 19.75C16.5118 19.769 16.5136 19.7879 16.5155 19.8067C16.6691 21.3195 17.9467 22.5 19.5 22.5C21.1569 22.5 22.5 21.1569 22.5 19.5C22.5 17.9273 21.2899 16.6373 19.75 16.5103C19.6676 16.5035 19.5842 16.5 19.5 16.5C19.4158 16.5 19.3324 16.5035 19.25 16.5103Z" fill="black"/>
<path d="M16.0088 19.75C16.003 19.6674 16 19.5841 16 19.5C16 19.4159 16.003 19.3326 16.0088 19.25H7.99121C7.99704 19.3326 8 19.4159 8 19.5C8 19.5841 7.99704 19.6674 7.99121 19.75H16.0088Z" fill="black"/>
<path d="M4.25 7.48973C2.71012 7.36269 1.5 6.07266 1.5 4.5C1.5 2.84315 2.84315 1.5 4.5 1.5C6.0533 1.5 7.33088 2.6805 7.48451 4.19327C7.48643 4.21213 7.48817 4.23104 7.48973 4.25C7.49653 4.33243 7.5 4.41581 7.5 4.5C7.5 4.58419 7.49653 4.66757 7.48973 4.75C7.37106 6.18849 6.23751 7.33921 4.80673 7.48451C4.78787 7.48643 4.76896 7.48817 4.75 7.48973C4.66757 7.49653 4.58419 7.5 4.5 7.5C4.41581 7.5 4.33243 7.49653 4.25 7.48973Z" fill="black"/>
<path d="M7.48451 19.8067C7.33088 21.3195 6.0533 22.5 4.5 22.5C2.84315 22.5 1.5 21.1569 1.5 19.5C1.5 17.9273 2.71011 16.6373 4.24999 16.5103C4.33243 16.5035 4.41581 16.5 4.5 16.5C4.58419 16.5 4.66757 16.5035 4.75 16.5103C4.76896 16.5118 4.78787 16.5136 4.80673 16.5155C6.2375 16.6608 7.37105 17.8115 7.48973 19.25C7.49653 19.3324 7.5 19.4158 7.5 19.5C7.5 19.5842 7.49653 19.6676 7.48973 19.75C7.48817 19.769 7.48643 19.7879 7.48451 19.8067Z" fill="black"/>
</svg>
