<svg width="24" height="24" viewBox="0 0 24 24" fill="none" xmlns="http://www.w3.org/2000/svg">
<path fill-rule="evenodd" clip-rule="evenodd" d="M19.9308 1.99721C19.2932 1.35966 18.2595 1.35965 17.622 1.99721L4.99762 14.6216C4.81841 14.8008 4.68338 15.0193 4.60323 15.2597L3.26518 19.2739C3.0611 19.8861 3.64355 20.4686 4.25578 20.2645L8.26995 18.9264C8.51039 18.8463 8.72887 18.7113 8.90808 18.532L19.9229 7.51721L19.9309 7.50935L19.9388 7.50131L21.5325 5.90767C22.17 5.27012 22.17 4.23644 21.5325 3.59889L19.9308 1.99721ZM20.8253 5.20056L19.5773 6.4486L17.0811 3.95235L18.3291 2.70431C18.5761 2.45729 18.9766 2.45729 19.2237 2.70432L20.8253 4.30599C21.0724 4.55302 21.0724 4.95353 20.8253 5.20056ZM18.8702 7.15571L16.374 4.65946L5.86915 15.1643L8.3654 17.6605L18.8702 7.15571ZM5.38059 16.0899L4.35101 19.1786L7.43974 18.1491L5.38059 16.0899Z" fill="black"/>
<path d="M4.50016 21.5C4.22401 21.5 4.00016 21.7238 4.00016 22C4.00016 22.2761 4.22401 22.5 4.50016 22.5H22.0002C22.2763 22.5 22.5002 22.2761 22.5002 22C22.5002 21.7238 22.2763 21.5 22.0002 21.5H4.50016Z" fill="black"/>
</svg>
