<svg width="24" height="24" viewBox="0 0 24 24" fill="none" xmlns="http://www.w3.org/2000/svg">
<path d="M17.622 1.99721C18.2595 1.35965 19.2932 1.35966 19.9308 1.99721L21.5325 3.59889C22.17 4.23644 22.17 5.27012 21.5325 5.90767L20.4612 6.97893L16.5507 3.06847L17.622 1.99721Z" fill="black"/>
<path d="M15.4901 4.12913L19.4005 8.03959L9.24937 18.1907L5.33891 14.2803L15.4901 4.12913Z" fill="black"/>
<path d="M4.50168 15.5644L3.26518 19.2739C3.0611 19.8861 3.64355 20.4686 4.25578 20.2645L7.96529 19.028L4.50168 15.5644Z" fill="black"/>
<path d="M4.50016 21C3.94787 21 3.50016 21.4477 3.50016 22C3.50016 22.5522 3.94787 23 4.50016 23H22.0002C22.5524 23 23.0002 22.5522 23.0002 22C23.0002 21.4477 22.5524 21 22.0002 21H4.50016Z" fill="black"/>
</svg>
