<svg width="24" height="24" viewBox="0 0 24 24" fill="none" xmlns="http://www.w3.org/2000/svg">
<path d="M5.25 8.4298C5.00706 8.47589 4.75635 8.5 4.5 8.5C4.24365 8.5 3.99294 8.47589 3.75 8.4298V15.5702C3.99294 15.5241 4.24365 15.5 4.5 15.5C4.75635 15.5 5.00706 15.5241 5.25 15.5702V8.4298Z" fill="black"/>
<path d="M8.4298 5.25H15.5702C15.5241 5.00706 15.5 4.75635 15.5 4.5C15.5 4.24365 15.5241 3.99294 15.5702 3.75H8.4298C8.47589 3.99294 8.5 4.24365 8.5 4.5C8.5 4.75635 8.47589 5.00706 8.4298 5.25Z" fill="black"/>
<path d="M20.25 7.40549C20.2978 7.39317 20.3452 7.37971 20.3921 7.36513C21.6133 6.98529 22.5 5.84619 22.5 4.5C22.5 2.84315 21.1569 1.5 19.5 1.5C18.1021 1.5 16.9275 2.45608 16.5945 3.75C16.5328 3.98972 16.5 4.24102 16.5 4.5C16.5 4.75897 16.5328 5.01029 16.5945 5.25C16.6068 5.29784 16.6203 5.34522 16.6349 5.39211C16.9416 6.37838 17.7436 7.14646 18.75 7.40549C18.9897 7.46719 19.241 7.5 19.5 7.5C19.759 7.5 20.0103 7.46719 20.25 7.40549Z" fill="black"/>
<path d="M18.75 8.4298C18.9929 8.47589 19.2437 8.5 19.5 8.5C19.7563 8.5 20.0071 8.47589 20.25 8.4298V15.5702C20.0071 15.5241 19.7563 15.5 19.5 15.5C19.2437 15.5 18.9929 15.5241 18.75 15.5702V8.4298Z" fill="black"/>
<path d="M18.75 16.5945C18.7022 16.6068 18.6548 16.6203 18.6079 16.6349C17.6216 16.9416 16.8535 17.7436 16.5945 18.75C16.5328 18.9897 16.5 19.241 16.5 19.5C16.5 19.759 16.5328 20.0103 16.5945 20.25C16.6068 20.2978 16.6203 20.3452 16.6349 20.3921C17.0147 21.6133 18.1538 22.5 19.5 22.5C21.1569 22.5 22.5 21.1569 22.5 19.5C22.5 18.1021 21.5439 16.9275 20.25 16.5945C20.0103 16.5328 19.759 16.5 19.5 16.5C19.241 16.5 18.9897 16.5328 18.75 16.5945Z" fill="black"/>
<path d="M15.5702 20.25C15.5241 20.0071 15.5 19.7563 15.5 19.5C15.5 19.2437 15.5241 18.9929 15.5702 18.75H8.4298C8.47589 18.9929 8.5 19.2437 8.5 19.5C8.5 19.7563 8.47589 20.0071 8.4298 20.25H15.5702Z" fill="black"/>
<path d="M3.75 7.40549C2.45608 7.07245 1.5 5.89788 1.5 4.5C1.5 2.84315 2.84315 1.5 4.5 1.5C5.84619 1.5 6.98529 2.38669 7.36513 3.60789C7.37971 3.65478 7.39317 3.70216 7.40549 3.75C7.46719 3.98971 7.5 4.24103 7.5 4.5C7.5 4.75898 7.46719 5.01028 7.40549 5.25C7.14647 6.25636 6.37838 7.05836 5.39211 7.36513C5.34522 7.37971 5.29784 7.39317 5.25 7.40549C5.01029 7.46719 4.75897 7.5 4.5 7.5C4.24102 7.5 3.98972 7.46719 3.75 7.40549Z" fill="black"/>
<path d="M7.36513 20.3921C6.98529 21.6133 5.84619 22.5 4.5 22.5C2.84315 22.5 1.5 21.1569 1.5 19.5C1.5 18.1021 2.45608 16.9275 3.75 16.5945C3.98971 16.5328 4.24103 16.5 4.5 16.5C4.75897 16.5 5.01029 16.5328 5.25 16.5945C5.29784 16.6068 5.34522 16.6203 5.39211 16.6349C6.37838 16.9416 7.14647 17.7436 7.40549 18.75C7.46719 18.9897 7.5 19.241 7.5 19.5C7.5 19.759 7.46719 20.0103 7.40549 20.25C7.39317 20.2978 7.37971 20.3452 7.36513 20.3921Z" fill="black"/>
</svg>
