<svg width="24" height="24" viewBox="0 0 24 24" fill="none" xmlns="http://www.w3.org/2000/svg">
<path fill-rule="evenodd" clip-rule="evenodd" d="M11.0644 12.7502L9.22975 21.0062C8.90083 22.4863 10.8082 23.3838 11.739 22.187L18.4613 13.5441C19.1875 12.6105 18.5222 11.2502 17.3395 11.2502L12.9343 11.2502L14.769 2.99433C15.0979 1.51421 13.1905 0.616628 12.2597 1.81344L5.53737 10.4564C4.81126 11.39 5.47654 12.7502 6.65924 12.7502H11.0644ZM13.2287 3.01075L6.82024 11.2502H11.3977L13.2287 3.01075ZM12.601 12.7502L17.1785 12.7502L10.77 20.9897L12.601 12.7502ZM6.7214 11.3773C6.72142 11.3773 6.72137 11.3774 6.7214 11.3773Z" fill="black"/>
</svg>
