<svg width="24" height="24" viewBox="0 0 24 24" fill="none" xmlns="http://www.w3.org/2000/svg">
<path fill-rule="evenodd" clip-rule="evenodd" d="M0.123117 8.43565C0 9.21298 0 10.142 0 12C0 13.858 0 14.787 0.123117 15.5643C0.800832 19.8433 4.15673 23.1992 8.43565 23.8769C9.21298 24 10.142 24 12 24C13.858 24 14.787 24 15.5643 23.8769C19.8433 23.1992 23.1992 19.8433 23.8769 15.5643C24 14.787 24 13.858 24 12C24 10.142 24 9.21298 23.8769 8.43565C23.1992 4.15673 19.8433 0.800832 15.5643 0.123117C14.787 0 13.858 0 12 0C10.142 0 9.21298 0 8.43565 0.123117C4.15673 0.800832 0.800832 4.15673 0.123117 8.43565ZM11.7499 3.74023C12.2331 3.74023 12.6249 4.13198 12.6249 4.61523V6.43704H10.8749V4.61523C10.8749 4.13198 11.2666 3.74023 11.7499 3.74023ZM9.75723 7.43736C9.46848 7.43736 9.23441 7.67144 9.23441 7.96018V8.92681C9.23441 9.07328 9.24171 9.21804 9.25597 9.36075C9.47374 11.5384 11.3116 13.2387 13.5466 13.2387C15.9282 13.2387 17.8588 11.3081 17.8588 8.92648V7.95421C17.8556 7.66822 17.6228 7.43736 17.336 7.43736H9.75723ZM14.4681 6.43704H16.2181V4.61523C16.2181 4.13198 15.8263 3.74023 15.3431 3.74023C14.8598 3.74023 14.4681 4.13198 14.4681 4.61523V6.43704ZM13.5466 14.2387C13.281 14.2387 13.02 14.2192 12.7649 14.1816C12.747 14.384 12.72 14.4983 12.6895 14.5803C12.5248 15.023 12.1756 15.3722 11.7329 15.5368C11.6365 15.5727 11.4955 15.6037 11.2191 15.6209C10.9358 15.6384 10.5716 15.6388 10.033 15.6388L9.10725 15.6388C8.84243 15.6387 8.64306 15.6387 8.46524 15.6574C6.88175 15.8247 5.63054 17.0759 5.46333 18.6594C5.44455 18.8372 5.44459 19.0365 5.44466 19.3014L5.44466 19.3487H7.19466C7.19466 19.0153 7.19588 18.9167 7.20365 18.8431C7.28416 18.0807 7.88659 17.4783 8.64902 17.3978C8.72255 17.39 8.82122 17.3888 9.15455 17.3888H10.0599C10.5647 17.3888 10.9835 17.3888 11.3272 17.3675C11.684 17.3454 12.0177 17.298 12.343 17.1771C13.2625 16.8351 13.9877 16.1099 14.3297 15.1903C14.4507 14.8651 14.498 14.5314 14.5201 14.1746L14.5217 14.1494C14.2056 14.2081 13.8797 14.2387 13.5466 14.2387Z" fill="black"/>
</svg>
