<svg width="24" height="24" viewBox="0 0 24 24" fill="none" xmlns="http://www.w3.org/2000/svg">
<path fill-rule="evenodd" clip-rule="evenodd" d="M12.3111 11.7499L14.414 2.28675C14.6374 1.2817 13.3422 0.672181 12.7101 1.48488L5.54883 10.6923C5.05577 11.3262 5.50753 12.2499 6.31063 12.2499H11.6878L9.58491 21.713C9.36156 22.718 10.6567 23.3276 11.2888 22.5149L18.4501 13.3075C18.9432 12.6735 18.4914 11.7499 17.6883 11.7499L12.3111 11.7499ZM13.926 2.17828C14.0336 1.69393 13.4094 1.4002 13.1048 1.79185L5.94351 10.9992C5.7059 11.3047 5.9236 11.7499 6.31063 11.7499H11.7989L13.926 2.17828ZM12.2 12.2499L10.073 21.8215C9.96537 22.3058 10.5895 22.5995 10.8941 22.2079L18.0554 13.0005C18.2931 12.695 18.0754 12.2499 17.6883 12.2499L12.2 12.2499Z" fill="black"/>
</svg>
