<svg width="24" height="24" viewBox="0 0 24 24" fill="none" xmlns="http://www.w3.org/2000/svg">
<path fill-rule="evenodd" clip-rule="evenodd" d="M14.7377 5.44177L13.5581 10.75L15.9775 10.75C17.4338 10.75 18.2529 12.4249 17.3589 13.5744L12.3517 20.0123C11.2055 21.4859 8.85698 20.3807 9.26197 18.5583L10.4416 13.25H8.02217C6.56591 13.25 5.74674 11.5751 6.6408 10.4256L11.648 3.98775C12.7942 2.51409 15.1427 3.61933 14.7377 5.44177ZM9.55564 10.75L11.5737 8.15534L10.9971 10.75H9.55564ZM12.426 15.8447L13.0026 13.25L14.444 13.25L12.426 15.8447Z" fill="black"/>
<path fill-rule="evenodd" clip-rule="evenodd" d="M24 12C24 18.6274 18.6274 24 12 24C5.37258 24 0 18.6274 0 12C0 5.37258 5.37258 0 12 0C18.6274 0 24 5.37258 24 12ZM21.5 12C21.5 17.2467 17.2467 21.5 12 21.5C6.75329 21.5 2.5 17.2467 2.5 12C2.5 6.75329 6.75329 2.5 12 2.5C17.2467 2.5 21.5 6.75329 21.5 12Z" fill="black"/>
</svg>
