<svg width="24" height="24" viewBox="0 0 24 24" fill="none" xmlns="http://www.w3.org/2000/svg">
<path fill-rule="evenodd" clip-rule="evenodd" d="M0.123117 8.43565C0 9.21298 0 10.142 0 12C0 13.858 0 14.787 0.123117 15.5643C0.800832 19.8433 4.15673 23.1992 8.43565 23.8769C9.21298 24 10.142 24 12 24C13.858 24 14.787 24 15.5643 23.8769C19.8433 23.1992 23.1992 19.8433 23.8769 15.5643C24 14.787 24 13.858 24 12C24 10.142 24 9.21298 23.8769 8.43565C23.1992 4.15673 19.8433 0.800832 15.5643 0.123117C14.787 0 13.858 0 12 0C10.142 0 9.21298 0 8.43565 0.123117C4.15673 0.800832 0.800832 4.15673 0.123117 8.43565ZM11.7499 4.11523C12.026 4.11523 12.2499 4.33909 12.2499 4.61523V6.43704H11.2499V4.61523C11.2499 4.33909 11.4737 4.11523 11.7499 4.11523ZM9.75723 7.43736C9.46849 7.43736 9.23441 7.67144 9.23441 7.96018V8.92681C9.23441 9.07793 9.24219 9.22723 9.25735 9.37434C9.48139 11.5455 11.3163 13.2387 13.5466 13.2387C15.9282 13.2387 17.8588 11.3081 17.8588 8.92648V7.95413C17.8556 7.66817 17.6228 7.43736 17.336 7.43736H9.75723ZM14.8431 4.61523V6.43704H15.8431V4.61523C15.8431 4.33909 15.6192 4.11523 15.3431 4.11523C15.067 4.11523 14.8431 4.33909 14.8431 4.61523ZM13.5466 14.2387C13.409 14.2387 13.2727 14.2335 13.1377 14.2232C13.118 14.441 13.0863 14.589 13.041 14.711C12.8383 15.2559 12.4085 15.6857 11.8636 15.8883C11.7182 15.9424 11.5359 15.977 11.2423 15.9951C10.9447 16.0136 10.5669 16.0138 10.033 16.0138L9.12118 16.0138C8.84211 16.0138 8.66212 16.0137 8.50462 16.0304C7.09708 16.179 5.98489 17.2912 5.83626 18.6987C5.81963 18.8562 5.81964 19.0362 5.81966 19.3151L5.81967 19.3487H6.81967C6.81967 19.0249 6.82037 18.9019 6.83073 18.8038C6.92982 17.8654 7.67127 17.1239 8.60964 17.0248C8.70776 17.0145 8.83079 17.0138 9.15456 17.0138H10.0494C10.5632 17.0138 10.972 17.0138 11.3041 16.9932C11.6436 16.9722 11.936 16.9283 12.2122 16.8256C13.0296 16.5216 13.6742 15.877 13.9782 15.0596C14.0755 14.7982 14.12 14.5223 14.1423 14.2057C13.9467 14.2275 13.748 14.2387 13.5466 14.2387Z" fill="black"/>
</svg>
