<svg width="24" height="24" viewBox="0 0 24 24" fill="none" xmlns="http://www.w3.org/2000/svg">
<path d="M12.6347 4.75516C12.9622 4.33412 13.6332 4.6499 13.5175 5.1706L11.9998 12H8.02217C7.60609 12 7.37205 11.5215 7.62749 11.193L12.6347 4.75516Z" fill="black"/>
<path d="M11.9998 12L15.9775 12C16.3936 12 16.6276 12.4785 16.3722 12.807L11.365 19.2448C11.0375 19.6659 10.3665 19.3501 10.4822 18.8294L11.9998 12Z" fill="black"/>
<path fill-rule="evenodd" clip-rule="evenodd" d="M23.5 12C23.5 18.3513 18.3513 23.5 12 23.5C5.64873 23.5 0.5 18.3513 0.5 12C0.5 5.64873 5.64873 0.5 12 0.5C18.3513 0.5 23.5 5.64873 23.5 12ZM22 12C22 17.5228 17.5228 22 12 22C6.47715 22 2 17.5228 2 12C2 6.47715 6.47715 2 12 2C17.5228 2 22 6.47715 22 12Z" fill="black"/>
</svg>
