<svg width="24" height="24" viewBox="0 0 24 24" fill="none" xmlns="http://www.w3.org/2000/svg">
<path fill-rule="evenodd" clip-rule="evenodd" d="M14.0056 5.27906C14.237 4.23766 12.895 3.6061 12.24 4.44819L7.23281 10.8861C6.72192 11.5429 7.19002 12.5 8.02217 12.5H11.3765L9.99411 18.7209C9.76269 19.7623 11.1047 20.3939 11.7596 19.5518L16.7669 13.1139C17.2778 12.4571 16.8097 11.5 15.9775 11.5L12.6232 11.5L14.0056 5.27906ZM13.0294 5.06213L11.5988 11.5H8.02217L13.0294 5.06213ZM10.9703 18.9379L12.4009 12.5L15.9775 12.5L10.9703 18.9379Z" fill="black"/>
<path fill-rule="evenodd" clip-rule="evenodd" d="M23.5 12C23.5 18.3513 18.3513 23.5 12 23.5C5.64873 23.5 0.5 18.3513 0.5 12C0.5 5.64873 5.64873 0.5 12 0.5C18.3513 0.5 23.5 5.64873 23.5 12ZM22.5 12C22.5 17.799 17.799 22.5 12 22.5C6.20101 22.5 1.5 17.799 1.5 12C1.5 6.20101 6.20101 1.5 12 1.5C17.799 1.5 22.5 6.20101 22.5 12Z" fill="black"/>
</svg>
