<svg width="24" height="24" viewBox="0 0 24 24" fill="none" xmlns="http://www.w3.org/2000/svg">
<path fill-rule="evenodd" clip-rule="evenodd" d="M0.123117 8.43565C0 9.21298 0 10.142 0 12C0 13.858 0 14.787 0.123117 15.5643C0.800832 19.8433 4.15673 23.1992 8.43565 23.8769C9.21298 24 10.142 24 12 24C13.858 24 14.787 24 15.5643 23.8769C19.8433 23.1992 23.1992 19.8433 23.8769 15.5643C24 14.787 24 13.858 24 12C24 10.142 24 9.21298 23.8769 8.43565C23.1992 4.15673 19.8433 0.800832 15.5643 0.123117C14.787 0 13.858 0 12 0C10.142 0 9.21298 0 8.43565 0.123117C4.15673 0.800832 0.800832 4.15673 0.123117 8.43565ZM11.7499 3.61523C12.3022 3.61523 12.7499 4.06295 12.7499 4.61523V6.43704H10.7499V4.61523C10.7499 4.06295 11.1976 3.61523 11.7499 3.61523ZM9.75723 7.43736C9.46848 7.43736 9.23441 7.67144 9.23441 7.96018V8.92681C9.23441 9.07328 9.24171 9.21804 9.25597 9.36075C9.47374 11.5384 11.3116 13.2387 13.5466 13.2387C15.9282 13.2387 17.8588 11.3081 17.8588 8.92648V7.95421C17.8556 7.66822 17.6228 7.43736 17.336 7.43736H9.75723ZM14.3431 6.43704H16.3431V4.61523C16.3431 4.06295 15.8954 3.61523 15.3431 3.61523C14.7908 3.61523 14.3431 4.06295 14.3431 4.61523V6.43704ZM13.5466 14.2387C13.2379 14.2387 12.9354 14.2124 12.6412 14.1619C12.6238 14.3633 12.598 14.4676 12.5723 14.5367C12.4203 14.9454 12.098 15.2677 11.6893 15.4197C11.6093 15.4495 11.482 15.4793 11.2114 15.4961C10.9329 15.5133 10.5731 15.5138 10.033 15.5138L9.10386 15.5138C8.84269 15.5137 8.6368 15.5136 8.45213 15.5331C6.80999 15.7065 5.51244 17.0041 5.33903 18.6462C5.31953 18.8309 5.31959 19.0368 5.31967 19.298L5.31968 19.3487H7.31968C7.31968 19.0121 7.32107 18.9216 7.32797 18.8563C7.40229 18.1525 7.95838 17.5964 8.66216 17.5221C8.7275 17.5152 8.81805 17.5138 9.15457 17.5138H10.0631C10.5651 17.5138 10.9873 17.5138 11.335 17.4923C11.6975 17.4698 12.0449 17.4213 12.3866 17.2942C13.3401 16.9396 14.0922 16.1875 14.4469 15.2339C14.5739 14.8923 14.6225 14.5449 14.6449 14.1823L14.6483 14.1243C14.2929 14.1993 13.9243 14.2387 13.5466 14.2387Z" fill="black"/>
</svg>
