<svg width="24" height="24" viewBox="0 0 24 24" fill="none" xmlns="http://www.w3.org/2000/svg">
<path fill-rule="evenodd" clip-rule="evenodd" d="M12 20.5C16.6944 20.5 20.5 16.6944 20.5 12C20.5 7.30558 16.6944 3.5 12 3.5C7.30558 3.5 3.5 7.30558 3.5 12C3.5 16.6944 7.30558 20.5 12 20.5ZM13.2536 6.35832C13.3492 5.92817 12.7949 5.66731 12.5243 6.01513L8.38793 11.3334C8.17691 11.6047 8.37025 12 8.71396 12H11.9999L10.7462 17.6417C10.6506 18.0718 11.2049 18.3327 11.4754 17.9849L15.6118 12.6666C15.8228 12.3953 15.6295 12 15.2858 12L11.9999 12L13.2536 6.35832Z" fill="black"/>
<path fill-rule="evenodd" clip-rule="evenodd" d="M0.123117 8.43565C0 9.21298 0 10.142 0 12C0 13.858 0 14.787 0.123117 15.5643C0.800832 19.8433 4.15673 23.1992 8.43565 23.8769C9.21298 24 10.142 24 12 24C13.858 24 14.787 24 15.5643 23.8769C19.8433 23.1992 23.1992 19.8433 23.8769 15.5643C24 14.787 24 13.858 24 12C24 10.142 24 9.21298 23.8769 8.43565C23.1992 4.15673 19.8433 0.800832 15.5643 0.123117C14.787 0 13.858 0 12 0C10.142 0 9.21298 0 8.43565 0.123117C4.15673 0.800832 0.800832 4.15673 0.123117 8.43565ZM12 21.5C17.2467 21.5 21.5 17.2467 21.5 12C21.5 6.75329 17.2467 2.5 12 2.5C6.75329 2.5 2.5 6.75329 2.5 12C2.5 17.2467 6.75329 21.5 12 21.5Z" fill="black"/>
</svg>
