<svg width="24" height="24" viewBox="0 0 24 24" fill="none" xmlns="http://www.w3.org/2000/svg">
<path fill-rule="evenodd" clip-rule="evenodd" d="M14.4937 5.38753L13.2465 11L15.9775 11C17.2257 11 17.9279 12.4356 17.1616 13.4209L12.1543 19.8588C11.1719 21.1219 9.15888 20.1746 9.50601 18.6125L10.7532 13H8.02217C6.77394 13 6.0718 11.5644 6.83814 10.5791L11.8454 4.14122C12.8278 2.87808 14.8408 3.82543 14.4937 5.38753ZM9.04449 11L12.059 7.12426L11.1977 11H9.04449ZM11.9407 16.8757L12.802 13L14.9552 13L11.9407 16.8757Z" fill="black"/>
<path fill-rule="evenodd" clip-rule="evenodd" d="M23.5 12C23.5 18.3513 18.3513 23.5 12 23.5C5.64873 23.5 0.5 18.3513 0.5 12C0.5 5.64873 5.64873 0.5 12 0.5C18.3513 0.5 23.5 5.64873 23.5 12ZM21.5 12C21.5 17.2467 17.2467 21.5 12 21.5C6.75329 21.5 2.5 17.2467 2.5 12C2.5 6.75329 6.75329 2.5 12 2.5C17.2467 2.5 21.5 6.75329 21.5 12Z" fill="black"/>
</svg>
