<svg width="24" height="24" viewBox="0 0 24 24" fill="none" xmlns="http://www.w3.org/2000/svg">
<path d="M12.1246 0.920898C12.1246 0.644756 11.9007 0.420898 11.6246 0.420898C11.3484 0.420898 11.1246 0.644756 11.1246 0.920898V4.15507H12.1246V0.920898Z" fill="black"/>
<path d="M8.63559 5.15507C8.20248 5.15507 7.85137 5.50618 7.85137 5.93929V7.38924C7.85137 10.854 10.5755 13.6825 13.9987 13.8497C14.1051 13.8549 14.2121 13.8576 14.3197 13.8576C14.5491 13.8576 14.7758 13.8456 14.9992 13.8223C18.2521 13.4827 20.788 10.7321 20.788 7.38924V5.93056C20.7833 5.50147 20.434 5.15507 20.0038 5.15507H8.63559Z" fill="black"/>
<path d="M17.5148 4.15507H16.5148V0.920898C16.5148 0.644756 16.7387 0.420898 17.0148 0.420898C17.291 0.420898 17.5148 0.644756 17.5148 0.920898V4.15507Z" fill="black"/>
<path d="M14.9833 14.8285C14.7646 14.8477 14.5433 14.8576 14.3197 14.8576C14.2063 14.8576 14.0934 14.855 13.9813 14.85C13.9634 15.2436 13.9282 15.5137 13.8584 15.7519C13.5233 16.8971 12.6277 17.7926 11.4826 18.1278C11.0184 18.2636 10.4333 18.2687 9.0492 18.2687H7.7139C7.49638 18.2687 7.36788 18.2687 7.25638 18.2742C4.94635 18.3888 3.09932 20.2358 2.98477 22.5459C2.97924 22.6573 2.97925 22.7858 2.97925 23.0033V23.0211H3.97925C3.97925 22.7808 3.9794 22.6789 3.98354 22.5954C4.07264 20.7987 5.50921 19.3621 7.30591 19.273C7.38941 19.2689 7.49129 19.2687 7.73158 19.2687L9.15103 19.2687C10.4029 19.2689 11.1437 19.2689 11.7635 19.0875C13.2358 18.6566 14.3872 17.5052 14.8182 16.0328C14.9184 15.6903 14.9633 15.3108 14.9833 14.8285Z" fill="black"/>
</svg>
