<svg width="24" height="24" viewBox="0 0 24 24" fill="none" xmlns="http://www.w3.org/2000/svg">
<path fill-rule="evenodd" clip-rule="evenodd" d="M11.6248 0.670898C11.7629 0.670898 11.8748 0.782827 11.8748 0.920898V4.90507H16.7651V0.920898C16.7651 0.782827 16.877 0.670898 17.0151 0.670898C17.1532 0.670898 17.2651 0.782827 17.2651 0.920898V4.90507H20.4402C20.7705 4.90507 21.0383 5.17285 21.0383 5.50317V7.38924C21.0383 10.9558 18.2591 13.8733 14.7482 14.0941C14.7426 14.9521 14.715 15.4963 14.5785 15.9626C14.1715 17.3532 13.0841 18.4406 11.6935 18.8476C11.1086 19.0188 10.4014 19.0188 9.10615 19.0187H7.73182C7.49453 19.0187 7.38502 19.0188 7.29377 19.0233C5.36874 19.1188 3.82955 20.658 3.73409 22.583C3.72957 22.6742 3.72949 22.7838 3.72949 23.0211H3.22949V23.0112C3.22949 22.7862 3.22949 22.6635 3.23471 22.5582C3.34289 20.3765 5.08731 18.6321 7.26901 18.5239C7.37422 18.5187 7.49697 18.5187 7.72198 18.5187H9.04944C10.416 18.5187 11.0458 18.5162 11.553 18.3677C12.78 18.0086 13.7395 17.0491 14.0986 15.8221C14.215 15.4245 14.2417 14.9515 14.2478 14.1072C10.5706 14.0685 7.60161 11.0756 7.60161 7.38924V5.50317C7.60161 5.17285 7.86939 4.90507 8.19971 4.90507H11.3748V0.920898C11.3748 0.782827 11.4867 0.670898 11.6248 0.670898ZM8.10161 5.50317C8.10161 5.44899 8.14553 5.40507 8.19971 5.40507H20.4402C20.4944 5.40507 20.5383 5.44899 20.5383 5.50317V7.38924C20.5383 10.8235 17.7542 13.6076 14.3199 13.6076C10.8857 13.6076 8.10161 10.8235 8.10161 7.38924V5.50317Z" fill="black"/>
</svg>
