<svg width="24" height="24" viewBox="0 0 24 24" fill="none" xmlns="http://www.w3.org/2000/svg">
<path d="M12.1248 0.920898C12.1248 0.644756 11.9009 0.420898 11.6248 0.420898C11.3487 0.420898 11.1248 0.644756 11.1248 0.920898V4.15507H12.1248V0.920898Z" fill="black"/>
<path d="M8.63584 5.15507C8.20272 5.15507 7.85161 5.50618 7.85161 5.93929V7.38924C7.85161 10.854 10.5757 13.6825 13.999 13.8497C14.1053 13.8549 14.2123 13.8576 14.3199 13.8576C14.5494 13.8576 14.7761 13.8456 14.9994 13.8223C18.2524 13.4827 20.7882 10.7321 20.7882 7.38924V5.93056C20.7836 5.50147 20.4343 5.15507 20.0041 5.15507H8.63584Z" fill="black"/>
<path d="M17.5151 4.15507H16.5151V0.920898C16.5151 0.644756 16.7389 0.420898 17.0151 0.420898C17.2912 0.420898 17.5151 0.644756 17.5151 0.920898V4.15507Z" fill="black"/>
<path d="M14.9835 14.8285C14.7649 14.8477 14.5435 14.8576 14.3199 14.8576C14.2065 14.8576 14.0937 14.855 13.9815 14.85C13.9637 15.2436 13.9284 15.5137 13.8587 15.7519C13.5235 16.8971 12.628 17.7926 11.4828 18.1278C11.0187 18.2636 10.4336 18.2687 9.04945 18.2687H7.71415C7.49662 18.2687 7.36812 18.2687 7.25663 18.2742C4.94659 18.3888 3.09956 20.2358 2.98502 22.5459C2.97949 22.6573 2.97949 22.7858 2.97949 23.0033V23.0211H3.97949C3.97949 22.7808 3.97965 22.6789 3.98379 22.5954C4.07288 20.7987 5.50946 19.3621 7.30615 19.273C7.38965 19.2689 7.49153 19.2687 7.73182 19.2687L9.15127 19.2687C10.4031 19.2689 11.1439 19.2689 11.7637 19.0875C13.2361 18.6566 14.3875 17.5052 14.8184 16.0328C14.9187 15.6903 14.9635 15.3108 14.9835 14.8285Z" fill="black"/>
</svg>
