<svg width="24" height="24" viewBox="0 0 24 24" fill="none" xmlns="http://www.w3.org/2000/svg">
<path fill-rule="evenodd" clip-rule="evenodd" d="M11.0646 12.7502L9.22999 21.0062C8.90108 22.4863 10.8084 23.3838 11.7393 22.187L18.4616 13.5441C19.1877 12.6105 18.5224 11.2502 17.3397 11.2502L12.9346 11.2502L14.7692 2.99433C15.0981 1.51421 13.1908 0.616628 12.2599 1.81344L5.53761 10.4564C4.81151 11.39 5.47679 12.7502 6.65949 12.7502H11.0646ZM13.229 3.01075L6.82048 11.2502H11.398L13.229 3.01075ZM12.6012 12.7502L17.1787 12.7502L10.7702 20.9897L12.6012 12.7502ZM6.72164 11.3773C6.72167 11.3773 6.72161 11.3774 6.72164 11.3773Z" fill="black"/>
</svg>
