<svg width="24" height="24" viewBox="0 0 24 24" fill="none" xmlns="http://www.w3.org/2000/svg">
<path fill-rule="evenodd" clip-rule="evenodd" d="M12.6229 11.5L14.5895 2.64994C14.8655 1.40808 13.2652 0.654973 12.4842 1.65914L5.5493 10.5754C4.94007 11.3587 5.49827 12.5 6.49059 12.5H11.3763L9.40957 21.35C9.1336 22.5919 10.7339 23.345 11.515 22.3408L18.4498 13.4246C19.059 12.6413 18.5009 11.5 17.5085 11.5L12.6229 11.5ZM13.382 2.19885C13.3518 2.20489 13.3137 2.22146 13.2735 2.27308L6.33865 11.1893C6.24031 11.3158 6.33042 11.5 6.49059 11.5H11.5985L13.6134 2.43301C13.6275 2.36917 13.616 2.32922 13.6014 2.30212C13.5842 2.27013 13.5523 2.23821 13.5074 2.21709C13.4625 2.19598 13.4176 2.19171 13.382 2.19885ZM12.4006 12.5L10.3858 21.567C10.3716 21.6308 10.3831 21.6708 10.3977 21.6979C10.4149 21.7299 10.4468 21.7618 10.4917 21.7829C10.5366 21.804 10.5815 21.8083 10.6171 21.8011C10.6473 21.7951 10.6855 21.7785 10.7256 21.7269L17.6605 12.8107C17.7588 12.6842 17.6687 12.5 17.5085 12.5L12.4006 12.5Z" fill="black"/>
</svg>
