<svg width="24" height="25" viewBox="0 0 24 25" fill="none" xmlns="http://www.w3.org/2000/svg">
<path d="M12.6246 1.9209C12.6246 1.36861 12.1769 0.920898 11.6246 0.920898C11.0723 0.920898 10.6246 1.36861 10.6246 1.9209V5.15507H12.6246V1.9209Z" fill="black"/>
<path d="M8.6356 6.15507C8.20248 6.15507 7.85137 6.50618 7.85137 6.93929V8.38924C7.85137 11.6835 10.314 14.4026 13.4987 14.806C13.4987 14.806 13.4987 14.806 13.4987 14.806C13.7676 14.84 14.0416 14.8576 14.3197 14.8576C17.892 14.8576 20.788 11.9616 20.788 8.38924V6.93056C20.7833 6.50147 20.434 6.15507 20.0038 6.15507H8.6356Z" fill="black"/>
<path d="M18.0149 5.15507H16.0149V1.9209C16.0149 1.36861 16.4626 0.920898 17.0149 0.920898C17.5671 0.920898 18.0149 1.36861 18.0149 1.9209V5.15507Z" fill="black"/>
<path d="M15.4862 15.767C15.1061 15.8266 14.7165 15.8576 14.3197 15.8576C14.0366 15.8576 13.7573 15.8418 13.4825 15.8112C13.4666 16.1858 13.4362 16.4146 13.3786 16.6115C13.0913 17.593 12.3237 18.3606 11.3421 18.6479C10.9641 18.7586 10.4685 18.7687 9.04921 18.7687L7.70242 18.7687C7.4962 18.7687 7.35583 18.7687 7.23163 18.7749C4.66492 18.9021 2.61266 20.9544 2.48539 23.5211C2.47923 23.6452 2.47924 23.7855 2.47925 23.9916L2.47925 24.0211H4.47925C4.47925 23.7748 4.47956 23.6882 4.48294 23.6201C4.5593 22.0801 5.79065 20.8488 7.33068 20.7724C7.39868 20.769 7.4853 20.7687 7.73158 20.7687L9.21716 20.7688C10.4035 20.7692 11.2135 20.7695 11.9039 20.5674C13.5399 20.0886 14.8192 18.8092 15.2981 17.1733C15.4178 16.7643 15.4665 16.3133 15.4862 15.767Z" fill="black"/>
</svg>
