<svg width="24" height="25" viewBox="0 0 24 25" fill="none" xmlns="http://www.w3.org/2000/svg">
<path d="M12.8748 1.25C12.8748 0.559644 12.3152 0 11.6248 0C10.9345 0 10.3748 0.559644 10.3748 1.25V4.48417H12.8748V1.25Z" fill="black"/>
<path d="M8.63584 5.48417C8.20272 5.48417 7.85161 5.83528 7.85161 6.2684V7.71834C7.85161 10.9259 10.1863 13.5881 13.249 14.0984C13.249 14.0984 13.249 14.0984 13.249 14.0984C13.5974 14.1565 13.9551 14.1867 14.3199 14.1867C17.8923 14.1867 20.7882 11.2907 20.7882 7.71834V6.25966C20.7836 5.83057 20.4343 5.48417 20.0041 5.48417H8.63584Z" fill="black"/>
<path d="M18.2651 4.48417H15.7651V1.25C15.7651 0.559644 16.3247 0 17.0151 0C17.7054 0 18.2651 0.559644 18.2651 1.25V4.48417Z" fill="black"/>
<path d="M15.7382 15.0522C15.279 15.1405 14.8048 15.1867 14.3199 15.1867C13.951 15.1867 13.5883 15.1599 13.2338 15.1083C13.219 15.4819 13.191 15.6924 13.1389 15.8703C12.8755 16.7701 12.1719 17.4737 11.2721 17.7371C10.9372 17.8351 10.4863 17.8478 9.04945 17.8478L7.69837 17.8478C7.49653 17.8478 7.3501 17.8478 7.21949 17.8543C4.52444 17.9879 2.36958 20.1428 2.23594 22.8378C2.22946 22.9684 2.22948 23.1149 2.22949 23.3167L2.2295 23.3502H4.7295C4.7295 23.1009 4.72988 23.0219 4.73287 22.9616C4.80287 21.5499 5.93161 20.4212 7.3433 20.3512C7.40356 20.3482 7.48255 20.3478 7.73183 20.3478L9.24183 20.3479C10.403 20.3485 11.2483 20.3489 11.9744 20.1364C13.6922 19.6336 15.0354 18.2904 15.5382 16.5726C15.6689 16.1261 15.7191 15.6346 15.7382 15.0522Z" fill="black"/>
</svg>
