<svg width="24" height="24" viewBox="0 0 24 24" fill="none" xmlns="http://www.w3.org/2000/svg">
<path fill-rule="evenodd" clip-rule="evenodd" d="M11.6246 0.670898C11.7626 0.670898 11.8746 0.782827 11.8746 0.920898V4.90507H16.7648V0.920898C16.7648 0.782827 16.8768 0.670898 17.0148 0.670898C17.1529 0.670898 17.2648 0.782827 17.2648 0.920898V4.90507H20.4399C20.7703 4.90507 21.038 5.17285 21.038 5.50317V7.38924C21.038 10.9558 18.2589 13.8733 14.748 14.0941C14.7424 14.9521 14.7147 15.4963 14.5782 15.9626C14.1712 17.3532 13.0838 18.4406 11.6932 18.8476C11.1084 19.0188 10.4012 19.0188 9.10591 19.0187H7.73158C7.49429 19.0187 7.38477 19.0188 7.29353 19.0233C5.3685 19.1188 3.82931 20.658 3.73385 22.583C3.72933 22.6742 3.72925 22.7838 3.72925 23.0211H3.22925V23.0112C3.22925 22.7862 3.22925 22.6635 3.23446 22.5582C3.34265 20.3765 5.08706 18.6321 7.26876 18.5239C7.37398 18.5187 7.49672 18.5187 7.72174 18.5187H9.0492C10.4158 18.5187 11.0456 18.5162 11.5528 18.3677C12.7798 18.0086 13.7392 17.0491 14.0984 15.8221C14.2148 15.4245 14.2415 14.9515 14.2476 14.1072C10.5704 14.0685 7.60137 11.0756 7.60137 7.38924V5.50317C7.60137 5.17285 7.86914 4.90507 8.19947 4.90507H11.3746V0.920898C11.3746 0.782827 11.4865 0.670898 11.6246 0.670898ZM8.10137 5.50317C8.10137 5.44899 8.14529 5.40507 8.19947 5.40507H20.4399C20.4941 5.40507 20.538 5.44899 20.538 5.50317V7.38924C20.538 10.8235 17.754 13.6076 14.3197 13.6076C10.8854 13.6076 8.10137 10.8235 8.10137 7.38924V5.50317Z" fill="black"/>
</svg>
