<svg width="24" height="24" viewBox="0 0 24 24" fill="none" xmlns="http://www.w3.org/2000/svg">
<path fill-rule="evenodd" clip-rule="evenodd" d="M9.75006 18.6667L11.0649 12.75H8.02217C6.98198 12.75 6.39686 11.5536 7.03548 10.7326L12.0427 4.2947C12.8614 3.24209 14.5389 4.03155 14.2496 5.33329L12.9348 11.25L15.9775 11.25C17.0177 11.25 17.6028 12.4464 16.9642 13.2674L11.957 19.7053C11.1383 20.7579 9.46078 19.9684 9.75006 18.6667ZM8.53333 11.25L12.5442 6.0932L11.3982 11.25H8.53333ZM15.4664 12.75L12.6015 12.75L11.4555 17.9068L15.4664 12.75Z" fill="black"/>
<path fill-rule="evenodd" clip-rule="evenodd" d="M23.5 12C23.5 18.3513 18.3513 23.5 12 23.5C5.64873 23.5 0.5 18.3513 0.5 12C0.5 5.64873 5.64873 0.5 12 0.5C18.3513 0.5 23.5 5.64873 23.5 12ZM22 12C22 17.5228 17.5228 22 12 22C6.47715 22 2 17.5228 2 12C2 6.47715 6.47715 2 12 2C17.5228 2 22 6.47715 22 12Z" fill="black"/>
</svg>
