<svg width="24" height="24" viewBox="0 0 24 24" fill="none" xmlns="http://www.w3.org/2000/svg">
<path fill-rule="evenodd" clip-rule="evenodd" d="M11.6246 0.420898C11.9007 0.420898 12.1246 0.644756 12.1246 0.920898V4.65507H16.5148V0.920898C16.5148 0.644756 16.7387 0.420898 17.0148 0.420898C17.291 0.420898 17.5148 0.644756 17.5148 0.920898V4.65507H20.4399C20.9083 4.65507 21.288 5.03477 21.288 5.50317V7.38924C21.288 11.0096 18.5271 13.9851 14.996 14.3252C14.9865 15.0611 14.9509 15.5793 14.8182 16.0328C14.3872 17.5052 13.2358 18.6566 11.7635 19.0875C11.1437 19.2689 10.4029 19.2689 9.15107 19.2687L7.73158 19.2687C7.49129 19.2687 7.38941 19.2689 7.30591 19.273C5.50921 19.3621 4.07264 20.7987 3.98354 22.5954C3.9794 22.6789 3.97925 22.7808 3.97925 23.0211H2.97925V23.0034C2.97924 22.7859 2.97924 22.6573 2.98477 22.5459C3.09932 20.2358 4.94635 18.3888 7.25638 18.2742C7.36788 18.2687 7.49638 18.2687 7.7139 18.2687H9.0492C10.4333 18.2687 11.0184 18.2636 11.4826 18.1278C12.6277 17.7926 13.5233 16.8971 13.8584 15.7519C13.9543 15.4243 13.9851 15.0365 13.9949 14.3501C10.2972 14.1805 7.35137 11.1289 7.35137 7.38924V5.50317C7.35137 5.03478 7.73107 4.65507 8.19947 4.65507H11.1246V0.920898C11.1246 0.644756 11.3484 0.420898 11.6246 0.420898ZM8.35137 7.38924V5.65507H20.288V7.38924C20.288 10.6855 17.6159 13.3576 14.3197 13.3576C11.0235 13.3576 8.35137 10.6855 8.35137 7.38924Z" fill="black"/>
</svg>
