<svg width="24" height="25" viewBox="0 0 24 25" fill="none" xmlns="http://www.w3.org/2000/svg">
<path d="M12.8746 1.9209C12.8746 1.23054 12.3149 0.670898 11.6246 0.670898C10.9342 0.670898 10.3746 1.23054 10.3746 1.9209V5.15507H12.8746V1.9209Z" fill="black"/>
<path d="M8.6356 6.15507C8.20248 6.15507 7.85137 6.50618 7.85137 6.93929V8.38924C7.85137 11.5968 10.1861 14.259 13.2488 14.7693C13.2488 14.7693 13.2488 14.7693 13.2488 14.7693C13.5971 14.8274 13.9549 14.8576 14.3197 14.8576C17.892 14.8576 20.788 11.9616 20.788 8.38924V6.93056C20.7833 6.50147 20.434 6.15507 20.0038 6.15507H8.6356Z" fill="black"/>
<path d="M18.2648 5.15507H15.7648V1.9209C15.7648 1.23054 16.3245 0.670898 17.0148 0.670898C17.7052 0.670898 18.2648 1.23054 18.2648 1.9209V5.15507Z" fill="black"/>
<path d="M15.7379 15.7231C15.2787 15.8114 14.8046 15.8576 14.3197 15.8576C13.9508 15.8576 13.5881 15.8308 13.2335 15.7792C13.2187 16.1528 13.1907 16.3633 13.1386 16.5412C12.8753 17.441 12.1717 18.1446 11.2719 18.408C10.9369 18.506 10.486 18.5187 9.0492 18.5187L7.69813 18.5187C7.49629 18.5187 7.34986 18.5187 7.21924 18.5252C4.5242 18.6588 2.36933 20.8137 2.23569 23.5087C2.22922 23.6393 2.22923 23.7858 2.22925 23.9876L2.22925 24.0211H4.72925C4.72925 23.7718 4.72964 23.6928 4.73263 23.6325C4.80263 22.2208 5.93137 21.0921 7.34306 21.0221C7.40332 21.0191 7.4823 21.0187 7.73158 21.0187L9.24158 21.0188C10.4028 21.0194 11.2481 21.0198 11.9742 20.8073C13.6919 20.3045 15.0352 18.9613 15.538 17.2435C15.6687 16.797 15.7188 16.3055 15.7379 15.7231Z" fill="black"/>
</svg>
