<svg width="24" height="25" viewBox="0 0 24 25" fill="none" xmlns="http://www.w3.org/2000/svg">
<path fill-rule="evenodd" clip-rule="evenodd" d="M11.6246 0.920898C12.1769 0.920898 12.6246 1.36861 12.6246 1.9209V5.15507H16.0148V1.9209C16.0148 1.36861 16.4626 0.920898 17.0148 0.920898C17.5671 0.920898 18.0148 1.36861 18.0148 1.9209V5.15507H20.4399C21.1845 5.15507 21.788 5.75863 21.788 6.50317V8.38924C21.788 12.1171 19.0568 15.207 15.4862 15.767C15.4665 16.3133 15.4178 16.7643 15.2981 17.1733C14.8192 18.8092 13.5399 20.0886 11.9039 20.5674C11.2135 20.7695 10.4036 20.7692 9.2172 20.7688L7.73158 20.7687C7.4853 20.7687 7.39868 20.769 7.33068 20.7724C5.79065 20.8488 4.5593 22.0801 4.48293 23.6201C4.47956 23.6882 4.47925 23.7748 4.47925 24.0211H2.47925L2.47925 23.9919C2.47924 23.7858 2.47923 23.6453 2.48539 23.5211C2.61266 20.9544 4.66492 18.9021 7.23163 18.7749C7.35583 18.7687 7.4962 18.7687 7.70242 18.7687L9.04921 18.7687C10.4685 18.7687 10.9641 18.7586 11.3421 18.6479C12.3237 18.3606 13.0913 17.593 13.3786 16.6115C13.4362 16.4146 13.4666 16.1858 13.4825 15.8112C9.75191 15.395 6.85137 12.2308 6.85137 8.38924V6.50317C6.85137 5.75863 7.45493 5.15507 8.19947 5.15507H10.6246V1.9209C10.6246 1.36861 11.0723 0.920898 11.6246 0.920898ZM8.85137 8.38924V7.15507H19.788V8.38924C19.788 11.4093 17.3398 13.8576 14.3197 13.8576C11.2996 13.8576 8.85137 11.4093 8.85137 8.38924Z" fill="black"/>
</svg>
