<svg width="24" height="24" viewBox="0 0 24 24" fill="none" xmlns="http://www.w3.org/2000/svg">
<path fill-rule="evenodd" clip-rule="evenodd" d="M11.6246 0.170898C12.0388 0.170898 12.3746 0.506685 12.3746 0.920898V4.40507H16.2648V0.920898C16.2648 0.506685 16.6006 0.170898 17.0148 0.170898C17.4291 0.170898 17.7648 0.506685 17.7648 0.920898V4.40507H20.4399C21.0464 4.40507 21.538 4.8967 21.538 5.50317V7.38924C21.538 11.0633 18.7932 14.0962 15.2423 14.5492C15.2279 15.1822 15.1852 15.669 15.0581 16.103C14.6032 17.6572 13.3879 18.8726 11.8337 19.3275C11.1787 19.5192 10.4037 19.519 9.18745 19.5187L7.73158 19.5187C7.4883 19.5187 7.39404 19.519 7.31829 19.5227C5.64993 19.6054 4.31597 20.9394 4.23324 22.6078C4.22948 22.6835 4.22925 22.7778 4.22925 23.0211H2.72925V22.997C2.72924 22.7857 2.72924 22.6513 2.73508 22.5335C2.85599 20.0951 4.80563 18.1455 7.244 18.0246C7.36183 18.0187 7.49622 18.0187 7.70758 18.0187L9.0492 18.0187C10.4509 18.0187 10.9912 18.0111 11.4123 17.8879C12.4757 17.5766 13.3073 16.7451 13.6185 15.6817C13.6949 15.4207 13.7269 15.1139 13.7401 14.5846C10.0246 14.2895 7.10137 11.1807 7.10137 7.38924V5.50317C7.10137 4.8967 7.593 4.40507 8.19947 4.40507H10.8746V0.920898C10.8746 0.506685 11.2104 0.170898 11.6246 0.170898ZM8.60137 7.38924V5.90507H20.038V7.38924C20.038 10.5474 17.4779 13.1076 14.3197 13.1076C11.1616 13.1076 8.60137 10.5474 8.60137 7.38924Z" fill="black"/>
</svg>
