<svg width="24" height="24" viewBox="0 0 24 24" fill="none" xmlns="http://www.w3.org/2000/svg">
<path fill-rule="evenodd" clip-rule="evenodd" d="M11.6248 0.420898C11.9009 0.420898 12.1248 0.644756 12.1248 0.920898V4.65507H16.5151V0.920898C16.5151 0.644756 16.7389 0.420898 17.0151 0.420898C17.2912 0.420898 17.5151 0.644756 17.5151 0.920898V4.65507H20.4402C20.9086 4.65507 21.2883 5.03477 21.2883 5.50317V7.38924C21.2883 11.0096 18.5274 13.9851 14.9962 14.3252C14.9867 15.0611 14.9512 15.5793 14.8184 16.0328C14.3875 17.5052 13.2361 18.6566 11.7637 19.0875C11.1439 19.2689 10.4032 19.2689 9.15132 19.2687L7.73182 19.2687C7.49153 19.2687 7.38965 19.2689 7.30615 19.273C5.50946 19.3621 4.07288 20.7987 3.98379 22.5954C3.97965 22.6789 3.97949 22.7808 3.97949 23.0211H2.97949V23.0034C2.97949 22.7859 2.97949 22.6573 2.98502 22.5459C3.09956 20.2358 4.94659 18.3888 7.25663 18.2742C7.36812 18.2687 7.49662 18.2687 7.71415 18.2687H9.04945C10.4336 18.2687 11.0187 18.2636 11.4828 18.1278C12.628 17.7926 13.5235 16.8971 13.8587 15.7519C13.9546 15.4243 13.9853 15.0365 13.9951 14.3501C10.2974 14.1805 7.35161 11.1289 7.35161 7.38924V5.50317C7.35161 5.03478 7.73132 4.65507 8.19971 4.65507H11.1248V0.920898C11.1248 0.644756 11.3487 0.420898 11.6248 0.420898ZM8.35161 7.38924V5.65507H20.2883V7.38924C20.2883 10.6855 17.6162 13.3576 14.3199 13.3576C11.0237 13.3576 8.35161 10.6855 8.35161 7.38924Z" fill="black"/>
</svg>
