<svg width="24" height="24" viewBox="0 0 24 24" fill="none" xmlns="http://www.w3.org/2000/svg">
<path fill-rule="evenodd" clip-rule="evenodd" d="M13.7615 5.22483L12.3115 11.75L15.9775 11.75C16.6016 11.75 16.9527 12.4678 16.5695 12.9605L11.5623 19.3983C11.0711 20.0299 10.0646 19.5562 10.2382 18.7752L11.6882 12.25H8.02217C7.39806 12.25 7.04698 11.5322 7.43015 11.0395L12.4374 4.60167C12.9286 3.97011 13.9351 4.44378 13.7615 5.22483ZM12.8321 4.90864C12.9958 4.69813 13.3313 4.85601 13.2734 5.11636L11.7993 11.75H8.02217C7.81413 11.75 7.69711 11.5107 7.82483 11.3465L12.8321 4.90864ZM10.7262 18.8836L12.2004 12.25L15.9775 12.25C16.1856 12.25 16.3026 12.4893 16.1749 12.6535L11.1676 19.0914C11.0039 19.3019 10.6684 19.144 10.7262 18.8836Z" fill="black"/>
<path fill-rule="evenodd" clip-rule="evenodd" d="M23.5 12C23.5 18.3513 18.3513 23.5 12 23.5C5.64873 23.5 0.5 18.3513 0.5 12C0.5 5.64873 5.64873 0.5 12 0.5C18.3513 0.5 23.5 5.64873 23.5 12ZM23 12C23 18.0751 18.0751 23 12 23C5.92487 23 1 18.0751 1 12C1 5.92487 5.92487 1 12 1C18.0751 1 23 5.92487 23 12Z" fill="black"/>
</svg>
