<svg width="24" height="24" viewBox="0 0 24 24" fill="none" xmlns="http://www.w3.org/2000/svg">
<path fill-rule="evenodd" clip-rule="evenodd" d="M0.123117 8.43565C0 9.21298 0 10.142 0 12C0 13.858 0 14.787 0.123117 15.5643C0.800832 19.8433 4.15673 23.1992 8.43565 23.8769C9.21298 24 10.142 24 12 24C13.858 24 14.787 24 15.5643 23.8769C19.8433 23.1992 23.1992 19.8433 23.8769 15.5643C24 14.787 24 13.858 24 12C24 10.142 24 9.21298 23.8769 8.43565C23.1992 4.15673 19.8433 0.800832 15.5643 0.123117C14.787 0 13.858 0 12 0C10.142 0 9.21298 0 8.43565 0.123117C4.15673 0.800832 0.800832 4.15673 0.123117 8.43565ZM11.7499 3.99023C12.0951 3.99023 12.3749 4.27006 12.3749 4.61523V6.43704H11.1249V4.61523C11.1249 4.27006 11.4047 3.99023 11.7499 3.99023ZM9.75723 7.43736C9.46848 7.43736 9.23441 7.67144 9.23441 7.96018V8.92681C9.23441 9.07328 9.24171 9.21804 9.25597 9.36075C9.47374 11.5384 11.3116 13.2387 13.5466 13.2387C15.9282 13.2387 17.8588 11.3081 17.8588 8.92648V7.9543C17.8557 7.66826 17.6228 7.43736 17.336 7.43736H9.75723ZM14.7181 4.61523V6.43704H15.9681V4.61523C15.9681 4.27006 15.6883 3.99023 15.3431 3.99023C14.9979 3.99023 14.7181 4.27006 14.7181 4.61523ZM13.5466 14.2387C13.3666 14.2387 13.1886 14.2298 13.0132 14.2123C12.994 14.4231 12.9641 14.5592 12.9238 14.6674C12.7338 15.1783 12.3309 15.5812 11.8201 15.7712C11.691 15.8192 11.5224 15.8526 11.2345 15.8704C10.9417 15.8885 10.5685 15.8888 10.033 15.8888L9.1158 15.8888C8.8421 15.8887 8.65574 15.8887 8.49149 15.9061C7.0253 16.0609 5.86677 17.2194 5.71194 18.6856C5.6946 18.8499 5.69462 19.0362 5.69466 19.3099L5.69466 19.3487H6.94466C6.94466 19.0217 6.94554 18.9068 6.95503 18.8169C7.04793 17.9372 7.74304 17.242 8.62276 17.1492C8.71269 17.1397 8.8276 17.1388 9.15455 17.1388H10.053C10.5638 17.1388 10.9758 17.1388 11.3118 17.118C11.6571 17.0966 11.9632 17.0516 12.2558 16.9428C13.1072 16.6261 13.7787 15.9546 14.0954 15.1032C14.2009 14.8194 14.2465 14.5228 14.2686 14.1901C14.0325 14.2221 13.7915 14.2387 13.5466 14.2387Z" fill="black"/>
</svg>
