<svg width="24" height="24" viewBox="0 0 24 24" fill="none" xmlns="http://www.w3.org/2000/svg">
<path fill-rule="evenodd" clip-rule="evenodd" d="M12.6231 11.5L14.5898 2.64994C14.8658 1.40808 13.2654 0.654973 12.4844 1.65914L5.54954 10.5754C4.94032 11.3587 5.49851 12.5 6.49083 12.5H11.3765L9.40982 21.35C9.13385 22.5919 10.7342 23.345 11.5152 22.3408L18.4501 13.4246C19.0593 12.6413 18.5011 11.5 17.5088 11.5L12.6231 11.5ZM13.3822 2.19885C13.3521 2.20489 13.3139 2.22146 13.2738 2.27308L6.3389 11.1893C6.24056 11.3158 6.33066 11.5 6.49083 11.5H11.5987L13.6136 2.43301C13.6278 2.36917 13.6162 2.32922 13.6017 2.30212C13.5845 2.27013 13.5525 2.23821 13.5077 2.21709C13.4628 2.19598 13.4178 2.19171 13.3822 2.19885ZM12.4009 12.5L10.386 21.567C10.3718 21.6308 10.3834 21.6708 10.3979 21.6979C10.4151 21.7299 10.4471 21.7618 10.4919 21.7829C10.5368 21.804 10.5818 21.8083 10.6174 21.8011C10.6475 21.7951 10.6857 21.7785 10.7258 21.7269L17.6607 12.8107C17.759 12.6842 17.6689 12.5 17.5088 12.5L12.4009 12.5Z" fill="black"/>
</svg>
