<svg width="24" height="24" viewBox="0 0 24 24" fill="none" xmlns="http://www.w3.org/2000/svg">
<path fill-rule="evenodd" clip-rule="evenodd" d="M12.3115 11.7499L14.4144 2.28675C14.6378 1.2817 13.3426 0.672181 12.7105 1.48488L5.5492 10.6923C5.05614 11.3262 5.5079 12.2499 6.311 12.2499H11.6882L9.58527 21.713C9.36193 22.718 10.6571 23.3276 11.2892 22.5149L18.4505 13.3075C18.9435 12.6735 18.4918 11.7499 17.6887 11.7499L12.3115 11.7499ZM13.9263 2.17828C14.034 1.69393 13.4098 1.4002 13.1052 1.79185L5.94387 10.9992C5.70626 11.3047 5.92397 11.7499 6.311 11.7499H11.7993L13.9263 2.17828ZM12.2004 12.2499L10.0734 21.8215C9.96573 22.3058 10.5899 22.5995 10.8945 22.2079L18.0558 13.0005C18.2934 12.695 18.0757 12.2499 17.6887 12.2499L12.2004 12.2499Z" fill="black"/>
</svg>
