<svg width="24" height="24" viewBox="0 0 24 24" fill="none" xmlns="http://www.w3.org/2000/svg">
<path d="M12.3748 0.920898C12.3748 0.506685 12.039 0.170898 11.6248 0.170898C11.2106 0.170898 10.8748 0.506685 10.8748 0.920898V4.15507H12.3748V0.920898Z" fill="black"/>
<path d="M8.63584 5.15507C8.20272 5.15507 7.85161 5.50618 7.85161 5.93929V7.38924C7.85161 10.7692 10.444 13.5437 13.749 13.8327C13.9371 13.8492 14.1275 13.8576 14.3199 13.8576C17.8923 13.8576 20.7882 10.9616 20.7882 7.38924V5.93038C20.7835 5.50137 20.4342 5.15507 20.0041 5.15507H8.63584Z" fill="black"/>
<path d="M17.7651 4.15507H16.2651V0.920898C16.2651 0.506685 16.6009 0.170898 17.0151 0.170898C17.4293 0.170898 17.7651 0.506685 17.7651 0.920898V4.15507Z" fill="black"/>
<path d="M15.2349 14.8021C14.935 14.8387 14.6296 14.8576 14.3199 14.8576C14.122 14.8576 13.9259 14.8499 13.7319 14.8348C13.715 15.2163 13.6822 15.4648 13.6188 15.6817C13.3075 16.7451 12.476 17.5766 11.4126 17.8879C10.9915 18.0111 10.4512 18.0187 9.04945 18.0187L7.70782 18.0187C7.49646 18.0187 7.36208 18.0187 7.24425 18.0246C4.80588 18.1455 2.85623 20.0951 2.73532 22.5335C2.72948 22.6513 2.72949 22.7856 2.72949 22.9969V23.0211H4.2295C4.2295 22.7778 4.22973 22.6835 4.23348 22.6078C4.31621 20.9394 5.65018 19.6054 7.31854 19.5227C7.39429 19.519 7.48854 19.5187 7.73183 19.5187L9.1877 19.5187C10.4039 19.519 11.179 19.5192 11.8339 19.3275C13.3881 18.8726 14.6035 17.6572 15.0584 16.103C15.1679 15.7286 15.2148 15.315 15.2349 14.8021Z" fill="black"/>
</svg>
