<svg width="24" height="24" viewBox="0 0 24 24" fill="none" xmlns="http://www.w3.org/2000/svg">
<path d="M11.8748 0.920898C11.8748 0.782827 11.7629 0.670898 11.6248 0.670898C11.4867 0.670898 11.3748 0.782827 11.3748 0.920898V4.15507H11.8748V0.920898Z" fill="black"/>
<path d="M8.63584 5.15507C8.20272 5.15507 7.85161 5.50618 7.85161 5.93929V7.38924C7.85161 10.9379 10.7094 13.8192 14.2491 13.8572C14.2726 13.8574 14.2963 13.8576 14.3199 13.8576C14.4642 13.8576 14.6074 13.8529 14.7493 13.8436C18.1215 13.6226 20.7882 10.8173 20.7882 7.38924V5.93056C20.7836 5.50147 20.4343 5.15507 20.0041 5.15507H8.63584Z" fill="black"/>
<path d="M17.2651 4.15507H16.7651V0.920898C16.7651 0.782827 16.877 0.670898 17.0151 0.670898C17.1532 0.670898 17.2651 0.782827 17.2651 0.920898V4.15507Z" fill="black"/>
<path d="M14.7325 14.8464C14.5959 14.8538 14.4583 14.8576 14.3199 14.8576C14.2904 14.8576 14.2609 14.8574 14.2315 14.8571C14.2128 15.2672 14.1751 15.5609 14.0986 15.8221C13.7395 17.0491 12.78 18.0086 11.553 18.3677C11.0458 18.5162 10.416 18.5187 9.04944 18.5187H7.72198C7.49697 18.5187 7.37422 18.5187 7.26901 18.5239C5.08731 18.6321 3.34289 20.3765 3.23471 22.5582C3.22949 22.6635 3.22949 22.7862 3.22949 23.0112V23.0211H3.72949C3.72949 22.7838 3.72957 22.6742 3.73409 22.583C3.82955 20.658 5.36874 19.1188 7.29377 19.0233C7.38502 19.0188 7.49453 19.0187 7.73182 19.0187H9.10615C10.4014 19.0188 11.1086 19.0188 11.6935 18.8476C13.0841 18.4406 14.1715 17.3532 14.5785 15.9626C14.6702 15.6494 14.7127 15.3012 14.7325 14.8464Z" fill="black"/>
</svg>
