<svg width="24" height="24" viewBox="0 0 24 24" fill="none" xmlns="http://www.w3.org/2000/svg">
<path fill-rule="evenodd" clip-rule="evenodd" d="M8.43565 23.8769C9.21298 24 10.142 24 12 24C13.858 24 14.787 24 15.5643 23.8769C19.8433 23.1992 23.1992 19.8433 23.8769 15.5643C24 14.787 24 13.858 24 12C24 10.142 24 9.21298 23.8769 8.43565C23.1992 4.15673 19.8433 0.800833 15.5643 0.123117C14.787 0 13.858 0 12 0C10.142 0 9.21298 0 8.43565 0.123117C4.15673 0.800833 0.800832 4.15673 0.123117 8.43565C0 9.21298 0 10.142 0 12C0 13.858 0 14.787 0.123117 15.5643C0.800832 19.8433 4.15673 23.1992 8.43565 23.8769ZM14.25 18.75C14.25 17.5074 13.2426 16.5 12 16.5C10.7574 16.5 9.75 17.5074 9.75 18.75C9.75 19.9927 10.7574 21 12 21C13.2426 21 14.25 19.9927 14.25 18.75ZM12 9.75002C13.2426 9.75002 14.25 10.7574 14.25 12C14.25 13.2427 13.2426 14.25 12 14.25C10.7574 14.25 9.75 13.2427 9.75 12C9.75 10.7574 10.7574 9.75002 12 9.75002ZM14.25 5.25002C14.25 4.00737 13.2426 3.00002 12 3.00002C10.7574 3.00002 9.75 4.00737 9.75 5.25002C9.75 6.49266 10.7574 7.50002 12 7.50002C13.2426 7.50002 14.25 6.49266 14.25 5.25002Z" fill="black"/>
</svg>
