<svg width="24" height="24" viewBox="0 0 24 24" fill="none" xmlns="http://www.w3.org/2000/svg">
<path fill-rule="evenodd" clip-rule="evenodd" d="M8.43565 23.8769C9.21298 24 10.142 24 12 24C13.858 24 14.787 24 15.5643 23.8769C19.8433 23.1992 23.1992 19.8433 23.8769 15.5643C24 14.787 24 13.858 24 12C24 10.142 24 9.21298 23.8769 8.43565C23.1992 4.15673 19.8433 0.800833 15.5643 0.123117C14.787 0 13.858 0 12 0C10.142 0 9.21298 0 8.43565 0.123117C4.15673 0.800833 0.800832 4.15673 0.123117 8.43565C0 9.21298 0 10.142 0 12C0 13.858 0 14.787 0.123117 15.5643C0.800832 19.8433 4.15673 23.1992 8.43565 23.8769ZM12.875 18.125C12.875 17.6418 12.4832 17.25 12 17.25C11.5168 17.25 11.125 17.6418 11.125 18.125C11.125 18.6083 11.5168 19 12 19C12.4832 19 12.875 18.6083 12.875 18.125ZM12 11.125C12.4832 11.125 12.875 11.5168 12.875 12C12.875 12.4833 12.4832 12.875 12 12.875C11.5168 12.875 11.125 12.4833 11.125 12C11.125 11.5168 11.5168 11.125 12 11.125ZM12.875 5.87502C12.875 5.39177 12.4832 5.00002 12 5.00002C11.5168 5.00002 11.125 5.39177 11.125 5.87502C11.125 6.35826 11.5168 6.75002 12 6.75002C12.4832 6.75002 12.875 6.35826 12.875 5.87502Z" fill="black"/>
</svg>
