<svg width="24" height="24" viewBox="0 0 24 24" fill="none" xmlns="http://www.w3.org/2000/svg">
<path d="M5 12C5 13.3807 3.88071 14.5 2.5 14.5C1.11929 14.5 0 13.3807 0 12C0 10.6193 1.11929 9.5 2.5 9.5C3.88071 9.5 5 10.6193 5 12Z" fill="black"/>
<path d="M14.5 12C14.5 13.3807 13.3807 14.5 12 14.5C10.6193 14.5 9.5 13.3807 9.5 12C9.5 10.6193 10.6193 9.5 12 9.5C13.3807 9.5 14.5 10.6193 14.5 12Z" fill="black"/>
<path d="M21.5 14.5C22.8807 14.5 24 13.3807 24 12C24 10.6193 22.8807 9.5 21.5 9.5C20.1193 9.5 19 10.6193 19 12C19 13.3807 20.1193 14.5 21.5 14.5Z" fill="black"/>
</svg>
