<svg width="24" height="24" viewBox="0 0 24 24" fill="none" xmlns="http://www.w3.org/2000/svg">
<path fill-rule="evenodd" clip-rule="evenodd" d="M0.123117 8.43565C0 9.21298 0 10.142 0 12C0 13.858 0 14.787 0.123117 15.5643C0.800832 19.8433 4.15673 23.1992 8.43565 23.8769C9.21298 24 10.142 24 12 24C13.858 24 14.787 24 15.5643 23.8769C19.8433 23.1992 23.1992 19.8433 23.8769 15.5643C24 14.787 24 13.858 24 12C24 10.142 24 9.21298 23.8769 8.43565C23.1992 4.15673 19.8433 0.800832 15.5643 0.123117C14.787 0 13.858 0 12 0C10.142 0 9.21298 0 8.43565 0.123117C4.15673 0.800832 0.800832 4.15673 0.123117 8.43565ZM5.24998 13.25C5.94034 13.25 6.49998 12.6904 6.49998 12C6.49998 11.3096 5.94034 10.75 5.24998 10.75C4.55963 10.75 3.99998 11.3096 3.99998 12C3.99998 12.6904 4.55963 13.25 5.24998 13.25ZM13.25 12C13.25 12.6904 12.6903 13.25 12 13.25C11.3096 13.25 10.75 12.6904 10.75 12C10.75 11.3096 11.3096 10.75 12 10.75C12.6903 10.75 13.25 11.3096 13.25 12ZM18.75 13.25C19.4403 13.25 20 12.6904 20 12C20 11.3096 19.4403 10.75 18.75 10.75C18.0596 10.75 17.5 11.3096 17.5 12C17.5 12.6904 18.0596 13.25 18.75 13.25Z" fill="black"/>
</svg>
