<svg width="24" height="24" viewBox="0 0 24 24" fill="none" xmlns="http://www.w3.org/2000/svg">
<path fill-rule="evenodd" clip-rule="evenodd" d="M0.123117 8.43565C0 9.21298 0 10.142 0 12C0 13.858 0 14.787 0.123117 15.5643C0.800832 19.8433 4.15673 23.1992 8.43565 23.8769C9.21298 24 10.142 24 12 24C13.858 24 14.787 24 15.5643 23.8769C19.8433 23.1992 23.1992 19.8433 23.8769 15.5643C24 14.787 24 13.858 24 12C24 10.142 24 9.21298 23.8769 8.43565C23.1992 4.15673 19.8433 0.800832 15.5643 0.123117C14.787 0 13.858 0 12 0C10.142 0 9.21298 0 8.43565 0.123117C4.15673 0.800832 0.800832 4.15673 0.123117 8.43565ZM5.74998 13.75C6.71648 13.75 7.49998 12.9665 7.49998 12C7.49998 11.0335 6.71648 10.25 5.74998 10.25C4.78349 10.25 3.99998 11.0335 3.99998 12C3.99998 12.9665 4.78349 13.75 5.74998 13.75ZM13.75 12C13.75 12.9665 12.9665 13.75 12 13.75C11.0335 13.75 10.25 12.9665 10.25 12C10.25 11.0335 11.0335 10.25 12 10.25C12.9665 10.25 13.75 11.0335 13.75 12ZM18.25 13.75C19.2165 13.75 20 12.9665 20 12C20 11.0335 19.2165 10.25 18.25 10.25C17.2835 10.25 16.5 11.0335 16.5 12C16.5 12.9665 17.2835 13.75 18.25 13.75Z" fill="black"/>
</svg>
