<svg width="24" height="24" viewBox="0 0 24 24" fill="none" xmlns="http://www.w3.org/2000/svg">
<path d="M12 21C12.2761 21 12.5 21.2239 12.5 21.5C12.5 21.7761 12.2761 22 12 22C11.7239 22 11.5 21.7761 11.5 21.5C11.5 21.2239 11.7239 21 12 21Z" fill="black"/>
<path d="M12 11.5C12.2761 11.5 12.5 11.7239 12.5 12C12.5 12.2761 12.2761 12.5 12 12.5C11.7239 12.5 11.5 12.2761 11.5 12C11.5 11.7239 11.7239 11.5 12 11.5Z" fill="black"/>
<path d="M12.5 2.5C12.5 2.22386 12.2761 2 12 2C11.7239 2 11.5 2.22386 11.5 2.5C11.5 2.77614 11.7239 3 12 3C12.2761 3 12.5 2.77614 12.5 2.5Z" fill="black"/>
</svg>
