<svg width="24" height="24" viewBox="0 0 24 24" fill="none" xmlns="http://www.w3.org/2000/svg">
<path d="M12 18C13.6568 18 15 19.3431 15 21C15 22.6568 13.6568 24 12 24C10.3431 24 8.99997 22.6568 8.99997 21C8.99997 19.3431 10.3431 18 12 18Z" fill="black"/>
<path d="M12 8.99998C13.6568 8.99998 15 10.3431 15 12C15 13.6568 13.6568 15 12 15C10.3431 15 8.99997 13.6568 8.99997 12C8.99997 10.3431 10.3431 8.99998 12 8.99998Z" fill="black"/>
<path d="M12 -1.52588e-05C13.6568 -1.51864e-05 15 1.34313 15 2.99998C15 4.65684 13.6568 5.99998 12 5.99998C10.3431 5.99998 8.99997 4.65684 8.99997 2.99998C8.99997 1.34313 10.3431 -1.50735e-05 12 -1.52588e-05Z" fill="black"/>
</svg>
