<svg width="24" height="24" viewBox="0 0 24 24" fill="none" xmlns="http://www.w3.org/2000/svg">
<path fill-rule="evenodd" clip-rule="evenodd" d="M0.123117 8.43565C0 9.21298 0 10.142 0 12C0 13.858 0 14.787 0.123117 15.5643C0.800832 19.8433 4.15673 23.1992 8.43565 23.8769C9.21298 24 10.142 24 12 24C13.858 24 14.787 24 15.5643 23.8769C19.8433 23.1992 23.1992 19.8433 23.8769 15.5643C24 14.787 24 13.858 24 12C24 10.142 24 9.21298 23.8769 8.43565C23.1992 4.15673 19.8433 0.800832 15.5643 0.123117C14.787 0 13.858 0 12 0C10.142 0 9.21298 0 8.43565 0.123117C4.15673 0.800832 0.800832 4.15673 0.123117 8.43565ZM5.24998 14.25C6.49263 14.25 7.49998 13.2426 7.49998 12C7.49998 10.7574 6.49263 9.75 5.24998 9.75C4.00734 9.75 2.99998 10.7574 2.99998 12C2.99998 13.2426 4.00734 14.25 5.24998 14.25ZM14.25 12C14.25 13.2426 13.2426 14.25 12 14.25C10.7573 14.25 9.74998 13.2426 9.74998 12C9.74998 10.7574 10.7573 9.75 12 9.75C13.2426 9.75 14.25 10.7574 14.25 12ZM18.75 14.25C19.9926 14.25 21 13.2426 21 12C21 10.7574 19.9926 9.75 18.75 9.75C17.5073 9.75 16.5 10.7574 16.5 12C16.5 13.2426 17.5073 14.25 18.75 14.25Z" fill="black"/>
</svg>
