<svg width="24" height="24" viewBox="0 0 24 24" fill="none" xmlns="http://www.w3.org/2000/svg">
<path fill-rule="evenodd" clip-rule="evenodd" d="M12 0C13.858 0 14.7871 -6.97747e-05 15.5645 0.123047C19.8433 0.800792 23.1992 4.1567 23.877 8.43555C24.0001 9.21287 24 10.142 24 12C24 13.858 24.0001 14.7871 23.877 15.5645C23.1992 19.8433 19.8433 23.1992 15.5645 23.877C14.7871 24.0001 13.858 24 12 24C10.142 24 9.21287 24.0001 8.43555 23.877C4.1567 23.1992 0.800792 19.8433 0.123047 15.5645C-6.97747e-05 14.7871 0 13.858 0 12C0 10.142 -6.97747e-05 9.21287 0.123047 8.43555C0.800792 4.1567 4.1567 0.800792 8.43555 0.123047C9.21287 -6.97747e-05 10.142 0 12 0ZM5.25 9.25C3.73122 9.25 2.5 10.4812 2.5 12C2.5 13.5188 3.73122 14.75 5.25 14.75C6.76878 14.75 8 13.5188 8 12C8 10.4812 6.76878 9.25 5.25 9.25ZM12 9.25C10.4812 9.25 9.25 10.4812 9.25 12C9.25 13.5188 10.4812 14.75 12 14.75C13.5188 14.75 14.75 13.5188 14.75 12C14.75 10.4812 13.5188 9.25 12 9.25ZM18.75 9.25C17.2312 9.25 16 10.4812 16 12C16 13.5188 17.2312 14.75 18.75 14.75C20.2688 14.75 21.5 13.5188 21.5 12C21.5 10.4812 20.2688 9.25 18.75 9.25Z" fill="black"/>
</svg>
