<svg width="24" height="24" viewBox="0 0 24 24" fill="none" xmlns="http://www.w3.org/2000/svg">
<path d="M10.75 20.8737C7.9826 19.9528 4.97577 20.0135 2.2399 21.0557C1.27938 21.4216 0.25 20.7122 0.25 19.6843V6.15436C0.25 5.5427 0.627731 4.99459 1.19932 4.77684C4.26449 3.60916 7.606 3.44259 10.75 4.27715V20.8737Z" fill="black"/>
<path d="M13.25 4.27715V20.8737C16.0174 19.9528 19.0242 20.0135 21.7601 21.0557L22.055 21.168C22.4392 21.3144 22.8708 21.2625 23.2093 21.0292C23.5478 20.7959 23.75 20.4111 23.75 19.9999V5.99993C23.75 5.48125 23.4297 5.01646 22.945 4.83182L22.8007 4.77684C19.7355 3.60916 16.394 3.44259 13.25 4.27715Z" fill="black"/>
</svg>
