<svg width="24" height="24" viewBox="0 0 24 24" fill="none" xmlns="http://www.w3.org/2000/svg">
<path fill-rule="evenodd" clip-rule="evenodd" d="M12 5.19796C15.428 3.92598 19.203 3.94136 22.6227 5.24408L22.767 5.29906C23.0578 5.40985 23.25 5.68872 23.25 5.99993V19.9999C23.25 20.2466 23.1287 20.4775 22.9256 20.6175C22.7225 20.7575 22.4635 20.7886 22.233 20.7008L21.9381 20.5884C18.9185 19.4381 15.5815 19.4381 12.5619 20.5884C12.5077 20.6091 12.4532 20.6245 12.3988 20.6351C12.2 20.7599 11.9535 20.7848 11.733 20.7008L11.4381 20.5884C8.41854 19.4381 5.08146 19.4381 2.0619 20.5884C1.42865 20.8297 0.75 20.362 0.75 19.6843V6.15436C0.75 5.75017 0.999609 5.38797 1.37732 5.24408C4.79697 3.94136 8.57197 3.92598 12 5.19796ZM21.75 18.933C18.8244 17.99 15.6756 17.99 12.75 18.933V6.52191C15.6627 5.49986 18.8373 5.49986 21.75 6.52191V18.933ZM11.25 6.52191V18.933C8.32444 17.99 5.17556 17.99 2.25 18.933V6.52191C5.16275 5.49986 8.33725 5.49986 11.25 6.52191Z" fill="black"/>
</svg>
