<svg width="25" height="24" viewBox="0 0 25 24" fill="none" xmlns="http://www.w3.org/2000/svg">
<path fill-rule="evenodd" clip-rule="evenodd" d="M8.25024 8.25012V8.75012H7.00024C6.94377 8.75012 6.88763 8.75156 6.83187 8.75441L4.59905 7.51395C2.8773 6.55743 0.713485 7.45371 0.172391 9.34753C-0.202176 10.6585 0.336159 12.0591 1.49236 12.7818L3.75024 14.1929V14.5001C3.75024 16.295 5.20532 17.7501 7.00024 17.7501H14.5154C15.5245 17.7501 16.4763 17.2815 17.0915 16.4817L21.1157 11.2501H22.5002C23.1906 11.2501 23.7502 10.6905 23.7502 10.0001C23.7502 9.30977 23.1906 8.75012 22.5002 8.75012H20.3123L15.252 10.3071C14.9016 10.415 14.5245 10.2536 14.3606 9.92572L13.7728 8.75012H10.7502V8.25012H11.0002C11.6906 8.25012 12.2502 7.69048 12.2502 7.00012C12.2502 6.30977 11.6906 5.75012 11.0002 5.75012H8.00024C7.30989 5.75012 6.75024 6.30977 6.75024 7.00012C6.75024 7.69048 7.30989 8.25012 8.00024 8.25012H8.25024ZM3.38494 9.69935L4.29179 10.2032C4.07468 10.5297 3.91506 10.8978 3.82738 11.293L2.81736 10.6618C2.60612 10.5297 2.50777 10.2738 2.5762 10.0343C2.67506 9.68834 3.07038 9.52459 3.38494 9.69935ZM6.25024 13.4808C6.25047 13.4945 6.25047 13.5081 6.25024 13.5218V14.5001C6.25024 14.9143 6.58603 15.2501 7.00024 15.2501H14.5154C14.7483 15.2501 14.9679 15.142 15.1099 14.9574L17.1162 12.3492L15.9872 12.6966C14.5441 13.1406 12.997 12.5313 12.2371 11.2501H7.00024C6.58603 11.2501 6.25024 11.5859 6.25024 12.0001V13.4808Z" fill="black"/>
<path fill-rule="evenodd" clip-rule="evenodd" d="M22.3852 13.8106C22.1382 13.7259 21.8618 13.7259 21.6148 13.8106C21.4274 13.8749 21.2949 13.9743 21.2105 14.0496C21.1497 14.1038 21.0931 14.1655 21.0692 14.1915L21.0634 14.1979C20.8686 14.4091 20.5649 14.7594 20.3039 15.16C20.0696 15.5195 19.75 16.0949 19.75 16.7179C19.75 17.9542 20.7336 19 22 19C23.2664 19 24.25 17.9542 24.25 16.7179C24.25 16.0949 23.9304 15.5195 23.6961 15.16C23.4351 14.7594 23.1314 14.4091 22.9366 14.1979L22.9308 14.1915C22.9069 14.1655 22.8503 14.1037 22.7895 14.0496C22.7051 13.9743 22.5726 13.8749 22.3852 13.8106ZM21.9794 16.252L22 16.2208L22.0206 16.252C22.1075 16.3854 22.1712 16.5034 22.2109 16.6C22.2414 16.6743 22.2482 16.7132 22.2497 16.7214C22.2498 16.7222 22.2499 16.7227 22.25 16.7229C22.2475 16.8996 22.1133 17 22 17C21.8867 17 21.7525 16.8996 21.75 16.7229C21.7501 16.7227 21.7502 16.7222 21.7503 16.7214C21.7518 16.7132 21.7586 16.6744 21.7891 16.6C21.8288 16.5034 21.8925 16.3854 21.9794 16.252Z" fill="black"/>
</svg>
