<svg width="24" height="24" viewBox="0 0 24 24" fill="none" xmlns="http://www.w3.org/2000/svg">
<path d="M14.1768 21.8232C13.7085 21.3549 13.1268 21.069 12.5202 20.9656C12.382 20.975 12.2426 20.9797 12.1021 20.9797C11.9152 20.9797 11.7303 20.9713 11.5477 20.9548C10.9166 21.048 10.309 21.3375 9.82323 21.8232L9.75665 21.8898C8.78648 22.86 7.21353 22.86 6.24336 21.8898C5.0227 20.6691 3.02407 20.7357 1.88729 22.0348L1.81186 22.121C1.72094 22.2249 1.73147 22.3829 1.83537 22.4738C1.93928 22.5647 2.09722 22.5542 2.18815 22.4503L2.26358 22.3641C3.2099 21.2826 4.87366 21.2272 5.8898 22.2433C7.05524 23.4088 8.94477 23.4088 10.1102 22.2433L10.1768 22.1768C11.1837 21.1698 12.8163 21.1698 13.8232 22.1768L13.8898 22.2433C15.0552 23.4088 16.9448 23.4088 18.1102 22.2433C19.1263 21.2272 20.7901 21.2826 21.7364 22.3641L21.8119 22.4503C21.9028 22.5542 22.0607 22.5647 22.1646 22.4738C22.2685 22.3829 22.2791 22.2249 22.1881 22.121L22.1127 22.0348C20.9759 20.7357 18.9773 20.6691 17.7566 21.8898C16.7865 22.86 15.2135 22.86 14.2434 21.8898L14.1768 21.8232Z" fill="black"/>
<path d="M18.1102 17.2436C17.9209 17.4329 17.7125 17.5914 17.4912 17.7192C17.651 17.4145 17.7858 17.0945 17.8928 16.762C19.1215 15.6758 21.0173 15.7831 22.1127 17.035L22.1881 17.1212C22.2791 17.2252 22.2685 17.3831 22.1646 17.474C22.0607 17.5649 21.9028 17.5544 21.8119 17.4505L21.7364 17.3643C20.7901 16.2828 19.1263 16.2274 18.1102 17.2436Z" fill="black"/>
<path d="M6.24336 16.89C6.29682 16.9435 6.35211 16.994 6.40903 17.0416C6.51616 17.326 6.64399 17.6003 6.79069 17.8625C6.46386 17.7178 6.1577 17.5115 5.8898 17.2436C4.87366 16.2274 3.2099 16.2828 2.26358 17.3643L2.18815 17.4505C2.09722 17.5544 1.93928 17.5649 1.83537 17.474C1.73147 17.3831 1.72094 17.2252 1.81186 17.1212L1.88729 17.035C3.02407 15.7359 5.0227 15.6694 6.24336 16.89Z" fill="black"/>
<path d="M12.1021 15.6483C12.5163 15.6483 12.8521 15.3125 12.8521 14.8983C12.8521 14.4841 12.5163 14.1483 12.1021 14.1483C11.6879 14.1483 11.3521 14.4841 11.3521 14.8983C11.3521 15.3125 11.6879 15.6483 12.1021 15.6483Z" fill="black"/>
<path fill-rule="evenodd" clip-rule="evenodd" d="M12.1019 0.770477C10.6113 0.770477 9.40293 1.97884 9.40294 3.46942V11.343C9.40294 11.4986 9.40109 11.5314 9.39552 11.5538C9.38737 11.5865 9.38165 11.5997 9.36346 11.6282C9.35141 11.647 9.32046 11.679 9.18364 11.8082C8.36395 12.5827 7.85193 13.6807 7.85193 14.8979C7.85193 17.2451 9.75473 19.1479 12.1019 19.1479C14.4492 19.1479 16.352 17.2451 16.352 14.8979C16.352 13.6807 15.8399 12.5826 15.0201 11.8081C14.8833 11.6789 14.8524 11.6469 14.8403 11.628C14.8221 11.5996 14.8164 11.5864 14.8082 11.5536C14.8027 11.5313 14.8008 11.4985 14.8008 11.3429L14.8008 3.46942C14.8008 1.97884 13.5925 0.770477 12.1019 0.770477ZM9.90294 3.46942C9.90293 2.25498 10.8874 1.27048 12.1019 1.27048C13.3163 1.27048 14.3008 2.25498 14.3008 3.46942L14.3008 11.3681C14.3007 11.484 14.3006 11.5843 14.3231 11.6745C14.3444 11.76 14.3717 11.8235 14.4193 11.8977C14.4695 11.9761 14.553 12.0548 14.6531 12.1493L14.6768 12.1716C15.4007 12.8556 15.852 13.8239 15.852 14.8979C15.852 16.969 14.173 18.6479 12.1019 18.6479C10.0309 18.6479 8.35193 16.969 8.35193 14.8979C8.35193 13.8239 8.80313 12.8557 9.52703 12.1717L9.55066 12.1494C9.65081 12.0549 9.7343 11.9762 9.78451 11.8978C9.83203 11.8236 9.8594 11.7601 9.8807 11.6746C9.90316 11.5844 9.90307 11.4841 9.90295 11.3683L9.90294 3.46942Z" fill="black"/>
<path d="M18.0002 4.44384C17.8621 4.44384 17.7502 4.55576 17.7502 4.69384C17.7502 4.83191 17.8621 4.94384 18.0002 4.94384H21.6736C21.8117 4.94384 21.9236 4.83191 21.9236 4.69384C21.9236 4.55576 21.8117 4.44384 21.6736 4.44384L18.0002 4.44384Z" fill="black"/>
<path d="M18.0002 7.44384C17.8621 7.44384 17.7502 7.55577 17.7502 7.69384C17.7502 7.83191 17.8621 7.94384 18.0002 7.94384H20.8573C20.9954 7.94384 21.1073 7.83191 21.1073 7.69384C21.1073 7.55577 20.9954 7.44384 20.8573 7.44384H18.0002Z" fill="black"/>
</svg>
