<svg width="24" height="24" viewBox="0 0 24 24" fill="none" xmlns="http://www.w3.org/2000/svg">
<path fill-rule="evenodd" clip-rule="evenodd" d="M10.0002 7.50012H11.0002C11.2763 7.50012 11.5002 7.27626 11.5002 7.00012C11.5002 6.72398 11.2763 6.50012 11.0002 6.50012H8.00018C7.72404 6.50012 7.50018 6.72398 7.50018 7.00012C7.50018 7.27626 7.72404 7.50012 8.00018 7.50012H9.00018V9.50012H7.00018C6.88787 9.50012 6.77729 9.50753 6.6689 9.52188L4.23475 8.16957C2.93516 7.44758 1.30189 8.1241 0.893472 9.55357C0.610745 10.5431 1.01708 11.6003 1.88979 12.1458L4.50018 13.7772V14.5001C4.50018 15.8808 5.61947 17.0001 7.00018 17.0001H14.5154C15.2915 17.0001 16.0237 16.6396 16.4969 16.0244L20.7464 10.5001H22.5002C22.7763 10.5001 23.0002 10.2763 23.0002 10.0001C23.0002 9.72398 22.7763 9.50012 22.5002 9.50012H20.425L15.4725 11.024C14.7716 11.2396 14.0176 10.917 13.6897 10.2611L13.3092 9.50012H10.0002V7.50012ZM3.74911 9.04373L5.48752 10.0095C4.8875 10.4662 4.50018 11.1879 4.50018 12.0001V12.598L2.41979 11.2978C1.92507 10.9886 1.69472 10.3892 1.855 9.82829C2.08652 9.01795 3.01239 8.63444 3.74911 9.04373ZM5.50018 14.5001C5.50018 15.3285 6.17175 16.0001 7.00018 16.0001H14.5154C14.9811 16.0001 15.4204 15.7838 15.7043 15.4147L19.1466 10.9397L15.7666 11.9798C14.5985 12.3392 13.3418 11.8014 12.7953 10.7083L12.6912 10.5001H7.00018C6.17175 10.5001 5.50018 11.1717 5.50018 12.0001V14.5001Z" fill="black"/>
<path fill-rule="evenodd" clip-rule="evenodd" d="M22.2229 13.2836C22.0811 13.235 21.9188 13.235 21.777 13.2836C21.6019 13.3436 21.4828 13.4783 21.4408 13.5258L21.4309 13.5369C21.2451 13.7384 20.9622 14.0656 20.7227 14.4331C20.4966 14.78 20.2499 15.25 20.2499 15.7179C20.2499 16.6901 21.0216 17.5 21.9999 17.5C22.9783 17.5 23.7499 16.6901 23.7499 15.7179C23.7499 15.25 23.5033 14.78 23.2772 14.4331C23.0377 14.0656 22.7548 13.7384 22.569 13.5369L22.5591 13.5258C22.5171 13.4783 22.3979 13.3436 22.2229 13.2836ZM21.5605 14.9791C21.6985 14.7673 21.8587 14.5656 21.9999 14.4013C22.1412 14.5656 22.3014 14.7673 22.4394 14.9791C22.6492 15.3009 22.7499 15.5602 22.7499 15.7179C22.7499 16.1619 22.4023 16.5 21.9999 16.5C21.5976 16.5 21.2499 16.1619 21.2499 15.7179C21.2499 15.5602 21.3507 15.3009 21.5605 14.9791Z" fill="black"/>
</svg>
