<svg width="24" height="24" viewBox="0 0 24 24" fill="none" xmlns="http://www.w3.org/2000/svg">
<path fill-rule="evenodd" clip-rule="evenodd" d="M9.75016 7.25012H11.0002C11.1382 7.25012 11.2502 7.13819 11.2502 7.00012C11.2502 6.86205 11.1382 6.75012 11.0002 6.75012H8.00016C7.86209 6.75012 7.75016 6.86205 7.75016 7.00012C7.75016 7.13819 7.86209 7.25012 8.00016 7.25012H9.25016V9.75012H7.00016C6.87126 9.75012 6.74489 9.76096 6.62192 9.78178L4.11332 8.38811C2.95445 7.74429 1.49803 8.34756 1.13383 9.62225C0.881718 10.5047 1.24406 11.4474 2.02227 11.9338L4.75016 13.6387V14.5001C4.75016 15.7428 5.75752 16.7501 7.00016 16.7501H14.5154C15.2139 16.7501 15.8728 16.4257 16.2988 15.872L20.6233 10.2501H22.5002C22.6382 10.2501 22.7502 10.1382 22.7502 10.0001C22.7502 9.86205 22.6382 9.75012 22.5002 9.75012H20.4626L15.546 11.2629C14.7283 11.5145 13.8486 11.1381 13.4661 10.3729L13.1547 9.75012H9.75016V7.25012ZM3.8705 8.82519L5.9772 9.99558C5.2488 10.368 4.75016 11.1258 4.75016 12.0001V13.0491L2.28727 11.5098C1.69805 11.1415 1.42371 10.4277 1.61459 9.75961C1.89034 8.79449 2.99306 8.33773 3.8705 8.82519ZM5.25016 14.5001C5.25016 15.4666 6.03366 16.2501 7.00016 16.2501H14.5154C15.0587 16.2501 15.5712 15.9978 15.9024 15.5671L19.8234 10.4699L15.693 11.7408C14.6418 12.0643 13.5107 11.5803 13.0189 10.5965L12.8457 10.2501H7.00016C6.03366 10.2501 5.25016 11.0336 5.25016 12.0001V14.5001Z" fill="black"/>
<path fill-rule="evenodd" clip-rule="evenodd" d="M22.1418 13.5201C22.0526 13.4895 21.9473 13.4895 21.858 13.5201C21.7502 13.5571 21.6756 13.6393 21.6277 13.692L21.6146 13.7064C21.4333 13.903 21.1608 14.2186 20.9321 14.5696C20.7101 14.9102 20.4999 15.3276 20.4999 15.7179C20.4999 16.5581 21.1656 17.25 21.9999 17.25C22.8343 17.25 23.4999 16.5581 23.4999 15.7179C23.4999 15.3276 23.2897 14.9102 23.0677 14.5696C22.839 14.2186 22.5665 13.903 22.3852 13.7064L22.3721 13.692C22.3243 13.6393 22.2497 13.5571 22.1418 13.5201ZM21.9821 14.0454L21.9999 14.0262L22.0177 14.0454C22.19 14.2322 22.4417 14.5247 22.6488 14.8426C22.8627 15.1707 22.9999 15.4827 22.9999 15.7179C22.9999 16.2939 22.5463 16.75 21.9999 16.75C21.4536 16.75 20.9999 16.2939 20.9999 15.7179C20.9999 15.4827 21.1372 15.1707 21.351 14.8426C21.5581 14.5247 21.8099 14.2322 21.9821 14.0454Z" fill="black"/>
</svg>
