<svg width="24" height="24" viewBox="0 0 24 24" fill="none" xmlns="http://www.w3.org/2000/svg">
<path fill-rule="evenodd" clip-rule="evenodd" d="M8.25024 8.75012V8.25012H8.00024C7.30989 8.25012 6.75024 7.69048 6.75024 7.00012C6.75024 6.30977 7.30989 5.75012 8.00024 5.75012H11.0002C11.6906 5.75012 12.2502 6.30977 12.2502 7.00012C12.2502 7.69048 11.6906 8.25012 11.0002 8.25012H10.7502V8.75012H13.7728L14.3606 9.92572C14.5245 10.2536 14.9016 10.415 15.252 10.3071L20.3123 8.75012H22.5002C23.1906 8.75012 23.7502 9.30977 23.7502 10.0001C23.7502 10.6905 23.1906 11.2501 22.5002 11.2501H21.1157L17.0915 16.4817C16.4763 17.2815 15.5245 17.7501 14.5154 17.7501H7.00024C5.20532 17.7501 3.75024 16.295 3.75024 14.5001V14.1929L1.49236 12.7818C0.336159 12.0591 -0.202176 10.6585 0.172391 9.34753C0.713485 7.45371 2.8773 6.55743 4.59905 7.51395L6.83187 8.75441C6.88763 8.75156 6.94377 8.75012 7.00024 8.75012H8.25024ZM4.29179 10.2032L3.38494 9.69935C3.07038 9.52459 2.67506 9.68834 2.5762 10.0343C2.50777 10.2738 2.60612 10.5297 2.81736 10.6618L3.82738 11.293C3.91506 10.8978 4.07468 10.5297 4.29179 10.2032Z" fill="black"/>
<path d="M21.8581 14.5201C21.9474 14.4895 22.0526 14.4895 22.1419 14.5201C22.2498 14.5571 22.3244 14.6393 22.3722 14.692L22.3853 14.7064C22.5666 14.9029 22.8391 15.2186 23.0678 15.5695C23.2898 15.9102 23.5 16.3275 23.5 16.7179C23.5 17.558 22.8344 18.25 22 18.25C21.1656 18.25 20.5 17.558 20.5 16.7179C20.5 16.3275 20.7102 15.9102 20.9322 15.5695C21.1609 15.2186 21.4334 14.9029 21.6147 14.7064L21.6278 14.692C21.6756 14.6393 21.7502 14.5571 21.8581 14.5201Z" fill="black"/>
</svg>
