<svg width="24" height="24" viewBox="0 0 24 24" fill="none" xmlns="http://www.w3.org/2000/svg">
<path d="M14.7071 21.2929C14.6218 21.2076 14.5334 21.1271 14.4424 21.0515C13.7152 21.3282 12.9264 21.4797 12.1021 21.4797C11.2256 21.4797 10.3891 21.3084 9.62434 20.9974C9.50963 21.0884 9.39893 21.1869 9.29291 21.2929L9.22633 21.3595C8.54905 22.0367 7.45097 22.0367 6.7737 21.3595C5.24626 19.832 2.74535 19.9153 1.32288 21.5409L1.24745 21.6271C0.883759 22.0428 0.925867 22.6745 1.3415 23.0382C1.75713 23.4019 2.38889 23.3598 2.75258 22.9442L2.82801 22.8579C3.48864 22.103 4.65011 22.0643 5.35948 22.7737C6.81781 24.232 9.18222 24.232 10.6405 22.7737L10.7071 22.7071C11.4212 21.9931 12.5789 21.9931 13.2929 22.7071L13.3595 22.7737C14.8178 24.232 17.1822 24.232 18.6405 22.7737C19.3499 22.0643 20.5114 22.103 21.172 22.8579L21.2474 22.9442C21.6111 23.3598 22.2429 23.4019 22.6585 23.0382C23.0742 22.6745 23.1163 22.0428 22.7526 21.6271L22.6771 21.5409C21.2547 19.9153 18.7538 19.832 17.2263 21.3595C16.5491 22.0367 15.451 22.0367 14.7737 21.3595L14.7071 21.2929Z" fill="black"/>
<path d="M18.6405 17.7739C18.3315 18.083 17.9817 18.3265 17.6085 18.5046C18.1908 17.6174 18.5644 16.5811 18.6596 15.4653C20.0438 14.9938 21.6446 15.3611 22.6771 16.5412L22.7526 16.6274C23.1163 17.043 23.0742 17.6748 22.6585 18.0384C22.2429 18.4021 21.6111 18.36 21.2474 17.9444L21.172 17.8582C20.5114 17.1032 19.3499 17.0645 18.6405 17.7739Z" fill="black"/>
<path d="M1.32288 16.5412C2.40846 15.3005 4.12215 14.9582 5.5519 15.5446C5.66275 16.6816 6.06292 17.7339 6.67786 18.6267C6.19718 18.4451 5.74644 18.1609 5.35949 17.7739C4.65011 17.0645 3.48864 17.1032 2.82801 17.8582L2.75258 17.9444C2.38889 18.36 1.75713 18.4021 1.3415 18.0384C0.925867 17.6748 0.883759 17.043 1.24745 16.6274L1.32288 16.5412Z" fill="black"/>
<path fill-rule="evenodd" clip-rule="evenodd" d="M8.90294 3.46942C8.90294 1.70269 10.3352 0.270477 12.1019 0.270477C13.8686 0.270477 15.3008 1.70269 15.3008 3.46942L15.3008 11.3854L15.3635 11.4447C16.2791 12.3097 16.852 13.5375 16.852 14.8979C16.852 17.5213 14.7253 19.6479 12.1019 19.6479C9.47859 19.6479 7.35193 17.5213 7.35193 14.8979C7.35193 13.5376 7.92476 12.3098 8.84026 11.4448L8.90292 11.3855L8.90294 3.46942ZM12.1021 16.3983C12.9305 16.3983 13.6021 15.7267 13.6021 14.8983C13.6021 14.0699 12.9305 13.3983 12.1021 13.3983C11.2737 13.3983 10.6021 14.0699 10.6021 14.8983C10.6021 15.7267 11.2737 16.3983 12.1021 16.3983Z" fill="black"/>
<path d="M18.0002 3.94384C17.586 3.94384 17.2502 4.27962 17.2502 4.69384C17.2502 5.10805 17.586 5.44384 18.0002 5.44384H21.6736C22.0878 5.44384 22.4236 5.10805 22.4236 4.69384C22.4236 4.27962 22.0878 3.94384 21.6736 3.94384L18.0002 3.94384Z" fill="black"/>
<path d="M18.0002 6.94384C17.586 6.94384 17.2502 7.27962 17.2502 7.69384C17.2502 8.10805 17.586 8.44384 18.0002 8.44384H20.8573C21.2715 8.44384 21.6073 8.10805 21.6073 7.69384C21.6073 7.27962 21.2715 6.94384 20.8573 6.94384H18.0002Z" fill="black"/>
</svg>
