<svg width="24" height="24" viewBox="0 0 24 24" fill="none" xmlns="http://www.w3.org/2000/svg">
<path d="M12.1021 21.8982C13.0512 21.8982 13.9561 21.7093 14.7814 21.3671C15.4593 22.0367 16.5516 22.0342 17.2263 21.3595C18.7538 19.832 21.2547 19.9153 22.6771 21.5409L22.7526 21.6271C23.1163 22.0428 23.0742 22.6745 22.6585 23.0382C22.2429 23.4019 21.6111 23.3598 21.2474 22.9442L21.172 22.8579C20.5114 22.103 19.3499 22.0643 18.6405 22.7737C17.1822 24.232 14.8178 24.232 13.3595 22.7737L13.2929 22.7071C12.5789 21.9931 11.4212 21.9931 10.7071 22.7071L10.6405 22.7737C9.18222 24.232 6.81781 24.232 5.35948 22.7737C4.65011 22.0643 3.48864 22.103 2.82801 22.8579L2.75258 22.9442C2.38889 23.3598 1.75713 23.4019 1.3415 23.0382C0.925867 22.6745 0.883759 22.0428 1.24745 21.6271L1.32288 21.5409C2.74535 19.9153 5.24626 19.832 6.7737 21.3595C7.45097 22.0367 8.54905 22.0367 9.22633 21.3595L9.27987 21.3059C10.1432 21.6867 11.098 21.8982 12.1021 21.8982Z" fill="black"/>
<path d="M18.6405 17.7739C18.5531 17.8613 18.4625 17.9435 18.369 18.0204C18.7751 17.2069 19.0274 16.3032 19.088 15.3474C20.3636 15.077 21.7496 15.4812 22.6771 16.5412L22.7526 16.6274C23.1163 17.043 23.0742 17.6748 22.6585 18.0384C22.2429 18.4021 21.6111 18.36 21.2474 17.9444L21.172 17.8582C20.5114 17.1032 19.3499 17.0645 18.6405 17.7739Z" fill="black"/>
<path d="M1.32288 16.5412C2.30096 15.4234 3.7889 15.0348 5.11967 15.3977C5.19254 16.4312 5.48977 17.4028 5.96296 18.264C5.7494 18.1248 5.54695 17.9614 5.35949 17.7739C4.65011 17.0645 3.48864 17.1032 2.82801 17.8582L2.75258 17.9444C2.38889 18.36 1.75713 18.4021 1.3415 18.0384C0.925867 17.6748 0.883759 17.043 1.24745 16.6274L1.32288 16.5412Z" fill="black"/>
<path fill-rule="evenodd" clip-rule="evenodd" d="M8.90294 3.46942C8.90294 1.70269 10.3352 0.270477 12.1019 0.270477C13.8686 0.270477 15.3008 1.70269 15.3008 3.46942L15.3008 11.3854L15.3635 11.4447C16.2791 12.3097 16.852 13.5375 16.852 14.8979C16.852 17.5213 14.7253 19.6479 12.1019 19.6479C9.47859 19.6479 7.35193 17.5213 7.35193 14.8979C7.35193 13.5376 7.92476 12.3098 8.84026 11.4448L8.90292 11.3855L8.90294 3.46942ZM12.1021 16.6483C13.0686 16.6483 13.8521 15.8648 13.8521 14.8983C13.8521 13.9318 13.0686 13.1483 12.1021 13.1483C11.1356 13.1483 10.3521 13.9318 10.3521 14.8983C10.3521 15.8648 11.1356 16.6483 12.1021 16.6483Z" fill="black"/>
<path d="M18.0002 3.69384C17.4479 3.69384 17.0002 4.14155 17.0002 4.69384C17.0002 5.24612 17.4479 5.69384 18.0002 5.69384H21.6736C22.2259 5.69384 22.6736 5.24612 22.6736 4.69384C22.6736 4.14155 22.2259 3.69384 21.6736 3.69384L18.0002 3.69384Z" fill="black"/>
<path d="M18.0002 7.18999C17.4479 7.18999 17.0002 7.6377 17.0002 8.18999C17.0002 8.74227 17.4479 9.18999 18.0002 9.18999H20.8573C21.4096 9.18999 21.8573 8.74227 21.8573 8.18999C21.8573 7.6377 21.4096 7.18999 20.8573 7.18999H18.0002Z" fill="black"/>
</svg>
