<svg width="24" height="24" viewBox="0 0 24 24" fill="none" xmlns="http://www.w3.org/2000/svg">
<path fill-rule="evenodd" clip-rule="evenodd" d="M11.0002 7.25012H9.75016V9.75012H13.1547L13.4661 10.3729C13.8486 11.1381 14.7283 11.5145 15.546 11.2629L20.4626 9.75012H22.5002C22.6382 9.75012 22.7502 9.86205 22.7502 10.0001C22.7502 10.1382 22.6382 10.2501 22.5002 10.2501H20.6233L16.2988 15.872C15.8728 16.4257 15.2139 16.7501 14.5154 16.7501H7.00016C5.75752 16.7501 4.75016 15.7428 4.75016 14.5001V13.6387L2.02227 11.9338C1.24406 11.4474 0.881718 10.5047 1.13383 9.62225C1.49803 8.34756 2.95445 7.74429 4.11332 8.38811L6.62157 9.78158C6.74454 9.76077 6.87126 9.75012 7.00016 9.75012H9.25016V7.25012H8.00016C7.86209 7.25012 7.75016 7.13819 7.75016 7.00012C7.75016 6.86205 7.86209 6.75012 8.00016 6.75012H11.0002C11.1382 6.75012 11.2502 6.86205 11.2502 7.00012C11.2502 7.13819 11.1382 7.25012 11.0002 7.25012ZM5.9772 9.99558L3.8705 8.82519C2.99306 8.33773 1.89034 8.79449 1.61459 9.75961C1.42371 10.4277 1.69805 11.1415 2.28727 11.5098L4.75016 13.0491V12.0001C4.75016 11.1258 5.2488 10.368 5.9772 9.99558Z" fill="black"/>
<path d="M21.858 13.5201C21.9473 13.4895 22.0526 13.4895 22.1418 13.5201C22.2497 13.5571 22.3243 13.6393 22.3721 13.692L22.3852 13.7064C22.5665 13.903 22.839 14.2186 23.0677 14.5696C23.2897 14.9102 23.4999 15.3276 23.4999 15.7179C23.4999 16.5581 22.8343 17.25 21.9999 17.25C21.1656 17.25 20.4999 16.5581 20.4999 15.7179C20.4999 15.3276 20.7101 14.9102 20.9321 14.5696C21.1608 14.2186 21.4333 13.903 21.6146 13.7064L21.6277 13.692C21.6756 13.6393 21.7502 13.5571 21.858 13.5201Z" fill="black"/>
</svg>
