<svg width="24" height="24" viewBox="0 0 24 24" fill="none" xmlns="http://www.w3.org/2000/svg">
<path fill-rule="evenodd" clip-rule="evenodd" d="M8.50022 9.00012V8.00012H8.00022C7.44794 8.00012 7.00022 7.55241 7.00022 7.00012C7.00022 6.44784 7.44794 6.00012 8.00022 6.00012H11.0002C11.5525 6.00012 12.0002 6.44784 12.0002 7.00012C12.0002 7.55241 11.5525 8.00012 11.0002 8.00012H10.5002V9.00012H13.6183L14.137 10.0375C14.3556 10.4748 14.8582 10.6898 15.3255 10.5461L20.3499 9.00012H22.5002C23.0525 9.00012 23.5002 9.44784 23.5002 10.0001C23.5002 10.5524 23.0525 11.0001 22.5002 11.0001H20.9926L16.8933 16.3293C16.3254 17.0675 15.4468 17.5001 14.5154 17.5001H7.00022C5.34337 17.5001 4.00022 16.157 4.00022 14.5001V14.0544L1.62484 12.5698C0.563134 11.9062 0.0687978 10.6201 0.412751 9.41621C0.909621 7.67717 2.89659 6.85414 4.47761 7.73249L6.77441 9.00849C6.84896 9.00295 6.92426 9.00012 7.00022 9.00012H8.50022ZM4.66064 10.1221L3.50633 9.48081C3.05105 9.22787 2.47888 9.46488 2.3358 9.96566C2.23675 10.3123 2.3791 10.6827 2.68483 10.8738L4.01457 11.7048C4.07279 11.1089 4.30537 10.5641 4.66064 10.1221Z" fill="black"/>
<path d="M21.8581 13.5201C21.9473 13.4895 22.0526 13.4895 22.1419 13.5201C22.2497 13.5571 22.3243 13.6393 22.3722 13.692L22.3853 13.7064C22.5666 13.903 22.8391 14.2186 23.0678 14.5696C23.2898 14.9102 23.5 15.3276 23.5 15.7179C23.5 16.5581 22.8343 17.25 22 17.25C21.1656 17.25 20.5 16.5581 20.5 15.7179C20.5 15.3276 20.7102 14.9102 20.9322 14.5696C21.1609 14.2186 21.4334 13.903 21.6147 13.7064L21.6278 13.692C21.6756 13.6393 21.7502 13.5571 21.8581 13.5201Z" fill="black"/>
</svg>
