<svg width="24" height="24" viewBox="0 0 24 24" fill="none" xmlns="http://www.w3.org/2000/svg">
<path fill-rule="evenodd" clip-rule="evenodd" d="M11.0002 7.75012H10.2502V9.25012H13.4637L13.9133 10.1493C14.1866 10.6959 14.8149 10.9647 15.399 10.785L20.3874 9.25012H22.5002C22.9144 9.25012 23.2502 9.58591 23.2502 10.0001C23.2502 10.4143 22.9144 10.7501 22.5002 10.7501H20.8695L16.6951 16.1768C16.1745 16.8536 15.3692 17.2501 14.5154 17.2501H7.0002C5.48142 17.2501 4.2502 16.0189 4.2502 14.5001V13.9158L1.75732 12.3578C0.790109 11.7533 0.339771 10.5816 0.653112 9.48489C1.10576 7.90063 2.91587 7.15086 4.35618 7.95103L6.71994 9.26423C6.81209 9.2549 6.90559 9.25012 7.0002 9.25012H8.7502V7.75012H8.0002C7.58599 7.75012 7.2502 7.41434 7.2502 7.00012C7.2502 6.58591 7.58599 6.25012 8.0002 6.25012H11.0002C11.4144 6.25012 11.7502 6.58591 11.7502 7.00012C11.7502 7.41434 11.4144 7.75012 11.0002 7.75012ZM5.05566 10.0556L3.62772 9.26227C3.03172 8.93116 2.2827 9.24141 2.0954 9.89698C1.96574 10.3508 2.15209 10.8356 2.55231 11.0858L4.2502 12.1469V12.0001C4.2502 11.2407 4.55801 10.5532 5.05566 10.0556Z" fill="black"/>
<path d="M21.8581 13.5201C21.9473 13.4895 22.0526 13.4895 22.1419 13.5201C22.2497 13.5571 22.3243 13.6393 22.3721 13.692L22.3853 13.7064C22.5666 13.903 22.8391 14.2186 23.0678 14.5696C23.2898 14.9102 23.5 15.3276 23.5 15.7179C23.5 16.5581 22.8343 17.25 22 17.25C21.1656 17.25 20.5 16.5581 20.5 15.7179C20.5 15.3276 20.7101 14.9102 20.9321 14.5696C21.1609 14.2186 21.4334 13.903 21.6146 13.7064L21.6278 13.692C21.6756 13.6393 21.7502 13.5571 21.8581 13.5201Z" fill="black"/>
</svg>
