<svg width="24" height="24" viewBox="0 0 24 24" fill="none" xmlns="http://www.w3.org/2000/svg">
<path d="M14.3536 21.6464C14.0079 21.3008 13.6052 21.0471 13.1757 20.8853C12.8272 20.9473 12.4685 20.9797 12.1021 20.9797C11.6886 20.9797 11.2847 20.9384 10.8943 20.8598C10.4386 21.0199 10.0108 21.2821 9.64645 21.6464L9.57987 21.713C8.70734 22.5856 7.29268 22.5856 6.42014 21.713C5.09722 20.3901 2.93117 20.4622 1.69916 21.8702L1.62372 21.9564C1.44188 22.1642 1.46293 22.4801 1.67075 22.6619C1.87856 22.8438 2.19445 22.8227 2.37629 22.6149L2.45172 22.5287C3.30281 21.556 4.79914 21.5062 5.71303 22.4201C6.97609 23.6832 9.02392 23.6832 10.287 22.4201L10.3536 22.3535C11.2629 21.4442 12.7371 21.4442 13.6465 22.3535L13.713 22.4201C14.9761 23.6832 17.0239 23.6832 18.287 22.4201C19.2009 21.5062 20.6972 21.556 21.5483 22.5287L21.6237 22.6149C21.8056 22.8227 22.1215 22.8438 22.3293 22.6619C22.5371 22.4801 22.5581 22.1642 22.3763 21.9564L22.3009 21.8702C21.0688 20.4622 18.9028 20.3901 17.5799 21.713C16.7073 22.5856 15.2927 22.5856 14.4201 21.713L14.3536 21.6464Z" fill="black"/>
<path d="M18.287 17.4204C17.9849 17.7225 17.6378 17.9523 17.2674 18.1099C17.6013 17.574 17.8542 16.9824 18.0088 16.3522C19.3346 15.4189 21.1944 15.606 22.3009 16.8704L22.3763 16.9566C22.5581 17.1644 22.5371 17.4803 22.3293 17.6622C22.1215 17.844 21.8056 17.823 21.6237 17.6151L21.5483 17.5289C20.6972 16.5563 19.2009 16.5065 18.287 17.4204Z" fill="black"/>
<path d="M1.69916 16.8704C2.87925 15.5218 4.91632 15.3988 6.24854 16.5534C6.41621 17.1476 6.67191 17.7048 7.00065 18.2101C6.5298 18.0576 6.08702 17.7943 5.71303 17.4204C4.79914 16.5065 3.30281 16.5563 2.45172 17.5289L2.37629 17.6151C2.19445 17.823 1.87856 17.844 1.67075 17.6622C1.46293 17.4803 1.44188 17.1644 1.62372 16.9566L1.69916 16.8704Z" fill="black"/>
<path fill-rule="evenodd" clip-rule="evenodd" d="M9.15294 3.46942C9.15293 1.84077 10.4732 0.520477 12.1019 0.520477C13.7305 0.520477 15.0508 1.84076 15.0508 3.46942L15.0508 11.3429C15.0508 11.4177 15.0509 11.458 15.0522 11.4874L15.0524 11.4918L15.0617 11.5014C15.0888 11.5289 15.1272 11.5653 15.1918 11.6264C16.0595 12.4462 16.602 13.6091 16.602 14.8979C16.602 17.3832 14.5872 19.3979 12.1019 19.3979C9.61666 19.3979 7.60193 17.3832 7.60193 14.8979C7.60193 13.6092 8.14435 12.4463 9.01195 11.6265C9.0766 11.5654 9.115 11.5291 9.14203 11.5015L9.15134 11.4919L9.15155 11.4875C9.15283 11.4582 9.15294 11.4179 9.15294 11.343V3.46942ZM12.1021 15.8983C12.6544 15.8983 13.1021 15.4506 13.1021 14.8983C13.1021 14.346 12.6544 13.8983 12.1021 13.8983C11.5498 13.8983 11.1021 14.346 11.1021 14.8983C11.1021 15.4506 11.5498 15.8983 12.1021 15.8983Z" fill="black"/>
<path d="M18.0002 4.19384C17.724 4.19384 17.5002 4.41769 17.5002 4.69384C17.5002 4.96998 17.724 5.19384 18.0002 5.19384H21.6736C21.9497 5.19384 22.1736 4.96998 22.1736 4.69384C22.1736 4.41769 21.9497 4.19384 21.6736 4.19384L18.0002 4.19384Z" fill="black"/>
<path d="M18.0002 7.19384C17.724 7.19384 17.5002 7.4177 17.5002 7.69384C17.5002 7.96998 17.724 8.19384 18.0002 8.19384H20.8573C21.1334 8.19384 21.3573 7.96998 21.3573 7.69384C21.3573 7.41769 21.1334 7.19384 20.8573 7.19384H18.0002Z" fill="black"/>
</svg>
