<svg width="24" height="24" viewBox="0 0 24 24" fill="none" xmlns="http://www.w3.org/2000/svg">
<path fill-rule="evenodd" clip-rule="evenodd" d="M10.6358 1.79166C11.4651 1.25166 12.5349 1.25166 13.3642 1.79166L22.1142 7.48934C22.8227 7.95068 23.25 8.73887 23.25 9.58433V20.5C23.25 21.8807 22.1307 23 20.75 23H3.25C1.86929 23 0.75 21.8807 0.75 20.5V9.58433C0.75 8.73887 1.17732 7.95068 1.88582 7.48934L10.6358 1.79166ZM12.8185 2.62966C12.3209 2.30566 11.6791 2.30566 11.1815 2.62966L2.49383 8.28674L9 14.7929L11.1806 12.6123C11.2548 12.5381 11.3301 12.4628 11.3996 12.4037C11.477 12.3381 11.5795 12.2636 11.7154 12.2195C11.9004 12.1594 12.0996 12.1594 12.2846 12.2195C12.4205 12.2636 12.523 12.3381 12.6004 12.4037C12.6699 12.4628 12.7452 12.5381 12.8193 12.6122L15 14.7929L21.5062 8.28674L12.8185 2.62966ZM15.7071 15.5L19.3536 19.1465C19.5488 19.3417 19.5488 19.6583 19.3536 19.8536C19.1583 20.0488 18.8417 20.0488 18.6464 19.8536L12.1228 13.3299C12.0803 13.2874 12.0469 13.254 12.0175 13.2255L12 13.2087L11.9825 13.2255C11.9531 13.254 11.9197 13.2874 11.8772 13.3299L5.35355 19.8536C5.15829 20.0488 4.84171 20.0488 4.64645 19.8536C4.45118 19.6583 4.45118 19.3417 4.64645 19.1465L8.29289 15.5L1.84687 9.05399C1.78368 9.22112 1.75 9.40047 1.75 9.58433V20.5C1.75 21.3284 2.42157 22 3.25 22H20.75C21.5784 22 22.25 21.3284 22.25 20.5V9.58433C22.25 9.40047 22.2163 9.22112 22.1531 9.05399L15.7071 15.5Z" fill="black"/>
</svg>
