<svg width="24" height="25" viewBox="0 0 24 25" fill="none" xmlns="http://www.w3.org/2000/svg">
<path fill-rule="evenodd" clip-rule="evenodd" d="M5.77487 9.87071e-06C5.65815 -5.35486e-05 5.5059 -0.00013628 5.36981 0.0109825C5.20913 0.0241104 4.96458 0.0587586 4.70552 0.190758C4.37623 0.358536 4.10852 0.626252 3.94074 0.955536C3.80874 1.2146 3.77409 1.45915 3.76096 1.61983C3.74984 1.75591 3.74993 1.90817 3.74999 2.02488L3.75 5.63046L1.47656 7.11084C0.555515 7.71059 0 8.73523 0 9.83433V20.75C0 22.5449 1.45507 24 3.25 24H20.75C22.5449 24 24 22.5449 24 20.75V9.83433C24 8.73523 23.4445 7.71059 22.5234 7.11084L20.25 5.63046L20.25 2.0249C20.2501 1.90819 20.2502 1.7559 20.239 1.61983C20.2259 1.45915 20.1913 1.2146 20.0593 0.955538C19.8915 0.626252 19.6238 0.358536 19.2945 0.190756C19.0354 0.0587587 18.7909 0.0241104 18.6302 0.0109825C18.4941 -0.00013628 18.3418 -5.35486e-05 18.2251 9.87071e-06H5.77487ZM20.25 8.61376V8.73225L20.3218 8.66049L20.25 8.61376ZM17.75 11.2323V2.50002H6.25V11.2323L9 13.9823L10.6554 12.3268C10.7238 12.2583 10.8201 12.1619 10.9143 12.082C11.0271 11.9862 11.2161 11.8431 11.4836 11.7562C11.8192 11.6472 12.1808 11.6472 12.5164 11.7562C12.7839 11.8431 12.9729 11.9862 13.0857 12.082C13.1799 12.1619 13.2762 12.2583 13.3445 12.3268L15 13.9823L17.75 11.2323ZM3.75 8.73225V8.61376L3.67824 8.66049L3.75 8.73225ZM19.8839 18.8661L16.7678 15.75L21.5 11.0178V20.75C21.5 21.1642 21.1642 21.5 20.75 21.5H3.25C2.83579 21.5 2.5 21.1642 2.5 20.75V11.0178L7.23223 15.75L4.11612 18.8661C3.62796 19.3543 3.62796 20.1457 4.11612 20.6339C4.60427 21.1221 5.39573 21.1221 5.88388 20.6339L12 14.5178L18.1161 20.6339C18.6043 21.1221 19.3957 21.1221 19.8839 20.6339C20.372 20.1457 20.372 19.3543 19.8839 18.8661Z" fill="black"/>
</svg>
