<svg width="24" height="24" viewBox="0 0 24 24" fill="none" xmlns="http://www.w3.org/2000/svg">
<path fill-rule="evenodd" clip-rule="evenodd" d="M3.25 4C1.59315 4 0.25 5.34315 0.25 7V17C0.25 18.6569 1.59315 20 3.25 20H20.75C22.4069 20 23.75 18.6569 23.75 17V7C23.75 5.34315 22.4069 4 20.75 4H3.25ZM2.29342 6.70763C2.41846 6.29798 2.79943 6 3.25 6H4.41421L12 13.5858L19.5858 6H20.75C21.2006 6 21.5815 6.29798 21.7066 6.70763L16.4142 12L21.7066 17.2924C21.5815 17.702 21.2006 18 20.75 18H19.5858L15 13.4142L13.1688 15.2455C13.099 15.3153 13.0099 15.4045 12.9239 15.4775C12.8229 15.5632 12.6628 15.6834 12.4391 15.756C12.1537 15.8488 11.8463 15.8488 11.5609 15.756C11.3372 15.6834 11.1771 15.5632 11.0761 15.4775C10.9901 15.4045 10.901 15.3153 10.8312 15.2455L9 13.4142L4.41421 18H3.25C2.79943 18 2.41846 17.702 2.29342 17.2924L7.58579 12L2.29342 6.70763Z" fill="black"/>
</svg>
