<svg width="24" height="24" viewBox="0 0 24 24" fill="none" xmlns="http://www.w3.org/2000/svg">
<path fill-rule="evenodd" clip-rule="evenodd" d="M10.4994 1.58216C11.4116 0.988156 12.5884 0.988156 13.5006 1.58216L22.2506 7.27984C23.0299 7.78732 23.5 8.65432 23.5 9.58433V20.5C23.5 22.0188 22.2688 23.25 20.75 23.25H3.25C1.73122 23.25 0.5 22.0188 0.5 20.5V9.58433C0.5 8.65432 0.970051 7.78732 1.7494 7.27984L10.4994 1.58216ZM12.6821 2.83916C12.2674 2.56916 11.7326 2.56916 11.3179 2.83916L2.86399 8.34404C2.92362 8.37717 2.97969 8.41905 3.03033 8.46969L9 14.4394L11.0064 12.433C11.078 12.3613 11.1602 12.2791 11.2379 12.2131C11.327 12.1374 11.4584 12.0401 11.6381 11.9817C11.8733 11.9053 12.1267 11.9053 12.3619 11.9817C12.5416 12.0401 12.673 12.1374 12.7621 12.2131C12.8398 12.2791 12.922 12.3613 12.9936 12.433L15 14.4394L20.9697 8.46969C21.0203 8.41905 21.0764 8.37717 21.136 8.34404L12.6821 2.83916ZM16.0607 15.5L19.5303 18.9697C19.8232 19.2626 19.8232 19.7375 19.5303 20.0303C19.2374 20.3232 18.7626 20.3232 18.4697 20.0303L12 13.5607L5.53033 20.0303C5.23744 20.3232 4.76256 20.3232 4.46967 20.0303C4.17678 19.7375 4.17678 19.2626 4.46967 18.9697L7.93934 15.5L2.00022 9.56089L2 9.58433V20.5C2 21.1904 2.55964 21.75 3.25 21.75H20.75C21.4404 21.75 22 21.1904 22 20.5V9.58433L21.9998 9.5609L16.0607 15.5Z" fill="black"/>
</svg>
