<svg width="24" height="24" viewBox="0 0 24 24" fill="none" xmlns="http://www.w3.org/2000/svg">
<path fill-rule="evenodd" clip-rule="evenodd" d="M5.0545 1.273C5 1.37996 5 1.51997 5 1.8V5.46148L1.88582 7.48932C1.17732 7.95067 0.75 8.73885 0.75 9.58431V20.5C0.75 21.8807 1.86929 23 3.25 23H20.75C22.1307 23 23.25 21.8807 23.25 20.5V9.58431C23.25 8.73885 22.8227 7.95067 22.1142 7.48932L19 5.46148V1.8C19 1.51997 19 1.37996 18.9455 1.273C18.8976 1.17892 18.8211 1.10243 18.727 1.0545C18.62 1 18.48 1 18.2 1H5.8C5.51997 1 5.37996 1 5.273 1.0545C5.17892 1.10243 5.10243 1.17892 5.0545 1.273ZM5 6.6548V10.7929L9 14.7929L11.1806 12.6123C11.2548 12.5381 11.3301 12.4628 11.3996 12.4037C11.477 12.338 11.5795 12.2636 11.7154 12.2195C11.9004 12.1594 12.0996 12.1594 12.2846 12.2195C12.4205 12.2636 12.523 12.338 12.6004 12.4037C12.6699 12.4628 12.7452 12.5381 12.8193 12.6122L15 14.7929L19 10.7929V6.6548L21.5685 8.32732C21.8395 8.5038 22.042 8.75999 22.1531 9.05398L15.7071 15.5L19.3536 19.1464C19.5488 19.3417 19.5488 19.6583 19.3536 19.8536C19.1583 20.0488 18.8417 20.0488 18.6464 19.8536L12.1228 13.3299C12.0803 13.2874 12.0469 13.254 12.0175 13.2255L12 13.2087L11.9825 13.2255C11.9531 13.254 11.9197 13.2874 11.8772 13.3299L5.35355 19.8536C5.15829 20.0488 4.84171 20.0488 4.64645 19.8536C4.45118 19.6583 4.45118 19.3417 4.64645 19.1464L8.29289 15.5L1.84687 9.05398C1.95802 8.75999 2.16047 8.5038 2.43149 8.32732L5 6.6548Z" fill="black"/>
</svg>
