<svg width="24" height="24" viewBox="0 0 24 24" fill="none" xmlns="http://www.w3.org/2000/svg">
<path fill-rule="evenodd" clip-rule="evenodd" d="M5.77686 6.17364e-06C5.65774 -3.93643e-05 5.51549 -9.37236e-05 5.39017 0.0101453C5.24495 0.02201 5.03696 0.0524534 4.81901 0.163502C4.53677 0.307312 4.3073 0.536783 4.16349 0.819026C4.05244 1.03697 4.022 1.24496 4.01013 1.39018C3.99989 1.5155 3.99995 1.65776 3.99999 1.77687L4 5.51599L1.61298 7.07033C0.762783 7.62395 0.25 8.56977 0.25 9.58433V20.5C0.25 22.1569 1.59315 23.5 3.25 23.5H20.75C22.4069 23.5 23.75 22.1569 23.75 20.5V9.58433C23.75 8.56977 23.2372 7.62395 22.387 7.07033L20 5.51599L20 1.77688C20.0001 1.65777 20.0001 1.5155 19.9899 1.39018C19.978 1.24496 19.9476 1.03697 19.8365 0.819028C19.6927 0.536783 19.4632 0.307312 19.181 0.163501C18.963 0.0524535 18.755 0.0220101 18.6098 0.0101453C18.4845 -9.37236e-05 18.3423 -3.93643e-05 18.2231 6.17364e-06H5.77686ZM20 7.90264V9.0858L20.7166 8.36923L20 7.90264ZM18 11.0858V2.00001H6V11.0858L9 14.0858L10.8312 12.2545C10.901 12.1847 10.9901 12.0955 11.0761 12.0225C11.1771 11.9368 11.3372 11.8166 11.5609 11.744C11.8463 11.6512 12.1537 11.6512 12.4391 11.744C12.6628 11.8166 12.8229 11.9368 12.9239 12.0225C13.0099 12.0955 13.099 12.1847 13.1688 12.2546L15 14.0858L18 11.0858ZM4 9.0858V7.90264L3.28344 8.36923L4 9.0858ZM19.7071 18.7929L16.4142 15.5L21.75 10.1642V20.5C21.75 21.0523 21.3023 21.5 20.75 21.5H3.25C2.69772 21.5 2.25 21.0523 2.25 20.5V10.1642L7.58579 15.5L4.29289 18.7929C3.90237 19.1834 3.90237 19.8166 4.29289 20.2071C4.68342 20.5976 5.31658 20.5976 5.70711 20.2071L12 13.9142L18.2929 20.2071C18.6834 20.5976 19.3166 20.5976 19.7071 20.2071C20.0976 19.8166 20.0976 19.1834 19.7071 18.7929Z" fill="black"/>
</svg>
