<svg width="24" height="24" viewBox="0 0 24 24" fill="none" xmlns="http://www.w3.org/2000/svg">
<path fill-rule="evenodd" clip-rule="evenodd" d="M13.2278 2.00122C12.4814 1.51522 11.5186 1.51522 10.7722 2.00122L2.02224 7.6989C1.38459 8.11411 1 8.82347 1 9.58439V20.5001C1 21.7427 2.00736 22.7501 3.25 22.7501H20.75C21.9926 22.7501 23 21.7427 23 20.5001V9.58439C23 8.82347 22.6154 8.11411 21.9778 7.6989L13.2278 2.00122ZM11.0451 2.42022C11.6256 2.04222 12.3744 2.04222 12.9549 2.42022L21.7049 8.1179C21.7755 8.16383 21.842 8.21439 21.9043 8.26904C21.8748 8.28124 21.8472 8.29933 21.8232 8.3233L15 15.1465L19.1768 19.3233C19.2744 19.4209 19.2744 19.5792 19.1768 19.6769C19.0791 19.7745 18.9209 19.7745 18.8232 19.6769L12.2996 13.1532C12.2133 13.0669 12.1591 13.013 12.115 12.9755C12.0731 12.94 12.057 12.9342 12.0529 12.9329C12.0185 12.9217 11.9815 12.9217 11.9471 12.9329C11.943 12.9342 11.9269 12.94 11.885 12.9755C11.8409 13.013 11.7867 13.0669 11.7004 13.1532L5.17678 19.6769C5.07915 19.7745 4.92085 19.7745 4.82322 19.6769C4.72559 19.5792 4.72559 19.4209 4.82322 19.3233L9 15.1465L2.17678 8.3233C2.15281 8.29933 2.12518 8.28124 2.09569 8.26904C2.15797 8.21439 2.22453 8.16383 2.29507 8.1179L11.0451 2.42022Z" fill="black"/>
</svg>
