<svg width="24" height="24" viewBox="0 0 24 24" fill="none" xmlns="http://www.w3.org/2000/svg">
<path fill-rule="evenodd" clip-rule="evenodd" d="M5.0545 1.273C5 1.37996 5 1.51997 5 1.8V5.75981L2.02224 7.69882C1.38459 8.11403 1 8.8234 1 9.58431V20.5C1 21.7426 2.00736 22.75 3.25 22.75H20.75C21.9926 22.75 23 21.7426 23 20.5V9.58431C23 8.8234 22.6154 8.11403 21.9778 7.69882L19 5.75981V1.8C19 1.51997 19 1.37996 18.9455 1.273C18.8976 1.17892 18.8211 1.10243 18.727 1.0545C18.62 1 18.48 1 18.2 1H5.8C5.51997 1 5.37996 1 5.273 1.0545C5.17892 1.10243 5.10243 1.17892 5.0545 1.273ZM5 6.35647V11.1464L9 15.1464L11.3534 12.793C11.4312 12.7153 11.4999 12.6466 11.5614 12.5943C11.627 12.5387 11.7007 12.4871 11.7926 12.4572C11.9274 12.4135 12.0726 12.4135 12.2074 12.4572C12.2993 12.4871 12.373 12.5387 12.4386 12.5943C12.5001 12.6466 12.5688 12.7153 12.6466 12.793L15 15.1464L19 11.1464V6.35647L21.7049 8.11782C21.9117 8.25246 22.0843 8.42687 22.2152 8.62737C22.2047 8.645 22.1919 8.66162 22.1768 8.67678L15.3536 15.5L19.1768 19.3232C19.2744 19.4209 19.2744 19.5791 19.1768 19.6768C19.0791 19.7744 18.9209 19.7744 18.8232 19.6768L12.2996 13.1531C12.2133 13.0669 12.1591 13.0129 12.115 12.9755C12.0731 12.9399 12.057 12.9341 12.0529 12.9328C12.0185 12.9216 11.9815 12.9216 11.9471 12.9328C11.943 12.9341 11.9269 12.9399 11.885 12.9755C11.8409 13.0129 11.7867 13.0669 11.7004 13.1531L5.17678 19.6768C5.07915 19.7744 4.92085 19.7744 4.82322 19.6768C4.72559 19.5791 4.72559 19.4209 4.82322 19.3232L8.64645 15.5L1.82322 8.67678C1.80807 8.66162 1.79526 8.645 1.78481 8.62737C1.91574 8.42687 2.0883 8.25246 2.29507 8.11782L5 6.35647Z" fill="black"/>
</svg>
