<svg width="24" height="24" viewBox="0 0 24 24" fill="none" xmlns="http://www.w3.org/2000/svg">
<path fill-rule="evenodd" clip-rule="evenodd" d="M10.7722 2.00116C11.5186 1.51516 12.4814 1.51516 13.2278 2.00116L21.9778 7.69884C22.6154 8.11405 23 8.82341 23 9.58433V20.5C23 21.7427 21.9926 22.75 20.75 22.75H3.25C2.00736 22.75 1 21.7427 1 20.5V9.58433C1 8.82341 1.38459 8.11405 2.02224 7.69884L10.7722 2.00116ZM12.9549 2.42016C12.3744 2.04216 11.6256 2.04216 11.0451 2.42016L2.29507 8.11784C2.22453 8.16377 2.15797 8.21433 2.09569 8.26898C2.12518 8.28118 2.1528 8.29927 2.17678 8.32324L9 15.1465L11.3534 12.7931C11.4312 12.7153 11.4999 12.6466 11.5614 12.5943C11.627 12.5387 11.7007 12.4871 11.7926 12.4573C11.9274 12.4135 12.0726 12.4135 12.2074 12.4573C12.2993 12.4871 12.373 12.5387 12.4386 12.5943C12.5001 12.6466 12.5688 12.7153 12.6466 12.7931L15 15.1465L21.8232 8.32324C21.8472 8.29927 21.8748 8.28118 21.9043 8.26898C21.842 8.21433 21.7755 8.16377 21.7049 8.11784L12.9549 2.42016ZM15.3536 15.5L19.1768 19.3232C19.2744 19.4209 19.2744 19.5792 19.1768 19.6768C19.0791 19.7744 18.9209 19.7744 18.8232 19.6768L12.2996 13.1532C12.2133 13.0669 12.1591 13.0129 12.115 12.9755C12.0731 12.9399 12.057 12.9342 12.0529 12.9328C12.0185 12.9216 11.9815 12.9216 11.9471 12.9328C11.943 12.9342 11.9269 12.9399 11.885 12.9755C11.8409 13.0129 11.7867 13.0669 11.7004 13.1532L5.17678 19.6768C5.07915 19.7744 4.92085 19.7744 4.82322 19.6768C4.72559 19.5792 4.72559 19.4209 4.82322 19.3232L8.64645 15.5L1.82322 8.67679C1.80807 8.66164 1.79526 8.64501 1.78481 8.62739C1.6017 8.9078 1.5 9.23925 1.5 9.58433V20.5C1.5 21.4665 2.2835 22.25 3.25 22.25H20.75C21.7165 22.25 22.5 21.4665 22.5 20.5V9.58433C22.5 9.23925 22.3983 8.9078 22.2152 8.62739C22.2047 8.64501 22.1919 8.66164 22.1768 8.67679L15.3536 15.5Z" fill="black"/>
</svg>
