<svg width="24" height="24" viewBox="0 0 24 24" fill="none" xmlns="http://www.w3.org/2000/svg">
<path fill-rule="evenodd" clip-rule="evenodd" d="M10.7722 2.00122C11.5186 1.51522 12.4814 1.51522 13.2278 2.00122L21.9778 7.6989C22.6154 8.11411 23 8.82347 23 9.58439V20.5001C23 21.7427 21.9926 22.7501 20.75 22.7501H3.25C2.00736 22.7501 1 21.7427 1 20.5001V9.58439C1 8.82347 1.38459 8.11411 2.02224 7.6989L10.7722 2.00122ZM12.9549 2.42022C12.3744 2.04222 11.6256 2.04222 11.0451 2.42022L2.29507 8.1179C2.22453 8.16383 2.15797 8.21439 2.09569 8.26904C2.12518 8.28124 2.1528 8.29933 2.17678 8.3233L9 15.1465L11.3534 12.7931C11.4312 12.7154 11.4999 12.6466 11.5614 12.5944C11.627 12.5387 11.7007 12.4872 11.7926 12.4573C11.9274 12.4135 12.0726 12.4135 12.2074 12.4573C12.2993 12.4872 12.373 12.5387 12.4386 12.5944C12.5001 12.6466 12.5688 12.7154 12.6466 12.7931L15 15.1465L21.8232 8.3233C21.8472 8.29933 21.8748 8.28125 21.9043 8.26905C21.842 8.2144 21.7755 8.16383 21.7049 8.1179L12.9549 2.42022ZM15.3536 15.5001L19.1768 19.3233C19.2744 19.4209 19.2744 19.5792 19.1768 19.6769C19.0791 19.7745 18.9209 19.7745 18.8232 19.6769L12.2996 13.1532C12.2133 13.0669 12.1591 13.013 12.115 12.9755C12.0731 12.94 12.057 12.9342 12.0529 12.9329C12.0185 12.9217 11.9815 12.9217 11.9471 12.9329C11.943 12.9342 11.9269 12.94 11.885 12.9755C11.8409 13.013 11.7867 13.0669 11.7004 13.1532L5.17678 19.6769C5.07915 19.7745 4.92085 19.7745 4.82322 19.6769C4.72559 19.5792 4.72559 19.4209 4.82322 19.3233L8.64645 15.5001L1.82322 8.67685C1.80807 8.6617 1.79526 8.64507 1.78481 8.62745C1.6017 8.90786 1.5 9.23931 1.5 9.58439V20.5001C1.5 21.4666 2.2835 22.2501 3.25 22.2501H20.75C21.7165 22.2501 22.5 21.4666 22.5 20.5001V9.58439C22.5 9.23931 22.3983 8.90786 22.2152 8.62745C22.2047 8.64507 22.1919 8.6617 22.1768 8.67685L15.3536 15.5001Z" fill="black"/>
</svg>
