<svg width="24" height="24" viewBox="0 0 24 24" fill="none" xmlns="http://www.w3.org/2000/svg">
<path fill-rule="evenodd" clip-rule="evenodd" d="M13.637 1.37272C12.6419 0.724717 11.3581 0.724717 10.363 1.37272L1.61298 7.0704C0.762783 7.62402 0.25 8.56984 0.25 9.58439V20.5001C0.25 22.1569 1.59315 23.5001 3.25 23.5001H20.75C22.4069 23.5001 23.75 22.1569 23.75 20.5001V9.58439C23.75 8.56984 23.2372 7.62402 22.387 7.0704L13.637 1.37272ZM11.4543 3.04872C11.786 2.83272 12.214 2.83272 12.5457 3.04872L21.2957 8.74639C21.3167 8.76009 21.3371 8.77452 21.3569 8.78961L15.5303 14.6162L19.7071 18.793C20.0976 19.1835 20.0976 19.8167 19.7071 20.2072C19.3166 20.5977 18.6834 20.5977 18.2929 20.2072L12 13.9143L5.70711 20.2072C5.31658 20.5977 4.68342 20.5977 4.29289 20.2072C3.90237 19.8167 3.90237 19.1835 4.29289 18.793L8.46967 14.6162L2.64309 8.78961C2.66287 8.77452 2.68329 8.76009 2.70433 8.74639L11.4543 3.04872Z" fill="black"/>
</svg>
