<svg width="24" height="24" viewBox="0 0 24 24" fill="none" xmlns="http://www.w3.org/2000/svg">
<path fill-rule="evenodd" clip-rule="evenodd" d="M5.78404 0.505006C5.65777 0.504992 5.53503 0.504979 5.43117 0.513464C5.31719 0.522778 5.18305 0.544727 5.04816 0.613457C4.86094 0.708851 4.70873 0.861067 4.61333 1.04829C4.5446 1.18318 4.52265 1.31731 4.51334 1.4313C4.50485 1.53517 4.50487 1.65788 4.50488 1.78416L4.50488 5.78978L1.88843 7.49352C1.18135 7.95394 0.754883 8.74055 0.754883 9.58432V20.5C0.754883 21.878 1.87193 22.995 3.24988 22.995H20.7499C22.1278 22.995 23.2449 21.878 23.2449 20.5V9.58432C23.2449 8.74055 22.8184 7.95394 22.1113 7.49352L19.4949 5.78978L19.4949 1.78415C19.4949 1.65787 19.4949 1.53517 19.4864 1.4313C19.4771 1.31731 19.4552 1.18318 19.3864 1.04829C19.291 0.861067 19.1388 0.708851 18.9516 0.613456C18.8167 0.544727 18.6826 0.522778 18.5686 0.513464C18.4647 0.504979 18.342 0.504992 18.2158 0.505006H5.78404ZM19.4949 6.97117V10.305L21.5139 8.28591L19.4949 6.97117ZM18.5049 11.295V1.80001C18.5049 1.65183 18.5045 1.57046 18.4997 1.51192L18.4987 1.50115L18.488 1.50018C18.4294 1.49539 18.3481 1.49501 18.1999 1.49501H5.79988C5.6517 1.49501 5.57034 1.49539 5.51179 1.50018L5.50102 1.50115L5.50005 1.51192C5.49527 1.57046 5.49488 1.65183 5.49488 1.80001V11.295L8.99988 14.8L11.184 12.6159C11.2582 12.5416 11.3333 12.4665 11.4028 12.4075C11.4799 12.3421 11.5818 12.2681 11.7168 12.2242C11.9008 12.1645 12.099 12.1645 12.283 12.2242C12.4179 12.2681 12.5199 12.3421 12.597 12.4075C12.6664 12.4665 12.7416 12.5416 12.8158 12.6159L14.9999 14.8L18.5049 11.295ZM4.50488 10.305V6.97117L2.48582 8.28591L4.50488 10.305ZM19.3499 19.15L15.6999 15.5L22.1549 9.04499C22.2201 9.21473 22.2549 9.3972 22.2549 9.58432V20.5C22.2549 21.3312 21.5811 22.005 20.7499 22.005H3.24988C2.41869 22.005 1.74488 21.3312 1.74488 20.5V9.58432C1.74488 9.3972 1.77966 9.21473 1.84483 9.04499L8.29985 15.5L4.64986 19.15C4.45656 19.3433 4.45656 19.6567 4.64986 19.85C4.84317 20.0433 5.15659 20.0433 5.3499 19.85L11.8735 13.3264C11.9305 13.2695 11.9698 13.2303 11.9999 13.2018C12.0299 13.2303 12.0693 13.2695 12.1262 13.3264L18.6499 19.85C18.8432 20.0433 19.1566 20.0433 19.3499 19.85C19.5432 19.6567 19.5432 19.3433 19.3499 19.15Z" fill="black"/>
</svg>
