<svg width="24" height="24" viewBox="0 0 24 24" fill="none" xmlns="http://www.w3.org/2000/svg">
<path fill-rule="evenodd" clip-rule="evenodd" d="M10.2266 1.16323C11.3046 0.461217 12.6954 0.461217 13.7734 1.16323L22.5234 6.8609C23.4445 7.46065 24 8.48529 24 9.58439V20.5001C24 22.295 22.5449 23.7501 20.75 23.7501H3.25C1.45507 23.7501 0 22.295 0 20.5001V9.58439C0 8.48529 0.555515 7.46065 1.47656 6.8609L10.2266 1.16323ZM12.4093 3.25822C12.1605 3.09622 11.8395 3.09622 11.5907 3.25822L3.67824 8.41055L9 13.7323L10.6554 12.0768C10.7238 12.0084 10.8201 11.912 10.9143 11.832C11.0271 11.7362 11.2161 11.5932 11.4836 11.5063C11.8192 11.3972 12.1808 11.3972 12.5164 11.5063C12.7839 11.5932 12.9729 11.7362 13.0857 11.832C13.1799 11.912 13.2762 12.0084 13.3445 12.0768L15 13.7323L20.3218 8.41055L12.4093 3.25822ZM16.7678 15.5001L19.8839 18.6162C20.372 19.1043 20.372 19.8958 19.8839 20.384C19.3957 20.8721 18.6043 20.8721 18.1161 20.384L12 14.2678L5.88388 20.384C5.39573 20.8721 4.60427 20.8721 4.11612 20.384C3.62796 19.8958 3.62796 19.1043 4.11612 18.6162L7.23223 15.5001L2.5 10.7678V20.5001C2.5 20.9143 2.83579 21.2501 3.25 21.2501H20.75C21.1642 21.2501 21.5 20.9143 21.5 20.5001V10.7678L16.7678 15.5001Z" fill="black"/>
</svg>
