<svg width="24" height="24" viewBox="0 0 24 24" fill="none" xmlns="http://www.w3.org/2000/svg">
<path fill-rule="evenodd" clip-rule="evenodd" d="M5.78404 0.504884C5.65777 0.50487 5.53503 0.504857 5.43117 0.513342C5.31719 0.522656 5.18305 0.544605 5.04816 0.613335C4.86094 0.708729 4.70873 0.860945 4.61333 1.04817C4.5446 1.18306 4.52265 1.31719 4.51334 1.43118C4.50485 1.53505 4.50487 1.65776 4.50488 1.78404L4.50488 5.78966L1.88843 7.4934C1.18135 7.95382 0.754883 8.74043 0.754883 9.5842V20.4999C0.754883 21.8778 1.87193 22.9949 3.24988 22.9949H20.7499C22.1278 22.9949 23.2449 21.8778 23.2449 20.4999V9.5842C23.2449 8.74043 22.8184 7.95382 22.1113 7.4934L19.4949 5.78966L19.4949 1.78403C19.4949 1.65775 19.4949 1.53504 19.4864 1.43118C19.4771 1.31719 19.4552 1.18306 19.3864 1.04817C19.291 0.860944 19.1388 0.708729 18.9516 0.613334C18.8167 0.544605 18.6826 0.522656 18.5686 0.513342C18.4647 0.504857 18.342 0.50487 18.2158 0.504884H5.78404ZM19.4949 6.97105V10.3049L21.5139 8.28579L19.4949 6.97105ZM18.5049 11.2949V1.79989C18.5049 1.65171 18.5045 1.57034 18.4997 1.5118L18.4987 1.50103L18.488 1.50005C18.4294 1.49527 18.3481 1.49489 18.1999 1.49489H5.79988C5.6517 1.49489 5.57034 1.49527 5.51179 1.50005L5.50102 1.50103L5.50005 1.5118C5.49527 1.57034 5.49488 1.65171 5.49488 1.79989V11.2948L8.99988 14.7998L11.184 12.6157C11.2582 12.5415 11.3333 12.4663 11.4028 12.4074C11.4799 12.3419 11.5818 12.268 11.7168 12.2241C11.9008 12.1643 12.099 12.1643 12.283 12.2241C12.4179 12.268 12.5199 12.3419 12.597 12.4074C12.6664 12.4663 12.7416 12.5415 12.8158 12.6157L14.9999 14.7998L18.5049 11.2949ZM4.50488 10.3048V6.97105L2.48582 8.28578L4.50488 10.3048ZM19.3499 19.1499L15.6999 15.4999L22.1549 9.04487C22.2201 9.21461 22.2549 9.39707 22.2549 9.5842V20.4999C22.2549 21.3311 21.5811 22.0049 20.7499 22.0049H3.24988C2.41869 22.0049 1.74488 21.3311 1.74488 20.4999V9.5842C1.74488 9.39707 1.77966 9.21461 1.84483 9.04487L8.29985 15.4999L4.64986 19.1499C4.45656 19.3432 4.45656 19.6566 4.64986 19.8499C4.84317 20.0432 5.15659 20.0432 5.3499 19.8499L11.8735 13.3263C11.9305 13.2693 11.9698 13.2302 11.9999 13.2017C12.0299 13.2302 12.0693 13.2693 12.1262 13.3263L18.6499 19.8499C18.8432 20.0432 19.1566 20.0432 19.3499 19.8499C19.5432 19.6566 19.5432 19.3432 19.3499 19.1499Z" fill="black"/>
</svg>
