<svg width="24" height="24" viewBox="0 0 24 24" fill="none" xmlns="http://www.w3.org/2000/svg">
<path fill-rule="evenodd" clip-rule="evenodd" d="M13.5006 1.58216C12.5884 0.988156 11.4116 0.988156 10.4994 1.58216L1.7494 7.27984C0.970051 7.78732 0.5 8.65432 0.5 9.58433V20.5C0.5 22.0188 1.73122 23.25 3.25 23.25H20.75C22.2688 23.25 23.5 22.0188 23.5 20.5V9.58433C23.5 8.65432 23.0299 7.78732 22.2506 7.27984L13.5006 1.58216ZM11.3179 2.83916C11.7326 2.56916 12.2674 2.56916 12.6821 2.83916L21.4321 8.53683C21.4678 8.56011 21.5021 8.58505 21.535 8.61151L15.3536 14.7929L19.5303 18.9697C19.8232 19.2626 19.8232 19.7374 19.5303 20.0303C19.2374 20.3232 18.7626 20.3232 18.4697 20.0303L12 13.5607L5.53033 20.0303C5.23744 20.3232 4.76256 20.3232 4.46967 20.0303C4.17678 19.7374 4.17678 19.2626 4.46967 18.9697L8.64645 14.7929L2.46505 8.61151C2.49785 8.58505 2.53217 8.56011 2.56791 8.53683L11.3179 2.83916Z" fill="black"/>
</svg>
