<svg width="24" height="24" viewBox="0 0 24 24" fill="none" xmlns="http://www.w3.org/2000/svg">
<path fill-rule="evenodd" clip-rule="evenodd" d="M0 7C0 5.20507 1.45507 3.75 3.25 3.75H20.75C22.5449 3.75 24 5.20508 24 7V17C24 18.7949 22.5449 20.25 20.75 20.25H3.25C1.45507 20.25 0 18.7949 0 17V7ZM2.5 17V7.26777L7.23223 12L4.11612 15.1161C3.62796 15.6043 3.62796 16.3957 4.11612 16.8839C4.60427 17.372 5.39573 17.372 5.88388 16.8839L9 13.7678L10.6555 15.4232C10.7238 15.4917 10.8201 15.5881 10.9143 15.668C11.0271 15.7638 11.2161 15.9069 11.4836 15.9938C11.8192 16.1029 12.1808 16.1029 12.5164 15.9938C12.7839 15.9069 12.9729 15.7638 13.0857 15.668C13.1799 15.5881 13.2762 15.4917 13.3446 15.4232L15 13.7678L18.1161 16.8839C18.6043 17.372 19.3957 17.372 19.8839 16.8839C20.372 16.3957 20.372 15.6043 19.8839 15.1161L16.7678 12L21.5 7.26777V17C21.5 17.4142 21.1642 17.75 20.75 17.75H3.25C2.83579 17.75 2.5 17.4142 2.5 17ZM18.9822 6.25H5.01777L12 13.2322L18.9822 6.25Z" fill="black"/>
</svg>
