<svg width="24" height="24" viewBox="0 0 24 24" fill="none" xmlns="http://www.w3.org/2000/svg">
<path fill-rule="evenodd" clip-rule="evenodd" d="M0.75 7C0.75 5.61929 1.86929 4.5 3.25 4.5H20.75C22.1307 4.5 23.25 5.61929 23.25 7V17C23.25 18.3807 22.1307 19.5 20.75 19.5H3.25C1.86929 19.5 0.75 18.3807 0.75 17V7ZM3.25 5.5C3.23585 5.5 3.22175 5.5002 3.20769 5.50059L9.35315 11.646C9.35329 11.6462 9.35302 11.6459 9.35315 11.646C9.35329 11.6462 9.35382 11.6467 9.35395 11.6468L11.8772 14.1701C11.9197 14.2126 11.9531 14.246 11.9825 14.2745L12 14.2913L12.0175 14.2745C12.0469 14.246 12.0803 14.2126 12.1228 14.1701L14.6463 11.6466L20.7923 5.50059C20.7783 5.5002 20.7641 5.5 20.75 5.5H3.25ZM15 12.7071L18.6464 16.3536C18.8417 16.5488 19.1583 16.5488 19.3536 16.3536C19.5488 16.1583 19.5488 15.8417 19.3536 15.6464L15.7071 12L21.789 5.91811C22.0731 6.19106 22.25 6.57488 22.25 7V17C22.25 17.8284 21.5784 18.5 20.75 18.5H3.25C2.42157 18.5 1.75 17.8284 1.75 17V7C1.75 6.57488 1.92685 6.19106 2.211 5.91811L8.29289 12L4.64645 15.6464C4.45118 15.8417 4.45118 16.1583 4.64645 16.3536C4.84171 16.5488 5.15829 16.5488 5.35355 16.3536L9 12.7071L11.1806 14.8877C11.2548 14.9619 11.3301 15.0372 11.3996 15.0963C11.477 15.162 11.5795 15.2364 11.7154 15.2805C11.9004 15.3406 12.0996 15.3406 12.2846 15.2805C12.4205 15.2364 12.523 15.162 12.6004 15.0963C12.6699 15.0372 12.7452 14.9619 12.8193 14.8878L15 12.7071Z" fill="black"/>
</svg>
