<svg width="24" height="24" viewBox="0 0 24 24" fill="none" xmlns="http://www.w3.org/2000/svg">
<path fill-rule="evenodd" clip-rule="evenodd" d="M12.8173 1.00002C12.2833 0.848871 11.7167 0.848871 11.1827 1.00002H5.8C5.51997 1.00002 5.37996 1.00002 5.273 1.05451C5.17892 1.10245 5.10243 1.17894 5.0545 1.27302C5 1.37998 5 1.51999 5 1.80002V4.86484L1.61298 7.07034C0.762783 7.62395 0.25 8.56977 0.25 9.58433V20.5C0.25 22.1569 1.59315 23.5 3.25 23.5H20.75C22.4069 23.5 23.75 22.1569 23.75 20.5V9.58433C23.75 8.56977 23.2372 7.62395 22.387 7.07034L19 4.86484V1.80002C19 1.51999 19 1.37998 18.9455 1.27302C18.8976 1.17894 18.8211 1.10245 18.727 1.05451C18.62 1.00002 18.48 1.00002 18.2 1.00002H12.8173ZM19 7.25148V10.0858L15 14.0858L13.1688 12.2546C13.099 12.1847 13.0099 12.0955 12.9239 12.0226C12.8229 11.9368 12.6628 11.8166 12.4391 11.744C12.1537 11.6512 11.8463 11.6512 11.5609 11.744C11.3372 11.8166 11.1771 11.9368 11.0761 12.0226C10.9901 12.0955 10.901 12.1847 10.8312 12.2546L9 14.0858L5 10.0858V7.25148L2.70433 8.74633C2.42093 8.93087 2.25 9.24615 2.25 9.58433V10.1642L7.58579 15.5L4.29289 18.7929C3.90237 19.1834 3.90237 19.8166 4.29289 20.2071C4.68342 20.5976 5.31658 20.5976 5.70711 20.2071L12 13.9142L18.2929 20.2071C18.6834 20.5976 19.3166 20.5976 19.7071 20.2071C20.0976 19.8166 20.0976 19.1834 19.7071 18.7929L16.4142 15.5L21.75 10.1642V9.58433C21.75 9.24615 21.5791 8.93087 21.2957 8.74633L19 7.25148Z" fill="black"/>
</svg>
