<svg width="24" height="24" viewBox="0 0 24 24" fill="none" xmlns="http://www.w3.org/2000/svg">
<path fill-rule="evenodd" clip-rule="evenodd" d="M5.0545 1.273C5 1.37996 5 1.51997 5 1.8V5.16315L1.7494 7.27982C0.970051 7.7873 0.5 8.6543 0.5 9.58431V20.5C0.5 22.0188 1.73122 23.25 3.25 23.25H20.75C22.2688 23.25 23.5 22.0188 23.5 20.5V9.58431C23.5 8.6543 23.0299 7.7873 22.2506 7.27982L19 5.16315V1.8C19 1.51997 19 1.37996 18.9455 1.273C18.8976 1.17892 18.8211 1.10243 18.727 1.0545C18.62 1 18.48 1 18.2 1H5.8C5.51997 1 5.37996 1 5.273 1.0545C5.17892 1.10243 5.10243 1.17892 5.0545 1.273ZM5 6.95313V10.4393L9 14.4393L11.0064 12.4329C11.078 12.3613 11.1602 12.2791 11.2379 12.2131C11.327 12.1374 11.4584 12.0401 11.6381 11.9817C11.8733 11.9053 12.1267 11.9053 12.3619 11.9817C12.5416 12.0401 12.673 12.1374 12.7621 12.2131C12.8398 12.2791 12.922 12.3612 12.9936 12.4329L15 14.4393L19 10.4393V6.95313L21.4321 8.53682C21.7798 8.76322 21.992 9.14706 21.9998 9.56088L16.0607 15.5L19.5303 18.9697C19.8232 19.2626 19.8232 19.7374 19.5303 20.0303C19.2374 20.3232 18.7626 20.3232 18.4697 20.0303L12 13.5607L9.53119 16.0295L9.53033 16.0303L9.52947 16.0312L5.53033 20.0303C5.23744 20.3232 4.76256 20.3232 4.46967 20.0303C4.17678 19.7374 4.17678 19.2626 4.46967 18.9697L7.93934 15.5L2.00022 9.56088C2.00795 9.14705 2.22021 8.76322 2.56791 8.53682L5 6.95313Z" fill="black"/>
</svg>
