<svg width="24" height="24" viewBox="0 0 24 24" fill="none" xmlns="http://www.w3.org/2000/svg">
<path fill-rule="evenodd" clip-rule="evenodd" d="M13.7734 1.16316C12.6954 0.461156 11.3046 0.461156 10.2266 1.16316L1.47656 6.86084C0.555515 7.46059 0 8.48523 0 9.58433V20.5C0 22.2949 1.45507 23.75 3.25 23.75H20.75C22.5449 23.75 24 22.2949 24 20.5V9.58433C24 8.48523 23.4445 7.46059 22.5234 6.86084L13.7734 1.16316ZM11.5907 3.25816C11.8395 3.09616 12.1605 3.09616 12.4093 3.25816L21.1593 8.95583C21.1656 8.95995 21.1718 8.96416 21.178 8.96845L15.7071 14.4394L19.8839 18.6161C20.372 19.1043 20.372 19.8957 19.8839 20.3839C19.3957 20.8721 18.6043 20.8721 18.1161 20.3839L12 14.2678L5.88388 20.3839C5.39573 20.8721 4.60427 20.8721 4.11612 20.3839C3.62796 19.8957 3.62796 19.1043 4.11612 18.6161L8.29289 14.4394L2.82199 8.96845C2.82817 8.96416 2.83442 8.95995 2.84074 8.95583L11.5907 3.25816Z" fill="black"/>
</svg>
