<svg width="24" height="24" viewBox="0 0 24 24" fill="none" xmlns="http://www.w3.org/2000/svg">
<path fill-rule="evenodd" clip-rule="evenodd" d="M10.363 1.37272C11.3581 0.724717 12.6419 0.724717 13.637 1.37272L22.387 7.0704C23.2372 7.62402 23.75 8.56984 23.75 9.58439V20.5001C23.75 22.1569 22.4069 23.5001 20.75 23.5001H3.25C1.59315 23.5001 0.25 22.1569 0.25 20.5001V9.58439C0.25 8.56984 0.762783 7.62402 1.61298 7.0704L10.363 1.37272ZM12.5457 3.04872C12.214 2.83272 11.786 2.83272 11.4543 3.04872L3.28344 8.3693L9 14.0859L10.8312 12.2546C10.901 12.1848 10.9901 12.0955 11.0761 12.0226C11.1771 11.9369 11.3372 11.8167 11.5609 11.744C11.8463 11.6513 12.1537 11.6513 12.4391 11.744C12.6628 11.8167 12.8229 11.9369 12.9239 12.0226C13.0099 12.0955 13.099 12.1848 13.1688 12.2546L15 14.0859L20.7166 8.3693L12.5457 3.04872ZM16.4142 15.5001L19.7071 18.793C20.0976 19.1835 20.0976 19.8167 19.7071 20.2072C19.3166 20.5977 18.6834 20.5977 18.2929 20.2072L12 13.9143L5.70711 20.2072C5.31658 20.5977 4.68342 20.5977 4.29289 20.2072C3.90237 19.8167 3.90237 19.1835 4.29289 18.793L7.58579 15.5001L2.25 10.1643V20.5001C2.25 21.0524 2.69772 21.5001 3.25 21.5001H20.75C21.3023 21.5001 21.75 21.0524 21.75 20.5001V10.1643L16.4142 15.5001Z" fill="black"/>
</svg>
