<svg width="24" height="24" viewBox="0 0 24 24" fill="none" xmlns="http://www.w3.org/2000/svg">
<path fill-rule="evenodd" clip-rule="evenodd" d="M5.77978 0.250003C5.65762 0.249974 5.52517 0.249942 5.41053 0.259309C5.28077 0.269911 5.10934 0.29615 4.93251 0.386248C4.69731 0.50609 4.50608 0.697316 4.38624 0.932518C4.29614 1.10935 4.2699 1.28078 4.2593 1.41053C4.24994 1.52518 4.24997 1.65763 4.25 1.77979L4.25 5.65153L1.7494 7.27983C0.970051 7.78731 0.5 8.65431 0.5 9.58432V20.5C0.5 22.0188 1.73122 23.25 3.25 23.25H20.75C22.2688 23.25 23.5 22.0188 23.5 20.5V9.58432C23.5 8.65431 23.0299 7.78731 22.2506 7.27983L19.75 5.65153L19.75 1.77978C19.75 1.65764 19.7501 1.52516 19.7407 1.41053C19.7301 1.28078 19.7039 1.10935 19.6138 0.93252C19.4939 0.697316 19.3027 0.50609 19.0675 0.386249C18.8907 0.296151 18.7192 0.269911 18.5895 0.259309C18.4748 0.249942 18.3424 0.249974 18.2202 0.250003H5.77978ZM19.75 7.44151V9.68935L21.1114 8.32798L19.75 7.44151ZM18.25 11.1893L18.25 1.75002H5.75001L5.75 11.1893L9 14.4393L11.0064 12.4329C11.078 12.3613 11.1602 12.2791 11.2379 12.2131C11.327 12.1374 11.4584 12.0401 11.6381 11.9817C11.8733 11.9053 12.1267 11.9053 12.3619 11.9817C12.5416 12.0401 12.673 12.1374 12.7621 12.2131C12.8398 12.2791 12.9219 12.3612 12.9936 12.4329L15 14.4393L18.25 11.1893ZM4.25 9.68935V7.44151L2.88863 8.32798L4.25 9.68935ZM19.5303 18.9697L16.0607 15.5L21.9998 9.56089L22 9.58432V20.5C22 21.1904 21.4404 21.75 20.75 21.75H3.25C2.55964 21.75 2 21.1904 2 20.5V9.58432L2.00022 9.56088L7.93934 15.5L4.46967 18.9697C4.17678 19.2626 4.17678 19.7374 4.46967 20.0303C4.76256 20.3232 5.23744 20.3232 5.53033 20.0303L12 13.5607L18.4697 20.0303C18.7626 20.3232 19.2374 20.3232 19.5303 20.0303C19.8232 19.7374 19.8232 19.2626 19.5303 18.9697Z" fill="black"/>
</svg>
