<svg width="24" height="24" viewBox="0 0 24 24" fill="none" xmlns="http://www.w3.org/2000/svg">
<path fill-rule="evenodd" clip-rule="evenodd" d="M10.4994 1.58222C11.4116 0.988217 12.5884 0.988217 13.5006 1.58222L22.2506 7.2799C23.0299 7.78738 23.5 8.65438 23.5 9.58439V20.5001C23.5 22.0189 22.2688 23.2501 20.75 23.2501H3.25C1.73122 23.2501 0.5 22.0189 0.5 20.5001V9.58439C0.5 8.65438 0.970051 7.78738 1.7494 7.2799L10.4994 1.58222ZM12.6821 2.83922C12.2674 2.56922 11.7326 2.56922 11.3179 2.83922L2.86399 8.3441C2.92362 8.37723 2.97969 8.41911 3.03033 8.46975L9 14.4394L11.0064 12.433C11.078 12.3613 11.1602 12.2792 11.2379 12.2132C11.327 12.1375 11.4584 12.0402 11.6381 11.9818C11.8733 11.9054 12.1267 11.9054 12.3619 11.9818C12.5416 12.0402 12.673 12.1375 12.7621 12.2132C12.8398 12.2792 12.922 12.3613 12.9936 12.433L15 14.4394L20.9697 8.46975C21.0203 8.41911 21.0764 8.37723 21.136 8.3441L12.6821 2.83922ZM16.0607 15.5001L19.5303 18.9697C19.8232 19.2626 19.8232 19.7375 19.5303 20.0304C19.2374 20.3233 18.7626 20.3233 18.4697 20.0304L12 13.5607L5.53033 20.0304C5.23744 20.3233 4.76256 20.3233 4.46967 20.0304C4.17678 19.7375 4.17678 19.2626 4.46967 18.9697L7.93934 15.5001L2.00022 9.56096L2 9.58439V20.5001C2 21.1904 2.55964 21.7501 3.25 21.7501H20.75C21.4404 21.7501 22 21.1904 22 20.5001V9.58439L21.9998 9.56096L16.0607 15.5001Z" fill="black"/>
</svg>
