<svg width="24" height="24" viewBox="0 0 24 24" fill="none" xmlns="http://www.w3.org/2000/svg">
<path fill-rule="evenodd" clip-rule="evenodd" d="M10.2266 1.16316C11.3046 0.461156 12.6954 0.461156 13.7734 1.16316L22.5234 6.86084C23.4445 7.46059 24 8.48523 24 9.58433V20.5C24 22.2949 22.5449 23.75 20.75 23.75H3.25C1.45507 23.75 0 22.2949 0 20.5V9.58433C0 8.48523 0.555515 7.46059 1.47656 6.86084L10.2266 1.16316ZM12.4093 3.25816C12.1605 3.09616 11.8395 3.09616 11.5907 3.25816L3.67824 8.41049L9 13.7322L10.6554 12.0768C10.7238 12.0083 10.8201 11.9119 10.9143 11.832C11.0271 11.7362 11.2161 11.5931 11.4836 11.5062C11.8192 11.3972 12.1808 11.3972 12.5164 11.5062C12.7839 11.5931 12.9729 11.7362 13.0857 11.832C13.1799 11.9119 13.2762 12.0083 13.3445 12.0768L15 13.7322L20.3218 8.41049L12.4093 3.25816ZM16.7678 15.5L19.8839 18.6161C20.372 19.1043 20.372 19.8957 19.8839 20.3839C19.3957 20.8721 18.6043 20.8721 18.1161 20.3839L12 14.2678L5.88388 20.3839C5.39573 20.8721 4.60427 20.8721 4.11612 20.3839C3.62796 19.8957 3.62796 19.1043 4.11612 18.6161L7.23223 15.5L2.5 10.7678V20.5C2.5 20.9142 2.83579 21.25 3.25 21.25H20.75C21.1642 21.25 21.5 20.9142 21.5 20.5V10.7678L16.7678 15.5Z" fill="black"/>
</svg>
