<svg width="24" height="24" viewBox="0 0 24 24" fill="none" xmlns="http://www.w3.org/2000/svg">
<path fill-rule="evenodd" clip-rule="evenodd" d="M13.3642 1.79166C12.5349 1.25166 11.4651 1.25166 10.6358 1.79166L1.88582 7.48934C1.17732 7.95068 0.75 8.73887 0.75 9.58433V20.5C0.75 21.8807 1.86929 23 3.25 23H20.75C22.1307 23 23.25 21.8807 23.25 20.5V9.58433C23.25 8.73887 22.8227 7.95068 22.1142 7.48934L13.3642 1.79166ZM11.1815 2.62966C11.6791 2.30566 12.3209 2.30566 12.8185 2.62966L21.5685 8.32733C21.619 8.36018 21.667 8.39579 21.7126 8.43389L15.1768 14.9697L19.3536 19.1465C19.5488 19.3417 19.5488 19.6583 19.3536 19.8536C19.1583 20.0488 18.8417 20.0488 18.6464 19.8536L12.1228 13.3299C12.0803 13.2874 12.0469 13.254 12.0175 13.2255L12 13.2087L11.9825 13.2255C11.9531 13.254 11.9197 13.2874 11.8772 13.3299L5.35355 19.8536C5.15829 20.0488 4.84171 20.0488 4.64645 19.8536C4.45118 19.6583 4.45118 19.3417 4.64645 19.1465L8.82322 14.9697L2.28743 8.43389C2.33298 8.39579 2.38105 8.36018 2.43149 8.32733L11.1815 2.62966Z" fill="black"/>
</svg>
