<svg width="24" height="24" viewBox="0 0 24 24" fill="none" xmlns="http://www.w3.org/2000/svg">
<path fill-rule="evenodd" clip-rule="evenodd" d="M13.637 1.37266C12.6419 0.724656 11.3581 0.724656 10.363 1.37266L1.61298 7.07034C0.762783 7.62395 0.25 8.56977 0.25 9.58433V20.5C0.25 22.1569 1.59315 23.5 3.25 23.5H20.75C22.4069 23.5 23.75 22.1569 23.75 20.5V9.58433C23.75 8.56977 23.2372 7.62395 22.387 7.07034L13.637 1.37266ZM11.4543 3.04866C11.786 2.83266 12.214 2.83266 12.5457 3.04866L21.2957 8.74633C21.3167 8.76003 21.3371 8.77445 21.3569 8.78955L15.5303 14.6161L19.7071 18.7929C20.0976 19.1834 20.0976 19.8166 19.7071 20.2071C19.3166 20.5976 18.6834 20.5976 18.2929 20.2071L12 13.9142L5.70711 20.2071C5.31658 20.5976 4.68342 20.5976 4.29289 20.2071C3.90237 19.8166 3.90237 19.1834 4.29289 18.7929L8.46967 14.6161L2.64309 8.78955C2.66287 8.77445 2.68329 8.76003 2.70433 8.74633L11.4543 3.04866Z" fill="black"/>
</svg>
