<svg width="24" height="24" viewBox="0 0 24 24" fill="none" xmlns="http://www.w3.org/2000/svg">
<path fill-rule="evenodd" clip-rule="evenodd" d="M5.79036 0.75C5.65858 0.749996 5.54488 0.749992 5.45124 0.757643C5.35241 0.765718 5.2541 0.783547 5.15951 0.831746C5.01839 0.903651 4.90365 1.01839 4.83175 1.15951C4.78355 1.2541 4.76572 1.35241 4.75764 1.45124C4.74999 1.54489 4.75 1.65858 4.75 1.79036L4.75 5.9226L2.02224 7.69882C1.38459 8.11403 1 8.8234 1 9.58432V20.5C1 21.7426 2.00736 22.75 3.25 22.75H20.75C21.9926 22.75 23 21.7426 23 20.5V9.58432C23 8.8234 22.6154 8.11403 21.9778 7.69882L19.25 5.9226V1.79036C19.25 1.65859 19.25 1.54488 19.2424 1.45124C19.2343 1.35241 19.2165 1.2541 19.1683 1.15951C19.0963 1.01839 18.9816 0.903651 18.8405 0.831745C18.7459 0.783547 18.6476 0.765718 18.5488 0.757643C18.4551 0.749992 18.3414 0.749996 18.2096 0.75H5.79036ZM19.25 6.51926V10.8964L21.8232 8.32322C21.8472 8.29925 21.8748 8.28117 21.9043 8.26897C21.842 8.21432 21.7755 8.16375 21.7049 8.11782L19.25 6.51926ZM18.75 11.3964V1.8C18.75 1.65586 18.7498 1.56279 18.744 1.49196C18.7385 1.42404 18.729 1.39886 18.7228 1.3865C18.6988 1.33946 18.6605 1.30122 18.6135 1.27725C18.6011 1.27095 18.576 1.26153 18.508 1.25598C18.4372 1.2502 18.3441 1.25 18.2 1.25H5.8C5.65586 1.25 5.56279 1.2502 5.49196 1.25598C5.42404 1.26153 5.39886 1.27095 5.3865 1.27725C5.33946 1.30122 5.30122 1.33946 5.27725 1.3865C5.27095 1.39886 5.26153 1.42404 5.25598 1.49196C5.25019 1.56279 5.25 1.65586 5.25 1.8V11.3964L9 15.1464L11.3534 12.793C11.4312 12.7153 11.4999 12.6466 11.5614 12.5943C11.627 12.5387 11.7007 12.4871 11.7926 12.4572C11.9274 12.4135 12.0726 12.4135 12.2074 12.4572C12.2993 12.4871 12.373 12.5387 12.4386 12.5943C12.5001 12.6466 12.5688 12.7153 12.6466 12.793L15 15.1464L18.75 11.3964ZM4.75 10.8964V6.51926L2.29507 8.11782C2.22453 8.16375 2.15797 8.21432 2.09569 8.26897C2.12518 8.28117 2.1528 8.29925 2.17678 8.32322L4.75 10.8964ZM19.1768 19.3232L15.3536 15.5L22.1768 8.67678C22.1919 8.66162 22.2047 8.645 22.2152 8.62737C22.3983 8.90778 22.5 9.23923 22.5 9.58432V20.5C22.5 21.4665 21.7165 22.25 20.75 22.25H3.25C2.2835 22.25 1.5 21.4665 1.5 20.5V9.58432C1.5 9.23923 1.6017 8.90778 1.78481 8.62737C1.79526 8.645 1.80807 8.66162 1.82322 8.67678L8.64645 15.5L4.82322 19.3232C4.72559 19.4209 4.72559 19.5791 4.82322 19.6768C4.92085 19.7744 5.07915 19.7744 5.17678 19.6768L11.7004 13.1531C11.7867 13.0669 11.8409 13.0129 11.885 12.9755C11.9269 12.9399 11.943 12.9341 11.9471 12.9328C11.9815 12.9216 12.0185 12.9216 12.0529 12.9328C12.057 12.9341 12.0731 12.9399 12.115 12.9755C12.1591 13.0129 12.2133 13.0669 12.2996 13.1531L18.8232 19.6768C18.9209 19.7744 19.0791 19.7744 19.1768 19.6768C19.2744 19.5791 19.2744 19.4209 19.1768 19.3232Z" fill="black"/>
</svg>
