<svg width="25" height="24" viewBox="0 0 25 24" fill="none" xmlns="http://www.w3.org/2000/svg">
<path fill-rule="evenodd" clip-rule="evenodd" d="M15.1126 20.0001L22.8495 12.2632C23.2791 11.8336 23.2791 11.1371 22.8495 10.7075L14.5057 2.36369C14.0761 1.93411 13.3796 1.93411 12.95 2.36369L1.70705 13.6067C0.535477 14.7783 0.535475 16.6778 1.70705 17.8493L5.53562 21.6779C5.74191 21.8842 6.0217 22.0001 6.31344 22.0001H12.657L12.6606 22.0001H22.5C23.0523 22.0001 23.5 21.5524 23.5 21.0001C23.5 20.4478 23.0523 20.0001 22.5 20.0001H15.1126ZM20.7989 11.4854L16.5564 15.7279L9.48536 8.6568L13.7279 4.4143L20.7989 11.4854ZM12.2842 20.0001L15.1422 17.1421L8.07115 10.071L3.12126 15.0209C2.73074 15.4114 2.73074 16.0446 3.12126 16.4351L6.68623 20.0001H12.2842Z" fill="black"/>
</svg>
