<svg width="24" height="24" viewBox="0 0 24 24" fill="none" xmlns="http://www.w3.org/2000/svg">
<path fill-rule="evenodd" clip-rule="evenodd" d="M13.5088 20.2501L21.6725 12.0864C22.0045 11.7545 22.0045 11.2163 21.6725 10.8843L13.3287 2.54046C12.9967 2.20851 12.4585 2.20852 12.1266 2.54046L0.88358 13.7835C-0.19036 14.8574 -0.19036 16.5986 0.88358 17.6725L4.71216 21.5011C4.87156 21.6605 5.08776 21.7501 5.3132 21.7501H11.6568L11.6599 21.7501H21.4998C21.914 21.7501 22.2498 21.4143 22.2498 21.0001C22.2498 20.5859 21.914 20.2501 21.4998 20.2501H13.5088ZM12.7276 4.06074L20.1522 11.4854L15.5562 16.0814L8.13156 8.6568L12.7276 4.06074ZM11.3875 20.2501L14.4955 17.1421L7.0709 9.71746L1.94424 14.8441C1.45609 15.3323 1.45609 16.1237 1.94424 16.6119L5.58244 20.2501H11.3875Z" fill="black"/>
</svg>
