<svg width="24" height="24" viewBox="0 0 24 24" fill="none" xmlns="http://www.w3.org/2000/svg">
<path fill-rule="evenodd" clip-rule="evenodd" d="M12.9055 20.5001L21.496 11.9096C21.7303 11.6753 21.7303 11.2954 21.496 11.0611L13.1521 2.71724C12.9178 2.48292 12.5379 2.48293 12.3036 2.71724L1.0606 13.9602C0.0842919 14.9365 0.0842919 16.5195 1.0606 17.4958L4.88918 21.3243C5.0017 21.4369 5.15431 21.5001 5.31344 21.5001H11.657L11.6596 21.5001H21.5C21.7761 21.5001 22 21.2762 22 21.0001C22 20.7239 21.7761 20.5001 21.5 20.5001H12.9055ZM12.7279 3.70719L20.506 11.4854L15.5564 16.435L7.77825 8.6568L12.7279 3.70719ZM11.4913 20.5001L14.8493 17.1421L7.07115 9.3639L1.76771 14.6673C1.18192 15.2531 1.18192 16.2029 1.76771 16.7887L5.47913 20.5001H5.49758L5.5 20.5001L11.4913 20.5001Z" fill="black"/>
</svg>
