<svg width="25" height="24" viewBox="0 0 25 24" fill="none" xmlns="http://www.w3.org/2000/svg">
<path fill-rule="evenodd" clip-rule="evenodd" d="M14.2843 20.0001L22.0212 12.2632C22.4508 11.8336 22.4507 11.1371 22.0212 10.7075L13.6773 2.36369C13.2477 1.93411 12.5512 1.93411 12.1217 2.36369L0.87868 13.6067C-0.292892 14.7783 -0.292894 16.6778 0.87868 17.8493L4.70725 21.6779C4.91354 21.8842 5.19333 22.0001 5.48507 22.0001H11.8286L11.8322 22.0001H21.6716C22.2239 22.0001 22.6716 21.5524 22.6716 21.0001C22.6716 20.4478 22.2239 20.0001 21.6716 20.0001H14.2843ZM11.4558 20.0001L15.0209 16.435L7.94983 9.36396L2.29289 15.0209C1.90237 15.4114 1.90237 16.0446 2.29289 16.4351L5.85786 20.0001H11.4558Z" fill="black"/>
</svg>
