<svg width="24" height="24" viewBox="0 0 24 24" fill="none" xmlns="http://www.w3.org/2000/svg">
<path fill-rule="evenodd" clip-rule="evenodd" d="M12.3017 20.7501L21.319 11.7329C21.4557 11.5962 21.4556 11.3746 21.319 11.2379L12.9751 2.89402C12.8384 2.75733 12.6168 2.75733 12.4801 2.89402L1.23713 14.137C0.358456 15.0157 0.358454 16.4403 1.23713 17.319L5.06571 21.1476C5.13135 21.2132 5.22037 21.2501 5.3132 21.2501H11.6568L11.6588 21.2501H21.4998C21.6378 21.2501 21.7498 21.1381 21.7498 21.0001C21.7498 20.862 21.6378 20.7501 21.4998 20.7501H12.3017ZM12.7276 3.35364L20.8593 11.4854L15.5562 16.7885L7.42446 8.6568L12.7276 3.35364ZM11.5946 20.7501L15.2026 17.1421L7.0709 9.01035L1.59069 14.4906C0.907271 15.174 0.907271 16.282 1.59069 16.9654L5.37533 20.7501H5.49805L5.49975 20.7501L11.5946 20.7501Z" fill="black"/>
</svg>
