<svg width="24" height="24" viewBox="0 0 24 24" fill="none" xmlns="http://www.w3.org/2000/svg">
<path fill-rule="evenodd" clip-rule="evenodd" d="M13.509 20.2501L21.6726 12.0864C22.0046 11.7545 22.0046 11.2163 21.6726 10.8843L13.3288 2.54046C12.9968 2.20851 12.4586 2.20852 12.1267 2.54046L0.883702 13.7835C-0.190238 14.8574 -0.190238 16.5986 0.883702 17.6725L4.71228 21.5011C4.87168 21.6605 5.08789 21.7501 5.31332 21.7501H11.6569L11.66 21.7501H21.4999C21.9141 21.7501 22.2499 21.4143 22.2499 21.0001C22.2499 20.5859 21.9141 20.2501 21.4999 20.2501H13.509ZM12.7277 4.06074L20.1524 11.4854L15.5563 16.0814L8.13169 8.6568L12.7277 4.06074ZM11.3876 20.2501L14.4956 17.1421L7.07103 9.71746L1.94436 14.8441C1.45621 15.3323 1.45621 16.1237 1.94436 16.6119L5.58256 20.2501H11.3876Z" fill="black"/>
</svg>
