<svg width="24" height="24" viewBox="0 0 24 24" fill="none" xmlns="http://www.w3.org/2000/svg">
<path fill-rule="evenodd" clip-rule="evenodd" d="M12.302 20.7501L21.3192 11.7329C21.4559 11.5962 21.4559 11.3746 21.3192 11.2379L12.9754 2.89402C12.8387 2.75733 12.6171 2.75733 12.4804 2.89402L1.23738 14.137C0.358701 15.0157 0.358699 16.4403 1.23738 17.319L5.06595 21.1476C5.13159 21.2132 5.22061 21.2501 5.31344 21.2501H11.657L11.659 21.2501H21.5C21.6381 21.2501 21.75 21.1381 21.75 21.0001C21.75 20.862 21.6381 20.7501 21.5 20.7501H12.302ZM12.7279 3.35364L20.8596 11.4854L15.5564 16.7885L7.4247 8.6568L12.7279 3.35364ZM11.5949 20.7501L15.2029 17.1421L7.07115 9.01035L1.59093 14.4906C0.907515 15.174 0.907515 16.282 1.59093 16.9654L5.37557 20.7501H5.49829L5.5 20.7501L11.5949 20.7501Z" fill="black"/>
</svg>
