<svg width="24" height="24" viewBox="0 0 24 24" fill="none" xmlns="http://www.w3.org/2000/svg">
<path fill-rule="evenodd" clip-rule="evenodd" d="M17.6377 8.53906C17.7519 8.54839 17.8879 8.57066 18.0234 8.63965C18.1303 8.6942 18.2245 8.76909 18.3047 8.85645C18.4087 8.81686 18.5187 8.77866 18.6318 8.74512C18.9819 8.64138 19.4046 8.55795 19.8428 8.53613C20.6913 8.49396 21.7629 8.68385 22.3379 9.63379C22.6363 10.1271 22.9489 10.9641 22.4277 12.0088C21.9495 12.9668 20.8029 14.0185 18.5186 15.1572C18.5162 15.19 18.5163 15.2229 18.5137 15.2549C18.457 15.948 18.3394 16.5125 18.0811 17.0195C17.6523 17.8608 16.9683 18.5449 16.127 18.9736C15.62 19.2319 15.0563 19.3486 14.3633 19.4053C13.6758 19.4614 12.8168 19.4609 11.7129 19.4609H11.3555C10.2517 19.4609 9.39339 19.4614 8.70605 19.4053C8.01306 19.3486 7.4493 19.2318 6.94238 18.9736C6.10113 18.5449 5.41603 17.8608 4.9873 17.0195C4.72909 16.5126 4.61231 15.9479 4.55566 15.2549C4.49956 14.5676 4.5 13.7091 4.5 12.6055V9.83008C4.5 9.6986 4.49996 9.5692 4.50879 9.46094C4.51815 9.34681 4.54042 9.21161 4.60938 9.07617C4.70518 8.88833 4.85808 8.73548 5.0459 8.63965C5.18138 8.57062 5.31649 8.54843 5.43066 8.53906C5.53898 8.53021 5.66822 8.53027 5.7998 8.53027H17.2686C17.4 8.53027 17.5294 8.53026 17.6377 8.53906ZM5.5127 9.53516C5.51017 9.53531 5.50708 9.53495 5.50488 9.53516C5.50473 9.53734 5.50504 9.54054 5.50488 9.54297C5.50018 9.60115 5.5 9.6827 5.5 9.83008V12.6055C5.5 13.7258 5.50069 14.5366 5.55273 15.1738C5.60432 15.8049 5.70447 16.2229 5.87891 16.5654C6.21172 17.2184 6.7426 17.7502 7.39551 18.083C7.738 18.2575 8.15609 18.3576 8.78711 18.4092C9.42429 18.4612 10.2352 18.4609 11.3555 18.4609H11.7129C12.8332 18.4609 13.644 18.4612 14.2812 18.4092C14.9125 18.3576 15.3303 18.2575 15.6729 18.083C16.3261 17.7501 16.8575 17.2187 17.1904 16.5654C17.365 16.2229 17.465 15.8051 17.5166 15.1738C17.5686 14.5366 17.5693 13.7258 17.5693 12.6055V9.83008C17.5693 9.68266 17.5682 9.60115 17.5635 9.54297C17.5633 9.54051 17.5627 9.53737 17.5625 9.53516H17.5566C17.4984 9.53042 17.4165 9.53027 17.2686 9.53027H5.7998C5.65221 9.53027 5.57089 9.53043 5.5127 9.53516ZM19.8926 9.53418C19.5452 9.55147 19.2016 9.61947 18.916 9.7041C18.777 9.74532 18.6601 9.78763 18.5684 9.82617L18.5693 9.83008V12.6055C18.5693 13.1253 18.5683 13.5911 18.5625 14.0098C20.4267 13.0152 21.226 12.1778 21.5332 11.5625C21.849 10.9294 21.6735 10.4684 21.4824 10.1523C21.1966 9.68012 20.6148 9.49832 19.8926 9.53418Z" fill="black"/>
<path d="M13.8877 3.54297C14.0019 3.55232 14.1378 3.57446 14.2734 3.64355C14.4612 3.73941 14.6142 3.89223 14.71 4.08008C14.779 4.21559 14.8012 4.35065 14.8105 4.46484C14.8194 4.57317 14.8193 4.7024 14.8193 4.83398V7.60938C14.8193 7.66834 14.8184 7.7266 14.8184 7.78418H13.8184C13.8184 7.72676 13.8193 7.6685 13.8193 7.60938V4.83398C13.8193 4.68633 13.8182 4.60508 13.8135 4.54688C13.8132 4.5443 13.8127 4.54132 13.8125 4.53906H13.8066C13.7484 4.53431 13.6666 4.53418 13.5186 4.53418H2.0498C1.90228 4.53418 1.82091 4.53436 1.7627 4.53906C1.76021 4.53927 1.75712 4.53891 1.75488 4.53906C1.75468 4.54126 1.75504 4.54435 1.75488 4.54688C1.75016 4.60507 1.75 4.68638 1.75 4.83398V7.60938C1.75 8.72983 1.75069 9.54046 1.80273 10.1777C1.85432 10.8091 1.95436 11.2267 2.12891 11.5693C2.46178 12.2225 2.99235 12.754 3.64551 13.0869C3.67931 13.1041 3.7146 13.119 3.75 13.1348V14.1992C3.55521 14.14 3.37013 14.0681 3.19238 13.9775C2.35088 13.5488 1.66609 12.8649 1.2373 12.0234C0.978963 11.5164 0.862307 10.9521 0.805664 10.2588C0.749547 9.57141 0.75 8.71315 0.75 7.60938V4.83398C0.75 4.7024 0.749939 4.57317 0.758789 4.46484C0.768155 4.35067 0.790342 4.21556 0.859375 4.08008C0.955227 3.89228 1.10805 3.73933 1.2959 3.64355C1.43139 3.5746 1.56652 3.55231 1.68066 3.54297C1.789 3.53414 1.91824 3.53418 2.0498 3.53418H13.5186C13.6501 3.53418 13.7794 3.53414 13.8877 3.54297Z" fill="black"/>
</svg>
