<svg width="24" height="24" viewBox="0 0 24 24" fill="none" xmlns="http://www.w3.org/2000/svg">
<path fill-rule="evenodd" clip-rule="evenodd" d="M17.6377 8.53906C17.7519 8.54839 17.8879 8.57066 18.0234 8.63965C18.1303 8.6942 18.2245 8.76909 18.3047 8.85645C18.4087 8.81686 18.5187 8.77866 18.6318 8.74512C18.9819 8.64138 19.4046 8.55795 19.8428 8.53613C20.6913 8.49396 21.7629 8.68385 22.3379 9.63379C22.6363 10.1271 22.9489 10.9641 22.4277 12.0088C21.9495 12.9668 20.8029 14.0185 18.5186 15.1572C18.5162 15.19 18.5163 15.2229 18.5137 15.2549C18.457 15.948 18.3394 16.5125 18.0811 17.0195C17.6523 17.8608 16.9683 18.5449 16.127 18.9736C15.62 19.2319 15.0563 19.3486 14.3633 19.4053C13.6758 19.4614 12.8168 19.4609 11.7129 19.4609H11.3555C10.2517 19.4609 9.39339 19.4614 8.70605 19.4053C8.01306 19.3486 7.4493 19.2318 6.94238 18.9736C6.10113 18.5449 5.41603 17.8608 4.9873 17.0195C4.72909 16.5126 4.61231 15.9479 4.55566 15.2549C4.49956 14.5676 4.5 13.7091 4.5 12.6055V9.83008C4.5 9.6986 4.49996 9.5692 4.50879 9.46094C4.51815 9.34681 4.54042 9.21161 4.60938 9.07617C4.70518 8.88833 4.85808 8.73548 5.0459 8.63965C5.18138 8.57062 5.31649 8.54843 5.43066 8.53906C5.53898 8.53021 5.66823 8.53027 5.7998 8.53027H17.2686C17.4 8.53027 17.5294 8.53026 17.6377 8.53906ZM19.8926 9.53418C19.5452 9.55147 19.2016 9.61947 18.916 9.7041C18.777 9.74532 18.6601 9.78763 18.5684 9.82617L18.5693 9.83008V12.6055C18.5693 13.1253 18.5683 13.5911 18.5625 14.0098C20.4267 13.0152 21.226 12.1778 21.5332 11.5625C21.849 10.9294 21.6735 10.4684 21.4824 10.1523C21.1966 9.68012 20.6148 9.49832 19.8926 9.53418Z" fill="black"/>
<path d="M13.8877 3.54297C14.0019 3.55232 14.1378 3.57445 14.2734 3.64355C14.4612 3.73941 14.6142 3.89223 14.71 4.08008C14.779 4.21559 14.8012 4.35065 14.8105 4.46484C14.8194 4.57317 14.8193 4.7024 14.8193 4.83398V7.60938C14.8193 7.6669 14.8184 7.72407 14.8184 7.78027H5.80078C5.68166 7.78027 5.51687 7.77917 5.37109 7.79102C5.25083 7.80084 5.08262 7.82293 4.89746 7.88867L4.70605 7.9707C4.41808 8.11748 4.17688 8.34124 4.00879 8.61523L3.94141 8.73535C3.80951 8.99422 3.77487 9.23972 3.76172 9.40039C3.74985 9.54614 3.75097 9.71088 3.75098 9.83008V12.6055C3.75098 13.1938 3.75066 13.7251 3.75977 14.2031C3.56132 14.1433 3.37317 14.0696 3.19238 13.9775C2.35088 13.5488 1.66609 12.8649 1.2373 12.0234C0.978972 11.5164 0.862306 10.9521 0.805664 10.2588C0.749547 9.57141 0.75 8.71315 0.75 7.60938V4.83398C0.75 4.7024 0.749939 4.57317 0.758789 4.46484C0.768154 4.35067 0.790341 4.21557 0.859375 4.08008C0.955226 3.89226 1.10804 3.73934 1.2959 3.64355C1.43141 3.57458 1.56651 3.55231 1.68066 3.54297C1.78901 3.53413 1.91822 3.53418 2.0498 3.53418H13.5186C13.6501 3.53418 13.7794 3.53414 13.8877 3.54297Z" fill="black"/>
</svg>
