<svg width="24" height="24" viewBox="0 0 24 24" fill="none" xmlns="http://www.w3.org/2000/svg">
<path fill-rule="evenodd" clip-rule="evenodd" d="M15.5186 6.25004C15.6419 6.25004 15.7953 6.24894 15.9287 6.25981C16.0375 6.26869 16.1819 6.28896 16.3389 6.34477L16.5 6.41313L16.6035 6.47172C16.6228 6.48352 16.6406 6.49816 16.6592 6.51078C16.6863 6.50228 16.7132 6.4934 16.7403 6.48539C17.1224 6.37216 17.584 6.27999 18.0674 6.2559C18.9791 6.21051 20.296 6.40566 21.0157 7.59477C21.3678 8.17676 21.75 9.2016 21.126 10.4522C20.5955 11.5153 19.4031 12.5889 17.2442 13.6993C17.179 14.3482 17.0519 14.9269 16.7774 15.4659C16.3007 16.4015 15.5391 17.162 14.6035 17.6387C14.0143 17.9388 13.3774 18.0649 12.6534 18.1241C11.9409 18.1822 11.0584 18.1807 9.96292 18.1807H9.6055C8.51 18.1807 7.62747 18.1823 6.91507 18.1241C6.19112 18.0649 5.55402 17.9389 4.96487 17.6387C4.02956 17.162 3.26863 16.4013 2.79202 15.4659C2.4919 14.8766 2.36681 14.2397 2.30765 13.5157C2.24945 12.8031 2.25003 11.921 2.25003 10.8252V8.04985C2.25003 7.92654 2.24894 7.77397 2.2598 7.64067C2.27166 7.49556 2.30229 7.2871 2.41312 7.06938L2.47171 6.96586C2.61578 6.73101 2.82255 6.53895 3.06937 6.41313L3.22952 6.34477C3.38672 6.28877 3.5317 6.26873 3.64066 6.25981C3.77386 6.24896 3.92658 6.25004 4.04984 6.25004H15.5186ZM4.25003 10.8252C4.25003 11.9538 4.25083 12.7404 4.30081 13.3526C4.34985 13.9527 4.44171 14.2973 4.57425 14.5577C4.85916 15.1168 5.31396 15.5725 5.87308 15.8575C6.13338 15.99 6.47809 16.0809 7.07816 16.1299C7.69025 16.1799 8.47706 16.1807 9.6055 16.1807H9.96292C11.0916 16.1807 11.8791 16.1799 12.4912 16.1299C13.0913 16.0809 13.436 15.99 13.6963 15.8575C14.2556 15.5725 14.7102 15.1169 14.9951 14.5577C15.1277 14.2973 15.2195 13.9528 15.2686 13.3526C15.3186 12.7404 15.3194 11.9539 15.3194 10.8252V8.25004H4.25003V10.8252ZM18.167 8.25395C17.8695 8.26877 17.5705 8.32689 17.3194 8.40043V10.8252C17.3194 11.013 17.3167 11.1947 17.3164 11.3702C18.5979 10.5922 19.1315 9.96842 19.336 9.55863C19.5494 9.13078 19.4413 8.85828 19.3037 8.6309C19.1624 8.39742 18.8265 8.22111 18.167 8.25395Z" fill="black"/>
</svg>
