<svg width="24" height="24" viewBox="0 0 24 24" fill="none" xmlns="http://www.w3.org/2000/svg">
<path fill-rule="evenodd" clip-rule="evenodd" d="M17.2686 8.28027C17.396 8.28027 17.5373 8.2802 17.6582 8.29004C17.7555 8.29799 17.8769 8.31445 18.0059 8.36035L18.1367 8.41699L18.2227 8.46484C18.2732 8.49587 18.3218 8.53071 18.3672 8.56836C18.431 8.54667 18.4956 8.52512 18.5605 8.50586C18.9267 8.39734 19.3692 8.30908 19.8301 8.28613C20.7102 8.24234 21.9044 8.43527 22.5518 9.50488C22.877 10.0426 23.2237 10.9728 22.6514 12.1201C22.1465 13.1318 20.9764 14.1939 18.7578 15.3174C18.6986 16.0078 18.5784 16.5956 18.3047 17.1328C17.8519 18.0213 17.1287 18.7436 16.2402 19.1963C15.6921 19.4755 15.0915 19.5964 14.3828 19.6543C13.6829 19.7114 12.8125 19.7109 11.7129 19.7109H11.3555C10.2558 19.7109 9.38542 19.7115 8.68555 19.6543C7.97705 19.5964 7.37618 19.4755 6.82812 19.1963C5.93998 18.7435 5.21727 18.021 4.76465 17.1328C4.4855 16.5848 4.36455 15.9839 4.30664 15.2754C4.24949 14.5755 4.25 13.7051 4.25 12.6055V9.83008C4.25 9.70267 4.24991 9.56121 4.25977 9.44043C4.2704 9.31081 4.29687 9.13933 4.38672 8.96289C4.50651 8.72791 4.69765 8.53681 4.93262 8.41699C5.10911 8.32706 5.28049 8.30068 5.41016 8.29004C5.53099 8.28017 5.67231 8.28027 5.7998 8.28027H17.2686ZM5.75 12.6055C5.75 13.7298 5.75075 14.5287 5.80176 15.1533C5.85207 15.7689 5.94806 16.1507 6.10156 16.4521C6.41046 17.0581 6.90381 17.5515 7.50977 17.8604C7.81112 18.0138 8.19223 18.1098 8.80762 18.1602C9.43226 18.2112 10.2311 18.2109 11.3555 18.2109H11.7129C12.8372 18.2109 13.6361 18.2111 14.2607 18.1602C14.8766 18.1098 15.2581 18.0139 15.5596 17.8604C16.1658 17.5515 16.6588 17.0583 16.9678 16.4521C17.1214 16.1507 17.2172 15.7691 17.2676 15.1533C17.3186 14.5287 17.3193 13.7298 17.3193 12.6055V9.83008C17.3193 9.81272 17.3184 9.79578 17.3184 9.78027H5.75V12.6055ZM19.9043 9.78418C19.5799 9.80036 19.2566 9.86357 18.9873 9.94336C18.9257 9.96162 18.8696 9.98034 18.8193 9.99805V12.6055C18.8193 12.9546 18.8162 13.2812 18.8145 13.5859C20.3904 12.6939 21.0548 11.9612 21.3096 11.4512C21.5742 10.9207 21.4329 10.5529 21.2686 10.2812C21.0549 9.92838 20.5952 9.74979 19.9043 9.78418Z" fill="black"/>
<path d="M13.5186 3.28418C13.646 3.28418 13.7873 3.28408 13.9082 3.29395C14.0056 3.30191 14.1269 3.31829 14.2559 3.36426L14.3867 3.4209L14.4727 3.46875C14.6683 3.58882 14.8278 3.76112 14.9326 3.9668C15.0225 4.14331 15.0489 4.31467 15.0596 4.44434C15.0694 4.56518 15.0693 4.70648 15.0693 4.83398V7.28418H13.5693V4.83398C13.5693 4.81653 13.5684 4.79977 13.5684 4.78418H2V7.60938C2 8.73388 2.00074 9.53251 2.05176 10.1572C2.10208 10.7732 2.19796 11.1546 2.35156 11.4561C2.5682 11.8811 2.87678 12.2487 3.25 12.5381V14.2803C3.19231 14.2547 3.13464 14.229 3.07813 14.2002C2.18973 13.7474 1.46733 13.0252 1.01465 12.1367C0.735371 11.5885 0.614546 10.988 0.556641 10.2793C0.499485 9.57935 0.5 8.70912 0.5 7.60938V4.83398C0.499999 4.70648 0.499893 4.56518 0.509766 4.44434C0.520406 4.31467 0.54679 4.14329 0.636719 3.9668C0.756557 3.73185 0.947623 3.54066 1.18262 3.4209C1.35913 3.33104 1.53054 3.30456 1.66016 3.29395C1.78102 3.28409 1.92233 3.28418 2.0498 3.28418H13.5186Z" fill="black"/>
</svg>
