<svg width="24" height="24" viewBox="0 0 24 24" fill="none" xmlns="http://www.w3.org/2000/svg">
<path fill-rule="evenodd" clip-rule="evenodd" d="M17.2686 7.78031C17.3879 7.78031 17.5533 7.77915 17.6992 7.79105C17.8196 7.80088 17.9876 7.82285 18.1729 7.8887L18.3633 7.97074L18.4483 8.01761C18.8407 7.90355 19.3109 7.81177 19.8047 7.78714C20.7479 7.74019 22.1876 7.93755 22.9795 9.24613C23.3584 9.87247 23.7746 10.9908 23.0996 12.3438C22.5448 13.4556 21.3311 14.5385 19.2285 15.6368C19.1575 16.2519 19.0241 16.8214 18.75 17.3594C18.2493 18.342 17.4504 19.142 16.4678 19.6426C15.8374 19.9637 15.1635 20.0929 14.4239 20.1534C13.6988 20.2126 12.8044 20.211 11.7129 20.211H11.3555C10.2641 20.211 9.36951 20.2126 8.64456 20.1534C7.90531 20.0929 7.23172 19.9636 6.60159 19.6426C5.61919 19.1419 4.81999 18.3418 4.31937 17.3594C3.99845 16.7293 3.86905 16.0557 3.80862 15.3164C3.74942 14.5914 3.75003 13.697 3.75003 12.6055V9.83011C3.75003 9.71092 3.7489 9.54615 3.76077 9.40042C3.77392 9.23978 3.80863 8.99421 3.94046 8.73538L4.00784 8.61527C4.17589 8.34125 4.41717 8.11756 4.70511 7.97074L4.89652 7.8887C5.0817 7.82288 5.24979 7.8009 5.37015 7.79105C5.51591 7.77916 5.68058 7.7803 5.79984 7.78031H17.2686ZM19.9297 10.2832C19.722 10.2936 19.5113 10.3268 19.3194 10.3721V12.6055C19.3194 12.6351 19.3184 12.6651 19.3184 12.6944C20.2969 12.0471 20.7053 11.5421 20.8623 11.2276C21.0244 10.9026 20.9506 10.7231 20.8399 10.5401C20.7705 10.426 20.5566 10.2521 19.9297 10.2832Z" fill="black"/>
<path d="M13.5186 2.78421C13.6379 2.78421 13.8033 2.78303 13.9493 2.79495C14.0697 2.80481 14.2375 2.82668 14.4229 2.89261L14.6133 2.97464L14.7344 3.04203C14.9692 3.18609 15.1665 3.38436 15.3106 3.61917L15.378 3.73929L15.46 3.9307C15.5259 4.11598 15.5478 4.28392 15.5576 4.40433C15.5695 4.55012 15.5694 4.71475 15.5694 4.83402V6.28031H5.79984C5.70485 6.2803 5.46881 6.27792 5.24808 6.29593C5.02625 6.31408 4.64277 6.36264 4.21195 6.54691L4.02445 6.6348C3.48953 6.90746 3.0417 7.32209 2.72952 7.83109L2.60452 8.05472C2.34689 8.5604 2.28637 9.02491 2.26566 9.27835C2.24763 9.49932 2.25003 9.73532 2.25003 9.83011V12.6055C2.25003 13.2043 2.25072 13.7713 2.26175 14.295C1.54872 13.8039 0.965599 13.141 0.569367 12.3633C0.24834 11.733 0.11905 11.0598 0.0586249 10.3203C-0.000590298 9.5953 3.11537e-05 8.70098 3.11681e-05 7.60941V4.83402C2.77444e-05 4.71476 -0.00111574 4.5501 0.0107734 4.40433C0.0239249 4.24365 0.0585667 3.99815 0.190461 3.73929L0.257844 3.61917C0.425936 3.3452 0.667155 3.12142 0.955109 2.97464L1.14652 2.89261C1.33176 2.82681 1.49983 2.80479 1.62015 2.79495C1.76599 2.78308 1.93063 2.78421 2.04984 2.78421H13.5186Z" fill="black"/>
</svg>
