<svg width="24" height="24" viewBox="0 0 24 24" fill="none" xmlns="http://www.w3.org/2000/svg">
<path fill-rule="evenodd" clip-rule="evenodd" d="M15.8682 7.00809C15.9667 7.01618 16.0648 7.03429 16.1592 7.08231C16.2903 7.14914 16.3973 7.25356 16.4697 7.38114C16.6099 7.3187 16.7747 7.25823 16.9531 7.20536C17.287 7.10642 17.6891 7.02588 18.1045 7.00516C18.9216 6.96448 19.8713 7.15277 20.374 7.98368C20.6456 8.43277 20.9241 9.1756 20.4541 10.1175C20.0037 11.0195 18.8839 12.0631 16.5273 13.219C16.5224 13.2999 16.5199 13.379 16.5137 13.4554C16.4583 14.1328 16.3457 14.6605 16.1084 15.1263C15.7036 15.9203 15.0578 16.5663 14.2637 16.971C13.7978 17.2082 13.2703 17.3209 12.5928 17.3763C11.9179 17.4314 11.0709 17.4309 9.96289 17.4309H9.60547C8.49767 17.4309 7.65133 17.4314 6.97656 17.3763C6.29892 17.3209 5.77155 17.2083 5.30566 16.971C4.51136 16.5662 3.86476 15.9205 3.45996 15.1263C3.22261 14.6604 3.11009 14.1329 3.05469 13.4554C2.99955 12.7805 3 11.9336 3 10.8255V8.05008C3 7.91445 3.00001 7.79726 3.00781 7.70145C3.01588 7.60279 3.03401 7.5039 3.08203 7.40946C3.15381 7.26878 3.26856 7.15418 3.40918 7.08231C3.50361 7.03419 3.6025 7.01619 3.70117 7.00809C3.79695 7.00027 3.91417 7.00028 4.0498 7.00028H15.5186C15.6543 7.00028 15.7723 7.00028 15.8682 7.00809ZM3.74219 7.50614C3.67483 7.51167 3.6491 7.52134 3.63672 7.52762C3.58988 7.55161 3.55124 7.59011 3.52734 7.637C3.52104 7.64956 3.51133 7.67555 3.50586 7.74247C3.50012 7.8132 3.5 7.90646 3.5 8.05008V10.8255C3.5 11.9418 3.50062 12.7645 3.55371 13.4143C3.60657 14.0609 3.70988 14.5151 3.90527 14.8987C4.2621 15.599 4.832 16.1688 5.53223 16.5257C5.91591 16.7212 6.37082 16.8253 7.01758 16.8782C7.66722 16.9313 8.48962 16.9309 9.60547 16.9309H9.96289C11.0791 16.9309 11.902 16.9313 12.5518 16.8782C13.1983 16.8254 13.6525 16.721 14.0361 16.5257C14.7364 16.1689 15.3062 15.5989 15.6631 14.8987C15.8586 14.5151 15.9628 14.061 16.0156 13.4143C16.0687 12.7645 16.0693 11.9418 16.0693 10.8255V8.05008C16.0693 7.90639 16.0682 7.81321 16.0625 7.74247C16.057 7.67526 16.0483 7.6495 16.042 7.637C16.0181 7.59001 15.9796 7.5516 15.9326 7.52762C15.9202 7.52133 15.8946 7.51166 15.8271 7.50614C15.7564 7.50038 15.6624 7.50028 15.5186 7.50028H4.0498C3.90616 7.50028 3.8129 7.50038 3.74219 7.50614ZM18.1299 7.50516C17.7598 7.52359 17.3964 7.59543 17.0947 7.68485C16.8674 7.75226 16.6856 7.82536 16.5654 7.88797C16.566 7.93844 16.5693 7.99272 16.5693 8.05008V10.8255C16.5693 11.5313 16.5671 12.1309 16.5527 12.6477C18.7031 11.5592 19.6442 10.6203 20.0068 9.89383C20.3742 9.15761 20.1643 8.60288 19.9463 8.24247C19.5881 7.65055 18.8839 7.46765 18.1299 7.50516Z" fill="black"/>
</svg>
