<svg width="24" height="24" viewBox="0 0 24 24" fill="none" xmlns="http://www.w3.org/2000/svg">
<path fill-rule="evenodd" clip-rule="evenodd" d="M17.6182 8.78809C17.7167 8.79617 17.8149 8.81437 17.9092 8.8623C18.0404 8.92919 18.1473 9.03443 18.2197 9.16211C18.3599 9.09965 18.5247 9.03824 18.7031 8.98535C19.037 8.88642 19.4392 8.80587 19.8545 8.78516C20.6716 8.74448 21.6213 8.93294 22.124 9.76367C22.3956 10.2127 22.6739 10.9557 22.2041 11.8975C21.7538 12.7995 20.6338 13.8431 18.2773 14.999C18.2724 15.0799 18.2699 15.159 18.2637 15.2354C18.2083 15.9128 18.0957 16.4405 17.8584 16.9062C17.4536 17.7004 16.8079 18.3463 16.0137 18.751C15.5478 18.9883 15.0204 19.1009 14.3428 19.1562C13.6679 19.2114 12.821 19.2109 11.7129 19.2109H11.3555C10.2476 19.2109 9.40134 19.2114 8.72656 19.1562C8.04896 19.1009 7.52152 18.9883 7.05566 18.751C6.26148 18.3462 5.61473 17.7004 5.20996 16.9062C4.97273 16.4405 4.86008 15.9127 4.80469 15.2354C4.74957 14.5605 4.75 13.7134 4.75 12.6055V9.83008C4.75 9.69451 4.75001 9.5772 4.75781 9.48145C4.7659 9.38279 4.78396 9.28388 4.83203 9.18945C4.90384 9.04875 5.0185 8.93415 5.15918 8.8623C5.25364 8.81417 5.35247 8.79618 5.45117 8.78809C5.54697 8.78026 5.66414 8.78027 5.7998 8.78027H17.2686C17.4043 8.78027 17.5223 8.78028 17.6182 8.78809ZM19.8799 9.28516C19.5098 9.30358 19.1464 9.37543 18.8447 9.46484C18.6176 9.5322 18.4356 9.60539 18.3154 9.66797C18.316 9.71846 18.3193 9.77269 18.3193 9.83008V12.6055C18.3193 13.3106 18.3171 13.9103 18.3027 14.4268C20.4527 13.3383 21.3943 12.4002 21.7568 11.6738C22.124 10.9377 21.9142 10.3828 21.6963 10.0225C21.3381 9.4307 20.6338 9.24766 19.8799 9.28516Z" fill="black"/>
<path d="M13.8682 3.79199C13.9667 3.80009 14.0648 3.81816 14.1592 3.86621C14.3001 3.93806 14.4154 4.05243 14.4873 4.19336C14.5354 4.28785 14.5534 4.38663 14.5615 4.48535C14.5694 4.58115 14.5693 4.69831 14.5693 4.83398V7.60938C14.5693 7.84438 14.5671 8.06793 14.5664 8.28027H5.7998C5.67232 8.28027 5.53098 8.28017 5.41016 8.29004C5.28049 8.30068 5.1091 8.32707 4.93262 8.41699C4.69762 8.53683 4.5065 8.72786 4.38672 8.96289C4.29676 9.13949 4.27039 9.31075 4.25977 9.44043C4.24989 9.56135 4.25 9.70251 4.25 9.83008V12.6055C4.25 13.1455 4.24922 13.6301 4.25586 14.0664C3.90209 13.9991 3.59231 13.9009 3.30566 13.7549C2.51124 13.3501 1.86479 12.7045 1.45996 11.9102C1.22263 11.4443 1.11008 10.9168 1.05469 10.2393C0.999566 9.56436 1 8.71746 1 7.60938V4.83398C1 4.69831 0.999985 4.58115 1.00781 4.48535C1.0159 4.38665 1.0339 4.28782 1.08203 4.19336C1.1539 4.05269 1.26847 3.93801 1.40918 3.86621C1.50365 3.81815 1.60247 3.80006 1.70117 3.79199C1.79699 3.78418 1.91413 3.78418 2.0498 3.78418H13.5186C13.6543 3.78418 13.7723 3.78416 13.8682 3.79199Z" fill="black"/>
</svg>
