<svg width="24" height="24" viewBox="0 0 24 24" fill="none" xmlns="http://www.w3.org/2000/svg">
<path fill-rule="evenodd" clip-rule="evenodd" d="M17.2686 7.78031C17.3879 7.78031 17.5533 7.77915 17.6992 7.79105C17.8196 7.80089 17.9876 7.82285 18.1729 7.88871L18.3633 7.97074L18.4483 8.01761C18.8407 7.90355 19.3109 7.81177 19.8047 7.78714C20.7479 7.74019 22.1876 7.93755 22.9795 9.24613C23.3584 9.87247 23.7746 10.9908 23.0996 12.3438C22.5448 13.4556 21.3311 14.5385 19.2285 15.6368C19.1575 16.2519 19.0241 16.8214 18.75 17.3594C18.2493 18.342 17.4504 19.142 16.4678 19.6426C15.8374 19.9637 15.1635 20.0929 14.4239 20.1534C13.6988 20.2126 12.8044 20.211 11.7129 20.211H11.3555C10.2641 20.211 9.36951 20.2126 8.64456 20.1534C7.90532 20.0929 7.23171 19.9636 6.60159 19.6426C5.6192 19.1419 4.81999 18.3418 4.31937 17.3594C3.99846 16.7293 3.86905 16.0557 3.80862 15.3164C3.74942 14.5915 3.75003 13.6969 3.75003 12.6055V9.83011C3.75003 9.71093 3.74891 9.54615 3.76077 9.40042C3.77392 9.23979 3.80864 8.99421 3.94046 8.73538L4.00784 8.61527C4.17589 8.34125 4.41717 8.11756 4.70511 7.97074L4.89652 7.88871C5.08172 7.82288 5.24978 7.8009 5.37015 7.79105C5.51593 7.77916 5.68058 7.7803 5.79984 7.78031H17.2686ZM6.25003 12.6055C6.25003 13.7378 6.25091 14.5128 6.29984 15.1123C6.34761 15.6968 6.43532 16.0054 6.54691 16.2246C6.80785 16.7367 7.22437 17.1541 7.73636 17.4151C7.95559 17.5267 8.26398 17.6134 8.84866 17.6612C9.44822 17.7101 10.2229 17.711 11.3555 17.711H11.7129C12.8457 17.711 13.6211 17.7101 14.2207 17.6612C14.8049 17.6134 15.1129 17.5266 15.3321 17.4151C15.8442 17.1541 16.2615 16.7368 16.5225 16.2246C16.6341 16.0054 16.7208 15.6969 16.7686 15.1123C16.8175 14.5128 16.8194 13.7379 16.8194 12.6055V10.2803H6.25003V12.6055ZM19.9297 10.2832C19.722 10.2936 19.5113 10.3268 19.3194 10.3721V12.6055C19.3194 12.6351 19.3184 12.6651 19.3184 12.6944C20.2969 12.0471 20.7053 11.5421 20.8623 11.2276C21.0244 10.9026 20.9506 10.7231 20.8399 10.5401C20.7705 10.426 20.5566 10.2521 19.9297 10.2832ZM5.57327 10.2832C5.57327 10.2832 5.57599 10.2827 5.58011 10.2823H5.57718C5.5749 10.2825 5.57327 10.2832 5.57327 10.2832ZM17.4951 10.2832L17.4922 10.2823H17.4893C17.4919 10.2826 17.4951 10.2832 17.4951 10.2832Z" fill="black"/>
<path fill-rule="evenodd" clip-rule="evenodd" d="M13.5186 2.78421C13.638 2.78421 13.8033 2.78303 13.9493 2.79496C14.0697 2.80481 14.2375 2.82668 14.4229 2.89261L14.6133 2.97464L14.7344 3.04203C14.9692 3.1861 15.1665 3.38435 15.3106 3.61917L15.378 3.73929L15.46 3.9307C15.5259 4.116 15.5478 4.28392 15.5576 4.40433C15.5695 4.55013 15.5694 4.71475 15.5694 4.83402V6.53421H13.0694V5.28421H2.50003V7.60941C2.50003 8.27453 2.50159 8.81621 2.51175 9.27152C2.50423 9.35809 2.50004 9.44569 2.50003 9.53421V14.4493C1.67841 13.9471 1.00886 13.2259 0.569367 12.3633C0.248322 11.733 0.119051 11.0598 0.0586249 10.3203C-0.000593208 9.59529 3.11557e-05 8.70099 3.117e-05 7.60941V4.83402C2.7941e-05 4.71476 -0.00111677 4.55012 0.0107734 4.40433C0.0239233 4.24365 0.0585598 3.99816 0.190461 3.73929L0.257844 3.61917C0.425938 3.3452 0.667152 3.12142 0.955109 2.97464L1.14652 2.89261C1.33176 2.82681 1.49984 2.80478 1.62015 2.79496C1.766 2.78308 1.93063 2.78421 2.04984 2.78421H13.5186ZM1.82327 5.28714C1.82327 5.28714 1.82668 5.28656 1.83011 5.28617H1.82718L1.82327 5.28714ZM13.7451 5.28714L13.7422 5.28617H13.7393C13.7422 5.28652 13.7451 5.28714 13.7451 5.28714Z" fill="black"/>
</svg>
