<svg width="24" height="24" viewBox="0 0 24 24" fill="none" xmlns="http://www.w3.org/2000/svg">
<path d="M21.2705 16.4686C21.5634 16.1761 22.0383 16.176 22.3311 16.4686C22.6236 16.7614 22.6235 17.2363 22.3311 17.5291L19.5312 20.329C19.2384 20.6216 18.7636 20.6216 18.4707 20.329L15.6709 17.5291C15.3784 17.2363 15.3783 16.7614 15.6709 16.4686C15.9637 16.1762 16.4386 16.1761 16.7314 16.4686L19.001 18.7381L21.2705 16.4686Z" fill="black"/>
<path d="M9.90137 18.3485C10.3152 18.3488 10.6511 18.6847 10.6514 19.0985C10.6513 19.5124 10.3153 19.8482 9.90137 19.8485H2.20215C1.78799 19.8485 1.45224 19.5126 1.45215 19.0985C1.45239 18.6845 1.78809 18.3485 2.20215 18.3485H9.90137Z" fill="black"/>
<path d="M9.90137 13.45C10.3153 13.4503 10.6514 13.786 10.6514 14.2C10.651 14.6138 10.3151 14.9498 9.90137 14.95H2.20215C1.78815 14.95 1.4525 14.614 1.45215 14.2C1.45215 13.7858 1.78793 13.45 2.20215 13.45H9.90137Z" fill="black"/>
<path d="M9.90137 8.55063C10.3153 8.55092 10.6514 8.8866 10.6514 9.30063C10.651 9.71439 10.3151 10.0503 9.90137 10.0506H2.20215C1.78814 10.0506 1.45248 9.71456 1.45215 9.30063C1.45215 8.88642 1.78793 8.55063 2.20215 8.55063H9.90137Z" fill="black"/>
<path d="M18.4678 3.17075C18.7606 2.87793 19.2354 2.87802 19.5283 3.17075L22.3281 5.97055C22.6208 6.26346 22.6209 6.73829 22.3281 7.0311C22.0353 7.32383 21.5605 7.32372 21.2676 7.0311L18.998 4.76157L16.7285 7.0311C16.4357 7.32367 15.9608 7.32367 15.668 7.0311C15.3753 6.73828 15.3754 6.26341 15.668 5.97055L18.4678 3.17075Z" fill="black"/>
<path d="M9.90137 3.65122C10.3153 3.6515 10.6514 3.98718 10.6514 4.40122C10.6511 4.81499 10.3151 5.15093 9.90137 5.15122H2.20215C1.78813 5.15122 1.45246 4.81517 1.45215 4.40122C1.45215 3.98701 1.78793 3.65122 2.20215 3.65122H9.90137Z" fill="black"/>
</svg>
