<svg width="24" height="24" viewBox="0 0 24 24" fill="none" xmlns="http://www.w3.org/2000/svg">
<path d="M21.623 16.823C21.7206 16.7254 21.8789 16.7255 21.9766 16.823C22.0741 16.9207 22.0742 17.0789 21.9766 17.1765L19.1768 19.9763C19.0791 20.0734 18.9207 20.0737 18.8232 19.9763L16.0234 17.1765C15.9263 17.0791 15.9265 16.9206 16.0234 16.823C16.121 16.7255 16.2793 16.7257 16.377 16.823L19 19.4461L21.623 16.823Z" fill="black"/>
<path d="M9.90137 18.8484C10.039 18.8487 10.151 18.9608 10.1514 19.0984C10.1514 19.2363 10.0392 19.3481 9.90137 19.3484H2.20215C2.06408 19.3484 1.95215 19.2365 1.95215 19.0984C1.95248 18.9606 2.06428 18.8484 2.20215 18.8484H9.90137Z" fill="black"/>
<path d="M9.90137 13.95C10.0391 13.9503 10.1513 14.0622 10.1514 14.2C10.1511 14.3376 10.039 14.4497 9.90137 14.45H2.20215C2.06424 14.45 1.95241 14.3378 1.95215 14.2C1.95224 14.062 2.06413 13.95 2.20215 13.95H9.90137Z" fill="black"/>
<path d="M9.90137 9.05056C10.0391 9.05085 10.1513 9.16274 10.1514 9.30056C10.1511 9.43825 10.039 9.55028 9.90137 9.55056H2.20215C2.06423 9.55056 1.95239 9.43843 1.95215 9.30056C1.95224 9.16257 2.06413 9.05056 2.20215 9.05056H9.90137Z" fill="black"/>
<path d="M18.8213 3.52419C18.9189 3.42686 19.0772 3.4268 19.1748 3.52419L21.9746 6.324C22.0719 6.42157 22.0719 6.57994 21.9746 6.67751C21.877 6.775 21.7187 6.77489 21.6211 6.67751L18.998 4.05447L16.375 6.67751C16.2774 6.77484 16.1191 6.77484 16.0215 6.67751C15.9241 6.57995 15.9241 6.4216 16.0215 6.324L18.8213 3.52419Z" fill="black"/>
<path d="M9.90137 4.15115C10.0391 4.15143 10.1513 4.26333 10.1514 4.40115C10.1511 4.53885 10.0391 4.65086 9.90137 4.65115H2.20215C2.06421 4.65115 1.95237 4.53903 1.95215 4.40115C1.95224 4.26315 2.06413 4.15115 2.20215 4.15115H9.90137Z" fill="black"/>
</svg>
