<svg width="24" height="24" viewBox="0 0 24 24" fill="none" xmlns="http://www.w3.org/2000/svg">
<path d="M21.4463 16.6463C21.6415 16.451 21.958 16.4511 22.1533 16.6463C22.3484 16.8415 22.3485 17.1581 22.1533 17.3533L19.3535 20.1531C19.1583 20.3477 18.8416 20.348 18.6465 20.1531L15.8467 17.3533C15.6519 17.1582 15.6521 16.8415 15.8467 16.6463C16.0418 16.4511 16.3584 16.4513 16.5537 16.6463L19 19.0926L21.4463 16.6463Z" fill="black"/>
<path d="M9.90137 18.5984C10.1771 18.5987 10.4011 18.8227 10.4014 19.0984C10.4014 19.3744 10.1773 19.5981 9.90137 19.5984H2.20215C1.92601 19.5984 1.70215 19.3746 1.70215 19.0984C1.70247 18.8225 1.9262 18.5984 2.20215 18.5984H9.90137Z" fill="black"/>
<path d="M9.90137 13.7C10.1772 13.7003 10.4013 13.9241 10.4014 14.2C10.4011 14.4757 10.1771 14.6997 9.90137 14.7H2.20215C1.92617 14.7 1.70241 14.4759 1.70215 14.2C1.70222 13.9239 1.92605 13.7 2.20215 13.7H9.90137Z" fill="black"/>
<path d="M9.90137 8.80056C10.1772 8.80084 10.4013 9.02465 10.4014 9.30056C10.4011 9.57632 10.1771 9.80027 9.90137 9.80056H2.20215C1.92616 9.80056 1.70239 9.5765 1.70215 9.30056C1.70222 9.02448 1.92605 8.80056 2.20215 8.80056H9.90137Z" fill="black"/>
<path d="M18.6445 3.34743C18.8398 3.15243 19.1564 3.1524 19.3516 3.34743L22.1514 6.14724C22.3463 6.34245 22.3463 6.65907 22.1514 6.85427C21.9562 7.04939 21.6396 7.04927 21.4443 6.85427L18.998 4.40798L16.5518 6.85427C16.3566 7.04923 16.0399 7.04922 15.8447 6.85427C15.6497 6.65907 15.6497 6.34247 15.8447 6.14724L18.6445 3.34743Z" fill="black"/>
<path d="M9.90137 3.90114C10.1772 3.90143 10.4013 4.12524 10.4014 4.40114C10.4011 4.67692 10.1771 4.90086 9.90137 4.90114H2.20215C1.92614 4.90114 1.70237 4.6771 1.70215 4.40114C1.70222 4.12506 1.92605 3.90114 2.20215 3.90114H9.90137Z" fill="black"/>
</svg>
