<svg width="24" height="24" viewBox="0 0 24 24" fill="none" xmlns="http://www.w3.org/2000/svg">
<path fill-rule="evenodd" clip-rule="evenodd" d="M16.0007 11.9998C16.0007 14.209 14.2098 15.9998 12.0007 15.9998C9.79156 15.9998 8.0007 14.209 8.0007 11.9998C8.0007 9.79068 9.79156 7.99982 12.0007 7.99982C14.2098 7.99982 16.0007 9.79068 16.0007 11.9998ZM15.0007 11.9998C15.0007 13.6567 13.6575 14.9998 12.0007 14.9998C10.3438 14.9998 9.0007 13.6567 9.0007 11.9998C9.0007 10.343 10.3438 8.99982 12.0007 8.99982C13.6575 8.99982 15.0007 10.343 15.0007 11.9998Z" fill="black"/>
<path fill-rule="evenodd" clip-rule="evenodd" d="M12.0007 4.49982C8.84815 4.49982 6.28987 5.85306 4.41342 7.36989C2.53834 8.88562 1.31646 10.586 0.821778 11.3421L0.806562 11.3653C0.740312 11.4658 0.654209 11.5965 0.613224 11.7701C0.579446 11.9133 0.579446 12.0864 0.613224 12.2295C0.654209 12.4032 0.740311 12.5338 0.806561 12.6344L0.821777 12.6575C1.31646 13.4136 2.53834 15.114 4.41342 16.6297C6.28987 18.1466 8.84815 19.4998 12.0007 19.4998C15.1362 19.4998 17.6838 18.1612 19.5574 16.6544C21.4295 15.1488 22.6557 13.4544 23.1632 12.6825L23.1797 12.6576C23.25 12.5515 23.3413 12.4136 23.3819 12.232C23.4154 12.0819 23.4115 11.9027 23.3716 11.7542C23.3232 11.5745 23.2255 11.4401 23.1504 11.3366L23.1326 11.3121C22.5849 10.5526 21.2628 8.86118 19.3598 7.35535C17.4597 5.85175 14.9375 4.49982 12.0007 4.49982ZM1.65859 11.8896C2.12192 11.1814 3.2777 9.57381 5.04207 8.14758C6.80508 6.72246 9.14804 5.49982 12.0007 5.49982C14.6259 5.49982 16.9335 6.7106 18.7393 8.13954C20.5423 9.56626 21.8024 11.1772 22.3215 11.897C22.3452 11.9298 22.3627 11.9541 22.3775 11.9754C22.3901 11.9935 22.3981 12.0057 22.4034 12.0141C22.3986 12.0227 22.3913 12.0349 22.3797 12.0532C22.366 12.0748 22.3497 12.0996 22.3276 12.1332C21.8517 12.857 20.6919 14.4587 18.9307 15.8751C17.1709 17.2904 14.8379 18.4998 12.0007 18.4998C9.14804 18.4998 6.80508 17.2772 5.04207 15.8521C3.2777 14.4258 2.12192 12.8182 1.65859 12.11C1.63794 12.0785 1.62283 12.0553 1.6101 12.0352C1.59962 12.0186 1.593 12.0075 1.58867 11.9998C1.593 11.9921 1.59962 11.9811 1.6101 11.9645C1.62283 11.9443 1.63794 11.9212 1.65859 11.8896Z" fill="black"/>
</svg>
