<svg width="24" height="24" viewBox="0 0 24 24" fill="none" xmlns="http://www.w3.org/2000/svg">
<path fill-rule="evenodd" clip-rule="evenodd" d="M16.0007 11.9998C16.0007 14.209 14.2098 15.9998 12.0007 15.9998C9.79156 15.9998 8.0007 14.209 8.0007 11.9998C8.0007 9.79068 9.79156 7.99982 12.0007 7.99982C14.2098 7.99982 16.0007 9.79068 16.0007 11.9998ZM15.5007 11.9998C15.5007 13.9328 13.9337 15.4998 12.0007 15.4998C10.0677 15.4998 8.5007 13.9328 8.5007 11.9998C8.5007 10.0668 10.0677 8.49982 12.0007 8.49982C13.9337 8.49982 15.5007 10.0668 15.5007 11.9998Z" fill="black"/>
<path fill-rule="evenodd" clip-rule="evenodd" d="M12.0007 4.74982C8.92312 4.74982 6.41867 6.07041 4.57059 7.56432C2.72318 9.05767 1.51783 10.7349 1.03098 11.479L1.01905 11.4972C0.949811 11.6028 0.886985 11.6986 0.85654 11.8276C0.831674 11.9329 0.831674 12.0667 0.85654 12.1721C0.886985 12.3011 0.949812 12.3969 1.01905 12.5024L1.03098 12.5206C1.51783 13.2648 2.72318 14.942 4.57058 16.4353C6.41867 17.9292 8.92312 19.2498 12.0007 19.2498C15.0616 19.2498 17.5556 17.9435 19.4007 16.4596C21.2451 14.9762 22.4547 13.3051 22.9543 12.5452L22.9673 12.5255C23.041 12.4137 23.1078 12.3123 23.1379 12.1775C23.1626 12.0668 23.1596 11.9287 23.1302 11.8192C23.0943 11.6857 23.0228 11.5869 22.9439 11.4777L22.9298 11.4583C22.3893 10.7087 21.0827 9.03745 19.2047 7.5514C17.3281 6.06646 14.8596 4.74982 12.0007 4.74982ZM1.44939 11.7527C1.92056 11.0326 3.09286 9.40176 4.88491 7.95316C6.67627 6.50511 9.07307 5.24982 12.0007 5.24982C14.7038 5.24982 17.065 6.49589 18.8944 7.94349C20.7224 9.38999 21.998 11.0211 22.5243 11.7508C22.6238 11.8888 22.6378 11.9137 22.6473 11.9491C22.6558 11.9806 22.657 12.0367 22.6499 12.0685C22.6419 12.1044 22.6292 12.1296 22.5365 12.2705C22.0527 13.0064 20.8763 14.6312 19.0874 16.0699C17.2992 17.5081 14.9125 18.7498 12.0007 18.7498C9.07307 18.7498 6.67627 17.4945 4.88491 16.0465C3.09286 14.5979 1.92056 12.9671 1.44939 12.2469C1.36305 12.1149 1.35132 12.0917 1.34317 12.0572C1.33613 12.0274 1.33613 11.9722 1.34317 11.9424C1.35132 11.9079 1.36305 11.8847 1.44939 11.7527Z" fill="black"/>
</svg>
