<svg width="24" height="24" viewBox="0 0 24 24" fill="none" xmlns="http://www.w3.org/2000/svg">
<path fill-rule="evenodd" clip-rule="evenodd" d="M16.0007 11.9998C16.0007 14.209 14.2098 15.9998 12.0007 15.9998C9.79156 15.9998 8.0007 14.209 8.0007 11.9998C8.0007 9.79068 9.79156 7.99982 12.0007 7.99982C14.2098 7.99982 16.0007 9.79068 16.0007 11.9998ZM14.0007 11.9998C14.0007 13.1044 13.1053 13.9998 12.0007 13.9998C10.8961 13.9998 10.0007 13.1044 10.0007 11.9998C10.0007 10.8952 10.8961 9.99982 12.0007 9.99982C13.1053 9.99982 14.0007 10.8952 14.0007 11.9998Z" fill="black"/>
<path fill-rule="evenodd" clip-rule="evenodd" d="M12.0007 3.99982C8.69821 3.99982 6.03227 5.41837 4.0991 6.98105C2.16866 8.54152 0.913732 10.2883 0.403372 11.0684L0.38779 11.0919C0.323421 11.1885 0.189201 11.39 0.12659 11.6553C0.0749908 11.874 0.0749908 12.1257 0.12659 12.3443C0.189201 12.6096 0.323419 12.8111 0.387788 12.9077L0.403371 12.9313C0.913732 13.7113 2.16866 15.4581 4.0991 17.0186C6.03227 18.5813 8.69821 19.9998 12.0007 19.9998C15.2853 19.9998 17.9403 18.5965 19.8708 17.044C21.7984 15.4938 23.0577 13.7531 23.581 12.9572L23.5977 12.9322C23.6656 12.8309 23.8079 12.6186 23.8699 12.3409C23.921 12.1119 23.9154 11.8508 23.8544 11.6243C23.7804 11.3494 23.6285 11.1427 23.556 11.0441L23.5382 11.0196C22.9761 10.2402 21.6231 8.50864 19.6701 6.96326C17.7228 5.42233 15.0932 3.99982 12.0007 3.99982ZM5.35639 15.4632C3.77221 14.1826 2.69178 12.7476 2.18585 11.9998C2.69178 11.252 3.77221 9.81701 5.35639 8.53643C7.06268 7.15715 9.29798 5.99982 12.0007 5.99982C14.4702 5.99982 16.6704 7.14002 18.429 8.53163C20.0572 9.81996 21.2334 11.2666 21.7971 12.027C21.2803 12.7869 20.1972 14.2149 18.6174 15.4855C16.9145 16.855 14.6888 17.9998 12.0007 17.9998C9.29798 17.9998 7.06268 16.8425 5.35639 15.4632Z" fill="black"/>
</svg>
