<svg width="24" height="24" viewBox="0 0 24 24" fill="none" xmlns="http://www.w3.org/2000/svg">
<path fill-rule="evenodd" clip-rule="evenodd" d="M15.9996 11.9998C15.9996 14.209 14.2087 15.9998 11.9996 15.9998C9.79044 15.9998 7.99958 14.209 7.99958 11.9998C7.99958 9.79068 9.79044 7.99982 11.9996 7.99982C14.2087 7.99982 15.9996 9.79068 15.9996 11.9998ZM13.4996 11.9998C13.4996 12.8282 12.828 13.4998 11.9996 13.4998C11.1712 13.4998 10.4996 12.8282 10.4996 11.9998C10.4996 11.1714 11.1712 10.4998 11.9996 10.4998C12.828 10.4998 13.4996 11.1714 13.4996 11.9998Z" fill="black"/>
<path fill-rule="evenodd" clip-rule="evenodd" d="M11.9995 3.74982C8.67649 3.74982 6.00591 5.21291 4.0868 6.80248C2.1704 8.38979 0.928587 10.1624 0.426007 10.9495L0.411909 10.9712C0.350676 11.0648 0.19755 11.2991 0.126682 11.6054C0.0684496 11.8572 0.0684496 12.1425 0.126682 12.3942C0.197551 12.7006 0.350677 12.9348 0.41191 13.0284L0.426007 13.0502C0.928586 13.8372 2.1704 15.6098 4.0868 17.1972C6.00591 18.7867 8.67649 20.2498 11.9995 20.2498C15.3049 20.2498 17.9648 18.8022 19.8815 17.2226C21.7953 15.6454 23.0415 13.8788 23.5566 13.076L23.5715 13.0531C23.6359 12.9552 23.7982 12.7086 23.8684 12.3877C23.926 12.1241 23.9197 11.8278 23.8508 11.5669C23.7668 11.2491 23.5933 11.0087 23.5246 10.9135L23.5086 10.8912C22.9561 10.1064 21.6189 8.35203 19.683 6.78262C17.7552 5.2198 15.1202 3.74982 11.9995 3.74982ZM5.68151 15.2718C4.2484 14.0848 3.2437 12.7617 2.72744 11.9998C3.2437 11.2379 4.2484 9.91482 5.68151 8.72781C7.32071 7.37009 9.44537 6.24982 11.9995 6.24982C14.3221 6.24982 16.4127 7.34977 18.1087 8.72464C19.5844 9.92094 20.6755 11.257 21.2493 12.0326C20.7232 12.8045 19.7177 14.118 18.2915 15.2934C16.6557 16.6415 14.5402 17.7498 11.9995 17.7498C9.44537 17.7498 7.32071 16.6295 5.68151 15.2718Z" fill="black"/>
</svg>
