<svg width="24" height="24" viewBox="0 0 24 24" fill="none" xmlns="http://www.w3.org/2000/svg">
<path fill-rule="evenodd" clip-rule="evenodd" d="M4.56961 7.5645C6.4177 6.0706 8.92215 4.75 11.9997 4.75C14.8586 4.75 17.3271 6.06665 19.2037 7.55158C21.0817 9.03763 22.3883 10.7089 22.9289 11.4585L22.9429 11.4779C23.0218 11.5871 23.0933 11.6859 23.1292 11.8193C23.1586 11.9288 23.1616 12.067 23.1369 12.1777C23.1068 12.3125 23.04 12.4138 22.9663 12.5256L22.9533 12.5454C22.4538 13.3053 21.2442 14.9764 19.3998 16.4597C17.5546 17.9436 15.0606 19.25 11.9997 19.25C8.92215 19.25 6.41769 17.9294 4.56961 16.4355C2.7222 14.9421 1.51685 13.2649 1.03 12.5208L1.01808 12.5026C0.948835 12.3971 0.886008 12.3013 0.855564 12.1723C0.830697 12.0669 0.830697 11.9331 0.855564 11.8277C0.886008 11.6987 0.948834 11.6029 1.01807 11.4974L1.03 11.4792C1.51685 10.7351 2.7222 9.05785 4.56961 7.5645ZM11.9997 16C14.2089 16 15.9997 14.2091 15.9997 12C15.9997 9.79086 14.2089 8 11.9997 8C9.79058 8 7.99972 9.79086 7.99972 12C7.99972 14.2091 9.79058 16 11.9997 16Z" fill="black"/>
</svg>
