<svg width="24" height="24" viewBox="0 0 24 24" fill="none" xmlns="http://www.w3.org/2000/svg">
<path fill-rule="evenodd" clip-rule="evenodd" d="M21.4422 7.44603C22.6138 6.27445 22.6138 4.37496 21.4422 3.20339C20.2706 2.03181 18.3711 2.03181 17.1996 3.20339L12.2498 8.15314L11.543 7.44633C11.3477 7.25106 11.0311 7.25106 10.8359 7.44633C10.6406 7.64159 10.6406 7.95817 10.8359 8.15343L11.5427 8.86021L4.89109 15.5121C4.49509 15.9081 4.1999 16.3934 4.03033 16.9271L3.18993 19.5723C2.82155 20.7318 3.91419 21.8245 5.07371 21.4561L7.71882 20.6157C8.25263 20.4461 8.73794 20.1509 9.13398 19.7548L15.7855 13.103L16.4927 13.8103C16.688 14.0055 17.0046 14.0055 17.1998 13.8103C17.3951 13.615 17.3951 13.2984 17.1998 13.1032L16.4924 12.3958L21.4422 7.44603ZM15.7853 11.6887L12.9569 8.86024L17.9067 3.91049C18.6877 3.12945 19.954 3.12944 20.7351 3.91049C21.5161 4.69154 21.5161 5.95787 20.7351 6.73892L15.7853 11.6887ZM15.0784 12.3959L8.42686 19.0477C8.14397 19.3306 7.79732 19.5415 7.41603 19.6627L4.77091 20.503C4.38441 20.6258 4.02019 20.2616 4.14299 19.8751L4.98338 17.2299C5.10451 16.8487 5.31536 16.502 5.59822 16.2192L12.2498 9.56732L15.0784 12.3959Z" fill="black"/>
</svg>
