<svg width="24" height="24" viewBox="0 0 24 24" fill="none" xmlns="http://www.w3.org/2000/svg">
<path fill-rule="evenodd" clip-rule="evenodd" d="M21.265 7.26925C22.339 6.19531 22.339 4.4541 21.265 3.38016C20.1911 2.30622 18.4499 2.30622 17.3759 3.38016L12.2494 8.50669L11.3658 7.6231C11.2682 7.52547 11.1099 7.52547 11.0123 7.6231C10.9146 7.72073 10.9146 7.87902 11.0123 7.97666L11.8958 8.86021L5.06749 15.6889C4.69977 16.0566 4.42567 16.5072 4.2682 17.0028L3.42781 19.648C3.12082 20.6143 4.03136 21.5248 4.99762 21.2178L7.64274 20.3775C8.13841 20.22 8.58906 19.9458 8.95681 19.5781L15.7851 12.7495L16.6691 13.6335C16.7668 13.7311 16.9251 13.7311 17.0227 13.6335C17.1203 13.5359 17.1203 13.3776 17.0227 13.28L16.1385 12.3958L21.265 7.26925ZM15.7849 12.0422L12.603 8.86024L17.7295 3.73372C18.6082 2.85504 20.0328 2.85504 20.9115 3.73372C21.7902 4.6124 21.7902 6.03702 20.9115 6.9157L15.7849 12.0422ZM15.4315 12.3959L8.60325 19.2245C8.29207 19.5357 7.91076 19.7677 7.49134 19.9009L4.84622 20.7413C4.26647 20.9255 3.72014 20.3792 3.90434 19.7994L4.74473 17.1542C4.87797 16.7348 5.1099 16.3536 5.42105 16.0424L12.2494 9.21376L15.4315 12.3959Z" fill="black"/>
</svg>
