<svg width="24" height="24" viewBox="0 0 24 24" fill="none" xmlns="http://www.w3.org/2000/svg">
<path fill-rule="evenodd" clip-rule="evenodd" d="M21.7946 7.79982C23.1614 6.43299 23.1614 4.21691 21.7946 2.85008C20.4277 1.48324 18.2117 1.48324 16.8448 2.85008L12.2486 7.44628L11.8954 7.09302C11.5048 6.70249 10.8717 6.70249 10.4812 7.09302C10.0906 7.48354 10.0906 8.1167 10.4812 8.50723L10.8344 8.86046L4.53635 15.1588C4.08378 15.6114 3.74642 16.166 3.55262 16.776L2.71223 19.4212C2.22105 20.9672 3.67791 22.424 5.22392 21.9329L7.86904 21.0925C8.47911 20.8987 9.03375 20.5613 9.48636 20.1086L15.7843 13.8104L16.138 14.1641C16.5285 14.5546 17.1617 14.5546 17.5522 14.1641C17.9427 13.7736 17.9427 13.1404 17.5522 12.7499L17.1984 12.396L21.7946 7.79982ZM15.7842 10.9818L13.6628 8.86049L18.259 4.26429C18.8448 3.6785 19.7946 3.6785 20.3804 4.26429C20.9661 4.85008 20.9661 5.79982 20.3804 6.38561L15.7842 10.9818ZM14.3701 12.3962L8.07212 18.6944C7.84581 18.9208 7.56849 19.0895 7.26346 19.1864L4.61834 20.0267L5.45873 17.3816C5.55563 17.0766 5.72431 16.7993 5.9506 16.573L12.2486 10.2747L14.3701 12.3962Z" fill="black"/>
</svg>
