<svg width="24" height="24" viewBox="0 0 24 24" fill="none" xmlns="http://www.w3.org/2000/svg">
<path fill-rule="evenodd" clip-rule="evenodd" d="M21.7946 2.85008C23.1614 4.21691 23.1614 6.43299 21.7946 7.79982L17.1984 12.396L17.5522 12.7499C17.9427 13.1404 17.9427 13.7736 17.5522 14.1641C17.1617 14.5546 16.5285 14.5546 16.138 14.1641L15.7843 13.8104L9.48636 20.1086C9.03375 20.5613 8.47911 20.8987 7.86904 21.0925L5.22392 21.9329C3.67791 22.424 2.22105 20.9672 2.71223 19.4212L3.55262 16.776C3.74642 16.166 4.08378 15.6114 4.53635 15.1588L10.8344 8.86046L10.4812 8.50723C10.0906 8.1167 10.0906 7.48354 10.4812 7.09302C10.8717 6.70249 11.5048 6.70249 11.8954 7.09302L12.2486 7.44628L16.8448 2.85008C18.2117 1.48324 20.4277 1.48324 21.7946 2.85008ZM8.07212 18.6944L14.3701 12.3962L12.2486 10.2747L5.9506 16.573C5.72431 16.7993 5.55563 17.0766 5.45873 17.3816L4.61834 20.0267L7.26346 19.1864C7.56849 19.0895 7.84581 18.9208 8.07212 18.6944Z" fill="black"/>
</svg>
