<svg width="24" height="24" viewBox="0 0 24 24" fill="none" xmlns="http://www.w3.org/2000/svg">
<path fill-rule="evenodd" clip-rule="evenodd" d="M21.6174 7.6228C22.8866 6.3536 22.8866 4.29581 21.6174 3.02661C20.3482 1.75741 18.2904 1.75741 17.0212 3.02661L12.2482 7.79958L11.7182 7.26955C11.4253 6.97666 10.9504 6.97666 10.6575 7.26955C10.3647 7.56244 10.3647 8.03732 10.6575 8.33021L11.1876 8.86021L4.71275 15.3353C4.28846 15.7596 3.97219 16.2796 3.7905 16.8514L2.9501 19.4966C2.52032 20.8494 3.79507 22.1241 5.14784 21.6944L7.79296 20.854C8.36489 20.6723 8.88487 20.356 9.3092 19.9316L15.7839 13.4566L16.3144 13.9871C16.6073 14.28 17.0822 14.28 17.3751 13.9871C17.668 13.6942 17.668 13.2193 17.3751 12.9264L16.8444 12.3958L21.6174 7.6228ZM15.7838 11.3351L13.3089 8.86024L18.0819 4.08727C18.7653 3.40385 19.8733 3.40385 20.5567 4.08727C21.2402 4.77069 21.2402 5.87872 20.5567 6.56214L15.7838 11.3351ZM14.7233 12.3959L8.24851 18.871C7.99391 19.1256 7.68193 19.3154 7.33877 19.4244L4.69365 20.2648C4.5004 20.3262 4.31829 20.1441 4.37969 19.9508L5.22008 17.3056C5.3291 16.9625 5.51886 16.6505 5.77343 16.3959L12.2482 9.92088L14.7233 12.3959Z" fill="black"/>
</svg>
