<svg width="24" height="24" viewBox="0 0 24 24" fill="none" xmlns="http://www.w3.org/2000/svg">
<path fill-rule="evenodd" clip-rule="evenodd" d="M21.9717 2.6733C23.4362 4.13777 23.4362 6.51213 21.9717 7.9766L17.5523 12.396L17.7294 12.5731C18.2175 13.0612 18.2175 13.8527 17.7294 14.3409C17.2412 14.829 16.4498 14.829 15.9616 14.3409L15.7847 14.1639L9.66353 20.2854C9.18263 20.7663 8.59332 21.1248 7.94513 21.3308L5.30001 22.1711C3.56074 22.7237 1.92177 21.0847 2.47435 19.3455L3.31474 16.7003C3.52066 16.0521 3.8791 15.4629 4.35996 14.982L10.4812 8.86049L10.3048 8.68401C9.81661 8.19585 9.81661 7.4044 10.3048 6.91624C10.7929 6.42808 11.5844 6.42808 12.0725 6.91624L12.249 7.09272L16.6684 2.6733C18.1329 1.20883 20.5073 1.20883 21.9717 2.6733ZM7.89573 18.5177L14.0169 12.3962L12.249 10.6282L6.12777 16.7497C5.92977 16.9477 5.78217 17.1904 5.69738 17.4573L5.00319 19.6423L7.18815 18.9481C7.45505 18.8633 7.69771 18.7157 7.89573 18.5177Z" fill="black"/>
</svg>
