<svg width="24" height="24" viewBox="0 0 24 24" fill="none" xmlns="http://www.w3.org/2000/svg">
<path fill-rule="evenodd" clip-rule="evenodd" d="M21.4422 3.20339C22.6138 4.37496 22.6138 6.27445 21.4422 7.44603L16.4924 12.3958L17.1998 13.1032C17.3951 13.2984 17.3951 13.615 17.1998 13.8103C17.0046 14.0055 16.688 14.0055 16.4927 13.8103L15.7855 13.103L9.13398 19.7548C8.73794 20.1509 8.25263 20.4461 7.71882 20.6157L5.07371 21.4561C3.91419 21.8245 2.82155 20.7318 3.18993 19.5723L4.03033 16.9271C4.1999 16.3934 4.49509 15.9081 4.89109 15.5121L11.5427 8.86021L10.8359 8.15343C10.6406 7.95817 10.6406 7.64159 10.8359 7.44633C11.0311 7.25106 11.3477 7.25106 11.543 7.44633L12.2498 8.15314L17.1996 3.20339C18.3711 2.03181 20.2706 2.03181 21.4422 3.20339ZM8.42686 19.0477L15.0784 12.3959L12.2498 9.56732L5.59822 16.2192C5.31536 16.502 5.10451 16.8487 4.98338 17.2299L4.14299 19.8751C4.02019 20.2616 4.38441 20.6258 4.77091 20.503L7.41603 19.6627C7.79732 19.5415 8.14397 19.3306 8.42686 19.0477Z" fill="black"/>
</svg>
