<svg width="24" height="24" viewBox="0 0 24 24" fill="none" xmlns="http://www.w3.org/2000/svg">
<path fill-rule="evenodd" clip-rule="evenodd" d="M21.2096 2.68705C22.2835 3.76099 22.2835 5.50219 21.2096 6.57613L18.204 9.5817L18.4571 9.83474C19.3357 10.7134 19.3357 12.138 18.4571 13.0167C17.5784 13.8954 16.1538 13.8954 15.2751 13.0167L15.0218 12.7634L7.26975 20.5157C6.72139 21.0641 6.01652 21.429 5.25219 21.5601L4.17162 21.7455C2.9812 21.9497 1.94665 20.9152 2.1509 19.7248L2.3363 18.6442C2.46743 17.8799 2.83228 17.175 3.3806 16.6267L11.1327 8.87435L11.0324 8.77408C10.1538 7.8954 10.1538 6.47078 11.0324 5.5921C11.9111 4.71342 13.3357 4.71342 14.2144 5.5921L14.3149 5.69259L17.3205 2.68705C18.3944 1.61311 20.1356 1.61311 21.2096 2.68705ZM20.1489 5.51548C20.6371 5.02732 20.6371 4.23586 20.1489 3.74771C19.6608 3.25955 18.8693 3.25955 18.3811 3.74771L15.3967 6.73221C15.3103 6.81861 15.2167 6.91229 15.129 6.98673C15.0297 7.07099 14.8899 7.17366 14.7012 7.23498C14.4501 7.31655 14.1797 7.31655 13.9287 7.23498C13.7399 7.17366 13.6001 7.07099 13.5009 6.98673C13.4132 6.91229 13.3196 6.81861 13.2332 6.73221L13.1538 6.65276C12.8609 6.35987 12.386 6.35987 12.0931 6.65276C11.8002 6.94565 11.8002 7.42053 12.0931 7.71342L16.3357 11.9561C16.6286 12.249 17.1035 12.249 17.3964 11.9561C17.6893 11.6632 17.6893 11.1883 17.3964 10.8954L17.1644 10.6634C17.078 10.5771 16.9843 10.4834 16.9099 10.3957C16.8256 10.2965 16.723 10.1567 16.6616 9.96797C16.5801 9.71691 16.5801 9.44648 16.6616 9.19542C16.723 9.00668 16.8256 8.86691 16.9099 8.76766C16.9843 8.67997 17.078 8.58634 17.1644 8.49998L20.1489 5.51548ZM6.20907 19.4551L13.9403 11.7236L12.1726 9.95582L4.44128 17.6873C4.11229 18.0163 3.89338 18.4392 3.8147 18.8978L3.6293 19.9784C3.60012 20.1485 3.74791 20.2963 3.91797 20.2671L4.99853 20.0817C5.45713 20.003 5.88006 19.7841 6.20907 19.4551Z" fill="black"/>
</svg>
