<svg width="24" height="24" viewBox="0 0 24 24" fill="none" xmlns="http://www.w3.org/2000/svg">
<path fill-rule="evenodd" clip-rule="evenodd" d="M21.6174 3.02661C22.8866 4.29581 22.8866 6.3536 21.6174 7.6228L16.8444 12.3958L17.3751 12.9264C17.668 13.2193 17.668 13.6942 17.3751 13.9871C17.0822 14.28 16.6073 14.28 16.3144 13.9871L15.7839 13.4566L9.3092 19.9316C8.88487 20.356 8.36489 20.6723 7.79296 20.854L5.14784 21.6944C3.79507 22.1241 2.52032 20.8494 2.9501 19.4966L3.7905 16.8514C3.97219 16.2796 4.28846 15.7596 4.71275 15.3353L11.1876 8.86021L10.6575 8.33021C10.3647 8.03732 10.3647 7.56244 10.6575 7.26955C10.9504 6.97666 11.4253 6.97666 11.7182 7.26955L12.2482 7.79958L17.0212 3.02661C18.2904 1.75741 20.3482 1.75741 21.6174 3.02661ZM8.24851 18.871L14.7233 12.3959L12.2482 9.92088L5.77343 16.3959C5.51886 16.6505 5.3291 16.9625 5.22008 17.3056L4.37969 19.9508C4.31829 20.1441 4.5004 20.3262 4.69365 20.2648L7.33877 19.4244C7.68193 19.3154 7.99391 19.1256 8.24851 18.871Z" fill="black"/>
</svg>
