<svg width="24" height="24" viewBox="0 0 24 24" fill="none" xmlns="http://www.w3.org/2000/svg">
<path fill-rule="evenodd" clip-rule="evenodd" d="M20.8558 3.0406C21.7345 3.91928 21.7345 5.3439 20.8558 6.22258L17.8856 9.19279C17.7837 9.29471 17.718 9.36065 17.672 9.41483C17.6279 9.46678 17.6168 9.49125 17.6125 9.50444C17.5962 9.55465 17.5962 9.60874 17.6125 9.65895C17.6168 9.67214 17.6279 9.69661 17.672 9.74856C17.718 9.80274 17.7837 9.86868 17.8856 9.9706L18.1033 10.1883C18.7867 10.8717 18.7867 11.9798 18.1033 12.6632C17.4199 13.3466 16.3119 13.3466 15.6284 12.6632L15.0216 12.0563L6.91599 20.1622C6.44075 20.6374 5.82986 20.9536 5.16744 21.0673L4.08687 21.2527C3.23657 21.3986 2.49761 20.6596 2.6435 19.8093L2.8289 18.7287C2.94255 18.0663 3.25875 17.4555 3.73397 16.9802L11.8396 8.87434L11.3858 8.42053C10.7024 7.73711 10.7024 6.62907 11.3858 5.94565C12.0692 5.26224 13.1772 5.26224 13.8607 5.94565L13.9258 6.01081C14.0277 6.11273 14.0937 6.1784 14.1479 6.22439C14.1998 6.26849 14.2243 6.27964 14.2375 6.28393C14.2877 6.30024 14.3418 6.30024 14.392 6.28393C14.4052 6.27964 14.4296 6.26849 14.4816 6.22439C14.5358 6.1784 14.6017 6.11273 14.7036 6.01081L17.6738 3.0406C18.5525 2.16192 19.9771 2.16192 20.8558 3.0406ZM20.5023 5.86903C21.1857 5.18561 21.1857 4.07757 20.5023 3.39415C19.8189 2.71074 18.7108 2.71074 18.0274 3.39415L15.0504 6.37118C14.9572 6.46437 14.8768 6.54476 14.8052 6.60556C14.7296 6.66974 14.6475 6.72665 14.5465 6.75945C14.3959 6.8084 14.2336 6.8084 14.083 6.75945C13.982 6.72665 13.8999 6.66974 13.8243 6.60556C13.7527 6.54476 13.6723 6.46437 13.5791 6.37118L13.5071 6.29921C13.019 5.81105 12.2275 5.81105 11.7393 6.29921C11.2512 6.78736 11.2512 7.57882 11.7393 8.06698L15.982 12.3096C16.4701 12.7978 17.2616 12.7978 17.7498 12.3096C18.2379 11.8215 18.2379 11.03 17.7498 10.5418L17.5252 10.3173C17.4321 10.2242 17.3517 10.1438 17.2909 10.0721C17.2267 9.99655 17.1698 9.91443 17.137 9.81346C17.088 9.66283 17.088 9.50057 17.137 9.34993C17.1698 9.24896 17.2267 9.16684 17.2909 9.09125C17.3517 9.01962 17.4321 8.93924 17.5252 8.84606L20.5023 5.86903ZM6.56243 19.8086L14.6472 11.7236L12.1723 9.2487L4.08752 17.3338C3.68542 17.7359 3.41787 18.2528 3.3217 18.8133L3.1363 19.8939C3.04876 20.4041 3.49214 20.8474 4.00232 20.7599L5.08289 20.5745C5.6434 20.4783 6.16031 20.2108 6.56243 19.8086Z" fill="black"/>
</svg>
