<svg width="24" height="24" viewBox="0 0 24 24" fill="none" xmlns="http://www.w3.org/2000/svg">
<path fill-rule="evenodd" clip-rule="evenodd" d="M21.3864 2.51027C22.558 3.68184 22.558 5.58134 21.3864 6.75291L18.5577 9.5817L18.6339 9.65796C19.6102 10.6343 19.6102 12.2172 18.6339 13.1935C17.6576 14.1698 16.0747 14.1698 15.0984 13.1935L15.0219 13.117L7.44662 20.6925C6.86172 21.2774 6.10985 21.6666 5.29456 21.8065L4.214 21.9919C2.85351 22.2253 1.67117 21.043 1.9046 19.6825L2.09 18.6019C2.22988 17.7866 2.61905 17.0348 3.20392 16.4499L10.7809 8.87272C9.88012 7.89184 9.90508 6.366 10.8558 5.41532C11.8065 4.46457 13.3325 4.43968 14.3134 5.34067L17.1438 2.51027C18.3154 1.3387 20.2149 1.3387 21.3864 2.51027ZM19.9722 5.3387C20.3628 4.94817 20.3628 4.31501 19.9722 3.92448C19.5817 3.53396 18.9485 3.53396 18.558 3.92448L15.5715 6.91106C15.4873 6.99532 15.3867 7.09594 15.2909 7.17732C15.1798 7.27161 15.0112 7.39716 14.7786 7.47275C14.4773 7.57063 14.1528 7.57063 13.8515 7.47275C13.6189 7.39716 13.4503 7.27161 13.3392 7.17732C13.2433 7.09594 13.1428 6.99531 13.0586 6.91105L12.9771 6.82954C12.7818 6.63428 12.4652 6.63428 12.27 6.82954C12.0747 7.0248 12.0747 7.34138 12.27 7.53664L16.5126 11.7793C16.7079 11.9745 17.0245 11.9745 17.2197 11.7793C17.415 11.584 17.415 11.2674 17.2197 11.0722L16.9857 10.8381C16.9014 10.7539 16.8008 10.6534 16.7194 10.5575C16.6251 10.4465 16.4996 10.2779 16.424 10.0452C16.3261 9.74396 16.3261 9.41944 16.424 9.11817C16.4996 8.88554 16.6251 8.71694 16.7194 8.60586C16.8008 8.51001 16.9014 8.40946 16.9857 8.32526L19.9722 5.3387ZM6.03239 19.2783L13.5869 11.7236L12.1727 10.3094L4.61816 17.8641C4.32572 18.1565 4.13114 18.5325 4.0612 18.9401L3.87579 20.0207L4.95636 19.8353C5.364 19.7654 5.73993 19.5708 6.03239 19.2783Z" fill="black"/>
</svg>
