<svg width="24" height="24" viewBox="0 0 24 24" fill="none" xmlns="http://www.w3.org/2000/svg">
<path fill-rule="evenodd" clip-rule="evenodd" d="M21.3864 6.75291C22.558 5.58134 22.558 3.68184 21.3864 2.51027C20.2149 1.3387 18.3154 1.3387 17.1438 2.51027L14.3134 5.34067C13.3325 4.43968 11.8065 4.46457 10.8558 5.41532C9.90508 6.366 9.88012 7.89184 10.7809 8.87272L3.20392 16.4499C2.61905 17.0348 2.22988 17.7866 2.09 18.6019L1.9046 19.6825C1.67117 21.043 2.85351 22.2253 4.214 21.9919L5.29456 21.8065C6.10985 21.6666 6.86172 21.2774 7.44662 20.6925L15.0219 13.117L15.0984 13.1935C16.0747 14.1698 17.6576 14.1698 18.6339 13.1935C19.6102 12.2172 19.6102 10.6343 18.6339 9.65796L18.5577 9.5817L21.3864 6.75291ZM13.5869 11.7236L6.03239 19.2783C5.73993 19.5708 5.364 19.7654 4.95636 19.8353L3.87579 20.0207L4.0612 18.9401C4.13114 18.5325 4.32572 18.1565 4.61816 17.8641L12.1727 10.3094L13.5869 11.7236Z" fill="black"/>
</svg>
