<svg width="24" height="24" viewBox="0 0 24 24" fill="none" xmlns="http://www.w3.org/2000/svg">
<path fill-rule="evenodd" clip-rule="evenodd" d="M21.265 3.38016C22.339 4.4541 22.339 6.19531 21.265 7.26925L16.1385 12.3958L17.0227 13.28C17.1203 13.3776 17.1203 13.5359 17.0227 13.6335C16.9251 13.7311 16.7668 13.7311 16.6691 13.6335L15.7851 12.7495L8.95681 19.5781C8.58906 19.9458 8.13841 20.22 7.64274 20.3775L4.99762 21.2178C4.03136 21.5248 3.12082 20.6143 3.42781 19.648L4.2682 17.0028C4.42567 16.5072 4.69977 16.0566 5.06749 15.6889L11.8958 8.86021L11.0123 7.97666C10.9146 7.87902 10.9146 7.72073 11.0123 7.6231C11.1099 7.52547 11.2682 7.52547 11.3658 7.6231L12.2494 8.50669L17.3759 3.38016C18.4499 2.30622 20.1911 2.30622 21.265 3.38016ZM8.60325 19.2245L15.4315 12.3959L12.2494 9.21376L5.42105 16.0424C5.1099 16.3536 4.87797 16.7348 4.74473 17.1542L3.90434 19.7994C3.72014 20.3792 4.26647 20.9255 4.84622 20.7413L7.49134 19.9009C7.91076 19.7677 8.29207 19.5357 8.60325 19.2245Z" fill="black"/>
</svg>
