<svg width="24" height="24" viewBox="0 0 24 24" fill="none" xmlns="http://www.w3.org/2000/svg">
<path d="M3.79937 2.90571C3.50648 2.61281 3.03161 2.61281 2.73871 2.90571C2.44582 3.1986 2.44582 3.67347 2.73871 3.96637L20.2946 21.5222C20.5875 21.8151 21.0623 21.8151 21.3552 21.5222C21.6481 21.2293 21.6481 20.7545 21.3552 20.4616L3.79937 2.90571Z" fill="black"/>
<path d="M1.03098 11.4792C1.51776 10.7352 2.72282 9.05838 4.56976 7.56519L8.10277 11.0982C8.03599 11.388 8.0007 11.6899 8.0007 12C8.0007 14.2092 9.79156 16 12.0007 16C12.3108 16 12.6127 15.9647 12.9025 15.898L15.622 18.6174C14.5236 19.0094 13.3144 19.25 12.0007 19.25C8.92312 19.25 6.41867 17.9294 4.57058 16.4355C2.72318 14.9422 1.51783 13.265 1.03098 12.5208L1.01905 12.5026C0.949812 12.3971 0.886985 12.3013 0.85654 12.1723C0.831674 12.0669 0.831674 11.9331 0.85654 11.8278C0.886985 11.6988 0.949811 11.603 1.01905 11.4974L1.03098 11.4792Z" fill="black"/>
<path d="M16.0007 12C16.0007 12.4058 15.9403 12.7975 15.8279 13.1665L19.2449 16.5835C19.2973 16.5424 19.3493 16.5012 19.4007 16.4598C21.2451 14.9765 22.4547 13.3053 22.9543 12.5454L22.9673 12.5257C23.041 12.4139 23.1078 12.3125 23.1379 12.1777C23.1626 12.067 23.1596 11.9289 23.1302 11.8194C23.0943 11.6859 23.0228 11.5871 22.9439 11.4779L22.9298 11.4585C22.3893 10.709 21.0827 9.03766 19.2047 7.55161C17.3281 6.06668 14.8596 4.75003 12.0007 4.75003C10.5887 4.75003 9.29731 5.02802 8.13462 5.4732L10.8342 8.17279C11.2033 8.06045 11.5949 8.00003 12.0007 8.00003C14.2098 8.00003 16.0007 9.79089 16.0007 12Z" fill="black"/>
</svg>
