<svg width="24" height="24" viewBox="0 0 24 24" fill="none" xmlns="http://www.w3.org/2000/svg">
<path d="M3.44582 3.25926C3.34819 3.16163 3.1899 3.16163 3.09227 3.25926C2.99464 3.35689 2.99464 3.51518 3.09227 3.61281L20.6481 21.1687C20.7458 21.2663 20.904 21.2663 21.0017 21.1687C21.0993 21.071 21.0993 20.9127 21.0017 20.8151L3.44582 3.25926Z" fill="black"/>
<path d="M4.57059 7.56453C4.76318 7.40885 4.9629 7.25505 5.16965 7.10443L5.52768 7.46245C5.30547 7.62246 5.09118 7.78664 4.88491 7.95337C3.09286 9.40198 1.92056 11.0328 1.44939 11.753C1.36305 11.8849 1.35132 11.9081 1.34317 11.9426C1.33613 11.9725 1.33613 12.0276 1.34317 12.0575C1.35132 12.092 1.36305 12.1151 1.44939 12.2471C1.92056 12.9673 3.09286 14.5981 4.88491 16.0467C6.67627 17.4947 9.07307 18.75 12.0007 18.75C13.4709 18.75 14.8072 18.4335 16.0002 17.9349L16.381 18.3157C15.0886 18.8824 13.6244 19.25 12.0007 19.25C8.92312 19.25 6.41867 17.9294 4.57058 16.4355C2.72318 14.9422 1.51783 13.265 1.03098 12.5208L1.01905 12.5026C0.949812 12.3971 0.886985 12.3013 0.85654 12.1723C0.831674 12.0669 0.831674 11.9331 0.85654 11.8278C0.886985 11.6988 0.949811 11.603 1.01905 11.4974L1.03098 11.4792C1.51783 10.7351 2.72318 9.05788 4.57059 7.56453Z" fill="black"/>
<path d="M8.0007 12C8.0007 11.3958 8.13467 10.8229 8.37453 10.3093L8.75443 10.6892C8.59079 11.0941 8.5007 11.5365 8.5007 12C8.5007 13.933 10.0677 15.5 12.0007 15.5C12.4642 15.5 12.9067 15.4099 13.3115 15.2463L13.6914 15.6262C13.1779 15.8661 12.6049 16 12.0007 16C9.79156 16 8.0007 14.2092 8.0007 12Z" fill="black"/>
<path d="M10.0873 8.48651L10.4582 8.8574C10.9235 8.62856 11.4471 8.50003 12.0007 8.50003C13.9337 8.50003 15.5007 10.067 15.5007 12C15.5007 12.5536 15.3722 13.0772 15.1433 13.5426L15.5142 13.9135C15.8244 13.3451 16.0007 12.6931 16.0007 12C16.0007 9.79089 14.2098 8.00003 12.0007 8.00003C11.3076 8.00003 10.6556 8.17632 10.0873 8.48651Z" fill="black"/>
<path d="M19.0874 16.0701C18.8297 16.2774 18.5596 16.4805 18.2773 16.6765L18.6363 17.0355C18.9023 16.8484 19.1572 16.6557 19.4007 16.4598C21.2451 14.9765 22.4547 13.3053 22.9543 12.5454L22.9673 12.5257C23.041 12.4139 23.1078 12.3125 23.1379 12.1777C23.1626 12.067 23.1596 11.9289 23.1302 11.8194C23.0943 11.6859 23.0228 11.5871 22.9439 11.4779L22.9298 11.4585C22.3893 10.709 21.0827 9.03766 19.2047 7.55161C17.3281 6.06668 14.8596 4.75003 12.0007 4.75003C10.2794 4.75003 8.73747 5.16312 7.38934 5.78857L7.76693 6.16617C9.01845 5.60974 10.4335 5.25003 12.0007 5.25003C14.7038 5.25003 17.065 6.4961 18.8944 7.94371C20.7224 9.3902 21.998 11.0213 22.5243 11.751C22.6238 11.889 22.6378 11.9139 22.6473 11.9493C22.6558 11.9808 22.657 12.037 22.6499 12.0687C22.6419 12.1046 22.6292 12.1298 22.5365 12.2707C22.0527 13.0066 20.8763 14.6314 19.0874 16.0701Z" fill="black"/>
</svg>
