<svg width="24" height="24" viewBox="0 0 24 24" fill="none" xmlns="http://www.w3.org/2000/svg">
<path d="M3.6226 3.08248C3.42733 2.88722 3.11075 2.88722 2.91549 3.08248C2.72023 3.27774 2.72023 3.59433 2.91549 3.78959L20.4713 21.3454C20.6666 21.5407 20.9832 21.5407 21.1784 21.3454C21.3737 21.1502 21.3737 20.8336 21.1784 20.6383L3.6226 3.08248Z" fill="black"/>
<path d="M0.821778 11.3423C1.31458 10.5891 2.52904 8.89878 4.39201 7.38744L5.10321 8.09864L5.04207 8.1478C3.2777 9.57403 2.12192 11.1816 1.65859 11.8898C1.63794 11.9214 1.62283 11.9445 1.6101 11.9647C1.59962 11.9813 1.593 11.9924 1.58867 12C1.593 12.0077 1.59962 12.0188 1.6101 12.0354C1.62283 12.0555 1.63794 12.0787 1.65859 12.1102C2.12192 12.8184 3.2777 14.426 5.04207 15.8523C6.80508 17.2774 9.14804 18.5 12.0007 18.5C13.0855 18.5 14.0967 18.3232 15.0302 18.0257L15.8171 18.8126C14.6656 19.2369 13.3909 19.5 12.0007 19.5C8.84815 19.5 6.28987 18.1468 4.41342 16.63C2.53834 15.1142 1.31646 13.4138 0.821777 12.6577L0.806561 12.6346C0.740311 12.534 0.654209 12.4034 0.613224 12.2297C0.579446 12.0866 0.579446 11.9135 0.613224 11.7704C0.654209 11.5967 0.740312 11.466 0.806562 11.3655L0.821778 11.3423Z" fill="black"/>
<path d="M8.0007 12C8.0007 11.6899 8.03599 11.388 8.10277 11.0982L9.0007 11.9961L9.0007 12C9.0007 13.6569 10.3438 15 12.0007 15L12.0046 15L12.9025 15.898C12.6127 15.9647 12.3108 16 12.0007 16C9.79156 16 8.0007 14.2092 8.0007 12Z" fill="black"/>
<path d="M10.8342 8.17279L11.6785 9.01712C11.7844 9.00583 11.8919 9.00003 12.0007 9.00003C13.6575 9.00003 15.0007 10.3432 15.0007 12C15.0007 12.1089 14.9949 12.2163 14.9836 12.3222L15.8279 13.1665C15.9403 12.7975 16.0007 12.4058 16.0007 12C16.0007 9.79089 14.2098 8.00003 12.0007 8.00003C11.5949 8.00003 11.2033 8.06045 10.8342 8.17279Z" fill="black"/>
<path d="M18.9307 15.8753C18.8583 15.9336 18.7848 15.9915 18.7104 16.049L19.4229 16.7615C19.4681 16.726 19.513 16.6903 19.5574 16.6546C21.4295 15.149 22.6557 13.4547 23.1632 12.6827L23.1797 12.6578C23.25 12.5517 23.3413 12.4138 23.3819 12.2322C23.4154 12.0821 23.4115 11.9029 23.3716 11.7544C23.3232 11.5747 23.2255 11.4403 23.1504 11.3368L23.1326 11.3123C22.5849 10.5528 21.2628 8.86139 19.3598 7.35557C17.4597 5.85197 14.9375 4.50003 12.0007 4.50003C10.512 4.50003 9.15587 4.80178 7.94144 5.28002L8.71954 6.05812C9.72225 5.71031 10.8176 5.50003 12.0007 5.50003C14.6259 5.50003 16.9335 6.71081 18.7393 8.13975C20.5423 9.56647 21.8024 11.1774 22.3215 11.8972C22.3452 11.93 22.3627 11.9543 22.3775 11.9756C22.3901 11.9937 22.3981 12.0059 22.4034 12.0144C22.3986 12.0229 22.3913 12.0351 22.3797 12.0534C22.366 12.075 22.3497 12.0998 22.3276 12.1334C21.8517 12.8572 20.6919 14.4589 18.9307 15.8753Z" fill="black"/>
</svg>
