<svg width="24" height="24" viewBox="0 0 24 24" fill="none" xmlns="http://www.w3.org/2000/svg">
<path d="M3.79937 2.90571C3.50648 2.61281 3.03161 2.61281 2.73871 2.90571C2.44582 3.1986 2.44582 3.67347 2.73871 3.96637L20.2946 21.5222C20.5875 21.8151 21.0623 21.8151 21.3552 21.5222C21.6481 21.2293 21.6481 20.7545 21.3552 20.4616L3.79937 2.90571Z" fill="black"/>
<path d="M0.403372 11.0686C0.873274 10.3504 1.97437 8.81261 3.65277 7.35531L5.07097 8.77351C3.642 9.99045 2.66079 11.2981 2.18585 12C2.69178 12.7478 3.77221 14.1828 5.35639 15.4634C7.06268 16.8427 9.29798 18 12.0007 18C12.7233 18 13.4125 17.9173 14.0672 17.7697L15.6865 19.3891C14.5661 19.7683 13.3354 20 12.0007 20C8.69821 20 6.03227 18.5815 4.0991 17.0188C2.16866 15.4583 0.913732 13.7115 0.403371 12.9315L0.387788 12.9079C0.323419 12.8113 0.189201 12.6099 0.12659 12.3445C0.0749908 12.1259 0.0749908 11.8742 0.12659 11.6555C0.189201 11.3902 0.323421 11.1887 0.38779 11.0921L0.403372 11.0686Z" fill="black"/>
<path d="M8.0007 12C8.0007 11.9036 8.0041 11.808 8.01081 11.7133L12.2874 15.9899C12.1927 15.9966 12.0971 16 12.0007 16C9.79156 16 8.0007 14.2092 8.0007 12Z" fill="black"/>
<path d="M11.4116 8.0431L15.9576 12.5891C15.986 12.3969 16.0007 12.2002 16.0007 12C16.0007 9.79089 14.2098 8.00003 12.0007 8.00003C11.8006 8.00003 11.6039 8.01473 11.4116 8.0431Z" fill="black"/>
<path d="M21.7971 12.0272C21.2947 12.766 20.257 14.1363 18.7479 15.3794L20.1679 16.7994C21.9282 15.3144 23.0851 13.7117 23.581 12.9574L23.5977 12.9324C23.6656 12.8311 23.8079 12.6188 23.8699 12.3411C23.921 12.1121 23.9154 11.851 23.8544 11.6245C23.7804 11.3496 23.6285 11.1429 23.556 11.0443L23.5382 11.0198C22.9761 10.2405 21.6231 8.50885 19.6701 6.96347C17.7228 5.42255 15.0932 4.00003 12.0007 4.00003C10.5667 4.00003 9.2527 4.26749 8.06661 4.69808L9.66396 6.29543C10.3984 6.1073 11.1779 6.00003 12.0007 6.00003C14.4702 6.00003 16.6704 7.14023 18.429 8.53185C20.0572 9.82017 21.2334 11.2669 21.7971 12.0272Z" fill="black"/>
</svg>
