<svg width="24" height="24" viewBox="0 0 24 24" fill="none" xmlns="http://www.w3.org/2000/svg">
<path d="M3.44582 3.25926C3.34819 3.16163 3.1899 3.16163 3.09227 3.25926C2.99464 3.35689 2.99464 3.51518 3.09227 3.61281L20.6481 21.1687C20.7458 21.2663 20.904 21.2663 21.0017 21.1687C21.0993 21.071 21.0993 20.9127 21.0017 20.8151L3.44582 3.25926Z" fill="black"/>
<path d="M4.57059 7.56453C4.76318 7.40885 4.9629 7.25505 5.16965 7.10443L8.37453 10.3093C8.13467 10.8229 8.0007 11.3958 8.0007 12C8.0007 14.2092 9.79156 16 12.0007 16C12.6049 16 13.1779 15.8661 13.6914 15.6262L16.381 18.3157C15.0886 18.8824 13.6244 19.25 12.0007 19.25C8.92312 19.25 6.41867 17.9294 4.57058 16.4355C2.72318 14.9422 1.51783 13.265 1.03098 12.5208L1.01905 12.5026C0.949812 12.3971 0.886985 12.3013 0.85654 12.1723C0.831674 12.0669 0.831674 11.9331 0.85654 11.8278C0.886985 11.6988 0.949811 11.603 1.01905 11.4974L1.03098 11.4792C1.51783 10.7351 2.72318 9.05788 4.57059 7.56453Z" fill="black"/>
<path d="M16.0007 12C16.0007 12.6931 15.8244 13.3451 15.5142 13.9135L18.6363 17.0355C18.9023 16.8484 19.1572 16.6557 19.4007 16.4598C21.2451 14.9765 22.4547 13.3053 22.9543 12.5454L22.9673 12.5257C23.041 12.4139 23.1078 12.3125 23.1379 12.1777C23.1626 12.067 23.1596 11.9289 23.1302 11.8194C23.0943 11.6859 23.0228 11.5871 22.9439 11.4779L22.9298 11.4585C22.3893 10.709 21.0827 9.03766 19.2047 7.55161C17.3281 6.06668 14.8596 4.75003 12.0007 4.75003C10.2794 4.75003 8.73747 5.16312 7.38934 5.78857L10.0873 8.48651C10.6556 8.17632 11.3076 8.00003 12.0007 8.00003C14.2098 8.00003 16.0007 9.79089 16.0007 12Z" fill="black"/>
</svg>
