<svg width="24" height="24" viewBox="0 0 24 24" fill="none" xmlns="http://www.w3.org/2000/svg">
<path d="M3.79937 2.90571C3.50648 2.61281 3.03161 2.61281 2.73871 2.90571C2.44582 3.1986 2.44582 3.67347 2.73871 3.96637L20.2946 21.5222C20.5875 21.8151 21.0623 21.8151 21.3552 21.5222C21.6481 21.2293 21.6481 20.7545 21.3552 20.4616L3.79937 2.90571Z" fill="black"/>
<path d="M0.612575 11.2055C1.09406 10.4695 2.25109 8.85643 4.02078 7.36976L5.08584 8.43483C3.43441 9.7974 2.34166 11.3065 1.88529 12C2.35202 12.7094 3.48437 14.2716 5.19923 15.6578C6.93388 17.06 9.22301 18.25 12.0007 18.25C12.9051 18.25 13.7578 18.1239 14.5563 17.9053L15.7526 19.1016C14.6163 19.503 13.3633 19.75 12.0007 19.75C8.77318 19.75 6.16107 18.3641 4.25626 16.8244C2.3535 15.2863 1.1151 13.5627 0.612574 12.7946L0.596624 12.7704C0.53152 12.6722 0.421621 12.5063 0.369907 12.2871C0.327219 12.1062 0.327219 11.8938 0.369907 11.7129C0.421621 11.4938 0.531521 11.3279 0.596624 11.2296L0.612575 11.2055Z" fill="black"/>
<path d="M8.0007 12C8.0007 11.7944 8.01621 11.5924 8.04614 11.3951L9.75899 13.108C10.0021 13.5989 10.4018 13.9986 10.8928 14.2417L12.6056 15.9546C12.4083 15.9845 12.2063 16 12.0007 16C9.79156 16 8.0007 14.2092 8.0007 12Z" fill="black"/>
<path d="M11.1137 8.09872L12.5832 9.56826C13.4961 9.78613 14.2146 10.5047 14.4325 11.4175L15.902 12.887C15.9666 12.6017 16.0007 12.3049 16.0007 12C16.0007 9.79089 14.2098 8.00003 12.0007 8.00003C11.6959 8.00003 11.399 8.03413 11.1137 8.09872Z" fill="black"/>
<path d="M18.774 15.6805L18.7304 15.7155L19.7971 16.7822C21.6502 15.2714 22.8643 13.5925 23.3721 12.8201L23.3893 12.7942C23.4582 12.6908 23.5747 12.5159 23.6259 12.2867C23.6682 12.0971 23.6634 11.877 23.613 11.6894C23.5519 11.4626 23.4274 11.2922 23.3538 11.1914L23.3354 11.1661C22.7805 10.3966 21.4429 8.68512 19.515 7.15952C17.5912 5.63726 15.0153 4.25003 12.0007 4.25003C10.5392 4.25003 9.2038 4.53423 8.00319 4.98821L9.18479 6.16981C10.0576 5.90532 10.9973 5.75003 12.0007 5.75003C14.548 5.75003 16.8019 6.92552 18.5842 8.3358C20.3435 9.72797 21.5806 11.3002 22.1024 12.0208C21.6245 12.744 20.4877 14.3024 18.774 15.6805Z" fill="black"/>
</svg>
