<svg width="24" height="24" viewBox="0 0 24 24" fill="none" xmlns="http://www.w3.org/2000/svg">
<path d="M3.79925 2.90571C3.50636 2.61281 3.03148 2.61281 2.73859 2.90571C2.4457 3.1986 2.4457 3.67347 2.73859 3.96637L20.2944 21.5222C20.5873 21.8151 21.0622 21.8151 21.3551 21.5222C21.648 21.2293 21.648 20.7545 21.3551 20.4616L3.79925 2.90571Z" fill="black"/>
<path d="M0.409914 10.968C0.855808 10.2521 1.90951 8.70361 3.52289 7.22555L5.29264 8.99531C4.05546 10.1111 3.1815 11.2982 2.71797 12C3.21921 12.759 4.20037 14.0853 5.60177 15.2754C7.20248 16.6347 9.27023 17.75 11.7503 17.75C12.465 17.75 13.1454 17.6574 13.7903 17.493L15.7708 19.4735C14.5685 19.9496 13.2253 20.25 11.7503 20.25C8.48131 20.25 5.85997 18.7744 3.98356 17.181C2.10905 15.5892 0.896932 13.8139 0.409913 13.0321L0.39634 13.0107C0.337375 12.9182 0.190141 12.6872 0.122056 12.3868C0.0660855 12.1398 0.0660855 11.8603 0.122056 11.6133C0.190141 11.3128 0.337377 11.0819 0.396342 10.9894L0.409914 10.968Z" fill="black"/>
<path d="M8.00057 12C8.00057 11.9036 8.00398 11.808 8.01069 11.7133L12.2873 15.9899C12.1926 15.9966 12.097 16 12.0006 16C9.79143 16 8.00057 14.2092 8.00057 12Z" fill="black"/>
<path d="M11.4115 8.0431L15.9575 12.5891C15.9859 12.3969 16.0006 12.2002 16.0006 12C16.0006 9.79089 14.2097 8.00003 12.0006 8.00003C11.8004 8.00003 11.6037 8.01473 11.4115 8.0431Z" fill="black"/>
<path d="M20.7612 12.0324C20.3033 12.7216 19.4671 13.8508 18.2945 14.9261L20.0636 16.6952C21.6106 15.258 22.629 13.7698 23.0749 13.0573L23.0893 13.0347C23.1513 12.9381 23.3074 12.6949 23.3747 12.3801C23.4301 12.1213 23.4239 11.831 23.3575 11.5748C23.2767 11.263 23.1097 11.0257 23.0435 10.9316L23.028 10.9096C22.4922 10.1294 21.1865 8.37249 19.2927 6.7988C17.4084 5.23287 14.8216 3.75003 11.7503 3.75003C10.3237 3.75003 9.02047 4.03106 7.84866 4.48025L9.8428 6.4744C10.4482 6.33044 11.0844 6.25003 11.7503 6.25003C14.0033 6.25003 16.0378 7.34451 17.6949 8.72155C19.1379 9.9207 20.2037 11.2597 20.7612 12.0324Z" fill="black"/>
</svg>
