<svg width="24" height="24" viewBox="0 0 24 24" fill="none" xmlns="http://www.w3.org/2000/svg">
<path d="M20.0283 12.9746C22.12 13.0912 23.6085 15.0564 23.1543 17.1016L23.0166 17.7197C22.3015 20.9374 19.5471 23.2965 16.2578 23.5088L15.2656 23.5732C13.9956 23.6549 13.2173 22.2048 13.9873 21.1914C15.1948 19.6019 15.233 17.4212 14.1006 15.7949L13.9873 15.6396L13.2998 14.7334C13.551 14.6108 13.7898 14.4533 14.0078 14.2588L14.1367 14.1377C14.5509 13.7235 14.8234 13.2215 14.958 12.6924L20.0283 12.9746ZM9.09082 13.2988C9.21362 13.5507 9.37147 13.7902 9.56641 14.0088L9.6875 14.1377C10.1014 14.5515 10.6031 14.8242 11.1318 14.959L10.8506 20.0283C10.738 22.0551 8.89018 23.5155 6.91504 23.1914L6.72363 23.1543L6.10547 23.0176C2.88784 22.3023 0.528516 19.5481 0.316406 16.2588L0.25293 15.2666C0.171167 13.9964 1.62052 13.2186 2.63379 13.9883C4.27447 15.2347 6.54501 15.2349 8.18555 13.9883L9.09082 13.2988ZM8.55859 0.251953C9.82828 0.170525 10.6063 1.6205 9.83691 2.63379C8.59029 4.27438 8.59044 6.54491 9.83691 8.18555V8.18652L10.5244 9.09082C10.2225 9.23846 9.93881 9.43721 9.6875 9.68848C9.27352 10.1025 8.99983 10.604 8.86523 11.1328L3.7959 10.8516C1.70405 10.735 0.216451 8.76994 0.670898 6.72461L0.807617 6.10645C1.52276 2.88878 4.27709 0.529624 7.56641 0.317383L8.55957 0.25293L8.55859 0.251953ZM12.9736 3.79688C13.0901 1.70487 15.0562 0.216368 17.1016 0.670898L17.7188 0.807617C20.9362 1.52269 23.2953 4.27731 23.5078 7.56641L23.5723 8.55957C23.6537 9.82944 22.2038 10.6078 21.1904 9.83789C19.5498 8.59148 17.2792 8.59128 15.6387 9.83789L14.7344 10.5244C14.5867 10.2229 14.3877 9.93952 14.1367 9.68848C13.7224 9.27425 13.2206 9.00075 12.6914 8.86621L12.9736 3.79688Z" stroke="black" stroke-width="0.5"/>
</svg>
