<svg width="24" height="24" viewBox="0 0 24 24" fill="none" xmlns="http://www.w3.org/2000/svg">
<path d="M19.9727 13.9727C21.4483 14.0547 22.4981 15.4407 22.1787 16.8828L22.041 17.502V17.5029C21.4223 20.2866 19.039 22.3273 16.1934 22.5107L15.2031 22.5742H15.2021C14.7869 22.6009 14.533 22.1277 14.7842 21.7969C16.3026 19.7983 16.3016 17.0322 14.7832 15.0342L14.7246 14.9561C14.7645 14.9192 14.805 14.8825 14.8438 14.8438C15.1771 14.5104 15.439 14.1329 15.6348 13.7314L19.9727 13.9727ZM1.25098 15.2021C1.22439 14.7876 1.6979 14.5334 2.0293 14.7852C3.96545 16.2561 6.62192 16.3012 8.60254 14.9219L8.79199 14.7842L8.86914 14.7246C8.90598 14.7645 8.94265 14.8049 8.98145 14.8438C9.31489 15.1772 9.69266 15.4394 10.0938 15.6348L9.85352 19.9736C9.77125 21.4493 8.38444 22.4993 6.94141 22.1787L6.32324 22.042C3.62668 21.4427 1.62716 19.1874 1.33789 16.46L1.31543 16.1943L1.25098 15.2021ZM8.62305 1.25098C9.03822 1.22421 9.2921 1.69745 9.04102 2.02832C7.52249 4.02687 7.52371 6.79305 9.04199 8.79102V8.79199L9.10059 8.86816C9.06051 8.90517 9.02039 8.9425 8.98145 8.98145C8.64848 9.31445 8.38616 9.69171 8.19043 10.0928L3.85254 9.85156C2.37666 9.76947 1.32677 8.38354 1.64746 6.94043L1.78516 6.32324C2.4039 3.53957 4.78624 1.49792 7.63184 1.31445L7.63086 1.31348L8.62305 1.25098ZM13.9736 3.85254C14.0531 2.42273 15.3565 1.39241 16.75 1.62109L16.8848 1.64746L17.5029 1.78516C20.2866 2.40383 22.3272 4.78617 22.5107 7.63184L22.5742 8.62305C22.601 9.0385 22.1276 9.29222 21.7969 9.04102C19.7987 7.523 17.0332 7.52289 15.0352 9.04102L14.9561 9.10059C14.9192 9.06075 14.8825 9.02015 14.8438 8.98145C14.5109 8.64872 14.1337 8.38649 13.7324 8.19043L13.9736 3.85254Z" stroke="black" stroke-width="2.5"/>
</svg>
