<svg width="24" height="24" viewBox="0 0 24 24" fill="none" xmlns="http://www.w3.org/2000/svg">
<path d="M11.3866 14.9049L11.1014 20.0432C10.9766 22.2894 8.86644 23.8879 6.67028 23.3999L6.05225 23.2624C2.72594 22.5232 0.287393 19.676 0.0680877 16.2756L0.00386799 15.2833C-0.0916328 13.7995 1.60205 12.8902 2.78603 13.7897C4.3374 14.9685 6.48421 14.9686 8.03547 13.7897L9.19626 12.9065C9.33646 13.2907 9.55714 13.6527 9.86538 13.961C10.2995 14.3951 10.838 14.6598 11.3997 14.7606C11.3951 14.8086 11.3893 14.8566 11.3866 14.9049Z" fill="#FF0000"/>
<path d="M11.3866 14.9049L11.1014 20.0432C10.9766 22.2894 8.86644 23.8879 6.67028 23.3999L6.05225 23.2624C2.72594 22.5232 0.287393 19.676 0.0680877 16.2756L0.00386799 15.2833C-0.0916328 13.7995 1.60205 12.8902 2.78603 13.7897C4.3374 14.9685 6.48421 14.9686 8.03547 13.7897L9.19626 12.9065C9.33646 13.2907 9.55714 13.6527 9.86538 13.961C10.2995 14.3951 10.838 14.6598 11.3997 14.7606C11.3951 14.8086 11.3893 14.8566 11.3866 14.9049Z" fill="black"/>
<path d="M20.0432 12.7256C22.2894 12.8504 23.8878 14.9607 23.3998 17.1567L23.2624 17.7748C22.5232 21.1011 19.676 23.5397 16.2756 23.7589L15.2833 23.8232C13.7994 23.9188 12.89 22.225 13.7897 21.041C14.9684 19.4896 14.9686 17.3428 13.7897 15.7916L12.9072 14.6287C13.2911 14.4885 13.6529 14.2683 13.9609 13.9603C14.3948 13.5263 14.6611 12.9888 14.762 12.4273C14.8095 12.4319 14.857 12.4377 14.9049 12.4404L20.0432 12.7256Z" fill="#FF0000"/>
<path d="M20.0432 12.7256C22.2894 12.8504 23.8878 14.9607 23.3998 17.1567L23.2624 17.7748C22.5232 21.1011 19.676 23.5397 16.2756 23.7589L15.2833 23.8232C13.7994 23.9188 12.89 22.225 13.7897 21.041C14.9684 19.4896 14.9686 17.3428 13.7897 15.7916L12.9072 14.6287C13.2911 14.4885 13.6529 14.2683 13.9609 13.9603C14.3948 13.5263 14.6611 12.9888 14.762 12.4273C14.8095 12.4319 14.857 12.4377 14.9049 12.4404L20.0432 12.7256Z" fill="black"/>
<path d="M8.5437 0.0038814C10.0276 -0.0917915 10.9368 1.60201 10.0373 2.78604C8.85857 4.33733 8.85858 6.48422 10.0373 8.03548L10.9198 9.19558C10.5356 9.33575 10.1743 9.5572 9.86607 9.8654C9.43215 10.2993 9.16598 10.837 9.06505 11.3984C9.01754 11.3938 8.9699 11.3893 8.92211 11.3866L3.78385 11.1015C1.53765 10.9766 -0.0601029 8.86709 0.427856 6.67099L0.564582 6.05227C1.30393 2.72618 4.15118 0.287458 7.5514 0.0681011L8.5437 0.0038814Z" fill="#FF0000"/>
<path d="M8.5437 0.0038814C10.0276 -0.0917915 10.9368 1.60201 10.0373 2.78604C8.85857 4.33733 8.85858 6.48422 10.0373 8.03548L10.9198 9.19558C10.5356 9.33575 10.1743 9.5572 9.86607 9.8654C9.43215 10.2993 9.16598 10.837 9.06505 11.3984C9.01754 11.3938 8.9699 11.3893 8.92211 11.3866L3.78385 11.1015C1.53765 10.9766 -0.0601029 8.86709 0.427856 6.67099L0.564582 6.05227C1.30393 2.72618 4.15118 0.287458 7.5514 0.0681011L8.5437 0.0038814Z" fill="black"/>
<path d="M17.7741 0.565286C21.1004 1.30448 23.5389 4.15168 23.7582 7.55211L23.8225 8.5444C23.9177 10.0281 22.2249 10.9368 21.041 10.0373C19.4897 8.85867 17.3428 8.85863 15.7915 10.0373L14.6308 10.9192C14.4906 10.535 14.2691 10.1736 13.9609 9.8654C13.527 9.43148 12.9894 9.16531 12.428 9.06438C12.4325 9.01712 12.4377 8.96967 12.4404 8.92213L12.7256 3.78386C12.8505 1.53777 14.96 -0.0600763 17.156 0.427869L17.7741 0.565286Z" fill="#FF0000"/>
<path d="M17.7741 0.565286C21.1004 1.30448 23.5389 4.15168 23.7582 7.55211L23.8225 8.5444C23.9177 10.0281 22.2249 10.9368 21.041 10.0373C19.4897 8.85867 17.3428 8.85863 15.7915 10.0373L14.6308 10.9192C14.4906 10.535 14.2691 10.1736 13.9609 9.8654C13.527 9.43148 12.9894 9.16531 12.428 9.06438C12.4325 9.01712 12.4377 8.96967 12.4404 8.92213L12.7256 3.78386C12.8505 1.53777 14.96 -0.0600763 17.156 0.427869L17.7741 0.565286Z" fill="black"/>
</svg>
