<svg width="24" height="24" viewBox="0 0 24 24" fill="none" xmlns="http://www.w3.org/2000/svg">
<path fill-rule="evenodd" clip-rule="evenodd" d="M14.9032 12.4394L20.0419 12.7245C22.2877 12.8496 23.886 14.9604 23.3984 17.1562L23.2607 17.7743L23.1855 18.0829C22.3433 21.2502 19.5683 23.545 16.2743 23.7577L15.2821 23.8222L15.1444 23.8261C13.743 23.8123 12.9165 22.1869 13.788 21.04C14.9297 19.537 14.9662 17.4751 13.8954 15.9374L13.788 15.791L12.9071 14.6288C13.2427 14.5062 13.5612 14.3224 13.8417 14.0722L13.9599 13.9609C14.3939 13.5267 14.6599 12.9884 14.7607 12.4267C14.8079 12.4313 14.8557 12.4367 14.9032 12.4394ZM15.1415 12.9531C14.9822 13.4503 14.7081 13.9196 14.3134 14.3144C14.1168 14.5109 13.9006 14.6755 13.6737 14.8124L14.1864 15.4882L14.3056 15.6523C15.4612 17.3119 15.4608 19.519 14.3056 21.1786L14.1864 21.3427C13.5461 22.1855 14.1937 23.391 15.2499 23.3232L16.2421 23.2587C19.4204 23.0535 22.0824 20.774 22.7734 17.665L22.9101 17.0478C23.3308 15.1531 21.9514 13.3314 20.0136 13.2236L15.1415 12.9531Z" fill="black"/>
<path fill-rule="evenodd" clip-rule="evenodd" d="M9.19523 12.9062C9.33533 13.2902 9.55617 13.6527 9.86417 13.9609C10.2979 14.3946 10.8362 14.6607 11.3974 14.7617C11.3928 14.8089 11.3873 14.8567 11.3847 14.9042L11.0995 20.0419C10.9786 22.218 8.99538 23.7862 6.87492 23.4384L6.66984 23.3984L6.0507 23.2617C2.72485 22.5221 0.285573 19.6745 0.0663215 16.2743L0.00382154 15.2822C-0.0910291 13.7991 1.60036 12.8907 2.7841 13.789C4.28678 14.9308 6.34897 14.9667 7.88663 13.8964L8.03409 13.789L9.19523 12.9062ZM8.33683 14.1865C6.6069 15.501 4.21237 15.5017 2.48234 14.1874C1.64003 13.5482 0.435573 14.1941 0.502845 15.2499L0.565345 16.2431L0.590736 16.539C0.913665 19.5852 3.14747 22.1036 6.15909 22.7734L6.77726 22.9101C8.67215 23.3309 10.4928 21.9525 10.6005 20.0146L10.87 15.1425C10.3736 14.983 9.90469 14.7084 9.51066 14.3144C9.31361 14.1172 9.14785 13.9005 9.01066 13.6728L8.33683 14.1865Z" fill="black"/>
<path fill-rule="evenodd" clip-rule="evenodd" d="M8.54288 0.00384158C10.0263 -0.0912942 10.935 1.60125 10.036 2.78509L9.92863 2.93255C8.85832 4.47013 8.89451 6.53241 10.036 8.03509L10.9179 9.19525C10.534 9.33544 10.1722 9.55718 9.86417 9.86517L9.7089 10.0322C9.36622 10.4332 9.15184 10.9066 9.06339 11.3974L8.92081 11.3857L3.78214 11.1005C1.6066 10.9792 0.0389849 8.99603 0.386634 6.87591L0.426673 6.66986L0.563392 6.05169C1.27976 2.82983 3.97457 0.440348 7.23331 0.0946619L7.5507 0.0682947L8.54288 0.00384158ZM7.58292 0.567318C4.40467 0.772407 1.7428 3.05207 1.05167 6.16107L0.914954 6.77826C0.493939 8.67301 1.87267 10.4935 3.81046 10.6015L8.68156 10.871C8.84086 10.3745 9.11641 9.90599 9.51066 9.51165C9.70723 9.31512 9.92205 9.14808 10.1493 9.01068L9.63761 8.33783C8.32356 6.60783 8.32318 4.21219 9.63761 2.48236C10.2773 1.63968 9.63093 0.435288 8.57511 0.502865L7.58292 0.567318Z" fill="black"/>
<path fill-rule="evenodd" clip-rule="evenodd" d="M12.7245 3.78314C12.8497 1.5374 14.9594 -0.0609376 17.1552 0.426693L17.7734 0.563412C21.0994 1.30261 23.5381 4.15071 23.7577 7.55072L23.8212 8.5429C23.9139 9.9805 22.328 10.8783 21.1523 10.1152L21.04 10.0361C19.4888 8.85788 17.341 8.8576 15.79 10.0361L14.6298 10.9179C14.4896 10.5345 14.2675 10.1729 13.9599 9.86517C13.5802 9.48576 13.1205 9.23465 12.6357 9.11029L12.4257 9.06439L12.4394 8.92181L12.7245 3.78314ZM17.0468 0.913998C15.1524 0.49341 13.3318 1.87301 13.2235 3.81048L12.953 8.68255C13.4499 8.84181 13.9188 9.1173 14.3134 9.51165C14.5095 9.7078 14.6751 9.92359 14.8124 10.1503L15.4872 9.63861C17.217 8.32417 19.6117 8.32464 21.3417 9.63861C22.1318 10.239 23.2415 9.70748 23.3212 8.76849L23.3232 8.57513L23.2587 7.58294C23.0534 4.4048 20.7738 1.74268 17.665 1.05169L17.0468 0.913998Z" fill="black"/>
</svg>
