<svg width="24" height="24" viewBox="0 0 24 24" fill="none" xmlns="http://www.w3.org/2000/svg">
<path fill-rule="evenodd" clip-rule="evenodd" d="M14.9033 12.4394L20.0419 12.7246C22.2879 12.8495 23.887 14.9594 23.3994 17.1553L23.2607 17.7744C22.5212 21.1003 19.6745 23.5385 16.2744 23.7578L15.2822 23.8222C13.799 23.9172 12.8903 22.2248 13.789 21.041C14.9678 19.4896 14.967 17.3423 13.788 15.791L12.9072 14.6289C13.2909 14.4887 13.652 14.2678 13.9599 13.9599C14.3937 13.5261 14.6607 12.989 14.7617 12.4277C14.8086 12.4323 14.856 12.4368 14.9033 12.4394ZM16.2929 15.0625C17.3615 16.9592 17.4553 19.2461 16.5742 21.2119C18.6578 20.8889 20.3559 19.3203 20.8203 17.2314L20.8212 17.2295L20.9589 16.6103C21.11 15.9221 20.6086 15.26 19.9033 15.2207L16.3212 15.0215C16.3117 15.035 16.3026 15.0491 16.2929 15.0625Z" fill="black"/>
<path fill-rule="evenodd" clip-rule="evenodd" d="M9.19623 12.9062C9.33635 13.2902 9.55721 13.6518 9.86518 13.9599C10.2991 14.3939 10.8379 14.6598 11.3994 14.7607C11.3947 14.8084 11.3893 14.8563 11.3867 14.9043L11.1015 20.0429L11.0839 20.251C10.8524 22.3175 8.92802 23.775 6.87592 23.4385L6.66987 23.3994L6.05268 23.2617C2.72672 22.5224 0.287869 19.6754 0.0683037 16.2754L0.00385057 15.2822C-0.0914008 13.7986 1.60121 12.8908 2.7851 13.79C4.33629 14.9686 6.48393 14.9675 8.0351 13.789L9.19623 12.9062ZM8.76264 16.2929C6.8661 17.361 4.57963 17.4561 2.6142 16.5752C2.9374 18.6588 4.50616 20.357 6.59467 20.8213L7.21283 20.959L7.34174 20.9795C7.98323 21.0479 8.56837 20.5654 8.60541 19.9043L8.80366 16.3213C8.79017 16.3118 8.77605 16.3026 8.76264 16.2929Z" fill="black"/>
<path fill-rule="evenodd" clip-rule="evenodd" d="M8.54291 0.0038832C10.0265 -0.0917609 10.9355 1.60017 10.0371 2.78416L9.92963 2.93162C8.85916 4.46939 8.89514 6.53237 10.0371 8.03513L10.9199 9.19529C10.5356 9.33549 10.1735 9.55694 9.86518 9.86521C9.43141 10.2991 9.16527 10.8371 9.0644 11.3984C9.01721 11.3938 8.96928 11.3884 8.92182 11.3857L3.78315 11.0996C1.60736 10.9784 0.0397659 8.9953 0.38764 6.87498L0.426702 6.6699L0.564397 6.05173C1.30371 2.72564 4.15151 0.286771 7.5517 0.0673598L8.54291 0.0038832ZM7.25092 2.61326C5.16769 2.93655 3.46918 4.50513 3.00483 6.59373L2.86713 7.21189C2.71396 7.9018 3.21654 8.56396 3.92182 8.60349L7.50385 8.80271C7.51321 8.78944 7.52268 8.77587 7.53217 8.76267C6.46399 6.86614 6.36991 4.57883 7.25092 2.61326Z" fill="black"/>
<path fill-rule="evenodd" clip-rule="evenodd" d="M12.7255 3.78318C12.8504 1.53711 14.9602 -0.0609987 17.1562 0.426735L17.7744 0.56443C21.1006 1.30377 23.5385 4.1514 23.7578 7.55173L23.8212 8.54295C23.9139 9.98055 22.3289 10.8784 21.1533 10.1152L21.041 10.0371C19.4897 8.85858 17.3431 8.85852 15.7919 10.0371L14.6308 10.9189C14.4906 10.535 14.268 10.1733 13.9599 9.86521C13.5261 9.43165 12.9888 9.16435 12.4277 9.06345C12.4323 9.0164 12.4377 8.96919 12.4404 8.92185L12.7255 3.78318ZM16.6132 2.86716C15.9665 2.724 15.3439 3.15639 15.2363 3.79197L15.2216 3.92185L15.0224 7.50388C15.0357 7.51325 15.0493 7.52271 15.0624 7.5322C16.9592 6.46353 19.2464 6.37007 21.2119 7.25095C20.8886 5.16735 19.3202 3.46906 17.2314 3.00486L16.6132 2.86716Z" fill="black"/>
</svg>
