<svg width="24" height="24" viewBox="0 0 24 24" fill="none" xmlns="http://www.w3.org/2000/svg">
<path d="M20 13.4736C21.784 13.5728 23.0536 15.2489 22.666 16.9932L22.5293 17.6113C21.8623 20.612 19.2931 22.812 16.2256 23.0098L15.2344 23.0732C14.3916 23.1276 13.8763 22.1662 14.3867 21.4941L14.3857 21.4932C15.7678 19.6735 15.7671 17.156 14.3848 15.3369L14.0342 14.875C14.1936 14.7615 14.3466 14.6339 14.4902 14.4902C14.865 14.1155 15.1383 13.6781 15.3154 13.2129L20 13.4736ZM8.9502 14.0342C9.06378 14.1936 9.1914 14.3466 9.33496 14.4902C9.70976 14.865 10.1475 15.1377 10.6123 15.3145L10.3525 20.001C10.2564 21.7292 8.68038 22.9745 6.99609 22.6982L6.83301 22.667L6.21484 22.5293C3.30802 21.8833 1.15262 19.4528 0.84082 16.5127L0.816406 16.2266L0.751953 15.2344C0.697667 14.3921 1.65953 13.8757 2.33203 14.3867C4.15164 15.769 6.67003 15.7683 8.48926 14.3857L8.9502 14.0342ZM8.59082 0.751953C9.38091 0.701061 9.88425 1.54303 9.52344 2.20215L9.43945 2.33105C8.05684 4.15073 8.05786 6.66899 9.44043 8.48828V8.48926L9.79004 8.94922C9.63065 9.06308 9.4783 9.19162 9.33496 9.33496C8.96055 9.70941 8.68689 10.1465 8.50977 10.6113L3.8252 10.3516C2.04143 10.2524 0.771651 8.57757 1.1582 6.83398L1.29688 6.21484V6.21387C1.94314 3.30717 4.37353 1.15154 7.31348 0.839844L7.59961 0.81543L8.59082 0.751953ZM13.4746 3.8252C13.5737 2.04123 15.2488 0.771683 16.9932 1.15918L17.6113 1.29688C20.5182 1.94298 22.6736 4.37339 22.9854 7.31348L23.0098 7.59961L23.0732 8.59082C23.1275 9.4335 22.1662 9.94983 21.4941 9.43945H21.4951C19.7327 8.10024 17.3142 8.05827 15.5107 9.31348L15.3379 9.43945L14.875 9.78906C14.7614 9.63016 14.6332 9.4779 14.4902 9.33496C14.1155 8.96027 13.6781 8.68683 13.2129 8.50977L13.4746 3.8252Z" stroke="black" stroke-width="1.5"/>
</svg>
