<svg width="24" height="24" viewBox="0 0 24 24" fill="none" xmlns="http://www.w3.org/2000/svg">
<path d="M11.3866 14.9049L11.1015 20.0431C10.9766 22.2892 8.86622 23.8875 6.6703 23.3998L6.05227 23.2624C2.72601 22.5232 0.287523 19.6759 0.0681014 16.2756L0.00388175 15.2833C-0.0917955 13.7993 1.60201 12.89 2.78604 13.7897C4.33738 14.9681 6.48436 14.9685 8.03548 13.7897L9.19627 12.9065C9.33646 13.2907 9.55786 13.652 9.86609 13.9602C10.2999 14.394 10.8372 14.6595 11.3984 14.7606C11.3937 14.8085 11.3893 14.8566 11.3866 14.9049Z" fill="#FF0000"/>
<path d="M11.3866 14.9049L11.1015 20.0431C10.9766 22.2892 8.86622 23.8875 6.6703 23.3998L6.05227 23.2624C2.72601 22.5232 0.287523 19.6759 0.0681014 16.2756L0.00388175 15.2833C-0.0917955 13.7993 1.60201 12.89 2.78604 13.7897C4.33738 14.9681 6.48436 14.9685 8.03548 13.7897L9.19627 12.9065C9.33646 13.2907 9.55786 13.652 9.86609 13.9602C10.2999 14.394 10.8372 14.6595 11.3984 14.7606C11.3937 14.8085 11.3893 14.8566 11.3866 14.9049Z" fill="black"/>
<path d="M20.0432 12.7256C22.2892 12.8507 23.8879 14.9607 23.3999 17.1567L23.2624 17.7747C22.5232 21.1008 19.6758 23.5394 16.2756 23.7589L15.2833 23.8231C13.7994 23.9187 12.8902 22.225 13.7897 21.041C14.9683 19.4897 14.9683 17.3427 13.7897 15.7915L12.9079 14.6294C13.2917 14.4891 13.653 14.2682 13.961 13.9602C14.3949 13.5262 14.6611 12.9888 14.762 12.4272C14.8094 12.4318 14.8572 12.4377 14.9049 12.4404L20.0432 12.7256Z" fill="#FF0000"/>
<path d="M20.0432 12.7256C22.2892 12.8507 23.8879 14.9607 23.3999 17.1567L23.2624 17.7747C22.5232 21.1008 19.6758 23.5394 16.2756 23.7589L15.2833 23.8231C13.7994 23.9187 12.8902 22.225 13.7897 21.041C14.9683 19.4897 14.9683 17.3427 13.7897 15.7915L12.9079 14.6294C13.2917 14.4891 13.653 14.2682 13.961 13.9602C14.3949 13.5262 14.6611 12.9888 14.762 12.4272C14.8094 12.4318 14.8572 12.4377 14.9049 12.4404L20.0432 12.7256Z" fill="black"/>
<path d="M8.54372 0.0038472C10.0273 -0.0913861 10.9367 1.60212 10.0373 2.78601C8.85856 4.33736 8.85846 6.48418 10.0373 8.03545L10.9198 9.19554C10.5357 9.33573 10.1743 9.55717 9.86609 9.86536C9.43217 10.2993 9.166 10.8369 9.06507 11.3983C9.01753 11.3937 8.96993 11.3893 8.92213 11.3866L3.78386 11.1014C1.53771 10.9766 -0.0599958 8.86701 0.42787 6.67095L0.564595 6.05223C1.30384 2.726 4.15111 0.287441 7.55142 0.0680669L8.54372 0.0038472Z" fill="#FF0000"/>
<path d="M8.54372 0.0038472C10.0273 -0.0913861 10.9367 1.60212 10.0373 2.78601C8.85856 4.33736 8.85846 6.48418 10.0373 8.03545L10.9198 9.19554C10.5357 9.33573 10.1743 9.55717 9.86609 9.86536C9.43217 10.2993 9.166 10.8369 9.06507 11.3983C9.01753 11.3937 8.96993 11.3893 8.92213 11.3866L3.78386 11.1014C1.53771 10.9766 -0.0599958 8.86701 0.42787 6.67095L0.564595 6.05223C1.30384 2.726 4.15111 0.287441 7.55142 0.0680669L8.54372 0.0038472Z" fill="black"/>
<path d="M17.7748 0.564561C21.1007 1.30407 23.5396 4.15127 23.7589 7.55138L23.8232 8.54368C23.9187 10.0274 22.225 10.9363 21.041 10.0373C19.4898 8.85858 17.3428 8.85866 15.7916 10.0373L14.6308 10.9191C14.4906 10.535 14.2691 10.1735 13.961 9.86536C13.527 9.43145 12.9894 9.16523 12.428 9.06434C12.4326 9.01703 12.4378 8.96969 12.4404 8.92209L12.7256 3.78383C12.8504 1.53758 14.9599 -0.060173 17.1561 0.427835L17.7748 0.564561Z" fill="#FF0000"/>
<path d="M17.7748 0.564561C21.1007 1.30407 23.5396 4.15127 23.7589 7.55138L23.8232 8.54368C23.9187 10.0274 22.225 10.9363 21.041 10.0373C19.4898 8.85858 17.3428 8.85866 15.7916 10.0373L14.6308 10.9191C14.4906 10.535 14.2691 10.1735 13.961 9.86536C13.527 9.43145 12.9894 9.16523 12.428 9.06434C12.4326 9.01703 12.4378 8.96969 12.4404 8.92209L12.7256 3.78383C12.8504 1.53758 14.9599 -0.060173 17.1561 0.427835L17.7748 0.564561Z" fill="black"/>
</svg>
