<svg width="24" height="24" viewBox="0 0 24 24" fill="none" xmlns="http://www.w3.org/2000/svg">
<path fill-rule="evenodd" clip-rule="evenodd" d="M14.9032 12.4394L20.0419 12.7246C22.288 12.8495 23.8862 14.9603 23.3984 17.1562L23.2607 17.7744L23.1855 18.083C22.343 21.2501 19.5683 23.5453 16.2743 23.7578L15.2821 23.8222C13.799 23.9172 12.8904 22.2248 13.789 21.041C14.9677 19.4898 14.9666 17.3422 13.788 15.791L12.9062 14.6289C13.2902 14.4887 13.6527 14.268 13.9609 13.9599C14.3947 13.526 14.6607 12.9881 14.7616 12.4267C14.8085 12.4313 14.8561 12.4368 14.9032 12.4394ZM16.0624 14.5068C15.9506 14.6857 15.8255 14.8582 15.6884 15.0244C16.9959 17.0868 17.0002 19.7247 15.6991 21.791L16.1454 21.7627L16.3798 21.7422C18.7879 21.4868 20.779 19.7211 21.3085 17.3398L21.4462 16.7217C21.6659 15.7306 20.9441 14.778 19.9306 14.7217L16.0624 14.5068Z" fill="black"/>
<path fill-rule="evenodd" clip-rule="evenodd" d="M9.19523 12.9062C9.33535 13.2899 9.55741 13.652 9.86516 13.9599C10.2991 14.3938 10.838 14.6598 11.3993 14.7607C11.3947 14.8081 11.3893 14.8566 11.3866 14.9043L11.1015 20.0429L11.0839 20.251C10.8521 22.3172 8.92778 23.7748 6.8759 23.4385L6.66984 23.3994L6.05266 23.2617C2.83063 22.5455 0.440364 19.8507 0.0946475 16.5918L0.0682803 16.2754L0.00382721 15.2822C-0.0911232 13.7989 1.60129 12.8911 2.78508 13.79C4.33622 14.9683 6.48401 14.9674 8.03508 13.789L9.19523 12.9062ZM8.80168 15.6894C6.73876 16.9971 4.10023 17.0006 2.0341 15.6992L2.0634 16.1455C2.22588 18.658 4.02899 20.7633 6.48625 21.3095L7.10344 21.4463C8.09427 21.6664 9.04768 20.9453 9.10441 19.9316L9.31828 16.0625C9.13995 15.9511 8.96749 15.8261 8.80168 15.6894Z" fill="black"/>
<path fill-rule="evenodd" clip-rule="evenodd" d="M8.54289 0.00388376C10.0265 -0.0917675 10.9355 1.60017 10.037 2.78416L9.92961 2.93162C8.85929 4.46931 8.89534 6.53244 10.037 8.03513L10.9189 9.19431C10.535 9.33449 10.1732 9.55625 9.86516 9.86423C9.43149 10.298 9.16633 10.8363 9.06535 11.3974C9.01797 11.3928 8.96945 11.3884 8.9218 11.3857L3.78312 11.0996C1.6075 10.9784 0.0400411 8.99516 0.387616 6.87498L0.426679 6.6699L0.564374 6.05174C1.28067 2.82969 3.97539 0.440337 7.2343 0.0947041L7.55168 0.0673603L8.54289 0.00388376ZM7.67961 2.06345C5.16735 2.2258 3.06296 4.02769 2.51652 6.48533L2.3798 7.10349C2.15982 8.09496 2.88162 9.04691 3.89445 9.10349L7.76164 9.31736C7.87327 9.13853 7.99861 8.96606 8.13566 8.79978C6.82912 6.73735 6.82543 4.09953 8.1259 2.03416L7.67961 2.06345Z" fill="black"/>
<path fill-rule="evenodd" clip-rule="evenodd" d="M12.7255 3.78318C12.8505 1.5373 14.9603 -0.0609109 17.1562 0.426735L17.7743 0.564431C21.1003 1.3038 23.5383 4.15161 23.7577 7.55174L23.8222 8.54295C23.9144 9.98007 22.3287 10.8779 21.1532 10.1152L21.0409 10.0371C19.4897 8.85872 17.343 8.85854 15.7919 10.0371L14.6308 10.9189C14.4906 10.535 14.2689 10.1723 13.9609 9.86423C13.5271 9.43071 12.9888 9.16433 12.4277 9.06345C12.4322 9.01671 12.4367 8.96887 12.4394 8.92185L12.7255 3.78318ZM16.7216 2.37986C15.7306 2.16021 14.7791 2.88139 14.7226 3.89451L14.5068 7.76072C14.6859 7.87267 14.8589 7.9985 15.0253 8.13572C17.0878 6.82841 19.7254 6.82553 21.7909 8.12595L21.7626 7.67967C21.6003 5.16726 19.7976 3.06287 17.3398 2.51658L16.7216 2.37986Z" fill="black"/>
</svg>
