<svg width="24" height="24" viewBox="0 0 24 24" fill="none" xmlns="http://www.w3.org/2000/svg">
<path d="M11.3866 14.9049L11.1007 20.0425C10.976 22.2887 8.86641 23.8878 6.67028 23.3999L6.05225 23.2624C2.72614 22.5232 0.287533 19.6758 0.0680854 16.2756L0.00386572 15.2833C-0.0916059 13.7996 1.60207 12.8904 2.78603 13.7897C4.33736 14.9682 6.4843 14.9685 8.03547 13.7897L9.19625 12.9065C9.33644 13.291 9.55761 13.6532 9.86607 13.9616C10.3 14.3955 10.8376 14.6618 11.3991 14.7627C11.3945 14.81 11.3893 14.8573 11.3866 14.9049Z" fill="#FF0000"/>
<path d="M11.3866 14.9049L11.1007 20.0425C10.976 22.2887 8.86641 23.8878 6.67028 23.3999L6.05225 23.2624C2.72614 22.5232 0.287533 19.6758 0.0680854 16.2756L0.00386572 15.2833C-0.0916059 13.7996 1.60207 12.8904 2.78603 13.7897C4.33736 14.9682 6.4843 14.9685 8.03547 13.7897L9.19625 12.9065C9.33644 13.291 9.55761 13.6532 9.86607 13.9616C10.3 14.3955 10.8376 14.6618 11.3991 14.7627C11.3945 14.81 11.3893 14.8573 11.3866 14.9049Z" fill="black"/>
<path d="M20.0432 12.7256C22.2894 12.8504 23.8871 14.96 23.3992 17.1561L23.2617 17.7741C22.5225 21.1005 19.6754 23.539 16.2749 23.7582L15.2826 23.8225C13.7992 23.9175 12.8903 22.2248 13.7897 21.041C14.9684 19.4897 14.9685 17.3428 13.7897 15.7916L12.9086 14.6301C13.2921 14.4898 13.6532 14.2694 13.9609 13.9616C14.3952 13.5274 14.6612 12.9891 14.762 12.4273C14.8095 12.4319 14.857 12.4377 14.9049 12.4404L20.0432 12.7256Z" fill="#FF0000"/>
<path d="M20.0432 12.7256C22.2894 12.8504 23.8871 14.96 23.3992 17.1561L23.2617 17.7741C22.5225 21.1005 19.6754 23.539 16.2749 23.7582L15.2826 23.8225C13.7992 23.9175 12.8903 22.2248 13.7897 21.041C14.9684 19.4897 14.9685 17.3428 13.7897 15.7916L12.9086 14.6301C13.2921 14.4898 13.6532 14.2694 13.9609 13.9616C14.3952 13.5274 14.6612 12.9891 14.762 12.4273C14.8095 12.4319 14.857 12.4377 14.9049 12.4404L20.0432 12.7256Z" fill="black"/>
<path d="M8.5437 0.0038798C10.0277 -0.0917532 10.9363 1.60133 10.0366 2.78535C8.85787 4.33664 8.85858 6.48422 10.0373 8.03548L10.9198 9.19558C10.5355 9.33577 10.1737 9.55773 9.86538 9.86609C9.43174 10.2998 9.16608 10.8373 9.06505 11.3984C9.01761 11.3938 8.96982 11.3893 8.92211 11.3866L3.78385 11.1015C1.53773 10.9765 -0.060852 8.86636 0.427163 6.67029L0.564579 6.05227C1.30382 2.72604 4.1511 0.287491 7.5514 0.0680995L8.5437 0.0038798Z" fill="#FF0000"/>
<path d="M8.5437 0.0038798C10.0277 -0.0917532 10.9363 1.60133 10.0366 2.78535C8.85787 4.33664 8.85858 6.48422 10.0373 8.03548L10.9198 9.19558C10.5355 9.33577 10.1737 9.55773 9.86538 9.86609C9.43174 10.2998 9.16608 10.8373 9.06505 11.3984C9.01761 11.3938 8.96982 11.3893 8.92211 11.3866L3.78385 11.1015C1.53773 10.9765 -0.060852 8.86636 0.427163 6.67029L0.564579 6.05227C1.30382 2.72604 4.1511 0.287491 7.5514 0.0680995L8.5437 0.0038798Z" fill="black"/>
<path d="M17.7741 0.563903C21.1004 1.30309 23.5396 4.151 23.7589 7.55142L23.8225 8.54302C23.9181 10.027 22.2243 10.9363 21.0403 10.0366C19.489 8.85835 17.3419 8.85791 15.7909 10.0366L14.6301 10.9185C14.4899 10.535 14.2686 10.1745 13.9609 9.86678C13.5272 9.433 12.9899 9.16607 12.4286 9.06507C12.4333 9.0176 12.4377 8.96987 12.4404 8.92213L12.7256 3.78386C12.8505 1.53801 14.9596 -0.0602187 17.1553 0.427177L17.7741 0.563903Z" fill="#FF0000"/>
<path d="M17.7741 0.563903C21.1004 1.30309 23.5396 4.151 23.7589 7.55142L23.8225 8.54302C23.9181 10.027 22.2243 10.9363 21.0403 10.0366C19.489 8.85835 17.3419 8.85791 15.7909 10.0366L14.6301 10.9185C14.4899 10.535 14.2686 10.1745 13.9609 9.86678C13.5272 9.433 12.9899 9.16607 12.4286 9.06507C12.4333 9.0176 12.4377 8.96987 12.4404 8.92213L12.7256 3.78386C12.8505 1.53801 14.9596 -0.0602187 17.1553 0.427177L17.7741 0.563903Z" fill="black"/>
</svg>
