<svg width="24" height="25" viewBox="0 0 24 25" fill="none" xmlns="http://www.w3.org/2000/svg">
<path fill-rule="evenodd" clip-rule="evenodd" d="M11.9999 0.0249023C10.2188 0.0249023 8.77491 1.46878 8.77491 3.2499C8.77491 3.81116 8.91864 4.3393 9.17084 4.79903C7.23405 5.96377 6.17716 8.23549 6.61297 10.5235L6.87544 11.9014C6.95076 12.2969 6.95076 12.703 6.87544 13.0985L6.7459 13.7785L2.94579 18.2824C2.71646 18.5542 2.71813 18.9522 2.94973 19.2221C3.18134 19.4919 3.5745 19.554 3.87795 19.3685L6.0468 18.0431C6.06585 18.17 6.09717 18.2943 6.14006 18.4144C6.14445 18.4285 6.14899 18.4426 6.15369 18.4567L7.62626 22.8745C7.97119 23.9092 9.08967 24.4685 10.1245 24.1236C11.1593 23.7786 11.7185 22.6601 11.3736 21.6254L10.4152 18.7504L12 17.9581L13.5846 18.7504L12.6263 21.6254C12.2813 22.6601 12.8406 23.7786 13.8754 24.1236C14.9102 24.4685 16.0286 23.9092 16.3736 22.8745L17.8461 18.4567C17.8479 18.4514 17.8497 18.446 17.8514 18.4406C17.8541 18.4324 17.8567 18.4242 17.8592 18.416C17.9173 18.254 17.9542 18.0843 17.9684 17.911C18.1492 18.0209 18.3275 18.1362 18.5032 18.257L20.0892 19.3473C20.4191 19.5742 20.8705 19.4906 21.0973 19.1606C21.3242 18.8307 21.2406 18.3793 20.9106 18.1525L19.3247 17.0622C18.8016 16.7025 18.2579 16.386 17.6986 16.1128L17.1245 13.0985C17.0491 12.703 17.0491 12.2969 17.1245 11.9014L17.3869 10.5235C17.7535 8.59925 17.0642 6.68654 15.6837 5.43414L17.554 3.21743C17.8122 2.91141 17.7735 2.454 17.4674 2.19579C17.1614 1.93758 16.704 1.97634 16.4458 2.28237L15.1813 3.78101C15.21 3.6082 15.2249 3.43077 15.2249 3.2499C15.2249 1.46878 13.781 0.0249023 11.9999 0.0249023ZM13.5131 5.7581C13.4957 5.75104 13.4781 5.74408 13.4605 5.73724C13.2291 5.64741 13.0597 5.44544 13.0116 5.20193C12.9635 4.95843 13.0433 4.70723 13.2231 4.53613C13.5639 4.21187 13.7749 3.75612 13.7749 3.2499C13.7749 2.2696 12.9802 1.4749 11.9999 1.4749C11.0196 1.4749 10.2249 2.2696 10.2249 3.2499C10.2249 3.75613 10.4359 4.21188 10.7767 4.53615C10.9565 4.70724 11.0363 4.95844 10.9882 5.20195C10.9401 5.44546 10.7708 5.64742 10.5394 5.73726C8.7278 6.44057 7.67289 8.33868 8.03736 10.2522L8.29983 11.6301C8.31611 11.7156 8.32998 11.8015 8.34142 11.8876L13.5131 5.7581ZM7.88525 15.5463L8.09919 14.4232L14.7477 6.54345C15.7377 7.46509 16.2288 8.85452 15.9625 10.2522L15.7001 11.6301C15.5906 12.2048 15.5906 12.7951 15.7001 13.3698L16.0986 15.4619C13.4365 14.5849 10.5441 14.6089 7.88525 15.5463ZM7.56412 17.2323L7.48422 17.6517C7.46595 17.7477 7.475 17.8444 7.50775 17.9326C7.51332 17.9476 7.5184 17.9628 7.52297 17.9782C7.52495 17.9849 7.52706 17.9915 7.52928 17.9982L9.00185 22.4159C9.09354 22.691 9.39086 22.8397 9.66593 22.748C9.941 22.6563 10.0897 22.359 9.99797 22.0839L8.84082 18.6124C8.72672 18.2701 8.88168 17.8961 9.20438 17.7347L11.6757 16.499C11.8798 16.397 12.1201 16.397 12.3242 16.499L14.7955 17.7346C15.1182 17.896 15.2731 18.2701 15.159 18.6124L14.0019 22.0839C13.9102 22.359 14.0588 22.6563 14.3339 22.748C14.609 22.8397 14.9063 22.691 14.998 22.4159L16.4705 17.9982L16.4749 17.9846L16.4767 17.9787C16.4813 17.9633 16.4864 17.9481 16.492 17.9331C16.5249 17.8447 16.534 17.7478 16.5157 17.6517L16.4153 17.1246C13.5871 15.9577 10.385 15.9868 7.56412 17.2323Z" fill="black"/>
</svg>
