<svg width="24" height="24" viewBox="0 0 24 24" fill="none" xmlns="http://www.w3.org/2000/svg">
<path d="M13.7229 5.06148C14.2016 4.60606 14.4999 3.96287 14.4999 3.25C14.4999 1.86929 13.3807 0.75 11.9999 0.75C10.6192 0.75 9.49995 1.86929 9.49995 3.25C9.49995 3.96288 9.79833 4.60608 10.277 5.0615C8.13972 5.89127 6.89522 8.1305 7.3252 10.3879L7.58767 11.7659C7.68007 12.251 7.68007 12.7491 7.58767 13.2342L7.51794 13.6003L3.30893 18.5888C3.22985 18.6825 3.23042 18.8198 3.31029 18.9128C3.39015 19.0059 3.52572 19.0273 3.63036 18.9633L5.98869 17.5221C6.27499 17.3472 6.5668 17.1856 6.86327 17.0373L6.77544 17.4984C6.73232 17.7077 6.74238 17.9302 6.81409 18.1453L8.31409 22.6453C8.5324 23.3002 9.2403 23.6542 9.89523 23.4359C10.5502 23.2175 10.9041 22.5096 10.6858 21.8547L9.52865 18.3833L12 17.1476L14.4713 18.3832L13.3141 21.8547C13.0958 22.5096 13.4497 23.2175 14.1047 23.4359C14.7596 23.6542 15.4675 23.3002 15.6858 22.6453L17.1821 18.1563C17.1978 18.1107 17.2109 18.0641 17.2212 18.0168C17.2589 17.8447 17.259 17.6706 17.2257 17.5046L17.1131 16.9134C13.8749 15.391 10.0926 15.4225 6.86327 17.0373L6.97967 16.4266C6.55324 16.6236 6.13526 16.8466 5.72797 17.0955L4.68567 17.7325L7.32719 14.6017L6.97967 16.4266C10.1605 14.9566 13.8112 14.9271 16.9987 16.3129L16.4123 13.2342C16.3199 12.7491 16.3199 12.251 16.4123 11.7659L16.6748 10.3879C17.0222 8.56406 16.2765 6.75207 14.8501 5.68571L7.32719 14.6017L7.51794 13.6003L14.4317 5.40628C14.2083 5.27372 13.9717 5.15805 13.7229 5.06148Z" fill="black"/>
<path d="M14.4317 5.40628C14.5769 5.49248 14.7165 5.58583 14.8501 5.68571L17.1911 2.91123C17.2801 2.80571 17.2667 2.64798 17.1612 2.55894C17.0557 2.46991 16.898 2.48327 16.8089 2.5888L14.4317 5.40628Z" fill="black"/>
<path d="M17.1131 16.9134L16.9987 16.3129C17.711 16.6226 18.4001 17.003 19.0557 17.4537L20.6416 18.544C20.7554 18.6222 20.7842 18.7779 20.706 18.8916C20.6278 19.0054 20.4721 19.0342 20.3584 18.956L18.7724 17.8657C18.2404 17.4999 17.6852 17.1824 17.1131 16.9134Z" fill="black"/>
</svg>
