<svg width="24" height="24" viewBox="0 0 24 24" fill="none" xmlns="http://www.w3.org/2000/svg">
<path fill-rule="evenodd" clip-rule="evenodd" d="M12 0.25C10.3432 0.25 9.00001 1.59315 9.00001 3.25C9.00001 3.85108 9.17711 4.41121 9.48149 4.88054C7.50106 5.9591 6.4018 8.21195 6.8341 10.4815L7.09656 11.8594C7.17719 12.2827 7.17719 12.7174 7.09656 13.1407L6.95599 13.8787L3.11785 18.4276C2.95969 18.615 2.96084 18.8895 3.12057 19.0756C3.2803 19.2617 3.55145 19.3045 3.76073 19.1766L6.11906 17.7354C6.16344 17.7083 6.20795 17.6815 6.2526 17.6551C6.23972 17.8914 6.27512 18.1253 6.35366 18.3433C6.35801 18.3574 6.36254 18.3716 6.36724 18.3857L7.83981 22.8034C8.14545 23.7203 9.13651 24.2158 10.0534 23.9102C10.9703 23.6046 11.4658 22.6135 11.1602 21.6966L10.1402 18.6365L12.0001 17.7066L13.8599 18.6365L12.8398 21.6966C12.5342 22.6135 13.0297 23.6046 13.9466 23.9102C14.8635 24.2158 15.8546 23.7203 16.1602 22.8034L17.6328 18.3857C17.6373 18.3721 17.6417 18.3584 17.6459 18.3448C17.7405 18.083 17.7728 17.7983 17.734 17.5138C18.0394 17.6848 18.3386 17.8708 18.6308 18.0717L20.2167 19.162C20.4443 19.3185 20.7556 19.2608 20.912 19.0333C21.0685 18.8057 21.0108 18.4944 20.7833 18.338L19.1973 17.2477C18.652 16.8727 18.0839 16.5456 17.4989 16.2663L16.9035 13.1407C16.8229 12.7174 16.8229 12.2827 16.9035 11.8594L17.166 10.4815C17.5317 8.56164 16.8014 6.65374 15.3689 5.4585L17.3821 3.07244C17.5602 2.86138 17.5335 2.54593 17.3224 2.36785C17.1114 2.18978 16.7959 2.21651 16.6179 2.42756L14.5388 4.8916C14.5321 4.88789 14.5253 4.88419 14.5186 4.88051C14.8229 4.41118 15 3.85107 15 3.25C15 1.59315 13.6569 0.25 12 0.25ZM13.878 5.67483C13.769 5.62137 13.6569 5.5722 13.542 5.52759C13.3824 5.46564 13.2656 5.32635 13.2324 5.15841C13.1993 4.99048 13.2543 4.81723 13.3783 4.69924C13.7619 4.33427 14 3.82035 14 3.25C14 2.14543 13.1046 1.25 12 1.25C10.8954 1.25 10 2.14543 10 3.25C10 3.82036 10.2381 4.33429 10.6217 4.69926C10.7457 4.81725 10.8008 4.99049 10.7676 5.15843C10.7344 5.32637 10.6176 5.46565 10.458 5.52761C8.54538 6.27017 7.43163 8.27414 7.81643 10.2944L8.0789 11.6723C8.12819 11.9311 8.15416 12.1932 8.15681 12.4555L13.878 5.67483ZM6.5745 15.8815L5.86356 16.7241C6.0658 16.6072 6.27046 16.4965 6.47728 16.3919L6.5745 15.8815ZM7.58975 15.8958L7.88929 14.3232L14.724 6.22289C15.8869 7.1906 16.4802 8.73765 16.1837 10.2944L15.9212 11.6723C15.817 12.2192 15.817 12.7809 15.9212 13.3278L16.3925 15.802C13.5555 14.7691 10.4224 14.7951 7.58975 15.8958ZM7.36515 17.0749L7.2633 17.6097C7.23719 17.7467 7.25016 17.885 7.29691 18.011C7.30075 18.0213 7.30425 18.0318 7.3074 18.0424C7.30856 18.0463 7.30974 18.0502 7.31095 18.0541C7.31256 18.0592 7.31421 18.0643 7.31592 18.0694L8.7885 22.4872C8.91948 22.8801 9.34422 23.0925 9.73718 22.9615C10.1301 22.8305 10.3425 22.4058 10.2115 22.0128L9.05437 18.5414C8.97568 18.3053 9.08255 18.0473 9.3051 17.936L11.7764 16.7004C11.9172 16.63 12.0829 16.63 12.2237 16.7004L14.6949 17.936C14.9175 18.0473 15.0244 18.3053 14.9457 18.5413L13.7885 22.0128C13.6575 22.4058 13.8699 22.8305 14.2628 22.9615C14.6558 23.0925 15.0805 22.8801 15.2115 22.4872L16.6841 18.0695C16.687 18.0607 16.6898 18.0519 16.6924 18.0431C16.6956 18.0325 16.6991 18.022 16.703 18.0116C16.7499 17.8855 16.763 17.747 16.7368 17.6097L16.6138 16.9639C13.6656 15.7106 10.3058 15.7402 7.36515 17.0749Z" fill="black"/>
</svg>
