<svg width="24" height="25" viewBox="0 0 24 25" fill="none" xmlns="http://www.w3.org/2000/svg">
<path d="M4.83887 2.56348C4.81184 2.71739 4.79418 2.86838 4.78223 3.01465C4.74887 3.42332 4.75 3.91509 4.75 4.4502V5.30079C4.72453 5.33482 4.70116 5.37094 4.68165 5.40918C4.67702 5.41825 4.64384 5.48392 4.62305 5.73829C4.60094 6.00906 4.59961 6.36962 4.59961 6.9502V16.3496C4.59961 17.4901 4.60105 18.2708 4.6504 18.875C4.69854 19.4643 4.7863 19.7758 4.89942 19.9981C5.16302 20.5154 5.58427 20.9365 6.10157 21.2002C6.24259 21.272 6.42053 21.3302 6.68165 21.3779C7.13567 21.6047 7.59464 21.6835 8.01465 21.7178C8.42333 21.7511 8.91507 21.75 9.4502 21.75H17.5498C18.0849 21.75 18.5767 21.7511 18.9854 21.7178C19.3037 21.6918 19.6442 21.6396 19.9883 21.5176C19.9382 21.7532 19.8645 21.9913 19.7451 22.2256C19.4336 22.8369 18.9365 23.334 18.3252 23.6455C17.9059 23.8591 17.476 23.9352 17.0654 23.9688C16.6693 24.0011 16.1887 24 15.6494 24H9.75C8.65071 24 7.75014 24.001 7.02051 23.9414C6.2764 23.8806 5.59909 23.7504 4.96583 23.4277C3.97835 22.9244 3.17512 22.1213 2.67188 21.1338C2.34922 20.5005 2.21902 19.8233 2.15821 19.0791C2.09859 18.3494 2.09961 17.4491 2.09961 16.3496V6.9502C2.09961 6.41081 2.0985 5.93038 2.13086 5.53418C2.16444 5.12357 2.24051 4.69371 2.45411 4.27442C2.76561 3.66317 3.26282 3.16607 3.87403 2.8545C4.19383 2.69155 4.52006 2.60854 4.83887 2.56348Z" fill="black"/>
<path fill-rule="evenodd" clip-rule="evenodd" d="M13.792 4.7136e-06C14.1118 0.00236134 14.4253 0.0167098 14.7324 0.090825C15.0658 0.17134 15.3849 0.304262 15.6768 0.48438C16.0353 0.705655 16.3257 1.01049 16.6299 1.31739L20.7109 5.43458C21.0115 5.73785 21.3098 6.02792 21.5264 6.38379C21.7026 6.67334 21.8324 6.9887 21.9111 7.31836C21.9837 7.62235 21.9977 7.93282 22 8.24903V16.0498C22 16.589 22.0011 17.0687 21.9688 17.4648C21.9352 17.8756 21.8592 18.3061 21.6455 18.7256C21.3339 19.3369 20.8369 19.834 20.2256 20.1455C19.8062 20.3592 19.3765 20.4352 18.9658 20.4688C18.5696 20.5011 18.0892 20.5 17.5498 20.5H10.2002C9.66078 20.5 9.18039 20.5011 8.78418 20.4688C8.37351 20.4352 7.94377 20.3592 7.52442 20.1455C6.91307 19.834 6.41606 19.3369 6.1045 18.7256C5.89077 18.3061 5.81482 17.8756 5.78125 17.4648C5.74893 17.0687 5.75 16.589 5.75 16.0498V4.4502C5.75 3.9108 5.74888 3.43038 5.78125 3.03418C5.81484 2.62352 5.89083 2.19375 6.1045 1.77442C6.41606 1.16307 6.91306 0.666052 7.52442 0.354497C7.94376 0.140832 8.37351 0.0648363 8.78418 0.0312547C9.18039 -0.00111679 9.66078 4.68731e-06 10.2002 4.7136e-06H13.792ZM10.2002 2.5C9.61957 2.5 9.25907 2.50132 8.98829 2.52344C8.73219 2.54437 8.66755 2.57777 8.65918 2.58204C8.51837 2.65388 8.40389 2.76838 8.33204 2.90918C8.32779 2.91751 8.29438 2.98213 8.27344 3.23829C8.25132 3.50907 8.25 3.8696 8.25 4.4502V16.0498C8.25 16.6304 8.25132 16.9909 8.27344 17.2617C8.29433 17.5174 8.32768 17.5823 8.33204 17.5908C8.40389 17.7316 8.51838 17.8461 8.65918 17.918C8.66751 17.9222 8.7321 17.9556 8.98829 17.9766C9.25907 17.9987 9.61958 18 10.2002 18H17.5498C18.1304 18 18.4909 17.9987 18.7617 17.9766C19.0179 17.9556 19.0825 17.9222 19.0908 17.918C19.2316 17.8461 19.3461 17.7316 19.418 17.5908C19.4223 17.5823 19.4557 17.5176 19.4766 17.2617C19.4987 16.9909 19.5 16.6304 19.5 16.0498V10.1836H14.8496C14.5905 10.1836 14.3211 10.1847 14.0918 10.166C13.8478 10.1461 13.541 10.0977 13.2285 9.93848C12.8052 9.72277 12.4608 9.37842 12.2451 8.95508C12.0859 8.64257 12.0375 8.33583 12.0176 8.0918C11.9989 7.86257 12 7.59308 12 7.33399V2.5H10.2002ZM14.5 7.33399C14.5 7.47505 14.4995 7.58596 14.501 7.68165C14.5969 7.68313 14.708 7.6836 14.8496 7.6836H19.3906C19.3625 7.63743 19.3183 7.5815 18.9346 7.19434L14.8545 3.07715C14.6777 2.89881 14.5696 2.79243 14.5 2.72657V7.33399Z" fill="black"/>
</svg>
