<svg width="24" height="25" viewBox="0 0 24 25" fill="none" xmlns="http://www.w3.org/2000/svg">
<path d="M4.25 17.2998C4.25 17.8349 4.24886 18.3267 4.28223 18.7354C4.31705 19.1616 4.39717 19.6283 4.63184 20.0889C4.96738 20.7474 5.50265 21.2826 6.16113 21.6182C6.62173 21.8529 7.08839 21.9329 7.51465 21.9678C7.92332 22.0011 8.41508 22 8.9502 22H17.5498C17.6369 22 17.723 21.9981 17.8076 21.9981C17.7772 22.2651 17.7256 22.4742 17.6318 22.6582C17.4401 23.0344 17.134 23.3405 16.7578 23.5322C16.3301 23.7501 15.77 23.75 14.6504 23.75H8.75C6.51008 23.75 5.38978 23.7503 4.53418 23.3145C3.7817 22.931 3.16963 22.3188 2.78613 21.5664C2.35018 20.7108 2.34961 19.5898 2.34961 17.3496V7.9502C2.34961 6.83013 2.35038 6.26962 2.56836 5.8418C2.76012 5.46563 3.06617 5.15947 3.44238 4.96778C3.6591 4.85744 3.9098 4.80323 4.25 4.77637V17.2998Z" fill="black"/>
<path fill-rule="evenodd" clip-rule="evenodd" d="M13.792 4.71301e-06C14.1118 0.00236135 14.4253 0.0167086 14.7324 0.090825C15.0658 0.17134 15.3849 0.304262 15.6768 0.48438C16.0353 0.705655 16.3257 1.01049 16.6299 1.31739L20.7109 5.43458C21.0115 5.73785 21.3098 6.02793 21.5264 6.38379C21.7026 6.67334 21.8324 6.9887 21.9111 7.31836C21.9837 7.62235 21.9977 7.93282 22 8.24903V16.0498C22 16.589 22.0011 17.0687 21.9688 17.4648C21.9352 17.8756 21.8592 18.3061 21.6455 18.7256C21.3339 19.3369 20.8369 19.834 20.2256 20.1455C19.8062 20.3592 19.3765 20.4352 18.9658 20.4688C18.5696 20.5011 18.0892 20.5 17.5498 20.5H10.2002C9.66077 20.5 9.18039 20.5011 8.78418 20.4688C8.3735 20.4352 7.94376 20.3592 7.52441 20.1455C6.91307 19.834 6.41605 19.3369 6.10449 18.7256C5.89077 18.3061 5.81481 17.8756 5.78125 17.4648C5.74892 17.0687 5.75 16.589 5.75 16.0498V4.4502C5.75 3.9108 5.74888 3.43038 5.78125 3.03418C5.81483 2.62353 5.89083 2.19375 6.10449 1.77442C6.41605 1.16307 6.91306 0.666049 7.52441 0.354497C7.94376 0.140835 8.37351 0.0648355 8.78418 0.0312547C9.18039 -0.00111693 9.66077 4.69986e-06 10.2002 4.71301e-06H13.792ZM12.5 8.33399C12.5 8.89373 12.5004 9.17385 12.6094 9.3877C12.7052 9.57565 12.8579 9.72839 13.0459 9.82422C13.2598 9.93319 13.5398 9.9336 14.0996 9.9336H19.5V8.56739C19.5 8.02325 19.492 7.95196 19.4795 7.89942C19.4613 7.82339 19.4312 7.75038 19.3906 7.6836C19.3625 7.63743 19.3183 7.58148 18.9346 7.19434L14.8545 3.07715C14.4661 2.68522 14.4098 2.64003 14.3633 2.61133C14.2961 2.56993 14.2222 2.53904 14.1455 2.52051C14.0924 2.50775 14.02 2.50001 13.4697 2.5H12.5V8.33399Z" fill="black"/>
</svg>
