<svg width="24" height="24" viewBox="0 0 24 24" fill="none" xmlns="http://www.w3.org/2000/svg">
<path d="M5.51758 3.01173C5.5024 3.29944 5.50015 3.63197 5.5 4.01173C5.42045 4.01516 5.34597 4.01972 5.27637 4.0254C4.97457 4.05011 4.80046 4.09618 4.66895 4.1631C4.38686 4.30692 4.15645 4.53723 4.0127 4.81935C3.9458 4.9509 3.89969 5.12489 3.875 5.42677C3.84981 5.73518 3.84961 6.13197 3.84961 6.70021V16.0996C3.84961 17.2279 3.8499 18.0446 3.90234 18.6865C3.95431 19.3225 4.05541 19.7433 4.23145 20.0889C4.56694 20.7473 5.10237 21.2826 5.76074 21.6182C6.10625 21.7942 6.52724 21.8953 7.16309 21.9473C7.80494 21.9997 8.62185 22 9.75 22H15.6494C16.2175 22 16.6145 21.9998 16.9229 21.9746C17.2247 21.9499 17.3987 21.9038 17.5303 21.8369C17.8124 21.6931 18.0427 21.4628 18.1865 21.1807C18.2395 21.0766 18.2781 20.9457 18.3047 20.7461C18.5331 20.7426 18.7396 20.7359 18.9248 20.7207C19.059 20.7097 19.1898 20.6911 19.3184 20.668C19.2881 21.0266 19.2261 21.3424 19.0771 21.6348C18.8375 22.1051 18.4547 22.4879 17.9844 22.7276C17.6884 22.8783 17.3681 22.941 17.0039 22.9707C16.6454 23 16.201 23 15.6494 23H9.75C8.63849 23 7.77399 22.9999 7.08203 22.9434C6.38432 22.8863 5.81658 22.7696 5.30664 22.5098C4.46006 22.0783 3.77122 21.3896 3.33984 20.543C3.08005 20.033 2.96326 19.4654 2.90625 18.7676C2.84973 18.0756 2.84961 17.2113 2.84961 16.0996V6.70021C2.84961 6.14846 2.84961 5.70429 2.87891 5.34572C2.90867 4.98146 2.97132 4.66128 3.12207 4.36525C3.3617 3.89497 3.7446 3.51216 4.21484 3.27248C4.51082 3.12171 4.83114 3.05909 5.19531 3.02931C5.29572 3.02111 5.40327 3.01599 5.51758 3.01173Z" fill="black"/>
<path fill-rule="evenodd" clip-rule="evenodd" d="M13.4697 0.500014C13.9379 0.500014 14.2539 0.497227 14.5566 0.570327C14.8131 0.63226 15.0587 0.733544 15.2832 0.872084C15.5482 1.03563 15.7681 1.26323 16.0977 1.59572L20.1777 5.7129C20.5032 6.04132 20.7257 6.26054 20.8857 6.52345C21.0213 6.74625 21.1211 6.9895 21.1816 7.24318C21.253 7.54253 21.25 7.85506 21.25 8.3174V15.7998C21.25 16.3516 21.25 16.7957 21.2207 17.1543C21.1909 17.5186 21.1284 17.8387 20.9775 18.1348C20.7379 18.6052 20.3552 18.9879 19.8848 19.2276C19.5887 19.3784 19.2686 19.4409 18.9043 19.4707C18.5457 19.5 18.1016 19.5 17.5498 19.5H10.2002C9.6484 19.5 9.20429 19.5 8.8457 19.4707C8.48137 19.4409 8.16132 19.3784 7.86523 19.2276C7.39485 18.9879 7.01214 18.6052 6.77246 18.1348C6.62165 17.8387 6.55907 17.5186 6.5293 17.1543C6.50001 16.7957 6.5 16.3516 6.5 15.7998V4.20021C6.5 3.64845 6.5 3.20429 6.5293 2.84572C6.55907 2.48141 6.62165 2.16132 6.77246 1.86525C7.01215 1.39487 7.39485 1.01215 7.86523 0.772475C8.16132 0.621659 8.48137 0.559079 8.8457 0.529311C9.20429 0.500013 9.6484 0.500014 10.2002 0.500014H13.4697ZM10.2002 1.50001C9.6319 1.50001 9.23518 1.50021 8.92676 1.5254C8.62473 1.55011 8.45091 1.59616 8.31934 1.6631C8.03712 1.8069 7.8069 2.03714 7.66309 2.31935C7.59614 2.45092 7.5501 2.62477 7.52539 2.92677C7.50019 3.23518 7.5 3.63195 7.5 4.20021V15.7998C7.5 16.3681 7.5002 16.7648 7.52539 17.0733C7.55009 17.3752 7.59615 17.5491 7.66309 17.6807C7.80689 17.9629 8.03711 18.1931 8.31934 18.3369C8.45091 18.4039 8.62473 18.4499 8.92676 18.4746C9.23518 18.4998 9.6319 18.5 10.2002 18.5H17.5498C18.1181 18.5 18.5148 18.4998 18.8232 18.4746C19.1253 18.4499 19.2991 18.4039 19.4307 18.3369C19.7129 18.1931 19.9431 17.9629 20.0869 17.6807C20.1539 17.5491 20.1999 17.3753 20.2246 17.0733C20.2498 16.7648 20.25 16.3681 20.25 15.7998V9.18361H14.8496C14.578 9.18361 14.3441 9.18365 14.1523 9.16798C13.9548 9.15183 13.7584 9.11589 13.5693 9.01955C13.2871 8.87573 13.0569 8.6465 12.9131 8.36427C12.8169 8.1753 12.7818 7.97869 12.7656 7.78126C12.75 7.58957 12.75 7.35551 12.75 7.084V1.50001H10.2002ZM13.75 7.084C13.75 7.37165 13.7502 7.55771 13.7617 7.69923C13.7728 7.83451 13.7921 7.88534 13.8047 7.91017C13.8526 8.00423 13.9294 8.08098 14.0234 8.12892C14.0483 8.14152 14.0991 8.16084 14.2344 8.17189C14.3759 8.18342 14.5619 8.18361 14.8496 8.18361H20.249C20.2482 7.77531 20.2433 7.61827 20.209 7.47462C20.1726 7.32256 20.1125 7.17655 20.0312 7.04298C19.9466 6.90407 19.8262 6.77771 19.4678 6.41603L15.3877 2.29982C15.0246 1.93345 14.8979 1.81014 14.7578 1.72365C14.6232 1.64058 14.476 1.57917 14.3223 1.54201C14.1954 1.51137 14.0583 1.50513 13.75 1.50294V7.084Z" fill="black"/>
</svg>
