<svg width="24" height="24" viewBox="0 0 24 24" fill="none" xmlns="http://www.w3.org/2000/svg">
<path d="M5.75 17.0001C5.75 16.5859 5.41421 16.2501 5 16.2501C4.58579 16.2501 4.25 16.5859 4.25 17.0001V18.2501H2.99964C2.58543 18.2501 2.24964 18.5859 2.24964 19.0001C2.24964 19.4143 2.58543 19.7501 2.99964 19.7501H4.25V21C4.25 21.4142 4.58579 21.75 5 21.75C5.41421 21.75 5.75 21.4142 5.75 21V19.7501H6.99951C7.41373 19.7501 7.74951 19.4143 7.74951 19.0001C7.74951 18.5859 7.41373 18.2501 6.99951 18.2501H5.75V17.0001Z" fill="black"/>
<path fill-rule="evenodd" clip-rule="evenodd" d="M0.0512986 17.515C0 17.8388 0 18.2259 0 19.0001C0 19.7743 0 20.1614 0.0512986 20.4852C0.33368 22.2681 1.73197 23.6664 3.51486 23.9488C3.83874 24.0001 4.22583 24.0001 5 24.0001C5.77417 24.0001 6.16126 24.0001 6.48514 23.9488C8.26803 23.6664 9.66632 22.2681 9.9487 20.4852C10 20.1614 10 19.7743 10 19.0001C10 18.2259 10 17.8388 9.9487 17.515C9.66632 15.7321 8.26803 14.3338 6.48514 14.0514C6.16126 14.0001 5.77417 14.0001 5 14.0001C4.22583 14.0001 3.83874 14.0001 3.51486 14.0514C1.73197 14.3338 0.33368 15.7321 0.0512986 17.515ZM3.74951 22.4673C3.9274 22.4954 4.16851 22.5001 5 22.5001C5.83149 22.5001 6.0726 22.4954 6.25049 22.4673C7.39154 22.2865 8.28644 21.3916 8.46717 20.2506C8.49535 20.0727 8.5 19.8316 8.5 19.0001C8.5 18.1686 8.49535 17.9275 8.46717 17.7496C8.28644 16.6086 7.39154 15.7137 6.25049 15.5329C6.0726 15.5048 5.83149 15.5001 5 15.5001C4.16851 15.5001 3.9274 15.5048 3.74951 15.5329C2.60846 15.7137 1.71356 16.6086 1.53283 17.7496C1.50466 17.9275 1.5 18.1686 1.5 19.0001C1.5 19.8316 1.50466 20.0727 1.53283 20.2506C1.71356 21.3916 2.60846 22.2865 3.74951 22.4673Z" fill="black"/>
<path fill-rule="evenodd" clip-rule="evenodd" d="M10.0001 23.0001C10.4357 22.4196 10.7479 21.7403 10.899 21.0001H16.8C17.3765 21.0001 17.7488 20.9993 18.0322 20.9762C18.3038 20.954 18.4045 20.9163 18.454 20.8911C18.6421 20.7952 18.7951 20.6423 18.891 20.4541C18.9162 20.4046 18.9539 20.3039 18.9761 20.0323C18.9992 19.7489 19 19.3767 19 18.8001L19 10.6837L14.0681 10.6837C13.8157 10.6837 13.5699 10.6837 13.3618 10.6667C13.1332 10.648 12.8634 10.604 12.592 10.4657C12.2157 10.2739 11.9097 9.96797 11.718 9.59165C11.5797 9.32022 11.5356 9.05049 11.5169 8.8219C11.4999 8.61375 11.5 8.36797 11.5 8.1156L11.5 3.0001H7.69999C7.12343 3.0001 6.75116 3.00088 6.46782 3.02403C6.19616 3.04623 6.09544 3.0839 6.046 3.1091C5.85783 3.20497 5.70485 3.35795 5.60898 3.54611C5.58379 3.59556 5.54611 3.69628 5.52391 3.96794C5.50076 4.25128 5.49999 4.62355 5.49999 5.2001L5.49999 13.0004C5.37844 13 5.25066 13.0001 5.11579 13.0001H4.88427C4.31916 13 3.87839 12.9998 3.49998 13.0316L3.49998 5.16156C3.49997 4.63444 3.49995 4.17963 3.53056 3.80507C3.56286 3.40973 3.63417 3.01651 3.82697 2.63813C4.11459 2.07364 4.57353 1.6147 5.13801 1.32708C5.51639 1.13429 5.90961 1.06297 6.30496 1.03067C6.67953 1.00007 7.13429 1.00008 7.66144 1.0001L12.8034 1.00005C13.2128 0.999668 13.5737 0.99933 13.9241 1.08394C14.2318 1.15826 14.5259 1.28084 14.7953 1.44711C15.102 1.63638 15.3559 1.89297 15.6437 2.184L19.8414 6.41944C20.1264 6.70642 20.3776 6.95945 20.5628 7.26382C20.7255 7.53121 20.8454 7.82242 20.918 8.12687C21.0007 8.47342 21.0004 8.83 21 9.23443L21 18.8386C21 19.3658 21 19.8205 20.9694 20.1951C20.9371 20.5905 20.8658 20.9837 20.673 21.3621C20.3854 21.9266 19.9264 22.3855 19.362 22.6731C18.9836 22.8659 18.5904 22.9372 18.195 22.9695C17.8204 23.0001 17.3657 23.0001 16.8386 23.0001H10.0001ZM18.9876 8.68367C18.9837 8.64435 18.9788 8.61702 18.9727 8.59115C18.9484 8.48966 18.9085 8.3926 18.8543 8.30346C18.8073 8.22631 18.7381 8.14745 18.3626 7.76855L14.2822 3.65145C13.902 3.26783 13.8227 3.19708 13.745 3.1491C13.6685 3.10192 13.5861 3.06529 13.5 3.04015V8.08367C13.5 8.38019 13.5008 8.54245 13.5103 8.65903L13.5114 8.67222L13.5246 8.67336C13.6412 8.68289 13.8035 8.68367 14.1 8.68367L18.9876 8.68367Z" fill="black"/>
</svg>
