<svg width="24" height="24" viewBox="0 0 24 24" fill="none" xmlns="http://www.w3.org/2000/svg">
<path d="M5.25 16.5496C5.25 17.093 5.24895 17.5615 5.28027 17.9451C5.31258 18.3403 5.3845 18.7339 5.57715 19.1121C5.8647 19.6763 6.32354 20.1351 6.8877 20.4227C7.26598 20.6154 7.65945 20.6872 8.05469 20.7195C8.43835 20.7509 8.90665 20.7498 9.4502 20.7498H17.5498C17.6517 20.7498 17.7511 20.748 17.8477 20.7478C17.8438 21.5775 17.8185 22.0415 17.6318 22.408C17.4401 22.7842 17.134 23.0903 16.7578 23.282C16.3301 23.4999 15.77 23.4998 14.6504 23.4998H8.75C6.51006 23.4998 5.38979 23.5001 4.53418 23.0643C3.78172 22.6808 3.16962 22.0686 2.78613 21.3162C2.35025 20.4606 2.34961 19.3395 2.34961 17.0994V7.7C2.34961 6.58004 2.35039 6.01939 2.56836 5.5916C2.76012 5.21551 3.06623 4.90923 3.44238 4.71757C3.83012 4.52021 4.32664 4.50251 5.25 4.50078V16.5496Z" fill="black"/>
<path fill-rule="evenodd" clip-rule="evenodd" d="M13.4697 0.249801C13.9259 0.2498 14.2769 0.245272 14.6152 0.32695C14.8973 0.395067 15.1671 0.507585 15.4141 0.659957C15.7102 0.842745 15.9544 1.09581 16.2754 1.41972L20.3555 5.53593C20.6727 5.85598 20.9207 6.09948 21.0996 6.39336C21.2486 6.63829 21.3582 6.90551 21.4248 7.18437C21.5047 7.51902 21.5 7.86663 21.5 8.31718V15.7996C21.5 16.3471 21.501 16.8035 21.4707 17.1746C21.4397 17.5542 21.3718 17.9108 21.2002 18.2478C20.9366 18.7652 20.5154 19.1863 19.998 19.45C19.6609 19.6217 19.3045 19.6885 18.9248 19.7195C18.5537 19.7499 18.0975 19.7498 17.5498 19.7498H10.2002C9.65252 19.7498 9.19632 19.7499 8.8252 19.7195C8.44551 19.6885 8.08906 19.6217 7.75195 19.45C7.23457 19.1863 6.81343 18.7652 6.5498 18.2478C6.37818 17.9108 6.31032 17.5542 6.2793 17.1746C6.249 16.8035 6.25 16.3471 6.25 15.7996V4.2C6.25 3.65246 6.24898 3.19605 6.2793 2.825C6.31034 2.44538 6.37814 2.0888 6.5498 1.75175C6.81346 1.23442 7.23459 0.813214 7.75195 0.549606C8.08906 0.377942 8.44551 0.310126 8.8252 0.279098C9.19632 0.248778 9.65253 0.249801 10.2002 0.249801H13.4697ZM12.5 8.08379C12.5 8.64347 12.5005 8.92365 12.6094 9.1375C12.7052 9.32545 12.858 9.47817 13.0459 9.57402C13.2598 9.68299 13.5398 9.6834 14.0996 9.6834H20V8.31718C20 7.79606 19.9952 7.65605 19.9658 7.533C19.9355 7.4063 19.8851 7.28492 19.8174 7.17363C19.7516 7.0656 19.6569 6.96273 19.29 6.59257L15.21 2.47539C14.8383 2.10041 14.7349 2.00355 14.626 1.93632C14.5139 1.8672 14.3917 1.81591 14.2637 1.78496C14.1392 1.75492 13.9977 1.7498 13.4697 1.7498H12.5V8.08379Z" fill="black"/>
</svg>
