<svg width="24" height="24" viewBox="0 0 24 24" fill="none" xmlns="http://www.w3.org/2000/svg">
<path d="M4.75 16.7998C4.75 17.3392 4.74889 17.8196 4.78125 18.2158C4.81483 18.6265 4.89087 19.0563 5.10449 19.4756C5.41604 20.0869 5.91308 20.5839 6.52441 20.8955C6.94375 21.1092 7.37352 21.1852 7.78418 21.2188C8.18038 21.2511 8.66078 21.25 9.2002 21.25H17.5498C17.6488 21.25 17.7459 21.2482 17.8408 21.2481C17.8247 21.7782 17.7772 22.1228 17.6318 22.4082C17.4401 22.7844 17.134 23.0905 16.7578 23.2822C16.3301 23.5001 15.77 23.5 14.6504 23.5H8.75C6.51008 23.5 5.38978 23.5003 4.53418 23.0645C3.78171 22.681 3.16963 22.0688 2.78613 21.3164C2.35021 20.4608 2.34961 19.3397 2.34961 17.0996V7.7002C2.34961 6.58017 2.35038 6.01961 2.56836 5.5918C2.76012 5.21566 3.06619 4.90946 3.44238 4.71778C3.75348 4.5594 4.13457 4.51569 4.75 4.50391V16.7998Z" fill="black"/>
<path fill-rule="evenodd" clip-rule="evenodd" d="M13.793 4.40091e-06C14.1063 0.00247614 14.3935 0.0163155 14.6738 0.0839888C14.9815 0.158287 15.2756 0.281087 15.5449 0.44727C15.8724 0.649339 16.1404 0.927659 16.4531 1.24317L20.5332 5.36036C20.842 5.67198 21.1148 5.93887 21.3125 6.26368C21.4752 6.53101 21.5953 6.82258 21.668 7.12696C21.7562 7.49685 21.75 7.87865 21.75 8.31739V15.7998C21.75 16.3433 21.7511 16.8117 21.7197 17.1953C21.6874 17.5905 21.6155 17.9841 21.4229 18.3623C21.1353 18.9265 20.6765 19.3853 20.1123 19.6729C19.734 19.8656 19.3406 19.9374 18.9453 19.9697C18.5616 20.0011 18.0934 20 17.5498 20H10.2002C9.65665 20 9.18836 20.0011 8.80469 19.9697C8.40944 19.9374 8.01599 19.8656 7.6377 19.6729C7.07352 19.3853 6.61471 18.9265 6.32715 18.3623C6.13447 17.9841 6.06258 17.5905 6.03027 17.1953C5.99894 16.8117 6 16.3433 6 15.7998V4.2002C6 3.65674 5.99893 3.18831 6.03027 2.80469C6.06259 2.40951 6.13443 2.01593 6.32715 1.6377C6.61473 1.07356 7.07353 0.614698 7.6377 0.327153C8.01597 0.134434 8.40946 0.0625866 8.80469 0.0302778C9.18835 -0.00106807 9.65665 4.39008e-06 10.2002 4.40091e-06H13.793ZM12.5 8.08399C12.5 8.64371 12.5005 8.92385 12.6094 9.1377C12.7052 9.32566 12.858 9.47838 13.0459 9.57422C13.2598 9.68319 13.5398 9.6836 14.0996 9.6836H19.75V8.31739C19.75 7.78412 19.7436 7.67866 19.7227 7.59082C19.6985 7.48963 19.6585 7.39263 19.6045 7.30372C19.5575 7.22661 19.4876 7.14719 19.1123 6.76856L15.0322 2.65137C14.6526 2.26829 14.5728 2.19738 14.4951 2.14942C14.4053 2.09403 14.3066 2.05309 14.2041 2.02832C14.1154 2.00697 14.0089 2.00001 13.4697 2H12.5V8.08399Z" fill="black"/>
</svg>
