<svg width="24" height="24" viewBox="0 0 24 24" fill="none" xmlns="http://www.w3.org/2000/svg">
<path fill-rule="evenodd" clip-rule="evenodd" d="M0 19.0001C-3.37851e-08 18.2259 -4.84288e-08 17.8388 0.0512988 17.515C0.33368 15.7321 1.73197 14.3338 3.51486 14.0514C3.83874 14.0001 4.22583 14.0001 5 14.0001C5.77417 14.0001 6.16126 14.0001 6.48514 14.0514C8.26803 14.3338 9.66632 15.7321 9.9487 17.515C10 17.8388 10 18.2259 10 19.0001C10 19.7743 10 20.1614 9.9487 20.4853C9.66632 22.2681 8.26803 23.6664 6.48514 23.9488C6.16126 24.0001 5.77417 24.0001 5 24.0001C4.22583 24.0001 3.83874 24.0001 3.51486 23.9488C1.73197 23.6664 0.33368 22.2681 0.0512988 20.4853C4.84288e-08 20.1614 3.38951e-08 19.7743 0 19.0001ZM7.74951 19.0001C7.74951 18.5859 7.41373 18.2501 6.99951 18.2501H2.99964C2.58543 18.2501 2.24964 18.5859 2.24964 19.0001C2.24964 19.4143 2.58543 19.7501 2.99964 19.7501H6.99951C7.41373 19.7501 7.74951 19.4143 7.74951 19.0001Z" fill="black"/>
<path fill-rule="evenodd" clip-rule="evenodd" d="M11.9308 20.7242C11.7912 21.65 11.4495 22.5074 10.9517 23.2502H16.8459C17.3666 23.2502 17.8304 23.2502 18.2154 23.2188C18.6262 23.1852 19.056 23.1097 19.4755 22.8959C20.087 22.5843 20.5842 22.0872 20.8958 21.4756C21.1095 21.0561 21.185 20.6264 21.2186 20.2155C21.2501 19.8306 21.25 19.3668 21.25 18.846L21.2501 9.22693C21.2506 8.83146 21.2511 8.44554 21.1612 8.0689C21.0825 7.73907 20.9527 7.4236 20.7764 7.13392C20.5751 6.80313 20.3031 6.52938 20.0243 6.24887L15.816 2.00262C15.5346 1.71795 15.26 1.44013 14.9266 1.23442C14.6347 1.05429 14.3162 0.9215 13.9828 0.840981C13.602 0.749028 13.2114 0.749547 12.8111 0.750081L7.65416 0.750159C7.13337 0.750133 6.66957 0.75011 6.28462 0.78156C5.87381 0.815126 5.44403 0.890645 5.02453 1.10439C4.41301 1.41598 3.91582 1.91317 3.60423 2.52469C3.39049 2.94419 3.31497 3.37397 3.2814 3.78478C3.24995 4.16969 3.24997 4.63345 3.25 5.15418L3.25 12.0733L3.27594 12.0694C3.73991 11.9994 4.25625 11.9997 4.86856 12.0001H5.13145C5.74375 11.9997 6.26011 11.9994 6.72407 12.0694C9.41391 12.4748 11.5253 14.5862 11.9308 17.276C12.0007 17.74 12.0004 18.2563 12.0001 18.8686V19.1315C12.0004 19.7438 12.0007 20.2602 11.9308 20.7242ZM12.75 3.25017C13.2744 3.25047 13.3438 3.25853 13.3959 3.27112C13.4728 3.2897 13.5464 3.32034 13.6137 3.36191C13.6602 3.39062 13.716 3.43537 14.1046 3.82749L18.185 7.94459C18.5689 8.33188 18.6126 8.3873 18.6407 8.43348C18.6814 8.50033 18.7113 8.57313 18.7295 8.64924C18.7421 8.70182 18.75 8.77198 18.75 9.31726V9.43367L14.1 9.43367C13.8159 9.43367 13.6178 9.43348 13.4636 9.42088C13.3123 9.40852 13.2253 9.38547 13.1595 9.35193C13.0184 9.28002 12.9037 9.16529 12.8317 9.02416C12.7982 8.95833 12.7752 8.8714 12.7628 8.72011C12.7502 8.5659 12.75 8.36782 12.75 8.08367L12.75 3.25017Z" fill="black"/>
</svg>
