<svg width="24" height="24" viewBox="0 0 24 24" fill="none" xmlns="http://www.w3.org/2000/svg">
<path d="M5.75195 3.75391C5.56502 3.75751 5.40182 3.76454 5.25684 3.77637C4.93902 3.80237 4.72741 3.85244 4.55469 3.94044C4.22574 4.10819 3.95773 4.3761 3.79004 4.70508C3.70206 4.87784 3.65195 5.08933 3.62598 5.40723C3.5998 5.72811 3.59961 6.13636 3.59961 6.7002V17.7002C3.59961 18.5443 3.59981 19.1627 3.63965 19.6504C3.67924 20.1347 3.75706 20.4685 3.89941 20.7481C4.16301 21.2654 4.58426 21.6865 5.10156 21.9502C5.38111 22.0926 5.71501 22.1704 6.19922 22.21C6.68682 22.2498 7.30551 22.25 8.14941 22.25H15.6494C16.2131 22.25 16.6216 22.2498 16.9424 22.2236C17.2602 22.1977 17.4718 22.1475 17.6445 22.0596C17.9736 21.8919 18.2414 21.6239 18.4092 21.2949C18.4972 21.1222 18.5473 20.9108 18.5732 20.5928C18.576 20.559 18.5769 20.5241 18.5791 20.4883C18.6947 20.484 18.8029 20.479 18.9043 20.4707C18.9648 20.4658 19.0238 20.4572 19.082 20.4502C19.0787 20.5139 19.0761 20.5752 19.0713 20.6338C19.0428 20.9827 18.9844 21.2665 18.8545 21.5215C18.6388 21.9448 18.2944 22.2892 17.8711 22.5049C17.6162 22.6347 17.3322 22.6932 16.9834 22.7217C16.6374 22.7499 16.2051 22.75 15.6494 22.75H8.14941C7.31391 22.75 6.67181 22.7499 6.15918 22.708C5.64365 22.6659 5.23592 22.5799 4.87402 22.3955C4.2628 22.0839 3.76561 21.5869 3.4541 20.9756C3.26972 20.6137 3.18373 20.2061 3.1416 19.6904C3.09974 19.1777 3.09961 18.5359 3.09961 17.7002V6.7002C3.09961 6.14441 3.09967 5.71222 3.12793 5.36622C3.15643 5.01738 3.21487 4.73348 3.34473 4.47852C3.56039 4.05528 3.90492 3.71084 4.32812 3.49512C4.58304 3.36525 4.86706 3.30685 5.21582 3.27833C5.37678 3.26518 5.55678 3.25866 5.75879 3.25489C5.75428 3.40846 5.75282 3.57446 5.75195 3.75391Z" fill="black"/>
<path fill-rule="evenodd" clip-rule="evenodd" d="M13.4697 0.750007C13.9498 0.750006 14.231 0.748033 14.498 0.812507C14.7288 0.868228 14.9494 0.960339 15.1514 1.08497C15.3852 1.22925 15.5819 1.43046 15.9199 1.77149L20 5.88868C20.3337 6.22542 20.5307 6.42145 20.6719 6.65333C20.7939 6.85382 20.884 7.07251 20.9385 7.30079C21.0015 7.56497 21 7.84308 21 8.31739V15.7998C21 16.3557 20.9999 16.7878 20.9717 17.1338C20.9432 17.4827 20.8848 17.7665 20.7549 18.0215C20.5392 18.4448 20.1948 18.7892 19.7715 19.0049C19.5165 19.1348 19.2327 19.1932 18.8838 19.2217C18.5378 19.2499 18.1057 19.25 17.5498 19.25H10.2002C9.64435 19.25 9.21223 19.2499 8.86621 19.2217C8.51728 19.1932 8.23352 19.1348 7.97852 19.0049C7.55517 18.7892 7.21083 18.4448 6.99512 18.0215C6.8652 17.7665 6.80683 17.4827 6.77832 17.1338C6.75006 16.7878 6.75 16.3557 6.75 15.7998V4.2002C6.75 3.64439 6.75006 3.21222 6.77832 2.86622C6.80683 2.51731 6.8652 2.23352 6.99512 1.97852C7.21083 1.55519 7.55517 1.21083 7.97852 0.995124C8.23353 0.865205 8.51728 0.806836 8.86621 0.778327C9.21223 0.750066 9.64435 0.750007 10.2002 0.750007H13.4697ZM10.2002 1.25001C9.6363 1.25001 9.22812 1.25019 8.90723 1.27637C8.5892 1.30236 8.37787 1.3524 8.20508 1.44044C7.87599 1.60817 7.60818 1.87601 7.44043 2.20508C7.35239 2.37787 7.30235 2.58923 7.27637 2.90723C7.25018 3.22811 7.25 3.63634 7.25 4.2002V15.7998C7.25 16.3637 7.25018 16.7719 7.27637 17.0928C7.30232 17.4105 7.35257 17.6213 7.44043 17.794C7.60817 18.1232 7.8759 18.3918 8.20508 18.5596C8.37787 18.6476 8.58919 18.6977 8.90723 18.7236C9.22812 18.7498 9.6363 18.75 10.2002 18.75H17.5498C18.1137 18.75 18.5219 18.7498 18.8428 18.7236C19.1608 18.6977 19.3721 18.6476 19.5449 18.5596C19.8741 18.3918 20.1418 18.1232 20.3096 17.794C20.3974 17.6213 20.4477 17.4105 20.4736 17.0928C20.4998 16.7719 20.5 16.3637 20.5 15.7998V8.9336H14.8496C14.5739 8.9336 14.3521 8.93359 14.1729 8.91895C13.9906 8.90406 13.8307 8.87233 13.6826 8.79688C13.4475 8.67707 13.2565 8.48606 13.1367 8.25098C13.0613 8.10297 13.0295 7.94288 13.0146 7.76075C13 7.58158 13 7.3596 13 7.08399V1.25001H10.2002ZM13.5 7.08399C13.5 7.36767 13.5001 7.56566 13.5127 7.71973C13.525 7.87094 13.5485 7.95859 13.582 8.02442C13.6539 8.1652 13.7684 8.27973 13.9092 8.35157C13.975 8.38511 14.0626 8.40854 14.2139 8.42091C14.368 8.43347 14.5659 8.4336 14.8496 8.4336H20.5V8.31739C20.5 7.81948 20.4984 7.61063 20.4521 7.417C20.4098 7.23943 20.34 7.06905 20.2451 6.91309C20.1416 6.74314 19.9959 6.59374 19.6455 6.24024L15.5645 2.12305C15.2099 1.76529 15.06 1.61647 14.8887 1.51075C14.7316 1.41385 14.5602 1.34218 14.3809 1.29883C14.1891 1.25252 13.9824 1.25009 13.5 1.25001V7.08399Z" fill="black"/>
</svg>
