<svg width="24" height="24" viewBox="0 0 24 24" fill="none" xmlns="http://www.w3.org/2000/svg">
<path d="M6.25 16.0497C6.25 16.4698 6.25021 16.8114 6.26172 17.0966C6.26593 17.2055 6.27144 17.308 6.2793 17.4042C6.30907 17.7685 6.37166 18.0886 6.52246 18.3846C6.76214 18.855 7.14485 19.2377 7.61523 19.4774C7.91132 19.6282 8.23137 19.6908 8.5957 19.7206C8.95429 19.7499 9.3984 19.7499 9.9502 19.7499H17.5498C17.6535 19.7499 17.7534 19.7481 17.8496 19.7479V20.2997C17.8496 21.4197 17.8498 21.9803 17.6318 22.4081C17.4401 22.7843 17.134 23.0904 16.7578 23.2821C16.3301 23.5 15.77 23.4999 14.6504 23.4999H7.15039C5.47038 23.4999 4.63 23.4996 3.98828 23.1727C3.42388 22.8851 2.96438 22.4266 2.67676 21.8622C2.34982 21.2205 2.34961 20.38 2.34961 18.7001V7.70008C2.34961 6.58002 2.35038 6.0195 2.56836 5.59168C2.76012 5.21553 3.06618 4.90934 3.44238 4.71766C3.87013 4.49989 4.43017 4.49988 5.5498 4.49988H6.25V16.0497Z" fill="black"/>
<path fill-rule="evenodd" clip-rule="evenodd" d="M13.4697 0.749885C13.9498 0.749884 14.231 0.747908 14.498 0.812385C14.7288 0.868107 14.9494 0.960214 15.1514 1.08485C15.3852 1.22913 15.5819 1.43033 15.9199 1.77137L20 5.88856C20.3337 6.2253 20.5307 6.42133 20.6719 6.6532C20.7939 6.8537 20.884 7.07239 20.9385 7.30067C21.0015 7.56485 21 7.84296 21 8.31727V15.7997C21 16.3555 20.9999 16.7877 20.9717 17.1337C20.9432 17.4826 20.8848 17.7664 20.7549 18.0214C20.5392 18.4447 20.1948 18.7891 19.7715 19.0048C19.5165 19.1347 19.2327 19.1931 18.8838 19.2216C18.5378 19.2498 18.1057 19.2499 17.5498 19.2499H10.2002C9.64435 19.2499 9.21223 19.2498 8.86621 19.2216C8.51728 19.1931 8.23353 19.1347 7.97852 19.0048C7.55517 18.7891 7.21083 18.4447 6.99512 18.0214C6.86519 17.7664 6.80683 17.4826 6.77832 17.1337C6.75006 16.7877 6.75 16.3555 6.75 15.7997V4.20008C6.75 3.64427 6.75006 3.2121 6.77832 2.8661C6.80683 2.51718 6.8652 2.2334 6.99512 1.9784C7.21083 1.55506 7.55517 1.21071 7.97852 0.995002C8.23353 0.865084 8.51728 0.806714 8.86621 0.778205C9.21223 0.749944 9.64435 0.749885 10.2002 0.749885H13.4697ZM12.5 1.59949V8.08387C12.5 8.64363 12.5004 8.92372 12.6094 9.13758C12.7052 9.32554 12.8579 9.47826 13.0459 9.5741C13.2598 9.68307 13.5398 9.68348 14.0996 9.68348H20.4004C20.4346 9.68348 20.4678 9.68258 20.5 9.6825V8.31727C20.5 7.81936 20.4984 7.61051 20.4521 7.41688C20.4098 7.2393 20.34 7.06893 20.2451 6.91297C20.1416 6.74301 19.9959 6.59363 19.6455 6.24012L15.5645 2.12293C15.2099 1.76516 15.06 1.61635 14.8887 1.51063C14.7316 1.41373 14.5602 1.34206 14.3809 1.29871C14.1851 1.25144 13.9738 1.24988 13.4697 1.24988H12.5029C12.501 1.35292 12.5 1.46853 12.5 1.59949Z" fill="black"/>
</svg>
