<svg width="24" height="24" viewBox="0 0 24 24" fill="none" xmlns="http://www.w3.org/2000/svg">
<path d="M5.75 16.2997C5.75 16.8473 5.74899 17.3036 5.7793 17.6747C5.81033 18.0544 5.87813 18.4108 6.0498 18.7479C6.31345 19.2654 6.73454 19.6864 7.25195 19.9501C7.58909 20.1218 7.94547 20.1896 8.3252 20.2206C8.69632 20.2509 9.15252 20.2499 9.7002 20.2499H17.5498C17.653 20.2499 17.7529 20.2481 17.8496 20.2479V20.2997C17.8496 21.4197 17.8498 21.9803 17.6318 22.4081C17.4401 22.7843 17.134 23.0904 16.7578 23.2821C16.3301 23.5 15.77 23.4999 14.6504 23.4999H8.75C6.51007 23.4999 5.38979 23.5002 4.53418 23.0643C3.7817 22.6809 3.16963 22.0687 2.78613 21.3163C2.3502 20.4607 2.34961 19.3396 2.34961 17.0995V7.70009C2.34961 6.58006 2.35038 6.0195 2.56836 5.59169C2.76012 5.21555 3.06619 4.90934 3.44238 4.71767C3.87013 4.49991 4.43019 4.49989 5.5498 4.49989H5.75V16.2997Z" fill="black"/>
<path fill-rule="evenodd" clip-rule="evenodd" d="M13.4697 0.499892C13.9379 0.499892 14.2539 0.497106 14.5566 0.570204C14.8131 0.632136 15.0587 0.733429 15.2832 0.871962C15.5482 1.03551 15.7681 1.26312 16.0977 1.5956L20.1777 5.71278C20.5032 6.04119 20.7257 6.26043 20.8857 6.52333C21.0213 6.74611 21.1211 6.9894 21.1816 7.24306C21.253 7.5424 21.25 7.85498 21.25 8.31727V15.7997C21.25 16.3514 21.25 16.7956 21.2207 17.1542C21.1909 17.5185 21.1283 17.8386 20.9775 18.1347C20.7379 18.605 20.3551 18.9877 19.8848 19.2274C19.5887 19.3782 19.2686 19.4408 18.9043 19.4706C18.5457 19.4999 18.1016 19.4999 17.5498 19.4999H10.2002C9.64839 19.4999 9.20429 19.4999 8.8457 19.4706C8.48137 19.4408 8.16132 19.3782 7.86523 19.2274C7.39486 18.9877 7.01213 18.605 6.77246 18.1347C6.62167 17.8386 6.55907 17.5185 6.5293 17.1542C6.50001 16.7956 6.5 16.3514 6.5 15.7997V4.20009C6.5 3.64836 6.5 3.20415 6.5293 2.8456C6.55907 2.48131 6.62165 2.16118 6.77246 1.86513C7.01215 1.39478 7.39487 1.01202 7.86523 0.772353C8.16131 0.621549 8.48138 0.558956 8.8457 0.529189C9.20429 0.499892 9.6484 0.499892 10.2002 0.499892H13.4697ZM12.5 1.5995V8.08388C12.5 8.6436 12.5004 8.92374 12.6094 9.13759C12.7052 9.32554 12.8579 9.47827 13.0459 9.57411C13.2598 9.68308 13.5398 9.68349 14.0996 9.68349H20.25V8.31727C20.25 7.80757 20.2468 7.63287 20.209 7.4745C20.1726 7.32245 20.1125 7.17641 20.0312 7.04286C19.9466 6.90397 19.8262 6.77755 19.4678 6.41591L15.3877 2.2997C15.0246 1.93335 14.8979 1.81001 14.7578 1.72352C14.6232 1.64046 14.476 1.57905 14.3223 1.54188C14.1622 1.50323 13.9858 1.49989 13.4697 1.49989H12.501C12.5009 1.53208 12.5 1.56527 12.5 1.5995Z" fill="black"/>
</svg>
