<svg width="24" height="24" viewBox="0 0 24 24" fill="none" xmlns="http://www.w3.org/2000/svg">
<path d="M5.28028 2.80461C5.24893 3.18825 5.25 3.65662 5.25 4.20012V4.27922C4.995 4.30336 4.86764 4.34313 4.78223 4.38664C4.54729 4.50647 4.35611 4.69756 4.23633 4.93254C4.19024 5.02308 4.14747 5.16044 4.12403 5.44719C4.09986 5.74304 4.09961 6.12778 4.09961 6.70012V16.0995C4.09961 17.2319 4.09997 18.0366 4.15137 18.6659C4.20207 19.2864 4.29903 19.6711 4.45411 19.9755C4.76561 20.5868 5.26281 21.0839 5.87403 21.3954C6.17843 21.5505 6.56321 21.6474 7.1836 21.6982C7.81289 21.7496 8.61781 21.7499 9.75 21.7499H15.6494C16.2216 21.7499 16.6065 21.7497 16.9023 21.7255C17.189 21.7021 17.3265 21.6593 17.417 21.6132C17.652 21.4934 17.8431 21.3023 17.9629 21.0673C17.9732 21.0471 17.9824 21.024 17.9922 20.998C18.3512 20.9965 18.67 20.9921 18.9453 20.9697C19.147 20.9532 19.348 20.9257 19.5469 20.8779C19.5088 21.1822 19.4405 21.4718 19.2998 21.748C19.0362 22.2653 18.615 22.6865 18.0977 22.9501C17.7606 23.1217 17.404 23.1896 17.0244 23.2206C16.6534 23.2509 16.1969 23.2499 15.6494 23.2499H9.75C8.64257 23.2499 7.76604 23.2508 7.06153 23.1933C6.34841 23.135 5.74437 23.0131 5.19336 22.7323C4.29975 22.2769 3.57253 21.5498 3.11719 20.6562C2.83651 20.1051 2.71453 19.5012 2.65625 18.788C2.59871 18.0834 2.59961 17.2071 2.59961 16.0995V6.70012C2.59961 6.15251 2.59859 5.69622 2.62891 5.32512C2.65994 4.94549 2.72779 4.58894 2.89942 4.25188C3.16302 3.73457 3.58429 3.31338 4.10157 3.04973C4.43858 2.87809 4.79524 2.81027 5.17481 2.77922C5.21 2.77635 5.24648 2.7757 5.28321 2.77336C5.2823 2.78376 5.28113 2.79421 5.28028 2.80461Z" fill="black"/>
<path fill-rule="evenodd" clip-rule="evenodd" d="M13.4697 0.249923C13.9259 0.249923 14.2769 0.245392 14.6152 0.327072C14.8973 0.395193 15.1671 0.507695 15.4141 0.66008C15.7102 0.842877 15.9543 1.0959 16.2754 1.41985L20.3555 5.53606C20.6727 5.85613 20.9207 6.09956 21.0996 6.39348C21.2487 6.63844 21.3582 6.90559 21.4248 7.18449C21.5047 7.51918 21.5 7.86669 21.5 8.31731V15.7997C21.5 16.3473 21.501 16.8036 21.4707 17.1747C21.4397 17.5544 21.3719 17.9109 21.2002 18.248C20.9366 18.7654 20.5155 19.1865 19.9981 19.4501C19.6609 19.6218 19.3045 19.6886 18.9248 19.7197C18.5537 19.75 18.0975 19.7499 17.5498 19.7499H10.2002C9.65253 19.7499 9.19632 19.75 8.8252 19.7197C8.44552 19.6886 8.08906 19.6218 7.75196 19.4501C7.23456 19.1865 6.81344 18.7654 6.54981 18.248C6.37815 17.9109 6.31033 17.5544 6.2793 17.1747C6.24899 16.8036 6.25 16.3473 6.25 15.7997V4.20012C6.25 3.65253 6.24898 3.1962 6.2793 2.82512C6.31034 2.44546 6.37813 2.08896 6.54981 1.75188C6.81347 1.2345 7.23456 0.813355 7.75196 0.549728C8.08908 0.37804 8.44549 0.31025 8.8252 0.27922C9.19632 0.248898 9.65253 0.249923 10.2002 0.249923H13.4697ZM10.2002 1.74992C9.62778 1.74992 9.24315 1.75016 8.94727 1.77434C8.66034 1.79779 8.52316 1.84052 8.43262 1.88664C8.19755 2.00644 8.00655 2.19749 7.88672 2.43254C7.8406 2.52306 7.79788 2.66032 7.77442 2.94719C7.75025 3.24303 7.75 3.6278 7.75 4.20012V15.7997C7.75 16.372 7.75026 16.7568 7.77442 17.0527C7.79787 17.3394 7.84063 17.4768 7.88672 17.5673C8.00654 17.8024 8.19755 17.9934 8.43262 18.1132C8.52316 18.1593 8.66029 18.202 8.94727 18.2255C9.24315 18.2497 9.62778 18.2499 10.2002 18.2499H17.5498C18.1222 18.2499 18.5069 18.2497 18.8027 18.2255C19.0897 18.202 19.2268 18.1593 19.3174 18.1132C19.5525 17.9934 19.7435 17.8024 19.8633 17.5673C19.9094 17.4768 19.9521 17.3395 19.9756 17.0527C19.9997 16.7568 20 16.372 20 15.7997V9.43352H14.8496C14.5821 9.43352 14.3361 9.43361 14.1318 9.41692C13.9188 9.39949 13.6853 9.36037 13.4551 9.24309C13.1259 9.0753 12.8582 8.80665 12.6904 8.47746C12.5734 8.24752 12.534 8.0145 12.5166 7.80168C12.4999 7.59747 12.5 7.35128 12.5 7.08391V1.74992H10.2002ZM14 7.08391C14 7.37586 14.0002 7.55057 14.0107 7.67961C14.0206 7.79959 14.0357 7.81317 14.0273 7.7968C14.0513 7.84381 14.0897 7.8822 14.1367 7.90617C14.1205 7.89794 14.1341 7.91296 14.2539 7.92277C14.383 7.93332 14.5575 7.93352 14.8496 7.93352H19.9961C19.9927 7.71156 19.9861 7.61827 19.9658 7.53313C19.9356 7.40638 19.8851 7.28508 19.8174 7.17375C19.7516 7.06569 19.657 6.96294 19.29 6.5927L15.21 2.47551C14.8383 2.10049 14.7349 2.00368 14.626 1.93645C14.5139 1.86731 14.3917 1.81604 14.2637 1.78508C14.1983 1.76931 14.1282 1.76068 14 1.75578V7.08391Z" fill="black"/>
</svg>
