<svg width="24" height="24" viewBox="0 0 24 24" fill="none" xmlns="http://www.w3.org/2000/svg">
<path fill-rule="evenodd" clip-rule="evenodd" d="M13.8067 1.56988C13.5165 1.4998 13.214 1.49988 12.777 1.50001L7.6786 1.50002C7.1367 1.50002 6.69963 1.50001 6.34569 1.52893C5.98126 1.55871 5.66117 1.62161 5.36502 1.77251C4.89462 2.01219 4.51217 2.39464 4.27248 2.86505C4.12159 3.16119 4.05868 3.48129 4.02891 3.84571C3.99999 4.19965 4 4.63672 4 5.17862V18.8214C4 19.3633 3.99999 19.8004 4.02891 20.1543C4.05868 20.5188 4.12159 20.8389 4.27248 21.135C4.51217 21.6054 4.89462 21.9879 5.36502 22.2275C5.66117 22.3784 5.98126 22.4413 6.34569 22.4711C6.69963 22.5 7.1367 22.5 7.67858 22.5H16.8214C17.3633 22.5 17.8004 22.5 18.1543 22.4711C18.5187 22.4413 18.8388 22.3784 19.135 22.2275C19.6054 21.9879 19.9878 21.6054 20.2275 21.135C20.3784 20.8389 20.4413 20.5188 20.4711 20.1543C20.5 19.8004 20.5 19.3633 20.5 18.8214L20.5 9.26049C20.5001 8.82878 20.5002 8.52994 20.4317 8.24286C20.3712 7.98915 20.2713 7.74647 20.1357 7.52365C19.9823 7.27151 19.7718 7.05932 19.4678 6.75277L15.3073 2.55474C14.9997 2.24424 14.7868 2.02932 14.5328 1.87253C14.3082 1.73397 14.0632 1.63182 13.8067 1.56988ZM12.75 2.50003C13.2428 2.50016 13.415 2.50404 13.572 2.54194C13.7258 2.5791 13.8729 2.64039 14.0076 2.72353C14.1478 2.81003 14.274 2.9328 14.6373 3.2994L18.7177 7.4165C19.0766 7.7786 19.1968 7.90437 19.2814 8.04347C19.3628 8.17717 19.4227 8.32277 19.459 8.475C19.4968 8.63338 19.5 8.8073 19.5 9.31712V9.43353H14.1C13.8158 9.43353 13.6178 9.43334 13.4636 9.42074C13.3123 9.40838 13.2253 9.38533 13.1595 9.35179C13.0184 9.27988 12.9037 9.16515 12.8317 9.02402C12.7982 8.95819 12.7752 8.87126 12.7628 8.71997C12.7502 8.56576 12.75 8.36768 12.75 8.08353V2.50003Z" fill="black"/>
</svg>
