<svg width="24" height="24" viewBox="0 0 24 24" fill="none" xmlns="http://www.w3.org/2000/svg">
<path fill-rule="evenodd" clip-rule="evenodd" d="M0.123117 8.43565C0 9.21298 0 10.142 0 12C0 13.858 0 14.787 0.123117 15.5643C0.800832 19.8433 4.15673 23.1992 8.43565 23.8769C9.21298 24 10.142 24 12 24C13.858 24 14.787 24 15.5643 23.8769C19.8433 23.1992 23.1992 19.8433 23.8769 15.5643C24 14.787 24 13.858 24 12C24 10.142 24 9.21298 23.8769 8.43565C23.1992 4.15673 19.8433 0.800832 15.5643 0.123117C14.787 0 13.858 0 12 0C10.142 0 9.21298 0 8.43565 0.123117C4.15673 0.800832 0.800832 4.15673 0.123117 8.43565ZM4.66536 6.99967C4.66536 6.63148 4.96384 6.33301 5.33203 6.33301H18.6654C19.0336 6.33301 19.332 6.63148 19.332 6.99967V7.81436C19.332 8.14795 19.207 8.46942 18.9816 8.71533L14.2261 13.9031C14.0188 14.1293 13.9151 14.2423 13.8412 14.3717C13.7756 14.4864 13.7274 14.6103 13.6983 14.7391C13.6654 14.8845 13.6654 15.0379 13.6654 15.3447V19.1555C13.6654 19.6737 13.1 19.9938 12.6557 19.7272L10.6557 18.5272C10.4549 18.4067 10.332 18.1897 10.332 17.9555V15.3447C10.332 15.0379 10.332 14.8845 10.2991 14.7391C10.27 14.6103 10.2218 14.4864 10.1562 14.3717C10.0823 14.2423 9.9786 14.1293 9.77129 13.9031L5.01583 8.71533C4.79041 8.46942 4.66536 8.14795 4.66536 7.81436V6.99967Z" fill="black"/>
</svg>
