<svg width="24" height="24" viewBox="0 0 24 24" fill="none" xmlns="http://www.w3.org/2000/svg">
<path fill-rule="evenodd" clip-rule="evenodd" d="M23.25 3C23.25 2.30964 22.6904 1.75 22 1.75H2C1.30964 1.75 0.75 2.30964 0.75 3V4.61102C0.75 4.92376 0.867231 5.22513 1.07856 5.45567L9.05287 14.1549C9.17966 14.2932 9.25 14.4741 9.25 14.6617V19.4338C9.25 19.8729 9.48037 20.2798 9.85688 20.5057L12.8569 22.3057C13.69 22.8056 14.75 22.2054 14.75 21.2338V14.6617C14.75 14.4741 14.8203 14.2932 14.9471 14.1549L22.9214 5.45567C23.1328 5.22513 23.25 4.92376 23.25 4.61102V3ZM22 2.25C22.4142 2.25 22.75 2.58579 22.75 3V4.61102C22.75 4.79866 22.6797 4.97949 22.5529 5.11781L14.5786 13.8171C14.3672 14.0476 14.25 14.349 14.25 14.6617V21.2338C14.25 21.8168 13.614 22.1769 13.1141 21.8769L10.1141 20.0769C9.88822 19.9414 9.75 19.6973 9.75 19.4338V14.6617C9.75 14.349 9.63277 14.0476 9.42144 13.8171L1.44713 5.11781C1.32034 4.97949 1.25 4.79866 1.25 4.61102V3C1.25 2.58579 1.58579 2.25 2 2.25H22Z" fill="black"/>
</svg>
