<svg width="24" height="24" viewBox="0 0 24 24" fill="none" xmlns="http://www.w3.org/2000/svg">
<path fill-rule="evenodd" clip-rule="evenodd" d="M24 3C24 1.89543 23.1046 1 22 1H2C0.895432 1 0 1.89543 0 3V4.61102C0 5.1114 0.187569 5.59361 0.525692 5.96246L8.5 14.6617V19.4338C8.5 20.1363 8.8686 20.7873 9.47101 21.1488L12.471 22.9488C13.8041 23.7486 15.5 22.7884 15.5 21.2338V14.6617L23.4743 5.96247C23.8124 5.59361 24 5.1114 24 4.61102V3ZM2 3H22V4.61102L14.0257 13.3103C13.6876 13.6791 13.5 14.1613 13.5 14.6617V21.2338L10.5 19.4338V14.6617C10.5 14.1613 10.3124 13.6791 9.97431 13.3103L2 4.61102V3Z" fill="black"/>
</svg>
