<svg width="24" height="24" viewBox="0 0 24 24" fill="none" xmlns="http://www.w3.org/2000/svg">
<path d="M2.1084 12.0215C2.1084 6.56697 6.54451 2.13086 11.999 2.13086C17.4535 2.13086 21.8896 6.56697 21.8896 12.0215C21.8896 12.4357 22.2254 12.7715 22.6396 12.7715C23.0538 12.7715 23.3896 12.4357 23.3896 12.0215C23.3896 5.73854 18.2819 0.630859 11.999 0.630859C5.71608 0.630859 0.608398 5.73854 0.608398 12.0215C0.608398 12.908 0.713735 13.7645 0.896149 14.5897C0.985553 14.9942 1.3859 15.2495 1.79035 15.1601C2.1948 15.0707 2.4502 14.6704 2.36079 14.2659C2.19943 13.536 2.1084 12.7883 2.1084 12.0215Z" fill="black"/>
<path d="M11.9995 6.37661C8.88629 6.37661 6.35389 8.90901 6.35389 12.0222C6.35389 12.4364 6.01811 12.7722 5.60389 12.7722C5.18968 12.7722 4.85389 12.4364 4.85389 12.0222C4.85389 8.08058 8.05786 4.87661 11.9995 4.87661C15.9411 4.87661 19.1451 8.08058 19.1451 12.0222C19.1451 16.1374 17.649 19.74 14.1679 23.1547C13.8722 23.4447 13.3973 23.4402 13.1072 23.1445C12.8172 22.8488 12.8218 22.3739 13.1175 22.0839C16.3369 18.9259 17.6451 15.6998 17.6451 12.0222C17.6451 8.90901 15.1127 6.37661 11.9995 6.37661Z" fill="black"/>
<path d="M11.9987 10.4416C11.2288 10.4416 10.6016 11.0688 10.6016 11.8387C10.6016 15.0968 7.91248 19.03 3.41035 19.03C2.99613 19.03 2.66035 18.6942 2.66035 18.28C2.66035 17.8658 2.99613 17.53 3.41035 17.53C6.92647 17.53 9.10163 14.4353 9.10163 11.8387C9.10163 10.2404 10.4004 8.94162 11.9987 8.94162C13.5993 8.94162 14.8958 10.2408 14.8958 11.8387C14.8958 15.8349 12.3823 20.4088 8.00487 22.3636C7.62666 22.5325 7.18314 22.3628 7.01424 21.9846C6.84533 21.6064 7.01501 21.1629 7.39323 20.994C11.1912 19.2979 13.3958 15.287 13.3958 11.8387C13.3958 11.0684 12.77 10.4416 11.9987 10.4416Z" fill="black"/>
</svg>
