<svg width="24" height="24" viewBox="0 0 24 24" fill="none" xmlns="http://www.w3.org/2000/svg">
<path d="M1.85938 12.0214C1.85938 6.42884 6.40742 1.8808 12 1.8808C17.5925 1.8808 22.1406 6.42884 22.1406 12.0214C22.1406 12.2975 22.3644 12.5214 22.6406 12.5214C22.9167 12.5214 23.1406 12.2975 23.1406 12.0214C23.1406 5.87655 18.1448 0.880798 12 0.880798C5.85513 0.880798 0.859375 5.87655 0.859375 12.0214C0.859375 12.888 0.962328 13.7264 1.14123 14.5357C1.20084 14.8053 1.46773 14.9756 1.73737 14.916C2.007 14.8564 2.17726 14.5895 2.11766 14.3198C1.95279 13.574 1.85938 12.8082 1.85938 12.0214Z" fill="black"/>
<path d="M12.0005 6.12655C8.7492 6.12655 6.10487 8.77087 6.10487 12.0222C6.10487 12.2983 5.88101 12.5222 5.60487 12.5222C5.32873 12.5222 5.10487 12.2983 5.10487 12.0222C5.10487 8.21859 8.19691 5.12655 12.0005 5.12655C15.804 5.12655 18.8961 8.21859 18.8961 12.0222C18.8961 16.0644 17.4313 19.6042 13.9938 22.9762C13.7966 23.1695 13.4801 23.1665 13.2867 22.9693C13.0933 22.7722 13.0964 22.4556 13.2935 22.2623C16.5566 19.0615 17.8961 15.7727 17.8961 12.0222C17.8961 8.77087 15.2518 6.12655 12.0005 6.12655Z" fill="black"/>
<path d="M11.9997 10.1916C11.0917 10.1916 10.3526 10.9307 10.3526 11.8387C10.3526 14.9865 7.74912 18.7799 3.41132 18.7799C3.13518 18.7799 2.91132 18.5561 2.91132 18.2799C2.91132 18.0038 3.13518 17.7799 3.41132 17.7799C7.09178 17.7799 9.35261 14.5455 9.35261 11.8387C9.35261 10.3784 10.5395 9.19156 11.9997 9.19156C13.4621 9.19156 14.6468 10.3787 14.6468 11.8387C14.6468 15.7435 12.1847 20.2236 7.90391 22.1353C7.65177 22.2479 7.35608 22.1348 7.24348 21.8826C7.13088 21.6305 7.244 21.3348 7.49614 21.2222C11.3907 19.483 13.6468 15.3783 13.6468 11.8387C13.6468 10.9304 12.9092 10.1916 11.9997 10.1916Z" fill="black"/>
</svg>
