<svg width="24" height="24" viewBox="0 0 24 24" fill="none" xmlns="http://www.w3.org/2000/svg">
<path d="M2.35938 12.0214C2.35938 6.70498 6.68356 2.3808 12 2.3808C17.3164 2.3808 21.6406 6.70498 21.6406 12.0214C21.6406 12.5737 22.0883 13.0214 22.6406 13.0214C23.1929 13.0214 23.6406 12.5737 23.6406 12.0214C23.6406 5.60041 18.421 0.380798 12 0.380798C5.57899 0.380798 0.359375 5.60041 0.359375 12.0214C0.359375 12.9279 0.467096 13.8025 0.653018 14.6436C0.772224 15.1829 1.30602 15.5234 1.84529 15.4042C2.38455 15.285 2.72508 14.7512 2.60587 14.2119C2.44802 13.4978 2.35938 12.7683 2.35938 12.0214Z" fill="black"/>
<path d="M12.0005 6.62655C9.02534 6.62655 6.60487 9.04702 6.60487 12.0222C6.60487 12.5744 6.15715 13.0222 5.60487 13.0222C5.05258 13.0222 4.60487 12.5744 4.60487 12.0222C4.60487 7.94245 7.92077 4.62655 12.0005 4.62655C16.0802 4.62655 19.3961 7.94245 19.3961 12.0222C19.3961 16.2103 17.8687 19.8756 14.3439 23.3331C13.9496 23.7198 13.3165 23.7137 12.9298 23.3195C12.543 22.9252 12.5491 22.2921 12.9434 21.9053C16.1192 18.7901 17.3961 15.6268 17.3961 12.0222C17.3961 9.04702 14.9756 6.62655 12.0005 6.62655Z" fill="black"/>
<path d="M11.9997 10.6916C11.3679 10.6916 10.8526 11.2068 10.8526 11.8387C10.8526 15.207 8.07779 19.2799 3.41132 19.2799C2.85904 19.2799 2.41132 18.8322 2.41132 18.2799C2.41132 17.7277 2.85904 17.2799 3.41132 17.2799C6.76312 17.2799 8.85261 14.325 8.85261 11.8387C8.85261 10.1023 10.2633 8.69156 11.9997 8.69156C13.7385 8.69156 15.1468 10.1028 15.1468 11.8387C15.1468 15.9262 12.5817 20.5938 8.10779 22.5918C7.60351 22.817 7.01214 22.5908 6.78694 22.0865C6.56174 21.5822 6.78798 20.9909 7.29226 20.7657C10.9937 19.1127 13.1468 15.1956 13.1468 11.8387C13.1468 11.2063 12.6328 10.6916 11.9997 10.6916Z" fill="black"/>
</svg>
