<svg width="24" height="24" viewBox="0 0 24 24" fill="none" xmlns="http://www.w3.org/2000/svg">
<path d="M2.35938 12.0215C2.35938 6.70504 6.68356 2.38086 12 2.38086C17.3164 2.38086 21.6406 6.70504 21.6406 12.0215C21.6406 12.5737 22.0883 13.0215 22.6406 13.0215C23.1929 13.0215 23.6406 12.5737 23.6406 12.0215C23.6406 5.60047 18.421 0.380859 12 0.380859C5.57899 0.380859 0.359375 5.60047 0.359375 12.0215C0.359375 12.9279 0.467096 13.8026 0.653018 14.6437C0.772224 15.1829 1.30602 15.5235 1.84529 15.4042C2.38455 15.285 2.72508 14.7512 2.60587 14.212C2.44802 13.4979 2.35938 12.7684 2.35938 12.0215Z" fill="black"/>
<path d="M12.0005 6.62661C9.02534 6.62661 6.60487 9.04708 6.60487 12.0222C6.60487 12.5745 6.15715 13.0222 5.60487 13.0222C5.05258 13.0222 4.60487 12.5745 4.60487 12.0222C4.60487 7.94251 7.92077 4.62661 12.0005 4.62661C16.0802 4.62661 19.3961 7.94251 19.3961 12.0222C19.3961 16.2104 17.8687 19.8756 14.3439 23.3332C13.9496 23.7199 13.3165 23.7138 12.9298 23.3195C12.543 22.9253 12.5491 22.2921 12.9434 21.9054C16.1192 18.7902 17.3961 15.6269 17.3961 12.0222C17.3961 9.04708 14.9756 6.62661 12.0005 6.62661Z" fill="black"/>
<path d="M11.9997 10.6916C11.3679 10.6916 10.8526 11.2069 10.8526 11.8387C10.8526 15.2071 8.07779 19.28 3.41132 19.28C2.85904 19.28 2.41132 18.8323 2.41132 18.28C2.41132 17.7277 2.85904 17.28 3.41132 17.28C6.76312 17.28 8.85261 14.325 8.85261 11.8387C8.85261 10.1023 10.2633 8.69162 11.9997 8.69162C13.7385 8.69162 15.1468 10.1029 15.1468 11.8387C15.1468 15.9262 12.5817 20.5939 8.10779 22.5919C7.60351 22.8171 7.01214 22.5909 6.78694 22.0866C6.56174 21.5823 6.78798 20.9909 7.29226 20.7657C10.9937 19.1127 13.1468 15.1957 13.1468 11.8387C13.1468 11.2063 12.6328 10.6916 11.9997 10.6916Z" fill="black"/>
</svg>
