<svg width="24" height="24" viewBox="0 0 24 24" fill="none" xmlns="http://www.w3.org/2000/svg">
<path d="M2.1084 12.0214C2.1084 6.56691 6.54451 2.1308 11.999 2.1308C17.4535 2.1308 21.8896 6.56691 21.8896 12.0214C21.8896 12.4356 22.2254 12.7714 22.6396 12.7714C23.0538 12.7714 23.3896 12.4356 23.3896 12.0214C23.3896 5.73848 18.2819 0.630798 11.999 0.630798C5.71608 0.630798 0.608398 5.73848 0.608398 12.0214C0.608398 12.9079 0.713735 13.7644 0.896149 14.5896C0.985553 14.9941 1.3859 15.2495 1.79035 15.1601C2.1948 15.0707 2.4502 14.6703 2.36079 14.2659C2.19943 13.5359 2.1084 12.7883 2.1084 12.0214Z" fill="black"/>
<path d="M11.9995 6.37655C8.88629 6.37655 6.35389 8.90895 6.35389 12.0222C6.35389 12.4364 6.01811 12.7722 5.60389 12.7722C5.18968 12.7722 4.85389 12.4364 4.85389 12.0222C4.85389 8.08052 8.05786 4.87655 11.9995 4.87655C15.9411 4.87655 19.1451 8.08052 19.1451 12.0222C19.1451 16.1374 17.649 19.7399 14.1679 23.1546C13.8722 23.4447 13.3973 23.4401 13.1072 23.1444C12.8172 22.8487 12.8218 22.3738 13.1175 22.0838C16.3369 18.9258 17.6451 15.6997 17.6451 12.0222C17.6451 8.90895 15.1127 6.37655 11.9995 6.37655Z" fill="black"/>
<path d="M11.9987 10.4416C11.2288 10.4416 10.6016 11.0688 10.6016 11.8387C10.6016 15.0968 7.91248 19.0299 3.41035 19.0299C2.99613 19.0299 2.66035 18.6942 2.66035 18.2799C2.66035 17.8657 2.99613 17.5299 3.41035 17.5299C6.92647 17.5299 9.10163 14.4352 9.10163 11.8387C9.10163 10.2403 10.4004 8.94156 11.9987 8.94156C13.5993 8.94156 14.8958 10.2408 14.8958 11.8387C14.8958 15.8348 12.3823 20.4087 8.00487 22.3636C7.62666 22.5325 7.18314 22.3628 7.01424 21.9846C6.84533 21.6064 7.01501 21.1628 7.39323 20.9939C11.1912 19.2978 13.3958 15.2869 13.3958 11.8387C13.3958 11.0683 12.77 10.4416 11.9987 10.4416Z" fill="black"/>
</svg>
