<svg width="24" height="24" viewBox="0 0 24 24" fill="none" xmlns="http://www.w3.org/2000/svg">
<path d="M2.60938 12.0214C2.60938 6.84305 6.82163 2.6308 12 2.6308C17.1783 2.6308 21.3906 6.84305 21.3906 12.0214C21.3906 12.7118 21.9502 13.2714 22.6406 13.2714C23.3309 13.2714 23.8906 12.7118 23.8906 12.0214C23.8906 5.46234 18.559 0.130798 12 0.130798C5.44092 0.130798 0.109375 5.46234 0.109375 12.0214C0.109375 12.9478 0.21948 13.8406 0.408911 14.6976C0.557919 15.3716 1.22517 15.7973 1.89925 15.6483C2.57333 15.4993 2.99899 14.832 2.84998 14.158C2.69564 13.4597 2.60938 12.7484 2.60938 12.0214Z" fill="black"/>
<path d="M12.0005 6.87655C9.16341 6.87655 6.85487 9.18509 6.85487 12.0222C6.85487 12.7125 6.29522 13.2722 5.60487 13.2722C4.91451 13.2722 4.35487 12.7125 4.35487 12.0222C4.35487 7.80438 7.7827 4.37655 12.0005 4.37655C16.2183 4.37655 19.6461 7.80438 19.6461 12.0222C19.6461 16.2833 18.0874 20.0113 14.519 23.5116C14.0261 23.995 13.2347 23.9874 12.7513 23.4945C12.2679 23.0017 12.2755 22.2103 12.7683 21.7268C15.9005 18.6544 17.1461 15.5539 17.1461 12.0222C17.1461 9.18509 14.8375 6.87655 12.0005 6.87655Z" fill="black"/>
<path d="M11.9997 10.9416C11.506 10.9416 11.1026 11.3449 11.1026 11.8387C11.1026 15.3173 8.24212 19.5299 3.41132 19.5299C2.72097 19.5299 2.16132 18.9703 2.16132 18.2799C2.16132 17.5896 2.72097 17.0299 3.41132 17.0299C6.59878 17.0299 8.60261 14.2147 8.60261 11.8387C8.60261 9.9642 10.1252 8.44156 11.9997 8.44156C13.8767 8.44156 15.3968 9.96489 15.3968 11.8387C15.3968 16.0175 12.7802 20.779 8.20973 22.8201C7.57938 23.1016 6.84017 22.8188 6.55867 22.1884C6.27716 21.5581 6.55996 20.8189 7.19032 20.5374C10.7952 18.9275 12.8968 15.1043 12.8968 11.8387C12.8968 11.3442 12.4946 10.9416 11.9997 10.9416Z" fill="black"/>
</svg>
