<svg width="24" height="24" viewBox="0 0 24 24" fill="none" xmlns="http://www.w3.org/2000/svg">
<path d="M2.60938 12.0215C2.60938 6.84311 6.82163 2.63086 12 2.63086C17.1783 2.63086 21.3906 6.84311 21.3906 12.0215C21.3906 12.7118 21.9502 13.2715 22.6406 13.2715C23.3309 13.2715 23.8906 12.7118 23.8906 12.0215C23.8906 5.4624 18.559 0.130859 12 0.130859C5.44092 0.130859 0.109375 5.4624 0.109375 12.0215C0.109375 12.9479 0.21948 13.8407 0.408911 14.6976C0.557919 15.3717 1.22517 15.7974 1.89925 15.6484C2.57333 15.4993 2.99899 14.8321 2.84998 14.158C2.69564 13.4598 2.60938 12.7484 2.60938 12.0215Z" fill="black"/>
<path d="M12.0005 6.87661C9.16341 6.87661 6.85487 9.18515 6.85487 12.0222C6.85487 12.7126 6.29522 13.2722 5.60487 13.2722C4.91451 13.2722 4.35487 12.7126 4.35487 12.0222C4.35487 7.80444 7.7827 4.37661 12.0005 4.37661C16.2183 4.37661 19.6461 7.80444 19.6461 12.0222C19.6461 16.2833 18.0874 20.0113 14.519 23.5116C14.0261 23.9951 13.2347 23.9874 12.7513 23.4946C12.2679 23.0018 12.2755 22.2103 12.7683 21.7269C15.9005 18.6545 17.1461 15.5539 17.1461 12.0222C17.1461 9.18515 14.8375 6.87661 12.0005 6.87661Z" fill="black"/>
<path d="M11.9997 10.9416C11.506 10.9416 11.1026 11.345 11.1026 11.8387C11.1026 15.3174 8.24212 19.53 3.41132 19.53C2.72097 19.53 2.16132 18.9704 2.16132 18.28C2.16132 17.5896 2.72097 17.03 3.41132 17.03C6.59878 17.03 8.60261 14.2148 8.60261 11.8387C8.60261 9.96426 10.1252 8.44162 11.9997 8.44162C13.8767 8.44162 15.3968 9.96495 15.3968 11.8387C15.3968 16.0175 12.7802 20.7791 8.20973 22.8202C7.57938 23.1017 6.84017 22.8189 6.55867 22.1885C6.27716 21.5582 6.55996 20.8189 7.19032 20.5374C10.7952 18.9276 12.8968 15.1044 12.8968 11.8387C12.8968 11.3443 12.4946 10.9416 11.9997 10.9416Z" fill="black"/>
</svg>
