<svg width="24" height="24" viewBox="0 0 24 24" fill="none" xmlns="http://www.w3.org/2000/svg">
<path fill-rule="evenodd" clip-rule="evenodd" d="M5.33283 5.79462C4.80227 6.20728 4.71174 6.97416 5.13162 7.49901L7.40092 10.3356C7.1544 11.3197 7.02467 12.35 7.02783 13.4118C5.31768 13.0928 3.54788 13.2648 1.9256 13.9137L1.10764 14.2409C0.641092 14.4275 0.660689 15.0945 1.13739 15.2534L1.57766 15.4002C5.06221 16.5617 7.75767 19.3551 8.79407 22.8789C8.9467 23.3979 9.68429 23.3906 9.82661 22.8687L10.2249 21.4081C10.6147 19.9789 10.7362 18.4911 10.5847 17.0202C11.6544 17.0159 12.6921 16.8788 13.6826 16.6248L16.5562 18.9237C17.0811 19.3435 17.848 19.253 18.2606 18.7224C19.6457 16.9417 20.4905 14.8007 20.6947 12.554L20.7481 11.9671C20.7514 11.9311 20.7507 11.8957 20.7466 11.8612C21.0271 11.4838 21.2873 11.0907 21.5256 10.6835C19.2335 14.5919 14.9201 17.1956 9.99724 17.0093C9.72129 16.9989 9.50605 16.7667 9.51649 16.4908C9.52693 16.2148 9.7591 15.9996 10.035 16.01C14.4372 16.1766 18.3105 13.9229 20.4673 10.4989L19.8633 10.3781C17.2595 9.85738 15.1734 7.91018 14.4747 5.34837C14.402 5.08195 14.5591 4.80709 14.8255 4.73443C15.0919 4.66177 15.3668 4.81884 15.4395 5.08525C16.0385 7.28164 17.827 8.95108 20.0594 9.39756L20.9885 9.58337C21.8876 7.82562 22.3572 5.81711 22.2609 3.70124L21.1736 3.9187C20.8024 3.99293 20.4561 3.70904 20.4561 3.33053L20.4561 1.79466C13.5369 1.34562 7.69598 7.03017 8.04519 14.0144C8.05898 14.2902 7.84658 14.525 7.57079 14.5387C7.29499 14.5525 7.06023 14.3401 7.04644 14.0643C6.78554 8.84635 9.70553 4.29815 13.9985 2.1262C13.3293 2.46419 12.6931 2.85974 12.0971 3.3064L12.0882 3.30713L11.5013 3.36048C9.25454 3.56473 7.11362 4.40956 5.33283 5.79462ZM18.4852 4.511C18.875 4.12119 18.875 3.48919 18.4852 3.09939C18.0954 2.70958 17.4634 2.70958 17.0735 3.09939C16.6837 3.48919 16.6837 4.12119 17.0735 4.511C17.4634 4.9008 18.0954 4.9008 18.4852 4.511Z" fill="black"/>
</svg>
