<svg width="24" height="24" viewBox="0 0 24 24" fill="none" xmlns="http://www.w3.org/2000/svg">
<path d="M18.4857 4.51069C18.8755 4.12088 18.8755 3.48888 18.4857 3.09908C18.0959 2.70927 17.4639 2.70927 17.0741 3.09908C16.6842 3.48888 16.6842 4.12088 17.0741 4.51069C17.4639 4.90049 18.0959 4.90049 18.4857 4.51069Z" fill="black"/>
<path fill-rule="evenodd" clip-rule="evenodd" d="M4.93667 7.65499C4.42969 7.02127 4.539 6.09533 5.1796 5.59708C6.99817 4.18264 9.1845 3.31989 11.4789 3.11131L12.0045 3.06353C14.4886 1.22319 17.6455 0.249764 20.9963 0.584845C21.395 0.624714 21.7061 0.959972 21.7061 1.36901V2.53713L22.5316 2.37205C22.9957 2.27923 23.4305 2.61207 23.4715 3.07582C23.7 5.65804 23.1613 8.11862 22.0542 10.244C22.0518 10.264 22.0487 10.2841 22.0446 10.3042C22.009 10.4821 21.9133 10.6326 21.7827 10.7388C21.5434 11.1535 21.282 11.554 20.9999 11.9388C20.9995 11.9556 20.9986 11.9725 20.997 11.9896L20.9437 12.5764C20.7351 14.8708 19.8723 17.0572 18.4579 18.8757C17.9597 19.5163 17.0337 19.6256 16.4 19.1187L13.6234 16.8974C12.7348 17.116 11.8097 17.2426 10.8584 17.2661C10.9722 18.6788 10.8402 20.1026 10.4663 21.4737L10.0679 22.9343C9.8593 23.6993 8.77809 23.71 8.55436 22.9493C7.54104 19.504 4.90565 16.7728 1.49873 15.6372L1.05846 15.4904C0.360818 15.2579 0.332138 14.2817 1.01492 14.0086L1.83288 13.6814C3.40666 13.0519 5.11561 12.8593 6.78044 13.1159C6.79903 12.1804 6.91875 11.2702 7.12881 10.3952L4.93667 7.65499ZM15.3356 16.3462L17.3016 17.919C18.2157 16.7332 18.8631 15.3708 19.2071 13.925C18.0784 14.9446 16.7707 15.7703 15.3356 16.3462ZM6.13632 6.75338C7.29291 5.86177 8.61751 5.22389 10.0237 4.87384C9.03383 5.9858 8.23267 7.2695 7.67397 8.67544L6.13632 6.75338ZM20.2061 2.03107C13.5575 1.73485 7.95614 7.22633 8.29235 13.9506C8.31876 14.4788 7.82749 14.8826 7.31438 14.7543L7.26909 14.743C5.97361 14.4191 4.62289 14.4281 3.34079 14.7616C5.87095 15.9524 7.92233 17.9581 9.17179 20.4439C9.42615 19.2235 9.4667 17.9665 9.28994 16.7291L9.28018 16.6609C9.21064 16.174 9.59893 15.7431 10.0903 15.7617C14.246 15.9189 17.9193 13.8475 20.0575 10.6717L19.8141 10.623C17.1175 10.0836 14.957 8.06701 14.2334 5.41383C14.1244 5.01422 14.36 4.60191 14.7596 4.49292C15.1592 4.38394 15.5715 4.61954 15.6805 5.01916C16.2546 7.12419 17.9688 8.7242 20.1083 9.15211L20.8504 9.30052C21.6346 7.70104 22.0594 5.89844 22.0207 4.00392L21.2226 4.16354C20.6968 4.26871 20.2061 3.8665 20.2061 3.33023V2.03107Z" fill="black"/>
</svg>
