<svg width="24" height="24" viewBox="0 0 24 24" fill="none" xmlns="http://www.w3.org/2000/svg">
<path d="M5.3329 5.79438C4.80235 6.20703 4.71181 6.97391 5.1317 7.49877L7.40099 10.3354C7.15447 11.3194 7.02474 12.3498 7.02791 13.4115C7.01545 9.23479 9.05964 5.5441 12.1796 3.24491C12.152 3.26521 12.1245 3.28563 12.0972 3.30615L12.0882 3.30688L11.5014 3.36024C9.25461 3.56449 7.11369 4.40931 5.3329 5.79438Z" fill="black"/>
<path d="M20.7466 11.861C19.03 14.1701 16.5541 15.8883 13.6827 16.6245L16.5563 18.9234C17.0811 19.3433 17.848 19.2528 18.2607 18.7222C19.6457 16.9414 20.4906 14.8005 20.6948 12.5537L20.7482 11.9669C20.7514 11.9309 20.7508 11.8955 20.7466 11.861Z" fill="black"/>
<path fill-rule="evenodd" clip-rule="evenodd" d="M20.9561 1.36896C20.9561 1.34941 20.9412 1.33302 20.9217 1.33108C13.7021 0.609113 7.44355 6.33382 7.52878 13.5195L7.52889 13.5282C7.52957 13.5824 7.53061 13.6367 7.53202 13.6912C7.53348 13.7478 7.53534 13.8045 7.5376 13.8613C7.53927 13.9035 7.54117 13.9457 7.54328 13.988C7.54455 14.0134 7.52094 14.0328 7.49627 14.0266L7.45098 14.0153C7.42538 14.0089 7.39975 14.0026 7.37411 13.9965C7.26565 13.9704 7.15684 13.9464 7.04777 13.9246L7.03972 13.923C5.39059 13.5947 3.67824 13.751 2.11142 14.3777L1.29346 14.7049C1.25937 14.7185 1.26081 14.7672 1.29563 14.7788L1.7359 14.9256C1.79934 14.9467 1.86253 14.9684 1.92547 14.9906C5.22699 16.154 7.82618 18.7288 9.02838 21.9952C9.06512 22.095 9.10055 22.1954 9.13466 22.2965C9.18144 22.4352 9.22574 22.575 9.26749 22.7159L9.27388 22.7376C9.2843 22.773 9.33464 22.7725 9.34435 22.7369L9.74269 21.2763C10.1215 19.8875 10.2359 18.441 10.0812 17.0121L10.0811 17.0106C10.0723 16.9299 10.0627 16.8492 10.0522 16.7686C10.0459 16.7201 10.0393 16.6715 10.0324 16.623L10.0226 16.5547C10.0193 16.5311 10.0381 16.5102 10.062 16.5111C10.136 16.5139 10.2098 16.516 10.2834 16.5175C10.3629 16.5191 10.4422 16.5199 10.5214 16.52L10.5228 16.52C15.0636 16.5238 19.0103 14.0338 21.1264 10.3755L19.9124 10.1327C17.4014 9.63046 15.3897 7.7527 14.7159 5.28224C14.6796 5.14904 14.7581 5.0116 14.8913 4.97527C15.0245 4.93894 15.162 5.01748 15.1983 5.15068C15.8222 7.43843 17.6852 9.17731 20.0104 9.64236L21.3473 9.90974L21.3807 9.91332C22.3634 8.0333 22.8738 5.87391 22.7566 3.60174C22.7541 3.5532 22.7513 3.50416 22.7483 3.45552C22.7416 3.35119 22.7337 3.24664 22.7244 3.14187C22.7224 3.11908 22.7011 3.10295 22.6786 3.10744L21.0755 3.42806C21.0138 3.44041 20.9561 3.39317 20.9561 3.33018V1.36896ZM18.4852 4.51065C18.875 4.12085 18.875 3.48885 18.4852 3.09904C18.0954 2.70923 17.4634 2.70923 17.0736 3.09904C16.6838 3.48885 16.6838 4.12085 17.0736 4.51065C17.4634 4.90046 18.0954 4.90046 18.4852 4.51065Z" fill="black"/>
</svg>
