<svg width="24" height="24" viewBox="0 0 24 24" fill="none" xmlns="http://www.w3.org/2000/svg">
<path d="M18.4857 4.5107C18.8755 4.1209 18.8755 3.4889 18.4857 3.09909C18.0959 2.70928 17.4639 2.70928 17.0741 3.09909C16.6843 3.4889 16.6843 4.1209 17.0741 4.5107C17.4639 4.90051 18.0959 4.90051 18.4857 4.5107Z" fill="black"/>
<path fill-rule="evenodd" clip-rule="evenodd" d="M4.74145 7.81118C4.14739 7.0686 4.27548 5.98359 5.02612 5.39976C6.88247 3.95594 9.11421 3.07527 11.4563 2.86235L11.9125 2.82088C14.4359 0.971976 17.6315 -0.0028758 21.0212 0.336101C21.5463 0.388611 21.9562 0.830157 21.9562 1.36902L21.9562 2.2322L22.4825 2.12692C23.0939 2.00465 23.6665 2.44307 23.7206 3.0538C23.952 5.67012 23.4108 8.16405 22.2956 10.3216L22.2936 10.3333L22.2898 10.3533C22.2458 10.5732 22.1327 10.7618 21.9777 10.9009C21.752 11.2891 21.5072 11.6651 21.2446 12.0275L21.1927 12.5991C20.9797 14.9411 20.0991 17.1729 18.6552 19.0292C18.0714 19.7799 16.9864 19.908 16.2438 19.3139L13.563 17.1693C12.7759 17.355 11.9613 17.47 11.1259 17.507C11.2066 18.8627 11.066 20.2249 10.7075 21.5395L10.3091 23.0001C10.0342 24.0082 8.60936 24.0223 8.31452 23.0198C7.3243 19.6531 4.74896 16.9841 1.41968 15.8743L0.979409 15.7276C0.0608252 15.4214 0.0230625 14.1361 0.922073 13.7765L1.74003 13.4493C3.26752 12.8383 4.91905 12.6283 6.53905 12.8299C6.57258 12.0169 6.68103 11.2235 6.85749 10.4562L4.74145 7.81118ZM15.8203 16.4138L17.2566 17.5628C17.9086 16.6723 18.4104 15.6862 18.7466 14.6438C17.8573 15.3529 16.875 15.9503 15.8203 16.4138ZM6.49252 6.79845C7.35286 6.16853 8.30244 5.67876 9.30579 5.34313C8.62539 6.21091 8.05161 7.16614 7.60539 8.18953L6.49252 6.79845ZM19.9562 2.27274C13.5572 2.12315 8.21736 7.44446 8.54204 13.9381C8.57684 14.634 7.92968 15.1658 7.25375 14.9968L7.20846 14.9855C6.18177 14.7288 5.11926 14.688 4.08664 14.8587C6.15925 15.9809 7.87619 17.6562 9.04889 19.6893C9.18287 18.721 9.18132 17.7366 9.04245 16.7645L9.0327 16.6962C8.9411 16.055 9.45253 15.4874 10.0998 15.5119C14.0281 15.6605 17.5168 13.7726 19.6347 10.8409C16.9061 10.2449 14.729 8.18126 13.9922 5.47963C13.8469 4.9468 14.161 4.39706 14.6938 4.25175C15.2267 4.10643 15.7764 4.42057 15.9217 4.95339C16.4709 6.96707 18.1107 8.49764 20.1573 8.90697L20.709 9.0173C21.3829 7.58145 21.7631 5.98459 21.7729 4.30845L21.2717 4.4087C20.5911 4.54481 19.9562 4.02428 19.9562 3.33024L19.9562 2.27274Z" fill="black"/>
</svg>
