<svg width="24" height="24" viewBox="0 0 24 24" fill="none" xmlns="http://www.w3.org/2000/svg">
<path fill-rule="evenodd" clip-rule="evenodd" d="M5.33283 5.79502C4.80227 6.20767 4.71174 6.97456 5.13162 7.49941L7.40092 10.336C7.1544 11.3201 7.02467 12.3504 7.02783 13.4122C5.31768 13.0932 3.54788 13.2652 1.9256 13.9141L1.10764 14.2413C0.641092 14.4279 0.660689 15.0949 1.13739 15.2538L1.57766 15.4006C5.06221 16.5621 7.75767 19.3555 8.79407 22.8793C8.9467 23.3983 9.68429 23.391 9.82661 22.8691L10.2249 21.4085C10.6147 19.9793 10.7362 18.4915 10.5847 17.0206C11.6544 17.0163 12.6921 16.8792 13.6826 16.6252L16.5562 18.924C17.0811 19.3439 17.848 19.2534 18.2606 18.7228C19.6457 16.9421 20.4905 14.8011 20.6947 12.5544L20.7481 11.9675C20.7514 11.9315 20.7507 11.8961 20.7466 11.8616C21.0271 11.4842 21.2873 11.0911 21.5256 10.6839C19.2335 14.5923 14.9201 17.196 9.99724 17.0097C9.72129 16.9993 9.50605 16.7671 9.51649 16.4912C9.52693 16.2152 9.7591 16 10.035 16.0104C14.4372 16.177 18.3105 13.9233 20.4673 10.4993L19.8633 10.3785C17.2595 9.85778 15.1734 7.91058 14.4747 5.34876C14.402 5.08235 14.5591 4.80748 14.8255 4.73482C15.0919 4.66217 15.3668 4.81923 15.4395 5.08565C16.0385 7.28204 17.827 8.95148 20.0594 9.39796L20.9885 9.58377C21.8876 7.82602 22.3572 5.81751 22.2609 3.70163L21.1736 3.91909C20.8024 3.99333 20.4561 3.70944 20.4561 3.33092L20.4561 1.79506C13.5369 1.34602 7.69598 7.03057 8.04519 14.0148C8.05898 14.2906 7.84658 14.5254 7.57079 14.5391C7.29499 14.5529 7.06023 14.3405 7.04644 14.0647C6.78554 8.84675 9.70553 4.29855 13.9985 2.1266C13.3293 2.46459 12.6931 2.86013 12.0971 3.3068L12.0882 3.30753L11.5013 3.36088C9.25454 3.56513 7.11362 4.40996 5.33283 5.79502ZM18.4852 4.51139C18.875 4.12159 18.875 3.48959 18.4852 3.09978C18.0954 2.70998 17.4634 2.70998 17.0735 3.09978C16.6837 3.48959 16.6837 4.12159 17.0735 4.51139C17.4634 4.9012 18.0954 4.9012 18.4852 4.51139Z" fill="black"/>
</svg>
