<svg width="24" height="24" viewBox="0 0 24 24" fill="none" xmlns="http://www.w3.org/2000/svg">
<path d="M5.33278 5.79472C4.80222 6.20737 4.71169 6.97426 5.13158 7.49911L7.40087 10.3357C7.15435 11.3198 7.02462 12.3501 7.02778 13.4119C7.01533 9.23513 9.05952 5.54444 12.1795 3.24525C12.1519 3.26556 12.1244 3.28597 12.097 3.3065L12.0881 3.30723L11.5012 3.36058C9.25449 3.56483 7.11357 4.40966 5.33278 5.79472Z" fill="black"/>
<path d="M20.7465 11.8613C19.0299 14.1705 16.554 15.8886 13.6826 16.6249L16.5562 18.9237C17.081 19.3436 17.8479 19.2531 18.2606 18.7225C19.6456 16.9418 20.4904 14.8008 20.6947 12.5541L20.748 11.9672C20.7513 11.9312 20.7507 11.8958 20.7465 11.8613Z" fill="black"/>
<path fill-rule="evenodd" clip-rule="evenodd" d="M20.956 1.3693C20.956 1.34975 20.941 1.33336 20.9216 1.33142C13.702 0.609457 7.44342 6.33416 7.52866 13.5198L7.52877 13.5285C7.52945 13.5828 7.53049 13.6371 7.5319 13.6915C7.53336 13.7481 7.53522 13.8049 7.53748 13.8617C7.53915 13.9038 7.54105 13.9461 7.54316 13.9883C7.54443 14.0137 7.52082 14.0331 7.49615 14.027L7.45086 14.0157C7.42526 14.0093 7.39963 14.003 7.37399 13.9968C7.26553 13.9707 7.15672 13.9468 7.04764 13.925L7.0396 13.9234C5.39046 13.595 3.67812 13.7513 2.11129 14.378L1.29333 14.7052C1.25925 14.7189 1.26068 14.7676 1.29551 14.7792L1.73578 14.9259C1.79922 14.9471 1.86241 14.9688 1.92535 14.9909C5.22687 16.1544 7.82605 18.7292 9.02826 21.9955C9.065 22.0953 9.10043 22.1958 9.13454 22.2969C9.18132 22.4355 9.22561 22.5753 9.26736 22.7163L9.27376 22.7379C9.28418 22.7734 9.33452 22.7729 9.34423 22.7372L9.74257 21.2767C10.1213 19.8878 10.2357 18.4414 10.0811 17.0125L10.0809 17.011C10.0722 16.9302 10.0626 16.8496 10.0521 16.769C10.0458 16.7204 10.0392 16.6719 10.0323 16.6234L10.0225 16.5551C10.0191 16.5314 10.038 16.5105 10.0619 16.5114C10.1358 16.5142 10.2096 16.5164 10.2833 16.5178C10.3628 16.5194 10.4421 16.5203 10.5212 16.5203L10.5226 16.5203C15.0634 16.5241 19.0102 14.0342 21.1263 10.3758L19.9122 10.133C17.4013 9.63081 15.3896 7.75305 14.7158 5.28259C14.6795 5.14938 14.758 5.01194 14.8912 4.97562C15.0244 4.93929 15.1618 5.01782 15.1982 5.15103C15.8221 7.43877 17.685 9.17766 20.0103 9.64271L21.3472 9.91008L21.3806 9.91367C22.3633 8.03364 22.8737 5.87425 22.7565 3.60208C22.754 3.55354 22.7512 3.5045 22.7481 3.45586C22.7415 3.35154 22.7336 3.24698 22.7243 3.14221C22.7223 3.11943 22.7009 3.1033 22.6785 3.10778L21.0754 3.4284C21.0136 3.44075 20.956 3.39351 20.956 3.33052V1.3693ZM18.4851 4.511C18.8749 4.12119 18.8749 3.48919 18.4851 3.09938C18.0952 2.70958 17.4632 2.70958 17.0734 3.09938C16.6836 3.48919 16.6836 4.12119 17.0734 4.51099C17.4632 4.9008 18.0952 4.9008 18.4851 4.511Z" fill="black"/>
</svg>
