<svg width="24" height="24" viewBox="0 0 24 24" fill="none" xmlns="http://www.w3.org/2000/svg">
<path d="M18.3097 4.33519C18.6026 4.0423 18.6026 3.56743 18.3097 3.27453C18.0169 2.98164 17.542 2.98164 17.2491 3.27453C16.9562 3.56743 16.9562 4.0423 17.2491 4.33519C17.542 4.62809 18.0169 4.62809 18.3097 4.33519Z" fill="black"/>
<path fill-rule="evenodd" clip-rule="evenodd" d="M5.13188 7.4988C4.712 6.97394 4.80253 6.20706 5.33308 5.7944C7.11388 4.40934 9.25479 3.56452 11.5015 3.36027L12.0884 3.30691L12.0972 3.30619C14.5416 1.47446 17.6598 0.502422 20.9715 0.833588C21.2437 0.860816 21.4561 1.08978 21.4561 1.36899V2.84207L22.5806 2.61718C22.8975 2.5538 23.1945 2.78108 23.2225 3.09783C23.4482 5.64878 22.9107 8.07855 21.809 10.1733C21.8081 10.2004 21.805 10.2277 21.7995 10.2552C21.7728 10.3885 21.6954 10.4987 21.5914 10.5698C21.3354 11.0176 21.0531 11.4488 20.7465 11.8611C20.7507 11.8956 20.7513 11.931 20.748 11.9669L20.6947 12.5538C20.4904 14.8005 19.6456 16.9414 18.2606 18.7222C17.8479 19.2528 17.081 19.3433 16.5562 18.9234L13.6826 16.6246C12.6921 16.8786 11.6545 17.0157 10.5848 17.0199C10.7363 18.4909 10.6149 19.9787 10.2251 21.4079L9.82674 22.8685C9.68441 23.3903 8.94682 23.3976 8.7942 22.8787C7.75779 19.3549 5.06234 16.5615 1.57779 15.4L1.13751 15.2532C0.660811 15.0943 0.641214 14.4273 1.10776 14.2407L1.92572 13.9135C3.548 13.2646 5.31781 13.0926 7.02795 13.4116C7.02479 12.3498 7.15453 11.3194 7.40107 10.3353L5.13188 7.4988ZM14.838 16.2683L17.1809 18.1426C17.2703 18.2141 17.4009 18.1987 17.4712 18.1083C18.5876 16.673 19.3204 14.982 19.6071 13.1943C18.2807 14.5482 16.6562 15.6102 14.838 16.2683ZM5.94702 6.58376C7.35391 5.48951 9.00641 4.76372 10.7548 4.46546C9.43063 5.77952 8.3934 7.38302 7.75305 9.17448L5.91275 6.8741C5.84122 6.78469 5.85664 6.65405 5.94702 6.58376ZM20.4561 1.79436C13.559 1.34742 7.69493 7.00842 8.04266 13.9631C8.06069 14.3237 7.72531 14.5993 7.37501 14.5117L7.32972 14.5004C5.77043 14.1106 4.13354 14.1883 2.62207 14.7199C5.60216 15.928 7.97815 18.2602 9.24667 21.1948L9.26031 21.1448C9.65555 19.6956 9.74985 18.1808 9.53742 16.6938L9.52767 16.6255C9.48018 16.2931 9.74532 15.9988 10.0809 16.0115C14.4624 16.1772 18.3183 13.919 20.4682 10.4988L19.8632 10.3778C17.2593 9.85705 15.1732 7.90986 14.4746 5.34804C14.4019 5.08162 14.559 4.80675 14.8254 4.7341C15.0918 4.66144 15.3667 4.81851 15.4393 5.08492C16.0383 7.28131 17.8269 8.95076 20.0593 9.39724L20.9885 9.58309C21.8872 7.82348 22.3568 5.81414 22.2609 3.70093L21.1736 3.91838C20.8024 3.99261 20.4561 3.70872 20.4561 3.33021L20.4561 1.79436Z" fill="black"/>
</svg>
