<svg width="24" height="24" viewBox="0 0 24 24" fill="none" xmlns="http://www.w3.org/2000/svg">
<path d="M18.3096 4.33551C18.6025 4.04262 18.6025 3.56775 18.3096 3.27485C18.0167 2.98196 17.5419 2.98196 17.249 3.27485C16.9561 3.56775 16.9561 4.04262 17.249 4.33552C17.5419 4.62841 18.0167 4.62841 18.3096 4.33551Z" fill="black"/>
<path fill-rule="evenodd" clip-rule="evenodd" d="M5.13176 7.49912C4.71187 6.97426 4.80241 6.20738 5.33296 5.79473C7.11375 4.40966 9.25467 3.56484 11.5014 3.36059L12.0883 3.30723L12.0971 3.30651C14.5414 1.47478 17.6597 0.502742 20.9713 0.833909C21.2436 0.861137 21.456 1.0901 21.456 1.36931V2.84239L22.5805 2.6175C22.8973 2.55413 23.1944 2.7814 23.2224 3.09816C23.4481 5.6491 22.9105 8.07887 21.8089 10.1736C21.808 10.2007 21.8048 10.228 21.7994 10.2555C21.7727 10.3888 21.6953 10.499 21.5913 10.5702C21.3353 11.018 21.0529 11.4491 20.7464 11.8615C20.7506 11.8959 20.7512 11.9313 20.7479 11.9672L20.6946 12.5541C20.4903 14.8008 19.6455 16.9418 18.2604 18.7225C17.8478 19.2531 17.0809 19.3436 16.556 18.9238L13.6825 16.6249C12.692 16.8789 11.6544 17.016 10.5847 17.0203C10.7362 18.4912 10.6147 19.979 10.2249 21.4083L9.82661 22.8688C9.68429 23.3907 8.9467 23.398 8.79407 22.879C7.75767 19.3553 5.06222 16.5618 1.57766 15.4003L1.13739 15.2535C0.660689 15.0946 0.641092 14.4276 1.10764 14.241L1.9256 13.9138C3.54788 13.2649 5.31768 13.0929 7.02783 13.4119C7.02467 12.3501 7.15441 11.3197 7.40095 10.3356L5.13176 7.49912ZM14.8379 16.2686L17.1807 18.1429C17.2701 18.2144 17.4008 18.199 17.4711 18.1086C18.5875 16.6733 19.3203 14.9823 19.6069 13.1947C18.2806 14.5485 16.6561 15.6105 14.8379 16.2686ZM5.9469 6.58408C7.35379 5.48984 9.00628 4.76404 10.7547 4.46578C9.43051 5.77984 8.39328 7.38334 7.75293 9.1748L5.91263 6.87442C5.8411 6.78501 5.85652 6.65437 5.9469 6.58408ZM20.456 1.79468C13.5589 1.34774 7.69481 7.00874 8.04254 13.9634C8.06057 14.324 7.72518 14.5996 7.37488 14.5121L7.3296 14.5007C5.77031 14.1109 4.13342 14.1887 2.62195 14.7202C5.60204 15.9284 7.97803 18.2605 9.24655 21.1951L9.26019 21.1451C9.65542 19.6959 9.74973 18.1811 9.5373 16.6941L9.52754 16.6258C9.48005 16.2934 9.7452 15.9991 10.0808 16.0118C14.4622 16.1775 18.3182 13.9193 20.4681 10.4991L19.863 10.3781C17.2592 9.85737 15.1731 7.91018 14.4744 5.34836C14.4018 5.08195 14.5588 4.80707 14.8253 4.73442C15.0917 4.66176 15.3665 4.81883 15.4392 5.08524C16.0382 7.28163 17.8268 8.95108 20.0592 9.39756L20.9884 9.58341C21.8871 7.8238 22.3567 5.81446 22.2607 3.70125L21.1735 3.9187C20.8023 3.99293 20.456 3.70904 20.456 3.33053L20.456 1.79468Z" fill="black"/>
</svg>
