<svg width="25" height="25" viewBox="0 0 25 25" fill="none" xmlns="http://www.w3.org/2000/svg">
<path d="M18.4852 4.51099C18.875 4.12118 18.875 3.48918 18.4852 3.09938C18.0954 2.70957 17.4634 2.70957 17.0736 3.09938C16.6838 3.48918 16.6838 4.12118 17.0736 4.51099C17.4634 4.90079 18.0954 4.90079 18.4852 4.51099Z" fill="black"/>
<path fill-rule="evenodd" clip-rule="evenodd" d="M4.54757 7.9662C3.86722 7.11576 4.01391 5.87316 4.87358 5.20452C6.76736 3.73159 9.0441 2.83316 11.4334 2.61595L11.8215 2.58068C14.3837 0.72337 17.6172 -0.252899 21.0454 0.0899165C21.6958 0.154952 22.2034 0.701809 22.2034 1.36931V1.93034L22.4335 1.88432C23.1907 1.73288 23.8999 2.27589 23.9668 3.03226C24.2014 5.68405 23.6567 8.21256 22.532 10.4029C22.4799 10.6627 22.3506 10.8874 22.1727 11.0578C21.9596 11.4221 21.7299 11.7757 21.4847 12.1177L21.4389 12.6218C21.2217 15.0111 20.3232 17.2878 18.8503 19.1816C18.1817 20.0413 16.9391 20.188 16.0886 19.5076L13.5016 17.438C12.8149 17.5934 12.1079 17.6961 11.3851 17.7415C11.437 19.0416 11.2897 20.3447 10.946 21.605L10.5476 23.0655C10.207 24.3145 8.44171 24.332 8.07642 23.09C7.10908 19.801 4.59324 17.1937 1.34089 16.1096L0.900615 15.9629C-0.236877 15.5837 -0.283639 13.9921 0.829615 13.5468L1.64758 13.2196C3.13101 12.6262 4.72851 12.4016 6.30461 12.5551C6.34708 11.86 6.44332 11.1797 6.5891 10.5181L4.54757 7.9662ZM16.2887 16.472L17.2064 17.2061C17.612 16.621 17.9529 15.9963 18.2247 15.3432C17.6145 15.7706 16.9673 16.1489 16.2887 16.472ZM6.84906 6.84847C7.40319 6.46429 7.9928 6.13818 8.60843 5.8739C8.20747 6.45755 7.85163 7.07452 7.54622 7.71993L6.84906 6.84847ZM19.708 2.51767C13.5579 2.5091 8.47572 7.6611 8.78897 13.926C8.83207 14.788 8.03046 15.4467 7.19321 15.2374L7.14792 15.2261C6.39486 15.0378 5.6219 14.9696 4.8567 15.0194C6.46884 16.0178 7.84073 17.3571 8.87674 18.9382C8.9246 18.2264 8.89819 17.5097 8.79678 16.7998L8.78702 16.7316C8.67357 15.9374 9.30702 15.2343 10.1087 15.2646C13.8157 15.4049 17.123 13.6902 19.2115 10.9928C16.5671 10.278 14.4803 8.21264 13.7527 5.54509C13.5714 4.88028 13.9634 4.19437 14.6282 4.01306C15.293 3.83175 15.9789 4.2237 16.1602 4.88851C16.6847 6.81167 18.2508 8.27343 20.2055 8.66437L20.565 8.73628C21.1341 7.4662 21.47 6.07232 21.5188 4.61208L21.3198 4.65188C20.4859 4.81865 19.708 4.18087 19.708 3.33053L19.708 2.51767Z" fill="black"/>
</svg>
