<svg width="24" height="24" viewBox="0 0 24 24" fill="none" xmlns="http://www.w3.org/2000/svg">
<path fill-rule="evenodd" clip-rule="evenodd" d="M9.00026 1.5C9.2764 1.5 9.50026 1.72386 9.50026 2V2.6566L20.9664 7.06665C21.8211 7.39538 21.8211 8.60462 20.9664 8.93335L9.50026 13.3434V20C9.50026 20.2761 9.2764 20.5 9.00026 20.5C8.72412 20.5 8.50026 20.2761 8.50026 20V2C8.50026 1.72386 8.72412 1.5 9.00026 1.5ZM20.6074 8L9.50026 3.72801V12.272L20.6074 8Z" fill="black"/>
<path d="M13.4008 18.1114C12.6008 17.8448 11.6039 17.6531 10.5 17.5612V18.5649C11.504 18.6538 12.3912 18.829 13.0845 19.0601C13.5983 19.2314 13.978 19.4243 14.219 19.6142C14.4656 19.8086 14.5 19.9427 14.5 20C14.5 20.0573 14.4656 20.1914 14.219 20.3858C13.978 20.5757 13.5983 20.7686 13.0845 20.9399C12.0622 21.2806 10.6181 21.5 9 21.5C7.38193 21.5 5.9378 21.2806 4.91547 20.9399C4.4017 20.7686 4.02199 20.5757 3.781 20.3858C3.53437 20.1914 3.5 20.0573 3.5 20C3.5 19.9427 3.53437 19.8086 3.781 19.6142C4.02199 19.4243 4.4017 19.2314 4.91547 19.0601C5.60876 18.829 6.49604 18.6538 7.5 18.5649V17.5612C6.39608 17.6531 5.39916 17.8448 4.59925 18.1114C4.02724 18.3021 3.52826 18.5402 3.16202 18.8288C2.80142 19.113 2.5 19.505 2.5 20C2.5 20.495 2.80142 20.887 3.16202 21.1712C3.52826 21.4598 4.02724 21.6979 4.59925 21.8886C5.74849 22.2716 7.30436 22.5 9 22.5C10.6956 22.5 12.2515 22.2716 13.4008 21.8886C13.9728 21.6979 14.4717 21.4598 14.838 21.1712C15.1986 20.887 15.5 20.495 15.5 20C15.5 19.505 15.1986 19.113 14.838 18.8288C14.4717 18.5402 13.9728 18.3021 13.4008 18.1114Z" fill="black"/>
</svg>
