<svg width="24" height="24" viewBox="0 0 24 24" fill="none" xmlns="http://www.w3.org/2000/svg">
<path d="M14.01 2.90935C13.4931 2.38414 12.787 2.08837 12.0501 2.08837L7.93179 2.08838L7.96765 1.95455C8.07486 1.55445 7.83742 1.1432 7.43732 1.036C7.03722 0.928789 6.62597 1.16623 6.51876 1.56633L1.3402 20.893C1.23299 21.2931 1.47043 21.7044 1.87053 21.8116C2.27062 21.9188 2.68188 21.6813 2.78908 21.2812L4.67924 14.2271C4.88943 14.3173 5.12224 14.3677 5.36952 14.3677L9.10009 14.3677C9.45761 14.3677 9.79801 14.5207 10.0352 14.7882L12.14 17.1612C12.4721 17.5356 12.9487 17.7499 13.4492 17.7499L18.2357 17.7499C19.0249 17.7499 19.7164 17.2217 19.924 16.4604L22.3786 7.46042C22.6822 6.34717 21.8442 5.24996 20.6903 5.24996L16.4184 5.24994C16.3514 5.24994 16.2872 5.22305 16.2402 5.1753L14.01 2.90935Z" fill="black"/>
</svg>
