<svg width="24" height="24" viewBox="0 0 24 24" fill="none" xmlns="http://www.w3.org/2000/svg">
<path d="M9.0002 0.75C9.69056 0.75 10.2502 1.30964 10.2502 2V2.21836C10.4356 2.23963 10.6226 2.28474 10.8079 2.356L21.2356 6.36664C22.7313 6.94192 22.7313 9.05808 21.2356 9.63335L10.8079 13.644C10.6226 13.7153 10.4356 13.7604 10.2502 13.7816V19C10.2502 19.6904 9.69056 20.25 9.0002 20.25C8.30985 20.25 7.7502 19.6904 7.7502 19V2C7.7502 1.30964 8.30985 0.75 9.0002 0.75Z" fill="black"/>
<path d="M11.4996 19V17.2101C12.286 17.3481 13.007 17.5509 13.6268 17.8092C14.242 18.0655 14.8051 18.3962 15.2298 18.8145C15.6579 19.2363 15.9995 19.8065 15.9995 20.5C15.9995 21.1935 15.6579 21.7637 15.2298 22.1855C14.8051 22.6038 14.242 22.9345 13.6268 23.1909C12.392 23.7054 10.7554 24 8.99951 24C7.24363 24 5.60706 23.7054 4.37226 23.1909C3.75704 22.9345 3.19388 22.6038 2.76924 22.1855C2.34108 21.7637 1.99951 21.1935 1.99951 20.5C1.99951 19.8065 2.34108 19.2363 2.76924 18.8145C3.19388 18.3962 3.75704 18.0655 4.37226 17.8092C4.99204 17.5509 5.71305 17.3481 6.49955 17.2101V19C6.49955 20.3807 7.61884 21.5 8.99955 21.5C10.3803 21.5 11.4996 20.3807 11.4996 19Z" fill="black"/>
</svg>
