<svg width="24" height="24" viewBox="0 0 24 24" fill="none" xmlns="http://www.w3.org/2000/svg">
<path d="M9.00027 1.25C9.41448 1.25 9.75027 1.58579 9.75027 2V2.4849L21.0562 6.83332C22.1245 7.24423 22.1245 8.75577 21.0562 9.16668L9.75027 13.5151V20C9.75027 20.4142 9.41448 20.75 9.00027 20.75C8.58606 20.75 8.25027 20.4142 8.25027 20V1.90798L8.25561 1.91003C8.30006 1.53824 8.6165 1.25 9.00027 1.25Z" fill="black"/>
<path d="M10.9999 20V18.3589C11.931 18.4634 12.7767 18.6399 13.4797 18.8743C14.0663 19.0698 14.595 19.3191 14.9926 19.6324C15.3817 19.9391 15.7499 20.3956 15.7499 21C15.7499 21.6044 15.3817 22.0609 14.9926 22.3675C14.595 22.6808 14.0663 22.9302 13.4797 23.1257C12.2987 23.5194 10.7149 23.75 8.99988 23.75C7.28485 23.75 5.70104 23.5194 4.52007 23.1257C3.9335 22.9302 3.40471 22.6808 3.00716 22.3675C2.61806 22.0609 2.24988 21.6044 2.24988 21C2.24988 20.3956 2.61806 19.9391 3.00716 19.6324C3.40471 19.3191 3.9335 19.0698 4.52007 18.8743C5.22304 18.6399 6.06873 18.4634 6.99988 18.3589V20C6.99988 21.1046 7.89531 22 8.99988 22C10.1044 22 10.9999 21.1046 10.9999 20Z" fill="black"/>
</svg>
