<svg width="24" height="24" viewBox="0 0 24 24" fill="none" xmlns="http://www.w3.org/2000/svg">
<path fill-rule="evenodd" clip-rule="evenodd" d="M12.4689 2.08837C12.9379 2.08837 13.3872 2.27659 13.7162 2.61081L16.2402 5.1753C16.2872 5.22305 16.3514 5.24994 16.4184 5.24994L20.6903 5.24996C21.8442 5.24996 22.6822 6.34717 22.3786 7.46042L19.924 16.4604C19.7164 17.2217 19.0249 17.7499 18.2357 17.7499H13.4492C12.9487 17.7499 12.4721 17.5356 12.14 17.1612L9.73684 14.4518C9.68939 14.3983 9.62131 14.3677 9.5498 14.3677L5.36952 14.3677C5.12224 14.3677 4.88943 14.3173 4.67924 14.2271L2.78908 21.2812C2.68188 21.6813 2.27062 21.9188 1.87053 21.8116C1.47043 21.7044 1.23299 21.2931 1.3402 20.893L6.51876 1.56633C6.62597 1.16623 7.03722 0.928789 7.43732 1.036C7.83742 1.1432 8.07486 1.55445 7.96765 1.95455L7.93179 2.08838L12.4689 2.08837ZM12.6471 3.66301C12.6001 3.61526 12.5359 3.58837 12.4689 3.58837L7.72192 3.58838C7.60876 3.58838 7.50972 3.66438 7.48044 3.77368L5.12803 12.553C5.08549 12.7117 5.20513 12.8677 5.36952 12.8677L9.5498 12.8677C10.0503 12.8677 10.5269 13.082 10.859 13.4564L13.2622 16.1658C13.3096 16.2193 13.3777 16.2499 13.4492 16.2499H18.2357C18.3484 16.2499 18.4472 16.1745 18.4769 16.0657L20.9314 7.06574C20.9748 6.9067 20.8551 6.74996 20.6903 6.74996L16.4184 6.74994C15.9494 6.74993 15.5001 6.56172 15.1711 6.2275L12.6471 3.66301Z" fill="black"/>
</svg>
