<svg width="24" height="24" viewBox="0 0 24 24" fill="none" xmlns="http://www.w3.org/2000/svg">
<path d="M7.75002 2C7.75002 1.58579 7.41423 1.25 7.00002 1.25C6.5858 1.25 6.25002 1.58579 6.25002 2V3.70187C6.24984 3.71056 6.24976 3.71927 6.24976 3.72801V12.272C6.24976 12.2807 6.24984 12.2894 6.25002 12.2981V22C6.25002 22.4142 6.5858 22.75 7.00002 22.75C7.41423 22.75 7.75002 22.4142 7.75002 22V13.4972C7.81624 13.4834 7.88256 13.464 7.94848 13.4387L19.0556 9.16668C20.124 8.75577 20.124 7.24423 19.0556 6.83332L7.94848 2.56133C7.88256 2.53598 7.81624 2.51658 7.75002 2.50281V2Z" fill="black"/>
</svg>
