<svg width="24" height="24" viewBox="0 0 24 24" fill="none" xmlns="http://www.w3.org/2000/svg">
<path fill-rule="evenodd" clip-rule="evenodd" d="M9.00052 1C9.55281 1 10.0005 1.44772 10.0005 2V2.3132L21.1461 6.59998C22.4282 7.09307 22.4282 8.90692 21.1462 9.40002L10.0005 13.6868V19C10.0005 19.5523 9.55281 20 9.00052 20C8.44824 20 8.00052 19.5523 8.00052 19V2C8.00052 1.44772 8.44824 1 9.00052 1ZM19.2148 8L10.0005 4.45603V11.544L19.2148 8Z" fill="black"/>
<path d="M13.6273 16.8092C13.0075 16.5509 12.2865 16.3481 11.5 16.2101V18C11.5 18.0824 11.496 18.1638 11.4882 18.2442C12.0072 18.353 12.4693 18.4934 12.858 18.6553C13.3286 18.8514 13.6441 19.0594 13.8267 19.2393C13.9152 19.3264 13.9595 19.3942 13.9805 19.437C13.9997 19.4761 14 19.4947 14 19.5C14 19.5053 13.9997 19.5239 13.9805 19.563C13.9595 19.6058 13.9152 19.6736 13.8267 19.7607C13.6441 19.9406 13.3286 20.1486 12.858 20.3447C11.9213 20.735 10.5578 21 9 21C7.44217 21 6.07874 20.735 5.14197 20.3447C4.67141 20.1486 4.35589 19.9406 4.17329 19.7607C4.08484 19.6736 4.04049 19.6058 4.01949 19.563C4.00026 19.5239 4 19.5053 4 19.5C4 19.4947 4.00026 19.4761 4.01949 19.437C4.04049 19.3942 4.08484 19.3264 4.17329 19.2393C4.35589 19.0594 4.67141 18.8514 5.14197 18.6553C5.53065 18.4934 5.99278 18.353 6.51177 18.2442C6.50398 18.1638 6.5 18.0824 6.5 18V16.2101C5.71351 16.3481 4.99252 16.5509 4.37274 16.8092C3.75752 17.0655 3.19436 17.3962 2.76973 17.8145C2.34156 18.2363 2 18.8065 2 19.5C2 20.1935 2.34156 20.7637 2.76973 21.1855C3.19436 21.6038 3.75752 21.9345 4.37274 22.1908C5.60755 22.7053 7.24411 23 9 23C10.7559 23 12.3924 22.7053 13.6273 22.1908C14.2425 21.9345 14.8056 21.6038 15.2303 21.1855C15.6584 20.7637 16 20.1935 16 19.5C16 18.8065 15.6584 18.2363 15.2303 17.8145C14.8056 17.3962 14.2425 17.0655 13.6273 16.8092Z" fill="black"/>
</svg>
