<svg width="24" height="24" viewBox="0 0 24 24" fill="none" xmlns="http://www.w3.org/2000/svg">
<path fill-rule="evenodd" clip-rule="evenodd" d="M9.00028 1C9.55256 1 10.0003 1.44772 10.0003 2V2.3132L21.1459 6.59998C22.4279 7.09307 22.428 8.90692 21.1459 9.40002L10.0003 13.6868V19C10.0003 19.5523 9.55256 20 9.00028 20C8.44799 20 8.00028 19.5523 8.00028 19V2C8.00028 1.44772 8.44799 1 9.00028 1ZM19.2146 8L10.0003 4.45603V11.544L19.2146 8Z" fill="black"/>
<path d="M13.627 16.8092C13.0072 16.5509 12.2862 16.3481 11.4998 16.2101V18C11.4998 18.0824 11.4958 18.1638 11.488 18.2442C12.007 18.353 12.4691 18.4934 12.8578 18.6553C13.3283 18.8514 13.6439 19.0594 13.8265 19.2393C13.9149 19.3264 13.9593 19.3942 13.9803 19.437C13.9995 19.4761 13.9998 19.4947 13.9998 19.5C13.9998 19.5053 13.9995 19.5239 13.9803 19.563C13.9593 19.6058 13.9149 19.6736 13.8265 19.7607C13.6439 19.9406 13.3283 20.1486 12.8578 20.3447C11.921 20.735 10.5576 21 8.99975 21C7.44193 21 6.0785 20.735 5.14173 20.3447C4.67116 20.1486 4.35564 19.9406 4.17305 19.7607C4.0846 19.6736 4.04025 19.6058 4.01925 19.563C4.00002 19.5239 3.99976 19.5053 3.99976 19.5C3.99976 19.4947 4.00002 19.4761 4.01925 19.437C4.04025 19.3942 4.0846 19.3264 4.17305 19.2393C4.35564 19.0594 4.67116 18.8514 5.14173 18.6553C5.53041 18.4934 5.99253 18.353 6.51153 18.2442C6.50374 18.1638 6.49975 18.0824 6.49975 18V16.2101C5.71326 16.3481 4.99228 16.5509 4.3725 16.8092C3.75728 17.0655 3.19412 17.3962 2.76948 17.8145C2.34132 18.2363 1.99976 18.8065 1.99976 19.5C1.99976 20.1935 2.34132 20.7637 2.76948 21.1855C3.19412 21.6038 3.75728 21.9345 4.3725 22.1908C5.60731 22.7053 7.24387 23 8.99975 23C10.7556 23 12.3922 22.7053 13.627 22.1908C14.2422 21.9345 14.8054 21.6038 15.23 21.1855C15.6582 20.7637 15.9998 20.1935 15.9998 19.5C15.9998 18.8065 15.6582 18.2363 15.23 17.8145C14.8054 17.3962 14.2422 17.0655 13.627 16.8092Z" fill="black"/>
</svg>
