<svg width="24" height="24" viewBox="0 0 24 24" fill="none" xmlns="http://www.w3.org/2000/svg">
<path fill-rule="evenodd" clip-rule="evenodd" d="M9.00029 0.75C9.69064 0.75 10.2503 1.30964 10.2503 2V2.21836C10.4357 2.23963 10.6227 2.28474 10.808 2.356L21.2357 6.36664C22.7314 6.94192 22.7314 9.05808 21.2357 9.63335L10.808 13.644C10.6227 13.7153 10.4357 13.7604 10.2503 13.7816V19C10.2503 19.6904 9.69064 20.25 9.00029 20.25C8.30993 20.25 7.75029 19.6904 7.75029 19V2C7.75029 1.30964 8.30993 0.75 9.00029 0.75ZM18.5182 8L10.2503 4.82004V11.18L18.5182 8Z" fill="black"/>
<path fill-rule="evenodd" clip-rule="evenodd" d="M13.723 16.5784C13.0731 16.3076 12.3192 16.0972 11.4996 15.9563V18C11.4996 18.1684 11.483 18.3329 11.4513 18.4919C11.9501 18.5973 12.392 18.7321 12.7615 18.8861C13.214 19.0746 13.4986 19.2673 13.6509 19.4174C13.6854 19.4513 13.7092 19.4789 13.7254 19.5C13.7092 19.5211 13.6854 19.5486 13.6509 19.5826C13.4986 19.7327 13.214 19.9254 12.7615 20.1139C11.862 20.4887 10.5327 20.75 8.99963 20.75C7.46657 20.75 6.13727 20.4887 5.23776 20.1139C4.78528 19.9254 4.50071 19.7327 4.34837 19.5826C4.31387 19.5486 4.29009 19.5211 4.27391 19.5C4.29009 19.4789 4.31387 19.4513 4.34837 19.4174C4.50071 19.2673 4.78528 19.0746 5.23776 18.8861C5.60723 18.7321 6.0492 18.5973 6.54802 18.4919C6.51628 18.3329 6.49963 18.1684 6.49963 18V15.9563C5.68011 16.0972 4.92614 16.3076 4.27622 16.5784C3.64292 16.8422 3.04881 17.1883 2.59391 17.6364C2.13462 18.0888 1.74963 18.7194 1.74963 19.5C1.74963 20.2806 2.13462 20.9111 2.59391 21.3636C3.04881 21.8117 3.64292 22.1577 4.27622 22.4216C5.54829 22.9516 7.21899 23.25 8.99963 23.25C10.7803 23.25 12.451 22.9516 13.723 22.4216C14.3563 22.1577 14.9505 21.8117 15.4054 21.3636C15.8647 20.9111 16.2496 20.2806 16.2496 19.5C16.2496 18.7194 15.8647 18.0888 15.4054 17.6364C14.9505 17.1883 14.3563 16.8422 13.723 16.5784ZM4.2443 19.5455C4.24224 19.5498 4.24162 19.552 4.24182 19.552C4.24188 19.552 4.24164 19.5523 4.24182 19.552C4.24227 19.5511 4.24341 19.5486 4.2443 19.5455ZM13.7571 19.4485C13.7567 19.4494 13.7559 19.4514 13.755 19.4545C13.7558 19.4526 13.7565 19.4512 13.7569 19.4501C13.7574 19.4487 13.7572 19.4485 13.7571 19.4485C13.7571 19.4485 13.7573 19.4482 13.7571 19.4485Z" fill="black"/>
</svg>
