<svg width="24" height="24" viewBox="0 0 24 24" fill="none" xmlns="http://www.w3.org/2000/svg">
<path fill-rule="evenodd" clip-rule="evenodd" d="M8.25002 2C8.25002 1.30964 7.69037 0.75 7.00002 0.75C6.30966 0.75 5.75002 1.30964 5.75002 2V3.69707C5.74984 3.70736 5.74976 3.71767 5.74976 3.72801V12.272C5.74976 12.2823 5.74984 12.2926 5.75002 12.3029V22C5.75002 22.6904 6.30966 23.25 7.00002 23.25C7.69037 23.25 8.25002 22.6904 8.25002 22V13.8584L19.2351 9.63335C20.7309 9.05808 20.7308 6.94192 19.2351 6.36664L8.25002 2.1416V2ZM8.25002 4.82014L16.5177 8L8.25002 11.1799V4.82014Z" fill="black"/>
</svg>
