<svg width="24" height="24" viewBox="0 0 24 24" fill="none" xmlns="http://www.w3.org/2000/svg">
<path fill-rule="evenodd" clip-rule="evenodd" d="M9.00039 1.25C9.4146 1.25 9.75039 1.58579 9.75039 2V2.4849L21.0563 6.83332C22.1246 7.24423 22.1247 8.75577 21.0563 9.16668L9.75039 13.5151V20C9.75039 20.4142 9.4146 20.75 9.00039 20.75C8.58618 20.75 8.25039 20.4142 8.25039 20V1.90798L8.25573 1.91003C8.30018 1.53824 8.61662 1.25 9.00039 1.25ZM19.9111 8L9.75039 4.09202V11.908L19.9111 8Z" fill="black"/>
<path fill-rule="evenodd" clip-rule="evenodd" d="M13.4798 17.8743C12.7768 17.6399 11.9311 17.4634 11 17.3589V18.8693C11.7722 18.965 12.4546 19.1137 13.0055 19.2973C13.5047 19.4637 13.8546 19.6453 14.0643 19.8106C14.1868 19.9071 14.2303 19.9714 14.2448 20C14.2303 20.0286 14.1868 20.0929 14.0643 20.1894C13.8546 20.3547 13.5047 20.5363 13.0055 20.7027C12.0149 21.0329 10.5987 21.25 9 21.25C7.40132 21.25 5.98512 21.0329 4.99453 20.7027C4.49531 20.5363 4.14542 20.3547 3.93574 20.1894C3.81324 20.0929 3.76975 20.0286 3.75516 20C3.76975 19.9714 3.81324 19.9071 3.93574 19.8106C4.14542 19.6453 4.49531 19.4637 4.99453 19.2973C5.54536 19.1137 6.22778 18.965 7 18.8693V17.3589C6.06886 17.4634 5.22316 17.6399 4.52019 17.8743C3.93362 18.0698 3.40483 18.3191 3.00728 18.6325C2.61818 18.9391 2.25 19.3956 2.25 20C2.25 20.6044 2.61818 21.0609 3.00728 21.3675C3.40483 21.6809 3.93362 21.9302 4.52019 22.1257C5.70117 22.5194 7.28497 22.75 9 22.75C10.715 22.75 12.2988 22.5194 13.4798 22.1257C14.0664 21.9302 14.5952 21.6809 14.9927 21.3675C15.3818 21.0609 15.75 20.6044 15.75 20C15.75 19.3956 15.3818 18.9391 14.9927 18.6325C14.5952 18.3191 14.0664 18.0698 13.4798 17.8743ZM3.74842 19.9838C3.74839 19.9838 3.74831 19.9833 3.74842 19.9838Z" fill="black"/>
</svg>
