<svg width="24" height="24" viewBox="0 0 24 24" fill="none" xmlns="http://www.w3.org/2000/svg">
<path fill-rule="evenodd" clip-rule="evenodd" d="M7.50002 2C7.50002 1.72386 7.27616 1.5 7.00002 1.5C6.72388 1.5 6.50002 1.72386 6.50002 2V3.70463C6.49984 3.7124 6.49976 3.72019 6.49976 3.72801V12.272C6.49976 12.2798 6.49984 12.2876 6.50002 12.2954V22C6.50002 22.2761 6.72388 22.5 7.00002 22.5C7.27616 22.5 7.50002 22.2761 7.50002 22V13.2729C7.61817 13.2728 7.73927 13.2513 7.85874 13.2053L18.9659 8.93335C19.8206 8.60462 19.8206 7.39538 18.9659 7.06665L7.85874 2.79467C7.73927 2.74872 7.61817 2.72724 7.50002 2.72708V2ZM7.50002 3.72812L18.6069 8L7.50002 12.2719V3.72812Z" fill="black"/>
</svg>
