<svg width="24" height="24" viewBox="0 0 24 24" fill="none" xmlns="http://www.w3.org/2000/svg">
<path d="M8.00026 2C8.00026 1.44772 7.55255 1 7.00026 1C6.44798 1 6.00026 1.44772 6.00026 2V3.69937C6.00009 3.70889 6 3.71844 6 3.72801V12.272C6 12.2816 6.00009 12.2911 6.00026 12.3006V22C6.00026 22.5523 6.44798 23 7.00026 23C7.55255 23 8.00026 22.5523 8.00026 22V13.6861C8.01301 13.6816 8.02574 13.6769 8.03847 13.672L19.1456 9.40002C20.4277 8.90692 20.4277 7.09307 19.1456 6.59998L8.03847 2.328C8.02574 2.3231 8.01301 2.31839 8.00026 2.31387V2Z" fill="black"/>
</svg>
