<svg width="24" height="24" viewBox="0 0 24 24" fill="none" xmlns="http://www.w3.org/2000/svg">
<path d="M7.25002 2C7.25002 1.86193 7.13809 1.75 7.00002 1.75C6.86195 1.75 6.75002 1.86193 6.75002 2V3.70777C6.74984 3.71449 6.74976 3.72124 6.74976 3.72801V12.272C6.74976 12.2788 6.74984 12.2855 6.75002 12.2922V22C6.75002 22.1381 6.86195 22.25 7.00002 22.25C7.13809 22.25 7.25002 22.1381 7.25002 22V12.9795C7.41016 13.0365 7.59196 13.0401 7.76899 12.972L18.8762 8.70001C19.5172 8.45346 19.5172 7.54654 18.8762 7.29999L7.76899 3.02801C7.59196 2.95992 7.41016 2.96346 7.25002 3.02047V2Z" fill="black"/>
</svg>
