<svg width="24" height="24" viewBox="0 0 24 24" fill="none" xmlns="http://www.w3.org/2000/svg">
<path d="M9.00026 1.75C9.13833 1.75 9.25026 1.86193 9.25026 2V2.8283L20.8767 7.29999C21.5177 7.54654 21.5177 8.45346 20.8767 8.70001L9.25026 13.1717V20C9.25026 20.1381 9.13833 20.25 9.00026 20.25C8.86219 20.25 8.75026 20.1381 8.75026 20V2C8.75026 1.86193 8.86219 1.75 9.00026 1.75Z" fill="black"/>
<path d="M9.75 20V18.7653C11.1294 18.8218 12.3733 19.0325 13.3217 19.3486C13.8791 19.5344 14.3483 19.7612 14.6832 20.0252C15.0153 20.2869 15.25 20.6144 15.25 21C15.25 21.3856 15.0153 21.7131 14.6832 21.9748C14.3483 22.2388 13.8791 22.4656 13.3217 22.6514C12.2042 23.0239 10.6762 23.25 9 23.25C7.32375 23.25 5.79582 23.0239 4.6783 22.6514C4.12085 22.4656 3.6517 22.2388 3.31677 21.9748C2.98466 21.7131 2.75 21.3856 2.75 21C2.75 20.6144 2.98466 20.2869 3.31677 20.0252C3.6517 19.7612 4.12085 19.5344 4.6783 19.3486C5.62668 19.0325 6.87065 18.8218 8.25 18.7653V20C8.25 20.4142 8.58579 20.75 9 20.75C9.41421 20.75 9.75 20.4142 9.75 20Z" fill="black"/>
</svg>
