<svg width="24" height="24" viewBox="0 0 24 24" fill="none" xmlns="http://www.w3.org/2000/svg">
<path d="M8.00002 2C8.00002 1.44772 7.5523 1 7.00002 1C6.44773 1 6.00002 1.44772 6.00002 2V3.69937C5.99984 3.70889 5.99976 3.71844 5.99976 3.72801V12.272C5.99976 12.2816 5.99984 12.2911 6.00002 12.3006V22C6.00002 22.5523 6.44773 23 7.00002 23C7.5523 23 8.00002 22.5523 8.00002 22V13.6861C8.01276 13.6816 8.0255 13.6769 8.03823 13.672L19.1454 9.40002C20.4274 8.90692 20.4274 7.09307 19.1454 6.59998L8.03822 2.328C8.0255 2.3231 8.01276 2.31839 8.00002 2.31387V2Z" fill="black"/>
</svg>
