<svg width="24" height="24" viewBox="0 0 24 24" fill="none" xmlns="http://www.w3.org/2000/svg">
<path d="M7.50026 2C7.50026 1.72386 7.2764 1.5 7.00026 1.5C6.72412 1.5 6.50026 1.72386 6.50026 2V3.70463C6.50009 3.7124 6.5 3.72019 6.5 3.72801V12.272C6.5 12.2798 6.50009 12.2876 6.50026 12.2954V22C6.50026 22.2761 6.72412 22.5 7.00026 22.5C7.2764 22.5 7.50026 22.2761 7.50026 22V13.2729C7.61842 13.2728 7.73951 13.2513 7.85898 13.2053L18.9661 8.93335C19.8208 8.60462 19.8208 7.39538 18.9661 7.06665L7.85898 2.79467C7.73951 2.74872 7.61842 2.72724 7.50026 2.72708V2Z" fill="black"/>
</svg>
