<svg width="24" height="24" viewBox="0 0 24 24" fill="none" xmlns="http://www.w3.org/2000/svg">
<path d="M13.6535 3.26008C13.2306 2.83036 12.6529 2.58837 12.0499 2.58837L7.72179 2.58838C7.55839 2.58838 7.40088 2.62008 7.25596 2.67833L7.48457 1.82514C7.5203 1.69178 7.44116 1.55469 7.30779 1.51896C7.17442 1.48322 7.03734 1.56237 7.0016 1.69573L1.82303 21.0224C1.7873 21.1558 1.86644 21.2929 1.99981 21.3286C2.13318 21.3643 2.27026 21.2852 2.306 21.1518L4.38597 13.3893C4.61202 13.6775 4.96342 13.8677 5.36939 13.8677L9.09997 13.8677C9.60049 13.8677 10.0771 14.082 10.4092 14.4564L12.5139 16.8294C12.7512 17.0968 13.0916 17.2499 13.4491 17.2499H18.2356C18.7993 17.2499 19.2932 16.8727 19.4415 16.3288L21.8961 7.32885C22.113 6.53368 21.5144 5.74996 20.6901 5.74996L16.4183 5.74993C16.2173 5.74993 16.0247 5.66927 15.8837 5.52603L13.6535 3.26008Z" fill="black"/>
</svg>
