<svg width="24" height="24" viewBox="0 0 24 24" fill="none" xmlns="http://www.w3.org/2000/svg">
<path d="M13 1L13.2475 1.03536C13.2614 0.937751 13.2167 0.841067 13.1333 0.788498C13.0499 0.73593 12.9434 0.737296 12.8613 0.791987L13 1ZM15.7025 9.37418L15.8094 9.14821L15.7025 9.37418ZM17.8352 8.48817L18.0435 8.34992L17.8352 8.48817ZM17.0812 8.41884L17.2579 8.59562L17.0812 8.41884ZM19.75 15C19.75 19.2802 16.2802 22.75 12 22.75V23.25C16.5563 23.25 20.25 19.5563 20.25 15H19.75ZM12 22.75C7.71979 22.75 4.25 19.2802 4.25 15H3.75C3.75 19.5563 7.44365 23.25 12 23.25V22.75ZM4.25 15C4.25 11.092 6.45101 7.65037 8.68582 5.16724C9.80014 3.92911 10.9152 2.93791 11.7517 2.25631C12.1697 1.91566 12.5178 1.65273 12.7607 1.47534C12.8822 1.38666 12.9773 1.31939 13.0418 1.2745C13.074 1.25206 13.0986 1.23521 13.1149 1.22409C13.1231 1.21853 13.1292 1.2144 13.1332 1.21171C13.1352 1.21037 13.1366 1.20939 13.1375 1.20877C13.138 1.20846 13.1383 1.20825 13.1385 1.20812C13.1386 1.20806 13.1386 1.20803 13.1387 1.208C13.1387 1.20799 13.1387 1.20801 13 1C12.8613 0.791987 12.8612 0.792052 12.8611 0.79214C12.861 0.792199 12.8608 0.79231 12.8607 0.792429C12.8603 0.792668 12.8598 0.792998 12.8592 0.79342C12.8579 0.794264 12.8561 0.795472 12.8538 0.797044C12.8491 0.800188 12.8423 0.804785 12.8335 0.810821C12.8157 0.822892 12.7898 0.840716 12.7561 0.864172C12.6887 0.911081 12.5905 0.980527 12.4659 1.07153C12.2166 1.25352 11.8615 1.52184 11.4358 1.86869C10.5848 2.56209 9.44986 3.57089 8.31418 4.83276C6.04899 7.34963 3.75 10.908 3.75 15H4.25ZM17.6269 8.62642C18.7741 10.3549 19.75 12.4773 19.75 15H20.25C20.25 12.3431 19.2211 10.1243 18.0435 8.34992L17.6269 8.62642ZM13 1C12.7525 0.964645 12.7525 0.96474 12.7525 0.96486C12.7525 0.964934 12.7525 0.965079 12.7524 0.965227C12.7524 0.965523 12.7523 0.965919 12.7523 0.966416C12.7521 0.96741 12.7519 0.968805 12.7517 0.970596C12.7512 0.974179 12.7505 0.979346 12.7496 0.986053C12.7478 0.999466 12.7452 1.01904 12.7421 1.04443C12.7358 1.09519 12.7272 1.16921 12.7176 1.26365C12.6984 1.45249 12.6752 1.72324 12.659 2.05319C12.6266 2.71229 12.6218 3.61158 12.7335 4.56806C12.9541 6.45896 13.6431 8.67628 15.5956 9.60016L15.8094 9.14821C14.11 8.34406 13.4477 6.37429 13.2301 4.5101C13.1226 3.58904 13.1269 2.71879 13.1584 2.07773C13.1741 1.75761 13.1966 1.49562 13.2151 1.31425C13.2243 1.22359 13.2325 1.15313 13.2383 1.1057C13.2413 1.08198 13.2436 1.06403 13.2452 1.05218C13.246 1.04626 13.2466 1.04187 13.247 1.03905C13.2472 1.03764 13.2473 1.03662 13.2474 1.03601C13.2474 1.0357 13.2475 1.03549 13.2475 1.03538C13.2475 1.03533 13.2475 1.03532 13.2475 1.03529C13.2475 1.03531 13.2475 1.03536 13 1ZM16.4044 9.44912L17.2579 8.59562L16.9044 8.24207L16.0509 9.09557L16.4044 9.44912ZM15.5956 9.60016C15.8785 9.73404 16.1994 9.65412 16.4044 9.44912L16.0509 9.09557C15.9786 9.16785 15.881 9.18206 15.8094 9.14821L15.5956 9.60016ZM18.0435 8.34992C17.7817 7.95555 17.231 7.91544 16.9044 8.24207L17.2579 8.59562C17.3693 8.48429 17.5461 8.50475 17.6269 8.62642L18.0435 8.34992Z" fill="black"/>
<path d="M11 11.5L11.2499 11.4925C11.2468 11.3893 11.1806 11.2986 11.0832 11.2642C10.9858 11.2299 10.8774 11.2589 10.8102 11.3373L11 11.5ZM15.75 19C15.75 21.0711 14.0711 22.75 12 22.75V23.25C14.3472 23.25 16.25 21.3472 16.25 19H15.75ZM12 22.75C9.92893 22.75 8.25 21.0711 8.25 19H7.75C7.75 21.3472 9.65279 23.25 12 23.25V22.75ZM8.25 19C8.25 17.059 8.97923 15.2268 9.71947 13.8697C10.0885 13.1931 10.4576 12.6395 10.7341 12.2555C10.8723 12.0635 10.9872 11.9143 11.067 11.8135C11.107 11.7631 11.1381 11.7248 11.1591 11.6995C11.1696 11.6868 11.1775 11.6773 11.1827 11.6711C11.1853 11.6681 11.1872 11.6658 11.1884 11.6644C11.189 11.6637 11.1894 11.6632 11.1896 11.6629C11.1897 11.6628 11.1898 11.6627 11.1899 11.6626C11.1899 11.6626 11.1899 11.6626 11.1899 11.6626C11.1898 11.6627 11.1898 11.6627 11 11.5C10.8102 11.3373 10.8101 11.3374 10.8101 11.3374C10.81 11.3375 10.8099 11.3376 10.8099 11.3377C10.8097 11.3378 10.8095 11.3381 10.8093 11.3384C10.8088 11.3389 10.8081 11.3397 10.8073 11.3407C10.8056 11.3427 10.8032 11.3455 10.8001 11.3492C10.794 11.3565 10.785 11.3672 10.7735 11.3811C10.7505 11.409 10.7173 11.4498 10.6752 11.5029C10.591 11.6092 10.4714 11.7646 10.3284 11.9633C10.0424 12.3605 9.66148 12.9319 9.28053 13.6303C8.52077 15.0232 7.75 16.941 7.75 19H8.25ZM11 11.5C10.7501 11.5075 10.7501 11.5076 10.7501 11.5077C10.7501 11.5078 10.7501 11.5079 10.7501 11.508C10.7501 11.5082 10.7501 11.5084 10.7501 11.5086C10.7502 11.5091 10.7502 11.5097 10.7502 11.5104C10.7503 11.5118 10.7503 11.5137 10.7504 11.516C10.7506 11.5207 10.7509 11.5271 10.7514 11.5353C10.7523 11.5517 10.7537 11.5751 10.7561 11.6046C10.7609 11.6637 10.7693 11.7479 10.784 11.8518C10.8135 12.0592 10.8685 12.3467 10.9708 12.6699C11.1748 13.3137 11.5727 14.117 12.35 14.7L12.65 14.3C11.9851 13.8013 11.633 13.1046 11.4475 12.5189C11.3551 12.2273 11.3055 11.9676 11.2791 11.7815C11.2659 11.6886 11.2585 11.6145 11.2545 11.5645C11.2525 11.5395 11.2513 11.5205 11.2506 11.5083C11.2503 11.5022 11.2501 11.4977 11.25 11.4951C11.2499 11.4937 11.2499 11.4929 11.2499 11.4924C11.2499 11.4922 11.2499 11.4921 11.2499 11.4921C11.2499 11.4921 11.2499 11.4921 11.2499 11.4922C11.2499 11.4922 11.2499 11.4923 11.2499 11.4923C11.2499 11.4924 11.2499 11.4925 11 11.5ZM12.35 14.7C13.0793 15.247 13.9324 15.8567 14.6086 16.5768C15.2833 17.2952 15.75 18.0912 15.75 19H16.25C16.25 17.9088 15.6878 16.9956 14.9731 16.2345C14.2598 15.4749 13.3629 14.8347 12.65 14.3L12.35 14.7Z" fill="black"/>
</svg>
