<svg width="24" height="24" viewBox="0 0 24 24" fill="none" xmlns="http://www.w3.org/2000/svg">
<path fill-rule="evenodd" clip-rule="evenodd" d="M17.4277 8.77832C18.5557 10.4812 19.5 12.5509 19.5 15C19.5 17.7797 17.9877 20.2063 15.7411 21.5018C16.2204 20.7864 16.5 19.9259 16.5 19.0001C16.5 17.8178 15.89 16.846 15.1553 16.0635C14.5031 15.3691 13.7025 14.7726 13.0372 14.2769C12.9559 14.2163 12.8766 14.1573 12.7998 14.0997C12.1913 13.6431 11.8618 12.9999 11.6855 12.4434C11.5982 12.1676 11.5513 11.9216 11.5264 11.7462C11.514 11.6589 11.5076 11.5894 11.5039 11.544L11.5021 11.5223L11.5021 11.5222C11.5011 11.5107 11.5004 11.5016 11.5 11.4952V11.4835C11.4932 11.2777 11.3602 11.0969 11.166 11.0284C10.9959 10.9685 10.8089 11.0053 10.6748 11.1202L10.6191 11.1758L10.6184 11.177L10.6172 11.1788L10.614 11.1822L10.6084 11.1885L10.5944 11.2055L10.5811 11.2217C10.5571 11.2508 10.5226 11.2933 10.4795 11.3477C10.3931 11.4567 10.2705 11.6153 10.125 11.8174C9.83428 12.2213 9.44831 12.8017 9.06152 13.5108C8.29201 14.9216 7.5 16.882 7.5 19.0001C7.5 19.9259 7.7796 20.7864 8.25894 21.5018C6.01226 20.2063 4.5 17.7797 4.5 15C4.5 11.1841 6.65246 7.80121 8.87207 5.33496C9.97558 4.10883 11.0799 3.1259 11.9092 2.4502C12.0894 2.30335 12.2573 2.17162 12.4082 2.05469C12.376 2.72149 12.3725 3.6293 12.4854 4.59668C12.7076 6.50084 13.4095 8.84235 15.4883 9.82617C15.8768 10.01 16.3097 9.89724 16.5811 9.62598L17.4277 8.77832ZM11.9648 23.4999C7.28659 23.481 3.5 19.6827 3.5 15C3.5 10.8159 5.84756 7.19879 8.12793 4.66504C9.27427 3.39133 10.4201 2.37409 11.2783 1.6748C11.7077 1.32497 12.066 1.05339 12.3184 0.869141C12.4445 0.777057 12.5445 0.707078 12.6133 0.65918C12.6475 0.635385 12.674 0.617029 12.6924 0.604492L12.7139 0.589844L12.7197 0.585938L12.7217 0.584961L12.7227 0.583984L12.7861 0.547852C12.9391 0.475445 13.1206 0.485137 13.2666 0.577148C13.4333 0.682223 13.5228 0.875274 13.4951 1.07031V1.07129L13.4941 1.07324C13.494 1.07422 13.4939 1.07546 13.4939 1.07695C13.4937 1.07911 13.4936 1.0818 13.4932 1.08496C13.4928 1.08777 13.4923 1.09101 13.4918 1.09466C13.4904 1.10539 13.4884 1.11965 13.4863 1.13672C13.4807 1.18249 13.4729 1.25133 13.4639 1.33984C13.4458 1.51744 13.4237 1.77487 13.4082 2.08984C13.3771 2.72187 13.3731 3.57809 13.4785 4.48145C13.6931 6.31991 14.3354 8.15249 15.8857 8.90625L16.7275 8.06543L16.8125 7.98926C17.2234 7.66228 17.8337 7.70611 18.1816 8.11816L18.252 8.21191L18.4736 8.55371C19.5726 10.2938 20.5 12.4461 20.5 15C20.5 19.6829 16.7131 23.4813 12.0345 23.4999C12.023 23.5 12.0115 23.5001 12 23.5001C11.9883 23.5001 11.9765 23.5 11.9648 23.4999Z" fill="black"/>
</svg>
