<svg width="24" height="24" viewBox="0 0 24 24" fill="none" xmlns="http://www.w3.org/2000/svg">
<path fill-rule="evenodd" clip-rule="evenodd" d="M17.3857 9.17383C18.4218 10.8017 19.25 12.7381 19.25 15C19.25 17.3415 18.14 19.4237 16.4175 20.7492C16.6321 20.2078 16.75 19.6176 16.75 18.9998C16.75 17.7266 16.0925 16.6961 15.3379 15.8924C14.6704 15.1817 13.8522 14.5723 13.1892 14.0787L13.1886 14.0782C13.1066 14.0171 13.0269 13.9578 12.9502 13.9002C12.3977 13.4859 12.0909 12.8955 11.9238 12.368C11.8415 12.108 11.7978 11.8756 11.7744 11.7108C11.7628 11.629 11.7562 11.5652 11.7529 11.5243C11.7513 11.504 11.7504 11.4894 11.75 11.4813V11.4745C11.7396 11.1662 11.541 10.8957 11.25 10.7928C10.958 10.6898 10.6322 10.7765 10.4307 11.0116V11.0125H10.4297L10.4258 11.0165C10.4248 11.0176 10.4239 11.019 10.4228 11.0206C10.4215 11.0226 10.4199 11.0249 10.418 11.0272L10.4083 11.0384C10.4024 11.0451 10.3954 11.053 10.3877 11.0624C10.3627 11.0927 10.3275 11.1364 10.2832 11.1922C10.1947 11.3039 10.0707 11.4654 9.92285 11.6707C9.62737 12.0811 9.2346 12.6704 8.8418 13.3905C8.06253 14.8191 7.25 16.8228 7.25 18.9998C7.25 19.6176 7.36794 20.2078 7.58251 20.7492C5.86 19.4237 4.75 17.3415 4.75 15C4.75 11.2761 6.85319 7.95133 9.05762 5.50195C10.1506 4.28755 11.2453 3.31337 12.0674 2.64355C12.0812 2.63228 12.0951 2.62121 12.1089 2.61023C12.1199 2.60146 12.1308 2.59273 12.1416 2.58398C12.1316 3.17657 12.1506 3.88343 12.2373 4.62598C12.4611 6.54357 13.1763 9.00814 15.3818 10.0518C15.8761 10.2856 16.4201 10.1404 16.7578 9.80273L17.3857 9.17383ZM12 23.75C16.8325 23.75 20.75 19.8325 20.75 15C20.75 12.2089 19.6681 9.89353 18.46 8.07324C18.0448 7.4479 17.2059 7.35621 16.6562 7.79395L16.5508 7.88867L15.8408 8.59766C14.5242 7.85827 13.9317 6.20962 13.7266 4.45215C13.6232 3.56662 13.6276 2.72551 13.6582 2.10254C13.6734 1.79244 13.6952 1.53913 13.7129 1.36523C13.7217 1.27838 13.7289 1.2111 13.7344 1.16699C13.7362 1.15258 13.7379 1.14054 13.7394 1.13105C13.7401 1.12603 13.7407 1.12172 13.7412 1.11816C13.7416 1.11513 13.7418 1.11259 13.7419 1.1106C13.742 1.10929 13.7421 1.10823 13.7422 1.10742V1.10645C13.784 0.813631 13.6497 0.52294 13.3994 0.365234C13.1806 0.227523 12.909 0.213838 12.6797 0.322266L12.584 0.375977L12.583 0.376953L12.5811 0.37793L12.5742 0.382813C12.572 0.384276 12.5695 0.385923 12.5665 0.387793C12.5623 0.390506 12.5573 0.393688 12.5518 0.397461C12.5408 0.404898 12.5273 0.414386 12.5112 0.425706C12.4992 0.434175 12.4857 0.443671 12.4707 0.454102C12.4004 0.503034 12.2987 0.574643 12.1709 0.667969C11.9154 0.854562 11.5533 1.12849 11.1201 1.48145C10.2547 2.18662 9.09936 3.21253 7.94238 4.49805C5.64682 7.04867 3.25 10.7239 3.25 15C3.25 19.8325 7.16751 23.75 12 23.75Z" fill="black"/>
</svg>
