<svg width="24" height="24" viewBox="0 0 24 24" fill="none" xmlns="http://www.w3.org/2000/svg">
<path d="M13 1L13.495 1.07071C13.5229 0.875501 13.4334 0.682133 13.2666 0.576997C13.0998 0.47186 12.8867 0.474593 12.7226 0.583975L13 1ZM15.7025 9.37418L15.9164 8.92223L15.7025 9.37418ZM17.8352 8.48817L18.2518 8.21167L17.8352 8.48817ZM17.0812 8.41884L17.4347 8.7724L17.0812 8.41884ZM19.5 15C19.5 19.1421 16.1421 22.5 12 22.5V23.5C16.6944 23.5 20.5 19.6944 20.5 15H19.5ZM12 22.5C7.85786 22.5 4.5 19.1421 4.5 15H3.5C3.5 19.6944 7.30558 23.5 12 23.5V22.5ZM4.5 15C4.5 11.1841 6.65202 7.80073 8.87165 5.33448C9.97529 4.10822 11.0803 3.12582 11.9096 2.45012C12.3239 2.11256 12.6683 1.85233 12.9081 1.67725C13.028 1.58973 13.1216 1.52354 13.1846 1.47966C13.2161 1.45773 13.24 1.44137 13.2556 1.43073C13.2634 1.4254 13.2692 1.4215 13.2728 1.41905C13.2747 1.41782 13.276 1.41695 13.2767 1.41645C13.2771 1.4162 13.2773 1.41604 13.2774 1.41596C13.2775 1.41593 13.2775 1.41594 13.2775 1.41593C13.2774 1.41596 13.2774 1.41603 13 1C12.7226 0.583975 12.7225 0.584081 12.7223 0.58421C12.7222 0.584284 12.722 0.584437 12.7217 0.584584C12.7213 0.584879 12.7207 0.585265 12.72 0.585744C12.7186 0.5867 12.7166 0.588022 12.7141 0.589709C12.7091 0.593083 12.702 0.597913 12.6927 0.604186C12.6743 0.61673 12.6476 0.635045 12.6132 0.659007C12.5444 0.706929 12.4447 0.777459 12.3184 0.869625C12.066 1.05392 11.7074 1.32494 11.2779 1.67488C10.4197 2.37418 9.27471 3.39178 8.12835 4.66552C5.84798 7.19927 3.5 10.8159 3.5 15H4.5ZM17.4186 8.76467C18.5505 10.4702 19.5 12.5444 19.5 15H20.5C20.5 12.276 19.4447 10.009 18.2518 8.21167L17.4186 8.76467ZM13 1C12.505 0.929289 12.505 0.929454 12.505 0.929644C12.505 0.929741 12.5049 0.929956 12.5049 0.930151C12.5048 0.930539 12.5048 0.93103 12.5047 0.93162C12.5045 0.932802 12.5043 0.934387 12.504 0.936369C12.5035 0.940333 12.5027 0.945887 12.5018 0.952987C12.4999 0.967186 12.4972 0.987572 12.494 1.01379C12.4875 1.06622 12.4787 1.14202 12.4689 1.23835C12.4493 1.43093 12.4258 1.70605 12.4093 2.04092C12.3765 2.70905 12.3714 3.62285 12.4851 4.59704C12.7074 6.5013 13.4096 8.8424 15.4886 9.82614L15.9164 8.92223C14.3434 8.17794 13.6944 6.33195 13.4784 4.48112C13.373 3.57777 13.377 2.72203 13.4081 2.09001C13.4236 1.77479 13.4457 1.51719 13.4638 1.33955C13.4728 1.25078 13.4808 1.1821 13.4865 1.13633C13.4893 1.11345 13.4915 1.09631 13.493 1.08525C13.4937 1.07972 13.4943 1.07572 13.4946 1.07328C13.4948 1.07206 13.4949 1.07123 13.495 1.0708C13.495 1.07059 13.495 1.07047 13.495 1.07046C13.495 1.07045 13.495 1.07051 13.495 1.07051C13.495 1.0706 13.495 1.07071 13 1ZM16.5812 9.6259L17.4347 8.7724L16.7276 8.06529L15.8741 8.91879L16.5812 9.6259ZM15.4886 9.82614C15.8773 10.01 16.3099 9.89725 16.5812 9.6259L15.8741 8.91879C15.8733 8.91964 15.8743 8.91787 15.8802 8.91667C15.8873 8.91523 15.9013 8.9151 15.9164 8.92223L15.4886 9.82614ZM18.2518 8.21167C17.8995 7.68095 17.1619 7.63102 16.7276 8.06529L17.4347 8.7724C17.4359 8.77125 17.4356 8.77184 17.4341 8.77234C17.4333 8.77265 17.4325 8.77273 17.4317 8.77266C17.4308 8.77258 17.4285 8.77219 17.4252 8.7703C17.4235 8.76934 17.422 8.76816 17.4206 8.76688C17.4192 8.76557 17.4186 8.76465 17.4186 8.76467L18.2518 8.21167Z" fill="black"/>
<path d="M11 11.5L11.4998 11.4849C11.4936 11.2786 11.3611 11.0972 11.1664 11.0285C10.9717 10.9598 10.7548 11.0178 10.6204 11.1746L11 11.5ZM15.5 19C15.5 20.933 13.933 22.5 12 22.5V23.5C14.4853 23.5 16.5 21.4853 16.5 19H15.5ZM12 22.5C10.067 22.5 8.5 20.933 8.5 19H7.5C7.5 21.4853 9.51472 23.5 12 23.5V22.5ZM8.5 19C8.5 17.118 9.20846 15.3287 9.93895 13.9894C10.302 13.3237 10.6653 12.7789 10.937 12.4015C11.0727 12.213 11.1853 12.0668 11.263 11.9687C11.3018 11.9197 11.3319 11.8828 11.3519 11.8586C11.3618 11.8466 11.3693 11.8377 11.3739 11.8321C11.3763 11.8293 11.3779 11.8274 11.3789 11.8263C11.3794 11.8257 11.3797 11.8253 11.3798 11.8252C11.3799 11.8251 11.3799 11.8251 11.3799 11.8251C11.3798 11.8252 11.3798 11.8252 11.3798 11.8252C11.3797 11.8253 11.3796 11.8254 11 11.5C10.6204 11.1746 10.6203 11.1747 10.6202 11.1749C10.6201 11.1749 10.62 11.1751 10.6199 11.1752C10.6197 11.1754 10.6194 11.1757 10.6191 11.1761C10.6185 11.1768 10.6177 11.1777 10.6168 11.1789C10.6148 11.1811 10.6122 11.1842 10.6088 11.1882C10.6022 11.1961 10.5928 11.2074 10.5808 11.2219C10.5567 11.251 10.5224 11.2932 10.4792 11.3477C10.3929 11.4566 10.271 11.6151 10.1255 11.8172C9.83472 12.2211 9.44795 12.8013 9.06105 13.5106C8.29154 14.9213 7.5 16.882 7.5 19H8.5ZM11 11.5C10.5002 11.5151 10.5002 11.5152 10.5002 11.5154C10.5002 11.5155 10.5002 11.5157 10.5003 11.5159C10.5003 11.5162 10.5003 11.5165 10.5003 11.5168C10.5003 11.5176 10.5003 11.5184 10.5004 11.5193C10.5004 11.5212 10.5005 11.5236 10.5006 11.5265C10.5009 11.5321 10.5012 11.5396 10.5017 11.5488C10.5027 11.5673 10.5043 11.5928 10.5069 11.6247C10.512 11.6884 10.521 11.7776 10.5365 11.887C10.5675 12.105 10.6251 12.4064 10.7325 12.7453C10.9457 13.4183 11.3665 14.2749 12.2 14.9L12.8 14.1C12.1913 13.6435 11.8621 13 11.6858 12.4434C11.5985 12.1676 11.5515 11.9217 11.5266 11.7463C11.5142 11.6589 11.5073 11.5899 11.5037 11.5444C11.5019 11.5217 11.5008 11.5049 11.5003 11.4948C11.5 11.4897 11.4998 11.4863 11.4998 11.4846C11.4997 11.4838 11.4997 11.4834 11.4997 11.4834C11.4997 11.4835 11.4997 11.4836 11.4997 11.4839C11.4997 11.484 11.4997 11.4841 11.4998 11.4843C11.4998 11.4844 11.4998 11.4846 11.4998 11.4846C11.4998 11.4848 11.4998 11.4849 11 11.5ZM12.2 14.9C12.9374 15.4531 13.7688 16.0476 14.4264 16.7479C15.081 17.445 15.5 18.1823 15.5 19H16.5C16.5 17.8177 15.8901 16.8458 15.1553 16.0633C14.4235 15.284 13.5048 14.6286 12.8 14.1L12.2 14.9Z" fill="black"/>
</svg>
