<svg width="24" height="26" viewBox="0 0 24 26" fill="none" xmlns="http://www.w3.org/2000/svg">
<path d="M13 2L14.2374 2.17678C14.3072 1.68875 14.0835 1.20533 13.6665 0.942491C13.2494 0.679649 12.7168 0.686482 12.3066 0.959937L13 2ZM15.7025 10.3742L16.2371 9.24429L15.7025 10.3742ZM17.8352 9.48817L18.8766 8.79693L17.8352 9.48817ZM17.0812 9.41884L17.965 10.3027L17.0812 9.41884ZM18.75 16C18.75 19.7279 15.7279 22.75 12 22.75V25.25C17.1086 25.25 21.25 21.1086 21.25 16H18.75ZM12 22.75C8.27208 22.75 5.25 19.7279 5.25 16H2.75C2.75 21.1086 6.89137 25.25 12 25.25V22.75ZM5.25 16C5.25 12.4601 7.25505 9.25184 9.42912 6.83621C10.5007 5.64554 11.5758 4.68956 12.3833 4.03154C12.7862 3.70329 13.1201 3.45114 13.3504 3.28297C13.4655 3.19893 13.5545 3.136 13.6132 3.09516C13.6425 3.07474 13.6642 3.05986 13.6778 3.05063C13.6846 3.04602 13.6893 3.04282 13.6919 3.04105C13.6932 3.04017 13.694 3.03965 13.6942 3.03948C13.6944 3.0394 13.6944 3.0394 13.6942 3.0395C13.6941 3.03955 13.6939 3.03969 13.6939 3.03971C13.6937 3.03988 13.6934 3.04006 13 2C12.3066 0.959937 12.3063 0.960169 12.3059 0.960423C12.3057 0.960539 12.3053 0.960817 12.305 0.961048C12.3043 0.961511 12.3034 0.962067 12.3025 0.962714C12.3005 0.964009 12.2981 0.965673 12.295 0.967704C12.289 0.971766 12.2808 0.977296 12.2706 0.98428C12.2501 0.998247 12.2212 1.01803 12.1846 1.04351C12.1115 1.09447 12.0072 1.16826 11.8762 1.26391C11.6143 1.45511 11.245 1.73421 10.8042 2.09346C9.92423 2.81044 8.74928 3.85446 7.57088 5.16379C5.24495 7.74816 2.75 11.5399 2.75 16H5.25ZM16.7937 10.1794C17.8799 11.8161 18.75 13.7456 18.75 16H21.25C21.25 13.0748 20.1153 10.6631 18.8766 8.79693L16.7937 10.1794ZM13 2C11.7626 1.82322 11.7625 1.8236 11.7625 1.824C11.7624 1.82416 11.7624 1.82459 11.7623 1.82492C11.7622 1.82559 11.7621 1.82636 11.762 1.82723C11.7617 1.82898 11.7614 1.83113 11.7611 1.83369C11.7604 1.8388 11.7595 1.84551 11.7584 1.85379C11.7562 1.87035 11.7532 1.89316 11.7496 1.92189C11.7426 1.97931 11.7331 2.06046 11.7228 2.16246C11.702 2.36623 11.6774 2.6545 11.6602 3.0041C11.626 3.69931 11.6203 4.65667 11.7402 5.68399C11.9671 7.6283 12.7093 10.3407 15.1679 11.5041L16.2371 9.24429C15.0438 8.6796 14.4347 7.20495 14.2233 5.39418C14.1241 4.54395 14.1275 3.73177 14.1572 3.12682C14.172 2.82635 14.193 2.58189 14.2099 2.41545C14.2184 2.33234 14.2258 2.26901 14.2308 2.22824C14.2333 2.20786 14.2352 2.19315 14.2364 2.18445C14.237 2.1801 14.2374 2.17725 14.2376 2.17596C14.2376 2.17531 14.2377 2.17505 14.2377 2.17519C14.2377 2.17526 14.2376 2.17542 14.2376 2.17569C14.2376 2.17582 14.2375 2.17609 14.2375 2.17616C14.2375 2.17645 14.2374 2.17678 13 2ZM17.1115 11.1562L17.965 10.3027L16.1973 8.53496L15.3438 9.38846L17.1115 11.1562ZM15.1679 11.5041C15.8736 11.838 16.6411 11.6266 17.1115 11.1562L15.3438 9.38846C15.5369 9.19533 15.8859 9.0781 16.2371 9.24429L15.1679 11.5041ZM18.8766 8.79693C18.2529 7.85714 16.9545 7.77774 16.1973 8.53496L17.965 10.3027C17.6458 10.622 17.0749 10.6032 16.7937 10.1794L18.8766 8.79693Z" fill="black"/>
<path d="M11 12.5L12.2494 12.4624C12.2339 11.9464 11.9028 11.493 11.416 11.3212C10.9292 11.1495 10.3869 11.2946 10.0509 11.6865L11 12.5ZM14.75 20C14.75 21.5188 13.5188 22.75 12 22.75V25.25C14.8995 25.25 17.25 22.8995 17.25 20H14.75ZM12 22.75C10.4812 22.75 9.25 21.5188 9.25 20H6.75C6.75 22.8995 9.1005 25.25 12 25.25V22.75ZM9.25 20C9.25 18.2951 9.89615 16.6341 10.5974 15.3486C10.9426 14.7156 11.2882 14.1974 11.5457 13.8398C11.674 13.6614 11.7795 13.5244 11.8508 13.4346C11.8864 13.3896 11.9133 13.3566 11.9302 13.3362C11.9386 13.3259 11.9445 13.3189 11.9478 13.3151C11.9494 13.3132 11.9503 13.3121 11.9505 13.3118C11.9506 13.3117 11.9506 13.3117 11.9503 13.312C11.9502 13.3122 11.95 13.3124 11.9498 13.3126C11.9497 13.3127 11.9495 13.3129 11.9495 13.313C11.9493 13.3132 11.9491 13.3135 11 12.5C10.0509 11.6865 10.0507 11.6868 10.0504 11.6871C10.0503 11.6872 10.0501 11.6875 10.0499 11.6877C10.0495 11.6882 10.0491 11.6887 10.0486 11.6893C10.0476 11.6904 10.0465 11.6917 10.0451 11.6933C10.0425 11.6964 10.0391 11.7004 10.035 11.7053C10.0269 11.7149 10.016 11.728 10.0024 11.7444C9.97535 11.7772 9.93785 11.8232 9.89141 11.8819C9.79859 11.999 9.6697 12.1667 9.51683 12.379C9.2118 12.8026 8.80738 13.4094 8.40263 14.1514C7.60385 15.6159 6.75 17.7049 6.75 20H9.25ZM11 12.5C9.75057 12.5376 9.75058 12.5381 9.75059 12.5386C9.7506 12.5387 9.75061 12.5392 9.75062 12.5395C9.75065 12.5402 9.75067 12.5409 9.75069 12.5416C9.75074 12.543 9.75079 12.5446 9.75085 12.5463C9.75097 12.5496 9.75112 12.5535 9.7513 12.5578C9.75167 12.5665 9.75216 12.577 9.75283 12.5894C9.75417 12.6142 9.75622 12.6462 9.75934 12.6849C9.76556 12.7622 9.77612 12.8667 9.79399 12.9925C9.82951 13.2425 9.89516 13.5855 10.0175 13.9718C10.2583 14.732 10.7479 15.7485 11.75 16.5L13.25 14.5C12.8098 14.1699 12.5495 13.6863 12.4008 13.2169C12.3284 12.9884 12.2895 12.7843 12.2691 12.6408C12.2591 12.5699 12.2538 12.516 12.2513 12.4841C12.25 12.4683 12.2494 12.4581 12.2492 12.4542C12.2491 12.4523 12.2491 12.4519 12.2491 12.4533C12.2491 12.4539 12.2492 12.455 12.2492 12.4565C12.2493 12.4573 12.2493 12.4581 12.2493 12.4591C12.2493 12.4596 12.2494 12.4601 12.2494 12.4607C12.2494 12.4609 12.2494 12.4614 12.2494 12.4615C12.2494 12.4619 12.2494 12.4624 11 12.5ZM11.75 16.5C12.5119 17.0715 13.2777 17.6204 13.8796 18.2613C14.4742 18.8945 14.75 19.4558 14.75 20H17.25C17.25 18.5442 16.4969 17.3963 15.702 16.5499C14.9145 15.7113 13.9303 15.0102 13.25 14.5L11.75 16.5Z" fill="black"/>
</svg>
