<svg width="24" height="24" viewBox="0 0 24 24" fill="none" xmlns="http://www.w3.org/2000/svg">
<path fill-rule="evenodd" clip-rule="evenodd" d="M13.99 1.14087L13.99 1.14094L13.9899 1.14142L13.9899 1.14173L13.9886 1.15138L13.9827 1.1976C13.9775 1.24004 13.9698 1.30515 13.9612 1.39015C13.9439 1.56032 13.9225 1.80917 13.9075 2.11455C13.8773 2.72852 13.8737 3.55523 13.975 4.42316C14.1694 6.08821 14.7049 7.56522 15.8006 8.28516L16.3741 7.71174C17.0236 7.06217 18.1351 7.13174 18.6683 7.93517C19.8917 9.77841 21 12.1418 21 15C21 19.9629 16.983 23.9876 12.0229 24C12.0153 24 12.0076 24 12 24C11.9924 24 11.9847 24 11.9771 24C7.01705 23.9876 3 19.9629 3 15C3 10.6319 5.44596 6.89853 7.75671 4.33104C8.92443 3.03357 10.0894 1.99835 10.9621 1.28727C11.3992 0.931121 11.7649 0.65471 12.0236 0.465812C12.153 0.371325 12.2558 0.298623 12.3275 0.248679C12.3634 0.223703 12.3915 0.204408 12.4113 0.190916L12.4347 0.175039L12.4416 0.170391L12.4439 0.168894L12.4447 0.168352C12.445 0.16814 12.4453 0.16795 13 1L12.4453 0.16795C12.7734 -0.0508141 13.1995 -0.0562804 13.5332 0.153993C13.8666 0.364108 14.0455 0.750418 13.9901 1.14054L13.99 1.14087ZM16.9002 19.9988C16.9657 19.6761 17 19.342 17 19C17 17.6354 16.2946 16.5462 15.5198 15.7211C14.8358 14.9927 13.9987 14.3695 13.3375 13.8773L13.3374 13.8772C13.2554 13.8161 13.176 13.757 13.1 13.7C12.6036 13.3278 12.3204 12.7909 12.1625 12.2925C12.0851 12.0482 12.0435 11.8301 12.0216 11.676C12.0108 11.5996 12.005 11.5406 12.0021 11.5042C12.0006 11.4861 11.9999 11.4737 11.9995 11.4677L11.9994 11.4644V11.4644C11.9847 11.0539 11.7205 10.6938 11.3328 10.557C10.9434 10.4196 10.5095 10.5357 10.2407 10.8492L11 11.5C10.2407 10.8492 10.2406 10.8495 10.2403 10.8497L10.2399 10.8502L10.2388 10.8516L10.2357 10.8552L10.2263 10.8663L10.1952 10.9036C10.1692 10.9352 10.1327 10.9799 10.0873 11.0371C9.99668 11.1516 9.87014 11.3162 9.71972 11.5251C9.41944 11.9421 9.02091 12.54 8.6221 13.2712C7.83308 14.7177 7 16.7639 7 19C7 19.342 7.03434 19.6761 7.09977 19.9988C5.80395 18.7283 5 16.9581 5 15C5 11.3681 7.05404 8.10147 9.24329 5.66896C10.1833 4.62453 11.1254 3.75945 11.8906 3.11506C11.8975 3.58947 11.9252 4.11261 11.9885 4.65501C12.2139 6.58597 12.9427 9.17463 15.2748 10.2781C15.8748 10.562 16.5307 10.3835 16.9348 9.97945L17.3407 9.57347C18.2815 11.1191 19 12.9218 19 15C19 16.9581 18.1961 18.7283 16.9002 19.9988Z" fill="black"/>
</svg>
