<svg width="24" height="24" viewBox="0 0 24 24" fill="none" xmlns="http://www.w3.org/2000/svg">
<path fill-rule="evenodd" clip-rule="evenodd" d="M17.3398 9.57324C18.2808 11.119 19 12.9216 19 15C19 16.958 18.1961 18.7283 16.9003 19.9987C16.9657 19.6761 17 19.3422 17 19.0002C17 17.6356 16.2943 16.546 15.5195 15.7209C14.8365 14.9937 14.0007 14.3716 13.34 13.8798L13.34 13.8798L13.3395 13.8794C13.2566 13.8177 13.1764 13.758 13.0996 13.7004C12.6034 13.3282 12.32 12.7906 12.1621 12.2922C12.0848 12.0481 12.0434 11.83 12.0215 11.676C12.0106 11.5997 12.0049 11.5405 12.002 11.5041C12.0009 11.491 12.0005 11.4809 12.0003 11.474L12 11.468C11.9999 11.4666 11.9995 11.4655 11.9992 11.4648L11.999 11.4641C11.9842 11.0539 11.7205 10.6937 11.333 10.5569C10.9436 10.4194 10.51 10.5363 10.2412 10.8498L10.4673 11.0436C10.2406 10.8495 10.2404 10.8497 10.2402 10.8498V10.8508L10.2383 10.8518L10.237 10.8535L10.2354 10.8557L10.2266 10.8664L10.2187 10.8757C10.2122 10.8834 10.2043 10.8927 10.1953 10.9036C10.1693 10.9351 10.1323 10.9801 10.0869 11.0373C9.99626 11.1517 9.87006 11.3168 9.71973 11.5256C9.41947 11.9427 9.02081 12.5407 8.62207 13.2717C7.83309 14.7183 7 16.7643 7 19.0002C7 19.3422 7.03432 19.6761 7.09971 19.9987C5.80393 18.7283 5 16.958 5 15C5 11.3681 7.05393 8.10144 9.24316 5.66895C10.1829 4.62474 11.1264 3.76153 11.8916 3.11719C11.8985 3.59103 11.9251 4.11369 11.9883 4.65527C12.2137 6.58615 12.9426 9.17483 15.2744 10.2783C15.8744 10.5622 16.5305 10.3835 16.9346 9.97949L17.3398 9.57324ZM11.9263 23.9997C6.98968 23.9601 3 19.946 3 15C3 10.6319 5.44609 6.89855 7.75684 4.33105C8.92453 3.03362 10.0892 1.99818 10.9619 1.28711C11.3989 0.931012 11.7647 0.654717 12.0234 0.46582C12.1526 0.37151 12.2554 0.298959 12.3271 0.249024C12.3416 0.238965 12.3548 0.229692 12.3667 0.221323C12.3844 0.208913 12.3993 0.198488 12.4111 0.19043C12.4172 0.186277 12.4226 0.182743 12.4271 0.179747C12.4299 0.177902 12.4324 0.17626 12.4346 0.174805L12.4414 0.169922C12.4419 0.169607 12.4425 0.169464 12.4431 0.169334C12.4436 0.169226 12.4441 0.169127 12.4443 0.168945V0.167969C12.4447 0.167756 12.4453 0.16795 12.999 0.998465L12.4453 0.167969C12.7735 -0.0507951 13.1996 -0.0559766 13.5332 0.154297C13.8668 0.364593 14.046 0.751245 13.9902 1.1416L13.9883 1.15137L13.9824 1.19727C13.9772 1.2397 13.9696 1.30563 13.9609 1.39063C13.9436 1.56073 13.9222 1.8093 13.9072 2.11426C13.8771 2.72815 13.8734 3.55505 13.9746 4.42285C14.1689 6.08797 14.7069 7.56232 15.8027 8.28223L16.374 7.71191L16.501 7.59863C17.1162 7.10891 18.0352 7.17036 18.5615 7.79297L18.668 7.93555L18.8965 8.28711C20.0262 10.076 21 12.3206 21 15C21 19.946 17.0103 23.9601 12.0737 23.9997C12.0492 24.0001 12.0246 24.0002 12 24.0002C11.9754 24.0002 11.9508 24.0001 11.9263 23.9997Z" fill="black"/>
</svg>
