<svg width="24" height="25" viewBox="0 0 24 25" fill="none" xmlns="http://www.w3.org/2000/svg">
<path d="M13 1.25L14.2374 1.42678C14.3072 0.938753 14.0835 0.455333 13.6665 0.192491C13.2494 -0.0703506 12.7168 -0.0635178 12.3066 0.209937L13 1.25ZM15.7025 9.62418L16.2371 8.49429L15.7025 9.62418ZM17.8352 8.73817L18.8766 8.04693L17.8352 8.73817ZM17.0812 8.66884L17.965 9.55273L17.0812 8.66884ZM20 15.25H18.75C18.75 18.9779 15.7279 22 12 22V23.25V24.5C17.1086 24.5 21.25 20.3586 21.25 15.25H20ZM12 23.25V22C8.27208 22 5.25 18.9779 5.25 15.25H4H2.75C2.75 20.3586 6.89137 24.5 12 24.5V23.25ZM4 15.25H5.25C5.25 11.7101 7.25505 8.50183 9.42912 6.08621C10.5007 4.89554 11.5758 3.93956 12.3833 3.28154C12.7862 2.95329 13.1201 2.70114 13.3504 2.53297C13.4655 2.44893 13.5545 2.386 13.6132 2.34516C13.6425 2.32474 13.6642 2.30986 13.6778 2.30063C13.6846 2.29602 13.6893 2.29282 13.6919 2.29105C13.6932 2.29017 13.694 2.28965 13.6942 2.28948C13.6944 2.2894 13.6944 2.2894 13.6942 2.2895C13.6941 2.28955 13.6939 2.28969 13.6939 2.28971C13.6937 2.28988 13.6934 2.29006 13 1.25C12.3066 0.209937 12.3063 0.210169 12.3059 0.210423C12.3057 0.210539 12.3053 0.210817 12.305 0.211048C12.3043 0.211511 12.3034 0.212067 12.3025 0.212714C12.3005 0.214009 12.2981 0.215673 12.295 0.217704C12.289 0.221766 12.2808 0.227296 12.2706 0.23428C12.2501 0.248247 12.2212 0.268032 12.1847 0.293514C12.1115 0.34447 12.0072 0.418258 11.8762 0.513905C11.6143 0.705107 11.245 0.984214 10.8042 1.34346C9.92423 2.06044 8.74928 3.10446 7.57088 4.41379C5.24495 6.99817 2.75 10.7899 2.75 15.25H4ZM17.8352 8.73817L16.7937 9.42941C17.8799 11.0661 18.75 12.9956 18.75 15.25H20H21.25C21.25 12.3248 20.1153 9.91312 18.8766 8.04693L17.8352 8.73817ZM13 1.25C11.7626 1.07322 11.7625 1.0736 11.7625 1.074C11.7624 1.07416 11.7624 1.07459 11.7623 1.07492C11.7622 1.07559 11.7621 1.07636 11.762 1.07723C11.7617 1.07898 11.7614 1.08113 11.7611 1.08369C11.7604 1.0888 11.7595 1.09551 11.7584 1.10379C11.7562 1.12035 11.7532 1.14316 11.7496 1.17189C11.7426 1.22931 11.7331 1.31046 11.7228 1.41246C11.702 1.61623 11.6774 1.9045 11.6602 2.2541C11.626 2.94931 11.6203 3.90667 11.7402 4.93399C11.9671 6.8783 12.7093 9.59074 15.1679 10.7541L15.7025 9.62418L16.2371 8.49429C15.0438 7.9296 14.4347 6.45495 14.2233 4.64418C14.1241 3.79395 14.1275 2.98177 14.1572 2.37682C14.172 2.07635 14.193 1.83189 14.2099 1.66545C14.2184 1.58234 14.2258 1.51901 14.2308 1.47824C14.2333 1.45786 14.2352 1.44315 14.2364 1.43445C14.237 1.4301 14.2374 1.42725 14.2376 1.42596C14.2376 1.42531 14.2377 1.42505 14.2377 1.42519C14.2377 1.42526 14.2376 1.42542 14.2376 1.42569C14.2376 1.42582 14.2375 1.42609 14.2375 1.42616C14.2375 1.42645 14.2374 1.42678 13 1.25ZM16.2277 9.52234L17.1115 10.4062L17.965 9.55273L17.0812 8.66884L16.1973 7.78496L15.3438 8.63846L16.2277 9.52234ZM15.7025 9.62418L15.1679 10.7541C15.8736 11.088 16.6411 10.8766 17.1115 10.4062L16.2277 9.52234L15.3438 8.63846C15.5369 8.44533 15.8859 8.3281 16.2371 8.49429L15.7025 9.62418ZM17.8352 8.73817L18.8766 8.04693C18.2529 7.10714 16.9545 7.02774 16.1973 7.78496L17.0812 8.66884L17.965 9.55273C17.6458 9.87199 17.0749 9.85316 16.7937 9.42941L17.8352 8.73817Z" fill="black"/>
<path d="M11 11.75L12.2494 11.7124C12.2339 11.1964 11.9028 10.743 11.416 10.5712C10.9292 10.3995 10.3869 10.5446 10.0509 10.9365L11 11.75ZM16 19.25H14.75C14.75 20.7688 13.5188 22 12 22V23.25V24.5C14.8995 24.5 17.25 22.1495 17.25 19.25H16ZM12 23.25V22C10.4812 22 9.25 20.7688 9.25 19.25H8H6.75C6.75 22.1495 9.1005 24.5 12 24.5V23.25ZM8 19.25H9.25C9.25 17.5451 9.89615 15.8841 10.5974 14.5986C10.9426 13.9656 11.2882 13.4474 11.5457 13.0898C11.674 12.9114 11.7795 12.7744 11.8508 12.6846C11.8864 12.6396 11.9133 12.6066 11.9302 12.5862C11.9386 12.5759 11.9446 12.5689 11.9478 12.5651C11.9494 12.5632 11.9503 12.5621 11.9505 12.5618C11.9506 12.5617 11.9506 12.5617 11.9503 12.562C11.9502 12.5622 11.95 12.5624 11.9498 12.5626C11.9497 12.5627 11.9495 12.5629 11.9495 12.563C11.9493 12.5632 11.9491 12.5635 11 11.75C10.0509 10.9365 10.0507 10.9368 10.0504 10.9371C10.0503 10.9372 10.0501 10.9375 10.0499 10.9377C10.0495 10.9382 10.0491 10.9387 10.0486 10.9393C10.0476 10.9404 10.0465 10.9417 10.0451 10.9433C10.0425 10.9464 10.0391 10.9504 10.035 10.9553C10.0269 10.9649 10.016 10.978 10.0024 10.9944C9.97535 11.0272 9.93785 11.0732 9.89141 11.1319C9.79859 11.249 9.6697 11.4167 9.51683 11.629C9.2118 12.0526 8.80738 12.6594 8.40263 13.4014C7.60385 14.8659 6.75 16.9549 6.75 19.25H8ZM11 11.75C9.75057 11.7876 9.75058 11.7881 9.75059 11.7886C9.7506 11.7887 9.75061 11.7892 9.75062 11.7895C9.75065 11.7902 9.75067 11.7909 9.75069 11.7916C9.75074 11.793 9.75079 11.7946 9.75085 11.7963C9.75097 11.7996 9.75112 11.8035 9.7513 11.8078C9.75167 11.8165 9.75216 11.827 9.75283 11.8394C9.75417 11.8642 9.75622 11.8962 9.75934 11.9349C9.76556 12.0122 9.77612 12.1167 9.79399 12.2425C9.82951 12.4925 9.89516 12.8355 10.0175 13.2218C10.2583 13.982 10.7479 14.9985 11.75 15.75L12.5 14.75L13.25 13.75C12.8098 13.4199 12.5495 12.9363 12.4008 12.4669C12.3284 12.2384 12.2895 12.0343 12.2691 11.8908C12.2591 11.8199 12.2538 11.766 12.2513 11.7341C12.25 11.7183 12.2494 11.7081 12.2492 11.7042C12.2491 11.7023 12.2491 11.7019 12.2491 11.7033C12.2491 11.7039 12.2492 11.705 12.2492 11.7065C12.2493 11.7073 12.2493 11.7081 12.2493 11.7091C12.2493 11.7096 12.2494 11.7101 12.2494 11.7107C12.2494 11.7109 12.2494 11.7114 12.2494 11.7115C12.2494 11.7119 12.2494 11.7124 11 11.75ZM12.5 14.75L11.75 15.75C12.5119 16.3215 13.2777 16.8704 13.8796 17.5113C14.4742 18.1445 14.75 18.7058 14.75 19.25H16H17.25C17.25 17.7942 16.4969 16.6463 15.702 15.7999C14.9145 14.9613 13.9303 14.2602 13.25 13.75L12.5 14.75Z" fill="black"/>
</svg>
