<svg width="24" height="24" viewBox="0 0 24 24" fill="none" xmlns="http://www.w3.org/2000/svg">
<path fill-rule="evenodd" clip-rule="evenodd" d="M11.9757 23.5C9.50162 23.4869 7.5 21.4773 7.5 19.0001C7.5 16.882 8.29201 14.9216 9.06152 13.5108C9.44831 12.8017 9.83428 12.2213 10.125 11.8174C10.2705 11.6153 10.3931 11.4567 10.4795 11.3477C10.5226 11.2933 10.5571 11.2508 10.5811 11.2217L10.5944 11.2055L10.6084 11.1885L10.614 11.1822L10.6172 11.1788L10.6184 11.177L10.6191 11.1758L10.6748 11.1202C10.8089 11.0053 10.9959 10.9685 11.166 11.0284C11.3602 11.0969 11.4932 11.2777 11.5 11.4835V11.4952C11.5004 11.5016 11.5011 11.5107 11.5021 11.5222L11.5021 11.5223L11.5039 11.544C11.5076 11.5894 11.514 11.6589 11.5264 11.7462C11.5513 11.9216 11.5982 12.1676 11.6855 12.4434C11.8618 12.9999 12.1913 13.6431 12.7998 14.0997C12.8766 14.1573 12.9559 14.2163 13.0372 14.2769C13.7025 14.7726 14.5031 15.3691 15.1553 16.0635C15.89 16.846 16.5 17.8178 16.5 19.0001C16.5 21.4773 14.4984 23.4869 12.0243 23.5C16.7075 23.4869 20.5 19.6864 20.5 15C20.5 12.4461 19.5726 10.2938 18.4736 8.55373L18.252 8.21194L18.1816 8.11819C17.8337 7.70613 17.2234 7.66231 16.8125 7.98928L16.7275 8.06545L15.8857 8.90627C14.3354 8.15252 13.6931 6.31993 13.4785 4.48147C13.3731 3.57812 13.3771 2.72189 13.4082 2.08987C13.4237 1.7749 13.4458 1.51747 13.4639 1.33987C13.4729 1.25135 13.4807 1.18251 13.4863 1.13674C13.4884 1.11977 13.4904 1.10558 13.4918 1.09487L13.4918 1.09468L13.4932 1.08498C13.4936 1.08182 13.4937 1.07913 13.4939 1.07697L13.4941 1.07327L13.4951 1.07131V1.07034C13.5228 0.875297 13.4333 0.682246 13.2666 0.577172C13.1206 0.48516 12.9391 0.475469 12.7861 0.547875L12.7227 0.584008L12.7217 0.584984L12.7197 0.585961L12.7139 0.589867L12.6924 0.604516C12.674 0.617053 12.6475 0.635409 12.6133 0.659203C12.5445 0.707101 12.4445 0.77708 12.3184 0.869164C12.066 1.05342 11.7077 1.32499 11.2783 1.67483C10.4201 2.37411 9.27427 3.39135 8.12793 4.66506C5.84756 7.19881 3.5 10.816 3.5 15C3.5 19.6864 7.29247 23.4869 11.9757 23.5Z" fill="black"/>
</svg>
