<svg width="24" height="24" viewBox="0 0 24 24" fill="none" xmlns="http://www.w3.org/2000/svg">
<path fill-rule="evenodd" clip-rule="evenodd" d="M13.495 1.07071C13.5229 0.875501 13.4334 0.682133 13.2666 0.576997C13.0998 0.47186 12.8867 0.474593 12.7226 0.583975L13 1C12.7226 0.583975 12.7225 0.584081 12.7223 0.584211L12.7217 0.584584L12.72 0.585744L12.7141 0.589709L12.6927 0.604186C12.6743 0.616731 12.6476 0.635045 12.6132 0.659007C12.5444 0.706929 12.4447 0.77746 12.3184 0.869625C12.066 1.05392 11.7074 1.32494 11.2779 1.67488C10.4197 2.37418 9.27471 3.39178 8.12835 4.66552C5.84798 7.19927 3.5 10.8159 3.5 15C3.5 19.6874 7.29422 23.4886 11.979 23.5C9.50337 23.4886 7.5 21.4783 7.5 19C7.5 16.882 8.29154 14.9214 9.06105 13.5106C9.44795 12.8013 9.83472 12.2211 10.1255 11.8172C10.271 11.6151 10.3929 11.4566 10.4792 11.3477C10.5224 11.2932 10.5567 11.251 10.5808 11.222L10.6088 11.1882L10.6168 11.1789L10.6191 11.1761L10.6199 11.1752L10.6202 11.1749C10.6203 11.1747 10.6204 11.1746 11 11.5L10.6204 11.1746C10.7548 11.0179 10.9717 10.9598 11.1664 11.0285C11.3607 11.0971 11.493 11.2778 11.4997 11.4836L11.4997 11.4839L11.4997 11.4839L11.4997 11.484L11.4998 11.4846L11.5003 11.4948C11.5008 11.5049 11.5019 11.5217 11.5037 11.5444C11.5073 11.5899 11.5142 11.6589 11.5266 11.7463C11.5515 11.9218 11.5985 12.1676 11.6858 12.4434C11.8621 13 12.1913 13.6435 12.8 14.1C12.8775 14.1581 12.9575 14.2178 13.0396 14.2789L13.0397 14.279C13.7045 14.7742 14.5039 15.3697 15.1553 16.0634C15.8901 16.8458 16.5 17.8177 16.5 19C16.5 21.4783 14.4966 23.4886 12.021 23.5C16.7058 23.4886 20.5 19.6874 20.5 15C20.5 12.276 19.4447 10.009 18.2518 8.21167C17.8995 7.68095 17.1619 7.63102 16.7276 8.06529L15.8855 8.90742C14.3349 8.15369 13.693 6.31979 13.4784 4.48112C13.373 3.57777 13.377 2.72203 13.4081 2.09001C13.4236 1.77479 13.4457 1.51719 13.4638 1.33955C13.4728 1.25078 13.4808 1.1821 13.4865 1.13633C13.4893 1.11345 13.4915 1.09631 13.493 1.08525L13.4946 1.07328L13.495 1.0708L13.495 1.07071Z" fill="black"/>
</svg>
