<svg width="24" height="24" viewBox="0 0 24 24" fill="none" xmlns="http://www.w3.org/2000/svg">
<path fill-rule="evenodd" clip-rule="evenodd" d="M13.7425 1.10568L13.7425 1.10607L13.7423 1.10751L13.7408 1.11832L13.7346 1.16697C13.7291 1.21107 13.7213 1.27796 13.7125 1.36485C13.6948 1.53876 13.6731 1.79198 13.6578 2.10228C13.6272 2.72528 13.6233 3.5665 13.7267 4.45214C13.9318 6.20944 14.5222 7.86131 15.8385 8.6008L16.5508 7.88851C17.0927 7.34659 18.0173 7.40634 18.4601 8.07342C19.6682 9.89371 20.75 12.2089 20.75 15C20.75 19.8251 16.8444 23.7381 12.022 23.75C12.0147 23.75 12.0074 23.75 12 23.75C11.9936 23.75 11.9872 23.75 11.9808 23.75C7.15713 23.7396 3.25 19.8261 3.25 15C3.25 10.7239 5.64697 7.0489 7.94253 4.49828C9.09957 3.21268 10.2545 2.18626 11.12 1.48107C11.5533 1.12803 11.9155 0.854314 12.171 0.667718C12.2988 0.574392 12.4001 0.502776 12.4704 0.453843C12.5055 0.429374 12.5329 0.410569 12.552 0.397551L12.5744 0.382374L12.5808 0.378067L12.5828 0.376739L12.5835 0.376282C12.5838 0.37611 12.584 0.375962 13 1L12.584 0.375962C12.8301 0.211889 13.1496 0.20779 13.3999 0.365495C13.65 0.523131 13.7842 0.812999 13.7425 1.10568ZM16.4176 20.7491C16.6321 20.2078 16.75 19.6177 16.75 19C16.75 17.7265 16.0923 16.696 15.3376 15.8922C14.6699 15.1812 13.8516 14.5719 13.1887 14.0782L13.1885 14.078L13.1881 14.0777C13.1061 14.0167 13.0266 13.9575 12.95 13.9C12.3975 13.4856 12.0912 12.8955 11.9242 12.3679C11.8418 12.1079 11.7975 11.8759 11.7741 11.7112C11.7625 11.6293 11.7562 11.5653 11.7529 11.5243C11.7512 11.5039 11.7503 11.4893 11.7499 11.4813L11.7496 11.4743C11.739 11.166 11.5407 10.8955 11.2496 10.7928C10.9575 10.6897 10.6321 10.7768 10.4306 11.0119L11 11.5C10.4306 11.0119 10.4304 11.0121 10.4303 11.0123L10.4299 11.0127L10.4289 11.0138L10.4262 11.017L10.4176 11.0272L10.388 11.0628C10.3629 11.0931 10.3276 11.1365 10.2833 11.1924C10.1948 11.3041 10.0706 11.4657 9.9226 11.6712C9.62708 12.0816 9.23443 12.6707 8.84158 13.3909C8.06231 14.8195 7.25 16.823 7.25 19C7.25 19.6177 7.3679 20.2078 7.58241 20.7491C5.85996 19.4237 4.75 17.3415 4.75 15C4.75 11.2761 6.85303 7.9511 9.05747 5.50172C10.1504 4.28732 11.2455 3.31374 12.0675 2.64393L12.1413 2.58401C12.1313 3.17659 12.1502 3.8835 12.2368 4.62603C12.4606 6.54363 13.1762 9.00851 15.3817 10.0521C15.876 10.286 16.4203 10.1404 16.758 9.80267L17.3866 9.17409C18.4225 10.8018 19.25 12.7384 19.25 15C19.25 17.3415 18.14 19.4237 16.4176 20.7491Z" fill="black"/>
</svg>
