<svg width="24" height="24" viewBox="0 0 24 24" fill="none" xmlns="http://www.w3.org/2000/svg">
<path fill-rule="evenodd" clip-rule="evenodd" d="M6.02013 12.6769C7.4846 11.2125 9.85897 11.2125 11.3234 12.6769C12.7879 14.1414 12.7879 16.5158 11.3234 17.9802C9.85897 19.4447 7.4846 19.4447 6.02013 17.9802C4.55567 16.5158 4.55567 14.1414 6.02013 12.6769ZM10.2628 13.7376C9.38409 12.8589 7.95947 12.8589 7.08079 13.7376C6.20211 14.6163 6.20211 16.0409 7.08079 16.9196C7.95947 17.7982 9.38409 17.7982 10.2628 16.9196C11.1415 16.0409 11.1415 14.6163 10.2628 13.7376Z" fill="black"/>
<path fill-rule="evenodd" clip-rule="evenodd" d="M17.7316 1.408C17.5563 1.23257 17.3758 1.05203 17.2085 0.910026C17.0218 0.751554 16.7711 0.569104 16.4375 0.460709C15.9856 0.313878 15.4988 0.313878 15.047 0.460709C14.7133 0.569104 14.4626 0.751554 14.276 0.910026C14.1087 1.05203 13.9282 1.23257 13.7528 1.40799L11.4941 3.66677C10.6332 2.94299 9.34656 2.98616 8.53645 3.79627L2.838 9.49472C-0.383825 12.7165 -0.383826 17.9402 2.838 21.162C6.05982 24.3838 11.2834 24.3838 14.5053 21.162L20.2037 15.4635C21.0139 14.6533 21.057 13.3665 20.3329 12.5056L22.5917 10.2468C22.7671 10.0715 22.9476 9.891 23.0897 9.72372C23.2481 9.53705 23.4306 9.28633 23.539 8.95273C23.6858 8.50083 23.6858 8.01405 23.539 7.56215C23.4306 7.22855 23.2481 6.97783 23.0897 6.79116C22.9476 6.62388 22.7671 6.44341 22.5917 6.26804L17.7316 1.408ZM10.0855 5.78272L18.2173 13.9144L12.7375 19.3942C10.492 21.6397 6.85128 21.6397 4.60577 19.3942C2.36025 17.1487 2.36025 13.508 4.60577 11.2625L10.0855 5.78272ZM18.571 10.732L20.7981 8.50493C20.8981 8.40486 20.9766 8.32629 21.0434 8.25744C20.9766 8.18859 20.8981 8.11002 20.7981 8.00995L15.9897 3.20163C15.8897 3.10156 15.8111 3.02304 15.7422 2.95627C15.6734 3.02304 15.5948 3.10156 15.4948 3.20163L13.2677 5.4287L18.571 10.732Z" fill="black"/>
</svg>
