<svg width="24" height="24" viewBox="0 0 24 24" fill="none" xmlns="http://www.w3.org/2000/svg">
<path fill-rule="evenodd" clip-rule="evenodd" d="M6.02038 12.6767C7.48484 11.2122 9.85921 11.2122 11.3237 12.6767C12.7881 14.1411 12.7881 16.5155 11.3237 17.98C9.85921 19.4444 7.48484 19.4444 6.02038 17.98C4.55591 16.5155 4.55591 14.1411 6.02038 12.6767ZM10.263 13.7373C9.38434 12.8587 7.95972 12.8587 7.08104 13.7373C6.20236 14.616 6.20236 16.0406 7.08104 16.9193C7.95972 17.798 9.38434 17.798 10.263 16.9193C11.1417 16.0406 11.1417 14.616 10.263 13.7373Z" fill="black"/>
<path fill-rule="evenodd" clip-rule="evenodd" d="M17.7319 1.40775C17.5565 1.23233 17.376 1.05179 17.2088 0.909782C17.0221 0.75131 16.7714 0.568859 16.4378 0.460465C15.9859 0.313634 15.4991 0.313634 15.0472 0.460465C14.7136 0.568859 14.4629 0.75131 14.2762 0.909782C14.1089 1.05179 13.9285 1.23232 13.7531 1.40775L11.4943 3.66652C10.6334 2.94275 9.3468 2.98591 8.53669 3.79602L2.83824 9.49447C-0.383581 12.7163 -0.383582 17.9399 2.83824 21.1617C6.06007 24.3836 11.2837 24.3836 14.5055 21.1617L20.204 15.4633C21.0142 14.6531 21.0572 13.3662 20.3332 12.5053L22.5919 10.2466C22.7673 10.0712 22.9479 9.89076 23.0899 9.72348C23.2484 9.53681 23.4308 9.28609 23.5392 8.95248C23.686 8.50059 23.686 8.01381 23.5392 7.56191C23.4308 7.2283 23.2484 6.97758 23.0899 6.79091C22.9479 6.62364 22.7674 6.44316 22.5919 6.2678L17.7319 1.40775ZM10.0858 5.78247L18.2175 13.9142L12.7377 19.394C10.4922 21.6395 6.85152 21.6395 4.60601 19.394C2.36049 17.1485 2.3605 13.5078 4.60601 11.2622L10.0858 5.78247ZM18.5712 10.7318L20.7983 8.50468C20.8984 8.40461 20.9769 8.32605 21.0437 8.2572C20.9769 8.18834 20.8984 8.10978 20.7983 8.00971L15.99 3.20138C15.8899 3.10131 15.8113 3.02279 15.7425 2.95602C15.6736 3.02279 15.5951 3.10131 15.495 3.20138L13.2679 5.42846L18.5712 10.7318Z" fill="black"/>
</svg>
