<svg width="24" height="24" viewBox="0 0 24 24" fill="none" xmlns="http://www.w3.org/2000/svg">
<path fill-rule="evenodd" clip-rule="evenodd" d="M17.7312 1.40751C17.5558 1.23208 17.3754 1.05154 17.2081 0.909538C17.0214 0.751066 16.7707 0.568615 16.4371 0.46022C15.9852 0.31339 15.4984 0.31339 15.0465 0.46022C14.7129 0.568615 14.4622 0.751066 14.2755 0.909538C14.1083 1.05154 13.9278 1.23208 13.7524 1.40751L10.7815 4.37842C10.316 4.04259 9.66244 4.08418 9.24343 4.50319L3.54498 10.2016C0.713683 13.0329 0.713683 17.6234 3.54498 20.4547C6.37629 23.286 10.9667 23.286 13.798 20.4547L19.4965 14.7562C19.9158 14.3369 19.9571 13.6827 19.6205 13.2171L22.5913 10.2464C22.7667 10.071 22.9472 9.89051 23.0892 9.72323C23.2477 9.53656 23.4302 9.28584 23.5385 8.95224C23.6854 8.50034 23.6854 8.01356 23.5385 7.56166C23.4302 7.22806 23.2477 6.97734 23.0892 6.79067C22.9472 6.62339 22.7667 6.44292 22.5913 6.26755L17.7312 1.40751ZM15.4943 3.20114C15.5944 3.10107 15.673 3.02255 15.7418 2.95578C15.8107 3.02255 15.8892 3.10107 15.9893 3.20114L20.7976 8.00946C20.8977 8.10953 20.9762 8.1881 21.043 8.25695C20.9762 8.3258 20.8977 8.40437 20.7976 8.50444L18.5702 10.7318L13.2669 5.42852L15.4943 3.20114ZM6.55016 17.4497C7.72173 18.6213 9.62122 18.6213 10.7928 17.4497C11.9644 16.2781 11.9644 14.3786 10.7928 13.2071C9.62122 12.0355 7.72173 12.0355 6.55016 13.2071C5.37858 14.3786 5.37858 16.2781 6.55016 17.4497Z" fill="black"/>
</svg>
