<svg width="24" height="24" viewBox="0 0 24 24" fill="none" xmlns="http://www.w3.org/2000/svg">
<path fill-rule="evenodd" clip-rule="evenodd" d="M16.558 1.58857C16.3796 1.41009 16.2058 1.23626 16.0466 1.1011C15.8717 0.952666 15.6498 0.793096 15.3601 0.698961C14.9584 0.568445 14.5257 0.568445 14.1241 0.698961C13.8343 0.793096 13.6125 0.952666 13.4376 1.1011C13.2784 1.23626 13.1046 1.41008 12.9262 1.58856L9.9686 4.54614L9.92618 4.50372C9.461 4.03854 8.70679 4.03854 8.2416 4.50372L2.54315 10.2022C-0.288148 13.0335 -0.288148 17.6239 2.54315 20.4552C5.37445 23.2865 9.9649 23.2865 12.7962 20.4552L18.4946 14.7568C18.9598 14.2916 18.9598 13.5374 18.4946 13.0722L18.4539 13.0314L21.4114 10.0739C21.5899 9.89542 21.7638 9.72164 21.8989 9.56242C22.0474 9.38757 22.2069 9.16568 22.3011 8.87596C22.4316 8.47428 22.4316 8.04158 22.3011 7.63989C22.2069 7.35018 22.0474 7.12829 21.8989 6.95344C21.7638 6.79423 21.5899 6.62045 21.4115 6.44201L16.558 1.58857ZM14.732 2.62578L14.7421 2.61726L14.7522 2.62578C14.8414 2.70148 14.9567 2.81566 15.1664 3.02534L19.9747 7.83366C20.1844 8.04334 20.2985 8.15862 20.3742 8.24779L20.3828 8.25793L20.3742 8.26806C20.2985 8.35724 20.1844 8.47252 19.9747 8.68219L17.5705 11.0864L11.9137 5.4295L14.3178 3.02534C14.5275 2.81566 14.6428 2.70148 14.732 2.62578ZM5.54833 17.4502C6.7199 18.6218 8.61939 18.6218 9.79097 17.4502C10.9625 16.2787 10.9625 14.3792 9.79097 13.2076C8.61939 12.036 6.7199 12.036 5.54833 13.2076C4.37675 14.3792 4.37675 16.2787 5.54833 17.4502Z" fill="black"/>
</svg>
