<svg width="24" height="24" viewBox="0 0 24 24" fill="none" xmlns="http://www.w3.org/2000/svg">
<path fill-rule="evenodd" clip-rule="evenodd" d="M6.02025 12.6772C7.48472 11.2127 9.85909 11.2127 11.3236 12.6772C12.788 14.1416 12.788 16.516 11.3236 17.9805C9.85909 19.4449 7.48472 19.445 6.02025 17.9805C4.55579 16.516 4.55579 14.1416 6.02025 12.6772ZM10.2629 13.7378C9.38421 12.8592 7.95959 12.8592 7.08091 13.7378C6.20223 14.6165 6.20223 16.0411 7.08091 16.9198C7.95959 17.7985 9.38421 17.7985 10.2629 16.9198C11.1416 16.0411 11.1416 14.6165 10.2629 13.7378Z" fill="black"/>
<path fill-rule="evenodd" clip-rule="evenodd" d="M17.2728 1.65671C17.1101 1.49399 16.9576 1.3415 16.8192 1.22394C16.6689 1.09638 16.4865 0.966492 16.2521 0.890327C15.9207 0.782651 15.5637 0.782651 15.2323 0.890327C14.9979 0.966492 14.8155 1.09638 14.6653 1.22394C14.5268 1.34151 14.3743 1.49398 14.2116 1.65671L11.5 4.36831L11.2818 4.15009C10.6214 3.48964 9.55057 3.48964 8.89012 4.15009L3.19168 9.84853C0.165113 12.8751 0.165112 17.7821 3.19167 20.8087C6.21824 23.8353 11.1253 23.8353 14.1518 20.8087L19.8503 15.1102C20.5107 14.4498 20.5107 13.379 19.8503 12.7186L19.6318 12.5L22.3434 9.78843C22.5061 9.62573 22.6586 9.47329 22.7761 9.33481C22.9037 9.18454 23.0336 9.00214 23.1097 8.76772C23.2174 8.43633 23.2174 8.07936 23.1097 7.74797C23.0336 7.51356 22.9037 7.33115 22.7761 7.18088C22.6586 7.04241 22.5061 6.88998 22.3434 6.7273L17.2728 1.65671ZM10.4389 5.42942L18.5706 13.5611L18.7896 13.7792C18.8643 13.8539 18.8643 13.9749 18.7896 14.0496L13.0912 19.748C10.6504 22.1888 6.69311 22.1888 4.25233 19.748C1.81156 17.3073 1.81156 13.35 4.25234 10.9092L9.95078 5.21075C10.0254 5.13609 10.1465 5.13609 10.2211 5.21075L10.4389 5.42942ZM18.5711 11.4394L21.2647 8.74575C21.4517 8.55879 21.5596 8.45005 21.6326 8.36404C21.6648 8.32615 21.6799 8.3042 21.6859 8.29477C21.692 8.27054 21.692 8.24515 21.6859 8.22092C21.6799 8.21149 21.6648 8.18954 21.6326 8.15165C21.5596 8.06564 21.4517 7.9569 21.2647 7.76994L16.2301 2.73534C16.0432 2.54838 15.9344 2.44047 15.8484 2.36745C15.8105 2.33528 15.7886 2.32017 15.7791 2.31419C15.7549 2.30803 15.7295 2.30803 15.7053 2.31419C15.6959 2.32017 15.6739 2.33528 15.636 2.36745C15.55 2.44047 15.4413 2.54838 15.2543 2.73534L12.5607 5.42897L18.5711 11.4394Z" fill="black"/>
</svg>
