<svg width="24" height="24" viewBox="0 0 24 24" fill="none" xmlns="http://www.w3.org/2000/svg">
<path fill-rule="evenodd" clip-rule="evenodd" d="M6.02038 12.6767C7.48484 11.2122 9.85921 11.2122 11.3237 12.6767C12.7881 14.1412 12.7881 16.5155 11.3237 17.98C9.85921 19.4445 7.48484 19.4445 6.02038 17.98C4.55591 16.5155 4.55591 14.1412 6.02038 12.6767ZM10.263 13.7374C9.38434 12.8587 7.95972 12.8587 7.08104 13.7374C6.20236 14.6161 6.20236 16.0407 7.08104 16.9194C7.95972 17.798 9.38434 17.798 10.263 16.9194C11.1417 16.0407 11.1417 14.6161 10.263 13.7374Z" fill="black"/>
<path fill-rule="evenodd" clip-rule="evenodd" d="M17.5584 1.58784C17.38 1.40936 17.2062 1.23553 17.047 1.10037C16.8721 0.951934 16.6502 0.792363 16.3605 0.698229C15.9588 0.567713 15.5261 0.567713 15.1245 0.698229C14.8347 0.792363 14.6128 0.951934 14.438 1.10037C14.2788 1.23553 14.105 1.40935 13.9266 1.58783L11.5001 4.01427L11.4587 3.97284C10.7006 3.21476 9.47155 3.21476 8.71347 3.97284L3.01502 9.67129C-0.109174 12.7955 -0.109173 17.8608 3.01502 20.985C6.13922 24.1092 11.2045 24.1092 14.3287 20.985L20.0272 15.2865C20.7853 14.5285 20.7853 13.2994 20.0272 12.5413L19.9854 12.4995L22.4118 10.0731C22.5903 9.89469 22.7641 9.7209 22.8993 9.56168C23.0477 9.38684 23.2073 9.16495 23.3015 8.87523C23.432 8.47354 23.432 8.04085 23.3015 7.63916C23.2073 7.34945 23.0477 7.12755 22.8993 6.95271C22.7642 6.79349 22.5903 6.61972 22.4119 6.44128L17.5584 1.58784ZM10.0858 5.42894L18.5709 13.9141L12.9145 19.5708C10.5714 21.9139 6.77238 21.9139 4.42923 19.5708C2.08609 17.2276 2.08609 13.4286 4.42923 11.0855L10.0858 5.42894ZM18.5712 11.0853L20.9751 8.68146C21.1848 8.47178 21.2989 8.3565 21.3746 8.26733L21.3832 8.2572L21.3746 8.24706C21.2989 8.15789 21.1848 8.04261 20.9751 7.83293L16.1667 3.02461C15.9571 2.81493 15.8418 2.70075 15.7526 2.62505L15.7425 2.61653L15.7324 2.62505C15.6432 2.70075 15.5279 2.81493 15.3182 3.02461L12.9143 5.42848L18.5712 11.0853Z" fill="black"/>
</svg>
