<svg width="24" height="24" viewBox="0 0 24 24" fill="none" xmlns="http://www.w3.org/2000/svg">
<path fill-rule="evenodd" clip-rule="evenodd" d="M17.2135 1.95007C17.0272 1.7637 16.8664 1.6029 16.7231 1.48129C16.5719 1.35294 16.4077 1.23913 16.2057 1.17351C15.9045 1.07563 15.58 1.07563 15.2787 1.17351C15.0768 1.23913 14.9125 1.35294 14.7613 1.48129C14.6181 1.6029 14.4573 1.76369 14.2709 1.95007L11.322 4.89896L10.9263 4.50323C10.4611 4.03805 9.70691 4.03805 9.24172 4.50323L3.54328 10.2017C0.711974 13.033 0.711974 17.6234 3.54328 20.4547C6.37458 23.286 10.965 23.286 13.7963 20.4547L19.4948 14.7563C19.96 14.2911 19.96 13.5369 19.4948 13.0717L19.1002 12.6771L22.0491 9.72824C22.2355 9.54188 22.3963 9.3811 22.5179 9.23785C22.6462 9.08666 22.76 8.92242 22.8257 8.72048C22.9235 8.41921 22.9235 8.09469 22.8257 7.79343C22.76 7.59149 22.6462 7.42725 22.5179 7.27605C22.3963 7.13281 22.2355 6.97203 22.0491 6.78567L17.2135 1.95007ZM15.8967 2.12457C15.9231 2.13314 15.972 2.15543 16.0759 2.24363C16.1843 2.33562 16.3162 2.46697 16.52 2.67081L21.3284 7.47913C21.5322 7.68298 21.6635 7.81487 21.7555 7.92323C21.8437 8.02712 21.866 8.07605 21.8746 8.10244C21.9072 8.20286 21.9072 8.31104 21.8746 8.41146C21.866 8.43785 21.8437 8.48678 21.7555 8.59067C21.6635 8.69903 21.5322 8.83093 21.3284 9.03477L18.5706 11.7925L12.2067 5.42852L14.9644 2.67081C15.1682 2.46697 15.3001 2.33562 15.4085 2.24363C15.5124 2.15543 15.5613 2.13314 15.5877 2.12457C15.6881 2.09194 15.7963 2.09194 15.8967 2.12457ZM6.54845 17.4497C7.72002 18.6213 9.61951 18.6213 10.7911 17.4497C11.9627 16.2782 11.9627 14.3787 10.7911 13.2071C9.61952 12.0355 7.72002 12.0355 6.54845 13.2071C5.37687 14.3787 5.37687 16.2782 6.54845 17.4497Z" fill="black"/>
</svg>
