<svg width="24" height="24" viewBox="0 0 24 24" fill="none" xmlns="http://www.w3.org/2000/svg">
<path fill-rule="evenodd" clip-rule="evenodd" d="M17.2728 1.65573C17.1101 1.49302 16.9577 1.34052 16.8192 1.22297C16.6689 1.0954 16.4865 0.965516 16.2521 0.88935C15.9207 0.781675 15.5637 0.781675 15.2323 0.88935C14.9979 0.965515 14.8155 1.0954 14.6653 1.22297C14.5268 1.34053 14.3743 1.493 14.2116 1.65573L11.9695 3.89785C11.8068 4.06055 11.6543 4.213 11.5367 4.35148C11.4284 4.47906 11.3185 4.62981 11.2411 4.81588L10.9284 4.50315C10.4632 4.03796 9.70898 4.03796 9.2438 4.50315L3.54535 10.2016C0.71405 13.0329 0.71405 17.6233 3.54535 20.4546C6.37665 23.2859 10.9671 23.2859 13.7984 20.4546L19.4968 14.7562C19.962 14.291 19.962 13.5368 19.4968 13.0716L19.1832 12.758C19.3693 12.6806 19.52 12.5707 19.6476 12.4623C19.7861 12.3448 19.9385 12.1923 20.1012 12.0296L22.3434 9.78745C22.5061 9.62475 22.6586 9.47231 22.7761 9.33383C22.9037 9.18357 23.0336 9.00116 23.1097 8.76675C23.2174 8.43536 23.2174 8.07838 23.1097 7.74699C23.0336 7.51258 22.9037 7.33017 22.7761 7.17991C22.6586 7.04144 22.5061 6.88901 22.3434 6.72632L17.2728 1.65573ZM15.7053 2.31321C15.7295 2.30706 15.7549 2.30706 15.7791 2.31321C15.7886 2.31919 15.8105 2.33431 15.8484 2.36648C15.9344 2.4395 16.0432 2.54741 16.2301 2.73437L21.2647 7.76897C21.4517 7.95592 21.5596 8.06466 21.6326 8.15067C21.6648 8.18857 21.6799 8.21051 21.6859 8.21995C21.692 8.24418 21.692 8.26956 21.6859 8.29379C21.6799 8.30323 21.6648 8.32517 21.6326 8.36307C21.5596 8.44908 21.4517 8.55781 21.2647 8.74477L19.0586 10.9509C18.8716 11.1379 18.7629 11.2458 18.6768 11.3188C18.639 11.351 18.617 11.3661 18.6076 11.3721C18.5833 11.3783 18.558 11.3783 18.5337 11.3721C18.5243 11.3661 18.5023 11.351 18.4645 11.3188C18.3784 11.2458 18.2697 11.1379 18.0827 10.9509L13.0481 5.91635C12.8612 5.72939 12.7533 5.62065 12.6803 5.53464C12.6481 5.49674 12.633 5.4748 12.627 5.46536C12.6208 5.44114 12.6208 5.41575 12.627 5.39152C12.633 5.38209 12.6481 5.36014 12.6803 5.32225C12.7533 5.23623 12.8612 5.1275 13.0481 4.94054L15.2543 2.73437C15.4413 2.54741 15.55 2.4395 15.636 2.36648C15.6739 2.33431 15.6959 2.31919 15.7053 2.31321ZM6.55052 17.4497C7.7221 18.6212 9.62159 18.6212 10.7932 17.4497C11.9647 16.2781 11.9647 14.3786 10.7932 13.207C9.62159 12.0354 7.72209 12.0354 6.55052 13.207C5.37895 14.3786 5.37895 16.2781 6.55052 17.4497Z" fill="black"/>
</svg>
