<svg width="24" height="24" viewBox="0 0 24 24" fill="none" xmlns="http://www.w3.org/2000/svg">
<path d="M11.1818 2.2041C10.9079 1.94903 10.5145 1.86828 10.1622 1.99482C9.97281 2.06287 9.84782 2.20333 9.77248 2.30312C9.68996 2.41242 9.61389 2.54605 9.54126 2.6885C9.39781 2.96985 9.22721 3.36793 9.01375 3.86602L2.01076 20.2063C1.93778 20.3766 1.8702 20.5342 1.82675 20.668C1.78147 20.8073 1.73842 20.988 1.77618 21.1867C1.82601 21.4489 1.9786 21.6803 2.19998 21.8294C2.36773 21.9424 2.55074 21.974 2.69667 21.9873C2.83674 22 3.00825 22 3.19349 22H10.2163C10.3425 22 10.4654 22 10.5694 21.9915C10.6837 21.9822 10.8186 21.9601 10.9543 21.891C11.1425 21.7951 11.2955 21.6421 11.3913 21.454C11.4605 21.3183 11.4825 21.1834 11.4918 21.0691C11.5004 20.965 11.5003 20.8421 11.5003 20.7159L11.5003 4.37645C11.5003 3.83452 11.5003 3.40142 11.4793 3.0863C11.4687 2.92676 11.4514 2.77397 11.4186 2.64099C11.3887 2.5196 11.3291 2.34126 11.1818 2.2041Z" fill="black"/>
<path fill-rule="evenodd" clip-rule="evenodd" d="M12.8188 2.2041C13.0928 1.94903 13.4862 1.86828 13.8384 1.99482C14.0278 2.06287 14.1528 2.20333 14.2282 2.30312C14.3107 2.41242 14.3868 2.54605 14.4594 2.6885C14.6028 2.96986 14.7734 3.36794 14.9869 3.86605L21.9899 20.2063C22.0629 20.3766 22.1304 20.5342 22.1739 20.668C22.2192 20.8073 22.2622 20.988 22.2245 21.1867C22.1746 21.4489 22.022 21.6803 21.8007 21.8294C21.6329 21.9424 21.4499 21.974 21.304 21.9873C21.1639 22 20.9924 22 20.8072 22H13.7844C13.6582 22 13.5353 22 13.4312 21.9915C13.3169 21.9822 13.182 21.9601 13.0463 21.891C12.8582 21.7951 12.7052 21.6421 12.6093 21.454C12.5402 21.3183 12.5181 21.1834 12.5088 21.0691C12.5003 20.965 12.5003 20.8421 12.5003 20.7159L12.5003 4.37645C12.5003 3.83452 12.5003 3.40142 12.5213 3.0863C12.532 2.92676 12.5493 2.77397 12.5821 2.64099C12.612 2.5196 12.6715 2.34126 12.8188 2.2041ZM13.5263 3.06236C13.5393 3.08641 13.5534 3.11312 13.5685 3.14273C13.6949 3.3906 13.8524 3.75755 14.0761 4.27934L21.0628 20.5818C21.1464 20.7768 21.1952 20.8919 21.2228 20.9769L21.227 20.99L21.2133 20.9914C21.1242 20.9995 20.9993 21 20.7871 21H13.8003C13.6521 21 13.5709 20.9996 13.5126 20.9948L13.506 20.9942L13.5055 20.9877C13.5007 20.9294 13.5003 20.8482 13.5003 20.7V4.39751C13.5003 3.82983 13.5006 3.43048 13.5191 3.15286C13.5213 3.1197 13.5237 3.08961 13.5263 3.06236Z" fill="black"/>
</svg>
