<svg width="24" height="24" viewBox="0 0 24 24" fill="none" xmlns="http://www.w3.org/2000/svg">
<path d="M1.78045 13.5652C1.33355 14.051 1.19804 14.747 1.43002 15.365C1.58266 15.7716 1.8825 16.0043 2.01944 16.1023C2.1852 16.2209 2.3698 16.318 2.53282 16.3965C2.85124 16.5501 3.29006 16.7277 3.79826 16.9333L19.9622 23.4759C20.1182 23.5391 20.3044 23.6146 20.4709 23.665C20.6517 23.7197 20.9739 23.8 21.3516 23.7226C21.8043 23.6299 22.2021 23.3618 22.4579 22.9769C22.6713 22.6559 22.7178 22.3271 22.7349 22.139C22.7506 21.9657 22.7505 21.7649 22.7505 21.5966L22.7505 15.0249C22.7505 14.9081 22.7506 14.7559 22.7395 14.6198C22.7264 14.4591 22.6917 14.2146 22.5597 13.9555C22.3919 13.6262 22.1242 13.3585 21.7949 13.1907C21.5359 13.0587 21.2913 13.0241 21.1306 13.011C20.9946 12.9998 20.8423 12.9999 20.7256 13L4.56413 13C4.01588 13 3.54248 13 3.18972 13.0228C3.00912 13.0345 2.8016 13.0552 2.60344 13.1029C2.43975 13.1424 2.0745 13.2456 1.78045 13.5652Z" fill="black"/>
<path fill-rule="evenodd" clip-rule="evenodd" d="M1.78045 10.4348C1.33355 9.94896 1.19804 9.253 1.43002 8.635C1.58266 8.22837 1.8825 7.99568 2.01944 7.89769C2.1852 7.77908 2.3698 7.68205 2.53282 7.60345C2.85125 7.44994 3.29007 7.27234 3.79828 7.06665L19.9622 0.524103C20.1183 0.460856 20.3043 0.385445 20.4709 0.335005C20.6517 0.280264 20.9739 0.200026 21.3516 0.277373C21.8043 0.370104 22.2021 0.638174 22.4579 1.02307C22.6713 1.34412 22.7178 1.67294 22.7349 1.86103C22.7506 2.03433 22.7505 2.23506 22.7505 2.40343L22.7505 8.97514C22.7505 9.09186 22.7506 9.24411 22.7395 9.38019C22.7264 9.54086 22.6917 9.78542 22.5597 10.0445C22.3919 10.3738 22.1242 10.6415 21.7949 10.8093C21.5359 10.9413 21.2913 10.9759 21.1306 10.989C20.9946 11.0002 20.8423 11.0001 20.7256 11L4.56413 11C4.01588 11 3.54248 11 3.18972 10.9772C3.00912 10.9655 2.8016 10.9448 2.60344 10.8971C2.43975 10.8576 2.0745 10.7544 1.78045 10.4348ZM6.92031 8.5H20.2505V3.10447L6.92031 8.5Z" fill="black"/>
</svg>
