<svg width="24" height="24" viewBox="0 0 24 24" fill="none" xmlns="http://www.w3.org/2000/svg">
<path d="M11.0486 2.91662C10.7678 2.65517 10.3645 2.5724 10.0035 2.70211C9.83327 2.76326 9.71083 2.89387 9.62333 3.00978C9.53044 3.13282 9.44009 3.28989 9.34826 3.46999C9.16597 3.82752 8.94712 4.33817 8.66598 4.99417L2.26991 19.9183C2.17196 20.1469 2.08848 20.3416 2.03594 20.5034C1.982 20.6694 1.94266 20.8511 1.97882 21.0414C2.0299 21.3101 2.18631 21.5473 2.41322 21.7002C2.57386 21.8083 2.75638 21.8438 2.93023 21.8596C3.09958 21.875 3.31141 21.875 3.56006 21.875H9.97407C10.1441 21.875 10.2937 21.875 10.4175 21.8649C10.5491 21.8541 10.6842 21.8301 10.8154 21.7633C11.0083 21.665 11.1651 21.5082 11.2633 21.3153C11.3302 21.1841 11.3542 21.049 11.3649 20.9174C11.3751 20.7936 11.3751 20.644 11.375 20.474V5.55028C11.375 4.83655 11.375 4.28096 11.3483 3.88052C11.3349 3.67881 11.3137 3.49884 11.2768 3.34916C11.242 3.20816 11.1809 3.03988 11.0486 2.91662Z" fill="black"/>
<path fill-rule="evenodd" clip-rule="evenodd" d="M13.0367 3.00809C13.2832 2.77853 13.6373 2.70586 13.9543 2.81975C14.09 2.86849 14.1942 2.97547 14.277 3.08509C14.3633 3.19947 14.4498 3.34898 14.5405 3.52677C14.7209 3.88058 14.9384 4.38819 15.2213 5.04832L21.6133 19.9631C21.713 20.1955 21.7945 20.3858 21.8453 20.542C21.897 20.7011 21.9288 20.8587 21.8985 21.018C21.8536 21.254 21.7163 21.4623 21.517 21.5965C21.3825 21.6871 21.2252 21.7199 21.0585 21.7351C20.8949 21.75 20.688 21.75 20.4351 21.75H14.0299C13.8566 21.75 13.7114 21.75 13.5928 21.7403C13.4689 21.7302 13.3521 21.7083 13.2415 21.6519C13.0721 21.5656 12.9344 21.4279 12.8481 21.2586C12.7918 21.1479 12.7698 21.0311 12.7597 20.9073C12.75 20.7886 12.75 20.6435 12.75 20.4701V5.55556C12.75 4.83736 12.75 4.2851 12.7765 3.88884C12.7898 3.68971 12.8103 3.51823 12.8447 3.37909C12.8775 3.24573 12.9312 3.10634 13.0367 3.00809ZM13.7853 3.2903C13.6444 3.23968 13.487 3.27198 13.3775 3.37401C13.3751 3.37701 13.3531 3.40542 13.3301 3.4988C13.3062 3.59579 13.288 3.73333 13.2754 3.92213C13.2502 4.29965 13.25 4.83517 13.25 5.5668V20.46C13.25 20.6461 13.2502 20.7707 13.2581 20.8666C13.2657 20.9595 13.2792 21.0032 13.2936 21.0316C13.332 21.1069 13.3932 21.168 13.4684 21.2064C13.4969 21.2209 13.5406 21.2344 13.6335 21.242C13.7293 21.2498 13.8539 21.25 14.04 21.25H20.4228C20.691 21.25 20.875 21.2497 21.0132 21.2372C21.151 21.2246 21.2076 21.202 21.2377 21.1818C21.3263 21.1221 21.3873 21.0296 21.4073 20.9247C21.414 20.889 21.4125 20.8281 21.3697 20.6965C21.3268 20.5645 21.2546 20.3952 21.149 20.1488L14.7662 5.25561C14.478 4.58313 14.2669 4.09097 14.095 3.75389C14.0091 3.58532 13.9381 3.46608 13.8779 3.38635C13.82 3.3096 13.7886 3.29214 13.7853 3.2903Z" fill="black"/>
</svg>
