<svg width="24" height="24" viewBox="0 0 24 24" fill="none" xmlns="http://www.w3.org/2000/svg">
<path fill-rule="evenodd" clip-rule="evenodd" d="M9.57769 1.75955C10.018 1.60137 10.5098 1.70231 10.8522 2.02115C11.0532 2.20835 11.1276 2.44446 11.1613 2.58114C11.1993 2.73519 11.2178 2.90496 11.2287 3.06966C11.2503 3.3932 11.2503 3.83323 11.2503 4.36746L11.2503 20.7202C11.2503 20.8424 11.2504 20.9748 11.241 21.0895C11.2304 21.2192 11.2042 21.3906 11.1141 21.5675C10.9942 21.8027 10.803 21.9939 10.5678 22.1137C10.391 22.2038 10.2195 22.2301 10.0898 22.2407C9.97516 22.25 9.84274 22.25 9.72059 22.25H2.68744C2.50774 22.25 2.32576 22.25 2.17399 22.2362C2.01365 22.2216 1.78028 22.1849 1.56032 22.0368C1.28359 21.8504 1.09285 21.5611 1.03056 21.2334C0.981045 20.9728 1.03922 20.7439 1.08896 20.5907C1.13605 20.4458 1.20776 20.2785 1.27858 20.1134L8.28746 3.75934C8.49791 3.26829 8.67124 2.86383 8.81853 2.57495C8.89351 2.42789 8.97734 2.27912 9.07294 2.15249C9.15777 2.04013 9.31916 1.85243 9.57769 1.75955ZM9.75023 4.15433L9.75029 20.75L2.63775 20.75L9.75023 4.15433ZM2.50697 21.0844L2.50775 21.0808C2.50715 21.0833 2.50693 21.0844 2.50697 21.0844ZM2.28243 20.7391L2.27882 20.7384C2.27878 20.7384 2.27994 20.7387 2.28243 20.7391Z" fill="black"/>
<path fill-rule="evenodd" clip-rule="evenodd" d="M14.4229 1.75955C13.9826 1.60137 13.4908 1.70231 13.1485 2.02115C12.9474 2.20835 12.873 2.44446 12.8393 2.58114C12.8013 2.73519 12.7829 2.90496 12.7719 3.06966C12.7503 3.3932 12.7503 3.83323 12.7503 4.36746L12.7503 20.7202C12.7503 20.8424 12.7502 20.9748 12.7596 21.0895C12.7702 21.2192 12.7965 21.3906 12.8866 21.5675C13.0064 21.8027 13.1976 21.9939 13.4328 22.1137C13.6096 22.2038 13.7811 22.2301 13.9108 22.2407C14.0255 22.25 14.1579 22.25 14.28 22.25H21.3132C21.4929 22.25 21.6749 22.25 21.8266 22.2362C21.987 22.2216 22.2203 22.1849 22.4403 22.0368C22.717 21.8504 22.9078 21.5611 22.9701 21.2334C23.0196 20.9728 22.9614 20.7439 22.9117 20.5907C22.8646 20.4458 22.7929 20.2785 22.722 20.1134L15.7132 3.75934C15.5027 3.26829 15.3294 2.86383 15.1821 2.57495C15.1071 2.42789 15.0233 2.27912 14.9277 2.15249C14.8429 2.04013 14.6815 1.85243 14.4229 1.75955ZM14.2504 4.15433L14.2503 20.75L21.3629 20.75L14.2504 4.15433ZM21.4936 21.0844L21.4929 21.0808C21.4935 21.0833 21.4937 21.0844 21.4936 21.0844ZM21.7182 20.7391L21.7218 20.7384C21.7218 20.7384 21.7207 20.7387 21.7182 20.7391Z" fill="black"/>
</svg>
