<svg width="24" height="24" viewBox="0 0 24 24" fill="none" xmlns="http://www.w3.org/2000/svg">
<path fill-rule="evenodd" clip-rule="evenodd" d="M1.52391 15.0071C1.3341 14.4787 1.45523 13.8886 1.83783 13.4777C2.07508 13.2229 2.36895 13.1337 2.52093 13.0962C2.69605 13.053 2.88279 13.0334 3.05266 13.0221C3.38467 12.9999 3.83179 12.9999 4.35903 12.9999L20.7228 12.9999C20.8419 12.9999 20.9841 12.9998 21.1094 13.0101C21.2547 13.0219 21.4627 13.0524 21.6806 13.1634C21.9628 13.3072 22.1923 13.5367 22.3361 13.8189C22.4472 14.0369 22.4776 14.2449 22.4895 14.3901C22.4997 14.5154 22.4997 14.6576 22.4996 14.7767V21.8172C22.4997 21.9925 22.4997 22.1853 22.4848 22.3489C22.4689 22.5237 22.4271 22.8074 22.2438 23.0796C22.0201 23.4116 21.673 23.6405 21.2797 23.7153C20.9573 23.7766 20.68 23.7033 20.5131 23.649C20.3569 23.5983 20.1798 23.5223 20.0186 23.4532L3.65305 16.4394C3.16844 16.2317 2.75747 16.0556 2.46103 15.9044C2.30936 15.8271 2.14545 15.7355 2.0015 15.6268C1.87658 15.5325 1.64162 15.3347 1.52391 15.0071ZM20.4996 14.9999H5.37154L20.4996 21.4834V14.9999Z" fill="black"/>
<path fill-rule="evenodd" clip-rule="evenodd" d="M1.52391 8.99278C1.3341 9.52115 1.45523 10.1113 1.83783 10.5222C2.07508 10.7769 2.36895 10.8662 2.52093 10.9037C2.69605 10.9468 2.88279 10.9665 3.05266 10.9778C3.38467 11 3.83179 10.9999 4.35903 10.9999L20.7228 10.9999C20.8419 11 20.9841 11 21.1094 10.9898C21.2547 10.9779 21.4627 10.9475 21.6806 10.8364C21.9628 10.6926 22.1923 10.4632 22.3361 10.1809C22.4472 9.96297 22.4776 9.75498 22.4895 9.60976C22.4997 9.48448 22.4997 9.34227 22.4996 9.22318V2.18267C22.4997 2.00732 22.4997 1.81451 22.4848 1.65094C22.4689 1.4762 22.4271 1.19247 22.2438 0.920288C22.0201 0.588215 21.673 0.359329 21.2797 0.284576C20.9573 0.223307 20.68 0.2966 20.5131 0.350815C20.3569 0.401558 20.1798 0.477524 20.0187 0.54664L3.65305 7.56049C3.16846 7.76816 2.75746 7.94429 2.46103 8.09543C2.30936 8.17276 2.14545 8.26436 2.0015 8.37304C1.87658 8.46735 1.64162 8.66514 1.52391 8.99278ZM20.4996 8.99993H5.37154L20.4996 2.51647V8.99993Z" fill="black"/>
</svg>
