<svg width="24" height="24" viewBox="0 0 24 24" fill="none" xmlns="http://www.w3.org/2000/svg">
<path fill-rule="evenodd" clip-rule="evenodd" d="M1.99446 13.8381C1.86791 13.4858 1.94867 13.0924 2.20373 12.8185C2.3409 12.6712 2.51923 12.6116 2.64063 12.5817C2.7736 12.5489 2.92639 12.5316 3.08593 12.521C3.40105 12.5 3.83416 12.5 4.37609 12.5L20.7156 12.5C20.8417 12.4999 20.9646 12.4999 21.0687 12.5084C21.183 12.5178 21.3179 12.5398 21.4536 12.609C21.6418 12.7048 21.7947 12.8578 21.8906 13.046C21.9598 13.1817 21.9818 13.3165 21.9911 13.4308C21.9996 13.5349 21.9996 13.6578 21.9996 13.784V20.8068C21.9996 20.992 21.9996 21.1635 21.9869 21.3036C21.9736 21.4495 21.942 21.6325 21.829 21.8003C21.6799 22.0217 21.4485 22.1743 21.1863 22.2241C20.9876 22.2619 20.807 22.2188 20.6676 22.1735C20.5339 22.1301 20.3762 22.0625 20.206 21.9895L3.86568 14.9865C3.36758 14.7731 2.96949 14.6025 2.68813 14.459C2.54569 14.3864 2.41206 14.3103 2.30275 14.2278C2.20296 14.1525 2.06251 14.0275 1.99446 13.8381ZM2.88406 13.4119C2.88373 13.4115 2.88402 13.4119 2.88406 13.4119C2.88417 13.4119 2.88552 13.4131 2.88777 13.4155C2.8861 13.414 2.88461 13.4125 2.88406 13.4119ZM3.14236 13.5681C3.11275 13.553 3.08604 13.539 3.062 13.5259C3.08925 13.5234 3.11933 13.521 3.1525 13.5188C3.43011 13.5002 3.82946 13.5 4.39715 13.5H20.6996C20.8479 13.5 20.929 13.5003 20.9873 13.5051L20.9939 13.5057L20.9945 13.5123C20.9992 13.5706 20.9996 13.6517 20.9996 13.8V20.7867C20.9996 20.9989 20.9991 21.1239 20.991 21.2129L20.9896 21.2266L20.9766 21.2225C20.8915 21.1948 20.7764 21.146 20.5814 21.0625L4.27897 14.0757C3.75719 13.8521 3.39023 13.6945 3.14236 13.5681Z" fill="black"/>
<path fill-rule="evenodd" clip-rule="evenodd" d="M1.99446 10.1619C1.86791 10.5141 1.94867 10.9075 2.20373 11.1814C2.3409 11.3287 2.51923 11.3883 2.64063 11.4182C2.7736 11.451 2.92639 11.4683 3.08593 11.4789C3.40105 11.5 3.83416 11.5 4.37609 11.5L20.7156 11.5C20.8417 11.5 20.9646 11.5 21.0687 11.4915C21.183 11.4821 21.3179 11.4601 21.4536 11.391C21.6418 11.2951 21.7947 11.1421 21.8906 10.9539C21.9598 10.8182 21.9818 10.6834 21.9911 10.5691C21.9996 10.465 21.9996 10.3421 21.9996 10.2159V3.19312C21.9996 3.00788 21.9996 2.83638 21.9869 2.6963C21.9736 2.55038 21.942 2.36737 21.829 2.19962C21.6799 1.97824 21.4485 1.82565 21.1863 1.77581C20.9876 1.73805 20.807 1.78111 20.6676 1.82638C20.5338 1.86984 20.3762 1.93741 20.2059 2.0104L3.86568 9.01337C3.36758 9.22684 2.96949 9.39744 2.68813 9.5409C2.54569 9.61353 2.41206 9.6896 2.30275 9.77212C2.20296 9.84745 2.06251 9.97244 1.99446 10.1619ZM3.14236 10.4318C3.11275 10.4469 3.08604 10.4609 3.062 10.474C3.08925 10.4765 3.11933 10.4789 3.1525 10.4812C3.43011 10.4997 3.82946 10.5 4.39715 10.5H20.6996C20.8479 10.5 20.929 10.4996 20.9873 10.4948L20.9939 10.4942L20.9945 10.4876C20.9992 10.4293 20.9996 10.3482 20.9996 10.2V3.21319C20.9996 3.00101 20.9991 2.87605 20.991 2.78696L20.9896 2.77332L20.9766 2.77745C20.8915 2.80509 20.7764 2.85386 20.5814 2.93744L4.27897 9.92421C3.75719 10.1478 3.39023 10.3054 3.14236 10.4318Z" fill="black"/>
</svg>
