<svg width="24" height="24" viewBox="0 0 24 24" fill="none" xmlns="http://www.w3.org/2000/svg">
<path d="M2.20373 12.8185C1.94867 13.0924 1.86791 13.4858 1.99446 13.8381C2.06251 14.0275 2.20296 14.1525 2.30275 14.2278C2.41206 14.3103 2.54569 14.3864 2.68813 14.459C2.96949 14.6025 3.36756 14.7731 3.86566 14.9865L20.2059 21.9895C20.3762 22.0625 20.5339 22.1301 20.6676 22.1735C20.807 22.2188 20.9876 22.2619 21.1863 22.2241C21.4485 22.1743 21.6799 22.0217 21.829 21.8003C21.942 21.6325 21.9736 21.4495 21.9869 21.3036C21.9996 21.1635 21.9996 20.992 21.9996 20.8068V13.784C21.9996 13.6578 21.9996 13.5349 21.9911 13.4308C21.9818 13.3165 21.9598 13.1817 21.8906 13.046C21.7947 12.8578 21.6418 12.7048 21.4536 12.609C21.3179 12.5398 21.183 12.5178 21.0687 12.5084C20.9646 12.4999 20.8417 12.4999 20.7156 12.5L4.37609 12.5C3.83416 12.5 3.40105 12.5 3.08593 12.521C2.92639 12.5316 2.7736 12.5489 2.64063 12.5817C2.51923 12.6116 2.3409 12.6712 2.20373 12.8185Z" fill="black"/>
<path fill-rule="evenodd" clip-rule="evenodd" d="M2.20373 11.1814C1.94867 10.9075 1.86791 10.5141 1.99446 10.1619C2.06251 9.97244 2.20296 9.84745 2.30275 9.77212C2.41206 9.6896 2.54569 9.61353 2.68813 9.5409C2.96949 9.39744 3.36758 9.22684 3.86568 9.01337L20.2059 2.0104C20.3762 1.93741 20.5338 1.86984 20.6676 1.82638C20.807 1.78111 20.9876 1.73805 21.1863 1.77581C21.4485 1.82565 21.6799 1.97824 21.829 2.19962C21.942 2.36737 21.9736 2.55038 21.9869 2.6963C21.9996 2.83638 21.9996 3.00788 21.9996 3.19312V10.2159C21.9996 10.3421 21.9996 10.465 21.9911 10.5691C21.9818 10.6834 21.9598 10.8182 21.8906 10.9539C21.7947 11.1421 21.6418 11.2951 21.4536 11.391C21.3179 11.4601 21.183 11.4821 21.0687 11.4915C20.9646 11.5 20.8417 11.5 20.7156 11.5L4.37609 11.5C3.83416 11.5 3.40105 11.5 3.08593 11.4789C2.92639 11.4683 2.7736 11.451 2.64063 11.4182C2.51923 11.3883 2.3409 11.3287 2.20373 11.1814ZM3.062 10.474C3.08604 10.4609 3.11275 10.4469 3.14236 10.4318C3.39023 10.3054 3.75719 10.1478 4.27897 9.92421L20.5814 2.93744C20.7764 2.85386 20.8915 2.80509 20.9766 2.77745L20.9896 2.77332L20.991 2.78696C20.9991 2.87605 20.9996 3.00101 20.9996 3.21319V10.2C20.9996 10.3482 20.9992 10.4293 20.9945 10.4876L20.9939 10.4942L20.9873 10.4948C20.929 10.4996 20.8479 10.5 20.6996 10.5H4.39715C3.82946 10.5 3.43011 10.4997 3.1525 10.4812C3.11933 10.4789 3.08925 10.4765 3.062 10.474Z" fill="black"/>
</svg>
