<svg width="24" height="24" viewBox="0 0 24 24" fill="none" xmlns="http://www.w3.org/2000/svg">
<path fill-rule="evenodd" clip-rule="evenodd" d="M2.81962 13.9543C2.70573 13.6373 2.77841 13.2832 3.00797 13.0367C3.10621 12.9312 3.24561 12.8776 3.37897 12.8447C3.51811 12.8104 3.68959 12.7898 3.88872 12.7765C4.28497 12.7501 4.83724 12.7501 5.55543 12.7501L20.47 12.7501C20.6434 12.75 20.7885 12.75 20.9071 12.7597C21.031 12.7699 21.1478 12.7918 21.2585 12.8481C21.4278 12.9344 21.5655 13.0721 21.6518 13.2415C21.7081 13.3521 21.7301 13.4689 21.7402 13.5928C21.7499 13.7114 21.7499 13.8565 21.7499 14.0299V20.4351C21.7499 20.688 21.7499 20.8949 21.735 21.0585C21.7198 21.2252 21.687 21.3825 21.5964 21.517C21.4622 21.7163 21.2539 21.8536 21.0179 21.8985C20.8586 21.9288 20.701 21.897 20.5419 21.8453C20.3856 21.7945 20.1955 21.713 19.963 21.6134L5.0482 15.2213C4.38808 14.9384 3.88045 14.7209 3.52665 14.5405C3.34885 14.4498 3.19934 14.3634 3.08497 14.277C2.97535 14.1942 2.86836 14.09 2.81962 13.9543ZM3.37389 13.3775C3.27186 13.487 3.23956 13.6444 3.29018 13.7853C3.29009 13.7851 3.28999 13.785 3.29018 13.7853C3.29202 13.7886 3.30947 13.82 3.38623 13.878C3.46596 13.9381 3.58519 14.0091 3.75376 14.095C4.09085 14.2669 4.58301 14.478 5.25548 14.7662L20.1487 21.149C20.3951 21.2546 20.5643 21.3269 20.6964 21.3697C20.828 21.4125 20.8889 21.414 20.9246 21.4073C21.0294 21.3873 21.122 21.3263 21.1816 21.2377C21.2019 21.2077 21.2245 21.151 21.237 21.0132C21.2496 20.875 21.2499 20.691 21.2499 20.4229V14.0401C21.2499 13.8539 21.2497 13.7293 21.2418 13.6335C21.2343 13.5406 21.2207 13.4969 21.2063 13.4685C21.1679 13.3932 21.1067 13.332 21.0315 13.2936C21.0031 13.2792 20.9594 13.2657 20.8664 13.2581C20.7706 13.2502 20.646 13.2501 20.4599 13.2501L5.56667 13.2501C4.83505 13.2501 4.29953 13.2502 3.922 13.2754C3.73321 13.288 3.59567 13.3062 3.49868 13.3301C3.40529 13.3532 3.37689 13.3751 3.37389 13.3775Z" fill="black"/>
<path fill-rule="evenodd" clip-rule="evenodd" d="M2.81962 10.0458C2.70573 10.3628 2.77841 10.7169 3.00797 10.9634C3.10621 11.0689 3.24561 11.1226 3.37897 11.1554C3.51811 11.1897 3.68959 11.2103 3.88872 11.2236C4.28497 11.2501 4.83724 11.2501 5.55543 11.2501L20.47 11.2501C20.6434 11.2501 20.7885 11.2501 20.9071 11.2404C21.031 11.2302 21.1478 11.2083 21.2585 11.152C21.4278 11.0657 21.5655 10.928 21.6518 10.7586C21.7081 10.648 21.7301 10.5312 21.7402 10.4073C21.7499 10.2887 21.7499 10.1436 21.7499 9.9702V3.56504C21.7499 3.31212 21.7499 3.10517 21.735 2.94157C21.7198 2.77492 21.687 2.61758 21.5964 2.48306C21.4622 2.28381 21.2539 2.14648 21.0179 2.10163C20.8586 2.07135 20.701 2.10313 20.5419 2.15483C20.3856 2.20559 20.1954 2.28711 19.9629 2.38675L5.0482 8.77878C4.38807 9.06169 3.88045 9.27924 3.52665 9.45963C3.34885 9.55028 3.19934 9.63675 3.08497 9.7231C2.97535 9.80586 2.86836 9.9101 2.81962 10.0458ZM3.37389 10.6226C3.27186 10.5131 3.23956 10.3557 3.29018 10.2148C3.29009 10.215 3.28999 10.2151 3.29018 10.2148C3.29202 10.2115 3.30947 10.1801 3.38623 10.1221C3.46596 10.062 3.58519 9.99102 3.75376 9.90507C4.09085 9.73321 4.58301 9.52213 5.25548 9.23393L20.1487 2.85113C20.3951 2.74551 20.5643 2.67325 20.6964 2.63037C20.828 2.58761 20.8889 2.58606 20.9246 2.59284C21.0294 2.61277 21.122 2.67381 21.1816 2.76236C21.2019 2.79245 21.2245 2.84908 21.237 2.9869C21.2496 3.12512 21.2499 3.30913 21.2499 3.57725V9.96005C21.2499 10.1462 21.2497 10.2708 21.2418 10.3666C21.2343 10.4595 21.2207 10.5032 21.2063 10.5316C21.1679 10.6069 21.1067 10.6681 21.0315 10.7065C21.0031 10.7209 20.9594 10.7344 20.8664 10.742C20.7706 10.7499 20.646 10.7501 20.4599 10.7501L5.56667 10.7501C4.83504 10.7501 4.29953 10.7499 3.922 10.7247C3.73321 10.7121 3.59567 10.6939 3.49868 10.67C3.40529 10.647 3.37688 10.625 3.37389 10.6226C3.37359 10.6224 3.37372 10.6225 3.37389 10.6226Z" fill="black"/>
</svg>
