<svg width="24" height="24" viewBox="0 0 24 24" fill="none" xmlns="http://www.w3.org/2000/svg">
<path d="M1.83783 13.4777C1.45523 13.8886 1.3341 14.4787 1.52391 15.0071C1.64162 15.3347 1.87658 15.5325 2.0015 15.6268C2.14545 15.7355 2.30936 15.8271 2.46103 15.9044C2.75747 16.0556 3.16844 16.2317 3.65305 16.4394L20.0186 23.4532C20.1798 23.5223 20.3569 23.5983 20.5131 23.649C20.68 23.7033 20.9573 23.7766 21.2797 23.7153C21.673 23.6405 22.0201 23.4116 22.2438 23.0796C22.4271 22.8074 22.4689 22.5237 22.4848 22.3489C22.4997 22.1854 22.4997 21.9927 22.4996 21.8173V14.7768C22.4997 14.6577 22.4997 14.5154 22.4895 14.3901C22.4776 14.2449 22.4472 14.0369 22.3361 13.8189C22.1923 13.5367 21.9628 13.3072 21.6806 13.1634C21.4627 13.0524 21.2547 13.0219 21.1094 13.0101C20.9841 12.9998 20.8419 12.9999 20.7228 12.9999L4.35903 12.9999C3.83179 12.9999 3.38467 12.9999 3.05266 13.0221C2.88279 13.0334 2.69605 13.053 2.52093 13.0962C2.36895 13.1337 2.07508 13.2229 1.83783 13.4777Z" fill="black"/>
<path fill-rule="evenodd" clip-rule="evenodd" d="M1.83783 10.5222C1.45523 10.1113 1.3341 9.52115 1.52391 8.99278C1.64162 8.66514 1.87658 8.46735 2.0015 8.37304C2.14545 8.26436 2.30936 8.17276 2.46103 8.09543C2.75743 7.94431 3.16832 7.76822 3.65284 7.56057L20.0186 0.546669C20.1797 0.477564 20.357 0.401547 20.5131 0.350815C20.68 0.2966 20.9573 0.223307 21.2797 0.284576C21.673 0.359329 22.0201 0.588215 22.2438 0.920288C22.4271 1.19247 22.4689 1.4762 22.4848 1.65094C22.4997 1.8145 22.4997 2.00721 22.4996 2.18254V9.22308C22.4997 9.34217 22.4997 9.48448 22.4895 9.60976C22.4776 9.75498 22.4472 9.96297 22.3361 10.1809C22.1923 10.4632 21.9628 10.6926 21.6806 10.8364C21.4627 10.9475 21.2547 10.9779 21.1094 10.9898C20.9841 11 20.8419 11 20.7228 10.9999L4.35903 10.9999C3.83179 10.9999 3.38467 11 3.05266 10.9778C2.88279 10.9665 2.69605 10.9468 2.52093 10.9037C2.36895 10.8662 2.07508 10.7769 1.83783 10.5222ZM5.37154 8.99993H20.4996V2.51647L5.37154 8.99993Z" fill="black"/>
</svg>
