<svg width="24" height="24" viewBox="0 0 24 24" fill="none" xmlns="http://www.w3.org/2000/svg">
<path fill-rule="evenodd" clip-rule="evenodd" d="M10.1622 1.99482C10.5145 1.86828 10.9079 1.94903 11.1818 2.2041C11.3291 2.34126 11.3887 2.5196 11.4186 2.64099C11.4514 2.77397 11.4687 2.92676 11.4793 3.0863C11.5003 3.40142 11.5003 3.83452 11.5003 4.37645L11.5003 20.7159C11.5003 20.8421 11.5004 20.965 11.4918 21.0691C11.4825 21.1834 11.4605 21.3183 11.3913 21.454C11.2955 21.6421 11.1425 21.7951 10.9543 21.891C10.8186 21.9601 10.6837 21.9822 10.5694 21.9915C10.4654 22 10.3425 22 10.2163 22H3.19349C3.00825 22 2.83674 22 2.69667 21.9873C2.55074 21.974 2.36773 21.9424 2.19998 21.8294C1.9786 21.6803 1.82601 21.4489 1.77618 21.1867C1.73842 20.988 1.78147 20.8073 1.82675 20.668C1.8702 20.5342 1.93777 20.3766 2.01075 20.2064L9.01373 3.86605C9.2272 3.36795 9.39781 2.96986 9.54126 2.6885C9.61389 2.54605 9.68996 2.41242 9.77248 2.30312C9.84782 2.20333 9.97281 2.06287 10.1622 1.99482ZM10.5884 2.88443C10.5887 2.8841 10.5884 2.88439 10.5884 2.88443C10.5884 2.88454 10.5872 2.88588 10.5847 2.88813C10.5862 2.88647 10.5878 2.88497 10.5884 2.88443ZM10.4321 3.14273C10.4472 3.11312 10.4613 3.08641 10.4744 3.06236C10.4769 3.08961 10.4793 3.1197 10.4815 3.15286C10.5 3.43048 10.5003 3.82983 10.5003 4.39751V20.7C10.5003 20.8482 10.4999 20.9294 10.4952 20.9877L10.4946 20.9942L10.488 20.9948C10.4297 20.9996 10.3486 21 10.2003 21H3.21355C3.00138 21 2.87641 20.9995 2.78733 20.9914L2.77369 20.99L2.77782 20.9769C2.80546 20.8919 2.85423 20.7768 2.93781 20.5818L9.92458 4.27934C10.1482 3.75755 10.3058 3.3906 10.4321 3.14273Z" fill="black"/>
<path fill-rule="evenodd" clip-rule="evenodd" d="M13.8384 1.99482C13.4862 1.86828 13.0928 1.94903 12.8188 2.2041C12.6715 2.34126 12.612 2.5196 12.5821 2.64099C12.5493 2.77397 12.532 2.92676 12.5213 3.0863C12.5003 3.40142 12.5003 3.83452 12.5003 4.37645L12.5003 20.7159C12.5003 20.8421 12.5003 20.965 12.5088 21.0691C12.5181 21.1834 12.5402 21.3183 12.6093 21.454C12.7052 21.6421 12.8582 21.7951 13.0463 21.891C13.182 21.9601 13.3169 21.9822 13.4312 21.9915C13.5353 22 13.6582 22 13.7843 22H20.8072C20.9924 22 21.1639 22 21.304 21.9873C21.4499 21.974 21.6329 21.9424 21.8007 21.8294C22.022 21.6803 22.1746 21.4489 22.2245 21.1867C22.2622 20.988 22.2192 20.8073 22.1739 20.668C22.1304 20.5342 22.0629 20.3766 21.9899 20.2063L14.9869 3.86605C14.7734 3.36794 14.6028 2.96986 14.4594 2.6885C14.3868 2.54605 14.3107 2.41242 14.2282 2.30312C14.1528 2.20333 14.0278 2.06287 13.8384 1.99482ZM13.5685 3.14273C13.5534 3.11312 13.5393 3.08641 13.5263 3.06236C13.5237 3.08961 13.5213 3.1197 13.5191 3.15286C13.5006 3.43048 13.5003 3.82983 13.5003 4.39751V20.7C13.5003 20.8482 13.5007 20.9294 13.5055 20.9877L13.506 20.9942L13.5126 20.9948C13.5709 20.9996 13.6521 21 13.8003 21H20.7871C20.9993 21 21.1242 20.9995 21.2133 20.9914L21.227 20.99L21.2228 20.9769C21.1952 20.8919 21.1464 20.7768 21.0628 20.5818L14.0761 4.27934C13.8524 3.75755 13.6949 3.3906 13.5685 3.14273Z" fill="black"/>
</svg>
