<svg width="24" height="24" viewBox="0 0 24 24" fill="none" xmlns="http://www.w3.org/2000/svg">
<path fill-rule="evenodd" clip-rule="evenodd" d="M13.4781 1.83819C13.8889 1.45559 14.4791 1.33446 15.0074 1.52428C15.3351 1.64198 15.5329 1.87694 15.6272 2.00187C15.7359 2.14582 15.8275 2.30972 15.9048 2.4614C16.0559 2.75779 16.232 3.16869 16.4397 3.65321L23.4536 20.019C23.5227 20.1801 23.5987 20.3573 23.6494 20.5135C23.7036 20.6804 23.7769 20.9577 23.7156 21.2801C23.6409 21.6734 23.412 22.0205 23.0799 22.2441C22.8078 22.4274 22.524 22.4693 22.3493 22.4852C22.1857 22.5001 21.993 22.5 21.8177 22.5H14.7771C14.6581 22.5 14.5157 22.5001 14.3905 22.4898C14.2452 22.478 14.0373 22.4475 13.8193 22.3365C13.5371 22.1927 13.3076 21.9632 13.1638 21.681C13.0527 21.463 13.0223 21.255 13.0104 21.1098C13.0002 20.9845 13.0002 20.8422 13.0003 20.7231L13.0003 4.35939C13.0003 3.83215 13.0003 3.38503 13.0224 3.05303C13.0338 2.88315 13.0534 2.69642 13.0966 2.52129C13.134 2.36932 13.2233 2.07544 13.4781 1.83819ZM15.0003 5.37191V20.5H21.4838L15.0003 5.37191Z" fill="black"/>
<path d="M10.5225 1.83822C10.1116 1.45562 9.52151 1.33449 8.99315 1.52431C8.66551 1.64201 8.46772 1.87697 8.3734 2.0019C8.26473 2.14585 8.17313 2.30975 8.09579 2.46143C7.94465 2.75787 7.76853 3.16884 7.56085 3.65345L0.547036 20.019C0.477908 20.1802 0.401932 20.3573 0.351182 20.5135C0.296966 20.6804 0.223673 20.9577 0.284943 21.2801C0.359695 21.6734 0.588582 22.0205 0.920653 22.2442C1.19283 22.4275 1.47656 22.4693 1.65131 22.4852C1.81487 22.5001 2.00757 22.5001 2.18291 22.5H9.22344C9.34254 22.5001 9.48485 22.5001 9.61013 22.4899C9.75534 22.478 9.96334 22.4476 10.1813 22.3365C10.4635 22.1927 10.693 21.9632 10.8368 21.681C10.9479 21.4631 10.9783 21.2551 10.9902 21.1098C11.0004 20.9845 11.0003 20.8423 11.0003 20.7232L11.0003 4.35943C11.0003 3.83218 11.0003 3.38506 10.9782 3.05306C10.9668 2.88318 10.9472 2.69645 10.904 2.52133C10.8665 2.36935 10.7773 2.07548 10.5225 1.83822Z" fill="black"/>
</svg>
