<svg width="24" height="24" viewBox="0 0 24 24" fill="none" xmlns="http://www.w3.org/2000/svg">
<path fill-rule="evenodd" clip-rule="evenodd" d="M16.9303 0.839713C16.5516 0.748795 16.1633 0.749309 15.7654 0.749836L3.56344 0.749911C3.31539 0.749868 3.06012 0.749823 2.84142 0.767691C2.59737 0.787631 2.29107 0.835903 1.97853 0.995151C1.55517 1.21087 1.21096 1.55507 0.995244 1.97844C0.835996 2.29098 0.787724 2.59727 0.767784 2.84133C0.749916 3.06002 0.749961 3.31529 0.750004 3.56334L0.750004 20.4365C0.749961 20.6845 0.749916 20.9398 0.767784 21.1585C0.787724 21.4026 0.835997 21.7089 0.995244 22.0214C1.21096 22.4448 1.55517 22.789 1.97853 23.0047C2.29107 23.1639 2.59737 23.2122 2.84142 23.2321C3.0601 23.25 3.31536 23.25 3.56339 23.2499H20.4366C20.6846 23.25 20.9399 23.25 21.1586 23.2321C21.4026 23.2122 21.7089 23.1639 22.0215 23.0047C22.4449 22.789 22.7891 22.4448 23.0048 22.0214C23.164 21.7089 23.2123 21.4026 23.2322 21.1585C23.2501 20.9398 23.2501 20.6845 23.25 20.4365L23.2501 8.23448C23.2506 7.83662 23.2511 7.44834 23.1602 7.06965C23.0806 6.73803 22.9493 6.42101 22.7711 6.13022C22.5676 5.79815 22.2927 5.52397 22.011 5.24301L18.7569 1.98894C18.476 1.70724 18.2018 1.43233 17.8697 1.22884C17.5789 1.05064 17.2619 0.919328 16.9303 0.839713ZM15.6745 3.24992C16.2232 3.24992 16.2938 3.25795 16.3467 3.27064C16.4232 3.28901 16.4964 3.31931 16.5635 3.36044C16.6098 3.38884 16.6654 3.43308 17.0534 3.82106L17.25 4.01768V5.99992C17.25 7.24256 16.2426 8.24992 15 8.24992H9.00001C7.75737 8.24992 6.75001 7.24256 6.75001 5.99992V3.24992H9.25001V5.74992H14.75V3.24992H15.6745ZM6.00001 20.7499H18V12.9999C18 12.4476 17.5523 11.9999 17 11.9999H7.00001C6.44772 11.9999 6.00001 12.4476 6.00001 12.9999V20.7499Z" fill="black"/>
</svg>
