<svg width="24" height="24" viewBox="0 0 24 24" fill="none" xmlns="http://www.w3.org/2000/svg">
<path fill-rule="evenodd" clip-rule="evenodd" d="M16.9303 0.839958C16.5516 0.749039 16.1633 0.749553 15.7654 0.75008L3.56344 0.750156C3.31539 0.750112 3.06012 0.750067 2.84142 0.767935C2.59737 0.787875 2.29107 0.836148 1.97853 0.995395C1.55517 1.21111 1.21096 1.55532 0.995244 1.97868C0.835996 2.29122 0.787724 2.59752 0.767784 2.84157C0.749916 3.06027 0.749961 3.31554 0.750004 3.56359L0.750004 20.4367C0.749961 20.6848 0.749916 20.9401 0.767784 21.1587C0.787724 21.4028 0.835997 21.7091 0.995244 22.0216C1.21096 22.445 1.55517 22.7892 1.97853 23.0049C2.29107 23.1642 2.59737 23.2124 2.84142 23.2324C3.0601 23.2503 3.31536 23.2502 3.56339 23.2502H20.4366C20.6846 23.2502 20.9399 23.2503 21.1586 23.2324C21.4026 23.2124 21.7089 23.1642 22.0215 23.0049C22.4449 22.7892 22.7891 22.445 23.0048 22.0216C23.164 21.7091 23.2123 21.4028 23.2322 21.1587C23.2501 20.9401 23.2501 20.6848 23.25 20.4367L23.2501 8.23472C23.2506 7.83686 23.2511 7.44859 23.1602 7.06989C23.0806 6.73827 22.9493 6.42125 22.7711 6.13047C22.5676 5.7984 22.2927 5.52421 22.011 5.24326L18.7569 1.98919C18.476 1.70748 18.2018 1.43257 17.8697 1.22908C17.5789 1.05089 17.2619 0.919572 16.9303 0.839958ZM15.6745 3.25016C16.2232 3.25016 16.2938 3.25819 16.3467 3.27088C16.4232 3.28926 16.4964 3.31956 16.5635 3.36068C16.6098 3.38908 16.6654 3.43333 17.0534 3.8213L17.25 4.01793V6.00016C17.25 7.2428 16.2426 8.25016 15 8.25016H9.00001C7.75737 8.25016 6.75001 7.2428 6.75001 6.00016V3.25016H9.25001V5.75016H14.75V3.25016H15.6745ZM6.00001 20.7502H18V13.0002C18 12.4479 17.5523 12.0002 17 12.0002H7.00001C6.44772 12.0002 6.00001 12.4479 6.00001 13.0002V20.7502Z" fill="black"/>
</svg>
