<svg width="24" height="24" viewBox="0 0 24 24" fill="none" xmlns="http://www.w3.org/2000/svg">
<path fill-rule="evenodd" clip-rule="evenodd" d="M16.25 1.7565V1.75001H15.7803C15.757 1.75 15.7332 1.75 15.7089 1.75L3.5893 1.75001C3.31835 1.75 3.09981 1.75 2.92284 1.76446C2.74063 1.77935 2.58058 1.8108 2.43251 1.88625C2.19731 2.00609 2.00608 2.19731 1.88624 2.43252C1.8108 2.58059 1.77934 2.74064 1.76445 2.92285C1.75 3.09982 1.75 3.31836 1.75 3.5893V20.4107C1.75 20.6817 1.75 20.9002 1.76445 21.0772C1.77934 21.2594 1.8108 21.4194 1.88624 21.5675C2.00608 21.8027 2.19731 21.9939 2.43251 22.1138C2.58058 22.1892 2.74063 22.2207 2.92284 22.2356C3.0998 22.25 3.31833 22.25 3.58925 22.25H20.4107C20.6816 22.25 20.9002 22.25 21.0772 22.2356C21.2594 22.2207 21.4194 22.1892 21.5675 22.1138C21.8027 21.9939 21.9939 21.8027 22.1138 21.5675C22.1892 21.4194 22.2207 21.2594 22.2355 21.0772C22.25 20.9002 22.25 20.6817 22.25 20.4108V8.29117C22.25 7.83469 22.2501 7.56239 22.1878 7.30318C22.1327 7.0736 22.0418 6.85412 21.9184 6.65281C21.7792 6.42553 21.5866 6.233 21.2638 5.91026L18.0898 2.73621C17.767 2.41341 17.5745 2.22085 17.3472 2.08157C17.1459 1.9582 16.9264 1.86729 16.6968 1.81217C16.5599 1.77931 16.4194 1.76381 16.25 1.7565ZM15.6818 2.25001C15.7052 2.25001 15.7279 2.25001 15.75 2.25002V6.00001C15.75 6.41422 15.4142 6.75001 15 6.75001H9C8.58579 6.75001 8.25 6.41422 8.25 6.00001V2.25001H15.6818ZM16.25 2.25701C16.3854 2.26335 16.4846 2.27542 16.5801 2.29836C16.7587 2.34123 16.9294 2.41193 17.0859 2.50789C17.2567 2.61251 17.4062 2.75972 17.7605 3.11404L20.886 6.23953C21.2403 6.59384 21.3875 6.74332 21.4921 6.91406C21.5881 7.07064 21.6588 7.24134 21.7016 7.4199C21.7484 7.61461 21.75 7.82441 21.75 8.32549V20.4C21.75 20.6842 21.7498 20.8822 21.7372 21.0364C21.7248 21.1877 21.7018 21.2747 21.6683 21.3405C21.5963 21.4816 21.4816 21.5964 21.3405 21.6683C21.2747 21.7018 21.1877 21.7249 21.0364 21.7372C20.8822 21.7498 20.6842 21.75 20.4 21.75H18.25V13C18.25 12.3096 17.6904 11.75 17 11.75H7C6.30964 11.75 5.75 12.3096 5.75 13V21.75H3.6C3.31585 21.75 3.11777 21.7498 2.96356 21.7372C2.81227 21.7249 2.72535 21.7018 2.65951 21.6683C2.51839 21.5964 2.40365 21.4816 2.33175 21.3405C2.2982 21.2747 2.27516 21.1877 2.26279 21.0364C2.25019 20.8822 2.25 20.6842 2.25 20.4V3.60001C2.25 3.31585 2.25019 3.11778 2.26279 2.96357C2.27516 2.81227 2.2982 2.72535 2.33175 2.65951C2.40365 2.51839 2.51839 2.40366 2.65951 2.33175C2.72535 2.2982 2.81227 2.27516 2.96356 2.2628C3.11777 2.2502 3.31585 2.25001 3.6 2.25001H7.75V6.00001C7.75 6.69036 8.30964 7.25001 9 7.25001H15C15.6904 7.25001 16.25 6.69036 16.25 6.00001V2.25701ZM17.75 13V21.75H6.25V13C6.25 12.5858 6.58579 12.25 7 12.25H17C17.4142 12.25 17.75 12.5858 17.75 13Z" fill="black"/>
</svg>
