<svg width="24" height="24" viewBox="0 0 24 24" fill="none" xmlns="http://www.w3.org/2000/svg">
<path fill-rule="evenodd" clip-rule="evenodd" d="M16.7552 1.5691C16.4665 1.4998 16.1659 1.49988 15.7315 1.50001L3.58073 1.50002C3.31716 1.50001 3.08977 1.5 2.90249 1.51531C2.70481 1.53146 2.50821 1.56711 2.31902 1.66351C2.03677 1.80732 1.8073 2.03679 1.66349 2.31904C1.56709 2.50823 1.53144 2.70483 1.51529 2.90251C1.49998 3.08979 1.49999 3.31716 1.5 3.58073V20.4193C1.49999 20.6829 1.49998 20.9103 1.51529 21.0975C1.53144 21.2952 1.56709 21.4918 1.66349 21.681C1.8073 21.9632 2.03677 22.1927 2.31902 22.3365C2.50821 22.4329 2.70481 22.4686 2.90249 22.4847C3.08977 22.5 3.31715 22.5 3.58072 22.5H20.4193C20.6829 22.5 20.9102 22.5 21.0975 22.4847C21.2952 22.4686 21.4918 22.4329 21.681 22.3365C21.9632 22.1927 22.1927 21.9632 22.3365 21.681C22.4329 21.4918 22.4686 21.2952 22.4847 21.0975C22.5 20.9102 22.5 20.6829 22.5 20.4193L22.5 8.26852C22.5001 7.83415 22.5002 7.53348 22.4309 7.24484C22.3697 6.98974 22.2687 6.74588 22.1316 6.5222C21.9765 6.26909 21.7638 6.05655 21.4566 5.74949L18.2505 2.54343C17.9435 2.2362 17.7309 2.02352 17.4778 1.86842C17.2541 1.73135 17.0103 1.63034 16.7552 1.5691ZM16.5 2.53649C16.346 2.50295 16.1643 2.50002 15.6745 2.50002H15.5V6.00002C15.5 6.27616 15.2761 6.50002 15 6.50002H9C8.72386 6.50002 8.5 6.27616 8.5 6.00002V2.50002H7.5V6.00002C7.5 6.82845 8.17157 7.50002 9 7.50002H15C15.8284 7.50002 16.5 6.82845 16.5 6.00002V2.53649ZM6 21.5H18V13C18 12.4477 17.5523 12 17 12H7C6.44772 12 6 12.4477 6 13V21.5Z" fill="black"/>
</svg>
