<svg width="24" height="24" viewBox="0 0 24 24" fill="none" xmlns="http://www.w3.org/2000/svg">
<path fill-rule="evenodd" clip-rule="evenodd" d="M16.75 1.31157V1.25005H15.9084C15.8674 1.24998 15.8254 1.25 15.7824 1.25002L3.52602 1.25004C3.29016 1.25003 3.07351 1.25002 2.89197 1.26363C2.69658 1.27828 2.48224 1.31173 2.26735 1.4108C1.88894 1.58524 1.5852 1.88899 1.41075 2.26739C1.31169 2.48228 1.27823 2.69662 1.26358 2.89201C1.24997 3.07354 1.24999 3.29017 1.25 3.52601V20.474C1.24999 20.7099 1.24997 20.9265 1.26358 21.1081C1.27823 21.3035 1.31169 21.5178 1.41075 21.7327C1.5852 22.1111 1.88894 22.4148 2.26735 22.5893C2.48224 22.6884 2.69658 22.7218 2.89197 22.7365C3.07351 22.7501 3.29014 22.7501 3.52599 22.75H20.474C20.7098 22.7501 20.9265 22.7501 21.108 22.7365C21.3034 22.7218 21.5178 22.6884 21.7327 22.5893C22.1111 22.4148 22.4148 22.1111 22.5893 21.7327C22.6883 21.5178 22.7218 21.3035 22.7364 21.1081C22.75 20.9265 22.75 20.7099 22.75 20.4741L22.75 8.21768C22.7502 7.83399 22.7504 7.53211 22.6861 7.23912C22.6165 6.92185 22.4912 6.61941 22.3161 6.34584C22.1544 6.09322 21.9408 5.87987 21.6694 5.60871L18.3913 2.33069C18.1202 2.05924 17.9068 1.84566 17.6542 1.68395C17.3806 1.50882 17.0782 1.38355 16.7609 1.31394C16.7573 1.31314 16.7536 1.31235 16.75 1.31157ZM16.75 2.89193C16.7826 2.90894 16.8145 2.9274 16.8455 2.94727C16.9437 3.01014 17.0376 3.09826 17.3776 3.43835L20.5617 6.62241C20.9018 6.96249 20.9899 7.05634 21.0528 7.15455C21.1324 7.2789 21.1893 7.41637 21.221 7.56059C21.2459 7.67448 21.25 7.80316 21.25 8.28411V20.45C21.25 20.7178 21.2495 20.8773 21.2406 20.9959C21.2352 21.0688 21.2279 21.0997 21.2256 21.1078C21.201 21.1594 21.1593 21.201 21.1077 21.2256C21.0996 21.2279 21.0688 21.2352 20.9959 21.2407C20.8773 21.2496 20.7178 21.25 20.45 21.25H18.75L18.75 13.5261C18.75 13.2902 18.75 13.0736 18.7364 12.892C18.7218 12.6966 18.6883 12.4823 18.5893 12.2674C18.4148 11.889 18.1111 11.5852 17.7327 11.4108C17.5178 11.3117 17.3034 11.2783 17.108 11.2636C16.9265 11.25 16.7099 11.25 16.474 11.25H7.52602C7.29017 11.25 7.07351 11.25 6.89197 11.2636C6.69658 11.2783 6.48224 11.3117 6.26735 11.4108C5.88894 11.5852 5.5852 11.889 5.41075 12.2674C5.31169 12.4823 5.27823 12.6966 5.26358 12.892C5.24997 13.0736 5.24999 13.2902 5.25 13.5261L5.25 21.25H3.55C3.28222 21.25 3.12271 21.2496 3.00412 21.2407C2.9312 21.2352 2.90038 21.2279 2.89227 21.2256C2.84066 21.201 2.79905 21.1594 2.77441 21.1078C2.77212 21.0997 2.76485 21.0688 2.75939 20.9959C2.75049 20.8773 2.75 20.7178 2.75 20.45V3.55005C2.75 3.28226 2.75049 3.12276 2.75939 3.00416C2.76485 2.93125 2.77212 2.90043 2.77441 2.89232C2.79905 2.8407 2.84066 2.7991 2.89227 2.77445C2.90039 2.77216 2.93121 2.7649 3.00412 2.75943C3.12271 2.75054 3.28222 2.75005 3.55 2.75005H7.25L7.25 5.47403C7.24999 5.70989 7.24997 5.92653 7.26358 6.10808C7.27823 6.30347 7.31169 6.51781 7.41075 6.7327C7.5852 7.11111 7.88894 7.41485 8.26735 7.5893C8.48224 7.68836 8.69658 7.72182 8.89197 7.73646C9.07352 7.75008 9.29016 7.75006 9.52602 7.75005H14.474C14.7098 7.75006 14.9265 7.75008 15.108 7.73646C15.3034 7.72182 15.5178 7.68836 15.7327 7.5893C16.1111 7.41485 16.4148 7.11111 16.5893 6.7327C16.6883 6.51781 16.7218 6.30347 16.7364 6.10808C16.75 5.92654 16.75 5.70989 16.75 5.47404L16.75 2.89193ZM17.25 13.55V21.25H6.75V13.55C6.75 13.2823 6.75049 13.1228 6.75939 13.0042C6.76485 12.9313 6.77212 12.9004 6.77441 12.8923C6.79905 12.8407 6.84066 12.7991 6.89227 12.7744C6.90039 12.7722 6.93121 12.7649 7.00412 12.7594C7.12271 12.7505 7.28222 12.75 7.55 12.75H16.45C16.7178 12.75 16.8773 12.7505 16.9959 12.7594C17.0688 12.7649 17.0996 12.7722 17.1077 12.7744C17.1593 12.7991 17.201 12.8407 17.2256 12.8923C17.2279 12.9004 17.2352 12.9313 17.2406 13.0042C17.2495 13.1228 17.25 13.2823 17.25 13.55ZM8.75939 5.99593C8.76485 6.06884 8.77212 6.09966 8.77441 6.10778C8.79905 6.15939 8.84066 6.201 8.89227 6.22564C8.90039 6.22793 8.93121 6.2352 9.00412 6.24066C9.12271 6.24956 9.28222 6.25005 9.55 6.25005H14.45C14.7178 6.25005 14.8773 6.24956 14.9959 6.24066C15.0688 6.2352 15.0996 6.22793 15.1077 6.22564C15.1593 6.201 15.201 6.15939 15.2256 6.10778C15.2279 6.09966 15.2352 6.06884 15.2406 5.99593C15.2495 5.87734 15.25 5.71783 15.25 5.45005V2.75005H8.75V5.45005C8.75 5.71783 8.75049 5.87734 8.75939 5.99593Z" fill="black"/>
</svg>
