<svg width="24" height="24" viewBox="0 0 24 24" fill="none" xmlns="http://www.w3.org/2000/svg">
<path fill-rule="evenodd" clip-rule="evenodd" d="M3 1.25C2.0335 1.25 1.25 2.0335 1.25 3V21C1.25 21.9665 2.0335 22.75 3 22.75H21C21.9665 22.75 22.75 21.9665 22.75 21V7.82843C22.75 7.09908 22.4603 6.39961 21.9445 5.88388L18.1161 2.05546C17.6004 1.53973 16.9009 1.25 16.1716 1.25H3ZM6 21.25H18V13C18 12.4477 17.5523 12 17 12H7C6.44772 12 6 12.4477 6 13V21.25ZM16.75 2.89188C16.573 2.79952 16.3749 2.75 16.1716 2.75H15.25V6C15.25 6.13807 15.1381 6.25 15 6.25H9C8.86193 6.25 8.75 6.13807 8.75 6V2.75H7.25V6C7.25 6.9665 8.0335 7.75 9 7.75H15C15.9665 7.75 16.75 6.9665 16.75 6V2.89188Z" fill="black"/>
</svg>
