<svg width="24" height="24" viewBox="0 0 24 24" fill="none" xmlns="http://www.w3.org/2000/svg">
<path fill-rule="evenodd" clip-rule="evenodd" d="M16.6968 1.81217C16.4376 1.74994 16.1653 1.74996 15.7089 1.75L3.5893 1.75C3.31835 1.75 3.09981 1.75 2.92284 1.76446C2.74063 1.77935 2.58058 1.8108 2.43251 1.88625C2.19731 2.00609 2.00608 2.19731 1.88624 2.43252C1.8108 2.58059 1.77934 2.74064 1.76445 2.92285C1.75 3.09982 1.75 3.31836 1.75 3.5893V20.4107C1.75 20.6817 1.75 20.9002 1.76445 21.0772C1.77934 21.2594 1.8108 21.4194 1.88624 21.5675C2.00608 21.8027 2.19731 21.9939 2.43251 22.1138C2.58058 22.1892 2.74063 22.2207 2.92284 22.2355C3.09981 22.25 3.31834 22.25 3.58927 22.25H20.4107C20.6816 22.25 20.9002 22.25 21.0772 22.2355C21.2594 22.2207 21.4194 22.1892 21.5675 22.1138C21.8027 21.9939 21.9939 21.8027 22.1138 21.5675C22.1892 21.4194 22.2207 21.2594 22.2355 21.0772C22.25 20.9002 22.25 20.6817 22.25 20.4107V8.29116C22.25 7.83468 22.2501 7.56239 22.1878 7.30318C22.1327 7.0736 22.0418 6.85412 21.9184 6.65281C21.7792 6.42552 21.5866 6.233 21.2638 5.91026L18.0898 2.7362C17.767 2.4134 17.5745 2.22085 17.3472 2.08156C17.1459 1.9582 16.9264 1.86729 16.6968 1.81217ZM16.25 2.25701C16.1237 2.25109 15.9659 2.25015 15.75 2.25002V6C15.75 6.41422 15.4142 6.75 15 6.75H9C8.58579 6.75 8.25 6.41422 8.25 6V2.25H7.75V6C7.75 6.69036 8.30964 7.25 9 7.25H15C15.6904 7.25 16.25 6.69036 16.25 6V2.25701ZM6 21.75H18V13C18 12.4477 17.5523 12 17 12H7C6.44772 12 6 12.4477 6 13V21.75Z" fill="black"/>
</svg>
