<svg width="24" height="24" viewBox="0 0 24 24" fill="none" xmlns="http://www.w3.org/2000/svg">
<path fill-rule="evenodd" clip-rule="evenodd" d="M11.7824 1.59711C11.9121 1.50279 12.0878 1.50279 12.2175 1.59711L13.6136 2.61245C14.8636 3.52154 15.8585 4.73714 16.5025 6.1422L16.5156 6.17067L16.8115 5.91506C17.9254 4.95312 19.412 4.5187 20.8687 4.71734C21.0017 4.73549 21.104 4.84913 21.104 4.98684V7.38239C21.104 12.3267 17.1625 16.3505 12.2502 16.483V21.8185L13.4626 21.2123C16.1013 19.8929 19.0109 19.206 21.9611 19.206C22.0991 19.206 22.2111 19.318 22.2111 19.456C22.2111 19.5941 22.0991 19.706 21.9611 19.706C19.0885 19.706 16.2555 20.3748 13.6862 21.6595L12.1156 22.4448C12.0811 22.4628 12.0419 22.4729 12.0002 22.4729C11.9574 22.4729 11.9171 22.4622 11.8819 22.4432L10.408 21.7018C7.8017 20.3907 4.91986 19.7214 2.00255 19.7497C1.86448 19.751 1.75147 19.6402 1.75013 19.5021C1.7488 19.364 1.85963 19.251 1.9977 19.2497C4.99469 19.2206 7.95522 19.9082 10.6327 21.2551L11.7502 21.8173V16.483C6.83769 16.3507 2.89598 12.3269 2.89598 7.38239V4.98684C2.89598 4.84914 2.99825 4.73549 3.13132 4.71734C4.58802 4.5187 6.07463 4.95312 7.18845 5.91506L7.48443 6.17067L7.49748 6.1422C8.14147 4.73714 9.13636 3.52154 10.3864 2.61245L11.7824 1.59711ZM12 2.05714L10.6804 3.01682C9.49987 3.87541 8.56023 5.0235 7.95201 6.35053L7.90313 6.45718C7.78227 6.72087 7.44223 6.79489 7.22271 6.6053L6.86164 6.29347C5.90764 5.46956 4.64804 5.07368 3.39598 5.19016V7.38239C3.39598 12.1343 7.24813 15.9864 12 15.9864C16.7519 15.9864 20.604 12.1343 20.604 7.38239V5.19016C19.3519 5.07368 18.0923 5.46956 17.1383 6.29347L16.7773 6.6053C16.5578 6.79489 16.2177 6.72086 16.0969 6.45718L16.048 6.35053C15.4398 5.0235 14.5001 3.87541 13.3195 3.01682L12 2.05714Z" fill="black"/>
</svg>
