<svg width="24" height="24" viewBox="0 0 24 24" fill="none" xmlns="http://www.w3.org/2000/svg">
<path fill-rule="evenodd" clip-rule="evenodd" d="M11.4884 1.19274C11.7934 0.970908 12.2066 0.970909 12.5116 1.19274L13.9077 2.20808C15.0588 3.04526 16.005 4.1287 16.6791 5.37636C17.878 4.43228 19.422 4.01545 20.9362 4.22193C21.3136 4.27339 21.604 4.59568 21.604 4.98684V7.38239C21.604 12.4341 17.7037 16.5748 12.7502 16.9575V21.0094L13.239 20.765C15.9471 19.411 18.9333 18.706 21.9611 18.706C22.3753 18.706 22.7111 19.0418 22.7111 19.456C22.7111 19.8703 22.3753 20.206 21.9611 20.206C19.1662 20.206 16.4097 20.8568 13.9098 22.1067L12.3484 22.8874C12.2443 22.942 12.1259 22.9729 12.0002 22.9729C11.873 22.9729 11.7531 22.9412 11.6481 22.8853L10.1833 22.1484C7.64818 20.8731 4.84504 20.2221 2.00739 20.2496C1.5932 20.2537 1.25417 19.9211 1.25016 19.5069C1.24614 19.0928 1.57866 18.7537 1.99285 18.7497C5.06951 18.7199 8.10875 19.4257 10.8574 20.8084L11.2502 21.0061V16.9576C6.29649 16.5751 2.39598 12.4342 2.39598 7.38239V4.98684C2.39598 4.59571 2.68633 4.2734 3.06377 4.22193C4.57795 4.01545 6.12203 4.43228 7.32094 5.37636C7.99499 4.1287 8.94115 3.04526 10.0923 2.20808L11.4884 1.19274ZM12 2.67539L10.9745 3.42118C9.86338 4.22929 8.979 5.30986 8.40655 6.55886L8.35766 6.66551C8.09803 7.23199 7.36751 7.39101 6.8959 6.98371L6.53483 6.67188C5.80006 6.0373 4.85991 5.68675 3.89598 5.67075V7.38239C3.89598 11.8581 7.52427 15.4864 12 15.4864C16.4757 15.4864 20.104 11.8581 20.104 7.38239V5.67075C19.1401 5.68675 18.1999 6.0373 17.4652 6.67188L17.1041 6.98371C16.6325 7.39101 15.902 7.23199 15.6423 6.66551L15.5934 6.55886C15.021 5.30986 14.1366 4.22929 13.0255 3.42119L12 2.67539Z" fill="black"/>
</svg>
