<svg width="24" height="24" viewBox="0 0 24 24" fill="none" xmlns="http://www.w3.org/2000/svg">
<path d="M12.3645 1.39529C12.1471 1.23721 11.8526 1.23721 11.6353 1.39529L10.2392 2.41063C9.0355 3.28604 8.06198 4.43799 7.39959 5.76755L7.35174 5.72622C6.18305 4.7169 4.62444 4.26177 3.09742 4.47C2.84217 4.50481 2.64585 4.72279 2.64585 4.9872V7.38276C2.64585 12.2965 6.43459 16.3252 11.2501 16.7072V21.0064L10.8572 20.8088C8.10863 19.4261 5.06939 18.7202 1.99273 18.7501C1.57854 18.7541 1.24602 19.0931 1.25004 19.5073C1.25405 19.9215 1.59308 20.254 2.00727 20.25C4.84492 20.2225 7.64806 20.8735 10.1831 22.1488L11.648 22.8857C11.753 22.9416 11.8728 22.9733 12.0001 22.9733C12.1258 22.9733 12.2442 22.9424 12.3482 22.8878L13.9097 22.1071C16.4095 20.8571 19.166 20.2064 21.9609 20.2064C22.3752 20.2064 22.7109 19.8706 22.7109 19.4564C22.7109 19.0422 22.3752 18.7064 21.9609 18.7064C18.9332 18.7064 15.947 19.4114 13.2389 20.7654L12.7501 21.0098V16.7071C17.5654 16.325 21.3539 12.2963 21.3539 7.38276V4.9872C21.3539 4.72277 21.1576 4.50481 20.9023 4.47C19.3753 4.26177 17.8167 4.7169 16.648 5.72622L16.6002 5.76755C15.9378 4.43799 14.9642 3.28604 13.7606 2.41063L12.3645 1.39529Z" fill="black"/>
</svg>
