<svg width="24" height="24" viewBox="0 0 24 24" fill="none" xmlns="http://www.w3.org/2000/svg">
<path fill-rule="evenodd" clip-rule="evenodd" d="M11.3413 0.99056C11.734 0.704969 12.266 0.70497 12.6587 0.99056L14.0548 2.0059C15.1579 2.8082 16.0777 3.83087 16.7579 5.00536C17.9738 4.14289 19.4858 3.77182 20.97 3.97422C21.4696 4.04235 21.854 4.46896 21.854 4.98684V7.38239C21.854 12.487 17.9727 16.685 13.0002 17.1863V20.6049L13.1272 20.5414C15.87 19.17 18.8945 18.456 21.9611 18.456C22.5133 18.456 22.9611 18.9038 22.9611 19.456C22.9611 20.0083 22.5133 20.456 21.9611 20.456C19.205 20.456 16.4867 21.0977 14.0216 22.3303L12.4646 23.1088C12.3259 23.1817 12.1679 23.2229 12.0002 23.2229C11.8308 23.2229 11.6711 23.1808 11.5313 23.1064L10.0709 22.3718C7.57142 21.1144 4.80763 20.4725 2.00982 20.4996C1.45756 20.505 1.00552 20.0616 1.00017 19.5094C0.994816 18.9571 1.43817 18.5051 1.99043 18.4997C5.10692 18.4695 8.18551 19.1845 10.9697 20.5851L11.0002 20.6004V17.1863C6.02756 16.6853 2.14598 12.4871 2.14598 7.38239V4.98684C2.14598 4.46899 2.53037 4.04235 3.02999 3.97422C4.51423 3.77182 6.02616 4.14289 7.24208 5.00536C7.92231 3.83087 8.84206 2.8082 9.94522 2.0059L11.3413 0.99056ZM12 2.98451L11.1216 3.62337C10.0451 4.40623 9.18838 5.45305 8.63381 6.66302L8.58493 6.76967C8.2559 7.48755 7.33014 7.68907 6.73249 7.17291L6.37143 6.86108C5.74634 6.32123 4.96204 5.9999 4.14598 5.9332V7.38239C4.14598 11.72 7.66234 15.2364 12 15.2364C16.3376 15.2364 19.854 11.72 19.854 7.38239V5.9332C19.0379 5.9999 18.2536 6.32123 17.6286 6.86109L17.2675 7.17291C16.6698 7.68907 15.7441 7.48755 15.4151 6.76967L15.3662 6.66302C14.8116 5.45305 13.9549 4.40623 12.8784 3.62337L12 2.98451Z" fill="black"/>
</svg>
