<svg width="24" height="24" viewBox="0 0 24 24" fill="none" xmlns="http://www.w3.org/2000/svg">
<path d="M12.3645 1.39529C12.1471 1.23721 11.8526 1.23721 11.6353 1.39529L10.2392 2.41063C9.0355 3.28604 8.06197 4.43799 7.39959 5.76755L7.35174 5.72622C6.18305 4.7169 4.62444 4.26177 3.09742 4.47C2.84217 4.50481 2.64585 4.72279 2.64585 4.9872V7.38276C2.64585 12.1251 6.17491 16.0431 10.7501 16.654V20.1991C8.01847 18.8882 5.0209 18.2207 1.98788 18.2501C1.29756 18.2568 0.743367 18.8218 0.75006 19.5122C0.756751 20.2025 1.3218 20.7567 2.01212 20.75C4.7701 20.7232 7.49453 21.356 9.95844 22.5955L11.4143 23.3278C11.589 23.4207 11.7884 23.4733 12.0001 23.4733C12.2097 23.4733 12.4073 23.4217 12.5808 23.3305L14.1333 22.5543C16.5637 21.3391 19.2437 20.7064 21.9609 20.7064C22.6513 20.7064 23.2109 20.1468 23.2109 19.4564C23.2109 18.7661 22.6513 18.2064 21.9609 18.2064C18.9428 18.2064 15.965 18.8894 13.2501 20.2027V16.6539C17.8251 16.0429 21.3539 12.1249 21.3539 7.38276V4.9872C21.3539 4.72277 21.1576 4.50481 20.9023 4.47C19.3753 4.26177 17.8167 4.7169 16.648 5.72622L16.6002 5.76755C15.9378 4.43799 14.9642 3.28604 13.7606 2.41063L12.3645 1.39529Z" fill="black"/>
</svg>
