<svg width="24" height="24" viewBox="0 0 24 24" fill="none" xmlns="http://www.w3.org/2000/svg">
<path fill-rule="evenodd" clip-rule="evenodd" d="M11.3412 0.990926C11.7339 0.705335 12.2659 0.705337 12.6586 0.990926L14.0546 2.00626C15.1578 2.80856 16.0776 3.83124 16.7578 5.00572C17.9737 4.14325 19.4856 3.77219 20.9699 3.97459C21.4695 4.04271 21.8539 4.46932 21.8539 4.9872V7.38276C21.8539 12.4873 17.9725 16.6854 13.0001 17.1866V20.6053L13.1271 20.5418C15.8699 19.1704 18.8944 18.4564 21.9609 18.4564C22.5132 18.4564 22.9609 18.9041 22.9609 19.4564C22.9609 20.0087 22.5132 20.4564 21.9609 20.4564C19.2049 20.4564 16.4866 21.0981 14.0215 22.3307L12.4645 23.1092C12.3257 23.1821 12.1677 23.2233 12.0001 23.2233C11.8306 23.2233 11.671 23.1812 11.5311 23.1068L10.0708 22.3721C7.5713 21.1147 4.80751 20.4729 2.00969 20.5C1.45744 20.5053 1.0054 20.062 1.00005 19.5097C0.994694 18.9575 1.43805 18.5054 1.99031 18.5001C5.1068 18.4699 8.18539 19.1849 10.9696 20.5855L11.0001 20.6008V17.1867C6.02744 16.6856 2.14585 12.4875 2.14585 7.38276V4.9872C2.14585 4.46936 2.53025 4.04272 3.02986 3.97459C4.51411 3.77219 6.02604 4.14325 7.24196 5.00572C7.92219 3.83124 8.84194 2.80856 9.9451 2.00626L11.3412 0.990926ZM11.9999 2.98488L11.1214 3.62373C10.045 4.4066 9.18826 5.45341 8.63369 6.66339L8.58481 6.77004C8.25578 7.48792 7.33002 7.68943 6.73237 7.17328L6.37131 6.86145C5.74621 6.3216 4.96192 6.00027 4.14585 5.93356V7.38276C4.14585 11.7204 7.66222 15.2368 11.9999 15.2368C16.3375 15.2368 19.8539 11.7204 19.8539 7.38276V5.93356C19.0378 6.00027 18.2535 6.3216 17.6284 6.86145L17.2674 7.17328C16.6697 7.68943 15.744 7.48791 15.4149 6.77004L15.3661 6.66339C14.8115 5.45341 13.9547 4.4066 12.8783 3.62374L11.9999 2.98488Z" fill="black"/>
</svg>
