<svg width="24" height="24" viewBox="0 0 24 24" fill="none" xmlns="http://www.w3.org/2000/svg">
<path d="M21.66 5.81242C20.2715 4.42389 18.0202 4.42389 16.6317 5.81242L9.79612 12.648L12.1335 14.9854L18.9691 8.14985C19.0667 8.05222 19.225 8.05222 19.3226 8.14985C19.4203 8.24748 19.4203 8.40577 19.3226 8.5034L12.4871 15.339L14.8244 17.6763L21.66 10.8407C23.0485 9.4522 23.0485 7.20095 21.66 5.81242Z" fill="black"/>
<path d="M6.44418 9.29605L13.2796 2.46059C14.6682 1.07206 16.9194 1.07206 18.308 2.46059C18.823 2.97562 19.147 3.60934 19.2799 4.2737C18.1979 4.23818 17.1043 4.6334 16.2783 5.45935L9.44291 12.2948L6.44418 9.29605Z" fill="black"/>
<path fill-rule="evenodd" clip-rule="evenodd" d="M14.7132 19.8167C15.0423 19.4876 15.0423 18.9541 14.7132 18.6251L5.49462 9.40651C5.16557 9.07745 4.63207 9.07745 4.30301 9.40651L3.04594 10.6636C1.61914 12.0904 1.56214 14.3683 2.87496 15.8631L2.20792 16.5301C1.1846 17.5534 1.1846 19.2125 2.20792 20.2359L3.88402 21.912C4.90734 22.9353 6.56647 22.9353 7.58979 21.912L8.25683 21.2449C9.75163 22.5576 12.0294 22.5005 13.4561 21.0738L14.7132 19.8167ZM14.3596 18.9786C14.4934 19.1124 14.4934 19.3293 14.3596 19.4631L13.1026 20.7202C11.8117 22.0111 9.71879 22.0111 8.42789 20.7203L3.39958 15.692C2.10868 14.4011 2.10859 12.308 3.39949 11.0171L4.65657 9.76006C4.79036 9.62627 5.00728 9.62627 5.14107 9.76006L14.3596 18.9786ZM3.22272 16.2224L7.89748 20.8972L7.23623 21.5584C6.40818 22.3865 5.06563 22.3865 4.23758 21.5584L2.56147 19.8823C1.73342 19.0542 1.73342 17.7117 2.56147 16.8836L3.22272 16.2224Z" fill="black"/>
</svg>
