<svg width="24" height="24" viewBox="0 0 24 24" fill="none" xmlns="http://www.w3.org/2000/svg">
<path fill-rule="evenodd" clip-rule="evenodd" d="M12 1.25C7.99594 1.25 4.75 4.49594 4.75 8.5V8.86805C4.75 10.308 5.15813 11.7185 5.92707 12.936L7.21941 14.9822C7.56603 15.531 7.75 16.1669 7.75 16.816V18.7857C7.75 19.8706 8.62944 20.75 9.71429 20.75C9.73401 20.75 9.75 20.766 9.75 20.7857C9.75 21.8706 10.6294 22.75 11.7143 22.75H12.2857C13.3706 22.75 14.25 21.8706 14.25 20.7857C14.25 20.766 14.266 20.75 14.2857 20.75C15.3706 20.75 16.25 19.8706 16.25 18.7857V18.0008C16.25 18.0005 16.25 18.001 16.25 18.0008C16.25 18.0005 16.25 17.9995 16.25 17.9992V16.816C16.25 16.1669 16.434 15.531 16.7806 14.9822L18.0729 12.936C18.8419 11.7185 19.25 10.308 19.25 8.86805V8.5C19.25 4.49594 16.0041 1.25 12 1.25ZM15.75 18.25V18.7857C15.75 19.5944 15.0944 20.25 14.2857 20.25C14.2786 20.25 14.2715 20.2501 14.2645 20.2504C14.2597 20.2501 14.2549 20.25 14.25 20.25H9.75C9.74514 20.25 9.74031 20.2501 9.73551 20.2504C9.72847 20.2501 9.72139 20.25 9.71429 20.25C8.90558 20.25 8.25 19.5944 8.25 18.7857V18.25H15.75ZM8.25 17.75H15.75V16.816C15.75 16.3655 15.8274 15.9206 15.9766 15.5H8.02337C8.17265 15.9206 8.25 16.3655 8.25 16.816V17.75ZM10.2488 20.75H13.7512C13.7504 20.7618 13.75 20.7737 13.75 20.7857C13.75 21.5944 13.0944 22.25 12.2857 22.25H11.7143C10.9056 22.25 10.25 21.5944 10.25 20.7857C10.25 20.7737 10.2496 20.7618 10.2488 20.75ZM8.25 8.5C8.25 6.42893 9.92893 4.75 12 4.75C12.1381 4.75 12.25 4.63807 12.25 4.5C12.25 4.36193 12.1381 4.25 12 4.25C9.65279 4.25 7.75 6.15279 7.75 8.5C7.75 8.63807 7.86193 8.75 8 8.75C8.13807 8.75 8.25 8.63807 8.25 8.5Z" fill="black"/>
</svg>
