<svg width="24" height="24" viewBox="0 0 24 24" fill="none" xmlns="http://www.w3.org/2000/svg">
<path d="M21.66 5.81217C20.2715 4.42364 18.0202 4.42364 16.6317 5.81217L10.5032 11.9406L12.4871 13.9245L18.6155 7.79605C18.9084 7.50316 19.3833 7.50316 19.6762 7.79605C19.9691 8.08894 19.9691 8.56382 19.6762 8.85671L13.5477 14.9852L15.5315 16.969L21.66 10.8405C23.0485 9.45196 23.0485 7.2007 21.66 5.81217Z" fill="black"/>
<path d="M7.15129 8.5887L13.2796 2.46034C14.6682 1.07181 16.9194 1.07181 18.308 2.46034C18.5557 2.70814 18.7593 2.98341 18.9187 3.27635C17.7017 3.3308 16.5006 3.82269 15.5712 4.752L9.44291 10.8803L7.15129 8.5887Z" fill="black"/>
<path fill-rule="evenodd" clip-rule="evenodd" d="M15.0668 20.17C15.5911 19.6457 15.5911 18.7956 15.0668 18.2713L5.84817 9.05271C5.32386 8.52839 4.47377 8.52839 3.94946 9.05271L2.69238 10.3098C1.19182 11.8103 1.03041 14.1429 2.20815 15.8225L1.85437 16.1763C0.635785 17.3949 0.635784 19.3706 1.85436 20.5892L3.53047 22.2653C4.74905 23.4838 6.72476 23.4838 7.94334 22.2653L8.29716 21.9114C9.9767 23.089 12.3092 22.9276 13.8097 21.4271L15.0668 20.17ZM13.8948 19.2206L12.749 20.3664C11.6534 21.462 9.87707 21.4621 8.78143 20.3665L3.75313 15.3382C2.65749 14.2426 2.65741 12.4661 3.75304 11.3704L4.89882 10.2247L13.8948 19.2206ZM3.22272 16.9293L7.19037 20.8969L6.88268 21.2046C6.24989 21.8374 5.22392 21.8374 4.59113 21.2046L2.91502 19.5285C2.28223 18.8957 2.28223 17.8697 2.91503 17.237L3.22272 16.9293Z" fill="black"/>
</svg>
