<svg width="24" height="24" viewBox="0 0 24 24" fill="none" xmlns="http://www.w3.org/2000/svg">
<path fill-rule="evenodd" clip-rule="evenodd" d="M12 0.5C7.58172 0.5 4 4.08172 4 8.5V8.86805C4 10.4498 4.44831 11.9992 5.29296 13.3365L6.58529 15.3827C6.85621 15.8117 7 16.3086 7 16.816V18.7857C7 20.0648 7.88471 21.1372 9.07558 21.4244C9.3628 22.6153 10.4352 23.5 11.7143 23.5H12.2857C13.5648 23.5 14.6372 22.6153 14.9244 21.4244C16.1153 21.1372 17 20.0648 17 18.7857L17 17.5L17 16.816C17 16.3086 17.1438 15.8117 17.4147 15.3827L18.707 13.3365C19.5517 11.9992 20 10.4498 20 8.86805V8.5C20 4.08172 16.4183 0.5 12 0.5ZM15 18.5V18.7857C15 19.1802 14.6802 19.5 14.2857 19.5C14.2794 19.5 14.2731 19.5 14.2667 19.5001C14.2612 19.5 14.2556 19.5 14.25 19.5H9.75C9.74441 19.5 9.73883 19.5 9.73326 19.5001C9.72695 19.5 9.72062 19.5 9.71429 19.5C9.3198 19.5 9 19.1802 9 18.7857V18.5H15ZM8.98933 16.5H15.0107C15.0336 16.1602 15.0935 15.825 15.1887 15.5H8.81134C8.90647 15.825 8.96636 16.1602 8.98933 16.5ZM8.75 8.5C8.75 6.70507 10.2051 5.25 12 5.25C12.4142 5.25 12.75 4.91421 12.75 4.5C12.75 4.08579 12.4142 3.75 12 3.75C9.37665 3.75 7.25 5.87665 7.25 8.5C7.25 8.91421 7.58579 9.25 8 9.25C8.41421 9.25 8.75 8.91421 8.75 8.5Z" fill="black"/>
</svg>
