<svg width="24" height="24" viewBox="0 0 24 24" fill="none" xmlns="http://www.w3.org/2000/svg">
<path d="M21.6601 5.81217C20.2716 4.42364 18.0203 4.42364 16.6318 5.81217L9.79624 12.6477L12.1336 14.9852L18.9692 8.1496C19.0668 8.05197 19.2251 8.05197 19.3227 8.1496C19.4204 8.24723 19.4204 8.40552 19.3227 8.50316L12.4872 15.3387L14.8246 17.6761L21.6601 10.8405C23.0487 9.45196 23.0487 7.2007 21.6601 5.81217Z" fill="black"/>
<path d="M6.4443 9.29581L13.2798 2.46034C14.6683 1.07181 16.9195 1.07181 18.3081 2.46034C18.8231 2.97537 19.1471 3.60909 19.2801 4.27346C18.198 4.23794 17.1044 4.63315 16.2785 5.45911L9.44304 12.2945L6.4443 9.29581Z" fill="black"/>
<path fill-rule="evenodd" clip-rule="evenodd" d="M14.7133 19.8164C15.0424 19.4874 15.0424 18.9539 14.7133 18.6248L5.49474 9.40626C5.16569 9.07721 4.63219 9.07721 4.30314 9.40626L3.04606 10.6633C1.61926 12.0901 1.56227 14.368 2.87508 15.8628L2.20804 16.5298C1.18472 17.5532 1.18472 19.2123 2.20804 20.2356L3.88415 21.9117C4.90746 22.935 6.56659 22.935 7.58991 21.9117L8.25696 21.2447C9.75175 22.5573 12.0295 22.5003 13.4562 21.0735L14.7133 19.8164ZM14.3598 18.9784C14.4936 19.1122 14.4936 19.3291 14.3598 19.4629L13.1027 20.72C11.8118 22.0108 9.71891 22.0109 8.42801 20.72L3.3997 15.6917C2.1088 14.4008 2.10871 12.3078 3.39961 11.0169L4.65669 9.75982C4.79048 9.62602 5.0074 9.62602 5.14119 9.75981L14.3598 18.9784ZM3.22284 16.2222L7.8976 20.8969L7.23636 21.5582C6.4083 22.3862 5.06576 22.3862 4.2377 21.5582L2.56159 19.8821C1.73354 19.054 1.73354 17.7115 2.56159 16.8834L3.22284 16.2222Z" fill="black"/>
</svg>
