<svg width="24" height="24" viewBox="0 0 24 24" fill="none" xmlns="http://www.w3.org/2000/svg">
<path d="M21.6604 5.81217C20.2718 4.42364 18.0206 4.42364 16.6321 5.81217L10.5036 11.9406L12.4874 13.9245L18.6159 7.79605C18.9088 7.50316 19.3837 7.50316 19.6765 7.79605C19.9694 8.08894 19.9694 8.56382 19.6765 8.85671L13.5481 14.9852L15.5319 16.969L21.6604 10.8405C23.0489 9.45196 23.0489 7.2007 21.6604 5.81217Z" fill="black"/>
<path d="M7.15165 8.5887L13.28 2.46034C14.6685 1.07181 16.9198 1.07181 18.3083 2.46034C18.5561 2.70814 18.7597 2.98341 18.919 3.27635C17.702 3.3308 16.5009 3.82269 15.5716 4.752L9.44328 10.8803L7.15165 8.5887Z" fill="black"/>
<path fill-rule="evenodd" clip-rule="evenodd" d="M15.0671 20.17C15.5914 19.6457 15.5914 18.7956 15.0671 18.2713L5.84854 9.05271C5.32422 8.52839 4.47414 8.52839 3.94983 9.05271L2.69275 10.3098C1.19219 11.8103 1.03078 14.1429 2.20852 15.8225L1.85473 16.1763C0.636151 17.3949 0.63615 19.3706 1.85473 20.5892L3.53084 22.2653C4.74942 23.4838 6.72513 23.4838 7.94371 22.2653L8.29753 21.9114C9.97707 23.089 12.3095 22.9276 13.81 21.4271L15.0671 20.17ZM13.8952 19.2206L12.7494 20.3664C11.6538 21.462 9.87744 21.4621 8.78179 20.3665L3.7535 15.3382C2.65786 14.2426 2.65777 12.4661 3.75341 11.3704L4.89918 10.2247L13.8952 19.2206ZM3.22309 16.9293L7.19074 20.8969L6.88305 21.2046C6.25025 21.8374 5.22429 21.8374 4.5915 21.2046L2.91539 19.5285C2.2826 18.8957 2.2826 17.8697 2.91539 17.237L3.22309 16.9293Z" fill="black"/>
</svg>
