<svg width="24" height="24" viewBox="0 0 24 24" fill="none" xmlns="http://www.w3.org/2000/svg">
<path d="M13.4228 12.162L13.4228 4.38438C13.4228 3.97017 13.7586 3.63438 14.1728 3.63438C14.587 3.63438 14.9228 3.97017 14.9228 4.38438L14.9228 12.162H17.4321V4.38438C17.4321 2.58434 15.9728 1.12512 14.1728 1.12512C13.3381 1.12512 12.5766 1.43892 12 1.95497C11.3332 2.55177 10.9135 3.41897 10.9135 4.38426V12.162H13.4228Z" fill="black"/>
<path d="M9.41351 12.162V4.38426C9.41351 3.17007 9.86819 2.06208 10.6166 1.22126C10.3638 1.15838 10.0994 1.125 9.82712 1.125C8.02708 1.125 6.56786 2.58422 6.56786 4.38426V12.162H9.41351Z" fill="black"/>
<path fill-rule="evenodd" clip-rule="evenodd" d="M19.2685 14.7052C19.2685 13.991 18.6895 13.412 17.9753 13.412H6.02466C5.31043 13.412 4.73145 13.991 4.73145 14.7052V16.3349C4.73145 18.2928 6.13491 19.9229 7.9907 20.2741L7.9907 20.6806C7.9907 22.2948 9.2993 23.6034 10.9135 23.6034H13.0864C14.7006 23.6034 16.0092 22.2948 16.0092 20.6806V20.2741C17.865 19.9229 19.2685 18.2928 19.2685 16.3349V14.7052ZM17.7685 14.912V16.3349C17.7685 17.7207 16.645 18.8441 15.2592 18.8441H8.7407C7.35488 18.8441 6.23145 17.7207 6.23145 16.3349V14.912H17.7685ZM9.4907 20.3441H14.5092V20.6806C14.5092 21.4664 13.8722 22.1034 13.0864 22.1034H10.9135C10.1277 22.1034 9.4907 21.4664 9.4907 20.6806L9.4907 20.3441Z" fill="black"/>
</svg>
