<svg width="24" height="24" viewBox="0 0 24 24" fill="none" xmlns="http://www.w3.org/2000/svg">
<path d="M21.6603 5.81217C20.2717 4.42364 18.0205 4.42364 16.6319 5.81217L10.857 11.5871L12.8409 13.5709L18.6158 7.79605C18.9087 7.50316 19.3835 7.50316 19.6764 7.79605C19.9693 8.08894 19.9693 8.56382 19.6764 8.85671L13.9015 14.6316L15.8853 16.6154L21.6603 10.8405C23.0488 9.45196 23.0488 7.2007 21.6603 5.81217Z" fill="black"/>
<path d="M7.50508 8.23515L13.2799 2.46034C14.6684 1.07181 16.9197 1.07181 18.3082 2.46034C18.556 2.70814 18.7596 2.98341 18.9189 3.27635C17.7019 3.3308 16.5008 3.82269 15.5715 4.752L9.79671 10.5268L7.50508 8.23515Z" fill="black"/>
<path fill-rule="evenodd" clip-rule="evenodd" d="M15.4205 20.5236C16.1401 19.804 16.1401 18.6373 15.4205 17.9177L6.20197 8.69915C5.48239 7.97958 4.31573 7.97958 3.59615 8.69915L2.33907 9.95623C0.768095 11.5272 0.512185 13.9153 1.57135 15.7524L1.50106 15.8227C0.087214 17.2366 0.0872122 19.5289 1.50106 20.9427L3.17716 22.6188C4.591 24.0327 6.8833 24.0327 8.29714 22.6188L8.36748 22.5485C10.2046 23.6075 12.5926 23.3515 14.1635 21.7806L15.4205 20.5236ZM13.1879 19.2206L12.3957 20.0129C11.4953 20.9132 10.0356 20.9132 9.13521 20.0129L4.10693 14.9846C3.20655 14.0843 3.20646 12.6244 4.10684 11.724L4.89906 10.9318L13.1879 19.2206ZM3.22427 17.6377L6.48221 20.8956C6.04226 21.288 5.36707 21.2732 4.94493 20.8511L3.26882 19.1749C2.84668 18.7528 2.83183 18.0776 3.22427 17.6377Z" fill="black"/>
</svg>
