<svg width="24" height="24" viewBox="0 0 24 24" fill="none" xmlns="http://www.w3.org/2000/svg">
<path d="M19.1597 8.55165C19.2693 8.4421 19.2693 8.26448 19.1597 8.15493C19.0502 8.04538 18.8726 8.04538 18.763 8.15493L12.9269 13.991C12.8174 14.1006 12.8174 14.2782 12.9269 14.3878C13.0365 14.4973 13.2141 14.4973 13.3236 14.3878L19.1597 8.55165Z" fill="black"/>
<path fill-rule="evenodd" clip-rule="evenodd" d="M21.6458 5.66869C21.0203 5.04321 20.2309 4.68162 19.4158 4.5839C19.3181 3.76892 18.9565 2.97955 18.3311 2.35412C16.8485 0.871544 14.4448 0.871546 12.9622 2.35412L5.70203 9.61431L5.4863 9.39859C5.14792 9.0602 4.59929 9.0602 4.2609 9.39859L3.01786 10.6416C1.60218 12.0573 1.53831 14.3129 2.82624 15.8044L2.1892 16.4414C1.16431 17.4663 1.16431 19.128 2.18921 20.1529L3.84659 21.8102C4.87149 22.8351 6.53317 22.8351 7.55807 21.8102L8.19503 21.1733C9.68649 22.4622 11.9428 22.3987 13.3589 20.9826L14.6019 19.7396C14.9403 19.4012 14.9403 18.8526 14.6019 18.5142L14.3855 18.2978L21.6458 11.0376C23.1284 9.55498 23.1284 7.15126 21.6458 5.66869ZM16.2769 5.66869C16.989 4.95666 17.9135 4.58659 18.8464 4.55849C18.7476 3.89694 18.4437 3.26011 17.9344 2.75083C16.6709 1.48736 14.6224 1.48736 13.3589 2.75083L6.09907 10.0107L9.017 12.9286L16.2769 5.66869ZM21.2491 6.0654C19.9856 4.80193 17.9371 4.80193 16.6737 6.06541L9.41379 13.3253L13.9892 17.9007L21.2491 10.6408C22.5126 9.37737 22.5126 7.32888 21.2491 6.0654ZM14.2052 19.3429C14.3245 19.2236 14.3245 19.0302 14.2052 18.9109L5.08959 9.7953C4.9703 9.67601 4.7769 9.67601 4.65761 9.7953L3.41458 11.0383C2.16157 12.2913 2.15119 14.3164 3.38343 15.5822L8.41828 20.6171C9.68408 21.8493 11.7092 21.8389 12.9622 20.5859L14.2052 19.3429ZM7.79134 20.7835L3.21591 16.2081L2.58592 16.8381C1.78012 17.6439 1.78012 18.9504 2.58592 19.7562L4.2433 21.4135C5.0491 22.2193 6.35556 22.2193 7.16135 21.4135L7.79134 20.7835Z" fill="black"/>
</svg>
