<svg width="24" height="25" viewBox="0 0 24 25" fill="none" xmlns="http://www.w3.org/2000/svg">
<path d="M13.4228 12.162L13.4228 4.38438C13.4228 3.97017 13.7586 3.63438 14.1728 3.63438C14.587 3.63438 14.9228 3.97017 14.9228 4.38438L14.9228 12.162H17.4321V4.38438C17.4321 2.58434 15.9728 1.12512 14.1728 1.12512C13.3381 1.12512 12.5766 1.43892 12 1.95497C11.3332 2.55177 10.9135 3.41897 10.9135 4.38426V12.162H13.4228Z" fill="black"/>
<path d="M9.41351 12.162V4.38426C9.41351 3.17007 9.86819 2.06208 10.6166 1.22126C10.3638 1.15838 10.0994 1.125 9.82712 1.125C8.02708 1.125 6.56786 2.58422 6.56786 4.38426V12.162H9.41351Z" fill="black"/>
<path fill-rule="evenodd" clip-rule="evenodd" d="M19.7685 14.7052C19.7685 13.7149 18.9656 12.912 17.9753 12.912H6.02466C5.03429 12.912 4.23145 13.7149 4.23145 14.7052V16.3349C4.23145 18.3916 5.60838 20.1267 7.4907 20.6686V20.6806C7.4907 22.5709 9.02316 24.1034 10.9135 24.1034H13.0864C14.9768 24.1034 16.5092 22.5709 16.5092 20.6806V20.6686C18.3915 20.1267 19.7685 18.3916 19.7685 16.3349V14.7052ZM17.2685 15.412V16.3349C17.2685 17.4446 16.3689 18.3441 15.2592 18.3441H8.7407C7.63102 18.3441 6.73145 17.4446 6.73145 16.3349V15.412H17.2685ZM10.0052 20.8441H13.9948C13.9176 21.2758 13.5402 21.6034 13.0864 21.6034H10.9135C10.4597 21.6034 10.0824 21.2758 10.0052 20.8441Z" fill="black"/>
</svg>
