<svg width="24" height="24" viewBox="0 0 24 24" fill="none" xmlns="http://www.w3.org/2000/svg">
<path d="M13.4229 12.162L13.4229 4.38438C13.4229 3.97017 13.7587 3.63438 14.1729 3.63438C14.5871 3.63438 14.9229 3.97017 14.9229 4.38438L14.9229 12.162H17.4322V4.38438C17.4322 2.58434 15.973 1.12512 14.1729 1.12512C13.3382 1.12512 12.5768 1.43892 12.0002 1.95497C11.3334 2.55177 10.9136 3.41897 10.9136 4.38426V12.162H13.4229Z" fill="black"/>
<path d="M9.41363 12.162V4.38426C9.41363 3.17007 9.86831 2.06208 10.6167 1.22126C10.3639 1.15838 10.0995 1.125 9.82724 1.125C8.0272 1.125 6.56798 2.58422 6.56798 4.38426V12.162H9.41363Z" fill="black"/>
<path fill-rule="evenodd" clip-rule="evenodd" d="M19.5186 14.7052C19.5186 13.853 18.8277 13.162 17.9754 13.162H6.02478C5.17249 13.162 4.48157 13.853 4.48157 14.7052V16.3349C4.48157 18.3428 5.87098 20.0262 7.74083 20.4761L7.74083 20.6806C7.74083 22.4329 9.16135 23.8534 10.9137 23.8534H13.0865C14.8388 23.8534 16.2593 22.4329 16.2593 20.6806V20.4761C18.1292 20.0262 19.5186 18.3428 19.5186 16.3349V14.7052ZM17.5186 15.162V16.3349C17.5186 17.5826 16.5071 18.5941 15.2593 18.5941H8.74082C7.49307 18.5941 6.48157 17.5826 6.48157 16.3349V15.162H17.5186ZM9.74083 20.5941H14.2593V20.6806C14.2593 21.3283 13.7342 21.8534 13.0865 21.8534H10.9137C10.2659 21.8534 9.74083 21.3283 9.74083 20.6806V20.5941Z" fill="black"/>
</svg>
