<svg width="24" height="24" viewBox="0 0 24 24" fill="none" xmlns="http://www.w3.org/2000/svg">
<path d="M21.6604 5.81217C20.2718 4.42364 18.0206 4.42364 16.6321 5.81217L10.15 12.2942L12.3107 14.4548L18.7927 7.97283C18.9879 7.77756 19.3045 7.77756 19.4998 7.97283C19.695 8.16809 19.695 8.48467 19.4998 8.67993L13.0178 15.1619L15.1784 17.3225L21.6604 10.8405C23.0489 9.45196 23.0489 7.2007 21.6604 5.81217Z" fill="black"/>
<path d="M6.7981 8.94225L13.28 2.46034C14.6685 1.07181 16.9198 1.07181 18.3083 2.46034C18.6916 2.84367 18.9691 3.29274 19.1408 3.77126C17.9768 3.77269 16.8133 4.21745 15.9252 5.10555L9.44328 11.5874L6.7981 8.94225Z" fill="black"/>
<path fill-rule="evenodd" clip-rule="evenodd" d="M14.8903 19.9932C15.317 19.5665 15.317 18.8747 14.8903 18.4481L5.67176 9.22948C5.24508 8.8028 4.55329 8.8028 4.1266 9.22949L2.86953 10.4866C1.40541 11.9507 1.29477 14.2557 2.53763 15.847L2.03151 16.3531C0.910559 17.474 0.910558 19.2914 2.03151 20.4124L3.70761 22.0885C4.82856 23.2094 6.64598 23.2094 7.76693 22.0885L8.27307 21.5823C9.86427 22.825 12.1692 22.7144 13.6333 21.2503L14.8903 19.9932ZM14.1832 19.1552C14.2194 19.1913 14.2194 19.25 14.1832 19.2861L12.9262 20.5432C11.7329 21.7364 9.7983 21.7365 8.60502 20.5433L3.57672 15.515C2.38345 14.3217 2.38336 12.3869 3.57663 11.1937L4.83371 9.93659C4.86987 9.90043 4.9285 9.90043 4.96466 9.93659L14.1832 19.1552ZM3.22309 16.5757L7.54429 20.8969L7.05982 21.3814C6.3294 22.1118 5.14514 22.1118 4.41472 21.3814L2.73861 19.7053C2.00819 18.9749 2.00819 17.7906 2.73862 17.0602L3.22309 16.5757Z" fill="black"/>
</svg>
