<svg width="24" height="24" viewBox="0 0 24 24" fill="none" xmlns="http://www.w3.org/2000/svg">
<path d="M19.1601 8.55165C19.2696 8.4421 19.2696 8.26448 19.1601 8.15493C19.0505 8.04538 18.8729 8.04538 18.7634 8.15493L12.9273 13.991C12.8177 14.1006 12.8177 14.2782 12.9273 14.3878C13.0368 14.4973 13.2144 14.4973 13.324 14.3878L19.1601 8.55165Z" fill="black"/>
<path fill-rule="evenodd" clip-rule="evenodd" d="M21.6462 5.66869C21.0207 5.04321 20.2313 4.68162 19.4162 4.5839C19.3185 3.76892 18.9569 2.97955 18.3314 2.35412C16.8489 0.871544 14.4452 0.871546 12.9626 2.35412L5.70239 9.61431L5.48667 9.39859C5.14828 9.0602 4.59965 9.0602 4.26126 9.39859L3.01823 10.6416C1.60255 12.0573 1.53868 14.3129 2.8266 15.8044L2.18957 16.4414C1.16467 17.4663 1.16468 19.128 2.18957 20.1529L3.84695 21.8102C4.87185 22.8351 6.53354 22.8351 7.55843 21.8102L8.19539 21.1733C9.68685 22.4622 11.9432 22.3987 13.3592 20.9826L14.6023 19.7396C14.9407 19.4012 14.9407 18.8526 14.6023 18.5142L14.3859 18.2978L21.6462 11.0376C23.1287 9.55498 23.1287 7.15126 21.6462 5.66869ZM16.2773 5.66869C16.9893 4.95666 17.9138 4.58659 18.8467 4.55849C18.748 3.89694 18.444 3.26011 17.9347 2.75083C16.6713 1.48736 14.6228 1.48736 13.3593 2.75083L6.09943 10.0107L9.01737 12.9286L16.2773 5.66869ZM21.2495 6.0654C19.986 4.80193 17.9375 4.80193 16.674 6.06541L9.41415 13.3253L13.9896 17.9007L21.2495 10.6408C22.5129 9.37737 22.5129 7.32888 21.2495 6.0654ZM14.2056 19.3429C14.3249 19.2236 14.3249 19.0302 14.2056 18.9109L5.08996 9.7953C4.97067 9.67601 4.77727 9.67601 4.65798 9.7953L3.41494 11.0383C2.16194 12.2913 2.15156 14.3164 3.3838 15.5822L8.41865 20.6171C9.68445 21.8493 11.7095 21.8389 12.9625 20.5859L14.2056 19.3429ZM7.79171 20.7835L3.21627 16.2081L2.58629 16.8381C1.78049 17.6439 1.78049 18.9504 2.58629 19.7562L4.24367 21.4135C5.04947 22.2193 6.35592 22.2193 7.16172 21.4135L7.79171 20.7835Z" fill="black"/>
</svg>
