<svg width="24" height="24" viewBox="0 0 24 24" fill="none" xmlns="http://www.w3.org/2000/svg">
<path fill-rule="evenodd" clip-rule="evenodd" d="M12 0.75C7.71979 0.75 4.25 4.21979 4.25 8.5V8.86805C4.25 10.4026 4.68492 11.9056 5.50433 13.203L6.79666 15.2492C7.09281 15.7181 7.25 16.2614 7.25 16.816V18.7857C7.25 20.0009 8.12964 21.0107 9.28693 21.2131C9.48927 22.3704 10.4991 23.25 11.7143 23.25H12.2857C13.5009 23.25 14.5107 22.3704 14.7131 21.2131C15.8704 21.0107 16.75 20.0009 16.75 18.7857L16.75 18L16.75 16.816C16.75 16.2614 16.9072 15.7181 17.2033 15.2492L18.4957 13.203C19.3151 11.9056 19.75 10.4026 19.75 8.86805V8.5C19.75 4.21979 16.2802 0.75 12 0.75ZM15.25 18.75V18.7857C15.25 19.3183 14.8183 19.75 14.2857 19.75C14.2793 19.75 14.2728 19.7501 14.2664 19.7502C14.261 19.7501 14.2555 19.75 14.25 19.75H9.75C9.74451 19.75 9.73904 19.7501 9.73358 19.7502C9.72716 19.7501 9.72073 19.75 9.71429 19.75C9.18173 19.75 8.75 19.3183 8.75 18.7857V18.75H15.25ZM8.75 17.25H15.25V16.816C15.25 16.3675 15.318 15.924 15.4498 15.5H8.55021C8.682 15.924 8.75 16.3675 8.75 16.816V17.25ZM10.8689 21.25H13.1311C12.967 21.548 12.65 21.75 12.2857 21.75H11.7143C11.35 21.75 11.033 21.548 10.8689 21.25ZM8.75 8.5C8.75 6.70507 10.2051 5.25 12 5.25C12.4142 5.25 12.75 4.91421 12.75 4.5C12.75 4.08579 12.4142 3.75 12 3.75C9.37665 3.75 7.25 5.87665 7.25 8.5C7.25 8.91421 7.58579 9.25 8 9.25C8.41421 9.25 8.75 8.91421 8.75 8.5Z" fill="black"/>
</svg>
