<svg width="24" height="24" viewBox="0 0 24 24" fill="none" xmlns="http://www.w3.org/2000/svg">
<path d="M14.5888 4.689C14.5888 4.41285 14.365 4.189 14.0888 4.189C13.8127 4.189 13.5888 4.41285 13.5888 4.689L13.5888 12.0446C13.5888 12.3207 13.8127 12.5446 14.0888 12.5446C14.365 12.5446 14.5888 12.3207 14.5888 12.0446L14.5888 4.689Z" fill="black"/>
<path fill-rule="evenodd" clip-rule="evenodd" d="M14.0888 1.05566C13.3113 1.05566 12.5908 1.29989 11.9999 1.71581C11.409 1.29989 10.6886 1.05567 9.91104 1.05567C7.90441 1.05567 6.27771 2.68237 6.27771 4.689V13.589H6.2555C5.69094 13.589 5.23328 14.0467 5.23328 14.6112V16.1779C5.23328 18.0149 6.59657 19.5335 8.36661 19.7771L8.36661 20.3557C8.36661 21.7855 9.5257 22.9446 10.9555 22.9446H13.0444C14.4742 22.9446 15.6333 21.7855 15.6333 20.3557L15.6333 19.7771C17.4033 19.5335 18.7666 18.0149 18.7666 16.1779V14.6112C18.7666 14.0467 18.3089 13.589 17.7444 13.589H17.7222V4.689C17.7222 2.68236 16.0955 1.05566 14.0888 1.05566ZM10.4555 4.689C10.4555 3.83109 10.7528 3.04263 11.2501 2.42105C10.8577 2.1889 10.4 2.05567 9.91104 2.05567C8.45669 2.05567 7.27771 3.23465 7.27771 4.689V13.589H10.4555V4.689ZM14.0888 2.05566C12.6345 2.05566 11.4555 3.23465 11.4555 4.689V13.589H16.7222V4.689C16.7222 3.23465 15.5432 2.05566 14.0888 2.05566ZM17.7666 14.6112C17.7666 14.599 17.7567 14.589 17.7444 14.589H6.2555C6.24322 14.589 6.23328 14.599 6.23328 14.6112V16.1779C6.23328 17.6287 7.40652 18.8055 8.85599 18.8112H15.1439C16.5934 18.8055 17.7666 17.6287 17.7666 16.1779V14.6112ZM14.6333 19.8112H9.36661L9.36661 20.3557C9.36661 21.2332 10.078 21.9446 10.9555 21.9446H13.0444C13.9219 21.9446 14.6333 21.2332 14.6333 20.3557L14.6333 19.8112Z" fill="black"/>
</svg>
