<svg width="24" height="24" viewBox="0 0 24 24" fill="none" xmlns="http://www.w3.org/2000/svg">
<path d="M14.8388 4.689C14.8388 4.27478 14.503 3.939 14.0888 3.939C13.6746 3.939 13.3388 4.27478 13.3388 4.689L13.3388 12.04C13.3388 12.4542 13.6746 12.79 14.0888 12.79C14.503 12.79 14.8388 12.4542 14.8388 12.04L14.8388 4.689Z" fill="black"/>
<path fill-rule="evenodd" clip-rule="evenodd" d="M18.2222 13.1655V4.689C18.2222 2.40622 16.3716 0.555664 14.0888 0.555664C13.3268 0.555664 12.6129 0.761891 11.9999 1.12158C11.387 0.761892 10.6731 0.555666 9.91105 0.555666C7.62827 0.555666 5.77771 2.40622 5.77771 4.689V13.1655C5.17106 13.3659 4.73328 13.9374 4.73328 14.6112V16.1779C4.73328 18.1158 6.06699 19.7423 7.86661 20.1894V20.3557C7.86661 22.0616 9.24955 23.4445 10.9555 23.4445H13.0444C14.7503 23.4445 16.1333 22.0616 16.1333 20.3557V20.1894C17.9329 19.7423 19.2666 18.1158 19.2666 16.1779V14.6112C19.2666 13.9374 18.8288 13.3659 18.2222 13.1655ZM9.9555 4.689C9.9555 3.94254 10.1534 3.2423 10.4995 2.63787C10.3126 2.58434 10.1152 2.55567 9.91105 2.55567C8.73284 2.55567 7.77771 3.51079 7.77771 4.689V13.089H9.9555V4.689ZM11.9555 13.089H16.2222V4.689C16.2222 3.51079 15.267 2.55566 14.0888 2.55566C12.9106 2.55566 11.9555 3.51079 11.9555 4.689V13.089ZM17.2666 15.089V16.1779C17.2666 17.3561 16.3115 18.3112 15.1333 18.3112H8.86661C7.6884 18.3112 6.73328 17.3561 6.73328 16.1779V15.089H17.2666ZM14.1333 20.3557V20.3112H9.86661V20.3557C9.86661 20.957 10.3541 21.4445 10.9555 21.4445H13.0444C13.6458 21.4445 14.1333 20.957 14.1333 20.3557Z" fill="black"/>
</svg>
