<svg width="24" height="24" viewBox="0 0 24 24" fill="none" xmlns="http://www.w3.org/2000/svg">
<path d="M13.9013 13.162L13.9013 4.38438C13.9013 4.23438 14.0229 4.11277 14.1729 4.11277C14.3229 4.11277 14.4445 4.23438 14.4445 4.38438V13.162H17.4322V4.38438C17.4322 2.58434 15.973 1.12512 14.1729 1.12512C13.3382 1.12512 12.5768 1.43892 12.0001 1.95497C11.3334 2.55177 10.9136 3.41897 10.9136 4.38426V13.162H13.9013Z" fill="black"/>
<path d="M10.4136 13.162V4.38426C10.4136 3.30513 10.8683 2.3322 11.5966 1.64661C11.087 1.31661 10.4795 1.125 9.82724 1.125C8.0272 1.125 6.56798 2.58422 6.56798 4.38426V13.162H10.4136Z" fill="black"/>
<path fill-rule="evenodd" clip-rule="evenodd" d="M18.7902 14.7052C18.7902 14.2552 18.4254 13.8904 17.9754 13.8904H6.02478C5.57477 13.8904 5.20996 14.2552 5.20996 14.7052V16.3349C5.20996 18.1935 6.64608 19.7168 8.46922 19.8554L8.46922 20.6806C8.46922 22.0306 9.56363 23.125 10.9137 23.125H13.0865C14.4365 23.125 15.5309 22.0306 15.5309 20.6806V19.8554C17.3541 19.7168 18.7902 18.1935 18.7902 16.3349V14.7052ZM17.9754 14.4336C18.1254 14.4336 18.247 14.5552 18.247 14.7052V16.3349C18.247 17.9849 16.9094 19.3225 15.2593 19.3225H8.74082C7.09079 19.3225 5.75317 17.9849 5.75317 16.3349V14.7052C5.75317 14.5552 5.87477 14.4336 6.02478 14.4336H17.9754ZM9.01243 19.8657H14.9877L14.9877 20.6806C14.9877 21.7306 14.1365 22.5818 13.0865 22.5818H10.9137C9.86364 22.5818 9.01243 21.7306 9.01243 20.6806L9.01243 19.8657Z" fill="black"/>
</svg>
