<svg width="24" height="24" viewBox="0 0 24 24" fill="none" xmlns="http://www.w3.org/2000/svg">
<path d="M19.4917 8.88337C19.7846 8.59048 19.7846 8.11561 19.4917 7.82271C19.1988 7.52982 18.7239 7.52982 18.431 7.82271L12.5949 13.6588C12.302 13.9517 12.302 14.4266 12.5949 14.7195C12.8878 15.0124 13.3627 15.0124 13.6556 14.7195L19.4917 8.88337Z" fill="black"/>
<path fill-rule="evenodd" clip-rule="evenodd" d="M22.1546 5.1597C21.5477 4.55281 20.811 4.15477 20.0339 3.96557C19.8447 3.18854 19.4467 2.45196 18.8398 1.84512C17.0763 0.0815743 14.217 0.081575 12.4535 1.84512L5.66335 8.63523C5.05726 8.28683 4.27013 8.37161 3.75215 8.88959L2.50911 10.1326C0.988748 11.653 0.779099 13.9877 1.88016 15.7327L1.68045 15.9324C0.374581 17.2383 0.374583 19.3555 1.68045 20.6614L3.33784 22.3188C4.64371 23.6246 6.76094 23.6246 8.06682 22.3188L8.26629 22.1193C10.0114 23.2213 12.3469 23.0119 13.8676 21.4911L15.1107 20.2481C15.6289 19.7299 15.7135 18.9423 15.3645 18.3361L22.1546 11.5461C23.9181 9.78251 23.9181 6.92324 22.1546 5.1597ZM15.7682 5.1597C16.3831 4.54481 17.1312 4.14431 17.9196 3.9582C17.7995 3.70542 17.6348 3.46854 17.4256 3.25933C16.4431 2.27684 14.8502 2.27684 13.8677 3.25933L7.11656 10.0105L9.017 11.9109L15.7682 5.1597ZM20.7403 6.57391C19.7578 5.59141 18.1649 5.59141 17.1824 6.57391L10.4313 13.325L13.9892 16.883L20.7403 10.1318C21.7228 9.14935 21.7228 7.55641 20.7403 6.57391ZM12.4534 20.0769L13.4037 19.1267L4.8736 10.5966L3.92332 11.5468C2.95009 12.5201 2.94091 14.0923 3.8958 15.0768L8.92341 20.1044C9.90794 21.0593 11.4802 21.0502 12.4534 20.0769ZM6.77384 20.7833L3.21591 17.2254L3.09467 17.3466C2.56984 17.8714 2.56984 18.7223 3.09467 19.2472L4.75205 20.9045C5.27687 21.4294 6.12778 21.4294 6.6526 20.9045L6.77384 20.7833Z" fill="black"/>
</svg>
