<svg width="24" height="24" viewBox="0 0 24 24" fill="none" xmlns="http://www.w3.org/2000/svg">
<path d="M21.66 5.81217C20.2715 4.42364 18.0202 4.42364 16.6317 5.81217L10.8568 11.5871L12.8406 13.5709L18.6155 7.79605C18.9084 7.50316 19.3833 7.50316 19.6762 7.79605C19.9691 8.08894 19.9691 8.56382 19.6762 8.85671L13.9013 14.6316L15.8851 16.6154L21.66 10.8405C23.0485 9.45196 23.0485 7.2007 21.66 5.81217Z" fill="black"/>
<path d="M7.50484 8.23515L13.2796 2.46034C14.6682 1.07181 16.9194 1.07181 18.308 2.46034C18.5557 2.70814 18.7593 2.98341 18.9187 3.27635C17.7017 3.3308 16.5006 3.82269 15.5712 4.752L9.79647 10.5268L7.50484 8.23515Z" fill="black"/>
<path fill-rule="evenodd" clip-rule="evenodd" d="M15.4203 20.5236C16.1399 19.804 16.1399 18.6373 15.4203 17.9177L6.20173 8.69915C5.48215 7.97958 4.31548 7.97958 3.59591 8.69915L2.33883 9.95623C0.767851 11.5272 0.511941 13.9153 1.5711 15.7524L1.50081 15.8227C0.0869699 17.2366 0.0869681 19.5289 1.50081 20.9427L3.17692 22.6188C4.59076 24.0327 6.88305 24.0327 8.29689 22.6188L8.36723 22.5485C10.2044 23.6075 12.5923 23.3515 14.1632 21.7806L15.4203 20.5236ZM13.1877 19.2206L12.3955 20.0129C11.4951 20.9132 10.0353 20.9132 9.13497 20.0129L4.10669 14.9846C3.20631 14.0843 3.20622 12.6244 4.1066 11.724L4.89882 10.9318L13.1877 19.2206ZM3.22403 17.6377L6.48196 20.8956C6.04202 21.288 5.36682 21.2732 4.94468 20.8511L3.26858 19.1749C2.84644 18.7528 2.83159 18.0776 3.22403 17.6377Z" fill="black"/>
</svg>
