<svg width="24" height="24" viewBox="0 0 24 24" fill="none" xmlns="http://www.w3.org/2000/svg">
<path d="M13.4229 12.162L13.4229 4.38438C13.4229 3.97017 13.7587 3.63438 14.1729 3.63438C14.5871 3.63438 14.9229 3.97017 14.9229 4.38438L14.9229 12.162H17.4322V4.38438C17.4322 2.58434 15.973 1.12512 14.1729 1.12512C13.3382 1.12512 12.5768 1.43892 12.0002 1.95497C11.3334 2.55177 10.9136 3.41897 10.9136 4.38426V12.162H13.4229Z" fill="black"/>
<path d="M9.41363 12.162V4.38426C9.41363 3.17007 9.86831 2.06208 10.6167 1.22126C10.3639 1.15838 10.0995 1.125 9.82724 1.125C8.0272 1.125 6.56798 2.58422 6.56798 4.38426V12.162H9.41363Z" fill="black"/>
<path fill-rule="evenodd" clip-rule="evenodd" d="M19.2686 14.7052C19.2686 13.991 18.6896 13.412 17.9754 13.412H6.02478C5.31056 13.412 4.73157 13.991 4.73157 14.7052V16.3349C4.73157 18.2928 6.13503 19.9229 7.99083 20.2741L7.99083 20.6806C7.99083 22.2948 9.29942 23.6034 10.9137 23.6034H13.0865C14.7007 23.6034 16.0093 22.2948 16.0093 20.6806V20.2741C17.8651 19.9229 19.2686 18.2928 19.2686 16.3349V14.7052ZM17.7686 14.912V16.3349C17.7686 17.7207 16.6452 18.8441 15.2593 18.8441H8.74082C7.355 18.8441 6.23157 17.7207 6.23157 16.3349V14.912H17.7686ZM9.49083 20.3441H14.5093V20.6806C14.5093 21.4664 13.8723 22.1034 13.0865 22.1034H10.9137C10.1279 22.1034 9.49083 21.4664 9.49083 20.6806L9.49083 20.3441Z" fill="black"/>
</svg>
