<svg width="24" height="24" viewBox="0 0 24 24" fill="none" xmlns="http://www.w3.org/2000/svg">
<path d="M19.4918 8.88362C19.7847 8.59073 19.7847 8.11585 19.4918 7.82296C19.1989 7.53006 18.7241 7.53007 18.4312 7.82296L12.5951 13.6591C12.3022 13.952 12.3022 14.4268 12.5951 14.7197C12.888 15.0126 13.3628 15.0126 13.6557 14.7197L19.4918 8.88362Z" fill="black"/>
<path fill-rule="evenodd" clip-rule="evenodd" d="M21.9779 5.33672C21.3657 4.72454 20.6138 4.33733 19.8248 4.17506C19.6625 3.38614 19.2753 2.63427 18.6632 2.02214C16.9973 0.356226 14.2963 0.356227 12.6304 2.02214L5.69506 8.95744C5.17088 8.54785 4.41142 8.58424 3.92905 9.06661L2.68601 10.3096C1.20122 11.7944 1.03979 14.1015 2.20172 15.765L1.85735 16.1094C0.649111 17.3177 0.649112 19.2766 1.85735 20.4848L3.51473 22.1422C4.72298 23.3505 6.68192 23.3505 7.89016 22.1422L8.23434 21.798C9.89802 22.9609 12.2058 22.7998 13.691 21.3146L14.934 20.0716C15.4166 19.589 15.4528 18.829 15.0426 18.3048L21.9779 11.3695C23.6438 9.70361 23.6438 7.00263 21.9779 5.33672ZM15.9451 5.33672C16.6002 4.68161 17.4154 4.28412 18.2647 4.14424C18.1325 3.75641 17.9118 3.39209 17.6025 3.0828C16.5224 2.00267 14.7712 2.00267 13.691 3.0828L6.76313 10.0107L9.01712 12.2647L15.9451 5.33672ZM20.9172 6.39738C19.8371 5.31725 18.0859 5.31725 17.0057 6.39738L10.0779 13.3253L13.9893 17.2368L20.9172 10.3089C21.9974 9.22874 21.9974 7.4775 20.9172 6.39738ZM12.6303 20.254L13.7574 19.1269L4.87372 10.2433L3.74667 11.3703C2.67625 12.4407 2.66663 14.1702 3.7178 15.2525L8.74811 20.2828C9.83037 21.334 11.5599 21.3244 12.6303 20.254ZM7.12752 20.7835L3.21603 16.8721L2.91801 17.1701C2.29556 17.7925 2.29556 18.8017 2.91801 19.4242L4.57539 21.0816C5.19785 21.704 6.20705 21.704 6.8295 21.0816L7.12752 20.7835Z" fill="black"/>
</svg>
