<svg width="24" height="24" viewBox="0 0 24 24" fill="none" xmlns="http://www.w3.org/2000/svg">
<path d="M19.315 8.70684C19.5103 8.51158 19.5103 8.195 19.315 7.99973C19.1198 7.80447 18.8032 7.80447 18.6079 7.99973L12.7718 13.8358C12.5766 14.0311 12.5766 14.3477 12.7718 14.5429C12.9671 14.7382 13.2837 14.7382 13.4789 14.5429L19.315 8.70684Z" fill="black"/>
<path fill-rule="evenodd" clip-rule="evenodd" d="M21.8011 5.51349C21.1825 4.8949 20.4123 4.52031 19.6102 4.38971C19.4795 3.58758 19.1049 2.81746 18.4864 2.19892C16.9181 0.630634 14.3754 0.630635 12.8071 2.19892L5.70215 9.30392L5.64162 9.24339C5.21752 8.81929 4.52992 8.81929 4.10582 9.24339L2.86279 10.4864C1.41441 11.9348 1.30367 14.2143 2.53057 15.7897L2.03413 16.2862C0.923519 17.3968 0.92352 19.1975 2.03413 20.3081L3.69151 21.9654C4.80212 23.0761 6.60278 23.0761 7.71338 21.9654L8.2097 21.4691C9.7852 22.697 12.0655 22.5866 13.5142 21.1378L14.7572 19.8948C15.1813 19.4707 15.1813 18.7831 14.7572 18.359L14.6961 18.2978L21.8011 11.1927C23.3694 9.62447 23.3694 7.08178 21.8011 5.51349ZM16.1219 5.51349C16.81 4.82534 17.6858 4.43914 18.5845 4.35491C18.4615 3.82393 18.1931 3.31981 17.7793 2.90602C16.6015 1.72826 14.692 1.72827 13.5142 2.90602L6.40958 10.0107L9.01712 12.6182L16.1219 5.51349ZM21.094 6.2206C19.9163 5.04284 18.0067 5.04284 16.829 6.2206L9.7243 13.3253L13.9893 17.5903L21.094 10.4856C22.2718 9.30788 22.2718 7.39836 21.094 6.2206ZM14.0501 19.1877C14.0837 19.1541 14.0837 19.0997 14.0501 19.0661L4.93451 9.9505C4.90094 9.91692 4.8465 9.91692 4.81293 9.9505L3.56989 11.1935C2.40227 12.3612 2.39222 14.248 3.53974 15.428L8.57262 20.4609C9.75262 21.6084 11.6395 21.5983 12.8071 20.4307L14.0501 19.1877ZM7.48107 20.7835L3.21603 16.5185L2.74124 16.9933C2.02115 17.7134 2.02115 18.8809 2.74124 19.601L4.39862 21.2583C5.1187 21.9784 6.28619 21.9784 7.00628 21.2583L7.48107 20.7835Z" fill="black"/>
</svg>
