<svg width="24" height="24" viewBox="0 0 24 24" fill="none" xmlns="http://www.w3.org/2000/svg">
<path d="M13.6728 13.162L13.6728 4.38438C13.6728 4.10824 13.8967 3.88438 14.1728 3.88438C14.4489 3.88438 14.6728 4.10824 14.6728 4.38438L14.6728 13.162H17.4321V4.38438C17.4321 2.58434 15.9728 1.12512 14.1728 1.12512C13.3381 1.12512 12.5766 1.43892 12 1.95497C11.3332 2.55177 10.9135 3.41897 10.9135 4.38426V13.162H13.6728Z" fill="black"/>
<path d="M9.91351 13.162V4.38426C9.91351 3.22113 10.3797 2.1669 11.1355 1.39825C10.735 1.22252 10.2925 1.125 9.82712 1.125C8.02708 1.125 6.56786 2.58422 6.56786 4.38426V13.162H9.91351Z" fill="black"/>
<path fill-rule="evenodd" clip-rule="evenodd" d="M19.0185 14.7052C19.0185 14.1291 18.5514 13.662 17.9753 13.662H6.02466C5.44851 13.662 4.98145 14.1291 4.98145 14.7052V16.3349C4.98145 18.2415 6.40089 19.8167 8.2407 20.0612L8.2407 20.6806C8.2407 22.1567 9.43737 23.3534 10.9135 23.3534H13.0864C14.5626 23.3534 15.7592 22.1567 15.7592 20.6806V20.0612C17.599 19.8167 19.0185 18.2415 19.0185 16.3349V14.7052ZM17.9753 14.662C17.9991 14.662 18.0185 14.6814 18.0185 14.7052V16.3349C18.0185 17.8588 16.7831 19.0941 15.2592 19.0941H8.7407C7.21681 19.0941 5.98145 17.8588 5.98145 16.3349V14.7052C5.98145 14.6814 6.00079 14.662 6.02466 14.662H17.9753ZM9.2407 20.0941H14.7592V20.6806C14.7592 21.6044 14.0103 22.3534 13.0864 22.3534H10.9135C9.98966 22.3534 9.2407 21.6044 9.2407 20.6806L9.2407 20.0941Z" fill="black"/>
</svg>
