<svg width="24" height="24" viewBox="0 0 24 24" fill="none" xmlns="http://www.w3.org/2000/svg">
<path d="M14.8388 4.689C14.8388 4.27478 14.503 3.939 14.0888 3.939C13.6746 3.939 13.3388 4.27478 13.3388 4.689L13.3388 12.0446C13.3388 12.4588 13.6746 12.7946 14.0888 12.7946C14.503 12.7946 14.8388 12.4588 14.8388 12.0446L14.8388 4.689Z" fill="black"/>
<path fill-rule="evenodd" clip-rule="evenodd" d="M14.0888 0.805664C13.3199 0.805664 12.6031 1.02917 11.9999 1.41477C11.3968 1.02917 10.68 0.805666 9.91104 0.805666C7.76634 0.805666 6.02771 2.54429 6.02771 4.689V13.3594C5.43378 13.4667 4.98328 13.9864 4.98328 14.6112V16.1779C4.98328 18.066 6.3308 19.6394 8.11661 19.9889L8.11661 20.3557C8.11661 21.9236 9.38762 23.1946 10.9555 23.1946H13.0444C14.6123 23.1946 15.8833 21.9236 15.8833 20.3557V19.9889C17.6691 19.6394 19.0166 18.066 19.0166 16.1779V14.6112C19.0166 13.9864 18.5661 13.4667 17.9722 13.3593V4.689C17.9722 2.54429 16.2335 0.805664 14.0888 0.805664ZM10.2055 4.689C10.2055 3.88076 10.4524 3.1302 10.8749 2.50862C10.5802 2.37814 10.2541 2.30567 9.91104 2.30567C8.59477 2.30567 7.52771 3.37272 7.52771 4.689V13.339H10.2055V4.689ZM14.0888 2.30566C12.7725 2.30566 11.7055 3.37272 11.7055 4.689V13.339H16.4722V4.689C16.4722 3.37272 15.4051 2.30566 14.0888 2.30566ZM17.5166 16.1779V14.839H6.48328V16.1779C6.48328 17.4908 7.54487 18.5558 8.8565 18.5612H15.1434C16.455 18.5558 17.5166 17.4908 17.5166 16.1779ZM14.3833 20.0612H9.61661L9.61661 20.3557C9.61661 21.0951 10.2161 21.6946 10.9555 21.6946H13.0444C13.7838 21.6946 14.3833 21.0951 14.3833 20.3557V20.0612Z" fill="black"/>
</svg>
