<svg width="24" height="24" viewBox="0 0 24 24" fill="none" xmlns="http://www.w3.org/2000/svg">
<path fill-rule="evenodd" clip-rule="evenodd" d="M23.5083 13.9911C24.0323 12.494 23.3013 10.944 21.9988 10.3041C21.9961 9.79821 21.9868 9.3587 21.9558 8.97962C21.9099 8.41753 21.8113 7.90082 21.564 7.41549C21.1805 6.66284 20.5686 6.05092 19.816 5.66742C19.3306 5.42013 18.8139 5.32157 18.2518 5.27564C17.7106 5.23143 17.0463 5.23144 16.2413 5.23145L12.754 5.23145C12.5521 5.23145 12.4956 5.23097 12.4467 5.22784C11.9091 5.19344 11.4165 4.91597 11.1085 4.47407C11.0805 4.43389 11.0507 4.38577 10.9461 4.21315L10.9317 4.18935C10.848 4.05117 10.7834 3.94453 10.7141 3.84511C10.0577 2.90361 9.0082 2.31244 7.86285 2.23914C7.74191 2.2314 7.61721 2.23142 7.45564 2.23145L5.7587 2.23145C4.95373 2.23144 4.28937 2.23143 3.74818 2.27564C3.18608 2.32157 2.66938 2.42013 2.18404 2.66742C1.43139 3.05092 0.819469 3.66284 0.435976 4.41549C0.188685 4.90082 0.0901208 5.41753 0.0441956 5.97962C-2.07908e-05 6.52081 -1.12211e-05 7.18515 3.73909e-07 7.9901L7.34581e-07 16.2413C-1.1221e-05 17.0463 -2.10889e-05 17.7106 0.0441956 18.2518C0.0901208 18.8139 0.188685 19.3306 0.435976 19.816C0.819469 20.5686 1.43139 21.1805 2.18404 21.564C2.58288 21.7673 3.00291 21.87 3.45191 21.9257C3.70197 21.9744 3.96166 22 4.22912 22L17.8673 22C19.5671 22 21.0812 20.9258 21.6427 19.3214L23.5083 13.9911ZM7.42784 4.23145C7.62969 4.23145 7.68625 4.23193 7.73513 4.23506C8.2727 4.26946 8.76531 4.54693 9.07336 4.98883C9.10136 5.02901 9.13109 5.07713 9.23571 5.24975L9.25013 5.27355C9.33385 5.41173 9.39846 5.51837 9.46776 5.61779C10.1241 6.55929 11.1736 7.15046 12.319 7.22376C12.4399 7.2315 12.5646 7.23148 12.7261 7.23145L16.2 7.23145C17.0566 7.23145 17.6389 7.23223 18.089 7.269C18.5274 7.30482 18.7516 7.36975 18.908 7.44944C19.2843 7.64118 19.5903 7.94714 19.782 8.32347C19.8617 8.47987 19.9266 8.70407 19.9625 9.14249C19.9821 9.38325 19.9915 9.66184 19.996 10L5.6298 10C4.06038 10 2.6492 10.9158 2 12.3191L2 8.03145C2 7.17487 2.00078 6.59258 2.03755 6.14249C2.07337 5.70407 2.1383 5.47987 2.21799 5.32347C2.40974 4.94714 2.7157 4.64118 3.09202 4.44944C3.24842 4.36975 3.47262 4.30482 3.91104 4.269C4.36113 4.23223 4.94342 4.23145 5.8 4.23145H7.42784Z" fill="black"/>
</svg>
