<svg width="25" height="24" viewBox="0 0 25 24" fill="none" xmlns="http://www.w3.org/2000/svg">
<path fill-rule="evenodd" clip-rule="evenodd" d="M23.2478 10.1519C24.5712 10.8844 25.293 12.5058 24.7443 14.0736L22.8787 19.404C22.2821 21.1086 20.6733 22.25 18.8673 22.25H15.7412C15.7117 22.25 15.682 22.25 15.6522 22.25H6.75012C6.72225 22.25 6.69444 22.25 6.66686 22.25H5.22912C4.94768 22.25 4.67434 22.2233 4.411 22.1725C3.94725 22.1143 3.49998 22.0056 3.07054 21.7868C2.27085 21.3793 1.62069 20.7292 1.21322 19.9295C0.944984 19.403 0.842214 18.8497 0.795026 18.2722C0.749966 17.7207 0.749982 17.0475 0.750001 16.2499L0.750001 7.9816C0.749982 7.184 0.749966 6.51078 0.795026 5.95927C0.842214 5.38171 0.944984 4.82845 1.21322 4.30199C1.62069 3.50231 2.27085 2.85214 3.07054 2.44468C3.59699 2.17643 4.15026 2.07367 4.72782 2.02648C5.27932 1.98142 5.95251 1.98143 6.75009 1.98145L8.45896 1.98145C8.61699 1.98142 8.74956 1.98139 8.87882 1.98966C10.1001 2.06782 11.2193 2.69819 11.9192 3.70215C11.9932 3.8084 12.0619 3.92178 12.1438 4.05692L12.1599 4.08358C12.2663 4.25905 12.2912 4.29904 12.3136 4.3311C12.5781 4.71056 13.0011 4.94881 13.4627 4.97835C13.5017 4.98085 13.5488 4.98145 13.754 4.98145H17.2499C18.0474 4.98143 18.7207 4.98142 19.2722 5.02648C19.8497 5.07367 20.403 5.17644 20.9295 5.44468C21.7291 5.85214 22.3793 6.5023 22.7868 7.30199C23.055 7.82845 23.1578 8.38171 23.205 8.95927C23.2335 9.30795 23.2439 9.70527 23.2478 10.1519ZM8.71916 4.48455C8.68015 4.48206 8.63302 4.48145 8.42784 4.48145L6.8 4.48145C5.9393 4.48145 5.36895 4.48243 4.9314 4.51818C4.50844 4.55273 4.3208 4.61345 4.20552 4.67219C3.87624 4.83997 3.60852 5.10769 3.44074 5.43697C3.382 5.55225 3.32128 5.73989 3.28672 6.16285C3.25097 6.6004 3.25 7.17075 3.25 8.03145V11.4229C4.03918 10.3882 5.27936 9.75001 6.6298 9.75001L20.7414 9.75001C20.736 9.52738 20.7273 9.33485 20.7133 9.16285C20.6787 8.73989 20.618 8.55225 20.5593 8.43697C20.3915 8.10769 20.1238 7.83997 19.7945 7.67219C19.6792 7.61345 19.4916 7.55273 19.0686 7.51817C18.6311 7.48242 18.0607 7.48145 17.2 7.48145L13.7229 7.48146C13.5649 7.48149 13.4322 7.48152 13.303 7.47325C12.0817 7.39509 10.9625 6.76471 10.2627 5.76075C10.1886 5.6545 10.1199 5.5411 10.038 5.40593L10.0219 5.37933C9.91557 5.20386 9.89062 5.16387 9.86827 5.1318C9.60376 4.75235 9.18076 4.51409 8.71916 4.48455ZM4.97813 13.4216C5.22387 12.7199 5.88624 12.25 6.6298 12.25H21.6768C22.1934 12.25 22.5553 12.7601 22.3847 13.2478L20.519 18.5781C20.2734 19.28 19.6109 19.75 18.8673 19.75H5.22912C4.02352 19.75 3.17902 18.5595 3.57746 17.4216L4.97813 13.4216Z" fill="black"/>
</svg>
