<svg width="24" height="24" viewBox="0 0 24 24" fill="none" xmlns="http://www.w3.org/2000/svg">
<path fill-rule="evenodd" clip-rule="evenodd" d="M21.4998 10.6372C22.756 11.0728 23.5091 12.4752 23.0364 13.8259L21.1708 19.1562C20.6794 20.56 19.3546 21.5 17.8673 21.5H14.6604C14.6479 21.5 14.6353 21.5 14.6226 21.5H5.77778C5.76421 21.5 5.75068 21.5 5.73721 21.5H4.22912C3.98959 21.5 3.7572 21.4765 3.53365 21.4319C3.11287 21.3813 2.74782 21.2901 2.41103 21.1185C1.75247 20.783 1.21703 20.2475 0.881478 19.589C0.676087 19.1859 0.585933 18.7423 0.542534 18.2111C0.499995 17.6905 0.499997 17.0435 0.5 16.2222L0.5 8.00924C0.499997 7.18798 0.499995 6.54099 0.542534 6.02034C0.585933 5.48916 0.676087 5.04558 0.881478 4.64248C1.21703 3.98391 1.75247 3.44848 2.41103 3.11292C2.81414 2.90753 3.25771 2.81738 3.78889 2.77398C4.30955 2.73144 4.95652 2.73144 5.7778 2.73145L7.44567 2.73145C7.61714 2.73144 7.72646 2.73143 7.83092 2.73812C8.82432 2.80169 9.73463 3.31443 10.3039 4.13104C10.3638 4.21692 10.4204 4.31033 10.5092 4.45701L10.5185 4.4723C10.6197 4.63923 10.659 4.7036 10.6983 4.75999C11.0934 5.3268 11.7252 5.68269 12.4148 5.72681C12.4834 5.7312 12.5588 5.73145 12.754 5.73145H16.2222C17.0435 5.73144 17.6905 5.73144 18.2111 5.77398C18.7423 5.81738 19.1859 5.90753 19.589 6.11292C20.2475 6.44848 20.783 6.98391 21.1185 7.64248C21.3239 8.04558 21.4141 8.48916 21.4575 9.02034C21.4934 9.45972 21.499 9.98907 21.4998 10.6372ZM7.76706 3.73608C7.69846 3.73169 7.62304 3.73145 7.42784 3.73145L5.8 3.73145C4.95167 3.73145 4.3455 3.73184 3.87032 3.77066C3.40099 3.809 3.10366 3.88234 2.86502 4.00393C2.39462 4.24361 2.01217 4.62607 1.77248 5.09647C1.65089 5.3351 1.57756 5.63243 1.53921 6.10177C1.50039 6.57694 1.5 7.18312 1.5 8.03145V15.2035L2.32647 12.8433C2.81795 11.4397 4.14269 10.5 5.6298 10.5L20.4995 10.5C20.4979 9.91989 20.491 9.47123 20.4608 9.10177C20.4224 8.63243 20.3491 8.3351 20.2275 8.09647C19.9878 7.62606 19.6054 7.24361 19.135 7.00393C18.8963 6.88234 18.599 6.809 18.1297 6.77066C17.6545 6.73184 17.0483 6.73145 16.2 6.73145L12.7361 6.73145C12.5646 6.73145 12.4554 6.73146 12.3509 6.72477C11.3575 6.6612 10.4472 6.14846 9.87794 5.33185C9.81807 5.24597 9.76146 5.15257 9.67257 5.00588L9.66331 4.9906C9.56214 4.82366 9.52284 4.75929 9.48353 4.7029C9.08842 4.1361 8.45657 3.7802 7.76706 3.73608ZM3.27028 13.1738C3.62133 12.1712 4.56758 11.5 5.6298 11.5H20.6768C21.71 11.5 22.4339 12.5203 22.0925 13.4955L20.2269 18.8259C19.876 19.8286 18.9296 20.5 17.8673 20.5H4.22912C2.50684 20.5 1.3004 18.7993 1.8696 17.1738L3.27028 13.1738Z" fill="black"/>
</svg>
