<svg width="25" height="24" viewBox="0 0 25 24" fill="none" xmlns="http://www.w3.org/2000/svg">
<path fill-rule="evenodd" clip-rule="evenodd" d="M24.7443 14.0736C25.293 12.5058 24.5712 10.8844 23.2478 10.1519C23.2439 9.70527 23.2335 9.30795 23.205 8.95927C23.1578 8.38171 23.055 7.82845 22.7868 7.30199C22.3793 6.5023 21.7291 5.85214 20.9295 5.44468C20.403 5.17644 19.8497 5.07367 19.2722 5.02648C18.7207 4.98142 18.0475 4.98143 17.2499 4.98145H13.754C13.5488 4.98145 13.5017 4.98085 13.4627 4.97835C13.0011 4.94881 12.5781 4.71056 12.3136 4.3311C12.2912 4.29904 12.2663 4.25905 12.1599 4.08358L12.1438 4.05697C12.0619 3.92183 11.9932 3.8084 11.9192 3.70215C11.2193 2.69819 10.1001 2.06782 8.87882 1.98966C8.74956 1.98139 8.61699 1.98142 8.45896 1.98145L6.75015 1.98145C5.95256 1.98143 5.27932 1.98142 4.72782 2.02648C4.15026 2.07367 3.59699 2.17643 3.07054 2.44468C2.27085 2.85214 1.62069 3.50231 1.21322 4.30199C0.944984 4.82845 0.842214 5.38171 0.795026 5.95927C0.749966 6.51078 0.749982 7.18397 0.750001 7.98158L0.750001 16.2499C0.749982 17.0475 0.749966 17.7207 0.795026 18.2722C0.842214 18.8497 0.944984 19.403 1.21322 19.9295C1.62069 20.7292 2.27085 21.3793 3.07054 21.7868C3.49998 22.0056 3.94725 22.1143 4.411 22.1725C4.67434 22.2233 4.94768 22.25 5.22912 22.25H18.8673C20.6733 22.25 22.2821 21.1086 22.8787 19.404L24.7443 14.0736ZM8.42784 4.48145C8.63302 4.48145 8.68015 4.48206 8.71916 4.48455C9.18076 4.51409 9.60376 4.75235 9.86827 5.1318C9.89062 5.16387 9.91557 5.20386 10.0219 5.37933L10.038 5.40593C10.1199 5.5411 10.1886 5.6545 10.2627 5.76075C10.9625 6.76471 12.0817 7.39509 13.303 7.47325C13.4322 7.48152 13.5648 7.48149 13.7228 7.48146L17.2 7.48145C18.0607 7.48145 18.6311 7.48242 19.0686 7.51817C19.4916 7.55273 19.6792 7.61345 19.7945 7.67219C20.1238 7.83997 20.3915 8.10769 20.5593 8.43697C20.618 8.55225 20.6787 8.73989 20.7133 9.16285C20.7273 9.33485 20.736 9.52738 20.7414 9.75001L6.6298 9.75001C5.27936 9.75001 4.03918 10.3882 3.25 11.4229V8.03145C3.25 7.17075 3.25097 6.6004 3.28672 6.16285C3.32128 5.73989 3.382 5.55225 3.44074 5.43697C3.60852 5.10769 3.87624 4.83997 4.20552 4.67219C4.3208 4.61345 4.50844 4.55273 4.9314 4.51818C5.36895 4.48243 5.9393 4.48145 6.8 4.48145L8.42784 4.48145Z" fill="black"/>
</svg>
