<svg width="24" height="24" viewBox="0 0 24 24" fill="none" xmlns="http://www.w3.org/2000/svg">
<path d="M7.49951 19C7.49951 18.7238 7.27565 18.5 6.99951 18.5H2.99964C2.7235 18.5 2.49964 18.7238 2.49964 19C2.49964 19.2761 2.7235 19.5 2.99964 19.5L6.99951 19.5C7.27565 19.5 7.49951 19.2761 7.49951 19Z" fill="black"/>
<path fill-rule="evenodd" clip-rule="evenodd" d="M0.0512986 17.5148C0 17.8387 0 18.2258 0 19C0 19.7741 0 20.1612 0.0512986 20.4851C0.33368 22.268 1.73197 23.6663 3.51486 23.9487C3.83874 24 4.22583 24 5 24C5.77417 24 6.16126 24 6.48514 23.9487C8.26803 23.6663 9.66632 22.268 9.9487 20.4851C10 20.1612 10 19.7741 10 19C10 18.2258 10 17.8387 9.9487 17.5148C9.66632 15.7319 8.26803 14.3336 6.48514 14.0513C6.16126 14 5.77417 14 5 14C4.22583 14 3.83874 14 3.51486 14.0513C1.73197 14.3336 0.33368 15.7319 0.0512986 17.5148ZM3.67129 22.961C3.89785 22.9969 4.18761 23 5 23C5.81239 23 6.10215 22.9969 6.32871 22.961C7.6837 22.7464 8.7464 21.6837 8.96101 20.3287C8.9969 20.1021 9 19.8124 9 19C9 18.1876 8.9969 17.8978 8.96101 17.6713C8.7464 16.3163 7.6837 15.2536 6.32871 15.039C6.10215 15.0031 5.81239 15 5 15C4.18761 15 3.89785 15.0031 3.67129 15.039C2.3163 15.2536 1.2536 16.3163 1.03899 17.6713C1.0031 17.8978 1 18.1876 1 19C1 19.8124 1.0031 20.1021 1.03899 20.3287C1.2536 21.6837 2.3163 22.7464 3.67129 22.961Z" fill="black"/>
<path fill-rule="evenodd" clip-rule="evenodd" d="M10.7698 21.5C10.8236 21.329 10.8684 21.154 10.9039 20.9754C10.9337 20.8257 10.9543 20.6691 10.9685 20.5H17.3362C18.1138 20.4998 18.6803 20.4975 19.1297 20.4608C19.5417 20.4271 19.8211 20.3665 20.0447 20.2699C20.6047 20.0107 21.0526 19.5503 21.2957 18.9814C21.3774 18.7685 21.4302 18.5037 21.4608 18.1297C21.4812 17.8792 21.491 17.5923 21.4957 17.2526V12C21.4957 11.1716 20.8241 10.5 19.9957 10.5L4.00137 10.5C3.17303 10.5 2.5015 11.1714 2.50137 11.9998L2.50118 13.2298C2.14878 13.3404 1.81351 13.4886 1.49998 13.6696L1.49998 8.00924C1.49998 7.18798 1.49998 6.54099 1.54252 6.02034C1.58592 5.48916 1.67607 5.04558 1.88146 4.64248C2.21702 3.98391 2.75245 3.44848 3.41102 3.11292C3.81412 2.90753 4.2577 2.81738 4.78887 2.77398C5.30953 2.73144 5.95651 2.73144 6.77778 2.73145L8.44566 2.73145C8.61709 2.73144 8.72646 2.73143 8.8309 2.73812C9.82431 2.80169 10.7346 3.31443 11.3039 4.13104C11.3637 4.21692 11.4203 4.31033 11.5092 4.45701L11.5185 4.4723C11.6197 4.63923 11.659 4.7036 11.6983 4.75999C12.0934 5.3268 12.7252 5.68269 13.4147 5.72681C13.4833 5.73121 13.5588 5.73145 13.754 5.73145H17.2222C18.0434 5.73144 18.6904 5.73144 19.2111 5.77398C19.7423 5.81738 20.1859 5.90753 20.589 6.11292C21.2475 6.44848 21.783 6.98391 22.1185 7.64248C22.3239 8.04558 22.4141 8.48916 22.4575 9.02034C22.5 9.54099 22.5 10.188 22.5 11.0092V16.2232C22.5 16.605 22.5 16.9491 22.4957 17.2603V18C22.4957 18.4855 22.3968 18.9479 22.2182 19.3682C22.1884 19.4433 22.1553 19.5168 22.1185 19.589C21.783 20.2475 21.2475 20.783 20.589 21.1185C20.5488 21.139 20.5083 21.1583 20.4673 21.1765C20.0199 21.3841 19.5214 21.5 18.9957 21.5L10.7698 21.5ZM8.42782 3.73145C8.62302 3.73145 8.69844 3.73169 8.76704 3.73608C9.45656 3.7802 10.0884 4.1361 10.4835 4.7029C10.5228 4.75929 10.5621 4.82366 10.6633 4.9906L10.6726 5.00588C10.7614 5.15257 10.8181 5.24597 10.8779 5.33185C11.4472 6.14846 12.3575 6.6612 13.3509 6.72477C13.4554 6.73146 13.5646 6.73146 13.7361 6.73145L17.2 6.73145C18.0483 6.73145 18.6545 6.73184 19.1297 6.77066C19.599 6.80901 19.8963 6.88234 20.135 7.00393C20.6054 7.24361 20.9878 7.62606 21.2275 8.09647C21.3491 8.3351 21.4224 8.63243 21.4608 9.10177C21.4817 9.35748 21.4914 9.65112 21.496 10C21.0781 9.68605 20.5586 9.49999 19.9957 9.49999L4.00137 9.49999C3.43795 9.49999 2.91805 9.68637 2.49998 10.0009V8.03145C2.49998 7.18312 2.50037 6.57694 2.5392 6.10177C2.57754 5.63243 2.65088 5.3351 2.77247 5.09647C3.01215 4.62607 3.3946 4.24361 3.86501 4.00393C4.10364 3.88234 4.40097 3.809 4.87031 3.77066C5.34548 3.73184 5.95166 3.73145 6.79998 3.73145L8.42782 3.73145Z" fill="black"/>
</svg>
