<svg width="24" height="24" viewBox="0 0 24 24" fill="none" xmlns="http://www.w3.org/2000/svg">
<path fill-rule="evenodd" clip-rule="evenodd" d="M21.9958 17.2562C22.0001 16.9451 22.0001 16.5958 22.0001 16.1998V11.0312C22.0001 9.35104 22.0001 8.51096 21.6731 7.86923C21.3855 7.30474 20.9265 6.8458 20.362 6.55818C19.7203 6.2312 18.8802 6.2312 17.2001 6.2312L13.754 6.2312C13.5655 6.2312 13.4712 6.2312 13.3829 6.22555C12.5414 6.1717 11.7704 5.73738 11.2882 5.04568C11.2376 4.97307 11.1887 4.89246 11.091 4.73124C10.9933 4.57002 10.9444 4.48933 10.8938 4.41673C10.4116 3.72502 9.64051 3.2907 8.79905 3.23685C8.71072 3.2312 8.61645 3.2312 8.4279 3.2312L6.80006 3.2312C5.1199 3.2312 4.27982 3.2312 3.63809 3.55818C3.0736 3.8458 2.61466 4.30474 2.32704 4.86923C2.00006 5.51097 2.00006 6.35104 2.00006 8.0312L2.00006 16.1998C2.00006 16.4107 2.00006 16.6084 2.00071 16.7941L2.00052 17.9993C2.00037 19.0225 2.51247 19.9261 3.29441 20.4677C3.77879 20.8032 4.3667 20.9997 5.00052 20.9997H6.65363C6.70172 20.9998 6.75053 20.9998 6.80006 20.9998H17.2001C17.2487 20.9998 17.2966 20.9998 17.3438 20.9997H18.9958C19.4454 20.9997 19.8719 20.9008 20.2548 20.7236C20.2912 20.7076 20.3269 20.6907 20.362 20.6728C20.9265 20.3852 21.3855 19.9262 21.6731 19.3617C21.704 19.301 21.7321 19.2385 21.7574 19.1736C21.9109 18.8131 21.9958 18.4163 21.9958 17.9997V17.2562ZM21.4958 17.2524V11.9997C21.4958 11.1713 20.8242 10.4997 19.9958 10.4997L4.00145 10.4997C3.17311 10.4997 2.50157 11.1712 2.50145 11.9995L2.50071 16.7868C2.50261 17.3401 2.51006 17.7719 2.53927 18.1294C2.57762 18.5988 2.65096 18.8961 2.77255 19.1347C2.79444 19.1777 2.81753 19.22 2.84178 19.2614C3.03387 19.5894 3.29856 19.8697 3.6138 20.0802C3.69433 20.1339 3.77821 20.183 3.86509 20.2273C4.10372 20.3489 4.40105 20.4222 4.87038 20.4605C5.32075 20.4973 5.88879 20.4996 6.66915 20.4997H17.331C18.1114 20.4996 18.6794 20.4973 19.1297 20.4605C19.5418 20.4269 19.8212 20.3663 20.0448 20.2697C20.6048 20.0104 21.0527 19.55 21.2958 18.9812C21.3775 18.7683 21.4303 18.5035 21.4608 18.1294C21.4813 17.8789 21.4911 17.592 21.4958 17.2524ZM21.4608 9.10152C21.4941 9.5087 21.4992 10.0121 21.4999 10.6815C21.1334 10.2636 20.5954 9.99975 19.9958 9.99975L4.00145 9.99975C3.40335 9.99975 2.86657 10.2623 2.50006 10.6784V8.0312C2.50006 7.18287 2.50045 6.5767 2.53927 6.10152C2.57762 5.63219 2.65096 5.33486 2.77255 5.09623C3.01223 4.62582 3.39468 4.24337 3.86509 4.00369C4.10372 3.8821 4.40105 3.80876 4.87038 3.77041C5.34556 3.73159 5.95173 3.7312 6.80006 3.7312L8.4279 3.7312C8.6231 3.7312 8.69852 3.73144 8.76712 3.73583C9.45663 3.77996 10.0885 4.13585 10.4836 4.70266C10.5229 4.75905 10.5622 4.82342 10.6634 4.99035L10.6726 5.00563C10.7615 5.15232 10.8181 5.24572 10.878 5.33161C11.4472 6.14822 12.3576 6.66096 13.351 6.72453C13.4554 6.73121 13.5647 6.73121 13.7362 6.7312L17.2001 6.7312C18.0484 6.7312 18.6546 6.73159 19.1297 6.77041C19.5991 6.80876 19.8964 6.88209 20.135 7.00369C20.6054 7.24337 20.9879 7.62582 21.2276 8.09623C21.3492 8.33486 21.4225 8.63219 21.4608 9.10152Z" fill="black"/>
</svg>
