<svg width="24" height="24" viewBox="0 0 24 24" fill="none" xmlns="http://www.w3.org/2000/svg">
<path fill-rule="evenodd" clip-rule="evenodd" d="M8.44567 2.73145L6.7778 2.73145C5.95652 2.73144 5.30955 2.73144 4.78889 2.77398C4.25771 2.81738 3.81414 2.90753 3.41103 3.11292C2.75247 3.44848 2.21703 3.98391 1.88148 4.64248C1.67609 5.04558 1.58593 5.48916 1.54253 6.02034C1.49999 6.54099 1.5 7.18795 1.5 8.00921L1.5 16.2222C1.5 17.0435 1.49999 17.6905 1.54253 18.2111C1.58593 18.7423 1.67609 19.1859 1.88148 19.589C2.21703 20.2475 2.75247 20.783 3.41103 21.1185C3.81414 21.3239 4.25771 21.4141 4.78889 21.4575C5.30954 21.5 5.95652 21.5 6.77778 21.5H17.2222C18.0435 21.5 18.6905 21.5 19.2111 21.4575C19.7423 21.4141 20.1859 21.3239 20.589 21.1185C21.2475 20.783 21.783 20.2475 22.1185 19.589C22.3239 19.1859 22.4141 18.7423 22.4575 18.2111C22.5 17.6905 22.5 17.0435 22.5 16.2222V11.0092C22.5 10.188 22.5 9.54099 22.4575 9.02034C22.4141 8.48916 22.3239 8.04558 22.1185 7.64248C21.783 6.98391 21.2475 6.44848 20.589 6.11292C20.1859 5.90753 19.7423 5.81738 19.2111 5.77398C18.6905 5.73144 18.0435 5.73144 17.2222 5.73145H13.754C13.5588 5.73145 13.4834 5.7312 13.4148 5.72681C12.7252 5.68269 12.0934 5.3268 11.6983 4.75999C11.659 4.7036 11.6197 4.63923 11.5185 4.4723L11.5092 4.45701C11.4204 4.31033 11.3638 4.21692 11.3039 4.13104C10.7346 3.31443 9.82432 2.80169 8.83092 2.73812C8.72645 2.73143 8.61718 2.73144 8.44567 2.73145ZM8.42784 3.73145C8.62304 3.73145 8.69846 3.73169 8.76706 3.73608C9.45657 3.7802 10.0884 4.1361 10.4835 4.7029C10.5228 4.75929 10.5621 4.82366 10.6633 4.9906L10.6726 5.00588C10.7615 5.15257 10.8181 5.24597 10.8779 5.33185C11.4472 6.14846 12.3575 6.6612 13.3509 6.72477C13.4554 6.73146 13.5646 6.73145 13.7361 6.73145L17.2 6.73145C18.0483 6.73145 18.6545 6.73184 19.1297 6.77066C19.599 6.809 19.8963 6.88234 20.135 7.00393C20.6054 7.24361 20.9878 7.62606 21.2275 8.09647C21.3491 8.3351 21.4224 8.63243 21.4608 9.10177C21.4941 9.50894 21.4991 10.0123 21.4999 10.6818C21.1333 10.2639 20.5953 9.99999 19.9957 9.99999L4.00139 9.99999C3.40329 9.99999 2.86651 10.2625 2.5 10.6786V8.03145C2.5 7.18312 2.50039 6.57694 2.53921 6.10177C2.57756 5.63243 2.65089 5.3351 2.77248 5.09647C3.01217 4.62607 3.39462 4.24361 3.86502 4.00393C4.10366 3.88234 4.40099 3.809 4.87032 3.77066C5.3455 3.73184 5.95167 3.73145 6.8 3.73145L8.42784 3.73145Z" fill="black"/>
</svg>
