<svg width="24" height="24" viewBox="0 0 24 24" fill="none" xmlns="http://www.w3.org/2000/svg">
<path fill-rule="evenodd" clip-rule="evenodd" d="M1.00065 16.8088C0.999995 16.6278 0.999998 16.4387 1 16.2411L1 7.98991C0.999988 7.18495 0.999978 6.52057 1.0442 5.97938C1.09012 5.41728 1.18868 4.90058 1.43598 4.41524C1.81947 3.6626 2.43139 3.05067 3.18404 2.66718C3.66938 2.41989 4.18608 2.32132 4.74818 2.2754C5.28937 2.23118 5.95373 2.23119 6.7587 2.23121L8.45564 2.2312C8.61721 2.23118 8.74191 2.23116 8.86285 2.2389C10.0082 2.3122 11.0577 2.90336 11.7141 3.84487C11.7834 3.94428 11.848 4.05093 11.9317 4.1891L11.9461 4.2129C12.0507 4.38553 12.0805 4.43365 12.1085 4.47382C12.4165 4.91573 12.9091 5.19319 13.4467 5.2276C13.4956 5.23072 13.5521 5.23121 13.754 5.23121L17.2413 5.23121C18.0463 5.23119 18.7106 5.23118 19.2518 5.2754C19.8139 5.32133 20.3306 5.41989 20.816 5.66718C21.5686 6.05067 22.1805 6.6626 22.564 7.41524C22.8113 7.90058 22.9099 8.41728 22.9558 8.97938C23 9.52057 23 10.1849 23 10.9899L23 16.2411C23 16.6111 23 16.9515 22.9957 17.2638V17.9998C22.9957 18.555 22.8826 19.0838 22.6782 19.5643C22.6441 19.6491 22.6062 19.7329 22.564 19.8157C22.1805 20.5684 21.5686 21.1803 20.816 21.5638C20.7718 21.5863 20.7274 21.6075 20.6828 21.6276C20.1702 21.8664 19.5985 21.9998 18.9957 21.9998H17.3921C17.3424 21.9998 17.2922 21.9998 17.2413 21.9998H6.75868C6.70724 21.9998 6.65638 21.9998 6.60609 21.9998H5.00046C4.12133 21.9998 3.30844 21.7161 2.6483 21.2354C2.27543 20.9644 1.95188 20.6307 1.69233 20.2491C1.25559 19.608 1.00034 18.8334 1.00046 17.9991L1.00065 16.8088ZM8.42784 4.23121C8.62969 4.23121 8.68625 4.23169 8.73512 4.23482C9.2727 4.26922 9.76531 4.54669 10.0734 4.98859C10.1014 5.02876 10.1311 5.07688 10.2357 5.24951L10.2501 5.27331C10.3338 5.41148 10.3985 5.51813 10.4678 5.61754C11.1241 6.55905 12.1736 7.15022 13.319 7.22351C13.4399 7.23125 13.5646 7.23123 13.7261 7.23121L17.2 7.23121C18.0566 7.23121 18.6389 7.23198 19.089 7.26876C19.5274 7.30458 19.7516 7.3695 19.908 7.44919C20.2843 7.64094 20.5903 7.9469 20.782 8.32323C20.8617 8.47963 20.9266 8.70383 20.9625 9.14224C20.9629 9.14794 20.9634 9.15366 20.9638 9.15939C20.6601 9.0559 20.3345 8.99975 19.9957 8.99975L4.00139 8.99975C3.65023 8.99975 3.31317 9.06009 3 9.17095V8.03121C3 7.17463 3.00078 6.59233 3.03755 6.14224C3.07337 5.70383 3.1383 5.47962 3.21799 5.32323C3.40974 4.9469 3.7157 4.64094 4.09202 4.44919C4.24842 4.3695 4.47262 4.30458 4.91104 4.26876C5.36113 4.23198 5.94342 4.23121 6.8 4.23121H8.42784ZM3.00065 16.7795L3.00139 11.9996C3.00147 11.4474 3.44916 10.9998 4.00139 10.9998H19.9957C20.548 10.9998 20.9957 11.4475 20.9957 11.9998V17.2484C20.9912 17.5789 20.9818 17.8521 20.9624 18.0887C20.9346 18.4291 20.8893 18.6403 20.8331 18.791C20.6384 19.2424 20.2823 19.6078 19.8375 19.8145C19.6842 19.8792 19.4656 19.9314 19.089 19.9622C18.6589 19.9974 18.108 19.9996 17.3125 19.9998H6.6882C5.89229 19.9996 5.34127 19.9974 4.91104 19.9622C4.47262 19.9264 4.24842 19.8615 4.09202 19.7818C4.03627 19.7534 3.98206 19.7225 3.92954 19.6892C3.63282 19.5007 3.38914 19.2362 3.22589 18.9231C3.22323 18.918 3.2206 18.9129 3.21799 18.9077C3.1383 18.7513 3.07337 18.5271 3.03755 18.0887C3.00975 17.7484 3.00252 17.3325 3.00065 16.7795Z" fill="black"/>
</svg>
