<svg width="24" height="24" viewBox="0 0 24 24" fill="none" xmlns="http://www.w3.org/2000/svg">
<path d="M5.75 17C5.75 16.5858 5.41421 16.25 5 16.25C4.58579 16.25 4.25 16.5858 4.25 17V18.25H2.99964C2.58543 18.25 2.24964 18.5858 2.24964 19C2.24964 19.4142 2.58543 19.75 2.99964 19.75H4.25V20.9998C4.25 21.4141 4.58579 21.7498 5 21.7498C5.41421 21.7498 5.75 21.4141 5.75 20.9998V19.75H6.99951C7.41373 19.75 7.74951 19.4142 7.74951 19C7.74951 18.5858 7.41373 18.25 6.99951 18.25H5.75V17Z" fill="black"/>
<path fill-rule="evenodd" clip-rule="evenodd" d="M0.0512986 17.5148C0 17.8387 0 18.2258 0 19C0 19.7741 0 20.1612 0.0512986 20.4851C0.33368 22.268 1.73197 23.6663 3.51486 23.9487C3.83874 24 4.22583 24 5 24C5.77417 24 6.16126 24 6.48514 23.9487C8.26803 23.6663 9.66632 22.268 9.9487 20.4851C10 20.1612 10 19.7741 10 19C10 18.2258 10 17.8387 9.9487 17.5148C9.66632 15.7319 8.26803 14.3337 6.48514 14.0513C6.16126 14 5.77417 14 5 14C4.22583 14 3.83874 14 3.51486 14.0513C1.73197 14.3337 0.33368 15.7319 0.0512986 17.5148ZM3.74951 22.4671C3.9274 22.4953 4.16851 22.5 5 22.5C5.83149 22.5 6.0726 22.4953 6.25049 22.4671C7.39154 22.2864 8.28644 21.3915 8.46717 20.2505C8.49535 20.0726 8.5 19.8315 8.5 19C8.5 18.1685 8.49535 17.9274 8.46717 17.7495C8.28644 16.6084 7.39154 15.7135 6.25049 15.5328C6.0726 15.5046 5.83149 15.5 5 15.5C4.16851 15.5 3.9274 15.5046 3.74951 15.5328C2.60846 15.7135 1.71356 16.6084 1.53283 17.7495C1.50466 17.9274 1.5 18.1685 1.5 19C1.5 19.8315 1.50466 20.0726 1.53283 20.2505C1.71356 21.3915 2.60846 22.2864 3.74951 22.4671Z" fill="black"/>
<path fill-rule="evenodd" clip-rule="evenodd" d="M11.2143 21.75C11.288 21.5303 11.3483 21.3043 11.3943 21.073C11.4449 20.8186 11.4714 20.5481 11.4852 20.25H17.3294C18.1132 20.2498 18.6705 20.2475 19.1093 20.2116C19.504 20.1794 19.7527 20.1229 19.9407 20.0425C20.4434 19.8096 20.8456 19.3964 21.0645 18.886C21.1333 18.7047 21.1824 18.4669 21.2116 18.1093C21.2315 17.8658 21.2411 17.5857 21.2457 17.2507V12C21.2457 11.3096 20.6861 10.75 19.9957 10.75H4.00137C3.31109 10.75 2.75148 11.3095 2.75137 11.9998L2.75127 12.6436C2.2161 12.7682 1.71162 12.97 1.24998 13.2366L1.24998 7.99934C1.24998 7.18652 1.24997 6.53088 1.29335 5.99998C1.33801 5.45334 1.43237 4.9732 1.65871 4.52898C2.01824 3.82338 2.59191 3.2497 3.29752 2.89017C3.74174 2.66383 4.22188 2.56947 4.76852 2.52481C5.29943 2.48144 5.95504 2.48144 6.76788 2.48145L8.45131 2.48145C8.61728 2.48143 8.73419 2.48142 8.84687 2.48863C9.91625 2.55707 10.8962 3.10902 11.509 3.98808C11.5735 4.08069 11.6341 4.18067 11.7201 4.32258L11.7323 4.34272C11.8352 4.5125 11.8697 4.56875 11.9034 4.61703C12.2549 5.12138 12.8172 5.43806 13.4307 5.47733C13.4894 5.48109 13.5554 5.48145 13.754 5.48145L17.2321 5.48145C18.0449 5.48144 18.7005 5.48143 19.2315 5.52481C19.7781 5.56947 20.2582 5.66383 20.7024 5.89018C21.4081 6.2497 21.9817 6.82338 22.3413 7.52899C22.5676 7.9732 22.662 8.45334 22.7066 8.99998C22.75 9.53089 22.75 10.1865 22.75 10.9993V16.2321C22.75 16.6081 22.75 16.9503 22.7457 17.2622V18C22.7457 18.5202 22.6398 19.0157 22.4483 19.4661C22.4163 19.5461 22.3808 19.6248 22.3413 19.7025C21.9817 20.4081 21.4081 20.9818 20.7024 21.3413C20.6602 21.3628 20.6176 21.3832 20.5746 21.4024C20.0947 21.6255 19.5598 21.75 18.9957 21.75L11.2143 21.75ZM8.42782 3.98145C8.62635 3.98145 8.69234 3.98181 8.75107 3.98557C9.36462 4.02483 9.92685 4.34151 10.2784 4.84587C10.3121 4.89415 10.3466 4.95039 10.4495 5.12018L10.4617 5.14027C10.5477 5.28221 10.6083 5.38219 10.6728 5.47482C11.2856 6.35388 12.2655 6.90583 13.3349 6.97427C13.4476 6.98148 13.5645 6.98147 13.7304 6.98145H17.2C18.0524 6.98145 18.6467 6.98203 19.1093 7.01983C19.5632 7.05691 19.8239 7.12604 20.0215 7.22669C20.4448 7.4424 20.789 7.78661 21.0047 8.20997C21.1054 8.40749 21.1745 8.66825 21.2116 9.12213C21.2222 9.25171 21.2299 9.39161 21.2354 9.54462C20.8629 9.35617 20.4417 9.25 19.9957 9.25L4.00137 9.24999C3.55071 9.24999 3.12536 9.3584 2.74998 9.55056V8.03145C2.74998 7.17899 2.75057 6.58476 2.78837 6.12213C2.82545 5.66825 2.89458 5.40749 2.99522 5.20997C3.21094 4.78661 3.55514 4.4424 3.97851 4.22668C4.17602 4.12604 4.43679 4.05691 4.89066 4.01983C5.3533 3.98203 5.94753 3.98145 6.79999 3.98145L8.42782 3.98145Z" fill="black"/>
</svg>
