<svg width="24" height="24" viewBox="0 0 24 24" fill="none" xmlns="http://www.w3.org/2000/svg">
<path fill-rule="evenodd" clip-rule="evenodd" d="M0 19C-3.37851e-08 18.2258 -4.84288e-08 17.8387 0.0512988 17.5148C0.33368 15.7319 1.73197 14.3336 3.51486 14.0513C3.83874 14 4.22583 14 5 14C5.77417 14 6.16126 14 6.48514 14.0513C8.26803 14.3336 9.66632 15.7319 9.9487 17.5148C10 17.8387 10 18.2258 10 19C10 19.7741 10 20.1612 9.9487 20.4851C9.66632 22.268 8.26803 23.6663 6.48514 23.9487C6.16126 24 5.77417 24 5 24C4.22583 24 3.83874 24 3.51486 23.9487C1.73197 23.6663 0.33368 22.268 0.0512988 20.4851C4.84288e-08 20.1612 3.38951e-08 19.7741 0 19ZM5.25 17C5.25 16.8619 5.13807 16.75 5 16.75C4.86193 16.75 4.75 16.8619 4.75 17L4.75 18.75H2.99964C2.86157 18.75 2.74964 18.8619 2.74964 19C2.74964 19.138 2.86157 19.25 2.99964 19.25H4.75V20.9998C4.75 21.1379 4.86193 21.2498 5 21.2498C5.13807 21.2498 5.25 21.1379 5.25 20.9998V19.25H6.99951C7.13758 19.25 7.24951 19.138 7.24951 19C7.24951 18.8619 7.13758 18.75 6.99951 18.75L5.25 18.75L5.25 17Z" fill="black"/>
<path fill-rule="evenodd" clip-rule="evenodd" d="M10.4135 20.8779C10.4054 20.9188 10.3967 20.9595 10.3875 21L18.9957 21C19.4454 21 19.8719 20.9011 20.2547 20.7238C20.2911 20.7078 20.3269 20.6909 20.362 20.673C20.9265 20.3854 21.3854 19.9265 21.673 19.362C21.704 19.3012 21.732 19.2387 21.7574 19.1739C21.9108 18.8133 21.9957 18.4166 21.9957 18V17.2565C22 16.9454 22 16.596 22 16.2V11.0314C22 9.35129 22 8.51121 21.673 7.86947C21.3854 7.30499 20.9265 6.84605 20.362 6.55843C19.7202 6.23145 18.8802 6.23145 17.2 6.23145L13.754 6.23145C13.5654 6.23145 13.4712 6.23145 13.3828 6.22579C12.5414 6.17194 11.7703 5.73763 11.2881 5.04592C11.2375 4.97332 11.1886 4.8927 11.0909 4.73149C10.9932 4.57027 10.9443 4.48957 10.8937 4.41697C10.4115 3.72526 9.64045 3.29095 8.79899 3.2371C8.71066 3.23145 8.61638 3.23145 8.42784 3.23145L6.8 3.23145C5.11984 3.23145 4.27976 3.23145 3.63803 3.55843C3.07354 3.84605 2.6146 4.30499 2.32698 4.86947C2 5.51121 2 6.35129 2 8.03145L2 13.9686C2.35019 13.7949 2.72658 13.6651 3.1221 13.5864C3.5573 13.4999 4.06725 13.4999 4.92983 13.5H5.07017C5.93275 13.4999 6.44272 13.4999 6.87791 13.5864C8.66302 13.9415 10.0585 15.337 10.4135 17.1221C10.5001 17.5573 10.5001 18.0672 10.5 18.9298V19.0701C10.5001 19.9327 10.5001 20.4427 10.4135 20.8779ZM21.4999 10.6818C21.4991 10.0123 21.4941 9.50894 21.4608 9.10177C21.4224 8.63243 21.3491 8.3351 21.2275 8.09647C20.9878 7.62606 20.6054 7.24361 20.135 7.00393C19.8963 6.88234 19.599 6.809 19.1297 6.77066C18.6545 6.73184 18.0483 6.73145 17.2 6.73145L13.7361 6.73145C13.5646 6.73145 13.4554 6.73146 13.3509 6.72477C12.3575 6.6612 11.4472 6.14846 10.8779 5.33185C10.8181 5.24597 10.7615 5.15257 10.6726 5.00589L10.6633 4.9906C10.5621 4.82366 10.5228 4.75929 10.4835 4.7029C10.0884 4.13609 9.45657 3.7802 8.76705 3.73608C8.69845 3.73169 8.62304 3.73145 8.42784 3.73145L6.8 3.73145C5.95167 3.73145 5.3455 3.73183 4.87032 3.77066C4.40099 3.809 4.10366 3.88234 3.86502 4.00393C3.39462 4.24361 3.01217 4.62606 2.77248 5.09647C2.65089 5.3351 2.57756 5.63243 2.53921 6.10177C2.50039 6.57694 2.5 7.18312 2.5 8.03145V10.6787C2.86651 10.2625 3.40329 9.99999 4.00138 9.99999L19.9957 9.99999C20.5953 9.99999 21.1333 10.2639 21.4999 10.6818Z" fill="black"/>
</svg>
