<svg width="24" height="24" viewBox="0 0 24 24" fill="none" xmlns="http://www.w3.org/2000/svg">
<path fill-rule="evenodd" clip-rule="evenodd" d="M21.25 10.8227C22.4798 11.143 23.2465 12.4688 22.8004 13.7433L20.9348 19.0736C20.4786 20.3772 19.2483 21.25 17.8673 21.25H4.22912C4.00357 21.25 3.78484 21.2276 3.57458 21.1851C3.16708 21.1368 2.82979 21.0513 2.52453 20.8958C1.913 20.5842 1.41582 20.087 1.10423 19.4755C0.919789 19.1135 0.833839 18.7065 0.791703 18.1908C0.75 17.6803 0.75 17.0419 0.75 16.2115L0.75 8.01991C0.75 7.18959 0.75 6.55113 0.791703 6.04069C0.833839 5.52498 0.919789 5.11796 1.10423 4.75598C1.41582 4.14445 1.913 3.64726 2.52453 3.33567C2.88652 3.15123 3.29353 3.06528 3.80925 3.02315C4.31966 2.98145 4.95808 2.98145 5.78836 2.98145L7.43814 2.98145C7.61684 2.98144 7.71862 2.98144 7.81495 2.98761C8.73239 3.04632 9.57308 3.51985 10.0988 4.274C10.154 4.35321 10.2067 4.44016 10.2994 4.59306L10.3047 4.60187C10.4042 4.76596 10.4482 4.83846 10.4932 4.90296C10.9318 5.53221 11.6333 5.92732 12.3988 5.9763C12.4773 5.98132 12.5621 5.98145 12.754 5.98145H16.2115C17.0418 5.98145 17.6803 5.98144 18.1908 6.02315C18.7065 6.06528 19.1135 6.15123 19.4755 6.33567C20.087 6.64726 20.5842 7.14445 20.8958 7.75598C21.0802 8.11796 21.1662 8.52498 21.2083 9.04069C21.2466 9.50996 21.2497 10.0874 21.25 10.8227ZM7.78302 3.48659C7.70456 3.48157 7.61971 3.48145 7.42784 3.48145L5.8 3.48145C4.9558 3.48145 4.33768 3.48164 3.84996 3.52149C3.36517 3.5611 3.03128 3.63864 2.75153 3.78118C2.23408 4.04483 1.81338 4.46553 1.54973 4.98297C1.40719 5.26272 1.32965 5.59661 1.29004 6.08141C1.25019 6.56912 1.25 7.18724 1.25 8.03145V16.2C1.25 16.3662 1.25001 16.5236 1.25032 16.6729L2.56242 12.9259C3.01879 11.6226 4.24891 10.75 5.6298 10.75L20.6768 10.75C20.7013 10.75 20.7257 10.7504 20.7499 10.7511C20.7494 10.0479 20.7453 9.51347 20.71 9.08141C20.6703 8.59661 20.5928 8.26272 20.4503 7.98297C20.1866 7.46553 19.7659 7.04483 19.2485 6.78118C18.9687 6.63864 18.6348 6.5611 18.15 6.52149C17.6623 6.48164 17.0442 6.48145 16.2 6.48145H12.7437C12.5649 6.48145 12.4632 6.48145 12.3669 6.47528C11.4494 6.41657 10.6087 5.94304 10.083 5.18889C10.0278 5.10968 9.97512 5.02274 9.88245 4.86983L9.87711 4.86102C9.77766 4.69693 9.73358 4.62444 9.68862 4.55993C9.24997 3.93068 8.54851 3.53558 7.78302 3.48659ZM3.03432 13.0911C3.42049 11.9884 4.46135 11.25 5.6298 11.25H20.6768C21.8822 11.25 22.7267 12.4403 22.3285 13.5781L20.4629 18.9085C20.0768 20.0115 19.0359 20.75 17.8673 20.75H4.22912C2.33461 20.75 1.00753 18.8792 1.63365 17.0911L3.03432 13.0911Z" fill="black"/>
</svg>
