<svg width="24" height="24" viewBox="0 0 24 24" fill="none" xmlns="http://www.w3.org/2000/svg">
<path fill-rule="evenodd" clip-rule="evenodd" d="M8.87882 1.98941C8.74956 1.98114 8.61699 1.98117 8.45896 1.98121L6.75015 1.98121C5.95256 1.98119 5.27932 1.98118 4.72782 2.02623C4.15026 2.07342 3.597 2.17619 3.07054 2.44443C2.27085 2.85189 1.62069 3.50206 1.21322 4.30175C0.944984 4.8282 0.842215 5.38147 0.795027 5.95903C0.749967 6.51053 0.749983 7.18372 0.750001 7.98131L0.750001 16.2496C0.749983 17.0472 0.749967 17.7204 0.795027 18.2719C0.842215 18.8495 0.944984 19.4028 1.21323 19.9292C1.62069 20.7289 2.27085 21.3791 3.07054 21.7865C3.597 22.0548 4.15026 22.1576 4.72782 22.2047C5.27929 22.2498 5.95245 22.2498 6.74999 22.2498H17.2499C18.0474 22.2498 18.7207 22.2498 19.2722 22.2047C19.8497 22.1576 20.403 22.0548 20.9295 21.7865C21.7292 21.3791 22.3793 20.7289 22.7868 19.9292C23.055 19.4028 23.1578 18.8495 23.205 18.2719C23.25 17.7205 23.25 17.0473 23.25 16.2497L23.25 10.9813C23.25 10.1838 23.25 9.51052 23.205 8.95903C23.1578 8.38147 23.055 7.8282 22.7868 7.30175C22.3793 6.50206 21.7292 5.85189 20.9295 5.44443C20.403 5.17619 19.8497 5.07342 19.2722 5.02623C18.7207 4.98117 18.0475 4.98119 17.2499 4.98121H13.754C13.5488 4.98121 13.5017 4.9806 13.4627 4.97811C13.0011 4.94857 12.5781 4.71031 12.3136 4.33086C12.2912 4.2988 12.2663 4.2588 12.1599 4.08333L12.1438 4.05673C12.0619 3.92158 11.9932 3.80815 11.9192 3.70191C11.2193 2.69795 10.1001 2.06757 8.87882 1.98941ZM8.42784 4.48121C8.63302 4.48121 8.68015 4.48181 8.71916 4.48431C9.18076 4.51385 9.60376 4.75211 9.86827 5.13156C9.89062 5.16362 9.91557 5.20362 10.0219 5.37909L10.038 5.40569C10.1199 5.54086 10.1886 5.65425 10.2627 5.76051C10.9625 6.76447 12.0817 7.39485 13.303 7.47301C13.4322 7.48128 13.5648 7.48125 13.7228 7.48122L17.2 7.48121C18.0607 7.48121 18.6311 7.48218 19.0686 7.51793C19.4916 7.55249 19.6792 7.61321 19.7945 7.67195C20.1238 7.83973 20.3915 8.10744 20.5593 8.43673C20.6143 8.54465 20.671 8.71598 20.7064 9.08442C20.4785 9.02909 20.2406 8.99976 19.9957 8.99976H4.00139C3.74191 8.99976 3.49013 9.0327 3.25 9.09463V8.03121C3.25 7.17051 3.25097 6.60015 3.28672 6.16261C3.32128 5.73965 3.382 5.55201 3.44074 5.43673C3.60852 5.10744 3.87624 4.83973 4.20552 4.67195C4.3208 4.61321 4.50844 4.55249 4.9314 4.51793C5.36895 4.48218 5.9393 4.48121 6.8 4.48121L8.42784 4.48121ZM20.75 11.3432L20.75 16.1998C20.75 17.0605 20.749 17.6308 20.7133 18.0684C20.6787 18.4913 20.618 18.679 20.5593 18.7942C20.3915 19.1235 20.1238 19.3912 19.7945 19.559C19.6792 19.6178 19.4916 19.6785 19.0686 19.713C18.6311 19.7488 18.0607 19.7498 17.2 19.7498H6.8C5.9393 19.7498 5.36895 19.7488 4.9314 19.713C4.50844 19.6785 4.3208 19.6178 4.20552 19.559C3.87624 19.3912 3.60852 19.1235 3.44074 18.7942C3.382 18.679 3.32128 18.4913 3.28672 18.0684C3.25097 17.6308 3.25 17.0605 3.25 16.1998V11.3399C3.43327 11.1314 3.70196 10.9998 4.00139 10.9998H19.9957C20.2967 10.9998 20.5667 11.1328 20.75 11.3432Z" fill="black"/>
</svg>
