<svg width="24" height="24" viewBox="0 0 24 24" fill="none" xmlns="http://www.w3.org/2000/svg">
<path fill-rule="evenodd" clip-rule="evenodd" d="M21.9957 17.2562C22 16.9451 22 16.5958 22 16.1998V11.0312C22 9.35104 22 8.51096 21.673 7.86923C21.3854 7.30474 20.9265 6.8458 20.362 6.55818C19.7202 6.2312 18.8802 6.2312 17.2 6.2312L13.754 6.2312C13.5654 6.2312 13.4712 6.2312 13.3828 6.22555C12.5414 6.1717 11.7703 5.73738 11.2881 5.04568C11.2375 4.97307 11.1886 4.89246 11.0909 4.73124C10.9932 4.57002 10.9443 4.48933 10.8937 4.41673C10.4115 3.72502 9.64045 3.2907 8.79899 3.23685C8.71066 3.2312 8.61638 3.2312 8.42784 3.2312L6.8 3.2312C5.11984 3.2312 4.27976 3.2312 3.63803 3.55818C3.07354 3.8458 2.6146 4.30474 2.32698 4.86923C2 5.51097 2 6.35104 2 8.0312L2 16.1998C2 16.4107 2 16.6084 2.00065 16.7941L2.00046 17.9993C2.0003 19.0225 2.51241 19.9261 3.29435 20.4677C3.77873 20.8032 4.36664 20.9997 5.00046 20.9997H6.65357C6.70166 20.9998 6.75046 20.9998 6.8 20.9998H17.2C17.2486 20.9998 17.2965 20.9998 17.3437 20.9997H18.9957C19.4454 20.9997 19.8719 20.9008 20.2547 20.7236C20.2911 20.7076 20.3269 20.6907 20.362 20.6728C20.9265 20.3852 21.3854 19.9262 21.673 19.3617C21.704 19.301 21.732 19.2385 21.7574 19.1736C21.9108 18.8131 21.9957 18.4163 21.9957 17.9997V17.2562ZM21.4957 17.2524V11.9997C21.4957 11.1713 20.8241 10.4997 19.9957 10.4997L4.00138 10.4997C3.17305 10.4997 2.50151 11.1712 2.50138 11.9995L2.50065 16.7868C2.50255 17.3401 2.51 17.7719 2.53921 18.1294C2.57756 18.5988 2.65089 18.8961 2.77248 19.1347C2.79438 19.1777 2.81747 19.22 2.84171 19.2614C3.03381 19.5894 3.2985 19.8697 3.61374 20.0802C3.69427 20.1339 3.77815 20.183 3.86502 20.2273C4.10366 20.3489 4.40099 20.4222 4.87032 20.4605C5.32069 20.4973 5.88873 20.4996 6.66909 20.4997H17.3309C18.1113 20.4996 18.6793 20.4973 19.1297 20.4605C19.5417 20.4269 19.8212 20.3663 20.0447 20.2697C20.6048 20.0104 21.0527 19.55 21.2957 18.9812C21.3774 18.7683 21.4302 18.5035 21.4608 18.1294C21.4813 17.8789 21.491 17.592 21.4957 17.2524ZM21.4608 9.10152C21.4941 9.5087 21.4991 10.0121 21.4999 10.6815C21.1333 10.2636 20.5953 9.99975 19.9957 9.99975L4.00138 9.99975C3.40329 9.99975 2.86651 10.2623 2.5 10.6784V8.0312C2.5 7.18287 2.50039 6.5767 2.53921 6.10152C2.57756 5.63219 2.65089 5.33486 2.77248 5.09623C3.01217 4.62582 3.39462 4.24337 3.86502 4.00369C4.10366 3.8821 4.40099 3.80876 4.87032 3.77041C5.34549 3.73159 5.95167 3.7312 6.8 3.7312L8.42784 3.7312C8.62304 3.7312 8.69846 3.73144 8.76706 3.73583C9.45657 3.77996 10.0884 4.13585 10.4835 4.70266C10.5228 4.75905 10.5621 4.82342 10.6633 4.99035L10.6726 5.00563C10.7615 5.15232 10.8181 5.24572 10.8779 5.33161C11.4472 6.14822 12.3575 6.66096 13.3509 6.72453C13.4554 6.73121 13.5646 6.73121 13.7361 6.7312L17.2 6.7312C18.0483 6.7312 18.6545 6.73159 19.1297 6.77041C19.599 6.80876 19.8963 6.88209 20.135 7.00369C20.6054 7.24337 20.9878 7.62582 21.2275 8.09623C21.3491 8.33486 21.4224 8.63219 21.4608 9.10152Z" fill="black"/>
</svg>
