<svg width="24" height="24" viewBox="0 0 24 24" fill="none" xmlns="http://www.w3.org/2000/svg">
<g opacity="0.1">
<path d="M4.8877 10.0828L4.8877 3.14165L6.11218 1.91716L7.33668 3.14166L7.33668 10.0828L6.11218 11.3073L4.8877 10.0828Z" fill="black"/>
<path d="M4.8877 20.8583L4.8877 13.9172L6.11218 12.6927L7.33668 13.9172L7.33668 20.8583L6.11219 22.0828L4.8877 20.8583Z" fill="black"/>
<path d="M14.9705 24H8.02936L6.80487 22.7755L8.02935 21.551H14.9705L16.195 22.7755L14.9705 24Z" fill="black"/>
<path d="M18.1122 13.9172L18.1122 20.8583L16.8877 22.0828L15.6632 20.8583V13.9172L16.8877 12.6927L18.1122 13.9172Z" fill="black"/>
<path d="M18.1122 3.14166L18.1122 10.0828L16.8877 11.3073L15.6632 10.0828L15.6632 3.14165L16.8877 1.91716L18.1122 3.14166Z" fill="black"/>
<path d="M14.9705 1.07048e-07L8.02935 4.10457e-07L6.80486 1.22449L8.02935 2.44898L14.9705 2.44898L16.195 1.22449L14.9705 1.07048e-07Z" fill="black"/>
<path d="M8.02935 10.7755L14.9705 10.7755L16.195 12L14.9705 13.2245H8.02935L6.80486 12L8.02935 10.7755Z" fill="black"/>
</g>
<path d="M14.9706 24H8.02944L6.80494 22.7755L8.02942 21.551H14.9706L16.1951 22.7755L14.9706 24Z" fill="black"/>
<path d="M18.1123 13.9172L18.1123 20.8583L16.8878 22.0828L15.6633 20.8583V13.9172L16.8878 12.6927L18.1123 13.9172Z" fill="black"/>
<path d="M18.1123 3.14166L18.1123 10.0828L16.8878 11.3073L15.6633 10.0828L15.6633 3.14165L16.8878 1.91716L18.1123 3.14166Z" fill="black"/>
<path d="M14.9706 0L8.02942 3.03409e-07L6.80493 1.22449L8.02942 2.44898L14.9706 2.44898L16.1951 1.22449L14.9706 0Z" fill="black"/>
<path d="M8.02942 10.7755L14.9706 10.7755L16.1951 12L14.9706 13.2245H8.02942L6.80493 12L8.02942 10.7755Z" fill="black"/>
</svg>
