<svg width="24" height="24" viewBox="0 0 24 24" fill="none" xmlns="http://www.w3.org/2000/svg">
<g opacity="0.1">
<path d="M15.9393 0.646444C15.8456 0.552678 15.7184 0.5 15.5858 0.5L7.4142 0.5C7.28159 0.5 7.15442 0.552678 7.06065 0.646445V0.646445C6.86539 0.841704 6.8654 1.15829 7.06066 1.35355V1.35355C7.15443 1.44732 7.28161 1.5 7.41422 1.5L15.5858 1.5C15.7184 1.5 15.8456 1.44732 15.9393 1.35355V1.35355C16.1346 1.15829 16.1346 0.841704 15.9393 0.646444V0.646444Z" fill="black"/>
<path d="M17.5 2.41421C17.5 2.2816 17.4473 2.15442 17.3535 2.06065V2.06065C17.1583 1.8654 16.8417 1.86539 16.6464 2.06065V2.06065C16.5527 2.15442 16.5 2.28159 16.5 2.4142V10.5858C16.5 10.7184 16.5527 10.8456 16.6464 10.9393V10.9393C16.8417 11.1346 17.1583 11.1346 17.3536 10.9393V10.9393C17.4473 10.8456 17.5 10.7184 17.5 10.5858V2.41421Z" fill="black"/>
<path d="M17.5 13.4142C17.5 13.2816 17.4473 13.1544 17.3535 13.0607V13.0607C17.1583 12.8654 16.8417 12.8654 16.6464 13.0606V13.0606C16.5527 13.1544 16.5 13.2816 16.5 13.4142V21.5858C16.5 21.7184 16.5527 21.8456 16.6464 21.9393V21.9393C16.8417 22.1346 17.1583 22.1346 17.3535 21.9393V21.9393C17.4473 21.8456 17.5 21.7184 17.5 21.5858V13.4142Z" fill="black"/>
<path d="M7.06067 23.3535C7.15444 23.4473 7.28162 23.5 7.41424 23.5H15.5858C15.7184 23.5 15.8455 23.4473 15.9393 23.3535V23.3535C16.1346 23.1583 16.1346 22.8417 15.9393 22.6464V22.6464C15.8456 22.5527 15.7184 22.5 15.5858 22.5H7.4142C7.28159 22.5 7.15442 22.5527 7.06065 22.6464V22.6464C6.8654 22.8417 6.86541 23.1583 7.06067 23.3535V23.3535Z" fill="black"/>
<path d="M5.5 21.5858C5.5 21.7184 5.55268 21.8456 5.64645 21.9393V21.9393C5.84171 22.1346 6.15829 22.1346 6.35355 21.9393V21.9393C6.44732 21.8456 6.5 21.7184 6.5 21.5858V13.4142C6.5 13.2816 6.44732 13.1544 6.35355 13.0607V13.0607C6.15829 12.8654 5.84171 12.8654 5.64645 13.0607V13.0607C5.55268 13.1544 5.5 13.2816 5.5 13.4142L5.5 21.5858Z" fill="black"/>
<path d="M5.5 10.5858C5.5 10.7184 5.55268 10.8456 5.64644 10.9393V10.9393C5.8417 11.1346 6.15829 11.1346 6.35355 10.9393V10.9393C6.44732 10.8456 6.5 10.7184 6.5 10.5858V2.41422C6.5 2.28161 6.44732 2.15442 6.35355 2.06066V2.06066C6.15829 1.8654 5.84171 1.86539 5.64645 2.06065V2.06065C5.55268 2.15442 5.5 2.28159 5.5 2.4142L5.5 10.5858Z" fill="black"/>
<path d="M15.9393 11.6464C15.8456 11.5527 15.7184 11.5 15.5858 11.5L7.4142 11.5C7.28159 11.5 7.15442 11.5527 7.06065 11.6464V11.6464C6.86539 11.8417 6.8654 12.1583 7.06066 12.3535V12.3535C7.15443 12.4473 7.28161 12.5 7.41422 12.5L15.5858 12.5C15.7184 12.5 15.8456 12.4473 15.9393 12.3535V12.3535C16.1346 12.1583 16.1346 11.8417 15.9393 11.6464V11.6464Z" fill="black"/>
</g>
<path d="M15.9393 0.646444C15.8456 0.552678 15.7184 0.5 15.5858 0.5L7.41419 0.5C7.28158 0.5 7.15441 0.552678 7.06064 0.646445V0.646445C6.86538 0.841704 6.86539 1.15829 7.06065 1.35355V1.35355C7.15442 1.44732 7.2816 1.5 7.41421 1.5L15.5858 1.5C15.7184 1.5 15.8456 1.44732 15.9393 1.35355V1.35355C16.1346 1.15829 16.1346 0.841704 15.9393 0.646444V0.646444Z" fill="black"/>
<path d="M17.5 2.41421C17.5 2.2816 17.4473 2.15442 17.3535 2.06065V2.06065C17.1583 1.8654 16.8417 1.86539 16.6464 2.06065V2.06065C16.5527 2.15442 16.5 2.28159 16.5 2.4142V10.5858C16.5 10.7184 16.5527 10.8456 16.6464 10.9393V10.9393C16.8417 11.1346 17.1583 11.1346 17.3535 10.9393V10.9393C17.4473 10.8456 17.5 10.7184 17.5 10.5858V2.41421Z" fill="black"/>
<path d="M17.5 13.4142C17.5 13.2816 17.4473 13.1544 17.3535 13.0607V13.0607C17.1583 12.8654 16.8417 12.8654 16.6464 13.0606V13.0606C16.5527 13.1544 16.5 13.2816 16.5 13.4142V21.5858C16.5 21.7184 16.5527 21.8456 16.6464 21.9393V21.9393C16.8417 22.1346 17.1583 22.1346 17.3535 21.9393V21.9393C17.4473 21.8456 17.5 21.7184 17.5 21.5858V13.4142Z" fill="black"/>
<path d="M7.06066 23.3535C7.15443 23.4473 7.28162 23.5 7.41423 23.5H15.5857C15.7184 23.5 15.8455 23.4473 15.9393 23.3535V23.3535C16.1346 23.1583 16.1346 22.8417 15.9393 22.6464V22.6464C15.8456 22.5527 15.7184 22.5 15.5858 22.5H7.41419C7.28158 22.5 7.15441 22.5527 7.06064 22.6464V22.6464C6.86539 22.8417 6.8654 23.1583 7.06066 23.3535V23.3535Z" fill="black"/>
<path d="M15.9393 11.6464C15.8456 11.5527 15.7184 11.5 15.5858 11.5L7.41419 11.5C7.28158 11.5 7.15441 11.5527 7.06064 11.6464V11.6464C6.86538 11.8417 6.86539 12.1583 7.06065 12.3535V12.3535C7.15442 12.4473 7.2816 12.5 7.41421 12.5L15.5858 12.5C15.7184 12.5 15.8456 12.4473 15.9393 12.3535V12.3535C16.1346 12.1583 16.1346 11.8417 15.9393 11.6464V11.6464Z" fill="black"/>
</svg>
