<svg width="24" height="24" viewBox="0 0 24 24" fill="none" xmlns="http://www.w3.org/2000/svg">
<g opacity="0.1">
<path d="M5.24634 10.4415C5.0167 10.2118 4.8877 9.90039 4.8877 9.57564L4.8877 3.64885C4.8877 3.3241 5.0167 3.01264 5.24634 2.78301V2.78301C5.72453 2.30482 6.49984 2.30482 6.97803 2.78301V2.78301C7.20767 3.01265 7.33668 3.3241 7.33668 3.64886L7.33668 9.57562C7.33668 9.90038 7.20767 10.2118 6.97803 10.4415V10.4415C6.49984 10.9197 5.72453 10.9197 5.24634 10.4415V10.4415Z" fill="black"/>
<path d="M5.24634 21.217C5.01671 20.9873 4.8877 20.6759 4.8877 20.3511L4.8877 14.4244C4.8877 14.0996 5.0167 13.7882 5.24634 13.5585V13.5585C5.72453 13.0803 6.49984 13.0803 6.97803 13.5585V13.5585C7.20767 13.7882 7.33668 14.0996 7.33668 14.4244L7.33668 20.3511C7.33668 20.6759 7.20767 20.9873 6.97803 21.217V21.217C6.49984 21.6952 5.72453 21.6952 5.24634 21.217V21.217Z" fill="black"/>
<path d="M15.3292 23.6413C15.0995 23.871 14.7881 24 14.4633 24H8.53657C8.21181 24 7.90035 23.871 7.67071 23.6413V23.6413C7.19252 23.1632 7.19251 22.3879 7.6707 21.9097V21.9097C7.90034 21.68 8.21179 21.551 8.53654 21.551H14.4633C14.7881 21.551 15.0995 21.68 15.3292 21.9097V21.9097C15.8074 22.3879 15.8073 23.1632 15.3292 23.6413V23.6413Z" fill="black"/>
<path d="M17.7535 13.5585C17.9832 13.7882 18.1122 14.0996 18.1122 14.4244L18.1122 20.3511C18.1122 20.6759 17.9832 20.9873 17.7535 21.217V21.217C17.2753 21.6952 16.5 21.6952 16.0218 21.217V21.217C15.7922 20.9874 15.6632 20.6759 15.6632 20.3511V14.4244C15.6632 14.0996 15.7922 13.7882 16.0218 13.5585V13.5585C16.5 13.0803 17.2753 13.0803 17.7535 13.5585V13.5585Z" fill="black"/>
<path d="M17.7535 2.78301C17.9832 3.01265 18.1122 3.3241 18.1122 3.64886L18.1122 9.57563C18.1122 9.90038 17.9832 10.2118 17.7535 10.4415V10.4415C17.2753 10.9197 16.5 10.9197 16.0219 10.4415V10.4415C15.7922 10.2118 15.6632 9.90039 15.6632 9.57564L15.6632 3.64885C15.6632 3.32409 15.7922 3.01264 16.0218 2.783V2.783C16.5 2.30481 17.2753 2.30482 17.7535 2.78301V2.78301Z" fill="black"/>
<path d="M15.3292 0.358644C15.0995 0.129008 14.7881 1.15023e-07 14.4633 1.29218e-07L8.53655 3.88286e-07C8.21179 4.02482e-07 7.90034 0.129009 7.6707 0.358644V0.358644C7.19251 0.836836 7.19251 1.61214 7.6707 2.09033V2.09033C7.90034 2.31997 8.2118 2.44898 8.53655 2.44898L14.4633 2.44898C14.7881 2.44898 15.0995 2.31997 15.3292 2.09033V2.09033C15.8074 1.61214 15.8074 0.836836 15.3292 0.358644V0.358644Z" fill="black"/>
<path d="M7.6707 11.1342C7.90034 10.9045 8.21179 10.7755 8.53655 10.7755L14.4633 10.7755C14.7881 10.7755 15.0995 10.9045 15.3292 11.1342V11.1342C15.8074 11.6123 15.8074 12.3877 15.3292 12.8658V12.8658C15.0995 13.0955 14.7881 13.2245 14.4633 13.2245H8.53655C8.2118 13.2245 7.90034 13.0955 7.6707 12.8658V12.8658C7.19251 12.3877 7.19251 11.6123 7.6707 11.1342V11.1342Z" fill="black"/>
</g>
<path d="M15.3292 23.6413C15.0996 23.871 14.7881 24 14.4634 24H8.53664C8.21188 24 7.90043 23.871 7.67079 23.6413V23.6413C7.1926 23.1632 7.19259 22.3879 7.67078 21.9097V21.9097C7.90041 21.68 8.21186 21.551 8.53662 21.551H14.4634C14.7882 21.551 15.0996 21.68 15.3292 21.9097V21.9097C15.8074 22.3879 15.8074 23.1632 15.3292 23.6413V23.6413Z" fill="black"/>
<path d="M17.7536 13.5585C17.9832 13.7882 18.1123 14.0996 18.1123 14.4244L18.1123 20.3511C18.1123 20.6759 17.9832 20.9873 17.7536 21.217V21.217C17.2754 21.6952 16.5001 21.6952 16.0219 21.217V21.217C15.7923 20.9874 15.6633 20.6759 15.6633 20.3511V14.4244C15.6633 14.0996 15.7923 13.7882 16.0219 13.5585V13.5585C16.5001 13.0803 17.2754 13.0803 17.7536 13.5585V13.5585Z" fill="black"/>
<path d="M17.7536 2.78301C17.9832 3.01265 18.1123 3.3241 18.1123 3.64886L18.1123 9.57563C18.1123 9.90038 17.9832 10.2118 17.7536 10.4415V10.4415C17.2754 10.9197 16.5001 10.9197 16.0219 10.4415V10.4415C15.7923 10.2118 15.6633 9.90039 15.6633 9.57564L15.6633 3.64885C15.6633 3.32409 15.7923 3.01264 16.0219 2.783V2.783C16.5001 2.30481 17.2754 2.30482 17.7536 2.78301V2.78301Z" fill="black"/>
<path d="M15.3292 0.358644C15.0996 0.129008 14.7882 7.97493e-09 14.4634 2.21704e-08L8.53662 2.81238e-07C8.21187 2.95434e-07 7.90041 0.129008 7.67078 0.358644V0.358644C7.19258 0.836836 7.19259 1.61214 7.67078 2.09033V2.09033C7.90041 2.31997 8.21187 2.44898 8.53662 2.44898L14.4634 2.44898C14.7881 2.44898 15.0996 2.31997 15.3292 2.09033V2.09033C15.8074 1.61214 15.8074 0.836836 15.3292 0.358644V0.358644Z" fill="black"/>
<path d="M7.67078 11.1342C7.90041 10.9045 8.21186 10.7755 8.53662 10.7755L14.4634 10.7755C14.7882 10.7755 15.0996 10.9045 15.3292 11.1342V11.1342C15.8074 11.6123 15.8074 12.3877 15.3292 12.8658V12.8658C15.0996 13.0955 14.7882 13.2245 14.4634 13.2245H8.53663C8.21187 13.2245 7.90041 13.0955 7.67078 12.8658V12.8658C7.19259 12.3877 7.19258 11.6123 7.67078 11.1342V11.1342Z" fill="black"/>
</svg>
