<svg width="24" height="24" viewBox="0 0 24 24" fill="none" xmlns="http://www.w3.org/2000/svg">
<g opacity="0.1">
<path d="M15.7626 0.469668C15.6219 0.329017 15.4311 0.25 15.2322 0.25L7.76775 0.25C7.56884 0.25 7.37808 0.329017 7.23743 0.469668V0.469668C6.94454 0.762558 6.94455 1.23743 7.23744 1.53033V1.53033C7.37809 1.67098 7.56886 1.75 7.76777 1.75L15.2322 1.75C15.4311 1.75 15.6219 1.67098 15.7626 1.53032V1.53032C16.0554 1.23743 16.0555 0.762558 15.7626 0.469668V0.469668Z" fill="black"/>
<path d="M17.75 2.76777C17.75 2.56885 17.671 2.37809 17.5303 2.23743V2.23743C17.2374 1.94454 16.7626 1.94453 16.4697 2.23743V2.23743C16.329 2.37808 16.25 2.56884 16.25 2.76775V10.2322C16.25 10.4311 16.329 10.6219 16.4697 10.7626V10.7626C16.7626 11.0555 17.2374 11.0554 17.5303 10.7626V10.7626C17.671 10.6219 17.75 10.4311 17.75 10.2322V2.76777Z" fill="black"/>
<path d="M17.75 13.7678C17.75 13.5689 17.671 13.3781 17.5303 13.2374V13.2374C17.2374 12.9445 16.7626 12.9445 16.4697 13.2374V13.2374C16.329 13.3781 16.25 13.5688 16.25 13.7678V21.2322C16.25 21.4311 16.329 21.6219 16.4697 21.7626V21.7626C16.7626 22.0554 17.2374 22.0554 17.5303 21.7625V21.7625C17.671 21.6219 17.75 21.4311 17.75 21.2322V13.7678Z" fill="black"/>
<path d="M7.23744 23.5303C7.3781 23.671 7.56887 23.75 7.76779 23.75H15.2322C15.4311 23.75 15.6219 23.671 15.7625 23.5303V23.5303C16.0554 23.2374 16.0554 22.7626 15.7626 22.4697V22.4697C15.6219 22.329 15.4311 22.25 15.2322 22.25H7.76775C7.56884 22.25 7.37808 22.329 7.23743 22.4697V22.4697C6.94454 22.7626 6.94456 23.2374 7.23744 23.5303V23.5303Z" fill="black"/>
<path d="M5.25 21.2322C5.25 21.4311 5.32902 21.6219 5.46967 21.7625V21.7625C5.76256 22.0554 6.23744 22.0554 6.53033 21.7625V21.7625C6.67098 21.6219 6.75 21.4311 6.75 21.2322V13.7678C6.75 13.5689 6.67098 13.3781 6.53033 13.2374V13.2374C6.23744 12.9445 5.76256 12.9445 5.46967 13.2374V13.2374C5.32902 13.3781 5.25 13.5688 5.25 13.7678L5.25 21.2322Z" fill="black"/>
<path d="M5.25 10.2322C5.25 10.4311 5.32902 10.6219 5.46967 10.7626V10.7626C5.76256 11.0555 6.23744 11.0554 6.53033 10.7626V10.7626C6.67098 10.6219 6.75 10.4311 6.75 10.2322V2.76777C6.75 2.56885 6.67098 2.37809 6.53033 2.23743V2.23743C6.23744 1.94454 5.76256 1.94454 5.46967 2.23743V2.23743C5.32902 2.37808 5.25 2.56884 5.25 2.76775L5.25 10.2322Z" fill="black"/>
<path d="M15.7626 11.4697C15.6219 11.329 15.4311 11.25 15.2322 11.25L7.76775 11.25C7.56884 11.25 7.37808 11.329 7.23743 11.4697V11.4697C6.94454 11.7626 6.94454 12.2374 7.23743 12.5303V12.5303C7.37809 12.671 7.56886 12.75 7.76777 12.75L15.2322 12.75C15.4311 12.75 15.6219 12.671 15.7626 12.5303V12.5303C16.0554 12.2374 16.0555 11.7626 15.7626 11.4697V11.4697Z" fill="black"/>
</g>
<path d="M15.7626 0.469668C15.6219 0.329017 15.4311 0.25 15.2322 0.25L7.76775 0.25C7.56884 0.25 7.37808 0.329017 7.23743 0.469668V0.469668C6.94454 0.762558 6.94455 1.23743 7.23744 1.53033V1.53033C7.37809 1.67098 7.56886 1.75 7.76777 1.75L15.2322 1.75C15.4311 1.75 15.6219 1.67098 15.7626 1.53032V1.53032C16.0554 1.23743 16.0555 0.762558 15.7626 0.469668V0.469668Z" fill="black"/>
<path d="M17.75 13.7678C17.75 13.5689 17.671 13.3781 17.5303 13.2374V13.2374C17.2374 12.9445 16.7626 12.9445 16.4697 13.2374V13.2374C16.329 13.3781 16.25 13.5688 16.25 13.7678V21.2322C16.25 21.4311 16.329 21.6219 16.4697 21.7626V21.7626C16.7626 22.0554 17.2374 22.0554 17.5303 21.7625V21.7625C17.671 21.6219 17.75 21.4311 17.75 21.2322V13.7678Z" fill="black"/>
<path d="M7.23744 23.5303C7.3781 23.671 7.56887 23.75 7.76779 23.75H15.2322C15.4311 23.75 15.6219 23.671 15.7625 23.5303V23.5303C16.0554 23.2374 16.0554 22.7626 15.7626 22.4697V22.4697C15.6219 22.329 15.4311 22.25 15.2322 22.25H7.76775C7.56884 22.25 7.37808 22.329 7.23743 22.4697V22.4697C6.94454 22.7626 6.94456 23.2374 7.23744 23.5303V23.5303Z" fill="black"/>
<path d="M5.25 21.2322C5.25 21.4311 5.32902 21.6219 5.46967 21.7625V21.7625C5.76256 22.0554 6.23744 22.0554 6.53033 21.7625V21.7625C6.67098 21.6219 6.75 21.4311 6.75 21.2322V13.7678C6.75 13.5689 6.67098 13.3781 6.53033 13.2374V13.2374C6.23744 12.9445 5.76256 12.9445 5.46967 13.2374V13.2374C5.32902 13.3781 5.25 13.5688 5.25 13.7678L5.25 21.2322Z" fill="black"/>
<path d="M5.25 10.2322C5.25 10.4311 5.32902 10.6219 5.46967 10.7626V10.7626C5.76256 11.0555 6.23744 11.0554 6.53033 10.7626V10.7626C6.67098 10.6219 6.75 10.4311 6.75 10.2322V2.76777C6.75 2.56885 6.67098 2.37809 6.53033 2.23743V2.23743C6.23744 1.94454 5.76256 1.94454 5.46967 2.23743V2.23743C5.32902 2.37808 5.25 2.56884 5.25 2.76775L5.25 10.2322Z" fill="black"/>
<path d="M15.7626 11.4697C15.6219 11.329 15.4311 11.25 15.2322 11.25L7.76775 11.25C7.56884 11.25 7.37808 11.329 7.23743 11.4697V11.4697C6.94454 11.7626 6.94454 12.2374 7.23743 12.5303V12.5303C7.37809 12.671 7.56886 12.75 7.76777 12.75L15.2322 12.75C15.4311 12.75 15.6219 12.671 15.7626 12.5303V12.5303C16.0554 12.2374 16.0555 11.7626 15.7626 11.4697V11.4697Z" fill="black"/>
</svg>
