<svg width="24" height="24" viewBox="0 0 24 24" fill="none" xmlns="http://www.w3.org/2000/svg">
<g opacity="0.1">
<path d="M15.2929 0L7.7071 3.31586e-07L6.7071 0.999993L7.70711 2L15.2929 2L16.2929 0.999992L15.2929 0Z" fill="black"/>
<path d="M18 2.70711L17 1.7071L16 2.70709V10.2929L17 11.2929L18 10.2929V2.70711Z" fill="black"/>
<path d="M18 13.7071L17 12.7071L16 13.7071V21.2929L17 22.2929L18 21.2929V13.7071Z" fill="black"/>
<path d="M7.70712 24H15.2929L16.2929 23L15.2929 22H7.70709L6.70711 23L7.70712 24Z" fill="black"/>
<path d="M5 21.2929L6 22.2929L7 21.2929L7 13.7071L6 12.7071L5 13.7071L5 21.2929Z" fill="black"/>
<path d="M5 10.2929L5.99999 11.2929L7 10.2929L7 2.70711L6 1.7071L5 2.7071L5 10.2929Z" fill="black"/>
<path d="M15.2929 11L7.7071 11L6.7071 12L7.70711 13L15.2929 13L16.2929 12L15.2929 11Z" fill="black"/>
</g>
<path d="M15.2929 0L7.70715 3.31586e-07L6.70715 0.999993L7.70716 2L15.2929 2L16.2929 0.999992L15.2929 0Z" fill="black"/>
<path d="M18.0001 2.70711L17 1.7071L16.0001 2.70709V10.2929L17 11.2929L18.0001 10.2929V2.70711Z" fill="black"/>
<path d="M18.0001 13.7071L17 12.7071L16.0001 13.7071V21.2929L17 22.2929L18.0001 21.2929V13.7071Z" fill="black"/>
</svg>
