<svg width="24" height="24" viewBox="0 0 24 24" fill="none" xmlns="http://www.w3.org/2000/svg">
<path fill-rule="evenodd" clip-rule="evenodd" d="M0.478388 8.63438C0.223647 9.50797 0.0648213 10.423 0.015749 11.3666C0.00483436 11.5764 -9.29011e-09 11.7875 0 12C9.10637e-08 14.0833 0.530879 16.0426 1.46474 17.75C1.96335 18.6616 2.57616 19.5015 3.28507 20.25C4.6268 21.6667 6.311 22.7565 8.2043 23.3873C9.25558 23.7375 10.3717 23.9464 11.5297 23.991C11.6857 23.997 11.8425 24 12 24C18.6274 24 24 18.6274 24 12C24 5.37258 18.6274 -2.89694e-07 12 0C9.97287 8.86086e-08 8.06314 0.50264 6.38864 1.39009C5.56 1.82918 4.78891 2.36218 4.08974 2.97546C2.39699 4.46046 1.12571 6.41468 0.478388 8.63438ZM14.9947 21.0184C14.0532 21.3308 13.0464 21.5 12 21.5C11.6941 21.5 11.3915 21.4855 11.093 21.4573L12.2383 20.8028C13.1523 20.9361 14.0731 21.008 14.9947 21.0184ZM21.3523 10.3221C21.1287 9.06772 20.659 7.89856 19.9949 6.86637L19.8148 8.12667L20.0203 8.37319C20.5272 8.98152 20.9727 9.6344 21.3523 10.3221ZM12.8023 2.5334C12.5378 2.51128 12.2702 2.5 12 2.5C10.4848 2.5 9.05248 2.85472 7.7815 3.48565C8.91143 3.46121 10.0431 3.52908 11.1652 3.68938L11.1815 3.69171L12.8023 2.5334ZM3.2082 15.6058C2.75171 14.4939 2.5 13.2764 2.5 12C2.5 11.5372 2.53309 11.0822 2.59704 10.6371L2.8063 11.3695L3.683 13.9996L3.46431 14.6544C3.35983 14.9673 3.27444 15.285 3.2082 15.6058ZM4.44095 7.99062L5.19519 10.6305L5.96282 12.9334L8.90088 13.5866L12.0458 8.47607L10.7186 6.1512C9.04379 5.92074 7.34566 5.92413 5.67288 6.16082L5.34283 6.57337L4.44095 7.99062ZM12.7933 18.3563L10.9467 15.0323L14.1973 9.75H17.9133L18.0997 9.97365C19.134 11.2148 19.848 12.6881 20.1825 14.2642L17.7331 18.3465C16.0939 18.5742 14.432 18.5772 12.7933 18.3563ZM5.63779 18.3618C5.4554 17.3972 5.52049 16.4002 5.82945 15.4648L8.67899 16.0983L10.3063 19.0274L8.40268 20.1152C7.38226 19.704 6.44445 19.1086 5.63779 18.3618ZM17.4147 7.25L17.6463 5.62874L15.0453 4.00315L13.146 5.36061L14.2245 7.25H17.4147Z" fill="black"/>
</svg>
