<svg width="24" height="24" viewBox="0 0 24 24" fill="none" xmlns="http://www.w3.org/2000/svg">
<path fill-rule="evenodd" clip-rule="evenodd" d="M6.38863 1.39009C2.76376 3.31092 0.24102 7.0346 0.0157411 11.3666C0.00482636 11.5764 -9.29015e-09 11.7875 0 12C9.10637e-08 14.0833 0.530879 16.0426 1.46474 17.75C1.96335 18.6616 2.57615 19.5015 3.28506 20.25C4.62679 21.6667 6.31099 22.7565 8.2043 23.3873C9.25557 23.7375 10.3717 23.9464 11.5297 23.991C11.6857 23.997 11.8425 24 12 24C18.6274 24 24 18.6274 24 12C24 5.37258 18.6274 -2.89694e-07 12 0C9.97287 8.86088e-08 8.06313 0.502642 6.38863 1.39009ZM14.9947 21.0184C14.0532 21.3308 13.0464 21.5 12 21.5C11.6941 21.5 11.3915 21.4855 11.093 21.4573L12.2383 20.8028C13.1523 20.9361 14.0731 21.008 14.9947 21.0184ZM21.3523 10.3221C21.1288 9.06773 20.659 7.89856 19.9949 6.86636L19.8148 8.12667L20.0202 8.37319C20.5272 8.98153 20.9727 9.63441 21.3523 10.3221ZM12.8023 2.5334C12.5378 2.51128 12.2702 2.5 12 2.5C10.4849 2.5 9.05271 2.85466 7.78181 3.48549C8.911 3.46109 10.042 3.52891 11.1634 3.68911L11.1815 3.69171L12.8023 2.5334ZM3.31897 15.8646C2.86119 14.8378 2.58022 13.7148 2.51477 12.5343C2.84591 13.3757 3.21137 14.2036 3.61036 15.0159C3.49425 15.2931 3.39705 15.5766 3.31897 15.8646ZM3.8987 8.8427C4.38288 10.5292 5.01046 12.1709 5.77446 13.75H8.80029L12.0458 8.47607L10.7186 6.15119C9.05672 5.92234 7.37187 5.9239 5.71164 6.15533L4.76948 7.47434L3.8987 8.8427ZM12.7933 18.3563L10.9467 15.0323L14.1973 9.75H17.9133L18.0997 9.97365C19.134 11.2148 19.848 12.6881 20.1825 14.2642L17.7331 18.3465C16.0938 18.5742 14.432 18.5772 12.7933 18.3563Z" fill="black"/>
</svg>
