<svg width="24" height="24" viewBox="0 0 24 24" fill="none" xmlns="http://www.w3.org/2000/svg">
<path fill-rule="evenodd" clip-rule="evenodd" d="M5.68844 1.79197C2.65777 3.66954 0.525248 6.85865 0.0839843 10.5671C0.0280625 11.037 -2.11982e-08 11.515 0 12C1.04707e-07 14.3954 0.701864 16.6269 1.91116 18.5C2.13452 18.846 2.37451 19.1797 2.63126 19.5C4.28709 21.5656 6.61262 23.0718 9.27787 23.6899C9.71022 23.7902 10.1516 23.8672 10.6005 23.9193C11.0596 23.9727 11.5266 24 12 24C18.6274 24 24 18.6274 24 12C24 5.37258 18.6274 -2.89694e-07 12 0C9.68441 1.01217e-07 7.52202 0.655867 5.68844 1.79197ZM18.5335 20.8503C16.7066 22.2013 14.4466 23 12 23C11.2822 23 10.5804 22.9312 9.90088 22.7999L9.19846 21.6761L12.093 20.022C14.0653 20.3356 16.0737 20.3515 18.0513 20.069L18.1902 20.0492L18.5335 20.8503ZM22.8186 14C22.9378 13.3514 23 12.683 23 12C23 9.39605 22.0952 7.00343 20.5829 5.11937L19.4462 5.40353L19.0252 8.35067L19.4441 8.85333C20.6825 10.3395 21.5307 12.1084 21.915 14H22.8186ZM19.8322 4.27625C18.5504 2.97652 16.9474 1.99431 15.152 1.45825L15.4098 2.16728L19.0836 4.4634L19.8322 4.27625ZM13.9864 1.17888C13.3421 1.06138 12.6782 1 12 1C9.71941 1 7.60092 1.69403 5.84421 2.8824L5.9223 3.42898C7.75087 3.17322 9.61164 3.19078 11.4359 3.48299L14.3674 2.22663L13.9864 1.17888ZM8.48904 22.4278L8.16139 21.9036L7.77442 21.7488C6.48055 21.2312 5.29733 20.4657 4.29442 19.5H3.9532C5.18517 20.8212 6.73866 21.8387 8.48904 22.4278ZM3.12496 18.5H3.89197C3.72753 17.3437 3.90042 16.1608 4.3948 15.0957C3.15296 13.776 2.24362 12.1769 1.74487 10.4313L1.65539 10.1181L1.1358 10.2666C1.04642 10.8312 1 11.4102 1 12C1 14.4316 1.789 16.679 3.12496 18.5ZM5.80013 4.45779C7.57214 4.18281 9.37965 4.18005 11.152 4.45073L12.9349 8.46232L9.2194 14.5H5.2084C4.03215 13.2795 3.17259 11.7883 2.70639 10.1566L2.54131 9.57879L5.80013 4.45779ZM12.3181 19.0451L10.0779 15.0129L13.7782 9H18.2646L18.6759 9.49351C19.8524 10.9054 20.6437 12.5965 20.9743 14.4024L18.1925 19.0387L17.9099 19.0791C16.0541 19.3442 14.1697 19.3326 12.3181 19.0451Z" fill="black"/>
</svg>
