<svg width="24" height="24" viewBox="0 0 24 24" fill="none" xmlns="http://www.w3.org/2000/svg">
<path fill-rule="evenodd" clip-rule="evenodd" d="M5.45692 1.9391C2.62213 3.78622 0.616249 6.79855 0.119231 10.297C0.0401824 10.8534 -2.52734e-08 11.4218 0 12C1.09405e-07 14.5029 0.766273 16.8268 2.07702 18.75C2.19278 18.9198 2.3121 19.0866 2.4362 19.25C4.16998 21.5334 6.70353 23.1769 9.61884 23.7638C9.837 23.8077 10.0574 23.8458 10.2797 23.8777C10.8415 23.9584 11.4158 24 12 24C18.6274 24 24 18.6274 24 12C24 5.37258 18.6274 -2.89694e-07 12 0C9.5862 1.0551e-07 7.33886 0.712683 5.45692 1.9391ZM18.9421 21.1691C17.0129 22.632 14.6078 23.5 12 23.5C11.2923 23.5 10.5995 23.4361 9.92716 23.3137L8.84863 21.588L12.037 19.7661L12.0454 19.7611C14.0209 20.0842 16.0341 20.1046 18.0159 19.8215L18.3445 19.7746L18.9421 21.1691ZM23.28 14.25C23.4243 13.5224 23.5 12.77 23.5 12C23.5 9.26138 22.5427 6.74635 20.9445 4.77127L19.2225 5.20177L18.762 8.42533L19.252 9.01337C20.5075 10.52 21.3531 12.3236 21.7088 14.25L23.28 14.25ZM20.5832 4.3462C19.0399 2.61663 16.9815 1.3565 14.649 0.806587L15.2043 2.33364L19.0412 4.7317L20.5832 4.3462ZM14.0733 0.686397C13.4008 0.563953 12.7079 0.5 12 0.5C9.60314 0.5 7.37754 1.23327 5.53529 2.48772L5.7103 3.71277C7.6178 3.41948 9.5644 3.42861 11.4694 3.7417C11.4738 3.73942 11.4782 3.73722 11.4827 3.73511L11.4935 3.7303L14.6831 2.36332L14.0733 0.686397ZM9.24667 23.1683L8.33009 21.7018L7.86727 21.5166C6.57239 20.9987 5.39081 20.2264 4.3959 19.25H3.07274C4.62591 21.1602 6.77984 22.5622 9.24667 23.1683ZM2.68837 18.75H4.18731C3.94493 17.4969 4.12159 16.1954 4.69499 15.0486C3.41984 13.7346 2.48873 12.1248 1.98525 10.3626L1.82709 9.80906L0.648711 10.1457C0.550862 10.7494 0.500001 11.3687 0.500001 12C0.500001 14.522 1.31181 16.8543 2.68837 18.75ZM5.64971 4.22851C7.5278 3.92481 9.44691 3.92309 11.3251 4.22482L13.2168 8.48116L9.3591 14.75H5.10288C3.86002 13.4861 2.95324 11.9306 2.46601 10.2252L2.27005 9.53939L5.64971 4.22851ZM12.1587 19.273L9.78837 15.0065L13.6385 8.75H18.3817L18.8679 9.33347C20.0923 10.8027 20.909 12.5674 21.2368 14.4507L18.3456 19.2693L17.9452 19.3265C16.0245 19.6009 14.0736 19.5828 12.1587 19.273Z" fill="black"/>
</svg>
