<svg width="24" height="24" viewBox="0 0 24 24" fill="none" xmlns="http://www.w3.org/2000/svg">
<path fill-rule="evenodd" clip-rule="evenodd" d="M1.75408 18.25C0.641298 16.4297 1.00087e-07 14.2897 0 12C-2.89694e-07 5.37258 5.37258 2.89694e-07 12 0C18.6274 -2.89694e-07 24 5.37258 24 12C24 18.6274 18.6274 24 12 24C11.6345 24 11.2727 23.9837 10.9155 23.9517C10.2355 23.8908 9.57177 23.7732 8.92915 23.6037C6.5175 22.9671 4.40301 21.5984 2.83793 19.75C2.4397 19.2797 2.07703 18.7783 1.75408 18.25ZM18.1242 20.53C16.4004 21.7698 14.2855 22.5 12 22.5C11.2715 22.5 10.5603 22.4258 9.87358 22.2846L9.54829 21.7641L12.1409 20.2826C14.093 20.5842 16.0791 20.5982 18.0358 20.3237L18.1242 20.53ZM19.4098 19.4394C20.5738 18.28 21.4673 16.8493 21.9873 15.25H21.9234L19.4098 19.4394ZM22.3548 13.75C22.4503 13.1809 22.5 12.5962 22.5 12C22.5 9.53069 21.6476 7.26047 20.221 5.46752L19.6699 5.6053L19.2884 8.276L19.6361 8.69328C20.8573 10.1587 21.707 11.8934 22.1175 13.75H22.3548ZM18.7649 3.96941C18.0073 3.33055 17.1581 2.79695 16.2397 2.39115L18.7649 3.96941ZM13.8994 1.67136C13.2834 1.5588 12.6486 1.5 12 1.5C9.94079 1.5 8.02004 2.09277 6.39906 3.11698C8.06286 2.93051 9.74772 2.96611 11.4037 3.22479L14.0516 2.08995L13.8994 1.67136ZM1.57512 10.7375C1.52552 11.1514 1.5 11.5727 1.5 12C1.5 14.3414 2.26635 16.5038 3.56191 18.25H3.6105C3.50904 17.1934 3.67557 16.1246 4.09905 15.1444C2.94363 13.8806 2.08125 12.3758 1.57512 10.7375ZM5.31543 14.25H9.0797L12.6529 8.44349L10.9793 4.6778C9.31273 4.43674 7.61617 4.44044 5.95003 4.6879L2.81257 9.61818L2.94677 10.0879C3.39203 11.6463 4.20496 13.0734 5.31543 14.25ZM10.3675 15.0194L12.477 18.8164C14.2654 19.0822 16.0835 19.0874 17.8745 18.8316L18.0393 18.808L20.711 14.3552C20.3784 12.6263 19.6127 11.0083 18.4838 9.65356L18.1475 9.25H13.9179L10.3675 15.0194ZM5.47144 15.75C5.08384 16.6531 4.98197 17.6543 5.18069 18.6181C6.06364 19.4635 7.10334 20.134 8.23866 20.5882L8.44111 20.6691L10.9833 19.2165L9.05749 15.75L5.47144 15.75ZM13.9862 7.75L12.4928 4.38995L14.9338 3.34382L18.1873 5.37724L17.8483 7.75L13.9862 7.75Z" fill="black"/>
</svg>
