<svg width="24" height="24" viewBox="0 0 24 24" fill="none" xmlns="http://www.w3.org/2000/svg">
<path d="M4.37109 3.25H19.6289C20.0242 3.24999 20.3654 3.24998 20.6463 3.27293C20.9428 3.29716 21.2377 3.35064 21.5215 3.49524C21.9448 3.71095 22.2891 4.05516 22.5048 4.47852C22.6494 4.76231 22.7028 5.05722 22.7271 5.35373C22.75 5.63463 22.75 5.97567 22.75 6.37098V14.6289C22.75 15.0242 22.75 15.3654 22.7271 15.6463C22.7028 15.9428 22.6494 16.2377 22.5048 16.5215C22.2891 16.9448 21.9448 17.2891 21.5215 17.5048C21.2377 17.6494 20.9428 17.7029 20.6463 17.7271C20.3653 17.75 20.0243 17.75 19.6289 17.75H18.9878C19.0186 17.2492 18.991 16.7452 18.9049 16.25H19.6C20.0324 16.25 20.3116 16.2494 20.5241 16.2321C20.7279 16.2154 20.8034 16.1872 20.8405 16.1683C20.9816 16.0964 21.0964 15.9816 21.1683 15.8405C21.1872 15.8034 21.2154 15.7279 21.2321 15.5241C21.2494 15.3116 21.25 15.0324 21.25 14.6V6.4C21.25 5.96759 21.2494 5.68838 21.2321 5.47588C21.2154 5.27213 21.1872 5.19659 21.1683 5.15951C21.0964 5.01839 20.9816 4.90365 20.8405 4.83175C20.8034 4.81285 20.7279 4.78459 20.5241 4.76795C20.3116 4.75059 20.0324 4.75 19.6 4.75H4.4C3.96759 4.75 3.68838 4.75059 3.47588 4.76795C3.27213 4.78459 3.19659 4.81285 3.15951 4.83175C3.01839 4.90365 2.90365 5.01839 2.83175 5.15951C2.81285 5.19659 2.78459 5.27213 2.76795 5.47588C2.75059 5.68838 2.75 5.96759 2.75 6.4V14.6C2.75 15.0324 2.75059 15.3116 2.76795 15.5241C2.78459 15.7279 2.81285 15.8034 2.83175 15.8405C2.90365 15.9816 3.01839 16.0964 3.15951 16.1683C3.19659 16.1872 3.27213 16.2154 3.47588 16.2321C3.68838 16.2494 3.96759 16.25 4.4 16.25H6.28308C6.47853 16.7223 6.5419 17.245 6.47318 17.75H4.37108C3.97572 17.75 3.63466 17.75 3.35373 17.7271C3.05722 17.7029 2.76231 17.6494 2.47852 17.5048C2.05516 17.2891 1.71095 16.9448 1.49524 16.5215C1.35064 16.2377 1.29716 15.9428 1.27293 15.6463C1.24998 15.3654 1.24999 15.0243 1.25 14.629V6.37109C1.24999 5.97576 1.24998 5.63465 1.27293 5.35373C1.29716 5.05722 1.35064 4.76231 1.49524 4.47852C1.71095 4.05516 2.05516 3.71095 2.47852 3.49524C2.76231 3.35064 3.05722 3.29716 3.35373 3.27293C3.63465 3.24998 3.97576 3.24999 4.37109 3.25Z" fill="black"/>
<path d="M15.283 16.25C15.4785 16.7223 15.5419 17.245 15.4732 17.75H14.4878C14.5186 17.2492 14.491 16.7452 14.4049 16.25H15.283Z" fill="black"/>
<path d="M10.7831 16.25C10.9785 16.7223 11.0419 17.245 10.9732 17.75H9.98782C10.0186 17.2492 9.99099 16.7452 9.90492 16.25H10.7831Z" fill="black"/>
<path d="M7.83279 9.22211C8.09351 8.90024 8.04394 8.42796 7.72207 8.16724C7.4002 7.90653 6.92792 7.9561 6.6672 8.27797C5.11093 10.1993 5.11093 13.0365 6.6672 14.9578C7.7776 16.3287 7.7776 18.3785 6.6672 19.7494C6.40649 20.0712 6.45606 20.5435 6.77793 20.8042C7.0998 21.065 7.57208 21.0154 7.83279 20.6935C9.38907 18.7722 9.38907 15.935 7.83279 14.0137C6.7224 12.6428 6.7224 10.5929 7.83279 9.22211Z" fill="black"/>
<path d="M12.3328 9.22222C12.5935 8.90035 12.5439 8.42807 12.2221 8.16735C11.9002 7.90663 11.4279 7.95621 11.1672 8.27807C9.61093 10.1994 9.61093 13.0366 11.1672 14.9579C12.2776 16.3287 12.2776 18.3786 11.1672 19.7494C10.9065 20.0713 10.9561 20.5435 11.2779 20.8042C11.5998 21.065 12.0721 21.0154 12.3328 20.6935C13.8891 18.7722 13.8891 15.935 12.3328 14.0137C11.2224 12.6429 11.2224 10.593 12.3328 9.22222Z" fill="black"/>
<path d="M16.7221 8.16733C17.0439 8.42804 17.0935 8.90032 16.8328 9.22219C15.7224 10.593 15.7224 12.6429 16.8328 14.0137C18.3891 15.935 18.3891 18.7722 16.8328 20.6935C16.5721 21.0154 16.0998 21.0649 15.7779 20.8042C15.4561 20.5435 15.4065 20.0712 15.6672 19.7494C16.7776 18.3785 16.7776 16.3287 15.6672 14.9578C14.1109 13.0366 14.1109 10.1993 15.6672 8.27805C15.9279 7.95618 16.4002 7.90661 16.7221 8.16733Z" fill="black"/>
</svg>
