<svg width="24" height="24" viewBox="0 0 24 24" fill="none" xmlns="http://www.w3.org/2000/svg">
<path d="M11.6981 3.25C7.97773 3.25 4.47236 4.17629 1.40427 5.81062C0.755789 6.15605 0.564075 6.97088 0.943371 7.57042L5.78396 15.2218C6.13307 15.7736 6.82637 15.9454 7.38491 15.6888C7.69717 15.5453 8.01791 15.4169 8.3462 15.3046L5.16865 9.19184C4.78656 8.45679 5.07268 7.55117 5.80773 7.16908C6.54278 6.78698 7.4484 7.07311 7.8305 7.80816L11.4406 14.7531C11.5262 14.751 11.612 14.75 11.6981 14.75C13.4591 14.75 15.1148 15.1891 16.5627 15.9624C17.1293 16.265 17.8668 16.1075 18.2324 15.5296L23.0561 7.9049C23.427 7.31868 23.2532 6.52356 22.6313 6.16507C19.4149 4.31095 15.6797 3.25 11.6981 3.25Z" fill="black"/>
<path d="M6.15365 7.83447C6.52117 7.64342 6.97398 7.78648 7.16503 8.15401L11.9028 17.2683C12.4911 17.3699 12.9386 17.8827 12.9386 18.5C12.9386 19.1903 12.3789 19.75 11.6886 19.75C10.9982 19.75 10.4386 19.1903 10.4386 18.5C10.4386 18.3023 10.4845 18.1153 10.5662 17.9491L5.83411 8.84585C5.64306 8.47833 5.78612 8.02552 6.15365 7.83447Z" fill="black"/>
</svg>
