<svg width="24" height="24" viewBox="0 0 24 24" fill="none" xmlns="http://www.w3.org/2000/svg">
<path d="M4.36392 3H19.6361C20.0251 2.99998 20.3753 2.99996 20.6666 3.02376C20.9786 3.04925 21.3101 3.10694 21.635 3.27249C22.1054 3.51217 22.4878 3.89462 22.7275 4.36503C22.8931 4.68993 22.9508 5.02141 22.9762 5.33338C23 5.62468 23 5.97479 23 6.36386V14.6361C23 15.0252 23 15.3753 22.9762 15.6666C22.9508 15.9786 22.8931 16.3101 22.7275 16.635C22.4878 17.1054 22.1054 17.4878 21.635 17.7275C21.3101 17.8931 20.9786 17.9508 20.6666 17.9762C20.3753 18 20.0252 18 19.6361 18L19.4699 18C19.5322 17.3331 19.4978 16.6583 19.3669 16H19.6C20.0365 16 20.3038 15.9992 20.5038 15.9829C20.5969 15.9753 20.6533 15.9657 20.6875 15.9577C20.7038 15.9538 20.7138 15.9506 20.7192 15.9487C20.7225 15.9475 20.7245 15.9467 20.7257 15.9461L20.727 15.9455C20.8211 15.8976 20.8976 15.8211 20.9455 15.727C20.9456 15.7267 20.9461 15.7258 20.9469 15.7238C20.9474 15.7226 20.948 15.7211 20.9487 15.7192C20.9506 15.7138 20.9538 15.7038 20.9577 15.6875C20.9657 15.6533 20.9753 15.5969 20.9829 15.5038C20.9992 15.3038 21 15.0365 21 14.6V6.40001C21 5.96346 20.9992 5.6962 20.9829 5.49624C20.9753 5.40309 20.9657 5.34673 20.9577 5.3125C20.9538 5.29622 20.9506 5.28621 20.9487 5.28079C20.9475 5.27737 20.9466 5.27525 20.946 5.27409C20.9458 5.27349 20.9456 5.27315 20.9455 5.27301C20.8976 5.17893 20.8211 5.10244 20.727 5.0545C20.7266 5.0543 20.7244 5.05319 20.7192 5.05133C20.7138 5.0494 20.7038 5.04618 20.6875 5.04235C20.6533 5.03429 20.5969 5.02473 20.5038 5.01712C20.3038 5.00078 20.0365 5.00001 19.6 5.00001H4.40001C3.96346 5.00001 3.6962 5.00078 3.49624 5.01712C3.40309 5.02473 3.34673 5.03429 3.3125 5.04235C3.29622 5.04618 3.28621 5.0494 3.28079 5.05133C3.27559 5.05319 3.27341 5.0543 3.27301 5.0545C3.17893 5.10244 3.10244 5.17893 3.0545 5.27301C3.0543 5.27341 3.05319 5.27559 3.05133 5.28079C3.0494 5.28621 3.04618 5.29622 3.04235 5.3125C3.03429 5.34673 3.02473 5.40309 3.01712 5.49624C3.00078 5.6962 3.00001 5.96346 3.00001 6.4V14.6C3.00001 15.0365 3.00078 15.3038 3.01712 15.5038C3.02473 15.5969 3.03429 15.6533 3.04235 15.6875C3.04618 15.7038 3.0494 15.7138 3.05133 15.7192C3.05319 15.7244 3.0543 15.7266 3.0545 15.727C3.10244 15.8211 3.17893 15.8976 3.27301 15.9455C3.27341 15.9457 3.27559 15.9468 3.28079 15.9487C3.28621 15.9506 3.29622 15.9538 3.3125 15.9577C3.34673 15.9657 3.40309 15.9753 3.49624 15.9829C3.6962 15.9992 3.96346 16 4.40001 16H5.57646C5.98717 16.5723 6.09918 17.3278 5.91249 18L4.36394 18C3.97485 18 3.62469 18 3.33338 17.9762C3.02141 17.9508 2.68993 17.8931 2.36503 17.7275C1.89462 17.4878 1.51217 17.1054 1.27249 16.635C1.10694 16.3101 1.04925 15.9786 1.02376 15.6666C0.999963 15.3753 0.999981 15.0253 1 14.6362V6.36392C0.999981 5.97487 0.999963 5.62466 1.02376 5.33338C1.04925 5.02141 1.10694 4.68993 1.27249 4.36503C1.51217 3.89462 1.89462 3.51217 2.36503 3.27249C2.68993 3.10694 3.02141 3.04925 3.33338 3.02376C3.62466 2.99996 3.97487 2.99998 4.36392 3Z" fill="black"/>
<path d="M8.02706 9.37947C8.37468 8.95031 8.30858 8.3206 7.87942 7.97298C7.45027 7.62536 6.82056 7.69146 6.47294 8.12061C4.84235 10.1337 4.84235 13.1021 6.47294 15.1152C7.50902 16.3943 7.50902 18.3129 6.47294 19.592C6.12532 20.0212 6.19141 20.6509 6.62057 20.9985C7.04973 21.3461 7.67944 21.28 8.02706 20.8509C9.65765 18.8378 9.65765 15.8694 8.02706 13.8563C6.99098 12.5772 6.99098 10.6586 8.02706 9.37947Z" fill="black"/>
<path d="M12.5271 9.37958C12.8747 8.95042 12.8086 8.32071 12.3794 7.97309C11.9503 7.62547 11.3206 7.69156 10.9729 8.12072C9.34235 10.1338 9.34235 13.1022 10.9729 15.1152C12.009 16.3943 12.009 18.3129 10.9729 19.592C10.6253 20.0212 10.6914 20.6509 11.1206 20.9985C11.5497 21.3461 12.1794 21.28 12.5271 20.8509C14.1576 18.8379 14.1576 15.8694 12.5271 13.8564C11.491 12.5773 11.491 10.6587 12.5271 9.37958Z" fill="black"/>
<path d="M16.8794 7.97306C17.3086 8.32069 17.3747 8.95039 17.0271 9.37955C15.991 10.6586 15.991 12.5773 17.0271 13.8563C18.6576 15.8694 18.6576 18.8378 17.0271 20.8509C16.6794 21.28 16.0497 21.3461 15.6206 20.9985C15.1914 20.6509 15.1253 20.0212 15.4729 19.592C16.509 18.3129 16.509 16.3943 15.4729 15.1152C13.8424 13.1022 13.8424 10.1337 15.4729 8.12069C15.8206 7.69153 16.4503 7.62544 16.8794 7.97306Z" fill="black"/>
</svg>
