<svg width="24" height="24" viewBox="0 0 24 24" fill="none" xmlns="http://www.w3.org/2000/svg">
<path d="M6.18999 3.58397C5.9602 3.15885 5.42929 3.00051 5.00417 3.2303C4.57905 3.4601 4.42071 3.99101 4.65051 4.41612C5.00254 5.06739 5.26728 5.75178 5.44473 6.45287L1.14915 8.06371C0.632027 8.25763 0.370022 8.83404 0.563942 9.35116C0.757862 9.86828 1.33427 10.1303 1.85139 9.93637L5.71419 8.48782C5.72422 9.13516 5.66329 9.78336 5.53139 10.4204L1.14915 12.0637C0.632027 12.2576 0.370022 12.834 0.563942 13.3512C0.757862 13.8683 1.33427 14.1303 1.85139 13.9364L4.61513 12.9C4.24153 13.6029 3.95236 14.3374 3.74762 15.0893L1.14915 16.0637C0.632027 16.2576 0.370022 16.834 0.563942 17.3512C0.757862 17.8683 1.33427 18.1303 1.85139 17.9364L3.38774 17.3602C3.35797 17.9732 3.3814 18.5881 3.45803 19.1979L1.14915 20.0637C0.632027 20.2576 0.370022 20.834 0.563942 21.3512C0.757862 21.8683 1.33427 22.1303 1.85139 21.9364L3.89956 21.1683C4.09515 21.7667 4.34547 22.3518 4.65051 22.9161C4.8803 23.3412 5.41121 23.4996 5.83633 23.2698C6.26144 23.04 6.41979 22.5091 6.18999 22.084C5.92317 21.5903 5.70649 21.0777 5.53997 20.5532L9.85139 18.9364C10.3685 18.7424 10.6305 18.166 10.4366 17.6489C10.2427 17.1318 9.66627 16.8698 9.14915 17.0637L5.15197 18.5627C5.10309 17.9349 5.12126 17.303 5.20647 16.6782L9.85139 14.9364C10.3685 14.7424 10.6305 14.166 10.4366 13.6489C10.2427 13.1318 9.66627 12.8698 9.14915 13.0637L5.88464 14.2879C5.97785 14.0777 6.07963 13.8703 6.18999 13.6661C6.47373 13.1412 6.71013 12.5983 6.89917 12.0435L9.85139 10.9364C10.3685 10.7424 10.6305 10.166 10.4366 9.64891C10.2427 9.13179 9.66627 8.86979 9.14915 9.06371L7.40899 9.71627C7.4734 9.0934 7.48251 8.46613 7.43632 7.84202L9.85139 6.93637C10.3685 6.74245 10.6305 6.16603 10.4366 5.64891C10.2427 5.13179 9.66627 4.86979 9.14915 5.06371L7.09177 5.83522C6.88067 5.06123 6.58008 4.30562 6.18999 3.58397Z" fill="black"/>
<path d="M13.9865 4.00004C13.455 4.00004 13.0084 4.39968 12.9496 4.92798L12.8357 5.9512C12.3884 9.97135 12.3884 14.0287 12.8357 18.0489L12.9496 19.0721C13.0084 19.6004 13.4549 20 13.9865 20H15.1796C19.5979 20 23.1796 16.4183 23.1796 12C23.1796 7.58176 19.5979 4.00004 15.1796 4.00004H13.9865Z" fill="black"/>
</svg>
