<svg width="25" height="24" viewBox="0 0 25 24" fill="none" xmlns="http://www.w3.org/2000/svg">
<path d="M6.29996 3.52443C6.03733 3.03858 5.43058 2.85762 4.94473 3.12024C4.45888 3.38286 4.27792 3.98962 4.54054 4.47547C4.86948 5.08399 5.12111 5.72186 5.29543 6.37527L1.10529 7.94657C0.523531 8.16473 0.228774 8.81319 0.446935 9.39495C0.665095 9.97671 1.31356 10.2715 1.89532 10.0533L5.59015 8.66775C5.58742 9.22383 5.53159 9.77972 5.42266 10.3276L1.10529 11.9466C0.523531 12.1647 0.228774 12.8132 0.446935 13.395C0.665095 13.9767 1.31356 14.2715 1.89532 14.0533L4.35666 13.1303C4.0591 13.7335 3.82156 14.3577 3.64404 14.9945L1.10529 15.9466C0.523531 16.1647 0.228774 16.8132 0.446935 17.395C0.665095 17.9767 1.31356 18.2715 1.89532 18.0533L3.25537 17.5433C3.23916 18.0678 3.26141 18.5933 3.32213 19.1153L1.10529 19.9466C0.523531 20.1647 0.228774 20.8132 0.446935 21.395C0.665095 21.9767 1.31356 22.2715 1.89532 22.0533L3.82202 21.3308C4.01346 21.8932 4.25297 22.4434 4.54054 22.9755C4.80316 23.4613 5.40992 23.6423 5.89577 23.3797C6.38161 23.117 6.56258 22.5103 6.29996 22.0244C6.05607 21.5732 5.85469 21.1059 5.6958 20.6281L9.89532 19.0533C10.4771 18.8351 10.7718 18.1867 10.5537 17.6049C10.3355 17.0232 9.68705 16.7284 9.10529 16.9466L5.26524 18.3866C5.23359 17.8472 5.25204 17.3056 5.32057 16.7688L9.89532 15.0533C10.4771 14.8351 10.7718 14.1867 10.5537 13.6049C10.3355 13.0232 9.68705 12.7284 9.10529 12.9466L6.12656 14.0636C6.18175 13.95 6.23955 13.8372 6.29995 13.7255C6.57748 13.212 6.81024 12.6816 6.99822 12.1397L9.89532 11.0533C10.4771 10.8351 10.7718 10.1867 10.5537 9.60492C10.3355 9.02316 9.68705 8.72841 9.10529 8.94657L7.55212 9.52901C7.59718 8.99582 7.60231 8.46002 7.56749 7.92624L9.89532 7.05331C10.4771 6.83515 10.7718 6.18668 10.5537 5.60492C10.3355 5.02316 9.68705 4.72841 9.10529 4.94657L7.17546 5.67025C6.96427 4.93321 6.67244 4.21352 6.29996 3.52443Z" fill="black"/>
<path fill-rule="evenodd" clip-rule="evenodd" d="M12.9542 4.84495C13.0553 3.93687 13.8229 3.24994 14.7365 3.24994H15.9296C20.7621 3.24994 24.6796 7.16745 24.6796 11.9999C24.6796 16.8324 20.7621 20.7499 15.9296 20.7499H14.7365C13.8229 20.7499 13.0553 20.063 12.9542 19.1549L12.8404 18.1317C12.3869 14.0564 12.3869 9.94344 12.8404 5.86816L12.9542 4.84495ZM15.369 5.74994L15.325 6.14462C14.8921 10.0362 14.8921 13.9637 15.325 17.8553L15.369 18.2499H15.9296C19.3814 18.2499 22.1796 15.4517 22.1796 11.9999C22.1796 8.54816 19.3814 5.74994 15.9296 5.74994H15.369Z" fill="black"/>
</svg>
