<svg width="24" height="24" viewBox="0 0 24 24" fill="none" xmlns="http://www.w3.org/2000/svg">
<path d="M4.37935 3.5H19.6207C20.0231 3.49999 20.3553 3.49999 20.6259 3.5221C20.907 3.54506 21.1653 3.59434 21.408 3.71799C21.7843 3.90973 22.0903 4.2157 22.282 4.59202C22.4057 4.83469 22.4549 5.09304 22.4779 5.37409C22.5 5.64467 22.5 5.97683 22.5 6.37928V14.6207C22.5 15.0231 22.5 15.3553 22.4779 15.6259C22.4549 15.907 22.4057 16.1653 22.282 16.408C22.0903 16.7843 21.7843 17.0903 21.408 17.282C21.1653 17.4057 20.907 17.4549 20.6259 17.4779C20.3553 17.5 20.0231 17.5 19.6207 17.5H18.4982C18.5064 17.1659 18.4865 16.8311 18.4385 16.5H19.6C20.0283 16.5 20.3194 16.4996 20.5445 16.4812C20.7637 16.4633 20.8758 16.4309 20.954 16.391C21.1422 16.2951 21.2951 16.1422 21.391 15.954C21.4309 15.8758 21.4633 15.7637 21.4812 15.5445C21.4996 15.3194 21.5 15.0283 21.5 14.6V6.4C21.5 5.97171 21.4996 5.68056 21.4812 5.45552C21.4633 5.23631 21.4309 5.12421 21.391 5.04601C21.2951 4.85785 21.1422 4.70487 20.954 4.60899C20.8758 4.56915 20.7637 4.53669 20.5445 4.51878C20.3194 4.50039 20.0283 4.5 19.6 4.5H4.4C3.97171 4.5 3.68056 4.50039 3.45552 4.51878C3.23631 4.53669 3.12421 4.56915 3.04601 4.60899C2.85785 4.70487 2.70487 4.85785 2.60899 5.04601C2.56915 5.12421 2.53669 5.23631 2.51878 5.45552C2.50039 5.68056 2.5 5.97171 2.5 6.4V14.6C2.5 15.0283 2.50039 15.3194 2.51878 15.5445C2.53669 15.7637 2.56915 15.8758 2.60899 15.954C2.70487 16.1422 2.85785 16.2951 3.04601 16.391C3.12421 16.4309 3.23631 16.4633 3.45552 16.4812C3.68056 16.4996 3.97171 16.5 4.4 16.5H6.89228C6.97629 16.8261 7.01116 17.1641 6.99688 17.5H4.37934C3.97686 17.5 3.64468 17.5 3.37409 17.4779C3.09304 17.4549 2.83469 17.4057 2.59202 17.282C2.2157 17.0903 1.90973 16.7843 1.71799 16.408C1.59434 16.1653 1.54506 15.907 1.5221 15.6259C1.49999 15.3553 1.49999 15.0231 1.5 14.6207V6.37935C1.49999 5.97687 1.49999 5.64468 1.5221 5.37409C1.54506 5.09304 1.59434 4.83469 1.71799 4.59202C1.90973 4.2157 2.2157 3.90973 2.59202 3.71799C2.83469 3.59434 3.09304 3.54506 3.37409 3.5221C3.64468 3.49999 3.97688 3.49999 4.37935 3.5Z" fill="black"/>
<path d="M15.8923 16.5C15.9763 16.8261 16.0112 17.1641 15.9969 17.5H13.9982C14.0064 17.1659 13.9865 16.8311 13.9385 16.5H15.8923Z" fill="black"/>
<path d="M11.3923 16.5C11.4763 16.8261 11.5112 17.1641 11.4969 17.5H9.49819C9.50641 17.1659 9.48651 16.8311 9.43848 16.5H11.3923Z" fill="black"/>
<path d="M7.63853 9.06475C7.81234 8.85017 7.77929 8.53532 7.56471 8.36151C7.35013 8.1877 7.03528 8.22074 6.86146 8.43532C5.37951 10.2649 5.37951 12.9709 6.86147 14.8005C8.04617 16.263 8.04617 18.4441 6.86147 19.9067C6.68765 20.1213 6.7207 20.4362 6.93528 20.61C7.14986 20.7838 7.46472 20.7507 7.63853 20.5362C9.12049 18.7066 9.12049 16.0006 7.63853 14.171C6.45382 12.7084 6.45382 10.5273 7.63853 9.06475Z" fill="black"/>
<path d="M12.1385 9.06486C12.3123 8.85028 12.2793 8.53543 12.0647 8.36162C11.8501 8.1878 11.5353 8.22085 11.3615 8.43543C9.87951 10.265 9.87951 12.971 11.3615 14.8005C12.5462 16.2631 12.5462 18.4442 11.3615 19.9067C11.1877 20.1213 11.2207 20.4362 11.4353 20.61C11.6499 20.7838 11.9647 20.7507 12.1385 20.5362C13.6205 18.7066 13.6205 16.0006 12.1385 14.1711C10.9538 12.7085 10.9538 10.5274 12.1385 9.06486Z" fill="black"/>
<path d="M16.5647 8.36159C16.7793 8.5354 16.8123 8.85025 16.6385 9.06483C15.4538 10.5274 15.4538 12.7085 16.6385 14.1711C18.1205 16.0006 18.1205 18.7066 16.6385 20.5361C16.4647 20.7507 16.1499 20.7838 15.9353 20.61C15.7207 20.4361 15.6877 20.1213 15.8615 19.9067C17.0462 18.4441 17.0462 16.2631 15.8615 14.8005C14.3795 12.9709 14.3795 10.2649 15.8615 8.4354C16.0353 8.22082 16.3501 8.18778 16.5647 8.36159Z" fill="black"/>
</svg>
