<svg width="24" height="24" viewBox="0 0 24 24" fill="none" xmlns="http://www.w3.org/2000/svg">
<path d="M11.6983 3.75C8.06182 3.75 4.63698 4.65523 1.63954 6.25192C1.25516 6.45667 1.13778 6.94218 1.36611 7.3031L6.2067 14.9544C6.41515 15.2839 6.83371 15.3919 7.17638 15.2344C7.70921 14.9896 8.26551 14.7868 8.84104 14.6301L5.83432 8.84592C5.64327 8.4784 5.78633 8.02559 6.15386 7.83454C6.52138 7.64349 6.97419 7.78655 7.16524 8.15408L10.3755 14.3298C10.809 14.2771 11.2504 14.25 11.6983 14.25C13.5434 14.25 15.2797 14.7102 16.7985 15.5213C17.1463 15.7071 17.5918 15.6072 17.81 15.2623L22.6338 7.63758C22.857 7.28472 22.7505 6.8108 22.3818 6.59825C19.2393 4.78679 15.5901 3.75 11.6983 3.75Z" fill="black"/>
<path d="M6.38447 8.27811C6.50697 8.21443 6.65791 8.26211 6.72159 8.38462L11.5931 17.7561C11.6244 17.7521 11.6564 17.75 11.6888 17.75C12.103 17.75 12.4388 18.0858 12.4388 18.5C12.4388 18.9142 12.103 19.25 11.6888 19.25C11.2746 19.25 10.9388 18.9142 10.9388 18.5C10.9388 18.2989 11.018 18.1163 11.1468 17.9816L6.27795 8.61524C6.21427 8.49273 6.26196 8.34179 6.38447 8.27811Z" fill="black"/>
</svg>
