<svg width="24" height="24" viewBox="0 0 24 24" fill="none" xmlns="http://www.w3.org/2000/svg">
<path d="M5.64005 3.88105C5.5744 3.75958 5.42271 3.71434 5.30125 3.78C5.17979 3.84565 5.13454 3.99734 5.2002 4.11881C5.80643 5.24033 6.17086 6.45362 6.29349 7.68546L1.41229 9.51591C1.28301 9.56439 1.21751 9.7085 1.26599 9.83778C1.31447 9.96706 1.45857 10.0326 1.58785 9.98408L6.33085 8.20545C6.37711 9.25047 6.25041 10.3014 5.95076 11.314L1.41229 13.0159C1.28301 13.0644 1.21751 13.2085 1.26599 13.3378C1.31447 13.4671 1.45857 13.5326 1.58785 13.4841L5.74736 11.9243C5.59453 12.3357 5.41214 12.739 5.2002 13.131C4.80259 13.8666 4.50379 14.6397 4.30378 15.4316L1.41229 16.5159C1.28301 16.5644 1.21751 16.7085 1.26599 16.8378C1.31447 16.9671 1.45857 17.0326 1.58785 16.9841L4.17513 16.0138C3.98683 17.006 3.95048 18.0201 4.06608 19.0207L1.41229 20.0159C1.28301 20.0644 1.21751 20.2085 1.26599 20.3378C1.31447 20.4671 1.45857 20.5326 1.58785 20.4841L4.1379 19.5278C4.31713 20.5953 4.67123 21.6402 5.2002 22.6188C5.26586 22.7403 5.41754 22.7855 5.53901 22.7199C5.66047 22.6542 5.70571 22.5025 5.64005 22.381C5.12171 21.4221 4.78014 20.3961 4.61535 19.3488L9.58785 17.4841C9.71713 17.4356 9.78263 17.2915 9.73415 17.1622C9.68567 17.0329 9.54157 16.9674 9.41229 17.0159L4.5493 18.8395C4.44586 17.8278 4.5056 16.8032 4.72851 15.8063L9.58785 13.9841C9.71713 13.9356 9.78263 13.7915 9.73415 13.6622C9.68567 13.5329 9.54157 13.4674 9.41229 13.5159L4.88087 15.2152C5.06624 14.5813 5.3193 13.9622 5.64005 13.3688C5.93186 12.829 6.17044 12.2689 6.35582 11.6961L9.58785 10.4841C9.71713 10.4356 9.78263 10.2915 9.73415 10.1622C9.68567 10.0329 9.54157 9.96743 9.41229 10.0159L6.52914 11.0971C6.78671 10.0899 6.88428 9.05189 6.82187 8.02132L9.58785 6.98408C9.71713 6.9356 9.78263 6.7915 9.73415 6.66222C9.68567 6.53294 9.54157 6.46743 9.41229 6.51591L6.77703 7.50414C6.63564 6.2526 6.25665 5.02174 5.64005 3.88105Z" fill="black"/>
<path fill-rule="evenodd" clip-rule="evenodd" d="M12.9479 4.95559C12.9926 4.55388 13.3321 4.25 13.7363 4.25H14.9294C19.2096 4.25 22.6794 7.71979 22.6794 12C22.6794 16.2802 19.2096 19.75 14.9294 19.75H13.7363C13.3321 19.75 12.9926 19.4461 12.9479 19.0444L12.834 18.0212C12.3888 14.0194 12.3888 9.98059 12.834 5.9788L12.9479 4.95559ZM13.7363 4.75C13.5869 4.75 13.4613 4.86235 13.4448 5.01088L13.3309 6.03409C12.8898 9.99913 12.8898 14.0009 13.3309 17.9659L13.4448 18.9891C13.4613 19.1376 13.5869 19.25 13.7363 19.25H14.9294C18.9335 19.25 22.1794 16.0041 22.1794 12C22.1794 7.99593 18.9335 4.75 14.9294 4.75H13.7363Z" fill="black"/>
</svg>
