<svg width="24" height="24" viewBox="0 0 24 24" fill="none" xmlns="http://www.w3.org/2000/svg">
<path d="M11.6982 3.5C8.01977 3.5 4.55467 4.41576 1.5219 6.03127C1.00547 6.30636 0.850928 6.95653 1.15474 7.43676L5.99533 15.0881C6.27411 15.5288 6.83004 15.6686 7.28065 15.4616C7.74109 15.2501 8.2195 15.0706 8.71304 14.926L5.61244 8.96123C5.35771 8.4712 5.54846 7.86745 6.03849 7.61272C6.52852 7.35799 7.13227 7.54874 7.387 8.03877L10.7667 14.5403C11.0735 14.5136 11.3842 14.5 11.6982 14.5C13.5013 14.5 15.1973 14.9496 16.6806 15.7419C17.1378 15.986 17.7293 15.8574 18.0212 15.3959L22.8449 7.77124C23.142 7.3017 23.0018 6.66718 22.5065 6.38166C19.3271 4.54887 15.6349 3.5 11.6982 3.5Z" fill="black"/>
<path d="M6.2691 8.05629C6.51411 7.92892 6.81599 8.0243 6.94335 8.26932L11.6129 17.2522C11.638 17.2507 11.6632 17.25 11.6887 17.25C12.3791 17.25 12.9387 17.8096 12.9387 18.5C12.9387 19.1903 12.3791 19.75 11.6887 19.75C10.9984 19.75 10.4387 19.1903 10.4387 18.5C10.4387 18.199 10.5451 17.9229 10.7223 17.7071L6.05607 8.73054C5.92871 8.48553 6.02408 8.18365 6.2691 8.05629Z" fill="black"/>
</svg>
