<svg width="24" height="24" viewBox="0 0 24 24" fill="none" xmlns="http://www.w3.org/2000/svg">
<path fill-rule="evenodd" clip-rule="evenodd" d="M11.6983 3.75C8.06182 3.75 4.63698 4.65523 1.63954 6.25192C1.25516 6.45667 1.13778 6.94218 1.36611 7.3031L6.2067 14.9544C6.41515 15.2839 6.83371 15.3919 7.17638 15.2344C7.86192 14.9195 8.58631 14.6739 9.34052 14.5068L11.1468 17.9816C11.018 18.1163 10.9388 18.2989 10.9388 18.5C10.9388 18.9142 11.2746 19.25 11.6888 19.25C12.103 19.25 12.4388 18.9142 12.4388 18.5C12.4388 18.0858 12.103 17.75 11.6888 17.75C11.6564 17.75 11.6244 17.7521 11.5931 17.7561L9.85185 14.4064C10.4518 14.3036 11.0687 14.25 11.6983 14.25C13.5434 14.25 15.2797 14.7102 16.7985 15.5213C17.1463 15.7071 17.5918 15.6072 17.81 15.2623L22.6338 7.63758C22.857 7.28472 22.7505 6.8108 22.3818 6.59825C19.2393 4.78679 15.5901 3.75 11.6983 3.75ZM9.61026 13.9417C10.2871 13.8158 10.985 13.75 11.6983 13.75C13.6275 13.75 15.4445 14.2314 17.034 15.0803C17.1632 15.1493 17.3166 15.107 17.3875 14.995L22.2112 7.37026C22.2868 7.25076 22.2476 7.09804 22.1321 7.03143C19.0636 5.26262 15.5002 4.25 11.6983 4.25C8.1457 4.25 4.80138 5.13417 1.87461 6.69321C1.75433 6.75728 1.71128 6.91348 1.78865 7.03578L6.62925 14.6871C6.69703 14.7943 6.84084 14.8383 6.96765 14.7801C7.64564 14.4686 8.35984 14.222 9.10217 14.0483L6.27795 8.61524C6.21427 8.49273 6.26196 8.34179 6.38446 8.27811C6.50697 8.21443 6.65791 8.26211 6.72159 8.38462L9.61026 13.9417Z" fill="black"/>
</svg>
