<svg width="24" height="24" viewBox="0 0 24 24" fill="none" xmlns="http://www.w3.org/2000/svg">
<path d="M11.6979 2.75C7.89364 2.75 4.30776 3.69736 1.16899 5.36933C0.256419 5.85544 -0.00962946 6.99958 0.520628 7.83774L5.36122 15.4891C5.851 16.2633 6.81904 16.4989 7.59344 16.1431C7.76149 16.0659 7.93213 15.9933 8.1052 15.9254L4.72481 9.42246C4.21535 8.44239 4.59685 7.2349 5.57692 6.72544C6.55698 6.21598 7.76448 6.59748 8.27394 7.57754L12.2707 15.2663C13.7335 15.35 15.1077 15.7523 16.327 16.4034C17.1122 16.8228 18.1418 16.6077 18.6547 15.7969L23.4784 8.17222C23.9969 7.35264 23.7558 6.23632 22.8808 5.73189C19.5904 3.83512 15.7694 2.75 11.6979 2.75Z" fill="black"/>
<path d="M6.03814 7.61277C6.52817 7.35804 7.13192 7.54879 7.38665 8.03882L11.9231 16.7657C12.7786 16.8804 13.4384 17.6132 13.4384 18.5001C13.4384 19.4666 12.6549 20.2501 11.6884 20.2501C10.7219 20.2501 9.93837 19.4666 9.93837 18.5001C9.93837 18.2029 10.0125 17.923 10.1432 17.6779L5.61209 8.96128C5.35736 8.47125 5.54811 7.8675 6.03814 7.61277Z" fill="black"/>
</svg>
