<svg width="24" height="24" viewBox="0 0 24 24" fill="none" xmlns="http://www.w3.org/2000/svg">
<path d="M4.3889 3.75H19.6111C20.0217 3.75 20.3453 3.75 20.6056 3.77127C20.8711 3.79297 21.0929 3.83804 21.2945 3.94074C21.6238 4.10852 21.8915 4.37623 22.0593 4.70552C22.162 4.90707 22.207 5.12886 22.2287 5.39444C22.25 5.65476 22.25 5.97823 22.25 6.38884V14.6111C22.25 15.0217 22.25 15.3452 22.2287 15.6056C22.207 15.8711 22.162 16.0929 22.0593 16.2945C21.8915 16.6238 21.6238 16.8915 21.2945 17.0593C21.0929 17.162 20.8711 17.207 20.6056 17.2287C20.3452 17.25 20.0217 17.25 19.6111 17.25H17.999C17.9958 17.083 17.985 16.9161 17.9665 16.75H19.6C20.0242 16.75 20.3273 16.7498 20.5648 16.7304C20.7995 16.7112 20.9482 16.6746 21.0675 16.6138C21.3027 16.4939 21.4939 16.3027 21.6138 16.0675C21.6746 15.9482 21.7112 15.7995 21.7304 15.5648C21.7498 15.3273 21.75 15.0242 21.75 14.6V6.4C21.75 5.97584 21.7498 5.67275 21.7304 5.43516C21.7112 5.20049 21.6746 5.05183 21.6138 4.93251C21.4939 4.69731 21.3027 4.50608 21.0675 4.38624C20.9482 4.32545 20.7995 4.28878 20.5648 4.26961C20.3273 4.25019 20.0242 4.25 19.6 4.25H4.4C3.97584 4.25 3.67275 4.25019 3.43516 4.26961C3.20049 4.28878 3.05183 4.32545 2.93251 4.38624C2.69731 4.50608 2.50608 4.69731 2.38624 4.93251C2.32545 5.05183 2.28878 5.20049 2.26961 5.43516C2.25019 5.67275 2.25 5.97584 2.25 6.4V14.6C2.25 15.0242 2.25019 15.3273 2.26961 15.5648C2.28878 15.7995 2.32545 15.9482 2.38624 16.0675C2.50608 16.3027 2.69731 16.4939 2.93251 16.6138C3.05183 16.6746 3.20049 16.7112 3.43516 16.7304C3.67275 16.7498 3.97584 16.75 4.4 16.75H7.45357C7.47923 16.9156 7.49425 17.0826 7.49864 17.25H4.38889C3.97826 17.25 3.65477 17.25 3.39444 17.2287C3.12886 17.207 2.90707 17.162 2.70552 17.0593C2.37623 16.8915 2.10852 16.6238 1.94074 16.2945C1.83804 16.0929 1.79297 15.8711 1.77127 15.6056C1.75 15.3453 1.75 15.0218 1.75 14.6113V6.3889C1.75 5.97834 1.75 5.65474 1.77127 5.39444C1.79297 5.12886 1.83804 4.90707 1.94074 4.70552C2.10852 4.37623 2.37623 4.10852 2.70552 3.94074C2.90707 3.83804 3.12886 3.79297 3.39444 3.77127C3.65474 3.75 3.97834 3.75 4.3889 3.75Z" fill="black"/>
<path d="M16.4536 16.75C16.4792 16.9156 16.4942 17.0826 16.4986 17.25H13.499C13.4958 17.083 13.485 16.9161 13.4665 16.75H16.4536Z" fill="black"/>
<path d="M11.9536 16.75C11.9792 16.9156 11.9943 17.0826 11.9986 17.25H8.99901C8.99584 17.083 8.985 16.9161 8.9665 16.75H11.9536Z" fill="black"/>
<path d="M7.44426 8.90739C7.53117 8.8001 7.51464 8.64268 7.40735 8.55577C7.30006 8.46887 7.14264 8.48539 7.05573 8.59268C5.64808 10.3305 5.64808 12.9053 7.05573 14.6431C8.31475 16.1974 8.31475 18.5098 7.05573 20.0641C6.96882 20.1714 6.98535 20.3288 7.09264 20.4157C7.19993 20.5026 7.35736 20.4861 7.44426 20.3788C8.85191 18.641 8.85191 16.0662 7.44426 14.3284C6.18524 12.7741 6.18524 10.4617 7.44426 8.90739Z" fill="black"/>
<path d="M11.9443 8.9075C12.0312 8.80021 12.0146 8.64279 11.9074 8.55588C11.8001 8.46897 11.6426 8.4855 11.5557 8.59279C10.1481 10.3306 10.1481 12.9054 11.5557 14.6432C12.8147 16.1975 12.8147 18.5098 11.5557 20.0641C11.4688 20.1714 11.4853 20.3288 11.5926 20.4157C11.6999 20.5026 11.8574 20.4861 11.9443 20.3788C13.3519 18.641 13.3519 16.0662 11.9443 14.3284C10.6852 12.7741 10.6852 10.4618 11.9443 8.9075Z" fill="black"/>
<path d="M16.4074 8.55585C16.5146 8.64276 16.5312 8.80019 16.4443 8.90747C15.1852 10.4618 15.1852 12.7741 16.4443 14.3284C17.8519 16.0662 17.8519 18.641 16.4443 20.3788C16.3574 20.4861 16.1999 20.5026 16.0926 20.4157C15.9853 20.3288 15.9688 20.1714 16.0557 20.0641C17.3148 18.5098 17.3148 16.1974 16.0557 14.6431C14.6481 12.9053 14.6481 10.3306 16.0557 8.59276C16.1426 8.48547 16.3001 8.46895 16.4074 8.55585Z" fill="black"/>
</svg>
