<svg width="25" height="24" viewBox="0 0 25 24" fill="none" xmlns="http://www.w3.org/2000/svg">
<path d="M6.29971 3.52443C6.03709 3.03858 5.43034 2.85762 4.94449 3.12024C4.45864 3.38286 4.27768 3.98962 4.5403 4.47547C4.86923 5.08399 5.12086 5.72186 5.29519 6.37527L1.10505 7.94657C0.523287 8.16473 0.22853 8.81319 0.44669 9.39495C0.664851 9.97671 1.31331 10.2715 1.89507 10.0533L5.5899 8.66775C5.58718 9.22383 5.53135 9.77972 5.42241 10.3276L1.10505 11.9466C0.523287 12.1647 0.22853 12.8132 0.44669 13.395C0.664851 13.9767 1.31331 14.2715 1.89507 14.0533L4.35641 13.1303C4.05885 13.7335 3.82132 14.3577 3.6438 14.9945L1.10505 15.9466C0.523287 16.1647 0.22853 16.8132 0.44669 17.395C0.664851 17.9767 1.31331 18.2715 1.89507 18.0533L3.25512 17.5433C3.23891 18.0678 3.26117 18.5933 3.32189 19.1153L1.10505 19.9466C0.523287 20.1647 0.22853 20.8132 0.44669 21.395C0.664851 21.9767 1.31331 22.2715 1.89507 22.0533L3.82178 21.3308C4.01322 21.8932 4.25272 22.4434 4.5403 22.9755C4.80292 23.4613 5.40967 23.6423 5.89552 23.3797C6.38137 23.117 6.56233 22.5103 6.29971 22.0244C6.05583 21.5732 5.85444 21.1059 5.69555 20.6281L9.89507 19.0533C10.4768 18.8351 10.7716 18.1867 10.5534 17.6049C10.3353 17.0232 9.68681 16.7284 9.10505 16.9466L5.265 18.3866C5.23335 17.8472 5.25179 17.3056 5.32033 16.7688L9.89507 15.0533C10.4768 14.8351 10.7716 14.1867 10.5534 13.6049C10.3353 13.0232 9.68681 12.7284 9.10505 12.9466L6.12632 14.0636C6.18151 13.95 6.23931 13.8372 6.29971 13.7255C6.57724 13.212 6.80999 12.6816 6.99798 12.1397L9.89507 11.0533C10.4768 10.8351 10.7716 10.1867 10.5534 9.60492C10.3353 9.02316 9.68681 8.72841 9.10505 8.94657L7.55188 9.52901C7.59694 8.99582 7.60206 8.46002 7.56725 7.92624L9.89507 7.05331C10.4768 6.83515 10.7716 6.18668 10.5534 5.60492C10.3353 5.02316 9.68681 4.72841 9.10505 4.94657L7.17522 5.67025C6.96403 4.93321 6.67219 4.21352 6.29971 3.52443Z" fill="black"/>
<path fill-rule="evenodd" clip-rule="evenodd" d="M12.954 4.84495C13.055 3.93687 13.8226 3.24994 14.7363 3.24994H15.9294C20.7619 3.24994 24.6794 7.16745 24.6794 11.9999C24.6794 16.8324 20.7619 20.7499 15.9294 20.7499H14.7363C13.8226 20.7499 13.055 20.063 12.954 19.1549L12.8401 18.1317C12.3867 14.0564 12.3867 9.94344 12.8401 5.86816L12.954 4.84495ZM15.3687 5.74994L15.3248 6.14462C14.8918 10.0362 14.8918 13.9637 15.3248 17.8553L15.3687 18.2499H15.9294C19.3812 18.2499 22.1794 15.4517 22.1794 11.9999C22.1794 8.54816 19.3812 5.74994 15.9294 5.74994H15.3687Z" fill="black"/>
</svg>
