<svg width="24" height="24" viewBox="0 0 24 24" fill="none" xmlns="http://www.w3.org/2000/svg">
<path d="M6.84041 14.5535C6.8404 14.5535 6.84036 14.5534 6.84041 14.5535Z" fill="black"/>
<path fill-rule="evenodd" clip-rule="evenodd" d="M11.6982 3.5C8.01977 3.5 4.55467 4.41576 1.5219 6.03127C1.00547 6.30636 0.850928 6.95653 1.15474 7.43676L5.99533 15.0881C6.27411 15.5288 6.83004 15.6686 7.28065 15.4616C7.89348 15.18 8.53815 14.9552 9.20795 14.794L10.7222 17.7071C10.545 17.9229 10.4387 18.199 10.4387 18.5C10.4387 19.1903 10.9983 19.75 11.6887 19.75C12.379 19.75 12.9387 19.1903 12.9387 18.5C12.9387 17.8096 12.379 17.25 11.6887 17.25C11.6632 17.25 11.6379 17.2507 11.6128 17.2522L10.2342 14.6002C10.7126 14.5341 11.2013 14.5 11.6982 14.5C13.5013 14.5 15.1973 14.9496 16.6806 15.7419C17.1378 15.986 17.7293 15.8574 18.0212 15.3959L22.8449 7.77124C23.142 7.3017 23.0018 6.66718 22.5065 6.38166C19.3271 4.54887 15.6349 3.5 11.6982 3.5ZM9.74727 13.6634C10.3816 13.5559 11.0335 13.5 11.6982 13.5C13.6694 13.5 15.5268 13.992 17.1517 14.8598C17.1593 14.8638 17.1667 14.8643 17.1724 14.8628C17.1744 14.8623 17.1756 14.8618 17.176 14.8615L21.9965 7.24191C18.9675 5.49821 15.4508 4.5 11.6982 4.5C8.19214 4.5 4.89215 5.37135 2.00342 6.9078L6.84041 14.5535C6.8404 14.5535 6.84036 14.5534 6.84041 14.5535C6.84079 14.5537 6.84192 14.5544 6.84376 14.5549C6.84882 14.5563 6.85578 14.5563 6.86318 14.5529C7.46105 14.2782 8.08644 14.0529 8.734 13.8823L6.05603 8.73054C5.92867 8.48553 6.02404 8.18365 6.26906 8.05629C6.51407 7.92892 6.81595 8.0243 6.94331 8.26932L9.74727 13.6634Z" fill="black"/>
</svg>
