<svg width="24" height="24" viewBox="0 0 24 24" fill="none" xmlns="http://www.w3.org/2000/svg">
<path d="M5.85998 3.76228C5.72867 3.51935 5.42529 3.42887 5.18237 3.56018C4.93944 3.69149 4.84896 3.99487 4.98027 4.23779C5.5392 5.27181 5.88702 6.38594 6.02373 7.51966L1.32457 9.28184C1.06601 9.3788 0.935011 9.66701 1.03197 9.92557C1.12893 10.1841 1.41714 10.3151 1.6757 10.2182L6.08992 8.56284C6.09573 9.42465 5.98089 10.2871 5.74542 11.124L1.32457 12.7818C1.06601 12.8788 0.935011 13.167 1.03197 13.4256C1.12893 13.6841 1.41714 13.8151 1.6757 13.7182L5.30098 12.3587C5.20317 12.5796 5.09627 12.7977 4.98027 13.0123C4.59404 13.7268 4.29876 14.4758 4.09443 15.2431L1.32457 16.2818C1.06601 16.3788 0.935011 16.667 1.03197 16.9256C1.12893 17.1841 1.41714 17.3151 1.6757 17.2182L3.85694 16.4002C3.7385 17.2134 3.71855 18.0377 3.79711 18.8546L1.32457 19.7818C1.06601 19.8788 0.935011 20.167 1.03197 20.4256C1.12893 20.6841 1.41714 20.8151 1.6757 20.7182L3.94584 19.8669C4.14248 20.8575 4.48729 21.8258 4.98027 22.7378C5.11158 22.9807 5.41496 23.0712 5.65789 22.9399C5.90081 22.8086 5.99129 22.5052 5.85998 22.2623C5.38844 21.3899 5.06715 20.4606 4.89613 19.5105L9.6757 17.7182C9.93426 17.6212 10.0653 17.333 9.9683 17.0744C9.87134 16.8159 9.58313 16.6849 9.32457 16.7818L4.77059 18.4896C4.71494 17.6551 4.77277 16.8148 4.94409 15.9925L9.6757 14.2182C9.93426 14.1212 10.0653 13.833 9.9683 13.5744C9.87134 13.3159 9.58313 13.1849 9.32457 13.2818L5.2777 14.7994C5.43612 14.3515 5.63021 13.9129 5.85998 13.4878C6.13954 12.9706 6.37145 12.4353 6.55571 11.8882L9.6757 10.7182C9.93426 10.6212 10.0653 10.333 9.9683 10.0744C9.87134 9.81588 9.58313 9.68488 9.32457 9.78184L6.87767 10.6994C7.04878 9.87309 7.11654 9.03045 7.08093 8.19121L9.6757 7.21817C9.93426 7.12121 10.0653 6.833 9.9683 6.57444C9.87134 6.31588 9.58313 6.18488 9.32457 6.28184L6.98463 7.15932C6.8148 5.98584 6.43992 4.83516 5.85998 3.76228Z" fill="black"/>
<path d="M13.9864 4.00001C13.4548 4.00001 13.0082 4.39965 12.9495 4.92795L12.8356 5.95117C12.3883 9.97132 12.3883 14.0287 12.8356 18.0488L12.9495 19.0721C13.0082 19.6004 13.4548 20 13.9864 20H15.1795C19.5977 20 23.1795 16.4183 23.1795 12C23.1795 7.58173 19.5977 4.00001 15.1795 4.00001H13.9864Z" fill="black"/>
</svg>
