<svg width="24" height="24" viewBox="0 0 24 24" fill="none" xmlns="http://www.w3.org/2000/svg">
<path d="M4.37109 3.25C3.97577 3.24999 3.63464 3.24998 3.35373 3.27293C3.05722 3.29716 2.76231 3.35064 2.47852 3.49524C2.05516 3.71095 1.71095 4.05516 1.49524 4.47852C1.35064 4.76231 1.29716 5.05722 1.27293 5.35373C1.24998 5.63464 1.24999 5.97569 1.25 6.37101V14.6289C1.24999 15.0242 1.24998 15.3654 1.27293 15.6463C1.29716 15.9428 1.35064 16.2377 1.49524 16.5215C1.71095 16.9448 2.05516 17.2891 2.47852 17.5048C2.76231 17.6494 3.05722 17.7029 3.35373 17.7271C3.63466 17.75 3.97572 17.75 4.37108 17.75H5.71382C5.82231 17.1627 5.68683 16.5277 5.30735 16.0592C3.23089 13.4957 3.23089 9.73991 5.30735 7.1764C6.17641 6.1035 7.75067 5.93826 8.82357 6.80731C9.10548 7.03567 9.32474 7.31272 9.47902 7.61656C9.582 7.46644 9.69144 7.31962 9.80736 7.17651C10.6764 6.10362 12.2507 5.93838 13.3236 6.80744C13.6055 7.03578 13.8247 7.31281 13.979 7.61664C14.082 7.4665 14.1914 7.31967 14.3074 7.17655C15.1764 6.10366 16.7507 5.93842 17.8236 6.80748C18.8965 7.67654 19.0617 9.2508 18.1926 10.3237C17.6025 11.0523 17.6025 12.1836 18.1926 12.9122C19.3178 14.3012 19.8332 16.0402 19.7391 17.75C20.0879 17.7498 20.3918 17.7479 20.6463 17.7271C20.9428 17.7029 21.2377 17.6494 21.5215 17.5048C21.9448 17.2891 22.2891 16.9448 22.5048 16.5215C22.6494 16.2377 22.7028 15.9428 22.7271 15.6463C22.75 15.3654 22.75 15.0243 22.75 14.629V6.37108C22.75 5.97576 22.75 5.63463 22.7271 5.35373C22.7028 5.05722 22.6494 4.76231 22.5048 4.47852C22.2891 4.05516 21.9448 3.71095 21.5215 3.49524C21.2377 3.35064 20.9428 3.29716 20.6463 3.27293C20.3654 3.24998 20.0243 3.24999 19.629 3.25H4.37109Z" fill="black"/>
<path d="M8.22133 9.53683C8.65586 9.00038 8.57323 8.21324 8.03678 7.77872C7.50033 7.34419 6.7132 7.42681 6.27868 7.96326C4.57378 10.0681 4.57378 13.1677 6.27868 15.2725C7.24044 16.4599 7.24044 18.2473 6.27868 19.4347C5.84415 19.9711 5.92677 20.7582 6.46322 21.1928C6.99967 21.6273 7.7868 21.5447 8.22133 21.0082C9.92623 18.9034 9.92623 15.8038 8.22133 13.699C7.25956 12.5116 7.25956 10.7242 8.22133 9.53683Z" fill="black"/>
<path d="M12.7213 9.53694C13.1559 9.00049 13.0732 8.21336 12.5368 7.77883C12.0003 7.3443 11.2132 7.42692 10.7787 7.96336C9.07378 10.0681 9.07378 13.1678 10.7787 15.2726C11.7404 16.4599 11.7404 18.2473 10.7787 19.4347C10.3441 19.9711 10.4268 20.7583 10.9632 21.1928C11.4997 21.6273 12.2868 21.5447 12.7213 21.0082C14.4262 18.9035 14.4262 15.8038 12.7213 13.699C11.7596 12.5117 11.7596 10.7243 12.7213 9.53694Z" fill="black"/>
<path d="M17.0368 7.7788C17.5732 8.21333 17.6559 9.00046 17.2213 9.53691C16.2596 10.7242 16.2596 12.5117 17.2213 13.699C18.9262 15.8038 18.9262 18.9034 17.2213 21.0082C16.7868 21.5447 15.9997 21.6273 15.4632 21.1928C14.9268 20.7582 14.8441 19.9711 15.2787 19.4346C16.2404 18.2473 16.2404 16.4599 15.2787 15.2726C13.5738 13.1678 13.5738 10.0681 15.2787 7.96334C15.7132 7.42689 16.5003 7.34427 17.0368 7.7788Z" fill="black"/>
</svg>
