<svg width="24" height="24" viewBox="0 0 24 24" fill="none" xmlns="http://www.w3.org/2000/svg">
<path d="M4.35765 2.75H19.6424C20.0259 2.74997 20.3852 2.74994 20.687 2.77459C21.0144 2.80134 21.3825 2.86324 21.7485 3.04974C22.2659 3.31339 22.6866 3.73409 22.9503 4.25153C23.1368 4.61755 23.1987 4.98559 23.2254 5.31302C23.2501 5.61477 23.25 5.9741 23.25 6.35763V14.6424C23.25 15.0259 23.2501 15.3852 23.2254 15.687C23.1987 16.0144 23.1368 16.3825 22.9503 16.7485C22.6866 17.2659 22.2659 17.6866 21.7485 17.9503C21.3825 18.1368 21.0144 18.1987 20.687 18.2254C20.3988 18.249 20.0581 18.25 19.694 18.25C19.7984 17.4177 19.7568 16.5696 19.5691 15.75H19.6C20.0407 15.75 20.296 15.749 20.4834 15.7337C20.566 15.727 20.6097 15.7189 20.6278 15.7149C20.6636 15.6936 20.6936 15.6636 20.7149 15.6278C20.7189 15.6097 20.727 15.566 20.7337 15.4834C20.749 15.296 20.75 15.0407 20.75 14.6V6.4C20.75 5.95934 20.749 5.70402 20.7337 5.5166C20.727 5.43402 20.7189 5.39035 20.7149 5.37218C20.6936 5.33637 20.6636 5.30645 20.6278 5.28515C20.6097 5.28109 20.566 5.27304 20.4834 5.26629C20.296 5.25098 20.0407 5.25 19.6 5.25H4.4C3.95934 5.25 3.70402 5.25098 3.5166 5.26629C3.43402 5.27304 3.39035 5.28109 3.37218 5.28515C3.33637 5.30646 3.30646 5.33637 3.28515 5.37218C3.28109 5.39035 3.27304 5.43402 3.26629 5.5166C3.25098 5.70402 3.25 5.95934 3.25 6.4V14.6C3.25 15.0407 3.25098 15.296 3.26629 15.4834C3.27304 15.566 3.28109 15.6097 3.28515 15.6278C3.30646 15.6636 3.33638 15.6936 3.37218 15.7149C3.39035 15.7189 3.43402 15.727 3.5166 15.7337C3.70402 15.749 3.95934 15.75 4.4 15.75H5.071C5.14654 15.8548 5.22533 15.958 5.30735 16.0592C5.79833 16.6654 5.88087 17.5502 5.55497 18.25L4.35766 18.25C3.97413 18.25 3.61477 18.2501 3.31302 18.2254C2.98559 18.1987 2.61755 18.1368 2.25153 17.9503C1.73409 17.6866 1.31339 17.2659 1.04974 16.7485C0.863241 16.3825 0.801344 16.0144 0.774592 15.687C0.749938 15.3852 0.749969 15.0259 0.750002 14.6424V6.35765C0.749969 5.97412 0.749938 5.61477 0.774592 5.31302C0.801344 4.98559 0.863241 4.61755 1.04974 4.25153C1.31339 3.73409 1.73409 3.31339 2.25153 3.04974C2.61755 2.86324 2.98559 2.80134 3.31302 2.77459C3.61477 2.74994 3.97412 2.74997 4.35765 2.75Z" fill="black"/>
<path d="M8.22133 9.53682C8.65585 9.00037 8.57323 8.21324 8.03678 7.77872C7.50033 7.34419 6.7132 7.42681 6.27867 7.96326C4.57378 10.0681 4.57378 13.1677 6.27867 15.2725C7.24044 16.4599 7.24044 18.2473 6.27867 19.4347C5.84415 19.9711 5.92677 20.7582 6.46322 21.1928C6.99967 21.6273 7.7868 21.5447 8.22133 21.0082C9.92622 18.9034 9.92623 15.8038 8.22133 13.699C7.25956 12.5116 7.25956 10.7242 8.22133 9.53682Z" fill="black"/>
<path d="M12.7213 9.53694C13.1559 9.00049 13.0732 8.21336 12.5368 7.77883C12.0003 7.3443 11.2132 7.42692 10.7787 7.96336C9.07377 10.0681 9.07377 13.1678 10.7787 15.2726C11.7404 16.4599 11.7404 18.2473 10.7787 19.4347C10.3441 19.9711 10.4268 20.7582 10.9632 21.1928C11.4997 21.6273 12.2868 21.5447 12.7213 21.0082C14.4262 18.9035 14.4262 15.8038 12.7213 13.699C11.7596 12.5117 11.7596 10.7243 12.7213 9.53694Z" fill="black"/>
<path d="M17.0368 7.7788C17.5732 8.21333 17.6559 9.00046 17.2213 9.53691C16.2596 10.7242 16.2596 12.5117 17.2213 13.699C18.9262 15.8038 18.9262 18.9034 17.2213 21.0082C16.7868 21.5447 15.9997 21.6273 15.4632 21.1928C14.9268 20.7582 14.8441 19.9711 15.2787 19.4346C16.2404 18.2473 16.2404 16.4599 15.2787 15.2726C13.5738 13.1678 13.5738 10.0681 15.2787 7.96334C15.7132 7.42689 16.5003 7.34427 17.0368 7.7788Z" fill="black"/>
</svg>
