<svg width="24" height="24" viewBox="0 0 24 24" fill="none" xmlns="http://www.w3.org/2000/svg">
<path d="M4.37109 3.25C3.97577 3.24999 3.63464 3.24998 3.35373 3.27293C3.05722 3.29716 2.76231 3.35064 2.47852 3.49524C2.05516 3.71095 1.71095 4.05516 1.49524 4.47852C1.35064 4.76231 1.29716 5.05722 1.27293 5.35373C1.24998 5.63464 1.24999 5.97569 1.25 6.37101V14.6289C1.24999 15.0242 1.24998 15.3654 1.27293 15.6463C1.29716 15.9428 1.35064 16.2377 1.49524 16.5215C1.71095 16.9448 2.05516 17.2891 2.47852 17.5048C2.76231 17.6494 3.05722 17.7029 3.35373 17.7271C3.63466 17.75 3.97572 17.75 4.37108 17.75H7.48004C7.57929 16.7671 7.30834 15.7492 6.6672 14.9577C5.11093 13.0364 5.11093 10.1992 6.6672 8.27789C6.92792 7.95602 7.4002 7.90645 7.72207 8.16716C8.04394 8.42788 8.09351 8.90016 7.83279 9.22203C6.7224 10.5929 6.7224 12.6428 7.83279 14.0136C8.69745 15.0811 9.0817 16.4312 8.98557 17.75H11.9801C12.0793 16.7672 11.8083 15.7493 11.1672 14.9578C9.61093 13.0365 9.61093 10.1993 11.1672 8.27801C11.4279 7.95614 11.9002 7.90657 12.2221 8.16729C12.5439 8.42801 12.5935 8.90029 12.3328 9.22215C11.2224 10.593 11.2224 12.6428 12.3328 14.0137C13.1974 15.0811 13.5817 16.4313 13.4856 17.75H16.4801C16.5793 16.7672 16.3083 15.7493 15.6672 14.9578C14.1109 13.0366 14.1109 10.1993 15.6672 8.27805C15.9279 7.95618 16.4002 7.90661 16.7221 8.16733C17.0439 8.42804 17.0935 8.90032 16.8328 9.22219C15.7224 10.593 15.7224 12.6429 16.8328 14.0137C17.6974 15.0811 18.0817 16.4313 17.9856 17.75H19.6289C20.0243 17.75 20.3653 17.75 20.6463 17.7271C20.9428 17.7029 21.2377 17.6494 21.5215 17.5048C21.9448 17.2891 22.2891 16.9448 22.5048 16.5215C22.6494 16.2377 22.7028 15.9428 22.7271 15.6463C22.75 15.3654 22.75 15.0243 22.75 14.629V6.37108C22.75 5.97576 22.75 5.63463 22.7271 5.35373C22.7028 5.05722 22.6494 4.76231 22.5048 4.47852C22.2891 4.05516 21.9448 3.71095 21.5215 3.49524C21.2377 3.35064 20.9428 3.29716 20.6463 3.27293C20.3654 3.24998 20.0243 3.24999 19.629 3.25H4.37109Z" fill="black"/>
<path d="M7.44426 8.90739C7.53117 8.8001 7.51464 8.64268 7.40735 8.55577C7.30006 8.46887 7.14264 8.48539 7.05573 8.59268C5.64809 10.3305 5.64809 12.9053 7.05573 14.6431C8.31475 16.1974 8.31475 18.5098 7.05573 20.0641C6.96883 20.1714 6.98535 20.3288 7.09264 20.4157C7.19993 20.5026 7.35736 20.4861 7.44426 20.3788C8.85191 18.641 8.85191 16.0662 7.44426 14.3284C6.18524 12.7741 6.18524 10.4617 7.44426 8.90739Z" fill="black"/>
<path d="M11.9443 8.9075C12.0312 8.80021 12.0146 8.64279 11.9074 8.55588C11.8001 8.46898 11.6426 8.4855 11.5557 8.59279C10.1481 10.3306 10.1481 12.9054 11.5557 14.6432C12.8148 16.1975 12.8148 18.5098 11.5557 20.0641C11.4688 20.1714 11.4854 20.3288 11.5926 20.4157C11.6999 20.5026 11.8574 20.4861 11.9443 20.3788C13.3519 18.641 13.3519 16.0662 11.9443 14.3284C10.6852 12.7741 10.6852 10.4618 11.9443 8.9075Z" fill="black"/>
<path d="M16.4074 8.55585C16.5146 8.64276 16.5312 8.80019 16.4443 8.90748C15.1852 10.4618 15.1852 12.7741 16.4443 14.3284C17.8519 16.0662 17.8519 18.641 16.4443 20.3788C16.3574 20.4861 16.1999 20.5026 16.0926 20.4157C15.9854 20.3288 15.9688 20.1714 16.0557 20.0641C17.3148 18.5098 17.3148 16.1974 16.0557 14.6431C14.6481 12.9053 14.6481 10.3306 16.0557 8.59276C16.1426 8.48547 16.3001 8.46895 16.4074 8.55585Z" fill="black"/>
</svg>
