<svg width="24" height="24" viewBox="0 0 24 24" fill="none" xmlns="http://www.w3.org/2000/svg">
<path d="M5.85998 3.76222C5.72867 3.51929 5.42529 3.42881 5.18237 3.56012C4.93944 3.69143 4.84896 3.99481 4.98027 4.23773C5.5392 5.27175 5.88702 6.38588 6.02373 7.5196L1.32457 9.28178C1.06601 9.37874 0.935011 9.66695 1.03197 9.92551C1.12893 10.1841 1.41714 10.3151 1.6757 10.2181L6.08992 8.56278C6.09573 9.42459 5.98089 10.287 5.74542 11.124L1.32457 12.7818C1.06601 12.8787 0.935011 13.1669 1.03197 13.4255C1.12893 13.6841 1.41714 13.8151 1.6757 13.7181L5.30098 12.3586C5.20317 12.5796 5.09627 12.7976 4.98027 13.0122C4.59404 13.7267 4.29876 14.4758 4.09443 15.2431L1.32457 16.2818C1.06601 16.3787 0.935011 16.6669 1.03197 16.9255C1.12893 17.1841 1.41714 17.3151 1.6757 17.2181L3.85694 16.4001C3.7385 17.2134 3.71855 18.0376 3.79711 18.8546L1.32457 19.7818C1.06601 19.8787 0.935011 20.1669 1.03197 20.4255C1.12893 20.6841 1.41714 20.8151 1.6757 20.7181L3.94584 19.8668C4.14248 20.8575 4.48729 21.8257 4.98027 22.7377C5.11158 22.9807 5.41496 23.0711 5.65789 22.9398C5.90081 22.8085 5.99129 22.5051 5.85998 22.2622C5.38844 21.3899 5.06715 20.4605 4.89613 19.5104L9.6757 17.7181C9.93426 17.6212 10.0653 17.3329 9.9683 17.0744C9.87134 16.8158 9.58313 16.6848 9.32457 16.7818L4.77059 18.4895C4.71494 17.6551 4.77277 16.8148 4.94409 15.9925L9.6757 14.2181C9.93426 14.1212 10.0653 13.8329 9.9683 13.5744C9.87134 13.3158 9.58313 13.1848 9.32457 13.2818L5.2777 14.7994C5.43612 14.3514 5.63021 13.9128 5.85998 13.4877C6.13954 12.9706 6.37145 12.4353 6.55571 11.8881L9.6757 10.7181C9.93426 10.6211 10.0653 10.3329 9.9683 10.0744C9.87134 9.81582 9.58313 9.68482 9.32457 9.78178L6.87767 10.6994C7.04878 9.87303 7.11654 9.03039 7.08093 8.19115L9.6757 7.21811C9.93426 7.12115 10.0653 6.83294 9.9683 6.57438C9.87134 6.31582 9.58313 6.18482 9.32457 6.28178L6.98463 7.15926C6.8148 5.98578 6.43992 4.83509 5.85998 3.76222Z" fill="black"/>
<path fill-rule="evenodd" clip-rule="evenodd" d="M12.9495 4.92789C13.0082 4.39959 13.4548 3.99995 13.9864 3.99995H15.1795C19.5977 3.99995 23.1795 7.58167 23.1795 11.9999C23.1795 16.4182 19.5977 19.9999 15.1795 19.9999H13.9864C13.4548 19.9999 13.0082 19.6003 12.9495 19.072L12.8356 18.0488C12.3883 14.0286 12.3883 9.97126 12.8356 5.95111L12.9495 4.92789ZM13.9864 4.99995C13.9643 4.99995 13.9458 5.01654 13.9433 5.03847L13.8295 6.06169C13.3904 10.0083 13.3904 13.9915 13.8295 17.9382L13.9433 18.9614C13.9458 18.9834 13.9643 18.9999 13.9864 18.9999H15.1795C19.0455 18.9999 22.1795 15.8659 22.1795 11.9999C22.1795 8.13395 19.0455 4.99995 15.1795 4.99995H13.9864Z" fill="black"/>
</svg>
