<svg width="24" height="24" viewBox="0 0 24 24" fill="none" xmlns="http://www.w3.org/2000/svg">
<path d="M6.18975 3.58397C5.95995 3.15885 5.42904 3.00051 5.00393 3.2303C4.57881 3.4601 4.42047 3.99101 4.65026 4.41612C5.0023 5.06739 5.26704 5.75178 5.44448 6.45287L1.1489 8.06371C0.631783 8.25763 0.369778 8.83404 0.563698 9.35116C0.757618 9.86828 1.33403 10.1303 1.85115 9.93637L5.71395 8.48782C5.72397 9.13516 5.66304 9.78336 5.53115 10.4204L1.1489 12.0637C0.631783 12.2576 0.369778 12.834 0.563698 13.3512C0.757618 13.8683 1.33403 14.1303 1.85115 13.9364L4.61489 12.9C4.24129 13.6029 3.95212 14.3374 3.74738 15.0893L1.1489 16.0637C0.631783 16.2576 0.369778 16.834 0.563698 17.3512C0.757618 17.8683 1.33403 18.1303 1.85115 17.9364L3.3875 17.3602C3.35772 17.9732 3.38115 18.5881 3.45779 19.1979L1.1489 20.0637C0.631783 20.2576 0.369778 20.834 0.563698 21.3512C0.757618 21.8683 1.33403 22.1303 1.85115 21.9364L3.89931 21.1683C4.09491 21.7667 4.34522 22.3518 4.65026 22.9161C4.88005 23.3412 5.41096 23.4996 5.83608 23.2698C6.2612 23.04 6.41954 22.5091 6.18975 22.084C5.92292 21.5903 5.70625 21.0777 5.53972 20.5532L9.85115 18.9364C10.3683 18.7424 10.6303 18.166 10.4364 17.6489C10.2424 17.1318 9.66602 16.8698 9.1489 17.0637L5.15172 18.5627C5.10285 17.9349 5.12101 17.303 5.20622 16.6782L9.85115 14.9364C10.3683 14.7424 10.6303 14.166 10.4364 13.6489C10.2424 13.1318 9.66602 12.8698 9.1489 13.0637L5.8844 14.2879C5.9776 14.0777 6.07938 13.8703 6.18975 13.6661C6.47349 13.1412 6.70988 12.5983 6.89893 12.0435L9.85115 10.9364C10.3683 10.7424 10.6303 10.166 10.4364 9.64891C10.2424 9.13179 9.66602 8.86979 9.1489 9.06371L7.40875 9.71627C7.47315 9.0934 7.48226 8.46613 7.43608 7.84202L9.85115 6.93637C10.3683 6.74245 10.6303 6.16603 10.4364 5.64891C10.2424 5.13179 9.66602 4.86979 9.1489 5.06371L7.09153 5.83522C6.88042 5.06123 6.57983 4.30562 6.18975 3.58397Z" fill="black"/>
<path d="M13.9863 4.00004C13.4547 4.00004 13.0081 4.39968 12.9493 4.92798L12.8355 5.9512C12.3882 9.97135 12.3882 14.0287 12.8355 18.0489L12.9493 19.0721C13.0081 19.6004 13.4547 20 13.9863 20H15.1794C19.5976 20 23.1794 16.4183 23.1794 12C23.1794 7.58176 19.5976 4.00004 15.1794 4.00004H13.9863Z" fill="black"/>
</svg>
