<svg width="24" height="24" viewBox="0 0 24 24" fill="none" xmlns="http://www.w3.org/2000/svg">
<path d="M6.07978 3.64338C5.88282 3.279 5.42775 3.14328 5.06337 3.34024C4.69898 3.53721 4.56326 3.99227 4.76022 4.35666C5.15588 5.08862 5.4428 5.86183 5.62099 6.65363L1.23662 8.29777C0.848776 8.44321 0.652272 8.87552 0.797712 9.26336C0.943152 9.6512 1.37546 9.8477 1.7633 9.70226L5.82887 8.17768C5.87029 9.00861 5.79622 9.84399 5.60667 10.659L1.23662 12.2978C0.848776 12.4432 0.652272 12.8755 0.797712 13.2634C0.943152 13.6512 1.37546 13.8477 1.7633 13.7023L4.95864 12.504C4.89585 12.635 4.82972 12.7648 4.76022 12.8934C4.33896 13.6727 4.02331 14.4921 3.81328 15.3315L1.23662 16.2978C0.848776 16.4432 0.652272 16.8755 0.797712 17.2634C0.943152 17.6512 1.37546 17.8477 1.7633 17.7023L3.53342 17.0385C3.47026 17.8276 3.49662 18.6223 3.6125 19.4068L1.23662 20.2978C0.848776 20.4432 0.652272 20.8755 0.797712 21.2634C0.943152 21.6512 1.37546 21.8477 1.7633 21.7023L3.94164 20.8854C4.14457 21.5618 4.41743 22.2225 4.76023 22.8567C4.95719 23.221 5.41226 23.3568 5.77664 23.1598C6.14103 22.9628 6.27675 22.5078 6.07978 22.1434C5.7697 21.5697 5.5264 20.9707 5.34989 20.3573L9.7633 18.7023C10.1511 18.5568 10.3476 18.1245 10.2022 17.7367C10.0568 17.3488 9.62446 17.1523 9.23662 17.2978L5.05482 18.8659C4.96547 18.0609 4.98535 17.2465 5.11446 16.4456L9.7633 14.7023C10.1511 14.5568 10.3476 14.1245 10.2022 13.7367C10.0568 13.3488 9.62446 13.1523 9.23662 13.2978L5.59395 14.6638C5.73187 14.3039 5.89382 13.9507 6.07978 13.6067C6.39554 13.0225 6.65197 12.4158 6.84905 11.7951L9.7633 10.7023C10.1511 10.5568 10.3476 10.1245 10.2022 9.73667C10.0568 9.34883 9.62446 9.15233 9.23662 9.29777L7.24338 10.0452C7.35293 9.24399 7.36933 8.43296 7.29258 7.62878L9.7633 6.70226C10.1511 6.55682 10.3476 6.12451 10.2022 5.73667C10.0568 5.34883 9.62446 5.15233 9.23662 5.29777L7.03693 6.12265C6.82697 5.2689 6.50792 4.43544 6.07978 3.64338Z" fill="black"/>
<path fill-rule="evenodd" clip-rule="evenodd" d="M12.9508 4.90032C13.0237 4.24542 13.5773 3.75002 14.2362 3.75002H15.4293C19.9856 3.75002 23.6793 7.44367 23.6793 12C23.6793 16.5564 19.9856 20.25 15.4293 20.25H14.2362C13.5773 20.25 13.0237 19.7546 12.9508 19.0997L12.837 18.0765C12.3876 14.038 12.3876 9.96206 12.837 5.92353L12.9508 4.90032ZM14.4212 5.25002L14.3278 6.08941C13.8907 10.0177 13.8907 13.9823 14.3278 17.9106L14.4212 18.75H15.4293C19.1572 18.75 22.1793 15.7279 22.1793 12C22.1793 8.27209 19.1572 5.25002 15.4293 5.25002H14.4212Z" fill="black"/>
</svg>
