<svg width="24" height="24" viewBox="0 0 24 24" fill="none" xmlns="http://www.w3.org/2000/svg">
<path d="M6.29996 3.52449C6.03733 3.03864 5.43058 2.85768 4.94473 3.1203C4.45888 3.38292 4.27792 3.98968 4.54054 4.47553C4.86948 5.08405 5.12111 5.72192 5.29543 6.37533L1.10529 7.94663C0.523531 8.16479 0.228774 8.81325 0.446935 9.39501C0.665095 9.97677 1.31356 10.2715 1.89532 10.0534L5.59015 8.66781C5.58742 9.2239 5.53159 9.77978 5.42266 10.3276L1.10529 11.9466C0.523531 12.1648 0.228774 12.8133 0.446935 13.395C0.665095 13.9768 1.31356 14.2715 1.89532 14.0534L4.35666 13.1304C4.0591 13.7335 3.82156 14.3578 3.64404 14.9946L1.10529 15.9466C0.523531 16.1648 0.228774 16.8133 0.446935 17.395C0.665095 17.9768 1.31356 18.2715 1.89532 18.0534L3.25537 17.5434C3.23916 18.0679 3.26141 18.5933 3.32213 19.1153L1.10529 19.9466C0.523531 20.1648 0.228774 20.8133 0.446935 21.395C0.665095 21.9768 1.31356 22.2715 1.89532 22.0534L3.82202 21.3309C4.01346 21.8933 4.25297 22.4435 4.54054 22.9755C4.80316 23.4614 5.40992 23.6423 5.89577 23.3797C6.38161 23.1171 6.56258 22.5103 6.29996 22.0245C6.05607 21.5733 5.85469 21.106 5.6958 20.6282L9.89532 19.0534C10.4771 18.8352 10.7718 18.1867 10.5537 17.605C10.3355 17.0232 9.68705 16.7285 9.10529 16.9466L5.26524 18.3866C5.23359 17.8473 5.25204 17.3056 5.32057 16.7689L9.89532 15.0534C10.4771 14.8352 10.7718 14.1867 10.5537 13.605C10.3355 13.0232 9.68705 12.7285 9.10529 12.9466L6.12656 14.0637C6.18175 13.95 6.23955 13.8373 6.29995 13.7255C6.57748 13.2121 6.81024 12.6817 6.99822 12.1398L9.89532 11.0534C10.4771 10.8352 10.7718 10.1867 10.5537 9.60498C10.3355 9.02322 9.68705 8.72847 9.10529 8.94663L7.55212 9.52907C7.59718 8.99588 7.60231 8.46008 7.56749 7.9263L9.89532 7.05337C10.4771 6.83521 10.7718 6.18675 10.5537 5.60498C10.3355 5.02322 9.68705 4.72847 9.10529 4.94663L7.17546 5.67031C6.96427 4.93327 6.67244 4.21358 6.29996 3.52449Z" fill="black"/>
<path d="M13.9865 4C13.455 4 13.0084 4.39964 12.9496 4.92794L12.8358 5.95116C12.3885 9.97132 12.3885 14.0287 12.8358 18.0488L12.9496 19.0721C13.0084 19.6004 13.455 20 13.9865 20H15.1796C19.5979 20 23.1796 16.4183 23.1796 12C23.1796 7.58172 19.5979 4 15.1796 4H13.9865Z" fill="black"/>
</svg>
