<svg width="24" height="24" viewBox="0 0 24 24" fill="none" xmlns="http://www.w3.org/2000/svg">
<path fill-rule="evenodd" clip-rule="evenodd" d="M11.698 3C7.93568 3 4.39006 3.93683 1.28663 5.58997C0.506104 6.00575 0.277223 6.98523 0.731999 7.70408L5.57259 15.3554C5.99204 16.0184 6.82271 16.2221 7.48918 15.9159C7.99508 15.6835 8.52383 15.4917 9.07134 15.3446L10.3546 17.8132C10.2484 18.019 10.1885 18.2525 10.1885 18.5C10.1885 19.3284 10.8601 20 11.6885 20C12.5169 20 13.1885 19.3284 13.1885 18.5C13.1885 17.7478 12.6348 17.1249 11.9128 17.0166L10.8814 15.0325C11.1507 15.011 11.423 15 11.698 15C13.417 15 15.0323 15.4285 16.4448 16.1829C17.1207 16.5439 18.0043 16.3576 18.4435 15.6633L23.2673 8.03856C23.712 7.33566 23.5045 6.37994 22.756 5.94848C19.5026 4.07304 15.7246 3 11.698 3ZM9.89432 13.1336C10.483 13.0456 11.0853 13 11.698 13C13.5954 13 15.3928 13.4373 16.9919 14.217L21.2914 7.42088C18.4415 5.87735 15.1741 5 11.698 5C8.46843 5 5.41939 5.75727 2.71788 7.10223L7.0377 13.9304C7.39367 13.7817 7.75827 13.6495 8.13052 13.5347L5.7231 8.9035C5.50021 8.47473 5.66712 7.94645 6.09589 7.72356C6.52467 7.50067 7.05295 7.66758 7.27584 8.09635L9.89432 13.1336Z" fill="black"/>
</svg>
