<svg width="24" height="24" viewBox="0 0 24 24" fill="none" xmlns="http://www.w3.org/2000/svg">
<path d="M1.16899 5.36933C4.30776 3.69736 7.89364 2.75 11.6979 2.75C15.7694 2.75 19.5904 3.83512 22.8808 5.73189C23.7558 6.23632 23.9969 7.35264 23.4784 8.17222L18.6547 15.7969C18.1418 16.6077 17.1122 16.8228 16.327 16.4034C15.1077 15.7523 13.7335 15.35 12.2707 15.2663L10.9736 12.7709C11.2133 12.757 11.4548 12.75 11.6979 12.75C13.5545 12.75 15.3179 13.1604 16.8991 13.8959L20.936 7.51483C18.178 6.06888 15.0358 5.25 11.6979 5.25C8.60671 5.25 5.68364 5.95228 3.07815 7.20425L5.84588 11.5791L8.1052 15.9254C7.93213 15.9933 7.76149 16.0659 7.59344 16.1431C6.81904 16.4989 5.851 16.2633 5.36122 15.4891L0.520627 7.83774C-0.00962949 6.99958 0.256419 5.85544 1.16899 5.36933Z" fill="black"/>
<path d="M6.03816 7.61277C6.52819 7.35804 7.13194 7.54879 7.38667 8.03882L11.9231 16.7657C12.7786 16.8804 13.4384 17.6132 13.4384 18.5001C13.4384 19.4666 12.6549 20.2501 11.6884 20.2501C10.7219 20.2501 9.93839 19.4666 9.93839 18.5001C9.93839 18.2029 10.0125 17.923 10.1432 17.6779L5.6121 8.96128C5.35737 8.47125 5.54812 7.8675 6.03816 7.61277Z" fill="black"/>
</svg>
