<svg width="24" height="24" viewBox="0 0 24 24" fill="none" xmlns="http://www.w3.org/2000/svg">
<path fill-rule="evenodd" clip-rule="evenodd" d="M6.5 4C5.94772 4 5.5 4.44772 5.5 5V7C5.5 7.55228 5.94772 8 6.5 8H12.5C13.0523 8 13.5 7.55228 13.5 7V5C13.5 4.44772 13.0523 4 12.5 4H6.5ZM12.5 4.5H6.5C6.22386 4.5 6 4.72386 6 5V7C6 7.27614 6.22386 7.5 6.5 7.5H12.5C12.7761 7.5 13 7.27614 13 7V5C13 4.72386 12.7761 4.5 12.5 4.5Z" fill="black"/>
<path fill-rule="evenodd" clip-rule="evenodd" d="M15.75 9.25012V4C15.75 2.75736 14.7426 1.75 13.5 1.75H5.5C4.25736 1.75 3.25 2.75736 3.25 4V18.5C3.25 18.6381 3.13807 18.75 3 18.75C2.58579 18.75 2.25 19.0858 2.25 19.5V21C2.25 21.6904 2.80964 22.25 3.5 22.25H15.5C16.1904 22.25 16.75 21.6904 16.75 21V19.5C16.75 19.0858 16.4142 18.75 16 18.75C15.8619 18.75 15.75 18.6381 15.75 18.5V9.75013C16.0938 9.75069 16.359 9.75356 16.5773 9.76845C16.8435 9.78661 17.0215 9.82181 17.1697 9.88321C17.5985 10.0608 17.9392 10.4015 18.1168 10.8303C18.1782 10.9785 18.2134 11.1565 18.2316 11.4227C18.2499 11.6911 18.25 12.0306 18.25 12.5V14.75C18.25 15.5784 18.9216 16.25 19.75 16.25C20.5784 16.25 21.25 15.5784 21.25 14.75L21.25 7.29115C21.25 6.83468 21.2501 6.56238 21.1878 6.30317C21.1327 6.07359 21.0418 5.85412 20.9184 5.65281C20.7792 5.42552 20.5866 5.23299 20.2638 4.91025L19.1768 3.82322C19.0791 3.72559 18.9209 3.72559 18.8232 3.82322C18.7256 3.92085 18.7256 4.07915 18.8232 4.17678L19.886 5.23952C20.2403 5.59384 20.3875 5.74332 20.4921 5.91405C20.5881 6.07063 20.6588 6.24133 20.7016 6.4199C20.7484 6.61461 20.75 6.8244 20.75 7.32548V14.75C20.75 15.3023 20.3023 15.75 19.75 15.75C19.1977 15.75 18.75 15.3023 18.75 14.75V12.4906C18.75 12.0327 18.75 11.6761 18.7304 11.3887C18.7105 11.097 18.6696 10.8583 18.5787 10.639C18.3504 10.0876 17.9124 9.64963 17.361 9.42127C17.1417 9.33043 16.903 9.28951 16.6113 9.26961C16.3763 9.25357 16.0951 9.25065 15.75 9.25012ZM5.5 2.25C4.5335 2.25 3.75 3.0335 3.75 4V18.5C3.75 18.9142 3.41421 19.25 3 19.25C2.86193 19.25 2.75 19.3619 2.75 19.5V21C2.75 21.4142 3.08579 21.75 3.5 21.75H15.5C15.9142 21.75 16.25 21.4142 16.25 21V19.5C16.25 19.3619 16.1381 19.25 16 19.25C15.5858 19.25 15.25 18.9142 15.25 18.5V4C15.25 3.0335 14.4665 2.25 13.5 2.25H5.5Z" fill="black"/>
</svg>
