<svg width="24" height="24" viewBox="0 0 24 24" fill="none" xmlns="http://www.w3.org/2000/svg">
<path d="M6.75 4.5C6.33579 4.5 6 4.83579 6 5.25V7.75C6 8.16421 6.33579 8.5 6.75 8.5H12.25C12.6642 8.5 13 8.16421 13 7.75V5.25C13 4.83579 12.6642 4.5 12.25 4.5H6.75Z" fill="black"/>
<path fill-rule="evenodd" clip-rule="evenodd" d="M16.75 8.27716V4C16.75 2.20507 15.2949 0.75 13.5 0.75H5.5C3.70507 0.75 2.25 2.20508 2.25 4V17.9184C1.65876 18.1993 1.25 18.8019 1.25 19.5V21C1.25 22.2426 2.25736 23.25 3.5 23.25H15.5C16.7426 23.25 17.75 22.2426 17.75 21V19.5C17.75 18.8019 17.3412 18.1993 16.75 17.9184V10.7961C16.7742 10.8018 16.7844 10.806 16.7869 10.8071C16.9707 10.8832 17.1168 11.0292 17.1929 11.213C17.1956 11.2195 17.2193 11.2765 17.2339 11.4908C17.2493 11.7173 17.25 12.017 17.25 12.5V14.25C17.25 15.9069 18.5931 17.25 20.25 17.25C21.9069 17.25 23.25 15.9069 23.25 14.25L23.2501 7.23457C23.2506 6.83671 23.2511 6.44843 23.1602 6.06973C23.0806 5.73811 22.9493 5.42109 22.7711 5.13031C22.5676 4.79824 22.2927 4.52405 22.011 4.24309L20.8839 3.11612C20.3957 2.62796 19.6043 2.62796 19.1161 3.11612C18.628 3.60427 18.628 4.39573 19.1161 4.88388L20.1789 5.94662C20.5668 6.3346 20.6111 6.39021 20.6395 6.43655C20.6806 6.50366 20.7109 6.57682 20.7293 6.65334C20.742 6.7062 20.75 6.7768 20.75 7.32548V14.25C20.75 14.5261 20.5261 14.75 20.25 14.75C19.9739 14.75 19.75 14.5261 19.75 14.25V12.4619C19.75 12.0286 19.75 11.6425 19.7281 11.3206C19.7047 10.978 19.6523 10.6177 19.5026 10.2563C19.1728 9.45994 18.5401 8.82725 17.7437 8.49739C17.407 8.35792 17.0713 8.30293 16.75 8.27716ZM5.5 3.25C5.08579 3.25 4.75 3.58579 4.75 4V18.5C4.75 19.1981 4.34124 19.8007 3.75 20.0816V20.75H15.25V20.0816C14.6588 19.8007 14.25 19.1981 14.25 18.5V4C14.25 3.58579 13.9142 3.25 13.5 3.25H5.5Z" fill="black"/>
</svg>
