<svg width="24" height="24" viewBox="0 0 24 24" fill="none" xmlns="http://www.w3.org/2000/svg">
<path fill-rule="evenodd" clip-rule="evenodd" d="M1.43597 3.18404C1 4.03969 1 5.15979 1 7.4V16.6C1 18.8402 1 19.9603 1.43597 20.816C1.81947 21.5686 2.43139 22.1805 3.18404 22.564C4.03968 23 5.15979 23 7.4 23H16.6C18.8402 23 19.9603 23 20.816 22.564C21.5686 22.1805 22.1805 21.5686 22.564 20.816C23 19.9603 23 18.8402 23 16.6V7.4C23 5.15979 23 4.03969 22.564 3.18404C22.1805 2.43139 21.5686 1.81947 20.816 1.43597C19.9603 1 18.8402 1 16.6 1H7.4C5.15979 1 4.03968 1 3.18404 1.43597C2.43139 1.81947 1.81947 2.43139 1.43597 3.18404ZM18.8193 4.17095L18.8092 4.1709H14.9318C14.3795 4.1709 13.9318 4.61861 13.9318 5.1709C13.9318 5.72318 14.3795 6.1709 14.9318 6.1709H16.415L12.7075 9.87843C12.317 10.2689 12.317 10.9021 12.7075 11.2926C13.098 11.6832 13.7312 11.6832 14.1217 11.2926L17.8292 7.58511V9.06831C17.8292 9.6206 18.2769 10.0683 18.8292 10.0683C19.3815 10.0683 19.8292 9.6206 19.8292 9.06831V5.19092L19.8292 5.18079C19.8317 4.92158 19.7341 4.66157 19.5363 4.46379C19.3386 4.26601 19.0785 4.1684 18.8193 4.17095ZM6.17069 14.932V16.4152L9.87821 12.7077C10.2687 12.3172 10.9019 12.3172 11.2924 12.7077C11.683 13.0982 11.683 13.7314 11.2924 14.1219L7.5849 17.8294H9.0681C9.62038 17.8294 10.0681 18.2772 10.0681 18.8294C10.0681 19.3817 9.62038 19.8294 9.0681 19.8294H5.19071L5.18063 19.8294C4.9214 19.8319 4.66137 19.7343 4.46358 19.5365C4.26579 19.3388 4.16817 19.0787 4.17073 18.8195L4.17069 18.8094V14.932C4.17069 14.3797 4.6184 13.932 5.17069 13.932C5.72297 13.932 6.17069 14.3797 6.17069 14.932Z" fill="black"/>
</svg>
