<svg width="24" height="24" viewBox="0 0 24 24" fill="none" xmlns="http://www.w3.org/2000/svg">
<path d="M18.8202 4.671L18.8101 4.6709H14.9327C14.6565 4.6709 14.4327 4.89476 14.4327 5.1709C14.4327 5.44704 14.6565 5.6709 14.9327 5.6709H17.623L13.0619 10.232C12.8666 10.4272 12.8666 10.7438 13.0619 10.9391C13.2572 11.1343 13.5737 11.1343 13.769 10.9391L18.3301 6.37801V9.06831C18.3301 9.34445 18.5539 9.56831 18.8301 9.56831C19.1062 9.56831 19.3301 9.34445 19.3301 9.06831V5.19092L19.33 5.18076C19.3326 5.04953 19.2838 4.91749 19.1836 4.81735C19.0835 4.71721 18.9514 4.66842 18.8202 4.671Z" fill="black"/>
<path d="M5.67154 14.932V17.6223L10.2326 13.0612C10.4279 12.866 10.7445 12.866 10.9397 13.0612C11.135 13.2565 11.135 13.5731 10.9397 13.7684L6.37865 18.3294H9.06895C9.3451 18.3294 9.56895 18.5533 9.56895 18.8294C9.56895 19.1056 9.3451 19.3294 9.06895 19.3294H5.19157L5.18143 19.3293C5.05019 19.3319 4.91813 19.2831 4.81799 19.183C4.71784 19.0828 4.66906 18.9508 4.67164 18.8195L4.67154 18.8094V14.932C4.67154 14.6559 4.8954 14.432 5.17154 14.432C5.44768 14.432 5.67154 14.6559 5.67154 14.932Z" fill="black"/>
<path fill-rule="evenodd" clip-rule="evenodd" d="M7.37737 0.5C6.27641 0.499997 5.41948 0.499995 4.73209 0.556157C4.03416 0.61318 3.4671 0.730584 2.95704 0.990471C2.11031 1.4219 1.4219 2.11031 0.990471 2.95704C0.730583 3.4671 0.61318 4.03416 0.556158 4.73209C0.499996 5.41948 0.499998 6.2764 0.5 7.37735V16.6226C0.499998 17.7236 0.499996 18.5805 0.556158 19.2679C0.61318 19.9658 0.730583 20.5329 0.990471 21.043C1.4219 21.8897 2.11031 22.5781 2.95704 23.0095C3.4671 23.2694 4.03416 23.3868 4.73209 23.4438C5.41947 23.5 6.2764 23.5 7.37733 23.5H16.6226C17.7236 23.5 18.5805 23.5 19.2679 23.4438C19.9658 23.3868 20.5329 23.2694 21.043 23.0095C21.8897 22.5781 22.5781 21.8897 23.0095 21.043C23.2694 20.5329 23.3868 19.9658 23.4438 19.2679C23.5 18.5805 23.5 17.7236 23.5 16.6227V7.37736C23.5 6.27642 23.5 5.41947 23.4438 4.73209C23.3868 4.03416 23.2694 3.4671 23.0095 2.95704C22.5781 2.11031 21.8897 1.4219 21.043 0.990471C20.5329 0.730584 19.9658 0.61318 19.2679 0.556157C18.5805 0.499995 17.7236 0.499997 16.6226 0.5H7.37737ZM3.41103 1.88148C3.75662 1.70539 4.17744 1.60481 4.81352 1.55284C5.45545 1.50039 6.27164 1.5 7.4 1.5H16.6C17.7284 1.5 18.5446 1.50039 19.1865 1.55284C19.8226 1.60481 20.2434 1.70539 20.589 1.88148C21.2475 2.21703 21.783 2.75247 22.1185 3.41103C22.2946 3.75662 22.3952 4.17744 22.4472 4.81352C22.4996 5.45545 22.5 6.27164 22.5 7.4V16.6C22.5 17.7284 22.4996 18.5446 22.4472 19.1865C22.3952 19.8226 22.2946 20.2434 22.1185 20.589C21.783 21.2475 21.2475 21.783 20.589 22.1185C20.2434 22.2946 19.8226 22.3952 19.1865 22.4472C18.5446 22.4996 17.7284 22.5 16.6 22.5H7.4C6.27164 22.5 5.45545 22.4996 4.81352 22.4472C4.17744 22.3952 3.75662 22.2946 3.41103 22.1185C2.75247 21.783 2.21703 21.2475 1.88148 20.589C1.70539 20.2434 1.60481 19.8226 1.55284 19.1865C1.50039 18.5446 1.5 17.7284 1.5 16.6V7.4C1.5 6.27164 1.50039 5.45545 1.55284 4.81352C1.60481 4.17744 1.70539 3.75662 1.88148 3.41103C2.21703 2.75247 2.75247 2.21703 3.41103 1.88148Z" fill="black"/>
</svg>
