<svg width="24" height="24" viewBox="0 0 24 24" fill="none" xmlns="http://www.w3.org/2000/svg">
<path fill-rule="evenodd" clip-rule="evenodd" d="M7.40039 1C5.16018 1 4.03924 0.999573 3.18359 1.43555C2.43109 1.81902 1.81902 2.43109 1.43555 3.18359C0.999573 4.03924 1 5.16018 1 7.40039V16.5996C1 18.8398 0.999573 19.9608 1.43555 20.8164C1.81902 21.5689 2.43109 22.181 3.18359 22.5645C4.03924 23.0004 5.16018 23 7.40039 23H16.5996C18.8398 23 19.9608 23.0004 20.8164 22.5645C21.5689 22.181 22.181 21.5689 22.5645 20.8164C23.0004 19.9608 23 18.8398 23 16.5996V7.40039C23 5.16018 23.0004 4.03924 22.5645 3.18359C22.181 2.43109 21.5689 1.81902 20.8164 1.43555C19.9608 0.999573 18.8398 1 16.5996 1H7.40039ZM10.877 12.5C11.164 12.5001 11.3973 12.7335 11.3975 13.0205V16.8975C11.3973 17.1734 11.1734 17.3974 10.8975 17.3975C10.6215 17.3974 10.3976 17.1734 10.3975 16.8975V14.3096L5.52441 19.1826C5.32915 19.3779 5.01264 19.3779 4.81738 19.1826C4.62218 18.9874 4.62214 18.6708 4.81738 18.4756L9.79297 13.5H7C6.72403 13.4999 6.50015 13.276 6.5 13C6.50015 12.724 6.72403 12.5001 7 12.5H10.877ZM18.4756 4.81641C18.6709 4.62161 18.9885 4.62135 19.1836 4.81641C19.3787 5.01152 19.3784 5.32912 19.1836 5.52441L14.3096 10.3975H16.8975C17.1734 10.3976 17.3973 10.6215 17.3975 10.8975C17.3973 11.1734 17.1734 11.3973 16.8975 11.3975H13.0205C12.7335 11.3974 12.5002 11.164 12.5 10.877V7C12.5002 6.72406 12.724 6.50009 13 6.5C13.276 6.50009 13.4998 6.72406 13.5 7V9.79199L18.4756 4.81641Z" fill="black"/>
</svg>
