<svg width="24" height="24" viewBox="0 0 24 24" fill="none" xmlns="http://www.w3.org/2000/svg">
<path d="M18.8203 4.92109L18.8101 4.9209H14.9327C14.7946 4.9209 14.6827 5.03283 14.6827 5.1709C14.6827 5.30897 14.7946 5.4209 14.9327 5.4209H18.2265L13.2387 10.4088C13.141 10.5064 13.141 10.6647 13.2387 10.7623C13.3363 10.8599 13.4946 10.8599 13.5922 10.7623L18.5801 5.77445V9.06831C18.5801 9.20638 18.692 9.31831 18.8301 9.31831C18.9681 9.31831 19.0801 9.20638 19.0801 9.06831V5.19092L19.0799 5.18068C19.0825 5.11348 19.0582 5.04543 19.0069 4.99412C18.9556 4.94282 18.8875 4.91847 18.8203 4.92109Z" fill="black"/>
<path d="M5.42154 14.932V18.2259L10.4094 13.238C10.507 13.1404 10.6653 13.1404 10.763 13.238C10.8606 13.3357 10.8606 13.4939 10.763 13.5916L5.77509 18.5794H9.06895C9.20703 18.5794 9.31895 18.6914 9.31895 18.8294C9.31895 18.9675 9.20703 19.0794 9.06895 19.0794H5.19157L5.18133 19.0792C5.11412 19.0819 5.04607 19.0575 4.99476 19.0062C4.94346 18.9549 4.91912 18.8869 4.92173 18.8197L4.92154 18.8094V14.932C4.92154 14.794 5.03347 14.682 5.17154 14.682C5.30961 14.682 5.42154 14.794 5.42154 14.932Z" fill="black"/>
<path fill-rule="evenodd" clip-rule="evenodd" d="M7.38836 0.75C6.27809 0.75 5.42963 0.75 4.75245 0.805327C4.06998 0.861087 3.53948 0.974285 3.07054 1.21322C2.27085 1.62068 1.62068 2.27085 1.21322 3.07054C0.974285 3.53948 0.861088 4.06998 0.805326 4.75245C0.75 5.42961 0.75 6.27803 0.75 7.38824V16.6116C0.75 17.7219 0.75 18.5704 0.805326 19.2476C0.861088 19.93 0.974285 20.4605 1.21322 20.9295C1.62068 21.7291 2.27085 22.3793 3.07054 22.7868C3.53948 23.0257 4.06998 23.1389 4.75245 23.1947C5.42961 23.25 6.27803 23.25 7.38824 23.25H16.6117C17.7219 23.25 18.5704 23.25 19.2476 23.1947C19.93 23.1389 20.4605 23.0257 20.9295 22.7868C21.7291 22.3793 22.3793 21.7291 22.7868 20.9295C23.0257 20.4605 23.1389 19.93 23.1947 19.2476C23.25 18.5704 23.25 17.722 23.25 16.6118V7.38835C23.25 6.27814 23.25 5.42961 23.1947 4.75245C23.1389 4.06998 23.0257 3.53948 22.7868 3.07054C22.3793 2.27085 21.7291 1.62068 20.9295 1.21322C20.4605 0.974285 19.93 0.861087 19.2476 0.805327C18.5704 0.75 17.7219 0.75 16.6116 0.75H7.38836ZM3.29753 1.65873C3.68424 1.46169 4.14162 1.3569 4.79317 1.30367C5.44763 1.25019 6.27577 1.25 7.4 1.25H16.6C17.7242 1.25 18.5524 1.25019 19.2068 1.30367C19.8584 1.3569 20.3158 1.46169 20.7025 1.65873C21.4081 2.01825 21.9817 2.59193 22.3413 3.29754C22.5383 3.68424 22.6431 4.14162 22.6963 4.79317C22.7498 5.44763 22.75 6.27577 22.75 7.4V16.6C22.75 17.7242 22.7498 18.5524 22.6963 19.2068C22.6431 19.8584 22.5383 20.3158 22.3413 20.7025C21.9817 21.4081 21.4081 21.9817 20.7025 22.3413C20.3158 22.5383 19.8584 22.6431 19.2068 22.6963C18.5524 22.7498 17.7242 22.75 16.6 22.75H7.4C6.27577 22.75 5.44763 22.7498 4.79317 22.6963C4.14162 22.6431 3.68424 22.5383 3.29753 22.3413C2.59193 21.9817 2.01825 21.4081 1.65873 20.7025C1.46169 20.3158 1.3569 19.8584 1.30367 19.2068C1.25019 18.5524 1.25 17.7242 1.25 16.6V7.4C1.25 6.27577 1.25019 5.44763 1.30367 4.79317C1.3569 4.14162 1.46169 3.68424 1.65873 3.29754C2.01825 2.59193 2.59193 2.01825 3.29753 1.65873Z" fill="black"/>
</svg>
