<svg width="24" height="24" viewBox="0 0 24 24" fill="none" xmlns="http://www.w3.org/2000/svg">
<path fill-rule="evenodd" clip-rule="evenodd" d="M7.40039 1C5.16018 1 4.03924 0.999573 3.18359 1.43555C2.43109 1.81902 1.81902 2.43109 1.43555 3.18359C0.999573 4.03924 1 5.16018 1 7.40039V16.5996C1 18.8398 0.999573 19.9608 1.43555 20.8164C1.81902 21.5689 2.43109 22.181 3.18359 22.5645C4.03924 23.0004 5.16018 23 7.40039 23H16.5996C18.8398 23 19.9608 23.0004 20.8164 22.5645C21.5689 22.181 22.181 21.5689 22.5645 20.8164C23.0004 19.9608 23 18.8398 23 16.5996V7.40039C23 5.16018 23.0004 4.03924 22.5645 3.18359C22.181 2.43109 21.5689 1.81902 20.8164 1.43555C19.9608 0.999573 18.8398 1 16.5996 1H7.40039ZM10.877 12C11.4401 12.0001 11.8973 12.4574 11.8975 13.0205V16.8975C11.8973 17.4495 11.4495 17.8974 10.8975 17.8975C10.3454 17.8974 9.89766 17.4495 9.89746 16.8975V15.5166L5.87793 19.5361C5.48741 19.9267 4.85439 19.9267 4.46387 19.5361C4.0734 19.1456 4.07336 18.5126 4.46387 18.1221L8.58594 14H7C6.44791 13.9999 6.00017 13.5521 6 13C6.00017 12.4479 6.44792 12.0001 7 12H10.877ZM18.1221 4.46289C18.5126 4.07287 19.1467 4.07259 19.5371 4.46289C19.9275 4.85325 19.9271 5.48737 19.5371 5.87793L15.5176 9.89746H16.8975C17.4495 9.89759 17.8973 10.3454 17.8975 10.8975C17.8973 11.4495 17.4495 11.8973 16.8975 11.8975H13.0205C12.4574 11.8974 12.0002 11.4401 12 10.877V7C12.0002 6.44795 12.4479 6.00011 13 6C13.5521 6.00011 13.9998 6.44795 14 7V8.58496L18.1221 4.46289Z" fill="black"/>
</svg>
