<svg width="24" height="24" viewBox="0 0 24 24" fill="none" xmlns="http://www.w3.org/2000/svg">
<path d="M18.8202 4.42096L18.8101 4.4209H14.9327C14.5185 4.4209 14.1827 4.75668 14.1827 5.1709C14.1827 5.58511 14.5185 5.9209 14.9327 5.9209H17.0194L12.8851 10.0552C12.5922 10.3481 12.5922 10.823 12.8851 11.1159C13.178 11.4088 13.6529 11.4088 13.9458 11.1159L18.0801 6.98156V9.06831C18.0801 9.48252 18.4159 9.81831 18.8301 9.81831C19.2443 9.81831 19.5801 9.48252 19.5801 9.06831V5.19092L19.58 5.18078C19.5826 4.98556 19.5094 4.78953 19.3604 4.64057C19.2114 4.49161 19.0154 4.41841 18.8202 4.42096Z" fill="black"/>
<path d="M5.92154 14.932V17.0188L10.0558 12.8845C10.3487 12.5916 10.8236 12.5916 11.1165 12.8845C11.4094 13.1774 11.4094 13.6522 11.1165 13.9451L6.9822 18.0794H9.06895C9.48317 18.0794 9.81895 18.4152 9.81895 18.8294C9.81895 19.2436 9.48317 19.5794 9.06895 19.5794H5.19157L5.18144 19.5794C4.98621 19.5819 4.79018 19.5087 4.64121 19.3598C4.49225 19.2108 4.41904 19.0148 4.42161 18.8195L4.42154 18.8094V14.932C4.42154 14.5178 4.75733 14.182 5.17154 14.182C5.58575 14.182 5.92154 14.5178 5.92154 14.932Z" fill="black"/>
<path fill-rule="evenodd" clip-rule="evenodd" d="M7.367 0.25C6.27485 0.249995 5.40936 0.24999 4.71173 0.306988C3.99834 0.365274 3.39472 0.486882 2.84355 0.767719C1.94978 1.22312 1.22312 1.94978 0.767719 2.84355C0.486881 3.39472 0.365275 3.99834 0.306988 4.71173C0.249991 5.40936 0.249994 6.27485 0.25 7.367V16.633C0.249994 17.7251 0.249991 18.5906 0.306988 19.2883C0.365275 20.0017 0.486881 20.6053 0.767719 21.1565C1.22312 22.0502 1.94978 22.7769 2.84355 23.2323C3.39472 23.5131 3.99834 23.6347 4.71173 23.693C5.40935 23.75 6.27485 23.75 7.36698 23.75H16.633C17.7252 23.75 18.5906 23.75 19.2883 23.693C20.0017 23.6347 20.6053 23.5131 21.1565 23.2323C22.0502 22.7769 22.7769 22.0502 23.2323 21.1565C23.5131 20.6053 23.6347 20.0017 23.693 19.2883C23.75 18.5906 23.75 17.7252 23.75 16.633V7.36698C23.75 6.27485 23.75 5.40935 23.693 4.71173C23.6347 3.99834 23.5131 3.39472 23.2323 2.84355C22.7769 1.94978 22.0502 1.22312 21.1565 0.767719C20.6053 0.486882 20.0017 0.365274 19.2883 0.306988C18.5906 0.24999 17.7251 0.249995 16.633 0.25H7.367ZM3.52453 2.10423C3.829 1.94909 4.21325 1.85271 4.83388 1.80201C5.46326 1.75058 6.26752 1.75 7.4 1.75H16.6C17.7325 1.75 18.5367 1.75058 19.1661 1.80201C19.7867 1.85271 20.171 1.94909 20.4755 2.10423C21.087 2.41582 21.5842 2.913 21.8958 3.52453C22.0509 3.829 22.1473 4.21325 22.198 4.83388C22.2494 5.46327 22.25 6.26752 22.25 7.4V16.6C22.25 17.7325 22.2494 18.5367 22.198 19.1661C22.1473 19.7867 22.0509 20.171 21.8958 20.4755C21.5842 21.087 21.087 21.5842 20.4755 21.8958C20.171 22.0509 19.7867 22.1473 19.1661 22.198C18.5367 22.2494 17.7325 22.25 16.6 22.25H7.4C6.26752 22.25 5.46326 22.2494 4.83388 22.198C4.21325 22.1473 3.829 22.0509 3.52453 21.8958C2.913 21.5842 2.41582 21.087 2.10423 20.4755C1.94909 20.171 1.85271 19.7867 1.80201 19.1661C1.75058 18.5367 1.75 17.7325 1.75 16.6V7.4C1.75 6.26752 1.75058 5.46326 1.80201 4.83388C1.85271 4.21325 1.94909 3.829 2.10423 3.52453C2.41582 2.913 2.913 2.41582 3.52453 2.10423Z" fill="black"/>
</svg>
