<svg width="24" height="24" viewBox="0 0 24 24" fill="none" xmlns="http://www.w3.org/2000/svg">
<path d="M4.22966 12.3046C3.53959 12.3049 2.97966 12.8644 2.97966 13.5546C2.98012 14.2443 3.53987 14.8042 4.22966 14.8046H7.42887L0.50407 21.7284C0.0163331 22.2166 0.0161099 23.0089 0.50407 23.4969C0.992104 23.9848 1.78448 23.9847 2.27262 23.4969L9.0363 16.7333V19.6112C9.03696 20.3009 9.59647 20.8611 10.2863 20.8612C10.9761 20.861 11.5356 20.3009 11.5363 19.6112V13.5858C11.5363 12.8784 10.9625 12.3047 10.255 12.3046H4.22966Z" fill="black"/>
<path d="M23.4963 0.504757C23.0081 0.0166643 22.2168 0.0166228 21.7287 0.504757L14.8029 7.43054V4.23034C14.8027 3.54015 14.2431 2.98034 13.5529 2.98034C12.8629 2.98066 12.3031 3.54035 12.3029 4.23034V10.2557C12.3032 10.9628 12.877 11.5367 13.5841 11.537H19.6095C20.2996 11.5368 20.8593 10.977 20.8595 10.287C20.8595 9.59675 20.2997 9.03718 19.6095 9.03698H16.7316L23.4963 2.27233C23.9844 1.78422 23.9843 0.992923 23.4963 0.504757Z" fill="black"/>
</svg>
