<svg width="24" height="24" viewBox="0 0 24 24" fill="none" xmlns="http://www.w3.org/2000/svg">
<path d="M7.00098 12.75C6.86304 12.7501 6.75101 12.862 6.75098 13C6.75116 13.1378 6.86313 13.2499 7.00098 13.25H10.3984L4.99512 18.6523C4.89778 18.7499 4.89793 18.9083 4.99512 19.0059C5.09272 19.1031 5.2511 19.1032 5.34863 19.0059L10.6484 13.7061V16.8975C10.6486 17.0353 10.7606 17.1474 10.8984 17.1475C11.036 17.147 11.1482 17.0351 11.1484 16.8975V13.0205C11.1484 12.8717 11.0267 12.7504 10.8779 12.75H7.00098Z" fill="black"/>
<path d="M19.0078 4.99414C18.9103 4.89666 18.7519 4.89687 18.6543 4.99414L13.251 10.3975V7C13.2509 6.86222 13.1387 6.75042 13.001 6.75C12.863 6.75011 12.751 6.86202 12.751 7V10.877C12.7512 11.0259 12.8726 11.1474 13.0215 11.1475H16.8984C17.036 11.147 17.1483 11.0351 17.1484 10.8975C17.1484 10.7597 17.0361 10.6479 16.8984 10.6475H13.708L19.0078 5.34766C19.1049 5.25015 19.1049 5.09169 19.0078 4.99414Z" fill="black"/>
<path fill-rule="evenodd" clip-rule="evenodd" d="M7.40039 0.75C6.28466 0.75 5.43241 0.750179 4.75293 0.805664C4.07046 0.861424 3.53925 0.973954 3.07031 1.21289C2.27066 1.62035 1.62035 2.27066 1.21289 3.07031C0.973954 3.53925 0.861424 4.07046 0.805664 4.75293C0.750179 5.43241 0.75 6.28466 0.75 7.40039V16.5996C0.75 17.7153 0.750179 18.5676 0.805664 19.2471C0.861424 19.9295 0.973954 20.4607 1.21289 20.9297C1.62035 21.7293 2.27066 22.3797 3.07031 22.7871C3.53925 23.026 4.07046 23.1386 4.75293 23.1943C5.43241 23.2498 6.28466 23.25 7.40039 23.25H16.5996C17.7153 23.25 18.5676 23.2498 19.2471 23.1943C19.9295 23.1386 20.4607 23.026 20.9297 22.7871C21.7293 22.3797 22.3797 21.7293 22.7871 20.9297C23.026 20.4607 23.1386 19.9295 23.1943 19.2471C23.2498 18.5676 23.25 17.7153 23.25 16.5996V7.40039C23.25 6.28466 23.2498 5.43241 23.1943 4.75293C23.1386 4.07046 23.026 3.53925 22.7871 3.07031C22.3797 2.27066 21.7293 1.62035 20.9297 1.21289C20.4607 0.973954 19.9295 0.861424 19.2471 0.805664C18.5676 0.750179 17.7153 0.75 16.5996 0.75H7.40039ZM16.5996 1.25C17.7238 1.25 18.5526 1.25024 19.207 1.30371C19.8584 1.35695 20.3155 1.46219 20.7021 1.65918C21.4078 2.0187 21.9813 2.59224 22.3408 3.29785C22.5378 3.6845 22.6431 4.14156 22.6963 4.79297C22.7498 5.44744 22.75 6.27616 22.75 7.40039V16.5996C22.75 17.7238 22.7498 18.5526 22.6963 19.207C22.6431 19.8584 22.5378 20.3155 22.3408 20.7021C21.9813 21.4078 21.4078 21.9813 20.7021 22.3408C20.3155 22.5378 19.8584 22.6431 19.207 22.6963C18.5526 22.7498 17.7238 22.75 16.5996 22.75H7.40039C6.27616 22.75 5.44744 22.7498 4.79297 22.6963C4.14156 22.6431 3.6845 22.5378 3.29785 22.3408C2.59224 21.9813 2.0187 21.4078 1.65918 20.7021C1.46219 20.3155 1.35695 19.8584 1.30371 19.207C1.25024 18.5526 1.25 17.7238 1.25 16.5996V7.40039C1.25 6.27616 1.25024 5.44744 1.30371 4.79297C1.35695 4.14156 1.46219 3.6845 1.65918 3.29785C2.0187 2.59224 2.59224 2.0187 3.29785 1.65918C3.6845 1.46219 4.14156 1.35695 4.79297 1.30371C5.44744 1.25024 6.27616 1.25 7.40039 1.25H16.5996Z" fill="black"/>
</svg>
