<svg width="24" height="24" viewBox="0 0 24 24" fill="none" xmlns="http://www.w3.org/2000/svg">
<path fill-rule="evenodd" clip-rule="evenodd" d="M1.43597 3.18404C1 4.03969 1 5.15979 1 7.4V16.6C1 18.8402 1 19.9603 1.43597 20.816C1.81947 21.5686 2.43139 22.1805 3.18404 22.564C4.03968 23 5.15979 23 7.4 23H16.6C18.8402 23 19.9603 23 20.816 22.564C21.5686 22.1805 22.1805 21.5686 22.564 20.816C23 19.9603 23 18.8402 23 16.6V7.4C23 5.15979 23 4.03969 22.564 3.18404C22.1805 2.43139 21.5686 1.81947 20.816 1.43597C19.9603 1 18.8402 1 16.6 1H7.4C5.15979 1 4.03968 1 3.18404 1.43597C2.43139 1.81947 1.81947 2.43139 1.43597 3.18404ZM18.8194 4.671L18.8092 4.6709H14.9318C14.6557 4.6709 14.4318 4.89476 14.4318 5.1709C14.4318 5.44704 14.6557 5.6709 14.9318 5.6709H17.6221L13.061 10.232C12.8658 10.4272 12.8658 10.7438 13.061 10.9391C13.2563 11.1343 13.5729 11.1343 13.7681 10.9391L18.3292 6.37801V9.06831C18.3292 9.34445 18.5531 9.56831 18.8292 9.56831C19.1054 9.56831 19.3292 9.34445 19.3292 9.06831V5.19092L19.3291 5.18076C19.3317 5.04953 19.2829 4.91748 19.1828 4.81735C19.0826 4.71721 18.9506 4.66842 18.8194 4.671ZM5.67069 14.932V17.6223L10.2318 13.0612C10.427 12.866 10.7436 12.866 10.9389 13.0612C11.1341 13.2565 11.1341 13.5731 10.9389 13.7684L6.37779 18.3294H9.0681C9.34424 18.3294 9.5681 18.5533 9.5681 18.8294C9.5681 19.1056 9.34424 19.3294 9.0681 19.3294H5.19071L5.18057 19.3293C5.04934 19.3319 4.91728 19.2831 4.81713 19.183C4.71699 19.0828 4.66821 18.9508 4.67078 18.8195L4.67069 18.8094V14.932C4.67069 14.6559 4.89454 14.432 5.17069 14.432C5.44683 14.432 5.67069 14.6559 5.67069 14.932Z" fill="black"/>
</svg>
