<svg width="24" height="24" viewBox="0 0 24 24" fill="none" xmlns="http://www.w3.org/2000/svg">
<path d="M4.22964 12.5546C3.67763 12.5549 3.22964 13.0025 3.22964 13.5546C3.23007 14.1063 3.67789 14.5543 4.22964 14.5546H8.03238L0.680814 21.9061C0.291139 22.2967 0.290629 22.93 0.680814 23.3202C1.07123 23.7105 1.70534 23.7103 2.09585 23.3202L9.28628 16.1298V19.6112C9.28691 20.1629 9.73449 20.6111 10.2863 20.6112C10.838 20.611 11.2857 20.1629 11.2863 19.6112V13.5858C11.2863 13.0165 10.8244 12.5548 10.255 12.5546H4.22964Z" fill="black"/>
<path d="M23.3195 0.681533C22.929 0.291072 22.2959 0.291031 21.9054 0.681533L14.5529 8.03407V4.23036C14.5527 3.67825 14.105 3.23036 13.5529 3.23036C13.001 3.23065 12.5531 3.67843 12.5529 4.23036V10.2558C12.5531 10.8248 13.0151 11.2867 13.5841 11.287H19.6095C20.1615 11.2868 20.6093 10.8389 20.6095 10.287C20.6095 9.73485 20.1616 9.2872 19.6095 9.287H16.1281L23.3195 2.0956C23.71 1.70512 23.7099 1.07207 23.3195 0.681533Z" fill="black"/>
</svg>
