<svg width="24" height="24" viewBox="0 0 24 24" fill="none" xmlns="http://www.w3.org/2000/svg">
<path fill-rule="evenodd" clip-rule="evenodd" d="M7.40039 1C5.16018 1 4.03924 0.999573 3.18359 1.43555C2.43109 1.81902 1.81902 2.43109 1.43555 3.18359C0.999573 4.03924 1 5.16018 1 7.40039V16.5996C1 18.8398 0.999573 19.9608 1.43555 20.8164C1.81902 21.5689 2.43109 22.181 3.18359 22.5645C4.03924 23.0004 5.16018 23 7.40039 23H16.5996C18.8398 23 19.9608 23.0004 20.8164 22.5645C21.5689 22.181 22.181 21.5689 22.5645 20.8164C23.0004 19.9608 23 18.8398 23 16.5996V7.40039C23 5.16018 23.0004 4.03924 22.5645 3.18359C22.181 2.43109 21.5689 1.81902 20.8164 1.43555C19.9608 0.999573 18.8398 1 16.5996 1H7.40039ZM10.877 12C11.4402 12 11.8974 12.4572 11.8975 13.0205V16.8975C11.8972 17.4495 11.4496 17.8975 10.8975 17.8975C10.3455 17.8973 9.89776 17.4494 9.89746 16.8975V15.5176L5.87891 19.5361C5.48838 19.9264 4.85528 19.9265 4.46484 19.5361C4.07447 19.1457 4.07461 18.5126 4.46484 18.1221L8.58691 14H7C6.44807 13.9998 6.00027 13.5519 6 13C6.00007 12.4479 6.44795 12.0002 7 12H10.877ZM18.123 4.46387C18.5136 4.07366 19.1467 4.0735 19.5371 4.46387C19.9275 4.8543 19.9273 5.4874 19.5371 5.87793L15.5176 9.89746H16.8975C17.4497 9.8975 17.8974 10.3453 17.8975 10.8975C17.8972 11.4495 17.4495 11.8974 16.8975 11.8975H13.0205C12.4575 11.8972 12.0003 11.4399 12 10.877V7C12.0001 6.44793 12.448 6.00022 13 6C13.5522 6.00001 13.9999 6.4478 14 7V8.58691L18.123 4.46387Z" fill="black"/>
</svg>
