<svg width="24" height="24" viewBox="0 0 24 24" fill="none" xmlns="http://www.w3.org/2000/svg">
<path fill-rule="evenodd" clip-rule="evenodd" d="M1.43597 3.18404C1 4.03969 1 5.15979 1 7.4V16.6C1 18.8402 1 19.9603 1.43597 20.816C1.81947 21.5686 2.43139 22.1805 3.18404 22.564C4.03968 23 5.15979 23 7.4 23H16.6C18.8402 23 19.9603 23 20.816 22.564C21.5686 22.1805 22.1805 21.5686 22.564 20.816C23 19.9603 23 18.8402 23 16.6V7.4C23 5.15979 23 4.03969 22.564 3.18404C22.1805 2.43139 21.5686 1.81947 20.816 1.43597C19.9603 1 18.8402 1 16.6 1H7.4C5.15979 1 4.03968 1 3.18404 1.43597C2.43139 1.81947 1.81947 2.43139 1.43597 3.18404ZM18.8194 4.92109L18.8092 4.9209H14.9318C14.7937 4.9209 14.6818 5.03283 14.6818 5.1709C14.6818 5.30897 14.7937 5.4209 14.9318 5.4209H18.2257L13.2378 10.4088C13.1402 10.5064 13.1402 10.6647 13.2378 10.7623C13.3354 10.8599 13.4937 10.8599 13.5914 10.7623L18.5792 5.77445V9.06831C18.5792 9.20638 18.6912 9.31831 18.8292 9.31831C18.9673 9.31831 19.0792 9.20638 19.0792 9.06831V5.19092L19.079 5.18068C19.0816 5.11348 19.0573 5.04543 19.006 4.99412C18.9547 4.94282 18.8866 4.91847 18.8194 4.92109ZM5.42069 14.932V18.2259L10.4085 13.238C10.5062 13.1404 10.6645 13.1404 10.7621 13.238C10.8597 13.3357 10.8597 13.4939 10.7621 13.5916L5.77424 18.5794H9.0681C9.20617 18.5794 9.3181 18.6914 9.3181 18.8294C9.3181 18.9675 9.20617 19.0794 9.0681 19.0794H5.19071L5.18047 19.0792C5.11327 19.0819 5.04522 19.0575 4.99391 19.0062C4.94261 18.9549 4.91826 18.8869 4.92088 18.8197L4.92069 18.8094V14.932C4.92069 14.794 5.03262 14.682 5.17069 14.682C5.30876 14.682 5.42069 14.794 5.42069 14.932Z" fill="black"/>
</svg>
