<svg width="25" height="25" viewBox="0 0 25 25" fill="none" xmlns="http://www.w3.org/2000/svg">
<path d="M7.25 12.25C6.69789 12.2502 6.25 12.6978 6.25 13.25C6.2502 13.802 6.69801 14.2498 7.25 14.25H8.83692L4.71484 18.3721C4.32451 18.7626 4.32438 19.3957 4.71484 19.7861C5.10531 20.1766 5.73837 20.1765 6.12891 19.7861L10.1475 15.7676V17.1475C10.1477 17.6994 10.5955 18.1473 11.1475 18.1475C11.6996 18.1475 12.1472 17.6996 12.1475 17.1475V13.2705C12.1475 12.7072 11.6903 12.25 11.127 12.25H7.25Z" fill="black"/>
<path d="M19.7871 4.71387C19.3967 4.32342 18.7636 4.32357 18.373 4.71387L14.25 8.83692V7.25C14.25 6.69774 13.8023 6.25 13.25 6.25C12.6979 6.2502 12.25 6.69786 12.25 7.25V11.127C12.2502 11.69 12.7075 12.1473 13.2705 12.1475H17.1475C17.6996 12.1474 18.1472 11.6995 18.1475 11.1475C18.1475 10.5952 17.6997 10.1475 17.1475 10.1475H15.7676L19.7871 6.12793C20.1774 5.73739 20.1776 5.10432 19.7871 4.71387Z" fill="black"/>
<path fill-rule="evenodd" clip-rule="evenodd" d="M7.65039 1.13749e-06C6.55091 1.13749e-06 5.65062 -0.00102537 4.9209 0.0585949C4.17663 0.119411 3.49959 0.249546 2.86621 0.572267C1.87859 1.07556 1.07556 1.87859 0.572267 2.86621C0.249546 3.49959 0.119411 4.17664 0.0585949 4.9209C-0.00102536 5.65062 1.13692e-06 6.55091 1.13751e-06 7.65039V16.8496C1.13751e-06 17.9491 -0.0010253 18.8494 0.0585949 19.5791C0.119411 20.3234 0.249546 21.0004 0.572267 21.6338C1.07556 22.6214 1.87859 23.4244 2.86621 23.9277C3.49959 24.2505 4.17663 24.3806 4.9209 24.4414C5.65062 24.501 6.55091 24.5 7.65039 24.5H16.8496C17.9491 24.5 18.8494 24.501 19.5791 24.4414C20.3234 24.3806 21.0004 24.2505 21.6338 23.9277C22.6214 23.4244 23.4244 22.6214 23.9277 21.6338C24.2505 21.0004 24.3806 20.3234 24.4414 19.5791C24.501 18.8494 24.5 17.9491 24.5 16.8496V7.65039C24.5 6.55091 24.501 5.65062 24.4414 4.9209C24.3806 4.17664 24.2505 3.49959 23.9277 2.86621C23.4244 1.87859 22.6214 1.07556 21.6338 0.572267C21.0004 0.249546 20.3234 0.119411 19.5791 0.0585949C18.8494 -0.00102537 17.9491 1.13749e-06 16.8496 1.13749e-06H7.65039ZM16.8496 2.5C17.9901 2.5 18.7708 2.50144 19.375 2.55078C19.9644 2.59894 20.2758 2.68665 20.498 2.79981C21.0155 3.06346 21.4365 3.48451 21.7002 4.00195C21.8134 4.22417 21.9011 4.53557 21.9492 5.125C21.9986 5.72925 22 6.50989 22 7.65039V16.8496C22 17.9901 21.9986 18.7708 21.9492 19.375C21.9011 19.9644 21.8134 20.2758 21.7002 20.498C21.4365 21.0155 21.0155 21.4365 20.498 21.7002C20.2758 21.8134 19.9644 21.9011 19.375 21.9492C18.7708 21.9986 17.9901 22 16.8496 22H7.65039C6.50989 22 5.72925 21.9986 5.125 21.9492C4.53557 21.9011 4.22417 21.8134 4.00195 21.7002C3.48451 21.4365 3.06346 21.0155 2.79981 20.498C2.68665 20.2758 2.59894 19.9644 2.55078 19.375C2.50144 18.7708 2.5 17.9901 2.5 16.8496V7.65039C2.5 6.50989 2.50144 5.72925 2.55078 5.125C2.59894 4.53557 2.68665 4.22417 2.79981 4.00195C3.06346 3.48451 3.48451 3.06346 4.00195 2.79981C4.22417 2.68665 4.53557 2.59894 5.125 2.55078C5.72925 2.50144 6.50989 2.5 7.65039 2.5H16.8496Z" fill="black"/>
</svg>
