<svg width="24" height="24" viewBox="0 0 24 24" fill="none" xmlns="http://www.w3.org/2000/svg">
<path d="M4.22969 12.8046C3.81573 12.8049 3.47969 13.1406 3.47969 13.5546C3.48009 13.9683 3.81597 14.3043 4.22969 14.3046H8.63594L0.857619 22.0829C0.565519 22.3759 0.565046 22.8508 0.857619 23.1435C1.15042 23.4361 1.62627 23.436 1.91914 23.1435L9.53633 15.5263V19.6112C9.53693 20.0249 9.87257 20.3611 10.2863 20.3612C10.7 20.361 11.0357 20.0248 11.0363 19.6112V13.5858C11.0363 13.1546 10.6863 12.8048 10.2551 12.8046H4.22969Z" fill="black"/>
<path d="M23.1428 0.85831C22.8499 0.56548 22.3751 0.565438 22.0822 0.85831L14.3029 8.63761V4.23038C14.3027 3.81635 13.967 3.48038 13.5529 3.48038C13.1391 3.48064 12.8031 3.81651 12.8029 4.23038V10.2558C12.8032 10.6868 13.1531 11.0368 13.5842 11.037H19.6096C20.0235 11.0368 20.3593 10.7009 20.3596 10.287C20.3596 9.87294 20.0236 9.53722 19.6096 9.53702H15.5246L23.1428 1.91886C23.4356 1.62601 23.4355 1.15121 23.1428 0.85831Z" fill="black"/>
</svg>
