<svg width="24" height="24" viewBox="0 0 24 24" fill="none" xmlns="http://www.w3.org/2000/svg">
<path d="M10.6094 13.3916C10.2189 13.0011 9.58585 13.0012 9.19531 13.3916L2.87109 19.7158V16.3486C2.87085 15.7966 2.42323 15.3486 1.87109 15.3486C1.31905 15.3487 0.871339 15.7966 0.871094 16.3486V22.1006C0.871096 22.1052 0.872008 22.1097 0.87207 22.1143C0.868065 22.3753 0.964874 22.6377 1.16406 22.8369C1.36325 23.0361 1.62568 23.1329 1.88672 23.1289C1.89127 23.129 1.89582 23.1299 1.90039 23.1299H7.65234C8.20435 23.1296 8.65224 22.6819 8.65234 22.1299C8.65234 21.5777 8.20442 21.1301 7.65234 21.1299H4.28516L10.6094 14.8057C10.9998 14.4151 10.9998 13.7821 10.6094 13.3916Z" fill="black"/>
<path d="M16.3486 0.871094C15.7967 0.871493 15.3486 1.31906 15.3486 1.87109C15.3488 2.423 15.7968 2.87069 16.3486 2.87109H19.7158L13.3926 9.19434C13.0021 9.58486 13.0021 10.2179 13.3926 10.6084C13.7831 10.9989 14.4161 10.9989 14.8066 10.6084L21.1299 4.28516V7.65234C21.1303 8.20419 21.578 8.65219 22.1299 8.65234C22.6819 8.65234 23.1295 8.20429 23.1299 7.65234V1.87109C23.13 1.61507 23.0322 1.3594 22.8369 1.16406C22.6416 0.968728 22.3859 0.871019 22.1299 0.871094H16.3486Z" fill="black"/>
</svg>
