<svg width="24" height="24" viewBox="0 0 24 24" fill="none" xmlns="http://www.w3.org/2000/svg">
<path d="M10.7861 13.2148C10.298 12.7267 9.50672 12.7268 9.01855 13.2148L3.12109 19.1123V16.3486C3.12085 15.6585 2.5613 15.0986 1.87109 15.0986C1.18098 15.0987 0.621339 15.6586 0.621094 16.3486V22.1006C0.621096 22.1052 0.62202 22.1097 0.62207 22.1143C0.618082 22.4393 0.739301 22.7657 0.987305 23.0137C1.23531 23.2617 1.56169 23.3829 1.88672 23.3789C1.89127 23.379 1.89583 23.3799 1.90039 23.3799H7.65234C8.34242 23.3796 8.90224 22.82 8.90234 22.1299C8.90234 21.4397 8.34249 20.8801 7.65234 20.8799H4.88867L10.7861 14.9824C11.2741 14.4943 11.2742 13.703 10.7861 13.2148Z" fill="black"/>
<path d="M16.3486 0.621094C15.6586 0.621493 15.0986 1.18098 15.0986 1.87109C15.0988 2.56107 15.6587 3.12069 16.3486 3.12109H19.1123L13.2158 9.01758C12.7277 9.50573 12.7277 10.297 13.2158 10.7852C13.704 11.2733 14.4952 11.2733 14.9834 10.7852L20.8799 4.88867V7.65234C20.8803 8.34227 21.4399 8.90219 22.1299 8.90234C22.82 8.90234 23.3795 8.34236 23.3799 7.65234V1.87109C23.38 1.55109 23.2578 1.23146 23.0137 0.987305C22.7695 0.743155 22.4499 0.621019 22.1299 0.621094H16.3486Z" fill="black"/>
</svg>
