<svg width="24" height="24" viewBox="0 0 24 24" fill="none" xmlns="http://www.w3.org/2000/svg">
<path fill-rule="evenodd" clip-rule="evenodd" d="M1.43597 3.18404C1 4.03969 1 5.15979 1 7.4V16.6C1 18.8402 1 19.9603 1.43597 20.816C1.81947 21.5686 2.43139 22.1805 3.18404 22.564C4.03968 23 5.15979 23 7.4 23H16.6C18.8402 23 19.9603 23 20.816 22.564C21.5686 22.1805 22.1805 21.5686 22.564 20.816C23 19.9603 23 18.8402 23 16.6V7.4C23 5.15979 23 4.03969 22.564 3.18404C22.1805 2.43139 21.5686 1.81947 20.816 1.43597C19.9603 1 18.8402 1 16.6 1H7.4C5.15979 1 4.03968 1 3.18404 1.43597C2.43139 1.81947 1.81947 2.43139 1.43597 3.18404ZM18.8193 4.42096L18.8092 4.4209H14.9318C14.5176 4.4209 14.1818 4.75668 14.1818 5.1709C14.1818 5.58511 14.5176 5.9209 14.9318 5.9209H17.0186L12.8843 10.0552C12.5914 10.3481 12.5914 10.823 12.8843 11.1159C13.1772 11.4088 13.652 11.4088 13.9449 11.1159L18.0792 6.98156V9.06831C18.0792 9.48252 18.415 9.81831 18.8292 9.81831C19.2434 9.81831 19.5792 9.48252 19.5792 9.06831V5.19092L19.5792 5.18078C19.5817 4.98556 19.5085 4.78953 19.3596 4.64057C19.2106 4.49161 19.0146 4.41841 18.8193 4.42096ZM5.92069 14.932V17.0188L10.055 12.8845C10.3479 12.5916 10.8228 12.5916 11.1157 12.8845C11.4085 13.1774 11.4085 13.6522 11.1157 13.9451L6.98135 18.0794H9.0681C9.48231 18.0794 9.8181 18.4152 9.8181 18.8294C9.8181 19.2436 9.48231 19.5794 9.0681 19.5794H5.19071L5.18059 19.5794C4.98536 19.5819 4.78932 19.5087 4.64036 19.3598C4.49139 19.2108 4.41819 19.0148 4.42075 18.8195L4.42069 18.8094V14.932C4.42069 14.5178 4.75647 14.182 5.17069 14.182C5.5849 14.182 5.92069 14.5178 5.92069 14.932Z" fill="black"/>
</svg>
