<svg width="26" height="26" viewBox="0 0 26 26" fill="none" xmlns="http://www.w3.org/2000/svg">
<path d="M19.8202 5.17095L19.8101 5.1709H15.9327C15.3804 5.1709 14.9327 5.61862 14.9327 6.1709C14.9327 6.72318 15.3804 7.1709 15.9327 7.1709H17.4159L13.7083 10.8784C13.3178 11.269 13.3178 11.9021 13.7083 12.2926C14.0989 12.6832 14.732 12.6832 15.1226 12.2926L18.8301 8.58511V10.0683C18.8301 10.6206 19.2778 11.0683 19.8301 11.0683C20.3824 11.0683 20.8301 10.6206 20.8301 10.0683V6.19093L20.83 6.18078C20.8326 5.92158 20.735 5.66157 20.5372 5.46379C20.3394 5.26601 20.0794 5.1684 19.8202 5.17095Z" fill="black"/>
<path d="M7.17154 15.932V17.4152L10.8791 13.7077C11.2696 13.3172 11.9028 13.3172 12.2933 13.7077C12.6838 14.0982 12.6838 14.7314 12.2933 15.1219L8.58575 18.8294H10.069C10.6212 18.8294 11.069 19.2772 11.069 19.8294C11.069 20.3817 10.6212 20.8294 10.069 20.8294H6.19157L6.18148 20.8294C5.92226 20.8319 5.66222 20.7343 5.46443 20.5365C5.26664 20.3388 5.16903 20.0787 5.17159 19.8195L5.17154 19.8094V15.932C5.17154 15.3797 5.61926 14.932 6.17154 14.932C6.72383 14.932 7.17154 15.3797 7.17154 15.932Z" fill="black"/>
<path fill-rule="evenodd" clip-rule="evenodd" d="M8.34792 0.75C7.27208 0.749986 6.38918 0.749974 5.67102 0.80865C4.92671 0.869462 4.24996 0.99948 3.61655 1.32222C2.6287 1.82555 1.82555 2.6287 1.32222 3.61655C0.999478 4.24996 0.869462 4.92671 0.808648 5.67102C0.749972 6.38917 0.749985 7.27204 0.75 8.34787V17.6521C0.749985 18.7279 0.749972 19.6108 0.808648 20.329C0.869462 21.0733 0.999478 21.75 1.32222 22.3834C1.82555 23.3713 2.6287 24.1744 3.61655 24.6778C4.24996 25.0005 4.92671 25.1305 5.67102 25.1914C6.38914 25.25 7.27196 25.25 8.34773 25.25H17.6521C18.7279 25.25 19.6109 25.25 20.329 25.1914C21.0733 25.1305 21.75 25.0005 22.3834 24.6778C23.3713 24.1744 24.1744 23.3713 24.6778 22.3834C25.0005 21.75 25.1305 21.0733 25.1914 20.329C25.25 19.6108 25.25 18.728 25.25 17.6522V8.34788C25.25 7.27207 25.25 6.38916 25.1914 5.67102C25.1305 4.92671 25.0005 4.24996 24.6778 3.61655C24.1744 2.6287 23.3713 1.82555 22.3834 1.32222C21.75 0.99948 21.0733 0.869462 20.329 0.80865C19.6108 0.749974 18.7279 0.749986 17.6521 0.75H8.34792ZM4.75153 3.54973C4.97376 3.4365 5.28489 3.34853 5.8746 3.30035C6.4789 3.25097 7.25927 3.25 8.4 3.25H17.6C18.7407 3.25 19.5211 3.25097 20.1254 3.30035C20.7151 3.34853 21.0262 3.4365 21.2485 3.54973C21.7659 3.81339 22.1866 4.23408 22.4503 4.75153C22.5635 4.97377 22.6515 5.28489 22.6997 5.8746C22.749 6.4789 22.75 7.25927 22.75 8.4V17.6C22.75 18.7407 22.749 19.5211 22.6997 20.1254C22.6515 20.7151 22.5635 21.0262 22.4503 21.2485C22.1866 21.7659 21.7659 22.1866 21.2485 22.4503C21.0262 22.5635 20.7151 22.6515 20.1254 22.6997C19.5211 22.749 18.7407 22.75 17.6 22.75H8.4C7.25927 22.75 6.4789 22.749 5.8746 22.6997C5.28489 22.6515 4.97376 22.5635 4.75153 22.4503C4.23408 22.1866 3.81338 21.7659 3.54973 21.2485C3.4365 21.0262 3.34853 20.7151 3.30035 20.1254C3.25097 19.5211 3.25 18.7407 3.25 17.6V8.4C3.25 7.25927 3.25097 6.4789 3.30035 5.8746C3.34853 5.28489 3.4365 4.97377 3.54973 4.75153C3.81338 4.23408 4.23408 3.81339 4.75153 3.54973Z" fill="black"/>
</svg>
