<svg width="24" height="24" viewBox="0 0 24 24" fill="none" xmlns="http://www.w3.org/2000/svg">
<path d="M7 12.25C6.58605 12.2503 6.25 12.586 6.25 13C6.25019 13.4139 6.58617 13.7497 7 13.75H9.19043L4.6416 18.2988C4.34914 18.5917 4.34898 19.0666 4.6416 19.3594C4.93438 19.652 5.40926 19.6519 5.70215 19.3594L10.1475 14.9141V16.8975C10.1477 17.3113 10.4836 17.6472 10.8975 17.6475C11.3115 17.6474 11.6472 17.3114 11.6475 16.8975V13.0205C11.6475 12.5953 11.3022 12.2501 10.877 12.25H7Z" fill="black"/>
<path d="M19.3604 4.64063C19.0675 4.34795 18.5927 4.348 18.2998 4.64063L13.75 9.19043V7C13.75 6.58584 13.4142 6.25005 13 6.25C12.586 6.25028 12.25 6.58598 12.25 7V10.877C12.2502 11.3019 12.5956 11.6472 13.0205 11.6475H16.8975C17.3115 11.6474 17.6472 11.3114 17.6475 10.8975C17.6475 10.4833 17.3116 10.1475 16.8975 10.1475H14.9141L19.3604 5.70117C19.653 5.40829 19.6531 4.93345 19.3604 4.64063Z" fill="black"/>
<path fill-rule="evenodd" clip-rule="evenodd" d="M7.40039 0.250001C6.29277 0.250001 5.41651 0.249088 4.71192 0.306641C3.99862 0.36492 3.39487 0.486821 2.84375 0.767579C1.94998 1.22298 1.22298 1.94998 0.767579 2.84375C0.486821 3.39487 0.36492 3.99862 0.306641 4.71192C0.249088 5.41651 0.250001 6.29277 0.250001 7.40039V16.5996C0.250001 17.7072 0.249088 18.5835 0.306641 19.2881C0.36492 20.0014 0.486821 20.6051 0.767579 21.1562C1.22298 22.05 1.94998 22.777 2.84375 23.2324C3.39487 23.5132 3.99862 23.6351 4.71192 23.6934C5.41651 23.7509 6.29277 23.75 7.40039 23.75H16.5996C17.7072 23.75 18.5835 23.7509 19.2881 23.6934C20.0014 23.6351 20.6051 23.5132 21.1562 23.2324C22.05 22.777 22.777 22.05 23.2324 21.1562C23.5132 20.6051 23.6351 20.0014 23.6934 19.2881C23.7509 18.5835 23.75 17.7072 23.75 16.5996V7.40039C23.75 6.29277 23.7509 5.41651 23.6934 4.71192C23.6351 3.99862 23.5132 3.39487 23.2324 2.84375C22.777 1.94998 22.05 1.22298 21.1562 0.767579C20.6051 0.486821 20.0014 0.36492 19.2881 0.306641C18.5835 0.249088 17.7072 0.250001 16.5996 0.250001H7.40039ZM16.5996 1.75C17.732 1.75 18.5367 1.75035 19.166 1.80176C19.7866 1.85247 20.1711 1.94936 20.4756 2.10449C21.087 2.41605 21.5839 2.91305 21.8955 3.52442C22.0506 3.82889 22.1475 4.21336 22.1982 4.83399C22.2497 5.46335 22.25 6.26798 22.25 7.40039V16.5996C22.25 17.732 22.2497 18.5367 22.1982 19.166C22.1475 19.7866 22.0506 20.1711 21.8955 20.4756C21.5839 21.087 21.087 21.5839 20.4756 21.8955C20.1711 22.0506 19.7866 22.1475 19.166 22.1982C18.5367 22.2497 17.732 22.25 16.5996 22.25H7.40039C6.26798 22.25 5.46335 22.2497 4.83399 22.1982C4.21336 22.1475 3.82889 22.0506 3.52442 21.8955C2.91305 21.5839 2.41605 21.087 2.10449 20.4756C1.94936 20.1711 1.85247 19.7866 1.80176 19.166C1.75035 18.5367 1.75 17.732 1.75 16.5996V7.40039C1.75 6.26798 1.75035 5.46335 1.80176 4.83399C1.85247 4.21336 1.94936 3.82889 2.10449 3.52442C2.41605 2.91305 2.91305 2.41605 3.52442 2.10449C3.82889 1.94936 4.21336 1.85247 4.83399 1.80176C5.46335 1.75035 6.26798 1.75 7.40039 1.75H16.5996Z" fill="black"/>
</svg>
