<svg width="24" height="24" viewBox="0 0 24 24" fill="none" xmlns="http://www.w3.org/2000/svg">
<path d="M7 12.5C6.72411 12.5003 6.5 12.724 6.5 13C6.50017 13.2758 6.72422 13.4997 7 13.5H9.79395L4.81836 18.4756C4.62351 18.6708 4.62336 18.9875 4.81836 19.1826C5.01351 19.3777 5.33013 19.3775 5.52539 19.1826L10.3975 14.3105V16.8975C10.3977 17.1733 10.6217 17.3972 10.8975 17.3975C11.1734 17.3974 11.3973 17.1734 11.3975 16.8975V13.0205C11.3975 12.7334 11.1641 12.5001 10.877 12.5H7Z" fill="black"/>
<path d="M19.1836 4.81738C18.9884 4.62233 18.6718 4.62239 18.4766 4.81738L13.5 9.79395V7C13.5 6.72392 13.2761 6.50006 13 6.5C12.7241 6.50027 12.5 6.72405 12.5 7V10.877C12.5002 11.1638 12.7337 11.3972 13.0205 11.3975H16.8975C17.1734 11.3974 17.3973 11.1734 17.3975 10.8975C17.3975 10.6214 17.1735 10.3975 16.8975 10.3975H14.3105L19.1836 5.52441C19.3786 5.32917 19.3787 5.01258 19.1836 4.81738Z" fill="black"/>
<path fill-rule="evenodd" clip-rule="evenodd" d="M7.40039 0.5C6.28869 0.5 5.42447 0.500118 4.73242 0.556641C4.03453 0.61366 3.46707 0.730378 2.95703 0.990234C2.1103 1.42166 1.42166 2.1103 0.990234 2.95703C0.730378 3.46707 0.61366 4.03453 0.556641 4.73242C0.500118 5.42447 0.5 6.28869 0.5 7.40039V16.5996C0.5 17.7113 0.500118 18.5755 0.556641 19.2676C0.61366 19.9655 0.730378 20.5329 0.990234 21.043C1.42166 21.8897 2.1103 22.5783 2.95703 23.0098C3.46707 23.2696 4.03453 23.3863 4.73242 23.4434C5.42447 23.4999 6.28869 23.5 7.40039 23.5H16.5996C17.7113 23.5 18.5755 23.4999 19.2676 23.4434C19.9655 23.3863 20.5329 23.2696 21.043 23.0098C21.8897 22.5783 22.5783 21.8897 23.0098 21.043C23.2696 20.5329 23.3863 19.9655 23.4434 19.2676C23.4999 18.5755 23.5 17.7113 23.5 16.5996V7.40039C23.5 6.28869 23.4999 5.42447 23.4434 4.73242C23.3863 4.03453 23.2696 3.46707 23.0098 2.95703C22.5783 2.1103 21.8897 1.42166 21.043 0.990234C20.5329 0.730378 19.9655 0.61366 19.2676 0.556641C18.5755 0.500118 17.7113 0.5 16.5996 0.5H7.40039ZM16.5996 1.5C17.728 1.5 18.5446 1.50029 19.1865 1.55273C19.8226 1.60471 20.2433 1.70575 20.5889 1.88184C21.2474 2.21738 21.7826 2.75262 22.1182 3.41113C22.2942 3.75672 22.3953 4.17741 22.4473 4.81348C22.4997 5.4554 22.5 6.27204 22.5 7.40039V16.5996C22.5 17.728 22.4997 18.5446 22.4473 19.1865C22.3953 19.8226 22.2942 20.2433 22.1182 20.5889C21.7826 21.2474 21.2474 21.7826 20.5889 22.1182C20.2433 22.2942 19.8226 22.3953 19.1865 22.4473C18.5446 22.4997 17.728 22.5 16.5996 22.5H7.40039C6.27204 22.5 5.4554 22.4997 4.81348 22.4473C4.17741 22.3953 3.75672 22.2942 3.41113 22.1182C2.75262 21.7826 2.21738 21.2474 1.88184 20.5889C1.70575 20.2433 1.60471 19.8226 1.55273 19.1865C1.50029 18.5446 1.5 17.728 1.5 16.5996V7.40039C1.5 6.27204 1.50029 5.4554 1.55273 4.81348C1.60471 4.17741 1.70575 3.75672 1.88184 3.41113C2.21738 2.75262 2.75262 2.21738 3.41113 1.88184C3.75672 1.70575 4.17741 1.60471 4.81348 1.55273C5.4554 1.50029 6.27204 1.5 7.40039 1.5H16.5996Z" fill="black"/>
</svg>
