<svg width="24" height="24" viewBox="0 0 24 24" fill="none" xmlns="http://www.w3.org/2000/svg">
<path d="M3.99928 13.7509C3.8616 13.7514 3.74928 13.8631 3.74928 14.0009C3.74971 14.1383 3.86186 14.2505 3.99928 14.2509H9.39771L1.21119 22.4365C1.11418 22.5341 1.11384 22.6925 1.21119 22.79C1.30864 22.8872 1.46709 22.887 1.56471 22.79L9.80592 14.5488V20.0576C9.80655 20.1949 9.91846 20.3073 10.0559 20.3076C10.1936 20.3076 10.3053 20.1951 10.3059 20.0576V14.0322C10.3059 13.8769 10.1799 13.7509 10.0247 13.7509H3.99928Z" fill="black"/>
<path d="M22.7893 1.21185C22.6917 1.11431 22.5334 1.11425 22.4358 1.21185L14.2503 9.3974V3.99994C14.25 3.86218 14.1381 3.75003 14.0003 3.74994C13.8624 3.74996 13.7506 3.86214 13.7503 3.99994V10.0253C13.7505 10.1804 13.8764 10.3066 14.0315 10.3066H20.0569C20.1946 10.3063 20.3067 10.1943 20.3069 10.0566C20.3068 9.91878 20.1947 9.80687 20.0569 9.80658H14.5481L22.7893 1.56537C22.8869 1.4678 22.8868 1.3095 22.7893 1.21185Z" fill="black"/>
</svg>
