<svg width="24" height="24" viewBox="0 0 24 24" fill="none" xmlns="http://www.w3.org/2000/svg">
<path fill-rule="evenodd" clip-rule="evenodd" d="M1.43597 3.18404C1 4.03969 1 5.15979 1 7.4V16.6C1 18.8402 1 19.9603 1.43597 20.816C1.81947 21.5686 2.43139 22.1805 3.18404 22.564C4.03968 23 5.15979 23 7.4 23H16.6C18.8402 23 19.9603 23 20.816 22.564C21.5686 22.1805 22.1805 21.5686 22.564 20.816C23 19.9603 23 18.8402 23 16.6V7.4C23 5.15979 23 4.03969 22.564 3.18404C22.1805 2.43139 21.5686 1.81947 20.816 1.43597C19.9603 1 18.8402 1 16.6 1H7.4C5.15979 1 4.03968 1 3.18404 1.43597C2.43139 1.81947 1.81947 2.43139 1.43597 3.18404ZM18.8193 3.92094L18.8092 3.9209H14.9318C14.2415 3.9209 13.6818 4.48054 13.6818 5.1709C13.6818 5.86125 14.2415 6.4209 14.9318 6.4209H15.8115L12.5307 9.70165C12.0426 10.1898 12.0426 10.9813 12.5307 11.4694C13.0189 11.9576 13.8103 11.9576 14.2985 11.4694L17.5792 8.18867V9.06831C17.5792 9.75867 18.1389 10.3183 18.8292 10.3183C19.5196 10.3183 20.0792 9.75867 20.0792 9.06831V5.19092L20.0792 5.18079C20.0817 4.8576 19.9597 4.53361 19.7131 4.28702C19.4665 4.04042 19.1425 3.9184 18.8193 3.92094ZM6.42069 14.932V15.8117L9.70144 12.5309C10.1896 12.0428 10.981 12.0428 11.4692 12.5309C11.9574 13.0191 11.9574 13.8105 11.4692 14.2987L8.18845 17.5794H9.0681C9.75846 17.5794 10.3181 18.1391 10.3181 18.8294C10.3181 19.5198 9.75846 20.0794 9.0681 20.0794H5.19071L5.18058 20.0794C4.85739 20.0819 4.5334 19.9599 4.2868 19.7133C4.04021 19.4667 3.91819 19.1427 3.92073 18.8195L3.92069 18.8094V14.932C3.92069 14.2417 4.48033 13.682 5.17069 13.682C5.86104 13.682 6.42069 14.2417 6.42069 14.932Z" fill="black"/>
</svg>
