<svg width="24" height="24" viewBox="0 0 24 24" fill="none" xmlns="http://www.w3.org/2000/svg">
<path d="M10.0791 13.9219C9.98152 13.8243 9.82323 13.8244 9.72559 13.9219L2.12109 21.5264V16.3486C2.12085 16.2108 2.00901 16.0986 1.87109 16.0986C1.73326 16.0987 1.62134 16.2108 1.62109 16.3486V22.1006C1.6211 22.1052 1.62282 22.1097 1.62305 22.1143C1.61878 22.1833 1.64157 22.2539 1.69434 22.3066C1.7471 22.3594 1.81767 22.3822 1.88672 22.3779C1.89127 22.3782 1.89578 22.3799 1.90039 22.3799H7.65234C7.79014 22.3796 7.90224 22.2677 7.90234 22.1299C7.90234 21.992 7.79021 21.8801 7.65234 21.8799H2.47461L10.0791 14.2754C10.1766 14.1777 10.1767 14.0195 10.0791 13.9219Z" fill="black"/>
<path d="M16.3486 1.62109C16.2109 1.62149 16.0986 1.73327 16.0986 1.87109C16.0988 2.00879 16.211 2.1207 16.3486 2.12109H21.5264L13.9229 9.72461C13.8252 9.82224 13.8252 9.98049 13.9229 10.0781C14.0205 10.1758 14.1787 10.1758 14.2764 10.0781L21.8799 2.47461V7.65234C21.8803 7.78998 21.9922 7.90219 22.1299 7.90234C22.2677 7.90234 22.3795 7.79008 22.3799 7.65234V1.90039C22.3799 1.89589 22.3791 1.89117 22.3789 1.88672C22.3833 1.81753 22.3595 1.74721 22.3066 1.69434C22.2538 1.64146 22.1834 1.61767 22.1143 1.62207C22.1098 1.62185 22.1051 1.6211 22.1006 1.62109H16.3486Z" fill="black"/>
</svg>
