<svg width="24" height="24" viewBox="0 0 24 24" fill="none" xmlns="http://www.w3.org/2000/svg">
<path d="M4.22968 13.0546C3.95377 13.0549 3.72968 13.2786 3.72968 13.5546C3.73005 13.8303 3.954 14.0543 4.22968 14.0546H9.23944L1.03436 22.2597C0.839837 22.455 0.839402 22.7717 1.03436 22.9667C1.22954 23.1618 1.54713 23.1617 1.74237 22.9667L9.78632 14.9228V19.6113C9.78688 19.8869 10.0106 20.1112 10.2863 20.1113C10.5619 20.1111 10.7858 19.8868 10.7863 19.6113V13.5859C10.7863 13.2927 10.5482 13.0548 10.2551 13.0546H4.22968Z" fill="black"/>
<path d="M22.966 1.03509C22.7707 0.839887 22.4542 0.839846 22.259 1.03509L14.0529 9.24114V4.2304C14.0527 3.95445 13.8289 3.7304 13.5529 3.7304C13.2771 3.73063 13.0531 3.95459 13.0529 4.2304V10.2558C13.0531 10.5488 13.2912 10.7868 13.5842 10.787H19.6096C19.8854 10.7868 20.1093 10.5629 20.1096 10.287C20.1095 10.011 19.8855 9.78724 19.6096 9.78704H14.9211L22.966 1.74212C23.1612 1.5469 23.1611 1.23036 22.966 1.03509Z" fill="black"/>
</svg>
