<svg width="24" height="24" viewBox="0 0 24 24" fill="none" xmlns="http://www.w3.org/2000/svg">
<path d="M10.6783 3.75C9.2868 3.75 8.22626 3.75 7.37636 3.8246C6.52006 3.89976 5.85642 4.05197 5.26329 4.3686C4.60476 4.72015 4.02877 5.20808 3.57374 5.79986C3.16391 6.33287 2.90467 6.96246 2.68975 7.79475C2.47645 8.62082 2.30209 9.66693 2.07333 11.0395L1.2572 15.9363C0.968094 17.6709 2.30576 19.25 4.06431 19.25C4.73169 19.25 5.36288 18.9466 5.77979 18.4255L7.00922 16.8887C6.85935 16.8112 6.71629 16.7224 6.58116 16.6234L5.38935 18.1132C5.06733 18.5157 4.5798 18.75 4.06431 18.75C2.61473 18.75 1.51209 17.4484 1.7504 16.0185L2.56448 11.134C2.7957 9.7467 2.96668 8.72214 3.17388 7.91976C3.38009 7.12115 3.61739 6.56338 3.97012 6.10464C4.3818 5.56922 4.90294 5.12775 5.49875 4.80969C6.00924 4.53718 6.59843 4.39481 7.42008 4.32269C8.2456 4.25022 9.28434 4.25 10.6908 4.25H13.3093C14.7157 4.25 15.7545 4.25022 16.58 4.32269C17.4016 4.39481 17.9908 4.53718 18.5013 4.80969C19.0971 5.12775 19.6183 5.56922 20.0299 6.10464C20.3827 6.56338 20.62 7.12115 20.8262 7.91976C21.0334 8.72214 21.2044 9.7467 21.4356 11.134L22.2497 16.0185C22.488 17.4484 21.3853 18.75 19.9357 18.75C19.4203 18.75 18.9327 18.5157 18.6107 18.1132L17.4188 16.6233C17.2837 16.7223 17.1407 16.8111 16.9908 16.8886L18.2203 18.4255C18.6372 18.9466 19.2684 19.25 19.9357 19.25C21.6943 19.25 23.032 17.6709 22.7429 15.9363L21.9267 11.0395C21.698 9.66718 21.5236 8.62072 21.3103 7.79475C21.0954 6.96246 20.8362 6.33287 20.4263 5.79986C19.9713 5.20808 19.3953 4.72015 18.7368 4.3686C18.1436 4.05197 17.48 3.89976 16.6237 3.8246C15.7738 3.75 14.7133 3.75 13.3217 3.75H10.6783Z" fill="black"/>
<path fill-rule="evenodd" clip-rule="evenodd" d="M6.24994 14C6.24994 12.7574 7.2573 11.75 8.49994 11.75C9.74258 11.75 10.7499 12.7574 10.7499 14C10.7499 15.2426 9.74258 16.25 8.49994 16.25C7.2573 16.25 6.24994 15.2426 6.24994 14ZM8.49994 12.25C7.53344 12.25 6.74994 13.0335 6.74994 14C6.74994 14.9665 7.53344 15.75 8.49994 15.75C9.46644 15.75 10.2499 14.9665 10.2499 14C10.2499 13.0335 9.46644 12.25 8.49994 12.25Z" fill="black"/>
<path fill-rule="evenodd" clip-rule="evenodd" d="M13.2499 14C13.2499 12.7574 14.2573 11.75 15.4999 11.75C16.7426 11.75 17.7499 12.7574 17.7499 14C17.7499 15.2426 16.7426 16.25 15.4999 16.25C14.2573 16.25 13.2499 15.2426 13.2499 14ZM15.4999 12.25C14.5334 12.25 13.7499 13.0335 13.7499 14C13.7499 14.9665 14.5334 15.75 15.4999 15.75C16.4664 15.75 17.2499 14.9665 17.2499 14C17.2499 13.0335 16.4664 12.25 15.4999 12.25Z" fill="black"/>
<path d="M15.9999 6.5C16.2761 6.5 16.4999 6.72386 16.4999 7C16.4999 7.27614 16.2761 7.5 15.9999 7.5C15.7238 7.5 15.4999 7.27614 15.4999 7C15.4999 6.72386 15.7238 6.5 15.9999 6.5Z" fill="black"/>
<path d="M13.9999 8.5C13.9999 8.22386 14.2238 8 14.4999 8C14.7761 8 14.9999 8.22386 14.9999 8.5C14.9999 8.77614 14.7761 9 14.4999 9C14.2238 9 13.9999 8.77614 13.9999 8.5Z" fill="black"/>
<path d="M16.4999 10C16.4999 9.72386 16.2761 9.5 15.9999 9.5C15.7238 9.5 15.4999 9.72386 15.4999 10C15.4999 10.2761 15.7238 10.5 15.9999 10.5C16.2761 10.5 16.4999 10.2761 16.4999 10Z" fill="black"/>
<path d="M16.9999 8.5C16.9999 8.22386 17.2238 8 17.4999 8C17.7761 8 17.9999 8.22386 17.9999 8.5C17.9999 8.77614 17.7761 9 17.4999 9C17.2238 9 16.9999 8.77614 16.9999 8.5Z" fill="black"/>
<path d="M7.49994 6.25C7.63801 6.25 7.74994 6.36193 7.74994 6.5V8H9.24994C9.38801 8 9.49994 8.11193 9.49994 8.25C9.49994 8.38807 9.38801 8.5 9.24994 8.5H7.74994V10C7.74994 10.1381 7.63801 10.25 7.49994 10.25C7.36187 10.25 7.24994 10.1381 7.24994 10V8.5H5.74994C5.61187 8.5 5.49994 8.38807 5.49994 8.25C5.49994 8.11193 5.61187 8 5.74994 8H7.24994V6.5C7.24994 6.36193 7.36187 6.25 7.49994 6.25Z" fill="black"/>
</svg>
