<svg width="24" height="24" viewBox="0 0 24 24" fill="none" xmlns="http://www.w3.org/2000/svg">
<path fill-rule="evenodd" clip-rule="evenodd" d="M10.6783 3.75C9.2868 3.75 8.22626 3.75 7.37636 3.8246C6.52006 3.89976 5.85642 4.05197 5.26329 4.3686C4.60476 4.72015 4.02877 5.20808 3.57374 5.79986C3.16391 6.33287 2.90467 6.96246 2.68975 7.79475C2.47645 8.62082 2.30209 9.66693 2.07333 11.0395L1.2572 15.9363C0.968094 17.6709 2.30576 19.25 4.06431 19.25C4.73169 19.25 5.36288 18.9466 5.77979 18.4255L7.20575 16.643L7.43429 16.2622C6.58655 15.8621 5.99994 14.9996 5.99994 14C5.99994 12.6193 7.11923 11.5 8.49994 11.5C9.88065 11.5 10.9999 12.6193 10.9999 14C10.9999 14.0844 10.9958 14.1678 10.9876 14.25H13.0123C13.0041 14.1678 12.9999 14.0844 12.9999 14C12.9999 12.6193 14.1192 11.5 15.4999 11.5C16.8806 11.5 17.9999 12.6193 17.9999 14C17.9999 14.9995 17.4134 15.862 16.5657 16.2621L16.7943 16.643L18.2202 18.4255C18.6371 18.9466 19.2683 19.25 19.9357 19.25C21.6943 19.25 23.0319 17.6709 22.7428 15.9363L21.9267 11.0395C21.698 9.66726 21.5236 8.62069 21.3103 7.79475C21.0954 6.96246 20.8361 6.33287 20.4263 5.79986C19.9713 5.20808 19.3953 4.72015 18.7367 4.3686C18.1436 4.05197 17.48 3.89976 16.6237 3.8246C15.7738 3.75 14.7132 3.75 13.3217 3.75H10.6783ZM16.5 6.5C16.5 6.22386 16.2761 6 16 6C15.7239 6 15.5 6.22386 15.5 6.5C15.5 6.77614 15.7239 7 16 7C16.2761 7 16.5 6.77614 16.5 6.5ZM14.5 7.5C14.2239 7.5 14 7.72386 14 8C14 8.27614 14.2239 8.5 14.5 8.5C14.7761 8.5 15 8.27614 15 8C15 7.72386 14.7761 7.5 14.5 7.5ZM16 9C16.2761 9 16.5 9.22386 16.5 9.5C16.5 9.77614 16.2761 10 16 10C15.7239 10 15.5 9.77614 15.5 9.5C15.5 9.22386 15.7239 9 16 9ZM17.5 7.5C17.2239 7.5 17 7.72386 17 8C17 8.27614 17.2239 8.5 17.5 8.5C17.7761 8.5 18 8.27614 18 8C18 7.72386 17.7761 7.5 17.5 7.5ZM7.75 6C7.75 5.86193 7.63807 5.75 7.5 5.75C7.36193 5.75 7.25 5.86193 7.25 6V7.5H5.75C5.61193 7.5 5.5 7.61193 5.5 7.75C5.5 7.88807 5.61193 8 5.75 8H7.25V9.5C7.25 9.63807 7.36193 9.75 7.5 9.75C7.63807 9.75 7.75 9.63807 7.75 9.5V8H9.25C9.38807 8 9.5 7.88807 9.5 7.75C9.5 7.61193 9.38807 7.5 9.25 7.5H7.75V6Z" fill="black"/>
<path d="M10.4845 14.25C10.4947 14.1681 10.4999 14.0847 10.4999 14C10.4999 12.8954 9.60451 12 8.49994 12C7.39537 12 6.49994 12.8954 6.49994 14C6.49994 14.8175 6.99044 15.5205 7.6932 15.8306C7.93996 15.9395 8.21289 16 8.49994 16C9.51984 16 10.3614 15.2366 10.4845 14.25Z" fill="black"/>
<path d="M16.3068 15.8306C16.06 15.9395 15.787 16 15.4999 16C14.48 16 13.6384 15.2366 13.5154 14.25C13.5052 14.1681 13.4999 14.0847 13.4999 14C13.4999 12.8954 14.3954 12 15.4999 12C16.6045 12 17.4999 12.8954 17.4999 14C17.4999 14.8175 17.0095 15.5204 16.3068 15.8306Z" fill="black"/>
</svg>
