<svg width="24" height="24" viewBox="0 0 24 24" fill="none" xmlns="http://www.w3.org/2000/svg">
<path fill-rule="evenodd" clip-rule="evenodd" d="M11.226 2.75C9.59405 2.75 8.35035 2.75 7.36087 2.85097C6.3636 2.95273 5.59964 3.15892 4.9351 3.58726C4.53633 3.84431 4.17423 4.15422 3.85871 4.50854C3.33291 5.09898 3.01125 5.82195 2.75675 6.79156C2.50424 7.75359 2.31224 8.98238 2.0603 10.5948L1.22494 15.9412C0.953316 17.6795 2.29746 19.25 4.05692 19.25C4.72896 19.25 5.36457 18.9445 5.7844 18.4197L6.85014 17.0876C5.74897 16.4979 4.99993 15.3364 4.99993 14C4.99993 12.067 6.56693 10.5 8.49993 10.5C10.4329 10.5 11.9999 12.067 11.9999 14C11.9999 14.0841 11.997 14.1674 11.9911 14.25H12.0087C12.0029 14.1674 11.9999 14.0841 11.9999 14C11.9999 12.067 13.5669 10.5 15.4999 10.5C17.4329 10.5 18.9999 12.067 18.9999 14C18.9999 15.3364 18.2509 16.4979 17.1498 17.0875L18.2156 18.4197C18.6354 18.9445 19.2711 19.25 19.9431 19.25C21.7026 19.25 23.0467 17.6795 22.7751 15.9412L21.9397 10.5948C21.6878 8.98267 21.4957 7.75347 21.2433 6.79156C20.9888 5.82195 20.6671 5.09898 20.1413 4.50854C19.8258 4.15422 19.4637 3.84431 19.0649 3.58726C18.4004 3.15892 17.6364 2.95273 16.6391 2.85097C15.6497 2.75 14.406 2.75 12.774 2.75H11.226ZM16.9995 5C16.9995 4.44772 16.5518 4 15.9995 4C15.4472 4 14.9995 4.44772 14.9995 5C14.9995 5.55228 15.4472 6 15.9995 6C16.5518 6 16.9995 5.55228 16.9995 5ZM13.9995 5.75C13.4472 5.75 12.9995 6.19772 12.9995 6.75C12.9995 7.30229 13.4472 7.75 13.9995 7.75C14.5518 7.75 14.9995 7.30228 14.9995 6.75C14.9995 6.19772 14.5518 5.75 13.9995 5.75ZM15.9995 7.5C16.5518 7.5 16.9995 7.94772 16.9995 8.5C16.9995 9.05228 16.5518 9.5 15.9995 9.5C15.4472 9.5 14.9995 9.05228 14.9995 8.5C14.9995 7.94772 15.4472 7.5 15.9995 7.5ZM17.9995 5.75C17.4472 5.75 16.9995 6.19772 16.9995 6.75C16.9995 7.30229 17.4472 7.75 17.9995 7.75C18.5518 7.75 18.9995 7.30228 18.9995 6.75C18.9995 6.19772 18.5518 5.75 17.9995 5.75ZM8.24951 5C8.24951 4.58579 7.91373 4.25 7.49951 4.25C7.0853 4.25 6.74951 4.58579 6.74951 5V6H5.74951C5.3353 6 4.99951 6.33579 4.99951 6.75C4.99951 7.16421 5.3353 7.5 5.74951 7.5H6.74951V8.5C6.74951 8.91421 7.0853 9.25 7.49951 9.25C7.91373 9.25 8.24951 8.91421 8.24951 8.5V7.5H9.24951C9.66372 7.5 9.99951 7.16421 9.99951 6.75C9.99951 6.33579 9.66372 6 9.24951 6H8.24951V5Z" fill="black"/>
<path d="M10.4845 14.25C10.4947 14.1681 10.4999 14.0847 10.4999 14C10.4999 12.8954 9.6045 12 8.49993 12C7.39536 12 6.49993 12.8954 6.49993 14C6.49993 14.8175 6.99043 15.5205 7.6932 15.8306C7.93995 15.9395 8.21288 16 8.49993 16C9.51983 16 10.3614 15.2366 10.4845 14.25Z" fill="black"/>
<path d="M16.3068 15.8306C16.06 15.9395 15.787 16 15.4999 16C14.48 16 13.6384 15.2366 13.5154 14.25C13.5052 14.1681 13.4999 14.0847 13.4999 14C13.4999 12.8954 14.3954 12 15.4999 12C16.6045 12 17.4999 12.8954 17.4999 14C17.4999 14.8175 17.0095 15.5204 16.3068 15.8306Z" fill="black"/>
</svg>
