<svg width="24" height="24" viewBox="0 0 24 24" fill="none" xmlns="http://www.w3.org/2000/svg">
<path d="M10.6444 3C9.28163 2.99999 8.19353 2.99998 7.31072 3.07747C6.40244 3.1572 5.62714 3.32416 4.91003 3.70698C4.15742 4.10874 3.49915 4.66638 2.97912 5.3427C2.48363 5.98712 2.19148 6.72443 1.96352 7.60724C1.74194 8.4653 1.56307 9.53858 1.33904 10.8828L0.517344 15.813C0.152048 18.0048 1.84225 20 4.06426 20C4.95947 20 5.80615 19.5931 6.36538 18.894L7.07609 18.0056C6.42986 17.7759 5.85565 17.3943 5.39643 16.9037L4.80364 17.6446C4.62395 17.8692 4.3519 18 4.06426 18C3.07813 18 2.32801 17.1145 2.49013 16.1418L3.30422 11.2573C3.5376 9.857 3.70294 8.87042 3.9 8.10728C4.09317 7.35918 4.29755 6.90913 4.56462 6.5618C4.9113 6.11092 5.35015 5.73916 5.85189 5.47132C6.2384 5.26499 6.71593 5.13737 7.4856 5.06981C8.27076 5.00089 9.2711 5 10.6907 5H13.3092C14.7288 5 15.7292 5.00089 16.5143 5.06981C17.284 5.13737 17.7615 5.26499 18.1481 5.47132C18.6498 5.73916 19.0886 6.11092 19.4353 6.5618C19.7024 6.90913 19.9068 7.35918 20.0999 8.10728C20.297 8.87042 20.4623 9.857 20.6957 11.2573L21.5098 16.1418C21.6719 17.1145 20.9218 18 19.9357 18C19.648 18 19.376 17.8692 19.1963 17.6446L18.6034 16.9035C18.1442 17.3942 17.57 17.7759 16.9238 18.0056L17.6346 18.894C18.1938 19.5931 19.0405 20 19.9357 20C22.1577 20 23.8479 18.0048 23.4826 15.813L22.6609 10.8828C22.4369 9.53858 22.258 8.4653 22.0364 7.60724C21.8085 6.72443 21.5163 5.98712 21.0208 5.3427C20.5008 4.66638 19.8425 4.10874 19.0899 3.70698C18.3728 3.32416 17.5975 3.1572 16.6892 3.07747C15.8064 2.99998 14.7183 2.99999 13.3556 3H10.6444Z" fill="black"/>
<path fill-rule="evenodd" clip-rule="evenodd" d="M5.49988 14C5.49988 12.3431 6.84303 11 8.49988 11C10.1567 11 11.4999 12.3431 11.4999 14C11.4999 15.6569 10.1567 17 8.49988 17C6.84303 17 5.49988 15.6569 5.49988 14ZM8.49988 13C7.9476 13 7.49988 13.4477 7.49988 14C7.49988 14.5523 7.9476 15 8.49988 15C9.05216 15 9.49988 14.5523 9.49988 14C9.49988 13.4477 9.05216 13 8.49988 13Z" fill="black"/>
<path fill-rule="evenodd" clip-rule="evenodd" d="M12.4999 14C12.4999 12.3431 13.843 11 15.4999 11C17.1567 11 18.4999 12.3431 18.4999 14C18.4999 15.6569 17.1567 17 15.4999 17C13.843 17 12.4999 15.6569 12.4999 14ZM15.4999 13C14.9476 13 14.4999 13.4477 14.4999 14C14.4999 14.5523 14.9476 15 15.4999 15C16.0522 15 16.4999 14.5523 16.4999 14C16.4999 13.4477 16.0522 13 15.4999 13Z" fill="black"/>
<path d="M15.9998 5.75C16.552 5.75 16.9998 6.19772 16.9998 6.75C16.9998 7.30228 16.552 7.75 15.9998 7.75C15.4475 7.75 14.9998 7.30228 14.9998 6.75C14.9998 6.19772 15.4475 5.75 15.9998 5.75Z" fill="black"/>
<path d="M13.4998 8.25C13.4998 7.69772 13.9475 7.25 14.4998 7.25C15.052 7.25 15.4998 7.69772 15.4998 8.25C15.4998 8.80228 15.052 9.25 14.4998 9.25C13.9475 9.25 13.4998 8.80229 13.4998 8.25Z" fill="black"/>
<path d="M16.9998 9.75C16.9998 9.19772 16.552 8.75 15.9998 8.75C15.4475 8.75 14.9998 9.19772 14.9998 9.75C14.9998 10.3023 15.4475 10.75 15.9998 10.75C16.552 10.75 16.9998 10.3023 16.9998 9.75Z" fill="black"/>
<path d="M16.4998 8.25C16.4998 7.69772 16.9475 7.25 17.4998 7.25C18.052 7.25 18.4998 7.69772 18.4998 8.25C18.4998 8.80228 18.052 9.25 17.4998 9.25C16.9475 9.25 16.4998 8.80229 16.4998 8.25Z" fill="black"/>
<path d="M7.49988 5.5C8.05216 5.5 8.49988 5.94772 8.49988 6.5V7.25H9.24988C9.80216 7.25 10.2499 7.69772 10.2499 8.25C10.2499 8.80229 9.80216 9.25 9.24988 9.25H8.49988V10C8.49988 10.5523 8.05216 11 7.49988 11C6.9476 11 6.49988 10.5523 6.49988 10V9.25H5.74988C5.1976 9.25 4.74988 8.80229 4.74988 8.25C4.74988 7.69772 5.1976 7.25 5.74988 7.25H6.49988V6.5C6.49988 5.94772 6.9476 5.5 7.49988 5.5Z" fill="black"/>
</svg>
