<svg width="24" height="24" viewBox="0 0 24 24" fill="none" xmlns="http://www.w3.org/2000/svg">
<path d="M10.6665 3.5C9.28505 3.5 8.21541 3.5 7.35456 3.57556C6.48094 3.65224 5.78008 3.80937 5.14562 4.14806C4.45573 4.51634 3.85231 5.02752 3.37562 5.64747C2.93723 6.21762 2.66702 6.88311 2.44776 7.73225C2.2317 8.56896 2.05585 9.62404 1.82874 10.9867L1.01066 15.8952C0.69616 17.7822 2.15134 19.5 4.06438 19.5C4.8077 19.5 5.51072 19.1621 5.97507 18.5817L7.24226 16.9977C6.92855 16.8659 6.63988 16.6863 6.38536 16.468L5.1942 17.957C4.91962 18.3002 4.50391 18.5 4.06438 18.5C2.76928 18.5 1.78414 17.3371 1.99706 16.0596L2.81114 11.1751C3.04308 9.78347 3.21218 8.77156 3.416 7.98227C3.61787 7.20049 3.84419 6.67863 4.16837 6.25702C4.55838 5.74979 5.05209 5.33155 5.61655 5.03023C6.08571 4.77978 6.63768 4.64233 7.442 4.57173C8.25407 4.50045 9.28001 4.5 10.6908 4.5H13.3094C14.7202 4.5 15.7461 4.50045 16.5582 4.57173C17.3625 4.64233 17.9145 4.77978 18.3836 5.03023C18.9481 5.33155 19.4418 5.74979 19.8318 6.25702C20.156 6.67863 20.3823 7.20049 20.5842 7.98227C20.788 8.77156 20.9571 9.78347 21.189 11.1751L22.0031 16.0596C22.216 17.3371 21.2309 18.5 19.9358 18.5C19.4963 18.5 19.0806 18.3002 18.806 17.957L17.6148 16.4679C17.3602 16.6862 17.0716 16.8658 16.7579 16.9976L18.0251 18.5817C18.4895 19.1621 19.1925 19.5 19.9358 19.5C21.8489 19.5 23.304 17.7822 22.9895 15.8952L22.1714 10.9867C21.9443 9.62404 21.7685 8.56896 21.5524 7.73225C21.3332 6.88311 21.063 6.21762 20.6246 5.64747C20.1479 5.02752 19.5445 4.51634 18.8546 4.14806C18.2201 3.80937 17.5193 3.65224 16.6456 3.57556C15.7848 3.5 14.7151 3.5 13.3336 3.5H10.6665Z" fill="black"/>
<path fill-rule="evenodd" clip-rule="evenodd" d="M6 14C6 12.6193 7.11929 11.5 8.5 11.5C9.88071 11.5 11 12.6193 11 14C11 15.3807 9.88071 16.5 8.5 16.5C7.11929 16.5 6 15.3807 6 14ZM8.5 12.5C7.67157 12.5 7 13.1716 7 14C7 14.8284 7.67157 15.5 8.5 15.5C9.32843 15.5 10 14.8284 10 14C10 13.1716 9.32843 12.5 8.5 12.5Z" fill="black"/>
<path fill-rule="evenodd" clip-rule="evenodd" d="M13 14C13 12.6193 14.1193 11.5 15.5 11.5C16.8807 11.5 18 12.6193 18 14C18 15.3807 16.8807 16.5 15.5 16.5C14.1193 16.5 13 15.3807 13 14ZM15.5 12.5C14.6716 12.5 14 13.1716 14 14C14 14.8284 14.6716 15.5 15.5 15.5C16.3284 15.5 17 14.8284 17 14C17 13.1716 16.3284 12.5 15.5 12.5Z" fill="black"/>
<path d="M16 6.25C16.4142 6.25 16.75 6.58579 16.75 7C16.75 7.41421 16.4142 7.75 16 7.75C15.5858 7.75 15.25 7.41421 15.25 7C15.25 6.58579 15.5858 6.25 16 6.25Z" fill="black"/>
<path d="M13.75 8.5C13.75 8.08579 14.0858 7.75 14.5 7.75C14.9142 7.75 15.25 8.08579 15.25 8.5C15.25 8.91421 14.9142 9.25 14.5 9.25C14.0858 9.25 13.75 8.91421 13.75 8.5Z" fill="black"/>
<path d="M16.75 10C16.75 9.58579 16.4142 9.25 16 9.25C15.5858 9.25 15.25 9.58579 15.25 10C15.25 10.4142 15.5858 10.75 16 10.75C16.4142 10.75 16.75 10.4142 16.75 10Z" fill="black"/>
<path d="M16.75 8.5C16.75 8.08579 17.0858 7.75 17.5 7.75C17.9142 7.75 18.25 8.08579 18.25 8.5C18.25 8.91421 17.9142 9.25 17.5 9.25C17.0858 9.25 16.75 8.91421 16.75 8.5Z" fill="black"/>
<path d="M7.5 6C7.77614 6 8 6.22386 8 6.5V7.75H9.25C9.52614 7.75 9.75 7.97386 9.75 8.25C9.75 8.52614 9.52614 8.75 9.25 8.75H8V10C8 10.2761 7.77614 10.5 7.5 10.5C7.22386 10.5 7 10.2761 7 10V8.75H5.75C5.47386 8.75 5.25 8.52614 5.25 8.25C5.25 7.97386 5.47386 7.75 5.75 7.75H7V6.5C7 6.22386 7.22386 6 7.5 6Z" fill="black"/>
</svg>
