<svg width="24" height="24" viewBox="0 0 24 24" fill="none" xmlns="http://www.w3.org/2000/svg">
<path d="M12.8258 1.75C14.4137 1.74998 15.7002 1.74997 16.7407 1.85613C17.8198 1.96625 18.7582 2.19982 19.6067 2.74675C20.0814 3.05275 20.5125 3.42169 20.8881 3.8435C21.5595 4.5974 21.9351 5.48847 22.2105 6.53768C22.476 7.54928 22.6746 8.82034 22.9197 10.3893L23.7631 15.7868C24.1295 18.1316 22.3164 20.25 19.9431 20.25C18.9673 20.25 18.0444 19.8064 17.4348 19.0444L16.669 18.0872C17.5028 17.8491 18.232 17.3628 18.7713 16.7132L19.3869 17.4827C19.5221 17.6516 19.7267 17.75 19.9431 17.75C20.7818 17.75 21.4225 17.0014 21.2931 16.1727L20.46 10.8408C20.2021 9.1907 20.0218 8.04614 19.7924 7.17238C19.5693 6.32217 19.3286 5.85135 19.0211 5.5061C18.7957 5.25302 18.5371 5.03165 18.2523 4.84805C17.8637 4.59758 17.3613 4.43245 16.4869 4.34322C15.5882 4.25152 14.4295 4.25 12.7594 4.25H11.2406C9.5705 4.25 8.41182 4.25152 7.51312 4.34322C6.63866 4.43245 6.13633 4.59758 5.74775 4.84805C5.46291 5.03165 5.20427 5.25302 4.97889 5.5061C4.67144 5.85135 4.43074 6.32217 4.20758 7.17238C3.97824 8.04614 3.79787 9.1907 3.54004 10.8408L2.70693 16.1727C2.57745 17.0014 3.21819 17.75 4.05689 17.75C4.27326 17.75 4.47791 17.6516 4.61307 17.4827L5.22859 16.7133C5.76796 17.3629 6.49712 17.8492 7.331 18.0872L6.56524 19.0444C5.95565 19.8064 5.03272 20.25 4.05689 20.25C1.6836 20.25 -0.129481 18.1316 0.2369 15.7868L1.08026 10.3893C1.32539 8.82034 1.52397 7.54928 1.78949 6.53769C2.06489 5.48847 2.44052 4.5974 3.11188 3.8435C3.4875 3.42169 3.91857 3.05275 4.3933 2.74675C5.24181 2.19982 6.18019 1.96625 7.25934 1.85613C8.29978 1.74997 9.58625 1.74998 11.1742 1.75H12.8258Z" fill="black"/>
<path fill-rule="evenodd" clip-rule="evenodd" d="M5.49991 14C5.49991 12.3431 6.84305 11 8.49991 11C10.1568 11 11.4999 12.3431 11.4999 14C11.4999 15.6569 10.1568 17 8.49991 17C6.84305 17 5.49991 15.6569 5.49991 14ZM8.49991 13C7.94762 13 7.49991 13.4477 7.49991 14C7.49991 14.5523 7.94762 15 8.49991 15C9.05219 15 9.49991 14.5523 9.49991 14C9.49991 13.4477 9.05219 13 8.49991 13Z" fill="black"/>
<path fill-rule="evenodd" clip-rule="evenodd" d="M12.4999 14C12.4999 12.3431 13.8431 11 15.4999 11C17.1568 11 18.4999 12.3431 18.4999 14C18.4999 15.6569 17.1568 17 15.4999 17C13.8431 17 12.4999 15.6569 12.4999 14ZM15.4999 13C14.9476 13 14.4999 13.4477 14.4999 14C14.4999 14.5523 14.9476 15 15.4999 15C16.0522 15 16.4999 14.5523 16.4999 14C16.4999 13.4477 16.0522 13 15.4999 13Z" fill="black"/>
<path d="M16.0002 5.5C16.5525 5.5 17.0002 5.94772 17.0002 6.5C17.0002 7.05229 16.5525 7.5 16.0002 7.5C15.448 7.5 15.0002 7.05229 15.0002 6.5C15.0002 5.94772 15.448 5.5 16.0002 5.5Z" fill="black"/>
<path d="M13.5002 8C13.5002 7.44772 13.948 7 14.5002 7C15.0525 7 15.5002 7.44772 15.5002 8C15.5002 8.55229 15.0525 9 14.5002 9C13.948 9 13.5002 8.55229 13.5002 8Z" fill="black"/>
<path d="M17.0002 9.5C17.0002 8.94772 16.5525 8.5 16.0002 8.5C15.448 8.5 15.0002 8.94772 15.0002 9.5C15.0002 10.0523 15.448 10.5 16.0002 10.5C16.5525 10.5 17.0002 10.0523 17.0002 9.5Z" fill="black"/>
<path d="M16.5002 8C16.5002 7.44772 16.948 7 17.5002 7C18.0525 7 18.5002 7.44772 18.5002 8C18.5002 8.55229 18.0525 9 17.5002 9C16.948 9 16.5002 8.55229 16.5002 8Z" fill="black"/>
<path d="M7.75024 5.25C8.30253 5.25 8.75024 5.69772 8.75024 6.25V7H9.50024C10.0525 7 10.5002 7.44772 10.5002 8C10.5002 8.55228 10.0525 9 9.50024 9H8.75024V9.75C8.75024 10.3023 8.30253 10.75 7.75024 10.75C7.19796 10.75 6.75024 10.3023 6.75024 9.75V9H6.00024C5.44796 9 5.00024 8.55229 5.00024 8C5.00024 7.44772 5.44796 7 6.00024 7H6.75024V6.25C6.75024 5.69772 7.19796 5.25 7.75024 5.25Z" fill="black"/>
</svg>
