<svg width="24" height="24" viewBox="0 0 24 24" fill="none" xmlns="http://www.w3.org/2000/svg">
<path d="M12.8255 1.75C14.4135 1.74998 15.7 1.74997 16.7404 1.85613C17.8196 1.96625 18.7579 2.19982 19.6065 2.74675C20.0812 3.05275 20.5123 3.42169 20.8879 3.8435C21.5592 4.5974 21.9349 5.48847 22.2103 6.53768C22.4758 7.54928 22.6744 8.82034 22.9195 10.3893L23.7629 15.7868C24.1292 18.1316 22.3162 20.25 19.9429 20.25C18.967 20.25 18.0441 19.8064 17.4345 19.0444L16.6687 18.0872C17.5026 17.8491 18.2317 17.3628 18.7711 16.7132L19.3867 17.4827C19.5219 17.6516 19.7265 17.75 19.9429 17.75C20.7816 17.75 21.4223 17.0014 21.2928 16.1727L20.4597 10.8408C20.2019 9.1907 20.0215 8.04614 19.7922 7.17238C19.569 6.32217 19.3283 5.85135 19.0209 5.5061C18.7955 5.25302 18.5368 5.03165 18.252 4.84805C17.8634 4.59758 17.3611 4.43245 16.4866 4.34322C15.5879 4.25152 14.4293 4.25 12.7591 4.25H11.2404C9.57026 4.25 8.41157 4.25152 7.51288 4.34322C6.63842 4.43245 6.13608 4.59758 5.7475 4.84805C5.46266 5.03165 5.20402 5.25302 4.97865 5.5061C4.6712 5.85135 4.4305 6.32217 4.20734 7.17238C3.978 8.04614 3.79763 9.1907 3.5398 10.8408L2.70669 16.1727C2.57721 17.0014 3.21794 17.75 4.05665 17.75C4.27302 17.75 4.47766 17.6516 4.61283 17.4827L5.22835 16.7133C5.76771 17.3629 6.49687 17.8492 7.33076 18.0872L6.565 19.0444C5.9554 19.8064 5.03248 20.25 4.05665 20.25C1.68336 20.25 -0.129725 18.1316 0.236656 15.7868L1.08002 10.3893C1.32514 8.82034 1.52373 7.54928 1.78925 6.53769C2.06464 5.48847 2.44027 4.5974 3.11163 3.8435C3.48725 3.42169 3.91832 3.05275 4.39306 2.74675C5.24157 2.19982 6.17994 1.96625 7.25909 1.85613C8.29954 1.74997 9.586 1.74998 11.174 1.75H12.8255Z" fill="black"/>
<path fill-rule="evenodd" clip-rule="evenodd" d="M5.49966 14C5.49966 12.3431 6.84281 11 8.49966 11C10.1565 11 11.4997 12.3431 11.4997 14C11.4997 15.6569 10.1565 17 8.49966 17C6.84281 17 5.49966 15.6569 5.49966 14ZM8.49966 13C7.94738 13 7.49966 13.4477 7.49966 14C7.49966 14.5523 7.94738 15 8.49966 15C9.05195 15 9.49966 14.5523 9.49966 14C9.49966 13.4477 9.05195 13 8.49966 13Z" fill="black"/>
<path fill-rule="evenodd" clip-rule="evenodd" d="M12.4997 14C12.4997 12.3431 13.8428 11 15.4997 11C17.1565 11 18.4997 12.3431 18.4997 14C18.4997 15.6569 17.1565 17 15.4997 17C13.8428 17 12.4997 15.6569 12.4997 14ZM15.4997 13C14.9474 13 14.4997 13.4477 14.4997 14C14.4997 14.5523 14.9474 15 15.4997 15C16.0519 15 16.4997 14.5523 16.4997 14C16.4997 13.4477 16.0519 13 15.4997 13Z" fill="black"/>
<path d="M16 5.5C16.5523 5.5 17 5.94772 17 6.5C17 7.05229 16.5523 7.5 16 7.5C15.4477 7.5 15 7.05229 15 6.5C15 5.94772 15.4477 5.5 16 5.5Z" fill="black"/>
<path d="M13.5 8C13.5 7.44772 13.9477 7 14.5 7C15.0523 7 15.5 7.44772 15.5 8C15.5 8.55229 15.0523 9 14.5 9C13.9477 9 13.5 8.55229 13.5 8Z" fill="black"/>
<path d="M17 9.5C17 8.94772 16.5523 8.5 16 8.5C15.4477 8.5 15 8.94772 15 9.5C15 10.0523 15.4477 10.5 16 10.5C16.5523 10.5 17 10.0523 17 9.5Z" fill="black"/>
<path d="M16.5 8C16.5 7.44772 16.9477 7 17.5 7C18.0523 7 18.5 7.44772 18.5 8C18.5 8.55229 18.0523 9 17.5 9C16.9477 9 16.5 8.55229 16.5 8Z" fill="black"/>
<path d="M7.75 5.25C8.30228 5.25 8.75 5.69772 8.75 6.25V7H9.5C10.0523 7 10.5 7.44772 10.5 8C10.5 8.55228 10.0523 9 9.5 9H8.75V9.75C8.75 10.3023 8.30228 10.75 7.75 10.75C7.19772 10.75 6.75 10.3023 6.75 9.75V9H6C5.44772 9 5 8.55229 5 8C5 7.44772 5.44772 7 6 7H6.75V6.25C6.75 5.69772 7.19772 5.25 7.75 5.25Z" fill="black"/>
</svg>
