<svg width="24" height="24" viewBox="0 0 24 24" fill="none" xmlns="http://www.w3.org/2000/svg">
<path fill-rule="evenodd" clip-rule="evenodd" d="M11.2265 2.75C9.59454 2.75 8.35084 2.75 7.36136 2.85097C6.36409 2.95273 5.60013 3.15892 4.93559 3.58726C4.53681 3.84431 4.17472 4.15422 3.85919 4.50854C3.3334 5.09898 3.01174 5.82195 2.75724 6.79156C2.50473 7.75359 2.31273 8.98238 2.06079 10.5948L1.22542 15.9412C0.953804 17.6795 2.29795 19.25 4.0574 19.25C4.72945 19.25 5.36506 18.9445 5.78489 18.4197L6.85063 17.0876C5.74946 16.4979 5.00042 15.3364 5.00042 14C5.00042 12.067 6.56742 10.5 8.50042 10.5C10.4334 10.5 12.0004 12.067 12.0004 14C12.0004 14.0841 11.9975 14.1674 11.9916 14.25H12.0092C12.0034 14.1674 12.0004 14.0841 12.0004 14C12.0004 12.067 13.5674 10.5 15.5004 10.5C17.4334 10.5 19.0004 12.067 19.0004 14C19.0004 15.3364 18.2514 16.4979 17.1503 17.0875L18.2161 18.4197C18.6359 18.9445 19.2715 19.25 19.9436 19.25C21.703 19.25 23.0472 17.6795 22.7756 15.9412L21.9402 10.5948C21.6883 8.98267 21.4962 7.75347 21.2438 6.79156C20.9893 5.82195 20.6676 5.09898 20.1418 4.50854C19.8263 4.15422 19.4642 3.84431 19.0654 3.58726C18.4009 3.15892 17.6369 2.95273 16.6396 2.85097C15.6502 2.75 14.4065 2.75 12.7745 2.75H11.2265ZM17 5C17 4.44772 16.5523 4 16 4C15.4477 4 15 4.44772 15 5C15 5.55228 15.4477 6 16 6C16.5523 6 17 5.55228 17 5ZM14 5.75C13.4477 5.75 13 6.19772 13 6.75C13 7.30229 13.4477 7.75 14 7.75C14.5523 7.75 15 7.30228 15 6.75C15 6.19772 14.5523 5.75 14 5.75ZM16 7.5C16.5523 7.5 17 7.94772 17 8.5C17 9.05228 16.5523 9.5 16 9.5C15.4477 9.5 15 9.05228 15 8.5C15 7.94772 15.4477 7.5 16 7.5ZM18 5.75C17.4477 5.75 17 6.19772 17 6.75C17 7.30229 17.4477 7.75 18 7.75C18.5523 7.75 19 7.30228 19 6.75C19 6.19772 18.5523 5.75 18 5.75ZM8.25 5C8.25 4.58579 7.91421 4.25 7.5 4.25C7.08579 4.25 6.75 4.58579 6.75 5V6H5.75C5.33579 6 5 6.33579 5 6.75C5 7.16421 5.33579 7.5 5.75 7.5H6.75V8.5C6.75 8.91421 7.08579 9.25 7.5 9.25C7.91421 9.25 8.25 8.91421 8.25 8.5V7.5H9.25C9.66421 7.5 10 7.16421 10 6.75C10 6.33579 9.66421 6 9.25 6H8.25V5Z" fill="black"/>
<path d="M10.4849 14.25C10.4952 14.1681 10.5004 14.0847 10.5004 14C10.5004 12.8954 9.60499 12 8.50042 12C7.39585 12 6.50042 12.8954 6.50042 14C6.50042 14.8175 6.99092 15.5205 7.69369 15.8306C7.94044 15.9395 8.21337 16 8.50042 16C9.52032 16 10.3619 15.2366 10.4849 14.25Z" fill="black"/>
<path d="M16.3073 15.8306C16.0605 15.9395 15.7875 16 15.5004 16C14.4805 16 13.6389 15.2366 13.5159 14.25C13.5057 14.1681 13.5004 14.0847 13.5004 14C13.5004 12.8954 14.3958 12 15.5004 12C16.605 12 17.5004 12.8954 17.5004 14C17.5004 14.8175 17.01 15.5204 16.3073 15.8306Z" fill="black"/>
</svg>
