<svg width="24" height="24" viewBox="0 0 24 24" fill="none" xmlns="http://www.w3.org/2000/svg">
<path fill-rule="evenodd" clip-rule="evenodd" d="M6.5 4C5.94772 4 5.5 4.44772 5.5 5V7C5.5 7.55228 5.94772 8 6.5 8H12.5C13.0523 8 13.5 7.55228 13.5 7V5C13.5 4.44772 13.0523 4 12.5 4H6.5ZM12.5 5H6.5V7H12.5V5Z" fill="black"/>
<path fill-rule="evenodd" clip-rule="evenodd" d="M16 9.00114V4C16 2.61929 14.8807 1.5 13.5 1.5H5.5C4.11929 1.5 3 2.61929 3 4V18.5C2.44772 18.5 2 18.9477 2 19.5V21C2 21.8284 2.67157 22.5 3.5 22.5H15.5C16.3284 22.5 17 21.8284 17 21V19.5C17 18.9477 16.5523 18.5 16 18.5V10.0012C16.2232 10.0029 16.4048 10.0073 16.5603 10.0179C16.8137 10.0352 16.9613 10.0675 17.074 10.1142C17.4416 10.2664 17.7336 10.5584 17.8858 10.926C17.9325 11.0387 17.9648 11.1863 17.9821 11.4397C17.9997 11.6977 18 12.0272 18 12.5V14.75C18 15.7165 18.7835 16.5 19.75 16.5C20.7165 16.5 21.5 15.7165 21.5 14.75L21.5 7.26851C21.5001 6.83414 21.5002 6.53346 21.4309 6.24481C21.3697 5.98972 21.2687 5.74586 21.1316 5.52218C20.9765 5.26908 20.7638 5.05653 20.4566 4.74948L19.3536 3.64645C19.1583 3.45118 18.8417 3.45118 18.6464 3.64645C18.4512 3.84171 18.4512 4.15829 18.6464 4.35355L19.7092 5.4163C20.0719 5.77903 20.1934 5.90504 20.279 6.04468C20.3612 6.17889 20.4218 6.3252 20.4586 6.47826C20.4968 6.63751 20.5 6.8125 20.5 7.32548V14.75C20.5 15.1642 20.1642 15.5 19.75 15.5C19.3358 15.5 19 15.1642 19 14.75V12.4822C19 12.0314 19 11.6677 18.9798 11.3717C18.959 11.0673 18.9153 10.7981 18.8097 10.5433C18.556 9.93072 18.0693 9.44404 17.4567 9.1903C17.2019 9.08474 16.9327 9.04096 16.6283 9.02019C16.4461 9.00775 16.2381 9.00298 16 9.00114ZM5.5 2.5C4.67157 2.5 4 3.17157 4 4V18.5C4 19.0523 3.55228 19.5 3 19.5V21C3 21.2761 3.22386 21.5 3.5 21.5H15.5C15.7761 21.5 16 21.2761 16 21V19.5C15.4477 19.5 15 19.0523 15 18.5V4C15 3.17157 14.3284 2.5 13.5 2.5H5.5Z" fill="black"/>
</svg>
