<svg width="24" height="24" viewBox="0 0 24 24" fill="none" xmlns="http://www.w3.org/2000/svg">
<path fill-rule="evenodd" clip-rule="evenodd" d="M6.5 4C5.94772 4 5.5 4.44772 5.5 5V7C5.5 7.55228 5.94772 8 6.5 8H12.5C13.0523 8 13.5 7.55228 13.5 7V5C13.5 4.44772 13.0523 4 12.5 4H6.5ZM7 5.5V6.5H12V5.5H7Z" fill="black"/>
<path fill-rule="evenodd" clip-rule="evenodd" d="M16.25 8.75453V4C16.25 2.48122 15.0188 1.25 13.5 1.25H5.5C3.98122 1.25 2.75 2.48122 2.75 4V18.275C2.17944 18.3908 1.75 18.8953 1.75 19.5V21C1.75 21.9665 2.5335 22.75 3.5 22.75H15.5C16.4665 22.75 17.25 21.9665 17.25 21V19.5C17.25 18.8953 16.8206 18.3908 16.25 18.275V10.2549C16.3593 10.2574 16.4558 10.2613 16.5433 10.2673C16.784 10.2837 16.9012 10.3132 16.9784 10.3451C17.2846 10.472 17.528 10.7154 17.6549 11.0216C17.6868 11.0988 17.7163 11.216 17.7327 11.4567C17.7496 11.7042 17.75 12.0238 17.75 12.5V14.75C17.75 15.8546 18.6454 16.75 19.75 16.75C20.8546 16.75 21.75 15.8546 21.75 14.75L21.75 7.25301C21.7503 6.83439 21.7505 6.50487 21.674 6.18645C21.6067 5.90585 21.4955 5.6376 21.3448 5.39156C21.1737 5.11235 20.9405 4.87947 20.6443 4.58364L19.5303 3.46967C19.2374 3.17678 18.7626 3.17678 18.4697 3.46967C18.1768 3.76256 18.1768 4.23744 18.4697 4.53033L19.5324 5.59307C19.9036 5.96422 19.9993 6.06676 20.0658 6.1753C20.1343 6.28714 20.1848 6.40907 20.2155 6.53662C20.2452 6.6604 20.25 6.8006 20.25 7.32548V14.75C20.25 15.0261 20.0261 15.25 19.75 15.25C19.4739 15.25 19.25 15.0261 19.25 14.75V12.4747C19.25 12.0303 19.25 11.6592 19.2292 11.3546C19.2076 11.0375 19.161 10.738 19.0407 10.4476C18.7616 9.77379 18.2262 9.23844 17.5524 8.95933C17.262 8.83905 16.9625 8.79241 16.6454 8.77077C16.5242 8.7625 16.3926 8.75753 16.25 8.75453ZM5.5 2.75C4.80964 2.75 4.25 3.30964 4.25 4V18.5C4.25 19.1047 3.82056 19.6092 3.25 19.725V21C3.25 21.1381 3.36193 21.25 3.5 21.25H15.5C15.6381 21.25 15.75 21.1381 15.75 21V19.725C15.1794 19.6092 14.75 19.1047 14.75 18.5V4C14.75 3.30964 14.1904 2.75 13.5 2.75H5.5Z" fill="black"/>
</svg>
