<svg width="24" height="24" viewBox="0 0 24 24" fill="none" xmlns="http://www.w3.org/2000/svg">
<path d="M6.00007 6C6.00007 3.79086 7.79093 2 10.0001 2C12.2092 2 14.0001 3.79086 14.0001 6C14.0001 6.55228 14.4478 7 15.0001 7C15.5524 7 16.0001 6.55228 16.0001 6C16.0001 2.68629 13.3138 0 10.0001 0C6.68636 0 4.00007 2.68629 4.00007 6C4.00007 6.55228 4.44778 7 5.00007 7C5.55235 7 6.00007 6.55228 6.00007 6Z" fill="black"/>
<path fill-rule="evenodd" clip-rule="evenodd" d="M15.1124 8.66218C14.669 7.96363 13.8887 7.5 13.0001 7.5C12.8288 7.5 12.6616 7.51721 12.5001 7.55001V6C12.5001 4.61929 11.3808 3.5 10.0001 3.5C8.61935 3.5 7.50007 4.61929 7.50007 6V13.3061L5.92528 11.4051C5.04447 10.3419 3.46848 10.194 2.40521 11.0748C1.34195 11.9556 1.19404 13.5316 2.07485 14.5949L7.54475 21.1978C8.98888 22.9411 11.1348 23.95 13.3986 23.95C17.5968 23.95 21.0001 20.5467 21.0001 16.3485L21.0001 12.5C21.0001 11.1193 19.8809 10 18.5001 10C18.4314 10 18.3632 10.0028 18.2957 10.0083C17.9118 9.12091 17.0284 8.5 16.0001 8.5C15.6874 8.5 15.3882 8.55738 15.1124 8.66218ZM10.0001 5.5C10.2762 5.5 10.5001 5.72386 10.5001 6V13.9C10.5001 14.4523 10.9478 14.9 11.5001 14.9C12.0524 14.9 12.5001 14.4523 12.5001 13.9V10C12.5001 9.72386 12.7239 9.5 13.0001 9.5C13.2762 9.5 13.5001 9.72386 13.5001 10V13.9C13.5001 14.4523 13.9478 14.9 14.5001 14.9C15.0524 14.9 15.5001 14.4523 15.5001 13.9V10.9998C15.5003 10.7239 15.7241 10.5 16.0001 10.5C16.2762 10.5 16.5001 10.7239 16.5001 11V14C16.5001 14.5523 16.9478 15 17.5001 15C18.0524 15 18.5001 14.5523 18.5001 14V12C18.7762 12 19.0001 12.2239 19.0001 12.5L19.0001 16.3485C19.0001 19.4421 16.4922 21.95 13.3986 21.95C11.7304 21.95 10.1491 21.2065 9.08493 19.9219L3.61502 13.319C3.43886 13.1063 3.46844 12.7911 3.6811 12.615C3.89375 12.4388 4.20895 12.4684 4.38511 12.681L6.6377 15.4002C7.11754 15.9795 7.93341 16.1514 8.60617 15.815C9.15401 15.5411 9.50007 14.9811 9.50007 14.3686V6C9.50007 5.72386 9.72392 5.5 10.0001 5.5Z" fill="black"/>
</svg>
