<svg width="24" height="24" viewBox="0 0 24 24" fill="none" xmlns="http://www.w3.org/2000/svg">
<path d="M5.87494 6C5.87494 3.72183 7.72177 1.875 9.99994 1.875C12.2781 1.875 14.1249 3.72183 14.1249 6C14.1249 6.48325 14.5167 6.875 14.9999 6.875C15.4832 6.875 15.8749 6.48325 15.8749 6C15.8749 2.75533 13.2446 0.125 9.99994 0.125C6.75527 0.125 4.12494 2.75533 4.12494 6C4.12494 6.48325 4.51669 6.875 4.99994 6.875C5.48319 6.875 5.87494 6.48325 5.87494 6Z" fill="black"/>
<path fill-rule="evenodd" clip-rule="evenodd" d="M15.0604 8.81807C14.6506 8.10511 13.8813 7.625 12.9999 7.625C12.7836 7.625 12.5741 7.65392 12.3749 7.70809V6C12.3749 4.68832 11.3116 3.625 9.99994 3.625C8.68826 3.625 7.62494 4.68832 7.62494 6V13.653L5.82889 11.4849C4.99212 10.4748 3.49493 10.3343 2.48483 11.171C1.47473 12.0078 1.33422 13.505 2.17099 14.5151L7.64089 21.1181C9.06127 22.8327 11.1719 23.825 13.3984 23.825C17.5276 23.825 20.8749 20.4777 20.875 16.3485L20.875 12.5C20.875 11.1883 19.8117 10.125 18.5 10.125C18.4038 10.125 18.3087 10.1308 18.2152 10.142C17.8712 9.25436 17.0091 8.625 15.9999 8.625C15.6662 8.625 15.3486 8.69383 15.0604 8.81807ZM9.99994 5.375C10.3451 5.375 10.6249 5.65482 10.6249 6V13.9C10.6249 14.3832 11.0167 14.775 11.4999 14.775C11.9832 14.775 12.3749 14.3832 12.3749 13.9V10C12.3749 9.65482 12.6548 9.375 12.9999 9.375C13.3451 9.375 13.6249 9.65482 13.6249 10V13.9C13.6249 14.3832 14.0167 14.775 14.4999 14.775C14.9832 14.775 15.3749 14.3832 15.3749 13.9V10.9998C15.3752 10.6548 15.6549 10.375 15.9999 10.375C16.3451 10.375 16.6249 10.6548 16.6249 11V14C16.6249 14.4832 17.0167 14.875 17.4999 14.875C17.9832 14.875 18.3749 14.4832 18.3749 14V11.8873C18.415 11.8793 18.4568 11.875 18.5 11.875C18.8452 11.875 19.125 12.1548 19.125 12.5L19.125 16.3485C19.125 19.5112 16.5611 22.075 13.3984 22.075C11.6931 22.075 10.0765 21.3149 8.98854 20.0017L3.51864 13.3987C3.29843 13.1329 3.33541 12.7389 3.60123 12.5187C3.86704 12.2985 4.26104 12.3355 4.48125 12.6013L6.73384 15.3205C7.17659 15.8549 7.92938 16.0136 8.55014 15.7032C9.05563 15.4504 9.37494 14.9338 9.37494 14.3686V6C9.37494 5.65482 9.65476 5.375 9.99994 5.375Z" fill="black"/>
</svg>
