<svg width="24" height="25" viewBox="0 0 24 25" fill="none" xmlns="http://www.w3.org/2000/svg">
<path d="M6.25005 7C6.25005 4.92893 7.92898 3.25 10 3.25C12.0711 3.25 13.75 4.92893 13.75 7C13.75 7.69036 14.3097 8.25 15 8.25C15.6904 8.25 16.25 7.69036 16.25 7C16.25 3.54822 13.4518 0.75 10 0.75C6.54827 0.75 3.75005 3.54822 3.75005 7C3.75005 7.69036 4.30969 8.25 5.00005 8.25C5.6904 8.25 6.25005 7.69036 6.25005 7Z" fill="black"/>
<path d="M14.7374 10.7883C14.6329 9.92164 13.8949 9.25 13 9.25C12.5104 9.25 12.0677 9.45112 11.75 9.77525V7C11.75 6.0335 10.9665 5.25 10 5.25C9.03355 5.25 8.25005 6.0335 8.25005 7V15.3686C8.25005 15.5077 8.17149 15.6348 8.04713 15.6969C7.89441 15.7733 7.70921 15.7343 7.60029 15.6028L5.34769 12.8836C4.73113 12.1393 3.62794 12.0358 2.88365 12.6524C2.13936 13.2689 2.03583 14.3721 2.6524 15.1164L8.1223 21.7193C9.42394 23.2906 11.3582 24.2 13.3985 24.2C17.1825 24.2 20.2501 21.1325 20.2501 17.3485L20.2501 13.5C20.2501 12.5335 19.4666 11.75 18.5001 11.75C18.2314 11.75 17.9763 11.8107 17.7482 11.9194C17.7061 10.9903 16.9395 10.25 16 10.25C15.5038 10.25 15.0558 10.4565 14.7374 10.7883Z" fill="black"/>
</svg>
