<svg width="24" height="24" viewBox="0 0 24 24" fill="none" xmlns="http://www.w3.org/2000/svg">
<path d="M5.75006 6C5.75006 3.65279 7.65285 1.75 10.0001 1.75C12.3473 1.75 14.2501 3.65279 14.2501 6C14.2501 6.41421 14.5858 6.75 15.0001 6.75C15.4143 6.75 15.7501 6.41421 15.7501 6C15.7501 2.82436 13.1757 0.25 10.0001 0.25C6.82442 0.25 4.25006 2.82436 4.25006 6C4.25006 6.41421 4.58585 6.75 5.00006 6.75C5.41427 6.75 5.75006 6.41421 5.75006 6Z" fill="black"/>
<path fill-rule="evenodd" clip-rule="evenodd" d="M15.0065 8.98071C14.6347 8.25031 13.8758 7.75 13.0001 7.75C12.7371 7.75 12.4846 7.79512 12.2501 7.87803V6C12.2501 4.75736 11.2427 3.75 10.0001 3.75C8.75742 3.75 7.75006 4.75736 7.75006 6V13.9998L5.73275 11.5646C4.94002 10.6077 3.52163 10.4746 2.56469 11.2673C1.60775 12.06 1.47464 13.4784 2.26737 14.4354L7.73727 21.0383C9.1339 22.7242 11.2093 23.7 13.3985 23.7C17.4587 23.7 20.7501 20.4086 20.7501 16.3485L20.7501 12.5C20.7501 11.2574 19.7428 10.25 18.5001 10.25C18.3751 10.25 18.2522 10.2603 18.1324 10.28C17.8322 9.39048 16.9909 8.75 16.0001 8.75C15.6434 8.75 15.3061 8.83299 15.0065 8.98071ZM10.0001 5.25C10.4143 5.25 10.7501 5.58579 10.7501 6V13.9C10.7501 14.3142 11.0858 14.65 11.5001 14.65C11.9143 14.65 12.2501 14.3142 12.2501 13.9V10C12.2501 9.58579 12.5858 9.25 13.0001 9.25C13.4143 9.25 13.7501 9.58579 13.7501 10V13.9C13.7501 14.3142 14.0858 14.65 14.5001 14.65C14.9143 14.65 15.2501 14.3142 15.2501 13.9V10.9998C15.2503 10.5858 15.586 10.25 16.0001 10.25C16.4143 10.25 16.7501 10.5858 16.7501 11V14C16.7501 14.4142 17.0858 14.75 17.5001 14.75C17.9143 14.75 18.2501 14.4142 18.2501 14V11.7925C18.3277 11.765 18.4116 11.75 18.5001 11.75C18.9143 11.75 19.2501 12.0858 19.2501 12.5L19.2501 16.3485C19.2501 19.5802 16.6303 22.2 13.3986 22.2C11.656 22.2 10.0041 21.4233 8.8924 20.0814L3.4225 13.4785C3.15825 13.1595 3.20262 12.6867 3.5216 12.4224C3.84058 12.1582 4.31338 12.2026 4.57762 12.5215L6.83021 15.2407C7.23587 15.7304 7.92561 15.8758 8.49436 15.5914C8.9575 15.3598 9.25006 14.8864 9.25006 14.3686V6C9.25006 5.58579 9.58584 5.25 10.0001 5.25Z" fill="black"/>
</svg>
