<svg width="24" height="24" viewBox="0 0 24 24" fill="none" xmlns="http://www.w3.org/2000/svg">
<path d="M6.00005 6C6.00005 3.79086 7.79091 2 10 2C12.2092 2 14 3.79086 14 6C14 6.55228 14.4478 7 15 7C15.5523 7 16 6.55228 16 6C16 2.68629 13.3138 0 10 0C6.68634 0 4.00005 2.68629 4.00005 6C4.00005 6.55228 4.44776 7 5.00005 7C5.55233 7 6.00005 6.55228 6.00005 6Z" fill="black"/>
<path d="M14.7374 9.78832C14.6329 8.92164 13.8949 8.25 13 8.25C12.5104 8.25 12.0677 8.45112 11.75 8.77525V6C11.75 5.0335 10.9665 4.25 10 4.25C9.03355 4.25 8.25005 5.0335 8.25005 6V14.3686C8.25005 14.5077 8.17149 14.6348 8.04713 14.6969C7.89441 14.7733 7.70921 14.7343 7.60029 14.6028L5.34769 11.8836C4.73113 11.1393 3.62794 11.0358 2.88365 11.6524C2.13936 12.2689 2.03583 13.3721 2.6524 14.1164L8.1223 20.7193C9.42394 22.2906 11.3582 23.2 13.3985 23.2C17.1825 23.2 20.2501 20.1325 20.2501 16.3485L20.2501 12.5C20.2501 11.5335 19.4666 10.75 18.5001 10.75C18.2314 10.75 17.9763 10.8107 17.7482 10.9194C17.7061 9.9903 16.9395 9.25 16 9.25C15.5038 9.25 15.0558 9.45653 14.7374 9.78832Z" fill="black"/>
</svg>
