<svg width="24" height="24" viewBox="0 0 24 24" fill="none" xmlns="http://www.w3.org/2000/svg">
<path fill-rule="evenodd" clip-rule="evenodd" d="M10.4244 2.94828C9.17647 0.45234 5.75132 0.113189 4.03809 2.31591C2.71453 4.01763 3.09716 6.40627 4.71305 7.6484H3.50195C2.25931 7.6484 1.25195 8.65576 1.25195 9.8984V14.1484H2.25195V20.8984C2.25195 22.141 3.25931 23.1484 4.50195 23.1484H19.502C20.7446 23.1484 21.752 22.141 21.752 20.8984V14.1484H22.752V9.8984C22.752 8.65576 21.7446 7.6484 20.502 7.6484H19.2909C20.9067 6.40627 21.2894 4.01764 19.9658 2.31592C18.2526 0.113201 14.8274 0.452352 13.5795 2.9483L12.002 6.10332L10.4244 2.94828ZM6.01147 3.85076C6.59546 3.09992 7.76298 3.21553 8.18837 4.06632L9.76665 7.22288L6.52278 5.83287C5.74415 5.49923 5.4914 4.51943 6.01147 3.85076ZM10.752 14.1484H13.252V20.6484H10.752V14.1484ZM3.75195 11.6484V10.1484H10.752V11.6484H3.75195ZM13.252 11.6484V10.1484H20.252V11.6484H13.252ZM15.8155 4.06633C16.2409 3.21554 17.4085 3.09994 17.9924 3.85078C18.5125 4.51944 18.2598 5.49924 17.4811 5.83288L14.2373 7.22289L15.8155 4.06633Z" fill="black"/>
</svg>
