<svg width="24" height="24" viewBox="0 0 24 24" fill="none" xmlns="http://www.w3.org/2000/svg">
<path fill-rule="evenodd" clip-rule="evenodd" d="M10.4225 2.94828C9.17451 0.45234 5.74936 0.113189 4.03613 2.31591C2.71257 4.01764 3.09521 6.40627 4.7111 7.6484H3.5C2.25736 7.6484 1.25 8.65576 1.25 9.8984V14.1484H2.25V20.8984C2.25 22.141 3.25736 23.1484 4.5 23.1484H19.5C20.7426 23.1484 21.75 22.141 21.75 20.8984V14.1484H22.75V9.8984C22.75 8.65576 21.7426 7.6484 20.5 7.6484H19.2889C20.9048 6.40627 21.2874 4.01764 19.9639 2.31592C18.2506 0.113201 14.8255 0.452352 13.5775 2.9483L12 6.10332L10.4225 2.94828ZM6.00951 3.85076C6.5935 3.09992 7.76102 3.21553 8.18642 4.06632L9.7647 7.22288L6.52082 5.83287C5.7422 5.49923 5.48944 4.51943 6.00951 3.85076ZM4.75 14.1484H10.75V20.6484H4.75V14.1484ZM13.25 14.1484H19.25V20.6484H13.25V14.1484ZM3.75 11.6484V10.1484H10.75V11.6484H3.75ZM13.25 11.6484V10.1484H20.25V11.6484H13.25ZM15.8136 4.06633C16.239 3.21554 17.4065 3.09994 17.9905 3.85078C18.5106 4.51944 18.2578 5.49924 17.4792 5.83288L14.2353 7.22289L15.8136 4.06633Z" fill="black"/>
</svg>
