<svg width="24" height="24" viewBox="0 0 24 24" fill="none" xmlns="http://www.w3.org/2000/svg">
<path fill-rule="evenodd" clip-rule="evenodd" d="M19 1C20.6569 1 22 2.34315 22 4C22 5.30574 21.1645 6.413 20 6.8252V8C20 10.7614 17.7614 13 15 13H13V18.1738C14.1647 18.5859 15 19.6941 15 21C15 22.6569 13.6569 24 12 24C10.3431 24 9 22.6569 9 21C9 19.6941 9.83532 18.5859 11 18.1738V13H9C6.23858 13 4 10.7614 4 8V6.8252C2.83548 6.413 2 5.30574 2 4C2 2.34315 3.34315 1 5 1C6.65685 1 8 2.34315 8 4C8 5.30574 7.16452 6.413 6 6.8252V8C6 9.65685 7.34315 11 9 11H15C16.6569 11 18 9.65685 18 8V6.8252C16.8355 6.413 16 5.30574 16 4C16 2.34315 17.3431 1 19 1ZM12 20C11.4477 20 11 20.4477 11 21C11 21.5523 11.4477 22 12 22C12.5523 22 13 21.5523 13 21C13 20.4477 12.5523 20 12 20ZM5 3C4.44772 3 4 3.44772 4 4C4 4.55228 4.44772 5 5 5C5.55228 5 6 4.55228 6 4C6 3.44772 5.55228 3 5 3ZM19 3C18.4477 3 18 3.44772 18 4C18 4.55228 18.4477 5 19 5C19.5523 5 20 4.55228 20 4C20 3.44772 19.5523 3 19 3Z" fill="black"/>
</svg>
