<svg width="24" height="24" viewBox="0 0 24 24" fill="none" xmlns="http://www.w3.org/2000/svg">
<path d="M23.0508 20.3811C23.0506 19.967 22.7149 19.6311 22.3008 19.6311H14.5928C14.2396 18.6791 13.3249 18.0003 12.25 18.0002C11.1752 18.0002 10.2615 18.6793 9.9082 19.6311H2.34473C1.93071 19.6312 1.5949 19.9671 1.59473 20.3811C1.59473 20.7953 1.9306 21.131 2.34473 21.1311H9.83398C10.1139 22.2058 11.0876 23.0002 12.25 23.0002C13.4125 23.0002 14.3871 22.2059 14.667 21.1311H22.3008C22.715 21.1311 23.0508 20.7953 23.0508 20.3811Z" fill="black"/>
<path d="M16.998 12.3333C17.5082 11.823 17.1473 10.9507 16.4258 10.9504H13.0781L13.0781 9.30688H11.5781L11.5781 10.9504H8.23047C7.50882 10.9506 7.14789 11.8229 7.6582 12.3333L11.7549 16.4299C12.0713 16.7463 12.585 16.7463 12.9014 16.4299L16.998 12.3333Z" fill="black"/>
<path d="M11.5781 4.65552V7.44653H13.0781V4.65552H11.5781Z" fill="black"/>
<path d="M11.5781 1.39868V2.79419L13.0781 2.79419V1.39868L11.5781 1.39868Z" fill="black"/>
</svg>
