<svg width="24" height="24" viewBox="0 0 24 24" fill="none" xmlns="http://www.w3.org/2000/svg">
<path fill-rule="evenodd" clip-rule="evenodd" d="M19 1.5C20.3807 1.5 21.5 2.61929 21.5 4C21.5 5.20943 20.641 6.21753 19.5 6.44922V8C19.5 10.4853 17.4853 12.5 15 12.5H12.5V18.5498C13.6411 18.7814 14.5 19.7905 14.5 21C14.5 22.3807 13.3807 23.5 12 23.5C10.6193 23.5 9.5 22.3807 9.5 21C9.5 19.7905 10.3589 18.7814 11.5 18.5498V12.5H9C6.51472 12.5 4.5 10.4853 4.5 8V6.44922C3.35895 6.21753 2.5 5.20943 2.5 4C2.5 2.61929 3.61929 1.5 5 1.5C6.38071 1.5 7.5 2.61929 7.5 4C7.5 5.20943 6.64105 6.21753 5.5 6.44922V8C5.5 9.933 7.067 11.5 9 11.5H15C16.933 11.5 18.5 9.933 18.5 8V6.44922C17.359 6.21753 16.5 5.20943 16.5 4C16.5 2.61929 17.6193 1.5 19 1.5ZM12 19.5C11.1716 19.5 10.5 20.1716 10.5 21C10.5 21.8284 11.1716 22.5 12 22.5C12.8284 22.5 13.5 21.8284 13.5 21C13.5 20.1716 12.8284 19.5 12 19.5ZM5 2.5C4.17157 2.5 3.5 3.17157 3.5 4C3.5 4.82843 4.17157 5.5 5 5.5C5.82843 5.5 6.5 4.82843 6.5 4C6.5 3.17157 5.82843 2.5 5 2.5ZM19 2.5C18.1716 2.5 17.5 3.17157 17.5 4C17.5 4.82843 18.1716 5.5 19 5.5C19.8284 5.5 20.5 4.82843 20.5 4C20.5 3.17157 19.8284 2.5 19 2.5Z" fill="black"/>
</svg>
