<svg width="24" height="24" viewBox="0 0 24 24" fill="none" xmlns="http://www.w3.org/2000/svg">
<path d="M19 1.5C20.3807 1.5 21.5 2.61929 21.5 4C21.5 5.20943 20.641 6.21753 19.5 6.44922V8C19.5 10.4853 17.4853 12.5 15 12.5H12.5V18.5498C13.6411 18.7814 14.5 19.7905 14.5 21C14.5 22.3807 13.3807 23.5 12 23.5C10.6193 23.5 9.5 22.3807 9.5 21C9.5 19.7905 10.3589 18.7814 11.5 18.5498V12.5H9C6.51472 12.5 4.5 10.4853 4.5 8V6.44922C3.35895 6.21753 2.5 5.20943 2.5 4C2.5 2.61929 3.61929 1.5 5 1.5C6.38071 1.5 7.5 2.61929 7.5 4C7.5 5.20943 6.64105 6.21753 5.5 6.44922V8C5.5 9.933 7.067 11.5 9 11.5H15C16.933 11.5 18.5 9.933 18.5 8V6.44922C17.359 6.21753 16.5 5.20943 16.5 4C16.5 2.61929 17.6193 1.5 19 1.5Z" fill="black"/>
</svg>
