<svg width="24" height="24" viewBox="0 0 24 24" fill="none" xmlns="http://www.w3.org/2000/svg">
<path fill-rule="evenodd" clip-rule="evenodd" d="M22.5508 20.3811C22.5506 20.2432 22.4387 20.1311 22.3008 20.1311H14.4678C14.2916 19.0641 13.3669 18.2503 12.25 18.2502C11.1332 18.2502 10.2094 19.0642 10.0332 20.1311H2.34473C2.20685 20.1312 2.0949 20.2432 2.09473 20.3811C2.09473 20.5191 2.20674 20.631 2.34473 20.6311H10.0068C10.0748 21.8126 11.0514 22.7502 12.25 22.7502C13.4486 22.7502 14.4262 21.8127 14.4941 20.6311H22.3008C22.4389 20.6311 22.5508 20.5192 22.5508 20.3811ZM14 20.5002C13.9999 21.4666 13.2164 22.2502 12.25 22.2502C11.2836 22.2502 10.5001 21.4666 10.5 20.5002C10.5 19.5337 11.2835 18.7502 12.25 18.7502C13.2165 18.7503 14 19.5338 14 20.5002Z" fill="black"/>
<path d="M16.7471 11.8772C16.8447 11.7796 16.8447 11.6213 16.7471 11.5237C16.6494 11.4261 16.4912 11.4261 16.3936 11.5237L12.5781 15.3391V13.0286H12.0781V15.3391L8.26172 11.5237C8.16408 11.4261 8.0058 11.4261 7.9082 11.5237C7.81088 11.6213 7.81076 11.7797 7.9082 11.8772L12.1084 16.0764C12.2295 16.1975 12.4267 16.1975 12.5479 16.0764L16.7471 11.8772Z" fill="black"/>
<path d="M12.0781 6.05103L12.0781 10.7024H12.5781L12.5781 6.05103H12.0781Z" fill="black"/>
<path d="M12.5781 1.39868C12.5781 1.26066 12.4661 1.14876 12.3281 1.14868C12.1901 1.14868 12.0781 1.26061 12.0781 1.39868V3.72485H12.5781V1.39868Z" fill="black"/>
</svg>
