<svg width="24" height="24" viewBox="0 0 24 24" fill="none" xmlns="http://www.w3.org/2000/svg">
<path d="M19 1C20.6569 1 22 2.34315 22 4C22 5.30574 21.1645 6.413 20 6.8252V8C20 10.7614 17.7614 13 15 13H13V18.1738C14.1647 18.5859 15 19.6941 15 21C15 22.6569 13.6569 24 12 24C10.3431 24 9 22.6569 9 21C9 19.6941 9.83532 18.5859 11 18.1738V13H9C6.23858 13 4 10.7614 4 8V6.8252C2.83548 6.413 2 5.30574 2 4C2 2.34315 3.34315 1 5 1C6.65685 1 8 2.34315 8 4C8 5.30574 7.16452 6.413 6 6.8252V8C6 9.65685 7.34315 11 9 11H15C16.6569 11 18 9.65685 18 8V6.8252C16.8355 6.413 16 5.30574 16 4C16 2.34315 17.3431 1 19 1Z" fill="black"/>
</svg>
