<svg width="24" height="24" viewBox="0 0 24 24" fill="none" xmlns="http://www.w3.org/2000/svg">
<path d="M22.5508 20.3811C22.5506 20.2432 22.4387 20.1311 22.3008 20.1311H14.7207C14.5422 18.9255 13.5052 18.0003 12.25 18.0002C10.9948 18.0002 9.95881 18.9255 9.78027 20.1311H2.34473C2.20685 20.1312 2.0949 20.2432 2.09473 20.3811C2.09473 20.5191 2.20674 20.631 2.34473 20.6311H9.75684C9.82511 21.9508 10.9133 23.0002 12.25 23.0002C13.5867 23.0002 14.6759 21.9508 14.7441 20.6311H22.3008C22.4389 20.6311 22.5508 20.5192 22.5508 20.3811Z" fill="black"/>
<path d="M16.6445 11.9797C16.8397 11.7844 16.7018 11.4507 16.4258 11.4504H12.5781L12.5781 9.30688H12.0781L12.0781 11.4504H8.23047C7.95427 11.4506 7.81639 11.7844 8.01172 11.9797L12.1084 16.0764C12.2295 16.1975 12.4267 16.1975 12.5479 16.0764L16.6445 11.9797Z" fill="black"/>
<path d="M12.0781 4.65552V7.44653H12.5781V4.65552H12.0781Z" fill="black"/>
<path d="M12.0781 1.39868V2.79419H12.5781V1.39868L12.0781 1.39868Z" fill="black"/>
</svg>
