<svg width="24" height="24" viewBox="0 0 24 24" fill="none" xmlns="http://www.w3.org/2000/svg">
<path fill-rule="evenodd" clip-rule="evenodd" d="M19 1.75C20.2426 1.75 21.25 2.75736 21.25 4C21.25 5.15807 20.3749 6.10992 19.25 6.23438V8C19.25 10.3472 17.3472 12.25 15 12.25H12.25V18.7646C13.3749 18.8891 14.25 19.8419 14.25 21C14.25 22.2426 13.2426 23.25 12 23.25C10.7574 23.25 9.75 22.2426 9.75 21C9.75 19.8419 10.6251 18.8891 11.75 18.7646V12.25H9C6.65279 12.25 4.75 10.3472 4.75 8V6.23438C3.62511 6.10992 2.75 5.15807 2.75 4C2.75 2.75736 3.75736 1.75 5 1.75C6.24264 1.75 7.25 2.75736 7.25 4C7.25 5.15807 6.37489 6.10992 5.25 6.23438V8C5.25 10.0711 6.92893 11.75 9 11.75H15C17.0711 11.75 18.75 10.0711 18.75 8V6.23438C17.6251 6.10992 16.75 5.15807 16.75 4C16.75 2.75736 17.7574 1.75 19 1.75ZM12 19.25C11.0335 19.25 10.25 20.0335 10.25 21C10.25 21.9665 11.0335 22.75 12 22.75C12.9665 22.75 13.75 21.9665 13.75 21C13.75 20.0335 12.9665 19.25 12 19.25ZM5 2.25C4.0335 2.25 3.25 3.0335 3.25 4C3.25 4.9665 4.0335 5.75 5 5.75C5.9665 5.75 6.75 4.9665 6.75 4C6.75 3.0335 5.9665 2.25 5 2.25ZM19 2.25C18.0335 2.25 17.25 3.0335 17.25 4C17.25 4.9665 18.0335 5.75 19 5.75C19.9665 5.75 20.75 4.9665 20.75 4C20.75 3.0335 19.9665 2.25 19 2.25Z" fill="black"/>
</svg>
