<svg width="24" height="24" viewBox="0 0 24 24" fill="none" xmlns="http://www.w3.org/2000/svg">
<path fill-rule="evenodd" clip-rule="evenodd" d="M23.0508 20.3811C23.0506 19.967 22.7149 19.6311 22.3008 19.6311H14.8584C14.4946 18.5384 13.465 17.7503 12.25 17.7502C11.0351 17.7502 10.0065 18.5385 9.64258 19.6311H2.34473C1.93071 19.6312 1.5949 19.9671 1.59473 20.3811C1.59473 20.7953 1.9306 21.131 2.34473 21.1311H9.57617C9.86167 22.3453 10.9487 23.2502 12.25 23.2502C13.5514 23.2502 14.6394 22.3454 14.9248 21.1311H22.3008C22.715 21.1311 23.0508 20.7953 23.0508 20.3811ZM13.5 20.5002C13.4999 21.1905 12.9403 21.7502 12.25 21.7502C11.5597 21.7502 11.0001 21.1905 11 20.5002C11 19.8099 11.5596 19.2502 12.25 19.2502C12.9403 19.2503 13.5 19.8099 13.5 20.5002Z" fill="black"/>
<path d="M17.1006 12.2307C17.3935 11.9378 17.3935 11.4631 17.1006 11.1702C16.8077 10.8773 16.3329 10.8773 16.04 11.1702L13.0781 14.1321V13.0286H11.5781V14.1321L8.61523 11.1702C8.32233 10.8774 7.84755 10.8773 7.55469 11.1702C7.2621 11.4631 7.26198 11.9379 7.55469 12.2307L11.7549 16.4299C12.0713 16.7463 12.585 16.7463 12.9014 16.4299L17.1006 12.2307Z" fill="black"/>
<path d="M11.5781 6.05103L11.5781 10.7024H13.0781L13.0781 6.05103H11.5781Z" fill="black"/>
<path d="M13.0781 1.39868C13.0781 0.984519 12.7423 0.648764 12.3281 0.648682C11.9139 0.648682 11.5781 0.984469 11.5781 1.39868V3.72485H13.0781V1.39868Z" fill="black"/>
</svg>
