<svg width="24" height="24" viewBox="0 0 24 24" fill="none" xmlns="http://www.w3.org/2000/svg">
<path d="M23.3008 20.3811C23.3006 19.829 22.853 19.3811 22.3008 19.3811H14.4834C14.0726 18.5628 13.228 18.0003 12.25 18.0002C11.2721 18.0002 10.4284 18.563 10.0176 19.3811H2.34473C1.79263 19.3812 1.3449 19.829 1.34473 20.3811C1.34473 20.9333 1.79253 21.381 2.34473 21.3811H9.91309C10.2697 22.3265 11.1798 23.0002 12.25 23.0002C13.3203 23.0002 14.2314 22.3266 14.5879 21.3811H22.3008C22.8531 21.3811 23.3008 20.9334 23.3008 20.3811Z" fill="black"/>
<path d="M16.998 12.3333C17.5082 11.823 17.1473 10.9507 16.4258 10.9504H13.3281L13.3281 9.30688H11.3281L11.3281 10.9504H8.23047C7.50882 10.9506 7.14789 11.8229 7.6582 12.3333L11.7549 16.4299C12.0713 16.7463 12.585 16.7463 12.9014 16.4299L16.998 12.3333Z" fill="black"/>
<path d="M11.3281 4.65552V7.44653H13.3281V4.65552H11.3281Z" fill="black"/>
<path d="M11.3281 1.39868V2.79419L13.3281 2.79419V1.39868L11.3281 1.39868Z" fill="black"/>
</svg>
