<svg width="24" height="24" viewBox="0 0 24 24" fill="none" xmlns="http://www.w3.org/2000/svg">
<path d="M19 1.25C20.5188 1.25 21.75 2.48122 21.75 4C21.75 5.2584 20.9037 6.31578 19.75 6.64258V8C19.75 10.6234 17.6234 12.75 15 12.75H12.75V18.3564C13.9039 18.6832 14.75 19.7415 14.75 21C14.75 22.5188 13.5188 23.75 12 23.75C10.4812 23.75 9.25 22.5188 9.25 21C9.25 19.7415 10.0961 18.6832 11.25 18.3564V12.75H9C6.37665 12.75 4.25 10.6234 4.25 8V6.64258C3.09627 6.31578 2.25 5.2584 2.25 4C2.25 2.48122 3.48122 1.25 5 1.25C6.51878 1.25 7.75 2.48122 7.75 4C7.75 5.2584 6.90373 6.31578 5.75 6.64258V8C5.75 9.79493 7.20507 11.25 9 11.25H15C16.7949 11.25 18.25 9.79493 18.25 8V6.64258C17.0963 6.31578 16.25 5.2584 16.25 4C16.25 2.48122 17.4812 1.25 19 1.25Z" fill="black"/>
</svg>
