<svg width="24" height="24" viewBox="0 0 24 24" fill="none" xmlns="http://www.w3.org/2000/svg">
<path fill-rule="evenodd" clip-rule="evenodd" d="M22.8008 20.3811C22.8006 20.1051 22.5768 19.8811 22.3008 19.8811H14.6699C14.3943 18.8001 13.4168 18.0003 12.25 18.0002C11.0832 18.0002 10.1068 18.8002 9.83105 19.8811H2.34473C2.06878 19.8812 1.8449 20.1052 1.84473 20.3811C1.84473 20.6572 2.06867 20.881 2.34473 20.8811H9.78223C9.96596 22.0807 10.999 23.0002 12.25 23.0002C13.501 23.0002 14.5351 22.0808 14.7188 20.8811H22.3008C22.5769 20.8811 22.8008 20.6572 22.8008 20.3811ZM13.75 20.5002C13.7499 21.3286 13.0783 22.0002 12.25 22.0002C11.4217 22.0002 10.7501 21.3286 10.75 20.5002C10.75 19.6718 11.4216 19.0002 12.25 19.0002C13.0784 19.0003 13.75 19.6718 13.75 20.5002Z" fill="black"/>
<path d="M16.9238 12.054C17.1191 11.8587 17.1191 11.5422 16.9238 11.3469C16.7286 11.1517 16.412 11.1517 16.2168 11.3469L12.8281 14.7356V13.0286H11.8281V14.7356L8.43848 11.3469C8.24321 11.1518 7.92668 11.1517 7.73144 11.3469C7.53649 11.5422 7.53637 11.8588 7.73144 12.054L11.9316 16.2532C12.1504 16.4719 12.5059 16.4719 12.7246 16.2532L16.9238 12.054Z" fill="black"/>
<path d="M11.8281 6.05103L11.8281 10.7024H12.8281L12.8281 6.05103H11.8281Z" fill="black"/>
<path d="M12.8281 1.39868C12.8281 1.12259 12.6042 0.898764 12.3281 0.898682C12.052 0.898682 11.8281 1.12254 11.8281 1.39868V3.72485H12.8281V1.39868Z" fill="black"/>
</svg>
