<svg width="24" height="25" viewBox="0 0 24 25" fill="none" xmlns="http://www.w3.org/2000/svg">
<path d="M19 0.75C20.7949 0.75 22.25 2.20507 22.25 4C22.25 5.35172 21.4241 6.50908 20.25 6.99902V8C20.25 10.8995 17.8995 13.25 15 13.25H13.25V18C14.4243 18.4899 15.25 19.6482 15.25 21C15.25 22.7949 13.7949 24.25 12 24.25C10.2051 24.25 8.75 22.7949 8.75 21C8.75 19.6482 9.5757 18.4899 10.75 18V13.25H9C6.10051 13.25 3.75 10.8995 3.75 8V6.99902C2.57588 6.50908 1.75 5.35172 1.75 4C1.75 2.20507 3.20507 0.75 5 0.75C6.79493 0.75 8.25 2.20507 8.25 4C8.25 5.35172 7.42412 6.50908 6.25 6.99902V8C6.25 9.51878 7.48122 10.75 9 10.75H15C16.5188 10.75 17.75 9.51878 17.75 8V6.99902C16.5759 6.50908 15.75 5.35172 15.75 4C15.75 2.20507 17.2051 0.75 19 0.75Z" fill="black"/>
</svg>
