<svg width="24" height="24" viewBox="0 0 24 24" fill="none" xmlns="http://www.w3.org/2000/svg">
<path d="M19 1.75C20.2426 1.75 21.25 2.75736 21.25 4C21.25 5.15807 20.3749 6.10992 19.25 6.23438V8C19.25 10.3472 17.3472 12.25 15 12.25H12.25V18.7646C13.3749 18.8891 14.25 19.8419 14.25 21C14.25 22.2426 13.2426 23.25 12 23.25C10.7574 23.25 9.75 22.2426 9.75 21C9.75 19.8419 10.6251 18.8891 11.75 18.7646V12.25H9C6.65279 12.25 4.75 10.3472 4.75 8V6.23438C3.62511 6.10992 2.75 5.15807 2.75 4C2.75 2.75736 3.75736 1.75 5 1.75C6.24264 1.75 7.25 2.75736 7.25 4C7.25 5.15807 6.37489 6.10992 5.25 6.23438V8C5.25 10.0711 6.92893 11.75 9 11.75H15C17.0711 11.75 18.75 10.0711 18.75 8V6.23438C17.6251 6.10992 16.75 5.15807 16.75 4C16.75 2.75736 17.7574 1.75 19 1.75Z" fill="black"/>
</svg>
