<svg width="24" height="24" viewBox="0 0 24 24" fill="none" xmlns="http://www.w3.org/2000/svg">
<path fill-rule="evenodd" clip-rule="evenodd" d="M23.3008 20.3811C23.3006 19.829 22.853 19.3811 22.3008 19.3811H15.0332C14.5896 18.2787 13.5112 17.5003 12.25 17.5002C10.9889 17.5002 9.91148 18.2788 9.46777 19.3811H2.34473C1.79263 19.3812 1.3449 19.829 1.34473 20.3811C1.34473 20.9333 1.79253 21.381 2.34473 21.3811H9.38281C9.75933 22.6078 10.8999 23.5002 12.25 23.5002C13.6002 23.5002 14.7417 22.6079 15.1182 21.3811H22.3008C22.8531 21.3811 23.3008 20.9334 23.3008 20.3811ZM13.25 20.5002C13.2499 21.0524 12.8022 21.5002 12.25 21.5002C11.6978 21.5002 11.2501 21.0524 11.25 20.5002C11.25 19.948 11.6977 19.5002 12.25 19.5002C12.8023 19.5003 13.25 19.948 13.25 20.5002Z" fill="black"/>
<path d="M17.4541 12.5842C17.9423 12.0961 17.9423 11.3048 17.4541 10.8167C16.9659 10.3286 16.1747 10.3285 15.6865 10.8167L13.3281 13.175V13.0286H11.3281V13.175L8.96875 10.8167C8.48059 10.3286 7.6893 10.3285 7.20117 10.8167C6.71333 11.3048 6.7132 12.0962 7.20117 12.5842L11.4014 16.7844C11.913 17.2957 12.7433 17.2958 13.2549 16.7844L17.4541 12.5842Z" fill="black"/>
<path d="M11.3281 6.05103L11.3281 10.7024H13.3281L13.3281 6.05103H11.3281Z" fill="black"/>
<path d="M13.3281 1.39868C13.3281 0.846447 12.8803 0.398764 12.3281 0.398682C11.7758 0.398682 11.3281 0.846396 11.3281 1.39868V3.72485H13.3281V1.39868Z" fill="black"/>
</svg>
