<svg width="24" height="24" viewBox="0 0 24 24" fill="none" xmlns="http://www.w3.org/2000/svg">
<path fill-rule="evenodd" clip-rule="evenodd" d="M23 20.75C23 19.2267 21.9515 17.9487 20.5371 17.5967C19.7154 15.7712 17.8819 14.5001 15.75 14.5H14V6.75C15.1742 6.26014 15.9999 5.1017 16 3.75C16 1.95516 14.5448 0.500131 12.75 0.5C10.9551 0.5 9.5 1.95507 9.5 3.75C9.5001 5.10186 10.3256 6.26024 11.5 6.75V14.5H9.75C8.86689 14.4999 8.08363 14.0819 7.58105 13.4346C8.43739 12.8493 8.99992 11.8655 9 10.75C9 9.39813 8.17433 8.23887 7 7.74902L7 1.75C7 1.05972 6.44025 0.500126 5.75 0.5C5.05964 0.5 4.5 1.05964 4.5 1.75L4.5 7.74902C3.32545 8.23877 2.5 9.39797 2.5 10.75C2.5001 12.1019 3.32561 13.2602 4.5 13.75L4.5 22.75C4.50013 23.4402 5.05973 24 5.75 24C6.44017 23.9999 6.99987 23.4402 7 22.75V16.2217C7.79983 16.7145 8.74161 16.9999 9.75 17H11.5L11.5 22.75C11.5001 23.4402 12.0597 24 12.75 24C13.4402 23.9999 13.9999 23.4402 14 22.75L14 17H15.75C16.6333 17.0001 17.4171 17.4181 17.9199 18.0654C17.0631 18.6506 16.5 19.6341 16.5 20.75C16.5001 22.5448 17.9552 24 19.75 24C21.5447 23.9999 22.9999 22.5447 23 20.75ZM6.5 10.75C6.49987 11.164 6.16402 11.4999 5.75 11.5C5.33587 11.5 5.00013 11.1641 5 10.75C5 10.3358 5.33579 10 5.75 10C6.1641 10.0001 6.5 10.3359 6.5 10.75ZM13.5 3.75C13.4999 4.16402 13.164 4.49987 12.75 4.5C12.3359 4.5 12.0001 4.1641 12 3.75C12 3.33579 12.3358 3 12.75 3C13.1641 3.00013 13.5 3.33587 13.5 3.75ZM20.5 20.75C20.4999 21.164 20.164 21.4999 19.75 21.5C19.3359 21.5 19.0001 21.1641 19 20.75C19 20.3358 19.3358 20 19.75 20C20.1641 20.0001 20.5 20.3359 20.5 20.75Z" fill="black"/>
</svg>
