<svg width="24" height="24" viewBox="0 0 24 24" fill="none" xmlns="http://www.w3.org/2000/svg">
<path fill-rule="evenodd" clip-rule="evenodd" d="M22.25 20.75C22.25 19.4524 21.2611 18.3865 19.9961 18.2627C19.382 16.5086 17.7138 15.2501 15.75 15.25H13.25V6.2002C14.391 5.96852 15.2499 4.95932 15.25 3.75C15.25 2.36937 14.1306 1.25013 12.75 1.25C11.3693 1.25 10.25 2.36929 10.25 3.75C10.2501 4.95948 11.1088 5.9687 12.25 6.2002V15.25H9.75C8.30535 15.2499 7.06751 14.3734 6.5332 13.124C7.53001 12.7953 8.24989 11.8569 8.25 10.75C8.25 9.54061 7.391 8.53153 6.25 8.29981L6.25 1.75C6.25 1.47394 6.02604 1.25013 5.75 1.25C5.47386 1.25 5.25 1.47386 5.25 1.75L5.25 8.29981C4.10877 8.53135 3.25 9.54044 3.25 10.75C3.25012 11.9595 4.1088 12.9687 5.25 13.2002L5.25 22.75C5.25013 23.026 5.47394 23.25 5.75 23.25C6.02595 23.2499 6.24987 23.026 6.25 22.75L6.25 14.5771C7.07499 15.597 8.33617 16.2499 9.75 16.25H12.25L12.25 22.75C12.2501 23.026 12.4739 23.25 12.75 23.25C13.0259 23.2499 13.2499 23.0259 13.25 22.75L13.25 16.25H15.75C17.1952 16.2501 18.4337 17.127 18.9678 18.377C17.9704 18.7055 17.25 19.6427 17.25 20.75C17.2501 22.1306 18.3694 23.25 19.75 23.25C21.1305 23.2499 22.2499 22.1305 22.25 20.75ZM7.25 10.75C7.24987 11.5782 6.57823 12.2499 5.75 12.25C4.92165 12.25 4.25013 11.5783 4.25 10.75C4.25 9.92157 4.92157 9.25 5.75 9.25C6.57831 9.25013 7.25 9.92165 7.25 10.75ZM14.25 3.75C14.2499 4.57823 13.5782 5.24987 12.75 5.25C11.9217 5.25 11.2501 4.57831 11.25 3.75C11.25 2.92157 11.9216 2.25 12.75 2.25C13.5783 2.25013 14.25 2.92165 14.25 3.75ZM21.25 20.75C21.2499 21.5782 20.5782 22.2499 19.75 22.25C18.9217 22.25 18.2501 21.5783 18.25 20.75C18.25 19.9216 18.9216 19.25 19.75 19.25C20.5783 19.2501 21.25 19.9217 21.25 20.75Z" fill="black"/>
</svg>
