<svg width="24" height="24" viewBox="0 0 24 24" fill="none" xmlns="http://www.w3.org/2000/svg">
<path fill-rule="evenodd" clip-rule="evenodd" d="M22.5 20.75C22.5 19.3774 21.4934 18.2434 20.1787 18.0371C19.4916 16.2606 17.7691 15.0001 15.75 15H13.5V6.39355C14.6537 6.0668 15.4999 5.00833 15.5 3.75C15.5 2.2313 14.2687 1.00013 12.75 1C11.2312 1 10 2.23122 10 3.75C10.0001 5.0085 10.8461 6.06695 12 6.39355V15H9.75C8.50023 14.9999 7.41681 14.2934 6.87305 13.2588C7.8314 12.8291 8.4999 11.8683 8.5 10.75C8.5 9.49151 7.65384 8.4322 6.5 8.10547L6.5 1.75C6.5 1.33586 6.16411 1.00013 5.75 1C5.33579 1 5 1.33579 5 1.75L5 8.10547C3.84593 8.43205 3 9.49135 3 10.75C3.00011 12.0085 3.84607 13.067 5 13.3936L5 22.75C5.00013 23.1641 5.33587 23.5 5.75 23.5C6.16403 23.4999 6.49987 23.164 6.5 22.75L6.5 15.2129C7.3497 16.0105 8.49269 16.4999 9.75 16.5H12L12 22.75C12.0001 23.1641 12.3359 23.5 12.75 23.5C13.164 23.4999 13.4999 23.164 13.5 22.75L13.5 16.5H15.75C17 16.5001 18.0841 17.2065 18.6279 18.2412C17.669 18.6707 17 19.6312 17 20.75C17.0001 22.2687 18.2313 23.5 19.75 23.5C21.2686 23.4999 22.4999 22.2686 22.5 20.75ZM7 10.75C6.99987 11.4402 6.44016 11.9999 5.75 12C5.05973 12 4.50013 11.4402 4.5 10.75C4.5 10.0596 5.05964 9.5 5.75 9.5C6.44024 9.50013 7 10.0597 7 10.75ZM14 3.75C13.9999 4.44016 13.4402 4.99987 12.75 5C12.0597 5 11.5001 4.44024 11.5 3.75C11.5 3.05964 12.0596 2.5 12.75 2.5C13.4402 2.50013 14 3.05973 14 3.75ZM21 20.75C20.9999 21.4402 20.4402 21.9999 19.75 22C19.0597 22 18.5001 21.4402 18.5 20.75C18.5 20.0596 19.0596 19.5 19.75 19.5C20.4402 19.5001 21 20.0597 21 20.75Z" fill="black"/>
</svg>
