<svg width="24" height="24" viewBox="0 0 24 24" fill="none" xmlns="http://www.w3.org/2000/svg">
<path fill-rule="evenodd" clip-rule="evenodd" d="M22.75 20.75C22.75 19.3021 21.7238 18.0942 20.3594 17.8125C19.6024 16.0135 17.8242 14.7501 15.75 14.75H13.75V6.5752C14.9144 6.16298 15.7499 5.05558 15.75 3.75C15.75 2.09323 14.4067 0.750131 12.75 0.75C11.0931 0.75 9.75 2.09315 9.75 3.75C9.7501 5.05574 10.5854 6.1631 11.75 6.5752V14.75H9.75C8.68702 14.7499 7.75469 14.1965 7.22266 13.3623C8.13384 12.8475 8.74991 11.8712 8.75 10.75C8.75 9.44426 7.91453 8.33603 6.75 7.92383L6.75 1.75C6.75 1.19779 6.30218 0.750126 5.75 0.75C5.19771 0.75 4.75 1.19772 4.75 1.75L4.75 7.92383C3.58525 8.3359 2.75 9.4441 2.75 10.75C2.7501 12.0557 3.5854 13.1631 4.75 13.5752L4.75 22.75C4.75013 23.3022 5.1978 23.75 5.75 23.75C6.3021 23.7499 6.74987 23.3021 6.75 22.75L6.75 15.75C7.58565 16.3776 8.6245 16.7499 9.75 16.75H11.75L11.75 22.75C11.7501 23.3022 12.1978 23.75 12.75 23.75C13.3021 23.7499 13.7499 23.3021 13.75 22.75L13.75 16.75H15.75C16.8133 16.7501 17.7452 17.3042 18.2773 18.1387C17.3662 18.6536 16.75 19.6288 16.75 20.75C16.7501 22.4067 18.0932 23.75 19.75 23.75C21.4067 23.7499 22.7499 22.4067 22.75 20.75ZM6.75 10.75C6.74987 11.3021 6.30209 11.7499 5.75 11.75C5.1978 11.75 4.75013 11.3022 4.75 10.75C4.75 10.1977 5.19772 9.75 5.75 9.75C6.30217 9.75013 6.75 10.1978 6.75 10.75ZM13.75 3.75C13.7499 4.30209 13.3021 4.74987 12.75 4.75C12.1978 4.75 11.7501 4.30217 11.75 3.75C11.75 3.19772 12.1977 2.75 12.75 2.75C13.3022 2.75013 13.75 3.1978 13.75 3.75ZM20.75 20.75C20.7499 21.3021 20.3021 21.7499 19.75 21.75C19.1978 21.75 18.7501 21.3022 18.75 20.75C18.75 20.1977 19.1977 19.75 19.75 19.75C20.3022 19.7501 20.75 20.1978 20.75 20.75Z" fill="black"/>
</svg>
