<svg width="24" height="24" viewBox="0 0 24 24" fill="none" xmlns="http://www.w3.org/2000/svg">
<path d="M20.25 8.00024C20.25 6.61953 19.1307 5.50024 17.75 5.50024C16.3693 5.50024 15.25 6.61953 15.25 8.00024C15.2501 9.14855 16.0251 10.1134 17.0801 10.4065V10.5002C17.0799 12.295 15.6249 13.7502 13.8301 13.7502H11.8301C10.5725 13.7502 9.4298 14.2395 8.58008 15.0374L8.58008 5.85571C9.55218 5.51318 10.2499 4.5895 10.25 3.50024C10.25 2.11953 9.13071 1.00024 7.75 1.00024C6.36929 1.00024 5.25 2.11953 5.25 3.50024C5.25011 4.64855 6.02511 5.61344 7.08008 5.90649L7.08008 18.094C6.0251 18.3871 5.25 19.3519 5.25 20.5002C5.25013 21.8808 6.36937 23.0002 7.75 23.0002C9.13063 23.0002 10.2499 21.8808 10.25 20.5002C10.25 19.4182 9.5615 18.4997 8.59961 18.1516C8.7736 16.5207 10.153 15.2502 11.8301 15.2502H13.8301C16.4533 15.2502 18.5799 13.1235 18.5801 10.5002V10.3557C19.5522 10.0132 20.2499 9.0895 20.25 8.00024Z" fill="black"/>
</svg>
