<svg width="24" height="24" viewBox="0 0 24 24" fill="none" xmlns="http://www.w3.org/2000/svg">
<path fill-rule="evenodd" clip-rule="evenodd" d="M21 8.00024C21 6.20532 19.5449 4.75024 17.75 4.75024C15.9551 4.75024 14.5 6.20532 14.5 8.00024C14.5001 9.36397 15.3404 10.5308 16.5312 11.0129C16.2909 12.2865 15.1735 13.2502 13.8301 13.2502H11.8301C10.8217 13.2502 9.87989 13.5348 9.08008 14.0276L9.08008 6.46509C10.2115 5.95676 10.9999 4.82101 11 3.50024C11 1.70532 9.54493 0.250244 7.75 0.250244C5.95507 0.250245 4.5 1.70532 4.5 3.50024C4.5001 4.88256 5.3634 6.06276 6.58008 6.53247L6.58008 17.468C5.36341 17.9378 4.5 19.1179 4.5 20.5002C4.50013 22.2951 5.95516 23.7502 7.75 23.7502C9.54485 23.7502 10.9999 22.2951 11 20.5002C11 19.2394 10.2818 18.1466 9.23242 17.6077C9.60343 16.5277 10.6242 15.7502 11.8301 15.7502H13.8301C16.5691 15.7502 18.8171 13.6523 19.0576 10.9758C20.2012 10.4726 20.9999 9.32984 21 8.00024ZM8.5 20.5002C8.49987 20.9143 8.16413 21.2502 7.75 21.2502C7.33587 21.2502 7.00013 20.9143 7 20.5002C7 20.086 7.33579 19.7502 7.75 19.7502C8.16421 19.7502 8.5 20.086 8.5 20.5002ZM8.5 3.50024C8.49987 3.91435 8.16413 4.25024 7.75 4.25024C7.33587 4.25024 7.00013 3.91435 7 3.50024C7 3.08603 7.33579 2.75024 7.75 2.75024C8.16421 2.75024 8.5 3.08603 8.5 3.50024ZM18.5 8.00024C18.4999 8.41435 18.1641 8.75024 17.75 8.75024C17.3359 8.75024 17.0001 8.41435 17 8.00024C17 7.58603 17.3358 7.25024 17.75 7.25024C18.1642 7.25024 18.5 7.58603 18.5 8.00024Z" fill="black"/>
</svg>
