<svg width="24" height="24" viewBox="0 0 24 24" fill="none" xmlns="http://www.w3.org/2000/svg">
<path d="M20.25 8.00024C20.25 6.61953 19.1307 5.50024 17.75 5.50024C16.3693 5.50024 15.25 6.61953 15.25 8.00024C15.2501 8.95806 15.7891 9.78949 16.5801 10.2092V10.5002C16.5799 12.0189 15.3487 13.2502 13.8301 13.2502H11.8301C10.8217 13.2502 9.87989 13.5348 9.08008 14.0276L9.08008 5.6145C9.78221 5.17191 10.2499 4.39153 10.25 3.50024C10.25 2.11953 9.13071 1.00024 7.75 1.00024C6.36929 1.00024 5.25 2.11953 5.25 3.50024C5.25009 4.45806 5.78911 5.28949 6.58008 5.70923L6.58008 18.2913C5.78916 18.7111 5.25 19.5424 5.25 20.5002C5.25013 21.8808 6.36937 23.0002 7.75 23.0002C9.13063 23.0002 10.2499 21.8808 10.25 20.5002C10.25 19.6115 9.78469 18.8332 9.08594 18.3899C9.14393 16.9223 10.3483 15.7502 11.8301 15.7502H13.8301C16.7295 15.7502 19.0799 13.3996 19.0801 10.5002V10.1145C19.7822 9.67191 20.2499 8.89153 20.25 8.00024Z" fill="black"/>
</svg>
