<svg width="24" height="24" viewBox="0 0 24 24" fill="none" xmlns="http://www.w3.org/2000/svg">
<path d="M20.25 8.00024C20.25 6.61953 19.1307 5.50024 17.75 5.50024C16.3693 5.50024 15.25 6.61953 15.25 8.00024C15.2501 9.05578 15.905 9.95691 16.8301 10.3235V10.5002C16.8299 12.157 15.4868 13.5002 13.8301 13.5002H11.8301C10.7044 13.5002 9.66578 13.8724 8.83008 14.5002L8.83008 5.7522C9.66932 5.34899 10.2499 4.49354 10.25 3.50024C10.25 2.11953 9.13071 1.00024 7.75 1.00024C6.36929 1.00024 5.25 2.11953 5.25 3.50024C5.2501 4.55578 5.90498 5.45691 6.83008 5.82349L6.83008 18.177C5.905 18.5436 5.25 19.4447 5.25 20.5002C5.25013 21.8808 6.36937 23.0002 7.75 23.0002C9.13063 23.0002 10.2499 21.8808 10.25 20.5002C10.25 19.5116 9.67462 18.6598 8.8418 18.2542C8.96704 16.7125 10.2561 15.5002 11.8301 15.5002H13.8301C16.5914 15.5002 18.8299 13.2615 18.8301 10.5002V10.2522C19.6693 9.84899 20.2499 8.99354 20.25 8.00024Z" fill="black"/>
</svg>
