<svg width="24" height="24" viewBox="0 0 24 24" fill="none" xmlns="http://www.w3.org/2000/svg">
<path fill-rule="evenodd" clip-rule="evenodd" d="M20.5 8.00024C20.5 6.48146 19.2688 5.25024 17.75 5.25024C16.2312 5.25024 15 6.48146 15 8.00024C15.0001 9.28656 15.884 10.3639 17.0771 10.6643C16.9916 12.3829 15.5699 13.7502 13.8301 13.7502H11.8301C10.5725 13.7502 9.4298 14.2395 8.58008 15.0374L8.58008 6.12134C9.69291 5.76927 10.4999 4.7295 10.5 3.50024C10.5 1.98146 9.26878 0.750244 7.75 0.750244C6.23122 0.750245 5 1.98146 5 3.50024C5.00011 4.78755 5.88557 5.86491 7.08008 6.16431L7.08008 17.8352C5.88544 18.1346 5 19.2128 5 20.5002C5.00013 22.0189 6.2313 23.2502 7.75 23.2502C9.2687 23.2502 10.4999 22.0189 10.5 20.5002C10.5 19.2921 9.71986 18.2689 8.63672 17.8997C8.91855 16.3918 10.2404 15.2502 11.8301 15.2502H13.8301C16.4122 15.2502 18.5117 13.1896 18.5771 10.6233C19.6917 10.2722 20.4999 9.23069 20.5 8.00024ZM9 20.5002C8.99987 21.1905 8.44028 21.7502 7.75 21.7502C7.05972 21.7502 6.50013 21.1905 6.5 20.5002C6.5 19.8099 7.05964 19.2502 7.75 19.2502C8.44036 19.2502 9 19.8099 9 20.5002ZM9 3.50024C8.99987 4.19049 8.44028 4.75024 7.75 4.75024C7.05972 4.75024 6.50013 4.19049 6.5 3.50024C6.5 2.80989 7.05964 2.25024 7.75 2.25024C8.44036 2.25024 9 2.80989 9 3.50024ZM19 8.00024C18.9999 8.69049 18.4403 9.25024 17.75 9.25024C17.0597 9.25024 16.5001 8.69049 16.5 8.00024C16.5 7.30989 17.0596 6.75024 17.75 6.75024C18.4404 6.75024 19 7.30989 19 8.00024Z" fill="black"/>
</svg>
