<svg width="24" height="24" viewBox="0 0 24 24" fill="none" xmlns="http://www.w3.org/2000/svg">
<path d="M20.25 8.00024C20.25 6.61953 19.1307 5.50024 17.75 5.50024C16.3693 5.50024 15.25 6.61953 15.25 8.00024C15.2501 9.23759 16.1496 10.2623 17.3301 10.4622V10.5002C17.3299 12.4331 15.763 14.0002 13.8301 14.0002H11.8301C10.416 14.0002 9.15504 14.653 8.33008 15.6731L8.33008 5.92993C9.43072 5.66816 10.2499 4.68096 10.25 3.50024C10.25 2.11953 9.13071 1.00024 7.75 1.00024C6.36929 1.00024 5.25 2.11953 5.25 3.50024C5.25011 4.73759 6.1496 5.76228 7.33008 5.96216L7.33008 18.0383C6.14956 18.2383 5.25 19.2628 5.25 20.5002C5.25013 21.8808 6.36937 23.0002 7.75 23.0002C9.13063 23.0002 10.2499 21.8808 10.25 20.5002C10.25 19.3294 9.44411 18.3501 8.35742 18.0784C8.56587 16.3444 10.04 15.0002 11.8301 15.0002H13.8301C16.3152 15.0002 18.3299 12.9854 18.3301 10.5002V10.4299C19.4307 10.1682 20.2499 9.18096 20.25 8.00024Z" fill="black"/>
</svg>
