<svg width="24" height="24" viewBox="0 0 24 24" fill="none" xmlns="http://www.w3.org/2000/svg">
<path d="M23.0508 20.3811C23.0506 19.9671 22.7149 19.6311 22.3008 19.6311H14.5928C14.2396 18.6791 13.3249 18.0003 12.25 18.0003C11.1752 18.0003 10.2615 18.6793 9.9082 19.6311L2.34473 19.6312C1.93071 19.6313 1.5949 19.9671 1.59473 20.3812C1.59473 20.7953 1.9306 21.1311 2.34473 21.1312L9.83398 21.1311C10.1139 22.2059 11.0876 23.0003 12.25 23.0003C13.4125 23.0003 14.3871 22.206 14.667 21.1311H22.3008C22.715 21.1311 23.0508 20.7954 23.0508 20.3811Z" fill="black"/>
<path d="M16.4258 6.39092C17.1472 6.39064 17.5081 5.5184 16.998 5.0081L12.9014 0.910447C12.5851 0.594253 12.0712 0.594355 11.7549 0.910447L7.6582 5.0081C7.14789 5.51841 7.50882 6.39079 8.23047 6.39092L11.5781 6.39092L11.5781 15.9427H13.0781L13.0781 6.39092H16.4258Z" fill="black"/>
</svg>
