<svg width="24" height="24" viewBox="0 0 24 24" fill="none" xmlns="http://www.w3.org/2000/svg">
<path fill-rule="evenodd" clip-rule="evenodd" d="M23.3008 20.3811C23.3006 19.829 22.853 19.3811 22.3008 19.3811H15.0332C14.5896 18.2787 13.5112 17.5003 12.25 17.5003C10.9889 17.5003 9.91148 18.2789 9.46777 19.3811L2.34473 19.3811C1.79263 19.3812 1.3449 19.8291 1.34473 20.3811C1.34473 20.9334 1.79253 21.381 2.34473 21.3811L9.38281 21.3811C9.75933 22.6078 10.8999 23.5003 12.25 23.5003C13.6002 23.5003 14.7417 22.608 15.1182 21.3811H22.3008C22.8531 21.3811 23.3008 20.9334 23.3008 20.3811ZM13.25 20.5003C13.2499 21.0524 12.8022 21.5003 12.25 21.5003C11.6978 21.5003 11.2501 21.0524 11.25 20.5003C11.25 19.948 11.6977 19.5003 12.25 19.5003C12.8023 19.5003 13.25 19.948 13.25 20.5003Z" fill="black"/>
<path d="M17.2773 6.34793C17.6679 5.95741 17.6679 5.32439 17.2773 4.93387L13.0781 0.733672C12.6642 0.319845 11.9921 0.319947 11.5781 0.733672L7.37793 4.93387C6.98761 5.32432 6.9877 5.95742 7.37793 6.34793C7.76841 6.73841 8.40146 6.73834 8.79199 6.34793L11.3301 3.81082L11.3301 15.0003C11.3302 15.5524 11.7779 16.0003 12.3301 16.0003C12.8822 16.0002 13.3299 15.5524 13.3301 15.0003L13.3301 3.81473L15.8633 6.34793C16.2538 6.73843 16.8868 6.73837 17.2773 6.34793Z" fill="black"/>
</svg>
