<svg width="24" height="24" viewBox="0 0 24 24" fill="none" xmlns="http://www.w3.org/2000/svg">
<path fill-rule="evenodd" clip-rule="evenodd" d="M22.8008 20.3809C22.8006 20.1049 22.5768 19.8809 22.3008 19.8809H14.6699C14.3943 18.7999 13.4168 18 12.25 18C11.0832 18 10.1068 18.8 9.83105 19.8809H2.34473C2.06878 19.881 1.8449 20.1049 1.84473 20.3809C1.84473 20.6569 2.06867 20.8808 2.34473 20.8809H9.78223C9.96596 22.0804 10.999 23 12.25 23C13.501 23 14.5351 22.0805 14.7188 20.8809H22.3008C22.5769 20.8809 22.8008 20.657 22.8008 20.3809ZM13.75 20.5C13.7499 21.3283 13.0783 22 12.25 22C11.4217 22 10.7501 21.3283 10.75 20.5C10.75 19.6716 11.4216 19 12.25 19C13.0784 19 13.75 19.6716 13.75 20.5Z" fill="black"/>
<path d="M16.9238 12.0537C17.1191 11.8584 17.1191 11.5419 16.9238 11.3467C16.7286 11.1515 16.412 11.1514 16.2168 11.3467L12.8281 14.7354L12.8281 1.39844C12.8281 1.12235 12.6042 0.89852 12.3281 0.898438C12.052 0.898438 11.8281 1.1223 11.8281 1.39844L11.8281 14.7354L8.43848 11.3467C8.24321 11.1515 7.92668 11.1514 7.73144 11.3467C7.53649 11.5419 7.53637 11.8585 7.73144 12.0537L11.9316 16.2529C12.1504 16.4717 12.5059 16.4717 12.7246 16.2529L16.9238 12.0537Z" fill="black"/>
</svg>
