<svg width="24" height="24" viewBox="0 0 24 24" fill="none" xmlns="http://www.w3.org/2000/svg">
<path fill-rule="evenodd" clip-rule="evenodd" d="M22.5508 20.3809C22.5506 20.2429 22.4387 20.1309 22.3008 20.1309H14.4678C14.2916 19.0639 13.3669 18.25 12.25 18.25C11.1332 18.25 10.2094 19.064 10.0332 20.1309H2.34473C2.20685 20.131 2.0949 20.243 2.09473 20.3809C2.09473 20.5189 2.20674 20.6308 2.34473 20.6309H10.0068C10.0748 21.8124 11.0514 22.75 12.25 22.75C13.4486 22.75 14.4262 21.8124 14.4941 20.6309H22.3008C22.4389 20.6309 22.5508 20.5189 22.5508 20.3809ZM14 20.5C13.9999 21.4664 13.2164 22.25 12.25 22.25C11.2836 22.25 10.5001 21.4664 10.5 20.5C10.5 19.5335 11.2835 18.75 12.25 18.75C13.2165 18.75 14 19.5335 14 20.5Z" fill="black"/>
<path d="M16.7471 11.877C16.8447 11.7793 16.8447 11.6211 16.7471 11.5234C16.6494 11.4259 16.4912 11.4258 16.3936 11.5234L12.5781 15.3389L12.5781 1.39844C12.5781 1.26042 12.4661 1.14852 12.3281 1.14844C12.1901 1.14844 12.0781 1.26037 12.0781 1.39844L12.0781 15.3389L8.26172 11.5234C8.16408 11.4259 8.0058 11.4258 7.9082 11.5234C7.81088 11.6211 7.81076 11.7794 7.9082 11.877L12.1084 16.0762C12.2295 16.1973 12.4267 16.1973 12.5479 16.0762L16.7471 11.877Z" fill="black"/>
</svg>
