<svg width="24" height="24" viewBox="0 0 24 24" fill="none" xmlns="http://www.w3.org/2000/svg">
<path d="M23.3008 20.3811C23.3006 19.829 22.853 19.3811 22.3008 19.3811H14.4834C14.0726 18.5628 13.228 18.0003 12.25 18.0003C11.2721 18.0003 10.4284 18.563 10.0176 19.3811L2.34473 19.3812C1.79263 19.3813 1.3449 19.8291 1.34473 20.3812C1.34473 20.9334 1.79253 21.3811 2.34473 21.3812L9.91309 21.3811C10.2697 22.3265 11.1798 23.0003 12.25 23.0003C13.3203 23.0003 14.2314 22.3267 14.5879 21.3811H22.3008C22.8531 21.3811 23.3008 20.9334 23.3008 20.3811Z" fill="black"/>
<path d="M16.4258 6.39092C17.1472 6.39064 17.5081 5.5184 16.998 5.0081L12.9014 0.910447C12.5851 0.594253 12.0712 0.594355 11.7549 0.910447L7.6582 5.0081C7.14789 5.51841 7.50882 6.39079 8.23047 6.39092L11.3281 6.39092L11.3281 15.9427H13.3281L13.3281 6.39092H16.4258Z" fill="black"/>
</svg>
