<svg width="24" height="24" viewBox="0 0 24 24" fill="none" xmlns="http://www.w3.org/2000/svg">
<path fill-rule="evenodd" clip-rule="evenodd" d="M23.3008 20.3809C23.3006 19.8287 22.853 19.3809 22.3008 19.3809H15.0332C14.5896 18.2784 13.5112 17.5 12.25 17.5C10.9889 17.5 9.91148 18.2786 9.46777 19.3809H2.34473C1.79263 19.381 1.3449 19.8288 1.34473 20.3809C1.34473 20.9331 1.79253 21.3808 2.34473 21.3809H9.38281C9.75933 22.6075 10.8999 23.5 12.25 23.5C13.6002 23.5 14.7417 22.6077 15.1182 21.3809H22.3008C22.8531 21.3809 23.3008 20.9331 23.3008 20.3809ZM13.25 20.5C13.2499 21.0522 12.8022 21.5 12.25 21.5C11.6978 21.5 11.2501 21.0522 11.25 20.5C11.25 19.9477 11.6977 19.5 12.25 19.5C12.8023 19.5 13.25 19.9477 13.25 20.5Z" fill="black"/>
<path d="M17.2773 12.4072C17.6679 12.0167 17.6679 11.3837 17.2773 10.9932C16.8868 10.6027 16.2538 10.6027 15.8633 10.9932L13.3281 13.5283L13.3281 1.39844C13.3281 0.846203 12.8803 0.39852 12.3281 0.398438C11.7758 0.398438 11.3281 0.846152 11.3281 1.39844L11.3281 13.5283L8.79199 10.9932C8.40146 10.6027 7.76842 10.6027 7.37793 10.9932C6.98771 11.3837 6.98759 12.0168 7.37793 12.4072L11.5781 16.6074C11.9921 17.0211 12.6642 17.0212 13.0781 16.6074L17.2773 12.4072Z" fill="black"/>
</svg>
