<svg width="24" height="24" viewBox="0 0 24 24" fill="none" xmlns="http://www.w3.org/2000/svg">
<path fill-rule="evenodd" clip-rule="evenodd" d="M23.0508 20.3812C23.0506 19.9671 22.7149 19.6312 22.3008 19.6312H14.8584C14.4946 18.5384 13.465 17.7503 12.25 17.7503C11.0351 17.7503 10.0065 18.5386 9.64258 19.6312L2.34473 19.6312C1.93071 19.6313 1.5949 19.9672 1.59473 20.3812C1.59473 20.7953 1.9306 21.1311 2.34473 21.1312L9.57617 21.1312C9.86167 22.3454 10.9487 23.2503 12.25 23.2503C13.5514 23.2503 14.6394 22.3455 14.9248 21.1312H22.3008C22.715 21.1312 23.0508 20.7954 23.0508 20.3812ZM13.5 20.5003C13.4999 21.1905 12.9403 21.7503 12.25 21.7503C11.5597 21.7503 11.0001 21.1905 11 20.5003C11 19.8099 11.5596 19.2503 12.25 19.2503C12.9403 19.2503 13.5 19.8099 13.5 20.5003Z" fill="black"/>
<path d="M17.1006 6.17119C17.3935 5.8783 17.3935 5.40354 17.1006 5.11064L12.9014 0.910449C12.5851 0.594253 12.0712 0.594354 11.7549 0.910449L7.55469 5.11064C7.262 5.40346 7.26209 5.87832 7.55469 6.17119C7.84754 6.46404 8.32233 6.46397 8.61523 6.17119L11.5801 3.20732L11.5801 15.0003C11.5802 15.4144 11.9159 15.7503 12.3301 15.7503C12.7442 15.7502 13.0799 15.4144 13.0801 15.0003L13.0801 3.21123L16.04 6.17119C16.3329 6.46406 16.8077 6.464 17.1006 6.17119Z" fill="black"/>
</svg>
