<svg width="24" height="24" viewBox="0 0 24 24" fill="none" xmlns="http://www.w3.org/2000/svg">
<path fill-rule="evenodd" clip-rule="evenodd" d="M22.8008 20.3812C22.8006 20.1052 22.5768 19.8812 22.3008 19.8812H14.6699C14.3943 18.8002 13.4168 18.0003 12.25 18.0003C11.0832 18.0003 10.1068 18.8003 9.83105 19.8812H2.34473C2.06878 19.8813 1.8449 20.1052 1.84473 20.3812C1.84473 20.6573 2.06867 20.8811 2.34473 20.8812H9.78223C9.96596 22.0808 10.999 23.0003 12.25 23.0003C13.501 23.0003 14.5351 22.0808 14.7188 20.8812H22.3008C22.5769 20.8812 22.8008 20.6573 22.8008 20.3812ZM13.75 20.5003C13.7499 21.3286 13.0783 22.0003 12.25 22.0003C11.4217 22.0003 10.7501 21.3286 10.75 20.5003C10.75 19.6719 11.4216 19.0003 12.25 19.0003C13.0784 19.0003 13.75 19.6719 13.75 20.5003Z" fill="black"/>
<path d="M16.9238 5.99445C17.1191 5.79919 17.1191 5.48268 16.9238 5.28742L12.7246 1.08723C12.5059 0.868661 12.1504 0.868762 11.9316 1.08723L7.73144 5.28742C7.53639 5.48261 7.53647 5.79921 7.73144 5.99445C7.92667 6.18967 8.2432 6.1896 8.43848 5.99445L11.8301 2.60383L11.8301 15.0003C11.8302 15.2763 12.054 15.5003 12.3301 15.5003C12.6061 15.5003 12.8299 15.2763 12.8301 15.0003L12.8301 2.60773L16.2168 5.99445C16.412 6.18969 16.7286 6.18963 16.9238 5.99445Z" fill="black"/>
</svg>
