<svg width="24" height="24" viewBox="0 0 24 24" fill="none" xmlns="http://www.w3.org/2000/svg">
<path d="M23.0508 20.3809C23.0506 19.9668 22.7149 19.6309 22.3008 19.6309H14.5928C14.2396 18.6789 13.3249 18 12.25 18C11.1752 18 10.2615 18.679 9.9082 19.6309H2.34473C1.93071 19.631 1.5949 19.9669 1.59473 20.3809C1.59473 20.795 1.9306 21.1308 2.34473 21.1309H9.83398C10.1139 22.2056 11.0876 23 12.25 23C13.4125 23 14.3871 22.2057 14.667 21.1309H22.3008C22.715 21.1309 23.0508 20.7951 23.0508 20.3809Z" fill="black"/>
<path d="M16.998 12.333C17.5082 11.8227 17.1473 10.9505 16.4258 10.9502H13.0781L13.0781 1.39844L11.5781 1.39844L11.5781 10.9502H8.23047C7.50882 10.9503 7.14789 11.8227 7.6582 12.333L11.7549 16.4297C12.0713 16.7461 12.585 16.7461 12.9014 16.4297L16.998 12.333Z" fill="black"/>
</svg>
