<svg width="24" height="24" viewBox="0 0 24 24" fill="none" xmlns="http://www.w3.org/2000/svg">
<path fill-rule="evenodd" clip-rule="evenodd" d="M23.0508 20.3809C23.0506 19.9668 22.7149 19.6309 22.3008 19.6309H14.8584C14.4946 18.5381 13.465 17.75 12.25 17.75C11.0351 17.75 10.0065 18.5383 9.64258 19.6309H2.34473C1.93071 19.631 1.5949 19.9669 1.59473 20.3809C1.59473 20.795 1.9306 21.1308 2.34473 21.1309H9.57617C9.86167 22.3451 10.9487 23.25 12.25 23.25C13.5514 23.25 14.6394 22.3452 14.9248 21.1309H22.3008C22.715 21.1309 23.0508 20.7951 23.0508 20.3809ZM13.5 20.5C13.4999 21.1902 12.9403 21.75 12.25 21.75C11.5597 21.75 11.0001 21.1902 11 20.5C11 19.8096 11.5596 19.25 12.25 19.25C12.9403 19.25 13.5 19.8097 13.5 20.5Z" fill="black"/>
<path d="M17.1006 12.2305C17.3935 11.9376 17.3935 11.4628 17.1006 11.1699C16.8077 10.8771 16.3329 10.877 16.04 11.1699L13.0781 14.1318L13.0781 1.39844C13.0781 0.984275 12.7423 0.64852 12.3281 0.648438C11.9139 0.648438 11.5781 0.984224 11.5781 1.39844L11.5781 14.1318L8.61523 11.1699C8.32233 10.8771 7.84755 10.8771 7.55469 11.1699C7.2621 11.4628 7.26198 11.9377 7.55469 12.2305L11.7549 16.4297C12.0713 16.7461 12.585 16.7461 12.9014 16.4297L17.1006 12.2305Z" fill="black"/>
</svg>
