<svg width="24" height="24" viewBox="0 0 24 24" fill="none" xmlns="http://www.w3.org/2000/svg">
<path d="M22.5508 20.3812C22.5506 20.2433 22.4387 20.1312 22.3008 20.1312H14.7207C14.5422 18.9256 13.5052 18.0003 12.25 18.0003C10.9948 18.0003 9.95881 18.9256 9.78027 20.1312H2.34473C2.20685 20.1313 2.0949 20.2433 2.09473 20.3812C2.09473 20.5192 2.20674 20.6311 2.34473 20.6312H9.75684C9.82511 21.9509 10.9133 23.0003 12.25 23.0003C13.5867 23.0003 14.6759 21.9509 14.7441 20.6312H22.3008C22.4389 20.6312 22.5508 20.5193 22.5508 20.3812Z" fill="black"/>
<path d="M16.4258 5.89095C16.7018 5.89068 16.8396 5.55697 16.6445 5.36166L12.5479 1.264C12.4268 1.14307 12.2295 1.14317 12.1084 1.264L8.01172 5.36166C7.81639 5.55699 7.95427 5.89083 8.23047 5.89095H12.0781L12.0781 15.9427H12.5781L12.5781 5.89095H16.4258Z" fill="black"/>
</svg>
