<svg width="24" height="24" viewBox="0 0 24 24" fill="none" xmlns="http://www.w3.org/2000/svg">
<path fill-rule="evenodd" clip-rule="evenodd" d="M23.3008 20.3809C23.3006 19.8287 22.853 19.3809 22.3008 19.3809H15.0332C14.5896 18.2784 13.5112 17.5 12.25 17.5C10.9889 17.5 9.91148 18.2786 9.46777 19.3809H2.34473C1.79263 19.381 1.3449 19.8288 1.34473 20.3809C1.34473 20.9331 1.79253 21.3808 2.34473 21.3809H9.38281C9.75933 22.6075 10.8999 23.5 12.25 23.5C13.6002 23.5 14.7417 22.6077 15.1182 21.3809H22.3008C22.8531 21.3809 23.3008 20.9331 23.3008 20.3809ZM13.25 20.5C13.2499 21.0522 12.8022 21.5 12.25 21.5C11.6978 21.5 11.2501 21.0522 11.25 20.5C11.25 19.9477 11.6977 19.5 12.25 19.5C12.8023 19.5 13.25 19.9477 13.25 20.5Z" fill="black"/>
<path d="M17.4541 12.584C17.9423 12.0958 17.9423 11.3046 17.4541 10.8164C16.9659 10.3283 16.1747 10.3283 15.6865 10.8164L13.3281 13.1748L13.3281 1.39844C13.3281 0.846203 12.8803 0.39852 12.3281 0.398438C11.7758 0.398438 11.3281 0.846152 11.3281 1.39844L11.3281 13.1748L8.96875 10.8164C8.48059 10.3283 7.6893 10.3283 7.20117 10.8164C6.71333 11.3046 6.7132 12.0959 7.20117 12.584L11.4014 16.7842C11.913 17.2955 12.7433 17.2956 13.2549 16.7842L17.4541 12.584Z" fill="black"/>
</svg>
