<svg width="25" height="24" viewBox="0 0 25 24" fill="none" xmlns="http://www.w3.org/2000/svg">
<path d="M23.2002 9C23.8905 9.00001 24.4502 9.55965 24.4502 10.25C24.4502 10.9404 23.8905 11.5 23.2002 11.5H22.4502V15.0029C22.4502 15.8061 22.4502 16.4551 22.4072 16.9814C22.3626 17.5281 22.2673 18.008 22.041 18.4521C21.6815 19.1578 21.1079 19.7313 20.4023 20.0908C19.9581 20.3171 19.4782 20.4124 18.9316 20.457C18.4053 20.5 17.7563 20.5 16.9531 20.5H12.4473C11.6441 20.5 10.9951 20.5 10.4688 20.457C9.92215 20.4124 9.44224 20.3171 8.99805 20.0908C8.29244 19.7313 7.7189 19.1578 7.35938 18.4521C7.13306 18.0079 7.03782 17.5281 6.99316 16.9814C6.95016 16.4551 6.95018 15.8061 6.9502 15.0029V11.5H6.4502C5.75984 11.5 5.2002 10.9404 5.2002 10.25C5.2002 9.55964 5.75984 9 6.4502 9H23.2002Z" fill="black"/>
<path d="M18.5 4.74902C19.1902 4.74902 19.7497 5.30889 19.75 5.99902C19.75 6.68938 19.1904 7.25 18.5 7.25H5.9502C4.56948 7.25 3.4502 8.36929 3.4502 9.75C3.4502 10.6747 3.95377 11.4796 4.7002 11.9121V14.4502C4.7002 15.0025 4.6996 15.5312 4.71582 16.0117C4.57282 15.9648 4.43333 15.9098 4.29785 15.8408C3.59235 15.4813 3.01871 14.9076 2.65918 14.2021C2.43293 13.7581 2.33764 13.2779 2.29297 12.7314C2.24998 12.2052 2.24998 11.5559 2.25 10.7529V7.25H1.75C1.05974 7.24989 0.5 6.68931 0.5 5.99902C0.500267 5.30896 1.0599 4.74913 1.75 4.74902H18.5Z" fill="black"/>
</svg>
