<svg width="24" height="24" viewBox="0 0 24 24" fill="none" xmlns="http://www.w3.org/2000/svg">
<path fill-rule="evenodd" clip-rule="evenodd" d="M21.4551 6.14746C21.8689 6.14771 22.2049 6.48359 22.2051 6.89746C22.2049 7.31133 21.8689 7.64721 21.4551 7.64746H20.4043V10.7031C20.4043 11.8101 20.4042 12.6863 20.3467 13.3906C20.2884 14.1037 20.1664 14.7078 19.8857 15.2588C19.4304 16.1523 18.7041 16.8796 17.8105 17.335C17.2595 17.6157 16.6556 17.7376 15.9424 17.7959C15.2378 17.8535 14.3615 17.8525 13.2539 17.8525H10.4463C9.33875 17.8525 8.46238 17.8534 7.75781 17.7959C7.04464 17.7376 6.44069 17.6157 5.88965 17.335C4.99612 16.8796 4.26884 16.1523 3.81348 15.2588C3.53296 14.7079 3.41081 14.1035 3.35254 13.3906C3.29505 12.6863 3.2959 11.81 3.2959 10.7031V7.64746H2.54492C2.13101 7.64726 1.79514 7.31136 1.79492 6.89746C1.79514 6.48356 2.13101 6.14766 2.54492 6.14746H21.4551ZM4.7959 10.7031C4.7959 11.8347 4.7963 12.6394 4.84766 13.2686C4.89835 13.8887 4.9954 14.2738 5.15039 14.5781C5.4619 15.1893 5.95917 15.6865 6.57031 15.998C6.87473 16.1531 7.25947 16.2501 7.87988 16.3008C8.50922 16.3522 9.31397 16.3525 10.4463 16.3525H13.2539C14.3863 16.3525 15.191 16.3522 15.8203 16.3008C16.4405 16.2501 16.8245 16.153 17.1289 15.998C17.7403 15.6865 18.2382 15.1895 18.5498 14.5781C18.7048 14.2738 18.8009 13.8887 18.8516 13.2686C18.9029 12.6394 18.9043 11.8348 18.9043 10.7031V7.64746H4.7959V10.7031Z" fill="black"/>
</svg>
