<svg width="24" height="24" viewBox="0 0 24 24" fill="none" xmlns="http://www.w3.org/2000/svg">
<path fill-rule="evenodd" clip-rule="evenodd" d="M22.7002 8.75098C23.2524 8.75109 23.7002 9.19876 23.7002 9.75098C23.7002 10.3032 23.2524 10.7509 22.7002 10.751H22.2002V14.4512C22.2002 15.2747 22.2012 15.9526 22.1562 16.5029C22.1103 17.065 22.0119 17.5821 21.7646 18.0674C21.3812 18.8198 20.769 19.432 20.0166 19.8154C19.5314 20.0627 19.0141 20.1611 18.4521 20.207C17.9018 20.252 17.2238 20.251 16.4004 20.251H12C11.1766 20.251 10.4986 20.252 9.94824 20.207C9.38625 20.1611 8.86905 20.0626 8.38379 19.8154C7.63131 19.432 7.01921 18.8199 6.63574 18.0674C6.38847 17.5821 6.29007 17.065 6.24414 16.5029C6.19917 15.9526 6.2002 15.2747 6.2002 14.4512V10.751H5.9502C5.39791 10.751 4.9502 10.3033 4.9502 9.75098C4.9502 9.19869 5.39791 8.75098 5.9502 8.75098H22.7002ZM8.2002 14.4512C8.2002 15.3076 8.20054 15.8898 8.2373 16.3398C8.27312 16.7782 8.33828 17.0028 8.41797 17.1592C8.60971 17.5354 8.91577 17.8415 9.29199 18.0332C9.44839 18.1129 9.67306 18.1781 10.1113 18.2139C10.5613 18.2506 11.1437 18.251 12 18.251H16.4004C17.2567 18.251 17.8391 18.2506 18.2891 18.2139C18.7273 18.178 18.952 18.1129 19.1084 18.0332C19.4846 17.8415 19.7907 17.5354 19.9824 17.1592C20.0621 17.0028 20.1273 16.7782 20.1631 16.3398C20.1998 15.8898 20.2002 15.3076 20.2002 14.4512V10.751H8.2002V14.4512Z" fill="black"/>
<path d="M17.75 4C18.3021 4 18.7497 4.44794 18.75 5C18.75 5.55228 18.3023 6 17.75 6H17.25V7.50098H15.25V6H3.25V9.70117C3.25 10.5573 3.25036 11.1399 3.28711 11.5898C3.32294 12.0279 3.38811 12.2528 3.46777 12.4092C3.65952 12.7853 3.96567 13.0915 4.3418 13.2832C4.47193 13.3495 4.64963 13.4038 4.95801 13.4414C4.96584 13.8834 4.9815 14.2912 5.01172 14.6611C5.03345 14.9271 5.06543 15.1947 5.11133 15.4629C5.07305 15.4603 5.03516 15.4601 4.99805 15.457C4.43606 15.4111 3.91885 15.3126 3.43359 15.0654C2.68122 14.682 2.06903 14.0697 1.68555 13.3174C1.43834 12.8322 1.33989 12.3148 1.29395 11.7529C1.24899 11.2027 1.25 10.5244 1.25 9.70117V6H1C0.447724 5.99999 0 5.55228 0 5C0.000266619 4.44795 0.447888 4.00001 1 4H17.75Z" fill="black"/>
</svg>
