<svg width="24" height="24" viewBox="0 0 24 24" fill="none" xmlns="http://www.w3.org/2000/svg">
<path fill-rule="evenodd" clip-rule="evenodd" d="M21.4551 6.64746C21.5928 6.64771 21.7049 6.75973 21.7051 6.89746C21.7049 7.03519 21.5928 7.14721 21.4551 7.14746H19.9043V10.7031C19.9043 11.8185 19.9041 12.6713 19.8486 13.3506C19.7929 14.0326 19.6792 14.5635 19.4404 15.0322C19.033 15.8317 18.3825 16.4823 17.583 16.8896C17.1142 17.1284 16.5836 17.2421 15.9014 17.2979C15.2219 17.3534 14.3697 17.3525 13.2539 17.3525H10.4463C9.33068 17.3525 8.47826 17.3533 7.79883 17.2979C7.11652 17.2421 6.58507 17.1285 6.11621 16.8896C5.31681 16.4822 4.66619 15.8316 4.25879 15.0322C4.0201 14.5636 3.90733 14.0325 3.85156 13.3506C3.79609 12.6713 3.7959 11.8185 3.7959 10.7031V7.14746H2.54492C2.40716 7.14726 2.29514 7.03522 2.29492 6.89746C2.29514 6.7597 2.40716 6.64766 2.54492 6.64746H21.4551ZM4.2959 10.7031C4.2959 11.8267 4.29619 12.6553 4.34961 13.3096C4.40283 13.9606 4.50828 14.4182 4.70508 14.8047C5.06457 15.5101 5.63838 16.0849 6.34375 16.4443C6.73026 16.6412 7.18784 16.7456 7.83887 16.7988C8.4933 16.8523 9.32215 16.8525 10.4463 16.8525H13.2539C14.3778 16.8525 15.206 16.8523 15.8604 16.7988C16.5118 16.7456 16.9698 16.6413 17.3564 16.4443C18.0619 16.0849 18.6356 15.5101 18.9951 14.8047C19.1919 14.4182 19.2974 13.9605 19.3506 13.3096C19.404 12.6553 19.4043 11.8267 19.4043 10.7031V7.14746H4.2959V10.7031Z" fill="black"/>
</svg>
