<svg width="24" height="24" viewBox="0 0 24 24" fill="none" xmlns="http://www.w3.org/2000/svg">
<path d="M21.455 6.52148C21.6618 6.52173 21.83 6.68953 21.83 6.89648C21.83 7.10344 21.6618 7.27123 21.455 7.27148H20.0292V10.7227C20.0292 11.8261 20.0292 12.678 19.9735 13.3594C19.9171 14.0496 19.801 14.5984 19.5516 15.0879C19.1322 15.911 18.4627 16.5806 17.6395 17C17.1503 17.2492 16.6017 17.3645 15.912 17.4209C15.2307 17.4766 14.3785 17.4766 13.2753 17.4766H10.4247C9.32135 17.4766 8.46931 17.4766 7.78796 17.4209C7.09788 17.3645 6.54889 17.2494 6.05945 17C5.23632 16.5805 4.56676 15.911 4.14734 15.0879C3.898 14.5984 3.78282 14.0495 3.72644 13.3594C3.67077 12.678 3.67077 11.8261 3.67078 10.7227V7.27148H2.5448C2.33786 7.27129 2.1698 7.10347 2.1698 6.89648C2.1698 6.6895 2.33786 6.52168 2.5448 6.52148H21.455Z" fill="black"/>
</svg>
