<svg width="24" height="24" viewBox="0 0 24 24" fill="none" xmlns="http://www.w3.org/2000/svg">
<path fill-rule="evenodd" clip-rule="evenodd" d="M3.10379 16.8428C3.85186 16.8428 4.56991 17.14 5.09891 17.6689C5.62789 18.198 5.92508 18.9159 5.92508 19.6641V19.666C5.92408 20.2229 5.75748 20.7669 5.44754 21.2295C5.13754 21.6921 4.69758 22.0529 4.18289 22.2656C3.66832 22.4782 3.10196 22.5336 2.55594 22.4248C2.00982 22.3159 1.50732 22.0471 1.11356 21.6533C0.719993 21.2596 0.451905 20.7579 0.34305 20.2119C0.234197 19.6658 0.289633 19.0996 0.50223 18.585C0.714906 18.0703 1.07572 17.6294 1.53836 17.3193C2.0009 17.0096 2.5452 16.8438 3.10184 16.8428H3.10379ZM3.10379 18.8428C2.94268 18.8434 2.7845 18.8918 2.65067 18.9814C2.51668 19.0714 2.41253 19.1994 2.35086 19.3486C2.28915 19.498 2.27241 19.6628 2.30399 19.8213C2.3356 19.9795 2.41362 20.1251 2.52762 20.2393C2.64187 20.3535 2.78816 20.4312 2.94657 20.4629C3.10505 20.4945 3.26985 20.4786 3.41922 20.417C3.56851 20.3553 3.69645 20.2504 3.78641 20.1162C3.87603 19.9824 3.92447 19.8251 3.92508 19.6641L3.92118 19.583C3.90255 19.3949 3.81867 19.2178 3.68387 19.083C3.52997 18.9294 3.32127 18.8428 3.10379 18.8428Z" fill="black"/>
<path fill-rule="evenodd" clip-rule="evenodd" d="M9.10379 16.8428C9.85185 16.8428 10.5699 17.14 11.0989 17.6689C11.6279 18.198 11.9251 18.9159 11.9251 19.6641V19.666C11.9241 20.2229 11.7575 20.7669 11.4475 21.2295C11.1375 21.6921 10.6976 22.0529 10.1829 22.2656C9.66832 22.4782 9.10196 22.5336 8.55594 22.4248C8.00983 22.3159 7.50732 22.0471 7.11356 21.6533C6.72 21.2596 6.4519 20.7579 6.34305 20.2119C6.2342 19.6658 6.28964 19.0996 6.50223 18.585C6.7149 18.0703 7.07572 17.6294 7.53836 17.3193C8.0009 17.0096 8.5452 16.8438 9.10184 16.8428H9.10379ZM9.10379 18.8428C8.94269 18.8434 8.7845 18.8918 8.65067 18.9814C8.51668 19.0714 8.41253 19.1994 8.35086 19.3486C8.28915 19.498 8.27241 19.6628 8.30399 19.8213C8.3356 19.9795 8.41362 20.1251 8.52762 20.2393C8.64186 20.3535 8.78816 20.4312 8.94657 20.4629C9.10504 20.4945 9.26986 20.4786 9.41922 20.417C9.56851 20.3553 9.69645 20.2504 9.78641 20.1162C9.87603 19.9824 9.92447 19.8251 9.92508 19.6641L9.92118 19.583C9.90255 19.3949 9.81867 19.2178 9.68387 19.083C9.52997 18.9294 9.32126 18.8428 9.10379 18.8428Z" fill="black"/>
<path fill-rule="evenodd" clip-rule="evenodd" d="M15.1038 16.8428C15.8519 16.8428 16.5699 17.14 17.0989 17.6689C17.6279 18.198 17.9251 18.9159 17.9251 19.6641V19.666C17.9241 20.2229 17.7575 20.7669 17.4475 21.2295C17.1375 21.6921 16.6976 22.0529 16.1829 22.2656C15.6683 22.4782 15.102 22.5336 14.5559 22.4248C14.0098 22.3159 13.5073 22.0471 13.1136 21.6533C12.72 21.2596 12.4519 20.7579 12.3431 20.2119C12.2342 19.6658 12.2896 19.0996 12.5022 18.585C12.7149 18.0703 13.0757 17.6294 13.5384 17.3193C14.0009 17.0096 14.5452 16.8438 15.1018 16.8428H15.1038ZM15.1038 18.8428C14.9427 18.8434 14.7845 18.8918 14.6507 18.9814C14.5167 19.0714 14.4125 19.1994 14.3509 19.3486C14.2891 19.498 14.2724 19.6628 14.304 19.8213C14.3356 19.9795 14.4136 20.1251 14.5276 20.2393C14.6419 20.3535 14.7882 20.4312 14.9466 20.4629C15.105 20.4945 15.2699 20.4786 15.4192 20.417C15.5685 20.3553 15.6964 20.2504 15.7864 20.1162C15.876 19.9824 15.9245 19.8251 15.9251 19.6641L15.9212 19.583C15.9026 19.3949 15.8187 19.2178 15.6839 19.083C15.53 18.9294 15.3213 18.8428 15.1038 18.8428Z" fill="black"/>
<path fill-rule="evenodd" clip-rule="evenodd" d="M21.1038 16.8428C21.8519 16.8428 22.5699 17.14 23.0989 17.6689C23.6279 18.198 23.9251 18.9159 23.9251 19.6641V19.666C23.9241 20.2229 23.7575 20.7669 23.4475 21.2295C23.1375 21.6921 22.6976 22.0529 22.1829 22.2656C21.6683 22.4782 21.102 22.5336 20.5559 22.4248C20.0098 22.3159 19.5073 22.0471 19.1136 21.6533C18.72 21.2596 18.4519 20.7579 18.3431 20.2119C18.2342 19.6658 18.2896 19.0996 18.5022 18.585C18.7149 18.0703 19.0757 17.6294 19.5384 17.3193C20.0009 17.0096 20.5452 16.8438 21.1018 16.8428H21.1038ZM21.1038 18.8428C20.9427 18.8434 20.7845 18.8918 20.6507 18.9814C20.5167 19.0714 20.4125 19.1994 20.3509 19.3486C20.2891 19.498 20.2724 19.6628 20.304 19.8213C20.3356 19.9795 20.4136 20.1251 20.5276 20.2393C20.6419 20.3535 20.7882 20.4312 20.9466 20.4629C21.105 20.4945 21.2699 20.4786 21.4192 20.417C21.5685 20.3553 21.6964 20.2504 21.7864 20.1162C21.876 19.9824 21.9245 19.8251 21.9251 19.6641L21.9212 19.583C21.9026 19.3949 21.8187 19.2178 21.6839 19.083C21.53 18.9294 21.3213 18.8428 21.1038 18.8428Z" fill="black"/>
<path fill-rule="evenodd" clip-rule="evenodd" d="M6.10379 11.5117C6.85186 11.5118 7.56991 11.809 8.09891 12.3379C8.62789 12.867 8.92508 13.5849 8.92508 14.333V14.335C8.92408 14.8918 8.75748 15.4358 8.44754 15.8984C8.13754 16.361 7.69758 16.7219 7.18289 16.9346C6.66832 17.1471 6.10196 17.2025 5.55594 17.0938C5.00982 16.9848 4.50732 16.716 4.11356 16.3223C3.71999 15.9285 3.45191 15.4268 3.34305 14.8809C3.2342 14.3347 3.28963 13.7685 3.50223 13.2539C3.71491 12.7393 4.07572 12.2983 4.53836 11.9883C5.0009 11.6785 5.5452 11.5127 6.10184 11.5117H6.10379ZM6.10379 13.5117C5.94268 13.5123 5.7845 13.5607 5.65067 13.6504C5.51668 13.7403 5.41253 13.8684 5.35086 14.0176C5.28915 14.167 5.27241 14.3317 5.30399 14.4902C5.3356 14.6485 5.41362 14.794 5.52762 14.9082C5.64186 15.0224 5.78816 15.1002 5.94657 15.1318C6.10505 15.1634 6.26985 15.1476 6.41922 15.0859C6.56851 15.0242 6.69645 14.9194 6.78641 14.7852C6.87603 14.6513 6.92447 14.494 6.92508 14.333L6.92118 14.252C6.90255 14.0639 6.81867 13.8868 6.68387 13.752C6.52997 13.5983 6.32127 13.5118 6.10379 13.5117Z" fill="black"/>
<path fill-rule="evenodd" clip-rule="evenodd" d="M12.1038 11.5117C12.8519 11.5118 13.5699 11.8089 14.0989 12.3379C14.6279 12.867 14.9251 13.5849 14.9251 14.333V14.335C14.924 14.8918 14.7574 15.4359 14.4475 15.8984C14.1375 16.361 13.6975 16.7219 13.1829 16.9346C12.6683 17.1471 12.1019 17.2025 11.5559 17.0938C11.0098 16.9848 10.5073 16.716 10.1136 16.3223C9.71997 15.9285 9.45192 15.4269 9.34305 14.8809C9.23419 14.3348 9.28967 13.7685 9.50223 13.2539C9.71489 12.7393 10.0758 12.2983 10.5384 11.9883C11.0009 11.6785 11.5452 11.5127 12.1018 11.5117H12.1038ZM12.1038 13.5117C11.9427 13.5123 11.7845 13.5607 11.6507 13.6504C11.5167 13.7403 11.4125 13.8684 11.3509 14.0176C11.2892 14.167 11.2724 14.3318 11.304 14.4902C11.3356 14.6485 11.4136 14.794 11.5276 14.9082C11.6419 15.0225 11.7881 15.1002 11.9466 15.1318C12.105 15.1634 12.2699 15.1476 12.4192 15.0859C12.5685 15.0242 12.6964 14.9193 12.7864 14.7852C12.876 14.6514 12.9244 14.494 12.9251 14.333L12.9212 14.252C12.9026 14.0639 12.8187 13.8868 12.6839 13.752C12.53 13.5983 12.3213 13.5118 12.1038 13.5117Z" fill="black"/>
<path fill-rule="evenodd" clip-rule="evenodd" d="M18.1038 11.5117C18.8519 11.5118 19.5699 11.8089 20.0989 12.3379C20.6279 12.867 20.9251 13.5849 20.9251 14.333V14.335C20.924 14.8918 20.7574 15.4359 20.4475 15.8984C20.1375 16.361 19.6975 16.7219 19.1829 16.9346C18.6683 17.1471 18.1019 17.2025 17.5559 17.0938C17.0098 16.9848 16.5073 16.716 16.1136 16.3223C15.72 15.9285 15.4519 15.4269 15.3431 14.8809C15.2342 14.3348 15.2897 13.7685 15.5022 13.2539C15.7149 12.7393 16.0758 12.2983 16.5384 11.9883C17.0009 11.6785 17.5452 11.5127 18.1018 11.5117H18.1038ZM18.1038 13.5117C17.9427 13.5123 17.7845 13.5607 17.6507 13.6504C17.5167 13.7403 17.4125 13.8684 17.3509 14.0176C17.2892 14.167 17.2724 14.3318 17.304 14.4902C17.3356 14.6485 17.4136 14.794 17.5276 14.9082C17.6419 15.0225 17.7881 15.1002 17.9466 15.1318C18.105 15.1634 18.2699 15.1476 18.4192 15.0859C18.5685 15.0242 18.6964 14.9193 18.7864 14.7852C18.876 14.6514 18.9244 14.494 18.9251 14.333L18.9212 14.252C18.9026 14.0639 18.8187 13.8868 18.6839 13.752C18.53 13.5983 18.3213 13.5118 18.1038 13.5117Z" fill="black"/>
<path fill-rule="evenodd" clip-rule="evenodd" d="M9.10379 6.3457C9.85194 6.34576 10.5699 6.64286 11.0989 7.17188C11.6278 7.70094 11.9251 8.41889 11.9251 9.16699V9.16895C11.924 9.72564 11.7574 10.2699 11.4475 10.7324C11.1375 11.1949 10.6974 11.5559 10.1829 11.7686C9.66837 11.9811 9.1019 12.0365 8.55594 11.9277C8.00982 11.8188 7.50733 11.55 7.11356 11.1562C6.72 10.7626 6.45197 10.2608 6.34305 9.71484C6.23421 9.16884 6.28977 8.60244 6.50223 8.08789C6.71487 7.57333 7.07583 7.13229 7.53836 6.82227C8.0009 6.51251 8.5452 6.34671 9.10184 6.3457H9.10379ZM9.10379 8.3457C8.94269 8.34632 8.7845 8.39471 8.65067 8.48438C8.51679 8.57433 8.4125 8.70243 8.35086 8.85156C8.28928 9.00089 8.27242 9.16585 8.30399 9.32422C8.33567 9.48237 8.41362 9.62807 8.52762 9.74219C8.64187 9.85642 8.78815 9.93417 8.94657 9.96582C9.10498 9.9974 9.2699 9.98152 9.41922 9.91992C9.56838 9.85823 9.69646 9.75319 9.78641 9.61914C9.87594 9.48544 9.92437 9.32783 9.92508 9.16699L9.92118 9.08594C9.90256 8.89788 9.81864 8.72074 9.68387 8.58594C9.52995 8.43218 9.32135 8.34576 9.10379 8.3457Z" fill="black"/>
<path fill-rule="evenodd" clip-rule="evenodd" d="M15.1038 6.3457C15.8519 6.34576 16.5699 6.64286 17.0989 7.17188C17.6279 7.70094 17.9251 8.41886 17.9251 9.16699V9.16895C17.924 9.72569 17.7574 10.2699 17.4475 10.7324C17.1375 11.1949 16.6975 11.5559 16.1829 11.7686C15.6684 11.9811 15.1019 12.0365 14.5559 11.9277C14.0098 11.8188 13.5073 11.55 13.1136 11.1562C12.72 10.7625 12.452 10.2608 12.3431 9.71484C12.2342 9.1688 12.2897 8.60247 12.5022 8.08789C12.7149 7.5733 13.0758 7.13229 13.5384 6.82227C14.0009 6.51251 14.5452 6.34671 15.1018 6.3457H15.1038ZM15.1038 8.3457C14.9427 8.34632 14.7845 8.39471 14.6507 8.48438C14.5168 8.57433 14.4125 8.7024 14.3509 8.85156C14.2892 9.00092 14.2724 9.1658 14.304 9.32422C14.3356 9.48242 14.4136 9.62803 14.5276 9.74219C14.6419 9.85644 14.7881 9.93416 14.9466 9.96582C15.105 9.9974 15.2699 9.98154 15.4192 9.91992C15.5684 9.85822 15.6965 9.75324 15.7864 9.61914C15.876 9.4854 15.9244 9.32789 15.9251 9.16699L15.9212 9.08594C15.9026 8.89784 15.8187 8.72074 15.6839 8.58594C15.5299 8.43219 15.3213 8.34576 15.1038 8.3457Z" fill="black"/>
<path fill-rule="evenodd" clip-rule="evenodd" d="M12.1038 1.01172C12.8519 1.01178 13.5699 1.30898 14.0989 1.83789C14.6279 2.36696 14.9251 3.08488 14.9251 3.83301V3.83496C14.9241 4.39182 14.7575 4.93583 14.4475 5.39844C14.1375 5.86104 13.6976 6.22188 13.1829 6.43457C12.6683 6.64714 12.102 6.70252 11.5559 6.59375C11.0098 6.48482 10.5073 6.21603 10.1136 5.82227C9.71999 5.42851 9.4519 4.92685 9.34305 4.38086C9.2342 3.83473 9.28963 3.26854 9.50223 2.75391C9.71491 2.23926 10.0757 1.79831 10.5384 1.48828C11.0009 1.17852 11.5452 1.01272 12.1018 1.01172H12.1038ZM12.1038 3.01172C11.9427 3.01233 11.7845 3.06072 11.6507 3.15039C11.5167 3.24035 11.4125 3.36836 11.3509 3.51758C11.2891 3.667 11.2724 3.83174 11.304 3.99023C11.3356 4.14846 11.4136 4.29401 11.5276 4.4082C11.6419 4.52245 11.7882 4.60017 11.9466 4.63184C12.105 4.66343 12.2699 4.6476 12.4192 4.58594C12.5685 4.5242 12.6964 4.41937 12.7864 4.28516C12.876 4.15132 12.9245 3.99402 12.9251 3.83301L12.9212 3.75195C12.9026 3.56387 12.8187 3.38675 12.6839 3.25195C12.53 3.09831 12.3213 3.01178 12.1038 3.01172Z" fill="black"/>
</svg>
