<svg width="24" height="24" viewBox="0 0 24 24" fill="none" xmlns="http://www.w3.org/2000/svg">
<path fill-rule="evenodd" clip-rule="evenodd" d="M21.455 6.14648C21.8688 6.14673 22.2047 6.48261 22.205 6.89648C22.2047 7.31035 21.8688 7.64623 21.455 7.64648H20.4042V10.7021C20.4042 11.8091 20.4041 12.6853 20.3466 13.3896C20.2883 14.1027 20.1663 14.7068 19.8856 15.2578C19.4302 16.1514 18.704 16.8786 17.8104 17.334C17.2593 17.6147 16.6555 17.7366 15.9423 17.7949C15.2377 17.8525 14.3614 17.8516 13.2538 17.8516H10.4462C9.33863 17.8516 8.46225 17.8525 7.75769 17.7949C7.04452 17.7366 6.44057 17.6147 5.88953 17.334C4.99599 16.8786 4.26872 16.1513 3.81335 15.2578C3.53283 14.7069 3.41069 14.1025 3.35242 13.3896C3.29493 12.6853 3.29578 11.8091 3.29578 10.7021V7.64648H2.5448C2.13089 7.64629 1.79502 7.31039 1.7948 6.89648C1.79502 6.48258 2.13089 6.14668 2.5448 6.14648H21.455ZM4.79578 10.7021C4.79578 11.8338 4.79618 12.6385 4.84753 13.2676C4.89823 13.8877 4.99528 14.2728 5.15027 14.5771C5.46178 15.1883 5.95905 15.6855 6.57019 15.9971C6.87461 16.1521 7.25935 16.2491 7.87976 16.2998C8.5091 16.3512 9.31385 16.3516 10.4462 16.3516H13.2538C14.3862 16.3516 15.1908 16.3512 15.8202 16.2998C16.4404 16.2491 16.8244 16.1521 17.1288 15.9971C17.7402 15.6855 18.2381 15.1885 18.5497 14.5771C18.7047 14.2728 18.8007 13.8877 18.8514 13.2676C18.9028 12.6384 18.9042 11.8338 18.9042 10.7021V7.64648H4.79578V10.7021Z" fill="black"/>
</svg>
