<svg width="25" height="24" viewBox="0 0 25 24" fill="none" xmlns="http://www.w3.org/2000/svg">
<path d="M23.2 9.00098C23.8904 9.00099 24.45 9.56063 24.45 10.251C24.45 10.9413 23.8904 11.501 23.2 11.501H22.45V15.0039C22.45 15.8071 22.45 16.4561 22.407 16.9824C22.3624 17.529 22.2671 18.0089 22.0408 18.4531C21.6813 19.1587 21.1078 19.7323 20.4022 20.0918C19.958 20.3181 19.4781 20.4133 18.9315 20.458C18.4051 20.501 17.7561 20.501 16.9529 20.501H12.4471C11.6439 20.501 10.9949 20.501 10.4686 20.458C9.92196 20.4133 9.44206 20.3181 8.99786 20.0918C8.29226 19.7323 7.71872 19.1587 7.35919 18.4531C7.13288 18.0089 7.03764 17.529 6.99298 16.9824C6.94998 16.4561 6.94999 15.8071 6.95001 15.0039V11.501H6.45001C5.75966 11.501 5.20001 10.9413 5.20001 10.251C5.20001 9.56062 5.75966 9.00098 6.45001 9.00098H23.2Z" fill="black"/>
<path d="M18.4998 4.75C19.19 4.75 19.7495 5.30987 19.7498 6C19.7498 6.69036 19.1902 7.25098 18.4998 7.25098H5.95001C4.5693 7.25098 3.45001 8.37026 3.45001 9.75098C3.45001 10.6757 3.95358 11.4806 4.70001 11.9131V14.4512C4.70001 15.0035 4.69941 15.5322 4.71564 16.0127C4.57264 15.9658 4.43314 15.9108 4.29767 15.8418C3.59216 15.4823 3.01853 14.9086 2.659 14.2031C2.43275 13.7591 2.33746 13.2788 2.29279 12.7324C2.24979 12.2062 2.2498 11.5569 2.24982 10.7539V7.25098H1.74982C1.05955 7.25087 0.499817 6.69029 0.499817 6C0.500084 5.30994 1.05972 4.75011 1.74982 4.75H18.4998Z" fill="black"/>
</svg>
