<svg width="24" height="24" viewBox="0 0 24 24" fill="none" xmlns="http://www.w3.org/2000/svg">
<path d="M21.4551 6.64746C21.5929 6.64771 21.7051 6.75954 21.7051 6.89746C21.7051 7.03538 21.5929 7.14721 21.4551 7.14746H19.9043V10.7031C19.9043 11.8189 19.9041 12.6711 19.8486 13.3506C19.7929 14.0329 19.6793 14.5634 19.4404 15.0322C19.033 15.8318 18.3826 16.4822 17.583 16.8896C17.1142 17.1284 16.5836 17.2421 15.9014 17.2979C15.2318 17.3525 14.3947 17.3526 13.3027 17.3525H10.4004C9.30743 17.3526 8.46884 17.3526 7.79883 17.2979C7.11644 17.2421 6.58512 17.1286 6.11621 16.8896C5.31663 16.4822 4.66621 15.8318 4.25879 15.0322C4.01994 14.5634 3.90733 14.0328 3.85156 13.3506C3.79605 12.6711 3.7959 11.8189 3.7959 10.7031V7.14746H2.54492C2.40702 7.14726 2.29492 7.03541 2.29492 6.89746C2.29492 6.75951 2.40702 6.64766 2.54492 6.64746H21.4551Z" fill="black"/>
</svg>
