<svg width="24" height="24" viewBox="0 0 24 24" fill="none" xmlns="http://www.w3.org/2000/svg">
<path d="M21.455 6.23242C21.822 6.23267 22.119 6.53035 22.119 6.89746C22.119 7.26456 21.822 7.56225 21.455 7.5625H20.3192V10.7031C20.3192 11.8119 20.3188 12.6836 20.2616 13.3838C20.2037 14.0919 20.0841 14.6835 19.8104 15.2207C19.3632 16.0984 18.6491 16.8116 17.7714 17.2588C17.2343 17.5324 16.6434 17.6531 15.9354 17.7109C15.2421 17.7676 14.3803 17.7676 13.287 17.7676H10.4139C9.32041 17.7676 8.45797 17.7676 7.76453 17.7109C7.05644 17.6531 6.46478 17.5325 5.92761 17.2588C5.05014 16.8116 4.3367 16.0982 3.88953 15.2207C3.61582 14.6835 3.49523 14.0919 3.43738 13.3838C3.38073 12.6902 3.38073 11.8282 3.38074 10.7344V7.5625H2.5448C2.17769 7.56232 1.87978 7.2646 1.87976 6.89746C1.87976 6.5303 2.17768 6.2326 2.5448 6.23242H21.455Z" fill="black"/>
</svg>
