<svg width="24" height="24" viewBox="0 0 24 24" fill="none" xmlns="http://www.w3.org/2000/svg">
<path fill-rule="evenodd" clip-rule="evenodd" d="M3.10434 17.3438C3.71964 17.3439 4.3098 17.5884 4.74496 18.0234C5.1802 18.4587 5.42563 19.0495 5.42563 19.665C5.42482 20.123 5.28793 20.5716 5.03305 20.9521C4.77808 21.3327 4.41538 21.6297 3.99203 21.8047C3.56888 21.9794 3.10314 22.0249 2.65414 21.9355C2.20487 21.846 1.79157 21.6247 1.46762 21.3008C1.14386 20.9769 0.923396 20.5643 0.83383 20.1152C0.744258 19.6659 0.789711 19.1998 0.964689 18.7764C1.13968 18.3531 1.43666 17.9913 1.81723 17.7363C2.1978 17.4815 2.64632 17.3445 3.10434 17.3438ZM3.10434 18.3438C2.84408 18.3443 2.58912 18.4216 2.37289 18.5664C2.1566 18.7114 1.98801 18.9176 1.88852 19.1582C1.78901 19.399 1.76337 19.6644 1.8143 19.9199C1.86524 20.1752 1.99067 20.4097 2.17465 20.5938C2.35885 20.7779 2.59402 20.9042 2.84945 20.9551C3.10477 21.0059 3.36959 20.9793 3.6102 20.8799C3.85088 20.7804 4.05702 20.6119 4.20199 20.3955C4.34679 20.1793 4.42501 19.9252 4.42563 19.665L4.41879 19.5342C4.38873 19.2318 4.25462 18.9472 4.03793 18.7305C3.7903 18.483 3.45442 18.3439 3.10434 18.3438Z" fill="black"/>
<path fill-rule="evenodd" clip-rule="evenodd" d="M9.10434 17.3438C9.71964 17.3439 10.3098 17.5884 10.745 18.0234C11.1802 18.4587 11.4256 19.0495 11.4256 19.665C11.4248 20.123 11.2879 20.5716 11.033 20.9521C10.7781 21.3327 10.4154 21.6297 9.99203 21.8047C9.56888 21.9794 9.10315 22.025 8.65414 21.9355C8.20486 21.846 7.79157 21.6247 7.46762 21.3008C7.14386 20.9769 6.9234 20.5643 6.83383 20.1152C6.74426 19.6659 6.78971 19.1998 6.96469 18.7764C7.13968 18.3531 7.43666 17.9913 7.81723 17.7363C8.1978 17.4814 8.64631 17.3445 9.10434 17.3438ZM9.10434 18.3438C8.84407 18.3443 8.58913 18.4216 8.37289 18.5664C8.1566 18.7114 7.98801 18.9176 7.88852 19.1582C7.78901 19.399 7.76337 19.6644 7.8143 19.9199C7.86524 20.1752 7.99067 20.4097 8.17465 20.5938C8.35886 20.7779 8.59401 20.9042 8.84945 20.9551C9.10478 21.0059 9.36958 20.9793 9.6102 20.8799C9.85088 20.7804 10.057 20.6119 10.202 20.3955C10.3468 20.1793 10.425 19.9252 10.4256 19.665L10.4188 19.5342C10.3887 19.2318 10.2546 18.9472 10.0379 18.7305C9.7903 18.483 9.45442 18.3439 9.10434 18.3438Z" fill="black"/>
<path fill-rule="evenodd" clip-rule="evenodd" d="M15.1043 17.3438C15.7196 17.3439 16.3098 17.5884 16.745 18.0234C17.1802 18.4587 17.4256 19.0495 17.4256 19.665C17.4248 20.123 17.2879 20.5716 17.033 20.9521C16.7781 21.3327 16.4154 21.6297 15.992 21.8047C15.5689 21.9794 15.1031 22.025 14.6541 21.9355C14.2049 21.846 13.7916 21.6247 13.4676 21.3008C13.1439 20.9769 12.9234 20.5643 12.8338 20.1152C12.7443 19.6659 12.7897 19.1998 12.9647 18.7764C13.1397 18.3531 13.4367 17.9913 13.8172 17.7363C14.1978 17.4814 14.6463 17.3445 15.1043 17.3438ZM15.1043 18.3438C14.8441 18.3443 14.5891 18.4216 14.3729 18.5664C14.1566 18.7114 13.988 18.9176 13.8885 19.1582C13.789 19.399 13.7634 19.6644 13.8143 19.9199C13.8652 20.1752 13.9907 20.4097 14.1747 20.5938C14.3589 20.7779 14.594 20.9042 14.8495 20.9551C15.1048 21.0059 15.3696 20.9793 15.6102 20.8799C15.8509 20.7804 16.057 20.6119 16.202 20.3955C16.3468 20.1793 16.425 19.9252 16.4256 19.665L16.4188 19.5342C16.3887 19.2318 16.2546 18.9472 16.0379 18.7305C15.7903 18.483 15.4544 18.3439 15.1043 18.3438Z" fill="black"/>
<path fill-rule="evenodd" clip-rule="evenodd" d="M21.1043 17.3438C21.7196 17.3439 22.3098 17.5884 22.745 18.0234C23.1802 18.4587 23.4256 19.0495 23.4256 19.665C23.4248 20.123 23.2879 20.5716 23.033 20.9521C22.7781 21.3327 22.4154 21.6297 21.992 21.8047C21.5689 21.9794 21.1031 22.025 20.6541 21.9355C20.2049 21.846 19.7916 21.6247 19.4676 21.3008C19.1439 20.9769 18.9234 20.5643 18.8338 20.1152C18.7443 19.6659 18.7897 19.1998 18.9647 18.7764C19.1397 18.3531 19.4367 17.9913 19.8172 17.7363C20.1978 17.4814 20.6463 17.3445 21.1043 17.3438ZM21.1043 18.3438C20.8441 18.3443 20.5891 18.4216 20.3729 18.5664C20.1566 18.7114 19.988 18.9176 19.8885 19.1582C19.789 19.399 19.7634 19.6644 19.8143 19.9199C19.8652 20.1752 19.9907 20.4097 20.1747 20.5938C20.3589 20.7779 20.594 20.9042 20.8495 20.9551C21.1048 21.0059 21.3696 20.9793 21.6102 20.8799C21.8509 20.7804 22.057 20.6119 22.202 20.3955C22.3468 20.1793 22.425 19.9252 22.4256 19.665L22.4188 19.5342C22.3887 19.2318 22.2546 18.9472 22.0379 18.7305C21.7903 18.483 21.4544 18.3439 21.1043 18.3438Z" fill="black"/>
<path fill-rule="evenodd" clip-rule="evenodd" d="M6.10434 12.0127C6.71964 12.0128 7.3098 12.2574 7.74496 12.6924C8.1802 13.1277 8.42563 13.7184 8.42563 14.334C8.42482 14.792 8.28793 15.2406 8.03305 15.6211C7.77808 16.0017 7.41538 16.2986 6.99203 16.4736C6.56888 16.6484 6.10314 16.6939 5.65414 16.6045C5.20487 16.5149 4.79157 16.2936 4.46762 15.9697C4.14386 15.6458 3.9234 15.2333 3.83383 14.7842C3.74426 14.3348 3.78971 13.8687 3.96469 13.4453C4.13968 13.022 4.43666 12.6602 4.81723 12.4053C5.1978 12.1504 5.64632 12.0135 6.10434 12.0127ZM6.10434 13.0127C5.84408 13.0132 5.58912 13.0905 5.37289 13.2354C5.1566 13.3803 4.98801 13.5865 4.88852 13.8271C4.78901 14.0679 4.76337 14.3334 4.8143 14.5889C4.86524 14.8441 4.99067 15.0786 5.17465 15.2627C5.35885 15.4469 5.59402 15.5731 5.84945 15.624C6.10477 15.6748 6.36959 15.6482 6.6102 15.5488C6.85088 15.4493 7.05702 15.2808 7.20199 15.0645C7.34679 14.8483 7.42501 14.5941 7.42563 14.334L7.41879 14.2031C7.38873 13.9008 7.25462 13.6162 7.03793 13.3994C6.7903 13.152 6.45442 13.0128 6.10434 13.0127Z" fill="black"/>
<path fill-rule="evenodd" clip-rule="evenodd" d="M12.1043 12.0127C12.7196 12.0128 13.3098 12.2574 13.745 12.6924C14.1802 13.1277 14.4256 13.7185 14.4256 14.334C14.4248 14.792 14.2879 15.2406 14.033 15.6211C13.7781 16.0017 13.4154 16.2986 12.992 16.4736C12.5689 16.6484 12.1031 16.6939 11.6541 16.6045C11.2049 16.5149 10.7916 16.2936 10.4676 15.9697C10.1439 15.6459 9.92342 15.2332 9.83383 14.7842C9.74426 14.3349 9.78973 13.8687 9.96469 13.4453C10.1397 13.022 10.4366 12.6603 10.8172 12.4053C11.1978 12.1504 11.6463 12.0135 12.1043 12.0127ZM12.1043 13.0127C11.844 13.0132 11.5891 13.0905 11.3729 13.2354C11.1566 13.3803 10.988 13.5865 10.8885 13.8271C10.789 14.0679 10.7634 14.3334 10.8143 14.5889C10.8653 14.844 10.9907 15.0786 11.1747 15.2627C11.3588 15.4468 11.594 15.5731 11.8495 15.624C12.1048 15.6748 12.3696 15.6482 12.6102 15.5488C12.8509 15.4493 13.057 15.2808 13.202 15.0645C13.3468 14.8483 13.425 14.5941 13.4256 14.334L13.4188 14.2031C13.3887 13.9008 13.2546 13.6161 13.0379 13.3994C12.7903 13.1519 12.4544 13.0128 12.1043 13.0127Z" fill="black"/>
<path fill-rule="evenodd" clip-rule="evenodd" d="M18.1043 12.0127C18.7196 12.0128 19.3098 12.2574 19.745 12.6924C20.1802 13.1277 20.4256 13.7185 20.4256 14.334C20.4248 14.792 20.2879 15.2406 20.033 15.6211C19.7781 16.0017 19.4154 16.2986 18.992 16.4736C18.5689 16.6484 18.1031 16.6939 17.6541 16.6045C17.2049 16.5149 16.7916 16.2936 16.4676 15.9697C16.1439 15.6459 15.9234 15.2332 15.8338 14.7842C15.7443 14.3349 15.7897 13.8687 15.9647 13.4453C16.1397 13.022 16.4366 12.6603 16.8172 12.4053C17.1978 12.1504 17.6463 12.0135 18.1043 12.0127ZM18.1043 13.0127C17.844 13.0132 17.5891 13.0905 17.3729 13.2354C17.1566 13.3803 16.988 13.5865 16.8885 13.8271C16.789 14.0679 16.7634 14.3334 16.8143 14.5889C16.8653 14.844 16.9907 15.0786 17.1747 15.2627C17.3588 15.4468 17.594 15.5731 17.8495 15.624C18.1048 15.6748 18.3696 15.6482 18.6102 15.5488C18.8509 15.4493 19.057 15.2808 19.202 15.0645C19.3468 14.8483 19.425 14.5941 19.4256 14.334L19.4188 14.2031C19.3887 13.9008 19.2546 13.6161 19.0379 13.3994C18.7903 13.1519 18.4544 13.0128 18.1043 13.0127Z" fill="black"/>
<path fill-rule="evenodd" clip-rule="evenodd" d="M9.10434 6.84668C9.71964 6.8468 10.3098 7.09137 10.745 7.52637C11.18 7.96164 11.4256 8.55253 11.4256 9.16797C11.4247 9.62585 11.2879 10.0747 11.033 10.4551C10.778 10.8356 10.4154 11.1327 9.99203 11.3076C9.56891 11.4824 9.10312 11.5279 8.65414 11.4385C8.20498 11.3489 7.79153 11.1275 7.46762 10.8037C7.14397 10.4799 6.92346 10.0671 6.83383 9.61816C6.74428 9.16894 6.78982 8.70263 6.96469 8.2793C7.13967 7.85598 7.43667 7.49424 7.81723 7.23926C8.19783 6.98431 8.64625 6.84744 9.10434 6.84668ZM9.10434 7.84668C8.84401 7.84723 8.58916 7.92444 8.37289 8.06934C8.1566 8.2143 7.988 8.42047 7.88852 8.66113C7.78913 8.90183 7.76339 9.16748 7.8143 9.42285C7.8653 9.6779 7.99079 9.9127 8.17465 10.0967C8.35882 10.2807 8.59413 10.4071 8.84945 10.458C9.10474 10.5088 9.36962 10.4822 9.6102 10.3828C9.85087 10.2833 10.057 10.1148 10.202 9.89844C10.3467 9.68238 10.4249 9.42799 10.4256 9.16797L10.4188 9.03711C10.3887 8.73489 10.2545 8.45011 10.0379 8.2334C9.7903 7.98593 9.45442 7.8468 9.10434 7.84668Z" fill="black"/>
<path fill-rule="evenodd" clip-rule="evenodd" d="M15.1043 6.84668C15.7196 6.8468 16.3098 7.09137 16.745 7.52637C17.1801 7.96165 17.4256 8.55249 17.4256 9.16797C17.4248 9.6259 17.2879 10.0746 17.033 10.4551C16.7781 10.8356 16.4154 11.1326 15.992 11.3076C15.5689 11.4824 15.1031 11.5279 14.6541 11.4385C14.2049 11.3489 13.7915 11.1275 13.4676 10.8037C13.1439 10.4799 12.9234 10.0672 12.8338 9.61816C12.7443 9.1689 12.7898 8.70267 12.9647 8.2793C13.1397 7.85596 13.4366 7.49424 13.8172 7.23926C14.1978 6.98431 14.6463 6.84744 15.1043 6.84668ZM15.1043 7.84668C14.844 7.84723 14.5892 7.92444 14.3729 8.06934C14.1566 8.2143 13.988 8.42045 13.8885 8.66113C13.7891 8.90187 13.7634 9.16744 13.8143 9.42285C13.8653 9.67796 13.9908 9.91266 14.1747 10.0967C14.3588 10.2808 14.5941 10.4071 14.8495 10.458C15.1048 10.5088 15.3696 10.4822 15.6102 10.3828C15.8509 10.2833 16.057 10.1148 16.202 9.89844C16.3468 9.68234 16.4249 9.42805 16.4256 9.16797L16.4188 9.03711C16.3887 8.73485 16.2545 8.45012 16.0379 8.2334C15.7903 7.98593 15.4544 7.8468 15.1043 7.84668Z" fill="black"/>
<path fill-rule="evenodd" clip-rule="evenodd" d="M12.1043 1.5127C12.7196 1.51282 13.3098 1.75739 13.745 2.19238C14.1802 2.62768 14.4256 3.21843 14.4256 3.83398C14.4248 4.29199 14.2879 4.74058 14.033 5.12109C13.7781 5.50166 13.4154 5.79864 12.992 5.97363C12.5689 6.14839 12.1031 6.19389 11.6541 6.10449C11.2049 6.01493 10.7916 5.79363 10.4676 5.46973C10.1439 5.14585 9.9234 4.73329 9.83383 4.28418C9.74426 3.83484 9.78971 3.36874 9.96469 2.94531C10.1397 2.52201 10.4367 2.16024 10.8172 1.90527C11.1978 1.6504 11.6463 1.51345 12.1043 1.5127ZM12.1043 2.5127C11.8441 2.51324 11.5891 2.59053 11.3729 2.73535C11.1566 2.8803 10.988 3.0865 10.8885 3.32715C10.789 3.56794 10.7634 3.83338 10.8143 4.08887C10.8652 4.3441 10.9907 4.5786 11.1747 4.7627C11.3589 4.94685 11.594 5.0731 11.8495 5.12402C12.1048 5.17484 12.3696 5.14822 12.6102 5.04883C12.8509 4.94932 13.057 4.78083 13.202 4.56445C13.3468 4.34829 13.425 4.09413 13.4256 3.83398L13.4188 3.70312C13.3887 3.40079 13.2546 3.11615 13.0379 2.89941C12.7903 2.65195 12.4544 2.51282 12.1043 2.5127Z" fill="black"/>
</svg>
