<svg width="24" height="24" viewBox="0 0 24 24" fill="none" xmlns="http://www.w3.org/2000/svg">
<path d="M4.82521 20.8125C5.02405 20.5155 5.14207 20.173 5.16896 19.8184L5.17482 19.665C5.17482 19.1846 5.00791 18.7212 4.70607 18.3525L4.56837 18.2002C4.22872 17.8606 3.78333 17.6507 3.30958 17.6035L3.10451 17.5938C2.69608 17.5944 2.29566 17.716 1.95607 17.9434C1.6165 18.171 1.3513 18.4947 1.19533 18.8721C1.03926 19.2498 0.999242 19.6657 1.07911 20.0664C1.15903 20.467 1.35567 20.8351 1.64454 21.124L1.75685 21.2285C2.02637 21.4608 2.35243 21.6205 2.70314 21.6904L2.85451 21.7148C3.20777 21.7582 3.56743 21.7096 3.89747 21.5732C4.27493 21.4171 4.59781 21.1518 4.82521 20.8125Z" fill="black"/>
<path d="M10.8252 20.8125C11.024 20.5155 11.1421 20.173 11.169 19.8184L11.1748 19.665C11.1748 19.1846 11.0079 18.7212 10.7061 18.3525L10.5684 18.2002C10.2287 17.8606 9.78333 17.6507 9.30958 17.6035L9.10451 17.5938C8.69608 17.5944 8.29566 17.716 7.95607 17.9434C7.6165 18.171 7.3513 18.4947 7.19533 18.8721C7.03926 19.2498 6.99924 19.6657 7.07911 20.0664C7.15903 20.467 7.35567 20.8351 7.64454 21.124L7.75685 21.2285C8.02637 21.4608 8.35243 21.6205 8.70314 21.6904L8.85451 21.7148C9.20778 21.7582 9.56743 21.7096 9.89747 21.5732C10.2749 21.4171 10.5978 21.1518 10.8252 20.8125Z" fill="black"/>
<path d="M16.8252 20.8125C17.024 20.5155 17.1421 20.173 17.169 19.8184L17.1748 19.665C17.1748 19.1846 17.0079 18.7212 16.7061 18.3525L16.5684 18.2002C16.2287 17.8606 15.7833 17.6507 15.3096 17.6035L15.1045 17.5938C14.6961 17.5944 14.2957 17.716 13.9561 17.9434C13.6165 18.171 13.3513 18.4947 13.1953 18.8721C13.0393 19.2498 12.9992 19.6657 13.0791 20.0664C13.159 20.467 13.3557 20.8351 13.6445 21.124L13.7568 21.2285C14.0264 21.4608 14.3524 21.6205 14.7031 21.6904L14.8545 21.7148C15.2078 21.7582 15.5674 21.7096 15.8975 21.5732C16.2749 21.4171 16.5978 21.1518 16.8252 20.8125Z" fill="black"/>
<path d="M22.8252 20.8125C23.024 20.5155 23.1421 20.173 23.169 19.8184L23.1748 19.665C23.1748 19.1846 23.0079 18.7212 22.7061 18.3525L22.5684 18.2002C22.2287 17.8606 21.7833 17.6507 21.3096 17.6035L21.1045 17.5938C20.6961 17.5944 20.2957 17.716 19.9561 17.9434C19.6165 18.171 19.3513 18.4947 19.1953 18.8721C19.0393 19.2498 18.9992 19.6657 19.0791 20.0664C19.159 20.467 19.3557 20.8351 19.6445 21.124L19.7568 21.2285C20.0264 21.4608 20.3524 21.6205 20.7031 21.6904L20.8545 21.7148C21.2078 21.7582 21.5674 21.7096 21.8975 21.5732C22.2749 21.4171 22.5978 21.1518 22.8252 20.8125Z" fill="black"/>
<path d="M7.82521 15.4814C8.02405 15.1845 8.14207 14.8419 8.16896 14.4873L8.17482 14.334C8.17482 13.8536 8.00791 13.3901 7.70607 13.0215L7.56837 12.8691C7.22872 12.5296 6.78333 12.3197 6.30958 12.2725L6.10451 12.2627C5.69608 12.2634 5.29566 12.3849 4.95607 12.6123C4.6165 12.8399 4.3513 13.1636 4.19533 13.541C4.03926 13.9188 3.99924 14.3346 4.07911 14.7354C4.15903 15.136 4.35567 15.504 4.64454 15.793L4.75685 15.8975C5.02637 16.1297 5.35243 16.2895 5.70314 16.3594L5.85451 16.3838C6.20778 16.4271 6.56743 16.3786 6.89747 16.2422C7.27493 16.0861 7.59781 15.8207 7.82521 15.4814Z" fill="black"/>
<path d="M13.8252 15.4814C14.024 15.1845 14.1421 14.8419 14.169 14.4873L14.1748 14.334C14.1748 13.7848 13.9569 13.2576 13.5684 12.8691C13.2287 12.5295 12.7833 12.3197 12.3096 12.2725L12.1045 12.2627C11.6961 12.2634 11.2957 12.3849 10.9561 12.6123C10.6165 12.8399 10.3513 13.1636 10.1953 13.541C10.0393 13.9187 9.99925 14.3347 10.0791 14.7354C10.1591 15.1359 10.3556 15.504 10.6445 15.793C10.9335 16.0819 11.3021 16.2794 11.7031 16.3594L11.8545 16.3838C12.2078 16.4271 12.5674 16.3786 12.8975 16.2422C13.2749 16.0861 13.5978 15.8207 13.8252 15.4814Z" fill="black"/>
<path d="M19.8252 15.4814C20.024 15.1845 20.142 14.8419 20.169 14.4873L20.1748 14.334C20.1748 13.7848 19.9569 13.2576 19.5684 12.8691C19.2287 12.5295 18.7833 12.3197 18.3096 12.2725L18.1045 12.2627C17.6961 12.2634 17.2957 12.3849 16.9561 12.6123C16.6165 12.8399 16.3513 13.1636 16.1953 13.541C16.0393 13.9187 15.9992 14.3347 16.0791 14.7354C16.1591 15.1359 16.3556 15.504 16.6445 15.793C16.9335 16.0819 17.3021 16.2794 17.7031 16.3594L17.8545 16.3838C18.2078 16.4271 18.5674 16.3786 18.8975 16.2422C19.2749 16.0861 19.5978 15.8207 19.8252 15.4814Z" fill="black"/>
<path d="M10.8252 10.2148C11.0239 9.91816 11.1428 9.57568 11.1699 9.2207L11.1758 9.06738C11.1758 8.58669 11.0079 8.12333 10.7061 7.75488L10.5684 7.60254C10.2287 7.26305 9.78334 7.05307 9.30958 7.00586L9.10451 6.99609C8.69608 6.99677 8.29566 7.11832 7.95607 7.3457C7.61652 7.57331 7.3513 7.897 7.19533 8.27441C7.03924 8.65221 6.99924 9.06802 7.07911 9.46875C7.15901 9.8694 7.35573 10.2374 7.64454 10.5264L7.75685 10.6309C8.02637 10.8631 8.35243 11.0229 8.70314 11.0928C9.10376 11.1726 9.51968 11.1327 9.89747 10.9766C10.2756 10.8203 10.598 10.554 10.8252 10.2148Z" fill="black"/>
<path d="M16.8252 10.2148C17.0238 9.91817 17.1428 9.57568 17.1699 9.2207L17.1758 9.06738C17.1758 8.58651 17.0082 8.12245 16.7061 7.75391L16.5684 7.60254C16.2287 7.26311 15.7833 7.05308 15.3096 7.00586L15.1045 6.99609C14.6961 6.99677 14.2957 7.11832 13.9561 7.3457C13.6165 7.57332 13.3513 7.89699 13.1953 8.27441C13.0392 8.65226 12.9992 9.06799 13.0791 9.46875C13.159 9.86935 13.3553 10.2381 13.6445 10.5273C13.9337 10.8165 14.3026 11.0129 14.7031 11.0928C15.1038 11.1726 15.5197 11.1327 15.8975 10.9766C16.2756 10.8203 16.598 10.554 16.8252 10.2148Z" fill="black"/>
<path d="M13.8262 4.88184C14.0251 4.58476 14.1431 4.24146 14.1699 3.88672L14.1758 3.7334C14.1756 3.18399 13.9565 2.65762 13.5684 2.26953C13.2287 1.92988 12.7834 1.72002 12.3096 1.67285L12.1045 1.66309C11.6961 1.66376 11.2957 1.78531 10.9561 2.0127C10.617 2.24006 10.3514 2.56294 10.1953 2.94043C10.0392 3.31821 9.99934 3.73416 10.0791 4.13477L10.1143 4.2832C10.2093 4.6262 10.3915 4.94025 10.6445 5.19336C10.9338 5.48258 11.3025 5.67893 11.7031 5.75879C12.1038 5.83863 12.5196 5.79871 12.8975 5.64258C13.2749 5.48656 13.5986 5.22158 13.8262 4.88184Z" fill="black"/>
</svg>
