<svg width="24" height="24" viewBox="0 0 24 24" fill="none" xmlns="http://www.w3.org/2000/svg">
<path fill-rule="evenodd" clip-rule="evenodd" d="M3.1044 17.0938C3.786 17.0939 4.43974 17.3648 4.92178 17.8467C5.4039 18.3289 5.67569 18.9832 5.67569 19.665C5.67485 20.1726 5.52358 20.6701 5.24112 21.0918C4.95865 21.5134 4.55677 21.8413 4.0878 22.0352C3.61889 22.2289 3.10296 22.2797 2.60537 22.1807C2.10764 22.0814 1.64981 21.8364 1.29092 21.4775C0.932219 21.1187 0.687994 20.6616 0.588773 20.1641C0.48954 19.6663 0.539457 19.1497 0.733304 18.6807C0.927162 18.2117 1.25605 17.8108 1.67764 17.5283C2.09917 17.246 2.59512 17.0947 3.10244 17.0938H3.1044ZM3.1044 18.5938C2.89371 18.5943 2.68765 18.6572 2.5126 18.7744C2.33728 18.8919 2.20067 19.0588 2.12002 19.2539C2.03939 19.449 2.01821 19.6641 2.05948 19.8711C2.10076 20.0779 2.20244 20.2678 2.35147 20.417C2.50074 20.5662 2.69136 20.6687 2.89834 20.71C3.10528 20.7511 3.32053 20.73 3.51553 20.6494C3.71042 20.5688 3.87761 20.4321 3.99502 20.2568C4.11224 20.0818 4.17507 19.8756 4.17569 19.665L4.16983 19.5586C4.14539 19.3136 4.03681 19.0829 3.86123 18.9072C3.66049 18.7066 3.38817 18.5939 3.1044 18.5938Z" fill="black"/>
<path fill-rule="evenodd" clip-rule="evenodd" d="M9.1044 17.0938C9.78601 17.0939 10.4397 17.3648 10.9218 17.8467C11.4039 18.3289 11.6757 18.9832 11.6757 19.665C11.6748 20.1726 11.5236 20.6701 11.2411 21.0918C10.9586 21.5134 10.5568 21.8413 10.0878 22.0352C9.61888 22.2289 9.10297 22.2797 8.60537 22.1807C8.10764 22.0814 7.64981 21.8364 7.29092 21.4775C6.93222 21.1187 6.68799 20.6616 6.58877 20.1641C6.48954 19.6663 6.53946 19.1497 6.7333 18.6807C6.92716 18.2117 7.25604 17.8108 7.67764 17.5283C8.09917 17.246 8.59512 17.0947 9.10244 17.0938H9.1044ZM9.1044 18.5938C8.8937 18.5943 8.68765 18.6572 8.5126 18.7744C8.33728 18.8919 8.20067 19.0588 8.12002 19.2539C8.03939 19.449 8.01821 19.6641 8.05948 19.8711C8.10076 20.0779 8.20244 20.2678 8.35147 20.417C8.50074 20.5662 8.69136 20.6687 8.89834 20.71C9.10528 20.7511 9.32053 20.73 9.51553 20.6494C9.71043 20.5688 9.8776 20.4321 9.99502 20.2568C10.1122 20.0818 10.1751 19.8756 10.1757 19.665L10.1698 19.5586C10.1454 19.3136 10.0368 19.0829 9.86123 18.9072C9.66048 18.7066 9.38817 18.5939 9.1044 18.5938Z" fill="black"/>
<path fill-rule="evenodd" clip-rule="evenodd" d="M15.1044 17.0938C15.786 17.0939 16.4397 17.3648 16.9218 17.8467C17.4039 18.3289 17.6757 18.9832 17.6757 19.665C17.6748 20.1726 17.5236 20.6701 17.2411 21.0918C16.9586 21.5134 16.5568 21.8413 16.0878 22.0352C15.6189 22.2289 15.103 22.2797 14.6054 22.1807C14.1076 22.0814 13.6498 21.8364 13.2909 21.4775C12.9322 21.1187 12.688 20.6616 12.5888 20.1641C12.4895 19.6663 12.5395 19.1497 12.7333 18.6807C12.9272 18.2117 13.256 17.8108 13.6776 17.5283C14.0992 17.246 14.5951 17.0947 15.1024 17.0938H15.1044ZM15.1044 18.5938C14.8937 18.5943 14.6877 18.6572 14.5126 18.7744C14.3373 18.8919 14.2007 19.0588 14.12 19.2539C14.0394 19.449 14.0182 19.6641 14.0595 19.8711C14.1008 20.0779 14.2024 20.2678 14.3515 20.417C14.5007 20.5662 14.6914 20.6687 14.8983 20.71C15.1053 20.7511 15.3205 20.73 15.5155 20.6494C15.7104 20.5688 15.8776 20.4321 15.995 20.2568C16.1122 20.0818 16.1751 19.8756 16.1757 19.665L16.1698 19.5586C16.1454 19.3136 16.0368 19.0829 15.8612 18.9072C15.6605 18.7066 15.3882 18.5939 15.1044 18.5938Z" fill="black"/>
<path fill-rule="evenodd" clip-rule="evenodd" d="M21.1044 17.0938C21.786 17.0939 22.4397 17.3648 22.9218 17.8467C23.4039 18.3289 23.6757 18.9832 23.6757 19.665C23.6748 20.1726 23.5236 20.6701 23.2411 21.0918C22.9586 21.5134 22.5568 21.8413 22.0878 22.0352C21.6189 22.2289 21.103 22.2797 20.6054 22.1807C20.1076 22.0814 19.6498 21.8364 19.2909 21.4775C18.9322 21.1187 18.688 20.6616 18.5888 20.1641C18.4895 19.6663 18.5395 19.1497 18.7333 18.6807C18.9272 18.2117 19.256 17.8108 19.6776 17.5283C20.0992 17.246 20.5951 17.0947 21.1024 17.0938H21.1044ZM21.1044 18.5938C20.8937 18.5943 20.6877 18.6572 20.5126 18.7744C20.3373 18.8919 20.2007 19.0588 20.12 19.2539C20.0394 19.449 20.0182 19.6641 20.0595 19.8711C20.1008 20.0779 20.2024 20.2678 20.3515 20.417C20.5007 20.5662 20.6914 20.6687 20.8983 20.71C21.1053 20.7511 21.3205 20.73 21.5155 20.6494C21.7104 20.5688 21.8776 20.4321 21.995 20.2568C22.1122 20.0818 22.1751 19.8756 22.1757 19.665L22.1698 19.5586C22.1454 19.3136 22.0368 19.0829 21.8612 18.9072C21.6605 18.7066 21.3882 18.5939 21.1044 18.5938Z" fill="black"/>
<path fill-rule="evenodd" clip-rule="evenodd" d="M6.1044 11.7627C6.786 11.7628 7.43974 12.0337 7.92178 12.5156C8.4039 12.9978 8.67569 13.6521 8.67569 14.334C8.67485 14.8415 8.52358 15.3391 8.24112 15.7607C7.95865 16.1823 7.55677 16.5103 7.0878 16.7041C6.61889 16.8979 6.10296 16.9487 5.60537 16.8496C5.10764 16.7504 4.64981 16.5053 4.29092 16.1465C3.93222 15.7877 3.68799 15.3306 3.58877 14.833C3.48954 14.3352 3.53946 13.8187 3.7333 13.3496C3.92716 12.8807 4.25605 12.4797 4.67764 12.1973C5.09917 11.9149 5.59512 11.7636 6.10244 11.7627H6.1044ZM6.1044 13.2627C5.89371 13.2632 5.68765 13.3261 5.5126 13.4434C5.33728 13.5608 5.20067 13.7278 5.12002 13.9229C5.03939 14.118 5.01821 14.333 5.05948 14.54C5.10076 14.7468 5.20244 14.9368 5.35147 15.0859C5.50074 15.2352 5.69136 15.3376 5.89834 15.3789C6.10528 15.4201 6.32053 15.3989 6.51553 15.3184C6.71042 15.2377 6.87761 15.101 6.99502 14.9258C7.11224 14.7508 7.17507 14.5446 7.17569 14.334L7.16983 14.2275C7.14539 13.9826 7.03681 13.7518 6.86123 13.5762C6.66049 13.3756 6.38817 13.2628 6.1044 13.2627Z" fill="black"/>
<path fill-rule="evenodd" clip-rule="evenodd" d="M12.1044 11.7627C12.786 11.7628 13.4397 12.0337 13.9218 12.5156C14.4039 12.9978 14.6757 13.6522 14.6757 14.334C14.6748 14.8415 14.5236 15.3391 14.2411 15.7607C13.9586 16.1823 13.5568 16.5103 13.0878 16.7041C12.6189 16.8979 12.103 16.9487 11.6054 16.8496C11.1077 16.7504 10.6498 16.5053 10.2909 16.1465C9.93226 15.7877 9.68801 15.3305 9.58877 14.833C9.48954 14.3352 9.53948 13.8187 9.7333 13.3496C9.92716 12.8806 10.256 12.4797 10.6776 12.1973C11.0992 11.9149 11.5951 11.7636 12.1024 11.7627H12.1044ZM12.1044 13.2627C11.8937 13.2632 11.6877 13.3261 11.5126 13.4434C11.3373 13.5608 11.2007 13.7278 11.12 13.9229C11.0394 14.118 11.0182 14.333 11.0595 14.54C11.1008 14.7467 11.2025 14.9368 11.3515 15.0859C11.5007 15.2351 11.6914 15.3377 11.8983 15.3789C12.1053 15.4201 12.3205 15.3989 12.5155 15.3184C12.7104 15.2377 12.8776 15.101 12.995 14.9258C13.1123 14.7508 13.175 14.5446 13.1757 14.334L13.1698 14.2275C13.1454 13.9826 13.0368 13.7518 12.8612 13.5762C12.6605 13.3756 12.3882 13.2628 12.1044 13.2627Z" fill="black"/>
<path fill-rule="evenodd" clip-rule="evenodd" d="M18.1044 11.7627C18.786 11.7628 19.4397 12.0337 19.9218 12.5156C20.4039 12.9978 20.6757 13.6522 20.6757 14.334C20.6748 14.8415 20.5236 15.3391 20.2411 15.7607C19.9586 16.1823 19.5568 16.5103 19.0878 16.7041C18.6189 16.8979 18.103 16.9487 17.6054 16.8496C17.1077 16.7504 16.6498 16.5053 16.2909 16.1465C15.9323 15.7877 15.688 15.3305 15.5888 14.833C15.4895 14.3352 15.5395 13.8187 15.7333 13.3496C15.9272 12.8806 16.256 12.4797 16.6776 12.1973C17.0992 11.9149 17.5951 11.7636 18.1024 11.7627H18.1044ZM18.1044 13.2627C17.8937 13.2632 17.6877 13.3261 17.5126 13.4434C17.3373 13.5608 17.2007 13.7278 17.12 13.9229C17.0394 14.118 17.0182 14.333 17.0595 14.54C17.1008 14.7467 17.2025 14.9368 17.3515 15.0859C17.5007 15.2351 17.6914 15.3377 17.8983 15.3789C18.1053 15.4201 18.3205 15.3989 18.5155 15.3184C18.7104 15.2377 18.8776 15.101 18.995 14.9258C19.1123 14.7508 19.175 14.5446 19.1757 14.334L19.1698 14.2275C19.1454 13.9826 19.0368 13.7518 18.8612 13.5762C18.6605 13.3756 18.3882 13.2628 18.1044 13.2627Z" fill="black"/>
<path fill-rule="evenodd" clip-rule="evenodd" d="M9.1044 6.59668C9.78599 6.59681 10.4397 6.86774 10.9218 7.34961C11.4037 7.83177 11.6757 8.48624 11.6757 9.16797C11.6748 9.67539 11.5235 10.1732 11.2411 10.5947C10.9586 11.0162 10.5568 11.3443 10.0878 11.5381C9.61893 11.7318 9.10292 11.7826 8.60537 11.6836C8.10776 11.5844 7.64977 11.3392 7.29092 10.9805C6.93233 10.6218 6.68805 10.1644 6.58877 9.66699C6.48956 9.1693 6.53957 8.65259 6.7333 8.18359C6.92715 7.71464 7.25604 7.31373 7.67764 7.03125C8.0992 6.74881 8.59505 6.59761 9.10244 6.59668H9.1044ZM9.1044 8.09668C8.89364 8.09723 8.68769 8.16005 8.5126 8.27734C8.33727 8.39482 8.20066 8.56175 8.12002 8.75684C8.0395 8.95188 8.01823 9.16711 8.05948 9.37402C8.10083 9.5806 8.20255 9.77088 8.35147 9.91992C8.5007 10.069 8.69148 10.1717 8.89834 10.2129C9.10524 10.254 9.32057 10.2329 9.51553 10.1523C9.71041 10.0717 9.87758 9.93495 9.99502 9.75977C10.1122 9.58487 10.175 9.37843 10.1757 9.16797L10.1698 9.06152C10.1454 8.81666 10.0367 8.58576 9.86123 8.41016C9.66049 8.20958 9.38816 8.09681 9.1044 8.09668Z" fill="black"/>
<path fill-rule="evenodd" clip-rule="evenodd" d="M15.1044 6.59668C15.786 6.5968 16.4397 6.86772 16.9218 7.34961C17.4038 7.83178 17.6757 8.48619 17.6757 9.16797C17.6748 9.67544 17.5236 10.1731 17.2411 10.5947C16.9586 11.0163 16.5568 11.3443 16.0878 11.5381C15.6189 11.7318 15.103 11.7827 14.6054 11.6836C14.1077 11.5844 13.6498 11.3392 13.2909 10.9805C12.9323 10.6217 12.688 10.1645 12.5888 9.66699C12.4896 9.16927 12.5395 8.65262 12.7333 8.18359C12.9272 7.71463 13.256 7.31373 13.6776 7.03125C14.0992 6.74881 14.5951 6.59761 15.1024 6.59668H15.1044ZM15.1044 8.09668C14.8936 8.09723 14.6877 8.16005 14.5126 8.27734C14.3373 8.39482 14.2007 8.56174 14.12 8.75684C14.0395 8.95191 14.0182 9.16707 14.0595 9.37402C14.1008 9.58066 14.2025 9.77085 14.3515 9.91992C14.5007 10.0691 14.6914 10.1716 14.8983 10.2129C15.1053 10.2541 15.3205 10.2329 15.5155 10.1523C15.7104 10.0717 15.8776 9.93499 15.995 9.75977C16.1122 9.58483 16.175 9.37849 16.1757 9.16797L16.1698 9.06152C16.1454 8.81661 16.0367 8.58578 15.8612 8.41016C15.6605 8.20957 15.3882 8.0968 15.1044 8.09668Z" fill="black"/>
<path fill-rule="evenodd" clip-rule="evenodd" d="M12.1044 1.2627C12.786 1.26282 13.4397 1.53375 13.9218 2.01562C14.4039 2.49781 14.6757 3.15213 14.6757 3.83398C14.6748 4.34153 14.5236 4.83909 14.2411 5.26074C13.9586 5.6823 13.5568 6.01025 13.0878 6.2041C12.6189 6.39786 12.103 6.44869 11.6054 6.34961C11.1076 6.25039 10.6498 6.00532 10.2909 5.64648C9.93222 5.28766 9.68799 4.83059 9.58877 4.33301C9.48954 3.83521 9.53946 3.31869 9.7333 2.84961C9.92716 2.38068 10.256 1.97973 10.6776 1.69727C11.0992 1.4149 11.5951 1.26363 12.1024 1.2627H12.1044ZM12.1044 2.7627C11.8937 2.76324 11.6877 2.82614 11.5126 2.94336C11.3373 3.06082 11.2007 3.22779 11.12 3.42285C11.0394 3.61798 11.0182 3.83301 11.0595 4.04004C11.1008 4.2468 11.2024 4.43679 11.3515 4.58594C11.5007 4.73516 11.6914 4.83765 11.8983 4.87891C12.1053 4.92008 12.3205 4.89894 12.5155 4.81836C12.7104 4.73771 12.8776 4.60102 12.995 4.42578C13.1122 4.25078 13.1751 4.04457 13.1757 3.83398L13.1698 3.72754C13.1454 3.48255 13.0368 3.25181 12.8612 3.07617C12.6605 2.87559 12.3882 2.76282 12.1044 2.7627Z" fill="black"/>
</svg>
