<svg width="24" height="24" viewBox="0 0 24 24" fill="none" xmlns="http://www.w3.org/2000/svg">
<path fill-rule="evenodd" clip-rule="evenodd" d="M22.7002 9.00098C23.1143 9.00108 23.4502 9.33683 23.4502 9.75098C23.4502 10.1651 23.1143 10.5009 22.7002 10.501H21.9502V14.4512C21.9502 15.2787 21.9512 15.9446 21.9072 16.4824C21.8626 17.029 21.7673 17.5089 21.541 17.9531C21.1815 18.6587 20.6079 19.2323 19.9023 19.5918C19.4582 19.8181 18.9782 19.9133 18.4316 19.958C17.8939 20.0019 17.2279 20.001 16.4004 20.001H12C11.1725 20.001 10.5065 20.0019 9.96875 19.958C9.42221 19.9134 8.9422 19.8181 8.49805 19.5918C7.79247 19.2323 7.2189 18.6587 6.85938 17.9531C6.63306 17.5089 6.53782 17.029 6.49316 16.4824C6.44923 15.9446 6.4502 15.2788 6.4502 14.4512V10.501H5.9502C5.53598 10.501 5.2002 10.1652 5.2002 9.75098C5.2002 9.33676 5.53598 9.00098 5.9502 9.00098H22.7002ZM7.9502 14.4512C7.9502 15.3035 7.95049 15.8978 7.98828 16.3604C8.02536 16.8142 8.09469 17.075 8.19531 17.2725C8.41103 17.6958 8.75537 18.0402 9.17871 18.2559C9.3762 18.3564 9.63712 18.4258 10.0908 18.4629C10.5534 18.5007 11.1478 18.501 12 18.501H16.4004C17.2526 18.501 17.847 18.5007 18.3096 18.4629C18.7633 18.4258 19.0242 18.3565 19.2217 18.2559C19.645 18.0401 19.9894 17.6958 20.2051 17.2725C20.3057 17.075 20.375 16.8141 20.4121 16.3604C20.4499 15.8978 20.4502 15.3035 20.4502 14.4512V10.501H7.9502V14.4512Z" fill="black"/>
<path d="M17.5 4.25C17.914 4.25 18.2497 4.58601 18.25 5C18.25 5.41421 17.9142 5.75 17.5 5.75H16.75V8.25098H15.25V5.75H2.75V9.70117C2.75 10.5533 2.7503 11.1478 2.78809 11.6104C2.82518 12.0639 2.89453 12.325 2.99512 12.5225C3.21084 12.9457 3.55528 13.2902 3.97852 13.5059C4.176 13.6064 4.43694 13.6758 4.89062 13.7129C5.12627 13.7321 5.39612 13.7407 5.7168 13.7451C5.72558 14.0521 5.73824 14.3371 5.75977 14.6006C5.77764 14.8192 5.80186 15.034 5.83496 15.2451C5.43249 15.2411 5.07915 15.2334 4.76855 15.208C4.22202 15.1634 3.742 15.068 3.29785 14.8418C2.59237 14.4823 2.01872 13.9086 1.65918 13.2031C1.43293 12.7591 1.33765 12.2788 1.29297 11.7324C1.24904 11.1947 1.25 10.5285 1.25 9.70117V5.75H0.75C0.335796 5.74999 0 5.41421 0 5C0.000266584 4.58602 0.33596 4.25001 0.75 4.25H17.5Z" fill="black"/>
</svg>
