<svg width="24" height="24" viewBox="0 0 24 24" fill="none" xmlns="http://www.w3.org/2000/svg">
<path d="M3.38357 16.8584L3.10428 16.8447H3.10232C2.61564 16.8456 2.13769 16.9725 1.7156 17.2119L1.53787 17.3213C1.13251 17.5929 0.806121 17.9646 0.58865 18.3975L0.502713 18.5869C0.289994 19.1018 0.234754 19.668 0.343533 20.2139C0.45241 20.7596 0.720336 21.2614 1.11404 21.6553L1.26638 21.7969C1.63353 22.1135 2.0779 22.3314 2.55642 22.4268L2.76248 22.46C3.24453 22.5192 3.73417 22.4522 4.18338 22.2666C4.69783 22.0538 5.13818 21.6939 5.44803 21.2314L5.5574 21.0547C5.79691 20.6329 5.92371 20.1553 5.92459 19.668V19.666C5.92459 19.0117 5.69737 18.3803 5.28592 17.8779L5.09842 17.6709C4.63573 17.2084 4.02893 16.9227 3.38357 16.8584Z" fill="black"/>
<path d="M9.38357 16.8584L9.10427 16.8447H9.10232C8.61564 16.8456 8.13769 16.9725 7.7156 17.2119L7.53787 17.3213C7.13251 17.5929 6.80612 17.9646 6.58865 18.3975L6.50271 18.5869C6.28999 19.1018 6.23475 19.668 6.34353 20.2139C6.45241 20.7596 6.72034 21.2614 7.11404 21.6553L7.26638 21.7969C7.63353 22.1135 8.0779 22.3314 8.55642 22.4268L8.76248 22.46C9.24453 22.5192 9.73417 22.4522 10.1834 22.2666C10.6978 22.0538 11.1382 21.6939 11.448 21.2314L11.5574 21.0547C11.7969 20.6329 11.9237 20.1553 11.9246 19.668V19.666C11.9246 19.0117 11.6974 18.3803 11.2859 17.8779L11.0984 17.6709C10.6357 17.2084 10.0289 16.9227 9.38357 16.8584Z" fill="black"/>
<path d="M15.3836 16.8584L15.1043 16.8447H15.1023C14.6156 16.8456 14.1377 16.9725 13.7156 17.2119L13.5379 17.3213C13.1325 17.5929 12.8061 17.9646 12.5886 18.3975L12.5027 18.5869C12.29 19.1018 12.2348 19.668 12.3435 20.2139C12.4524 20.7596 12.7203 21.2614 13.114 21.6553L13.2664 21.7969C13.6335 22.1135 14.0779 22.3314 14.5564 22.4268L14.7625 22.46C15.2445 22.5192 15.7342 22.4522 16.1834 22.2666C16.6978 22.0538 17.1382 21.6939 17.448 21.2314L17.5574 21.0547C17.7969 20.6329 17.9237 20.1553 17.9246 19.668V19.666C17.9246 19.0117 17.6974 18.3803 17.2859 17.8779L17.0984 17.6709C16.6357 17.2084 16.0289 16.9227 15.3836 16.8584Z" fill="black"/>
<path d="M21.3836 16.8584L21.1043 16.8447H21.1023C20.6156 16.8456 20.1377 16.9725 19.7156 17.2119L19.5379 17.3213C19.1325 17.5929 18.8061 17.9646 18.5886 18.3975L18.5027 18.5869C18.29 19.1018 18.2348 19.668 18.3435 20.2139C18.4524 20.7596 18.7203 21.2614 19.114 21.6553L19.2664 21.7969C19.6335 22.1135 20.0779 22.3314 20.5564 22.4268L20.7625 22.46C21.2445 22.5192 21.7342 22.4522 22.1834 22.2666C22.6978 22.0538 23.1382 21.6939 23.448 21.2314L23.5574 21.0547C23.7969 20.6329 23.9237 20.1553 23.9246 19.668V19.666C23.9246 19.0117 23.6974 18.3803 23.2859 17.8779L23.0984 17.6709C22.6357 17.2084 22.0289 16.9227 21.3836 16.8584Z" fill="black"/>
<path d="M6.38357 11.5273L6.10428 11.5137H6.10232C5.61564 11.5145 5.13769 11.6414 4.7156 11.8809L4.53787 11.9902C4.13251 12.2619 3.80612 12.6336 3.58865 13.0664L3.50271 13.2559C3.28999 13.7708 3.23475 14.337 3.34353 14.8828C3.45241 15.4286 3.72034 15.9304 4.11404 16.3242L4.26638 16.4658C4.63353 16.7825 5.0779 17.0003 5.55642 17.0957L5.76248 17.1289C6.24453 17.1881 6.73417 17.1212 7.18338 16.9355C7.69783 16.7228 8.13818 16.3628 8.44802 15.9004L8.5574 15.7236C8.79691 15.3019 8.92371 14.8242 8.92459 14.3369V14.335C8.92459 13.6807 8.69737 13.0492 8.28592 12.5469L8.09842 12.3398C7.63573 11.8773 7.02893 11.5916 6.38357 11.5273Z" fill="black"/>
<path d="M12.3836 11.5273L12.1043 11.5137H12.1023C11.6156 11.5145 11.1377 11.6414 10.7156 11.8809L10.5379 11.9902C10.1326 12.2619 9.80613 12.6335 9.58865 13.0664L9.50271 13.2559C9.29009 13.7706 9.23475 14.337 9.34353 14.8828C9.45242 15.4284 9.72022 15.9303 10.114 16.3242C10.5075 16.7176 11.0096 16.9867 11.5564 17.0957L11.7625 17.1289C12.2445 17.1881 12.7342 17.1212 13.1834 16.9355C13.6979 16.7228 14.1382 16.3627 14.448 15.9004L14.5574 15.7236C14.7969 15.3019 14.9237 14.8241 14.9246 14.3369V14.335C14.9246 13.5872 14.6278 12.8693 14.0984 12.3398C13.6357 11.8772 13.0289 11.5916 12.3836 11.5273Z" fill="black"/>
<path d="M18.3836 11.5273L18.1043 11.5137H18.1023C17.6156 11.5145 17.1377 11.6414 16.7156 11.8809L16.5379 11.9902C16.1326 12.2619 15.8061 12.6335 15.5886 13.0664L15.5027 13.2559C15.2901 13.7706 15.2348 14.337 15.3435 14.8828C15.4524 15.4284 15.7202 15.9303 16.114 16.3242C16.5075 16.7176 17.0096 16.9867 17.5564 17.0957L17.7625 17.1289C18.2445 17.1881 18.7342 17.1212 19.1834 16.9355C19.6979 16.7228 20.1382 16.3627 20.448 15.9004L20.5574 15.7236C20.7969 15.3019 20.9237 14.8241 20.9246 14.3369V14.335C20.9246 13.5872 20.6278 12.8693 20.0984 12.3398C19.6357 11.8772 19.0289 11.5916 18.3836 11.5273Z" fill="black"/>
<path d="M9.38357 6.26074L9.10427 6.24707H9.10232C8.61564 6.24793 8.13769 6.37481 7.7156 6.61426L7.53787 6.72363C7.07462 7.03408 6.71508 7.47539 6.50271 7.98926C6.28996 8.50421 6.23475 9.07039 6.34353 9.61621C6.4524 10.1621 6.72048 10.6639 7.11404 11.0576L7.26638 11.1992C7.63353 11.5158 8.0779 11.7337 8.55642 11.8291C9.10195 11.9377 9.66824 11.8828 10.1834 11.6699C10.6997 11.4565 11.139 11.095 11.448 10.6338C11.7569 10.1727 11.9246 9.62899 11.9256 9.07031V9.06836C11.9256 8.41301 11.6969 7.78184 11.2859 7.28027L11.0984 7.07324C10.6358 6.61084 10.029 6.32503 9.38357 6.26074Z" fill="black"/>
<path d="M15.3836 6.26074L15.1043 6.24707H15.1023C14.6156 6.24793 14.1377 6.37481 13.7156 6.61426L13.5379 6.72363C13.0745 7.03412 12.7151 7.47539 12.5027 7.98926C12.2899 8.50434 12.2348 9.0704 12.3435 9.61621C12.4522 10.1614 12.7194 10.664 13.114 11.0586C13.5086 11.453 14.0112 11.7204 14.5564 11.8291C15.102 11.9378 15.6682 11.8828 16.1834 11.6699C16.6996 11.4566 17.139 11.0951 17.448 10.6338C17.7569 10.1727 17.9246 9.62901 17.9256 9.07031V9.06836C17.9255 8.41316 17.6969 7.78186 17.2859 7.28027L17.0984 7.07324C16.6358 6.61094 16.029 6.32504 15.3836 6.26074Z" fill="black"/>
<path d="M12.3836 0.927734L12.1043 0.914062H12.1023C11.6156 0.914919 11.1377 1.0418 10.7156 1.28125L10.5379 1.39062C10.076 1.7003 9.71551 2.14056 9.50271 2.65527C9.28983 3.17042 9.2349 3.73673 9.34353 4.28223L9.39138 4.48438C9.52075 4.95131 9.76879 5.3793 10.114 5.72461C10.5087 6.11922 11.0112 6.38644 11.5564 6.49512C12.1021 6.60384 12.6683 6.54881 13.1834 6.33594C13.6971 6.1236 14.1384 5.76431 14.449 5.30078C14.7592 4.83771 14.9246 4.29263 14.9256 3.73633V3.73438C14.9254 2.98524 14.6265 2.2683 14.0984 1.74023C13.6357 1.27757 13.029 0.991974 12.3836 0.927734Z" fill="black"/>
</svg>
