<svg width="24" height="24" viewBox="0 0 24 24" fill="none" xmlns="http://www.w3.org/2000/svg">
<path d="M3.3338 17.3555L3.1043 17.3438C2.70365 17.3444 2.30896 17.4484 1.96172 17.6455L1.81622 17.7363C1.43554 17.9915 1.13945 18.3536 0.964655 18.7764C0.789706 19.1999 0.744287 19.6661 0.833795 20.1152C0.923366 20.5642 1.14377 20.9769 1.46758 21.3008L1.59258 21.417C1.89478 21.6777 2.26049 21.8571 2.65411 21.9355L2.82305 21.9629C3.21946 22.0116 3.62301 21.9566 3.99297 21.8037C4.41595 21.6287 4.77722 21.3324 5.03204 20.9521L5.12286 20.8066C5.3198 20.4598 5.42391 20.0668 5.42462 19.666C5.42462 19.1275 5.2378 18.6066 4.89923 18.1934L4.74493 18.0234C4.3642 17.6428 3.86484 17.4083 3.3338 17.3555Z" fill="black"/>
<path d="M9.3338 17.3555L9.1043 17.3438C8.70365 17.3444 8.30896 17.4484 7.96173 17.6455L7.81622 17.7363C7.43554 17.9915 7.13945 18.3536 6.96465 18.7764C6.78971 19.1999 6.74429 19.6661 6.8338 20.1152C6.92337 20.5642 7.14377 20.9769 7.46758 21.3008L7.59258 21.417C7.89478 21.6777 8.26049 21.8571 8.65411 21.9355L8.82305 21.9629C9.21946 22.0116 9.62301 21.9566 9.99298 21.8037C10.4159 21.6287 10.7772 21.3324 11.032 20.9521L11.1229 20.8066C11.3198 20.4598 11.4239 20.0668 11.4246 19.666C11.4246 19.1275 11.2378 18.6066 10.8992 18.1934L10.7449 18.0234C10.3642 17.6428 9.86484 17.4083 9.3338 17.3555Z" fill="black"/>
<path d="M15.3338 17.3555L15.1043 17.3438C14.7036 17.3444 14.309 17.4484 13.9617 17.6455L13.8162 17.7363C13.4355 17.9915 13.1394 18.3536 12.9647 18.7764C12.7897 19.1999 12.7443 19.6661 12.8338 20.1152C12.9234 20.5642 13.1438 20.9769 13.4676 21.3008L13.5926 21.417C13.8948 21.6777 14.2605 21.8571 14.6541 21.9355L14.8231 21.9629C15.2195 22.0116 15.623 21.9566 15.993 21.8037C16.4159 21.6287 16.7772 21.3324 17.032 20.9521L17.1229 20.8066C17.3198 20.4598 17.4239 20.0668 17.4246 19.666C17.4246 19.1275 17.2378 18.6066 16.8992 18.1934L16.7449 18.0234C16.3642 17.6428 15.8648 17.4083 15.3338 17.3555Z" fill="black"/>
<path d="M21.3338 17.3555L21.1043 17.3438C20.7036 17.3444 20.309 17.4484 19.9617 17.6455L19.8162 17.7363C19.4355 17.9915 19.1394 18.3536 18.9647 18.7764C18.7897 19.1999 18.7443 19.6661 18.8338 20.1152C18.9234 20.5642 19.1438 20.9769 19.4676 21.3008L19.5926 21.417C19.8948 21.6777 20.2605 21.8571 20.6541 21.9355L20.8231 21.9629C21.2195 22.0116 21.623 21.9566 21.993 21.8037C22.4159 21.6287 22.7772 21.3324 23.032 20.9521L23.1229 20.8066C23.3198 20.4598 23.4239 20.0668 23.4246 19.666C23.4246 19.1275 23.2378 18.6066 22.8992 18.1934L22.7449 18.0234C22.3642 17.6428 21.8648 17.4083 21.3338 17.3555Z" fill="black"/>
<path d="M6.3338 12.0244L6.1043 12.0127C5.70365 12.0134 5.30896 12.1174 4.96173 12.3145L4.81622 12.4053C4.43554 12.6604 4.13945 13.0226 3.96465 13.4453C3.78971 13.8688 3.74429 14.3351 3.8338 14.7842C3.92337 15.2332 4.14377 15.6458 4.46758 15.9697L4.59258 16.0859C4.89478 16.3467 5.26049 16.526 5.65411 16.6045L5.82305 16.6318C6.21946 16.6806 6.62301 16.6255 6.99298 16.4727C7.41595 16.2977 7.77722 16.0013 8.03204 15.6211L8.12286 15.4756C8.3198 15.1287 8.42391 14.7358 8.42462 14.335C8.42462 13.7964 8.2378 13.2756 7.89923 12.8623L7.74493 12.6924C7.3642 12.3118 6.86484 12.0773 6.3338 12.0244Z" fill="black"/>
<path d="M12.3338 12.0244L12.1043 12.0127C11.7036 12.0134 11.309 12.1174 10.9617 12.3145L10.8162 12.4053C10.4356 12.6604 10.1394 13.0226 9.96465 13.4453C9.78978 13.8687 9.74429 14.3351 9.8338 14.7842C9.92338 15.2331 10.1437 15.6458 10.4676 15.9697C10.7913 16.2935 11.2045 16.5149 11.6541 16.6045L11.8231 16.6318C12.2194 16.6806 12.623 16.6255 12.993 16.4727C13.416 16.2977 13.7772 16.0012 14.032 15.6211L14.1229 15.4756C14.3198 15.1287 14.4239 14.7357 14.4246 14.335C14.4246 13.7196 14.1804 13.1279 13.7449 12.6924C13.3642 12.3117 12.8648 12.0773 12.3338 12.0244Z" fill="black"/>
<path d="M18.3338 12.0244L18.1043 12.0127C17.7036 12.0134 17.309 12.1174 16.9617 12.3145L16.8162 12.4053C16.4356 12.6604 16.1394 13.0226 15.9647 13.4453C15.7898 13.8687 15.7443 14.3351 15.8338 14.7842C15.9234 15.2331 16.1437 15.6458 16.4676 15.9697C16.7913 16.2935 17.2045 16.5149 17.6541 16.6045L17.8231 16.6318C18.2194 16.6806 18.623 16.6255 18.993 16.4727C19.416 16.2977 19.7772 16.0012 20.032 15.6211L20.1229 15.4756C20.3198 15.1287 20.4239 14.7357 20.4246 14.335C20.4246 13.7196 20.1804 13.1279 19.7449 12.6924C19.3642 12.3117 18.8648 12.0773 18.3338 12.0244Z" fill="black"/>
<path d="M9.3338 6.75781L9.1043 6.74609C8.70365 6.74678 8.30896 6.85079 7.96173 7.04785L7.81622 7.13867C7.43555 7.39381 7.13945 7.75598 6.96465 8.17871C6.78968 8.60222 6.74429 9.06848 6.8338 9.51758C6.92335 9.96665 7.14385 10.3792 7.46758 10.7031L7.59258 10.8193C7.89478 11.0801 8.26049 11.2594 8.65411 11.3379C9.10303 11.4273 9.5694 11.3821 9.99298 11.207C10.4169 11.0317 10.7776 10.7341 11.032 10.3545C11.2865 9.97467 11.4248 9.52739 11.4256 9.06836C11.4256 8.52928 11.2377 8.00859 10.8992 7.5957L10.7449 7.42578C10.3642 7.04526 9.86487 6.81067 9.3338 6.75781Z" fill="black"/>
<path d="M15.3338 6.75781L15.1043 6.74609C14.7036 6.74678 14.309 6.85079 13.9617 7.04785L13.8162 7.13867C13.4355 7.39383 13.1394 7.75598 12.9647 8.17871C12.7896 8.60231 12.7443 9.06847 12.8338 9.51758C12.9233 9.96637 13.1432 10.3797 13.4676 10.7041C13.7919 11.0283 14.2053 11.2484 14.6541 11.3379C15.1031 11.4273 15.5694 11.3821 15.993 11.207C16.4169 11.0317 16.7776 10.7342 17.032 10.3545C17.2865 9.97469 17.4248 9.52739 17.4256 9.06836C17.4255 8.52938 17.2377 8.00859 16.8992 7.5957L16.7449 7.42578C16.3643 7.04534 15.8649 6.81068 15.3338 6.75781Z" fill="black"/>
<path d="M12.3338 1.4248L12.1043 1.41309C11.7036 1.41377 11.309 1.51778 10.9617 1.71484L10.8162 1.80566C10.4363 2.0604 10.1397 2.42164 9.96465 2.84473C9.78962 3.2683 9.7444 3.73469 9.8338 4.18359L9.87286 4.35059C9.97937 4.73469 10.1839 5.0864 10.4676 5.37012C10.7919 5.69447 11.2053 5.91444 11.6541 6.00391C12.1031 6.09338 12.5694 6.04809 12.993 5.87305C13.4156 5.69826 13.7778 5.40229 14.033 5.02148C14.2881 4.64067 14.4248 4.19222 14.4256 3.73438C14.4254 3.11839 14.1797 2.52752 13.7449 2.09277C13.3641 1.71205 12.8649 1.47761 12.3338 1.4248Z" fill="black"/>
</svg>
