<svg width="24" height="24" viewBox="0 0 24 24" fill="none" xmlns="http://www.w3.org/2000/svg">
<path fill-rule="evenodd" clip-rule="evenodd" d="M22.7002 8.5C23.3905 8.50011 23.9502 9.05971 23.9502 9.75C23.9502 10.4403 23.3905 10.9999 22.7002 11H22.4502V14.4502C22.4502 15.2696 22.4513 15.9595 22.4053 16.5225C22.3581 17.0999 22.2555 17.6533 21.9873 18.1797C21.5799 18.9793 20.9295 19.6296 20.1299 20.0371C19.6036 20.3053 19.05 20.4079 18.4727 20.4551C17.9098 20.5011 17.2197 20.5 16.4004 20.5H12C11.1807 20.5 10.4906 20.5011 9.92773 20.4551C9.35033 20.4079 8.79683 20.3052 8.27051 20.0371C7.47088 19.6297 6.82054 18.9793 6.41309 18.1797C6.14489 17.6533 6.04232 17.0999 5.99512 16.5225C5.94912 15.9595 5.9502 15.2696 5.9502 14.4502V11C5.25984 11 4.7002 10.4404 4.7002 9.75C4.7002 9.05964 5.25984 8.5 5.9502 8.5H22.7002ZM8.4502 14.4502C8.4502 15.3107 8.45158 15.8809 8.4873 16.3184C8.52186 16.7413 8.58189 16.9296 8.64062 17.0449C8.80838 17.374 9.07619 17.6418 9.40527 17.8096C9.52057 17.8683 9.70908 17.9284 10.1318 17.9629C10.5693 17.9986 11.1397 18 12 18H16.4004C17.2607 18 17.8311 17.9986 18.2686 17.9629C18.6914 17.9283 18.8799 17.8683 18.9951 17.8096C19.3241 17.6418 19.592 17.374 19.7598 17.0449C19.8185 16.9296 19.8785 16.7412 19.9131 16.3184C19.9488 15.8809 19.9502 15.3106 19.9502 14.4502V11H8.4502V14.4502Z" fill="black"/>
<path d="M18 3.75C18.6904 3.75 19.25 4.30964 19.25 5C19.2497 5.69013 18.6902 6.25 18 6.25H17.75V7H15.25V6.25H3.75V9.7002C3.75 10.5604 3.75139 11.131 3.78711 11.5684C3.82167 11.991 3.88171 12.1797 3.94043 12.2949C4.06313 12.5355 4.23954 12.7433 4.4541 12.9033C4.45841 13.5633 4.47017 14.1687 4.51367 14.7012C4.53843 15.0042 4.57455 15.3149 4.63184 15.6299C4.26713 15.5652 3.91288 15.4616 3.57031 15.2871C2.77079 14.8797 2.12036 14.2292 1.71289 13.4297C1.44477 12.9035 1.34214 12.3497 1.29492 11.7725C1.24894 11.2097 1.25 10.5194 1.25 9.7002V6.25C0.55981 6.24999 0.000260978 5.69013 0 5C0 4.30965 0.559649 3.75001 1.25 3.75H18Z" fill="black"/>
</svg>
