<svg width="24" height="24" viewBox="0 0 24 24" fill="none" xmlns="http://www.w3.org/2000/svg">
<path d="M3.3712 16.9824L3.1046 16.9688C2.57279 16.9696 2.05013 17.1283 1.60753 17.4248C1.16497 17.7215 0.821196 18.1427 0.618268 18.6338C0.415022 19.1258 0.361991 19.6669 0.465924 20.1885C0.569939 20.7099 0.826234 21.1891 1.20225 21.5654C1.57826 21.9414 2.05863 22.1995 2.58116 22.3037L2.77842 22.335C3.23886 22.3914 3.70663 22.3277 4.13585 22.1504L4.31749 22.0674C4.73105 21.8593 5.08485 21.5476 5.34385 21.1611C5.64003 20.7191 5.79891 20.199 5.79991 19.667V19.665C5.79991 18.9504 5.51677 18.2637 5.01085 17.7578C4.56865 17.3159 3.98786 17.0438 3.3712 16.9824Z" fill="black"/>
<path d="M9.3712 16.9824L9.1046 16.9688C8.57279 16.9696 8.05013 17.1283 7.60753 17.4248C7.16497 17.7215 6.8212 18.1427 6.61827 18.6338C6.41502 19.1258 6.36199 19.6669 6.46592 20.1885C6.56994 20.7099 6.82623 21.1891 7.20225 21.5654C7.57826 21.9414 8.05863 22.1995 8.58116 22.3037L8.77842 22.335C9.23886 22.3914 9.70663 22.3277 10.1358 22.1504L10.3175 22.0674C10.7311 21.8593 11.0849 21.5476 11.3439 21.1611C11.64 20.7191 11.7989 20.199 11.7999 19.667V19.665C11.7999 18.9504 11.5168 18.2637 11.0108 17.7578C10.5686 17.3159 9.98787 17.0438 9.3712 16.9824Z" fill="black"/>
<path d="M15.3712 16.9824L15.1046 16.9688C14.5728 16.9696 14.0501 17.1283 13.6075 17.4248C13.165 17.7215 12.8212 18.1427 12.6183 18.6338C12.415 19.1258 12.362 19.6669 12.4659 20.1885C12.5699 20.7099 12.8262 21.1891 13.2023 21.5654C13.5783 21.9414 14.0586 22.1995 14.5812 22.3037L14.7784 22.335C15.2389 22.3914 15.7066 22.3277 16.1358 22.1504L16.3175 22.0674C16.7311 21.8593 17.0849 21.5476 17.3439 21.1611C17.64 20.7191 17.7989 20.199 17.7999 19.667V19.665C17.7999 18.9504 17.5168 18.2637 17.0108 17.7578C16.5686 17.3159 15.9879 17.0438 15.3712 16.9824Z" fill="black"/>
<path d="M21.3712 16.9824L21.1046 16.9688C20.5728 16.9696 20.0501 17.1283 19.6075 17.4248C19.165 17.7215 18.8212 18.1427 18.6183 18.6338C18.415 19.1258 18.362 19.6669 18.4659 20.1885C18.5699 20.7099 18.8262 21.1891 19.2023 21.5654C19.5783 21.9414 20.0586 22.1995 20.5812 22.3037L20.7784 22.335C21.2389 22.3914 21.7066 22.3277 22.1358 22.1504L22.3175 22.0674C22.7311 21.8593 23.0849 21.5476 23.3439 21.1611C23.64 20.7191 23.7989 20.199 23.7999 19.667V19.665C23.7999 18.9504 23.5168 18.2637 23.0108 17.7578C22.5686 17.3159 21.9879 17.0438 21.3712 16.9824Z" fill="black"/>
<path d="M6.3712 11.6514L6.1046 11.6377C5.57279 11.6386 5.05013 11.7972 4.60753 12.0938C4.16497 12.3904 3.8212 12.8117 3.61827 13.3027C3.41502 13.7947 3.36199 14.3358 3.46592 14.8574C3.56994 15.3788 3.82623 15.8581 4.20225 16.2344C4.57826 16.6104 5.05863 16.8685 5.58116 16.9727L5.77842 17.0039C6.23886 17.0604 6.70663 16.9967 7.13585 16.8193L7.31749 16.7363C7.73105 16.5282 8.08485 16.2165 8.34385 15.8301C8.64003 15.388 8.79891 14.868 8.79991 14.3359V14.334C8.79991 13.6193 8.51678 12.9327 8.01085 12.4268C7.56865 11.9849 6.98786 11.7127 6.3712 11.6514Z" fill="black"/>
<path d="M12.3712 11.6514L12.1046 11.6377C11.5728 11.6386 11.0501 11.7972 10.6075 12.0938C10.165 12.3904 9.8212 12.8117 9.61827 13.3027C9.4151 13.7946 9.36199 14.3358 9.46592 14.8574C9.56999 15.3789 9.82592 15.8589 10.2023 16.2354C10.5783 16.6114 11.0586 16.8685 11.5812 16.9727L11.7784 17.0039C12.2388 17.0604 12.7066 16.9967 13.1358 16.8193L13.3175 16.7363C13.7311 16.5282 14.0849 16.2164 14.3439 15.8301C14.64 15.388 14.7989 14.8678 14.7999 14.3359V14.334C14.7999 13.6193 14.5168 12.9327 14.0108 12.4268C13.5686 11.9846 12.988 11.7127 12.3712 11.6514Z" fill="black"/>
<path d="M18.3712 11.6514L18.1046 11.6377C17.5728 11.6386 17.0501 11.7972 16.6075 12.0938C16.165 12.3904 15.8212 12.8117 15.6183 13.3027C15.4151 13.7946 15.362 14.3358 15.4659 14.8574C15.57 15.3789 15.8259 15.8589 16.2023 16.2354C16.5783 16.6114 17.0586 16.8685 17.5812 16.9727L17.7784 17.0039C18.2388 17.0604 18.7066 16.9967 19.1358 16.8193L19.3175 16.7363C19.7311 16.5282 20.0849 16.2164 20.3439 15.8301C20.64 15.388 20.7989 14.8678 20.7999 14.3359V14.334C20.7999 13.6193 20.5168 12.9327 20.0108 12.4268C19.5686 11.9846 18.988 11.7127 18.3712 11.6514Z" fill="black"/>
<path d="M9.3712 6.38477L9.1046 6.37109C8.57279 6.37197 8.05013 6.53062 7.60753 6.82715C7.16499 7.1238 6.8212 7.54507 6.61827 8.03613C6.415 8.52818 6.36199 9.06923 6.46592 9.59082C6.56993 10.1124 6.82634 10.5915 7.20225 10.9678C7.57826 11.3438 8.05863 11.6019 8.58116 11.7061C9.10247 11.8099 9.64365 11.7571 10.1358 11.5537C10.629 11.3499 11.0485 11.0042 11.3439 10.5635C11.6392 10.1226 11.8 9.60225 11.8009 9.06836C11.8009 8.3525 11.5159 7.66524 11.0108 7.16016C10.5687 6.71838 9.98794 6.44614 9.3712 6.38477Z" fill="black"/>
<path d="M15.3712 6.38477L15.1046 6.37109C14.5728 6.37197 14.0501 6.53062 13.6075 6.82715C13.1649 7.12382 12.8212 7.54508 12.6183 8.03613C12.4149 8.52828 12.362 9.06927 12.4659 9.59082C12.5698 10.1119 12.8252 10.5927 13.2023 10.9697C13.5792 11.3466 14.0601 11.6022 14.5812 11.7061C15.1025 11.8099 15.6437 11.7571 16.1358 11.5537C16.6289 11.3499 17.0484 11.0042 17.3439 10.5635C17.6392 10.1226 17.8 9.60225 17.8009 9.06836C17.8008 8.35266 17.5159 7.66524 17.0108 7.16016C16.5687 6.71845 15.988 6.44615 15.3712 6.38477Z" fill="black"/>
<path d="M12.3712 1.05176L12.1046 1.03809C11.5728 1.03897 11.0501 1.19761 10.6075 1.49414C10.1661 1.79009 9.82159 2.21034 9.61827 2.70215C9.4149 3.19435 9.36212 3.73555 9.46592 4.25684L9.51182 4.4502C9.63547 4.89645 9.87238 5.30582 10.2023 5.63574C10.5793 6.01279 11.0601 6.2682 11.5812 6.37207C12.1026 6.47595 12.6437 6.42308 13.1358 6.21973C13.6267 6.01683 14.0481 5.67319 14.3448 5.23047C14.6414 4.78788 14.8 4.26618 14.8009 3.73438C14.8007 3.01852 14.5156 2.33188 14.0108 1.82715C13.5686 1.38492 12.9881 1.1131 12.3712 1.05176Z" fill="black"/>
</svg>
