<svg width="24" height="24" viewBox="0 0 24 24" fill="none" xmlns="http://www.w3.org/2000/svg">
<path d="M22.7002 9C23.1144 9.00001 23.4502 9.33579 23.4502 9.75C23.4502 10.1642 23.1144 10.5 22.7002 10.5H21.9502V14.5029C21.9502 15.3061 21.9502 15.9551 21.9072 16.4814C21.8626 17.0281 21.7673 17.508 21.541 17.9521C21.1815 18.6578 20.6079 19.2313 19.9023 19.5908C19.4581 19.8171 18.9782 19.9124 18.4316 19.957C17.9053 20 17.2563 20 16.4531 20H11.9473C11.1441 20 10.4951 20 9.96875 19.957C9.42215 19.9124 8.94224 19.8171 8.49805 19.5908C7.79244 19.2313 7.2189 18.6578 6.85938 17.9521C6.63306 17.5079 6.53782 17.0281 6.49316 16.4814C6.45016 15.9551 6.45018 15.3061 6.4502 14.5029V10.5H5.9502C5.53598 10.5 5.2002 10.1642 5.2002 9.75C5.2002 9.33579 5.53598 9 5.9502 9H22.7002Z" fill="black"/>
<path d="M17.5 4.24902C17.914 4.24902 18.2497 4.58504 18.25 4.99902C18.25 5.41324 17.9142 5.74902 17.5 5.74902H16.75V8.5H5.9502C5.25984 8.5 4.7002 9.05964 4.7002 9.75C4.7002 10.4404 5.25984 11 5.9502 11V14.4502C5.9502 14.7303 5.95145 14.9952 5.95312 15.2451C5.5013 15.2417 5.10915 15.2349 4.76855 15.207C4.22203 15.1624 3.742 15.0671 3.29785 14.8408C2.59235 14.4813 2.01871 13.9076 1.65918 13.2021C1.43293 12.7581 1.33764 12.2779 1.29297 11.7314C1.24998 11.2052 1.24998 10.5559 1.25 9.75293V5.74902H0.75C0.33588 5.74891 0 5.41317 0 4.99902C0.000266738 4.5851 0.336045 4.24913 0.75 4.24902H17.5Z" fill="black"/>
</svg>
