<svg width="24" height="24" viewBox="0 0 24 24" fill="none" xmlns="http://www.w3.org/2000/svg">
<path fill-rule="evenodd" clip-rule="evenodd" d="M22.7002 9.25098C22.9763 9.25108 23.2002 9.4749 23.2002 9.75098C23.2002 10.0271 22.9763 10.2509 22.7002 10.251H21.7002V14.4512C21.7002 15.2828 21.7001 15.9366 21.6572 16.4619C21.6138 16.9931 21.5237 17.4368 21.3184 17.8398C20.9828 18.4983 20.4475 19.0336 19.7891 19.3691C19.386 19.5745 18.9422 19.6646 18.4111 19.708C17.8859 19.7509 17.232 19.751 16.4004 19.751H12C11.1684 19.751 10.5145 19.7509 9.98926 19.708C9.45815 19.6646 9.01439 19.5745 8.61133 19.3691C7.95284 19.0336 7.41758 18.4983 7.08203 17.8398C6.87664 17.4367 6.78656 16.9931 6.74316 16.4619C6.70026 15.9366 6.7002 15.2828 6.7002 14.4512V10.251H5.9502C5.67405 10.251 5.4502 10.0271 5.4502 9.75098C5.4502 9.47483 5.67405 9.25098 5.9502 9.25098H22.7002ZM7.7002 14.4512C7.7002 15.2994 7.70044 15.9057 7.73926 16.3809C7.7776 16.85 7.85114 17.1472 7.97266 17.3857C8.21234 17.8561 8.59505 18.2388 9.06543 18.4785C9.30398 18.6 9.6013 18.6736 10.0703 18.7119C10.5454 18.7507 11.1519 18.751 12 18.751H16.4004C17.2485 18.751 17.855 18.7507 18.3301 18.7119C18.7991 18.6736 19.0964 18.6 19.335 18.4785C19.8053 18.2388 20.1881 17.8561 20.4277 17.3857C20.5492 17.1472 20.6228 16.8499 20.6611 16.3809C20.7 15.9057 20.7002 15.2994 20.7002 14.4512V10.251H7.7002V14.4512Z" fill="black"/>
<path d="M17.25 4.5C17.526 4.5 17.7497 4.72408 17.75 5C17.75 5.27614 17.5261 5.5 17.25 5.5H16.25V8.50098H15.25V5.5H2.25V9.70117C2.25 10.5491 2.25025 11.1558 2.28906 11.6309C2.32741 12.0997 2.40098 12.3973 2.52246 12.6357C2.76216 13.106 3.14496 13.4889 3.61523 13.7285C3.85378 13.85 4.15112 13.9236 4.62012 13.9619C4.97998 13.9913 5.41515 13.9953 5.97363 13.9971C5.98193 14.2025 5.9938 14.3967 6.00879 14.5801C6.02037 14.7218 6.03527 14.861 6.05273 14.998C5.45133 14.9966 4.9549 14.992 4.53906 14.958C4.00796 14.9146 3.56419 14.8245 3.16113 14.6191C2.50274 14.2837 1.9674 13.7482 1.63184 13.0898C1.42651 12.6869 1.33638 12.2429 1.29297 11.7119C1.25007 11.1867 1.25 10.5326 1.25 9.70117V5.5H0.5C0.223871 5.49998 0 5.27613 0 5C0.000267021 4.72409 0.224036 4.50002 0.5 4.5H17.25Z" fill="black"/>
</svg>
