<svg width="24" height="24" viewBox="0 0 24 24" fill="none" xmlns="http://www.w3.org/2000/svg">
<path d="M3.33386 17.3564L3.10436 17.3447C2.70371 17.3454 2.30902 17.4494 1.96179 17.6465L1.81628 17.7373C1.4356 17.9925 1.13951 18.3546 0.964716 18.7773C0.789767 19.2008 0.744348 19.6671 0.833856 20.1162C0.923427 20.5652 1.14383 20.9778 1.46765 21.3018L1.59265 21.418C1.89484 21.6787 2.26055 21.8581 2.65417 21.9365L2.82311 21.9639C3.21952 22.0126 3.62307 21.9576 3.99304 21.8047C4.41601 21.6297 4.77728 21.3333 5.0321 20.9531L5.12292 20.8076C5.31986 20.4607 5.42397 20.0678 5.42468 19.667C5.42468 19.1284 5.23786 18.6076 4.89929 18.1943L4.74499 18.0244C4.36426 17.6438 3.8649 17.4093 3.33386 17.3564Z" fill="black"/>
<path d="M9.33386 17.3564L9.10436 17.3447C8.70371 17.3454 8.30902 17.4494 7.96179 17.6465L7.81628 17.7373C7.4356 17.9925 7.13951 18.3546 6.96472 18.7773C6.78977 19.2008 6.74435 19.6671 6.83386 20.1162C6.92343 20.5652 7.14383 20.9778 7.46765 21.3018L7.59265 21.418C7.89484 21.6787 8.26055 21.8581 8.65417 21.9365L8.82311 21.9639C9.21952 22.0126 9.62307 21.9576 9.99304 21.8047C10.416 21.6297 10.7773 21.3333 11.0321 20.9531L11.1229 20.8076C11.3199 20.4607 11.424 20.0678 11.4247 19.667C11.4247 19.1284 11.2379 18.6076 10.8993 18.1943L10.745 18.0244C10.3643 17.6438 9.8649 17.4093 9.33386 17.3564Z" fill="black"/>
<path d="M15.3339 17.3564L15.1044 17.3447C14.7037 17.3454 14.309 17.4494 13.9618 17.6465L13.8163 17.7373C13.4356 17.9925 13.1395 18.3546 12.9647 18.7773C12.7898 19.2008 12.7443 19.6671 12.8339 20.1162C12.9234 20.5652 13.1438 20.9778 13.4676 21.3018L13.5926 21.418C13.8948 21.6787 14.2606 21.8581 14.6542 21.9365L14.8231 21.9639C15.2195 22.0126 15.6231 21.9576 15.993 21.8047C16.416 21.6297 16.7773 21.3333 17.0321 20.9531L17.1229 20.8076C17.3199 20.4607 17.424 20.0678 17.4247 19.667C17.4247 19.1284 17.2379 18.6076 16.8993 18.1943L16.745 18.0244C16.3643 17.6438 15.8649 17.4093 15.3339 17.3564Z" fill="black"/>
<path d="M21.3339 17.3564L21.1044 17.3447C20.7037 17.3454 20.309 17.4494 19.9618 17.6465L19.8163 17.7373C19.4356 17.9925 19.1395 18.3546 18.9647 18.7773C18.7898 19.2008 18.7443 19.6671 18.8339 20.1162C18.9234 20.5652 19.1438 20.9778 19.4676 21.3018L19.5926 21.418C19.8948 21.6787 20.2606 21.8581 20.6542 21.9365L20.8231 21.9639C21.2195 22.0126 21.6231 21.9576 21.993 21.8047C22.416 21.6297 22.7773 21.3333 23.0321 20.9531L23.1229 20.8076C23.3199 20.4607 23.424 20.0678 23.4247 19.667C23.4247 19.1284 23.2379 18.6076 22.8993 18.1943L22.745 18.0244C22.3643 17.6438 21.8649 17.4093 21.3339 17.3564Z" fill="black"/>
<path d="M6.33386 12.0254L6.10436 12.0137C5.70371 12.0144 5.30902 12.1184 4.96179 12.3154L4.81628 12.4062C4.4356 12.6614 4.13951 13.0236 3.96472 13.4463C3.78977 13.8698 3.74435 14.3361 3.83386 14.7852C3.92343 15.2342 4.14383 15.6468 4.46765 15.9707L4.59265 16.0869C4.89484 16.3476 5.26055 16.527 5.65417 16.6055L5.82311 16.6328C6.21952 16.6816 6.62307 16.6265 6.99304 16.4736C7.41601 16.2986 7.77728 16.0023 8.0321 15.6221L8.12292 15.4766C8.31986 15.1297 8.42397 14.7367 8.42468 14.3359C8.42468 13.7974 8.23786 13.2765 7.89929 12.8633L7.74499 12.6934C7.36426 12.3128 6.8649 12.0782 6.33386 12.0254Z" fill="black"/>
<path d="M12.3339 12.0254L12.1044 12.0137C11.7037 12.0144 11.309 12.1184 10.9618 12.3154L10.8163 12.4062C10.4357 12.6614 10.1395 13.0236 9.96472 13.4463C9.78984 13.8697 9.74435 14.3361 9.83386 14.7852C9.92345 15.2341 10.1438 15.6468 10.4676 15.9707C10.7914 16.2945 11.2045 16.5158 11.6542 16.6055L11.8231 16.6328C12.2195 16.6816 12.6231 16.6265 12.993 16.4736C13.416 16.2986 13.7773 16.0022 14.0321 15.6221L14.1229 15.4766C14.3199 15.1297 14.4239 14.7367 14.4247 14.3359C14.4247 13.7206 14.1805 13.1288 13.745 12.6934C13.3642 12.3127 12.8649 12.0782 12.3339 12.0254Z" fill="black"/>
<path d="M18.3339 12.0254L18.1044 12.0137C17.7037 12.0144 17.309 12.1184 16.9618 12.3154L16.8163 12.4062C16.4357 12.6614 16.1395 13.0236 15.9647 13.4463C15.7898 13.8697 15.7444 14.3361 15.8339 14.7852C15.9234 15.2341 16.1438 15.6468 16.4676 15.9707C16.7914 16.2945 17.2045 16.5158 17.6542 16.6055L17.8231 16.6328C18.2195 16.6816 18.6231 16.6265 18.993 16.4736C19.416 16.2986 19.7773 16.0022 20.0321 15.6221L20.1229 15.4766C20.3199 15.1297 20.4239 14.7367 20.4247 14.3359C20.4247 13.7206 20.1805 13.1288 19.745 12.6934C19.3642 12.3127 18.8649 12.0782 18.3339 12.0254Z" fill="black"/>
<path d="M9.33386 6.75879L9.10436 6.74707C8.70371 6.74776 8.30902 6.85176 7.96179 7.04883L7.81628 7.13965C7.43562 7.39479 7.13951 7.75696 6.96472 8.17969C6.78974 8.6032 6.74435 9.06946 6.83386 9.51855C6.92341 9.96763 7.14391 10.3802 7.46765 10.7041L7.59265 10.8203C7.89484 11.081 8.26055 11.2604 8.65417 11.3389C9.10309 11.4283 9.56946 11.383 9.99304 11.208C10.417 11.0327 10.7777 10.7351 11.0321 10.3555C11.2866 9.97564 11.4249 9.52837 11.4257 9.06934C11.4257 8.53025 11.2377 8.00956 10.8993 7.59668L10.745 7.42676C10.3643 7.04624 9.86493 6.81164 9.33386 6.75879Z" fill="black"/>
<path d="M15.3339 6.75879L15.1044 6.74707C14.7037 6.74776 14.309 6.85176 13.9618 7.04883L13.8163 7.13965C13.4356 7.3948 13.1395 7.75696 12.9647 8.17969C12.7897 8.60328 12.7443 9.06945 12.8339 9.51855C12.9233 9.96735 13.1433 10.3807 13.4676 10.7051C13.7919 11.0293 14.2054 11.2494 14.6542 11.3389C15.1031 11.4283 15.5695 11.383 15.993 11.208C16.4169 11.0327 16.7777 10.7352 17.0321 10.3555C17.2865 9.97567 17.4249 9.52836 17.4257 9.06934C17.4256 8.53035 17.2377 8.00957 16.8993 7.59668L16.745 7.42676C16.3643 7.04631 15.8649 6.81165 15.3339 6.75879Z" fill="black"/>
<path d="M12.3339 1.42578L12.1044 1.41406C11.7037 1.41475 11.309 1.51876 10.9618 1.71582L10.8163 1.80664C10.4363 2.06137 10.1397 2.42261 9.96472 2.8457C9.78968 3.26927 9.74446 3.73567 9.83386 4.18457L9.87292 4.35156C9.97943 4.73567 10.184 5.08738 10.4676 5.37109C10.792 5.69545 11.2054 5.91542 11.6542 6.00488C12.1032 6.09435 12.5694 6.04907 12.993 5.87402C13.4157 5.69924 13.7779 5.40326 14.0331 5.02246C14.2882 4.64165 14.4249 4.19319 14.4257 3.73535C14.4255 3.11936 14.1797 2.52849 13.745 2.09375C13.3642 1.71303 12.865 1.47859 12.3339 1.42578Z" fill="black"/>
</svg>
