<svg width="25" height="24" viewBox="0 0 25 24" fill="none" xmlns="http://www.w3.org/2000/svg">
<path fill-rule="evenodd" clip-rule="evenodd" d="M12.1039 0.819824C12.9154 0.81989 13.6941 1.14256 14.2679 1.71631C14.8417 2.29014 15.1643 3.06895 15.1644 3.88037V3.88232C15.1634 4.48634 14.9829 5.07676 14.6468 5.57861C14.4348 5.89508 14.166 6.16727 13.8568 6.3833C14.242 6.21359 14.6597 6.12326 15.0843 6.12256H15.0863C15.8978 6.12264 16.6765 6.44518 17.2503 7.01904C17.8241 7.59297 18.1468 8.37158 18.1468 9.18311V9.18506C18.1458 9.78916 17.9654 10.3795 17.6292 10.8813C17.5066 11.0644 17.3646 11.2321 17.2074 11.3833C17.485 11.3015 17.7744 11.2588 18.0667 11.2583H18.0687C18.8802 11.2584 19.6589 11.581 20.2328 12.1548C20.8065 12.7287 21.1292 13.5074 21.1292 14.3188V14.3208C21.1282 14.9249 20.9478 15.5152 20.6117 16.0171C20.4018 16.3303 20.1366 16.6 19.8314 16.8149C20.2139 16.648 20.6281 16.5588 21.0492 16.5581H21.0511C21.8626 16.5583 22.6414 16.8808 23.2152 17.4546C23.7888 18.0285 24.1117 18.8072 24.1117 19.6187V19.6206C24.1106 20.2247 23.9302 20.815 23.5941 21.3169C23.2579 21.8187 22.7802 22.2101 22.222 22.4409C21.6637 22.6716 21.0488 22.7317 20.4564 22.6138C19.864 22.4957 19.3191 22.2048 18.8919 21.7778C18.4825 21.3684 18.1986 20.8506 18.0716 20.2866C17.9891 20.6524 17.84 21.0022 17.6292 21.3169C17.293 21.8187 16.8154 22.2101 16.2572 22.4409C15.6988 22.6717 15.0841 22.7318 14.4916 22.6138C13.8991 22.4957 13.3543 22.2049 12.9271 21.7778C12.5176 21.3683 12.2338 20.8506 12.1068 20.2866C12.0243 20.6524 11.8752 21.0022 11.6644 21.3169C11.3282 21.8186 10.8505 22.2101 10.2923 22.4409C9.73398 22.6716 9.11918 22.7318 8.52671 22.6138C7.93423 22.4956 7.38947 22.205 6.96225 21.7778C6.55252 21.3681 6.26882 20.85 6.14194 20.2856C6.0595 20.6517 5.9105 21.0019 5.69956 21.3169C5.36334 21.8186 4.88563 22.2102 4.32749 22.4409C3.76919 22.6715 3.15427 22.7318 2.56186 22.6138C1.96944 22.4956 1.42459 22.2049 0.99741 21.7778C0.570207 21.3506 0.278654 20.8059 0.160496 20.2134C0.0423846 19.6209 0.10271 19.0061 0.333347 18.4478C0.564024 17.8895 0.955608 17.412 1.45737 17.0757C1.95931 16.7394 2.55052 16.5592 3.15464 16.5581H3.15659C3.58663 16.5581 4.00696 16.6503 4.39292 16.8208C4.24653 16.7187 4.1072 16.6054 3.97983 16.478C3.55261 16.0508 3.26105 15.5061 3.14292 14.9136C3.02479 14.321 3.08505 13.7063 3.31577 13.1479C3.54648 12.5897 3.93793 12.1122 4.43979 11.7759C4.94177 11.4396 5.53289 11.2593 6.13706 11.2583H6.13901C6.43587 11.2583 6.72854 11.3015 7.00815 11.3843C6.99321 11.3699 6.97692 11.357 6.96225 11.3423C6.53504 10.9151 6.24351 10.3703 6.12534 9.77783C6.00722 9.1853 6.06753 8.57056 6.29819 8.01221C6.5289 7.45393 6.92037 6.97648 7.42221 6.64014C7.92423 6.3038 8.51527 6.12358 9.11948 6.12256H9.12143C9.55571 6.12259 9.97944 6.21732 10.3685 6.39111C10.2179 6.28705 10.0753 6.17018 9.94468 6.03955C9.51751 5.61231 9.22588 5.06761 9.10776 4.4751C8.98974 3.88259 9.04991 3.26777 9.28061 2.70947C9.51137 2.15129 9.90281 1.67368 10.4046 1.3374C10.9066 1.00115 11.4977 0.820824 12.1019 0.819824H12.1039ZM3.15659 19.0581C3.04717 19.0587 2.93986 19.0919 2.84897 19.1528C2.75778 19.2141 2.68589 19.3012 2.64389 19.4028C2.60207 19.5044 2.59126 19.6164 2.61264 19.7241C2.63417 19.8319 2.68732 19.9315 2.76499 20.0093C2.84279 20.0871 2.94228 20.141 3.05014 20.1626C3.15805 20.1841 3.2707 20.1723 3.37241 20.1304C3.47385 20.0884 3.56116 20.0174 3.62241 19.9263C3.68329 19.8354 3.71647 19.728 3.71714 19.6187L3.70639 19.5083C3.68484 19.4008 3.63173 19.3009 3.55307 19.2222C3.44802 19.1171 3.30512 19.0582 3.15659 19.0581ZM9.12143 19.0581C9.01194 19.0587 8.90477 19.0919 8.81382 19.1528C8.72255 19.2141 8.65076 19.3012 8.60874 19.4028C8.56688 19.5044 8.5561 19.6164 8.57749 19.7241C8.59903 19.8319 8.65215 19.9315 8.72983 20.0093C8.80768 20.0871 8.90707 20.141 9.01499 20.1626C9.12296 20.1841 9.23549 20.1724 9.33725 20.1304C9.43873 20.0884 9.526 20.0174 9.58725 19.9263C9.64813 19.8354 9.68132 19.728 9.68198 19.6187L9.67124 19.5083C9.64969 19.4008 9.59655 19.3009 9.51792 19.2222C9.41286 19.1171 9.26999 19.0582 9.12143 19.0581ZM15.0863 19.0581C14.9767 19.0587 14.8697 19.0919 14.7787 19.1528C14.6873 19.2141 14.6156 19.3011 14.5736 19.4028C14.5317 19.5044 14.5209 19.6164 14.5423 19.7241C14.5639 19.8319 14.617 19.9315 14.6947 20.0093C14.7725 20.0871 14.8719 20.1411 14.9798 20.1626C15.0878 20.1841 15.2003 20.1724 15.3021 20.1304C15.4036 20.0884 15.4908 20.0175 15.5521 19.9263C15.613 19.8354 15.6462 19.728 15.6468 19.6187L15.6361 19.5083C15.6145 19.4008 15.5613 19.3009 15.4828 19.2222C15.3777 19.1171 15.2348 19.0582 15.0863 19.0581ZM21.0511 19.0581C20.9416 19.0587 20.8345 19.0919 20.7435 19.1528C20.6521 19.2141 20.5805 19.3011 20.5384 19.4028C20.4965 19.5045 20.4858 19.6163 20.5072 19.7241C20.5287 19.8319 20.5819 19.9315 20.6595 20.0093C20.7373 20.087 20.8368 20.1411 20.9447 20.1626C21.0526 20.184 21.1653 20.1724 21.2669 20.1304C21.3684 20.0883 21.4557 20.0175 21.5169 19.9263C21.5778 19.8354 21.611 19.728 21.6117 19.6187L21.6009 19.5083C21.5794 19.4009 21.5261 19.3008 21.4476 19.2222C21.3426 19.1172 21.1995 19.0583 21.0511 19.0581ZM13.2748 17.1411C12.7164 17.3718 12.1016 17.432 11.5091 17.314C11.29 17.2703 11.0779 17.2018 10.8753 17.1128C11.0205 17.2144 11.1585 17.3276 11.2855 17.4546C11.6996 17.8687 11.9802 18.3899 12.1058 18.9526C12.144 18.7809 12.1953 18.6118 12.263 18.4478C12.4855 17.9093 12.8579 17.4468 13.3343 17.1128C13.3142 17.1216 13.2951 17.1327 13.2748 17.1411ZM16.8402 17.1128C16.9853 17.2144 17.1234 17.3277 17.2503 17.4546C17.6641 17.8685 17.9439 18.3894 18.0697 18.9517C18.1078 18.7802 18.1602 18.6115 18.2279 18.4478C18.4502 17.9097 18.8222 17.4477 19.2982 17.1138C19.2785 17.1224 19.2595 17.1329 19.2396 17.1411C18.6813 17.3718 18.0664 17.432 17.474 17.314C17.2549 17.2703 17.0426 17.2018 16.8402 17.1128ZM7.30991 17.1411C6.75156 17.3718 6.13676 17.432 5.54428 17.314C5.32557 17.2703 5.11364 17.2026 4.91147 17.1138C5.05625 17.2152 5.19398 17.3279 5.32065 17.4546C5.73429 17.8683 6.01512 18.3886 6.14096 18.9507C6.17907 18.7796 6.23069 18.6111 6.29819 18.4478C6.5206 17.9095 6.89339 17.4477 7.36948 17.1138C7.34956 17.1225 7.33004 17.1328 7.30991 17.1411ZM9.12436 14.9858C9.04193 15.352 8.89297 15.7021 8.68198 16.0171C8.47171 16.3309 8.20573 16.6008 7.89975 16.8159C8.28293 16.6483 8.6976 16.5588 9.11948 16.5581H9.12143C9.55229 16.5581 9.97316 16.6506 10.3597 16.8218C10.2126 16.7193 10.0726 16.6059 9.94468 16.478C9.53494 16.0683 9.25124 15.5502 9.12436 14.9858ZM15.0892 14.9868C15.0067 15.3526 14.8576 15.7024 14.6468 16.0171C14.4368 16.3305 14.171 16.5999 13.8656 16.8149C14.2484 16.6477 14.6629 16.5588 15.0843 16.5581H15.0863C15.5164 16.5582 15.9366 16.6502 16.3226 16.8208C16.1762 16.7187 16.0369 16.6054 15.9095 16.478C15.5 16.0685 15.2162 15.5508 15.0892 14.9868ZM6.13901 13.7583C6.02954 13.7589 5.92232 13.7921 5.83139 13.853C5.7401 13.9143 5.66834 14.0013 5.62632 14.103C5.58441 14.2047 5.57367 14.3166 5.59507 14.4243C5.61657 14.5322 5.66973 14.6316 5.74741 14.7095C5.82524 14.7873 5.92467 14.8412 6.03257 14.8628C6.14054 14.8843 6.25307 14.8726 6.35483 14.8306C6.45636 14.7886 6.54357 14.7177 6.60483 14.6265C6.66575 14.5355 6.69894 14.4282 6.69956 14.3188L6.68882 14.2085C6.66726 14.101 6.61415 14.0011 6.5355 13.9224C6.43045 13.8174 6.28752 13.7584 6.13901 13.7583ZM12.1039 13.7583C11.9943 13.7589 11.8872 13.7921 11.7962 13.853C11.7049 13.9143 11.6332 14.0013 11.5912 14.103C11.5493 14.2046 11.5385 14.3166 11.5599 14.4243C11.5814 14.5321 11.6346 14.6317 11.7123 14.7095C11.7901 14.7873 11.8895 14.8412 11.9974 14.8628C12.1054 14.8843 12.2179 14.8726 12.3197 14.8306C12.4212 14.7886 12.5084 14.7177 12.5697 14.6265C12.6306 14.5356 12.6638 14.4282 12.6644 14.3188L12.6537 14.2085C12.6321 14.101 12.579 14.0011 12.5003 13.9224C12.3953 13.8173 12.2524 13.7584 12.1039 13.7583ZM18.0687 13.7583C17.9592 13.7588 17.8521 13.7921 17.7611 13.853C17.6697 13.9143 17.5981 14.0013 17.556 14.103C17.5141 14.2047 17.5033 14.3165 17.5248 14.4243C17.5463 14.5321 17.5994 14.6317 17.6771 14.7095C17.7549 14.7872 17.8544 14.8413 17.9623 14.8628C18.0702 14.8843 18.1828 14.8726 18.2845 14.8306C18.386 14.7885 18.4733 14.7177 18.5345 14.6265C18.5954 14.5356 18.6286 14.4282 18.6292 14.3188L18.6185 14.2085C18.597 14.1011 18.5437 14.0011 18.4652 13.9224C18.3602 13.8174 18.2172 13.7584 18.0687 13.7583ZM8.30307 12.1548C8.71712 12.5689 8.99773 13.0901 9.12339 13.6528C9.16153 13.4811 9.21286 13.3119 9.28061 13.1479C9.44352 12.7537 9.68709 12.4003 9.99253 12.1079C9.5179 12.2485 9.01518 12.2756 8.52671 12.1782C8.43306 12.1596 8.34132 12.1341 8.25034 12.1069C8.26749 12.1233 8.28627 12.138 8.30307 12.1548ZM15.9564 12.1079C15.482 12.2484 14.9798 12.2755 14.4916 12.1782C14.3983 12.1596 14.3067 12.1349 14.2162 12.1079C14.2329 12.1239 14.2515 12.1383 14.2679 12.1548C14.6817 12.5686 14.9615 13.0896 15.0873 13.6519C15.1254 13.4804 15.1778 13.3117 15.2455 13.1479C15.4083 12.7539 15.6511 12.4002 15.9564 12.1079ZM12.1068 9.85107C12.0243 10.2169 11.8752 10.5667 11.6644 10.8813C11.5415 11.0647 11.3983 11.2319 11.2406 11.3833C11.5188 11.3011 11.8088 11.2588 12.1019 11.2583H12.1039C12.4008 11.2583 12.6933 11.3014 12.973 11.3843C12.958 11.3699 12.9418 11.357 12.9271 11.3423C12.5176 10.9328 12.2338 10.4151 12.1068 9.85107ZM9.12143 8.62256C9.01192 8.62312 8.90478 8.65634 8.81382 8.71729C8.72253 8.77857 8.65076 8.86559 8.60874 8.96729C8.56688 9.06887 8.5561 9.18087 8.57749 9.28857C8.59903 9.39637 8.65216 9.49593 8.72983 9.57373C8.80769 9.65155 8.90706 9.7055 9.01499 9.72705C9.12297 9.74858 9.23548 9.73684 9.33725 9.69482C9.43874 9.65283 9.526 9.58191 9.58725 9.49072C9.64813 9.39986 9.68131 9.2924 9.68198 9.18311L9.67124 9.07275C9.64969 8.96525 9.59652 8.86533 9.51792 8.78662C9.41286 8.68156 9.26999 8.62261 9.12143 8.62256ZM15.0863 8.62256C14.9767 8.6231 14.8697 8.65633 14.7787 8.71729C14.6873 8.77858 14.6156 8.86552 14.5736 8.96729C14.5317 9.06892 14.5209 9.18079 14.5423 9.28857C14.5639 9.39641 14.617 9.49591 14.6947 9.57373C14.7725 9.65154 14.8719 9.70551 14.9798 9.72705C15.0878 9.74855 15.2003 9.73688 15.3021 9.69482C15.4036 9.65279 15.4908 9.58199 15.5521 9.49072C15.613 9.39982 15.6462 9.29245 15.6468 9.18311L15.6361 9.07275C15.6145 8.96527 15.5613 8.86533 15.4828 8.78662C15.3777 8.68159 15.2348 8.62264 15.0863 8.62256ZM13.2748 6.70264C12.7163 6.9334 12.1017 6.99357 11.5091 6.87549C11.288 6.83141 11.0736 6.76358 10.8695 6.67334C11.0168 6.77592 11.1569 6.8904 11.2855 7.01904C11.6993 7.43298 11.9801 7.95371 12.1058 8.51611C12.1439 8.34474 12.1954 8.1759 12.263 8.01221C12.4873 7.46963 12.8634 7.00398 13.3451 6.66943C13.3214 6.67994 13.2987 6.69272 13.2748 6.70264ZM12.1039 3.31982C11.9944 3.32037 11.8872 3.35369 11.7962 3.41455C11.705 3.47576 11.6332 3.56295 11.5912 3.66455C11.5493 3.76608 11.5386 3.87816 11.5599 3.98584C11.5814 4.09364 11.6346 4.19317 11.7123 4.271C11.7901 4.34886 11.8894 4.40276 11.9974 4.42432C12.1055 4.44586 12.2179 4.43417 12.3197 4.39209C12.4212 4.35004 12.5084 4.27923 12.5697 4.18799C12.6305 4.09711 12.6638 3.98963 12.6644 3.88037L12.6537 3.77002C12.6321 3.66263 12.5789 3.56251 12.5003 3.48389C12.3953 3.37896 12.2523 3.31989 12.1039 3.31982Z" fill="black"/>
</svg>
