<svg width="24" height="24" viewBox="0 0 24 24" fill="none" xmlns="http://www.w3.org/2000/svg">
<path d="M21.4551 6.39746C21.731 6.39771 21.9551 6.62147 21.9551 6.89746C21.9551 7.17345 21.731 7.39721 21.4551 7.39746H20.1543V10.7031C20.1543 11.8145 20.1542 12.6782 20.0977 13.3701C20.0406 14.068 19.923 14.6355 19.6631 15.1455C19.2317 15.9921 18.5438 16.6809 17.6973 17.1123C17.1873 17.3721 16.6197 17.4899 15.9219 17.5469C15.2404 17.6025 14.3921 17.6026 13.3047 17.6025H10.3975C9.30935 17.6026 8.46015 17.6026 7.77832 17.5469C7.08048 17.4898 6.51294 17.3722 6.00293 17.1123C5.15626 16.6809 4.46754 15.9922 4.03613 15.1455C3.77634 14.6355 3.65955 14.0679 3.60254 13.3701C3.54604 12.6782 3.5459 11.8145 3.5459 10.7031V7.39746H2.54492C2.26895 7.39726 2.04492 7.17348 2.04492 6.89746C2.04492 6.62144 2.26895 6.39766 2.54492 6.39746H21.4551Z" fill="black"/>
</svg>
