<svg width="24" height="24" viewBox="0 0 24 24" fill="none" xmlns="http://www.w3.org/2000/svg">
<path d="M21.4551 6.52246C21.662 6.52271 21.8301 6.69051 21.8301 6.89746C21.8301 7.10441 21.662 7.27221 21.4551 7.27246H20.0293V10.7236C20.0293 11.8271 20.0293 12.6789 19.9736 13.3604C19.9172 14.0505 19.8012 14.5994 19.5518 15.0889C19.1323 15.912 18.4628 16.5816 17.6396 17.001C17.1504 17.2501 16.6018 17.3655 15.9121 17.4219C15.2308 17.4775 14.3786 17.4775 13.2754 17.4775H10.4248C9.32147 17.4775 8.46943 17.4775 7.78809 17.4219C7.098 17.3655 6.54901 17.2504 6.05957 17.001C5.23644 16.5815 4.56688 15.912 4.14746 15.0889C3.89812 14.5994 3.78295 14.0505 3.72656 13.3604C3.6709 12.6789 3.6709 11.8271 3.6709 10.7236V7.27246H2.54492C2.33798 7.27226 2.16992 7.10445 2.16992 6.89746C2.16992 6.69048 2.33798 6.52266 2.54492 6.52246H21.4551Z" fill="black"/>
</svg>
