<svg width="24" height="24" viewBox="0 0 24 24" fill="none" xmlns="http://www.w3.org/2000/svg">
<path d="M4.82503 20.8135C5.02386 20.5165 5.14189 20.1739 5.16878 19.8193L5.17463 19.666C5.17463 19.1856 5.00772 18.7222 4.70588 18.3535L4.56819 18.2012C4.22853 17.8616 3.78314 17.6517 3.3094 17.6045L3.10432 17.5947C2.69589 17.5954 2.29548 17.717 1.95588 17.9443C1.61632 18.1719 1.35112 18.4956 1.19514 18.873C1.03908 19.2508 0.999058 19.6667 1.07893 20.0674C1.15885 20.468 1.35549 20.836 1.64436 21.125L1.75667 21.2295C2.02618 21.4618 2.35225 21.6215 2.70296 21.6914L2.85432 21.7158C3.20759 21.7591 3.56725 21.7106 3.89729 21.5742C4.27474 21.4181 4.59763 21.1528 4.82503 20.8135Z" fill="black"/>
<path d="M10.825 20.8135C11.0239 20.5165 11.1419 20.1739 11.1688 19.8193L11.1746 19.666C11.1746 19.1856 11.0077 18.7222 10.7059 18.3535L10.5682 18.2012C10.2285 17.8616 9.78314 17.6517 9.3094 17.6045L9.10432 17.5947C8.69589 17.5954 8.29548 17.717 7.95588 17.9443C7.61632 18.1719 7.35112 18.4956 7.19514 18.873C7.03908 19.2508 6.99906 19.6667 7.07893 20.0674C7.15885 20.468 7.35549 20.836 7.64436 21.125L7.75667 21.2295C8.02618 21.4618 8.35225 21.6215 8.70296 21.6914L8.85432 21.7158C9.20759 21.7591 9.56725 21.7106 9.89729 21.5742C10.2747 21.4181 10.5976 21.1528 10.825 20.8135Z" fill="black"/>
<path d="M16.825 20.8135C17.0239 20.5165 17.1419 20.1739 17.1688 19.8193L17.1746 19.666C17.1746 19.1856 17.0077 18.7222 16.7059 18.3535L16.5682 18.2012C16.2285 17.8616 15.7831 17.6517 15.3094 17.6045L15.1043 17.5947C14.6959 17.5954 14.2955 17.717 13.9559 17.9443C13.6163 18.1719 13.3511 18.4956 13.1951 18.873C13.0391 19.2508 12.9991 19.6667 13.0789 20.0674C13.1588 20.468 13.3555 20.836 13.6444 21.125L13.7567 21.2295C14.0262 21.4618 14.3522 21.6215 14.703 21.6914L14.8543 21.7158C15.2076 21.7591 15.5673 21.7106 15.8973 21.5742C16.2747 21.4181 16.5976 21.1528 16.825 20.8135Z" fill="black"/>
<path d="M22.825 20.8135C23.0239 20.5165 23.1419 20.1739 23.1688 19.8193L23.1746 19.666C23.1746 19.1856 23.0077 18.7222 22.7059 18.3535L22.5682 18.2012C22.2285 17.8616 21.7831 17.6517 21.3094 17.6045L21.1043 17.5947C20.6959 17.5954 20.2955 17.717 19.9559 17.9443C19.6163 18.1719 19.3511 18.4956 19.1951 18.873C19.0391 19.2508 18.9991 19.6667 19.0789 20.0674C19.1588 20.468 19.3555 20.836 19.6444 21.125L19.7567 21.2295C20.0262 21.4618 20.3522 21.6215 20.703 21.6914L20.8543 21.7158C21.2076 21.7591 21.5673 21.7106 21.8973 21.5742C22.2747 21.4181 22.5976 21.1528 22.825 20.8135Z" fill="black"/>
<path d="M7.82503 15.4824C8.02386 15.1855 8.14189 14.8429 8.16878 14.4883L8.17463 14.335C8.17463 13.8545 8.00772 13.3911 7.70588 13.0225L7.56819 12.8701C7.22853 12.5306 6.78314 12.3207 6.3094 12.2734L6.10432 12.2637C5.69589 12.2643 5.29548 12.3859 4.95588 12.6133C4.61632 12.8409 4.35112 13.1646 4.19514 13.542C4.03908 13.9198 3.99906 14.3356 4.07893 14.7363C4.15885 15.1369 4.35549 15.505 4.64436 15.7939L4.75667 15.8984C5.02618 16.1307 5.35225 16.2904 5.70296 16.3604L5.85432 16.3848C6.20759 16.4281 6.56725 16.3796 6.89729 16.2432C7.27474 16.0871 7.59763 15.8217 7.82503 15.4824Z" fill="black"/>
<path d="M13.825 15.4824C14.0238 15.1855 14.1419 14.8429 14.1688 14.4883L14.1746 14.335C14.1746 13.7858 13.9567 13.2586 13.5682 12.8701C13.2285 12.5305 12.7832 12.3206 12.3094 12.2734L12.1043 12.2637C11.6959 12.2643 11.2955 12.3859 10.9559 12.6133C10.6164 12.8409 10.3511 13.1646 10.1951 13.542C10.0391 13.9197 9.99907 14.3356 10.0789 14.7363C10.1589 15.1369 10.3555 15.505 10.6444 15.7939C10.9333 16.0829 11.3019 16.2804 11.703 16.3604L11.8543 16.3848C12.2076 16.4281 12.5673 16.3795 12.8973 16.2432C13.2748 16.0871 13.5976 15.8217 13.825 15.4824Z" fill="black"/>
<path d="M19.825 15.4824C20.0238 15.1855 20.1419 14.8429 20.1688 14.4883L20.1746 14.335C20.1746 13.7858 19.9567 13.2586 19.5682 12.8701C19.2285 12.5305 18.7832 12.3206 18.3094 12.2734L18.1043 12.2637C17.6959 12.2643 17.2955 12.3859 16.9559 12.6133C16.6164 12.8409 16.3511 13.1646 16.1951 13.542C16.0391 13.9197 15.9991 14.3356 16.0789 14.7363C16.1589 15.1369 16.3555 15.505 16.6444 15.7939C16.9333 16.0829 17.3019 16.2804 17.703 16.3604L17.8543 16.3848C18.2076 16.4281 18.5673 16.3795 18.8973 16.2432C19.2748 16.0871 19.5976 15.8217 19.825 15.4824Z" fill="black"/>
<path d="M10.825 10.2158C11.0237 9.91913 11.1427 9.57666 11.1698 9.22168L11.1756 9.06836C11.1756 8.58766 11.0078 8.12431 10.7059 7.75586L10.5682 7.60352C10.2285 7.26403 9.78315 7.05405 9.3094 7.00684L9.10432 6.99707C8.69589 6.99775 8.29548 7.1193 7.95588 7.34668C7.61633 7.57428 7.35112 7.89798 7.19514 8.27539C7.03906 8.65318 6.99906 9.069 7.07893 9.46973C7.15883 9.87037 7.35555 10.2384 7.64436 10.5273L7.75667 10.6318C8.02618 10.8641 8.35225 11.0238 8.70296 11.0938C9.10357 11.1735 9.5195 11.1337 9.89729 10.9775C10.2754 10.8213 10.5978 10.555 10.825 10.2158Z" fill="black"/>
<path d="M16.825 10.2158C17.0237 9.91915 17.1427 9.57665 17.1698 9.22168L17.1756 9.06836C17.1756 8.58748 17.008 8.12342 16.7059 7.75488L16.5682 7.60352C16.2286 7.26409 15.7831 7.05406 15.3094 7.00684L15.1043 6.99707C14.6959 6.99775 14.2955 7.1193 13.9559 7.34668C13.6163 7.57429 13.3511 7.89796 13.1951 8.27539C13.039 8.65324 12.9991 9.06897 13.0789 9.46973C13.1588 9.87033 13.3551 10.2391 13.6444 10.5283C13.9336 10.8175 14.3024 11.0139 14.703 11.0938C15.1036 11.1735 15.5195 11.1337 15.8973 10.9775C16.2754 10.8213 16.5978 10.555 16.825 10.2158Z" fill="black"/>
<path d="M13.826 4.88281C14.0249 4.58574 14.1429 4.24243 14.1698 3.8877L14.1756 3.73438C14.1755 3.18496 13.9563 2.65859 13.5682 2.27051C13.2285 1.93085 12.7832 1.721 12.3094 1.67383L12.1043 1.66406C11.6959 1.66474 11.2955 1.78629 10.9559 2.01367C10.6168 2.24104 10.3512 2.56392 10.1951 2.94141C10.039 3.31919 9.99916 3.73514 10.0789 4.13574L10.1141 4.28418C10.2091 4.62717 10.3913 4.94123 10.6444 5.19434C10.9336 5.48356 11.3024 5.67991 11.703 5.75977C12.1037 5.83961 12.5195 5.79969 12.8973 5.64355C13.2747 5.48753 13.5984 5.22255 13.826 4.88281Z" fill="black"/>
</svg>
