<svg width="24" height="24" viewBox="0 0 24 24" fill="none" xmlns="http://www.w3.org/2000/svg">
<path fill-rule="evenodd" clip-rule="evenodd" d="M21.455 6.39648C21.7307 6.39673 21.9547 6.62069 21.955 6.89648C21.9547 7.17228 21.7307 7.39623 21.455 7.39648H20.1542V10.7021C20.1542 11.8131 20.154 12.6774 20.0975 13.3691C20.0405 14.0668 19.9227 14.6346 19.663 15.1445C19.2316 15.991 18.5436 16.6799 17.6971 17.1113C17.1871 17.3711 16.6196 17.4889 15.9218 17.5459C15.2297 17.6024 14.3656 17.6016 13.2538 17.6016H10.4462C9.33459 17.6016 8.47019 17.6024 7.7782 17.5459C7.08043 17.4889 6.51277 17.3711 6.00281 17.1113C5.15632 16.6799 4.4674 15.991 4.03601 15.1445C3.77639 14.6347 3.65943 14.0666 3.60242 13.3691C3.54596 12.6774 3.54578 11.8131 3.54578 10.7021V7.39648H2.5448C2.26896 7.39629 2.04502 7.17232 2.0448 6.89648C2.04502 6.62065 2.26896 6.39668 2.5448 6.39648H21.455ZM4.54578 10.7021C4.54578 11.8298 4.54612 12.6464 4.59851 13.2881C4.65047 13.9237 4.7517 14.345 4.92761 14.6904C5.26313 15.3488 5.79858 15.8852 6.45691 16.2207C6.80238 16.3966 7.22355 16.4969 7.85925 16.5488C8.50114 16.6013 9.31791 16.6016 10.4462 16.6016H13.2538C14.382 16.6016 15.1988 16.6013 15.8407 16.5488C16.4764 16.4969 16.8976 16.3967 17.243 16.2207C17.9015 15.8852 18.4368 15.3488 18.7723 14.6904C18.9482 14.345 19.0485 13.9236 19.1005 13.2881C19.1529 12.6464 19.1542 11.8298 19.1542 10.7021V7.39648H4.54578V10.7021Z" fill="black"/>
</svg>
