<svg width="24" height="24" viewBox="0 0 24 24" fill="none" xmlns="http://www.w3.org/2000/svg">
<path d="M3.38363 16.8584L3.10434 16.8447H3.10238C2.6157 16.8456 2.13775 16.9725 1.71566 17.2119L1.53793 17.3213C1.13257 17.5929 0.806182 17.9646 0.588711 18.3975L0.502774 18.5869C0.290055 19.1018 0.234815 19.668 0.343594 20.2139C0.452471 20.7596 0.720397 21.2614 1.1141 21.6553L1.26645 21.7969C1.63359 22.1135 2.07796 22.3314 2.55648 22.4268L2.76254 22.46C3.24459 22.5192 3.73423 22.4522 4.18344 22.2666C4.69789 22.0538 5.13824 21.6939 5.44809 21.2314L5.55746 21.0547C5.79697 20.6329 5.92377 20.1553 5.92465 19.668V19.666C5.92465 19.0117 5.69743 18.3803 5.28598 17.8779L5.09848 17.6709C4.63579 17.2084 4.02899 16.9227 3.38363 16.8584Z" fill="black"/>
<path d="M9.38363 16.8584L9.10434 16.8447H9.10238C8.6157 16.8456 8.13775 16.9725 7.71566 17.2119L7.53793 17.3213C7.13258 17.5929 6.80618 17.9646 6.58871 18.3975L6.50277 18.5869C6.29006 19.1018 6.23481 19.668 6.34359 20.2139C6.45247 20.7596 6.7204 21.2614 7.1141 21.6553L7.26645 21.7969C7.63359 22.1135 8.07796 22.3314 8.55648 22.4268L8.76254 22.46C9.24459 22.5192 9.73423 22.4522 10.1834 22.2666C10.6979 22.0538 11.1382 21.6939 11.4481 21.2314L11.5575 21.0547C11.797 20.6329 11.9238 20.1553 11.9246 19.668V19.666C11.9246 19.0117 11.6974 18.3803 11.286 17.8779L11.0985 17.6709C10.6358 17.2084 10.029 16.9227 9.38363 16.8584Z" fill="black"/>
<path d="M15.3836 16.8584L15.1043 16.8447H15.1024C14.6157 16.8456 14.1377 16.9725 13.7157 17.2119L13.5379 17.3213C13.1326 17.5929 12.8062 17.9646 12.5887 18.3975L12.5028 18.5869C12.2901 19.1018 12.2348 19.668 12.3436 20.2139C12.4525 20.7596 12.7204 21.2614 13.1141 21.6553L13.2664 21.7969C13.6336 22.1135 14.078 22.3314 14.5565 22.4268L14.7625 22.46C15.2446 22.5192 15.7342 22.4522 16.1834 22.2666C16.6979 22.0538 17.1382 21.6939 17.4481 21.2314L17.5575 21.0547C17.797 20.6329 17.9238 20.1553 17.9246 19.668V19.666C17.9246 19.0117 17.6974 18.3803 17.286 17.8779L17.0985 17.6709C16.6358 17.2084 16.029 16.9227 15.3836 16.8584Z" fill="black"/>
<path d="M21.3836 16.8584L21.1043 16.8447H21.1024C20.6157 16.8456 20.1377 16.9725 19.7157 17.2119L19.5379 17.3213C19.1326 17.5929 18.8062 17.9646 18.5887 18.3975L18.5028 18.5869C18.2901 19.1018 18.2348 19.668 18.3436 20.2139C18.4525 20.7596 18.7204 21.2614 19.1141 21.6553L19.2664 21.7969C19.6336 22.1135 20.078 22.3314 20.5565 22.4268L20.7625 22.46C21.2446 22.5192 21.7342 22.4522 22.1834 22.2666C22.6979 22.0538 23.1382 21.6939 23.4481 21.2314L23.5575 21.0547C23.797 20.6329 23.9238 20.1553 23.9246 19.668V19.666C23.9246 19.0117 23.6974 18.3803 23.286 17.8779L23.0985 17.6709C22.6358 17.2084 22.029 16.9227 21.3836 16.8584Z" fill="black"/>
<path d="M6.38363 11.5273L6.10434 11.5137H6.10238C5.6157 11.5145 5.13775 11.6414 4.71566 11.8809L4.53793 11.9902C4.13257 12.2619 3.80618 12.6336 3.58871 13.0664L3.50277 13.2559C3.29006 13.7708 3.23481 14.337 3.34359 14.8828C3.45247 15.4286 3.7204 15.9304 4.1141 16.3242L4.26645 16.4658C4.63359 16.7825 5.07796 17.0003 5.55648 17.0957L5.76254 17.1289C6.24459 17.1881 6.73423 17.1212 7.18344 16.9355C7.69789 16.7228 8.13824 16.3628 8.44809 15.9004L8.55746 15.7236C8.79697 15.3019 8.92377 14.8242 8.92465 14.3369V14.335C8.92465 13.6807 8.69743 13.0492 8.28598 12.5469L8.09848 12.3398C7.63579 11.8773 7.02899 11.5916 6.38363 11.5273Z" fill="black"/>
<path d="M12.3836 11.5273L12.1043 11.5137H12.1024C11.6157 11.5145 11.1377 11.6414 10.7157 11.8809L10.5379 11.9902C10.1327 12.2619 9.80619 12.6335 9.58871 13.0664L9.50277 13.2559C9.29015 13.7706 9.23481 14.337 9.34359 14.8828C9.45248 15.4284 9.72028 15.9303 10.1141 16.3242C10.5075 16.7176 11.0097 16.9867 11.5565 17.0957L11.7625 17.1289C12.2446 17.1881 12.7342 17.1212 13.1834 16.9355C13.698 16.7228 14.1383 16.3627 14.4481 15.9004L14.5575 15.7236C14.797 15.3019 14.9237 14.8241 14.9246 14.3369V14.335C14.9246 13.5872 14.6279 12.8693 14.0985 12.3398C13.6357 11.8772 13.029 11.5916 12.3836 11.5273Z" fill="black"/>
<path d="M18.3836 11.5273L18.1043 11.5137H18.1024C17.6157 11.5145 17.1377 11.6414 16.7157 11.8809L16.5379 11.9902C16.1327 12.2619 15.8062 12.6335 15.5887 13.0664L15.5028 13.2559C15.2902 13.7706 15.2348 14.337 15.3436 14.8828C15.4525 15.4284 15.7203 15.9303 16.1141 16.3242C16.5075 16.7176 17.0097 16.9867 17.5565 17.0957L17.7625 17.1289C18.2446 17.1881 18.7342 17.1212 19.1834 16.9355C19.698 16.7228 20.1383 16.3627 20.4481 15.9004L20.5575 15.7236C20.797 15.3019 20.9237 14.8241 20.9246 14.3369V14.335C20.9246 13.5872 20.6279 12.8693 20.0985 12.3398C19.6357 11.8772 19.029 11.5916 18.3836 11.5273Z" fill="black"/>
<path d="M9.38363 6.26074L9.10434 6.24707H9.10238C8.6157 6.24793 8.13775 6.37481 7.71566 6.61426L7.53793 6.72363C7.07468 7.03408 6.71514 7.47539 6.50277 7.98926C6.29002 8.50421 6.23482 9.07039 6.34359 9.61621C6.45246 10.1621 6.72054 10.6639 7.1141 11.0576L7.26645 11.1992C7.63359 11.5158 8.07796 11.7337 8.55648 11.8291C9.10201 11.9377 9.6683 11.8828 10.1834 11.6699C10.6997 11.4565 11.1391 11.095 11.4481 10.6338C11.757 10.1727 11.9246 9.62899 11.9256 9.07031V9.06836C11.9256 8.41301 11.697 7.78184 11.286 7.28027L11.0985 7.07324C10.6359 6.61084 10.0291 6.32503 9.38363 6.26074Z" fill="black"/>
<path d="M15.3836 6.26074L15.1043 6.24707H15.1024C14.6157 6.24793 14.1377 6.37481 13.7157 6.61426L13.5379 6.72363C13.0746 7.03412 12.7151 7.47539 12.5028 7.98926C12.2899 8.50434 12.2348 9.0704 12.3436 9.61621C12.4523 10.1614 12.7195 10.664 13.1141 11.0586C13.5086 11.453 14.0113 11.7204 14.5565 11.8291C15.102 11.9378 15.6683 11.8828 16.1834 11.6699C16.6997 11.4566 17.139 11.0951 17.4481 10.6338C17.7569 10.1727 17.9246 9.62901 17.9256 9.07031V9.06836C17.9256 8.41316 17.697 7.78186 17.286 7.28027L17.0985 7.07324C16.6359 6.61094 16.0291 6.32504 15.3836 6.26074Z" fill="black"/>
<path d="M12.3836 0.927734L12.1043 0.914062H12.1024C11.6157 0.914919 11.1377 1.0418 10.7157 1.28125L10.5379 1.39062C10.076 1.7003 9.71557 2.14056 9.50277 2.65527C9.28989 3.17042 9.23496 3.73673 9.34359 4.28223L9.39145 4.48438C9.52081 4.95131 9.76885 5.3793 10.1141 5.72461C10.5087 6.11922 11.0113 6.38644 11.5565 6.49512C12.1022 6.60384 12.6683 6.54881 13.1834 6.33594C13.6971 6.1236 14.1385 5.76431 14.4491 5.30078C14.7593 4.83771 14.9246 4.29263 14.9256 3.73633V3.73438C14.9254 2.98524 14.6265 2.2683 14.0985 1.74023C13.6357 1.27757 13.0291 0.991974 12.3836 0.927734Z" fill="black"/>
</svg>
