<svg width="24" height="24" viewBox="0 0 24 24" fill="none" xmlns="http://www.w3.org/2000/svg">
<path d="M3.37095 16.9834L3.10435 16.9697C2.57254 16.9706 2.04988 17.1292 1.60728 17.4258C1.16473 17.7224 0.820952 18.1437 0.618024 18.6348C0.414778 19.1268 0.361747 19.6679 0.46568 20.1895C0.569695 20.7109 0.82599 21.1901 1.20201 21.5664C1.57801 21.9424 2.05839 22.2005 2.58091 22.3047L2.77818 22.3359C3.23861 22.3924 3.70639 22.3287 4.1356 22.1514L4.31724 22.0684C4.73081 21.8603 5.08461 21.5485 5.34361 21.1621C5.63979 20.72 5.79866 20.2 5.79966 19.668V19.666C5.79966 18.9514 5.51653 18.2647 5.0106 17.7588C4.56841 17.3169 3.98762 17.0448 3.37095 16.9834Z" fill="black"/>
<path d="M9.37095 16.9834L9.10435 16.9697C8.57254 16.9706 8.04988 17.1292 7.60728 17.4258C7.16473 17.7224 6.82095 18.1437 6.61802 18.6348C6.41478 19.1268 6.36175 19.6679 6.46568 20.1895C6.56969 20.7109 6.82599 21.1901 7.20201 21.5664C7.57801 21.9424 8.05839 22.2005 8.58091 22.3047L8.77818 22.3359C9.23861 22.3924 9.70639 22.3287 10.1356 22.1514L10.3172 22.0684C10.7308 21.8603 11.0846 21.5485 11.3436 21.1621C11.6398 20.72 11.7987 20.2 11.7997 19.668V19.666C11.7997 18.9514 11.5165 18.2647 11.0106 17.7588C10.5684 17.3169 9.98762 17.0448 9.37095 16.9834Z" fill="black"/>
<path d="M15.371 16.9834L15.1044 16.9697C14.5725 16.9706 14.0499 17.1292 13.6073 17.4258C13.1647 17.7224 12.821 18.1437 12.618 18.6348C12.4148 19.1268 12.3617 19.6679 12.4657 20.1895C12.5697 20.7109 12.826 21.1901 13.202 21.5664C13.578 21.9424 14.0584 22.2005 14.5809 22.3047L14.7782 22.3359C15.2386 22.3924 15.7064 22.3287 16.1356 22.1514L16.3172 22.0684C16.7308 21.8603 17.0846 21.5485 17.3436 21.1621C17.6398 20.72 17.7987 20.2 17.7997 19.668V19.666C17.7997 18.9514 17.5165 18.2647 17.0106 17.7588C16.5684 17.3169 15.9876 17.0448 15.371 16.9834Z" fill="black"/>
<path d="M21.371 16.9834L21.1044 16.9697C20.5725 16.9706 20.0499 17.1292 19.6073 17.4258C19.1647 17.7224 18.821 18.1437 18.618 18.6348C18.4148 19.1268 18.3617 19.6679 18.4657 20.1895C18.5697 20.7109 18.826 21.1901 19.202 21.5664C19.578 21.9424 20.0584 22.2005 20.5809 22.3047L20.7782 22.3359C21.2386 22.3924 21.7064 22.3287 22.1356 22.1514L22.3172 22.0684C22.7308 21.8603 23.0846 21.5485 23.3436 21.1621C23.6398 20.72 23.7987 20.2 23.7997 19.668V19.666C23.7997 18.9514 23.5165 18.2647 23.0106 17.7588C22.5684 17.3169 21.9876 17.0448 21.371 16.9834Z" fill="black"/>
<path d="M6.37095 11.6523L6.10435 11.6387C5.57254 11.6396 5.04988 11.7982 4.60728 12.0947C4.16473 12.3914 3.82095 12.8127 3.61802 13.3037C3.41478 13.7957 3.36175 14.3368 3.46568 14.8584C3.56969 15.3798 3.82599 15.8591 4.20201 16.2354C4.57801 16.6114 5.05839 16.8695 5.58091 16.9736L5.77818 17.0049C6.23861 17.0614 6.70639 16.9977 7.1356 16.8203L7.31724 16.7373C7.73081 16.5292 8.08461 16.2175 8.34361 15.8311C8.63979 15.389 8.79866 14.8689 8.79966 14.3369V14.335C8.79966 13.6203 8.51653 12.9337 8.0106 12.4277C7.56841 11.9859 6.98762 11.7137 6.37095 11.6523Z" fill="black"/>
<path d="M12.371 11.6523L12.1044 11.6387C11.5725 11.6396 11.0499 11.7982 10.6073 12.0947C10.1648 12.3914 9.82096 12.8126 9.61802 13.3037C9.41485 13.7956 9.36174 14.3368 9.46568 14.8584C9.56974 15.3798 9.82568 15.8599 10.202 16.2363C10.578 16.6123 11.0584 16.8695 11.5809 16.9736L11.7782 17.0049C12.2386 17.0614 12.7064 16.9977 13.1356 16.8203L13.3172 16.7373C13.7309 16.5292 14.0846 16.2174 14.3436 15.8311C14.6398 15.389 14.7986 14.8688 14.7997 14.3369V14.335C14.7997 13.6203 14.5165 12.9337 14.0106 12.4277C13.5683 11.9855 12.9878 11.7137 12.371 11.6523Z" fill="black"/>
<path d="M18.371 11.6523L18.1044 11.6387C17.5725 11.6396 17.0499 11.7982 16.6073 12.0947C16.1648 12.3914 15.821 12.8126 15.618 13.3037C15.4149 13.7956 15.3617 14.3368 15.4657 14.8584C15.5697 15.3798 15.8257 15.8599 16.202 16.2363C16.578 16.6123 17.0584 16.8695 17.5809 16.9736L17.7782 17.0049C18.2386 17.0614 18.7064 16.9977 19.1356 16.8203L19.3172 16.7373C19.7309 16.5292 20.0846 16.2174 20.3436 15.8311C20.6398 15.389 20.7986 14.8688 20.7997 14.3369V14.335C20.7997 13.6203 20.5165 12.9337 20.0106 12.4277C19.5683 11.9855 18.9878 11.7137 18.371 11.6523Z" fill="black"/>
<path d="M9.37095 6.38574L9.10435 6.37207C8.57254 6.37295 8.04988 6.53159 7.60728 6.82812C7.16475 7.12477 6.82095 7.54605 6.61802 8.03711C6.41475 8.52915 6.36175 9.07021 6.46568 9.5918C6.56969 10.1133 6.82609 10.5925 7.20201 10.9688C7.57801 11.3448 8.05839 11.6029 8.58091 11.707C9.10223 11.8108 9.64341 11.7581 10.1356 11.5547C10.6287 11.3509 11.0482 11.0052 11.3436 10.5645C11.639 10.1236 11.7998 9.60323 11.8006 9.06934C11.8006 8.35348 11.5157 7.66621 11.0106 7.16113C10.5685 6.71936 9.9877 6.44712 9.37095 6.38574Z" fill="black"/>
<path d="M15.371 6.38574L15.1044 6.37207C14.5725 6.37295 14.0499 6.53159 13.6073 6.82812C13.1647 7.1248 12.8209 7.54606 12.618 8.03711C12.4147 8.52926 12.3618 9.07024 12.4657 9.5918C12.5696 10.1129 12.825 10.5937 13.202 10.9707C13.579 11.3476 14.0598 11.6032 14.5809 11.707C15.1022 11.8109 15.6434 11.758 16.1356 11.5547C16.6287 11.3509 17.0482 11.0052 17.3436 10.5645C17.6389 10.1236 17.7998 9.60323 17.8006 9.06934C17.8006 8.35363 17.5157 7.66621 17.0106 7.16113C16.5685 6.71943 15.9877 6.44713 15.371 6.38574Z" fill="black"/>
<path d="M12.371 1.05273L12.1044 1.03906C11.5725 1.03994 11.0499 1.19859 10.6073 1.49512C10.1659 1.79107 9.82135 2.21132 9.61802 2.70312C9.41466 3.19532 9.36188 3.73653 9.46568 4.25781L9.51158 4.45117C9.63523 4.89743 9.87213 5.3068 10.202 5.63672C10.5791 6.01377 11.0598 6.26917 11.5809 6.37305C12.1024 6.47692 12.6434 6.42406 13.1356 6.2207C13.6264 6.01781 14.0479 5.67417 14.3446 5.23145C14.6411 4.78885 14.7998 4.26716 14.8006 3.73535C14.8005 3.0195 14.5153 2.33286 14.0106 1.82812C13.5683 1.3859 12.9879 1.11408 12.371 1.05273Z" fill="black"/>
</svg>
