<svg width="24" height="24" viewBox="0 0 24 24" fill="none" xmlns="http://www.w3.org/2000/svg">
<path d="M21.4551 6.14746C21.8691 6.14771 22.2051 6.4834 22.2051 6.89746C22.2051 7.31152 21.8691 7.64721 21.4551 7.64746H20.4043V10.7031C20.4043 11.8105 20.4042 12.6861 20.3467 13.3906C20.2884 14.104 20.1665 14.7076 19.8857 15.2588C19.4304 16.1525 18.7042 16.8796 17.8105 17.335C17.2595 17.6157 16.6556 17.7376 15.9424 17.7959C15.2488 17.8526 14.3888 17.8526 13.3057 17.8525H10.3955C9.31202 17.8526 8.45153 17.8526 7.75781 17.7959C7.04456 17.7376 6.44074 17.6157 5.88965 17.335C4.99594 16.8796 4.26885 16.1525 3.81348 15.2588C3.53279 14.7077 3.41081 14.1038 3.35254 13.3906C3.29588 12.6968 3.29589 11.8367 3.2959 10.7529V7.64746H2.54492C2.13088 7.64726 1.79492 7.31155 1.79492 6.89746C1.79492 6.48337 2.13088 6.14766 2.54492 6.14746H21.4551Z" fill="black"/>
</svg>
