<svg width="24" height="24" viewBox="0 0 24 24" fill="none" xmlns="http://www.w3.org/2000/svg">
<path d="M21.4541 6.23242C21.8212 6.23267 22.1182 6.53035 22.1182 6.89746C22.1181 7.26456 21.8211 7.56225 21.4541 7.5625H20.3184V10.7031C20.3184 11.8119 20.3179 12.6836 20.2607 13.3838C20.2029 14.0919 20.0833 14.6835 19.8096 15.2207C19.3623 16.0984 18.6482 16.8116 17.7705 17.2588C17.2334 17.5324 16.6425 17.6531 15.9346 17.7109C15.2412 17.7676 14.3794 17.7676 13.2861 17.7676H10.4131C9.31956 17.7676 8.45712 17.7676 7.76367 17.7109C7.05559 17.6531 6.46392 17.5325 5.92676 17.2588C5.04929 16.8116 4.33584 16.0982 3.88867 15.2207C3.61497 14.6835 3.49438 14.0919 3.43652 13.3838C3.37987 12.6902 3.37988 11.8282 3.37988 10.7344V7.5625H2.54395C2.17684 7.56232 1.87893 7.2646 1.87891 6.89746C1.87891 6.5303 2.17683 6.2326 2.54395 6.23242H21.4541Z" fill="black"/>
</svg>
