<svg width="24" height="24" viewBox="0 0 24 24" fill="none" xmlns="http://www.w3.org/2000/svg">
<path fill-rule="evenodd" clip-rule="evenodd" d="M21.455 6.64648C21.5927 6.64673 21.7047 6.75876 21.705 6.89648C21.7047 7.03421 21.5927 7.14623 21.455 7.14648H19.9042V10.7021C19.9042 11.8175 19.904 12.6703 19.8485 13.3496C19.7927 14.0316 19.6791 14.5625 19.4403 15.0312C19.0328 15.8307 18.3824 16.4813 17.5829 16.8887C17.1141 17.1274 16.5835 17.2411 15.9012 17.2969C15.2217 17.3524 14.3696 17.3516 13.2538 17.3516H10.4462C9.33056 17.3516 8.47814 17.3523 7.79871 17.2969C7.1164 17.2411 6.58495 17.1275 6.11609 16.8887C5.31669 16.4813 4.66607 15.8307 4.25867 15.0312C4.01998 14.5626 3.9072 14.0315 3.85144 13.3496C3.79597 12.6703 3.79578 11.8175 3.79578 10.7021V7.14648H2.5448C2.40703 7.14629 2.29502 7.03424 2.2948 6.89648C2.29502 6.75872 2.40703 6.64668 2.5448 6.64648H21.455ZM4.29578 10.7021C4.29578 11.8257 4.29606 12.6544 4.34949 13.3086C4.40271 13.9596 4.50815 14.4172 4.70496 14.8037C5.06444 15.5091 5.63826 16.0839 6.34363 16.4434C6.73014 16.6402 7.18772 16.7446 7.83875 16.7979C8.49318 16.8513 9.32203 16.8516 10.4462 16.8516H13.2538C14.3777 16.8516 15.2058 16.8513 15.8602 16.7979C16.5116 16.7446 16.9697 16.6403 17.3563 16.4434C18.0618 16.0839 18.6355 15.5092 18.995 14.8037C19.1918 14.4172 19.2972 13.9596 19.3505 13.3086C19.4039 12.6544 19.4042 11.8257 19.4042 10.7021V7.14648H4.29578V10.7021Z" fill="black"/>
</svg>
