<svg width="25" height="24" viewBox="0 0 25 24" fill="none" xmlns="http://www.w3.org/2000/svg">
<path fill-rule="evenodd" clip-rule="evenodd" d="M12.2567 0.667969L12.1043 0.664062H12.1024C11.4967 0.665064 10.9036 0.84575 10.3992 1.18359C9.95937 1.47856 9.60324 1.88192 9.36605 2.35352L9.27132 2.55957C9.03952 3.1205 8.98022 3.73727 9.09847 4.33105L9.15023 4.55176C9.29108 5.05981 9.56148 5.52546 9.93734 5.90137C10.092 6.05599 10.2625 6.19147 10.4442 6.30859C10.075 6.12932 9.67241 6.02166 9.25667 6.00098L9.10433 5.99707H9.10237C8.4967 5.99807 7.90357 6.17876 7.39925 6.5166C6.95785 6.81241 6.6018 7.21631 6.36507 7.6875L6.27132 7.89355C6.03967 8.45423 5.98005 9.07085 6.09847 9.66504C6.21699 10.2594 6.50886 10.8057 6.93734 11.2344L7.10335 11.3887C7.1276 11.4096 7.15283 11.4292 7.17804 11.4489C7.18734 11.4561 7.19664 11.4634 7.20589 11.4707C6.90403 11.3546 6.58438 11.2839 6.25667 11.2676L6.10433 11.2637H6.10237C5.4967 11.2647 4.90357 11.4454 4.39925 11.7832C3.95783 12.079 3.60179 12.4829 3.36507 12.9541L3.27132 13.1602C3.03972 13.7208 2.98005 14.3374 3.09847 14.9316C3.217 15.5258 3.50869 16.0722 3.93734 16.501L4.10335 16.6553C4.20655 16.7443 4.31593 16.8252 4.42952 16.8994C4.0643 16.7244 3.6669 16.6191 3.25667 16.5986L3.10433 16.5947H3.10237C2.4967 16.5957 1.90357 16.7764 1.39925 17.1143C0.957826 17.4101 0.601792 17.814 0.365069 18.2852L0.271319 18.4912C0.0397163 19.0518 -0.0199467 19.6685 0.0984679 20.2627C0.216998 20.8569 0.508686 21.4032 0.937335 21.832L1.10335 21.9863C1.50298 22.3309 1.98667 22.568 2.50765 22.6719L2.73226 22.708C3.25713 22.7724 3.7903 22.7001 4.27913 22.498L4.48519 22.4033C4.9565 22.1663 5.35996 21.8114 5.65511 21.3711C5.87428 21.0439 6.02567 20.6783 6.10628 20.2969C6.22902 20.8779 6.51688 21.4114 6.93734 21.832L7.10335 21.9863C7.50298 22.3309 7.98667 22.568 8.50765 22.6719L8.73226 22.708C9.25713 22.7724 9.7903 22.7001 10.2791 22.498L10.4852 22.4033C10.9565 22.1663 11.36 21.8114 11.6551 21.3711C11.8743 21.0439 12.0257 20.6783 12.1063 20.2969C12.229 20.8779 12.5169 21.4114 12.9373 21.832L13.1034 21.9863C13.503 22.3309 13.9867 22.568 14.5076 22.6719L14.7323 22.708C15.2571 22.7724 15.7903 22.7001 16.2791 22.498L16.4852 22.4033C16.9565 22.1663 17.36 21.8114 17.6551 21.3711C17.8743 21.0439 18.0257 20.6783 18.1063 20.2969C18.229 20.8779 18.5169 21.4114 18.9373 21.832L19.1034 21.9863C19.503 22.3309 19.9867 22.568 20.5076 22.6719L20.7323 22.708C21.2571 22.7724 21.7903 22.7001 22.2791 22.498L22.4852 22.4033C22.9565 22.1663 23.36 21.8114 23.6551 21.3711C23.9926 20.8673 24.1736 20.2742 24.1746 19.668V19.666C24.1746 18.903 23.891 18.1683 23.3807 17.6045L23.2752 17.4941C22.7354 16.9545 22.0154 16.6364 21.2567 16.5986L21.1043 16.5947H21.1024C20.651 16.5955 20.2065 16.6959 19.8006 16.8867C20.1367 16.6639 20.4285 16.3781 20.6551 16.04C20.9926 15.5363 21.1736 14.9429 21.1746 14.3369V14.335C21.1746 13.521 20.8516 12.7395 20.2752 12.1631C19.7354 11.6233 19.0154 11.3053 18.2567 11.2676L18.1043 11.2637H18.1024C17.7298 11.2643 17.3618 11.3327 17.0164 11.4639C17.2624 11.2678 17.4788 11.0357 17.6551 10.7725C17.9913 10.2707 18.1746 9.67898 18.1756 9.07031V9.06836C18.1756 8.3548 17.9269 7.66712 17.4793 7.12109L17.2752 6.89648C16.7356 6.35716 16.0155 6.03874 15.2567 6.00098L15.1043 5.99707H15.1024C14.6483 5.99782 14.2007 6.09885 13.7928 6.29199C14.1321 6.06874 14.4272 5.78105 14.6561 5.43945C14.9939 4.93515 15.1746 4.342 15.1756 3.73633V3.73438C15.1754 2.91866 14.8499 2.1382 14.2752 1.56348C13.7354 1.02371 13.0155 0.705688 12.2567 0.667969ZM5.27523 17.4941C5.12785 17.3468 4.96709 17.2156 4.79573 17.1025C5.02157 17.2095 5.25987 17.2914 5.50765 17.3408L5.73226 17.377C6.25713 17.4414 6.7903 17.369 7.27913 17.167L7.4139 17.1045L7.39925 17.1143C6.95783 17.4101 6.60179 17.814 6.36507 18.2852L6.27132 18.4912C6.19896 18.6664 6.14493 18.8476 6.10628 19.0312C5.99467 18.5029 5.74718 18.0094 5.38069 17.6045L5.27523 17.4941ZM11.2752 17.4941C11.1279 17.3468 10.9671 17.2156 10.7957 17.1025C11.0216 17.2095 11.2599 17.2914 11.5076 17.3408L11.7323 17.377C12.2571 17.4414 12.7903 17.369 13.2791 17.167L13.4139 17.1045L13.3992 17.1143C12.9578 17.4101 12.6018 17.814 12.3651 18.2852L12.2713 18.4912C12.199 18.6664 12.1449 18.8476 12.1063 19.0312C11.9947 18.5029 11.7472 18.0094 11.3807 17.6045L11.2752 17.4941ZM17.2752 17.4941C17.1278 17.3468 16.9671 17.2156 16.7957 17.1025C17.0216 17.2095 17.2599 17.2914 17.5076 17.3408L17.7323 17.377C18.2571 17.4414 18.7903 17.369 19.2791 17.167L19.4139 17.1045L19.3993 17.1143C18.9578 17.4101 18.6018 17.814 18.3651 18.2852L18.2713 18.4912C18.199 18.6664 18.1449 18.8476 18.1063 19.0312C17.9947 18.5029 17.7472 18.0094 17.3807 17.6045L17.2752 17.4941ZM8.65511 16.0391C8.87428 15.7119 9.02567 15.3473 9.10628 14.9658C9.22902 15.5466 9.51672 16.0803 9.93734 16.501C10.0877 16.6513 10.2531 16.7841 10.4295 16.8994C10.0643 16.7244 9.6669 16.6191 9.25667 16.5986L9.10433 16.5947H9.10237C8.65105 16.5955 8.20652 16.6959 7.80062 16.8867C8.13664 16.6639 8.42846 16.3772 8.65511 16.0391ZM14.6551 16.0391C14.8743 15.7119 15.0257 15.3472 15.1063 14.9658C15.229 15.5466 15.5167 16.0803 15.9373 16.501C16.0877 16.6513 16.2531 16.7841 16.4295 16.8994C16.0643 16.7244 15.6669 16.6191 15.2567 16.5986L15.1043 16.5947H15.1024C14.651 16.5955 14.2065 16.6959 13.8006 16.8867C14.1367 16.6639 14.4285 16.3771 14.6551 16.0391ZM8.27523 12.1631C8.19041 12.0783 8.09983 12.0004 8.00667 11.9268C8.1687 11.9891 8.3358 12.04 8.50765 12.0742C9.07207 12.1866 9.65597 12.1357 10.1942 11.9316C9.84684 12.2085 9.56413 12.5579 9.36507 12.9541L9.27132 13.1602C9.19899 13.3353 9.14492 13.5165 9.10628 13.7002C8.99467 13.1719 8.74718 12.6783 8.38069 12.2734L8.27523 12.1631ZM14.2752 12.1631C14.1909 12.0788 14.1012 12.001 14.0086 11.9277C14.1702 11.9897 14.3367 12.0401 14.5076 12.0742C15.0721 12.1866 15.656 12.1357 16.1942 11.9316C15.8468 12.2085 15.5641 12.5579 15.3651 12.9541L15.2713 13.1602C15.199 13.3353 15.1449 13.5165 15.1063 13.7002C14.9843 13.1227 14.6993 12.5872 14.2752 12.1631ZM11.6551 10.7725C11.8732 10.4469 12.026 10.0835 12.1073 9.70215C12.2301 10.2812 12.5166 10.8146 12.9373 11.2354C13.0214 11.3194 13.1114 11.3965 13.2039 11.4697C12.9027 11.3541 12.5836 11.2839 12.2567 11.2676L12.1043 11.2637H12.1024C11.7298 11.2643 11.3618 11.3327 11.0164 11.4639C11.2624 11.2677 11.4788 11.0356 11.6551 10.7725ZM11.2752 6.89648C11.1214 6.74272 10.9521 6.60764 10.7723 6.49121C11.0053 6.6038 11.2517 6.68921 11.5076 6.74023C12.1017 6.85859 12.7183 6.79916 13.2791 6.56738C13.3194 6.55072 13.3588 6.53196 13.398 6.51323C13.4059 6.50946 13.4138 6.5057 13.4217 6.50195C13.4183 6.5042 13.4149 6.50641 13.4114 6.50863C13.4073 6.51126 13.4033 6.5139 13.3992 6.5166C12.8947 6.8547 12.5025 7.33425 12.2713 7.89355C12.1993 8.06782 12.1459 8.248 12.1073 8.43066C12.0054 7.95157 11.7914 7.50175 11.4793 7.12109L11.2752 6.89648Z" fill="black"/>
</svg>
