<svg width="24" height="24" viewBox="0 0 24 24" fill="none" xmlns="http://www.w3.org/2000/svg">
<path d="M12.1043 1.9126C11.7449 1.91319 11.3938 2.02026 11.0952 2.22027C10.7967 2.42028 10.5641 2.70427 10.4269 3.03638C10.2897 3.36848 10.2539 3.73381 10.3241 4.08622C10.3944 4.43864 10.5675 4.76233 10.8216 5.01643C11.0757 5.27052 11.3994 5.44362 11.7518 5.51388C12.1042 5.58413 12.4695 5.54837 12.8016 5.41113C13.1338 5.27389 13.4177 5.04132 13.6177 4.74278C13.8178 4.44424 13.9248 4.09313 13.9254 3.73378C13.9254 3.25077 13.7336 2.78755 13.392 2.44601C13.0505 2.10447 12.5873 1.9126 12.1043 1.9126Z" fill="black"/>
<path d="M9.10426 7.24609C8.74491 7.24669 8.39377 7.35375 8.09523 7.55376C7.79669 7.75378 7.56414 8.03777 7.4269 8.36987C7.28966 8.70198 7.25389 9.06731 7.32414 9.41972C7.39439 9.77213 7.5675 10.0958 7.8216 10.3499C8.07569 10.604 8.39938 10.7771 8.75179 10.8474C9.1042 10.9176 9.46954 10.8819 9.80165 10.7446C10.1338 10.6074 10.4177 10.3748 10.6177 10.0763C10.8178 9.77774 10.9248 9.42663 10.9254 9.06728C10.9254 8.58427 10.7336 8.12105 10.392 7.77951C10.0505 7.43797 9.58727 7.24609 9.10426 7.24609Z" fill="black"/>
<path d="M14.0952 7.55392C14.3938 7.3539 14.7449 7.24684 15.1043 7.24625C15.5873 7.24625 16.0505 7.43812 16.392 7.77966C16.7336 8.1212 16.9254 8.58442 16.9254 9.06743C16.9248 9.42678 16.8178 9.77789 16.6177 10.0764C16.4177 10.375 16.1338 10.6075 15.8016 10.7448C15.4695 10.882 15.1042 10.9178 14.7518 10.8475C14.3994 10.7773 14.0757 10.6042 13.8216 10.3501C13.5675 10.096 13.3944 9.77228 13.3241 9.41987C13.2539 9.06746 13.2897 8.70213 13.4269 8.37003C13.5641 8.03792 13.7967 7.75393 14.0952 7.55392Z" fill="black"/>
<path d="M6.10426 12.5126C5.74491 12.5132 5.39377 12.6203 5.09523 12.8203C4.79669 13.0203 4.56414 13.3043 4.4269 13.6364C4.28966 13.9685 4.25389 14.3338 4.32414 14.6862C4.39439 15.0386 4.5675 15.3623 4.8216 15.6164C5.07569 15.8705 5.39938 16.0436 5.75179 16.1139C6.1042 16.1841 6.46954 16.1484 6.80165 16.0111C7.13375 15.8739 7.41774 15.6413 7.61775 15.3428C7.81776 15.0442 7.92483 14.6931 7.92543 14.3338C7.92543 13.8508 7.73356 13.3875 7.39202 13.046C7.05049 12.7045 6.58727 12.5126 6.10426 12.5126Z" fill="black"/>
<path d="M11.0952 12.8201C11.3938 12.6201 11.7449 12.513 12.1043 12.5124C12.5873 12.5124 13.0505 12.7043 13.392 13.0459C13.7336 13.3874 13.9254 13.8506 13.9254 14.3336C13.9248 14.693 13.8178 15.0441 13.6177 15.3426C13.4177 15.6412 13.1338 15.8737 12.8016 16.011C12.4695 16.1482 12.1042 16.184 11.7518 16.1137C11.3994 16.0435 11.0757 15.8704 10.8216 15.6163C10.5675 15.3622 10.3944 15.0385 10.3241 14.6861C10.2539 14.3337 10.2897 13.9683 10.4269 13.6362C10.5641 13.3041 10.7967 13.0201 11.0952 12.8201Z" fill="black"/>
<path d="M18.1043 12.5124C17.7449 12.513 17.3938 12.6201 17.0952 12.8201C16.7967 13.0201 16.5641 13.3041 16.4269 13.6362C16.2897 13.9683 16.2539 14.3337 16.3241 14.6861C16.3944 15.0385 16.5675 15.3622 16.8216 15.6163C17.0757 15.8704 17.3994 16.0435 17.7518 16.1137C18.1042 16.184 18.4695 16.1482 18.8016 16.011C19.1338 15.8737 19.4177 15.6412 19.6177 15.3426C19.8178 15.0441 19.9248 14.693 19.9254 14.3336C19.9254 13.8506 19.7336 13.3874 19.392 13.0459C19.0505 12.7043 18.5873 12.5124 18.1043 12.5124Z" fill="black"/>
<path d="M2.09523 18.1513C2.39377 17.9513 2.74491 17.8442 3.10426 17.8437C3.58727 17.8437 4.05048 18.0355 4.39202 18.3771C4.73356 18.7186 4.92543 19.1818 4.92543 19.6648C4.92483 20.0242 4.81776 20.3753 4.61775 20.6738C4.41774 20.9724 4.13375 21.2049 3.80165 21.3422C3.46954 21.4794 3.1042 21.5152 2.75179 21.4449C2.39938 21.3747 2.07569 21.2016 1.8216 20.9475C1.5675 20.6934 1.39439 20.3697 1.32414 20.0173C1.25389 19.6649 1.28966 19.2995 1.4269 18.9674C1.56414 18.6353 1.79669 18.3513 2.09523 18.1513Z" fill="black"/>
<path d="M15.1043 17.8437C14.7449 17.8442 14.3938 17.9513 14.0952 18.1513C13.7967 18.3513 13.5641 18.6353 13.4269 18.9674C13.2897 19.2995 13.2539 19.6649 13.3241 20.0173C13.3944 20.3697 13.5675 20.6934 13.8216 20.9475C14.0757 21.2016 14.3994 21.3747 14.7518 21.4449C15.1042 21.5152 15.4695 21.4794 15.8016 21.3422C16.1338 21.2049 16.4177 20.9724 16.6177 20.6738C16.8178 20.3753 16.9248 20.0242 16.9254 19.6648C16.9254 19.1818 16.7336 18.7186 16.392 18.3771C16.0505 18.0355 15.5873 17.8437 15.1043 17.8437Z" fill="black"/>
<path d="M8.09523 18.1513C8.39377 17.9513 8.74491 17.8442 9.10426 17.8437C9.58727 17.8437 10.0505 18.0355 10.392 18.3771C10.7336 18.7186 10.9254 19.1818 10.9254 19.6648C10.9248 20.0242 10.8178 20.3753 10.6177 20.6738C10.4177 20.9724 10.1338 21.2049 9.80165 21.3422C9.46954 21.4794 9.1042 21.5152 8.75179 21.4449C8.39938 21.3747 8.07569 21.2016 7.8216 20.9475C7.5675 20.6934 7.39439 20.3697 7.32414 20.0173C7.25389 19.6649 7.28966 19.2995 7.4269 18.9674C7.56414 18.6353 7.79669 18.3513 8.09523 18.1513Z" fill="black"/>
<path d="M21.1043 17.8437C20.7449 17.8442 20.3938 17.9513 20.0952 18.1513C19.7967 18.3513 19.5641 18.6353 19.4269 18.9674C19.2897 19.2995 19.2539 19.6649 19.3241 20.0173C19.3944 20.3697 19.5675 20.6934 19.8216 20.9475C20.0757 21.2016 20.3994 21.3747 20.7518 21.4449C21.1042 21.5152 21.4695 21.4794 21.8016 21.3422C22.1338 21.2049 22.4177 20.9724 22.6177 20.6738C22.8178 20.3753 22.9248 20.0242 22.9254 19.6648C22.9254 19.1818 22.7336 18.7186 22.392 18.3771C22.0505 18.0355 21.5873 17.8437 21.1043 17.8437Z" fill="black"/>
</svg>
