<svg width="24" height="24" viewBox="0 0 24 24" fill="none" xmlns="http://www.w3.org/2000/svg">
<path fill-rule="evenodd" clip-rule="evenodd" d="M21.4551 6.39746C21.7309 6.39771 21.9549 6.62166 21.9551 6.89746C21.9549 7.17326 21.7309 7.39721 21.4551 7.39746H20.1543V10.7031C20.1543 11.8141 20.1541 12.6783 20.0977 13.3701C20.0406 14.0677 19.9228 14.6356 19.6631 15.1455C19.2317 15.992 18.5437 16.6809 17.6973 17.1123C17.1873 17.3721 16.6197 17.4899 15.9219 17.5469C15.2298 17.6034 14.3657 17.6025 13.2539 17.6025H10.4463C9.33471 17.6025 8.47032 17.6034 7.77832 17.5469C7.08056 17.4899 6.5129 17.3721 6.00293 17.1123C5.15644 16.6809 4.46753 15.992 4.03613 15.1455C3.77651 14.6357 3.65955 14.0676 3.60254 13.3701C3.54608 12.6783 3.5459 11.8141 3.5459 10.7031V7.39746H2.54492C2.26909 7.39726 2.04514 7.17329 2.04492 6.89746C2.04514 6.62163 2.26909 6.39766 2.54492 6.39746H21.4551ZM4.5459 10.7031C4.5459 11.8307 4.54624 12.6474 4.59863 13.2891C4.65059 13.9247 4.75182 14.346 4.92773 14.6914C5.26325 15.3497 5.7987 15.8862 6.45703 16.2217C6.8025 16.3976 7.22368 16.4979 7.85938 16.5498C8.50127 16.6022 9.31803 16.6025 10.4463 16.6025H13.2539C14.3822 16.6025 15.1989 16.6022 15.8408 16.5498C16.4766 16.4978 16.8977 16.3977 17.2432 16.2217C17.9016 15.8862 18.4369 15.3498 18.7725 14.6914C18.9484 14.346 19.0486 13.9246 19.1006 13.2891C19.153 12.6474 19.1543 11.8308 19.1543 10.7031V7.39746H4.5459V10.7031Z" fill="black"/>
</svg>
