<svg width="25" height="24" viewBox="0 0 25 24" fill="none" xmlns="http://www.w3.org/2000/svg">
<path d="M23.2 9.00098C23.8903 9.00099 24.45 9.56063 24.45 10.251C24.45 10.9413 23.8903 11.501 23.2 11.501H22.45V15.0039C22.45 15.8071 22.45 16.4561 22.407 16.9824C22.3623 17.529 22.2671 18.0089 22.0408 18.4531C21.6812 19.1587 21.1077 19.7323 20.4021 20.0918C19.9579 20.3181 19.478 20.4133 18.9314 20.458C18.405 20.501 17.7561 20.501 16.9529 20.501H12.447C11.6438 20.501 10.9949 20.501 10.4685 20.458C9.9219 20.4133 9.442 20.3181 8.9978 20.0918C8.2922 19.7323 7.71866 19.1587 7.35913 18.4531C7.13282 18.0089 7.03758 17.529 6.99292 16.9824C6.94992 16.4561 6.94993 15.8071 6.94995 15.0039V11.501H6.44995C5.7596 11.501 5.19995 10.9413 5.19995 10.251C5.19995 9.56062 5.7596 9.00098 6.44995 9.00098H23.2Z" fill="black"/>
<path d="M18.4998 4.75C19.1899 4.75 19.7495 5.30987 19.7498 6C19.7498 6.69036 19.1901 7.25098 18.4998 7.25098H5.94995C4.56924 7.25098 3.44995 8.37026 3.44995 9.75098C3.44995 10.6757 3.95352 11.4806 4.69995 11.9131V14.4512C4.69995 15.0035 4.69935 15.5322 4.71558 16.0127C4.57258 15.9658 4.43308 15.9108 4.29761 15.8418C3.5921 15.4823 3.01847 14.9086 2.65894 14.2031C2.43269 13.7591 2.3374 13.2788 2.29272 12.7324C2.24973 12.2062 2.24974 11.5569 2.24976 10.7539V7.25098H1.74976C1.05949 7.25087 0.499756 6.69029 0.499756 6C0.500023 5.30994 1.05966 4.75011 1.74976 4.75H18.4998Z" fill="black"/>
</svg>
