<svg width="24" height="24" viewBox="0 0 24 24" fill="none" xmlns="http://www.w3.org/2000/svg">
<path fill-rule="evenodd" clip-rule="evenodd" d="M3.10416 16.8438C3.85223 16.8438 4.57028 17.141 5.09928 17.6699C5.62825 18.199 5.92545 18.9169 5.92545 19.665V19.667C5.92445 20.2239 5.75784 20.7679 5.44791 21.2305C5.1379 21.6931 4.69794 22.0539 4.18326 22.2666C3.66869 22.4792 3.10233 22.5346 2.55631 22.4258C2.01019 22.3168 1.50769 22.0481 1.11392 21.6543C0.72036 21.2605 0.452272 20.7589 0.343417 20.2129C0.234564 19.6668 0.289999 19.1006 0.502596 18.5859C0.715272 18.0713 1.07608 17.6303 1.53873 17.3203C2.00127 17.0106 2.54556 16.8448 3.10221 16.8438H3.10416ZM3.10416 18.8438C2.94305 18.8444 2.78487 18.8928 2.65103 18.9824C2.51705 19.0724 2.4129 19.2004 2.35123 19.3496C2.28951 19.499 2.27277 19.6638 2.30435 19.8223C2.33597 19.9805 2.41399 20.126 2.52799 20.2402C2.64223 20.3545 2.78852 20.4322 2.94693 20.4639C3.10541 20.4955 3.27022 20.4796 3.41959 20.418C3.56888 20.3562 3.69681 20.2514 3.78678 20.1172C3.87639 19.9834 3.92484 19.8261 3.92545 19.665L3.92154 19.584C3.90292 19.3959 3.81904 19.2188 3.68424 19.084C3.53033 18.9303 3.32163 18.8438 3.10416 18.8438Z" fill="black"/>
<path fill-rule="evenodd" clip-rule="evenodd" d="M9.10416 16.8438C9.85222 16.8438 10.5703 17.141 11.0993 17.6699C11.6283 18.199 11.9254 18.9169 11.9254 19.665V19.667C11.9244 20.2239 11.7578 20.7679 11.4479 21.2305C11.1379 21.6931 10.6979 22.0539 10.1833 22.2666C9.66869 22.4792 9.10232 22.5346 8.55631 22.4258C8.01019 22.3168 7.50768 22.0481 7.11392 21.6543C6.72036 21.2605 6.45227 20.7589 6.34342 20.2129C6.23456 19.6668 6.29 19.1006 6.5026 18.5859C6.71527 18.0713 7.07609 17.6303 7.53873 17.3203C8.00126 17.0106 8.54557 16.8448 9.10221 16.8438H9.10416ZM9.10416 18.8438C8.94305 18.8444 8.78486 18.8928 8.65103 18.9824C8.51705 19.0724 8.4129 19.2004 8.35123 19.3496C8.28951 19.499 8.27277 19.6638 8.30435 19.8223C8.33596 19.9805 8.41399 20.126 8.52799 20.2402C8.64223 20.3545 8.78853 20.4322 8.94693 20.4639C9.10541 20.4955 9.27022 20.4796 9.41959 20.418C9.56888 20.3562 9.69681 20.2514 9.78678 20.1172C9.87639 19.9834 9.92484 19.8261 9.92545 19.665L9.92154 19.584C9.90292 19.3959 9.81903 19.2188 9.68424 19.084C9.53033 18.9303 9.32163 18.8438 9.10416 18.8438Z" fill="black"/>
<path fill-rule="evenodd" clip-rule="evenodd" d="M15.1042 16.8438C15.8522 16.8438 16.5703 17.141 17.0993 17.6699C17.6283 18.199 17.9254 18.9169 17.9254 19.665V19.667C17.9244 20.2239 17.7578 20.7679 17.4479 21.2305C17.1379 21.6931 16.6979 22.0539 16.1833 22.2666C15.6687 22.4792 15.1023 22.5346 14.5563 22.4258C14.0102 22.3168 13.5077 22.0481 13.1139 21.6543C12.7204 21.2605 12.4523 20.7589 12.3434 20.2129C12.2346 19.6668 12.29 19.1006 12.5026 18.5859C12.7153 18.0713 13.0761 17.6303 13.5387 17.3203C14.0013 17.0106 14.5456 16.8448 15.1022 16.8438H15.1042ZM15.1042 18.8438C14.9431 18.8444 14.7849 18.8928 14.651 18.9824C14.517 19.0724 14.4129 19.2004 14.3512 19.3496C14.2895 19.499 14.2728 19.6638 14.3044 19.8223C14.336 19.9805 14.414 20.126 14.528 20.2402C14.6422 20.3545 14.7885 20.4322 14.9469 20.4639C15.1054 20.4955 15.2702 20.4796 15.4196 20.418C15.5689 20.3562 15.6968 20.2514 15.7868 20.1172C15.8764 19.9834 15.9248 19.8261 15.9254 19.665L15.9215 19.584C15.9029 19.3959 15.819 19.2188 15.6842 19.084C15.5303 18.9303 15.3216 18.8438 15.1042 18.8438Z" fill="black"/>
<path fill-rule="evenodd" clip-rule="evenodd" d="M21.1042 16.8438C21.8522 16.8438 22.5703 17.141 23.0993 17.6699C23.6283 18.199 23.9254 18.9169 23.9254 19.665V19.667C23.9244 20.2239 23.7578 20.7679 23.4479 21.2305C23.1379 21.6931 22.6979 22.0539 22.1833 22.2666C21.6687 22.4792 21.1023 22.5346 20.5563 22.4258C20.0102 22.3168 19.5077 22.0481 19.1139 21.6543C18.7204 21.2605 18.4523 20.7589 18.3434 20.2129C18.2346 19.6668 18.29 19.1006 18.5026 18.5859C18.7153 18.0713 19.0761 17.6303 19.5387 17.3203C20.0013 17.0106 20.5456 16.8448 21.1022 16.8438H21.1042ZM21.1042 18.8438C20.9431 18.8444 20.7849 18.8928 20.651 18.9824C20.517 19.0724 20.4129 19.2004 20.3512 19.3496C20.2895 19.499 20.2728 19.6638 20.3044 19.8223C20.336 19.9805 20.414 20.126 20.528 20.2402C20.6422 20.3545 20.7885 20.4322 20.9469 20.4639C21.1054 20.4955 21.2702 20.4796 21.4196 20.418C21.5689 20.3562 21.6968 20.2514 21.7868 20.1172C21.8764 19.9834 21.9248 19.8261 21.9254 19.665L21.9215 19.584C21.9029 19.3959 21.819 19.2188 21.6842 19.084C21.5303 18.9303 21.3216 18.8438 21.1042 18.8438Z" fill="black"/>
<path fill-rule="evenodd" clip-rule="evenodd" d="M6.10416 11.5127C6.85223 11.5128 7.57028 11.81 8.09928 12.3389C8.62825 12.8679 8.92545 13.5859 8.92545 14.334V14.3359C8.92445 14.8928 8.75784 15.4368 8.44791 15.8994C8.1379 16.362 7.69794 16.7229 7.18326 16.9355C6.66869 17.1481 6.10233 17.2035 5.55631 17.0947C5.01019 16.9858 4.50769 16.717 4.11392 16.3232C3.72036 15.9295 3.45227 15.4278 3.34342 14.8818C3.23456 14.3357 3.29 13.7695 3.5026 13.2549C3.71527 12.7402 4.07608 12.2993 4.53873 11.9893C5.00127 11.6795 5.54556 11.5137 6.10221 11.5127H6.10416ZM6.10416 13.5127C5.94305 13.5133 5.78487 13.5617 5.65103 13.6514C5.51705 13.7413 5.4129 13.8693 5.35123 14.0186C5.28951 14.168 5.27277 14.3327 5.30435 14.4912C5.33597 14.6494 5.41399 14.795 5.52799 14.9092C5.64223 15.0234 5.78852 15.1011 5.94693 15.1328C6.10541 15.1644 6.27022 15.1486 6.41959 15.0869C6.56888 15.0252 6.69681 14.9203 6.78678 14.7861C6.87639 14.6523 6.92484 14.495 6.92545 14.334L6.92154 14.2529C6.90292 14.0648 6.81904 13.8877 6.68424 13.7529C6.53033 13.5993 6.32163 13.5128 6.10416 13.5127Z" fill="black"/>
<path fill-rule="evenodd" clip-rule="evenodd" d="M12.1042 11.5127C12.8523 11.5128 13.5703 11.8099 14.0993 12.3389C14.6283 12.8679 14.9254 13.5859 14.9254 14.334V14.3359C14.9244 14.8927 14.7578 15.4369 14.4479 15.8994C14.1379 16.362 13.6979 16.7229 13.1833 16.9355C12.6687 17.1481 12.1023 17.2035 11.5563 17.0947C11.0102 16.9858 10.5077 16.717 10.1139 16.3232C9.72034 15.9295 9.45229 15.4278 9.34342 14.8818C9.23456 14.3357 9.29004 13.7695 9.5026 13.2549C9.71526 12.7403 10.0761 12.2993 10.5387 11.9893C11.0013 11.6795 11.5456 11.5137 12.1022 11.5127H12.1042ZM12.1042 13.5127C11.9431 13.5133 11.7849 13.5617 11.651 13.6514C11.5171 13.7413 11.4129 13.8694 11.3512 14.0186C11.2896 14.168 11.2728 14.3327 11.3044 14.4912C11.336 14.6494 11.414 14.795 11.528 14.9092C11.6422 15.0234 11.7885 15.1011 11.9469 15.1328C12.1054 15.1644 12.2702 15.1485 12.4196 15.0869C12.5688 15.0252 12.6968 14.9203 12.7868 14.7861C12.8764 14.6523 12.9248 14.4949 12.9254 14.334L12.9215 14.2529C12.9029 14.0648 12.819 13.8877 12.6842 13.7529C12.5303 13.5992 12.3217 13.5128 12.1042 13.5127Z" fill="black"/>
<path fill-rule="evenodd" clip-rule="evenodd" d="M18.1042 11.5127C18.8523 11.5128 19.5703 11.8099 20.0993 12.3389C20.6283 12.8679 20.9254 13.5859 20.9254 14.334V14.3359C20.9244 14.8927 20.7578 15.4369 20.4479 15.8994C20.1379 16.362 19.6979 16.7229 19.1833 16.9355C18.6687 17.1481 18.1023 17.2035 17.5563 17.0947C17.0102 16.9858 16.5077 16.717 16.1139 16.3232C15.7203 15.9295 15.4523 15.4278 15.3434 14.8818C15.2346 14.3357 15.29 13.7695 15.5026 13.2549C15.7153 12.7403 16.0761 12.2993 16.5387 11.9893C17.0013 11.6795 17.5456 11.5137 18.1022 11.5127H18.1042ZM18.1042 13.5127C17.9431 13.5133 17.7849 13.5617 17.651 13.6514C17.5171 13.7413 17.4129 13.8694 17.3512 14.0186C17.2896 14.168 17.2728 14.3327 17.3044 14.4912C17.336 14.6494 17.414 14.795 17.528 14.9092C17.6422 15.0234 17.7885 15.1011 17.9469 15.1328C18.1054 15.1644 18.2702 15.1485 18.4196 15.0869C18.5688 15.0252 18.6968 14.9203 18.7868 14.7861C18.8764 14.6523 18.9248 14.4949 18.9254 14.334L18.9215 14.2529C18.9029 14.0648 18.819 13.8877 18.6842 13.7529C18.5303 13.5992 18.3217 13.5128 18.1042 13.5127Z" fill="black"/>
<path fill-rule="evenodd" clip-rule="evenodd" d="M9.10416 6.34668C9.85231 6.34674 10.5703 6.64384 11.0993 7.17285C11.6282 7.70191 11.9254 8.41987 11.9254 9.16797V9.16992C11.9244 9.72661 11.7578 10.2709 11.4479 10.7334C11.1379 11.1958 10.6978 11.5569 10.1833 11.7695C9.66873 11.982 9.10226 12.0375 8.55631 11.9287C8.01019 11.8198 7.5077 11.551 7.11392 11.1572C6.72036 10.7635 6.45234 10.2617 6.34342 9.71582C6.23458 9.16982 6.29013 8.60341 6.5026 8.08887C6.71524 7.57431 7.0762 7.13326 7.53873 6.82324C8.00126 6.51348 8.54557 6.34768 9.10221 6.34668H9.10416ZM9.10416 8.34668C8.94305 8.3473 8.78487 8.39569 8.65103 8.48535C8.51716 8.5753 8.41286 8.70341 8.35123 8.85254C8.28964 9.00186 8.27278 9.16683 8.30435 9.3252C8.33603 9.48335 8.41399 9.62904 8.52799 9.74316C8.64224 9.85739 8.78852 9.93515 8.94693 9.9668C9.10535 9.99838 9.27027 9.98249 9.41959 9.9209C9.56875 9.85921 9.69682 9.75416 9.78678 9.62012C9.8763 9.48642 9.92474 9.32881 9.92545 9.16797L9.92154 9.08691C9.90293 8.89885 9.819 8.72171 9.68424 8.58691C9.53032 8.43316 9.32171 8.34674 9.10416 8.34668Z" fill="black"/>
<path fill-rule="evenodd" clip-rule="evenodd" d="M15.1042 6.34668C15.8523 6.34674 16.5703 6.64384 17.0993 7.17285C17.6283 7.70192 17.9254 8.41984 17.9254 9.16797V9.16992C17.9244 9.72667 17.7578 10.2709 17.4479 10.7334C17.1379 11.1959 16.6979 11.5569 16.1833 11.7695C15.6687 11.9821 15.1023 12.0375 14.5563 11.9287C14.0102 11.8198 13.5077 11.551 13.1139 11.1572C12.7203 10.7635 12.4523 10.2618 12.3434 9.71582C12.2346 9.16977 12.2901 8.60345 12.5026 8.08887C12.7152 7.57428 13.0762 7.13327 13.5387 6.82324C14.0013 6.51348 14.5456 6.34768 15.1022 6.34668H15.1042ZM15.1042 8.34668C14.9431 8.3473 14.7849 8.39569 14.651 8.48535C14.5171 8.5753 14.4129 8.70338 14.3512 8.85254C14.2896 9.0019 14.2728 9.16678 14.3044 9.3252C14.336 9.4834 14.414 9.62901 14.528 9.74316C14.6422 9.85742 14.7885 9.93514 14.9469 9.9668C15.1054 9.99838 15.2703 9.98251 15.4196 9.9209C15.5688 9.85919 15.6968 9.75422 15.7868 9.62012C15.8763 9.48638 15.9248 9.32886 15.9254 9.16797L15.9215 9.08691C15.9029 8.89882 15.819 8.72172 15.6842 8.58691C15.5303 8.43317 15.3217 8.34674 15.1042 8.34668Z" fill="black"/>
<path fill-rule="evenodd" clip-rule="evenodd" d="M12.1042 1.0127C12.8522 1.01276 13.5703 1.30996 14.0993 1.83887C14.6283 2.36793 14.9254 3.08585 14.9254 3.83398V3.83594C14.9244 4.3928 14.7578 4.93681 14.4479 5.39941C14.1379 5.86202 13.6979 6.22286 13.1833 6.43555C12.6687 6.64812 12.1023 6.7035 11.5563 6.59473C11.0102 6.48579 10.5077 6.21701 10.1139 5.82324C9.72036 5.42949 9.45227 4.92783 9.34342 4.38184C9.23456 3.83571 9.29 3.26952 9.5026 2.75488C9.71527 2.24024 10.0761 1.79929 10.5387 1.48926C11.0013 1.1795 11.5456 1.0137 12.1022 1.0127H12.1042ZM12.1042 3.0127C11.943 3.01331 11.7849 3.0617 11.651 3.15137C11.517 3.24133 11.4129 3.36934 11.3512 3.51855C11.2895 3.66797 11.2728 3.83271 11.3044 3.99121C11.336 4.14944 11.414 4.29499 11.528 4.40918C11.6422 4.52342 11.7885 4.60115 11.9469 4.63281C12.1054 4.6644 12.2702 4.64857 12.4196 4.58691C12.5689 4.52517 12.6968 4.42035 12.7868 4.28613C12.8764 4.1523 12.9248 3.995 12.9254 3.83398L12.9215 3.75293C12.9029 3.56485 12.819 3.38773 12.6842 3.25293C12.5303 3.09928 12.3216 3.01276 12.1042 3.0127Z" fill="black"/>
</svg>
