<svg width="24" height="24" viewBox="0 0 24 24" fill="none" xmlns="http://www.w3.org/2000/svg">
<path fill-rule="evenodd" clip-rule="evenodd" d="M6.9454 2.83986C3.5292 2.39427 0.5 5.05402 0.5 8.49916C0.5 10.7209 1.75975 12.6159 3.57065 13.5622L4.23209 18.523C4.27037 18.8106 4.29655 19.0072 4.34574 19.1808C4.61474 20.13 5.41684 20.8323 6.3933 20.9734C6.57188 20.9993 6.7702 20.9992 7.06025 20.9992H7.14688C7.47332 20.9992 7.6957 20.9993 7.89045 20.9685C8.96069 20.7993 9.8001 19.9599 9.96932 18.8896C10.0001 18.6949 10.0001 18.4725 10 18.146L10 13.76L22.9589 12.0697C23.2684 12.0294 23.5 11.7656 23.5 11.4535V5.54482C23.5 5.23267 23.2684 4.96896 22.9589 4.92858L6.9454 2.83986ZM22.5 5.87719L18.5 5.35546V11.6429L22.5 11.1211V5.87719ZM6.81606 3.83146L17.5 5.22502V11.7733L6.81606 13.1669C3.99844 13.5344 1.5 11.3407 1.5 8.49916C1.5 5.65766 3.99843 3.46395 6.81606 3.83146ZM9 13.8905L6.9454 14.1585C6.14295 14.2631 5.36184 14.1964 4.63634 13.9885L5.21798 18.3508C5.26367 18.6935 5.28088 18.8129 5.30786 18.9081C5.46925 19.4777 5.95052 19.899 6.53639 19.9837C6.63434 19.9979 6.75497 19.9992 7.10066 19.9992C7.49072 19.9992 7.62764 19.9976 7.73427 19.9808C8.37642 19.8792 8.88006 19.3756 8.98159 18.7334C8.99845 18.6268 9 18.4899 9 18.0998V13.8905Z" fill="black"/>
</svg>
