<svg width="24" height="24" viewBox="0 0 24 24" fill="none" xmlns="http://www.w3.org/2000/svg">
<path fill-rule="evenodd" clip-rule="evenodd" d="M6.9454 2.8406C3.5292 2.395 0.5 5.05475 0.5 8.49989C0.5 10.4898 1.51062 12.2177 3.0227 13.2365L3.73887 18.608C3.77446 18.8761 3.80526 19.1081 3.86469 19.3178C4.18748 20.4569 5.15 21.2996 6.32175 21.469C6.53747 21.5002 6.77151 21.5001 7.042 21.4999L7.16765 21.4999C7.47167 21.5001 7.73326 21.5003 7.96853 21.4631C9.25283 21.26 10.2601 20.2527 10.4632 18.9684C10.5004 18.7332 10.5002 18.4716 10.5 18.1676L10.5 13.6955L22.9589 12.0705C23.2684 12.0301 23.5 11.7664 23.5 11.4542V5.54556C23.5 5.2334 23.2684 4.96969 22.9589 4.92931L6.9454 2.8406ZM21.5 6.75596L19 6.42988V10.5699L21.5 10.2438V6.75596ZM6.68672 4.8238L17 6.16901V10.8308L6.68673 12.176C4.46767 12.4654 2.5 10.7377 2.5 8.49989C2.5 6.26204 4.46767 4.53435 6.68672 4.8238ZM8.5 13.9564L6.9454 14.1592C6.33173 14.2392 5.73054 14.2191 5.15715 14.1121L5.7136 18.2855C5.76149 18.6447 5.77417 18.7205 5.78892 18.7725C5.89651 19.1522 6.21736 19.4331 6.60794 19.4896C6.66149 19.4973 6.73826 19.4999 7.10066 19.4999C7.5098 19.4999 7.59813 19.4968 7.65618 19.4876C8.08428 19.4199 8.42004 19.0842 8.48773 18.6561C8.49691 18.598 8.5 18.5097 8.5 18.1006V13.9564Z" fill="black"/>
</svg>
