<svg width="24" height="24" viewBox="0 0 24 24" fill="none" xmlns="http://www.w3.org/2000/svg">
<path fill-rule="evenodd" clip-rule="evenodd" d="M6.9454 2.8406C3.5292 2.395 0.5 5.05475 0.5 8.49989C0.5 10.8303 1.8861 12.8014 3.84047 13.695L4.47779 18.4749C4.51818 18.778 4.54211 18.9575 4.58627 19.1133C4.82837 19.9676 5.55026 20.5997 6.42907 20.7267C6.5894 20.7499 6.77048 20.7499 7.07622 20.7499H7.12868C7.47305 20.7499 7.67658 20.7499 7.8514 20.7223C8.81462 20.57 9.57009 19.8145 9.72239 18.8513C9.75003 18.6765 9.75002 18.4729 9.75 18.1286L9.75 13.7934L22.9589 12.0705C23.2684 12.0301 23.5 11.7664 23.5 11.4542V5.54556C23.5 5.2334 23.2684 4.96969 22.9589 4.92931L6.9454 2.8406ZM22.8942 5.42512L18.25 4.81934V12.1804L22.8942 11.5747C22.9547 11.5668 23 11.5152 23 11.4542V5.54556C23 5.48455 22.9547 5.43301 22.8942 5.42512ZM6.88073 3.3364L17.75 4.75413V12.2457L6.88073 13.6634C3.76382 14.0699 1 11.6432 1 8.49989C1 5.35657 3.76382 2.92984 6.88073 3.3364ZM9.25 13.8586L6.9454 14.1592C6.04497 14.2766 5.17141 14.1783 4.37313 13.9068L4.97018 18.3846C5.01476 18.719 5.03423 18.8602 5.06733 18.977C5.25563 19.6415 5.8171 20.1331 6.50062 20.2319C6.62077 20.2493 6.76333 20.2499 7.10066 20.2499C7.48119 20.2499 7.64239 20.2491 7.77331 20.2284C8.52249 20.11 9.11007 19.5224 9.22853 18.7732C9.24923 18.6423 9.25 18.4811 9.25 18.1006V13.8586Z" fill="black"/>
</svg>
