<svg width="24" height="24" viewBox="0 0 24 24" fill="none" xmlns="http://www.w3.org/2000/svg">
<path d="M12.75 6.5C13.1642 6.5 13.5 6.16421 13.5 5.75C13.5 5.33579 13.1642 5 12.75 5C12.3358 5 12 5.33579 12 5.75C12 6.16421 12.3358 6.5 12.75 6.5Z" fill="black"/>
<path d="M7.75 7.5C8.16421 7.5 8.5 7.16421 8.5 6.75C8.5 6.33579 8.16421 6 7.75 6C7.33579 6 7 6.33579 7 6.75C7 7.16421 7.33579 7.5 7.75 7.5Z" fill="black"/>
<path d="M17.5 6.75C17.5 7.16421 17.1642 7.5 16.75 7.5C16.3358 7.5 16 7.16421 16 6.75C16 6.33579 16.3358 6 16.75 6C17.1642 6 17.5 6.33579 17.5 6.75Z" fill="black"/>
<path fill-rule="evenodd" clip-rule="evenodd" d="M2.5 8.5H2.64704C4.00396 4.90164 7.45372 2.5 11.3246 2.5H12.6754C16.5463 2.5 19.996 4.90164 21.353 8.5H21.5C22.6046 8.5 23.5 9.39543 23.5 10.5C23.5 11.0973 23.2381 11.6335 22.8229 12C23.2381 12.3665 23.5 12.9027 23.5 13.5C23.5 14.6046 22.6046 15.5 21.5 15.5H21.4776C21.225 18.3033 18.869 20.5 16 20.5H8C5.13098 20.5 2.77504 18.3033 2.52242 15.5H2.5C1.39543 15.5 0.5 14.6046 0.5 13.5C0.5 12.9027 0.761878 12.3665 1.17709 12C0.761878 11.6335 0.5 11.0973 0.5 10.5C0.5 9.39543 1.39543 8.5 2.5 8.5ZM20.2749 8.5H3.72512C5.0223 5.48656 7.99928 3.5 11.3246 3.5H12.6754C16.0007 3.5 18.9777 5.48656 20.2749 8.5ZM2.5 9.5H21.5C22.0523 9.5 22.5 9.94772 22.5 10.5C22.5 11.0523 22.0523 11.5 21.5 11.5H2.5C1.94772 11.5 1.5 11.0523 1.5 10.5C1.5 9.94772 1.94772 9.5 2.5 9.5ZM1.5 13.5C1.5 12.9477 1.94772 12.5 2.5 12.5H21.5C22.0523 12.5 22.5 12.9477 22.5 13.5C22.5 14.0523 22.0523 14.5 21.5 14.5H2.5C1.94772 14.5 1.5 14.0523 1.5 13.5ZM10.5 15.5H9.5V16.5C9.5 17.6046 8.60457 18.5 7.5 18.5C6.39543 18.5 5.5 17.6046 5.5 16.5V15.5H3.52746C3.77619 17.75 5.68372 19.5 8 19.5H16C18.3163 19.5 20.2238 17.75 20.4725 15.5H14.5C14.5 16.6046 13.6046 17.5 12.5 17.5C11.3954 17.5 10.5 16.6046 10.5 15.5ZM11.5 15.5C11.5 16.0523 11.9477 16.5 12.5 16.5C13.0523 16.5 13.5 16.0523 13.5 15.5H11.5ZM6.5 15.5H8.5V16.5C8.5 17.0523 8.05228 17.5 7.5 17.5C6.94772 17.5 6.5 17.0523 6.5 16.5V15.5Z" fill="black"/>
</svg>
