<svg width="24" height="24" viewBox="0 0 24 24" fill="none" xmlns="http://www.w3.org/2000/svg">
<path fill-rule="evenodd" clip-rule="evenodd" d="M12.2496 7.16808C12.0913 7.09572 11.9093 7.09572 11.751 7.16808C11.6058 7.2344 11.5284 7.34531 11.4998 7.38791C11.4712 7.43053 11.4437 7.48112 11.4254 7.51481L5.68619 18.0367C5.66919 18.0677 5.64273 18.1161 5.62305 18.1617C5.60237 18.2095 5.55483 18.3277 5.57319 18.4778C5.59359 18.6446 5.68298 18.7952 5.81962 18.8929C5.94265 18.981 6.06913 18.9958 6.12104 19.0006C6.17042 19.0051 6.22556 19.005 6.26099 19.005H17.7396C17.775 19.005 17.8302 19.0051 17.8796 19.0006C17.9315 18.9958 18.0579 18.981 18.181 18.8929C18.3176 18.7952 18.407 18.6446 18.4274 18.4778C18.4458 18.3277 18.3982 18.2095 18.3776 18.1617C18.3579 18.1161 18.3314 18.0678 18.3144 18.0367L12.5752 7.51481C12.5569 7.48112 12.5294 7.43053 12.5008 7.38791C12.4722 7.34531 12.3948 7.2344 12.2496 7.16808ZM6.84257 18.005L12.0003 8.54914L17.158 18.005H6.84257Z" fill="black"/>
<path fill-rule="evenodd" clip-rule="evenodd" d="M12.6218 2.21481C12.2269 2.03509 11.7737 2.03509 11.3788 2.21481C11.0984 2.34245 10.9017 2.57681 10.7361 2.82186C10.5711 3.06592 10.3906 3.39426 10.1721 3.7914L1.8546 18.9142C1.64991 19.2863 1.47968 19.5958 1.36792 19.852C1.25479 20.1113 1.16697 20.3892 1.20222 20.6834C1.25228 21.1012 1.47552 21.4788 1.81747 21.724C2.05828 21.8967 2.34413 21.9536 2.62584 21.9795C2.90416 22.005 3.25731 22.005 3.68207 22.005H20.3185C20.7433 22.005 21.0964 22.005 21.3748 21.9795C21.6565 21.9536 21.9423 21.8967 22.1831 21.724C22.5251 21.4788 22.7483 21.1012 22.7984 20.6834C22.8336 20.3892 22.7458 20.1113 22.6327 19.852C22.5209 19.5958 22.3507 19.2864 22.146 18.9143L13.8284 3.79134C13.61 3.39424 13.4295 3.0659 13.2645 2.82186C13.0989 2.57681 12.9022 2.34245 12.6218 2.21481ZM11.7931 3.12495C11.9248 3.06504 12.0758 3.06504 12.2075 3.12495C12.2291 3.13478 12.2976 3.17693 12.436 3.38179C12.5721 3.58322 12.7308 3.87071 12.9641 4.29493L21.2581 19.3749C21.4775 19.7738 21.6249 20.0428 21.7161 20.2519C21.8081 20.4627 21.8085 20.5395 21.8055 20.5645C21.7888 20.7037 21.7144 20.8296 21.6004 20.9113C21.58 20.926 21.5125 20.9626 21.2834 20.9837C21.0563 21.0045 20.7495 21.005 20.2943 21.005H3.70633C3.25109 21.005 2.94427 21.0045 2.71715 20.9837C2.48813 20.9626 2.42064 20.926 2.4002 20.9113C2.28622 20.8296 2.21181 20.7037 2.19512 20.5645C2.19213 20.5395 2.19251 20.4627 2.28448 20.2519C2.37568 20.0428 2.52311 19.7738 2.7425 19.3749L11.0365 4.29493C11.2698 3.87071 11.4285 3.58322 11.5646 3.38179C11.703 3.17693 11.7715 3.13478 11.7931 3.12495Z" fill="black"/>
</svg>
