<svg width="24" height="24" viewBox="0 0 24 24" fill="none" xmlns="http://www.w3.org/2000/svg">
<path fill-rule="evenodd" clip-rule="evenodd" d="M12.401 7.52222C12.1459 7.40565 11.8527 7.40565 11.5975 7.52222C11.3561 7.63251 11.2318 7.81499 11.1945 7.87063C11.1565 7.9272 11.1217 7.99136 11.1063 8.01985L11.1024 8.02709L5.84942 17.6575L5.84584 17.664C5.83151 17.6901 5.79741 17.7522 5.77098 17.8134C5.74324 17.8776 5.66365 18.0695 5.69417 18.319C5.72703 18.5877 5.87105 18.8303 6.0912 18.9879C6.29562 19.1341 6.50228 19.1562 6.5719 19.1626C6.63825 19.1687 6.7091 19.1685 6.73889 19.1684L6.74633 19.1684H17.2522L17.2596 19.1684C17.2894 19.1685 17.3603 19.1687 17.4266 19.1626C17.4963 19.1562 17.7029 19.1341 17.9073 18.9879C18.1275 18.8303 18.2715 18.5877 18.3044 18.319C18.3349 18.0695 18.2553 17.8776 18.2276 17.8134C18.2012 17.7523 18.1671 17.6902 18.1527 17.6641L18.1491 17.6575L12.8962 8.02709L12.8923 8.01985C12.8768 7.99135 12.842 7.92718 12.8041 7.87063C12.7668 7.81499 12.6424 7.63251 12.401 7.52222ZM7.97324 17.4184L11.9993 10.0373L16.0253 17.4184H7.97324Z" fill="black"/>
<path fill-rule="evenodd" clip-rule="evenodd" d="M12.8279 1.75971C12.3015 1.52008 11.6971 1.52008 11.1707 1.75971C10.7609 1.94625 10.5 2.27673 10.3208 2.54187C10.1428 2.80528 9.95256 3.15121 9.74182 3.53442L1.40701 18.6886C1.20971 19.0473 1.02975 19.3744 0.908642 19.652C0.78494 19.9355 0.653398 20.314 0.704781 20.7429C0.771526 21.2999 1.06917 21.8033 1.52511 22.1303C1.87611 22.382 2.27113 22.4491 2.57918 22.4774C2.8808 22.505 3.25413 22.505 3.6635 22.505H20.3351C20.7444 22.505 21.1178 22.505 21.4194 22.4774C21.7275 22.4491 22.1225 22.382 22.4735 22.1303C22.9294 21.8033 23.2271 21.2999 23.2938 20.7429C23.3452 20.314 23.2137 19.9355 23.09 19.652C22.9689 19.3744 22.7889 19.0474 22.5917 18.6887L14.2568 3.53448C14.0461 3.15124 13.8558 2.80529 13.6778 2.54187C13.4986 2.27673 13.2377 1.94625 12.8279 1.75971ZM11.4736 4.53586C11.7117 4.10295 11.8577 3.83963 11.9779 3.66172C11.9855 3.6505 11.9926 3.64016 11.9993 3.63064C12.006 3.64016 12.0131 3.6505 12.0207 3.66172C12.141 3.83963 12.2869 4.10295 12.525 4.53586L20.819 19.6158C21.0431 20.0233 21.177 20.2688 21.2568 20.4518C21.2616 20.4627 21.2659 20.4729 21.2699 20.4824C21.2597 20.4835 21.2486 20.4846 21.2368 20.4857C21.0379 20.5039 20.7583 20.5049 20.2933 20.5049H3.70534C3.24028 20.5049 2.96069 20.5039 2.76182 20.4857C2.74997 20.4846 2.73895 20.4835 2.72874 20.4824C2.73268 20.4729 2.73701 20.4627 2.74177 20.4518C2.82163 20.2688 2.95549 20.0233 3.17961 19.6158L11.4736 4.53586Z" fill="black"/>
</svg>
