<svg width="24" height="24" viewBox="0 0 24 24" fill="none" xmlns="http://www.w3.org/2000/svg">
<path fill-rule="evenodd" clip-rule="evenodd" d="M12.2494 7.16808C12.091 7.09572 11.9091 7.09572 11.7507 7.16808C11.6056 7.2344 11.5282 7.34531 11.4996 7.38791C11.471 7.43053 11.4435 7.48112 11.4251 7.51481L5.68595 18.0367C5.66895 18.0677 5.64248 18.1161 5.62281 18.1617C5.60213 18.2095 5.55458 18.3277 5.57295 18.4778C5.59334 18.6446 5.68274 18.7952 5.81938 18.8929C5.94241 18.981 6.06889 18.9958 6.12079 19.0006C6.17017 19.0051 6.22531 19.005 6.26074 19.005H17.7393C17.7748 19.005 17.8299 19.0051 17.8793 19.0006C17.9312 18.9958 18.0577 18.981 18.1807 18.8929C18.3174 18.7952 18.4068 18.6446 18.4272 18.4778C18.4455 18.3277 18.398 18.2095 18.3773 18.1617C18.3576 18.1161 18.3312 18.0678 18.3142 18.0367L12.575 7.51481C12.5566 7.48112 12.5291 7.43053 12.5005 7.38791C12.4719 7.34531 12.3946 7.2344 12.2494 7.16808ZM6.84233 18.005L12.0001 8.54914L17.1578 18.005H6.84233Z" fill="black"/>
<path fill-rule="evenodd" clip-rule="evenodd" d="M12.6215 2.21481C12.2267 2.03509 11.7734 2.03509 11.3786 2.21481C11.0982 2.34245 10.9014 2.57681 10.7358 2.82186C10.5709 3.06592 10.3903 3.39426 10.1719 3.7914L1.85436 18.9142C1.64966 19.2863 1.47944 19.5958 1.36767 19.852C1.25455 20.1113 1.16673 20.3892 1.20198 20.6834C1.25204 21.1012 1.47527 21.4788 1.81722 21.724C2.05804 21.8967 2.34388 21.9536 2.62559 21.9795C2.90392 22.005 3.25706 22.005 3.68182 22.005H20.3183C20.743 22.005 21.0962 22.005 21.3745 21.9795C21.6562 21.9536 21.9421 21.8967 22.1829 21.724C22.5248 21.4788 22.7481 21.1012 22.7981 20.6834C22.8334 20.3892 22.7456 20.1113 22.6324 19.852C22.5207 19.5958 22.3505 19.2864 22.1458 18.9143L13.8282 3.79134C13.6098 3.39424 13.4292 3.0659 13.2643 2.82186C13.0987 2.57681 12.9019 2.34245 12.6215 2.21481ZM11.7929 3.12495C11.9245 3.06504 12.0756 3.06504 12.2072 3.12495C12.2288 3.13478 12.2973 3.17693 12.4358 3.38179C12.5719 3.58322 12.7306 3.87071 12.9639 4.29493L21.2579 19.3749C21.4772 19.7738 21.6247 20.0428 21.7159 20.2519C21.8078 20.4627 21.8082 20.5395 21.8052 20.5645C21.7885 20.7037 21.7141 20.8296 21.6002 20.9113C21.5797 20.926 21.5122 20.9626 21.2832 20.9837C21.0561 21.0045 20.7493 21.005 20.294 21.005H3.70609C3.25085 21.005 2.94402 21.0045 2.71691 20.9837C2.48789 20.9626 2.4204 20.926 2.39996 20.9113C2.28598 20.8296 2.21156 20.7037 2.19488 20.5645C2.19189 20.5395 2.19227 20.4627 2.28424 20.2519C2.37544 20.0428 2.52286 19.7738 2.74225 19.3749L11.0362 4.29493C11.2695 3.87071 11.4282 3.58322 11.5644 3.38179C11.7028 3.17693 11.7713 3.13478 11.7929 3.12495Z" fill="black"/>
</svg>
