<svg width="24" height="24" viewBox="0 0 24 24" fill="none" xmlns="http://www.w3.org/2000/svg">
<path d="M12.0001 8.00023C12.4143 8.00023 12.7501 8.33602 12.7501 8.75023V13.7502C12.7501 14.1644 12.4143 14.5002 12.0001 14.5002C11.5859 14.5002 11.2501 14.1644 11.2501 13.7502V8.75023C11.2501 8.33602 11.5859 8.00023 12.0001 8.00023Z" fill="black"/>
<path d="M12.0001 18.0002C12.5524 18.0002 13.0001 17.5525 13.0001 17.0002C13.0001 16.4479 12.5524 16.0002 12.0001 16.0002C11.4478 16.0002 11.0001 16.4479 11.0001 17.0002C11.0001 17.5525 11.4478 18.0002 12.0001 18.0002Z" fill="black"/>
<path fill-rule="evenodd" clip-rule="evenodd" d="M11.0886 1.48836C11.669 1.23118 12.3311 1.23118 12.9116 1.48836C13.3465 1.68109 13.6385 2.02399 13.8569 2.33022C14.0719 2.63171 14.3044 3.03021 14.569 3.48386L22.6319 17.306C22.9002 17.766 23.1357 18.1695 23.2939 18.5086C23.4543 18.8523 23.6109 19.2797 23.5622 19.7571C23.4974 20.3929 23.1653 20.9711 22.6487 21.3475C22.2608 21.6301 21.8128 21.7102 21.4351 21.7448C21.0624 21.779 20.5954 21.779 20.0628 21.779L3.93743 21.779C3.40483 21.779 2.93776 21.779 2.56503 21.7448C2.18739 21.7102 1.73934 21.6301 1.35142 21.3475C0.834904 20.9711 0.50279 20.3929 0.43798 19.7571C0.389306 19.2796 0.545912 18.8523 0.706266 18.5086C0.864531 18.1695 1.09985 17.7661 1.36823 17.3061L9.43119 3.48387C9.69578 3.03023 9.92822 2.6317 10.1433 2.33022C10.3617 2.02399 10.6536 1.68109 11.0886 1.48836ZM11.921 3.3083C11.9022 3.32625 11.8534 3.37674 11.7715 3.49155C11.6164 3.70912 11.4301 4.02647 11.1363 4.53008L3.11838 18.2751C2.82075 18.7853 2.63334 19.1086 2.51867 19.3543C2.45802 19.4843 2.43778 19.5528 2.43132 19.5784C2.44204 19.6315 2.46972 19.6797 2.51017 19.7157C2.5356 19.7231 2.60492 19.7401 2.74775 19.7532C3.01781 19.778 3.39148 19.779 3.98216 19.779L20.018 19.779C20.6087 19.779 20.9824 19.778 21.2524 19.7532C21.3953 19.7401 21.4646 19.7231 21.49 19.7157C21.5305 19.6797 21.5581 19.6315 21.5688 19.5784C21.5624 19.5528 21.5422 19.4843 21.4815 19.3543C21.3668 19.1086 21.1794 18.7853 20.8818 18.2751L12.8639 4.53008C12.5701 4.02647 12.3838 3.70912 12.2286 3.49155C12.1467 3.37674 12.098 3.32625 12.0791 3.3083C12.0278 3.2912 11.9723 3.2912 11.921 3.3083Z" fill="black"/>
</svg>
