<svg width="24" height="24" viewBox="0 0 24 24" fill="none" xmlns="http://www.w3.org/2000/svg">
<path d="M12.0008 8.00023C12.4151 8.00023 12.7508 8.33602 12.7508 8.75023V13.7502C12.7508 14.1644 12.4151 14.5002 12.0008 14.5002C11.5866 14.5002 11.2508 14.1644 11.2508 13.7502V8.75023C11.2508 8.33602 11.5866 8.00023 12.0008 8.00023Z" fill="black"/>
<path d="M12.0008 18.0002C12.5531 18.0002 13.0008 17.5525 13.0008 17.0002C13.0008 16.4479 12.5531 16.0002 12.0008 16.0002C11.4486 16.0002 11.0008 16.4479 11.0008 17.0002C11.0008 17.5525 11.4486 18.0002 12.0008 18.0002Z" fill="black"/>
<path fill-rule="evenodd" clip-rule="evenodd" d="M11.0893 1.48836C11.6698 1.23118 12.3319 1.23118 12.9123 1.48836C13.3473 1.68109 13.6392 2.02399 13.8577 2.33022C14.0727 2.63171 14.3051 3.03021 14.5697 3.48386L22.6326 17.306C22.901 17.766 23.1364 18.1695 23.2946 18.5086C23.455 18.8523 23.6116 19.2797 23.5629 19.7571C23.4981 20.3929 23.166 20.9711 22.6495 21.3475C22.2616 21.6301 21.8135 21.7102 21.4359 21.7448C21.0631 21.779 20.5961 21.779 20.0635 21.779L3.93816 21.779C3.40556 21.779 2.93849 21.779 2.56576 21.7448C2.18812 21.7102 1.74007 21.6301 1.35215 21.3475C0.835636 20.9711 0.503522 20.3929 0.438712 19.7571C0.390038 19.2796 0.546645 18.8523 0.706998 18.5086C0.865263 18.1695 1.10058 17.7661 1.36896 17.3061L9.43192 3.48387C9.69651 3.03023 9.92896 2.6317 10.144 2.33022C10.3624 2.02399 10.6544 1.68109 11.0893 1.48836ZM11.9218 3.3083C11.9029 3.32625 11.8542 3.37674 11.7723 3.49155C11.6171 3.70912 11.4308 4.02647 11.137 4.53008L3.11911 18.2751C2.82149 18.7853 2.63407 19.1086 2.5194 19.3543C2.45875 19.4843 2.43851 19.5528 2.43206 19.5784C2.44277 19.6315 2.47045 19.6797 2.5109 19.7157C2.53634 19.7231 2.60565 19.7401 2.74848 19.7532C3.01855 19.778 3.39221 19.779 3.98289 19.779L20.0187 19.779C20.6094 19.779 20.9831 19.778 21.2531 19.7532C21.396 19.7401 21.4653 19.7231 21.4907 19.7157C21.5312 19.6797 21.5589 19.6315 21.5696 19.5784C21.5631 19.5528 21.5429 19.4843 21.4822 19.3543C21.3676 19.1086 21.1801 18.7853 20.8825 18.2751L12.8646 4.53008C12.5708 4.02647 12.3845 3.70912 12.2294 3.49155C12.1475 3.37674 12.0987 3.32625 12.0799 3.3083C12.0286 3.2912 11.9731 3.2912 11.9218 3.3083Z" fill="black"/>
</svg>
