<svg width="24" height="24" viewBox="0 0 24 24" fill="none" xmlns="http://www.w3.org/2000/svg">
<path fill-rule="evenodd" clip-rule="evenodd" d="M12.402 7.52225C12.1468 7.40568 11.8537 7.40568 11.5985 7.52225C11.3571 7.63254 11.2328 7.81502 11.1954 7.87066C11.1575 7.92723 11.1227 7.99139 11.1073 8.01988L11.1033 8.02712L5.85039 17.6575L5.84682 17.664C5.83249 17.6901 5.79839 17.7522 5.77195 17.8134C5.74422 17.8776 5.66463 18.0696 5.69514 18.3191C5.728 18.5878 5.87202 18.8304 6.09217 18.9879C6.2966 19.1342 6.50325 19.1562 6.57288 19.1626C6.63923 19.1687 6.71008 19.1685 6.73987 19.1684L6.74731 19.1684H17.2532L17.2606 19.1684C17.2904 19.1685 17.3613 19.1687 17.4276 19.1626C17.4972 19.1562 17.7039 19.1342 17.9083 18.9879C18.1285 18.8304 18.2725 18.5878 18.3053 18.3191C18.3359 18.0696 18.2563 17.8776 18.2285 17.8134C18.2021 17.7523 18.1681 17.6903 18.1537 17.6641L18.1501 17.6575L12.8972 8.02712L12.8932 8.01988C12.8778 7.99138 12.843 7.92721 12.805 7.87066C12.7677 7.81502 12.6434 7.63255 12.402 7.52225ZM7.97422 17.4184L12.0002 10.0373L16.0263 17.4184H7.97422Z" fill="black"/>
<path fill-rule="evenodd" clip-rule="evenodd" d="M12.8289 1.75974C12.3025 1.52011 11.6981 1.52011 11.1717 1.75974C10.7619 1.94628 10.501 2.27676 10.3218 2.5419C10.1438 2.80531 9.95353 3.15124 9.7428 3.53446L1.40799 18.6887C1.21069 19.0473 1.03073 19.3745 0.909619 19.652C0.785917 19.9356 0.654375 20.3141 0.705758 20.7429C0.772502 21.3 1.07015 21.8034 1.52608 22.1303C1.87708 22.382 2.27211 22.4491 2.58016 22.4774C2.88178 22.505 3.25511 22.505 3.66448 22.505H20.3361C20.7454 22.505 21.1188 22.505 21.4204 22.4774C21.7285 22.4491 22.1235 22.382 22.4745 22.1303C22.9304 21.8034 23.2281 21.3 23.2948 20.7429C23.3462 20.3141 23.2147 19.9356 23.0909 19.652C22.9698 19.3745 22.7899 19.0474 22.5926 18.6887L14.2578 3.53451C14.0471 3.15127 13.8568 2.80532 13.6788 2.5419C13.4996 2.27676 13.2387 1.94628 12.8289 1.75974ZM11.4746 4.53589C11.7127 4.10298 11.8586 3.83966 11.9789 3.66175C11.9864 3.65053 11.9936 3.64019 12.0003 3.63067C12.007 3.64019 12.0141 3.65053 12.0217 3.66175C12.1419 3.83966 12.2879 4.10298 12.526 4.53589L20.82 19.6158C21.0441 20.0233 21.178 20.2688 21.2578 20.4518C21.2626 20.4627 21.2669 20.4729 21.2709 20.4824C21.2606 20.4835 21.2496 20.4847 21.2378 20.4857C21.0389 20.504 20.7593 20.505 20.2943 20.505H3.70632C3.24125 20.505 2.96166 20.504 2.7628 20.4857C2.75095 20.4847 2.73993 20.4835 2.72971 20.4824C2.73365 20.4729 2.73799 20.4627 2.74274 20.4518C2.8226 20.2688 2.95646 20.0233 3.18059 19.6158L11.4746 4.53589Z" fill="black"/>
</svg>
