<svg width="24" height="24" viewBox="0 0 24 24" fill="none" xmlns="http://www.w3.org/2000/svg">
<path d="M12.0001 8.00023C12.4143 8.00023 12.7501 8.33602 12.7501 8.75023V13.7502C12.7501 14.1644 12.4143 14.5002 12.0001 14.5002C11.5859 14.5002 11.2501 14.1644 11.2501 13.7502V8.75023C11.2501 8.33602 11.5859 8.00023 12.0001 8.00023Z" fill="black"/>
<path d="M12.0001 18.0002C12.5524 18.0002 13.0001 17.5525 13.0001 17.0002C13.0001 16.4479 12.5524 16.0002 12.0001 16.0002C11.4478 16.0002 11.0001 16.4479 11.0001 17.0002C11.0001 17.5525 11.4478 18.0002 12.0001 18.0002Z" fill="black"/>
<path fill-rule="evenodd" clip-rule="evenodd" d="M13.0128 1.25979C13.5103 1.48023 13.8345 1.86821 14.0604 2.18505C14.2823 2.49609 14.5199 2.90343 14.7809 3.35093L22.8519 17.187C23.1166 17.6408 23.3572 18.0531 23.5204 18.4029C23.6862 18.7582 23.8666 19.2363 23.8109 19.7825C23.7389 20.4889 23.3699 21.1314 22.796 21.5495C22.3522 21.8729 21.8484 21.958 21.458 21.9938C21.0736 22.029 20.5963 22.029 20.0709 22.029L3.92928 22.029C3.40386 22.029 2.92658 22.029 2.54218 21.9938C2.15178 21.958 1.64797 21.8729 1.2042 21.5495C0.630289 21.1314 0.261273 20.4889 0.189262 19.7825C0.13358 19.2363 0.313938 18.7582 0.479709 18.4029C0.642944 18.0531 0.883439 17.6409 1.14823 17.187L9.21926 3.35099C9.48027 2.90346 9.71786 2.49611 9.93971 2.18505C10.1657 1.86821 10.4898 1.48023 10.9873 1.25979C11.6323 0.974031 12.3679 0.974031 13.0128 1.25979ZM11.9751 3.63672C11.8281 3.84273 11.6485 4.14819 11.3522 4.65604L3.33432 18.4011C3.03421 18.9155 2.85388 19.2271 2.74521 19.46C2.73859 19.4742 2.73256 19.4875 2.72707 19.4998C2.74049 19.5013 2.75498 19.5028 2.77059 19.5042C3.02651 19.5277 3.38654 19.529 3.98215 19.529L20.018 19.529C20.6136 19.529 20.9736 19.5277 21.2296 19.5042C21.2452 19.5028 21.2597 19.5013 21.2731 19.4998C21.2676 19.4875 21.2616 19.4742 21.2549 19.46C21.1463 19.2272 20.9659 18.9155 20.6658 18.4011L12.6479 4.65604C12.3517 4.14819 12.172 3.84273 12.0251 3.63672C12.0162 3.62431 12.0079 3.61285 12.0001 3.60228C11.9922 3.61285 11.9839 3.62431 11.9751 3.63672Z" fill="black"/>
</svg>
