<svg width="24" height="24" viewBox="0 0 24 24" fill="none" xmlns="http://www.w3.org/2000/svg">
<path fill-rule="evenodd" clip-rule="evenodd" d="M12.4017 7.52225C12.1466 7.40568 11.8534 7.40568 11.5983 7.52225C11.3569 7.63254 11.2325 7.81502 11.1952 7.87066C11.1573 7.92723 11.1225 7.99139 11.107 8.01988L11.1031 8.02712L5.85015 17.6575L5.84658 17.664C5.83224 17.6901 5.79814 17.7522 5.77171 17.8134C5.74397 17.8776 5.66439 18.0696 5.6949 18.3191C5.72776 18.5878 5.87178 18.8304 6.09193 18.9879C6.29635 19.1342 6.50301 19.1562 6.57263 19.1626C6.63899 19.1687 6.70984 19.1685 6.73963 19.1684L6.74707 19.1684H17.2529L17.2604 19.1684C17.2902 19.1685 17.361 19.1687 17.4274 19.1626C17.497 19.1562 17.7036 19.1342 17.9081 18.9879C18.1282 18.8304 18.2722 18.5878 18.3051 18.3191C18.3356 18.0696 18.256 17.8776 18.2283 17.8134C18.2019 17.7523 18.1678 17.6903 18.1535 17.6641L18.1499 17.6575L12.8969 8.02712L12.893 8.01988C12.8775 7.99138 12.8427 7.92721 12.8048 7.87066C12.7675 7.81502 12.6431 7.63255 12.4017 7.52225ZM7.97397 17.4184L12 10.0373L16.026 17.4184H7.97397Z" fill="black"/>
<path fill-rule="evenodd" clip-rule="evenodd" d="M12.8287 1.75974C12.3022 1.52011 11.6978 1.52011 11.1714 1.75974C10.7616 1.94628 10.5007 2.27676 10.3215 2.5419C10.1435 2.80531 9.95329 3.15124 9.74255 3.53446L1.40774 18.6887C1.21045 19.0473 1.03049 19.3745 0.909375 19.652C0.785672 19.9356 0.65413 20.3141 0.705514 20.7429C0.772258 21.3 1.06991 21.8034 1.52584 22.1303C1.87684 22.382 2.27187 22.4491 2.57991 22.4774C2.88153 22.505 3.25486 22.505 3.66424 22.505H20.3358C20.7452 22.505 21.1185 22.505 21.4202 22.4774C21.7282 22.4491 22.1232 22.382 22.4742 22.1303C22.9302 21.8034 23.2278 21.3 23.2946 20.7429C23.3459 20.3141 23.2144 19.9356 23.0907 19.652C22.9696 19.3745 22.7897 19.0474 22.5924 18.6887L14.2576 3.53451C14.0468 3.15127 13.8566 2.80532 13.6785 2.5419C13.4994 2.27676 13.2384 1.94628 12.8287 1.75974ZM11.4743 4.53589C11.7124 4.10298 11.8584 3.83966 11.9786 3.66175C11.9862 3.65053 11.9933 3.64019 12 3.63067C12.0067 3.64019 12.0139 3.65053 12.0215 3.66175C12.1417 3.83966 12.2877 4.10298 12.5258 4.53589L20.8197 19.6158C21.0439 20.0233 21.1777 20.2688 21.2576 20.4518C21.2623 20.4627 21.2667 20.4729 21.2706 20.4824C21.2604 20.4835 21.2494 20.4847 21.2375 20.4857C21.0387 20.504 20.7591 20.505 20.294 20.505H3.70607C3.24101 20.505 2.96142 20.504 2.76255 20.4857C2.7507 20.4847 2.73969 20.4835 2.72947 20.4824C2.73341 20.4729 2.73774 20.4627 2.7425 20.4518C2.82236 20.2688 2.95622 20.0233 3.18034 19.6158L11.4743 4.53589Z" fill="black"/>
</svg>
