<svg width="24" height="24" viewBox="0 0 24 24" fill="none" xmlns="http://www.w3.org/2000/svg">
<path fill-rule="evenodd" clip-rule="evenodd" d="M12.9504 8.5753C12.5398 7.82254 11.4589 7.82253 11.0483 8.5753L6.18871 17.4846C5.79494 18.2065 6.31747 19.0867 7.13977 19.0867H16.859C17.6813 19.0867 18.2038 18.2065 17.8101 17.4846L12.9504 8.5753ZM8.68393 17.0867L11.9994 11.0084L15.3148 17.0867H8.68393Z" fill="black"/>
<path fill-rule="evenodd" clip-rule="evenodd" d="M13.9709 2.49567C13.1161 0.941428 10.8828 0.941423 10.0279 2.49567L0.719219 19.4206C-0.105515 20.9201 0.979345 22.7549 2.6907 22.7549H21.3082C23.0195 22.7549 24.1044 20.9202 23.2796 19.4206L13.9709 2.49567ZM3.11352 20.2549L11.9994 4.09875L20.8853 20.2549H3.11352Z" fill="black"/>
</svg>
