<svg width="24" height="24" viewBox="0 0 24 24" fill="none" xmlns="http://www.w3.org/2000/svg">
<path d="M12.0008 7.00023C12.4151 7.00023 12.7508 7.33602 12.7508 7.75023L12.7508 12.7502C12.7508 13.1644 12.4151 13.5002 12.0008 13.5002C11.5866 13.5002 11.2508 13.1644 11.2508 12.7502L11.2508 7.75023C11.2508 7.33602 11.5866 7.00023 12.0008 7.00023Z" fill="black"/>
<path d="M12.0008 17.5002C12.5531 17.5002 13.0008 17.0525 13.0008 16.5002C13.0008 15.9479 12.5531 15.5002 12.0008 15.5002C11.4486 15.5002 11.0008 15.9479 11.0008 16.5002C11.0008 17.0525 11.4486 17.5002 12.0008 17.5002Z" fill="black"/>
<path fill-rule="evenodd" clip-rule="evenodd" d="M11.1906 1.71693C11.7066 1.48832 12.2951 1.48832 12.811 1.71693C13.1835 1.88195 13.4433 2.17977 13.6541 2.47539C13.8624 2.76738 14.0898 3.15721 14.3584 3.61772L22.412 17.424C22.6845 17.891 22.9147 18.2857 23.0681 18.6144C23.223 18.9464 23.3559 19.323 23.3142 19.7318C23.2566 20.2969 22.9614 20.8109 22.5023 21.1454C22.1702 21.3874 21.7779 21.4624 21.413 21.4959C21.052 21.529 20.595 21.529 20.0545 21.529L3.94735 21.529C3.40678 21.529 2.9497 21.529 2.58861 21.4959C2.22373 21.4624 1.83144 21.3874 1.49938 21.1454C1.04025 20.8109 0.745039 20.2969 0.68743 19.7318C0.645764 19.323 0.778619 18.9464 0.933555 18.6144C1.08689 18.2857 1.31717 17.891 1.58958 17.424L9.64328 3.6177C9.91189 3.1572 10.1393 2.76737 10.3475 2.47539C10.5584 2.17977 10.8182 1.88195 11.1906 1.71693ZM12.2034 3.08834C12.0744 3.03118 11.9273 3.03118 11.7983 3.08834C11.8011 3.08709 11.7342 3.11446 11.5687 3.34639C11.4053 3.5755 11.2124 3.90476 10.9211 4.40411L2.90317 18.1491C2.60803 18.6551 2.41353 18.99 2.29286 19.2486C2.17569 19.4997 2.17949 19.5768 2.1797 19.5797C2.19412 19.721 2.2679 19.8494 2.38264 19.933C2.38504 19.9347 2.44977 19.9768 2.72565 20.0021C3.00985 20.0282 3.39715 20.029 3.9829 20.029L20.0187 20.029C20.6045 20.029 20.9918 20.0282 21.276 20.0021C21.5643 19.9757 21.622 19.9309 21.619 19.9331C21.7337 19.8494 21.8075 19.721 21.8219 19.5797C21.8216 19.5834 21.8312 19.511 21.7088 19.2486C21.5881 18.99 21.3936 18.6551 21.0985 18.1491L13.0805 4.40411C12.7893 3.90476 12.5963 3.5755 12.4329 3.34639C12.2741 3.12373 12.2061 3.08961 12.2034 3.08834Z" fill="black"/>
</svg>
