<svg width="24" height="24" viewBox="0 0 24 24" fill="none" xmlns="http://www.w3.org/2000/svg">
<path d="M12.0001 7.00023C12.4143 7.00023 12.7501 7.33602 12.7501 7.75023L12.7501 12.7502C12.7501 13.1644 12.4143 13.5002 12.0001 13.5002C11.5859 13.5002 11.2501 13.1644 11.2501 12.7502L11.2501 7.75023C11.2501 7.33602 11.5859 7.00023 12.0001 7.00023Z" fill="black"/>
<path d="M12.0001 17.5002C12.5524 17.5002 13.0001 17.0525 13.0001 16.5002C13.0001 15.9479 12.5524 15.5002 12.0001 15.5002C11.4478 15.5002 11.0001 15.9479 11.0001 16.5002C11.0001 17.0525 11.4478 17.5002 12.0001 17.5002Z" fill="black"/>
<path fill-rule="evenodd" clip-rule="evenodd" d="M11.1899 1.71693C11.7058 1.48832 12.2943 1.48832 12.8103 1.71693C13.1827 1.88195 13.4425 2.17977 13.6534 2.47539C13.8616 2.76738 14.089 3.15721 14.3576 3.61772L22.4113 17.424C22.6837 17.891 22.914 18.2857 23.0674 18.6144C23.2223 18.9464 23.3551 19.323 23.3135 19.7318C23.2559 20.2969 22.9607 20.8109 22.5015 21.1454C22.1695 21.3874 21.7772 21.4624 21.4123 21.4959C21.0512 21.529 20.5943 21.529 20.0537 21.529L3.94662 21.529C3.40605 21.529 2.94897 21.529 2.58787 21.4959C2.223 21.4624 1.83071 21.3874 1.49864 21.1454C1.03952 20.8109 0.744306 20.2969 0.686698 19.7318C0.645032 19.323 0.777887 18.9464 0.932823 18.6144C1.08616 18.2857 1.31644 17.891 1.58885 17.424L9.64255 3.6177C9.91116 3.1572 10.1385 2.76737 10.3468 2.47539C10.5576 2.17977 10.8175 1.88195 11.1899 1.71693ZM12.2026 3.08834C12.0737 3.03118 11.9265 3.03118 11.7975 3.08834C11.8003 3.08709 11.7334 3.11446 11.568 3.34639C11.4046 3.5755 11.2117 3.90476 10.9204 4.40411L2.90244 18.1491C2.6073 18.6551 2.4128 18.99 2.29212 19.2486C2.17496 19.4997 2.17876 19.5768 2.17897 19.5797C2.19338 19.721 2.26717 19.8494 2.38191 19.933C2.38431 19.9347 2.44904 19.9768 2.72492 20.0021C3.00912 20.0282 3.39642 20.029 3.98217 20.029L20.018 20.029C20.6038 20.029 20.9911 20.0282 21.2753 20.0021C21.5636 19.9757 21.6213 19.9309 21.6182 19.9331C21.733 19.8494 21.8068 19.721 21.8212 19.5797C21.8208 19.5834 21.8305 19.511 21.7081 19.2486C21.5874 18.99 21.3929 18.6551 21.0977 18.1491L13.0798 4.40411C12.7885 3.90476 12.5956 3.5755 12.4322 3.34639C12.2734 3.12373 12.2053 3.08961 12.2026 3.08834Z" fill="black"/>
</svg>
