<svg width="24" height="24" viewBox="0 0 24 24" fill="none" xmlns="http://www.w3.org/2000/svg">
<path d="M12.0001 8.50023C12.2763 8.50023 12.5001 8.72409 12.5001 9.00023V14.0002C12.5001 14.2764 12.2763 14.5002 12.0001 14.5002C11.724 14.5002 11.5001 14.2764 11.5001 14.0002V9.00023C11.5001 8.72409 11.724 8.50023 12.0001 8.50023Z" fill="black"/>
<path d="M12.0001 17.5002C12.4143 17.5002 12.7501 17.1644 12.7501 16.7502C12.7501 16.336 12.4143 16.0002 12.0001 16.0002C11.5859 16.0002 11.2501 16.336 11.2501 16.7502C11.2501 17.1644 11.5859 17.5002 12.0001 17.5002Z" fill="black"/>
<path fill-rule="evenodd" clip-rule="evenodd" d="M11.2912 1.94549C11.7426 1.74546 12.2576 1.74546 12.709 1.94549C13.0189 2.08281 13.2466 2.33555 13.4499 2.62055C13.6514 2.90307 13.8738 3.28438 14.1469 3.75253L22.1902 17.5411C22.467 18.0156 22.6924 18.402 22.8408 18.7201C22.9903 19.0405 23.0994 19.3664 23.0648 19.7064C23.0144 20.2009 22.7561 20.6507 22.3543 20.9434C22.0781 21.1446 21.7416 21.2146 21.3895 21.2469C21.0399 21.279 20.5927 21.279 20.0432 21.279L3.95692 21.279C3.40742 21.279 2.96025 21.279 2.61072 21.2469C2.2586 21.2146 1.92208 21.1446 1.64587 20.9434C1.24413 20.6507 0.985823 20.2009 0.935415 19.7064C0.900758 19.3664 1.00986 19.0405 1.15938 18.7201C1.3078 18.402 1.53311 18.0158 1.81 17.5411L9.85332 3.75254C10.1264 3.28444 10.3488 2.90305 10.5503 2.62055C10.7536 2.33555 10.9813 2.08281 11.2912 1.94549ZM12.3039 2.85977C12.1104 2.77404 11.8898 2.77404 11.6963 2.85977C11.6365 2.88624 11.5375 2.95868 11.3645 3.20122C11.1928 3.44189 10.9932 3.78304 10.7044 4.27814L2.6865 18.0232C2.39385 18.5249 2.19226 18.8714 2.06558 19.1429C1.93773 19.4169 1.92363 19.54 1.93026 19.605C1.95186 19.8169 2.06257 20.0097 2.23474 20.1351C2.28754 20.1736 2.401 20.2235 2.70208 20.2511C3.00042 20.2785 3.40136 20.279 3.98217 20.279L20.018 20.279C20.5988 20.279 20.9998 20.2785 21.2981 20.2511C21.5992 20.2235 21.7127 20.1736 21.7655 20.1351C21.9376 20.0097 22.0483 19.8169 22.0699 19.605C22.0766 19.54 22.0625 19.4169 21.9346 19.1429C21.8079 18.8714 21.6063 18.5249 21.3137 18.0232L13.2958 4.27814C13.007 3.78304 12.8074 3.44189 12.6357 3.20122C12.4627 2.95868 12.3637 2.88624 12.3039 2.85977Z" fill="black"/>
</svg>
