<svg width="24" height="24" viewBox="0 0 24 24" fill="none" xmlns="http://www.w3.org/2000/svg">
<path fill-rule="evenodd" clip-rule="evenodd" d="M12.3533 6.94069C12.1289 6.83819 11.8711 6.83819 11.6468 6.94069C11.4367 7.03671 11.3272 7.1961 11.292 7.24866C11.2564 7.30168 11.2232 7.36279 11.2057 7.39499L11.2012 7.40336L5.47069 17.9092L5.46649 17.9169C5.45025 17.9465 5.41797 18.0054 5.39331 18.0625C5.36737 18.1225 5.29822 18.2909 5.32479 18.5082C5.35368 18.7444 5.48032 18.9578 5.6739 19.0963C5.85192 19.2236 6.03283 19.2435 6.09796 19.2495C6.15984 19.2552 6.22697 19.2551 6.26079 19.255L6.26957 19.255H17.7305L17.7393 19.255C17.7731 19.2551 17.8403 19.2552 17.9021 19.2495C17.9673 19.2435 18.1482 19.2236 18.3262 19.0963C18.5198 18.9578 18.6464 18.7444 18.6753 18.5082C18.7019 18.2909 18.6327 18.1225 18.6068 18.0625C18.5821 18.0054 18.5498 17.9465 18.5336 17.9169L18.5294 17.9092L12.7989 7.40336L12.7944 7.39499C12.7769 7.36279 12.7437 7.30166 12.7081 7.24866C12.6729 7.1961 12.5634 7.03671 12.3533 6.94069ZM7.26345 17.755L12 9.07122L16.7366 17.755H7.26345Z" fill="black"/>
<path fill-rule="evenodd" clip-rule="evenodd" d="M12.7251 1.98728C12.2645 1.7776 11.7356 1.7776 11.275 1.98728C10.9299 2.14437 10.7011 2.42679 10.5287 2.68188C10.3572 2.93557 10.1719 3.27258 9.95758 3.66228L1.63071 18.802C1.42996 19.167 1.25495 19.4852 1.13852 19.752C1.02011 20.0234 0.910429 20.3516 0.953747 20.7132C1.01215 21.2006 1.27259 21.6411 1.67153 21.9271C1.96744 22.1393 2.30788 22.2014 2.60275 22.2284C2.89269 22.255 3.25581 22.255 3.67235 22.255H20.3277C20.7443 22.255 21.1074 22.255 21.3973 22.2284C21.6922 22.2014 22.0327 22.1393 22.3286 21.9271C22.7275 21.6411 22.9879 21.2006 23.0463 20.7132C23.0897 20.3516 22.98 20.0234 22.8616 19.752C22.7451 19.4852 22.5701 19.167 22.3694 18.802L14.0426 3.66236C13.8282 3.27263 13.6429 2.93559 13.4714 2.68188C13.299 2.42679 13.0702 2.14437 12.7251 1.98728ZM11.7715 3.52177C11.8516 3.40318 11.8965 3.35897 11.9096 3.34696C11.9678 3.32437 12.0323 3.32437 12.0905 3.34695C12.1036 3.35897 12.1485 3.40318 12.2286 3.52177C12.3568 3.71144 12.5091 3.98685 12.7448 4.41541L21.0388 19.4953C21.2606 19.8985 21.4012 20.1558 21.4867 20.3519C21.5399 20.4736 21.5523 20.5307 21.5552 20.5469C21.5449 20.6076 21.5125 20.6624 21.4643 20.7007C21.4487 20.706 21.3926 20.7226 21.2604 20.7347C21.0474 20.7542 20.7542 20.755 20.294 20.755H3.70608C3.24593 20.755 2.95272 20.7542 2.73973 20.7347C2.60745 20.7226 2.55139 20.706 2.53579 20.7007C2.48758 20.6624 2.45519 20.6076 2.44486 20.5469C2.44775 20.5307 2.46025 20.4736 2.51337 20.3519C2.5989 20.1558 2.73954 19.8985 2.9613 19.4953L11.2553 4.41541C11.491 3.98685 11.6433 3.71144 11.7715 3.52177Z" fill="black"/>
</svg>
