<svg width="24" height="24" viewBox="0 0 24 24" fill="none" xmlns="http://www.w3.org/2000/svg">
<path fill-rule="evenodd" clip-rule="evenodd" d="M12.811 1.71693C12.2951 1.48832 11.7066 1.48832 11.1906 1.71693C10.8182 1.88195 10.5584 2.17977 10.3475 2.47539C10.1393 2.76737 9.91189 3.1572 9.64328 3.6177L1.58958 17.424C1.31717 17.891 1.08689 18.2857 0.933555 18.6144C0.778619 18.9464 0.645764 19.323 0.68743 19.7318C0.745039 20.2969 1.04025 20.8109 1.49938 21.1454C1.83144 21.3874 2.22373 21.4624 2.58861 21.4959C2.9497 21.529 3.40666 21.529 3.94723 21.529L20.0543 21.529C20.5948 21.529 21.052 21.529 21.413 21.4959C21.7779 21.4624 22.1702 21.3874 22.5023 21.1454C22.9614 20.8109 23.2566 20.2969 23.3142 19.7318C23.3559 19.323 23.223 18.9464 23.0681 18.6144C22.9147 18.2857 22.6845 17.891 22.412 17.424L14.3584 3.61772C14.0898 3.15721 13.8624 2.76738 13.6541 2.47539C13.4433 2.17977 13.1835 1.88195 12.811 1.71693ZM12.0008 7.50023C12.4151 7.50023 12.7508 7.83602 12.7508 8.25023L12.7508 13.2502C12.7508 13.6644 12.4151 14.0002 12.0008 14.0002C11.5866 14.0002 11.2508 13.6644 11.2508 13.2502L11.2508 8.25023C11.2508 7.83602 11.5866 7.50023 12.0008 7.50023ZM12.0008 18.0002C12.5531 18.0002 13.0008 17.5525 13.0008 17.0002C13.0008 16.4479 12.5531 16.0002 12.0008 16.0002C11.4486 16.0002 11.0008 16.4479 11.0008 17.0002C11.0008 17.5525 11.4486 18.0002 12.0008 18.0002Z" fill="black"/>
</svg>
