<svg width="24" height="24" viewBox="0 0 24 24" fill="none" xmlns="http://www.w3.org/2000/svg">
<path d="M12.0001 8.37493C12.1382 8.37493 12.2501 8.48686 12.2501 8.62493L12.2501 14.6249C12.2501 14.763 12.1382 14.8749 12.0001 14.8749C11.8621 14.8749 11.7501 14.763 11.7501 14.6249L11.7501 8.62493C11.7501 8.48686 11.8621 8.37493 12.0001 8.37493Z" fill="black"/>
<path d="M12.0001 17.3749C12.2763 17.3749 12.5001 17.1511 12.5001 16.8749C12.5001 16.5988 12.2763 16.3749 12.0001 16.3749C11.724 16.3749 11.5001 16.5988 11.5001 16.8749C11.5001 17.1511 11.724 17.3749 12.0001 17.3749Z" fill="black"/>
<path fill-rule="evenodd" clip-rule="evenodd" d="M11.3925 2.17406C11.7794 2.00261 12.2208 2.00261 12.6078 2.17406C12.8551 2.28366 13.0506 2.49133 13.2463 2.76572C13.4411 3.03883 13.6587 3.41183 13.9368 3.88861L21.9683 17.6568C22.2503 18.1402 22.4707 18.5182 22.6143 18.8258C22.7584 19.1346 22.8437 19.4098 22.8161 19.6811C22.7729 20.1049 22.5515 20.4904 22.2071 20.7413C21.9868 20.9019 21.706 20.9668 21.3666 20.998C21.0286 21.029 20.591 21.029 20.0314 21.029H3.96872C3.4092 21.029 2.97158 21.029 2.63357 20.998C2.29421 20.9668 2.01345 20.9019 1.79309 20.7413C1.44875 20.4904 1.22734 20.1049 1.18413 19.6811C1.15648 19.4098 1.24184 19.1346 1.38594 18.8258C1.52948 18.5182 1.74996 18.1402 2.03192 17.6568L10.0634 3.88863C10.3415 3.41188 10.5591 3.03882 10.7539 2.76572C10.9496 2.49133 11.1451 2.28366 11.3925 2.17406ZM12.4052 2.6312C12.1472 2.5169 11.853 2.5169 11.595 2.6312C11.4727 2.68538 11.3415 2.8029 11.1609 3.05605C10.9811 3.30827 10.7748 3.66132 10.4885 4.15217L2.47056 17.8972C2.18039 18.3946 1.97172 18.7529 1.83904 19.0372C1.70577 19.3228 1.66792 19.4966 1.68156 19.6304C1.71036 19.9129 1.85797 20.1699 2.08753 20.3372C2.19618 20.4164 2.36541 20.4712 2.67925 20.5C2.99172 20.5287 3.40629 20.529 3.98218 20.529L20.018 20.529C20.5939 20.529 21.0085 20.5287 21.321 20.5C21.6348 20.4713 21.804 20.4164 21.9127 20.3372C22.1422 20.1699 22.2898 19.9129 22.3187 19.6304C22.3323 19.4966 22.2944 19.3228 22.1612 19.0372C22.0285 18.7529 21.8198 18.3946 21.5296 17.8972L13.5117 4.15217C13.2254 3.66132 13.0192 3.30827 12.8393 3.05605C12.6587 2.8029 12.5275 2.68538 12.4052 2.6312Z" fill="black"/>
</svg>
