<svg width="24" height="24" viewBox="0 0 24 24" fill="none" xmlns="http://www.w3.org/2000/svg">
<path fill-rule="evenodd" clip-rule="evenodd" d="M12.9123 1.48836C12.3319 1.23118 11.6698 1.23118 11.0893 1.48836C10.6544 1.68109 10.3624 2.02399 10.144 2.33022C9.92896 2.6317 9.69653 3.0302 9.43194 3.48384L1.36902 17.306C1.10064 17.766 0.865263 18.1695 0.706998 18.5086C0.546645 18.8523 0.390038 19.2796 0.438712 19.7571C0.503522 20.3929 0.835636 20.9711 1.35215 21.3475C1.74007 21.6301 2.18812 21.7102 2.56576 21.7448C2.93849 21.779 3.4055 21.779 3.9381 21.779L20.0635 21.779C20.596 21.779 21.0632 21.779 21.4359 21.7448C21.8135 21.7102 22.2616 21.6301 22.6495 21.3475C23.166 20.9711 23.4981 20.3929 23.5629 19.7571C23.6116 19.2796 23.455 18.8523 23.2946 18.5086C23.1364 18.1695 22.9012 17.7663 22.6329 17.3064L14.5697 3.48392C14.3052 3.03027 14.0727 2.63171 13.8577 2.33022C13.6392 2.02399 13.3473 1.68109 12.9123 1.48836ZM12.0008 7.50023C12.5531 7.50023 13.0008 7.94795 13.0008 8.50023L13.0008 13.5002C13.0008 14.0525 12.5531 14.5002 12.0008 14.5002C11.4485 14.5002 11.0008 14.0525 11.0008 13.5002L11.0008 8.50023C11.0008 7.94795 11.4485 7.50023 12.0008 7.50023ZM12.0008 18.5002C12.6912 18.5002 13.2508 17.9406 13.2508 17.2502C13.2508 16.5599 12.6912 16.0002 12.0008 16.0002C11.3105 16.0002 10.7508 16.5599 10.7508 17.2502C10.7508 17.9406 11.3105 18.5002 12.0008 18.5002Z" fill="black"/>
</svg>
