<svg width="24" height="24" viewBox="0 0 24 24" fill="none" xmlns="http://www.w3.org/2000/svg">
<path fill-rule="evenodd" clip-rule="evenodd" d="M3.51089 11.5658C3.73692 7.07317 7.45118 3.5 12 3.5C16.5488 3.5 20.2631 7.07317 20.4891 11.5658C19.632 11.7916 19 12.572 19 13.5V18.5C19 19.6046 19.8954 20.5 21 20.5C22.1046 20.5 23 19.6046 23 18.5V13.5C23 12.5645 22.3577 11.779 21.49 11.5605C21.2604 6.5178 17.0994 2.5 12 2.5C6.90061 2.5 2.73963 6.5178 2.50999 11.5605C1.64231 11.779 1 12.5645 1 13.5V18.5C1 19.6046 1.89543 20.5 3 20.5C4.10457 20.5 5 19.6046 5 18.5V13.5C5 12.572 4.36797 11.7916 3.51089 11.5658ZM21 12.5C20.4477 12.5 20 12.9477 20 13.5V18.5C20 19.0523 20.4477 19.5 21 19.5C21.5523 19.5 22 19.0523 22 18.5V13.5C22 12.9477 21.5523 12.5 21 12.5ZM2 13.5C2 12.9477 2.44772 12.5 3 12.5C3.55228 12.5 4 12.9477 4 13.5V18.5C4 19.0523 3.55228 19.5 3 19.5C2.44772 19.5 2 19.0523 2 18.5V13.5Z" fill="black"/>
<path d="M8.39975 8.29985C9.2216 7.20597 10.5283 6.5 12 6.5C13.4717 6.5 14.7784 7.20597 15.6003 8.29985C15.7661 8.52062 16.0796 8.56513 16.3003 8.39926C16.5211 8.23339 16.5656 7.91995 16.3997 7.69917C15.3971 6.36472 13.7995 5.5 12 5.5C10.2005 5.5 8.60286 6.36472 7.60025 7.69917C7.43438 7.91995 7.47889 8.23339 7.69966 8.39926C7.92044 8.56513 8.23388 8.52062 8.39975 8.29985Z" fill="black"/>
</svg>
