<svg width="24" height="24" viewBox="0 0 24 24" fill="none" xmlns="http://www.w3.org/2000/svg">
<path d="M4.0371 11.2246C4.42706 7.17015 7.84331 4 12 4C16.1567 4 19.5729 7.17015 19.9629 11.2246C19.0998 11.6186 18.5 12.4893 18.5 13.5V18.5C18.5 19.8807 19.6193 21 21 21C22.3807 21 23.5 19.8807 23.5 18.5V13.5C23.5 12.4625 22.868 11.5726 21.968 11.1943C21.5577 6.04822 17.2516 2 12 2C6.74837 2 2.44226 6.04822 2.03199 11.1943C1.13198 11.5726 0.5 12.4625 0.5 13.5V18.5C0.5 19.8807 1.61929 21 3 21C4.38071 21 5.5 19.8807 5.5 18.5V13.5C5.5 12.4893 4.90019 11.6186 4.0371 11.2246Z" fill="black"/>
<path d="M8.59962 8.45002C9.37629 7.41628 10.6102 6.75 12 6.75C13.3898 6.75 14.6237 7.41628 15.4004 8.45002C15.6492 8.78118 16.1193 8.84794 16.4505 8.59913C16.7817 8.35032 16.8484 7.88017 16.5996 7.54901C15.5518 6.1544 13.8814 5.25 12 5.25C10.1186 5.25 8.44817 6.1544 7.40038 7.54901C7.15157 7.88017 7.21833 8.35032 7.54949 8.59913C7.88066 8.84794 8.35081 8.78118 8.59962 8.45002Z" fill="black"/>
</svg>
