<svg width="24" height="24" viewBox="0 0 24 24" fill="none" xmlns="http://www.w3.org/2000/svg">
<path fill-rule="evenodd" clip-rule="evenodd" d="M3.77249 11.3861C4.08655 7.11645 7.65014 3.75 12 3.75C16.3499 3.75 19.9134 7.11645 20.2275 11.3861C19.3654 11.7013 18.75 12.5288 18.75 13.5V18.5C18.75 19.7426 19.7574 20.75 21 20.75C22.2426 20.75 23.25 19.7426 23.25 18.5V13.5C23.25 12.5129 22.6143 11.6743 21.73 11.3711C21.4059 6.2794 17.1735 2.25 12 2.25C6.8265 2.25 2.59412 6.2794 2.26996 11.3711C1.38565 11.6743 0.75 12.5129 0.75 13.5V18.5C0.75 19.7426 1.75736 20.75 3 20.75C4.24264 20.75 5.25 19.7426 5.25 18.5V13.5C5.25 12.5288 4.63462 11.7013 3.77249 11.3861ZM21 12.75C20.5858 12.75 20.25 13.0858 20.25 13.5V18.5C20.25 18.9142 20.5858 19.25 21 19.25C21.4142 19.25 21.75 18.9142 21.75 18.5V13.5C21.75 13.0858 21.4142 12.75 21 12.75ZM2.25 13.5C2.25 13.0858 2.58579 12.75 3 12.75C3.41421 12.75 3.75 13.0858 3.75 13.5V18.5C3.75 18.9142 3.41421 19.25 3 19.25C2.58579 19.25 2.25 18.9142 2.25 18.5V13.5Z" fill="black"/>
<path d="M8.59962 8.45002C9.37629 7.41628 10.6102 6.75 12 6.75C13.3898 6.75 14.6237 7.41628 15.4004 8.45002C15.6492 8.78118 16.1193 8.84794 16.4505 8.59913C16.7817 8.35032 16.8484 7.88017 16.5996 7.54901C15.5518 6.1544 13.8814 5.25 12 5.25C10.1186 5.25 8.44817 6.1544 7.40038 7.54901C7.15157 7.88017 7.21833 8.35032 7.54949 8.59913C7.88066 8.84794 8.35081 8.78118 8.59962 8.45002Z" fill="black"/>
</svg>
