<svg width="24" height="24" viewBox="0 0 24 24" fill="none" xmlns="http://www.w3.org/2000/svg">
<path fill-rule="evenodd" clip-rule="evenodd" d="M0.713867 8.51829C0.713867 5.19468 3.40855 2.5 6.73216 2.5C9.03153 2.5 10.9373 3.89359 12.0053 4.85472C12.498 4.42382 13.1509 3.92344 13.9053 3.49568C14.8596 2.95454 16.0283 2.5 17.2687 2.5C20.5924 2.5 23.287 5.19468 23.287 8.51829C23.287 9.61324 22.9939 10.642 22.4813 11.528C21.1164 13.8873 18.9745 16.1866 17.047 17.9962C15.1107 19.814 13.3476 21.1775 12.7031 21.6623C12.2843 21.9774 11.7166 21.9774 11.2978 21.6623C10.6533 21.1775 8.89018 19.814 6.95393 17.9962C5.02636 16.1866 2.88447 13.8873 1.51958 11.528C1.00701 10.642 0.713867 9.61324 0.713867 8.51829ZM6.73216 4C4.23698 4 2.21387 6.02311 2.21387 8.51829C2.21387 9.34246 2.43391 10.113 2.81796 10.7769C4.07308 12.9464 6.0892 15.1269 7.98061 16.9027C9.68933 18.5068 11.2614 19.7485 12.0005 20.3127C12.7395 19.7485 14.3116 18.5068 16.0203 16.9027C17.9117 15.1269 19.9278 12.9464 21.183 10.7769C21.567 10.113 21.787 9.34246 21.787 8.51829C21.787 6.02311 19.7639 4 17.2687 4C16.3842 4 15.476 4.32935 14.6452 4.80049C13.82 5.26846 13.1222 5.84724 12.6746 6.27409C12.2977 6.63355 11.7012 6.63591 11.3228 6.26944C10.3934 5.36952 8.68264 4 6.73216 4Z" fill="black"/>
</svg>
