<svg width="24" height="24" viewBox="0 0 24 24" fill="none" xmlns="http://www.w3.org/2000/svg">
<path fill-rule="evenodd" clip-rule="evenodd" d="M0.963867 8.51829C0.963867 5.33276 3.54662 2.75 6.73216 2.75C9.05966 2.75 10.9866 4.24475 12.003 5.19165C12.5005 4.73948 13.2032 4.18118 14.0286 3.71315C14.9623 3.18368 16.0877 2.75 17.2687 2.75C20.4543 2.75 23.037 5.33276 23.037 8.51829C23.037 9.56811 22.7561 10.5539 22.2649 11.4028C20.9183 13.7305 18.7974 16.01 16.8759 17.814C14.9485 19.6234 13.1931 20.9808 12.5528 21.4626C12.223 21.7107 11.7779 21.7107 11.4481 21.4626C10.8078 20.9808 9.05238 19.6234 7.12504 17.814C5.2035 16.01 3.08257 13.7305 1.73598 11.4028C1.24483 10.5539 0.963867 9.56811 0.963867 8.51829ZM6.73216 3.75C4.09891 3.75 1.96387 5.88504 1.96387 8.51829C1.96387 9.38759 2.19609 10.2012 2.60156 10.9021C3.87497 13.1032 5.91206 15.3035 7.8095 17.0849C9.65384 18.8164 11.3393 20.1273 12.0005 20.6266C12.6616 20.1273 14.3471 18.8164 16.1914 17.0849C18.0888 15.3035 20.1259 13.1032 21.3993 10.9021C21.8048 10.2012 22.037 9.38759 22.037 8.51829C22.037 5.88504 19.902 3.75 17.2687 3.75C16.3249 3.75 15.3733 4.10022 14.5219 4.58302C13.6742 5.06372 12.9601 5.65635 12.5021 6.09318C12.2216 6.3607 11.778 6.36227 11.4967 6.08984C10.5626 5.18534 8.78878 3.75 6.73216 3.75Z" fill="black"/>
</svg>
