<svg width="24" height="24" viewBox="0 0 24 24" fill="none" xmlns="http://www.w3.org/2000/svg">
<path d="M17.2686 2.75C20.4541 2.75 23.0371 5.33302 23.0371 8.51855C23.0371 9.56817 22.7557 10.5535 22.2646 11.4023C20.9181 13.73 18.7975 16.0105 16.876 17.8145C14.9487 19.6238 13.193 20.9812 12.5527 21.4629C12.223 21.7108 11.778 21.7108 11.4482 21.4629C10.8079 20.9812 9.05225 19.6238 7.125 17.8145C5.20345 16.0105 3.08293 13.73 1.73633 11.4023C1.2453 10.5535 0.963914 9.56819 0.963867 8.51855C0.963867 5.33302 3.54689 2.75 6.73242 2.75C9.06116 2.75011 10.987 4.24853 12.0029 5.19531C12.5004 4.74286 13.202 4.1815 14.0283 3.71289C14.962 3.18345 16.0875 2.75005 17.2686 2.75ZM17.2686 3.75C16.3247 3.75005 15.3728 4.10023 14.5215 4.58301C13.674 5.06362 12.96 5.65601 12.502 6.09277C12.2215 6.36023 11.7784 6.36206 11.4971 6.08984C10.563 5.18539 8.78893 3.75012 6.73242 3.75C4.09917 3.75 1.96387 5.8853 1.96387 8.51855C1.96391 9.38775 2.19613 10.2015 2.60156 10.9023C3.87499 13.1034 5.91219 15.3036 7.80957 17.085C9.65289 18.8155 11.3381 20.1251 12 20.625C12.6615 20.1254 14.3475 18.816 16.1914 17.085C18.0888 15.3036 20.126 13.1034 21.3994 10.9023C21.8048 10.2015 22.0371 9.38775 22.0371 8.51855C22.0371 5.8853 19.9018 3.75 17.2686 3.75Z" fill="black"/>
</svg>
