<svg width="24" height="24" viewBox="0 0 24 24" fill="none" xmlns="http://www.w3.org/2000/svg">
<path fill-rule="evenodd" clip-rule="evenodd" d="M0.213867 8.51829C0.213867 4.91854 3.13241 2 6.73216 2C8.98551 2 10.8602 3.22838 12.0103 4.19609C12.4711 3.82013 13.0304 3.41701 13.6587 3.06074C14.6541 2.49627 15.9097 2 17.2687 2C20.8685 2 23.787 4.91854 23.787 8.51829C23.787 9.70349 23.4695 10.8184 22.9141 11.7784C21.5126 14.2009 19.3288 16.5398 17.3892 18.3608C15.4351 20.1953 13.6566 21.5707 13.0037 22.0619C12.4069 22.5109 11.594 22.5109 10.9972 22.0619C10.3443 21.5707 8.5658 20.1953 6.6117 18.3608C4.67208 16.5398 2.48827 14.2009 1.08679 11.7784C0.531383 10.8184 0.213867 9.70349 0.213867 8.51829ZM6.73216 4.5C4.51312 4.5 2.71387 6.29925 2.71387 8.51829C2.71387 9.2522 2.90954 9.93669 3.25075 10.5265C4.46928 12.6328 6.44348 14.7737 8.32284 16.5381C9.80881 17.9332 11.191 19.0519 12.0005 19.6814C12.8099 19.0519 14.1921 17.9332 15.6781 16.5381C17.5574 14.7737 19.5316 12.6328 20.7502 10.5265C21.0914 9.93669 21.287 9.2522 21.287 8.51829C21.287 6.29925 19.4878 4.5 17.2687 4.5C16.5028 4.5 15.6815 4.78762 14.8918 5.23543C14.1115 5.67795 13.4464 6.22903 13.0197 6.63593C12.45 7.17924 11.5477 7.18321 10.9749 6.62864C10.055 5.73789 8.47038 4.5 6.73216 4.5Z" fill="black"/>
</svg>
