<svg width="24" height="24" viewBox="0 0 24 24" fill="none" xmlns="http://www.w3.org/2000/svg">
<path d="M12 15.5674C12.8284 15.5674 13.5 16.239 13.5 17.0674C13.5 17.8958 12.8284 18.5674 12 18.5674C11.1716 18.5674 10.5 17.8958 10.5 17.0674C10.5 16.239 11.1716 15.5674 12 15.5674Z" fill="black"/>
<path d="M9.05469 5.41504C10.6183 3.79404 13.2074 3.76895 14.8008 5.3623C16.3737 6.93529 16.3737 9.48557 14.8008 11.0586L13.749 12.1104C13.4686 12.3908 13.3405 12.6073 13.2715 12.7861C13.201 12.9691 13.1621 13.1906 13.1621 13.5273C13.162 14.2176 12.6024 14.7773 11.9121 14.7773C11.222 14.7771 10.6623 14.2174 10.6621 13.5273C10.6621 13.0011 10.7219 12.4499 10.9385 11.8877C11.1565 11.3217 11.5047 10.8196 11.9814 10.3428L13.0332 9.29102C13.6298 8.6943 13.6299 7.72655 13.0332 7.12988C12.428 6.52471 11.4435 6.53506 10.8506 7.15234L10.8438 7.15918L10.8232 7.17871C10.6573 7.35152 10.5336 7.56143 10.4609 7.79102C10.2526 8.44903 9.55063 8.8136 8.89258 8.60547C8.23441 8.39713 7.86978 7.6943 8.07812 7.03613C8.26633 6.44185 8.58881 5.89777 9.02148 5.44727L9.02734 5.44043L9.05371 5.41406L9.05469 5.41504Z" fill="black"/>
<path fill-rule="evenodd" clip-rule="evenodd" d="M12 0C18.6274 0 24 5.37258 24 12C24 18.6274 18.6274 24 12 24C5.37258 24 0 18.6274 0 12C0 5.37258 5.37258 0 12 0ZM12 2.5C6.75329 2.5 2.5 6.75329 2.5 12C2.5 17.2467 6.75329 21.5 12 21.5C17.2467 21.5 21.5 17.2467 21.5 12C21.5 6.75329 17.2467 2.5 12 2.5Z" fill="black"/>
</svg>
