<svg width="24" height="24" viewBox="0 0 24 24" fill="none" xmlns="http://www.w3.org/2000/svg">
<path fill-rule="evenodd" clip-rule="evenodd" d="M24 12C24 18.6274 18.6274 24 12 24C5.37258 24 0 18.6274 0 12C0 5.37258 5.37258 0 12 0C18.6274 0 24 5.37258 24 12ZM10.6038 13.5932C10.6039 13.0442 10.6661 12.4697 10.8919 11.8832C11.1195 11.2924 11.4831 10.7676 11.9808 10.2699L13.0775 9.17325C13.7001 8.5506 13.7001 7.54103 13.0775 6.91837C12.4459 6.28694 11.4188 6.29671 10.8001 6.94083L10.7933 6.94865L10.766 6.97697C10.5963 7.15589 10.4687 7.37144 10.3939 7.60783C10.1764 8.29455 9.44392 8.67482 8.75717 8.45743C8.07041 8.24004 7.69019 7.50749 7.90756 6.82072C8.10392 6.20039 8.44032 5.63274 8.89194 5.16251L8.89877 5.15568L8.92612 5.12736C10.5577 3.43626 13.2596 3.4112 14.9222 5.07365C16.5636 6.71506 16.5636 9.37657 14.9222 11.018L13.8255 12.1147C13.5324 12.4078 13.3985 12.6339 13.3265 12.8207C13.253 13.0116 13.2132 13.2419 13.2132 13.5932C13.2132 14.3135 12.6289 14.8979 11.9085 14.8979C11.1882 14.8978 10.6038 14.3135 10.6038 13.5932ZM11.9999 18.8528C12.8644 18.8528 13.5651 18.1521 13.5651 17.2876C13.5651 16.4232 12.8644 15.7224 11.9999 15.7224C11.1355 15.7224 10.4347 16.4232 10.4347 17.2876C10.4347 18.1521 11.1355 18.8528 11.9999 18.8528Z" fill="black"/>
</svg>
