<svg width="24" height="24" viewBox="0 0 24 24" fill="none" xmlns="http://www.w3.org/2000/svg">
<path fill-rule="evenodd" clip-rule="evenodd" d="M24 12C24 18.6274 18.6274 24 12 24C5.37258 24 0 18.6274 0 12C0 5.37258 5.37258 0 12 0C18.6274 0 24 5.37258 24 12ZM10.8656 13.7236C10.8656 13.1943 10.9254 12.6544 11.1361 12.1074C11.3481 11.557 11.6881 11.0622 12.1654 10.5849L13.2621 9.48826C13.9866 8.76373 13.9866 7.58877 13.2621 6.86424C12.5273 6.12957 11.3325 6.14138 10.6126 6.8906L10.6068 6.89646L10.5843 6.91795L10.5853 6.91892C10.3843 7.12817 10.2338 7.38159 10.1458 7.65916C9.97198 8.20841 9.38555 8.51338 8.83627 8.33982C8.28684 8.1659 7.98169 7.5787 8.15561 7.02928C8.33992 6.4472 8.6558 5.91474 9.07944 5.47361L9.08529 5.46775L9.11264 5.43943C10.6429 3.85245 13.178 3.82911 14.7376 5.38865C16.2772 6.92819 16.2772 9.42431 14.7376 10.9638L13.641 12.0605C13.3274 12.3741 13.1709 12.6302 13.0833 12.8574C12.9946 13.0879 12.9525 13.3525 12.9525 13.7236C12.9525 14.2999 12.4848 14.7676 11.9085 14.7676C11.3323 14.7675 10.8656 14.2999 10.8656 13.7236ZM11.9999 18.7225C12.7203 18.7225 13.3043 18.1385 13.3043 17.4181C13.3043 16.6977 12.7203 16.1138 11.9999 16.1138C11.2795 16.1138 10.6956 16.6977 10.6956 17.4181C10.6956 18.1385 11.2795 18.7225 11.9999 18.7225Z" fill="black"/>
</svg>
