<svg width="24" height="24" viewBox="0 0 24 24" fill="none" xmlns="http://www.w3.org/2000/svg">
<path fill-rule="evenodd" clip-rule="evenodd" d="M2.31982 8.23195C2.31986 7.1602 2.89165 6.1692 3.81982 5.63332L10.3462 1.86574C11.2744 1.32994 12.418 1.32988 13.3462 1.86574L19.8726 5.63332C20.8006 6.16922 21.3725 7.16026 21.3726 8.23195V15.7671C21.3726 16.8388 20.8006 17.8298 19.8726 18.3657L13.3462 22.1333C12.418 22.6692 11.2744 22.6692 10.3462 22.1333L3.81982 18.3657C2.89162 17.8298 2.31982 16.8389 2.31982 15.7671L2.31982 8.23195ZM3.31982 15.7671C3.31982 16.4816 3.70102 17.1423 4.31982 17.4995L10.8462 21.2671C11.465 21.6243 12.2274 21.6244 12.8462 21.2671L19.3726 17.4995C19.9912 17.1422 20.3726 16.4815 20.3726 15.7671V8.23195C20.3725 7.51756 19.9912 6.85681 19.3726 6.49953L12.8462 2.73195C12.2274 2.37472 11.465 2.37478 10.8462 2.73195L4.31982 6.49953C3.70105 6.85678 3.31986 7.51747 3.31982 8.23195L3.31982 15.7671Z" fill="black"/>
</svg>
