<svg width="24" height="24" viewBox="0 0 24 24" fill="none" xmlns="http://www.w3.org/2000/svg">
<path fill-rule="evenodd" clip-rule="evenodd" d="M2.31982 8.23298C2.31982 7.1612 2.89166 6.17025 3.81982 5.63435L10.3462 1.86677C11.2744 1.33087 12.418 1.33087 13.3462 1.86677L19.8726 5.63435C20.8005 6.17029 21.3726 7.16133 21.3726 8.23298V15.7681C21.3724 16.8397 20.8006 17.8309 19.8726 18.3668L13.3462 22.1343C12.4181 22.6702 11.2743 22.6701 10.3462 22.1343L3.81982 18.3668C2.89174 17.8309 2.31997 16.8398 2.31982 15.7681L2.31982 8.23298ZM2.81982 15.7681C2.81997 16.6611 3.29654 17.4866 4.06982 17.9332L10.5962 21.7017C11.3696 22.148 12.3229 22.1482 13.0962 21.7017L19.6226 17.9332C20.3957 17.4866 20.8724 16.661 20.8726 15.7681V8.23298C20.8726 7.34006 20.3957 6.51461 19.6226 6.06794L13.0962 2.29938C12.3227 1.85284 11.3697 1.85291 10.5962 2.29938L4.06982 6.06794C3.29646 6.51455 2.81982 7.3399 2.81982 8.23298L2.81982 15.7681Z" fill="black"/>
</svg>
