<svg width="24" height="24" viewBox="0 0 24 24" fill="none" xmlns="http://www.w3.org/2000/svg">
<path fill-rule="evenodd" clip-rule="evenodd" d="M2.31982 8.23298C2.31982 7.16121 2.89166 6.17025 3.81982 5.63435L10.3462 1.86677C11.2744 1.33087 12.418 1.33087 13.3462 1.86677L19.8726 5.63435C20.8005 6.1703 21.3726 7.16133 21.3726 8.23298V15.7681C21.3724 16.8397 20.8006 17.8309 19.8726 18.3668L13.3462 22.1343C12.4181 22.6701 11.2743 22.6701 10.3462 22.1343L3.81982 18.3668C2.89175 17.8309 2.31998 16.8398 2.31982 15.7681L2.31982 8.23298ZM4.81982 15.7681C4.81998 15.9466 4.91525 16.1125 5.06982 16.2017L11.5962 19.9693C11.7508 20.0584 11.9416 20.0585 12.0962 19.9693L18.6226 16.2017C18.7771 16.1125 18.8724 15.9466 18.8726 15.7681V8.23298C18.8726 8.05449 18.777 7.88875 18.6226 7.79938L12.0962 4.03181C11.9415 3.94249 11.7509 3.9425 11.5962 4.03181L5.06982 7.79938C4.91516 7.88871 4.81982 8.05437 4.81982 8.23298L4.81982 15.7681Z" fill="black"/>
</svg>
