<svg width="24" height="24" viewBox="0 0 24 24" fill="none" xmlns="http://www.w3.org/2000/svg">
<path fill-rule="evenodd" clip-rule="evenodd" d="M0.123117 8.43565C0 9.21298 0 10.142 0 12C0 13.858 0 14.787 0.123117 15.5643C0.800832 19.8433 4.15673 23.1992 8.43565 23.8769C9.21298 24 10.142 24 12 24C13.858 24 14.787 24 15.5643 23.8769C19.8433 23.1992 23.1992 19.8433 23.8769 15.5643C24 14.787 24 13.858 24 12C24 10.142 24 9.21298 23.8769 8.43565C23.1992 4.15673 19.8433 0.800832 15.5643 0.123117C14.787 0 13.858 0 12 0C10.142 0 9.21298 0 8.43565 0.123117C4.15673 0.800832 0.800832 4.15673 0.123117 8.43565ZM5.58333 12.0388C5.58333 11.3814 5.86066 10.7545 6.3471 10.3123L11.2152 5.88674C11.6602 5.4822 12.3398 5.4822 12.7848 5.88674L17.6529 10.3123C18.1393 10.7545 18.4167 11.3814 18.4167 12.0388V16.2566C18.4167 17.2231 17.6332 18.0066 16.6667 18.0066H14.975C14.6483 18.0066 14.485 18.0066 14.3602 17.9431C14.2504 17.8871 14.1612 17.7979 14.1052 17.6881C14.0417 17.5633 14.0417 17.4 14.0417 17.0733V16.3733C14.0417 15.7199 14.0417 15.3932 13.9145 15.1436C13.8027 14.9241 13.6242 14.7456 13.4047 14.6338C13.1551 14.5066 12.8284 14.5066 12.175 14.5066H11.825C11.1716 14.5066 10.8449 14.5066 10.5953 14.6338C10.3758 14.7456 10.1973 14.9241 10.0855 15.1436C9.95833 15.3932 9.95833 15.7199 9.95833 16.3733V17.0733C9.95833 17.4 9.95833 17.5633 9.89475 17.6881C9.83883 17.7979 9.74959 17.8871 9.63983 17.9431C9.51505 18.0066 9.3517 18.0066 9.025 18.0066H7.33333C6.36683 18.0066 5.58333 17.2231 5.58333 16.2566V12.0388Z" fill="black"/>
</svg>
