<svg width="24" height="24" viewBox="0 0 24 24" fill="none" xmlns="http://www.w3.org/2000/svg">
<path d="M12 0C13.858 0 14.7871 -6.97776e-05 15.5645 0.123047C19.8433 0.800792 23.1992 4.1567 23.877 8.43555C24.0001 9.21287 24 10.142 24 12C24 13.858 24.0001 14.7871 23.877 15.5645C23.1992 19.8433 19.8433 23.1992 15.5645 23.877C14.7871 24.0001 13.858 24 12 24C10.142 24 9.21287 24.0001 8.43555 23.877C4.1567 23.1992 0.800792 19.8433 0.123047 15.5645C-6.97776e-05 14.7871 0 13.858 0 12C0 10.142 -6.97776e-05 9.21287 0.123047 8.43555C0.800792 4.1567 4.1567 0.800792 8.43555 0.123047C9.21287 -6.97776e-05 10.142 0 12 0ZM12.7842 5.88672C12.3392 5.48254 11.6597 5.48242 11.2148 5.88672L6.34668 10.3125C5.86048 10.7547 5.58304 11.3819 5.58301 12.0391V16.2568C5.58319 17.2231 6.36677 18.0067 7.33301 18.0068H9.02539C9.35155 18.0068 9.51496 18.0067 9.63965 17.9434C9.74941 17.8874 9.83861 17.7973 9.89453 17.6875C9.95795 17.5628 9.95801 17.3996 9.95801 17.0732V16.374C9.95801 15.721 9.95801 15.3931 10.085 15.1436C10.1967 14.9243 10.3755 14.7456 10.5947 14.6338C10.8442 14.5067 11.1713 14.5068 11.8242 14.5068H12.1748C12.8279 14.5068 13.1548 14.5068 13.4043 14.6338C13.6237 14.7456 13.8022 14.9242 13.9141 15.1436C14.0411 15.3931 14.041 15.7208 14.041 16.374V17.0732C14.041 17.3994 14.0412 17.5628 14.1045 17.6875C14.1604 17.7972 14.2497 17.8874 14.3594 17.9434C14.4841 18.0069 14.648 18.0068 14.9746 18.0068H16.666C17.6324 18.0068 18.4158 17.2232 18.416 16.2568V12.0391C18.416 11.3817 18.1388 10.7547 17.6523 10.3125L12.7842 5.88672Z" fill="black"/>
</svg>
