<svg width="24" height="24" viewBox="0 0 24 24" fill="none" xmlns="http://www.w3.org/2000/svg">
<path fill-rule="evenodd" clip-rule="evenodd" d="M10.6547 0.844339C11.4175 0.150846 12.5825 0.150845 13.3453 0.844338L22.6817 9.33192C23.2029 9.80572 23.5 10.4774 23.5 11.1818V20.797C23.5 21.9016 22.6046 22.797 21.5 22.797H15.5906C14.9788 22.797 14.5 22.2882 14.5 21.697V17.897C14.5 17.6088 14.4996 17.4226 14.488 17.2809C14.4769 17.1451 14.4581 17.0948 14.4455 17.07C14.3976 16.976 14.3211 16.8995 14.227 16.8515C14.2023 16.8389 14.1519 16.8201 14.0161 16.809C13.8744 16.7974 13.6883 16.797 13.4 16.797H10.6C10.3117 16.797 10.1256 16.7974 9.98392 16.809C9.84809 16.8201 9.79773 16.8389 9.773 16.8515C9.67892 16.8995 9.60243 16.976 9.5545 17.07C9.5419 17.0948 9.52306 17.1451 9.51196 17.2809C9.50039 17.4226 9.5 17.6088 9.5 17.897V21.697C9.5 22.2882 9.02117 22.797 8.40943 22.797H2.5C1.39543 22.797 0.5 21.9016 0.5 20.797V11.1818C0.5 10.4774 0.797132 9.80572 1.31832 9.33192L10.6547 0.844339ZM12.6727 1.58428C12.2913 1.23753 11.7087 1.23753 11.3273 1.58428L1.99099 10.0719C1.67828 10.3561 1.5 10.7592 1.5 11.1818V20.797C1.5 21.3493 1.94772 21.797 2.5 21.797H8.40943C8.42802 21.797 8.4495 21.7896 8.46934 21.7694C8.48967 21.7486 8.5 21.7223 8.5 21.697V17.8778C8.49999 17.6142 8.49998 17.3868 8.51528 17.1995C8.53144 17.0018 8.56709 16.8052 8.66349 16.616C8.8073 16.3338 9.03677 16.1043 9.31901 15.9605C9.5082 15.8641 9.70481 15.8285 9.90249 15.8123C10.0898 15.797 10.3171 15.797 10.5807 15.797H13.4193C13.6829 15.797 13.9102 15.797 14.0975 15.8123C14.2952 15.8285 14.4918 15.8641 14.681 15.9605C14.9632 16.1043 15.1927 16.3338 15.3365 16.616C15.4329 16.8052 15.4686 17.0018 15.4847 17.1995C15.5 17.3868 15.5 17.6142 15.5 17.8777V21.697C15.5 21.7223 15.5103 21.7486 15.5307 21.7694C15.5505 21.7896 15.572 21.797 15.5906 21.797H21.5C22.0523 21.797 22.5 21.3493 22.5 20.797V11.1818C22.5 10.7592 22.3217 10.3561 22.009 10.0719L12.6727 1.58428Z" fill="black"/>
</svg>
