<svg width="24" height="24" viewBox="0 0 24 24" fill="none" xmlns="http://www.w3.org/2000/svg">
<path fill-rule="evenodd" clip-rule="evenodd" d="M10.6553 0.843758C11.4179 0.151039 12.5821 0.151039 13.3447 0.843758L22.6816 9.33204C23.2026 9.8058 23.5 10.4776 23.5 11.1816V20.7969C23.5 21.9015 22.6046 22.7969 21.5 22.7969H15.5879C15.0125 22.7968 14.5602 22.3477 14.5059 21.8066L14.5 21.6973V17.8975C14.5 17.6094 14.4999 17.423 14.4883 17.2813C14.4772 17.1461 14.458 17.0953 14.4453 17.0703L14.4043 17.0029C14.3582 16.9395 14.297 16.8875 14.2266 16.8516C14.2013 16.8389 14.1497 16.8196 14.0156 16.8086C13.9449 16.8028 13.8629 16.8004 13.7627 16.7988L13.4004 16.7969H10.5996C10.3119 16.7969 10.1258 16.797 9.98438 16.8086C9.84959 16.8197 9.79852 16.8389 9.77344 16.8516C9.67956 16.8994 9.60266 16.9763 9.55469 17.0703C9.54204 17.0953 9.52282 17.1461 9.51172 17.2813C9.50007 17.423 9.5 17.6094 9.5 17.8975V21.6973L9.49414 21.8066C9.43977 22.3477 8.98746 22.7968 8.41211 22.7969H2.5C1.39543 22.7969 0.5 21.9015 0.5 20.7969V11.1816C0.500048 10.4776 0.797447 9.8058 1.31836 9.33204L10.6553 0.843758ZM12.6729 1.58399C12.2915 1.23753 11.7085 1.23753 11.3271 1.58399L1.99023 10.0723C1.67796 10.3565 1.50004 10.7593 1.5 11.1816V20.7969C1.5 21.3492 1.94772 21.7969 2.5 21.7969H8.41211C8.43025 21.7968 8.45078 21.7899 8.46973 21.7705C8.48938 21.7503 8.5 21.7237 8.5 21.6973V17.8975C8.5 17.6255 8.49984 17.3913 8.51562 17.1992C8.53189 17.0015 8.56774 16.8043 8.66406 16.6152C8.80781 16.3336 9.03742 16.1047 9.31934 15.9609C9.50821 15.8648 9.70471 15.8288 9.90234 15.8125C10.0942 15.7967 10.3279 15.7969 10.5996 15.7969H13.4004C13.6721 15.7969 13.9058 15.7967 14.0977 15.8125C14.2954 15.8288 14.4927 15.8647 14.6816 15.9609C14.9634 16.1047 15.1923 16.3337 15.3359 16.6152C15.4322 16.8042 15.4681 17.0016 15.4844 17.1992C15.5002 17.3913 15.5 17.6255 15.5 17.8975V21.6973C15.5 21.7237 15.5106 21.7503 15.5303 21.7705C15.5492 21.7899 15.5698 21.7968 15.5879 21.7969H21.5L21.6025 21.792C22.1067 21.7407 22.5 21.3146 22.5 20.7969V11.1816C22.5 10.7593 22.322 10.3565 22.0098 10.0723L12.6729 1.58399Z" fill="black"/>
</svg>
