<svg width="24" height="24" viewBox="0 0 24 24" fill="none" xmlns="http://www.w3.org/2000/svg">
<path fill-rule="evenodd" clip-rule="evenodd" d="M0.123117 8.43565C0 9.21298 0 10.142 0 12C0 13.858 0 14.787 0.123117 15.5643C0.800832 19.8433 4.15673 23.1992 8.43565 23.8769C9.21298 24 10.142 24 12 24C13.858 24 14.787 24 15.5643 23.8769C19.8433 23.1992 23.1992 19.8433 23.8769 15.5643C24 14.787 24 13.858 24 12C24 10.142 24 9.21298 23.8769 8.43565C23.1992 4.15673 19.8433 0.800832 15.5643 0.123117C14.787 0 13.858 0 12 0C10.142 0 9.21298 0 8.43565 0.123117C4.15673 0.800832 0.800832 4.15673 0.123117 8.43565ZM5.58333 12.0388C5.58333 11.3814 5.86066 10.7545 6.3471 10.3123L11.2152 5.88674C11.6602 5.4822 12.3398 5.4822 12.7848 5.88674L17.6529 10.3123C18.1393 10.7545 18.4167 11.3814 18.4167 12.0388V16.2566C18.4167 17.2231 17.6332 18.0066 16.6667 18.0066H14.6833C14.3566 18.0066 14.1933 18.0066 14.0685 17.943C13.9587 17.8871 13.8695 17.7979 13.8136 17.6881C13.75 17.5633 13.75 17.4 13.75 17.0733V16.2566C13.75 15.713 13.75 15.4412 13.6612 15.2268C13.5428 14.941 13.3157 14.7138 13.0298 14.5954C12.8154 14.5066 12.5436 14.5066 12 14.5066C11.4564 14.5066 11.1846 14.5066 10.9702 14.5954C10.6843 14.7138 10.4572 14.941 10.3388 15.2268C10.25 15.4412 10.25 15.713 10.25 16.2566V17.0733C10.25 17.4 10.25 17.5633 10.1864 17.6881C10.1305 17.7979 10.0413 17.8871 9.93149 17.943C9.80671 18.0066 9.64336 18.0066 9.31667 18.0066H7.33333C6.36683 18.0066 5.58333 17.2231 5.58333 16.2566V12.0388Z" fill="black"/>
</svg>
