<svg width="24" height="24" viewBox="0 0 24 24" fill="none" xmlns="http://www.w3.org/2000/svg">
<path d="M12 0C13.858 0 14.7871 -6.97776e-05 15.5645 0.123047C19.8433 0.800792 23.1992 4.1567 23.877 8.43555C24.0001 9.21287 24 10.142 24 12C24 13.858 24.0001 14.7871 23.877 15.5645C23.1992 19.8433 19.8433 23.1992 15.5645 23.877C14.7871 24.0001 13.858 24 12 24C10.142 24 9.21287 24.0001 8.43555 23.877C4.1567 23.1992 0.800792 19.8433 0.123047 15.5645C-6.97776e-05 14.7871 0 13.858 0 12C0 10.142 -6.97776e-05 9.21287 0.123047 8.43555C0.800792 4.1567 4.1567 0.800792 8.43555 0.123047C9.21287 -6.97776e-05 10.142 0 12 0ZM12.7842 5.88672C12.3392 5.48254 11.6597 5.48242 11.2148 5.88672L6.34668 10.3125C5.86048 10.7547 5.58304 11.3819 5.58301 12.0391V16.2568C5.58319 17.2231 6.36677 18.0067 7.33301 18.0068H9.31738C9.64354 18.0068 9.80695 18.0067 9.93164 17.9434C10.0414 17.8874 10.1306 17.7973 10.1865 17.6875C10.2499 17.5628 10.25 17.3996 10.25 17.0732V16.2568C10.25 15.7138 10.2503 15.4418 10.3389 15.2275C10.4572 14.9418 10.6841 14.7142 10.9697 14.5957C11.1841 14.5069 11.4566 14.5068 12 14.5068C12.5431 14.5068 12.815 14.5071 13.0293 14.5957C13.3152 14.7141 13.5427 14.9417 13.6611 15.2275C13.7497 15.4418 13.75 15.7138 13.75 16.2568V17.0732C13.75 17.3994 13.7502 17.5628 13.8135 17.6875C13.8694 17.7972 13.9587 17.8874 14.0684 17.9434C14.1931 18.0069 14.3569 18.0068 14.6836 18.0068H16.666C17.6324 18.0068 18.4158 17.2232 18.416 16.2568V12.0391C18.416 11.3817 18.1388 10.7547 17.6523 10.3125L12.7842 5.88672Z" fill="black"/>
</svg>
