<svg width="24" height="25" viewBox="0 0 24 25" fill="none" xmlns="http://www.w3.org/2000/svg">
<path fill-rule="evenodd" clip-rule="evenodd" d="M13.6817 1.47437L23.018 9.96195C23.6434 10.5305 24 11.3365 24 12.1818V21.797C24 23.1777 22.8807 24.297 21.5 24.297H15.5906C14.6925 24.297 14 23.554 14 22.697V18.897C14 18.6005 13.9992 18.4382 13.9897 18.3217C13.9893 18.317 13.9889 18.3126 13.9885 18.3085C13.9844 18.3081 13.98 18.3077 13.9754 18.3073C13.8588 18.2978 13.6965 18.297 13.4 18.297H10.6C10.3035 18.297 10.1412 18.2978 10.0246 18.3073C10.02 18.3077 10.0156 18.3081 10.0115 18.3085C10.0111 18.3126 10.0107 18.317 10.0103 18.3217C10.0008 18.4382 10 18.6005 10 18.897V22.697C10 23.554 9.30753 24.297 8.40943 24.297H2.5C1.11929 24.297 0 23.1777 0 21.797V12.1818C0 11.3365 0.356558 10.5305 0.981982 9.96195L10.3183 1.47437C11.2719 0.607502 12.7281 0.607502 13.6817 1.47437ZM12.3363 2.95425C12.1456 2.78088 11.8544 2.78088 11.6637 2.95425L2.32733 11.4418C2.11885 11.6313 2 11.9 2 12.1818V21.797C2 22.0732 2.22386 22.297 2.5 22.297H8L8 18.8651C7.99997 18.6127 7.99994 18.367 8.01694 18.1588C8.03562 17.9302 8.07969 17.6605 8.21799 17.389C8.40973 17.0127 8.71569 16.7068 9.09202 16.515C9.36344 16.3767 9.63318 16.3326 9.86177 16.314C10.0699 16.297 10.3157 16.297 10.5681 16.297H13.4319C13.6843 16.297 13.9301 16.297 14.1382 16.314C14.3668 16.3326 14.6366 16.3767 14.908 16.515C15.2843 16.7068 15.5903 17.0127 15.782 17.389C15.9203 17.6605 15.9644 17.9302 15.9831 18.1588C16.0001 18.367 16 18.6128 16 18.8651L16 22.297H21.5C21.7761 22.297 22 22.0732 22 21.797V12.1818C22 11.9 21.8811 11.6313 21.6727 11.4418L12.3363 2.95425Z" fill="black"/>
</svg>
