<svg width="24" height="24" viewBox="0 0 24 24" fill="none" xmlns="http://www.w3.org/2000/svg">
<path fill-rule="evenodd" clip-rule="evenodd" d="M0.123117 8.43565C0 9.21298 0 10.142 0 12C0 13.858 0 14.787 0.123117 15.5643C0.800832 19.8433 4.15673 23.1992 8.43565 23.8769C9.21298 24 10.142 24 12 24C13.858 24 14.787 24 15.5643 23.8769C19.8433 23.1992 23.1992 19.8433 23.8769 15.5643C24 14.787 24 13.858 24 12C24 10.142 24 9.21298 23.8769 8.43565C23.1992 4.15673 19.8433 0.800832 15.5643 0.123117C14.787 0 13.858 0 12 0C10.142 0 9.21298 0 8.43565 0.123117C4.15673 0.800832 0.800832 4.15673 0.123117 8.43565ZM5.58333 12.0388C5.58333 11.3814 5.86066 10.7545 6.3471 10.3123L11.2152 5.88674C11.6602 5.4822 12.3398 5.4822 12.7848 5.88674L17.6529 10.3123C18.1393 10.7545 18.4167 11.3814 18.4167 12.0388V16.2566C18.4167 17.2231 17.6332 18.0066 16.6667 18.0066H14.3917C14.065 18.0066 13.9016 18.0066 13.7768 17.943C13.6671 17.8871 13.5778 17.7979 13.5219 17.6881C13.4583 17.5633 13.4583 17.4 13.4583 17.0733V15.965C13.4583 15.6939 13.4583 15.5584 13.4359 15.4457C13.3439 14.9829 12.9821 14.6211 12.5193 14.529C12.4066 14.5066 12.271 14.5066 12 14.5066C11.729 14.5066 11.5934 14.5066 11.4807 14.529C11.0179 14.6211 10.6561 14.9829 10.5641 15.4457C10.5417 15.5584 10.5417 15.6939 10.5417 15.965V17.0733C10.5417 17.4 10.5417 17.5633 10.4781 17.6881C10.4222 17.7979 10.3329 17.8871 10.2232 17.943C10.0984 18.0066 9.93503 18.0066 9.60833 18.0066H7.33333C6.36683 18.0066 5.58333 17.2231 5.58333 16.2566V12.0388Z" fill="black"/>
</svg>
