<svg width="24" height="24" viewBox="0 0 24 24" fill="none" xmlns="http://www.w3.org/2000/svg">
<path fill-rule="evenodd" clip-rule="evenodd" d="M10.8228 1.02932C11.4903 0.422517 12.5097 0.422517 13.1772 1.02932L22.5135 9.5169C22.9826 9.94333 23.25 10.5478 23.25 11.1818V20.797C23.25 21.7635 22.4665 22.547 21.5 22.547H15.5906C15.122 22.547 14.75 22.1553 14.75 21.697V17.897C14.75 17.6129 14.7498 17.4148 14.7372 17.2606C14.7248 17.1093 14.7018 17.0224 14.6683 16.9565C14.5963 16.8154 14.4816 16.7007 14.3405 16.6288C14.2747 16.5952 14.1877 16.5722 14.0364 16.5598C13.8822 16.5472 13.6842 16.547 13.4 16.547H10.6C10.3158 16.547 10.1178 16.5472 9.96356 16.5598C9.81227 16.5722 9.72535 16.5952 9.65951 16.6288C9.51838 16.7007 9.40365 16.8154 9.33175 16.9565C9.2982 17.0224 9.27516 17.1093 9.26279 17.2606C9.25019 17.4148 9.25 17.6129 9.25 17.897V21.697C9.25 22.1553 8.87799 22.547 8.40943 22.547H2.5C1.5335 22.547 0.75 21.7635 0.75 20.797V11.1818C0.75 10.5478 1.01742 9.94333 1.48649 9.5169L10.8228 1.02932ZM12.8408 1.39929C12.3641 0.96586 11.6359 0.965861 11.1592 1.39929L1.82282 9.88687C1.45799 10.2185 1.25 10.6887 1.25 11.1818V20.797C1.25 21.4874 1.80964 22.047 2.5 22.047H8.40943C8.59162 22.047 8.75 21.8895 8.75 21.697V17.8863C8.75 17.6154 8.74999 17.3968 8.76445 17.2199C8.77934 17.0377 8.81079 16.8776 8.88624 16.7295C9.00608 16.4943 9.19731 16.3031 9.43251 16.1833C9.58058 16.1078 9.74063 16.0764 9.92284 16.0615C10.0998 16.047 10.3183 16.047 10.5893 16.047H13.4107C13.6817 16.047 13.9002 16.047 14.0772 16.0615C14.2594 16.0764 14.4194 16.1078 14.5675 16.1833C14.8027 16.3031 14.9939 16.4943 15.1138 16.7295C15.1892 16.8776 15.2207 17.0377 15.2355 17.2199C15.25 17.3968 15.25 17.6154 15.25 17.8863V21.697C15.25 21.8895 15.4084 22.047 15.5906 22.047H21.5C22.1904 22.047 22.75 21.4874 22.75 20.797V11.1818C22.75 10.6887 22.542 10.2185 22.1772 9.88687L12.8408 1.39929Z" fill="black"/>
</svg>
