<svg width="24" height="24" viewBox="0 0 24 24" fill="none" xmlns="http://www.w3.org/2000/svg">
<path fill-rule="evenodd" clip-rule="evenodd" d="M10.8232 1.03001C11.4906 0.423591 12.5094 0.42359 13.1768 1.03001L22.5137 9.51829C22.9823 9.94467 23.25 10.5487 23.25 11.1824V20.7976C23.2497 21.7639 22.4663 22.5476 21.5 22.5476H15.5879C15.148 22.5475 14.7964 22.2023 14.7539 21.7829L14.75 21.698V17.8972C14.75 17.6138 14.7499 17.4155 14.7373 17.2615C14.7249 17.1105 14.7015 17.0226 14.668 16.9568C14.5961 16.816 14.4816 16.7015 14.3408 16.6296C14.2749 16.596 14.1873 16.5727 14.0361 16.5603C13.9593 16.554 13.8715 16.5512 13.7676 16.5495L13.4004 16.5476H10.5996C10.3159 16.5476 10.1179 16.5476 9.96387 16.5603C9.81267 16.5727 9.72509 16.596 9.65918 16.6296C9.51845 16.7015 9.40386 16.816 9.33203 16.9568C9.29855 17.0226 9.27512 17.1105 9.2627 17.2615C9.25008 17.4155 9.25 17.6138 9.25 17.8972V21.698L9.24609 21.7829C9.20363 22.2023 8.85198 22.5475 8.41211 22.5476H2.5C1.53366 22.5476 0.750253 21.7639 0.75 20.7976V11.1824C0.75 10.5487 1.01772 9.94467 1.48633 9.51829L10.8232 1.03001ZM12.8408 1.39915C12.3642 0.966167 11.6358 0.966167 11.1592 1.39915L1.82227 9.88743C1.45778 10.2191 1.25 10.6896 1.25 11.1824V20.7976C1.25025 21.4877 1.8098 22.0476 2.5 22.0476H8.41211C8.59273 22.0475 8.74975 21.8911 8.75 21.698V17.8972C8.75 17.6217 8.74995 17.3996 8.76465 17.2204C8.77963 17.0384 8.81152 16.878 8.88672 16.7302C9.00649 16.4953 9.19774 16.3041 9.43262 16.1843C9.58052 16.109 9.7407 16.0772 9.92285 16.0622C10.1021 16.0475 10.3239 16.0476 10.5996 16.0476H13.4004C13.6761 16.0476 13.8979 16.0475 14.0771 16.0622C14.2593 16.0772 14.4195 16.109 14.5674 16.1843C14.8023 16.3041 14.9935 16.4953 15.1133 16.7302C15.1885 16.878 15.2204 17.0384 15.2354 17.2204C15.25 17.3996 15.25 17.6217 15.25 17.8972V21.698C15.2503 21.8911 15.4073 22.0475 15.5879 22.0476H21.5L21.6279 22.0408C22.258 21.9767 22.7498 21.4445 22.75 20.7976V11.1824C22.75 10.6896 22.5422 10.2191 22.1777 9.88743L12.8408 1.39915Z" fill="black"/>
</svg>
