<svg width="24" height="24" viewBox="0 0 24 24" fill="none" xmlns="http://www.w3.org/2000/svg">
<path d="M21.5 22.7969C22.6046 22.7969 23.5 21.9015 23.5 20.7969V11.1817C23.5 10.4776 23.2026 9.80581 22.6816 9.33205L13.3447 0.843764C12.5821 0.151037 11.4179 0.151037 10.6553 0.843764L1.31836 9.33205C0.797444 9.80581 0.500044 10.4776 0.5 11.1817V20.7969C0.5 21.9015 1.39543 22.7969 2.5 22.7969H8.41211C8.98746 22.7968 9.43977 22.3477 9.49414 21.8067L9.5 21.6973V17.8975C9.5 17.6094 9.50007 17.423 9.51172 17.2813C9.52282 17.1461 9.54204 17.0953 9.55469 17.0703C9.60266 16.9763 9.67955 16.8994 9.77344 16.8516C9.79852 16.8389 9.84958 16.8197 9.98438 16.8086C10.1258 16.797 10.3119 16.7969 10.5996 16.7969H13.4004L13.7627 16.7988C13.8629 16.8004 13.9449 16.8028 14.0156 16.8086C14.1497 16.8196 14.2013 16.8379 14.2266 16.8506C14.297 16.8865 14.3582 16.9395 14.4043 17.0029L14.4453 17.0703C14.458 17.0953 14.4772 17.1461 14.4883 17.2813C14.4999 17.423 14.5 17.6094 14.5 17.8975V21.6973L14.5059 21.8067C14.5602 22.3477 15.0125 22.7968 15.5879 22.7969H21.5Z" fill="black"/>
</svg>
