<svg width="26" height="25" viewBox="0 0 26 25" fill="none" xmlns="http://www.w3.org/2000/svg">
<path fill-rule="evenodd" clip-rule="evenodd" d="M14.8498 1.28938L24.1862 9.77696C24.8637 10.3929 25.25 11.2661 25.25 12.1818V21.797C25.25 23.3158 24.0188 24.547 22.5 24.547H16.5906C15.5493 24.547 14.75 23.6869 14.75 22.697V18.897C14.75 18.7555 14.75 18.6444 14.7485 18.5485C14.6526 18.5471 14.5415 18.547 14.4 18.547H11.6C11.4585 18.547 11.3474 18.5471 11.2515 18.5485C11.25 18.6444 11.25 18.7555 11.25 18.897V22.697C11.25 23.6869 10.4507 24.547 9.40943 24.547H3.5C1.98122 24.547 0.75 23.3158 0.75 21.797V12.1818C0.75 11.2661 1.13627 10.3929 1.81381 9.77696L11.1501 1.28938C12.1991 0.335831 13.8009 0.33583 14.8498 1.28938ZM13.1682 3.13923C13.0728 3.05255 12.9272 3.05255 12.8318 3.13923L3.4955 11.6268C3.33914 11.769 3.25 11.9705 3.25 12.1818V21.797C3.25 21.9351 3.36193 22.047 3.5 22.047H8.75L8.75 18.8605C8.74995 18.6124 8.74991 18.3571 8.76778 18.1384C8.78772 17.8944 8.83599 17.5881 8.99523 17.2755C9.21095 16.8522 9.55516 16.508 9.97852 16.2923C10.2911 16.133 10.5974 16.0847 10.8414 16.0648C11.0601 16.0469 11.3154 16.047 11.5634 16.047H14.4366C14.6846 16.047 14.9399 16.0469 15.1586 16.0648C15.4026 16.0847 15.7089 16.133 16.0215 16.2923C16.4448 16.508 16.7891 16.8522 17.0048 17.2755C17.164 17.5881 17.2123 17.8944 17.2322 18.1384C17.2501 18.3571 17.25 18.6124 17.25 18.8605L17.25 22.047H22.5C22.6381 22.047 22.75 21.9351 22.75 21.797V12.1818C22.75 11.9705 22.6609 11.769 22.5045 11.6268L13.1682 3.13923Z" fill="black"/>
</svg>
