<svg width="24" height="24" viewBox="0 0 24 24" fill="none" xmlns="http://www.w3.org/2000/svg">
<path fill-rule="evenodd" clip-rule="evenodd" d="M10.2617 0.577966C11.3638 -0.247554 12.9152 -0.188841 13.9531 0.754724L22.8936 8.88265C23.5981 9.52327 24.0009 10.4318 24.001 11.3846V20.5926C24.0005 22.1959 22.6996 23.4947 21.0977 23.495H15.4365C14.3527 23.4949 13.5174 22.6554 13.417 21.6561L13.4062 21.4539V17.8153C13.4062 17.7927 13.4053 17.7707 13.4053 17.7498H10.5947V21.4539L10.584 21.6561C10.4836 22.6552 9.64811 23.4946 8.56445 23.495H2.90332C1.30115 23.495 0.0005226 22.196 0 20.5926V11.3846C9.32454e-05 10.4317 0.403023 9.52317 1.10742 8.88265L10.0479 0.754724L10.2617 0.577966ZM3.08008 11.0526C2.98638 11.1378 2.93369 11.2587 2.93359 11.3846V20.5614H7.66113V17.8153C7.66113 17.5727 7.66008 17.3015 7.67871 17.0692C7.69877 16.8197 7.74911 16.4844 7.9248 16.1395C8.15887 15.6805 8.53199 15.3115 8.98438 15.0809C9.32748 14.9062 9.6608 14.8553 9.91113 14.8348C10.1443 14.8157 10.4154 14.8162 10.6592 14.8162H13.3408C13.5849 14.8162 13.8566 14.8157 14.0898 14.8348C14.3087 14.8527 14.5908 14.8942 14.8877 15.0213L15.0166 15.0809C15.4147 15.284 15.7486 15.5932 15.9814 15.9725L16.0752 16.1395L16.1348 16.2684C16.2619 16.5654 16.3033 16.8474 16.3213 17.0662C16.3404 17.2996 16.3398 17.5712 16.3398 17.8153V20.5614H21.0674V11.3846C21.0673 11.2586 21.0145 11.1377 20.9209 11.0526L12 2.94222L3.08008 11.0526Z" fill="black"/>
</svg>
