<svg width="24" height="24" viewBox="0 0 24 24" fill="none" xmlns="http://www.w3.org/2000/svg">
<path d="M12 0C13.858 0 14.7871 -6.97776e-05 15.5645 0.123047C19.8433 0.800792 23.1992 4.1567 23.877 8.43555C24.0001 9.21287 24 10.142 24 12C24 13.858 24.0001 14.7871 23.877 15.5645C23.1992 19.8433 19.8433 23.1992 15.5645 23.877C14.7871 24.0001 13.858 24 12 24C10.142 24 9.21287 24.0001 8.43555 23.877C4.1567 23.1992 0.800792 19.8433 0.123047 15.5645C-6.97776e-05 14.7871 0 13.858 0 12C0 10.142 -6.97776e-05 9.21287 0.123047 8.43555C0.800792 4.1567 4.1567 0.800792 8.43555 0.123047C9.21287 -6.97776e-05 10.142 0 12 0ZM12.7842 5.88672C12.3392 5.48254 11.6597 5.48242 11.2148 5.88672L6.34668 10.3125C5.86048 10.7547 5.58304 11.3819 5.58301 12.0391V16.2568C5.58319 17.2231 6.36677 18.0067 7.33301 18.0068H9.6084C9.93455 18.0068 10.098 18.0067 10.2227 17.9434C10.3324 17.8874 10.4216 17.7973 10.4775 17.6875C10.541 17.5628 10.541 17.3996 10.541 17.0732V15.9648C10.541 15.6947 10.5412 15.5588 10.5635 15.4463C10.6555 14.9836 11.0178 14.6215 11.4805 14.5293C11.5931 14.5069 11.7292 14.5068 12 14.5068C12.2703 14.5068 12.406 14.507 12.5186 14.5293C12.9814 14.6214 13.3435 14.9835 13.4355 15.4463C13.4578 15.5588 13.458 15.6945 13.458 15.9648V17.0732C13.458 17.3994 13.4582 17.5628 13.5215 17.6875C13.5774 17.7972 13.6667 17.8874 13.7764 17.9434C13.9011 18.0069 14.0649 18.0068 14.3916 18.0068H16.666C17.6324 18.0068 18.4158 17.2232 18.416 16.2568V12.0391C18.416 11.3817 18.1388 10.7547 17.6523 10.3125L12.7842 5.88672Z" fill="black"/>
</svg>
