<svg width="24" height="24" viewBox="0 0 24 24" fill="none" xmlns="http://www.w3.org/2000/svg">
<path fill-rule="evenodd" clip-rule="evenodd" d="M10.3184 0.649048C11.2717 -0.217 12.7283 -0.217001 13.6816 0.649048L23.0186 9.13733C23.6436 9.70582 23.9999 10.5122 24 11.3571V20.9723C24 22.353 22.8807 23.4723 21.5 23.4723H15.5879C14.7418 23.4722 14.0863 22.8152 14.0078 22.0309L14 21.8727V18.0729C14 17.7769 13.9988 17.6142 13.9893 17.4977C13.9888 17.4929 13.9877 17.4883 13.9873 17.484C13.9834 17.4836 13.9789 17.4834 13.9746 17.483C13.9165 17.4783 13.8469 17.4757 13.7549 17.4742L13.4004 17.4723H10.5996C10.3039 17.4723 10.1417 17.4735 10.0254 17.483C10.0207 17.4834 10.0159 17.4836 10.0117 17.484C10.0113 17.4882 10.0111 17.493 10.0107 17.4977C10.0012 17.6142 10 17.7769 10 18.0729V21.8727L9.99219 22.0309C9.91365 22.8152 9.25815 23.4722 8.41211 23.4723H2.5C1.11929 23.4723 0 22.353 0 20.9723V11.3571C0.000116233 10.5122 0.356385 9.70582 0.981445 9.13733L10.3184 0.649048ZM12.3359 2.12952C12.1454 1.95663 11.8546 1.95663 11.6641 2.12952L2.32715 10.6178C2.11903 10.8072 2.0001 11.0756 2 11.3571V20.9723C2 21.2484 2.22386 21.4723 2.5 21.4723H8V18.0729C8 17.809 7.99973 17.5508 8.01758 17.3336C8.03639 17.105 8.08065 16.8351 8.21875 16.5641L8.2959 16.4264C8.48785 16.1137 8.76281 15.8588 9.0918 15.691L9.29395 15.6031C9.49476 15.5316 9.68977 15.504 9.86133 15.4899C10.0784 15.472 10.336 15.4723 10.5996 15.4723H13.4004C13.664 15.4723 13.9216 15.472 14.1387 15.4899C14.3674 15.5087 14.6372 15.553 14.9082 15.691L15.0459 15.7682C15.3141 15.9328 15.5396 16.1584 15.7041 16.4264L15.7812 16.5641C15.9194 16.8351 15.9636 17.105 15.9824 17.3336C16.0003 17.5508 16 17.809 16 18.0729V21.4723H21.5L21.6006 21.4625C21.8285 21.416 22 21.214 22 20.9723V11.3571C21.9999 11.0756 21.881 10.8072 21.6729 10.6178L12.3359 2.12952Z" fill="black"/>
</svg>
