<svg width="24" height="24" viewBox="0 0 24 24" fill="none" xmlns="http://www.w3.org/2000/svg">
<path fill-rule="evenodd" clip-rule="evenodd" d="M5.6715 3.91738C6.74845 2.48144 8.78556 2.19042 10.2215 3.26738L11.2066 4.00618C13.917 6.03901 17.0065 7.5095 20.2934 8.33122C22.0347 8.76656 23.0934 10.5311 22.6581 12.2724C22.601 12.5005 22.5212 12.717 22.4216 12.9198C23.3239 13.6741 23.7532 14.9128 23.418 16.1196C23.0054 17.6048 21.5761 18.534 20.0917 18.3636C20.0747 18.5388 20.0431 18.7149 19.9963 18.8905C19.5338 20.6249 17.753 21.6559 16.0186 21.1934L14.7911 20.8661C10.5518 19.7356 6.57855 17.7762 3.10093 15.1011L1.7686 14.0762C0.345901 12.9818 0.0797486 10.9413 1.17413 9.51863C1.45929 9.14794 1.80867 8.85576 2.19462 8.64571C1.71271 7.61405 1.82156 6.3542 2.58102 5.40487C3.29045 4.51808 4.38884 4.12568 5.43709 4.27645C5.50637 4.15339 5.58447 4.03342 5.6715 3.91738ZM6.8418 4.85816C6.86968 4.87898 6.89731 4.90034 6.92469 4.92224L9.1577 6.70864C11.991 8.97531 15.2542 10.6446 18.7502 11.6157L21.0736 12.2611C21.1281 12.1507 21.1718 12.0329 21.2029 11.9086C21.4373 10.971 20.8672 10.0208 19.9295 9.78644C16.4487 8.91623 13.1769 7.35896 10.3066 5.20618L9.3215 4.46738C8.5483 3.88748 7.4514 4.04418 6.8715 4.81738C6.86137 4.83087 6.85148 4.84447 6.8418 4.85816ZM5.73172 8.92417C5.12422 8.45686 4.40408 8.23763 3.69305 8.25058C3.29614 7.68684 3.29998 6.90735 3.75233 6.34191C4.30101 5.65606 5.3018 5.54486 5.98765 6.09354L8.22065 7.87995C11.2122 10.2732 14.6575 12.0356 18.3488 13.061L20.866 13.7602C21.7123 13.9953 22.2078 14.8719 21.9727 15.7182C21.7376 16.5644 20.861 17.0599 20.0147 16.8248L19.8455 16.7778C19.4664 15.8907 18.6979 15.1807 17.6934 14.9129L16.466 14.5855C13.0565 13.6763 9.86094 12.1005 7.06405 9.94903L5.73172 8.92417ZM4.81716 10.1131C4.05109 9.52382 2.95235 9.66713 2.36307 10.4332C1.77379 11.1993 1.9171 12.298 2.68317 12.8873L4.0155 13.9122C7.33602 16.4664 11.1298 18.3373 15.1776 19.4167L16.4051 19.744C17.339 19.9931 18.2979 19.4379 18.547 18.504C18.796 17.5702 18.2408 16.6113 17.307 16.3622L16.0795 16.0349C12.4785 15.0746 9.10346 13.4103 6.14948 11.138L4.81716 10.1131Z" fill="black"/>
</svg>
