<svg width="24" height="24" viewBox="0 0 24 24" fill="none" xmlns="http://www.w3.org/2000/svg">
<path fill-rule="evenodd" clip-rule="evenodd" d="M5.87168 4.0673C6.86579 2.74182 8.74619 2.47319 10.0717 3.4673L11.0567 4.20611C13.7938 6.25893 16.9137 7.74388 20.2329 8.57368C21.8403 8.97553 22.8176 10.6043 22.4157 12.2117C22.346 12.4908 22.2392 12.7508 22.102 12.9879C23.0389 13.6637 23.5043 14.8746 23.1771 16.0527C22.7736 17.5053 21.3117 18.3792 19.8567 18.0723C19.8549 18.3213 19.8219 18.5742 19.7547 18.8261C19.3278 20.427 17.684 21.3787 16.083 20.9518L14.8555 20.6244C10.6481 19.5025 6.70478 17.5578 3.25335 14.9029L1.92102 13.878C0.607754 12.8678 0.362076 10.9843 1.37228 9.67099C1.68872 9.25962 2.09085 8.953 2.53431 8.75692C1.96621 7.77336 2.02389 6.5014 2.77623 5.56097C3.46731 4.69712 4.55998 4.34371 5.57374 4.55412C5.65591 4.38577 5.75511 4.22272 5.87168 4.0673ZM6.50476 4.92968C6.59509 4.98656 6.68316 5.04911 6.7685 5.11738L9.00151 6.90379C11.8612 9.19155 15.1547 10.8763 18.6833 11.8565L21.1955 12.5543C21.3068 12.3785 21.3923 12.1821 21.4456 11.9692C21.7135 10.8976 21.062 9.81172 19.9904 9.54383C16.5418 8.6817 13.3005 7.1389 10.4567 5.00611L9.47168 4.2673C8.58802 3.60456 7.33442 3.78365 6.67168 4.6673C6.6084 4.75167 6.5528 4.83941 6.50476 4.92968ZM5.57928 9.12225C4.98308 8.66363 4.26933 8.46386 3.57313 8.50531C3.03043 7.84753 3.00327 6.87795 3.5571 6.18567C4.19203 5.392 5.35014 5.26332 6.14381 5.89825L8.37682 7.68466C11.342 10.0568 14.7569 11.8037 18.4157 12.82L20.9329 13.5193C21.9122 13.7913 22.4856 14.8057 22.2136 15.785C21.9415 16.7643 20.9271 17.3377 19.9478 17.0657L19.66 16.9857C19.328 16.1159 18.5973 15.4126 17.629 15.1544L16.4015 14.827C12.9601 13.9093 9.73468 12.3187 6.91161 10.1471L5.57928 9.12225ZM4.96957 9.91488C4.09406 9.24141 2.83837 9.40519 2.1649 10.2807C1.49143 11.1562 1.65522 12.4119 2.53073 13.0854L3.86306 14.1102C7.20976 16.6846 11.0335 18.5703 15.1132 19.6582L16.3407 19.9855C17.408 20.2701 18.5039 19.6357 18.7885 18.5684C19.0731 17.5011 18.4386 16.4052 17.3714 16.1206L16.1439 15.7933C12.5748 14.8415 9.2297 13.1919 6.3019 10.9397L4.96957 9.91488Z" fill="black"/>
</svg>
