<svg width="25" height="24" viewBox="0 0 25 24" fill="none" xmlns="http://www.w3.org/2000/svg">
<path fill-rule="evenodd" clip-rule="evenodd" d="M5.27152 3.61729C6.51416 1.96043 8.86467 1.62465 10.5215 2.86729L11.5066 3.60609C14.1637 5.59893 17.1924 7.0405 20.4146 7.84606C22.4239 8.34837 23.6455 10.3844 23.1432 12.3936C23.1089 12.5307 23.0675 12.6642 23.0194 12.7937C23.8753 13.6788 24.2531 14.9813 23.8998 16.2534C23.465 17.8186 22.0581 18.8523 20.5131 18.883C20.5028 18.9284 20.4916 18.9739 20.4795 19.0193C19.9458 21.0204 17.891 22.2101 15.8898 21.6764L14.6623 21.3491C10.3592 20.2016 6.32608 18.2127 2.7961 15.4973L1.46377 14.4724C-0.177807 13.2097 -0.484905 10.8553 0.777847 9.21369C1.01117 8.91037 1.28176 8.65261 1.57824 8.4419C1.22006 7.33274 1.40801 6.07068 2.19061 5.09243C2.94017 4.15548 4.06347 3.69357 5.17681 3.74934C5.20729 3.70486 5.23886 3.66083 5.27152 3.61729ZM7.59342 4.8168L9.47007 6.31812C12.2507 8.5426 15.4531 10.1808 18.8841 11.1338L20.7441 11.6505C20.8286 11.0275 20.4325 10.4275 19.8083 10.2714C16.2628 9.38504 12.9303 7.79886 10.0066 5.60609L9.02152 4.86729C8.59117 4.54453 8.02044 4.54122 7.59342 4.8168ZM17.8223 14.4297C18.8948 14.7157 19.7342 15.4386 20.2001 16.356C20.764 16.4839 21.3346 16.1473 21.491 15.5843C21.6521 15.004 21.3124 14.403 20.7322 14.2419L18.215 13.5426C14.4586 12.4992 10.9526 10.7057 7.90833 8.27029L5.67532 6.48388C5.2051 6.10771 4.51896 6.18394 4.14279 6.65416C3.88464 6.97685 3.83955 7.40121 3.98862 7.7573C4.70806 7.80248 5.42225 8.05518 6.0366 8.52776L7.36893 9.55263C10.1135 11.6638 13.2491 13.2102 16.5948 14.1023L17.8223 14.4297ZM4.51233 10.5093C3.96513 10.0884 3.18032 10.1908 2.75941 10.738C2.33849 11.2852 2.44086 12.07 2.98805 12.4909L4.32038 13.5157C7.58854 16.0297 11.3225 17.8711 15.3065 18.9335L16.534 19.2608C17.201 19.4387 17.886 19.0422 18.0639 18.3751C18.2417 17.7081 17.8452 17.0231 17.1781 16.8452L15.9507 16.5179C12.2858 15.5406 8.851 13.8468 5.84465 11.5342L4.51233 10.5093Z" fill="black"/>
</svg>
