<svg width="24" height="24" viewBox="0 0 24 24" fill="none" xmlns="http://www.w3.org/2000/svg">
<path fill-rule="evenodd" clip-rule="evenodd" d="M5.27152 3.61741C6.51416 1.96055 8.86467 1.62477 10.5215 2.86741L11.5066 3.60621C14.1637 5.59905 17.1924 7.04062 20.4146 7.84618C22.4239 8.34849 23.6455 10.3845 23.1432 12.3937C23.0183 12.8931 22.7987 13.3439 22.5083 13.7316C22.9769 14.3531 23.1612 15.1779 22.9368 15.9858C22.6335 17.078 21.6741 17.8115 20.603 17.8785C20.6204 18.2535 20.5813 18.6374 20.4795 19.0194C19.9458 21.0205 17.891 22.2102 15.8898 21.6765L14.6623 21.3492C10.3592 20.2017 6.32608 18.2128 2.7961 15.4974L1.46377 14.4726C-0.177807 13.2098 -0.484905 10.8554 0.777847 9.21381C1.23277 8.62241 1.82937 8.20422 2.48329 7.97022C2.29211 7.21149 2.44558 6.37535 2.97207 5.71724C3.41391 5.16493 4.03576 4.84142 4.68663 4.76347C4.81044 4.36134 5.00455 3.97337 5.27152 3.61741ZM7.0396 5.65402L8.84596 7.09911C11.732 9.40796 15.0559 11.1083 18.617 12.0975L20.1851 12.5331C20.4415 12.367 20.6379 12.1071 20.7178 11.7874C20.8853 11.1176 20.4781 10.439 19.8083 10.2715C16.2628 9.38516 12.9303 7.79898 10.0066 5.60621L9.02152 4.86741C8.46924 4.45319 7.68574 4.56512 7.27152 5.11741C7.1487 5.28117 7.07214 5.46526 7.0396 5.65402ZM4.51233 10.5094C3.96513 10.0885 3.18032 10.1909 2.75941 10.7381C2.33849 11.2853 2.44086 12.0701 2.98805 12.491L4.32038 13.5159C7.58854 16.0298 11.3225 17.8712 15.3065 18.9336L16.534 19.261C17.201 19.4388 17.886 19.0423 18.0639 18.3752C18.2417 17.7082 17.8452 17.0232 17.1781 16.8454L15.9507 16.518C12.2858 15.5407 8.851 13.8469 5.84465 11.5343L4.51233 10.5094Z" fill="black"/>
</svg>
