<svg width="24" height="24" viewBox="0 0 24 24" fill="none" xmlns="http://www.w3.org/2000/svg">
<path fill-rule="evenodd" clip-rule="evenodd" d="M5.87148 4.06736C6.8656 2.74188 8.746 2.47325 10.0715 3.46736L11.0566 4.20617C13.7936 6.25899 16.9135 7.74394 20.2327 8.57374C21.8401 8.97559 22.8174 10.6044 22.4155 12.2118C22.3244 12.5761 22.1703 12.9081 21.9676 13.199C22.8145 13.8168 23.2339 14.9162 22.9368 15.9858C22.5631 17.331 21.1942 18.1321 19.8473 17.8139C19.8738 18.1453 19.8453 18.4866 19.7547 18.8261C19.3278 20.427 17.684 21.3787 16.083 20.9518L14.8555 20.6245C10.6481 19.5025 6.70478 17.5579 3.25335 14.9029L1.92102 13.8781C0.607754 12.8678 0.362076 10.9843 1.37228 9.67105C1.74404 9.18775 2.23409 8.84904 2.77046 8.6643C2.23212 7.76298 2.2776 6.58523 2.97203 5.7172C3.59048 4.94414 4.56157 4.61931 5.47128 4.78872C5.56845 4.53685 5.70151 4.294 5.87148 4.06736ZM6.40043 5.15939C6.47302 5.2064 6.54394 5.25748 6.61291 5.31266L8.84592 7.09906C11.732 9.40792 15.0558 11.1082 18.617 12.0974L21.0377 12.7699C21.227 12.5446 21.3692 12.2739 21.4454 11.9692C21.7133 10.8977 21.0618 9.81178 19.9902 9.54389C16.5417 8.68176 13.3003 7.13896 10.4566 5.00617L9.47149 4.26736C8.58783 3.60462 7.33423 3.78371 6.67148 4.66736C6.55567 4.82178 6.46556 4.9875 6.40043 5.15939ZM4.96957 9.91493C4.09406 9.24146 2.83837 9.40525 2.1649 10.2808C1.49143 11.1563 1.65522 12.412 2.53073 13.0854L3.86306 14.1103C7.20976 16.6847 11.0335 18.5703 15.1132 19.6583L16.3407 19.9856C17.408 20.2702 18.5039 19.6357 18.7885 18.5684C19.0731 17.5012 18.4386 16.4053 17.3714 16.1207L16.1439 15.7933C12.5748 14.8416 9.2297 13.192 6.3019 10.9398L4.96957 9.91493Z" fill="black"/>
</svg>
