<svg width="24" height="24" viewBox="0 0 24 24" fill="none" xmlns="http://www.w3.org/2000/svg">
<path fill-rule="evenodd" clip-rule="evenodd" d="M5.47151 3.76733C6.63131 2.22094 8.82511 1.90753 10.3715 3.06733L11.3566 3.80614C14.0404 5.81897 17.0994 7.275 20.354 8.08864C22.2293 8.55746 23.3694 10.4577 22.9006 12.333C22.8553 12.5143 22.7966 12.6887 22.7258 12.8555C23.602 13.6785 24.0029 14.9479 23.6589 16.1865C23.2357 17.71 21.8226 18.6922 20.3083 18.631C20.2901 18.7389 20.2667 18.847 20.2379 18.9549C19.7398 20.8226 17.822 21.933 15.9542 21.4349L14.7267 21.1076C10.4555 19.9686 6.45231 17.9944 2.94851 15.2992L1.61619 14.2743C0.0840468 13.0958 -0.202578 10.8983 0.97599 9.36616C1.23394 9.03082 1.5407 8.75515 1.87861 8.54145C1.46456 7.4689 1.61583 6.21113 2.38582 5.24865C3.11489 4.3373 4.22402 3.90903 5.30528 4.00914C5.35687 3.927 5.41227 3.84632 5.47151 3.76733ZM7.19732 4.82013L9.31388 6.51338C12.1209 8.75896 15.3536 10.4127 18.8171 11.3748L20.9274 11.9609C20.9397 11.924 20.9507 11.8863 20.9603 11.8479C21.1613 11.0443 20.6726 10.2298 19.8689 10.0289C16.3558 9.15063 13.0536 7.57891 10.1566 5.40614L9.17151 4.66733C8.56115 4.20956 7.71546 4.2873 7.19732 4.82013ZM5.88416 8.72596C5.27025 8.25372 4.54952 8.01672 3.83032 8.00083C3.56553 7.53744 3.5939 6.94011 3.94756 6.49804C4.40999 5.92 5.25345 5.82628 5.83149 6.28871L8.06449 8.07512C11.0824 10.4894 14.5581 12.2674 18.2819 13.3018L20.7991 14.001C21.5124 14.1992 21.93 14.938 21.7318 15.6512C21.5337 16.3645 20.7949 16.782 20.0817 16.5839L20.0256 16.5683C19.602 15.6652 18.7972 14.9484 17.7579 14.6713L16.5304 14.3439C13.1528 13.4432 9.9872 11.8821 7.21649 9.75083L5.88416 8.72596ZM4.66474 10.3112C4.00811 9.80611 3.06634 9.92895 2.56124 10.5856C2.05614 11.2422 2.17898 12.184 2.83561 12.6891L4.16794 13.714C7.46228 16.2481 11.2262 18.1042 15.2421 19.1751L16.4696 19.5024C17.27 19.7159 18.092 19.24 18.3054 18.4396C18.5189 17.6391 18.043 16.8172 17.2426 16.6037L16.0151 16.2764C12.3821 15.3076 8.97723 13.6285 5.99707 11.3361L4.66474 10.3112Z" fill="black"/>
</svg>
