<svg width="24" height="24" viewBox="0 0 24 24" fill="none" xmlns="http://www.w3.org/2000/svg">
<path fill-rule="evenodd" clip-rule="evenodd" d="M5.6715 3.91732C6.74845 2.48138 8.78556 2.19036 10.2215 3.26732L11.2066 4.00612C13.917 6.03895 17.0065 7.50944 20.2934 8.33116C22.0347 8.7665 23.0934 10.531 22.6581 12.2724C22.5579 12.6732 22.3873 13.0378 22.1627 13.3564C22.8771 13.9926 23.2101 15.0018 22.9368 15.9858C22.5866 17.2465 21.3623 18.0292 20.1012 17.8607C20.1212 18.1987 20.0883 18.5455 19.9963 18.8905C19.5338 20.6248 17.753 21.6558 16.0186 21.1933L14.7911 20.866C10.5518 19.7355 6.57855 17.7761 3.10093 15.101L1.7686 14.0762C0.345901 12.9818 0.0797486 10.9413 1.17413 9.51857C1.56826 9.0062 2.08511 8.64384 2.65161 8.441C2.2437 7.5749 2.33364 6.51515 2.97204 5.71715C3.53317 5.01573 4.38462 4.68332 5.21712 4.75428C5.3239 4.46159 5.47491 4.17944 5.6715 3.91732ZM6.61159 5.31155L6.61292 5.31261L8.84593 7.09902C11.732 9.40787 15.0559 11.1082 18.617 12.0974L20.7688 12.6951C20.9731 12.4824 21.1262 12.2151 21.2029 11.9086C21.4373 10.9709 20.8672 10.0208 19.9295 9.78638C16.4487 8.91616 13.1769 7.3589 10.3066 5.20612L9.3215 4.46732C8.5483 3.88742 7.4514 4.04412 6.8715 4.81732C6.75592 4.97142 6.6696 5.13838 6.61159 5.31155ZM4.81716 10.113C4.05109 9.52376 2.95235 9.66707 2.36307 10.4331C1.77379 11.1992 1.9171 12.2979 2.68317 12.8872L4.0155 13.9121C7.33602 16.4663 11.1298 18.3372 15.1776 19.4167L16.4051 19.744C17.339 19.993 18.2979 19.4378 18.547 18.504C18.796 17.5701 18.2408 16.6112 17.307 16.3622L16.0795 16.0348C12.4785 15.0746 9.10346 13.4102 6.14948 11.1379L4.81716 10.113Z" fill="black"/>
</svg>
