<svg width="24" height="24" viewBox="0 0 24 24" fill="none" xmlns="http://www.w3.org/2000/svg">
<path fill-rule="evenodd" clip-rule="evenodd" d="M6.07147 4.21729C6.98274 3.00226 8.70645 2.75602 9.92147 3.66729L10.9065 4.40609C13.6703 6.4789 16.8205 7.97832 20.1721 8.8162C21.6455 9.18456 22.5413 10.6776 22.173 12.1511C22.0889 12.4874 21.9462 12.7936 21.7586 13.0615C22.7436 13.6425 23.2574 14.8314 22.9368 15.9857C22.5539 17.3641 21.1261 18.1712 19.7477 17.7883L19.5894 17.7443C19.6269 18.0758 19.6043 18.4198 19.5132 18.7616C19.1218 20.2291 17.6149 21.1015 16.1474 20.7102L14.92 20.3829C10.7445 19.2694 6.83101 17.3395 3.40576 14.7047L2.07343 13.6798C0.869608 12.7538 0.644403 11.0272 1.57042 9.8234C1.92557 9.3617 2.39848 9.04395 2.9145 8.87989C2.22901 7.95798 2.22069 6.65628 2.97202 5.71712C3.64657 4.87393 4.74065 4.56399 5.71701 4.84699C5.80489 4.62737 5.92277 4.41556 6.07147 4.21729ZM6.18155 5.03228C6.3315 5.10975 6.47605 5.2031 6.6129 5.31258L8.84591 7.09899C11.732 9.40784 15.0558 11.1082 18.617 12.0974L21.1342 12.7966C21.1891 12.8118 21.243 12.8287 21.2959 12.8472C21.4757 12.6113 21.6114 12.3358 21.6879 12.0298C21.9893 10.8243 21.2563 9.60266 20.0508 9.30127C16.6346 8.44723 13.4236 6.91889 10.6065 4.80609L9.62147 4.06729C8.62736 3.3217 7.21706 3.52318 6.47147 4.51729C6.34986 4.67944 6.25344 4.85267 6.18155 5.03228ZM5.12199 9.7167C4.13704 8.95905 2.72438 9.14331 1.96673 10.1283C1.20908 11.1132 1.39334 12.5259 2.37829 13.2835L3.71062 14.3084C7.08351 16.9029 10.9371 18.8033 15.0488 19.8997L16.2763 20.2271C17.477 20.5473 18.7099 19.8335 19.03 18.6328C19.3502 17.4321 18.6364 16.1992 17.4358 15.879L16.2083 15.5517C12.6711 14.6084 9.35593 12.9736 6.45431 10.7416L5.12199 9.7167Z" fill="black"/>
</svg>
