<svg width="24" height="24" viewBox="0 0 24 24" fill="none" xmlns="http://www.w3.org/2000/svg">
<path fill-rule="evenodd" clip-rule="evenodd" d="M6.07147 4.21735C6.98274 3.00232 8.70645 2.75608 9.92147 3.66735L10.9065 4.40615C13.6703 6.47897 16.8205 7.97838 20.1721 8.81626C21.6455 9.18462 22.5413 10.6777 22.173 12.1511C22.0889 12.4875 21.9462 12.7938 21.7584 13.0618C22.7432 13.6429 23.2568 14.8316 22.9362 15.9858C22.5533 17.3642 21.1255 18.1712 19.7471 17.7883L19.5894 17.7445C19.6269 18.076 19.6043 18.4199 19.5132 18.7617C19.1218 20.2292 17.6149 21.1016 16.1474 20.7103L14.92 20.3829C10.7445 19.2695 6.83101 17.3396 3.40576 14.7047L2.07343 13.6799C0.869608 12.7539 0.644403 11.0273 1.57042 9.82346C1.92547 9.3619 2.3982 9.04421 2.91403 8.8801C2.22843 7.95818 2.22007 6.65639 2.97143 5.71718C3.6461 4.87385 4.74045 4.56394 5.71695 4.8472C5.80484 4.62753 5.92274 4.41566 6.07147 4.21735ZM6.18145 5.03259C6.33123 5.11001 6.47561 5.20328 6.61232 5.31264L8.84532 7.09905C11.7314 9.4079 15.0552 11.1082 18.6164 12.0974L21.1337 12.7967C21.1886 12.8119 21.2427 12.8289 21.2958 12.8474C21.4756 12.6115 21.6114 12.3359 21.6879 12.0299C21.9893 10.8243 21.2563 9.60272 20.0508 9.30134C16.6346 8.44729 13.4236 6.91895 10.6065 4.80615L9.62147 4.06735C8.62736 3.32176 7.21706 3.52324 6.47147 4.51735C6.3498 4.67958 6.25335 4.85289 6.18145 5.03259ZM5.42684 9.32045C4.84616 8.87377 4.14385 8.69495 3.46843 8.76463C2.76786 8.01866 2.704 6.85187 3.36187 6.02953C4.08305 5.12805 5.39849 4.98189 6.29997 5.70308L8.53298 7.48948C11.4718 9.84052 14.8564 11.5719 18.4826 12.5792L20.9998 13.2784C22.1122 13.5874 22.7634 14.7396 22.4544 15.852C22.1455 16.9643 20.9932 17.6156 19.8809 17.3066L19.468 17.1919C19.1866 16.341 18.4953 15.6441 17.5646 15.396L16.3371 15.0686C12.8638 14.1424 9.60842 12.537 6.75917 10.3453L5.42684 9.32045ZM5.12199 9.71676C4.13704 8.95911 2.72438 9.14337 1.96673 10.1283C1.20908 11.1133 1.39334 12.5259 2.37829 13.2836L3.71062 14.3084C7.08351 16.903 10.9371 18.8034 15.0488 19.8998L16.2763 20.2271C17.477 20.5473 18.7099 19.8335 19.03 18.6328C19.3502 17.4322 18.6364 16.1993 17.4358 15.8791L16.2083 15.5517C12.6711 14.6085 9.35593 12.9736 6.45431 10.7416L5.12199 9.71676Z" fill="black"/>
</svg>
