<svg width="24" height="24" viewBox="0 0 24 24" fill="none" xmlns="http://www.w3.org/2000/svg">
<path fill-rule="evenodd" clip-rule="evenodd" d="M5.6715 3.91732C6.74845 2.48138 8.78556 2.19036 10.2215 3.26732L11.2066 4.00612C13.917 6.03895 17.0065 7.50944 20.2934 8.33116C22.0347 8.7665 23.0934 10.531 22.6581 12.2724C22.601 12.5005 22.5212 12.7169 22.4216 12.9198C23.3239 13.6741 23.7532 14.9127 23.418 16.1196C23.0054 17.6047 21.5761 18.5339 20.0917 18.3635C20.0747 18.5387 20.0431 18.7148 19.9963 18.8905C19.5338 20.6248 17.753 21.6558 16.0186 21.1933L14.7911 20.866C10.5518 19.7355 6.57855 17.7761 3.10093 15.101L1.7686 14.0762C0.345901 12.9818 0.0797486 10.9413 1.17413 9.51857C1.45929 9.14788 1.80867 8.8557 2.19462 8.64565C1.71271 7.61399 1.82156 6.35414 2.58102 5.40481C3.29045 4.51802 4.38884 4.12562 5.43709 4.27639C5.50637 4.15332 5.58447 4.03336 5.6715 3.91732ZM6.8418 4.8581C6.86968 4.87892 6.89731 4.90028 6.92469 4.92218L9.1577 6.70858C11.991 8.97525 15.2542 10.6445 18.7502 11.6156L21.0736 12.261C21.1281 12.1507 21.1718 12.0328 21.2029 11.9086C21.4373 10.9709 20.8672 10.0208 19.9295 9.78638C16.4487 8.91616 13.1769 7.3589 10.3066 5.20612L9.3215 4.46732C8.5483 3.88742 7.4514 4.04412 6.8715 4.81732C6.86137 4.83081 6.85148 4.84441 6.8418 4.8581ZM5.73172 8.9241C5.12422 8.4568 4.40408 8.23757 3.69305 8.25052C3.29614 7.68678 3.29998 6.90729 3.75233 6.34185C4.30101 5.656 5.3018 5.5448 5.98765 6.09348L8.22065 7.87989C11.2122 10.2731 14.6575 12.0356 18.3488 13.0609L20.866 13.7601C21.7123 13.9952 22.2078 14.8718 21.9727 15.7181C21.7376 16.5644 20.861 17.0599 20.0147 16.8248L19.8455 16.7778C19.4664 15.8907 18.6979 15.1807 17.6934 14.9128L16.466 14.5855C13.0565 13.6763 9.86094 12.1004 7.06405 9.94897L5.73172 8.9241ZM4.81716 10.113C4.05109 9.52376 2.95235 9.66707 2.36307 10.4331C1.77379 11.1992 1.9171 12.2979 2.68317 12.8872L4.0155 13.9121C7.33602 16.4663 11.1298 18.3372 15.1776 19.4167L16.4051 19.744C17.339 19.993 18.2979 19.4378 18.547 18.504C18.796 17.5701 18.2408 16.6112 17.307 16.3622L16.0795 16.0348C12.4785 15.0746 9.10346 13.4102 6.14948 11.1379L4.81716 10.113Z" fill="black"/>
</svg>
