<svg width="24" height="24" viewBox="0 0 24 24" fill="none" xmlns="http://www.w3.org/2000/svg">
<path fill-rule="evenodd" clip-rule="evenodd" d="M5.63721 5.63577C3.66014 7.61251 2.67161 8.60087 2.2148 9.70337C1.60555 11.1737 1.60548 12.8259 2.2146 14.2964C2.67132 15.3989 3.65968 16.3872 5.6364 18.364C7.61297 20.3405 8.60126 21.3288 9.70372 21.7855C11.174 22.3947 12.8261 22.3947 14.2965 21.7855C15.3989 21.3288 16.3873 20.3404 18.3641 18.3637C20.3408 16.3869 21.3292 15.3986 21.7859 14.2961C22.395 12.8258 22.395 11.1737 21.7859 9.70336C21.3292 8.6009 20.3409 7.61261 18.3643 5.63604C16.3879 3.65963 15.3997 2.67141 14.2973 2.2147C12.8271 1.60558 11.1751 1.60551 9.70479 2.2145C8.60236 2.67113 7.61397 3.65935 5.63721 5.63577ZM10.544 8.744C11.7171 8.88938 12.8516 9.41196 13.7525 10.3129C14.672 11.2324 15.1974 12.395 15.3299 13.5938C15.3603 13.8683 15.6074 14.0662 15.8819 14.0359C16.1563 14.0055 16.3542 13.7584 16.3239 13.4839C16.1673 12.0674 15.5455 10.6917 14.4596 9.60581C13.3957 8.54186 12.0533 7.92339 10.667 7.75159C10.393 7.71763 10.1433 7.91226 10.1093 8.18631C10.0754 8.46035 10.27 8.71004 10.544 8.744ZM10.395 11.2492C10.9772 11.3534 11.5342 11.6301 11.9848 12.0807C12.4261 12.522 12.7006 13.0652 12.8096 13.6343C12.8616 13.9055 13.1235 14.0833 13.3948 14.0313C13.666 13.9793 13.8437 13.7173 13.7917 13.4461C13.6462 12.6867 13.2791 11.9608 12.6919 11.3736C12.0922 10.7739 11.348 10.4038 10.5712 10.2648C10.2993 10.2162 10.0395 10.3971 9.99089 10.6689C9.94225 10.9407 10.1232 11.2005 10.395 11.2492ZM10.5177 14.9618C10.1271 15.3524 9.49398 15.3524 9.10346 14.9618C8.71293 14.5713 8.71293 13.9382 9.10346 13.5476C9.49398 13.1571 10.1271 13.1571 10.5177 13.5476C10.9082 13.9382 10.9082 14.5713 10.5177 14.9618Z" fill="black"/>
</svg>
