<svg width="24" height="24" viewBox="0 0 24 24" fill="none" xmlns="http://www.w3.org/2000/svg">
<path d="M10.5133 8.99234C11.6331 9.13112 12.7156 9.62973 13.5758 10.4899C14.4536 11.3678 14.9549 12.4772 15.0815 13.6215C15.127 14.0332 15.4976 14.3301 15.9093 14.2846C16.321 14.2391 16.6179 13.8684 16.5724 13.4567C16.4098 11.9858 15.7639 10.5567 14.6364 9.42928C13.5317 8.32457 12.1374 7.68214 10.6978 7.50373C10.2867 7.45279 9.91216 7.74473 9.86122 8.1558C9.81028 8.56687 10.1022 8.9414 10.5133 8.99234Z" fill="black"/>
<path d="M10.351 11.4955C10.8845 11.591 11.3947 11.8444 11.808 12.2577C12.2128 12.6625 12.4642 13.1601 12.5641 13.6816C12.642 14.0884 13.035 14.355 13.4418 14.2771C13.8486 14.1991 14.1152 13.8061 14.0373 13.3993C13.8826 12.5923 13.4924 11.8208 12.8687 11.197C12.2317 10.5601 11.4407 10.1667 10.6152 10.0189C10.2075 9.94598 9.81777 10.2174 9.7448 10.6251C9.67184 11.0328 9.94322 11.4225 10.351 11.4955Z" fill="black"/>
<path d="M10.8712 15.3156C10.2854 15.9014 9.33569 15.9014 8.7499 15.3156C8.16412 14.7299 8.16412 13.7801 8.7499 13.1943C9.33569 12.6085 10.2854 12.6085 10.8712 13.1943C11.457 13.7801 11.457 14.7299 10.8712 15.3156Z" fill="black"/>
<path fill-rule="evenodd" clip-rule="evenodd" d="M18.8748 5.08605C17.9034 4.11468 17.1473 3.35857 16.4961 2.79053C15.8353 2.21418 15.2422 1.79457 14.5844 1.52205C12.9304 0.8368 11.0719 0.836722 9.41778 1.52183C8.75997 1.7943 8.16675 2.21389 7.50591 2.79022C6.85462 3.35824 6.09839 4.11434 5.12687 5.0857L5.08702 5.12555C4.11534 6.09706 3.35896 6.8533 2.79076 7.5046C2.21423 8.16543 1.7945 8.75866 1.52192 9.41652C0.83652 11.0707 0.836441 12.9294 1.5217 14.5836C1.79422 15.2415 2.21388 15.8347 2.7903 16.4956C3.3584 17.1469 4.11458 17.9031 5.08604 18.8745L5.12599 18.9145C6.09737 19.8858 6.85361 20.6421 7.50485 21.2101C8.16564 21.7865 8.75884 22.2062 9.41667 22.4787C11.0708 23.1639 12.9294 23.1639 14.5835 22.4787C15.2414 22.2062 15.8346 21.7865 16.4954 21.2101C17.1467 20.642 17.9029 19.8858 18.8743 18.9143L18.9143 18.8744C19.8858 17.9029 20.6421 17.1466 21.2102 16.4953C21.7866 15.8345 22.2063 15.2412 22.4788 14.5834C23.164 12.9293 23.164 11.0707 22.4788 9.41655C22.2063 8.75872 21.7866 8.16552 21.2103 7.50473C20.6422 6.85348 19.886 6.09732 18.9146 5.12589L18.8748 5.08605ZM14.0102 2.90783C14.4548 3.09203 14.907 3.39488 15.51 3.92092C16.1182 4.4514 16.8385 5.17115 17.834 6.16662C18.8295 7.16216 19.5493 7.88254 20.0799 8.49074C20.6059 9.09385 20.9088 9.54602 21.093 9.99065C21.626 11.2772 21.626 12.7228 21.093 14.0093C20.9088 14.4539 20.6059 14.9061 20.0798 15.5093C19.5492 16.1175 18.8294 16.838 17.8337 17.8336C16.8381 18.8292 16.1176 19.5491 15.5094 20.0797C14.9062 20.6058 14.454 20.9087 14.0094 21.0929C12.7229 21.6259 11.2773 21.6259 9.99076 21.0929C9.54614 20.9087 9.09397 20.6058 8.49086 20.0797C7.88266 19.5492 7.16227 18.8294 6.16673 17.8339C5.17112 16.8383 4.45125 16.1178 3.9207 15.5096C3.39458 14.9064 3.0917 14.4542 2.9075 14.0096C2.37452 12.7229 2.37459 11.2773 2.90767 9.9907C3.09191 9.54607 3.39485 9.09387 3.92106 8.49071C4.45171 7.88246 5.17171 7.16201 6.1675 6.16639C7.16313 5.17092 7.88359 4.45116 8.49184 3.92069C9.095 3.39465 9.54718 3.09182 9.99179 2.90766C11.2783 2.3748 12.7238 2.37486 14.0102 2.90783Z" fill="black"/>
</svg>
