<svg width="24" height="24" viewBox="0 0 24 24" fill="none" xmlns="http://www.w3.org/2000/svg">
<path d="M10.544 8.74424C11.7171 8.88962 12.8516 9.4122 13.7525 10.3132C14.672 11.2326 15.1974 12.3953 15.3299 13.5941C15.3603 13.8685 15.6074 14.0664 15.8819 14.0361C16.1563 14.0058 16.3542 13.7587 16.3239 13.4842C16.1673 12.0677 15.5455 10.6919 14.4596 9.60605C13.3957 8.5421 12.0533 7.92364 10.667 7.75184C10.393 7.71787 10.1433 7.9125 10.1093 8.18655C10.0754 8.46059 10.27 8.71028 10.544 8.74424Z" fill="black"/>
<path d="M10.395 11.2494C10.9772 11.3536 11.5342 11.6303 11.9848 12.0809C12.4261 12.5222 12.7006 13.0655 12.8096 13.6345C12.8616 13.9058 13.1235 14.0835 13.3948 14.0315C13.666 13.9796 13.8437 13.7176 13.7917 13.4464C13.6462 12.6869 13.2791 11.9611 12.6919 11.3738C12.0922 10.7741 11.348 10.4041 10.5712 10.265C10.2993 10.2164 10.0395 10.3973 9.99089 10.6691C9.94225 10.941 10.1232 11.2008 10.395 11.2494Z" fill="black"/>
<path d="M10.5177 14.9621C10.1271 15.3526 9.49398 15.3526 9.10346 14.9621C8.71293 14.5716 8.71293 13.9384 9.10346 13.5479C9.49398 13.1574 10.1271 13.1574 10.5177 13.5479C10.9082 13.9384 10.9082 14.5716 10.5177 14.9621Z" fill="black"/>
<path fill-rule="evenodd" clip-rule="evenodd" d="M18.7044 5.26921C17.7276 4.29243 16.9765 3.54135 16.3317 2.97893C15.6806 2.41097 15.1109 2.01082 14.4887 1.75302C12.8959 1.09314 11.1063 1.09307 9.51345 1.75281C8.89117 2.01056 8.32145 2.41068 7.67023 2.97863C7.02538 3.54103 6.27417 4.29212 5.29723 5.26889L5.27016 5.29596C4.29306 6.27289 3.54173 7.0241 2.97914 7.66895C2.411 8.32017 2.01073 8.88989 1.75288 9.51222C1.09286 11.1051 1.09279 12.895 1.75267 14.488C2.01047 15.1103 2.41066 15.68 2.9787 16.3313C3.54119 16.9761 4.29239 17.7273 5.26932 18.7042L5.29638 18.7313C6.27323 19.7081 7.02437 20.4593 7.66918 21.0217C8.32036 21.5897 8.89005 21.9899 9.51235 22.2477C11.1052 22.9076 12.895 22.9076 14.4878 22.2477C15.1101 21.9899 15.6799 21.5897 16.3311 21.0217C16.9759 20.4592 17.7271 19.708 18.7041 18.731L18.7311 18.704C19.7081 17.727 20.4593 16.9758 21.0218 16.331C21.5898 15.6797 21.99 15.11 22.2478 14.4877C22.9077 12.8949 22.9077 11.1051 22.2478 9.51224C21.99 8.88994 21.5899 8.32024 21.0219 7.66907C20.4594 7.02426 19.7083 6.27312 18.7314 5.29628L18.7044 5.26921ZM14.1059 2.67687C14.5861 2.87579 15.0617 3.1981 15.6744 3.73252C16.2905 4.26991 17.0177 4.9968 18.0108 5.98984C19.0039 6.98296 19.7308 7.71029 20.2683 8.32641C20.8027 8.93913 21.125 9.41481 21.324 9.89497C21.8823 11.2428 21.8823 12.7572 21.324 14.105C21.125 14.5851 20.8027 15.0608 20.2682 15.6736C19.7307 16.2898 19.0037 17.0172 18.0105 18.0104C17.0173 19.0036 16.2899 19.7306 15.6737 20.2681C15.061 20.8026 14.5853 21.1249 14.1051 21.3239C12.7573 21.8822 11.2429 21.8822 9.89508 21.3239C9.41492 21.1249 8.93924 20.8026 8.32652 20.2681C7.71041 19.7307 6.98308 19.0038 5.98996 18.0107C4.99676 17.0175 4.26976 16.2901 3.7323 15.6739C3.1978 15.0611 2.87545 14.5854 2.67654 14.1052C2.11818 12.7574 2.11824 11.2428 2.67671 9.895C2.87567 9.41483 3.19808 8.93913 3.73268 8.32636C4.27023 7.7102 4.99736 6.9828 5.99073 5.9896C6.98395 4.99655 7.71136 4.26965 8.32752 3.73228C8.94029 3.19786 9.41598 2.87557 9.89612 2.67669C11.2439 2.11845 12.7582 2.11851 14.1059 2.67687Z" fill="black"/>
</svg>
