<svg width="24" height="24" viewBox="0 0 24 24" fill="none" xmlns="http://www.w3.org/2000/svg">
<path fill-rule="evenodd" clip-rule="evenodd" d="M4.85577 4.85465C2.63593 7.07412 1.52601 8.18385 1.0131 9.42173C0.329042 11.0727 0.328964 12.9277 1.01288 14.5787C1.52569 15.8166 2.63541 16.9264 4.85487 19.1458C7.07415 21.3651 8.1838 22.4747 9.42163 22.9876C11.0725 23.6715 12.9275 23.6715 14.5784 22.9876C15.8162 22.4747 16.9259 21.365 19.1454 19.1455C21.3649 16.926 22.4747 15.8163 22.9875 14.5785C23.6714 12.9276 23.6714 11.0726 22.9875 9.42172C22.4747 8.18388 21.365 7.07424 19.1457 4.85496C16.9266 2.63586 15.8171 1.52628 14.5793 1.01348C12.9285 0.329567 11.0737 0.329489 9.42284 1.01326C8.18504 1.52596 7.07527 2.63553 4.85577 4.85465ZM10.5133 8.99249C11.6331 9.13126 12.7156 9.62987 13.5758 10.4901C14.4536 11.3679 14.9549 12.4773 15.0815 13.6217C15.127 14.0334 15.4976 14.3302 15.9093 14.2847C16.321 14.2392 16.6179 13.8686 16.5724 13.4569C16.4098 11.9859 15.7639 10.5569 14.6364 9.42942C13.5317 8.32471 12.1374 7.68228 10.6978 7.50387C10.2867 7.45293 9.91216 7.74487 9.86122 8.15594C9.81028 8.56701 10.1022 8.94155 10.5133 8.99249ZM10.351 11.4956C10.8845 11.5911 11.3947 11.8445 11.808 12.2578C12.2128 12.6627 12.4642 13.1603 12.5641 13.6817C12.642 14.0885 13.035 14.3551 13.4418 14.2772C13.8486 14.1993 14.1152 13.8063 14.0373 13.3995C13.8826 12.5924 13.4924 11.8209 12.8687 11.1972C12.2317 10.5602 11.4407 10.1668 10.6152 10.0191C10.2075 9.94612 9.81777 10.2175 9.7448 10.6252C9.67184 11.033 9.94322 11.4227 10.351 11.4956ZM10.8712 15.3158C10.2854 15.9016 9.33569 15.9016 8.7499 15.3158C8.16412 14.73 8.16412 13.7803 8.7499 13.1945C9.33569 12.6087 10.2854 12.6087 10.8712 13.1945C11.457 13.7803 11.457 14.73 10.8712 15.3158Z" fill="black"/>
</svg>
