<svg width="24" height="24" viewBox="0 0 24 24" fill="none" xmlns="http://www.w3.org/2000/svg">
<path d="M10.5133 8.9921C11.6331 9.13087 12.7156 9.62948 13.5758 10.4897C14.4536 11.3675 14.9549 12.4769 15.0815 13.6213C15.127 14.033 15.4976 14.3299 15.9093 14.2843C16.321 14.2388 16.6179 13.8682 16.5724 13.4565C16.4098 11.9855 15.7639 10.5565 14.6364 9.42903C13.5317 8.32432 12.1374 7.68189 10.6978 7.50349C10.2867 7.45254 9.91216 7.74448 9.86122 8.15555C9.81028 8.56662 10.1022 8.94116 10.5133 8.9921Z" fill="black"/>
<path d="M10.351 11.4952C10.8845 11.5907 11.3947 11.8441 11.808 12.2575C12.2128 12.6623 12.4642 13.1599 12.5641 13.6813C12.642 14.0882 13.035 14.3548 13.4418 14.2768C13.8486 14.1989 14.1152 13.8059 14.0373 13.3991C13.8826 12.592 13.4924 11.8206 12.8687 11.1968C12.2317 10.5598 11.4407 10.1664 10.6152 10.0187C10.2075 9.94573 9.81777 10.2171 9.7448 10.6249C9.67184 11.0326 9.94322 11.4223 10.351 11.4952Z" fill="black"/>
<path d="M10.8712 15.3154C10.2854 15.9012 9.33569 15.9012 8.7499 15.3154C8.16412 14.7296 8.16412 13.7799 8.7499 13.1941C9.33569 12.6083 10.2854 12.6083 10.8712 13.1941C11.457 13.7799 11.457 14.7296 10.8712 15.3154Z" fill="black"/>
<path fill-rule="evenodd" clip-rule="evenodd" d="M19.2162 4.72019C18.2551 3.75907 17.4889 2.99281 16.8247 2.41349C16.1448 1.82037 15.5046 1.36184 14.7757 1.05988C12.9992 0.323871 11.003 0.323785 9.22645 1.05965C8.49756 1.36155 7.85733 1.82005 7.17727 2.41315C6.51304 2.99246 5.74666 3.75872 4.78537 4.71985L4.72144 4.78378C3.76 5.74503 2.99347 6.51143 2.41399 7.17565C1.82069 7.8557 1.36203 8.49595 1.06 9.22488C0.323832 11.0016 0.323746 12.998 1.05977 14.7747C1.36173 15.5037 1.82031 16.1439 2.41351 16.824C2.9929 17.4882 3.75927 18.2546 4.72054 19.2159L4.7845 19.2798C5.74568 20.241 6.51199 21.0073 7.17618 21.5867C7.85619 22.1798 8.49641 22.6384 9.22531 22.9404C11.002 23.6764 12.9982 23.6764 14.7749 22.9404C15.5038 22.6384 16.144 22.1798 16.8241 21.5866C17.4883 21.0072 18.2547 20.2408 19.216 19.2796L19.2799 19.2156C20.2412 18.2543 21.0076 17.488 21.587 16.8237C22.1802 16.1437 22.6388 15.5034 22.9407 14.7745C23.6767 12.9979 23.6767 11.0016 22.9407 9.22495C22.6388 8.49605 22.1802 7.85583 21.587 7.17582C21.0077 6.51163 20.2414 5.74532 19.2802 4.78412L19.2162 4.72019ZM13.8189 3.36951C14.1924 3.52427 14.5975 3.78821 15.1814 4.29747C15.7737 4.81414 16.4801 5.51963 17.4804 6.51993C18.4808 7.5203 19.1864 8.2268 19.7031 8.81917C20.2124 9.40305 20.4763 9.80821 20.6311 10.1818C21.1133 11.3458 21.1133 12.6537 20.6311 13.8177C20.4763 14.1912 20.2124 14.5964 19.703 15.1804C19.1863 15.7728 18.4806 16.4793 17.4802 17.4798C16.4797 18.4803 15.7731 19.1859 15.1807 19.7026C14.5968 20.212 14.1916 20.476 13.8181 20.6307C12.654 21.1129 11.3461 21.1129 10.1821 20.6307C9.80857 20.476 9.40341 20.212 8.81952 19.7027C8.22716 19.186 7.52066 18.4805 6.52029 17.4801C5.51983 16.4796 4.81423 15.7731 4.2975 15.1807C3.78815 14.5967 3.52419 14.1915 3.36944 13.818C2.88722 12.6539 2.88727 11.3459 3.36959 10.1819C3.52437 9.80829 3.78839 9.40311 4.29783 8.81917C4.81466 8.22676 5.52039 7.52019 6.52102 6.51973C7.52149 5.51943 8.22807 4.81393 8.82048 4.29727C9.40441 3.788 9.80958 3.52408 10.1831 3.36936C11.3471 2.88724 12.6549 2.8873 13.8189 3.36951Z" fill="black"/>
</svg>
