<svg width="24" height="24" viewBox="0 0 24 24" fill="none" xmlns="http://www.w3.org/2000/svg">
<path d="M10.5133 8.99234C11.6331 9.13112 12.7156 9.62973 13.5758 10.4899C14.4536 11.3678 14.9549 12.4772 15.0815 13.6215C15.127 14.0332 15.4976 14.3301 15.9093 14.2846C16.321 14.2391 16.6179 13.8684 16.5724 13.4567C16.4098 11.9858 15.7639 10.5567 14.6364 9.42927C13.5317 8.32457 12.1374 7.68213 10.6978 7.50373C10.2867 7.45279 9.91216 7.74473 9.86122 8.1558C9.81028 8.56687 10.1022 8.9414 10.5133 8.99234Z" fill="black"/>
<path d="M10.351 11.4955C10.8845 11.591 11.3947 11.8444 11.808 12.2577C12.2128 12.6625 12.4642 13.1601 12.5641 13.6816C12.642 14.0884 13.035 14.355 13.4418 14.2771C13.8486 14.1991 14.1152 13.8061 14.0373 13.3993C13.8826 12.5923 13.4924 11.8208 12.8687 11.197C12.2317 10.5601 11.4407 10.1667 10.6152 10.0189C10.2075 9.94598 9.81777 10.2174 9.7448 10.6251C9.67184 11.0328 9.94322 11.4225 10.351 11.4955Z" fill="black"/>
<path d="M10.8712 15.3156C10.2854 15.9014 9.33569 15.9014 8.7499 15.3156C8.16412 14.7299 8.16412 13.7801 8.7499 13.1943C9.33569 12.6085 10.2854 12.6085 10.8712 13.1943C11.457 13.7801 11.457 14.7299 10.8712 15.3156Z" fill="black"/>
<path fill-rule="evenodd" clip-rule="evenodd" d="M19.2162 4.72044C18.2551 3.75931 17.4889 2.99305 16.8247 2.41374C16.1448 1.82062 15.5046 1.36209 14.7757 1.06013C12.9992 0.324115 11.003 0.32403 9.22645 1.05989C8.49756 1.3618 7.85733 1.8203 7.17727 2.4134C6.51304 2.9927 5.74666 3.75896 4.78537 4.7201L4.72144 4.78402C3.76 5.74528 2.99347 6.51167 2.41399 7.1759C1.82069 7.85595 1.36203 8.49619 1.06 9.22512C0.323832 11.0018 0.323746 12.9982 1.05977 14.775C1.36173 15.5039 1.82031 16.1442 2.41351 16.8243C2.9929 17.4885 3.75927 18.2549 4.72054 19.2161L4.7845 19.2801C5.74568 20.2413 6.51199 21.0076 7.17618 21.5869C7.85619 22.1801 8.49641 22.6386 9.22531 22.9406C11.002 23.6766 12.9982 23.6766 14.7749 22.9406C15.5038 22.6386 16.144 22.1801 16.8241 21.5869C17.4883 21.0075 18.2547 20.2411 19.216 19.2798L19.2799 19.2158C20.2412 18.2546 21.0076 17.4882 21.587 16.824C22.1802 16.1439 22.6388 15.5037 22.9407 14.7748C23.6767 12.9981 23.6767 11.0018 22.9407 9.22519C22.6388 8.49629 22.1802 7.85608 21.587 7.17606C21.0077 6.51187 20.2414 5.74556 19.2802 4.78437L19.2162 4.72044ZM13.8189 3.36976C14.1924 3.52451 14.5975 3.78845 15.1814 4.29772C15.7737 4.81438 16.4801 5.51987 17.4804 6.52017C18.4808 7.52055 19.1864 8.22705 19.7031 8.81941C20.2124 9.40329 20.4763 9.80845 20.6311 10.182C21.1133 11.346 21.1133 12.6539 20.6311 13.8179C20.4763 14.1915 20.2124 14.5967 19.703 15.1806C19.1863 15.773 18.4806 16.4796 17.4802 17.4801C16.4797 18.4805 15.7731 19.1861 15.1807 19.7029C14.5968 20.2122 14.1916 20.4762 13.8181 20.631C12.654 21.1132 11.3461 21.1132 10.1821 20.631C9.80857 20.4762 9.40341 20.2123 8.81952 19.7029C8.22716 19.1862 7.52066 18.4807 6.52029 17.4803C5.51983 16.4799 4.81423 15.7733 4.2975 15.1809C3.78815 14.597 3.52419 14.1918 3.36944 13.8182C2.88722 12.6541 2.88727 11.3461 3.36959 10.1821C3.52437 9.80854 3.78839 9.40335 4.29783 8.81941C4.81466 8.227 5.52039 7.52043 6.52102 6.51998C7.52149 5.51967 8.22807 4.81417 8.82048 4.29751C9.40441 3.78824 9.80958 3.52432 10.1831 3.3696C11.3471 2.88749 12.6549 2.88754 13.8189 3.36976Z" fill="black"/>
</svg>
