<svg width="24" height="24" viewBox="0 0 24 24" fill="none" xmlns="http://www.w3.org/2000/svg">
<path fill-rule="evenodd" clip-rule="evenodd" d="M5.63721 5.63602C3.66014 7.61275 2.67161 8.60112 2.2148 9.70361C1.60555 11.174 1.60548 12.8262 2.2146 14.2966C2.67132 15.3991 3.65968 16.3875 5.6364 18.3642C7.61297 20.3408 8.60126 21.3291 9.70372 21.7858C11.174 22.3949 12.8261 22.3949 14.2965 21.7858C15.3989 21.3291 16.3873 20.3407 18.3641 18.3639C20.3408 16.3872 21.3292 15.3988 21.7859 14.2964C22.395 12.826 22.395 11.1739 21.7859 9.7036C21.3292 8.60114 20.3409 7.61286 18.3643 5.63629C16.3879 3.65987 15.3997 2.67166 14.2973 2.21494C12.8271 1.60583 11.1751 1.60576 9.70479 2.21475C8.60236 2.67137 7.61397 3.6596 5.63721 5.63602ZM10.544 8.74425C11.7171 8.88962 12.8516 9.41221 13.7525 10.3132C14.672 11.2326 15.1974 12.3953 15.3299 13.5941C15.3603 13.8685 15.6074 14.0664 15.8819 14.0361C16.1563 14.0058 16.3542 13.7587 16.3239 13.4842C16.1673 12.0677 15.5455 10.6919 14.4596 9.60606C13.3957 8.5421 12.0533 7.92364 10.667 7.75184C10.393 7.71788 10.1433 7.9125 10.1093 8.18655C10.0754 8.4606 10.27 8.71028 10.544 8.74425ZM10.395 11.2494C10.9772 11.3536 11.5342 11.6303 11.9848 12.0809C12.4261 12.5222 12.7006 13.0655 12.8096 13.6346C12.8616 13.9058 13.1235 14.0835 13.3948 14.0315C13.666 13.9796 13.8437 13.7176 13.7917 13.4464C13.6462 12.6869 13.2791 11.9611 12.6919 11.3738C12.0922 10.7741 11.348 10.4041 10.5712 10.265C10.2993 10.2164 10.0395 10.3973 9.99089 10.6691C9.94225 10.941 10.1232 11.2008 10.395 11.2494ZM10.5177 14.9621C10.1271 15.3526 9.49398 15.3526 9.10346 14.9621C8.71293 14.5716 8.71293 13.9384 9.10346 13.5479C9.49398 13.1574 10.1271 13.1574 10.5177 13.5479C10.9082 13.9384 10.9082 14.5716 10.5177 14.9621Z" fill="black"/>
</svg>
