<svg width="24" height="24" viewBox="0 0 24 24" fill="none" xmlns="http://www.w3.org/2000/svg">
<path fill-rule="evenodd" clip-rule="evenodd" d="M5.63721 5.63577C3.66014 7.61251 2.67161 8.60087 2.2148 9.70337C1.60555 11.1737 1.60548 12.8259 2.2146 14.2964C2.67132 15.3989 3.65968 16.3872 5.6364 18.364C7.61297 20.3405 8.60126 21.3288 9.70372 21.7855C11.174 22.3947 12.8261 22.3947 14.2965 21.7855C15.3989 21.3288 16.3873 20.3404 18.3641 18.3637C20.3408 16.3869 21.3292 15.3986 21.7859 14.2961C22.395 12.8258 22.395 11.1737 21.7859 9.70336C21.3292 8.6009 20.3409 7.61261 18.3643 5.63604C16.3879 3.65963 15.3997 2.67141 14.2973 2.2147C12.8271 1.60558 11.1751 1.60551 9.70479 2.2145C8.60236 2.67113 7.61397 3.65935 5.63721 5.63577ZM10.5748 8.4959C11.8012 8.64788 12.9876 9.19444 13.9293 10.1361C14.8903 11.0972 15.4399 12.3131 15.5784 13.5664C15.5936 13.7036 15.7171 13.8025 15.8544 13.7874C15.9916 13.7722 16.0906 13.6487 16.0754 13.5114C15.9248 12.1493 15.3271 10.8268 14.2829 9.78259C13.2596 8.75938 11.9693 8.16489 10.6363 7.9997C10.4992 7.98271 10.3744 8.08003 10.3574 8.21705C10.3404 8.35407 10.4377 8.47892 10.5748 8.4959ZM10.439 11.0031C11.0699 11.116 11.6736 11.416 12.1615 11.9039C12.6393 12.3817 12.937 12.9706 13.0551 13.5873C13.0811 13.7229 13.2121 13.8117 13.3477 13.7858C13.4833 13.7598 13.5722 13.6288 13.5462 13.4932C13.4098 12.7813 13.0659 12.1011 12.5151 11.5504C11.9526 10.9879 11.2553 10.6412 10.5271 10.5109C10.3912 10.4866 10.2613 10.577 10.237 10.7129C10.2126 10.8489 10.3031 10.9787 10.439 11.0031ZM10.3409 14.7851C10.048 15.078 9.57309 15.078 9.2802 14.7851C8.98731 14.4922 8.98731 14.0173 9.2802 13.7244C9.57309 13.4315 10.048 13.4315 10.3409 13.7244C10.6338 14.0173 10.6338 14.4922 10.3409 14.7851Z" fill="black"/>
</svg>
