<svg width="24" height="24" viewBox="0 0 24 24" fill="none" xmlns="http://www.w3.org/2000/svg">
<path d="M10.5133 8.9921C11.6331 9.13087 12.7156 9.62949 13.5758 10.4897C14.4536 11.3675 14.9549 12.4769 15.0815 13.6213C15.127 14.033 15.4976 14.3299 15.9093 14.2843C16.321 14.2388 16.6179 13.8682 16.5724 13.4565C16.4098 11.9855 15.7639 10.5565 14.6364 9.42903C13.5317 8.32433 12.1374 7.68189 10.6978 7.50349C10.2867 7.45255 9.91216 7.74449 9.86122 8.15556C9.81028 8.56662 10.1022 8.94116 10.5133 8.9921Z" fill="black"/>
<path d="M10.351 11.4952C10.8845 11.5907 11.3947 11.8441 11.808 12.2575C12.2128 12.6623 12.4642 13.1599 12.5641 13.6813C12.642 14.0882 13.035 14.3548 13.4418 14.2768C13.8486 14.1989 14.1152 13.8059 14.0373 13.3991C13.8826 12.592 13.4924 11.8206 12.8687 11.1968C12.2317 10.5598 11.4407 10.1664 10.6152 10.0187C10.2075 9.94574 9.81777 10.2171 9.7448 10.6249C9.67184 11.0326 9.94322 11.4223 10.351 11.4952Z" fill="black"/>
<path d="M10.8712 15.3154C10.2854 15.9012 9.33569 15.9012 8.7499 15.3154C8.16412 14.7296 8.16412 13.7799 8.7499 13.1941C9.33569 12.6083 10.2854 12.6083 10.8712 13.1941C11.457 13.7799 11.457 14.7296 10.8712 15.3154Z" fill="black"/>
<path fill-rule="evenodd" clip-rule="evenodd" d="M18.8748 5.08581C17.9034 4.11444 17.1473 3.35833 16.4961 2.79029C15.8353 2.21394 15.2422 1.79433 14.5844 1.52181C12.9304 0.836556 11.0719 0.836478 9.41778 1.52159C8.75997 1.79406 8.16675 2.21364 7.50591 2.78998C6.85462 3.35799 6.09839 4.1141 5.12687 5.08546L5.08702 5.1253C4.11534 6.09682 3.35896 6.85306 2.79076 7.50436C2.21423 8.16518 1.7945 8.75842 1.52192 9.41627C0.83652 11.0704 0.836441 12.9292 1.5217 14.5834C1.79422 15.2413 2.21388 15.8345 2.7903 16.4953C3.3584 17.1466 4.11458 17.9028 5.08604 18.8743L5.12599 18.9142C6.09737 19.8856 6.85361 20.6418 7.50485 21.2099C8.16564 21.7863 8.75884 22.2059 9.41667 22.4784C11.0708 23.1637 12.9294 23.1637 14.5835 22.4784C15.2414 22.2059 15.8346 21.7863 16.4954 21.2098C17.1467 20.6417 17.9029 19.8855 18.8743 18.9141L18.9143 18.8741C19.8858 17.9026 20.6421 17.1463 21.2102 16.4951C21.7866 15.8342 22.2063 15.241 22.4788 14.5832C23.164 12.929 23.164 11.0704 22.4788 9.41631C22.2063 8.75848 21.7866 8.16528 21.2103 7.50449C20.6422 6.85323 19.886 6.09708 18.9146 5.12565L18.8748 5.08581ZM14.0102 2.90759C14.4548 3.09178 14.907 3.39464 15.51 3.92068C16.1182 4.45115 16.8385 5.17091 17.834 6.16637C18.8295 7.16191 19.5493 7.8823 20.0799 8.4905C20.6059 9.09361 20.9088 9.54578 21.093 9.99041C21.626 11.2769 21.626 12.7225 21.093 14.0091C20.9088 14.4537 20.6059 14.9059 20.0798 15.509C19.5492 16.1173 18.8294 16.8377 17.8337 17.8334C16.8381 18.829 16.1176 19.5489 15.5094 20.0794C14.9062 20.6056 14.454 20.9084 14.0094 21.0926C12.7229 21.6256 11.2773 21.6256 9.99076 21.0926C9.54614 20.9084 9.09397 20.6056 8.49086 20.0795C7.88266 19.549 7.16227 18.8292 6.16673 17.8336C5.17112 16.838 4.45125 16.1176 3.9207 15.5093C3.39458 14.9062 3.0917 14.454 2.9075 14.0093C2.37452 12.7227 2.37459 11.277 2.90767 9.99046C3.09191 9.54582 3.39485 9.09363 3.92106 8.49046C4.45171 7.88222 5.17171 7.16177 6.1675 6.16615C7.16313 5.17068 7.88359 4.45092 8.49184 3.92045C9.095 3.39441 9.54718 3.09157 9.99179 2.90742C11.2783 2.37455 12.7238 2.37461 14.0102 2.90759Z" fill="black"/>
</svg>
