<svg width="24" height="24" viewBox="0 0 24 24" fill="none" xmlns="http://www.w3.org/2000/svg">
<path d="M10.5133 8.99235C11.6331 9.13112 12.7155 9.62973 13.5757 10.4899C14.4536 11.3678 14.9549 12.4772 15.0814 13.6215C15.127 14.0333 15.4976 14.3301 15.9093 14.2846C16.321 14.2391 16.6179 13.8684 16.5724 13.4567C16.4097 11.9858 15.7639 10.5567 14.6364 9.42928C13.5317 8.32458 12.1374 7.68214 10.6977 7.50374C10.2867 7.45279 9.91214 7.74474 9.8612 8.1558C9.81026 8.56687 10.1022 8.94141 10.5133 8.99235Z" fill="black"/>
<path d="M10.3509 11.4955C10.8845 11.591 11.3946 11.8444 11.808 12.2577C12.2128 12.6625 12.4641 13.1601 12.564 13.6816C12.642 14.0884 13.035 14.355 13.4418 14.2771C13.8486 14.1991 14.1152 13.8061 14.0373 13.3993C13.8826 12.5923 13.4924 11.8208 12.8686 11.1971C12.2316 10.5601 11.4407 10.1667 10.6152 10.019C10.2074 9.94599 9.81775 10.2174 9.74479 10.6251C9.67182 11.0328 9.94321 11.4225 10.3509 11.4955Z" fill="black"/>
<path d="M10.8712 15.3156C10.2854 15.9014 9.33567 15.9014 8.74989 15.3156C8.1641 14.7299 8.1641 13.7801 8.74989 13.1943C9.33567 12.6085 10.2854 12.6085 10.8712 13.1943C11.457 13.7801 11.457 14.7299 10.8712 15.3156Z" fill="black"/>
<path fill-rule="evenodd" clip-rule="evenodd" d="M19.0454 4.90314C18.0792 3.93698 17.3181 3.17581 16.6604 2.60213C15.99 2.0174 15.3734 1.57833 14.6801 1.29109C12.9648 0.580457 11.0375 0.580375 9.32212 1.29086C8.62876 1.57805 8.01204 2.01709 7.34159 2.60181C6.68384 3.17546 5.92255 3.93662 4.95624 4.90277L4.90411 4.9549C3.93766 5.92118 3.17621 6.6825 2.60237 7.34025C2.01746 8.01069 1.57827 8.62743 1.29096 9.32082C0.580176 11.0363 0.580094 12.9638 1.29073 14.6793C1.57798 15.3727 2.01709 15.9895 2.6019 16.6599C3.17565 17.3177 3.93693 18.079 4.90323 19.0453L4.95536 19.0974C5.92158 20.0636 6.68279 20.8248 7.34051 21.3985C8.01091 21.9833 8.62762 22.4224 9.32099 22.7096C11.0364 23.4203 12.9638 23.4203 14.6792 22.7096C15.3726 22.4224 15.9893 21.9833 16.6597 21.3985C17.3175 20.8247 18.0788 20.0634 19.0451 19.0971L19.0972 19.045C20.0635 18.0787 20.8248 17.3174 21.3986 16.6596C21.9834 15.9892 22.4225 15.3725 22.7098 14.6791C23.4204 12.9637 23.4204 11.0363 22.7098 9.32087C22.4225 8.62751 21.9834 8.0108 21.3986 7.3404C20.8249 6.68268 20.0637 5.92146 19.0975 4.95523L19.0454 4.90314ZM13.9146 3.1388C14.3236 3.30827 14.7523 3.59167 15.3457 4.10932C15.9459 4.63289 16.6593 5.34551 17.6572 6.34339C18.6552 7.34135 19.3679 8.0548 19.8915 8.65508C20.4092 9.24857 20.6926 9.67724 20.862 10.0863C21.3696 11.3116 21.3696 12.6884 20.862 13.9136C20.6926 14.3227 20.4091 14.7514 19.8914 15.3449C19.3677 15.9453 18.655 16.6588 17.6569 17.6568C16.6589 18.6549 15.9454 19.3676 15.3451 19.8913C14.7515 20.409 14.3228 20.6925 13.9137 20.8619C12.6885 21.3695 11.3117 21.3695 10.0864 20.8619C9.67735 20.6924 9.24869 20.409 8.65519 19.8913C8.05491 19.3677 7.34147 18.6551 6.34351 17.6571C5.34547 16.6591 4.63274 15.9456 4.1091 15.3452C3.59137 14.7517 3.30795 14.323 3.13847 13.9139C2.63087 12.6885 2.63093 11.3117 3.13863 10.0864C3.30814 9.6773 3.59162 9.24861 4.10944 8.65506C4.63319 8.05473 5.34605 7.34122 6.34426 6.34319C7.34231 5.3453 8.05583 4.63267 8.65616 4.1091C9.2497 3.59145 9.67838 3.30807 10.0875 3.13863C11.3127 2.63114 12.6894 2.6312 13.9146 3.1388Z" fill="black"/>
</svg>
