<svg width="24" height="24" viewBox="0 0 24 24" fill="none" xmlns="http://www.w3.org/2000/svg">
<path d="M8.63044 1.50604L8.57248 1.5664C7.4264 2.75707 5.55655 4.8198 3.96998 7.1356C2.39943 9.42802 1.03809 12.0644 1.03809 14.3822C1.03809 19.3315 5.0503 23.3437 9.99963 23.3437C14.9489 23.3437 18.9612 19.3315 18.9612 14.3822C18.9612 13.2001 18.6071 11.9351 18.0517 10.6752C18.0042 10.7491 17.9481 10.819 17.8835 10.8837C17.3954 11.3718 16.6039 11.3718 16.1157 10.8837L16.0492 10.8171C14.7879 9.55577 14.549 7.65921 15.3326 6.1573C13.9216 4.24644 12.4086 2.58643 11.4268 1.5664L11.3688 1.50605C11.083 1.208 10.8275 0.941545 10.474 0.823711C10.1783 0.725124 9.82095 0.725124 9.52523 0.823711C9.17178 0.941542 8.91625 1.20801 8.63044 1.50604Z" fill="black"/>
<path d="M16.9654 1.88728C18.2646 3.02406 18.3311 5.02268 17.1104 6.24335C16.1403 7.21351 16.1403 8.78647 17.1104 9.75664L17.177 9.82321C17.2746 9.92085 17.2746 10.0791 17.177 10.1768C17.0794 10.2744 16.9211 10.2744 16.8235 10.1768L16.7569 10.1102C15.5915 8.94476 15.5915 7.05522 16.7569 5.88979C17.773 4.87365 17.7176 3.20988 16.6362 2.26357L16.55 2.18813C16.4461 2.09721 16.4355 1.93927 16.5265 1.83536C16.6174 1.73145 16.7753 1.72093 16.8792 1.81185L16.9654 1.88728Z" fill="black"/>
<path d="M20.9654 1.88728C22.2646 3.02406 22.3311 5.02269 21.1104 6.24335C20.1403 7.21352 20.1403 8.78647 21.1104 9.75664L21.177 9.82322C21.2746 9.92085 21.2746 10.0791 21.177 10.1768C21.0794 10.2744 20.9211 10.2744 20.8235 10.1768L20.7569 10.1102C19.5915 8.94476 19.5915 7.05522 20.7569 5.88979C21.773 4.87365 21.7176 3.20989 20.6362 2.26357L20.55 2.18813C20.4461 2.09721 20.4355 1.93927 20.5265 1.83536C20.6174 1.73146 20.7753 1.72093 20.8792 1.81185L20.9654 1.88728Z" fill="black"/>
</svg>
