<svg width="24" height="24" viewBox="0 0 24 24" fill="none" xmlns="http://www.w3.org/2000/svg">
<path d="M8.63044 1.50604L8.57248 1.5664C7.4264 2.75707 5.55655 4.8198 3.96998 7.1356C2.39943 9.42802 1.03809 12.0644 1.03809 14.3822C1.03809 19.3315 5.0503 23.3437 9.99963 23.3437C14.9489 23.3437 18.9612 19.3315 18.9612 14.3822C18.9612 13.3647 18.6988 12.2859 18.2716 11.2017C18.2603 11.2136 18.2488 11.2255 18.2371 11.2372C17.5536 11.9206 16.4456 11.9206 15.7622 11.2372L15.6956 11.1706C14.2175 9.69248 13.987 7.43914 15.0042 5.71924C13.6911 3.99385 12.3328 2.50765 11.4268 1.5664L11.3688 1.50605C11.083 1.208 10.8275 0.941545 10.474 0.823711C10.1783 0.725124 9.82095 0.725124 9.52523 0.823711C9.17178 0.941542 8.91625 1.20801 8.63044 1.50604Z" fill="black"/>
<path d="M17.2947 1.511C18.8115 2.83824 18.8892 5.17172 17.464 6.5969C16.6891 7.37181 16.6891 8.62818 17.464 9.40308L17.5306 9.46966C17.8235 9.76255 17.8235 10.2374 17.5306 10.5303C17.2377 10.8232 16.7628 10.8232 16.4699 10.5303L16.4033 10.4637C15.0426 9.10305 15.0426 6.89693 16.4033 5.53624C17.215 4.72461 17.1707 3.39571 16.3069 2.63985L16.2207 2.56442C15.909 2.29165 15.8774 1.81783 16.1502 1.5061C16.4229 1.19438 16.8968 1.1628 17.2085 1.43557L17.2947 1.511Z" fill="black"/>
<path d="M21.2947 1.511C22.8115 2.83824 22.8892 5.17172 21.464 6.5969C20.6891 7.37181 20.6891 8.62818 21.464 9.40308L21.5306 9.46966C21.8235 9.76256 21.8235 10.2374 21.5306 10.5303C21.2377 10.8232 20.7628 10.8232 20.4699 10.5303L20.4033 10.4637C19.0426 9.10305 19.0426 6.89693 20.4033 5.53624C21.215 4.72461 21.1707 3.39571 20.3069 2.63985L20.2207 2.56442C19.909 2.29165 19.8774 1.81783 20.1502 1.50611C20.4229 1.19438 20.8968 1.1628 21.2085 1.43557L21.2947 1.511Z" fill="black"/>
</svg>
