<svg width="24" height="24" viewBox="0 0 24 24" fill="none" xmlns="http://www.w3.org/2000/svg">
<path d="M9.92043 2.00982C9.91961 2.01008 9.91654 2.01105 9.90797 2.01631C9.89692 2.02308 9.87545 2.03779 9.83892 2.06922C9.75643 2.1402 9.65494 2.24454 9.47307 2.43349C8.34906 3.60123 6.53218 5.60763 5.00118 7.84231C3.44615 10.1121 2.28809 12.4738 2.28809 14.3824C2.28809 18.6414 5.74066 22.094 9.99963 22.094C14.2586 22.094 17.7112 18.6414 17.7112 14.3824C17.7112 13.571 17.5018 12.6776 17.1417 11.7443C17.5411 11.7119 17.9315 11.543 18.2371 11.2374C18.3181 11.1564 18.3895 11.0695 18.4513 10.9779C18.9188 12.13 19.2112 13.2866 19.2112 14.3824C19.2112 19.4698 15.087 23.594 9.99963 23.594C4.91223 23.594 0.788086 19.4698 0.788086 14.3824C0.788086 11.9827 2.19008 9.29148 3.76374 6.99453C5.36143 4.6625 7.24187 2.58852 8.39237 1.39326L8.45911 1.32359C8.73289 1.03716 9.03113 0.725134 9.44616 0.586772C9.79321 0.471076 10.206 0.471076 10.5531 0.586772C10.9681 0.725135 11.2664 1.03715 11.5401 1.32359L11.6069 1.39326C12.5033 2.32459 13.843 3.78942 15.1467 5.49414C14.8128 5.98866 14.5882 6.53503 14.4731 7.09929C13.0679 5.16777 11.524 3.47015 10.5262 2.43349C10.3443 2.24454 10.2428 2.1402 10.1603 2.06922C10.1238 2.03779 10.1023 2.02308 10.0913 2.01631C10.0827 2.01105 10.0796 2.01008 10.0788 2.00982C10.0397 1.99678 9.95954 1.99678 9.92043 2.00982Z" fill="black"/>
<path d="M17.2947 1.51123C18.8115 2.83847 18.8892 5.17195 17.464 6.59713C16.6891 7.37203 16.6891 8.62841 17.464 9.40331L17.5306 9.46989C17.8235 9.76278 17.8235 10.2377 17.5306 10.5305C17.2377 10.8234 16.7628 10.8234 16.4699 10.5305L16.4033 10.464C15.0426 9.10328 15.0426 6.89716 16.4033 5.53647C17.215 4.72484 17.1707 3.39593 16.3069 2.64008L16.2207 2.56464C15.909 2.29188 15.8774 1.81806 16.1502 1.50633C16.4229 1.19461 16.8968 1.16303 17.2085 1.43579L17.2947 1.51123Z" fill="black"/>
<path d="M21.2947 1.51123C22.8115 2.83847 22.8892 5.17195 21.464 6.59713C20.6891 7.37204 20.6891 8.62841 21.464 9.40331L21.5306 9.46989C21.8235 9.76278 21.8235 10.2377 21.5306 10.5306C21.2377 10.8234 20.7628 10.8234 20.4699 10.5306L20.4033 10.464C19.0426 9.10328 19.0426 6.89716 20.4033 5.53647C21.215 4.72484 21.1707 3.39594 20.3069 2.64008L20.2207 2.56465C19.909 2.29188 19.8774 1.81806 20.1502 1.50633C20.4229 1.19461 20.8968 1.16303 21.2085 1.4358L21.2947 1.51123Z" fill="black"/>
</svg>
