<svg width="24" height="24" viewBox="0 0 24 24" fill="none" xmlns="http://www.w3.org/2000/svg">
<path d="M9.76243 1.53521C9.60074 1.58911 9.475 1.71026 9.11283 2.08652C7.97999 3.26343 6.14193 5.29236 4.5887 7.55949C3.02746 9.83831 1.78809 12.3099 1.78809 14.3822C1.78809 18.9173 5.46452 22.5937 9.99963 22.5937C14.5347 22.5937 18.2112 18.9173 18.2112 14.3822C18.2112 13.3814 17.9221 12.2875 17.4473 11.1672C17.6024 11.1078 17.748 11.0164 17.874 10.8931C18.389 12.0891 18.7112 13.2778 18.7112 14.3822C18.7112 19.1935 14.8109 23.0937 9.99963 23.0937C5.18837 23.0937 1.28809 19.1935 1.28809 14.3822C1.28809 12.1462 2.60877 9.56478 4.17622 7.27689C5.75168 4.97732 7.61093 2.92586 8.7526 1.73977L8.79232 1.69847C9.09805 1.38049 9.31148 1.1585 9.60429 1.06088C9.84869 0.979402 10.1506 0.979402 10.395 1.06088C10.6878 1.1585 10.9012 1.38049 11.2069 1.69847L11.2467 1.73978C12.2432 2.77509 13.7865 4.46976 15.2105 6.41326C15.129 6.60129 15.0627 6.79433 15.0115 6.99051C13.5519 4.95571 11.9236 3.16403 10.8864 2.08652C10.5242 1.71026 10.3985 1.58911 10.2368 1.53521C10.0951 1.48796 9.90418 1.48796 9.76243 1.53521Z" fill="black"/>
<path d="M16.9654 1.88728C18.2646 3.02406 18.3311 5.02269 17.1104 6.24335C16.1403 7.21352 16.1403 8.78647 17.1104 9.75664L17.177 9.82322C17.2746 9.92085 17.2746 10.0791 17.177 10.1768C17.0794 10.2744 16.9211 10.2744 16.8235 10.1768L16.7569 10.1102C15.5915 8.94476 15.5915 7.05522 16.7569 5.88979C17.773 4.87365 17.7176 3.20989 16.6362 2.26357L16.55 2.18813C16.4461 2.09721 16.4355 1.93927 16.5265 1.83536C16.6174 1.73146 16.7753 1.72093 16.8792 1.81185L16.9654 1.88728Z" fill="black"/>
<path d="M20.9654 1.88729C22.2646 3.02407 22.3311 5.02269 21.1104 6.24335C20.1403 7.21352 20.1403 8.78647 21.1104 9.75664L21.177 9.82322C21.2746 9.92085 21.2746 10.0791 21.177 10.1768C21.0794 10.2744 20.9211 10.2744 20.8235 10.1768L20.7569 10.1102C19.5915 8.94476 19.5915 7.05523 20.7569 5.8898C21.773 4.87365 21.7176 3.20989 20.6362 2.26357L20.55 2.18814C20.4461 2.09721 20.4355 1.93927 20.5265 1.83537C20.6174 1.73146 20.7753 1.72093 20.8792 1.81185L20.9654 1.88729Z" fill="black"/>
</svg>
