<svg width="24" height="24" viewBox="0 0 24 24" fill="none" xmlns="http://www.w3.org/2000/svg">
<path d="M9.84149 1.77261C9.75164 1.80257 9.67253 1.86577 9.29295 2.26012C8.16453 3.43245 6.33705 5.45011 4.79494 7.70101C3.23681 9.97531 2.03809 12.392 2.03809 14.3824C2.03809 18.7795 5.60259 22.344 9.99963 22.344C14.3967 22.344 17.9612 18.7795 17.9612 14.3824C17.9612 13.4812 17.7154 12.4926 17.3018 11.4694C17.5798 11.4125 17.8447 11.2763 18.0603 11.0607C18.0981 11.0228 18.1335 10.9835 18.1665 10.9428C18.6554 12.1139 18.9612 13.2839 18.9612 14.3824C18.9612 19.3318 14.9489 23.344 9.99963 23.344C5.0503 23.344 1.03809 19.3318 1.03809 14.3824C1.03809 12.0646 2.39943 9.42824 3.96998 7.13583C5.55655 4.82002 7.4264 2.7573 8.57248 1.56663L8.63044 1.50627C8.91625 1.20823 9.17178 0.941771 9.52523 0.82394C9.82095 0.725353 10.1783 0.725353 10.474 0.82394C10.8275 0.941774 11.083 1.20823 11.3688 1.50628L11.4268 1.56663C12.3705 2.54708 13.805 4.11881 15.1679 5.93626C14.9718 6.28725 14.8296 6.66023 14.7412 7.04312C13.3089 5.06076 11.7236 3.31695 10.7063 2.26012C10.3267 1.86577 10.2476 1.80257 10.1578 1.77261C10.0673 1.74246 9.93192 1.74246 9.84149 1.77261Z" fill="black"/>
<path d="M17.1301 1.69937C18.538 2.93138 18.6101 5.09743 17.2872 6.42035C16.4147 7.29289 16.4147 8.70755 17.2872 9.58009L17.3538 9.64667C17.5491 9.84193 17.5491 10.1585 17.3538 10.3538C17.1585 10.549 16.8419 10.549 16.6467 10.3538L16.5801 10.2872C15.317 9.02413 15.317 6.97631 16.5801 5.71325C17.494 4.79936 17.4442 3.30302 16.4715 2.45194L16.3853 2.3765C16.1775 2.19466 16.1565 1.87878 16.3383 1.67096C16.5202 1.46315 16.836 1.44209 17.0439 1.62394L17.1301 1.69937Z" fill="black"/>
<path d="M21.1301 1.69937C22.538 2.93138 22.6101 5.09743 21.2872 6.42035C20.4147 7.29289 20.4147 8.70755 21.2872 9.58009L21.3538 9.64667C21.5491 9.84193 21.5491 10.1585 21.3538 10.3538C21.1585 10.549 20.8419 10.549 20.6467 10.3538L20.5801 10.2872C19.317 9.02414 19.317 6.97631 20.5801 5.71325C21.494 4.79936 21.4442 3.30303 20.4715 2.45194L20.3853 2.37651C20.1775 2.19466 20.1565 1.87878 20.3383 1.67097C20.5202 1.46315 20.836 1.4421 21.0439 1.62394L21.1301 1.69937Z" fill="black"/>
</svg>
