<svg width="24" height="24" viewBox="0 0 24 24" fill="none" xmlns="http://www.w3.org/2000/svg">
<path d="M9.92043 2.00959C9.91961 2.00985 9.91654 2.01082 9.90797 2.01608C9.89692 2.02285 9.87545 2.03756 9.83892 2.069C9.75643 2.13998 9.65494 2.24431 9.47307 2.43326C8.34906 3.601 6.53218 5.6074 5.00118 7.84208C3.44615 10.1118 2.28809 12.4736 2.28809 14.3822C2.28809 18.6412 5.74066 22.0937 9.99963 22.0937C14.2586 22.0937 17.7112 18.6412 17.7112 14.3822C17.7112 13.5708 17.5018 12.6774 17.1417 11.744C17.5411 11.7117 17.9315 11.5428 18.2371 11.2372C18.3181 11.1562 18.3895 11.0692 18.4513 10.9777C18.9188 12.1298 19.2112 13.2864 19.2112 14.3822C19.2112 19.4696 15.087 23.5937 9.99963 23.5937C4.91223 23.5937 0.788086 19.4696 0.788086 14.3822C0.788086 11.9825 2.19008 9.29125 3.76374 6.9943C5.36143 4.66227 7.24187 2.58829 8.39237 1.39303L8.45911 1.32337C8.73289 1.03693 9.03113 0.724906 9.44616 0.586543C9.79321 0.470847 10.206 0.470847 10.5531 0.586543C10.9681 0.724906 11.2664 1.03693 11.5401 1.32337L11.6069 1.39303C12.5033 2.32436 13.843 3.7892 15.1467 5.49391C14.8128 5.98843 14.5882 6.5348 14.4731 7.09906C13.0679 5.16754 11.524 3.46993 10.5262 2.43326C10.3443 2.24431 10.2428 2.13998 10.1603 2.069C10.1238 2.03756 10.1023 2.02285 10.0913 2.01608C10.0827 2.01082 10.0796 2.00985 10.0788 2.00959C10.0397 1.99655 9.95954 1.99655 9.92043 2.00959Z" fill="black"/>
<path d="M17.2947 1.511C18.8115 2.83824 18.8892 5.17172 17.464 6.5969C16.6891 7.37181 16.6891 8.62818 17.464 9.40308L17.5306 9.46966C17.8235 9.76255 17.8235 10.2374 17.5306 10.5303C17.2377 10.8232 16.7628 10.8232 16.4699 10.5303L16.4033 10.4637C15.0426 9.10305 15.0426 6.89693 16.4033 5.53624C17.215 4.72461 17.1707 3.39571 16.3069 2.63985L16.2207 2.56442C15.909 2.29165 15.8774 1.81783 16.1502 1.5061C16.4229 1.19438 16.8968 1.1628 17.2085 1.43557L17.2947 1.511Z" fill="black"/>
<path d="M21.2947 1.511C22.8115 2.83824 22.8892 5.17172 21.464 6.5969C20.6891 7.37181 20.6891 8.62818 21.464 9.40308L21.5306 9.46966C21.8235 9.76256 21.8235 10.2374 21.5306 10.5303C21.2377 10.8232 20.7628 10.8232 20.4699 10.5303L20.4033 10.4637C19.0426 9.10305 19.0426 6.89693 20.4033 5.53624C21.215 4.72461 21.1707 3.39571 20.3069 2.63985L20.2207 2.56442C19.909 2.29165 19.8774 1.81783 20.1502 1.50611C20.4229 1.19438 20.8968 1.1628 21.2085 1.43557L21.2947 1.511Z" fill="black"/>
</svg>
