<svg width="24" height="24" viewBox="0 0 24 24" fill="none" xmlns="http://www.w3.org/2000/svg">
<path d="M9.99963 2.26053C9.92842 2.32213 9.8362 2.4165 9.65318 2.60664C8.53359 3.76979 6.7273 5.76492 5.20742 7.98338C3.6555 10.2486 2.53809 12.5555 2.53809 14.3822C2.53809 18.5031 5.87873 21.8437 9.99963 21.8437C14.1205 21.8437 17.4612 18.5031 17.4612 14.3822C17.4612 13.6534 17.2833 12.8481 16.9709 11.9996C17.4923 12.007 18.016 11.8118 18.4138 11.414C18.5397 11.2881 18.6453 11.1497 18.7306 11.0027C19.1801 12.1401 19.4612 13.2869 19.4612 14.3822C19.4612 19.6077 15.2251 23.8437 9.99963 23.8437C4.77416 23.8437 0.538086 19.6077 0.538086 14.3822C0.538086 11.9007 1.98074 9.15448 3.5575 6.853C5.1663 4.50475 7.05734 2.4195 8.21225 1.21966C8.23517 1.19584 8.25868 1.17116 8.28281 1.14582C8.54829 0.867031 8.88968 0.508535 9.36709 0.349376C9.76546 0.216569 10.2338 0.216569 10.6322 0.349376C11.1096 0.508535 11.451 0.867031 11.7164 1.14582C11.7406 1.17116 11.7641 1.19584 11.787 1.21966C12.6402 2.10603 13.8951 3.47561 15.1412 5.07746C14.6518 5.69972 14.3404 6.41635 14.2071 7.15867C12.8287 5.27654 11.3249 3.62359 10.3461 2.60664C10.1631 2.4165 10.0708 2.32213 9.99963 2.26053Z" fill="black"/>
<path d="M17.4593 1.32286C19.085 2.74533 19.1682 5.24624 17.6408 6.77368C16.9635 7.45095 16.9635 8.54903 17.6408 9.22631L17.7073 9.29288C18.0979 9.68341 18.0979 10.3166 17.7073 10.7071C17.3168 11.0976 16.6837 11.0976 16.2931 10.7071L16.2266 10.6405C14.7682 9.1822 14.7682 6.81779 16.2266 5.35946C16.9359 4.65009 16.8973 3.48862 16.1423 2.82799L16.0561 2.75256C15.6404 2.38887 15.5983 1.75711 15.962 1.34148C16.3257 0.925845 16.9575 0.883737 17.3731 1.24742L17.4593 1.32286Z" fill="black"/>
<path d="M21.4593 1.32286C23.085 2.74533 23.1682 5.24624 21.6408 6.77368C20.9635 7.45095 20.9635 8.54903 21.6408 9.22631L21.7073 9.29289C22.0979 9.68341 22.0979 10.3166 21.7073 10.7071C21.3168 11.0976 20.6837 11.0976 20.2931 10.7071L20.2266 10.6405C18.7682 9.1822 18.7682 6.81779 20.2266 5.35946C20.9359 4.65009 20.8973 3.48862 20.1423 2.82799L20.0561 2.75256C19.6404 2.38887 19.5983 1.75711 19.962 1.34148C20.3257 0.925847 20.9575 0.883739 21.3731 1.24743L21.4593 1.32286Z" fill="black"/>
</svg>
