<svg width="24" height="24" viewBox="0 0 24 24" fill="none" xmlns="http://www.w3.org/2000/svg">
<path d="M9.76243 1.53544C9.60074 1.58934 9.475 1.71049 9.11283 2.08675C7.97999 3.26366 6.14193 5.29259 4.5887 7.55972C3.02746 9.83854 1.78809 12.3101 1.78809 14.3824C1.78809 18.9175 5.46452 22.594 9.99963 22.594C14.5347 22.594 18.2112 18.9175 18.2112 14.3824C18.2112 13.3817 17.9221 12.2877 17.4473 11.1674C17.6024 11.108 17.748 11.0167 17.874 10.8933C18.389 12.0893 18.7112 13.278 18.7112 14.3824C18.7112 19.1937 14.8109 23.094 9.99963 23.094C5.18837 23.094 1.28809 19.1937 1.28809 14.3824C1.28809 12.1464 2.60877 9.56501 4.17622 7.27712C5.75168 4.97754 7.61093 2.92609 8.7526 1.74L8.79232 1.6987C9.09805 1.38072 9.31148 1.15873 9.60429 1.06111C9.84869 0.979631 10.1506 0.979631 10.395 1.06111C10.6878 1.15872 10.9012 1.38072 11.2069 1.6987L11.2467 1.74C12.2432 2.77532 13.7865 4.46999 15.2105 6.41349C15.129 6.60152 15.0627 6.79456 15.0115 6.99074C13.5519 4.95594 11.9236 3.16426 10.8864 2.08675C10.5242 1.71049 10.3985 1.58934 10.2368 1.53544C10.0951 1.48819 9.90418 1.48819 9.76243 1.53544Z" fill="black"/>
<path d="M16.9654 1.88751C18.2646 3.02429 18.3311 5.02291 17.1104 6.24358C16.1403 7.21374 16.1403 8.7867 17.1104 9.75687L17.177 9.82344C17.2746 9.92108 17.2746 10.0794 17.177 10.177C17.0794 10.2746 16.9211 10.2746 16.8235 10.177L16.7569 10.1104C15.5915 8.94499 15.5915 7.05545 16.7569 5.89002C17.773 4.87388 17.7176 3.21011 16.6362 2.2638L16.55 2.18836C16.4461 2.09744 16.4355 1.9395 16.5265 1.83559C16.6174 1.73168 16.7753 1.72116 16.8792 1.81208L16.9654 1.88751Z" fill="black"/>
<path d="M20.9654 1.88751C22.2646 3.02429 22.3311 5.02292 21.1104 6.24358C20.1403 7.21375 20.1403 8.7867 21.1104 9.75687L21.177 9.82345C21.2746 9.92108 21.2746 10.0794 21.177 10.177C21.0794 10.2746 20.9211 10.2746 20.8235 10.177L20.7569 10.1104C19.5915 8.94499 19.5915 7.05546 20.7569 5.89002C21.773 4.87388 21.7176 3.21012 20.6362 2.2638L20.55 2.18837C20.4461 2.09744 20.4355 1.9395 20.5265 1.83559C20.6174 1.73169 20.7753 1.72116 20.8792 1.81208L20.9654 1.88751Z" fill="black"/>
</svg>
