<svg width="24" height="24" viewBox="0 0 24 24" fill="none" xmlns="http://www.w3.org/2000/svg">
<path d="M8.63044 1.50604L8.57248 1.5664C7.4264 2.75707 5.55655 4.8198 3.96998 7.1356C2.39943 9.42802 1.03809 12.0644 1.03809 14.3822C1.03809 19.3315 5.0503 23.3437 9.99963 23.3437C14.9489 23.3437 18.9612 19.3315 18.9612 14.3822C18.9612 13.6042 18.8078 12.7903 18.5446 11.9656C17.5634 12.7387 16.137 12.6726 15.2319 11.7675L15.1653 11.701C13.3678 9.90343 13.1509 7.12378 14.5148 5.08931C13.3613 3.63382 12.2205 2.39099 11.4268 1.5664L11.3688 1.50605C11.083 1.208 10.8275 0.941545 10.474 0.823711C10.1783 0.725124 9.82095 0.725124 9.52523 0.823711C9.17178 0.941542 8.91625 1.20801 8.63044 1.50604Z" fill="black"/>
<path d="M17.6239 1.13471C19.3584 2.65242 19.4472 5.32076 17.8175 6.95045C17.2379 7.5301 17.2379 8.46989 17.8175 9.04953L17.8841 9.11611C18.3723 9.60426 18.3723 10.3957 17.8841 10.8839C17.396 11.372 16.6045 11.372 16.1164 10.8839L16.0498 10.8173C14.4938 9.26134 14.4938 6.73864 16.0498 5.18268C16.6569 4.57557 16.6238 3.58153 15.9777 3.01613L15.8914 2.9407C15.3719 2.48609 15.3193 1.69638 15.7739 1.17685C16.2285 0.657307 17.0182 0.604672 17.5377 1.05928L17.6239 1.13471Z" fill="black"/>
<path d="M21.6239 1.13472C23.3584 2.65242 23.4472 5.32076 21.8175 6.95045C21.2379 7.5301 21.2379 8.46989 21.8175 9.04953L21.8841 9.11611C22.3723 9.60426 22.3723 10.3957 21.8841 10.8839C21.396 11.372 20.6045 11.372 20.1164 10.8839L20.0498 10.8173C18.4938 9.26134 18.4938 6.73864 20.0498 5.18269C20.6569 4.57557 20.6238 3.58153 19.9777 3.01613L19.8915 2.9407C19.3719 2.48609 19.3193 1.69639 19.7739 1.17685C20.2285 0.657309 21.0182 0.604674 21.5377 1.05928L21.6239 1.13472Z" fill="black"/>
</svg>
