<svg width="24" height="24" viewBox="0 0 24 24" fill="none" xmlns="http://www.w3.org/2000/svg">
<path d="M8.63044 1.50627L8.57248 1.56663C7.4264 2.7573 5.55655 4.82002 3.96998 7.13583C2.39943 9.42824 1.03809 12.0646 1.03809 14.3824C1.03809 19.3318 5.0503 23.344 9.99963 23.344C14.9489 23.344 18.9612 19.3318 18.9612 14.3824C18.9612 13.365 18.6988 12.2861 18.2716 11.2019C18.2603 11.2139 18.2488 11.2257 18.2371 11.2374C17.5536 11.9209 16.4456 11.9209 15.7622 11.2374L15.6956 11.1709C14.2175 9.69271 13.987 7.43937 15.0042 5.71947C13.6911 3.99408 12.3328 2.50788 11.4268 1.56663L11.3688 1.50628C11.083 1.20823 10.8275 0.941774 10.474 0.82394C10.1783 0.725353 9.82095 0.725353 9.52523 0.82394C9.17178 0.941771 8.91625 1.20823 8.63044 1.50627Z" fill="black"/>
<path d="M17.2947 1.51123C18.8115 2.83847 18.8892 5.17195 17.464 6.59713C16.6891 7.37203 16.6891 8.62841 17.464 9.40331L17.5306 9.46989C17.8235 9.76278 17.8235 10.2377 17.5306 10.5305C17.2377 10.8234 16.7628 10.8234 16.4699 10.5305L16.4033 10.464C15.0426 9.10328 15.0426 6.89716 16.4033 5.53647C17.215 4.72484 17.1707 3.39593 16.3069 2.64008L16.2207 2.56464C15.909 2.29188 15.8774 1.81806 16.1502 1.50633C16.4229 1.19461 16.8968 1.16303 17.2085 1.43579L17.2947 1.51123Z" fill="black"/>
<path d="M21.2947 1.51123C22.8115 2.83847 22.8892 5.17195 21.464 6.59713C20.6891 7.37204 20.6891 8.62841 21.464 9.40331L21.5306 9.46989C21.8235 9.76278 21.8235 10.2377 21.5306 10.5306C21.2377 10.8234 20.7628 10.8234 20.4699 10.5306L20.4033 10.464C19.0426 9.10328 19.0426 6.89716 20.4033 5.53647C21.215 4.72484 21.1707 3.39594 20.3069 2.64008L20.2207 2.56465C19.909 2.29188 19.8774 1.81806 20.1502 1.50633C20.4229 1.19461 20.8968 1.16303 21.2085 1.4358L21.2947 1.51123Z" fill="black"/>
</svg>
