<svg width="24" height="24" viewBox="0 0 24 24" fill="none" xmlns="http://www.w3.org/2000/svg">
<path d="M8.63044 1.50627L8.57248 1.56663C7.4264 2.7573 5.55655 4.82002 3.96998 7.13583C2.39943 9.42824 1.03809 12.0646 1.03809 14.3824C1.03809 19.3318 5.0503 23.344 9.99963 23.344C14.9489 23.344 18.9612 19.3318 18.9612 14.3824C18.9612 13.2003 18.6071 11.9354 18.0517 10.6755C18.0042 10.7493 17.9481 10.8193 17.8835 10.8839C17.3954 11.372 16.6039 11.372 16.1157 10.8839L16.0492 10.8173C14.7879 9.556 14.549 7.65944 15.3326 6.15753C13.9216 4.24667 12.4086 2.58665 11.4268 1.56663L11.3688 1.50628C11.083 1.20823 10.8275 0.941774 10.474 0.82394C10.1783 0.725353 9.82095 0.725353 9.52523 0.82394C9.17178 0.941771 8.91625 1.20823 8.63044 1.50627Z" fill="black"/>
<path d="M16.9654 1.88751C18.2646 3.02429 18.3311 5.02291 17.1104 6.24357C16.1403 7.21374 16.1403 8.7867 17.1104 9.75687L17.177 9.82344C17.2746 9.92107 17.2746 10.0794 17.177 10.177C17.0794 10.2746 16.9211 10.2746 16.8235 10.177L16.7569 10.1104C15.5915 8.94499 15.5915 7.05545 16.7569 5.89002C17.773 4.87387 17.7176 3.21011 16.6362 2.26379L16.55 2.18836C16.4461 2.09744 16.4355 1.9395 16.5265 1.83559C16.6174 1.73168 16.7753 1.72116 16.8792 1.81208L16.9654 1.88751Z" fill="black"/>
<path d="M20.9654 1.88751C22.2646 3.02429 22.3311 5.02291 21.1104 6.24358C20.1403 7.21375 20.1403 8.7867 21.1104 9.75687L21.177 9.82344C21.2746 9.92108 21.2746 10.0794 21.177 10.177C21.0794 10.2746 20.9211 10.2746 20.8235 10.177L20.7569 10.1104C19.5915 8.94499 19.5915 7.05545 20.7569 5.89002C21.773 4.87388 21.7176 3.21011 20.6362 2.2638L20.55 2.18836C20.4461 2.09744 20.4355 1.9395 20.5265 1.83559C20.6174 1.73169 20.7753 1.72116 20.8792 1.81208L20.9654 1.88751Z" fill="black"/>
</svg>
