<svg width="24" height="25" viewBox="0 0 24 25" fill="none" xmlns="http://www.w3.org/2000/svg">
<path d="M9.99962 2.60839C9.95246 2.65648 9.89884 2.71215 9.8333 2.78024C8.71812 3.9388 6.92243 5.92267 5.41366 8.12491C3.86484 10.3856 2.78809 12.6375 2.78809 14.3824C2.78809 18.3653 6.0168 21.594 9.99963 21.594C13.9824 21.594 17.2112 18.3653 17.2112 14.3824C17.2112 13.8037 17.0927 13.1692 16.8779 12.497C17.5576 12.53 18.2483 12.2869 18.7674 11.7678C18.8476 11.6875 18.9213 11.6032 18.9883 11.5155C19.0455 11.5785 19.1045 11.6404 19.1653 11.7012L19.2319 11.7678C19.2492 11.7851 19.2667 11.8021 19.2843 11.8188C19.5528 12.6817 19.7112 13.5447 19.7112 14.3824C19.7112 19.746 15.3632 24.094 9.99963 24.094C4.63609 24.094 0.288086 19.746 0.288086 14.3824C0.288086 11.819 1.77139 9.01795 3.35126 6.71194C4.97118 4.34746 6.8728 2.25095 8.03213 1.04651C8.05479 1.02297 8.0786 0.997879 8.10357 0.97155C8.3626 0.69845 8.74751 0.292634 9.28803 0.112438C9.73772 -0.0374794 10.2615 -0.0374794 10.7112 0.112438C11.2517 0.292634 11.6366 0.698446 11.8957 0.971546C11.9207 0.997875 11.9445 1.02298 11.9671 1.04652C12.7441 1.85375 13.8546 3.0617 14.9902 4.48248C14.3383 5.19973 13.9211 6.05423 13.7386 6.94715C12.4454 5.22747 11.078 3.72782 10.1659 2.78024C10.1004 2.71215 10.0468 2.65648 9.99962 2.60839Z" fill="black"/>
<path d="M17.6239 1.13495C19.3584 2.65265 19.4472 5.32099 17.8175 6.95068C17.2379 7.53033 17.2379 8.47012 17.8175 9.04976L17.8841 9.11634C18.3723 9.60449 18.3723 10.3959 17.8841 10.8841C17.396 11.3723 16.6045 11.3723 16.1164 10.8841L16.0498 10.8175C14.4938 9.26157 14.4938 6.73887 16.0498 5.18292C16.6569 4.5758 16.6238 3.58176 15.9777 3.01636L15.8914 2.94093C15.3719 2.48632 15.3193 1.69662 15.7739 1.17708C16.2285 0.657538 17.0182 0.604903 17.5377 1.05951L17.6239 1.13495Z" fill="black"/>
<path d="M21.6239 1.13495C23.3584 2.65265 23.4472 5.32099 21.8175 6.95068C21.2379 7.53033 21.2379 8.47012 21.8175 9.04976L21.8841 9.11634C22.3723 9.6045 22.3723 10.396 21.8841 10.8841C21.396 11.3723 20.6045 11.3723 20.1164 10.8841L20.0498 10.8175C18.4938 9.26157 18.4938 6.73887 20.0498 5.18292C20.6569 4.5758 20.6238 3.58176 19.9777 3.01636L19.8915 2.94093C19.3719 2.48632 19.3193 1.69662 19.7739 1.17708C20.2285 0.65754 21.0182 0.604905 21.5377 1.05952L21.6239 1.13495Z" fill="black"/>
</svg>
