<svg width="24" height="24" viewBox="0 0 24 24" fill="none" xmlns="http://www.w3.org/2000/svg">
<path d="M7.25763 4.82192C7.02084 4.67984 6.71371 4.75663 6.57163 4.99342C6.42956 5.23021 6.50634 5.53734 6.74313 5.67941C9.97907 7.62098 14.0217 7.62098 17.2576 5.67941C17.4944 5.53734 17.5712 5.23021 17.4291 4.99342C17.2871 4.75663 16.9799 4.67984 16.7431 4.82192C13.8239 6.57347 10.1769 6.57347 7.25763 4.82192Z" fill="black"/>
<path d="M7.30897 19.6405C7.09334 19.813 6.7787 19.778 6.60619 19.5624C6.43369 19.3467 6.46865 19.0321 6.68428 18.8596C9.79006 16.375 14.2032 16.375 17.309 18.8596C17.5246 19.0321 17.5596 19.3467 17.3871 19.5624C17.2146 19.778 16.8999 19.813 16.6843 19.6405C13.9437 17.448 10.0495 17.448 7.30897 19.6405Z" fill="black"/>
<path fill-rule="evenodd" clip-rule="evenodd" d="M2.69383 0.5C2.0345 0.5 1.5 1.0345 1.5 1.69383V2.28848C1.5 3.49903 1.829 4.68683 2.45182 5.72487C3.88559 8.11447 5.88553 10.1144 8.27513 11.5482L8.88068 11.9115C8.94749 11.9516 8.94749 12.0484 8.88068 12.0885L8.27513 12.4518C5.88553 13.8856 3.88559 15.8855 2.45182 18.2751C1.829 19.3132 1.5 20.501 1.5 21.7115V22.3062C1.5 22.9655 2.0345 23.5 2.69383 23.5H21.3062C21.9655 23.5 22.5 22.9655 22.5 22.3062V21.7115C22.5 20.501 22.171 19.3132 21.5482 18.2751C20.1144 15.8855 18.1145 13.8856 15.7249 12.4518L15.1193 12.0885C15.0525 12.0484 15.0525 11.9516 15.1193 11.9115L15.7249 11.5482C18.1145 10.1144 20.1144 8.11447 21.5482 5.72487C22.171 4.68683 22.5 3.49903 22.5 2.28848V1.69383C22.5 1.0345 21.9655 0.5 21.3062 0.5H2.69383ZM2.5 1.69383C2.5 1.58678 2.58678 1.5 2.69383 1.5H21.3062C21.4132 1.5 21.5 1.58678 21.5 1.69383V2.28848C21.5 3.31779 21.2203 4.32775 20.6907 5.21037C19.3414 7.45923 17.4592 9.34137 15.2104 10.6907L14.6048 11.054C13.8907 11.4825 13.8907 12.5175 14.6048 12.946L15.2104 13.3093C17.4592 14.6586 19.3414 16.5408 20.6907 18.7896C21.2203 19.6723 21.5 20.6822 21.5 21.7115V22.3062C21.5 22.4132 21.4132 22.5 21.3062 22.5H2.69383C2.58678 22.5 2.5 22.4132 2.5 22.3062V21.7115C2.5 20.6822 2.77974 19.6723 3.30932 18.7896C4.65863 16.5408 6.54077 14.6586 8.78963 13.3093L9.39518 12.946C10.1093 12.5175 10.1093 11.4825 9.39518 11.054L8.78963 10.6907C6.54077 9.34137 4.65863 7.45923 3.30932 5.21037C2.77974 4.32775 2.5 3.31779 2.5 2.28848V1.69383Z" fill="black"/>
</svg>
