<svg width="24" height="25" viewBox="0 0 24 25" fill="none" xmlns="http://www.w3.org/2000/svg">
<path d="M8.55925 5.38216C7.94178 5.07343 7.19094 5.32371 6.8822 5.94118C6.57347 6.55865 6.82375 7.30949 7.44122 7.61823C10.3112 9.05322 13.6893 9.05322 16.5593 7.61823C17.1767 7.30949 17.427 6.55865 17.1183 5.94118C16.8095 5.32371 16.0587 5.07343 15.4412 5.38216C13.2751 6.46524 10.7254 6.46524 8.55925 5.38216Z" fill="black"/>
<path d="M7.6448 20.5718C7.05283 20.927 6.285 20.735 5.92982 20.143C5.57463 19.5511 5.76659 18.7832 6.35856 18.4281C9.83201 16.344 14.1713 16.344 17.6448 18.4281C18.2368 18.7832 18.4287 19.5511 18.0735 20.143C17.7184 20.735 16.9505 20.927 16.3586 20.5718C13.6768 18.9627 10.3265 18.9627 7.6448 20.5718Z" fill="black"/>
<path fill-rule="evenodd" clip-rule="evenodd" d="M2.69383 0C1.62028 0 0.75 0.870284 0.75 1.94383V2.53848C0.75 3.88496 1.11594 5.20614 1.80871 6.36074C3.24307 8.75136 5.22013 10.7685 7.57776 12.25C5.22013 13.7315 3.24307 15.7486 1.80871 18.1393C1.11594 19.2939 0.75 20.615 0.75 21.9615V22.5562C0.75 23.6297 1.62028 24.5 2.69383 24.5H21.3062C22.3797 24.5 23.25 23.6297 23.25 22.5562V21.9615C23.25 20.615 22.8841 19.2939 22.1913 18.1393C20.7569 15.7486 18.7799 13.7315 16.4222 12.25C18.7799 10.7685 20.7569 8.75136 22.1913 6.36074C22.8841 5.20614 23.25 3.88496 23.25 2.53848V1.94383C23.25 0.870284 22.3797 0 21.3062 0H2.69383ZM3.25 2.53848V2.5H20.75V2.53848C20.75 3.43185 20.5072 4.30843 20.0476 5.0745C18.7616 7.21779 16.9678 9.01159 14.8245 10.2976L14.2189 10.6609C13.0193 11.3807 13.0193 13.1193 14.2189 13.8391L14.8245 14.2024C16.9678 15.4884 18.7616 17.2822 20.0476 19.4255C20.5072 20.1916 20.75 21.0681 20.75 21.9615V22H3.25V21.9615C3.25 21.0681 3.4928 20.1916 3.95244 19.4255C5.23841 17.2822 7.03221 15.4884 9.1755 14.2024L9.78105 13.8391C10.9807 13.1193 10.9807 11.3807 9.78105 10.6609L9.1755 10.2976C7.03221 9.01159 5.23841 7.21779 3.95244 5.0745C3.4928 4.30843 3.25 3.43185 3.25 2.53848Z" fill="black"/>
</svg>
