<svg width="24" height="24" viewBox="0 0 24 24" fill="none" xmlns="http://www.w3.org/2000/svg">
<path d="M7.12925 5.03629C7.01085 4.96526 6.85729 5.00365 6.78625 5.12204C6.71521 5.24044 6.75361 5.394 6.872 5.46504C10.0288 7.3591 13.9725 7.3591 17.1292 5.46504C17.2476 5.394 17.286 5.24044 17.215 5.12204C17.144 5.00365 16.9904 4.96526 16.872 5.03629C13.8736 6.83535 10.1277 6.83535 7.12925 5.03629Z" fill="black"/>
<path d="M7.15304 19.4452C7.04523 19.5315 6.8879 19.514 6.80165 19.4062C6.7154 19.2984 6.73288 19.1411 6.8407 19.0548C9.85518 16.6432 14.1386 16.6432 17.153 19.0548C17.2609 19.1411 17.2783 19.2984 17.1921 19.4062C17.1058 19.514 16.9485 19.5315 16.8407 19.4452C14.0088 17.1797 9.98491 17.1797 7.15304 19.4452Z" fill="black"/>
<path fill-rule="evenodd" clip-rule="evenodd" d="M2.69408 0.75C2.17281 0.75 1.75024 1.17257 1.75024 1.69383V2.28848C1.75024 3.45372 2.06693 4.59706 2.66644 5.59624C4.07909 7.95066 6.04958 9.92115 8.404 11.3338L9.00955 11.6971C9.23819 11.8343 9.23819 12.1657 9.00955 12.3029L8.404 12.6662C6.04958 14.0788 4.07909 16.0493 2.66644 18.4038C2.06693 19.4029 1.75024 20.5463 1.75024 21.7115V22.3062C1.75024 22.8274 2.17281 23.25 2.69408 23.25H21.3064C21.8277 23.25 22.2502 22.8274 22.2502 22.3062V21.7115C22.2502 20.5463 21.9336 19.4029 21.334 18.4038C19.9214 16.0493 17.9509 14.0788 15.5965 12.6662L14.9909 12.3029C14.7623 12.1657 14.7623 11.8343 14.9909 11.6971L15.5965 11.3338C17.9509 9.92115 19.9214 7.95066 21.334 5.59624C21.9336 4.59706 22.2502 3.45372 22.2502 2.28848V1.69383C22.2502 1.17257 21.8277 0.75 21.3064 0.75H2.69408ZM2.25024 1.69383C2.25024 1.44871 2.44896 1.25 2.69408 1.25H21.3064C21.5515 1.25 21.7502 1.44871 21.7502 1.69383V2.28848C21.7502 3.3631 21.4582 4.41752 20.9053 5.339C19.5349 7.62304 17.6233 9.53463 15.3392 10.9051L14.7337 11.2684C14.1814 11.5998 14.1814 12.4002 14.7337 12.7316L15.3392 13.0949C17.6233 14.4654 19.5349 16.377 20.9053 18.661C21.4582 19.5825 21.7502 20.6369 21.7502 21.7115V22.3062C21.7502 22.5513 21.5515 22.75 21.3064 22.75H2.69408C2.44896 22.75 2.25024 22.5513 2.25024 22.3062V21.7115C2.25024 20.6369 2.5423 19.5825 3.09519 18.661C4.46561 16.377 6.3772 14.4654 8.66125 13.0949L9.2668 12.7316C9.81911 12.4002 9.81911 11.5998 9.2668 11.2684L8.66125 10.9051C6.3772 9.53463 4.46561 7.62304 3.09519 5.339C2.5423 4.41752 2.25024 3.3631 2.25024 2.28848V1.69383Z" fill="black"/>
</svg>
