<svg width="24" height="26" viewBox="0 0 24 26" fill="none" xmlns="http://www.w3.org/2000/svg">
<path d="M8.5595 6.13216C7.94202 5.82343 7.19118 6.07371 6.88244 6.69118C6.57371 7.30865 6.82399 8.05949 7.44146 8.36823C10.3114 9.80322 13.6895 9.80322 16.5595 8.36823C17.177 8.05949 17.4272 7.30865 17.1185 6.69118C16.8098 6.07371 16.0589 5.82343 15.4415 6.13216C13.2753 7.21524 10.7256 7.21524 8.5595 6.13216Z" fill="black"/>
<path d="M7.64505 21.3218C7.05307 21.677 6.28524 21.485 5.93006 20.893C5.57487 20.3011 5.76683 19.5332 6.3588 19.1781C9.83226 17.094 14.1716 17.094 17.645 19.1781C18.237 19.5332 18.429 20.3011 18.0738 20.893C17.7186 21.485 16.9508 21.677 16.3588 21.3218C13.6771 19.7127 10.3268 19.7127 7.64505 21.3218Z" fill="black"/>
<path fill-rule="evenodd" clip-rule="evenodd" d="M2.69408 0.75C1.62053 0.75 0.750244 1.62028 0.750244 2.69383V3.28848C0.750244 4.63496 1.11619 5.95614 1.80895 7.11074C3.24332 9.50136 5.22037 11.5185 7.57801 13C5.22037 14.4815 3.24332 16.4986 1.80895 18.8893C1.11619 20.0439 0.750244 21.365 0.750244 22.7115V23.3062C0.750244 24.3797 1.62053 25.25 2.69408 25.25H21.3064C22.38 25.25 23.2502 24.3797 23.2502 23.3062V22.7115C23.2502 21.365 22.8843 20.0439 22.1915 18.8893C20.7572 16.4986 18.7801 14.4815 16.4225 13C18.7801 11.5185 20.7572 9.50136 22.1915 7.11074C22.8843 5.95614 23.2502 4.63496 23.2502 3.28848V2.69383C23.2502 1.62028 22.38 0.75 21.3064 0.75H2.69408ZM3.25024 3.28848V3.25H20.7502V3.28848C20.7502 4.18185 20.5074 5.05843 20.0478 5.8245C18.7618 7.96779 16.968 9.76159 14.8247 11.0476L14.2192 11.4109C13.0195 12.1307 13.0195 13.8693 14.2192 14.5891L14.8247 14.9524C16.968 16.2384 18.7618 18.0322 20.0478 20.1755C20.5074 20.9416 20.7502 21.8181 20.7502 22.7115V22.75H3.25024V22.7115C3.25024 21.8181 3.49304 20.9416 3.95268 20.1755C5.23866 18.0322 7.03245 16.2384 9.17575 14.9524L9.78129 14.5891C10.9809 13.8693 10.9809 12.1307 9.78129 11.4109L9.17575 11.0476C7.03245 9.76159 5.23866 7.96779 3.95268 5.8245C3.49304 5.05843 3.25024 4.18185 3.25024 3.28848Z" fill="black"/>
</svg>
