<svg width="24" height="24" viewBox="0 0 24 24" fill="none" xmlns="http://www.w3.org/2000/svg">
<path d="M7.25787 4.82192C7.02108 4.67984 6.71395 4.75663 6.57188 4.99342C6.4298 5.23021 6.50659 5.53734 6.74338 5.67941C9.97932 7.62098 14.0219 7.62098 17.2579 5.67941C17.4947 5.53734 17.5714 5.23021 17.4294 4.99342C17.2873 4.75663 16.9802 4.67984 16.7434 4.82192C13.8241 6.57347 10.1771 6.57347 7.25787 4.82192Z" fill="black"/>
<path d="M7.30922 19.6405C7.09359 19.813 6.77894 19.778 6.60643 19.5624C6.43393 19.3467 6.46889 19.0321 6.68452 18.8596C9.79031 16.375 14.2034 16.375 17.3092 18.8596C17.5248 19.0321 17.5598 19.3467 17.3873 19.5624C17.2148 19.778 16.9002 19.813 16.6845 19.6405C13.944 17.448 10.0498 17.448 7.30922 19.6405Z" fill="black"/>
<path fill-rule="evenodd" clip-rule="evenodd" d="M2.69408 0.5C2.03474 0.5 1.50024 1.0345 1.50024 1.69383V2.28848C1.50024 3.49903 1.82924 4.68683 2.45207 5.72487C3.88583 8.11447 5.88577 10.1144 8.27538 11.5482L8.88093 11.9115C8.94773 11.9516 8.94773 12.0484 8.88093 12.0885L8.27538 12.4518C5.88577 13.8856 3.88583 15.8855 2.45207 18.2751C1.82924 19.3132 1.50024 20.501 1.50024 21.7115V22.3062C1.50024 22.9655 2.03474 23.5 2.69408 23.5H21.3064C21.9657 23.5 22.5002 22.9655 22.5002 22.3062V21.7115C22.5002 20.501 22.1712 19.3132 21.5484 18.2751C20.1147 15.8855 18.1147 13.8856 15.7251 12.4518L15.1196 12.0885C15.0528 12.0484 15.0528 11.9516 15.1196 11.9115L15.7251 11.5482C18.1147 10.1144 20.1147 8.11447 21.5484 5.72487C22.1712 4.68683 22.5002 3.49903 22.5002 2.28848V1.69383C22.5002 1.0345 21.9657 0.5 21.3064 0.5H2.69408ZM2.50024 1.69383C2.50024 1.58678 2.58703 1.5 2.69408 1.5H21.3064C21.4135 1.5 21.5002 1.58678 21.5002 1.69383V2.28848C21.5002 3.31779 21.2205 4.32775 20.6909 5.21037C19.3416 7.45923 17.4595 9.34137 15.2106 10.6907L14.6051 11.054C13.8909 11.4825 13.8909 12.5175 14.6051 12.946L15.2106 13.3093C17.4595 14.6586 19.3416 16.5408 20.6909 18.7896C21.2205 19.6723 21.5002 20.6822 21.5002 21.7115V22.3062C21.5002 22.4132 21.4135 22.5 21.3064 22.5H2.69408C2.58703 22.5 2.50024 22.4132 2.50024 22.3062V21.7115C2.50024 20.6822 2.77999 19.6723 3.30956 18.7896C4.65888 16.5408 6.54102 14.6586 8.78987 13.3093L9.39542 12.946C10.1096 12.5175 10.1096 11.4825 9.39542 11.054L8.78987 10.6907C6.54102 9.34137 4.65888 7.45923 3.30956 5.21037C2.77999 4.32775 2.50024 3.31779 2.50024 2.28848V1.69383Z" fill="black"/>
</svg>
