<svg width="24" height="24" viewBox="0 0 24 24" fill="none" xmlns="http://www.w3.org/2000/svg">
<path d="M16.9209 7.52465C17.53 6.95043 17.0868 6 16.2497 6H7.7504C6.91329 6 6.47007 6.95043 7.07919 7.52465C7.83384 8.23604 8.66551 8.86691 9.56141 9.40445L10.167 9.76778C10.8245 10.1623 11.2255 10.7748 11.3699 11.4351C11.437 11.7423 11.6857 12 12 12C12.3144 12 12.563 11.7423 12.6302 11.4351C12.7745 10.7748 13.1755 10.1623 13.8331 9.76778L14.4387 9.40445C15.3346 8.86691 16.1662 8.23604 16.9209 7.52465Z" fill="black"/>
<path d="M7.33153 16.2431C7.50857 16.0839 7.73974 16 7.9778 16H16.0223C16.2603 16 16.4915 16.0839 16.6685 16.2431C17.7368 17.2034 18.6601 18.3208 19.4045 19.5614C19.4657 19.6634 19.5223 19.7677 19.5744 19.874C19.8471 20.4311 19.3718 21 18.7514 21H5.24865C4.6283 21 4.15293 20.4311 4.4257 19.874C4.47774 19.7677 4.5344 19.6634 4.59559 19.5614C5.33994 18.3208 6.26324 17.2034 7.33153 16.2431Z" fill="black"/>
<path fill-rule="evenodd" clip-rule="evenodd" d="M2.69408 0C1.7586 0 1.00024 0.758355 1.00024 1.69383V2.28848C1.00024 3.58965 1.35387 4.86637 2.02332 5.98211C3.49931 8.4421 5.55815 10.5009 8.01813 11.9769L8.05659 12L8.01813 12.0231C5.55815 13.4991 3.49931 15.5579 2.02332 18.0179C1.35387 19.1336 1.00024 20.4103 1.00024 21.7115V22.3062C1.00024 23.2416 1.7586 24 2.69408 24H21.3064C22.2419 24 23.0002 23.2416 23.0002 22.3062V21.7115C23.0002 20.4103 22.6466 19.1336 21.9772 18.0179C20.5012 15.5579 18.4423 13.4991 15.9824 12.0231L15.9439 12L15.9824 11.9769C18.4423 10.5009 20.5012 8.4421 21.9772 5.98211C22.6466 4.86637 23.0002 3.58965 23.0002 2.28848V1.69383C23.0002 0.758355 22.2419 0 21.3064 0H2.69408ZM3.00024 2.28848V2H21.0002V2.28848C21.0002 3.22716 20.7451 4.1482 20.2622 4.95312C18.9551 7.13161 17.1319 8.95485 14.9534 10.2619L14.3478 10.6253C13.31 11.248 13.31 12.752 14.3478 13.3747L14.9534 13.7381C17.1319 15.0452 18.9551 16.8684 20.2622 19.0469C20.7451 19.8518 21.0002 20.7728 21.0002 21.7115V22H3.00024V21.7115C3.00024 20.7728 3.25536 19.8518 3.73831 19.0469C5.0454 16.8684 6.86864 15.0452 9.04712 13.7381L9.65267 13.3747C10.6905 12.752 10.6905 11.248 9.65267 10.6253L9.04712 10.2619C6.86864 8.95485 5.0454 7.13161 3.73831 4.95312C3.25536 4.1482 3.00024 3.22716 3.00024 2.28848Z" fill="black"/>
</svg>
