<svg width="24" height="24" viewBox="0 0 24 24" fill="none" xmlns="http://www.w3.org/2000/svg">
<path d="M17.6449 7.5162C18.2247 6.92934 17.7745 6 16.9496 6H7.0505C6.22555 6 5.77535 6.92934 6.35512 7.5162C7.2339 8.40572 8.22389 9.18503 9.30416 9.83319L9.90971 10.1965C10.2669 10.4108 10.5304 10.7048 10.7002 11.0365C10.9518 11.5281 11.3785 12 11.9308 12H12.0692C12.6215 12 13.0483 11.5281 13.2999 11.0365C13.4697 10.7048 13.7332 10.4108 14.0904 10.1965L14.6959 9.83319C15.7762 9.18503 16.7662 8.40572 17.6449 7.5162Z" fill="black"/>
<path d="M6.57209 16.2686C6.75227 16.0935 6.99533 16 7.24657 16H16.7535C17.0047 16 17.2478 16.0935 17.428 16.2686C18.3543 17.1688 19.1637 18.1883 19.8332 19.3041C20.0525 19.6696 20.2198 20.0616 20.332 20.4687C20.4834 21.0183 20.019 21.5 19.449 21.5H4.55108C3.98106 21.5 3.51669 21.0183 3.66809 20.4687C3.78027 20.0616 3.94756 19.6696 4.16685 19.3041C4.83635 18.1883 5.6458 17.1688 6.57209 16.2686Z" fill="black"/>
<path fill-rule="evenodd" clip-rule="evenodd" d="M2.69408 0.5C2.03474 0.5 1.50024 1.0345 1.50024 1.69383V2.28848C1.50024 3.49903 1.82924 4.68683 2.45207 5.72487C3.88583 8.11447 5.88577 10.1144 8.27538 11.5482L8.88093 11.9115C8.94773 11.9516 8.94773 12.0484 8.88093 12.0885L8.27538 12.4518C5.88577 13.8856 3.88583 15.8855 2.45207 18.2751C1.82924 19.3132 1.50024 20.501 1.50024 21.7115V22.3062C1.50024 22.9655 2.03474 23.5 2.69408 23.5H21.3064C21.9657 23.5 22.5002 22.9655 22.5002 22.3062V21.7115C22.5002 20.501 22.1712 19.3132 21.5484 18.2751C20.1147 15.8855 18.1147 13.8856 15.7251 12.4518L15.1196 12.0885C15.0528 12.0484 15.0528 11.9516 15.1196 11.9115L15.7251 11.5482C18.1147 10.1144 20.1147 8.11447 21.5484 5.72487C22.1712 4.68683 22.5002 3.49903 22.5002 2.28848V1.69383C22.5002 1.0345 21.9657 0.5 21.3064 0.5H2.69408ZM2.50024 1.69383C2.50024 1.58678 2.58703 1.5 2.69408 1.5H21.3064C21.4135 1.5 21.5002 1.58678 21.5002 1.69383V2.28848C21.5002 3.31779 21.2205 4.32775 20.6909 5.21037C19.3416 7.45923 17.4595 9.34137 15.2106 10.6907L14.6051 11.054C13.8909 11.4825 13.8909 12.5175 14.6051 12.946L15.2106 13.3093C17.4595 14.6586 19.3416 16.5408 20.6909 18.7896C21.2205 19.6723 21.5002 20.6822 21.5002 21.7115V22.3062C21.5002 22.4132 21.4135 22.5 21.3064 22.5H2.69408C2.58703 22.5 2.50024 22.4132 2.50024 22.3062V21.7115C2.50024 20.6822 2.77999 19.6723 3.30956 18.7896C4.65888 16.5408 6.54102 14.6586 8.78987 13.3093L9.39542 12.946C10.1096 12.5175 10.1096 11.4825 9.39542 11.054L8.78987 10.6907C6.54102 9.34137 4.65888 7.45923 3.30956 5.21037C2.77999 4.32775 2.50024 3.31779 2.50024 2.28848V1.69383Z" fill="black"/>
</svg>
