<svg width="24" height="24" viewBox="0 0 24 24" fill="none" xmlns="http://www.w3.org/2000/svg">
<path d="M7.51488 4.39317C7.0413 4.10902 6.42703 4.26259 6.14289 4.73617C5.85874 5.20975 6.0123 5.82401 6.48588 6.10816C9.88017 8.14473 14.1206 8.14473 17.5149 6.10816C17.9885 5.82401 18.142 5.20975 17.8579 4.73617C17.5737 4.26259 16.9595 4.10902 16.4859 4.39317C13.725 6.04972 10.2758 6.04972 7.51488 4.39317Z" fill="black"/>
<path d="M7.62132 20.0309C7.19006 20.3759 6.56076 20.306 6.21576 19.8747C5.87075 19.4435 5.94067 18.8142 6.37193 18.4692C9.66032 15.8384 14.3329 15.8384 17.6213 18.4692C18.0526 18.8142 18.1225 19.4435 17.7775 19.8747C17.4325 20.306 16.8032 20.3759 16.3719 20.0309C13.814 17.9845 10.1793 17.9845 7.62132 20.0309Z" fill="black"/>
<path fill-rule="evenodd" clip-rule="evenodd" d="M2.69383 0C1.75835 0 1 0.758355 1 1.69383V2.28848C1 3.58965 1.35363 4.86637 2.02308 5.98211C3.49907 8.4421 5.5579 10.5009 8.01789 11.9769L8.05635 12L8.01789 12.0231C5.5579 13.4991 3.49907 15.5579 2.02308 18.0179C1.35363 19.1336 1 20.4103 1 21.7115V22.3062C1 23.2416 1.75835 24 2.69383 24H21.3062C22.2416 24 23 23.2416 23 22.3062V21.7115C23 20.4103 22.6464 19.1336 21.9769 18.0179C20.5009 15.5579 18.4421 13.4991 15.9821 12.0231L15.9437 12L15.9821 11.9769C18.4421 10.5009 20.5009 8.4421 21.9769 5.98211C22.6464 4.86637 23 3.58965 23 2.28848V1.69383C23 0.758355 22.2416 0 21.3062 0H2.69383ZM3 2.28848V2H21V2.28848C21 3.22716 20.7449 4.1482 20.2619 4.95312C18.9548 7.13161 17.1316 8.95485 14.9531 10.2619L14.3476 10.6253C13.3098 11.248 13.3098 12.752 14.3476 13.3747L14.9531 13.7381C17.1316 15.0452 18.9548 16.8684 20.2619 19.0469C20.7449 19.8518 21 20.7728 21 21.7115V22H3V21.7115C3 20.7728 3.25511 19.8518 3.73806 19.0469C5.04515 16.8684 6.86839 15.0452 9.04688 13.7381L9.65243 13.3747C10.6902 12.752 10.6902 11.248 9.65243 10.6253L9.04688 10.2619C6.86839 8.95485 5.04515 7.13161 3.73806 4.95312C3.25511 4.1482 3 3.22716 3 2.28848Z" fill="black"/>
</svg>
