<svg width="24" height="24" viewBox="0 0 24 24" fill="none" xmlns="http://www.w3.org/2000/svg">
<path d="M18.3454 7.50687C18.8985 6.90974 18.4426 6 17.6287 6H6.37087C5.55699 6 5.10111 6.90974 5.65413 7.50687C6.64536 8.57716 7.78659 9.50589 9.04667 10.2619L9.65222 10.6253C9.84914 10.7434 10.0087 10.8933 10.1309 11.0629C10.4538 11.511 10.8783 12 11.4306 12H12.569C13.1213 12 13.5458 11.511 13.8687 11.0629C13.9909 10.8933 14.1504 10.7434 14.3474 10.6253L14.9529 10.2619C16.213 9.50589 17.3542 8.57716 18.3454 7.50687Z" fill="black"/>
<path d="M5.8433 16.2925C6.02551 16.1027 6.27914 16 6.54227 16H17.4573C17.7204 16 17.9741 16.1027 18.1563 16.2925C18.9561 17.1258 19.663 18.0491 20.2617 19.0469C20.7447 19.8518 20.9998 20.7728 20.9998 21.7115C20.9998 21.8708 20.8706 22 20.7113 22H3.28827C3.12894 22 2.99979 21.8708 2.99979 21.7115C2.99979 20.7728 3.2549 19.8518 3.73785 19.0469C4.33654 18.0491 5.04351 17.1258 5.8433 16.2925Z" fill="black"/>
<path fill-rule="evenodd" clip-rule="evenodd" d="M2.69383 0.75C2.17257 0.75 1.75 1.17257 1.75 1.69383V2.28848C1.75 3.45372 2.06669 4.59706 2.6662 5.59624C4.07885 7.95066 6.04934 9.92115 8.40376 11.3338L9.00931 11.6971C9.23795 11.8343 9.23795 12.1657 9.00931 12.3029L8.40376 12.6662C6.04934 14.0788 4.07885 16.0493 2.6662 18.4038C2.06669 19.4029 1.75 20.5463 1.75 21.7115V22.3062C1.75 22.8274 2.17257 23.25 2.69383 23.25H21.3062C21.8274 23.25 22.25 22.8274 22.25 22.3062V21.7115C22.25 20.5463 21.9333 19.4029 21.3338 18.4038C19.9212 16.0493 17.9507 14.0788 15.5962 12.6662L14.9907 12.3029C14.7621 12.1657 14.7621 11.8343 14.9907 11.6971L15.5962 11.3338C17.9507 9.92115 19.9212 7.95066 21.3338 5.59624C21.9333 4.59706 22.25 3.45372 22.25 2.28848V1.69383C22.25 1.17257 21.8274 0.75 21.3062 0.75H2.69383ZM2.25 1.69383C2.25 1.44871 2.44871 1.25 2.69383 1.25H21.3062C21.5513 1.25 21.75 1.44871 21.75 1.69383V2.28848C21.75 3.3631 21.4579 4.41752 20.9051 5.339C19.5346 7.62304 17.623 9.53463 15.339 10.9051L14.7334 11.2684C14.1811 11.5998 14.1811 12.4002 14.7334 12.7316L15.339 13.0949C17.623 14.4654 19.5346 16.377 20.9051 18.661C21.4579 19.5825 21.75 20.6369 21.75 21.7115V22.3062C21.75 22.5513 21.5513 22.75 21.3062 22.75H2.69383C2.44871 22.75 2.25 22.5513 2.25 22.3062V21.7115C2.25 20.6369 2.54206 19.5825 3.09494 18.661C4.46537 16.377 6.37696 14.4654 8.66101 13.0949L9.26655 12.7316C9.81887 12.4002 9.81887 11.5998 9.26655 11.2684L8.66101 10.9051C6.37696 9.53463 4.46537 7.62304 3.09494 5.339C2.54206 4.41752 2.25 3.3631 2.25 2.28848V1.69383Z" fill="black"/>
</svg>
