<svg width="24" height="26" viewBox="0 0 24 26" fill="none" xmlns="http://www.w3.org/2000/svg">
<path d="M16.1684 8.53164C16.8098 7.97312 16.3753 7 15.5247 7H8.47487C7.62432 7 7.18973 7.97312 7.83119 8.53164C8.44781 9.06854 9.11246 9.55213 9.81841 9.9757L10.424 10.339C11.4059 10.9282 11.9078 11.9249 11.9298 12.9308C11.9307 12.969 11.9616 13 11.9998 13C12.038 13 12.0689 12.969 12.0698 12.9308C12.0918 11.9249 12.5937 10.9282 13.5756 10.339L14.1812 9.9757C14.8871 9.55213 15.5518 9.06854 16.1684 8.53164Z" fill="black"/>
<path d="M8.74321 17C8.51991 17 8.30223 17.0738 8.12978 17.2156C6.9002 18.2272 5.84847 19.4447 5.02409 20.8186C4.83448 21.1346 5.09016 21.5 5.4587 21.5H18.5409C18.9094 21.5 19.1651 21.1346 18.9755 20.8186C18.1511 19.4447 17.0994 18.2272 15.8698 17.2156C15.6974 17.0738 15.4797 17 15.2564 17H8.74321Z" fill="black"/>
<path fill-rule="evenodd" clip-rule="evenodd" d="M2.69383 0.875C1.68932 0.875 0.875 1.68932 0.875 2.69383V3.28848C0.875 4.61231 1.23479 5.91125 1.91589 7.04643C3.37461 9.47762 5.39856 11.5198 7.81485 13C5.39856 14.4802 3.37461 16.5224 1.91589 18.9536C1.23479 20.0887 0.875 21.3877 0.875 22.7115V23.3062C0.875 24.3107 1.68932 25.125 2.69383 25.125H21.3062C22.3107 25.125 23.125 24.3107 23.125 23.3062V22.7115C23.125 21.3877 22.7652 20.0887 22.0841 18.9536C20.6254 16.5224 18.6014 14.4802 16.1852 13C18.6014 11.5198 20.6254 9.47762 22.0841 7.04643C22.7652 5.91125 23.125 4.61231 23.125 3.28848V2.69383C23.125 1.68932 22.3107 0.875 21.3062 0.875H2.69383ZM3.125 3.28848V3.125H20.875V3.28848C20.875 4.20451 20.626 5.10332 20.1547 5.88881C18.8582 8.0497 17.0497 9.85822 14.8888 11.1547L14.2833 11.5181C13.1645 12.1893 13.1645 13.8107 14.2833 14.4819L14.8888 14.8453C17.0497 16.1418 18.8582 17.9503 20.1547 20.1112C20.626 20.8967 20.875 21.7955 20.875 22.7115V22.875H3.125V22.7115C3.125 21.7955 3.37396 20.8967 3.84525 20.1112C5.14178 17.9503 6.9503 16.1418 9.11119 14.8453L9.71674 14.4819C10.8355 13.8107 10.8355 12.1893 9.71674 11.5181L9.11119 11.1547C6.9503 9.85822 5.14178 8.0497 3.84525 5.88881C3.37396 5.10332 3.125 4.20451 3.125 3.28848Z" fill="black"/>
</svg>
