<svg width="24" height="24" viewBox="0 0 24 24" fill="none" xmlns="http://www.w3.org/2000/svg">
<path d="M7.51512 4.39317C7.04154 4.10902 6.42728 4.26259 6.14313 4.73617C5.85898 5.20975 6.01255 5.82401 6.48613 6.10816C9.88041 8.14473 14.1208 8.14473 17.5151 6.10816C17.9887 5.82401 18.1423 5.20975 17.8581 4.73617C17.574 4.26259 16.9597 4.10902 16.4861 4.39317C13.7252 6.04972 10.276 6.04972 7.51512 4.39317Z" fill="black"/>
<path d="M7.62156 20.0309C7.1903 20.3759 6.56101 20.306 6.216 19.8747C5.87099 19.4435 5.94091 18.8142 6.37217 18.4692C9.66057 15.8384 14.3332 15.8384 17.6216 18.4692C18.0528 18.8142 18.1227 19.4435 17.7777 19.8747C17.4327 20.306 16.8034 20.3759 16.3722 20.0309C13.8142 17.9845 10.1795 17.9845 7.62156 20.0309Z" fill="black"/>
<path fill-rule="evenodd" clip-rule="evenodd" d="M2.69408 0C1.7586 0 1.00024 0.758355 1.00024 1.69383V2.28848C1.00024 3.58965 1.35387 4.86637 2.02332 5.98211C3.49931 8.4421 5.55815 10.5009 8.01813 11.9769L8.05659 12L8.01813 12.0231C5.55815 13.4991 3.49931 15.5579 2.02332 18.0179C1.35387 19.1336 1.00024 20.4103 1.00024 21.7115V22.3062C1.00024 23.2416 1.7586 24 2.69408 24H21.3064C22.2419 24 23.0002 23.2416 23.0002 22.3062V21.7115C23.0002 20.4103 22.6466 19.1336 21.9772 18.0179C20.5012 15.5579 18.4423 13.4991 15.9824 12.0231L15.9439 12L15.9824 11.9769C18.4423 10.5009 20.5012 8.4421 21.9772 5.98211C22.6466 4.86637 23.0002 3.58965 23.0002 2.28848V1.69383C23.0002 0.758355 22.2419 0 21.3064 0H2.69408ZM3.00024 2.28848V2H21.0002V2.28848C21.0002 3.22716 20.7451 4.1482 20.2622 4.95312C18.9551 7.13161 17.1319 8.95485 14.9534 10.2619L14.3478 10.6253C13.31 11.248 13.31 12.752 14.3478 13.3747L14.9534 13.7381C17.1319 15.0452 18.9551 16.8684 20.2622 19.0469C20.7451 19.8518 21.0002 20.7728 21.0002 21.7115V22H3.00024V21.7115C3.00024 20.7728 3.25536 19.8518 3.73831 19.0469C5.0454 16.8684 6.86864 15.0452 9.04712 13.7381L9.65267 13.3747C10.6905 12.752 10.6905 11.248 9.65267 10.6253L9.04712 10.2619C6.86864 8.95485 5.0454 7.13161 3.73831 4.95312C3.25536 4.1482 3.00024 3.22716 3.00024 2.28848Z" fill="black"/>
</svg>
