<svg width="24" height="24" viewBox="0 0 24 24" fill="none" xmlns="http://www.w3.org/2000/svg">
<path d="M7.3865 4.60755C7.03131 4.39443 6.57062 4.50961 6.3575 4.86479C6.14439 5.21998 6.25957 5.68067 6.61475 5.89379C9.92986 7.88285 14.0714 7.88285 17.3865 5.89379C17.7417 5.68067 17.8569 5.21998 17.6437 4.86479C17.4306 4.50961 16.9699 4.39443 16.6148 4.60755C13.7747 6.3116 10.2266 6.3116 7.3865 4.60755Z" fill="black"/>
<path d="M7.46539 19.8357C7.14194 20.0944 6.66997 20.042 6.41122 19.7185C6.15246 19.3951 6.2049 18.9231 6.52835 18.6644C9.72544 16.1067 14.2683 16.1067 17.4654 18.6644C17.7888 18.9231 17.8413 19.3951 17.5825 19.7185C17.3238 20.042 16.8518 20.0944 16.5283 19.8357C13.8791 17.7163 10.1147 17.7163 7.46539 19.8357Z" fill="black"/>
<path fill-rule="evenodd" clip-rule="evenodd" d="M2.69408 0.25C1.89667 0.25 1.25024 0.896426 1.25024 1.69383V2.28848C1.25024 3.54434 1.59156 4.7766 2.2377 5.85349C3.69257 8.27828 5.72196 10.3077 8.14675 11.7625L8.54251 12L8.14675 12.2375C5.72196 13.6923 3.69257 15.7217 2.2377 18.1465C1.59156 19.2234 1.25024 20.4557 1.25024 21.7115V22.3062C1.25024 23.1036 1.89667 23.75 2.69408 23.75H21.3064C22.1038 23.75 22.7502 23.1036 22.7502 22.3062V21.7115C22.7502 20.4557 22.4089 19.2234 21.7628 18.1465C20.3079 15.7217 18.2785 13.6923 15.8537 12.2375L15.458 12L15.8537 11.7625C18.2785 10.3077 20.3079 8.27828 21.7628 5.85349C22.4089 4.7766 22.7502 3.54434 22.7502 2.28848V1.69383C22.7502 0.896426 22.1038 0.25 21.3064 0.25H2.69408ZM2.75024 2.28848V1.75H21.2502V2.28848C21.2502 3.27248 20.9828 4.23798 20.4766 5.08175C19.1484 7.29542 17.2957 9.14811 15.082 10.4763L14.4764 10.8396C13.6005 11.3652 13.6005 12.6348 14.4764 13.1604L15.082 13.5237C17.2957 14.8519 19.1484 16.7046 20.4766 18.9183C20.9828 19.762 21.2502 20.7275 21.2502 21.7115V22.25H2.75024V21.7115C2.75024 20.7275 3.01767 19.762 3.52394 18.9183C4.85214 16.7046 6.70483 14.8519 8.9185 13.5237L9.52405 13.1604C10.4 12.6348 10.4 11.3652 9.52405 10.8396L8.9185 10.4763C6.70483 9.14811 4.85214 7.29542 3.52394 5.08175C3.01767 4.23798 2.75024 3.27248 2.75024 2.28848Z" fill="black"/>
</svg>
