<svg width="24" height="24" viewBox="0 0 24 24" fill="none" xmlns="http://www.w3.org/2000/svg">
<path d="M11.9209 1.96294C11.9201 1.9632 11.917 1.96418 11.9085 1.96943C11.8974 1.9762 11.8759 1.99092 11.8394 2.02235C11.7569 2.09333 11.6554 2.19767 11.4736 2.38662C10.3495 3.55435 8.53267 5.56076 7.00167 7.79544C5.44664 10.0652 4.28857 12.427 4.28857 14.3356C4.28857 18.5945 7.74115 22.0471 12.0001 22.0471C14.5031 22.0471 16.7276 20.8546 18.1364 19.0068C18.5587 19.3094 19.0182 19.5372 19.4964 19.6901C17.8254 22.0253 15.0905 23.5471 12.0001 23.5471C6.91272 23.5471 2.78857 19.423 2.78857 14.3356C2.78857 11.9359 4.19057 9.2446 5.76423 6.94765C7.36192 4.61563 9.24236 2.54164 10.3929 1.34638L10.4596 1.27672C10.7334 0.990279 11.0316 0.67826 11.4466 0.539897C11.7937 0.424201 12.2065 0.424201 12.5536 0.539897C12.9686 0.67826 13.2668 0.990279 13.5406 1.27672L13.6074 1.34638C14.7579 2.54164 16.6383 4.61563 18.236 6.94766C18.6591 7.56526 19.0698 8.21137 19.4442 8.87266C18.8138 8.61385 18.1405 8.49137 17.4695 8.50522C17.3174 8.26804 17.1601 8.03124 16.9986 7.79544C15.4676 5.56076 13.6507 3.55436 12.5267 2.38662C12.3448 2.19767 12.2433 2.09333 12.1608 2.02235C12.1243 1.99092 12.1028 1.9762 12.0918 1.96943C12.0832 1.96418 12.0801 1.9632 12.0793 1.96294C12.0402 1.9499 11.96 1.9499 11.9209 1.96294Z" fill="black"/>
<path d="M21.1934 14.9206C21.1881 15.0052 21.1816 15.0896 21.174 15.1737L20.9469 14.9465C20.951 14.9423 20.9605 14.9351 20.9731 14.93C20.9841 14.9256 20.9932 14.9243 21.0003 14.9243C21.0074 14.9243 21.0166 14.9256 21.0275 14.93C21.04 14.9351 21.0495 14.9422 21.0537 14.9463L21.0314 14.9242C21.0854 14.9239 21.1394 14.9227 21.1934 14.9206Z" fill="black"/>
<path d="M11.8982 17.2448C13.1379 18.4845 15.1478 18.4845 16.3875 17.2448C17.0414 16.5909 18.1015 16.5909 18.7554 17.2448C19.9951 18.4845 22.0049 18.4845 23.2446 17.2448C23.5375 16.9519 23.5375 16.477 23.2446 16.1841C22.9517 15.8912 22.4768 15.8912 22.184 16.1841C21.5301 16.838 20.4699 16.838 19.816 16.1841C18.5764 14.9445 16.5665 14.9445 15.3268 16.1841C14.6729 16.838 13.6128 16.838 12.9589 16.1841C11.7192 14.9445 9.70934 14.9445 8.46967 16.1841C8.17678 16.477 8.17678 16.9519 8.46967 17.2448C8.76256 17.5377 9.23744 17.5377 9.53033 17.2448C10.1842 16.5909 11.2444 16.5909 11.8982 17.2448Z" fill="black"/>
<path d="M11.8982 12.245C13.1379 13.4846 15.1478 13.4846 16.3875 12.245C17.0414 11.5911 18.1015 11.5911 18.7554 12.245C19.9951 13.4846 22.0049 13.4846 23.2446 12.245C23.5375 11.9521 23.5375 11.4772 23.2446 11.1843C22.9517 10.8914 22.4768 10.8914 22.184 11.1843C21.5301 11.8382 20.4699 11.8382 19.816 11.1843C18.5764 9.94465 16.5665 9.94465 15.3268 11.1843C14.6729 11.8382 13.6128 11.8382 12.9589 11.1843C11.7192 9.94465 9.70934 9.94465 8.46967 11.1843C8.17678 11.4772 8.17678 11.9521 8.46967 12.245C8.76256 12.5379 9.23744 12.5379 9.53033 12.245C10.1842 11.5911 11.2444 11.5911 11.8982 12.245Z" fill="black"/>
</svg>
