<svg width="24" height="24" viewBox="0 0 24 24" fill="none" xmlns="http://www.w3.org/2000/svg">
<path d="M11.9204 1.96294C11.9196 1.9632 11.9165 1.96418 11.908 1.96943C11.8969 1.9762 11.8755 1.99092 11.8389 2.02235C11.7564 2.09333 11.6549 2.19767 11.4731 2.38662C10.3491 3.55435 8.53218 5.56076 7.00118 7.79544C5.44615 10.0652 4.28809 12.427 4.28809 14.3356C4.28809 18.5945 7.74066 22.0471 11.9996 22.0471C14.5026 22.0471 16.7271 20.8546 18.1359 19.0068C18.5583 19.3094 19.0177 19.5372 19.4959 19.6901C17.825 22.0253 15.09 23.5471 11.9996 23.5471C6.91223 23.5471 2.78809 19.423 2.78809 14.3356C2.78809 11.9359 4.19008 9.2446 5.76374 6.94765C7.36143 4.61563 9.24187 2.54164 10.3924 1.34638L10.4591 1.27672C10.7329 0.990279 11.0311 0.67826 11.4462 0.539897C11.7932 0.424201 12.206 0.424201 12.5531 0.539897C12.9681 0.67826 13.2664 0.990279 13.5401 1.27672L13.6069 1.34638C14.7574 2.54164 16.6378 4.61563 18.2355 6.94766C18.6586 7.56526 19.0694 8.21137 19.4437 8.87266C18.8133 8.61385 18.14 8.49137 17.469 8.50522C17.3169 8.26804 17.1596 8.03124 16.9981 7.79544C15.4671 5.56076 13.6502 3.55436 12.5262 2.38662C12.3443 2.19767 12.2428 2.09333 12.1603 2.02235C12.1238 1.99092 12.1023 1.9762 12.0913 1.96943C12.0827 1.96418 12.0796 1.9632 12.0788 1.96294C12.0397 1.9499 11.9595 1.9499 11.9204 1.96294Z" fill="black"/>
<path d="M21.1929 14.9206C21.1876 15.0052 21.1811 15.0896 21.1736 15.1737L20.9464 14.9465C20.9505 14.9423 20.9601 14.9351 20.9727 14.93C20.9836 14.9256 20.9927 14.9243 20.9999 14.9243C21.007 14.9243 21.0161 14.9256 21.027 14.93C21.0395 14.9351 21.049 14.9422 21.0532 14.9463L21.0309 14.9242C21.0849 14.9239 21.1389 14.9227 21.1929 14.9206Z" fill="black"/>
<path d="M11.8978 17.2448C13.1374 18.4845 15.1473 18.4845 16.387 17.2448C17.0409 16.5909 18.101 16.5909 18.7549 17.2448C19.9946 18.4845 22.0045 18.4845 23.2441 17.2448C23.537 16.9519 23.537 16.477 23.2441 16.1841C22.9512 15.8912 22.4764 15.8912 22.1835 16.1841C21.5296 16.838 20.4694 16.838 19.8156 16.1841C18.5759 14.9445 16.566 14.9445 15.3263 16.1841C14.6724 16.838 13.6123 16.838 12.9584 16.1841C11.7187 14.9445 9.70885 14.9445 8.46918 16.1841C8.17629 16.477 8.17629 16.9519 8.46918 17.2448C8.76207 17.5377 9.23695 17.5377 9.52984 17.2448C10.1837 16.5909 11.2439 16.5909 11.8978 17.2448Z" fill="black"/>
<path d="M11.8978 12.245C13.1374 13.4846 15.1473 13.4846 16.387 12.245C17.0409 11.5911 18.101 11.5911 18.7549 12.245C19.9946 13.4846 22.0045 13.4846 23.2441 12.245C23.537 11.9521 23.537 11.4772 23.2441 11.1843C22.9512 10.8914 22.4764 10.8914 22.1835 11.1843C21.5296 11.8382 20.4694 11.8382 19.8156 11.1843C18.5759 9.94465 16.566 9.94465 15.3263 11.1843C14.6724 11.8382 13.6123 11.8382 12.9584 11.1843C11.7187 9.94465 9.70885 9.94465 8.46918 11.1843C8.17629 11.4772 8.17629 11.9521 8.46918 12.245C8.76207 12.5379 9.23695 12.5379 9.52984 12.245C10.1837 11.5911 11.2439 11.5911 11.8978 12.245Z" fill="black"/>
</svg>
