<svg width="24" height="24" viewBox="0 0 24 24" fill="none" xmlns="http://www.w3.org/2000/svg">
<path d="M14.266 10.1232C15.4344 8.95485 17.0675 8.5343 18.5704 8.86159C16.8744 5.99868 14.4466 3.3003 13.0665 1.8665C12.7218 1.50833 12.5494 1.32925 12.3159 1.2514C12.1228 1.18703 11.8764 1.18703 11.6834 1.2514C11.4499 1.32925 11.2775 1.50833 10.9327 1.8665C8.65821 4.2295 3.53809 10.0273 3.53809 14.3356C3.53809 19.0087 7.32645 22.7971 11.9996 22.7971C14.8656 22.7971 17.3988 21.3722 18.9295 19.1922C18.4837 18.972 18.0657 18.6763 17.6946 18.3052C17.6265 18.2371 17.5161 18.2371 17.448 18.3052C15.6225 20.1307 12.6629 20.1307 10.8374 18.3052C10.7693 18.2371 10.6589 18.2371 10.5908 18.3052C9.71216 19.1839 8.28754 19.1839 7.40886 18.3052C6.53018 17.4265 6.53018 16.0019 7.40886 15.1232C8.50488 14.0272 10.0098 13.5893 11.4326 13.8094C11.2239 13.6605 11.0247 13.4925 10.8374 13.3052C10.7693 13.2371 10.6589 13.2371 10.5908 13.3052C9.71216 14.1839 8.28754 14.1839 7.40886 13.3052C6.53018 12.4265 6.53018 11.0019 7.40886 10.1232C9.23431 8.2978 12.194 8.2978 14.0194 10.1232C14.0875 10.1913 14.1979 10.1913 14.266 10.1232Z" fill="black"/>
<path d="M20.2814 14.6191C20.3394 14.6281 20.3975 14.6359 20.4557 14.6427C20.4545 14.6773 20.453 14.7118 20.4514 14.7463C20.3955 14.7024 20.3388 14.66 20.2814 14.6191Z" fill="black"/>
<path d="M18.2897 13.8094C18.081 13.6605 17.8818 13.4925 17.6946 13.3052C17.6265 13.2371 17.5161 13.2371 17.448 13.3052C17.2607 13.4925 17.0615 13.6605 16.8528 13.8094C17.3287 13.7358 17.8138 13.7358 18.2897 13.8094Z" fill="black"/>
<path d="M14.8611 14.6191C14.3853 14.6927 13.9002 14.6927 13.4243 14.6191C13.633 14.7679 13.8322 14.936 14.0194 15.1232C14.0875 15.1913 14.1979 15.1913 14.266 15.1232C14.4533 14.936 14.6525 14.7679 14.8611 14.6191Z" fill="black"/>
<path d="M11.721 17.4216C13.0583 18.7589 15.2265 18.7589 16.5638 17.4216C17.12 16.8653 18.0219 16.8653 18.5781 17.4216C19.9154 18.7589 22.0836 18.7589 23.4209 17.4216C23.8114 17.031 23.8114 16.3979 23.4209 16.0074C23.0304 15.6168 22.3972 15.6168 22.0067 16.0074C21.4504 16.5636 20.5486 16.5636 19.9923 16.0074C18.655 14.6701 16.4868 14.6701 15.1495 16.0074C14.5933 16.5636 13.6914 16.5636 13.1352 16.0074C11.7979 14.6701 9.6297 14.6701 8.29241 16.0074C7.90188 16.3979 7.90188 17.031 8.29241 17.4216C8.68293 17.8121 9.31609 17.8121 9.70662 17.4216C10.2629 16.8653 11.1647 16.8653 11.721 17.4216Z" fill="black"/>
<path d="M11.721 12.4216C13.0583 13.7589 15.2265 13.7589 16.5638 12.4216C17.12 11.8653 18.0219 11.8653 18.5781 12.4216C19.9154 13.7589 22.0836 13.7589 23.4209 12.4216C23.8114 12.031 23.8114 11.3979 23.4209 11.0074C23.0304 10.6168 22.3972 10.6168 22.0067 11.0074C21.4504 11.5636 20.5486 11.5636 19.9923 11.0074C18.655 9.67006 16.4868 9.67005 15.1495 11.0074C14.5933 11.5636 13.6914 11.5636 13.1352 11.0074C11.7979 9.67005 9.6297 9.67005 8.29241 11.0074C7.90188 11.3979 7.90188 12.031 8.29241 12.4216C8.68293 12.8121 9.31609 12.8121 9.70662 12.4216C10.2629 11.8653 11.1647 11.8653 11.721 12.4216Z" fill="black"/>
</svg>
