<svg width="24" height="24" viewBox="0 0 24 24" fill="none" xmlns="http://www.w3.org/2000/svg">
<path d="M11.7629 1.48857C11.6012 1.54247 11.4755 1.66361 11.1133 2.03987C9.98048 3.21678 8.14242 5.24571 6.58919 7.51284C5.02795 9.79167 3.78857 12.2633 3.78857 14.3356C3.78857 18.8707 7.465 22.5471 12.0001 22.5471C15.0394 22.5471 17.693 20.896 19.1128 18.4418C19.2606 18.5229 19.4125 18.5938 19.5674 18.6544C18.0665 21.2786 15.2398 23.0471 12.0001 23.0471C7.18886 23.0471 3.28857 19.1468 3.28857 14.3356C3.28857 12.0996 4.60926 9.51813 6.17671 7.23025C7.75217 4.93067 9.61142 2.87921 10.7531 1.69313L10.7928 1.65183C11.0985 1.33384 11.312 1.11185 11.6048 1.01423C11.8492 0.932756 12.151 0.932756 12.3954 1.01423C12.6883 1.11185 12.9017 1.33384 13.2074 1.65183L13.2471 1.69313C14.3888 2.87921 16.2481 4.93067 17.8235 7.23025C18.4335 8.12065 19.0062 9.0555 19.4781 9.99716C19.2447 9.86733 19.0009 9.76314 18.7507 9.6846C18.3541 8.9539 17.8982 8.22399 17.411 7.51284C15.8578 5.24571 14.0197 3.21678 12.8869 2.03987C12.5247 1.66361 12.399 1.54247 12.2373 1.48857C12.0956 1.44131 11.9047 1.44131 11.7629 1.48857Z" fill="black"/>
<path d="M20.3467 15.6536C20.2782 15.5851 20.2078 15.5196 20.1357 15.4573C20.1858 15.0905 20.2117 14.7161 20.2117 14.3356C20.2117 14.1727 20.204 14.0075 20.1891 13.84C20.3568 13.8753 20.5263 13.8995 20.6965 13.9126C20.7065 14.0548 20.7117 14.1959 20.7117 14.3356C20.7117 14.8437 20.6682 15.3416 20.5847 15.8259C20.4989 15.7827 20.4184 15.7252 20.3467 15.6536Z" fill="black"/>
<path d="M12.2518 16.8912C13.2962 17.9356 14.9895 17.9356 16.0339 16.8912C16.8831 16.0421 18.2598 16.0421 19.1089 16.8912C20.1533 17.9356 21.8467 17.9356 22.8911 16.8912C22.9887 16.7936 22.9887 16.6353 22.8911 16.5377C22.7934 16.4401 22.6351 16.4401 22.5375 16.5377C21.6884 17.3868 20.3116 17.3868 19.4625 16.5377C18.4181 15.4933 16.7248 15.4933 15.6804 16.5377C14.8312 17.3868 13.4545 17.3868 12.6053 16.5377C11.5609 15.4933 9.86763 15.4933 8.82322 16.5377C8.72559 16.6353 8.72559 16.7936 8.82322 16.8912C8.92085 16.9889 9.07915 16.9889 9.17678 16.8912C10.0259 16.0421 11.4027 16.0421 12.2518 16.8912Z" fill="black"/>
<path d="M12.2518 11.8914C13.2962 12.9358 14.9895 12.9358 16.0339 11.8914C16.8831 11.0423 18.2598 11.0423 19.1089 11.8914C20.1533 12.9358 21.8467 12.9358 22.8911 11.8914C22.9887 11.7938 22.9887 11.6355 22.8911 11.5379C22.7934 11.4402 22.6351 11.4402 22.5375 11.5379C21.6884 12.387 20.3116 12.387 19.4625 11.5379C18.4181 10.4935 16.7248 10.4935 15.6804 11.5379C14.8312 12.387 13.4545 12.387 12.6053 11.5379C11.5609 10.4935 9.86763 10.4935 8.82322 11.5379C8.72559 11.6355 8.72559 11.7938 8.82322 11.8914C8.92085 11.9891 9.07915 11.9891 9.17678 11.8914C10.0259 11.0423 11.4027 11.0423 12.2518 11.8914Z" fill="black"/>
</svg>
