<svg width="24" height="24" viewBox="0 0 24 24" fill="none" xmlns="http://www.w3.org/2000/svg">
<path d="M20.4612 14.3356C20.4612 14.9807 20.389 15.6089 20.2522 16.2127C20.1599 16.1557 20.0727 16.0872 19.9927 16.0071C18.6554 14.6698 16.4872 14.6698 15.1499 16.0071C14.5936 16.5634 13.6918 16.5634 13.1355 16.0071C11.7982 14.6698 9.63004 14.6698 8.29274 16.0071C7.90222 16.3977 7.90222 17.0308 8.29274 17.4213C8.68327 17.8119 9.31643 17.8119 9.70696 17.4213C10.2632 16.8651 11.1651 16.8651 11.7213 17.4213C13.0586 18.7586 15.2268 18.7586 16.5641 17.4213C17.1203 16.8651 18.0222 16.8651 18.5785 17.4213C18.8751 17.718 19.2126 17.9488 19.5728 18.1138C18.1849 20.8904 15.3149 22.7971 11.9996 22.7971C7.32645 22.7971 3.53809 19.0087 3.53809 14.3356C3.53809 10.0273 8.65821 4.2295 10.9327 1.8665C11.2775 1.50833 11.4499 1.32925 11.6834 1.2514C11.8764 1.18703 12.1228 1.18703 12.3159 1.2514C12.5494 1.32925 12.7218 1.50833 13.0665 1.8665C14.7223 3.58666 17.886 7.12698 19.4848 10.5879C18.1529 9.68863 16.3286 9.82838 15.1499 11.0071C14.5936 11.5634 13.6918 11.5634 13.1355 11.0071C11.7982 9.66983 9.63004 9.66983 8.29274 11.0071C7.90222 11.3977 7.90222 12.0308 8.29274 12.4213C8.68327 12.8119 9.31643 12.8119 9.70696 12.4213C10.2632 11.8651 11.1651 11.8651 11.7213 12.4213C13.0586 13.7586 15.2268 13.7586 16.5641 12.4213C17.1203 11.8651 18.0222 11.8651 18.5785 12.4213C19.0893 12.9322 19.7214 13.2479 20.3821 13.3685C20.4338 13.6975 20.4612 14.0205 20.4612 14.3356Z" fill="black"/>
<path d="M12.2513 16.8912C13.2957 17.9356 14.989 17.9356 16.0334 16.8912C16.8826 16.0421 18.2593 16.0421 19.1084 16.8912C20.1529 17.9356 21.8462 17.9356 22.8906 16.8912C22.9882 16.7936 22.9882 16.6353 22.8906 16.5377C22.7929 16.4401 22.6347 16.4401 22.537 16.5377C21.6879 17.3868 20.3111 17.3868 19.462 16.5377C18.4176 15.4933 16.7243 15.4933 15.6799 16.5377C14.8307 17.3868 13.454 17.3868 12.6049 16.5377C11.5605 15.4933 9.86714 15.4933 8.82273 16.5377C8.7251 16.6353 8.7251 16.7936 8.82273 16.8912C8.92037 16.9889 9.07866 16.9889 9.17629 16.8912C10.0254 16.0421 11.4022 16.0421 12.2513 16.8912Z" fill="black"/>
<path d="M12.2513 11.8914C13.2957 12.9358 14.989 12.9358 16.0334 11.8914C16.8826 11.0423 18.2593 11.0423 19.1084 11.8914C20.1529 12.9358 21.8462 12.9358 22.8906 11.8914C22.9882 11.7938 22.9882 11.6355 22.8906 11.5379C22.7929 11.4402 22.6347 11.4402 22.537 11.5379C21.6879 12.387 20.3111 12.387 19.462 11.5379C18.4176 10.4935 16.7243 10.4935 15.6799 11.5379C14.8307 12.387 13.454 12.387 12.6049 11.5379C11.5605 10.4935 9.86714 10.4935 8.82274 11.5379C8.7251 11.6355 8.7251 11.7938 8.82274 11.8914C8.92037 11.9891 9.07866 11.9891 9.17629 11.8914C10.0254 11.0423 11.4022 11.0423 12.2513 11.8914Z" fill="black"/>
</svg>
