<svg width="24" height="24" viewBox="0 0 24 24" fill="none" xmlns="http://www.w3.org/2000/svg">
<path d="M14.4433 10.3C15.6086 9.13465 17.2624 8.7553 18.7457 9.16195C17.0457 6.18861 14.4953 3.35035 13.067 1.8665C12.7223 1.50833 12.5499 1.32925 12.3164 1.2514C12.1233 1.18703 11.8769 1.18703 11.6838 1.2514C11.4503 1.32925 11.278 1.50833 10.9332 1.8665C8.65869 4.2295 3.53857 10.0273 3.53857 14.3356C3.53857 19.0087 7.32693 22.7971 12.0001 22.7971C14.9567 22.7971 17.5591 21.2807 19.072 18.9833C18.6383 18.7733 18.2318 18.4884 17.8718 18.1285C17.7061 17.9627 17.4374 17.9627 17.2717 18.1285C15.5439 19.8563 12.7425 19.8563 11.0147 18.1285C10.849 17.9627 10.5803 17.9627 10.4146 18.1285C9.6335 18.9095 8.36717 18.9095 7.58612 18.1285C6.80508 17.3474 6.80508 16.0811 7.58612 15.3C9.31395 13.5722 12.1153 13.5722 13.8431 15.3C14.0088 15.4657 14.2775 15.4658 14.4433 15.3C16.0842 13.6591 18.6934 13.5766 20.4317 15.0525C20.45 14.8344 20.46 14.614 20.4615 14.3916C19.5149 14.2761 18.5984 13.855 17.8718 13.1285C17.7061 12.9627 17.4374 12.9627 17.2717 13.1285C15.5439 14.8563 12.7425 14.8563 11.0147 13.1285C10.849 12.9627 10.5803 12.9627 10.4146 13.1285C9.6335 13.9095 8.36717 13.9095 7.58612 13.1285C6.80508 12.3474 6.80508 11.0811 7.58612 10.3C9.31395 8.5722 12.1153 8.5722 13.8431 10.3C14.0088 10.4657 14.2775 10.4658 14.4433 10.3Z" fill="black"/>
<path d="M11.8982 17.2448C13.1379 18.4845 15.1478 18.4845 16.3875 17.2448C17.0414 16.5909 18.1015 16.5909 18.7554 17.2448C19.9951 18.4845 22.0049 18.4845 23.2446 17.2448C23.5375 16.9519 23.5375 16.477 23.2446 16.1841C22.9517 15.8912 22.4768 15.8912 22.184 16.1841C21.5301 16.838 20.4699 16.838 19.816 16.1841C18.5764 14.9445 16.5665 14.9445 15.3268 16.1841C14.6729 16.838 13.6128 16.838 12.9589 16.1841C11.7192 14.9445 9.70934 14.9445 8.46967 16.1841C8.17678 16.477 8.17678 16.9519 8.46967 17.2448C8.76256 17.5377 9.23744 17.5377 9.53033 17.2448C10.1842 16.5909 11.2444 16.5909 11.8982 17.2448Z" fill="black"/>
<path d="M11.8982 12.245C13.1379 13.4846 15.1478 13.4846 16.3875 12.245C17.0414 11.5911 18.1015 11.5911 18.7554 12.245C19.9951 13.4846 22.0049 13.4846 23.2446 12.245C23.5375 11.9521 23.5375 11.4772 23.2446 11.1843C22.9517 10.8914 22.4768 10.8914 22.184 11.1843C21.5301 11.8382 20.4699 11.8382 19.816 11.1843C18.5764 9.94465 16.5665 9.94465 15.3268 11.1843C14.6729 11.8382 13.6128 11.8382 12.9589 11.1843C11.7192 9.94465 9.70934 9.94465 8.46967 11.1843C8.17678 11.4772 8.17678 11.9521 8.46967 12.245C8.76256 12.5379 9.23744 12.5379 9.53033 12.245C10.1842 11.5911 11.2444 11.5911 11.8982 12.245Z" fill="black"/>
</svg>
