<svg width="24" height="26" viewBox="0 0 24 26" fill="none" xmlns="http://www.w3.org/2000/svg">
<path d="M12.0001 3.56152C11.953 3.6096 11.8993 3.66527 11.8338 3.73336C10.7186 4.89193 8.92292 6.8758 7.41415 9.07803C5.86533 11.3387 4.78857 13.5907 4.78857 15.3356C4.78857 19.3184 8.01729 22.5471 12.0001 22.5471C14.3447 22.5471 16.428 21.4282 17.7452 19.6952C18.4094 20.2814 19.1939 20.658 20.0126 20.8248C18.2624 23.3747 15.3266 25.0471 12.0001 25.0471C6.63658 25.0471 2.28857 20.6991 2.28857 15.3356C2.28857 12.7722 3.77188 9.97107 5.35175 7.66506C6.97167 5.30059 8.87329 3.20407 10.0326 1.99964C10.0553 1.9761 10.0791 1.951 10.1041 1.92468C10.3631 1.65158 10.748 1.24576 11.2885 1.06556C11.7382 0.915646 12.262 0.915646 12.7117 1.06556C13.2522 1.24576 13.6371 1.65158 13.8962 1.92468C13.9211 1.95101 13.9449 1.9761 13.9676 1.99964C15.1269 3.20407 17.0286 5.30059 18.6485 7.66506C19.2119 8.48743 19.763 9.37276 20.239 10.2878C19.2348 9.63956 18.0463 9.39349 16.9023 9.54961C16.7993 9.39257 16.6938 9.23532 16.5861 9.07803C15.0773 6.8758 13.2816 4.89193 12.1664 3.73336C12.1009 3.66528 12.0473 3.6096 12.0001 3.56152Z" fill="black"/>
<path d="M21.6969 15.8751C21.6831 16.1282 21.6595 16.3787 21.6266 16.6262L20.9469 15.9465C20.951 15.9423 20.9605 15.9351 20.9731 15.93C20.9841 15.9256 20.9932 15.9243 21.0003 15.9243C21.0074 15.9243 21.0166 15.9256 21.0275 15.93C21.04 15.9351 21.0495 15.9422 21.0537 15.9463L21.0314 15.9242C21.2539 15.9228 21.4763 15.9064 21.6969 15.8751Z" fill="black"/>
<path d="M11.5447 18.5983C12.9796 20.0333 15.3061 20.0333 16.741 18.5983C17.1996 18.1397 17.9432 18.1397 18.4018 18.5983C19.8368 20.0333 22.1632 20.0333 23.5982 18.5983C24.0863 18.1102 24.0863 17.3187 23.5982 16.8306C23.11 16.3424 22.3186 16.3424 21.8304 16.8306C21.3718 17.2892 20.6282 17.2892 20.1696 16.8306C18.7347 15.3956 16.4082 15.3956 14.9733 16.8306C14.5146 17.2892 13.7711 17.2892 13.3125 16.8306C11.8775 15.3956 9.55105 15.3956 8.11612 16.8306C7.62796 17.3187 7.62796 18.1102 8.11612 18.5983C8.60427 19.0865 9.39573 19.0865 9.88388 18.5983C10.3425 18.1397 11.0861 18.1397 11.5447 18.5983Z" fill="black"/>
<path d="M11.5447 13.5983C12.9796 15.0333 15.3061 15.0333 16.741 13.5983C17.1996 13.1397 17.9432 13.1397 18.4018 13.5983C19.8368 15.0333 22.1632 15.0333 23.5982 13.5983C24.0863 13.1102 24.0863 12.3187 23.5982 11.8306C23.11 11.3424 22.3186 11.3424 21.8304 11.8306C21.3718 12.2892 20.6282 12.2892 20.1696 11.8306C18.7347 10.3956 16.4082 10.3956 14.9733 11.8306C14.5146 12.2892 13.7711 12.2892 13.3125 11.8306C11.8775 10.3956 9.55105 10.3956 8.11612 11.8306C7.62796 12.3187 7.62796 13.1102 8.11612 13.5983C8.60427 14.0865 9.39573 14.0865 9.88388 13.5983C10.3425 13.1397 11.0861 13.1397 11.5447 13.5983Z" fill="black"/>
</svg>
