<svg width="24" height="24" viewBox="0 0 24 24" fill="none" xmlns="http://www.w3.org/2000/svg">
<path d="M20.4612 14.3356C20.4612 14.7877 20.4257 15.2316 20.3574 15.6646L20.3462 15.6536C18.8137 14.121 16.3289 14.121 14.7963 15.6536C14.4353 16.0146 13.8501 16.0146 13.4891 15.6536C11.9565 14.121 9.47175 14.121 7.93919 15.6536C7.3534 16.2394 7.3534 17.1891 7.93919 17.7749C8.52498 18.3607 9.47472 18.3607 10.0605 17.7749C10.4215 17.4139 11.0068 17.4139 11.3678 17.7749C12.9003 19.3075 15.3851 19.3075 16.9177 17.7749C17.2786 17.4139 17.8639 17.4139 18.2249 17.7749C18.5569 18.1069 18.9336 18.367 19.3356 18.5551C17.8742 21.0905 15.1362 22.7971 11.9996 22.7971C7.32645 22.7971 3.53809 19.0087 3.53809 14.3356C3.53809 10.0273 8.65821 4.2295 10.9327 1.8665C11.2775 1.50833 11.4499 1.32925 11.6834 1.2514C11.8764 1.18703 12.1228 1.18703 12.3159 1.2514C12.5494 1.32925 12.7218 1.50833 13.0665 1.8665C14.599 3.45858 17.4232 6.60984 19.1029 9.81424C17.6745 9.20952 15.9606 9.4893 14.7963 10.6536C14.4353 11.0146 13.8501 11.0146 13.4891 10.6536C11.9565 9.12102 9.47175 9.12102 7.93919 10.6536C7.3534 11.2394 7.3534 12.1891 7.93919 12.7749C8.52498 13.3607 9.47472 13.3607 10.0605 12.7749C10.4215 12.4139 11.0068 12.4139 11.3678 12.7749C12.9003 14.3075 15.3851 14.3075 16.9177 12.7749C17.2786 12.4139 17.8639 12.4139 18.2249 12.7749C18.8492 13.3992 19.6316 13.7692 20.4432 13.8849C20.4551 14.0367 20.4612 14.187 20.4612 14.3356Z" fill="black"/>
<path d="M12.0745 17.068C13.2166 18.2101 15.0682 18.21 16.2102 17.068C16.9617 16.3165 18.1802 16.3165 18.9317 17.068C20.0737 18.21 21.9253 18.21 23.0674 17.068C23.2626 16.8728 23.2626 16.5562 23.0674 16.3609C22.8721 16.1656 22.5555 16.1656 22.3602 16.3609C21.6087 17.1124 20.3903 17.1124 19.6388 16.3609C18.4967 15.2189 16.6451 15.2189 15.5031 16.3609C14.7516 17.1124 13.5331 17.1124 12.7816 16.3609C11.6396 15.2189 9.78799 15.2189 8.64596 16.3609C8.4507 16.5562 8.4507 16.8728 8.64596 17.068C8.84122 17.2633 9.1578 17.2633 9.35307 17.068C10.1046 16.3165 11.323 16.3165 12.0745 17.068Z" fill="black"/>
<path d="M12.0745 12.0682C13.2166 13.2102 15.0682 13.2102 16.2102 12.0682C16.9617 11.3167 18.1802 11.3167 18.9317 12.0682C20.0737 13.2102 21.9253 13.2102 23.0674 12.0682C23.2626 11.8729 23.2626 11.5564 23.0674 11.3611C22.8721 11.1658 22.5555 11.1658 22.3602 11.3611C21.6087 12.1126 20.3903 12.1126 19.6388 11.3611C18.4967 10.2191 16.6451 10.2191 15.5031 11.3611C14.7516 12.1126 13.5331 12.1126 12.7816 11.3611C11.6396 10.2191 9.78799 10.2191 8.64596 11.3611C8.4507 11.5564 8.4507 11.8729 8.64596 12.0682C8.84122 12.2635 9.1578 12.2635 9.35307 12.0682C10.1046 11.3167 11.323 11.3167 12.0745 12.0682Z" fill="black"/>
</svg>
