<svg width="24" height="24" viewBox="0 0 24 24" fill="none" xmlns="http://www.w3.org/2000/svg">
<path d="M11.9996 2.21389C11.9284 2.27548 11.8362 2.36985 11.6532 2.55999C10.5336 3.72314 8.7273 5.71828 7.20742 7.93673C5.6555 10.202 4.53809 12.5088 4.53809 14.3356C4.53809 18.4565 7.87873 21.7971 11.9996 21.7971C14.4212 21.7971 16.5733 20.6436 17.9364 18.856C18.4841 19.2922 19.1033 19.5949 19.7501 19.7639C18.0387 22.2028 15.2053 23.7971 11.9996 23.7971C6.77416 23.7971 2.53809 19.561 2.53809 14.3356C2.53809 11.854 3.98074 9.10784 5.5575 6.80636C7.1663 4.45811 9.05734 2.37286 10.2123 1.17301C10.2352 1.1492 10.2587 1.12452 10.2828 1.09918C10.5483 0.820385 10.8897 0.461889 11.3671 0.30273C11.7655 0.169923 12.2338 0.169923 12.6322 0.30273C13.1096 0.461889 13.451 0.820384 13.7164 1.09918C13.7406 1.12452 13.7641 1.1492 13.787 1.17301C14.9419 2.37286 16.8329 4.45811 18.4418 6.80636C18.9299 7.51884 19.4051 8.27393 19.8287 9.0506C19.0041 8.62512 18.0844 8.44811 17.1807 8.51957C17.0546 8.32521 16.9248 8.13082 16.7918 7.93673C15.2719 5.71828 13.4657 3.72314 12.3461 2.55999C12.1631 2.36985 12.0708 2.27548 11.9996 2.21389Z" fill="black"/>
<path d="M21.4444 14.9043C21.4344 15.0714 21.4202 15.2372 21.4017 15.4018L20.9464 14.9465C20.9505 14.9423 20.9601 14.9351 20.9727 14.93C20.9836 14.9256 20.9927 14.9243 20.9999 14.9243C21.007 14.9243 21.0161 14.9256 21.027 14.93C21.0395 14.9351 21.049 14.9422 21.0532 14.9463L21.0309 14.9242C21.1689 14.9234 21.3068 14.9167 21.4444 14.9043Z" fill="black"/>
<path d="M11.721 17.4216C13.0583 18.7589 15.2265 18.7589 16.5638 17.4216C17.12 16.8653 18.0219 16.8653 18.5781 17.4216C19.9154 18.7589 22.0836 18.7589 23.4209 17.4216C23.8114 17.031 23.8114 16.3979 23.4209 16.0074C23.0304 15.6168 22.3972 15.6168 22.0067 16.0074C21.4504 16.5636 20.5486 16.5636 19.9923 16.0074C18.655 14.6701 16.4868 14.6701 15.1495 16.0074C14.5933 16.5636 13.6914 16.5636 13.1352 16.0074C11.7979 14.6701 9.6297 14.6701 8.29241 16.0074C7.90188 16.3979 7.90188 17.031 8.29241 17.4216C8.68293 17.8121 9.31609 17.8121 9.70662 17.4216C10.2629 16.8653 11.1647 16.8653 11.721 17.4216Z" fill="black"/>
<path d="M11.721 12.4216C13.0583 13.7589 15.2265 13.7589 16.5638 12.4216C17.12 11.8653 18.0219 11.8653 18.5781 12.4216C19.9154 13.7589 22.0836 13.7589 23.4209 12.4216C23.8114 12.031 23.8114 11.3979 23.4209 11.0074C23.0304 10.6168 22.3972 10.6168 22.0067 11.0074C21.4504 11.5636 20.5486 11.5636 19.9923 11.0074C18.655 9.67005 16.4868 9.67005 15.1495 11.0074C14.5933 11.5636 13.6914 11.5636 13.1352 11.0074C11.7979 9.67005 9.6297 9.67005 8.29241 11.0074C7.90188 11.3979 7.90188 12.031 8.29241 12.4216C8.68293 12.8121 9.31609 12.8121 9.70662 12.4216C10.2629 11.8653 11.1647 11.8653 11.721 12.4216Z" fill="black"/>
</svg>
