<svg width="24" height="24" viewBox="0 0 24 24" fill="none" xmlns="http://www.w3.org/2000/svg">
<path d="M14.1427 9.89378C15.3104 8.76047 16.9009 8.32037 18.3969 8.57347C16.7124 5.81869 14.4002 3.2521 13.0665 1.8665C12.7218 1.50833 12.5494 1.32925 12.3159 1.2514C12.1228 1.18703 11.8764 1.18703 11.6834 1.2514C11.4499 1.32925 11.2775 1.50833 10.9327 1.8665C8.65821 4.2295 3.53809 10.0273 3.53809 14.3356C3.53809 19.0087 7.32645 22.7971 11.9996 22.7971C14.7747 22.7971 17.2377 21.4612 18.7807 19.3975C18.3466 19.1783 17.9381 18.8907 17.5713 18.5347C15.6621 20.3877 12.6228 20.3875 10.7137 18.5343C9.73392 19.458 8.19064 19.4406 7.23208 18.482C6.25577 17.5057 6.25577 15.9228 7.23208 14.9465C7.56449 14.6141 7.93259 14.3391 8.32405 14.1216C7.92415 14.0098 7.54663 13.7966 7.23208 13.482C6.25577 12.5057 6.25577 10.9228 7.23208 9.94647C9.13744 8.04111 12.2157 8.02355 14.1427 9.89378Z" fill="black"/>
<path d="M11.5442 17.5983C12.9791 19.0333 15.3056 19.0333 16.7405 17.5983C17.1992 17.1397 17.9427 17.1397 18.4013 17.5983C19.8363 19.0333 22.1628 19.0333 23.5977 17.5983C24.0858 17.1102 24.0858 16.3187 23.5977 15.8306C23.1095 15.3424 22.3181 15.3424 21.8299 15.8306C21.3713 16.2892 20.6277 16.2892 20.1691 15.8306C18.7342 14.3956 16.4077 14.3956 14.9728 15.8306C14.5142 16.2892 13.7706 16.2892 13.312 15.8306C11.877 14.3956 9.55056 14.3956 8.11563 15.8306C7.62747 16.3187 7.62747 17.1102 8.11563 17.5983C8.60378 18.0865 9.39524 18.0865 9.8834 17.5983C10.342 17.1397 11.0856 17.1397 11.5442 17.5983Z" fill="black"/>
<path d="M11.5442 12.5983C12.9791 14.0333 15.3056 14.0333 16.7405 12.5983C17.1992 12.1397 17.9427 12.1397 18.4013 12.5983C19.8363 14.0333 22.1628 14.0333 23.5977 12.5983C24.0858 12.1102 24.0858 11.3187 23.5977 10.8306C23.1095 10.3424 22.3181 10.3424 21.8299 10.8306C21.3713 11.2892 20.6277 11.2892 20.1691 10.8306C18.7342 9.39565 16.4077 9.39565 14.9728 10.8306C14.5142 11.2892 13.7706 11.2892 13.312 10.8306C11.877 9.39565 9.55056 9.39565 8.11563 10.8306C7.62747 11.3187 7.62747 12.1102 8.11563 12.5983C8.60378 13.0865 9.39524 13.0865 9.8834 12.5983C10.342 12.1397 11.0856 12.1397 11.5442 12.5983Z" fill="black"/>
</svg>
