<svg width="24" height="24" viewBox="0 0 24 24" fill="none" xmlns="http://www.w3.org/2000/svg">
<path d="M11.8415 1.72574C11.7516 1.75569 11.6725 1.8189 11.293 2.21325C10.1645 3.38557 8.33705 5.40323 6.79494 7.65414C5.23681 9.92843 4.03809 12.3451 4.03809 14.3356C4.03809 18.7326 7.60259 22.2971 11.9996 22.2971C14.9473 22.2971 17.5208 20.6952 18.8971 18.3144C19.1844 18.4971 19.4903 18.6387 19.8063 18.7393C18.2681 21.4603 15.3484 23.2971 11.9996 23.2971C7.0503 23.2971 3.03809 19.2849 3.03809 14.3356C3.03809 12.0177 4.39943 9.38137 5.96998 7.08895C7.55655 4.77315 9.4264 2.71043 10.5725 1.51976L10.6304 1.4594C10.9163 1.16136 11.1718 0.894897 11.5252 0.777065C11.8209 0.678478 12.1783 0.678478 12.474 0.777065C12.8275 0.894899 13.083 1.16136 13.3688 1.4594L13.4268 1.51976C14.5729 2.71043 16.4427 4.77315 18.0293 7.08895C18.7197 8.09675 19.3697 9.17101 19.8814 10.2555C19.4346 9.92934 18.9345 9.70939 18.4158 9.59561C18.0529 8.94563 17.6428 8.29424 17.2043 7.65414C15.6622 5.40324 13.8347 3.38557 12.7063 2.21325C12.3267 1.8189 12.2476 1.75569 12.1578 1.72574C12.0673 1.69559 11.9319 1.69559 11.8415 1.72574Z" fill="black"/>
<path d="M20.3462 15.6536C20.207 15.5144 20.0599 15.3878 19.9065 15.2739C19.9426 14.9661 19.9612 14.653 19.9612 14.3356C19.9612 14.1528 19.9511 13.9664 19.9315 13.7768C20.2633 13.8704 20.6051 13.9194 20.9473 13.924C20.9565 14.0622 20.9612 14.1994 20.9612 14.3356C20.9612 14.8718 20.9141 15.3971 20.8238 15.9075C20.6488 15.8737 20.4817 15.7891 20.3462 15.6536Z" fill="black"/>
<path d="M12.0745 17.068C13.2166 18.21 15.0682 18.21 16.2102 17.068C16.9617 16.3165 18.1802 16.3165 18.9317 17.068C20.0737 18.21 21.9253 18.21 23.0674 17.068C23.2626 16.8727 23.2626 16.5562 23.0674 16.3609C22.8721 16.1656 22.5555 16.1656 22.3602 16.3609C21.6087 17.1124 20.3903 17.1124 19.6388 16.3609C18.4967 15.2189 16.6451 15.2189 15.5031 16.3609C14.7516 17.1124 13.5331 17.1124 12.7816 16.3609C11.6396 15.2189 9.78799 15.2189 8.64596 16.3609C8.4507 16.5562 8.4507 16.8728 8.64596 17.068C8.84122 17.2633 9.1578 17.2633 9.35307 17.068C10.1046 16.3165 11.323 16.3165 12.0745 17.068Z" fill="black"/>
<path d="M12.0745 12.0682C13.2166 13.2102 15.0682 13.2102 16.2102 12.0682C16.9617 11.3167 18.1802 11.3167 18.9317 12.0682C20.0737 13.2102 21.9253 13.2102 23.0674 12.0682C23.2626 11.8729 23.2626 11.5564 23.0674 11.3611C22.8721 11.1658 22.5555 11.1658 22.3602 11.3611C21.6087 12.1126 20.3903 12.1126 19.6388 11.3611C18.4967 10.2191 16.6451 10.2191 15.5031 11.3611C14.7516 12.1126 13.5331 12.1126 12.7816 11.3611C11.6396 10.2191 9.78799 10.2191 8.64596 11.3611C8.4507 11.5564 8.4507 11.8729 8.64596 12.0682C8.84122 12.2635 9.1578 12.2635 9.35307 12.0682C10.1046 11.3167 11.323 11.3167 12.0745 12.0682Z" fill="black"/>
</svg>
