<svg width="24" height="24" viewBox="0 0 24 24" fill="none" xmlns="http://www.w3.org/2000/svg">
<path fill-rule="evenodd" clip-rule="evenodd" d="M6.18166 6.91002C6 7.26654 6 7.73325 6 8.66667V14.5002L7.69543 12.8047C8.48746 12.0127 8.88348 11.6167 9.34014 11.4683C9.74183 11.3378 10.1745 11.3378 10.5762 11.4683C11.0329 11.6167 11.4289 12.0127 12.2209 12.8047L17.1832 17.767C17.4541 17.6064 17.6747 17.3719 17.8183 17.09C18 16.7335 18 16.2668 18 15.3333V8.66667C18 7.73325 18 7.26654 17.8183 6.91002C17.6586 6.59641 17.4036 6.34145 17.09 6.18166C16.7335 6 16.2668 6 15.3333 6H8.66667C7.73325 6 7.26654 6 6.91002 6.18166C6.59641 6.34145 6.34145 6.59641 6.18166 6.91002ZM16.6665 9.08399C16.6665 10.0505 15.883 10.834 14.9165 10.834C13.95 10.834 13.1665 10.0505 13.1665 9.08399C13.1665 8.11749 13.95 7.33399 14.9165 7.33399C15.883 7.33399 16.6665 8.11749 16.6665 9.08399Z" fill="black"/>
<path fill-rule="evenodd" clip-rule="evenodd" d="M0.123117 8.43565C0 9.21298 0 10.142 0 12C0 13.858 0 14.787 0.123117 15.5643C0.800832 19.8433 4.15673 23.1992 8.43565 23.8769C9.21298 24 10.142 24 12 24C13.858 24 14.787 24 15.5643 23.8769C19.8433 23.1992 23.1992 19.8433 23.8769 15.5643C24 14.787 24 13.858 24 12C24 10.142 24 9.21298 23.8769 8.43565C23.1992 4.15673 19.8433 0.800832 15.5643 0.123117C14.787 0 13.858 0 12 0C10.142 0 9.21298 0 8.43565 0.123117C4.15673 0.800832 0.800832 4.15673 0.123117 8.43565ZM15.3704 5C15.8053 4.99998 16.1904 4.99996 16.5094 5.02603C16.8492 5.05379 17.2012 5.11602 17.544 5.29065C18.0457 5.54631 18.4537 5.95426 18.7094 6.45603C18.884 6.79875 18.9462 7.15081 18.974 7.49057C19 7.80964 19 8.19464 19 8.62965V15.3704C19 15.8054 19 16.1904 18.974 16.5094C18.9462 16.8492 18.884 17.2012 18.7094 17.544C18.4537 18.0457 18.0457 18.4537 17.544 18.7094C17.2012 18.884 16.8492 18.9462 16.5094 18.974C16.1904 19 15.8054 19 15.3704 19H8.62965C8.19464 19 7.80964 19 7.49057 18.974C7.15081 18.9462 6.79875 18.884 6.45603 18.7094C5.95426 18.4537 5.54631 18.0457 5.29065 17.544C5.11602 17.2012 5.05379 16.8492 5.02603 16.5094C4.99996 16.1904 4.99998 15.8054 5 15.3705V8.62963C4.99998 8.19466 4.99996 7.80961 5.02603 7.49057C5.05379 7.15081 5.11602 6.79875 5.29065 6.45603C5.54631 5.95426 5.95426 5.54631 6.45603 5.29065C6.79875 5.11602 7.15081 5.05379 7.49057 5.02603C7.80961 4.99996 8.19456 4.99998 8.62953 5H15.3704Z" fill="black"/>
</svg>
