<svg width="24" height="24" viewBox="0 0 24 24" fill="none" xmlns="http://www.w3.org/2000/svg">
<path fill-rule="evenodd" clip-rule="evenodd" d="M6.18166 6.91002C6 7.26654 6 7.73325 6 8.66667V14.5002L7.69543 12.8047C8.48746 12.0127 8.88348 11.6167 9.34014 11.4683C9.74182 11.3378 10.1745 11.3378 10.5762 11.4683C11.0329 11.6167 11.4289 12.0127 12.2209 12.8047L17.1832 17.767C17.4541 17.6064 17.6747 17.3719 17.8183 17.09C18 16.7335 18 16.2668 18 15.3333V8.66667C18 7.73325 18 7.26654 17.8183 6.91002C17.6586 6.59641 17.4036 6.34144 17.09 6.18166C16.7335 6 16.2668 6 15.3333 6H8.66667C7.73325 6 7.26654 6 6.91002 6.18166C6.59641 6.34144 6.34144 6.59641 6.18166 6.91002ZM16.6665 9.08398C16.6665 10.0505 15.883 10.834 14.9165 10.834C13.95 10.834 13.1665 10.0505 13.1665 9.08398C13.1665 8.11749 13.95 7.33398 14.9165 7.33398C15.883 7.33398 16.6665 8.11749 16.6665 9.08398Z" fill="black"/>
<path fill-rule="evenodd" clip-rule="evenodd" d="M0.123117 8.43565C0 9.21298 0 10.142 0 12C0 13.858 0 14.787 0.123117 15.5643C0.800832 19.8433 4.15673 23.1992 8.43565 23.8769C9.21298 24 10.142 24 12 24C13.858 24 14.787 24 15.5643 23.8769C19.8433 23.1992 23.1992 19.8433 23.8769 15.5643C24 14.787 24 13.858 24 12C24 10.142 24 9.21298 23.8769 8.43565C23.1992 4.15673 19.8433 0.800832 15.5643 0.123117C14.787 0 13.858 0 12 0C10.142 0 9.21298 0 8.43565 0.123117C4.15673 0.800832 0.800832 4.15673 0.123117 8.43565ZM8.61182 4.25H15.3882C15.8073 4.24994 16.2201 4.24989 16.5705 4.27852C16.9566 4.31007 17.4184 4.38492 17.8845 4.62239C18.5274 4.94996 19.05 5.47265 19.3776 6.11553C19.6151 6.58161 19.6899 7.04336 19.7215 7.4295C19.7501 7.77993 19.7501 8.19273 19.75 8.61183V15.3882C19.7501 15.8073 19.7501 16.2201 19.7215 16.5705C19.6899 16.9566 19.6151 17.4184 19.3776 17.8845C19.05 18.5274 18.5274 19.05 17.8845 19.3776C17.4184 19.6151 16.9566 19.6899 16.5705 19.7215C16.2201 19.7501 15.8073 19.7501 15.3882 19.75H8.61183C8.19273 19.7501 7.77993 19.7501 7.4295 19.7215C7.04336 19.6899 6.58161 19.6151 6.11553 19.3776C5.47265 19.05 4.94996 18.5274 4.62239 17.8845C4.38492 17.4184 4.31007 16.9566 4.27852 16.5705C4.24989 16.2201 4.24994 15.8073 4.25 15.3882V8.61182C4.24994 8.19273 4.24989 7.77993 4.27852 7.4295C4.31007 7.04336 4.38492 6.58161 4.62239 6.11553C4.94996 5.47265 5.47265 4.94996 6.11553 4.62239C6.58161 4.38492 7.04336 4.31007 7.4295 4.27852C7.77993 4.24989 8.19273 4.24994 8.61182 4.25Z" fill="black"/>
</svg>
