<svg width="24" height="24" viewBox="0 0 24 24" fill="none" xmlns="http://www.w3.org/2000/svg">
<path fill-rule="evenodd" clip-rule="evenodd" d="M16 4.5C14.067 4.5 12.5 6.067 12.5 8C12.5 9.933 14.067 11.5 16 11.5C17.933 11.5 19.5 9.933 19.5 8C19.5 6.067 17.933 4.5 16 4.5ZM13.5 8C13.5 6.61929 14.6193 5.5 16 5.5C17.3807 5.5 18.5 6.61929 18.5 8C18.5 9.38071 17.3807 10.5 16 10.5C14.6193 10.5 13.5 9.38071 13.5 8Z" fill="black"/>
<path fill-rule="evenodd" clip-rule="evenodd" d="M18.2413 4.0741e-07C19.0463 -1.18713e-05 19.7106 -2.20053e-05 20.2518 0.044195C20.8139 0.0901202 21.3306 0.188685 21.816 0.435975C22.5686 0.819469 23.1805 1.43139 23.564 2.18404C23.8113 2.66937 23.9099 3.18608 23.9558 3.74818C24 4.28937 24 4.95372 24 5.75868V18.2413C24 19.0463 24 19.7106 23.9558 20.2518C23.9099 20.8139 23.8113 21.3306 23.564 21.816C23.1805 22.5686 22.5686 23.1805 21.816 23.564C21.3306 23.8113 20.8139 23.9099 20.2518 23.9558C19.7106 24 19.0463 24 18.2413 24H5.75868C4.95372 24 4.28936 24 3.74818 23.9558C3.18608 23.9099 2.66937 23.8113 2.18404 23.564C1.43139 23.1805 0.819469 22.5686 0.435975 21.816C0.188685 21.3306 0.0901202 20.8139 0.044195 20.2518C-2.20053e-05 19.7106 -1.18713e-05 19.0463 4.0741e-07 18.2413V5.7587C-1.18713e-05 4.95374 -2.20053e-05 4.28937 0.044195 3.74818C0.0901202 3.18608 0.188685 2.66937 0.435975 2.18404C0.819469 1.43139 1.43139 0.819469 2.18404 0.435975C2.66937 0.188685 3.18608 0.0901202 3.74818 0.044195C4.28937 -2.20053e-05 4.95372 -1.18713e-05 5.75868 4.0741e-07H18.2413ZM1.32698 2.63803C1 3.27977 1 4.11984 1 5.8V16.2929L4.89883 12.3941C5.28199 12.0109 5.59108 11.7018 5.86179 11.472C6.14053 11.2354 6.41135 11.0535 6.72746 10.9508C7.22957 10.7876 7.77044 10.7876 8.27254 10.9508C8.58865 11.0535 8.85947 11.2354 9.13821 11.472C9.40893 11.7018 9.71799 12.0109 10.1012 12.3941L20.6131 22.906C20.9025 22.8576 21.1437 22.7842 21.362 22.673C21.9265 22.3854 22.3854 21.9265 22.673 21.362C23 20.7202 23 19.8802 23 18.2V5.8C23 4.11984 23 3.27977 22.673 2.63803C22.3854 2.07354 21.9265 1.6146 21.362 1.32698C20.7202 1 19.8802 1 18.2 1H5.8C4.11984 1 3.27977 1 2.63803 1.32698C2.07354 1.6146 1.6146 2.07354 1.32698 2.63803ZM1 18.2V17.7071L5.59081 13.1163C5.99266 12.7144 6.27306 12.4346 6.50897 12.2343C6.74041 12.0379 6.89592 11.9475 7.03648 11.9018C7.33774 11.804 7.66226 11.804 7.96353 11.9018C8.10408 11.9475 8.25959 12.0379 8.49103 12.2343C8.72694 12.4346 9.00734 12.7144 9.40919 13.1163L19.2882 22.9953C18.9695 23 18.6104 23 18.2015 23H5.8C4.11984 23 3.27977 23 2.63803 22.673C2.07354 22.3854 1.6146 21.9265 1.32698 21.362C1 20.7202 1 19.8802 1 18.2Z" fill="black"/>
</svg>
