<svg width="24" height="24" viewBox="0 0 24 24" fill="none" xmlns="http://www.w3.org/2000/svg">
<path fill-rule="evenodd" clip-rule="evenodd" d="M0 12C0 18.6274 5.37258 24 12 24C18.6274 24 24 18.6274 24 12C24 5.37258 18.6274 0 12 0C5.37258 0 0 5.37258 0 12ZM2.20628 15.7937C3.72735 19.7177 7.53876 22.5 12 22.5C14.1323 22.5 16.1161 21.8644 17.7724 20.7724L12.0255 15.0255C10.4414 13.4414 9.64938 12.6494 8.73607 12.3526C7.93269 12.0916 7.06731 12.0916 6.26393 12.3526C5.35062 12.6494 4.55858 13.4414 2.97451 15.0255L2.20628 15.7937ZM16 11C17.6569 11 19 9.65685 19 8C19 6.34315 17.6569 5 16 5C14.3431 5 13 6.34315 13 8C13 9.65685 14.3431 11 16 11Z" fill="black"/>
</svg>
