<svg width="24" height="24" viewBox="0 0 24 24" fill="none" xmlns="http://www.w3.org/2000/svg">
<path fill-rule="evenodd" clip-rule="evenodd" d="M16 4.00001C13.7909 4.00001 12 5.79087 12 8.00001C12 10.2091 13.7909 12 16 12C18.2091 12 20 10.2091 20 8.00001C20 5.79087 18.2091 4.00001 16 4.00001ZM14 8.00001C14 6.89544 14.8954 6.00001 16 6.00001C17.1046 6.00001 18 6.89544 18 8.00001C18 9.10458 17.1046 10 16 10C14.8954 10 14 9.10458 14 8.00001Z" fill="black"/>
<path fill-rule="evenodd" clip-rule="evenodd" d="M17.7067 3.17653e-06C18.41 -4.4984e-05 19.0533 -8.93287e-05 19.5905 0.0438056C20.169 0.0910676 20.7982 0.19902 21.4189 0.515248C22.3084 0.968468 23.0315 1.69165 23.4848 2.58114C23.801 3.20178 23.9089 3.83105 23.9562 4.40951C24.0001 4.94677 24.0001 5.59006 24 6.29332V17.7067C24.0001 18.41 24.0001 19.0532 23.9562 19.5905C23.9089 20.169 23.801 20.7982 23.4848 21.4189C23.0315 22.3084 22.3084 23.0315 21.4189 23.4848C20.7982 23.801 20.169 23.9089 19.5905 23.9562C19.0532 24.0001 18.41 24.0001 17.7067 24H6.29332C5.59006 24.0001 4.94677 24.0001 4.40951 23.9562C3.83105 23.9089 3.20178 23.801 2.58114 23.4848C1.69165 23.0315 0.968468 22.3084 0.515248 21.4189C0.19902 20.7982 0.0910676 20.169 0.0438056 19.5905C-8.9094e-05 19.0533 -4.49848e-05 18.41 3.17577e-06 17.7067V6.29329C-4.49844e-05 5.59004 -8.90419e-05 4.94675 0.0438056 4.40951C0.0910676 3.83105 0.19902 3.20178 0.515248 2.58114C0.968468 1.69165 1.69165 0.968468 2.58114 0.515248C3.20178 0.19902 3.83105 0.0910676 4.40951 0.0438056C4.94676 -8.90903e-05 5.59003 -4.4984e-05 6.29329 3.17653e-06H17.7067ZM2.29726 3.48912C2.00001 4.07252 2.00001 4.83623 2.00001 6.36364V14.5858L4.55741 12.0284C4.93015 11.6556 5.2517 11.3341 5.53821 11.0908C5.8406 10.8341 6.16908 10.6065 6.57296 10.4753C7.17549 10.2795 7.82453 10.2795 8.42706 10.4753C8.83094 10.6065 9.15941 10.8341 9.46181 11.0908C9.74831 11.3341 10.0699 11.6556 10.4426 12.0284L20.2323 21.8181C20.3306 21.7857 20.4228 21.7476 20.5109 21.7028C21.0241 21.4413 21.4413 21.0241 21.7028 20.5109C22 19.9275 22 19.1638 22 17.6364V6.36364C22 4.83623 22 4.07252 21.7028 3.48912C21.4413 2.97595 21.0241 2.55873 20.5109 2.29726C19.9275 2.00001 19.1638 2.00001 17.6364 2.00001H6.36364C4.83623 2.00001 4.07252 2.00001 3.48912 2.29726C2.97595 2.55873 2.55873 2.97595 2.29726 3.48912ZM2.00001 17.6364V17.4142L5.94437 13.4699C6.35206 13.0622 6.61584 12.7995 6.83256 12.6155C7.04035 12.4391 7.13821 12.3945 7.19099 12.3774C7.39183 12.3121 7.60818 12.3121 7.80902 12.3774C7.8618 12.3945 7.95966 12.4391 8.16745 12.6155C8.38417 12.7995 8.64796 13.0622 9.05564 13.4699L17.5858 22H6.36364C4.83623 22 4.07252 22 3.48912 21.7028C2.97595 21.4413 2.55873 21.0241 2.29726 20.5109C2.00001 19.9275 2.00001 19.1638 2.00001 17.6364Z" fill="black"/>
</svg>
