<svg width="24" height="24" viewBox="0 0 24 24" fill="none" xmlns="http://www.w3.org/2000/svg">
<path fill-rule="evenodd" clip-rule="evenodd" d="M15 3.99999C12.7909 3.99999 11 5.79085 11 7.99999C11 10.2091 12.7909 12 15 12C17.2091 12 19 10.2091 19 7.99999C19 5.79085 17.2091 3.99999 15 3.99999ZM13 7.99999C13 6.89542 13.8954 5.99999 15 5.99999C16.1046 5.99999 17 6.89542 17 7.99999C17 9.10456 16.1046 9.99999 15 9.99999C13.8954 9.99999 13 9.10456 13 7.99999Z" fill="black"/>
<path fill-rule="evenodd" clip-rule="evenodd" d="M12 24C5.37258 24 0 18.6274 0 12C0 5.37258 5.37258 0 12 0C18.6274 0 24 5.37258 24 12C24 18.6274 18.6274 24 12 24ZM12 2C6.47715 2 2 6.47715 2 12C2 12.7973 2.09331 13.5728 2.2696 14.3162L4.5574 12.0284C4.93013 11.6556 5.2517 11.334 5.5382 11.0908C5.84059 10.8341 6.16907 10.6065 6.57295 10.4753C7.17548 10.2795 7.82452 10.2795 8.42705 10.4753C8.83093 10.6065 9.15941 10.8341 9.4618 11.0908C9.7483 11.334 10.0699 11.6556 10.4426 12.0284L18.2338 19.8196C20.5293 17.9873 22 15.1654 22 12C22 6.47715 17.5228 2 12 2ZM5.94436 13.4699L3.01643 16.3978C4.64376 19.7158 8.05512 22 12 22C13.6235 22 15.1567 21.6131 16.5123 20.9265L9.05563 13.4699C8.64795 13.0622 8.38416 12.7995 8.16744 12.6155C7.95965 12.4391 7.86179 12.3945 7.80902 12.3774C7.60817 12.3121 7.39183 12.3121 7.19098 12.3774C7.13821 12.3945 7.04035 12.4391 6.83256 12.6155C6.61584 12.7995 6.35205 13.0622 5.94436 13.4699Z" fill="black"/>
</svg>
