<svg width="24" height="24" viewBox="0 0 24 24" fill="none" xmlns="http://www.w3.org/2000/svg">
<path d="M16 11C17.6569 11 19 9.65685 19 8C19 6.34315 17.6569 5 16 5C14.3431 5 13 6.34315 13 8C13 9.65685 14.3431 11 16 11Z" fill="black"/>
<path fill-rule="evenodd" clip-rule="evenodd" d="M1 18.2741C1 18.2496 1 18.2249 1 18.2V5.8C1 4.11984 1 3.27976 1.32698 2.63803C1.6146 2.07354 2.07354 1.6146 2.63803 1.32698C3.27976 1 4.11984 1 5.8 1H18.2C19.8802 1 20.7202 1 21.362 1.32698C21.9265 1.6146 22.3854 2.07354 22.673 2.63803C23 3.27976 23 4.11984 23 5.8V18.2C23 19.8802 23 20.7202 22.673 21.362C22.3854 21.9265 21.9265 22.3854 21.362 22.673C21.0002 22.8573 20.5755 22.9377 19.9728 22.9728C19.9072 22.9767 19.8396 22.9799 19.7696 22.9828C19.342 23 18.8301 23 18.2 23H5.8C5.69499 23 5.59326 23 5.49466 22.9999C4.01561 22.9987 3.23966 22.9796 2.63803 22.673C2.56747 22.6371 2.49856 22.5984 2.43142 22.5573C1.96148 22.269 1.57865 21.8559 1.32698 21.362C1.28611 21.2818 1.25034 21.1984 1.21905 21.1108C1.09085 20.7516 1.03768 20.3194 1.01563 19.7279C1.00071 19.3278 1.00003 18.8549 1 18.2824C1 18.2796 1 18.2769 1 18.2741ZM5.8 1.5H18.2C19.0483 1.5 19.6545 1.50039 20.1297 1.53921C20.599 1.57756 20.8963 1.65089 21.135 1.77248C21.6054 2.01217 21.9878 2.39462 22.2275 2.86502C22.3491 3.10366 22.4224 3.40099 22.4608 3.87032C22.4996 4.34549 22.5 4.95167 22.5 5.8V18.2C22.5 19.0483 22.4996 19.6545 22.4608 20.1297C22.4224 20.599 22.3491 20.8963 22.2275 21.135C21.9878 21.6054 21.6054 21.9878 21.135 22.2275C20.8963 22.3491 20.599 22.4224 20.1297 22.4608C19.9401 22.4763 19.7297 22.4856 19.4913 22.4913L12.0255 15.0255C10.4414 13.4414 9.64938 12.6494 8.73607 12.3526C7.93269 12.0916 7.0673 12.0916 6.26393 12.3526C5.35062 12.6494 4.55858 13.4414 2.97451 15.0255L1.93726 16.0627C1.74529 16.2547 1.60657 16.3934 1.5 16.5134V5.8C1.5 4.95167 1.50039 4.34549 1.53921 3.87032C1.57756 3.40099 1.65089 3.10366 1.77248 2.86502C2.01217 2.39462 2.39462 2.01217 2.86502 1.77248C3.10366 1.65089 3.40099 1.57756 3.87032 1.53921C4.34549 1.50039 4.95167 1.5 5.8 1.5Z" fill="black"/>
</svg>
