<svg width="24" height="24" viewBox="0 0 24 24" fill="none" xmlns="http://www.w3.org/2000/svg">
<path d="M16 11C17.6569 11 19 9.65686 19 8.00001C19 6.34315 17.6569 5.00001 16 5.00001C14.3431 5.00001 13 6.34315 13 8.00001C13 9.65686 14.3431 11 16 11Z" fill="black"/>
<path fill-rule="evenodd" clip-rule="evenodd" d="M6.29329 3.17653e-06C5.59003 -4.4984e-05 4.94676 -8.90903e-05 4.40951 0.0438056C3.83105 0.0910676 3.20178 0.19902 2.58114 0.515248C1.69165 0.968468 0.968468 1.69165 0.515248 2.58114C0.19902 3.20178 0.0910676 3.83105 0.0438056 4.40951C-8.90382e-05 4.94675 -4.49846e-05 5.59003 3.17557e-06 6.29327L3.17653e-06 17.7067C-4.4984e-05 18.41 -8.90903e-05 19.0533 0.0438056 19.5905C0.0910676 20.169 0.19902 20.7982 0.515248 21.4189C0.968468 22.3084 1.69165 23.0315 2.58114 23.4848C3.20178 23.801 3.83105 23.9089 4.40951 23.9562C4.94677 24.0001 5.59006 24.0001 6.29332 24H17.7067C18.41 24.0001 19.0532 24.0001 19.5905 23.9562C20.169 23.9089 20.7982 23.801 21.4189 23.4848C22.3084 23.0315 23.0315 22.3084 23.4848 21.4189C23.801 20.7982 23.9089 20.169 23.9562 19.5905C24.0001 19.0532 24.0001 18.41 24 17.7067V6.29332C24.0001 5.59006 24.0001 4.94677 23.9562 4.40951C23.9089 3.83105 23.801 3.20178 23.4848 2.58114C23.0315 1.69165 22.3084 0.968468 21.4189 0.515248C20.7982 0.19902 20.169 0.0910676 19.5905 0.0438056C19.0533 -8.93287e-05 18.41 -4.4984e-05 17.7067 3.17653e-06H6.29329ZM2.00001 6.36364C2.00001 4.83623 2.00001 4.07252 2.29726 3.48912C2.55873 2.97595 2.97595 2.55873 3.48912 2.29726C4.07252 2.00001 4.83623 2.00001 6.36364 2.00001H17.6364C19.1638 2.00001 19.9275 2.00001 20.5109 2.29726C21.0241 2.55873 21.4413 2.97595 21.7028 3.48912C22 4.07252 22 4.83623 22 6.36364V17.6364C22 19.1638 22 19.9275 21.7028 20.5109C21.4413 21.0241 21.0241 21.4413 20.5109 21.7028C20.1322 21.8957 19.6775 21.9634 18.9872 21.9872L12.0255 15.0255C10.4414 13.4414 9.64938 12.6494 8.73607 12.3526C7.9327 12.0916 7.06731 12.0916 6.26394 12.3526C5.35062 12.6494 4.55859 13.4414 2.97452 15.0255L2.00001 16V6.36364Z" fill="black"/>
</svg>
