<svg width="24" height="24" viewBox="0 0 24 24" fill="none" xmlns="http://www.w3.org/2000/svg">
<path fill-rule="evenodd" clip-rule="evenodd" d="M6.18166 6.91002C6 7.26654 6 7.73325 6 8.66667V14.5002L7.69543 12.8047C8.48746 12.0127 8.88348 11.6167 9.34014 11.4683C9.74182 11.3378 10.1745 11.3378 10.5762 11.4683C11.0329 11.6167 11.4289 12.0127 12.2209 12.8047L17.1832 17.767C17.4541 17.6064 17.6747 17.3719 17.8183 17.09C18 16.7335 18 16.2668 18 15.3333V8.66667C18 7.73325 18 7.26654 17.8183 6.91002C17.6586 6.59641 17.4036 6.34144 17.09 6.18166C16.7335 6 16.2668 6 15.3333 6H8.66667C7.73325 6 7.26654 6 6.91002 6.18166C6.59641 6.34144 6.34144 6.59641 6.18166 6.91002ZM16.6665 9.08398C16.6665 10.0505 15.883 10.834 14.9165 10.834C13.95 10.834 13.1665 10.0505 13.1665 9.08398C13.1665 8.11749 13.95 7.33398 14.9165 7.33398C15.883 7.33398 16.6665 8.11749 16.6665 9.08398Z" fill="black"/>
<path fill-rule="evenodd" clip-rule="evenodd" d="M0.123117 8.43565C0 9.21298 0 10.142 0 12C0 13.858 0 14.787 0.123117 15.5643C0.800832 19.8433 4.15673 23.1992 8.43565 23.8769C9.21298 24 10.142 24 12 24C13.858 24 14.787 24 15.5643 23.8769C19.8433 23.1992 23.1992 19.8433 23.8769 15.5643C24 14.787 24 13.858 24 12C24 10.142 24 9.21298 23.8769 8.43565C23.1992 4.15673 19.8433 0.800832 15.5643 0.123117C14.787 0 13.858 0 12 0C10.142 0 9.21298 0 8.43565 0.123117C4.15673 0.800832 0.800832 4.15673 0.123117 8.43565ZM8.62297 4.75H15.377C15.8062 4.74997 16.2003 4.74994 16.5298 4.77686C16.885 4.80588 17.2736 4.87232 17.6575 5.0679C18.2063 5.34753 18.6525 5.79372 18.9321 6.34253C19.1277 6.72637 19.1941 7.11499 19.2231 7.47021C19.2501 7.79969 19.25 8.19382 19.25 8.62296V15.377C19.25 15.8062 19.2501 16.2003 19.2231 16.5298C19.1941 16.885 19.1277 17.2736 18.9321 17.6575C18.6525 18.2063 18.2063 18.6525 17.6575 18.9321C17.2736 19.1277 16.885 19.1941 16.5298 19.2231C16.2003 19.2501 15.8062 19.25 15.377 19.25H8.62299C8.19385 19.25 7.79969 19.2501 7.47021 19.2231C7.11499 19.1941 6.72637 19.1277 6.34253 18.9321C5.79372 18.6525 5.34753 18.2063 5.0679 17.6575C4.87232 17.2736 4.80588 16.885 4.77686 16.5298C4.74994 16.2003 4.74997 15.8062 4.75 15.377V8.62297C4.74997 8.19382 4.74994 7.79969 4.77686 7.47021C4.80588 7.11499 4.87232 6.72637 5.0679 6.34253C5.34753 5.79372 5.79372 5.34753 6.34253 5.0679C6.72637 4.87232 7.11499 4.80588 7.47021 4.77686C7.79969 4.74994 8.19382 4.74997 8.62297 4.75Z" fill="black"/>
</svg>
