<svg width="24" height="24" viewBox="0 0 24 24" fill="none" xmlns="http://www.w3.org/2000/svg">
<path fill-rule="evenodd" clip-rule="evenodd" d="M15 4.75C13.2051 4.75 11.75 6.20507 11.75 8C11.75 9.79493 13.2051 11.25 15 11.25C16.7949 11.25 18.25 9.79493 18.25 8C18.25 6.20507 16.7949 4.75 15 4.75ZM12.25 8C12.25 6.48122 13.4812 5.25 15 5.25C16.5188 5.25 17.75 6.48122 17.75 8C17.75 9.51878 16.5188 10.75 15 10.75C13.4812 10.75 12.25 9.51878 12.25 8Z" fill="black"/>
<path fill-rule="evenodd" clip-rule="evenodd" d="M12 23C14.1793 23 16.2105 22.3663 17.9195 21.2731C18.0622 21.1818 18.2027 21.0873 18.3408 20.9897L18.3422 20.9887C21.1601 18.9968 23 15.7133 23 12C23 5.92487 18.0751 1 12 1C5.92487 1 1 5.92487 1 12C1 13.3829 1.25519 14.7062 1.72106 15.9254C1.78282 16.087 1.84828 16.2468 1.91735 16.4047L1.92696 16.4266C3.63043 20.2974 7.4996 23 12 23ZM1.5 12C1.5 13.2407 1.7152 14.4312 2.11032 15.5361L5.06849 12.578C5.45773 12.1887 5.7607 11.8857 6.02358 11.6626C6.2905 11.436 6.5325 11.277 6.80471 11.1886C7.25661 11.0417 7.74339 11.0417 8.19529 11.1886C8.4675 11.277 8.7095 11.436 8.97642 11.6626C9.2393 11.8857 9.54226 12.1887 9.93149 12.5779L17.9832 20.6297C20.7129 18.7335 22.5 15.5755 22.5 12C22.5 6.20101 17.799 1.5 12 1.5C6.20101 1.5 1.5 6.20101 1.5 12ZM5.41403 12.9395L2.30778 16.0458C3.89191 19.8363 7.63489 22.5 12 22.5C14.0406 22.5 15.9453 21.9179 17.557 20.9106L9.58597 12.9395C9.18703 12.5406 8.89832 12.2522 8.65283 12.0437C8.40956 11.8372 8.22522 11.724 8.04078 11.6641C7.6893 11.5499 7.3107 11.5499 6.95922 11.6641C6.77478 11.724 6.59044 11.8372 6.34717 12.0437C6.10167 12.2522 5.81297 12.5406 5.41403 12.9395Z" fill="black"/>
</svg>
