<svg width="24" height="24" viewBox="0 0 24 24" fill="none" xmlns="http://www.w3.org/2000/svg">
<path fill-rule="evenodd" clip-rule="evenodd" d="M6.18166 6.91002C6 7.26654 6 7.73325 6 8.66667V14.5002L7.69543 12.8047C8.48746 12.0127 8.88348 11.6167 9.34014 11.4683C9.74182 11.3378 10.1745 11.3378 10.5762 11.4683C11.0329 11.6167 11.4289 12.0127 12.2209 12.8047L17.1832 17.767C17.4541 17.6064 17.6747 17.3719 17.8183 17.09C18 16.7335 18 16.2668 18 15.3333V8.66667C18 7.73325 18 7.26654 17.8183 6.91002C17.6586 6.59641 17.4036 6.34144 17.09 6.18166C16.7335 6 16.2668 6 15.3333 6H8.66667C7.73325 6 7.26654 6 6.91002 6.18166C6.59641 6.34144 6.34144 6.59641 6.18166 6.91002ZM16.6665 9.08398C16.6665 10.0505 15.883 10.834 14.9165 10.834C13.95 10.834 13.1665 10.0505 13.1665 9.08398C13.1665 8.11749 13.95 7.33398 14.9165 7.33398C15.883 7.33398 16.6665 8.11749 16.6665 9.08398Z" fill="black"/>
<path fill-rule="evenodd" clip-rule="evenodd" d="M0.123117 8.43565C0 9.21298 0 10.142 0 12C0 13.858 0 14.787 0.123117 15.5643C0.800832 19.8433 4.15673 23.1992 8.43565 23.8769C9.21298 24 10.142 24 12 24C13.858 24 14.787 24 15.5643 23.8769C19.8433 23.1992 23.1992 19.8433 23.8769 15.5643C24 14.787 24 13.858 24 12C24 10.142 24 9.21298 23.8769 8.43565C23.1992 4.15673 19.8433 0.800832 15.5643 0.123117C14.787 0 13.858 0 12 0C10.142 0 9.21298 0 8.43565 0.123117C4.15673 0.800832 0.800832 4.15673 0.123117 8.43565ZM8.60715 3.99999H15.3928C15.8076 3.99993 16.2299 3.99986 16.5909 4.02935C16.9925 4.06216 17.4908 4.14121 17.998 4.39964C18.6879 4.75118 19.2488 5.31211 19.6004 6.00203C19.8588 6.50923 19.9378 7.00754 19.9707 7.40914C20.0001 7.77011 20.0001 8.19238 20 8.60715V15.3928C20.0001 15.8076 20.0001 16.2299 19.9707 16.5909C19.9378 16.9925 19.8588 17.4908 19.6004 17.998C19.2488 18.6879 18.6879 19.2488 17.998 19.6004C17.4908 19.8588 16.9925 19.9378 16.5909 19.9707C16.2299 20.0001 15.8076 20.0001 15.3928 20H8.60715C8.19239 20.0001 7.77011 20.0001 7.40914 19.9707C7.00754 19.9378 6.50923 19.8588 6.00203 19.6004C5.31211 19.2488 4.75118 18.6879 4.39964 17.998C4.14121 17.4908 4.06216 16.9925 4.02935 16.5909C3.99986 16.2299 3.99993 15.8076 3.99999 15.3929V8.60715C3.99993 8.19239 3.99986 7.77011 4.02935 7.40914C4.06216 7.00754 4.14121 6.50923 4.39964 6.00203C4.75118 5.31211 5.31211 4.75118 6.00203 4.39964C6.50923 4.14121 7.00754 4.06216 7.40914 4.02935C7.77011 3.99986 8.19239 3.99993 8.60715 3.99999Z" fill="black"/>
</svg>
