<svg width="24" height="24" viewBox="0 0 24 24" fill="none" xmlns="http://www.w3.org/2000/svg">
<path fill-rule="evenodd" clip-rule="evenodd" d="M6.02456 1.29089e-06C5.27161 -2.5175e-05 4.61797 -4.81419e-05 4.07884 0.0440005C3.50856 0.0905942 2.93558 0.193852 2.38259 0.475612C1.56152 0.893969 0.893969 1.56152 0.475612 2.38259C0.193852 2.93558 0.0905942 3.50856 0.0440005 4.07884C-4.81457e-05 4.61797 -2.5175e-05 5.27154 1.2909e-06 6.02449V17.9755C-2.5175e-05 18.7284 -4.81419e-05 19.382 0.0440005 19.9212C0.0905942 20.4914 0.193852 21.0644 0.475612 21.6174C0.893969 22.4385 1.56152 23.106 2.38259 23.5244C2.93558 23.8062 3.50856 23.9094 4.07884 23.956C4.61794 24.0001 5.27146 24 6.02435 24H17.9755C18.7284 24 19.3821 24.0001 19.9212 23.956C20.4914 23.9094 21.0644 23.8062 21.6174 23.5244C22.4385 23.106 23.106 22.4385 23.5244 21.6174C23.8062 21.0644 23.9094 20.4914 23.956 19.9212C24.0001 19.3821 24 18.7286 24 17.9757V6.02453C24 5.27164 24.0001 4.61794 23.956 4.07884C23.9094 3.50856 23.8062 2.93558 23.5244 2.38259C23.106 1.56152 22.4385 0.893969 21.6174 0.475612C21.0644 0.193852 20.4914 0.0905942 19.9212 0.0440005C19.382 -4.81419e-05 18.7285 -2.5175e-05 17.9755 1.29089e-06H6.02456ZM1.5 16.5134V17.9182C1.5 19.522 1.5 20.3239 1.81212 20.9364C2.08667 21.4753 2.52475 21.9133 3.06358 22.1879C3.67614 22.5 4.47804 22.5 6.08182 22.5H17.9182C18.5515 22.5 19.0598 22.5 19.4808 22.4808L9.76274 12.7627C8.97071 11.9707 8.57469 11.5747 8.11804 11.4263C7.71635 11.2958 7.28366 11.2958 6.88197 11.4263C6.42531 11.5747 6.0293 11.9707 5.23727 12.7627L1.93726 16.0627M17 10C18.6569 10 20 8.65686 20 7C20 5.34315 18.6569 4 17 4C15.3431 4 14 5.34315 14 7C14 8.65686 15.3431 10 17 10Z" fill="black"/>
</svg>
