<svg width="24" height="24" viewBox="0 0 24 24" fill="none" xmlns="http://www.w3.org/2000/svg">
<path d="M16 11C17.6569 11 19 9.65687 19 8.00001C19 6.34316 17.6569 5.00001 16 5.00001C14.3432 5.00001 13 6.34316 13 8.00001C13 9.65687 14.3432 11 16 11Z" fill="black"/>
<path fill-rule="evenodd" clip-rule="evenodd" d="M6.78061 0.250006C6.13081 0.249932 5.50187 0.249861 4.96994 0.293321C4.38687 0.34096 3.70396 0.453021 3.01798 0.802549C2.0641 1.28857 1.28857 2.0641 0.802549 3.01798C0.453021 3.70396 0.34096 4.38687 0.293321 4.96994C0.249861 5.50187 0.249932 6.1308 0.250006 6.7806L0.250006 17.2194C0.249932 17.8692 0.249861 18.4982 0.293321 19.0301C0.34096 19.6131 0.453021 20.2961 0.802549 20.982C1.28857 21.9359 2.0641 22.7115 3.01798 23.1975C3.70396 23.547 4.38687 23.6591 4.96994 23.7067C5.50187 23.7502 6.13081 23.7501 6.78062 23.75H17.2194C17.8692 23.7501 18.4981 23.7502 19.0301 23.7067C19.6131 23.6591 20.2961 23.547 20.982 23.1975C21.9359 22.7115 22.7115 21.9359 23.1975 20.982C23.547 20.2961 23.6591 19.6131 23.7067 19.0301C23.7502 18.4981 23.7501 17.8692 23.75 17.2194V6.78063C23.7501 6.13083 23.7502 5.50187 23.7067 4.96994C23.6591 4.38687 23.547 3.70396 23.1975 3.01798C22.7115 2.0641 21.9359 1.28857 20.982 0.802549C20.2961 0.453021 19.6131 0.34096 19.0301 0.293321C18.4982 0.249861 17.8692 0.249932 17.2194 0.250006H6.78061ZM2.75001 6.86112C2.75001 5.4221 2.75001 4.70259 3.03006 4.15295C3.27641 3.66948 3.66948 3.27641 4.15295 3.03006C4.70259 2.75001 5.4221 2.75001 6.86112 2.75001H17.1389C18.5779 2.75001 19.2974 2.75001 19.8471 3.03006C20.3305 3.27641 20.7236 3.66948 20.97 4.15295C21.25 4.70259 21.25 5.4221 21.25 6.86112V17.1389C21.25 18.5779 21.25 19.2974 20.97 19.8471C20.7236 20.3305 20.3305 20.7236 19.8471 20.97C19.4603 21.167 18.9893 21.2254 18.2427 21.2427L12.0255 15.0255C10.4414 13.4414 9.64939 12.6494 8.73608 12.3526C7.93271 12.0916 7.06732 12.0916 6.26394 12.3526C5.35063 12.6494 4.55859 13.4414 2.97453 15.0255L2.75001 15.25V6.86112Z" fill="black"/>
</svg>
