<svg width="24" height="24" viewBox="0 0 24 24" fill="none" xmlns="http://www.w3.org/2000/svg">
<path fill-rule="evenodd" clip-rule="evenodd" d="M15 4.5C13.067 4.5 11.5 6.067 11.5 8C11.5 9.933 13.067 11.5 15 11.5C16.933 11.5 18.5 9.933 18.5 8C18.5 6.067 16.933 4.5 15 4.5ZM12.5 8C12.5 6.61929 13.6193 5.5 15 5.5C16.3807 5.5 17.5 6.61929 17.5 8C17.5 9.38071 16.3807 10.5 15 10.5C13.6193 10.5 12.5 9.38071 12.5 8Z" fill="black"/>
<path fill-rule="evenodd" clip-rule="evenodd" d="M12 24C5.37258 24 0 18.6274 0 12C0 5.37258 5.37258 0 12 0C18.6274 0 24 5.37258 24 12C24 18.6274 18.6274 24 12 24ZM12 1C5.92487 1 1 5.92487 1 12C1 13.2858 1.22059 14.52 1.626 15.6669L4.89883 12.3941C5.282 12.0109 5.59107 11.7018 5.86179 11.472C6.14053 11.2354 6.41135 11.0535 6.72746 10.9508C7.22957 10.7876 7.77044 10.7876 8.27254 10.9508C8.58865 11.0535 8.85947 11.2354 9.13821 11.472C9.40893 11.7018 9.71799 12.0109 10.1012 12.3941L18.5473 20.8402C21.249 18.8359 23 15.6224 23 12C23 5.92487 18.0751 1 12 1ZM5.59081 13.1163L2.03748 16.6696C3.79371 20.41 7.5944 23 12 23C14.0874 23 16.039 22.4186 17.7017 21.4088L9.40919 13.1163C9.00734 12.7144 8.72694 12.4346 8.49103 12.2343C8.25959 12.0379 8.10408 11.9475 7.96353 11.9018C7.66226 11.804 7.33774 11.804 7.03648 11.9018C6.89592 11.9475 6.74041 12.0379 6.50897 12.2343C6.27306 12.4346 5.99266 12.7144 5.59081 13.1163Z" fill="black"/>
</svg>
