<svg width="24" height="24" viewBox="0 0 24 24" fill="none" xmlns="http://www.w3.org/2000/svg">
<path fill-rule="evenodd" clip-rule="evenodd" d="M14.5 4.24999C12.1528 4.24999 10.25 6.15278 10.25 8.49999C10.25 10.8472 12.1528 12.75 14.5 12.75C16.8472 12.75 18.75 10.8472 18.75 8.49999C18.75 6.15278 16.8472 4.24999 14.5 4.24999ZM12.75 8.49999C12.75 7.53349 13.5335 6.74999 14.5 6.74999C15.4665 6.74999 16.25 7.53349 16.25 8.49999C16.25 9.46649 15.4665 10.25 14.5 10.25C13.5335 10.25 12.75 9.46649 12.75 8.49999Z" fill="black"/>
<path fill-rule="evenodd" clip-rule="evenodd" d="M12 23.75C5.51065 23.75 0.25 18.4893 0.25 12C0.25 5.51065 5.51065 0.25 12 0.25C18.4893 0.25 23.75 5.51065 23.75 12C23.75 18.4893 18.4893 23.75 12 23.75ZM12 2.75C6.89137 2.75 2.75 6.89137 2.75 12C2.75 12.469 2.7849 12.9298 2.85224 13.38L3.25725 12.975C3.82124 12.411 4.29726 11.9349 4.7191 11.5768C5.16086 11.2018 5.62475 10.8832 6.18668 10.7007C7.04026 10.4233 7.95974 10.4233 8.81332 10.7007C9.37526 10.8832 9.83914 11.2018 10.2809 11.5768C10.7027 11.9349 11.1787 12.411 11.7427 12.9749L17.8957 19.128C19.9447 17.4313 21.25 14.8681 21.25 12C21.25 6.89137 17.1086 2.75 12 2.75ZM10.0102 14.778L15.7087 20.4765C14.5734 20.974 13.3189 21.25 12 21.25C8.35355 21.25 5.19991 19.14 3.69337 16.0744L4.98977 14.778C5.59838 14.1694 6.00237 13.7668 6.33704 13.4827C6.66055 13.208 6.83617 13.1183 6.95922 13.0783C7.3107 12.9641 7.6893 12.9641 8.04078 13.0783C8.16383 13.1183 8.33945 13.208 8.66296 13.4827C8.99763 13.7668 9.40162 14.1694 10.0102 14.778Z" fill="black"/>
</svg>
