<svg width="24" height="24" viewBox="0 0 24 24" fill="none" xmlns="http://www.w3.org/2000/svg">
<path fill-rule="evenodd" clip-rule="evenodd" d="M0.25 12C0.25 18.4893 5.51065 23.75 12 23.75C18.4893 23.75 23.75 18.4893 23.75 12C23.75 5.51065 18.4893 0.25 12 0.25C5.51065 0.25 0.25 5.51065 0.25 12ZM3.18586 14.8141C4.37657 18.5467 7.8726 21.25 12 21.25C14.2998 21.25 16.4036 20.4107 18.0217 19.0217L13.0255 14.0255C11.4414 12.4414 10.6494 11.6494 9.73607 11.3526C8.93269 11.0916 8.06731 11.0916 7.26393 11.3526C6.35062 11.6494 5.55858 12.4414 3.97451 14.0255L3.18586 14.8141ZM16 11C17.6569 11 19 9.65685 19 8C19 6.34315 17.6569 5 16 5C14.3431 5 13 6.34315 13 8C13 9.65685 14.3431 11 16 11Z" fill="black"/>
</svg>
