<svg width="24" height="24" viewBox="0 0 24 24" fill="none" xmlns="http://www.w3.org/2000/svg">
<path fill-rule="evenodd" clip-rule="evenodd" d="M15 4.25C12.9289 4.25 11.25 5.92893 11.25 8C11.25 10.0711 12.9289 11.75 15 11.75C17.0711 11.75 18.75 10.0711 18.75 8C18.75 5.92893 17.0711 4.25 15 4.25ZM12.75 8C12.75 6.75736 13.7574 5.75 15 5.75C16.2426 5.75 17.25 6.75736 17.25 8C17.25 9.24264 16.2426 10.25 15 10.25C13.7574 10.25 12.75 9.24264 12.75 8Z" fill="black"/>
<path fill-rule="evenodd" clip-rule="evenodd" d="M12 24C5.37258 24 0 18.6274 0 12C0 5.37258 5.37258 0 12 0C18.6274 0 24 5.37258 24 12C24 18.6274 18.6274 24 12 24ZM12 1.5C6.20101 1.5 1.5 6.20101 1.5 12C1.5 13.0437 1.65229 14.0519 1.93586 15.0035L4.72845 12.2109C5.10614 11.8332 5.4214 11.5179 5.7 11.2814C5.99056 11.0347 6.29021 10.83 6.6502 10.713C7.20252 10.5336 7.79748 10.5336 8.3498 10.713C8.70979 10.83 9.00944 11.0347 9.3 11.2814C9.57859 11.5179 9.89384 11.8332 10.2715 12.2109L18.3917 20.3311C20.8898 18.4116 22.5 15.3939 22.5 12C22.5 6.20101 17.799 1.5 12 1.5ZM12 22.5C7.8248 22.5 4.21877 20.0631 2.52667 16.534L5.76759 13.2931C6.17236 12.8883 6.44445 12.617 6.67076 12.4249C6.89038 12.2385 7.01706 12.171 7.11373 12.1396C7.36478 12.058 7.63522 12.058 7.88627 12.1396C7.98294 12.171 8.10962 12.2385 8.32924 12.4249C8.55555 12.617 8.82764 12.8883 9.23241 13.2931L17.1127 21.1733C15.5997 22.0184 13.8561 22.5 12 22.5Z" fill="black"/>
</svg>
