<svg width="24" height="24" viewBox="0 0 24 24" fill="none" xmlns="http://www.w3.org/2000/svg">
<path fill-rule="evenodd" clip-rule="evenodd" d="M16 4.75C14.2051 4.75 12.75 6.20507 12.75 8C12.75 9.79493 14.2051 11.25 16 11.25C17.7949 11.25 19.25 9.79493 19.25 8C19.25 6.20507 17.7949 4.75 16 4.75ZM13.25 8C13.25 6.48122 14.4812 5.25 16 5.25C17.5188 5.25 18.75 6.48122 18.75 8C18.75 9.51878 17.5188 10.75 16 10.75C14.4812 10.75 13.25 9.51878 13.25 8Z" fill="black"/>
<path fill-rule="evenodd" clip-rule="evenodd" d="M1 18.2C1 19.8802 1 20.7202 1.32698 21.362C1.6146 21.9265 2.07354 22.3854 2.63803 22.673C3.27976 23 4.11984 23 5.8 23H18.2C18.7646 23 19.2348 23 19.634 22.9876C19.8472 22.9809 20.0403 22.9708 20.2169 22.9552L20.2455 22.9526C20.7081 22.9098 21.0574 22.8282 21.362 22.673C21.9265 22.3854 22.3854 21.9265 22.673 21.362C23 20.7202 23 19.8802 23 18.2V5.8C23 4.11984 23 3.27976 22.673 2.63803C22.3854 2.07354 21.9265 1.6146 21.362 1.32698C20.7202 1 19.8802 1 18.2 1H5.8C4.11984 1 3.27976 1 2.63803 1.32698C2.07354 1.6146 1.6146 2.07354 1.32698 2.63803C1 3.27976 1 4.11984 1 5.8V18.2ZM18.2 1.5H5.8C4.95167 1.5 4.34549 1.50039 3.87032 1.53921C3.40099 1.57756 3.10366 1.65089 2.86502 1.77248C2.39462 2.01217 2.01217 2.39462 1.77248 2.86502C1.65089 3.10366 1.57756 3.40099 1.53921 3.87032C1.50039 4.34549 1.5 4.95167 1.5 5.8V16.1464L5.06849 12.578C5.45773 12.1887 5.7607 11.8857 6.02358 11.6626C6.2905 11.436 6.5325 11.277 6.80471 11.1886C7.25661 11.0417 7.74339 11.0417 8.19529 11.1886C8.4675 11.277 8.7095 11.436 8.97642 11.6626C9.23928 11.8857 9.54223 12.1887 9.93144 12.5779L19.8331 22.4795C19.9376 22.4746 20.0362 22.4684 20.1297 22.4608C20.599 22.4224 20.8963 22.3491 21.135 22.2275C21.6054 21.9878 21.9878 21.6054 22.2275 21.135C22.3491 20.8963 22.4224 20.599 22.4608 20.1297C22.4996 19.6545 22.5 19.0483 22.5 18.2V5.8C22.5 4.95167 22.4996 4.34549 22.4608 3.87032C22.4224 3.40099 22.3491 3.10366 22.2275 2.86502C21.9878 2.39462 21.6054 2.01217 21.135 1.77248C20.8963 1.65089 20.599 1.57756 20.1297 1.53921C19.6545 1.50039 19.0483 1.5 18.2 1.5ZM18.2 22.5C18.554 22.5 18.8658 22.4999 19.1435 22.497L9.58597 12.9395C9.18703 12.5406 8.89832 12.2522 8.65283 12.0437C8.40956 11.8372 8.22522 11.724 8.04078 11.6641C7.6893 11.5499 7.3107 11.5499 6.95922 11.6641C6.77478 11.724 6.59044 11.8372 6.34717 12.0437C6.10167 12.2522 5.81297 12.5406 5.41403 12.9395L1.5 16.8536V18.2C1.5 19.0483 1.50039 19.6545 1.53921 20.1297C1.57756 20.599 1.65089 20.8963 1.77248 21.135C2.01217 21.6054 2.39462 21.9878 2.86502 22.2275C3.10366 22.3491 3.40099 22.4224 3.87032 22.4608C4.34549 22.4996 4.95167 22.5 5.8 22.5H18.2Z" fill="black"/>
</svg>
