<svg width="24" height="24" viewBox="0 0 24 24" fill="none" xmlns="http://www.w3.org/2000/svg">
<path fill-rule="evenodd" clip-rule="evenodd" d="M5.7587 4.0741e-07C4.95374 -1.18713e-05 4.28937 -2.20053e-05 3.74818 0.044195C3.18608 0.0901202 2.66937 0.188685 2.18404 0.435975C1.43139 0.819469 0.819469 1.43139 0.435975 2.18404C0.188685 2.66937 0.0901202 3.18608 0.044195 3.74818C-2.20053e-05 4.28937 -1.18713e-05 4.95372 4.0741e-07 5.75868V18.2413C-1.18713e-05 19.0463 -2.20053e-05 19.7106 0.044195 20.2518C0.0901202 20.8139 0.188685 21.3306 0.435975 21.816C0.819469 22.5686 1.43139 23.1805 2.18404 23.564C2.66937 23.8113 3.18608 23.9099 3.74818 23.9558C4.28936 24 4.95372 24 5.75868 24H18.2413C19.0463 24 19.7106 24 20.2518 23.9558C20.8139 23.9099 21.3306 23.8113 21.816 23.564C22.5686 23.1805 23.1805 22.5686 23.564 21.816C23.8113 21.3306 23.9099 20.8139 23.9558 20.2518C24 19.7106 24 19.0463 24 18.2413V5.75868C24 4.95372 24 4.28937 23.9558 3.74818C23.9099 3.18608 23.8113 2.66937 23.564 2.18404C23.1805 1.43139 22.5686 0.819469 21.816 0.435975C21.3306 0.188685 20.8139 0.0901202 20.2518 0.044195C19.7106 -2.20053e-05 19.0463 -1.18713e-05 18.2413 4.0741e-07H5.7587ZM19.9728 22.9728L9.76274 12.7627C8.97071 11.9707 8.57469 11.5747 8.11803 11.4263C7.71635 11.2958 7.28365 11.2958 6.88197 11.4263C6.42531 11.5747 6.02929 11.9707 5.23726 12.7627L1.93726 16.0627C1.59138 16.4086 1.4184 16.5816 1.29472 16.7834C1.18506 16.9624 1.10425 17.1575 1.05526 17.3615C1.00165 17.5849 1.00005 17.8217 1 18.2824L1 18.2C1 19.8802 1 20.7202 1.32698 21.362C1.6146 21.9265 2.07354 22.3854 2.63803 22.673C3.27977 23 4.11984 23 5.8 23H18.2C18.9331 23 19.5063 23 19.9728 22.9728ZM17 4C15.3431 4 14 5.34315 14 7C14 8.65686 15.3431 10 17 10C18.6569 10 20 8.65686 20 7C20 5.34315 18.6569 4 17 4Z" fill="black"/>
</svg>
