<svg width="24" height="24" viewBox="0 0 24 24" fill="none" xmlns="http://www.w3.org/2000/svg">
<path fill-rule="evenodd" clip-rule="evenodd" d="M12 9.37162C11.2051 9.37162 10.5608 10.016 10.5608 10.8108C10.5608 11.6057 11.2051 12.25 12 12.25C12.7948 12.25 13.4392 11.6057 13.4392 10.8108C13.4392 10.016 12.7948 9.37162 12 9.37162ZM11.0608 10.8108C11.0608 10.2921 11.4813 9.87162 12 9.87162C12.5187 9.87162 12.9392 10.2921 12.9392 10.8108C12.9392 11.3295 12.5187 11.75 12 11.75C11.4813 11.75 11.0608 11.3295 11.0608 10.8108Z" fill="black"/>
<path fill-rule="evenodd" clip-rule="evenodd" d="M12 6.99324C9.8916 6.99324 8.18242 8.70242 8.18242 10.8108C8.18242 12.9192 9.8916 14.6284 12 14.6284C14.1084 14.6284 15.8176 12.9192 15.8176 10.8108C15.8176 8.70242 14.1084 6.99324 12 6.99324ZM8.68242 10.8108C8.68242 8.97857 10.1677 7.49324 12 7.49324C13.8322 7.49324 15.3176 8.97857 15.3176 10.8108C15.3176 12.6431 13.8322 14.1284 12 14.1284C10.1677 14.1284 8.68242 12.6431 8.68242 10.8108Z" fill="black"/>
<path d="M6.64863 18.2905C6.51056 18.2905 6.39863 18.4025 6.39863 18.5405C6.39863 18.6786 6.51056 18.7905 6.64863 18.7905H17.3513C17.4894 18.7905 17.6013 18.6786 17.6013 18.5405C17.6013 18.4025 17.4894 18.2905 17.3513 18.2905H6.64863Z" fill="black"/>
<path fill-rule="evenodd" clip-rule="evenodd" d="M2.74978 11C2.74978 5.89137 6.89114 1.75 11.9998 1.75C17.1084 1.75 21.2498 5.89137 21.2498 11C21.2498 12.8093 20.7301 14.4979 19.8317 15.9239C21.4747 17.5176 22.6333 19.6087 23.0643 21.9548C23.0777 22.0278 23.058 22.103 23.0105 22.16C22.963 22.217 22.8926 22.25 22.8184 22.25H1.18115C1.10694 22.25 1.03657 22.217 0.989072 22.16C0.941574 22.103 0.921861 22.0278 0.935268 21.9548C1.36623 19.6087 2.52482 17.5176 4.16783 15.9239C3.26949 14.4979 2.74978 12.8093 2.74978 11ZM11.9998 2.25C7.16729 2.25 3.24978 6.16751 3.24978 11C3.24978 12.7833 3.78298 14.4413 4.69861 15.8242C4.76599 15.9259 4.75003 16.0615 4.66087 16.1448C3.084 17.6187 1.95161 19.5613 1.48556 21.75H22.514C22.0479 19.5613 20.9156 17.6187 19.3387 16.1448C19.2495 16.0615 19.2336 15.9259 19.301 15.8242C20.2166 14.4413 20.7498 12.7833 20.7498 11C20.7498 6.16751 16.8323 2.25 11.9998 2.25Z" fill="black"/>
</svg>
