<svg width="24" height="24" viewBox="0 0 24 24" fill="none" xmlns="http://www.w3.org/2000/svg">
<path fill-rule="evenodd" clip-rule="evenodd" d="M12.0005 9.37162C11.2056 9.37162 10.5613 10.016 10.5613 10.8108C10.5613 11.6057 11.2056 12.25 12.0005 12.25C12.7953 12.25 13.4397 11.6057 13.4397 10.8108C13.4397 10.016 12.7953 9.37162 12.0005 9.37162ZM11.0613 10.8108C11.0613 10.2921 11.4818 9.87162 12.0005 9.87162C12.5192 9.87162 12.9397 10.2921 12.9397 10.8108C12.9397 11.3295 12.5192 11.75 12.0005 11.75C11.4818 11.75 11.0613 11.3295 11.0613 10.8108Z" fill="black"/>
<path fill-rule="evenodd" clip-rule="evenodd" d="M12.0005 6.99324C9.89209 6.99324 8.18291 8.70242 8.18291 10.8108C8.18291 12.9192 9.89209 14.6284 12.0005 14.6284C14.1089 14.6284 15.818 12.9192 15.818 10.8108C15.818 8.70242 14.1089 6.99324 12.0005 6.99324ZM8.68291 10.8108C8.68291 8.97857 10.1682 7.49324 12.0005 7.49324C13.8327 7.49324 15.318 8.97857 15.318 10.8108C15.318 12.6431 13.8327 14.1284 12.0005 14.1284C10.1682 14.1284 8.68291 12.6431 8.68291 10.8108Z" fill="black"/>
<path d="M6.64912 18.2905C6.51105 18.2905 6.39912 18.4025 6.39912 18.5405C6.39912 18.6786 6.51105 18.7905 6.64912 18.7905H17.3518C17.4899 18.7905 17.6018 18.6786 17.6018 18.5405C17.6018 18.4025 17.4899 18.2905 17.3518 18.2905H6.64912Z" fill="black"/>
<path fill-rule="evenodd" clip-rule="evenodd" d="M2.75027 11C2.75027 5.89137 6.89163 1.75 12.0003 1.75C17.1089 1.75 21.2503 5.89137 21.2503 11C21.2503 12.8093 20.7306 14.4979 19.8322 15.9239C21.4752 17.5176 22.6338 19.6087 23.0648 21.9548C23.0782 22.0278 23.0585 22.103 23.011 22.16C22.9635 22.217 22.8931 22.25 22.8189 22.25H1.18164C1.10743 22.25 1.03706 22.217 0.98956 22.16C0.942062 22.103 0.922349 22.0278 0.935756 21.9548C1.36671 19.6087 2.52531 17.5176 4.16832 15.9239C3.26998 14.4979 2.75027 12.8093 2.75027 11ZM12.0003 2.25C7.16777 2.25 3.25027 6.16751 3.25027 11C3.25027 12.7833 3.78347 14.4413 4.69909 15.8242C4.76648 15.9259 4.75052 16.0615 4.66136 16.1448C3.08448 17.6187 1.9521 19.5613 1.48605 21.75H22.5145C22.0484 19.5613 20.916 17.6187 19.3392 16.1448C19.25 16.0615 19.2341 15.9259 19.3014 15.8242C20.2171 14.4413 20.7503 12.7833 20.7503 11C20.7503 6.16751 16.8328 2.25 12.0003 2.25Z" fill="black"/>
</svg>
