<svg width="24" height="24" viewBox="0 0 24 24" fill="none" xmlns="http://www.w3.org/2000/svg">
<path fill-rule="evenodd" clip-rule="evenodd" d="M12.0005 9.12162C11.0676 9.12162 10.3113 9.87789 10.3113 10.8108C10.3113 11.7437 11.0676 12.5 12.0005 12.5C12.9334 12.5 13.6897 11.7437 13.6897 10.8108C13.6897 9.87789 12.9334 9.12162 12.0005 9.12162ZM11.3113 10.8108C11.3113 10.4302 11.6198 10.1216 12.0005 10.1216C12.3811 10.1216 12.6897 10.4302 12.6897 10.8108C12.6897 11.1914 12.3811 11.5 12.0005 11.5C11.6198 11.5 11.3113 11.1914 11.3113 10.8108Z" fill="black"/>
<path fill-rule="evenodd" clip-rule="evenodd" d="M12.0005 6.74324C9.75402 6.74324 7.93291 8.56435 7.93291 10.8108C7.93291 13.0573 9.75402 14.8784 12.0005 14.8784C14.2469 14.8784 16.068 13.0573 16.068 10.8108C16.068 8.56435 14.2469 6.74324 12.0005 6.74324ZM8.93291 10.8108C8.93291 9.11664 10.3063 7.74324 12.0005 7.74324C13.6946 7.74324 15.068 9.11664 15.068 10.8108C15.068 12.505 13.6946 13.8784 12.0005 13.8784C10.3063 13.8784 8.93291 12.505 8.93291 10.8108Z" fill="black"/>
<path d="M6.64912 18.0405C6.37298 18.0405 6.14912 18.2644 6.14912 18.5405C6.14912 18.8167 6.37298 19.0405 6.64912 19.0405H17.3518C17.628 19.0405 17.8518 18.8167 17.8518 18.5405C17.8518 18.2644 17.628 18.0405 17.3518 18.0405H6.64912Z" fill="black"/>
<path fill-rule="evenodd" clip-rule="evenodd" d="M2.50027 11C2.50027 5.75329 6.75356 1.5 12.0003 1.5C17.247 1.5 21.5003 5.75329 21.5003 11C21.5003 12.7859 21.007 14.4578 20.1493 15.8856C21.7527 17.4958 22.8826 19.5795 23.3107 21.9097C23.3375 22.0556 23.2981 22.206 23.2031 22.32C23.1081 22.4341 22.9673 22.5 22.8189 22.5H1.18164C1.03322 22.5 0.892476 22.4341 0.79748 22.32C0.702483 22.206 0.663058 22.0556 0.689872 21.9097C1.11789 19.5795 2.24783 17.4958 3.85124 15.8856C2.99349 14.4578 2.50027 12.7859 2.50027 11ZM12.0003 2.5C7.30585 2.5 3.50027 6.30558 3.50027 11C3.50027 12.7327 4.01819 14.3429 4.90755 15.6862C5.04231 15.8897 5.0104 16.1608 4.83207 16.3275C3.3645 17.6992 2.29141 19.4861 1.7996 21.5H22.2009C21.7091 19.4861 20.636 17.6992 19.1685 16.3275C18.9901 16.1608 18.9582 15.8897 19.093 15.6862C19.9824 14.3429 20.5003 12.7327 20.5003 11C20.5003 6.30558 16.6947 2.5 12.0003 2.5Z" fill="black"/>
</svg>
