<svg width="24" height="24" viewBox="0 0 24 24" fill="none" xmlns="http://www.w3.org/2000/svg">
<path d="M11.9999 12C12.6566 12 13.1891 11.4676 13.1891 10.8108C13.1891 10.154 12.6566 9.62162 11.9999 9.62162C11.3431 9.62162 10.8107 10.154 10.8107 10.8108C10.8107 11.4676 11.3431 12 11.9999 12Z" fill="black"/>
<path fill-rule="evenodd" clip-rule="evenodd" d="M19.8124 16.2568C19.6405 16.0834 19.6091 15.8139 19.7341 15.6043C20.5377 14.2572 20.9994 12.6825 20.9994 11C20.9994 6.02944 16.97 2 11.9994 2C7.02885 2 2.99942 6.02944 2.99942 11C2.99942 12.6825 3.46111 14.2572 4.26472 15.6043C4.38978 15.8139 4.3583 16.0834 4.18646 16.2568C2.79766 17.658 1.78317 19.4308 1.30538 21.4129C1.23219 21.7165 1.46868 22 1.781 22H22.2178C22.5302 22 22.7666 21.7165 22.6935 21.4129C22.2157 19.4308 21.2012 17.658 19.8124 16.2568ZM11.9998 14.3784C13.9701 14.3784 15.5674 12.7811 15.5674 10.8108C15.5674 8.84049 13.9701 7.24324 11.9998 7.24324C10.0295 7.24324 8.43226 8.84049 8.43226 10.8108C8.43226 12.7811 10.0295 14.3784 11.9998 14.3784ZM6.39808 18.5405C6.39808 18.4025 6.51001 18.2905 6.64808 18.2905H17.3508C17.4889 18.2905 17.6008 18.4025 17.6008 18.5405C17.6008 18.6786 17.4889 18.7905 17.3508 18.7905H6.64808C6.51001 18.7905 6.39808 18.6786 6.39808 18.5405Z" fill="black"/>
</svg>
