<svg width="24" height="24" viewBox="0 0 24 24" fill="none" xmlns="http://www.w3.org/2000/svg">
<path fill-rule="evenodd" clip-rule="evenodd" d="M12.0005 8.87162C10.9295 8.87162 10.0613 9.73982 10.0613 10.8108C10.0613 11.8818 10.9295 12.75 12.0005 12.75C13.0715 12.75 13.9397 11.8818 13.9397 10.8108C13.9397 9.73982 13.0715 8.87162 12.0005 8.87162ZM11.5613 10.8108C11.5613 10.5682 11.7579 10.3716 12.0005 10.3716C12.243 10.3716 12.4397 10.5682 12.4397 10.8108C12.4397 11.0534 12.243 11.25 12.0005 11.25C11.7579 11.25 11.5613 11.0534 11.5613 10.8108Z" fill="black"/>
<path fill-rule="evenodd" clip-rule="evenodd" d="M12.0005 6.49324C9.61595 6.49324 7.68291 8.42628 7.68291 10.8108C7.68291 13.1953 9.61595 15.1284 12.0005 15.1284C14.385 15.1284 16.318 13.1953 16.318 10.8108C16.318 8.42628 14.385 6.49324 12.0005 6.49324ZM9.18291 10.8108C9.18291 9.25471 10.4444 7.99324 12.0005 7.99324C13.5566 7.99324 14.818 9.25471 14.818 10.8108C14.818 12.3669 13.5566 13.6284 12.0005 13.6284C10.4444 13.6284 9.18291 12.3669 9.18291 10.8108Z" fill="black"/>
<path d="M6.64913 17.7905C6.23491 17.7905 5.89913 18.1263 5.89913 18.5405C5.89913 18.9548 6.23491 19.2905 6.64913 19.2905H17.3518C17.766 19.2905 18.1018 18.9548 18.1018 18.5405C18.1018 18.1263 17.766 17.7905 17.3518 17.7905H6.64913Z" fill="black"/>
<path fill-rule="evenodd" clip-rule="evenodd" d="M2.25027 11C2.25027 5.61522 6.61549 1.25 12.0003 1.25C17.385 1.25 21.7503 5.61522 21.7503 11C21.7503 12.7634 21.2815 14.4191 20.4617 15.8473C22.028 17.4726 23.1313 19.5493 23.5566 21.8645C23.5968 22.0835 23.5376 22.309 23.3951 22.48C23.2526 22.6511 23.0415 22.75 22.8189 22.75H1.18165C0.959017 22.75 0.747894 22.6511 0.605399 22.48C0.462904 22.309 0.403767 22.0835 0.443988 21.8645C0.869262 19.5493 1.97255 17.4726 3.53883 15.8473C2.71902 14.4191 2.25027 12.7634 2.25027 11ZM12.0003 2.75C7.44392 2.75 3.75027 6.44365 3.75027 11C3.75027 12.6821 4.2529 14.2446 5.116 15.5481C5.31814 15.8534 5.27028 16.2601 5.00278 16.5101C3.64545 17.7788 2.63408 19.4108 2.12317 21.25H21.8774C21.3665 19.4108 20.3551 17.7788 18.9978 16.5101C18.7303 16.2601 18.6824 15.8534 18.8845 15.5481C19.7476 14.2446 20.2503 12.6821 20.2503 11C20.2503 6.44365 16.5566 2.75 12.0003 2.75Z" fill="black"/>
</svg>
