<svg width="24" height="24" viewBox="0 0 24 24" fill="none" xmlns="http://www.w3.org/2000/svg">
<path fill-rule="evenodd" clip-rule="evenodd" d="M12 8.87162C10.929 8.87162 10.0608 9.73982 10.0608 10.8108C10.0608 11.8818 10.929 12.75 12 12.75C13.071 12.75 13.9392 11.8818 13.9392 10.8108C13.9392 9.73982 13.071 8.87162 12 8.87162ZM11.5608 10.8108C11.5608 10.5682 11.7574 10.3716 12 10.3716C12.2425 10.3716 12.4392 10.5682 12.4392 10.8108C12.4392 11.0534 12.2425 11.25 12 11.25C11.7574 11.25 11.5608 11.0534 11.5608 10.8108Z" fill="black"/>
<path fill-rule="evenodd" clip-rule="evenodd" d="M12 6.49324C9.61546 6.49324 7.68242 8.42628 7.68242 10.8108C7.68242 13.1953 9.61546 15.1284 12 15.1284C14.3845 15.1284 16.3176 13.1953 16.3176 10.8108C16.3176 8.42628 14.3845 6.49324 12 6.49324ZM9.18242 10.8108C9.18242 9.25471 10.4439 7.99324 12 7.99324C13.5561 7.99324 14.8176 9.25471 14.8176 10.8108C14.8176 12.3669 13.5561 13.6284 12 13.6284C10.4439 13.6284 9.18242 12.3669 9.18242 10.8108Z" fill="black"/>
<path d="M6.64864 17.7905C6.23442 17.7905 5.89864 18.1263 5.89864 18.5405C5.89864 18.9548 6.23442 19.2905 6.64864 19.2905H17.3513C17.7656 19.2905 18.1013 18.9548 18.1013 18.5405C18.1013 18.1263 17.7656 17.7905 17.3513 17.7905H6.64864Z" fill="black"/>
<path fill-rule="evenodd" clip-rule="evenodd" d="M2.24978 11C2.24978 5.61522 6.61501 1.25 11.9998 1.25C17.3846 1.25 21.7498 5.61522 21.7498 11C21.7498 12.7634 21.281 14.4191 20.4612 15.8473C22.0275 17.4726 23.1308 19.5493 23.5561 21.8645C23.5963 22.0835 23.5371 22.309 23.3947 22.48C23.2522 22.6511 23.041 22.75 22.8184 22.75H1.18116C0.958529 22.75 0.747406 22.6511 0.604911 22.48C0.462416 22.309 0.403279 22.0835 0.4435 21.8645C0.868774 19.5493 1.97206 17.4726 3.53834 15.8473C2.71853 14.4191 2.24978 12.7634 2.24978 11ZM11.9998 2.75C7.44343 2.75 3.74978 6.44365 3.74978 11C3.74978 12.6821 4.25241 14.2446 5.11551 15.5481C5.31765 15.8534 5.2698 16.2601 5.00229 16.5101C3.64496 17.7788 2.63359 19.4108 2.12268 21.25H21.8769C21.366 19.4108 20.3546 17.7788 18.9973 16.5101C18.7298 16.2601 18.6819 15.8534 18.8841 15.5481C19.7472 14.2446 20.2498 12.6821 20.2498 11C20.2498 6.44365 16.5561 2.75 11.9998 2.75Z" fill="black"/>
</svg>
