<svg width="24" height="24" viewBox="0 0 24 24" fill="none" xmlns="http://www.w3.org/2000/svg">
<path d="M12.0002 12C12.657 12 13.1894 11.4676 13.1894 10.8108C13.1894 10.154 12.657 9.62162 12.0002 9.62162C11.3435 9.62162 10.811 10.154 10.811 10.8108C10.811 11.4676 11.3435 12 12.0002 12Z" fill="black"/>
<path fill-rule="evenodd" clip-rule="evenodd" d="M19.8127 16.2568C19.6409 16.0834 19.6094 15.8139 19.7345 15.6043C20.5381 14.2572 20.9998 12.6825 20.9998 11C20.9998 6.02944 16.9703 2 11.9998 2C7.02922 2 2.99978 6.02944 2.99978 11C2.99978 12.6825 3.46148 14.2572 4.26508 15.6043C4.39014 15.8139 4.35867 16.0834 4.18683 16.2568C2.79803 17.658 1.78353 19.4308 1.30575 21.4129C1.23256 21.7165 1.46905 22 1.78137 22H22.2182C22.5305 22 22.767 21.7165 22.6938 21.4129C22.216 19.4308 21.2015 17.658 19.8127 16.2568ZM12.0002 14.3784C13.9705 14.3784 15.5678 12.7811 15.5678 10.8108C15.5678 8.84049 13.9705 7.24324 12.0002 7.24324C10.0299 7.24324 8.43262 8.84049 8.43262 10.8108C8.43262 12.7811 10.0299 14.3784 12.0002 14.3784ZM6.14845 18.5405C6.14845 18.2644 6.3723 18.0405 6.64845 18.0405H17.3511C17.6273 18.0405 17.8511 18.2644 17.8511 18.5405C17.8511 18.8167 17.6273 19.0405 17.3511 19.0405H6.64845C6.3723 19.0405 6.14845 18.8167 6.14845 18.5405Z" fill="black"/>
</svg>
