<svg width="26" height="24" viewBox="0 0 26 24" fill="none" xmlns="http://www.w3.org/2000/svg">
<path d="M12.9998 12.3108C13.8283 12.3108 14.4998 11.6392 14.4998 10.8108C14.4998 9.98238 13.8283 9.31081 12.9998 9.31081C12.1714 9.31081 11.4998 9.98238 11.4998 10.8108C11.4998 11.6392 12.1714 12.3108 12.9998 12.3108Z" fill="black"/>
<path fill-rule="evenodd" clip-rule="evenodd" d="M13 5.99324C10.3393 5.99324 8.18243 8.15014 8.18243 10.8108C8.18243 13.4715 10.3393 15.6284 13 15.6284C15.6607 15.6284 17.8176 13.4715 17.8176 10.8108C17.8176 8.15014 15.6607 5.99324 13 5.99324ZM10.6824 10.8108C10.6824 9.53085 11.72 8.49324 13 8.49324C14.28 8.49324 15.3176 9.53085 15.3176 10.8108C15.3176 12.0908 14.28 13.1284 13 13.1284C11.72 13.1284 10.6824 12.0908 10.6824 10.8108Z" fill="black"/>
<path d="M7.64864 17.2905C6.95829 17.2905 6.39864 17.8502 6.39864 18.5405C6.39864 19.2309 6.95829 19.7905 7.64864 19.7905H18.3513C19.0417 19.7905 19.6013 19.2309 19.6013 18.5405C19.6013 17.8502 19.0417 17.2905 18.3513 17.2905H7.64864Z" fill="black"/>
<path fill-rule="evenodd" clip-rule="evenodd" d="M2.74979 11C2.74979 5.33908 7.33887 0.75 12.9998 0.75C18.6607 0.75 23.2498 5.33908 23.2498 11C23.2498 12.7208 22.8248 14.3449 22.074 15.7706C23.5724 17.422 24.6275 19.4861 25.0478 21.7742C25.1149 22.1391 25.0163 22.515 24.7788 22.8001C24.5413 23.0852 24.1895 23.25 23.8184 23.25H2.18116C1.81011 23.25 1.45824 23.0852 1.22075 22.8001C0.983258 22.515 0.884696 22.1391 0.951731 21.7742C1.37203 19.4861 2.42717 17.422 3.92559 15.7706C3.17474 14.3449 2.74979 12.7208 2.74979 11ZM12.9998 3.25C8.71958 3.25 5.24979 6.71979 5.24979 11C5.24979 12.581 5.72184 14.0479 6.53241 15.2721C6.86932 15.7809 6.78956 16.4587 6.34372 16.8754C5.21029 17.9348 4.33093 19.2598 3.80424 20.75H22.1953C21.6686 19.2598 20.7893 17.9348 19.6559 16.8754C19.21 16.4587 19.1303 15.7809 19.4672 15.2721C20.2777 14.0479 20.7498 12.581 20.7498 11C20.7498 6.71979 17.28 3.25 12.9998 3.25Z" fill="black"/>
</svg>
