<svg width="24" height="24" viewBox="0 0 24 24" fill="none" xmlns="http://www.w3.org/2000/svg">
<path d="M5.83994 8.09998C3.68603 8.09998 1.93994 9.84607 1.93994 12H0.939941C0.939941 9.29378 3.13375 7.09998 5.83994 7.09998C6.58305 7.09998 7.36643 7.4301 8.0838 7.85809C8.8127 8.29296 9.53307 8.86542 10.1636 9.42644C10.796 9.98918 11.3491 10.5504 11.7435 10.9701C11.941 11.1802 12.0995 11.3557 12.2089 11.4791C12.2637 11.5408 12.3063 11.5896 12.3354 11.6232L12.3689 11.6621L12.3778 11.6725L12.381 11.6762L12.3832 11.6789L12.3904 11.6873L12.4204 11.722C12.4471 11.7529 12.487 11.7986 12.539 11.8572C12.643 11.9744 12.7949 12.1427 12.9851 12.3451C13.366 12.7504 13.8972 13.2892 14.501 13.8264C15.1068 14.3654 15.7745 14.893 16.4284 15.2831C17.0939 15.6801 17.688 15.9 18.1599 15.9C20.3139 15.9 22.0599 14.1539 22.0599 12C22.0599 9.84606 20.3138 8.09998 18.1599 8.09998C17.688 8.09998 17.0938 8.31986 16.4284 8.71687C15.7745 9.107 15.1067 9.63454 14.501 10.1735C14.0733 10.5541 13.682 10.9354 13.3548 11.2695L13.287 11.1936C13.2378 11.1381 13.2005 11.0953 13.1762 11.0673L13.1499 11.0368L13.1443 11.0303L13.1422 11.0278L13.1389 11.0239L13.1283 11.0115L13.0913 10.9685C13.0597 10.9321 13.0145 10.8803 12.957 10.8155C12.8861 10.7356 12.7962 10.6355 12.6897 10.5195C13.0197 10.1844 13.4099 9.80579 13.8363 9.42645C14.4668 8.86542 15.1871 8.29296 15.916 7.8581C16.6334 7.43011 17.4168 7.09998 18.1599 7.09998C20.8661 7.09998 23.0599 9.29379 23.0599 12C23.0599 14.7062 20.8661 16.9 18.1599 16.9C17.4168 16.9 16.6334 16.5698 15.9161 16.1419C15.1872 15.707 14.4668 15.1345 13.8363 14.5735C13.2039 14.0108 12.6508 13.4496 12.2564 13.0299C12.0589 12.8197 11.9004 12.6443 11.7909 12.5209C11.7362 12.4591 11.6936 12.4104 11.6645 12.3767L11.631 12.3379L11.6221 12.3275L11.6189 12.3237C11.6189 12.3237 11.6186 12.3234 11.6471 12.2992L11.6189 12.3237L11.6167 12.3211L11.6094 12.3126L11.5795 12.2779C11.5528 12.2471 11.5129 12.2013 11.4609 12.1427C11.3569 12.0255 11.205 11.8572 11.0148 11.6549C10.6339 11.2496 10.1026 10.7108 9.49884 10.1735C8.89311 9.63454 8.22536 9.107 7.57144 8.71686C6.90599 8.31985 6.31186 8.09998 5.83994 8.09998Z" fill="black"/>
<path d="M10.856 12.9702L10.85 12.9632L10.8236 12.9326C10.7993 12.9046 10.762 12.8618 10.7128 12.8064L10.645 12.7304C10.3178 13.0645 9.9265 13.4459 9.4988 13.8264C8.89306 14.3654 8.22532 14.893 7.5714 15.2831C6.90595 15.6801 6.31182 15.9 5.8399 15.9C3.68599 15.9 1.93994 14.1539 1.93994 12H0.939941C0.939941 14.7062 3.1337 16.9 5.8399 16.9C6.583 16.9 7.36639 16.5699 8.08375 16.1419C8.81265 15.707 9.53303 15.1345 10.1635 14.5735C10.5899 14.1942 10.9801 13.8155 11.3101 13.4805C11.2036 13.3644 11.1137 13.2644 11.0428 13.1845C10.9853 13.1196 10.9401 13.0679 10.9085 13.0314L10.8715 12.9884L10.8609 12.976L10.8576 12.9722L10.856 12.9702Z" fill="black"/>
</svg>
