<svg width="24" height="24" viewBox="0 0 24 24" fill="none" xmlns="http://www.w3.org/2000/svg">
<path fill-rule="evenodd" clip-rule="evenodd" d="M5.83994 8.59998C3.96217 8.59998 2.43994 10.1222 2.43994 12H0.439941C0.439941 9.01764 2.8576 6.59998 5.83994 6.59998C6.71864 6.59998 7.59665 6.98523 8.33997 7.4287C9.10636 7.88593 9.85306 8.48086 10.496 9.0529C11.0866 9.57849 11.6083 10.1015 11.9999 10.5134C12.3916 10.1015 12.9132 9.57849 13.5039 9.05291C14.1468 8.48086 14.8935 7.88594 15.6599 7.42871C16.4032 6.98524 17.2812 6.59998 18.1599 6.59998C21.1422 6.59998 23.5599 9.01765 23.5599 12C23.5599 14.9823 21.1423 17.4 18.1599 17.4C17.2812 17.4 16.4032 17.0147 15.6599 16.5713C14.8935 16.114 14.1468 15.5191 13.5039 14.9471C12.9132 14.4214 12.3916 13.8984 11.9999 13.4865C11.6083 13.8984 11.0866 14.4215 10.4959 14.9471C9.85301 15.5191 9.10632 16.114 8.33993 16.5713C7.59661 17.0147 6.71859 17.4 5.8399 17.4C2.85756 17.4 0.439941 14.9823 0.439941 12H2.43994C2.43994 13.8777 3.96213 15.4 5.8399 15.4C6.17623 15.4 6.67572 15.2352 7.31522 14.8537C7.93165 14.4859 8.57308 13.9809 9.16643 13.4529C9.75592 12.9284 10.2763 12.4008 10.6504 12.0027C10.6513 12.0018 10.6521 12.0009 10.653 12C10.6521 11.9991 10.6513 11.9982 10.6505 11.9973C10.2763 11.5992 9.75596 11.0716 9.16647 10.547C8.57312 10.0191 7.93169 9.51402 7.31527 9.14625C6.67577 8.76472 6.17627 8.59998 5.83994 8.59998ZM13.3469 12C13.3477 12.0009 13.3486 12.0018 13.3494 12.0027C13.7235 12.4007 14.2439 12.9284 14.8334 13.4529C15.4268 13.9809 16.0682 14.4859 16.6846 14.8537C17.3241 15.2352 17.8236 15.4 18.1599 15.4C20.0377 15.4 21.5599 13.8777 21.5599 12C21.5599 10.1222 20.0377 8.59998 18.1599 8.59998C17.8236 8.59998 17.3241 8.76473 16.6846 9.14626C16.0681 9.51402 15.4267 10.0191 14.8334 10.5471C14.2439 11.0716 13.7235 11.5992 13.3494 11.9973C13.3486 11.9982 13.3477 11.9991 13.3469 12Z" fill="black"/>
</svg>
