<svg width="24" height="24" viewBox="0 0 24 24" fill="none" xmlns="http://www.w3.org/2000/svg">
<path fill-rule="evenodd" clip-rule="evenodd" d="M5.83945 8.3501C3.82361 8.3501 2.18945 9.98426 2.18945 12.0001H0.689453C0.689453 9.15583 2.99519 6.8501 5.83945 6.8501C6.65035 6.8501 7.48106 7.20779 8.2114 7.64352C8.95904 8.08957 9.69258 8.67326 10.3293 9.23979C10.9689 9.8089 11.5274 10.3757 11.9252 10.799C11.9506 10.826 11.9753 10.8524 11.9994 10.8783C12.0235 10.8524 12.0483 10.826 12.0736 10.799C12.4715 10.3757 13.03 9.80891 13.6696 9.2398C14.3063 8.67327 15.0398 8.08958 15.7875 7.64352C16.5178 7.2078 17.3485 6.85011 18.1594 6.85011C21.0037 6.85011 23.3094 9.15584 23.3094 12.0001C23.3094 14.8444 21.0037 17.1501 18.1595 17.1501C17.3486 17.1501 16.5178 16.7924 15.7875 16.3567C15.0399 15.9106 14.3063 15.3269 13.6696 14.7604C13.03 14.1913 12.4715 13.6245 12.0737 13.2012C12.0483 13.1742 12.0235 13.1477 11.9994 13.1219C11.9753 13.1477 11.9506 13.1742 11.9252 13.2012C11.5274 13.6245 10.9688 14.1913 10.3292 14.7604C9.69253 15.3269 8.959 15.9106 8.21135 16.3567C7.48101 16.7924 6.65031 17.1501 5.83941 17.1501C2.99514 17.1501 0.689453 14.8444 0.689453 12.0001H2.18945C2.18945 14.0159 3.82357 15.6501 5.83941 15.6501C6.24354 15.6501 6.79035 15.4578 7.44282 15.0685C8.078 14.6896 8.73258 14.1733 9.33212 13.6398C9.92877 13.1089 10.4546 12.5757 10.8321 12.174C10.8897 12.1127 10.9438 12.0546 10.994 12.0001C10.9438 11.9456 10.8897 11.8875 10.8321 11.8262C10.4546 11.4245 9.92882 10.8913 9.33217 10.3604C8.73263 9.82694 8.07804 9.31063 7.44287 8.93168C6.79039 8.54241 6.24358 8.3501 5.83945 8.3501ZM13.0049 12.0001C13.0551 12.0546 13.1092 12.1127 13.1668 12.174C13.5443 12.5757 14.0701 13.1089 14.6667 13.6398C15.2663 14.1733 15.9209 14.6896 16.556 15.0685C17.2085 15.4578 17.7553 15.6501 18.1595 15.6501C20.1753 15.6501 21.8095 14.0159 21.8095 12.0001C21.8095 9.98426 20.1752 8.35011 18.1594 8.35011C17.7553 8.35011 17.2085 8.54241 16.556 8.93169C15.9208 9.31064 15.2662 9.82694 14.6667 10.3604C14.07 10.8913 13.5442 11.4245 13.1667 11.8262C13.1091 11.8875 13.0551 11.9456 13.0049 12.0001Z" fill="black"/>
</svg>
