<svg width="24" height="24" viewBox="0 0 24 24" fill="none" xmlns="http://www.w3.org/2000/svg">
<path d="M5.83994 8.84998C4.10024 8.84998 2.68994 10.2603 2.68994 12H0.189941C0.189941 8.87957 2.71953 6.34998 5.83994 6.34998C6.78643 6.34998 7.71177 6.76279 8.46806 7.21401C9.2532 7.68242 10.013 8.28858 10.6621 8.86613C11.316 9.44798 11.8855 10.0259 12.2901 10.4565C12.4931 10.6725 12.6564 10.8533 12.77 10.9814C12.8268 11.0454 12.8714 11.0964 12.9023 11.1322L12.9385 11.1741L12.9487 11.1861L12.9517 11.1897L12.9528 11.1909L12.9541 11.1924L12.96 11.1994L12.9873 11.231C13.0121 11.2597 13.0501 11.3033 13.1 11.3595C13.1999 11.472 13.347 11.635 13.5316 11.8315C13.9023 12.2259 14.4173 12.748 14.9996 13.2661C15.5867 13.7886 16.215 14.2824 16.8127 14.639C17.4392 15.0128 17.8914 15.15 18.1599 15.15C19.8996 15.15 21.3099 13.7397 21.3099 12C21.3099 10.2603 19.8996 8.84998 18.1599 8.84998C17.8914 8.84998 17.4392 8.98716 16.8127 9.36095C16.215 9.71753 15.5867 10.2114 14.9996 10.7338L14.9469 10.7808C14.8982 10.7299 14.8514 10.6805 14.8068 10.633C14.6351 10.4503 14.4993 10.2998 14.4091 10.1981C14.364 10.1474 14.3306 10.1091 14.3101 10.0853L14.2877 10.0594L14.2869 10.0584L14.2852 10.0564L14.2806 10.0511L14.2675 10.0357L14.2251 9.98648C14.1899 9.94579 14.1408 9.88956 14.079 9.81999C13.9558 9.68105 13.7812 9.48776 13.5653 9.25803C13.4714 9.15815 13.3689 9.05053 13.2587 8.93675L13.3377 8.86614C13.9868 8.28858 14.7466 7.68243 15.5318 7.21401C16.2881 6.7628 17.2134 6.34998 18.1599 6.34998C21.2803 6.34998 23.8099 8.87957 23.8099 12C23.8099 15.1204 21.2803 17.65 18.1599 17.65C17.2135 17.65 16.2881 17.2372 15.5318 16.7859C14.7467 16.3175 13.9868 15.7114 13.3377 15.1338C12.6838 14.552 12.1144 13.974 11.7098 13.5435C11.5068 13.3275 11.3435 13.1467 11.2299 13.0186C11.173 12.9545 11.1285 12.9035 11.0976 12.8678L11.0614 12.8258L11.0512 12.8139L11.0471 12.8091L11.0465 12.8083L11.0458 12.8075L11.0399 12.8006L11.0126 12.7689C10.9877 12.7402 10.9498 12.6967 10.8999 12.6405C10.8 12.5279 10.6529 12.365 10.4683 12.1685C10.0976 11.774 9.58262 11.252 9.00029 10.7338C8.41313 10.2114 7.78486 9.71753 7.18718 9.36094C6.56066 8.98716 6.10848 8.84998 5.83994 8.84998Z" fill="black"/>
<path d="M9.71207 13.9406L9.68974 13.9147C9.66916 13.8909 9.63575 13.8526 9.59074 13.8018C9.50052 13.7002 9.36475 13.5497 9.19299 13.3669C9.14837 13.3195 9.10161 13.2701 9.05287 13.2191L9.00024 13.2661C8.41309 13.7886 7.78482 14.2824 7.18714 14.639C6.56061 15.0128 6.10843 15.15 5.8399 15.15C4.1002 15.15 2.68994 13.7397 2.68994 12H0.189941C0.189941 15.1204 2.71949 17.65 5.8399 17.65C6.78639 17.65 7.71172 17.2372 8.46802 16.786C9.25315 16.3175 10.013 15.7114 10.6621 15.1338L10.7411 15.0632C10.6309 14.9494 10.5284 14.8418 10.4345 14.7419C10.2186 14.5122 10.044 14.3189 9.92077 14.18C9.85905 14.1104 9.80995 14.0542 9.77471 14.0135L9.73232 13.9643L9.71916 13.9489L9.71464 13.9436L9.7129 13.9415L9.71207 13.9406Z" fill="black"/>
</svg>
