<svg width="24" height="24" viewBox="0 0 24 24" fill="none" xmlns="http://www.w3.org/2000/svg">
<path fill-rule="evenodd" clip-rule="evenodd" d="M5.83994 7.84998C3.54796 7.84998 1.68994 9.70799 1.68994 12H1.18994C1.18994 9.43185 3.27182 7.34998 5.83994 7.34998C6.51525 7.34998 7.25132 7.65254 7.95571 8.07278C8.66586 8.49647 9.37308 9.0577 9.9974 9.61321C10.6227 10.1696 11.1703 10.7252 11.5613 11.1413C11.7441 11.3358 11.893 11.5001 11.9999 11.6202C12.1069 11.5001 12.2557 11.3358 12.4385 11.1413C12.8295 10.7252 13.3772 10.1696 14.0024 9.61321C14.6268 9.0577 15.334 8.49647 16.0441 8.07279C16.7485 7.65255 17.4846 7.34998 18.1599 7.34998C20.728 7.34998 22.8099 9.43186 22.8099 12C22.8099 14.5681 20.7281 16.65 18.1599 16.65C17.4846 16.65 16.7486 16.3474 16.0442 15.9272C15.334 15.5035 14.6268 14.9423 14.0025 14.3867C13.3772 13.8304 12.8296 13.2748 12.4385 12.8587C12.2557 12.6642 12.1069 12.4998 11.9999 12.3797C11.893 12.4998 11.7441 12.6642 11.5613 12.8587C11.1703 13.2748 10.6226 13.8304 9.99735 14.3868C9.37304 14.9423 8.66582 15.5035 7.95566 15.9272C7.25128 16.3474 6.51521 16.65 5.8399 16.65C3.27177 16.65 1.18994 14.5681 1.18994 12H1.68994C1.68994 14.292 3.54792 16.15 5.8399 16.15C6.37962 16.15 7.02106 15.9025 7.69949 15.4978C8.37215 15.0965 9.05305 14.5577 9.66498 14.0132C10.2759 13.4696 10.8127 12.9252 11.1969 12.5163C11.3889 12.312 11.5425 12.1419 11.6479 12.0231C11.6549 12.0152 11.6618 12.0074 11.6684 12C11.6618 11.9925 11.655 11.9848 11.6479 11.9768C11.5426 11.8581 11.389 11.688 11.197 11.4837C10.8127 11.0748 10.276 10.5304 9.66503 9.98674C9.0531 9.44226 8.3722 8.90349 7.69953 8.50217C7.0211 8.09741 6.37966 7.84998 5.83994 7.84998ZM12.3314 12C12.3381 12.0074 12.3449 12.0152 12.352 12.0231C12.4573 12.1419 12.6109 12.312 12.8029 12.5163C13.1872 12.9252 13.7239 13.4696 14.3349 14.0132C14.9468 14.5577 15.6277 15.0965 16.3003 15.4978C16.9788 15.9025 17.6202 16.15 18.1599 16.15C20.4519 16.15 22.3099 14.292 22.3099 12C22.3099 9.70799 20.4519 7.84998 18.1599 7.84998C17.6202 7.84998 16.9787 8.09742 16.3003 8.50218C15.6276 8.90349 14.9467 9.44226 14.3348 9.98675C13.7238 10.5304 13.1871 11.0748 12.8028 11.4837C12.6109 11.688 12.4573 11.8581 12.3519 11.9768C12.3449 11.9848 12.3381 11.9925 12.3314 12Z" fill="black"/>
</svg>
