<svg width="24" height="24" viewBox="0 0 24 24" fill="none" xmlns="http://www.w3.org/2000/svg">
<path fill-rule="evenodd" clip-rule="evenodd" d="M0.123117 8.43565C0 9.21298 0 10.142 0 12C0 13.858 0 14.787 0.123117 15.5643C0.800832 19.8433 4.15673 23.1992 8.43565 23.8769C9.21298 24 10.142 24 12 24C13.858 24 14.787 24 15.5643 23.8769C19.8433 23.1992 23.1992 19.8433 23.8769 15.5643C24 14.787 24 13.858 24 12C24 10.142 24 9.21298 23.8769 8.43565C23.1992 4.15673 19.8433 0.800832 15.5643 0.123117C14.787 0 13.858 0 12 0C10.142 0 9.21298 0 8.43565 0.123117C4.15673 0.800832 0.800832 4.15673 0.123117 8.43565ZM5.96061 12.0001C5.96061 13.0678 6.8262 13.9334 7.89395 13.9334C8.02777 13.9334 8.29768 13.8603 8.70671 13.6163C9.09267 13.386 9.50275 13.0643 9.89005 12.7197C10.1705 12.4702 10.4275 12.219 10.6411 12.0001C10.4274 11.7812 10.1703 11.5299 9.8898 11.2803C9.50249 10.9357 9.09242 10.6139 8.70646 10.3836C8.29743 10.1396 8.02752 10.0665 7.89369 10.0665C6.82594 10.0665 5.96061 10.9323 5.96061 12.0001L3.96036 11.9999C3.96036 9.82755 5.72137 8.06654 7.89369 8.06654C8.56988 8.06654 9.21832 8.36012 9.73116 8.66609C10.2671 8.98583 10.7824 9.39742 11.2193 9.78613C11.5098 10.0446 11.7753 10.3017 12.0004 10.5299C12.2256 10.3017 12.4912 10.0445 12.7818 9.78594C13.2186 9.39723 13.734 8.98564 14.2699 8.6659C14.7827 8.35993 15.4312 8.06635 16.1074 8.06635C18.2797 8.06635 20.0407 9.82736 20.0407 11.9997H18.0407C18.0407 10.9319 17.1751 10.0663 16.1074 10.0663C15.9735 10.0663 15.7036 10.1394 15.2946 10.3835C14.9086 10.6137 14.4986 10.9355 14.1112 11.2801C13.8307 11.5297 13.5735 11.7811 13.3598 12C13.5735 12.219 13.8305 12.4702 14.111 12.7197C14.4983 13.0643 14.9083 13.3861 15.2943 13.6164C15.7033 13.8604 15.9732 13.9335 16.1071 13.9335C17.1748 13.9335 18.0407 13.0674 18.0407 11.9997H20.0407C20.0407 14.172 18.2794 15.9335 16.1071 15.9335C15.4309 15.9335 14.7825 15.6399 14.2696 15.3339C13.7337 15.0142 13.2183 14.6026 12.7815 14.2139C12.4911 13.9555 12.2256 13.6984 12.0005 13.4703C11.7754 13.6984 11.5099 13.9554 11.2195 14.2138C10.7827 14.6025 10.2673 15.0141 9.73142 15.3339C9.21857 15.6398 8.57014 15.9334 7.89395 15.9334C5.72163 15.9334 3.96036 14.1722 3.96036 11.9999L5.96061 12.0001Z" fill="black"/>
</svg>
