<svg width="24" height="24" viewBox="0 0 24 24" fill="none" xmlns="http://www.w3.org/2000/svg">
<path fill-rule="evenodd" clip-rule="evenodd" d="M5.83994 8.34998C3.8241 8.34998 2.18994 9.98414 2.18994 12H0.689941C0.689941 9.15571 2.99568 6.84998 5.83994 6.84998C6.65084 6.84998 7.48154 7.20767 8.21188 7.64339C8.95953 8.08945 9.69306 8.67314 10.3298 9.23967C10.9694 9.80878 11.5279 10.3756 11.9257 10.7989C11.9511 10.8259 11.9758 10.8523 11.9999 10.8782C12.024 10.8523 12.0488 10.8259 12.0741 10.7989C12.4719 10.3756 13.0305 9.80878 13.6701 9.23968C14.3068 8.67314 15.0403 8.08945 15.788 7.6434C16.5183 7.20767 17.349 6.84998 18.1599 6.84998C21.0042 6.84998 23.3099 9.15572 23.3099 12C23.3099 14.8442 21.0042 17.15 18.1599 17.15C17.349 17.15 16.5183 16.7923 15.788 16.3566C15.0404 15.9105 14.3068 15.3268 13.6701 14.7603C13.0305 14.1912 12.472 13.6244 12.0742 13.2011C12.0488 13.1741 12.024 13.1476 11.9999 13.1218C11.9758 13.1476 11.9511 13.1741 11.9257 13.2011C11.5279 13.6244 10.9693 14.1912 10.3297 14.7603C9.69302 15.3268 8.95949 15.9105 8.21184 16.3566C7.4815 16.7923 6.6508 17.15 5.8399 17.15C2.99563 17.15 0.689941 14.8442 0.689941 12H2.18994C2.18994 14.0158 3.82406 15.65 5.8399 15.65C6.24403 15.65 6.79084 15.4577 7.44331 15.0684C8.07848 14.6895 8.73307 14.1731 9.33261 13.6397C9.92926 13.1088 10.4551 12.5756 10.8326 12.1739C10.8902 12.1126 10.9443 12.0544 10.9945 12C10.9443 11.9455 10.8902 11.8874 10.8326 11.8261C10.4551 11.4244 9.92931 10.8912 9.33266 10.3603C8.73312 9.82682 8.07853 9.31051 7.44336 8.93156C6.79088 8.54228 6.24407 8.34998 5.83994 8.34998ZM13.0054 12C13.0556 12.0544 13.1096 12.1126 13.1672 12.1739C13.5447 12.5756 14.0706 13.1088 14.6672 13.6397C15.2668 14.1731 15.9214 14.6894 16.5565 15.0684C17.209 15.4577 17.7558 15.65 18.1599 15.65C20.1758 15.65 21.8099 14.0158 21.8099 12C21.8099 9.98414 20.1757 8.34998 18.1599 8.34998C17.7558 8.34998 17.209 8.54229 16.5565 8.93156C15.9213 9.31051 15.2667 9.82682 14.6672 10.3603C14.0705 10.8912 13.5447 11.4244 13.1672 11.8261C13.1096 11.8874 13.0556 11.9455 13.0054 12Z" fill="black"/>
</svg>
