<svg width="24" height="24" viewBox="0 0 24 24" fill="none" xmlns="http://www.w3.org/2000/svg">
<path fill-rule="evenodd" clip-rule="evenodd" d="M5.83994 8.84998C4.10024 8.84998 2.68994 10.2603 2.68994 12H0.189941C0.189941 8.87957 2.71953 6.34998 5.83994 6.34998C6.78643 6.34998 7.71177 6.76279 8.46806 7.21401C9.2532 7.68242 10.013 8.28858 10.6621 8.86613C11.1722 9.31996 11.6308 9.77142 11.9999 10.1524C12.369 9.77142 12.8277 9.31996 13.3377 8.86614C13.9868 8.28858 14.7466 7.68243 15.5318 7.21401C16.2881 6.7628 17.2134 6.34998 18.1599 6.34998C21.2803 6.34998 23.8099 8.87957 23.8099 12C23.8099 15.1204 21.2803 17.65 18.1599 17.65C17.2135 17.65 16.2881 17.2372 15.5318 16.7859C14.7467 16.3175 13.9868 15.7114 13.3377 15.1338C12.8277 14.68 12.369 14.2285 11.9999 13.8475C11.6308 14.2285 11.1721 14.68 10.6621 15.1338C10.013 15.7114 9.25315 16.3175 8.46802 16.786C7.71172 17.2372 6.78639 17.65 5.8399 17.65C2.71949 17.65 0.189941 15.1204 0.189941 12H2.68994C2.68994 13.7397 4.1002 15.15 5.8399 15.15C6.10843 15.15 6.56061 15.0128 7.18714 14.639C7.78482 14.2824 8.41309 13.7886 9.00024 13.2661C9.50302 12.8188 9.95555 12.3685 10.3084 12C9.95555 11.6314 9.50304 11.1812 9.00029 10.7338C8.41313 10.2114 7.78486 9.71753 7.18718 9.36094C6.56066 8.98716 6.10848 8.84998 5.83994 8.84998ZM13.6914 12C14.0443 12.3685 14.4968 12.8188 14.9996 13.2661C15.5867 13.7886 16.215 14.2824 16.8127 14.639C17.4392 15.0128 17.8914 15.15 18.1599 15.15C19.8996 15.15 21.3099 13.7397 21.3099 12C21.3099 10.2603 19.8996 8.84998 18.1599 8.84998C17.8914 8.84998 17.4392 8.98716 16.8127 9.36095C16.215 9.71753 15.5867 10.2114 14.9996 10.7338C14.4968 11.1812 14.0443 11.6314 13.6914 12Z" fill="black"/>
</svg>
