<svg width="24" height="24" viewBox="0 0 24 24" fill="none" xmlns="http://www.w3.org/2000/svg">
<path fill-rule="evenodd" clip-rule="evenodd" d="M5.83945 8.6001C3.96168 8.6001 2.43945 10.1223 2.43945 12.0001H0.439453C0.439453 9.01776 2.85712 6.6001 5.83945 6.6001C6.71815 6.6001 7.59617 6.98535 8.33948 7.42882C9.10588 7.88606 9.85257 8.48098 10.4955 9.05302C11.1422 9.6285 11.7062 10.2009 12.1074 10.6278C12.3086 10.8419 12.4702 11.0209 12.5825 11.1474C12.6386 11.2107 12.6825 11.2609 12.7129 11.296L12.7481 11.3369L12.7579 11.3483L12.7617 11.3528C12.7618 11.3529 12.7622 11.3534 12.4279 11.6369C12.4467 11.6209 12.4654 11.6051 12.4838 11.5894C12.7622 11.3534 12.7617 11.3528 12.7617 11.3528L12.7633 11.3547L12.7697 11.3622L12.7978 11.3948C12.8233 11.4242 12.8619 11.4685 12.9125 11.5255C13.0137 11.6396 13.1625 11.8044 13.3489 12.0028C13.723 12.4009 14.2434 12.9285 14.8329 13.453C15.4263 13.981 16.0677 14.4861 16.6841 14.8538C17.3236 15.2354 17.8231 15.4001 18.1595 15.4001C20.0372 15.4001 21.5595 13.8779 21.5595 12.0001C21.5595 10.1223 20.0372 8.60011 18.1594 8.60011C17.8231 8.60011 17.3236 8.76485 16.6841 9.14638C16.0677 9.51415 15.4262 10.0192 14.8329 10.5472C14.7503 10.6206 14.6691 10.6942 14.5895 10.7674C14.4322 10.5993 14.307 10.4604 14.2216 10.3641C14.1759 10.3126 14.1418 10.2736 14.1206 10.2491L14.0987 10.2237L14.0966 10.2212L14.0958 10.2203L14.0899 10.2133L14.0771 10.1984L14.0356 10.1503C14.001 10.1103 13.9526 10.0548 13.8915 9.98602C13.7697 9.84864 13.5967 9.65713 13.3826 9.42935C13.339 9.38299 13.2936 9.33495 13.2464 9.28539C13.3304 9.20823 13.4162 9.13066 13.5034 9.05303C14.1463 8.48099 14.893 7.88606 15.6594 7.42883C16.4027 6.98536 17.2807 6.60011 18.1594 6.60011C21.1417 6.60011 23.5594 9.01777 23.5594 12.0001C23.5594 14.9824 21.1418 17.4001 18.1595 17.4001C17.2808 17.4001 16.4027 17.0148 15.6594 16.5714C14.893 16.1141 14.1463 15.5192 13.5034 14.9472C12.8567 14.3717 12.2927 13.7993 11.8915 13.3724C11.6903 13.1583 11.5287 12.9793 11.4164 12.8528C11.3603 12.7895 11.3164 12.7393 11.286 12.7042L11.2508 12.6633L11.241 12.6519L11.2372 12.6474L11.2356 12.6455L11.2292 12.638L11.2011 12.6054C11.1756 12.576 11.137 12.5317 11.0864 12.4747C10.9852 12.3606 10.8364 12.1958 10.65 11.9974C10.2759 11.5993 9.75548 11.0717 9.16598 10.5472C8.57264 10.0192 7.93121 9.51414 7.31478 9.14637C6.67528 8.76484 6.17579 8.6001 5.83945 8.6001ZM12.4246 11.6396C12.3632 11.6917 12.2907 11.7532 12.2049 11.8259C12.3174 11.7306 12.4071 11.6545 12.4787 11.5938C12.4609 11.6089 12.4428 11.6242 12.4246 11.6396Z" fill="black"/>
<path d="M9.90224 13.779L9.90015 13.7765L9.87823 13.7511C9.85703 13.7266 9.82297 13.6876 9.77726 13.6361C9.69185 13.5398 9.56662 13.4009 9.40935 13.2328C9.32971 13.306 9.2485 13.3796 9.16594 13.453C8.57259 13.981 7.93116 14.4861 7.31474 14.8538C6.67524 15.2354 6.17574 15.4001 5.83941 15.4001C3.96164 15.4001 2.43945 13.8779 2.43945 12.0001H0.439453C0.439453 14.9824 2.85707 17.4001 5.83941 17.4001C6.7181 17.4001 7.59612 17.0148 8.33944 16.5714C9.10583 16.1141 9.85252 15.5192 10.4954 14.9472C10.5827 14.8695 10.6684 14.792 10.7524 14.7148C10.7052 14.6653 10.6598 14.6172 10.6162 14.5709C10.4022 14.3431 10.2292 14.1516 10.1073 14.0142C10.0463 13.9454 9.99782 13.8899 9.96319 13.8499L9.92169 13.8018L9.90896 13.7869L9.90301 13.7799L9.90224 13.779Z" fill="black"/>
</svg>
