<svg width="24" height="24" viewBox="0 0 24 24" fill="none" xmlns="http://www.w3.org/2000/svg">
<path fill-rule="evenodd" clip-rule="evenodd" d="M0.123117 8.43565C0 9.21298 0 10.142 0 12C0 13.858 0 14.787 0.123117 15.5643C0.800832 19.8433 4.15673 23.1992 8.43565 23.8769C9.21298 24 10.142 24 12 24C13.858 24 14.787 24 15.5643 23.8769C19.8433 23.1992 23.1992 19.8433 23.8769 15.5643C24 14.787 24 13.858 24 12C24 10.142 24 9.21298 23.8769 8.43565C23.1992 4.15673 19.8433 0.800832 15.5643 0.123117C14.787 0 13.858 0 12 0C10.142 0 9.21298 0 8.43565 0.123117C4.15673 0.800832 0.800832 4.15673 0.123117 8.43565ZM5.83561 12.0001C5.83561 13.1369 6.75716 14.0584 7.89395 14.0584C8.06167 14.0584 8.35524 13.9715 8.77076 13.7236C9.16609 13.4878 9.58274 13.1604 9.97314 12.8131C10.2943 12.5273 10.5847 12.2397 10.8152 12.0001C10.5847 11.7605 10.2942 11.4728 9.97289 11.1869C9.58249 10.8395 9.16583 10.5122 8.7705 10.2763C8.35499 10.0284 8.06142 9.94154 7.89369 9.94154C6.75691 9.94154 5.83561 10.8633 5.83561 12.0001L4.08536 11.9999C4.08536 9.89659 5.79041 8.19154 7.89369 8.19154C8.53599 8.19154 9.16076 8.47134 9.66712 8.77344C10.1937 9.08758 10.7024 9.49356 11.1362 9.87951C11.4635 10.1708 11.7591 10.4605 12.0004 10.7084C12.2418 10.4605 12.5375 10.1706 12.8649 9.87932C13.2986 9.49337 13.8074 9.08739 14.3339 8.77325C14.8403 8.47115 15.4651 8.19135 16.1074 8.19135C18.2106 8.19135 19.9157 9.89639 19.9157 11.9997H18.1657C18.1657 10.8629 17.2441 9.94135 16.1074 9.94135C15.9396 9.94135 15.6461 10.0282 15.2305 10.2761C14.8352 10.512 14.4186 10.8393 14.0282 11.1867C13.7068 11.4726 13.4163 11.7604 13.1858 12.0001C13.4162 12.2396 13.7067 12.5273 14.0279 12.8131C14.4183 13.1605 14.8349 13.4878 15.2303 13.7237C15.6458 13.9716 15.9393 14.0585 16.1071 14.0585C17.2439 14.0585 18.1657 13.1365 18.1657 11.9997H19.9157C19.9157 14.103 18.2104 15.8085 16.1071 15.8085C15.4648 15.8085 14.84 15.5287 14.3336 15.2266C13.8071 14.9124 13.2983 14.5064 12.8646 14.1205C12.5373 13.8293 12.2418 13.5396 12.0005 13.2917C11.7592 13.5396 11.4637 13.8293 11.1364 14.1204C10.7027 14.5064 10.1939 14.9124 9.66737 15.2265C9.16101 15.5286 8.53624 15.8084 7.89395 15.8084C5.79066 15.8084 4.08536 14.1032 4.08536 11.9999L5.83561 12.0001Z" fill="black"/>
</svg>
