<svg width="24" height="24" viewBox="0 0 24 24" fill="none" xmlns="http://www.w3.org/2000/svg">
<path d="M5.83945 8.1001C3.68554 8.1001 1.93945 9.84619 1.93945 12.0001H0.939453C0.939453 9.2939 3.13326 7.1001 5.83945 7.1001C6.58256 7.1001 7.36594 7.43023 8.08331 7.85821C8.81221 8.29308 9.53258 8.86554 10.1631 9.42656C10.7955 9.9893 11.3486 10.5505 11.743 10.9702C11.9405 11.1804 12.099 11.3558 12.2085 11.4792C12.2632 11.5409 12.3058 11.5897 12.3349 11.6233L12.3684 11.6622L12.3773 11.6726L12.3805 11.6763L12.3827 11.679L12.39 11.6874L12.4199 11.7222C12.4466 11.753 12.4865 11.7988 12.5385 11.8573C12.6425 11.9745 12.7944 12.1429 12.9846 12.3452C13.3655 12.7505 13.8967 13.2893 14.5006 13.8266C15.1063 14.3655 15.774 14.8931 16.4279 15.2832C17.0934 15.6802 17.6875 15.9001 18.1595 15.9001C20.3134 15.9001 22.0595 14.154 22.0595 12.0001C22.0595 9.84619 20.3133 8.10011 18.1594 8.10011C17.6875 8.10011 17.0934 8.31998 16.4279 8.71699C15.774 9.10713 15.1062 9.63466 14.5005 10.1736C14.0728 10.5542 13.6815 10.9355 13.3543 11.2697L13.2865 11.1937C13.2373 11.1383 13.2 11.0955 13.1757 11.0675L13.1494 11.0369L13.1439 11.0304L13.1417 11.0279L13.1384 11.0241L13.1278 11.0116L13.0908 10.9686C13.0592 10.9322 13.014 10.8804 12.9565 10.8156C12.8856 10.7357 12.7957 10.6357 12.6893 10.5196C13.0192 10.1845 13.4094 9.80591 13.8358 9.42657C14.4663 8.86555 15.1867 8.29309 15.9156 7.85822C16.6329 7.43023 17.4163 7.10011 18.1594 7.10011C20.8656 7.10011 23.0594 9.29391 23.0594 12.0001C23.0594 14.7063 20.8656 16.9001 18.1595 16.9001C17.4163 16.9001 16.633 16.57 15.9156 16.142C15.1867 15.7071 14.4663 15.1347 13.8358 14.5736C13.2034 14.0109 12.6503 13.4497 12.2559 13.03C12.0584 12.8198 11.8999 12.6444 11.7904 12.521C11.7357 12.4593 11.6931 12.4105 11.664 12.3769L11.6305 12.338L11.6216 12.3276L11.6184 12.3239C11.6184 12.3238 11.6181 12.3235 11.6466 12.2993L11.6184 12.3239L11.6162 12.3212L11.609 12.3128L11.579 12.278C11.5523 12.2472 11.5124 12.2014 11.4604 12.1429C11.3564 12.0256 11.2045 11.8573 11.0143 11.655C10.6334 11.2497 10.1022 10.7109 9.49835 10.1736C8.89262 9.63466 8.22487 9.10712 7.57096 8.71699C6.9055 8.31997 6.31138 8.1001 5.83945 8.1001Z" fill="black"/>
<path d="M10.8555 12.9704L10.8495 12.9633L10.8231 12.9327C10.7988 12.9047 10.7615 12.862 10.7123 12.8065L10.6446 12.7305C10.3173 13.0647 9.92601 13.446 9.49831 13.8266C8.89258 14.3655 8.22483 14.8931 7.57091 15.2832C6.90546 15.6802 6.31133 15.9001 5.83941 15.9001C3.6855 15.9001 1.93945 14.154 1.93945 12.0001H0.939453C0.939453 14.7063 3.13321 16.9001 5.83941 16.9001C6.58251 16.9001 7.3659 16.57 8.08326 16.142C8.81216 15.7071 9.53254 15.1347 10.163 14.5736C10.5894 14.1943 10.9796 13.8157 11.3096 13.4806C11.2031 13.3646 11.1132 13.2645 11.0424 13.1846C10.9848 13.1198 10.9396 13.068 10.9081 13.0316L10.871 12.9886L10.8604 12.9762L10.8571 12.9723L10.8555 12.9704Z" fill="black"/>
</svg>
