<svg width="24" height="24" viewBox="0 0 24 24" fill="none" xmlns="http://www.w3.org/2000/svg">
<path fill-rule="evenodd" clip-rule="evenodd" d="M0.123117 8.43565C0 9.21298 0 10.142 0 12C0 13.858 0 14.787 0.123117 15.5643C0.800832 19.8433 4.15673 23.1992 8.43565 23.8769C9.21298 24 10.142 24 12 24C13.858 24 14.787 24 15.5643 23.8769C19.8433 23.1992 23.1992 19.8433 23.8769 15.5643C24 14.787 24 13.858 24 12C24 10.142 24 9.21298 23.8769 8.43565C23.1992 4.15673 19.8433 0.800832 15.5643 0.123117C14.787 0 13.858 0 12 0C10.142 0 9.21298 0 8.43565 0.123117C4.15673 0.800832 0.800832 4.15673 0.123117 8.43565ZM5.21061 12.0001C5.21061 13.482 6.41198 14.6834 7.89395 14.6834C8.23116 14.6834 8.64301 14.5276 9.09098 14.2604C9.53317 13.9966 9.98272 13.6411 10.3886 13.28C10.7935 12.9197 11.1495 12.5586 11.4046 12.2872C11.5118 12.1731 11.6009 12.0752 11.668 12.0001C11.6009 11.925 11.5117 11.827 11.4043 11.7127C11.1493 11.4413 10.7933 11.0803 10.3884 10.72C9.98247 10.3588 9.53292 10.0034 9.09072 9.73956C8.64276 9.47231 8.23091 9.31654 7.89369 9.31654C6.41173 9.31654 5.21061 10.5181 5.21061 12.0001L4.71036 11.9999C4.71036 10.2418 6.13559 8.81654 7.89369 8.81654C8.3665 8.81654 8.87298 9.02743 9.3469 9.31018C9.82658 9.59636 10.3025 9.97426 10.7207 10.3464C11.14 10.7195 11.5069 11.0917 11.7687 11.3703C11.859 11.4664 11.937 11.5515 12.0004 11.6219C12.064 11.5515 12.142 11.4663 12.2324 11.3701C12.4942 11.0915 12.8611 10.7193 13.2803 10.3462C13.6986 9.97407 14.1745 9.59617 14.6541 9.30999C15.1281 9.02724 15.6346 8.81635 16.1074 8.81635C17.8655 8.81635 19.2907 10.2416 19.2907 11.9997H18.7907C18.7907 10.5177 17.5893 9.31635 16.1074 9.31635C15.7701 9.31635 15.3583 9.47212 14.9103 9.73937C14.4681 10.0032 14.0186 10.3586 13.6127 10.7198C13.2078 11.0801 12.8518 11.4412 12.5967 11.7126C12.4893 11.8268 12.4001 11.9249 12.3329 12.0001C12.4 12.0751 12.4892 12.1731 12.5964 12.2873C12.8515 12.5587 13.2075 12.9197 13.6124 13.28C14.0183 13.6412 14.4678 13.9966 14.91 14.2604C15.358 14.5277 15.7699 14.6835 16.1071 14.6835C17.589 14.6835 18.7907 13.4816 18.7907 11.9997H19.2907C19.2907 13.7578 17.8652 15.1835 16.1071 15.1835C15.6343 15.1835 15.1278 14.9726 14.6539 14.6898C14.1742 14.4036 13.6983 14.0257 13.28 13.6536C12.8608 13.2805 12.4939 12.9083 12.2321 12.6297C12.1419 12.5337 12.0639 12.4486 12.0005 12.3782C11.937 12.4486 11.8591 12.5336 11.7689 12.6296C11.5071 12.9082 11.1402 13.2805 10.721 13.6535C10.3027 14.0257 9.82684 14.4036 9.34715 14.6898C8.87324 14.9725 8.36675 15.1834 7.89395 15.1834C6.13584 15.1834 4.71036 13.758 4.71036 11.9999L5.21061 12.0001Z" fill="black"/>
</svg>
