<svg width="24" height="24" viewBox="0 0 24 24" fill="none" xmlns="http://www.w3.org/2000/svg">
<path fill-rule="evenodd" clip-rule="evenodd" d="M5.83994 8.34998C3.8241 8.34998 2.18994 9.98414 2.18994 12H0.689941C0.689941 9.15571 2.99568 6.84998 5.83994 6.84998C6.65084 6.84998 7.48154 7.20767 8.21188 7.64339C8.95953 8.08945 9.69306 8.67314 10.3298 9.23967C10.9694 9.80878 11.5279 10.3756 11.9257 10.7989C12.125 11.011 12.2851 11.1882 12.396 11.3132C12.4514 11.3757 12.4946 11.4252 12.5244 11.4595L12.5588 11.4994L12.5681 11.5104L12.5707 11.5135L12.5716 11.5144C12.5716 11.5145 12.572 11.5149 12.3528 11.7008C12.3734 11.6834 12.3935 11.6663 12.4133 11.6495C12.572 11.5149 12.5716 11.5145 12.5716 11.5144L12.5735 11.5167L12.5803 11.5247L12.6093 11.5584C12.6354 11.5885 12.6747 11.6335 12.726 11.6913C12.8286 11.807 12.9789 11.9735 13.1672 12.1739C13.5447 12.5756 14.0706 13.1088 14.6672 13.6397C15.2668 14.1731 15.9214 14.6894 16.5565 15.0684C17.209 15.4577 17.7558 15.65 18.1599 15.65C20.1758 15.65 21.8099 14.0158 21.8099 12C21.8099 9.98414 20.1757 8.34998 18.1599 8.34998C17.7558 8.34998 17.209 8.54229 16.5565 8.93156C15.9213 9.31051 15.2667 9.82682 14.6672 10.3603C14.3851 10.6113 14.1188 10.8628 13.8766 11.1007C13.7899 11.0061 13.7174 10.9253 13.661 10.8618C13.6132 10.8079 13.5772 10.7666 13.5542 10.74L13.5296 10.7115L13.5251 10.7063L13.5232 10.704L13.5195 10.6996L13.508 10.6862L13.4692 10.6412C13.4364 10.6033 13.3899 10.5501 13.331 10.4836C13.2204 10.359 13.0654 10.1872 12.8741 9.98292C13.1189 9.74383 13.3865 9.49198 13.6701 9.23968C14.3068 8.67314 15.0403 8.08945 15.788 7.6434C16.5183 7.20767 17.349 6.84998 18.1599 6.84998C21.0042 6.84998 23.3099 9.15572 23.3099 12C23.3099 14.8442 21.0042 17.15 18.1599 17.15C17.349 17.15 16.5183 16.7923 15.788 16.3566C15.0404 15.9105 14.3068 15.3268 13.6701 14.7603C13.0305 14.1912 12.472 13.6244 12.0742 13.2011C11.8748 12.989 11.7148 12.8117 11.6039 12.6868C11.5485 12.6243 11.5052 12.5748 11.4755 12.5404L11.4411 12.5005L11.4318 12.4896L11.4291 12.4865L11.4283 12.4855L11.4264 12.4832L11.4196 12.4753L11.3905 12.4416C11.3645 12.4115 11.3252 12.3664 11.2739 12.3086C11.1713 12.193 11.0209 12.0265 10.8326 11.8261C10.4551 11.4244 9.92931 10.8912 9.33266 10.3603C8.73312 9.82682 8.07853 9.31051 7.44336 8.93156C6.79088 8.54228 6.24407 8.34998 5.83994 8.34998ZM12.4083 11.6537C12.3893 11.6699 12.3699 11.6864 12.3501 11.7031C12.299 11.7464 12.2362 11.7997 12.1589 11.8652C12.2686 11.7722 12.3492 11.7039 12.4083 11.6537Z" fill="black"/>
<path d="M10.4747 13.2937L10.4702 13.2885L10.4456 13.26C10.4226 13.2334 10.3866 13.1921 10.3388 13.1382C10.2824 13.0747 10.2099 12.9939 10.1232 12.8993C9.88097 13.1371 9.61471 13.3887 9.33261 13.6397C8.73307 14.1731 8.07848 14.6895 7.44331 15.0684C6.79084 15.4577 6.24403 15.65 5.8399 15.65C3.82406 15.65 2.18994 14.0158 2.18994 12H0.689941C0.689941 14.8442 2.99563 17.15 5.8399 17.15C6.6508 17.15 7.4815 16.7923 8.21184 16.3566C8.95949 15.9105 9.69302 15.3268 10.3297 14.7603C10.6133 14.508 10.8809 14.2561 11.1257 14.017C10.9344 13.8128 10.7794 13.641 10.6688 13.5163C10.6099 13.4499 10.5634 13.3967 10.5306 13.3588L10.4918 13.3137L10.4803 13.3003L10.4766 13.296L10.4747 13.2937Z" fill="black"/>
</svg>
