<svg width="24" height="24" viewBox="0 0 24 24" fill="none" xmlns="http://www.w3.org/2000/svg">
<path d="M12 9.5C12.1381 9.5 12.25 9.61193 12.25 9.75V16.75C12.25 16.8881 12.1381 17 12 17C11.8619 17 11.75 16.8881 11.75 16.75V9.75C11.75 9.61193 11.8619 9.5 12 9.5Z" fill="black"/>
<path d="M12 6.25C12.2761 6.25 12.5 6.47386 12.5 6.75C12.5 7.02614 12.2761 7.25 12 7.25C11.7239 7.25 11.5 7.02614 11.5 6.75C11.5 6.47386 11.7239 6.25 12 6.25Z" fill="black"/>
<path fill-rule="evenodd" clip-rule="evenodd" d="M12 0C18.6274 0 24 5.37258 24 12C24 18.6274 18.6274 24 12 24C5.37258 24 0 18.6274 0 12C0 5.37258 5.37258 0 12 0ZM12 0.5C5.64873 0.5 0.5 5.64873 0.5 12C0.5 18.3513 5.64873 23.5 12 23.5C18.3513 23.5 23.5 18.3513 23.5 12C23.5 5.64873 18.3513 0.5 12 0.5Z" fill="black"/>
</svg>
