<svg width="24" height="24" viewBox="0 0 24 24" fill="none" xmlns="http://www.w3.org/2000/svg">
<path fill-rule="evenodd" clip-rule="evenodd" d="M12 0C18.6274 0 24 5.37258 24 12C24 18.6274 18.6274 24 12 24C5.37258 24 0 18.6274 0 12C0 5.37258 5.37258 0 12 0ZM12 10.75C11.0335 10.75 10.25 11.5335 10.25 12.5V16.5C10.25 17.4665 11.0335 18.25 12 18.25C12.9665 18.25 13.75 17.4665 13.75 16.5V12.5C13.75 11.5335 12.9665 10.75 12 10.75ZM12 5.5C10.8954 5.5 10 6.39543 10 7.5C10 8.60457 10.8954 9.5 12 9.5C13.1046 9.5 14 8.60457 14 7.5C14 6.39543 13.1046 5.5 12 5.5Z" fill="black"/>
</svg>
