<svg width="24" height="24" viewBox="0 0 24 24" fill="none" xmlns="http://www.w3.org/2000/svg">
<path fill-rule="evenodd" clip-rule="evenodd" d="M12 0C13.858 0 14.7871 -6.97747e-05 15.5645 0.123047C19.8433 0.800792 23.1992 4.1567 23.877 8.43555C24.0001 9.21287 24 10.142 24 12C24 13.858 24.0001 14.7871 23.877 15.5645C23.1992 19.8433 19.8433 23.1992 15.5645 23.877C14.7871 24.0001 13.858 24 12 24C10.142 24 9.21287 24.0001 8.43555 23.877C4.1567 23.1992 0.800792 19.8433 0.123047 15.5645C-6.97747e-05 14.7871 0 13.858 0 12C0 10.142 -6.97747e-05 9.21287 0.123047 8.43555C0.800792 4.1567 4.1567 0.800792 8.43555 0.123047C9.21287 -6.97747e-05 10.142 0 12 0ZM12 9.5C11.8619 9.5 11.75 9.61193 11.75 9.75V16.75C11.75 16.8881 11.8619 17 12 17C12.1381 17 12.25 16.8881 12.25 16.75V9.75C12.25 9.61193 12.1381 9.5 12 9.5ZM12 6.25C11.7239 6.25 11.5 6.47386 11.5 6.75C11.5 7.02614 11.7239 7.25 12 7.25C12.2761 7.25 12.5 7.02614 12.5 6.75C12.5 6.47386 12.2761 6.25 12 6.25Z" fill="black"/>
</svg>
