<svg width="24" height="24" viewBox="0 0 24 24" fill="none" xmlns="http://www.w3.org/2000/svg">
<path fill-rule="evenodd" clip-rule="evenodd" d="M12 0C18.6274 0 24 5.37258 24 12C24 18.6274 18.6274 24 12 24C5.37258 24 0 18.6274 0 12C0 5.37258 5.37258 0 12 0ZM12 9.5C11.7239 9.5 11.5 9.72386 11.5 10V17C11.5 17.2761 11.7239 17.5 12 17.5C12.2761 17.5 12.5 17.2761 12.5 17V10C12.5 9.72386 12.2761 9.5 12 9.5ZM12 6C11.5858 6 11.25 6.33579 11.25 6.75C11.25 7.16421 11.5858 7.5 12 7.5C12.4142 7.5 12.75 7.16421 12.75 6.75C12.75 6.33579 12.4142 6 12 6Z" fill="black"/>
</svg>
