<svg width="24" height="24" viewBox="0 0 24 24" fill="none" xmlns="http://www.w3.org/2000/svg">
<path fill-rule="evenodd" clip-rule="evenodd" d="M12 0C18.6274 0 24 5.37258 24 12C24 18.6274 18.6274 24 12 24C5.37258 24 0 18.6274 0 12C0 5.37258 5.37258 0 12 0ZM12 10C11.1716 10 10.5 10.6716 10.5 11.5V16.5C10.5 17.3284 11.1716 18 12 18C12.8284 18 13.5 17.3284 13.5 16.5V11.5C13.5 10.6716 12.8284 10 12 10ZM12 5.5C11.0335 5.5 10.25 6.2835 10.25 7.25C10.25 8.2165 11.0335 9 12 9C12.9665 9 13.75 8.2165 13.75 7.25C13.75 6.2835 12.9665 5.5 12 5.5Z" fill="black"/>
</svg>
