<svg width="24" height="24" viewBox="0 0 24 24" fill="none" xmlns="http://www.w3.org/2000/svg">
<path fill-rule="evenodd" clip-rule="evenodd" d="M12 0C13.858 0 14.7871 -6.97747e-05 15.5645 0.123047C19.8433 0.800792 23.1992 4.1567 23.877 8.43555C24.0001 9.21287 24 10.142 24 12C24 13.858 24.0001 14.7871 23.877 15.5645C23.1992 19.8433 19.8433 23.1992 15.5645 23.877C14.7871 24.0001 13.858 24 12 24C10.142 24 9.21287 24.0001 8.43555 23.877C4.1567 23.1992 0.800792 19.8433 0.123047 15.5645C-6.97747e-05 14.7871 0 13.858 0 12C0 10.142 -6.97747e-05 9.21287 0.123047 8.43555C0.800792 4.1567 4.1567 0.800792 8.43555 0.123047C9.21287 -6.97747e-05 10.142 0 12 0ZM12 10.75C11.0335 10.75 10.25 11.5335 10.25 12.5V16.5C10.25 17.4665 11.0335 18.25 12 18.25C12.9665 18.25 13.75 17.4665 13.75 16.5V12.5C13.75 11.5335 12.9665 10.75 12 10.75ZM12 5.5C10.8954 5.5 10 6.39543 10 7.5C10 8.60457 10.8954 9.5 12 9.5C13.1046 9.5 14 8.60457 14 7.5C14 6.39543 13.1046 5.5 12 5.5Z" fill="black"/>
</svg>
