<svg width="24" height="24" viewBox="0 0 24 24" fill="none" xmlns="http://www.w3.org/2000/svg">
<path fill-rule="evenodd" clip-rule="evenodd" d="M12 0C18.6274 0 24 5.37258 24 12C24 18.6274 18.6274 24 12 24C5.37258 24 0 18.6274 0 12C0 5.37258 5.37258 0 12 0ZM12 9.5C11.8619 9.5 11.75 9.61193 11.75 9.75V16.75C11.75 16.8881 11.8619 17 12 17C12.1381 17 12.25 16.8881 12.25 16.75V9.75C12.25 9.61193 12.1381 9.5 12 9.5ZM12 6.25C11.7239 6.25 11.5 6.47386 11.5 6.75C11.5 7.02614 11.7239 7.25 12 7.25C12.2761 7.25 12.5 7.02614 12.5 6.75C12.5 6.47386 12.2761 6.25 12 6.25Z" fill="black"/>
</svg>
