<svg width="24" height="24" viewBox="0 0 24 24" fill="none" xmlns="http://www.w3.org/2000/svg">
<path fill-rule="evenodd" clip-rule="evenodd" d="M11.25 21.9723C6.07746 21.5888 2 17.2706 2 12C2 6.47715 6.47715 2 12 2C17.2706 2 21.5888 6.07751 21.9723 11.2501C21.9907 11.4977 22 11.7478 22 12C22 17.5229 17.5229 22 12 22C11.7477 22 11.4976 21.9907 11.25 21.9723ZM11.25 20.4674L11.25 13.7067C11.25 13.4263 11.25 13.1724 11.2673 12.9608C11.2858 12.7338 11.328 12.4904 11.4498 12.2511C11.6256 11.9062 11.9061 11.6257 12.251 11.4499C12.4903 11.3281 12.7337 11.2859 12.9608 11.2674C13.1723 11.2501 13.4261 11.2501 13.7064 11.2501L20.4674 11.2501C20.0877 6.90692 16.4417 3.5 12 3.5C7.30558 3.5 3.5 7.30558 3.5 12C3.5 16.4417 6.90687 20.0877 11.25 20.4674Z" fill="black"/>
</svg>
