<svg width="24" height="24" viewBox="0 0 24 24" fill="none" xmlns="http://www.w3.org/2000/svg">
<path fill-rule="evenodd" clip-rule="evenodd" d="M8.99982 16C9.16799 16 9.33478 15.9941 9.49999 15.9824V19.6208C9.49998 20.0233 9.49998 20.3555 9.52208 20.6261C9.54505 20.9071 9.59433 21.1655 9.71797 21.4081C9.90972 21.7844 10.2157 22.0904 10.592 22.2822C10.8347 22.4058 11.093 22.4551 11.3741 22.478C11.6447 22.5002 11.9768 22.5001 12.3793 22.5001H19.6206C20.0231 22.5001 20.3553 22.5002 20.6259 22.478C20.9069 22.4551 21.1653 22.4058 21.408 22.2822C21.7843 22.0904 22.0903 21.7844 22.282 21.4081C22.4056 21.1655 22.4549 20.9071 22.4779 20.6261C22.5 20.3555 22.5 20.0233 22.5 19.6209V12.3795C22.5 11.977 22.5 11.6448 22.4779 11.3742C22.4549 11.0932 22.4056 10.8348 22.282 10.5922C22.0903 10.2158 21.7843 9.90987 21.408 9.71813C21.1653 9.59448 20.9069 9.5452 20.6259 9.52224C20.3553 9.50013 20.0231 9.50013 19.6206 9.50014H15.9822C15.9939 9.33494 15.9998 9.16816 15.9998 9C15.9998 5.13401 12.8658 2 8.99982 2C5.13382 2 1.99982 5.13401 1.99982 9C1.99982 12.866 5.13382 16 8.99982 16ZM8.99982 15C9.16825 15 9.33507 14.9931 9.49999 14.9794V12.3795C9.49998 11.977 9.49998 11.6448 9.52208 11.3742C9.54505 11.0932 9.59433 10.8348 9.71797 10.5922C9.90972 10.2158 10.2157 9.90987 10.592 9.71813C10.8347 9.59448 11.093 9.5452 11.3741 9.52224C11.6447 9.50013 11.9769 9.50013 12.3793 9.50014H14.9793C14.9929 9.33523 14.9998 9.16842 14.9998 9C14.9998 5.68629 12.3135 3 8.99982 3C5.68611 3 2.99982 5.68629 2.99982 9C2.99982 12.3137 5.68611 15 8.99982 15Z" fill="black"/>
</svg>
