<svg width="24" height="24" viewBox="0 0 24 24" fill="none" xmlns="http://www.w3.org/2000/svg">
<path fill-rule="evenodd" clip-rule="evenodd" d="M9.24999 15.9956C9.16696 15.9985 9.08356 16 8.99982 16C5.13382 16 1.99982 12.866 1.99982 9C1.99982 5.13401 5.13382 2 8.99982 2C12.8658 2 15.9998 5.13401 15.9998 9C15.9998 9.08373 15.9983 9.16712 15.9954 9.25014L20.2935 9.25014C20.5738 9.25012 20.8277 9.25011 21.0393 9.26739C21.2663 9.28594 21.5098 9.32807 21.749 9.44996C22.0939 9.62573 22.3744 9.90619 22.5502 10.2512C22.6721 10.4904 22.7142 10.7338 22.7327 10.9609C22.75 11.1724 22.75 11.4263 22.75 11.7067V20.2936C22.75 20.574 22.75 20.8279 22.7327 21.0394C22.7142 21.2664 22.6721 21.5099 22.5502 21.7491C22.3744 22.0941 22.0939 22.3745 21.749 22.5503C21.5098 22.6722 21.2663 22.7143 21.0393 22.7329C20.8277 22.7502 20.5738 22.7502 20.2935 22.7501H11.7065C11.4262 22.7502 11.1723 22.7502 10.9607 22.7329C10.7337 22.7143 10.4902 22.6722 10.251 22.5503C9.90604 22.3745 9.62558 22.0941 9.44981 21.7491C9.32792 21.5099 9.28579 21.2664 9.26724 21.0394C9.24995 20.8279 9.24997 20.574 9.24999 20.2936L9.24999 15.9956ZM9.24999 14.4944C9.16706 14.4981 9.08366 14.5 8.99982 14.5C5.96225 14.5 3.49982 12.0376 3.49982 9C3.49982 5.96243 5.96225 3.5 8.99982 3.5C12.0374 3.5 14.4998 5.96243 14.4998 9C14.4998 9.08383 14.4979 9.16722 14.4942 9.25014L11.7065 9.25014C11.4262 9.25012 11.1723 9.25011 10.9607 9.26739C10.7337 9.28594 10.4902 9.32807 10.251 9.44996C9.90604 9.62573 9.62558 9.90619 9.44981 10.2512C9.32792 10.4904 9.28579 10.7338 9.26724 10.9609C9.24995 11.1724 9.24997 11.4263 9.24999 11.7067L9.24999 14.4944ZM10.932 10.7865C10.9305 10.7872 10.9303 10.7872 10.932 10.7865C10.9388 10.7837 10.9758 10.7712 11.0829 10.7624C11.2259 10.7507 11.4176 10.7501 11.7333 10.7501H20.2667C20.5824 10.7501 20.7741 10.7507 20.9171 10.7624C21.0242 10.7712 21.0612 10.7837 21.068 10.7865C21.1307 10.8184 21.1817 10.8694 21.2137 10.9321C21.2129 10.9306 21.213 10.9304 21.2137 10.9321C21.2164 10.939 21.229 10.976 21.2377 11.083C21.2494 11.226 21.25 11.4177 21.25 11.7335V20.2668C21.25 20.5825 21.2494 20.7742 21.2377 20.9173C21.229 21.0243 21.2164 21.0613 21.2137 21.0681C21.1817 21.1309 21.1307 21.1819 21.068 21.2138C21.0612 21.2166 21.0242 21.2291 20.9171 21.2379C20.7741 21.2496 20.5824 21.2501 20.2667 21.2501H11.7333C11.4176 21.2501 11.2259 21.2496 11.0829 21.2379C10.9758 21.2291 10.9388 21.2166 10.932 21.2138C10.8693 21.1819 10.8183 21.1309 10.7863 21.0681C10.7871 21.0697 10.787 21.0699 10.7863 21.0681C10.7835 21.0613 10.771 21.0243 10.7623 20.9173C10.7506 20.7742 10.75 20.5825 10.75 20.2668V11.7335C10.75 11.4177 10.7506 11.226 10.7623 11.083C10.771 10.976 10.7835 10.9389 10.7863 10.9321C10.787 10.9304 10.7871 10.9306 10.7863 10.9321C10.8183 10.8694 10.8693 10.8184 10.932 10.7865ZM21.068 21.2138C21.0692 21.2132 21.0687 21.2135 21.068 21.2138Z" fill="black"/>
</svg>
