<svg width="24" height="24" viewBox="0 0 24 24" fill="none" xmlns="http://www.w3.org/2000/svg">
<path fill-rule="evenodd" clip-rule="evenodd" d="M8.74999 15.9956C4.9997 15.8641 1.99982 12.7824 1.99982 9C1.99982 5.13401 5.13382 2 8.99982 2C12.7822 2 15.8639 4.99987 15.9954 8.75014L20.3044 8.75014C20.5749 8.75009 20.8475 8.75005 21.08 8.76905C21.3379 8.79013 21.6545 8.84067 21.976 9.00446C22.415 9.22816 22.772 9.58512 22.9957 10.0242C23.1595 10.3456 23.21 10.6622 23.2311 10.9202C23.2501 11.1527 23.25 11.4252 23.25 11.6956V20.3046C23.25 20.575 23.2501 20.8476 23.2311 21.0801C23.21 21.3381 23.1595 21.6547 22.9957 21.9761C22.772 22.4152 22.415 22.7721 21.976 22.9958C21.6545 23.1596 21.3379 23.2102 21.08 23.2312C20.8475 23.2502 20.5749 23.2502 20.3045 23.2501H11.6955C11.4251 23.2502 11.1525 23.2502 10.92 23.2312C10.6621 23.2102 10.3455 23.1596 10.024 22.9958C9.58496 22.7721 9.22801 22.4152 9.00431 21.9761C8.84052 21.6547 8.78997 21.3381 8.7689 21.0801C8.7499 20.8476 8.74994 20.575 8.74998 20.3046L8.74999 15.9956ZM8.74999 13.4932C6.38091 13.3635 4.49982 11.4014 4.49982 9C4.49982 6.51472 6.51454 4.5 8.99982 4.5C11.4013 4.5 13.3633 6.38108 13.493 8.75014L11.6955 8.75014C11.4251 8.75009 11.1525 8.75005 10.92 8.76905C10.6621 8.79013 10.3455 8.84067 10.024 9.00446C9.58496 9.22816 9.22801 9.58512 9.00431 10.0242C8.84052 10.3456 8.78997 10.6622 8.7689 10.9202C8.7499 11.1527 8.74994 11.4252 8.74998 11.6957L8.74999 13.4932ZM11.25 11.7335C11.25 11.512 11.2504 11.3634 11.2538 11.254C11.3633 11.2506 11.5118 11.2501 11.7333 11.2501H20.2667C20.4882 11.2501 20.6367 11.2506 20.7462 11.254C20.7495 11.3634 20.75 11.512 20.75 11.7335V20.2668C20.75 20.4883 20.7495 20.6368 20.7462 20.7463C20.6367 20.7497 20.4882 20.7501 20.2667 20.7501H11.7333C11.5118 20.7501 11.3633 20.7497 11.2538 20.7463C11.2504 20.6368 11.25 20.4883 11.25 20.2668V11.7335Z" fill="black"/>
</svg>
