<svg width="24" height="24" viewBox="0 0 24 24" fill="none" xmlns="http://www.w3.org/2000/svg">
<path fill-rule="evenodd" clip-rule="evenodd" d="M9 16C9.25343 16 9.50371 15.9865 9.75017 15.9603V19.6112C9.75017 20.0219 9.75017 20.3454 9.77144 20.6057C9.79314 20.8713 9.83821 21.0931 9.94091 21.2946C10.1087 21.6239 10.3764 21.8916 10.7057 22.0594C10.9072 22.1621 11.129 22.2072 11.3946 22.2289C11.6549 22.2501 11.9784 22.2501 12.3889 22.2501H19.6113C20.0219 22.2501 20.3454 22.2501 20.6057 22.2289C20.8713 22.2072 21.0931 22.1621 21.2947 22.0594C21.6239 21.8916 21.8917 21.6239 22.0594 21.2946C22.1621 21.0931 22.2072 20.8713 22.2289 20.6057C22.2502 20.3454 22.2502 20.0219 22.2502 19.6114V12.389C22.2502 11.9785 22.2502 11.6549 22.2289 11.3946C22.2072 11.129 22.1621 10.9072 22.0594 10.7057C21.8917 10.3764 21.6239 10.1087 21.2947 9.94088C21.0931 9.83818 20.8713 9.79311 20.6057 9.77141C20.3454 9.75014 20.0219 9.75014 19.6113 9.75014H15.9603C15.9865 9.50369 16 9.25342 16 9C16 5.13401 12.866 2 9 2C5.13401 2 2 5.13401 2 9C2 12.866 5.13401 16 9 16ZM9 15.5C9.25371 15.5 9.50403 15.4855 9.75017 15.4572V12.389C9.75017 11.9784 9.75017 11.6549 9.77144 11.3946C9.79314 11.129 9.83821 10.9072 9.94091 10.7057C10.1087 10.3764 10.3764 10.1087 10.7057 9.94088C10.9072 9.83818 11.129 9.79311 11.3946 9.77141C11.6549 9.75014 11.9784 9.75014 12.3891 9.75014H15.4572C15.4855 9.50401 15.5 9.2537 15.5 9C15.5 5.41015 12.5899 2.5 9 2.5C5.41015 2.5 2.5 5.41015 2.5 9C2.5 12.5899 5.41015 15.5 9 15.5Z" fill="black"/>
</svg>
