<svg width="24" height="24" viewBox="0 0 24 24" fill="none" xmlns="http://www.w3.org/2000/svg">
<path fill-rule="evenodd" clip-rule="evenodd" d="M9.74999 15.9603C9.50353 15.9865 9.25324 16 8.99982 16C5.13382 16 1.99982 12.866 1.99982 9C1.99982 5.13401 5.13382 2 8.99982 2C12.8658 2 15.9998 5.13401 15.9998 9C15.9998 9.25342 15.9864 9.50369 15.9601 9.75014H20.2774C20.5717 9.75014 20.8077 9.75014 20.9985 9.76573C21.1947 9.78175 21.365 9.81548 21.522 9.89546C21.7729 10.0233 21.9768 10.2273 22.1047 10.4782C22.1847 10.6351 22.2184 10.8055 22.2344 11.0016C22.25 11.1924 22.25 11.4284 22.25 11.7225V20.2776C22.25 20.5717 22.25 20.8079 22.2344 20.9987C22.2184 21.1948 22.1847 21.3651 22.1047 21.5221C21.9768 21.773 21.7729 21.977 21.522 22.1048C21.365 22.1848 21.1947 22.2185 20.9985 22.2346C20.8077 22.2501 20.5718 22.2501 20.2777 22.2501H11.7225C11.4284 22.2501 11.1922 22.2501 11.0014 22.2346C10.8053 22.2185 10.635 22.1848 10.478 22.1048C10.2271 21.977 10.0231 21.773 9.89531 21.5221C9.81532 21.3651 9.7816 21.1948 9.76558 20.9987C9.74998 20.8078 9.74999 20.5718 9.74999 20.2776V15.9603ZM9.74999 15.4572C9.50385 15.4855 9.25353 15.5 8.99982 15.5C5.40997 15.5 2.49982 12.5899 2.49982 9C2.49982 5.41015 5.40997 2.5 8.99982 2.5C12.5897 2.5 15.4998 5.41015 15.4998 9C15.4998 9.2537 15.4853 9.50401 15.457 9.75014H11.7225C11.4283 9.75014 11.1923 9.75014 11.0014 9.76573C10.8053 9.78175 10.635 9.81548 10.478 9.89546C10.2271 10.0233 10.0231 10.2273 9.89531 10.4782C9.81532 10.6351 9.7816 10.8055 9.76558 11.0016C9.74998 11.1924 9.74999 11.4285 9.74999 11.7227V15.4572ZM10.705 10.341C10.7797 10.3029 10.877 10.2776 11.0421 10.2641C11.2103 10.2503 11.4258 10.2501 11.7333 10.2501H20.2667C20.5741 10.2501 20.7897 10.2503 20.9578 10.2641C21.123 10.2776 21.2202 10.3029 21.295 10.341C21.4518 10.4209 21.5793 10.5483 21.6592 10.7051C21.6972 10.7799 21.7226 10.8771 21.7361 11.0423C21.7498 11.2104 21.75 11.426 21.75 11.7335V20.2668C21.75 20.5743 21.7498 20.7899 21.7361 20.958C21.7226 21.1232 21.6972 21.2204 21.6592 21.2951C21.5793 21.4519 21.4518 21.5794 21.295 21.6593C21.2202 21.6974 21.123 21.7227 20.9578 21.7362C20.7897 21.7499 20.5741 21.7501 20.2667 21.7501H11.7333C11.4258 21.7501 11.2103 21.7499 11.0421 21.7362C10.877 21.7227 10.7797 21.6974 10.705 21.6593C10.5482 21.5794 10.4207 21.4519 10.3408 21.2951C10.3027 21.2204 10.2774 21.1232 10.2639 20.958C10.2502 20.7899 10.25 20.5743 10.25 20.2668V11.7335C10.25 11.426 10.2502 11.2104 10.2639 11.0423C10.2774 10.8771 10.3027 10.7799 10.3408 10.7051C10.4207 10.5483 10.5482 10.4209 10.705 10.341Z" fill="black"/>
</svg>
