<svg width="24" height="24" viewBox="0 0 24 24" fill="none" xmlns="http://www.w3.org/2000/svg">
<path fill-rule="evenodd" clip-rule="evenodd" d="M9 16C8.99998 16 9.00002 16 9 16C5.13401 16 2 12.866 2 9C2 5.13401 5.13401 2 9 2C12.866 2 16 5.13401 16 9C16 9.00002 16 8.99998 16 9L19.6361 9.00005C20.0252 9.00003 20.3754 9.00002 20.6667 9.02382C20.9786 9.0493 21.3101 9.107 21.635 9.27254C22.1054 9.51222 22.4879 9.89468 22.7276 10.3651C22.8931 10.69 22.9508 11.0215 22.9763 11.3334C23.0001 11.6247 23.0001 11.9748 23.0001 12.3639V19.6361C23.0001 20.0252 23.0001 20.3754 22.9763 20.6667C22.9508 20.9787 22.8931 21.3101 22.7276 21.635C22.4879 22.1054 22.1054 22.4879 21.635 22.7276C21.3101 22.8931 20.9786 22.9508 20.6667 22.9763C20.3754 23.0001 20.0252 23.0001 19.6361 23.0001L12.4 23.0001M14 9C14 11.7614 11.7614 14 9 14C6.23858 14 4 11.7614 4 9C4 6.23858 6.23858 4 9 4C11.7614 4 14 6.23858 14 9Z" fill="black"/>
<path d="M9 16L9.00005 19.6361C9.00003 20.0252 9.00001 20.3754 9.02381 20.6667C9.0493 20.9787 9.10699 21.3101 9.27253 21.635C9.51222 22.1054 9.89467 22.4879 10.3651 22.7276C10.69 22.8931 11.0215 22.9508 11.3334 22.9763" fill="black"/>
</svg>
