<svg width="24" height="24" viewBox="0 0 24 24" fill="none" xmlns="http://www.w3.org/2000/svg">
<path fill-rule="evenodd" clip-rule="evenodd" d="M9 16C9.08374 16 9.16714 15.9985 9.25017 15.9956L9.25017 19.629C9.25016 20.0244 9.25014 20.3655 9.2731 20.6464C9.29732 20.9429 9.35081 21.2378 9.49541 21.5216C9.71112 21.945 10.0553 22.2892 10.4787 22.5049C10.7625 22.6495 11.0574 22.703 11.3539 22.7272C11.6348 22.7502 11.9759 22.7502 12.3712 22.7501H19.6291C20.0245 22.7502 20.3655 22.7502 20.6464 22.7272C20.943 22.703 21.2379 22.6495 21.5216 22.5049C21.945 22.2892 22.2892 21.945 22.5049 21.5216C22.6495 21.2378 22.703 20.9429 22.7272 20.6464C22.7502 20.3655 22.7502 20.0244 22.7502 19.6291V12.3712C22.7502 11.9759 22.7502 11.6348 22.7272 11.3539C22.703 11.0574 22.6495 10.7624 22.5049 10.4787C22.2892 10.0553 21.945 9.71109 21.5216 9.49538C21.2379 9.35078 20.943 9.29729 20.6464 9.27307C20.3655 9.25011 20.0244 9.25013 19.6291 9.25014L15.9956 9.25014C15.9985 9.16712 16 9.08373 16 9C16 5.13401 12.866 2 9 2C5.13401 2 2 5.13401 2 9C2 12.866 5.13401 16 9 16ZM9 14.5C9.08384 14.5 9.16724 14.4981 9.25017 14.4944L9.25017 12.3712C9.25016 11.9759 9.25014 11.6348 9.2731 11.3539C9.29732 11.0574 9.35081 10.7624 9.49541 10.4787C9.71112 10.0553 10.0553 9.71109 10.4787 9.49538C10.7625 9.35078 11.0574 9.29729 11.3539 9.27307C11.6348 9.25011 11.9759 9.25013 12.3713 9.25014L14.4944 9.25014C14.4981 9.16722 14.5 9.08383 14.5 9C14.5 5.96243 12.0376 3.5 9 3.5C5.96243 3.5 3.5 5.96243 3.5 9C3.5 12.0376 5.96243 14.5 9 14.5Z" fill="black"/>
</svg>
