<svg width="24" height="24" viewBox="0 0 24 24" fill="none" xmlns="http://www.w3.org/2000/svg">
<path fill-rule="evenodd" clip-rule="evenodd" d="M9 16C8.99994 16 9.00006 16 9 16C5.13401 16 2 12.866 2 9C2 5.13401 5.13401 2 9 2C12.866 2 16 5.13401 16 9C16 9.00005 16 8.99995 16 9L20.2996 9.00014C20.5746 9.00011 20.8378 9.00008 21.0598 9.01822C21.3023 9.03803 21.5823 9.08437 21.8627 9.22721C22.2547 9.42695 22.5734 9.74566 22.7731 10.1377C22.9159 10.418 22.9623 10.698 22.9821 10.9405C23.0002 11.1625 23.0002 11.4257 23.0002 11.7007V20.2996C23.0002 20.5746 23.0002 20.8378 22.9821 21.0598C22.9623 21.3023 22.9159 21.5823 22.7731 21.8626C22.5734 22.2546 22.2547 22.5733 21.8627 22.7731C21.5823 22.9159 21.3023 22.9622 21.0598 22.9821C20.8378 23.0002 20.5746 23.0002 20.2996 23.0001H11.7007C11.4257 23.0002 11.1626 23.0002 10.9405 22.9821C10.6981 22.9622 10.418 22.9159 10.1377 22.7731C9.74569 22.5733 9.42698 22.2546 9.22724 21.8626C9.0844 21.5823 9.03806 21.3023 9.01825 21.0598C9.00011 20.8378 9.00014 20.5746 9.00017 20.2996L9 16ZM9.00017 14C9.00023 14 9.00011 14 9.00017 14C6.23875 14 4 11.7614 4 9C4 6.23858 6.23858 4 9 4C11.7614 4 14 6.23858 14 9C14 8.99995 14 9.00005 14 9L11.7007 9.00014C11.4257 9.00011 11.1625 9.00008 10.9405 9.01822C10.6981 9.03803 10.418 9.08437 10.1377 9.22721C9.74569 9.42695 9.42698 9.74566 9.22724 10.1377C9.0844 10.418 9.03806 10.698 9.01825 10.9405C9.00011 11.1625 9.00014 11.4256 9.00017 11.7006L9.00017 14ZM11.0295 11.02C11.0261 11.0229 11.0229 11.0261 11.02 11.0295C11.0177 11.0441 11.0145 11.0678 11.0116 11.1034C11.0009 11.2339 11.0002 11.4136 11.0002 11.7335V20.2668C11.0002 20.5867 11.0009 20.7664 11.0116 20.8969C11.0145 20.9324 11.0177 20.9562 11.02 20.9708C11.0229 20.9742 11.0261 20.9774 11.0295 20.9803C11.0441 20.9826 11.0679 20.9858 11.1034 20.9887C11.2339 20.9994 11.4136 21.0001 11.7335 21.0001H20.2668C20.5867 21.0001 20.7665 20.9994 20.8969 20.9887C20.9325 20.9858 20.9562 20.9826 20.9708 20.9803C20.9742 20.9774 20.9774 20.9742 20.9803 20.9708C20.9827 20.9562 20.9858 20.9324 20.9887 20.8969C20.9994 20.7664 21.0002 20.5867 21.0002 20.2668V11.7335C21.0002 11.4136 20.9994 11.2339 20.9887 11.1034C20.9858 11.0679 20.9827 11.0441 20.9803 11.0295C20.9788 11.0277 20.9772 11.026 20.9755 11.0243C20.974 11.0228 20.9725 11.0214 20.9708 11.02C20.9562 11.0177 20.9325 11.0145 20.8969 11.0116C20.7665 11.0009 20.5867 11.0001 20.2668 11.0001H11.7335C11.4136 11.0001 11.2339 11.0009 11.1034 11.0116C11.0679 11.0145 11.0441 11.0177 11.0295 11.02Z" fill="black"/>
</svg>
