<svg width="24" height="24" viewBox="0 0 24 24" fill="none" xmlns="http://www.w3.org/2000/svg">
<path fill-rule="evenodd" clip-rule="evenodd" d="M15.9956 8.75004C15.864 4.99982 12.7823 2 9 2C5.13401 2 2 5.13401 2 9C2 12.7823 4.99982 15.864 8.75004 15.9956L8.75004 19.722C8.75 20.0918 8.74997 20.4407 8.77395 20.7342C8.80002 21.0533 8.86055 21.4151 9.04432 21.7758C9.30318 22.2839 9.71623 22.6969 10.2243 22.9558C10.5849 23.1395 10.9468 23.2001 11.2659 23.2261C11.5593 23.2501 11.9083 23.2501 12.2781 23.25H19.7219C20.0918 23.2501 20.4407 23.2501 20.7342 23.2261C21.0533 23.2001 21.4151 23.1395 21.7758 22.9558C22.2839 22.6969 22.6969 22.2839 22.9558 21.7758C23.1395 21.4151 23.2001 21.0533 23.2261 20.7342C23.2501 20.4407 23.2501 20.0918 23.25 19.7219V12.2781C23.2501 11.9083 23.2501 11.5593 23.2261 11.2659C23.2001 10.9468 23.1395 10.5849 22.9558 10.2243C22.6969 9.71623 22.2839 9.30318 21.7758 9.04432C21.4151 8.86055 21.0533 8.80002 20.7342 8.77395C20.4407 8.74997 20.0918 8.75 19.722 8.75004L15.9956 8.75004ZM13.5 9C13.5 11.4853 11.4853 13.5 9 13.5C6.51472 13.5 4.5 11.4853 4.5 9C4.5 6.51472 6.51472 4.5 9 4.5C11.4853 4.5 13.5 6.51472 13.5 9Z" fill="black"/>
</svg>
