<svg width="24" height="24" viewBox="0 0 24 24" fill="none" xmlns="http://www.w3.org/2000/svg">
<path fill-rule="evenodd" clip-rule="evenodd" d="M11.7501 21.9969C6.34274 21.8643 2 17.4393 2 12C2 6.47715 6.47715 2 12 2C17.4393 2 21.8643 6.34274 21.9969 11.7501C21.999 11.8332 22 11.9165 22 12C22 17.5229 17.5229 22 12 22C11.9165 22 11.8332 21.999 11.7501 21.9969ZM11.7501 21.4968V13.7227C11.7501 13.4285 11.7501 13.1924 11.7657 13.0016C11.7817 12.8055 11.8155 12.6351 11.8954 12.4781C12.0233 12.2273 12.2273 12.0233 12.4781 11.8954C12.6351 11.8155 12.8055 11.7817 13.0016 11.7657C13.1924 11.7501 13.4284 11.7501 13.7226 11.7501H21.4968C21.3643 6.61891 17.1632 2.5 12 2.5C6.75329 2.5 2.5 6.75329 2.5 12C2.5 17.1632 6.61891 21.3643 11.7501 21.4968Z" fill="black"/>
</svg>
