<svg width="24" height="24" viewBox="0 0 24 24" fill="none" xmlns="http://www.w3.org/2000/svg">
<path fill-rule="evenodd" clip-rule="evenodd" d="M9 16C8.99998 16 9.00002 16 9 16C5.13401 16 2 12.866 2 9C2 5.13401 5.13401 2 9 2C12.866 2 16 5.13401 16 9C16 9.00002 16 8.99998 16 9L19.6361 9.00005C20.0252 9.00003 20.3754 9.00001 20.6667 9.02381C20.9786 9.0493 21.3101 9.10699 21.635 9.27253C22.1054 9.51222 22.4879 9.89467 22.7276 10.3651C22.8931 10.69 22.9508 11.0215 22.9763 11.3334C23.0001 11.6247 23.0001 11.9749 23.0001 12.364V19.6361C23.0001 20.0252 23.0001 20.3754 22.9763 20.6667C22.9508 20.9786 22.8931 21.3101 22.7276 21.635C22.4879 22.1054 22.1054 22.4879 21.635 22.7276C21.3101 22.8931 20.9786 22.9508 20.6667 22.9763C20.3754 23.0001 20.0252 23.0001 19.6361 23.0001H12.364C11.9749 23.0001 11.6247 23.0001 11.3334 22.9763C11.0215 22.9508 10.69 22.8931 10.3651 22.7276C9.89467 22.4879 9.51222 22.1054 9.27253 21.635C9.10699 21.3101 9.0493 20.9786 9.02381 20.6667C9.00001 20.3754 9.00003 20.0253 9.00005 19.6362L9 16ZM14 9C14 11.7614 11.7614 14 9 14C6.23858 14 4 11.7614 4 9C4 6.23858 6.23858 4 9 4C11.7614 4 14 6.23858 14 9ZM11.0001 15.7101V19.6C11.0001 20.0366 11.0008 20.3039 11.0172 20.5038C11.0248 20.597 11.0343 20.6533 11.0424 20.6876C11.0462 20.7038 11.0494 20.7138 11.0514 20.7193C11.0532 20.7245 11.0543 20.7266 11.0545 20.727C11.1025 20.8211 11.179 20.8976 11.2731 20.9456C11.2735 20.9458 11.2756 20.9469 11.2808 20.9487C11.2863 20.9507 11.2963 20.9539 11.3125 20.9577C11.3468 20.9658 11.4031 20.9753 11.4963 20.9829C11.6962 20.9993 11.9635 21 12.4001 21H19.6C20.0366 21 20.3039 20.9993 20.5038 20.9829C20.597 20.9753 20.6533 20.9658 20.6876 20.9577C20.7038 20.9539 20.7138 20.9507 20.7193 20.9487C20.7245 20.9469 20.7266 20.9458 20.727 20.9456C20.8211 20.8976 20.8976 20.8211 20.9456 20.727C20.9458 20.7266 20.9469 20.7245 20.9487 20.7193C20.9507 20.7138 20.9539 20.7038 20.9577 20.6876C20.9658 20.6533 20.9753 20.597 20.9829 20.5038C20.9993 20.3039 21 20.0366 21 19.6V12.4001C21 11.9635 20.9993 11.6962 20.9829 11.4963C20.9753 11.4031 20.9658 11.3468 20.9577 11.3125C20.9539 11.2963 20.9507 11.2863 20.9487 11.2808C20.9469 11.2756 20.9458 11.2735 20.9456 11.2731C20.8976 11.179 20.8211 11.1025 20.727 11.0545C20.7269 11.0545 20.7274 11.0547 20.727 11.0545C20.726 11.0541 20.7232 11.0528 20.7193 11.0514C20.7138 11.0494 20.7038 11.0462 20.6876 11.0424C20.6533 11.0343 20.597 11.0248 20.5038 11.0172C20.3039 11.0008 20.0366 11.0001 19.6 11.0001H15.7101C15.0382 13.2578 13.2578 15.0382 11.0001 15.7101Z" fill="black"/>
</svg>
