<svg width="24" height="24" viewBox="0 0 24 24" fill="none" xmlns="http://www.w3.org/2000/svg">
<path fill-rule="evenodd" clip-rule="evenodd" d="M9.75005 15.9603C9.50363 15.9865 9.25339 16 9 16C5.13401 16 2 12.866 2 9C2 5.13401 5.13401 2 9 2C12.866 2 16 5.13401 16 9C16 9.2534 15.9865 9.50365 15.9603 9.75008H19.6112C20.0217 9.75008 20.3453 9.75008 20.6056 9.77134C20.8712 9.79304 21.093 9.83812 21.2945 9.94081C21.6238 10.1086 21.8915 10.3763 22.0593 10.7056C22.162 10.9071 22.2071 11.1289 22.2288 11.3945C22.2501 11.6548 22.2501 11.9783 22.25 12.389V19.6112C22.2501 20.0218 22.2501 20.3453 22.2288 20.6056C22.2071 20.8712 22.162 21.093 22.0593 21.2946C21.8915 21.6238 21.6238 21.8916 21.2945 22.0593C21.093 22.162 20.8712 22.2071 20.6056 22.2288C20.3453 22.2501 20.0218 22.2501 19.6113 22.2501H12.3889C11.9784 22.2501 11.6548 22.2501 11.3945 22.2288C11.1289 22.2071 10.9071 22.162 10.7056 22.0593C10.3763 21.8916 10.1086 21.6238 9.94079 21.2946C9.83809 21.093 9.79302 20.8712 9.77132 20.6056C9.75005 20.3453 9.75005 20.0219 9.75005 19.6114V15.9603ZM15.5 9C15.5 12.5899 12.5899 15.5 9 15.5C5.41015 15.5 2.5 12.5899 2.5 9C2.5 5.41015 5.41015 2.5 9 2.5C12.5899 2.5 15.5 5.41015 15.5 9Z" fill="black"/>
</svg>
