<svg width="24" height="24" viewBox="0 0 24 24" fill="none" xmlns="http://www.w3.org/2000/svg">
<path fill-rule="evenodd" clip-rule="evenodd" d="M11.5001 21.9877C6.20951 21.7273 2 17.3552 2 12C2 6.47715 6.47715 2 12 2C17.3552 2 21.7273 6.20951 21.9877 11.5001C21.9959 11.6657 22 11.8324 22 12C22 12.1677 21.9959 12.3345 21.9877 12.5001C21.7353 17.6249 17.6249 21.7353 12.5001 21.9877C12.3345 21.9959 12.1677 22 12 22C11.8324 22 11.6657 21.9959 11.5001 21.9877ZM11.5001 20.9864V13.7139C11.5001 13.4272 11.5001 13.1824 11.5165 12.9812C11.5338 12.7696 11.5718 12.5627 11.6727 12.3646C11.8245 12.0667 12.0667 11.8245 12.3646 11.6727C12.5627 11.5718 12.7696 11.5338 12.9812 11.5165C13.1824 11.5001 13.4272 11.5001 13.7139 11.5001H20.9864C20.727 6.76207 16.8028 3 12 3C7.02944 3 3 7.02944 3 12C3 16.8028 6.76207 20.727 11.5001 20.9864ZM12.5001 20.9863C17.0725 20.7359 20.7359 17.0725 20.9863 12.5001H13.7335C13.4218 12.5001 13.2182 12.5005 13.0626 12.5132C12.9129 12.5255 12.8523 12.5466 12.8186 12.5637C12.7089 12.6196 12.6196 12.7089 12.5637 12.8186C12.5466 12.8523 12.5255 12.9129 12.5132 13.0626C12.5005 13.2182 12.5001 13.4218 12.5001 13.7335V20.9863Z" fill="black"/>
</svg>
