<svg width="24" height="24" viewBox="0 0 24 24" fill="none" xmlns="http://www.w3.org/2000/svg">
<path fill-rule="evenodd" clip-rule="evenodd" d="M9.50005 15.9824C9.33488 15.9941 9.16813 16 9 16C5.13401 16 2 12.866 2 9C2 5.13401 5.13401 2 9 2C12.866 2 16 5.13401 16 9C16 9.16813 15.9941 9.33488 15.9824 9.50005H19.6207C20.0232 9.50004 20.3554 9.50004 20.626 9.52215C20.907 9.54511 21.1654 9.59439 21.408 9.71804C21.7844 9.90978 22.0903 10.2157 22.2821 10.5921C22.4057 10.8347 22.455 11.0931 22.478 11.3741C22.5001 11.6447 22.5001 11.9769 22.5 12.3794V19.6207C22.5001 20.0232 22.5001 20.3554 22.478 20.626C22.455 20.907 22.4057 21.1654 22.2821 21.408C22.0903 21.7844 21.7844 22.0903 21.408 22.2821C21.1654 22.4057 20.907 22.455 20.626 22.478C20.3554 22.5001 20.0232 22.5001 19.6207 22.5H12.3794C11.9769 22.5001 11.6447 22.5001 11.3741 22.478C11.0931 22.455 10.8347 22.4057 10.5921 22.2821C10.2157 22.0903 9.90978 21.7844 9.71804 21.408C9.59439 21.1654 9.54511 20.907 9.52215 20.626C9.50004 20.3554 9.50004 20.0232 9.50005 19.6207V15.9824ZM15 9C15 12.3137 12.3137 15 9 15C5.68629 15 3 12.3137 3 9C3 5.68629 5.68629 3 9 3C12.3137 3 15 5.68629 15 9ZM10.5 15.8389V19.6C10.5 20.0283 10.5004 20.3195 10.5188 20.5445C10.5367 20.7637 10.5692 20.8758 10.609 20.954C10.7049 21.1422 10.8579 21.2952 11.0461 21.3911C11.1243 21.4309 11.2364 21.4634 11.4556 21.4813C11.6806 21.4997 11.9718 21.5 12.4 21.5H19.6C20.0283 21.5 20.3195 21.4997 20.5445 21.4813C20.7637 21.4634 20.8758 21.4309 20.954 21.3911C21.1422 21.2952 21.2952 21.1422 21.3911 20.954C21.4309 20.8758 21.4634 20.7637 21.4813 20.5445C21.4997 20.3195 21.5 20.0283 21.5 19.6V12.4C21.5 11.9718 21.4997 11.6806 21.4813 11.4556C21.4634 11.2364 21.4309 11.1243 21.3911 11.0461C21.2952 10.8579 21.1422 10.7049 20.954 10.609C20.8758 10.5692 20.7637 10.5367 20.5445 10.5188C20.3195 10.5004 20.0283 10.5 19.6 10.5H15.8389C15.2577 13.162 13.162 15.2577 10.5 15.8389Z" fill="black"/>
</svg>
