<svg width="24" height="24" viewBox="0 0 24 24" fill="none" xmlns="http://www.w3.org/2000/svg">
<path fill-rule="evenodd" clip-rule="evenodd" d="M10.7499 21.9226C5.81693 21.3076 1.99976 17.0996 1.99976 12C1.99976 6.47715 6.47691 2 11.9998 2C17.0993 2 21.3073 5.81717 21.9224 10.7501C21.9735 11.1596 21.9998 11.5767 21.9998 12C21.9998 12.4234 21.9735 12.8406 21.9224 13.2501C21.3583 17.7734 17.7732 21.3585 13.2499 21.9226C12.8404 21.9737 12.4231 22 11.9998 22C11.5765 22 11.1593 21.9737 10.7499 21.9226ZM10.7499 19.3963L10.7499 13.6957C10.7498 13.4252 10.7498 13.1526 10.7688 12.9201C10.7899 12.6622 10.8404 12.3456 11.0042 12.0241C11.2279 11.5851 11.5849 11.2281 12.0239 11.0044C12.3454 10.8407 12.6619 10.7901 12.9199 10.769C13.1524 10.75 13.425 10.7501 13.6954 10.7501L19.3961 10.7501C18.801 7.20292 15.716 4.5 11.9998 4.5C7.85762 4.5 4.49976 7.85786 4.49976 12C4.49976 15.7163 7.20268 18.8013 10.7499 19.3963ZM13.2499 19.3963C16.3904 18.8693 18.8691 16.3907 19.396 13.2501H13.7332C13.5117 13.2501 13.3632 13.2506 13.2537 13.2539C13.2503 13.3634 13.2499 13.5119 13.2499 13.7335V19.3963Z" fill="black"/>
</svg>
