<svg width="24" height="24" viewBox="0 0 24 24" fill="none" xmlns="http://www.w3.org/2000/svg">
<path fill-rule="evenodd" clip-rule="evenodd" d="M11.0001 21.9506C5.94674 21.449 2 17.1854 2 12C2 6.47715 6.47715 2 12 2C17.1854 2 21.449 5.94674 21.9506 11.0001C21.9833 11.329 22 11.6626 22 12C22 17.5229 17.5229 22 12 22C11.6626 22 11.329 21.9833 11.0001 21.9506ZM11.0001 19.9381L11.0001 13.7007C11.0001 13.4256 11.0001 13.1625 11.0182 12.9405C11.038 12.698 11.0844 12.418 11.2272 12.1376C11.4269 11.7456 11.7456 11.4269 12.1376 11.2272C12.418 11.0844 12.698 11.038 12.9405 11.0182C13.1625 11.0001 13.4256 11.0001 13.7007 11.0001L19.9381 11.0001C19.4461 7.05375 16.0797 4 12 4C7.58172 4 4 7.58172 4 12C4 16.0797 7.05375 19.4461 11.0001 19.9381Z" fill="black"/>
</svg>
