<svg width="24" height="24" viewBox="0 0 24 24" fill="none" xmlns="http://www.w3.org/2000/svg">
<path fill-rule="evenodd" clip-rule="evenodd" d="M11.4998 21.9877C6.20921 21.7272 1.99976 17.3552 1.99976 12C1.99976 6.47715 6.47691 2 11.9998 2C17.355 2 21.727 6.20952 21.9875 11.5001C21.9956 11.6657 21.9998 11.8324 21.9998 12C21.9998 17.5229 17.5226 22 11.9998 22C11.8321 22 11.6654 21.9959 11.4998 21.9877ZM11.4998 20.9863V13.7139C11.4998 13.4273 11.4998 13.1824 11.5162 12.9812C11.5335 12.7697 11.5714 12.5628 11.6724 12.3647C11.8242 12.0667 12.0664 11.8245 12.3643 11.6727C12.5624 11.5718 12.7693 11.5339 12.9809 11.5166C13.182 11.5001 13.4268 11.5001 13.7135 11.5001H20.9861C20.7267 6.76208 16.8026 3 11.9998 3C7.02919 3 2.99976 7.02944 2.99976 12C2.99976 16.8028 6.76177 20.7269 11.4998 20.9863Z" fill="black"/>
</svg>
