<svg width="24" height="24" viewBox="0 0 24 24" fill="none" xmlns="http://www.w3.org/2000/svg">
<path fill-rule="evenodd" clip-rule="evenodd" d="M11.7501 21.9969C6.34274 21.8643 2 17.4393 2 12C2 6.47715 6.47715 2 12 2C17.4393 2 21.8643 6.34274 21.9969 11.7501C21.999 11.8332 22 11.9165 22 12C22 12.0836 21.999 12.167 21.997 12.2501C21.8663 17.5743 17.5743 21.8662 12.2501 21.9969C12.167 21.999 12.0836 22 12 22C11.9165 22 11.8332 21.999 11.7501 21.9969ZM11.7501 21.4968V13.7227C11.7501 13.4285 11.7501 13.1924 11.7657 13.0016C11.7817 12.8055 11.8155 12.6351 11.8954 12.4781C12.0233 12.2273 12.2273 12.0233 12.4781 11.8954C12.6351 11.8155 12.8055 11.7817 13.0016 11.7657C13.1924 11.7501 13.4284 11.7501 13.7226 11.7501H21.4968C21.3643 6.61891 17.1632 2.5 12 2.5C6.75329 2.5 2.5 6.75329 2.5 12C2.5 17.1632 6.61891 21.3643 11.7501 21.4968ZM12.2501 21.4968C17.2981 21.3663 21.3663 17.2981 21.4968 12.2501H13.7335C13.426 12.2501 13.2104 12.2503 13.0423 12.2641C12.8771 12.2775 12.7799 12.3029 12.7051 12.341C12.5483 12.4208 12.4208 12.5483 12.341 12.7051C12.3029 12.7799 12.2775 12.8771 12.2641 13.0423C12.2503 13.2104 12.2501 13.426 12.2501 13.7335V21.4968Z" fill="black"/>
</svg>
