<svg width="24" height="24" viewBox="0 0 24 24" fill="none" xmlns="http://www.w3.org/2000/svg">
<path fill-rule="evenodd" clip-rule="evenodd" d="M10.7501 21.9226C5.81717 21.3076 2 17.0996 2 12C2 6.47715 6.47715 2 12 2C17.0996 2 21.3076 5.81717 21.9226 10.7501C21.9737 11.1596 22 11.5767 22 12C22 12.4234 21.9737 12.8406 21.9226 13.2501C21.3585 17.7734 17.7734 21.3585 13.2501 21.9226C12.8406 21.9737 12.4234 22 12 22C11.5767 22 11.1596 21.9737 10.7501 21.9226ZM10.7501 19.3963L10.7501 13.6957C10.7501 13.4252 10.75 13.1526 10.769 12.9201C10.7901 12.6622 10.8407 12.3456 11.0044 12.0241C11.2281 11.5851 11.5851 11.2281 12.0241 11.0044C12.3456 10.8407 12.6622 10.7901 12.9201 10.769C13.1526 10.75 13.4252 10.7501 13.6956 10.7501L19.3963 10.7501C18.8013 7.20292 15.7163 4.5 12 4.5C7.85786 4.5 4.5 7.85786 4.5 12C4.5 15.7163 7.20292 18.8013 10.7501 19.3963ZM13.2501 19.3963C16.3907 18.8693 18.8693 16.3907 19.3963 13.2501H13.7335C13.5119 13.2501 13.3634 13.2506 13.2539 13.2539C13.2506 13.3634 13.2501 13.5119 13.2501 13.7335V19.3963Z" fill="black"/>
</svg>
