<svg width="24" height="24" viewBox="0 0 24 24" fill="none" xmlns="http://www.w3.org/2000/svg">
<path fill-rule="evenodd" clip-rule="evenodd" d="M9.50017 15.9824C9.33496 15.9941 9.16817 16 9 16C5.13401 16 2 12.866 2 9C2 5.13401 5.13401 2 9 2C12.866 2 16 5.13401 16 9C16 9.16816 15.9941 9.33494 15.9824 9.50014L20.2864 9.50014C20.5731 9.50013 20.8179 9.50012 21.0191 9.51656C21.2307 9.53385 21.4376 9.57177 21.6357 9.67271C21.9336 9.82451 22.1758 10.0667 22.3276 10.3647C22.4285 10.5628 22.4665 10.7697 22.4837 10.9812C22.5002 11.1824 22.5002 11.4272 22.5002 11.7138V20.2864C22.5002 20.573 22.5002 20.8179 22.4837 21.0191C22.4665 21.2306 22.4285 21.4375 22.3276 21.6356C22.1758 21.9335 21.9336 22.1758 21.6357 22.3276C21.4376 22.4285 21.2307 22.4664 21.0191 22.4837C20.8179 22.5002 20.5731 22.5001 20.2865 22.5001H11.7139C11.4273 22.5001 11.1824 22.5002 10.9813 22.4837C10.7697 22.4664 10.5628 22.4285 10.3647 22.3276C10.0668 22.1758 9.82454 21.9335 9.67274 21.6356C9.57181 21.4375 9.53388 21.2306 9.51659 21.0191C9.50015 20.8179 9.50016 20.5731 9.50017 20.2864L9.50017 15.9824ZM9.50017 14.9794C9.33525 14.9931 9.16843 15 9 15C5.68629 15 3 12.3137 3 9C3 5.68629 5.68629 3 9 3C12.3137 3 15 5.68629 15 9C15 9.16842 14.9931 9.33523 14.9795 9.50014L11.7139 9.50014C11.4273 9.50013 11.1824 9.50012 10.9813 9.51656C10.7697 9.53385 10.5628 9.57177 10.3647 9.67271C10.0668 9.82451 9.82454 10.0667 9.67274 10.3647C9.57181 10.5628 9.53388 10.7697 9.51659 10.9812C9.50015 11.1824 9.50016 11.4272 9.50017 11.7139L9.50017 14.9794ZM10.8187 10.5637C10.8523 10.5466 10.913 10.5255 11.0627 10.5132C11.2183 10.5005 11.4219 10.5001 11.7335 10.5001H20.2668C20.5784 10.5001 20.7821 10.5005 20.9377 10.5132C21.0874 10.5255 21.148 10.5466 21.1817 10.5637C21.2914 10.6196 21.3807 10.7089 21.4366 10.8186C21.4537 10.8523 21.4748 10.9129 21.4871 11.0627C21.4998 11.2182 21.5002 11.4219 21.5002 11.7335V20.2668C21.5002 20.5784 21.4998 20.7821 21.4871 20.9376C21.4748 21.0873 21.4537 21.148 21.4366 21.1816C21.3807 21.2914 21.2914 21.3806 21.1817 21.4366C21.148 21.4537 21.0874 21.4748 20.9377 21.487C20.7821 21.4998 20.5784 21.5001 20.2668 21.5001H11.7335C11.4219 21.5001 11.2183 21.4998 11.0627 21.487C10.913 21.4748 10.8523 21.4537 10.8187 21.4366C10.7089 21.3806 10.6197 21.2914 10.5638 21.1816C10.5466 21.148 10.5255 21.0873 10.5133 20.9376C10.5006 20.7821 10.5002 20.5784 10.5002 20.2668V11.7335C10.5002 11.4219 10.5006 11.2182 10.5133 11.0627C10.5255 10.9129 10.5466 10.8523 10.5638 10.8186C10.6197 10.7089 10.7089 10.6196 10.8187 10.5637Z" fill="black"/>
</svg>
