<svg width="24" height="24" viewBox="0 0 24 24" fill="none" xmlns="http://www.w3.org/2000/svg">
<path fill-rule="evenodd" clip-rule="evenodd" d="M9.00017 16L9.00017 19.6362C9.00015 20.0253 9.00013 20.3755 9.02393 20.6668C9.04942 20.9787 9.10711 21.3102 9.27265 21.6351C9.51234 22.1055 9.89479 22.488 10.3652 22.7277C10.6901 22.8932 11.0216 22.9509 11.3335 22.9764C11.6249 23.0002 11.975 23.0002 12.3641 23.0001H19.6362C20.0253 23.0002 20.3755 23.0002 20.6668 22.9764C20.9788 22.9509 21.3102 22.8932 21.6351 22.7277C22.1056 22.488 22.488 22.1055 22.7277 21.6351C22.8932 21.3102 22.9509 20.9787 22.9764 20.6668C23.0002 20.3754 23.0002 20.0253 23.0002 19.6362V12.3641C23.0002 11.975 23.0002 11.6248 22.9764 11.3335C22.9509 11.0215 22.8932 10.6901 22.7277 10.3652C22.488 9.89476 22.1056 9.51231 21.6351 9.27262C21.3102 9.10708 20.9788 9.04939 20.6668 9.0239C20.3755 9.0001 20.0253 9.00012 19.6363 9.00014L16 9.00014C16 5.13415 12.866 2 9 2C5.13401 2 2 5.13401 2 9C2 12.866 5.13418 16 9.00017 16ZM9.00017 14L9.00017 12.3641C9.00015 11.975 9.00013 11.6248 9.02393 11.3335C9.04942 11.0215 9.10711 10.6901 9.27265 10.3652C9.51234 9.89476 9.89479 9.51231 10.3652 9.27262C10.6901 9.10708 11.0216 9.04939 11.3335 9.0239C11.6249 9.0001 11.975 9.00012 12.3641 9.00014L14 9.00014C14 6.23872 11.7614 4 9 4C6.23858 4 4 6.23858 4 9C4 11.7614 6.23875 14 9.00017 14Z" fill="black"/>
</svg>
