<svg width="24" height="24" viewBox="0 0 24 24" fill="none" xmlns="http://www.w3.org/2000/svg">
<path fill-rule="evenodd" clip-rule="evenodd" d="M8.99982 16C9.25324 16 9.50353 15.9865 9.74999 15.9603V19.6112C9.74999 20.0219 9.74998 20.3454 9.77125 20.6057C9.79295 20.8713 9.83803 21.0931 9.94073 21.2946C10.1085 21.6239 10.3762 21.8916 10.7055 22.0594C10.9071 22.1621 11.1288 22.2072 11.3944 22.2289C11.6547 22.2501 11.9782 22.2501 12.3888 22.2501H19.6111C20.0217 22.2501 20.3452 22.2501 20.6055 22.2289C20.8711 22.2072 21.0929 22.1621 21.2945 22.0594C21.6238 21.8916 21.8915 21.6239 22.0592 21.2946C22.1619 21.0931 22.207 20.8713 22.2287 20.6057C22.25 20.3454 22.25 20.0219 22.25 19.6114V12.389C22.25 11.9785 22.25 11.6549 22.2287 11.3946C22.207 11.129 22.1619 10.9072 22.0592 10.7057C21.8915 10.3764 21.6238 10.1087 21.2945 9.94088C21.0929 9.83818 20.8711 9.79311 20.6055 9.77141C20.3452 9.75014 20.0217 9.75014 19.6111 9.75014H15.9601C15.9864 9.50369 15.9998 9.25342 15.9998 9C15.9998 5.13401 12.8658 2 8.99982 2C5.13382 2 1.99982 5.13401 1.99982 9C1.99982 12.866 5.13382 16 8.99982 16ZM8.99982 15.5C9.25353 15.5 9.50385 15.4855 9.74999 15.4572V12.389C9.74999 11.9784 9.74998 11.6549 9.77125 11.3946C9.79295 11.129 9.83803 10.9072 9.94073 10.7057C10.1085 10.3764 10.3762 10.1087 10.7055 9.94088C10.9071 9.83818 11.1288 9.79311 11.3944 9.77141C11.6548 9.75014 11.9782 9.75014 12.3889 9.75014H15.457C15.4853 9.50401 15.4998 9.2537 15.4998 9C15.4998 5.41015 12.5897 2.5 8.99982 2.5C5.40997 2.5 2.49982 5.41015 2.49982 9C2.49982 12.5899 5.40997 15.5 8.99982 15.5Z" fill="black"/>
</svg>
