<svg width="24" height="24" viewBox="0 0 24 24" fill="none" xmlns="http://www.w3.org/2000/svg">
<path fill-rule="evenodd" clip-rule="evenodd" d="M9.49999 15.9824C9.33478 15.9941 9.16799 16 8.99982 16C5.13382 16 1.99982 12.866 1.99982 9C1.99982 5.13401 5.13382 2 8.99982 2C12.8658 2 15.9998 5.13401 15.9998 9C15.9998 9.16816 15.9939 9.33494 15.9822 9.50014L20.2862 9.50014C20.5729 9.50013 20.8177 9.50012 21.0189 9.51656C21.2305 9.53385 21.4374 9.57177 21.6355 9.67271C21.9334 9.82451 22.1756 10.0667 22.3274 10.3647C22.4284 10.5628 22.4663 10.7697 22.4836 10.9812C22.5 11.1824 22.5 11.4272 22.5 11.7138V20.2864C22.5 20.573 22.5 20.8179 22.4836 21.0191C22.4663 21.2306 22.4284 21.4375 22.3274 21.6356C22.1756 21.9335 21.9334 22.1758 21.6355 22.3276C21.4374 22.4285 21.2305 22.4664 21.0189 22.4837C20.8177 22.5002 20.5729 22.5001 20.2863 22.5001H11.7137C11.4271 22.5001 11.1822 22.5002 10.9811 22.4837C10.7695 22.4664 10.5626 22.4285 10.3645 22.3276C10.0666 22.1758 9.82436 21.9335 9.67256 21.6356C9.57162 21.4375 9.53369 21.2306 9.51641 21.0191C9.49997 20.8179 9.49998 20.5731 9.49999 20.2864L9.49999 15.9824ZM9.49999 14.9794C9.33507 14.9931 9.16825 15 8.99982 15C5.68611 15 2.99982 12.3137 2.99982 9C2.99982 5.68629 5.68611 3 8.99982 3C12.3135 3 14.9998 5.68629 14.9998 9C14.9998 9.16842 14.9929 9.33523 14.9793 9.50014L11.7137 9.50014C11.4271 9.50013 11.1822 9.50012 10.9811 9.51656C10.7695 9.53385 10.5626 9.57177 10.3645 9.67271C10.0666 9.82451 9.82436 10.0667 9.67256 10.3647C9.57162 10.5628 9.53369 10.7697 9.51641 10.9812C9.49997 11.1824 9.49998 11.4272 9.49999 11.7139L9.49999 14.9794ZM10.8185 10.5637C10.8521 10.5466 10.9128 10.5255 11.0625 10.5132C11.2181 10.5005 11.4217 10.5001 11.7333 10.5001H20.2667C20.5783 10.5001 20.7819 10.5005 20.9375 10.5132C21.0872 10.5255 21.1478 10.5466 21.1815 10.5637C21.2912 10.6196 21.3805 10.7089 21.4364 10.8186C21.4535 10.8523 21.4747 10.9129 21.4869 11.0627C21.4996 11.2182 21.5 11.4219 21.5 11.7335V20.2668C21.5 20.5784 21.4996 20.7821 21.4869 20.9376C21.4747 21.0873 21.4535 21.148 21.4364 21.1816C21.3805 21.2914 21.2912 21.3806 21.1815 21.4366C21.1478 21.4537 21.0872 21.4748 20.9375 21.487C20.7819 21.4998 20.5783 21.5001 20.2667 21.5001H11.7333C11.4217 21.5001 11.2181 21.4998 11.0625 21.487C10.9128 21.4748 10.8521 21.4537 10.8185 21.4366C10.7087 21.3806 10.6195 21.2914 10.5636 21.1816C10.5464 21.148 10.5253 21.0873 10.5131 20.9376C10.5004 20.7821 10.5 20.5784 10.5 20.2668V11.7335C10.5 11.4219 10.5004 11.2182 10.5131 11.0627C10.5253 10.9129 10.5464 10.8523 10.5636 10.8186C10.6195 10.7089 10.7087 10.6196 10.8185 10.5637Z" fill="black"/>
</svg>
