<svg width="24" height="24" viewBox="0 0 24 24" fill="none" xmlns="http://www.w3.org/2000/svg">
<path fill-rule="evenodd" clip-rule="evenodd" d="M9.25005 15.9956C9.16706 15.9985 9.0837 16 9 16C5.13401 16 2 12.866 2 9C2 5.13401 5.13401 2 9 2C12.866 2 16 5.13401 16 9C16 9.0837 15.9985 9.16706 15.9956 9.25005H19.629C20.0243 9.25003 20.3654 9.25002 20.6463 9.27298C20.9428 9.2972 21.2377 9.35069 21.5215 9.49528C21.9449 9.711 22.2891 10.0552 22.5048 10.4786C22.6494 10.7624 22.7029 11.0573 22.7271 11.3538C22.7501 11.6347 22.7501 11.9758 22.75 12.3711V19.629C22.7501 20.0243 22.7501 20.3654 22.7271 20.6463C22.7029 20.9428 22.6494 21.2377 22.5048 21.5215C22.2891 21.9449 21.9449 22.2891 21.5215 22.5048C21.2377 22.6494 20.9428 22.7029 20.6463 22.7271C20.3654 22.7501 20.0243 22.7501 19.629 22.75H12.3711C11.9758 22.7501 11.6347 22.7501 11.3538 22.7271C11.0573 22.7029 10.7624 22.6494 10.4786 22.5048C10.0552 22.2891 9.711 21.9449 9.49528 21.5215C9.35069 21.2377 9.2972 20.9428 9.27298 20.6463C9.25002 20.3654 9.25003 20.0243 9.25005 19.629V15.9956ZM14.5 9C14.5 12.0376 12.0376 14.5 9 14.5C5.96243 14.5 3.5 12.0376 3.5 9C3.5 5.96243 5.96243 3.5 9 3.5C12.0376 3.5 14.5 5.96243 14.5 9Z" fill="black"/>
</svg>
