<svg width="24" height="24" viewBox="0 0 24 24" fill="none" xmlns="http://www.w3.org/2000/svg">
<path fill-rule="evenodd" clip-rule="evenodd" d="M8.75017 15.9956C4.99989 15.8641 2 12.7824 2 9C2 5.13401 5.13401 2 9 2C12.7824 2 15.8641 4.99987 15.9956 8.75014L20.3046 8.75014C20.5751 8.75009 20.8476 8.75005 21.0802 8.76905C21.3381 8.79013 21.6547 8.84067 21.9761 9.00446C22.4152 9.22816 22.7721 9.58512 22.9959 10.0242C23.1596 10.3456 23.2102 10.6622 23.2313 10.9202C23.2503 11.1527 23.2502 11.4252 23.2502 11.6956V20.3046C23.2502 20.575 23.2503 20.8476 23.2313 21.0801C23.2102 21.3381 23.1596 21.6547 22.9959 21.9761C22.7721 22.4152 22.4152 22.7721 21.9761 22.9958C21.6547 23.1596 21.3381 23.2102 21.0802 23.2312C20.8477 23.2502 20.5751 23.2502 20.3047 23.2501H11.6957C11.4253 23.2502 11.1527 23.2502 10.9202 23.2312C10.6622 23.2102 10.3456 23.1596 10.0242 22.9958C9.58515 22.7721 9.22819 22.4152 9.00449 21.9761C8.8407 21.6547 8.79016 21.3381 8.76908 21.0801C8.75008 20.8476 8.75013 20.575 8.75017 20.3046L8.75017 15.9956ZM8.75017 13.4932C6.38109 13.3635 4.5 11.4014 4.5 9C4.5 6.51472 6.51472 4.5 9 4.5C11.4014 4.5 13.3635 6.38108 13.4932 8.75014L11.6957 8.75014C11.4253 8.75009 11.1527 8.75005 10.9202 8.76905C10.6622 8.79013 10.3456 8.84067 10.0242 9.00446C9.58515 9.22816 9.22819 9.58512 9.00449 10.0242C8.8407 10.3456 8.79016 10.6622 8.76908 10.9202C8.75008 11.1527 8.75013 11.4252 8.75017 11.6957L8.75017 13.4932ZM11.2502 11.7335C11.2502 11.512 11.2506 11.3634 11.254 11.254C11.3635 11.2506 11.512 11.2501 11.7335 11.2501H20.2668C20.4884 11.2501 20.6369 11.2506 20.7463 11.254C20.7497 11.3634 20.7502 11.512 20.7502 11.7335V20.2668C20.7502 20.4883 20.7497 20.6368 20.7463 20.7463C20.6369 20.7497 20.4884 20.7501 20.2668 20.7501H11.7335C11.512 20.7501 11.3635 20.7497 11.254 20.7463C11.2506 20.6368 11.2502 20.4883 11.2502 20.2668V11.7335Z" fill="black"/>
</svg>
