<svg width="24" height="24" viewBox="0 0 24 24" fill="none" xmlns="http://www.w3.org/2000/svg">
<path fill-rule="evenodd" clip-rule="evenodd" d="M8.99976 16C9.0835 16 9.1669 15.9985 9.24993 15.9956L9.24993 19.629C9.24991 20.0244 9.2499 20.3655 9.27285 20.6464C9.29708 20.9429 9.35057 21.2378 9.49516 21.5216C9.71088 21.945 10.0551 22.2892 10.4784 22.5049C10.7622 22.6495 11.0571 22.703 11.3537 22.7272C11.6346 22.7502 11.9756 22.7502 12.371 22.7501H19.6289C20.0242 22.7502 20.3653 22.7502 20.6462 22.7272C20.9427 22.703 21.2376 22.6495 21.5214 22.5049C21.9448 22.2892 22.289 21.945 22.5047 21.5216C22.6493 21.2378 22.7028 20.9429 22.727 20.6464C22.75 20.3655 22.7499 20.0244 22.7499 19.6291V12.3712C22.7499 11.9759 22.75 11.6348 22.727 11.3539C22.7028 11.0574 22.6493 10.7624 22.5047 10.4787C22.289 10.0553 21.9448 9.71109 21.5214 9.49538C21.2376 9.35078 20.9427 9.29729 20.6462 9.27307C20.3653 9.25011 20.0242 9.25013 19.6288 9.25014L15.9954 9.25014C15.9983 9.16712 15.9998 9.08373 15.9998 9C15.9998 5.13401 12.8657 2 8.99976 2C5.13376 2 1.99976 5.13401 1.99976 9C1.99976 12.866 5.13376 16 8.99976 16ZM8.99976 14.5C9.0836 14.5 9.167 14.4981 9.24993 14.4944L9.24993 12.3712C9.24991 11.9759 9.2499 11.6348 9.27285 11.3539C9.29708 11.0574 9.35057 10.7624 9.49516 10.4787C9.71088 10.0553 10.0551 9.71109 10.4784 9.49538C10.7622 9.35078 11.0571 9.29729 11.3537 9.27307C11.6346 9.25011 11.9757 9.25013 12.371 9.25014L14.4942 9.25014C14.4979 9.16722 14.4998 9.08383 14.4998 9C14.4998 5.96243 12.0373 3.5 8.99976 3.5C5.96219 3.5 3.49976 5.96243 3.49976 9C3.49976 12.0376 5.96219 14.5 8.99976 14.5Z" fill="black"/>
</svg>
