<svg width="24" height="24" viewBox="0 0 24 24" fill="none" xmlns="http://www.w3.org/2000/svg">
<path fill-rule="evenodd" clip-rule="evenodd" d="M11.2499 21.9723C6.07727 21.5888 1.99976 17.2706 1.99976 12C1.99976 6.47715 6.47691 2 11.9998 2C17.2704 2 21.5886 6.07752 21.9721 11.2501C21.9904 11.4977 21.9998 11.7478 21.9998 12C21.9998 12.2523 21.9904 12.5025 21.9721 12.7501C21.6069 17.675 17.6747 21.6071 12.7499 21.9723C12.5022 21.9907 12.2521 22 11.9998 22C11.7475 22 11.4974 21.9907 11.2499 21.9723ZM11.2499 20.4674L11.2499 13.7067C11.2499 13.4263 11.2498 13.1724 11.2671 12.9609C11.2857 12.7338 11.3278 12.4904 11.4497 12.2511C11.6255 11.9062 11.9059 11.6257 12.2509 11.4499C12.4901 11.3281 12.7336 11.2859 12.9606 11.2674C13.1721 11.2501 13.426 11.2501 13.7064 11.2501L20.4671 11.2501C20.0875 6.90692 16.4415 3.5 11.9998 3.5C7.30534 3.5 3.49976 7.30558 3.49976 12C3.49976 16.4417 6.90668 20.0877 11.2499 20.4674ZM12.7499 20.4674C16.8458 20.1092 20.109 16.846 20.4671 12.7501H13.7332C13.4175 12.7501 13.2258 12.7507 13.0828 12.7624C12.9757 12.7711 12.9387 12.7837 12.9319 12.7864C12.9301 12.7871 12.9304 12.7872 12.9319 12.7864C12.8692 12.8184 12.8182 12.8694 12.7862 12.9321C12.787 12.9306 12.7869 12.9304 12.7862 12.9321C12.7834 12.9389 12.7709 12.9759 12.7621 13.083C12.7505 13.226 12.7499 13.4177 12.7499 13.7335V20.4674Z" fill="black"/>
</svg>
