<svg width="24" height="24" viewBox="0 0 24 24" fill="none" xmlns="http://www.w3.org/2000/svg">
<path fill-rule="evenodd" clip-rule="evenodd" d="M11.7501 21.9969C6.34268 21.8643 1.99994 17.4393 1.99994 12C1.99994 6.47715 6.47709 2 11.9999 2C17.4392 2 21.8643 6.34274 21.9969 11.7501C21.9989 11.8332 22 11.9165 22 12C22 12.0836 21.9989 12.167 21.9969 12.2501C21.8662 17.5743 17.5742 21.8662 12.2501 21.9969C12.1669 21.999 12.0836 22 12 22C11.9164 22 11.8331 21.999 11.7501 21.9969ZM11.7501 21.4968V13.7227C11.7501 13.4285 11.7501 13.1924 11.7657 13.0016C11.7817 12.8055 11.8154 12.6351 11.8954 12.4781C12.0232 12.2273 12.2272 12.0233 12.4781 11.8954C12.6351 11.8155 12.8054 11.7817 13.0015 11.7657C13.1924 11.7501 13.4284 11.7501 13.7226 11.7501H21.4967C21.3642 6.61891 17.1631 2.5 11.9999 2.5C6.75323 2.5 2.49994 6.75329 2.49994 12C2.49994 17.1632 6.61885 21.3643 11.7501 21.4968ZM12.2501 21.4968C17.298 21.3663 21.3662 17.2981 21.4967 12.2501H13.7334C13.4259 12.2501 13.2103 12.2503 13.0422 12.2641C12.877 12.2775 12.7798 12.3029 12.7051 12.341C12.5483 12.4208 12.4208 12.5483 12.3409 12.7051C12.3028 12.7799 12.2775 12.8771 12.264 13.0423C12.2503 13.2104 12.2501 13.426 12.2501 13.7335V21.4968Z" fill="black"/>
</svg>
