<svg width="24" height="24" viewBox="0 0 24 24" fill="none" xmlns="http://www.w3.org/2000/svg">
<path fill-rule="evenodd" clip-rule="evenodd" d="M10.75 21.9226C5.81712 21.3075 2 17.0995 2 12C2 6.47715 6.47715 2 12 2C17.0996 2 21.3076 5.81717 21.9226 10.7501C21.9737 11.1596 22 11.5767 22 12C22 17.5229 17.5229 22 12 22C11.5767 22 11.1595 21.9737 10.75 21.9226ZM10.75 19.3963L10.75 13.6957C10.75 13.4252 10.7499 13.1526 10.7689 12.9201C10.79 12.6622 10.8406 12.3456 11.0043 12.0241C11.228 11.5851 11.585 11.2281 12.024 11.0044C12.3455 10.8406 12.6621 10.7901 12.92 10.769C13.1526 10.75 13.4251 10.7501 13.6955 10.7501L19.3963 10.7501C18.8013 7.20292 15.7163 4.5 12 4.5C7.85786 4.5 4.5 7.85786 4.5 12C4.5 15.7163 7.20287 18.8012 10.75 19.3963Z" fill="black"/>
</svg>
