<svg width="24" height="24" viewBox="0 0 24 24" fill="none" xmlns="http://www.w3.org/2000/svg">
<path fill-rule="evenodd" clip-rule="evenodd" d="M9.75005 15.9603C9.50363 15.9865 9.25339 16 9 16C5.13401 16 2 12.866 2 9C2 5.13401 5.13401 2 9 2C12.866 2 16 5.13401 16 9C16 9.25339 15.9865 9.50363 15.9603 9.75005H19.6112C20.0217 9.75005 20.3453 9.75005 20.6056 9.77132C20.8712 9.79302 21.093 9.83809 21.2945 9.94079C21.6238 10.1086 21.8915 10.3763 22.0593 10.7056C22.162 10.9071 22.2071 11.1289 22.2288 11.3945C22.2501 11.6548 22.2501 11.9783 22.25 12.3889V19.6112C22.2501 20.0218 22.2501 20.3453 22.2288 20.6056C22.2071 20.8712 22.162 21.093 22.0593 21.2945C21.8915 21.6238 21.6238 21.8915 21.2945 22.0593C21.093 22.162 20.8712 22.2071 20.6056 22.2288C20.3453 22.2501 20.0218 22.2501 19.6112 22.25H12.3889C11.9783 22.2501 11.6548 22.2501 11.3945 22.2288C11.1289 22.2071 10.9071 22.162 10.7056 22.0593C10.3763 21.8915 10.1086 21.6238 9.94079 21.2945C9.83809 21.093 9.79302 20.8712 9.77132 20.6056C9.75005 20.3453 9.75005 20.0219 9.75005 19.6113V15.9603ZM15.5 9C15.5 12.5899 12.5899 15.5 9 15.5C5.41015 15.5 2.5 12.5899 2.5 9C2.5 5.41015 5.41015 2.5 9 2.5C12.5899 2.5 15.5 5.41015 15.5 9ZM10.25 15.8887V19.6C10.25 20.0242 10.2502 20.3273 10.2697 20.5649C10.2888 20.7996 10.3255 20.9482 10.3863 21.0675C10.5061 21.3027 10.6974 21.494 10.9326 21.6138C11.0519 21.6746 11.2005 21.7113 11.4352 21.7304C11.6728 21.7499 11.9759 21.75 12.4 21.75H19.6C20.0242 21.75 20.3273 21.7499 20.5649 21.7304C20.7996 21.7113 20.9482 21.6746 21.0675 21.6138C21.3027 21.494 21.494 21.3027 21.6138 21.0675C21.6746 20.9482 21.7113 20.7996 21.7304 20.5649C21.7499 20.3273 21.75 20.0242 21.75 19.6V12.4C21.75 11.9759 21.7499 11.6728 21.7304 11.4352C21.7113 11.2005 21.6746 11.0519 21.6138 10.9326C21.494 10.6974 21.3027 10.5061 21.0675 10.3863C20.9482 10.3255 20.7996 10.2888 20.5649 10.2697C20.3273 10.2502 20.0242 10.25 19.6 10.25H15.8887C15.3724 13.114 13.114 15.3724 10.25 15.8887Z" fill="black"/>
</svg>
