<svg width="24" height="24" viewBox="0 0 24 24" fill="none" xmlns="http://www.w3.org/2000/svg">
<path d="M11.8945 0.923773C11.9922 0.826214 12.1504 0.826166 12.248 0.923773L19.3193 7.99506C19.4166 8.0927 19.4168 8.25107 19.3193 8.34858L12.25 15.4169V22.0331C12.601 22.1236 12.8761 22.3991 12.9668 22.7499H22C22.1379 22.7499 22.2497 22.8621 22.25 22.9999C22.25 23.138 22.1381 23.2499 22 23.2499H12.9668C12.8558 23.6813 12.466 23.9999 12 23.9999C11.534 23.9999 11.1442 23.6813 11.0332 23.2499H2C1.86193 23.2499 1.75 23.138 1.75 22.9999C1.75026 22.8621 1.86209 22.7499 2 22.7499H11.0332C11.1239 22.3991 11.399 22.1236 11.75 22.0331V15.2744L4.82324 8.34858C4.72566 8.251 4.72576 8.0927 4.82324 7.99506L11.8945 0.923773Z" fill="black"/>
</svg>
