<svg width="24" height="24" viewBox="0 0 24 24" fill="none" xmlns="http://www.w3.org/2000/svg">
<path d="M11.7178 0.745802C11.913 0.55096 12.2297 0.550797 12.4248 0.745802L19.4961 7.81709C19.6911 8.01223 19.6909 8.32886 19.4961 8.52412L12.5 15.5202V22.1345C12.6513 22.2221 12.7765 22.3484 12.8643 22.4997H22C22.2761 22.4997 22.4999 22.7236 22.5 22.9997C22.5 23.2759 22.2761 23.4997 22 23.4997H12.8652C12.6923 23.7984 12.37 23.9997 12 23.9997C11.63 23.9997 11.3077 23.7984 11.1348 23.4997H2C1.72386 23.4997 1.5 23.2759 1.5 22.9997C1.50006 22.7236 1.7239 22.4997 2 22.4997H11.1357C11.2235 22.3484 11.3487 22.2221 11.5 22.1345V15.3776L4.64648 8.52412C4.45135 8.32885 4.45127 8.01231 4.64648 7.81709L11.7178 0.745802Z" fill="black"/>
</svg>
