<svg width="24" height="24" viewBox="0 0 24 24" fill="none" xmlns="http://www.w3.org/2000/svg">
<path fill-rule="evenodd" clip-rule="evenodd" d="M11.541 0.569184C11.8339 0.276482 12.3087 0.276354 12.6016 0.569184L19.6729 7.64047C19.9654 7.93332 19.9655 8.4082 19.6729 8.70102L12.75 15.6239V22.2498H22C22.4142 22.2498 22.75 22.5856 22.75 22.9998C22.7499 23.4139 22.4141 23.7498 22 23.7498H12.6592C12.4831 23.9047 12.2529 23.9998 12 23.9998C11.7471 23.9998 11.5169 23.9047 11.3408 23.7498H2C1.58587 23.7498 1.25014 23.4139 1.25 22.9998C1.25 22.5856 1.58579 22.2498 2 22.2498H11.25V15.4813L4.46973 8.70102C4.17684 8.40814 4.17686 7.93337 4.46973 7.64047L11.541 0.569184ZM6.06055 8.17075L12.0713 14.1815L18.0811 8.17075L12.0713 2.16L6.06055 8.17075Z" fill="black"/>
</svg>
