<svg width="24" height="24" viewBox="0 0 24 24" fill="none" xmlns="http://www.w3.org/2000/svg">
<path fill-rule="evenodd" clip-rule="evenodd" d="M11.7178 0.745956C11.9131 0.550894 12.2296 0.55076 12.4248 0.745956L19.4961 7.81724C19.691 8.01246 19.6911 8.32909 19.4961 8.52428L12.5 15.5204V22.1337C12.6517 22.2214 12.7774 22.3482 12.8652 22.4999H22C22.2761 22.4999 22.5 22.7237 22.5 22.9999C22.4999 23.2759 22.2761 23.4999 22 23.4999H12.8643C12.6912 23.7982 12.3697 23.9999 12 23.9999C11.6303 23.9999 11.3088 23.7982 11.1357 23.4999H2C1.72394 23.4999 1.50013 23.2759 1.5 22.9999C1.5 22.7237 1.72386 22.4999 2 22.4999H11.1348C11.2226 22.3482 11.3483 22.2214 11.5 22.1337V15.3778L4.64648 8.52428C4.45123 8.32902 4.45124 8.01251 4.64648 7.81724L11.7178 0.745956ZM5.70703 8.17076L12.0713 14.535L18.4346 8.17076L12.0713 1.8065L5.70703 8.17076Z" fill="black"/>
</svg>
