<svg width="24" height="24" viewBox="0 0 24 24" fill="none" xmlns="http://www.w3.org/2000/svg">
<path fill-rule="evenodd" clip-rule="evenodd" d="M11.8945 0.922727C11.9922 0.825307 12.1505 0.825167 12.248 0.922727L19.3193 7.99402C19.4166 8.0916 19.4167 8.24997 19.3193 8.34753L12.25 15.4169V22.0321C12.6013 22.1226 12.8774 22.3985 12.9678 22.7499H22C22.1381 22.7499 22.25 22.8618 22.25 22.9999C22.2499 23.1378 22.138 23.2499 22 23.2499H12.9668C12.8556 23.6809 12.4657 23.9999 12 23.9999C11.5343 23.9999 11.1444 23.6809 11.0332 23.2499H2C1.862 23.2499 1.75012 23.1378 1.75 22.9999C1.75 22.8618 1.86193 22.7499 2 22.7499H11.0322C11.1226 22.3985 11.3987 22.1226 11.75 22.0321V15.2743L4.82324 8.34753C4.72561 8.2499 4.72562 8.09165 4.82324 7.99402L11.8945 0.922727ZM5.35352 8.17077L12.0713 14.8885L18.7881 8.17077L12.0713 1.453L5.35352 8.17077Z" fill="black"/>
</svg>
