<svg width="24" height="24" viewBox="0 0 24 24" fill="none" xmlns="http://www.w3.org/2000/svg">
<path d="M21.0074 1.78906H7.15556C7.01748 1.78906 6.90556 1.90099 6.90556 2.03906C6.90556 2.17713 7.01748 2.28906 7.15556 2.28906H14.4407L9.73843 18.4113H3C2.86193 18.4113 2.75 18.5232 2.75 18.6613C2.75 18.7994 2.86193 18.9113 3 18.9113H9.92037C9.92416 18.9114 9.92794 18.9114 9.93171 18.9113H16.8519C16.9899 18.9113 17.1019 18.7994 17.1019 18.6613C17.1019 18.5232 16.9899 18.4113 16.8519 18.4113H10.2593L14.9616 2.28906H21.0074C21.1455 2.28906 21.2574 2.17713 21.2574 2.03906C21.2574 1.90099 21.1455 1.78906 21.0074 1.78906Z" fill="black"/>
</svg>
