<svg width="24" height="24" viewBox="0 0 24 24" fill="none" xmlns="http://www.w3.org/2000/svg">
<path d="M21.0074 0.789388H14.8019C14.7829 0.788953 14.764 0.788955 14.7451 0.789388H7.15556C6.4652 0.789388 5.90556 1.34903 5.90556 2.03939C5.90556 2.72974 6.4652 3.28939 7.15556 3.28939H13.1074L8.98843 17.4116H3C2.30964 17.4116 1.75 17.9713 1.75 18.6616C1.75 19.352 2.30964 19.9116 3 19.9116H9.89809C9.91707 19.912 9.93601 19.912 9.95489 19.9116H16.8519C17.5422 19.9116 18.1019 19.352 18.1019 18.6616C18.1019 17.9713 17.5422 17.4116 16.8519 17.4116H11.5926L15.7116 3.28939H21.0074C21.6978 3.28939 22.2574 2.72974 22.2574 2.03939C22.2574 1.34903 21.6978 0.789388 21.0074 0.789388Z" fill="black"/>
</svg>
