<svg width="24" height="24" viewBox="0 0 24 24" fill="none" xmlns="http://www.w3.org/2000/svg">
<path fill-rule="evenodd" clip-rule="evenodd" d="M14.5537 5.92933C13.6553 6.82772 13.6553 8.2843 14.5537 9.1827C15.4521 10.0811 16.9086 10.0811 17.807 9.1827C18.7054 8.2843 18.7054 6.82772 17.807 5.92933C16.9086 5.03094 15.4521 5.03094 14.5537 5.92933ZM14.9072 8.82914C14.2041 8.12601 14.2041 6.98601 14.9072 6.28288C15.6103 5.57975 16.7503 5.57975 17.4535 6.28288C18.1566 6.98601 18.1566 8.12601 17.4535 8.82914C16.7503 9.53227 15.6103 9.53227 14.9072 8.82914Z" fill="black"/>
<path fill-rule="evenodd" clip-rule="evenodd" d="M10.2623 3.27813C8.41173 5.12868 7.7778 7.73486 8.35936 10.1025L2.30062 16.1612C1.83617 16.6257 1.59786 17.2699 1.64824 17.9248L1.91676 21.4156C1.96685 22.0668 2.50991 22.5697 3.16308 22.5697L7.00321 22.5697C7.02655 22.5697 7.05701 22.5697 7.08423 22.5675C7.11636 22.5649 7.16527 22.5579 7.21708 22.5315C7.28294 22.498 7.33649 22.4444 7.37004 22.3786C7.39644 22.3268 7.40337 22.2779 7.406 22.2457C7.40822 22.2185 7.4082 22.1881 7.40819 22.1647L7.40819 20.1091L9.46378 20.1091C9.48713 20.1091 9.51758 20.1091 9.5448 20.1069C9.57693 20.1043 9.62584 20.0974 9.67766 20.071C9.74351 20.0374 9.79706 19.9839 9.83061 19.918C9.85701 19.8662 9.86394 19.8173 9.86657 19.7852C9.86879 19.758 9.86877 19.7275 9.86876 19.7042L9.86876 17.6485L11.9244 17.6486C11.9477 17.6486 11.9781 17.6486 12.0054 17.6464C12.0375 17.6437 12.0864 17.6368 12.1382 17.6104C12.2041 17.5768 12.2576 17.5233 12.2912 17.4574C12.3176 17.4056 12.3245 17.3567 12.3271 17.3246C12.3294 17.2974 12.3293 17.2669 12.3293 17.2436L12.3293 15.188H12.9942C15.5212 16.0637 18.4392 15.4929 20.4581 13.474C23.2736 10.6585 23.2736 6.09364 20.4581 3.27813C17.6426 0.462629 13.0778 0.462627 10.2623 3.27813ZM8.85605 10.0278C8.29542 7.81115 8.88241 5.36511 10.6158 3.63168C13.2361 1.01144 17.4843 1.01144 20.1046 3.63169C22.7248 6.25193 22.7248 10.5002 20.1046 13.1204C18.2227 15.0023 15.5009 15.5329 13.1449 14.711L13.1432 14.7104C13.1363 14.708 13.1192 14.7019 13.101 14.6976C13.0857 14.6939 13.0703 14.6913 13.0547 14.6897C13.0361 14.6879 13.0181 14.6879 13.011 14.688L13.0092 14.688L12.2343 14.688C12.211 14.688 12.1805 14.6879 12.1533 14.6902C12.1212 14.6928 12.0722 14.6997 12.0204 14.7261C11.9546 14.7597 11.901 14.8132 11.8675 14.8791C11.8411 14.9309 11.8342 14.9798 11.8315 15.0119C11.8293 15.0392 11.8293 15.0696 11.8293 15.093L11.8293 17.1485L9.77374 17.1485C9.7504 17.1485 9.71994 17.1485 9.69272 17.1507C9.66059 17.1534 9.61168 17.1603 9.55986 17.1867C9.49401 17.2203 9.44046 17.2738 9.40691 17.3397C9.38051 17.3915 9.37358 17.4404 9.37095 17.4725C9.36873 17.4997 9.36874 17.5302 9.36876 17.5535L9.36876 19.6091H7.31317C7.28982 19.6091 7.25937 19.6091 7.23215 19.6113C7.20001 19.6139 7.1511 19.6209 7.09929 19.6473C7.03344 19.6808 6.97989 19.7344 6.94634 19.8002C6.91994 19.852 6.91301 19.9009 6.91038 19.9331C6.90816 19.9603 6.90817 19.9908 6.90819 20.0141L6.90819 22.0697H3.16308C2.77117 22.0697 2.44534 21.768 2.41528 21.3772L2.14676 17.8864C2.10758 17.3771 2.29293 16.876 2.65417 16.5148L8.74843 10.4205L8.75253 10.4165C8.76874 10.4007 8.8101 10.3603 8.83671 10.3087C8.85894 10.2655 8.87184 10.2187 8.87486 10.1702C8.87847 10.1121 8.86344 10.0557 8.85754 10.0335L8.85605 10.0278Z" fill="black"/>
</svg>
