<svg width="24" height="24" viewBox="0 0 24 24" fill="none" xmlns="http://www.w3.org/2000/svg">
<path d="M17.6303 9.00604C18.431 8.20528 18.431 6.90699 17.6303 6.10623C16.8295 5.30547 15.5312 5.30547 14.7304 6.10623C13.9297 6.90699 13.9297 8.20528 14.7304 9.00604C15.5312 9.8068 16.8295 9.8068 17.6303 9.00604Z" fill="black"/>
<path fill-rule="evenodd" clip-rule="evenodd" d="M9.73196 2.74792C7.79729 4.68259 7.06786 7.36505 7.53981 9.86151L1.77029 15.631C1.15103 16.2503 0.83328 17.1092 0.900449 17.9824L1.16897 21.4732C1.24912 22.5152 2.11801 23.3198 3.16308 23.3198H6.99819L7.00211 23.3198C7.02089 23.3199 7.08391 23.3201 7.1453 23.3151C7.22382 23.3087 7.38242 23.2892 7.55758 23.1999C7.76456 23.0945 7.93284 22.9262 8.0383 22.7192C8.12755 22.544 8.14709 22.3854 8.15351 22.3069C8.15852 22.2455 8.15828 22.1825 8.1582 22.1637L8.15819 22.1598L8.15819 20.8592H9.45876L9.46269 20.8593C9.48147 20.8593 9.54448 20.8596 9.60588 20.8546C9.68439 20.8481 9.84299 20.8286 10.0182 20.7393C10.2251 20.6339 10.3934 20.4656 10.4989 20.2586C10.5881 20.0835 10.6077 19.9249 10.6141 19.8464C10.6191 19.785 10.6188 19.722 10.6188 19.7032L10.6188 19.6992V18.3987H11.9193L11.9233 18.3987C11.942 18.3988 12.0051 18.399 12.0664 18.394C12.145 18.3876 12.3036 18.368 12.4787 18.2788C12.6857 18.1733 12.854 18.005 12.9594 17.7981C13.0487 17.6229 13.0682 17.4643 13.0747 17.3858C13.0797 17.3244 13.0794 17.2614 13.0793 17.2426L13.0793 17.2387V16.0033C15.7885 16.8111 18.8464 16.1464 20.9885 14.0044C24.0969 10.896 24.0969 5.85632 20.9885 2.74792C17.8801 -0.360473 12.8404 -0.360474 9.73196 2.74792ZM9.58315 9.84406C9.08462 7.87287 9.60717 5.70114 11.1462 4.16214C13.4735 1.83479 17.2469 1.83479 19.5742 4.16214C21.9016 6.48949 21.9016 10.2629 19.5742 12.5902C17.9036 14.2609 15.4865 14.7337 13.3919 14.003L13.3859 14.0009L13.3617 13.9927C13.3437 13.9868 13.3135 13.9774 13.2756 13.9683C13.2277 13.9568 13.1792 13.9486 13.1301 13.9437C13.0919 13.9398 13.0606 13.9387 13.0412 13.9384C13.0269 13.9381 13.0128 13.9381 13.0097 13.9381H12.2393L12.2354 13.9381C12.2166 13.938 12.1536 13.9378 12.0922 13.9428C12.0137 13.9492 11.8551 13.9687 11.6799 14.058C11.473 14.1635 11.3047 14.3317 11.1992 14.5387C11.11 14.7139 11.0904 14.8725 11.084 14.951C11.079 15.0124 11.0793 15.0754 11.0793 15.0942L11.0793 15.0981V16.3987H9.77876L9.77484 16.3987C9.75605 16.3986 9.69303 16.3983 9.63165 16.4034C9.55314 16.4098 9.39454 16.4293 9.21937 16.5186C9.0124 16.624 8.84412 16.7923 8.73866 16.9993C8.6494 17.1744 8.62986 17.333 8.62345 17.4116C8.61843 17.4729 8.61868 17.5359 8.61875 17.5547L8.61876 17.5587L8.61876 18.8592H7.31819L7.31429 18.8592C7.29553 18.8592 7.23249 18.8589 7.17108 18.8639C7.09256 18.8703 6.93396 18.8899 6.7588 18.9791C6.55182 19.0846 6.38354 19.2529 6.27808 19.4599C6.18883 19.635 6.16929 19.7936 6.16287 19.8721C6.15786 19.9335 6.15811 19.9965 6.15818 20.0153L6.15819 20.0192V21.3198L3.16308 21.3198L2.89456 17.829C2.87217 17.538 2.97808 17.2517 3.18451 17.0452L9.27876 10.951L9.28013 10.9496C9.28765 10.9421 9.31793 10.9121 9.34618 10.8803C9.38388 10.838 9.44736 10.7612 9.50352 10.6521C9.57321 10.5167 9.61394 10.3689 9.62341 10.217C9.63114 10.0929 9.61538 9.99334 9.60489 9.93904C9.59692 9.89776 9.58639 9.8567 9.58367 9.84606L9.58315 9.84406Z" fill="black"/>
</svg>
