<svg width="24" height="24" viewBox="0 0 24 24" fill="none" xmlns="http://www.w3.org/2000/svg">
<path fill-rule="evenodd" clip-rule="evenodd" d="M14.1999 5.57578C13.1062 6.66943 13.1062 8.4426 14.1999 9.53625C15.2935 10.6299 17.0667 10.6299 18.1603 9.53625C19.254 8.44259 19.254 6.66943 18.1603 5.57578C17.0667 4.48212 15.2935 4.48212 14.1999 5.57578ZM15.2605 8.47559C14.7527 7.96772 14.7527 7.1443 15.2605 6.63644C15.7684 6.12857 16.5918 6.12857 17.0997 6.63644C17.6075 7.14431 17.6075 7.96772 17.0997 8.47559C16.5918 8.98346 15.7684 8.98346 15.2605 8.47559Z" fill="black"/>
<path fill-rule="evenodd" clip-rule="evenodd" d="M9.90849 2.92458C8.00142 4.83165 7.30317 7.48894 7.81071 9.94379L1.94682 15.8077C1.37916 16.3753 1.0879 17.1627 1.14947 17.9631L1.41799 21.4539C1.48812 22.3657 2.2484 23.0697 3.16283 23.0697H7.07795C7.08382 23.0697 7.12831 23.0701 7.17186 23.0665C7.22658 23.062 7.34244 23.0481 7.47114 22.9825C7.62167 22.9058 7.74405 22.7834 7.82075 22.6329C7.88633 22.5042 7.9003 22.3883 7.90477 22.3336C7.90833 22.2901 7.908 22.2462 7.90795 22.2403L7.90795 20.6091L9.53852 20.6091C9.54014 20.6091 9.58647 20.6097 9.63243 20.6059C9.68715 20.6015 9.80301 20.5875 9.93171 20.5219C10.0822 20.4452 10.2046 20.3228 10.2813 20.1723C10.3469 20.0436 10.3609 19.9277 10.3653 19.873C10.3689 19.8295 10.3686 19.7856 10.3685 19.7797L10.3685 18.1485H11.9991C12.005 18.1486 12.0495 18.1489 12.093 18.1454C12.1477 18.1409 12.2636 18.1269 12.3923 18.0614C12.5428 17.9847 12.6652 17.8623 12.7419 17.7117C12.8075 17.583 12.8214 17.4672 12.8259 17.4125C12.8295 17.3689 12.8291 17.325 12.8291 17.3192L12.8291 15.688H12.9112C15.5935 16.5842 18.6736 15.9654 20.8114 13.8275C23.8222 10.8168 23.8222 5.93534 20.8114 2.92458C17.8007 -0.0861871 12.9193 -0.0861881 9.90849 2.92458ZM9.35077 9.94512C8.8143 7.88164 9.35494 5.59945 10.9691 3.98524C13.3941 1.56026 17.3258 1.56026 19.7508 3.98524C22.1758 6.41022 22.1758 10.3419 19.7508 12.7669C18.0066 14.511 15.4821 15.0018 13.2978 14.2349L13.2917 14.2328L13.2779 14.2281C13.2648 14.2238 13.2428 14.2169 13.2151 14.2102C13.1801 14.2018 13.1446 14.1957 13.1087 14.1921C13.0806 14.1892 13.0577 14.1884 13.0438 14.1882L13.0291 14.188L13.0227 14.188H12.1591C12.1532 14.1879 12.1087 14.1876 12.0652 14.1911C12.0105 14.1956 11.8946 14.2096 11.7659 14.2752C11.6154 14.3519 11.493 14.4743 11.4163 14.6248C11.3507 14.7535 11.3367 14.8693 11.3323 14.9241C11.3287 14.9676 11.329 15.0115 11.3291 15.0174L11.3291 16.6485H9.69852C9.69258 16.6485 9.64811 16.6482 9.6046 16.6517C9.54989 16.6562 9.43402 16.6702 9.30532 16.7357C9.15479 16.8124 9.03241 16.9348 8.95571 17.0854C8.89014 17.2141 8.87616 17.3299 8.87169 17.3846C8.86813 17.4282 8.86847 17.472 8.86851 17.4779L8.86852 19.1091H7.23795C7.23209 19.1091 7.18759 19.1087 7.14403 19.1123C7.08931 19.1168 6.97345 19.1307 6.84475 19.1963C6.69422 19.273 6.57184 19.3954 6.49514 19.5459C6.42957 19.6746 6.41559 19.7905 6.41112 19.8452C6.40756 19.8887 6.4079 19.9326 6.40794 19.9385L6.40795 21.5697H3.16283C3.0322 21.5697 2.92359 21.4691 2.91357 21.3389L2.64505 17.8481C2.61706 17.4843 2.74946 17.1264 3.00748 16.8683L9.13437 10.7414L9.14831 10.7274C9.15432 10.7212 9.16547 10.7097 9.17836 10.6952C9.20528 10.6649 9.25177 10.6086 9.29294 10.5283C9.34372 10.4292 9.37322 10.3207 9.37963 10.2095C9.38486 10.1187 9.37305 10.0462 9.36526 10.0071C9.35912 9.97621 9.35104 9.94614 9.35077 9.94512ZM13.0227 15.688C13.0235 15.688 13.0244 15.688 13.0227 15.688Z" fill="black"/>
</svg>
