<svg width="24" height="24" viewBox="0 0 24 24" fill="none" xmlns="http://www.w3.org/2000/svg">
<path d="M17.63 9.00592C18.4308 8.20516 18.4308 6.90687 17.63 6.10611C16.8292 5.30535 15.531 5.30535 14.7302 6.10611C13.9294 6.90687 13.9294 8.20516 14.7302 9.00592C15.531 9.80668 16.8292 9.80668 17.63 9.00592Z" fill="black"/>
<path fill-rule="evenodd" clip-rule="evenodd" d="M9.73171 2.7478C7.79705 4.68247 7.06761 7.36493 7.53956 9.86139L1.77005 15.6309C1.15078 16.2502 0.833035 17.1091 0.900205 17.9823L1.16873 21.4731C1.24888 22.5151 2.11776 23.3197 3.16283 23.3197H6.99795L7.00187 23.3197C7.02065 23.3198 7.08367 23.32 7.14506 23.315C7.22357 23.3086 7.38217 23.289 7.55734 23.1998C7.76431 23.0943 7.93259 22.9261 8.03805 22.7191C8.1273 22.5439 8.14685 22.3853 8.15326 22.3068C8.15828 22.2454 8.15803 22.1824 8.15796 22.1636L8.15795 22.1597L8.15795 20.8591H9.45852L9.46244 20.8591C9.48122 20.8592 9.54424 20.8595 9.60563 20.8544C9.68415 20.848 9.84275 20.8285 10.0179 20.7392C10.2249 20.6338 10.3932 20.4655 10.4986 20.2585C10.5879 20.0833 10.6074 19.9247 10.6138 19.8462C10.6189 19.7848 10.6186 19.7218 10.6185 19.7031L10.6185 19.6991V18.3985H11.9191L11.923 18.3986C11.9418 18.3986 12.0048 18.3989 12.0662 18.3939C12.1447 18.3874 12.3033 18.3679 12.4785 18.2787C12.6855 18.1732 12.8537 18.0049 12.9592 17.7979C13.0484 17.6228 13.068 17.4642 13.0744 17.3857C13.0794 17.3243 13.0792 17.2613 13.0791 17.2425L13.0791 17.2385V16.0032C15.7883 16.8109 18.8462 16.1463 20.9882 14.0043C24.0966 10.8959 24.0966 5.8562 20.9882 2.7478C17.8798 -0.360595 12.8401 -0.360596 9.73171 2.7478ZM9.58291 9.84393C9.08438 7.87275 9.60692 5.70102 11.1459 4.16201C13.4733 1.83467 17.2467 1.83467 19.574 4.16202C21.9013 6.48936 21.9014 10.2627 19.574 12.5901C17.9033 14.2607 15.4862 14.7336 13.3917 14.0029L13.3857 14.0008L13.3615 13.9926C13.3435 13.9867 13.3133 13.9773 13.2754 13.9682C13.2274 13.9567 13.1789 13.9485 13.1299 13.9435C13.0916 13.9397 13.0604 13.9386 13.041 13.9382C13.0267 13.938 13.0125 13.938 13.0095 13.938H12.2391L12.2352 13.938C12.2164 13.9379 12.1534 13.9376 12.092 13.9427C12.0135 13.9491 11.8549 13.9686 11.6797 14.0579C11.4727 14.1633 11.3044 14.3316 11.199 14.5386C11.1097 14.7137 11.0902 14.8723 11.0838 14.9509C11.0788 15.0122 11.079 15.0753 11.0791 15.094L11.0791 15.098V16.3985H9.77852L9.7746 16.3985C9.75581 16.3985 9.69279 16.3982 9.63141 16.4032C9.55289 16.4096 9.39429 16.4292 9.21913 16.5184C9.01215 16.6239 8.84387 16.7922 8.73841 16.9992C8.64916 17.1743 8.62962 17.3329 8.6232 17.4114C8.61819 17.4728 8.61843 17.5358 8.61851 17.5546L8.61852 17.5585L8.61852 18.8591H7.31795L7.31404 18.8591C7.29529 18.859 7.23225 18.8588 7.17083 18.8638C7.09232 18.8702 6.93372 18.8898 6.75856 18.979C6.55158 19.0845 6.3833 19.2528 6.27784 19.4597C6.18859 19.6349 6.16905 19.7935 6.16263 19.872C6.15761 19.9334 6.15786 19.9964 6.15794 20.0152L6.15795 20.0191V21.3197L3.16283 21.3197L2.89431 17.8289C2.87192 17.5379 2.97784 17.2515 3.18426 17.0451L9.27852 10.9509L9.27989 10.9495C9.2874 10.942 9.31769 10.9119 9.34593 10.8802C9.38363 10.8379 9.44712 10.7611 9.50328 10.652C9.57297 10.5166 9.6137 10.3688 9.62316 10.2168C9.63089 10.0927 9.61513 9.99322 9.60465 9.93892C9.59668 9.89764 9.58615 9.85658 9.58342 9.84593L9.58291 9.84393Z" fill="black"/>
</svg>
