<svg width="24" height="24" viewBox="0 0 24 24" fill="none" xmlns="http://www.w3.org/2000/svg">
<path fill-rule="evenodd" clip-rule="evenodd" d="M14.5535 5.92933C13.6551 6.82772 13.6551 8.2843 14.5535 9.1827C15.4519 10.0811 16.9085 10.0811 17.8069 9.1827C18.7053 8.2843 18.7053 6.82772 17.8069 5.92933C16.9085 5.03094 15.4519 5.03094 14.5535 5.92933ZM14.9071 8.82914C14.204 8.12601 14.204 6.98601 14.9071 6.28288C15.6102 5.57975 16.7502 5.57975 17.4534 6.28288C18.1565 6.98601 18.1565 8.12601 17.4534 8.82914C16.7502 9.53227 15.6102 9.53227 14.9071 8.82914Z" fill="black"/>
<path fill-rule="evenodd" clip-rule="evenodd" d="M10.2622 3.27813C8.41161 5.12868 7.77768 7.73486 8.35924 10.1025L2.3005 16.1612C1.83605 16.6257 1.59774 17.2699 1.64811 17.9248L1.91664 21.4156C1.96673 22.0668 2.50978 22.5697 3.16295 22.5697L7.00309 22.5697C7.02643 22.5697 7.05688 22.5697 7.0841 22.5675C7.11624 22.5649 7.16515 22.5579 7.21696 22.5315C7.28282 22.498 7.33636 22.4444 7.36992 22.3786C7.39632 22.3268 7.40325 22.2779 7.40587 22.2457C7.4081 22.2185 7.40808 22.1881 7.40807 22.1647L7.40807 20.1091L9.46366 20.1091C9.487 20.1091 9.51746 20.1091 9.54468 20.1069C9.57681 20.1043 9.62572 20.0974 9.67754 20.071C9.74339 20.0374 9.79694 19.9839 9.83049 19.918C9.85689 19.8662 9.86382 19.8173 9.86645 19.7852C9.86867 19.758 9.86865 19.7275 9.86864 19.7042L9.86864 17.6485L11.9242 17.6486C11.9476 17.6486 11.978 17.6486 12.0052 17.6464C12.0374 17.6437 12.0863 17.6368 12.1381 17.6104C12.204 17.5768 12.2575 17.5233 12.2911 17.4574C12.3175 17.4056 12.3244 17.3567 12.327 17.3246C12.3292 17.2974 12.3292 17.2669 12.3292 17.2436L12.3292 15.188H12.994C15.5211 16.0637 18.4391 15.4929 20.458 13.474C23.2735 10.6585 23.2735 6.09364 20.458 3.27813C17.6425 0.462629 13.0777 0.462627 10.2622 3.27813ZM8.85592 10.0278C8.2953 7.81115 8.88228 5.36511 10.6157 3.63168C13.236 1.01144 17.4842 1.01144 20.1044 3.63169C22.7247 6.25193 22.7247 10.5002 20.1045 13.1204C18.2226 15.0023 15.5007 15.5329 13.1448 14.711L13.143 14.7104C13.1362 14.708 13.1191 14.7019 13.1009 14.6976C13.0856 14.6939 13.0702 14.6913 13.0546 14.6897C13.036 14.6879 13.018 14.6879 13.0109 14.688L13.0091 14.688L12.2342 14.688C12.2108 14.688 12.1804 14.6879 12.1532 14.6902C12.121 14.6928 12.0721 14.6997 12.0203 14.7261C11.9545 14.7597 11.9009 14.8132 11.8674 14.8791C11.841 14.9309 11.834 14.9798 11.8314 15.0119C11.8292 15.0392 11.8292 15.0696 11.8292 15.093L11.8292 17.1485L9.77362 17.1485C9.75027 17.1485 9.71982 17.1485 9.6926 17.1507C9.66046 17.1534 9.61155 17.1603 9.55974 17.1867C9.49388 17.2203 9.44034 17.2738 9.40679 17.3397C9.38039 17.3915 9.37346 17.4404 9.37083 17.4725C9.36861 17.4997 9.36862 17.5302 9.36864 17.5535L9.36864 19.6091H7.31305C7.2897 19.6091 7.25925 19.6091 7.23203 19.6113C7.19989 19.6139 7.15098 19.6209 7.09917 19.6473C7.03331 19.6808 6.97977 19.7344 6.94621 19.8002C6.91981 19.852 6.91288 19.9009 6.91026 19.9331C6.90804 19.9603 6.90805 19.9908 6.90806 20.0141L6.90807 22.0697H3.16295C2.77105 22.0697 2.44522 21.768 2.41516 21.3772L2.14664 17.8864C2.10746 17.3771 2.29281 16.876 2.65405 16.5148L8.74831 10.4205L8.75241 10.4165C8.76861 10.4007 8.80998 10.3603 8.83659 10.3087C8.85882 10.2655 8.87171 10.2187 8.87473 10.1702C8.87835 10.1121 8.86332 10.0557 8.85742 10.0335L8.85592 10.0278Z" fill="black"/>
</svg>
