<svg width="24" height="24" viewBox="0 0 24 24" fill="none" xmlns="http://www.w3.org/2000/svg">
<path fill-rule="evenodd" clip-rule="evenodd" d="M14.2001 5.57578C13.1065 6.66943 13.1065 8.4426 14.2001 9.53625C15.2938 10.6299 17.0669 10.6299 18.1606 9.53625C19.2542 8.44259 19.2542 6.66943 18.1606 5.57578C17.0669 4.48212 15.2938 4.48212 14.2001 5.57578ZM15.2608 8.47559C14.7529 7.96772 14.7529 7.1443 15.2608 6.63644C15.7686 6.12857 16.5921 6.12857 17.0999 6.63644C17.6078 7.14431 17.6078 7.96772 17.0999 8.47559C16.5921 8.98346 15.7686 8.98346 15.2608 8.47559Z" fill="black"/>
<path fill-rule="evenodd" clip-rule="evenodd" d="M9.90873 2.92458C8.00166 4.83165 7.30342 7.48894 7.81095 9.94379L1.94707 15.8077C1.37941 16.3753 1.08814 17.1627 1.14971 17.9631L1.41823 21.4539C1.48837 22.3657 2.24864 23.0697 3.16308 23.0697H7.07819C7.08406 23.0697 7.12856 23.0701 7.1721 23.0665C7.22682 23.062 7.34268 23.0481 7.47138 22.9825C7.62191 22.9058 7.7443 22.7834 7.821 22.6329C7.88657 22.5042 7.90055 22.3883 7.90502 22.3336C7.90858 22.2901 7.90824 22.2462 7.9082 22.2403L7.90819 20.6091L9.53876 20.6091C9.54039 20.6091 9.58671 20.6097 9.63268 20.6059C9.6874 20.6015 9.80326 20.5875 9.93196 20.5219C10.0825 20.4452 10.2049 20.3228 10.2816 20.1723C10.3471 20.0436 10.3611 19.9277 10.3656 19.873C10.3691 19.8295 10.3688 19.7856 10.3688 19.7797L10.3688 18.1485H11.9993C12.0053 18.1486 12.0497 18.1489 12.0932 18.1454C12.148 18.1409 12.2638 18.1269 12.3925 18.0614C12.5431 17.9847 12.6654 17.8623 12.7421 17.7117C12.8077 17.583 12.8217 17.4672 12.8262 17.4125C12.8297 17.3689 12.8294 17.325 12.8293 17.3192L12.8293 15.688H12.9114C15.5938 16.5842 18.6738 15.9654 20.8117 13.8275C23.8224 10.8168 23.8224 5.93534 20.8117 2.92458C17.8009 -0.0861871 12.9195 -0.0861881 9.90873 2.92458ZM9.35102 9.94512C8.81454 7.88164 9.35518 5.59945 10.9694 3.98524C13.3944 1.56026 17.326 1.56026 19.751 3.98524C22.176 6.41022 22.176 10.3419 19.751 12.7669C18.0069 14.511 15.4823 15.0018 13.298 14.2349L13.292 14.2328L13.2781 14.2281C13.2651 14.2238 13.2431 14.2169 13.2154 14.2102C13.1804 14.2018 13.1448 14.1957 13.109 14.1921C13.0809 14.1892 13.0579 14.1884 13.044 14.1882L13.0293 14.188L13.0229 14.188H12.1593C12.1534 14.1879 12.1089 14.1876 12.0654 14.1911C12.0107 14.1956 11.8948 14.2096 11.7661 14.2752C11.6156 14.3519 11.4932 14.4743 11.4165 14.6248C11.351 14.7535 11.337 14.8693 11.3325 14.9241C11.3289 14.9676 11.3293 15.0115 11.3293 15.0174L11.3293 16.6485H9.69876C9.69283 16.6485 9.64836 16.6482 9.60485 16.6517C9.55013 16.6562 9.43427 16.6702 9.30557 16.7357C9.15504 16.8124 9.03266 16.9348 8.95596 17.0854C8.89038 17.2141 8.8764 17.3299 8.87193 17.3846C8.86838 17.4282 8.86871 17.472 8.86876 17.4779L8.86876 19.1091H7.23819C7.23234 19.1091 7.18784 19.1087 7.14428 19.1123C7.08956 19.1168 6.9737 19.1307 6.845 19.1963C6.69447 19.273 6.57208 19.3954 6.49539 19.5459C6.42981 19.6746 6.41583 19.7905 6.41136 19.8452C6.40781 19.8887 6.40814 19.9326 6.40819 19.9385L6.40819 21.5697H3.16308C3.03244 21.5697 2.92383 21.4691 2.91381 21.3389L2.64529 17.8481C2.61731 17.4843 2.7497 17.1264 3.00773 16.8683L9.13461 10.7414L9.14855 10.7274C9.15457 10.7212 9.16572 10.7097 9.1786 10.6952C9.20553 10.6649 9.25201 10.6086 9.29319 10.5283C9.34396 10.4292 9.37346 10.3207 9.37987 10.2095C9.3851 10.1187 9.37329 10.0462 9.3655 10.0071C9.35937 9.97621 9.35129 9.94614 9.35102 9.94512ZM13.0229 15.688C13.0237 15.688 13.0246 15.688 13.0229 15.688Z" fill="black"/>
</svg>
