<svg width="24" height="24" viewBox="0 0 24 24" fill="none" xmlns="http://www.w3.org/2000/svg">
<path d="M11.0845 8.73292C10.9869 8.63543 10.8286 8.63534 10.731 8.73292C10.6337 8.83053 10.6336 8.98889 10.731 9.08643L13.5543 11.9097L10.731 14.7329C10.6336 14.8305 10.6335 14.9889 10.731 15.0864C10.8286 15.1838 10.9869 15.1838 11.0845 15.0864L13.9078 12.2632L16.731 15.0864C16.8285 15.1839 16.9869 15.1837 17.0845 15.0864C17.1822 14.9888 17.1822 14.8305 17.0845 14.7329L14.2613 11.9097L17.0845 9.08643C17.1822 8.98881 17.1821 8.83055 17.0845 8.73292C16.9869 8.63536 16.8286 8.63532 16.731 8.73292L13.9078 11.5562L11.0845 8.73292Z" fill="black"/>
<path fill-rule="evenodd" clip-rule="evenodd" d="M8.87457 2.7505C8.59763 2.7505 8.41008 2.74866 8.23492 2.79835C8.0869 2.84038 7.94773 2.90897 7.82477 3.00147C7.6794 3.11091 7.56817 3.26155 7.40094 3.48194L1.41852 11.3657C1.3007 11.521 1.19394 11.6536 1.15289 11.8081C1.11956 11.934 1.1195 12.067 1.15289 12.1929C1.19403 12.3473 1.30076 12.4801 1.41852 12.6353L7.40094 20.5191C7.56805 20.7393 7.67944 20.8901 7.82477 20.9995C7.94766 21.0919 8.08702 21.1606 8.23492 21.2026C8.41003 21.2523 8.59774 21.2505 8.87457 21.2505H21.9507C22.0865 21.2505 22.2035 21.2505 22.2994 21.2427C22.3981 21.2346 22.4969 21.2166 22.5914 21.1685C22.7321 21.0967 22.8467 20.982 22.9185 20.8413C22.9666 20.7469 22.9846 20.648 22.9927 20.5493C23.0006 20.4535 23.0005 20.3363 23.0005 20.2007V3.8003C23.0005 3.66469 23.0005 3.54746 22.9927 3.45167C22.9847 3.353 22.9666 3.25413 22.9185 3.15968C22.8467 3.01895 22.7321 2.90439 22.5914 2.83253C22.4969 2.78438 22.3981 2.7664 22.2994 2.75831C22.2035 2.75048 22.0865 2.7505 21.9507 2.7505H8.87457ZM21.9507 3.2505C22.0945 3.2505 22.1876 3.25059 22.2584 3.25636C22.3259 3.26189 22.3514 3.27155 22.3638 3.27784C22.4107 3.30182 22.4493 3.34028 22.4732 3.38722C22.4795 3.39977 22.4892 3.42571 22.4947 3.49268C22.5004 3.56341 22.5005 3.65671 22.5005 3.8003V20.2007C22.5005 20.3443 22.5005 20.4376 22.4947 20.5083C22.4892 20.5757 22.4795 20.6014 22.4732 20.6138C22.4492 20.6607 22.4108 20.6992 22.3638 20.7232C22.3514 20.7294 22.3259 20.7391 22.2584 20.7446C22.1876 20.7504 22.0945 20.7505 21.9507 20.7505H8.87457C8.56926 20.7505 8.46408 20.7483 8.37164 20.7222C8.28298 20.697 8.19924 20.6554 8.12555 20.6001C8.04873 20.5423 7.98302 20.4596 7.7984 20.2163L1.81696 12.3325C1.67274 12.1425 1.64599 12.1008 1.63629 12.0649C1.62515 12.023 1.6252 11.978 1.63629 11.936C1.6459 11.9001 1.6723 11.8591 1.81696 11.6685L7.7984 3.78468C7.98316 3.54119 8.04873 3.45872 8.12555 3.40089C8.19932 3.34543 8.28286 3.30401 8.37164 3.27882C8.46413 3.25261 8.56903 3.2505 8.87457 3.2505H21.9507Z" fill="black"/>
</svg>
