<svg width="24" height="24" viewBox="0 0 24 24" fill="none" xmlns="http://www.w3.org/2000/svg">
<path fill-rule="evenodd" clip-rule="evenodd" d="M0.123117 8.43565C0 9.21298 0 10.142 0 12C0 13.858 0 14.787 0.123117 15.5643C0.800832 19.8433 4.15673 23.1992 8.43565 23.8769C9.21298 24 10.142 24 12 24C13.858 24 14.787 24 15.5643 23.8769C19.8433 23.1992 23.1992 19.8433 23.8769 15.5643C24 14.787 24 13.858 24 12C24 10.142 24 9.21298 23.8769 8.43565C23.1992 4.15673 19.8433 0.800832 15.5643 0.123117C14.787 0 13.858 0 12 0C10.142 0 9.21298 0 8.43565 0.123117C4.15673 0.800832 0.800832 4.15673 0.123117 8.43565ZM9.36985 6.27507C9.31065 6.25347 9.23709 6.24984 8.96331 6.24984H5H4.75V5.74984H5H8.96331L9.00188 5.74981C9.21825 5.74963 9.38806 5.74948 9.54119 5.80534C9.67568 5.85439 9.7968 5.93426 9.89486 6.03855C10.0065 6.1573 10.0733 6.31344 10.1583 6.51239L10.1735 6.54784L14.6194 16.9215C14.7272 17.1732 14.7596 17.2394 14.8027 17.2853C14.8473 17.3327 14.9024 17.369 14.9635 17.3913C15.0227 17.4129 15.0962 17.4165 15.37 17.4165H19H19.25V17.9165H19H15.37L15.3315 17.9165C15.1151 17.9167 14.9453 17.9169 14.7921 17.861C14.6577 17.8119 14.5365 17.7321 14.4385 17.6278C14.3268 17.509 14.26 17.3529 14.175 17.154L14.175 17.1539L14.1598 17.1185L9.71395 6.7448C9.6061 6.49316 9.57378 6.42698 9.53061 6.38107C9.48604 6.33367 9.43098 6.29736 9.36985 6.27507ZM13.75 5.99984C13.75 5.86177 13.8619 5.74984 14 5.74984H19H19.25V6.24984H19H14C13.8619 6.24984 13.75 6.13791 13.75 5.99984Z" fill="black"/>
</svg>
