<svg width="24" height="24" viewBox="0 0 24 24" fill="none" xmlns="http://www.w3.org/2000/svg">
<path d="M19.7501 4.25C19.7501 3.55964 20.3097 3 21.0001 3C21.6904 3 22.2501 3.55964 22.2501 4.25V19.25C22.2501 19.9404 21.6904 20.5 21.0001 20.5C20.3097 20.5 19.7501 19.9404 19.7501 19.25V12.3675L16.077 15.1622C15.8676 15.3216 15.7628 15.4012 15.6753 15.4C15.5992 15.399 15.5276 15.3639 15.4807 15.3047C15.4268 15.2365 15.4275 15.106 15.4291 14.8448L15.4386 13.25H2.85034C2.15999 13.25 1.60034 12.6904 1.60034 12C1.60034 11.3096 2.15999 10.75 2.85034 10.75H15.4534L15.4634 9.08345C15.4649 8.82227 15.4657 8.69168 15.5204 8.6242C15.5681 8.5655 15.64 8.53129 15.7162 8.53116C15.8037 8.53101 15.9075 8.61191 16.115 8.77373L19.7501 11.6085V4.25Z" fill="black"/>
</svg>
