<svg width="24" height="24" viewBox="0 0 24 24" fill="none" xmlns="http://www.w3.org/2000/svg">
<path fill-rule="evenodd" clip-rule="evenodd" d="M9.18105 3.50003L21.2166 3.50006C21.3428 3.50004 21.4657 3.50003 21.5698 3.50853C21.6841 3.51787 21.8189 3.53991 21.9546 3.60905C22.1428 3.70493 22.2958 3.85791 22.3917 4.04607C22.4608 4.18178 22.4828 4.31665 22.4922 4.43095C22.5007 4.53498 22.5007 4.65782 22.5007 4.78396L22.5007 19.216C22.5007 19.3422 22.5007 19.4651 22.4922 19.5692C22.4828 19.6835 22.4608 19.8183 22.3917 19.9541C22.2958 20.1422 22.1428 20.2952 21.9546 20.3911C21.8189 20.4602 21.6841 20.4823 21.5698 20.4916C21.4657 20.5001 21.3428 20.5001 21.2167 20.5001L9.18105 20.5001C8.95906 20.5003 8.76341 20.5005 8.5752 20.4513C8.40994 20.4081 8.25327 20.3371 8.11195 20.2411C7.95101 20.1319 7.82233 19.9845 7.67634 19.8173L1.57573 12.8452C1.50238 12.7614 1.42999 12.6786 1.37357 12.6032C1.31094 12.5194 1.24511 12.4156 1.20609 12.2836C1.15135 12.0986 1.15135 11.9016 1.20609 11.7165C1.24511 11.5845 1.31094 11.4807 1.37357 11.3969C1.42999 11.3215 1.50235 11.2388 1.5757 11.155L7.6763 4.18284C7.82231 4.01563 7.951 3.86826 8.11195 3.759C8.25327 3.66306 8.40994 3.59197 8.5752 3.54879C8.76341 3.49961 8.95906 3.49981 9.18105 3.50003ZM9.36676 7.36955C9.8549 6.88139 10.6464 6.88137 11.1345 7.36951L13.9072 10.1421L16.6799 7.36951C17.1681 6.88137 17.9596 6.88139 18.4477 7.36955C18.9359 7.85772 18.9358 8.64918 18.4477 9.13732L15.675 11.9098L18.4476 14.6822C18.9357 15.1704 18.9358 15.9618 18.4476 16.45C17.9595 16.9382 17.168 16.9382 16.6798 16.45L13.9072 13.6775L11.1346 16.45C10.6464 16.9382 9.85499 16.9382 9.36685 16.45C8.8787 15.9618 8.87872 15.1704 9.36689 14.6822L12.1394 11.9098L9.3668 9.13732C8.87863 8.64918 8.87861 7.85772 9.36676 7.36955Z" fill="black"/>
</svg>
