<svg width="24" height="24" viewBox="0 0 24 24" fill="none" xmlns="http://www.w3.org/2000/svg">
<path d="M18.8002 5.25C19.3809 5.25 19.7413 5.25098 20.0121 5.2731C20.2665 5.29389 20.3315 5.32706 20.3406 5.33166C20.4817 5.40357 20.5966 5.51839 20.6685 5.65951C20.6731 5.66855 20.7064 5.73377 20.7271 5.9882C20.7493 6.25899 20.7502 6.61933 20.7502 7.2V10.8C20.7502 11.3807 20.7493 11.741 20.7271 12.0118C20.7064 12.2663 20.6732 12.3313 20.6686 12.3403C20.5967 12.4814 20.4819 12.5964 20.3407 12.6683C20.3317 12.6729 20.2665 12.7061 20.0121 12.7269C19.7413 12.749 19.3809 12.75 18.8002 12.75H4.76801L8.29098 9.22703C8.77914 8.73888 8.77914 7.94742 8.29098 7.45927C7.80282 6.97111 7.01137 6.97111 6.52321 7.45927L0.866361 13.1161C0.378205 13.6043 0.378205 14.3957 0.866361 14.8839L6.52321 20.5407C7.01137 21.0289 7.80282 21.0289 8.29098 20.5407C8.77914 20.0526 8.77914 19.2611 8.29098 18.773L4.76801 15.25L18.8461 15.25C19.3669 15.25 19.8307 15.2501 20.2156 15.2186C20.6264 15.185 21.0562 15.1095 21.4757 14.8958C22.0872 14.5842 22.5844 14.087 22.896 13.4755C23.1098 13.056 23.1853 12.6262 23.2188 12.2154C23.2503 11.8304 23.2503 11.3666 23.2502 10.8459V7.15413C23.2503 6.63336 23.2503 6.16957 23.2188 5.78462C23.1853 5.37381 23.1098 4.94403 22.896 4.52454C22.5844 3.91301 22.0872 3.41582 21.4757 3.10423C21.0562 2.89049 20.6264 2.81497 20.2156 2.7814C19.8307 2.74995 19.3669 2.74998 18.8462 2.75L14.0002 2.75C13.3099 2.75 12.7502 3.30965 12.7502 4C12.7502 4.69036 13.3099 5.25 14.0002 5.25H18.8002Z" fill="black"/>
</svg>
