<svg width="24" height="24" viewBox="0 0 24 24" fill="none" xmlns="http://www.w3.org/2000/svg">
<path d="M9.5428 7.54656C9.93331 7.15602 10.5665 7.15601 10.957 7.54652L13.9065 10.4959L16.856 7.54652C17.2465 7.15601 17.8797 7.15602 18.2702 7.54656C18.6607 7.93709 18.6607 8.57025 18.2702 8.96077L15.3207 11.91L18.2701 14.8592C18.6606 15.2498 18.6606 15.8829 18.2701 16.2735C17.8796 16.664 17.2464 16.664 16.8559 16.2735L13.9065 13.3242L10.9571 16.2735C10.5666 16.664 9.93341 16.664 9.54289 16.2735C9.15238 15.8829 9.15239 15.2498 9.54292 14.8592L12.4922 11.91L9.54283 8.96077C9.1523 8.57025 9.15228 7.93709 9.5428 7.54656Z" fill="black"/>
<path fill-rule="evenodd" clip-rule="evenodd" d="M9.22595 3.00023L9.1701 3.00012C8.96302 2.99952 8.70231 2.99876 8.44806 3.0652C8.22771 3.12278 8.01882 3.21756 7.83039 3.34547C7.61297 3.49307 7.44186 3.68977 7.30595 3.84601L7.26925 3.88812L1.19456 10.8306C1.12531 10.9097 1.04087 11.0061 0.972414 11.0977C0.891875 11.2054 0.788388 11.3635 0.725886 11.5748C0.64378 11.8525 0.64378 12.148 0.725886 12.4256C0.788388 12.637 0.891875 12.7951 0.972413 12.9028C1.04087 12.9943 1.1253 13.0908 1.19454 13.1698L7.26925 20.1123L7.30595 20.1544C7.44186 20.3107 7.61297 20.5074 7.83039 20.655C8.01882 20.7829 8.22771 20.8777 8.44806 20.9353C8.70231 21.0017 8.96302 21.0009 9.1701 21.0003L9.22595 21.0002L21.2231 21.0002C21.3422 21.0003 21.4845 21.0003 21.6098 20.9901C21.755 20.9782 21.963 20.9478 22.1809 20.8367C22.4632 20.6929 22.6926 20.4635 22.8364 20.1812C22.9475 19.9633 22.9779 19.7553 22.9898 19.6101C23 19.4848 23 19.3426 22.9999 19.2235V4.77708C23 4.65798 23 4.51568 22.9898 4.3904C22.9779 4.24518 22.9475 4.03719 22.8364 3.81924C22.6926 3.537 22.4632 3.30753 22.1809 3.16372C21.963 3.05267 21.755 3.02223 21.6098 3.01036C21.4844 3.00012 21.3422 3.00018 21.2231 3.00022L9.22595 3.00023ZM8.95227 5.00618L8.95508 5.00328L8.9591 5.00307C9.01119 5.00051 9.08294 5.00023 9.22595 5.00023H20.9999V19.0002H9.22595C9.08294 19.0002 9.01119 18.9999 8.9591 18.9974L8.95508 18.9972L8.95227 18.9943C8.91604 18.9568 8.86858 18.903 8.7744 18.7953L2.82869 12.0002L8.7744 5.20512C8.86858 5.0975 8.91604 5.04368 8.95227 5.00618Z" fill="black"/>
</svg>
