<svg width="24" height="24" viewBox="0 0 24 24" fill="none" xmlns="http://www.w3.org/2000/svg">
<path d="M11.5782 1.42346C11.8118 1.19218 12.1885 1.19218 12.422 1.42346L22.3227 11.2272C22.7099 11.6106 22.4253 12.25 21.9008 12.25H16.5V15.75C16.5 16.0261 16.2761 16.25 16 16.25H7.99997C7.72383 16.25 7.49997 16.0261 7.49997 15.75V12.25L2.09943 12.25C1.57494 12.25 1.29033 11.6106 1.67754 11.2272L11.5782 1.42346Z" fill="black"/>
<path d="M16 17.25C16.2761 17.25 16.5 17.4739 16.5 17.75V20.75C16.5 21.0261 16.2761 21.25 16 21.25H7.99997C7.72383 21.25 7.49997 21.0261 7.49997 20.75V17.75C7.49997 17.4739 7.72383 17.25 7.99997 17.25H16Z" fill="black"/>
</svg>
