<svg width="24" height="24" viewBox="0 0 24 24" fill="none" xmlns="http://www.w3.org/2000/svg">
<path fill-rule="evenodd" clip-rule="evenodd" d="M0.123117 8.43565C0 9.21298 0 10.142 0 12C0 13.858 0 14.787 0.123117 15.5643C0.800832 19.8433 4.15673 23.1992 8.43565 23.8769C9.21298 24 10.142 24 12 24C13.858 24 14.787 24 15.5643 23.8769C19.8433 23.1992 23.1992 19.8433 23.8769 15.5643C24 14.787 24 13.858 24 12C24 10.142 24 9.21298 23.8769 8.43565C23.1992 4.15673 19.8433 0.800832 15.5643 0.123117C14.787 0 13.858 0 12 0C10.142 0 9.21298 0 8.43565 0.123117C4.15673 0.800832 0.800832 4.15673 0.123117 8.43565ZM10.1481 6.33285L10.1177 6.33282C9.96966 6.33267 9.83923 6.33254 9.71376 6.36533C9.60358 6.39412 9.49914 6.44151 9.40492 6.50547C9.29762 6.57831 9.21183 6.67656 9.11449 6.78803L9.09447 6.81094L5.05384 11.4288L5.04745 11.4361L5.04742 11.4361C4.99853 11.492 4.95028 11.5471 4.91267 11.5974C4.87092 11.6533 4.82703 11.7225 4.80102 11.8105C4.76453 11.9339 4.76453 12.0652 4.80102 12.1886C4.82703 12.2765 4.87092 12.3458 4.91267 12.4016C4.95029 12.4519 4.99854 12.507 5.04744 12.5629L5.04745 12.5629L5.04745 12.5629L5.04746 12.5629L5.05384 12.5702L9.09447 17.1881L9.11449 17.211L9.1145 17.211C9.21184 17.3225 9.29763 17.4207 9.40492 17.4936C9.49914 17.5575 9.60358 17.6049 9.71376 17.6337C9.83922 17.6665 9.96965 17.6663 10.1176 17.6662H10.1176L10.1481 17.6662H18.1307H18.1414C18.2255 17.6662 18.3074 17.6662 18.3768 17.6605C18.453 17.6543 18.5429 17.6396 18.6334 17.5935C18.7588 17.5296 18.8608 17.4276 18.9247 17.3022C18.9708 17.2117 18.9855 17.1218 18.9917 17.0456C18.9974 16.9763 18.9974 16.8944 18.9974 16.8103V16.8102V16.8102V16.8102V16.7995V7.19951V7.18887V7.18882V7.18879V7.18869C18.9974 7.10463 18.9974 7.02277 18.9917 6.95343C18.9855 6.87724 18.9708 6.78733 18.9247 6.69685C18.8608 6.57141 18.7588 6.46942 18.6334 6.40551C18.5429 6.35941 18.453 6.34472 18.3768 6.33849C18.3074 6.33282 18.2255 6.33283 18.1414 6.33284L18.1307 6.33285H10.1481ZM15.1761 8.97194C15.469 8.67905 15.9438 8.67906 16.2367 8.97196C16.5296 9.26486 16.5296 9.73973 16.2367 10.0326L14.3296 11.9397L16.2371 13.8471C16.53 14.14 16.53 14.6148 16.2371 14.9077C15.9442 15.2006 15.4693 15.2007 15.1764 14.9078L13.2689 13.0003L11.3613 14.9078C11.0684 15.2007 10.5936 15.2006 10.3007 14.9077C10.0078 14.6148 10.0078 14.14 10.3007 13.8471L12.2082 11.9397L10.3011 10.0326C10.0082 9.73973 10.0082 9.26486 10.301 8.97196C10.5939 8.67906 11.0688 8.67905 11.3617 8.97194L13.2689 10.879L15.1761 8.97194Z" fill="black"/>
</svg>
