<svg width="24" height="24" viewBox="0 0 24 24" fill="none" xmlns="http://www.w3.org/2000/svg">
<path fill-rule="evenodd" clip-rule="evenodd" d="M12.2462 2.8511C12.11 2.7163 11.8903 2.7163 11.7542 2.8511L1.85351 12.6548C1.62868 12.8774 1.7931 13.25 2.09949 13.25L7.75003 13.25V19C7.75003 19.1381 7.86196 19.25 8.00003 19.25H16C16.1381 19.25 16.25 19.1381 16.25 19V13.25H21.9009C22.2073 13.25 22.3717 12.8774 22.1469 12.6548L12.2462 2.8511ZM12.0002 3.31118L21.5324 12.75H16C15.862 12.75 15.75 12.8619 15.75 13V18.75H8.25003V13C8.25003 12.8619 8.1381 12.75 8.00003 12.75L2.468 12.75L12.0002 3.31118ZM2.20532 13.0101C2.2052 13.0102 2.20543 13.01 2.20532 13.0101Z" fill="black"/>
</svg>
