<svg width="24" height="24" viewBox="0 0 24 24" fill="none" xmlns="http://www.w3.org/2000/svg">
<path d="M11.6149 8.20337C11.2243 7.81286 10.5913 7.81286 10.2008 8.20337C9.81078 8.59394 9.81045 9.22708 10.2008 9.61744L12.4938 11.9104L10.2008 14.2034C9.81067 14.5939 9.81043 15.227 10.2008 15.6174C10.5912 16.0075 11.2244 16.0074 11.6149 15.6174L13.9078 13.3245L16.2008 15.6174C16.5911 16.0076 17.2244 16.0073 17.6149 15.6174C18.0053 15.2269 18.0053 14.5939 17.6149 14.2034L15.3219 11.9104L17.6149 9.61744C18.0053 9.22699 18.0052 8.59392 17.6149 8.20337C17.2244 7.81286 16.5913 7.81286 16.2008 8.20337L13.9078 10.4963L11.6149 8.20337Z" fill="black"/>
<path fill-rule="evenodd" clip-rule="evenodd" d="M8.87464 2.00025C8.64088 2.00025 8.32899 1.9916 8.02991 2.07642C7.79306 2.1437 7.57041 2.25455 7.37366 2.40259C7.12545 2.58946 6.94462 2.84238 6.80335 3.02857L0.820928 10.9124C0.753494 11.0012 0.571054 11.2181 0.467412 11.4934L0.42835 11.6155C0.361445 11.8676 0.361452 12.1329 0.42835 12.385C0.516603 12.7172 0.743824 12.9866 0.820928 13.0881L6.80335 20.9719C6.94463 21.1581 7.12539 21.411 7.37366 21.5979C7.57043 21.746 7.79302 21.8568 8.02991 21.9241C8.329 22.0089 8.64087 22.0002 8.87464 22.0002H21.9508C22.0741 22.0003 22.2267 22.0013 22.36 21.9905C22.5051 21.9786 22.7136 21.948 22.9313 21.8372C23.2134 21.6933 23.4438 21.4631 23.5875 21.1809C23.6983 20.9632 23.729 20.7547 23.7409 20.6096C23.7517 20.4763 23.7506 20.3237 23.7506 20.2004V3.80005C23.7506 3.67674 23.7517 3.52419 23.7409 3.39087C23.7319 3.28188 23.7119 3.1371 23.6559 2.97974L23.5875 2.81958L23.5289 2.71607C23.4054 2.51475 23.2361 2.34544 23.0348 2.22193L22.9313 2.16333L22.7711 2.09497C22.6138 2.03894 22.469 2.01893 22.36 2.01001C22.2267 1.99916 22.0741 2.00025 21.9508 2.00025H8.87464ZM21.7506 4.00025V20.0002H8.87464C8.71901 20.0002 8.63969 20.0003 8.58265 19.9973L8.57776 19.9963L8.57483 19.9934C8.53794 19.9498 8.49026 19.887 8.39612 19.7629L2.5055 12.0002L8.39612 4.23755C8.49019 4.11358 8.53796 4.05069 8.57483 4.00708L8.57776 4.00318H8.58265C8.63969 4.00017 8.71902 4.00025 8.87464 4.00025H21.7506Z" fill="black"/>
</svg>
