<svg width="24" height="24" viewBox="0 0 24 24" fill="none" xmlns="http://www.w3.org/2000/svg">
<path fill-rule="evenodd" clip-rule="evenodd" d="M12 0.25C5.51065 0.25 0.25 5.51065 0.25 12C0.25 18.4893 5.51065 23.75 12 23.75C18.4893 23.75 23.75 18.4893 23.75 12C23.75 5.51065 18.4893 0.25 12 0.25ZM20.9744 14.25C21.1544 13.5297 21.25 12.776 21.25 12C21.25 11.224 21.1544 10.4703 20.9744 9.75H17.1621C17.2199 10.4799 17.25 11.2325 17.25 12C17.25 12.7675 17.2199 13.5201 17.1621 14.25H20.9744ZM19.9389 16.75C18.9636 18.3766 17.5026 19.6786 15.7563 20.4555C15.8404 20.2649 15.9204 20.0693 15.9965 19.8696C16.3454 18.9538 16.6305 17.9002 16.8401 16.75H19.9389ZM14.2935 16.75C14.1213 17.5826 13.9066 18.3333 13.6603 18.9796C13.3301 19.8464 12.9674 20.4617 12.6282 20.8383C12.2887 21.2152 12.0742 21.25 12 21.25C11.9258 21.25 11.7113 21.2152 11.3718 20.8383C11.0326 20.4617 10.6699 19.8464 10.3397 18.9796C10.0934 18.3333 9.87874 17.5826 9.70651 16.75H14.2935ZM7.15989 16.75C7.36951 17.9002 7.65458 18.9538 8.00346 19.8696C8.07955 20.0693 8.15959 20.2649 8.24366 20.4555C6.49742 19.6786 5.03641 18.3766 4.06111 16.75H7.15989ZM3.02556 14.25H6.83795C6.78006 13.5201 6.75 12.7675 6.75 12C6.75 11.2325 6.78006 10.4799 6.83795 9.75H3.02556C2.84556 10.4703 2.75 11.224 2.75 12C2.75 12.776 2.84556 13.5297 3.02556 14.25ZM9.34657 14.25H14.6534C14.7163 13.5311 14.75 12.778 14.75 12C14.75 11.222 14.7163 10.4689 14.6534 9.75H9.34657C9.2837 10.4689 9.25 11.222 9.25 12C9.25 12.778 9.2837 13.5311 9.34657 14.25ZM16.8401 7.25H19.9389C18.9636 5.62344 17.5026 4.32145 15.7563 3.54452C15.8404 3.73506 15.9204 3.93065 15.9965 4.13038C16.3454 5.04621 16.6305 6.09979 16.8401 7.25ZM13.6603 5.02037C13.9066 5.66674 14.1213 6.41736 14.2935 7.25H9.70651C9.87874 6.41736 10.0934 5.66674 10.3397 5.02037C10.6699 4.15357 11.0326 3.53829 11.3718 3.16169C11.7113 2.7848 11.9258 2.75 12 2.75C12.0742 2.75 12.2887 2.7848 12.6282 3.16169C12.9674 3.53829 13.3301 4.15357 13.6603 5.02037ZM7.15989 7.25H4.06111C5.03641 5.62344 6.49742 4.32145 8.24366 3.54452C8.15959 3.73506 8.07955 3.93065 8.00346 4.13038C7.65458 5.04621 7.36951 6.09979 7.15989 7.25Z" fill="black"/>
</svg>
