<svg width="24" height="24" viewBox="0 0 24 24" fill="none" xmlns="http://www.w3.org/2000/svg">
<path d="M18.8004 4.75C19.3728 4.75 19.757 4.75058 20.0529 4.77476C20.34 4.79822 20.4773 4.8401 20.5679 4.88624C20.8031 5.00608 20.9943 5.19731 21.1141 5.43251C21.1603 5.52307 21.2021 5.66036 21.2256 5.94748C21.2498 6.24336 21.2504 6.62757 21.2504 7.2V10.8C21.2504 11.3724 21.2498 11.7566 21.2256 12.0525C21.2021 12.3396 21.1603 12.4769 21.1141 12.5675C20.9943 12.8027 20.8031 12.9939 20.5679 13.1138C20.4773 13.1599 20.34 13.2018 20.0529 13.2252C19.757 13.2494 19.3728 13.25 18.8004 13.25H6.29997L6.28708 11.0835C6.28553 10.8223 6.28475 10.6917 6.23 10.6242C6.18238 10.5655 6.1104 10.5313 6.03426 10.5312C5.94673 10.531 5.84298 10.6119 5.63548 10.7737L1.91295 13.6766C1.77486 13.7843 1.7058 13.8382 1.68119 13.9033C1.65962 13.9603 1.66 14.0232 1.68224 14.08C1.70762 14.1447 1.77731 14.1978 1.91668 14.3038L5.67348 17.1622C5.88288 17.3216 5.98759 17.4012 6.07511 17.4C6.15125 17.399 6.22281 17.3639 6.26974 17.3047C6.32368 17.2365 6.3229 17.106 6.32135 16.8448L6.30889 14.75H18.8308C19.3649 14.75 19.8108 14.75 20.175 14.7203C20.5549 14.6892 20.9116 14.6221 21.2488 14.4503C21.7663 14.1866 22.187 13.7659 22.4506 13.2485C22.6225 12.9112 22.6896 12.5546 22.7206 12.1747C22.7504 11.8104 22.7504 11.3646 22.7504 10.8305V7.16955C22.7504 6.6354 22.7504 6.18956 22.7206 5.82533C22.6896 5.44545 22.6225 5.08879 22.4506 4.75153C22.187 4.23408 21.7663 3.81339 21.2488 3.54973C20.9116 3.37789 20.5549 3.31078 20.175 3.27974C19.8108 3.24998 19.365 3.24999 18.8308 3.25H14.0004C13.5861 3.25 13.2504 3.58579 13.2504 4C13.2504 4.41421 13.5861 4.75 14.0004 4.75H18.8004Z" fill="black"/>
</svg>
