<svg width="24" height="24" viewBox="0 0 24 24" fill="none" xmlns="http://www.w3.org/2000/svg">
<path d="M19 9.75C18.8619 9.75 18.75 9.86193 18.75 10C18.75 10.1381 18.8619 10.25 19 10.25H20C20.138 10.25 20.25 10.1381 20.25 10C20.25 9.86193 20.138 9.75 20 9.75H19Z" fill="black"/>
<path fill-rule="evenodd" clip-rule="evenodd" d="M18.7499 2C18.7499 1.86193 18.6379 1.75 18.4999 1.75C18.3618 1.75 18.2499 1.86193 18.2499 2C18.2499 2.47664 18.2487 2.67845 18.2163 2.84141C18.0782 3.53562 17.5355 4.07829 16.8413 4.21637C16.6783 4.24879 16.4765 4.25 15.9999 4.25H15.1886C14.6381 4.25 14.2096 4.25 13.8659 4.27808C13.517 4.30659 13.2334 4.36529 12.9784 4.49524C12.555 4.71095 12.2108 5.05516 11.9951 5.47852C11.8652 5.73355 11.8065 6.01708 11.778 6.36605C11.7499 6.70974 11.7499 7.1382 11.7499 7.68867V7.75H4.68857C4.13808 7.75 3.70962 7.74999 3.36592 7.77808C3.01696 7.80659 2.73343 7.86529 2.4784 7.99523C2.05503 8.21095 1.71083 8.55515 1.49511 8.97852C1.36517 9.23355 1.30647 9.51708 1.27796 9.86604C1.24988 10.2097 1.24988 10.6382 1.24988 11.1887V16.8113C1.24988 17.3618 1.24988 17.7903 1.27796 18.134C1.30647 18.4829 1.36517 18.7664 1.49511 19.0215C1.71083 19.4448 2.05503 19.789 2.4784 20.0048C2.73343 20.1347 3.01696 20.1934 3.36592 20.2219C3.70959 20.25 4.13802 20.25 4.68845 20.25H19.3112C19.8616 20.25 20.2902 20.25 20.6338 20.2219C20.9828 20.1934 21.2663 20.1347 21.5214 20.0048C21.9447 19.789 22.2889 19.4448 22.5046 19.0215C22.6346 18.7664 22.6933 18.4829 22.7218 18.134C22.7499 17.7903 22.7499 17.3618 22.7499 16.8113V16.0064L22.75 16L22.7499 15.9936V12.0064L22.75 12L22.7499 11.9936V11.1887C22.7499 10.6382 22.7499 10.2097 22.7218 9.86604C22.6933 9.51708 22.6346 9.23355 22.5046 8.97852C22.2889 8.55515 21.9447 8.21095 21.5214 7.99523C21.2663 7.86529 20.9828 7.80659 20.6338 7.77808C20.2901 7.74999 19.8617 7.75 19.3112 7.75H12.2499V7.7C12.2499 7.13582 12.2501 6.72772 12.2763 6.40676C12.3023 6.08872 12.3526 5.87831 12.4406 5.70552C12.6084 5.37623 12.8761 5.10852 13.2054 4.94074C13.3782 4.8527 13.5886 4.8024 13.9066 4.77642C14.2276 4.75019 14.6357 4.75 15.1999 4.75L16.035 4.75C16.4663 4.75003 16.7212 4.75005 16.9388 4.70677C17.8314 4.52923 18.5291 3.83151 18.7066 2.93895C18.7499 2.72135 18.7499 2.46638 18.7499 2.03509L18.7499 2ZM12.0011 8.25H19.2999C19.8641 8.25 20.2722 8.25019 20.5931 8.27642C20.9112 8.3024 21.1216 8.35269 21.2944 8.44074C21.6236 8.60851 21.8914 8.87623 22.0591 9.20551C22.1472 9.37831 22.1975 9.58872 22.2235 9.90676C22.2497 10.2277 22.2499 10.6358 22.2499 11.2V11.75H1.74988V11.2C1.74988 10.6358 1.75007 10.2277 1.7763 9.90676C1.80228 9.58872 1.85257 9.37831 1.94062 9.20551C2.10839 8.87623 2.37611 8.60851 2.70539 8.44074C2.87819 8.35269 3.0886 8.3024 3.40664 8.27642C3.7276 8.25019 4.1357 8.25 4.69988 8.25H11.9987C11.9991 8.25 11.9995 8.25 11.9999 8.25C12.0003 8.25 12.0007 8.25 12.0011 8.25ZM4.69988 19.75H5.74996V16.25H1.74988V16.8C1.74988 17.3642 1.75007 17.7723 1.7763 18.0932C1.80228 18.4113 1.85257 18.6217 1.94062 18.7945C2.10839 19.1238 2.37611 19.3915 2.70539 19.5593C2.87819 19.6473 3.0886 19.6976 3.40664 19.7236C3.7276 19.7498 4.1357 19.75 4.69988 19.75ZM1.74988 12.25V15.75H6.74996V12.25H1.74988ZM22.2499 15.75V12.25H17.25V15.75H22.2499ZM22.2499 16.8V16.25H18.25V19.75H19.2999C19.8641 19.75 20.2722 19.7498 20.5931 19.7236C20.9112 19.6976 21.1216 19.6473 21.2944 19.5593C21.6236 19.3915 21.8914 19.1238 22.0591 18.7945C22.1472 18.6217 22.1975 18.4113 22.2235 18.0932C22.2497 17.7723 22.2499 17.3642 22.2499 16.8ZM6.24996 16.25V19.75H17.75V16.25H6.24996ZM12.25 15.75H16.75V12.25H12.25V15.75ZM11.75 12.25V15.75H7.24996V12.25H11.75Z" fill="black"/>
</svg>
