<svg width="24" height="24" viewBox="0 0 24 24" fill="none" xmlns="http://www.w3.org/2000/svg">
<path fill-rule="evenodd" clip-rule="evenodd" d="M0.123117 8.43565C0 9.21298 0 10.142 0 12C0 13.858 0 14.787 0.123117 15.5643C0.800832 19.8433 4.15673 23.1992 8.43565 23.8769C9.21298 24 10.142 24 12 24C13.858 24 14.787 24 15.5643 23.8769C19.8433 23.1992 23.1992 19.8433 23.8769 15.5643C24 14.787 24 13.858 24 12C24 10.142 24 9.21298 23.8769 8.43565C23.1992 4.15673 19.8433 0.800832 15.5643 0.123117C14.787 0 13.858 0 12 0C10.142 0 9.21298 0 8.43565 0.123117C4.15673 0.800832 0.800832 4.15673 0.123117 8.43565ZM10.7086 6.54128C10.5026 7.15927 10.3299 7.89185 10.2025 8.7085H13.8001C13.6727 7.89185 13.5 7.15927 13.294 6.54128C13.0648 5.85382 12.8058 5.34257 12.5484 5.01603C12.2855 4.68244 12.0959 4.62549 12.0013 4.62549C11.9067 4.62549 11.7171 4.68244 11.4542 5.01603C11.1969 5.34257 10.9378 5.85382 10.7086 6.54128ZM9.52276 6.14599C9.27605 6.88612 9.07747 7.75376 8.93833 8.7085H5.0759C6.06695 6.62693 7.96875 5.06263 10.266 4.53086C9.97608 4.97541 9.72887 5.52765 9.52276 6.14599ZM8.79496 9.9585H4.61013C4.43098 10.6085 4.33529 11.2932 4.33529 12.0002C4.33529 12.7072 4.43098 13.3918 4.61013 14.0418H8.79491C8.73906 13.3867 8.70964 12.7027 8.70964 12.0005C8.70964 11.2981 8.73907 10.6139 8.79496 9.9585ZM8.93824 15.2918H5.0759C6.06688 17.3732 7.96847 18.9375 10.2655 19.4694C9.97579 19.0249 9.72875 18.473 9.52276 17.855C9.27599 17.1147 9.07738 16.2468 8.93824 15.2918ZM14.4798 17.855C14.2738 18.4731 14.0267 19.0252 13.7368 19.4697C16.0346 18.9382 17.9368 17.3737 18.928 15.2918H15.0644C14.9252 16.2468 14.7266 17.1147 14.4798 17.855ZM15.2077 14.0418H19.3938C19.5729 13.3918 19.6686 12.7072 19.6686 12.0002C19.6686 11.2932 19.5729 10.6085 19.3938 9.9585H15.2076C15.2635 10.6139 15.293 11.2981 15.293 12.0005C15.293 12.7027 15.2636 13.3867 15.2077 14.0418ZM13.7363 4.5305C16.0343 5.06194 17.9367 6.62647 18.928 8.7085H15.0643C14.9251 7.75376 14.7266 6.88612 14.4798 6.14599C14.2737 5.52748 14.0264 4.97511 13.7363 4.5305ZM13.8002 15.2918C13.6728 16.1087 13.5 16.8415 13.294 17.4597C13.0648 18.1472 12.8058 18.6584 12.5484 18.985C12.2855 19.3185 12.0959 19.3755 12.0013 19.3755C11.9067 19.3755 11.7171 19.3185 11.4542 18.985C11.1969 18.6584 10.9378 18.1472 10.7086 17.4597C10.5026 16.8415 10.3298 16.1087 10.2024 15.2918H13.8002ZM10.0497 14.0418H13.9529C14.0114 13.394 14.043 12.7097 14.043 12.0005C14.043 11.2911 14.0114 10.6065 13.9528 9.9585H10.0498C9.99121 10.6065 9.95964 11.2911 9.95964 12.0005C9.95964 12.7097 9.99119 13.394 10.0497 14.0418Z" fill="black"/>
</svg>
