<svg width="24" height="24" viewBox="0 0 24 24" fill="none" xmlns="http://www.w3.org/2000/svg">
<path fill-rule="evenodd" clip-rule="evenodd" d="M0.123117 8.43565C0 9.21298 0 10.142 0 12C0 13.858 0 14.787 0.123117 15.5643C0.800832 19.8433 4.15673 23.1992 8.43565 23.8769C9.21298 24 10.142 24 12 24C13.858 24 14.787 24 15.5643 23.8769C19.8433 23.1992 23.1992 19.8433 23.8769 15.5643C24 14.787 24 13.858 24 12C24 10.142 24 9.21298 23.8769 8.43565C23.1992 4.15673 19.8433 0.800832 15.5643 0.123117C14.787 0 13.858 0 12 0C10.142 0 9.21298 0 8.43565 0.123117C4.15673 0.800832 0.800832 4.15673 0.123117 8.43565ZM11.3345 6.4013C11.7022 6.03356 12.2985 6.03355 12.6662 6.4013L19.4397 13.1748C19.7814 13.5165 19.7814 14.0705 19.4397 14.4123C19.098 14.754 18.544 14.754 18.2023 14.4123L12.0003 8.21031L5.79841 14.4123C5.4567 14.754 4.90268 14.754 4.56097 14.4123C4.21926 14.0705 4.21926 13.5165 4.56097 13.1748L11.3345 6.4013Z" fill="black"/>
</svg>
