<svg width="24" height="24" viewBox="0 0 24 24" fill="none" xmlns="http://www.w3.org/2000/svg">
<path fill-rule="evenodd" clip-rule="evenodd" d="M0.123117 8.43565C0 9.21298 0 10.142 0 12C0 13.858 0 14.787 0.123117 15.5643C0.800832 19.8433 4.15673 23.1992 8.43565 23.8769C9.21298 24 10.142 24 12 24C13.858 24 14.787 24 15.5643 23.8769C19.8433 23.1992 23.1992 19.8433 23.8769 15.5643C24 14.787 24 13.858 24 12C24 10.142 24 9.21298 23.8769 8.43565C23.1992 4.15673 19.8433 0.800832 15.5643 0.123117C14.787 0 13.858 0 12 0C10.142 0 9.21298 0 8.43565 0.123117C4.15673 0.800832 0.800832 4.15673 0.123117 8.43565ZM10.3529 6.42171C10.1034 7.17 9.90308 8.07358 9.76961 9.08252H14.233C14.0995 8.07358 13.8992 7.17 13.6498 6.42171C13.4133 5.71242 13.1373 5.15645 12.8429 4.78294C12.6731 4.56746 12.5067 4.42386 12.3468 4.34046C12.2325 4.3354 12.1175 4.33285 12.002 4.33285C11.8859 4.33285 11.7704 4.33542 11.6556 4.34053C11.4958 4.42393 11.3294 4.56751 11.1597 4.78294C10.8653 5.15645 10.5893 5.71242 10.3529 6.42171ZM13.2356 4.47345C13.2229 4.45724 13.21 4.44124 13.197 4.42544C15.8743 4.84449 18.0922 6.64906 19.0942 9.08252H14.7372C14.6002 8.01965 14.3902 7.0618 14.1241 6.2636C13.878 5.52518 13.5794 4.90958 13.2356 4.47345ZM10.767 4.47345C10.7797 4.45732 10.7925 4.44139 10.8054 4.42567C8.12877 4.84516 5.91148 6.64951 4.90972 9.08252H9.26536C9.4024 8.01965 9.61245 7.0618 9.87851 6.2636C10.1247 5.52518 10.4233 4.90958 10.767 4.47345ZM9.20713 9.58252H4.72406C4.47183 10.3424 4.33529 11.155 4.33529 11.9995C4.33529 12.8438 4.47176 13.6562 4.72384 14.4159H9.20706C9.12738 13.6513 9.08464 12.8397 9.08464 11.9995C9.08464 11.1591 9.1274 10.3472 9.20713 9.58252ZM9.26528 14.9159H4.90945C5.91108 17.3492 8.12853 19.1538 10.8054 19.5734C10.7925 19.5576 10.7797 19.5417 10.767 19.5256C10.4233 19.0894 10.1247 18.4738 9.87851 17.7354C9.6124 16.9371 9.40231 15.979 9.26528 14.9159ZM12.002 19.6662C11.8859 19.6662 11.7704 19.6636 11.6556 19.6585C11.4958 19.5751 11.3294 19.4315 11.1597 19.2161C10.8653 18.8426 10.5893 18.2866 10.3529 17.5773C10.1034 16.8289 9.903 15.9251 9.76952 14.9159H14.2331C14.0996 15.9251 13.8992 16.8289 13.6498 17.5773C13.4133 18.2866 13.1373 18.8426 12.8429 19.2161C12.6731 19.4316 12.5067 19.5752 12.3468 19.6586C12.2325 19.6636 12.1175 19.6662 12.002 19.6662ZM19.0945 14.9159C18.0926 17.3496 15.8745 19.1545 13.197 19.5736C13.21 19.5578 13.2229 19.5418 13.2356 19.5256C13.5794 19.0894 13.878 18.4738 14.1241 17.7354C14.3902 16.9371 14.6003 15.979 14.7373 14.9159H19.0945ZM14.7955 14.4159H19.2801C19.5322 13.6562 19.6686 12.8438 19.6686 11.9995C19.6686 11.155 19.5321 10.3424 19.2799 9.58252H14.7955C14.8752 10.3472 14.918 11.1591 14.918 11.9995C14.918 12.8397 14.8752 13.6513 14.7955 14.4159ZM9.70984 14.4159H14.2928C14.3739 13.6557 14.418 12.8438 14.418 11.9995C14.418 11.155 14.3739 10.3429 14.2927 9.58252H9.70991C9.6287 10.3429 9.58464 11.155 9.58464 11.9995C9.58464 12.8438 9.62867 13.6557 9.70984 14.4159Z" fill="black"/>
</svg>
