<svg width="24" height="24" viewBox="0 0 24 24" fill="none" xmlns="http://www.w3.org/2000/svg">
<path d="M15 2.74976C14.8619 2.74976 14.75 2.86168 14.75 2.99976C14.75 3.13783 14.8619 3.24976 15 3.24976H22.5C22.6381 3.24976 22.75 3.13783 22.75 2.99976C22.75 2.86168 22.6381 2.74976 22.5 2.74976H15Z" fill="black"/>
<path d="M7.44497 3.24993C7.84593 3.24993 7.98309 3.25356 8.09762 3.29534C8.20765 3.33547 8.30675 3.40082 8.38698 3.48614C8.4705 3.57496 8.52786 3.69959 8.68581 4.06814L15.3726 19.6706C15.5053 19.9807 15.5969 20.1948 15.7488 20.3562C15.8825 20.4984 16.0477 20.6073 16.231 20.6742C16.4392 20.7502 16.6721 20.7501 17.0094 20.7499L22.5 20.7499C22.6381 20.7499 22.75 20.638 22.75 20.4999C22.75 20.3619 22.6381 20.2499 22.5 20.2499H17.055C16.6541 20.2499 16.5169 20.2463 16.4024 20.2045C16.2924 20.1644 16.1933 20.099 16.113 20.0137C16.0295 19.9249 15.9721 19.8003 15.8142 19.4317L9.12744 3.82927C8.9947 3.51918 8.90305 3.30507 8.75123 3.14362C8.61751 3.00142 8.45234 2.89251 8.26896 2.82561C8.06075 2.74967 7.82785 2.74977 7.49055 2.74991L1.5 2.74993C1.36193 2.74993 1.25 2.86186 1.25 2.99993C1.25 3.138 1.36193 3.24993 1.5 3.24993H7.44497Z" fill="black"/>
</svg>
