<svg width="24" height="24" viewBox="0 0 24 24" fill="none" xmlns="http://www.w3.org/2000/svg">
<path fill-rule="evenodd" clip-rule="evenodd" d="M0 4.5C0 6.98528 2.01472 9 4.5 9H5.5V7H4.5C3.11929 7 2 5.88071 2 4.5C2 3.11929 3.11929 2 4.5 2C5.88071 2 7 3.11929 7 4.5V19.5C7 20.8807 5.88071 22 4.5 22C3.11929 22 2 20.8807 2 19.5C2 18.1193 3.11929 17 4.5 17H5.5V15H4.5C2.01472 15 0 17.0147 0 19.5C0 21.9853 2.01472 24 4.5 24C6.98528 24 9 21.9853 9 19.5V16.9999H15V19.5C15 21.9853 17.0147 24 19.5 24C21.9853 24 24 21.9853 24 19.5C24 17.0147 21.9853 15 19.5 15H18.5V17H19.5C20.8807 17 22 18.1193 22 19.5C22 20.8807 20.8807 22 19.5 22C18.1193 22 17 20.8807 17 19.5V4.5C17 3.11929 18.1193 2 19.5 2C20.8807 2 22 3.11929 22 4.5C22 5.88071 20.8807 7 19.5 7H18.5V9H19.5C21.9853 9 24 6.98528 24 4.5C24 2.01472 21.9853 0 19.5 0C17.0147 0 15 2.01472 15 4.5V6.99987H9V4.5C9 2.01472 6.98528 0 4.5 0C2.01472 0 0 2.01472 0 4.5ZM9 8.99987H14.9999V14.9999H8.99993L9 8.99987Z" fill="black"/>
</svg>
