<svg width="24" height="24" viewBox="0 0 24 24" fill="none" xmlns="http://www.w3.org/2000/svg">
<path fill-rule="evenodd" clip-rule="evenodd" d="M12.5992 1.24581C12.2682 0.918066 11.7346 0.918059 11.4036 1.24581L1.50292 11.0495C0.953324 11.5937 1.35812 12.5 2.10072 12.5H7.25004V15C7.25004 15.4142 7.58582 15.75 8.00004 15.75H16C16.4142 15.75 16.75 15.4142 16.75 15V12.5H21.9021C22.6447 12.5 23.0495 11.5937 22.4999 11.0495L12.5992 1.24581ZM12.0014 2.76483L20.318 11H16C15.5858 11 15.25 11.3358 15.25 11.75V14.25H8.75004V11.75C8.75004 11.3358 8.41425 11 8.00004 11H3.68478L12.0014 2.76483ZM2.55835 12.1154C2.5583 12.1154 2.5584 12.1154 2.55835 12.1154Z" fill="black"/>
<path fill-rule="evenodd" clip-rule="evenodd" d="M16.75 17.75C16.75 17.3358 16.4142 17 16 17H8.00004C7.58582 17 7.25004 17.3358 7.25004 17.75V20.75C7.25004 21.1642 7.58582 21.5 8.00004 21.5H16C16.4142 21.5 16.75 21.1642 16.75 20.75V17.75ZM15.25 18.5V20H8.75004V18.5H15.25Z" fill="black"/>
</svg>
