<svg width="24" height="24" viewBox="0 0 24 24" fill="none" xmlns="http://www.w3.org/2000/svg">
<path d="M8.79543 7.49976C8.9945 6.05032 9.2862 4.75217 9.6459 3.67308C9.99813 2.61641 10.4065 1.79736 10.8357 1.25275C11.2694 0.702504 11.6666 0.500244 12 0.500244C12.3334 0.500244 12.7306 0.702504 13.1643 1.25275C13.5935 1.79736 14.0019 2.61641 14.3541 3.67308C14.7138 4.75217 15.0055 6.05032 15.2046 7.49976H8.79543Z" fill="black"/>
<path d="M7.78636 7.49976C7.99301 5.94183 8.30442 4.53525 8.69722 3.35685C9.06231 2.26156 9.50646 1.33671 10.0225 0.669384C6.13515 1.34309 2.91692 3.96857 1.41388 7.49976H7.78636Z" fill="black"/>
<path d="M1.04238 8.49976H7.67032C7.55929 9.61109 7.49999 10.7862 7.49999 12.0002C7.49999 13.2139 7.55926 14.3887 7.67023 15.4998H1.04222C0.690071 14.3962 0.5 13.2203 0.5 12C0.5 10.7795 0.690128 9.60343 1.04238 8.49976Z" fill="black"/>
<path d="M1.41367 16.4998H7.78623C7.99288 18.0581 8.30434 19.465 8.69722 20.6436C9.06221 21.7386 9.50622 22.6633 10.0221 23.3306C6.13473 22.6567 2.91656 20.0311 1.41367 16.4998Z" fill="black"/>
<path d="M11.9794 23.5C11.9863 23.5 11.9931 23.5 12 23.5C12.0069 23.5 12.0137 23.5 12.0206 23.5C12.3497 23.4918 12.7395 23.2867 13.1643 22.7477C13.5935 22.2031 14.0019 21.3841 14.3541 20.3274C14.7139 19.2481 15.0056 17.9496 15.2047 16.4998H8.79529C8.99437 17.9496 9.28612 19.2481 9.6459 20.3274C9.99813 21.3841 10.4065 22.2031 10.8357 22.7477C11.2605 23.2867 11.6503 23.4918 11.9794 23.5Z" fill="black"/>
<path d="M13.9779 23.3306C17.8653 22.6567 21.0834 20.0311 22.5863 16.4998H16.2137C16.0071 18.0581 15.6956 19.465 15.3028 20.6436C14.9378 21.7386 14.4938 22.6633 13.9779 23.3306Z" fill="black"/>
<path d="M22.9578 15.4998H16.3298C16.4407 14.3887 16.5 13.2139 16.5 12.0002C16.5 10.7862 16.4407 9.61109 16.3297 8.49976H22.9576C23.3099 9.60343 23.5 10.7795 23.5 12C23.5 13.2203 23.3099 14.3962 22.9578 15.4998Z" fill="black"/>
<path d="M22.5861 7.49976C21.0831 3.96856 17.8648 1.34308 13.9775 0.66938C14.4935 1.3367 14.9377 2.26156 15.3028 3.35685C15.6956 4.53525 16.007 5.94183 16.2136 7.49976H22.5861Z" fill="black"/>
<path d="M15.5 12.0002C15.5 13.2215 15.4384 14.3967 15.3246 15.4998H8.67536C8.56162 14.3967 8.49999 13.2215 8.49999 12.0002C8.49999 10.7786 8.56166 9.60308 8.67546 8.49976H15.3245C15.4383 9.60308 15.5 10.7786 15.5 12.0002Z" fill="black"/>
</svg>
