<svg width="24" height="24" viewBox="0 0 24 24" fill="none" xmlns="http://www.w3.org/2000/svg">
<path fill-rule="evenodd" clip-rule="evenodd" d="M8.87457 2.25065C8.62636 2.25065 8.35603 2.24389 8.0982 2.31706C7.89089 2.37593 7.69619 2.47263 7.52398 2.60222C7.30986 2.76337 7.15253 2.98262 7.0025 3.18034L1.02008 11.0641C0.929426 11.1836 0.743048 11.4067 0.670469 11.6794C0.614604 11.8897 0.614604 12.1116 0.670469 12.3219C0.743048 12.5947 0.929426 12.8177 1.02008 12.9372L7.0025 20.821C7.15253 21.0187 7.30986 21.2379 7.52398 21.3991C7.69619 21.5287 7.89089 21.6254 8.0982 21.6842C8.35603 21.7574 8.62637 21.7507 8.87457 21.7507H21.9507C22.0783 21.7507 22.2195 21.7508 22.3404 21.7409C22.4701 21.7303 22.6413 21.7039 22.8179 21.6139C23.053 21.4941 23.244 21.3032 23.3638 21.068C23.4538 20.8914 23.4802 20.7202 23.4908 20.5905C23.5007 20.4696 23.5005 20.3284 23.5005 20.2008V3.80046C23.5005 3.67287 23.5007 3.53175 23.4908 3.41081C23.4802 3.2811 23.4538 3.10991 23.3638 2.93327C23.244 2.69815 23.053 2.5072 22.8179 2.38737C22.6413 2.29737 22.4701 2.27104 22.3404 2.26042C22.2195 2.25054 22.0783 2.25065 21.9507 2.25065H8.87457ZM10.3775 8.37956C10.6703 8.08675 11.1451 8.08691 11.438 8.37956L13.9078 10.8493L16.3775 8.37956C16.6703 8.08675 17.1451 8.0869 17.438 8.37956C17.7308 8.67246 17.7309 9.14725 17.438 9.44011L14.9683 11.9098L17.438 14.3796C17.7309 14.6724 17.7309 15.1472 17.438 15.4401C17.1451 15.7327 16.6703 15.7329 16.3775 15.4401L13.9078 12.9704L11.438 15.4401C11.1452 15.7328 10.6704 15.7327 10.3775 15.4401C10.0849 15.1472 10.0848 14.6724 10.3775 14.3796L12.8472 11.9098L10.3775 9.44011C10.0849 9.14726 10.0849 8.67239 10.3775 8.37956Z" fill="black"/>
</svg>
