<svg width="24" height="24" viewBox="0 0 24 24" fill="none" xmlns="http://www.w3.org/2000/svg">
<path d="M14.75 14.7502V16.2502C14.75 17.0786 15.4216 17.7502 16.25 17.7502C17.0784 17.7502 17.75 17.0786 17.75 16.2502C17.75 15.4217 17.0784 14.7502 16.25 14.7502H14.75Z" fill="black"/>
<path d="M10.25 10.2505V13.7505H13.75V10.2505H10.25Z" fill="black"/>
<path d="M7.625 9.16699C6.77356 9.16699 6.08333 8.47676 6.08333 7.62533C6.08333 6.77389 6.77356 6.08366 7.625 6.08366C8.47644 6.08366 9.16667 6.77389 9.16667 7.62532V9.16699H7.625Z" fill="black"/>
<path d="M6.08333 16.3753C6.08333 15.5239 6.77356 14.8337 7.625 14.8337H9.16667V16.3753C9.16667 17.2268 8.47644 17.917 7.625 17.917C6.77356 17.917 6.08333 17.2268 6.08333 16.3753Z" fill="black"/>
<path d="M17.75 7.75016C17.75 8.57859 17.0784 9.25016 16.25 9.25016H14.75V7.75016C14.75 6.92174 15.4216 6.25016 16.25 6.25016C17.0784 6.25016 17.75 6.92174 17.75 7.75016Z" fill="black"/>
<path fill-rule="evenodd" clip-rule="evenodd" d="M0.123117 8.43565C0 9.21298 0 10.142 0 12C0 13.858 0 14.787 0.123117 15.5643C0.800832 19.8433 4.15673 23.1992 8.43565 23.8769C9.21298 24 10.142 24 12 24C13.858 24 14.787 24 15.5643 23.8769C19.8433 23.1992 23.1992 19.8433 23.8769 15.5643C24 14.787 24 13.858 24 12C24 10.142 24 9.21298 23.8769 8.43565C23.1992 4.15673 19.8433 0.800832 15.5643 0.123117C14.787 0 13.858 0 12 0C10.142 0 9.21298 0 8.43565 0.123117C4.15673 0.800832 0.800832 4.15673 0.123117 8.43565ZM5.08333 7.62533C5.08333 9.02905 6.22128 10.167 7.625 10.167H9.25V13.8337H7.625C6.22128 13.8337 5.08333 14.9716 5.08333 16.3753C5.08333 17.779 6.22128 18.917 7.625 18.917C9.02872 18.917 10.1667 17.7791 10.1667 16.3753V14.7505H13.75V16.2502C13.75 17.6309 14.8693 18.7502 16.25 18.7502C17.6307 18.7502 18.75 17.6309 18.75 16.2502C18.75 14.8695 17.6307 13.7502 16.25 13.7502H14.75V10.2502H16.25C17.6307 10.2502 18.75 9.13087 18.75 7.75016C18.75 6.36945 17.6307 5.25016 16.25 5.25016C14.8693 5.25016 13.75 6.36945 13.75 7.75016V9.25049H10.1667V7.62532C10.1667 6.2216 9.02872 5.08366 7.625 5.08366C6.22128 5.08366 5.08333 6.2216 5.08333 7.62533Z" fill="black"/>
</svg>
