<svg width="24" height="24" viewBox="0 0 24 24" fill="none" xmlns="http://www.w3.org/2000/svg">
<path fill-rule="evenodd" clip-rule="evenodd" d="M0.123117 8.43565C0 9.21298 0 10.142 0 12C0 13.858 0 14.787 0.123117 15.5643C0.800832 19.8433 4.15673 23.1992 8.43565 23.8769C9.21298 24 10.142 24 12 24C13.858 24 14.787 24 15.5643 23.8769C19.8433 23.1992 23.1992 19.8433 23.8769 15.5643C24 14.787 24 13.858 24 12C24 10.142 24 9.21298 23.8769 8.43565C23.1992 4.15673 19.8433 0.800832 15.5643 0.123117C14.787 0 13.858 0 12 0C10.142 0 9.21298 0 8.43565 0.123117C4.15673 0.800832 0.800832 4.15673 0.123117 8.43565ZM11.4229 6.48871C11.7418 6.16978 12.2589 6.16978 12.5778 6.48871L19.3513 13.2622C19.6442 13.5551 19.6442 14.03 19.3513 14.3229C19.0584 14.6158 18.5836 14.6158 18.2907 14.3229L12.0003 8.03256L5.71002 14.3229C5.41712 14.6158 4.94225 14.6158 4.64936 14.3229C4.35646 14.03 4.35646 13.5551 4.64936 13.2622L11.4229 6.48871Z" fill="black"/>
</svg>
