<svg width="24" height="24" viewBox="0 0 24 24" fill="none" xmlns="http://www.w3.org/2000/svg">
<path fill-rule="evenodd" clip-rule="evenodd" d="M0.123117 8.43565C0 9.21298 0 10.142 0 12C0 13.858 0 14.787 0.123117 15.5643C0.800832 19.8433 4.15673 23.1992 8.43565 23.8769C9.21298 24 10.142 24 12 24C13.858 24 14.787 24 15.5643 23.8769C19.8433 23.1992 23.1992 19.8433 23.8769 15.5643C24 14.787 24 13.858 24 12C24 10.142 24 9.21298 23.8769 8.43565C23.1992 4.15673 19.8433 0.800832 15.5643 0.123117C14.787 0 13.858 0 12 0C10.142 0 9.21298 0 8.43565 0.123117C4.15673 0.800832 0.800832 4.15673 0.123117 8.43565ZM18.0343 7.64336C17.8155 7.62549 17.5304 7.625 17.1 7.625H13.5C13.1548 7.625 12.875 7.34518 12.875 7C12.875 6.65482 13.1548 6.375 13.5 6.375H17.1249C17.5237 6.37499 17.8603 6.37498 18.1361 6.39751C18.4249 6.42111 18.7015 6.47249 18.9647 6.60661C19.3646 6.81034 19.6897 7.13543 19.8934 7.53527C20.0275 7.7985 20.0789 8.07513 20.1025 8.36391C20.125 8.63966 20.125 8.97624 20.125 9.37503V12.1249C20.125 12.5237 20.125 12.8603 20.1025 13.1361C20.0789 13.4249 20.0275 13.7015 19.8934 13.9647C19.6897 14.3646 19.3646 14.6897 18.9647 14.8934C18.7015 15.0275 18.4249 15.0789 18.1361 15.1025C17.8603 15.125 17.5238 15.125 17.125 15.125H7.73177L7.74074 16.6336C7.7419 16.8295 7.74249 16.9274 7.70203 16.9785C7.66684 17.0229 7.61316 17.0492 7.55606 17.05C7.49042 17.0509 7.41189 16.9912 7.25484 16.8717L4.43724 14.7279C4.33271 14.6483 4.28045 14.6086 4.26141 14.56C4.24473 14.5174 4.24445 14.4702 4.26062 14.4274C4.27908 14.3786 4.33087 14.3382 4.43444 14.2575L7.22634 12.0803C7.38196 11.9589 7.45977 11.8983 7.52542 11.8984C7.58253 11.8985 7.63651 11.9241 7.67223 11.9682C7.71329 12.0188 7.71387 12.1167 7.71504 12.3126L7.72433 13.875H17.1C17.5304 13.875 17.8155 13.8745 18.0343 13.8566C18.2458 13.8394 18.3396 13.809 18.3972 13.7796C18.5619 13.6957 18.6957 13.5619 18.7796 13.3972C18.809 13.3396 18.8394 13.2458 18.8566 13.0343C18.8745 12.8155 18.875 12.5304 18.875 12.1V9.4C18.875 8.96965 18.8745 8.68447 18.8566 8.4657C18.8394 8.25422 18.809 8.1604 18.7796 8.10276C18.6957 7.93812 18.5619 7.80426 18.3972 7.72037C18.3396 7.691 18.2458 7.66064 18.0343 7.64336Z" fill="black"/>
</svg>
