<svg width="24" height="24" viewBox="0 0 24 24" fill="none" xmlns="http://www.w3.org/2000/svg">
<path fill-rule="evenodd" clip-rule="evenodd" d="M12.7738 2.31817C12.3454 1.89395 11.6549 1.89394 11.2264 2.31817L1.32574 12.1219C0.613753 12.8269 1.13874 14 2.09944 14L6.99998 14V19C6.99998 19.5523 7.44769 20 7.99998 20H16C16.5523 20 17 19.5523 17 19V14H21.9008C22.8615 14 23.3865 12.8269 22.6745 12.1219L12.7738 2.31817ZM12.0001 4.36665L19.709 12H16C15.4477 12 15 12.4477 15 13V18H8.99998V13C8.99998 12.4477 8.55226 12 7.99998 12L4.29128 12L12.0001 4.36665ZM21.2673 13.543C21.2671 13.5429 21.2675 13.5432 21.2673 13.543Z" fill="black"/>
</svg>
