<svg width="24" height="24" viewBox="0 0 24 24" fill="none" xmlns="http://www.w3.org/2000/svg">
<path fill-rule="evenodd" clip-rule="evenodd" d="M0.25 4.5C0.25 6.84721 2.15279 8.75 4.5 8.75H5.75V7.25H4.5C2.98122 7.25 1.75 6.01878 1.75 4.5C1.75 2.98122 2.98122 1.75 4.5 1.75C6.01878 1.75 7.25 2.98122 7.25 4.5V19.5C7.25 21.0188 6.01878 22.25 4.5 22.25C2.98122 22.25 1.75 21.0188 1.75 19.5C1.75 17.9812 2.98122 16.75 4.5 16.75H5.75V15.25H4.5C2.15279 15.25 0.25 17.1528 0.25 19.5C0.25 21.8472 2.15279 23.75 4.5 23.75C6.84721 23.75 8.75 21.8472 8.75 19.5V16.7499H15.25V19.5C15.25 21.8472 17.1528 23.75 19.5 23.75C21.8472 23.75 23.75 21.8472 23.75 19.5C23.75 17.1528 21.8472 15.25 19.5 15.25H18.25V16.75H19.5C21.0188 16.75 22.25 17.9812 22.25 19.5C22.25 21.0188 21.0188 22.25 19.5 22.25C17.9812 22.25 16.75 21.0188 16.75 19.5V4.5C16.75 2.98122 17.9812 1.75 19.5 1.75C21.0188 1.75 22.25 2.98122 22.25 4.5C22.25 6.01878 21.0188 7.25 19.5 7.25H18.25V8.75H19.5C21.8472 8.75 23.75 6.84721 23.75 4.5C23.75 2.15279 21.8472 0.25 19.5 0.25C17.1528 0.25 15.25 2.15279 15.25 4.5V7.24987H8.75V4.5C8.75 2.15279 6.84721 0.25 4.5 0.25C2.15279 0.25 0.25 2.15279 0.25 4.5ZM8.75 8.74987H15.2499V15.2499H8.74993L8.75 8.74987Z" fill="black"/>
</svg>
