<svg width="24" height="24" viewBox="0 0 24 24" fill="none" xmlns="http://www.w3.org/2000/svg">
<path d="M9.6693 6.74966C9.85094 5.68507 10.0848 4.72743 10.3574 3.90966C10.6951 2.89667 11.0696 2.16707 11.4248 1.71639C11.791 1.25163 11.9949 1.24966 12 1.24966C12.0051 1.24966 12.2089 1.25163 12.5752 1.71639C12.9304 2.16707 13.3049 2.89667 13.6426 3.90966C13.9152 4.72743 14.149 5.68507 14.3307 6.74966H9.6693Z" fill="black"/>
<path d="M7.13645 6.74966C7.34497 5.40583 7.63248 4.17876 7.98571 3.11909C8.25863 2.30032 8.58211 1.54688 8.96083 0.905769C5.82491 1.76285 3.22336 3.91399 1.76572 6.74966H7.13645Z" fill="black"/>
<path d="M0.83094 9.24966H6.85185C6.78493 10.1382 6.74999 11.0586 6.74999 11.9997C6.74999 12.9407 6.78493 13.8612 6.85185 14.7497H0.830818C0.614643 13.8686 0.5 12.9476 0.5 11.9999C0.5 11.052 0.614687 10.1309 0.83094 9.24966Z" fill="black"/>
<path d="M1.76546 17.2497H7.13645C7.34497 18.5935 7.63248 19.8205 7.98571 20.8802C8.25872 21.6992 8.58231 22.4529 8.96118 23.0941C5.82492 22.2371 3.22311 20.0857 1.76546 17.2497Z" fill="black"/>
<path d="M15.0388 23.0941C15.4177 22.4529 15.7413 21.6993 16.0143 20.8802C16.3675 19.8205 16.655 18.5935 16.8635 17.2497H22.2345C20.7769 20.0857 18.1751 22.2371 15.0388 23.0941Z" fill="black"/>
<path d="M23.1692 14.7497H17.1481C17.215 13.8612 17.25 12.9407 17.25 11.9997C17.25 11.0586 17.215 10.1382 17.1481 9.24966H23.1691C23.3853 10.1309 23.5 11.052 23.5 11.9999C23.5 12.9476 23.3854 13.8686 23.1692 14.7497Z" fill="black"/>
<path d="M22.2343 6.74966C20.7766 3.91398 18.1751 1.76284 15.0391 0.905762C15.4179 1.54687 15.7413 2.30031 16.0143 3.11909C16.3675 4.17876 16.655 5.40583 16.8635 6.74966H22.2343Z" fill="black"/>
<path d="M13.6426 20.0897C13.9152 19.2719 14.149 18.3142 14.3307 17.2497H9.6693C9.85094 18.3142 10.0848 19.2719 10.3574 20.0897C10.6951 21.1026 11.0696 21.8322 11.4248 22.2829C11.791 22.7477 11.9949 22.7497 12 22.7497C12.0051 22.7497 12.2089 22.7477 12.5752 22.2829C12.9304 21.8322 13.3049 21.1026 13.6426 20.0897Z" fill="black"/>
<path d="M14.75 11.9997C14.75 12.9518 14.7118 13.8727 14.6405 14.7497H9.35947C9.28823 13.8727 9.24999 12.9518 9.24999 11.9997C9.24999 11.0475 9.28823 10.1266 9.35947 9.24966H14.6405C14.7118 10.1266 14.75 11.0475 14.75 11.9997Z" fill="black"/>
</svg>
