<svg width="24" height="24" viewBox="0 0 24 24" fill="none" xmlns="http://www.w3.org/2000/svg">
<path fill-rule="evenodd" clip-rule="evenodd" d="M12 0.5C5.64873 0.5 0.5 5.64873 0.5 12C0.5 18.3513 5.64873 23.5 12 23.5C18.3513 23.5 23.5 18.3513 23.5 12C23.5 5.64873 18.3513 0.5 12 0.5ZM21.1676 14.5C21.3843 13.7034 21.5 12.8652 21.5 12C21.5 11.1348 21.3843 10.2966 21.1676 9.5H16.8901C16.9622 10.3064 17 11.1434 17 12C17 12.8566 16.9622 13.6936 16.8901 14.5H21.1676ZM20.3687 16.5C19.2712 18.5367 17.4519 20.127 15.2533 20.9283C15.439 20.5703 15.6087 20.1853 15.7629 19.7806C16.1264 18.8264 16.4205 17.7168 16.6306 16.5H20.3687ZM14.598 16.5C14.4143 17.4649 14.1747 18.3315 13.8939 19.0686C13.5574 19.9521 13.181 20.5981 12.8139 21.0056C12.4467 21.4134 12.1699 21.5 12 21.5C11.8301 21.5 11.5533 21.4134 11.1861 21.0056C10.819 20.5981 10.4426 19.9521 10.1061 19.0686C9.82526 18.3315 9.58567 17.4649 9.40201 16.5H14.598ZM7.36943 16.5C7.57951 17.7168 7.87359 18.8264 8.23709 19.7806C8.39127 20.1853 8.56102 20.5703 8.74674 20.9283C6.54812 20.127 4.7288 18.5367 3.63131 16.5H7.36943ZM2.83238 14.5H7.10993C7.03776 13.6936 7 12.8566 7 12C7 11.1434 7.03776 10.3064 7.10993 9.5H2.83238C2.61567 10.2966 2.5 11.1348 2.5 12C2.5 12.8652 2.61567 13.7034 2.83238 14.5ZM9.11856 14.5H14.8814C14.9585 13.7047 15 12.8671 15 12C15 11.1329 14.9585 10.2953 14.8814 9.5H9.11856C9.04149 10.2953 9 11.1329 9 12C9 12.8671 9.04149 13.7047 9.11856 14.5ZM16.6306 7.5H20.3687C19.2712 5.46326 17.4519 3.87297 15.2533 3.07165C15.439 3.42973 15.6087 3.81465 15.7629 4.21938C16.1264 5.17357 16.4205 6.28323 16.6306 7.5ZM13.8939 4.93137C14.1747 5.66846 14.4143 6.53515 14.598 7.5H9.40201C9.58567 6.53515 9.82526 5.66846 10.1061 4.93137C10.4426 4.04792 10.819 3.40193 11.1861 2.99438C11.5533 2.5866 11.8301 2.5 12 2.5C12.1699 2.5 12.4467 2.5866 12.8139 2.99438C13.181 3.40193 13.5574 4.04792 13.8939 4.93137ZM7.36943 7.5H3.63131C4.7288 5.46326 6.54812 3.87297 8.74674 3.07165C8.56102 3.42973 8.39127 3.81465 8.23709 4.21938C7.87359 5.17357 7.57951 6.28323 7.36943 7.5Z" fill="black"/>
</svg>
