<svg width="24" height="24" viewBox="0 0 24 24" fill="none" xmlns="http://www.w3.org/2000/svg">
<path fill-rule="evenodd" clip-rule="evenodd" d="M18.75 2C18.75 1.86193 18.6381 1.75 18.5 1.75C18.3619 1.75 18.25 1.86193 18.25 2C18.25 2.47664 18.2488 2.67845 18.2164 2.84141C18.0783 3.53562 17.5356 4.07829 16.8414 4.21637C16.6784 4.24879 16.4766 4.25 16 4.25H15.1887C14.6382 4.25 14.2097 4.25 13.866 4.27808C13.5171 4.30659 13.2335 4.36529 12.9785 4.49524C12.5552 4.71095 12.2109 5.05516 11.9952 5.47852C11.8653 5.73355 11.8066 6.01708 11.7781 6.36605C11.75 6.70974 11.75 7.1382 11.75 7.68867V7.75H4.68869C4.13821 7.75 3.70974 7.74999 3.36605 7.77808C3.01708 7.80659 2.73355 7.86529 2.47852 7.99523C2.05516 8.21095 1.71095 8.55515 1.49524 8.97852C1.36529 9.23355 1.30659 9.51708 1.27808 9.86604C1.25 10.2097 1.25 10.6382 1.25 11.1887V16.8113C1.25 17.3618 1.25 17.7903 1.27808 18.134C1.30659 18.4829 1.36529 18.7664 1.49524 19.0215C1.71095 19.4448 2.05516 19.789 2.47852 20.0048C2.73355 20.1347 3.01708 20.1934 3.36605 20.2219C3.70972 20.25 4.13815 20.25 4.68857 20.25H19.3113C19.8617 20.25 20.2903 20.25 20.634 20.2219C20.9829 20.1934 21.2664 20.1347 21.5215 20.0048C21.9448 19.789 22.289 19.4448 22.5048 19.0215C22.6347 18.7664 22.6934 18.4829 22.7219 18.134C22.75 17.7903 22.75 17.3618 22.75 16.8113V16.0064L22.7501 16L22.75 15.9936V12.0064L22.7501 12L22.75 11.9936V11.1887C22.75 10.6382 22.75 10.2097 22.7219 9.86604C22.6934 9.51708 22.6347 9.23355 22.5048 8.97852C22.289 8.55515 21.9448 8.21095 21.5215 7.99523C21.2664 7.86529 20.9829 7.80659 20.634 7.77808C20.2903 7.74999 19.8618 7.75 19.3113 7.75H12.25V7.7C12.25 7.13582 12.2502 6.72772 12.2764 6.40676C12.3024 6.08872 12.3527 5.87831 12.4407 5.70552C12.6085 5.37623 12.8762 5.10852 13.2055 4.94074C13.3783 4.8527 13.5887 4.8024 13.9068 4.77642C14.2277 4.75019 14.6358 4.75 15.2 4.75L16.0351 4.75C16.4664 4.75003 16.7214 4.75005 16.939 4.70677C17.8315 4.52923 18.5292 3.83151 18.7068 2.93895C18.75 2.72135 18.75 2.46638 18.75 2.03509L18.75 2ZM22.25 15.75V12.25H17.2501V15.75H22.25ZM22.25 16.8V16.25H18.2501V19.75H19.3C19.8642 19.75 20.2723 19.7498 20.5932 19.7236C20.9113 19.6976 21.1217 19.6473 21.2945 19.5593C21.6238 19.3915 21.8915 19.1238 22.0593 18.7945C22.1473 18.6217 22.1976 18.4113 22.2236 18.0932C22.2498 17.7723 22.25 17.3642 22.25 16.8ZM6.25008 16.25V19.75H17.7501V16.25H6.25008ZM4.7 19.75H5.75008V16.25H1.75V16.8C1.75 17.3642 1.75019 17.7723 1.77642 18.0932C1.8024 18.4113 1.8527 18.6217 1.94074 18.7945C2.10852 19.1238 2.37623 19.3915 2.70552 19.5593C2.87831 19.6473 3.08872 19.6976 3.40676 19.7236C3.72772 19.7498 4.13582 19.75 4.7 19.75ZM1.75 15.75V12.25H6.75008V15.75H1.75ZM18.7501 10C18.7501 9.86193 18.862 9.75 19.0001 9.75H20.0001C20.1382 9.75 20.2501 9.86193 20.2501 10C20.2501 10.1381 20.1382 10.25 20.0001 10.25H19.0001C18.862 10.25 18.7501 10.1381 18.7501 10ZM16.7501 15.75V12.25H12.2501V15.75H16.7501ZM11.7501 15.75H7.25008V12.25H11.7501V15.75Z" fill="black"/>
</svg>
