<svg width="24" height="24" viewBox="0 0 24 24" fill="none" xmlns="http://www.w3.org/2000/svg">
<path fill-rule="evenodd" clip-rule="evenodd" d="M0.123117 8.43565C0 9.21298 0 10.142 0 12C0 13.858 0 14.787 0.123117 15.5643C0.800832 19.8433 4.15673 23.1992 8.43565 23.8769C9.21298 24 10.142 24 12 24C13.858 24 14.787 24 15.5643 23.8769C19.8433 23.1992 23.1992 19.8433 23.8769 15.5643C24 14.787 24 13.858 24 12C24 10.142 24 9.21298 23.8769 8.43565C23.1992 4.15673 19.8433 0.800832 15.5643 0.123117C14.787 0 13.858 0 12 0C10.142 0 9.21298 0 8.43565 0.123117C4.15673 0.800832 0.800832 4.15673 0.123117 8.43565ZM17 6.58333C16.8619 6.58333 16.75 6.69526 16.75 6.83333V16.8333C16.75 16.9714 16.8619 17.0833 17 17.0833C17.1381 17.0833 17.25 16.9714 17.25 16.8333V6.83333C17.25 6.69526 17.1381 6.58333 17 6.58333ZM13.3089 10.0556L13.2988 11.75H4.90018C4.7621 11.75 4.65018 11.8619 4.65018 12C4.65018 12.1381 4.7621 12.25 4.90018 12.25H13.2958L13.286 13.8965C13.285 14.0706 13.2845 14.1577 13.3204 14.2031C13.3517 14.2426 13.3994 14.266 13.4502 14.2667C13.5085 14.2675 13.5783 14.2144 13.7179 14.1081L16.2225 12.2025C16.3154 12.1318 16.3618 12.0965 16.3787 12.0533C16.3936 12.0154 16.3938 11.9735 16.3794 11.9355C16.363 11.8921 16.317 11.8562 16.2249 11.7844L13.7433 9.84915C13.6049 9.74127 13.5358 9.68734 13.4774 9.68744C13.4266 9.68752 13.3787 9.71033 13.3469 9.74946C13.3104 9.79445 13.3099 9.88152 13.3089 10.0556Z" fill="black"/>
</svg>
