<svg width="24" height="24" viewBox="0 0 24 24" fill="none" xmlns="http://www.w3.org/2000/svg">
<path fill-rule="evenodd" clip-rule="evenodd" d="M19 2C19 1.72386 18.7761 1.5 18.5 1.5C18.2239 1.5 18 1.72386 18 2C18 2.48862 17.9976 2.65991 17.9712 2.79264C17.8528 3.38767 17.3877 3.85282 16.7926 3.97118C16.6599 3.99758 16.4886 4 16 4L15.1786 4C14.6367 3.99999 14.1996 3.99999 13.8457 4.02891C13.4813 4.05868 13.1612 4.12159 12.865 4.27248C12.3946 4.51217 12.0122 4.89462 11.7725 5.36502C11.6216 5.66117 11.5587 5.98126 11.5289 6.34569C11.5032 6.65989 11.5004 7.0396 11.5 7.5L4.6786 7.5C4.13671 7.49999 3.69962 7.49999 3.34569 7.52891C2.98126 7.55868 2.66117 7.62159 2.36502 7.77248C1.89462 8.01216 1.51217 8.39462 1.27248 8.86502C1.12159 9.16117 1.05868 9.48126 1.02891 9.84569C0.999991 10.1996 0.999994 10.6367 1 11.1786V16.8214C0.999994 17.3633 0.999991 17.8004 1.02891 18.1543C1.05868 18.5187 1.12159 18.8388 1.27248 19.135C1.51217 19.6054 1.89462 19.9878 2.36502 20.2275C2.66117 20.3784 2.98126 20.4413 3.34569 20.4711C3.69963 20.5 4.1367 20.5 4.67859 20.5H5.99811L6.00008 20.5L6.00205 20.5H17.9981L18.0001 20.5L18.0021 20.5H19.3214C19.8633 20.5 20.3004 20.5 20.6543 20.4711C21.0187 20.4413 21.3388 20.3784 21.635 20.2275C22.1054 19.9878 22.4878 19.6054 22.7275 19.135C22.8784 18.8388 22.9413 18.5187 22.9711 18.1543C23 17.8004 23 17.3633 23 16.8214V16.009L23.0001 16L23 15.991V12.009L23.0001 12L23 11.991V11.1786C23 10.6367 23 10.1996 22.9711 9.84569C22.9413 9.48126 22.8784 9.16117 22.7275 8.86502C22.4878 8.39462 22.1054 8.01216 21.635 7.77248C21.3388 7.62159 21.0187 7.55868 20.6543 7.52891C20.3004 7.49999 19.8633 7.49999 19.3214 7.5L12.5001 7.5C12.5005 7.03657 12.5035 6.698 12.5256 6.42712C12.5503 6.12454 12.5964 5.95069 12.6635 5.81901C12.8073 5.53677 13.0368 5.3073 13.319 5.16349C13.4507 5.0964 13.6245 5.05031 13.9271 5.02559C14.2355 5.00039 14.6317 5 15.2 5L16.0579 5.00001C16.4667 5.00011 16.7453 5.00018 16.9877 4.95196C17.9795 4.7547 18.7547 3.97945 18.952 2.98773C19.0002 2.74532 19.0001 2.46668 19 2.05788L19 2ZM22 15.5V12.5H17.5001V15.5H22ZM22 16.8V16.5H18.5001V19.5H19.3C19.8683 19.5 20.2645 19.4996 20.5729 19.4744C20.8755 19.4497 21.0493 19.4036 21.181 19.3365C21.4632 19.1927 21.6927 18.9632 21.8365 18.681C21.9036 18.5493 21.9497 18.3755 21.9744 18.0729C21.9996 17.7645 22 17.3683 22 16.8ZM6.50008 16.5V19.5H17.5001V16.5H6.50008ZM4.7 19.5H5.50008V16.5H2V16.8C2 17.3683 2.00039 17.7645 2.02559 18.0729C2.05031 18.3755 2.0964 18.5493 2.16349 18.681C2.3073 18.9632 2.53677 19.1927 2.81901 19.3365C2.95069 19.4036 3.12454 19.4497 3.42712 19.4744C3.73554 19.4996 4.1317 19.5 4.7 19.5ZM2 15.5V12.5H6.50008V15.5H2ZM18.5001 10C18.5001 9.72386 18.7239 9.5 19.0001 9.5H20.0001C20.2762 9.5 20.5001 9.72386 20.5001 10C20.5001 10.2761 20.2762 10.5 20.0001 10.5H19.0001C18.7239 10.5 18.5001 10.2761 18.5001 10ZM16.5001 15.5V12.5H12.5001V15.5H16.5001ZM11.5001 15.5H7.50008V12.5H11.5001V15.5Z" fill="black"/>
</svg>
