<svg width="24" height="24" viewBox="0 0 24 24" fill="none" xmlns="http://www.w3.org/2000/svg">
<path fill-rule="evenodd" clip-rule="evenodd" d="M0.123117 8.43565C0 9.21298 0 10.142 0 12C0 13.858 0 14.787 0.123117 15.5643C0.800832 19.8433 4.15673 23.1992 8.43565 23.8769C9.21298 24 10.142 24 12 24C13.858 24 14.787 24 15.5643 23.8769C19.8433 23.1992 23.1992 19.8433 23.8769 15.5643C24 14.787 24 13.858 24 12C24 10.142 24 9.21298 23.8769 8.43565C23.1992 4.15673 19.8433 0.800832 15.5643 0.123117C14.787 0 13.858 0 12 0C10.142 0 9.21298 0 8.43565 0.123117C4.15673 0.800832 0.800832 4.15673 0.123117 8.43565ZM11.5997 6.66646C11.8209 6.44517 12.1797 6.44516 12.401 6.66646L19.1746 13.44C19.3698 13.6352 19.3698 13.9518 19.1746 14.1471C18.9793 14.3423 18.6627 14.3423 18.4675 14.1471L12.0003 7.67998L5.53324 14.1471C5.33798 14.3423 5.0214 14.3423 4.82613 14.1471C4.63087 13.9518 4.63087 13.6352 4.82613 13.44L11.5997 6.66646Z" fill="black"/>
</svg>
