<svg width="24" height="24" viewBox="0 0 24 24" fill="none" xmlns="http://www.w3.org/2000/svg">
<path d="M20.75 4.00024C20.75 3.58603 21.0857 3.25024 21.5 3.25024C21.9142 3.25024 22.25 3.58603 22.25 4.00024V19.0002C22.25 19.4145 21.9142 19.7502 21.5 19.7502C21.0857 19.7502 20.75 19.4145 20.75 19.0002V4.00024Z" fill="black"/>
<path d="M20.4251 12.202C20.718 11.9091 20.718 11.4342 20.4251 11.1413L13.3695 4.08574C13.0766 3.79285 12.6017 3.79285 12.3088 4.08574C12.016 4.37864 12.016 4.85351 12.3088 5.1464L18.0841 10.9216H2.35022C1.93601 10.9216 1.60022 11.2574 1.60022 11.6716C1.60022 12.0858 1.93601 12.4216 2.35022 12.4216H18.0841L12.3088 18.1969C12.016 18.4898 12.016 18.9646 12.3088 19.2575C12.6017 19.5504 13.0766 19.5504 13.3695 19.2575L20.4251 12.202Z" fill="black"/>
</svg>
