<svg width="24" height="24" viewBox="0 0 24 24" fill="none" xmlns="http://www.w3.org/2000/svg">
<path fill-rule="evenodd" clip-rule="evenodd" d="M0.123117 8.43565C0 9.21298 0 10.142 0 12C0 13.858 0 14.787 0.123117 15.5643C0.800832 19.8433 4.15673 23.1992 8.43565 23.8769C9.21298 24 10.142 24 12 24C13.858 24 14.787 24 15.5643 23.8769C19.8433 23.1992 23.1992 19.8433 23.8769 15.5643C24 14.787 24 13.858 24 12C24 10.142 24 9.21298 23.8769 8.43565C23.1992 4.15673 19.8433 0.800832 15.5643 0.123117C14.787 0 13.858 0 12 0C10.142 0 9.21298 0 8.43565 0.123117C4.15673 0.800832 0.800832 4.15673 0.123117 8.43565ZM11.5113 6.57758C11.7814 6.30747 12.2193 6.30747 12.4894 6.57758L19.2629 13.3511C19.507 13.5952 19.507 13.9909 19.2629 14.235C19.0189 14.4791 18.6231 14.4791 18.3791 14.235L12.0003 7.85627L5.62163 14.235C5.37755 14.4791 4.98182 14.4791 4.73775 14.235C4.49367 13.9909 4.49367 13.5952 4.73775 13.3511L11.5113 6.57758Z" fill="black"/>
</svg>
