<svg width="24" height="24" viewBox="0 0 24 24" fill="none" xmlns="http://www.w3.org/2000/svg">
<path d="M20.5 4.25C20.5 3.97386 20.7238 3.75 21 3.75C21.2761 3.75 21.5 3.97386 21.5 4.25V19.25C21.5 19.5261 21.2761 19.75 21 19.75C20.7238 19.75 20.5 19.5261 20.5 19.25V4.25Z" fill="black"/>
<path d="M15.4632 9.08345C15.4648 8.82227 15.4656 8.69168 15.5203 8.6242C15.5679 8.5655 15.6399 8.53129 15.7161 8.53116C15.8036 8.53101 15.9073 8.61191 16.1148 8.77373L19.8374 11.6766C19.9755 11.7843 20.0445 11.8382 20.0691 11.9033C20.0907 11.9603 20.0903 12.0232 20.0681 12.08C20.0427 12.1447 19.973 12.1978 19.8336 12.3038L16.0768 15.1622C15.8674 15.3216 15.7627 15.4012 15.6752 15.4C15.5991 15.399 15.5275 15.3639 15.4806 15.3047C15.4266 15.2365 15.4274 15.106 15.429 14.8448L15.4429 12.5H2.85022C2.57408 12.5 2.35022 12.2761 2.35022 12C2.35022 11.7239 2.57408 11.5 2.85022 11.5H15.4489L15.4632 9.08345Z" fill="black"/>
</svg>
