<svg width="24" height="24" viewBox="0 0 24 24" fill="none" xmlns="http://www.w3.org/2000/svg">
<path d="M11.2613 8.55624C11.066 8.36116 10.7494 8.36104 10.5542 8.55624C10.3593 8.75146 10.3592 9.06807 10.5542 9.26327L13.2007 11.9098L10.5542 14.5562C10.3592 14.7515 10.3592 15.068 10.5542 15.2633C10.7495 15.4583 11.0661 15.4583 11.2613 15.2633L13.9078 12.6168L16.5542 15.2633C16.7494 15.4584 17.066 15.4582 17.2613 15.2633C17.4565 15.068 17.4565 14.7515 17.2613 14.5562L14.6148 11.9098L17.2613 9.26327C17.4565 9.06804 17.4564 8.75151 17.2613 8.55624C17.066 8.36115 16.7494 8.36104 16.5542 8.55624L13.9078 11.2027L11.2613 8.55624Z" fill="black"/>
<path fill-rule="evenodd" clip-rule="evenodd" d="M8.87455 2.50057C8.612 2.50057 8.38302 2.4958 8.16654 2.55722C7.98876 2.60769 7.82202 2.6912 7.67436 2.80233C7.49459 2.93766 7.3604 3.12248 7.2017 3.33163L1.21928 11.2144C1.11505 11.3518 0.968464 11.53 0.91166 11.7437C0.867033 11.9119 0.86699 12.0893 0.91166 12.2574C0.968543 12.4711 1.1151 12.6494 1.21928 12.7867L7.2017 20.6695C7.36031 20.8786 7.49466 21.0635 7.67436 21.1988C7.82195 21.3098 7.98887 21.3935 8.16654 21.4439C8.38297 21.5053 8.61206 21.5006 8.87455 21.5006H21.9507C22.0824 21.5006 22.2115 21.5006 22.3199 21.4918C22.4341 21.4824 22.5691 21.4603 22.7046 21.3912C22.8925 21.2954 23.0453 21.1426 23.1412 20.9547C23.2102 20.8192 23.2324 20.6841 23.2417 20.5699C23.2506 20.4616 23.2505 20.3324 23.2505 20.2008V3.80038C23.2505 3.66882 23.2506 3.53958 23.2417 3.43124C23.2324 3.31708 23.2101 3.18198 23.1412 3.04647C23.0454 2.85859 22.8925 2.7058 22.7046 2.60995C22.5691 2.54089 22.4341 2.51872 22.3199 2.50936C22.2115 2.50051 22.0824 2.50057 21.9507 2.50057H8.87455ZM21.9507 3.50057C22.0984 3.50058 22.1796 3.50073 22.2378 3.50546C22.24 3.5056 22.2447 3.50546 22.2447 3.50546C22.2449 3.50772 22.2454 3.51075 22.2456 3.51327C22.2503 3.57148 22.2505 3.65285 22.2505 3.80038V20.2008C22.2505 20.3484 22.2504 20.4297 22.2456 20.4879C22.2454 20.4901 22.2447 20.4947 22.2447 20.4947C22.2427 20.4949 22.2401 20.4955 22.2378 20.4957C22.1796 20.5004 22.0984 20.5006 21.9507 20.5006H8.87455C8.55554 20.5006 8.49109 20.4964 8.43998 20.482C8.38087 20.4652 8.32505 20.4369 8.27592 20.4C8.23341 20.368 8.19092 20.3198 7.9976 20.065L2.01615 12.1822C1.94657 12.0905 1.90938 12.0413 1.88529 12.0045L1.88236 12.0006L1.88529 11.9967C1.90936 11.9598 1.94644 11.9108 2.01615 11.8189L7.9976 3.93612C8.19106 3.68117 8.2334 3.63317 8.27592 3.60116C8.32512 3.56416 8.38076 3.53593 8.43998 3.51913C8.49112 3.50468 8.5552 3.50057 8.87455 3.50057H21.9507Z" fill="black"/>
</svg>
