<svg width="24" height="24" viewBox="0 0 24 24" fill="none" xmlns="http://www.w3.org/2000/svg">
<path fill-rule="evenodd" clip-rule="evenodd" d="M4.80612 9.4135C2.26166 9.4135 0.198975 7.35081 0.198975 4.80636C0.198975 2.26191 2.26166 0.199219 4.80612 0.199219C7.35057 0.199219 9.41326 2.26191 9.41326 4.80636V6.9135H14.5867V4.80636C14.5867 2.26191 16.6494 0.199219 19.1939 0.199219C21.7383 0.199219 23.801 2.26191 23.801 4.80636C23.801 7.35081 21.7383 9.4135 19.1939 9.4135H17.0867V14.587H19.1939C21.7383 14.587 23.801 16.6497 23.801 19.1941C23.801 21.7386 21.7383 23.8013 19.1939 23.8013C16.6494 23.8013 14.5867 21.7386 14.5867 19.1941V17.087H9.41326V19.1941C9.41326 21.7386 7.35057 23.8013 4.80612 23.8013C2.26166 23.8013 0.198975 21.7386 0.198975 19.1941C0.198975 16.6497 2.26166 14.587 4.80612 14.587H6.91326V9.4135H4.80612ZM6.91326 17.087V19.1941C6.91326 20.3579 5.96986 21.3013 4.80612 21.3013C3.64238 21.3013 2.69897 20.3579 2.69897 19.1941C2.69897 18.0304 3.64237 17.087 4.80612 17.087H6.91326ZM9.41326 14.587V9.4135H14.5867V14.587H9.41326ZM17.0867 17.087H19.1939C20.3576 17.087 21.301 18.0304 21.301 19.1941C21.301 20.3579 20.3576 21.3013 19.1939 21.3013C18.0301 21.3013 17.0867 20.3579 17.0867 19.1941V17.087ZM6.91326 6.9135H4.80612C3.64237 6.9135 2.69897 5.9701 2.69897 4.80636C2.69897 3.64262 3.64238 2.69922 4.80612 2.69922C5.96986 2.69922 6.91326 3.64262 6.91326 4.80636V6.9135ZM19.1939 6.9135C20.3576 6.9135 21.301 5.9701 21.301 4.80636C21.301 3.64262 20.3576 2.69922 19.1939 2.69922C18.0301 2.69922 17.0867 3.64262 17.0867 4.80636V6.9135H19.1939Z" fill="black"/>
</svg>
