<svg width="24" height="24" viewBox="0 0 24 24" fill="none" xmlns="http://www.w3.org/2000/svg">
<path fill-rule="evenodd" clip-rule="evenodd" d="M7.37903 3.75012C7.61302 3.75012 7.7471 3.75062 7.84734 3.75823C7.90837 3.76287 7.93358 3.76888 7.94041 3.77091C7.9668 3.7824 7.99101 3.79836 8.01197 3.81809C8.01652 3.82357 8.03198 3.84438 8.06028 3.89864C8.10677 3.98778 8.16004 4.11083 8.25221 4.3259L8.60118 5.14016L16.2146 19.097L9.63093 3.73502L9.59605 3.65316C9.45832 3.32908 9.31086 2.9821 9.04347 2.72905C8.8949 2.58845 8.72282 2.47499 8.53507 2.39381C8.19715 2.24772 7.82014 2.24887 7.46801 2.24994L7.37903 2.25012H1.5C1.08579 2.25012 0.75 2.58591 0.75 3.00012C0.75 3.41434 1.08579 3.75012 1.5 3.75012H7.37903ZM7.94244 3.77161L7.94041 3.77091C7.94182 3.77133 7.94249 3.7716 7.94244 3.77161ZM8.01052 3.81651C8.01018 3.81614 8.01052 3.81647 8.01052 3.81651Z" fill="black"/>
<path fill-rule="evenodd" clip-rule="evenodd" d="M16.3965 19.5134C16.3588 19.4328 16.313 19.3266 16.2478 19.1743L16.2146 19.097L16.5596 19.7293C16.5664 19.7314 16.5916 19.7374 16.6527 19.742C16.7529 19.7496 16.887 19.7501 17.121 19.7501H22.5C22.9142 19.7501 23.25 20.0859 23.25 20.5001C23.25 20.9143 22.9142 21.2501 22.5 21.2501H17.121L17.032 21.2503C16.6799 21.2514 16.3028 21.2525 15.9649 21.1064C15.7772 21.0253 15.6051 20.9118 15.4565 20.7712C15.1891 20.5181 15.0417 20.1712 14.904 19.8471L14.8691 19.7652L8.61612 5.17501L7.84734 3.75823L8.60118 5.14016L8.61612 5.17501L16.3965 19.5134ZM16.3965 19.5134C16.412 19.5466 16.4261 19.5756 16.4397 19.6016C16.468 19.6559 16.4835 19.6767 16.488 19.6822L16.3965 19.5134ZM16.5596 19.7293C16.5581 19.7289 16.5574 19.7286 16.5576 19.7286L16.5596 19.7293Z" fill="black"/>
<path d="M15 2.24995C14.5858 2.24995 14.25 2.58574 14.25 2.99995C14.25 3.41416 14.5858 3.74995 15 3.74995H22.5C22.9142 3.74995 23.25 3.41416 23.25 2.99995C23.25 2.58574 22.9142 2.24995 22.5 2.24995H15Z" fill="black"/>
</svg>
