<svg width="24" height="24" viewBox="0 0 24 24" fill="none" xmlns="http://www.w3.org/2000/svg">
<path fill-rule="evenodd" clip-rule="evenodd" d="M0.123117 8.43565C0 9.21298 0 10.142 0 12C0 13.858 0 14.787 0.123117 15.5643C0.800832 19.8433 4.15673 23.1992 8.43565 23.8769C9.21298 24 10.142 24 12 24C13.858 24 14.787 24 15.5643 23.8769C19.8433 23.1992 23.1992 19.8433 23.8769 15.5643C24 14.787 24 13.858 24 12C24 10.142 24 9.21298 23.8769 8.43565C23.1992 4.15673 19.8433 0.800832 15.5643 0.123117C14.787 0 13.858 0 12 0C10.142 0 9.21298 0 8.43565 0.123117C4.15673 0.800832 0.800832 4.15673 0.123117 8.43565ZM10.1507 6.33337L10.1203 6.33335H10.1203C9.97227 6.3332 9.84184 6.33307 9.71636 6.36586C9.60619 6.39465 9.50174 6.44204 9.40753 6.506C9.30023 6.57884 9.21444 6.67708 9.1171 6.78856L9.09708 6.81147L5.05644 11.4293L5.05005 11.4366L5.05003 11.4367C5.00113 11.4925 4.95289 11.5477 4.91527 11.598C4.87352 11.6538 4.82963 11.723 4.80362 11.811C4.76713 11.9344 4.76713 12.0657 4.80362 12.1891C4.82963 12.2771 4.87352 12.3463 4.91527 12.4021C4.95289 12.4524 5.00114 12.5076 5.05004 12.5634L5.05005 12.5634L5.05006 12.5634L5.05006 12.5635L5.05644 12.5707L9.09708 17.1886L9.1171 17.2115C9.21444 17.323 9.30023 17.4212 9.40753 17.4941C9.50174 17.558 9.60619 17.6054 9.71636 17.6342C9.84183 17.667 9.97225 17.6669 10.1202 17.6667H10.1203L10.1507 17.6667H18.1333H18.144H18.144H18.1441C18.2282 17.6667 18.3101 17.6667 18.3794 17.6611C18.4556 17.6548 18.5455 17.6401 18.636 17.594C18.7614 17.5301 18.8634 17.4281 18.9273 17.3027C18.9734 17.2122 18.9881 17.1223 18.9944 17.0461C19 16.9767 19 16.8948 19 16.8107V16.8107V16.8V7.20004V7.18939V7.18935C19 7.10524 19 7.02333 18.9944 6.95396C18.9881 6.87777 18.9734 6.78785 18.9273 6.69738C18.8634 6.57194 18.7614 6.46995 18.636 6.40604C18.5455 6.35994 18.4556 6.34525 18.3794 6.33902C18.31 6.33335 18.2281 6.33336 18.144 6.33337L18.1333 6.33337H10.1507ZM15.3548 9.14872C15.5501 8.95346 15.8666 8.95347 16.0619 9.14873C16.2572 9.344 16.2571 9.66058 16.0619 9.85584L13.978 11.9397L16.0622 14.0239C16.2575 14.2191 16.2575 14.5357 16.0623 14.731C15.867 14.9262 15.5504 14.9262 15.3552 14.731L13.2708 12.6468L11.1865 14.731C10.9912 14.9262 10.6747 14.9262 10.4794 14.731C10.2841 14.5357 10.2842 14.2191 10.4794 14.0239L12.5637 11.9397L10.4798 9.85584C10.2845 9.66058 10.2845 9.344 10.4798 9.14873C10.675 8.95347 10.9916 8.95346 11.1869 9.14872L13.2708 11.2326L15.3548 9.14872Z" fill="black"/>
</svg>
