<svg width="24" height="24" viewBox="0 0 24 24" fill="none" xmlns="http://www.w3.org/2000/svg">
<path fill-rule="evenodd" clip-rule="evenodd" d="M0.123117 8.43565C0 9.21298 0 10.142 0 12C0 13.858 0 14.787 0.123117 15.5643C0.800832 19.8433 4.15673 23.1992 8.43565 23.8769C9.21298 24 10.142 24 12 24C13.858 24 14.787 24 15.5643 23.8769C19.8433 23.1992 23.1992 19.8433 23.8769 15.5643C24 14.787 24 13.858 24 12C24 10.142 24 9.21298 23.8769 8.43565C23.1992 4.15673 19.8433 0.800832 15.5643 0.123117C14.787 0 13.858 0 12 0C10.142 0 9.21298 0 8.43565 0.123117C4.15673 0.800832 0.800832 4.15673 0.123117 8.43565ZM9.08952 6.87509C9.05399 6.87485 9.01323 6.87484 8.96331 6.87484H5H4.125V5.12484H5H8.96331L9.01767 5.12462C9.20723 5.1235 9.49123 5.12183 9.75537 5.21818C9.98155 5.30068 10.1853 5.43501 10.3502 5.6104C10.5428 5.81522 10.6531 6.07692 10.7268 6.2516L10.748 6.30164L15.1939 16.6753C15.2135 16.7212 15.2296 16.7587 15.2438 16.7912C15.2793 16.7915 15.3201 16.7915 15.37 16.7915H19H19.875V18.5415H19H15.37L15.3157 18.5417C15.1261 18.5428 14.8421 18.5445 14.578 18.4482C14.3518 18.3657 14.1481 18.2313 13.9832 18.0559C13.7905 17.8511 13.6802 17.5894 13.6066 17.4147L13.5854 17.3647L9.13948 6.991C9.11982 6.94512 9.10375 6.90766 9.08952 6.87509ZM13.125 5.99984C13.125 5.51659 13.5168 5.12484 14 5.12484H19H19.875V6.87484H19H14C13.5168 6.87484 13.125 6.48309 13.125 5.99984Z" fill="black"/>
</svg>
