<svg width="24" height="24" viewBox="0 0 24 24" fill="none" xmlns="http://www.w3.org/2000/svg">
<path d="M15.125 15.1252V16.2502C15.125 16.8715 15.6287 17.3752 16.25 17.3752C16.8713 17.3752 17.375 16.8715 17.375 16.2502C17.375 15.6288 16.8713 15.1252 16.25 15.1252H15.125Z" fill="black"/>
<path d="M10.625 10.6255V13.3755H13.375V10.6255H10.625Z" fill="black"/>
<path d="M7.625 8.79199C6.98067 8.79199 6.45833 8.26966 6.45833 7.62533C6.45833 6.98099 6.98067 6.45866 7.625 6.45866C8.26933 6.45866 8.79167 6.98099 8.79167 7.62532V8.79199H7.625Z" fill="black"/>
<path d="M6.45833 16.3753C6.45833 15.731 6.98067 15.2087 7.625 15.2087H8.79167V16.3753C8.79167 17.0197 8.26933 17.542 7.625 17.542C6.98067 17.542 6.45833 17.0197 6.45833 16.3753Z" fill="black"/>
<path d="M17.375 7.75016C17.375 8.37148 16.8713 8.87516 16.25 8.87516H15.125V7.75016C15.125 7.12884 15.6287 6.62516 16.25 6.62516C16.8713 6.62516 17.375 7.12884 17.375 7.75016Z" fill="black"/>
<path fill-rule="evenodd" clip-rule="evenodd" d="M0.123117 8.43565C0 9.21298 0 10.142 0 12C0 13.858 0 14.787 0.123117 15.5643C0.800832 19.8433 4.15673 23.1992 8.43565 23.8769C9.21298 24 10.142 24 12 24C13.858 24 14.787 24 15.5643 23.8769C19.8433 23.1992 23.1992 19.8433 23.8769 15.5643C24 14.787 24 13.858 24 12C24 10.142 24 9.21298 23.8769 8.43565C23.1992 4.15673 19.8433 0.800832 15.5643 0.123117C14.787 0 13.858 0 12 0C10.142 0 9.21298 0 8.43565 0.123117C4.15673 0.800832 0.800832 4.15673 0.123117 8.43565ZM4.70833 7.62533C4.70833 9.23616 6.01417 10.542 7.625 10.542H8.875V13.4587H7.625C6.01417 13.4587 4.70833 14.7645 4.70833 16.3753C4.70833 17.9862 6.01417 19.292 7.625 19.292C9.23583 19.292 10.5417 17.9862 10.5417 16.3753V15.1255H13.375V16.2502C13.375 17.838 14.6622 19.1252 16.25 19.1252C17.8378 19.1252 19.125 17.838 19.125 16.2502C19.125 14.6623 17.8378 13.3752 16.25 13.3752H15.125V10.6252H16.25C17.8378 10.6252 19.125 9.33798 19.125 7.75016C19.125 6.16234 17.8378 4.87516 16.25 4.87516C14.6622 4.87516 13.375 6.16234 13.375 7.75016V8.87549H10.5417V7.62532C10.5417 6.01449 9.23583 4.70866 7.625 4.70866C6.01417 4.70866 4.70833 6.01449 4.70833 7.62533Z" fill="black"/>
</svg>
