<svg width="24" height="24" viewBox="0 0 24 24" fill="none" xmlns="http://www.w3.org/2000/svg">
<path fill-rule="evenodd" clip-rule="evenodd" d="M0.123117 8.43565C0 9.21298 0 10.142 0 12C0 13.858 0 14.787 0.123117 15.5643C0.800832 19.8433 4.15673 23.1992 8.43565 23.8769C9.21298 24 10.142 24 12 24C13.858 24 14.787 24 15.5643 23.8769C19.8433 23.1992 23.1992 19.8433 23.8769 15.5643C24 14.787 24 13.858 24 12C24 10.142 24 9.21298 23.8769 8.43565C23.1992 4.15673 19.8433 0.800832 15.5643 0.123117C14.787 0 13.858 0 12 0C10.142 0 9.21298 0 8.43565 0.123117C4.15673 0.800832 0.800832 4.15673 0.123117 8.43565ZM12.2816 4.94897C12.1259 4.79479 11.8748 4.79479 11.7191 4.94897L5.11863 11.4848C4.8605 11.7404 5.05022 12.1667 5.39989 12.1667L9.00035 12.1667V14.5C9.00035 14.6841 9.14959 14.8333 9.33368 14.8333H14.667C14.8511 14.8333 15.0004 14.6841 15.0004 14.5V12.1667H18.6008C18.9505 12.1667 19.1402 11.7404 18.8821 11.4848L12.2816 4.94897ZM15.0004 15.8333C15.0004 15.6492 14.8511 15.5 14.667 15.5H9.33368C9.14959 15.5 9.00035 15.6492 9.00035 15.8333V17.8333C9.00035 18.0174 9.14959 18.1667 9.33368 18.1667H14.667C14.8511 18.1667 15.0004 18.0174 15.0004 17.8333V15.8333Z" fill="black"/>
</svg>
