<svg width="24" height="24" viewBox="0 0 24 24" fill="none" xmlns="http://www.w3.org/2000/svg">
<path d="M12.9498 2.14052C12.424 1.61983 11.5764 1.61982 11.0506 2.14052L11.9301 3.02874" fill="black"/>
<path fill-rule="evenodd" clip-rule="evenodd" d="M11.0506 2.14052L1.1499 11.9442C0.275524 12.81 0.920708 14.25 2.0995 14.25L6.75004 14.25V19C6.75004 19.6904 7.30969 20.25 8.00004 20.25H16C16.6904 20.25 17.25 19.6904 17.25 19V14.25H21.9009C23.0797 14.25 23.7249 12.81 22.8505 11.9442L12.9498 2.14052M12.0002 4.71848L19.1013 11.75H16C15.3097 11.75 14.75 12.3096 14.75 13V17.75H9.25004V13C9.25004 12.3096 8.6904 11.75 8.00004 11.75L4.89912 11.75L12.0002 4.71848ZM11.1915 3.91766C11.1912 3.91743 11.1917 3.91789 11.1915 3.91766Z" fill="black"/>
</svg>
