<svg width="24" height="24" viewBox="0 0 24 24" fill="none" xmlns="http://www.w3.org/2000/svg">
<path d="M20.75 4.25C20.75 3.55964 21.3096 3 22 3C22.6903 3 23.25 3.55964 23.25 4.25V19.25C23.25 19.9404 22.6903 20.5 22 20.5C21.3096 20.5 20.75 19.9404 20.75 19.25V4.25Z" fill="black"/>
<path d="M20.2786 12.8055C20.7668 12.3173 20.7668 11.5259 20.2786 11.0377L13.2231 3.98217C12.7349 3.49402 11.9435 3.49402 11.4553 3.98217C10.9672 4.47033 10.9672 5.26178 11.4553 5.74994L16.377 10.6716H1.85022C1.15986 10.6716 0.60022 11.2313 0.60022 11.9216C0.60022 12.612 1.15986 13.1716 1.85022 13.1716H16.377L11.4553 18.0933C10.9672 18.5814 10.9672 19.3729 11.4553 19.8611C11.9435 20.3492 12.7349 20.3492 13.2231 19.8611L20.2786 12.8055Z" fill="black"/>
</svg>
