<svg width="24" height="24" viewBox="0 0 24 24" fill="none" xmlns="http://www.w3.org/2000/svg">
<path fill-rule="evenodd" clip-rule="evenodd" d="M12 1C5.92487 1 1 5.92487 1 12C1 18.0751 5.92487 23 12 23C18.0751 23 23 18.0751 23 12C23 5.92487 18.0751 1 12 1ZM21.5422 15C21.8396 14.053 22 13.0452 22 12C22 10.9548 21.8396 9.94704 21.5422 9H16.3375C16.4435 9.9546 16.5 10.9614 16.5 12C16.5 13.0386 16.4435 14.0454 16.3375 15H21.5422ZM21.1679 16C19.8995 18.903 17.2928 21.0874 14.1276 21.7732C14.5774 21.2038 14.9684 20.4616 15.2957 19.6026C15.6871 18.5752 15.9978 17.3525 16.2055 16H21.1679ZM15.1932 16C14.9956 17.2291 14.7105 18.3297 14.3612 19.2466C14.0119 20.1634 13.6083 20.8708 13.1855 21.3402C12.7625 21.8098 12.3611 22 12 22C11.6389 22 11.2375 21.8098 10.8145 21.3402C10.3917 20.8708 9.98806 20.1634 9.63882 19.2466C9.28952 18.3297 9.00437 17.2291 8.80676 16H15.1932ZM7.79449 16C8.00221 17.3525 8.31291 18.5752 8.70433 19.6026C9.03157 20.4616 9.42263 21.2038 9.87245 21.7732C6.70724 21.0874 4.10045 18.903 2.83209 16H7.79449ZM2.4578 15H7.66251C7.55647 14.0454 7.5 13.0386 7.5 12C7.5 10.9614 7.55647 9.9546 7.66251 9H2.4578C2.16035 9.94704 2 10.9548 2 12C2 13.0452 2.16035 14.053 2.4578 15ZM8.66891 15H15.3311C15.4406 14.0538 15.5 13.0466 15.5 12C15.5 10.9534 15.4406 9.94623 15.3311 9H8.66891C8.55936 9.94623 8.5 10.9534 8.5 12C8.5 13.0466 8.55936 14.0538 8.66891 15ZM16.2055 8H21.1679C19.8995 5.09702 17.2928 2.91262 14.1276 2.2268C14.5774 2.7962 14.9684 3.53838 15.2957 4.39738C15.6871 5.42484 15.9978 6.64754 16.2055 8ZM14.3612 4.75338C14.7105 5.67027 14.9956 6.77089 15.1932 8H8.80676C9.00437 6.77089 9.28952 5.67027 9.63882 4.75338C9.98806 3.83662 10.3917 3.1292 10.8145 2.65976C11.2375 2.19021 11.6389 2 12 2C12.3611 2 12.7625 2.19021 13.1855 2.65976C13.6083 3.1292 14.0119 3.83662 14.3612 4.75338ZM7.79449 8H2.83209C4.10045 5.09702 6.70724 2.91262 9.87244 2.2268C9.42263 2.7962 9.03157 3.53838 8.70433 4.39738C8.31291 5.42484 8.00221 6.64754 7.79449 8Z" fill="black"/>
</svg>
