<svg width="24" height="24" viewBox="0 0 24 24" fill="none" xmlns="http://www.w3.org/2000/svg">
<path fill-rule="evenodd" clip-rule="evenodd" d="M0.123117 8.43565C0 9.21298 0 10.142 0 12C0 13.858 0 14.787 0.123117 15.5643C0.800832 19.8433 4.15673 23.1992 8.43565 23.8769C9.21298 24 10.142 24 12 24C13.858 24 14.787 24 15.5643 23.8769C19.8433 23.1992 23.1992 19.8433 23.8769 15.5643C24 14.787 24 13.858 24 12C24 10.142 24 9.21298 23.8769 8.43565C23.1992 4.15673 19.8433 0.800832 15.5643 0.123117C14.787 0 13.858 0 12 0C10.142 0 9.21298 0 8.43565 0.123117C4.15673 0.800832 0.800832 4.15673 0.123117 8.43565ZM18.0648 7.26961C17.8273 7.25019 17.5242 7.25 17.1 7.25H13.5C13.3619 7.25 13.25 7.13807 13.25 7C13.25 6.86193 13.3619 6.75 13.5 6.75H17.1111C17.5217 6.75 17.8453 6.75 18.1056 6.77127C18.3711 6.79297 18.5929 6.83804 18.7945 6.94074C19.1238 7.10852 19.3915 7.37623 19.5593 7.70552C19.662 7.90707 19.707 8.12886 19.7287 8.39445C19.75 8.65477 19.75 8.97826 19.75 9.38889V12.1111C19.75 12.5217 19.75 12.8452 19.7287 13.1056C19.707 13.3711 19.662 13.5929 19.5593 13.7945C19.3915 14.1238 19.1238 14.3915 18.7945 14.5593C18.5929 14.662 18.3711 14.707 18.1056 14.7287C17.8452 14.75 17.5218 14.75 17.1112 14.75H7.72954L7.74074 16.6336C7.7419 16.8295 7.74249 16.9274 7.70203 16.9785C7.66684 17.0229 7.61316 17.0492 7.55606 17.05C7.49042 17.0509 7.41189 16.9912 7.25484 16.8717L4.43724 14.7279C4.33271 14.6483 4.28045 14.6086 4.26141 14.56C4.24473 14.5174 4.24445 14.4702 4.26062 14.4274C4.27908 14.3786 4.33087 14.3382 4.43444 14.2575L7.22634 12.0803C7.38196 11.9589 7.45977 11.8983 7.52542 11.8984C7.58253 11.8985 7.63651 11.9241 7.67223 11.9681C7.71329 12.0188 7.71387 12.1167 7.71504 12.3126L7.72656 14.25H17.1C17.5242 14.25 17.8273 14.2498 18.0648 14.2304C18.2995 14.2112 18.4482 14.1746 18.5675 14.1138C18.8027 13.9939 18.9939 13.8027 19.1138 13.5675C19.1746 13.4482 19.2112 13.2995 19.2304 13.0648C19.2498 12.8273 19.25 12.5242 19.25 12.1V9.4C19.25 8.97584 19.2498 8.67275 19.2304 8.43516C19.2112 8.20049 19.1746 8.05183 19.1138 7.93251C18.9939 7.69731 18.8027 7.50608 18.5675 7.38624C18.4482 7.32545 18.2995 7.28878 18.0648 7.26961Z" fill="black"/>
</svg>
