<svg width="24" height="24" viewBox="0 0 24 24" fill="none" xmlns="http://www.w3.org/2000/svg">
<path fill-rule="evenodd" clip-rule="evenodd" d="M0.123117 8.43565C0 9.21298 0 10.142 0 12C0 13.858 0 14.787 0.123117 15.5643C0.800832 19.8433 4.15673 23.1992 8.43565 23.8769C9.21298 24 10.142 24 12 24C13.858 24 14.787 24 15.5643 23.8769C19.8433 23.1992 23.1992 19.8433 23.8769 15.5643C24 14.787 24 13.858 24 12C24 10.142 24 9.21298 23.8769 8.43565C23.1992 4.15673 19.8433 0.800832 15.5643 0.123117C14.787 0 13.858 0 12 0C10.142 0 9.21298 0 8.43565 0.123117C4.15673 0.800832 0.800832 4.15673 0.123117 8.43565ZM4.5 5.50016H5H9.22707C9.69377 5.50016 10.1156 5.77829 10.2994 6.20726L14.9531 17.0658C14.9793 17.1271 15.0396 17.1668 15.1063 17.1668H19H19.5V18.1668H19H15.1063C14.6396 18.1668 14.2178 17.8887 14.0339 17.4597L9.38026 6.60118C9.354 6.5399 9.29374 6.50016 9.22707 6.50016H5H4.5V5.50016ZM13.5 6.00016C13.5 5.72402 13.7239 5.50016 14 5.50016H19H19.5V6.50016H19H14C13.7239 6.50016 13.5 6.27631 13.5 6.00016Z" fill="black"/>
</svg>
