<svg width="24" height="24" viewBox="0 0 24 24" fill="none" xmlns="http://www.w3.org/2000/svg">
<path fill-rule="evenodd" clip-rule="evenodd" d="M9.18105 3.50003L21.2166 3.50006C21.3428 3.50004 21.4657 3.50003 21.5698 3.50853C21.6841 3.51787 21.8189 3.53991 21.9546 3.60905C22.1428 3.70493 22.2958 3.85791 22.3917 4.04607C22.4608 4.18178 22.4828 4.31665 22.4922 4.43095C22.5007 4.53498 22.5007 4.65782 22.5007 4.78396L22.5007 19.216C22.5007 19.3422 22.5007 19.4651 22.4922 19.5692C22.4828 19.6835 22.4608 19.8183 22.3917 19.9541C22.2958 20.1422 22.1428 20.2952 21.9546 20.3911C21.8189 20.4602 21.6841 20.4823 21.5698 20.4916C21.4657 20.5001 21.3428 20.5001 21.2167 20.5001L9.18105 20.5001C8.95906 20.5003 8.76341 20.5005 8.5752 20.4513C8.40994 20.4081 8.25327 20.3371 8.11195 20.2411C7.95101 20.1319 7.82233 19.9845 7.67634 19.8173L1.57573 12.8452C1.50238 12.7614 1.42999 12.6786 1.37357 12.6032C1.31094 12.5194 1.24511 12.4156 1.20609 12.2836C1.15135 12.0986 1.15135 11.9016 1.20609 11.7165C1.24511 11.5845 1.31094 11.4807 1.37357 11.3969C1.42999 11.3215 1.50235 11.2388 1.5757 11.155L7.6763 4.18284C7.82231 4.01563 7.951 3.86826 8.11195 3.759C8.25327 3.66306 8.40994 3.59197 8.5752 3.54879C8.76341 3.49961 8.95906 3.49981 9.18105 3.50003ZM9.72032 7.7231C10.0132 7.4302 10.4881 7.43019 10.781 7.72308L13.9072 10.8492L17.0335 7.72308C17.3264 7.43019 17.8013 7.4302 18.0941 7.7231C18.387 8.016 18.387 8.49087 18.0941 8.78376L14.9679 11.9098L18.094 15.0358C18.3869 15.3287 18.3869 15.8036 18.0941 16.0965C17.8012 16.3893 17.3263 16.3894 17.0334 16.0965L13.9072 12.9705L10.7811 16.0965C10.4882 16.3894 10.0133 16.3893 9.72041 16.0965C9.42752 15.8036 9.42753 15.3287 9.72043 15.0358L12.8465 11.9098L9.72034 8.78376C9.42744 8.49087 9.42743 8.016 9.72032 7.7231Z" fill="black"/>
</svg>
