<svg width="24" height="24" viewBox="0 0 24 24" fill="none" xmlns="http://www.w3.org/2000/svg">
<path d="M18.8002 4.75C19.3727 4.75 19.7569 4.75058 20.0528 4.77476C20.3399 4.79822 20.4772 4.8401 20.5677 4.88624C20.8029 5.00608 20.9942 5.19731 21.114 5.43251C21.1601 5.52307 21.202 5.66036 21.2255 5.94748C21.2497 6.24336 21.2502 6.62757 21.2502 7.2V10.8C21.2502 11.3724 21.2497 11.7566 21.2255 12.0525C21.202 12.3396 21.1601 12.4769 21.114 12.5675C20.9942 12.8027 20.8029 12.9939 20.5677 13.1138C20.4772 13.1599 20.3399 13.2018 20.0528 13.2252C19.7569 13.2494 19.3727 13.25 18.8002 13.25H3.5609L7.93743 8.87348C8.23032 8.58058 8.23032 8.10571 7.93743 7.81282C7.64454 7.51992 7.16966 7.51992 6.87677 7.81282L1.21991 13.4697C0.927021 13.7626 0.927021 14.2374 1.21991 14.5303L6.87677 20.1872C7.16966 20.4801 7.64454 20.4801 7.93743 20.1872C8.23032 19.8943 8.23032 19.4194 7.93743 19.1265L3.56091 14.75H18.8307C19.3648 14.75 19.8107 14.75 20.1749 14.7203C20.5548 14.6892 20.9115 14.6221 21.2487 14.4503C21.7662 14.1866 22.1869 13.7659 22.4505 13.2485C22.6224 12.9112 22.6895 12.5546 22.7205 12.1747C22.7503 11.8104 22.7503 11.3646 22.7502 10.8305V7.16955C22.7503 6.6354 22.7503 6.18956 22.7205 5.82533C22.6895 5.44545 22.6224 5.08879 22.4505 4.75153C22.1869 4.23408 21.7662 3.81339 21.2487 3.54973C20.9115 3.37789 20.5548 3.31078 20.1749 3.27974C19.8107 3.24998 19.3648 3.24999 18.8307 3.25H14.0002C13.586 3.25 13.2502 3.58579 13.2502 4C13.2502 4.41421 13.586 4.75 14.0002 4.75H18.8002Z" fill="black"/>
</svg>
