<svg width="24" height="24" viewBox="0 0 24 24" fill="none" xmlns="http://www.w3.org/2000/svg">
<path d="M14.5 14.5002V16.2502C14.5 17.2167 15.2835 18.0002 16.25 18.0002C17.2165 18.0002 18 17.2167 18 16.2502C18 15.2837 17.2165 14.5002 16.25 14.5002H14.5Z" fill="black"/>
<path d="M10 10.0005V14.0005H14V10.0005H10Z" fill="black"/>
<path d="M7.625 9.41699C6.63549 9.41699 5.83333 8.61484 5.83333 7.62533C5.83333 6.63582 6.63549 5.83366 7.625 5.83366C8.61451 5.83366 9.41667 6.63581 9.41667 7.62532V9.41699H7.625Z" fill="black"/>
<path d="M5.83333 16.3753C5.83333 15.3858 6.63549 14.5837 7.625 14.5837H9.41667V16.3753C9.41667 17.3648 8.61451 18.167 7.625 18.167C6.63549 18.167 5.83333 17.3648 5.83333 16.3753Z" fill="black"/>
<path d="M18 7.75016C18 8.71666 17.2165 9.50016 16.25 9.50016H14.5V7.75016C14.5 6.78366 15.2835 6.00016 16.25 6.00016C17.2165 6.00016 18 6.78366 18 7.75016Z" fill="black"/>
<path fill-rule="evenodd" clip-rule="evenodd" d="M0.123117 8.43565C0 9.21298 0 10.142 0 12C0 13.858 0 14.787 0.123117 15.5643C0.800832 19.8433 4.15673 23.1992 8.43565 23.8769C9.21298 24 10.142 24 12 24C13.858 24 14.787 24 15.5643 23.8769C19.8433 23.1992 23.1992 19.8433 23.8769 15.5643C24 14.787 24 13.858 24 12C24 10.142 24 9.21298 23.8769 8.43565C23.1992 4.15673 19.8433 0.800832 15.5643 0.123117C14.787 0 13.858 0 12 0C10.142 0 9.21298 0 8.43565 0.123117C4.15673 0.800832 0.800832 4.15673 0.123117 8.43565ZM5.33333 7.62533C5.33333 8.89098 6.35935 9.91699 7.625 9.91699H9.5V14.0837H7.625C6.35935 14.0837 5.33333 15.1097 5.33333 16.3753C5.33333 17.641 6.35935 18.667 7.625 18.667C8.89065 18.667 9.91667 17.641 9.91667 16.3753V14.5005H14V16.2502C14 17.4928 15.0074 18.5002 16.25 18.5002C17.4926 18.5002 18.5 17.4928 18.5 16.2502C18.5 15.0075 17.4926 14.0002 16.25 14.0002H14.5V10.0002H16.25C17.4926 10.0002 18.5 8.9928 18.5 7.75016C18.5 6.50752 17.4926 5.50016 16.25 5.50016C15.0074 5.50016 14 6.50752 14 7.75016V9.50049H9.91667V7.62532C9.91667 6.35967 8.89065 5.33366 7.625 5.33366C6.35935 5.33366 5.33333 6.35967 5.33333 7.62533Z" fill="black"/>
</svg>
