<svg width="24" height="24" viewBox="0 0 24 24" fill="none" xmlns="http://www.w3.org/2000/svg">
<path fill-rule="evenodd" clip-rule="evenodd" d="M0.123117 8.43565C0 9.21298 0 10.142 0 12C0 13.858 0 14.787 0.123117 15.5643C0.800832 19.8433 4.15673 23.1992 8.43565 23.8769C9.21298 24 10.142 24 12 24C13.858 24 14.787 24 15.5643 23.8769C19.8433 23.1992 23.1992 19.8433 23.8769 15.5643C24 14.787 24 13.858 24 12C24 10.142 24 9.21298 23.8769 8.43565C23.1992 4.15673 19.8433 0.800832 15.5643 0.123117C14.787 0 13.858 0 12 0C10.142 0 9.21298 0 8.43565 0.123117C4.15673 0.800832 0.800832 4.15673 0.123117 8.43565ZM9.1224 6.75057C9.07874 6.75001 9.02828 6.75 8.96331 6.75H5H4.25V5.25H5H8.96331L9.01763 5.24983C9.2104 5.24891 9.47101 5.24768 9.71254 5.33578C9.92037 5.41159 10.1076 5.53502 10.2591 5.69619C10.4352 5.88348 10.5368 6.12351 10.6119 6.30106L10.6331 6.35105L15.079 16.7247C15.1046 16.7845 15.1244 16.8308 15.1422 16.8707C15.1498 16.888 15.1564 16.9026 15.1622 16.9151C15.176 16.9155 15.1921 16.9159 15.2109 16.9161C15.2546 16.9167 15.3051 16.9167 15.37 16.9167H19H19.75V18.4167H19H15.37L15.3157 18.4168C15.1229 18.4178 14.8623 18.419 14.6208 18.3309C14.413 18.2551 14.2258 18.1316 14.0742 17.9705C13.8981 17.7832 13.7966 17.5432 13.7215 17.3656L13.7002 17.3156L9.25437 6.94193C9.22878 6.88221 9.20889 6.83584 9.19118 6.79593C9.18353 6.77867 9.1769 6.76404 9.1711 6.75154C9.15733 6.75114 9.14127 6.75081 9.1224 6.75057ZM13.25 6C13.25 5.58579 13.5858 5.25 14 5.25H19H19.75V6.75H19H14C13.5858 6.75 13.25 6.41421 13.25 6Z" fill="black"/>
</svg>
