<svg width="24" height="24" viewBox="0 0 24 24" fill="none" xmlns="http://www.w3.org/2000/svg">
<path fill-rule="evenodd" clip-rule="evenodd" d="M12.7772 1.07219C12.3476 0.642609 11.6511 0.6426 11.2215 1.07219L1.23197 11.0617C0.539039 11.7547 1.02977 12.9396 2.00979 12.9396H7.00002V15C7.00002 15.5523 7.44773 16 8.00002 16H16C16.5523 16 17 15.5523 17 15V12.9396H21.9889C22.9689 12.9396 23.4597 11.7547 22.7667 11.0617L12.7772 1.07219ZM4.18258 10.9396L11.9994 3.12279L19.8161 10.9396H16C15.4477 10.9396 15 11.3873 15 11.9396V14H9.00002V11.9396C9.00002 11.3873 8.5523 10.9396 8.00002 10.9396H4.18258Z" fill="black"/>
<path fill-rule="evenodd" clip-rule="evenodd" d="M17 18.75C17 18.1977 16.5523 17.75 16 17.75H8.00002C7.44773 17.75 7.00002 18.1977 7.00002 18.75V22.25C7.00002 22.8023 7.44773 23.25 8.00002 23.25H16C16.5523 23.25 17 22.8023 17 22.25V18.75ZM15 19.75V21.25H9.00002V19.75H15Z" fill="black"/>
</svg>
