<svg width="24" height="24" viewBox="0 0 24 24" fill="none" xmlns="http://www.w3.org/2000/svg">
<path d="M14.875 14.8752V16.2502C14.875 17.0096 15.4906 17.6252 16.25 17.6252C17.0094 17.6252 17.625 17.0096 17.625 16.2502C17.625 15.4908 17.0094 14.8752 16.25 14.8752H14.875Z" fill="black"/>
<path d="M10.375 10.3755V13.6255H13.625V10.3755H10.375Z" fill="black"/>
<path d="M7.625 9.04199C6.8426 9.04199 6.20833 8.40773 6.20833 7.62533C6.20833 6.84292 6.8426 6.20866 7.625 6.20866C8.4074 6.20866 9.04167 6.84292 9.04167 7.62532V9.04199H7.625Z" fill="black"/>
<path d="M6.20833 16.3753C6.20833 15.5929 6.8426 14.9587 7.625 14.9587H9.04167V16.3753C9.04167 17.1577 8.4074 17.792 7.625 17.792C6.8426 17.792 6.20833 17.1577 6.20833 16.3753Z" fill="black"/>
<path d="M17.625 7.75016C17.625 8.50955 17.0094 9.12516 16.25 9.12516H14.875V7.75016C14.875 6.99077 15.4906 6.37516 16.25 6.37516C17.0094 6.37516 17.625 6.99077 17.625 7.75016Z" fill="black"/>
<path fill-rule="evenodd" clip-rule="evenodd" d="M0.123117 8.43565C0 9.21298 0 10.142 0 12C0 13.858 0 14.787 0.123117 15.5643C0.800832 19.8433 4.15673 23.1992 8.43565 23.8769C9.21298 24 10.142 24 12 24C13.858 24 14.787 24 15.5643 23.8769C19.8433 23.1992 23.1992 19.8433 23.8769 15.5643C24 14.787 24 13.858 24 12C24 10.142 24 9.21298 23.8769 8.43565C23.1992 4.15673 19.8433 0.800832 15.5643 0.123117C14.787 0 13.858 0 12 0C10.142 0 9.21298 0 8.43565 0.123117C4.15673 0.800832 0.800832 4.15673 0.123117 8.43565ZM4.95833 7.62533C4.95833 9.09809 6.15224 10.292 7.625 10.292H9.125V13.7087H7.625C6.15224 13.7087 4.95833 14.9026 4.95833 16.3753C4.95833 17.8481 6.15224 19.042 7.625 19.042C9.09776 19.042 10.2917 17.8481 10.2917 16.3753V14.8755H13.625V16.2502C13.625 17.6999 14.8003 18.8752 16.25 18.8752C17.6997 18.8752 18.875 17.6999 18.875 16.2502C18.875 14.8004 17.6997 13.6252 16.25 13.6252H14.875V10.3752H16.25C17.6997 10.3752 18.875 9.19991 18.875 7.75016C18.875 6.30042 17.6997 5.12516 16.25 5.12516C14.8003 5.12516 13.625 6.30042 13.625 7.75016V9.12549H10.2917V7.62532C10.2917 6.15257 9.09776 4.95866 7.625 4.95866C6.15224 4.95866 4.95833 6.15257 4.95833 7.62533Z" fill="black"/>
</svg>
