<svg width="24" height="24" viewBox="0 0 24 24" fill="none" xmlns="http://www.w3.org/2000/svg">
<path fill-rule="evenodd" clip-rule="evenodd" d="M0.123117 8.43565C0 9.21298 0 10.142 0 12C0 13.858 0 14.787 0.123117 15.5643C0.800832 19.8433 4.15673 23.1992 8.43565 23.8769C9.21298 24 10.142 24 12 24C13.858 24 14.787 24 15.5643 23.8769C19.8433 23.1992 23.1992 19.8433 23.8769 15.5643C24 14.787 24 13.858 24 12C24 10.142 24 9.21298 23.8769 8.43565C23.1992 4.15673 19.8433 0.800832 15.5643 0.123117C14.787 0 13.858 0 12 0C10.142 0 9.21298 0 8.43565 0.123117C4.15673 0.800832 0.800832 4.15673 0.123117 8.43565ZM17 5.95834C16.5168 5.95834 16.125 6.35009 16.125 6.83334V11.7065L13.7433 9.84915C13.6049 9.74128 13.5358 9.68734 13.4774 9.68744C13.4266 9.68753 13.3787 9.71034 13.3469 9.74947C13.3104 9.79445 13.3099 9.88151 13.3089 10.0556L13.3025 11.125H4.90018C4.41693 11.125 4.02518 11.5168 4.02518 12C4.02518 12.4833 4.41693 12.875 4.90018 12.875H13.2921L13.286 13.8965C13.285 14.0706 13.2845 14.1577 13.3204 14.2031C13.3517 14.2426 13.3994 14.266 13.4502 14.2667C13.5085 14.2675 13.5783 14.2144 13.7179 14.1082L16.125 12.2767V16.8333C16.125 17.3166 16.5168 17.7083 17 17.7083C17.4832 17.7083 17.875 17.3166 17.875 16.8333V6.83334C17.875 6.35009 17.4832 5.95834 17 5.95834Z" fill="black"/>
</svg>
