<svg width="24" height="24" viewBox="0 0 24 24" fill="none" xmlns="http://www.w3.org/2000/svg">
<path d="M7.44497 4.24993C7.53926 4.24993 7.61225 4.24995 7.67525 4.25069C7.70075 4.3083 7.72952 4.37538 7.76667 4.46206L14.4355 20.0226L14.4674 20.0978C14.5785 20.3611 14.7396 20.7428 15.0203 21.0413C15.261 21.2972 15.5583 21.4933 15.8884 21.6137C16.2732 21.7541 16.6875 21.7518 16.9734 21.7502L17.055 21.7499H22.5C23.1904 21.7499 23.75 21.1903 23.75 20.4999C23.75 19.8096 23.1904 19.2499 22.5 19.2499H17.055C16.9607 19.2499 16.8877 19.2499 16.8247 19.2492C16.7992 19.1916 16.7705 19.1245 16.7333 19.0378L10.0645 3.47726L10.0326 3.40209C9.92148 3.13871 9.76038 2.75703 9.47973 2.45858C9.23903 2.20261 8.94173 2.00657 8.61164 1.88616C8.22677 1.74577 7.8125 1.74805 7.52662 1.74962L7.44497 1.74993H1.5C0.809645 1.74993 0.25 2.30957 0.25 2.99993C0.25 3.69028 0.809645 4.24993 1.5 4.24993H7.44497Z" fill="black"/>
<path d="M15 1.74976C14.3096 1.74976 13.75 2.3094 13.75 2.99976C13.75 3.69011 14.3096 4.24976 15 4.24976H22.5C23.1904 4.24976 23.75 3.69011 23.75 2.99976C23.75 2.3094 23.1904 1.74976 22.5 1.74976H15Z" fill="black"/>
</svg>
