<svg width="24" height="24" viewBox="0 0 24 24" fill="none" xmlns="http://www.w3.org/2000/svg">
<path d="M17.7916 8.02581C17.3035 7.53794 16.5121 7.53787 16.024 8.02581L13.9078 10.142L11.7916 8.02581C11.3035 7.53804 10.5121 7.53789 10.024 8.02581C9.53619 8.51387 9.53629 9.30527 10.024 9.79339L12.1403 11.9096L10.024 14.0258C9.53604 14.5139 9.53617 15.3052 10.024 15.7934C10.5122 16.2814 11.3035 16.2814 11.7916 15.7934L13.9078 13.6772L16.024 15.7934C16.5121 16.2814 17.3035 16.2812 17.7916 15.7934C18.2796 15.3052 18.2798 14.5139 17.7916 14.0258L15.6754 11.9096L17.7916 9.79339C18.2797 9.30523 18.2797 8.51393 17.7916 8.02581Z" fill="black"/>
<path fill-rule="evenodd" clip-rule="evenodd" d="M8.87463 1.75042C8.68276 1.75042 8.38875 1.74168 8.09045 1.80413L7.96252 1.83636C7.76267 1.89307 7.5714 1.97668 7.39514 2.08538L7.22327 2.20257C6.9407 2.41523 6.73678 2.70253 6.60413 2.87737L0.621704 10.7612C0.566213 10.8343 0.354763 11.0848 0.233032 11.4086L0.187133 11.5512C0.108928 11.8456 0.108928 12.1552 0.187133 12.4496C0.291171 12.8412 0.558305 13.1561 0.621704 13.2397L6.60413 21.1235C6.73678 21.2983 6.94069 21.5856 7.22327 21.7983C7.44479 21.965 7.69582 22.0888 7.96252 22.1645C8.30287 22.261 8.65529 22.2504 8.87463 22.2504H21.9508C22.0701 22.2504 22.2347 22.2516 22.3805 22.2397C22.5412 22.2265 22.7866 22.1919 23.0455 22.06C23.3746 21.8922 23.6425 21.6244 23.8102 21.2953C23.9421 21.0363 23.9767 20.791 23.9899 20.6303C24.0018 20.4844 24.0006 20.3199 24.0006 20.2006V3.80022C24.0006 3.68094 24.0018 3.51645 23.9899 3.37053C23.98 3.25016 23.9581 3.08227 23.8922 2.8969L23.8102 2.7055L23.7428 2.58538C23.5987 2.35032 23.4007 2.15239 23.1656 2.00823L23.0455 1.94085L22.8541 1.85882C22.6688 1.79296 22.5009 1.771 22.3805 1.76116C22.2347 1.74927 22.0701 1.75042 21.9508 1.75042H8.87463ZM21.5006 4.25042V19.7504H8.87463C8.80295 19.7504 8.74732 19.7499 8.69983 19.7494C8.67101 19.7122 8.63813 19.6681 8.59534 19.6117L2.81897 12.0004L8.59534 4.38909C8.63836 4.33239 8.6709 4.2878 8.69983 4.25042H21.5006ZM22.1735 19.7485H22.1705C22.1747 19.748 22.1774 19.7475 22.1774 19.7475C22.1774 19.7475 22.1758 19.7483 22.1735 19.7485ZM22.1735 4.25237C22.1758 4.25255 22.1774 4.25335 22.1774 4.25335C22.1774 4.25335 22.1747 4.25286 22.1705 4.25237H22.1735Z" fill="black"/>
</svg>
