<svg width="24" height="24" viewBox="0 0 24 24" fill="none" xmlns="http://www.w3.org/2000/svg">
<path fill-rule="evenodd" clip-rule="evenodd" d="M0.123117 8.43565C0 9.21298 0 10.142 0 12C0 13.858 0 14.787 0.123117 15.5643C0.800832 19.8433 4.15673 23.1992 8.43565 23.8769C9.21298 24 10.142 24 12 24C13.858 24 14.787 24 15.5643 23.8769C19.8433 23.1992 23.1992 19.8433 23.8769 15.5643C24 14.787 24 13.858 24 12C24 10.142 24 9.21298 23.8769 8.43565C23.1992 4.15673 19.8433 0.800832 15.5643 0.123117C14.787 0 13.858 0 12 0C10.142 0 9.21298 0 8.43565 0.123117C4.15673 0.800832 0.800832 4.15673 0.123117 8.43565ZM18.0241 7.76795C17.8116 7.75058 17.5324 7.75 17.1 7.75H13.5C13.0858 7.75 12.75 7.41421 12.75 7C12.75 6.58579 13.0858 6.25 13.5 6.25H17.1289C17.5243 6.24999 17.8653 6.24997 18.1463 6.27293C18.4428 6.29715 18.7377 6.35064 19.0215 6.49524C19.4448 6.71095 19.789 7.05516 20.0048 7.47852C20.1494 7.76231 20.2028 8.05722 20.2271 8.35373C20.25 8.63465 20.25 8.97572 20.25 9.37108V12.1289C20.25 12.5243 20.25 12.8653 20.2271 13.1463C20.2028 13.4428 20.1494 13.7377 20.0048 14.0215C19.789 14.4448 19.4448 14.7891 19.0215 15.0048C18.7377 15.1494 18.4428 15.2028 18.1463 15.2271C17.8653 15.25 17.5243 15.25 17.1289 15.25H7.73251L7.74074 16.6336C7.7419 16.8295 7.74249 16.9274 7.70203 16.9785C7.66684 17.0229 7.61316 17.0492 7.55606 17.05C7.49042 17.0509 7.41189 16.9912 7.25483 16.8717L4.43724 14.7279C4.33271 14.6483 4.28044 14.6086 4.26141 14.56C4.24473 14.5174 4.24445 14.4702 4.26062 14.4274C4.27908 14.3786 4.33087 14.3382 4.43444 14.2575L7.22634 12.0803C7.38196 11.9589 7.45977 11.8983 7.52542 11.8984C7.58253 11.8985 7.63651 11.9241 7.67223 11.9682C7.71329 12.0188 7.71387 12.1167 7.71504 12.3126L7.72359 13.75H17.1C17.5324 13.75 17.8116 13.7494 18.0241 13.7321C18.2279 13.7154 18.3034 13.6872 18.3405 13.6683C18.4816 13.5964 18.5963 13.4816 18.6683 13.3405C18.6871 13.3034 18.7154 13.2279 18.7321 13.0241C18.7494 12.8116 18.75 12.5324 18.75 12.1V9.4C18.75 8.96759 18.7494 8.68838 18.7321 8.47588C18.7154 8.27213 18.6871 8.19659 18.6683 8.15951C18.5963 8.01839 18.4816 7.90365 18.3405 7.83175C18.3034 7.81285 18.2279 7.78459 18.0241 7.76795Z" fill="black"/>
</svg>
