<svg width="24" height="24" viewBox="0 0 24 24" fill="none" xmlns="http://www.w3.org/2000/svg">
<path fill-rule="evenodd" clip-rule="evenodd" d="M12.9538 0.645411C12.4266 0.118202 11.5719 0.11819 11.0446 0.64541L1.05509 10.635C0.204666 11.4854 0.806931 12.9396 2.00968 12.9396H6.74991V14.25C6.74991 14.9404 7.30955 15.5 7.99991 15.5H15.9999C16.6903 15.5 17.2499 14.9404 17.2499 14.25V12.9396H21.9888C23.1916 12.9396 23.7938 11.4854 22.9434 10.635L12.9538 0.645411ZM11.9992 3.22635L19.2125 10.4396H15.9999C15.3095 10.4396 14.7499 10.9992 14.7499 11.6896V13H9.24991V11.6896C9.24991 10.9992 8.69026 10.4396 7.99991 10.4396H4.78603L11.9992 3.22635Z" fill="black"/>
<path fill-rule="evenodd" clip-rule="evenodd" d="M17.2499 18.25C17.2499 17.5596 16.6903 17 15.9999 17H7.99991C7.30955 17 6.74991 17.5596 6.74991 18.25V22.25C6.74991 22.9404 7.30955 23.5 7.99991 23.5H15.9999C16.6903 23.5 17.2499 22.9404 17.2499 22.25V18.25ZM14.7499 19.5V21H9.24991V19.5H14.7499Z" fill="black"/>
</svg>
