<svg width="24" height="24" viewBox="0 0 24 24" fill="none" xmlns="http://www.w3.org/2000/svg">
<path fill-rule="evenodd" clip-rule="evenodd" d="M12.598 2.49581C12.267 2.16807 11.7334 2.16806 11.4024 2.49581L1.5017 12.2995C0.952103 12.8437 1.3569 13.75 2.0995 13.75L7.25004 13.75V19C7.25004 19.4142 7.58582 19.75 8.00004 19.75H16C16.4142 19.75 16.75 19.4142 16.75 19V13.75H21.9009C22.6435 13.75 23.0483 12.8437 22.4987 12.2995L12.598 2.49581ZM12.0002 4.01483L20.3168 12.25H16C15.5858 12.25 15.25 12.5858 15.25 13V18.25H8.75004V13C8.75004 12.5858 8.41425 12.25 8.00004 12.25L3.68356 12.25L12.0002 4.01483ZM2.55713 13.3654C2.55708 13.3654 2.55718 13.3654 2.55713 13.3654Z" fill="black"/>
</svg>
