<svg width="24" height="24" viewBox="0 0 24 24" fill="none" xmlns="http://www.w3.org/2000/svg">
<path fill-rule="evenodd" clip-rule="evenodd" d="M2.77476 4.15451C2.75058 4.45039 2.75 4.8346 2.75 5.40703L2.75 7.20703C2.75 7.62125 2.41421 7.95703 2 7.95703C1.58579 7.95703 1.25 7.62125 1.25 7.20703V5.40703V5.3766C1.24999 4.84244 1.24998 4.3966 1.27974 4.03236C1.31078 3.65248 1.37789 3.29582 1.54973 2.95856C1.81338 2.44111 2.23408 2.02042 2.75153 1.75676C3.08879 1.58492 3.44545 1.51781 3.82533 1.48677C4.18956 1.45701 4.63541 1.45702 5.16957 1.45703H5.2H7C7.41421 1.45703 7.75 1.79282 7.75 2.20703C7.75 2.62125 7.41421 2.95703 7 2.95703H5.2C4.62757 2.95703 4.24336 2.95762 3.94748 2.98179C3.66035 3.00525 3.52307 3.04713 3.43251 3.09327C3.19731 3.21312 3.00608 3.40434 2.88624 3.63954C2.8401 3.7301 2.79822 3.86739 2.77476 4.15451ZM21.0745 20.1088C21.0987 19.8129 21.0992 19.4287 21.0992 18.8563V17.0563C21.0992 16.6421 21.435 16.3063 21.8492 16.3063C22.2635 16.3063 22.5992 16.6421 22.5992 17.0563L22.5992 18.8563L22.5992 18.8867C22.5993 19.4209 22.5993 19.8667 22.5695 20.2309C22.5385 20.6108 22.4714 20.9675 22.2995 21.3047C22.0359 21.8222 21.6152 22.2429 21.0977 22.5065C20.7605 22.6784 20.4038 22.7455 20.0239 22.7765C19.6597 22.8063 19.2138 22.8063 18.6797 22.8063H18.6492H16.8492C16.435 22.8063 16.0992 22.4705 16.0992 22.0563C16.0992 21.6421 16.435 21.3063 16.8492 21.3063H18.6492C19.2217 21.3063 19.6059 21.3057 19.9018 21.2815C20.1889 21.2581 20.3262 21.2162 20.4167 21.17C20.6519 21.0502 20.8432 20.859 20.963 20.6238C21.0091 20.5332 21.051 20.3959 21.0745 20.1088ZM10.6369 4.53033C9.03754 6.12964 8.48648 8.37995 8.98254 10.4273L3.86268 15.5471C3.39823 16.0116 3.15992 16.6558 3.2103 17.3107L3.42228 20.0664C3.47237 20.7177 4.01542 21.2206 4.66859 21.2206H7.9052L7.90797 21.2206C7.91886 21.2206 7.93929 21.2206 7.9584 21.2191C7.9822 21.2171 8.02494 21.2115 8.0714 21.1879C8.12785 21.1591 8.17374 21.1132 8.20251 21.0568C8.22618 21.0103 8.23175 20.9676 8.23369 20.9438C8.23525 20.9246 8.23522 20.9042 8.23521 20.8933L8.2352 20.8906L8.2352 19.0992H10.0265L10.0293 19.0992H10.0293C10.0402 19.0993 10.0606 19.0993 10.0797 19.0977C10.1035 19.0958 10.1463 19.0902 10.1927 19.0665C10.2492 19.0378 10.2951 18.9919 10.3238 18.9354C10.3475 18.889 10.3531 18.8462 10.355 18.8224C10.3566 18.8033 10.3565 18.7829 10.3565 18.772L10.3565 18.7692V16.9779L12.1478 16.9779L12.1506 16.9779H12.1507C12.1616 16.9779 12.182 16.978 12.201 16.9764C12.2248 16.9745 12.2676 16.9689 12.314 16.9452C12.3705 16.9165 12.4164 16.8706 12.4451 16.8141C12.4688 16.7677 12.4744 16.7249 12.4763 16.7011C12.4779 16.682 12.4779 16.6616 12.4778 16.6507L12.4778 16.6479V14.8566H13.0097C15.1992 15.6135 17.7267 15.1182 19.4757 13.3692C21.9165 10.9284 21.9165 6.97111 19.4757 4.53033C17.0349 2.08956 13.0776 2.08956 10.6369 4.53033ZM17.0134 6.99243C17.7038 7.68278 17.7038 8.80207 17.0134 9.49243C16.3231 10.1828 15.2038 10.1828 14.5134 9.49243C13.8231 8.80207 13.8231 7.68278 14.5134 6.99243C15.2038 6.30207 16.3231 6.30207 17.0134 6.99243Z" fill="black"/>
</svg>
