<svg width="24" height="24" viewBox="0 0 24 24" fill="none" xmlns="http://www.w3.org/2000/svg">
<path d="M21.8496 16.5566C22.1255 16.5569 22.3496 16.7807 22.3496 17.0566V18.8564C22.3496 19.4081 22.3486 19.8524 22.3193 20.2109C22.2896 20.5753 22.227 20.8953 22.0762 21.1914C21.8365 21.6616 21.4546 22.0446 20.9844 22.2842C20.6884 22.4349 20.3681 22.4976 20.0039 22.5273C19.6454 22.5566 19.2011 22.5566 18.6494 22.5566H16.8496C16.5736 22.5565 16.3497 22.3326 16.3496 22.0566C16.3497 21.7807 16.5736 21.5568 16.8496 21.5566H18.6494C19.2177 21.5566 19.6154 21.5564 19.9238 21.5312C20.2252 21.5065 20.3988 21.4604 20.5303 21.3936C20.8122 21.2499 21.0427 21.0202 21.1865 20.7383C21.2535 20.6067 21.2995 20.4318 21.3242 20.1299C21.3494 19.8216 21.3496 19.4244 21.3496 18.8564L21.3506 17.0566C21.3506 16.7807 21.5737 16.5569 21.8496 16.5566ZM10.46 4.35449C12.9984 1.81608 17.1139 1.81608 19.6523 4.35449C22.1905 6.89292 22.1907 11.0085 19.6523 13.5469C17.8442 15.3547 15.2365 15.8738 12.9697 15.1074H12.7275V16.5684C12.7275 16.5882 12.728 16.6331 12.7246 16.6748C12.7207 16.7224 12.7104 16.8086 12.6631 16.9014C12.6057 17.0139 12.5138 17.1056 12.4014 17.1631C12.3088 17.2103 12.2225 17.2207 12.1748 17.2246C12.1333 17.228 12.0883 17.2275 12.0684 17.2275L10.6064 17.2285V18.6895C10.6064 18.7092 10.6069 18.7542 10.6035 18.7959C10.5996 18.8435 10.5884 18.9296 10.541 19.0225C10.4836 19.135 10.3918 19.2267 10.2793 19.2842C10.1866 19.3314 10.1003 19.3428 10.0527 19.3467C10.0116 19.35 9.96727 19.3486 9.94727 19.3486L8.48535 19.3496V20.8105C8.48535 20.8303 8.4858 20.8754 8.48242 20.917C8.47853 20.9646 8.4672 21.0507 8.41992 21.1436C8.36247 21.2561 8.27075 21.3478 8.1582 21.4053C8.06539 21.4526 7.97927 21.4639 7.93164 21.4678C7.89008 21.4712 7.84502 21.4707 7.8252 21.4707H4.66895C3.88522 21.4706 3.23397 20.8674 3.17383 20.0859L2.96094 17.3301C2.90504 16.6027 3.16982 15.8871 3.68555 15.3711L8.70996 10.3467C8.25186 8.25605 8.83301 5.98173 10.46 4.35449ZM18.9453 5.06152C16.7974 2.91364 13.3149 2.91364 11.167 5.06152C9.74961 6.4792 9.26785 8.47824 9.72266 10.293C9.72551 10.3044 9.73212 10.3324 9.7373 10.3594C9.74344 10.3915 9.75128 10.4467 9.74707 10.5127C9.74172 10.5949 9.72027 10.6748 9.68262 10.748C9.65278 10.8059 9.6179 10.8481 9.5957 10.873C9.57718 10.8938 9.55684 10.9148 9.54883 10.9229L4.39258 16.0781C4.08336 16.3876 3.92462 16.8167 3.95801 17.2529L4.16992 20.0088C4.18994 20.269 4.40702 20.4703 4.66797 20.4707H7.48438L7.48535 19.0098C7.48535 18.99 7.48491 18.9448 7.48828 18.9033C7.49218 18.8557 7.50355 18.7695 7.55078 18.6768L7.60059 18.5967C7.65586 18.5208 7.7281 18.4581 7.8125 18.415C7.90541 18.3677 7.99146 18.3564 8.03906 18.3525C8.08071 18.3492 8.12575 18.3496 8.14551 18.3496H9.60547L9.60742 16.8877C9.60741 16.8677 9.60599 16.8226 9.60938 16.7812C9.6133 16.7336 9.62489 16.6481 9.67188 16.5557L9.72168 16.4756C9.77689 16.3998 9.8493 16.337 9.93359 16.2939C10.0265 16.2466 10.1125 16.2353 10.1602 16.2314C10.2019 16.228 10.2468 16.2285 10.2666 16.2285L11.7266 16.2275L11.7285 14.7666C11.7285 14.7467 11.7281 14.7017 11.7314 14.6602C11.7354 14.6125 11.7458 14.5263 11.793 14.4336L11.8428 14.3535C11.898 14.2777 11.9704 14.2149 12.0547 14.1719C12.1474 14.1246 12.2336 14.1143 12.2812 14.1104C12.3228 14.107 12.3678 14.1074 12.3877 14.1074H13.0244C13.0249 14.1074 13.0591 14.1068 13.0947 14.1104L13.1748 14.123L13.2422 14.1436C15.1734 14.8163 17.4037 14.3811 18.9453 12.8398C21.0931 10.692 21.093 7.20942 18.9453 5.06152ZM14.1602 6.63965C15.0457 5.75445 16.4807 5.75454 17.3662 6.63965C18.2516 7.52528 18.2518 8.96113 17.3662 9.84668C16.4807 10.7315 15.0456 10.7317 14.1602 9.84668C13.2748 8.96119 13.275 7.52526 14.1602 6.63965ZM16.6592 7.34668C16.1641 6.8521 15.3622 6.85201 14.8672 7.34668C14.3726 7.84176 14.3724 8.64468 14.8672 9.13965C15.3621 9.63412 16.1642 9.63398 16.6592 9.13965C17.1542 8.64463 17.1541 7.84179 16.6592 7.34668ZM7.00098 1.70703C7.27667 1.7074 7.50076 1.9313 7.50098 2.20703C7.50098 2.48295 7.27681 2.70667 7.00098 2.70703L5.2002 2.70801C4.63221 2.70801 4.23508 2.70724 3.92676 2.73242C3.62498 2.75713 3.45085 2.80417 3.31934 2.87109C3.03731 3.01492 2.80682 3.24526 2.66309 3.52734C2.59633 3.65879 2.55104 3.83246 2.52637 4.13379C2.50117 4.44221 2.50098 4.8399 2.50098 5.4082V7.20801C2.50067 7.48366 2.27662 7.70667 2.00098 7.70703C1.72502 7.70703 1.50128 7.48389 1.50098 7.20801L1.5 5.40723C1.5 4.85563 1.50001 4.41123 1.5293 4.05273C1.55908 3.68856 1.62169 3.36824 1.77246 3.07227C2.01207 2.60211 2.39511 2.22013 2.86523 1.98047C3.16123 1.82969 3.4815 1.76709 3.8457 1.7373C4.20416 1.70802 4.64867 1.70703 5.2002 1.70703H7.00098Z" fill="black"/>
</svg>
