<svg width="24" height="24" viewBox="0 0 24 24" fill="none" xmlns="http://www.w3.org/2000/svg">
<path fill-rule="evenodd" clip-rule="evenodd" d="M3.2731 4.19523C3.25097 4.46602 3.25 4.82635 3.25 5.40703V7.20703C3.25 7.89739 2.69036 8.45703 2 8.45703C1.30965 8.45703 0.750002 7.89739 0.750002 7.20703V5.40703V5.36119V5.36118C0.749973 4.8404 0.74995 4.3766 0.781402 3.99165C0.814966 3.58084 0.890487 3.15106 1.10423 2.73156C1.41582 2.12004 1.91301 1.62285 2.52453 1.31126C2.94403 1.09752 3.37381 1.022 3.78462 0.988434C4.16956 0.956982 4.63336 0.957006 5.15413 0.957033H5.15415H5.2H7C7.69036 0.957033 8.25 1.51668 8.25 2.20703C8.25 2.89739 7.69036 3.45703 7 3.45703H5.2C4.61932 3.45703 4.25899 3.45801 3.9882 3.48013C3.73372 3.50092 3.66871 3.53409 3.65969 3.53869L3.65951 3.53878C3.51839 3.61068 3.40365 3.72542 3.33175 3.86654L3.33166 3.86672C3.32705 3.87574 3.29389 3.94075 3.2731 4.19523ZM20.5762 20.0681C20.5983 19.7973 20.5993 19.437 20.5992 18.8563L20.5993 17.0563C20.5993 16.3659 21.1589 15.8063 21.8493 15.8063C22.5396 15.8063 23.0992 16.3659 23.0992 17.0563V18.8563L23.0993 18.9021L23.0992 18.9021C23.0993 19.4229 23.0993 19.8867 23.0678 20.2717C23.0343 20.6825 22.9588 21.1122 22.745 21.5317C22.4334 22.1433 21.9362 22.6405 21.3247 22.952C20.9052 23.1658 20.4754 23.2413 20.0646 23.2749C19.6797 23.3063 19.2159 23.3063 18.6951 23.3063L18.6951 23.3063L18.6492 23.3063H16.8492C16.1589 23.3063 15.5992 22.7466 15.5993 22.0563C15.5993 21.3659 16.1589 20.8063 16.8493 20.8063H18.6492C19.2299 20.8063 19.5903 20.8053 19.8611 20.7832C20.1155 20.7624 20.1805 20.7292 20.1896 20.7246L20.1897 20.7245C20.3309 20.6526 20.4456 20.5379 20.5175 20.3968L20.5176 20.3966C20.5222 20.3876 20.5554 20.3226 20.5762 20.0681ZM10.6369 4.53034C9.03754 6.12965 8.48648 8.37995 8.98254 10.4273L3.86268 15.5472C3.39823 16.0116 3.15992 16.6558 3.2103 17.3107L3.42228 20.0664C3.47237 20.7177 4.01543 21.2206 4.6686 21.2206H7.9052L7.90797 21.2206C7.91886 21.2206 7.93929 21.2206 7.9584 21.2191C7.9822 21.2171 8.02494 21.2115 8.0714 21.1879C8.12785 21.1591 8.17374 21.1132 8.20251 21.0568C8.22618 21.0103 8.23175 20.9676 8.23369 20.9438C8.23526 20.9246 8.23522 20.9042 8.23521 20.8933L8.2352 20.8906L8.23521 19.0992H10.0265L10.0293 19.0993C10.0402 19.0993 10.0606 19.0993 10.0797 19.0977C10.1035 19.0958 10.1463 19.0902 10.1927 19.0665C10.2492 19.0378 10.2951 18.9919 10.3238 18.9354C10.3475 18.889 10.3531 18.8462 10.355 18.8224C10.3566 18.8033 10.3565 18.7829 10.3565 18.772L10.3565 18.7692V16.9779L12.1478 16.9779L12.1506 16.9779C12.1616 16.9779 12.182 16.978 12.201 16.9764C12.2248 16.9745 12.2676 16.9689 12.314 16.9452C12.3705 16.9165 12.4164 16.8706 12.4451 16.8141C12.4688 16.7677 12.4744 16.7249 12.4763 16.7011C12.4779 16.682 12.4779 16.6616 12.4778 16.6507L12.4778 16.6479L12.4778 14.8566H13.0097C15.1992 15.6135 17.7267 15.1182 19.4757 13.3692C21.9165 10.9284 21.9165 6.97111 19.4757 4.53034C17.0349 2.08956 13.0776 2.08956 10.6369 4.53034ZM17.0134 6.99243C17.7038 7.68279 17.7038 8.80207 17.0134 9.49243C16.3231 10.1828 15.2038 10.1828 14.5134 9.49243C13.8231 8.80208 13.8231 7.68279 14.5134 6.99243C15.2038 6.30208 16.3231 6.30208 17.0134 6.99243Z" fill="black"/>
</svg>
