<svg width="24" height="24" viewBox="0 0 24 24" fill="none" xmlns="http://www.w3.org/2000/svg">
<path fill-rule="evenodd" clip-rule="evenodd" d="M2.27642 4.11379C2.25019 4.43476 2.25 4.84285 2.25 5.40703L2.25 7.20703C2.25 7.3451 2.13807 7.45703 2 7.45703C1.86193 7.45703 1.75 7.3451 1.75 7.20703V5.40703V5.39572V5.39571V5.39554C1.75 4.84515 1.75 4.41674 1.77808 4.07308C1.80659 3.72411 1.86529 3.44058 1.99523 3.18555C2.21095 2.76219 2.55516 2.41798 2.97852 2.20227C3.23355 2.07232 3.51708 2.01362 3.86605 1.98511C4.20971 1.95703 4.63814 1.95703 5.18856 1.95703H5.18868H5.2H7C7.13807 1.95703 7.25 2.06896 7.25 2.20703C7.25 2.3451 7.13807 2.45703 7 2.45703L5.2 2.45703C4.63582 2.45703 4.22772 2.45723 3.90676 2.48345C3.58872 2.50944 3.37831 2.55973 3.20552 2.64777C2.87623 2.81555 2.60852 3.08326 2.44074 3.41255C2.35269 3.58534 2.3024 3.79575 2.27642 4.11379ZM21.5728 20.1495C21.5991 19.8285 21.5992 19.4204 21.5992 18.8563L21.5992 17.0563C21.5992 16.9182 21.7112 16.8063 21.8492 16.8063C21.9873 16.8063 22.0992 16.9182 22.0992 17.0563L22.0992 18.8563L22.0992 18.8676L22.0992 18.8676C22.0993 19.4181 22.0992 19.8465 22.0712 20.1902C22.0427 20.5392 21.984 20.8227 21.854 21.0777C21.6383 21.5011 21.2941 21.8453 20.8707 22.061C20.6157 22.191 20.3322 22.2497 19.9832 22.2782C19.6395 22.3063 19.211 22.3063 18.6606 22.3063H18.6492H16.8492C16.7112 22.3063 16.5992 22.1943 16.5992 22.0563C16.5992 21.9182 16.7112 21.8063 16.8492 21.8063H18.6492C19.2134 21.8063 19.6215 21.8061 19.9425 21.7799C20.2605 21.7539 20.4709 21.7036 20.6437 21.6155C20.973 21.4478 21.2407 21.18 21.4085 20.8508C21.4966 20.678 21.5468 20.4676 21.5728 20.1495ZM10.9904 4.88389C9.50804 6.36625 9.00394 8.45673 9.47927 10.3533L9.48075 10.359C9.48661 10.3812 9.50153 10.4377 9.49783 10.4957C9.49474 10.5441 9.48184 10.5907 9.45962 10.6338C9.43302 10.6854 9.39171 10.7257 9.37552 10.7415L9.37142 10.7455L4.21623 15.9007C3.85499 16.2619 3.66964 16.763 3.70882 17.2724L3.9208 20.0281C3.95086 20.4188 4.27669 20.7206 4.66859 20.7206H7.7352V19.0092L7.7352 19.0042L7.7352 19.0042V19.0041C7.73519 18.9808 7.73517 18.9504 7.7374 18.9232C7.74002 18.8911 7.74695 18.8422 7.77335 18.7903C7.80691 18.7245 7.86045 18.6709 7.92631 18.6374C7.97812 18.611 8.02703 18.6041 8.05917 18.6014C8.08635 18.5992 8.11675 18.5992 8.14008 18.5992H8.14015H8.14018L8.1452 18.5992H9.85652V16.8879L9.85652 16.8829V16.8829V16.8828C9.85651 16.8595 9.85649 16.8291 9.85872 16.8019C9.86134 16.7698 9.86827 16.7208 9.89467 16.669C9.92823 16.6032 9.98177 16.5496 10.0476 16.5161C10.0994 16.4897 10.1484 16.4827 10.1805 16.4801C10.2077 16.4779 10.2381 16.4779 10.2614 16.4779H10.2615H10.2615L10.2665 16.4779L11.9778 16.4779V14.7666L11.9778 14.7616C11.9778 14.7382 11.9778 14.7078 11.98 14.6806C11.9827 14.6484 11.9896 14.5995 12.016 14.5477C12.0495 14.4819 12.1031 14.4283 12.1689 14.3948C12.2208 14.3684 12.2697 14.3614 12.3018 14.3588C12.329 14.3566 12.3595 14.3566 12.3828 14.3566L12.3878 14.3566L13.0246 14.3566C13.0251 14.3566 13.0257 14.3566 13.0264 14.3566C13.0336 14.3566 13.0515 14.3565 13.0701 14.3584C13.0857 14.3599 13.1011 14.3625 13.1163 14.3662C13.1345 14.3705 13.1517 14.3766 13.1585 14.379L13.1603 14.3796C15.1788 15.0828 17.5101 14.6276 19.1221 13.0156C21.3676 10.7701 21.3676 7.1294 19.1221 4.88389C16.8766 2.63837 13.2359 2.63837 10.9904 4.88389ZM8.98254 10.4273C8.48648 8.37997 9.03754 6.12964 10.6369 4.53033C13.0776 2.08956 17.0349 2.08956 19.4757 4.53033C21.9165 6.97111 21.9165 10.9284 19.4757 13.3692C17.7267 15.1182 15.1992 15.6135 13.0097 14.8566H12.4778V16.5679L12.4778 16.5729C12.4779 16.5963 12.4779 16.6267 12.4757 16.654C12.473 16.6861 12.4661 16.735 12.4397 16.7868C12.4061 16.8527 12.3526 16.9062 12.2867 16.9398C12.2349 16.9662 12.186 16.9731 12.1539 16.9757C12.1267 16.978 12.0962 16.9779 12.0729 16.9779L12.0678 16.9779H10.3565V18.6892L10.3565 18.6943C10.3565 18.7176 10.3566 18.7481 10.3543 18.7753C10.3517 18.8074 10.3448 18.8563 10.3184 18.9081C10.2848 18.974 10.2313 19.0275 10.1654 19.0611C10.1136 19.0875 10.0647 19.0944 10.0326 19.0971C10.0054 19.0993 9.97495 19.0993 9.95161 19.0992H9.95154L9.94652 19.0992H8.2352V20.8106L8.23521 20.8156C8.23522 20.8389 8.23523 20.8694 8.23301 20.8966C8.23039 20.9287 8.22346 20.9776 8.19706 21.0295C8.1635 21.0953 8.10996 21.1489 8.0441 21.1824C7.99229 21.2088 7.94338 21.2157 7.91124 21.2184C7.88402 21.2206 7.85357 21.2206 7.83023 21.2206L7.8252 21.2206L4.66859 21.2206C4.01542 21.2206 3.47237 20.7177 3.42228 20.0664L3.2103 17.3107C3.15992 16.6558 3.39823 16.0116 3.86268 15.5471L8.98254 10.4273ZM14.6902 7.16921C14.0975 7.76193 14.0975 8.72293 14.6902 9.31565C15.2829 9.90838 16.2439 9.90838 16.8367 9.31565C17.4294 8.72293 17.4294 7.76193 16.8367 7.1692C16.2439 6.57648 15.2829 6.57648 14.6902 7.16921ZM14.3367 9.66921C13.5487 8.88122 13.5487 7.60364 14.3367 6.81565C15.1246 6.02766 16.4022 6.02766 17.1902 6.81565C17.9782 7.60364 17.9782 8.88122 17.1902 9.66921C16.4022 10.4572 15.1246 10.4572 14.3367 9.66921Z" fill="black"/>
</svg>
