<svg width="24" height="24" viewBox="0 0 24 24" fill="none" xmlns="http://www.w3.org/2000/svg">
<path d="M21.8496 16.3057C22.2634 16.306 22.5984 16.6419 22.5986 17.0557V18.8555C22.5986 19.4032 22.6006 19.8603 22.5703 20.2315C22.5393 20.6108 22.4712 20.9669 22.2998 21.3037C22.0362 21.8212 21.6141 22.2432 21.0967 22.5069C20.7599 22.6783 20.4037 22.7463 20.0244 22.7774C19.6533 22.8077 19.1961 22.8057 18.6484 22.8057H16.8486C16.4346 22.8055 16.0986 22.4698 16.0986 22.0557C16.0989 21.6419 16.4348 21.3069 16.8486 21.3067H18.6484C19.2205 21.3067 19.6056 21.3064 19.9014 21.2823C20.1878 21.2588 20.3255 21.216 20.416 21.1699C20.6511 21.0501 20.8431 20.8582 20.9629 20.6231C21.0089 20.5325 21.0518 20.3947 21.0752 20.1084C21.0993 19.8126 21.0996 19.4276 21.0996 18.8555V17.0557C21.0999 16.6417 21.4356 16.3057 21.8496 16.3057ZM10.2832 4.17678C12.9192 1.54093 17.1931 1.54088 19.8291 4.17678C22.4651 6.81277 22.465 11.0866 19.8291 13.7227C17.9745 15.5771 15.3103 16.1252 12.9775 15.3721V16.6494C12.9777 16.6581 12.978 16.7005 12.9746 16.7422C12.9701 16.7971 12.9568 16.9128 12.8916 17.041C12.8149 17.1916 12.6915 17.314 12.541 17.3907C12.4126 17.456 12.297 17.4701 12.2422 17.4746C12.1979 17.4782 12.1522 17.4786 12.1475 17.4785H10.8564V18.7705C10.8566 18.7789 10.8569 18.8214 10.8535 18.8633C10.849 18.9181 10.8349 19.0337 10.7695 19.1621C10.6928 19.3126 10.5704 19.436 10.4199 19.5127C10.2918 19.578 10.176 19.5912 10.1211 19.5957L10.0264 19.5996H8.73536V20.8907C8.73538 20.8942 8.73608 20.9395 8.73243 20.9844C8.72795 21.0391 8.71372 21.1549 8.64844 21.2832C8.57178 21.4337 8.44927 21.5571 8.29883 21.6338C8.17043 21.6992 8.05385 21.7123 7.99903 21.7168C7.95491 21.7204 7.91001 21.7207 7.90528 21.7207H4.66895C3.7546 21.7207 2.99401 21.0162 2.92383 20.1045L2.71094 17.3487C2.64951 16.5485 2.94139 15.7609 3.50879 15.1934L8.43653 10.2657C8.0144 8.13245 8.62821 5.83197 10.2832 4.17678ZM18.7686 5.23733C16.7184 3.18721 13.394 3.18726 11.3438 5.23733C9.98085 6.60044 9.52355 8.52724 9.97461 10.2705C9.97521 10.2728 9.98331 10.3021 9.98926 10.3321C9.99697 10.371 10.0082 10.4444 10.0029 10.5352C9.9964 10.6461 9.96671 10.7547 9.91602 10.8535C9.87485 10.9338 9.82763 10.9903 9.80079 11.0205C9.78815 11.0347 9.77741 11.0467 9.77149 11.0528L4.56934 16.2549C4.31184 16.5128 4.1802 16.8701 4.20801 17.2334L4.41993 19.9893C4.42993 20.1193 4.53766 20.2194 4.66797 20.2198H7.23438L7.23536 18.9297C7.23535 18.9281 7.23453 18.8809 7.23829 18.835C7.24278 18.7802 7.25692 18.6645 7.32227 18.5362C7.37976 18.4233 7.46301 18.3258 7.56446 18.252L7.67188 18.1856L7.76563 18.1465C7.85493 18.1148 7.93061 18.1059 7.97168 18.1026C8.01286 18.0992 8.05434 18.0995 8.06348 18.0996H8.06543L9.35547 18.0987L9.35645 16.8086C9.35645 16.807 9.35565 16.7598 9.35938 16.7139C9.36387 16.6591 9.37813 16.5433 9.44336 16.4151C9.50082 16.3023 9.58419 16.2047 9.68555 16.1309L9.79395 16.0645L9.88672 16.0254C9.9761 15.9936 10.0517 15.9848 10.0928 15.9815C10.1346 15.9781 10.1772 15.9784 10.1856 15.9785H10.1865L11.4766 15.9776L11.4775 14.6865C11.4775 14.6818 11.4779 14.6369 11.4814 14.5928C11.4859 14.538 11.4991 14.4214 11.5645 14.293C11.6219 14.1804 11.7054 14.0835 11.8066 14.0098L11.915 13.9434L12.0078 13.9043C12.0972 13.8725 12.1728 13.8628 12.2139 13.8594C12.2558 13.856 12.2983 13.8564 12.3066 13.8565H13.0596L13.125 13.8604L13.2314 13.878L13.2939 13.8965C13.2972 13.8976 13.3002 13.8987 13.3027 13.8994C13.3047 13.9 13.3065 13.901 13.3076 13.9014L13.3135 13.9033L13.6631 14.0127C15.4245 14.4956 17.3865 14.044 18.7686 12.6621C20.8187 10.6119 20.8188 7.28753 18.7686 5.23733ZM14.5137 6.99221C15.204 6.30201 16.3234 6.30191 17.0137 6.99221C17.704 7.68252 17.7039 8.80185 17.0137 9.49221C16.3233 10.1826 15.204 10.1826 14.5137 9.49221C13.8233 8.80186 13.8233 7.68257 14.5137 6.99221ZM7 1.45706C7.41406 1.45716 7.74989 1.793 7.75 2.20706C7.74985 2.62108 7.41403 2.95696 7 2.95706H5.2002C4.62804 2.95706 4.24308 2.95634 3.94727 2.98049C3.66055 3.00393 3.52317 3.04769 3.43262 3.09378C3.1976 3.21359 3.00653 3.40465 2.88672 3.63967C2.84061 3.7302 2.7969 3.8675 2.77344 4.15432C2.74929 4.45014 2.75 4.83508 2.75 5.40725V7.20706C2.74993 7.62113 2.41406 7.95693 2 7.95706C1.58586 7.95703 1.25008 7.62119 1.25 7.20706V5.40725C1.25 4.85982 1.24901 4.40328 1.2793 4.03225C1.31034 3.65267 1.37817 3.29604 1.54981 2.95901C1.81346 2.44161 2.23454 2.0205 2.75196 1.75686C3.08903 1.58521 3.44556 1.51641 3.8252 1.48538C4.19622 1.45509 4.6528 1.45706 5.2002 1.45706H7Z" fill="black"/>
</svg>
