<svg width="24" height="24" viewBox="0 0 24 24" fill="none" xmlns="http://www.w3.org/2000/svg">
<path d="M21.8496 16.3057C22.2634 16.306 22.5984 16.6419 22.5986 17.0557V18.8555C22.5986 19.4032 22.6006 19.8603 22.5703 20.2315C22.5393 20.6108 22.4712 20.9669 22.2998 21.3037C22.0362 21.8212 21.6141 22.2432 21.0967 22.5069C20.7599 22.6783 20.4037 22.7463 20.0244 22.7774C19.6533 22.8077 19.1961 22.8057 18.6484 22.8057H16.8486C16.4346 22.8055 16.0986 22.4698 16.0986 22.0557C16.0989 21.6419 16.4348 21.3069 16.8486 21.3067H18.6484C19.2205 21.3067 19.6056 21.3064 19.9014 21.2823C20.1878 21.2588 20.3255 21.216 20.416 21.1699C20.6511 21.0501 20.8431 20.8582 20.9629 20.6231C21.0089 20.5325 21.0518 20.3947 21.0752 20.1084C21.0993 19.8126 21.0996 19.4276 21.0996 18.8555V17.0557C21.0999 16.6417 21.4356 16.3057 21.8496 16.3057ZM10.6367 4.5303C13.0775 2.08977 17.0349 2.08968 19.4756 4.5303C21.9163 6.971 21.9162 10.9284 19.4756 13.3692C17.7275 15.117 15.2023 15.6116 13.0137 14.8565H12.4775V16.6563C12.4777 16.6678 12.4779 16.6851 12.4766 16.7012C12.4746 16.725 12.4689 16.7681 12.4453 16.8145C12.4165 16.8708 12.3698 16.9166 12.3135 16.9453C12.2674 16.9687 12.2249 16.9746 12.2012 16.9766C12.1829 16.9781 12.1626 16.9786 12.1514 16.9785H10.3564V18.7783C10.3567 18.7898 10.3567 18.8065 10.3555 18.8223C10.3535 18.846 10.3477 18.8893 10.3242 18.9356C10.2954 18.9919 10.2487 19.0387 10.1924 19.0674C10.1464 19.0907 10.1038 19.0957 10.0801 19.0977C10.0617 19.0992 10.0416 19.0997 10.0303 19.0996H8.23536V20.8994C8.23556 20.911 8.23568 20.9284 8.23438 20.9444C8.23239 20.9683 8.22565 21.0115 8.20215 21.0576C8.17336 21.1137 8.12746 21.1599 8.07129 21.1885C8.02529 21.2119 7.98282 21.2178 7.95899 21.2198C7.94074 21.2212 7.92052 21.2208 7.90918 21.2207H4.66895C4.01587 21.2207 3.47206 20.7176 3.42188 20.0664L3.21094 17.3106C3.16072 16.6561 3.39833 16.0122 3.86231 15.5479L8.98438 10.4248C8.48915 8.37812 9.03813 6.1291 10.6367 4.5303ZM17.0137 6.99221C16.3234 6.30194 15.2041 6.3021 14.5137 6.99221C13.8233 7.68257 13.8233 8.80186 14.5137 9.49221C15.204 10.1826 16.3233 10.1826 17.0137 9.49221C17.7038 8.80184 17.704 7.68249 17.0137 6.99221ZM7 1.45706C7.41406 1.45716 7.74989 1.793 7.75 2.20706C7.74985 2.62108 7.41403 2.95696 7 2.95706H5.2002C4.62804 2.95706 4.24308 2.95634 3.94727 2.98049C3.66055 3.00393 3.52317 3.04769 3.43262 3.09378C3.1976 3.21359 3.00653 3.40465 2.88672 3.63967C2.84061 3.7302 2.7969 3.8675 2.77344 4.15432C2.74929 4.45014 2.75 4.83508 2.75 5.40725V7.20706C2.74993 7.62113 2.41406 7.95693 2 7.95706C1.58586 7.95703 1.25008 7.62119 1.25 7.20706V5.40725C1.25 4.85982 1.24901 4.40328 1.2793 4.03225C1.31034 3.65267 1.37817 3.29604 1.54981 2.95901C1.81346 2.44161 2.23454 2.0205 2.75196 1.75686C3.08903 1.58521 3.44556 1.51641 3.8252 1.48538C4.19622 1.45509 4.6528 1.45706 5.2002 1.45706H7Z" fill="black"/>
</svg>
