<svg width="24" height="24" viewBox="0 0 24 24" fill="none" xmlns="http://www.w3.org/2000/svg">
<path d="M21.8496 15.8057C22.5395 15.806 23.0983 16.3658 23.0986 17.0557V18.8555C23.0986 19.3946 23.1007 19.8754 23.0684 20.2715C23.0348 20.6819 22.9585 21.1121 22.7451 21.5313C22.4336 22.1426 21.9356 22.6406 21.3242 22.9522C20.905 23.1656 20.475 23.2418 20.0645 23.2754C19.6683 23.3077 19.1877 23.3057 18.6484 23.3057H16.8486C16.1586 23.3054 15.5989 22.7467 15.5986 22.0566C15.5987 21.3664 16.1585 20.8069 16.8486 20.8066H18.6484C19.2291 20.8066 19.5905 20.8053 19.8613 20.7832C20.1149 20.7625 20.1812 20.7293 20.1904 20.7246C20.3309 20.6528 20.4458 20.538 20.5176 20.3975C20.5223 20.3882 20.5554 20.322 20.5762 20.0684C20.5983 19.7976 20.5986 19.4368 20.5986 18.8564L20.5996 17.0557C20.5999 16.3656 21.1594 15.8057 21.8496 15.8057ZM10.6367 4.53028C13.0775 2.08974 17.0349 2.08965 19.4756 4.53028C21.9163 6.97098 21.9162 10.9284 19.4756 13.3691C17.7275 15.117 15.2023 15.6116 13.0137 14.8564H12.4775V16.6563C12.4777 16.6678 12.4779 16.6851 12.4766 16.7012C12.4746 16.725 12.4689 16.7681 12.4453 16.8145C12.4165 16.8707 12.3698 16.9166 12.3135 16.9453C12.2674 16.9687 12.2249 16.9746 12.2012 16.9766C12.1829 16.9781 12.1626 16.9786 12.1514 16.9785H10.3564V18.7783C10.3567 18.7898 10.3567 18.8065 10.3555 18.8223C10.3535 18.846 10.3477 18.8893 10.3242 18.9356C10.2955 18.9918 10.2487 19.0387 10.1924 19.0674C10.1464 19.0907 10.1038 19.0957 10.0801 19.0977C10.0617 19.0992 10.0416 19.0997 10.0303 19.0996H8.23536V20.8994C8.23556 20.9109 8.23568 20.9284 8.23438 20.9443C8.23239 20.9682 8.22565 21.0115 8.20215 21.0576C8.17336 21.1137 8.12746 21.1599 8.07129 21.1885C8.02529 21.2118 7.98282 21.2178 7.95899 21.2197C7.94074 21.2212 7.92052 21.2207 7.90918 21.2207H4.66895C4.01587 21.2207 3.47206 20.7175 3.42188 20.0664L3.21094 17.3106C3.16072 16.6561 3.39833 16.0122 3.86231 15.5479L8.98438 10.4248C8.48915 8.3781 9.03813 6.12907 10.6367 4.53028ZM17.0137 6.99219C16.3234 6.30192 15.2041 6.30208 14.5137 6.99219C13.8233 7.68255 13.8233 8.80184 14.5137 9.49219C15.204 10.1825 16.3233 10.1825 17.0137 9.49219C17.7038 8.80182 17.704 7.68247 17.0137 6.99219ZM7 0.957036C7.69019 0.957149 8.24989 1.51685 8.25 2.20704C8.24987 2.8972 7.69018 3.45692 7 3.45704H5.19922C4.61904 3.45704 4.25798 3.45836 3.98731 3.48047C3.73414 3.50121 3.66848 3.53432 3.65918 3.53907C3.5185 3.61087 3.40388 3.72556 3.33204 3.86622C3.32729 3.87549 3.29419 3.94127 3.27344 4.19434C3.25132 4.4651 3.25 4.8267 3.25 5.40723V7.20704C3.24995 7.89726 2.69021 8.45689 2 8.45704C1.30971 8.45701 0.75006 7.89733 0.750005 7.20704V5.40723C0.750004 4.86791 0.748892 4.38737 0.781255 3.99122C0.814832 3.58062 0.890915 3.15072 1.1045 2.73145C1.41602 2.12028 1.91325 1.62305 2.52442 1.31153C2.94365 1.09801 3.37364 1.02186 3.78418 0.988286C4.18032 0.955934 4.66093 0.957036 5.2002 0.957036H7Z" fill="black"/>
</svg>
