<svg width="24" height="24" viewBox="0 0 24 24" fill="none" xmlns="http://www.w3.org/2000/svg">
<path fill-rule="evenodd" clip-rule="evenodd" d="M2.52559 4.13415C2.50039 4.44257 2.5 4.83873 2.5 5.40703L2.5 7.20703C2.5 7.48317 2.27614 7.70703 2 7.70703C1.72386 7.70703 1.5 7.48317 1.5 7.20703V5.40703V5.38563C1.49999 4.84374 1.49999 4.40666 1.52891 4.05272C1.55868 3.6883 1.62159 3.3682 1.77248 3.07206C2.01217 2.60165 2.39462 2.2192 2.86502 1.97952C3.16117 1.82862 3.48126 1.76572 3.84569 1.73594C4.19963 1.70702 4.6367 1.70703 5.17859 1.70703H5.17861H5.2H7C7.27614 1.70703 7.5 1.93089 7.5 2.20703C7.5 2.48317 7.27614 2.70703 7 2.70703H5.2C4.6317 2.70703 4.23554 2.70742 3.92712 2.73262C3.62454 2.75734 3.45069 2.80343 3.31901 2.87052C3.03677 3.01433 2.8073 3.2438 2.66349 3.52605C2.5964 3.65772 2.55031 3.83157 2.52559 4.13415ZM21.3237 20.1292C21.3489 19.8207 21.3492 19.4246 21.3492 18.8563V17.0563C21.3492 16.7801 21.5731 16.5563 21.8492 16.5563C22.1254 16.5563 22.3492 16.7801 22.3492 17.0563V18.8563V18.8777C22.3493 19.4196 22.3493 19.8566 22.3203 20.2106C22.2906 20.575 22.2277 20.8951 22.0768 21.1912C21.8371 21.6616 21.4546 22.0441 20.9842 22.2838C20.6881 22.4347 20.368 22.4976 20.0036 22.5274C19.6496 22.5563 19.2125 22.5563 18.6706 22.5563L18.6492 22.5563L16.8492 22.5563C16.5731 22.5563 16.3492 22.3324 16.3492 22.0563C16.3492 21.7801 16.5731 21.5563 16.8492 21.5563H18.6492C19.2176 21.5563 19.6137 21.5559 19.9221 21.5307C20.2247 21.506 20.3986 21.4599 20.5302 21.3928C20.8125 21.249 21.0419 21.0195 21.1858 20.7373C21.2529 20.6056 21.2989 20.4317 21.3237 20.1292ZM11.1672 5.06066C9.74949 6.47836 9.26692 8.47765 9.72177 10.2925L9.72259 10.2958C9.72584 10.3087 9.73237 10.3346 9.73716 10.3597C9.7433 10.3918 9.75153 10.4456 9.74732 10.5116C9.74204 10.5944 9.71984 10.6747 9.68181 10.7484C9.65193 10.8064 9.61783 10.8479 9.59564 10.8728C9.57858 10.892 9.55965 10.9109 9.55049 10.92L9.5482 10.9223L4.39301 16.0775C4.08338 16.3871 3.9245 16.8166 3.95809 17.2532L4.17007 20.0089C4.1901 20.2694 4.40733 20.4706 4.66859 20.4706H7.4852L7.4852 19.0092L7.4852 19.0037C7.48517 18.9819 7.4851 18.9411 7.48823 18.9028C7.49212 18.8553 7.50325 18.7698 7.5506 18.6769C7.60812 18.564 7.69991 18.4722 7.81281 18.4146C7.90574 18.3673 7.99121 18.3562 8.03881 18.3523C8.07703 18.3491 8.11786 18.3492 8.13966 18.3492L8.1452 18.3492H9.60652V16.8879L9.60652 16.8824C9.60649 16.8606 9.60642 16.8197 9.60955 16.7815C9.61343 16.7339 9.62457 16.6485 9.67192 16.5555C9.72944 16.4426 9.82123 16.3508 9.93413 16.2933C10.0271 16.246 10.1125 16.2348 10.1601 16.2309C10.1983 16.2278 10.2392 16.2279 10.261 16.2279L10.2665 16.2279H11.7278V14.7666L11.7278 14.7611V14.761V14.761C11.7278 14.7392 11.7277 14.6984 11.7309 14.6602C11.7348 14.6126 11.7459 14.5271 11.7932 14.4342C11.8508 14.3213 11.9426 14.2295 12.0554 14.172C12.1484 14.1247 12.2339 14.1135 12.2814 14.1096C12.3196 14.1065 12.3605 14.1066 12.3823 14.1066H12.3823L12.3878 14.1066H13.0246L13.0248 14.1066C13.0278 14.1066 13.0608 14.1062 13.0952 14.1096C13.122 14.1123 13.1483 14.1168 13.1745 14.123C13.2084 14.1311 13.2399 14.1426 13.2423 14.1435L13.2425 14.1435C15.1739 14.8163 17.4037 14.3805 18.9454 12.8388C21.0932 10.691 21.0932 7.20855 18.9454 5.06066C16.7975 2.91278 13.3151 2.91278 11.1672 5.06066ZM8.70779 10.3485C8.24899 8.25723 8.83239 5.98124 10.4601 4.35356C12.9985 1.81515 17.1141 1.81515 19.6525 4.35356C22.1909 6.89196 22.1909 11.0075 19.6525 13.5459C17.8439 15.3545 15.2354 15.8738 12.9681 15.1066H12.7278V16.5679L12.7279 16.5735C12.7279 16.5953 12.7279 16.6361 12.7248 16.6743C12.7209 16.7219 12.7098 16.8074 12.6624 16.9003C12.6049 17.0132 12.5131 17.105 12.4002 17.1625C12.3073 17.2099 12.2218 17.221 12.1742 17.2249C12.136 17.228 12.0952 17.228 12.0734 17.2279L12.0678 17.2279H10.6065V18.6892L10.6065 18.6948C10.6066 18.7166 10.6066 18.7574 10.6035 18.7956C10.5996 18.8432 10.5885 18.9287 10.5411 19.0216C10.4836 19.1345 10.3918 19.2263 10.2789 19.2838C10.186 19.3312 10.1005 19.3423 10.0529 19.3462C10.0147 19.3493 9.97387 19.3493 9.95208 19.3493L9.94652 19.3492H8.4852L8.4852 20.8106L8.48521 20.8161L8.48521 20.8161C8.48524 20.8379 8.4853 20.8788 8.48218 20.917C8.47829 20.9646 8.46716 21.05 8.41981 21.143C8.36228 21.2559 8.2705 21.3476 8.1576 21.4052C8.06467 21.4525 7.9792 21.4637 7.9316 21.4675C7.89339 21.4707 7.85257 21.4706 7.83077 21.4706L7.83076 21.4706L7.8252 21.4706L4.66859 21.4706C3.88479 21.4706 3.23313 20.8671 3.17301 20.0856L2.96103 17.3299C2.90506 16.6022 3.16985 15.8864 3.6859 15.3704L8.70779 10.3485ZM14.867 7.34598C14.3719 7.84108 14.3719 8.64378 14.867 9.13888C15.3621 9.63397 16.1648 9.63397 16.6599 9.13888C17.155 8.64378 17.155 7.84108 16.6599 7.34598C16.1648 6.85089 15.3621 6.85089 14.867 7.34598ZM14.1599 9.84598C13.2743 8.96036 13.2743 7.52449 14.1599 6.63888C15.0455 5.75326 16.4814 5.75326 17.367 6.63888C18.2526 7.52449 18.2526 8.96036 17.367 9.84598C16.4814 10.7316 15.0455 10.7316 14.1599 9.84598Z" fill="black"/>
</svg>
