<svg width="24" height="24" viewBox="0 0 24 24" fill="none" xmlns="http://www.w3.org/2000/svg">
<path d="M21.8496 16.5566C22.1255 16.5569 22.3496 16.7807 22.3496 17.0566V18.8564C22.3496 19.4081 22.3486 19.8524 22.3193 20.2109C22.2896 20.5753 22.227 20.8953 22.0762 21.1914C21.8365 21.6616 21.4546 22.0446 20.9844 22.2842C20.6884 22.4349 20.3681 22.4976 20.0039 22.5273C19.6454 22.5566 19.2011 22.5566 18.6494 22.5566H16.8496C16.5736 22.5565 16.3497 22.3326 16.3496 22.0566C16.3497 21.7807 16.5736 21.5568 16.8496 21.5566H18.6494C19.2177 21.5566 19.6154 21.5564 19.9238 21.5312C20.2252 21.5065 20.3988 21.4604 20.5303 21.3936C20.8122 21.2499 21.0427 21.0202 21.1865 20.7383C21.2535 20.6067 21.2995 20.4318 21.3242 20.1299C21.3494 19.8216 21.3496 19.4244 21.3496 18.8564L21.3506 17.0566C21.3506 16.7807 21.5737 16.5569 21.8496 16.5566ZM10.6367 4.53125C13.0775 2.09047 17.0348 2.09047 19.4756 4.53125C21.9161 6.97197 21.9161 10.9284 19.4756 13.3691C17.7275 15.117 15.2023 15.6125 13.0137 14.8574H12.4775V16.7012C12.4756 16.725 12.4689 16.7681 12.4453 16.8145C12.4166 16.8707 12.3707 16.9176 12.3145 16.9463C12.2683 16.9697 12.225 16.9746 12.2012 16.9766C12.1832 16.978 12.1637 16.9786 12.1523 16.9785H10.3564V18.7783C10.3567 18.7898 10.3568 18.8073 10.3555 18.8232C10.3535 18.8471 10.3475 18.8896 10.3242 18.9355C10.2954 18.9918 10.2487 19.0387 10.1924 19.0674C10.1464 19.0907 10.1038 19.0967 10.0801 19.0986C10.0618 19.1001 10.0415 19.0996 10.0303 19.0996H8.23535V20.8994C8.23556 20.9109 8.23569 20.9283 8.23438 20.9443C8.2324 20.9682 8.22668 21.0114 8.20312 21.0576C8.17435 21.1139 8.12761 21.1598 8.07129 21.1885C8.0252 21.2119 7.98276 21.2178 7.95898 21.2197C7.94063 21.2212 7.92048 21.2207 7.90918 21.2207H4.66895C4.01589 21.2206 3.47196 20.7176 3.42188 20.0664L3.21094 17.3115C3.16058 16.6569 3.39823 16.0123 3.8623 15.5479L8.98535 10.4248C8.49016 8.37821 9.03834 6.13003 10.6367 4.53125ZM17.0137 6.99219C16.3234 6.30212 15.204 6.30214 14.5137 6.99219C13.8234 7.68248 13.8235 8.80182 14.5137 9.49219C15.204 10.1825 16.3233 10.1825 17.0137 9.49219C17.7038 8.80181 17.7039 7.68246 17.0137 6.99219ZM7.00098 1.70703C7.27667 1.7074 7.50076 1.9313 7.50098 2.20703C7.50098 2.48295 7.27681 2.70667 7.00098 2.70703L5.2002 2.70801C4.63221 2.70801 4.23508 2.70724 3.92676 2.73242C3.62498 2.75713 3.45085 2.80417 3.31934 2.87109C3.03731 3.01492 2.80682 3.24526 2.66309 3.52734C2.59633 3.65879 2.55104 3.83246 2.52637 4.13379C2.50117 4.44221 2.50098 4.8399 2.50098 5.4082V7.20801C2.50067 7.48366 2.27662 7.70667 2.00098 7.70703C1.72502 7.70703 1.50128 7.48389 1.50098 7.20801L1.5 5.40723C1.5 4.85563 1.50001 4.41123 1.5293 4.05273C1.55908 3.68856 1.62169 3.36824 1.77246 3.07227C2.01207 2.60211 2.39511 2.22013 2.86523 1.98047C3.16123 1.82969 3.4815 1.76709 3.8457 1.7373C4.20416 1.70802 4.64867 1.70703 5.2002 1.70703H7.00098Z" fill="black"/>
</svg>
