<svg width="24" height="24" viewBox="0 0 24 24" fill="none" xmlns="http://www.w3.org/2000/svg">
<path fill-rule="evenodd" clip-rule="evenodd" d="M3.2731 4.19523C3.25097 4.46602 3.25 4.82635 3.25 5.40703V7.20703C3.25 7.89739 2.69036 8.45703 2 8.45703C1.30965 8.45703 0.750002 7.89739 0.750002 7.20703V5.40703V5.36119V5.36118C0.749973 4.8404 0.74995 4.3766 0.781401 3.99165C0.814966 3.58084 0.890486 3.15106 1.10423 2.73156C1.41582 2.12004 1.91301 1.62285 2.52453 1.31126C2.94403 1.09752 3.37381 1.022 3.78462 0.988433C4.16956 0.956982 4.63336 0.957006 5.15413 0.957033H5.15415H5.2H7C7.69036 0.957033 8.25 1.51668 8.25 2.20703C8.25 2.89739 7.69036 3.45703 7 3.45703H5.2C4.61932 3.45703 4.25899 3.45801 3.9882 3.48013C3.73372 3.50092 3.66871 3.53408 3.65968 3.53869L3.65951 3.53878C3.51839 3.61068 3.40365 3.72542 3.33175 3.86654L3.33166 3.86672C3.32705 3.87574 3.29389 3.94075 3.2731 4.19523ZM20.5762 20.0681C20.5983 19.7973 20.5993 19.437 20.5992 18.8563L20.5993 17.0563C20.5993 16.3659 21.1589 15.8063 21.8493 15.8063C22.5396 15.8063 23.0992 16.3659 23.0992 17.0563V18.8563L23.0993 18.9021L23.0992 18.9021C23.0993 19.4229 23.0993 19.8867 23.0678 20.2717C23.0343 20.6825 22.9588 21.1122 22.745 21.5317C22.4334 22.1433 21.9362 22.6405 21.3247 22.952C20.9052 23.1658 20.4754 23.2413 20.0646 23.2749C19.6797 23.3063 19.2159 23.3063 18.6951 23.3063H18.6951L18.6492 23.3063H16.8492C16.1589 23.3063 15.5992 22.7466 15.5993 22.0563C15.5993 21.3659 16.1589 20.8063 16.8493 20.8063L18.6492 20.8063C19.2299 20.8063 19.5903 20.8053 19.8611 20.7832C20.1155 20.7624 20.1805 20.7292 20.1896 20.7246L20.1897 20.7245C20.3309 20.6526 20.4456 20.5379 20.5175 20.3968L20.5176 20.3966C20.5222 20.3876 20.5554 20.3226 20.5762 20.0681ZM11.6975 5.591C10.4738 6.81468 10.0558 8.54039 10.4493 10.1102L10.4496 10.1114C10.4518 10.12 10.4643 10.1691 10.4738 10.2188C10.4862 10.2836 10.5056 10.4061 10.4958 10.5594C10.4839 10.7455 10.4339 10.9265 10.3484 11.0922C10.2791 11.2266 10.2009 11.3209 10.1557 11.3717C10.1215 11.4101 10.0851 11.4462 10.0793 11.4519L10.0785 11.4526L4.92334 16.6078C4.76852 16.7626 4.68909 16.9774 4.70588 17.1957L4.9001 19.7206H6.73521V19.0092L6.73519 19.0066C6.7351 18.9904 6.73469 18.9155 6.74072 18.8418C6.7484 18.7478 6.77215 18.5526 6.88235 18.3364C7.01178 18.0823 7.2183 17.8758 7.47232 17.7464C7.6886 17.6362 7.88376 17.6124 7.97774 17.6048C8.05148 17.5987 8.12637 17.5991 8.14255 17.5992L8.14521 17.5992H8.85653V16.8879L8.85651 16.8853C8.85643 16.8691 8.85601 16.7942 8.86204 16.7205C8.86972 16.6265 8.89347 16.4313 9.00367 16.215C9.1331 15.961 9.33962 15.7545 9.59364 15.6251C9.80992 15.5149 10.0051 15.4911 10.0991 15.4834C10.1728 15.4774 10.2477 15.4778 10.2639 15.4779L10.2665 15.4779H10.9778V14.7666L10.9778 14.7639C10.9777 14.7477 10.9773 14.6729 10.9834 14.5991C10.991 14.5052 11.0148 14.31 11.125 14.0937C11.2544 13.8397 11.4609 13.6332 11.715 13.5037C11.9312 13.3935 12.1264 13.3698 12.2204 13.3621C12.2941 13.3561 12.369 13.3565 12.3852 13.3566L12.3878 13.3566L13.0246 13.3566C13.0251 13.3566 13.0432 13.3565 13.0616 13.3569C13.0849 13.3574 13.1234 13.3587 13.1705 13.3634C13.2306 13.3695 13.2901 13.3795 13.3488 13.3936C13.3957 13.4048 13.4328 13.4164 13.4545 13.4235C13.4708 13.4288 13.4869 13.4345 13.489 13.4352L13.4892 13.4353C15.1593 14.017 17.0845 13.6391 18.415 12.3085C20.27 10.4535 20.27 7.44599 18.415 5.591C16.56 3.736 13.5525 3.736 11.6975 5.591ZM7.89741 10.0982C7.54399 7.8839 8.21997 5.53301 9.92975 3.82323C12.7611 0.991927 17.3515 0.991927 20.1828 3.82323C23.0141 6.65453 23.0141 11.245 20.1828 14.0763C18.3619 15.8972 15.8147 16.5455 13.4778 16.0266V16.5679L13.4779 16.5706C13.4779 16.5868 13.4784 16.6617 13.4723 16.7354C13.4647 16.8294 13.4409 17.0245 13.3307 17.2408C13.2013 17.4948 12.9948 17.7014 12.7407 17.8308C12.5245 17.941 12.3293 17.9647 12.2353 17.9724C12.1616 17.9784 12.0867 17.978 12.0705 17.9779H12.0705L12.0678 17.9779H11.3565V18.6892L11.3565 18.6919L11.3565 18.6919C11.3566 18.7081 11.357 18.783 11.351 18.8567C11.3433 18.9507 11.3196 19.1459 11.2094 19.3621C11.08 19.6162 10.8734 19.8227 10.6194 19.9521C10.4031 20.0623 10.208 20.0861 10.114 20.0937C10.0403 20.0998 9.96542 20.0993 9.9492 20.0993H9.94917L9.94653 20.0992H9.23521V20.8106L9.23522 20.8132C9.23531 20.8294 9.23572 20.9043 9.22969 20.978C9.22201 21.072 9.19826 21.2672 9.08806 21.4835C8.95864 21.7375 8.75211 21.944 8.49809 22.0734C8.28181 22.1836 8.08665 22.2074 7.99268 22.2151C7.919 22.2211 7.84418 22.2207 7.82789 22.2206H7.82785L7.82521 22.2206L4.6686 22.2206C3.49289 22.2206 2.5154 21.3154 2.42522 20.1431L2.21324 17.3874C2.14048 16.4414 2.4847 15.5109 3.15557 14.84L7.89741 10.0982ZM17.0134 6.99243C17.7038 7.68279 17.7038 8.80208 17.0134 9.49243C16.3231 10.1828 15.2038 10.1828 14.5134 9.49243C13.8231 8.80208 13.8231 7.68279 14.5134 6.99243C15.2038 6.30208 16.3231 6.30208 17.0134 6.99243Z" fill="black"/>
</svg>
