<svg width="24" height="24" viewBox="0 0 24 24" fill="none" xmlns="http://www.w3.org/2000/svg">
<path d="M21.8486 16.8057C21.9865 16.8058 22.0985 16.9178 22.0986 17.0557L22.0977 18.8555C22.0977 19.4111 22.0986 19.8435 22.0703 20.1895C22.0418 20.5383 21.9824 20.8222 21.8525 21.0771C21.6368 21.5003 21.2924 21.8449 20.8691 22.0605C20.6144 22.1902 20.331 22.2489 19.9824 22.2773C19.6365 22.3056 19.2041 22.3057 18.6484 22.3057H16.8486C16.7106 22.3057 16.5987 22.1936 16.5986 22.0557C16.5987 21.9176 16.7106 21.8057 16.8486 21.8057H18.6484C19.2117 21.8057 19.6197 21.8054 19.9404 21.7793C20.2583 21.7533 20.4708 21.7032 20.6436 21.6152C20.9724 21.4475 21.2405 21.1795 21.4082 20.8506C21.4962 20.6778 21.5463 20.4663 21.5723 20.1484C21.5984 19.8276 21.5977 19.4192 21.5977 18.8555L21.5986 17.0557C21.5987 16.9177 21.7107 16.8058 21.8486 16.8057ZM10.6357 4.53027C13.0765 2.0895 17.0338 2.0895 19.4746 4.53027C21.9152 6.97107 21.9153 10.9284 19.4746 13.3691C17.7259 15.1175 15.1989 15.6128 13.0098 14.8564H12.4766V16.5674C12.4766 16.5912 12.477 16.6243 12.4746 16.6533C12.472 16.6855 12.4648 16.7345 12.4385 16.7861C12.405 16.8518 12.3518 16.905 12.2861 16.9385C12.2345 16.9648 12.1855 16.9729 12.1533 16.9756C12.1243 16.9779 12.0912 16.9766 12.0674 16.9766L10.3555 16.9775V18.6885C10.3555 18.7122 10.3559 18.7453 10.3535 18.7744C10.3509 18.8065 10.3436 18.8557 10.3174 18.9072C10.2839 18.9728 10.2306 19.026 10.165 19.0596C10.1132 19.086 10.0634 19.0941 10.0313 19.0967C10.0024 19.099 9.96996 19.0977 9.94629 19.0977L8.23438 19.0986V20.8096C8.23438 20.8334 8.23481 20.8673 8.23242 20.8965C8.22976 20.9285 8.22235 20.977 8.19629 21.0283C8.16281 21.094 8.10955 21.1481 8.04395 21.1816C7.99213 21.208 7.94229 21.2151 7.91016 21.2178C7.88111 21.2201 7.84798 21.2197 7.82422 21.2197H4.66797C4.01492 21.2196 3.47099 20.7166 3.4209 20.0654L3.20996 17.3105C3.1596 16.6559 3.39725 16.0113 3.86133 15.5469L8.9834 10.4248C8.48792 8.37805 9.03718 6.12923 10.6357 4.53027ZM19.1211 4.88379C16.8756 2.63827 13.2348 2.63827 10.9893 4.88379C9.50735 6.36609 9.0033 8.45622 9.47852 10.3525C9.48267 10.3691 9.50108 10.4314 9.49707 10.4951C9.49394 10.5432 9.48104 10.5899 9.45898 10.6328C9.42977 10.6894 9.38301 10.7332 9.37109 10.7451L4.21484 15.9004C3.854 16.2616 3.66888 16.7624 3.70801 17.2715L3.91992 20.0273C3.95007 20.4179 4.27627 20.7196 4.66797 20.7197H7.7334L7.73535 19.0078C7.73534 18.9841 7.73401 18.9517 7.73633 18.9229C7.73895 18.8907 7.74606 18.8409 7.77246 18.7891L7.80176 18.7422C7.82318 18.7128 7.84953 18.6874 7.87891 18.666L7.92578 18.6367L7.99902 18.6094C8.02138 18.6041 8.04167 18.6019 8.05762 18.6006C8.0868 18.5982 8.12066 18.5986 8.14453 18.5986L9.85449 18.5977L9.85645 16.8867C9.85644 16.8631 9.85512 16.8306 9.85742 16.8018C9.86005 16.7696 9.86813 16.7198 9.89453 16.668L9.92285 16.6211C9.94428 16.5917 9.9706 16.5654 10 16.5439L10.0469 16.5156L10.1211 16.4883C10.1435 16.483 10.1638 16.4808 10.1797 16.4795C10.2088 16.4771 10.2418 16.4775 10.2656 16.4775L11.9766 16.4766L11.9775 14.7656C11.9775 14.7418 11.9762 14.7088 11.9785 14.6797C11.9812 14.6476 11.9893 14.5985 12.0156 14.5469L12.0449 14.5C12.0664 14.4706 12.0917 14.4443 12.1211 14.4229L12.168 14.3945L12.2422 14.3672C12.2647 14.3619 12.2848 14.3597 12.3008 14.3584C12.3298 14.356 12.3629 14.3564 12.3867 14.3564H13.0234C13.0288 14.3564 13.049 14.3554 13.0693 14.3574L13.1152 14.3652L13.1602 14.3789C15.1784 15.0817 17.5093 14.6263 19.1211 13.0146C21.3663 10.7692 21.3663 7.12925 19.1211 4.88379ZM14.3359 6.81543C15.1239 6.02763 16.4015 6.02762 17.1895 6.81543C17.977 7.6034 17.9772 8.88108 17.1895 9.66895C16.4016 10.4564 15.1238 10.4564 14.3359 9.66895C13.5482 8.88109 13.5484 7.60341 14.3359 6.81543ZM16.8359 7.16895C16.2432 6.5764 15.2821 6.57641 14.6895 7.16895C14.0972 7.76166 14.097 8.72283 14.6895 9.31543C15.2821 9.90761 16.2433 9.9076 16.8359 9.31543C17.4284 8.72283 17.4282 7.76166 16.8359 7.16895ZM7 1.95605C7.13765 1.95646 7.24988 2.06834 7.25 2.20605C7.25 2.34387 7.13772 2.45565 7 2.45605L5.19922 2.45703C4.63552 2.45703 4.22708 2.45723 3.90625 2.4834C3.5885 2.50939 3.3768 2.55851 3.2041 2.64648C2.87523 2.81416 2.60816 3.0823 2.44043 3.41113C2.35239 3.58393 2.30138 3.79621 2.27539 4.11426C2.24927 4.43495 2.24902 4.84302 2.24902 5.40625V7.20605C2.24902 7.34407 2.13702 7.45597 1.99902 7.45605C1.86113 7.45585 1.74902 7.344 1.74902 7.20605V5.40625C1.74902 4.85068 1.7491 4.41817 1.77734 4.07227C1.80584 3.72379 1.8645 3.44031 1.99414 3.18555C2.20977 2.76234 2.55439 2.41788 2.97754 2.20215C3.23251 2.07225 3.51638 2.01289 3.86523 1.98438C4.21121 1.95612 4.64348 1.95703 5.19922 1.95703L7 1.95605Z" fill="black"/>
</svg>
