<svg width="24" height="24" viewBox="0 0 24 24" fill="none" xmlns="http://www.w3.org/2000/svg">
<path fill-rule="evenodd" clip-rule="evenodd" d="M15.9997 5.74998C14.757 5.74998 13.7497 6.75734 13.7497 7.99998C13.7497 9.24262 14.757 10.25 15.9997 10.25C17.2423 10.25 18.2496 9.24262 18.2496 7.99998C18.2496 6.75734 17.2423 5.74998 15.9997 5.74998ZM14.2497 7.99998C14.2497 7.03348 15.0332 6.24998 15.9997 6.24998C16.9661 6.24998 17.7497 7.03348 17.7497 7.99998C17.7497 8.96648 16.9661 9.74998 15.9997 9.74998C15.0332 9.74998 14.2497 8.96648 14.2497 7.99998Z" fill="black"/>
<path fill-rule="evenodd" clip-rule="evenodd" d="M19.6521 2.12502C20.9087 2.18486 21.9139 3.19007 21.9737 4.44665L22.1821 8.82182C22.239 10.0179 21.7888 11.1825 20.9421 12.0292L11.351 21.6203C10.3979 22.5733 8.85269 22.5733 7.89962 21.6203L2.47847 16.1991C1.52541 15.2461 1.5254 13.7008 2.47847 12.7478L12.0696 3.15667C12.9163 2.30997 14.0809 1.85973 15.2769 1.91668L19.6521 2.12502ZM21.4743 4.47044C21.4267 3.4713 20.6274 2.67203 19.6283 2.62446L15.2531 2.41612C14.1978 2.36586 13.1702 2.76313 12.4231 3.51022L2.83202 13.1013C2.07422 13.8591 2.07422 15.0878 2.83203 15.8456L8.25318 21.2667C9.01098 22.0245 10.2396 22.0245 10.9974 21.2667L20.5885 11.6756C21.3356 10.9285 21.7329 9.90095 21.6826 8.8456L21.4743 4.47044Z" fill="black"/>
</svg>
