<svg width="24" height="24" viewBox="0 0 24 24" fill="none" xmlns="http://www.w3.org/2000/svg">
<path fill-rule="evenodd" clip-rule="evenodd" d="M16 4.75023C14.2051 4.75023 12.75 6.2053 12.75 8.00023C12.75 9.79515 14.2051 11.2502 16 11.2502C17.7949 11.2502 19.25 9.79515 19.25 8.00023C19.25 6.2053 17.7949 4.75023 16 4.75023ZM15.25 8.00023C15.25 7.58601 15.5858 7.25023 16 7.25023C16.4142 7.25023 16.75 7.58601 16.75 8.00023C16.75 8.41444 16.4142 8.75023 16 8.75023C15.5858 8.75023 15.25 8.41444 15.25 8.00023Z" fill="black"/>
<path fill-rule="evenodd" clip-rule="evenodd" d="M19.7 1.1264C21.4715 1.21076 22.8886 2.62786 22.9729 4.39933L23.1813 8.7745C23.2516 10.252 22.6955 11.6906 21.6495 12.7365L12.0585 22.3276C10.7149 23.6712 8.53647 23.6712 7.19288 22.3276L1.77173 16.9065C0.428143 15.5629 0.428139 13.3845 1.77173 12.0409L11.3628 2.44981C12.4087 1.40388 13.8474 0.847703 15.3248 0.918059L19.7 1.1264ZM20.4758 4.51825C20.4527 4.034 20.0653 3.64663 19.5811 3.62357L15.2059 3.41523C14.432 3.37838 13.6785 3.66971 13.1306 4.21757L3.5395 13.8087C3.17222 14.1759 3.17222 14.7714 3.5395 15.1387L8.96065 20.5599C9.32793 20.9271 9.9234 20.9271 10.2907 20.5599L19.8818 10.9688C20.4296 10.4209 20.721 9.66733 20.6841 8.89341L20.4758 4.51825Z" fill="black"/>
</svg>
