<svg width="24" height="24" viewBox="0 0 24 24" fill="none" xmlns="http://www.w3.org/2000/svg">
<path fill-rule="evenodd" clip-rule="evenodd" d="M15.9996 5.49998C14.6189 5.49998 13.4996 6.61927 13.4996 7.99998C13.4996 9.38069 14.6189 10.5 15.9996 10.5C17.3804 10.5 18.4996 9.38069 18.4996 7.99998C18.4996 6.61927 17.3804 5.49998 15.9996 5.49998ZM14.4996 7.99998C14.4996 7.17155 15.1712 6.49998 15.9996 6.49998C16.8281 6.49998 17.4996 7.17155 17.4996 7.99998C17.4996 8.82841 16.8281 9.49998 15.9996 9.49998C15.1712 9.49998 14.4996 8.82841 14.4996 7.99998Z" fill="black"/>
<path fill-rule="evenodd" clip-rule="evenodd" d="M19.664 1.87531C21.0493 1.94127 22.1575 3.04946 22.2234 4.43476L22.4318 8.80993C22.4921 10.0763 22.0154 11.3094 21.1188 12.2059L11.5278 21.797C10.4771 22.8477 8.77354 22.8477 7.72285 21.797L2.3017 16.3759C1.251 15.3252 1.251 13.6217 2.30169 12.571L11.8928 2.97989C12.7893 2.08338 14.0224 1.60666 15.2888 1.66697L19.664 1.87531ZM21.2246 4.48233C21.1831 3.61192 20.4868 2.91562 19.6164 2.87417L15.2412 2.66583C14.2563 2.61893 13.2972 2.98971 12.5999 3.687L3.0088 13.2781C2.34863 13.9383 2.34863 15.0086 3.0088 15.6688L8.42995 21.0899C9.09012 21.7501 10.1605 21.7501 10.8206 21.0899L20.4117 11.4988C21.109 10.8016 21.4798 9.84248 21.4329 8.85749L21.2246 4.48233Z" fill="black"/>
</svg>
