<svg width="24" height="24" viewBox="0 0 24 24" fill="none" xmlns="http://www.w3.org/2000/svg">
<path fill-rule="evenodd" clip-rule="evenodd" d="M16 5.75022C14.7574 5.75022 13.75 6.75758 13.75 8.00023C13.75 9.24287 14.7574 10.2502 16 10.2502C17.2427 10.2502 18.25 9.24287 18.25 8.00023C18.25 6.75758 17.2427 5.75022 16 5.75022ZM14.25 8.00023C14.25 7.03373 15.0335 6.25023 16 6.25023C16.9665 6.25023 17.75 7.03373 17.75 8.00023C17.75 8.96672 16.9665 9.75023 16 9.75023C15.0335 9.75023 14.25 8.96672 14.25 8.00023Z" fill="black"/>
<path fill-rule="evenodd" clip-rule="evenodd" d="M19.6524 2.12527C20.909 2.1851 21.9142 3.19032 21.9741 4.4469L22.1824 8.82206C22.2394 10.0181 21.7891 11.1827 20.9424 12.0294L11.3513 21.6205C10.3983 22.5736 8.85305 22.5736 7.89999 21.6205L2.47884 16.1994C1.52577 15.2463 1.52577 13.7011 2.47884 12.748L12.0699 3.15691C12.9166 2.31021 14.0812 1.85997 15.2773 1.91693L19.6524 2.12527ZM21.4746 4.47068C21.4271 3.47154 20.6278 2.67228 19.6287 2.6247L15.2535 2.41636C14.1982 2.36611 13.1706 2.76338 12.4235 3.51047L2.83239 13.1016C2.07459 13.8594 2.07459 15.088 2.83239 15.8458L8.25354 21.267C9.01135 22.0248 10.24 22.0248 10.9978 21.267L20.5889 11.6759C21.336 10.9288 21.7332 9.90119 21.683 8.84584L21.4746 4.47068Z" fill="black"/>
</svg>
