<svg width="24" height="24" viewBox="0 0 24 24" fill="none" xmlns="http://www.w3.org/2000/svg">
<path fill-rule="evenodd" clip-rule="evenodd" d="M15.2654 2.16664C14.1397 2.11304 13.0436 2.53679 12.2467 3.33369L2.65561 12.9248C1.80018 13.7802 1.80018 15.1672 2.65561 16.0226L8.07677 21.4437C8.9322 22.2992 10.3191 22.2992 11.1746 21.4437L20.7657 11.8526C21.5626 11.0557 21.9863 9.95966 21.9327 8.83395L21.7244 4.45879C21.6707 3.33093 20.7684 2.42869 19.6406 2.37498L15.2654 2.16664ZM15.9998 9.50023C16.8282 9.50023 17.4998 8.82865 17.4998 8.00023C17.4998 7.1718 16.8282 6.50023 15.9998 6.50023C15.1713 6.50023 14.4998 7.1718 14.4998 8.00023C14.4998 8.82865 15.1713 9.50023 15.9998 9.50023Z" fill="black"/>
</svg>
