<svg width="24" height="24" viewBox="0 0 24 24" fill="none" xmlns="http://www.w3.org/2000/svg">
<path fill-rule="evenodd" clip-rule="evenodd" d="M15.265 2.1664C14.1393 2.11279 13.0432 2.53655 12.2463 3.33344L2.65525 12.9245C1.79981 13.78 1.79981 15.1669 2.65525 16.0223L8.0764 21.4435C8.93183 22.2989 10.3188 22.2989 11.1742 21.4435L20.7653 11.8524C21.5622 11.0555 21.9859 9.95941 21.9323 8.83371L21.724 4.45855C21.6703 3.33069 20.768 2.42845 19.6402 2.37474L15.265 2.1664ZM15.9994 9.49998C16.8278 9.49998 17.4994 8.82841 17.4994 7.99998C17.4994 7.17155 16.8278 6.49998 15.9994 6.49998C15.171 6.49998 14.4994 7.17155 14.4994 7.99998C14.4994 8.82841 15.171 9.49998 15.9994 9.49998Z" fill="black"/>
</svg>
