<svg width="24" height="24" viewBox="0 0 24 24" fill="none" xmlns="http://www.w3.org/2000/svg">
<path fill-rule="evenodd" clip-rule="evenodd" d="M16 5.00023C14.3432 5.00023 13 6.34337 13 8.00023C13 9.65708 14.3432 11.0002 16 11.0002C17.6569 11.0002 19 9.65708 19 8.00023C19 6.34337 17.6569 5.00023 16 5.00023ZM15 8.00023C15 7.44794 15.4477 7.00023 16 7.00023C16.5523 7.00023 17 7.44794 17 8.00023C17 8.55251 16.5523 9.00023 16 9.00023C15.4477 9.00023 15 8.55251 15 8.00023Z" fill="black"/>
<path fill-rule="evenodd" clip-rule="evenodd" d="M19.6881 1.37612C21.3309 1.45434 22.645 2.76847 22.7232 4.41123L22.9316 8.78639C22.9986 10.1935 22.4689 11.5636 21.4728 12.5597L11.8817 22.1508C10.6357 23.3968 8.61562 23.3968 7.36966 22.1508L1.94851 16.7297C0.70255 15.4837 0.702547 13.4636 1.9485 12.2177L11.5396 2.62658C12.5357 1.63046 13.9058 1.10077 15.313 1.16778L19.6881 1.37612ZM20.7255 4.50636C20.6963 3.89339 20.206 3.40304 19.593 3.37385L15.2178 3.16551C14.3735 3.12531 13.5515 3.44313 12.9538 4.0408L3.36272 13.6319C2.89781 14.0968 2.89781 14.8506 3.36272 15.3155L8.78387 20.7366C9.24878 21.2015 10.0026 21.2015 10.4675 20.7366L20.0586 11.1455C20.6562 10.5479 20.974 9.7258 20.9338 8.88152L20.7255 4.50636Z" fill="black"/>
</svg>
