<svg width="24" height="24" viewBox="0 0 24 24" fill="none" xmlns="http://www.w3.org/2000/svg">
<path fill-rule="evenodd" clip-rule="evenodd" d="M15.9997 4.99998C14.3428 4.99998 12.9997 6.34313 12.9997 7.99998C12.9997 9.65684 14.3428 11 15.9997 11C17.6565 11 18.9996 9.65684 18.9996 7.99998C18.9996 6.34313 17.6565 4.99998 15.9997 4.99998ZM14.9997 7.99998C14.9997 7.4477 15.4474 6.99998 15.9997 6.99998C16.5519 6.99998 16.9997 7.4477 16.9997 7.99998C16.9997 8.55227 16.5519 8.99998 15.9997 8.99998C15.4474 8.99998 14.9997 8.55227 14.9997 7.99998Z" fill="black"/>
<path fill-rule="evenodd" clip-rule="evenodd" d="M19.6878 1.37587C21.3305 1.4541 22.6446 2.76823 22.7229 4.41098L22.9312 8.78615C22.9982 10.1933 22.4685 11.5634 21.4724 12.5595L11.8813 22.1506C10.6354 23.3966 8.61525 23.3966 7.36929 22.1506L1.94814 16.7294C0.702184 15.4835 0.70218 13.4634 1.94814 12.2174L11.5392 2.62634C12.5354 1.63022 13.9055 1.10053 15.3126 1.16753L19.6878 1.37587ZM20.7251 4.50611C20.6959 3.89314 20.2056 3.4028 19.5926 3.37361L15.2175 3.16527C14.3732 3.12506 13.5511 3.44288 12.9534 4.04055L3.36235 13.6316C2.89745 14.0966 2.89745 14.8503 3.36236 15.3152L8.78351 20.7364C9.24842 21.2013 10.0022 21.2013 10.4671 20.7364L20.0582 11.1453C20.6559 10.5476 20.9737 9.72555 20.9335 8.88128L20.7251 4.50611Z" fill="black"/>
</svg>
