<svg width="24" height="24" viewBox="0 0 24 24" fill="none" xmlns="http://www.w3.org/2000/svg">
<path fill-rule="evenodd" clip-rule="evenodd" d="M15.2654 2.16664C14.1397 2.11304 13.0436 2.53679 12.2467 3.33369L2.65561 12.9248C1.80018 13.7802 1.80018 15.1672 2.65561 16.0226L8.07677 21.4437C8.9322 22.2992 10.3191 22.2992 11.1746 21.4437L20.7657 11.8526C21.5626 11.0557 21.9863 9.95966 21.9327 8.83395L21.7244 4.45879C21.6707 3.33093 20.7684 2.42869 19.6406 2.37498L15.2654 2.16664ZM15.9997 10.2502C17.2424 10.2502 18.2497 9.24286 18.2497 8.00022C18.2497 6.75758 17.2424 5.75022 15.9997 5.75022C14.7571 5.75022 13.7497 6.75758 13.7497 8.00022C13.7497 9.24286 14.7571 10.2502 15.9997 10.2502Z" fill="black"/>
</svg>
