<svg width="24" height="24" viewBox="0 0 24 24" fill="none" xmlns="http://www.w3.org/2000/svg">
<path d="M8.37427 3.1875C8.37427 2.42811 8.98988 1.8125 9.74927 1.8125H14.2493C15.0087 1.8125 15.6243 2.42811 15.6243 3.1875V5.69164C15.6243 5.73139 15.6271 5.7709 15.6325 5.81H8.366C8.37146 5.7709 8.37427 5.73139 8.37427 5.69164V3.1875Z" fill="black"/>
<path fill-rule="evenodd" clip-rule="evenodd" d="M7.51766 6.81C5.97898 8.09373 4.99927 10.0262 4.99927 12.1875C4.99927 16.0535 8.13327 19.1875 11.9993 19.1875C15.8653 19.1875 18.9993 16.0535 18.9993 12.1875C18.9993 10.0262 18.0196 8.09373 16.4809 6.81H7.51766ZM12.4793 9.28125C12.4793 9.00511 12.2554 8.78125 11.9793 8.78125C11.7031 8.78125 11.4793 9.00511 11.4793 9.28125V13.2812C11.4793 13.5574 11.7031 13.7812 11.9793 13.7812C12.2554 13.7812 12.4793 13.5574 12.4793 13.2812V9.28125ZM11.9993 16.2188C12.4135 16.2188 12.7493 15.883 12.7493 15.4688C12.7493 15.0545 12.4135 14.7188 11.9993 14.7188C11.5851 14.7188 11.2493 15.0545 11.2493 15.4688C11.2493 15.883 11.5851 16.2188 11.9993 16.2188Z" fill="black"/>
<path d="M19.8528 4.85355C20.048 4.65829 20.048 4.34171 19.8528 4.14645C19.6575 3.95118 19.3409 3.95118 19.1457 4.14645L18.1457 5.14645C17.9504 5.34171 17.9504 5.65829 18.1457 5.85355C18.3409 6.04882 18.6575 6.04882 18.8528 5.85355L19.8528 4.85355Z" fill="black"/>
<path d="M22.6059 12.5C22.882 12.5 23.1059 12.2761 23.1059 12C23.1059 11.7238 22.882 11.5 22.6059 11.5H21.1916C20.9155 11.5 20.6916 11.7238 20.6916 12C20.6916 12.2761 20.9155 12.5 21.1916 12.5H22.6059Z" fill="black"/>
<path d="M19.8528 19.8536C19.6575 20.0488 19.3409 20.0488 19.1457 19.8536L18.1457 18.8536C17.9504 18.6583 17.9504 18.3417 18.1457 18.1464C18.3409 17.9512 18.6575 17.9512 18.8528 18.1464L19.8528 19.1464C20.048 19.3417 20.048 19.6583 19.8528 19.8536Z" fill="black"/>
<path d="M11.4993 22.6065C11.4993 22.8827 11.7231 23.1065 11.9993 23.1065C12.2754 23.1065 12.4993 22.8827 12.4993 22.6065V21.1923C12.4993 20.9162 12.2754 20.6923 11.9993 20.6923C11.7231 20.6923 11.4993 20.9162 11.4993 21.1923V22.6065Z" fill="black"/>
<path d="M4.14567 19.8536C3.95041 19.6583 3.95041 19.3417 4.14567 19.1464L5.14567 18.1464C5.34093 17.9512 5.65751 17.9512 5.85277 18.1464C6.04804 18.3417 6.04804 18.6583 5.85277 18.8536L4.85277 19.8536C4.65751 20.0488 4.34093 20.0488 4.14567 19.8536Z" fill="black"/>
<path d="M1.39258 11.4999C1.11644 11.4999 0.892578 11.7238 0.892578 11.9999C0.892578 12.2761 1.11644 12.4999 1.39258 12.4999H2.80679C3.08293 12.4999 3.30679 12.2761 3.30679 11.9999C3.30679 11.7238 3.08293 11.4999 2.80679 11.4999H1.39258Z" fill="black"/>
<path d="M4.14567 4.14645C4.34093 3.95118 4.65751 3.95118 4.85277 4.14645L5.85277 5.14645C6.04804 5.34171 6.04804 5.65829 5.85277 5.85355C5.65751 6.04882 5.34093 6.04882 5.14567 5.85355L4.14567 4.85355C3.95041 4.65829 3.95041 4.34171 4.14567 4.14645Z" fill="black"/>
</svg>
