<svg width="24" height="24" viewBox="0 0 24 24" fill="none" xmlns="http://www.w3.org/2000/svg">
<path d="M8.37427 3.1875C8.37427 2.42811 8.98988 1.8125 9.74927 1.8125H14.2493C15.0087 1.8125 15.6243 2.42811 15.6243 3.1875V5.69164C15.6243 5.81882 15.653 5.94362 15.7058 6.06H8.29276C8.34557 5.94362 8.37427 5.81882 8.37427 5.69164V3.1875Z" fill="black"/>
<path fill-rule="evenodd" clip-rule="evenodd" d="M7.83547 6.56C6.11514 7.83492 4.99927 9.88089 4.99927 12.1875C4.99927 16.0535 8.13327 19.1875 11.9993 19.1875C15.8653 19.1875 18.9993 16.0535 18.9993 12.1875C18.9993 9.88089 17.8834 7.83492 16.1631 6.56H7.83547ZM12.2493 9.375C12.2493 9.23693 12.1373 9.125 11.9993 9.125C11.8612 9.125 11.7493 9.23693 11.7493 9.375V13.875C11.7493 14.0131 11.8612 14.125 11.9993 14.125C12.1373 14.125 12.2493 14.0131 12.2493 13.875V9.375ZM11.9993 15.875C12.2754 15.875 12.4993 15.6511 12.4993 15.375C12.4993 15.0989 12.2754 14.875 11.9993 14.875C11.7231 14.875 11.4993 15.0989 11.4993 15.375C11.4993 15.6511 11.7231 15.875 11.9993 15.875Z" fill="black"/>
<path d="M19.676 4.67678C19.7736 4.57915 19.7736 4.42085 19.676 4.32322C19.5784 4.22559 19.4201 4.22559 19.3224 4.32322L18.3224 5.32322C18.2248 5.42085 18.2248 5.57915 18.3224 5.67678C18.4201 5.77441 18.5784 5.77441 18.676 5.67678L19.676 4.67678Z" fill="black"/>
<path d="M22.6059 12.25C22.7439 12.25 22.8559 12.138 22.8559 12C22.8559 11.8619 22.7439 11.75 22.6059 11.75H21.1916C21.0536 11.75 20.9416 11.8619 20.9416 12C20.9416 12.138 21.0536 12.25 21.1916 12.25H22.6059Z" fill="black"/>
<path d="M19.676 19.6768C19.5784 19.7744 19.4201 19.7744 19.3224 19.6768L18.3224 18.6768C18.2248 18.5791 18.2248 18.4209 18.3224 18.3232C18.4201 18.2256 18.5784 18.2256 18.676 18.3232L19.676 19.3232C19.7736 19.4209 19.7736 19.5791 19.676 19.6768Z" fill="black"/>
<path d="M11.7493 22.6065C11.7493 22.7446 11.8612 22.8565 11.9993 22.8565C12.1373 22.8565 12.2493 22.7446 12.2493 22.6065V21.1923C12.2493 21.0542 12.1373 20.9423 11.9993 20.9423C11.8612 20.9423 11.7493 21.0542 11.7493 21.1923V22.6065Z" fill="black"/>
<path d="M4.32244 19.6768C4.22481 19.5791 4.22481 19.4209 4.32244 19.3232L5.32244 18.3232C5.42008 18.2256 5.57837 18.2256 5.676 18.3232C5.77363 18.4209 5.77363 18.5791 5.676 18.6768L4.676 19.6768C4.57837 19.7744 4.42008 19.7744 4.32244 19.6768Z" fill="black"/>
<path d="M1.39258 11.7499C1.25451 11.7499 1.14258 11.8619 1.14258 11.9999C1.14258 12.138 1.25451 12.2499 1.39258 12.2499H2.80679C2.94486 12.2499 3.05679 12.138 3.05679 11.9999C3.05679 11.8619 2.94486 11.7499 2.80679 11.7499H1.39258Z" fill="black"/>
<path d="M4.32244 4.32322C4.42008 4.22559 4.57837 4.22559 4.676 4.32322L5.676 5.32322C5.77363 5.42085 5.77363 5.57915 5.676 5.67678C5.57837 5.77441 5.42007 5.77441 5.32244 5.67678L4.32244 4.67678C4.22481 4.57915 4.22481 4.42085 4.32244 4.32322Z" fill="black"/>
</svg>
