<svg width="24" height="24" viewBox="0 0 24 24" fill="none" xmlns="http://www.w3.org/2000/svg">
<path d="M8.375 3.1875C8.375 2.42811 8.99061 1.8125 9.75 1.8125H14.25C15.0094 1.8125 15.625 2.42811 15.625 3.1875V5.56H8.375V3.1875Z" fill="black"/>
<path fill-rule="evenodd" clip-rule="evenodd" d="M7.23461 7.06C5.86027 8.3379 5 10.1622 5 12.1875C5 16.0535 8.13401 19.1875 12 19.1875C15.866 19.1875 19 16.0535 19 12.1875C19 10.1622 18.1397 8.3379 16.7654 7.06H7.23461ZM12.75 9.5625C12.75 9.14829 12.4142 8.8125 12 8.8125C11.5858 8.8125 11.25 9.14829 11.25 9.5625V13.0625C11.25 13.4767 11.5858 13.8125 12 13.8125C12.4142 13.8125 12.75 13.4767 12.75 13.0625V9.5625ZM12 16.1875C12.4832 16.1875 12.875 15.7957 12.875 15.3125C12.875 14.8293 12.4832 14.4375 12 14.4375C11.5168 14.4375 11.125 14.8293 11.125 15.3125C11.125 15.7957 11.5168 16.1875 12 16.1875Z" fill="black"/>
<path d="M20.0303 5.03033C20.3232 4.73744 20.3232 4.26256 20.0303 3.96967C19.7374 3.67678 19.2625 3.67678 18.9696 3.96967L17.9696 4.96967C17.6767 5.26256 17.6767 5.73744 17.9696 6.03033C18.2625 6.32322 18.7374 6.32322 19.0303 6.03033L20.0303 5.03033Z" fill="black"/>
<path d="M22.6066 12.75C23.0208 12.75 23.3566 12.4142 23.3566 12C23.3566 11.5857 23.0208 11.25 22.6066 11.25H21.1924C20.7782 11.25 20.4424 11.5857 20.4424 12C20.4424 12.4142 20.7782 12.75 21.1924 12.75H22.6066Z" fill="black"/>
<path d="M20.0303 20.0303C19.7374 20.3232 19.2625 20.3232 18.9696 20.0303L17.9696 19.0303C17.6767 18.7374 17.6767 18.2626 17.9696 17.9697C18.2625 17.6768 18.7374 17.6768 19.0303 17.9697L20.0303 18.9697C20.3232 19.2626 20.3232 19.7374 20.0303 20.0303Z" fill="black"/>
<path d="M11.25 22.6065C11.25 23.0207 11.5858 23.3565 12 23.3565C12.4142 23.3565 12.75 23.0207 12.75 22.6065V21.1923C12.75 20.7781 12.4142 20.4423 12 20.4423C11.5858 20.4423 11.25 20.7781 11.25 21.1923V22.6065Z" fill="black"/>
<path d="M3.96962 20.0303C3.67673 19.7374 3.67673 19.2626 3.96962 18.9697L4.96962 17.9697C5.26252 17.6768 5.73739 17.6768 6.03028 17.9697C6.32318 18.2626 6.32318 18.7374 6.03028 19.0303L5.03028 20.0303C4.73739 20.3232 4.26252 20.3232 3.96962 20.0303Z" fill="black"/>
<path d="M1.39331 11.2499C0.979097 11.2499 0.643311 11.5857 0.643311 11.9999C0.643311 12.4141 0.979097 12.7499 1.39331 12.7499H2.80752C3.22174 12.7499 3.55752 12.4141 3.55752 11.9999C3.55752 11.5857 3.22174 11.2499 2.80752 11.2499H1.39331Z" fill="black"/>
<path d="M3.96962 3.96967C4.26252 3.67678 4.73739 3.67678 5.03028 3.96967L6.03028 4.96967C6.32318 5.26256 6.32318 5.73744 6.03028 6.03033C5.73739 6.32322 5.26252 6.32322 4.96962 6.03033L3.96962 5.03033C3.67673 4.73744 3.67673 4.26256 3.96962 3.96967Z" fill="black"/>
</svg>
