<svg width="24" height="24" viewBox="0 0 24 24" fill="none" xmlns="http://www.w3.org/2000/svg">
<path d="M9 8.5C9 6.84315 10.3431 5.5 12 5.5C12.5523 5.5 13 5.05228 13 4.5C13 3.94772 12.5523 3.5 12 3.5C9.23858 3.5 7 5.73858 7 8.5C7 9.05228 7.44771 9.5 8 9.5C8.55229 9.5 9 9.05228 9 8.5Z" fill="black"/>
<path fill-rule="evenodd" clip-rule="evenodd" d="M4 8.5C4 4.08172 7.58172 0.5 12 0.5C16.4183 0.5 20 4.08172 20 8.5V8.86805C20 10.4498 19.5517 11.9992 18.707 13.3365L17.4147 15.3827C17.3377 15.5047 17.2709 15.6321 17.2149 15.7637C17.1973 15.8281 17.1735 15.8899 17.1441 15.9484C17.0491 16.2263 17 16.5194 17 16.816V18.7857C17 20.0648 16.1153 21.1372 14.9244 21.4244C14.6372 22.6153 13.5648 23.5 12.2857 23.5H11.7143C10.4352 23.5 9.3628 22.6153 9.07558 21.4244C7.88471 21.1372 7 20.0648 7 18.7857V16.816C7 16.5194 6.95086 16.2263 6.8559 15.9484C6.82652 15.8899 6.8027 15.8281 6.78515 15.7637C6.72906 15.6321 6.66231 15.5047 6.58529 15.3827L5.29296 13.3365C4.44831 11.9992 4 10.4498 4 8.86805V8.5ZM15 16.816C15 16.7103 15.0036 16.605 15.0107 16.5H8.98933C8.99643 16.605 9 16.7103 9 16.816V17H15V16.816ZM15.7237 14.3147C15.6852 14.3757 15.6482 14.4375 15.6126 14.5H8.38738C8.35183 14.4375 8.31478 14.3757 8.27627 14.3147L6.98393 12.2685C6.34116 11.2508 6 10.0718 6 8.86805V8.5C6 5.18629 8.68629 2.5 12 2.5C15.3137 2.5 18 5.18629 18 8.5V8.86805C18 10.0718 17.6588 11.2508 17.0161 12.2685L15.7237 14.3147ZM14.2857 19.5C14.6055 19.5 14.8763 19.2898 14.9673 19H9.0327C9.12372 19.2898 9.39445 19.5 9.71429 19.5L9.73326 19.5001L9.75 19.5H14.25L14.2667 19.5001L14.2857 19.5Z" fill="black"/>
</svg>
