<svg width="24" height="24" viewBox="0 0 24 24" fill="none" xmlns="http://www.w3.org/2000/svg">
<path d="M8.375 3.1875C8.375 2.42811 8.99061 1.8125 9.75 1.8125H14.25C15.0094 1.8125 15.625 2.42811 15.625 3.1875V5.435H8.375V3.1875Z" fill="black"/>
<path fill-rule="evenodd" clip-rule="evenodd" d="M7.10359 7.185C5.80581 8.45547 5 10.2274 5 12.1875C5 16.0535 8.13401 19.1875 12 19.1875C15.866 19.1875 19 16.0535 19 12.1875C19 10.2274 18.1942 8.45547 16.8964 7.185H7.10359ZM12.8438 9.14062C12.8438 8.65738 12.452 8.26562 11.9688 8.26562C11.4855 8.26562 11.0938 8.65738 11.0938 9.14062V13.1406C11.0938 13.6239 11.4855 14.0156 11.9688 14.0156C12.452 14.0156 12.8438 13.6239 12.8438 13.1406V9.14062ZM12 16.7344C12.5523 16.7344 13 16.2867 13 15.7344C13 15.1821 12.5523 14.7344 12 14.7344C11.4477 14.7344 11 15.1821 11 15.7344C11 16.2867 11.4477 16.7344 12 16.7344Z" fill="black"/>
<path d="M20.2071 5.20711C20.5976 4.81658 20.5976 4.18342 20.2071 3.79289C19.8165 3.40237 19.1834 3.40237 18.7928 3.79289L17.7928 4.79289C17.4023 5.18342 17.4023 5.81658 17.7928 6.20711C18.1834 6.59763 18.8165 6.59763 19.2071 6.20711L20.2071 5.20711Z" fill="black"/>
<path d="M22.6066 13C23.1589 13 23.6066 12.5522 23.6066 12C23.6066 11.4477 23.1589 11 22.6066 11H21.1924C20.6401 11 20.1924 11.4477 20.1924 12C20.1924 12.5522 20.6401 13 21.1924 13H22.6066Z" fill="black"/>
<path d="M20.2071 20.2071C19.8165 20.5976 19.1834 20.5976 18.7928 20.2071L17.7928 19.2071C17.4023 18.8166 17.4023 18.1834 17.7928 17.7929C18.1834 17.4024 18.8165 17.4024 19.2071 17.7929L20.2071 18.7929C20.5976 19.1834 20.5976 19.8166 20.2071 20.2071Z" fill="black"/>
<path d="M11 22.6065C11 23.1588 11.4477 23.6065 12 23.6065C12.5523 23.6065 13 23.1588 13 22.6065V21.1923C13 20.64 12.5523 20.1923 12 20.1923C11.4477 20.1923 11 20.64 11 21.1923V22.6065Z" fill="black"/>
<path d="M3.79285 20.2071C3.40232 19.8166 3.40232 19.1834 3.79285 18.7929L4.79285 17.7929C5.18337 17.4024 5.81654 17.4024 6.20706 17.7929C6.59758 18.1834 6.59758 18.8166 6.20706 19.2071L5.20706 20.2071C4.81654 20.5976 4.18337 20.5976 3.79285 20.2071Z" fill="black"/>
<path d="M1.39331 10.9999C0.841026 10.9999 0.393311 11.4476 0.393311 11.9999C0.393311 12.5522 0.841026 12.9999 1.39331 12.9999H2.80752C3.35981 12.9999 3.80752 12.5522 3.80752 11.9999C3.80752 11.4476 3.35981 10.9999 2.80752 10.9999H1.39331Z" fill="black"/>
<path d="M3.79285 3.79289C4.18337 3.40237 4.81654 3.40237 5.20706 3.79289L6.20706 4.79289C6.59758 5.18342 6.59758 5.81658 6.20706 6.20711C5.81654 6.59763 5.18337 6.59763 4.79285 6.20711L3.79285 5.20711C3.40232 4.81658 3.40232 4.18342 3.79285 3.79289Z" fill="black"/>
</svg>
