<svg width="24" height="24" viewBox="0 0 24 24" fill="none" xmlns="http://www.w3.org/2000/svg">
<path fill-rule="evenodd" clip-rule="evenodd" d="M4.5 8.86805C4.5 10.328 4.90617 11.7585 5.67229 13H18.3277C19.0938 11.7585 19.5 10.328 19.5 8.86805V8.5C19.5 4.35786 16.1421 1 12 1C7.85786 1 4.5 4.35786 4.5 8.5V8.86805ZM12 5.25C10.2051 5.25 8.75 6.70507 8.75 8.5C8.75 8.91421 8.41421 9.25 8 9.25C7.58579 9.25 7.25 8.91421 7.25 8.5C7.25 5.87665 9.37665 3.75 12 3.75C12.4142 3.75 12.75 4.08579 12.75 4.5C12.75 4.91421 12.4142 5.25 12 5.25Z" fill="black"/>
<path fill-rule="evenodd" clip-rule="evenodd" d="M5.73214 14.5H18.268L17.6261 15.5162C17.3804 15.9052 17.25 16.3559 17.25 16.816V18.7857C17.25 20.1301 16.3551 21.2654 15.1285 21.6285C14.7654 22.8551 13.6301 23.75 12.2858 23.75H11.7143C10.37 23.75 9.23465 22.8551 8.87157 21.6285C7.64497 21.2654 6.75005 20.1301 6.75005 18.7857V16.816C6.75005 16.3559 6.61965 15.9052 6.37396 15.5162L5.73214 14.5ZM14.75 17V18.7857C14.75 19.0421 14.5422 19.25 14.2858 19.25L14.267 19.2501L14.25 19.25H9.75002L9.7331 19.2501L9.71433 19.25C9.45791 19.25 9.25005 19.0421 9.25005 18.7857V17H14.75Z" fill="black"/>
</svg>
