<svg width="24" height="24" viewBox="0 0 24 24" fill="none" xmlns="http://www.w3.org/2000/svg">
<path d="M8.37427 3.1875C8.37427 2.42811 8.98988 1.8125 9.74927 1.8125H14.2493C15.0087 1.8125 15.6243 2.42811 15.6243 3.1875V5.31H8.37427V3.1875Z" fill="black"/>
<path fill-rule="evenodd" clip-rule="evenodd" d="M6.97833 7.31C5.75373 8.57043 4.99927 10.2909 4.99927 12.1875C4.99927 16.0535 8.13327 19.1875 11.9993 19.1875C15.8653 19.1875 18.9993 16.0535 18.9993 12.1875C18.9993 10.29 18.2441 8.56886 17.0185 7.30827C16.9989 7.30941 16.9791 7.31 16.9592 7.31H6.97833ZM12.9993 9.125C12.9993 8.57272 12.5516 8.125 11.9993 8.125C11.447 8.125 10.9993 8.57272 10.9993 9.125V12.625C10.9993 13.1773 11.447 13.625 11.9993 13.625C12.5516 13.625 12.9993 13.1773 12.9993 12.625V9.125ZM11.9993 16.875C12.6206 16.875 13.1243 16.3713 13.1243 15.75C13.1243 15.1287 12.6206 14.625 11.9993 14.625C11.3779 14.625 10.8743 15.1287 10.8743 15.75C10.8743 16.3713 11.3779 16.875 11.9993 16.875Z" fill="black"/>
<path d="M20.2063 5.20711C20.5969 4.81658 20.5969 4.18342 20.2063 3.79289C19.8158 3.40237 19.1826 3.40237 18.7921 3.79289L17.7921 4.79289C17.4016 5.18342 17.4016 5.81658 17.7921 6.20711C18.1826 6.59763 18.8158 6.59763 19.2063 6.20711L20.2063 5.20711Z" fill="black"/>
<path d="M22.6059 13C23.1581 13 23.6059 12.5522 23.6059 12C23.6059 11.4477 23.1581 11 22.6059 11H21.1916C20.6394 11 20.1916 11.4477 20.1916 12C20.1916 12.5522 20.6394 13 21.1916 13H22.6059Z" fill="black"/>
<path d="M20.2063 20.2071C19.8158 20.5976 19.1826 20.5976 18.7921 20.2071L17.7921 19.2071C17.4016 18.8166 17.4016 18.1834 17.7921 17.7929C18.1826 17.4024 18.8158 17.4024 19.2063 17.7929L20.2063 18.7929C20.5969 19.1834 20.5969 19.8166 20.2063 20.2071Z" fill="black"/>
<path d="M10.9993 22.6065C10.9993 23.1588 11.447 23.6065 11.9993 23.6065C12.5516 23.6065 12.9993 23.1588 12.9993 22.6065V21.1923C12.9993 20.64 12.5516 20.1923 11.9993 20.1923C11.447 20.1923 10.9993 20.64 10.9993 21.1923V22.6065Z" fill="black"/>
<path d="M3.79211 20.2071C3.40159 19.8166 3.40159 19.1834 3.79211 18.7929L4.79211 17.7929C5.18264 17.4024 5.8158 17.4024 6.20633 17.7929C6.59685 18.1834 6.59685 18.8166 6.20633 19.2071L5.20633 20.2071C4.8158 20.5976 4.18264 20.5976 3.79211 20.2071Z" fill="black"/>
<path d="M1.39258 10.9999C0.840293 10.9999 0.392578 11.4476 0.392578 11.9999C0.392578 12.5522 0.840293 12.9999 1.39258 12.9999H2.80679C3.35908 12.9999 3.80679 12.5522 3.80679 11.9999C3.80679 11.4476 3.35908 10.9999 2.80679 10.9999H1.39258Z" fill="black"/>
<path d="M3.79211 3.79289C4.18264 3.40237 4.8158 3.40237 5.20633 3.79289L6.20633 4.79289C6.59685 5.18342 6.59685 5.81658 6.20633 6.20711C5.8158 6.59763 5.18264 6.59763 4.79211 6.20711L3.79211 5.20711C3.40159 4.81658 3.40159 4.18342 3.79211 3.79289Z" fill="black"/>
</svg>
