<svg width="24" height="24" viewBox="0 0 24 24" fill="none" xmlns="http://www.w3.org/2000/svg">
<path d="M12.7493 8.90625C12.7493 8.49204 12.4135 8.15625 11.9993 8.15625C11.5851 8.15625 11.2493 8.49204 11.2493 8.90625V12.9062C11.2493 13.3205 11.5851 13.6562 11.9993 13.6562C12.4135 13.6562 12.7493 13.3205 12.7493 12.9062V8.90625Z" fill="black"/>
<path d="M11.9993 16.8438C12.5516 16.8438 12.9993 16.396 12.9993 15.8438C12.9993 15.2915 12.5516 14.8438 11.9993 14.8438C11.447 14.8438 10.9993 15.2915 10.9993 15.8438C10.9993 16.396 11.447 16.8438 11.9993 16.8438Z" fill="black"/>
<path fill-rule="evenodd" clip-rule="evenodd" d="M9.74927 1.3125C8.71373 1.3125 7.87427 2.15197 7.87427 3.1875V5.69164C7.87427 5.81326 7.80559 5.96551 7.64296 6.08173C5.74132 7.44069 4.49927 9.66904 4.49927 12.1875C4.49927 16.3296 7.85713 19.6875 11.9993 19.6875C16.1414 19.6875 19.4993 16.3296 19.4993 12.1875C19.4993 9.66904 18.2572 7.44069 16.3556 6.08173C16.1929 5.96551 16.1243 5.81326 16.1243 5.69164V3.1875C16.1243 2.15197 15.2848 1.3125 14.2493 1.3125H9.74927ZM9.37427 3.1875C9.37427 2.98039 9.54216 2.8125 9.74927 2.8125H14.2493C14.4564 2.8125 14.6243 2.98039 14.6243 3.1875V5.69164C14.6243 5.7323 14.6256 5.7726 14.6281 5.8125H9.37039C9.37296 5.7726 9.37427 5.7323 9.37427 5.69164V3.1875ZM8.50063 7.3125C6.98429 8.40289 5.99927 10.1802 5.99927 12.1875C5.99927 15.5012 8.68556 18.1875 11.9993 18.1875C15.313 18.1875 17.9993 15.5012 17.9993 12.1875C17.9993 10.1802 17.0142 8.40289 15.4979 7.3125H8.50063Z" fill="black"/>
<path d="M20.0296 5.03033C20.3224 4.73744 20.3224 4.26256 20.0296 3.96967C19.7367 3.67678 19.2618 3.67678 18.9689 3.96967L17.9689 4.96967C17.676 5.26256 17.676 5.73744 17.9689 6.03033C18.2618 6.32322 18.7367 6.32322 19.0296 6.03033L20.0296 5.03033Z" fill="black"/>
<path d="M22.6059 12.75C23.0201 12.75 23.3559 12.4142 23.3559 12C23.3559 11.5857 23.0201 11.25 22.6059 11.25H21.1916C20.7774 11.25 20.4416 11.5857 20.4416 12C20.4416 12.4142 20.7774 12.75 21.1916 12.75H22.6059Z" fill="black"/>
<path d="M20.0296 20.0303C19.7367 20.3232 19.2618 20.3232 18.9689 20.0303L17.9689 19.0303C17.676 18.7374 17.676 18.2626 17.9689 17.9697C18.2618 17.6768 18.7367 17.6768 19.0296 17.9697L20.0296 18.9697C20.3224 19.2626 20.3224 19.7374 20.0296 20.0303Z" fill="black"/>
<path d="M11.2493 22.6065C11.2493 23.0207 11.5851 23.3565 11.9993 23.3565C12.4135 23.3565 12.7493 23.0207 12.7493 22.6065V21.1923C12.7493 20.7781 12.4135 20.4423 11.9993 20.4423C11.5851 20.4423 11.2493 20.7781 11.2493 21.1923V22.6065Z" fill="black"/>
<path d="M3.96889 20.0303C3.676 19.7374 3.676 19.2626 3.96889 18.9697L4.96889 17.9697C5.26178 17.6768 5.73666 17.6768 6.02955 17.9697C6.32244 18.2626 6.32244 18.7374 6.02955 19.0303L5.02955 20.0303C4.73666 20.3232 4.26178 20.3232 3.96889 20.0303Z" fill="black"/>
<path d="M1.39258 11.2499C0.978364 11.2499 0.642578 11.5857 0.642578 11.9999C0.642578 12.4141 0.978364 12.7499 1.39258 12.7499H2.80679C3.221 12.7499 3.55679 12.4141 3.55679 11.9999C3.55679 11.5857 3.221 11.2499 2.80679 11.2499H1.39258Z" fill="black"/>
<path d="M3.96889 3.96967C4.26178 3.67678 4.73666 3.67678 5.02955 3.96967L6.02955 4.96967C6.32244 5.26256 6.32244 5.73744 6.02955 6.03033C5.73666 6.32322 5.26178 6.32322 4.96889 6.03033L3.96889 5.03033C3.676 4.73744 3.676 4.26256 3.96889 3.96967Z" fill="black"/>
</svg>
