<svg width="24" height="24" viewBox="0 0 24 24" fill="none" xmlns="http://www.w3.org/2000/svg">
<path d="M8.49988 8.5C8.49988 6.567 10.0669 5 11.9999 5C12.276 5 12.4999 4.77614 12.4999 4.5C12.4999 4.22386 12.276 4 11.9999 4C9.5146 4 7.49988 6.01472 7.49988 8.5C7.49988 8.77614 7.72374 9 7.99988 9C8.27602 9 8.49988 8.77614 8.49988 8.5Z" fill="black"/>
<path fill-rule="evenodd" clip-rule="evenodd" d="M4.49988 8.5C4.49988 4.35786 7.85774 1 11.9999 1C16.142 1 19.4999 4.35786 19.4999 8.5V8.86805C19.4999 10.3553 19.0784 11.8121 18.2842 13.0695L16.9918 15.1157C16.8929 15.2724 16.8083 15.4367 16.7385 15.6066C16.7276 15.6567 16.7093 15.7039 16.6846 15.7471C16.5629 16.0886 16.4999 16.45 16.4999 16.816V18.7857C16.4999 19.9395 15.6174 20.8872 14.4905 20.9906C14.3871 22.1175 13.4394 23 12.2856 23H11.7142C10.5603 23 9.61264 22.1175 9.50924 20.9906C8.38239 20.8872 7.49988 19.9395 7.49988 18.7857V16.816C7.49988 16.45 7.43681 16.0886 7.31511 15.7471C7.2905 15.7039 7.27214 15.6567 7.26127 15.6066C7.1915 15.4367 7.10685 15.2724 7.00791 15.1157L5.71558 13.0695C4.9214 11.8121 4.49988 10.3553 4.49988 8.86805V8.5ZM15.4999 16.816C15.4999 16.5408 15.527 16.2675 15.5802 16H8.41954C8.47273 16.2675 8.49988 16.5408 8.49988 16.816V17.5H15.4999V16.816ZM16.1464 14.5817C16.0609 14.7171 15.9835 14.8567 15.9145 15H8.08525C8.01622 14.8567 7.93887 14.7171 7.8534 14.5817L6.56107 12.5355C5.86783 11.4379 5.49988 10.1663 5.49988 8.86805V8.5C5.49988 4.91015 8.41003 2 11.9999 2C15.5897 2 18.4999 4.91015 18.4999 8.5V8.86805C18.4999 10.1663 18.1319 11.4379 17.4387 12.5355L16.1464 14.5817ZM15.4999 18.7857V18.5H8.49988V18.7857C8.49988 19.4563 9.04353 20 9.71416 20L9.73403 20.0002L9.74988 20H14.2499L14.2657 20.0002L14.2856 20C14.9562 20 15.4999 19.4563 15.4999 18.7857ZM12.2856 22C12.8831 22 13.3798 21.5684 13.481 21H10.5187C10.6199 21.5684 11.1166 22 11.7142 22H12.2856Z" fill="black"/>
</svg>
