<svg width="24" height="24" viewBox="0 0 24 24" fill="none" xmlns="http://www.w3.org/2000/svg">
<path d="M8.99988 8.5C8.99988 6.84315 10.343 5.5 11.9999 5.5C12.5522 5.5 12.9999 5.05228 12.9999 4.5C12.9999 3.94772 12.5522 3.5 11.9999 3.5C9.23845 3.5 6.99988 5.73858 6.99988 8.5C6.99988 9.05228 7.44759 9.5 7.99988 9.5C8.55216 9.5 8.99988 9.05228 8.99988 8.5Z" fill="black"/>
<path fill-rule="evenodd" clip-rule="evenodd" d="M3.74988 8.5C3.74988 3.94365 7.44353 0.25 11.9999 0.25C16.5562 0.25 20.2499 3.94365 20.2499 8.5V8.86805C20.2499 10.4971 19.7882 12.0927 18.9183 13.47L17.626 15.5162C17.559 15.6222 17.5006 15.7328 17.4511 15.8468C17.4314 15.9153 17.406 15.9814 17.3754 16.0444C17.2927 16.292 17.2499 16.5524 17.2499 16.816V18.7857C17.2499 20.1301 16.355 21.2654 15.1284 21.6285C14.7653 22.8551 13.6299 23.75 12.2856 23.75H11.7142C10.3698 23.75 9.23448 22.8551 8.8714 21.6285C7.6448 21.2654 6.74988 20.1301 6.74988 18.7857V16.816C6.74988 16.5524 6.70709 16.292 6.62436 16.0444C6.59379 15.9814 6.56836 15.9153 6.54863 15.8468C6.49911 15.7328 6.44073 15.6222 6.37379 15.5162L5.08146 13.47C4.21158 12.0927 3.74988 10.4971 3.74988 8.86805V8.5ZM14.7499 16.816C14.7499 16.794 14.75 16.772 14.7503 16.75H9.24944C9.24973 16.772 9.24988 16.794 9.24988 16.816V18.7857C9.24988 19.0421 9.45775 19.25 9.71416 19.25L9.73294 19.2501L9.74988 19.25H14.2499L14.2668 19.2501L14.2856 19.25C14.542 19.25 14.7499 19.0421 14.7499 18.7857V16.816ZM15.5122 14.1812C15.4978 14.2041 15.4836 14.227 15.4696 14.25H8.53016C8.51614 14.227 8.50193 14.2041 8.48752 14.1812L7.19518 12.135C6.57765 11.1573 6.24988 10.0245 6.24988 8.86805V8.5C6.24988 5.32436 8.82424 2.75 11.9999 2.75C15.1755 2.75 17.7499 5.32436 17.7499 8.5V8.86805C17.7499 10.0245 17.4221 11.1573 16.8046 12.135L15.5122 14.1812Z" fill="black"/>
</svg>
