<svg width="24" height="24" viewBox="0 0 24 24" fill="none" xmlns="http://www.w3.org/2000/svg">
<path d="M12.25 9.375C12.25 9.23693 12.1381 9.125 12 9.125C11.8619 9.125 11.75 9.23693 11.75 9.375V13.875C11.75 14.0131 11.8619 14.125 12 14.125C12.1381 14.125 12.25 14.0131 12.25 13.875V9.375Z" fill="black"/>
<path d="M12 15.875C12.2761 15.875 12.5 15.6511 12.5 15.375C12.5 15.0989 12.2761 14.875 12 14.875C11.7239 14.875 11.5 15.0989 11.5 15.375C11.5 15.6511 11.7239 15.875 12 15.875Z" fill="black"/>
<path fill-rule="evenodd" clip-rule="evenodd" d="M9.75 1.8125C8.99061 1.8125 8.375 2.42811 8.375 3.1875V5.69164C8.375 5.91734 8.28464 6.13552 8.12946 6.3125H8.0625V6.38244C8.02293 6.42036 7.98013 6.45585 7.9344 6.48853C6.15846 7.75766 5 9.83729 5 12.1875C5 16.0535 8.13401 19.1875 12 19.1875C15.866 19.1875 19 16.0535 19 12.1875C19 9.83729 17.8415 7.75766 16.0656 6.48853C16.0199 6.45585 15.9771 6.42036 15.9375 6.38244V6.3125H15.8705C15.7154 6.13552 15.625 5.91734 15.625 5.69164V3.1875C15.625 2.42811 15.0094 1.8125 14.25 1.8125H9.75ZM15.2729 6.3125C15.179 6.12365 15.125 5.91355 15.125 5.69164V3.1875C15.125 2.70425 14.7332 2.3125 14.25 2.3125H9.75C9.26675 2.3125 8.875 2.70425 8.875 3.1875V5.69164C8.875 5.91355 8.82103 6.12365 8.7271 6.3125H15.2729ZM8.33158 6.8125C8.29722 6.84155 8.26168 6.86919 8.22511 6.89533C6.57487 8.07463 5.5 10.0055 5.5 12.1875C5.5 15.7774 8.41015 18.6875 12 18.6875C15.5899 18.6875 18.5 15.7774 18.5 12.1875C18.5 10.0055 17.4251 8.07463 15.7749 6.89533C15.7383 6.86919 15.7028 6.84155 15.6684 6.8125H8.33158Z" fill="black"/>
<path d="M19.6767 4.67678C19.7744 4.57915 19.7744 4.42085 19.6767 4.32322C19.5791 4.22559 19.4208 4.22559 19.3232 4.32322L18.3232 5.32322C18.2255 5.42085 18.2255 5.57915 18.3232 5.67678C18.4208 5.77441 18.5791 5.77441 18.6767 5.67678L19.6767 4.67678Z" fill="black"/>
<path d="M22.6066 12.25C22.7447 12.25 22.8566 12.138 22.8566 12C22.8566 11.8619 22.7447 11.75 22.6066 11.75H21.1924C21.0543 11.75 20.9424 11.8619 20.9424 12C20.9424 12.138 21.0543 12.25 21.1924 12.25H22.6066Z" fill="black"/>
<path d="M19.6767 19.6768C19.5791 19.7744 19.4208 19.7744 19.3232 19.6768L18.3232 18.6768C18.2255 18.5791 18.2255 18.4209 18.3232 18.3232C18.4208 18.2256 18.5791 18.2256 18.6767 18.3232L19.6767 19.3232C19.7744 19.4209 19.7744 19.5791 19.6767 19.6768Z" fill="black"/>
<path d="M11.75 22.6065C11.75 22.7446 11.8619 22.8565 12 22.8565C12.1381 22.8565 12.25 22.7446 12.25 22.6065V21.1923C12.25 21.0542 12.1381 20.9423 12 20.9423C11.8619 20.9423 11.75 21.0542 11.75 21.1923V22.6065Z" fill="black"/>
<path d="M4.32318 19.6768C4.22555 19.5791 4.22555 19.4209 4.32318 19.3232L5.32318 18.3232C5.42081 18.2256 5.5791 18.2256 5.67673 18.3232C5.77436 18.4209 5.77436 18.5791 5.67673 18.6768L4.67673 19.6768C4.5791 19.7744 4.42081 19.7744 4.32318 19.6768Z" fill="black"/>
<path d="M1.39331 11.7499C1.25524 11.7499 1.14331 11.8619 1.14331 11.9999C1.14331 12.138 1.25524 12.2499 1.39331 12.2499H2.80752C2.9456 12.2499 3.05752 12.138 3.05752 11.9999C3.05752 11.8619 2.9456 11.7499 2.80752 11.7499H1.39331Z" fill="black"/>
<path d="M4.32318 4.32322C4.42081 4.22559 4.5791 4.22559 4.67673 4.32322L5.67673 5.32322C5.77436 5.42085 5.77436 5.57915 5.67673 5.67678C5.5791 5.77441 5.42081 5.77441 5.32318 5.67678L4.32318 4.67678C4.22555 4.57915 4.22555 4.42085 4.32318 4.32322Z" fill="black"/>
</svg>
