<svg width="24" height="24" viewBox="0 0 24 24" fill="none" xmlns="http://www.w3.org/2000/svg">
<path d="M12.8743 9.3125C12.8743 8.82925 12.4825 8.4375 11.9993 8.4375C11.516 8.4375 11.1243 8.82925 11.1243 9.3125V12.8125C11.1243 13.2957 11.516 13.6875 11.9993 13.6875C12.4825 13.6875 12.8743 13.2957 12.8743 12.8125V9.3125Z" fill="black"/>
<path d="M11.9993 16.5625C12.6206 16.5625 13.1243 16.0588 13.1243 15.4375C13.1243 14.8162 12.6206 14.3125 11.9993 14.3125C11.3779 14.3125 10.8743 14.8162 10.8743 15.4375C10.8743 16.0588 11.3779 16.5625 11.9993 16.5625Z" fill="black"/>
<path fill-rule="evenodd" clip-rule="evenodd" d="M9.74927 1.0625C8.57566 1.0625 7.62427 2.0139 7.62427 3.1875V5.69164C7.62427 5.71993 7.60554 5.80119 7.4976 5.87833C5.53311 7.2822 4.24927 9.58492 4.24927 12.1875C4.24927 16.4677 7.71906 19.9375 11.9993 19.9375C16.2795 19.9375 19.7493 16.4677 19.7493 12.1875C19.7493 9.58492 18.4654 7.2822 16.5009 5.87833C16.393 5.80119 16.3743 5.71993 16.3743 5.69164V3.1875C16.3743 2.01389 15.4229 1.0625 14.2493 1.0625H9.74927ZM9.62427 3.1875C9.62427 3.11846 9.68023 3.0625 9.74927 3.0625H14.2493C14.3183 3.0625 14.3743 3.11846 14.3743 3.1875V5.5625H9.62427V3.1875ZM8.58212 7.5625C7.16493 8.61156 6.24927 10.2926 6.24927 12.1875C6.24927 15.3631 8.82363 17.9375 11.9993 17.9375C15.1749 17.9375 17.7493 15.3631 17.7493 12.1875C17.7493 10.2926 16.8336 8.61156 15.4164 7.5625H8.58212Z" fill="black"/>
<path d="M20.2063 5.20711C20.5969 4.81658 20.5969 4.18342 20.2063 3.79289C19.8158 3.40237 19.1826 3.40237 18.7921 3.79289L17.7921 4.79289C17.4016 5.18342 17.4016 5.81658 17.7921 6.20711C18.1826 6.59763 18.8158 6.59763 19.2063 6.20711L20.2063 5.20711Z" fill="black"/>
<path d="M22.6059 13C23.1581 13 23.6059 12.5522 23.6059 12C23.6059 11.4477 23.1581 11 22.6059 11H21.1916C20.6394 11 20.1916 11.4477 20.1916 12C20.1916 12.5522 20.6394 13 21.1916 13H22.6059Z" fill="black"/>
<path d="M20.2063 20.2071C19.8158 20.5976 19.1826 20.5976 18.7921 20.2071L17.7921 19.2071C17.4016 18.8166 17.4016 18.1834 17.7921 17.7929C18.1826 17.4024 18.8158 17.4024 19.2063 17.7929L20.2063 18.7929C20.5969 19.1834 20.5969 19.8166 20.2063 20.2071Z" fill="black"/>
<path d="M10.9993 22.6065C10.9993 23.1588 11.447 23.6065 11.9993 23.6065C12.5516 23.6065 12.9993 23.1588 12.9993 22.6065V21.1923C12.9993 20.64 12.5516 20.1923 11.9993 20.1923C11.447 20.1923 10.9993 20.64 10.9993 21.1923V22.6065Z" fill="black"/>
<path d="M3.79211 20.2071C3.40159 19.8166 3.40159 19.1834 3.79211 18.7929L4.79211 17.7929C5.18264 17.4024 5.8158 17.4024 6.20633 17.7929C6.59685 18.1834 6.59685 18.8166 6.20633 19.2071L5.20633 20.2071C4.8158 20.5976 4.18264 20.5976 3.79211 20.2071Z" fill="black"/>
<path d="M1.39258 10.9999C0.840293 10.9999 0.392578 11.4476 0.392578 11.9999C0.392578 12.5522 0.840293 12.9999 1.39258 12.9999H2.80679C3.35908 12.9999 3.80679 12.5522 3.80679 11.9999C3.80679 11.4476 3.35908 10.9999 2.80679 10.9999H1.39258Z" fill="black"/>
<path d="M3.79211 3.79289C4.18264 3.40237 4.8158 3.40237 5.20633 3.79289L6.20633 4.79289C6.59685 5.18342 6.59685 5.81658 6.20633 6.20711C5.8158 6.59763 5.18264 6.59763 4.79211 6.20711L3.79211 5.20711C3.40159 4.81658 3.40159 4.18342 3.79211 3.79289Z" fill="black"/>
</svg>
