<svg width="24" height="24" viewBox="0 0 24 24" fill="none" xmlns="http://www.w3.org/2000/svg">
<path d="M8.37427 3.1875C8.37427 2.42811 8.98988 1.8125 9.74927 1.8125H14.2493C15.0087 1.8125 15.6243 2.42811 15.6243 3.1875V5.56H8.37427V3.1875Z" fill="black"/>
<path fill-rule="evenodd" clip-rule="evenodd" d="M7.23388 7.06C5.85953 8.3379 4.99927 10.1622 4.99927 12.1875C4.99927 16.0535 8.13327 19.1875 11.9993 19.1875C15.8653 19.1875 18.9993 16.0535 18.9993 12.1875C18.9993 10.1622 18.139 8.3379 16.7647 7.06H7.23388ZM12.7493 9.5625C12.7493 9.14829 12.4135 8.8125 11.9993 8.8125C11.5851 8.8125 11.2493 9.14829 11.2493 9.5625V13.0625C11.2493 13.4767 11.5851 13.8125 11.9993 13.8125C12.4135 13.8125 12.7493 13.4767 12.7493 13.0625V9.5625ZM11.9993 16.1875C12.4825 16.1875 12.8743 15.7957 12.8743 15.3125C12.8743 14.8293 12.4825 14.4375 11.9993 14.4375C11.516 14.4375 11.1243 14.8293 11.1243 15.3125C11.1243 15.7957 11.516 16.1875 11.9993 16.1875Z" fill="black"/>
<path d="M20.0296 5.03033C20.3224 4.73744 20.3224 4.26256 20.0296 3.96967C19.7367 3.67678 19.2618 3.67678 18.9689 3.96967L17.9689 4.96967C17.676 5.26256 17.676 5.73744 17.9689 6.03033C18.2618 6.32322 18.7367 6.32322 19.0296 6.03033L20.0296 5.03033Z" fill="black"/>
<path d="M22.6059 12.75C23.0201 12.75 23.3559 12.4142 23.3559 12C23.3559 11.5857 23.0201 11.25 22.6059 11.25H21.1916C20.7774 11.25 20.4416 11.5857 20.4416 12C20.4416 12.4142 20.7774 12.75 21.1916 12.75H22.6059Z" fill="black"/>
<path d="M20.0296 20.0303C19.7367 20.3232 19.2618 20.3232 18.9689 20.0303L17.9689 19.0303C17.676 18.7374 17.676 18.2626 17.9689 17.9697C18.2618 17.6768 18.7367 17.6768 19.0296 17.9697L20.0296 18.9697C20.3224 19.2626 20.3224 19.7374 20.0296 20.0303Z" fill="black"/>
<path d="M11.2493 22.6065C11.2493 23.0207 11.5851 23.3565 11.9993 23.3565C12.4135 23.3565 12.7493 23.0207 12.7493 22.6065V21.1923C12.7493 20.7781 12.4135 20.4423 11.9993 20.4423C11.5851 20.4423 11.2493 20.7781 11.2493 21.1923V22.6065Z" fill="black"/>
<path d="M3.96889 20.0303C3.676 19.7374 3.676 19.2626 3.96889 18.9697L4.96889 17.9697C5.26178 17.6768 5.73666 17.6768 6.02955 17.9697C6.32244 18.2626 6.32244 18.7374 6.02955 19.0303L5.02955 20.0303C4.73666 20.3232 4.26178 20.3232 3.96889 20.0303Z" fill="black"/>
<path d="M1.39258 11.2499C0.978364 11.2499 0.642578 11.5857 0.642578 11.9999C0.642578 12.4141 0.978364 12.7499 1.39258 12.7499H2.80679C3.221 12.7499 3.55679 12.4141 3.55679 11.9999C3.55679 11.5857 3.221 11.2499 2.80679 11.2499H1.39258Z" fill="black"/>
<path d="M3.96889 3.96967C4.26178 3.67678 4.73666 3.67678 5.02955 3.96967L6.02955 4.96967C6.32244 5.26256 6.32244 5.73744 6.02955 6.03033C5.73666 6.32322 5.26178 6.32322 4.96889 6.03033L3.96889 5.03033C3.676 4.73744 3.676 4.26256 3.96889 3.96967Z" fill="black"/>
</svg>
