<svg width="24" height="24" viewBox="0 0 24 24" fill="none" xmlns="http://www.w3.org/2000/svg">
<path d="M12.75 8.90625C12.75 8.49204 12.4142 8.15625 12 8.15625C11.5858 8.15625 11.25 8.49204 11.25 8.90625V12.9062C11.25 13.3205 11.5858 13.6562 12 13.6562C12.4142 13.6562 12.75 13.3205 12.75 12.9062V8.90625Z" fill="black"/>
<path d="M12 16.8438C12.5523 16.8438 13 16.396 13 15.8438C13 15.2915 12.5523 14.8438 12 14.8438C11.4477 14.8438 11 15.2915 11 15.8438C11 16.396 11.4477 16.8438 12 16.8438Z" fill="black"/>
<path fill-rule="evenodd" clip-rule="evenodd" d="M9.75 1.3125C8.71447 1.3125 7.875 2.15197 7.875 3.1875V5.69164C7.875 5.81326 7.80633 5.96551 7.64369 6.08173C5.74205 7.44069 4.5 9.66904 4.5 12.1875C4.5 16.3296 7.85786 19.6875 12 19.6875C16.1421 19.6875 19.5 16.3296 19.5 12.1875C19.5 9.66904 18.2579 7.44069 16.3563 6.08173C16.1937 5.96551 16.125 5.81326 16.125 5.69164V3.1875C16.125 2.15197 15.2855 1.3125 14.25 1.3125H9.75ZM9.375 3.1875C9.375 2.98039 9.54289 2.8125 9.75 2.8125H14.25C14.4571 2.8125 14.625 2.98039 14.625 3.1875V5.69164C14.625 5.7323 14.6263 5.7726 14.6289 5.8125H9.37112C9.37369 5.7726 9.375 5.7323 9.375 5.69164V3.1875ZM8.50136 7.3125C6.98502 8.40289 6 10.1802 6 12.1875C6 15.5012 8.68629 18.1875 12 18.1875C15.3137 18.1875 18 15.5012 18 12.1875C18 10.1802 17.015 8.40289 15.4986 7.3125H8.50136Z" fill="black"/>
<path d="M20.0303 5.03033C20.3232 4.73744 20.3232 4.26256 20.0303 3.96967C19.7374 3.67678 19.2625 3.67678 18.9696 3.96967L17.9696 4.96967C17.6767 5.26256 17.6767 5.73744 17.9696 6.03033C18.2625 6.32322 18.7374 6.32322 19.0303 6.03033L20.0303 5.03033Z" fill="black"/>
<path d="M22.6066 12.75C23.0208 12.75 23.3566 12.4142 23.3566 12C23.3566 11.5857 23.0208 11.25 22.6066 11.25H21.1924C20.7782 11.25 20.4424 11.5857 20.4424 12C20.4424 12.4142 20.7782 12.75 21.1924 12.75H22.6066Z" fill="black"/>
<path d="M20.0303 20.0303C19.7374 20.3232 19.2625 20.3232 18.9696 20.0303L17.9696 19.0303C17.6767 18.7374 17.6767 18.2626 17.9696 17.9697C18.2625 17.6768 18.7374 17.6768 19.0303 17.9697L20.0303 18.9697C20.3232 19.2626 20.3232 19.7374 20.0303 20.0303Z" fill="black"/>
<path d="M11.25 22.6065C11.25 23.0207 11.5858 23.3565 12 23.3565C12.4142 23.3565 12.75 23.0207 12.75 22.6065V21.1923C12.75 20.7781 12.4142 20.4423 12 20.4423C11.5858 20.4423 11.25 20.7781 11.25 21.1923V22.6065Z" fill="black"/>
<path d="M3.96962 20.0303C3.67673 19.7374 3.67673 19.2626 3.96962 18.9697L4.96962 17.9697C5.26252 17.6768 5.73739 17.6768 6.03028 17.9697C6.32318 18.2626 6.32318 18.7374 6.03028 19.0303L5.03028 20.0303C4.73739 20.3232 4.26252 20.3232 3.96962 20.0303Z" fill="black"/>
<path d="M1.39331 11.2499C0.979097 11.2499 0.643311 11.5857 0.643311 11.9999C0.643311 12.4141 0.979097 12.7499 1.39331 12.7499H2.80752C3.22174 12.7499 3.55752 12.4141 3.55752 11.9999C3.55752 11.5857 3.22174 11.2499 2.80752 11.2499H1.39331Z" fill="black"/>
<path d="M3.96962 3.96967C4.26252 3.67678 4.73739 3.67678 5.03028 3.96967L6.03028 4.96967C6.32318 5.26256 6.32318 5.73744 6.03028 6.03033C5.73739 6.32322 5.26252 6.32322 4.96962 6.03033L3.96962 5.03033C3.67673 4.73744 3.67673 4.26256 3.96962 3.96967Z" fill="black"/>
</svg>
