<svg width="24" height="24" viewBox="0 0 24 24" fill="none" xmlns="http://www.w3.org/2000/svg">
<path fill-rule="evenodd" clip-rule="evenodd" d="M5.92707 12.936L6.91484 14.5H17.0852L18.0729 12.936C18.8419 11.7185 19.25 10.308 19.25 8.86805V8.5C19.25 4.49594 16.0041 1.25 12 1.25C7.99594 1.25 4.75 4.49594 4.75 8.5V8.86805C4.75 10.308 5.15813 11.7185 5.92707 12.936ZM12 4.75C9.92893 4.75 8.25 6.42893 8.25 8.5C8.25 8.63807 8.13807 8.75 8 8.75C7.86193 8.75 7.75 8.63807 7.75 8.5C7.75 6.15279 9.65279 4.25 12 4.25C12.1381 4.25 12.25 4.36193 12.25 4.5C12.25 4.63807 12.1381 4.75 12 4.75Z" fill="black"/>
<path fill-rule="evenodd" clip-rule="evenodd" d="M7.23058 15H16.7695C16.4301 15.5447 16.25 16.1739 16.25 16.816V18.7857C16.25 19.8706 15.3706 20.75 14.2857 20.75C14.266 20.75 14.25 20.766 14.25 20.7857C14.25 21.8706 13.3706 22.75 12.2857 22.75H11.7143C10.6295 22.75 9.75002 21.8706 9.75002 20.7857C9.75002 20.766 9.73403 20.75 9.71431 20.75C8.62946 20.75 7.75002 19.8706 7.75002 18.7857V16.816C7.75002 16.1739 7.56999 15.5447 7.23058 15ZM15.75 18.25V18.7857C15.75 19.5944 15.0944 20.25 14.2857 20.25C14.2786 20.25 14.2716 20.2501 14.2645 20.2504C14.2597 20.2501 14.2549 20.25 14.25 20.25H9.75002C9.74516 20.25 9.74033 20.2501 9.73554 20.2504C9.72849 20.2501 9.72142 20.25 9.71431 20.25C8.90561 20.25 8.25002 19.5944 8.25002 18.7857V18.25H15.75ZM15.75 17.75V16.816C15.75 16.3655 15.8274 15.9206 15.9767 15.5H8.02339C8.17267 15.9206 8.25002 16.3655 8.25002 16.816V17.75H15.75ZM13.7512 20.75C13.7504 20.7618 13.75 20.7737 13.75 20.7857C13.75 21.5944 13.0944 22.25 12.2857 22.25H11.7143C10.9056 22.25 10.25 21.5944 10.25 20.7857C10.25 20.7737 10.2496 20.7618 10.2489 20.75H13.7512Z" fill="black"/>
</svg>
