<svg width="24" height="24" viewBox="0 0 24 24" fill="none" xmlns="http://www.w3.org/2000/svg">
<path d="M12.5 8.75C12.5 8.47386 12.2761 8.25 12 8.25C11.7239 8.25 11.5 8.47386 11.5 8.75V13.25C11.5 13.5261 11.7239 13.75 12 13.75C12.2761 13.75 12.5 13.5261 12.5 13.25V8.75Z" fill="black"/>
<path d="M12 16.75C12.4142 16.75 12.75 16.4142 12.75 16C12.75 15.5858 12.4142 15.25 12 15.25C11.5858 15.25 11.25 15.5858 11.25 16C11.25 16.4142 11.5858 16.75 12 16.75Z" fill="black"/>
<path fill-rule="evenodd" clip-rule="evenodd" d="M9.75 1.5625C8.85254 1.5625 8.125 2.29004 8.125 3.1875V5.69164C8.125 5.90658 8.00638 6.12982 7.78904 6.28513C5.95026 7.59917 4.75 9.75317 4.75 12.1875C4.75 16.1916 7.99594 19.4375 12 19.4375C16.0041 19.4375 19.25 16.1916 19.25 12.1875C19.25 9.75317 18.0497 7.59917 16.211 6.28513C15.9936 6.12982 15.875 5.90658 15.875 5.69164V3.1875C15.875 2.29004 15.1475 1.5625 14.25 1.5625H9.75ZM9.125 3.1875C9.125 2.84232 9.40482 2.5625 9.75 2.5625H14.25C14.5952 2.5625 14.875 2.84232 14.875 3.1875V5.69164C14.875 5.81948 14.89 5.94349 14.9181 6.0625H9.08194C9.10996 5.94349 9.125 5.81948 9.125 5.69164V3.1875ZM8.41948 7.0625C8.40332 7.07485 8.38698 7.08693 8.37047 7.09873C6.78308 8.23312 5.75 10.0897 5.75 12.1875C5.75 15.6393 8.54822 18.4375 12 18.4375C15.4518 18.4375 18.25 15.6393 18.25 12.1875C18.25 10.0897 17.2169 8.23312 15.6295 7.09873C15.613 7.08693 15.5967 7.07485 15.5805 7.0625H8.41948Z" fill="black"/>
<path d="M19.8535 4.85355C20.0488 4.65829 20.0488 4.34171 19.8535 4.14645C19.6582 3.95118 19.3417 3.95118 19.1464 4.14645L18.1464 5.14645C17.9511 5.34171 17.9511 5.65829 18.1464 5.85355C18.3417 6.04882 18.6582 6.04882 18.8535 5.85355L19.8535 4.85355Z" fill="black"/>
<path d="M22.6066 12.5C22.8827 12.5 23.1066 12.2761 23.1066 12C23.1066 11.7238 22.8827 11.5 22.6066 11.5H21.1924C20.9162 11.5 20.6924 11.7238 20.6924 12C20.6924 12.2761 20.9162 12.5 21.1924 12.5H22.6066Z" fill="black"/>
<path d="M19.8535 19.8536C19.6582 20.0488 19.3417 20.0488 19.1464 19.8536L18.1464 18.8536C17.9511 18.6583 17.9511 18.3417 18.1464 18.1464C18.3417 17.9512 18.6582 17.9512 18.8535 18.1464L19.8535 19.1464C20.0488 19.3417 20.0488 19.6583 19.8535 19.8536Z" fill="black"/>
<path d="M11.5 22.6065C11.5 22.8827 11.7239 23.1065 12 23.1065C12.2761 23.1065 12.5 22.8827 12.5 22.6065V21.1923C12.5 20.9162 12.2761 20.6923 12 20.6923C11.7239 20.6923 11.5 20.9162 11.5 21.1923V22.6065Z" fill="black"/>
<path d="M4.1464 19.8536C3.95114 19.6583 3.95114 19.3417 4.1464 19.1464L5.1464 18.1464C5.34166 17.9512 5.65824 17.9512 5.85351 18.1464C6.04877 18.3417 6.04877 18.6583 5.85351 18.8536L4.85351 19.8536C4.65824 20.0488 4.34166 20.0488 4.1464 19.8536Z" fill="black"/>
<path d="M1.39331 11.4999C1.11717 11.4999 0.893311 11.7238 0.893311 11.9999C0.893311 12.2761 1.11717 12.4999 1.39331 12.4999H2.80752C3.08367 12.4999 3.30752 12.2761 3.30752 11.9999C3.30752 11.7238 3.08367 11.4999 2.80752 11.4999H1.39331Z" fill="black"/>
<path d="M4.1464 4.14645C4.34166 3.95118 4.65824 3.95118 4.85351 4.14645L5.85351 5.14645C6.04877 5.34171 6.04877 5.65829 5.85351 5.85355C5.65824 6.04882 5.34166 6.04882 5.1464 5.85355L4.1464 4.85355C3.95114 4.65829 3.95114 4.34171 4.1464 4.14645Z" fill="black"/>
</svg>
