<svg width="24" height="24" viewBox="0 0 24 24" fill="none" xmlns="http://www.w3.org/2000/svg">
<path d="M8.99988 8.5C8.99988 6.84315 10.343 5.5 11.9999 5.5C12.5522 5.5 12.9999 5.05228 12.9999 4.5C12.9999 3.94772 12.5522 3.5 11.9999 3.5C9.23845 3.5 6.99988 5.73858 6.99988 8.5C6.99988 9.05228 7.44759 9.5 7.99988 9.5C8.55216 9.5 8.99988 9.05228 8.99988 8.5Z" fill="black"/>
<path fill-rule="evenodd" clip-rule="evenodd" d="M3.99988 8.5C3.99988 4.08172 7.5816 0.5 11.9999 0.5C16.4182 0.5 19.9999 4.08172 19.9999 8.5V8.86805C19.9999 10.4498 19.5516 11.9992 18.7069 13.3365L17.4146 15.3827C17.3376 15.5047 17.2708 15.6321 17.2147 15.7637C17.1972 15.8281 17.1734 15.8899 17.144 15.9484C17.049 16.2263 16.9999 16.5194 16.9999 16.816V18.7857C16.9999 20.0648 16.1152 21.1372 14.9243 21.4244C14.6371 22.6153 13.5647 23.5 12.2856 23.5H11.7142C10.4351 23.5 9.36268 22.6153 9.07545 21.4244C7.88459 21.1372 6.99988 20.0648 6.99988 18.7857V16.816C6.99988 16.5194 6.95074 16.2263 6.85578 15.9484C6.82639 15.8899 6.80258 15.8281 6.78503 15.7637C6.72894 15.6321 6.66219 15.5047 6.58517 15.3827L5.29283 13.3365C4.44819 11.9992 3.99988 10.4498 3.99988 8.86805V8.5ZM14.9999 16.816C14.9999 16.7103 15.0035 16.605 15.0105 16.5H8.98921C8.99631 16.605 8.99988 16.7103 8.99988 16.816V17H14.9999V16.816ZM15.7236 14.3147C15.6851 14.3757 15.6481 14.4375 15.6125 14.5H8.38726C8.35171 14.4375 8.31466 14.3757 8.27614 14.3147L6.98381 12.2685C6.34104 11.2508 5.99988 10.0718 5.99988 8.86805V8.5C5.99988 5.18629 8.68617 2.5 11.9999 2.5C15.3136 2.5 17.9999 5.18629 17.9999 8.5V8.86805C17.9999 10.0718 17.6587 11.2508 17.0159 12.2685L15.7236 14.3147ZM14.2856 19.5C14.6054 19.5 14.8762 19.2898 14.9672 19H9.03258C9.1236 19.2898 9.39433 19.5 9.71416 19.5L9.73314 19.5001L9.74988 19.5H14.2499L14.2666 19.5001L14.2856 19.5Z" fill="black"/>
</svg>
