<svg width="24" height="24" viewBox="0 0 24 24" fill="none" xmlns="http://www.w3.org/2000/svg">
<path fill-rule="evenodd" clip-rule="evenodd" d="M5.7157 13.0695L5.98757 13.5H18.0124L18.2843 13.0695C19.0785 11.8121 19.5 10.3553 19.5 8.86805V8.5C19.5 4.35786 16.1421 1 12 1C7.85786 1 4.5 4.35786 4.5 8.5V8.86805C4.5 10.3553 4.92152 11.8121 5.7157 13.0695ZM12 5C10.067 5 8.5 6.567 8.5 8.5C8.5 8.77614 8.27614 9 8 9C7.72386 9 7.5 8.77614 7.5 8.5C7.5 6.01472 9.51472 4 12 4C12.2761 4 12.5 4.22386 12.5 4.5C12.5 4.77614 12.2761 5 12 5Z" fill="black"/>
<path fill-rule="evenodd" clip-rule="evenodd" d="M16.992 15.1157L17.3809 14.5H6.61918L7.00806 15.1157C7.32944 15.6246 7.50002 16.2141 7.50002 16.816V17.9953L7.5 18L7.50002 18.0047V18.7857C7.50002 19.9395 8.38253 20.8872 9.50938 20.9906C9.61279 22.1175 10.5605 23 11.7143 23H12.2857C13.4396 23 14.3873 22.1175 14.4907 20.9906C15.6175 20.8872 16.5 19.9395 16.5 18.7857V16.816C16.5 16.2141 16.6706 15.6246 16.992 15.1157ZM8.50002 17.5V16.816C8.50002 16.3666 8.42765 15.9224 8.28768 15.5H15.7124C15.5724 15.9224 15.5 16.3666 15.5 16.816V17.5H8.50002ZM8.50002 18.5V18.7857C8.50002 19.4563 9.04368 20 9.71431 20L9.73417 20.0002L9.75 20H14.25L14.2659 20.0002L14.2857 20C14.9564 20 15.5 19.4563 15.5 18.7857V18.5H8.50002ZM13.4812 21C13.38 21.5684 12.8833 22 12.2857 22H11.7143C11.1168 22 10.6201 21.5684 10.5189 21H13.4812Z" fill="black"/>
</svg>
