<svg width="24" height="24" viewBox="0 0 24 24" fill="none" xmlns="http://www.w3.org/2000/svg">
<path d="M8.75 8.5C8.75 6.70507 10.2051 5.25 12 5.25C12.4142 5.25 12.75 4.91421 12.75 4.5C12.75 4.08579 12.4142 3.75 12 3.75C9.37665 3.75 7.25 5.87665 7.25 8.5C7.25 8.91421 7.58579 9.25 8 9.25C8.41421 9.25 8.75 8.91421 8.75 8.5Z" fill="black"/>
<path fill-rule="evenodd" clip-rule="evenodd" d="M4.25 8.5C4.25 4.21979 7.71979 0.75 12 0.75C16.2802 0.75 19.75 4.21979 19.75 8.5V8.86805C19.75 10.4026 19.3151 11.9056 18.4957 13.203L17.2033 15.2492C17.1157 15.388 17.0402 15.5332 16.9774 15.6834C16.9627 15.7418 16.9412 15.7975 16.9137 15.8496C16.8059 16.1588 16.75 16.4854 16.75 16.816V18.7857C16.75 20.0009 15.8704 21.0107 14.7131 21.2131C14.5107 22.3704 13.5009 23.25 12.2857 23.25H11.7143C10.4991 23.25 9.48927 22.3704 9.28693 21.2131C8.12964 21.0107 7.25 20.0009 7.25 18.7857V16.816C7.25 16.4854 7.19414 16.1588 7.08627 15.8496C7.05879 15.7975 7.03726 15.7418 7.02258 15.6834C6.95975 15.5332 6.88429 15.388 6.79666 15.2492L5.50433 13.203C4.68492 11.9056 4.25 10.4026 4.25 8.86805V8.5ZM15.25 16.816C15.25 16.6261 15.2622 16.437 15.2863 16.25H8.71373C8.7378 16.437 8.75 16.6261 8.75 16.816V17.25H15.25V16.816ZM15.9351 14.4482C15.8729 14.5467 15.8147 14.6474 15.7607 14.75H8.23928C8.18526 14.6474 8.12711 14.5467 8.06489 14.4482L6.77256 12.402C6.10455 11.3444 5.75 10.119 5.75 8.86805V8.5C5.75 5.04822 8.54822 2.25 12 2.25C15.4518 2.25 18.25 5.04822 18.25 8.5V8.86805C18.25 10.119 17.8954 11.3444 17.2274 12.402L15.9351 14.4482ZM15.25 18.7857V18.75H8.75V18.7857C8.75 19.3183 9.18173 19.75 9.71429 19.75L9.73358 19.7502L9.75 19.75H14.25L14.2664 19.7502L14.2857 19.75C14.8183 19.75 15.25 19.3183 15.25 18.7857ZM12.2857 21.75C12.65 21.75 12.967 21.548 13.1311 21.25H10.8689C11.033 21.548 11.35 21.75 11.7143 21.75H12.2857Z" fill="black"/>
</svg>
