<svg width="24" height="24" viewBox="0 0 24 24" fill="none" xmlns="http://www.w3.org/2000/svg">
<path d="M8.5 8.5C8.5 6.567 10.067 5 12 5C12.2761 5 12.5 4.77614 12.5 4.5C12.5 4.22386 12.2761 4 12 4C9.51472 4 7.5 6.01472 7.5 8.5C7.5 8.77614 7.72386 9 8 9C8.27614 9 8.5 8.77614 8.5 8.5Z" fill="black"/>
<path fill-rule="evenodd" clip-rule="evenodd" d="M4.5 8.5C4.5 4.35786 7.85786 1 12 1C16.1421 1 19.5 4.35786 19.5 8.5V8.86805C19.5 10.3553 19.0785 11.8121 18.2843 13.0695L16.992 15.1157C16.893 15.2724 16.8084 15.4367 16.7386 15.6066C16.7277 15.6567 16.7094 15.7039 16.6848 15.7471C16.5631 16.0886 16.5 16.45 16.5 16.816V18.7857C16.5 19.9395 15.6175 20.8872 14.4906 20.9906C14.3872 22.1175 13.4395 23 12.2857 23H11.7143C10.5605 23 9.61276 22.1175 9.50936 20.9906C8.38251 20.8872 7.5 19.9395 7.5 18.7857V16.816C7.5 16.45 7.43693 16.0886 7.31523 15.7471C7.29062 15.7039 7.27226 15.6567 7.2614 15.6066C7.19162 15.4367 7.10697 15.2724 7.00803 15.1157L5.7157 13.0695C4.92152 11.8121 4.5 10.3553 4.5 8.86805V8.5ZM15.5 16.816C15.5 16.5408 15.5271 16.2675 15.5803 16H8.41966C8.47286 16.2675 8.5 16.5408 8.5 16.816V17.5H15.5V16.816ZM16.1465 14.5817C16.061 14.7171 15.9837 14.8567 15.9146 15H8.08537C8.01635 14.8567 7.93899 14.7171 7.85352 14.5817L6.56119 12.5355C5.86795 11.4379 5.5 10.1663 5.5 8.86805V8.5C5.5 4.91015 8.41015 2 12 2C15.5899 2 18.5 4.91015 18.5 8.5V8.86805C18.5 10.1663 18.1321 11.4379 17.4388 12.5355L16.1465 14.5817ZM15.5 18.7857V18.5H8.5V18.7857C8.5 19.4563 9.04365 20 9.71429 20L9.73415 20.0002L9.75 20H14.25L14.2658 20.0002L14.2857 20C14.9563 20 15.5 19.4563 15.5 18.7857ZM12.2857 22C12.8832 22 13.3799 21.5684 13.4812 21H10.5188C10.6201 21.5684 11.1168 22 11.7143 22H12.2857Z" fill="black"/>
</svg>
