<svg width="24" height="24" viewBox="0 0 24 24" fill="none" xmlns="http://www.w3.org/2000/svg">
<path d="M12.875 9.3125C12.875 8.82925 12.4832 8.4375 12 8.4375C11.5168 8.4375 11.125 8.82925 11.125 9.3125V12.8125C11.125 13.2957 11.5168 13.6875 12 13.6875C12.4832 13.6875 12.875 13.2957 12.875 12.8125V9.3125Z" fill="black"/>
<path d="M12 16.5625C12.6213 16.5625 13.125 16.0588 13.125 15.4375C13.125 14.8162 12.6213 14.3125 12 14.3125C11.3787 14.3125 10.875 14.8162 10.875 15.4375C10.875 16.0588 11.3787 16.5625 12 16.5625Z" fill="black"/>
<path fill-rule="evenodd" clip-rule="evenodd" d="M9.75 1.0625C8.5764 1.0625 7.625 2.0139 7.625 3.1875V5.69164C7.625 5.71993 7.60627 5.80119 7.49833 5.87833C5.53385 7.2822 4.25 9.58492 4.25 12.1875C4.25 16.4677 7.71979 19.9375 12 19.9375C16.2802 19.9375 19.75 16.4677 19.75 12.1875C19.75 9.58492 18.4662 7.2822 16.5017 5.87833C16.3937 5.80119 16.375 5.71993 16.375 5.69164V3.1875C16.375 2.01389 15.4236 1.0625 14.25 1.0625H9.75ZM9.625 3.1875C9.625 3.11846 9.68096 3.0625 9.75 3.0625H14.25C14.319 3.0625 14.375 3.11846 14.375 3.1875V5.5625H9.625V3.1875ZM8.58286 7.5625C7.16566 8.61156 6.25 10.2926 6.25 12.1875C6.25 15.3631 8.82436 17.9375 12 17.9375C15.1756 17.9375 17.75 15.3631 17.75 12.1875C17.75 10.2926 16.8343 8.61156 15.4171 7.5625H8.58286Z" fill="black"/>
<path d="M20.2071 5.20711C20.5976 4.81658 20.5976 4.18342 20.2071 3.79289C19.8165 3.40237 19.1834 3.40237 18.7928 3.79289L17.7928 4.79289C17.4023 5.18342 17.4023 5.81658 17.7928 6.20711C18.1834 6.59763 18.8165 6.59763 19.2071 6.20711L20.2071 5.20711Z" fill="black"/>
<path d="M22.6066 13C23.1589 13 23.6066 12.5522 23.6066 12C23.6066 11.4477 23.1589 11 22.6066 11H21.1924C20.6401 11 20.1924 11.4477 20.1924 12C20.1924 12.5522 20.6401 13 21.1924 13H22.6066Z" fill="black"/>
<path d="M20.2071 20.2071C19.8165 20.5976 19.1834 20.5976 18.7928 20.2071L17.7928 19.2071C17.4023 18.8166 17.4023 18.1834 17.7928 17.7929C18.1834 17.4024 18.8165 17.4024 19.2071 17.7929L20.2071 18.7929C20.5976 19.1834 20.5976 19.8166 20.2071 20.2071Z" fill="black"/>
<path d="M11 22.6065C11 23.1588 11.4477 23.6065 12 23.6065C12.5523 23.6065 13 23.1588 13 22.6065V21.1923C13 20.64 12.5523 20.1923 12 20.1923C11.4477 20.1923 11 20.64 11 21.1923V22.6065Z" fill="black"/>
<path d="M3.79285 20.2071C3.40232 19.8166 3.40232 19.1834 3.79285 18.7929L4.79285 17.7929C5.18337 17.4024 5.81654 17.4024 6.20706 17.7929C6.59758 18.1834 6.59758 18.8166 6.20706 19.2071L5.20706 20.2071C4.81654 20.5976 4.18337 20.5976 3.79285 20.2071Z" fill="black"/>
<path d="M1.39331 10.9999C0.841026 10.9999 0.393311 11.4476 0.393311 11.9999C0.393311 12.5522 0.841026 12.9999 1.39331 12.9999H2.80752C3.35981 12.9999 3.80752 12.5522 3.80752 11.9999C3.80752 11.4476 3.35981 10.9999 2.80752 10.9999H1.39331Z" fill="black"/>
<path d="M3.79285 3.79289C4.18337 3.40237 4.81654 3.40237 5.20706 3.79289L6.20706 4.79289C6.59758 5.18342 6.59758 5.81658 6.20706 6.20711C5.81654 6.59763 5.18337 6.59763 4.79285 6.20711L3.79285 5.20711C3.40232 4.81658 3.40232 4.18342 3.79285 3.79289Z" fill="black"/>
</svg>
