<svg width="24" height="24" viewBox="0 0 24 24" fill="none" xmlns="http://www.w3.org/2000/svg">
<path d="M7.24259 2.06063C7.27608 1.92668 7.19464 1.79095 7.06069 1.75746C6.92674 1.72398 6.79101 1.80542 6.75752 1.93936L1.75752 21.9394C1.72404 22.0733 1.80548 22.209 1.93943 22.2425C2.07337 22.276 2.20911 22.1946 2.24259 22.0606L7.24259 2.06063Z" fill="black"/>
<path d="M17.2426 1.93936C17.2091 1.80542 17.0734 1.72398 16.9394 1.75746C16.8055 1.79095 16.724 1.92668 16.7575 2.06063L21.7575 22.0606C21.791 22.1946 21.9267 22.276 22.0607 22.2425C22.1946 22.209 22.2761 22.0733 22.2426 21.9394L17.2426 1.93936Z" fill="black"/>
<path d="M12.2501 2.75C12.2501 2.61193 12.1381 2.5 12.0001 2.5C11.862 2.5 11.7501 2.61193 11.7501 2.75V6.25C11.7501 6.38807 11.862 6.5 12.0001 6.5C12.1381 6.5 12.2501 6.38807 12.2501 6.25V2.75Z" fill="black"/>
<path d="M12.0001 10C12.1381 10 12.2501 10.1119 12.2501 10.25V13.75C12.2501 13.8881 12.1381 14 12.0001 14C11.862 14 11.7501 13.8881 11.7501 13.75V10.25C11.7501 10.1119 11.862 10 12.0001 10Z" fill="black"/>
<path d="M12.2501 17.75C12.2501 17.6119 12.1381 17.5 12.0001 17.5C11.862 17.5 11.7501 17.6119 11.7501 17.75V21.25C11.7501 21.3881 11.862 21.5 12.0001 21.5C12.1381 21.5 12.2501 21.3881 12.2501 21.25V17.75Z" fill="black"/>
</svg>
