<svg width="24" height="24" viewBox="0 0 24 24" fill="none" xmlns="http://www.w3.org/2000/svg">
<path d="M7.97013 2.24253C8.10408 1.70673 7.77832 1.1638 7.24253 1.02985C6.70673 0.895901 6.1638 1.22166 6.02985 1.75746L1.02985 21.7575C0.895901 22.2933 1.22166 22.8362 1.75746 22.9701C2.29325 23.1041 2.83619 22.7783 2.97013 22.2425L7.97013 2.24253Z" fill="black"/>
<path d="M17.9701 1.75746C17.8362 1.22166 17.2933 0.895901 16.7575 1.02985C16.2217 1.1638 15.8959 1.70673 16.0299 2.24253L21.0299 22.2425C21.1638 22.7783 21.7067 23.1041 22.2425 22.9701C22.7783 22.8362 23.1041 22.2933 22.9701 21.7575L17.9701 1.75746Z" fill="black"/>
<path d="M13 3C13 2.44771 12.5523 2 12 2C11.4477 2 11 2.44771 11 3V6C11 6.55228 11.4477 7 12 7C12.5523 7 13 6.55228 13 6V3Z" fill="black"/>
<path d="M12 9.5C12.5523 9.5 13 9.94771 13 10.5V13.5C13 14.0523 12.5523 14.5 12 14.5C11.4477 14.5 11 14.0523 11 13.5V10.5C11 9.94771 11.4477 9.5 12 9.5Z" fill="black"/>
<path d="M13 18C13 17.4477 12.5523 17 12 17C11.4477 17 11 17.4477 11 18V21C11 21.5523 11.4477 22 12 22C12.5523 22 13 21.5523 13 21V18Z" fill="black"/>
</svg>
