<svg width="24" height="24" viewBox="0 0 24 24" fill="none" xmlns="http://www.w3.org/2000/svg">
<path d="M7.97038 2.24253C8.10433 1.70673 7.77857 1.1638 7.24277 1.02985C6.70698 0.895901 6.16404 1.22166 6.03009 1.75746L1.03009 21.7575C0.896145 22.2933 1.22191 22.8362 1.7577 22.9701C2.2935 23.1041 2.83643 22.7783 2.97038 22.2425L7.97038 2.24253Z" fill="black"/>
<path d="M17.9704 1.75746C17.8364 1.22166 17.2935 0.895901 16.7577 1.02985C16.2219 1.1638 15.8961 1.70673 16.0301 2.24253L21.0301 22.2425C21.164 22.7783 21.707 23.1041 22.2428 22.9701C22.7786 22.8362 23.1043 22.2933 22.9704 21.7575L17.9704 1.75746Z" fill="black"/>
<path d="M13.0002 3C13.0002 2.44771 12.5525 2 12.0002 2C11.448 2 11.0002 2.44771 11.0002 3V6C11.0002 6.55228 11.448 7 12.0002 7C12.5525 7 13.0002 6.55228 13.0002 6V3Z" fill="black"/>
<path d="M12.0002 9.5C12.5525 9.5 13.0002 9.94771 13.0002 10.5V13.5C13.0002 14.0523 12.5525 14.5 12.0002 14.5C11.448 14.5 11.0002 14.0523 11.0002 13.5V10.5C11.0002 9.94771 11.448 9.5 12.0002 9.5Z" fill="black"/>
<path d="M13.0002 18C13.0002 17.4477 12.5525 17 12.0002 17C11.448 17 11.0002 17.4477 11.0002 18V21C11.0002 21.5523 11.448 22 12.0002 22C12.5525 22 13.0002 21.5523 13.0002 21V18Z" fill="black"/>
</svg>
