<svg width="24" height="24" viewBox="0 0 24 24" fill="none" xmlns="http://www.w3.org/2000/svg">
<path d="M7.72778 2.1819C7.82825 1.78005 7.58393 1.37285 7.18208 1.27239C6.78023 1.17193 6.37303 1.41625 6.27257 1.81809L1.27257 21.8181C1.17211 22.2199 1.41643 22.6271 1.81828 22.7276C2.22012 22.8281 2.62732 22.5837 2.72778 22.1819L7.72778 2.1819Z" fill="black"/>
<path d="M17.7278 1.81809C17.6273 1.41625 17.2201 1.17193 16.8183 1.27239C16.4164 1.37285 16.1721 1.78005 16.2726 2.1819L21.2726 22.1819C21.373 22.5837 21.7802 22.8281 22.1821 22.7276C22.5839 22.6271 22.8282 22.2199 22.7278 21.8181L17.7278 1.81809Z" fill="black"/>
<path d="M12.7502 2.75C12.7502 2.33578 12.4144 2 12.0002 2C11.586 2 11.2502 2.33578 11.2502 2.75V6.25C11.2502 6.66421 11.586 7 12.0002 7C12.4144 7 12.7502 6.66421 12.7502 6.25V2.75Z" fill="black"/>
<path d="M12.0002 9.5C12.4144 9.5 12.7502 9.83578 12.7502 10.25V13.75C12.7502 14.1642 12.4144 14.5 12.0002 14.5C11.586 14.5 11.2502 14.1642 11.2502 13.75V10.25C11.2502 9.83578 11.586 9.5 12.0002 9.5Z" fill="black"/>
<path d="M12.7502 17.75C12.7502 17.3358 12.4144 17 12.0002 17C11.586 17 11.2502 17.3358 11.2502 17.75V21.25C11.2502 21.6642 11.586 22 12.0002 22C12.4144 22 12.7502 21.6642 12.7502 21.25V17.75Z" fill="black"/>
</svg>
