<svg width="24" height="24" viewBox="0 0 24 24" fill="none" xmlns="http://www.w3.org/2000/svg">
<path fill-rule="evenodd" clip-rule="evenodd" d="M11.25 1.74994H7C6.88529 1.74994 6.78529 1.82801 6.75747 1.93931L1.75747 21.9393C1.7388 22.014 1.75557 22.0931 1.80295 22.1538C1.85033 22.2145 1.92302 22.2499 2 22.2499H11.25V16.9999H12.75V22.2499H22C22.077 22.2499 22.1497 22.2145 22.1971 22.1538C22.2444 22.0931 22.2612 22.014 22.2425 21.9393L17.2425 1.93931C17.2147 1.82801 17.1147 1.74994 17 1.74994H12.75V6.99994H11.25V1.74994ZM12.75 9.49994V14.4999H11.25V9.49994H12.75Z" fill="black"/>
</svg>
