<svg width="24" height="24" viewBox="0 0 24 24" fill="none" xmlns="http://www.w3.org/2000/svg">
<path fill-rule="evenodd" clip-rule="evenodd" d="M0.331746 17.6595C0.283547 17.7541 0.265718 17.8524 0.257643 17.9512C0.249992 18.0449 0.249996 18.1586 0.25 18.2904L0.25 18.5C0.25 19.7426 1.25736 20.75 2.5 20.75H21.5C22.7426 20.75 23.75 19.7426 23.75 18.5V18.2904C23.75 18.1586 23.75 18.0449 23.7424 17.9512C23.7343 17.8524 23.7165 17.7541 23.6683 17.6595C23.5963 17.5184 23.4816 17.4037 23.3405 17.3317C23.2459 17.2836 23.1476 17.2657 23.0488 17.2576C22.9648 17.2508 22.8648 17.2501 22.75 17.25L22.75 5.5C22.75 4.25736 21.7426 3.25 20.5 3.25L3.50152 3.25C2.25899 3.25 1.25168 4.25719 1.25152 5.49972L1.25003 17.25C1.13526 17.2501 1.0352 17.2508 0.951244 17.2576C0.852407 17.2657 0.754103 17.2836 0.659508 17.3317C0.518386 17.4037 0.403651 17.5184 0.331746 17.6595ZM0.750001 18.3C0.750001 18.1559 0.750195 18.0628 0.755982 17.992C0.761531 17.924 0.770951 17.8989 0.777249 17.8865C0.801217 17.8395 0.839462 17.8012 0.886503 17.7773C0.898864 17.771 0.924044 17.7615 0.991959 17.756C1.06279 17.7502 1.15586 17.75 1.3 17.75L8.2 17.75C8.36212 17.75 8.39839 17.7517 8.41928 17.7567C8.43464 17.7603 8.44722 17.7631 8.45724 17.7652C8.4647 17.7699 8.47382 17.7755 8.48481 17.7822C8.48477 17.7822 8.48569 17.783 8.48775 17.7847C8.49239 17.7886 8.5028 17.7972 8.52079 17.8133C8.55129 17.8405 8.59338 17.8797 8.64887 17.9325C8.75963 18.0378 8.91708 18.1907 9.12907 18.3967C9.35393 18.6151 9.66147 18.75 10 18.75H14C14.3385 18.75 14.6461 18.6151 14.8709 18.3967C15.0829 18.1907 15.2404 18.0378 15.3511 17.9325C15.4066 17.8797 15.4487 17.8405 15.4792 17.8133C15.4972 17.7972 15.5076 17.7885 15.5123 17.7847C15.5143 17.783 15.5152 17.7822 15.5152 17.7822C15.5262 17.7755 15.5353 17.7699 15.5428 17.7652C15.5528 17.7631 15.5654 17.7603 15.5807 17.7567C15.6016 17.7517 15.6379 17.75 15.8 17.75L22.7 17.75C22.8441 17.75 22.9372 17.7502 23.008 17.756C23.076 17.7615 23.1011 17.771 23.1135 17.7773C23.1605 17.8012 23.1988 17.8395 23.2228 17.8865C23.229 17.8989 23.2385 17.924 23.244 17.992C23.2498 18.0628 23.25 18.1559 23.25 18.3V18.5C23.25 19.4665 22.4665 20.25 21.5 20.25H2.5C1.5335 20.25 0.750001 19.4665 0.750001 18.5V18.3ZM15.5152 17.7822C15.5134 17.7833 15.5115 17.7844 15.5096 17.7855C15.5111 17.7846 15.5123 17.7839 15.5132 17.7833C15.5145 17.7825 15.5152 17.7821 15.5152 17.7822ZM8.48481 17.7822C8.48484 17.7821 8.48516 17.7823 8.48575 17.7827C8.48668 17.7832 8.48827 17.7842 8.49043 17.7855C8.48851 17.7844 8.48663 17.7833 8.48481 17.7822ZM8.22717 17.25C8.3466 17.2499 8.44815 17.2498 8.53389 17.27C8.55339 17.2746 8.5658 17.2771 8.57635 17.2793L8.58044 17.2802L8.5822 17.2805C8.59133 17.2824 8.61818 17.2879 8.64631 17.2993C8.67443 17.3107 8.69749 17.3255 8.70533 17.3305L8.70685 17.3315L8.71036 17.3337C8.71946 17.3395 8.73016 17.3463 8.74735 17.3566C8.78389 17.3785 8.8243 17.4139 8.85392 17.4404C8.89031 17.4729 8.93689 17.5164 8.99338 17.5701C9.10633 17.6775 9.26567 17.8323 9.47598 18.0366L9.47747 18.038C9.61278 18.1695 9.79673 18.25 10 18.25H14C14.2033 18.25 14.3872 18.1695 14.5225 18.038L14.5241 18.0365C14.7344 17.8322 14.8937 17.6775 15.0066 17.5701C15.0631 17.5164 15.1097 17.4729 15.1461 17.4404C15.1757 17.4139 15.2161 17.3785 15.2527 17.3566C15.2698 17.3463 15.2805 17.3395 15.2896 17.3337L15.2931 17.3315L15.2947 17.3305C15.3025 17.3255 15.3256 17.3107 15.3537 17.2993C15.3818 17.2879 15.4087 17.2824 15.4178 17.2805L15.4196 17.2802L15.4237 17.2793C15.4342 17.2771 15.4466 17.2746 15.4661 17.27C15.5519 17.2498 15.6534 17.2499 15.7728 17.25L22.25 17.25L22.25 5.5C22.25 4.5335 21.4665 3.75 20.5 3.75L3.50152 3.75C2.53511 3.75 1.75165 4.53337 1.75152 5.49978L1.75003 17.25L8.22717 17.25Z" fill="black"/>
</svg>
