<svg width="24" height="24" viewBox="0 0 24 24" fill="none" xmlns="http://www.w3.org/2000/svg">
<path d="M15.3006 19.0711C15.2507 19.1009 15.0392 19.3064 14.6162 19.7173C14.4361 19.8923 14.1904 20 13.9195 20H9.91945C9.64855 20 9.40281 19.8923 9.22272 19.7173C8.79969 19.3064 8.58817 19.1009 8.53835 19.0711C8.49305 19.0439 8.48317 19.0355 8.47177 19.0309C8.46036 19.0263 8.44743 19.0254 8.39604 19.0133C8.33951 19 8.26616 19 8.11945 19L1.21945 19C0.972742 19 0.849385 19 0.722944 19.0849C0.635285 19.1438 0.530818 19.3014 0.510779 19.4051C0.481873 19.5546 0.513527 19.6294 0.576837 19.779C0.880572 20.4966 1.59122 21 2.41945 21H21.4195C22.2477 21 22.9583 20.4966 23.2621 19.779C23.3254 19.6294 23.357 19.5546 23.3281 19.4051C23.3081 19.3014 23.2036 19.1438 23.116 19.0849C22.9895 19 22.8662 19 22.6195 19L15.7195 19C15.5728 19 15.4994 19 15.4429 19.0133C15.3915 19.0254 15.3785 19.0263 15.3671 19.0309C15.3557 19.0355 15.3459 19.0439 15.3006 19.0711Z" fill="black"/>
<path d="M0.921445 5.49968C0.92162 4.1191 2.04086 3 3.42144 3L20.4199 3C21.8006 3 22.9199 4.11929 22.9199 5.5V15.5C22.9199 16.8807 21.8006 18 20.4199 18H3.42018C2.03934 18 0.920001 16.8805 0.920176 15.4997L0.921445 5.49968Z" fill="black"/>
</svg>
