<svg width="24" height="24" viewBox="0 0 24 24" fill="none" xmlns="http://www.w3.org/2000/svg">
<path fill-rule="evenodd" clip-rule="evenodd" d="M22.75 15.1689C22.7648 15.1759 22.7796 15.1832 22.7945 15.1907C23.1238 15.3585 23.3915 15.6262 23.5593 15.9555C23.6913 16.2146 23.7259 16.4591 23.7391 16.6198C23.7502 16.7559 23.7501 16.9081 23.75 17.0249L23.75 17.75C23.75 20.0972 21.8472 22 19.5 22H4.50002C2.15281 22 0.250019 20.0972 0.250019 17.75L0.25001 17.0249C0.249946 16.9082 0.249864 16.7559 0.260982 16.6198C0.27411 16.4591 0.308759 16.2146 0.440758 15.9555C0.608536 15.6262 0.876252 15.3585 1.20554 15.1907C1.22045 15.1831 1.23532 15.1759 1.25013 15.1689L1.25136 5.2496C1.25158 3.45483 2.70659 2 4.50136 2L19.5 2C21.2949 2 22.75 3.45508 22.75 5.25V15.1689ZM2.75002 17.75V17.5H7.89431C8.29794 18.103 8.98532 18.5 9.76542 18.5H14.0654C14.8455 18.5 15.5329 18.103 15.9365 17.5H21.25V17.75C21.25 18.7165 20.4665 19.5 19.5 19.5H4.50002C3.53352 19.5 2.75002 18.7165 2.75002 17.75ZM20.25 15V5.25C20.25 4.83578 19.9142 4.5 19.5 4.5L4.50136 4.5C4.08718 4.5 3.75141 4.83573 3.75136 5.24991L3.75015 15L8.76542 15C9.37016 15 9.8746 15.4294 9.99042 16H13.8411C13.9545 15.4516 14.4334 15 15.0654 15L20.25 15Z" fill="black"/>
</svg>
