<svg width="24" height="24" viewBox="0 0 24 24" fill="none" xmlns="http://www.w3.org/2000/svg">
<path fill-rule="evenodd" clip-rule="evenodd" d="M0.663502 16.319C0.552453 16.537 0.52201 16.745 0.510145 16.8902C0.499906 17.0155 0.499961 17.1577 0.500006 17.2769L0.500012 17.5C0.500012 19.7091 2.29087 21.5 4.50001 21.5H19.5C21.7091 21.5 23.5 19.7091 23.5 17.5L23.5 17.2768C23.5001 17.1578 23.5001 17.0154 23.4899 16.8902C23.478 16.745 23.4476 16.537 23.3365 16.319C23.1927 16.0368 22.9632 15.8073 22.681 15.6635C22.6195 15.6321 22.5587 15.6072 22.5 15.5873L22.5 5.5C22.5 3.84315 21.1569 2.5 19.5 2.5L4.50135 2.5C2.84464 2.5 1.50156 3.84292 1.50135 5.49963L1.50011 15.5873C1.44133 15.6072 1.38058 15.6321 1.31903 15.6635C1.03678 15.8073 0.807312 16.0368 0.663502 16.319ZM3.50012 15.5L8.76541 15.5C9.3177 15.5 9.76542 15.9477 9.76542 16.5H14.0654C14.0654 16.0099 14.4529 15.5 15.0654 15.5L20.5 15.5L20.5 5.5C20.5 4.94771 20.0523 4.5 19.5 4.5L4.50135 4.5C3.94912 4.5 3.50142 4.94764 3.50135 5.49988L3.50012 15.5ZM15.7979 17.5C15.4521 18.0978 14.8057 18.5 14.0654 18.5H9.76542C9.02513 18.5 8.37879 18.0978 8.03298 17.5H2.50001C2.50001 18.6046 3.39544 19.5 4.50001 19.5H19.5C20.6046 19.5 21.5 18.6046 21.5 17.5H15.7979Z" fill="black"/>
</svg>
