<svg width="24" height="24" viewBox="0 0 24 24" fill="none" xmlns="http://www.w3.org/2000/svg">
<path d="M10.0126 21.1494H5.36318C4.94915 21.1495 4.61336 21.4854 4.61318 21.8994C4.6134 22.3134 4.94918 22.6493 5.36318 22.6494H16.163C16.5767 22.6491 16.9128 22.3132 16.913 21.8994C16.9128 21.4856 16.5768 21.1498 16.163 21.1494H11.5126V17.1016C11.2669 17.132 11.0165 17.1494 10.7626 17.1494C10.5087 17.1494 10.2583 17.132 10.0126 17.1016V21.1494Z" fill="black"/>
<path d="M5.87783 6.25C5.93384 6.64345 5.96279 7.04214 5.96279 7.44238V11.0996C5.96293 13.7504 8.11185 15.8993 10.7626 15.8994C13.4134 15.8993 15.5632 13.7504 15.5634 11.0996V7.44238C15.5634 7.0421 15.5923 6.64349 15.6483 6.25H5.87783Z" fill="black"/>
<path d="M17.8397 3.73438C17.5614 4.19835 17.3385 4.69046 17.1718 5.2002C17.3654 5.11643 17.5525 5.05939 17.7401 5.03613C18.3689 4.95845 18.8694 5.06982 19.119 5.48535C19.4605 6.05468 19.4952 6.56985 19.3602 7.06055C19.2168 7.58108 18.869 8.118 18.372 8.64844C17.9068 9.14486 17.3523 9.59207 16.8134 9.98047V11.0996C16.8134 11.3455 16.797 11.588 16.7685 11.8262C17.5763 11.3045 18.6331 10.5634 19.4667 9.67383C20.0504 9.05083 20.5735 8.30523 20.8065 7.45898C21.0476 6.58292 20.9631 5.64393 20.4052 4.71387C19.7886 3.68656 18.7405 3.49665 17.9706 3.5166L17.8397 3.73438Z" fill="black"/>
<path d="M4.23134 2.09961C4.20126 2.09961 4.18266 2.13241 4.19814 2.1582L4.75771 3.09082C5.0732 3.61669 5.32784 4.17373 5.52138 4.75H16.0038C16.1974 4.17359 16.4529 3.61681 16.7685 3.09082L17.328 2.1582C17.3433 2.13258 17.3245 2.09999 17.2948 2.09961H4.23134Z" fill="black"/>
</svg>
