<svg width="24" height="24" viewBox="0 0 24 24" fill="none" xmlns="http://www.w3.org/2000/svg">
<path d="M9.51257 20.6494H5.36218C4.67233 20.6499 4.11234 21.2095 4.11218 21.8994C4.11238 22.5893 4.67235 23.1489 5.36218 23.1494H16.162C16.852 23.1492 17.4118 22.5895 17.412 21.8994C17.4118 21.2093 16.852 20.6497 16.162 20.6494H12.0126V17.5273C11.608 17.6055 11.19 17.6484 10.7626 17.6484C10.3351 17.6484 9.91722 17.6056 9.51257 17.5273V20.6494Z" fill="black"/>
<path d="M5.93347 6.75C5.95232 6.97964 5.96277 7.21088 5.96277 7.44238V11.0996C5.96291 13.7504 8.11171 15.8994 10.7626 15.8994C13.4135 15.8994 15.5622 13.7505 15.5624 11.0996V7.44238C15.5624 7.21088 15.5728 6.97963 15.5917 6.75H5.93347Z" fill="black"/>
<path d="M18.2684 3.99023C17.9687 4.48986 17.7381 5.02531 17.578 5.58008C17.6555 5.55656 17.73 5.54113 17.8016 5.53223C18.0548 5.501 18.2752 5.51004 18.4335 5.55566C18.5621 5.59296 18.6323 5.64564 18.6903 5.74219C18.9599 6.1915 18.9785 6.56631 18.8788 6.92871C18.7652 7.34051 18.4745 7.80734 18.0067 8.30664C17.7929 8.53473 17.557 8.75126 17.3134 8.95801V11.0986C17.3134 11.4455 17.2862 11.7868 17.2343 12.1191C18.0298 11.5952 19.0272 10.8733 19.8309 10.0156C20.4435 9.36182 21.026 8.5465 21.2889 7.5918C21.5654 6.58724 21.464 5.50637 20.8339 4.45605C20.3079 3.5798 19.5293 3.21498 18.8134 3.08203L18.2684 3.99023Z" fill="black"/>
<path d="M4.23132 2.09961C4.20125 2.09962 4.18265 2.13241 4.19812 2.1582L4.75769 3.09082C4.98096 3.46297 5.1732 3.8511 5.33582 4.25H16.1893C16.3519 3.8511 16.5442 3.46297 16.7675 3.09082L17.327 2.1582C17.3425 2.13241 17.3239 2.09961 17.2938 2.09961H4.23132Z" fill="black"/>
</svg>
