<svg width="24" height="24" viewBox="0 0 24 24" fill="none" xmlns="http://www.w3.org/2000/svg">
<path d="M10.2634 21.3999H5.36394C5.08799 21.4001 4.86403 21.6239 4.86394 21.8999C4.86407 22.1758 5.08802 22.3997 5.36394 22.3999H16.1637C16.4395 22.3995 16.6636 22.1757 16.6637 21.8999C16.6637 21.6241 16.4395 21.4003 16.1637 21.3999H11.2634V16.6255C11.0988 16.6402 10.9317 16.6499 10.7634 16.6499C10.5949 16.6499 10.428 16.6402 10.2634 16.6255V21.3999Z" fill="black"/>
<path d="M5.83855 6.00049C5.92065 6.47491 5.96355 6.95757 5.96355 7.44287V11.1001C5.96369 13.7509 8.11257 15.8998 10.7634 15.8999C13.4142 15.8999 15.563 13.7509 15.5632 11.1001V7.44287C15.5632 6.9576 15.6061 6.47488 15.6882 6.00049H5.83855Z" fill="black"/>
<path d="M20.193 4.84229C19.5373 3.75 18.3252 3.70453 17.5886 3.79541C17.4521 3.8123 17.3194 3.84137 17.1901 3.87549C16.9709 4.29543 16.7919 4.73355 16.654 5.18408C17.0104 4.97878 17.3546 4.83273 17.7106 4.78857C18.3608 4.70833 19.0048 4.80605 19.3356 5.35693C19.713 5.98632 19.7558 6.57257 19.6032 7.12744C19.4449 7.70232 19.0678 8.27389 18.5563 8.81982C17.8862 9.53501 17.0403 10.1507 16.3141 10.6304V11.1001C16.3141 11.3548 16.2966 11.6055 16.2634 11.8511C17.0911 11.3321 18.3382 10.5147 19.2858 9.50342C19.8551 8.89577 20.349 8.18513 20.5671 7.39307C20.7905 6.58126 20.7148 5.7122 20.193 4.84229Z" fill="black"/>
<path d="M4.23211 2.1001C4.20214 2.10024 4.18346 2.13295 4.1989 2.15869L4.75847 3.09131C5.11943 3.69295 5.40143 4.33482 5.60222 5.00049H15.9245C16.1253 4.33489 16.4073 3.6929 16.7682 3.09131L17.3278 2.15869C17.3433 2.1329 17.3247 2.1001 17.2946 2.1001H4.23211Z" fill="black"/>
</svg>
