<svg width="24" height="24" viewBox="0 0 24 24" fill="none" xmlns="http://www.w3.org/2000/svg">
<path d="M9.76156 20.8994H5.36215C4.81026 20.8998 4.36221 21.3474 4.36215 21.8994C4.36225 22.4513 4.81029 22.899 5.36215 22.8994H16.162C16.714 22.8993 17.1618 22.4515 17.162 21.8994C17.1619 21.3473 16.7141 20.8996 16.162 20.8994H11.7616V17.3184C11.436 17.3703 11.1017 17.3994 10.7616 17.3994C10.4213 17.3994 10.0872 17.3703 9.76156 17.3184V20.8994Z" fill="black"/>
<path d="M5.90902 6.5C5.94398 6.81185 5.96273 7.12668 5.96273 7.44238V11.0996C5.96287 13.7503 8.11181 15.8992 10.7625 15.8994C13.4133 15.8993 15.5622 13.7504 15.5623 11.0996V7.44238C15.5623 7.12669 15.5811 6.81185 15.6161 6.5H5.90902Z" fill="black"/>
<path d="M18.0536 3.8623C17.7649 4.34356 17.537 4.8562 17.3729 5.3877C17.51 5.33548 17.6409 5.3002 17.7694 5.28418C18.0412 5.25056 18.2992 5.2571 18.5018 5.31543C18.681 5.36728 18.8083 5.45473 18.9041 5.61426C19.2097 6.12373 19.2364 6.56845 19.119 6.99512C18.9904 7.4613 18.6708 7.96262 18.1883 8.47754C17.8486 8.83996 17.4587 9.17578 17.0623 9.48242V11.0996C17.0623 11.3959 17.0414 11.6873 17.0018 11.9727C17.8038 11.4497 18.8298 10.718 19.6483 9.84473C20.2464 9.2063 20.7987 8.42592 21.0467 7.52539C21.3056 6.58492 21.2132 5.57532 20.619 4.58496C20.0515 3.63954 19.1584 3.34059 18.4041 3.27832L18.0536 3.8623Z" fill="black"/>
<path d="M4.23031 2.09961C4.20067 2.10008 4.18191 2.13262 4.19711 2.1582L4.75668 3.09082C5.02637 3.54032 5.25157 4.01258 5.43246 4.5H16.0916C16.2725 4.01264 16.4978 3.54027 16.7674 3.09082L17.327 2.1582C17.3425 2.13241 17.3239 2.09961 17.2938 2.09961H4.23031Z" fill="black"/>
</svg>
