<svg width="24" height="24" viewBox="0 0 24 24" fill="none" xmlns="http://www.w3.org/2000/svg">
<path d="M10.0134 21.1499H5.36397C4.94995 21.15 4.61416 21.4859 4.61397 21.8999C4.6142 22.3139 4.94997 22.6498 5.36397 22.6499H16.1638C16.5775 22.6495 16.9135 22.3137 16.9138 21.8999C16.9136 21.4861 16.5776 21.1503 16.1638 21.1499H11.5134V17.1021C11.2677 17.1324 11.0173 17.1499 10.7634 17.1499C10.5095 17.1499 10.2591 17.1324 10.0134 17.1021V21.1499Z" fill="black"/>
<path d="M5.87862 6.25049C5.93463 6.64394 5.96358 7.04263 5.96358 7.44287V11.1001C5.96372 13.7508 8.11264 15.8997 10.7634 15.8999C13.4141 15.8998 15.564 13.7509 15.5642 11.1001V7.44287C15.5642 7.04258 15.5931 6.64398 15.6491 6.25049H5.87862Z" fill="black"/>
<path d="M17.8405 3.73486C17.5622 4.19884 17.3393 4.69095 17.1726 5.20068C17.3662 5.11692 17.5533 5.05988 17.7409 5.03662C18.3697 4.95894 18.8702 5.0703 19.1198 5.48584C19.4613 6.05517 19.496 6.57034 19.361 7.06104C19.2176 7.58156 18.8697 8.11849 18.3728 8.64893C17.9075 9.14535 17.3531 9.59255 16.8142 9.98096V11.1001C16.8142 11.346 16.7978 11.5885 16.7692 11.8267C17.5771 11.305 18.6339 10.5639 19.4675 9.67432C20.0512 9.05132 20.5743 8.30571 20.8073 7.45947C21.0484 6.5834 20.9639 5.64442 20.406 4.71436C19.7894 3.68705 18.7413 3.49714 17.9714 3.51709L17.8405 3.73486Z" fill="black"/>
<path d="M4.23213 2.1001C4.20205 2.1001 4.18345 2.1329 4.19893 2.15869L4.7585 3.09131C5.07399 3.61718 5.32863 4.17422 5.52217 4.75049H16.0046C16.1982 4.17408 16.4537 3.6173 16.7692 3.09131L17.3288 2.15869C17.344 2.13307 17.3253 2.10048 17.2956 2.1001H4.23213Z" fill="black"/>
</svg>
