<svg width="24" height="24" viewBox="0 0 24 24" fill="none" xmlns="http://www.w3.org/2000/svg">
<path d="M9.76126 20.8999H5.36184C4.80996 20.9003 4.36191 21.3479 4.36184 21.8999C4.36195 22.4518 4.80998 22.8995 5.36184 22.8999H16.1616C16.7137 22.8997 17.1615 22.452 17.1616 21.8999C17.1616 21.3478 16.7138 20.9001 16.1616 20.8999H11.7613V17.3188C11.4357 17.3707 11.1014 17.3999 10.7613 17.3999C10.421 17.3998 10.0869 17.3708 9.76126 17.3188V20.8999Z" fill="black"/>
<path d="M5.90872 6.50049C5.94367 6.81234 5.96243 7.12717 5.96243 7.44287V11.1001C5.96257 13.7508 8.11151 15.8997 10.7622 15.8999C13.413 15.8998 15.5619 13.7509 15.562 11.1001V7.44287C15.562 7.12718 15.5808 6.81233 15.6157 6.50049H5.90872Z" fill="black"/>
<path d="M18.0532 3.86279C17.7645 4.34405 17.5367 4.85669 17.3726 5.38818C17.5097 5.33597 17.6406 5.30069 17.7691 5.28467C18.0409 5.25105 18.2989 5.25759 18.5015 5.31592C18.6807 5.36776 18.808 5.45522 18.9038 5.61475C19.2094 6.12422 19.2361 6.56893 19.1187 6.99561C18.9901 7.46179 18.6705 7.96311 18.188 8.47803C17.8483 8.84044 17.4584 9.17627 17.062 9.48291V11.1001C17.062 11.3963 17.0411 11.6878 17.0015 11.9731C17.8035 11.4502 18.8295 10.7185 19.648 9.84521C20.2461 9.20679 20.7984 8.42641 21.0464 7.52588C21.3053 6.58541 21.2129 5.57581 20.6187 4.58545C20.0512 3.64002 19.1581 3.34108 18.4038 3.27881L18.0532 3.86279Z" fill="black"/>
<path d="M4.23001 2.1001C4.20036 2.10056 4.1816 2.13311 4.1968 2.15869L4.75637 3.09131C5.02607 3.5408 5.25126 4.01307 5.43215 4.50049H16.0913C16.2722 4.01313 16.4975 3.54076 16.7671 3.09131L17.3267 2.15869C17.3422 2.1329 17.3236 2.1001 17.2935 2.1001H4.23001Z" fill="black"/>
</svg>
