<svg width="24" height="24" viewBox="0 0 24 24" fill="none" xmlns="http://www.w3.org/2000/svg">
<path d="M10.2624 21.3994H5.36296C5.08701 21.3996 4.86305 21.6234 4.86296 21.8994C4.86309 22.1753 5.08704 22.3993 5.36296 22.3994H16.1628C16.4385 22.3991 16.6626 22.1752 16.6628 21.8994C16.6627 21.6236 16.4386 21.3998 16.1628 21.3994H11.2624V16.625C11.0979 16.6397 10.9307 16.6494 10.7624 16.6494C10.5939 16.6494 10.427 16.6397 10.2624 16.625V21.3994Z" fill="black"/>
<path d="M5.83757 6C5.91967 6.47442 5.96257 6.95709 5.96257 7.44238V11.0996C5.96271 13.7504 8.11159 15.8993 10.7624 15.8994C13.4133 15.8994 15.562 13.7505 15.5622 11.0996V7.44238C15.5622 6.95711 15.6051 6.47439 15.6872 6H5.83757Z" fill="black"/>
<path d="M20.1921 4.8418C19.5363 3.74952 18.3242 3.70404 17.5876 3.79492C17.4511 3.81181 17.3184 3.84088 17.1891 3.875C16.9699 4.29494 16.791 4.73306 16.653 5.18359C17.0094 4.97829 17.3536 4.83225 17.7096 4.78809C18.3598 4.70784 19.0038 4.80556 19.3346 5.35645C19.7121 5.98584 19.7549 6.57208 19.6022 7.12695C19.4439 7.70183 19.0668 8.2734 18.5553 8.81934C17.8852 9.53452 17.0394 10.1502 16.3132 10.6299V11.0996C16.3131 11.3543 16.2956 11.605 16.2624 11.8506C17.0901 11.3316 18.3372 10.5142 19.2848 9.50293C19.8541 8.89528 20.348 8.18464 20.5661 7.39258C20.7895 6.58077 20.7138 5.71172 20.1921 4.8418Z" fill="black"/>
<path d="M4.23113 2.09961C4.20116 2.09975 4.18248 2.13246 4.19793 2.1582L4.7575 3.09082C5.11845 3.69246 5.40045 4.33433 5.60125 5H15.9235C16.1243 4.3344 16.4064 3.69241 16.7673 3.09082L17.3268 2.1582C17.3423 2.13241 17.3237 2.09961 17.2936 2.09961H4.23113Z" fill="black"/>
</svg>
