<svg width="24" height="24" viewBox="0 0 24 24" fill="none" xmlns="http://www.w3.org/2000/svg">
<path fill-rule="evenodd" clip-rule="evenodd" d="M3.55465 2.54409C3.23924 2.0184 3.61792 1.34961 4.23096 1.34961H17.2943C17.9073 1.34961 18.286 2.01841 17.9706 2.54409L17.411 3.47674C17.3905 3.51093 17.3702 3.54525 17.3503 3.57971C17.4179 3.56678 17.4865 3.5559 17.5561 3.5473C18.3142 3.45355 19.6684 3.4849 20.4057 4.71374C20.9639 5.64403 21.0482 6.58291 20.807 7.45919C20.574 8.30572 20.0505 9.05066 19.4666 9.67382C18.4203 10.7906 17.0235 11.6741 16.2071 12.1819C15.7512 14.4886 13.8659 16.2815 11.5126 16.5994V21.1496H16.1626C16.5768 21.1496 16.9126 21.4854 16.9126 21.8996C16.9126 22.3138 16.5768 22.6496 16.1626 22.6496H5.36261C4.9484 22.6496 4.61261 22.3138 4.61261 21.8996C4.61261 21.4854 4.9484 21.1496 5.36261 21.1496H10.0126V16.5994C7.30214 16.2332 5.21261 13.9104 5.21261 11.0996V7.44218C5.21261 6.04526 4.83296 4.6746 4.11424 3.47674L3.55465 2.54409ZM10.7626 15.1496H10.7637C13 15.149 14.8126 13.336 14.8126 11.0996V7.44218C14.8126 7.04205 14.8387 6.64372 14.8902 6.2496H6.63505C6.68653 6.64372 6.71261 7.04205 6.71261 7.44218V11.0996C6.71261 13.3364 8.52585 15.1496 10.7626 15.1496ZM16.3126 10.331V7.44218C16.3126 6.79645 16.3937 6.15633 16.552 5.5363C16.9839 5.26398 17.3609 5.08285 17.7402 5.03596C18.3693 4.95816 18.8699 5.0695 19.1195 5.48548C19.4613 6.05519 19.4959 6.57011 19.3608 7.06109C19.2174 7.58181 18.8692 8.11757 18.372 8.64821C17.7602 9.30126 16.9964 9.87193 16.3126 10.331ZM5.48547 2.84961C5.8323 3.45227 6.10835 4.08984 6.31011 4.7496H15.2151C15.4169 4.08984 15.6929 3.45227 16.0397 2.84961H5.48547Z" fill="black"/>
</svg>
