<svg width="24" height="24" viewBox="0 0 24 24" fill="none" xmlns="http://www.w3.org/2000/svg">
<path fill-rule="evenodd" clip-rule="evenodd" d="M3.12589 2.80134C2.61051 1.94238 3.22925 0.849609 4.23094 0.849609H17.2942C18.2959 0.849609 18.9146 1.9424 18.3993 2.80134L18.2683 3.0196C19.1036 3.05706 20.1703 3.34957 20.8345 4.45649C21.4647 5.50698 21.5656 6.58718 21.289 7.59189C21.0261 8.54702 20.4443 9.36169 19.8315 10.0157C18.8139 11.1017 17.4876 11.9705 16.651 12.4944C16.1155 14.7636 14.3023 16.5393 12.0126 17.0203V20.6496H16.1626C16.8529 20.6496 17.4126 21.2093 17.4126 21.8996C17.4126 22.59 16.8529 23.1496 16.1626 23.1496H5.36259C4.67223 23.1496 4.11259 22.59 4.11259 21.8996C4.11259 21.2093 4.67223 20.6496 5.36259 20.6496H9.51259V17.0203C6.77103 16.4444 4.71259 14.0124 4.71259 11.0996V7.44218C4.71259 6.13588 4.35756 4.85414 3.68548 3.73399L3.12589 2.80134ZM7.21259 11.0996C7.21259 13.0602 8.80198 14.6496 10.7626 14.6496C12.7232 14.6496 14.3126 13.0602 14.3126 11.0996V7.44218C14.3126 7.21061 14.3209 6.97961 14.3373 6.7496H7.18785C7.2043 6.97961 7.21259 7.21061 7.21259 7.44218V11.0996ZM16.8126 9.36222V7.44218C16.8126 6.90587 16.8724 6.3737 16.9895 5.85515C17.3163 5.66332 17.57 5.56081 17.8015 5.53218C18.0552 5.50081 18.2749 5.51009 18.4333 5.55589C18.5626 5.59326 18.6325 5.64571 18.6907 5.74273C18.9604 6.19224 18.9785 6.56584 18.8787 6.92839C18.7652 7.34051 18.4755 7.80654 18.0072 8.30634C17.6491 8.6885 17.2342 9.04236 16.8126 9.36222ZM6.30772 3.34961C6.44447 3.64375 6.5662 3.94414 6.67258 4.2496H14.8526C14.959 3.94414 15.0807 3.64375 15.2175 3.34961H6.30772Z" fill="black"/>
</svg>
