<svg width="24" height="24" viewBox="0 0 24 24" fill="none" xmlns="http://www.w3.org/2000/svg">
<path fill-rule="evenodd" clip-rule="evenodd" d="M3.98299 2.28733C3.86754 2.0949 4.00615 1.8501 4.23055 1.8501H17.2938C17.5183 1.8501 17.6569 2.09491 17.5414 2.28733L16.9818 3.21998C16.7389 3.62485 16.5324 4.04825 16.3636 4.4852C16.7457 4.27344 17.1621 4.10027 17.617 4.04401C18.3322 3.95558 19.4018 4.01359 19.9766 4.97148C20.4626 5.78157 20.5304 6.57913 20.3245 7.32698C20.1214 8.06491 19.6564 8.74012 19.1014 9.33244C18.0662 10.4373 16.6615 11.3107 15.8553 11.8121L15.753 11.8758C15.3922 14.2162 13.4245 16.0264 11.0122 16.144V21.6501H16.1622C16.3003 21.6501 16.4122 21.762 16.4122 21.9001C16.4122 22.0382 16.3003 22.1501 16.1622 22.1501H5.3622C5.22413 22.1501 5.1122 22.0382 5.1122 21.9001C5.1122 21.762 5.22413 21.6501 5.3622 21.6501H10.5122V16.144C7.83929 16.0137 5.7122 13.8053 5.7122 11.1001V7.44267C5.7122 5.95513 5.30792 4.49554 4.54258 3.21998L3.98299 2.28733ZM10.7629 15.6501C13.2755 15.6497 15.3122 13.6128 15.3122 11.1001V7.44267C15.3122 6.87199 15.3683 6.30519 15.4783 5.75009H6.04611C6.15612 6.30519 6.2122 6.87199 6.2122 7.44267V11.1001C6.2122 13.613 8.24999 15.6501 10.7629 15.6501ZM15.81 11.251C15.8115 11.2009 15.8122 11.1506 15.8122 11.1001V7.44267C15.8122 6.68773 15.9163 5.93999 16.1189 5.21985C16.125 5.21656 16.1309 5.213 16.1368 5.20916C16.6386 4.88007 17.1374 4.60712 17.6784 4.54023C18.3505 4.45711 19.1357 4.54179 19.5478 5.22872C19.9618 5.91863 20.0129 6.57487 19.8424 7.19428C19.6692 7.8236 19.2626 8.42909 18.7365 8.99057C17.8349 9.9528 16.6301 10.7376 15.81 11.251ZM4.60375 2.3501L4.97133 2.96274C5.40246 3.68129 5.7256 4.45489 5.93388 5.25875C5.95474 5.2531 5.97668 5.25009 5.99933 5.25009H15.4993C15.5308 5.25009 15.5608 5.25589 15.5885 5.26647C15.7967 4.45985 16.1206 3.68359 16.5531 2.96274L16.9207 2.3501H4.60375Z" fill="black"/>
</svg>
