<svg width="24" height="24" viewBox="0 0 24 24" fill="none" xmlns="http://www.w3.org/2000/svg">
<path d="M10.5129 21.6494H5.36251C5.22482 21.6497 5.11272 21.7617 5.11251 21.8994C5.11277 22.0371 5.22485 22.1491 5.36251 22.1494H16.1623C16.3 22.1492 16.4121 22.0371 16.4123 21.8994C16.4121 21.7617 16.3001 21.6496 16.1623 21.6494H11.0129V16.3926C10.9302 16.3964 10.8466 16.3994 10.7629 16.3994C10.6793 16.3994 10.5956 16.3964 10.5129 16.3926V21.6494Z" fill="black"/>
<path d="M5.79122 5.75C5.90444 6.30447 5.96309 6.87162 5.96309 7.44238V11.0996C5.96323 13.7505 8.11202 15.8994 10.7629 15.8994C13.4136 15.8993 15.5626 13.7504 15.5627 11.0996V7.44238C15.5627 6.87158 15.6213 6.30451 15.7346 5.75H5.79122Z" fill="black"/>
<path d="M19.9768 4.9707C19.402 4.01359 18.3323 3.95462 17.6174 4.04297C17.2944 4.08295 16.9909 4.18264 16.7053 4.3125C16.6063 4.54397 16.5191 4.7802 16.4426 5.01953C16.8435 4.78004 17.2475 4.59345 17.6789 4.54004C18.3508 4.45701 19.1359 4.54203 19.5481 5.22852C19.9615 5.91797 20.0132 6.57431 19.843 7.19336C19.6697 7.82255 19.2625 8.42886 18.7365 8.99023C17.9241 9.85718 16.8651 10.5798 16.0637 11.0898V11.0996C16.0637 11.3028 16.0518 11.504 16.0295 11.7012C16.8526 11.1873 18.1379 10.3607 19.1018 9.33203C19.6567 8.73981 20.1222 8.06396 20.3254 7.32617C20.531 6.57864 20.4624 5.78043 19.9768 4.9707Z" fill="black"/>
<path d="M4.23165 2.09961C4.20156 2.09961 4.18297 2.13241 4.19844 2.1582L4.75801 3.09082C5.1639 3.76739 5.47038 4.49489 5.67305 5.25H15.8527C16.0554 4.4948 16.3618 3.76747 16.7678 3.09082L17.3273 2.1582C17.3428 2.13249 17.3241 2.09982 17.2941 2.09961H4.23165Z" fill="black"/>
</svg>
