<svg width="24" height="24" viewBox="0 0 24 24" fill="none" xmlns="http://www.w3.org/2000/svg">
<path d="M9.51172 20.6499H5.36133C4.67148 20.6504 4.11148 21.21 4.11133 21.8999C4.11152 22.5898 4.6715 23.1494 5.36133 23.1499H16.1611C16.8512 23.1497 17.4109 22.5899 17.4111 21.8999C17.411 21.2098 16.8512 20.6501 16.1611 20.6499H12.0117V17.5278C11.6071 17.606 11.1891 17.6489 10.7617 17.6489C10.3342 17.6489 9.91637 17.6061 9.51172 17.5278V20.6499Z" fill="black"/>
<path d="M5.93262 6.75049C5.95147 6.98012 5.96191 7.21137 5.96191 7.44287V11.1001C5.96205 13.7509 8.11085 15.8999 10.7617 15.8999C13.4126 15.8999 15.5614 13.7509 15.5615 11.1001V7.44287C15.5615 7.21137 15.572 6.98012 15.5908 6.75049H5.93262Z" fill="black"/>
<path d="M18.2676 3.99072C17.9678 4.49035 17.7373 5.0258 17.5771 5.58057C17.6546 5.55705 17.7291 5.54162 17.8008 5.53271C18.0539 5.50149 18.2744 5.51052 18.4326 5.55615C18.5613 5.59345 18.6314 5.64613 18.6895 5.74268C18.959 6.19198 18.9776 6.5668 18.8779 6.9292C18.7643 7.34099 18.4736 7.80783 18.0059 8.30713C17.7921 8.53522 17.5561 8.75175 17.3125 8.9585V11.0991C17.3125 11.446 17.2854 11.7873 17.2334 12.1196C18.0289 11.5957 19.0263 10.8738 19.8301 10.0161C20.4426 9.36231 21.0251 8.54699 21.2881 7.59229C21.5645 6.58773 21.4632 5.50686 20.833 4.45654C20.307 3.58029 19.5285 3.21547 18.8125 3.08252L18.2676 3.99072Z" fill="black"/>
<path d="M4.23047 2.1001C4.2004 2.10011 4.18179 2.1329 4.19727 2.15869L4.75684 3.09131C4.98011 3.46346 5.17235 3.85159 5.33496 4.25049H16.1885C16.3511 3.85159 16.5433 3.46346 16.7666 3.09131L17.3262 2.15869C17.3416 2.1329 17.3231 2.1001 17.293 2.1001H4.23047Z" fill="black"/>
</svg>
