<svg width="24" height="24" viewBox="0 0 24 24" fill="none" xmlns="http://www.w3.org/2000/svg">
<path fill-rule="evenodd" clip-rule="evenodd" d="M3.12509 2.80183C2.60972 1.94287 3.22846 0.850098 4.23014 0.850098H17.2934C18.2951 0.850098 18.9139 1.94289 18.3985 2.80183L18.2675 3.02008C19.1028 3.05755 20.1695 3.35006 20.8337 4.45698C21.464 5.50747 21.5648 6.58767 21.2882 7.59237C21.0253 8.54751 20.4435 9.36218 19.8307 10.0162C18.8131 11.1022 17.4868 11.971 16.6502 12.4949C16.1147 14.7641 14.3015 16.5398 12.0118 17.0208V20.6501H16.1618C16.8521 20.6501 17.4118 21.2097 17.4118 21.9001C17.4118 22.5905 16.8521 23.1501 16.1618 23.1501H5.36179C4.67144 23.1501 4.11179 22.5905 4.11179 21.9001C4.11179 21.2097 4.67144 20.6501 5.36179 20.6501H9.51179V17.0208C6.77024 16.4449 4.71179 14.0129 4.71179 11.1001V7.44267C4.71179 6.13637 4.35677 4.85462 3.68468 3.73448L3.12509 2.80183ZM7.21179 11.1001C7.21179 13.0607 8.80118 14.6501 10.7618 14.6501C12.7224 14.6501 14.3118 13.0607 14.3118 11.1001V7.44267C14.3118 7.2111 14.3201 6.9801 14.3365 6.75009H7.18706C7.20351 6.9801 7.21179 7.2111 7.21179 7.44267V11.1001ZM16.8118 9.36271V7.44267C16.8118 6.90636 16.8716 6.37419 16.9887 5.85564C17.3155 5.66381 17.5692 5.5613 17.8007 5.53267C18.0544 5.5013 18.2741 5.51058 18.4325 5.55637C18.5618 5.59375 18.6317 5.6462 18.6899 5.74322C18.9596 6.19273 18.9777 6.56633 18.8779 6.92888C18.7645 7.341 18.4747 7.80703 18.0064 8.30683C17.6483 8.68899 17.2334 9.04284 16.8118 9.36271ZM6.30693 3.3501C6.44368 3.64424 6.56541 3.94463 6.67179 4.25009H14.8518C14.9582 3.94463 15.0799 3.64424 15.2167 3.3501H6.30693Z" fill="black"/>
</svg>
