<svg width="24" height="25" viewBox="0 0 24 25" fill="none" xmlns="http://www.w3.org/2000/svg">
<path d="M18.1434 14.5808C18.0545 14.8375 17.9499 15.0868 17.8309 15.3278C16.7698 17.4752 14.5574 18.9521 12 18.9521C9.44349 18.9521 7.2317 17.4762 6.1702 15.33C6.05084 15.0886 5.94603 14.8389 5.8569 14.5817C5.67429 14.0549 5.55753 13.4972 5.51649 12.9187C5.50556 12.7646 5.5 12.609 5.5 12.4521C5.5 12.1004 5.93075 11.9624 6.18735 12.2029C6.27809 12.288 6.37069 12.371 6.4651 12.4521C6.87345 12.8026 7.31546 13.1151 7.78561 13.3839C7.90963 13.4548 8.03559 13.5227 8.16342 13.5874C9.31568 14.171 10.6188 14.4999 11.9988 14.4999C13.3799 14.4999 14.684 14.1705 15.837 13.586C15.9645 13.5213 16.0902 13.4536 16.2139 13.3828C16.6833 13.1142 17.1247 12.8021 17.5325 12.4521C17.6271 12.3709 17.7198 12.2876 17.8108 12.2024C18.068 11.9612 18.5 12.0994 18.5 12.4521C18.5 12.6094 18.4944 12.7654 18.4834 12.92C18.4423 13.4977 18.3257 14.0546 18.1434 14.5808Z" fill="black"/>
<path d="M17.75 8.5C17.75 9.4665 16.9665 10.25 16 10.25C15.0335 10.25 14.25 9.4665 14.25 8.5C14.25 7.5335 15.0335 6.75 16 6.75C16.9665 6.75 17.75 7.5335 17.75 8.5Z" fill="black"/>
<path d="M10.25 8.5C10.25 9.4665 9.4665 10.25 8.5 10.25C7.5335 10.25 6.75 9.4665 6.75 8.5C6.75 7.5335 7.5335 6.75 8.5 6.75C9.4665 6.75 10.25 7.5335 10.25 8.5Z" fill="black"/>
<path fill-rule="evenodd" clip-rule="evenodd" d="M24 12C24 18.6274 18.6274 24 12 24C5.37258 24 0 18.6274 0 12C0 5.37258 5.37258 0 12 0C18.6274 0 24 5.37258 24 12ZM12 21.5C17.2467 21.5 21.5 17.2467 21.5 12C21.5 6.75329 17.2467 2.5 12 2.5C6.7533 2.5 2.5 6.75329 2.5 12C2.5 17.2467 6.7533 21.5 12 21.5Z" fill="black"/>
</svg>
