<svg width="24" height="25" viewBox="0 0 24 25" fill="none" xmlns="http://www.w3.org/2000/svg">
<path fill-rule="evenodd" clip-rule="evenodd" d="M12 24C18.6274 24 24 18.6274 24 12C24 5.37258 18.6274 0 12 0C5.37258 0 0 5.37258 0 12C0 18.6274 5.37258 24 12 24ZM18.1433 14.5812C18.0542 14.8382 17.9496 15.0877 17.8304 15.3289C16.7691 17.4757 14.5569 18.9521 12 18.9521C9.44319 18.9521 7.23118 17.4758 6.16982 15.3292C6.05057 15.088 5.94584 14.8384 5.85679 14.5814C5.67428 14.0548 5.55758 13.4974 5.51652 12.9192C5.50557 12.7649 5.5 12.6091 5.5 12.4521C5.5 12.1 5.93121 11.962 6.18805 12.2027C6.27885 12.2878 6.37152 12.371 6.46599 12.4521C6.87412 12.8025 7.31588 13.1148 7.78576 13.3835C7.90968 13.4544 8.03555 13.5223 8.16328 13.587C9.31583 14.1709 10.6194 14.5 11.9998 14.5C13.3804 14.5 14.6841 14.1709 15.8368 13.5867C15.9645 13.522 16.0903 13.4542 16.2142 13.3834C16.6839 13.1146 17.1256 12.8024 17.5336 12.4521C17.6281 12.371 17.7208 12.2878 17.8117 12.2027C18.0686 11.9618 18.5 12.0999 18.5 12.4521C18.5 12.6092 18.4944 12.765 18.4835 12.9194C18.4424 13.4975 18.3257 14.0547 18.1433 14.5812ZM17.75 8.5C17.75 9.4665 16.9665 10.25 16 10.25C15.0335 10.25 14.25 9.4665 14.25 8.5C14.25 7.5335 15.0335 6.75 16 6.75C16.9665 6.75 17.75 7.5335 17.75 8.5ZM10.25 8.5C10.25 9.4665 9.4665 10.25 8.5 10.25C7.5335 10.25 6.75 9.4665 6.75 8.5C6.75 7.5335 7.5335 6.75 8.5 6.75C9.4665 6.75 10.25 7.5335 10.25 8.5Z" fill="black"/>
</svg>
