<svg width="24" height="24" viewBox="0 0 24 24" fill="none" xmlns="http://www.w3.org/2000/svg">
<path fill-rule="evenodd" clip-rule="evenodd" d="M18.4093 13.5402C18.4003 13.5938 18.3906 13.6471 18.3803 13.7002C17.7982 16.693 15.1629 18.9521 12 18.9521C8.8372 18.9521 6.20201 16.6931 5.6198 13.7006C5.60945 13.6474 5.59975 13.594 5.59071 13.5404C5.55632 13.3364 5.53143 13.1291 5.51652 12.9192C5.50557 12.7649 5.5 12.6091 5.5 12.4521C5.5 12.1 5.93121 11.962 6.18805 12.2027C6.27885 12.2878 6.37152 12.371 6.46599 12.4521C6.61801 12.5826 6.77469 12.7078 6.93575 12.8275C6.9633 12.8479 6.99097 12.8682 7.01877 12.8884C8.41847 13.9023 10.1393 14.5 11.9998 14.5C13.8605 14.5 15.5815 13.9022 16.9813 12.8881C17.009 12.868 17.0367 12.8477 17.0642 12.8272C17.2251 12.7077 17.3817 12.5825 17.5336 12.4521C17.6281 12.371 17.7208 12.2878 17.8117 12.2027C18.0686 11.9618 18.5 12.0999 18.5 12.4521C18.5 12.6092 18.4944 12.765 18.4835 12.9194C18.4686 13.1292 18.4437 13.3363 18.4093 13.5402ZM16.2787 15.0405C15.4024 16.4861 13.814 17.4521 12 17.4521C10.1861 17.4521 8.59783 16.4862 7.72141 15.0407C9.01867 15.6556 10.4696 16 11.9998 16C13.5303 16 14.9813 15.6555 16.2787 15.0405Z" fill="black"/>
<path d="M17.25 9.5C17.25 10.1904 16.6904 10.75 16 10.75C15.3096 10.75 14.75 10.1904 14.75 9.5C14.75 8.80964 15.3096 8.25 16 8.25C16.6904 8.25 17.25 8.80964 17.25 9.5Z" fill="black"/>
<path d="M9.75 9.5C9.75 10.1904 9.19036 10.75 8.5 10.75C7.80964 10.75 7.25 10.1904 7.25 9.5C7.25 8.80964 7.80964 8.25 8.5 8.25C9.19036 8.25 9.75 8.80964 9.75 9.5Z" fill="black"/>
<path fill-rule="evenodd" clip-rule="evenodd" d="M23.5 12C23.5 18.3513 18.3513 23.5 12 23.5C5.64873 23.5 0.5 18.3513 0.5 12C0.5 5.64873 5.64873 0.5 12 0.5C18.3513 0.5 23.5 5.64873 23.5 12ZM12 22C17.5228 22 22 17.5228 22 12C22 6.47715 17.5228 2 12 2C6.47715 2 2 6.47715 2 12C2 17.5228 6.47715 22 12 22Z" fill="black"/>
</svg>
