<svg width="24" height="24" viewBox="0 0 24 24" fill="none" xmlns="http://www.w3.org/2000/svg">
<path fill-rule="evenodd" clip-rule="evenodd" d="M4.18869 0.75C3.63827 0.75 3.20971 0.75 2.86605 0.778079C2.51708 0.80659 2.23355 0.865292 1.97852 0.995235C1.55516 1.21095 1.21095 1.55516 0.995236 1.97852C0.865292 2.23355 0.806591 2.51708 0.778078 2.86605C0.749998 3.20974 0.749998 3.63821 0.75 4.18869V19.8113C0.75 19.8457 0.749998 19.8796 0.750006 19.9131C0.750107 20.415 0.751753 20.8117 0.778078 21.134C0.806591 21.4829 0.865292 21.7665 0.995236 22.0215C1.21095 22.4448 1.55516 22.789 1.97852 23.0048C2.23355 23.1347 2.51708 23.1934 2.86605 23.2219C3.20971 23.25 3.63815 23.25 4.18856 23.25C4.18861 23.25 4.18852 23.25 4.18856 23.25H19.8113C20.3618 23.25 20.7903 23.25 21.134 23.2219C21.4829 23.1934 21.7665 23.1347 22.0215 23.0048C22.4448 22.789 22.789 22.4448 23.0048 22.0215C23.1347 21.7664 23.1934 21.4829 23.2219 21.134C23.25 20.7903 23.25 20.3618 23.25 19.8113V4.18868C23.25 3.6382 23.25 3.20974 23.2219 2.86605C23.1934 2.51708 23.1347 2.23355 23.0048 1.97852C22.789 1.55516 22.4448 1.21095 22.0215 0.995235C21.7664 0.865292 21.4829 0.80659 21.134 0.778079C20.7903 0.75 20.3619 0.75 19.8115 0.75H4.18869ZM13.75 22.75H4.2C3.70634 22.75 3.33219 22.7499 3.03134 22.7322C2.98836 22.7297 2.94688 22.7269 2.90676 22.7236C2.58872 22.6976 2.37831 22.6473 2.20552 22.5593C1.87623 22.3915 1.60852 22.1238 1.44074 21.7945C1.3527 21.6217 1.3024 21.4113 1.27642 21.0932C1.25019 20.7723 1.25 20.3642 1.25 19.8V10.25H10.8C11.3642 10.25 11.7723 10.2502 12.0932 10.2764C12.4113 10.3024 12.6217 10.3527 12.7945 10.4407C13.1238 10.6085 13.3915 10.8762 13.5593 11.2055C13.6473 11.3783 13.6976 11.5887 13.7236 11.9068C13.7498 12.2277 13.75 12.6358 13.75 13.2V22.75ZM1.25 9.75H10.8113C11.3618 9.75 11.7903 9.75 12.134 9.77808C12.4829 9.80659 12.7664 9.86529 13.0215 9.99524C13.4448 10.211 13.789 10.5552 14.0048 10.9785C14.1347 11.2336 14.1934 11.5171 14.2219 11.866C14.25 12.2097 14.25 12.6382 14.25 13.1887V22.75H19.8C20.3642 22.75 20.7723 22.7498 21.0932 22.7236C21.4113 22.6976 21.6217 22.6473 21.7945 22.5593C22.1238 22.3915 22.3915 22.1238 22.5593 21.7945C22.6473 21.6217 22.6976 21.4113 22.7236 21.0932C22.7498 20.7723 22.75 20.3642 22.75 19.8V4.2C22.75 3.63582 22.7498 3.22772 22.7236 2.90676C22.6976 2.58872 22.6473 2.37831 22.5593 2.20552C22.3915 1.87623 22.1238 1.60852 21.7945 1.44074C21.6217 1.3527 21.4113 1.3024 21.0932 1.27642C20.7723 1.25019 20.3642 1.25 19.8 1.25H4.2C3.63582 1.25 3.22772 1.25019 2.90676 1.27642C2.58872 1.3024 2.37831 1.3527 2.20552 1.44074C1.87623 1.60852 1.60852 1.87623 1.44074 2.20552C1.3527 2.37831 1.3024 2.58872 1.27642 2.90676C1.25019 3.22772 1.25 3.63582 1.25 4.2V9.75Z" fill="black"/>
</svg>
