<svg width="25" height="25" viewBox="0 0 25 25" fill="none" xmlns="http://www.w3.org/2000/svg">
<path fill-rule="evenodd" clip-rule="evenodd" d="M4.40416 1.41582e-06H20.0958C20.6166 -2.37395e-05 21.0805 -4.61414e-05 21.4654 0.0314044C21.8762 0.0649685 22.306 0.140489 22.7255 0.354233C23.337 0.665822 23.8342 1.16301 24.1458 1.77454C24.3595 2.19403 24.435 2.62381 24.4686 3.03462C24.5001 3.41957 24.5 3.88336 24.5 4.40413V20.0959C24.5 20.6166 24.5001 21.0804 24.4686 21.4654C24.435 21.8762 24.3595 22.306 24.1458 22.7255C23.8342 23.337 23.337 23.8342 22.7255 24.1458C22.306 24.3595 21.8762 24.435 21.4654 24.4686C21.0804 24.5001 20.6166 24.5 20.0959 24.5H4.40417C3.8834 24.5 3.41956 24.5001 3.03462 24.4686C2.62381 24.435 2.19403 24.3595 1.77453 24.1458C1.16301 23.8342 0.665821 23.337 0.354232 22.7255C0.140487 22.306 0.0649677 21.8762 0.0314041 21.4654C-4.80451e-05 21.0804 -2.51569e-05 20.6166 1.54597e-06 20.0958V4.40416C-2.51569e-05 3.88338 -4.80451e-05 3.41957 0.0314041 3.03462C0.0649677 2.62381 0.140487 2.19403 0.354232 1.77454C0.665821 1.16301 1.16301 0.665822 1.77453 0.354233C2.19403 0.140489 2.62381 0.0649685 3.03462 0.0314044C3.41955 -4.61414e-05 3.8834 -2.37395e-05 4.40416 1.41582e-06ZM2.5 9V4.45001C2.5 3.86933 2.50098 3.50899 2.5231 3.2382C2.54389 2.98372 2.57706 2.91871 2.58166 2.90969C2.65356 2.76857 2.76839 2.65365 2.90951 2.58175C2.91853 2.57715 2.98372 2.54389 3.2382 2.5231C3.50899 2.50098 3.86933 2.5 4.45 2.5H20.05C20.6307 2.5 20.991 2.50098 21.2618 2.5231C21.5163 2.54389 21.5813 2.57706 21.5903 2.58166C21.7314 2.65357 21.8464 2.76839 21.9183 2.90951C21.9229 2.91855 21.9561 2.98376 21.9769 3.2382C21.999 3.50899 22 3.86933 22 4.45001V20.05C22 20.6307 21.999 20.991 21.9769 21.2618C21.9561 21.5163 21.923 21.5813 21.9183 21.5903C21.8464 21.7314 21.7316 21.8464 21.5905 21.9183C21.5815 21.9229 21.5163 21.9561 21.2618 21.9769C20.991 21.999 20.6307 22 20.05 22H15.5L15.5 13.4042C15.5 12.8834 15.5001 12.4196 15.4686 12.0346C15.435 11.6238 15.3595 11.194 15.1458 10.7745C14.8342 10.163 14.337 9.66582 13.7255 9.35423C13.306 9.14049 12.8762 9.06497 12.4654 9.0314C12.0804 8.99995 11.6166 8.99998 11.0958 9L2.5 9Z" fill="black"/>
</svg>
