<svg width="26" height="26" viewBox="0 0 26 26" fill="none" xmlns="http://www.w3.org/2000/svg">
<path fill-rule="evenodd" clip-rule="evenodd" d="M5.15416 0.750001C4.6334 0.749976 4.16955 0.749954 3.78462 0.781404C3.37381 0.814968 2.94403 0.890489 2.52453 1.10423C1.91301 1.41582 1.41582 1.91301 1.10423 2.52454C0.890487 2.94403 0.814968 3.37381 0.781404 3.78462C0.749952 4.16957 0.749975 4.63338 0.750002 5.15416V20.8458C0.749975 21.3666 0.749952 21.8304 0.781404 22.2154C0.814968 22.6262 0.890487 23.056 1.10423 23.4755C1.41582 24.087 1.91301 24.5842 2.52453 24.8958C2.94403 25.1095 3.37381 25.185 3.78462 25.2186C4.16956 25.2501 4.63336 25.25 5.15413 25.25H20.8459C21.3666 25.25 21.8304 25.2501 22.2154 25.2186C22.6262 25.185 23.056 25.1095 23.4755 24.8958C24.087 24.5842 24.5842 24.087 24.8958 23.4755C25.1095 23.056 25.185 22.6262 25.2186 22.2154C25.2501 21.8304 25.25 21.3666 25.25 20.8459V5.15413C25.25 4.63336 25.2501 4.16957 25.2186 3.78462C25.185 3.37381 25.1095 2.94403 24.8958 2.52454C24.5842 1.91301 24.087 1.41582 23.4755 1.10423C23.056 0.890489 22.6262 0.814968 22.2154 0.781404C21.8305 0.749954 21.3667 0.749976 20.8459 0.750001H5.15416ZM13.75 22.75H5.2C5.16371 22.75 5.12828 22.75 5.09368 22.75C4.57463 22.7498 4.24207 22.7477 3.9882 22.7269C3.73374 22.7061 3.66872 22.673 3.65969 22.6684C3.51857 22.5964 3.40365 22.4816 3.33175 22.3405C3.32715 22.3315 3.29389 22.2663 3.2731 22.0118C3.25098 21.741 3.25 21.3807 3.25 20.8V12.25H11.8C12.3807 12.25 12.741 12.251 13.0118 12.2731C13.2663 12.2939 13.3313 12.3271 13.3403 12.3317C13.4814 12.4036 13.5964 12.5184 13.6683 12.6595C13.6729 12.6685 13.7061 12.7337 13.7269 12.9882C13.749 13.259 13.75 13.6193 13.75 14.2V22.75ZM3.25 9.75L11.8458 9.75C12.3666 9.74998 12.8304 9.74995 13.2154 9.7814C13.6262 9.81497 14.056 9.89049 14.4755 10.1042C15.087 10.4158 15.5842 10.913 15.8958 11.5245C16.1095 11.944 16.185 12.3738 16.2186 12.7846C16.2501 13.1696 16.25 13.6334 16.25 14.1542L16.25 22.75H20.8C21.3807 22.75 21.741 22.749 22.0118 22.7269C22.2663 22.7061 22.3313 22.673 22.3403 22.6684C22.4814 22.5964 22.5964 22.4816 22.6683 22.3405C22.6729 22.3315 22.7061 22.2663 22.7269 22.0118C22.749 21.741 22.75 21.3807 22.75 20.8V5.20001C22.75 4.61933 22.749 4.25899 22.7269 3.9882C22.7061 3.73376 22.673 3.66873 22.6684 3.65969C22.5964 3.51857 22.4816 3.40365 22.3405 3.33175C22.3315 3.32715 22.2663 3.29389 22.0118 3.2731C21.741 3.25098 21.3807 3.25 20.8 3.25H5.2C4.61933 3.25 4.25899 3.25098 3.9882 3.2731C3.73372 3.29389 3.66871 3.32706 3.65969 3.33166C3.51856 3.40356 3.40365 3.51839 3.33175 3.65951C3.32715 3.66854 3.29389 3.73372 3.2731 3.9882C3.25098 4.25899 3.25 4.61933 3.25 5.20001V9.75Z" fill="black"/>
</svg>
