<svg width="24" height="24" viewBox="0 0 24 24" fill="none" xmlns="http://www.w3.org/2000/svg">
<path fill-rule="evenodd" clip-rule="evenodd" d="M4.16957 0.25H19.8304C20.3646 0.24999 20.8104 0.249982 21.1747 0.27974C21.5546 0.310778 21.9112 0.377889 22.2485 0.549733C22.7659 0.813385 23.1866 1.23408 23.4503 1.75153C23.6221 2.08879 23.6892 2.44545 23.7203 2.82533C23.75 3.18956 23.75 3.6354 23.75 4.16955V19.8305C23.75 20.3646 23.75 20.8104 23.7203 21.1747C23.6892 21.5546 23.6221 21.9112 23.4503 22.2485C23.1866 22.7659 22.7659 23.1866 22.2485 23.4503C21.9112 23.6221 21.5546 23.6892 21.1747 23.7203C20.8104 23.75 20.3646 23.75 19.8305 23.75H4.16955C3.6354 23.75 3.18956 23.75 2.82533 23.7203C2.44545 23.6892 2.08879 23.6221 1.75153 23.4503C1.23408 23.1866 0.813384 22.7659 0.549733 22.2485C0.388628 21.9323 0.319577 21.5991 0.286 21.2456C0.283761 21.2221 0.28168 21.1984 0.27974 21.1747C0.251841 20.8332 0.250105 20.42 0.250006 19.9296L0.25 4.16957C0.249989 3.63541 0.249981 3.18956 0.27974 2.82533C0.310778 2.44545 0.377888 2.08879 0.549733 1.75153C0.813384 1.23408 1.23408 0.813385 1.75153 0.549733C2.08879 0.377889 2.44545 0.310778 2.82533 0.27974C3.18956 0.249981 3.63541 0.24999 4.16957 0.25ZM1.75 9.25V4.2C1.75 3.62757 1.75058 3.24336 1.77476 2.94748C1.79822 2.66036 1.8401 2.52307 1.88624 2.43251C2.00608 2.19731 2.19731 2.00608 2.43251 1.88624C2.52307 1.8401 2.66036 1.79822 2.94748 1.77476C3.24336 1.75058 3.62757 1.75 4.2 1.75H19.8C20.3724 1.75 20.7566 1.75058 21.0525 1.77476C21.3396 1.79822 21.4769 1.8401 21.5675 1.88624C21.8027 2.00608 21.9939 2.19731 22.1138 2.43251C22.1599 2.52307 22.2018 2.66036 22.2252 2.94748C22.2494 3.24336 22.25 3.62757 22.25 4.2V19.8C22.25 20.3724 22.2494 20.7566 22.2252 21.0525C22.2018 21.3396 22.1599 21.4769 22.1138 21.5675C21.9939 21.8027 21.8027 21.9939 21.5675 22.1138C21.4769 22.1599 21.3396 22.2018 21.0525 22.2252C20.7566 22.2494 20.3724 22.25 19.8 22.25H14.75V13.1695C14.75 12.6354 14.75 12.1896 14.7203 11.8253C14.6892 11.4454 14.6221 11.0888 14.4503 10.7515C14.1866 10.2341 13.7659 9.81339 13.2485 9.54973C12.9112 9.37789 12.5546 9.31078 12.1747 9.27974C11.8104 9.24998 11.3646 9.24999 10.8304 9.25H1.75Z" fill="black"/>
</svg>
