<svg width="26" height="26" viewBox="0 0 26 26" fill="none" xmlns="http://www.w3.org/2000/svg">
<path fill-rule="evenodd" clip-rule="evenodd" d="M5.15416 0.750001H20.8458C21.3666 0.749976 21.8305 0.749954 22.2154 0.781404C22.6262 0.814968 23.056 0.890489 23.4755 1.10423C24.087 1.41582 24.5842 1.91301 24.8958 2.52454C25.1095 2.94403 25.185 3.37381 25.2186 3.78462C25.2501 4.16957 25.25 4.63336 25.25 5.15413V20.8459C25.25 21.3666 25.2501 21.8304 25.2186 22.2154C25.185 22.6262 25.1095 23.056 24.8958 23.4755C24.5842 24.087 24.087 24.5842 23.4755 24.8958C23.056 25.1095 22.6262 25.185 22.2154 25.2186C21.8304 25.2501 21.3666 25.25 20.8459 25.25H5.15417C4.6334 25.25 4.16956 25.2501 3.78462 25.2186C3.37381 25.185 2.94403 25.1095 2.52453 24.8958C1.91301 24.5842 1.41582 24.087 1.10423 23.4755C0.890487 23.056 0.814968 22.6262 0.781404 22.2154C0.749952 21.8304 0.749975 21.3666 0.750002 20.8458V5.15416C0.749975 4.63338 0.749952 4.16957 0.781404 3.78462C0.814968 3.37381 0.890487 2.94403 1.10423 2.52454C1.41582 1.91301 1.91301 1.41582 2.52453 1.10423C2.94403 0.890489 3.37381 0.814968 3.78462 0.781404C4.16955 0.749954 4.6334 0.749976 5.15416 0.750001ZM3.25 9.75V5.20001C3.25 4.61933 3.25098 4.25899 3.2731 3.9882C3.29389 3.73372 3.32706 3.66871 3.33166 3.65969C3.40356 3.51857 3.51839 3.40365 3.65951 3.33175C3.66853 3.32715 3.73372 3.29389 3.9882 3.2731C4.25899 3.25098 4.61933 3.25 5.2 3.25H20.8C21.3807 3.25 21.741 3.25098 22.0118 3.2731C22.2663 3.29389 22.3313 3.32706 22.3403 3.33166C22.4814 3.40357 22.5964 3.51839 22.6683 3.65951C22.6729 3.66855 22.7061 3.73376 22.7269 3.9882C22.749 4.25899 22.75 4.61933 22.75 5.20001V20.8C22.75 21.3807 22.749 21.741 22.7269 22.0118C22.7061 22.2663 22.673 22.3313 22.6683 22.3403C22.5964 22.4814 22.4816 22.5964 22.3405 22.6683C22.3315 22.6729 22.2663 22.7061 22.0118 22.7269C21.741 22.749 21.3807 22.75 20.8 22.75H16.25L16.25 14.1542C16.25 13.6334 16.2501 13.1696 16.2186 12.7846C16.185 12.3738 16.1095 11.944 15.8958 11.5245C15.5842 10.913 15.087 10.4158 14.4755 10.1042C14.056 9.89049 13.6262 9.81497 13.2154 9.7814C12.8304 9.74995 12.3666 9.74998 11.8458 9.75L3.25 9.75Z" fill="black"/>
</svg>
