<svg width="24" height="24" viewBox="0 0 24 24" fill="none" xmlns="http://www.w3.org/2000/svg">
<g opacity="0.1">
<path d="M4.88867 10.0828L4.88867 3.14165L6.11316 1.91716L7.33765 3.14166L7.33765 10.0828L6.11316 11.3073L4.88867 10.0828Z" fill="black"/>
<path d="M4.88867 20.8583L4.88867 13.9172L6.11316 12.6927L7.33765 13.9172L7.33765 20.8583L6.11317 22.0828L4.88867 20.8583Z" fill="black"/>
<path d="M14.9715 24H8.03034L6.80584 22.7755L8.03032 21.551H14.9715L16.196 22.7755L14.9715 24Z" fill="black"/>
<path d="M18.1132 13.9172L18.1132 20.8583L16.8887 22.0828L15.6642 20.8583V13.9172L16.8887 12.6927L18.1132 13.9172Z" fill="black"/>
<path d="M18.1132 3.14166L18.1132 10.0828L16.8887 11.3073L15.6642 10.0828L15.6642 3.14165L16.8887 1.91716L18.1132 3.14166Z" fill="black"/>
<path d="M14.9715 1.07048e-07L8.03032 4.10457e-07L6.80584 1.22449L8.03033 2.44898L14.9715 2.44898L16.196 1.22449L14.9715 1.07048e-07Z" fill="black"/>
<path d="M8.03032 10.7755L14.9715 10.7755L16.196 12L14.9715 13.2245H8.03033L6.80583 12L8.03032 10.7755Z" fill="black"/>
</g>
<path d="M4.88867 10.0828L4.88867 3.14165L6.11316 1.91716L7.33765 3.14166L7.33765 10.0828L6.11316 11.3073L4.88867 10.0828Z" fill="black"/>
<path d="M4.88867 20.8583L4.88867 13.9172L6.11316 12.6927L7.33765 13.9172L7.33765 20.8583L6.11317 22.0828L4.88867 20.8583Z" fill="black"/>
<path d="M14.9715 24H8.03034L6.80584 22.7755L8.03032 21.551H14.9715L16.196 22.7755L14.9715 24Z" fill="black"/>
<path d="M18.1132 13.9172L18.1132 20.8583L16.8887 22.0828L15.6642 20.8583V13.9172L16.8887 12.6927L18.1132 13.9172Z" fill="black"/>
<path d="M18.1132 3.14166L18.1132 10.0828L16.8887 11.3073L15.6642 10.0828L15.6642 3.14165L16.8887 1.91716L18.1132 3.14166Z" fill="black"/>
<path d="M14.9715 1.07048e-07L8.03032 4.10457e-07L6.80584 1.22449L8.03033 2.44898L14.9715 2.44898L16.196 1.22449L14.9715 1.07048e-07Z" fill="black"/>
<path d="M8.03032 10.7755L14.9715 10.7755L16.196 12L14.9715 13.2245H8.03033L6.80583 12L8.03032 10.7755Z" fill="black"/>
</svg>
