<svg width="24" height="24" viewBox="0 0 24 24" fill="none" xmlns="http://www.w3.org/2000/svg">
<g opacity="0.1">
<path d="M15.5429 0.25L7.4571 0.25L6.7071 0.999993L7.45711 1.75L15.5429 1.75L16.2929 0.999992L15.5429 0.25Z" fill="black"/>
<path d="M17.75 2.45711L17 1.7071L16.25 2.45709V10.5429L17 11.2929L17.75 10.5429V2.45711Z" fill="black"/>
<path d="M17.75 13.4571L17 12.7071L16.25 13.4571V21.5429L17 22.2929L17.75 21.5429V13.4571Z" fill="black"/>
<path d="M7.45712 23.75H15.5429L16.2929 23L15.5429 22.25H7.4571L6.70711 23L7.45712 23.75Z" fill="black"/>
<path d="M5.25 21.5429L6 22.2929L6.75 21.5429V13.4571L6 12.7071L5.25 13.4571L5.25 21.5429Z" fill="black"/>
<path d="M5.25 10.5429L5.99999 11.2929L6.75 10.5429V2.45711L6 1.7071L5.25 2.4571L5.25 10.5429Z" fill="black"/>
<path d="M15.5429 11.25L7.4571 11.25L6.7071 12L7.45711 12.75L15.5429 12.75L16.2929 12L15.5429 11.25Z" fill="black"/>
</g>
<path d="M15.5429 0.25L7.4571 0.25L6.7071 0.999993L7.45711 1.75L15.5429 1.75L16.2929 0.999992L15.5429 0.25Z" fill="black"/>
<path d="M17.75 2.45711L17 1.7071L16.25 2.45709V10.5429L17 11.2929L17.75 10.5429V2.45711Z" fill="black"/>
<path d="M17.75 13.4571L17 12.7071L16.25 13.4571V21.5429L17 22.2929L17.75 21.5429V13.4571Z" fill="black"/>
<path d="M7.45712 23.75H15.5429L16.2929 23L15.5429 22.25H7.4571L6.70711 23L7.45712 23.75Z" fill="black"/>
<path d="M5.25 10.5429L5.99999 11.2929L6.75 10.5429V2.45711L6 1.7071L5.25 2.4571L5.25 10.5429Z" fill="black"/>
<path d="M15.5429 11.25L7.4571 11.25L6.7071 12L7.45711 12.75L15.5429 12.75L16.2929 12L15.5429 11.25Z" fill="black"/>
</svg>
