<svg width="24" height="24" viewBox="0 0 24 24" fill="none" xmlns="http://www.w3.org/2000/svg">
<path fill-rule="evenodd" clip-rule="evenodd" d="M12 0C13.858 0 14.7871 -6.97747e-05 15.5645 0.123047C19.8433 0.800792 23.1992 4.1567 23.877 8.43555C24.0001 9.21287 24 10.142 24 12C24 13.858 24.0001 14.7871 23.877 15.5645C23.1992 19.8433 19.8433 23.1992 15.5645 23.877C14.7871 24.0001 13.858 24 12 24C10.142 24 9.21287 24.0001 8.43555 23.877C4.1567 23.1992 0.800792 19.8433 0.123047 15.5645C-6.97747e-05 14.7871 0 13.858 0 12C0 10.142 -6.97747e-05 9.21287 0.123047 8.43555C0.800792 4.1567 4.1567 0.800792 8.43555 0.123047C9.21287 -6.97747e-05 10.142 0 12 0ZM15.2637 4.68945C14.7146 4.14042 13.845 4.10579 13.2559 4.58594L13.1416 4.68945L7.22363 10.6074C6.59311 11.2382 6.59322 12.2607 7.22363 12.8916L13.1416 18.8105C13.7274 19.3962 14.6779 19.3963 15.2637 18.8105C15.8489 18.2248 15.849 17.2751 15.2637 16.6895L10.3242 11.75L15.2637 6.81055L15.3662 6.69629C15.8462 6.10726 15.8124 5.2385 15.2637 4.68945Z" fill="black"/>
</svg>
