<svg width="24" height="24" viewBox="0 0 24 24" fill="none" xmlns="http://www.w3.org/2000/svg">
<path fill-rule="evenodd" clip-rule="evenodd" d="M0.123117 8.43565C0 9.21298 0 10.142 0 12C0 13.858 0 14.787 0.123117 15.5643C0.800832 19.8433 4.15673 23.1992 8.43565 23.8769C9.21298 24 10.142 24 12 24C13.858 24 14.787 24 15.5643 23.8769C19.8433 23.1992 23.1992 19.8433 23.8769 15.5643C24 14.787 24 13.858 24 12C24 10.142 24 9.21298 23.8769 8.43565C23.1992 4.15673 19.8433 0.800832 15.5643 0.123117C14.787 0 13.858 0 12 0C10.142 0 9.21298 0 8.43565 0.123117C4.15673 0.800832 0.800832 4.15673 0.123117 8.43565ZM7.39998 10.7844C6.86667 11.3177 6.86667 12.1823 7.39998 12.7156L13.3182 18.6339C13.8064 19.122 14.5978 19.122 15.086 18.6339C15.5742 18.1457 15.5742 17.3543 15.086 16.8661L9.96988 11.75L15.086 6.63388C15.5742 6.14573 15.5742 5.35427 15.086 4.86612C14.5978 4.37796 13.8064 4.37796 13.3182 4.86612L7.39998 10.7844Z" fill="black"/>
</svg>
