<svg width="24" height="24" viewBox="0 0 24 24" fill="none" xmlns="http://www.w3.org/2000/svg">
<path fill-rule="evenodd" clip-rule="evenodd" d="M12 0C13.858 0 14.7871 -6.97747e-05 15.5645 0.123047C19.8433 0.800792 23.1992 4.1567 23.877 8.43555C24.0001 9.21287 24 10.142 24 12C24 13.858 24.0001 14.7871 23.877 15.5645C23.1992 19.8433 19.8433 23.1992 15.5645 23.877C14.7871 24.0001 13.858 24 12 24C10.142 24 9.21287 24.0001 8.43555 23.877C4.1567 23.1992 0.800792 19.8433 0.123047 15.5645C-6.97747e-05 14.7871 0 13.858 0 12C0 10.142 -6.97747e-05 9.21287 0.123047 8.43555C0.800792 4.1567 4.1567 0.800792 8.43555 0.123047C9.21287 -6.97747e-05 10.142 0 12 0ZM15.4395 4.51172C14.7987 3.87144 13.7839 3.83101 13.0967 4.3916L12.9648 4.51172L7.0459 10.4307C6.31791 11.159 6.31814 12.3399 7.0459 13.0684L12.9648 18.9873C13.6482 19.6703 14.7561 19.6705 15.4395 18.9873C16.1229 18.3039 16.1228 17.1951 15.4395 16.5117L10.6768 11.75L15.4395 6.9873L15.5596 6.85449C16.1203 6.16714 16.0802 5.15245 15.4395 4.51172Z" fill="black"/>
</svg>
