<svg width="24" height="24" viewBox="0 0 24 24" fill="none" xmlns="http://www.w3.org/2000/svg">
<path fill-rule="evenodd" clip-rule="evenodd" d="M0.123117 8.43565C0 9.21298 0 10.142 0 12C0 13.858 0 14.787 0.123117 15.5643C0.800832 19.8433 4.15673 23.1992 8.43565 23.8769C9.21298 24 10.142 24 12 24C13.858 24 14.787 24 15.5643 23.8769C19.8433 23.1992 23.1992 19.8433 23.8769 15.5643C24 14.787 24 13.858 24 12C24 10.142 24 9.21298 23.8769 8.43565C23.1992 4.15673 19.8433 0.800832 15.5643 0.123117C14.787 0 13.858 0 12 0C10.142 0 9.21298 0 8.43565 0.123117C4.15673 0.800832 0.800832 4.15673 0.123117 8.43565ZM7.93031 11.3147C7.6899 11.5551 7.6899 11.9449 7.93031 12.1853L13.8486 18.1036C14.0438 18.2988 14.3604 18.2988 14.5557 18.1036C14.7509 17.9083 14.7509 17.5917 14.5557 17.3964L8.90922 11.75L14.5557 6.10355C14.7509 5.90829 14.7509 5.59171 14.5557 5.39645C14.3604 5.20118 14.0438 5.20118 13.8486 5.39645L7.93031 11.3147Z" fill="black"/>
</svg>
