<svg width="24" height="24" viewBox="0 0 24 24" fill="none" xmlns="http://www.w3.org/2000/svg">
<path fill-rule="evenodd" clip-rule="evenodd" d="M0.123117 8.43565C0 9.21298 0 10.142 0 12C0 13.858 0 14.787 0.123117 15.5643C0.800832 19.8433 4.15673 23.1992 8.43565 23.8769C9.21298 24 10.142 24 12 24C13.858 24 14.787 24 15.5643 23.8769C19.8433 23.1992 23.1992 19.8433 23.8769 15.5643C24 14.787 24 13.858 24 12C24 10.142 24 9.21298 23.8769 8.43565C23.1992 4.15673 19.8433 0.800832 15.5643 0.123117C14.787 0 13.858 0 12 0C10.142 0 9.21298 0 8.43565 0.123117C4.15673 0.800832 0.800832 4.15673 0.123117 8.43565ZM8.10708 11.4915C7.9643 11.6343 7.96431 11.8657 8.10708 12.0085L14.0253 17.9268C14.123 18.0244 14.2813 18.0244 14.3789 17.9268C14.4765 17.8291 14.4765 17.6709 14.3789 17.5732L8.55567 11.75L14.3789 5.92678C14.4765 5.82915 14.4765 5.67085 14.3789 5.57322C14.2813 5.47559 14.123 5.47559 14.0253 5.57322L8.10708 11.4915Z" fill="black"/>
</svg>
