<svg width="24" height="24" viewBox="0 0 24 24" fill="none" xmlns="http://www.w3.org/2000/svg">
<path fill-rule="evenodd" clip-rule="evenodd" d="M0.123117 8.43565C0 9.21298 0 10.142 0 12C0 13.858 0 14.787 0.123117 15.5643C0.800832 19.8433 4.15673 23.1992 8.43565 23.8769C9.21298 24 10.142 24 12 24C13.858 24 14.787 24 15.5643 23.8769C19.8433 23.1992 23.1992 19.8433 23.8769 15.5643C24 14.787 24 13.858 24 12C24 10.142 24 9.21298 23.8769 8.43565C23.1992 4.15673 19.8433 0.800832 15.5643 0.123117C14.787 0 13.858 0 12 0C10.142 0 9.21298 0 8.43565 0.123117C4.15673 0.800832 0.800832 4.15673 0.123117 8.43565ZM7.75353 11.1379C7.41549 11.476 7.41549 12.024 7.75353 12.3621L13.6718 18.2803C13.9647 18.5732 14.4396 18.5732 14.7324 18.2803C15.0253 17.9874 15.0253 17.5126 14.7324 17.2197L9.26277 11.75L14.7324 6.28033C15.0253 5.98744 15.0253 5.51256 14.7324 5.21967C14.4396 4.92678 13.9647 4.92678 13.6718 5.21967L7.75353 11.1379Z" fill="black"/>
</svg>
