<svg width="24" height="24" viewBox="0 0 24 24" fill="none" xmlns="http://www.w3.org/2000/svg">
<path d="M1.35865 15.8008C0.692355 15.6527 0.366881 14.8958 0.718022 14.3105L3.25415 10.083V7.75H2.50415C1.8138 7.75 1.25415 7.19036 1.25415 6.5C1.25415 5.80964 1.8138 5.25 2.50415 5.25H6.42896C6.61303 5.24987 6.78942 5.17441 6.91626 5.04102C7.98703 3.91396 9.33899 3.22537 10.7542 2.9707V1.5C10.7542 0.809644 11.3138 0.25 12.0042 0.25C12.6944 0.250166 13.2542 0.809747 13.2542 1.5V2.9707C14.6692 3.22546 16.0214 3.91403 17.092 5.04102C17.2189 5.17438 17.3952 5.24995 17.5793 5.25H21.5042C22.1944 5.25017 22.7542 5.80975 22.7542 6.5C22.7542 7.19025 22.1944 7.74983 21.5042 7.75H20.7542V10.083L23.2903 14.3105C23.6411 14.8957 23.3157 15.6526 22.6497 15.8008L22.1067 15.9219C20.3923 16.3028 18.615 16.3028 16.9006 15.9219L16.3586 15.8008C15.6924 15.6527 15.3669 14.8958 15.718 14.3105L18.2542 10.083V7.75H17.5793C16.7644 7.74996 15.9827 7.43628 15.3948 6.87793L15.1086 6.5918C14.5671 6.07858 13.9286 5.72565 13.2542 5.53223V20.75H17.5002C18.1905 20.7502 18.7502 21.3097 18.7502 22C18.7502 22.6903 18.1905 23.2498 17.5002 23.25H6.50025C5.80989 23.25 5.25025 22.6904 5.25025 22C5.25025 21.3096 5.80989 20.75 6.50025 20.75H10.7542V5.53223C10.0796 5.72559 9.44132 6.07852 8.89966 6.5918L8.61353 6.87793C8.02563 7.43631 7.24388 7.74988 6.42896 7.75H5.75415V10.083L8.29029 14.3105C8.64112 14.8957 8.31569 15.6526 7.64966 15.8008L7.10669 15.9219C5.39228 16.3028 3.61504 16.3029 1.90064 15.9219L1.35865 15.8008Z" fill="black"/>
</svg>
