<svg width="24" height="24" viewBox="0 0 24 24" fill="none" xmlns="http://www.w3.org/2000/svg">
<path d="M1.35809 15.8008C0.692122 15.6526 0.366636 14.8957 0.717465 14.3105L3.51532 9.64648C3.50829 9.59864 3.5036 9.5498 3.5036 9.5V7.5H2.5036C1.95144 7.49985 1.5036 7.05219 1.5036 6.5C1.5036 5.94781 1.95144 5.50015 2.5036 5.5H6.4284C6.68115 5.49995 6.92323 5.3961 7.09735 5.21289C8.18162 4.07161 9.56481 3.39436 11.0036 3.18066V1.5C11.0036 0.94781 11.4514 0.500154 12.0036 0.5C12.5559 0.5 13.0036 0.947715 13.0036 1.5V3.18066C14.4425 3.39426 15.8255 4.07155 16.9098 5.21289C17.0839 5.39612 17.3261 5.49987 17.5788 5.5H21.5036C22.0559 5.5 22.5036 5.94772 22.5036 6.5C22.5036 7.05228 22.0559 7.5 21.5036 7.5H20.5036V9.5C20.5036 9.55021 20.498 9.59924 20.4909 9.64746L23.2897 14.3105C23.6409 14.8958 23.3154 15.6527 22.6491 15.8008L22.1071 15.9219C20.3927 16.3028 18.6155 16.3028 16.9011 15.9219L16.3581 15.8008C15.692 15.6526 15.3666 14.8957 15.7175 14.3105L18.5153 9.64648C18.5083 9.59864 18.5036 9.5498 18.5036 9.5V7.5H17.5788C16.7779 7.49987 16.0113 7.1715 15.4597 6.59082C14.7703 5.86526 13.9098 5.40626 13.0036 5.21289V21H17.4997C18.052 21 18.4997 21.4477 18.4997 22C18.4997 22.5523 18.052 23 17.4997 23H6.49969C5.94755 22.9998 5.49969 22.5522 5.49969 22C5.49969 21.4478 5.94755 21.0002 6.49969 21H11.0036V5.21289C10.1747 5.38988 9.38362 5.78881 8.72723 6.41113L8.44207 6.69629C7.90031 7.21108 7.17952 7.49996 6.4284 7.5H5.5036V9.5C5.5036 9.55021 5.49805 9.59924 5.4909 9.64746L8.28973 14.3105C8.64086 14.8958 8.31539 15.6527 7.64911 15.8008L7.10711 15.9219C5.3927 16.3029 3.61548 16.3028 1.90106 15.9219L1.35809 15.8008Z" fill="black"/>
</svg>
