<svg width="24" height="24" viewBox="0 0 24 24" fill="none" xmlns="http://www.w3.org/2000/svg">
<path fill-rule="evenodd" clip-rule="evenodd" d="M1.35805 15.8008C0.733606 15.6618 0.408678 14.9878 0.659811 14.4219L0.717429 14.3105L4.25356 8.41699V6.75H2.50356C2.36563 6.74984 2.25356 6.63797 2.25356 6.5C2.25356 6.36203 2.36563 6.25016 2.50356 6.25H6.42837C6.8867 6.24995 7.32554 6.06174 7.64126 5.72949C8.76511 4.54659 10.25 3.92546 11.7536 3.86328V1.5C11.7536 1.36203 11.8656 1.25016 12.0036 1.25C12.1416 1.25 12.2536 1.36193 12.2536 1.5V3.86328C13.7572 3.92532 15.2419 4.54653 16.3659 5.72949C16.6815 6.06176 17.1205 6.24987 17.5788 6.25H21.5036C21.6416 6.25 21.7536 6.36193 21.7536 6.5C21.7536 6.63807 21.6416 6.75 21.5036 6.75H19.7536V8.41699L23.2897 14.3105C23.6407 14.8958 23.3153 15.6527 22.6491 15.8008L22.1071 15.9219L21.7848 15.9883C20.2781 16.28 18.7291 16.28 17.2223 15.9883L16.9 15.9219L16.3581 15.8008C15.7336 15.6618 15.4087 14.9878 15.6598 14.4219L15.7174 14.3105L19.2536 8.41699V6.75H17.5788C16.9834 6.74987 16.4136 6.5058 16.0036 6.07422C14.9781 4.99486 13.6253 4.42402 12.2536 4.3623V21.75H17.4997C17.6377 21.75 17.7497 21.8619 17.7497 22C17.7497 22.1381 17.6377 22.25 17.4997 22.25H6.49966C6.36173 22.2498 6.24966 22.138 6.24966 22C6.24966 21.862 6.36173 21.7502 6.49966 21.75H11.7536V4.3623C10.382 4.42416 9.02889 4.99492 8.00356 6.07422C7.59346 6.50578 7.02371 6.74995 6.42837 6.75H4.75356V8.41699L8.28969 14.3105C8.6407 14.8958 8.31531 15.6527 7.64907 15.8008L7.10708 15.9219L6.78481 15.9883C5.27805 16.28 3.72907 16.2801 2.22231 15.9883L1.90005 15.9219L1.35805 15.8008ZM16.1461 14.5674C15.9707 14.8599 16.1336 15.2383 16.4665 15.3125L17.0084 15.4336C18.6514 15.7987 20.3557 15.7987 21.9987 15.4336L22.5407 15.3125C22.8738 15.2384 23.0366 14.86 22.861 14.5674L19.5036 8.9707L16.1461 14.5674ZM1.14614 14.5674C0.970807 14.8598 1.13356 15.2382 1.46645 15.3125L2.00844 15.4336C3.65144 15.7987 5.35567 15.7987 6.99868 15.4336L7.54067 15.3125C7.87379 15.2384 8.03656 14.86 7.86098 14.5674L4.50356 8.9707L1.14614 14.5674Z" fill="black"/>
</svg>
