<svg width="24" height="24" viewBox="0 0 24 24" fill="none" xmlns="http://www.w3.org/2000/svg">
<path d="M1.35864 15.8008C0.692353 15.6527 0.366888 14.8958 0.718014 14.3105L4.00415 8.83301V7H2.50415C2.228 7 2.00415 6.77614 2.00415 6.5C2.00415 6.22386 2.228 6 2.50415 6H6.42895C6.81865 5.99988 7.19175 5.84011 7.4602 5.55762C8.57113 4.38829 10.0206 3.7468 11.5041 3.62891V1.5C11.5041 1.22386 11.728 1 12.0041 1C12.2802 1.00015 12.5041 1.22395 12.5041 1.5V3.62891C13.9876 3.74692 15.4373 4.38834 16.5481 5.55762C16.8166 5.84009 17.1896 5.99995 17.5793 6H21.5041C21.7802 6.00015 22.0041 6.22395 22.0041 6.5C22.0041 6.77605 21.7802 6.99985 21.5041 7H20.0041V8.83301L23.2903 14.3105C23.6411 14.8957 23.3157 15.6526 22.6497 15.8008L22.1067 15.9219C20.3923 16.3028 18.615 16.3029 16.9006 15.9219L16.3586 15.8008C15.6924 15.6527 15.3669 14.8958 15.718 14.3105L19.0041 8.83301V7H17.5793C16.9155 6.99995 16.2808 6.72727 15.8235 6.24609C14.9098 5.2843 13.7232 4.74536 12.5041 4.62988V21.5H17.5002C17.7763 21.5001 18.0002 21.7239 18.0002 22C18.0002 22.2761 17.7763 22.4999 17.5002 22.5H6.50024C6.2241 22.5 6.00024 22.2761 6.00024 22C6.00024 21.7239 6.2241 21.5 6.50024 21.5H11.5041V4.62988C10.285 4.74525 9.09864 5.28424 8.18481 6.24609C7.72757 6.72729 7.09274 6.99988 6.42895 7H5.00415V8.83301L8.29028 14.3105C8.64114 14.8957 8.31571 15.6526 7.64965 15.8008L7.10669 15.9219C5.39228 16.3028 3.61502 16.3029 1.90063 15.9219L1.35864 15.8008Z" fill="black"/>
</svg>
