<svg width="24" height="24" viewBox="0 0 24 24" fill="none" xmlns="http://www.w3.org/2000/svg">
<path d="M7 1.75C7.13801 1.75 7.24989 1.86202 7.25 2C7.25 2.13807 7.13807 2.25 7 2.25H4.00098C3.03455 2.25 2.2511 3.03361 2.25098 4L2.25 20C2.25007 20.9662 3.03382 21.7497 4 21.75H20.001C20.9672 21.7497 21.7509 20.9663 21.751 20L21.75 17C21.7501 16.8622 21.8622 16.7503 22 16.75C22.1381 16.75 22.251 16.8629 22.251 17.001V20C22.2509 21.2424 21.2434 22.2497 20.001 22.25L4.00098 22.251C2.75838 22.251 1.75007 21.2426 1.75 20L1.75098 4C1.7511 2.75746 2.75841 1.75 4.00098 1.75H7Z" fill="black"/>
<path d="M21.832 1.75C22.0625 1.75026 22.249 1.9374 22.249 2.16797V12C22.2489 12.138 22.137 12.25 21.999 12.25C21.8614 12.2496 21.7491 12.1377 21.749 12L21.75 2.57617L12.1445 12.1816C12.0469 12.2787 11.8885 12.2789 11.791 12.1816C11.6937 12.0841 11.6939 11.9257 11.791 11.8281L21.3691 2.25H12C11.862 2.24997 11.7501 2.13797 11.75 2C11.7501 1.86203 11.862 1.75003 12 1.75H21.832Z" fill="black"/>
</svg>
