<svg width="24" height="24" viewBox="0 0 24 24" fill="none" xmlns="http://www.w3.org/2000/svg">
<path d="M7 1.25V2.75H4C3.3098 2.75015 2.75005 3.30977 2.75 4V20C2.75013 20.6902 3.30985 21.2499 4 21.25H20C20.6901 21.2499 21.2498 20.6901 21.25 20V17H22.751L22.75 20C22.7498 21.5185 21.5186 22.7499 20 22.75H4.00098C2.48227 22.75 1.25013 21.5187 1.25 20V4C1.25005 2.48135 2.48137 1.25015 4 1.25H7Z" fill="black"/>
<path d="M21.832 1.25C22.3384 1.25024 22.7486 1.66065 22.749 2.16699L22.75 12L21.25 11.999V3.7832L12.498 12.5352L11.4375 11.4736L20.1611 2.75H12V1.25H21.832Z" fill="black"/>
</svg>
