<svg width="24" height="24" viewBox="0 0 24 24" fill="none" xmlns="http://www.w3.org/2000/svg">
<path d="M4.37296 19.6264C2.72464 17.978 2.72464 15.3056 4.37296 13.6572L7.46772 10.5625C7.95588 10.0743 7.95588 9.28286 7.46772 8.79471C6.97957 8.30655 6.18811 8.30655 5.69995 8.79471L2.6052 11.8895C-0.0194418 14.5141 -0.0194395 18.7695 2.6052 21.3941C5.22983 24.0188 9.48521 24.0188 12.1099 21.3941L15.2046 18.2994C15.6928 17.8112 15.6928 17.0198 15.2046 16.5316C14.7165 16.0434 13.925 16.0434 13.4368 16.5316L10.3421 19.6264C8.69376 21.2747 6.02129 21.2747 4.37296 19.6264Z" fill="black"/>
<path d="M9.5684 4.92626C9.08024 5.41442 9.08024 6.20587 9.5684 6.69403C10.0566 7.18219 10.848 7.18219 11.3362 6.69403L13.6572 4.37296C15.3056 2.72464 17.978 2.72464 19.6264 4.37296C21.2747 6.02129 21.2747 8.69376 19.6264 10.3421L17.3053 12.6632C16.8171 13.1513 16.8171 13.9428 17.3053 14.4309C17.7934 14.9191 18.5849 14.9191 19.0731 14.4309L21.3941 12.1099C24.0188 9.48521 24.0188 5.22984 21.3941 2.6052C18.7695 -0.0194383 14.5141 -0.0194428 11.8895 2.6052L9.5684 4.92626Z" fill="black"/>
<path d="M16.7526 9.01613C17.2407 8.52798 17.2407 7.73652 16.7526 7.24836C16.2644 6.76021 15.473 6.76021 14.9848 7.24836L7.24792 14.9853C6.75977 15.4734 6.75977 16.2649 7.24792 16.753C7.73608 17.2412 8.52753 17.2412 9.01569 16.753L16.7526 9.01613Z" fill="black"/>
</svg>
