<svg width="24" height="24" viewBox="0 0 24 24" fill="none" xmlns="http://www.w3.org/2000/svg">
<path d="M7.00098 0.75C7.69104 0.750098 8.25065 1.30999 8.25098 2C8.25073 2.69015 7.69021 3.25 7 3.25H4.00098C3.58693 3.25013 3.25106 3.58594 3.25098 4V20C3.25114 20.414 3.58699 20.7499 4.00098 20.75H20.001C20.415 20.7499 20.7509 20.4141 20.751 20V17.001C20.751 16.3108 21.3108 15.7502 22.001 15.75C22.691 15.7503 23.2509 16.3099 23.251 17V20C23.2509 21.7948 21.7957 23.2499 20.001 23.25H4.00098C2.20628 23.2499 0.751139 21.7947 0.750977 20V4C0.751065 2.20523 2.20621 0.750127 4.00098 0.75H7.00098Z" fill="black"/>
<path d="M21.832 0.75C22.615 0.750055 23.2509 1.38502 23.251 2.16797V12C23.2509 12.6903 22.6903 13.25 22 13.25C21.31 13.25 20.7505 12.6908 20.75 12.001V4.99023L12.8516 12.8887C12.3634 13.3762 11.572 13.3764 11.084 12.8887C10.5961 12.4005 10.5969 11.6082 11.085 11.1201L18.9551 3.25H12C11.3099 3.24979 10.7501 2.69011 10.75 2C10.7501 1.30989 11.3099 0.750215 12 0.75H21.832Z" fill="black"/>
</svg>
