<svg width="24" height="24" viewBox="0 0 24 24" fill="none" xmlns="http://www.w3.org/2000/svg">
<path d="M7.00098 1L7 3H4.00098C3.44885 3.00013 3.00107 3.44787 3.00098 4V20C3.00115 20.552 3.44893 20.9999 4.00098 21H20.001C20.5531 20.9999 21.0009 20.5521 21.001 20V17.001L23.001 17V20C23.0009 21.6567 21.6577 22.9999 20.001 23H4.00098C2.34436 22.9999 1.00115 21.6566 1.00098 20V4C1.00107 2.3433 2.34428 1.00013 4.00098 1H7.00098Z" fill="black"/>
<path d="M21.832 1C22.4769 1.00005 23.001 1.52308 23.001 2.16797V12L21 12.001V4.38672L12.6748 12.7119L11.9678 12.0049L11.2617 11.2969L19.5586 3H12V1H21.832Z" fill="black"/>
</svg>
