<svg width="24" height="24" viewBox="0 0 24 24" fill="none" xmlns="http://www.w3.org/2000/svg">
<path d="M7.00098 1.5C7.27683 1.50026 7.50087 1.72411 7.50098 2C7.50098 2.27598 7.2769 2.49974 7.00098 2.5H4.00098C3.17255 2.5 2.5 3.17255 2.5 4.00098V20C2.50007 20.8282 3.17185 21.4997 4 21.5H20C20.8283 21.5 21.4998 20.8282 21.5 20V17C21.5001 16.7241 21.7242 16.5003 22 16.5C22.2761 16.5 22.4999 16.724 22.5 17V20C22.4998 21.3805 21.3806 22.5 20 22.5H4C2.61956 22.4997 1.50105 21.3805 1.50098 20V4.00098C1.50098 2.62027 2.62026 1.5 4.00098 1.5H7.00098Z" fill="black"/>
<path d="M21.832 1.5C22.2007 1.50011 22.5 1.79924 22.5 2.16797V12C22.4999 12.276 22.276 12.4999 22 12.5C21.7239 12.5 21.5001 12.276 21.5 12V3.18066L12.3223 12.3584C12.1272 12.5533 11.8105 12.553 11.6152 12.3584C11.42 12.1632 11.4202 11.8466 11.6152 11.6514L20.7666 2.49902L12 2.5C11.724 2.49994 11.5001 2.27603 11.5 2C11.5001 1.72398 11.724 1.50006 12 1.5H21.832Z" fill="black"/>
</svg>
