<svg width="24" height="24" viewBox="0 0 24 24" fill="none" xmlns="http://www.w3.org/2000/svg">
<path d="M7.00098 1.5V2.5H4.00098C3.17268 2.50016 2.50098 3.17265 2.50098 4.00098V20C2.50105 20.8283 3.17269 21.4999 4.00098 21.5H20C20.8283 21.5 21.5008 20.8282 21.501 20V17H22.501V20C22.5008 21.3805 21.3806 22.5 20 22.5H4.00098C2.62041 22.4999 1.50105 21.3806 1.50098 20V4.00098C1.50098 2.62036 2.6204 1.50016 4.00098 1.5H7.00098Z" fill="black"/>
<path d="M21.832 1.5C22.2008 1.50006 22.5 1.79921 22.5 2.16797V12H21.5V3.18066L12.3223 12.3584L11.6152 11.6514L20.7666 2.49902L12 2.5V1.5H21.832Z" fill="black"/>
</svg>
