<svg width="24" height="24" viewBox="0 0 24 24" fill="none" xmlns="http://www.w3.org/2000/svg">
<path d="M4.01941 19.98C2.17582 18.1364 2.17582 15.1474 4.01941 13.3038L7.11417 10.209C7.40706 9.91615 7.40706 9.44128 7.11417 9.14838C6.82127 8.85549 6.3464 8.85549 6.05351 9.14838L2.95875 12.2431C0.529374 14.6725 0.529376 18.6113 2.95875 21.0407C5.38813 23.4701 9.32692 23.4701 11.7563 21.0407L14.8511 17.9459C15.1439 17.653 15.1439 17.1782 14.8511 16.8853C14.5582 16.5924 14.0833 16.5924 13.7904 16.8853L10.6956 19.98C8.85205 21.8236 5.863 21.8236 4.01941 19.98Z" fill="black"/>
<path d="M9.92195 5.27994C9.62906 5.57283 9.62906 6.04771 9.92195 6.3406C10.2148 6.63349 10.6897 6.63349 10.9826 6.3406L13.3037 4.01953C15.1473 2.17594 18.1363 2.17595 19.9799 4.01953C21.8235 5.86312 21.8235 8.85217 19.9799 10.6958L17.6588 13.0168C17.3659 13.3097 17.3659 13.7846 17.6588 14.0775C17.9517 14.3704 18.4266 14.3704 18.7195 14.0775L21.0406 11.7564C23.4699 9.32704 23.4699 5.38825 21.0406 2.95887C18.6112 0.529499 14.6724 0.529495 12.243 2.95887L9.92195 5.27994Z" fill="black"/>
<path d="M16.399 8.6627C16.6919 8.36981 16.6919 7.89493 16.399 7.60204C16.1061 7.30915 15.6313 7.30915 15.3384 7.60204L7.60148 15.3389C7.30858 15.6318 7.30858 16.1067 7.60148 16.3996C7.89437 16.6925 8.36924 16.6925 8.66214 16.3996L16.399 8.6627Z" fill="black"/>
</svg>
