<svg width="24" height="24" viewBox="0 0 24 24" fill="none" xmlns="http://www.w3.org/2000/svg">
<path d="M3.84263 20.1567C1.90141 18.2155 1.90141 15.0681 3.84263 13.1269L6.93739 10.0321C7.13265 9.83688 7.13265 9.5203 6.93739 9.32504C6.74213 9.12978 6.42555 9.12978 6.23028 9.32504L3.13553 12.4198C0.803782 14.7515 0.803784 18.532 3.13553 20.8638C5.46727 23.1955 9.24778 23.1955 11.5795 20.8638L14.6743 17.769C14.8695 17.5738 14.8695 17.2572 14.6743 17.0619C14.479 16.8667 14.1624 16.8667 13.9672 17.0619L10.8724 20.1567C8.93119 22.0979 5.78385 22.0979 3.84263 20.1567Z" fill="black"/>
<path d="M10.0987 5.45659C9.90347 5.65186 9.90347 5.96844 10.0987 6.1637C10.294 6.35896 10.6106 6.35896 10.8058 6.1637L13.1269 3.84263C15.0681 1.90141 18.2155 1.90142 20.1567 3.84264C22.0979 5.78386 22.0979 8.93119 20.1567 10.8724L17.8356 13.1935C17.6404 13.3887 17.6404 13.7053 17.8356 13.9006C18.0309 14.0959 18.3475 14.0959 18.5427 13.9006L20.8638 11.5795C23.1955 9.24778 23.1955 5.46727 20.8638 3.13553C18.532 0.803784 14.7515 0.803781 12.4198 3.13553L10.0987 5.45659Z" fill="black"/>
<path d="M16.2222 8.4858C16.4175 8.29054 16.4175 7.97396 16.2222 7.7787C16.027 7.58343 15.7104 7.58343 15.5151 7.7787L7.77825 15.5156C7.58299 15.7108 7.58299 16.0274 7.77825 16.2227C7.97351 16.418 8.2901 16.418 8.48536 16.2227L16.2222 8.4858Z" fill="black"/>
</svg>
