<svg width="24" height="24" viewBox="0 0 24 24" fill="none" xmlns="http://www.w3.org/2000/svg">
<path d="M7.00098 1.25C7.41491 1.25026 7.75087 1.58603 7.75098 2C7.75098 2.41405 7.41497 2.74974 7.00098 2.75L4.00098 2.75098C3.31062 2.75098 2.75098 3.31062 2.75098 4.00098V20C2.75105 20.6903 3.31066 21.25 4.00098 21.25H20C20.6903 21.25 21.2499 20.6903 21.25 20L21.251 17C21.2511 16.5859 21.5868 16.25 22.001 16.25C22.4149 16.2503 22.7508 16.5861 22.751 17L22.75 20C22.7499 21.5187 21.5187 22.75 20 22.75H4.00098C2.48224 22.75 1.25105 21.5187 1.25098 20L1.25 4C1.25013 2.48153 2.48158 1.25033 4 1.25H7.00098Z" fill="black"/>
<path d="M21.832 1.25C22.3387 1.25022 22.75 1.66124 22.75 2.16797V12C22.7499 12.414 22.414 12.7499 22 12.75C21.5859 12.75 21.2501 12.4141 21.25 12L21.249 3.78418L12.498 12.5361C12.2053 12.828 11.7301 12.8282 11.4375 12.5361C11.1447 12.2433 11.1448 11.7665 11.4375 11.4736L20.1611 2.75L12 2.74902C11.5858 2.74899 11.25 2.41321 11.25 1.99902C11.2505 1.58528 11.5861 1.25004 12 1.25H21.832Z" fill="black"/>
</svg>
