<svg width="24" height="24" viewBox="0 0 24 24" fill="none" xmlns="http://www.w3.org/2000/svg">
<path d="M2.25 4C3.07843 4 3.75 3.32843 3.75 2.5C3.75 1.67157 3.07843 1 2.25 1C1.42157 1 0.75 1.67157 0.75 2.5C0.75 3.32843 1.42157 4 2.25 4Z" fill="black"/>
<path d="M6.75 1.5C6.19772 1.5 5.75 1.94772 5.75 2.5C5.75 3.05228 6.19772 3.5 6.75 3.5H22.25C22.8023 3.5 23.25 3.05228 23.25 2.5C23.25 1.94772 22.8023 1.5 22.25 1.5H6.75Z" fill="black"/>
<path d="M3.75 12C3.75 12.8284 3.07843 13.5 2.25 13.5C1.42157 13.5 0.75 12.8284 0.75 12C0.75 11.1716 1.42157 10.5 2.25 10.5C3.07843 10.5 3.75 11.1716 3.75 12Z" fill="black"/>
<path d="M6.75 11C6.19772 11 5.75 11.4477 5.75 12C5.75 12.5523 6.19772 13 6.75 13H22.25C22.8023 13 23.25 12.5523 23.25 12C23.25 11.4477 22.8023 11 22.25 11H6.75Z" fill="black"/>
<path d="M3.75 21.5C3.75 22.3284 3.07843 23 2.25 23C1.42157 23 0.75 22.3284 0.75 21.5C0.75 20.6716 1.42157 20 2.25 20C3.07843 20 3.75 20.6716 3.75 21.5Z" fill="black"/>
<path d="M6.75 20.5C6.19772 20.5 5.75 20.9477 5.75 21.5C5.75 22.0523 6.19772 22.5 6.75 22.5H22.25C22.8023 22.5 23.25 22.0523 23.25 21.5C23.25 20.9477 22.8023 20.5 22.25 20.5H6.75Z" fill="black"/>
</svg>
