<svg width="24" height="24" viewBox="0 0 24 24" fill="none" xmlns="http://www.w3.org/2000/svg">
<path fill-rule="evenodd" clip-rule="evenodd" d="M0.123117 8.43565C0 9.21298 0 10.142 0 12C0 13.858 0 14.787 0.123117 15.5643C0.800832 19.8433 4.15673 23.1992 8.43565 23.8769C9.21298 24 10.142 24 12 24C13.858 24 14.787 24 15.5643 23.8769C19.8433 23.1992 23.1992 19.8433 23.8769 15.5643C24 14.787 24 13.858 24 12C24 10.142 24 9.21298 23.8769 8.43565C23.1992 4.15673 19.8433 0.800832 15.5643 0.123117C14.787 0 13.858 0 12 0C10.142 0 9.21298 0 8.43565 0.123117C4.15673 0.800832 0.800832 4.15673 0.123117 8.43565ZM6.86458 6.45833C6.86458 6.87255 6.5288 7.20833 6.11458 7.20833C5.70037 7.20833 5.36458 6.87255 5.36458 6.45833C5.36458 6.04412 5.70037 5.70833 6.11458 5.70833C6.5288 5.70833 6.86458 6.04412 6.86458 6.45833ZM8.69792 6.45833C8.69792 6.18219 8.92177 5.95833 9.19792 5.95833H17.9062C18.1824 5.95833 18.4062 6.18219 18.4062 6.45833C18.4062 6.73448 18.1824 6.95833 17.9062 6.95833H9.19792C8.92177 6.95833 8.69792 6.73448 8.69792 6.45833ZM6.11458 12.75C6.5288 12.75 6.86458 12.4142 6.86458 12C6.86458 11.5858 6.5288 11.25 6.11458 11.25C5.70037 11.25 5.36458 11.5858 5.36458 12C5.36458 12.4142 5.70037 12.75 6.11458 12.75ZM8.69792 12C8.69792 11.7239 8.92177 11.5 9.19792 11.5H17.9062C18.1824 11.5 18.4062 11.7239 18.4062 12C18.4062 12.2761 18.1824 12.5 17.9062 12.5H9.19792C8.92177 12.5 8.69792 12.2761 8.69792 12ZM6.11458 18.2917C6.5288 18.2917 6.86458 17.9559 6.86458 17.5417C6.86458 17.1275 6.5288 16.7917 6.11458 16.7917C5.70037 16.7917 5.36458 17.1275 5.36458 17.5417C5.36458 17.9559 5.70037 18.2917 6.11458 18.2917ZM8.69792 17.5417C8.69792 17.2655 8.92177 17.0417 9.19792 17.0417H17.9062C18.1824 17.0417 18.4062 17.2655 18.4062 17.5417C18.4062 17.8178 18.1824 18.0417 17.9062 18.0417H9.19792C8.92177 18.0417 8.69792 17.8178 8.69792 17.5417Z" fill="black"/>
</svg>
