<svg width="24" height="24" viewBox="0 0 24 24" fill="none" xmlns="http://www.w3.org/2000/svg">
<path d="M2.375 4.25C3.3415 4.25 4.125 3.4665 4.125 2.5C4.125 1.5335 3.3415 0.75 2.375 0.75C1.4085 0.75 0.625 1.5335 0.625 2.5C0.625 3.4665 1.4085 4.25 2.375 4.25Z" fill="black"/>
<path d="M8.125 1.25C7.43464 1.25 6.875 1.80964 6.875 2.5C6.875 3.19036 7.43464 3.75 8.125 3.75H22.125C22.8154 3.75 23.375 3.19036 23.375 2.5C23.375 1.80964 22.8154 1.25 22.125 1.25H8.125Z" fill="black"/>
<path d="M4.125 12C4.125 12.9665 3.3415 13.75 2.375 13.75C1.4085 13.75 0.625 12.9665 0.625 12C0.625 11.0335 1.4085 10.25 2.375 10.25C3.3415 10.25 4.125 11.0335 4.125 12Z" fill="black"/>
<path d="M8.125 10.75C7.43464 10.75 6.875 11.3096 6.875 12C6.875 12.6904 7.43464 13.25 8.125 13.25H22.125C22.8154 13.25 23.375 12.6904 23.375 12C23.375 11.3096 22.8154 10.75 22.125 10.75H8.125Z" fill="black"/>
<path d="M4.125 21.5C4.125 22.4665 3.3415 23.25 2.375 23.25C1.4085 23.25 0.625 22.4665 0.625 21.5C0.625 20.5335 1.4085 19.75 2.375 19.75C3.3415 19.75 4.125 20.5335 4.125 21.5Z" fill="black"/>
<path d="M8.125 20.25C7.43464 20.25 6.875 20.8096 6.875 21.5C6.875 22.1904 7.43464 22.75 8.125 22.75H22.125C22.8154 22.75 23.375 22.1904 23.375 21.5C23.375 20.8096 22.8154 20.25 22.125 20.25H8.125Z" fill="black"/>
</svg>
