<svg width="24" height="24" viewBox="0 0 24 24" fill="none" xmlns="http://www.w3.org/2000/svg">
<path fill-rule="evenodd" clip-rule="evenodd" d="M0.123117 8.43565C0 9.21298 0 10.142 0 12C0 13.858 0 14.787 0.123117 15.5643C0.800832 19.8433 4.15673 23.1992 8.43565 23.8769C9.21298 24 10.142 24 12 24C13.858 24 14.787 24 15.5643 23.8769C19.8433 23.1992 23.1992 19.8433 23.8769 15.5643C24 14.787 24 13.858 24 12C24 10.142 24 9.21298 23.8769 8.43565C23.1992 4.15673 19.8433 0.800832 15.5643 0.123117C14.787 0 13.858 0 12 0C10.142 0 9.21298 0 8.43565 0.123117C4.15673 0.800832 0.800832 4.15673 0.123117 8.43565ZM7.36458 6.45833C7.36458 7.01062 6.91687 7.45833 6.36458 7.45833C5.8123 7.45833 5.36458 7.01062 5.36458 6.45833C5.36458 5.90605 5.8123 5.45833 6.36458 5.45833C6.91687 5.45833 7.36458 5.90605 7.36458 6.45833ZM9.07292 6.45833C9.07292 6.11316 9.35274 5.83333 9.69792 5.83333H17.9062C18.2514 5.83333 18.5312 6.11316 18.5312 6.45833C18.5312 6.80351 18.2514 7.08333 17.9062 7.08333H9.69792C9.35274 7.08333 9.07292 6.80351 9.07292 6.45833ZM6.36458 13C6.91687 13 7.36458 12.5523 7.36458 12C7.36458 11.4477 6.91687 11 6.36458 11C5.8123 11 5.36458 11.4477 5.36458 12C5.36458 12.5523 5.8123 13 6.36458 13ZM9.07292 12C9.07292 11.6548 9.35274 11.375 9.69792 11.375H17.9062C18.2514 11.375 18.5312 11.6548 18.5312 12C18.5312 12.3452 18.2514 12.625 17.9062 12.625H9.69792C9.35274 12.625 9.07292 12.3452 9.07292 12ZM6.36458 18.5417C6.91687 18.5417 7.36458 18.094 7.36458 17.5417C7.36458 16.9894 6.91687 16.5417 6.36458 16.5417C5.8123 16.5417 5.36458 16.9894 5.36458 17.5417C5.36458 18.094 5.8123 18.5417 6.36458 18.5417ZM9.07292 17.5417C9.07292 17.1965 9.35274 16.9167 9.69792 16.9167H17.9062C18.2514 16.9167 18.5312 17.1965 18.5312 17.5417C18.5312 17.8868 18.2514 18.1667 17.9062 18.1667H9.69792C9.35274 18.1667 9.07292 17.8868 9.07292 17.5417Z" fill="black"/>
</svg>
