<svg width="24" height="24" viewBox="0 0 24 24" fill="none" xmlns="http://www.w3.org/2000/svg">
<path d="M1.875 3.25C2.28921 3.25 2.625 2.91421 2.625 2.5C2.625 2.08579 2.28921 1.75 1.875 1.75C1.46079 1.75 1.125 2.08579 1.125 2.5C1.125 2.91421 1.46079 3.25 1.875 3.25Z" fill="black"/>
<path d="M5.625 2.25C5.48693 2.25 5.375 2.36193 5.375 2.5C5.375 2.63807 5.48693 2.75 5.625 2.75H22.625C22.7631 2.75 22.875 2.63807 22.875 2.5C22.875 2.36193 22.7631 2.25 22.625 2.25H5.625Z" fill="black"/>
<path d="M2.625 12C2.625 12.4142 2.28921 12.75 1.875 12.75C1.46079 12.75 1.125 12.4142 1.125 12C1.125 11.5858 1.46079 11.25 1.875 11.25C2.28921 11.25 2.625 11.5858 2.625 12Z" fill="black"/>
<path d="M5.625 11.75C5.48693 11.75 5.375 11.8619 5.375 12C5.375 12.1381 5.48693 12.25 5.625 12.25H22.625C22.7631 12.25 22.875 12.1381 22.875 12C22.875 11.8619 22.7631 11.75 22.625 11.75H5.625Z" fill="black"/>
<path d="M2.625 21.5C2.625 21.9142 2.28921 22.25 1.875 22.25C1.46079 22.25 1.125 21.9142 1.125 21.5C1.125 21.0858 1.46079 20.75 1.875 20.75C2.28921 20.75 2.625 21.0858 2.625 21.5Z" fill="black"/>
<path d="M5.625 21.25C5.48693 21.25 5.375 21.3619 5.375 21.5C5.375 21.6381 5.48693 21.75 5.625 21.75H22.625C22.7631 21.75 22.875 21.6381 22.875 21.5C22.875 21.3619 22.7631 21.25 22.625 21.25H5.625Z" fill="black"/>
</svg>
