<svg width="24" height="24" viewBox="0 0 24 24" fill="none" xmlns="http://www.w3.org/2000/svg">
<path d="M2.5 19.625C3.53553 19.625 4.375 20.4645 4.375 21.5C4.375 22.5355 3.53553 23.375 2.5 23.375C1.46447 23.375 0.625 22.5355 0.625 21.5C0.625 20.4645 1.46447 19.625 2.5 19.625Z" fill="black"/>
<path d="M22.125 20C22.9534 20 23.625 20.6716 23.625 21.5C23.625 22.3284 22.9534 23 22.125 23H8.375C7.54657 23 6.875 22.3284 6.875 21.5C6.875 20.6716 7.54657 20 8.375 20H22.125Z" fill="black"/>
<path d="M2.5 10.125C3.53553 10.125 4.375 10.9645 4.375 12C4.375 13.0355 3.53553 13.875 2.5 13.875C1.46447 13.875 0.625 13.0355 0.625 12C0.625 10.9645 1.46447 10.125 2.5 10.125Z" fill="black"/>
<path d="M22.125 10.5C22.9534 10.5 23.625 11.1716 23.625 12C23.625 12.8284 22.9534 13.5 22.125 13.5H8.375C7.54657 13.5 6.875 12.8284 6.875 12C6.875 11.1716 7.54657 10.5 8.375 10.5H22.125Z" fill="black"/>
<path d="M2.5 0.625C3.53553 0.625 4.375 1.46447 4.375 2.5C4.375 3.53553 3.53553 4.375 2.5 4.375C1.46447 4.375 0.625 3.53553 0.625 2.5C0.625 1.46447 1.46447 0.625 2.5 0.625Z" fill="black"/>
<path d="M22.125 1C22.9534 1 23.625 1.67157 23.625 2.5C23.625 3.32843 22.9534 4 22.125 4H8.375C7.54657 4 6.875 3.32843 6.875 2.5C6.875 1.67157 7.54657 1 8.375 1H22.125Z" fill="black"/>
</svg>
