<svg width="24" height="24" viewBox="0 0 24 24" fill="none" xmlns="http://www.w3.org/2000/svg">
<path fill-rule="evenodd" clip-rule="evenodd" d="M12 0.75C5.7868 0.75 0.75 5.7868 0.75 12C0.75 18.2132 5.7868 23.25 12 23.25C18.2132 23.25 23.25 18.2132 23.25 12C23.25 5.7868 18.2132 0.75 12 0.75ZM21.3568 14.75C21.6127 13.8778 21.75 12.955 21.75 12C21.75 11.045 21.6127 10.1222 21.3568 9.25H16.6153C16.7035 10.1314 16.75 11.0531 16.75 12C16.75 12.9469 16.7035 13.8686 16.6153 14.75H21.3568ZM20.7774 16.25C19.5839 18.7105 17.3862 20.5935 14.717 21.3664C15.0225 20.877 15.2934 20.311 15.5293 19.6916C15.907 18.7002 16.2096 17.5342 16.419 16.25H20.7774ZM14.8978 16.25C14.7057 17.3471 14.4427 18.3304 14.1276 19.1576C13.7847 20.0577 13.3946 20.7344 12.9997 21.1729C12.6046 21.6116 12.2655 21.75 12 21.75C11.7345 21.75 11.3954 21.6116 11.0003 21.1729C10.6054 20.7344 10.2153 20.0577 9.87244 19.1576C9.55732 18.3304 9.29427 17.3471 9.10222 16.25H14.8978ZM7.58096 16.25C7.79041 17.5342 8.09303 18.7002 8.47071 19.6916C8.70665 20.311 8.97747 20.877 9.28301 21.3664C6.6138 20.5935 4.41613 18.7105 3.22256 16.25H7.58096ZM2.64321 14.75H7.38474C7.29653 13.8686 7.25 12.9469 7.25 12C7.25 11.0531 7.29653 10.1314 7.38474 9.25H2.64321C2.38729 10.1222 2.25 11.045 2.25 12C2.25 12.955 2.38729 13.8778 2.64321 14.75ZM8.89268 14.75H15.1073C15.2 13.8789 15.25 12.9567 15.25 12C15.25 11.0433 15.2 10.1211 15.1073 9.25H8.89268C8.80005 10.1211 8.75 11.0433 8.75 12C8.75 12.9567 8.80005 13.8789 8.89268 14.75ZM16.419 7.75H20.7774C19.5839 5.28951 17.3862 3.40651 14.717 2.63358C15.0225 3.12303 15.2934 3.68905 15.5293 4.30838C15.907 5.29979 16.2096 6.46582 16.419 7.75ZM14.1276 4.84238C14.4427 5.66956 14.7057 6.65291 14.8978 7.75H9.10222C9.29427 6.65291 9.55732 5.66956 9.87244 4.84238C10.2153 3.94227 10.6054 3.26556 11.0003 2.82707C11.3954 2.38841 11.7345 2.25 12 2.25C12.2655 2.25 12.6046 2.38841 12.9997 2.82707C13.3946 3.26556 13.7847 3.94227 14.1276 4.84238ZM7.58096 7.75H3.22256C4.41613 5.28951 6.6138 3.40651 9.28301 2.63358C8.97747 3.12303 8.70664 3.68905 8.47071 4.30838C8.09303 5.29979 7.79041 6.46582 7.58096 7.75Z" fill="black"/>
</svg>
