<svg width="24" height="24" viewBox="0 0 24 24" fill="none" xmlns="http://www.w3.org/2000/svg">
<path d="M9.37476 6.99959C9.56431 5.80654 9.81847 4.73584 10.1202 3.83053C10.4628 2.80298 10.8486 2.04357 11.2284 1.56158C11.6172 1.06832 11.8854 0.999587 12 0.999587C12.1145 0.999587 12.3828 1.06832 12.7716 1.56158C13.1514 2.04357 13.5372 2.80298 13.8797 3.83053C14.1815 4.73584 14.4357 5.80654 14.6252 6.99959H9.37476Z" fill="black"/>
<path d="M7.35146 6.99959C7.56024 5.58508 7.85611 4.2984 8.22288 3.19808C8.52455 2.29307 8.88553 1.47949 9.30897 0.816413C5.92518 1.62769 3.1231 3.93484 1.64104 6.99959H7.35146Z" fill="black"/>
<path d="M0.895296 8.99959H7.12245C7.04219 9.96377 6.99999 10.9688 6.99999 11.9996C6.99999 13.0304 7.04219 14.0354 7.12245 14.9996H0.895161C0.637457 14.0433 0.5 13.0376 0.5 11.9998C0.5 10.9619 0.637506 9.95607 0.895296 8.99959Z" fill="black"/>
<path d="M1.64079 16.9996H7.35146C7.56024 18.4141 7.85611 19.7008 8.22288 20.8011C8.52464 21.7064 8.88574 22.5202 9.30934 23.1833C5.9252 22.3721 3.12285 20.0647 1.64079 16.9996Z" fill="black"/>
<path d="M14.6906 23.1834C15.1142 22.5202 15.4753 21.7064 15.7771 20.8011C16.1439 19.7008 16.4397 18.4141 16.6485 16.9996H22.3592C20.8771 20.0647 18.0748 22.3721 14.6906 23.1834Z" fill="black"/>
<path d="M23.1048 14.9996H16.8775C16.9578 14.0354 17 13.0304 17 11.9996C17 10.9688 16.9578 9.96377 16.8775 8.99959H23.1047C23.3625 9.95607 23.5 10.9619 23.5 11.9998C23.5 13.0376 23.3625 14.0433 23.1048 14.9996Z" fill="black"/>
<path d="M22.359 6.99959C20.8769 3.93483 18.0748 1.62768 14.691 0.816406C15.1144 1.47948 15.4754 2.29307 15.7771 3.19808C16.1439 4.2984 16.4397 5.58508 16.6485 6.99959H22.359Z" fill="black"/>
<path d="M13.8797 20.1686C14.1815 19.2633 14.4357 18.1926 14.6252 16.9996H9.37476C9.56431 18.1926 9.81847 19.2633 10.1202 20.1686C10.4628 21.1962 10.8486 21.9556 11.2284 22.4376C11.6172 22.9309 11.8854 22.9996 12 22.9996C12.1145 22.9996 12.3828 22.9309 12.7716 22.4376C13.1514 21.9556 13.5372 21.1962 13.8797 20.1686Z" fill="black"/>
<path d="M15 11.9996C15 13.0411 14.9545 14.0466 14.8702 14.9996H9.12979C9.04543 14.0466 8.99999 13.0411 8.99999 11.9996C8.99999 10.958 9.04543 9.95253 9.12979 8.99959H14.8702C14.9545 9.95253 15 10.958 15 11.9996Z" fill="black"/>
</svg>
