<svg width="24" height="24" viewBox="0 0 24 24" fill="none" xmlns="http://www.w3.org/2000/svg">
<path d="M8.51017 7.74975C8.71106 6.17248 9.02015 4.75975 9.40873 3.59401C9.76581 2.52279 10.1855 1.67392 10.6394 1.098C10.8326 0.852753 11.0269 0.663123 11.2203 0.526013C11.478 0.508763 11.738 0.5 12 0.5C12.262 0.5 12.522 0.508763 12.7796 0.526011C12.9731 0.663121 13.1673 0.852752 13.3606 1.098C13.8145 1.67392 14.2342 2.52279 14.5912 3.59401C14.9798 4.75975 15.2889 6.17248 15.4898 7.74975H8.51017Z" fill="black"/>
<path d="M13.6059 0.611233C13.6558 0.668056 13.705 0.7272 13.7533 0.788514C14.2566 1.42706 14.6988 2.33555 15.0656 3.4359C15.4709 4.65181 15.7896 6.11886 15.9938 7.74975H22.6891C21.1886 3.97957 17.7513 1.19044 13.6059 0.611233Z" fill="black"/>
<path d="M10.3941 0.611236C10.3441 0.668059 10.295 0.727202 10.2467 0.788514C9.74343 1.42706 9.30117 2.33555 8.93439 3.4359C8.52909 4.65181 8.21042 6.11886 8.0062 7.74975H1.31095C2.81137 3.97958 6.2487 1.19045 10.3941 0.611236Z" fill="black"/>
<path d="M1.12537 8.24975H7.94775C7.81924 9.43204 7.74999 10.6927 7.74999 12.0002C7.74999 13.3075 7.8192 14.5677 7.94764 15.7498H1.12519C0.720018 14.5745 0.5 13.3129 0.5 12C0.5 10.6869 0.720079 9.42518 1.12537 8.24975Z" fill="black"/>
<path d="M1.31075 16.2498H8.00607C8.21029 17.881 8.52901 19.3484 8.93439 20.5646C9.30117 21.6649 9.74343 22.5734 10.2467 23.212C10.2948 23.2731 10.3438 23.332 10.3936 23.3887C6.24825 22.8093 2.811 20.02 1.31075 16.2498Z" fill="black"/>
<path d="M11.2196 23.4739C11.4775 23.4912 11.7377 23.5 12 23.5C12.2623 23.5 12.5225 23.4912 12.7804 23.4739C12.9736 23.3369 13.1676 23.1474 13.3606 22.9025C13.8145 22.3266 14.2342 21.4777 14.5912 20.4065C14.9799 19.2405 15.289 17.8274 15.4899 16.2498H8.51004C8.71093 17.8274 9.02007 19.2405 9.40873 20.4065C9.76581 21.4777 10.1855 22.3266 10.6394 22.9025C10.8324 23.1474 11.0264 23.3369 11.2196 23.4739Z" fill="black"/>
<path d="M13.6064 23.3887C17.7517 22.8093 21.189 20.02 22.6893 16.2498H15.9939C15.7897 17.881 15.471 19.3484 15.0656 20.5646C14.6988 21.6649 14.2566 22.5734 13.7533 23.212C13.7052 23.2731 13.6562 23.332 13.6064 23.3887Z" fill="black"/>
<path d="M22.8748 15.7498H16.0523C16.1808 14.5677 16.25 13.3075 16.25 12.0002C16.25 10.6927 16.1807 9.43204 16.0522 8.24975H22.8746C23.2799 9.42518 23.5 10.6869 23.5 12C23.5 13.3129 23.28 14.5745 22.8748 15.7498Z" fill="black"/>
<path d="M15.75 12.0002C15.75 13.3119 15.6794 14.5725 15.5493 15.7498H8.45063C8.32061 14.5725 8.24999 13.3119 8.24999 12.0002C8.24999 10.6882 8.32065 9.42732 8.45074 8.24975H15.5492C15.6793 9.42732 15.75 10.6882 15.75 12.0002Z" fill="black"/>
</svg>
