<svg width="24" height="24" viewBox="0 0 24 24" fill="none" xmlns="http://www.w3.org/2000/svg">
<path d="M8.79543 7.49951C8.9945 6.05007 9.2862 4.75193 9.6459 3.67283C9.99813 2.61616 10.4065 1.79712 10.8357 1.25251C11.2694 0.70226 11.6666 0.5 12 0.5C12.3334 0.5 12.7306 0.70226 13.1643 1.25251C13.5935 1.79712 14.0019 2.61616 14.3541 3.67283C14.7138 4.75193 15.0055 6.05007 15.2046 7.49951H8.79543Z" fill="black"/>
<path d="M7.78636 7.49951C7.99301 5.94159 8.30442 4.53501 8.69722 3.3566C9.06231 2.26132 9.50646 1.33646 10.0225 0.66914C6.13515 1.34285 2.91692 3.96833 1.41388 7.49951H7.78636Z" fill="black"/>
<path d="M1.04238 8.49951H7.67032C7.55929 9.61085 7.49999 10.786 7.49999 12C7.49999 13.2137 7.55926 14.3885 7.67023 15.4995H1.04222C0.690071 14.396 0.5 13.2201 0.5 11.9998C0.5 10.7793 0.690128 9.60319 1.04238 8.49951Z" fill="black"/>
<path d="M1.41367 16.4995H7.78623C7.99288 18.0578 8.30434 19.4647 8.69722 20.6434C9.06221 21.7384 9.50622 22.663 10.0221 23.3303C6.13473 22.6565 2.91656 20.0308 1.41367 16.4995Z" fill="black"/>
<path d="M11.9794 23.4997C11.9863 23.4998 11.9931 23.4998 12 23.4998C12.0069 23.4998 12.0137 23.4998 12.0206 23.4997C12.3497 23.4916 12.7395 23.2865 13.1643 22.7475C13.5935 22.2029 14.0019 21.3838 14.3541 20.3272C14.7139 19.2478 15.0056 17.9493 15.2047 16.4995H8.79529C8.99437 17.9493 9.28612 19.2478 9.6459 20.3272C9.99813 21.3838 10.4065 22.2029 10.8357 22.7475C11.2605 23.2865 11.6503 23.4916 11.9794 23.4997Z" fill="black"/>
<path d="M13.9779 23.3303C17.8653 22.6565 21.0834 20.0308 22.5863 16.4995H16.2137C16.0071 18.0578 15.6956 19.4647 15.3028 20.6434C14.9378 21.7384 14.4938 22.663 13.9779 23.3303Z" fill="black"/>
<path d="M22.9578 15.4995H16.3298C16.4407 14.3885 16.5 13.2137 16.5 12C16.5 10.786 16.4407 9.61085 16.3297 8.49951H22.9576C23.3099 9.60319 23.5 10.7793 23.5 11.9998C23.5 13.2201 23.3099 14.396 22.9578 15.4995Z" fill="black"/>
<path d="M22.5861 7.49951C21.0831 3.96832 17.8648 1.34284 13.9775 0.669136C14.4935 1.33646 14.9377 2.26132 15.3028 3.3566C15.6956 4.53501 16.007 5.94159 16.2136 7.49951H22.5861Z" fill="black"/>
<path d="M15.5 12C15.5 13.2212 15.4384 14.3965 15.3246 15.4995H8.67536C8.56162 14.3965 8.49999 13.2212 8.49999 12C8.49999 10.7784 8.56166 9.60283 8.67546 8.49951H15.3245C15.4383 9.60283 15.5 10.7784 15.5 12Z" fill="black"/>
</svg>
