<svg width="24" height="24" viewBox="0 0 24 24" fill="none" xmlns="http://www.w3.org/2000/svg">
<path fill-rule="evenodd" clip-rule="evenodd" d="M3 14.8C3 13.1198 3 12.2798 3.32698 11.638C3.6146 11.0735 4.07354 10.6146 4.63803 10.327C4.99429 10.1455 5.41168 10.0647 6 10.0288L6 7C6 3.68629 8.68629 1 12 1C15.3137 0.999999 18 3.68629 18 7L18 10.0288C18.5883 10.0647 19.0057 10.1455 19.362 10.327C19.9265 10.6146 20.3854 11.0735 20.673 11.638C21 12.2798 21 13.1198 21 14.8L21 18.2C21 19.8802 21 20.7202 20.673 21.362C20.3854 21.9265 19.9265 22.3854 19.362 22.673C18.7202 23 17.8802 23 16.2 23L7.8 23C6.11984 23 5.27976 23 4.63803 22.673C4.07354 22.3854 3.6146 21.9265 3.32698 21.362C3 20.7202 3 19.8802 3 18.2L3 14.8ZM16 10L16 7C16 4.79086 14.2091 3 12 3C9.79086 3 8 4.79086 8 7L8 10L16 10ZM12 14C12.5523 14 13 14.4477 13 15L13 18C13 18.5523 12.5523 19 12 19C11.4477 19 11 18.5523 11 18L11 15C11 14.4477 11.4477 14 12 14Z" fill="black"/>
</svg>
