<svg width="24" height="24" viewBox="0 0 24 24" fill="none" xmlns="http://www.w3.org/2000/svg">
<path fill-rule="evenodd" clip-rule="evenodd" d="M3 14.675C3 12.9948 3 12.1548 3.32698 11.513C3.6146 10.9485 4.07354 10.4896 4.63803 10.202C5.04278 9.99575 5.52643 9.91959 6.25 9.89147L6.25 6.875C6.25 3.69936 8.82436 1.125 12 1.125C15.1756 1.125 17.75 3.69936 17.75 6.875L16.25 6.875C16.25 4.52779 14.3472 2.625 12 2.625C9.65279 2.625 7.75 4.52779 7.75 6.875L7.75 9.875C7.76658 9.875 7.78325 9.875 7.8 9.875L16.2 9.875C17.8802 9.875 18.7202 9.875 19.362 10.202C19.9265 10.4896 20.3854 10.9485 20.673 11.513C21 12.1548 21 12.9948 21 14.675L21 18.075C21 19.7552 21 20.5952 20.673 21.237C20.3854 21.8015 19.9265 22.2604 19.362 22.548C18.7202 22.875 17.8802 22.875 16.2 22.875L7.8 22.875C6.11984 22.875 5.27976 22.875 4.63803 22.548C4.07354 22.2604 3.6146 21.8015 3.32698 21.237C3 20.5952 3 19.7552 3 18.075L3 14.675ZM12 14.125C12.4142 14.125 12.75 14.4608 12.75 14.875L12.75 17.875C12.75 18.2892 12.4142 18.625 12 18.625C11.5858 18.625 11.25 18.2892 11.25 17.875L11.25 14.875C11.25 14.4608 11.5858 14.125 12 14.125Z" fill="black"/>
</svg>
