<svg width="24" height="24" viewBox="0 0 24 24" fill="none" xmlns="http://www.w3.org/2000/svg">
<path fill-rule="evenodd" clip-rule="evenodd" d="M3 14.55C3 12.8698 3 12.0298 3.32698 11.388C3.6146 10.8235 4.07354 10.3646 4.63803 10.077C5.0877 9.84786 5.63476 9.77929 6.5 9.75876L6.5 6.75C6.5 3.71243 8.96243 1.25 12 1.25C15.0376 1.25 17.5 3.71243 17.5 6.75L17.5 9.75876C18.3652 9.77929 18.9123 9.84786 19.362 10.077C19.9265 10.3646 20.3854 10.8235 20.673 11.388C21 12.0298 21 12.8698 21 14.55L21 17.95C21 19.6302 21 20.4702 20.673 21.112C20.3854 21.6765 19.9265 22.1354 19.362 22.423C18.7202 22.75 17.8802 22.75 16.2 22.75L7.8 22.75C6.11984 22.75 5.27976 22.75 4.63803 22.423C4.07354 22.1354 3.6146 21.6765 3.32698 21.112C3 20.4702 3 19.6302 3 17.95L3 14.55ZM16.5 9.75007L16.5 6.75C16.5 4.26472 14.4853 2.25 12 2.25C9.51472 2.25 7.5 4.26472 7.5 6.75L7.5 9.75007C7.59693 9.75 7.69689 9.75 7.8 9.75L16.2 9.75C16.3031 9.75 16.4031 9.75 16.5 9.75007ZM12 14.25C12.2761 14.25 12.5 14.4739 12.5 14.75L12.5 17.75C12.5 18.0261 12.2761 18.25 12 18.25C11.7239 18.25 11.5 18.0261 11.5 17.75L11.5 14.75C11.5 14.4739 11.7239 14.25 12 14.25Z" fill="black"/>
</svg>
