<svg width="24" height="24" viewBox="0 0 24 24" fill="none" xmlns="http://www.w3.org/2000/svg">
<path fill-rule="evenodd" clip-rule="evenodd" d="M7.78847 10.25L7.8 10.25L16.2 10.25L16.2115 10.25L16.2115 10.25L16.2116 10.25C17.0419 10.25 17.6803 10.25 18.1908 10.2917C18.7065 10.3338 19.1135 10.4198 19.4755 10.6042C20.087 10.9158 20.5842 11.413 20.8958 12.0245C21.0802 12.3865 21.1662 12.7935 21.2083 13.3092C21.25 13.8197 21.25 14.4581 21.25 15.2883L21.25 15.2885L21.25 15.3L21.25 17.7L21.25 17.7115L21.25 17.7117C21.25 18.5419 21.25 19.1803 21.2083 19.6908C21.1662 20.2065 21.0802 20.6135 20.8958 20.9755C20.5842 21.587 20.087 22.0842 19.4755 22.3958C19.1135 22.5802 18.7065 22.6662 18.1908 22.7083C17.6803 22.75 17.0419 22.75 16.2115 22.75L16.2 22.75L7.8 22.75L7.78846 22.75C6.95814 22.75 6.31968 22.75 5.80925 22.7083C5.29353 22.6662 4.88652 22.5802 4.52453 22.3958C3.913 22.0842 3.41582 21.587 3.10423 20.9755C2.91979 20.6135 2.83384 20.2065 2.7917 19.6908C2.75 19.1803 2.75 18.5419 2.75 17.7115L2.75 17.7L2.75 15.3L2.75 15.2885C2.75 14.4581 2.75 13.8197 2.7917 13.3092C2.83384 12.7935 2.91979 12.3865 3.10423 12.0245C3.41582 11.413 3.913 10.9158 4.52453 10.6042C4.88652 10.4198 5.29353 10.3338 5.80925 10.2917C6.08279 10.2694 6.3931 10.259 6.75 10.2542L6.75 6.5C6.75 3.60051 9.10051 1.25 12 1.25C14.8995 1.25 17.25 3.60051 17.25 6.5L16.75 6.5C16.75 3.87665 14.6234 1.75 12 1.75C9.37665 1.75 7.25 3.87665 7.25 6.5L7.25 10.2505C7.42002 10.25 7.59925 10.25 7.78844 10.25L7.78846 10.25L7.78847 10.25ZM5.84996 10.79C5.36517 10.8297 5.03128 10.9072 4.75153 11.0497C4.23408 11.3134 3.81338 11.7341 3.54973 12.2515C3.40719 12.5313 3.32965 12.8652 3.29004 13.35C3.25019 13.8377 3.25 14.4558 3.25 15.3L3.25 17.7C3.25 18.5442 3.25019 19.1623 3.29004 19.65C3.32965 20.1348 3.40719 20.4687 3.54973 20.7485C3.81338 21.2659 4.23408 21.6866 4.75153 21.9503C5.03128 22.0928 5.36517 22.1703 5.84996 22.21C6.33768 22.2498 6.9558 22.25 7.8 22.25L16.2 22.25C17.0442 22.25 17.6623 22.2498 18.15 22.21C18.6348 22.1703 18.9687 22.0928 19.2485 21.9503C19.7659 21.6866 20.1866 21.2659 20.4503 20.7485C20.5928 20.4687 20.6703 20.1348 20.71 19.65C20.7498 19.1623 20.75 18.5442 20.75 17.7L20.75 15.3C20.75 14.4558 20.7498 13.8377 20.71 13.35C20.6703 12.8652 20.5928 12.5313 20.4503 12.2515C20.1866 11.7341 19.7659 11.3134 19.2485 11.0497C18.9687 10.9072 18.6348 10.8297 18.15 10.79C17.6623 10.7502 17.0442 10.75 16.2 10.75L7.8 10.75C6.9558 10.75 6.33768 10.7502 5.84996 10.79ZM12 14.75C12.1381 14.75 12.25 14.8619 12.25 15L12.25 18C12.25 18.1381 12.1381 18.25 12 18.25C11.8619 18.25 11.75 18.1381 11.75 18L11.75 15C11.75 14.8619 11.8619 14.75 12 14.75Z" fill="black"/>
</svg>
