<svg width="24" height="24" viewBox="0 0 24 24" fill="none" xmlns="http://www.w3.org/2000/svg">
<path fill-rule="evenodd" clip-rule="evenodd" d="M7.7679 9.75L7.8 9.75L16.2 9.75L16.2321 9.75L16.2322 9.75L16.2322 9.75C17.045 9.74999 17.7006 9.74999 18.2315 9.79336C18.7781 9.83802 19.2582 9.93238 19.7025 10.1587C20.4081 10.5182 20.9817 11.0919 21.3413 11.7975C21.5676 12.2418 21.662 12.7219 21.7066 13.2685C21.75 13.7994 21.75 14.455 21.75 15.2679L21.75 15.3L21.75 17.7L21.75 17.7321C21.75 18.545 21.75 19.2006 21.7066 19.7315C21.662 20.2781 21.5676 20.7582 21.3413 21.2025C20.9817 21.9081 20.4081 22.4817 19.7025 22.8413C19.2582 23.0676 18.7781 23.162 18.2315 23.2066C17.7006 23.25 17.045 23.25 16.2321 23.25L16.2 23.25L7.8 23.25L7.76788 23.25L7.76787 23.25C6.95504 23.25 6.29944 23.25 5.76853 23.2066C5.2219 23.162 4.74175 23.0676 4.29754 22.8413C3.59193 22.4817 3.01825 21.9081 2.65873 21.2025C2.43239 20.7582 2.33803 20.2781 2.29336 19.7315C2.24999 19.2006 2.24999 18.5449 2.25 17.7321L2.25 17.7321L2.25 17.7L2.25 15.3L2.25 15.2679L2.25 15.2679C2.24999 14.455 2.24999 13.7994 2.29336 13.2685C2.33803 12.7219 2.43239 12.2418 2.65873 11.7975C3.01825 11.0919 3.59193 10.5182 4.29754 10.1587C4.74175 9.93238 5.2219 9.83802 5.76853 9.79336C5.91879 9.78109 6.07903 9.77229 6.25 9.76597L6.25 6.5C6.25 3.32436 8.82436 0.75 12 0.749999C15.1756 0.749999 17.75 3.32436 17.75 6.5L16.25 6.5C16.25 4.15279 14.3472 2.25 12 2.25C9.65279 2.25 7.75 4.15279 7.75 6.5L7.75 9.75C7.75596 9.75 7.76192 9.75 7.7679 9.75ZM5.89068 11.2884C5.4368 11.3255 5.17604 11.3946 4.97852 11.4952C4.55516 11.7109 4.21095 12.0552 3.99524 12.4785C3.8946 12.676 3.82547 12.9368 3.78838 13.3907C3.75058 13.8533 3.75 14.4475 3.75 15.3L3.75 17.7C3.75 18.5525 3.75058 19.1467 3.78838 19.6093C3.82547 20.0632 3.8946 20.324 3.99524 20.5215C4.21095 20.9448 4.55516 21.289 4.97852 21.5048C5.17604 21.6054 5.4368 21.6745 5.89068 21.7116C6.35331 21.7494 6.94755 21.75 7.8 21.75L16.2 21.75C17.0525 21.75 17.6467 21.7494 18.1093 21.7116C18.5632 21.6745 18.824 21.6054 19.0215 21.5048C19.4448 21.289 19.789 20.9448 20.0048 20.5215C20.1054 20.324 20.1745 20.0632 20.2116 19.6093C20.2494 19.1467 20.25 18.5525 20.25 17.7L20.25 15.3C20.25 14.4475 20.2494 13.8533 20.2116 13.3907C20.1745 12.9368 20.1054 12.676 20.0048 12.4785C19.789 12.0552 19.4448 11.7109 19.0215 11.4952C18.824 11.3946 18.5632 11.3255 18.1093 11.2884C17.6467 11.2506 17.0525 11.25 16.2 11.25L7.8 11.25C6.94755 11.25 6.35331 11.2506 5.89068 11.2884ZM12 14.25C12.4142 14.25 12.75 14.5858 12.75 15L12.75 18C12.75 18.4142 12.4142 18.75 12 18.75C11.5858 18.75 11.25 18.4142 11.25 18L11.25 15C11.25 14.5858 11.5858 14.25 12 14.25Z" fill="black"/>
</svg>
