<svg width="24" height="24" viewBox="0 0 24 24" fill="none" xmlns="http://www.w3.org/2000/svg">
<path fill-rule="evenodd" clip-rule="evenodd" d="M5.75 9.29324C5.74259 9.29383 5.73519 9.29442 5.72782 9.29502C5.15026 9.34221 4.597 9.44498 4.07054 9.71322C3.27085 10.1207 2.62069 10.7708 2.21322 11.5705C1.94498 12.097 1.84221 12.6503 1.79503 13.2278C1.74997 13.7793 1.74998 14.4525 1.75 15.2501L1.75 15.2501L1.75 15.3L1.75 17.7L1.75 17.7498L1.75 17.7499C1.74998 18.5475 1.74997 19.2207 1.79503 19.7722C1.84221 20.3497 1.94498 20.903 2.21322 21.4295C2.62069 22.2291 3.27085 22.8793 4.07054 23.2868C4.59699 23.555 5.15026 23.6578 5.72782 23.705C6.27933 23.75 6.95255 23.75 7.75017 23.75L7.8 23.75L16.2 23.75L16.2498 23.75C17.0475 23.75 17.7207 23.75 18.2722 23.705C18.8497 23.6578 19.403 23.555 19.9295 23.2868C20.7292 22.8793 21.3793 22.2291 21.7868 21.4295C22.055 20.903 22.1578 20.3497 22.205 19.7722C22.25 19.2207 22.25 18.5475 22.25 17.7499L22.25 17.7499L22.25 17.7L22.25 15.3L22.25 15.2501L22.25 15.2501C22.25 14.4525 22.25 13.7793 22.205 13.2278C22.1578 12.6503 22.055 12.097 21.7868 11.5705C21.3793 10.7708 20.7292 10.1207 19.9295 9.71322C19.403 9.44498 18.8497 9.34221 18.2722 9.29502C18.2648 9.29442 18.2574 9.29383 18.25 9.29324L18.25 6.5C18.25 3.04822 15.4518 0.249997 12 0.249997C8.54822 0.249997 5.75 3.04822 5.75 6.5L5.75 9.29324ZM15.75 9.25L15.75 6.5C15.75 4.42893 14.0711 2.75 12 2.75C9.92893 2.75 8.25 4.42893 8.25 6.5L8.25 9.25L15.75 9.25ZM5.9314 11.7867C5.50844 11.8213 5.3208 11.882 5.20552 11.9407C4.87624 12.1085 4.60852 12.3762 4.44074 12.7055C4.382 12.8208 4.32128 13.0084 4.28672 13.4314C4.25097 13.8689 4.25 14.4393 4.25 15.3L4.25 17.7C4.25 18.5607 4.25097 19.1311 4.28672 19.5686C4.32128 19.9916 4.382 20.1792 4.44074 20.2945C4.60852 20.6238 4.87624 20.8915 5.20552 21.0593C5.3208 21.118 5.50844 21.1787 5.9314 21.2133C6.36895 21.249 6.9393 21.25 7.8 21.25L16.2 21.25C17.0607 21.25 17.6311 21.249 18.0686 21.2133C18.4916 21.1787 18.6792 21.118 18.7945 21.0593C19.1238 20.8915 19.3915 20.6238 19.5593 20.2945C19.618 20.1792 19.6787 19.9916 19.7133 19.5686C19.749 19.1311 19.75 18.5607 19.75 17.7L19.75 15.3C19.75 14.4393 19.749 13.8689 19.7133 13.4314C19.6787 13.0084 19.618 12.8208 19.5593 12.7055C19.3915 12.3762 19.1238 12.1085 18.7945 11.9407C18.6792 11.882 18.4916 11.8213 18.0686 11.7867C17.6311 11.751 17.0607 11.75 16.2 11.75L7.8 11.75C6.9393 11.75 6.36895 11.751 5.9314 11.7867ZM12 13.75C12.6904 13.75 13.25 14.3096 13.25 15L13.25 18C13.25 18.6904 12.6904 19.25 12 19.25C11.3096 19.25 10.75 18.6904 10.75 18L10.75 15C10.75 14.3096 11.3096 13.75 12 13.75Z" fill="black"/>
</svg>
