<svg width="24" height="24" viewBox="0 0 24 24" fill="none" xmlns="http://www.w3.org/2000/svg">
<path fill-rule="evenodd" clip-rule="evenodd" d="M6 9.52714C5.91325 9.53193 5.82933 9.53756 5.74818 9.54419C5.18608 9.59012 4.66937 9.68868 4.18404 9.93597C3.43139 10.3195 2.81947 10.9314 2.43598 11.684C2.18868 12.1694 2.09012 12.6861 2.04419 13.2482C1.99998 13.7894 1.99999 14.4537 2 15.2587L2 15.2587L2 15.3L2 17.7L2 17.7413L2 17.7413C1.99999 18.5463 1.99998 19.2106 2.04419 19.7518C2.09012 20.3139 2.18868 20.8306 2.43598 21.316C2.81947 22.0686 3.43139 22.6805 4.18404 23.064C4.66937 23.3113 5.18608 23.4099 5.74818 23.4558C6.28937 23.5 6.95374 23.5 7.75872 23.5L7.75873 23.5L7.8 23.5L16.2 23.5L16.2413 23.5C17.0463 23.5 17.7106 23.5 18.2518 23.4558C18.8139 23.4099 19.3306 23.3113 19.816 23.064C20.5686 22.6805 21.1805 22.0686 21.564 21.316C21.8113 20.8306 21.9099 20.3139 21.9558 19.7518C22 19.2106 22 18.5463 22 17.7413L22 17.7L22 15.3L22 15.2587C22 14.4537 22 13.7894 21.9558 13.2482C21.9099 12.6861 21.8113 12.1694 21.564 11.684C21.1805 10.9314 20.5686 10.3195 19.816 9.93597C19.3306 9.68868 18.8139 9.59012 18.2518 9.54419C17.7106 9.49998 17.0463 9.49999 16.2413 9.5L16.2413 9.5L16.2413 9.5L16.2 9.5L8 9.5L8 6.5C8 4.29086 9.79086 2.5 12 2.5C14.2091 2.5 16 4.29086 16 6.5L18 6.5C18 3.18629 15.3137 0.499999 12 0.499999C8.68629 0.499999 6 3.18629 6 6.5L6 9.52714ZM5.91104 11.5376C5.47262 11.5734 5.24842 11.6383 5.09202 11.718C4.7157 11.9097 4.40973 12.2157 4.21799 12.592C4.1383 12.7484 4.07337 12.9726 4.03755 13.411C4.00078 13.8611 4 14.4434 4 15.3L4 17.7C4 18.5566 4.00078 19.1389 4.03755 19.589C4.07337 20.0274 4.1383 20.2516 4.21799 20.408C4.40973 20.7843 4.7157 21.0903 5.09202 21.282C5.24842 21.3617 5.47262 21.4266 5.91104 21.4624C6.36113 21.4992 6.94342 21.5 7.8 21.5L16.2 21.5C17.0566 21.5 17.6389 21.4992 18.089 21.4624C18.5274 21.4266 18.7516 21.3617 18.908 21.282C19.2843 21.0903 19.5903 20.7843 19.782 20.408C19.8617 20.2516 19.9266 20.0274 19.9624 19.589C19.9992 19.1389 20 18.5566 20 17.7L20 15.3C20 14.4434 19.9992 13.8611 19.9624 13.411C19.9266 12.9726 19.8617 12.7484 19.782 12.592C19.5903 12.2157 19.2843 11.9097 18.908 11.718C18.7516 11.6383 18.5274 11.5734 18.089 11.5375C17.6389 11.5008 17.0566 11.5 16.2 11.5L7.8 11.5C6.94342 11.5 6.36113 11.5008 5.91104 11.5376ZM12 14C12.5523 14 13 14.4477 13 15L13 18C13 18.5523 12.5523 19 12 19C11.4477 19 11 18.5523 11 18L11 15C11 14.4477 11.4477 14 12 14Z" fill="black"/>
</svg>
