<svg width="24" height="24" viewBox="0 0 24 24" fill="none" xmlns="http://www.w3.org/2000/svg">
<path d="M16.7283 21.2722C16.176 21.2722 15.7283 21.7199 15.7283 22.2722C15.7283 22.8245 16.176 23.2722 16.7283 23.2722H17.9696C18.7745 23.2722 19.4389 23.2722 19.9801 23.228C20.5422 23.1821 21.0589 23.0835 21.5442 22.8362C22.2969 22.4527 22.9088 21.8408 23.2923 21.0882C23.5396 20.6028 23.6381 20.0861 23.6841 19.524C23.7283 18.9829 23.7283 18.3185 23.7283 17.5136V7.03092C23.7283 6.22596 23.7283 5.56158 23.6841 5.02039C23.6381 4.45829 23.5396 3.94159 23.2923 3.45626C22.9088 2.70361 22.2969 2.09168 21.5442 1.70819C21.0589 1.4609 20.5422 1.36234 19.9801 1.31641C19.4389 1.27219 18.7745 1.2722 17.9696 1.27222H16.7283C16.176 1.27222 15.7283 1.71993 15.7283 2.27222C15.7283 2.8245 16.176 3.27222 16.7283 3.27222H17.9283C18.7848 3.27222 19.3671 3.273 19.8172 3.30977C20.2556 3.34559 20.4798 3.41052 20.6362 3.4902C21.0126 3.68195 21.3185 3.98791 21.5103 4.36424C21.59 4.52064 21.6549 4.74484 21.6907 5.18325C21.7275 5.63335 21.7283 6.21564 21.7283 7.07222V17.4722C21.7283 18.3288 21.7275 18.9111 21.6907 19.3612C21.6549 19.7996 21.59 20.0238 21.5103 20.1802C21.3185 20.5565 21.0126 20.8625 20.6362 21.0542C20.4798 21.1339 20.2556 21.1988 19.8172 21.2347C19.3671 21.2714 18.7848 21.2722 17.9283 21.2722H16.7283Z" fill="black"/>
<path d="M15.0067 10.6028C15.0067 10.0839 15.0067 9.82448 15.1135 9.68912C15.2065 9.57136 15.3477 9.5019 15.4977 9.50013C15.6701 9.4981 15.8756 9.65643 16.2867 9.97307L18.7498 11.8704C19.028 12.0847 19.1671 12.1919 19.2171 12.3224C19.2609 12.4368 19.2609 12.5634 19.2171 12.6778C19.1671 12.8084 19.028 12.9155 18.7498 13.1299L16.2867 15.0272C15.8756 15.3438 15.6701 15.5021 15.4977 15.5001C15.3477 15.4983 15.2065 15.4289 15.1135 15.3111C15.0067 15.1758 15.0067 14.9163 15.0067 14.3974V13.5789H1.27246C0.720177 13.5789 0.272461 13.1312 0.272461 12.5789C0.272461 12.0266 0.720177 11.5789 1.27246 11.5789H15.0067V10.6028Z" fill="black"/>
</svg>
