<svg width="24" height="24" viewBox="0 0 24 24" fill="none" xmlns="http://www.w3.org/2000/svg">
<path d="M16.7283 22.0222C16.5902 22.0222 16.4783 22.1341 16.4783 22.2722C16.4783 22.4103 16.5902 22.5222 16.7283 22.5222H17.9398C18.7701 22.5222 19.4086 22.5222 19.919 22.4805C20.4347 22.4384 20.8417 22.3524 21.2037 22.168C21.8153 21.8564 22.3124 21.3592 22.624 20.7477C22.8085 20.3857 22.8944 19.9787 22.9366 19.463C22.9783 18.9525 22.9783 18.3141 22.9783 17.4838V7.06068C22.9783 6.23035 22.9783 5.5919 22.9366 5.08146C22.8944 4.56575 22.8085 4.15873 22.624 3.79675C22.3124 3.18522 21.8152 2.68803 21.2037 2.37645C20.8417 2.192 20.4347 2.10606 19.919 2.06392C19.4086 2.02222 18.7702 2.02222 17.9399 2.02222L16.7283 2.02222C16.5902 2.02222 16.4783 2.13415 16.4783 2.27222C16.4783 2.41029 16.5902 2.52222 16.7283 2.52222L17.9283 2.52222C18.7725 2.52222 19.3906 2.52241 19.8783 2.56226C20.3631 2.60187 20.697 2.67941 20.9767 2.82195C21.4942 3.0856 21.9149 3.5063 22.1785 4.02374C22.3211 4.30349 22.3986 4.63738 22.4382 5.12218C22.4781 5.6099 22.4783 6.22801 22.4783 7.07222V17.4722C22.4783 18.3164 22.4781 18.9345 22.4382 19.4223C22.3986 19.907 22.3211 20.2409 22.1785 20.5207C21.9149 21.0381 21.4942 21.4588 20.9767 21.7225C20.697 21.865 20.3631 21.9426 19.8783 21.9822C19.3906 22.022 18.7725 22.0222 17.9283 22.0222H16.7283Z" fill="black"/>
<path d="M17.1347 11.4025C17.2324 11.5001 17.2324 11.6584 17.1347 11.7561L11.0608 17.83C10.9632 17.9276 10.8049 17.9276 10.7073 17.83C10.6096 17.7324 10.6096 17.5741 10.7073 17.4764L16.3548 11.8289L1.27246 11.8289C1.13439 11.8289 1.02246 11.717 1.02246 11.5789C1.02246 11.4408 1.13439 11.3289 1.27246 11.3289L16.354 11.3289L10.7073 5.68215C10.6096 5.58452 10.6096 5.42623 10.7073 5.32859C10.8049 5.23097 10.9632 5.23097 11.0608 5.32859L17.1347 11.4025Z" fill="black"/>
</svg>
