<svg width="24" height="24" viewBox="0 0 24 24" fill="none" xmlns="http://www.w3.org/2000/svg">
<path fill-rule="evenodd" clip-rule="evenodd" d="M12 0C13.858 0 14.7871 -6.97747e-05 15.5645 0.123047C19.8433 0.800792 23.1992 4.1567 23.877 8.43555C24.0001 9.21287 24 10.142 24 12C24 13.858 24.0001 14.7871 23.877 15.5645C23.1992 19.8433 19.8433 23.1992 15.5645 23.877C14.7871 24.0001 13.858 24 12 24C10.142 24 9.21287 24.0001 8.43555 23.877C4.1567 23.1992 0.800792 19.8433 0.123047 15.5645C-6.97747e-05 14.7871 0 13.858 0 12C0 10.142 -6.97747e-05 9.21287 0.123047 8.43555C0.800792 4.1567 4.1567 0.800792 8.43555 0.123047C9.21287 -6.97747e-05 10.142 0 12 0ZM16.5078 5.2002C15.8867 5.20028 15.383 5.70407 15.3828 6.3252C15.3829 6.94641 15.8866 7.45012 16.5078 7.4502C16.8529 7.4502 17.1326 7.73017 17.1328 8.0752V16.2422C17.1327 16.5873 16.8529 16.8672 16.5078 16.8672C15.8866 16.8673 15.3828 17.3709 15.3828 17.9922C15.3829 18.6134 15.8866 19.1171 16.5078 19.1172C18.0956 19.1172 19.3827 17.8299 19.3828 16.2422V8.0752C19.3826 6.48753 18.0955 5.2002 16.5078 5.2002ZM12.3389 7.90332C11.8995 7.4642 11.1873 7.46405 10.748 7.90332C10.3092 8.34262 10.3091 9.05491 10.748 9.49414L12.3701 11.1162H5.74121L5.62695 11.1221C5.0597 11.1797 4.61621 11.6587 4.61621 12.2412C4.61658 12.8234 5.05986 13.3028 5.62695 13.3604L5.74121 13.3662H12.3721L10.748 14.9893L10.6709 15.0752C10.311 15.5171 10.3363 16.1693 10.748 16.5811C11.1598 16.9925 11.8121 17.0181 12.2539 16.6582L12.3389 16.5811L15.8828 13.0371C16.3216 12.5978 16.3217 11.8855 15.8828 11.4463L12.3389 7.90332Z" fill="black"/>
</svg>
