<svg width="24" height="24" viewBox="0 0 24 24" fill="none" xmlns="http://www.w3.org/2000/svg">
<path d="M16.7279 22.022C16.5898 22.022 16.4779 22.1339 16.4779 22.272C16.4779 22.41 16.5898 22.522 16.7279 22.522H17.9394C18.7698 22.522 19.4082 22.522 19.9186 22.4803C20.4344 22.4381 20.8414 22.3522 21.2034 22.1677C21.8149 21.8562 22.3121 21.359 22.6237 20.7474C22.8081 20.3855 22.8941 19.9784 22.9362 19.4627C22.9779 18.9523 22.9779 18.3138 22.9779 17.4835V7.06043C22.9779 6.23011 22.9779 5.59166 22.9362 5.08122C22.8941 4.5655 22.8081 4.15849 22.6237 3.7965C22.3121 3.18498 21.8149 2.68779 21.2034 2.3762C20.8414 2.19176 20.4344 2.10581 19.9186 2.06367C19.4082 2.02197 18.7698 2.02197 17.9395 2.02197L16.7279 2.02197C16.5898 2.02197 16.4779 2.1339 16.4779 2.27197C16.4779 2.41004 16.5898 2.52197 16.7279 2.52197L17.9279 2.52197C18.7721 2.52197 19.3902 2.52217 19.8779 2.56202C20.3627 2.60162 20.6966 2.67916 20.9764 2.8217C21.4938 3.08536 21.9145 3.50605 22.1782 4.0235C22.3207 4.30325 22.3982 4.63714 22.4378 5.12194C22.4777 5.60965 22.4779 6.22777 22.4779 7.07197V17.472C22.4779 18.3162 22.4777 18.9343 22.4378 19.422C22.3982 19.9068 22.3207 20.2407 22.1782 20.5204C21.9145 21.0379 21.4938 21.4586 20.9764 21.7222C20.6966 21.8648 20.3627 21.9423 19.8779 21.9819C19.3902 22.0218 18.7721 22.022 17.9279 22.022H16.7279Z" fill="black"/>
<path d="M17.1285 10.5512C17.1285 10.2918 17.1285 10.1621 17.1819 10.0944C17.2284 10.0355 17.299 10.0008 17.374 9.99988C17.4602 9.99886 17.563 10.078 17.7685 10.2363L19 11.185C19.1391 11.2922 19.2087 11.3457 19.2337 11.411C19.2556 11.4682 19.2556 11.5315 19.2337 11.5887C19.2087 11.654 19.1391 11.7076 19 11.8147L17.7685 12.7634C17.563 12.9217 17.4602 13.0009 17.374 12.9999C17.299 12.999 17.2284 12.9642 17.1819 12.9054C17.1285 12.8377 17.1285 12.708 17.1285 12.4485V11.8287L1.27209 11.8287C1.13402 11.8287 1.02209 11.7167 1.02209 11.5787C1.02209 11.4406 1.13402 11.3287 1.27209 11.3287L17.1285 11.3287V10.5512Z" fill="black"/>
</svg>
