<svg width="24" height="24" viewBox="0 0 24 24" fill="none" xmlns="http://www.w3.org/2000/svg">
<path fill-rule="evenodd" clip-rule="evenodd" d="M0.123117 8.43565C0 9.21298 0 10.142 0 12C0 13.858 0 14.787 0.123117 15.5643C0.800832 19.8433 4.15673 23.1992 8.43565 23.8769C9.21298 24 10.142 24 12 24C13.858 24 14.787 24 15.5643 23.8769C19.8433 23.1992 23.1992 19.8433 23.8769 15.5643C24 14.787 24 13.858 24 12C24 10.142 24 9.21298 23.8769 8.43565C23.1992 4.15673 19.8433 0.800832 15.5643 0.123117C14.787 0 13.858 0 12 0C10.142 0 9.21298 0 8.43565 0.123117C4.15673 0.800832 0.800832 4.15673 0.123117 8.43565ZM16.258 17.9921C16.258 17.854 16.3699 17.7421 16.508 17.7421C17.3364 17.7421 18.008 17.0705 18.008 16.2421V8.07539C18.008 7.24697 17.3364 6.57539 16.508 6.57539C16.3699 6.57539 16.258 6.46347 16.258 6.32539C16.258 6.18732 16.3699 6.07539 16.508 6.07539C17.6125 6.07539 18.508 6.97082 18.508 8.07539V16.2421C18.508 17.3466 17.6125 18.2421 16.508 18.2421C16.3699 18.2421 16.258 18.1301 16.258 17.9921ZM15.6525 12.4175C15.7501 12.3198 15.7501 12.1615 15.6525 12.0639L12.1093 8.52079C12.0117 8.42316 11.8534 8.42316 11.7558 8.52079C11.6582 8.61843 11.6582 8.77672 11.7558 8.87435L14.8721 11.9907L5.74208 11.9907C5.60401 11.9907 5.49208 12.1026 5.49208 12.2407C5.49208 12.3788 5.60401 12.4907 5.74208 12.4907L14.8721 12.4907L11.7558 15.607C11.6582 15.7047 11.6582 15.863 11.7558 15.9606C11.8534 16.0582 12.0117 16.0582 12.1093 15.9606L15.6525 12.4175Z" fill="black"/>
</svg>
