<svg width="24" height="24" viewBox="0 0 24 24" fill="none" xmlns="http://www.w3.org/2000/svg">
<path d="M16.7283 21.5222C16.314 21.5222 15.9783 21.858 15.9783 22.2722C15.9783 22.6864 16.314 23.0222 16.7283 23.0222H17.9604C18.7732 23.0222 19.4288 23.0222 19.9597 22.9789C20.5064 22.9342 20.9865 22.8398 21.4307 22.6135C22.1363 22.254 22.71 21.6803 23.0695 20.9747C23.2959 20.5305 23.3902 20.0503 23.4349 19.5037C23.4783 18.9728 23.4783 18.3172 23.4783 17.5044V7.04012C23.4783 6.22728 23.4783 5.57166 23.4349 5.04075C23.3902 4.49411 23.2959 4.01397 23.0695 3.56975C22.71 2.86414 22.1363 2.29047 21.4307 1.93094C20.9865 1.7046 20.5064 1.61024 19.9597 1.56558C19.4288 1.5222 18.7732 1.52221 17.9604 1.52222H16.7283C16.314 1.52222 15.9783 1.858 15.9783 2.27222C15.9783 2.68643 16.314 3.02222 16.7283 3.02222H17.9283C18.7807 3.02222 19.3749 3.0228 19.8376 3.0606C20.2915 3.09768 20.5522 3.16681 20.7497 3.26745C21.1731 3.48317 21.5173 3.82737 21.733 4.25074C21.8337 4.44826 21.9028 4.70902 21.9399 5.1629C21.9777 5.62553 21.9783 6.21976 21.9783 7.07222V17.4722C21.9783 18.3247 21.9777 18.9189 21.9399 19.3815C21.9028 19.8354 21.8337 20.0962 21.733 20.2937C21.5173 20.7171 21.1731 21.0613 20.7497 21.277C20.5522 21.3776 20.2915 21.4468 19.8376 21.4838C19.3749 21.5216 18.7807 21.5222 17.9283 21.5222H16.7283Z" fill="black"/>
<path d="M15.7142 10.919C15.7142 10.4866 15.7142 10.2704 15.8033 10.1576C15.8807 10.0595 15.9984 10.0016 16.1234 10.0001C16.2671 9.99844 16.4383 10.1304 16.7809 10.3942L18.8335 11.9753C19.0653 12.1539 19.1812 12.2432 19.2229 12.352C19.2594 12.4474 19.2594 12.5529 19.2229 12.6482C19.1812 12.757 19.0653 12.8463 18.8335 13.0249L16.7809 14.606C16.4384 14.8699 16.2671 15.0018 16.1234 15.0001C15.9984 14.9986 15.8807 14.9407 15.8033 14.8426C15.7142 14.7298 15.7142 14.5136 15.7142 14.0812V13.3289H1.27246C0.858248 13.3289 0.522461 12.9931 0.522461 12.5789C0.522461 12.1647 0.858248 11.8289 1.27246 11.8289H15.7142V10.919Z" fill="black"/>
</svg>
