<svg width="24" height="24" viewBox="0 0 24 24" fill="none" xmlns="http://www.w3.org/2000/svg">
<path fill-rule="evenodd" clip-rule="evenodd" d="M0.123117 8.43565C0 9.21298 0 10.142 0 12C0 13.858 0 14.787 0.123117 15.5643C0.800832 19.8433 4.15673 23.1992 8.43565 23.8769C9.21298 24 10.142 24 12 24C13.858 24 14.787 24 15.5643 23.8769C19.8433 23.1992 23.1992 19.8433 23.8769 15.5643C24 14.787 24 13.858 24 12C24 10.142 24 9.21298 23.8769 8.43565C23.1992 4.15673 19.8433 0.800832 15.5643 0.123117C14.787 0 13.858 0 12 0C10.142 0 9.21298 0 8.43565 0.123117C4.15673 0.800832 0.800832 4.15673 0.123117 8.43565ZM15.883 17.9921C15.883 17.6469 16.1628 17.3671 16.508 17.3671C17.1293 17.3671 17.633 16.8634 17.633 16.2421V8.07539C17.633 7.45407 17.1293 6.95039 16.508 6.95039C16.1628 6.95039 15.883 6.67057 15.883 6.32539C15.883 5.98022 16.1628 5.70039 16.508 5.70039C17.8196 5.70039 18.883 6.76372 18.883 8.07539V16.2421C18.883 17.5537 17.8196 18.6171 16.508 18.6171C16.1628 18.6171 15.883 18.3372 15.883 17.9921ZM15.9176 12.6826C16.1617 12.4386 16.1617 12.0428 15.9176 11.7987L12.3745 8.25563C12.1304 8.01155 11.7347 8.01155 11.4906 8.25563C11.2465 8.49971 11.2465 8.89543 11.4906 9.13951L13.9668 11.6157H5.74208C5.3969 11.6157 5.11708 11.8955 5.11708 12.2407C5.11708 12.5859 5.3969 12.8657 5.74208 12.8657H13.9668L11.4906 15.3419C11.2465 15.5859 11.2465 15.9817 11.4906 16.2258C11.7347 16.4698 12.1304 16.4698 12.3745 16.2258L15.9176 12.6826Z" fill="black"/>
</svg>
