<svg width="24" height="24" viewBox="0 0 24 24" fill="none" xmlns="http://www.w3.org/2000/svg">
<path d="M16.7283 21.7722C16.4521 21.7722 16.2283 21.9961 16.2283 22.2722C16.2283 22.5484 16.4521 22.7722 16.7283 22.7722H17.9505C18.7717 22.7722 19.4187 22.7722 19.9394 22.7297C20.4705 22.6863 20.9141 22.5961 21.3172 22.3907C21.9758 22.0552 22.5112 21.5198 22.8468 20.8612C23.0522 20.4581 23.1423 20.0145 23.1857 19.4833C23.2283 18.9627 23.2283 18.3157 23.2283 17.4945V7.05002C23.2283 6.22875 23.2283 5.58176 23.1857 5.06111C23.1423 4.52993 23.0522 4.08635 22.8468 3.68325C22.5112 3.02468 21.9758 2.48925 21.3172 2.15369C20.9141 1.9483 20.4705 1.85815 19.9394 1.81475C19.4187 1.77221 18.7717 1.77221 17.9505 1.77222H16.7283C16.4521 1.77222 16.2283 1.99607 16.2283 2.27222C16.2283 2.54836 16.4521 2.77222 16.7283 2.77222H17.9283C18.7766 2.77222 19.3828 2.77261 19.8579 2.81143C20.3273 2.84978 20.6246 2.92311 20.8632 3.0447C21.3336 3.28438 21.7161 3.66684 21.9558 4.13724C22.0774 4.37588 22.1507 4.6732 22.189 5.14254C22.2279 5.61771 22.2283 6.22389 22.2283 7.07222V17.4722C22.2283 18.3205 22.2279 18.9267 22.189 19.4019C22.1507 19.8712 22.0774 20.1686 21.9558 20.4072C21.7161 20.8776 21.3336 21.26 20.8632 21.4997C20.6246 21.6213 20.3273 21.6947 19.8579 21.733C19.3828 21.7718 18.7766 21.7722 17.9283 21.7722H16.7283Z" fill="black"/>
<path d="M16.2964 10.2352C16.2964 9.88932 16.2964 9.71636 16.3676 9.62612C16.4296 9.54761 16.5237 9.5013 16.6237 9.50013C16.7387 9.49877 16.8757 9.60432 17.1497 9.81542L18.7918 11.0803C18.9773 11.2232 19.07 11.2946 19.1033 11.3816C19.1326 11.4579 19.1326 11.5423 19.1033 11.6186C19.0745 11.694 19.001 11.7576 18.8614 11.8662C18.8035 11.9485 18.7214 12.0126 18.6255 12.048L17.1497 13.1848C16.8757 13.3959 16.7387 13.5015 16.6237 13.5001C16.5237 13.4989 16.4296 13.4526 16.3676 13.3741C16.2964 13.2839 16.2964 13.1109 16.2964 12.765V12.0789H1.27246C0.996319 12.0789 0.772461 11.8551 0.772461 11.5789C0.772461 11.3028 0.996319 11.0789 1.27246 11.0789H16.2964V10.2352Z" fill="black"/>
</svg>
