<svg width="24" height="24" viewBox="0 0 24 24" fill="none" xmlns="http://www.w3.org/2000/svg">
<path fill-rule="evenodd" clip-rule="evenodd" d="M12 0C13.858 0 14.7871 -6.97747e-05 15.5645 0.123047C19.8433 0.800792 23.1992 4.1567 23.877 8.43555C24.0001 9.21287 24 10.142 24 12C24 13.858 24.0001 14.7871 23.877 15.5645C23.1992 19.8433 19.8433 23.1992 15.5645 23.877C14.7871 24.0001 13.858 24 12 24C10.142 24 9.21287 24.0001 8.43555 23.877C4.1567 23.1992 0.800792 19.8433 0.123047 15.5645C-6.97747e-05 14.7871 0 13.858 0 12C0 10.142 -6.97747e-05 9.21287 0.123047 8.43555C0.800792 4.1567 4.1567 0.800792 8.43555 0.123047C9.21287 -6.97747e-05 10.142 0 12 0ZM16.5078 5.0752C15.8176 5.07528 15.258 5.63504 15.2578 6.3252C15.2579 7.01545 15.8176 7.57512 16.5078 7.5752C16.7838 7.5752 17.0076 7.7992 17.0078 8.0752V16.2422C17.0077 16.5183 16.7839 16.7422 16.5078 16.7422C15.8175 16.7423 15.2578 17.3019 15.2578 17.9922C15.2579 18.6824 15.8176 19.2421 16.5078 19.2422C18.1646 19.2422 19.5077 17.899 19.5078 16.2422V8.0752C19.5076 6.41849 18.1646 5.0752 16.5078 5.0752ZM12.4277 7.81543C11.9396 7.3273 11.1483 7.32729 10.6602 7.81543C10.1721 8.30359 10.1721 9.0949 10.6602 9.58301L12.0684 10.9912H5.74219L5.61426 10.998C4.98426 11.0624 4.49219 11.5942 4.49219 12.2412C4.49235 12.8881 4.98435 13.4201 5.61426 13.4844L5.74219 13.4912H12.0703L10.6602 14.9014L10.5742 14.9971C10.1743 15.488 10.2028 16.2115 10.6602 16.6689C11.1176 17.1263 11.8411 17.1548 12.332 16.7549L12.4277 16.6689L15.9707 13.126C16.4588 12.6379 16.4587 11.8466 15.9707 11.3584L12.4277 7.81543Z" fill="black"/>
</svg>
