<svg width="24" height="24" viewBox="0 0 24 24" fill="none" xmlns="http://www.w3.org/2000/svg">
<path d="M16.7283 21.0222C16.0379 21.0222 15.4783 21.5819 15.4783 22.2722C15.4783 22.9626 16.0379 23.5222 16.7283 23.5222L17.9781 23.5222C18.7757 23.5222 19.4489 23.5223 20.0004 23.4772C20.578 23.43 21.1313 23.3272 21.6577 23.059C22.4574 22.6515 23.1076 22.0014 23.515 21.2017C23.7833 20.6752 23.886 20.122 23.9332 19.5444C23.9783 18.9929 23.9783 18.3197 23.9783 17.5222V7.02236C23.9783 6.22478 23.9783 5.55153 23.9332 5.00003C23.886 4.42248 23.7833 3.86921 23.515 3.34276C23.1076 2.54307 22.4574 1.8929 21.6577 1.48544C21.1313 1.2172 20.578 1.11443 20.0004 1.06724C19.4489 1.02218 18.7758 1.0222 17.9782 1.02222H16.7283C16.0379 1.02222 15.4783 1.58186 15.4783 2.27222C15.4783 2.96257 16.0379 3.52222 16.7283 3.52222H17.9283C18.789 3.52222 19.3593 3.52319 19.7969 3.55894C20.2198 3.5935 20.4075 3.65422 20.5227 3.71296C20.852 3.88074 21.1197 4.14845 21.2875 4.47773C21.3463 4.59302 21.407 4.78066 21.4415 5.20361C21.4773 5.64116 21.4783 6.21151 21.4783 7.07222V17.4722C21.4783 18.3329 21.4773 18.9033 21.4415 19.3408C21.407 19.7638 21.3463 19.9514 21.2875 20.0667C21.1197 20.396 20.852 20.6637 20.5227 20.8315C20.4075 20.8902 20.2198 20.9509 19.7969 20.9855C19.3593 21.0212 18.789 21.0222 17.9283 21.0222H16.7283Z" fill="black"/>
<path d="M15.3822 10.6028C15.3822 10.0839 15.3822 9.82447 15.489 9.68912C15.5819 9.57135 15.7231 9.5019 15.8731 9.50013C16.0455 9.4981 16.2511 9.65642 16.6621 9.97307L19.1252 11.8704C19.4034 12.0847 19.5426 12.1918 19.5926 12.3224C19.6364 12.4368 19.6364 12.5634 19.5926 12.6778C19.5426 12.8084 19.4034 12.9155 19.1252 13.1298L16.6621 15.0272C16.2511 15.3438 16.0455 15.5021 15.8731 15.5001C15.7231 15.4983 15.5819 15.4289 15.489 15.3111C15.3822 15.1757 15.3822 14.9163 15.3822 14.3974V13.8289H1.27246C0.582106 13.8289 0.0224609 13.2693 0.0224609 12.5789C0.0224609 11.8886 0.582106 11.3289 1.27246 11.3289H15.3822V10.6028Z" fill="black"/>
</svg>
