<svg width="24" height="24" viewBox="0 0 24 24" fill="none" xmlns="http://www.w3.org/2000/svg">
<path d="M16.7279 21.772C16.4517 21.772 16.2279 21.9958 16.2279 22.272C16.2279 22.5481 16.4517 22.772 16.7279 22.772H17.9501C18.7714 22.772 19.4183 22.772 19.939 22.7294C20.4702 22.686 20.9138 22.5959 21.3169 22.3905C21.9754 22.0549 22.5109 21.5195 22.8464 20.8609C23.0518 20.4578 23.142 20.0143 23.1854 19.4831C23.2279 18.9624 23.2279 18.3155 23.2279 17.4942V7.04978C23.2279 6.22851 23.2279 5.58152 23.1854 5.06086C23.142 4.52969 23.0518 4.08611 22.8464 3.68301C22.5109 3.02444 21.9754 2.48901 21.3169 2.15345C20.9138 1.94806 20.4702 1.8579 19.939 1.81451C19.4183 1.77197 18.7714 1.77197 17.9501 1.77197H16.7279C16.4517 1.77197 16.2279 1.99583 16.2279 2.27197C16.2279 2.54811 16.4517 2.77197 16.7279 2.77197H17.9279C18.7762 2.77197 19.3824 2.77236 19.8576 2.81118C20.3269 2.84953 20.6242 2.92287 20.8629 3.04446C21.3333 3.28414 21.7157 3.66659 21.9554 4.137C22.077 4.37563 22.1503 4.67296 22.1887 5.14229C22.2275 5.61747 22.2279 6.22364 22.2279 7.07197V17.472C22.2279 18.3203 22.2275 18.9265 22.1887 19.4017C22.1503 19.871 22.077 20.1683 21.9554 20.4069C21.7157 20.8774 21.3333 21.2598 20.8629 21.4995C20.6242 21.6211 20.3269 21.6944 19.8576 21.7328C19.3824 21.7716 18.7762 21.772 17.9279 21.772H16.7279Z" fill="black"/>
<path d="M16.296 10.235C16.296 9.88907 16.296 9.71611 16.3673 9.62587C16.4292 9.54737 16.5233 9.50106 16.6233 9.49988C16.7383 9.49853 16.8753 9.60408 17.1494 9.81518L18.7914 11.08C18.9769 11.2229 19.0696 11.2944 19.103 11.3814C19.1322 11.4577 19.1322 11.5421 19.103 11.6183C19.0741 11.6937 19.0007 11.7574 18.861 11.8659C18.8032 11.9482 18.7211 12.0123 18.6251 12.0478L17.1494 13.1846C16.8753 13.3957 16.7383 13.5012 16.6233 13.4999C16.5233 13.4987 16.4292 13.4524 16.3673 13.3739C16.296 13.2836 16.296 13.1107 16.296 12.7647V12.0787H1.27209C0.995953 12.0787 0.772095 11.8548 0.772095 11.5787C0.772095 11.3025 0.995953 11.0787 1.27209 11.0787H16.296V10.235Z" fill="black"/>
</svg>
