<svg width="24" height="24" viewBox="0 0 24 24" fill="none" xmlns="http://www.w3.org/2000/svg">
<path d="M16.7283 21.0222C16.0379 21.0222 15.4783 21.5819 15.4783 22.2722C15.4783 22.9626 16.0379 23.5222 16.7283 23.5222L17.9781 23.5222C18.7757 23.5222 19.4489 23.5223 20.0004 23.4772C20.578 23.43 21.1313 23.3272 21.6577 23.059C22.4574 22.6515 23.1076 22.0014 23.515 21.2017C23.7833 20.6752 23.886 20.122 23.9332 19.5444C23.9783 18.9929 23.9783 18.3197 23.9783 17.5222V7.02236C23.9783 6.22478 23.9783 5.55153 23.9332 5.00003C23.886 4.42248 23.7833 3.86921 23.515 3.34276C23.1076 2.54307 22.4574 1.8929 21.6577 1.48544C21.1313 1.2172 20.578 1.11443 20.0004 1.06724C19.4489 1.02218 18.7758 1.0222 17.9782 1.02222H16.7283C16.0379 1.02222 15.4783 1.58186 15.4783 2.27222C15.4783 2.96257 16.0379 3.52222 16.7283 3.52222H17.9283C18.789 3.52222 19.3593 3.52319 19.7969 3.55894C20.2198 3.5935 20.4075 3.65422 20.5227 3.71296C20.852 3.88074 21.1197 4.14845 21.2875 4.47773C21.3463 4.59302 21.407 4.78066 21.4415 5.20361C21.4773 5.64116 21.4783 6.21151 21.4783 7.07222V17.4722C21.4783 18.3329 21.4773 18.9033 21.4415 19.3408C21.407 19.7638 21.3463 19.9514 21.2875 20.0667C21.1197 20.396 20.852 20.6637 20.5227 20.8315C20.4075 20.8902 20.2198 20.9509 19.7969 20.9855C19.3593 21.0212 18.789 21.0222 17.9283 21.0222H16.7283Z" fill="black"/>
<path d="M16.8418 11.6954C17.33 12.1836 17.33 12.975 16.8418 13.4632L10.7679 19.5371C10.2798 20.0252 9.48831 20.0252 9.00015 19.5371C8.512 19.0489 8.512 18.2575 9.00015 17.7693L12.9406 13.8289H1.27246C0.582104 13.8289 0.0224609 13.2693 0.0224609 12.5789C0.0224609 11.8886 0.582104 11.3289 1.27246 11.3289H12.9398L9.00015 7.38926C8.512 6.9011 8.512 6.10964 9.00015 5.62149C9.48831 5.13333 10.2798 5.13333 10.7679 5.62149L16.8418 11.6954Z" fill="black"/>
</svg>
