<svg width="24" height="24" viewBox="0 0 24 24" fill="none" xmlns="http://www.w3.org/2000/svg">
<path fill-rule="evenodd" clip-rule="evenodd" d="M0.123117 8.43565C0 9.21298 0 10.142 0 12C0 13.858 0 14.787 0.123117 15.5643C0.800832 19.8433 4.15673 23.1992 8.43565 23.8769C9.21298 24 10.142 24 12 24C13.858 24 14.787 24 15.5643 23.8769C19.8433 23.1992 23.1992 19.8433 23.8769 15.5643C24 14.787 24 13.858 24 12C24 10.142 24 9.21298 23.8769 8.43565C23.1992 4.15673 19.8433 0.800832 15.5643 0.123117C14.787 0 13.858 0 12 0C10.142 0 9.21298 0 8.43565 0.123117C4.15673 0.800832 0.800832 4.15673 0.123117 8.43565ZM15.508 17.9921C15.508 17.4398 15.9557 16.9921 16.508 16.9921C16.9222 16.9921 17.258 16.6563 17.258 16.2421V8.0754C17.258 7.66118 16.9222 7.3254 16.508 7.3254C15.9557 7.3254 15.508 6.87768 15.508 6.3254C15.508 5.77311 15.9557 5.3254 16.508 5.3254C18.0267 5.3254 19.258 6.55661 19.258 8.0754V16.2421C19.258 17.7608 18.0267 18.9921 16.508 18.9921C15.9557 18.9921 15.508 18.5443 15.508 17.9921ZM16.1828 12.9478C16.5733 12.5573 16.5733 11.9241 16.1828 11.5336L12.6397 7.99047C12.2491 7.59994 11.616 7.59994 11.2255 7.99047C10.8349 8.38099 10.8349 9.01416 11.2255 9.40468L13.0615 11.2407H5.74208C5.1898 11.2407 4.74208 11.6884 4.74208 12.2407C4.74208 12.793 5.1898 13.2407 5.74208 13.2407H13.0615L11.2255 15.0767C10.8349 15.4672 10.8349 16.1004 11.2255 16.4909C11.616 16.8814 12.2491 16.8814 12.6397 16.4909L16.1828 12.9478Z" fill="black"/>
</svg>
