<svg width="24" height="24" viewBox="0 0 24 24" fill="none" xmlns="http://www.w3.org/2000/svg">
<path d="M7.38379 3.63477C8.07415 3.63477 8.63379 3.07512 8.63379 2.38477C8.63379 1.69441 8.07415 1.13477 7.38379 1.13477L6.13394 1.13477C5.33635 1.13475 4.66311 1.13473 4.11161 1.17979C3.53405 1.22698 2.98079 1.32975 2.45433 1.59799C1.65464 2.00545 1.00448 2.65562 0.597015 3.45531C0.328774 3.98176 0.226005 4.53503 0.178816 5.11258C0.133758 5.66408 0.133772 6.33725 0.13379 7.13483V17.6346C0.133772 18.4322 0.133757 19.1055 0.178816 19.657C0.226004 20.2345 0.328773 20.7878 0.597014 21.3142C1.00448 22.1139 1.65464 22.7641 2.45433 23.1715C2.98078 23.4398 3.53405 23.5426 4.11161 23.5897C4.6631 23.6348 5.33628 23.6348 6.13386 23.6348H7.38379C8.07415 23.6348 8.63379 23.0751 8.63379 22.3848C8.63379 21.6944 8.07415 21.1348 7.38379 21.1348H6.18379C5.32309 21.1348 4.75274 21.1338 4.31519 21.098C3.89223 21.0635 3.70459 21.0028 3.58931 20.944C3.26002 20.7762 2.99231 20.5085 2.82453 20.1793C2.76579 20.064 2.70507 19.8763 2.67051 19.4534C2.63476 19.0158 2.63379 18.4455 2.63379 17.5848L2.63379 7.18477C2.63379 6.32406 2.63476 5.75371 2.67051 5.31616C2.70507 4.89321 2.76579 4.70557 2.82453 4.59029C2.99231 4.261 3.26003 3.99329 3.58931 3.82551C3.70459 3.76677 3.89223 3.70605 4.31519 3.67149C4.75274 3.63574 5.32309 3.63477 6.18379 3.63477L7.38379 3.63477Z" fill="black"/>
<path d="M23.4981 12.962C23.9862 12.4739 23.9862 11.6824 23.4981 11.1943L17.4241 5.12033C16.936 4.63218 16.1445 4.63218 15.6564 5.12033C15.1682 5.60849 15.1682 6.39994 15.6564 6.8881L19.5964 10.8281L5.928 10.8281C5.23764 10.8281 4.678 11.3878 4.678 12.0781C4.678 12.7685 5.23764 13.3281 5.928 13.3281L19.5964 13.3281L15.6564 17.2682C15.1682 17.7563 15.1682 18.5478 15.6564 19.0359C16.1445 19.5241 16.936 19.5241 17.4241 19.0359L23.4981 12.962Z" fill="black"/>
</svg>
