<svg width="24" height="24" viewBox="0 0 24 24" fill="none" xmlns="http://www.w3.org/2000/svg">
<path d="M7.38379 2.88477C7.65993 2.88477 7.88379 2.66091 7.88379 2.38477C7.88379 2.10862 7.65993 1.88477 7.38379 1.88477H6.16158C5.34031 1.88476 4.69334 1.88476 4.17268 1.9273C3.6415 1.9707 3.19792 2.06085 2.79482 2.26624C2.13626 2.6018 1.60082 3.13723 1.26527 3.7958C1.05988 4.1989 0.969722 4.64248 0.926323 5.17366C0.883785 5.6943 0.883787 6.34127 0.883789 7.16253V17.607C0.883786 18.4282 0.883784 19.0752 0.926322 19.5959C0.969721 20.1271 1.05988 20.5706 1.26527 20.9737C1.60082 21.6323 2.13626 22.1677 2.79482 22.5033C3.19792 22.7087 3.6415 22.7988 4.17268 22.8422C4.69333 22.8848 5.3403 22.8848 6.16157 22.8848H7.38379C7.65993 22.8848 7.88379 22.6609 7.88379 22.3848C7.88379 22.1086 7.65993 21.8848 7.38379 21.8848H6.18379C5.33546 21.8848 4.72928 21.8844 4.25411 21.8456C3.78478 21.8072 3.48745 21.7339 3.24881 21.6123C2.77841 21.3726 2.39596 20.9901 2.15627 20.5197C2.03468 20.2811 1.96135 19.9838 1.923 19.5144C1.88418 19.0393 1.88379 18.4331 1.88379 17.5848L1.88379 7.18477C1.88379 6.33644 1.88418 5.73026 1.923 5.25509C1.96135 4.78575 2.03468 4.48842 2.15627 4.24979C2.39596 3.77938 2.77841 3.39693 3.24881 3.15725C3.48745 3.03566 3.78478 2.96232 4.25411 2.92398C4.72928 2.88515 5.33546 2.88477 6.18379 2.88477L7.38379 2.88477Z" fill="black"/>
<path d="M22.9677 12.4317C23.163 12.2364 23.163 11.9198 22.9677 11.7246L16.8938 5.65066C16.6985 5.4554 16.382 5.4554 16.1867 5.65066C15.9914 5.84592 15.9914 6.16251 16.1867 6.35777L21.4071 11.5781L4.92799 11.5781C4.65185 11.5781 4.42799 11.802 4.42799 12.0781C4.42799 12.3543 4.65185 12.5781 4.92799 12.5781L21.4071 12.5781L16.1867 17.7985C15.9914 17.9938 15.9914 18.3103 16.1867 18.5056C16.382 18.7009 16.6985 18.7009 16.8938 18.5056L22.9677 12.4317Z" fill="black"/>
</svg>
