<svg width="24" height="24" viewBox="0 0 24 24" fill="none" xmlns="http://www.w3.org/2000/svg">
<path d="M7.38477 3.63477C8.07512 3.63477 8.63477 3.07512 8.63477 2.38477C8.63477 1.69441 8.07512 1.13477 7.38477 1.13477L6.13492 1.13477C5.33733 1.13475 4.66408 1.13473 4.11259 1.17979C3.53503 1.22698 2.98176 1.32975 2.45531 1.59799C1.65562 2.00545 1.00545 2.65562 0.597992 3.45531C0.329751 3.98176 0.226981 4.53503 0.179793 5.11258C0.134734 5.66408 0.134749 6.33725 0.134766 7.13483V17.6346C0.134748 18.4322 0.134733 19.1055 0.179792 19.657C0.226981 20.2345 0.32975 20.7878 0.59799 21.3142C1.00545 22.1139 1.65562 22.7641 2.45531 23.1715C2.98176 23.4398 3.53503 23.5426 4.11258 23.5897C4.66408 23.6348 5.33726 23.6348 6.13483 23.6348H7.38477C8.07512 23.6348 8.63477 23.0751 8.63477 22.3848C8.63477 21.6944 8.07512 21.1348 7.38477 21.1348H6.18477C5.32406 21.1348 4.75371 21.1338 4.31616 21.098C3.89321 21.0635 3.70557 21.0028 3.59029 20.944C3.261 20.7762 2.99329 20.5085 2.82551 20.1793C2.76677 20.064 2.70605 19.8763 2.67149 19.4534C2.63574 19.0158 2.63477 18.4455 2.63477 17.5848L2.63477 7.18477C2.63477 6.32406 2.63574 5.75371 2.67149 5.31616C2.70605 4.89321 2.76677 4.70557 2.82551 4.59029C2.99329 4.261 3.261 3.99329 3.59029 3.82551C3.70557 3.76677 3.89321 3.70605 4.31616 3.67149C4.75371 3.63574 5.32406 3.63477 6.18477 3.63477L7.38477 3.63477Z" fill="black"/>
<path d="M19.3817 10.1026C19.3817 9.58375 19.3817 9.32431 19.4886 9.18895C19.5815 9.07119 19.7227 9.00173 19.8727 8.99996C20.0451 8.99793 20.2507 9.15626 20.6617 9.4729L23.1248 11.3702C23.403 11.5845 23.5421 11.6917 23.5922 11.8222C23.636 11.9367 23.636 12.0632 23.5922 12.1776C23.5421 12.3082 23.403 12.4154 23.1248 12.6297L20.6617 14.527C20.2507 14.8436 20.0451 15.002 19.8727 14.9999C19.7227 14.9982 19.5815 14.9287 19.4886 14.8109C19.3817 14.6756 19.3817 14.4161 19.3817 13.8973V13.3281L5.92897 13.3281C5.23862 13.3281 4.67897 12.7685 4.67897 12.0781C4.67897 11.3878 5.23862 10.8281 5.92897 10.8281L19.3817 10.8281V10.1026Z" fill="black"/>
</svg>
