<svg width="24" height="24" viewBox="0 0 24 24" fill="none" xmlns="http://www.w3.org/2000/svg">
<path fill-rule="evenodd" clip-rule="evenodd" d="M0.123117 8.43565C0 9.21298 0 10.142 0 12C0 13.858 0 14.787 0.123117 15.5643C0.800832 19.8433 4.15673 23.1992 8.43565 23.8769C9.21298 24 10.142 24 12 24C13.858 24 14.787 24 15.5643 23.8769C19.8433 23.1992 23.1992 19.8433 23.8769 15.5643C24 14.787 24 13.858 24 12C24 10.142 24 9.21298 23.8769 8.43565C23.1992 4.15673 19.8433 0.800832 15.5643 0.123117C14.787 0 13.858 0 12 0C10.142 0 9.21298 0 8.43565 0.123117C4.15673 0.800832 0.800832 4.15673 0.123117 8.43565ZM7.99208 6.32539C7.99208 6.60154 7.76822 6.82539 7.49208 6.82539C6.80173 6.82539 6.24208 7.38504 6.24208 8.07539V16.2421C6.24208 16.9324 6.80172 17.4921 7.49208 17.4921C7.76822 17.4921 7.99208 17.7159 7.99208 17.9921C7.99208 18.2682 7.76822 18.4921 7.49208 18.4921C6.24944 18.4921 5.24208 17.4847 5.24208 16.2421V8.07539C5.24208 6.83275 6.24944 5.82539 7.49208 5.82539C7.76822 5.82539 7.99208 6.04925 7.99208 6.32539ZM15.0684 8.18009L18.6115 11.7232C18.8068 11.9185 18.8068 12.2351 18.6115 12.4303L15.0684 15.9734C14.8731 16.1687 14.5566 16.1687 14.3613 15.9734C14.166 15.7782 14.166 15.4616 14.3613 15.2663L17.0509 12.5768H8.52436C8.24822 12.5768 8.02436 12.3529 8.02436 12.0768C8.02436 11.8006 8.24822 11.5768 8.52436 11.5768H17.0509L14.3613 8.8872C14.166 8.69193 14.166 8.37535 14.3613 8.18009C14.5566 7.98483 14.8731 7.98483 15.0684 8.18009Z" fill="black"/>
</svg>
