<svg width="24" height="24" viewBox="0 0 24 24" fill="none" xmlns="http://www.w3.org/2000/svg">
<path d="M7.38477 2.63477C7.52284 2.63477 7.63477 2.52284 7.63477 2.38477C7.63477 2.24669 7.52284 2.13477 7.38477 2.13477H6.17324C5.34291 2.13477 4.70445 2.13477 4.19401 2.17647C3.6783 2.2186 3.27128 2.30455 2.9093 2.48899C2.29777 2.80058 1.80058 3.29777 1.489 3.9093C1.30455 4.27128 1.2186 4.6783 1.17647 5.19401C1.13477 5.70445 1.13477 6.3429 1.13477 7.17323V17.5963C1.13477 18.4266 1.13477 19.0651 1.17647 19.5755C1.2186 20.0912 1.30455 20.4982 1.48899 20.8602C1.80058 21.4718 2.29777 21.9689 2.9093 22.2805C3.27128 22.465 3.6783 22.5509 4.19401 22.5931C4.70443 22.6348 5.34284 22.6348 6.17311 22.6348H7.38477C7.52284 22.6348 7.63477 22.5228 7.63477 22.3848C7.63477 22.2467 7.52284 22.1348 7.38477 22.1348H6.18477C5.34056 22.1348 4.72244 22.1346 4.23473 22.0947C3.74993 22.0551 3.41604 21.9776 3.13629 21.835C2.61885 21.5714 2.19815 21.1507 1.9345 20.6332C1.79196 20.3535 1.71442 20.0196 1.67481 19.5348C1.63496 19.0471 1.63477 18.429 1.63477 17.5848L1.63477 7.18477C1.63477 6.34056 1.63496 5.72244 1.67481 5.23473C1.71442 4.74993 1.79196 4.41604 1.9345 4.13629C2.19815 3.61885 2.61885 3.19815 3.13629 2.9345C3.41604 2.79196 3.74993 2.71442 4.23473 2.67481C4.72245 2.63496 5.34056 2.63477 6.18477 2.63477L7.38477 2.63477Z" fill="black"/>
<path d="M21.1284 11.0513C21.1284 10.7919 21.1284 10.6621 21.1818 10.5945C21.2283 10.5356 21.2989 10.5008 21.3739 10.5C21.4601 10.4989 21.5629 10.5781 21.7684 10.7364L23 11.6851C23.1391 11.7922 23.2086 11.8458 23.2336 11.9111C23.2555 11.9683 23.2555 12.0316 23.2336 12.0888C23.2086 12.1541 23.1391 12.2077 23 12.3148L21.7684 13.2635C21.5629 13.4218 21.4601 13.501 21.3739 13.4999C21.2989 13.4991 21.2283 13.4643 21.1818 13.4054C21.1284 13.3378 21.1284 13.208 21.1284 12.9486V12.3281L4.92897 12.3281C4.7909 12.3281 4.67897 12.2162 4.67897 12.0781C4.67897 11.9401 4.7909 11.8281 4.92897 11.8281L21.1284 11.8281V11.0513Z" fill="black"/>
</svg>
