<svg width="24" height="24" viewBox="0 0 24 24" fill="none" xmlns="http://www.w3.org/2000/svg">
<path d="M7.38379 3.13477C7.798 3.13477 8.13379 2.79898 8.13379 2.38477C8.13379 1.97055 7.798 1.63477 7.38379 1.63477H6.15169C5.33885 1.63476 4.68323 1.63475 4.15232 1.67813C3.60569 1.72279 3.12554 1.81715 2.68133 2.04349C1.97572 2.40302 1.40204 2.97669 1.04252 3.6823C0.816175 4.12652 0.721816 4.60666 0.677154 5.1533C0.633777 5.6842 0.633782 6.33981 0.633789 7.15263V17.6169C0.633782 18.4297 0.633776 19.0853 0.677153 19.6162C0.721815 20.1629 0.816174 20.643 1.04251 21.0872C1.40204 21.7928 1.97572 22.3665 2.68132 22.726C3.12554 22.9524 3.60568 23.0467 4.15232 23.0914C4.68323 23.1348 5.33883 23.1348 6.15167 23.1348H7.38379C7.798 23.1348 8.13379 22.799 8.13379 22.3848C8.13379 21.9706 7.798 21.6348 7.38379 21.6348H6.18379C5.33134 21.6348 4.7371 21.6342 4.27447 21.5964C3.82059 21.5593 3.55983 21.4902 3.36231 21.3895C2.93895 21.1738 2.59474 20.8296 2.37903 20.4062C2.27839 20.2087 2.20925 19.948 2.17217 19.4941C2.13437 19.0315 2.13379 18.4372 2.13379 17.5848L2.13379 7.18477C2.13379 6.33231 2.13437 5.73808 2.17217 5.27545C2.20925 4.82157 2.27839 4.5608 2.37903 4.36329C2.59474 3.93992 2.93895 3.59572 3.36231 3.38C3.55983 3.27936 3.82059 3.21023 4.27447 3.17315C4.7371 3.13535 5.33134 3.13477 6.18379 3.13477H7.38379Z" fill="black"/>
<path d="M23.1445 12.6085C23.4374 12.3156 23.4374 11.8407 23.1445 11.5478L17.0706 5.47389C16.7777 5.18099 16.3028 5.18099 16.0099 5.47388C15.717 5.76678 15.717 6.24165 16.0099 6.53454L20.8035 11.3281L5.92799 11.3281C5.51378 11.3281 5.17799 11.6639 5.17799 12.0781C5.17799 12.4923 5.51378 12.8281 5.92799 12.8281L20.8035 12.8281L16.0099 17.6217C15.717 17.9146 15.717 18.3895 16.0099 18.6824C16.3028 18.9753 16.7777 18.9753 17.0706 18.6824L23.1445 12.6085Z" fill="black"/>
</svg>
