<svg width="24" height="24" viewBox="0 0 24 24" fill="none" xmlns="http://www.w3.org/2000/svg">
<path d="M7.50006 0.884768C8.32849 0.884768 9.00006 1.55634 9.00006 2.38477C9.00006 3.2132 8.32849 3.88477 7.50006 3.88477H6.29987C5.4354 3.88477 4.87714 3.88621 4.45221 3.9209C4.04548 3.95413 3.89371 4.01007 3.8194 4.04785C3.53716 4.19166 3.30696 4.42186 3.16315 4.7041C3.12536 4.77842 3.06943 4.93019 3.0362 5.33692C3.0015 5.76184 3.00006 6.32011 3.00006 7.18457V17.585C3.00006 18.4494 3.0015 19.0077 3.0362 19.4326C3.06943 19.8393 3.12536 19.9911 3.16315 20.0654C3.30696 20.3477 3.53716 20.5779 3.8194 20.7217C3.89371 20.7595 4.04548 20.8154 4.45221 20.8486C4.87714 20.8833 5.4354 20.8848 6.29987 20.8848H7.50006C8.32849 20.8848 9.00006 21.5563 9.00006 22.3848C9.00006 23.2132 8.32849 23.8848 7.50006 23.8848H6.29987C5.48462 23.8848 4.78255 23.8859 4.20709 23.8389C3.61425 23.7904 3.0245 23.6836 2.45709 23.3945C1.61037 22.9631 0.921728 22.2745 0.490298 21.4277C0.20121 20.8603 0.0944272 20.2706 0.0459618 19.6777C-0.001055 19.1023 6.31474e-05 18.4002 6.33691e-05 17.585V7.18457C6.32167e-05 6.36933 -0.00105519 5.66726 0.0459618 5.0918C0.0944274 4.49896 0.20121 3.90921 0.490298 3.3418C0.921728 2.49507 1.61037 1.80643 2.45709 1.375C3.0245 1.08591 3.61425 0.979132 4.20709 0.930666C4.78255 0.883649 5.48463 0.884768 6.29987 0.884768H7.50006Z" fill="black"/>
<path d="M19.8721 9C20.0445 8.99797 20.2504 9.15628 20.6612 9.47266L23.1251 11.3701C23.4031 11.5843 23.5419 11.6918 23.5919 11.8223C23.6356 11.9366 23.6357 12.0634 23.5919 12.1777C23.5417 12.3081 23.4029 12.4158 23.1251 12.6299L20.6612 14.5273C20.2505 14.8438 20.0445 15.002 19.8721 15C19.7224 14.998 19.5812 14.929 19.4883 14.8115C19.3816 14.6762 19.3819 14.4162 19.3819 13.8975V13.5781H5.92877L5.77545 13.5703C5.01922 13.4934 4.42882 12.8546 4.42877 12.0781C4.42883 11.3016 5.01924 10.6629 5.77545 10.5859L5.92877 10.5781H19.3819V10.1025C19.3819 9.58435 19.3819 9.32492 19.4883 9.18946C19.5812 9.07186 19.7224 9.00196 19.8721 9Z" fill="black"/>
</svg>
