<svg width="24" height="24" viewBox="0 0 24 24" fill="none" xmlns="http://www.w3.org/2000/svg">
<path fill-rule="evenodd" clip-rule="evenodd" d="M0.123117 8.43565C0 9.21298 0 10.142 0 12C0 13.858 0 14.787 0.123117 15.5643C0.800832 19.8433 4.15673 23.1992 8.43565 23.8769C9.21298 24 10.142 24 12 24C13.858 24 14.787 24 15.5643 23.8769C19.8433 23.1992 23.1992 19.8433 23.8769 15.5643C24 14.787 24 13.858 24 12C24 10.142 24 9.21298 23.8769 8.43565C23.1992 4.15673 19.8433 0.800832 15.5643 0.123117C14.787 0 13.858 0 12 0C10.142 0 9.21298 0 8.43565 0.123117C4.15673 0.800832 0.800832 4.15673 0.123117 8.43565ZM8.11708 6.32539C8.11708 6.67057 7.83726 6.95039 7.49208 6.95039C6.87076 6.95039 6.36708 7.45408 6.36708 8.0754V16.2421C6.36708 16.8634 6.87076 17.3671 7.49208 17.3671C7.83726 17.3671 8.11708 17.6469 8.11708 17.9921C8.11708 18.3372 7.83726 18.6171 7.49208 18.6171C6.1804 18.6171 5.11708 17.5537 5.11708 16.2421V8.0754C5.11708 6.76372 6.1804 5.70039 7.49208 5.70039C7.83726 5.70039 8.11708 5.98022 8.11708 6.32539ZM18.6999 11.6348C18.944 11.8789 18.944 12.2746 18.6999 12.5187L15.1568 16.0618C14.9127 16.3059 14.517 16.3059 14.2729 16.0618C14.0288 15.8177 14.0288 15.422 14.2729 15.1779L16.7491 12.7018H8.52436C8.17918 12.7018 7.89936 12.4219 7.89936 12.0768C7.89936 11.7316 8.17918 11.4518 8.52436 11.4518H16.7491L14.2729 8.97559C14.0288 8.73151 14.0288 8.33578 14.2729 8.0917C14.517 7.84763 14.9127 7.84763 15.1568 8.0917L18.6999 11.6348Z" fill="black"/>
</svg>
