<svg width="24" height="24" viewBox="0 0 24 24" fill="none" xmlns="http://www.w3.org/2000/svg">
<path d="M7.38477 3.13477C7.79898 3.13477 8.13477 2.79898 8.13477 2.38477C8.13477 1.97055 7.79898 1.63477 7.38477 1.63477H6.15266C5.33982 1.63476 4.68421 1.63475 4.1533 1.67813C3.60666 1.72279 3.12652 1.81715 2.6823 2.04349C1.97669 2.40302 1.40302 2.97669 1.04349 3.6823C0.817152 4.12652 0.722792 4.60666 0.67813 5.1533C0.634753 5.6842 0.634759 6.33981 0.634766 7.15263V17.6169C0.634758 18.4297 0.634752 19.0853 0.67813 19.6162C0.722792 20.1629 0.817151 20.643 1.04349 21.0872C1.40302 21.7928 1.97669 22.3665 2.6823 22.726C3.12652 22.9524 3.60666 23.0467 4.1533 23.0914C4.6842 23.1348 5.33981 23.1348 6.15264 23.1348H7.38477C7.79898 23.1348 8.13477 22.799 8.13477 22.3848C8.13477 21.9706 7.79898 21.6348 7.38477 21.6348H6.18477C5.33231 21.6348 4.73808 21.6342 4.27545 21.5964C3.82157 21.5593 3.5608 21.4902 3.36329 21.3895C2.93992 21.1738 2.59572 20.8296 2.38 20.4062C2.27936 20.2087 2.21023 19.948 2.17315 19.4941C2.13535 19.0315 2.13477 18.4372 2.13477 17.5848L2.13477 7.18477C2.13477 6.33231 2.13535 5.73808 2.17315 5.27545C2.21023 4.82157 2.27936 4.5608 2.38 4.36329C2.59572 3.93992 2.93992 3.59572 3.36329 3.38C3.56081 3.27936 3.82157 3.21023 4.27545 3.17315C4.73808 3.13535 5.33231 3.13477 6.18477 3.13477H7.38477Z" fill="black"/>
<path d="M19.7138 10.4189C19.7138 9.98646 19.7138 9.77026 19.8029 9.65746C19.8803 9.55933 19.998 9.50144 20.123 9.49997C20.2667 9.49828 20.4379 9.63021 20.7805 9.89409L22.8331 11.4752C23.0649 11.6538 23.1808 11.7431 23.2225 11.8519C23.259 11.9472 23.259 12.0527 23.2225 12.148C23.1808 12.2568 23.0649 12.3461 22.8331 12.5247L20.7805 14.1058C20.4379 14.3697 20.2667 14.5016 20.123 14.4999C19.998 14.4985 19.8803 14.4406 19.8029 14.3424C19.7138 14.2297 19.7138 14.0134 19.7138 13.581V12.8281L5.92897 12.8281C5.51476 12.8281 5.17897 12.4923 5.17897 12.0781C5.17897 11.6639 5.51476 11.3281 5.92897 11.3281L19.7138 11.3281V10.4189Z" fill="black"/>
</svg>
