<svg width="24" height="24" viewBox="0 0 24 24" fill="none" xmlns="http://www.w3.org/2000/svg">
<path d="M7.38477 2.88477C7.66091 2.88477 7.88477 2.66091 7.88477 2.38477C7.88477 2.10862 7.66091 1.88477 7.38477 1.88477H6.16256C5.34129 1.88476 4.69431 1.88476 4.17366 1.9273C3.64248 1.9707 3.1989 2.06085 2.7958 2.26624C2.13723 2.6018 1.6018 3.13723 1.26624 3.7958C1.06085 4.1989 0.970698 4.64248 0.927299 5.17366C0.884761 5.6943 0.884763 6.34127 0.884766 7.16253V17.607C0.884763 18.4282 0.88476 19.0752 0.927299 19.5959C0.970698 20.1271 1.06085 20.5706 1.26624 20.9737C1.6018 21.6323 2.13723 22.1677 2.7958 22.5033C3.1989 22.7087 3.64248 22.7988 4.17366 22.8422C4.69431 22.8848 5.34128 22.8848 6.16255 22.8848H7.38477C7.66091 22.8848 7.88477 22.6609 7.88477 22.3848C7.88477 22.1086 7.66091 21.8848 7.38477 21.8848H6.18477C5.33644 21.8848 4.73026 21.8844 4.25509 21.8456C3.78575 21.8072 3.48842 21.7339 3.24979 21.6123C2.77938 21.3726 2.39693 20.9901 2.15725 20.5197C2.03566 20.2811 1.96232 19.9838 1.92398 19.5144C1.88515 19.0393 1.88477 18.4331 1.88477 17.5848L1.88477 7.18477C1.88477 6.33644 1.88516 5.73026 1.92398 5.25509C1.96232 4.78575 2.03566 4.48842 2.15725 4.24979C2.39693 3.77938 2.77939 3.39693 3.24979 3.15725C3.48842 3.03566 3.78575 2.96232 4.25509 2.92398C4.73026 2.88515 5.33644 2.88477 6.18477 2.88477L7.38477 2.88477Z" fill="black"/>
<path d="M20.2961 10.7351C20.2961 10.3892 20.2961 10.2162 20.3673 10.126C20.4292 10.0475 20.5234 10.0012 20.6234 9.99998C20.7383 9.99862 20.8753 10.1042 21.1494 10.3153L22.7914 11.5801C22.9769 11.723 23.0697 11.7945 23.103 11.8815C23.1322 11.9578 23.1322 12.0422 23.103 12.1184C23.0697 12.2055 22.9769 12.2769 22.7914 12.4198L21.1494 13.6847C20.8753 13.8958 20.7383 14.0013 20.6234 14C20.5234 13.9988 20.4292 13.9525 20.3673 13.874C20.2961 13.7837 20.2961 13.6108 20.2961 13.2648V12.5781L4.92897 12.5781C4.65283 12.5781 4.42897 12.3543 4.42897 12.0781C4.42897 11.802 4.65283 11.5781 4.92897 11.5781L20.2961 11.5781V10.7351Z" fill="black"/>
</svg>
