<svg width="24" height="24" viewBox="0 0 24 24" fill="none" xmlns="http://www.w3.org/2000/svg">
<path fill-rule="evenodd" clip-rule="evenodd" d="M12 0C13.858 0 14.7871 -6.97747e-05 15.5645 0.123047C19.8433 0.800792 23.1992 4.1567 23.877 8.43555C24.0001 9.21287 24 10.142 24 12C24 13.858 24.0001 14.7871 23.877 15.5645C23.1992 19.8433 19.8433 23.1992 15.5645 23.877C14.7871 24.0001 13.858 24 12 24C10.142 24 9.21287 24.0001 8.43555 23.877C4.1567 23.1992 0.800792 19.8433 0.123047 15.5645C-6.97747e-05 14.7871 0 13.858 0 12C0 10.142 -6.97747e-05 9.21287 0.123047 8.43555C0.800792 4.1567 4.1567 0.800792 8.43555 0.123047C9.21287 -6.97747e-05 10.142 0 12 0ZM7.49219 5.2002C5.90444 5.2002 4.6173 6.48747 4.61719 8.0752V16.2422C4.61736 17.8299 5.90448 19.1172 7.49219 19.1172C8.11335 19.1171 8.61701 18.6133 8.61719 17.9922C8.61708 17.371 8.11339 16.8672 7.49219 16.8672C7.14712 16.8672 6.86736 16.5872 6.86719 16.2422V8.0752C6.8673 7.73011 7.14708 7.4502 7.49219 7.4502C8.11346 7.45014 8.61719 6.94648 8.61719 6.3252C8.61708 5.704 8.11339 5.20025 7.49219 5.2002ZM15.4248 7.66016C14.9832 7.30035 14.3317 7.32625 13.9199 7.7373C13.5082 8.14904 13.4818 8.8013 13.8418 9.24316L13.9199 9.3291L15.542 10.9512H9C8.37888 10.9512 7.87532 11.4551 7.875 12.0762C7.875 12.6975 8.37868 13.2012 9 13.2012H15.542L13.9199 14.8242C13.4806 15.2635 13.4806 15.9757 13.9199 16.415C14.3593 16.8542 15.0715 16.8543 15.5107 16.415L19.0537 12.8721C19.4927 12.4328 19.4928 11.7205 19.0537 11.2812L15.5107 7.7373L15.4248 7.66016Z" fill="black"/>
</svg>
