<svg width="24" height="24" viewBox="0 0 24 24" fill="none" xmlns="http://www.w3.org/2000/svg">
<path d="M7.38379 2.63477C7.52186 2.63477 7.63379 2.52284 7.63379 2.38477C7.63379 2.24669 7.52186 2.13477 7.38379 2.13477H6.17226C5.34193 2.13477 4.70348 2.13477 4.19304 2.17647C3.67732 2.2186 3.27031 2.30455 2.90832 2.48899C2.29679 2.80058 1.79961 3.29777 1.48802 3.9093C1.30358 4.27128 1.21763 4.6783 1.17549 5.19401C1.13379 5.70445 1.13379 6.3429 1.13379 7.17323V17.5963C1.13379 18.4266 1.13379 19.0651 1.17549 19.5755C1.21763 20.0912 1.30358 20.4982 1.48802 20.8602C1.79961 21.4718 2.29679 21.9689 2.90832 22.2805C3.2703 22.465 3.67732 22.5509 4.19304 22.5931C4.70345 22.6348 5.34187 22.6348 6.17214 22.6348H7.38379C7.52186 22.6348 7.63379 22.5228 7.63379 22.3848C7.63379 22.2467 7.52186 22.1348 7.38379 22.1348H6.18379C5.33959 22.1348 4.72147 22.1346 4.23375 22.0947C3.74896 22.0551 3.41507 21.9776 3.13532 21.835C2.61787 21.5714 2.19717 21.1507 1.93352 20.6332C1.79098 20.3535 1.71344 20.0196 1.67383 19.5348C1.63398 19.0471 1.63379 18.429 1.63379 17.5848L1.63379 7.18477C1.63379 6.34056 1.63398 5.72244 1.67383 5.23473C1.71344 4.74993 1.79098 4.41604 1.93352 4.13629C2.19717 3.61885 2.61787 3.19815 3.13532 2.9345C3.41507 2.79196 3.74896 2.71442 4.23375 2.67481C4.72147 2.63496 5.33959 2.63477 6.18379 2.63477L7.38379 2.63477Z" fill="black"/>
<path d="M22.7909 12.2549C22.8886 12.1573 22.8886 11.999 22.7909 11.9014L16.717 5.82744C16.6194 5.72981 16.4611 5.72981 16.3635 5.82744C16.2658 5.92507 16.2658 6.08336 16.3635 6.18099L22.0106 11.8281L4.92799 11.8281C4.78992 11.8281 4.67799 11.9401 4.67799 12.0781C4.67799 12.2162 4.78992 12.3281 4.92799 12.3281L22.0106 12.3281L16.3635 17.9753C16.2658 18.0729 16.2658 18.2312 16.3635 18.3288C16.4611 18.4265 16.6194 18.4265 16.717 18.3288L22.7909 12.2549Z" fill="black"/>
</svg>
