<svg width="24" height="24" viewBox="0 0 24 24" fill="none" xmlns="http://www.w3.org/2000/svg">
<path fill-rule="evenodd" clip-rule="evenodd" d="M0.123117 8.43565C0 9.21298 0 10.142 0 12C0 13.858 0 14.787 0.123117 15.5643C0.800832 19.8433 4.15673 23.1992 8.43565 23.8769C9.21298 24 10.142 24 12 24C13.858 24 14.787 24 15.5643 23.8769C19.8433 23.1992 23.1992 19.8433 23.8769 15.5643C24 14.787 24 13.858 24 12C24 10.142 24 9.21298 23.8769 8.43565C23.1992 4.15673 19.8433 0.800832 15.5643 0.123117C14.787 0 13.858 0 12 0C10.142 0 9.21298 0 8.43565 0.123117C4.15673 0.800832 0.800832 4.15673 0.123117 8.43565ZM7.74208 6.32539C7.74208 6.46347 7.63015 6.57539 7.49208 6.57539C6.66365 6.57539 5.99208 7.24697 5.99208 8.0754L5.99208 16.2421C5.99208 17.0705 6.66365 17.7421 7.49208 17.7421C7.63015 17.7421 7.74208 17.854 7.74208 17.9921C7.74208 18.1301 7.63015 18.2421 7.49208 18.2421C6.38751 18.2421 5.49208 17.3466 5.49208 16.2421V8.0754C5.49208 6.97083 6.38751 6.07539 7.49208 6.07539C7.63015 6.07539 7.74208 6.18732 7.74208 6.32539ZM18.4347 11.9C18.5324 11.9976 18.5324 12.1559 18.4347 12.2535L14.8916 15.7967C14.794 15.8943 14.6357 15.8943 14.5381 15.7967C14.4404 15.699 14.4404 15.5407 14.5381 15.4431L17.6544 12.3268L8.52436 12.3268C8.38629 12.3268 8.27436 12.2148 8.27436 12.0768C8.27436 11.9387 8.38629 11.8268 8.52436 11.8268L17.6544 11.8268L14.5381 8.71042C14.4404 8.61279 14.4404 8.4545 14.5381 8.35687C14.6357 8.25924 14.794 8.25924 14.8916 8.35687L18.4347 11.9Z" fill="black"/>
</svg>
