<svg width="25" height="24" viewBox="0 0 25 24" fill="none" xmlns="http://www.w3.org/2000/svg">
<path d="M10.5191 4.90048C10.6451 3.95564 11.451 3.25 12.4042 3.25H15.3335C20.166 3.25 24.0835 7.16751 24.0835 12C24.0835 16.8325 20.166 20.75 15.3335 20.75H12.4042C11.451 20.75 10.6451 20.0444 10.5191 19.0995L10.4243 18.3882C9.85891 14.1482 9.85891 9.85182 10.4243 5.61176L10.5191 4.90048Z" fill="black"/>
<path d="M8.50648 5.49688C8.78434 6.05261 8.55909 6.72837 8.00336 7.00623L2.00336 10.0062C1.44764 10.2841 0.771879 10.0588 0.494016 9.50312C0.216153 8.94739 0.441405 8.27163 0.997131 7.99377L6.99713 4.99377C7.55286 4.71591 8.22861 4.94116 8.50648 5.49688Z" fill="black"/>
<path d="M8.50648 9.49688C8.78434 10.0526 8.55909 10.7284 8.00336 11.0062L2.00336 14.0062C1.44764 14.2841 0.771879 14.0588 0.494016 13.5031C0.216153 12.9474 0.441405 12.2716 0.997131 11.9938L6.99713 8.99377C7.55286 8.71591 8.22861 8.94116 8.50648 9.49688Z" fill="black"/>
<path d="M8.00336 15.0062C8.55909 14.7284 8.78434 14.0526 8.50648 13.4969C8.22861 12.9412 7.55286 12.7159 6.99713 12.9938L0.997131 15.9938C0.441405 16.2716 0.216153 16.9474 0.494016 17.5031C0.771879 18.0588 1.44764 18.2841 2.00336 18.0062L8.00336 15.0062Z" fill="black"/>
<path d="M8.50648 17.4969C8.78434 18.0526 8.55909 18.7284 8.00336 19.0062L2.00336 22.0062C1.44764 22.2841 0.771879 22.0588 0.494016 21.5031C0.216153 20.9474 0.441405 20.2716 0.997131 19.9938L6.99713 16.9938C7.55286 16.7159 8.22861 16.9412 8.50648 17.4969Z" fill="black"/>
</svg>
