<svg width="25" height="24" viewBox="0 0 25 24" fill="none" xmlns="http://www.w3.org/2000/svg">
<path fill-rule="evenodd" clip-rule="evenodd" d="M12.6542 3.5C11.8263 3.5 11.1263 4.11288 11.0169 4.93352L10.922 5.6448C10.3596 9.86293 10.3596 14.1371 10.922 18.3552L11.0169 19.0665C11.1263 19.8871 11.8263 20.5 12.6542 20.5H15.5835C20.2779 20.5 24.0835 16.6944 24.0835 12C24.0835 7.30558 20.2779 3.5 15.5835 3.5H12.6542ZM12.9045 5.90913L12.959 5.5H15.5835C19.1734 5.5 22.0835 8.41015 22.0835 12C22.0835 15.5899 19.1734 18.5 15.5835 18.5H12.959L12.9045 18.0909C12.3655 14.0482 12.3655 9.95182 12.9045 5.90913Z" fill="black"/>
<path d="M8.39465 5.55279C8.64164 6.04676 8.44141 6.64744 7.94743 6.89443L1.94743 9.89443C1.45345 10.1414 0.852781 9.94119 0.605792 9.44721C0.358803 8.95324 0.559027 8.35256 1.05301 8.10557L7.05301 5.10557C7.54698 4.85858 8.14766 5.05881 8.39465 5.55279Z" fill="black"/>
<path d="M8.39465 9.55279C8.64164 10.0468 8.44141 10.6474 7.94743 10.8944L1.94743 13.8944C1.45345 14.1414 0.852781 13.9412 0.605792 13.4472C0.358803 12.9532 0.559027 12.3526 1.05301 12.1056L7.05301 9.10557C7.54698 8.85858 8.14766 9.05881 8.39465 9.55279Z" fill="black"/>
<path d="M7.94743 14.8944C8.44141 14.6474 8.64164 14.0468 8.39465 13.5528C8.14766 13.0588 7.54698 12.8586 7.05301 13.1056L1.05301 16.1056C0.559027 16.3526 0.358803 16.9532 0.605792 17.4472C0.852781 17.9412 1.45345 18.1414 1.94743 17.8944L7.94743 14.8944Z" fill="black"/>
<path d="M8.39465 17.5528C8.64164 18.0468 8.44141 18.6474 7.94743 18.8944L1.94743 21.8944C1.45345 22.1414 0.852781 21.9412 0.605792 21.4472C0.358803 20.9532 0.559027 20.3526 1.05301 20.1056L7.05301 17.1056C7.54698 16.8586 8.14766 17.0588 8.39465 17.5528Z" fill="black"/>
</svg>
