<svg width="24" height="24" viewBox="0 0 24 24" fill="none" xmlns="http://www.w3.org/2000/svg">
<path fill-rule="evenodd" clip-rule="evenodd" d="M12.4042 3.75C11.7016 3.75 11.1075 4.27012 11.0146 4.96656L10.9198 5.67784C10.3603 9.87405 10.3603 14.126 10.9198 18.3222L11.0146 19.0334C11.1075 19.7299 11.7016 20.25 12.4042 20.25H15.3335C19.8898 20.25 23.5835 16.5563 23.5835 12C23.5835 7.44365 19.8898 3.75 15.3335 3.75H12.4042ZM12.4066 5.87608L12.4901 5.25H15.3335C19.0614 5.25 22.0835 8.27208 22.0835 12C22.0835 15.7279 19.0614 18.75 15.3335 18.75H12.4901L12.4066 18.1239C11.8647 14.0593 11.8647 9.94071 12.4066 5.87608Z" fill="black"/>
<path d="M8.17098 5.66459C8.35623 6.03507 8.20606 6.48558 7.83557 6.67082L1.83557 9.67082C1.46509 9.85606 1.01459 9.70589 0.829344 9.33541C0.644102 8.96493 0.79427 8.51442 1.16475 8.32918L7.16475 5.32918C7.53524 5.14394 7.98574 5.29411 8.17098 5.66459Z" fill="black"/>
<path d="M8.17098 9.66459C8.35623 10.0351 8.20606 10.4856 7.83557 10.6708L1.83557 13.6708C1.46509 13.8561 1.01459 13.7059 0.829344 13.3354C0.644102 12.9649 0.79427 12.5144 1.16475 12.3292L7.16475 9.32918C7.53524 9.14394 7.98574 9.29411 8.17098 9.66459Z" fill="black"/>
<path d="M7.83557 14.6708C8.20606 14.4856 8.35623 14.0351 8.17098 13.6646C7.98574 13.2941 7.53524 13.1439 7.16475 13.3292L1.16475 16.3292C0.79427 16.5144 0.644102 16.9649 0.829344 17.3354C1.01459 17.7059 1.46509 17.8561 1.83557 17.6708L7.83557 14.6708Z" fill="black"/>
<path d="M8.17098 17.6646C8.35623 18.0351 8.20606 18.4856 7.83557 18.6708L1.83557 21.6708C1.46509 21.8561 1.01459 21.7059 0.829344 21.3354C0.644102 20.9649 0.79427 20.5144 1.16475 20.3292L7.16475 17.3292C7.53524 17.1439 7.98574 17.2941 8.17098 17.6646Z" fill="black"/>
</svg>
