<svg width="24" height="24" viewBox="0 0 24 24" fill="none" xmlns="http://www.w3.org/2000/svg">
<path fill-rule="evenodd" clip-rule="evenodd" d="M11.904 4.25C11.452 4.25 11.0699 4.58461 11.0101 5.03264L10.9153 5.74392C10.3616 9.89627 10.3616 14.1037 10.9153 18.2561L11.0101 18.9674C11.0699 19.4154 11.452 19.75 11.904 19.75H14.8334C19.1136 19.75 22.5834 16.2802 22.5834 12C22.5834 7.71979 19.1136 4.25 14.8334 4.25H11.904ZM11.5057 5.09872C11.5324 4.89909 11.7026 4.75 11.904 4.75H14.8334C18.8374 4.75 22.0834 7.99594 22.0834 12C22.0834 16.0041 18.8374 19.25 14.8334 19.25H11.904C11.7026 19.25 11.5324 19.1009 11.5057 18.9013L11.4109 18.19C10.8631 14.0815 10.8631 9.91849 11.4109 5.81L11.5057 5.09872Z" fill="black"/>
<path d="M7.72366 6.6382C7.78541 6.76169 7.73535 6.91186 7.61186 6.97361L1.61186 9.97361C1.48836 10.0354 1.3382 9.9853 1.27645 9.8618C1.2147 9.73831 1.26476 9.58814 1.38825 9.52639L7.38825 6.52639C7.51175 6.46465 7.66191 6.5147 7.72366 6.6382Z" fill="black"/>
<path d="M7.72366 10.1382C7.78541 10.2617 7.73535 10.4119 7.61186 10.4736L1.61186 13.4736C1.48836 13.5354 1.3382 13.4853 1.27645 13.3618C1.2147 13.2383 1.26476 13.0881 1.38825 13.0264L7.38825 10.0264C7.51175 9.96465 7.66191 10.0147 7.72366 10.1382Z" fill="black"/>
<path d="M7.61186 13.9736C7.73535 13.9119 7.78541 13.7617 7.72366 13.6382C7.66191 13.5147 7.51175 13.4646 7.38825 13.5264L1.38825 16.5264C1.26476 16.5881 1.2147 16.7383 1.27645 16.8618C1.3382 16.9853 1.48836 17.0354 1.61186 16.9736L7.61186 13.9736Z" fill="black"/>
<path d="M7.72366 17.1382C7.78541 17.2617 7.73535 17.4119 7.61186 17.4736L1.61186 20.4736C1.48836 20.5354 1.3382 20.4853 1.27645 20.3618C1.2147 20.2383 1.26476 20.0881 1.38825 20.0264L7.38825 17.0264C7.51175 16.9646 7.66191 17.0147 7.72366 17.1382Z" fill="black"/>
</svg>
