<svg width="24" height="24" viewBox="0 0 24 24" fill="none" xmlns="http://www.w3.org/2000/svg">
<path d="M16.2504 7.00511C16.2504 6.59089 16.5862 6.25511 17.0004 6.25511C17.4144 6.2553 17.7504 6.59101 17.7504 7.00511V9.00511C17.7503 9.41911 17.4144 9.75491 17.0004 9.75511C16.5862 9.75511 16.2505 9.41924 16.2504 9.00511L16.2504 7.00511Z" fill="black"/>
<path d="M6.25037 7.00511C6.25037 6.59089 6.58615 6.25511 7.00037 6.25511C7.41441 6.2553 7.75037 6.59101 7.75037 7.00511V9.00511C7.75027 9.41911 7.41435 9.75491 7.00037 9.75511C6.58621 9.75511 6.25047 9.41923 6.25037 9.00511V7.00511Z" fill="black"/>
<path fill-rule="evenodd" clip-rule="evenodd" d="M1.00232 5.00022C1.00247 3.3951 2.26281 2.08425 3.84802 2.00413L4.00232 2.00022L12.6615 2.00022L13.3295 0.665262C13.5146 0.294909 13.9649 0.144384 14.3353 0.329325C14.7054 0.514633 14.8561 0.964915 14.6713 1.33518L14.3383 2.00022L20.0004 2.00022C21.6571 2.00042 23.0004 3.34349 23.0004 5.00022V19.0002C23.0002 20.6568 21.657 22 20.0004 22.0002H16.3666L16.682 22.6877C16.8543 23.0641 16.6891 23.5093 16.3129 23.6819C15.9365 23.8544 15.4915 23.6889 15.3187 23.3127L14.7172 22.0002H4.00037C2.39548 22.0001 1.08473 20.7394 1.00427 19.1545L1.00037 19.0002L1.00232 5.00022ZM14.2885 11.2502L14.2494 12.0373C14.1842 13.3419 14.2496 14.6449 14.4408 15.928C15.548 15.7106 16.6335 15.3453 17.6654 14.8293C18.0358 14.6445 18.4861 14.795 18.6713 15.1653C18.8559 15.5355 18.7054 15.986 18.3353 16.1711C17.1774 16.75 15.9595 17.1598 14.7172 17.4026C14.9576 18.4581 15.2871 19.4938 15.6996 20.5002H20.0004C20.8285 20.5 21.5002 19.8284 21.5004 19.0002V5.00022C21.5004 4.17192 20.8286 3.50042 20.0004 3.50022L13.6039 3.50022C12.4887 5.93807 11.8644 8.57141 11.766 11.2502H14.2885ZM2.50037 19.0002C2.50053 19.8284 3.17216 20.5001 4.00037 20.5002H14.0883C13.7334 19.5575 13.4467 18.5926 13.2299 17.6125C10.6567 17.8366 8.0363 17.3564 5.66541 16.1711C5.29508 15.986 5.1446 15.5357 5.32947 15.1653C5.51464 14.7949 5.96492 14.6444 6.33533 14.8293C8.41095 15.867 10.7008 16.3005 12.9554 16.1301C12.7905 15.014 12.7143 13.8839 12.7289 12.7502H10.2504V12.0002C10.2504 9.07614 10.8365 6.18687 11.9662 3.50022L4.00232 3.50022C3.17395 3.50022 2.5024 4.17185 2.50232 5.00022L2.50037 19.0002Z" fill="black"/>
</svg>
