<svg width="24" height="24" viewBox="0 0 24 24" fill="none" xmlns="http://www.w3.org/2000/svg">
<path d="M16.5004 7.00499C16.5005 6.72895 16.7243 6.50499 17.0004 6.50499C17.2763 6.50518 17.5002 6.72907 17.5004 7.00499V9.00499C17.5002 9.28089 17.2763 9.50479 17.0004 9.50499C16.7243 9.50499 16.5005 9.28101 16.5004 9.00499L16.5004 7.00499Z" fill="black"/>
<path fill-rule="evenodd" clip-rule="evenodd" d="M1.00134 5.0001C1.00137 4.73853 1.03801 4.48516 1.10095 4.24327C1.11129 4.20351 1.11931 4.16323 1.13122 4.12413C1.14792 4.06936 1.16915 4.01638 1.18884 3.96299C1.20209 3.92706 1.21431 3.89085 1.22888 3.85557C1.25171 3.80034 1.2781 3.74698 1.30408 3.69346C1.31954 3.66158 1.33342 3.629 1.34997 3.59776C1.37689 3.54697 1.40719 3.49833 1.43689 3.44932C1.45682 3.41643 1.47532 3.38274 1.49646 3.35069C1.52566 3.30642 1.55779 3.26437 1.58923 3.22178C1.6144 3.18769 1.63885 3.15319 1.6654 3.12022C1.69628 3.0819 1.7294 3.04563 1.76208 3.00889C1.79183 2.97545 1.82074 2.94136 1.85193 2.90928C1.8884 2.87179 1.92684 2.83644 1.96521 2.80088C1.99616 2.7722 2.02682 2.74329 2.05896 2.71592C2.09602 2.68437 2.13464 2.65485 2.17322 2.6251C2.2106 2.59627 2.24775 2.56722 2.2865 2.54014C2.32995 2.50979 2.3752 2.48227 2.42029 2.45421C2.4518 2.43458 2.48273 2.41408 2.51501 2.39561C2.56755 2.36556 2.62168 2.33854 2.67615 2.31163C2.70733 2.29622 2.73812 2.28007 2.7699 2.26573C2.82173 2.24234 2.87475 2.22176 2.9281 2.20128C2.96719 2.18627 3.00641 2.1717 3.04626 2.15831C3.09421 2.14219 3.14277 2.12809 3.19177 2.11436C3.23707 2.10167 3.28235 2.08882 3.32849 2.07823C3.54498 2.02855 3.7698 2.00012 4.00134 2.0001L12.9408 2.0001L13.5531 0.77647C13.6767 0.52967 13.9771 0.429387 14.224 0.552837C14.4706 0.676397 14.5709 0.976912 14.4476 1.22374L14.059 2.0001L20.0004 2.0001C21.6571 2.0003 23.0004 3.34337 23.0004 5.0001V19.0001C23.0003 20.6568 21.657 21.9999 20.0004 22.0001H16.0912L16.4545 22.7921C16.5691 23.0429 16.459 23.3391 16.2084 23.4542C15.9575 23.5691 15.6614 23.4588 15.5463 23.2081L14.9906 22.0001H4.00037C3.80806 22.0001 3.62011 21.981 3.43787 21.9464C3.32724 21.9254 3.21864 21.8991 3.11267 21.8663C3.09012 21.8593 3.06859 21.8494 3.04626 21.8419C2.97427 21.8177 2.90282 21.7931 2.83337 21.7638C2.81524 21.7561 2.79761 21.7474 2.77966 21.7394C2.71311 21.7097 2.64727 21.6789 2.58337 21.6446C2.55752 21.6308 2.53259 21.6153 2.5072 21.6007C2.45062 21.5681 2.3944 21.5352 2.34021 21.4991C2.3107 21.4795 2.28304 21.4573 2.25427 21.4366C2.20602 21.402 2.15775 21.3675 2.11169 21.3302C2.07656 21.3017 2.04392 21.2704 2.01013 21.2403C1.97409 21.2083 1.93716 21.1774 1.90271 21.1437C1.87159 21.1132 1.84264 21.0807 1.81287 21.0489C1.77961 21.0134 1.74575 20.9786 1.71423 20.9415C1.68483 20.9069 1.65711 20.871 1.62927 20.8351C1.59621 20.7924 1.56336 20.7496 1.53259 20.7052C1.5125 20.6762 1.49406 20.6461 1.47498 20.6163C1.44376 20.5677 1.41356 20.5184 1.38513 20.4679C1.36444 20.4311 1.3457 20.3933 1.32654 20.3556C1.30308 20.3094 1.27928 20.2634 1.25818 20.2159C1.24066 20.1765 1.2252 20.1361 1.20935 20.0958C1.18919 20.0445 1.1691 19.9931 1.15173 19.9405C1.13826 19.8997 1.12735 19.8581 1.1156 19.8165C1.10217 19.769 1.08863 19.7214 1.07751 19.673C1.03898 19.505 1.01328 19.3319 1.00427 19.1544L1.00037 19.0001L1.00134 5.0001ZM14.0258 11.5001L13.9994 12.0255C13.929 13.4338 14.0084 14.8407 14.2328 16.2228C15.4505 16.0091 16.6449 15.6187 17.7767 15.0528C18.0236 14.9296 18.3241 15.0296 18.4476 15.2765C18.5708 15.5233 18.4707 15.8239 18.224 15.9474C17.0085 16.5551 15.7259 16.9745 14.4183 17.2052C14.6965 18.5037 15.1044 19.7753 15.6381 21.0001H20.0004C21.1047 20.9999 22.0003 20.1045 22.0004 19.0001V5.0001C22.0004 3.89565 21.1048 3.0003 20.0004 3.0001L13.5638 3.0001C12.2803 5.65541 11.5795 8.5534 11.5082 11.5001H14.0258ZM5.5531 15.2755C5.4299 15.5223 5.53002 15.8229 5.77673 15.9464C8.32619 17.2211 11.1696 17.6666 13.9242 17.2823L13.9027 17.1759C13.8734 17.0345 13.845 16.893 13.8187 16.7511C13.8233 16.776 13.8277 16.8014 13.8324 16.8263C13.7989 16.6505 13.7673 16.4736 13.7386 16.297C11.1967 16.6421 8.57572 16.2277 6.224 15.0519C5.97743 14.9287 5.67691 15.0294 5.5531 15.2755ZM6.50037 9.00499C6.50083 9.28074 6.72451 9.50499 7.00037 9.50499C7.27607 9.5048 7.49991 9.28062 7.50037 9.00499V7.00499C7.49992 6.72933 7.27608 6.50517 7.00037 6.50499C6.7245 6.50499 6.50081 6.72922 6.50037 7.00499V9.00499Z" fill="black"/>
</svg>
