<svg width="24" height="24" viewBox="0 0 24 24" fill="none" xmlns="http://www.w3.org/2000/svg">
<path d="M16.7494 7.00475C16.7495 6.86699 16.8617 6.75508 16.9994 6.75475C17.1374 6.75475 17.2493 6.86678 17.2494 7.00475V9.00475C17.2493 9.14274 17.1374 9.25475 16.9994 9.25475C16.8617 9.25441 16.7495 9.14254 16.7494 9.00475L16.7494 7.00475Z" fill="black"/>
<path fill-rule="evenodd" clip-rule="evenodd" d="M1.00134 4.99987C1.00137 4.72871 1.04031 4.46651 1.10779 4.21666C1.11515 4.18941 1.12019 4.16157 1.1283 4.13463L1.13611 4.10729C1.15254 4.0545 1.17353 4.0035 1.19275 3.95201C1.2048 3.91971 1.21576 3.8871 1.22888 3.85533C1.25227 3.79875 1.27934 3.7441 1.30603 3.68932C1.32078 3.65903 1.33425 3.6282 1.34997 3.5985C1.37935 3.54304 1.41202 3.48972 1.4447 3.43639C1.4612 3.40946 1.47622 3.38169 1.49353 3.35533C1.52534 3.30692 1.56061 3.26112 1.59509 3.21471C1.61857 3.18311 1.64073 3.15061 1.6654 3.11998C1.69411 3.08436 1.72498 3.05072 1.75525 3.01647C1.789 2.97826 1.82216 2.93962 1.85779 2.90319C1.88824 2.87205 1.92074 2.84313 1.95251 2.81334C1.98799 2.78007 2.02287 2.74624 2.05994 2.71471C2.09453 2.68529 2.13046 2.6576 2.16638 2.62975C2.20867 2.59695 2.25124 2.56459 2.29529 2.53404C2.32779 2.51151 2.36148 2.49086 2.3949 2.46959C2.43826 2.44199 2.48189 2.41491 2.52673 2.38951C2.57093 2.36448 2.61594 2.34104 2.6615 2.31822C2.69858 2.29965 2.73586 2.28157 2.7738 2.26451C2.82447 2.24173 2.87599 2.22104 2.9281 2.20104C2.96786 2.18578 3.00767 2.17069 3.04822 2.15709C3.0955 2.14124 3.14348 2.12765 3.19177 2.11412C3.23707 2.10144 3.28235 2.08858 3.32849 2.07799C3.54496 2.02831 3.76982 1.99988 4.00134 1.99987L13.2201 1.99986L13.7758 0.888537C13.8374 0.765378 13.9874 0.715165 14.1107 0.776232C14.2341 0.837907 14.2844 0.987788 14.223 1.11119L13.7787 1.99986L20.0004 1.99986C21.657 2.00006 23.0003 3.34315 23.0004 4.99986V18.9999C23.0004 20.6566 21.6571 21.9997 20.0004 21.9999H15.8158L16.2269 22.8954C16.2843 23.0208 16.2292 23.1698 16.1039 23.2274C15.9786 23.2845 15.8294 23.2295 15.7719 23.1044L15.265 21.9999H4.00037C3.80805 21.9999 3.62012 21.9807 3.43787 21.9462C3.33062 21.9258 3.22531 21.9004 3.12244 21.869C3.07968 21.8559 3.03838 21.839 2.99646 21.8241C2.94163 21.8046 2.88669 21.7861 2.83337 21.7635C2.81524 21.7559 2.79761 21.7471 2.77966 21.7391C2.7131 21.7094 2.64727 21.6787 2.58337 21.6444C2.55752 21.6305 2.5326 21.6151 2.5072 21.6005C2.45061 21.5679 2.3944 21.535 2.34021 21.4989C2.3107 21.4792 2.28304 21.457 2.25427 21.4364C2.20564 21.4015 2.15711 21.3666 2.11072 21.329C2.08348 21.3068 2.05805 21.2827 2.03162 21.2596C1.98588 21.2198 1.94008 21.1801 1.89685 21.1376C1.86466 21.1059 1.83482 21.072 1.80408 21.0389C1.77396 21.0065 1.74291 20.975 1.71423 20.9413C1.68483 20.9067 1.65711 20.8707 1.62927 20.8348C1.59621 20.7922 1.56336 20.7494 1.53259 20.7049C1.5125 20.6759 1.49406 20.6458 1.47498 20.6161C1.44376 20.5674 1.41356 20.5182 1.38513 20.4676C1.36387 20.4298 1.34423 20.3912 1.32459 20.3524C1.30237 20.3085 1.28023 20.2647 1.26013 20.2196C1.24191 20.1787 1.22479 20.1374 1.20837 20.0956C1.1879 20.0434 1.16835 19.9909 1.15076 19.9374C1.13794 19.8984 1.12684 19.8589 1.1156 19.8192C1.10187 19.7708 1.08884 19.7221 1.07751 19.6727C1.0279 19.4563 1.00037 19.2313 1.00037 18.9999L1.00134 4.99987ZM13.7621 11.7499L13.7494 12.0126C13.674 13.5219 13.77 15.0296 14.0287 16.5077C15.3554 16.3009 16.6581 15.8912 17.8881 15.2762C18.0114 15.2148 18.1612 15.2654 18.223 15.3885C18.2844 15.5119 18.234 15.6618 18.1107 15.7235C16.8391 16.3592 15.4927 16.7835 14.1215 16.9989C14.428 18.5267 14.909 20.0204 15.5629 21.4471L15.5863 21.4999H20.0004C21.3809 21.4997 22.5004 20.3805 22.5004 18.9999V4.99986C22.5003 3.61929 21.3809 2.50006 20.0004 2.49986L13.5287 2.49986L13.4593 2.63951C12.0436 5.47107 11.2911 8.58651 11.2533 11.7499H13.7621ZM15.0931 20.9989C15.1642 21.1668 15.2382 21.3336 15.3138 21.4999C15.2364 21.3298 15.1609 21.159 15.0883 20.9872L15.0931 20.9989ZM5.77673 15.3885C5.71551 15.5119 5.76577 15.6619 5.88904 15.7235C8.38756 16.9725 11.1735 17.4103 13.8734 17.037C13.8704 17.0222 13.8675 17.0069 13.8646 16.9921C13.8698 17.0182 13.876 17.0441 13.8812 17.0702C13.8408 16.8699 13.8033 16.6691 13.7689 16.4676C13.7733 16.4933 13.7771 16.5192 13.7816 16.5448C11.1873 16.8988 8.51168 16.4761 6.11169 15.2762C5.98844 15.2149 5.83857 15.2655 5.77673 15.3885ZM11.1429 9.54674C11.1903 9.14059 11.249 8.73609 11.3197 8.33385C11.355 8.13272 11.3938 7.93225 11.4349 7.73229C11.3115 8.33246 11.214 8.93718 11.1429 9.54674ZM6.75037 9.00475C6.75059 9.14263 6.86244 9.25475 7.00037 9.25475C7.13798 9.25437 7.25014 9.14239 7.25037 9.00475V7.00475C7.25014 6.8671 7.13798 6.75512 7.00037 6.75475C6.86244 6.75475 6.7506 6.86687 6.75037 7.00475V9.00475Z" fill="black"/>
</svg>
