<svg width="24" height="24" viewBox="0 0 24 24" fill="none" xmlns="http://www.w3.org/2000/svg">
<path d="M15.9994 7.50064C15.9995 6.94867 16.4475 6.50106 16.9994 6.50064C17.5516 6.50064 17.9993 6.94841 17.9994 7.50064V9.00064C17.999 9.55258 17.5514 10.0006 16.9994 10.0006C16.4477 10.0002 15.9998 9.55233 15.9994 9.00064V7.50064Z" fill="black"/>
<path fill-rule="evenodd" clip-rule="evenodd" d="M1.00134 5.99967C1.00141 5.5497 1.07618 5.11721 1.21326 4.71353C1.22147 4.68933 1.22998 4.66526 1.23865 4.64127C1.24716 4.6177 1.25607 4.59432 1.26501 4.57096C1.27803 4.53693 1.29114 4.50297 1.30505 4.46939C1.32266 4.42692 1.3417 4.38514 1.36072 4.34342C1.36622 4.33135 1.3717 4.31929 1.37732 4.30728C1.39691 4.26542 1.41786 4.22432 1.43884 4.18326C1.44799 4.16536 1.45678 4.1473 1.46619 4.12955C1.48812 4.08818 1.51024 4.04699 1.53357 4.0065C1.53962 3.996 1.54598 3.98569 1.55212 3.97525C1.57556 3.93541 1.59963 3.89603 1.62439 3.85709C1.63689 3.83742 1.64964 3.81793 1.66247 3.7985C1.68045 3.77128 1.69854 3.74418 1.71716 3.71744C1.73555 3.69103 1.7548 3.66526 1.7738 3.63932C1.79278 3.61341 1.81184 3.5876 1.83142 3.56217C1.85081 3.53698 1.87004 3.51168 1.89001 3.48697C1.90687 3.46613 1.92451 3.44595 1.94177 3.42545C1.96364 3.39948 1.98567 3.3737 2.00818 3.3483C2.03387 3.31932 2.05979 3.29058 2.0863 3.26236C2.10018 3.24759 2.1142 3.23298 2.1283 3.21842C2.15809 3.18765 2.18836 3.1574 2.21912 3.1276C2.23102 3.11606 2.2432 3.10481 2.25525 3.09342C2.28791 3.06254 2.32117 3.03237 2.35486 3.0026C2.37751 2.98258 2.40012 2.96254 2.42322 2.94303C2.44035 2.92856 2.4576 2.91424 2.47497 2.90006C2.50585 2.87485 2.53709 2.85013 2.56872 2.82584C2.59083 2.80887 2.61267 2.79157 2.63513 2.77506C2.66503 2.75307 2.69543 2.73177 2.72595 2.7106C2.74658 2.69631 2.76755 2.68253 2.78845 2.66861C2.81527 2.65075 2.84223 2.6331 2.86951 2.61588C2.89792 2.59794 2.92656 2.58038 2.95544 2.56314C3.03688 2.51454 3.1204 2.46927 3.20544 2.42642C3.28773 2.38498 3.37101 2.34504 3.45642 2.30924C3.54525 2.27199 3.63595 2.23856 3.7279 2.20767C3.94185 2.13584 4.16359 2.08049 4.39197 2.04557C4.41428 2.04215 4.43692 2.04079 4.45935 2.03775C4.52848 2.02838 4.59813 2.02108 4.66833 2.01529C4.71072 2.0118 4.75351 2.00671 4.79626 2.00455L4.99646 2.00064C4.99809 2.00064 4.99971 1.99967 5.00134 1.99967L12.3812 1.99967L13.1049 0.553377C13.3518 0.0595841 13.9528 -0.140594 14.4467 0.106112C14.9406 0.353085 15.1408 0.953948 14.8939 1.44791L14.6176 1.99967L19.0004 1.99967C21.2092 1.99986 23.0001 3.79087 23.0004 5.99967V17.9997C23.0004 20.2087 21.2093 21.9995 19.0004 21.9997H16.64L16.9086 22.5837C17.1384 23.0855 16.9181 23.6797 16.4164 23.9098C15.9147 24.1392 15.3204 23.919 15.0902 23.4176L14.4398 21.9997H5.00037C4.91209 21.9997 4.82452 21.9965 4.73767 21.9909C4.5533 21.9789 4.3724 21.9547 4.19568 21.9186C4.1715 21.9137 4.14743 21.9084 4.12341 21.903C4.08248 21.8938 4.04179 21.8841 4.00134 21.8737C3.98014 21.8682 3.95893 21.8629 3.93787 21.8571C3.89556 21.8455 3.85362 21.8329 3.81189 21.82C3.78433 21.8114 3.75716 21.8018 3.72986 21.7926C3.69525 21.781 3.66053 21.77 3.62634 21.7575C3.61288 21.7526 3.5997 21.7469 3.5863 21.7419C3.47752 21.7007 3.37098 21.6552 3.26697 21.6051L3.14685 21.5456C3.13601 21.5399 3.12541 21.5338 3.11462 21.528C3.09432 21.5171 3.07417 21.506 3.05408 21.4948C3.01596 21.4735 2.97813 21.4518 2.9408 21.4294C2.92817 21.4218 2.91525 21.4146 2.90271 21.4069C2.86218 21.3819 2.82214 21.3561 2.78259 21.3297C2.76058 21.3151 2.73887 21.2999 2.71716 21.2848C2.69396 21.2687 2.67067 21.2526 2.64783 21.236C2.61645 21.2131 2.58573 21.1894 2.55505 21.1657C2.53486 21.1501 2.51439 21.1348 2.49451 21.1188C2.46264 21.0932 2.43181 21.0663 2.40076 21.0397C2.38533 21.0265 2.37008 21.0131 2.35486 20.9997C2.3272 20.9753 2.29979 20.9506 2.27283 20.9254C2.26205 20.9154 2.25127 20.9053 2.2406 20.8952L2.17224 20.8288C2.16378 20.8203 2.15524 20.8119 2.14685 20.8034C2.11829 20.7743 2.09054 20.7444 2.06287 20.7145C2.04613 20.6964 2.02947 20.6782 2.01306 20.6598C1.99496 20.6395 1.97705 20.619 1.95935 20.5983C1.93156 20.5658 1.90407 20.533 1.87732 20.4997C1.86425 20.4834 1.85205 20.4664 1.83923 20.4499C1.8166 20.4207 1.79368 20.3918 1.77185 20.362C1.75515 20.3392 1.73925 20.3158 1.72302 20.2926C1.70303 20.2641 1.68272 20.2358 1.66345 20.2067C1.64406 20.1774 1.62544 20.1476 1.60681 20.1178C1.59364 20.0968 1.58053 20.0757 1.56775 20.0544C1.55148 20.0272 1.53554 19.9999 1.5199 19.9723C1.50085 19.9388 1.48233 19.9049 1.46423 19.8708C1.45517 19.8537 1.44669 19.8362 1.43787 19.819C1.42342 19.7908 1.40869 19.7627 1.3949 19.734L1.37439 19.6901C1.367 19.6743 1.3601 19.6582 1.35291 19.6422C1.33669 19.6063 1.32023 19.5704 1.30505 19.5338C1.29727 19.5151 1.2901 19.4961 1.28259 19.4772C1.24268 19.3768 1.20602 19.2747 1.17419 19.1706C1.16728 19.1479 1.16119 19.125 1.15466 19.1022C1.14309 19.0617 1.13178 19.0211 1.12146 18.9801C1.11942 18.972 1.11759 18.9639 1.1156 18.9557C1.08724 18.8401 1.06334 18.7225 1.04529 18.6032C1.04494 18.6009 1.04465 18.5986 1.04431 18.5963L1.02087 18.4088C1.00723 18.2744 1.00036 18.1377 1.00037 17.9997L1.00134 5.99967ZM14.5502 11.0006L14.4984 12.0504C14.4385 13.2495 14.4911 14.4478 14.6508 15.6295C15.6459 15.4121 16.6213 15.0714 17.5521 14.6061C18.0461 14.3592 18.6469 14.5595 18.8939 15.0534C19.1407 15.5473 18.9405 16.1482 18.4467 16.3952C17.3481 16.9443 16.1962 17.3445 15.0209 17.5963C15.2178 18.4111 15.4671 19.2141 15.7679 19.9997H19.0004C20.1048 19.9995 21.0004 19.1041 21.0004 17.9997V5.99967C21.0001 4.89543 20.1046 3.99986 19.0004 3.99967L13.6537 3.99967C12.6969 6.21656 12.1464 8.58851 12.0267 11.0006H14.5502ZM5.10583 15.0524C4.8589 15.5463 5.05938 16.1471 5.5531 16.3942C8.20685 17.721 11.1681 18.1814 14.0345 17.7731C14.0444 17.8144 14.0547 17.8559 14.0648 17.8971C13.918 17.2987 13.7996 16.6938 13.7074 16.0846C13.7101 16.1025 13.7125 16.1205 13.7152 16.1383C13.698 16.0269 13.6807 15.9151 13.6654 15.8034C11.2237 16.1337 8.70647 15.7344 6.44763 14.6051C5.95389 14.3585 5.35293 14.5589 5.10583 15.0524ZM6.00037 8.99967C6.00041 9.55184 6.44821 9.99954 7.00037 9.99967C7.55236 9.99936 8.00033 9.55173 8.00037 8.99967V7.49967C8.00007 6.94782 7.5522 6.49998 7.00037 6.49967C6.44837 6.49979 6.00066 6.94771 6.00037 7.49967V8.99967Z" fill="black"/>
</svg>
