<svg width="24" height="24" viewBox="0 0 24 24" fill="none" xmlns="http://www.w3.org/2000/svg">
<path d="M16.2494 7.00483C16.2497 6.59103 16.5856 6.25511 16.9994 6.25483C17.4134 6.25483 17.7491 6.59085 17.7494 7.00483V9.00483C17.7494 9.41904 17.4136 9.75483 16.9994 9.75483C16.5854 9.75455 16.2494 9.41886 16.2494 9.00483L16.2494 7.00483Z" fill="black"/>
<path fill-rule="evenodd" clip-rule="evenodd" d="M1.00134 4.99995C1.00137 4.73437 1.03906 4.47761 1.10388 4.23237C1.11334 4.19657 1.12049 4.16022 1.13122 4.12495C1.14761 4.07117 1.16859 4.0192 1.18787 3.96675C1.20153 3.92954 1.2138 3.89192 1.22888 3.85542C1.25227 3.79884 1.27934 3.74418 1.30603 3.68941C1.32078 3.65912 1.33425 3.62829 1.34997 3.59859C1.37935 3.54313 1.41202 3.4898 1.4447 3.43648C1.4612 3.40955 1.47622 3.38178 1.49353 3.35542C1.52535 3.30701 1.5606 3.2612 1.59509 3.2148C1.61842 3.1834 1.6409 3.15148 1.6654 3.12105C1.69788 3.08073 1.73249 3.04242 1.76697 3.00386C1.7951 2.97238 1.82251 2.94037 1.85193 2.91011C1.8847 2.87641 1.91918 2.84459 1.95349 2.81245C1.9905 2.77778 2.02706 2.74269 2.0658 2.70991C2.09802 2.68265 2.13203 2.6577 2.1654 2.63179C2.20583 2.60039 2.24641 2.56933 2.28845 2.53999C2.32608 2.51374 2.36483 2.48934 2.40369 2.4648C2.44432 2.43913 2.48481 2.41334 2.52673 2.3896C2.57093 2.36457 2.61594 2.34112 2.6615 2.31831C2.69858 2.29974 2.73587 2.28166 2.7738 2.2646C2.82446 2.24182 2.87599 2.22112 2.9281 2.20112C2.96718 2.18612 3.00641 2.17155 3.04626 2.15816C3.09421 2.14204 3.14278 2.12793 3.19177 2.11421C3.23707 2.10152 3.28236 2.08866 3.32849 2.07808C3.54495 2.02841 3.76983 1.99997 4.00134 1.99995L12.6605 1.99995L13.3285 0.664991C13.5137 0.295005 13.9641 0.144582 14.3343 0.329053C14.7046 0.514188 14.855 0.96455 14.6703 1.33491L14.3373 1.99995L20.0004 1.99995C21.657 2.00015 23.0003 3.34331 23.0004 4.99995V19C23.0004 20.6567 21.6571 21.9998 20.0004 22H16.3656L16.681 22.6875C16.8535 23.0639 16.6883 23.509 16.3119 23.6816C15.9355 23.8539 15.4903 23.6888 15.3177 23.3125L14.7162 22H4.00037C3.89883 22 3.79853 21.9942 3.69959 21.9843C3.69765 21.9841 3.69566 21.9845 3.69373 21.9843C3.60666 21.9755 3.52062 21.9633 3.43591 21.9472C3.42286 21.9447 3.40985 21.9421 3.39685 21.9394C3.36654 21.9332 3.33698 21.924 3.30701 21.9169C3.24526 21.9023 3.18362 21.8884 3.12341 21.8701C3.07769 21.8561 3.03342 21.8383 2.98865 21.8222C2.94012 21.8048 2.89145 21.7883 2.84412 21.7685C2.84033 21.7669 2.83618 21.7662 2.8324 21.7646L2.60974 21.6591C2.60083 21.6545 2.59223 21.6492 2.58337 21.6445C2.5557 21.6296 2.52947 21.6123 2.50232 21.5966C2.44759 21.565 2.39269 21.5339 2.34021 21.499C2.3107 21.4793 2.28304 21.4571 2.25427 21.4365C2.20564 21.4016 2.15711 21.3667 2.11072 21.3291C2.08348 21.3069 2.05805 21.2828 2.03162 21.2597C1.98588 21.2198 1.94008 21.1802 1.89685 21.1376C1.87075 21.112 1.84583 21.0852 1.82068 21.0585C1.78442 21.0202 1.74845 20.9816 1.71423 20.9414C1.68348 20.9052 1.65441 20.8677 1.62537 20.83C1.59521 20.791 1.56571 20.7515 1.53748 20.7109C1.51344 20.6764 1.49074 20.641 1.46814 20.6054C1.43965 20.5606 1.41224 20.5151 1.38611 20.4687C1.36461 20.4305 1.34443 20.3917 1.32459 20.3525C1.30237 20.3086 1.28022 20.2647 1.26013 20.2197C1.24192 20.1788 1.22479 20.1375 1.20837 20.0957C1.1879 20.0435 1.16835 19.991 1.15076 19.9375C1.13795 19.8985 1.12684 19.8589 1.1156 19.8193C1.10188 19.7709 1.08884 19.7222 1.07751 19.6728C1.039 19.5048 1.01326 19.3317 1.00427 19.1542L1.00037 19L1.00134 4.99995ZM14.2875 11.25L14.2484 12.0371C14.1832 13.3415 14.2497 14.6448 14.4408 15.9277C15.5477 15.7104 16.6327 15.3449 17.6644 14.8291C18.0346 14.6443 18.485 14.7951 18.6703 15.165C18.8552 15.5354 18.7046 15.9857 18.3344 16.1708C17.1767 16.7496 15.9592 17.1596 14.7172 17.4023C14.9575 18.4574 15.2855 19.4937 15.6976 20.5H20.0004C20.8286 20.4998 21.5004 19.8283 21.5004 19V4.99995C21.5003 4.17174 20.8286 3.50015 20.0004 3.49995L13.6029 3.49995C12.4877 5.93775 11.8635 8.57128 11.765 11.25L14.2875 11.25ZM5.32849 15.165C5.14407 15.5352 5.29447 15.9857 5.66443 16.1709C8.26515 17.4711 11.1663 17.924 13.976 17.5283C14.0592 17.8969 14.1535 18.2631 14.2572 18.6269C14.0078 17.7508 13.8194 16.8589 13.6888 15.958C13.6959 16.0064 13.702 16.0551 13.7094 16.1035C13.7067 16.0859 13.7042 16.0683 13.7015 16.0507C11.2093 16.3885 8.63968 15.9817 6.33435 14.8291C5.96415 14.6444 5.51378 14.7951 5.32849 15.165ZM6.24939 9.00484C6.2496 9.41869 6.58556 9.75454 6.99939 9.75484C7.41336 9.7547 7.74918 9.41879 7.74939 9.00484V7.00483C7.74913 6.59093 7.41333 6.25497 6.99939 6.25484C6.58559 6.25513 6.24965 6.59103 6.24939 7.00484V9.00484Z" fill="black"/>
</svg>
