<svg width="24" height="24" viewBox="0 0 24 24" fill="none" xmlns="http://www.w3.org/2000/svg">
<path d="M16.7504 7.00495C16.7504 6.86688 16.8623 6.75495 17.0004 6.75495C17.1383 6.75515 17.2504 6.867 17.2504 7.00495V9.00495C17.2502 9.1428 17.1382 9.25475 17.0004 9.25495C16.8624 9.25495 16.7505 9.14292 16.7504 9.00495L16.7504 7.00495Z" fill="black"/>
<path d="M6.75037 7.00495C6.75037 6.86688 6.86229 6.75495 7.00037 6.75495C7.13827 6.75515 7.25037 6.867 7.25037 7.00495V9.00495C7.25025 9.1428 7.1382 9.25475 7.00037 9.25495C6.86237 9.25495 6.75048 9.14292 6.75037 9.00495V7.00495Z" fill="black"/>
<path fill-rule="evenodd" clip-rule="evenodd" d="M1.00232 5.00007C1.00247 3.39495 2.26281 2.08409 3.84802 2.00397L4.00232 2.00007L13.2211 2.00007L13.7767 0.888739C13.8384 0.765375 13.9883 0.714989 14.1117 0.776435C14.2347 0.838251 14.2854 0.98812 14.224 1.1114L13.7797 2.00007L20.0004 2.00007C21.6571 2.00026 23.0004 3.34333 23.0004 5.00007V19.0001C23.0002 20.6566 21.6569 21.9999 20.0004 22.0001H15.8168L16.2279 22.8956C16.2851 23.0209 16.23 23.17 16.1049 23.2276C15.9795 23.285 15.8306 23.2297 15.7728 23.1046L15.266 22.0001L4.00037 22.0001C2.39549 21.9999 1.08475 20.7392 1.00427 19.1544L1.00037 19.0001L1.00232 5.00007ZM13.7631 11.7501L13.7504 12.0128C13.6749 13.5222 13.77 15.0297 14.0287 16.5079C15.3556 16.3011 16.6588 15.8915 17.889 15.2764C18.0124 15.2151 18.1623 15.2654 18.224 15.3887C18.2851 15.512 18.2348 15.662 18.1117 15.7237C16.8398 16.3596 15.493 16.7846 14.1215 17.0001C14.428 18.5277 14.91 20.0208 15.5638 21.4473L15.5873 21.5001H20.0004C21.3808 21.4999 22.5002 20.3805 22.5004 19.0001V5.00007C22.5004 3.61948 21.3809 2.50026 20.0004 2.50007L13.5297 2.50007L13.4603 2.63972C12.0445 5.4714 11.2921 8.58655 11.2543 11.7501H13.7631ZM1.50037 19.0001C1.50055 20.3805 2.61988 21.4999 4.00037 21.5001L15.0394 21.5001C14.4008 20.076 13.9266 18.5898 13.6244 17.0694C11.0026 17.3831 8.3109 16.9344 5.88904 15.7237C5.76571 15.662 5.71538 15.5121 5.77673 15.3887C5.83842 15.2654 5.98827 15.215 6.11169 15.2764C8.43533 16.4381 11.0172 16.8711 13.5336 16.5762C13.2863 15.1529 13.1874 13.7031 13.2416 12.2501H10.7504V12.0001C10.7504 8.70432 11.5114 5.45353 12.972 2.50007L4.00232 2.50007C2.6217 2.50007 1.50245 3.61945 1.50232 5.00007L1.50037 19.0001Z" fill="black"/>
</svg>
