<svg width="24" height="24" viewBox="0 0 24 24" fill="none" xmlns="http://www.w3.org/2000/svg">
<path fill-rule="evenodd" clip-rule="evenodd" d="M12.404 3.75C11.7014 3.75 11.1073 4.27012 11.0145 4.96656L10.9196 5.67784C10.3601 9.87405 10.3601 14.126 10.9196 18.3222L11.0145 19.0334C11.1073 19.7299 11.7014 20.25 12.404 20.25H15.3333C19.8897 20.25 23.5833 16.5563 23.5833 12C23.5833 7.44365 19.8897 3.75 15.3333 3.75H12.404ZM12.4065 5.87608L12.4899 5.25H15.3333C19.0612 5.25 22.0833 8.27208 22.0833 12C22.0833 15.7279 19.0612 18.75 15.3333 18.75H12.4899L12.4065 18.1239C11.8645 14.0593 11.8645 9.94071 12.4065 5.87608Z" fill="black"/>
<path d="M0.75 6C0.75 5.58579 1.08579 5.25 1.5 5.25H7C7.41421 5.25 7.75 5.58579 7.75 6C7.75 6.41421 7.41421 6.75 7 6.75H1.5C1.08579 6.75 0.75 6.41421 0.75 6Z" fill="black"/>
<path d="M0.75 10C0.75 9.58579 1.08579 9.25 1.5 9.25H7C7.41421 9.25 7.75 9.58579 7.75 10C7.75 10.4142 7.41421 10.75 7 10.75H1.5C1.08579 10.75 0.75 10.4142 0.75 10Z" fill="black"/>
<path d="M1.5 13.25C1.08579 13.25 0.75 13.5858 0.75 14C0.75 14.4142 1.08579 14.75 1.5 14.75H7C7.41421 14.75 7.75 14.4142 7.75 14C7.75 13.5858 7.41421 13.25 7 13.25H1.5Z" fill="black"/>
<path d="M0.75 18C0.75 17.5858 1.08579 17.25 1.5 17.25H7C7.41421 17.25 7.75 17.5858 7.75 18C7.75 18.4142 7.41421 18.75 7 18.75H1.5C1.08579 18.75 0.75 18.4142 0.75 18Z" fill="black"/>
</svg>
