<svg width="24" height="24" viewBox="0 0 24 24" fill="none" xmlns="http://www.w3.org/2000/svg">
<path d="M11.0123 4.9996C11.0886 4.42736 11.5767 4 12.154 4H15.0833C19.5016 4 23.0833 7.58172 23.0833 12C23.0833 16.4183 19.5016 20 15.0833 20H12.154C11.5767 20 11.0886 19.5726 11.0123 19.0004L10.9174 18.2891C10.3609 14.1148 10.3609 9.88516 10.9174 5.71088L11.0123 4.9996Z" fill="black"/>
<path d="M1 6.75C1 6.47386 1.22386 6.25 1.5 6.25H7.5C7.77614 6.25 8 6.47386 8 6.75C8 7.02614 7.77614 7.25 7.5 7.25H1.5C1.22386 7.25 1 7.02614 1 6.75Z" fill="black"/>
<path d="M1 10.25C1 9.97386 1.22386 9.75 1.5 9.75H7.5C7.77614 9.75 8 9.97386 8 10.25C8 10.5261 7.77614 10.75 7.5 10.75H1.5C1.22386 10.75 1 10.5261 1 10.25Z" fill="black"/>
<path d="M1.5 13.25C1.22386 13.25 1 13.4739 1 13.75C1 14.0261 1.22386 14.25 1.5 14.25H7.5C7.77614 14.25 8 14.0261 8 13.75C8 13.4739 7.77614 13.25 7.5 13.25H1.5Z" fill="black"/>
<path d="M1 17.25C1 16.9739 1.22386 16.75 1.5 16.75H7.5C7.77614 16.75 8 16.9739 8 17.25C8 17.5261 7.77614 17.75 7.5 17.75H1.5C1.22386 17.75 1 17.5261 1 17.25Z" fill="black"/>
</svg>
