<svg width="24" height="24" viewBox="0 0 24 24" fill="none" xmlns="http://www.w3.org/2000/svg">
<path fill-rule="evenodd" clip-rule="evenodd" d="M2.34247 23.4971L8.75817 20.7475H15.2516C15.4714 20.7475 15.6802 20.7002 15.8683 20.6153C16.0259 20.6026 16.1856 20.5643 16.3425 20.4971L22.8425 17.7113C23.394 17.475 23.7516 16.9327 23.7516 16.3326V1.87662C23.7516 0.79974 22.6505 0.0736979 21.6607 0.497898L15.245 3.24748L8.75159 3.24748C8.53178 3.24748 8.32302 3.29476 8.13492 3.3797C7.97727 3.39233 7.81759 3.43067 7.66071 3.4979L1.16071 6.28362C0.609181 6.51999 0.251587 7.06229 0.251587 7.66233L0.251588 22.1183C0.251588 23.1952 1.35267 23.9213 2.34247 23.4971ZM7.25159 6.39316L2.75159 8.32173V20.6018L7.25159 18.6732L7.25159 6.39316ZM16.7516 5.32173V17.6018L21.2516 15.6732V3.39315L16.7516 5.32173ZM14.2516 5.74748L9.75159 5.74748L9.75159 18.2475H14.2516L14.2516 5.74748Z" fill="black"/>
</svg>
