<svg width="24" height="24" viewBox="0 0 24 24" fill="none" xmlns="http://www.w3.org/2000/svg">
<path fill-rule="evenodd" clip-rule="evenodd" d="M8.64575 20.2522L8.66413 20.2441C8.69303 20.2466 8.72228 20.2479 8.75183 20.2479H15.2518C15.4299 20.2479 15.5971 20.2014 15.7419 20.1198C15.8751 20.1211 16.0119 20.0953 16.1458 20.0379L22.6458 17.2522C23.0134 17.0946 23.2518 16.7331 23.2518 16.3331V1.87705C23.2518 1.15914 22.5178 0.675109 21.8579 0.957908L15.3579 3.74362C15.3518 3.74626 15.3456 3.74896 15.3396 3.75171C15.3106 3.7492 15.2814 3.74792 15.2518 3.74792L8.75183 3.74792C8.57378 3.74792 8.4066 3.79445 8.26178 3.87603C8.1286 3.87475 7.99173 3.90056 7.85791 3.95791L1.35791 6.74363C0.990227 6.90121 0.751831 7.26275 0.751831 7.66277L0.751832 22.1188C0.751832 22.8367 1.48588 23.3207 2.14575 23.0379L8.64575 20.2522ZM7.75183 5.63533L2.25183 7.99247V21.3605L7.75183 19.0034L7.75183 5.63533ZM16.2518 4.99247L16.2518 18.3605L21.7518 16.0034V2.63532L16.2518 4.99247ZM14.7518 5.24792L9.25183 5.24792V18.7479H14.7518V5.24792Z" fill="black"/>
</svg>
