<svg width="24" height="24" viewBox="0 0 24 24" fill="none" xmlns="http://www.w3.org/2000/svg">
<path fill-rule="evenodd" clip-rule="evenodd" d="M8.64587 20.2519L8.66425 20.2438C8.69315 20.2463 8.7224 20.2476 8.75195 20.2476H15.252C15.43 20.2476 15.5972 20.201 15.742 20.1194C15.8752 20.1207 16.0121 20.0949 16.1459 20.0376L22.6459 17.2518C23.0136 17.0943 23.252 16.7327 23.252 16.3327V1.87669C23.252 1.15877 22.5179 0.674743 21.858 0.957542L15.358 3.74326C15.3519 3.7459 15.3458 3.74859 15.3397 3.75135C15.3108 3.74883 15.2815 3.74755 15.252 3.74755L8.75195 3.74755C8.5739 3.74755 8.40672 3.79409 8.2619 3.87566C8.12872 3.87438 7.99185 3.9002 7.85803 3.95755L1.35803 6.74326C0.990349 6.90084 0.751953 7.26238 0.751953 7.66241L0.751954 22.1184C0.751954 22.8363 1.48601 23.3204 2.14587 23.0376L8.64587 20.2519ZM7.75195 5.63496L2.25195 7.9921V21.3602L7.75195 19.003L7.75195 5.63496ZM16.252 4.9921L16.252 18.3601L21.752 16.003V2.63496L16.252 4.9921ZM14.752 5.24755L9.25195 5.24755V18.7476H14.752V5.24755Z" fill="black"/>
</svg>
