<svg width="24" height="24" viewBox="0 0 24 24" fill="none" xmlns="http://www.w3.org/2000/svg">
<path d="M8.25 4.12586C8.15247 4.12591 8.05243 4.14536 7.95456 4.18731L1.45456 6.97302C1.1788 7.09121 1 7.36236 1 7.66238L1 22.1184C1 22.6568 1.55054 23.0199 2.04544 22.8078L8.25 20.1487L8.25 4.12586Z" fill="black"/>
<path d="M8.75 3.99753L8.75 19.9975H15.25V3.99753L8.75 3.99753Z" fill="black"/>
<path d="M15.75 19.8692V3.8464L21.9546 1.1873C22.4495 0.975204 23 1.33823 23 1.87666V16.3327C23 16.6327 22.8212 16.9039 22.5454 17.022L16.0454 19.8078C15.9476 19.8497 15.8475 19.8691 15.75 19.8692Z" fill="black"/>
</svg>
