<svg width="24" height="24" viewBox="0 0 24 24" fill="none" xmlns="http://www.w3.org/2000/svg">
<path fill-rule="evenodd" clip-rule="evenodd" d="M8.05499 4.41707C8.16953 4.36798 8.28854 4.3651 8.39511 4.39728C8.48584 4.30484 8.6122 4.2475 8.75195 4.2475L15.252 4.2475C15.3146 4.2475 15.3745 4.25901 15.4297 4.28002C15.4668 4.24873 15.5089 4.22254 15.555 4.20278L22.055 1.41707C22.3849 1.27566 22.752 1.51768 22.752 1.87664V16.3327C22.752 16.5327 22.6328 16.7134 22.4489 16.7922L15.9489 19.5779C15.8344 19.627 15.7154 19.6299 15.6088 19.5977C15.5181 19.6902 15.3917 19.7475 15.252 19.7475H8.75195C8.68935 19.7475 8.62944 19.736 8.57421 19.715C8.53708 19.7463 8.49503 19.7725 8.44891 19.7922L1.94891 22.5779C1.61898 22.7193 1.25195 22.4773 1.25195 22.1184L1.25195 7.66236C1.25195 7.46234 1.37115 7.28157 1.55499 7.20278L8.05499 4.41707ZM15.252 19.1185C15.252 19.1185 15.252 19.1184 15.252 19.1185V4.7475L8.75195 4.7475V19.2475H15.252V19.1185ZM15.752 19.1184L22.252 16.3327V1.87664L15.752 4.66235V4.74743C15.752 4.74745 15.752 4.7474 15.752 4.74743V19.1184ZM1.75195 7.66236L8.25195 4.87664L8.25195 19.3327L1.75195 22.1184V7.66236Z" fill="black"/>
</svg>
