<svg width="24" height="24" viewBox="0 0 24 24" fill="none" xmlns="http://www.w3.org/2000/svg">
<path d="M8.25 4.12598C8.15247 4.12603 8.05243 4.14549 7.95456 4.18743L1.45456 6.97315C1.1788 7.09133 1 7.36248 1 7.6625L1 22.1185C1 22.657 1.55054 23.02 2.04544 22.8079L8.25 20.1488L8.25 4.12598Z" fill="black"/>
<path d="M8.75 3.99765L8.75 19.9977H15.25V3.99765L8.75 3.99765Z" fill="black"/>
<path d="M15.75 19.8693V3.84652L21.9546 1.18742C22.4495 0.975326 23 1.33835 23 1.87678V16.3328C23 16.6328 22.8212 16.904 22.5454 17.0222L16.0454 19.8079C15.9476 19.8498 15.8475 19.8693 15.75 19.8693Z" fill="black"/>
</svg>
