<svg width="24" height="24" viewBox="0 0 24 24" fill="none" xmlns="http://www.w3.org/2000/svg">
<path fill-rule="evenodd" clip-rule="evenodd" d="M2.24435 23.2673L8.70892 20.4967C8.7232 20.4972 8.73755 20.4975 8.75195 20.4975H15.252C15.4508 20.4975 15.6387 20.451 15.8056 20.3685C15.9511 20.362 16.0991 20.3295 16.2444 20.2673L22.7444 17.4815C23.204 17.2846 23.502 16.8326 23.502 16.3326V1.87659C23.502 0.979195 22.5844 0.374159 21.7596 0.727659L15.295 3.49818C15.2807 3.4977 15.2664 3.49746 15.252 3.49746L8.75195 3.49746C8.55314 3.49746 8.36517 3.54387 8.19829 3.62645C8.05284 3.63291 7.90476 3.66543 7.75955 3.72766L1.25955 6.51338C0.799948 6.71035 0.501953 7.16228 0.501953 7.66231L0.501954 22.1183C0.501954 23.0157 1.41952 23.6208 2.24435 23.2673ZM7.50195 6.014L2.50195 8.15686L2.50195 20.9809L7.50195 18.8381L7.50195 6.014ZM16.502 5.15685V17.9809L21.502 15.8381V3.01399L16.502 5.15685ZM14.502 5.49746L9.50195 5.49746L9.50195 18.4975H14.502L14.502 5.49746Z" fill="black"/>
</svg>
