<svg width="24" height="24" viewBox="0 0 24 24" fill="none" xmlns="http://www.w3.org/2000/svg">
<path d="M20 5.01681V11.0342C20 11.3371 20 11.4886 19.9401 11.5587C19.8881 11.6196 19.8102 11.6519 19.7304 11.6456C19.6384 11.6384 19.5313 11.5313 19.3172 11.3171L17.7828 9.78276C17.6838 9.68376 17.6343 9.63426 17.5773 9.61571C17.527 9.5994 17.473 9.5994 17.4227 9.61571C17.3657 9.63426 17.3162 9.68376 17.2172 9.78276L15.6828 11.3171C15.4687 11.5313 15.3616 11.6384 15.2696 11.6456C15.1898 11.6519 15.1119 11.6196 15.0599 11.5587C15 11.4886 15 11.3371 15 11.0342V4.92985C14.0681 5.07526 13.147 5.31157 12.2499 5.63877V20.1511C12.2943 20.1479 12.3394 20.1382 12.3839 20.1212C15.5181 18.9272 18.9819 18.9272 22.1161 20.1212L22.411 20.2335C22.4878 20.2628 22.5742 20.2524 22.6419 20.2058C22.7096 20.1591 22.75 20.0822 22.75 19.9999V5.99993C22.75 5.89619 22.6859 5.80323 22.589 5.7663L22.4447 5.71133C21.6466 5.4073 20.8285 5.1758 20 5.01681Z" fill="black"/>
<path d="M11.6161 20.1212L11.7499 20.1722V5.63872C8.45577 4.4372 4.83637 4.4614 1.55532 5.71133C1.37148 5.78136 1.25 5.95764 1.25 6.15436V19.6843C1.25 20.0118 1.57792 20.2378 1.88391 20.1212C5.01811 18.9272 8.48189 18.9272 11.6161 20.1212Z" fill="black"/>
</svg>
