<svg width="24" height="24" viewBox="0 0 24 24" fill="none" xmlns="http://www.w3.org/2000/svg">
<path fill-rule="evenodd" clip-rule="evenodd" d="M15.782 17.3799C15.9565 17.2929 16.166 17.3155 16.3181 17.4375C16.4701 17.5595 16.538 17.7591 16.491 17.9482C15.6852 21.171 11.7377 22.3773 9.26832 20.1553L8.84449 19.7744C8.69089 19.636 8.63879 19.4167 8.71266 19.2236C8.78694 19.0306 8.9726 18.9024 9.17945 18.9023H9.33277C11.5714 18.9023 13.7797 18.381 15.782 17.3799ZM15.0232 18.8135C13.5926 19.3815 12.0844 19.731 10.5496 19.8525C12.0903 20.7255 14.0478 20.2362 15.0232 18.8135Z" fill="black"/>
<path d="M7.8318 13.6709C7.85411 13.9403 8.07813 14.1533 8.35328 14.1533C8.55145 14.1532 8.72201 14.0411 8.81129 13.8789C9.03734 14.0715 9.18228 14.3575 9.18238 14.6777C9.18185 15.2573 8.71126 15.7285 8.1316 15.7285C7.55215 15.7283 7.08232 15.2571 7.0818 14.6777C7.08195 14.2023 7.39828 13.8001 7.8318 13.6709Z" fill="black"/>
<path d="M15.1814 11.5283C15.1824 11.8174 15.4175 12.0517 15.7068 12.0518C15.8358 12.0517 15.9524 12.003 16.0437 11.9258C16.1857 12.1048 16.2722 12.3309 16.2722 12.5771C16.2719 13.1568 15.8012 13.6279 15.2214 13.6279C14.6418 13.6277 14.172 13.1567 14.1716 12.5771C14.1717 12.0108 14.6202 11.5496 15.1814 11.5283Z" fill="black"/>
<path fill-rule="evenodd" clip-rule="evenodd" d="M12.2361 1.0127C14.0029 1.23363 15.5526 2.18102 16.5603 3.56445C18.0343 3.12859 19.6192 3.21699 21.0408 3.82422L18.365 5.41797C19.9369 5.70183 21.3475 6.5682 22.3093 7.85059H17.9334L18.0066 8.29199C19.7352 8.81241 20.9947 10.4164 20.9949 12.3145L20.989 12.5312C20.913 14.0256 20.055 15.312 18.8171 15.9941C18.7225 17.1715 18.3815 18.3205 17.8093 19.3633L17.5545 19.792C17.4489 19.9607 17.3171 20.166 17.1414 20.4395L16.6629 21.1729C16.5353 21.3609 16.4305 21.5039 16.3211 21.6338L16.074 21.9072C14.8821 23.1349 13.1637 23.7052 11.4744 23.4336L11.113 23.3623C10.9475 23.3236 10.7748 23.2703 10.5545 23.1934L9.70875 22.8818C9.41954 22.7734 9.20196 22.6919 9.0232 22.6221L8.56812 22.4316C7.01408 21.7189 5.71409 20.548 4.84254 19.0771C4.73883 18.9021 4.64205 18.7179 4.50367 18.4443C4.49411 18.438 4.48486 18.4312 4.47535 18.4248C4.40411 18.5381 4.31525 18.6309 4.20387 18.6953C3.57083 19.0605 2.5136 18.432 1.76344 17.2773L1.61793 17.0391C0.865023 15.7348 0.801585 14.3619 1.47633 13.9717C1.69879 13.8434 1.97382 13.8387 2.2693 13.9355L1.45582 11.9014C1.45234 11.8927 1.44949 11.8837 1.44605 11.875C1.41846 11.8049 1.39244 11.7343 1.36793 11.6631C1.35632 11.6296 1.34468 11.5962 1.33375 11.5625C1.31814 11.514 1.304 11.465 1.2898 11.416C1.28132 11.387 1.27139 11.3583 1.26344 11.3291L1.21461 11.1338C1.05284 10.4328 0.984077 9.72805 1.00172 9.03418C1.00248 9.0042 1.00454 8.97427 1.00562 8.94434C1.01289 8.74371 1.02707 8.54407 1.04859 8.3457C1.05295 8.30554 1.05929 8.26564 1.06422 8.22559C1.0731 8.15349 1.0818 8.08148 1.09254 8.00977C1.09844 7.97031 1.10463 7.93093 1.11109 7.8916C1.12339 7.8168 1.13684 7.74229 1.15113 7.66797C1.15796 7.63247 1.16436 7.59691 1.17164 7.56152C1.18697 7.48704 1.20314 7.41281 1.22047 7.33887C1.2298 7.29903 1.23986 7.25939 1.24976 7.21973C1.27003 7.13862 1.29157 7.05791 1.31422 6.97754C1.32193 6.95016 1.32967 6.9228 1.33766 6.89551C1.35798 6.8261 1.38002 6.75728 1.40211 6.68848C1.41728 6.64122 1.43201 6.59384 1.44801 6.54688C1.46797 6.48828 1.48926 6.43019 1.51051 6.37207C1.52695 6.32708 1.54311 6.282 1.56031 6.2373C1.58363 6.17676 1.60788 6.11661 1.63258 6.05664C1.65374 6.00525 1.67584 5.95428 1.69801 5.90332C1.71686 5.86001 1.73507 5.81642 1.75465 5.77344C1.78283 5.71154 1.81189 5.65006 1.84156 5.58887C1.86424 5.5421 1.88735 5.49556 1.9109 5.44922C1.93549 5.4008 1.96056 5.35263 1.98609 5.30469C2.01651 5.2476 2.04811 5.19116 2.07984 5.13477C2.10194 5.09549 2.1245 5.0565 2.14723 5.01758C2.1836 4.9553 2.22056 4.89338 2.25855 4.83203C2.2808 4.79609 2.30314 4.76022 2.32594 4.72461C2.36001 4.6714 2.39514 4.61887 2.43043 4.56641C2.45869 4.52438 2.48636 4.48196 2.51539 4.44043C2.5528 4.38692 2.59096 4.33391 2.62965 4.28125C2.65773 4.24301 2.68586 4.20478 2.71461 4.16699C2.76061 4.10655 2.80852 4.04753 2.85621 3.98828C2.87103 3.96987 2.88517 3.95091 2.90016 3.93262L2.96168 3.85742C2.99651 3.81589 3.03245 3.77527 3.06812 3.73438C3.0942 3.70448 3.11973 3.67408 3.14625 3.64453C3.20051 3.58408 3.25615 3.52478 3.31226 3.46582C3.33337 3.44364 3.35438 3.42137 3.37574 3.39941C3.43362 3.33992 3.4937 3.28249 3.55348 3.22461C3.58124 3.19772 3.60831 3.17009 3.63648 3.14355C3.6628 3.11877 3.68989 3.09479 3.71656 3.07031C3.85694 2.94149 4.00119 2.81601 4.15113 2.69629C4.2122 2.64754 4.27504 2.60088 4.33766 2.55371C4.49845 2.43256 4.66392 2.3163 4.83473 2.20605C4.99099 2.1052 5.15082 2.00818 5.31519 1.91699L5.63551 1.74805L8.1316 0.5L12.2361 1.0127ZM12.6082 11.9746C11.878 11.7699 11.0915 12.0106 10.6023 12.5977L10.4334 12.7988C10.8057 13.4258 11.0202 14.1584 11.0203 14.9404L11.0144 15.1572C10.9013 17.3761 9.06612 19.1416 6.8191 19.1416L6.60328 19.1357C6.407 19.1258 6.21439 19.1014 6.02613 19.0654C6.77685 20.1279 7.79657 20.9773 8.98512 21.5225C9.21696 21.6288 9.46737 21.7233 10.0593 21.9453C10.8036 22.2244 11.0885 22.3298 11.3406 22.3887C12.8968 22.752 14.5257 22.2112 15.5564 20.9893C15.7239 20.7907 15.8844 20.5443 16.2996 19.8984C16.6596 19.3384 16.8128 19.0997 16.9324 18.8818C17.3572 18.1075 17.6367 17.2666 17.7644 16.4004C17.4527 16.4742 17.1279 16.5156 16.7937 16.5156L16.5779 16.5098C15.8927 16.475 15.2512 16.2748 14.6912 15.9502C14.7003 15.9717 14.7103 15.9934 14.7166 16.0166C14.8438 16.4917 14.6781 16.9491 14.3992 17.29C14.1197 17.6316 13.7035 17.892 13.2244 18.0205C12.7451 18.1489 12.2535 18.1317 11.8406 17.9756C11.4286 17.8197 11.0568 17.5063 10.9295 17.0312C10.858 16.7645 11.0162 16.4904 11.283 16.4189C11.5496 16.3477 11.8238 16.5058 11.8953 16.7725C11.9181 16.8575 11.9974 16.9666 12.1941 17.041C12.3901 17.1151 12.6658 17.135 12.9656 17.0547C13.265 16.9744 13.4931 16.8192 13.6257 16.6572C13.7586 16.4946 13.7734 16.3604 13.7507 16.2754C13.6793 16.0088 13.8377 15.7347 14.1043 15.6631C14.1493 15.651 14.1945 15.647 14.239 15.6475C13.239 14.8797 12.5937 13.6726 12.5935 12.3145C12.5935 12.2002 12.5992 12.0866 12.6082 11.9746ZM6.8191 11.7402C5.05182 11.7405 3.61912 13.1731 3.61891 14.9404C3.61922 15.9899 4.12734 16.9182 4.90797 17.502C5.00097 17.5451 5.0852 17.6045 5.1609 17.6738C5.64489 17.9683 6.21127 18.1415 6.8191 18.1416C8.58642 18.1416 10.0197 16.7076 10.0203 14.9404C10.0202 13.9562 9.5749 13.0763 8.87574 12.4893C8.81749 12.4919 8.75778 12.4868 8.69898 12.4678C8.62967 12.4453 8.51229 12.4345 8.27027 12.4795C8.02542 12.5251 7.7136 12.6148 7.2732 12.7451C6.86278 12.8666 6.48123 13.0133 6.17066 13.1621C5.8498 13.3158 5.6416 13.4546 5.54566 13.5498C5.34991 13.7443 5.0333 13.7434 4.83863 13.5479C4.64423 13.3521 4.64513 13.0365 4.84058 12.8418C5.05631 12.6273 5.38527 12.4292 5.73902 12.2598C6.10351 12.0852 6.53563 11.9206 6.99 11.7861C7.02861 11.7747 7.06663 11.7631 7.10426 11.752C7.01035 11.7437 6.91516 11.7402 6.8191 11.7402ZM2.62086 14.8672C2.4301 14.9384 2.21972 14.9537 2.01637 14.9004C2.01007 14.9519 2.00617 15.0221 2.01051 15.1162C2.02736 15.481 2.16995 15.9964 2.48316 16.5391C2.79648 17.0817 3.17173 17.4631 3.47926 17.6602C3.58357 17.727 3.65998 17.7596 3.7107 17.7773C3.71272 17.7749 3.71452 17.772 3.71656 17.7695C3.03547 17.0229 2.61915 16.0305 2.61891 14.9404C2.61891 14.9161 2.62039 14.8914 2.62086 14.8672ZM16.8904 9.7334C16.6207 9.46692 16.1786 9.41467 15.3132 9.64648C15.0932 9.70547 14.8942 9.78699 14.7175 9.88086C14.0304 10.4678 13.5936 11.3399 13.5935 12.3145C13.5938 14.0817 15.0265 15.5154 16.7937 15.5156C17.1615 15.5156 17.5146 15.4521 17.8435 15.3379C17.8438 15.1971 17.8415 15.0561 17.8337 14.915C17.8269 14.791 17.8158 14.6645 17.7966 14.4932L17.7127 13.7998L17.2214 9.875C17.1014 9.87009 16.9826 9.82437 16.8904 9.7334ZM18.7048 13.6758C18.7729 14.2204 18.8078 14.5166 18.8259 14.7861C19.5393 14.1991 19.9947 13.3101 19.9949 12.3145C19.9947 11.041 19.2506 9.94105 18.1736 9.42578L18.7048 13.6758ZM16.9334 7.9375C15.1078 6.72274 12.8231 6.33343 10.6609 6.92285L8.57301 7.49219C5.93049 8.21297 3.81699 10.1284 2.81617 12.6133L3.02613 13.1377C3.70094 11.7203 5.14474 10.7404 6.8191 10.7402C7.9882 10.7402 9.04571 11.2175 9.80738 11.9883L9.83375 11.957C10.5601 11.0855 11.7189 10.7166 12.8064 10.9922C12.8384 10.8957 12.8742 10.8003 12.9129 10.707C12.889 10.6164 12.8908 10.5182 12.9226 10.4229C13.1143 9.85117 13.5794 9.3739 14.1599 9.04492C14.8804 8.46351 15.7958 8.11437 16.7937 8.11426C16.8503 8.11426 16.9066 8.11497 16.9627 8.11719L16.9334 7.9375Z" fill="black"/>
<path d="M21.2683 15.7666C21.5366 15.7024 21.8063 15.8675 21.8709 16.1357L21.8718 16.1367V16.1396C21.8722 16.1412 21.8724 16.1435 21.8728 16.1455C21.8738 16.1498 21.8753 16.1555 21.8767 16.1621C21.8797 16.176 21.8839 16.1951 21.8884 16.2188C21.8976 16.2663 21.9092 16.3334 21.9207 16.417C21.9436 16.5844 21.9654 16.8212 21.9666 17.1064C21.9689 17.6757 21.8865 18.4524 21.5398 19.2715C21.1916 20.094 20.715 20.6359 20.3162 20.9736C20.118 21.1414 19.9394 21.2581 19.8064 21.335C19.7401 21.3732 19.6843 21.4021 19.6433 21.4219C19.6228 21.4318 19.6046 21.4386 19.5916 21.4443C19.5852 21.4472 19.5804 21.4512 19.5759 21.4531C19.574 21.4539 19.5717 21.4536 19.5701 21.4541L19.5662 21.4561C19.3101 21.5594 19.0172 21.4358 18.9138 21.1797C18.8113 20.9248 18.9344 20.6346 19.1882 20.5303L19.1892 20.5312C19.1924 20.5298 19.199 20.5262 19.2087 20.5215C19.2289 20.5118 19.2619 20.4939 19.3054 20.4688C19.3931 20.4181 19.5227 20.3353 19.6707 20.21C19.9654 19.9603 20.3393 19.5423 20.6189 18.8818C20.8998 18.2181 20.9694 17.5823 20.9675 17.1104C20.9666 16.8753 20.9473 16.683 20.9295 16.5527C20.9206 16.4881 20.913 16.4387 20.907 16.4072C20.904 16.3917 20.9006 16.3805 20.8992 16.374C20.8986 16.3714 20.8985 16.3692 20.8982 16.3682C20.8344 16.1 21.0002 15.8311 21.2683 15.7666Z" fill="black"/>
</svg>
