<svg width="24" height="24" viewBox="0 0 24 24" fill="none" xmlns="http://www.w3.org/2000/svg">
<path fill-rule="evenodd" clip-rule="evenodd" d="M15.8376 17.4922C15.9684 17.4269 16.1258 17.4429 16.24 17.5342C16.3541 17.6257 16.4042 17.776 16.3689 17.918C15.586 21.0496 11.7507 22.2209 9.3513 20.0615L8.92845 19.6807C8.81337 19.5768 8.77329 19.4124 8.82884 19.2676C8.88462 19.123 9.02438 19.0274 9.17942 19.0273H9.33274C11.5907 19.0273 13.818 18.5019 15.8376 17.4922ZM15.3259 18.5527C13.6889 19.25 11.9429 19.657 10.1658 19.7539C11.9113 21.0101 14.3478 20.3902 15.3259 18.5527Z" fill="black"/>
<path d="M14.1365 15.7832C14.3364 15.7298 14.5419 15.8489 14.5954 16.0488C14.7097 16.4752 14.5632 16.8922 14.3025 17.2109C14.0413 17.53 13.6488 17.778 13.1921 17.9004C12.7352 18.0228 12.2704 18.0053 11.8845 17.8594C11.4994 17.7137 11.1638 17.4253 11.0495 16.999C10.9959 16.799 11.1151 16.5936 11.3152 16.54C11.5152 16.4865 11.7205 16.6047 11.7742 16.8047C11.81 16.9385 11.9263 17.0736 12.1501 17.1582C12.3732 17.2425 12.6757 17.2621 12.9978 17.1758C13.3198 17.0894 13.5714 16.9208 13.7224 16.7363C13.8737 16.5513 13.9066 16.3769 13.8708 16.2432C13.8173 16.0432 13.9366 15.837 14.1365 15.7832Z" fill="black"/>
<path d="M7.83177 13.6699C7.85385 13.9395 8.07796 14.1523 8.35325 14.1523C8.55159 14.1522 8.72204 14.0403 8.81126 13.8779C9.03732 14.0704 9.18212 14.3567 9.18235 14.6768C9.18209 15.2565 8.71139 15.7275 8.13157 15.7275C7.55198 15.7273 7.08203 15.2564 7.08177 14.6768C7.08211 14.2014 7.39827 13.799 7.83177 13.6699Z" fill="black"/>
<path d="M15.1814 11.5273C15.1821 11.8166 15.4173 12.0507 15.7068 12.0508C15.8359 12.0507 15.9523 12.0022 16.0437 11.9248C16.1857 12.1038 16.2721 12.3299 16.2722 12.5762C16.2721 13.1561 15.8013 13.6269 15.2214 13.627C14.6417 13.6267 14.1717 13.156 14.1716 12.5762C14.1719 12.01 14.6204 11.5486 15.1814 11.5273Z" fill="black"/>
<path fill-rule="evenodd" clip-rule="evenodd" d="M12.237 1.0127C13.6612 1.19088 14.9437 1.84158 15.9158 2.81152C16.0215 2.71754 16.1531 2.65353 16.2976 2.63086C17.6541 2.41865 19.054 2.58682 20.3347 3.13379C20.5941 3.24473 20.769 3.49285 20.7878 3.77441C20.8063 4.05581 20.6659 4.3245 20.4236 4.46875L19.1814 5.20703C20.2501 5.69425 21.1911 6.44426 21.9089 7.40137C22.0792 7.62858 22.1071 7.93254 21.9802 8.18652C21.8531 8.44047 21.5933 8.60155 21.3093 8.60156H18.7575C20.0877 9.30642 20.9945 10.7035 20.9949 12.3135L20.989 12.5303C20.9131 14.0248 20.0552 15.3119 18.8171 15.9941C18.7225 17.1715 18.3815 18.3204 17.8093 19.3633L17.5544 19.792C17.4492 19.9607 17.318 20.1662 17.1423 20.4395L16.6638 21.1729C16.5363 21.3609 16.4315 21.504 16.322 21.6338L16.0749 21.9072C14.8832 23.1348 13.1645 23.705 11.4753 23.4336L11.114 23.3623C10.9485 23.3237 10.7758 23.2702 10.5554 23.1934L9.70872 22.8818C9.41948 22.7734 9.2019 22.6919 9.02317 22.6221L8.5681 22.4316C7.01407 21.7189 5.71407 20.548 4.84251 19.0771C4.73883 18.9021 4.64198 18.7178 4.50364 18.4443C4.49408 18.438 4.48483 18.4312 4.47532 18.4248C4.40423 18.538 4.31597 18.631 4.20481 18.6953C3.57183 19.0608 2.51376 18.432 1.76341 17.2773L1.6179 17.0391C0.864891 15.7346 0.802062 14.3615 1.47728 13.9717C1.69942 13.8436 1.97334 13.8381 2.26829 13.9346L1.45579 11.9014C1.38104 11.7145 1.31706 11.5233 1.26438 11.3291L1.21556 11.1338C0.371917 7.47802 2.05966 3.72292 5.31517 1.91699L5.63548 1.74805L8.13255 0.5L12.237 1.0127ZM12.6189 11.8467C11.8483 11.6404 11.0222 11.8981 10.5066 12.5166L10.364 12.6865C10.7787 13.3375 11.0201 14.1105 11.0202 14.9395L11.0144 15.1562C10.9015 17.3754 9.06625 19.1406 6.81907 19.1406L6.60325 19.1348C6.27885 19.1183 5.96469 19.0635 5.6638 18.9775C6.45197 20.1845 7.56647 21.1473 8.8806 21.75C9.12248 21.8609 9.38267 21.9589 9.97142 22.1797C10.7078 22.4558 11.012 22.5683 11.2839 22.6318C12.9318 23.0165 14.6576 22.4442 15.7488 21.1504C15.9291 20.9365 16.1001 20.674 16.5115 20.0342C16.8681 19.4794 17.0262 19.2305 17.1511 19.0029C17.6079 18.1705 17.9018 17.2634 18.0261 16.3301C17.6363 16.4496 17.2226 16.5146 16.7937 16.5146L16.5779 16.5088C14.3585 16.3962 12.5935 14.5608 12.5935 12.3135C12.5935 12.1559 12.6019 11.9998 12.6189 11.8467ZM6.81907 11.4893C4.91388 11.4895 3.36932 13.0343 3.36888 14.9395C3.36903 16.0787 3.92182 17.0892 4.77317 17.7178C4.86543 17.7561 4.94902 17.8124 5.01927 17.8838C5.54331 18.2051 6.15942 18.3905 6.81907 18.3906C8.72462 18.3906 10.27 16.8449 10.2702 14.9395C10.27 13.8103 9.72721 12.808 8.88841 12.1787H8.88646C8.78817 12.1469 8.64649 12.14 8.39622 12.1865C8.14374 12.2335 7.82565 12.3254 7.38743 12.4551C6.9717 12.5781 6.58358 12.726 6.26634 12.8779C5.94086 13.0338 5.71701 13.1809 5.60618 13.291C5.4595 13.4367 5.22192 13.4362 5.07591 13.29C4.93002 13.1432 4.93108 12.9048 5.07786 12.7588C5.27863 12.5594 5.5926 12.3696 5.94212 12.2021C6.29987 12.0308 6.72567 11.8682 7.17454 11.7354C7.34803 11.684 7.51029 11.6362 7.66185 11.5938C7.39212 11.5261 7.10977 11.4893 6.81907 11.4893ZM2.63548 14.5879C2.45537 14.6891 2.23857 14.7146 2.03587 14.6484C1.95513 14.622 1.90131 14.6172 1.87376 14.6182C1.86244 14.6186 1.85554 14.6202 1.85228 14.6211C1.87929 14.6054 1.73979 14.6758 1.76048 15.1279C1.77939 15.5403 1.93826 16.094 2.26731 16.6641C2.59639 17.234 2.99663 17.6484 3.34446 17.8711C3.64983 18.0665 3.79524 18.0519 3.82688 18.0459C3.83043 18.0416 3.83612 18.0337 3.84349 18.0215C3.85826 17.997 3.87413 17.9735 3.89134 17.9512C3.10672 17.1879 2.61901 16.1204 2.61888 14.9395C2.6189 14.8211 2.62538 14.7038 2.63548 14.5879ZM16.9783 9.64453C16.6554 9.32566 16.1484 9.29335 15.282 9.52539C14.731 9.67302 14.2909 9.9534 14.0173 10.2656C13.9278 10.3868 13.8455 10.5139 13.7722 10.6465C13.7651 10.6643 13.7586 10.6824 13.7527 10.7002C13.7367 10.7478 13.7112 10.7894 13.6804 10.8252C13.4645 11.2758 13.3436 11.7805 13.3435 12.3135C13.3435 14.219 14.8882 15.7644 16.7937 15.7646C17.2528 15.7646 17.6908 15.6745 18.0915 15.5117C18.0966 15.3087 18.0949 15.1051 18.0837 14.9014C18.0694 14.6418 18.0371 14.372 17.9617 13.7686L17.4509 9.68848C17.3059 9.78622 17.1075 9.77189 16.9783 9.64453ZM18.7058 13.6758C18.7802 14.2708 18.8167 14.5691 18.8327 14.8604C18.837 14.9372 18.8384 15.014 18.8406 15.0908C19.6919 14.4623 20.2449 13.4526 20.2449 12.3135C20.2445 10.8842 19.3753 9.65731 18.1365 9.13379L18.7058 13.6758ZM16.5281 8.12402C14.8258 7.06845 12.7383 6.74524 10.7585 7.28516L8.67161 7.85449C5.99669 8.58407 3.88894 10.5928 3.00853 13.1729C3.67593 11.7363 5.13073 10.7395 6.81907 10.7393C8.0335 10.7393 9.12719 11.2552 9.89427 12.0791L9.9304 12.0361C10.624 11.2042 11.7297 10.8496 12.7683 11.1094C12.848 10.8426 12.9562 10.5883 13.0847 10.3467C13.1762 10.1256 13.3129 9.92001 13.4831 9.7334C14.2009 8.81408 15.2909 8.20141 16.5281 8.12402ZM5.97044 2.41895C2.81653 3.99607 1.15321 7.52867 1.94603 10.9648C1.9979 11.1895 2.06687 11.41 2.15208 11.623L2.48021 12.4443C3.52897 9.86592 5.72761 7.88002 8.47435 7.13086L10.5613 6.56152C12.8274 5.94351 15.2206 6.352 17.1345 7.62402L16.8474 5.90625C16.8272 5.82769 16.8047 5.74661 16.779 5.66211C16.7784 5.65994 16.7777 5.65746 16.7771 5.65527C16.7697 5.63112 16.7623 5.60701 16.7546 5.58301C16.6538 5.2682 16.5262 4.96606 16.3747 4.67969C16.3283 4.59185 16.2791 4.50577 16.2283 4.4209C16.1059 4.21684 15.9713 4.02144 15.8249 3.83594C15.8225 3.83289 15.8204 3.82925 15.8181 3.82617C14.9296 2.7047 13.6227 1.94188 12.1433 1.75684L8.26438 1.27148L5.97044 2.41895ZM17.2302 8.8916C17.2748 8.91989 17.3183 8.9508 17.3611 8.98438L17.3484 8.9082C17.3092 8.90188 17.2698 8.8966 17.2302 8.8916ZM17.4968 5.44434C17.5276 5.54557 17.5579 5.64752 17.5837 5.75098L17.9333 7.85156H21.3093C20.3745 6.60516 19.0155 5.75199 17.4968 5.44434ZM20.0398 3.82422C18.8899 3.33312 17.6332 3.18069 16.4148 3.37109C16.8751 3.95459 17.2345 4.62344 17.4685 5.35352L20.0398 3.82422Z" fill="black"/>
<path d="M21.2976 15.8877C21.4988 15.8397 21.7014 15.9639 21.7497 16.165L21.7507 16.168C21.7509 16.1692 21.7504 16.1712 21.7507 16.1729C21.7516 16.1767 21.7533 16.1823 21.7546 16.1885C21.7574 16.2014 21.761 16.2197 21.7654 16.2422C21.7741 16.2878 21.7855 16.3533 21.7966 16.4346C21.8189 16.5973 21.8414 16.8277 21.8425 17.1064C21.8448 17.6636 21.763 18.4229 21.4245 19.2227C21.085 20.0249 20.6209 20.5502 20.2351 20.877C20.0431 21.0395 19.8713 21.1529 19.7439 21.2266C19.6801 21.2634 19.6261 21.291 19.5876 21.3096C19.5689 21.3186 19.5533 21.3259 19.5417 21.3311C19.536 21.3336 19.5309 21.3363 19.5271 21.3379C19.5254 21.3386 19.5235 21.3393 19.5222 21.3398H19.5193L19.5183 21.3408L19.446 21.3613C19.2744 21.393 19.0979 21.301 19.03 21.1328C18.9532 20.9417 19.0448 20.7238 19.2351 20.6455L19.239 20.6445C19.2433 20.6426 19.2515 20.6391 19.2624 20.6338C19.2852 20.6228 19.3222 20.6041 19.3689 20.5771C19.4621 20.5232 19.5969 20.4358 19.7507 20.3057C20.0585 20.045 20.4459 19.6106 20.7341 18.9297C21.0231 18.2466 21.0945 17.5934 21.0925 17.1094C21.0915 16.8682 21.0719 16.671 21.0534 16.5361C21.0442 16.469 21.0354 16.4173 21.029 16.3838C21.0258 16.3671 21.0238 16.354 21.0222 16.3467C21.0214 16.3433 21.0206 16.341 21.0202 16.3398C20.972 16.1385 21.0963 15.9361 21.2976 15.8877Z" fill="black"/>
</svg>
