<svg width="24" height="24" viewBox="0 0 24 24" fill="none" xmlns="http://www.w3.org/2000/svg">
<path fill-rule="evenodd" clip-rule="evenodd" d="M15.837 17.4922C15.9677 17.4269 16.1251 17.443 16.2393 17.5342C16.3534 17.6257 16.4035 17.776 16.3682 17.918C15.5851 21.0494 11.7499 22.2209 9.35064 20.0615L8.92779 19.6807C8.81297 19.5768 8.77283 19.4122 8.82818 19.2676C8.88389 19.1231 9.02389 19.0275 9.17876 19.0273H9.33208C11.59 19.0273 13.8174 18.5018 15.837 17.4922ZM15.3252 18.5527C13.6883 19.2499 11.9421 19.657 10.1651 19.7539C11.9106 21.0101 14.347 20.39 15.3252 18.5527Z" fill="black"/>
<path d="M14.1358 15.7832C14.3358 15.7296 14.5411 15.8488 14.5948 16.0488C14.709 16.4752 14.5626 16.8922 14.3018 17.2109C14.0407 17.5301 13.6481 17.778 13.1915 17.9004C12.7348 18.0227 12.2705 18.0051 11.8848 17.8594C11.4997 17.7137 11.1642 17.4253 11.0499 16.999C10.9963 16.799 11.1146 16.5937 11.3145 16.54C11.5145 16.4865 11.7198 16.6048 11.7735 16.8047C11.8093 16.9385 11.9257 17.0736 12.1495 17.1582C12.3725 17.2425 12.675 17.262 12.9971 17.1758C13.3191 17.0894 13.5707 16.9208 13.7217 16.7363C13.8731 16.5513 13.9069 16.3769 13.8711 16.2432C13.8176 16.0433 13.936 15.837 14.1358 15.7832Z" fill="black"/>
<path d="M7.83111 13.6709C7.85339 13.9402 8.07761 14.1531 8.35259 14.1533C8.5507 14.1532 8.72129 14.041 8.8106 13.8789C9.03676 14.0715 9.18159 14.3575 9.18169 14.6777C9.18116 15.2573 8.71057 15.7285 8.13091 15.7285C7.55164 15.7281 7.08163 15.257 7.08111 14.6777C7.08126 14.2024 7.39777 13.8002 7.83111 13.6709Z" fill="black"/>
<path d="M15.1807 11.5283C15.1817 11.8173 15.417 12.0515 15.7061 12.0518C15.835 12.0517 15.9517 12.0029 16.043 11.9258C16.1851 12.1049 16.2715 12.3308 16.2715 12.5771C16.2712 13.1568 15.8005 13.6279 15.2208 13.6279C14.6413 13.6275 14.1713 13.1566 14.171 12.5771C14.1711 12.0109 14.6197 11.5498 15.1807 11.5283Z" fill="black"/>
<path fill-rule="evenodd" clip-rule="evenodd" d="M12.2364 1.0127C12.56 1.05318 12.8765 1.11766 13.1836 1.20508C13.2605 1.22695 13.3365 1.25072 13.4122 1.27539C13.5634 1.32472 13.7123 1.37927 13.8585 1.43945C14.0045 1.49961 14.1478 1.56519 14.2881 1.63574C14.7795 1.88266 15.2351 2.19165 15.6436 2.55371C15.7019 2.60536 15.7592 2.65815 15.8155 2.71191C16.0413 2.92742 16.2512 3.15987 16.4434 3.40723C16.4835 3.45881 16.5221 3.51158 16.5606 3.56445C18.0345 3.12877 19.6187 3.21706 21.0401 3.82422L18.3643 5.41797C19.9363 5.70175 21.3467 6.5682 22.3086 7.85059H17.9317L18.0049 8.29199C19.7342 8.81201 20.994 10.4159 20.9942 12.3145L20.9883 12.5312C20.9123 14.0257 20.0545 15.312 18.8165 15.9941C18.7218 17.1715 18.3809 18.3204 17.8086 19.3633L17.5538 19.792C17.4483 19.9607 17.3164 20.1661 17.1407 20.4395L16.6631 21.1729C16.5358 21.361 16.4308 21.5039 16.3213 21.6338L16.0743 21.9072C14.8823 23.1349 13.1631 23.7053 11.4737 23.4336L11.1124 23.3623C10.9469 23.3236 10.7741 23.2703 10.5538 23.1934L9.70806 22.8818C9.41878 22.7734 9.20124 22.6919 9.02251 22.6221L8.56744 22.4316C7.0134 21.7188 5.71339 20.548 4.84185 19.0771C4.73815 18.9021 4.64137 18.7179 4.50298 18.4443C4.49342 18.438 4.48417 18.4312 4.47466 18.4248C4.40357 18.5379 4.31528 18.631 4.20415 18.6953C3.57111 19.0605 2.51301 18.432 1.76275 17.2773L1.61724 17.0391C0.864495 15.735 0.801169 14.3621 1.47564 13.9717C1.69804 13.8434 1.97322 13.8388 2.26861 13.9355L1.45513 11.9014C1.45165 11.8927 1.4488 11.8837 1.44536 11.875C1.4126 11.7918 1.38198 11.7078 1.35357 11.623C1.35052 11.614 1.34778 11.6048 1.34478 11.5957C1.29476 11.4437 1.25091 11.2898 1.2149 11.1338C1.17161 10.9462 1.13658 10.7581 1.1065 10.5703C1.08139 10.4136 1.0591 10.2571 1.04302 10.1006C1.02477 9.9229 1.01372 9.74537 1.00689 9.56836C1.00461 9.50937 1.00206 9.45048 1.00103 9.3916C0.999506 9.30421 0.999817 9.21698 1.00103 9.12988C1.00134 9.10742 1.00054 9.08494 1.00103 9.0625C1.00261 8.99042 1.00638 8.91851 1.00982 8.84668C1.01203 8.80042 1.01368 8.75416 1.01665 8.70801C1.02234 8.61985 1.03066 8.53203 1.03911 8.44434C1.04134 8.42124 1.04256 8.39806 1.04497 8.375C1.05316 8.29693 1.06391 8.21925 1.07427 8.1416C1.07861 8.10905 1.08225 8.07642 1.08697 8.04395C1.09994 7.95471 1.11509 7.86594 1.13091 7.77734C1.13514 7.75363 1.1382 7.72972 1.14263 7.70605C1.1574 7.62724 1.17445 7.54895 1.19146 7.4707C1.19861 7.43781 1.2054 7.40486 1.21294 7.37207C1.22909 7.30185 1.24579 7.23181 1.26372 7.16211C1.27439 7.12065 1.28564 7.07936 1.29693 7.03809C1.31834 6.95984 1.34164 6.88221 1.36529 6.80469C1.37424 6.77533 1.38336 6.74604 1.39263 6.7168C1.41208 6.65544 1.43136 6.59406 1.4522 6.5332C1.47069 6.47922 1.49024 6.42564 1.50982 6.37207C1.52626 6.32708 1.54242 6.282 1.55962 6.2373C1.58293 6.17676 1.6072 6.11661 1.63189 6.05664C1.65305 6.00525 1.67515 5.95428 1.69732 5.90332C1.71616 5.86001 1.73439 5.81642 1.75396 5.77344C1.78214 5.71154 1.8112 5.65006 1.84087 5.58887C1.8652 5.5387 1.89075 5.48913 1.91607 5.43945C1.93901 5.39444 1.96165 5.34928 1.9854 5.30469C2.01581 5.2476 2.04743 5.19116 2.07915 5.13477C2.09988 5.09792 2.12037 5.06095 2.14165 5.02441C2.17936 4.95969 2.21842 4.89576 2.25786 4.83203C2.28058 4.79533 2.30391 4.75902 2.3272 4.72266C2.36143 4.66922 2.39624 4.61616 2.43169 4.56348C2.46073 4.52034 2.48974 4.47719 2.51958 4.43457C2.53072 4.41867 2.54154 4.40255 2.55279 4.38672L2.6856 4.2041C2.69593 4.19037 2.70643 4.17676 2.71685 4.16309C2.76189 4.10396 2.80886 4.04627 2.85552 3.98828C2.87034 3.96987 2.88449 3.95091 2.89947 3.93262L2.96099 3.85742C3.0078 3.80159 3.05622 3.74706 3.10454 3.69238C3.11845 3.67665 3.13153 3.66017 3.14556 3.64453C3.19981 3.58408 3.25547 3.52478 3.31158 3.46582C3.33632 3.43981 3.36167 3.41438 3.38677 3.38867C3.44107 3.33306 3.49683 3.27881 3.55279 3.22461C3.58005 3.1982 3.60619 3.17059 3.63384 3.14453C3.66937 3.11105 3.70608 3.0788 3.74224 3.0459C3.78346 3.0084 3.82422 2.97033 3.86626 2.93359L3.90728 2.89844C3.94225 2.86827 3.97819 2.8392 4.01372 2.80957C4.05913 2.77171 4.10414 2.73326 4.15044 2.69629C4.2115 2.64753 4.27435 2.60089 4.33697 2.55371C4.73894 2.25083 5.17181 1.97956 5.63482 1.74805L8.13091 0.5L12.2364 1.0127ZM12.6182 11.8477C11.8476 11.6414 11.0215 11.899 10.5059 12.5176L10.3633 12.6875C10.778 13.3385 11.0195 14.1114 11.0196 14.9404L11.0137 15.1572C10.9006 17.3761 9.06542 19.1416 6.81841 19.1416L6.60259 19.1357C6.27818 19.1193 5.96403 19.0636 5.66314 18.9775C6.45129 20.1846 7.56576 21.1472 8.87994 21.75C9.12187 21.8609 9.38196 21.9589 9.97076 22.1797C10.7072 22.4559 11.0106 22.5683 11.2823 22.6318C12.9303 23.0168 14.6568 22.4442 15.7481 21.1504C15.9282 20.9368 16.0979 20.675 16.5098 20.0342C16.8674 19.4779 17.0257 19.2301 17.1504 19.0029C17.6071 18.1708 17.902 17.2641 18.0264 16.3311C17.6365 16.4506 17.2221 16.5156 16.793 16.5156L16.5772 16.5098C14.3581 16.397 12.5931 14.5615 12.5928 12.3145C12.5928 12.1569 12.6013 12.0007 12.6182 11.8477ZM6.81841 11.4902C4.91324 11.4907 3.36843 13.0352 3.36822 14.9404C3.36853 16.0798 3.92178 17.0903 4.77349 17.7188C4.86493 17.7569 4.94781 17.8122 5.01763 17.8828C5.54189 18.2047 6.15829 18.3914 6.81841 18.3916C8.7238 18.3916 10.2691 16.8457 10.2696 14.9404C10.2695 13.8113 9.72742 12.8081 8.88872 12.1787H8.88677C8.78844 12.1468 8.64632 12.1399 8.39556 12.1865C8.14304 12.2335 7.8251 12.3254 7.38677 12.4551C6.97095 12.5781 6.58296 12.726 6.26568 12.8779C5.94051 13.0337 5.71743 13.1809 5.6065 13.291C5.45975 13.4368 5.22125 13.4365 5.07525 13.29C4.92935 13.1432 4.93039 12.9048 5.0772 12.7588C5.27793 12.5593 5.59189 12.3696 5.94146 12.2021C6.29923 12.0308 6.72496 11.8682 7.17388 11.7354C7.34741 11.684 7.50966 11.6362 7.66119 11.5938C7.39156 11.5261 7.10899 11.4902 6.81841 11.4902ZM2.63579 14.5879C2.45553 14.6893 2.23809 14.7148 2.03521 14.6484C1.95457 14.622 1.9009 14.6171 1.8731 14.6182L1.85064 14.6211C1.87966 14.6043 1.73884 14.6731 1.75982 15.1279C1.77886 15.5403 1.93765 16.0941 2.26665 16.6641C2.59568 17.2339 2.99598 17.6483 3.3438 17.8711C3.64839 18.0661 3.79396 18.052 3.82622 18.0459C3.82974 18.0417 3.83545 18.0337 3.84283 18.0215C3.85766 17.9969 3.87436 17.9736 3.89165 17.9512C3.10698 17.188 2.61848 16.1213 2.61822 14.9404C2.61823 14.8219 2.62568 14.704 2.63579 14.5879ZM16.9786 9.64453C16.6557 9.32538 16.1482 9.2932 15.2813 9.52539C14.7314 9.67273 14.292 9.95213 14.0186 10.2637C13.9289 10.3848 13.8469 10.512 13.7735 10.6445C13.766 10.663 13.7592 10.6818 13.753 10.7002C13.7365 10.7494 13.7102 10.7926 13.6778 10.8291C13.4631 11.2788 13.3429 11.7829 13.3428 12.3145C13.3431 14.2196 14.8879 15.7651 16.793 15.7656C17.252 15.7656 17.6902 15.6745 18.0909 15.5117C18.0959 15.3087 18.0943 15.1051 18.0831 14.9014C18.0688 14.6423 18.0357 14.3742 17.96 13.7686L17.4502 9.68848C17.3053 9.78576 17.1076 9.77169 16.9786 9.64453ZM18.7042 13.6758C18.7785 14.2708 18.8161 14.5691 18.8321 14.8604C18.8363 14.9372 18.8388 15.014 18.8409 15.0908C19.6918 14.4623 20.244 13.4532 20.2442 12.3145C20.244 10.8849 19.3749 9.65728 18.1358 9.13379L18.7042 13.6758ZM17.212 8.13477C15.3434 6.76737 12.9347 6.30272 10.6602 6.92285L8.57329 7.49219C5.80961 8.24592 3.62359 10.3061 2.68462 12.958L2.88677 13.4639C3.4844 11.8727 5.01848 10.7406 6.81841 10.7402C8.03298 10.7402 9.12652 11.256 9.89361 12.0801L9.92974 12.0371C10.6233 11.2051 11.729 10.8506 12.7676 11.1104C12.8481 10.8409 12.9578 10.5836 13.0879 10.3398C13.178 10.1248 13.3109 9.92458 13.4756 9.74219C14.2441 8.75256 15.4432 8.11454 16.793 8.11426C16.9343 8.11426 17.0743 8.12115 17.212 8.13477ZM17.2295 8.8916C17.2741 8.91988 17.3177 8.95081 17.3604 8.98438L17.3467 8.9082C17.3079 8.90194 17.2688 8.89655 17.2295 8.8916Z" fill="black"/>
<path d="M21.2969 15.8877C21.4982 15.8395 21.7007 15.9638 21.7491 16.165L21.7501 16.168C21.7503 16.1692 21.7507 16.1711 21.751 16.1729C21.7519 16.1767 21.7526 16.1823 21.754 16.1885C21.7568 16.2014 21.7613 16.2196 21.7657 16.2422C21.7744 16.2878 21.7848 16.3533 21.7959 16.4346C21.8183 16.5974 21.8417 16.8284 21.8428 17.1074C21.845 17.6645 21.7623 18.4232 21.4239 19.2227C21.0843 20.0249 20.6202 20.5502 20.2344 20.877C20.0424 21.0395 19.8706 21.153 19.7432 21.2266C19.6794 21.2634 19.6254 21.291 19.587 21.3096C19.5682 21.3186 19.5526 21.3259 19.5411 21.3311C19.5353 21.3336 19.5302 21.3363 19.5264 21.3379C19.5246 21.3386 19.5229 21.3393 19.5215 21.3398H19.5196L19.5176 21.3408L19.4454 21.3613C19.2737 21.393 19.0982 21.301 19.0303 21.1328C18.9534 20.9416 19.045 20.7247 19.2354 20.6465L19.2393 20.6445C19.2437 20.6426 19.252 20.639 19.2627 20.6338C19.2855 20.6228 19.3219 20.6039 19.3682 20.5771C19.4614 20.5233 19.5962 20.4359 19.7501 20.3057C20.0578 20.045 20.4453 19.6114 20.7334 18.9307C21.0226 18.2474 21.0948 17.5935 21.0928 17.1094C21.0918 16.8683 21.0713 16.671 21.0528 16.5361C21.0436 16.4691 21.0348 16.4172 21.0284 16.3838C21.0252 16.3671 21.0231 16.354 21.0215 16.3467C21.0208 16.3433 21.0198 16.341 21.0196 16.3398C20.9713 16.1386 21.0956 15.9361 21.2969 15.8877Z" fill="black"/>
</svg>
