<svg width="24" height="24" viewBox="0 0 24 24" fill="none" xmlns="http://www.w3.org/2000/svg">
<path fill-rule="evenodd" clip-rule="evenodd" d="M15.8936 17.6035C15.9807 17.5602 16.0862 17.571 16.1622 17.6318C16.238 17.6928 16.2715 17.7932 16.2481 17.8877C15.4881 20.9278 11.7649 22.0649 9.4356 19.9688L9.01275 19.5879C8.93589 19.5186 8.90927 19.4091 8.94634 19.3125C8.98363 19.2163 9.07652 19.1523 9.17974 19.1523H9.33306C11.6103 19.1522 13.8567 18.6219 15.8936 17.6035ZM15.584 18.3018C13.7708 19.1219 11.814 19.578 9.82427 19.6426C11.7316 21.2971 14.6493 20.5453 15.584 18.3018Z" fill="black"/>
<path d="M14.169 15.9043C14.3022 15.8688 14.4389 15.9479 14.4747 16.0811C14.5758 16.4586 14.4485 16.8354 14.2061 17.1318C13.9633 17.4286 13.5935 17.6629 13.1592 17.7793C12.7249 17.8956 12.2874 17.8778 11.9288 17.7422C11.5706 17.6067 11.2712 17.3443 11.17 16.9668C11.1343 16.8336 11.2136 16.6961 11.3467 16.6602C11.48 16.6244 11.6175 16.7037 11.6534 16.8369C11.7023 17.0195 11.8558 17.1796 12.1065 17.2744C12.3567 17.3689 12.6859 17.3882 13.0303 17.2959C13.3747 17.2035 13.6501 17.0224 13.8194 16.8154C13.9888 16.6082 14.0409 16.3933 13.9922 16.2109C13.9565 16.0777 14.0358 15.9402 14.169 15.9043Z" fill="black"/>
<path d="M7.83208 13.6709C7.85441 13.9403 8.07838 14.1533 8.35357 14.1533C8.55169 14.1531 8.72235 14.0411 8.81158 13.8789C9.03752 14.0715 9.18257 14.3576 9.18267 14.6777C9.18214 15.2572 8.71143 15.7284 8.13189 15.7285C7.55239 15.7283 7.08261 15.2572 7.08208 14.6777C7.08224 14.2022 7.39845 13.8 7.83208 13.6709Z" fill="black"/>
<path d="M15.1817 11.5283C15.1827 11.8174 15.4177 12.0518 15.7071 12.0518C15.836 12.0516 15.9527 12.003 16.044 11.9258C16.1859 12.1048 16.2725 12.3309 16.2725 12.5771C16.2722 13.1568 15.8014 13.6278 15.2217 13.6279C14.6421 13.6278 14.1722 13.1568 14.1719 12.5771C14.172 12.0108 14.6205 11.5495 15.1817 11.5283Z" fill="black"/>
<path fill-rule="evenodd" clip-rule="evenodd" d="M12.2364 1.0127C14.0032 1.23364 15.5528 2.18096 16.5606 3.56445C18.0345 3.1287 19.6186 3.21704 21.0401 3.82422L18.3653 5.41797C19.9371 5.70191 21.3478 6.5682 22.3096 7.85059H17.9336L18.0069 8.29199C19.7354 8.81251 20.995 10.4165 20.9952 12.3145L20.9893 12.5312C20.9133 14.0255 20.0552 15.312 18.8174 15.9941C18.7228 17.1715 18.3818 18.3205 17.8096 19.3633L17.5547 19.792C17.4492 19.9607 17.3175 20.166 17.1417 20.4395L16.6631 21.1729C16.5356 21.361 16.4309 21.5039 16.3213 21.6338L16.0743 21.9072C14.8824 23.135 13.164 23.7052 11.4747 23.4336L11.1133 23.3623C10.9478 23.3236 10.7752 23.2703 10.5547 23.1934L9.70904 22.8818C9.41974 22.7734 9.2023 22.6919 9.02349 22.6221L8.56841 22.4316C7.1114 21.7634 5.87745 20.6929 5.01079 19.3496L4.84283 19.0771C4.7391 18.9021 4.64234 18.7179 4.50396 18.4443C4.49417 18.4379 4.48439 18.4314 4.47466 18.4248C4.40346 18.5379 4.31542 18.631 4.20415 18.6953C3.57114 19.0608 2.51397 18.4321 1.76372 17.2773L1.61822 17.0391C0.912091 15.816 0.811686 14.5325 1.35845 14.0557L1.47661 13.9717C1.69894 13.8434 1.97335 13.8389 2.26861 13.9355L1.45611 11.9014C1.45263 11.8927 1.44978 11.8837 1.44634 11.875C1.41772 11.8023 1.3907 11.7291 1.36529 11.6553C1.35719 11.6318 1.34863 11.6085 1.34087 11.585C1.29212 11.4366 1.25004 11.286 1.2149 11.1338C1.17162 10.9462 1.13658 10.7581 1.1065 10.5703C1.08139 10.4136 1.0591 10.2571 1.04302 10.1006C1.02477 9.92289 1.01371 9.74537 1.00689 9.56836C1.00461 9.50937 1.00205 9.45048 1.00103 9.3916C0.999511 9.30421 0.999811 9.21698 1.00103 9.12988C1.00134 9.10742 1.00053 9.08494 1.00103 9.0625C1.00262 8.99042 1.00637 8.91851 1.00982 8.84668C1.01216 8.7978 1.01443 8.74895 1.01763 8.7002C1.02324 8.61467 1.0309 8.52943 1.03911 8.44434C1.04144 8.42028 1.04245 8.39609 1.04497 8.37207C1.05109 8.31396 1.05914 8.25612 1.06646 8.19824C1.07417 8.13726 1.08183 8.07633 1.09087 8.01562C1.10183 7.94208 1.11509 7.869 1.12798 7.7959C1.13325 7.76601 1.13704 7.73587 1.14263 7.70605C1.15452 7.64263 1.16835 7.57965 1.18169 7.5166C1.19391 7.45884 1.20636 7.40118 1.21978 7.34375C1.23069 7.29706 1.24226 7.25056 1.25396 7.2041C1.26858 7.14604 1.28303 7.08796 1.29888 7.03027C1.31966 6.95464 1.34242 6.87964 1.36529 6.80469C1.37424 6.77533 1.38335 6.74604 1.39263 6.7168C1.41209 6.65544 1.43135 6.59406 1.4522 6.5332C1.46966 6.48225 1.48749 6.43145 1.50591 6.38086C1.53004 6.31461 1.5563 6.24919 1.58208 6.18359C1.5946 6.15174 1.60629 6.11958 1.61919 6.08789C1.64642 6.02101 1.67522 5.95482 1.70415 5.88867C1.72542 5.84006 1.74643 5.79136 1.76861 5.74316C1.78815 5.7007 1.80793 5.65835 1.82818 5.61621C1.85813 5.55388 1.88946 5.49224 1.92095 5.43066C1.94733 5.37907 1.97358 5.32741 2.00103 5.27637C2.0178 5.24518 2.03562 5.21457 2.05279 5.18359C2.08775 5.12049 2.12264 5.05733 2.15923 4.99512C2.18329 4.95422 2.20772 4.91354 2.23247 4.87305C2.26939 4.81265 2.3073 4.75285 2.34576 4.69336C2.36271 4.66713 2.38026 4.64128 2.39751 4.61523C2.44048 4.55037 2.48358 4.48557 2.52837 4.42188C2.55799 4.37976 2.58878 4.33847 2.61919 4.29688C2.65161 4.25253 2.68353 4.2078 2.71685 4.16406C2.75266 4.11705 2.78939 4.07071 2.82622 4.02441C2.86109 3.9806 2.89592 3.93671 2.93169 3.89355C2.98409 3.83035 3.0385 3.76877 3.09283 3.70703C3.11097 3.68642 3.12818 3.66498 3.14654 3.64453C3.2008 3.58408 3.25644 3.52478 3.31255 3.46582C3.33366 3.44365 3.35467 3.42137 3.37603 3.39941C3.43567 3.33811 3.49699 3.27834 3.55865 3.21875C3.57983 3.19828 3.60071 3.17749 3.62212 3.15723C3.66359 3.11799 3.70576 3.07946 3.7481 3.04102C3.80181 2.99224 3.85608 2.94397 3.91119 2.89648C3.95544 2.85835 4.0008 2.82146 4.04595 2.78418C4.08121 2.75507 4.11562 2.72487 4.15142 2.69629C4.22531 2.6373 4.30084 2.58011 4.37701 2.52344C4.39319 2.5114 4.40857 2.49826 4.42486 2.48633C4.48717 2.44066 4.5515 2.3976 4.61529 2.35352C4.69355 2.29942 4.77311 2.24695 4.85357 2.19531C5.00414 2.09868 5.15741 2.00467 5.31548 1.91699L5.63579 1.74805L8.13189 0.5L12.2364 1.0127ZM12.6358 11.7227C11.8226 11.5112 10.9537 11.7853 10.4102 12.4375L10.293 12.5781C10.7516 13.2511 11.0205 14.0648 11.0206 14.9404L11.0147 15.1572C10.9016 17.376 9.0663 19.1415 6.81939 19.1416L6.60357 19.1357C6.14246 19.1124 5.70119 19.0129 5.29107 18.8525C6.11066 20.2218 7.32556 21.3121 8.77642 21.9775C9.02835 22.0931 9.2985 22.1946 9.88384 22.4141C10.6137 22.6878 10.9351 22.8069 11.2266 22.875C12.9662 23.2813 14.7866 22.6772 15.9385 21.3115C16.1318 21.0823 16.3128 20.8035 16.7208 20.1689C17.0764 19.6157 17.2412 19.3599 17.3711 19.123C17.8632 18.2263 18.1735 17.2461 18.2911 16.2383C17.8258 16.4159 17.3216 16.5156 16.794 16.5156L16.5782 16.5098C14.3589 16.3972 12.5941 14.5616 12.5938 12.3145C12.5938 12.1137 12.6085 11.9159 12.6358 11.7227ZM6.81939 11.2402C4.77592 11.2405 3.11941 12.897 3.11919 14.9404C3.11951 16.1726 3.72212 17.2638 4.64849 17.9365C4.73122 17.965 4.80468 18.015 4.86236 18.0811C5.43004 18.4357 6.10082 18.6415 6.81939 18.6416C8.86274 18.6415 10.52 16.9837 10.5206 14.9404C10.5204 13.7814 9.98672 12.7468 9.1524 12.0684C9.13808 12.0664 9.12366 12.0642 9.10943 12.0596C8.98275 12.0185 8.77097 12.0136 8.45806 12.0635C8.1526 12.1122 7.78059 12.2071 7.35161 12.334C6.93045 12.4586 6.53592 12.6095 6.21197 12.7646C5.88269 12.9224 5.64347 13.0772 5.51763 13.2021C5.41983 13.299 5.26234 13.2985 5.16509 13.2012C5.06779 13.1033 5.06819 12.945 5.16607 12.8477C5.35174 12.6632 5.64992 12.4799 5.99517 12.3145C6.34616 12.1463 6.76667 11.9857 7.21001 11.8545C7.63594 11.7285 8.02472 11.6289 8.35747 11.5742C7.88898 11.3598 7.36824 11.2403 6.81939 11.2402ZM2.11236 14.4111C1.90383 14.3429 1.78764 14.3693 1.72661 14.4043C1.63351 14.4581 1.48824 14.6514 1.51079 15.1396C1.5321 15.5996 1.70595 16.1917 2.05083 16.7891C2.39584 17.3866 2.82226 17.8337 3.21001 18.082C3.62138 18.3454 3.86106 18.3164 3.95415 18.2627C3.98532 18.2447 4.02061 18.2127 4.05767 18.1514L4.0772 18.1221C3.18437 17.3518 2.61948 16.2119 2.61919 14.9404C2.61921 14.7628 2.63194 14.5869 2.65337 14.415H2.4063C2.31173 14.4425 2.2096 14.443 2.11236 14.4111ZM16.794 8.61426C16.4134 8.6143 16.0458 8.6706 15.7002 8.77734C16.3049 8.70107 16.8585 8.77924 17.2842 9.2002C17.3822 9.29709 17.3827 9.45551 17.2862 9.55371C17.1891 9.65184 17.0308 9.65264 16.9327 9.55566C16.5565 9.18384 15.9839 9.1726 15.1153 9.40527C14.4613 9.58051 13.9387 9.93925 13.6631 10.3408C13.6317 10.3906 13.6024 10.4418 13.5733 10.4932C13.5444 10.549 13.519 10.6047 13.5001 10.6611C13.4868 10.7003 13.4633 10.7329 13.4356 10.7598C13.2165 11.2324 13.0939 11.7593 13.0938 12.3145C13.0941 14.3579 14.7506 16.0154 16.794 16.0156C17.3445 16.0156 17.8664 15.8934 18.336 15.6777C18.3478 15.4152 18.3476 15.1516 18.3331 14.8877C18.3182 14.618 18.2843 14.34 18.209 13.7383L17.6153 8.9834L17.5665 8.69434C17.3173 8.64142 17.0589 8.61427 16.794 8.61426ZM18.1084 8.90137L18.7051 13.6758C18.7795 14.2709 18.817 14.5691 18.8331 14.8604C18.8429 15.0386 18.8454 15.2167 18.8438 15.3945C19.8386 14.7311 20.495 13.5996 20.4952 12.3145C20.495 10.7305 19.4991 9.37839 18.0997 8.85059L18.1084 8.90137ZM17.2139 8.13477C15.3451 6.76681 12.9351 6.30258 10.6602 6.92285L8.57329 7.49219C5.68213 8.28069 3.42486 10.4994 2.56451 13.3291L2.73247 13.75C2.74644 13.785 2.75407 13.8212 2.75982 13.8574C3.23724 12.0622 4.87391 10.7404 6.81939 10.7402C8.07913 10.7403 9.20854 11.2955 9.97857 12.1738L10.0264 12.1172C10.6884 11.3229 11.7429 10.9846 12.7344 11.2314C12.8273 10.8824 12.9644 10.5512 13.1387 10.2441C13.1739 10.1778 13.2133 10.1129 13.2569 10.0498C14.0037 8.88589 15.3084 8.1144 16.794 8.11426C16.9357 8.11427 17.0758 8.12105 17.2139 8.13477Z" fill="black"/>
<path d="M21.3262 16.0098C21.4604 15.9776 21.5957 16.0601 21.628 16.1943L21.627 16.1953L21.629 16.2002C21.6297 16.2036 21.6316 16.2089 21.6329 16.2148C21.6355 16.2269 21.6385 16.245 21.6426 16.2666C21.651 16.3101 21.6621 16.3726 21.6729 16.4512C21.6946 16.6093 21.7167 16.8349 21.7178 17.1074C21.72 17.6523 21.6398 18.3937 21.3096 19.1738C20.9786 19.9558 20.5271 20.4655 20.1543 20.7812C19.9683 20.9388 19.8015 21.0478 19.6797 21.1182C19.619 21.1532 19.569 21.1791 19.5333 21.1963C19.5155 21.2048 19.5017 21.2122 19.4913 21.2168C19.4862 21.219 19.4818 21.2203 19.4786 21.2217C19.4769 21.2224 19.4748 21.2241 19.4737 21.2246H19.4717C19.3439 21.2761 19.1983 21.2146 19.1465 21.0869C19.0951 20.9593 19.1562 20.8139 19.2833 20.7617L19.2891 20.7588C19.2946 20.7564 19.3048 20.7522 19.3174 20.7461C19.3427 20.7339 19.3817 20.7148 19.4307 20.6865C19.5297 20.6294 19.6706 20.5363 19.8311 20.4004C20.1519 20.1287 20.552 19.6795 20.8487 18.9785C21.146 18.276 21.2189 17.6056 21.2168 17.1094C21.2158 16.8616 21.1969 16.6582 21.1778 16.5186C21.1682 16.449 21.1582 16.3948 21.1514 16.3594C21.1481 16.3423 21.1454 16.3295 21.1436 16.3213C21.1427 16.3171 21.142 16.3132 21.1417 16.3115C21.1096 16.1774 21.1922 16.0421 21.3262 16.0098Z" fill="black"/>
</svg>
