<svg width="24" height="24" viewBox="0 0 24 24" fill="none" xmlns="http://www.w3.org/2000/svg">
<path fill-rule="evenodd" clip-rule="evenodd" d="M5.66193 3.00875C4.86063 3.57469 4.13833 4.24504 3.51482 5L3.22771 5.36328C1.96313 7.03221 1.1635 9.07289 1.02255 11.2927C1.00772 11.5265 1 11.7624 1 12C1 12.4584 1.02804 12.9102 1.08249 13.3538C1.13978 13.8206 1.22648 14.2781 1.34037 14.7249C1.47946 15.2706 1.65916 15.8002 1.87642 16.3099C2.06026 16.7411 2.2711 17.158 2.50635 17.5589C2.76473 17.9992 3.05259 18.4202 3.36772 18.8186C3.41603 18.8797 3.46524 18.94 3.51482 19L3.70622 19.2266C5.72277 21.539 8.69098 23 12.0002 23C15.416 23 18.4679 21.4429 20.4855 19C22.0562 17.0981 23.0002 14.6593 23.0002 12C23.0002 9.34074 22.0562 6.90188 20.4855 5C18.4679 2.55708 15.416 1 12.0002 1C10.2528 1 8.60059 1.40748 7.1334 2.13258C6.61844 2.38675 6.12626 2.68005 5.66081 3.00879C5.66118 3.00878 5.66156 3.00876 5.66193 3.00875ZM21.0002 12C21.0002 9.82247 20.2292 7.83016 18.9435 6.27344C17.3556 4.35084 14.9922 3.10268 12.3335 3.00605C12.4749 3.10579 12.6139 3.20879 12.7503 3.31493C13.1461 3.62304 13.5208 3.95714 13.8708 4.31553C14.085 4.53483 14.2897 4.76344 14.485 5C14.5726 5.10609 14.6583 5.21386 14.742 5.32324C15.0515 5.72792 15.334 6.15435 15.5858 6.60048C15.8156 7.00751 16.0198 7.43101 16.1971 7.86811C16.4072 8.38607 16.5794 8.9233 16.7093 9.47701C16.8332 10.0048 16.9187 10.5476 16.9635 11.1017C16.9875 11.3981 17 11.6974 17 12C17 12.4252 16.9759 12.8448 16.9289 13.2574C16.8323 14.1064 16.6385 14.9264 16.3598 15.7054L16.3606 15.7047C15.9277 16.9152 15.2886 18.0278 14.4857 19C13.8612 19.7561 13.1376 20.4274 12.3348 20.9939C14.9929 20.8969 17.3559 19.6488 18.9435 17.7266C20.2292 16.1698 21.0002 14.1775 21.0002 12ZM10.2516 19.9347C11.2859 19.3792 12.1995 18.6268 12.943 17.7266C13.3198 17.2704 13.6524 16.7768 13.9343 16.2521L10.2516 19.9347ZM14.9288 13.1365C14.9756 12.7644 14.9997 12.3851 14.9997 12C14.9997 11.7371 14.9884 11.4769 14.9664 11.2199L6.82314 19.3632C7.19577 19.6258 7.58911 19.8607 8.00024 20.065L14.9288 13.1365ZM14.6295 9.43569L5.66884 18.3964C5.45396 18.1836 5.24966 17.9601 5.05681 17.7266C4.96659 17.6173 4.8789 17.5059 4.79384 17.3925L14.1047 8.08165C14.3145 8.51475 14.4906 8.9672 14.6295 9.43569ZM13.3126 6.75264L3.9788 16.0864C3.76183 15.6616 3.5777 15.2172 3.42971 14.7566L12.4562 5.73007C12.6256 5.90447 12.788 6.08574 12.943 6.27344C13.0714 6.42891 13.1947 6.58873 13.3126 6.75264ZM11.3231 4.74216L3.056 13.0092C3.01911 12.678 3.00017 12.3413 3.00017 12C3.00017 11.8043 3.00639 11.6102 3.01866 11.4177L10.329 4.10733C10.6748 4.29744 11.0067 4.50967 11.3231 4.74216ZM5.05681 6.27344C6.01784 5.10983 7.26297 4.19327 8.6857 3.62952L3.6296 8.68562C3.9786 7.80503 4.46277 6.99273 5.05681 6.27344Z" fill="black"/>
</svg>
