<svg width="24" height="24" viewBox="0 0 24 24" fill="none" xmlns="http://www.w3.org/2000/svg">
<path fill-rule="evenodd" clip-rule="evenodd" d="M1.00015 11.9416C1.01386 9.30505 1.95514 6.88795 3.51432 5C4.80913 3.43217 6.53006 2.22926 8.49976 1.5686C8.49979 1.56862 8.49972 1.56859 8.49976 1.5686C9.59922 1.1998 10.7763 1 12 1C15.4158 1 18.4678 2.55708 20.4854 5C22.056 6.90188 23 9.34074 23 12C23 14.6593 22.056 17.0981 20.4854 19C18.4678 21.4429 15.4158 23 12 23C8.69081 23 5.7226 21.539 3.70605 19.2266L3.68717 19.2042C3.62875 19.1369 3.57113 19.0688 3.51432 19C1.94364 17.0981 1 14.6593 1 12C1 11.9805 1.00005 11.9611 1.00015 11.9416ZM18.5576 6.5918C19.772 8.06223 20.5 9.9429 20.5 12C20.5 14.0571 19.772 15.9378 18.5576 17.4082C16.9946 19.3006 14.6385 20.5 12 20.5C11.994 20.5 11.9881 20.5 11.9822 20.5C12.53 20.0494 13.0335 19.5469 13.4852 19C15.0559 17.0981 15.9995 14.6593 15.9995 12C15.9995 9.34074 15.0559 6.90188 13.4852 5C13.0335 4.45309 12.53 3.95059 11.9822 3.50002C11.9881 3.50001 11.994 3.5 12 3.5C14.6385 3.5 16.9946 4.69937 18.5576 6.5918Z" fill="black"/>
</svg>
