<svg width="24" height="24" viewBox="0 0 24 24" fill="none" xmlns="http://www.w3.org/2000/svg">
<path fill-rule="evenodd" clip-rule="evenodd" d="M7.73211 1.85871C6.08269 2.55377 4.63826 3.63952 3.51465 5L3.22754 5.36328C2.10496 6.8448 1.34877 8.61928 1.09451 10.5519C1.06061 10.8098 1.03539 11.0707 1.01968 11.3338C1.0065 11.5542 1 11.7762 1 12C1 12.8196 1.08967 13.6183 1.25972 14.3867C1.30187 14.5773 1.34877 14.7661 1.40067 14.9528C1.62938 15.7754 1.95151 16.559 2.35451 17.2919C2.43769 17.4432 2.52405 17.5926 2.61403 17.7394C2.8848 18.1813 3.18616 18.6022 3.51465 19L3.70605 19.2266C5.7226 21.539 8.69081 23 12 23C15.4158 23 18.4678 21.4429 20.4854 19C22.056 17.0981 23 14.6593 23 12C23 9.34074 22.056 6.90188 20.4854 5C18.4678 2.55708 15.4158 1 12 1C10.6442 1 9.34564 1.24533 8.14638 1.694C8.0065 1.74597 7.86796 1.80066 7.73096 1.8584C7.73134 1.8585 7.73172 1.8586 7.73211 1.85871ZM22.5 12C22.5 9.46126 21.5999 7.13392 20.1006 5.31836C18.1739 2.98543 15.2604 1.5 12 1.5C11.0545 1.5 10.1383 1.62491 9.26676 1.85916C9.38815 1.9103 9.50844 1.96356 9.62757 2.01888C9.78743 2.09313 9.9458 2.1705 10.1014 2.25209C10.8069 2.62198 11.4667 3.06672 12.0716 3.57486C12.1995 3.68233 12.3252 3.79232 12.4481 3.90541C12.8181 4.246 13.1644 4.61195 13.4849 5C13.6606 5.21284 13.8286 5.4324 13.9882 5.65825C14.0861 5.79681 14.1812 5.93747 14.2728 6.08066C14.7126 6.76826 15.0779 7.50828 15.3576 8.28884C15.4204 8.46408 15.4791 8.64114 15.5331 8.82036C15.8047 9.72101 15.9636 10.6706 15.9941 11.6523C15.9977 11.7678 15.9997 11.8836 15.9997 12C15.9997 12.1203 15.9977 12.2402 15.9939 12.3596C15.9441 13.9078 15.5742 15.3754 14.9484 16.698C14.6611 17.3056 14.3204 17.882 13.9312 18.4223L13.9295 18.4239C13.7876 18.6209 13.6392 18.8131 13.4849 19C12.884 19.7276 12.1912 20.3764 11.4245 20.929L11.4219 20.9315C10.8816 21.3207 10.3046 21.6621 9.69696 21.9495L9.69864 21.9478C9.55632 22.0151 9.41234 22.0795 9.26675 22.1408C10.1383 22.3751 11.0545 22.5 12 22.5C15.2604 22.5 18.1739 21.0146 20.1006 18.6816C21.5999 16.8661 22.5 14.5387 22.5 12ZM8.49879 21.9023C9.43279 21.5723 10.3062 21.1141 11.0979 20.5486L13.5495 18.0969C14.6154 16.605 15.3 14.8227 15.4623 12.8912L7.07665 21.2768C7.53182 21.5189 8.0069 21.7284 8.49879 21.9023ZM15.4985 12.148C15.4992 12.0987 15.4995 12.0494 15.4995 12C15.4995 11.0391 15.3706 10.1085 15.129 9.22448L4.75398 19.5995C5.32089 20.1402 5.94813 20.618 6.62457 21.0219L15.4985 12.148ZM14.9647 8.68175L4.40045 19.246C4.22686 19.064 4.05972 18.8757 3.89941 18.6816C3.5605 18.2712 3.25221 17.8347 2.978 17.3755L13.9106 6.44292C14.3454 7.13881 14.701 7.88928 14.9647 8.68175ZM13.6296 6.0168L2.72304 16.9234C2.32713 16.1789 2.01827 15.3811 1.80997 14.5435L12.0944 4.2591C12.4535 4.5884 12.7896 4.94238 13.1001 5.31836C13.286 5.54349 13.4627 5.7765 13.6296 6.0168ZM11.7172 3.92929L1.68311 13.9633C1.56289 13.3274 1.5 12.6711 1.5 12C1.5 11.5886 1.52363 11.1828 1.56961 10.7839L9.73036 2.62312C10.4431 2.98342 11.1091 3.42262 11.7172 3.92929ZM9.2507 2.39575L1.70072 9.94572C2.04452 8.21141 2.81532 6.6311 3.89941 5.31836C5.10094 3.86348 6.68625 2.7382 8.50015 2.09725C8.75499 2.18733 9.00532 2.28697 9.2507 2.39575Z" fill="black"/>
</svg>
