<svg width="24" height="24" viewBox="0 0 24 24" fill="none" xmlns="http://www.w3.org/2000/svg">
<path fill-rule="evenodd" clip-rule="evenodd" d="M4.93668 3.5673C4.42014 4.00045 3.94397 4.48017 3.51465 5L3.22754 5.36328C1.82973 7.20804 1 9.50701 1 12C1 12.3824 1.01952 12.7602 1.05761 13.1325C1.12021 13.7444 1.23279 14.3417 1.39152 14.9197C1.52284 15.3978 1.68583 15.8627 1.87769 16.3124C2.08493 16.7982 2.32587 17.2663 2.59802 17.7132C2.83273 18.0986 3.09074 18.4682 3.36958 18.8206C3.41724 18.8808 3.46526 18.9408 3.51415 19C3.57263 19.0708 3.63198 19.1408 3.69218 19.2101L3.70605 19.2266C5.7226 21.539 8.69081 23 12 23C15.4158 23 18.4678 21.4429 20.4854 19C22.056 17.0981 23 14.6593 23 12C23 9.34074 22.056 6.90188 20.4854 5C18.4678 2.55708 15.4158 1 12 1C9.92716 1 7.9883 1.5734 6.33327 2.5702C5.84111 2.86642 5.37468 3.20002 4.93668 3.5673C4.93689 3.56728 4.93646 3.56733 4.93668 3.5673ZM20.5 12C20.5 9.9429 19.772 8.06223 18.5576 6.5918C17.2073 4.95691 15.2651 3.83928 13.0602 3.56536C13.3434 3.80257 13.6144 4.05377 13.8722 4.31792C14.0858 4.53672 14.2906 4.76402 14.4855 4.99995C14.6103 5.15108 14.7312 5.3056 14.8479 5.46334C15.1168 5.82674 15.3635 6.20767 15.5867 6.60342C15.8467 7.0642 16.0747 7.5452 16.2671 8.04415C16.4461 8.50846 16.5942 8.98833 16.7096 9.48058C16.8501 10.0802 16.9419 10.6984 16.9798 11.3314C16.9931 11.5525 16.9995 11.7756 16.9995 12C16.9995 12.4269 16.9752 12.8481 16.9279 13.2623C16.8145 14.255 16.5693 15.2072 16.2097 16.1016L16.2089 16.1024C15.7837 17.1594 15.1991 18.1352 14.4849 19C14.0548 19.5207 13.5778 20.0011 13.0602 20.4346C15.2651 20.1607 17.2073 19.0431 18.5576 17.4082C19.772 15.9378 20.5 14.0571 20.5 12ZM8.99975 19.9558C10.3973 19.4287 11.6198 18.543 12.5571 17.4082C13.3511 16.4469 13.9371 15.3102 14.2477 14.0635L8.5431 19.7681C8.69308 19.835 8.84535 19.8976 8.99975 19.9558ZM14.4942 11.6959C14.4743 11.1272 14.3986 10.5731 14.2725 10.0387L6.1473 18.1639C6.47022 18.4708 6.81698 18.7524 7.18452 19.0056L14.4942 11.6959ZM13.7301 8.46008L5.15283 17.0373C4.88336 16.6718 4.64253 16.2842 4.43361 15.8776L13.0542 7.257C13.3107 7.63741 13.5371 8.03952 13.7301 8.46008ZM12.1044 6.08579L3.83113 14.359C3.68439 13.8497 3.58403 13.3206 3.53488 12.7764L11.1067 5.20458C11.4617 5.472 11.7953 5.76674 12.1044 6.08579ZM9.79718 4.39296L3.61937 10.5708C3.87225 9.07482 4.51571 7.71387 5.44238 6.5918C6.37969 5.45696 7.60219 4.57135 8.99976 4.04415C9.27251 4.14704 9.53859 4.26358 9.79718 4.39296Z" fill="black"/>
</svg>
