<svg width="24" height="24" viewBox="0 0 24 24" fill="none" xmlns="http://www.w3.org/2000/svg">
<path fill-rule="evenodd" clip-rule="evenodd" d="M7.67799 1.88175C6.05116 2.57766 4.62609 3.65446 3.51482 5L3.22771 5.36328C2.16911 6.76037 1.43632 8.41797 1.14301 10.2231C1.04908 10.8014 1 11.3952 1 12.0001C1 12.0451 1.00027 12.09 1.00081 12.1348C1.00909 12.8254 1.0812 13.5005 1.21121 14.1549C1.30592 14.6317 1.43124 15.0977 1.58544 15.5502C1.76948 16.0901 1.9946 16.611 2.25659 17.1095C2.45721 17.4913 2.67929 17.8601 2.92182 18.2138C3.10779 18.485 3.30593 18.7471 3.51482 19L3.70622 19.2266C5.72277 21.539 8.69098 23 12.0002 23C15.416 23 18.4679 21.4429 20.4855 19C22.0562 17.0981 23.0002 14.6593 23.0002 12C23.0002 9.34074 22.0562 6.90188 20.4855 5C18.4679 2.55708 15.416 1 12.0002 1C10.7766 1 9.59966 1.1998 8.50026 1.56856C8.50007 1.56849 8.50046 1.56862 8.50026 1.56856C8.22113 1.66217 7.94651 1.76665 7.67799 1.88175ZM21.5002 12C21.5002 9.70204 20.6862 7.59809 19.3293 5.95508C17.5844 3.84234 14.9497 2.5 12.0002 2.5C11.5581 2.5 11.123 2.53016 10.697 2.58855C11.124 2.84762 11.5319 3.13493 11.9182 3.44788C12.2431 3.71102 12.5529 3.99211 12.8456 4.28999C13.0689 4.51715 13.282 4.75423 13.485 5C13.6182 5.16127 13.7469 5.3264 13.8709 5.4952C14.1229 5.83834 14.3559 6.19633 14.5674 6.56817C14.8425 7.05165 15.0817 7.55835 15.282 8.08403C15.449 8.52208 15.5891 8.97322 15.6996 9.43604C15.8499 10.0658 15.9458 10.7168 15.9827 11.3834C15.994 11.5876 16 11.7931 16 12.0001C16 12.4057 15.9781 12.8061 15.9353 13.2003C15.8213 14.2497 15.5594 15.2551 15.1714 16.1946L15.1724 16.1937C14.7506 17.2157 14.1793 18.1603 13.4857 19.0001C12.7 19.9515 11.7574 20.7685 10.6975 21.4115C11.1234 21.4699 11.5582 21.5 12.0002 21.5C14.9497 21.5 17.5844 20.1577 19.3293 18.0449C20.6862 16.4019 21.5002 14.298 21.5002 12ZM8.49884 20.8343C10.0007 20.2394 11.315 19.2725 12.3288 18.0449C13.0265 17.2001 13.5806 16.2335 13.9544 15.1812L8.35832 20.7773C8.40497 20.7967 8.45182 20.8157 8.49884 20.8343ZM14.4568 12.9093C14.4852 12.6101 14.4997 12.3068 14.4997 12C14.4997 11.5662 14.4707 11.1393 14.4145 10.7211L5.87413 19.2615C6.28116 19.6053 6.71736 19.9154 7.17849 20.1876L14.4568 12.9093ZM14.1006 9.26546L4.97299 18.3931C4.86962 18.2795 4.76894 18.1634 4.67107 18.0449C4.43118 17.7545 4.20827 17.4496 4.00382 17.1318L13.4607 7.6749C13.7197 8.18051 13.9347 8.71234 14.1006 9.26546ZM12.7961 6.56997L3.37583 15.9902C3.13273 15.4658 2.93614 14.9154 2.79128 14.3443L11.7849 5.35073C11.9745 5.54426 12.156 5.74589 12.3288 5.95508C12.4926 6.15348 12.6486 6.3586 12.7961 6.56997ZM10.851 4.51509L2.53587 12.8302C2.51223 12.5567 2.50017 12.2798 2.50017 12C2.50017 11.4968 2.53919 11.003 2.6144 10.5212L9.50291 3.6327C9.97796 3.88891 10.4288 4.18447 10.851 4.51509ZM4.67107 5.95508C5.56431 4.8735 6.69078 3.99382 7.9733 3.39278L3.39286 7.97322C3.73393 7.24556 4.16469 6.56822 4.67107 5.95508Z" fill="black"/>
</svg>
