<svg width="24" height="24" viewBox="0 0 24 24" fill="none" xmlns="http://www.w3.org/2000/svg">
<path d="M1.5 19C1.5 18.7239 1.72386 18.5 2 18.5C2.27614 18.5 2.5 18.7239 2.5 19C2.5 19.8284 3.17157 20.5 4 20.5L20 20.5C20.8284 20.5 21.5 19.8284 21.5 19C21.5 18.7239 21.7239 18.5 22 18.5C22.2761 18.5 22.5 18.7239 22.5 19C22.5 20.3807 21.3807 21.5 20 21.5L4 21.5C2.61929 21.5 1.5 20.3807 1.5 19Z" fill="black"/>
<path fill-rule="evenodd" clip-rule="evenodd" d="M12.9131 10.8887C12.9137 9.37575 14.1403 8.14866 15.6533 8.14844C16.3141 8.1486 16.9212 8.38282 17.3945 8.77246V8.64844C17.3949 8.37269 17.6187 8.1485 17.8945 8.14844C18.1699 8.14901 18.3941 8.373 18.3945 8.64844V15.6758C18.3945 17.2263 17.1364 18.484 15.5859 18.4844C14.5226 18.4842 13.5508 17.8828 13.0752 16.9316L12.9658 16.7139C12.8427 16.467 12.9427 16.1664 13.1895 16.043C13.4361 15.9202 13.7369 16.0202 13.8604 16.2666L13.9697 16.4844C14.2759 17.0967 14.9013 17.4842 15.5859 17.4844C16.5841 17.484 17.3945 16.674 17.3945 15.6758V14.498C16.9211 14.8879 16.3144 15.1229 15.6533 15.123C14.14 15.1228 12.9132 13.8962 12.9131 12.3828V10.8887ZM13.9131 12.3828C13.9132 13.3439 14.6923 14.1228 15.6533 14.123C16.6142 14.1227 17.3944 13.3438 17.3945 12.3828V10.8887C17.394 9.92812 16.6139 9.1488 15.6533 9.14844C14.6926 9.14866 13.9137 9.92803 13.9131 10.8887V12.3828Z" fill="black"/>
<path fill-rule="evenodd" clip-rule="evenodd" d="M3.93555 16.1846C3.67631 16.0902 3.54271 15.8033 3.63672 15.5439L7.0957 6.03125L7.12793 5.95996C7.21499 5.80296 7.38187 5.70222 7.56543 5.70215C7.77536 5.70227 7.96318 5.83407 8.03516 6.03125L11.4941 15.5439C11.5881 15.8032 11.4545 16.0902 11.1953 16.1846C10.9361 16.2787 10.6493 16.1448 10.5547 15.8857L9.57324 13.1885H5.55664L4.57617 15.8857C4.4816 16.1448 4.19478 16.2787 3.93555 16.1846ZM9.20996 12.1885L7.56543 7.66406L5.91992 12.1885H9.20996Z" fill="black"/>
</svg>
