<svg width="24" height="24" viewBox="0 0 24 24" fill="none" xmlns="http://www.w3.org/2000/svg">
<path d="M1 19C1 18.4477 1.44772 18 2 18C2.51768 18 2.94379 18.3933 2.99512 18.8975L3.00488 19.1025C3.05621 19.6067 3.48232 20 4 20L20 20C20.5177 20 20.9438 19.6067 20.9951 19.1025L21.0049 18.8975C21.0562 18.3933 21.4823 18 22 18C22.5523 18 23 18.4477 23 19C23 20.6569 21.6569 22 20 22H4C2.34315 22 1 20.6569 1 19Z" fill="black"/>
<path fill-rule="evenodd" clip-rule="evenodd" d="M12.4131 10.8887C12.4137 9.09964 13.8642 7.64872 15.6533 7.64844C16.1849 7.64854 16.6872 7.77699 17.1299 8.00391C17.3133 7.78694 17.5882 7.6485 17.8945 7.64844C18.4461 7.64899 18.8941 8.09685 18.8945 8.64844V15.6758C18.8945 17.5025 17.4125 18.984 15.5859 18.9844C14.3332 18.9842 13.1882 18.2758 12.6279 17.1553L12.5186 16.9375C12.272 16.4437 12.4721 15.8427 12.9658 15.5957C13.4595 15.3494 14.0606 15.5496 14.3076 16.043L14.416 16.2607C14.6375 16.7037 15.0908 16.9842 15.5859 16.9844C16.308 16.984 16.8945 16.3979 16.8945 15.6758V15.376C16.5124 15.5345 16.0928 15.623 15.6533 15.623C13.8639 15.6228 12.4132 14.1723 12.4131 12.3828V10.8887ZM14.4131 12.3828C14.4132 13.0677 14.9685 13.6228 15.6533 13.623C16.3381 13.6227 16.8944 13.0677 16.8945 12.3828V10.8887C16.894 10.2042 16.3378 9.64878 15.6533 9.64844C14.9688 9.64872 14.4137 10.2042 14.4131 10.8887V12.3828Z" fill="black"/>
<path fill-rule="evenodd" clip-rule="evenodd" d="M3.76465 16.6543C3.24592 16.4655 2.9785 15.8919 3.16699 15.373L6.62598 5.86035L6.69043 5.71875C6.86436 5.40403 7.19781 5.20227 7.56543 5.20215C7.98557 5.20232 8.36107 5.4656 8.50488 5.86035L11.9639 15.373C12.1523 15.8919 11.8849 16.4654 11.3662 16.6543C10.8475 16.8428 10.2739 16.5752 10.085 16.0566L9.22266 13.6875H5.90723L5.0459 16.0566C4.85697 16.5752 4.2834 16.8428 3.76465 16.6543ZM8.49609 11.6875L7.56543 9.12695L6.63379 11.6875H8.49609Z" fill="black"/>
</svg>
