<svg width="24" height="24" viewBox="0 0 24 24" fill="none" xmlns="http://www.w3.org/2000/svg">
<path d="M1.25 19C1.25 18.5858 1.58579 18.25 2 18.25C2.41421 18.25 2.75 18.5858 2.75 19C2.75 19.6904 3.30964 20.25 4 20.25L20 20.25C20.6904 20.25 21.25 19.6904 21.25 19C21.25 18.5858 21.5858 18.25 22 18.25C22.4142 18.25 22.75 18.5858 22.75 19C22.75 20.5188 21.5188 21.75 20 21.75H4C2.48122 21.75 1.25 20.5188 1.25 19Z" fill="black"/>
<path fill-rule="evenodd" clip-rule="evenodd" d="M12.6631 10.8887C12.6637 9.23769 14.0023 7.89869 15.6533 7.89844C16.2247 7.89855 16.7578 8.06173 17.2119 8.33984C17.3298 8.08026 17.5909 7.8985 17.8945 7.89844C18.3081 7.89895 18.6441 8.2349 18.6445 8.64844V15.6758C18.6445 17.3644 17.2745 18.7341 15.5859 18.7344C14.428 18.7342 13.3695 18.0795 12.8516 17.0439L12.7422 16.8262C12.5573 16.4558 12.7079 16.0045 13.0781 15.8193C13.4482 15.6351 13.8988 15.7855 14.084 16.1553L14.1924 16.373C14.4562 16.9007 14.9961 17.2342 15.5859 17.2344C16.4461 17.2341 17.1445 16.536 17.1445 15.6758V14.9717C16.7053 15.225 16.1967 15.3729 15.6533 15.373C14.002 15.3728 12.6632 14.0342 12.6631 12.3828V10.8887ZM14.1631 12.3828C14.1632 13.2058 14.8304 13.8728 15.6533 13.873C16.4762 13.8727 17.1444 13.2057 17.1445 12.3828V10.8887C17.144 10.0662 16.4759 9.39874 15.6533 9.39844C14.8307 9.39869 14.1637 10.0661 14.1631 10.8887V12.3828Z" fill="black"/>
<path fill-rule="evenodd" clip-rule="evenodd" d="M3.85156 16.4189C3.46239 16.2774 3.261 15.8472 3.40234 15.458L6.86133 5.94629C6.9693 5.65032 7.25131 5.45217 7.56641 5.45215C7.88131 5.4525 8.1637 5.65038 8.27148 5.94629L11.7305 15.458C11.8715 15.8467 11.6705 16.277 11.2822 16.4189C10.8931 16.5604 10.4621 16.3596 10.3203 15.9707L9.39941 13.4385H5.73242L4.8125 15.9707C4.67095 16.3595 4.24049 16.5598 3.85156 16.4189ZM8.85352 11.9385L7.56641 8.39648L6.27832 11.9385H8.85352Z" fill="black"/>
</svg>
