<svg width="24" height="24" viewBox="0 0 24 24" fill="none" xmlns="http://www.w3.org/2000/svg">
<path d="M1.75 19C1.75 18.8619 1.86193 18.75 2 18.75C2.13807 18.75 2.25 18.8619 2.25 19C2.25 19.9665 3.0335 20.75 4 20.75L20 20.75C20.9665 20.75 21.75 19.9665 21.75 19C21.75 18.8619 21.8619 18.75 22 18.75C22.1381 18.75 22.25 18.8619 22.25 19C22.25 20.2426 21.2426 21.25 20 21.25L4 21.25C2.75736 21.25 1.75 20.2426 1.75 19Z" fill="black"/>
<path fill-rule="evenodd" clip-rule="evenodd" d="M13.1621 10.8887C13.1627 9.51394 14.2776 8.39886 15.6523 8.39844C16.467 8.39844 17.189 8.79181 17.6436 9.39648V8.64844C17.644 8.51088 17.756 8.3987 17.8936 8.39844C18.0312 8.39864 18.1431 8.51085 18.1436 8.64844V15.6758C18.1436 17.0885 16.9976 18.2344 15.585 18.2344C14.6166 18.2341 13.7311 17.6864 13.2979 16.8203L13.1885 16.6025C13.1274 16.4793 13.1777 16.3283 13.3008 16.2666C13.4239 16.2054 13.5738 16.2562 13.6357 16.3789L13.7451 16.5967C14.0937 17.2934 14.806 17.7341 15.585 17.7344C16.7215 17.7344 17.6436 16.8123 17.6436 15.6758V13.874C17.189 14.4794 16.4676 14.873 15.6523 14.873C14.2773 14.8726 13.1622 13.758 13.1621 12.3828V10.8887ZM13.6621 12.3828C13.6622 13.4818 14.5534 14.3726 15.6523 14.373C16.7516 14.373 17.6435 13.4821 17.6436 12.3828V10.8887C17.643 9.78982 16.7513 8.89844 15.6523 8.89844C14.5537 8.89886 13.6627 9.79009 13.6621 10.8887V12.3828Z" fill="black"/>
<path fill-rule="evenodd" clip-rule="evenodd" d="M4.02148 15.9482C3.89215 15.9008 3.82399 15.7575 3.87109 15.6279L7.33008 6.11621C7.36621 6.01811 7.46086 5.95139 7.56543 5.95117C7.67005 5.95131 7.7646 6.0181 7.80078 6.11621L11.2598 15.6279C11.3068 15.7574 11.2395 15.9007 11.1104 15.9482C10.9807 15.9953 10.8372 15.9285 10.79 15.7988L9.74805 12.9355C9.74139 12.9361 9.73433 12.9375 9.72754 12.9375H5.40332C5.39657 12.9374 5.38942 12.9361 5.38281 12.9355L4.3418 15.7988C4.29467 15.9284 4.15111 15.9951 4.02148 15.9482ZM9.56738 12.4375L7.56543 6.93262L5.56348 12.4375H9.56738Z" fill="black"/>
</svg>
