<svg width="24" height="24" viewBox="0 0 24 24" fill="none" xmlns="http://www.w3.org/2000/svg">
<path d="M10.4229 1.32621C12.1917 -0.441971 15.0594 -0.442166 16.8281 1.32621C17.7014 2.19952 18.16 3.36976 18.1533 4.55667C19.3401 4.55008 20.5096 5.00863 21.3828 5.88187C23.1512 7.65076 23.1513 10.5184 21.3828 12.2871L13.7637 19.9053C13.4579 20.2115 13.4587 20.7077 13.7646 21.0137C14.0032 21.2521 14.3672 21.3109 14.6689 21.1602L14.7725 21.1094L15.8906 23.3448L15.7871 23.3965C14.5229 24.0286 12.9966 23.7807 11.9971 22.7813C10.7148 21.4989 10.714 19.4202 11.9961 18.1377L19.6152 10.5186C20.407 9.7261 20.4071 8.44189 19.6152 7.64945C19.0285 7.06271 18.1426 6.89208 17.3799 7.21878L17.168 7.30863L10.5586 13.919L8.79102 12.1504L15.4004 5.54105L15.4912 5.32914C15.8178 4.56657 15.647 3.6815 15.0605 3.09476C14.268 2.30244 12.983 2.30244 12.1904 3.09476L3.13379 12.1504L1.36621 10.3828L10.4229 1.32621Z" fill="black"/>
<path d="M14.2568 5.59574L7.71582 12.1368C6.9349 12.9178 6.93481 14.1839 7.71582 14.9649C8.49684 15.7457 9.76295 15.7457 10.5439 14.9649L17.085 8.42386L18.8525 10.1914L12.3115 16.7325C10.5542 18.4896 7.70557 18.4896 5.94824 16.7325C4.19088 14.9751 4.19088 12.1256 5.94824 10.3682L12.4883 3.82816L14.2568 5.59574Z" fill="black"/>
</svg>
