<svg width="24" height="24" viewBox="0 0 24 24" fill="none" xmlns="http://www.w3.org/2000/svg">
<path d="M11.5314 1.26646C11.6927 0.831804 12.3077 0.8317 12.4689 1.26646L13.3263 3.58384C14.5418 6.86837 17.1316 9.4583 20.4161 10.6737L22.7326 11.5311C23.1678 11.6922 23.1678 12.3075 22.7326 12.4686L20.4161 13.326C17.1315 14.5415 14.5417 17.1312 13.3263 20.4159L12.4689 22.7323C12.3078 23.1676 11.6925 23.1676 11.5314 22.7323L10.674 20.4159C9.45857 17.1313 6.86864 14.5415 3.58412 13.326L1.26674 12.4686C0.831941 12.3074 0.832033 11.6924 1.26674 11.5311L3.58412 10.6737C6.86868 9.45826 9.45854 6.86841 10.674 3.58384L11.5314 1.26646Z" fill="black"/>
</svg>
