<svg width="24" height="24" viewBox="0 0 24 24" fill="none" xmlns="http://www.w3.org/2000/svg">
<path d="M11.5254 1.78335C12.9038 0.405699 15.1384 0.405398 16.5166 1.78335C17.5039 2.77068 17.8111 4.24319 17.3154 5.53921C18.6115 5.0435 20.084 5.35169 21.0713 6.33902C22.449 7.71739 22.4493 9.95203 21.0713 11.3302L12.8076 19.5929C12.1109 20.2896 12.1109 21.4197 12.8076 22.1164C13.3506 22.6592 14.1795 22.7937 14.8662 22.4503L14.9697 22.3986L15.1934 22.8468L15.0898 22.8986C14.2107 23.3379 13.1491 23.1647 12.4541 22.4699C11.5622 21.5779 11.5621 20.1314 12.4541 19.2394L20.7178 10.9757C21.9 9.79276 21.9 7.8755 20.7178 6.69253C19.8419 5.81669 18.5204 5.56129 17.3818 6.04898L16.9922 6.21597L9.60156 13.6076L9.24805 13.2541L16.6387 5.86246L16.8057 5.47378C17.2936 4.33514 17.0381 3.01381 16.1621 2.13785C14.979 0.955003 13.062 0.955006 11.8789 2.13785L2.17676 11.839L1.82324 11.4855L11.5254 1.78335Z" fill="black"/>
<path d="M14.1973 4.06168L6.77246 11.4855C5.50327 12.7547 5.50329 14.813 6.77246 16.0822C8.04166 17.3514 10.0999 17.3514 11.3691 16.0822L18.7939 8.65738L19.1475 9.01089L11.7227 16.4357C10.2582 17.9002 7.88341 17.9002 6.41895 16.4357C4.95451 14.9712 4.95449 12.5964 6.41895 11.132L13.8438 3.70718L14.1973 4.06168Z" fill="black"/>
</svg>
