<svg width="24" height="24" viewBox="0 0 24 24" fill="none" xmlns="http://www.w3.org/2000/svg">
<path d="M11.5254 1.78341C12.9037 0.405648 15.1384 0.405415 16.5166 1.78341C17.5039 2.77078 17.8112 4.24324 17.3154 5.53926C18.6115 5.04352 20.0839 5.35074 21.0713 6.33809C22.4492 7.71632 22.449 9.95095 21.0713 11.3293L12.8076 19.593C12.1109 20.2897 12.1109 21.4197 12.8076 22.1164C13.3505 22.6591 14.1795 22.7937 14.8662 22.4504L14.9697 22.3986C15.0931 22.3372 15.243 22.3876 15.3047 22.5109C15.3663 22.6343 15.3165 22.784 15.1933 22.8459L15.0898 22.8977C14.2107 23.3372 13.1492 23.1648 12.4541 22.4699C11.5621 21.578 11.5621 20.1314 12.4541 19.2395L20.7178 10.9758C21.9002 9.79269 21.9004 7.87457 20.7178 6.69161C19.8419 5.81575 18.5204 5.5613 17.3818 6.04903L16.9922 6.21602L9.60154 13.6066C9.50394 13.7043 9.34566 13.7042 9.24803 13.6066C9.1504 13.509 9.1504 13.3508 9.24803 13.2531L16.6387 5.86251L16.8056 5.47286C17.2934 4.33429 17.038 3.0128 16.1621 2.13692C14.9791 0.95457 13.0619 0.954552 11.8789 2.13692L2.17674 11.8391C2.07913 11.9367 1.92086 11.9366 1.82322 11.8391C1.72559 11.7414 1.72559 11.5832 1.82322 11.4856L11.5254 1.78341Z" fill="black"/>
<path d="M13.8437 3.70723C13.9413 3.60977 14.0996 3.60979 14.1972 3.70723C14.2948 3.80482 14.2948 3.96311 14.1972 4.06075L6.77244 11.4856C5.5033 12.7548 5.50326 14.8131 6.77244 16.0822C8.04163 17.3513 10.0999 17.3513 11.3691 16.0822L18.7939 8.65743C18.8916 8.55992 19.0499 8.55984 19.1474 8.65743C19.2447 8.75504 19.2449 8.9134 19.1474 9.01094L11.7226 16.4357C10.2582 17.9001 7.88338 17.9001 6.41893 16.4357C4.95448 14.9713 4.95452 12.5965 6.41893 11.132L13.8437 3.70723Z" fill="black"/>
</svg>
