<svg width="24" height="24" viewBox="0 0 24 24" fill="none" xmlns="http://www.w3.org/2000/svg">
<path d="M10.9949 1.25306C12.6661 -0.417597 15.3755 -0.41778 17.0466 1.25306C17.9357 2.14212 18.3696 3.35615 18.2888 4.56557C19.4982 4.48475 20.7122 4.91874 21.6013 5.80775C23.2722 7.47888 23.272 10.1883 21.6013 11.8595L13.3377 20.1232C12.9339 20.527 12.9339 21.1823 13.3377 21.5861C13.6523 21.9006 14.133 21.9784 14.531 21.7794L14.6345 21.7287C15.1284 21.4819 15.7284 21.682 15.9753 22.1759C16.2221 22.6698 16.0218 23.2697 15.5281 23.5167L15.4246 23.5685C14.2567 24.1521 12.8469 23.9233 11.9236 23.0001C10.7387 21.8153 10.7387 19.894 11.9236 18.7091L20.1873 10.4454C21.0768 9.55536 21.0767 8.1129 20.1873 7.22279C19.5282 6.56372 18.5332 6.37135 17.6765 6.73842L17.4207 6.84779L10.1316 14.1378C9.7412 14.5281 9.10805 14.5279 8.71753 14.1378C8.32701 13.7473 8.32701 13.1133 8.71753 12.7228L16.0066 5.43373L16.116 5.17787C16.483 4.32114 16.2916 3.3262 15.6326 2.66713C14.7425 1.77733 13.2991 1.77751 12.4089 2.66713L2.70679 12.3693C2.31627 12.7598 1.68325 12.7598 1.29273 12.3693C0.902288 11.9787 0.902233 11.3457 1.29273 10.9552L10.9949 1.25306Z" fill="black"/>
<path d="M13.5505 3.4142C13.9411 3.02377 14.5741 3.0237 14.9646 3.4142C15.3548 3.80472 15.3549 4.43783 14.9646 4.82826L7.32789 12.465C6.46871 13.3242 6.46873 14.7171 7.32789 15.5763C8.1871 16.4353 9.58009 16.4354 10.4392 15.5763L18.0759 7.93959C18.4664 7.54923 19.0995 7.54932 19.49 7.93959C19.8802 8.3301 19.8803 8.96321 19.49 9.35365L11.8533 16.9904C10.2131 18.6305 7.55409 18.6304 5.91382 16.9904C4.27362 15.3501 4.2736 12.6912 5.91382 11.0509L13.5505 3.4142Z" fill="black"/>
</svg>
