<svg width="24" height="24" viewBox="0 0 24 24" fill="none" xmlns="http://www.w3.org/2000/svg">
<path d="M11.171 1.42994C12.7446 -0.14337 15.2956 -0.143254 16.8693 1.42994C17.7796 2.34023 18.1836 3.61196 18.0079 4.84693C19.2429 4.67133 20.5147 5.07437 21.4249 5.98462C22.998 7.55817 22.998 10.1093 21.4249 11.6829L13.1613 19.9465C12.6598 20.448 12.6598 21.2615 13.1613 21.7629C13.552 22.1533 14.1486 22.2501 14.6427 22.0032L14.7452 21.9514L15.4171 23.2932L15.3136 23.345C14.2419 23.8806 12.947 23.6706 12.0997 22.8235C11.0127 21.7364 11.0129 19.9732 12.0997 18.886L20.3634 10.6223C21.351 9.6345 21.351 8.03299 20.3634 7.04517C19.6321 6.3141 18.5297 6.10192 17.5792 6.50904L17.2775 6.63697L9.9552 13.9602L8.89368 12.8997L16.2169 5.57642L16.3458 5.27564C16.7531 4.32499 16.54 3.2218 15.8087 2.49048C14.821 1.50315 13.2203 1.50318 12.2325 2.49048L2.5304 12.1926L1.46985 11.1321L11.171 1.42994Z" fill="black"/>
<path d="M14.5509 4.41431L7.1261 11.8391C6.05242 12.913 6.05243 14.6539 7.1261 15.7278C8.20004 16.8017 9.94181 16.8017 11.0157 15.7278L18.4396 8.30298L19.5011 9.36451L12.0763 16.7883C10.4166 18.4481 7.72528 18.4481 6.06555 16.7883C4.4061 15.1287 4.40608 12.4382 6.06555 10.7786L13.4904 3.35376L14.5509 4.41431Z" fill="black"/>
</svg>
