<svg width="24" height="24" viewBox="0 0 24 24" fill="none" xmlns="http://www.w3.org/2000/svg">
<path d="M10.995 1.253C12.6662 -0.417574 15.3756 -0.417757 17.0468 1.253C17.9358 2.14202 18.3697 3.35613 18.2889 4.5655C19.4984 4.48468 20.7123 4.91957 21.6014 5.80866C23.2721 7.47992 23.2723 10.1893 21.6014 11.8604L13.3378 20.1241C12.9341 20.5279 12.9341 21.1823 13.3378 21.586C13.6525 21.9006 14.1331 21.9783 14.5311 21.7794L14.6346 21.7286L15.5282 23.5167L15.4247 23.5684C14.2568 24.1521 12.847 23.9232 11.9237 23.0001C10.7389 21.8152 10.7389 19.8939 11.9237 18.7091L20.1874 10.4454C21.0768 9.55526 21.0769 8.1128 20.1874 7.22272C19.5283 6.56366 18.5334 6.37128 17.6766 6.73835L17.4208 6.84772L10.1317 14.1378L8.71765 12.7237L16.0067 5.43366L16.1161 5.1778C16.4831 4.32124 16.2915 3.32711 15.6327 2.66804C14.7425 1.77809 13.2992 1.77809 12.4091 2.66804L2.70691 12.3692L1.29285 10.9551L10.995 1.253Z" fill="black"/>
<path d="M14.9647 4.82819L7.328 12.4649C6.46884 13.3241 6.46891 14.717 7.328 15.5762C8.18722 16.4352 9.58021 16.4354 10.4393 15.5762L18.076 7.93952L19.4901 9.35456L11.8534 16.9903C10.2132 18.6305 7.55421 18.6303 5.91394 16.9903C4.2738 15.35 4.27373 12.6911 5.91394 11.0508L13.5507 3.41413L14.9647 4.82819Z" fill="black"/>
</svg>
