<svg width="24" height="24" viewBox="0 0 24 24" fill="none" xmlns="http://www.w3.org/2000/svg">
<path d="M11.3488 1.60658C12.8248 0.131286 15.2177 0.130992 16.6935 1.60658C17.633 2.54612 17.998 3.89642 17.6954 5.15932C18.9583 4.85675 20.3086 5.22176 21.2482 6.16127C22.7238 7.63709 22.7235 10.03 21.2482 11.506L12.9845 19.7697C12.3854 20.3687 12.3854 21.3405 12.9845 21.9396C13.4514 22.4063 14.1645 22.5219 14.755 22.2267L14.8575 22.1749L15.3048 23.0704L15.2013 23.1212C14.2259 23.6087 13.0486 23.4176 12.2775 22.6466C11.2879 21.657 11.2879 20.0522 12.2775 19.0626L20.5411 10.799C21.6258 9.71363 21.6258 7.95461 20.5411 6.86928C19.7376 6.06569 18.5252 5.83194 17.4806 6.27943L17.1359 6.42592L9.77844 13.7843L9.07043 13.0763L16.4288 5.71889L16.5753 5.37416C17.0228 4.32956 16.7891 3.1172 15.9855 2.31361C14.9001 1.229 13.1411 1.22899 12.0558 2.31361L2.35364 12.0158L1.64661 11.3087L11.3488 1.60658Z" fill="black"/>
<path d="M14.3741 4.23744L6.94934 11.6622C5.77777 12.8338 5.77777 14.7338 6.94934 15.9054C8.12091 17.077 10.0209 17.077 11.1925 15.9054L18.6173 8.48061L19.3243 9.18764L11.8995 16.6124C10.3374 18.1745 7.80441 18.1745 6.24231 16.6124C4.68021 15.0503 4.68021 12.5173 6.24231 10.9552L13.6671 3.53041L14.3741 4.23744Z" fill="black"/>
</svg>
