<svg width="24" height="24" viewBox="0 0 24 24" fill="none" xmlns="http://www.w3.org/2000/svg">
<path d="M11.3487 1.60663C12.8247 0.13124 15.2176 0.131007 16.6934 1.60663C17.6329 2.5462 17.998 3.89646 17.6954 5.15936C18.9583 4.85678 20.3086 5.22177 21.2481 6.16132C22.7237 7.63717 22.7235 10.0301 21.2481 11.506L12.9845 19.7697C12.3854 20.3688 12.3854 21.3406 12.9845 21.9396C13.4513 22.4062 14.1645 22.5219 14.755 22.2267L14.8575 22.175C15.1044 22.0516 15.4048 22.1519 15.5284 22.3986C15.6519 22.6456 15.5518 22.947 15.3048 23.0705L15.2013 23.1213C14.2259 23.6087 13.0485 23.4175 12.2774 22.6467C11.2878 21.6571 11.2878 20.0523 12.2774 19.0627L20.5411 10.799C21.6259 9.71355 21.6261 7.95368 20.5411 6.86835C19.7375 6.06475 18.5252 5.83195 17.4806 6.27948L17.1358 6.42596L9.7784 13.7834C9.58314 13.9786 9.26566 13.9786 9.0704 13.7834C8.87556 13.5881 8.87537 13.2715 9.0704 13.0764L16.4288 5.71893L16.5753 5.37421C17.0229 4.32957 16.7891 3.11729 15.9854 2.31366C14.9001 1.22892 13.1411 1.22892 12.0557 2.31366L2.3536 12.0158C2.15837 12.211 1.84184 12.211 1.64657 12.0158C1.45131 11.8205 1.45131 11.504 1.64657 11.3088L11.3487 1.60663Z" fill="black"/>
<path d="M13.6671 3.53046C13.8623 3.33536 14.1789 3.33537 14.3741 3.53046C14.5693 3.72568 14.5692 4.04222 14.3741 4.23749L6.9493 11.6623C5.77779 12.8339 5.77775 14.7339 6.9493 15.9055C8.12086 17.0769 10.0209 17.0769 11.1925 15.9055L18.6173 8.48065C18.8125 8.28551 19.1291 8.28543 19.3243 8.48065C19.5192 8.6759 19.5193 8.99252 19.3243 9.18768L11.8995 16.6125C10.3374 18.1745 7.80436 18.1745 6.24227 16.6125C4.6802 15.0504 4.68024 12.5174 6.24227 10.9553L13.6671 3.53046Z" fill="black"/>
</svg>
