<svg width="24" height="24" viewBox="0 0 24 24" fill="none" xmlns="http://www.w3.org/2000/svg">
<path d="M10.4227 1.32624C12.1916 -0.441982 15.0592 -0.442177 16.828 1.32624C17.7013 2.19955 18.1598 3.36979 18.1532 4.55671C19.3399 4.55011 20.5094 5.00779 21.3827 5.88093C23.1513 7.64979 23.1513 10.5183 21.3827 12.2872L13.7635 19.9053C13.4578 20.2115 13.4585 20.7077 13.7645 21.0137C14.003 21.2522 14.3671 21.3109 14.6688 21.1602L14.7723 21.1094C15.3896 20.801 16.1403 21.051 16.4491 21.668C16.7576 22.2853 16.5075 23.0359 15.8905 23.3448L15.787 23.3966C14.5227 24.0286 12.9964 23.7807 11.9969 22.7813C10.7146 21.499 10.7139 19.4203 11.9959 18.1378L19.6151 10.5186C20.4069 9.72615 20.4069 8.44194 19.6151 7.64948C19.0283 7.06274 18.1425 6.89113 17.3797 7.21784L17.1678 7.30866L10.5584 13.919C10.0704 14.4068 9.27897 14.4067 8.79086 13.919C8.3027 13.4309 8.3027 12.6386 8.79086 12.1505L15.4002 5.54108L15.4911 5.32917C15.8177 4.56661 15.6468 3.68154 15.0604 3.09479C14.2678 2.30247 12.9828 2.30248 12.1903 3.09479L3.13363 12.1505C2.64548 12.6386 1.85421 12.6386 1.36605 12.1505C0.878023 11.6623 0.877941 10.871 1.36605 10.3829L10.4227 1.32624Z" fill="black"/>
<path d="M12.4881 3.82819C12.9763 3.3403 13.7686 3.34012 14.2567 3.82819C14.7442 4.31626 14.7443 5.10774 14.2567 5.59577L7.71566 12.1358C6.93462 12.9169 6.93462 14.1839 7.71566 14.9649C8.49668 15.7457 9.7628 15.7457 10.5438 14.9649L17.0848 8.4239C17.573 7.93613 18.3644 7.9359 18.8524 8.4239C19.3404 8.91192 19.3402 9.70329 18.8524 10.1915L12.3114 16.7325C10.5541 18.4896 7.70541 18.4896 5.94809 16.7325C4.19073 14.9751 4.19073 12.1256 5.94809 10.3682L12.4881 3.82819Z" fill="black"/>
</svg>
