<svg width="24" height="24" viewBox="0 0 24 24" fill="none" xmlns="http://www.w3.org/2000/svg">
<path fill-rule="evenodd" clip-rule="evenodd" d="M20.1727 8.73076L11.7634 2.33143C10.9631 1.72238 10.3073 1.22332 9.76362 0.882308C9.22511 0.544537 8.63073 0.250163 7.97268 0.256951C7.05883 0.266381 6.19834 0.682032 5.63175 1.38772C5.22375 1.89587 5.09679 2.53868 5.03889 3.16454C4.98044 3.79639 4.98045 4.61223 4.98047 5.60786L4.98047 18.3919C4.98045 19.3875 4.98044 20.2033 5.0389 20.8352C5.09679 21.461 5.22375 22.1039 5.63175 22.612C6.19834 23.3177 7.05883 23.7333 7.97268 23.7428C8.63073 23.7496 9.22511 23.4552 9.76362 23.1174C10.3073 22.7764 10.9631 22.2773 11.7634 21.6683L20.1727 15.269C20.7045 14.8643 21.1556 14.521 21.4948 14.2121C21.8468 13.8916 22.168 13.5307 22.3499 13.0622C22.6156 12.3781 22.6156 11.6216 22.3499 10.9375C22.168 10.4691 21.8468 10.1081 21.4948 9.78758C21.1556 9.47869 20.7045 9.13542 20.1727 8.73076ZM20.1256 11.2437C20.3859 11.4808 20.4466 11.5938 20.4668 11.6458C20.5554 11.8738 20.5554 12.1259 20.4668 12.354C20.4466 12.4059 20.3859 12.5189 20.1256 12.756C19.86 12.9979 19.4808 13.2876 18.9044 13.7263L10.5704 20.0683C9.72004 20.7154 9.13694 21.1579 8.68012 21.4444C8.20907 21.7399 8.03606 21.7594 7.99382 21.7589C7.6892 21.7558 7.40237 21.6173 7.2135 21.382C7.18731 21.3494 7.09718 21.2028 7.04653 20.6553C6.99742 20.1244 6.99641 19.3998 6.99641 18.3419V5.65786C6.99641 4.59995 6.99742 3.87533 7.04653 3.34442C7.09718 2.79695 7.18731 2.65031 7.2135 2.61769C7.40237 2.38247 7.6892 2.24392 7.99382 2.24077C8.03606 2.24034 8.20907 2.25987 8.68012 2.55533C9.13694 2.84186 9.72004 3.28434 10.5704 3.93147L18.9044 10.2735C19.4808 10.7121 19.86 11.0018 20.1256 11.2437Z" fill="black"/>
</svg>
