<svg width="24" height="24" viewBox="0 0 24 24" fill="none" xmlns="http://www.w3.org/2000/svg">
<path fill-rule="evenodd" clip-rule="evenodd" d="M20.1726 8.73076L11.7633 2.33143C10.963 1.72238 10.3072 1.22332 9.7635 0.882308C9.22499 0.544537 8.63061 0.250163 7.97256 0.256951C7.05871 0.266381 6.19821 0.682032 5.63162 1.38772C5.22363 1.89587 5.09667 2.53868 5.03877 3.16454C4.98032 3.79639 4.98033 4.61223 4.98035 5.60786L4.98035 18.3919C4.98033 19.3875 4.98032 20.2033 5.03877 20.8352C5.09667 21.461 5.22363 22.1039 5.63162 22.612C6.19821 23.3177 7.05871 23.7333 7.97256 23.7428C8.63061 23.7496 9.22499 23.4552 9.7635 23.1174C10.3072 22.7764 10.963 22.2773 11.7633 21.6683L20.1726 15.269C20.7044 14.8643 21.1555 14.521 21.4947 14.2121C21.8467 13.8916 22.1679 13.5307 22.3498 13.0622C22.6155 12.3781 22.6155 11.6216 22.3498 10.9375C22.1679 10.4691 21.8467 10.1081 21.4947 9.78758C21.1555 9.47869 20.7044 9.13542 20.1726 8.73076ZM20.1255 11.2437C20.3858 11.4808 20.4465 11.5938 20.4667 11.6458C20.5552 11.8738 20.5552 12.1259 20.4667 12.354C20.4465 12.4059 20.3858 12.5189 20.1255 12.756C19.8598 12.9979 19.4807 13.2876 18.9043 13.7263L10.5703 20.0683C9.71992 20.7154 9.13682 21.1579 8.68 21.4444C8.20895 21.7399 8.03593 21.7594 7.99369 21.7589C7.68908 21.7558 7.40225 21.6173 7.21338 21.382C7.18719 21.3494 7.09706 21.2028 7.04641 20.6553C6.99729 20.1244 6.99629 19.3998 6.99629 18.3419V5.65786C6.99629 4.59995 6.99729 3.87533 7.04641 3.34442C7.09706 2.79695 7.18719 2.65031 7.21338 2.61769C7.40225 2.38247 7.68908 2.24392 7.99369 2.24077C8.03593 2.24034 8.20895 2.25987 8.68 2.55533C9.13682 2.84186 9.71992 3.28434 10.5703 3.93147L18.9043 10.2735C19.4807 10.7121 19.8598 11.0018 20.1255 11.2437Z" fill="black"/>
</svg>
