<svg width="24" height="24" viewBox="0 0 24 24" fill="none" xmlns="http://www.w3.org/2000/svg">
<path d="M16 0.750977C16.4142 0.750977 16.75 1.08676 16.75 1.50098C16.7497 1.91497 16.4141 2.25098 16 2.25098L12.5039 2.25C12.6576 2.33816 12.7764 2.47836 12.8369 2.64746L15.4873 5.29883C15.78 5.59174 15.7801 6.06656 15.4873 6.35938C15.1945 6.65194 14.7196 6.65194 14.4268 6.35938L12.8828 4.81543V19.3428L14.4268 17.7988C14.7196 17.506 15.1944 17.5062 15.4873 17.7988C15.78 18.0917 15.7801 18.5666 15.4873 18.8594L12.8828 21.4648C12.8807 21.5663 12.858 21.6632 12.8193 21.751H16C16.4142 21.751 16.75 22.0868 16.75 22.501C16.7497 22.915 16.4141 23.251 16 23.251L8 23.25C7.58579 23.25 7.25 22.9142 7.25 22.5C7.25026 22.086 7.58595 21.75 8 21.75H11.4473C11.4097 21.6647 11.3879 21.5711 11.3848 21.4727L8.77051 18.8584C8.47786 18.5655 8.4777 18.0907 8.77051 17.7979C9.06336 17.5055 9.5383 17.5054 9.83105 17.7979L11.3828 19.3496V4.80664L9.83105 6.3584C9.53816 6.65129 9.0634 6.65129 8.77051 6.3584C8.47786 6.06549 8.4777 5.59066 8.77051 5.29785L11.4326 2.63574C11.4944 2.47135 11.612 2.33618 11.7627 2.25H8C7.58579 2.25 7.25 1.91421 7.25 1.5C7.25026 1.08601 7.58595 0.75 8 0.75L16 0.750977Z" fill="black"/>
</svg>
