<svg width="24" height="24" viewBox="0 0 24 24" fill="none" xmlns="http://www.w3.org/2000/svg">
<path d="M11.2451 3.11621C11.7333 2.62806 12.5245 2.62806 13.0127 3.11621L15.8408 5.94434C16.329 6.43249 16.329 7.22376 15.8408 7.71191C15.3527 8.20007 14.5614 8.20007 14.0732 7.71191L13.3828 7.02148V17.1348L14.0732 16.4443C14.5614 15.9562 15.3536 15.9562 15.8418 16.4443C16.3296 16.9324 16.3296 17.7238 15.8418 18.2119L13.0127 21.04C12.9278 21.125 12.8335 21.1946 12.7334 21.25H16C16.6904 21.25 17.25 21.8096 17.25 22.5C17.25 23.1904 16.6904 23.75 16 23.75H8C7.30964 23.75 6.75 23.1904 6.75 22.5C6.75 21.8096 7.30964 21.25 8 21.25H11.5254C11.4251 21.1946 11.3302 21.1251 11.2451 21.04L8.41699 18.2119C7.92884 17.7238 7.92884 16.9325 8.41699 16.4443C8.90515 15.9562 9.69643 15.9562 10.1846 16.4443L10.8828 17.1426V7.01367L10.1846 7.71191C9.69642 8.20007 8.90515 8.20007 8.41699 7.71191C7.92884 7.22376 7.92884 6.43249 8.41699 5.94434L11.2451 3.11621Z" fill="black"/>
<path d="M16 0.25C16.6904 0.25 17.25 0.809644 17.25 1.5C17.25 2.19036 16.6904 2.75 16 2.75H8C7.30964 2.75 6.75 2.19036 6.75 1.5C6.75 0.809644 7.30964 0.25 8 0.25H16Z" fill="black"/>
</svg>
