<svg width="24" height="24" viewBox="0 0 24 24" fill="none" xmlns="http://www.w3.org/2000/svg">
<path d="M1.5 6.5C2.05225 6.50004 2.5 6.94774 2.5 7.5V15.5C2.49969 16.052 2.05206 16.5 1.5 16.5C0.947742 16.5 0.500043 16.0513 0.5 15.499V7.49902C0.500264 6.94696 0.947878 6.5 1.5 6.5Z" fill="black"/>
<path d="M22.5 6.5C23.0522 6.50004 23.5 6.94774 23.5 7.5V15.5C23.4997 16.052 23.0521 16.5 22.5 16.5C21.9477 16.5 21.5 16.0513 21.5 15.499V11.7568C21.4512 11.8734 21.3801 11.9832 21.2852 12.0781L18.457 14.9062C18.0666 15.2967 17.4335 15.2966 17.043 14.9062C16.6524 14.5157 16.6524 13.8827 17.043 13.4922L18.168 12.3672H5.91016L7.03516 13.4922C7.4256 13.8827 7.42565 14.5167 7.03516 14.9072C6.64465 15.2973 6.0115 15.2975 5.62109 14.9072L2.79297 12.0781C2.40255 11.6876 2.40248 11.0546 2.79297 10.6641L5.62109 7.83594C6.01158 7.44545 6.64462 7.44552 7.03516 7.83594C7.4256 8.22647 7.42565 8.8595 7.03516 9.25L5.91797 10.3672H18.1602L17.043 9.24902C16.6525 8.8585 16.6525 8.22547 17.043 7.83496C17.4335 7.44481 18.0666 7.44461 18.457 7.83496L21.2852 10.6641C21.3796 10.7586 21.4513 10.8673 21.5 10.9834V7.49902C21.5003 6.94696 21.9479 6.5 22.5 6.5Z" fill="black"/>
</svg>
