<svg width="24" height="24" viewBox="0 0 24 24" fill="none" xmlns="http://www.w3.org/2000/svg">
<path d="M11.7764 2.14648C11.9717 1.95162 12.2883 1.95233 12.4834 2.14746L15.3115 4.97559L14.6045 5.68262L12.6338 3.71191V20.3672L14.6045 18.3975L15.3115 19.1045L12.4834 21.9326C12.4571 21.9589 12.4276 21.9808 12.3975 22L16.001 22.001V23.001L8.00098 23V22H11.8623C11.8319 21.9807 11.802 21.9582 11.7754 21.9316L8.94727 19.1035L9.6543 18.3965L11.6338 20.376V3.70312L9.6543 5.68164L8.94727 4.97461L11.7764 2.14648Z" fill="black"/>
<path d="M16.001 1.00098V2.00098L8.00098 2V1L16.001 1.00098Z" fill="black"/>
</svg>
