<svg width="24" height="24" viewBox="0 0 24 24" fill="none" xmlns="http://www.w3.org/2000/svg">
<path d="M2.75 7.50098V15.501L0.25 15.5V7.5L2.75 7.50098Z" fill="black"/>
<path d="M23.75 7.50098V15.501L21.25 15.5V11.9756C21.1946 12.0758 21.1251 12.1708 21.04 12.2559L18.2119 15.084L16.4443 13.3164L17.1436 12.6172H7.0127L7.71191 13.3164L5.94434 15.084L3.11621 12.2559C2.62806 11.7677 2.62806 10.9764 3.11621 10.4883L5.94434 7.66016L7.71191 9.42773L7.02246 10.1172H17.1338L16.4443 9.42773L18.2119 7.65918L21.04 10.4883C21.1249 10.5732 21.1946 10.6675 21.25 10.7676V7.5L23.75 7.50098Z" fill="black"/>
</svg>
