<svg width="24" height="24" viewBox="0 0 24 24" fill="none" xmlns="http://www.w3.org/2000/svg">
<path d="M22.5 6.75C22.9142 6.75004 23.25 7.08581 23.25 7.5V15.5C23.25 15.9142 22.9142 16.25 22.5 16.25C22.0858 16.25 21.75 15.9142 21.75 15.5V12.0527C21.6643 12.0906 21.5707 12.1131 21.4717 12.1162L18.8584 14.7314C18.5656 15.0241 18.0907 15.024 17.7979 14.7314C17.505 14.4386 17.5051 13.9638 17.7979 13.6709L19.3496 12.1182H4.80664L6.3584 13.6699C6.65121 13.9628 6.65127 14.4376 6.3584 14.7305C6.06551 15.0231 5.59067 15.0232 5.29785 14.7305L2.63477 12.0674C2.47077 12.0056 2.3361 11.8886 2.25 11.7383V15.5C2.24996 15.9142 1.91415 16.25 1.5 16.25C1.08581 16.25 0.750043 15.9142 0.75 15.5V7.5C0.75 7.08579 1.08579 6.75 1.5 6.75C1.91418 6.75004 2.25 7.08581 2.25 7.5V10.9961C2.33802 10.8429 2.47699 10.7246 2.64551 10.6641L5.29785 8.0127C5.59066 7.71988 6.06549 7.72005 6.3584 8.0127C6.65121 8.30559 6.65127 8.78037 6.3584 9.07324L4.81445 10.6182H19.3418L17.7979 9.07422C17.505 8.78133 17.505 8.30657 17.7979 8.01367C18.0907 7.72078 18.5655 7.72078 18.8584 8.01367L21.4629 10.6182C21.5649 10.6201 21.6618 10.6428 21.75 10.6816V7.5C21.75 7.08579 22.0858 6.75 22.5 6.75Z" fill="black"/>
</svg>
