<svg width="24" height="24" viewBox="0 0 24 24" fill="none" xmlns="http://www.w3.org/2000/svg">
<path d="M11.7759 2.14648C11.9712 1.95162 12.2878 1.95233 12.4829 2.14746L15.311 4.97559C15.506 5.17082 15.5061 5.48742 15.311 5.68262C15.1158 5.87755 14.7992 5.87755 14.604 5.68262L12.6333 3.71191V20.3672L14.604 18.3975C14.7993 18.2022 15.1158 18.2022 15.311 18.3975C15.5058 18.5928 15.5061 18.9094 15.311 19.1045L12.4829 21.9326C12.4566 21.9589 12.4271 21.9808 12.397 22L16.0005 22.001C16.2766 22.001 16.5005 22.2248 16.5005 22.501C16.5002 22.7769 16.2765 23.001 16.0005 23.001L8.00049 23C7.72435 23 7.50049 22.7761 7.50049 22.5C7.50075 22.2241 7.72451 22 8.00049 22H11.8618C11.8314 21.9807 11.8015 21.9582 11.7749 21.9316L8.94678 19.1035C8.75184 18.9083 8.75184 18.5917 8.94678 18.3965C9.14198 18.2015 9.45861 18.2015 9.65381 18.3965L11.6333 20.376V3.70312L9.65381 5.68164C9.45854 5.87687 9.14203 5.87689 8.94678 5.68164C8.7521 5.48634 8.75174 5.16968 8.94678 4.97461L11.7759 2.14648Z" fill="black"/>
<path d="M16.0005 1.00098C16.2766 1.00098 16.5005 1.22483 16.5005 1.50098C16.5002 1.77689 16.2765 2.00098 16.0005 2.00098L8.00049 2C7.72435 2 7.50049 1.77614 7.50049 1.5C7.50075 1.22408 7.72451 1 8.00049 1L16.0005 1.00098Z" fill="black"/>
</svg>
