<svg width="24" height="24" viewBox="0 0 24 24" fill="none" xmlns="http://www.w3.org/2000/svg">
<path d="M16 22.5H8V22H16V22.5Z" fill="black"/>
<path fill-rule="evenodd" clip-rule="evenodd" d="M11.9521 2.07324C12.0498 1.97561 12.208 1.97561 12.3057 2.07324L15.1338 4.90137L14.7803 5.25488L12.3828 2.85742V20.7207L14.7803 18.3232L15.1338 18.6768L12.3057 21.5049C12.208 21.6025 12.0498 21.6025 11.9521 21.5049L9.12402 18.6768L9.47754 18.3232L11.8828 20.7285V2.84961L9.47754 5.25488L9.12402 4.90137L11.9521 2.07324ZM12.084 2.64844H12.1738L12.1289 2.60352L12.084 2.64844Z" fill="black"/>
<path d="M16 1.5H8V1H16V1.5Z" fill="black"/>
</svg>
