<svg width="24" height="24" viewBox="0 0 24 24" fill="none" xmlns="http://www.w3.org/2000/svg">
<path d="M1.5 7.24902C1.63805 7.24905 1.75 7.36194 1.75 7.5V15.5C1.74971 15.6378 1.63788 15.75 1.5 15.75C1.36194 15.75 1.25002 15.6371 1.25 15.499V7.49902C1.25026 7.36118 1.36209 7.24902 1.5 7.24902Z" fill="black"/>
<path d="M22.5 7.24902C22.6381 7.24905 22.75 7.36194 22.75 7.5V15.5C22.7497 15.6378 22.6379 15.75 22.5 15.75C22.3619 15.75 22.25 15.6371 22.25 15.499V7.49902C22.2503 7.36118 22.3621 7.24902 22.5 7.24902Z" fill="black"/>
<path d="M18.5732 8.36523C18.6709 8.26785 18.8292 8.26768 18.9268 8.36523L21.7549 11.1934C21.8525 11.291 21.8525 11.4502 21.7549 11.5479L18.9268 14.376C18.8292 14.4735 18.6709 14.4733 18.5732 14.376C18.4756 14.2783 18.4756 14.1201 18.5732 14.0225L20.9795 11.6162H3.09863L5.50488 14.0225C5.60246 14.1201 5.60249 14.2784 5.50488 14.376C5.40726 14.4735 5.24898 14.4735 5.15137 14.376L2.32324 11.5479C2.22564 11.4502 2.22569 11.292 2.32324 11.1943L5.15137 8.36523C5.24895 8.26777 5.40727 8.26781 5.50488 8.36523C5.60244 8.46283 5.60239 8.62112 5.50488 8.71875L3.1084 11.1162H20.9697L18.5732 8.71875C18.4756 8.62112 18.4756 8.46287 18.5732 8.36523Z" fill="black"/>
</svg>
