<svg width="24" height="24" viewBox="0 0 24 24" fill="none" xmlns="http://www.w3.org/2000/svg">
<path d="M16 22C16.1381 22 16.25 22.1119 16.25 22.25C16.25 22.3881 16.1381 22.5 16 22.5H8C7.86193 22.5 7.75 22.3881 7.75 22.25C7.75 22.1119 7.86193 22 8 22H16Z" fill="black"/>
<path d="M11.9521 2.07324C12.0498 1.97561 12.208 1.97561 12.3057 2.07324L15.1338 4.90137C15.2314 4.999 15.2314 5.15725 15.1338 5.25488C15.0362 5.35251 14.8779 5.35251 14.7803 5.25488L12.3828 2.85742V20.7207L14.7803 18.3232C14.8779 18.2256 15.0362 18.2256 15.1338 18.3232C15.2314 18.4209 15.2314 18.5791 15.1338 18.6768L12.3057 21.5049C12.208 21.6025 12.0498 21.6025 11.9521 21.5049L9.12402 18.6768C9.02639 18.5791 9.02639 18.4209 9.12402 18.3232C9.22165 18.2256 9.37991 18.2256 9.47754 18.3232L11.8828 20.7285V2.84961L9.47754 5.25488C9.37991 5.35251 9.22165 5.35251 9.12402 5.25488C9.02639 5.15725 9.02639 4.999 9.12402 4.90137L11.9521 2.07324Z" fill="black"/>
<path d="M16 1C16.1381 1 16.25 1.11193 16.25 1.25C16.25 1.38807 16.1381 1.5 16 1.5H8C7.86193 1.5 7.75 1.38807 7.75 1.25C7.75 1.11193 7.86193 1 8 1H16Z" fill="black"/>
</svg>
