<svg width="24" height="24" viewBox="0 0 24 24" fill="none" xmlns="http://www.w3.org/2000/svg">
<path d="M11.4219 2.79297C11.8124 2.4028 12.4455 2.40354 12.8359 2.79395L15.6641 5.62207L14.25 7.03613L13.1328 5.91895V18.1611L14.25 17.0439L15.6641 18.458L12.8359 21.2861C12.7412 21.3808 12.6319 21.4522 12.5156 21.501H16V23.501L8 23.5V21.5L11.7432 21.501C11.6265 21.4522 11.5169 21.3801 11.4219 21.2852L8.59375 18.457L10.0078 17.043L11.1328 18.168V5.91016L10.0078 7.03516L8.59277 5.62109L11.4219 2.79297Z" fill="black"/>
<path d="M16 0.500977V2.50098L8 2.5V0.5L16 0.500977Z" fill="black"/>
</svg>
