<svg width="24" height="24" viewBox="0 0 24 24" fill="none" xmlns="http://www.w3.org/2000/svg">
<path d="M11.5986 2.46973C11.8915 2.17708 12.3664 2.17789 12.6592 2.4707L15.4873 5.29883L14.4268 6.35938L12.8828 4.81543V19.3428L14.4268 17.7988L15.4873 18.8594L12.6592 21.6885C12.6365 21.7111 12.6116 21.7309 12.5869 21.75L16 21.751V23.251L8 23.25V21.75H11.6719C11.6468 21.7307 11.6216 21.7104 11.5986 21.6875L8.77051 18.8584L9.83105 17.7979L11.3828 19.3496V4.80664L9.83105 6.3584L8.77051 5.29785L11.5986 2.46973Z" fill="black"/>
<path d="M16 0.750977V2.25098L8 2.25V0.75L16 0.750977Z" fill="black"/>
</svg>
