<svg width="24" height="24" viewBox="0 0 24 24" fill="none" xmlns="http://www.w3.org/2000/svg">
<path d="M5.29002 15.9149L3.8582 21.2585C3.74103 21.6958 3.68245 21.9144 3.74033 22.0658C3.79083 22.1979 3.89488 22.3024 4.02672 22.3535C4.17787 22.412 4.39676 22.3544 4.83455 22.2392L6.95769 21.6804C7.11883 21.638 7.1994 21.6168 7.27779 21.6211C7.34716 21.6248 7.41498 21.643 7.47694 21.6744C7.54695 21.7099 7.60612 21.7686 7.72447 21.8859L9.28378 23.4314C9.6053 23.75 9.76607 23.9094 9.92624 23.9342C10.066 23.9559 10.2083 23.9174 10.3181 23.8283C10.4439 23.7261 10.5025 23.5075 10.6197 23.0702L11.8445 18.499C9.32346 18.4606 7.02863 17.4892 5.29002 15.9149Z" fill="black"/>
<path d="M12.1223 18.4994L13.347 23.0702C13.4642 23.5075 13.5227 23.7261 13.6486 23.8283C13.7583 23.9174 13.9007 23.9559 14.0404 23.9342C14.2006 23.9094 14.3614 23.75 14.6829 23.4314L16.2422 21.8859C16.3605 21.7686 16.4197 21.7099 16.4897 21.6744C16.5517 21.643 16.6195 21.6248 16.6889 21.6211C16.7673 21.6168 16.8478 21.638 17.009 21.6804L19.1321 22.2392C19.5699 22.3544 19.7888 22.412 19.9399 22.3535C20.0718 22.3024 20.1758 22.1979 20.2263 22.0658C20.2842 21.9144 20.2256 21.6958 20.1085 21.2585L18.6831 15.9391C16.9401 17.506 14.6434 18.4692 12.1223 18.4994Z" fill="black"/>
<path d="M18.2372 14.2749C19.6416 12.7588 20.5 10.7297 20.5 8.50017C20.5 4.39255 17.5864 0.96545 13.713 0.172857C13.1597 0.0596294 12.5868 0.000167821 12 0.000167847C7.30558 0.000168052 3.5 3.80575 3.5 8.50017C3.5 10.554 4.22841 12.4377 5.44099 13.907C5.53667 14.0229 5.63536 14.1362 5.73695 14.2469C7.29067 15.9393 9.52145 17.0002 12 17.0002C14.4649 17.0002 16.6847 15.951 18.2372 14.2749Z" fill="black"/>
</svg>
