<svg width="24" height="24" viewBox="0 0 24 24" fill="none" xmlns="http://www.w3.org/2000/svg">
<path fill-rule="evenodd" clip-rule="evenodd" d="M18.3403 14.1615L20.1083 20.7595C20.2254 21.1968 20.284 21.4154 20.2261 21.5668C20.1756 21.6989 20.0716 21.8034 19.9397 21.8545C19.7886 21.9131 19.5697 21.8554 19.1319 21.7402L17.0088 21.1815C16.8476 21.139 16.767 21.1178 16.6887 21.1221C16.6193 21.1259 16.5515 21.144 16.4895 21.1755C16.4195 21.211 16.3603 21.2696 16.242 21.3869L14.6827 22.9324C14.3611 23.2511 14.2004 23.4104 14.0402 23.4353C13.9005 23.457 13.7581 23.4185 13.6484 23.3293C13.5225 23.2272 13.4639 23.0085 13.3468 22.5713L11.9831 17.482L10.6195 22.5713C10.5023 23.0085 10.4437 23.2272 10.3179 23.3293C10.2081 23.4185 10.0657 23.457 9.92602 23.4353C9.76585 23.4104 9.60508 23.2511 9.28356 22.9324L7.72425 21.3869C7.6059 21.2696 7.54673 21.211 7.47672 21.1755C7.41476 21.144 7.34694 21.1259 7.27757 21.1221C7.19918 21.1179 7.11861 21.1391 6.95747 21.1815L4.83433 21.7402C4.39654 21.8555 4.17765 21.9131 4.02651 21.8545C3.89466 21.8034 3.79061 21.6989 3.74011 21.5668C3.68223 21.4154 3.74081 21.1968 3.85798 20.7595L5.63375 14.1323C4.30602 12.6326 3.5 10.6605 3.5 8.50001C3.5 3.80559 7.30558 7.83459e-06 12 7.62939e-06C16.6944 7.42419e-06 20.5 3.80559 20.5 8.50001C20.5 10.6745 19.6835 12.6583 18.3403 14.1615ZM19 8.50001C19 12.366 15.866 15.5 12 15.5C8.13401 15.5 5 12.366 5 8.50001C5 4.63401 8.13401 1.50001 12 1.50001C15.866 1.50001 19 4.63402 19 8.50001ZM13.3771 16.889C14.7556 16.6645 16.0226 16.1084 17.0939 15.3052L18.3472 19.9826L17.3905 19.7309L17.3676 19.7245C17.2656 19.6959 16.9449 19.606 16.6075 19.6243C16.33 19.6393 16.0587 19.712 15.8109 19.8377C15.5096 19.9906 15.2768 20.2288 15.2027 20.3046L15.1861 20.3215L14.4835 21.0179L13.3771 16.889ZM6.87804 15.2841C7.94682 16.0923 9.21257 16.6537 10.5905 16.8837L9.48276 21.0179L8.78018 20.3216L8.7635 20.3046C8.68946 20.2288 8.45667 19.9906 8.15532 19.8377C7.90751 19.712 7.63622 19.6393 7.35874 19.6243C7.02133 19.606 6.70062 19.6959 6.59862 19.7245L6.5757 19.7309L5.61906 19.9826L6.87804 15.2841Z" fill="black"/>
</svg>
