<svg width="24" height="24" viewBox="0 0 24 24" fill="none" xmlns="http://www.w3.org/2000/svg">
<path fill-rule="evenodd" clip-rule="evenodd" d="M23.8769 8.43565C24 9.21298 24 10.142 24 12C24 13.858 24 14.787 23.8769 15.5643C23.1992 19.8433 19.8433 23.1992 15.5643 23.8769C14.787 24 13.858 24 12 24C10.142 24 9.21298 24 8.43565 23.8769C4.15673 23.1992 0.800833 19.8433 0.123117 15.5643C0 14.787 0 13.858 0 12C0 10.142 0 9.21298 0.123117 8.43565C0.800833 4.15673 4.15673 0.800832 8.43565 0.123117C9.21298 0 10.142 0 12 0C13.858 0 14.787 0 15.5643 0.123117C19.8433 0.800832 23.1992 4.15673 23.8769 8.43565ZM13.6667 6.459C13.6667 5.99136 13.0819 5.77965 12.7826 6.13891L10.1437 9.30551C9.95373 9.53351 9.67228 9.66533 9.3755 9.66533H8C7.44772 9.66533 7 10.113 7 10.6653V13.332C7 13.8843 7.44772 14.332 8 14.332H9.3755C9.67228 14.332 9.95373 14.4638 10.1437 14.6918L12.7826 17.8584C13.0819 18.2177 13.6667 18.006 13.6667 17.5383V6.459ZM14.8322 10.0324C15.1173 9.73189 15.592 9.71944 15.8925 10.0046C16.4196 10.5047 16.7498 11.2142 16.7498 11.9996C16.7498 12.7315 16.4629 13.398 15.9969 13.8902C15.7121 14.1909 15.2374 14.2039 14.9366 13.9191C14.6359 13.6343 14.6229 13.1596 14.9077 12.8588C15.1204 12.6342 15.2498 12.3328 15.2498 11.9996C15.2498 11.6425 15.101 11.3214 14.86 11.0927C14.5595 10.8075 14.5471 10.3328 14.8322 10.0324Z" fill="black"/>
</svg>
