<svg width="24" height="24" viewBox="0 0 24 24" fill="none" xmlns="http://www.w3.org/2000/svg">
<path d="M1.40972 1.32026C1.11683 1.02736 0.641958 1.02736 0.349064 1.32026C0.0561712 1.61315 0.0561712 2.08802 0.349064 2.38092L20.146 22.1779C20.4389 22.4708 20.9138 22.4708 21.2067 22.1779C21.4996 21.885 21.4996 21.4101 21.2067 21.1172L1.40972 1.32026Z" fill="black"/>
<path d="M3 8.50044H3.99322L11.5 16.0072V20.3099C11.5 21.0114 10.6229 21.3289 10.1738 20.7901L6.21558 16.0402C5.93059 15.6982 5.50842 15.5004 5.06325 15.5004H3C2.17157 15.5004 1.5 14.8289 1.5 14.0004V10.0004C1.5 9.17201 2.17157 8.50044 3 8.50044Z" fill="black"/>
<path d="M13.8802 11.3163L15.8039 13.2401C15.9312 12.8497 16 12.4329 16 12.0005C16 10.858 15.5198 9.82614 14.753 9.09852C14.3523 8.71836 13.7194 8.73496 13.3392 9.13559C12.9591 9.53622 12.9757 10.1692 13.3763 10.5493C13.5995 10.7611 13.7734 11.0227 13.8802 11.3163Z" fill="black"/>
<path d="M17.2307 14.6668L18.67 16.1061C19.5061 14.953 20 13.5337 20 12.0004C20 10.039 19.192 8.26456 17.8932 6.99482C17.4983 6.60873 16.8652 6.61588 16.4791 7.01079C16.093 7.40569 16.1002 8.03882 16.4951 8.42491C17.4248 9.33388 18 10.5991 18 12.0004C18 12.9812 17.7183 13.895 17.2307 14.6668Z" fill="black"/>
<path d="M19.932 17.3682L21.3476 18.7838C22.9932 17.0021 24 14.6178 24 12.0004C24 9.21909 22.8632 6.70141 21.0314 4.88987C20.6387 4.50152 20.0055 4.50505 19.6172 4.89774C19.2288 5.29044 19.2323 5.92359 19.625 6.31194C21.0926 7.76321 22 9.77493 22 12.0004C22 14.0665 21.218 15.948 19.932 17.3682Z" fill="black"/>
<path d="M8.17421 5.61036L11.5 8.93615V3.69095C11.5 2.98948 10.6229 2.67192 10.1738 3.21081L8.17421 5.61036Z" fill="black"/>
</svg>
