<svg width="24" height="24" viewBox="0 0 24 24" fill="none" xmlns="http://www.w3.org/2000/svg">
<path d="M1.40972 1.32026C1.11683 1.02736 0.641958 1.02736 0.349064 1.32026C0.0561712 1.61315 0.0561712 2.08802 0.349064 2.38092L20.146 22.1779C20.4389 22.4708 20.9138 22.4708 21.2067 22.1779C21.4996 21.885 21.4996 21.4101 21.2067 21.1172L1.40972 1.32026Z" fill="black"/>
<path d="M0 10.2228C0 8.64787 1.26026 7.3673 2.82732 7.33454L4.82382 9.33103C4.79031 9.33293 4.75665 9.33389 4.72289 9.33389H2.88889C2.39797 9.33389 2 9.73186 2 10.2228V13.7783C2 14.2693 2.39797 14.6672 2.88889 14.6672H4.72289C5.2505 14.6672 5.75085 14.9016 6.08862 15.3069L9.60706 19.529C9.74012 19.6887 10 19.5946 10 19.3868V14.5072L12 16.5072V19.3868C12 21.4652 9.4012 22.4061 8.07062 20.8094L4.61881 16.6672H2.88889C1.2934 16.6672 0 15.3738 0 13.7783V10.2228Z" fill="black"/>
<path d="M10 7.43615L12 9.43615V4.61435C12 2.53591 9.4012 1.59502 8.07062 3.19172L7.01832 4.45447L8.43837 5.87452L9.60706 4.47208C9.74012 4.31241 10 4.4065 10 4.61435V7.43615Z" fill="black"/>
<path d="M13.8801 11.3163L15.804 13.2401C15.9312 12.8497 16 12.433 16 12.0006C16 10.8581 15.5198 9.82624 14.753 9.09862C14.3523 8.71846 13.7194 8.73506 13.3392 9.13569C12.9591 9.53632 12.9757 10.1693 13.3763 10.5494C13.5995 10.7612 13.7733 11.0227 13.8801 11.3163Z" fill="black"/>
<path d="M17.2307 14.6668L18.67 16.1062C19.5061 14.9531 20 13.5338 20 12.0005C20 10.0391 19.192 8.26466 17.8932 6.99492C17.4983 6.60883 16.8652 6.61598 16.4791 7.01089C16.093 7.40579 16.1002 8.03892 16.4951 8.42501C17.4248 9.33398 18 10.5992 18 12.0005C18 12.9812 17.7183 13.8951 17.2307 14.6668Z" fill="black"/>
<path d="M19.9321 17.3682L21.3477 18.7838C22.9932 17.0021 24 14.6179 24 12.0005C24 9.21919 22.8632 6.70151 21.0314 4.88997C20.6387 4.50162 20.0055 4.50515 19.6172 4.89784C19.2288 5.29054 19.2323 5.92369 19.625 6.31204C21.0926 7.76331 22 9.77503 22 12.0005C22 14.0666 21.218 15.9481 19.9321 17.3682Z" fill="black"/>
</svg>
