<svg width="24" height="24" viewBox="0 0 24 24" fill="none" xmlns="http://www.w3.org/2000/svg">
<path d="M21.2501 2C21.2501 1.58579 20.9144 1.25 20.5001 1.25C20.0859 1.25 19.7501 1.58579 19.7501 2V22C19.7501 22.4142 20.0859 22.75 20.5001 22.75C20.9144 22.75 21.2501 22.4142 21.2501 22V2Z" fill="black"/>
<path fill-rule="evenodd" clip-rule="evenodd" d="M14.7812 8.92134C15.3195 9.33096 15.7629 9.66842 16.0938 9.96974C16.4343 10.2798 16.723 10.6098 16.8847 11.0262C17.1282 11.6533 17.1282 12.3467 16.8847 12.9738C16.723 13.3902 16.4343 13.7202 16.0938 14.0303C15.7629 14.3316 15.3195 14.669 14.7812 15.0787L9.12995 19.3791C8.32191 19.994 7.67377 20.4873 7.13986 20.8222C6.60978 21.1546 6.06807 21.4147 5.487 21.4087C4.64931 21.4 3.86052 21.019 3.34114 20.3721C2.98088 19.9234 2.85852 19.3426 2.80153 18.7266C2.74412 18.1061 2.74413 17.2998 2.74414 16.2946V7.70549C2.74413 6.70026 2.74412 5.89394 2.80153 5.27343C2.85852 4.65737 2.98088 4.07658 3.34114 3.62787C3.86052 2.98099 4.64931 2.59998 5.487 2.59134C6.06807 2.58534 6.60978 2.84536 7.13986 3.17784C7.67377 3.51272 8.32191 4.00595 9.12994 4.62086L14.7812 8.92134ZM15.4723 11.5574C15.4319 11.4533 15.3387 11.3093 15.0669 11.0618C14.7911 10.8107 14.4015 10.5133 13.8287 10.0774L8.23626 5.82169C7.38984 5.17758 6.79605 4.72666 6.32724 4.43261C5.84775 4.13186 5.62207 4.07797 5.50285 4.0792C5.12208 4.08313 4.76354 4.25632 4.52746 4.55035C4.45354 4.64241 4.35881 4.85108 4.30726 5.40834C4.25685 5.95319 4.2561 6.69131 4.2561 7.74427V16.2557C4.2561 17.3087 4.25685 18.0468 4.30726 18.5917C4.35881 19.1489 4.45354 19.3576 4.52746 19.4496C4.76354 19.7437 5.12208 19.9169 5.50285 19.9208C5.62207 19.922 5.84775 19.8681 6.32724 19.5674C6.79605 19.2733 7.38984 18.8224 8.23626 18.1783L13.8287 13.9226C14.4015 13.4867 14.7911 13.1893 15.0669 12.9382C15.3387 12.6907 15.4319 12.5467 15.4723 12.4426C15.583 12.1576 15.583 11.8424 15.4723 11.5574Z" fill="black"/>
</svg>
