<svg width="24" height="24" viewBox="0 0 24 24" fill="none" xmlns="http://www.w3.org/2000/svg">
<path d="M6.57612 1.61732C6.5 1.80109 6.5 2.03406 6.5 2.5V21.5C6.5 21.9659 6.5 22.1989 6.57612 22.3827C6.67761 22.6277 6.87229 22.8224 7.11732 22.9239C7.30109 23 7.53406 23 8 23C8.46594 23 8.69891 23 8.88268 22.9239C9.12771 22.8224 9.32239 22.6277 9.42388 22.3827C9.5 22.1989 9.5 21.9659 9.5 21.5V2.5C9.5 2.03406 9.5 1.80109 9.42388 1.61732C9.32239 1.37229 9.12771 1.17761 8.88268 1.07612C8.69891 1 8.46594 1 8 1C7.53406 1 7.30109 1 7.11732 1.07612C6.87229 1.17761 6.67761 1.37229 6.57612 1.61732Z" fill="black"/>
<path d="M14.5761 1.61732C14.5 1.80109 14.5 2.03406 14.5 2.5V21.5C14.5 21.9659 14.5 22.1989 14.5761 22.3827C14.6776 22.6277 14.8723 22.8224 15.1173 22.9239C15.3011 23 15.5341 23 16 23C16.4659 23 16.6989 23 16.8827 22.9239C17.1277 22.8224 17.3224 22.6277 17.4239 22.3827C17.5 22.1989 17.5 21.9659 17.5 21.5V2.5C17.5 2.03406 17.5 1.80109 17.4239 1.61732C17.3224 1.37229 17.1277 1.17761 16.8827 1.07612C16.6989 1 16.4659 1 16 1C15.5341 1 15.3011 1 15.1173 1.07612C14.8723 1.17761 14.6776 1.37229 14.5761 1.61732Z" fill="black"/>
</svg>
