<svg width="24" height="24" viewBox="0 0 24 24" fill="none" xmlns="http://www.w3.org/2000/svg">
<path d="M18.624 0.615984C19.1121 0.127935 19.9034 0.128076 20.3916 0.615984L23.3711 3.5945C23.8706 4.09408 23.8705 4.90449 23.3711 5.40407L20.3916 8.38356C19.9035 8.87111 19.112 8.87132 18.624 8.38356C18.1359 7.89543 18.136 7.10315 18.624 6.61501L19.4893 5.74977H16.9082C16.494 5.74978 16.1582 6.0856 16.1582 6.49977V9.99977C16.1582 10.7549 15.8979 11.448 15.4658 11.9998C15.8979 12.5515 16.1582 13.2447 16.1582 13.9998V17.4998C16.1583 17.9139 16.4941 18.2498 16.9082 18.2498H19.4902L18.624 17.3836C18.1361 16.8954 18.136 16.1041 18.624 15.616C19.1121 15.1281 19.9035 15.1281 20.3916 15.616L23.3711 18.5955C23.8701 19.095 23.8702 19.9046 23.3711 20.4041L20.3916 23.3836C19.9035 23.8714 19.1121 23.8714 18.624 23.3836C18.136 22.8955 18.1362 22.1041 18.624 21.616L19.4902 20.7498H16.9082C15.1133 20.7498 13.6583 19.2946 13.6582 17.4998V13.9998C13.6582 13.5857 13.3222 13.25 12.9082 13.2498H11.1426C11.4229 12.4395 11.4228 11.5601 11.1426 10.7498H12.9082C13.3222 10.7496 13.6581 10.4138 13.6582 9.99977V6.49977C13.6582 4.70489 15.1133 3.24978 16.9082 3.24977H19.4902L18.624 2.38356C18.1362 1.89546 18.1362 1.10408 18.624 0.615984Z" fill="black"/>
<path fill-rule="evenodd" clip-rule="evenodd" d="M2.1543 5.87282C2.69799 5.86742 3.13571 6.11073 3.40723 6.28102C3.69654 6.46253 4.03427 6.72148 4.39356 6.99489L8.18262 9.8777C8.41944 10.0579 8.66385 10.2421 8.85352 10.4148C9.02546 10.5714 9.2378 10.7929 9.38672 11.0994L9.44629 11.2351C9.61348 11.6658 9.63512 12.1373 9.50977 12.5779L9.44629 12.7644C9.29933 13.1428 9.0499 13.4059 8.85352 13.5847C8.6639 13.7574 8.41936 13.9417 8.18262 14.1218L4.39356 17.0056C4.03446 17.2789 3.69642 17.5371 3.40723 17.7185C3.13571 17.8888 2.69793 18.1321 2.1543 18.1267C1.49663 18.1199 0.87654 17.8201 0.468752 17.3123C0.13197 16.8924 0.0594822 16.4032 0.0302755 16.0877C-0.000793379 15.7515 1.30766e-06 15.3303 2.09335e-06 14.8836V9.11696C2.01676e-06 8.6699 -0.00082133 8.24819 0.0302755 7.91188C0.0594807 7.59631 0.131844 7.1072 0.468752 6.68727C0.876538 6.17938 1.49659 5.87961 2.1543 5.87282ZM2.52051 9.11696V14.8836C2.52052 15.0393 2.52173 15.1746 2.52246 15.2927C2.61779 15.2211 2.72748 15.1389 2.85254 15.0437L6.6416 12.1599C6.7203 12.1 6.78838 12.0469 6.84961 11.9998C6.78837 11.9526 6.72031 11.8995 6.6416 11.8396L2.85254 8.9568C2.72736 8.86155 2.61786 8.77849 2.52246 8.7068C2.52173 8.82505 2.52051 8.961 2.52051 9.11696Z" fill="black"/>
</svg>
