<svg width="24" height="24" viewBox="0 0 24 24" fill="none" xmlns="http://www.w3.org/2000/svg">
<path fill-rule="evenodd" clip-rule="evenodd" d="M14.6964 8.48553C14.1101 8.93167 13.6179 9.30623 13.2488 9.64237C12.8668 9.99018 12.5269 10.3743 12.3351 10.8682C12.0522 11.5969 12.0522 12.4027 12.3351 13.1314C12.5269 13.6254 12.8668 14.0095 13.2488 14.3573C13.6179 14.6934 14.1101 15.068 14.6964 15.5141L16.4418 16.8423C17.3233 17.5132 18.0403 18.0588 18.6333 18.4308C19.2212 18.7995 19.8531 19.1092 20.5454 19.1021C21.5188 19.092 22.4355 18.6493 23.039 17.8976C23.4682 17.363 23.6058 16.6816 23.669 15.9983C23.7328 15.3091 23.7328 14.4172 23.7327 13.3205V10.6792C23.7328 9.58251 23.7328 8.69056 23.669 8.00135C23.6058 7.31811 23.4682 6.63669 23.039 6.10209C22.4355 5.35038 21.5188 4.90763 20.5454 4.89758C19.8531 4.89044 19.2212 5.20017 18.6333 5.56891C18.0403 5.94087 17.3233 6.48647 16.4418 7.15735L14.6964 8.48553ZM14.2183 11.5764C14.2483 11.499 14.3277 11.3628 14.618 11.0985C14.9136 10.8293 15.3339 10.5083 15.9653 10.0278L17.6343 8.75775C18.5663 8.04849 19.2106 7.55943 19.7168 7.24193C20.2372 6.9155 20.4478 6.88061 20.5243 6.8814C20.8885 6.88516 21.2314 7.05082 21.4572 7.33206C21.5047 7.39113 21.6054 7.57638 21.6614 8.18123C21.7158 8.76954 21.7168 9.57032 21.7168 10.7298V13.2699C21.7168 14.4293 21.7158 15.2301 21.6614 15.8184C21.6054 16.4233 21.5047 16.6085 21.4572 16.6676C21.2314 16.9488 20.8885 17.1145 20.5243 17.1183C20.4478 17.119 20.2372 17.0842 19.7168 16.7577C19.2106 16.4402 18.5663 15.9512 17.6343 15.2419L15.9653 13.9719C15.3339 13.4914 14.9136 13.1704 14.618 12.9012C14.3277 12.6368 14.2483 12.5006 14.2183 12.4232C14.1124 12.1506 14.1124 11.8491 14.2183 11.5764Z" fill="black"/>
<path fill-rule="evenodd" clip-rule="evenodd" d="M2.84082 8.48553C2.25454 8.93166 1.76229 9.30623 1.39318 9.64237C1.01126 9.99018 0.671364 10.3743 0.479563 10.8682C0.196591 11.5969 0.196591 12.4027 0.479563 13.1314C0.671364 13.6254 1.01127 14.0095 1.39318 14.3573C1.76229 14.6934 2.25453 15.068 2.84083 15.5141L4.58619 16.8423C5.46774 17.5132 6.1847 18.0588 6.77772 18.4308C7.36561 18.7995 7.99753 19.1092 8.68983 19.1021C9.66327 19.092 10.5799 18.6493 11.1834 17.8976C11.6126 17.363 11.7502 16.6816 11.8134 15.9983C11.8772 15.3091 11.8772 14.4172 11.8772 13.3205V10.6792C11.8772 9.58248 11.8772 8.69058 11.8134 8.00135C11.7502 7.31811 11.6126 6.63669 11.1834 6.10209C10.5799 5.35038 9.66327 4.90763 8.68983 4.89758C7.99753 4.89044 7.36561 5.20017 6.77772 5.56891C6.1847 5.94087 5.46776 6.48646 4.58621 7.15733L2.84082 8.48553ZM2.36268 11.5764C2.39274 11.499 2.47213 11.3628 2.76239 11.0985C3.05799 10.8293 3.47832 10.5083 4.10971 10.0278L5.77868 8.75775C6.71071 8.04849 7.35502 7.55943 7.86122 7.24193C8.38166 6.9155 8.5922 6.88061 8.66869 6.8814C9.0329 6.88516 9.37585 7.05082 9.60166 7.33206C9.64909 7.39113 9.74984 7.57638 9.80579 8.18123C9.86022 8.76954 9.86122 9.57032 9.86122 10.7298L9.86123 13.2699C9.86123 14.4293 9.86022 15.2301 9.80579 15.8184C9.74984 16.4233 9.64909 16.6085 9.60166 16.6676C9.37585 16.9488 9.0329 17.1145 8.66869 17.1183C8.5922 17.119 8.38166 17.0842 7.86122 16.7577C7.35503 16.4402 6.71071 15.9512 5.77868 15.2419L4.10972 13.9719C3.47832 13.4914 3.05799 13.1704 2.76239 12.9012C2.47213 12.6368 2.39274 12.5006 2.36268 12.4232C2.25681 12.1506 2.25681 11.8491 2.36268 11.5764Z" fill="black"/>
</svg>
