<svg width="24" height="24" viewBox="0 0 24 24" fill="none" xmlns="http://www.w3.org/2000/svg">
<path d="M22.9939 10.5C22.7178 10.5 22.4939 10.7239 22.4939 11V11.6C22.4939 12.7284 22.4935 13.5446 22.4411 14.1865C22.3891 14.8226 22.2885 15.2434 22.1124 15.589C21.7769 16.2475 21.2414 16.783 20.5829 17.1185C20.2373 17.2946 19.8165 17.3952 19.1804 17.4472C18.5384 17.4996 17.7223 17.5 16.5939 17.5H6.83582V16.7369C6.83582 16.3902 6.83582 16.2168 6.76442 16.1263C6.7023 16.0476 6.60795 16.0012 6.5077 16C6.39247 15.9987 6.25511 16.1045 5.98038 16.3161L4.33429 17.5841C4.14835 17.7273 4.05538 17.7989 4.02196 17.8862C3.99267 17.9626 3.99267 18.0472 4.02196 18.1237C4.05538 18.2109 4.14835 18.2826 4.33429 18.4258L5.98038 19.6938C6.25511 19.9054 6.39247 20.0112 6.5077 20.0098C6.60795 20.0087 6.7023 19.9622 6.76442 19.8835C6.83582 19.7931 6.83582 19.6197 6.83582 19.2729V18.5H16.6165C17.7175 18.5 18.5744 18.5 19.2618 18.4438C19.9597 18.3868 20.5268 18.2694 21.0369 18.0095C21.8836 17.5781 22.572 16.8897 23.0034 16.043C23.2633 15.5329 23.3807 14.9658 23.4377 14.2679C23.4939 13.5805 23.4939 12.7236 23.4939 11.6227V11C23.4939 10.7239 23.27 10.5 22.9939 10.5Z" fill="black"/>
<path d="M1.0061 13.5C1.28225 13.5 1.5061 13.2761 1.5061 13V12.4C1.5061 11.2716 1.50649 10.4554 1.55894 9.81352C1.61091 9.17744 1.71149 8.75662 1.88758 8.41103C2.22314 7.75247 2.75857 7.21703 3.41714 6.88148C3.76273 6.70539 4.18354 6.60481 4.81963 6.55284C5.46155 6.50039 6.27775 6.5 7.4061 6.5H17V7.27292C17 7.61969 17 7.79308 17.0714 7.88354C17.1335 7.96225 17.2279 8.00866 17.3281 8.00985C17.4433 8.0112 17.5807 7.9054 17.8554 7.69378L19.5015 6.42579C19.6875 6.28256 19.7804 6.21094 19.8139 6.12369C19.8431 6.04722 19.8431 5.96264 19.8139 5.88617C19.7804 5.79891 19.6875 5.7273 19.5015 5.58407L17.8554 4.31608C17.5807 4.10447 17.4433 3.99865 17.3281 4.00001C17.2279 4.00119 17.1335 4.04761 17.0714 4.12632C17 4.21678 17 4.39016 17 4.73694V5.5H7.38349C6.28254 5.5 5.42558 5.5 4.7382 5.55616C4.04027 5.61318 3.4732 5.73058 2.96315 5.99047C2.11642 6.4219 1.428 7.11031 0.996575 7.95704C0.736687 8.4671 0.619284 9.03416 0.562261 9.73209C0.506099 10.4195 0.506101 11.2764 0.506104 12.3774V13C0.506104 13.2761 0.729961 13.5 1.0061 13.5Z" fill="black"/>
</svg>
