<svg width="24" height="24" viewBox="0 0 24 24" fill="none" xmlns="http://www.w3.org/2000/svg">
<path d="M2.99976 19.2501C2.3094 19.2501 1.74976 19.8097 1.74976 20.5001C1.74976 21.1905 2.3094 21.7501 2.99976 21.7501H20.9998C21.6901 21.7501 22.2498 21.1905 22.2498 20.5001C22.2498 19.8097 21.6901 19.2501 20.9998 19.2501H2.99976Z" fill="black"/>
<path fill-rule="evenodd" clip-rule="evenodd" d="M8.5397 3.89638C8.93981 3.37054 9.28897 2.91167 9.60546 2.56414C9.93643 2.20071 10.3284 1.84693 10.8489 1.64479C11.59 1.35701 12.4095 1.35701 13.1506 1.64479C13.6711 1.84693 14.0631 2.20071 14.394 2.56414C14.7105 2.91167 15.0597 3.37055 15.4598 3.89638L19.7845 9.57938C20.388 10.3725 20.893 11.036 21.2402 11.5895C21.5832 12.1365 21.912 12.7835 21.9044 13.5185C21.8942 14.5085 21.4439 15.4407 20.6794 16.0545C20.1118 16.5103 19.407 16.6418 18.7713 16.7006C18.128 16.7601 17.3025 16.7601 16.3159 16.7601L7.68363 16.7601C6.69699 16.7601 5.87146 16.7601 5.22821 16.7006C4.59255 16.6418 3.88772 16.5103 3.32013 16.0545C2.55564 15.4407 2.10535 14.5085 2.09514 13.5185C2.08755 12.7835 2.41628 12.1365 2.75934 11.5895C3.1065 11.036 3.61148 10.3725 4.21504 9.57938L8.5397 3.89638ZM11.7342 3.99869C11.7336 3.99891 11.7128 4.00652 11.6649 4.04383C11.6124 4.08477 11.5359 4.15452 11.4256 4.27565C11.1929 4.53118 10.911 4.89974 10.4695 5.47986L6.21381 11.0723C5.56365 11.9267 5.12963 12.4991 4.85062 12.9439C4.60549 13.3347 4.57802 13.4812 4.57518 13.4964C4.57509 13.4968 4.57503 13.4972 4.57499 13.4974C4.57884 13.7221 4.68094 13.9335 4.85354 14.0741C4.85374 14.0742 4.85404 14.0743 4.85445 14.0745C4.86796 14.0815 4.99884 14.1491 5.45306 14.1911C5.97004 14.2389 6.68117 14.2402 7.74403 14.2402H16.2555C17.3183 14.2402 18.0295 14.2389 18.5464 14.1911C19.0007 14.1491 19.1316 14.0815 19.1451 14.0745C19.1455 14.0743 19.1458 14.0742 19.146 14.0741C19.3186 13.9335 19.4207 13.7221 19.4245 13.4974C19.4245 13.4972 19.4244 13.4968 19.4243 13.4964C19.4215 13.4812 19.394 13.3347 19.1489 12.9439C18.8699 12.4991 18.4359 11.9267 17.7857 11.0723L13.53 5.47986C13.0885 4.89975 12.8066 4.53118 12.5739 4.27565C12.4636 4.15452 12.3871 4.08477 12.3346 4.04383C12.2867 4.00652 12.2659 3.99891 12.2654 3.99869C12.0943 3.93228 11.9052 3.93228 11.7342 3.99869Z" fill="black"/>
</svg>
