<svg width="24" height="24" viewBox="0 0 24 24" fill="none" xmlns="http://www.w3.org/2000/svg">
<path fill-rule="evenodd" clip-rule="evenodd" d="M6.16957 2.25H17.8304C18.3646 2.24999 18.8104 2.24998 19.1747 2.27974C19.5546 2.31078 19.9112 2.37789 20.2485 2.54973C20.7659 2.81338 21.1866 3.23408 21.4503 3.75153C21.6221 4.08879 21.6892 4.44545 21.7203 4.82533C21.75 5.18956 21.75 5.6354 21.75 6.16955V17.8305C21.75 18.3646 21.75 18.8104 21.7203 19.1747C21.6892 19.5546 21.6221 19.9112 21.4503 20.2485C21.1866 20.7659 20.7659 21.1866 20.2485 21.4503C19.9112 21.6221 19.5546 21.6892 19.1747 21.7203C18.8104 21.75 18.3646 21.75 17.8305 21.75H6.16955C5.6354 21.75 5.18956 21.75 4.82533 21.7203C4.44545 21.6892 4.08879 21.6221 3.75153 21.4503C3.23408 21.1866 2.81338 20.7659 2.54973 20.2485C2.37789 19.9112 2.31078 19.5546 2.27974 19.1747C2.24998 18.8104 2.24999 18.3646 2.25 17.8304V6.16957C2.24999 5.63541 2.24998 5.18956 2.27974 4.82533C2.31078 4.44545 2.37789 4.08879 2.54973 3.75153C2.81338 3.23408 3.23408 2.81338 3.75153 2.54973C4.08879 2.37789 4.44545 2.31078 4.82533 2.27974C5.18956 2.24998 5.63541 2.24999 6.16957 2.25ZM4.94748 3.77476C4.66036 3.79822 4.52307 3.8401 4.43251 3.88624C4.19731 4.00608 4.00608 4.19731 3.88624 4.43251C3.8401 4.52307 3.79822 4.66036 3.77476 4.94748C3.75058 5.24336 3.75 5.62757 3.75 6.2V17.8C3.75 18.3724 3.75058 18.7566 3.77476 19.0525C3.79822 19.3396 3.8401 19.4769 3.88624 19.5675C4.00608 19.8027 4.19731 19.9939 4.43251 20.1138C4.52307 20.1599 4.66036 20.2018 4.94748 20.2252C5.24336 20.2494 5.62757 20.25 6.2 20.25H17.8C18.3724 20.25 18.7566 20.2494 19.0525 20.2252C19.3396 20.2018 19.4769 20.1599 19.5675 20.1138C19.8027 19.9939 19.9939 19.8027 20.1138 19.5675C20.1599 19.4769 20.2018 19.3396 20.2252 19.0525C20.2494 18.7566 20.25 18.3724 20.25 17.8V6.2C20.25 5.62757 20.2494 5.24336 20.2252 4.94748C20.2018 4.66036 20.1599 4.52307 20.1138 4.43251C19.9939 4.19731 19.8027 4.00608 19.5675 3.88624C19.4769 3.8401 19.3396 3.79822 19.0525 3.77476C18.7566 3.75058 18.3724 3.75 17.8 3.75H6.2C5.62757 3.75 5.24336 3.75058 4.94748 3.77476Z" fill="black"/>
</svg>
