<svg width="24" height="24" viewBox="0 0 24 24" fill="none" xmlns="http://www.w3.org/2000/svg">
<path fill-rule="evenodd" clip-rule="evenodd" d="M19.8484 9.11117L11.4736 2.7381C10.6573 2.11694 10.0167 1.62944 9.49255 1.30067C8.9709 0.97348 8.48186 0.747816 7.97776 0.753018C7.21622 0.760876 6.49914 1.10725 6.02698 1.69532C5.71444 2.08459 5.59669 2.60336 5.5406 3.20962C5.48424 3.81882 5.48425 4.61577 5.48425 5.63125V18.3688C5.48425 19.3842 5.48425 20.1811 5.5406 20.7903C5.59669 21.3966 5.71444 21.9154 6.02698 22.3046C6.49914 22.8927 7.21622 23.2391 7.97776 23.2469C8.48186 23.2521 8.9709 23.0265 9.49255 22.6993C10.0167 22.3705 10.6573 21.883 11.4736 21.2618L19.8484 14.8888C20.3938 14.4737 20.8297 14.142 21.1523 13.8482C21.4814 13.5485 21.7375 13.2496 21.879 12.8852C22.1003 12.3152 22.1003 11.6848 21.879 11.1147C21.7375 10.7504 21.4814 10.4514 21.1523 10.1517C20.8297 9.85795 20.3938 9.52621 19.8484 9.11117ZM20.4677 10.8798C20.7509 11.1377 20.8768 11.3127 20.9374 11.4688C21.0702 11.8109 21.0702 12.1891 20.9374 12.5311C20.8768 12.6872 20.7509 12.8622 20.4677 13.1201C20.1818 13.3805 19.7816 13.6857 19.2125 14.1187L10.8785 20.4607C10.0361 21.1018 9.4316 21.5612 8.9508 21.8628C8.46288 22.1688 8.18452 22.257 7.98833 22.255C7.5314 22.2503 7.10116 22.0425 6.81786 21.6896C6.69622 21.5381 6.59688 21.2674 6.54442 20.7004C6.49273 20.1416 6.49222 19.39 6.49222 18.342L6.49222 5.65798C6.49222 4.60996 6.49273 3.85835 6.54442 3.29956C6.59688 2.7325 6.69622 2.46181 6.81786 2.31031C7.10116 1.95747 7.5314 1.74964 7.98833 1.74493C8.18452 1.7429 8.46288 1.83115 8.9508 2.13718C9.4316 2.43876 10.0361 2.89813 10.8785 3.53922L19.2125 9.88121C19.7816 10.3143 20.1818 10.6194 20.4677 10.8798Z" fill="black"/>
</svg>
