<svg width="24" height="24" viewBox="0 0 24 24" fill="none" xmlns="http://www.w3.org/2000/svg">
<path d="M2.25 2C2.25 1.30964 2.80964 0.75 3.5 0.75C4.19036 0.75 4.75 1.30964 4.75 2V22C4.75 22.6904 4.19036 23.25 3.5 23.25C2.80964 23.25 2.25 22.6904 2.25 22V2Z" fill="black"/>
<path fill-rule="evenodd" clip-rule="evenodd" d="M8.89628 8.53994C8.37044 8.94006 7.91157 9.28922 7.56404 9.60571C7.20061 9.93668 6.84683 10.3286 6.64469 10.8491C6.35691 11.5902 6.35691 12.4098 6.64469 13.1509C6.84683 13.6714 7.20061 14.0633 7.56404 14.3943C7.91157 14.7108 8.37044 15.0599 8.89628 15.4601L14.5793 19.7847C15.3724 20.3883 16.0359 20.8933 16.5894 21.2404C17.1364 21.5835 17.7834 21.9122 18.5184 21.9046C19.5084 21.8944 20.4406 21.4441 21.0544 20.6796C21.5102 20.112 21.6417 19.4072 21.7005 18.7715C21.76 18.1283 21.76 17.3028 21.76 16.3161V7.68387C21.76 6.69722 21.76 5.87172 21.7005 5.22846C21.6417 4.5928 21.5102 3.88797 21.0544 3.32037C20.4406 2.55588 19.5084 2.10559 18.5184 2.09538C17.7834 2.0878 17.1364 2.41653 16.5894 2.75959C16.0359 3.10674 15.3724 3.61171 14.5793 4.21527L8.89628 8.53994ZM8.99859 11.7344C8.99881 11.7338 9.00642 11.7131 9.04373 11.6652C9.08467 11.6126 9.15442 11.5362 9.27555 11.4259C9.53108 11.1932 9.89964 10.9112 10.4798 10.4698L16.0722 6.21406C16.9265 5.5639 17.499 5.12987 17.9438 4.85086C18.3346 4.60574 18.4811 4.57826 18.4963 4.57542C18.4967 4.57534 18.4971 4.57528 18.4973 4.57523C18.722 4.57909 18.9334 4.68118 19.074 4.85379C19.0741 4.85399 19.0742 4.85429 19.0744 4.85469C19.0814 4.86822 19.149 4.99911 19.191 5.45331C19.2388 5.97029 19.2401 6.68142 19.2401 7.74427V16.2557C19.2401 17.3186 19.2388 18.0297 19.191 18.5467C19.149 19.0009 19.0814 19.1318 19.0744 19.1453C19.0742 19.1457 19.0741 19.146 19.074 19.1462C18.9334 19.3188 18.722 19.4209 18.4973 19.4248C18.4971 19.4247 18.4967 19.4247 18.4963 19.4246C18.4811 19.4217 18.3346 19.3942 17.9438 19.1491C17.499 18.8701 16.9265 18.4361 16.0722 17.7859L10.4798 13.5302C9.89964 13.0888 9.53108 12.8068 9.27555 12.5741C9.15442 12.4638 9.08467 12.3874 9.04373 12.3348C9.00642 12.2869 8.99881 12.2662 8.99859 12.2656C8.93218 12.0946 8.93218 11.9054 8.99859 11.7344Z" fill="black"/>
</svg>
