<svg width="24" height="24" viewBox="0 0 24 24" fill="none" xmlns="http://www.w3.org/2000/svg">
<path d="M22.9939 10.7501C22.8558 10.7501 22.7439 10.862 22.7439 11.0001V11.6001C22.7439 12.7243 22.7437 13.5524 22.6902 14.2069C22.637 14.8584 22.5322 15.3158 22.3352 15.7025C21.9756 16.4081 21.402 16.9818 20.6964 17.3413C20.3097 17.5384 19.8523 17.6432 19.2007 17.6964C18.5463 17.7499 17.7181 17.7501 16.5939 17.7501H6.12163V17.0563C6.12163 16.7968 6.12163 16.6671 6.06822 16.5994C6.02175 16.5406 5.95115 16.5058 5.87615 16.505C5.78994 16.5039 5.68717 16.5831 5.48164 16.7414L4.2501 17.6901C4.11099 17.7972 4.04143 17.8508 4.01643 17.9161C3.99452 17.9733 3.99452 18.0366 4.01643 18.0938C4.04143 18.1591 4.11099 18.2127 4.2501 18.3198L5.48164 19.2685C5.68717 19.4268 5.78994 19.5059 5.87615 19.5049C5.95115 19.504 6.02175 19.4693 6.06822 19.4104C6.12163 19.3428 6.12163 19.213 6.12163 18.9536V18.2501H16.6055C17.7158 18.2501 18.5643 18.2501 19.2414 18.1947C19.9239 18.139 20.4544 18.0258 20.9234 17.7868C21.723 17.3794 22.3732 16.7292 22.7807 15.9295C23.0196 15.4606 23.1328 14.9301 23.1886 14.2476C23.2439 13.5704 23.2439 12.722 23.2439 11.6117V11.0001C23.2439 10.862 23.132 10.7501 22.9939 10.7501Z" fill="black"/>
<path d="M1.0061 13.25C1.14417 13.25 1.2561 13.138 1.2561 13V12.4C1.2561 11.2757 1.2563 10.4476 1.30977 9.79312C1.363 9.14157 1.46779 8.68419 1.66483 8.29749C2.02435 7.59188 2.59803 7.0182 3.30364 6.65868C3.69035 6.46164 4.14772 6.35685 4.79927 6.30362C5.45374 6.25015 6.28187 6.24995 7.4061 6.24995H17.7142V6.95354C17.7142 7.21298 17.7142 7.3427 17.7676 7.41038C17.8141 7.46926 17.8846 7.50399 17.9597 7.50487C18.0459 7.50589 18.1486 7.42673 18.3542 7.2684L19.5857 6.31975C19.7248 6.21259 19.7944 6.15901 19.8194 6.09373C19.8413 6.03652 19.8413 5.97324 19.8194 5.91603C19.7944 5.85075 19.7248 5.79717 19.5857 5.69001L18.3542 4.74136C18.1486 4.58304 18.0459 4.50388 17.9597 4.50489C17.8846 4.50578 17.8141 4.5405 17.7676 4.59939C17.7142 4.66706 17.7142 4.79679 17.7142 5.05623V5.74995H7.39445C6.28421 5.74995 5.43573 5.74995 4.75855 5.80528C4.07608 5.86104 3.54558 5.97424 3.07664 6.21317C2.27696 6.62064 1.62679 7.2708 1.21933 8.07049C0.980389 8.53943 0.86719 9.06993 0.811431 9.7524C0.756104 10.4296 0.756104 11.278 0.756104 12.3883V13C0.756104 13.138 0.868032 13.25 1.0061 13.25Z" fill="black"/>
</svg>
