<svg width="24" height="24" viewBox="0 0 24 24" fill="none" xmlns="http://www.w3.org/2000/svg">
<path fill-rule="evenodd" clip-rule="evenodd" d="M0 10.2223V13.7778C0 15.3733 1.2934 16.6667 2.88889 16.6667H4.61881L8.07062 20.8089C9.4012 22.4056 12 21.4647 12 19.3863V4.61386C12 2.53542 9.4012 1.59453 8.07062 3.19123L4.61881 7.3334H2.88889C1.2934 7.3334 0 8.62681 0 10.2223ZM6.08862 15.3064L9.60706 19.5285C9.74012 19.6882 10 19.5941 10 19.3863V4.61386C10 4.40601 9.74012 4.31193 9.60706 4.4716L6.08862 8.69373C5.75085 9.09905 5.2505 9.3334 4.72289 9.3334H2.88889C2.39797 9.3334 2 9.73137 2 10.2223V13.7778C2 14.2688 2.39797 14.6667 2.88889 14.6667H4.72289C5.2505 14.6667 5.75085 14.9011 6.08862 15.3064Z" fill="black"/>
<path d="M21.0314 4.88948C20.6387 4.50114 20.0055 4.50466 19.6172 4.89736C19.2288 5.29005 19.2323 5.9232 19.625 6.31155C21.0926 7.76282 22 9.77454 22 12C22 14.1474 21.1553 16.0954 19.7779 17.5333C19.3958 17.9321 19.4094 18.5651 19.8082 18.9471C20.2071 19.3292 20.8401 19.3156 21.2221 18.9168C22.9418 17.1216 24 14.6833 24 12C24 9.2187 22.8632 6.70102 21.0314 4.88948Z" fill="black"/>
<path d="M17.8932 6.99443C17.4983 6.60834 16.8652 6.61549 16.4791 7.0104C16.093 7.40531 16.1002 8.03843 16.4951 8.42452C17.4248 9.33349 18 10.5987 18 12C18 13.3491 17.467 14.5716 16.5981 15.4719C16.2146 15.8693 16.2258 16.5023 16.6232 16.8859C17.0206 17.2694 17.6536 17.2582 18.0372 16.8608C19.2515 15.6027 20 13.8877 20 12C20 10.0386 19.192 8.26417 17.8932 6.99443Z" fill="black"/>
<path d="M13.3392 9.1352C13.7194 8.73457 14.3523 8.71798 14.753 9.09813C15.5198 9.82575 16 10.8576 16 12.0001C16 13.0647 15.5828 14.034 14.9049 14.7499C14.5252 15.151 13.8922 15.1682 13.4912 14.7885C13.0902 14.4088 13.0729 13.7758 13.4526 13.3748C13.7928 13.0155 14 12.5331 14 12.0001C14 11.4287 13.7617 10.9146 13.3763 10.5489C12.9757 10.1688 12.9591 9.53583 13.3392 9.1352Z" fill="black"/>
</svg>
