<svg width="24" height="24" viewBox="0 0 24 24" fill="none" xmlns="http://www.w3.org/2000/svg">
<path d="M1.40972 1.32026C1.11683 1.02736 0.641958 1.02736 0.349064 1.32026C0.0561712 1.61315 0.0561712 2.08802 0.349064 2.38092L20.146 22.1779C20.4389 22.4708 20.9138 22.4708 21.2067 22.1779C21.4996 21.885 21.4996 21.4101 21.2067 21.1172L1.40972 1.32026Z" fill="black"/>
<path d="M2.88889 7.83387H3.32666L4.8238 9.33101C4.7903 9.33291 4.75665 9.33387 4.72289 9.33387H2.88889C2.39797 9.33387 2 9.73184 2 10.2228V13.7783C2 14.2692 2.39797 14.6672 2.88889 14.6672H4.72289C5.2505 14.6672 5.75085 14.9016 6.08862 15.3069L9.60706 19.529C9.74012 19.6887 10 19.5946 10 19.3867V14.5072L11.5 16.0072V19.3867C11.5 20.9975 9.48593 21.7267 8.45473 20.4893L4.93628 16.2672C4.88351 16.2038 4.80533 16.1672 4.72289 16.1672H2.88889C1.56954 16.1672 0.5 15.0977 0.5 13.7783V10.2228C0.5 8.90342 1.56954 7.83387 2.88889 7.83387Z" fill="black"/>
<path d="M10 7.43615L11.5 8.93615V4.61433C11.5 3.00354 9.48593 2.27435 8.45473 3.51179L7.37333 4.80947L8.43836 5.87451L9.60706 4.47206C9.74012 4.31239 10 4.40648 10 4.61433V7.43615Z" fill="black"/>
<path d="M14.2246 11.6607L15.6039 13.04C15.699 12.7099 15.75 12.3611 15.75 12.0005C15.75 10.9295 15.3 9.96233 14.5809 9.27995C14.2804 8.99483 13.8057 9.00728 13.5206 9.30775C13.2355 9.60822 13.2479 10.0829 13.5484 10.368C13.9036 10.7051 14.1481 11.1551 14.2246 11.6607Z" fill="black"/>
<path d="M17.4117 14.8478L18.4909 15.9271C19.2831 14.821 19.75 13.4648 19.75 12.0005C19.75 10.1091 18.9711 8.39831 17.7185 7.17366C17.4223 6.88409 16.9474 6.88945 16.6579 7.18564C16.3683 7.48182 16.3737 7.95666 16.6698 8.24623C17.6457 9.20029 18.25 10.5292 18.25 12.0005C18.25 13.0504 17.9424 14.0275 17.4117 14.8478Z" fill="black"/>
<path d="M20.109 17.5452L21.1707 18.6069C22.7713 16.8703 23.75 14.549 23.75 12.0005C23.75 9.28865 22.6419 6.83422 20.8556 5.06771C20.561 4.77645 20.0862 4.77909 19.7949 5.07361C19.5037 5.36813 19.5063 5.843 19.8008 6.13426C21.3139 7.63057 22.25 9.70553 22.25 12.0005C22.25 14.1355 21.44 16.0798 20.109 17.5452Z" fill="black"/>
</svg>
