<svg width="24" height="24" viewBox="0 0 24 24" fill="none" xmlns="http://www.w3.org/2000/svg">
<path fill-rule="evenodd" clip-rule="evenodd" d="M0 13.7774V10.2218C0 8.62632 1.2934 7.33291 2.88889 7.33291H4.61881L8.07062 3.19074C9.4012 1.59404 12 2.53493 12 4.61337V19.3858C12 21.4642 9.4012 22.4051 8.07062 20.8084L4.61881 16.6662H2.88889C1.2934 16.6662 0 15.3728 0 13.7774ZM6.08862 15.3059C5.75085 14.9006 5.2505 14.6662 4.72289 14.6662H2.88889C2.39797 14.6662 2 14.2683 2 13.7774V10.2218C2 9.73088 2.39797 9.33291 2.88889 9.33291H4.72289C5.2505 9.33291 5.75085 9.09856 6.08862 8.69324L9.60706 4.47111C9.74012 4.31144 10 4.40553 10 4.61337V19.3858C10 19.5936 9.74012 19.6877 9.60706 19.5281L6.08862 15.3059Z" fill="black"/>
</svg>
