<svg width="24" height="24" viewBox="0 0 24 24" fill="none" xmlns="http://www.w3.org/2000/svg">
<path fill-rule="evenodd" clip-rule="evenodd" d="M9.30392 8.48577C9.89022 8.93191 10.3825 9.30648 10.7516 9.64262C11.1335 9.99042 11.4734 10.3745 11.6652 10.8685C11.9482 11.5972 11.9482 12.403 11.6652 13.1317C11.4734 13.6256 11.1335 14.0097 10.7516 14.3575C10.3825 14.6937 9.89021 15.0682 9.30392 15.5144L7.55856 16.8426C6.67699 17.5134 5.96005 18.059 5.36702 18.431C4.77913 18.7997 4.14722 19.1095 3.45492 19.1023C2.48147 19.0923 1.56487 18.6495 0.961326 17.8978C0.532097 17.3632 0.394522 16.6818 0.331313 15.9985C0.267552 15.3093 0.267564 14.4174 0.267579 13.3207V10.6794C0.267565 9.58276 0.267553 8.69081 0.331313 8.0016C0.394521 7.31835 0.532097 6.63693 0.961326 6.10233C1.56487 5.35063 2.48147 4.90787 3.45492 4.89783C4.14722 4.89068 4.77913 5.20041 5.36702 5.56915C5.96005 5.94112 6.677 6.48671 7.55857 7.15759L9.30392 8.48577ZM9.78206 11.5767C9.752 11.4993 9.67262 11.3631 9.38235 11.0987C9.08675 10.8295 8.66643 10.5085 8.03503 10.028L6.36607 8.75799C5.43404 8.04874 4.78972 7.55967 4.28352 7.24217C3.76309 6.91574 3.55254 6.88086 3.47605 6.88165C3.11184 6.88541 2.7689 7.05106 2.54308 7.33231C2.49566 7.39138 2.39491 7.57663 2.33895 8.18148C2.28453 8.76978 2.28352 9.57056 2.28352 10.73L2.28352 13.2701C2.28352 14.4296 2.28453 15.2304 2.33895 15.8187C2.39491 16.4235 2.49566 16.6088 2.54308 16.6678C2.7689 16.9491 3.11184 17.1147 3.47605 17.1185C3.55255 17.1193 3.76309 17.0844 4.28352 16.758C4.78972 16.4405 5.43404 15.9514 6.36606 15.2422L8.03503 13.9721C8.66643 13.4916 9.08675 13.1706 9.38235 12.9014C9.67262 12.6371 9.752 12.5009 9.78206 12.4235C9.88794 12.1508 9.88794 11.8493 9.78206 11.5767Z" fill="black"/>
<path fill-rule="evenodd" clip-rule="evenodd" d="M21.1595 8.48577C21.7458 8.9319 22.238 9.30648 22.6071 9.64262C22.9891 9.99042 23.329 10.3745 23.5208 10.8685C23.8037 11.5972 23.8037 12.403 23.5208 13.1317C23.329 13.6256 22.9891 14.0097 22.6071 14.3575C22.238 14.6937 21.7458 15.0682 21.1595 15.5144L19.4141 16.8426C18.5326 17.5134 17.8156 18.059 17.2226 18.431C16.6347 18.7997 16.0028 19.1095 15.3105 19.1023C14.337 19.0923 13.4204 18.6495 12.8169 17.8978C12.3877 17.3632 12.2501 16.6818 12.1869 15.9985C12.1231 15.3093 12.1231 14.4174 12.1232 13.3207V10.6794C12.1231 9.58273 12.1231 8.69082 12.1869 8.0016C12.2501 7.31835 12.3877 6.63693 12.8169 6.10233C13.4204 5.35063 14.337 4.90787 15.3105 4.89783C16.0028 4.89068 16.6347 5.20041 17.2226 5.56915C17.8156 5.94111 18.5326 6.4867 19.4141 7.15757L21.1595 8.48577ZM21.6376 11.5767C21.6076 11.4993 21.5282 11.3631 21.2379 11.0987C20.9423 10.8295 20.522 10.5085 19.8906 10.028L18.2216 8.75799C17.2896 8.04874 16.6453 7.55967 16.1391 7.24217C15.6187 6.91574 15.4081 6.88086 15.3316 6.88165C14.9674 6.88541 14.6245 7.05106 14.3987 7.33231C14.3512 7.39138 14.2505 7.57663 14.1945 8.18148C14.1401 8.76978 14.1391 9.57056 14.1391 10.73L14.1391 13.2701C14.1391 14.4296 14.1401 15.2304 14.1945 15.8187C14.2505 16.4235 14.3512 16.6088 14.3987 16.6678C14.6245 16.9491 14.9674 17.1147 15.3316 17.1185C15.4081 17.1193 15.6187 17.0844 16.1391 16.758C16.6453 16.4405 17.2896 15.9514 18.2216 15.2422L19.8906 13.9721C20.522 13.4916 20.9423 13.1706 21.2379 12.9014C21.5282 12.6371 21.6076 12.5009 21.6376 12.4235C21.7435 12.1508 21.7435 11.8493 21.6376 11.5767Z" fill="black"/>
</svg>
