<svg width="24" height="24" viewBox="0 0 24 24" fill="none" xmlns="http://www.w3.org/2000/svg">
<path fill-rule="evenodd" clip-rule="evenodd" d="M23.8769 8.43565C24 9.21298 24 10.142 24 12C24 13.858 24 14.787 23.8769 15.5643C23.1992 19.8433 19.8433 23.1992 15.5643 23.8769C14.787 24 13.858 24 12 24C10.142 24 9.21298 24 8.43565 23.8769C4.15673 23.1992 0.800833 19.8433 0.123117 15.5643C0 14.787 0 13.858 0 12C0 10.142 0 9.21298 0.123117 8.43565C0.800833 4.15673 4.15673 0.800832 8.43565 0.123117C9.21298 0 10.142 0 12 0C13.858 0 14.787 0 15.5643 0.123117C19.8433 0.800832 23.1992 4.15673 23.8769 8.43565ZM11.6665 6.45922C11.6665 5.99158 11.0818 5.77987 10.7824 6.13913L8.14354 9.30573C7.95354 9.53373 7.67209 9.66555 7.37531 9.66555H5.99981C5.44753 9.66555 4.99981 10.1133 4.99981 10.6656V13.3322C4.99981 13.8845 5.44753 14.3322 5.99981 14.3322H7.37531C7.67209 14.3322 7.95354 14.464 8.14354 14.692L10.7824 17.8586C11.0818 18.2179 11.6665 18.0062 11.6665 17.5385V6.45922ZM15.8118 8.78282C15.6144 8.58978 15.2978 8.59335 15.1048 8.79081C14.9117 8.98826 14.9153 9.30482 15.1128 9.49787C15.7633 10.1339 16.1662 11.0198 16.1662 12.0007C16.1662 12.945 15.7929 13.801 15.1849 14.431C14.9931 14.6297 14.9987 14.9462 15.1974 15.138C15.3961 15.3298 15.7126 15.3242 15.9044 15.1255C16.6851 14.3165 17.1662 13.2143 17.1662 12.0007C17.1662 10.7398 16.6469 9.59925 15.8118 8.78282ZM13.7202 10.1861C13.5199 9.99605 13.2034 10.0044 13.0133 10.2047C12.8233 10.405 12.8316 10.7215 13.0319 10.9115C13.3206 11.1855 13.4996 11.5714 13.4996 11.9999C13.4996 12.3995 13.344 12.7617 13.0891 13.0309C12.8992 13.2315 12.9078 13.5479 13.1083 13.7378C13.3089 13.9277 13.6253 13.919 13.8152 13.7185C14.239 13.2709 14.4996 12.6653 14.4996 11.9999C14.4996 11.2858 14.1996 10.6411 13.7202 10.1861Z" fill="black"/>
</svg>
