<svg width="24" height="24" viewBox="0 0 24 24" fill="none" xmlns="http://www.w3.org/2000/svg">
<path fill-rule="evenodd" clip-rule="evenodd" d="M0.5 10.2223V13.7778C0.5 15.0972 1.56954 16.1667 2.88889 16.1667H4.72289C4.80533 16.1667 4.88351 16.2033 4.93628 16.2667L8.45473 20.4888C9.48593 21.7262 11.5 20.9971 11.5 19.3863V4.61384C11.5 3.00305 9.48593 2.27386 8.45473 3.5113L4.93628 7.73343C4.88351 7.79677 4.80533 7.83338 4.72289 7.83338H2.88889C1.56954 7.83338 0.5 8.90293 0.5 10.2223ZM6.08862 15.3064L9.60706 19.5285C9.74012 19.6882 10 19.5941 10 19.3863V4.61384C10 4.40599 9.74012 4.31191 9.60706 4.47158L6.08862 8.69371C5.75085 9.09903 5.2505 9.33338 4.72289 9.33338H2.88889C2.39797 9.33338 2 9.73135 2 10.2223V13.7778C2 14.2687 2.39797 14.6667 2.88889 14.6667H4.72289C5.2505 14.6667 5.75085 14.9011 6.08862 15.3064Z" fill="black"/>
<path d="M20.8556 5.06722C20.561 4.77596 20.0862 4.77861 19.7949 5.07313C19.5037 5.36765 19.5063 5.84251 19.8008 6.13377C21.3139 7.63008 22.25 9.70504 22.25 12C22.25 14.2144 21.3786 16.2236 19.9584 17.7062C19.6719 18.0053 19.6821 18.4801 19.9812 18.7666C20.2803 19.0531 20.7551 19.0429 21.0416 18.7438C22.7185 16.9933 23.75 14.6163 23.75 12C23.75 9.28816 22.6419 6.83373 20.8556 5.06722Z" fill="black"/>
<path d="M17.7185 7.17317C17.4223 6.88361 16.9474 6.88897 16.6579 7.18515C16.3683 7.48133 16.3737 7.95617 16.6698 8.24574C17.6457 9.19981 18.25 10.5287 18.25 12C18.25 13.4164 17.6901 14.7004 16.778 15.6455C16.4903 15.9435 16.4987 16.4183 16.7968 16.706C17.0948 16.9936 17.5696 16.9852 17.8573 16.6872C19.0284 15.4738 19.75 13.8204 19.75 12C19.75 10.1086 18.9711 8.39782 17.7185 7.17317Z" fill="black"/>
<path d="M13.5206 9.30726C13.8057 9.00679 14.2804 8.99434 14.5809 9.27946C15.3 9.96184 15.75 10.929 15.75 12.0001C15.75 12.9982 15.359 13.9067 14.7234 14.578C14.4386 14.8788 13.9639 14.8917 13.6631 14.607C13.3623 14.3222 13.3494 13.8475 13.6342 13.5467C14.0166 13.1428 14.25 12.5995 14.25 12.0001C14.25 11.3573 13.9815 10.7785 13.5484 10.3676C13.2479 10.0824 13.2355 9.60773 13.5206 9.30726Z" fill="black"/>
</svg>
