<svg width="24" height="24" viewBox="0 0 24 24" fill="none" xmlns="http://www.w3.org/2000/svg">
<path d="M19.8232 0.823767C19.9208 0.726199 20.0791 0.72625 20.1768 0.823767L23.1562 3.80228C23.2652 3.91136 23.2652 4.08874 23.1562 4.19779L20.1768 7.17631C20.0791 7.27375 19.9208 7.2738 19.8232 7.17631C19.7259 7.07871 19.7259 6.92034 19.8232 6.82279L22.3955 4.25052H16.9004C15.9339 4.25052 15.1504 5.03405 15.1504 6.00052V10.0005C15.1501 10.8725 14.6524 11.6263 13.9268 11.9995C14.6527 12.3728 15.1504 13.1281 15.1504 14.0005V18.0005C15.1507 18.9667 15.9341 19.7505 16.9004 19.7505H22.3975L19.8232 17.1773C19.7258 17.0798 19.726 16.9214 19.8232 16.8238C19.9208 16.7262 20.0791 16.7263 20.1768 16.8238L23.1562 19.8023C23.2652 19.9114 23.2652 20.0887 23.1562 20.1978L20.1768 23.1763C20.0791 23.2737 19.9208 23.2738 19.8232 23.1763C19.7259 23.0787 19.7259 22.9203 19.8232 22.8228L22.3955 20.2505H16.9004C15.658 20.2505 14.6507 19.2429 14.6504 18.0005V14.0005C14.6504 13.0342 13.8667 12.2507 12.9004 12.2505H10.3252C10.3399 12.0841 10.339 11.917 10.3242 11.7505H12.9004C13.8665 11.7503 14.65 10.9666 14.6504 10.0005V6.00052C14.6504 4.75791 15.6578 3.75052 16.9004 3.75052H22.3975L19.8232 1.17728C19.7258 1.07975 19.726 0.921389 19.8232 0.823767Z" fill="black"/>
<path fill-rule="evenodd" clip-rule="evenodd" d="M2.15625 6.86381C2.39211 6.8615 2.61982 6.96775 2.85742 7.11674C3.09877 7.26813 3.39442 7.49339 3.76953 7.77884L7.55859 10.6617C7.81007 10.853 8.01191 11.0072 8.16113 11.1431C8.3116 11.2801 8.43092 11.4192 8.49707 11.5894C8.59956 11.8535 8.59946 12.1456 8.49707 12.4097C8.43094 12.58 8.31167 12.7199 8.16113 12.857C8.01196 12.9928 7.80991 13.1462 7.55859 13.3374L3.76953 16.2203C3.39431 16.5058 3.09882 16.7319 2.85742 16.8833C2.61984 17.0323 2.39208 17.1376 2.15625 17.1353C1.80346 17.1315 1.47078 16.9702 1.25195 16.6978C1.10588 16.5155 1.05096 16.2737 1.02539 15.9976C0.999491 15.7171 1 15.3489 1 14.8824V9.11674C1 8.65008 0.999456 8.28201 1.02539 8.0015C1.05098 7.72536 1.10578 7.48351 1.25195 7.30131C1.47078 7.02906 1.80355 6.86759 2.15625 6.86381ZM2.16113 7.3599C1.96068 7.36211 1.77186 7.45422 1.64746 7.60892C1.59658 7.67238 1.55208 7.79009 1.52832 8.04642C1.50495 8.29909 1.50391 8.64012 1.50391 9.11674V14.8824C1.50391 15.3589 1.50497 15.7 1.52832 15.9527C1.55204 16.209 1.59662 16.3266 1.64746 16.3902C1.77185 16.545 1.96057 16.637 2.16113 16.6392C2.24332 16.64 2.36592 16.603 2.58692 16.4644C2.80434 16.328 3.07876 16.1192 3.46192 15.8277L7.25 12.9449C7.50876 12.748 7.68939 12.6092 7.81836 12.4917C7.94574 12.3757 8.00064 12.2991 8.02637 12.2329C8.0845 12.0828 8.0846 11.9162 8.02637 11.7661C8.00057 11.7001 7.94566 11.6233 7.81836 11.5074C7.68938 11.3899 7.5087 11.2511 7.25 11.0542L3.46192 8.17142C3.07873 7.87983 2.80434 7.67109 2.58692 7.5347C2.36602 7.39618 2.2433 7.35905 2.16113 7.3599Z" fill="black"/>
</svg>
