<svg width="26" height="24" viewBox="0 0 26 24" fill="none" xmlns="http://www.w3.org/2000/svg">
<path d="M24.8434 7.81623C25.2942 7.36544 25.2942 6.63457 24.8434 6.18377L21.8641 3.2045C21.4248 2.76517 20.7124 2.76517 20.2731 3.2045C19.8338 3.64384 19.8338 4.35616 20.2731 4.7955L21.2276 5.75L17.936 5.74997C17.1357 5.74968 16.5542 5.74946 16.0444 5.85088C15.4572 5.96767 14.9062 6.18093 14.4084 6.47366C14.9458 7.1075 15.3722 7.83892 15.6586 8.63885C15.9237 8.48048 16.218 8.36531 16.5321 8.30284C16.7673 8.25605 17.0794 8.25 18.0686 8.25H21.2276L20.2731 9.2045C19.8338 9.64384 19.8338 10.3562 20.2731 10.7955C20.7124 11.2348 21.4248 11.2348 21.8641 10.7955L24.8434 7.81623Z" fill="black"/>
<path d="M10.4786 15.3612C10.2135 15.5195 9.91916 15.6347 9.6051 15.6972C9.36989 15.7439 9.05783 15.75 8.0686 15.75H2.0686C1.37825 15.75 0.818604 16.3096 0.818604 17C0.818604 17.6904 1.37825 18.25 2.0686 18.25L8.20121 18.25C9.00149 18.2503 9.58299 18.2505 10.0928 18.1491C10.68 18.0323 11.231 17.8191 11.7289 17.5263C11.1914 16.8925 10.765 16.1611 10.4786 15.3612Z" fill="black"/>
<path d="M8.0686 8.25C9.05783 8.25 9.36989 8.25606 9.6051 8.30284C10.696 8.51983 11.5488 9.3726 11.7658 10.4635C11.8125 10.6987 11.8186 11.0108 11.8186 12L11.8186 12.1326C11.8183 12.9329 11.8181 13.5144 11.9195 14.0242C12.3337 16.1069 13.9618 17.7349 16.0444 18.1491C16.5542 18.2505 17.1357 18.2503 17.936 18.25L21.2276 18.25L20.2731 19.2045C19.8338 19.6438 19.8338 20.3562 20.2731 20.7955C20.7124 21.2348 21.4248 21.2348 21.8641 20.7955L24.8434 17.8162C25.2942 17.3654 25.2942 16.6346 24.8434 16.1838L21.8641 13.2045C21.4248 12.7652 20.7124 12.7652 20.2731 13.2045C19.8338 13.6438 19.8338 14.3562 20.2731 14.7955L21.2276 15.75H18.0686C17.0794 15.75 16.7673 15.7439 16.5321 15.6972C15.4412 15.4802 14.5884 14.6274 14.3714 13.5365C14.3247 13.3013 14.3186 12.9892 14.3186 12L14.3186 11.8674C14.3189 11.0671 14.3191 10.4856 14.2177 9.97578C13.8035 7.89315 12.1755 6.26514 10.0928 5.85088C9.58299 5.74946 9.00149 5.74968 8.20121 5.74997L2.0686 5.75C1.37825 5.75 0.818604 6.30964 0.818604 7C0.818604 7.69036 1.37825 8.25 2.0686 8.25H8.0686Z" fill="black"/>
</svg>
