<svg width="24" height="24" viewBox="0 0 24 24" fill="none" xmlns="http://www.w3.org/2000/svg">
<path fill-rule="evenodd" clip-rule="evenodd" d="M0.123117 8.43565C0 9.21298 0 10.142 0 12C0 13.858 0 14.787 0.123117 15.5643C0.800832 19.8433 4.15673 23.1992 8.43565 23.8769C9.21298 24 10.142 24 12 24C13.858 24 14.787 24 15.5643 23.8769C19.8433 23.1992 23.1992 19.8433 23.8769 15.5643C24 14.787 24 13.858 24 12C24 10.142 24 9.21298 23.8769 8.43565C23.1992 4.15673 19.8433 0.800832 15.5643 0.123117C14.787 0 13.858 0 12 0C10.142 0 9.21298 0 8.43565 0.123117C4.15673 0.800832 0.800832 4.15673 0.123117 8.43565ZM6.87716 7.38701C6.75 7.63657 6.75 7.96327 6.75 8.61667V15.3833C6.75 16.0367 6.75 16.3634 6.87716 16.613C6.98901 16.8325 7.16749 17.011 7.38701 17.1228C7.63657 17.25 7.96327 17.25 8.61667 17.25H15.3833C16.0367 17.25 16.3634 17.25 16.613 17.1228C16.8325 17.011 17.011 16.8325 17.1228 16.613C17.25 16.3634 17.25 16.0367 17.25 15.3833V8.61667C17.25 7.96327 17.25 7.63657 17.1228 7.38701C17.011 7.16749 16.8325 6.98901 16.613 6.87716C16.3634 6.75 16.0367 6.75 15.3833 6.75H8.61667C7.96327 6.75 7.63657 6.75 7.38701 6.87716C7.16749 6.98901 6.98901 7.16749 6.87716 7.38701Z" fill="black"/>
</svg>
