<svg width="24" height="24" viewBox="0 0 24 24" fill="none" xmlns="http://www.w3.org/2000/svg">
<path d="M22.9939 10.5C22.7178 10.5 22.4939 10.7239 22.4939 11V11.6C22.4939 12.7284 22.4935 13.5446 22.4411 14.1865C22.3891 14.8226 22.2885 15.2434 22.1124 15.589C21.7769 16.2475 21.2414 16.783 20.5829 17.1185C20.2373 17.2946 19.8165 17.3952 19.1804 17.4472C18.5384 17.4996 17.7223 17.5 16.5939 17.5H6.201L8.34745 15.3536C8.54271 15.1583 8.54271 14.8417 8.34745 14.6464C8.15219 14.4512 7.83561 14.4512 7.64034 14.6464L4.66108 17.6257C4.45436 17.8324 4.45436 18.1676 4.66108 18.3743L7.64034 21.3536C7.83561 21.5488 8.15219 21.5488 8.34745 21.3536C8.54271 21.1583 8.54271 20.8417 8.34745 20.6464L6.201 18.5H16.6165C17.7175 18.5 18.5744 18.5 19.2618 18.4438C19.9597 18.3868 20.5268 18.2694 21.0369 18.0095C21.8836 17.5781 22.572 16.8897 23.0034 16.043C23.2633 15.5329 23.3807 14.9658 23.4377 14.2679C23.4939 13.5805 23.4939 12.7236 23.4939 11.6227V11C23.4939 10.7239 23.27 10.5 22.9939 10.5Z" fill="black"/>
<path d="M1.0061 13.5C1.28225 13.5 1.5061 13.2761 1.5061 13V12.4C1.5061 11.2716 1.50649 10.4555 1.55894 9.81353C1.61091 9.17744 1.71149 8.75662 1.88758 8.41103C2.22314 7.75247 2.75857 7.21704 3.41714 6.88148C3.76273 6.70539 4.18354 6.60481 4.81963 6.55284C5.46155 6.50039 6.27775 6.5 7.4061 6.5H17.799L15.6525 8.64645C15.4573 8.84171 15.4573 9.15829 15.6525 9.35355C15.8478 9.54882 16.1644 9.54882 16.3597 9.35355L19.3389 6.37429C19.5456 6.16758 19.5456 5.83243 19.3389 5.62571L16.3597 2.64645C16.1644 2.45118 15.8478 2.45118 15.6525 2.64645C15.4573 2.84171 15.4573 3.15829 15.6525 3.35355L17.799 5.5H7.38349C6.28253 5.5 5.42559 5.5 4.7382 5.55616C4.04027 5.61318 3.4732 5.73058 2.96315 5.99047C2.11642 6.4219 1.428 7.11031 0.996574 7.95704C0.736687 8.4671 0.619284 9.03416 0.562261 9.73209C0.506099 10.4195 0.506101 11.2764 0.506104 12.3774V13C0.506104 13.2761 0.729961 13.5 1.0061 13.5Z" fill="black"/>
</svg>
