<svg width="24" height="24" viewBox="0 0 24 24" fill="none" xmlns="http://www.w3.org/2000/svg">
<path d="M1.40972 1.32026C1.11683 1.02736 0.641958 1.02736 0.349064 1.32026C0.0561712 1.61315 0.0561712 2.08802 0.349064 2.38092L20.146 22.1779C20.4389 22.4708 20.9138 22.4708 21.2067 22.1779C21.4996 21.885 21.4996 21.4101 21.2067 21.1172L1.40972 1.32026Z" fill="black"/>
<path d="M3 8.50044H3.99322L11.5 16.0072V20.3099C11.5 21.0114 10.6229 21.3289 10.1738 20.7901L6.21558 16.0402C5.93059 15.6982 5.50842 15.5004 5.06325 15.5004H3C2.17157 15.5004 1.5 14.8289 1.5 14.0004V10.0004C1.5 9.17201 2.17157 8.50044 3 8.50044Z" fill="black"/>
<path d="M14.2246 11.6607L15.6039 13.04C15.699 12.7098 15.75 12.361 15.75 12.0005C15.75 10.9294 15.3 9.96225 14.5809 9.27987C14.2804 8.99475 13.8057 9.0072 13.5206 9.30767C13.2355 9.60814 13.2479 10.0829 13.5484 10.368C13.9036 10.7051 14.1482 11.1551 14.2246 11.6607Z" fill="black"/>
<path d="M17.4117 14.8478L18.4909 15.927C19.2831 14.8209 19.75 13.4647 19.75 12.0004C19.75 10.109 18.9711 8.39823 17.7185 7.17358C17.4223 6.88401 16.9474 6.88937 16.6579 7.18556C16.3683 7.48174 16.3737 7.95658 16.6698 8.24615C17.6457 9.20021 18.25 10.5291 18.25 12.0004C18.25 13.0503 17.9423 14.0275 17.4117 14.8478Z" fill="black"/>
<path d="M20.109 17.5451L21.1707 18.6068C22.7713 16.8703 23.75 14.5489 23.75 12.0004C23.75 9.28857 22.6419 6.83414 20.8556 5.06763C20.561 4.77637 20.0862 4.77901 19.7949 5.07353C19.5037 5.36805 19.5063 5.84292 19.8008 6.13418C21.3139 7.63049 22.25 9.70545 22.25 12.0004C22.25 14.1354 21.4399 16.0797 20.109 17.5451Z" fill="black"/>
<path d="M8.17421 5.61036L11.5 8.93615V3.69095C11.5 2.98948 10.6229 2.67192 10.1738 3.21081L8.17421 5.61036Z" fill="black"/>
</svg>
