<svg width="24" height="24" viewBox="0 0 24 24" fill="none" xmlns="http://www.w3.org/2000/svg">
<path fill-rule="evenodd" clip-rule="evenodd" d="M14.5352 8.29472C13.955 8.73615 13.4551 9.11657 13.0776 9.4603C12.7019 9.80251 12.3452 10.1966 12.1292 10.7071L12.1292 10.6684C12.1292 9.58093 12.1292 8.6794 12.0644 7.97881C12.0003 7.28577 11.8581 6.54232 11.3812 5.94828C10.7304 5.13777 9.7421 4.66038 8.69251 4.64955C7.92323 4.64161 7.23865 4.9857 6.64232 5.35972C6.0395 5.73783 5.31485 6.2893 4.44069 6.95455L2.67958 8.29472C2.09946 8.73615 1.59951 9.11657 1.22207 9.4603C0.828695 9.81854 0.45623 10.2337 0.244213 10.7796C-0.0608964 11.5654 -0.0608964 12.4342 0.244213 13.2199C0.45623 13.7659 0.828695 14.181 1.22207 14.5393C1.59951 14.883 2.09946 15.2634 2.67959 15.7048L4.4407 17.045C5.31485 17.7102 6.03951 18.2617 6.64233 18.6398C7.23865 19.0139 7.92323 19.3579 8.69251 19.35C9.7421 19.3392 10.7304 18.8618 11.3812 18.0513C11.8581 17.4572 12.0003 16.7138 12.0644 16.0207C12.1292 15.3201 12.1292 14.4187 12.1292 13.3312L12.1292 13.2924C12.3452 13.8029 12.7019 14.197 13.0776 14.5393C13.4551 14.883 13.955 15.2634 14.5351 15.7048L16.2963 17.045C17.1704 17.7102 17.8951 18.2617 18.4979 18.6398C19.0942 19.0139 19.7788 19.3579 20.5481 19.35C21.5977 19.3392 22.586 18.8618 23.2367 18.0513C23.7137 17.4572 23.8559 16.7138 23.92 16.0207C23.9848 15.3202 23.9848 14.4187 23.9848 13.3312V10.6684C23.9848 9.58095 23.9848 8.67939 23.92 7.97881C23.8559 7.28577 23.7137 6.54232 23.2367 5.94828C22.586 5.13777 21.5977 4.66038 20.5481 4.64955C19.7788 4.64161 19.0942 4.9857 18.4979 5.35972C17.8951 5.73783 17.1704 6.2893 16.2963 6.95453L14.5352 8.29472ZM14.4537 11.6649C14.4635 11.6396 14.5103 11.5344 14.7892 11.2805C15.0746 11.0205 15.4844 10.7072 16.1195 10.2239L17.7884 8.95387C18.7244 8.2416 19.3581 7.76098 19.8523 7.451C20.3611 7.13188 20.5201 7.12935 20.5217 7.12933C20.8097 7.1323 21.081 7.26332 21.2596 7.48576C21.2604 7.48693 21.3557 7.6123 21.4105 8.20366C21.4636 8.77803 21.4648 9.56532 21.4648 10.7297V13.2698C21.4648 14.4342 21.4636 15.2215 21.4105 15.7959C21.3557 16.3872 21.2604 16.5126 21.2596 16.5138C21.081 16.7362 20.8097 16.8673 20.5217 16.8702C20.5202 16.8702 20.3611 16.8677 19.8523 16.5485C19.3581 16.2386 18.7244 15.758 17.7884 15.0457L16.1195 13.7756C15.4844 13.2923 15.0746 12.9791 14.7892 12.7191C14.5103 12.4652 14.4635 12.36 14.4537 12.3346C14.3699 12.119 14.3699 11.8806 14.4537 11.6649ZM2.59811 11.6649C2.60795 11.6396 2.65478 11.5344 2.93358 11.2805C3.21906 11.0205 3.62883 10.7072 4.2639 10.2239L5.93286 8.95387C6.86887 8.2416 7.50249 7.76098 7.9967 7.451C8.50548 7.13188 8.66457 7.12935 8.66608 7.12933C8.95414 7.1323 9.22538 7.26332 9.40398 7.48576C9.40487 7.48693 9.50017 7.6123 9.55488 8.20366C9.60801 8.77803 9.60927 9.56532 9.60927 10.7297V13.2698C9.60927 14.4342 9.60801 15.2215 9.55488 15.7959C9.50017 16.3872 9.40487 16.5126 9.40399 16.5138C9.22538 16.7362 8.95415 16.8673 8.66609 16.8702C8.66458 16.8702 8.50548 16.8677 7.9967 16.5485C7.50249 16.2386 6.86887 15.758 5.93287 15.0457L4.2639 13.7756C3.62884 13.2923 3.21906 12.9791 2.93358 12.7191C2.65478 12.4652 2.60795 12.36 2.59811 12.3346C2.51437 12.119 2.51437 11.8806 2.59811 11.6649Z" fill="black"/>
</svg>
