<svg width="24" height="24" viewBox="0 0 24 24" fill="none" xmlns="http://www.w3.org/2000/svg">
<path d="M1.23295 1.49703C1.03769 1.30177 0.721103 1.30177 0.525841 1.49703C0.330579 1.69229 0.330579 2.00888 0.525841 2.20414L20.3228 22.0011C20.5181 22.1964 20.8347 22.1964 21.0299 22.0011C21.2252 21.8059 21.2252 21.4893 21.0299 21.294L1.23295 1.49703Z" fill="black"/>
<path d="M3 8.50044H4.70033L11.5 15.3001V20.3099C11.5 21.0114 10.6229 21.3289 10.1738 20.7901L6.21558 16.0402C5.93059 15.6982 5.50842 15.5004 5.06325 15.5004H3C2.17157 15.5004 1.5 14.8289 1.5 14.0004V10.0004C1.5 9.17201 2.17157 8.50044 3 8.50044Z" fill="black"/>
<path d="M14.4334 12.5766L15.2233 13.3665C15.4014 12.9467 15.5 12.485 15.5 12.0005C15.5 11.0008 15.0803 10.0984 14.4088 9.46122C14.2085 9.27114 13.892 9.27944 13.7019 9.47975C13.5119 9.68007 13.5202 9.99654 13.7205 10.1866C14.2012 10.6428 14.5 11.2863 14.5 12.0005C14.5 12.1988 14.477 12.3917 14.4334 12.5766Z" fill="black"/>
<path d="M17.2941 15.4374L18.0049 16.1481C18.9383 15.0229 19.5 13.5768 19.5 12.0004C19.5 10.179 18.7502 8.53189 17.5437 7.35234C17.3462 7.1593 17.0297 7.16287 16.8366 7.36033C16.6436 7.55778 16.6472 7.87434 16.8446 8.06739C17.8666 9.06655 18.5 10.4591 18.5 12.0004C18.5 13.3011 18.049 14.4957 17.2941 15.4374Z" fill="black"/>
<path d="M20.0058 18.1491L20.5763 18.7196C20.6813 18.7034 20.7819 18.6539 20.8611 18.5713C22.4952 16.8654 23.5 14.5497 23.5 12.0004C23.5 9.35805 22.4205 6.96686 20.6798 5.24538C20.4834 5.05121 20.1668 5.05298 19.9727 5.24932C19.7785 5.44567 19.7803 5.76225 19.9766 5.95642C21.5352 7.49776 22.5 9.63597 22.5 12.0004C22.5 14.2818 21.6019 16.3523 20.1389 17.8795C20.0651 17.9566 20.0209 18.0511 20.0058 18.1491Z" fill="black"/>
<path d="M7.8528 5.99605L11.5 9.64325V3.69095C11.5 2.98948 10.6229 2.67192 10.1738 3.21081L7.8528 5.99605Z" fill="black"/>
</svg>
