<svg width="24" height="24" viewBox="0 0 24 24" fill="none" xmlns="http://www.w3.org/2000/svg">
<path d="M20.7501 2C20.7501 1.86193 20.6381 1.75 20.5001 1.75C20.362 1.75 20.2501 1.86193 20.2501 2V22C20.2501 22.1381 20.362 22.25 20.5001 22.25C20.6381 22.25 20.7501 22.1381 20.7501 22V2Z" fill="black"/>
<path fill-rule="evenodd" clip-rule="evenodd" d="M14.4553 9.30041C15.0085 9.72137 15.4371 10.0475 15.7514 10.3338C16.069 10.623 16.2926 10.891 16.4138 11.2033C16.6131 11.7163 16.6131 12.2837 16.4138 12.7967C16.2926 13.109 16.069 13.377 15.7514 13.6662C15.4371 13.9525 15.0085 14.2786 14.4553 14.6996L8.8416 18.9715C8.01655 19.5994 7.38336 20.0812 6.86891 20.4039C6.35569 20.7258 5.91933 20.9171 5.4922 20.9127C4.80682 20.9056 4.16145 20.5939 3.7365 20.0646C3.47169 19.7348 3.35854 19.2781 3.30336 18.6816C3.24805 18.0837 3.24805 17.2961 3.24805 16.2697V7.73039C3.24805 6.70404 3.24805 5.91628 3.30336 5.3184C3.35854 4.72194 3.47169 4.26519 3.7365 3.93536C4.16145 3.4061 4.80682 3.09436 5.4922 3.08729C5.91933 3.08288 6.35569 3.27419 6.86891 3.5961C7.38337 3.91878 8.01654 4.40061 8.8416 5.02847L14.4553 9.30041ZM15.943 11.3803C15.8622 11.1722 15.7038 10.9662 15.4091 10.6978C15.1131 10.4282 14.7023 10.1153 14.1369 9.68506L8.54448 5.42933C7.70601 4.79127 7.09083 4.32344 6.59803 4.01435C6.10168 3.70302 5.77066 3.58043 5.49749 3.58325C4.96441 3.58875 4.46246 3.83121 4.13194 4.24286C3.96258 4.4538 3.85863 4.78651 3.80527 5.36337C3.75229 5.93609 3.75203 6.7012 3.75203 7.74427V16.2557C3.75203 17.2988 3.75229 18.0639 3.80527 18.6366C3.85863 19.2135 3.96258 19.5462 4.13194 19.7571C4.46246 20.1688 4.96441 20.4113 5.49749 20.4168C5.77066 20.4196 6.10168 20.297 6.59803 19.9856C7.09083 19.6766 7.70601 19.2087 8.54448 18.5707L14.1369 14.3149C14.7023 13.8847 15.1131 13.5718 15.4091 13.3022C15.7038 13.0338 15.8622 12.8278 15.943 12.6197C16.098 12.2206 16.098 11.7794 15.943 11.3803Z" fill="black"/>
</svg>
