<svg width="24" height="24" viewBox="0 0 24 24" fill="none" xmlns="http://www.w3.org/2000/svg">
<path fill-rule="evenodd" clip-rule="evenodd" d="M23.8769 8.43565C24 9.21298 24 10.142 24 12C24 13.858 24 14.787 23.8769 15.5643C23.1992 19.8433 19.8433 23.1992 15.5643 23.8769C14.787 24 13.858 24 12 24C10.142 24 9.21298 24 8.43565 23.8769C4.15673 23.1992 0.800833 19.8433 0.123117 15.5643C0 14.787 0 13.858 0 12C0 10.142 0 9.21298 0.123117 8.43565C0.800833 4.15673 4.15673 0.800832 8.43565 0.123117C9.21298 0 10.142 0 12 0C13.858 0 14.787 0 15.5643 0.123117C19.8433 0.800832 23.1992 4.15673 23.8769 8.43565ZM12.7826 6.13891C13.0819 5.77965 13.6667 5.99136 13.6667 6.459V17.5383C13.6667 18.006 13.0819 18.2177 12.7826 17.8584L10.1437 14.6918C9.95373 14.4638 9.67228 14.332 9.3755 14.332H8C7.44772 14.332 7 13.8843 7 13.332V10.6653C7 10.113 7.44772 9.66533 8 9.66533H9.3755C9.67228 9.66533 9.95373 9.53351 10.1437 9.30551L12.7826 6.13891Z" fill="black"/>
</svg>
