<svg width="24" height="24" viewBox="0 0 24 24" fill="none" xmlns="http://www.w3.org/2000/svg">
<path d="M19.6465 0.647159C19.8417 0.45191 20.1583 0.451937 20.3535 0.647159L23.333 3.62567C23.5396 3.83239 23.5397 4.16802 23.333 4.3747L20.3535 7.35321C20.1583 7.54825 19.8417 7.54832 19.6465 7.35321C19.4515 7.158 19.4515 6.84139 19.6465 6.64618L21.793 4.4997H16.9004C16.0721 4.4997 15.4006 5.17146 15.4004 5.9997V9.9997C15.4003 10.819 15.0037 11.5438 14.3945 11.9997C15.0038 12.4556 15.4003 13.1803 15.4004 13.9997V17.9997C15.4005 18.828 16.072 19.4997 16.9004 19.4997H21.793L19.6465 17.3542C19.4514 17.159 19.4516 16.8424 19.6465 16.6472C19.8417 16.4519 20.1583 16.4519 20.3535 16.6472L23.333 19.6257C23.5396 19.8324 23.5397 20.168 23.333 20.3747L20.3535 23.3532C20.1583 23.5482 19.8417 23.5483 19.6465 23.3532C19.4515 23.158 19.4515 22.8414 19.6465 22.6462L21.793 20.4997H16.9004C15.5197 20.4997 14.4005 19.3803 14.4004 17.9997V13.9997C14.4002 13.1716 13.7285 12.4999 12.9004 12.4997H10.292C10.3511 12.1687 10.3504 11.8307 10.291 11.4997H12.9004C13.7286 11.4995 14.4003 10.8279 14.4004 9.9997V5.9997C14.4006 4.61918 15.5198 3.4997 16.9004 3.4997H21.793L19.6465 1.35419C19.4514 1.15905 19.4516 0.842438 19.6465 0.647159Z" fill="black"/>
<path fill-rule="evenodd" clip-rule="evenodd" d="M2.15332 6.61689C2.46639 6.61367 2.74686 6.75342 2.99316 6.9079C3.24642 7.06677 3.55185 7.30038 3.92285 7.58271L7.71191 10.4655C7.95972 10.6541 8.17267 10.8156 8.33203 10.9606C8.49396 11.1081 8.64601 11.2786 8.73242 11.5007C8.85702 11.8218 8.85698 12.1776 8.73242 12.4987C8.64605 12.7209 8.49401 12.8912 8.33203 13.0388C8.17266 13.1839 7.95979 13.3453 7.71191 13.5339L3.92285 16.4167C3.55174 16.6991 3.24647 16.9336 2.99316 17.0925C2.7469 17.2469 2.46633 17.3857 2.15332 17.3825C1.72431 17.378 1.31976 17.1835 1.05371 16.8522C0.859799 16.6106 0.801878 16.3063 0.775391 16.0202C0.748188 15.7257 0.748046 15.3442 0.748047 14.8825V9.11689C0.748047 8.65516 0.748176 8.27364 0.775391 7.97919C0.801903 7.6931 0.859735 7.38877 1.05371 7.14716C1.31977 6.81598 1.72435 6.62144 2.15332 6.61689ZM2.16406 7.6081C2.03958 7.60944 1.92196 7.66632 1.84473 7.76239C1.84149 7.76642 1.80216 7.82237 1.7793 8.06903C1.75721 8.30779 1.75586 8.63528 1.75586 9.11689V14.8825C1.75586 15.3641 1.75723 15.6916 1.7793 15.9304C1.80186 16.1742 1.84063 16.2317 1.84473 16.237C1.92196 16.3332 2.03951 16.39 2.16406 16.3913C2.16928 16.3914 2.23886 16.3887 2.45117 16.2556C2.65652 16.1267 2.91981 15.9269 3.30664 15.6325L7.0957 12.7487C7.35811 12.549 7.5286 12.4185 7.64746 12.3102C7.7635 12.2045 7.78552 12.1584 7.79102 12.1442C7.827 12.0512 7.82707 11.9482 7.79102 11.8552C7.78537 11.8407 7.76296 11.7944 7.64746 11.6892C7.52858 11.5809 7.35807 11.4503 7.0957 11.2507L3.30664 8.36689C2.9198 8.07251 2.65651 7.87264 2.45117 7.74384C2.23893 7.61077 2.16929 7.60804 2.16406 7.6081Z" fill="black"/>
</svg>
