<svg width="24" height="24" viewBox="0 0 24 24" fill="none" xmlns="http://www.w3.org/2000/svg">
<path d="M20.2422 1.5C20.5182 1.5 20.7419 1.72407 20.7422 2V6.21289C20.7422 6.50521 20.5052 6.74217 20.2129 6.74219H16C15.7241 6.74194 15.5 6.51818 15.5 6.24219C15.5002 5.9664 15.7242 5.74243 16 5.74219H19.2588C17.5052 3.7839 14.9592 2.55176 12.125 2.55176C6.83785 2.55176 2.55176 6.83785 2.55176 12.125C2.55176 17.4122 6.83785 21.6982 12.125 21.6982C17.4122 21.6982 21.6982 17.4122 21.6982 12.125C21.6982 11.8489 21.9221 11.625 22.1982 11.625C22.4744 11.625 22.6982 11.8489 22.6982 12.125C22.6982 17.9644 17.9644 22.6982 12.125 22.6982C6.28556 22.6982 1.55176 17.9644 1.55176 12.125C1.55176 6.28556 6.28556 1.55176 12.125 1.55176C15.117 1.55176 17.8193 2.79445 19.7422 4.79102V2C19.7424 1.72422 19.9664 1.50025 20.2422 1.5Z" fill="black"/>
<path fill-rule="evenodd" clip-rule="evenodd" d="M11.1309 6.61719C11.444 6.61397 11.7244 6.7537 11.9707 6.9082C12.224 7.06708 12.5293 7.30065 12.9004 7.58301L16.6895 10.4658C16.9373 10.6544 17.1502 10.8158 17.3096 10.9609C17.4715 11.1084 17.6236 11.2788 17.71 11.501C17.8346 11.8221 17.8346 12.1779 17.71 12.499C17.6236 12.7213 17.4716 12.8915 17.3096 13.0391C17.1502 13.1842 16.9374 13.3455 16.6895 13.5342L12.9004 16.417C12.5292 16.6994 12.224 16.9339 11.9707 17.0928C11.7244 17.2472 11.4439 17.386 11.1309 17.3828C10.7018 17.3783 10.2973 17.1838 10.0312 16.8525C9.83727 16.6108 9.77942 16.3067 9.75293 16.0205C9.72571 15.726 9.72559 15.3446 9.72559 14.8828V9.11719C9.72559 8.65538 9.72571 8.27398 9.75293 7.97949C9.77943 7.69335 9.83723 7.38912 10.0312 7.14746C10.2973 6.81622 10.7018 6.62174 11.1309 6.61719ZM11.1416 7.6084C11.0171 7.60974 10.8995 7.66655 10.8223 7.7627C10.819 7.76672 10.7797 7.82252 10.7568 8.06934C10.7347 8.30813 10.7334 8.63549 10.7334 9.11719V14.8828C10.7334 15.3645 10.7347 15.6919 10.7568 15.9307C10.7796 16.1763 10.8187 16.2327 10.8223 16.2373C10.8995 16.3335 11.0171 16.3903 11.1416 16.3916C11.1468 16.3917 11.2164 16.389 11.4287 16.2559C11.6341 16.127 11.8973 15.9272 12.2842 15.6328L16.0732 12.749C16.3357 12.5493 16.5061 12.4188 16.625 12.3105C16.7411 12.2048 16.7631 12.1587 16.7686 12.1445C16.8046 12.0514 16.8046 11.9486 16.7686 11.8555C16.763 11.8412 16.7409 11.795 16.625 11.6895C16.5061 11.5812 16.3357 11.4507 16.0732 11.251L12.2842 8.36719C11.8973 8.07278 11.6341 7.87295 11.4287 7.74414C11.2164 7.61104 11.1468 7.60835 11.1416 7.6084Z" fill="black"/>
</svg>
