<svg width="24" height="24" viewBox="0 0 24 24" fill="none" xmlns="http://www.w3.org/2000/svg">
<path d="M3.25 2C3.25 1.86193 3.36193 1.75 3.5 1.75C3.63807 1.75 3.75 1.86193 3.75 2V22C3.75 22.1381 3.63807 22.25 3.5 22.25C3.36193 22.25 3.25 22.1381 3.25 22V2Z" fill="black"/>
<path fill-rule="evenodd" clip-rule="evenodd" d="M9.54474 9.30041C8.99155 9.72137 8.56299 10.0475 8.24864 10.3338C7.93104 10.623 7.70751 10.891 7.58625 11.2033C7.38701 11.7163 7.38701 12.2837 7.58625 12.7967C7.70751 13.109 7.93104 13.377 8.24864 13.6662C8.56299 13.9525 8.99155 14.2786 9.54474 14.6996L15.1585 18.9715C15.9835 19.5994 16.6167 20.0812 17.1312 20.4039C17.6444 20.7258 18.0807 20.9171 18.5079 20.9127C19.1933 20.9056 19.8386 20.5939 20.2636 20.0646C20.5284 19.7348 20.6415 19.2781 20.6967 18.6816C20.752 18.0837 20.752 17.2961 20.752 16.2697V7.73039C20.752 6.70404 20.752 5.91628 20.6967 5.3184C20.6415 4.72194 20.5284 4.26519 20.2636 3.93536C19.8386 3.4061 19.1933 3.09436 18.5079 3.08729C18.0807 3.08288 17.6444 3.27419 17.1312 3.5961C16.6167 3.91878 15.9835 4.40061 15.1585 5.02847L9.54474 9.30041ZM8.05703 11.3803C8.13786 11.1722 8.29626 10.9662 8.59094 10.6978C8.88697 10.4282 9.29774 10.1153 9.86317 9.68506L15.4556 5.42933C16.2941 4.79127 16.9092 4.32344 17.402 4.01435C17.8984 3.70302 18.2294 3.58043 18.5026 3.58325C19.0357 3.58875 19.5376 3.83121 19.8681 4.24286C20.0375 4.4538 20.1414 4.78651 20.1948 5.36337C20.2478 5.93609 20.248 6.7012 20.248 7.74427V16.2557C20.248 17.2988 20.2478 18.0639 20.1948 18.6366C20.1414 19.2135 20.0375 19.5462 19.8681 19.7571C19.5376 20.1688 19.0357 20.4113 18.5026 20.4168C18.2294 20.4196 17.8984 20.297 17.402 19.9856C16.9092 19.6766 16.2941 19.2087 15.4556 18.5707L9.86317 14.3149C9.29774 13.8847 8.88697 13.5718 8.59095 13.3022C8.29626 13.0338 8.13786 12.8278 8.05703 12.6197C7.90207 12.2206 7.90207 11.7794 8.05703 11.3803Z" fill="black"/>
</svg>
