<svg width="24" height="24" viewBox="0 0 24 24" fill="none" xmlns="http://www.w3.org/2000/svg">
<path d="M3 18.7499C2.58579 18.7499 2.25 19.0857 2.25 19.4999C2.25 19.9141 2.58579 20.2499 3 20.2499H21C21.4142 20.2499 21.75 19.9141 21.75 19.4999C21.75 19.0857 21.4142 18.7499 21 18.7499H3Z" fill="black"/>
<path d="M9.48888 5.70893L5.23315 11.3013C3.96308 12.9703 3.32804 13.8048 3.33527 14.5051C3.34155 15.1144 3.61866 15.688 4.08911 16.0658C4.62988 16.4999 5.66801 16.4999 7.74426 16.4999H16.2557C18.332 16.4999 19.3701 16.4999 19.9109 16.0658C20.3813 15.688 20.6584 15.1144 20.6647 14.5051C20.672 13.8048 20.0369 12.9703 18.7669 11.3014L14.5111 5.70893C13.6561 4.5854 13.2286 4.02364 12.7082 3.82154C12.2522 3.64445 11.7478 3.64445 11.2918 3.82154C10.7714 4.02364 10.3439 4.58541 9.48888 5.70893Z" fill="black"/>
</svg>
