<svg width="25" height="24" viewBox="0 0 25 24" fill="none" xmlns="http://www.w3.org/2000/svg">
<path fill-rule="evenodd" clip-rule="evenodd" d="M0.5 13.7774V10.2218C0.5 8.3502 2.01725 6.83294 3.88889 6.83294H5.38462L8.68651 2.87067C10.3165 0.914713 13.5 2.0673 13.5 4.61339V19.3858C13.5 21.9319 10.3165 23.0845 8.68651 21.1285L5.38462 17.1663H3.88889C2.01726 17.1663 0.5 15.649 0.5 13.7774ZM7.08862 15.3059C6.75085 14.9006 6.2505 14.6663 5.72289 14.6663H3.88889C3.39797 14.6663 3 14.2683 3 13.7774V10.2218C3 9.73091 3.39797 9.33294 3.88889 9.33294H5.72289C6.2505 9.33294 6.75085 9.09858 7.08862 8.69326L10.6071 4.47113C10.7401 4.31146 11 4.40555 11 4.61339V19.3858C11 19.5937 10.7401 19.6877 10.6071 19.5281L7.08862 15.3059Z" fill="black"/>
</svg>
