<svg width="25" height="24" viewBox="0 0 25 24" fill="none" xmlns="http://www.w3.org/2000/svg">
<path fill-rule="evenodd" clip-rule="evenodd" d="M0.5 10.2223V13.7779C0.5 15.6495 2.01726 17.1668 3.88889 17.1668H5.38462L8.68651 21.129C10.3165 23.085 13.5 21.9324 13.5 19.3863V4.61388C13.5 2.06779 10.3165 0.915201 8.68651 2.87115L5.38462 6.83342H3.88889C2.01725 6.83342 0.5 8.35068 0.5 10.2223ZM7.08862 15.3064L10.6071 19.5286C10.7401 19.6882 11 19.5941 11 19.3863V4.61388C11 4.40603 10.7401 4.31195 10.6071 4.47162L7.08862 8.69375C6.75085 9.09907 6.2505 9.33342 5.72289 9.33342H3.88889C3.39797 9.33342 3 9.73139 3 10.2223V13.7779C3 14.2688 3.39797 14.6668 3.88889 14.6668H5.72289C6.2505 14.6668 6.75085 14.9011 7.08862 15.3064Z" fill="black"/>
<path d="M15.753 9.09815C15.3523 8.718 14.7194 8.73459 14.3392 9.13522C13.9591 9.53585 13.9757 10.1688 14.3763 10.5489C14.7617 10.9147 15 11.4287 15 12.0001C15 12.5331 14.7928 13.0155 14.4526 13.3748C14.0729 13.7759 14.0902 14.4088 14.4912 14.7885C14.8922 15.1683 15.5252 15.151 15.9049 14.7499C16.5828 14.034 17 13.0647 17 12.0001C17 10.8577 16.5198 9.82577 15.753 9.09815Z" fill="black"/>
</svg>
