<svg width="24" height="24" viewBox="0 0 24 24" fill="none" xmlns="http://www.w3.org/2000/svg">
<path d="M23.7607 4.01062L19.9443 6.91394L19.957 4.74988H16.9004C16.2102 4.74988 15.6506 5.3097 15.6504 5.99988V9.99988C15.6503 10.7889 15.3156 11.4984 14.7832 11.9999C15.3158 12.5013 15.6503 13.2108 15.6504 13.9999V17.9999C15.6505 18.6902 16.2101 19.2499 16.9004 19.2499H19.9658L19.9785 17.0116L23.7607 19.9608L19.9443 22.8641L19.957 20.7499H16.9004C15.3817 20.7499 14.1505 19.5186 14.1504 17.9999V13.9999C14.1502 13.3098 13.5904 12.7501 12.9004 12.7499H10.2363C10.3707 12.2583 10.3692 11.7413 10.2344 11.2499H12.9004C13.5905 11.2497 14.1503 10.69 14.1504 9.99988V5.99988C14.1506 4.48128 15.3817 3.24988 16.9004 3.24988H19.9658L19.9785 1.0614L23.7607 4.01062Z" fill="black"/>
<path d="M2.15625 6.86414C2.39215 6.86183 2.61978 6.96804 2.85742 7.11707C3.0988 7.26848 3.39436 7.49368 3.76953 7.77917L7.55859 10.662C7.81014 10.8534 8.0119 11.0075 8.16113 11.1434C8.31166 11.2805 8.43093 11.4195 8.49707 11.5897C8.59959 11.8539 8.59955 12.1459 8.49707 12.41C8.43093 12.5804 8.31173 12.7201 8.16113 12.8573C8.01194 12.9931 7.80997 13.1465 7.55859 13.3378L3.76953 16.2206C3.39426 16.5062 3.09884 16.7322 2.85742 16.8837C2.61984 17.0326 2.39209 17.1379 2.15625 17.1356C1.80346 17.1318 1.47078 16.9705 1.25195 16.6981C1.10579 16.5159 1.05096 16.2741 1.02539 15.9979C0.999468 15.7174 1 15.3494 1 14.8827V9.11707C1 8.6503 0.999451 8.28239 1.02539 8.00183C1.05097 7.72559 1.10574 7.48389 1.25195 7.30164C1.47078 7.0293 1.80348 6.86792 2.15625 6.86414Z" fill="black"/>
</svg>
