<svg width="24" height="24" viewBox="0 0 24 24" fill="none" xmlns="http://www.w3.org/2000/svg">
<path fill-rule="evenodd" clip-rule="evenodd" d="M0.123117 8.43565C0 9.21298 0 10.142 0 12C0 13.858 0 14.787 0.123117 15.5643C0.800832 19.8433 4.15673 23.1992 8.43565 23.8769C9.21298 24 10.142 24 12 24C13.858 24 14.787 24 15.5643 23.8769C19.8433 23.1992 23.1992 19.8433 23.8769 15.5643C24 14.787 24 13.858 24 12C24 10.142 24 9.21298 23.8769 8.43565C23.1992 4.15673 19.8433 0.800832 15.5643 0.123117C14.787 0 13.858 0 12 0C10.142 0 9.21298 0 8.43565 0.123117C4.15673 0.800832 0.800832 4.15673 0.123117 8.43565ZM6.5 6.51667C6.5 6.18997 6.5 6.02662 6.56358 5.90184C6.61951 5.79208 6.70875 5.70284 6.81851 5.64691C6.94329 5.58333 7.10664 5.58333 7.43333 5.58333H9.56667C9.89336 5.58333 10.0567 5.58333 10.1815 5.64691C10.2913 5.70284 10.3805 5.79208 10.4364 5.90184C10.5 6.02662 10.5 6.18997 10.5 6.51667V17.4833C10.5 17.81 10.5 17.9734 10.4364 18.0982C10.3805 18.2079 10.2913 18.2972 10.1815 18.3531C10.0567 18.4167 9.89336 18.4167 9.56667 18.4167H7.43333C7.10664 18.4167 6.94329 18.4167 6.81851 18.3531C6.70875 18.2972 6.61951 18.2079 6.56358 18.0982C6.5 17.9734 6.5 17.81 6.5 17.4833V6.51667ZM13.5 6.51667C13.5 6.18997 13.5 6.02662 13.5636 5.90184C13.6195 5.79208 13.7087 5.70284 13.8185 5.64691C13.9433 5.58333 14.1066 5.58333 14.4333 5.58333H16.5667C16.8934 5.58333 17.0567 5.58333 17.1815 5.64691C17.2913 5.70284 17.3805 5.79208 17.4364 5.90184C17.5 6.02662 17.5 6.18997 17.5 6.51667V17.4833C17.5 17.81 17.5 17.9734 17.4364 18.0982C17.3805 18.2079 17.2913 18.2972 17.1815 18.3531C17.0567 18.4167 16.8934 18.4167 16.5667 18.4167H14.4333C14.1066 18.4167 13.9433 18.4167 13.8185 18.3531C13.7087 18.2972 13.6195 18.2079 13.5636 18.0982C13.5 17.9734 13.5 17.81 13.5 17.4833V6.51667Z" fill="black"/>
</svg>
