<svg width="24" height="24" viewBox="0 0 24 24" fill="none" xmlns="http://www.w3.org/2000/svg">
<path d="M3.60899 1.54601C3.5 1.75992 3.5 2.03995 3.5 2.6V21.4C3.5 21.9601 3.5 22.2401 3.60899 22.454C3.70487 22.6422 3.85785 22.7951 4.04601 22.891C4.25992 23 4.53995 23 5.1 23H7.9C8.46005 23 8.74008 23 8.95399 22.891C9.14215 22.7951 9.29513 22.6422 9.39101 22.454C9.5 22.2401 9.5 21.9601 9.5 21.4V2.6C9.5 2.03995 9.5 1.75992 9.39101 1.54601C9.29513 1.35785 9.14215 1.20487 8.95399 1.10899C8.74008 1 8.46005 1 7.9 1H5.1C4.53995 1 4.25992 1 4.04601 1.10899C3.85785 1.20487 3.70487 1.35785 3.60899 1.54601Z" fill="black"/>
<path d="M14.609 1.54601C14.5 1.75992 14.5 2.03995 14.5 2.6V21.4C14.5 21.9601 14.5 22.2401 14.609 22.454C14.7049 22.6422 14.8578 22.7951 15.046 22.891C15.2599 23 15.5399 23 16.1 23H18.9C19.4601 23 19.7401 23 19.954 22.891C20.1422 22.7951 20.2951 22.6422 20.391 22.454C20.5 22.2401 20.5 21.9601 20.5 21.4V2.6C20.5 2.03995 20.5 1.75992 20.391 1.54601C20.2951 1.35785 20.1422 1.20487 19.954 1.10899C19.7401 1 19.4601 1 18.9 1H16.1C15.5399 1 15.2599 1 15.046 1.10899C14.8578 1.20487 14.7049 1.35785 14.609 1.54601Z" fill="black"/>
</svg>
