<svg width="24" height="24" viewBox="0 0 24 24" fill="none" xmlns="http://www.w3.org/2000/svg">
<path d="M21.2355 5.12143C21.1641 5.21189 21.1641 5.38528 21.1641 5.73206V6.48814L16.565 6.48813C15.7024 6.48807 15.1924 6.48804 14.7572 6.5746C14.1142 6.70251 13.5217 6.96542 13.0102 7.3329C13.1984 7.60951 13.3658 7.90154 13.5104 8.20682C13.9266 7.8887 14.4169 7.66188 14.9523 7.55539C15.2782 7.49056 15.6818 7.48814 16.6351 7.48814H21.1641V8.26803C21.1641 8.61481 21.1641 8.7882 21.2355 8.87866C21.2976 8.95736 21.3919 9.00378 21.4922 9.00496C21.6074 9.00632 21.7448 8.90051 22.0195 8.68889L23.6656 7.42091C23.8515 7.27768 23.9445 7.20606 23.9779 7.1188C24.0072 7.04234 24.0072 6.95775 23.9779 6.88129C23.9445 6.79403 23.8515 6.72242 23.6656 6.57919L22.0195 5.3112C21.7448 5.09958 21.6074 4.99377 21.4922 4.99513C21.3919 4.99631 21.2976 5.04273 21.2355 5.12143Z" fill="black"/>
<path d="M6.63512 7.48812C7.58839 7.48812 7.99201 7.49055 8.31793 7.55537C9.70635 7.83155 10.7917 8.91689 11.0679 10.3053C11.1327 10.6312 11.1351 11.0348 11.1351 11.9881L11.1351 12.0583C11.1351 12.9209 11.135 13.4308 11.2216 13.866C11.5767 15.6511 12.9721 17.0466 14.7572 17.4017C15.1924 17.4882 15.7024 17.4882 16.5649 17.4881L21.1641 17.4881V18.268C21.1641 18.6147 21.1641 18.7881 21.2355 18.8786C21.2976 18.9573 21.3919 19.0037 21.4922 19.0049C21.6074 19.0062 21.7448 18.9004 22.0195 18.6888L23.6656 17.4208C23.8515 17.2776 23.9445 17.206 23.9779 17.1187C24.0072 17.0423 24.0072 16.9577 23.9779 16.8812C23.9445 16.794 23.8515 16.7223 23.6656 16.5791L22.0195 15.3111C21.7448 15.0995 21.6074 14.9937 21.4922 14.9951C21.3919 14.9962 21.2976 15.0427 21.2355 15.1214C21.1641 15.2118 21.1641 15.3852 21.1641 15.732V16.4881H16.6351C15.6818 16.4881 15.2782 16.4857 14.9523 16.4209C13.5639 16.1447 12.4785 15.0594 12.2024 13.6709C12.1375 13.345 12.1351 12.9414 12.1351 11.9881L12.1351 11.918C12.1352 11.0554 12.1352 10.5454 12.0487 10.1102C11.6936 8.32511 10.2981 6.92967 8.51302 6.57459C8.07783 6.48802 7.56787 6.48806 6.70529 6.48812L0.5 6.48812C0.223858 6.48812 0 6.71198 0 6.98812C0 7.26427 0.223858 7.48812 0.5 7.48812H6.63512Z" fill="black"/>
<path d="M9.75989 15.7695C9.34365 16.0876 8.85333 16.3144 8.31793 16.4209C7.99201 16.4857 7.58839 16.4881 6.63512 16.4881H0.5C0.223858 16.4881 0 16.712 0 16.9881C0 17.2643 0.223858 17.4881 0.5 17.4881L6.70529 17.4881C7.56787 17.4882 8.07783 17.4882 8.51302 17.4017C9.15606 17.2738 9.74854 17.0109 10.26 16.6434C10.0718 16.3668 9.9044 16.0747 9.75989 15.7695Z" fill="black"/>
</svg>
