<svg width="24" height="24" viewBox="0 0 24 24" fill="none" xmlns="http://www.w3.org/2000/svg">
<path d="M22.9937 10.7501C22.8556 10.7501 22.7437 10.8621 22.7437 11.0001V11.6001C22.7437 12.7244 22.7435 13.5525 22.69 14.207C22.6368 14.8585 22.532 15.3159 22.3349 15.7026C21.9754 16.4082 21.4017 16.9819 20.6961 17.3414C20.3094 17.5384 19.852 17.6432 19.2005 17.6965C18.546 17.7499 17.7179 17.7501 16.5937 17.7501H6.12139V17.0564C6.12139 16.7969 6.12139 16.6672 6.06797 16.5995C6.0215 16.5406 5.95091 16.5059 5.87591 16.505C5.78969 16.504 5.68693 16.5832 5.48139 16.7415L4.24986 17.6901C4.11074 17.7973 4.04119 17.8509 4.01618 17.9162C3.99427 17.9734 3.99427 18.0366 4.01618 18.0939C4.04119 18.1591 4.11074 18.2127 4.24986 18.3199L5.48139 19.2685C5.68693 19.4268 5.78969 19.506 5.87591 19.505C5.95091 19.5041 6.0215 19.4694 6.06797 19.4105C6.12139 19.3428 6.12139 19.2131 6.12139 18.9537V18.2501H16.6053C17.7155 18.2501 18.564 18.2501 19.2412 18.1948C19.9237 18.139 20.4542 18.0258 20.9231 17.7869C21.7228 17.3794 22.373 16.7293 22.7804 15.9296C23.0194 15.4606 23.1326 14.9301 23.1883 14.2477C23.2437 13.5705 23.2437 12.722 23.2437 11.6118V11.0001C23.2437 10.8621 23.1317 10.7501 22.9937 10.7501Z" fill="black"/>
<path d="M1.00586 13.25C1.14393 13.25 1.25586 13.1381 1.25586 13V12.4C1.25586 11.2758 1.25605 10.4476 1.30953 9.79318C1.36276 9.14163 1.46755 8.68426 1.66458 8.29755C2.02411 7.59194 2.59779 7.01827 3.3034 6.65874C3.6901 6.4617 4.14748 6.35691 4.79903 6.30368C5.45349 6.25021 6.28163 6.25001 7.40586 6.25001H17.7139V6.9536C17.7139 7.21304 17.7139 7.34276 17.7673 7.41044C17.8138 7.46932 17.8844 7.50405 17.9594 7.50493C18.0456 7.50595 18.1484 7.42679 18.3539 7.26847L19.5855 6.31981C19.7246 6.21265 19.7941 6.15907 19.8191 6.09379C19.841 6.03659 19.841 5.9733 19.8191 5.9161C19.7941 5.85081 19.7246 5.79723 19.5855 5.69008L18.3539 4.74142C18.1484 4.5831 18.0456 4.50394 17.9594 4.50495C17.8844 4.50584 17.8138 4.54057 17.7673 4.59945C17.7139 4.66713 17.7139 4.79685 17.7139 5.05629V5.75001H7.39421C6.28397 5.75001 5.43549 5.75001 4.75831 5.80534C4.07584 5.8611 3.54534 5.9743 3.0764 6.21324C2.27671 6.6207 1.62654 7.27087 1.21908 8.07055C0.980145 8.53949 0.866946 9.07 0.811186 9.75246C0.755859 10.4296 0.755859 11.2781 0.755859 12.3884V13C0.755859 13.1381 0.867788 13.25 1.00586 13.25Z" fill="black"/>
</svg>
