<svg width="24" height="24" viewBox="0 0 24 24" fill="none" xmlns="http://www.w3.org/2000/svg">
<path fill-rule="evenodd" clip-rule="evenodd" d="M9.46524 8.29496C10.0454 8.73639 10.5453 9.11682 10.9228 9.46054C11.2985 9.80275 11.6552 10.1969 11.8712 10.7074L11.8712 10.6686C11.8712 9.58117 11.8712 8.67965 11.936 7.97906C12.0001 7.28601 12.1423 6.54257 12.6192 5.94853C13.27 5.13802 14.2583 4.66062 15.3079 4.64979C16.0772 4.64186 16.7617 4.98594 17.3581 5.35997C17.9609 5.73808 18.6855 6.28955 19.5597 6.95479L21.3208 8.29496C21.9009 8.73639 22.4009 9.11682 22.7783 9.46054C23.1717 9.81878 23.5442 10.2339 23.7562 10.7799C24.0613 11.5656 24.0613 12.4344 23.7562 13.2201C23.5442 13.7661 23.1717 14.1813 22.7783 14.5395C22.4009 14.8832 21.9009 15.2636 21.3208 15.7051L19.5597 17.0452C18.6856 17.7105 17.9609 18.262 17.3581 18.6401C16.7617 19.0141 16.0772 19.3582 15.3079 19.3502C14.2583 19.3394 13.27 18.862 12.6192 18.0515C12.1423 17.4575 12.0001 16.714 11.936 16.021C11.8712 15.3204 11.8712 14.4189 11.8712 13.3314L11.8712 13.2927C11.6552 13.8032 11.2985 14.1973 10.9228 14.5395C10.5453 14.8832 10.0454 15.2636 9.46525 15.7051L7.70413 17.0452C6.82998 17.7105 6.10532 18.262 5.5025 18.6401C4.90618 19.0141 4.22159 19.3582 3.45232 19.3502C2.40272 19.3394 1.4144 18.862 0.763647 18.0515C0.286692 17.4575 0.144514 16.714 0.0803987 16.021C0.0155872 15.3204 0.0156047 14.4189 0.0156258 13.3315V10.6686C0.0156047 9.58119 0.0155872 8.67964 0.0803987 7.97906C0.144513 7.28601 0.286693 6.54257 0.763647 5.94853C1.4144 5.13802 2.40272 4.66062 3.45232 4.64979C4.22159 4.64186 4.90618 4.98594 5.5025 5.35997C6.10532 5.73807 6.82997 6.28954 7.70411 6.95478L9.46524 8.29496ZM9.54672 11.6652C9.53687 11.6398 9.49005 11.5346 9.21124 11.2807C8.92577 11.0207 8.51599 10.7074 7.88092 10.2242L6.21196 8.95412C5.27596 8.24184 4.64233 7.76122 4.14812 7.45124C3.63934 7.13212 3.48025 7.12959 3.47874 7.12957C3.19069 7.13254 2.91944 7.26356 2.74084 7.486C2.73995 7.48717 2.64465 7.61254 2.58995 8.20391C2.53681 8.77827 2.53555 9.56556 2.53555 10.73V13.2701C2.53555 14.4345 2.53681 15.2218 2.58995 15.7961C2.64465 16.3875 2.73995 16.5129 2.74084 16.514C2.91944 16.7365 3.19068 16.8675 3.47873 16.8705C3.48024 16.8704 3.63934 16.8679 4.14812 16.5488C4.64233 16.2388 5.27596 15.7582 6.21196 15.0459L7.88092 13.7759C8.51599 13.2926 8.92576 12.9793 9.21124 12.7193C9.49005 12.4654 9.53687 12.3602 9.54672 12.3349C9.63045 12.1192 9.63045 11.8808 9.54672 11.6652ZM21.4023 11.6652C21.3924 11.6398 21.3456 11.5346 21.0668 11.2807C20.7813 11.0207 20.3716 10.7074 19.7365 10.2242L18.0675 8.95412C17.1315 8.24184 16.4979 7.76122 16.0037 7.45124C15.4949 7.13212 15.3358 7.12959 15.3343 7.12957C15.0463 7.13254 14.775 7.26356 14.5964 7.486C14.5955 7.48717 14.5002 7.61254 14.4455 8.20391C14.3924 8.77827 14.3911 9.56556 14.3911 10.73V13.2701C14.3911 14.4345 14.3924 15.2218 14.4455 15.7961C14.5002 16.3875 14.5955 16.5129 14.5964 16.514C14.775 16.7365 15.0463 16.8675 15.3343 16.8705C15.3358 16.8704 15.4949 16.8679 16.0037 16.5488C16.4979 16.2388 17.1315 15.7582 18.0675 15.0459L19.7365 13.7759C20.3716 13.2926 20.7813 12.9793 21.0668 12.7193C21.3456 12.4654 21.3924 12.3602 21.4023 12.3349C21.486 12.1192 21.486 11.8808 21.4023 11.6652Z" fill="black"/>
</svg>
