<svg width="24" height="24" viewBox="0 0 24 24" fill="none" xmlns="http://www.w3.org/2000/svg">
<path fill-rule="evenodd" clip-rule="evenodd" d="M21.4957 9.2511C22.01 9.64243 22.4225 9.95636 22.7281 10.2346C23.0401 10.5188 23.2856 10.8046 23.4215 11.1545C23.633 11.6992 23.633 12.3015 23.4215 12.8463C23.2856 13.1961 23.0401 13.4819 22.7281 13.7661C22.4225 14.0444 22.01 14.3583 21.4957 14.7496L17.8136 17.5517C17.0436 18.1376 16.4378 18.5986 15.9417 18.9098C15.4481 19.2194 14.9804 19.4363 14.4958 19.4313C13.7681 19.4238 13.0829 19.0928 12.6318 18.5309C12.3313 18.1567 12.2196 17.6599 12.1665 17.0862C12.1132 16.5096 12.1132 15.756 12.1132 14.7982V9.2026C12.1132 8.24479 12.1132 7.49108 12.1665 6.91451C12.2196 6.34087 12.3313 5.84405 12.6318 5.46981C13.0829 4.9079 13.7681 4.57693 14.4958 4.56942C14.9804 4.56442 15.4481 4.78136 15.9417 5.09095C16.4378 5.40211 17.0436 5.86311 17.8135 6.44901L21.4957 9.2511ZM22.4799 11.5086C22.4249 11.367 22.3097 11.2051 22.0435 10.9627C21.7746 10.7178 21.3978 10.4305 20.8599 10.0212L17.2184 7.2501C16.4224 6.64433 15.8527 6.21143 15.4 5.92746C14.9401 5.63902 14.6831 5.55951 14.5064 5.56133C14.0833 5.5657 13.685 5.75812 13.4227 6.0848C13.3131 6.22127 13.2198 6.47001 13.1703 7.00445C13.1217 7.53062 13.1212 8.23894 13.1212 9.22924L13.1212 14.7715C13.1212 15.7618 13.1217 16.4701 13.1703 16.9963C13.2198 17.5307 13.3131 17.7795 13.4227 17.9159C13.685 18.2426 14.0833 18.435 14.5064 18.4394C14.6831 18.4412 14.9401 18.3617 15.4 18.0733C15.8527 17.7893 16.4224 17.3564 17.2184 16.7506L20.8599 13.9795C21.3978 13.5702 21.7746 13.2829 22.0435 13.038C22.3097 12.7956 22.4249 12.6338 22.4799 12.4922C22.6029 12.1755 22.6029 11.8253 22.4799 11.5086Z" fill="black"/>
<path fill-rule="evenodd" clip-rule="evenodd" d="M9.38253 9.2511C9.89677 9.64243 10.3093 9.95636 10.6149 10.2346C10.9269 10.5188 11.1724 10.8046 11.3083 11.1545C11.5198 11.6992 11.5198 12.3015 11.3083 12.8463C11.1724 13.1961 10.9269 13.4819 10.6149 13.7661C10.3093 14.0444 9.8968 14.3583 9.38256 14.7496L5.70038 17.5517C4.93044 18.1376 4.32462 18.5986 3.82852 18.9098C3.33494 19.2194 2.86723 19.4363 2.3826 19.4313C1.65493 19.4238 0.969749 19.0928 0.51859 18.5309C0.218118 18.1567 0.106401 17.6599 0.0533324 17.0862C-7.59587e-06 16.5096 -4.19399e-06 15.756 7.62037e-08 14.7982V9.2026C-4.19409e-06 8.24478 -7.55489e-06 7.49109 0.0533321 6.91451C0.106401 6.34087 0.218118 5.84405 0.51859 5.46981C0.969749 4.9079 1.65493 4.57693 2.3826 4.56942C2.86723 4.56442 3.33494 4.78136 3.82852 5.09095C4.32462 5.40212 4.93044 5.86314 5.70037 6.44905L9.38253 9.2511ZM10.3667 11.5086C10.3117 11.367 10.1965 11.2051 9.93029 10.9627C9.66141 10.7178 9.28462 10.4305 8.74675 10.0212L5.10525 7.25011C4.3092 6.64433 3.73951 6.21143 3.28677 5.92746C2.82691 5.63903 2.56989 5.55951 2.39317 5.56133C1.97012 5.5657 1.57176 5.75812 1.30947 6.0848C1.1999 6.22127 1.10659 6.47001 1.05715 7.00445C1.00847 7.53062 1.00797 8.23894 1.00797 9.22925L1.00797 14.7715C1.00797 15.7618 1.00847 16.4701 1.05715 16.9963C1.10659 17.5307 1.1999 17.7795 1.30947 17.9159C1.57176 18.2426 1.97012 18.435 2.39317 18.4394C2.56989 18.4412 2.82691 18.3617 3.28677 18.0733C3.73951 17.7893 4.30919 17.3564 5.10524 16.7506L8.74675 13.9795C9.28462 13.5702 9.66141 13.2829 9.93029 13.038C10.1965 12.7956 10.3117 12.6338 10.3667 12.4922C10.4897 12.1755 10.4897 11.8253 10.3667 11.5086Z" fill="black"/>
</svg>
