<svg width="24" height="24" viewBox="0 0 24 24" fill="none" xmlns="http://www.w3.org/2000/svg">
<path d="M12.125 1.80176C14.9952 1.80176 17.5911 2.97401 19.4619 4.86426L20.5303 3.8584L20.8154 6.72266L17.9727 6.2666L19.0977 5.20703C17.3176 3.41311 14.8513 2.30176 12.125 2.30176C6.69977 2.30176 2.30176 6.69977 2.30176 12.125C2.30176 17.5502 6.69977 21.9482 12.125 21.9482C17.5502 21.9482 21.9482 17.5502 21.9482 12.125C21.9482 11.9869 22.0602 11.875 22.1982 11.875C22.3363 11.875 22.4482 11.9869 22.4482 12.125C22.4482 17.8264 17.8264 22.4482 12.125 22.4482C6.42363 22.4482 1.80176 17.8264 1.80176 12.125C1.80176 6.42363 6.42363 1.80176 12.125 1.80176Z" fill="black"/>
<path d="M11.1338 6.86426C11.3697 6.86195 11.5973 6.96815 11.835 7.11719C12.0763 7.26861 12.3719 7.49379 12.7471 7.7793L16.5361 10.6621C16.7877 10.8535 16.9894 11.0077 17.1387 11.1436C17.2892 11.2807 17.4085 11.4196 17.4746 11.5898C17.5771 11.854 17.5771 12.146 17.4746 12.4102C17.4085 12.5805 17.2893 12.7203 17.1387 12.8574C16.9895 12.9933 16.7875 13.1466 16.5361 13.3379L12.7471 16.2207C12.3718 16.5063 12.0764 16.7324 11.835 16.8838C11.5974 17.0328 11.3696 17.138 11.1338 17.1357C10.781 17.132 10.4483 16.9706 10.2295 16.6982C10.0833 16.516 10.0285 16.2743 10.0029 15.998C9.977 15.7175 9.97754 15.3496 9.97754 14.8828V9.11719C9.97754 8.65039 9.97699 8.28252 10.0029 8.00195C10.0285 7.72569 10.0833 7.48403 10.2295 7.30176C10.4483 7.0294 10.781 6.86805 11.1338 6.86426Z" fill="black"/>
</svg>
