<svg width="26" height="24" viewBox="0 0 26 24" fill="none" xmlns="http://www.w3.org/2000/svg">
<path d="M23.9939 9.75C23.3035 9.75 22.7439 10.3096 22.7439 11V11.6C22.7439 12.7407 22.7429 13.5211 22.6936 14.1254C22.6454 14.7151 22.5574 15.0262 22.4442 15.2485C22.1805 15.7659 21.7598 16.1866 21.2424 16.4503C21.0201 16.5635 20.709 16.6515 20.1193 16.6997C19.515 16.749 18.7346 16.75 17.5939 16.75H9.01166L9.87778 15.8839C10.3659 15.3957 10.3659 14.6043 9.87778 14.1161C9.38962 13.628 8.59817 13.628 8.11001 14.1161L5.13075 17.0954C4.63115 17.595 4.63114 18.405 5.13075 18.9046L8.11001 21.8839C8.59817 22.372 9.38962 22.372 9.87778 21.8839C10.3659 21.3957 10.3659 20.6043 9.87778 20.1161L9.01166 19.25H17.646C18.7218 19.25 19.6047 19.25 20.3229 19.1914C21.0672 19.1305 21.7439 19.0005 22.3773 18.6778C23.3652 18.1744 24.1683 17.3713 24.6717 16.3835C24.9944 15.75 25.1244 15.0733 25.1852 14.329C25.2439 13.6109 25.2439 12.728 25.2439 11.6522V11C25.2439 10.3096 24.6843 9.75 23.9939 9.75Z" fill="black"/>
<path d="M2.00611 14.25C2.69646 14.25 3.25611 13.6904 3.25611 13V12.4C3.25611 11.2593 3.25708 10.4789 3.30645 9.8746C3.35463 9.28489 3.4426 8.97377 3.55584 8.75153C3.81949 8.23408 4.24019 7.81339 4.75763 7.54973C4.97987 7.4365 5.291 7.34853 5.8807 7.30035C6.485 7.25097 7.26537 7.25 8.40611 7.25H16.9883L16.1222 8.11612C15.6341 8.60427 15.6341 9.39573 16.1222 9.88388C16.6104 10.372 17.4018 10.372 17.89 9.88388L20.8693 6.90462C21.3689 6.40502 21.3689 5.59499 20.8693 5.09538L17.89 2.11612C17.4018 1.62796 16.6104 1.62796 16.1222 2.11612C15.6341 2.60427 15.6341 3.39573 16.1222 3.88389L16.9883 4.75H8.35404C7.27818 4.74999 6.39529 4.74997 5.67712 4.80865C4.93281 4.86946 4.25606 4.99948 3.62266 5.32222C2.6348 5.82555 1.83166 6.6287 1.32832 7.61655C1.00558 8.24996 0.875566 8.92671 0.814753 9.67102C0.756078 10.3892 0.75609 11.272 0.756104 12.3479V13C0.756104 13.6904 1.31575 14.25 2.00611 14.25Z" fill="black"/>
</svg>
