<svg width="24" height="24" viewBox="0 0 24 24" fill="none" xmlns="http://www.w3.org/2000/svg">
<path d="M3 2C3 1.72386 3.22386 1.5 3.5 1.5C3.77614 1.5 4 1.72386 4 2V22C4 22.2761 3.77614 22.5 3.5 22.5C3.22386 22.5 3 22.2761 3 22V2Z" fill="black"/>
<path fill-rule="evenodd" clip-rule="evenodd" d="M9.38143 9.1112C8.83603 9.52623 8.40008 9.85798 8.07749 10.1518C7.74843 10.4514 7.49234 10.7504 7.35086 11.1147C7.12949 11.6848 7.12949 12.3152 7.35086 12.8853C7.49234 13.2496 7.74843 13.5486 8.07749 13.8482C8.40008 14.142 8.83603 14.4738 9.38143 14.8888L15.0147 19.1756C15.8309 19.7968 16.4716 20.2843 16.9957 20.613C17.5174 20.9402 18.0064 21.1659 18.5105 21.1607C19.272 21.1528 19.9891 20.8065 20.4613 20.2184C20.7738 19.8291 20.8916 19.3103 20.9477 18.7041C21.004 18.0949 21.004 17.298 21.004 16.2825V7.71747C21.004 6.70202 21.004 5.9051 20.9477 5.29591C20.8916 4.68965 20.7738 4.17088 20.4613 3.78162C19.9891 3.19355 19.272 2.84717 18.5105 2.83931C18.0064 2.83411 17.5174 3.05978 16.9957 3.38697C16.4716 3.71574 15.831 4.20323 15.0147 4.8244L9.38143 9.1112ZM8.29242 11.4688C8.35303 11.3127 8.47887 11.1378 8.7621 10.8798C9.048 10.6195 9.44821 10.3143 10.0173 9.88124L15.6097 5.62551C16.4522 4.98443 17.0567 4.52505 17.5375 4.22348C18.0254 3.91744 18.3037 3.8292 18.4999 3.83122C18.9569 3.83594 19.3871 4.04376 19.6704 4.39661C19.792 4.54811 19.8914 4.81879 19.9438 5.38585C19.9955 5.94464 19.996 6.69625 19.996 7.74427V16.2557C19.996 17.3037 19.9955 18.0554 19.9438 18.6141C19.8914 19.1812 19.792 19.4519 19.6704 19.6034C19.3871 19.9562 18.9569 20.1641 18.4999 20.1688C18.3037 20.1708 18.0254 20.0826 17.5375 19.7765C17.0567 19.475 16.4522 19.0156 15.6097 18.3745L10.0173 14.1188C9.44821 13.6857 9.048 13.3805 8.7621 13.1202C8.47887 12.8622 8.35303 12.6873 8.29242 12.5312C8.15959 12.1891 8.15959 11.8109 8.29242 11.4688Z" fill="black"/>
</svg>
