<svg width="24" height="24" viewBox="0 0 24 24" fill="none" xmlns="http://www.w3.org/2000/svg">
<path d="M2.5 2C2.5 1.44772 2.94772 1 3.5 1C4.05228 1 4.5 1.44772 4.5 2V22C4.5 22.5523 4.05228 23 3.5 23C2.94772 23 2.5 22.5523 2.5 22V2Z" fill="black"/>
<path fill-rule="evenodd" clip-rule="evenodd" d="M9.05729 8.7309C8.52549 9.13556 8.07438 9.47883 7.73519 9.78772C7.38322 10.1083 7.062 10.4692 6.88008 10.9377C6.61443 11.6218 6.61443 12.3782 6.88008 13.0623C7.062 13.5308 7.38322 13.8917 7.73519 14.2123C8.07438 14.5212 8.52549 14.8644 9.0573 15.2691L14.725 19.5822C15.5254 20.1912 16.1812 20.6903 16.7248 21.0313C17.2634 21.3691 17.8577 21.6634 18.5158 21.6566C19.4296 21.6472 20.2901 21.2316 20.8567 20.5259C21.2647 20.0177 21.3917 19.3749 21.4496 18.7491C21.508 18.1172 21.508 17.3014 21.508 16.3058V7.69431C21.508 6.69866 21.508 5.88281 21.4496 5.25094C21.3917 4.62508 21.2647 3.98227 20.8567 3.47412C20.2901 2.76844 19.4296 2.35279 18.5158 2.34336C17.8577 2.33657 17.2634 2.63094 16.7248 2.96871C16.1812 3.30972 15.5254 3.80878 14.7251 4.41783L9.05729 8.7309ZM8.7632 11.6459C8.78337 11.5939 8.84408 11.4809 9.1044 11.2439C9.37005 11.0019 9.74917 10.7123 10.3256 10.2736L15.918 6.01788C16.7684 5.37074 17.3515 4.92826 17.8083 4.64173C18.2794 4.34627 18.4524 4.32674 18.4947 4.32718C18.7993 4.33032 19.0861 4.46887 19.275 4.7041C19.3012 4.73672 19.3913 4.88336 19.4419 5.43082C19.4911 5.96174 19.4921 6.68636 19.4921 7.74427V16.2557C19.4921 17.3136 19.4911 18.0383 19.4419 18.5692C19.3913 19.1166 19.3012 19.2633 19.275 19.2959C19.0861 19.5311 18.7993 19.6697 18.4947 19.6728C18.4524 19.6733 18.2794 19.6537 17.8083 19.3583C17.3515 19.0717 16.7684 18.6293 15.918 17.9821L10.3256 13.7264C9.74917 13.2877 9.37005 12.9981 9.1044 12.7561C8.84408 12.5191 8.78337 12.4061 8.7632 12.3541C8.67465 12.1261 8.67465 11.8739 8.7632 11.6459Z" fill="black"/>
</svg>
