<svg width="24" height="24" viewBox="0 0 24 24" fill="none" xmlns="http://www.w3.org/2000/svg">
<path fill-rule="evenodd" clip-rule="evenodd" d="M21.3324 9.44042C21.8544 9.83764 22.2596 10.1459 22.5569 10.4167C22.8575 10.6904 23.0704 10.9452 23.186 11.2431C23.3754 11.7308 23.3754 12.2701 23.186 12.7578C23.0704 13.0556 22.8575 13.3104 22.5569 13.5841C22.2596 13.8549 21.8544 14.1632 21.3324 14.5604L17.6697 17.3477C16.891 17.9403 16.2926 18.3956 15.8062 18.7007C15.3211 19.005 14.906 19.1876 14.4984 19.1834C13.8469 19.1767 13.2334 18.8803 12.8295 18.3772C12.5767 18.0624 12.4696 17.6276 12.4174 17.0638C12.3651 16.4985 12.3651 15.7541 12.3651 14.7854L12.3651 9.21544C12.3651 8.24674 12.3651 7.50234 12.4174 6.93705C12.4696 6.37321 12.5767 5.93841 12.8295 5.62361C13.2334 5.12051 13.8469 4.82418 14.4984 4.81745C14.906 4.81325 15.3211 4.99583 15.8062 5.30013C16.2926 5.60521 16.891 6.06057 17.6697 6.65313L21.3324 9.44042ZM22.7153 11.4201C22.64 11.2264 22.4923 11.0336 22.2146 10.7807C21.9356 10.5267 21.5482 10.2316 21.014 9.8251L17.3725 7.05398C16.5805 6.45122 16.0001 6.00988 15.5354 5.71839C15.0671 5.42466 14.7574 5.31079 14.5037 5.31341C14.0045 5.31856 13.5344 5.54562 13.2249 5.93111C13.0676 6.12702 12.9697 6.43778 12.9193 6.98202C12.8694 7.52213 12.8691 8.24394 12.8691 9.2293V14.7715C12.8691 15.7569 12.8694 16.4787 12.9193 17.0188C12.9697 17.5631 13.0676 17.8738 13.2249 18.0697C13.5344 18.4552 14.0045 18.6823 14.5037 18.6874C14.7574 18.69 15.0671 18.5762 15.5354 18.2825C16.0001 17.991 16.5805 17.5496 17.3725 16.9469L21.014 14.1757C21.5482 13.7692 21.9356 13.4742 22.2146 13.2201C22.4923 12.9672 22.64 12.7744 22.7153 12.5807C22.8604 12.207 22.8604 11.7938 22.7153 11.4201Z" fill="black"/>
<path fill-rule="evenodd" clip-rule="evenodd" d="M9.21926 9.44043C9.74123 9.83764 10.1464 10.1459 10.4437 10.4167C10.7443 10.6904 10.9572 10.9452 11.0728 11.2431C11.2622 11.7308 11.2622 12.2701 11.0728 12.7578C10.9572 13.0556 10.7443 13.3104 10.4437 13.5841C10.1464 13.8549 9.74124 14.1632 9.21926 14.5604L5.5565 17.3477C4.77781 17.9403 4.17943 18.3956 3.69304 18.7007C3.20789 19.005 2.79286 19.1876 2.3852 19.1834C1.73369 19.1767 1.12021 18.8803 0.716271 18.3772C0.463524 18.0624 0.35641 17.6276 0.304247 17.0638C0.251953 16.4985 0.251953 15.7541 0.251953 14.7854V9.21545C0.251953 8.24674 0.251953 7.50234 0.304247 6.93705C0.35641 6.37321 0.463524 5.93841 0.716271 5.62362C1.12021 5.12051 1.73369 4.82418 2.3852 4.81746C2.79286 4.81325 3.20789 4.99583 3.69304 5.30013C4.17943 5.60521 4.77781 6.06057 5.55649 6.65313L9.21926 9.44043ZM10.6021 11.4201C10.5269 11.2264 10.3791 11.0336 10.1014 10.7807C9.8224 10.5267 9.43506 10.2316 8.90086 9.8251L5.25935 7.05398C4.46728 6.45123 3.8869 6.00988 3.42217 5.71839C2.95388 5.42466 2.64419 5.31079 2.39049 5.31341C1.89128 5.31856 1.42122 5.54562 1.11171 5.93111C0.954414 6.12702 0.856506 6.43778 0.806157 6.98202C0.756191 7.52213 0.755939 8.24394 0.75594 9.2293V14.7715C0.75594 15.7569 0.756191 16.4787 0.806157 17.0188C0.856506 17.5631 0.954414 17.8738 1.11171 18.0697C1.42122 18.4552 1.89128 18.6823 2.39049 18.6874C2.64419 18.69 2.95388 18.5762 3.42217 18.2825C3.88689 17.991 4.46728 17.5496 5.25935 16.9469L8.90085 14.1757C9.43506 13.7692 9.8224 13.4742 10.1014 13.2201C10.3791 12.9672 10.5269 12.7744 10.6021 12.5807C10.7472 12.207 10.7472 11.7938 10.6021 11.4201Z" fill="black"/>
</svg>
