<svg width="24" height="24" viewBox="0 0 24 24" fill="none" xmlns="http://www.w3.org/2000/svg">
<path d="M2.99976 18.9992C2.44747 18.9992 1.99976 19.4469 1.99976 19.9992C1.99976 20.5515 2.44747 20.9992 2.99976 20.9992H20.9998C21.552 20.9992 21.9998 20.5515 21.9998 19.9992C21.9998 19.4469 21.552 18.9992 20.9998 18.9992H2.99976Z" fill="black"/>
<path d="M9.48864 5.2082L5.23291 10.8006C3.96284 12.4696 3.3278 13.3041 3.33502 14.0044C3.34131 14.6136 3.61841 15.1873 4.08887 15.565C4.62964 15.9992 5.66776 15.9992 7.74402 15.9992H16.2555C18.3317 15.9992 19.3699 15.9992 19.9106 15.565C20.3811 15.1873 20.6582 14.6136 20.6645 14.0044C20.6717 13.3041 20.0367 12.4696 18.7666 10.8006L14.5109 5.2082C13.6559 4.08467 13.2284 3.52291 12.708 3.32081C12.2519 3.14371 11.7476 3.14371 11.2915 3.32081C10.7711 3.52291 10.3436 4.08468 9.48864 5.2082Z" fill="black"/>
</svg>
