<svg width="25" height="24" viewBox="0 0 25 24" fill="none" xmlns="http://www.w3.org/2000/svg">
<path d="M24.0248 7.81623C24.4755 7.36544 24.4756 6.63457 24.0248 6.18377L21.0455 3.2045C20.6062 2.76517 19.8938 2.76517 19.4545 3.2045C19.0152 3.64384 19.0152 4.35616 19.4545 4.7955L20.409 5.75L17.1174 5.74997C16.3171 5.74968 15.7356 5.74946 15.2258 5.85088C14.6386 5.96767 14.0876 6.18093 13.5898 6.47366C14.1272 7.1075 14.5536 7.83892 14.84 8.63885C15.1051 8.48048 15.3994 8.36531 15.7135 8.30284C15.9487 8.25605 16.2608 8.25 17.25 8.25H20.409L19.4545 9.2045C19.0152 9.64384 19.0152 10.3562 19.4545 10.7955C19.8938 11.2348 20.6062 11.2348 21.0455 10.7955L24.0248 7.81623Z" fill="black"/>
<path d="M9.65998 15.3612C9.39488 15.5195 9.10056 15.6347 8.7865 15.6972C8.55129 15.7439 8.23922 15.75 7.25 15.75H1.25C0.559644 15.75 0 16.3096 0 17C0 17.6904 0.559644 18.25 1.25 18.25L7.38261 18.25C8.18289 18.2503 8.76439 18.2505 9.27422 18.1491C9.86138 18.0323 10.4124 17.8191 10.9103 17.5263C10.3728 16.8925 9.94636 16.1611 9.65998 15.3612Z" fill="black"/>
<path d="M7.25 8.25C8.23922 8.25 8.55129 8.25606 8.7865 8.30284C9.8774 8.51983 10.7302 9.3726 10.9472 10.4635C10.9939 10.6987 11 11.0108 11 12L11 12.1326C10.9997 12.9329 10.9995 13.5144 11.1009 14.0242C11.5151 16.1069 13.1432 17.7349 15.2258 18.1491C15.7356 18.2505 16.3171 18.2503 17.1174 18.25L20.409 18.25L19.4545 19.2045C19.0152 19.6438 19.0152 20.3562 19.4545 20.7955C19.8938 21.2348 20.6062 21.2348 21.0455 20.7955L24.0248 17.8162C24.4756 17.3654 24.4755 16.6346 24.0248 16.1838L21.0455 13.2045C20.6062 12.7652 19.8938 12.7652 19.4545 13.2045C19.0152 13.6438 19.0152 14.3562 19.4545 14.7955L20.409 15.75H17.25C16.2608 15.75 15.9487 15.7439 15.7135 15.6972C14.6226 15.4802 13.7698 14.6274 13.5528 13.5365C13.5061 13.3013 13.5 12.9892 13.5 12L13.5 11.8674C13.5003 11.0671 13.5005 10.4856 13.3991 9.97578C12.9849 7.89315 11.3568 6.26514 9.27422 5.85088C8.76439 5.74946 8.18289 5.74968 7.38261 5.74997L1.25 5.75C0.559644 5.75 0 6.30964 0 7C0 7.69036 0.559644 8.25 1.25 8.25H7.25Z" fill="black"/>
</svg>
