<svg width="24" height="24" viewBox="0 0 24 24" fill="none" xmlns="http://www.w3.org/2000/svg">
<path fill-rule="evenodd" clip-rule="evenodd" d="M14.8583 8.67586C14.2653 9.12708 13.7807 9.49587 13.4199 9.82444C13.0494 10.1618 12.7421 10.515 12.5705 10.9568C12.3097 11.6285 12.3097 12.3713 12.5705 13.043C12.7421 13.4848 13.0494 13.838 13.4199 14.1753C13.7807 14.5039 14.2653 14.8727 14.8583 15.3239L16.5867 16.6392C17.4761 17.316 18.1854 17.8558 18.7687 18.2217C19.3482 18.5851 19.9274 18.8605 20.5427 18.8542C21.44 18.8449 22.2849 18.4368 22.8412 17.7439C23.2227 17.2687 23.3557 16.6493 23.418 15.9759C23.4807 15.298 23.4807 14.4156 23.4807 13.3091V10.6906C23.4807 9.58416 23.4807 8.70176 23.418 8.02389C23.3557 7.35045 23.2227 6.73105 22.8412 6.25589C22.2849 5.56299 21.44 5.15487 20.5427 5.14562C19.9274 5.13927 19.3481 5.41464 18.7687 5.77809C18.1854 6.14393 17.4761 6.68372 16.5867 7.36057L14.8583 8.67586ZM13.9828 11.488C14.0331 11.3585 14.1451 11.1913 14.4468 10.9165C14.7525 10.6381 15.1834 10.3094 15.8111 9.83168L17.4801 8.56162C18.4081 7.85539 19.0631 7.35788 19.5813 7.03286C20.1102 6.70114 20.3734 6.6319 20.5269 6.63348C20.9672 6.63803 21.3819 6.83832 21.6549 7.17837C21.7501 7.29688 21.8554 7.54416 21.9123 8.1588C21.968 8.76104 21.9687 9.57532 21.9687 10.7298L21.9688 13.2699C21.9687 14.4244 21.968 15.2387 21.9123 15.841C21.8554 16.4556 21.7501 16.7029 21.6549 16.8214C21.3819 17.1615 20.9672 17.3617 20.5269 17.3663C20.3734 17.3679 20.1102 17.2986 19.5813 16.9669C19.0631 16.6419 18.4081 16.1444 17.4801 15.4382L15.8111 14.1681C15.1834 13.6904 14.7525 13.3616 14.4468 13.0832C14.1451 12.8085 14.0331 12.6413 13.9828 12.5118C13.8548 12.1821 13.8548 11.8176 13.9828 11.488Z" fill="black"/>
<path fill-rule="evenodd" clip-rule="evenodd" d="M3.0027 8.67586C2.40973 9.12708 1.9251 9.49587 1.56429 9.82444C1.19383 10.1618 0.886496 10.515 0.714912 10.9568C0.454079 11.6285 0.454079 12.3713 0.714912 13.043C0.886496 13.4848 1.19383 13.838 1.56429 14.1753C1.9251 14.5039 2.40972 14.8727 3.00269 15.3239L4.7311 16.6392C5.62053 17.316 6.32985 17.8558 6.91312 18.2217C7.49258 18.5851 8.07182 18.8605 8.68714 18.8542C9.58443 18.8449 10.4293 18.4368 10.9857 17.7439C11.3672 17.2687 11.5001 16.6493 11.5624 15.9759C11.6251 15.298 11.6251 14.4156 11.6251 13.3091V10.6906C11.6251 9.58416 11.6251 8.70176 11.5624 8.02389C11.5001 7.35045 11.3672 6.73105 10.9857 6.25589C10.4293 5.56299 9.58443 5.15487 8.68714 5.14562C8.07182 5.13927 7.49258 5.41464 6.91312 5.77809C6.32985 6.14393 5.62053 6.68372 4.73109 7.36058L3.0027 8.67586ZM2.12725 11.488C2.17753 11.3585 2.28948 11.1913 2.5912 10.9165C2.89692 10.6381 3.3278 10.3094 3.95553 9.83168L5.62449 8.56162C6.55254 7.85539 7.20756 7.35788 7.72574 7.03286C8.25461 6.70114 8.51783 6.6319 8.67129 6.63348C9.11166 6.63803 9.52631 6.83832 9.79934 7.17837C9.89449 7.29688 9.99985 7.54416 10.0567 8.1588C10.1124 8.76104 10.1132 9.57532 10.1132 10.7298V13.2699C10.1132 14.4244 10.1124 15.2387 10.0567 15.841C9.99985 16.4556 9.89449 16.7029 9.79934 16.8214C9.52631 17.1615 9.11166 17.3617 8.67129 17.3663C8.51783 17.3679 8.25461 17.2986 7.72575 16.9669C7.20756 16.6419 6.55254 16.1444 5.6245 15.4382L3.95553 14.1681C3.3278 13.6904 2.89692 13.3616 2.5912 13.0832C2.28948 12.8085 2.17753 12.6413 2.12725 12.5118C1.99924 12.1821 1.99924 11.8176 2.12725 11.488Z" fill="black"/>
</svg>
