<svg width="24" height="24" viewBox="0 0 24 24" fill="none" xmlns="http://www.w3.org/2000/svg">
<path d="M11.1869 3.14697L19.5208 9.48896C20.6444 10.3439 21.2061 10.7714 21.4082 11.2919C21.5853 11.7479 21.5853 12.2522 21.4082 12.7083C21.2061 13.2287 20.6444 13.6562 19.5208 14.5112L11.1869 20.8532C9.51787 22.1233 8.68338 22.7583 7.98309 22.7511C7.37386 22.7448 6.80019 22.4677 6.42247 21.9972C5.98828 21.4565 5.98828 20.4183 5.98828 18.3421L5.98828 5.65809C5.98828 3.58183 5.98828 2.5437 6.42247 2.00293C6.80019 1.53247 7.37386 1.25537 7.98309 1.24908C8.68338 1.24186 9.51787 1.87689 11.1869 3.14697Z" fill="black"/>
</svg>
