<svg width="24" height="24" viewBox="0 0 24 24" fill="none" xmlns="http://www.w3.org/2000/svg">
<path d="M13.7878 9.48894L17.6437 6.55468C19.3127 5.28461 20.1472 4.64957 20.8475 4.6568C21.4567 4.66308 22.0303 4.94019 22.4081 5.41064C22.8423 5.95141 22.8423 6.98954 22.8423 9.0658V14.9343C22.8423 17.0106 22.8423 18.0487 22.4081 18.5895C22.0303 19.0599 21.4567 19.337 20.8475 19.3433C20.1472 19.3506 19.3127 18.7155 17.6437 17.4454L13.7878 14.5112C13.5797 14.3528 13.3909 14.2092 13.2201 14.0768C12.8355 13.779 12.0747 14.0989 12.0747 14.5853V14.9343C12.0747 17.0106 12.0747 18.0487 11.6405 18.5895C11.2628 19.0599 10.6891 19.337 10.0799 19.3433C9.37959 19.3506 8.54509 18.7155 6.87611 17.4455L3.02021 14.5112C1.89668 13.6562 1.33492 13.2287 1.13282 12.7083C0.955726 12.2522 0.955726 11.7479 1.13282 11.2918C1.33492 10.7714 1.89668 10.3439 3.02021 9.48895L6.87609 6.55469C8.54508 5.28462 9.37959 4.64958 10.0799 4.6568C10.6891 4.66309 11.2628 4.94019 11.6405 5.41065C12.0747 5.95142 12.0747 6.98954 12.0747 9.0658V9.41478C12.0747 9.90119 12.8355 10.2212 13.2201 9.92329C13.3909 9.79097 13.5797 9.64729 13.7878 9.48894Z" fill="black"/>
</svg>
