<svg width="24" height="24" viewBox="0 0 24 24" fill="none" xmlns="http://www.w3.org/2000/svg">
<path d="M3 19C2.72386 19 2.5 19.2238 2.5 19.5C2.5 19.7761 2.72386 20 3 20H21C21.2761 20 21.5 19.7761 21.5 19.5C21.5 19.2238 21.2761 19 21 19H3Z" fill="black"/>
<path fill-rule="evenodd" clip-rule="evenodd" d="M9.1112 5.38142C9.52623 4.83602 9.85798 4.40007 10.1518 4.07748C10.4514 3.74842 10.7504 3.49233 11.1147 3.35084C11.6848 3.12947 12.3152 3.12947 12.8853 3.35084C13.2496 3.49233 13.5486 3.74842 13.8482 4.07748C14.142 4.40007 14.4738 4.83602 14.8888 5.38142L19.1756 11.0147C19.7968 11.8309 20.2843 12.4716 20.613 12.9957C20.9402 13.5174 21.1659 14.0064 21.1607 14.5105C21.1528 15.272 20.8065 15.9891 20.2184 16.4613C19.8291 16.7738 19.3103 16.8916 18.7041 16.9476C18.0949 17.004 17.298 17.004 16.2825 17.004H7.71747C6.70202 17.004 5.9051 17.004 5.29591 16.9476C4.68965 16.8916 4.17088 16.7738 3.78162 16.4613C3.19355 15.9891 2.84717 15.272 2.83931 14.5105C2.83411 14.0064 3.05978 13.5174 3.38697 12.9957C3.71574 12.4715 4.20323 11.8309 4.8244 11.0147L9.1112 5.38142ZM11.4688 4.2924C11.3127 4.35301 11.1378 4.47885 10.8798 4.76208C10.6195 5.04798 10.3143 5.4482 9.88124 6.0173L5.62551 11.6097C4.98443 12.4522 4.52505 13.0567 4.22348 13.5375C3.91744 14.0254 3.8292 14.3037 3.83122 14.4999C3.83594 14.9568 4.04376 15.3871 4.39661 15.6704C4.54811 15.792 4.81879 15.8914 5.38585 15.9438C5.94464 15.9955 6.69625 15.996 7.74427 15.996H16.2557C17.3037 15.996 18.0554 15.9955 18.6141 15.9438C19.1812 15.8914 19.4519 15.792 19.6034 15.6704C19.9562 15.3871 20.1641 14.9568 20.1688 14.4999C20.1708 14.3037 20.0826 14.0254 19.7765 13.5375C19.475 13.0567 19.0156 12.4522 18.3745 11.6097L14.1188 6.0173C13.6857 5.4482 13.3805 5.04798 13.1202 4.76208C12.8622 4.47885 12.6873 4.35301 12.5312 4.2924C12.1891 4.15958 11.8109 4.15958 11.4688 4.2924Z" fill="black"/>
</svg>
