<svg width="24" height="24" viewBox="0 0 24 24" fill="none" xmlns="http://www.w3.org/2000/svg">
<path fill-rule="evenodd" clip-rule="evenodd" d="M23.8769 8.43565C24 9.21298 24 10.142 24 12C24 13.858 24 14.787 23.8769 15.5643C23.1992 19.8433 19.8433 23.1992 15.5643 23.8769C14.787 24 13.858 24 12 24C10.142 24 9.21298 24 8.43565 23.8769C4.15673 23.1992 0.800833 19.8433 0.123117 15.5643C0 14.787 0 13.858 0 12C0 10.142 0 9.21298 0.123117 8.43565C0.800833 4.15673 4.15673 0.800832 8.43565 0.123117C9.21298 0 10.142 0 12 0C13.858 0 14.787 0 15.5643 0.123117C19.8433 0.800832 23.1992 4.15673 23.8769 8.43565ZM11.6665 6.45922C11.6665 5.99158 11.0818 5.77987 10.7824 6.13913L8.14354 9.30573C7.95354 9.53373 7.67209 9.66555 7.37531 9.66555H5.99981C5.44753 9.66555 4.99981 10.1133 4.99981 10.6656V13.3322C4.99981 13.8845 5.44753 14.3322 5.99981 14.3322H7.37531C7.67209 14.3322 7.95354 14.464 8.14354 14.692L10.7824 17.8586C11.0818 18.2179 11.6665 18.0062 11.6665 17.5385V6.45922ZM15.8992 8.69344C15.6524 8.45214 15.2567 8.4566 15.0154 8.70342C14.7741 8.95024 14.7786 9.34594 15.0254 9.58725C15.6529 10.2007 16.0412 11.0548 16.0412 12.0007C16.0412 12.9113 15.6814 13.7365 15.0949 14.3442C14.8552 14.5926 14.8622 14.9882 15.1106 15.228C15.359 15.4677 15.7546 15.4607 15.9943 15.2123C16.7967 14.381 17.2912 13.248 17.2912 12.0007C17.2912 10.7048 16.7574 9.53242 15.8992 8.69344ZM13.8062 10.0955C13.5559 9.85786 13.1603 9.86823 12.9227 10.1186C12.6851 10.369 12.6954 10.7646 12.9458 11.0022C13.2107 11.2536 13.3746 11.6071 13.3746 11.9999C13.3746 12.3663 13.2321 12.698 12.9983 12.945C12.761 13.1956 12.7718 13.5912 13.0224 13.8286C13.273 14.0659 13.6686 14.0551 13.906 13.8044C14.3508 13.3346 14.6246 12.6985 14.6246 11.9999C14.6246 11.2501 14.3095 10.573 13.8062 10.0955Z" fill="black"/>
</svg>
