<svg width="24" height="24" viewBox="0 0 24 24" fill="none" xmlns="http://www.w3.org/2000/svg">
<path fill-rule="evenodd" clip-rule="evenodd" d="M1.5 10.2222V13.7778C1.5 14.5448 2.12183 15.1667 2.88889 15.1667H4.72289C5.10211 15.1667 5.46174 15.3351 5.7045 15.6264L9.22295 19.8486C9.65539 20.3675 10.5 20.0617 10.5 19.3862V4.6138C10.5 3.93831 9.65539 3.63252 9.22295 4.15144L5.7045 8.37358C5.46174 8.6649 5.10211 8.83334 4.72289 8.83334H2.88889C2.12183 8.83334 1.5 9.45517 1.5 10.2222ZM2.88889 9.33334C2.39797 9.33334 2 9.73131 2 10.2222V13.7778C2 14.2687 2.39797 14.6667 2.88889 14.6667H4.72289C5.2505 14.6667 5.75085 14.901 6.08862 15.3063L9.60706 19.5285C9.74012 19.6882 10 19.5941 10 19.3862V4.6138C10 4.40595 9.74012 4.31187 9.60706 4.47154L6.08862 8.69367C5.75085 9.09899 5.2505 9.33334 4.72289 9.33334H2.88889Z" fill="black"/>
<path d="M14.2367 9.64212C14.1366 9.54708 13.9783 9.55123 13.8833 9.65139C13.7882 9.75154 13.7924 9.90978 13.8925 10.0048C14.421 10.5062 14.75 11.2145 14.75 12C14.75 12.7324 14.4641 13.3974 13.9972 13.8904C13.9023 13.9907 13.9066 14.1489 14.0069 14.2438C14.1071 14.3388 14.2654 14.3345 14.3603 14.2342C14.9115 13.652 15.25 12.8653 15.25 12C15.25 11.0717 14.8605 10.234 14.2367 9.64212Z" fill="black"/>
</svg>
