<svg width="24" height="24" viewBox="0 0 24 24" fill="none" xmlns="http://www.w3.org/2000/svg">
<path d="M20.2422 0.75C20.9324 0.75 21.4919 1.30985 21.4922 2V6.21289C21.4922 6.91943 20.9194 7.49217 20.2129 7.49219H16C15.3099 7.49194 14.75 6.93239 14.75 6.24219C14.7502 5.55219 15.31 4.99243 16 4.99219H17.3174C15.8599 3.92913 14.0661 3.30176 12.125 3.30176C7.25206 3.30176 3.30176 7.25206 3.30176 12.125C3.30176 16.9979 7.25206 20.9482 12.125 20.9482C16.9979 20.9482 20.9482 16.9979 20.9482 12.125C20.9482 11.4347 21.5079 10.875 22.1982 10.875C22.8886 10.875 23.4482 11.4346 23.4482 12.125C23.4482 18.3787 18.3787 23.4482 12.125 23.4482C5.87135 23.4482 0.80176 18.3787 0.801758 12.125C0.801761 5.87135 5.87135 0.801761 12.125 0.801758C14.7078 0.801758 17.0878 1.66816 18.9922 3.12305V2C18.9924 1.31 19.5522 0.750245 20.2422 0.75Z" fill="black"/>
<path fill-rule="evenodd" clip-rule="evenodd" d="M11.124 5.87305C11.6677 5.86765 12.1054 6.11095 12.377 6.28125C12.6663 6.46276 13.004 6.72169 13.3633 6.99512L17.1523 9.87793C17.3892 10.0582 17.6336 10.2423 17.8232 10.415C17.9952 10.5716 18.2075 10.7931 18.3564 11.0996L18.416 11.2354C18.5833 11.6661 18.6049 12.1374 18.4795 12.5781L18.416 12.7646C18.2691 13.1431 18.0197 13.4061 17.8232 13.585C17.6336 13.7576 17.3891 13.9419 17.1523 14.1221L13.3633 17.0059C13.0041 17.2792 12.6662 17.5373 12.377 17.7188C12.1054 17.889 11.6677 18.1324 11.124 18.127C10.4663 18.1202 9.84627 17.8204 9.43848 17.3125C9.10163 16.8926 9.0292 16.4034 9 16.0879C8.96893 15.7517 8.96973 15.3306 8.96973 14.8838V9.11719C8.96973 8.67004 8.96889 8.24844 9 7.91211C9.02921 7.59651 9.10148 7.10745 9.43848 6.6875C9.84627 6.1796 10.4663 5.87983 11.124 5.87305ZM11.4902 9.11719V14.8838C11.4902 15.0396 11.4915 15.1748 11.4922 15.293C11.5875 15.2213 11.6972 15.1391 11.8223 15.0439L15.6113 12.1602C15.6901 12.1002 15.7581 12.0472 15.8193 12C15.7581 11.9528 15.6901 11.8998 15.6113 11.8398L11.8223 8.95703C11.6971 8.86175 11.5876 8.77873 11.4922 8.70703C11.4915 8.82532 11.4902 8.96114 11.4902 9.11719Z" fill="black"/>
</svg>
