<svg width="24" height="24" viewBox="0 0 24 24" fill="none" xmlns="http://www.w3.org/2000/svg">
<path fill-rule="evenodd" clip-rule="evenodd" d="M9.14197 8.6761C9.73493 9.12732 10.2196 9.49611 10.5804 9.82469C10.9508 10.1621 11.2582 10.5152 11.4298 10.9571C11.6906 11.6287 11.6906 12.3715 11.4298 13.0432C11.2582 13.4851 10.9508 13.8382 10.5804 14.1756C10.2196 14.5041 9.73494 14.8729 9.14198 15.3241L7.41357 16.6394C6.52413 17.3163 5.81481 17.8561 5.23154 18.2219C4.65209 18.5854 4.07284 18.8607 3.45752 18.8544C2.56023 18.8451 1.71533 18.437 1.15901 17.7441C0.777502 17.269 0.644529 16.6496 0.582228 15.9761C0.519517 15.2983 0.519523 14.4158 0.519531 13.3094V10.6909C0.519523 9.58441 0.519517 8.702 0.582228 8.02414C0.644529 7.35069 0.777502 6.73129 1.15901 6.25613C1.71533 5.56324 2.56023 5.15512 3.45752 5.14586C4.07284 5.13951 4.65209 5.41488 5.23154 5.77834C5.81481 6.14418 6.52413 6.68397 7.41356 7.36082L9.14197 8.6761ZM10.0174 11.4882C9.96714 11.3587 9.85518 11.1916 9.55346 10.9168C9.24774 10.6384 8.81686 10.3096 8.18914 9.83192L6.52017 8.56187C5.59212 7.85564 4.93711 7.35812 4.41892 7.0331C3.89005 6.70138 3.62684 6.63214 3.47337 6.63373C3.03301 6.63827 2.61835 6.83856 2.34532 7.17862C2.25017 7.29713 2.14482 7.5444 2.08796 8.15905C2.03224 8.76129 2.03149 9.57556 2.03149 10.7301L2.03149 13.2702C2.03149 14.4247 2.03224 15.239 2.08796 15.8412C2.14482 16.4559 2.25017 16.7031 2.34532 16.8216C2.61835 17.1617 3.03301 17.362 3.47337 17.3665C3.62684 17.3681 3.89005 17.2989 4.41892 16.9672C4.93711 16.6421 5.59212 16.1446 6.52017 15.4384L8.18914 14.1683C8.81686 13.6907 9.24774 13.3619 9.55346 13.0835C9.85518 12.8087 9.96714 12.6415 10.0174 12.512C10.1454 12.1824 10.1454 11.8179 10.0174 11.4882Z" fill="black"/>
<path fill-rule="evenodd" clip-rule="evenodd" d="M20.9975 8.6761C21.5905 9.12733 22.0751 9.49611 22.4359 9.82469C22.8064 10.1621 23.1137 10.5152 23.2853 10.9571C23.5462 11.6287 23.5462 12.3715 23.2853 13.0432C23.1137 13.4851 22.8064 13.8382 22.4359 14.1756C22.0751 14.5041 21.5905 14.8729 20.9975 15.3241L19.2691 16.6394C18.3797 17.3163 17.6704 17.8561 17.0871 18.2219C16.5077 18.5854 15.9284 18.8607 15.3131 18.8544C14.4158 18.8451 13.5709 18.437 13.0146 17.7441C12.6331 17.269 12.5001 16.6496 12.4378 15.9761C12.3751 15.2982 12.3751 14.4158 12.3751 13.3093V10.6909C12.3751 9.58441 12.3751 8.702 12.4378 8.02414C12.5001 7.35069 12.6331 6.73129 13.0146 6.25613C13.5709 5.56324 14.4158 5.15512 15.3131 5.14586C15.9284 5.13951 16.5077 5.41488 17.0871 5.77834C17.6704 6.14418 18.3797 6.68397 19.2691 7.36082L20.9975 8.6761ZM21.873 11.4882C21.8227 11.3587 21.7108 11.1916 21.409 10.9168C21.1033 10.6384 20.6724 10.3096 20.0447 9.83192L18.3757 8.56187C17.4477 7.85564 16.7927 7.35812 16.2745 7.0331C15.7456 6.70138 15.4824 6.63214 15.3289 6.63373C14.8886 6.63827 14.4739 6.83856 14.2009 7.17862C14.1057 7.29713 14.0004 7.5444 13.9435 8.15905C13.8878 8.76129 13.8871 9.57556 13.8871 10.7301V13.2702C13.8871 14.4247 13.8878 15.239 13.9435 15.8412C14.0004 16.4559 14.1057 16.7031 14.2009 16.8216C14.4739 17.1617 14.8886 17.362 15.3289 17.3665C15.4824 17.3681 15.7456 17.2989 16.2745 16.9672C16.7927 16.6421 17.4477 16.1446 18.3757 15.4384L20.0447 14.1683C20.6724 13.6907 21.1033 13.3619 21.409 13.0835C21.7108 12.8087 21.8227 12.6415 21.873 12.512C22.001 12.1824 22.001 11.8179 21.873 11.4882Z" fill="black"/>
</svg>
