<svg width="24" height="24" viewBox="0 0 24 24" fill="none" xmlns="http://www.w3.org/2000/svg">
<path d="M18.25 2C17.8358 2 17.5 2.33579 17.5 2.75V21.25C17.5 21.6642 17.8358 22 18.25 22C18.6643 22 19 21.6642 19 21.25V2.75C19 2.33579 18.6643 2 18.25 2Z" fill="black"/>
<path d="M13.291 9.4889L7.69858 5.23317C6.02959 3.9631 5.1951 3.32806 4.49481 3.33529C3.88557 3.34157 3.31191 3.61867 2.93418 4.08913C2.5 4.6299 2.5 5.66802 2.5 7.74428V16.2557C2.5 18.332 2.5 19.3701 2.93418 19.9109C3.31191 20.3814 3.88557 20.6585 4.49481 20.6647C5.19509 20.672 6.02959 20.0369 7.69857 18.7669L13.291 14.5111C14.4145 13.6562 14.9763 13.2287 15.1784 12.7082C15.3555 12.2522 15.3555 11.7479 15.1784 11.2918C14.9763 10.7714 14.4145 10.3439 13.291 9.4889Z" fill="black"/>
</svg>
