<svg width="24" height="24" viewBox="0 0 24 24" fill="none" xmlns="http://www.w3.org/2000/svg">
<path fill-rule="evenodd" clip-rule="evenodd" d="M1.5 13.7783V10.2227C1.5 9.45566 2.12183 8.83383 2.88889 8.83383H4.72289C5.10211 8.83383 5.46174 8.66539 5.7045 8.37407L9.22295 4.15193C9.65539 3.633 10.5 3.93879 10.5 4.61429V19.3867C10.5 20.0622 9.65539 20.368 9.22295 19.8491L5.7045 15.6269C5.46174 15.3356 5.10211 15.1672 4.72289 15.1672H2.88889C2.12183 15.1672 1.5 14.5453 1.5 13.7783ZM2 10.2227C2 9.7318 2.39797 9.33383 2.88889 9.33383H4.72289C5.2505 9.33383 5.75085 9.09948 6.08862 8.69416L9.60706 4.47202C9.74012 4.31235 10 4.40644 10 4.61429V19.3867C10 19.5946 9.74012 19.6886 9.60706 19.529L6.08862 15.3068C5.75085 14.9015 5.2505 14.6672 4.72289 14.6672H2.88889C2.39797 14.6672 2 14.2692 2 13.7783V10.2227Z" fill="black"/>
</svg>
