<svg width="24" height="24" viewBox="0 0 24 24" fill="none" xmlns="http://www.w3.org/2000/svg">
<path d="M4.75 2C5.16421 2 5.5 2.33579 5.5 2.75V21.25C5.5 21.6642 5.16421 22 4.75 22C4.33579 22 4 21.6642 4 21.25V2.75C4 2.33579 4.33579 2 4.75 2Z" fill="black"/>
<path d="M9.70903 9.4889L15.3015 5.23317C16.9704 3.9631 17.8049 3.32806 18.5052 3.33529C19.1145 3.34157 19.6881 3.61867 20.0659 4.08913C20.5 4.6299 20.5 5.66802 20.5 7.74428V16.2557C20.5 18.332 20.5 19.3701 20.0659 19.9109C19.6881 20.3814 19.1145 20.6585 18.5052 20.6647C17.8049 20.672 16.9705 20.0369 15.3015 18.7669L9.70904 14.5111C8.58551 13.6562 8.02374 13.2287 7.82165 12.7082C7.64455 12.2522 7.64455 11.7479 7.82165 11.2918C8.02374 10.7714 8.58551 10.3439 9.70903 9.4889Z" fill="black"/>
</svg>
