<svg width="24" height="24" viewBox="0 0 24 24" fill="none" xmlns="http://www.w3.org/2000/svg">
<path d="M23.7607 4.6106L19.9443 7.51392L19.955 5.75024H16.9004C16.4862 5.75026 16.1504 6.08606 16.1504 6.50024V10.0002C16.1504 10.7554 15.8901 11.4484 15.458 12.0002C15.8901 12.552 16.1504 13.2451 16.1504 14.0002V17.5002C16.1504 17.9145 16.4862 18.2502 16.9004 18.2502H19.9687L19.9785 16.6116L23.7607 19.5598L19.9443 22.4641L19.9541 20.7502H16.9004C15.1054 20.7502 13.6504 19.2952 13.6504 17.5002V14.0002C13.6503 13.5862 13.3144 13.2505 12.9004 13.2502H11.1347C11.4151 12.4399 11.415 11.5606 11.1347 10.7502H12.9004C13.3144 10.75 13.6504 10.4143 13.6504 10.0002V6.50024C13.6504 4.70535 15.1055 3.25026 16.9004 3.25024H19.9687L19.9785 1.66138L23.7607 4.6106Z" fill="black"/>
<path d="M2.15622 6.8645C2.39207 6.86219 2.6198 6.96748 2.85739 7.11646C3.09873 7.26783 3.39441 7.49313 3.7695 7.77856L7.55856 10.6614C7.81001 10.8527 8.01189 11.007 8.1611 11.1428C8.3116 11.2799 8.43086 11.419 8.49704 11.5891C8.59957 11.8532 8.59935 12.1453 8.49704 12.4094C8.43092 12.5797 8.31163 12.7196 8.1611 12.8567C8.01195 12.9925 7.80988 13.1459 7.55856 13.3372L3.7695 16.22C3.39425 16.5055 3.09881 16.7316 2.85739 16.8831C2.61977 17.0321 2.39209 17.1373 2.15622 17.135C1.80343 17.1312 1.47074 16.9699 1.25192 16.6975C1.10606 16.5154 1.05093 16.2741 1.02536 15.9983C0.99945 15.7178 0.99997 15.3495 0.999971 14.8831V9.11646C0.99997 8.64975 0.999411 8.28173 1.02536 8.00122C1.05096 7.72507 1.10569 7.48321 1.25192 7.30103C1.47075 7.02881 1.80354 6.86829 2.15622 6.8645Z" fill="black"/>
</svg>
