<svg width="24" height="24" viewBox="0 0 24 24" fill="none" xmlns="http://www.w3.org/2000/svg">
<path d="M21.9317 5.5945C21.8782 5.66218 21.8782 5.7919 21.8782 6.05135V6.73829H16.596C15.7037 6.73827 15.2167 6.73826 14.806 6.81995C14.1949 6.94151 13.6321 7.19216 13.147 7.54265C13.2357 7.68457 13.3192 7.83021 13.3971 7.97929C13.8347 7.65366 14.3463 7.42118 14.9035 7.31034C15.2597 7.2395 15.6938 7.23829 16.6351 7.23829H21.8782V7.94865C21.8782 8.2081 21.8782 8.33782 21.9317 8.4055C21.9781 8.46438 22.0487 8.49911 22.1237 8.49999C22.2099 8.50101 22.3127 8.42184 22.5182 8.26352L23.7498 7.31487C23.8889 7.20771 23.9584 7.15413 23.9834 7.08885C24.0053 7.03164 24.0053 6.96836 23.9834 6.91115C23.9584 6.84587 23.8889 6.79229 23.7498 6.68513L22.5182 5.73648C22.3127 5.57816 22.2099 5.49899 22.1237 5.50001C22.0487 5.50089 21.9781 5.53562 21.9317 5.5945Z" fill="black"/>
<path d="M6.63512 7.23828C7.57641 7.23828 8.01055 7.23949 8.36671 7.31034C9.8543 7.60624 11.0172 8.7691 11.3131 10.2567C11.3839 10.6129 11.3851 11.047 11.3851 11.9883V12.0274C11.3851 12.9197 11.3851 13.4067 11.4668 13.8174C11.8021 15.5034 13.12 16.8213 14.806 17.1566C15.2167 17.2383 15.7037 17.2383 16.596 17.2383H21.8739V17.949C21.8739 18.2084 21.8739 18.3381 21.9274 18.4059C21.9738 18.4648 22.0445 18.4996 22.1195 18.5006C22.2058 18.5017 22.3087 18.4227 22.5144 18.2647L23.75 17.3157C23.8899 17.2083 23.9598 17.1546 23.9849 17.0892C24.0069 17.0318 24.0069 16.9683 23.9849 16.9109C23.9598 16.8455 23.8899 16.7918 23.75 16.6844L22.5144 15.7354C22.3087 15.5774 22.2058 15.4984 22.1195 15.4995C22.0445 15.5005 21.9738 15.5353 21.9274 15.5942C21.8739 15.662 21.8739 15.7917 21.8739 16.0511V16.7383H16.6351C15.6938 16.7383 15.2597 16.7371 14.9035 16.6662C13.4159 16.3703 12.2531 15.2075 11.9572 13.7199C11.8863 13.3637 11.8851 12.9296 11.8851 11.9883V11.9492C11.8851 11.0568 11.8851 10.5698 11.8035 10.1591C11.4681 8.47321 10.1502 7.1553 8.46425 6.81994C8.05357 6.73826 7.56658 6.73826 6.67419 6.73828H0.5C0.361929 6.73828 0.25 6.85021 0.25 6.98828C0.25 7.12635 0.361929 7.23828 0.5 7.23828H6.63512Z" fill="black"/>
<path d="M9.87319 15.9973C9.43559 16.3229 8.92393 16.5554 8.36671 16.6662C8.01055 16.7371 7.57641 16.7383 6.63512 16.7383H0.5C0.361929 16.7383 0.25 16.8502 0.25 16.9883C0.25 17.1264 0.361929 17.2383 0.5 17.2383H6.67419C7.56658 17.2383 8.05357 17.2383 8.46425 17.1566C9.07537 17.0351 9.63812 16.7844 10.1233 16.4339C10.0345 16.292 9.95105 16.1464 9.87319 15.9973Z" fill="black"/>
</svg>
