<svg width="24" height="24" viewBox="0 0 24 24" fill="none" xmlns="http://www.w3.org/2000/svg">
<path fill-rule="evenodd" clip-rule="evenodd" d="M6.18869 2.75H17.8113C18.3618 2.75 18.7903 2.75 19.134 2.77808C19.4829 2.80659 19.7665 2.86529 20.0215 2.99524C20.4448 3.21095 20.789 3.55516 21.0048 3.97852C21.1347 4.23355 21.1934 4.51708 21.2219 4.86605C21.25 5.20974 21.25 5.6382 21.25 6.18868V17.8113C21.25 18.3618 21.25 18.7903 21.2219 19.134C21.1934 19.4829 21.1347 19.7665 21.0048 20.0215C20.789 20.4448 20.4448 20.789 20.0215 21.0048C19.7665 21.1347 19.4829 21.1934 19.134 21.2219C18.7903 21.25 18.3618 21.25 17.8113 21.25H6.18868C5.6382 21.25 5.20974 21.25 4.86605 21.2219C4.51708 21.1934 4.23355 21.1347 3.97852 21.0048C3.55516 20.789 3.21095 20.4448 2.99524 20.0215C2.86529 19.7665 2.80659 19.4829 2.77808 19.134C2.75 18.7903 2.75 18.3618 2.75 17.8113V6.18869C2.75 5.63821 2.75 5.20974 2.77808 4.86605C2.80659 4.51708 2.86529 4.23355 2.99524 3.97852C3.21095 3.55516 3.55516 3.21095 3.97852 2.99524C4.23355 2.86529 4.51708 2.80659 4.86605 2.77808C5.20974 2.75 5.63821 2.75 6.18869 2.75ZM4.90676 3.27642C4.58872 3.3024 4.37831 3.3527 4.20552 3.44074C3.87623 3.60852 3.60852 3.87623 3.44074 4.20552C3.3527 4.37831 3.3024 4.58872 3.27642 4.90676C3.25019 5.22772 3.25 5.63582 3.25 6.2V17.8C3.25 18.3642 3.25019 18.7723 3.27642 19.0932C3.3024 19.4113 3.3527 19.6217 3.44074 19.7945C3.60852 20.1238 3.87623 20.3915 4.20552 20.5593C4.37831 20.6473 4.58872 20.6976 4.90676 20.7236C5.22772 20.7498 5.63582 20.75 6.2 20.75H17.8C18.3642 20.75 18.7723 20.7498 19.0932 20.7236C19.4113 20.6976 19.6217 20.6473 19.7945 20.5593C20.1238 20.3915 20.3915 20.1238 20.5593 19.7945C20.6473 19.6217 20.6976 19.4113 20.7236 19.0932C20.7498 18.7723 20.75 18.3642 20.75 17.8V6.2C20.75 5.63582 20.7498 5.22772 20.7236 4.90676C20.6976 4.58872 20.6473 4.37831 20.5593 4.20552C20.3915 3.87623 20.1238 3.60852 19.7945 3.44074C19.6217 3.3527 19.4113 3.3024 19.0932 3.27642C18.7723 3.25019 18.3642 3.25 17.8 3.25H6.2C5.63582 3.25 5.22772 3.25019 4.90676 3.27642Z" fill="black"/>
</svg>
