<svg width="24" height="24" viewBox="0 0 24 24" fill="none" xmlns="http://www.w3.org/2000/svg">
<path d="M23.5157 7.55106C23.82 7.24672 23.82 6.75328 23.5157 6.44894L20.5364 3.46967C20.2435 3.17678 19.7687 3.17678 19.4758 3.46967C19.1829 3.76256 19.1829 4.23744 19.4758 4.53033L21.1954 6.25L16.9108 6.24999C16.0728 6.24987 15.5393 6.24979 15.0794 6.34127C14.4012 6.47618 13.7762 6.75337 13.2366 7.1408C13.5348 7.54474 13.7873 7.98474 13.9868 8.45341C14.3831 8.13908 14.8549 7.91532 15.3721 7.81245C15.6677 7.75363 16.0408 7.75 17.0061 7.75H21.1954L19.4758 9.46967C19.1829 9.76256 19.1829 10.2374 19.4758 10.5303C19.7687 10.8232 20.2435 10.8232 20.5364 10.5303L23.5157 7.55106Z" fill="black"/>
<path d="M10.0254 15.5466C9.62916 15.8609 9.15729 16.0847 8.64015 16.1876C8.34446 16.2464 7.97136 16.25 7.0061 16.25H1.0061C0.59189 16.25 0.256104 16.5858 0.256104 17C0.256104 17.4142 0.59189 17.75 1.0061 17.75L7.10137 17.75C7.93945 17.7501 8.47287 17.7502 8.93278 17.6587C9.61102 17.5238 10.236 17.2466 10.7756 16.8592C10.4774 16.4553 10.2249 16.0153 10.0254 15.5466Z" fill="black"/>
<path d="M7.0061 7.75C7.97136 7.75 8.34446 7.75363 8.64015 7.81245C9.92939 8.0689 10.9372 9.07671 11.1937 10.366C11.2525 10.6616 11.2561 11.0347 11.2561 12L11.2561 12.0953C11.256 12.9333 11.2559 13.4668 11.3474 13.9267C11.7222 15.811 13.1951 17.2839 15.0794 17.6587C15.5393 17.7502 16.0728 17.7501 16.9108 17.75L21.1954 17.75L19.4758 19.4697C19.1829 19.7626 19.1829 20.2374 19.4758 20.5303C19.7687 20.8232 20.2435 20.8232 20.5364 20.5303L23.5157 17.5511C23.82 17.2467 23.82 16.7533 23.5157 16.4489L20.5364 13.4697C20.2435 13.1768 19.7687 13.1768 19.4758 13.4697C19.1829 13.7626 19.1829 14.2374 19.4758 14.5303L21.1954 16.25H17.0061C16.0408 16.25 15.6677 16.2464 15.3721 16.1876C14.0828 15.9311 13.075 14.9233 12.8186 13.634C12.7597 13.3384 12.7561 12.9653 12.7561 12L12.7561 11.9047C12.7562 11.0667 12.7563 10.5332 12.6648 10.0733C12.29 8.18904 10.8171 6.71608 8.93278 6.34127C8.47287 6.24979 7.93945 6.24987 7.10138 6.24999L1.0061 6.25C0.59189 6.25 0.256104 6.58579 0.256104 7C0.256104 7.41421 0.59189 7.75 1.0061 7.75H7.0061Z" fill="black"/>
</svg>
