<svg width="24" height="24" viewBox="0 0 24 24" fill="none" xmlns="http://www.w3.org/2000/svg">
<path fill-rule="evenodd" clip-rule="evenodd" d="M23.8769 8.43565C24 9.21298 24 10.142 24 12C24 13.858 24 14.787 23.8769 15.5643C23.1992 19.8433 19.8433 23.1992 15.5643 23.8769C14.787 24 13.858 24 12 24C10.142 24 9.21298 24 8.43565 23.8769C4.15673 23.1992 0.800833 19.8433 0.123117 15.5643C0 14.787 0 13.858 0 12C0 10.142 0 9.21298 0.123117 8.43565C0.800833 4.15673 4.15673 0.800832 8.43565 0.123117C9.21298 0 10.142 0 12 0C13.858 0 14.787 0 15.5643 0.123117C19.8433 0.800832 23.1992 4.15673 23.8769 8.43565ZM11.6665 6.45922C11.6665 5.99158 11.0818 5.77987 10.7824 6.13913L8.14354 9.30573C7.95354 9.53373 7.67209 9.66555 7.37531 9.66555H5.99981C5.44753 9.66555 4.99981 10.1133 4.99981 10.6656V13.3322C4.99981 13.8845 5.44753 14.3322 5.99981 14.3322H7.37531C7.67209 14.3322 7.95354 14.464 8.14354 14.692L10.7824 17.8586C11.0818 18.2179 11.6665 18.0062 11.6665 17.5385V6.45922ZM17.374 7.55831C17.4711 7.46013 17.6294 7.45925 17.7275 7.55634C18.8729 8.68898 19.583 10.262 19.583 12.0004C19.583 13.6777 18.922 15.201 17.8468 16.3234C17.7513 16.4231 17.5931 16.4265 17.4934 16.331C17.3936 16.2354 17.3902 16.0772 17.4858 15.9775C18.4753 14.9445 19.083 13.5437 19.083 12.0004C19.083 10.401 18.4302 8.95443 17.376 7.91185C17.2778 7.81477 17.2769 7.65648 17.374 7.55831ZM15.2835 8.96558C15.3801 8.86685 15.5383 8.86506 15.6371 8.96158C16.426 9.73292 16.9162 10.8098 16.9162 12.0007C16.9162 13.147 16.4621 14.1877 15.7245 14.9519C15.6286 15.0512 15.4704 15.054 15.371 14.9581C15.2717 14.8622 15.2689 14.704 15.3647 14.6046C16.016 13.9299 16.4162 13.0123 16.4162 12.0007C16.4162 10.9498 15.9842 10.0002 15.2875 9.31911C15.1888 9.22258 15.187 9.0643 15.2835 8.96558ZM13.5481 10.3675C13.448 10.2724 13.2897 10.2766 13.1947 10.3767C13.0997 10.4769 13.1038 10.6351 13.204 10.7302C13.5404 11.0494 13.7496 11.5 13.7496 11.9999C13.7496 12.4659 13.5677 12.889 13.2706 13.2028C13.1757 13.3031 13.18 13.4613 13.2802 13.5563C13.3805 13.6512 13.5387 13.6469 13.6337 13.5466C14.0152 13.1436 14.2496 12.5988 14.2496 11.9999C14.2496 11.3572 13.9799 10.7772 13.5481 10.3675Z" fill="black"/>
</svg>
