<svg width="24" height="24" viewBox="0 0 24 24" fill="none" xmlns="http://www.w3.org/2000/svg">
<path fill-rule="evenodd" clip-rule="evenodd" d="M0.123117 8.43565C0 9.21298 0 10.142 0 12C0 13.858 0 14.787 0.123117 15.5643C0.800832 19.8433 4.15673 23.1992 8.43565 23.8769C9.21298 24 10.142 24 12 24C13.858 24 14.787 24 15.5643 23.8769C19.8433 23.1992 23.1992 19.8433 23.8769 15.5643C24 14.787 24 13.858 24 12C24 10.142 24 9.21298 23.8769 8.43565C23.1992 4.15673 19.8433 0.800832 15.5643 0.123117C14.787 0 13.858 0 12 0C10.142 0 9.21298 0 8.43565 0.123117C4.15673 0.800832 0.800832 4.15673 0.123117 8.43565ZM15.2921 8.82354L13.0428 10.5352C12.9215 10.6275 12.8114 10.7113 12.7118 10.7884C12.4875 10.9622 12.0433 10.7754 12.0433 10.4916V10.2884C12.0433 9.07725 12.0433 8.47167 11.79 8.15622C11.5696 7.88179 11.235 7.72015 10.8796 7.71648C10.4711 7.71227 9.98434 8.0827 9.01076 8.82358L6.76149 10.5352C6.1061 11.034 5.7784 11.2833 5.66051 11.5869C5.55721 11.853 5.55721 12.1471 5.66051 12.4132C5.7784 12.7168 6.1061 12.9661 6.76148 13.4649L9.01076 15.1765C9.98434 15.9174 10.4711 16.2878 10.8796 16.2836C11.235 16.28 11.5696 16.1183 11.79 15.8439C12.0433 15.5284 12.0433 14.9229 12.0433 13.7117V13.5084C12.0433 13.2246 12.4875 13.0378 12.7118 13.2116C12.8114 13.2887 12.9215 13.3725 13.0428 13.4648L15.2921 15.1765C16.2657 15.9174 16.7525 16.2878 17.161 16.2836C17.5164 16.2799 17.851 16.1183 18.0713 15.8438C18.3246 15.5284 18.3246 14.9228 18.3246 13.7117V10.2884C18.3246 9.07721 18.3246 8.47163 18.0713 8.15618C17.851 7.88175 17.5164 7.72011 17.161 7.71644C16.7525 7.71223 16.2657 8.08267 15.2921 8.82354Z" fill="black"/>
</svg>
