<svg width="24" height="24" viewBox="0 0 24 24" fill="none" xmlns="http://www.w3.org/2000/svg">
<path d="M3 18.9991C2.44772 18.9991 2 19.4468 2 19.9991C2 20.5514 2.44772 20.9991 3 20.9991H21C21.5523 20.9991 22 20.5514 22 19.9991C22 19.4468 21.5523 18.9991 21 18.9991H3Z" fill="black"/>
<path fill-rule="evenodd" clip-rule="evenodd" d="M8.7309 4.55638C9.13556 4.02458 9.47884 3.57346 9.78772 3.23428C10.1083 2.88231 10.4692 2.56108 10.9377 2.37917C11.6218 2.11352 12.3782 2.11352 13.0623 2.37917C13.5308 2.56108 13.8917 2.88231 14.2123 3.23428C14.5212 3.57346 14.8644 4.02458 15.2691 4.55638L19.5822 10.2241C20.1912 11.0244 20.6903 11.6803 21.0313 12.2239C21.3691 12.7624 21.6634 13.3568 21.6566 14.0149C21.6472 14.9287 21.2316 15.7892 20.5259 16.3558C20.0177 16.7638 19.3749 16.8908 18.7491 16.9487C18.1172 17.0071 17.3014 17.0071 16.3058 17.0071H7.69431C6.69866 17.0071 5.88281 17.0071 5.25094 16.9487C4.62508 16.8908 3.98227 16.7638 3.47412 16.3558C2.76844 15.7892 2.35279 14.9287 2.34336 14.0149C2.33657 13.3568 2.63094 12.7624 2.96871 12.2239C3.30972 11.6803 3.80879 11.0245 4.41785 10.2241L8.7309 4.55638ZM11.6459 4.26228C11.5939 4.28246 11.4809 4.34317 11.2439 4.60348C11.0019 4.86914 10.7123 5.24825 10.2736 5.8247L6.01788 11.4171C5.37074 12.2675 4.92826 12.8506 4.64173 13.3074C4.34627 13.7785 4.32674 13.9515 4.32718 13.9937C4.33032 14.2984 4.46887 14.5852 4.7041 14.7741C4.73672 14.8002 4.88336 14.8904 5.43082 14.941C5.96174 14.9901 6.68636 14.9911 7.74427 14.9911H16.2557C17.3136 14.9911 18.0383 14.9901 18.5692 14.941C19.1166 14.8904 19.2633 14.8002 19.2959 14.7741C19.5311 14.5852 19.6697 14.2984 19.6728 13.9937C19.6733 13.9515 19.6537 13.7785 19.3583 13.3074C19.0717 12.8506 18.6293 12.2675 17.9821 11.4171L13.7264 5.8247C13.2877 5.24825 12.9981 4.86914 12.7561 4.60348C12.5191 4.34317 12.4061 4.28246 12.3541 4.26228C12.1261 4.17374 11.8739 4.17374 11.6459 4.26228Z" fill="black"/>
</svg>
