<svg width="24" height="24" viewBox="0 0 24 24" fill="none" xmlns="http://www.w3.org/2000/svg">
<path d="M22.9937 10.75C22.8556 10.75 22.7437 10.8619 22.7437 11V11.6C22.7437 12.7242 22.7435 13.5524 22.69 14.2068C22.6368 14.8584 22.532 15.3158 22.3349 15.7025C21.9754 16.4081 21.4017 16.9817 20.6961 17.3413C20.3094 17.5383 19.852 17.6431 19.2005 17.6963C18.546 17.7498 17.7179 17.75 16.5937 17.75H5.59721L8.17043 15.1768C8.26806 15.0791 8.26806 14.9209 8.17043 14.8232C8.0728 14.7256 7.91451 14.7256 7.81688 14.8232L4.83761 17.8025C4.72853 17.9116 4.72853 18.0884 4.83761 18.1975L7.81688 21.1768C7.91451 21.2744 8.0728 21.2744 8.17043 21.1768C8.26806 21.0791 8.26806 20.9209 8.17043 20.8232L5.59721 18.25H16.6053C17.7155 18.25 18.564 18.25 19.2412 18.1947C19.9237 18.1389 20.4542 18.0257 20.9231 17.7868C21.7228 17.3793 22.373 16.7291 22.7804 15.9295C23.0194 15.4605 23.1326 14.93 23.1883 14.2476C23.2437 13.5704 23.2437 12.7219 23.2437 11.6116V11C23.2437 10.8619 23.1317 10.75 22.9937 10.75Z" fill="black"/>
<path d="M1.00586 13.25C1.14393 13.25 1.25586 13.1381 1.25586 13V12.4C1.25586 11.2758 1.25605 10.4476 1.30953 9.79317C1.36276 9.14162 1.46755 8.68424 1.66458 8.29754C2.02411 7.59193 2.59779 7.01825 3.3034 6.65873C3.6901 6.46169 4.14748 6.3569 4.79903 6.30367C5.45349 6.25019 6.28163 6.25 7.40586 6.25H18.4023L15.8291 8.82322C15.7315 8.92085 15.7315 9.07915 15.8291 9.17678C15.9267 9.27441 16.085 9.27441 16.1826 9.17678L19.1619 6.19751C19.271 6.08843 19.271 5.91157 19.1619 5.80249L16.1826 2.82322C16.085 2.72559 15.9267 2.72559 15.8291 2.82322C15.7315 2.92085 15.7315 3.07915 15.8291 3.17678L18.4023 5.75H7.39421C6.28399 5.75 5.43547 5.75 4.75831 5.80533C4.07584 5.86109 3.54534 5.97428 3.0764 6.21322C2.27671 6.62068 1.62654 7.27085 1.21908 8.07054C0.980145 8.53948 0.866946 9.06998 0.811186 9.75245C0.755859 10.4296 0.755859 11.2781 0.755859 12.3884V13C0.755859 13.1381 0.867788 13.25 1.00586 13.25Z" fill="black"/>
</svg>
