<svg width="25" height="24" viewBox="0 0 25 24" fill="none" xmlns="http://www.w3.org/2000/svg">
<path d="M23.2379 9.75014C22.5475 9.75014 21.9879 10.3098 21.9879 11.0001V11.6001C21.9879 12.7409 21.9869 13.5212 21.9375 14.1255C21.8893 14.7152 21.8014 15.0264 21.6881 15.2486C21.4245 15.7661 21.0038 16.1868 20.4863 16.4504C20.2641 16.5636 19.953 16.6516 19.3633 16.6998C18.759 16.7492 17.9786 16.7501 16.8379 16.7501H8.6939V15.7915C8.6939 15.1861 8.6939 14.8834 8.56926 14.7255C8.46083 14.5881 8.29612 14.5071 8.12111 14.505C7.91994 14.5027 7.68015 14.6874 7.20057 15.0568L4.32699 17.2703C4.0024 17.5204 3.8401 17.6454 3.78176 17.7977C3.73063 17.9312 3.73063 18.0789 3.78176 18.2123C3.8401 18.3647 4.0024 18.4897 4.32699 18.7397L7.20057 20.9532C7.68015 21.3227 7.91994 21.5074 8.12111 21.505C8.29612 21.5029 8.46083 21.4219 8.56926 21.2845C8.6939 21.1266 8.6939 20.8239 8.6939 20.2185V19.2501H16.8899C17.9658 19.2502 18.8487 19.2502 19.5668 19.1915C20.3111 19.1307 20.9879 19.0007 21.6213 18.6779C22.6092 18.1746 23.4123 17.3714 23.9156 16.3836C24.2384 15.7502 24.3684 15.0734 24.4292 14.3291C24.4879 13.611 24.4879 12.7281 24.4879 11.6523L24.4879 11.0001C24.4879 10.3098 23.9282 9.75014 23.2379 9.75014Z" fill="black"/>
<path d="M1.25 14.25C1.94036 14.25 2.5 13.6904 2.5 13V12.4C2.5 11.2593 2.50097 10.4789 2.55035 9.8746C2.59853 9.28489 2.6865 8.97376 2.79973 8.75153C3.06338 8.23408 3.48408 7.81338 4.00153 7.54973C4.22377 7.4365 4.53489 7.34853 5.1246 7.30034C5.7289 7.25097 6.50927 7.25 7.65 7.25H15.6339V8.21841C15.6339 8.82377 15.6339 9.12646 15.7585 9.28437C15.867 9.42176 16.0317 9.5028 16.2067 9.50486C16.4079 9.50723 16.6476 9.32252 17.1272 8.9531L20.0008 6.73957C20.3254 6.48954 20.4877 6.36452 20.546 6.2122C20.5972 6.07871 20.5972 5.93105 20.546 5.79757C20.4877 5.64524 20.3254 5.52023 20.0008 5.27019L17.1272 3.05667C16.6476 2.68725 16.4079 2.50253 16.2067 2.50491C16.0317 2.50697 15.867 2.588 15.7585 2.72539C15.6339 2.88331 15.6339 3.18599 15.6339 3.79136V4.75H7.59793C6.52208 4.74998 5.63918 4.74997 4.92102 4.80865C4.17671 4.86946 3.49996 4.99948 2.86655 5.32222C1.8787 5.82555 1.07555 6.6287 0.572217 7.61655C0.249479 8.24996 0.119462 8.92671 0.0586491 9.67102C-2.70233e-05 10.3892 -1.46267e-05 11.2721 4.82796e-07 12.3479V13C4.82796e-07 13.6904 0.559645 14.25 1.25 14.25Z" fill="black"/>
</svg>
