<svg width="24" height="24" viewBox="0 0 24 24" fill="none" xmlns="http://www.w3.org/2000/svg">
<path d="M23.6663 7.63945C24.0195 7.2863 24.0195 6.71371 23.6663 6.36055L20.6871 3.38128C20.3454 3.03957 19.7913 3.03957 19.4496 3.38128C19.1079 3.72299 19.1079 4.27701 19.4496 4.61872L20.8309 6L16.9526 5.99998C16.135 5.99978 15.5777 5.99964 15.0929 6.09607C14.3762 6.23864 13.716 6.53213 13.1465 6.94245C13.5652 7.46626 13.9045 8.05675 14.1467 8.69625C14.524 8.38141 14.9804 8.15764 15.4831 8.05764C15.7485 8.00484 16.0911 8 17.0684 8H20.8309L19.4496 9.38128C19.1079 9.72299 19.1079 10.277 19.4496 10.6187C19.7913 10.9604 20.3454 10.9604 20.6871 10.6187L23.6663 7.63945Z" fill="black"/>
<path d="M9.99004 15.3038C9.61272 15.6186 9.15636 15.8424 8.65363 15.9424C8.38818 15.9952 8.0456 16 7.06836 16H1.06836C0.516075 16 0.0683594 16.4477 0.0683594 17C0.0683594 17.5523 0.516075 18 1.06836 18L7.18411 18C8.0017 18.0002 8.55902 18.0004 9.04381 17.9039C9.76053 17.7614 10.4207 17.4679 10.9902 17.0575C10.5716 16.5337 10.2323 15.9432 9.99004 15.3038Z" fill="black"/>
<path d="M7.06836 8C8.0456 8 8.38818 8.00484 8.65363 8.05765C9.8437 8.29437 10.774 9.22466 11.0107 10.4147C11.0635 10.6802 11.0684 11.0228 11.0684 12L11.0683 12.1158C11.0681 12.9334 11.068 13.4907 11.1644 13.9755C11.559 15.9589 13.1095 17.5094 15.0929 17.9039C15.5777 18.0004 16.135 18.0002 16.9526 18L20.8309 18L19.4496 19.3813C19.1079 19.723 19.1079 20.277 19.4496 20.6187C19.7913 20.9604 20.3454 20.9604 20.6871 20.6187L23.6663 17.6395C24.0195 17.2863 24.0195 16.7137 23.6663 16.3605L20.6871 13.3813C20.3454 13.0396 19.7913 13.0396 19.4496 13.3813C19.1079 13.723 19.1079 14.277 19.4496 14.6187L20.8309 16H17.0684C16.0911 16 15.7485 15.9952 15.4831 15.9424C14.293 15.7056 13.3627 14.7753 13.126 13.5853C13.0732 13.3198 13.0684 12.9772 13.0684 12L13.0684 11.8842C13.0686 11.0666 13.0687 10.5094 12.9723 10.0245C12.5778 8.0411 11.0273 6.49061 9.04381 6.09607C8.55901 5.99964 8.00172 5.99978 7.18411 5.99998L1.06836 6C0.516075 6 0.0683594 6.44772 0.0683594 7C0.0683594 7.55229 0.516075 8 1.06836 8H7.06836Z" fill="black"/>
</svg>
