<svg width="24" height="24" viewBox="0 0 24 24" fill="none" xmlns="http://www.w3.org/2000/svg">
<path fill-rule="evenodd" clip-rule="evenodd" d="M1.5 10.2222V13.7778C1.5 14.5448 2.12183 15.1667 2.88889 15.1667H4.72289C5.10211 15.1667 5.46174 15.3351 5.7045 15.6264L9.22295 19.8486C9.65539 20.3675 10.5 20.0617 10.5 19.3862V4.6138C10.5 3.93831 9.65539 3.63252 9.22295 4.15144L5.7045 8.37358C5.46174 8.6649 5.10211 8.83334 4.72289 8.83334H2.88889C2.12183 8.83334 1.5 9.45517 1.5 10.2222ZM2.88889 9.33334C2.39797 9.33334 2 9.73131 2 10.2222V13.7778C2 14.2687 2.39797 14.6667 2.88889 14.6667H4.72289C5.2505 14.6667 5.75085 14.901 6.08862 15.3063L9.60706 19.5285C9.74012 19.6882 10 19.5941 10 19.3862V4.6138C10 4.40595 9.74012 4.31187 9.60706 4.47154L6.08862 8.69367C5.75085 9.09899 5.2505 9.33334 4.72289 9.33334H2.88889Z" fill="black"/>
<path d="M17.0154 7.53465C17.1119 7.43592 17.2702 7.43413 17.3689 7.53065C18.5293 8.66511 19.25 10.2486 19.25 12C19.25 13.6857 18.5823 15.2159 17.4975 16.3399C17.4016 16.4392 17.2434 16.442 17.144 16.3462C17.0447 16.2503 17.0419 16.092 17.1377 15.9927C18.1362 14.9582 18.75 13.551 18.75 12C18.75 10.3886 18.0875 8.93244 17.0194 7.88818C16.9207 7.79165 16.9189 7.63337 17.0154 7.53465Z" fill="black"/>
<path d="M13.8833 9.65139C13.9783 9.55123 14.1366 9.54708 14.2367 9.64212C14.8605 10.234 15.25 11.0717 15.25 12C15.25 12.8653 14.9115 13.652 14.3603 14.2342C14.2654 14.3345 14.1071 14.3388 14.0069 14.2438C13.9066 14.1489 13.9023 13.9907 13.9972 13.8904C14.4641 13.3974 14.75 12.7324 14.75 12C14.75 11.2145 14.421 10.5062 13.8925 10.0048C13.7924 9.90978 13.7882 9.75154 13.8833 9.65139Z" fill="black"/>
</svg>
