<svg width="24" height="24" viewBox="0 0 24 24" fill="none" xmlns="http://www.w3.org/2000/svg">
<path fill-rule="evenodd" clip-rule="evenodd" d="M4.72705 1C4.44749 0.999974 4.18087 0.999947 3.95609 1.01831C3.71083 1.03835 3.42874 1.08514 3.14662 1.22889C2.75148 1.43022 2.43022 1.75148 2.22889 2.14662C2.08514 2.42874 2.03835 2.71083 2.01831 2.95609C1.99995 3.18087 1.99997 3.44749 2 3.72705V20.273C1.99997 20.5525 1.99995 20.8191 2.01831 21.0439C2.03835 21.2892 2.08514 21.5713 2.22889 21.8534C2.43022 22.2485 2.75148 22.5698 3.14662 22.7711C3.42874 22.9149 3.71083 22.9617 3.95609 22.9817C4.18085 23.0001 4.44745 23 4.72697 23H7.27298C7.55251 23 7.81916 23.0001 8.04391 22.9817C8.28918 22.9617 8.57127 22.9149 8.85338 22.7711C9.24852 22.5698 9.56978 22.2485 9.77112 21.8534C9.91487 21.5713 9.96166 21.2892 9.9817 21.0439C10.0001 20.8191 10 20.5525 10 20.273V3.72705C10 3.44749 10.0001 3.18087 9.9817 2.95609C9.96166 2.71083 9.91487 2.42874 9.77112 2.14662C9.56978 1.75148 9.24852 1.43022 8.85338 1.22889C8.57127 1.08514 8.28918 1.03835 8.04391 1.01831C7.81914 0.999947 7.55251 0.999974 7.27296 1H4.72705ZM4.03863 3.02105C4.03206 3.02616 4.02616 3.03206 4.02105 3.03864C4.01852 3.0535 4.01492 3.07916 4.01167 3.11896C4.00078 3.25222 4 3.43547 4 3.76V20.24C4 20.5645 4.00078 20.7478 4.01167 20.8811C4.01492 20.9209 4.01852 20.9465 4.02105 20.9614C4.02616 20.9679 4.03206 20.9739 4.03863 20.979C4.0535 20.9815 4.07916 20.9851 4.11896 20.9883C4.25222 20.9992 4.43547 21 4.76 21H7.24C7.56453 21 7.74779 20.9992 7.88105 20.9883C7.92085 20.9851 7.94651 20.9815 7.96137 20.979C7.96794 20.9739 7.97385 20.9679 7.97896 20.9614C7.98149 20.9465 7.98509 20.9209 7.98834 20.8811C7.99923 20.7478 8 20.5645 8 20.24V3.76C8 3.43547 7.99923 3.25222 7.98834 3.11896C7.98509 3.07916 7.98149 3.0535 7.97896 3.03864C7.97385 3.03207 7.96794 3.02616 7.96137 3.02105C7.94651 3.01852 7.92085 3.01492 7.88105 3.01167C7.74779 3.00078 7.56453 3 7.24 3H4.76C4.43547 3 4.25222 3.00078 4.11896 3.01167C4.07916 3.01492 4.0535 3.01852 4.03863 3.02105Z" fill="black"/>
<path fill-rule="evenodd" clip-rule="evenodd" d="M16.727 1C16.4475 0.999974 16.1809 0.999947 15.9561 1.01831C15.7108 1.03835 15.4287 1.08514 15.1466 1.22889C14.7515 1.43022 14.4302 1.75148 14.2289 2.14662C14.0851 2.42874 14.0384 2.71083 14.0183 2.95609C13.9999 3.18086 14 3.44746 14 3.72699V20.273C14 20.5525 13.9999 20.8192 14.0183 21.0439C14.0384 21.2892 14.0851 21.5713 14.2289 21.8534C14.4302 22.2485 14.7515 22.5698 15.1466 22.7711C15.4287 22.9149 15.7108 22.9617 15.9561 22.9817C16.1809 23.0001 16.4474 23 16.727 23H19.273C19.5525 23 19.8192 23.0001 20.0439 22.9817C20.2892 22.9617 20.5713 22.9149 20.8534 22.7711C21.2485 22.5698 21.5698 22.2485 21.7711 21.8534C21.9149 21.5713 21.9617 21.2892 21.9817 21.0439C22.0001 20.8191 22 20.5525 22 20.273V3.72705C22 3.44749 22.0001 3.18087 21.9817 2.95609C21.9617 2.71083 21.9149 2.42874 21.7711 2.14662C21.5698 1.75148 21.2485 1.43022 20.8534 1.22889C20.5713 1.08514 20.2892 1.03835 20.0439 1.01831C19.8191 0.999947 19.5525 0.999974 19.273 1H16.727ZM16.0386 3.02105C16.0321 3.02616 16.0262 3.03206 16.021 3.03864C16.0185 3.0535 16.0149 3.07916 16.0117 3.11896C16.0008 3.25222 16 3.43547 16 3.76V20.24C16 20.5645 16.0008 20.7478 16.0117 20.8811C16.0149 20.9209 16.0185 20.9465 16.021 20.9614C16.0262 20.9679 16.0321 20.9739 16.0386 20.979C16.0535 20.9815 16.0792 20.9851 16.119 20.9883C16.2522 20.9992 16.4355 21 16.76 21H19.24C19.5645 21 19.7478 20.9992 19.8811 20.9883C19.9209 20.9851 19.9465 20.9815 19.9614 20.979C19.9679 20.9739 19.9739 20.9679 19.979 20.9614C19.9815 20.9465 19.9851 20.9209 19.9883 20.8811C19.9992 20.7478 20 20.5645 20 20.24V3.76C20 3.43547 19.9992 3.25222 19.9883 3.11896C19.9851 3.07916 19.9815 3.0535 19.979 3.03864C19.9739 3.03207 19.9679 3.02616 19.9614 3.02105C19.9465 3.01852 19.9209 3.01492 19.8811 3.01167C19.7478 3.00078 19.5645 3 19.24 3H16.76C16.4355 3 16.2522 3.00078 16.119 3.01167C16.0792 3.01492 16.0535 3.01852 16.0386 3.02105Z" fill="black"/>
</svg>
