<svg width="25" height="24" viewBox="0 0 25 24" fill="none" xmlns="http://www.w3.org/2000/svg">
<path d="M23.2378 9.75C22.5474 9.75 21.9878 10.3096 21.9878 11V11.6C21.9878 12.7407 21.9868 13.5211 21.9374 14.1254C21.8893 14.7151 21.8013 15.0262 21.6881 15.2485C21.4244 15.7659 21.0037 16.1866 20.4863 16.4503C20.264 16.5635 19.9529 16.6515 19.3632 16.6997C18.7589 16.749 17.9785 16.75 16.8378 16.75H8.25556L9.12168 15.8839C9.60983 15.3957 9.60983 14.6043 9.12168 14.1161C8.63352 13.628 7.84207 13.628 7.35391 14.1161L4.37464 17.0954C3.87504 17.595 3.87503 18.405 4.37464 18.9046L7.35391 21.8839C7.84207 22.372 8.63352 22.372 9.12168 21.8839C9.60983 21.3957 9.60983 20.6043 9.12168 20.1161L8.25556 19.25H16.8899C17.9657 19.25 18.8486 19.25 19.5668 19.1914C20.3111 19.1305 20.9878 19.0005 21.6212 18.6778C22.6091 18.1744 23.4122 17.3713 23.9156 16.3835C24.2383 15.75 24.3683 15.0733 24.4291 14.329C24.4878 13.6109 24.4878 12.728 24.4878 11.6522V11C24.4878 10.3096 23.9281 9.75 23.2378 9.75Z" fill="black"/>
<path d="M1.25 14.25C1.94036 14.25 2.5 13.6904 2.5 13V12.4C2.5 11.2593 2.50097 10.4789 2.55035 9.8746C2.59853 9.28489 2.6865 8.97377 2.79973 8.75153C3.06339 8.23408 3.48408 7.81339 4.00153 7.54973C4.22377 7.4365 4.53489 7.34853 5.1246 7.30035C5.7289 7.25097 6.50927 7.25 7.65 7.25H16.2322L15.3661 8.11612C14.878 8.60427 14.878 9.39573 15.3661 9.88388C15.8543 10.372 16.6457 10.372 17.1339 9.88388L20.1131 6.90462C20.6128 6.40502 20.6128 5.59499 20.1131 5.09538L17.1339 2.11612C16.6457 1.62796 15.8543 1.62796 15.3661 2.11612C14.878 2.60427 14.878 3.39573 15.3661 3.88389L16.2322 4.75H7.59794C6.52208 4.74999 5.63918 4.74997 4.92102 4.80865C4.17671 4.86946 3.49996 4.99948 2.86655 5.32222C1.8787 5.82555 1.07555 6.6287 0.572218 7.61655C0.24948 8.24996 0.119462 8.92671 0.05865 9.67102C-2.54028e-05 10.3892 -1.37544e-05 11.272 4.39657e-07 12.3479V13C4.39657e-07 13.6904 0.559646 14.25 1.25 14.25Z" fill="black"/>
</svg>
