<svg width="24" height="24" viewBox="0 0 24 24" fill="none" xmlns="http://www.w3.org/2000/svg">
<path d="M23.6666 7.63945C24.0197 7.2863 24.0198 6.71371 23.6666 6.36055L20.6873 3.38128C20.3456 3.03957 19.7916 3.03957 19.4499 3.38128C19.1082 3.72299 19.1082 4.27701 19.4499 4.61872L20.8312 6L16.9528 5.99998C16.1352 5.99978 15.578 5.99964 15.0932 6.09607C14.3764 6.23864 13.7163 6.53213 13.1467 6.94245C13.5654 7.46626 13.9047 8.05675 14.1469 8.69625C14.5242 8.38141 14.9806 8.15764 15.4833 8.05764C15.7488 8.00484 16.0914 8 17.0686 8H20.8312L19.4499 9.38128C19.1082 9.72299 19.1082 10.277 19.4499 10.6187C19.7916 10.9604 20.3456 10.9604 20.6873 10.6187L23.6666 7.63945Z" fill="black"/>
<path d="M9.99028 15.3038C9.61297 15.6186 9.1566 15.8424 8.65387 15.9424C8.38843 15.9952 8.04584 16 7.0686 16H1.0686C0.516319 16 0.0686035 16.4477 0.0686035 17C0.0686035 17.5523 0.516319 18 1.0686 18L7.18436 18C8.00195 18.0002 8.55926 18.0004 9.04405 17.9039C9.76077 17.7614 10.421 17.4679 10.9905 17.0575C10.5718 16.5337 10.2325 15.9432 9.99028 15.3038Z" fill="black"/>
<path d="M7.0686 8C8.04584 8 8.38843 8.00484 8.65387 8.05765C9.84395 8.29437 10.7742 9.22466 11.011 10.4147C11.0638 10.6802 11.0686 11.0228 11.0686 12L11.0686 12.1158C11.0684 12.9334 11.0682 13.4907 11.1647 13.9755C11.5592 15.9589 13.1097 17.5094 15.0932 17.9039C15.578 18.0004 16.1352 18.0002 16.9528 18L20.8312 18L19.4499 19.3813C19.1082 19.723 19.1082 20.277 19.4499 20.6187C19.7916 20.9604 20.3456 20.9604 20.6873 20.6187L23.6666 17.6395C24.0198 17.2863 24.0197 16.7137 23.6666 16.3605L20.6873 13.3813C20.3456 13.0396 19.7916 13.0396 19.4499 13.3813C19.1082 13.723 19.1082 14.277 19.4499 14.6187L20.8312 16H17.0686C16.0914 16 15.7488 15.9952 15.4833 15.9424C14.2933 15.7056 13.363 14.7753 13.1262 13.5853C13.0734 13.3198 13.0686 12.9772 13.0686 12L13.0686 11.8842C13.0688 11.0666 13.069 10.5094 12.9725 10.0245C12.578 8.0411 11.0275 6.49061 9.04405 6.09607C8.55925 5.99964 8.00196 5.99978 7.18436 5.99998L1.0686 6C0.516319 6 0.0686035 6.44772 0.0686035 7C0.0686035 7.55229 0.516319 8 1.0686 8H7.0686Z" fill="black"/>
</svg>
