<svg width="24" height="24" viewBox="0 0 24 24" fill="none" xmlns="http://www.w3.org/2000/svg">
<path d="M23.1621 7.19751C23.2712 7.08843 23.2712 6.91157 23.1621 6.80249L20.1829 3.82322C20.0852 3.72559 19.927 3.72559 19.8293 3.82322C19.7317 3.92085 19.7317 4.07915 19.8293 4.17678L22.4025 6.75H16.967C16.0747 6.74998 15.5876 6.74997 15.177 6.83166C14.5659 6.95322 14.0031 7.20388 13.518 7.55436C13.6067 7.69629 13.6902 7.84192 13.768 7.991C14.2056 7.66537 14.7173 7.43289 15.2745 7.32206C15.6307 7.25121 16.0648 7.25 17.0061 7.25H22.4025L19.8293 9.82322C19.7317 9.92085 19.7317 10.0791 19.8293 10.1768C19.927 10.2744 20.0852 10.2744 20.1829 10.1768L23.1621 7.19751Z" fill="black"/>
<path d="M10.2442 16.009C9.80657 16.3346 9.29491 16.5671 8.73769 16.6779C8.38153 16.7488 7.9474 16.75 7.0061 16.75H1.0061C0.868032 16.75 0.756104 16.8619 0.756104 17C0.756104 17.1381 0.868032 17.25 1.0061 17.25H7.04517C7.93757 17.25 8.42456 17.25 8.83524 17.1683C9.44635 17.0468 10.0091 16.7961 10.4942 16.4456C10.4055 16.3037 10.322 16.1581 10.2442 16.009Z" fill="black"/>
<path d="M7.0061 7.25C7.9474 7.25 8.38153 7.25121 8.73769 7.32206C10.2253 7.61796 11.3881 8.78082 11.684 10.2684C11.7549 10.6246 11.7561 11.0587 11.7561 12V12.0391C11.7561 12.9315 11.7561 13.4185 11.8378 13.8291C12.1731 15.5151 13.491 16.833 15.177 17.1683C15.5876 17.25 16.0746 17.25 16.967 17.25H22.4025L19.8293 19.8232C19.7317 19.9209 19.7317 20.0791 19.8293 20.1768C19.927 20.2744 20.0852 20.2744 20.1829 20.1768L23.1621 17.1975C23.2712 17.0884 23.2712 16.9116 23.1621 16.8025L20.1829 13.8232C20.0852 13.7256 19.927 13.7256 19.8293 13.8232C19.7317 13.9209 19.7317 14.0791 19.8293 14.1768L22.4025 16.75H17.0061C16.0648 16.75 15.6307 16.7488 15.2745 16.6779C13.7869 16.382 12.6241 15.2192 12.3282 13.7316C12.2573 13.3754 12.2561 12.9413 12.2561 12V11.9609C12.2561 11.0685 12.2561 10.5815 12.1744 10.1709C11.8391 8.48493 10.5212 7.16702 8.83524 6.83166C8.42456 6.74997 7.93757 6.74998 7.04518 6.75H1.0061C0.868032 6.75 0.756104 6.86193 0.756104 7C0.756104 7.13807 0.868032 7.25 1.0061 7.25H7.0061Z" fill="black"/>
</svg>
