<svg width="24" height="24" viewBox="0 0 24 24" fill="none" xmlns="http://www.w3.org/2000/svg">
<path fill-rule="evenodd" clip-rule="evenodd" d="M23.8769 8.43565C24 9.21298 24 10.142 24 12C24 13.858 24 14.787 23.8769 15.5643C23.1992 19.8433 19.8433 23.1992 15.5643 23.8769C14.787 24 13.858 24 12 24C10.142 24 9.21298 24 8.43565 23.8769C4.15673 23.1992 0.800833 19.8433 0.123117 15.5643C0 14.787 0 13.858 0 12C0 10.142 0 9.21298 0.123117 8.43565C0.800833 4.15673 4.15673 0.800832 8.43565 0.123117C9.21298 0 10.142 0 12 0C13.858 0 14.787 0 15.5643 0.123117C19.8433 0.800832 23.1992 4.15673 23.8769 8.43565ZM11.6665 6.45922C11.6665 5.99158 11.0818 5.77987 10.7824 6.13913L8.14354 9.30573C7.95354 9.53373 7.67209 9.66555 7.37531 9.66555H5.99981C5.44753 9.66555 4.99981 10.1133 4.99981 10.6656V13.3322C4.99981 13.8845 5.44753 14.3322 5.99981 14.3322H7.37531C7.67209 14.3322 7.95354 14.464 8.14354 14.692L10.7824 17.8586C11.0818 18.2179 11.6665 18.0062 11.6665 17.5385V6.45922ZM16.074 8.51468C15.7285 8.17685 15.1745 8.18311 14.8366 8.52865C14.4988 8.8742 14.5051 9.42818 14.8506 9.76601C15.432 10.3344 15.7912 11.1248 15.7912 12.0007C15.7912 12.844 15.4584 13.6077 14.915 14.1706C14.5794 14.5183 14.5893 15.0722 14.937 15.4078C15.2847 15.7434 15.8386 15.7336 16.1742 15.3859C17.0197 14.5099 17.5412 13.3153 17.5412 12.0007C17.5412 10.6348 16.9783 9.39876 16.074 8.51468ZM13.9783 9.9141C13.6278 9.58147 13.074 9.59599 12.7413 9.94654C12.4087 10.2971 12.4232 10.8509 12.7738 11.1836C12.991 11.3897 13.1246 11.6784 13.1246 11.9999C13.1246 12.2998 13.0084 12.5707 12.8168 12.7731C12.4845 13.124 12.4996 13.6778 12.8505 14.0101C13.2014 14.3424 13.7552 14.3272 14.0875 13.9763C14.5746 13.4619 14.8746 12.765 14.8746 11.9999C14.8746 11.1788 14.5293 10.4369 13.9783 9.9141Z" fill="black"/>
</svg>
