<svg width="24" height="24" viewBox="0 0 24 24" fill="none" xmlns="http://www.w3.org/2000/svg">
<path d="M10.0545 9.48894L6.19859 6.55468C4.52959 5.28461 3.6951 4.64957 2.99481 4.6568C2.38557 4.66308 1.81191 4.94019 1.43418 5.41064C1 5.95141 1 6.98954 1 9.0658V14.9343C1 17.0106 1 18.0487 1.43418 18.5895C1.81191 19.0599 2.38557 19.337 2.99481 19.3433C3.6951 19.3506 4.52959 18.7155 6.19858 17.4454L10.0545 14.5112C10.2626 14.3528 10.4514 14.2092 10.6222 14.0768C11.0067 13.779 11.7676 14.0989 11.7676 14.5853V14.9343C11.7676 17.0106 11.7676 18.0487 12.2018 18.5895C12.5795 19.0599 13.1532 19.337 13.7624 19.3433C14.4627 19.3506 15.2972 18.7155 16.9662 17.4455L20.822 14.5112C21.9456 13.6562 22.5073 13.2287 22.7094 12.7083C22.8865 12.2522 22.8865 11.7479 22.7094 11.2918C22.5073 10.7714 21.9456 10.3439 20.8221 9.48895L16.9662 6.55469C15.2972 5.28462 14.4627 4.64958 13.7624 4.6568C13.1532 4.66309 12.5795 4.94019 12.2018 5.41065C11.7676 5.95142 11.7676 6.98954 11.7676 9.0658V9.41478C11.7676 9.90119 11.0067 10.2212 10.6222 9.92329C10.4514 9.79097 10.2626 9.64729 10.0545 9.48894Z" fill="black"/>
</svg>
