<svg width="24" height="24" viewBox="0 0 24 24" fill="none" xmlns="http://www.w3.org/2000/svg">
<path d="M21.2499 2C21.2499 1.58579 20.9141 1.25 20.4999 1.25C20.0857 1.25 19.7499 1.58579 19.7499 2V22C19.7499 22.4142 20.0857 22.75 20.4999 22.75C20.9141 22.75 21.2499 22.4142 21.2499 22V2Z" fill="black"/>
<path fill-rule="evenodd" clip-rule="evenodd" d="M14.7809 8.92134C15.3192 9.33096 15.7627 9.66842 16.0936 9.96974C16.4341 10.2798 16.7227 10.6098 16.8844 11.0262C17.1279 11.6533 17.1279 12.3467 16.8844 12.9738C16.7227 13.3902 16.4341 13.7202 16.0936 14.0303C15.7627 14.3316 15.3192 14.669 14.7809 15.0787L9.1297 19.3791C8.32167 19.994 7.67352 20.4873 7.13962 20.8222C6.60954 21.1546 6.06783 21.4147 5.48676 21.4087C4.64906 21.4 3.86028 21.019 3.3409 20.3721C2.98063 19.9234 2.85828 19.3426 2.80128 18.7266C2.74388 18.1061 2.74389 17.2998 2.7439 16.2946V7.70549C2.74389 6.70026 2.74388 5.89394 2.80128 5.27343C2.85828 4.65737 2.98063 4.07658 3.3409 3.62787C3.86028 2.98099 4.64906 2.59998 5.48676 2.59134C6.06783 2.58534 6.60954 2.84536 7.13962 3.17784C7.67352 3.51272 8.32167 4.00595 9.1297 4.62086L14.7809 8.92134ZM15.4721 11.5574C15.4317 11.4533 15.3384 11.3093 15.0667 11.0618C14.7909 10.8107 14.4012 10.5133 13.8284 10.0774L8.23602 5.82169C7.3896 5.17758 6.79581 4.72666 6.327 4.43261C5.84751 4.13186 5.62182 4.07797 5.50261 4.0792C5.12184 4.08313 4.7633 4.25632 4.52722 4.55035C4.4533 4.64241 4.35856 4.85108 4.30701 5.40834C4.25661 5.95319 4.25585 6.69131 4.25585 7.74427V16.2557C4.25585 17.3087 4.25661 18.0468 4.30701 18.5917C4.35856 19.1489 4.4533 19.3576 4.52722 19.4496C4.7633 19.7437 5.12184 19.9169 5.50261 19.9208C5.62182 19.922 5.84751 19.8681 6.32699 19.5674C6.79581 19.2733 7.3896 18.8224 8.23602 18.1783L13.8284 13.9226C14.4012 13.4867 14.7909 13.1893 15.0667 12.9382C15.3384 12.6907 15.4317 12.5467 15.4721 12.4426C15.5828 12.1576 15.5828 11.8424 15.4721 11.5574Z" fill="black"/>
</svg>
