<svg width="24" height="24" viewBox="0 0 24 24" fill="none" xmlns="http://www.w3.org/2000/svg">
<path fill-rule="evenodd" clip-rule="evenodd" d="M2.6675 9.43994C2.14552 9.83715 1.74038 10.1455 1.44305 10.4162C1.14247 10.69 0.929564 10.9448 0.813918 11.2426C0.624527 11.7303 0.624527 12.2696 0.813918 12.7573C0.929564 13.0551 1.14248 13.3099 1.44305 13.5836C1.74038 13.8544 2.14552 14.1627 2.6675 14.5599L6.33026 17.3472C7.10894 17.9398 7.70733 18.3951 8.19372 18.7002C8.67887 19.0045 9.0939 19.1871 9.50156 19.1829C10.1531 19.1762 10.7665 18.8798 11.1705 18.3767C11.4232 18.0619 11.5304 17.6271 11.5825 17.0633C11.6348 16.498 11.6348 15.7536 11.6348 14.7849L11.6348 9.21495C11.6348 8.24625 11.6348 7.50185 11.5825 6.93656C11.5304 6.37272 11.4232 5.93792 11.1705 5.62313C10.7665 5.12002 10.1531 4.82369 9.50156 4.81697C9.0939 4.81276 8.67887 4.99534 8.19372 5.29964C7.70733 5.60472 7.10894 6.06008 6.33026 6.65264L2.6675 9.43994ZM1.2847 11.4196C1.35991 11.2259 1.50769 11.0331 1.78536 10.7803C2.06436 10.5262 2.4517 10.2311 2.9859 9.82461L6.62741 7.05349C7.41948 6.45074 7.99986 6.00939 8.46459 5.7179C8.93288 5.42417 9.24257 5.3103 9.49627 5.31292C9.99548 5.31807 10.4655 5.54513 10.775 5.93062C10.9323 6.12653 11.0303 6.43729 11.0806 6.98153C11.1306 7.52164 11.1308 8.24345 11.1308 9.22881V14.7711C11.1308 15.7564 11.1306 16.4782 11.0806 17.0183C11.0303 17.5626 10.9323 17.8733 10.775 18.0692C10.4655 18.4547 9.99548 18.6818 9.49627 18.6869C9.24257 18.6896 8.93288 18.5757 8.46459 18.282C7.99986 17.9905 7.41948 17.5491 6.62741 16.9464L2.98591 14.1753C2.4517 13.7687 2.06436 13.4737 1.78536 13.2196C1.50769 12.9667 1.35991 12.7739 1.2847 12.5802C1.13958 12.2065 1.13958 11.7933 1.2847 11.4196Z" fill="black"/>
<path fill-rule="evenodd" clip-rule="evenodd" d="M14.7807 9.43994C14.2587 9.83715 13.8536 10.1455 13.5562 10.4162C13.2557 10.69 13.0428 10.9448 12.9271 11.2426C12.7377 11.7303 12.7377 12.2696 12.9271 12.7573C13.0428 13.0551 13.2557 13.3099 13.5562 13.5836C13.8536 13.8544 14.2587 14.1627 14.7807 14.5599L18.4434 17.3472C19.2221 17.9398 19.8205 18.3951 20.3069 18.7002C20.7921 19.0045 21.2071 19.1871 21.6147 19.1829C22.2663 19.1762 22.8797 18.8798 23.2837 18.3767C23.5364 18.0619 23.6435 17.6271 23.6957 17.0633C23.748 16.498 23.748 15.7536 23.748 14.7849V9.21496C23.748 8.24625 23.748 7.50185 23.6957 6.93656C23.6435 6.37272 23.5364 5.93792 23.2837 5.62313C22.8797 5.12002 22.2663 4.82369 21.6147 4.81697C21.2071 4.81276 20.7921 4.99534 20.3069 5.29964C19.8205 5.60472 19.2221 6.06008 18.4435 6.65264L14.7807 9.43994ZM13.3979 11.4196C13.4731 11.2259 13.6209 11.0331 13.8985 10.7803C14.1775 10.5262 14.5649 10.2311 15.0991 9.82461L18.7406 7.05349C19.5327 6.45074 20.1131 6.00939 20.5778 5.7179C21.0461 5.42418 21.3558 5.31031 21.6095 5.31292C22.1087 5.31807 22.5787 5.54513 22.8882 5.93062C23.0455 6.12653 23.1434 6.43729 23.1938 6.98153C23.2438 7.52164 23.244 8.24346 23.244 9.22881V14.7711C23.244 15.7564 23.2438 16.4782 23.1938 17.0183C23.1434 17.5626 23.0455 17.8733 22.8882 18.0692C22.5787 18.4547 22.1087 18.6818 21.6095 18.6869C21.3558 18.6896 21.0461 18.5757 20.5778 18.282C20.1131 17.9905 19.5327 17.5491 18.7406 16.9464L15.0991 14.1753C14.5649 13.7687 14.1775 13.4737 13.8985 13.2196C13.6209 12.9667 13.4731 12.7739 13.3979 12.5802C13.2528 12.2066 13.2528 11.7933 13.3979 11.4196Z" fill="black"/>
</svg>
