<svg width="24" height="24" viewBox="0 0 24 24" fill="none" xmlns="http://www.w3.org/2000/svg">
<path d="M2.99988 19C2.72374 19 2.49988 19.2238 2.49988 19.5C2.49988 19.7761 2.72374 20 2.99988 20H20.9999C21.276 20 21.4999 19.7761 21.4999 19.5C21.4999 19.2238 21.276 19 20.9999 19H2.99988Z" fill="black"/>
<path fill-rule="evenodd" clip-rule="evenodd" d="M9.11108 5.38142C9.52611 4.83602 9.85786 4.40007 10.1516 4.07748C10.4513 3.74842 10.7503 3.49233 11.1146 3.35084C11.6847 3.12947 12.3151 3.12947 12.8851 3.35084C13.2495 3.49233 13.5485 3.74842 13.8481 4.07748C14.1419 4.40007 14.4736 4.83602 14.8887 5.38142L19.1755 11.0147C19.7966 11.8309 20.2841 12.4716 20.6129 12.9957C20.9401 13.5174 21.1658 14.0064 21.1606 14.5105C21.1527 15.272 20.8063 15.9891 20.2183 16.4613C19.829 16.7738 19.3102 16.8916 18.704 16.9476C18.0948 17.004 17.2978 17.004 16.2824 17.004H7.71735C6.7019 17.004 5.90498 17.004 5.29579 16.9476C4.68953 16.8916 4.17076 16.7738 3.78149 16.4613C3.19343 15.9891 2.84705 15.272 2.83919 14.5105C2.83399 14.0064 3.05965 13.5174 3.38685 12.9957C3.71562 12.4715 4.20311 11.8309 4.82428 11.0147L9.11108 5.38142ZM11.4687 4.2924C11.3126 4.35301 11.1376 4.47885 10.8797 4.76208C10.6193 5.04798 10.3142 5.4482 9.88112 6.0173L5.62539 11.6097C4.98431 12.4522 4.52493 13.0567 4.22336 13.5375C3.91732 14.0254 3.82908 14.3037 3.8311 14.4999C3.83582 14.9568 4.04364 15.3871 4.39648 15.6704C4.54799 15.792 4.81867 15.8914 5.38573 15.9438C5.94452 15.9955 6.69613 15.996 7.74415 15.996H16.2556C17.3036 15.996 18.0552 15.9955 18.614 15.9438C19.1811 15.8914 19.4518 15.792 19.6033 15.6704C19.9561 15.3871 20.1639 14.9568 20.1687 14.4999C20.1707 14.3037 20.0824 14.0254 19.7764 13.5375C19.4748 13.0567 19.0155 12.4522 18.3744 11.6097L14.1186 6.0173C13.6856 5.4482 13.3804 5.04798 13.1201 4.76208C12.8621 4.47885 12.6871 4.35301 12.531 4.2924C12.189 4.15958 11.8108 4.15958 11.4687 4.2924Z" fill="black"/>
</svg>
