<svg width="24" height="24" viewBox="0 0 24 24" fill="none" xmlns="http://www.w3.org/2000/svg">
<path fill-rule="evenodd" clip-rule="evenodd" d="M0.123117 8.43565C0 9.21298 0 10.142 0 12C0 13.858 0 14.787 0.123117 15.5643C0.800832 19.8433 4.15673 23.1992 8.43565 23.8769C9.21298 24 10.142 24 12 24C13.858 24 14.787 24 15.5643 23.8769C19.8433 23.1992 23.1992 19.8433 23.8769 15.5643C24 14.787 24 13.858 24 12C24 10.142 24 9.21298 23.8769 8.43565C23.1992 4.15673 19.8433 0.800832 15.5643 0.123117C14.787 0 13.858 0 12 0C10.142 0 9.21298 0 8.43565 0.123117C4.15673 0.800832 0.800832 4.15673 0.123117 8.43565ZM9 6.08333C9 5.80719 9.22386 5.58333 9.5 5.58333C9.77614 5.58333 10 5.80719 10 6.08333V17.9167C10 18.1928 9.77614 18.4167 9.5 18.4167C9.22386 18.4167 9 18.1928 9 17.9167V6.08333ZM14 6.08333C14 5.80719 14.2239 5.58333 14.5 5.58333C14.7761 5.58333 15 5.80719 15 6.08333V17.9167C15 18.1928 14.7761 18.4167 14.5 18.4167C14.2239 18.4167 14 18.1928 14 17.9167V6.08333Z" fill="black"/>
</svg>
