<svg width="26" height="24" viewBox="0 0 26 24" fill="none" xmlns="http://www.w3.org/2000/svg">
<path d="M21.1188 4.17783C21.0108 4.31425 21.0108 4.577 21.0108 5.10251V5.73828L17.8842 5.73825C17.084 5.73796 16.5025 5.73775 15.9926 5.83916C15.2342 5.99003 14.536 6.30188 13.9348 6.73805C14.4848 7.37426 14.9131 8.11898 15.185 8.93726C15.5438 8.61668 15.9878 8.3891 16.4803 8.29112C16.7156 8.24434 17.0276 8.23828 18.0168 8.23828H21.0108V8.89766C21.0108 9.42316 21.0108 9.68592 21.1188 9.82234C21.2128 9.94101 21.3555 10.0107 21.5069 10.0119C21.6809 10.0132 21.8881 9.85169 22.3026 9.52861L23.9579 8.23828H24.0168V8.19233L24.7369 7.63103C25.0127 7.416 25.1507 7.30849 25.2004 7.17784C25.2439 7.06334 25.2439 6.93683 25.2004 6.82232C25.1507 6.69168 25.0127 6.58416 24.7369 6.36913L24.0168 5.80784V5.73828H23.9276L22.3026 4.47156C21.8881 4.14848 21.6809 3.98694 21.5069 3.98829C21.3555 3.98946 21.2128 4.05916 21.1188 4.17783Z" fill="black"/>
<path d="M8.01685 8.23828C9.00607 8.23828 9.31813 8.24434 9.55334 8.29112C10.6442 8.50812 11.497 9.36088 11.714 10.4518C11.7608 10.687 11.7668 10.9991 11.7668 11.9883L11.7668 12.1209C11.7665 12.9212 11.7663 13.5027 11.8677 14.0125C12.282 16.0951 13.91 17.7231 15.9926 18.1374C16.5025 18.2388 17.084 18.2386 17.8842 18.2383L21.0108 18.2383V18.8976C21.0108 19.4231 21.0108 19.6859 21.1188 19.8223C21.2128 19.941 21.3555 20.0107 21.5069 20.0119C21.6809 20.0132 21.8881 19.8517 22.3026 19.5286L23.9579 18.2383H24.0168V18.1923L24.7369 17.631C25.0127 17.416 25.1507 17.3085 25.2004 17.1778C25.2439 17.0633 25.2439 16.9368 25.2004 16.8223C25.1507 16.6917 25.0127 16.5841 24.7369 16.3691L24.0168 15.8078V15.7383H23.9276L22.3026 14.4715C21.8881 14.1485 21.6809 13.9869 21.5069 13.9883C21.3555 13.9894 21.2128 14.0591 21.1188 14.1778C21.0108 14.3142 21.0108 14.577 21.0108 15.1025V15.7383H18.0168C17.0276 15.7383 16.7156 15.7322 16.4803 15.6854C15.3894 15.4684 14.5367 14.6157 14.3197 13.5248C14.2729 13.2896 14.2668 12.9775 14.2668 11.9883L14.2669 11.8557C14.2672 11.0554 14.2674 10.4739 14.166 9.96406C13.7517 7.88143 12.1237 6.25342 10.0411 5.83916C9.53123 5.73775 8.94974 5.73796 8.14945 5.73825L2.01685 5.73828C1.32649 5.73828 0.766846 6.29793 0.766846 6.98828C0.766846 7.67864 1.32649 8.23828 2.01685 8.23828H8.01685Z" fill="black"/>
<path d="M10.8487 15.0393C10.4899 15.3599 10.0459 15.5875 9.55334 15.6854C9.31813 15.7322 9.00607 15.7383 8.01685 15.7383H2.01685C1.32649 15.7383 0.766846 16.2979 0.766846 16.9883C0.766846 17.6786 1.32649 18.2383 2.01685 18.2383L8.14945 18.2383C8.94974 18.2386 9.53123 18.2388 10.0411 18.1374C10.7995 17.9865 11.4977 17.6747 12.0989 17.2385C11.5489 16.6023 11.1206 15.8576 10.8487 15.0393Z" fill="black"/>
</svg>
