<svg width="24" height="24" viewBox="0 0 24 24" fill="none" xmlns="http://www.w3.org/2000/svg">
<path fill-rule="evenodd" clip-rule="evenodd" d="M5.0893 1.75C4.81835 1.75 4.59981 1.75 4.42284 1.76445C4.24063 1.77934 4.08058 1.8108 3.93251 1.88624C3.69731 2.00608 3.50608 2.19731 3.38624 2.43251C3.3108 2.58058 3.27934 2.74063 3.26445 2.92284C3.25 3.09981 3.25 3.31835 3.25 3.5893V20.4107C3.25 20.6816 3.25 20.9002 3.26445 21.0772C3.27934 21.2594 3.3108 21.4194 3.38624 21.5675C3.50608 21.8027 3.69731 21.9939 3.93251 22.1138C4.08058 22.1892 4.24063 22.2207 4.42284 22.2355C4.59981 22.25 4.81834 22.25 5.08927 22.25H7.91071C8.18164 22.25 8.40019 22.25 8.57716 22.2355C8.75937 22.2207 8.91942 22.1892 9.06749 22.1138C9.30269 21.9939 9.49392 21.8027 9.61376 21.5675C9.68921 21.4194 9.72066 21.2594 9.73555 21.0772C9.75 20.9002 9.75 20.6817 9.75 20.4107V3.58929C9.75 3.31836 9.75 3.09981 9.73555 2.92284C9.72066 2.74063 9.68921 2.58058 9.61376 2.43251C9.49392 2.19731 9.30269 2.00608 9.06749 1.88624C8.91942 1.8108 8.75937 1.77934 8.57716 1.76445C8.40019 1.75 8.18165 1.75 7.9107 1.75H5.0893ZM4.15951 2.33175C4.22535 2.2982 4.31227 2.27516 4.46356 2.26279C4.61777 2.25019 4.81585 2.25 5.1 2.25H7.9C8.18415 2.25 8.38223 2.25019 8.53644 2.26279C8.68773 2.27516 8.77465 2.2982 8.84049 2.33175C8.98161 2.40365 9.09635 2.51839 9.16825 2.65951C9.2018 2.72535 9.22484 2.81227 9.23721 2.96356C9.24981 3.11777 9.25 3.31585 9.25 3.6V20.4C9.25 20.6842 9.24981 20.8822 9.23721 21.0364C9.22484 21.1877 9.2018 21.2747 9.16825 21.3405C9.09635 21.4816 8.98161 21.5963 8.84049 21.6683C8.77465 21.7018 8.68773 21.7248 8.53644 21.7372C8.38223 21.7498 8.18415 21.75 7.9 21.75H5.1C4.81585 21.75 4.61777 21.7498 4.46356 21.7372C4.31227 21.7248 4.22535 21.7018 4.15951 21.6683C4.01839 21.5963 3.90365 21.4816 3.83175 21.3405C3.7982 21.2747 3.77516 21.1877 3.76279 21.0364C3.75019 20.8822 3.75 20.6842 3.75 20.4V3.6C3.75 3.31585 3.75019 3.11777 3.76279 2.96356C3.77516 2.81227 3.7982 2.72535 3.83175 2.65951C3.90365 2.51839 4.01839 2.40365 4.15951 2.33175Z" fill="black"/>
<path fill-rule="evenodd" clip-rule="evenodd" d="M16.0893 1.75C15.8184 1.75 15.5998 1.75 15.4228 1.76445C15.2406 1.77934 15.0806 1.8108 14.9325 1.88624C14.6973 2.00608 14.5061 2.19731 14.3862 2.43251C14.3108 2.58058 14.2793 2.74063 14.2645 2.92284C14.25 3.09981 14.25 3.31835 14.25 3.5893V20.4107C14.25 20.6816 14.25 20.9002 14.2645 21.0772C14.2793 21.2594 14.3108 21.4194 14.3862 21.5675C14.5061 21.8027 14.6973 21.9939 14.9325 22.1138C15.0806 22.1892 15.2406 22.2207 15.4228 22.2355C15.5998 22.25 15.8183 22.25 16.0893 22.25H18.9107C19.1816 22.25 19.4002 22.25 19.5772 22.2355C19.7594 22.2207 19.9194 22.1892 20.0675 22.1138C20.3027 21.9939 20.4939 21.8027 20.6138 21.5675C20.6892 21.4194 20.7207 21.2594 20.7355 21.0772C20.75 20.9002 20.75 20.6817 20.75 20.4108V3.58929C20.75 3.31841 20.75 3.09978 20.7355 2.92284C20.7207 2.74063 20.6892 2.58058 20.6138 2.43251C20.4939 2.19731 20.3027 2.00608 20.0675 1.88624C19.9194 1.8108 19.7594 1.77934 19.5772 1.76445C19.4002 1.75 19.1816 1.75 18.9107 1.75H16.0893ZM15.1595 2.33175C15.2253 2.2982 15.3123 2.27516 15.4636 2.26279C15.6178 2.25019 15.8158 2.25 16.1 2.25H18.9C19.1842 2.25 19.3822 2.25019 19.5364 2.26279C19.6877 2.27516 19.7747 2.2982 19.8405 2.33175C19.9816 2.40365 20.0963 2.51839 20.1683 2.65951C20.2018 2.72535 20.2248 2.81227 20.2372 2.96356C20.2498 3.11777 20.25 3.31585 20.25 3.6V20.4C20.25 20.6842 20.2498 20.8822 20.2372 21.0364C20.2248 21.1877 20.2018 21.2747 20.1683 21.3405C20.0963 21.4816 19.9816 21.5963 19.8405 21.6683C19.7747 21.7018 19.6877 21.7248 19.5364 21.7372C19.3822 21.7498 19.1842 21.75 18.9 21.75H16.1C15.8158 21.75 15.6178 21.7498 15.4636 21.7372C15.3123 21.7248 15.2253 21.7018 15.1595 21.6683C15.0184 21.5963 14.9037 21.4816 14.8317 21.3405C14.7982 21.2747 14.7752 21.1877 14.7628 21.0364C14.7502 20.8822 14.75 20.6842 14.75 20.4V3.6C14.75 3.31585 14.7502 3.11777 14.7628 2.96356C14.7752 2.81227 14.7982 2.72535 14.8317 2.65951C14.9037 2.51839 15.0184 2.40365 15.1595 2.33175Z" fill="black"/>
</svg>
