<svg width="24" height="24" viewBox="0 0 24 24" fill="none" xmlns="http://www.w3.org/2000/svg">
<path d="M2.99976 18.9991C2.44747 18.9991 1.99976 19.4468 1.99976 19.9991C1.99976 20.5514 2.44747 20.9991 2.99976 20.9991H20.9998C21.552 20.9991 21.9998 20.5514 21.9998 19.9991C21.9998 19.4468 21.552 18.9991 20.9998 18.9991H2.99976Z" fill="black"/>
<path fill-rule="evenodd" clip-rule="evenodd" d="M8.73065 4.55638C9.13532 4.02458 9.47859 3.57346 9.78748 3.23428C10.108 2.88231 10.469 2.56108 10.9374 2.37917C11.6215 2.11352 12.378 2.11352 13.0621 2.37917C13.5306 2.56108 13.8915 2.88231 14.212 3.23428C14.5209 3.57346 14.8642 4.02458 15.2689 4.55638L19.5819 10.2241C20.191 11.0244 20.69 11.6803 21.031 12.2239C21.3688 12.7624 21.6632 13.3568 21.6564 14.0149C21.647 14.9287 21.2313 15.7892 20.5256 16.3558C20.0175 16.7638 19.3747 16.8908 18.7488 16.9487C18.117 17.0071 17.3011 17.0071 16.3055 17.0071H7.69407C6.69842 17.0071 5.88257 17.0071 5.2507 16.9487C4.62484 16.8908 3.98203 16.7638 3.47388 16.3558C2.76819 15.7892 2.35254 14.9287 2.34311 14.0149C2.33632 13.3568 2.6307 12.7624 2.96847 12.2239C3.30948 11.6803 3.80855 11.0245 4.4176 10.2241L8.73065 4.55638ZM11.6456 4.26228C11.5937 4.28246 11.4807 4.34317 11.2436 4.60348C11.0017 4.86914 10.712 5.24825 10.2734 5.8247L6.01763 11.4171C5.3705 12.2675 4.92802 12.8506 4.64149 13.3074C4.34603 13.7785 4.3265 13.9515 4.32694 13.9937C4.33008 14.2984 4.46863 14.5852 4.70386 14.7741C4.73648 14.8002 4.88312 14.8904 5.43058 14.941C5.9615 14.9901 6.68612 14.9911 7.74403 14.9911H16.2555C17.3134 14.9911 18.038 14.9901 18.5689 14.941C19.1164 14.8904 19.263 14.8002 19.2957 14.7741C19.5309 14.5852 19.6694 14.2984 19.6726 13.9937C19.673 13.9515 19.6535 13.7785 19.358 13.3074C19.0715 12.8506 18.629 12.2675 17.9819 11.4171L13.7262 5.8247C13.2875 5.24825 12.9978 4.86914 12.7559 4.60348C12.5188 4.34317 12.4058 4.28246 12.3539 4.26228C12.1258 4.17374 11.8737 4.17374 11.6456 4.26228Z" fill="black"/>
</svg>
