<svg width="24" height="24" viewBox="0 0 24 24" fill="none" xmlns="http://www.w3.org/2000/svg">
<path d="M12.125 0.801758C15.0278 0.801758 17.6748 1.89583 19.6777 3.69043L20.8975 2.54199L21.3721 7.31348L16.6367 6.55469L17.8477 5.41309C16.306 4.09707 14.3093 3.30176 12.125 3.30176C7.25206 3.30176 3.30176 7.25206 3.30176 12.125C3.30176 16.9979 7.25206 20.9482 12.125 20.9482C16.9979 20.9482 20.9482 16.9979 20.9482 12.125C20.9482 11.4347 21.5079 10.875 22.1982 10.875C22.8886 10.875 23.4482 11.4346 23.4482 12.125C23.4482 18.3787 18.3787 23.4482 12.125 23.4482C5.87135 23.4482 0.80176 18.3787 0.801758 12.125C0.801761 5.87135 5.87135 0.801761 12.125 0.801758Z" fill="black"/>
<path d="M11.1338 6.86523C11.3697 6.86292 11.5973 6.96814 11.835 7.11719C12.0763 7.26859 12.3719 7.49378 12.7471 7.7793L16.5361 10.6621C16.7877 10.8536 16.9894 11.0076 17.1387 11.1436C17.2893 11.2807 17.4085 11.4195 17.4746 11.5898C17.5772 11.854 17.5771 12.146 17.4746 12.4102C17.4085 12.5805 17.2893 12.7203 17.1387 12.8574C16.9895 12.9933 16.7875 13.1466 16.5361 13.3379L12.7471 16.2207C12.3717 16.5063 12.0764 16.7323 11.835 16.8838C11.5973 17.0328 11.3697 17.1381 11.1338 17.1357C10.781 17.132 10.4483 16.9706 10.2295 16.6982C10.0834 16.516 10.0285 16.2742 10.0029 15.998C9.97702 15.7176 9.97754 15.3502 9.97754 14.8838V9.11719C9.97754 8.65028 9.97697 8.28255 10.0029 8.00195C10.0285 7.72562 10.0832 7.48404 10.2295 7.30176C10.4483 7.02939 10.781 6.86902 11.1338 6.86523Z" fill="black"/>
</svg>
