<svg width="25" height="24" viewBox="0 0 25 24" fill="none" xmlns="http://www.w3.org/2000/svg">
<path d="M20.102 4.17771C19.9939 4.31413 19.9939 4.57688 19.9939 5.10239V5.98816L16.8842 5.98814C16.0666 5.98794 15.5094 5.9878 15.0245 6.08423C14.3078 6.2268 13.6477 6.52029 13.0781 6.93061C13.4968 7.45442 13.8361 8.04491 14.0783 8.68441C14.4556 8.36957 14.912 8.1458 15.4147 8.0458C15.6802 7.993 16.0228 7.98816 17 7.98816H19.9939V8.89753C19.9939 9.42304 19.9939 9.6858 20.102 9.82222C20.196 9.94089 20.3387 10.0106 20.4901 10.0118C20.6641 10.0131 20.8713 9.85156 21.2858 9.52848L23.7201 7.63091C23.9959 7.41588 24.1338 7.30837 24.1835 7.17772C24.2271 7.06322 24.2271 6.93671 24.1835 6.8222C24.1338 6.69155 23.9959 6.58404 23.7201 6.36901L21.2858 4.47144C20.8713 4.14836 20.6641 3.98682 20.4901 3.98817C20.3387 3.98934 20.196 4.05904 20.102 4.17771Z" fill="black"/>
<path d="M7 7.98816C7.97724 7.98816 8.31982 7.993 8.58527 8.0458C9.77534 8.28252 10.7056 9.21282 10.9424 10.4029C10.9952 10.6683 11 11.0109 11 11.9882L11 12.1039C10.9998 12.9215 10.9996 13.4788 11.0961 13.9636C11.4906 15.9471 13.0411 17.4976 15.0245 17.8921C15.5094 17.9885 16.0666 17.9884 16.8842 17.9882L19.9939 17.9882V18.8975C19.9939 19.423 19.9939 19.6858 20.102 19.8222C20.196 19.9409 20.3387 20.0106 20.4901 20.0117C20.6641 20.0131 20.8713 19.8515 21.2858 19.5285L23.7201 17.6309C23.9959 17.4159 24.1338 17.3084 24.1835 17.1777C24.2271 17.0632 24.2271 16.9367 24.1835 16.8222C24.1338 16.6915 23.9959 16.584 23.7201 16.369L21.2858 14.4714C20.8713 14.1483 20.6641 13.9868 20.4901 13.9882C20.3387 13.9893 20.196 14.059 20.102 14.1777C19.9939 14.3141 19.9939 14.5769 19.9939 15.1024V15.9882H17C16.0228 15.9882 15.6802 15.9833 15.4147 15.9305C14.2247 15.6938 13.2944 14.7635 13.0576 13.5734C13.0048 13.308 13 12.9654 13 11.9882L13 11.8724C13.0002 11.0548 13.0004 10.4975 12.9039 10.0127C12.5094 8.02926 10.9589 6.47877 8.97545 6.08423C8.49065 5.9878 7.93336 5.98794 7.11576 5.98814L1 5.98816C0.447715 5.98816 0 6.43588 0 6.98816C0 7.54044 0.447715 7.98816 1 7.98816H7Z" fill="black"/>
<path d="M9.92168 15.2919C9.54436 15.6068 9.088 15.8305 8.58527 15.9305C8.31982 15.9833 7.97724 15.9882 7 15.9882H1C0.447715 15.9882 0 16.4359 0 16.9882C0 17.5404 0.447715 17.9882 1 17.9882L7.11576 17.9882C7.93334 17.9884 8.49066 17.9885 8.97545 17.8921C9.69217 17.7495 10.3524 17.456 10.9219 17.0457C10.5032 16.5219 10.1639 15.9314 9.92168 15.2919Z" fill="black"/>
</svg>
