<svg width="24" height="24" viewBox="0 0 24 24" fill="none" xmlns="http://www.w3.org/2000/svg">
<path d="M13.7877 9.48845L17.6436 6.5542C19.3125 5.28412 20.147 4.64909 20.8473 4.65631C21.4566 4.6626 22.0302 4.9397 22.408 5.41015C22.8421 5.95092 22.8421 6.98905 22.8421 9.06531V14.9338C22.8421 17.0101 22.8421 18.0482 22.408 18.589C22.0302 19.0595 21.4566 19.3366 20.8473 19.3428C20.147 19.3501 19.3125 18.715 17.6436 17.445L13.7877 14.5107C13.5796 14.3524 13.3908 14.2087 13.2199 14.0763C12.8354 13.7785 12.0746 14.0984 12.0746 14.5849V14.9338C12.0746 17.0101 12.0746 18.0482 11.6404 18.589C11.2626 19.0595 10.689 19.3366 10.0798 19.3428C9.37946 19.3501 8.54497 18.715 6.87598 17.445L3.02009 14.5107C1.89656 13.6557 1.3348 13.2282 1.1327 12.7078C0.955604 12.2517 0.955604 11.7474 1.1327 11.2914C1.3348 10.7709 1.89656 10.3434 3.02009 9.48846L6.87597 6.5542C8.54496 5.28413 9.37946 4.64909 10.0798 4.65631C10.689 4.6626 11.2626 4.9397 11.6404 5.41016C12.0746 5.95093 12.0746 6.98905 12.0746 9.06531V9.41429C12.0746 9.9007 12.8354 10.2207 13.2199 9.9228C13.3908 9.79048 13.5796 9.6468 13.7877 9.48845Z" fill="black"/>
</svg>
