<svg width="24" height="24" viewBox="0 0 24 24" fill="none" xmlns="http://www.w3.org/2000/svg">
<path d="M22.9939 10C22.4416 10 21.9939 10.4477 21.9939 11V11.6C21.9939 12.7366 21.9931 13.5289 21.9427 14.1458C21.8933 14.7509 21.8011 15.0986 21.6669 15.362C21.3793 15.9265 20.9204 16.3854 20.3559 16.673C20.0925 16.8072 19.7448 16.8994 19.1397 16.9488C18.5228 16.9992 17.7305 17 16.5939 17H7.40811L8.701 15.7071C9.09153 15.3166 9.09153 14.6834 8.701 14.2929C8.31048 13.9024 7.67731 13.9024 7.28679 14.2929L4.30752 17.2722C3.90555 17.6741 3.90554 18.3259 4.30752 18.7278L7.28679 21.7071C7.67731 22.0976 8.31048 22.0976 8.701 21.7071C9.09153 21.3166 9.09153 20.6834 8.701 20.2929L7.40811 19H16.6367C17.7205 19 18.5946 19 19.3025 18.9422C20.0314 18.8826 20.6716 18.7568 21.2638 18.455C22.2047 17.9757 22.9696 17.2108 23.4489 16.27C23.7507 15.6777 23.8765 15.0375 23.9361 14.3086C23.9939 13.6007 23.9939 12.7266 23.9939 11.6428V11C23.9939 10.4477 23.5462 10 22.9939 10Z" fill="black"/>
<path d="M1.0061 14C1.55839 14 2.0061 13.5523 2.0061 13V12.4C2.0061 11.2634 2.00688 10.4711 2.05728 9.85424C2.10672 9.24907 2.1989 8.90138 2.33309 8.63803C2.62071 8.07354 3.07965 7.6146 3.64413 7.32698C3.90749 7.1928 4.25518 7.10062 4.86034 7.05118C5.47719 7.00078 6.2695 7 7.40611 7H16.5919L15.299 8.29289C14.9085 8.68342 14.9085 9.31658 15.299 9.70711C15.6895 10.0976 16.3227 10.0976 16.7132 9.70711L19.6925 6.72784C20.0944 6.32587 20.0945 5.67414 19.6925 5.27216L16.7132 2.29289C16.3227 1.90237 15.6895 1.90237 15.299 2.29289C14.9085 2.68342 14.9085 3.31658 15.299 3.70711L16.5919 5H7.36332C6.27953 4.99999 5.40537 4.99998 4.69748 5.05782C3.96863 5.11737 3.32844 5.24318 2.73615 5.54497C1.79534 6.02433 1.03044 6.78924 0.551072 7.73005C0.249284 8.32234 0.123472 8.96253 0.0639223 9.69138C0.00608655 10.3993 0.00609423 11.2734 0.00610376 12.3572V13C0.00610376 13.5523 0.45382 14 1.0061 14Z" fill="black"/>
</svg>
