<svg width="24" height="24" viewBox="0 0 24 24" fill="none" xmlns="http://www.w3.org/2000/svg">
<path fill-rule="evenodd" clip-rule="evenodd" d="M23.8769 8.43565C24 9.21298 24 10.142 24 12C24 13.858 24 14.787 23.8769 15.5643C23.1992 19.8433 19.8433 23.1992 15.5643 23.8769C14.787 24 13.858 24 12 24C10.142 24 9.21298 24 8.43565 23.8769C4.15673 23.1992 0.800833 19.8433 0.123117 15.5643C0 14.787 0 13.858 0 12C0 10.142 0 9.21298 0.123117 8.43565C0.800833 4.15673 4.15673 0.800832 8.43565 0.123117C9.21298 0 10.142 0 12 0C13.858 0 14.787 0 15.5643 0.123117C19.8433 0.800832 23.1992 4.15673 23.8769 8.43565ZM15.7917 7.04167C15.7917 6.76987 15.7917 6.63397 15.8361 6.52677C15.8953 6.38383 16.0089 6.27028 16.1518 6.21107C16.259 6.16667 16.3949 6.16667 16.6667 6.16667C16.9385 6.16667 17.0744 6.16667 17.1816 6.21107C17.3245 6.27028 17.4381 6.38383 17.4973 6.52677C17.5417 6.63397 17.5417 6.76987 17.5417 7.04167V16.9583C17.5417 17.2301 17.5417 17.366 17.4973 17.4732C17.4381 17.6162 17.3245 17.7297 17.1816 17.7889C17.0744 17.8333 16.9385 17.8333 16.6667 17.8333C16.3949 17.8333 16.259 17.8333 16.1518 17.7889C16.0089 17.7297 15.8953 17.6162 15.8361 17.4732C15.7917 17.366 15.7917 17.2301 15.7917 16.9583V7.04167ZM9.90089 7.92081L13.4464 10.6189C14.0644 11.0891 14.3733 11.3243 14.4845 11.6105C14.5819 11.8613 14.5819 12.1387 14.4845 12.3895C14.3733 12.6758 14.0644 12.9109 13.4464 13.3811L9.90089 16.0792C8.98294 16.7777 8.52397 17.127 8.13881 17.123C7.80373 17.1196 7.48822 16.9672 7.28047 16.7084C7.04167 16.411 7.04167 15.84 7.04167 14.6981V9.30193C7.04167 8.15999 7.04167 7.58902 7.28047 7.29159C7.48822 7.03284 7.80373 6.88043 8.13881 6.87698C8.52397 6.873 8.98295 7.22228 9.90089 7.92081Z" fill="black"/>
</svg>
