<svg width="24" height="24" viewBox="0 0 24 24" fill="none" xmlns="http://www.w3.org/2000/svg">
<path fill-rule="evenodd" clip-rule="evenodd" d="M23.8769 8.43565C24 9.21298 24 10.142 24 12C24 13.858 24 14.787 23.8769 15.5643C23.1992 19.8433 19.8433 23.1992 15.5643 23.8769C14.787 24 13.858 24 12 24C10.142 24 9.21298 24 8.43565 23.8769C4.15673 23.1992 0.800833 19.8433 0.123117 15.5643C0 14.787 0 13.858 0 12C0 10.142 0 9.21298 0.123117 8.43565C0.800833 4.15673 4.15673 0.800832 8.43565 0.123117C9.21298 0 10.142 0 12 0C13.858 0 14.787 0 15.5643 0.123117C19.8433 0.800832 23.1992 4.15673 23.8769 8.43565ZM6.50016 16.3754C6.50016 16.2374 6.61209 16.1254 6.75016 16.1254H17.2502C17.3882 16.1254 17.5002 16.2374 17.5002 16.3754C17.5002 16.5135 17.3882 16.6254 17.2502 16.6254H6.75016C6.61209 16.6254 6.50016 16.5135 6.50016 16.3754ZM8.05283 11.593L10.5353 8.33071C11.0341 7.67532 11.2835 7.34762 11.587 7.22973C11.8531 7.12642 12.1473 7.12642 12.4133 7.22973C12.7169 7.34762 12.9662 7.67531 13.465 8.33071L15.9475 11.593C16.6884 12.5665 17.0588 13.0533 17.0546 13.4618C17.0509 13.8172 16.8893 14.1518 16.6148 14.3722C16.2994 14.6255 15.6938 14.6255 14.4827 14.6255L9.51765 14.6255C8.3065 14.6255 7.70093 14.6255 7.38548 14.3722C7.11105 14.1518 6.9494 13.8172 6.94574 13.4618C6.94152 13.0533 7.31196 12.5665 8.05283 11.593Z" fill="black"/>
</svg>
