<svg width="24" height="24" viewBox="0 0 24 24" fill="none" xmlns="http://www.w3.org/2000/svg">
<path d="M3 19.2499C2.86193 19.2499 2.75 19.3618 2.75 19.4999C2.75 19.638 2.86193 19.7499 3 19.7499H21C21.1381 19.7499 21.25 19.638 21.25 19.4999C21.25 19.3618 21.1381 19.2499 21 19.2499H3Z" fill="black"/>
<path d="M9.48888 5.70893L5.23315 11.3013C3.96308 12.9703 3.32804 13.8048 3.33527 14.5051C3.34155 15.1144 3.61866 15.688 4.08911 16.0658C4.62988 16.4999 5.66801 16.4999 7.74426 16.4999H16.2557C18.332 16.4999 19.3701 16.4999 19.9109 16.0658C20.3813 15.688 20.6584 15.1144 20.6647 14.5051C20.672 13.8048 20.0369 12.9703 18.7669 11.3014L14.5111 5.70893C13.6561 4.5854 13.2286 4.02364 12.7082 3.82154C12.2522 3.64445 11.7478 3.64445 11.2918 3.82154C10.7714 4.02364 10.3439 4.5854 9.48888 5.70893Z" fill="black"/>
</svg>
