<svg width="24" height="24" viewBox="0 0 24 24" fill="none" xmlns="http://www.w3.org/2000/svg">
<path d="M22.9937 10.25C22.5794 10.25 22.2437 10.5858 22.2437 11V11.6C22.2437 12.7325 22.2431 13.5367 22.1916 14.1661C22.1409 14.7867 22.0446 15.171 21.8894 15.4755C21.5778 16.087 21.0806 16.5842 20.4691 16.8958C20.1646 17.0509 19.7804 17.1473 19.1598 17.198C18.5304 17.2494 17.7261 17.25 16.5937 17.25H6.80431L8.52398 15.5303C8.81688 15.2374 8.81688 14.7626 8.52398 14.4697C8.23109 14.1768 7.75622 14.1768 7.46332 14.4697L4.48406 17.4489C4.17971 17.7533 4.17971 18.2467 4.48406 18.5511L7.46332 21.5303C7.75622 21.8232 8.23109 21.8232 8.52398 21.5303C8.81688 21.2374 8.81688 20.7626 8.52398 20.4697L6.80431 18.75H16.6266C17.7188 18.75 18.5843 18.75 19.2819 18.693C19.9953 18.6347 20.5989 18.5131 21.1501 18.2323C22.0439 17.7769 22.7705 17.0502 23.2259 16.1565C23.5068 15.6053 23.6284 15.0017 23.6867 14.2883C23.7437 13.5906 23.7437 12.7251 23.7437 11.633V11C23.7437 10.5858 23.4079 10.25 22.9937 10.25Z" fill="black"/>
<path d="M1.00586 13.75C1.42007 13.75 1.75586 13.4142 1.75586 13V12.4C1.75586 11.2675 1.75644 10.4633 1.80787 9.83388C1.85857 9.21325 1.95495 8.829 2.11009 8.52453C2.42168 7.913 2.91886 7.41582 3.53039 7.10423C3.83486 6.94909 4.21911 6.85271 4.83974 6.80201C5.46912 6.75058 6.27338 6.75 7.40586 6.75H17.1952L15.4755 8.46967C15.1826 8.76256 15.1826 9.23744 15.4755 9.53033C15.7684 9.82322 16.2433 9.82322 16.5362 9.53033L19.5155 6.55106C19.8198 6.24672 19.8198 5.75328 19.5155 5.44894L16.5362 2.46967C16.2433 2.17678 15.7684 2.17678 15.4755 2.46967C15.1826 2.76256 15.1826 3.23744 15.4755 3.53033L17.1952 5.25H7.37285C6.28074 5.24999 5.4152 5.24999 4.71759 5.30699C4.0042 5.36527 3.40058 5.48688 2.8494 5.76772C1.95563 6.22312 1.22898 6.94978 0.773579 7.84355C0.492741 8.39472 0.371134 8.99834 0.312847 9.71173C0.25585 10.4094 0.255854 11.2749 0.255859 12.367V13C0.255859 13.4142 0.591646 13.75 1.00586 13.75Z" fill="black"/>
</svg>
