<svg width="24" height="24" viewBox="0 0 24 24" fill="none" xmlns="http://www.w3.org/2000/svg">
<path d="M23.3389 7.37429C23.5456 7.16758 23.5456 6.83243 23.3389 6.62571L20.3597 3.64645C20.1644 3.45118 19.8478 3.45118 19.6525 3.64645C19.4573 3.84171 19.4573 4.15829 19.6525 4.35355L21.799 6.5L16.9359 6.5C16.0734 6.49994 15.5634 6.4999 15.1282 6.58647C14.4852 6.71437 13.8927 6.97728 13.3812 7.34477C13.5694 7.62137 13.7368 7.9134 13.8813 8.21868C14.2976 7.90057 14.7879 7.67375 15.3233 7.56725C15.6492 7.50242 16.0528 7.5 17.0061 7.5H21.799L19.6525 9.64645C19.4573 9.84171 19.4573 10.1583 19.6525 10.3536C19.8478 10.5488 20.1644 10.5488 20.3597 10.3536L23.3389 7.37429Z" fill="black"/>
<path d="M10.1309 15.7813C9.71463 16.0994 9.22431 16.3263 8.68892 16.4327C8.363 16.4976 7.95938 16.5 7.0061 16.5H1.0061C0.729961 16.5 0.506104 16.7239 0.506104 17C0.506104 17.2761 0.729961 17.5 1.0061 17.5L7.07627 17.5C7.93885 17.5001 8.44881 17.5001 8.88401 17.4135C9.52705 17.2856 10.1195 17.0227 10.631 16.6552C10.4428 16.3786 10.2754 16.0866 10.1309 15.7813Z" fill="black"/>
<path d="M7.0061 7.5C7.95938 7.5 8.363 7.50242 8.68892 7.56725C10.0773 7.84343 11.1627 8.92877 11.4389 10.3172C11.5037 10.6431 11.5061 11.0467 11.5061 12L11.5061 12.0702C11.506 12.9327 11.506 13.4427 11.5926 13.8779C11.9476 15.663 13.3431 17.0585 15.1282 17.4135C15.5634 17.5001 16.0733 17.5001 16.9359 17.5L21.799 17.5L19.6525 19.6464C19.4573 19.8417 19.4573 20.1583 19.6525 20.3536C19.8478 20.5488 20.1644 20.5488 20.3597 20.3536L23.3389 17.3743C23.5456 17.1676 23.5456 16.8324 23.3389 16.6257L20.3597 13.6464C20.1644 13.4512 19.8478 13.4512 19.6525 13.6464C19.4573 13.8417 19.4573 14.1583 19.6525 14.3536L21.799 16.5H17.0061C16.0528 16.5 15.6492 16.4976 15.3233 16.4327C13.9349 16.1566 12.8495 15.0712 12.5734 13.6828C12.5085 13.3569 12.5061 12.9533 12.5061 12L12.5061 11.9298C12.5062 11.0673 12.5062 10.5573 12.4196 10.1221C12.0646 8.33699 10.6691 6.94155 8.88401 6.58647C8.44881 6.4999 7.93885 6.49994 7.07627 6.5L1.0061 6.5C0.729961 6.5 0.506104 6.72386 0.506104 7C0.506104 7.27614 0.729961 7.5 1.0061 7.5H7.0061Z" fill="black"/>
</svg>
