<svg width="24" height="24" viewBox="0 0 24 24" fill="none" xmlns="http://www.w3.org/2000/svg">
<path d="M21.0001 2C21.0001 1.72386 20.7762 1.5 20.5001 1.5C20.224 1.5 20.0001 1.72386 20.0001 2V22C20.0001 22.2761 20.224 22.5 20.5001 22.5C20.7762 22.5 21.0001 22.2761 21.0001 22V2Z" fill="black"/>
<path fill-rule="evenodd" clip-rule="evenodd" d="M14.6187 9.1112C15.1641 9.52623 15.6 9.85798 15.9226 10.1518C16.2517 10.4514 16.5078 10.7504 16.6492 11.1147C16.8706 11.6848 16.8706 12.3152 16.6492 12.8853C16.5078 13.2496 16.2517 13.5486 15.9226 13.8482C15.6 14.142 15.1641 14.4738 14.6187 14.8888L8.98541 19.1756C8.16916 19.7968 7.52854 20.2843 7.00438 20.613C6.48274 20.9402 5.9937 21.1659 5.4896 21.1607C4.72806 21.1528 4.01098 20.8065 3.53882 20.2184C3.22628 19.8291 3.10853 19.3103 3.05244 18.7041C2.99608 18.0949 2.99609 17.298 2.99609 16.2825V7.71747C2.99609 6.70202 2.99609 5.9051 3.05244 5.29591C3.10853 4.68965 3.22628 4.17088 3.53882 3.78162C4.01098 3.19355 4.72806 2.84717 5.4896 2.83931C5.9937 2.83411 6.48274 3.05978 7.00439 3.38697C7.52855 3.71574 8.16915 4.20323 8.98542 4.8244L14.6187 9.1112ZM15.7077 11.4688C15.6471 11.3127 15.5212 11.1378 15.238 10.8798C14.9521 10.6195 14.5519 10.3143 13.9828 9.88124L8.39037 5.62551C7.54792 4.98443 6.94344 4.52505 6.46264 4.22348C5.97472 3.91744 5.69636 3.8292 5.50017 3.83122C5.04324 3.83594 4.613 4.04376 4.3297 4.39661C4.20806 4.54811 4.10872 4.81879 4.05626 5.38585C4.00457 5.94464 4.00406 6.69625 4.00406 7.74427V16.2557C4.00406 17.3037 4.00457 18.0554 4.05626 18.6141C4.10872 19.1812 4.20806 19.4519 4.3297 19.6034C4.613 19.9562 5.04324 20.1641 5.50017 20.1688C5.69636 20.1708 5.97472 20.0826 6.46264 19.7765C6.94344 19.475 7.54792 19.0156 8.39037 18.3745L13.9828 14.1188C14.5519 13.6857 14.9521 13.3805 15.238 13.1202C15.5212 12.8622 15.6471 12.6873 15.7077 12.5312C15.8405 12.1891 15.8405 11.8109 15.7077 11.4688Z" fill="black"/>
</svg>
