<svg width="24" height="24" viewBox="0 0 24 24" fill="none" xmlns="http://www.w3.org/2000/svg">
<path d="M2.99988 19.2499C2.86181 19.2499 2.74988 19.3618 2.74988 19.4999C2.74988 19.638 2.86181 19.7499 2.99988 19.7499H20.9999C21.1379 19.7499 21.2499 19.638 21.2499 19.4999C21.2499 19.3618 21.1379 19.2499 20.9999 19.2499H2.99988Z" fill="black"/>
<path d="M9.48876 5.70893L5.23303 11.3013C3.96296 12.9703 3.32792 13.8048 3.33515 14.5051C3.34143 15.1144 3.61853 15.688 4.08899 16.0658C4.62976 16.4999 5.66789 16.4999 7.74414 16.4999H16.2556C18.3319 16.4999 19.37 16.4999 19.9108 16.0658C20.3812 15.688 20.6583 15.1144 20.6646 14.5051C20.6718 13.8048 20.0368 12.9703 18.7667 11.3014L14.511 5.70893C13.656 4.5854 13.2285 4.02364 12.7081 3.82154C12.252 3.64445 11.7477 3.64445 11.2917 3.82154C10.7712 4.02364 10.3437 4.5854 9.48876 5.70893Z" fill="black"/>
</svg>
