<svg width="24" height="24" viewBox="0 0 24 24" fill="none" xmlns="http://www.w3.org/2000/svg">
<path d="M10.1738 3.21032C10.6229 2.67143 11.5 2.98899 11.5 3.69046V20.3094C11.5 21.0109 10.6229 21.3285 10.1738 20.7896L6.21558 16.0397C5.93059 15.6977 5.50842 15.4999 5.06325 15.4999H3C2.17157 15.4999 1.5 14.8284 1.5 13.9999V9.99995C1.5 9.17152 2.17157 8.49995 3 8.49995H5.06325C5.50842 8.49995 5.93059 8.30221 6.21558 7.96022L10.1738 3.21032Z" fill="black"/>
<path d="M16.6579 7.18507C16.9474 6.88889 17.4223 6.88353 17.7185 7.17309C18.9711 8.39774 19.75 10.1086 19.75 11.9999C19.75 13.8203 19.0284 15.4737 17.8573 16.6871C17.5696 16.9851 17.0948 16.9935 16.7968 16.7059C16.4987 16.4182 16.4903 15.9434 16.778 15.6454C17.6901 14.7003 18.25 13.4163 18.25 11.9999C18.25 10.5286 17.6457 9.19973 16.6698 8.24566C16.3737 7.95609 16.3683 7.48125 16.6579 7.18507Z" fill="black"/>
<path d="M13.5206 9.30718C13.8057 9.00671 14.2804 8.99426 14.5809 9.27938C15.3 9.96176 15.75 10.9289 15.75 12C15.75 12.9981 15.359 13.9066 14.7234 14.5779C14.4386 14.8787 13.9639 14.8917 13.6631 14.6069C13.3623 14.3221 13.3494 13.8474 13.6342 13.5466C14.0166 13.1427 14.25 12.5994 14.25 12C14.25 11.3572 13.9815 10.7784 13.5484 10.3675C13.2479 10.0824 13.2355 9.60765 13.5206 9.30718Z" fill="black"/>
</svg>
