<svg width="24" height="24" viewBox="0 0 24 24" fill="none" xmlns="http://www.w3.org/2000/svg">
<path d="M22.9937 10.5C22.7175 10.5 22.4937 10.7239 22.4937 11V11.6C22.4937 12.7284 22.4933 13.5446 22.4408 14.1865C22.3888 14.8226 22.2883 15.2434 22.1122 15.589C21.7766 16.2475 21.2412 16.783 20.5826 17.1185C20.237 17.2946 19.8162 17.3952 19.1801 17.4472C18.5382 17.4996 17.722 17.5 16.5937 17.5H6.20076L8.34721 15.3536C8.54247 15.1583 8.54247 14.8417 8.34721 14.6464C8.15194 14.4512 7.83536 14.4512 7.6401 14.6464L4.66083 17.6257C4.45412 17.8324 4.45412 18.1676 4.66083 18.3743L7.6401 21.3536C7.83536 21.5488 8.15194 21.5488 8.34721 21.3536C8.54247 21.1583 8.54247 20.8417 8.34721 20.6464L6.20076 18.5H16.6163C17.7172 18.5 18.5742 18.5 19.2616 18.4438C19.9595 18.3868 20.5266 18.2694 21.0366 18.0095C21.8833 17.5781 22.5718 16.8897 23.0032 16.043C23.2631 15.5329 23.3805 14.9658 23.4375 14.2679C23.4937 13.5805 23.4937 12.7236 23.4937 11.6227V11C23.4937 10.7239 23.2698 10.5 22.9937 10.5Z" fill="black"/>
<path d="M1.00586 13.5C1.282 13.5 1.50586 13.2761 1.50586 13V12.4C1.50586 11.2716 1.50625 10.4555 1.5587 9.81353C1.61067 9.17744 1.71125 8.75662 1.88734 8.41103C2.22289 7.75247 2.75833 7.21704 3.41689 6.88148C3.76248 6.70539 4.1833 6.60481 4.81938 6.55284C5.46131 6.50039 6.2775 6.5 7.40586 6.5H17.7988L15.6523 8.64645C15.457 8.84171 15.457 9.15829 15.6523 9.35355C15.8476 9.54882 16.1642 9.54882 16.3594 9.35355L19.3387 6.37429C19.5454 6.16758 19.5454 5.83243 19.3387 5.62571L16.3594 2.64645C16.1642 2.45118 15.8476 2.45118 15.6523 2.64645C15.457 2.84171 15.457 3.15829 15.6523 3.35355L17.7988 5.5H7.38325C6.28228 5.5 5.42534 5.5 4.73795 5.55616C4.04002 5.61318 3.47296 5.73058 2.9629 5.99047C2.11617 6.4219 1.42776 7.11031 0.99633 7.95704C0.736443 8.4671 0.61904 9.03416 0.562017 9.73209C0.505855 10.4195 0.505857 11.2764 0.505859 12.3774V13C0.505859 13.2761 0.729717 13.5 1.00586 13.5Z" fill="black"/>
</svg>
