<svg width="24" height="24" viewBox="0 0 24 24" fill="none" xmlns="http://www.w3.org/2000/svg">
<path fill-rule="evenodd" clip-rule="evenodd" d="M0.123117 8.43565C0 9.21298 0 10.142 0 12C0 13.858 0 14.787 0.123117 15.5643C0.800832 19.8433 4.15673 23.1992 8.43565 23.8769C9.21298 24 10.142 24 12 24C13.858 24 14.787 24 15.5643 23.8769C19.8433 23.1992 23.1992 19.8433 23.8769 15.5643C24 14.787 24 13.858 24 12C24 10.142 24 9.21298 23.8769 8.43565C23.1992 4.15673 19.8433 0.800832 15.5643 0.123117C14.787 0 13.858 0 12 0C10.142 0 9.21298 0 8.43565 0.123117C4.15673 0.800832 0.800832 4.15673 0.123117 8.43565ZM16.6787 10.5352L11.8173 6.8357C10.8437 6.09482 10.3569 5.72438 9.9484 5.7286C9.59301 5.73226 9.25837 5.89391 9.03803 6.16834C8.78476 6.48379 8.78476 7.08936 8.78476 8.30052V15.6995C8.78476 16.9107 8.78476 17.5162 9.03803 17.8317C9.25837 18.1061 9.59301 18.2678 9.9484 18.2714C10.3569 18.2756 10.8437 17.9052 11.8173 17.1643L16.6787 13.4648C17.3341 12.9661 17.6618 12.7167 17.7797 12.4131C17.883 12.1471 17.883 11.8529 17.7797 11.5869C17.6618 11.2833 17.3341 11.0339 16.6787 10.5352Z" fill="black"/>
</svg>
