<svg width="24" height="24" viewBox="0 0 24 24" fill="none" xmlns="http://www.w3.org/2000/svg">
<path fill-rule="evenodd" clip-rule="evenodd" d="M6.1786 2.5H17.8214C18.3633 2.5 18.8004 2.49999 19.1543 2.52891C19.5187 2.55868 19.8388 2.62159 20.135 2.77248C20.6054 3.01217 20.9878 3.39462 21.2275 3.86502C21.3784 4.16117 21.4413 4.48126 21.4711 4.84569C21.5 5.19963 21.5 5.6367 21.5 6.17858V17.8214C21.5 18.3633 21.5 18.8004 21.4711 19.1543C21.4413 19.5187 21.3784 19.8388 21.2275 20.135C20.9878 20.6054 20.6054 20.9878 20.135 21.2275C19.8388 21.3784 19.5187 21.4413 19.1543 21.4711C18.8004 21.5 18.3633 21.5 17.8214 21.5H6.17858C5.6367 21.5 5.19963 21.5 4.84569 21.4711C4.48126 21.4413 4.16117 21.3784 3.86502 21.2275C3.39462 20.9878 3.01217 20.6054 2.77248 20.135C2.62159 19.8388 2.55868 19.5187 2.52891 19.1543C2.49999 18.8004 2.5 18.3633 2.5 17.8214V6.1786C2.5 5.6367 2.49999 5.19963 2.52891 4.84569C2.55868 4.48126 2.62159 4.16117 2.77248 3.86502C3.01217 3.39462 3.39462 3.01217 3.86502 2.77248C4.16117 2.62159 4.48126 2.55868 4.84569 2.52891C5.19963 2.49999 5.6367 2.5 6.1786 2.5ZM4.92712 3.52559C4.62454 3.55031 4.45069 3.5964 4.31901 3.66349C4.03677 3.8073 3.8073 4.03677 3.66349 4.31901C3.5964 4.45069 3.55031 4.62454 3.52559 4.92712C3.50039 5.23554 3.5 5.6317 3.5 6.2V17.8C3.5 18.3683 3.50039 18.7645 3.52559 19.0729C3.55031 19.3755 3.5964 19.5493 3.66349 19.681C3.8073 19.9632 4.03677 20.1927 4.31901 20.3365C4.45069 20.4036 4.62454 20.4497 4.92712 20.4744C5.23554 20.4996 5.6317 20.5 6.2 20.5H17.8C18.3683 20.5 18.7645 20.4996 19.0729 20.4744C19.3755 20.4497 19.5493 20.4036 19.681 20.3365C19.9632 20.1927 20.1927 19.9632 20.3365 19.681C20.4036 19.5493 20.4497 19.3755 20.4744 19.0729C20.4996 18.7645 20.5 18.3683 20.5 17.8V6.2C20.5 5.6317 20.4996 5.23554 20.4744 4.92712C20.4497 4.62454 20.4036 4.45069 20.3365 4.31901C20.1927 4.03677 19.9632 3.8073 19.681 3.66349C19.5493 3.5964 19.3755 3.55031 19.0729 3.52559C18.7645 3.50039 18.3683 3.5 17.8 3.5H6.2C5.6317 3.5 5.23554 3.50039 4.92712 3.52559Z" fill="black"/>
</svg>
