<svg width="24" height="24" viewBox="0 0 24 24" fill="none" xmlns="http://www.w3.org/2000/svg">
<path d="M17.5193 2.80491C17.5 2.90151 17.5 3.01767 17.5 3.25V20.75C17.5 20.9823 17.5 21.0985 17.5193 21.1951C17.5982 21.5918 17.9083 21.9019 18.3049 21.9808C18.4015 22 18.5177 22 18.75 22C18.9824 22 19.0985 22 19.1951 21.9808C19.5918 21.9019 19.9019 21.5918 19.9808 21.1951C20 21.0985 20 20.9823 20 20.75V3.25C20 3.01767 20 2.90151 19.9808 2.80491C19.9019 2.40822 19.5918 2.09812 19.1951 2.01921C19.0985 2 18.9824 2 18.75 2C18.5177 2 18.4015 2 18.3049 2.01921C17.9083 2.09812 17.5982 2.40822 17.5193 2.80491Z" fill="black"/>
<path d="M13.291 9.4889L7.69858 5.23317C6.02959 3.9631 5.1951 3.32806 4.49481 3.33529C3.88557 3.34157 3.31191 3.61867 2.93418 4.08913C2.5 4.6299 2.5 5.66802 2.5 7.74428V16.2557C2.5 18.332 2.5 19.3701 2.93418 19.9109C3.31191 20.3814 3.88557 20.6585 4.49481 20.6647C5.19509 20.672 6.02959 20.0369 7.69857 18.7669L13.291 14.5111C14.4145 13.6562 14.9763 13.2287 15.1784 12.7082C15.3555 12.2522 15.3555 11.7479 15.1784 11.2918C14.9763 10.7714 14.4145 10.3439 13.291 9.4889Z" fill="black"/>
</svg>
