<svg width="24" height="24" viewBox="0 0 24 24" fill="none" xmlns="http://www.w3.org/2000/svg">
<path fill-rule="evenodd" clip-rule="evenodd" d="M9.30356 8.48553C9.88985 8.93167 10.3821 9.30623 10.7512 9.64237C11.1331 9.99018 11.473 10.3743 11.6648 10.8682C11.9478 11.5969 11.9478 12.4027 11.6648 13.1314C11.473 13.6254 11.1331 14.0095 10.7512 14.3573C10.3821 14.6934 9.88985 15.068 9.30355 15.5141L7.55819 16.8423C6.67663 17.5132 5.95968 18.0588 5.36665 18.4308C4.77877 18.7995 4.14685 19.1092 3.45455 19.1021C2.48111 19.092 1.5645 18.6493 0.96096 17.8976C0.531731 17.363 0.394155 16.6816 0.330947 15.9983C0.267186 15.3091 0.267198 14.4172 0.267212 13.3205V10.6792C0.267198 9.58251 0.267187 8.69056 0.330947 8.00135C0.394155 7.31811 0.531731 6.63669 0.96096 6.10209C1.5645 5.35038 2.48111 4.90763 3.45455 4.89758C4.14685 4.89044 4.77877 5.20017 5.36666 5.56891C5.95969 5.94087 6.67663 6.48647 7.5582 7.15735L9.30356 8.48553ZM9.7817 11.5764C9.75164 11.499 9.67225 11.3628 9.38199 11.0985C9.08639 10.8293 8.66606 10.5083 8.03466 10.0278L6.3657 8.75775C5.43367 8.04849 4.78935 7.55943 4.28316 7.24193C3.76272 6.9155 3.55218 6.88061 3.47569 6.8814C3.11148 6.88516 2.76853 7.05082 2.54272 7.33206C2.49529 7.39113 2.39454 7.57638 2.33858 8.18123C2.28416 8.76954 2.28315 9.57032 2.28315 10.7298L2.28315 13.2699C2.28315 14.4293 2.28416 15.2301 2.33858 15.8184C2.39454 16.4233 2.49529 16.6085 2.54272 16.6676C2.76853 16.9488 3.11148 17.1145 3.47569 17.1183C3.55218 17.119 3.76272 17.0842 4.28316 16.7577C4.78935 16.4402 5.43367 15.9512 6.3657 15.2419L8.03466 13.9719C8.66606 13.4914 9.08639 13.1704 9.38199 12.9012C9.67225 12.6368 9.75164 12.5006 9.7817 12.4232C9.88757 12.1506 9.88757 11.8491 9.7817 11.5764Z" fill="black"/>
<path fill-rule="evenodd" clip-rule="evenodd" d="M21.1591 8.48553C21.7454 8.93166 22.2377 9.30623 22.6068 9.64237C22.9887 9.99018 23.3286 10.3743 23.5204 10.8682C23.8034 11.5969 23.8034 12.4027 23.5204 13.1314C23.3286 13.6254 22.9887 14.0095 22.6068 14.3573C22.2377 14.6934 21.7454 15.068 21.1591 15.5141L19.4138 16.8423C18.5322 17.5132 17.8153 18.0588 17.2222 18.4308C16.6343 18.7995 16.0024 19.1092 15.3101 19.1021C14.3367 19.092 13.4201 18.6493 12.8165 17.8976C12.3873 17.363 12.2497 16.6816 12.1865 15.9983C12.1228 15.3091 12.1228 14.4172 12.1228 13.3205V10.6792C12.1228 9.58248 12.1228 8.69058 12.1865 8.00135C12.2497 7.31811 12.3873 6.63669 12.8165 6.10209C13.4201 5.35038 14.3367 4.90763 15.3101 4.89758C16.0024 4.89044 16.6343 5.20017 17.2222 5.56891C17.8153 5.94087 18.5322 6.48646 19.4137 7.15733L21.1591 8.48553ZM21.6373 11.5764C21.6072 11.499 21.5278 11.3628 21.2376 11.0985C20.942 10.8293 20.5216 10.5083 19.8902 10.0278L18.2213 8.75775C17.2892 8.04849 16.6449 7.55943 16.1387 7.24193C15.6183 6.9155 15.4078 6.88061 15.3313 6.8814C14.967 6.88516 14.6241 7.05082 14.3983 7.33206C14.3509 7.39113 14.2501 7.57638 14.1942 8.18123C14.1397 8.76954 14.1387 9.57032 14.1387 10.7298L14.1387 13.2699C14.1387 14.4293 14.1397 15.2301 14.1942 15.8184C14.2501 16.4233 14.3509 16.6085 14.3983 16.6676C14.6241 16.9488 14.967 17.1145 15.3313 17.1183C15.4078 17.119 15.6183 17.0842 16.1387 16.7577C16.6449 16.4402 17.2892 15.9512 18.2213 15.2419L19.8902 13.9719C20.5216 13.4914 20.942 13.1704 21.2376 12.9012C21.5278 12.6368 21.6072 12.5006 21.6373 12.4232C21.7431 12.1506 21.7431 11.8491 21.6373 11.5764Z" fill="black"/>
</svg>
