<svg width="24" height="24" viewBox="0 0 24 24" fill="none" xmlns="http://www.w3.org/2000/svg">
<path fill-rule="evenodd" clip-rule="evenodd" d="M0.123117 8.43565C0 9.21298 0 10.142 0 12C0 13.858 0 14.787 0.123117 15.5643C0.800832 19.8433 4.15673 23.1992 8.43565 23.8769C9.21298 24 10.142 24 12 24C13.858 24 14.787 24 15.5643 23.8769C19.8433 23.1992 23.1992 19.8433 23.8769 15.5643C24 14.787 24 13.858 24 12C24 10.142 24 9.21298 23.8769 8.43565C23.1992 4.15673 19.8433 0.800832 15.5643 0.123117C14.787 0 13.858 0 12 0C10.142 0 9.21298 0 8.43565 0.123117C4.15673 0.800832 0.800832 4.15673 0.123117 8.43565ZM8.20831 6.66667C8.20831 6.39052 7.98445 6.16667 7.70831 6.16667C7.43217 6.16667 7.20831 6.39052 7.20831 6.66667V17.3333C7.20831 17.6095 7.43217 17.8333 7.70831 17.8333C7.98445 17.8333 8.20831 17.6095 8.20831 17.3333V6.66667ZM14.0991 7.92081L10.5536 10.6189C9.93565 11.0891 9.62668 11.3243 9.51552 11.6105C9.41812 11.8613 9.41812 12.1387 9.51552 12.3895C9.62667 12.6758 9.93564 12.9109 10.5536 13.3811L14.0991 16.0792C15.0171 16.7777 15.476 17.127 15.8612 17.123C16.1963 17.1196 16.5118 16.9672 16.7195 16.7084C16.9583 16.411 16.9583 15.84 16.9583 14.6981V9.30193C16.9583 8.15999 16.9583 7.58902 16.7195 7.29159C16.5118 7.03284 16.1963 6.88043 15.8612 6.87698C15.476 6.873 15.0171 7.22228 14.0991 7.92081Z" fill="black"/>
</svg>
