<svg width="24" height="24" viewBox="0 0 24 24" fill="none" xmlns="http://www.w3.org/2000/svg">
<path fill-rule="evenodd" clip-rule="evenodd" d="M16.2331 1.25C15.9482 1.24998 15.6908 1.24997 15.4765 1.26748C15.2466 1.28626 15.0011 1.32884 14.7601 1.45164C14.412 1.62901 14.129 1.91202 13.9516 2.26012C13.8288 2.50112 13.7863 2.74664 13.7675 2.97645C13.75 3.19078 13.75 3.44815 13.75 3.73309V20.2669C13.75 20.5519 13.75 20.8092 13.7675 21.0236C13.7863 21.2534 13.8288 21.4989 13.9516 21.7399C14.129 22.088 14.412 22.371 14.7601 22.5484C15.0011 22.6712 15.2466 22.7138 15.4765 22.7325C15.6908 22.75 15.9481 22.75 16.233 22.75H18.7669C19.0518 22.75 19.3093 22.75 19.5236 22.7325C19.7534 22.7138 19.9989 22.6712 20.2399 22.5484C20.588 22.371 20.871 22.088 21.0484 21.7399C21.1712 21.4989 21.2138 21.2534 21.2325 21.0236C21.25 20.8092 21.25 20.5519 21.25 20.2669V3.7331C21.25 3.44816 21.25 3.19078 21.2325 2.97645C21.2138 2.74664 21.1712 2.50112 21.0484 2.26012C20.871 1.91202 20.588 1.62901 20.2399 1.45164C19.9989 1.32884 19.7534 1.28626 19.5236 1.26748C19.3092 1.24997 19.0519 1.24998 18.767 1.25H16.2331ZM15.4411 2.78812C15.4464 2.78574 15.4831 2.77193 15.5986 2.7625C15.7444 2.75059 15.9396 2.75 16.26 2.75H18.74C19.0604 2.75 19.2556 2.75059 19.4014 2.7625C19.5169 2.77193 19.5536 2.78574 19.5589 2.78812C19.5599 2.78856 19.5598 2.78858 19.5589 2.78812C19.6248 2.82167 19.6783 2.87525 19.7119 2.94111C19.7114 2.94021 19.7114 2.94012 19.7119 2.94111C19.7142 2.9464 19.7281 2.98312 19.7375 3.0986C19.7494 3.2444 19.75 3.4396 19.75 3.76V20.24C19.75 20.5604 19.7494 20.7556 19.7375 20.9014C19.7281 21.0169 19.7143 21.0536 19.7119 21.0589C19.7114 21.0599 19.7114 21.0598 19.7119 21.0589C19.6783 21.1248 19.6248 21.1783 19.5589 21.2119C19.5598 21.2114 19.5599 21.2114 19.5589 21.2119C19.5536 21.2142 19.5169 21.2281 19.4014 21.2375C19.2556 21.2494 19.0604 21.25 18.74 21.25H16.26C15.9396 21.25 15.7444 21.2494 15.5986 21.2375C15.4831 21.2281 15.4464 21.2143 15.4411 21.2119C15.4401 21.2114 15.4402 21.2114 15.4411 21.2119C15.3752 21.1783 15.3217 21.1248 15.2882 21.0589C15.2886 21.0598 15.2886 21.0599 15.2882 21.0589C15.2858 21.0536 15.2719 21.0169 15.2625 20.9014C15.2506 20.7556 15.25 20.5604 15.25 20.24V3.76C15.25 3.4396 15.2506 3.2444 15.2625 3.0986C15.2719 2.98312 15.2857 2.94639 15.2881 2.94109C15.2886 2.9401 15.2886 2.94019 15.2881 2.94109C15.3217 2.87523 15.3752 2.82167 15.4411 2.78812Z" fill="black"/>
<path fill-rule="evenodd" clip-rule="evenodd" d="M5.23309 1.25C4.94817 1.24998 4.69077 1.24997 4.47645 1.26748C4.24664 1.28626 4.00112 1.32884 3.76012 1.45164C3.41202 1.62901 3.12901 1.91202 2.95164 2.26012C2.82884 2.50112 2.78626 2.74664 2.76748 2.97645C2.74997 3.19077 2.74998 3.44812 2.75 3.73305V20.2669C2.74998 20.5518 2.74997 20.8092 2.76748 21.0236C2.78626 21.2534 2.82884 21.4989 2.95164 21.7399C3.12901 22.088 3.41202 22.371 3.76012 22.5484C4.00112 22.6712 4.24664 22.7138 4.47645 22.7325C4.69075 22.75 4.9481 22.75 5.233 22.75H7.76693C8.05183 22.75 8.30925 22.75 8.52355 22.7325C8.75336 22.7138 8.99888 22.6712 9.23989 22.5484C9.58799 22.371 9.871 22.088 10.0484 21.7399C10.1712 21.4989 10.2137 21.2534 10.2325 21.0236C10.25 20.8092 10.25 20.5519 10.25 20.2669V3.7331C10.25 3.44817 10.25 3.19077 10.2325 2.97645C10.2137 2.74664 10.1712 2.50112 10.0484 2.26012C9.871 1.91202 9.58799 1.62901 9.23989 1.45164C8.99888 1.32884 8.75336 1.28626 8.52355 1.26748C8.30924 1.24997 8.05188 1.24998 7.76696 1.25H5.23309ZM4.44109 2.78812C4.44019 2.78858 4.4401 2.78856 4.44109 2.78812C4.44639 2.78574 4.48312 2.77193 4.5986 2.7625C4.7444 2.75059 4.9396 2.75 5.26 2.75H7.74C8.06041 2.75 8.2556 2.75059 8.40141 2.7625C8.51688 2.77193 8.55362 2.78574 8.55892 2.78812C8.55991 2.78856 8.55981 2.78858 8.55892 2.78812C8.62477 2.82167 8.6783 2.87525 8.71185 2.94111C8.71423 2.9464 8.72807 2.98312 8.73751 3.0986C8.74942 3.2444 8.75 3.4396 8.75 3.76V20.24C8.75 20.5604 8.74942 20.7556 8.73751 20.9014C8.72807 21.0169 8.71426 21.0536 8.71189 21.0589C8.71144 21.0599 8.71143 21.0598 8.71189 21.0589C8.67833 21.1248 8.62476 21.1783 8.5589 21.2119C8.5598 21.2114 8.55989 21.2114 8.5589 21.2119C8.5536 21.2142 8.51688 21.2281 8.40141 21.2375C8.2556 21.2494 8.06041 21.25 7.74 21.25H5.26C4.9396 21.25 4.7444 21.2494 4.5986 21.2375C4.48312 21.2281 4.44639 21.2143 4.44109 21.2119C4.4401 21.2114 4.44019 21.2114 4.44109 21.2119C4.37523 21.1783 4.32171 21.1248 4.28815 21.0589C4.28861 21.0598 4.28859 21.0599 4.28815 21.0589C4.28577 21.0536 4.27193 21.0169 4.2625 20.9014C4.25059 20.7556 4.25 20.5604 4.25 20.24V3.76C4.25 3.4396 4.25059 3.2444 4.2625 3.0986C4.27193 2.98312 4.28574 2.94639 4.28812 2.94109C4.28856 2.9401 4.28858 2.94019 4.28812 2.94109C4.32167 2.87523 4.37523 2.82167 4.44109 2.78812Z" fill="black"/>
</svg>
