<svg width="24" height="24" viewBox="0 0 24 24" fill="none" xmlns="http://www.w3.org/2000/svg">
<path d="M5.60899 1.54601C5.5 1.75992 5.5 2.03995 5.5 2.6V21.4C5.5 21.9601 5.5 22.2401 5.60899 22.454C5.70487 22.6422 5.85785 22.7951 6.04601 22.891C6.25992 23 6.53995 23 7.1 23H7.9C8.46005 23 8.74008 23 8.95399 22.891C9.14215 22.7951 9.29513 22.6422 9.39101 22.454C9.5 22.2401 9.5 21.9601 9.5 21.4V2.6C9.5 2.03995 9.5 1.75992 9.39101 1.54601C9.29513 1.35785 9.14215 1.20487 8.95399 1.10899C8.74008 1 8.46005 1 7.9 1H7.1C6.53995 1 6.25992 1 6.04601 1.10899C5.85785 1.20487 5.70487 1.35785 5.60899 1.54601Z" fill="black"/>
<path d="M14.609 1.54601C14.5 1.75992 14.5 2.03995 14.5 2.6V21.4C14.5 21.9601 14.5 22.2401 14.609 22.454C14.7049 22.6422 14.8578 22.7951 15.046 22.891C15.2599 23 15.5399 23 16.1 23H16.9C17.4601 23 17.7401 23 17.954 22.891C18.1422 22.7951 18.2951 22.6422 18.391 22.454C18.5 22.2401 18.5 21.9601 18.5 21.4V2.6C18.5 2.03995 18.5 1.75992 18.391 1.54601C18.2951 1.35785 18.1422 1.20487 17.954 1.10899C17.7401 1 17.4601 1 16.9 1H16.1C15.5399 1 15.2599 1 15.046 1.10899C14.8578 1.20487 14.7049 1.35785 14.609 1.54601Z" fill="black"/>
</svg>
