<svg width="24" height="24" viewBox="0 0 24 24" fill="none" xmlns="http://www.w3.org/2000/svg">
<path fill-rule="evenodd" clip-rule="evenodd" d="M2.6675 9.44042C2.14552 9.83764 1.74038 10.1459 1.44305 10.4167C1.14247 10.6904 0.929564 10.9452 0.813918 11.2431C0.624527 11.7308 0.624527 12.2701 0.813918 12.7578C0.929564 13.0556 1.14248 13.3104 1.44305 13.5841C1.74038 13.8549 2.14552 14.1632 2.6675 14.5604L6.33026 17.3477C7.10894 17.9403 7.70733 18.3956 8.19372 18.7007C8.67887 19.005 9.0939 19.1876 9.50156 19.1834C10.1531 19.1767 10.7665 18.8803 11.1705 18.3772C11.4232 18.0624 11.5304 17.6276 11.5825 17.0638C11.6348 16.4985 11.6348 15.7541 11.6348 14.7854L11.6348 9.21544C11.6348 8.24674 11.6348 7.50234 11.5825 6.93705C11.5304 6.37321 11.4232 5.93841 11.1705 5.62361C10.7665 5.12051 10.1531 4.82418 9.50156 4.81745C9.0939 4.81325 8.67887 4.99583 8.19372 5.30013C7.70733 5.60521 7.10894 6.06057 6.33026 6.65313L2.6675 9.44042ZM1.2847 11.4201C1.35991 11.2264 1.50769 11.0336 1.78536 10.7807C2.06436 10.5267 2.4517 10.2316 2.9859 9.8251L6.62741 7.05398C7.41948 6.45122 7.99986 6.00988 8.46459 5.71839C8.93288 5.42466 9.24257 5.31079 9.49627 5.31341C9.99548 5.31856 10.4655 5.54562 10.775 5.93111C10.9323 6.12702 11.0303 6.43778 11.0806 6.98202C11.1306 7.52213 11.1308 8.24394 11.1308 9.2293V14.7715C11.1308 15.7569 11.1306 16.4787 11.0806 17.0188C11.0303 17.5631 10.9323 17.8738 10.775 18.0697C10.4655 18.4552 9.99548 18.6823 9.49627 18.6874C9.24257 18.69 8.93288 18.5762 8.46459 18.2825C7.99986 17.991 7.41948 17.5496 6.62741 16.9469L2.98591 14.1757C2.4517 13.7692 2.06436 13.4742 1.78536 13.2201C1.50769 12.9672 1.35991 12.7744 1.2847 12.5807C1.13958 12.207 1.13958 11.7938 1.2847 11.4201Z" fill="black"/>
<path fill-rule="evenodd" clip-rule="evenodd" d="M14.7807 9.44043C14.2587 9.83764 13.8536 10.1459 13.5562 10.4167C13.2557 10.6904 13.0428 10.9452 12.9271 11.2431C12.7377 11.7308 12.7377 12.2701 12.9271 12.7578C13.0428 13.0556 13.2557 13.3104 13.5562 13.5841C13.8536 13.8549 14.2587 14.1632 14.7807 14.5604L18.4434 17.3477C19.2221 17.9403 19.8205 18.3956 20.3069 18.7007C20.7921 19.005 21.2071 19.1876 21.6147 19.1834C22.2663 19.1767 22.8797 18.8803 23.2837 18.3772C23.5364 18.0624 23.6435 17.6276 23.6957 17.0638C23.748 16.4985 23.748 15.7541 23.748 14.7854V9.21545C23.748 8.24674 23.748 7.50234 23.6957 6.93705C23.6435 6.37321 23.5364 5.93841 23.2837 5.62362C22.8797 5.12051 22.2663 4.82418 21.6147 4.81746C21.2071 4.81325 20.7921 4.99583 20.3069 5.30013C19.8205 5.60521 19.2221 6.06057 18.4435 6.65313L14.7807 9.44043ZM13.3979 11.4201C13.4731 11.2264 13.6209 11.0336 13.8985 10.7807C14.1775 10.5267 14.5649 10.2316 15.0991 9.8251L18.7406 7.05398C19.5327 6.45123 20.1131 6.00988 20.5778 5.71839C21.0461 5.42466 21.3558 5.31079 21.6095 5.31341C22.1087 5.31856 22.5787 5.54562 22.8882 5.93111C23.0455 6.12702 23.1434 6.43778 23.1938 6.98202C23.2438 7.52213 23.244 8.24394 23.244 9.2293V14.7715C23.244 15.7569 23.2438 16.4787 23.1938 17.0188C23.1434 17.5631 23.0455 17.8738 22.8882 18.0697C22.5787 18.4552 22.1087 18.6823 21.6095 18.6874C21.3558 18.69 21.0461 18.5762 20.5778 18.2825C20.1131 17.991 19.5327 17.5496 18.7406 16.9469L15.0991 14.1757C14.5649 13.7692 14.1775 13.4742 13.8985 13.2201C13.6209 12.9672 13.4731 12.7744 13.3979 12.5807C13.2528 12.207 13.2528 11.7938 13.3979 11.4201Z" fill="black"/>
</svg>
