<svg width="24" height="24" viewBox="0 0 24 24" fill="none" xmlns="http://www.w3.org/2000/svg">
<path fill-rule="evenodd" clip-rule="evenodd" d="M2.50431 9.25085C1.99006 9.64219 1.57752 9.95612 1.27194 10.2344C0.959905 10.5186 0.714429 10.8044 0.578567 11.1542C0.36704 11.6989 0.36704 12.3013 0.578567 12.846C0.714431 13.1959 0.959905 13.4817 1.27194 13.7658C1.57751 14.0441 1.99004 14.358 2.50428 14.7494L6.18646 17.5514C6.9564 18.1373 7.56222 18.5984 8.05832 18.9095C8.5519 19.2191 9.01961 19.4361 9.50424 19.4311C10.2319 19.4236 10.9171 19.0926 11.3682 18.5307C11.6687 18.1564 11.7804 17.6596 11.8335 17.086C11.8868 16.5094 11.8868 15.7557 11.8868 14.7979V9.20236C11.8868 8.24454 11.8868 7.49084 11.8335 6.91427C11.7804 6.34062 11.6687 5.8438 11.3682 5.46957C10.9171 4.90766 10.2319 4.57668 9.50424 4.56918C9.01961 4.56418 8.5519 4.78111 8.05832 5.0907C7.56223 5.40186 6.95643 5.86287 6.18652 6.44876L2.50431 9.25085ZM1.52013 11.5083C1.57512 11.3667 1.69034 11.2049 1.95655 10.9625C2.22542 10.7176 2.60222 10.4303 3.14009 10.021L6.78159 7.24986C7.57764 6.64408 8.14733 6.21118 8.60007 5.92721C9.05992 5.63878 9.31694 5.55926 9.49367 5.56109C9.91672 5.56545 10.3151 5.75787 10.5774 6.08456C10.6869 6.22103 10.7802 6.46976 10.8297 7.00421C10.8784 7.53038 10.8789 8.2387 10.8789 9.229V14.7712C10.8789 15.7615 10.8784 16.4699 10.8297 16.996C10.7802 17.5305 10.6869 17.7792 10.5774 17.9157C10.3151 18.2424 9.91672 18.4348 9.49367 18.4392C9.31694 18.441 9.05992 18.3615 8.60007 18.073C8.14733 17.7891 7.57764 17.3562 6.7816 16.7504L3.14009 13.9793C2.60222 13.57 2.22543 13.2826 1.95655 13.0378C1.69034 12.7953 1.57512 12.6335 1.52013 12.4919C1.39715 12.1752 1.39715 11.825 1.52013 11.5083Z" fill="black"/>
<path fill-rule="evenodd" clip-rule="evenodd" d="M14.6175 9.25086C14.1033 9.64218 13.6907 9.95612 13.3851 10.2344C13.0731 10.5186 12.8276 10.8044 12.6918 11.1542C12.4802 11.6989 12.4802 12.3013 12.6918 12.846C12.8276 13.1959 13.0731 13.4817 13.3851 13.7658C13.6907 14.0441 14.1032 14.358 14.6175 14.7494L18.2997 17.5514C19.0696 18.1373 19.6754 18.5984 20.1715 18.9095C20.6651 19.2191 21.1328 19.4361 21.6174 19.4311C22.3451 19.4236 23.0303 19.0926 23.4814 18.5307C23.7819 18.1564 23.8936 17.6596 23.9467 17.086C24 16.5094 24 15.7557 24 14.7979V9.20236C24 8.24454 24 7.49084 23.9467 6.91427C23.8936 6.34063 23.7819 5.8438 23.4814 5.46957C23.0303 4.90766 22.3451 4.57669 21.6174 4.56918C21.1328 4.56418 20.6651 4.78112 20.1715 5.09071C19.6754 5.40187 19.0696 5.86289 18.2997 6.44881L14.6175 9.25086ZM13.6333 11.5083C13.6883 11.3667 13.8035 11.2049 14.0697 10.9625C14.3386 10.7176 14.7154 10.4303 15.2533 10.021L18.8948 7.24986C19.6908 6.64408 20.2605 6.21119 20.7133 5.92722C21.1731 5.63878 21.4301 5.55927 21.6069 5.56109C22.0299 5.56545 22.4283 5.75787 22.6906 6.08456C22.8001 6.22103 22.8934 6.46976 22.9429 7.00421C22.9916 7.53038 22.9921 8.2387 22.9921 9.229L22.9921 14.7712C22.9921 15.7615 22.9916 16.4699 22.9429 16.996C22.8934 17.5305 22.8001 17.7792 22.6906 17.9157C22.4283 18.2424 22.0299 18.4348 21.6069 18.4392C21.4301 18.441 21.1731 18.3615 20.7133 18.073C20.2605 17.7891 19.6908 17.3562 18.8948 16.7504L15.2533 13.9793C14.7154 13.57 14.3386 13.2826 14.0697 13.0378C13.8035 12.7953 13.6883 12.6335 13.6333 12.4919C13.5103 12.1752 13.5103 11.825 13.6333 11.5083Z" fill="black"/>
</svg>
