<svg width="24" height="24" viewBox="0 0 24 24" fill="none" xmlns="http://www.w3.org/2000/svg">
<path d="M22.9937 10.5C22.7175 10.5 22.4937 10.7239 22.4937 11V11.6C22.4937 12.7284 22.4933 13.5446 22.4408 14.1865C22.3888 14.8226 22.2883 15.2434 22.1122 15.589C21.7766 16.2475 21.2412 16.783 20.5826 17.1185C20.237 17.2946 19.8162 17.3952 19.1801 17.4472C18.5382 17.4996 17.722 17.5 16.5937 17.5H6.83557V16.7369C6.83557 16.3902 6.83557 16.2168 6.76418 16.1263C6.70206 16.0476 6.60771 16.0012 6.50746 16C6.39222 15.9987 6.25486 16.1045 5.98014 16.3161L4.33405 17.5841C4.14811 17.7273 4.05514 17.7989 4.02172 17.8862C3.99243 17.9626 3.99243 18.0472 4.02172 18.1237C4.05514 18.2109 4.14811 18.2826 4.33405 18.4258L5.98014 19.6938C6.25486 19.9054 6.39222 20.0112 6.50746 20.0098C6.60771 20.0087 6.70206 19.9622 6.76418 19.8835C6.83557 19.7931 6.83557 19.6197 6.83557 19.2729V18.5H16.6163C17.7172 18.5 18.5742 18.5 19.2616 18.4438C19.9595 18.3868 20.5266 18.2694 21.0366 18.0095C21.8833 17.5781 22.5718 16.8897 23.0032 16.043C23.2631 15.5329 23.3805 14.9658 23.4375 14.2679C23.4937 13.5805 23.4937 12.7236 23.4937 11.6227V11C23.4937 10.7239 23.2698 10.5 22.9937 10.5Z" fill="black"/>
<path d="M1.00586 13.5C1.282 13.5 1.50586 13.2761 1.50586 13V12.4C1.50586 11.2716 1.50625 10.4554 1.5587 9.81352C1.61067 9.17744 1.71125 8.75662 1.88734 8.41103C2.22289 7.75247 2.75833 7.21703 3.41689 6.88148C3.76248 6.70539 4.1833 6.60481 4.81938 6.55284C5.46131 6.50039 6.2775 6.5 7.40586 6.5H16.9998V7.27292C16.9998 7.61969 16.9998 7.79308 17.0712 7.88354C17.1333 7.96225 17.2276 8.00866 17.3279 8.00985C17.4431 8.0112 17.5805 7.9054 17.8552 7.69378L19.5013 6.42579C19.6872 6.28256 19.7802 6.21094 19.8136 6.12369C19.8429 6.04722 19.8429 5.96264 19.8136 5.88617C19.7802 5.79891 19.6872 5.7273 19.5013 5.58407L17.8552 4.31608C17.5805 4.10447 17.4431 3.99865 17.3279 4.00001C17.2276 4.00119 17.1333 4.04761 17.0712 4.12632C16.9998 4.21678 16.9998 4.39016 16.9998 4.73694V5.5H7.38325C6.28229 5.5 5.42534 5.5 4.73795 5.55616C4.04002 5.61318 3.47296 5.73058 2.9629 5.99047C2.11617 6.4219 1.42776 7.11031 0.99633 7.95704C0.736443 8.4671 0.61904 9.03416 0.562017 9.73209C0.505855 10.4195 0.505857 11.2764 0.505859 12.3774V13C0.505859 13.2761 0.729717 13.5 1.00586 13.5Z" fill="black"/>
</svg>
