<svg width="24" height="24" viewBox="0 0 24 24" fill="none" xmlns="http://www.w3.org/2000/svg">
<path fill-rule="evenodd" clip-rule="evenodd" d="M1 13.7783V10.2227C1 9.17954 1.84568 8.33385 2.88889 8.33385H4.72289C4.95372 8.33385 5.17262 8.23132 5.32039 8.05399L8.83884 3.83186C9.57066 2.95368 11 3.47116 11 4.61431V19.3867C11 20.5299 9.57066 21.0474 8.83884 20.1692L5.32039 15.947C5.17262 15.7697 4.95372 15.6672 4.72289 15.6672H2.88889C1.84568 15.6672 1 14.8215 1 13.7783ZM6.08862 15.3069C5.75085 14.9015 5.2505 14.6672 4.72289 14.6672H2.88889C2.39797 14.6672 2 14.2692 2 13.7783V10.2227C2 9.73182 2.39797 9.33385 2.88889 9.33385H4.72289C5.2505 9.33385 5.75085 9.0995 6.08862 8.69418L9.60706 4.47204C9.74012 4.31237 10 4.40646 10 4.61431V19.3867C10 19.5946 9.74012 19.6887 9.60706 19.529L6.08862 15.3069Z" fill="black"/>
</svg>
