<svg width="24" height="24" viewBox="0 0 24 24" fill="none" xmlns="http://www.w3.org/2000/svg">
<path d="M22.994 10.0001C22.4417 10.0001 21.994 10.4478 21.994 11.0001V11.6001C21.994 12.7367 21.9932 13.529 21.9428 14.1459C21.8933 14.751 21.8012 15.0987 21.667 15.3621C21.3794 15.9266 20.9204 16.3855 20.3559 16.6731C20.0926 16.8073 19.7449 16.8995 19.1397 16.9489C18.5229 16.9993 17.7306 17.0001 16.594 17.0001H8.24328V16.1077C8.24328 15.5888 8.24328 15.3294 8.13645 15.194C8.04351 15.0762 7.90233 15.0068 7.75232 15.005C7.5799 15.003 7.37436 15.1613 6.96329 15.478L4.50022 17.3753C4.22202 17.5896 4.08288 17.6967 4.03288 17.8273C3.98906 17.9417 3.98906 18.0683 4.03288 18.1827C4.08289 18.3133 4.22199 18.4204 4.50021 18.6347L6.96329 20.532C7.37436 20.8487 7.5799 21.007 7.75232 21.005C7.90233 21.0032 8.04351 20.9338 8.13645 20.816C8.24328 20.6806 8.24328 20.4212 8.24328 19.9023V19.0001H16.6367C17.7205 19.0001 18.5947 19.0001 19.3026 18.9423C20.0314 18.8828 20.6716 18.7569 21.2639 18.4552C22.2047 17.9758 22.9696 17.2109 23.449 16.2701C23.7508 15.6778 23.8766 15.0376 23.9361 14.3087C23.994 13.6009 23.994 12.7267 23.994 11.6429V11.0001C23.994 10.4478 23.5462 10.0001 22.994 10.0001Z" fill="black"/>
<path d="M1.0061 14C1.55839 14 2.0061 13.5523 2.0061 13V12.4C2.0061 11.2634 2.00688 10.4711 2.05728 9.85424C2.10672 9.24907 2.1989 8.90138 2.33309 8.63803C2.62071 8.07354 3.07965 7.6146 3.64413 7.32698C3.90749 7.19279 4.25518 7.10062 4.86034 7.05118C5.47719 7.00078 6.2695 7 7.40611 7H15.5926V7.90219C15.5926 8.42108 15.5926 8.68052 15.6994 8.81588C15.7924 8.93364 15.9335 9.0031 16.0836 9.00486C16.256 9.0069 16.4615 8.84857 16.8726 8.53193L18.8613 7H19.0061V6.88847L19.3357 6.63462C19.6139 6.4203 19.753 6.31315 19.803 6.18258C19.8468 6.06817 19.8468 5.9416 19.803 5.82719C19.753 5.69662 19.6139 5.58946 19.3357 5.37515L19.0061 5.12129V5H18.8486L16.8726 3.47784C16.4615 3.16119 16.256 3.00287 16.0836 3.0049C15.9335 3.00667 15.7924 3.07613 15.6994 3.19389C15.5926 3.32925 15.5926 3.58869 15.5926 4.10758V5H7.36332C6.27953 4.99999 5.40537 4.99998 4.69748 5.05782C3.96863 5.11737 3.32844 5.24318 2.73615 5.54497C1.79534 6.02434 1.03044 6.78924 0.551072 7.73005C0.249284 8.32234 0.123472 8.96253 0.0639223 9.69138C0.00608655 10.3993 0.00609423 11.2734 0.00610376 12.3572V13C0.00610376 13.5523 0.45382 14 1.0061 14Z" fill="black"/>
</svg>
