<svg width="24" height="24" viewBox="0 0 24 24" fill="none" xmlns="http://www.w3.org/2000/svg">
<path d="M12.125 1.30176C14.9902 1.30176 17.5948 2.41659 19.5303 4.2334L20.7451 3.08984L21.1396 7.06738L17.1943 6.43457L18.4365 5.26367C16.7754 3.73472 14.5594 2.80176 12.125 2.80176C6.97592 2.80176 2.80176 6.97592 2.80176 12.125C2.80176 17.2741 6.97592 21.4482 12.125 21.4482C17.2741 21.4482 21.4482 17.2741 21.4482 12.125C21.4482 11.7108 21.784 11.375 22.1982 11.375C22.6125 11.375 22.9482 11.7108 22.9482 12.125C22.9482 18.1025 18.1025 22.9482 12.125 22.9482C6.14749 22.9482 1.30176 18.1025 1.30176 12.125C1.30176 6.14749 6.14749 1.30176 12.125 1.30176Z" fill="black"/>
<path d="M11.1338 6.86523C11.3697 6.86292 11.5973 6.96814 11.835 7.11719C12.0763 7.2686 12.3719 7.49379 12.7471 7.7793L16.5361 10.6621C16.7877 10.8535 16.9894 11.0077 17.1387 11.1436C17.2892 11.2807 17.4085 11.4195 17.4746 11.5898C17.5771 11.854 17.5771 12.146 17.4746 12.4102C17.4085 12.5805 17.2893 12.7203 17.1387 12.8574C16.9895 12.9933 16.7875 13.1466 16.5361 13.3379L12.7471 16.2207C12.3718 16.5063 12.0764 16.7324 11.835 16.8838C11.5974 17.0328 11.3696 17.1381 11.1338 17.1357C10.781 17.132 10.4483 16.9706 10.2295 16.6982C10.0833 16.516 10.0285 16.2743 10.0029 15.998C9.977 15.7175 9.97754 15.3495 9.97754 14.8828V9.11719C9.97754 8.65035 9.97698 8.28253 10.0029 8.00195C10.0285 7.72566 10.0832 7.48404 10.2295 7.30176C10.4483 7.02939 10.781 6.86902 11.1338 6.86523Z" fill="black"/>
</svg>
