<svg width="24" height="24" viewBox="0 0 24 24" fill="none" xmlns="http://www.w3.org/2000/svg">
<path d="M2.75 2C2.75 1.58579 3.08579 1.25 3.5 1.25C3.91421 1.25 4.25 1.58579 4.25 2V22C4.25 22.4142 3.91421 22.75 3.5 22.75C3.08579 22.75 2.75 22.4142 2.75 22V2Z" fill="black"/>
<path fill-rule="evenodd" clip-rule="evenodd" d="M9.21898 8.92134C8.68068 9.33096 8.23721 9.66842 7.90634 9.96974C7.56583 10.2798 7.27717 10.6098 7.11547 11.0262C6.87196 11.6533 6.87196 12.3467 7.11547 12.9738C7.27717 13.3902 7.56583 13.7202 7.90634 14.0303C8.23721 14.3316 8.68068 14.669 9.21898 15.0787L14.8702 19.3791C15.6782 19.994 16.3264 20.4873 16.8603 20.8222C17.3904 21.1546 17.9321 21.4147 18.5131 21.4087C19.3508 21.4 20.1396 21.019 20.659 20.3721C21.0193 19.9234 21.1416 19.3426 21.1986 18.7266C21.256 18.1061 21.256 17.2998 21.256 16.2946V7.70549C21.256 6.70026 21.256 5.89394 21.1986 5.27343C21.1416 4.65737 21.0193 4.07658 20.659 3.62787C20.1396 2.98099 19.3508 2.59998 18.5131 2.59134C17.9321 2.58534 17.3904 2.84536 16.8603 3.17784C16.3264 3.51272 15.6782 4.00595 14.8702 4.62086L9.21898 8.92134ZM8.52781 11.5574C8.5682 11.4533 8.66147 11.3093 8.93325 11.0618C9.20902 10.8107 9.59869 10.5133 10.1715 10.0774L15.7639 5.82169C16.6103 5.17758 17.2041 4.72666 17.6729 4.43261C18.1524 4.13186 18.3781 4.07797 18.4973 4.0792C18.8781 4.08313 19.2366 4.25632 19.4727 4.55035C19.5466 4.64241 19.6413 4.85108 19.6929 5.40834C19.7433 5.95319 19.7441 6.69131 19.7441 7.74427V16.2557C19.7441 17.3087 19.7433 18.0468 19.6929 18.5917C19.6413 19.1489 19.5466 19.3576 19.4727 19.4496C19.2366 19.7437 18.8781 19.9169 18.4973 19.9208C18.3781 19.922 18.1524 19.8681 17.6729 19.5674C17.2041 19.2733 16.6103 18.8224 15.7639 18.1783L10.1715 13.9226C9.59869 13.4867 9.20902 13.1893 8.93325 12.9382C8.66147 12.6907 8.5682 12.5467 8.52781 12.4426C8.41712 12.1576 8.41712 11.8424 8.52781 11.5574Z" fill="black"/>
</svg>
