<svg width="24" height="24" viewBox="0 0 24 24" fill="none" xmlns="http://www.w3.org/2000/svg">
<path d="M20.2422 1C20.7943 1 21.2419 1.44792 21.2422 2V6.21289C21.2422 6.78135 20.7813 7.24217 20.2129 7.24219H16C15.4479 7.24194 15 6.79432 15 6.24219C15.0002 5.69026 15.4481 5.24243 16 5.24219H18.0322C16.444 3.87759 14.3819 3.05176 12.125 3.05176C7.11399 3.05176 3.05176 7.11399 3.05176 12.125C3.05176 17.136 7.11399 21.1982 12.125 21.1982C17.136 21.1982 21.1982 17.136 21.1982 12.125C21.1982 11.5727 21.646 11.125 22.1982 11.125C22.7505 11.125 23.1982 11.5727 23.1982 12.125C23.1982 18.2406 18.2406 23.1982 12.125 23.1982C6.00942 23.1982 1.05176 18.2406 1.05176 12.125C1.05176 6.00942 6.00942 1.05176 12.125 1.05176C14.8355 1.05176 17.3182 2.02661 19.2422 3.64258V2C19.2424 1.44807 19.6903 1.00025 20.2422 1Z" fill="black"/>
<path fill-rule="evenodd" clip-rule="evenodd" d="M11.126 6.12109C11.5926 6.11642 11.9781 6.32524 12.2412 6.49023C12.5184 6.66415 12.8459 6.91414 13.209 7.19043L16.9971 10.0742C17.2376 10.2573 17.4717 10.4341 17.6514 10.5977C17.813 10.7449 17.9999 10.9401 18.1289 11.2051L18.1816 11.3242C18.3294 11.705 18.3472 12.1212 18.2363 12.5107L18.1816 12.6758C18.0548 13.0023 17.8364 13.2348 17.6514 13.4033C17.4718 13.5668 17.2375 13.7438 16.9971 13.9268L13.209 16.8096C12.8459 17.0859 12.5184 17.3358 12.2412 17.5098C11.9781 17.6748 11.5926 17.8836 11.126 17.8789C10.5446 17.8728 9.99622 17.6082 9.63574 17.1592C9.34678 16.7989 9.27931 16.3721 9.25098 16.0664C9.22115 15.744 9.22168 15.3349 9.22168 14.8828V9.11719C9.22168 8.6651 9.22115 8.25599 9.25098 7.93359C9.27933 7.62789 9.34676 7.20099 9.63574 6.84082C9.99622 6.39185 10.5446 6.12723 11.126 6.12109ZM11.2529 8.22949C11.2415 8.43223 11.2373 8.70846 11.2373 9.11719V14.8828C11.2373 15.2914 11.2415 15.5678 11.2529 15.7705C11.4229 15.6554 11.6479 15.4903 11.9766 15.2402L15.7646 12.3574C15.9832 12.1911 16.1222 12.0824 16.2197 12C16.1222 11.9176 15.9832 11.8098 15.7646 11.6436L11.9766 8.75977C11.6479 8.50965 11.4229 8.3446 11.2529 8.22949Z" fill="black"/>
</svg>
