<svg width="24" height="24" viewBox="0 0 24 24" fill="none" xmlns="http://www.w3.org/2000/svg">
<path d="M19.293 0.293748C19.6835 -0.0967766 20.3165 -0.0967766 20.707 0.293748L23.6865 3.27226C24.0883 3.67425 24.0884 4.32641 23.6865 4.72832L20.707 7.70683C20.3165 8.09703 19.6834 8.09715 19.293 7.70683C18.9027 7.31639 18.9028 6.68327 19.293 6.29277L20.5859 4.9998H16.9004C16.3482 4.99981 15.9006 5.44766 15.9004 5.9998V9.9998C15.9003 10.7693 15.6073 11.4688 15.1309 11.9998C15.6074 12.5308 15.9003 13.2302 15.9004 13.9998V17.9998C15.9005 18.552 16.3482 18.9998 16.9004 18.9998H20.5859L19.293 17.7078C18.9026 17.3174 18.9029 16.6843 19.293 16.2937C19.6835 15.9032 20.3165 15.9032 20.707 16.2937L23.6865 19.2723C24.0883 19.6743 24.0884 20.3264 23.6865 20.7283L20.707 23.7068C20.3165 24.097 19.6834 24.0971 19.293 23.7068C18.9027 23.3164 18.9028 22.6833 19.293 22.2928L20.5859 20.9998H16.9004C15.2436 20.9998 13.9005 19.6565 13.9004 17.9998V13.9998C13.9002 13.4478 13.4524 13 12.9004 12.9998H10.6855L10.7148 12.9119C10.8929 12.2861 10.8822 11.622 10.6865 10.9998H12.9004C13.4524 10.9996 13.9003 10.5518 13.9004 9.9998V5.9998C13.9006 4.34309 15.2436 2.99981 16.9004 2.9998H20.5859L19.293 1.70781C18.9026 1.31744 18.9029 0.684309 19.293 0.293748Z" fill="black"/>
<path fill-rule="evenodd" clip-rule="evenodd" d="M2.14844 6.1209C2.61508 6.11622 3.00057 6.32504 3.26367 6.49004C3.54088 6.66395 3.86839 6.91395 4.23145 7.19023L8.01953 10.074C8.2601 10.2571 8.49421 10.4339 8.67383 10.5975C8.8355 10.7447 9.02236 10.94 9.15137 11.2049L9.2041 11.324C9.35188 11.7048 9.36964 12.121 9.25879 12.5105L9.2041 12.6756C9.0773 13.0021 8.85882 13.2347 8.67383 13.4031C8.49426 13.5666 8.25994 13.7436 8.01953 13.9266L4.23145 16.8094C3.86839 17.0857 3.54089 17.3356 3.26367 17.5096C3.00057 17.6746 2.61509 17.8834 2.14844 17.8787C1.56704 17.8726 1.01868 17.608 0.658204 17.159C0.369261 16.7988 0.301768 16.3719 0.273438 16.0662C0.243615 15.7438 0.244141 15.3347 0.244141 14.8826V9.11699C0.244141 8.66492 0.243613 8.25579 0.273438 7.9334C0.301789 7.62769 0.369231 7.20077 0.658204 6.84062C1.01868 6.39166 1.56705 6.12703 2.14844 6.1209ZM2.27539 8.22929C2.26394 8.43203 2.25977 8.70828 2.25977 9.11699V14.8826C2.25977 15.2911 2.26395 15.5676 2.27539 15.7703C2.44538 15.6552 2.67041 15.4901 2.99902 15.24L6.78711 12.3572C7.00565 12.1909 7.14464 12.0822 7.24219 11.9998C7.14464 11.9175 7.00562 11.8096 6.78711 11.6434L2.99902 8.75957C2.67036 8.50946 2.44539 8.3444 2.27539 8.22929Z" fill="black"/>
</svg>
