<svg width="24" height="24" viewBox="0 0 24 24" fill="none" xmlns="http://www.w3.org/2000/svg">
<path fill-rule="evenodd" clip-rule="evenodd" d="M6.16146 2H17.8385C18.3657 1.99998 18.8205 1.99997 19.195 2.03057C19.5904 2.06287 19.9836 2.13419 20.362 2.32698C20.9265 2.6146 21.3854 3.07354 21.673 3.63803C21.8658 4.01641 21.9371 4.40963 21.9694 4.80497C22 5.17954 22 5.6343 22 6.16144V17.8386C22 18.3657 22 18.8205 21.9694 19.195C21.9371 19.5904 21.8658 19.9836 21.673 20.362C21.3854 20.9265 20.9265 21.3854 20.362 21.673C19.9836 21.8658 19.5904 21.9371 19.195 21.9694C18.8205 22 18.3657 22 17.8386 22H6.16144C5.6343 22 5.17954 22 4.80497 21.9694C4.40963 21.9371 4.01641 21.8658 3.63803 21.673C3.07354 21.3854 2.6146 20.9265 2.32698 20.362C2.13419 19.9836 2.06287 19.5904 2.03057 19.195C1.99997 18.8205 1.99998 18.3657 2 17.8385V6.16146C1.99998 5.63431 1.99997 5.17955 2.03057 4.80497C2.06287 4.40963 2.13419 4.01641 2.32698 3.63803C2.6146 3.07354 3.07354 2.6146 3.63803 2.32698C4.01641 2.13419 4.40963 2.06287 4.80497 2.03057C5.17955 1.99997 5.63431 1.99998 6.16146 2ZM4.96784 4.02393C4.69617 4.04612 4.59546 4.0838 4.54601 4.109C4.35785 4.20487 4.20487 4.35785 4.109 4.54601C4.0838 4.59546 4.04612 4.69617 4.02393 4.96784C4.00078 5.25117 4 5.62345 4 6.2V17.8C4 18.3766 4.00078 18.7488 4.02393 19.0322C4.04612 19.3038 4.0838 19.4045 4.109 19.454C4.20487 19.6422 4.35785 19.7951 4.54601 19.891C4.59546 19.9162 4.69617 19.9539 4.96784 19.9761C5.25117 19.9992 5.62345 20 6.2 20H17.8C18.3766 20 18.7488 19.9992 19.0322 19.9761C19.3038 19.9539 19.4045 19.9162 19.454 19.891C19.6422 19.7951 19.7951 19.6422 19.891 19.454C19.9162 19.4045 19.9539 19.3038 19.9761 19.0322C19.9992 18.7488 20 18.3766 20 17.8V6.2C20 5.62345 19.9992 5.25117 19.9761 4.96784C19.9539 4.69617 19.9162 4.59546 19.891 4.54601C19.7951 4.35785 19.6422 4.20487 19.454 4.109C19.4045 4.0838 19.3038 4.04612 19.0322 4.02393C18.7488 4.00078 18.3766 4 17.8 4H6.2C5.62345 4 5.25117 4.00078 4.96784 4.02393Z" fill="black"/>
</svg>
