<svg width="24" height="24" viewBox="0 0 24 24" fill="none" xmlns="http://www.w3.org/2000/svg">
<path d="M18.7705 17.2588C19.6528 17.3486 20.3408 18.094 20.3408 19C20.3408 19.906 19.6528 20.6514 18.7705 20.7412L18.5908 20.75H4.90918C3.94272 20.75 3.15918 19.9665 3.15918 19C3.15918 18.0335 3.94272 17.25 4.90918 17.25H18.5908L18.7705 17.2588Z" fill="black"/>
<path d="M21.75 10.25C22.7165 10.25 23.5 11.0335 23.5 12C23.5 12.9665 22.7165 13.75 21.75 13.75H1.75C0.783615 13.7499 0 12.9664 0 12C0 11.0336 0.783615 10.2501 1.75 10.25H21.75Z" fill="black"/>
<path d="M18.7705 3.25879C19.6528 3.34859 20.3408 4.09404 20.3408 5C20.3408 5.90596 19.6528 6.65141 18.7705 6.74121L18.5908 6.75H4.90918C3.94272 6.74996 3.15918 5.96647 3.15918 5C3.15918 4.03353 3.94272 3.25004 4.90918 3.25H18.5908L18.7705 3.25879Z" fill="black"/>
</svg>
