<svg width="24" height="24" viewBox="0 0 24 24" fill="none" xmlns="http://www.w3.org/2000/svg">
<path d="M18.8408 17.5C19.6691 17.5002 20.3408 18.1717 20.3408 19C20.3408 19.8283 19.6691 20.4998 18.8408 20.5H5.15918C4.33075 20.5 3.65918 19.8284 3.65918 19C3.65918 18.1716 4.33075 17.5 5.15918 17.5H18.8408Z" fill="black"/>
<path d="M22.5 10.5C23.3283 10.5001 24 11.1716 24 12C24 12.8284 23.3283 13.4999 22.5 13.5H1.5C0.671573 13.5 0 12.8284 0 12C0 11.1716 0.671573 10.5 1.5 10.5H22.5Z" fill="black"/>
<path d="M18.8408 3.5C19.6691 3.50019 20.3408 4.17169 20.3408 5C20.3408 5.82831 19.6691 6.49981 18.8408 6.5H5.15918C4.33075 6.5 3.65918 5.82843 3.65918 5C3.65918 4.17157 4.33075 3.5 5.15918 3.5H18.8408Z" fill="black"/>
</svg>
