<svg width="24" height="24" viewBox="0 0 24 24" fill="none" xmlns="http://www.w3.org/2000/svg">
<path d="M22.75 18.75C22.8881 18.75 23 18.8619 23 19C23 19.1381 22.8881 19.25 22.75 19.25H1.25C1.11193 19.25 1 19.1381 1 19C1 18.8619 1.11193 18.75 1.25 18.75H22.75Z" fill="black"/>
<path d="M22.75 11.75C22.8881 11.75 23 11.8619 23 12C23 12.1381 22.8881 12.25 22.75 12.25H1.25C1.11193 12.25 1 12.1381 1 12C1 11.8619 1.11193 11.75 1.25 11.75H22.75Z" fill="black"/>
<path d="M22.75 4.75C22.8881 4.75 23 4.86193 23 5C23 5.13807 22.8881 5.25 22.75 5.25H1.25C1.11193 5.25 1 5.13807 1 5C1 4.86193 1.11193 4.75 1.25 4.75H22.75Z" fill="black"/>
</svg>
