<svg width="24" height="24" viewBox="0 0 24 24" fill="none" xmlns="http://www.w3.org/2000/svg">
<path fill-rule="evenodd" clip-rule="evenodd" d="M2.27979 0.750003C2.15763 0.749974 2.02518 0.749943 1.91053 0.759309C1.78078 0.769911 1.60935 0.79615 1.43252 0.886248C1.19732 1.00609 1.00609 1.19732 0.886248 1.43252C0.79615 1.60935 0.769911 1.78078 0.759309 1.91053C0.749943 2.02518 0.749974 2.15763 0.750003 2.27979L0.750003 9.72022C0.749974 9.84238 0.749942 9.97483 0.759309 10.0895C0.769911 10.2192 0.79615 10.3907 0.886248 10.5675C1.00609 10.8027 1.19732 10.9939 1.43252 11.1138C1.60935 11.2039 1.78078 11.2301 1.91053 11.2407C2.02516 11.2501 2.15758 11.25 2.27973 11.25H9.72023C9.84238 11.25 9.97485 11.2501 10.0895 11.2407C10.2192 11.2301 10.3907 11.2039 10.5675 11.1138C10.8027 10.9939 10.9939 10.8027 11.1138 10.5675C11.2039 10.3907 11.2301 10.2192 11.2407 10.0895C11.2501 9.97485 11.25 9.84243 11.25 9.72029V2.27978C11.25 2.15764 11.2501 2.02516 11.2407 1.91053C11.2301 1.78078 11.2039 1.60935 11.1138 1.43252C10.9939 1.19732 10.8027 1.00609 10.5675 0.886248C10.3907 0.79615 10.2192 0.769911 10.0895 0.759309C9.97483 0.749942 9.84238 0.749974 9.72022 0.750003H2.27979ZM2.25002 2.25002H9.74999V9.74999H2.25002L2.25002 2.25002Z" fill="black"/>
<path fill-rule="evenodd" clip-rule="evenodd" d="M14.2798 0.750003C14.1576 0.749974 14.0252 0.749942 13.9105 0.759309C13.7808 0.769911 13.6093 0.79615 13.4325 0.886248C13.1973 1.00609 13.0061 1.19732 12.8862 1.43252C12.7961 1.60935 12.7699 1.78078 12.7593 1.91053C12.7499 2.02516 12.75 2.15759 12.75 2.27974V9.72022C12.75 9.84237 12.7499 9.97485 12.7593 10.0895C12.7699 10.2192 12.7961 10.3907 12.8862 10.5675C13.0061 10.8027 13.1973 10.9939 13.4325 11.1138C13.6093 11.2039 13.7808 11.2301 13.9105 11.2407C14.0252 11.2501 14.1576 11.25 14.2797 11.25H21.7202C21.8424 11.25 21.9749 11.2501 22.0895 11.2407C22.2192 11.2301 22.3907 11.2039 22.5675 11.1138C22.8027 10.9939 22.9939 10.8027 23.1138 10.5675C23.2039 10.3907 23.2301 10.2192 23.2407 10.0895C23.2501 9.97485 23.25 9.84243 23.25 9.72029V2.27978C23.25 2.15764 23.2501 2.02516 23.2407 1.91053C23.2301 1.78078 23.2039 1.60935 23.1138 1.43252C22.9939 1.19732 22.8027 1.00609 22.5675 0.886248C22.3907 0.79615 22.2192 0.769911 22.0895 0.759309C21.9748 0.749942 21.8424 0.749974 21.7202 0.750003H14.2798ZM14.25 2.25002H21.75V9.74999H14.25L14.25 2.25002Z" fill="black"/>
<path fill-rule="evenodd" clip-rule="evenodd" d="M2.27979 12.75H9.72022C9.84238 12.75 9.97484 12.7499 10.0895 12.7593C10.2192 12.7699 10.3907 12.7961 10.5675 12.8862C10.8027 13.0061 10.9939 13.1973 11.1138 13.4325C11.2039 13.6093 11.2301 13.7808 11.2407 13.9105C11.2501 14.0252 11.25 14.1576 11.25 14.2797V21.7202C11.25 21.8424 11.2501 21.9748 11.2407 22.0895C11.2301 22.2192 11.2039 22.3907 11.1138 22.5675C10.9939 22.8027 10.8027 22.9939 10.5675 23.1138C10.3907 23.2039 10.2192 23.2301 10.0895 23.2407C9.97485 23.2501 9.84243 23.25 9.72029 23.25H2.27978C2.15764 23.25 2.02516 23.2501 1.91053 23.2407C1.78078 23.2301 1.60935 23.2039 1.43252 23.1138C1.19732 22.9939 1.00609 22.8027 0.886248 22.5675C0.79615 22.3907 0.769911 22.2192 0.759309 22.0895C0.749942 21.9748 0.749974 21.8424 0.750003 21.7202V14.2798C0.749974 14.1576 0.749942 14.0252 0.759309 13.9105C0.769911 13.7808 0.79615 13.6093 0.886248 13.4325C1.00609 13.1973 1.19732 13.0061 1.43252 12.8862C1.60935 12.7961 1.78078 12.7699 1.91053 12.7593C2.02517 12.7499 2.15764 12.75 2.27979 12.75ZM2.25002 14.25L2.25002 21.75H9.74999V14.25H2.25002Z" fill="black"/>
<path fill-rule="evenodd" clip-rule="evenodd" d="M14.2798 12.75C14.1576 12.75 14.0252 12.7499 13.9105 12.7593C13.7808 12.7699 13.6093 12.7961 13.4325 12.8862C13.1973 13.0061 13.0061 13.1973 12.8862 13.4325C12.7961 13.6093 12.7699 13.7808 12.7593 13.9105C12.7499 14.0252 12.75 14.1576 12.75 14.2798V21.7202C12.75 21.8424 12.7499 21.9748 12.7593 22.0895C12.7699 22.2192 12.7961 22.3907 12.8862 22.5675C13.0061 22.8027 13.1973 22.9939 13.4325 23.1138C13.6093 23.2039 13.7808 23.2301 13.9105 23.2407C14.0252 23.2501 14.1576 23.25 14.2797 23.25H21.7202C21.8424 23.25 21.9749 23.2501 22.0895 23.2407C22.2192 23.2301 22.3907 23.2039 22.5675 23.1138C22.8027 22.9939 22.9939 22.8027 23.1138 22.5675C23.2039 22.3907 23.2301 22.2192 23.2407 22.0895C23.2501 21.9749 23.25 21.8424 23.25 21.7203V14.2798C23.25 14.1576 23.2501 14.0252 23.2407 13.9105C23.2301 13.7808 23.2039 13.6093 23.1138 13.4325C22.9939 13.1973 22.8027 13.0061 22.5675 12.8862C22.3907 12.7961 22.2192 12.7699 22.0895 12.7593C21.9748 12.7499 21.8424 12.75 21.7202 12.75H14.2798ZM14.25 14.25H21.75V21.75H14.25L14.25 14.25Z" fill="black"/>
</svg>
