<svg width="24" height="24" viewBox="0 0 24 24" fill="none" xmlns="http://www.w3.org/2000/svg">
<path d="M22.75 17.75C23.4404 17.75 24 18.3096 24 19C24 19.6904 23.4404 20.25 22.75 20.25H1.25C0.559644 20.25 0 19.6904 0 19C0 18.3096 0.559644 17.75 1.25 17.75H22.75Z" fill="black"/>
<path d="M22.75 10.75C23.4404 10.75 24 11.3096 24 12C24 12.6904 23.4404 13.25 22.75 13.25H1.25C0.559644 13.25 0 12.6904 0 12C0 11.3096 0.559644 10.75 1.25 10.75H22.75Z" fill="black"/>
<path d="M22.75 3.75C23.4404 3.75 24 4.30964 24 5C24 5.69036 23.4404 6.25 22.75 6.25H1.25C0.559644 6.25 0 5.69036 0 5C0 4.30964 0.559644 3.75 1.25 3.75H22.75Z" fill="black"/>
</svg>
