<svg width="24" height="24" viewBox="0 0 24 24" fill="none" xmlns="http://www.w3.org/2000/svg">
<path d="M18.8408 18.5C19.1169 18.5 19.3408 18.7239 19.3408 19C19.3408 19.2761 19.1169 19.5 18.8408 19.5H5.15918C4.88304 19.5 4.65918 19.2761 4.65918 19C4.65918 18.7239 4.88304 18.5 5.15918 18.5H18.8408Z" fill="black"/>
<path d="M22.75 11.5C23.0261 11.5 23.25 11.7239 23.25 12C23.25 12.2761 23.0261 12.5 22.75 12.5H1.25C0.973858 12.5 0.75 12.2761 0.75 12C0.75 11.7239 0.973858 11.5 1.25 11.5H22.75Z" fill="black"/>
<path d="M18.8408 4.5C19.1169 4.50002 19.3408 4.72387 19.3408 5C19.3408 5.27613 19.1169 5.49998 18.8408 5.5H5.15918C4.88304 5.5 4.65918 5.27614 4.65918 5C4.65918 4.72386 4.88304 4.5 5.15918 4.5H18.8408Z" fill="black"/>
</svg>
