<svg width="24" height="24" viewBox="0 0 24 24" fill="none" xmlns="http://www.w3.org/2000/svg">
<path d="M14.7959 14.5C15.7623 14.5001 16.5459 15.2836 16.5459 16.25C16.5459 17.2164 15.7623 17.9999 14.7959 18H1.75C0.783657 17.9998 0 17.2164 0 16.25C0 15.2836 0.783657 14.5002 1.75 14.5H14.7959Z" fill="black"/>
<path d="M22.4297 6.00879C23.3119 6.0986 24 6.84405 24 7.75C24 8.65595 23.3119 9.4014 22.4297 9.49121L22.25 9.5H1.75C0.783657 9.49982 0 8.71639 0 7.75C0 6.78361 0.783657 6.00018 1.75 6H22.25L22.4297 6.00879Z" fill="black"/>
</svg>
