<svg width="24" height="24" viewBox="0 0 24 24" fill="none" xmlns="http://www.w3.org/2000/svg">
<path d="M1.77687 6.17364e-06H9.22315C9.34227 -3.93643e-05 9.48452 -9.37236e-05 9.60984 0.0101453C9.75506 0.02201 9.96305 0.0524534 10.181 0.163502C10.4632 0.307312 10.6927 0.536783 10.8365 0.819026C10.9476 1.03697 10.978 1.24496 10.9899 1.39018C11.0001 1.5155 11.0001 1.65777 11 1.77688V9.22314C11.0001 9.34226 11.0001 9.48452 10.9899 9.60984C10.978 9.75506 10.9476 9.96305 10.8365 10.181C10.6927 10.4632 10.4632 10.6927 10.181 10.8365C9.96305 10.9476 9.75506 10.978 9.60984 10.9899C9.48452 11.0001 9.34226 11.0001 9.22314 11H1.77688C1.65777 11.0001 1.5155 11.0001 1.39018 10.9899C1.24496 10.978 1.03697 10.9476 0.819026 10.8365C0.536783 10.6927 0.307312 10.4632 0.163502 10.181C0.0524534 9.96305 0.02201 9.75506 0.0101453 9.60984C-9.37236e-05 9.48452 -3.93643e-05 9.34227 6.17364e-06 9.22315V1.77687C-3.93643e-05 1.65776 -9.37236e-05 1.5155 0.0101453 1.39018C0.02201 1.24496 0.0524534 1.03697 0.163502 0.819026C0.307312 0.536783 0.536783 0.307312 0.819026 0.163502C1.03697 0.0524534 1.24496 0.02201 1.39018 0.0101453C1.5155 -9.37236e-05 1.65776 -3.93643e-05 1.77687 6.17364e-06Z" fill="black"/>
<path d="M1.77687 13H9.22315C9.34226 13 9.48453 12.9999 9.60984 13.0101C9.75506 13.022 9.96305 13.0525 10.181 13.1635C10.4632 13.3073 10.6927 13.5368 10.8365 13.819C10.9476 14.037 10.978 14.245 10.9899 14.3902C11.0001 14.5155 11.0001 14.6578 11 14.7769V22.2231C11.0001 22.3423 11.0001 22.4845 10.9899 22.6098C10.978 22.7551 10.9476 22.9631 10.8365 23.181C10.6927 23.4632 10.4632 23.6927 10.181 23.8365C9.96305 23.9476 9.75506 23.978 9.60984 23.9899C9.48455 24.0001 9.34233 24.0001 9.22323 24H1.77688C1.65778 24.0001 1.51547 24.0001 1.39018 23.9899C1.24496 23.978 1.03697 23.9476 0.819026 23.8365C0.536783 23.6927 0.307312 23.4632 0.163502 23.181C0.0524534 22.9631 0.02201 22.7551 0.0101453 22.6098C-9.37236e-05 22.4845 -3.93643e-05 22.3423 6.17364e-06 22.2232V14.7769C-3.93643e-05 14.6578 -9.37236e-05 14.5155 0.0101453 14.3902C0.02201 14.245 0.0524534 14.037 0.163502 13.819C0.307312 13.5368 0.536783 13.3073 0.819026 13.1635C1.03697 13.0525 1.24496 13.022 1.39018 13.0101C1.51549 12.9999 1.65776 13 1.77687 13Z" fill="black"/>
<path d="M14.7769 13C14.6578 13 14.5155 12.9999 14.3902 13.0101C14.245 13.022 14.037 13.0525 13.819 13.1635C13.5368 13.3073 13.3073 13.5368 13.1635 13.819C13.0525 14.037 13.022 14.245 13.0101 14.3902C12.9999 14.5155 13 14.6577 13 14.7768V22.2232C13 22.3423 12.9999 22.4845 13.0101 22.6098C13.022 22.7551 13.0525 22.9631 13.1635 23.181C13.3073 23.4632 13.5368 23.6927 13.819 23.8365C14.037 23.9476 14.245 23.978 14.3902 23.9899C14.5155 24.0001 14.6577 24.0001 14.7768 24H22.2231C22.3422 24.0001 22.4845 24.0001 22.6098 23.9899C22.7551 23.978 22.9631 23.9476 23.181 23.8365C23.4632 23.6927 23.6927 23.4632 23.8365 23.181C23.9476 22.9631 23.978 22.7551 23.9899 22.6098C24.0001 22.4845 24.0001 22.3423 24 22.2232V14.7769C24.0001 14.6578 24.0001 14.5155 23.9899 14.3902C23.978 14.245 23.9476 14.037 23.8365 13.819C23.6927 13.5368 23.4632 13.3073 23.181 13.1635C22.9631 13.0525 22.7551 13.022 22.6098 13.0101C22.4845 12.9999 22.3423 13 22.2232 13H14.7769Z" fill="black"/>
<path fill-rule="evenodd" clip-rule="evenodd" d="M14.7769 6.17364e-06C14.6578 -3.93643e-05 14.5155 -9.37236e-05 14.3902 0.0101453C14.245 0.02201 14.037 0.0524534 13.819 0.163502C13.5368 0.307312 13.3073 0.536783 13.1635 0.819026C13.0525 1.03697 13.022 1.24496 13.0101 1.39018C12.9999 1.51549 13 1.65773 13 1.77684V9.22315C13 9.34226 12.9999 9.48453 13.0101 9.60984C13.022 9.75506 13.0525 9.96305 13.1635 10.181C13.3073 10.4632 13.5368 10.6927 13.819 10.8365C14.037 10.9476 14.245 10.978 14.3902 10.9899C14.5155 11.0001 14.6578 11.0001 14.7769 11H22.2231C22.3423 11.0001 22.4845 11.0001 22.6098 10.9899C22.7551 10.978 22.9631 10.9476 23.181 10.8365C23.4632 10.6927 23.6927 10.4632 23.8365 10.181C23.9476 9.96305 23.978 9.75506 23.9899 9.60984C24.0001 9.48453 24.0001 9.34228 24 9.22316V1.77688C24.0001 1.65777 24.0001 1.5155 23.9899 1.39018C23.978 1.24496 23.9476 1.03697 23.8365 0.819026C23.6927 0.536783 23.4632 0.307312 23.181 0.163502C22.9631 0.0524534 22.7551 0.02201 22.6098 0.0101453C22.4845 -9.37236e-05 22.3423 -3.93643e-05 22.2232 6.17364e-06H14.7769ZM15 9.00001V2.00001H22V9.00001H15Z" fill="black"/>
</svg>
