<svg width="24" height="24" viewBox="0 0 24 24" fill="none" xmlns="http://www.w3.org/2000/svg">
<path d="M2.19217 0.199229H9.33895C9.45047 0.199165 9.59858 0.199079 9.73132 0.209924C9.88859 0.222774 10.1306 0.256866 10.3875 0.387753C10.7129 0.553575 10.9775 0.818168 11.1434 1.14361C11.2743 1.40049 11.3083 1.64253 11.3212 1.7998C11.332 1.93254 11.332 2.08065 11.3319 2.19217V9.33894C11.332 9.45047 11.332 9.59857 11.3212 9.73132C11.3083 9.88859 11.2743 10.1306 11.1434 10.3875C10.9775 10.7129 10.7129 10.9775 10.3875 11.1434C10.1306 11.2743 9.88859 11.3083 9.73132 11.3212C9.59857 11.332 9.45047 11.332 9.33895 11.3319H2.19217C2.08065 11.332 1.93254 11.332 1.7998 11.3212C1.64253 11.3083 1.40049 11.2743 1.14361 11.1434C0.818169 10.9775 0.553575 10.7129 0.387753 10.3875C0.256866 10.1306 0.222774 9.88859 0.209924 9.73132C0.199079 9.59858 0.199165 9.45047 0.199229 9.33895V2.19217C0.199165 2.08064 0.199079 1.93254 0.209924 1.7998C0.222774 1.64253 0.256866 1.40049 0.387753 1.14361C0.553575 0.818168 0.818169 0.553575 1.14361 0.387753C1.40049 0.256866 1.64253 0.222774 1.7998 0.209924C1.93254 0.199079 2.08064 0.199165 2.19217 0.199229Z" fill="black"/>
<path d="M2.19217 12.6686H9.33895C9.45047 12.6685 9.59858 12.6684 9.73132 12.6793C9.88859 12.6921 10.1306 12.7262 10.3875 12.8571C10.7129 13.0229 10.9775 13.2875 11.1434 13.613C11.2743 13.8699 11.3083 14.1119 11.3212 14.2692C11.332 14.4019 11.332 14.55 11.3319 14.6615V21.8083C11.332 21.9198 11.332 22.0679 11.3212 22.2007C11.3083 22.358 11.2743 22.6 11.1434 22.8569C10.9775 23.1823 10.7129 23.4469 10.3875 23.6127C10.1306 23.7436 9.88859 23.7777 9.73132 23.7906C9.59857 23.8014 9.45047 23.8013 9.33895 23.8013H2.19217C2.08065 23.8013 1.93254 23.8014 1.7998 23.7906C1.64253 23.7777 1.40049 23.7436 1.14361 23.6127C0.818168 23.4469 0.553575 23.1823 0.387753 22.8569C0.256866 22.6 0.222774 22.358 0.209924 22.2007C0.199079 22.0679 0.199165 21.9198 0.199229 21.8083V14.6615C0.199165 14.55 0.199079 14.4019 0.209924 14.2692C0.222774 14.1119 0.256866 13.8699 0.387753 13.613C0.553575 13.2875 0.818168 13.0229 1.14361 12.8571C1.40049 12.7262 1.64253 12.6921 1.7998 12.6793C1.93254 12.6684 2.08064 12.6685 2.19217 12.6686Z" fill="black"/>
<path d="M14.6615 12.6686C14.55 12.6685 14.4019 12.6684 14.2692 12.6793C14.1119 12.6921 13.8699 12.7262 13.613 12.8571C13.2875 13.0229 13.0229 13.2875 12.8571 13.613C12.7262 13.8699 12.6921 14.1119 12.6793 14.2692C12.6684 14.4019 12.6685 14.55 12.6686 14.6615V21.8083C12.6685 21.9198 12.6684 22.068 12.6793 22.2007C12.6921 22.358 12.7262 22.6 12.8571 22.8569C13.0229 23.1823 13.2875 23.4469 13.613 23.6127C13.8699 23.7436 14.1119 23.7777 14.2692 23.7906C14.4019 23.8014 14.55 23.8013 14.6615 23.8013H21.8083C21.9198 23.8013 22.0679 23.8014 22.2007 23.7906C22.358 23.7777 22.6 23.7436 22.8569 23.6127C23.1823 23.4469 23.4469 23.1823 23.6127 22.8569C23.7436 22.6 23.7777 22.358 23.7906 22.2007C23.8014 22.0679 23.8013 21.9198 23.8013 21.8083V14.6615C23.8013 14.55 23.8014 14.4019 23.7906 14.2692C23.7777 14.1119 23.7436 13.8699 23.6127 13.613C23.4469 13.2875 23.1823 13.0229 22.8569 12.8571C22.6 12.7262 22.358 12.6921 22.2007 12.6793C22.0679 12.6684 21.9198 12.6685 21.8083 12.6686H14.6615Z" fill="black"/>
<path fill-rule="evenodd" clip-rule="evenodd" d="M14.6615 0.199229C14.55 0.199165 14.4019 0.199079 14.2692 0.209924C14.1119 0.222774 13.8699 0.256866 13.613 0.387753C13.2875 0.553575 13.0229 0.818168 12.8571 1.14361C12.7262 1.40049 12.6921 1.64253 12.6793 1.7998C12.6684 1.93254 12.6685 2.08064 12.6686 2.19217V9.33895C12.6685 9.45047 12.6684 9.59858 12.6793 9.73132C12.6921 9.88859 12.7262 10.1306 12.8571 10.3875C13.0229 10.7129 13.2875 10.9775 13.613 11.1434C13.8699 11.2743 14.1119 11.3083 14.2692 11.3212C14.4019 11.332 14.55 11.332 14.6615 11.3319H21.8083C21.9198 11.332 22.0679 11.332 22.2007 11.3212C22.358 11.3083 22.6 11.2743 22.8569 11.1434C23.1823 10.9775 23.4469 10.7129 23.6127 10.3875C23.7436 10.1306 23.7777 9.88859 23.7906 9.73132C23.8014 9.59857 23.8013 9.45047 23.8013 9.33894V2.19217C23.8013 2.08065 23.8014 1.93254 23.7906 1.7998C23.7777 1.64253 23.7436 1.40049 23.6127 1.14361C23.4469 0.818168 23.1823 0.553575 22.8569 0.387753C22.6 0.256866 22.358 0.222774 22.2007 0.209924C22.0679 0.199079 21.9198 0.199165 21.8083 0.199229H14.6615ZM15.1686 8.83188V2.69924H21.3012V8.83188H15.1686Z" fill="black"/>
</svg>
