<svg width="24" height="24" viewBox="0 0 24 24" fill="none" xmlns="http://www.w3.org/2000/svg">
<path d="M18.8408 18C19.3931 18 19.8408 18.4477 19.8408 19C19.8408 19.5523 19.3931 20 18.8408 20H5.15918C4.60689 20 4.15918 19.5523 4.15918 19C4.15918 18.4477 4.60689 18 5.15918 18H18.8408Z" fill="black"/>
<path d="M22.75 11C23.3023 11 23.75 11.4477 23.75 12C23.75 12.5523 23.3023 13 22.75 13H1.25C0.697715 13 0.25 12.5523 0.25 12C0.25 11.4477 0.697715 11 1.25 11H22.75Z" fill="black"/>
<path d="M18.8408 4C19.3931 4.00002 19.8408 4.44773 19.8408 5C19.8408 5.55227 19.3931 5.99998 18.8408 6H5.15918C4.60689 6 4.15918 5.55228 4.15918 5C4.15918 4.44772 4.60689 4 5.15918 4H18.8408Z" fill="black"/>
</svg>
