<svg width="24" height="24" viewBox="0 0 24 24" fill="none" xmlns="http://www.w3.org/2000/svg">
<path d="M18.8408 18.75C18.9789 18.75 19.0908 18.8619 19.0908 19C19.0908 19.1381 18.9789 19.25 18.8408 19.25H5.15918C5.02111 19.25 4.90918 19.1381 4.90918 19C4.90918 18.8619 5.02111 18.75 5.15918 18.75H18.8408Z" fill="black"/>
<path d="M22.75 11.75C22.8881 11.75 23 11.8619 23 12C23 12.1381 22.8881 12.25 22.75 12.25H1.25C1.11193 12.25 1 12.1381 1 12C1 11.8619 1.11193 11.75 1.25 11.75H22.75Z" fill="black"/>
<path d="M18.8408 4.75C18.9789 4.75002 19.0908 4.86194 19.0908 5C19.0908 5.13806 18.9789 5.24998 18.8408 5.25H5.15918C5.02111 5.25 4.90918 5.13807 4.90918 5C4.90918 4.86193 5.02111 4.75 5.15918 4.75H18.8408Z" fill="black"/>
</svg>
