<svg width="24" height="24" viewBox="0 0 24 24" fill="none" xmlns="http://www.w3.org/2000/svg">
<path d="M22.75 18C23.3023 18 23.75 18.4477 23.75 19C23.75 19.5523 23.3023 20 22.75 20H1.25C0.697715 20 0.25 19.5523 0.25 19C0.25 18.4477 0.697715 18 1.25 18H22.75Z" fill="black"/>
<path d="M22.75 11C23.3023 11 23.75 11.4477 23.75 12C23.75 12.5523 23.3023 13 22.75 13H1.25C0.697715 13 0.25 12.5523 0.25 12C0.25 11.4477 0.697715 11 1.25 11H22.75Z" fill="black"/>
<path d="M22.75 4C23.3023 4 23.75 4.44772 23.75 5C23.75 5.55228 23.3023 6 22.75 6H1.25C0.697715 6 0.25 5.55228 0.25 5C0.25 4.44772 0.697715 4 1.25 4H22.75Z" fill="black"/>
</svg>
