<svg width="24" height="24" viewBox="0 0 24 24" fill="none" xmlns="http://www.w3.org/2000/svg">
<path d="M22.75 18.5C23.0261 18.5 23.25 18.7239 23.25 19C23.25 19.2761 23.0261 19.5 22.75 19.5H1.25C0.973858 19.5 0.75 19.2761 0.75 19C0.75 18.7239 0.973858 18.5 1.25 18.5H22.75Z" fill="black"/>
<path d="M22.75 11.5C23.0261 11.5 23.25 11.7239 23.25 12C23.25 12.2761 23.0261 12.5 22.75 12.5H1.25C0.973858 12.5 0.75 12.2761 0.75 12C0.75 11.7239 0.973858 11.5 1.25 11.5H22.75Z" fill="black"/>
<path d="M22.75 4.5C23.0261 4.5 23.25 4.72386 23.25 5C23.25 5.27614 23.0261 5.5 22.75 5.5H1.25C0.973858 5.5 0.75 5.27614 0.75 5C0.75 4.72386 0.973858 4.5 1.25 4.5H22.75Z" fill="black"/>
</svg>
