<svg width="24" height="24" viewBox="0 0 24 24" fill="none" xmlns="http://www.w3.org/2000/svg">
<path d="M2.28405 1H9.71595C9.84212 0.999987 9.96506 0.999974 10.0691 1.00848C10.1834 1.01781 10.3183 1.03985 10.454 1.109C10.6422 1.20487 10.7951 1.35785 10.891 1.54601C10.9602 1.68173 10.9822 1.81659 10.9915 1.93089C11 2.03494 11 2.15779 11 2.28394V9.71596C11 9.84211 11 9.96507 10.9915 10.0691C10.9822 10.1834 10.9602 10.3183 10.891 10.454C10.7951 10.6422 10.6422 10.7951 10.454 10.891C10.3183 10.9602 10.1834 10.9822 10.0691 10.9915C9.96507 11 9.84222 11 9.71607 11H2.28405C2.1579 11 2.03494 11 1.93089 10.9915C1.81659 10.9822 1.68173 10.9602 1.54601 10.891C1.35785 10.7951 1.20487 10.6422 1.109 10.454C1.03985 10.3183 1.01781 10.1834 1.00848 10.0691C0.999974 9.96506 0.999987 9.84218 1 9.71601V2.28405C0.999987 2.15788 0.999974 2.03495 1.00848 1.93089C1.01781 1.81659 1.03985 1.68173 1.109 1.54601C1.20487 1.35785 1.35785 1.20487 1.54601 1.109C1.68173 1.03985 1.81659 1.01781 1.93089 1.00848C2.03495 0.999974 2.15788 0.999987 2.28405 1Z" fill="black"/>
<path d="M2.28405 13H9.71595C9.8421 13 9.96507 13 10.0691 13.0085C10.1834 13.0178 10.3183 13.0398 10.454 13.109C10.6422 13.2049 10.7951 13.3579 10.891 13.546C10.9602 13.6817 10.9822 13.8166 10.9915 13.9309C11 14.0349 11 14.1578 11 14.2839V21.716C11 21.8421 11 21.9651 10.9915 22.0691C10.9822 22.1834 10.9602 22.3183 10.891 22.454C10.7951 22.6422 10.6422 22.7951 10.454 22.891C10.3183 22.9602 10.1834 22.9822 10.0691 22.9915C9.96506 23 9.84219 23 9.71603 23H2.28405C2.15788 23 2.03495 23 1.93089 22.9915C1.81659 22.9822 1.68173 22.9602 1.54601 22.891C1.35785 22.7951 1.20487 22.6422 1.109 22.454C1.03985 22.3183 1.01781 22.1834 1.00848 22.0691C0.999974 21.9651 0.999987 21.8422 1 21.716V14.2841C0.999987 14.1579 0.999974 14.035 1.00848 13.9309C1.01781 13.8166 1.03985 13.6817 1.109 13.546C1.20487 13.3579 1.35785 13.2049 1.54601 13.109C1.68173 13.0398 1.81659 13.0178 1.93089 13.0085C2.03494 13 2.1579 13 2.28405 13Z" fill="black"/>
<path d="M14.2841 13C14.1579 13 14.0349 13 13.9309 13.0085C13.8166 13.0178 13.6817 13.0398 13.546 13.109C13.3579 13.2049 13.2049 13.3579 13.109 13.546C13.0398 13.6817 13.0178 13.8166 13.0085 13.9309C13 14.0349 13 14.1578 13 14.284V21.716C13 21.8421 13 21.9651 13.0085 22.0691C13.0178 22.1834 13.0398 22.3183 13.109 22.454C13.2049 22.6422 13.3579 22.7951 13.546 22.891C13.6817 22.9602 13.8166 22.9822 13.9309 22.9915C14.035 23 14.1578 23 14.284 23H21.716C21.8421 23 21.9651 23 22.0691 22.9915C22.1834 22.9822 22.3183 22.9602 22.454 22.891C22.6422 22.7951 22.7951 22.6422 22.891 22.454C22.9602 22.3183 22.9822 22.1834 22.9915 22.0691C23 21.9651 23 21.8422 23 21.716V14.284C23 14.1579 23 14.035 22.9915 13.9309C22.9822 13.8166 22.9602 13.6817 22.891 13.546C22.7951 13.3579 22.6422 13.2049 22.454 13.109C22.3183 13.0398 22.1834 13.0178 22.0691 13.0085C21.9651 13 21.8422 13 21.716 13H14.2841Z" fill="black"/>
<path fill-rule="evenodd" clip-rule="evenodd" d="M14.2841 1C14.1579 0.999987 14.035 0.999974 13.9309 1.00848C13.8166 1.01781 13.6817 1.03985 13.546 1.109C13.3579 1.20487 13.2049 1.35785 13.109 1.54601C13.0398 1.68173 13.0178 1.81659 13.0085 1.93089C13 2.03495 13 2.15782 13 2.284V9.71595C13 9.84212 13 9.96506 13.0085 10.0691C13.0178 10.1834 13.0398 10.3183 13.109 10.454C13.2049 10.6422 13.3579 10.7951 13.546 10.891C13.6817 10.9602 13.8166 10.9822 13.9309 10.9915C14.0349 11 14.1578 11 14.284 11H21.716C21.8421 11 21.9651 11 22.0691 10.9915C22.1834 10.9822 22.3183 10.9602 22.454 10.891C22.6422 10.7951 22.7951 10.6422 22.891 10.454C22.9602 10.3183 22.9822 10.1834 22.9915 10.0691C23 9.96505 23 9.84216 23 9.71598V2.28405C23 2.15786 23 2.03496 22.9915 1.93089C22.9822 1.81659 22.9602 1.68173 22.891 1.54601C22.7951 1.35785 22.6422 1.20487 22.454 1.109C22.3183 1.03985 22.1834 1.01781 22.0691 1.00848C21.9651 0.999974 21.8422 0.999987 21.716 1H14.2841ZM14.0052 2.01232L14.0057 2.00573L14.0123 2.00516C14.0706 2.00039 14.1517 2 14.3 2H21.7C21.8483 2 21.9294 2.00039 21.9877 2.00516L21.9943 2.00573L21.9949 2.01232C21.9996 2.07061 22 2.15174 22 2.3V9.7C22 9.84827 21.9996 9.92939 21.9949 9.98769L21.9943 9.99428L21.9877 9.99485C21.9294 9.99961 21.8483 10 21.7 10H14.3C14.1517 10 14.0706 9.99961 14.0123 9.99485L14.0057 9.99428L14.0052 9.98769C14.0004 9.92939 14 9.84827 14 9.7V2.3C14 2.15174 14.0004 2.07061 14.0052 2.01232Z" fill="black"/>
</svg>
