<svg width="24" height="24" viewBox="0 0 24 24" fill="none" xmlns="http://www.w3.org/2000/svg">
<path fill-rule="evenodd" clip-rule="evenodd" d="M0.123117 8.43565C0 9.21298 0 10.142 0 12C0 13.858 0 14.787 0.123117 15.5643C0.800832 19.8433 4.15673 23.1992 8.43565 23.8769C9.21298 24 10.142 24 12 24C13.858 24 14.787 24 15.5643 23.8769C19.8433 23.1992 23.1992 19.8433 23.8769 15.5643C24 14.787 24 13.858 24 12C24 10.142 24 9.21298 23.8769 8.43565C23.1992 4.15673 19.8433 0.800832 15.5643 0.123117C14.787 0 13.858 0 12 0C10.142 0 9.21298 0 8.43565 0.123117C4.15673 0.800832 0.800832 4.15673 0.123117 8.43565ZM9.56946 6.55771C9.56946 5.23453 10.6421 4.16187 11.9653 4.16187C13.2885 4.16187 14.3611 5.23453 14.3611 6.55771V11.1222C14.3611 12.4454 13.2885 13.518 11.9653 13.518C10.6421 13.518 9.56946 12.4454 9.56946 11.1222V6.55771ZM6.90332 8.62072C7.38657 8.62072 7.77832 9.01248 7.77832 9.49572V10.8291C7.77832 13.3287 9.70624 15.2874 12.0028 15.2874C14.2993 15.2874 16.2273 13.3287 16.2273 10.8291V9.49572C16.2273 9.01248 16.619 8.62072 17.1023 8.62072C17.5855 8.62072 17.9773 9.01248 17.9773 9.49572V10.8291C17.9773 13.953 15.7387 16.5895 12.7782 16.9859V17.9546H14.5706C15.0539 17.9546 15.4456 18.3464 15.4456 18.8296C15.4456 19.3129 15.0539 19.7046 14.5706 19.7046H9.23731C8.75406 19.7046 8.36231 19.3129 8.36231 18.8296C8.36231 18.3464 8.75406 17.9546 9.23731 17.9546H11.0282V16.9557C8.16701 16.4703 6.02832 13.8825 6.02832 10.8291V9.49572C6.02832 9.01248 6.42007 8.62072 6.90332 8.62072Z" fill="black"/>
</svg>
