<svg width="24" height="24" viewBox="0 0 24 24" fill="none" xmlns="http://www.w3.org/2000/svg">
<path fill-rule="evenodd" clip-rule="evenodd" d="M11.9453 0.75C9.82247 0.75 8.10156 2.47091 8.10156 4.59375V11.4405C8.10156 13.5633 9.82247 15.2843 11.9453 15.2843C14.0682 15.2843 15.7891 13.5633 15.7891 11.4405V4.59375C15.7891 2.47091 14.0682 0.75 11.9453 0.75ZM8.60156 4.59375C8.60156 2.74705 10.0986 1.25 11.9453 1.25C13.792 1.25 15.2891 2.74705 15.2891 4.59375V11.4405C15.2891 13.2872 13.792 14.7843 11.9453 14.7843C10.0986 14.7843 8.60156 13.2872 8.60156 11.4405V4.59375Z" fill="black"/>
<path d="M4.60156 9.00001C4.60156 8.86194 4.48963 8.75001 4.35156 8.75001C4.21349 8.75001 4.10156 8.86194 4.10156 9.00001V11C4.10156 15.4064 7.41497 19.0223 11.6013 19.2397V22.75H7.85132C7.71325 22.75 7.60132 22.8619 7.60132 23C7.60132 23.1381 7.71325 23.25 7.85132 23.25H15.8513C15.9894 23.25 16.1013 23.1381 16.1013 23C16.1013 22.8619 15.9894 22.75 15.8513 22.75H12.1013V19.2494C16.4277 19.1931 19.9 15.5108 19.9 11V9.00001C19.9 8.86194 19.788 8.75001 19.65 8.75001C19.5119 8.75001 19.4 8.86194 19.4 9.00001V11C19.4 15.2909 16.0768 18.75 12.0008 18.75C7.92474 18.75 4.60156 15.2909 4.60156 11V9.00001Z" fill="black"/>
</svg>
