<svg width="24" height="24" viewBox="0 0 24 24" fill="none" xmlns="http://www.w3.org/2000/svg">
<path fill-rule="evenodd" clip-rule="evenodd" d="M0.123117 8.43565C0 9.21298 0 10.142 0 12C0 13.858 0 14.787 0.123117 15.5643C0.800832 19.8433 4.15673 23.1992 8.43565 23.8769C9.21298 24 10.142 24 12 24C13.858 24 14.787 24 15.5643 23.8769C19.8433 23.1992 23.1992 19.8433 23.8769 15.5643C24 14.787 24 13.858 24 12C24 10.142 24 9.21298 23.8769 8.43565C23.1992 4.15673 19.8433 0.800832 15.5643 0.123117C14.787 0 13.858 0 12 0C10.142 0 9.21298 0 8.43565 0.123117C4.15673 0.800832 0.800832 4.15673 0.123117 8.43565ZM9.56946 6.55771C9.56946 5.23453 10.6421 4.16187 11.9653 4.16187C13.2885 4.16187 14.3611 5.23453 14.3611 6.55771V11.1222C14.3611 12.4454 13.2885 13.518 11.9653 13.518C10.6421 13.518 9.56946 12.4454 9.56946 11.1222V6.55771ZM6.90332 8.49572C7.45561 8.49572 7.90332 8.94344 7.90332 9.49572V10.8291C7.90332 13.265 9.7805 15.1624 12.0028 15.1624C14.2251 15.1624 16.1023 13.265 16.1023 10.8291V9.49572C16.1023 8.94344 16.55 8.49572 17.1023 8.49572C17.6545 8.49572 18.1023 8.94344 18.1023 9.49572V10.8291C18.1023 13.9737 15.8747 16.6405 12.9032 17.0944V17.8296H14.5706C15.1229 17.8296 15.5706 18.2773 15.5706 18.8296C15.5706 19.3819 15.1229 19.8296 14.5706 19.8296H9.23731C8.68502 19.8296 8.23731 19.3819 8.23731 18.8296C8.23731 18.2773 8.68502 17.8296 9.23731 17.8296H10.9032V17.0604C8.03183 16.5204 5.90332 13.903 5.90332 10.8291V9.49572C5.90332 8.94344 6.35104 8.49572 6.90332 8.49572Z" fill="black"/>
</svg>
