<svg width="24" height="25" viewBox="0 0 24 25" fill="none" xmlns="http://www.w3.org/2000/svg">
<path d="M11.9446 1C9.95981 1 8.35083 2.60898 8.35083 4.59375V11.4405C8.35083 13.4253 9.95981 15.0343 11.9446 15.0343C13.9294 15.0343 15.5383 13.4253 15.5383 11.4405V4.59375C15.5383 2.60898 13.9294 1 11.9446 1Z" fill="black"/>
<path d="M5.60083 9.00001C5.60083 8.30966 5.04119 7.75001 4.35083 7.75001C3.66047 7.75001 3.10083 8.30966 3.10083 9.00001V11C3.10083 15.5699 6.31414 19.4366 10.6006 20.137V21.75H7.85059C7.16023 21.75 6.60059 22.3097 6.60059 23C6.60059 23.6904 7.16023 24.25 7.85059 24.25H15.8506C16.5409 24.25 17.1006 23.6904 17.1006 23C17.1006 22.3097 16.5409 21.75 15.8506 21.75H13.1006V20.1804C17.5357 19.615 20.8992 15.6755 20.8992 11V9.00001C20.8992 8.30966 20.3396 7.75001 19.6492 7.75001C18.9589 7.75001 18.3992 8.30966 18.3992 9.00001V11C18.3992 14.7814 15.482 17.75 12 17.75C8.51808 17.75 5.60083 14.7814 5.60083 11V9.00001Z" fill="black"/>
</svg>
