<svg width="24" height="24" viewBox="0 0 24 24" fill="none" xmlns="http://www.w3.org/2000/svg">
<path fill-rule="evenodd" clip-rule="evenodd" d="M0.123117 8.43565C0 9.21298 0 10.142 0 12C0 13.858 0 14.787 0.123117 15.5643C0.800832 19.8433 4.15673 23.1992 8.43565 23.8769C9.21298 24 10.142 24 12 24C13.858 24 14.787 24 15.5643 23.8769C19.8433 23.1992 23.1992 19.8433 23.8769 15.5643C24 14.787 24 13.858 24 12C24 10.142 24 9.21298 23.8769 8.43565C23.1992 4.15673 19.8433 0.800832 15.5643 0.123117C14.787 0 13.858 0 12 0C10.142 0 9.21298 0 8.43565 0.123117C4.15673 0.800832 0.800832 4.15673 0.123117 8.43565ZM9.56946 6.55771C9.56946 5.23452 10.6421 4.16187 11.9653 4.16187C13.2885 4.16187 14.3611 5.23452 14.3611 6.55771V11.1222C14.3611 12.4454 13.2885 13.518 11.9653 13.518C10.6421 13.518 9.56946 12.4454 9.56946 11.1222V6.55771ZM6.90332 8.87072C7.2485 8.87072 7.52832 9.15055 7.52832 9.49572V10.8291C7.52832 13.4561 9.55772 15.5374 12.0028 15.5374C14.4479 15.5374 16.4773 13.4561 16.4773 10.8291V9.49572C16.4773 9.15055 16.7571 8.87072 17.1023 8.87072C17.4474 8.87072 17.7273 9.15055 17.7273 9.49572V10.8291C17.7273 13.9116 15.4647 16.486 12.5282 16.7628V18.2046H14.5706C14.9158 18.2046 15.1956 18.4845 15.1956 18.8296C15.1956 19.1748 14.9158 19.4546 14.5706 19.4546H9.23731C8.89213 19.4546 8.61231 19.1748 8.61231 18.8296C8.61231 18.4845 8.89213 18.2046 9.23731 18.2046H11.2782V16.7403C8.43914 16.3687 6.27832 13.8415 6.27832 10.8291V9.49572C6.27832 9.15055 6.55814 8.87072 6.90332 8.87072Z" fill="black"/>
</svg>
