<svg width="24" height="24" viewBox="0 0 24 24" fill="none" xmlns="http://www.w3.org/2000/svg">
<path d="M11.9446 1C9.95981 1 8.35083 2.60898 8.35083 4.59375V11.4405C8.35083 13.4253 9.95981 15.0343 11.9446 15.0343C13.9294 15.0343 15.5383 13.4253 15.5383 11.4405V4.59375C15.5383 2.60898 13.9294 1 11.9446 1Z" fill="black"/>
<path d="M5.35083 9.00001C5.35083 8.44773 4.90311 8.00001 4.35083 8.00001C3.79855 8.00001 3.35083 8.44773 3.35083 9.00001L3.35083 11C3.35083 15.5289 6.58626 19.335 10.8506 19.9216V22H7.85059C7.2983 22 6.85059 22.4477 6.85059 23C6.85059 23.5523 7.2983 24 7.85059 24H15.8506C16.4029 24 16.8506 23.5523 16.8506 23C16.8506 22.4477 16.4029 22 15.8506 22H12.8506V19.9573C17.2617 19.5115 20.6492 15.6341 20.6492 11V9.00001C20.6492 8.44773 20.2015 8.00001 19.6492 8.00001C19.0969 8.00001 18.6492 8.44773 18.6492 9.00001V11C18.6492 14.9087 15.6305 18 12 18C8.36956 18 5.35083 14.9087 5.35083 11V9.00001Z" fill="black"/>
</svg>
