<svg width="24" height="24" viewBox="0 0 24 24" fill="none" xmlns="http://www.w3.org/2000/svg">
<path d="M11.9446 1C9.95979 1 8.35081 2.60898 8.35081 4.59375V11.4405C8.35081 13.4253 9.95979 15.0343 11.9446 15.0343C13.9293 15.0343 15.5383 13.4253 15.5383 11.4405V4.59375C15.5383 2.60898 13.9293 1 11.9446 1Z" fill="black"/>
<path d="M4.98825 9.00001C4.98825 8.64797 4.70286 8.36258 4.35081 8.36258C3.99877 8.36258 3.71338 8.64797 3.71338 9.00001L3.71338 11C3.71338 15.483 7.00396 19.2079 11.2516 19.6028V22.401H7.85057C7.51977 22.401 7.25161 22.6692 7.25161 23C7.25161 23.3308 7.51977 23.599 7.85057 23.599L15.8506 23.599C16.1814 23.599 16.4495 23.3308 16.4495 23C16.4495 22.6692 16.1814 22.401 15.8506 22.401H12.4495V19.625C16.8407 19.3813 20.2866 15.5877 20.2866 11V9.00001C20.2866 8.64797 20.0013 8.36258 19.6492 8.36258C19.2972 8.36258 19.0118 8.64797 19.0118 9.00001V11C19.0118 15.0935 15.8459 18.3626 12 18.3626C8.15415 18.3626 4.98825 15.0935 4.98825 11V9.00001Z" fill="black"/>
</svg>
