<svg width="24" height="25" viewBox="0 0 24 25" fill="none" xmlns="http://www.w3.org/2000/svg">
<path fill-rule="evenodd" clip-rule="evenodd" d="M11.9453 0C9.27018 0 7.10156 2.16863 7.10156 4.84375V11.6905C7.10156 14.3656 9.27018 16.5343 11.9453 16.5343C14.6204 16.5343 16.7891 14.3656 16.7891 11.6905V4.84375C16.7891 2.16862 14.6204 0 11.9453 0ZM9.60156 4.84375C9.60156 3.54933 10.6509 2.5 11.9453 2.5C13.2397 2.5 14.2891 3.54933 14.2891 4.84375V11.6905C14.2891 12.9849 13.2397 14.0343 11.9453 14.0343C10.6509 14.0343 9.60156 12.9849 9.60156 11.6905V4.84375Z" fill="black"/>
<path d="M5.60156 9.25001C5.60156 8.55966 5.04192 8.00001 4.35156 8.00001C3.66121 8.00001 3.10156 8.55966 3.10156 9.25001V11.25C3.10156 15.8199 6.31487 19.6866 10.6013 20.387V22H7.85132C7.16096 22 6.60132 22.5597 6.60132 23.25C6.60132 23.9404 7.16096 24.5 7.85132 24.5H15.8513C16.5417 24.5 17.1013 23.9404 17.1013 23.25C17.1013 22.5597 16.5417 22 15.8513 22H13.1013V20.4304C17.5364 19.865 20.9 15.9255 20.9 11.25V9.25001C20.9 8.55966 20.3403 8.00001 19.65 8.00001C18.9596 8.00001 18.4 8.55966 18.4 9.25001V11.25C18.4 15.0314 15.4827 18 12.0008 18C8.51881 18 5.60156 15.0314 5.60156 11.25V9.25001Z" fill="black"/>
</svg>
