<svg width="24" height="25" viewBox="0 0 24 25" fill="none" xmlns="http://www.w3.org/2000/svg">
<path d="M11.9443 1C9.95956 1 8.35059 2.60898 8.35059 4.59375V11.4405C8.35059 13.4253 9.95956 15.0343 11.9443 15.0343C13.9291 15.0343 15.5381 13.4253 15.5381 11.4405V4.59375C15.5381 2.60898 13.9291 1 11.9443 1Z" fill="black"/>
<path d="M5.60059 9.00001C5.60059 8.30966 5.04094 7.75001 4.35059 7.75001C3.66023 7.75001 3.10059 8.30966 3.10059 9.00001V11C3.10059 15.5699 6.3139 19.4366 10.6003 20.137V21.75H7.85034C7.15999 21.75 6.60034 22.3097 6.60034 23C6.60034 23.6904 7.15999 24.25 7.85034 24.25H15.8503C16.5407 24.25 17.1003 23.6904 17.1003 23C17.1003 22.3097 16.5407 21.75 15.8503 21.75H13.1003V20.1804C17.5354 19.615 20.899 15.6755 20.899 11V9.00001C20.899 8.30966 20.3393 7.75001 19.649 7.75001C18.9586 7.75001 18.399 8.30966 18.399 9.00001V11C18.399 14.7814 15.4817 17.75 11.9998 17.75C8.51784 17.75 5.60059 14.7814 5.60059 11V9.00001Z" fill="black"/>
</svg>
