<svg width="24" height="24" viewBox="0 0 24 24" fill="none" xmlns="http://www.w3.org/2000/svg">
<path fill-rule="evenodd" clip-rule="evenodd" d="M0.123117 8.43565C0 9.21298 0 10.142 0 12C0 13.858 0 14.787 0.123117 15.5643C0.800832 19.8433 4.15673 23.1992 8.43565 23.8769C9.21298 24 10.142 24 12 24C13.858 24 14.787 24 15.5643 23.8769C19.8433 23.1992 23.1992 19.8433 23.8769 15.5643C24 14.787 24 13.858 24 12C24 10.142 24 9.21298 23.8769 8.43565C23.1992 4.15673 19.8433 0.800832 15.5643 0.123117C14.787 0 13.858 0 12 0C10.142 0 9.21298 0 8.43565 0.123117C4.15673 0.800832 0.800832 4.15673 0.123117 8.43565ZM9.56946 6.55771C9.56946 5.23453 10.6421 4.16187 11.9653 4.16187C13.2885 4.16187 14.3611 5.23453 14.3611 6.55771V11.1222C14.3611 12.4454 13.2885 13.518 11.9653 13.518C10.6421 13.518 9.56946 12.4454 9.56946 11.1222V6.55771ZM6.90332 8.99572C7.17946 8.99572 7.40332 9.21958 7.40332 9.49572V10.8291C7.40332 13.5198 9.48346 15.6624 12.0028 15.6624C14.5221 15.6624 16.6023 13.5198 16.6023 10.8291V9.49572C16.6023 9.21958 16.8261 8.99572 17.1023 8.99572C17.3784 8.99572 17.6023 9.21958 17.6023 9.49572V10.8291C17.6023 13.8909 15.3266 16.4335 12.4032 16.6478V18.3296H14.5706C14.8468 18.3296 15.0706 18.5535 15.0706 18.8296C15.0706 19.1058 14.8468 19.3296 14.5706 19.3296H9.23731C8.96116 19.3296 8.73731 19.1058 8.73731 18.8296C8.73731 18.5535 8.96116 18.3296 9.23731 18.3296H11.4032V16.6295C8.57621 16.3171 6.40332 13.821 6.40332 10.8291V9.49572C6.40332 9.21958 6.62718 8.99572 6.90332 8.99572Z" fill="black"/>
</svg>
