<svg width="24" height="24" viewBox="0 0 24 24" fill="none" xmlns="http://www.w3.org/2000/svg">
<path d="M11.9446 1C9.95981 1 8.35083 2.60898 8.35083 4.59375V11.4405C8.35083 13.4253 9.95981 15.0343 11.9446 15.0343C13.9294 15.0343 15.5383 13.4253 15.5383 11.4405V4.59375C15.5383 2.60898 13.9294 1 11.9446 1Z" fill="black"/>
<path d="M5.10083 9.00001C5.10083 8.5858 4.76504 8.25001 4.35083 8.25001C3.93662 8.25001 3.60083 8.5858 3.60083 9.00001L3.60083 11C3.60083 15.4879 6.86016 19.2321 11.1006 19.7006V22.25H7.85059C7.43637 22.25 7.10059 22.5858 7.10059 23C7.10059 23.4142 7.43637 23.75 7.85059 23.75H15.8506C16.2648 23.75 16.6006 23.4142 16.6006 23C16.6006 22.5858 16.2648 22.25 15.8506 22.25H12.6006V19.7281C16.9858 19.4067 20.3992 15.5928 20.3992 11V9.00001C20.3992 8.5858 20.0634 8.25001 19.6492 8.25001C19.235 8.25001 18.8992 8.5858 18.8992 9.00001V11C18.8992 15.0361 15.779 18.25 12 18.25C8.22104 18.25 5.10083 15.0361 5.10083 11V9.00001Z" fill="black"/>
</svg>
