<svg width="24" height="24" viewBox="0 0 24 24" fill="none" xmlns="http://www.w3.org/2000/svg">
<path fill-rule="evenodd" clip-rule="evenodd" d="M0.123117 8.43565C0 9.21298 0 10.142 0 12C0 13.858 0 14.787 0.123117 15.5643C0.800832 19.8433 4.15673 23.1992 8.43565 23.8769C9.21298 24 10.142 24 12 24C13.858 24 14.787 24 15.5643 23.8769C19.8433 23.1992 23.1992 19.8433 23.8769 15.5643C24 14.787 24 13.858 24 12C24 10.142 24 9.21298 23.8769 8.43565C23.1992 4.15673 19.8433 0.800832 15.5643 0.123117C14.787 0 13.858 0 12 0C10.142 0 9.21298 0 8.43565 0.123117C4.15673 0.800832 0.800832 4.15673 0.123117 8.43565ZM9.56946 6.55771C9.56946 5.23452 10.6421 4.16187 11.9653 4.16187C13.2885 4.16187 14.3611 5.23452 14.3611 6.55771V11.1222C14.3611 12.4454 13.2885 13.518 11.9653 13.518C10.6421 13.518 9.56946 12.4454 9.56946 11.1222V6.55771ZM6.90332 9.24572C7.04139 9.24572 7.15332 9.35765 7.15332 9.49572V10.8291C7.15332 13.6472 9.33495 15.9124 12.0028 15.9124C14.6706 15.9124 16.8523 13.6472 16.8523 10.8291V9.49572C16.8523 9.35765 16.9642 9.24572 17.1023 9.24572C17.2403 9.24572 17.3523 9.35765 17.3523 9.49572V10.8291C17.3523 13.855 15.04 16.3355 12.1383 16.4106C12.1479 16.4372 12.1532 16.4658 12.1532 16.4957V18.4957C12.1532 18.5252 12.1481 18.5534 12.1387 18.5796H14.5706C14.7087 18.5796 14.8206 18.6916 14.8206 18.8296C14.8206 18.9677 14.7087 19.0796 14.5706 19.0796H9.23731C9.09923 19.0796 8.98731 18.9677 8.98731 18.8296C8.98731 18.6916 9.09923 18.5796 9.23731 18.5796H11.6676C11.6582 18.5534 11.6532 18.5252 11.6532 18.4957V16.4957C11.6532 16.4625 11.6596 16.4309 11.6714 16.4019C8.86221 16.2231 6.65332 13.7866 6.65332 10.8291V9.49572C6.65332 9.35765 6.76525 9.24572 6.90332 9.24572Z" fill="black"/>
</svg>
