<svg width="24" height="24" viewBox="0 0 24 24" fill="none" xmlns="http://www.w3.org/2000/svg">
<path fill-rule="evenodd" clip-rule="evenodd" d="M7.35083 4.59375C7.35083 2.0567 9.40752 0 11.9446 0C14.4816 0 16.5383 2.05669 16.5383 4.59375V11.4405C16.5383 13.9776 14.4816 16.0343 11.9446 16.0343C9.40752 16.0343 7.35083 13.9776 7.35083 11.4405V4.59375ZM11.9446 2C10.5121 2 9.35083 3.16126 9.35083 4.59375V11.4405C9.35083 12.873 10.5121 14.0343 11.9446 14.0343C13.3771 14.0343 14.5383 12.873 14.5383 11.4405V4.59375C14.5383 3.16126 13.3771 2 11.9446 2Z" fill="black"/>
<path d="M4.35083 8.00001C4.90311 8.00001 5.35083 8.44773 5.35083 9.00001V11C5.35083 14.9087 8.36956 18 12 18C15.6305 18 18.6492 14.9087 18.6492 11V9.00001C18.6492 8.44773 19.0969 8.00001 19.6492 8.00001C20.2015 8.00001 20.6492 8.44773 20.6492 9.00001V11C20.6492 15.6341 17.2617 19.5115 12.8506 19.9573V22.5C12.8506 23.0523 12.4029 23.5 11.8506 23.5C11.2983 23.5 10.8506 23.0523 10.8506 22.5V19.9216C6.58626 19.335 3.35083 15.5289 3.35083 11V9.00001C3.35083 8.44773 3.79855 8.00001 4.35083 8.00001Z" fill="black"/>
</svg>
