<svg width="24" height="24" viewBox="0 0 24 24" fill="none" xmlns="http://www.w3.org/2000/svg">
<path d="M8.35032 4.59375C8.35032 2.60898 9.9593 1 11.9441 1C13.9288 1 15.5378 2.60898 15.5378 4.59375V11.4405C15.5378 13.4253 13.9288 15.0343 11.9441 15.0343C9.9593 15.0343 8.35032 13.4253 8.35032 11.4405V4.59375Z" fill="black"/>
<path d="M4.35032 8.36258C4.70237 8.36258 4.98776 8.64797 4.98776 9.00001V11C4.98776 15.0935 8.15367 18.3626 11.9995 18.3626C15.8454 18.3626 19.0113 15.0935 19.0113 11V9.00001C19.0113 8.64797 19.2967 8.36258 19.6487 8.36258C20.0008 8.36258 20.2862 8.64797 20.2862 9.00001V11C20.2862 15.5877 16.8402 19.3813 12.449 19.625V22.5C12.449 22.8308 12.1809 23.099 11.8501 23.099C11.5193 23.099 11.2511 22.8308 11.2511 22.5V19.6028C7.00347 19.2079 3.71289 15.483 3.71289 11L3.71289 9.00001C3.71289 8.64797 3.99828 8.36258 4.35032 8.36258Z" fill="black"/>
</svg>
