<svg width="24" height="24" viewBox="0 0 24 24" fill="none" xmlns="http://www.w3.org/2000/svg">
<path d="M8.35059 4.59375C8.35059 2.60898 9.95956 1 11.9443 1C13.9291 1 15.5381 2.60898 15.5381 4.59375V11.4405C15.5381 13.4253 13.9291 15.0343 11.9443 15.0343C9.95956 15.0343 8.35059 13.4253 8.35059 11.4405V4.59375Z" fill="black"/>
<path d="M4.35059 8.25001C4.7648 8.25001 5.10059 8.5858 5.10059 9.00001V11C5.10059 15.0361 8.2208 18.25 11.9998 18.25C15.7788 18.25 18.899 15.0361 18.899 11V9.00001C18.899 8.5858 19.2348 8.25001 19.649 8.25001C20.0632 8.25001 20.399 8.5858 20.399 9.00001V11C20.399 15.5928 16.9855 19.4067 12.6003 19.7281V22.5C12.6003 22.9142 12.2646 23.25 11.8503 23.25C11.4361 23.25 11.1003 22.9142 11.1003 22.5V19.7006C6.85992 19.2321 3.60059 15.4879 3.60059 11L3.60059 9.00001C3.60059 8.5858 3.93637 8.25001 4.35059 8.25001Z" fill="black"/>
</svg>
