<svg width="24" height="24" viewBox="0 0 24 24" fill="none" xmlns="http://www.w3.org/2000/svg">
<path d="M3.79888 0.905216C3.50599 0.612324 3.03112 0.612324 2.73822 0.905216C2.44533 1.19811 2.44533 1.67298 2.73822 1.96588L20.2941 19.5217C20.587 19.8146 21.0618 19.8146 21.3547 19.5217C21.6476 19.2288 21.6476 18.754 21.3547 18.4611L3.79888 0.905216Z" fill="black"/>
<path d="M8.35081 11.4405V10.0531L13.1314 14.8337C12.7598 14.9636 12.3604 15.0342 11.9446 15.0342C9.95979 15.0342 8.35081 13.4253 8.35081 11.4405Z" fill="black"/>
<path d="M12 18C13.2137 18 14.3591 17.6545 15.3461 17.0484L16.7926 18.4949C15.646 19.2911 14.3039 19.8104 12.8506 19.9573L12.8506 22H15.8506C16.4029 22 16.8506 22.4477 16.8506 23C16.8506 23.5523 16.4029 24 15.8506 24H7.85057C7.29828 24 6.85057 23.5523 6.85057 23C6.85057 22.4477 7.29828 22 7.85057 22H10.8506V19.9216C6.58624 19.335 3.35081 15.5289 3.35081 11L3.35081 9.00001C3.35081 8.44772 3.79853 8.00001 4.35081 8.00001C4.9031 8.00001 5.35081 8.44772 5.35081 9.00001V11C5.35081 14.9087 8.36954 18 12 18Z" fill="black"/>
<path d="M18.3736 13.0048L19.9401 14.5713C20.3968 13.4735 20.6492 12.265 20.6492 11V9.00001C20.6492 8.44772 20.2015 8.00001 19.6492 8.00001C19.0969 8.00001 18.6492 8.44772 18.6492 9.00001V11C18.6492 11.6987 18.5527 12.3713 18.3736 13.0048Z" fill="black"/>
<path d="M8.61285 3.24409L15.5383 10.1695V4.59374C15.5383 2.60897 13.9293 0.999992 11.9446 0.999992C10.4371 0.999992 9.14647 1.92811 8.61285 3.24409Z" fill="black"/>
</svg>
