<svg width="24" height="25" viewBox="0 0 24 25" fill="none" xmlns="http://www.w3.org/2000/svg">
<path d="M3.79888 1.90522C3.50599 1.61233 3.03112 1.61233 2.73822 1.90522C2.44533 2.19812 2.44533 2.67299 2.73822 2.96589L20.2941 20.5217C20.587 20.8146 21.0618 20.8146 21.3547 20.5217C21.6476 20.2288 21.6476 19.754 21.3547 19.4611L3.79888 1.90522Z" fill="black"/>
<path d="M7.10081 12.4405V9.80312L9.60081 12.3031V12.4405C9.60081 13.7349 10.6501 14.7843 11.9446 14.7843C11.9894 14.7843 12.034 14.783 12.0782 14.7805L14.0847 16.787C13.4394 17.1054 12.7128 17.2843 11.9446 17.2843C9.26943 17.2843 7.10081 15.1156 7.10081 12.4405Z" fill="black"/>
<path d="M14.2883 5.59375V9.91955L16.7883 12.4196V5.59375C16.7883 2.91862 14.6197 0.75 11.9446 0.75C10.0971 0.75 8.49114 1.78435 7.6743 3.30554L9.62494 5.25618C9.78859 4.12171 10.7648 3.25 11.9446 3.25C13.239 3.25 14.2883 4.29933 14.2883 5.59375Z" fill="black"/>
<path d="M12 18.75C13.1433 18.75 14.2257 18.43 15.1639 17.8662L16.9724 19.6747C15.8436 20.4673 14.5275 20.9985 13.1006 21.1804L13.1006 23.5C13.1006 24.1904 12.5409 24.75 11.8506 24.75C11.1602 24.75 10.6006 24.1904 10.6006 23.5V21.137C6.31412 20.4366 3.10081 16.5699 3.10081 12L3.10081 10C3.10081 9.30966 3.66045 8.75001 4.35081 8.75001C5.04117 8.75001 5.60081 9.30966 5.60081 10L5.60081 12C5.60081 15.7814 8.51806 18.75 12 18.75Z" fill="black"/>
<path d="M18.1701 13.8013L20.1306 15.7619C20.6253 14.6087 20.8992 13.3344 20.8992 12V10C20.8992 9.30966 20.3396 8.75002 19.6492 8.75002C18.9589 8.75002 18.3992 9.30966 18.3992 10V12C18.3992 12.626 18.3193 13.2297 18.1701 13.8013Z" fill="black"/>
</svg>
