<svg width="24" height="24" viewBox="0 0 24 24" fill="none" xmlns="http://www.w3.org/2000/svg">
<path d="M3.62113 1.082C3.42587 0.88674 3.10929 0.88674 2.91402 1.082C2.71876 1.27726 2.71876 1.59385 2.91402 1.78911L20.4699 19.345C20.6651 19.5402 20.9817 19.5402 21.177 19.345C21.3722 19.1497 21.3722 18.8331 21.177 18.6379L3.62113 1.082Z" fill="black"/>
<path d="M7.59983 11.4405V8.59601L9.09983 10.096V11.4405C9.09983 13.0111 10.373 14.2843 11.9436 14.2843C12.34 14.2843 12.7175 14.2031 13.0604 14.0566L14.1731 15.1692C13.5213 15.5598 12.7587 15.7843 11.9436 15.7843C9.5446 15.7843 7.59984 13.8395 7.59983 11.4405Z" fill="black"/>
<path d="M14.7873 4.59375V10.1267L16.2836 11.6229C16.2861 11.5624 16.2873 11.5016 16.2873 11.4405V4.59375C16.2873 2.19476 14.3426 0.25 11.9436 0.25C10.0411 0.25 8.42427 1.47309 7.83652 3.17584L9.10376 4.44308C9.18209 2.94257 10.4236 1.75 11.9436 1.75C13.5141 1.75 14.7873 3.02319 14.7873 4.59375Z" fill="black"/>
<path d="M11.999 18.25C13.4617 18.25 14.8256 17.7686 15.9482 16.9443L17.02 18.0162C15.7727 18.9874 14.2554 19.6067 12.5996 19.7281L12.5996 22.25H15.8496C16.2638 22.25 16.5996 22.5858 16.5996 23C16.5996 23.4142 16.2638 23.75 15.8496 23.75H7.84959C7.43538 23.75 7.09959 23.4142 7.09959 23C7.09959 22.5858 7.43538 22.25 7.84959 22.25H11.0996V19.7006C6.85916 19.2321 3.59983 15.4879 3.59983 11L3.59983 9.00001C3.59983 8.5858 3.93562 8.25001 4.34983 8.25001C4.76405 8.25001 5.09983 8.5858 5.09983 9.00001L5.09983 11C5.09983 15.0361 8.22005 18.25 11.999 18.25Z" fill="black"/>
<path d="M18.3927 13.732L19.5323 14.8716C20.0872 13.7018 20.3982 12.3864 20.3982 11V9.00002C20.3982 8.5858 20.0624 8.25002 19.6482 8.25002C19.234 8.25002 18.8982 8.5858 18.8982 9.00002V11C18.8982 11.9691 18.7183 12.8908 18.3927 13.732Z" fill="black"/>
</svg>
