<svg width="24" height="24" viewBox="0 0 24 24" fill="none" xmlns="http://www.w3.org/2000/svg">
<path d="M8.35059 4.59375C8.35059 2.60898 9.95956 1 11.9443 1C13.9291 1 15.5381 2.60898 15.5381 4.59375V11.4405C15.5381 13.4253 13.9291 15.0343 11.9443 15.0343C9.95956 15.0343 8.35059 13.4253 8.35059 11.4405V4.59375Z" fill="black"/>
<path d="M4.35059 8.00001C4.90287 8.00001 5.35059 8.44773 5.35059 9.00001V11C5.35059 14.9087 8.36932 18 11.9998 18C15.6303 18 18.649 14.9087 18.649 11V9.00001C18.649 8.44773 19.0967 8.00001 19.649 8.00001C20.2013 8.00001 20.649 8.44773 20.649 9.00001V11C20.649 15.6341 17.2615 19.5115 12.8503 19.9573V22.5C12.8503 23.0523 12.4026 23.5 11.8503 23.5C11.2981 23.5 10.8503 23.0523 10.8503 22.5V19.9216C6.58602 19.335 3.35059 15.5289 3.35059 11V9.00001C3.35059 8.44773 3.7983 8.00001 4.35059 8.00001Z" fill="black"/>
</svg>
