<svg width="24" height="24" viewBox="0 0 24 24" fill="none" xmlns="http://www.w3.org/2000/svg">
<path fill-rule="evenodd" clip-rule="evenodd" d="M7.75185 4.59384C7.75185 2.27827 9.62899 0.401123 11.9446 0.401123C14.2601 0.401123 16.1373 2.27826 16.1373 4.59383V11.4406C16.1373 13.7562 14.2601 15.6333 11.9446 15.6333C9.62899 15.6333 7.75185 13.7562 7.75185 11.4406V4.59384ZM11.9446 1.59904C10.2906 1.59904 8.94977 2.93986 8.94977 4.59384V11.4406C8.94977 13.0946 10.2906 14.4354 11.9446 14.4354C13.5985 14.4354 14.9394 13.0946 14.9394 11.4406V4.59383C14.9394 2.93985 13.5985 1.59904 11.9446 1.59904Z" fill="black"/>
<path d="M4.35081 8.36266C4.70286 8.36266 4.98825 8.64805 4.98825 9.0001V11.0001C4.98825 15.0936 8.15415 18.3627 12 18.3627C15.8459 18.3627 19.0118 15.0936 19.0118 11.0001V9.0001C19.0118 8.64805 19.2972 8.36266 19.6492 8.36266C20.0013 8.36266 20.2866 8.64805 20.2866 9.0001V11.0001C20.2866 15.5877 16.8407 19.3814 12.4495 19.6251V22.5001C12.4495 22.8309 12.1814 23.099 11.8506 23.099C11.5198 23.099 11.2516 22.8309 11.2516 22.5001V19.6029C7.00396 19.2079 3.71338 15.4831 3.71338 11.0001V9.0001C3.71338 8.64805 3.99877 8.36266 4.35081 8.36266Z" fill="black"/>
</svg>
