<svg width="24" height="24" viewBox="0 0 24 24" fill="none" xmlns="http://www.w3.org/2000/svg">
<path d="M8.35156 4.59375C8.35156 2.60898 9.96054 1 11.9453 1C13.9301 1 15.5391 2.60898 15.5391 4.59375V11.4405C15.5391 13.4253 13.9301 15.0343 11.9453 15.0343C9.96054 15.0343 8.35156 13.4253 8.35156 11.4405V4.59375Z" fill="black"/>
<path d="M4.35156 8.75001C4.48963 8.75001 4.60156 8.86194 4.60156 9.00001V11C4.60156 15.2909 7.92474 18.75 12.0008 18.75C16.0768 18.75 19.4 15.2909 19.4 11V9.00001C19.4 8.86194 19.5119 8.75001 19.65 8.75001C19.788 8.75001 19.9 8.86194 19.9 9.00001V11C19.9 15.5108 16.4277 19.1931 12.1013 19.2494V23C12.1013 23.1381 11.9894 23.25 11.8513 23.25C11.7132 23.25 11.6013 23.1381 11.6013 23V19.2397C7.41497 19.0223 4.10156 15.4064 4.10156 11L4.10156 9.00001C4.10156 8.86194 4.21349 8.75001 4.35156 8.75001Z" fill="black"/>
</svg>
