<svg width="24" height="24" viewBox="0 0 24 24" fill="none" xmlns="http://www.w3.org/2000/svg">
<path fill-rule="evenodd" clip-rule="evenodd" d="M0.123117 8.43565C0 9.21298 0 10.142 0 12C0 13.858 0 14.787 0.123117 15.5643C0.800832 19.8433 4.15673 23.1992 8.43565 23.8769C9.21298 24 10.142 24 12 24C13.858 24 14.787 24 15.5643 23.8769C19.8433 23.1992 23.1992 19.8433 23.8769 15.5643C24 14.787 24 13.858 24 12C24 10.142 24 9.21298 23.8769 8.43565C23.1992 4.15673 19.8433 0.800832 15.5643 0.123117C14.787 0 13.858 0 12 0C10.142 0 9.21298 0 8.43565 0.123117C4.15673 0.800832 0.800832 4.15673 0.123117 8.43565ZM11.9653 4.16187C10.6421 4.16187 9.56946 5.23453 9.56946 6.55771V11.1222C9.56946 12.4454 10.6421 13.518 11.9653 13.518C13.2885 13.518 14.3611 12.4454 14.3611 11.1222V6.55771C14.3611 5.23453 13.2885 4.16187 11.9653 4.16187ZM7.15332 9.49573C7.15332 9.35765 7.04139 9.24573 6.90332 9.24573C6.76525 9.24573 6.65332 9.35765 6.65332 9.49573V10.8291C6.65332 13.7866 8.86221 16.2231 11.6714 16.4019C11.6596 16.4309 11.6532 16.4625 11.6532 16.4957V18.4957C11.6532 18.6338 11.7651 18.7457 11.9032 18.7457C12.0412 18.7457 12.1532 18.6338 12.1532 18.4957V16.4957C12.1532 16.4658 12.1479 16.4372 12.1383 16.4106C15.04 16.3355 17.3523 13.855 17.3523 10.8291V9.49573C17.3523 9.35765 17.2403 9.24573 17.1023 9.24573C16.9642 9.24573 16.8523 9.35765 16.8523 9.49573V10.8291C16.8523 13.6472 14.6706 15.9124 12.0028 15.9124C9.33495 15.9124 7.15332 13.6472 7.15332 10.8291V9.49573Z" fill="black"/>
</svg>
