<svg width="24" height="24" viewBox="0 0 24 24" fill="none" xmlns="http://www.w3.org/2000/svg">
<path fill-rule="evenodd" clip-rule="evenodd" d="M7.35156 4.59375C7.35156 2.0567 9.40825 0 11.9453 0C14.4824 0 16.5391 2.05669 16.5391 4.59375V11.4405C16.5391 13.9776 14.4824 16.0343 11.9453 16.0343C9.40826 16.0343 7.35156 13.9776 7.35156 11.4405V4.59375ZM11.9453 2C10.5128 2 9.35156 3.16126 9.35156 4.59375V11.4405C9.35156 12.873 10.5128 14.0343 11.9453 14.0343C13.3778 14.0343 14.5391 12.873 14.5391 11.4405V4.59375C14.5391 3.16126 13.3778 2 11.9453 2Z" fill="black"/>
<path d="M4.35156 8.00001C4.90385 8.00001 5.35156 8.44773 5.35156 9.00001V11C5.35156 14.9087 8.37029 18 12.0008 18C15.6312 18 18.65 14.9087 18.65 11V9.00001C18.65 8.44773 19.0977 8.00001 19.65 8.00001C20.2022 8.00001 20.65 8.44773 20.65 9.00001V11C20.65 15.6341 17.2624 19.5115 12.8513 19.9573V22.5C12.8513 23.0523 12.4036 23.5 11.8513 23.5C11.299 23.5 10.8513 23.0523 10.8513 22.5V19.9216C6.587 19.335 3.35156 15.5289 3.35156 11V9.00001C3.35156 8.44773 3.79928 8.00001 4.35156 8.00001Z" fill="black"/>
</svg>
