<svg width="24" height="25" viewBox="0 0 24 25" fill="none" xmlns="http://www.w3.org/2000/svg">
<path fill-rule="evenodd" clip-rule="evenodd" d="M7.10083 5.59375C7.10083 2.91863 9.26945 0.75 11.9446 0.75C14.6197 0.75 16.7883 2.91862 16.7883 5.59375V12.4405C16.7883 15.1156 14.6197 17.2843 11.9446 17.2843C9.26945 17.2843 7.10083 15.1156 7.10083 12.4405V5.59375ZM11.9446 3.25C10.6502 3.25 9.60083 4.29933 9.60083 5.59375V12.4405C9.60083 13.7349 10.6502 14.7843 11.9446 14.7843C13.239 14.7843 14.2883 13.7349 14.2883 12.4405V5.59375C14.2883 4.29933 13.239 3.25 11.9446 3.25Z" fill="black"/>
<path d="M4.35083 8.75001C5.04119 8.75001 5.60083 9.30966 5.60083 10V12C5.60083 15.7814 8.51808 18.75 12 18.75C15.482 18.75 18.3992 15.7814 18.3992 12V10C18.3992 9.30966 18.9589 8.75001 19.6492 8.75001C20.3396 8.75001 20.8992 9.30966 20.8992 10V12C20.8992 16.6755 17.5357 20.615 13.1006 21.1804V23.5C13.1006 24.1904 12.5409 24.75 11.8506 24.75C11.1602 24.75 10.6006 24.1904 10.6006 23.5V21.137C6.31414 20.4366 3.10083 16.5699 3.10083 12V10C3.10083 9.30966 3.66047 8.75001 4.35083 8.75001Z" fill="black"/>
</svg>
