<svg width="24" height="24" viewBox="0 0 24 24" fill="none" xmlns="http://www.w3.org/2000/svg">
<path d="M8.35059 4.59375C8.35059 2.60898 9.95956 1 11.9443 1C13.9291 1 15.5381 2.60898 15.5381 4.59375V11.4405C15.5381 13.4253 13.9291 15.0343 11.9443 15.0343C9.95956 15.0343 8.35059 13.4253 8.35059 11.4405V4.59375Z" fill="black"/>
<path d="M4.35059 7.75001C5.04094 7.75001 5.60059 8.30966 5.60059 9.00001V11C5.60059 14.7814 8.51784 17.75 11.9998 17.75C15.4817 17.75 18.399 14.7814 18.399 11V9.00001C18.399 8.30966 18.9586 7.75001 19.649 7.75001C20.3393 7.75001 20.899 8.30966 20.899 9.00001V11C20.899 15.6755 17.5354 19.615 13.1003 20.1804V22.5C13.1003 23.1904 12.5407 23.75 11.8503 23.75C11.16 23.75 10.6003 23.1904 10.6003 22.5V20.137C6.3139 19.4366 3.10059 15.5699 3.10059 11L3.10059 9.00001C3.10059 8.30966 3.66023 7.75001 4.35059 7.75001Z" fill="black"/>
</svg>
