<svg width="24" height="24" viewBox="0 0 24 24" fill="none" xmlns="http://www.w3.org/2000/svg">
<path d="M3.79791 0.905224C3.50502 0.612332 3.03014 0.612332 2.73725 0.905224C2.44435 1.19812 2.44435 1.67299 2.73725 1.96589L20.2931 19.5217C20.586 19.8146 21.0609 19.8146 21.3538 19.5217C21.6467 19.2288 21.6467 18.754 21.3538 18.4611L3.79791 0.905224Z" fill="black"/>
<path d="M7.34983 11.4405V9.05312L9.34983 11.0531V11.4405C9.34983 12.873 10.5111 14.0343 11.9436 14.0343C12.0665 14.0343 12.1875 14.0257 12.3059 14.0092L13.8964 15.5997C13.3038 15.8785 12.6419 16.0343 11.9436 16.0343C9.40653 16.0343 7.34984 13.9776 7.34983 11.4405Z" fill="black"/>
<path d="M14.5373 4.59375V9.16955L16.5373 11.1696V4.59375C16.5373 2.05669 14.4806 -1.10898e-07 11.9436 0C10.1644 7.77692e-08 8.62152 1.01143 7.85844 2.49066L9.40885 4.04107C9.66211 2.8741 10.7008 2 11.9436 2C13.3761 2 14.5373 3.16126 14.5373 4.59375Z" fill="black"/>
<path d="M11.999 18C13.2128 18 14.3581 17.6545 15.3452 17.0485L16.7916 18.4949C15.6451 19.2911 14.3029 19.8104 12.8496 19.9573L12.8496 22.5C12.8496 23.0523 12.4019 23.5 11.8496 23.5C11.2973 23.5 10.8496 23.0523 10.8496 22.5V19.9216C6.58527 19.335 3.34983 15.5289 3.34983 11L3.34983 9.00001C3.34983 8.44773 3.79755 8.00001 4.34983 8.00001C4.90212 8.00001 5.34983 8.44773 5.34983 9.00001L5.34983 11C5.34983 14.9087 8.36857 18 11.999 18Z" fill="black"/>
<path d="M18.3726 13.0048L19.9391 14.5713C20.3958 13.4735 20.6482 12.265 20.6482 11V9.00002C20.6482 8.44773 20.2005 8.00002 19.6482 8.00002C19.0959 8.00002 18.6482 8.44773 18.6482 9.00002V11C18.6482 11.6987 18.5518 12.3713 18.3726 13.0048Z" fill="black"/>
</svg>
