<svg width="24" height="25" viewBox="0 0 24 25" fill="none" xmlns="http://www.w3.org/2000/svg">
<path d="M3.79791 1.15522C3.50502 0.862332 3.03014 0.862332 2.73725 1.15522C2.44435 1.44812 2.44435 1.92299 2.73725 2.21589L20.2931 19.7717C20.586 20.0646 21.0609 20.0646 21.3538 19.7717C21.6467 19.4788 21.6467 19.004 21.3538 18.7111L3.79791 1.15522Z" fill="black"/>
<path d="M7.09983 11.6905V9.05312L9.59983 11.5531V11.6905C9.59983 12.9849 10.6492 14.0343 11.9436 14.0343C11.9884 14.0343 12.033 14.033 12.0772 14.0305L14.0837 16.037C13.4384 16.3554 12.7119 16.5343 11.9436 16.5343C9.26846 16.5343 7.09984 14.3656 7.09983 11.6905Z" fill="black"/>
<path d="M14.2873 4.84375V9.16955L16.7873 11.6696V4.84375C16.7873 2.16862 14.6187 -1.16934e-07 11.9436 0C10.0961 8.0757e-08 8.49016 1.03435 7.67332 2.55554L9.62396 4.50618C9.78761 3.37171 10.7638 2.5 11.9436 2.5C13.238 2.5 14.2873 3.54933 14.2873 4.84375Z" fill="black"/>
<path d="M11.999 18C13.1423 18 14.2247 17.68 15.1629 17.1162L16.9714 18.9247C15.8426 19.7173 14.5266 20.2485 13.0996 20.4304L13.0996 22.75C13.0996 23.4404 12.5399 24 11.8496 24C11.1592 24 10.5996 23.4404 10.5996 22.75V20.387C6.31314 19.6866 3.09983 15.8199 3.09983 11.25L3.09983 9.25001C3.09983 8.55966 3.65948 8.00001 4.34983 8.00001C5.04019 8.00001 5.59983 8.55966 5.59983 9.25001L5.59983 11.25C5.59983 15.0314 8.51708 18 11.999 18Z" fill="black"/>
<path d="M18.1691 13.0513L20.1297 15.0119C20.6243 13.8587 20.8982 12.5844 20.8982 11.25V9.25002C20.8982 8.55966 20.3386 8.00002 19.6482 8.00002C18.9579 8.00002 18.3982 8.55966 18.3982 9.25002V11.25C18.3982 11.876 18.3183 12.4797 18.1691 13.0513Z" fill="black"/>
</svg>
