<svg width="24" height="24" viewBox="0 0 24 24" fill="none" xmlns="http://www.w3.org/2000/svg">
<path d="M3.62211 1.08199C3.42685 0.886732 3.11026 0.886732 2.915 1.08199C2.71974 1.27726 2.71974 1.59384 2.915 1.7891L20.4709 19.345C20.6661 19.5402 20.9827 19.5402 21.178 19.345C21.3732 19.1497 21.3732 18.8331 21.178 18.6378L3.62211 1.08199Z" fill="black"/>
<path d="M8.35081 11.4405V9.34601L13.6235 14.6187C13.1224 14.884 12.551 15.0342 11.9446 15.0342C9.95979 15.0342 8.35081 13.4253 8.35081 11.4405Z" fill="black"/>
<path d="M12 18.25C13.4626 18.25 14.8266 17.7686 15.9491 16.9443L17.021 18.0162C15.7737 18.9874 14.2564 19.6067 12.6006 19.7281L12.6006 22.5C12.6006 22.9142 12.2648 23.25 11.8506 23.25C11.4364 23.25 11.1006 22.9142 11.1006 22.5V19.7006C6.86014 19.2321 3.60081 15.4879 3.60081 11L3.60081 9.00001C3.60081 8.58579 3.9366 8.25001 4.35081 8.25001C4.76502 8.25001 5.10081 8.58579 5.10081 9.00001L5.10081 11C5.10081 15.0361 8.22102 18.25 12 18.25Z" fill="black"/>
<path d="M18.3936 13.732L19.5333 14.8716C20.0882 13.7018 20.3992 12.3864 20.3992 11V9.00001C20.3992 8.58579 20.0634 8.25001 19.6492 8.25001C19.235 8.25001 18.8992 8.58579 18.8992 9.00001V11C18.8992 11.9691 18.7193 12.8908 18.3936 13.732Z" fill="black"/>
<path d="M8.44302 3.78136L15.5383 10.8767V4.59374C15.5383 2.60897 13.9293 0.999991 11.9446 0.999992C10.2392 0.999992 8.81124 2.18788 8.44302 3.78136Z" fill="black"/>
</svg>
