<svg width="24" height="24" viewBox="0 0 24 24" fill="none" xmlns="http://www.w3.org/2000/svg">
<path fill-rule="evenodd" clip-rule="evenodd" d="M0.123117 8.43565C0 9.21298 0 10.142 0 12C0 13.858 0 14.787 0.123117 15.5643C0.800832 19.8433 4.15673 23.1992 8.43565 23.8769C9.21298 24 10.142 24 12 24C13.858 24 14.787 24 15.5643 23.8769C19.8433 23.1992 23.1992 19.8433 23.8769 15.5643C24 14.787 24 13.858 24 12C24 10.142 24 9.21298 23.8769 8.43565C23.1992 4.15673 19.8433 0.800832 15.5643 0.123117C14.787 0 13.858 0 12 0C10.142 0 9.21298 0 8.43565 0.123117C4.15673 0.800832 0.800832 4.15673 0.123117 8.43565ZM11.9653 4.16188C10.6421 4.16188 9.56946 5.23453 9.56946 6.55771V11.1222C9.56946 12.4454 10.6421 13.518 11.9653 13.518C13.2885 13.518 14.3611 12.4454 14.3611 11.1222V6.55771C14.3611 5.23453 13.2885 4.16188 11.9653 4.16188ZM7.90332 9.49573C7.90332 8.94344 7.45561 8.49573 6.90332 8.49573C6.35104 8.49573 5.90332 8.94344 5.90332 9.49573V10.8291C5.90332 13.903 8.03183 16.5204 10.9032 17.0604V18.4957C10.9032 19.048 11.3509 19.4957 11.9032 19.4957C12.4554 19.4957 12.9032 19.048 12.9032 18.4957V17.0944C15.8747 16.6405 18.1023 13.9737 18.1023 10.8291V9.49573C18.1023 8.94344 17.6545 8.49573 17.1023 8.49573C16.55 8.49573 16.1023 8.94344 16.1023 9.49573V10.8291C16.1023 13.265 14.2251 15.1624 12.0028 15.1624C9.7805 15.1624 7.90332 13.265 7.90332 10.8291V9.49573Z" fill="black"/>
</svg>
