<svg width="24" height="24" viewBox="0 0 24 24" fill="none" xmlns="http://www.w3.org/2000/svg">
<path fill-rule="evenodd" clip-rule="evenodd" d="M0.123117 8.43565C0 9.21298 0 10.142 0 12C0 13.858 0 14.787 0.123117 15.5643C0.800832 19.8433 4.15673 23.1992 8.43565 23.8769C9.21298 24 10.142 24 12 24C13.858 24 14.787 24 15.5643 23.8769C19.8433 23.1992 23.1992 19.8433 23.8769 15.5643C24 14.787 24 13.858 24 12C24 10.142 24 9.21298 23.8769 8.43565C23.1992 4.15673 19.8433 0.800832 15.5643 0.123117C14.787 0 13.858 0 12 0C10.142 0 9.21298 0 8.43565 0.123117C4.15673 0.800832 0.800832 4.15673 0.123117 8.43565ZM5.82613 4.09844C6.0214 3.90318 6.33798 3.90318 6.53324 4.09844L18.2371 15.8023C18.4324 15.9976 18.4324 16.3142 18.2371 16.5094C18.0419 16.7047 17.7253 16.7047 17.53 16.5094L5.82613 4.80555C5.63087 4.61028 5.63087 4.2937 5.82613 4.09844ZM9.56946 10.1977V11.1222C9.56946 12.4454 10.6421 13.518 11.9653 13.518C12.2424 13.518 12.5086 13.471 12.7562 13.3844L9.56946 10.1977ZM14.2636 14.8919C13.5975 15.3029 12.8236 15.5374 12.0028 15.5374C9.55772 15.5374 7.52832 13.4561 7.52832 10.8291V9.49573C7.52832 9.15055 7.2485 8.87073 6.90332 8.87073C6.55814 8.87073 6.27832 9.15055 6.27832 9.49573V10.8291C6.27832 13.8415 8.43914 16.3687 11.2782 16.7403V18.2046H9.2373C8.89213 18.2046 8.6123 18.4845 8.6123 18.8296C8.6123 19.1748 8.89213 19.4546 9.2373 19.4546H14.5706C14.9158 19.4546 15.1956 19.1748 15.1956 18.8296C15.1956 18.4845 14.9158 18.2046 14.5706 18.2046H12.5282V16.7628C13.5012 16.6711 14.4003 16.327 15.1676 15.7959L14.2636 14.8919ZM17.2642 13.1784L16.2854 12.1996C16.4101 11.767 16.4773 11.3071 16.4773 10.8291V9.49573C16.4773 9.15055 16.7571 8.87072 17.1023 8.87072C17.4474 8.87073 17.7273 9.15055 17.7273 9.49573V10.8291C17.7273 11.6609 17.5625 12.4557 17.2642 13.1784ZM14.3611 10.2754L9.74402 5.65825C10.0997 4.78077 10.9602 4.16187 11.9653 4.16187C13.2885 4.16187 14.3611 5.23453 14.3611 6.55771V10.2754Z" fill="black"/>
</svg>
