<svg width="24" height="24" viewBox="0 0 24 24" fill="none" xmlns="http://www.w3.org/2000/svg">
<path d="M3.62211 1.08224C3.42685 0.886976 3.11026 0.886976 2.915 1.08224C2.71974 1.2775 2.71974 1.59408 2.915 1.78934L20.4709 19.3452C20.6661 19.5405 20.9827 19.5405 21.178 19.3452C21.3732 19.1499 21.3732 18.8334 21.178 18.6381L3.62211 1.08224Z" fill="black"/>
<path d="M8.35081 11.4404V9.34599L13.6235 14.6187C13.1224 14.8839 12.551 15.0342 11.9446 15.0342C9.95979 15.0342 8.35081 13.4252 8.35081 11.4404Z" fill="black"/>
<path d="M12 18.3625C13.4946 18.3625 14.8864 17.8688 16.0297 17.0249L16.9407 17.9358C15.6763 18.9168 14.1323 19.5315 12.4495 19.6249L12.4495 22.4999C12.4495 22.8307 12.1814 23.0989 11.8506 23.0989C11.5198 23.0989 11.2516 22.8307 11.2516 22.4999L11.2516 19.6027C7.00396 19.2078 3.71338 15.483 3.71338 10.9999L3.71338 8.99993C3.71338 8.64788 3.99877 8.36249 4.35081 8.36249C4.70286 8.36249 4.98824 8.64788 4.98824 8.99993L4.98824 10.9999C4.98824 15.0934 8.15415 18.3625 12 18.3625Z" fill="black"/>
<path d="M18.4804 13.8187L19.4488 14.7871C19.9859 13.6414 20.2866 12.3553 20.2866 10.9999V8.99993C20.2866 8.64788 20.0013 8.36249 19.6492 8.36249C19.2972 8.36249 19.0118 8.64788 19.0118 8.99993V10.9999C19.0118 12.0007 18.8225 12.9522 18.4804 13.8187Z" fill="black"/>
<path d="M8.44301 3.78133L15.5383 10.8766V4.59366C15.5383 2.60889 13.9293 0.999911 11.9446 0.999911C10.2392 0.999911 8.81121 2.18782 8.44301 3.78133Z" fill="black"/>
</svg>
