<svg width="24" height="24" viewBox="0 0 24 24" fill="none" xmlns="http://www.w3.org/2000/svg">
<path fill-rule="evenodd" clip-rule="evenodd" d="M0.123117 8.43565C0 9.21298 0 10.142 0 12C0 13.858 0 14.787 0.123117 15.5643C0.800832 19.8433 4.15673 23.1992 8.43565 23.8769C9.21298 24 10.142 24 12 24C13.858 24 14.787 24 15.5643 23.8769C19.8433 23.1992 23.1992 19.8433 23.8769 15.5643C24 14.787 24 13.858 24 12C24 10.142 24 9.21298 23.8769 8.43565C23.1992 4.15673 19.8433 0.800832 15.5643 0.123117C14.787 0 13.858 0 12 0C10.142 0 9.21298 0 8.43565 0.123117C4.15673 0.800832 0.800832 4.15673 0.123117 8.43565ZM6.00291 4.27522C6.10054 4.17758 6.25883 4.17758 6.35646 4.27522L18.0604 15.9791C18.158 16.0767 18.158 16.235 18.0604 16.3327C17.9627 16.4303 17.8044 16.4303 17.7068 16.3327L6.00291 4.62877C5.90528 4.53114 5.90528 4.37285 6.00291 4.27522ZM9.56946 9.96203V11.1222C9.56946 12.4454 10.6421 13.518 11.9653 13.518C12.3067 13.518 12.6314 13.4466 12.9254 13.3179L9.56946 9.96203ZM14.6772 15.0697C13.9093 15.6026 12.9893 15.9124 12.0028 15.9124C9.33495 15.9124 7.15332 13.6472 7.15332 10.8291V9.49573C7.15332 9.35765 7.04139 9.24573 6.90332 9.24573C6.76525 9.24573 6.65332 9.35765 6.65332 9.49573V10.8291C6.65332 13.7866 8.86221 16.2231 11.6714 16.4019C11.6596 16.4309 11.6532 16.4625 11.6532 16.4957V18.4957C11.6532 18.5252 11.6582 18.5534 11.6676 18.5796H9.2373C9.09923 18.5796 8.9873 18.6916 8.9873 18.8296C8.9873 18.9677 9.09923 19.0796 9.2373 19.0796H14.5706C14.7087 19.0796 14.8206 18.9677 14.8206 18.8296C14.8206 18.6916 14.7087 18.5796 14.5706 18.5796H12.1387C12.1481 18.5534 12.1532 18.5252 12.1532 18.4957V16.4957C12.1532 16.4658 12.1479 16.4372 12.1383 16.4106C13.2147 16.3828 14.2101 16.0239 15.0363 15.4289L14.6772 15.0697ZM16.9084 13.0584L16.5235 12.6735C16.7357 12.1023 16.8523 11.4804 16.8523 10.8291V9.49572C16.8523 9.35765 16.9642 9.24572 17.1023 9.24572C17.2403 9.24572 17.3523 9.35765 17.3523 9.49572V10.8291C17.3523 11.6206 17.194 12.3748 16.9084 13.0584ZM14.3611 10.5111L9.68151 5.83144C9.98912 4.86331 10.8953 4.16187 11.9653 4.16187C13.2885 4.16187 14.3611 5.23453 14.3611 6.55771V10.5111Z" fill="black"/>
</svg>
