<svg width="24" height="24" viewBox="0 0 24 24" fill="none" xmlns="http://www.w3.org/2000/svg">
<path d="M3.44435 1.25878C3.34672 1.16115 3.18843 1.16115 3.0908 1.25878C2.99317 1.35641 2.99317 1.5147 3.0908 1.61233L20.6467 19.1682C20.7443 19.2658 20.9026 19.2658 21.0002 19.1682C21.0978 19.0706 21.0978 18.9123 21.0002 18.8146L3.44435 1.25878Z" fill="black"/>
<path d="M8.09983 11.4405V8.38891L8.59983 8.88891V11.4405C8.59983 13.2872 10.0969 14.7843 11.9436 14.7843C12.6647 14.7843 13.3325 14.556 13.8787 14.1678L14.2366 14.5257C13.5965 15.0022 12.803 15.2843 11.9436 15.2843C9.82074 15.2843 8.09984 13.5633 8.09983 11.4405Z" fill="black"/>
<path d="M15.2873 4.59375V11.3338L15.7693 11.8157C15.7812 11.6922 15.7873 11.5671 15.7873 11.4405V4.59375C15.7873 2.47091 14.0664 0.75 11.9436 0.75C9.96415 0.75 8.33419 2.24624 8.12299 4.16942L8.59983 4.64627V4.59375C8.59983 2.74705 10.0969 1.25 11.9436 1.25C13.7903 1.25 15.2873 2.74705 15.2873 4.59375Z" fill="black"/>
<path d="M11.999 18.75C13.7806 18.75 15.4184 18.0891 16.6977 16.9868L17.0524 17.3415C15.7081 18.5117 13.985 19.2248 12.0996 19.2494V22.75H15.8496C15.9877 22.75 16.0996 22.8619 16.0996 23C16.0996 23.1381 15.9877 23.25 15.8496 23.25H7.84959C7.71152 23.25 7.59959 23.1381 7.59959 23C7.59959 22.8619 7.71152 22.75 7.84959 22.75H11.5996V19.2397C7.41324 19.0223 4.09983 15.4064 4.09983 11L4.09983 9.00001C4.09983 8.86194 4.21176 8.75001 4.34983 8.75001C4.48791 8.75001 4.59983 8.86194 4.59983 9.00001V11C4.59983 15.2909 7.92301 18.75 11.999 18.75Z" fill="black"/>
<path d="M18.5536 14.6L18.9244 14.9708C19.5453 13.7919 19.8982 12.438 19.8982 11V9.00002C19.8982 8.86194 19.7863 8.75002 19.6482 8.75002C19.5102 8.75002 19.3982 8.86194 19.3982 9.00002V11C19.3982 12.3009 19.0928 13.5253 18.5536 14.6Z" fill="black"/>
</svg>
