<svg width="24" height="24" viewBox="0 0 24 24" fill="none" xmlns="http://www.w3.org/2000/svg">
<path d="M8.35081 4.59375C8.35081 2.60898 9.95979 1 11.9446 1C13.9293 1 15.5383 2.60898 15.5383 4.59375V11.4405C15.5383 13.4253 13.9293 15.0343 11.9446 15.0343C9.95979 15.0343 8.35081 13.4253 8.35081 11.4405V4.59375Z" fill="black"/>
<path d="M4.35081 8.36258C4.70286 8.36258 4.98825 8.64797 4.98825 9.00001V11C4.98825 15.0935 8.15415 18.3626 12 18.3626C15.8459 18.3626 19.0118 15.0935 19.0118 11V9.00001C19.0118 8.64797 19.2972 8.36258 19.6492 8.36258C20.0013 8.36258 20.2866 8.64797 20.2866 9.00001V11C20.2866 15.5877 16.8407 19.3813 12.4495 19.625V22.5C12.4495 22.8308 12.1814 23.099 11.8506 23.099C11.5198 23.099 11.2516 22.8308 11.2516 22.5V19.6028C7.00396 19.2079 3.71338 15.483 3.71338 11L3.71338 9.00001C3.71338 8.64797 3.99877 8.36258 4.35081 8.36258Z" fill="black"/>
</svg>
