<svg width="24" height="24" viewBox="0 0 24 24" fill="none" xmlns="http://www.w3.org/2000/svg">
<path fill-rule="evenodd" clip-rule="evenodd" d="M0.123117 8.43565C0 9.21298 0 10.142 0 12C0 13.858 0 14.787 0.123117 15.5643C0.800832 19.8433 4.15673 23.1992 8.43565 23.8769C9.21298 24 10.142 24 12 24C13.858 24 14.787 24 15.5643 23.8769C19.8433 23.1992 23.1992 19.8433 23.8769 15.5643C24 14.787 24 13.858 24 12C24 10.142 24 9.21298 23.8769 8.43565C23.1992 4.15673 19.8433 0.800832 15.5643 0.123117C14.787 0 13.858 0 12 0C10.142 0 9.21298 0 8.43565 0.123117C4.15673 0.800832 0.800832 4.15673 0.123117 8.43565ZM11.9653 4.16187C10.6421 4.16187 9.56946 5.23453 9.56946 6.55771V11.1222C9.56946 12.4454 10.6421 13.518 11.9653 13.518C13.2885 13.518 14.3611 12.4454 14.3611 11.1222V6.55771C14.3611 5.23453 13.2885 4.16187 11.9653 4.16187ZM7.52832 9.49572C7.52832 9.15055 7.2485 8.87072 6.90332 8.87072C6.55814 8.87072 6.27832 9.15055 6.27832 9.49572V10.8291C6.27832 13.8415 8.43914 16.3687 11.2782 16.7403V18.4957C11.2782 18.8409 11.558 19.1207 11.9032 19.1207C12.2483 19.1207 12.5282 18.8409 12.5282 18.4957V16.7628C15.4647 16.486 17.7273 13.9116 17.7273 10.8291V9.49572C17.7273 9.15055 17.4474 8.87072 17.1023 8.87072C16.7571 8.87072 16.4773 9.15055 16.4773 9.49572V10.8291C16.4773 13.4561 14.4479 15.5374 12.0028 15.5374C9.55772 15.5374 7.52832 13.4561 7.52832 10.8291V9.49572Z" fill="black"/>
</svg>
