<svg width="24" height="24" viewBox="0 0 24 24" fill="none" xmlns="http://www.w3.org/2000/svg">
<path d="M3.62113 1.08229C3.42587 0.887024 3.10929 0.887024 2.91402 1.08229C2.71876 1.27755 2.71876 1.59413 2.91402 1.78939L20.4699 19.3452C20.6651 19.5405 20.9817 19.5405 21.177 19.3452C21.3722 19.15 21.3722 18.8334 21.177 18.6381L3.62113 1.08229Z" fill="black"/>
<path d="M7.75088 11.4405V8.74708L8.94879 9.94499V11.4405C8.94879 13.0944 10.2896 14.4353 11.9436 14.4353C12.3825 14.4353 12.7994 14.3408 13.175 14.1712L14.0628 15.059C13.4409 15.4239 12.7167 15.6332 11.9436 15.6332C9.62802 15.6332 7.75088 13.756 7.75088 11.4405Z" fill="black"/>
<path d="M14.9384 4.59371V10.2777L16.1362 11.4755L16.1363 11.4405V4.59371C16.1363 2.27814 14.2592 0.401001 11.9436 0.401001C10.0813 0.401001 8.50251 1.61522 7.95584 3.29519L8.9628 4.30215C9.10939 2.78499 10.388 1.59892 11.9436 1.59892C13.5976 1.59892 14.9384 2.93973 14.9384 4.59371Z" fill="black"/>
<path d="M11.999 18.3625C13.4936 18.3625 14.8854 17.8688 16.0287 17.0249L16.9397 17.9359C15.6753 18.9168 14.1313 19.5316 12.4486 19.625L12.4485 22.5C12.4485 22.8308 12.1804 23.0989 11.8496 23.0989C11.5188 23.0989 11.2506 22.8308 11.2506 22.5L11.2506 19.6028C7.00298 19.2078 3.7124 15.483 3.7124 11L3.7124 8.99997C3.7124 8.64793 3.99779 8.36254 4.34983 8.36254C4.70188 8.36254 4.98727 8.64793 4.98727 8.99997L4.98727 11C4.98727 15.0934 8.15318 18.3625 11.999 18.3625Z" fill="black"/>
<path d="M18.4794 13.8188L19.4478 14.7871C19.9849 13.6414 20.2857 12.3554 20.2857 11V8.99997C20.2857 8.64793 20.0003 8.36254 19.6482 8.36254C19.2962 8.36254 19.0108 8.64793 19.0108 8.99997V11C19.0108 12.0008 18.8216 12.9523 18.4794 13.8188Z" fill="black"/>
</svg>
