<svg width="24" height="24" viewBox="0 0 24 24" fill="none" xmlns="http://www.w3.org/2000/svg">
<path d="M3.62211 1.082C3.42685 0.88674 3.11026 0.88674 2.915 1.082C2.71974 1.27726 2.71974 1.59385 2.915 1.78911L20.4709 19.345C20.6661 19.5402 20.9827 19.5402 21.178 19.345C21.3732 19.1497 21.3732 18.8331 21.178 18.6379L3.62211 1.082Z" fill="black"/>
<path d="M7.60081 11.4405V8.59601L9.10081 10.096V11.4405C9.10081 13.0111 10.374 14.2843 11.9446 14.2843C12.341 14.2843 12.7185 14.2031 13.0614 14.0566L14.174 15.1692C13.5223 15.5598 12.7596 15.7843 11.9446 15.7843C9.54558 15.7843 7.60081 13.8395 7.60081 11.4405Z" fill="black"/>
<path d="M14.7883 4.59375V10.1267L16.2846 11.6229C16.2871 11.5624 16.2883 11.5016 16.2883 11.4405V4.59375C16.2883 2.19476 14.3435 0.25 11.9446 0.25C10.0421 0.25 8.42525 1.47309 7.8375 3.17584L9.10473 4.44308C9.18306 2.94257 10.4245 1.75 11.9446 1.75C13.5151 1.75 14.7883 3.02319 14.7883 4.59375Z" fill="black"/>
<path d="M12 18.25C13.4626 18.25 14.8266 17.7686 15.9491 16.9443L17.021 18.0162C15.7737 18.9874 14.2564 19.6067 12.6006 19.7281L12.6006 22.25H15.8506C16.2648 22.25 16.6006 22.5858 16.6006 23C16.6006 23.4142 16.2648 23.75 15.8506 23.75H7.85057C7.43635 23.75 7.10057 23.4142 7.10057 23C7.10057 22.5858 7.43635 22.25 7.85057 22.25H11.1006V19.7006C6.86014 19.2321 3.60081 15.4879 3.60081 11L3.60081 9.00001C3.60081 8.5858 3.9366 8.25001 4.35081 8.25001C4.76502 8.25001 5.10081 8.5858 5.10081 9.00001L5.10081 11C5.10081 15.0361 8.22102 18.25 12 18.25Z" fill="black"/>
<path d="M18.3936 13.732L19.5333 14.8716C20.0882 13.7018 20.3992 12.3864 20.3992 11V9.00002C20.3992 8.5858 20.0634 8.25002 19.6492 8.25002C19.235 8.25002 18.8992 8.5858 18.8992 9.00002V11C18.8992 11.9691 18.7193 12.8908 18.3936 13.732Z" fill="black"/>
</svg>
