<svg width="24" height="24" viewBox="0 0 24 24" fill="none" xmlns="http://www.w3.org/2000/svg">
<path fill-rule="evenodd" clip-rule="evenodd" d="M18.2413 3H18.2H5.8H5.7587H5.75868H5.75866C4.9537 2.99999 4.28936 2.99998 3.74817 3.0442C3.18608 3.09012 2.66937 3.18868 2.18404 3.43598C1.43139 3.81947 0.819465 4.43139 0.435974 5.18404C0.188682 5.66938 0.090118 6.18608 0.0441929 6.74818C-2.32748e-05 7.28937 -1.56454e-05 7.95372 -3.86654e-07 8.75868V8.8V15.2V15.2413C-1.56454e-05 16.0463 -2.32748e-05 16.7106 0.0441929 17.2518C0.090118 17.8139 0.188682 18.3306 0.435974 18.816C0.819465 19.5686 1.43139 20.1805 2.18404 20.564C2.66937 20.8113 3.18608 20.9099 3.74817 20.9558C4.28936 21 4.95372 21 5.75867 21H5.8H18.2H18.2413C19.0463 21 19.7106 21 20.2518 20.9558C20.8139 20.9099 21.3306 20.8113 21.816 20.564C22.5686 20.1805 23.1805 19.5686 23.564 18.816C23.8113 18.3306 23.9099 17.8139 23.9558 17.2518C24 16.7106 24 16.0463 24 15.2413V15.2413V15.2413V15.2V8.8V8.7587V8.75868V8.75866C24 7.95371 24 7.28936 23.9558 6.74818C23.9099 6.18608 23.8113 5.66938 23.564 5.18404C23.1805 4.43139 22.5686 3.81947 21.816 3.43598C21.3306 3.18868 20.8139 3.09012 20.2518 3.0442C19.7106 2.99998 19.0463 2.99999 18.2413 3H18.2413H18.2413ZM18.2 4H16V11.4C16 11.9601 16 12.2401 16.109 12.454C16.2049 12.6422 16.3578 12.7951 16.546 12.891C16.6648 12.9515 16.8039 12.9784 17 12.9904L17 13V20H18.2C18.4907 20 18.7563 20 19 19.9983V13L18.9999 12.9904C19.1961 12.9784 19.3352 12.9515 19.454 12.891C19.6422 12.7951 19.7951 12.6422 19.891 12.454C20 12.2401 20 11.9601 20 11.4V4.02879C19.5286 4 18.9474 4 18.2 4ZM13 20H11V13L11 12.9904C10.8039 12.9784 10.6648 12.9515 10.546 12.891C10.3578 12.7951 10.2049 12.6422 10.109 12.454C10 12.2401 10 11.9601 10 11.4V4H14V11.4C14 11.9601 14 12.2401 13.891 12.454C13.7951 12.6422 13.6422 12.7951 13.454 12.891C13.3352 12.9515 13.1961 12.9784 12.9999 12.9904L13 13V20ZM5.8 20C5.50929 20 5.24373 20 5 19.9983V13L5.00005 12.9904C4.80392 12.9784 4.66477 12.9515 4.54601 12.891C4.35784 12.7951 4.20486 12.6422 4.10899 12.454C4 12.2401 4 11.9601 4 11.4V4.02879C4.47142 4 5.05259 4 5.8 4H8V11.4C8 11.9601 8 12.2401 7.89101 12.454C7.79513 12.6422 7.64215 12.7951 7.45399 12.891C7.33523 12.9515 7.19608 12.9784 6.99995 12.9904L7 13V20H5.8Z" fill="black"/>
</svg>
