<svg width="24" height="24" viewBox="0 0 24 24" fill="none" xmlns="http://www.w3.org/2000/svg">
<path fill-rule="evenodd" clip-rule="evenodd" d="M18.2321 3.25H18.2H5.8H5.76789C4.95506 3.24999 4.29944 3.24999 3.76853 3.29336C3.2219 3.33803 2.74175 3.43239 2.29753 3.65873C1.59193 4.01825 1.01825 4.59193 0.658726 5.29754C0.432384 5.74175 0.338026 6.2219 0.293363 6.76853C0.249986 7.29944 0.249992 7.95505 0.25 8.76788V8.8V15.2V15.2321C0.249992 16.045 0.249986 16.7006 0.293363 17.2315C0.338026 17.7781 0.432384 18.2582 0.658726 18.7025C1.01825 19.4081 1.59193 19.9818 2.29753 20.3413C2.74175 20.5676 3.2219 20.662 3.76853 20.7066C4.29944 20.75 4.95504 20.75 5.76788 20.75H5.8H6H12H18H18.2H18.2321C19.045 20.75 19.7006 20.75 20.2315 20.7066C20.7781 20.662 21.2582 20.5676 21.7025 20.3413C22.4081 19.9818 22.9817 19.4081 23.3413 18.7025C23.5676 18.2582 23.662 17.7781 23.7066 17.2315C23.75 16.7006 23.75 16.045 23.75 15.2321V15.2321V15.2V8.8V8.7679V8.76788C23.75 7.95505 23.75 7.29944 23.7066 6.76853C23.662 6.2219 23.5676 5.74175 23.3413 5.29754C22.9817 4.59193 22.4081 4.01825 21.7025 3.65873C21.2582 3.43239 20.7781 3.33803 20.2315 3.29336C19.7006 3.24999 19.0449 3.24999 18.2321 3.25H18.2321ZM17.25 13.7502V19.25H12.75V13.7502C13.0185 13.7503 13.2948 13.7443 13.5408 13.6643C14.0735 13.4912 14.4912 13.0735 14.6643 12.5408C14.7515 12.2724 14.7508 11.968 14.7501 11.6769L14.75 11.6V4.75H15.25V11.6L15.2499 11.6769V11.6769C15.2492 11.968 15.2485 12.2724 15.3357 12.5408C15.5088 13.0735 15.9265 13.4912 16.4592 13.6643C16.7052 13.7443 16.9814 13.7503 17.25 13.7502ZM18.75 13.7502V19.2495C19.3195 19.2478 19.7534 19.2407 20.1093 19.2116C20.5632 19.1745 20.824 19.1054 21.0215 19.0048C21.4448 18.789 21.789 18.4448 22.0048 18.0215C22.1054 17.824 22.1745 17.5632 22.2116 17.1093C22.2494 16.6467 22.25 16.0525 22.25 15.2V8.8C22.25 7.94755 22.2494 7.35331 22.2116 6.89068C22.1745 6.4368 22.1054 6.17604 22.0048 5.97852C21.789 5.55516 21.4448 5.21095 21.0215 4.99524C20.9435 4.95551 20.8557 4.92069 20.75 4.89081V11.6L20.7501 11.6769C20.7508 11.968 20.7515 12.2724 20.6643 12.5408C20.4912 13.0735 20.0735 13.4912 19.5408 13.6643C19.2948 13.7443 19.0185 13.7503 18.75 13.7502ZM18 12.25H17.4C17.2057 12.25 17.09 12.2497 17.0033 12.245C16.9491 12.242 16.9258 12.238 16.92 12.2369C16.8461 12.2119 16.7881 12.1539 16.7631 12.08C16.762 12.0742 16.758 12.0509 16.755 11.9967C16.7503 11.91 16.75 11.7943 16.75 11.6V4.75H18.2C18.6033 4.75 18.9489 4.75013 19.25 4.75427V11.6C19.25 11.7943 19.2497 11.91 19.245 11.9967C19.242 12.0509 19.238 12.0741 19.2369 12.08C19.2119 12.1539 19.1539 12.2119 19.08 12.2369C19.0741 12.238 19.0509 12.242 18.9967 12.245C18.91 12.2497 18.7943 12.25 18.6 12.25H18ZM13.25 4.75V11.6C13.25 11.7943 13.2497 11.91 13.245 11.9967C13.242 12.0509 13.238 12.0742 13.2369 12.08C13.2119 12.1539 13.1539 12.2119 13.08 12.2369C13.0742 12.238 13.0509 12.242 12.9967 12.245C12.91 12.2497 12.7943 12.25 12.6 12.25H12H11.4C11.2057 12.25 11.09 12.2497 11.0033 12.245C10.9491 12.242 10.9259 12.238 10.92 12.2369C10.8461 12.2119 10.7881 12.1539 10.7631 12.08C10.762 12.0741 10.758 12.0509 10.755 11.9967C10.7503 11.91 10.75 11.7943 10.75 11.6V4.75H13.25ZM9.25 4.75V11.6L9.24988 11.6769V11.6769C9.24918 11.968 9.24846 12.2724 9.33565 12.5408C9.50876 13.0735 9.92645 13.4912 10.4592 13.6643C10.7052 13.7443 10.9814 13.7503 11.25 13.7502V19.25H6.75V13.7502C7.01855 13.7503 7.29481 13.7443 7.54078 13.6643C8.07355 13.4912 8.49124 13.0735 8.66435 12.5408C8.75154 12.2724 8.75082 11.968 8.75012 11.6769V11.6769L8.75 11.6V4.75H9.25ZM7.25 4.75V11.6C7.25 11.7943 7.24974 11.91 7.245 11.9967C7.24204 12.0509 7.23803 12.0741 7.23686 12.08C7.2119 12.1539 7.15388 12.2119 7.07999 12.2369C7.07415 12.238 7.05089 12.242 6.99667 12.245C6.91 12.2497 6.7943 12.25 6.6 12.25H6H5.4C5.2057 12.25 5.09 12.2497 5.00333 12.245C4.94911 12.242 4.92585 12.238 4.92 12.2369C4.84612 12.2119 4.7881 12.1539 4.76314 12.08C4.76197 12.0741 4.75796 12.0509 4.755 11.9967C4.75026 11.91 4.75 11.7943 4.75 11.6V4.75427C5.05113 4.75013 5.39666 4.75 5.8 4.75H7.25ZM3.25 4.89081V11.6L3.24988 11.6769C3.24918 11.968 3.24846 12.2724 3.33565 12.5408C3.50876 13.0735 3.92645 13.4912 4.45922 13.6643C4.70518 13.7443 4.98144 13.7503 5.25 13.7502V19.2495C4.68053 19.2478 4.24665 19.2407 3.89068 19.2116C3.4368 19.1745 3.17604 19.1054 2.97852 19.0048C2.55516 18.789 2.21095 18.4448 1.99524 18.0215C1.8946 17.824 1.82546 17.5632 1.78838 17.1093C1.75058 16.6467 1.75 16.0525 1.75 15.2V8.8C1.75 7.94755 1.75058 7.35331 1.78838 6.89068C1.82546 6.4368 1.8946 6.17604 1.99524 5.97852C2.21095 5.55516 2.55516 5.21095 2.97852 4.99524C3.05649 4.95551 3.14433 4.92069 3.25 4.89081Z" fill="black"/>
</svg>
