<svg width="24" height="24" viewBox="0 0 24 24" fill="none" xmlns="http://www.w3.org/2000/svg">
<path fill-rule="evenodd" clip-rule="evenodd" d="M18.2321 3.25H18.2H5.8H5.76789H5.76787C4.95505 3.24999 4.29944 3.24999 3.76853 3.29336C3.2219 3.33803 2.74175 3.43239 2.29753 3.65873C1.59193 4.01825 1.01825 4.59193 0.658726 5.29754C0.432384 5.74175 0.338026 6.2219 0.293363 6.76853C0.249986 7.29944 0.249992 7.95505 0.25 8.76788V8.8V15.2V15.2321C0.249992 16.045 0.249986 16.7006 0.293363 17.2315C0.338026 17.7781 0.432384 18.2582 0.658726 18.7025C1.01825 19.4081 1.59193 19.9818 2.29753 20.3413C2.74175 20.5676 3.2219 20.662 3.76853 20.7066C4.29944 20.75 4.95504 20.75 5.76788 20.75H5.8H18.2H18.2321C19.045 20.75 19.7006 20.75 20.2315 20.7066C20.7781 20.662 21.2582 20.5676 21.7025 20.3413C22.4081 19.9818 22.9817 19.4081 23.3413 18.7025C23.5676 18.2582 23.662 17.7781 23.7066 17.2315C23.75 16.7006 23.75 16.045 23.75 15.2321V15.2321V15.2321V15.2V8.8V8.7679V8.76788V8.76788C23.75 7.95505 23.75 7.29944 23.7066 6.76853C23.662 6.2219 23.5676 5.74175 23.3413 5.29754C22.9817 4.59193 22.4081 4.01825 21.7025 3.65873C21.2582 3.43239 20.7781 3.33803 20.2315 3.29336C19.7006 3.24999 19.045 3.24999 18.2321 3.25H18.2321H18.2321ZM18.2 4H16V11.4C16 11.9601 16 12.2401 16.109 12.454C16.2049 12.6422 16.3578 12.7951 16.546 12.891C16.7098 12.9745 16.9125 12.994 17.25 12.9986L17.25 13V20H18.2C18.3942 20 18.5772 20 18.75 19.9995V13L18.75 12.9986C19.0875 12.994 19.2901 12.9745 19.454 12.891C19.6422 12.7951 19.7951 12.6422 19.891 12.454C20 12.2401 20 11.9601 20 11.4V4.02878C19.5286 4 18.9474 4 18.2 4ZM12.75 20H11.25V13L11.25 12.9986C10.9125 12.994 10.7099 12.9745 10.546 12.891C10.3578 12.7951 10.2049 12.6422 10.109 12.454C10 12.2401 10 11.9601 10 11.4V4H14V11.4C14 11.9601 14 12.2401 13.891 12.454C13.7951 12.6422 13.6422 12.7951 13.454 12.891C13.2901 12.9745 13.0875 12.994 12.75 12.9986L12.75 13V20ZM5.8 20C5.60577 20 5.42277 20 5.25 19.9995V13L5.25 12.9986C4.91248 12.994 4.70985 12.9745 4.54601 12.891C4.35785 12.7951 4.20487 12.6422 4.10899 12.454C4 12.2401 4 11.9601 4 11.4V4.02878C4.47142 4 5.05259 4 5.8 4H8V11.4C8 11.9601 8 12.2401 7.89101 12.454C7.79513 12.6422 7.64215 12.7951 7.45399 12.891C7.29015 12.9745 7.08752 12.994 6.74999 12.9986L6.75 13V20H5.8Z" fill="black"/>
</svg>
