<svg width="24" height="24" viewBox="0 0 24 24" fill="none" xmlns="http://www.w3.org/2000/svg">
<path fill-rule="evenodd" clip-rule="evenodd" d="M18.2115 3.75H18.2H5.8H5.78847C4.95814 3.75 4.31969 3.75 3.80925 3.7917C3.29353 3.83384 2.88651 3.91979 2.52453 4.10423C1.913 4.41582 1.41582 4.913 1.10423 5.52453C0.919788 5.88652 0.833839 6.29353 0.791702 6.80925C0.75 7.31966 0.75 7.95808 0.75 8.78835V8.78846V8.8V15.2V15.2115V15.2117C0.75 16.0419 0.75 16.6803 0.791702 17.1908C0.833839 17.7065 0.919788 18.1135 1.10423 18.4755C1.41582 19.087 1.913 19.5842 2.52453 19.8958C2.88651 20.0802 3.29353 20.1662 3.80925 20.2083C4.31966 20.25 4.95808 20.25 5.78835 20.25H5.78846H5.8H6H12H18H18.2H18.2115H18.2117C19.0419 20.25 19.6803 20.25 20.1908 20.2083C20.7065 20.1662 21.1135 20.0802 21.4755 19.8958C22.087 19.5842 22.5842 19.087 22.8958 18.4755C23.0802 18.1135 23.1662 17.7065 23.2083 17.1908C23.25 16.6803 23.25 16.0419 23.25 15.2115V15.2V8.8V8.78847C23.25 7.95814 23.25 7.31969 23.2083 6.80925C23.1662 6.29353 23.0802 5.88652 22.8958 5.52453C22.5842 4.913 22.087 4.41582 21.4755 4.10423C21.1135 3.91979 20.7065 3.83384 20.1908 3.7917C19.6803 3.75 19.0419 3.75 18.2115 3.75ZM17.75 13.25V19.75H12.25V13.25H12.4H12.4107C12.6817 13.25 12.9002 13.25 13.0772 13.2355C13.2594 13.2207 13.4194 13.1892 13.5675 13.1138C13.8027 12.9939 13.9939 12.8027 14.1138 12.5675C14.1892 12.4194 14.2207 12.2594 14.2355 12.0772C14.25 11.9002 14.25 11.6817 14.25 11.4108V11.4107V11.4107V11.4V4.25H15.75V11.4V11.4107V11.4107C15.75 11.6817 15.75 11.9002 15.7645 12.0772C15.7793 12.2594 15.8108 12.4194 15.8862 12.5675C16.0061 12.8027 16.1973 12.9939 16.4325 13.1138C16.5806 13.1892 16.7406 13.2207 16.9228 13.2355C17.0998 13.25 17.3183 13.25 17.5893 13.25H17.6H17.75ZM18.25 13.25V19.75C19.0687 19.75 19.672 19.749 20.15 19.71C20.6348 19.6703 20.9687 19.5928 21.2485 19.4503C21.7659 19.1866 22.1866 18.7659 22.4503 18.2485C22.5928 17.9687 22.6703 17.6348 22.71 17.15C22.7498 16.6623 22.75 16.0442 22.75 15.2V8.8C22.75 7.9558 22.7498 7.33768 22.71 6.84996C22.6703 6.36517 22.5928 6.03128 22.4503 5.75153C22.1866 5.23408 21.7659 4.81338 21.2485 4.54973C20.9884 4.4172 20.6815 4.34087 20.25 4.29896V11.4V11.4107V11.4107C20.25 11.6817 20.25 11.9002 20.2355 12.0772C20.2207 12.2594 20.1892 12.4194 20.1138 12.5675C19.9939 12.8027 19.8027 12.9939 19.5675 13.1138C19.4194 13.1892 19.2594 13.2207 19.0772 13.2355C18.9002 13.25 18.6817 13.25 18.4107 13.25H18.4H18.25ZM18 12.75H17.6C17.3158 12.75 17.1178 12.7498 16.9636 12.7372C16.8123 12.7248 16.7253 12.7018 16.6595 12.6683C16.5184 12.5964 16.4037 12.4816 16.3317 12.3405C16.2982 12.2747 16.2752 12.1877 16.2628 12.0364C16.2502 11.8822 16.25 11.6842 16.25 11.4V4.25H18.2C18.829 4.25 19.3325 4.25011 19.75 4.26664V11.4C19.75 11.6842 19.7498 11.8822 19.7372 12.0364C19.7248 12.1877 19.7018 12.2747 19.6683 12.3405C19.5963 12.4816 19.4816 12.5964 19.3405 12.6683C19.2747 12.7018 19.1877 12.7248 19.0364 12.7372C18.8822 12.7498 18.6842 12.75 18.4 12.75H18ZM13.75 4.25V11.4C13.75 11.6842 13.7498 11.8822 13.7372 12.0364C13.7248 12.1877 13.7018 12.2747 13.6683 12.3405C13.5963 12.4816 13.4816 12.5964 13.3405 12.6683C13.2747 12.7018 13.1877 12.7248 13.0364 12.7372C12.8822 12.7498 12.6842 12.75 12.4 12.75H12H11.6C11.3158 12.75 11.1178 12.7498 10.9636 12.7372C10.8123 12.7248 10.7253 12.7018 10.6595 12.6683C10.5184 12.5963 10.4037 12.4816 10.3317 12.3405C10.2982 12.2747 10.2752 12.1877 10.2628 12.0364C10.2502 11.8822 10.25 11.6842 10.25 11.4V4.25H13.75ZM9.75 4.25V11.4V11.4107C9.75 11.6817 9.75 11.9002 9.76445 12.0772C9.77934 12.2594 9.81079 12.4194 9.88624 12.5675C10.0061 12.8027 10.1973 12.9939 10.4325 13.1138C10.5806 13.1892 10.7406 13.2207 10.9228 13.2355C11.0998 13.25 11.3183 13.25 11.5893 13.25H11.6H11.75V19.75H6.25V13.25H6.4H6.41071C6.68165 13.25 6.90019 13.25 7.07716 13.2355C7.25937 13.2207 7.41942 13.1892 7.56749 13.1138C7.80269 12.9939 7.99392 12.8027 8.11376 12.5675C8.18921 12.4194 8.22066 12.2594 8.23555 12.0772C8.25 11.9002 8.25 11.6817 8.25 11.4107V11.4V4.25H9.75ZM7.75 4.25V11.4C7.75 11.6842 7.74981 11.8822 7.73721 12.0364C7.72484 12.1877 7.7018 12.2747 7.66825 12.3405C7.59635 12.4816 7.48162 12.5963 7.34049 12.6683C7.27465 12.7018 7.18773 12.7248 7.03644 12.7372C6.88223 12.7498 6.68415 12.75 6.4 12.75H6H5.6C5.31585 12.75 5.11777 12.7498 4.96356 12.7372C4.81227 12.7248 4.72535 12.7018 4.65951 12.6683C4.51838 12.5963 4.40365 12.4816 4.33175 12.3405C4.2982 12.2747 4.27515 12.1877 4.26279 12.0364C4.25019 11.8822 4.25 11.6842 4.25 11.4V4.26664C4.66755 4.25011 5.17102 4.25 5.8 4.25H7.75ZM3.75 4.29896V11.4V11.4107V11.4107V11.4107C3.75 11.6817 3.75 11.9002 3.76445 12.0772C3.77934 12.2594 3.81079 12.4194 3.88624 12.5675C4.00608 12.8027 4.19731 12.9939 4.43251 13.1138C4.58058 13.1892 4.74063 13.2207 4.92284 13.2355C5.09981 13.25 5.31835 13.25 5.58929 13.25H5.6H5.75V19.75C4.93131 19.75 4.328 19.749 3.84996 19.71C3.36517 19.6703 3.03128 19.5928 2.75153 19.4503C2.23408 19.1866 1.81338 18.7659 1.54973 18.2485C1.40719 17.9687 1.32965 17.6348 1.29004 17.15C1.25019 16.6623 1.25 16.0442 1.25 15.2V8.8C1.25 7.9558 1.25019 7.33768 1.29004 6.84996C1.32965 6.36517 1.40719 6.03128 1.54973 5.75153C1.81338 5.23408 2.23408 4.81338 2.75153 4.54973C3.01163 4.4172 3.31853 4.34087 3.75 4.29896Z" fill="black"/>
</svg>
