<svg width="24" height="24" viewBox="0 0 24 24" fill="none" xmlns="http://www.w3.org/2000/svg">
<path fill-rule="evenodd" clip-rule="evenodd" d="M18.1223 2.93848H18.0735H5.92653H5.8777H5.87767H5.87764C5.09632 2.93846 4.43688 2.93844 3.89663 2.98258C3.33086 3.02881 2.78889 3.12948 2.27318 3.39225C1.48981 3.79139 0.852914 4.42829 0.453767 5.21166C0.191001 5.72737 0.0903294 6.26935 0.0441048 6.83512C-3.50193e-05 7.37535 -1.97605e-05 8.03477 -6.87056e-07 8.81606V8.81611V8.86501V15.1344V15.1833V15.1834C-1.97605e-05 15.9646 -3.50193e-05 16.6241 0.0441048 17.1643C0.0903294 17.7301 0.191001 18.272 0.453767 18.7877C0.852914 19.5711 1.48981 20.208 2.27318 20.6072C2.78889 20.8699 3.33086 20.9706 3.89663 21.0168C4.43688 21.061 5.09634 21.0609 5.87766 21.0609H5.87772H5.92653H18.0735H18.1223H18.1223C18.9037 21.0609 19.5631 21.061 20.1034 21.0168C20.6691 20.9706 21.2111 20.8699 21.7268 20.6072C22.5102 20.208 23.1471 19.5711 23.5462 18.7877C23.809 18.272 23.9097 17.7301 23.9559 17.1643C24 16.624 24 15.9646 24 15.1833V15.1833V15.1832V15.1344V8.86501V8.81618V8.81614V8.81611C24 8.0348 24 7.37536 23.9559 6.83512C23.9097 6.26934 23.809 5.72737 23.5462 5.21166C23.1471 4.42829 22.5102 3.79139 21.7268 3.39225C21.2111 3.12948 20.6691 3.02881 20.1034 2.98258C19.5631 2.93844 18.9037 2.93846 18.1224 2.93848H18.1223H18.1223ZM18.0736 4.16306H15.9185V11.412C15.9185 11.9607 15.9185 12.235 16.0252 12.4445C16.1192 12.6288 16.269 12.7787 16.4533 12.8726C16.5655 12.9298 16.6963 12.9563 16.8778 12.9687L16.8777 12.9793V19.8365H18.0736C18.3665 19.8365 18.6334 19.8365 18.8777 19.8347V12.9793L18.8777 12.9687C19.0591 12.9563 19.1898 12.9298 19.302 12.8726C19.4863 12.7787 19.6361 12.6288 19.7301 12.4445C19.8368 12.235 19.8368 11.9607 19.8368 11.412V4.19125C19.375 4.16306 18.8057 4.16306 18.0736 4.16306ZM13.0002 19.8365H11.0002V12.9793L11.0002 12.9687C10.8187 12.9563 10.688 12.9298 10.5758 12.8726C10.3915 12.7787 10.2416 12.6288 10.1477 12.4445C10.0409 12.235 10.0409 11.9607 10.0409 11.412V4.16306H13.9593V11.412C13.9593 11.9607 13.9593 12.235 13.8525 12.4445C13.7586 12.6288 13.6087 12.7787 13.4244 12.8726C13.3122 12.9298 13.1815 12.9563 13.0001 12.9687L13.0002 12.9793V19.8365ZM5.92663 19.8365C5.63375 19.8365 5.36692 19.8365 5.12261 19.8347V12.9793L5.12267 12.9687C4.94119 12.9563 4.81043 12.9298 4.69823 12.8726C4.51391 12.7787 4.36405 12.6288 4.27014 12.4445C4.16337 12.235 4.16337 11.9607 4.16337 11.412V4.19125C4.62517 4.16306 5.19447 4.16306 5.92663 4.16306H8.08173V11.412C8.08173 11.9607 8.08173 12.235 7.97496 12.4445C7.88105 12.6288 7.73119 12.7787 7.54687 12.8726C7.4347 12.9298 7.30398 12.9563 7.12255 12.9687L7.12261 12.9793V19.8365H5.92663Z" fill="black"/>
</svg>
