<svg width="24" height="24" viewBox="0 0 24 24" fill="none" xmlns="http://www.w3.org/2000/svg">
<path fill-rule="evenodd" clip-rule="evenodd" d="M18.2413 3H18.2H5.8H5.7587H5.75868C4.95372 2.99999 4.28936 2.99998 3.74817 3.04419C3.18608 3.09012 2.66937 3.18868 2.18404 3.43598C1.43139 3.81947 0.819465 4.43139 0.435974 5.18404C0.188682 5.66937 0.090118 6.18608 0.0441929 6.74818C-2.32956e-05 7.28937 -1.56662e-05 7.95372 -4.07409e-07 8.75868V8.8V15.2V15.2413C-1.56662e-05 16.0463 -2.32956e-05 16.7106 0.0441929 17.2518C0.090118 17.8139 0.188682 18.3306 0.435974 18.816C0.819465 19.5686 1.43139 20.1805 2.18404 20.564C2.66937 20.8113 3.18608 20.9099 3.74817 20.9558C4.28936 21 4.95372 21 5.75867 21H5.8H6H12H18H18.2H18.2413C19.0463 21 19.7106 21 20.2518 20.9558C20.8139 20.9099 21.3306 20.8113 21.816 20.564C22.5686 20.1805 23.1805 19.5686 23.564 18.816C23.8113 18.3306 23.9099 17.8139 23.9558 17.2518C24 16.7106 24 16.0463 24 15.2413V15.2413V15.2V8.8V8.7587V8.75868C24 7.95372 24 7.28937 23.9558 6.74818C23.9099 6.18608 23.8113 5.66937 23.564 5.18404C23.1805 4.43139 22.5686 3.81947 21.816 3.43598C21.3306 3.18868 20.8139 3.09012 20.2518 3.04419C19.7106 2.99998 19.0463 2.99999 18.2413 3H18.2413ZM17 13.9982V19H13V13.9982C13.1525 13.994 13.3144 13.9813 13.4669 13.9447C14.1982 13.7692 14.7692 13.1982 14.9447 12.4669C14.9899 12.2788 14.9986 12.0763 15 11.8949C15.0014 12.0763 15.0101 12.2788 15.0553 12.4669C15.2308 13.1982 15.8018 13.7692 16.5331 13.9447C16.6856 13.9813 16.8475 13.994 17 13.9982ZM19 13.9982V18.9982C19.4455 18.9951 19.7954 18.9864 20.089 18.9624C20.5274 18.9266 20.7516 18.8617 20.908 18.782C21.2843 18.5903 21.5903 18.2843 21.782 17.908C21.8617 17.7516 21.9266 17.5274 21.9624 17.089C21.9992 16.6389 22 16.0566 22 15.2V8.8C22 7.94342 21.9992 7.36113 21.9624 6.91104C21.9266 6.47262 21.8617 6.24842 21.782 6.09202C21.6061 5.74686 21.3342 5.46089 21 5.26795V11.7L21.0001 11.7608C21.0007 11.9722 21.0014 12.2309 20.9447 12.4669C20.7692 13.1982 20.1982 13.7692 19.4669 13.9447C19.3144 13.9813 19.1525 13.994 19 13.9982ZM18 12H17.3C17.1524 12 17.0717 11.9998 17.0129 11.9974L17.0031 11.9969L17.0026 11.9871C17.0002 11.9283 17 11.8476 17 11.7V5H18.2C18.4978 5 18.7625 5.0001 19 5.00176V11.7C19 11.8476 18.9998 11.9283 18.9974 11.9871L18.9969 11.9969L18.9871 11.9974C18.9283 11.9998 18.8476 12 18.7 12H18ZM13 5V11.7C13 11.8476 12.9998 11.9283 12.9974 11.9871L12.9969 11.9969L12.9871 11.9974C12.9283 11.9998 12.8476 12 12.7 12H12H11.3C11.1524 12 11.0717 11.9998 11.0129 11.9974L11.0031 11.9969L11.0026 11.9871C11.0002 11.9283 11 11.8476 11 11.7V5H13ZM7 5V11.7C7 11.8476 6.9998 11.9283 6.99739 11.9871L6.99695 11.9969L6.98713 11.9974C6.92829 11.9998 6.8476 12 6.7 12H6H5.3C5.1524 12 5.07171 11.9998 5.01287 11.9974L5.00305 11.9969L5.00261 11.9871C5.00019 11.9283 5 11.8476 5 11.7V5.00176C5.23749 5.0001 5.50216 5 5.8 5H7ZM3 5.26795V11.7L2.99989 11.7608C2.99931 11.9722 2.9986 12.2309 3.05526 12.4669C3.23083 13.1982 3.80181 13.7692 4.53311 13.9447C4.68556 13.9813 4.84749 13.994 5 13.9982V18.9982C4.55447 18.9951 4.20463 18.9864 3.91104 18.9624C3.47262 18.9266 3.24842 18.8617 3.09202 18.782C2.71569 18.5903 2.40973 18.2843 2.21799 17.908C2.1383 17.7516 2.07337 17.5274 2.03755 17.089C2.00078 16.6389 2 16.0566 2 15.2V8.8C2 7.94342 2.00078 7.36113 2.03755 6.91104C2.07337 6.47262 2.1383 6.24842 2.21799 6.09202C2.39385 5.74686 2.6658 5.46089 3 5.26795ZM7 13.9982C7.15251 13.994 7.31444 13.9813 7.46689 13.9447C8.19819 13.7692 8.76917 13.1982 8.94474 12.4669C8.98989 12.2788 8.99861 12.0763 9 11.8949C9.00139 12.0763 9.01011 12.2788 9.05526 12.4669C9.23083 13.1982 9.80181 13.7692 10.5331 13.9447C10.6856 13.9813 10.8475 13.994 11 13.9982V19H7V13.9982Z" fill="black"/>
</svg>
