<svg width="24" height="24" viewBox="0 0 24 24" fill="none" xmlns="http://www.w3.org/2000/svg">
<path fill-rule="evenodd" clip-rule="evenodd" d="M18.2115 3.75H18.2H5.8H5.78847C4.95814 3.75 4.31969 3.75 3.80925 3.7917C3.29353 3.83384 2.88651 3.91979 2.52453 4.10423C1.913 4.41582 1.41582 4.913 1.10423 5.52453C0.919788 5.88652 0.833839 6.29353 0.791702 6.80925C0.75 7.31966 0.75 7.95808 0.75 8.78835V8.78846V8.8V15.2V15.2115V15.2117C0.75 16.0419 0.75 16.6803 0.791702 17.1908C0.833839 17.7065 0.919788 18.1135 1.10423 18.4755C1.41582 19.087 1.913 19.5842 2.52453 19.8958C2.88651 20.0802 3.29353 20.1662 3.80925 20.2083C4.31966 20.25 4.95808 20.25 5.78835 20.25H5.78846H5.8H18.2H18.2115H18.2117C19.0419 20.25 19.6803 20.25 20.1908 20.2083C20.7065 20.1662 21.1135 20.0802 21.4755 19.8958C22.087 19.5842 22.5842 19.087 22.8958 18.4755C23.0802 18.1135 23.1662 17.7065 23.2083 17.1908C23.25 16.6803 23.25 16.0419 23.25 15.2115V15.2V8.8V8.78847C23.25 7.95814 23.25 7.31969 23.2083 6.80925C23.1662 6.29353 23.0802 5.88652 22.8958 5.52453C22.5842 4.913 22.087 4.41582 21.4755 4.10423C21.1135 3.91979 20.7065 3.83384 20.1908 3.7917C19.6803 3.75 19.0419 3.75 18.2115 3.75ZM18.2 4H16V11.4C16 11.9601 16 12.2401 16.109 12.454C16.2049 12.6422 16.3578 12.7951 16.546 12.891C16.7599 13 17.0399 13 17.6 13H17.75V20H18.2H18.25V13H18.4C18.9601 13 19.2401 13 19.454 12.891C19.6422 12.7951 19.7951 12.6422 19.891 12.454C20 12.2401 20 11.9601 20 11.4V4.02878C19.5286 4 18.9474 4 18.2 4ZM12.25 20H11.75V13H11.6C11.0399 13 10.7599 13 10.546 12.891C10.3578 12.7951 10.2049 12.6422 10.109 12.454C10 12.2401 10 11.9601 10 11.4V4H14V11.4C14 11.9601 14 12.2401 13.891 12.454C13.7951 12.6422 13.6422 12.7951 13.454 12.891C13.2401 13 12.9601 13 12.4 13H12.25V20ZM5.8 20H5.75V13H5.6C5.03995 13 4.75992 13 4.54601 12.891C4.35785 12.7951 4.20487 12.6422 4.10899 12.454C4 12.2401 4 11.9601 4 11.4V4.02878C4.47142 4 5.05259 4 5.8 4H8V11.4C8 11.9601 8 12.2401 7.89101 12.454C7.79513 12.6422 7.64215 12.7951 7.45399 12.891C7.24008 13 6.96005 13 6.4 13H6.25V20H5.8Z" fill="black"/>
</svg>
