<svg width="24" height="24" viewBox="0 0 24 24" fill="none" xmlns="http://www.w3.org/2000/svg">
<path d="M17 10.25C17.9664 10.2502 18.75 11.0336 18.75 12C18.75 12.9664 17.9664 13.7498 17 13.75H7.00002L6.8213 13.7412C5.93899 13.6515 5.25002 12.906 5.25002 12C5.25002 11.094 5.93898 10.3485 6.8213 10.2588L7.00002 10.25H17Z" fill="black"/>
<path fill-rule="evenodd" clip-rule="evenodd" d="M12 0C13.858 0 14.7871 -6.97747e-05 15.5645 0.123047C19.8433 0.800792 23.1992 4.1567 23.877 8.43555C24.0001 9.21287 24 10.142 24 12C24 13.858 24.0001 14.7871 23.877 15.5645L23.8057 15.9629C22.9886 20.0505 19.7096 23.2204 15.5645 23.877L15.2647 23.918C14.5406 24.0005 13.6261 24 12 24C10.374 24 9.45939 24.0005 8.73537 23.918L8.43556 23.877C4.29044 23.2204 1.01142 20.0505 0.194351 15.9629L0.123062 15.5645C-5.45159e-05 14.7871 1.52589e-05 13.858 1.52589e-05 12C1.52589e-05 10.142 -5.45159e-05 9.21287 0.123062 8.43555C0.800807 4.1567 4.15671 0.800792 8.43556 0.123047C9.21289 -6.97747e-05 10.142 0 12 0ZM12 3.5C10.0086 3.5 9.42007 3.51094 8.98341 3.58008C6.20211 4.02059 4.02061 6.2021 3.58009 8.9834C3.51096 9.42006 3.50002 10.0086 3.50002 12C3.50002 13.9914 3.51096 14.5799 3.58009 15.0166C4.02061 17.7979 6.20211 19.9794 8.98341 20.4199C9.42007 20.4891 10.0086 20.5 12 20.5C13.9915 20.5 14.58 20.4891 15.0166 20.4199C17.7979 19.9794 19.9794 17.7979 20.4199 15.0166C20.4891 14.5799 20.5 13.9914 20.5 12C20.5 10.0086 20.4891 9.42006 20.4199 8.9834C19.9794 6.2021 17.7979 4.02059 15.0166 3.58008C14.58 3.51094 13.9915 3.5 12 3.5Z" fill="black"/>
</svg>
