<svg width="24" height="24" viewBox="0 0 24 24" fill="none" xmlns="http://www.w3.org/2000/svg">
<path d="M18.6957 11.75C18.8337 11.75 18.9457 11.8619 18.9457 12C18.9457 12.1381 18.8337 12.25 18.6957 12.25L5.30435 12.25C5.16628 12.25 5.05435 12.1381 5.05435 12C5.05435 11.8619 5.16628 11.75 5.30435 11.75H18.6957Z" fill="black"/>
<path fill-rule="evenodd" clip-rule="evenodd" d="M24 12C24 18.6274 18.6274 24 12 24C5.37258 24 0 18.6274 0 12C0 5.37258 5.37258 0 12 0C18.6274 0 24 5.37258 24 12ZM23.5 12C23.5 18.3513 18.3513 23.5 12 23.5C5.64873 23.5 0.5 18.3513 0.5 12C0.5 5.64873 5.64873 0.5 12 0.5C18.3513 0.5 23.5 5.64873 23.5 12Z" fill="black"/>
</svg>
