<svg width="24" height="24" viewBox="0 0 24 24" fill="none" xmlns="http://www.w3.org/2000/svg">
<path d="M18.6957 11.75C18.8337 11.75 18.9457 11.8619 18.9457 12C18.9457 12.1381 18.8337 12.25 18.6957 12.25L5.30435 12.25C5.16628 12.25 5.05435 12.1381 5.05435 12C5.05435 11.8619 5.16628 11.75 5.30435 11.75H18.6957Z" fill="black"/>
<path fill-rule="evenodd" clip-rule="evenodd" d="M0 12C0 10.142 0 9.21298 0.123117 8.43565C0.800832 4.15673 4.15673 0.800832 8.43565 0.123117C9.21298 0 10.142 0 12 0C13.858 0 14.787 0 15.5643 0.123117C19.8433 0.800832 23.1992 4.15673 23.8769 8.43565C24 9.21298 24 10.142 24 12C24 13.858 24 14.787 23.8769 15.5643C23.1992 19.8433 19.8433 23.1992 15.5643 23.8769C14.787 24 13.858 24 12 24C10.142 24 9.21298 24 8.43565 23.8769C4.15673 23.1992 0.800832 19.8433 0.123117 15.5643C0 14.787 0 13.858 0 12ZM12 23.5C10.1229 23.5 9.24254 23.4984 8.51387 23.383C4.44889 22.7392 1.26079 19.5511 0.616961 15.4861C0.501552 14.7575 0.5 13.8771 0.5 12C0.5 10.1229 0.501552 9.24254 0.616961 8.51387C1.26079 4.44889 4.44889 1.26079 8.51387 0.616961C9.24254 0.501552 10.1229 0.5 12 0.5C13.8771 0.5 14.7575 0.501552 15.4861 0.616961C19.5511 1.26079 22.7392 4.44889 23.383 8.51387C23.4984 9.24254 23.5 10.1229 23.5 12C23.5 13.8771 23.4984 14.7575 23.383 15.4861C22.7392 19.5511 19.5511 22.7392 15.4861 23.383C14.7575 23.4984 13.8771 23.5 12 23.5Z" fill="black"/>
</svg>
