<svg width="24" height="24" viewBox="0 0 24 24" fill="none" xmlns="http://www.w3.org/2000/svg">
<path d="M17 10.25C17.9663 10.2502 18.75 11.0336 18.75 12C18.75 12.9664 17.9663 13.7498 17 13.75H7L6.82129 13.7412C5.93897 13.6515 5.25001 12.906 5.25 12C5.25 11.094 5.93897 10.3485 6.82129 10.2588L7 10.25H17Z" fill="black"/>
<path fill-rule="evenodd" clip-rule="evenodd" d="M12 0C18.6274 0 24 5.37258 24 12C24 18.6274 18.6274 24 12 24C5.37258 24 0 18.6274 0 12C0 5.37258 5.37258 0 12 0ZM12 3.5C7.30558 3.5 3.5 7.30558 3.5 12C3.5 16.6944 7.30558 20.5 12 20.5C16.6944 20.5 20.5 16.6944 20.5 12C20.5 7.30558 16.6944 3.5 12 3.5Z" fill="black"/>
</svg>
