<svg width="24" height="24" viewBox="0 0 24 24" fill="none" xmlns="http://www.w3.org/2000/svg">
<path d="M18.6956 11.5C18.9718 11.5 19.1956 11.7238 19.1956 12C19.1956 12.2761 18.9718 12.5 18.6956 12.5H5.30435C5.0282 12.5 4.80435 12.2761 4.80434 12C4.80435 11.7238 5.0282 11.5 5.30435 11.5L18.6956 11.5Z" fill="black"/>
<path fill-rule="evenodd" clip-rule="evenodd" d="M24 12C24 18.6274 18.6274 24 12 24C5.37258 24 0 18.6274 0 12C0 5.37258 5.37258 0 12 0C18.6274 0 24 5.37258 24 12ZM23 12C23 18.0751 18.0751 23 12 23C5.92487 23 1 18.0751 1 12C1 5.92487 5.92487 1 12 1C18.0751 1 23 5.92487 23 12Z" fill="black"/>
</svg>
