<svg width="24" height="24" viewBox="0 0 24 24" fill="none" xmlns="http://www.w3.org/2000/svg">
<path d="M18.6956 11C19.2479 11 19.6956 11.4477 19.6956 12C19.6956 12.5523 19.2479 13 18.6956 13H5.30435C4.75206 13 4.30435 12.5523 4.30435 12C4.30435 11.4477 4.75206 11 5.30435 11H18.6956Z" fill="black"/>
<path fill-rule="evenodd" clip-rule="evenodd" d="M0 12C0 10.142 0 9.21298 0.123117 8.43565C0.800832 4.15673 4.15673 0.800832 8.43565 0.123117C9.21298 0 10.142 0 12 0C13.858 0 14.787 0 15.5643 0.123117C19.8433 0.800832 23.1992 4.15673 23.8769 8.43565C24 9.21298 24 10.142 24 12C24 13.858 24 14.787 23.8769 15.5643C23.1992 19.8433 19.8433 23.1992 15.5643 23.8769C14.787 24 13.858 24 12 24C10.142 24 9.21298 24 8.43565 23.8769C4.15673 23.1992 0.800832 19.8433 0.123117 15.5643C0 14.787 0 13.858 0 12ZM12 22C10.0656 22 9.3312 21.9938 8.74852 21.9015C5.32538 21.3593 2.64067 18.6746 2.09849 15.2515C2.00621 14.6688 2 13.9344 2 12C2 10.0656 2.00621 9.3312 2.09849 8.74852C2.64067 5.32538 5.32538 2.64067 8.74852 2.09849C9.3312 2.00621 10.0656 2 12 2C13.9344 2 14.6688 2.00621 15.2515 2.09849C18.6746 2.64067 21.3593 5.32538 21.9015 8.74852C21.9938 9.3312 22 10.0656 22 12C22 13.9344 21.9938 14.6688 21.9015 15.2515C21.3593 18.6746 18.6746 21.3593 15.2515 21.9015C14.6688 21.9938 13.9344 22 12 22Z" fill="black"/>
</svg>
