<svg width="24" height="24" viewBox="0 0 24 24" fill="none" xmlns="http://www.w3.org/2000/svg">
<path d="M18.6957 11.25C19.1099 11.25 19.4457 11.5858 19.4457 12C19.4457 12.4142 19.1099 12.75 18.6957 12.75L5.30435 12.75C4.89013 12.75 4.55435 12.4142 4.55435 12C4.55435 11.5858 4.89013 11.25 5.30435 11.25L18.6957 11.25Z" fill="black"/>
<path fill-rule="evenodd" clip-rule="evenodd" d="M24 12C24 18.6274 18.6274 24 12 24C5.37258 24 0 18.6274 0 12C0 5.37258 5.37258 0 12 0C18.6274 0 24 5.37258 24 12ZM22.5 12C22.5 17.799 17.799 22.5 12 22.5C6.20101 22.5 1.5 17.799 1.5 12C1.5 6.20101 6.20101 1.5 12 1.5C17.799 1.5 22.5 6.20101 22.5 12Z" fill="black"/>
</svg>
