<svg width="24" height="24" viewBox="0 0 24 24" fill="none" xmlns="http://www.w3.org/2000/svg">
<path fill-rule="evenodd" clip-rule="evenodd" d="M18.5882 21.6314C13.2593 24.7081 6.44523 22.8823 3.36857 17.5533C0.291913 12.2244 2.11774 5.41035 7.44666 2.3337C8.32968 1.82389 9.25528 1.44802 10.1992 1.20077C10.2148 1.19669 10.2304 1.19259 10.246 1.18849C10.5496 1.10888 10.8663 1.02584 11.1418 0.984673C11.4515 0.938374 11.8652 0.917247 12.3015 1.09565C12.8799 1.33222 13.3271 1.80943 13.5257 2.402C13.6941 2.90426 13.5957 3.393 13.524 3.68809C13.4471 4.00447 13.3185 4.39113 13.1787 4.81135L13.1636 4.85689C12.4105 7.12168 12.5931 9.68108 13.8788 11.908C15.0443 13.9267 16.8989 15.2962 18.9766 15.8928L19.0227 15.906C19.4479 16.0281 19.8393 16.1405 20.1437 16.2558C20.4278 16.3636 20.8863 16.5588 21.2053 16.9816C21.5819 17.4806 21.7226 18.1199 21.5904 18.7308C21.4907 19.1914 21.2394 19.5206 21.0258 19.75C20.836 19.9538 20.5883 20.1678 20.3511 20.3728C20.3388 20.3834 20.3266 20.394 20.3144 20.4045C19.7879 20.8598 19.2116 21.2716 18.5882 21.6314ZM5.53363 16.3033C7.91993 20.4365 13.205 21.8527 17.3382 19.4664C17.8241 19.1859 18.2715 18.866 18.6792 18.5135C18.7107 18.4862 18.7406 18.4603 18.7691 18.4357C18.634 18.3956 18.4752 18.3498 18.2866 18.2957C15.6115 17.5276 13.2159 15.7598 11.7137 13.158C10.0559 10.2865 9.82228 6.98208 10.7913 4.06801C10.8535 3.88093 10.9058 3.72334 10.9493 3.58867C10.9123 3.59831 10.8735 3.60847 10.8327 3.61918C10.1027 3.8104 9.38461 4.10157 8.69666 4.49876C4.56347 6.88506 3.14733 12.1702 5.53363 16.3033Z" fill="black"/>
</svg>
