<svg width="24" height="24" viewBox="0 0 24 24" fill="none" xmlns="http://www.w3.org/2000/svg">
<path fill-rule="evenodd" clip-rule="evenodd" d="M19.0871 20.7657C14.2364 23.5662 8.03396 21.9043 5.23345 17.0536C2.43294 12.203 4.09489 6.00051 8.94552 3.2C9.28229 3.00556 9.62566 2.8326 9.97404 2.68071L9.98812 2.67458C10.415 2.48844 10.7541 2.34061 11.0271 2.25458C11.3022 2.1679 11.5567 2.12776 11.7968 2.20772C12.159 2.32838 12.4377 2.62111 12.5405 2.98886C12.5781 3.12344 12.5712 3.26612 12.5429 3.40903C12.5145 3.55248 12.4612 3.71225 12.3903 3.88913C12.2497 4.23925 12.0236 4.69543 11.7314 5.28481L11.7258 5.29606C10.34 8.09131 10.3348 11.5044 12.0111 14.408C13.4909 16.971 15.9694 18.5976 18.672 19.0799C19.0814 19.153 19.3732 19.4527 19.4724 19.7905C19.5741 20.1368 19.4745 20.542 19.0871 20.7657ZM5.66646 16.8036C8.32891 21.4151 14.2256 22.9951 18.8371 20.3327C18.9956 20.2411 19.0393 20.0901 18.9927 19.9314C18.9435 19.764 18.7954 19.6098 18.5842 19.5721C15.7426 19.065 13.1347 17.354 11.5781 14.658C9.81457 11.6034 9.82089 8.01279 11.2778 5.07397C11.5767 4.47105 11.7939 4.03249 11.9262 3.7029C11.9921 3.53881 12.0327 3.41169 12.0524 3.31197C12.0723 3.21172 12.0677 3.15494 12.0589 3.12339C12.0009 2.91564 11.8434 2.75026 11.6388 2.6821C11.5515 2.65304 11.423 2.65406 11.1774 2.73146C10.9327 2.80855 10.618 2.94541 10.1739 3.13905C9.84264 3.28346 9.51602 3.44797 9.19552 3.63301C4.58403 6.29545 3.00402 12.1921 5.66646 16.8036Z" fill="black"/>
</svg>
