<svg width="24" height="24" viewBox="0 0 24 24" fill="none" xmlns="http://www.w3.org/2000/svg">
<path fill-rule="evenodd" clip-rule="evenodd" d="M18.0881 20.7652C13.2374 23.5657 7.03494 21.9038 4.23443 17.0532C1.43391 12.2025 3.09586 6.00004 7.9465 3.19953C8.75148 2.73477 9.59406 2.39278 10.4524 2.16794L10.4664 2.16428C10.7993 2.07706 11.0688 2.00646 11.2894 1.97349C11.5171 1.93946 11.7244 1.9399 11.9227 2.02104C12.232 2.14749 12.4712 2.40281 12.5774 2.71956C12.6492 2.93387 12.6181 3.18045 12.5521 3.45175C12.4852 3.72718 12.3679 4.0798 12.2184 4.52937L12.2145 4.54114C11.375 7.06565 11.5781 9.92307 13.0126 12.4078C14.3128 14.6597 16.3838 16.1886 18.7005 16.8538L18.7124 16.8572C19.1673 16.9878 19.5241 17.0903 19.789 17.1907C20.0499 17.2896 20.2708 17.4033 20.407 17.5838C20.6082 17.8505 20.6835 18.1926 20.6129 18.5191C20.5675 18.7287 20.4507 18.8998 20.2938 19.0682C20.1419 19.2314 19.9313 19.4135 19.6711 19.6384L19.6602 19.6479C19.1812 20.0621 18.6564 20.4371 18.0881 20.7652ZM4.66744 16.8032C7.32988 21.4146 13.2266 22.9946 17.8381 20.3322C18.3789 20.0199 18.8779 19.6633 19.3331 19.2697C19.6068 19.033 19.7966 18.8684 19.9279 18.7275C20.0564 18.5895 20.106 18.4974 20.1242 18.4134C20.1641 18.2291 20.1215 18.0355 20.0079 17.885C19.9631 17.8257 19.861 17.7527 19.6117 17.6582C19.3686 17.5661 19.0319 17.4691 18.5625 17.3344C16.1263 16.6348 13.9471 15.0264 12.5796 12.6578C11.0706 10.0442 10.8574 7.03773 11.7401 4.38337C11.8943 3.91948 12.0048 3.58654 12.0663 3.33368C12.1293 3.07428 12.1269 2.94877 12.1033 2.87845C12.0434 2.6996 11.9081 2.55523 11.7335 2.48383C11.654 2.45133 11.5499 2.44011 11.3633 2.468C11.1727 2.49649 10.9294 2.55987 10.5791 2.65162C9.76353 2.86525 8.96247 3.1903 8.1965 3.63254C3.58501 6.29498 2.005 12.1917 4.66744 16.8032Z" fill="black"/>
</svg>
