<svg width="24" height="24" viewBox="0 0 24 24" fill="none" xmlns="http://www.w3.org/2000/svg">
<path fill-rule="evenodd" clip-rule="evenodd" d="M19.0871 20.7656C14.2364 23.5661 8.03396 21.9041 5.23345 17.0535C2.43294 12.2029 4.09489 6.0004 8.94552 3.19989C9.50502 2.87686 10.0827 2.61312 10.6713 2.4068L10.6854 2.40186C11.0628 2.26956 11.3654 2.16348 11.6112 2.10609C11.8621 2.04752 12.0925 2.0295 12.3117 2.11019C12.6482 2.23403 12.9079 2.50817 13.0132 2.85086C13.0856 3.08626 13.03 3.36178 12.9331 3.66414C12.8337 3.97469 12.6682 4.3756 12.4558 4.89018L12.451 4.90186C11.3478 7.57463 11.4541 10.7109 13.0111 13.4079C14.2548 15.562 16.2037 17.0543 18.3982 17.7622L18.4102 17.7661C18.9385 17.9365 19.3501 18.0693 19.6505 18.1941C19.9432 18.3156 20.1887 18.4513 20.3214 18.6587C20.5145 18.9607 20.5556 19.3361 20.4324 19.6728C20.3521 19.8922 20.1894 20.0562 19.9825 20.2096C19.7798 20.3599 19.5033 20.5219 19.1584 20.724L19.1454 20.7316L19.0871 20.7656ZM5.66646 16.8035C8.32891 21.415 14.2256 22.995 18.8371 20.3326L18.8926 20.3003C19.2534 20.0888 19.5063 19.9402 19.6847 19.8079C19.8614 19.6769 19.9321 19.585 19.9629 19.5009C20.0325 19.3108 20.0092 19.0986 19.9001 18.928C19.8587 18.8633 19.7481 18.776 19.4587 18.6558C19.1795 18.5398 18.7875 18.4132 18.2447 18.2381C15.9368 17.4936 13.8861 15.9234 12.5781 13.6579C10.9402 10.8208 10.829 7.52118 11.9888 4.7111C12.207 4.1824 12.3645 3.80036 12.457 3.51161C12.5528 3.21233 12.5579 3.07123 12.5353 2.99784C12.4758 2.80431 12.3291 2.64935 12.139 2.57942C12.0551 2.54852 11.9392 2.54296 11.7249 2.593C11.5086 2.6435 11.2315 2.74025 10.8367 2.87865C10.2773 3.07473 9.72796 3.3255 9.19552 3.6329C4.58403 6.29534 3.00402 12.192 5.66646 16.8035Z" fill="black"/>
</svg>
