<svg width="24" height="24" viewBox="0 0 24 24" fill="none" xmlns="http://www.w3.org/2000/svg">
<path d="M10.5157 2.40978C11.2054 2.22912 11.5502 2.13879 11.8281 2.25243C12.07 2.35136 12.2573 2.5512 12.3403 2.799C12.4357 3.08364 12.2829 3.54318 11.9773 4.46225C11.1162 7.05168 11.3243 9.98361 12.7961 12.5327C14.1299 14.843 16.255 16.4117 18.6314 17.0941C19.5614 17.3611 20.0265 17.4946 20.2074 17.7344C20.3648 17.943 20.4238 18.2108 20.3685 18.4662C20.305 18.7598 20.0355 18.9928 19.4966 19.4588C19.0295 19.8627 18.5176 20.2285 17.963 20.5487C13.232 23.2802 7.18237 21.6592 4.45089 16.9281C1.71941 12.1971 3.34039 6.14751 8.07145 3.41603C8.85693 2.96253 9.67876 2.62901 10.5157 2.40978Z" fill="black"/>
</svg>
