<svg width="24" height="24" viewBox="0 0 24 24" fill="none" xmlns="http://www.w3.org/2000/svg">
<path fill-rule="evenodd" clip-rule="evenodd" d="M19.3372 21.1987C14.2474 24.1373 7.73911 22.3934 4.80052 17.3036C1.86194 12.2138 3.60582 5.70556 8.6956 2.76697C9.04864 2.56315 9.40876 2.38174 9.77429 2.22237L9.80997 2.20682C10.2182 2.0288 10.5782 1.87181 10.8769 1.77768C11.1814 1.68172 11.562 1.60247 11.9549 1.73333C12.4748 1.90649 12.8747 2.32657 13.0221 2.85432C13.0885 3.09194 13.0702 3.32052 13.0335 3.50608C12.9965 3.69325 12.9305 3.88568 12.8544 4.07535C12.7064 4.44389 12.4731 4.91464 12.189 5.48752L12.1739 5.51813C10.8593 8.16982 10.855 11.4054 12.4442 14.158C13.8472 16.5879 16.1962 18.1301 18.7599 18.5877C19.3676 18.6961 19.803 19.1414 19.9522 19.6496C20.109 20.1835 19.9534 20.8429 19.3372 21.1987ZM18.343 20.0358C15.4222 19.4704 12.7505 17.6885 11.1452 14.908C9.29446 11.7024 9.30183 7.93425 10.8299 4.85187C11.1329 4.24086 11.3391 3.82351 11.4623 3.51665C11.5212 3.36996 11.5492 3.27671 11.561 3.22013C11.5469 3.19718 11.5268 3.17834 11.5028 3.16578C11.4787 3.16859 11.4247 3.17777 11.3278 3.20833C11.1145 3.27554 10.8285 3.39911 10.3738 3.59737C10.0597 3.7343 9.74983 3.89036 9.4456 4.06601C5.07326 6.59038 3.57519 12.1813 6.09956 16.5536C8.57718 20.845 14.0088 22.3675 18.343 20.0358Z" fill="black"/>
</svg>
