<svg width="24" height="24" viewBox="0 0 24 24" fill="none" xmlns="http://www.w3.org/2000/svg">
<path fill-rule="evenodd" clip-rule="evenodd" d="M19.5872 21.6315C14.2583 24.7081 7.44425 22.8823 4.36759 17.5534C1.29094 12.2245 3.11676 5.41039 8.44569 2.33374C9.05932 1.97946 9.69368 1.68977 10.3406 1.46298L10.3901 1.44564C10.7362 1.32423 11.0843 1.20212 11.384 1.13215C11.7081 1.0565 12.1675 0.991324 12.6573 1.17161C13.2867 1.40324 13.7721 1.91576 13.9692 2.55676C14.1413 3.11621 13.9845 3.66055 13.8856 3.96906C13.7735 4.31908 13.5947 4.75228 13.3947 5.23666L13.3755 5.28326C12.3857 7.68143 12.4821 10.4911 13.8773 12.9077C14.9923 14.839 16.7375 16.1756 18.7053 16.8104L18.7533 16.8259C19.2505 16.9862 19.6955 17.1297 20.0343 17.2704C20.3335 17.3947 20.849 17.6271 21.164 18.1198C21.5253 18.6848 21.6021 19.3866 21.3717 20.0164C21.1923 20.5064 20.8455 20.8146 20.5782 21.0128C20.331 21.196 20.0128 21.3825 19.6964 21.5678C19.6814 21.5766 19.6663 21.5854 19.6512 21.5943L19.5872 21.6315ZM6.53266 16.3034C8.91896 20.4366 14.204 21.8527 18.3372 19.4664L18.3871 19.4374C18.4259 19.4147 18.463 19.3929 18.4985 19.3721C18.34 19.3195 18.1551 19.2597 17.9378 19.1897C15.4033 18.3721 13.149 16.6462 11.7123 14.1577C9.91252 11.0405 9.79143 7.41413 11.0646 4.32945C11.1525 4.11654 11.2271 3.93541 11.2899 3.7794C11.2509 3.79304 11.2102 3.8073 11.1677 3.82223C10.6667 3.99783 10.174 4.22265 9.69569 4.4988C5.56249 6.8851 4.14636 12.1702 6.53266 16.3034Z" fill="black"/>
</svg>
