<svg width="24" height="24" viewBox="0 0 24 24" fill="none" xmlns="http://www.w3.org/2000/svg">
<path fill-rule="evenodd" clip-rule="evenodd" d="M18.4631 21.4147C13.2537 24.4224 6.59253 22.6375 3.58491 17.4282C0.577291 12.2188 2.36215 5.55764 7.5715 2.55002C8.435 2.05147 9.33985 1.68407 10.2624 1.44243L10.3034 1.43166C10.6125 1.35065 10.917 1.27084 11.1786 1.23174C11.4678 1.18851 11.8299 1.17277 12.2067 1.32686C12.7178 1.5359 13.113 1.95764 13.2885 2.48125C13.4327 2.91153 13.3512 3.33973 13.2809 3.62887C13.2065 3.93492 13.0809 4.31279 12.9391 4.7391L12.9262 4.77781C12.1515 7.10753 12.3392 9.74144 13.6621 12.0328C14.8613 14.1098 16.77 15.5192 18.9074 16.1329L18.9467 16.1442C19.378 16.268 19.7605 16.3778 20.0549 16.4894C20.3332 16.5949 20.7323 16.7698 21.0056 17.132C21.3384 17.5729 21.4627 18.1379 21.3459 18.6778C21.2598 19.0756 21.0421 19.3653 20.8427 19.5794C20.6624 19.7729 20.4244 19.9787 20.1829 20.1874C20.1722 20.1967 20.1614 20.206 20.1507 20.2152C19.6361 20.6603 19.0726 21.0628 18.4631 21.4147ZM5.31696 16.4282C7.7723 20.6809 13.2103 22.138 17.4631 19.6827C17.9627 19.3942 18.423 19.0652 18.8426 18.7024C19.0362 18.5349 19.1689 18.4194 19.2645 18.3299C19.0616 18.2587 18.7784 18.1767 18.3555 18.0552C15.7401 17.3043 13.3986 15.5763 11.9301 13.0328C10.3095 10.2258 10.0809 6.99586 11.0284 4.14671C11.1675 3.72839 11.2601 3.44787 11.3161 3.23989C11.188 3.2681 11.0174 3.31213 10.7691 3.37715C10.0177 3.57398 9.27895 3.87362 8.5715 4.28207C4.31873 6.7374 2.86163 12.1754 5.31696 16.4282Z" fill="black"/>
</svg>
