<svg width="24" height="24" viewBox="0 0 24 24" fill="none" xmlns="http://www.w3.org/2000/svg">
<path fill-rule="evenodd" clip-rule="evenodd" d="M19.4622 21.415C14.2528 24.4226 7.59168 22.6377 4.58406 17.4284C1.57644 12.219 3.36129 5.55786 8.57064 2.55024C9.17074 2.20378 9.79094 1.92057 10.4233 1.6989L10.4662 1.68386C10.8184 1.56036 11.1547 1.4424 11.4408 1.3756C11.7466 1.30422 12.1487 1.25084 12.5709 1.40622C13.127 1.61091 13.556 2.06383 13.7302 2.63025C13.8774 3.10869 13.7458 3.58582 13.6475 3.8928C13.5386 4.23288 13.3632 4.65774 13.1606 5.14854L13.1444 5.18788C12.1262 7.6547 12.2251 10.546 13.6608 13.0327C14.808 15.0197 16.604 16.3953 18.6285 17.0483L18.6691 17.0614C19.1728 17.2239 19.6092 17.3646 19.9384 17.5013C20.2359 17.6249 20.6839 17.8331 20.9534 18.2545C21.2726 18.7538 21.3405 19.3739 21.1368 19.9304C20.9822 20.3528 20.6815 20.6249 20.4293 20.8119C20.1933 20.9869 19.8859 21.167 19.5641 21.3556C19.551 21.3632 19.5379 21.3709 19.5248 21.3786L19.4622 21.415ZM6.31611 16.4284C8.77144 20.6812 14.2094 22.1383 18.4622 19.6829L18.5135 19.6531C18.7697 19.5029 18.9492 19.397 19.0813 19.3123C18.8415 19.2191 18.5058 19.1102 18.0146 18.9517C15.5367 18.1525 13.3333 16.4654 11.9287 14.0327C10.1694 10.9855 10.0508 7.44086 11.2957 4.42483C11.4935 3.94559 11.6281 3.61775 11.7125 3.37365C11.5624 3.41962 11.3653 3.48802 11.0849 3.5863C10.5693 3.76703 10.0625 3.99833 9.57064 4.28229C5.31788 6.73763 3.86077 12.1756 6.31611 16.4284Z" fill="black"/>
</svg>
