<svg width="24" height="24" viewBox="0 0 24 24" fill="none" xmlns="http://www.w3.org/2000/svg">
<path d="M10.7559 2.64297C11.5347 2.36997 11.9241 2.23346 12.2273 2.34505C12.4905 2.44193 12.6937 2.65648 12.7762 2.92459C12.8712 3.23339 12.6547 3.75783 12.2218 4.80672C11.0903 7.54815 11.199 10.7661 12.7966 13.5331C14.0724 15.7429 16.0722 17.2742 18.3233 18.0004C19.4002 18.3477 19.9386 18.5214 20.1127 18.7936C20.2638 19.0299 20.296 19.3237 20.1995 19.5871C20.0885 19.8905 19.7327 20.0991 19.0209 20.5162C19.002 20.5273 18.983 20.5383 18.964 20.5493C14.2329 23.2808 8.18335 21.6598 5.45187 16.9288C2.72039 12.1977 4.34137 6.14812 9.07243 3.41664C9.6184 3.10142 10.1819 2.84417 10.7559 2.64297Z" fill="black"/>
</svg>
