<svg width="24" height="24" viewBox="0 0 24 24" fill="none" xmlns="http://www.w3.org/2000/svg">
<path fill-rule="evenodd" clip-rule="evenodd" d="M18.338 21.1982C13.2482 24.1368 6.73996 22.3929 3.80138 17.3032C0.862792 12.2134 2.60668 5.7051 7.69646 2.76652C8.54046 2.27924 9.42455 1.9203 10.3257 1.68426L10.3596 1.67537C10.6752 1.59268 10.9677 1.51603 11.2155 1.47899C11.4842 1.43883 11.7947 1.42848 12.112 1.55825C12.5558 1.73976 12.8991 2.10603 13.0514 2.56069C13.1715 2.91898 13.1068 3.28663 13.038 3.56983C12.9661 3.86563 12.8433 4.2349 12.6992 4.66807L12.6889 4.69892C11.8926 7.09357 12.0855 9.80198 13.4456 12.1578C14.6784 14.2931 16.6412 15.7423 18.8384 16.3732L18.8697 16.3822C19.308 16.508 19.6817 16.6153 19.9662 16.7232C20.2387 16.8265 20.5784 16.9809 20.806 17.2826C21.0949 17.6654 21.203 18.1561 21.1015 18.6249C21.029 18.96 20.8449 19.2101 20.6597 19.409C20.4889 19.5923 20.2603 19.79 20.0137 20.0032L19.9872 20.0261C19.4844 20.4609 18.9339 20.8542 18.338 21.1982ZM5.10041 16.5532C7.62479 20.9255 13.2157 22.4236 17.588 19.8992C18.1014 19.6028 18.5746 19.2646 19.006 18.8915C19.2883 18.6474 19.4535 18.5032 19.562 18.3867C19.608 18.3372 19.6292 18.3078 19.6377 18.2944C19.6412 18.2656 19.6361 18.2362 19.6235 18.2102C19.6003 18.1969 19.5448 18.1676 19.4344 18.1257C19.2154 18.0427 18.9027 17.9523 18.4244 17.8149C15.8688 17.0811 13.5814 15.393 12.1465 12.9078C10.5632 10.1653 10.3397 7.00981 11.2656 4.2256C11.4227 3.75303 11.525 3.44351 11.5804 3.21562C11.6083 3.10063 11.6155 3.03811 11.6177 3.01151C11.6035 2.9864 11.5821 2.96568 11.5564 2.9523C11.5405 2.95176 11.5042 2.9525 11.4372 2.96251C11.2795 2.98607 11.0669 3.04071 10.7058 3.13531C9.93297 3.33774 9.17341 3.64585 8.44646 4.06556C4.07412 6.58993 2.57604 12.1808 5.10041 16.5532Z" fill="black"/>
</svg>
