<svg width="24" height="24" viewBox="0 0 24 24" fill="none" xmlns="http://www.w3.org/2000/svg">
<path d="M10.7557 2.64309C11.5345 2.37009 11.9239 2.23358 12.2271 2.34517C12.4903 2.44206 12.6935 2.65661 12.776 2.92472C12.8709 3.23351 12.6545 3.75795 12.2216 4.80685C11.0901 7.54827 11.1988 10.7663 12.7963 13.5332C14.0721 15.7431 16.0719 17.2744 18.3231 18.0005C19.3999 18.3479 19.9384 18.5215 20.1124 18.7937C20.2635 19.03 20.2957 19.3238 20.1993 19.5872C20.0883 19.8906 19.7324 20.0992 19.0207 20.5163C19.0018 20.5274 18.9828 20.5385 18.9637 20.5494C14.2327 23.2809 8.1831 21.6599 5.45162 16.9289C2.72015 12.1978 4.34113 6.14824 9.07219 3.41676C9.61816 3.10155 10.1817 2.84429 10.7557 2.64309Z" fill="black"/>
</svg>
