<svg width="24" height="24" viewBox="0 0 24 24" fill="none" xmlns="http://www.w3.org/2000/svg">
<path fill-rule="evenodd" clip-rule="evenodd" d="M18.4632 21.4149C13.2538 24.4225 6.59265 22.6377 3.58503 17.4283C0.577413 12.219 2.36227 5.55782 7.57162 2.5502C8.43513 2.05165 9.33998 1.68425 10.2625 1.44261L10.3035 1.43185C10.6126 1.35083 10.9171 1.27102 11.1787 1.23192C11.4679 1.18869 11.83 1.17296 12.2068 1.32704C12.7179 1.53608 13.1132 1.95782 13.2886 2.48143C13.4328 2.91171 13.3513 3.33991 13.281 3.62905C13.2067 3.93511 13.081 4.31297 12.9392 4.73928L12.9263 4.778C12.1516 7.10772 12.3394 9.74162 13.6623 12.0329C14.8615 14.11 16.7701 15.5194 18.9076 16.1331L18.9468 16.1444C19.3781 16.2682 19.7606 16.378 20.055 16.4896C20.3333 16.5951 20.7324 16.7699 21.0058 17.1322C21.3385 17.5731 21.4629 18.1381 21.346 18.678C21.2599 19.0758 21.0422 19.3654 20.8428 19.5796C20.6625 19.7731 20.4245 19.9789 20.183 20.1876C20.1723 20.1969 20.1616 20.2061 20.1509 20.2154C19.6362 20.6604 19.0728 21.063 18.4632 21.4149ZM5.31708 16.4283C7.77242 20.6811 13.2104 22.1382 17.4632 19.6829C17.9628 19.3944 18.4231 19.0654 18.8427 18.7026C19.0364 18.5351 19.169 18.4196 19.2646 18.3301C19.0617 18.2588 18.7785 18.1768 18.3556 18.0554C15.7402 17.3044 13.3987 15.5765 11.9302 13.0329C10.3096 10.226 10.0811 6.99604 11.0285 4.1469C11.1676 3.72857 11.2602 3.44805 11.3162 3.24007C11.1881 3.26828 11.0175 3.31232 10.7693 3.37734C10.0179 3.57416 9.27907 3.8738 8.57162 4.28225C4.31885 6.73759 2.86175 12.1756 5.31708 16.4283Z" fill="black"/>
</svg>
