<svg width="24" height="24" viewBox="0 0 24 24" fill="none" xmlns="http://www.w3.org/2000/svg">
<path fill-rule="evenodd" clip-rule="evenodd" d="M18.588 21.6313C13.2591 24.7079 6.44498 22.8821 3.36833 17.5532C0.291669 12.2242 2.11749 5.41017 7.44642 2.33351C8.32943 1.82371 9.25504 1.44783 10.1989 1.20059C10.2145 1.19651 10.2301 1.19241 10.2458 1.1883C10.5494 1.1087 10.8661 1.02566 11.1415 0.98449C11.4513 0.938191 11.865 0.917064 12.3012 1.09546C12.8797 1.33203 13.3269 1.80925 13.5255 2.40181C13.6938 2.90408 13.5955 3.39282 13.5238 3.68791C13.4469 4.00428 13.3183 4.39094 13.1785 4.81116L13.1634 4.8567C12.4102 7.1215 12.5929 9.6809 13.8786 11.9078C15.0441 13.9265 16.8986 15.296 18.9764 15.8926L19.0225 15.9059C19.4477 16.0279 19.8391 16.1403 20.1434 16.2557C20.4275 16.3634 20.886 16.5586 21.2051 16.9814C21.5817 17.4804 21.7224 18.1197 21.5902 18.7307C21.4905 19.1913 21.2391 19.5204 21.0255 19.7498C20.8357 19.9536 20.5881 20.1676 20.3509 20.3726C20.3386 20.3832 20.3264 20.3938 20.3142 20.4043C19.7876 20.8596 19.2113 21.2714 18.588 21.6313ZM5.53339 16.3032C7.91969 20.4364 13.2048 21.8525 17.338 19.4662C17.8238 19.1857 18.2713 18.8658 18.679 18.5133C18.7105 18.486 18.7404 18.4602 18.7689 18.4355C18.6337 18.3954 18.4749 18.3497 18.2864 18.2955C15.6113 17.5274 13.2157 15.7596 11.7135 13.1578C10.0557 10.2864 9.82203 6.9819 10.7911 4.06783C10.8533 3.88075 10.9055 3.72316 10.949 3.58849C10.9121 3.59813 10.8733 3.60829 10.8324 3.619C10.1024 3.81022 9.38436 4.10139 8.69642 4.49858C4.56323 6.88488 3.14709 12.17 5.53339 16.3032Z" fill="black"/>
</svg>
