<svg width="24" height="24" viewBox="0 0 24 24" fill="none" xmlns="http://www.w3.org/2000/svg">
<path fill-rule="evenodd" clip-rule="evenodd" d="M19.2121 20.9822C14.2419 23.8517 7.88654 22.1488 5.01699 17.1786C2.14744 12.2084 3.85036 5.85303 8.82056 2.98349C9.16546 2.78436 9.51721 2.60717 9.87417 2.45154L9.89997 2.44029C10.3168 2.25854 10.6662 2.1062 10.952 2.01613C11.2418 1.92481 11.5594 1.86511 11.8758 1.97052C12.3169 2.11743 12.6562 2.47384 12.7813 2.92159C12.8333 3.10769 12.8207 3.29332 12.7882 3.45756C12.7555 3.62287 12.6959 3.79896 12.6223 3.98224C12.4781 4.34155 12.2484 4.80494 11.9604 5.3857L11.9498 5.40709C10.5996 8.13056 10.5949 11.4549 12.2277 14.283C13.669 16.7795 16.0828 18.3639 18.716 18.8338C19.2245 18.9245 19.5881 19.297 19.7123 19.72C19.8416 20.1602 19.7139 20.6925 19.2121 20.9822ZM5.88301 16.6786C8.47642 21.1705 14.2202 22.7096 18.7121 20.1162C18.7487 20.095 18.7544 20.0788 18.7561 20.074C18.7595 20.0644 18.7641 20.0401 18.7528 20.0018C18.7287 19.9197 18.6524 19.8382 18.5403 19.8182C15.6292 19.2987 12.9566 17.5456 11.3617 14.783C9.55452 11.6529 9.56136 7.97352 11.0539 4.96292C11.3548 4.35595 11.5665 3.928 11.6943 3.60977C11.7575 3.45208 11.7918 3.34129 11.8072 3.26344C11.8168 3.21508 11.8167 3.19116 11.8164 3.18448C11.7794 3.05963 11.6836 2.96052 11.5598 2.91928C11.549 2.91567 11.4835 2.89714 11.2526 2.96989C11.0236 3.04204 10.7233 3.17226 10.2738 3.36821C9.95117 3.50888 9.63293 3.66917 9.32056 3.84951C4.82865 6.44292 3.2896 12.1867 5.88301 16.6786Z" fill="black"/>
</svg>
