<svg width="24" height="24" viewBox="0 0 24 24" fill="none" xmlns="http://www.w3.org/2000/svg">
<path fill-rule="evenodd" clip-rule="evenodd" d="M19.3372 21.1984C14.2474 24.137 7.73911 22.3931 4.80052 17.3034C1.86194 12.2136 3.60582 5.70531 8.6956 2.76673C9.04864 2.5629 9.40876 2.38149 9.77429 2.22213L9.80997 2.20657C10.2182 2.02856 10.5782 1.87157 10.8769 1.77744C11.1814 1.68147 11.562 1.60222 11.9549 1.73308C12.4748 1.90624 12.8747 2.32633 13.0221 2.85408C13.0885 3.0917 13.0702 3.32027 13.0335 3.50584C12.9965 3.69301 12.9305 3.88543 12.8544 4.0751C12.7064 4.44365 12.4731 4.9144 12.189 5.48727L12.1739 5.51788C10.8593 8.16957 10.855 11.4052 12.4442 14.1577C13.8472 16.5877 16.1962 18.1299 18.7599 18.5874C19.3676 18.6959 19.803 19.1411 19.9522 19.6493C20.109 20.1833 19.9534 20.8427 19.3372 21.1984ZM18.343 20.0355C15.4222 19.4702 12.7505 17.6882 11.1452 14.9077C9.29446 11.7021 9.30183 7.934 10.8299 4.85163C11.1329 4.24062 11.3391 3.82326 11.4623 3.5164C11.5212 3.36972 11.5492 3.27646 11.561 3.21988C11.5469 3.19693 11.5268 3.17809 11.5028 3.16554C11.4787 3.16835 11.4247 3.17753 11.3278 3.20808C11.1145 3.27529 10.8285 3.39887 10.3738 3.59712C10.0597 3.73406 9.74983 3.89012 9.4456 4.06577C5.07326 6.59014 3.57519 12.181 6.09956 16.5534C8.57718 20.8447 14.0088 22.3673 18.343 20.0355Z" fill="black"/>
</svg>
