<svg width="24" height="24" viewBox="0 0 24 24" fill="none" xmlns="http://www.w3.org/2000/svg">
<path fill-rule="evenodd" clip-rule="evenodd" d="M19.2121 20.9821C14.2419 23.8516 7.88654 22.1487 5.01699 17.1785C2.14744 12.2083 3.85036 5.85291 8.82056 2.98336C9.16546 2.78423 9.51721 2.60705 9.87417 2.45142L9.89997 2.44017C10.3168 2.25841 10.6662 2.10607 10.952 2.01601C11.2418 1.92468 11.5594 1.86499 11.8758 1.9704C12.3169 2.11731 12.6562 2.47372 12.7813 2.92147C12.8333 3.10757 12.8207 3.2932 12.7882 3.45744C12.7555 3.62275 12.6959 3.79884 12.6223 3.98212C12.4781 4.34143 12.2484 4.80482 11.9604 5.38557L11.9498 5.40697C10.5996 8.13044 10.5949 11.4548 12.2277 14.2829C13.669 16.7793 16.0828 18.3637 18.716 18.8337C19.2245 18.9244 19.5881 19.2969 19.7123 19.7199C19.8416 20.16 19.7139 20.6924 19.2121 20.9821ZM5.88301 16.6785C8.47642 21.1704 14.2202 22.7095 18.7121 20.116C18.7487 20.0949 18.7544 20.0787 18.7561 20.0739C18.7595 20.0642 18.7641 20.04 18.7528 20.0017C18.7287 19.9196 18.6524 19.8381 18.5403 19.8181C15.6292 19.2986 12.9566 17.5454 11.3617 14.7829C9.55452 11.6528 9.56136 7.97339 11.0539 4.9628C11.3548 4.35583 11.5665 3.92788 11.6943 3.60965C11.7575 3.45195 11.7918 3.34117 11.8072 3.26331C11.8168 3.21496 11.8167 3.19104 11.8164 3.18435C11.7794 3.0595 11.6836 2.9604 11.5598 2.91916C11.549 2.91555 11.4835 2.89701 11.2526 2.96977C11.0236 3.04192 10.7233 3.17214 10.2738 3.36809C9.95117 3.50876 9.63293 3.66904 9.32056 3.84939C4.82865 6.4428 3.2896 12.1866 5.88301 16.6785Z" fill="black"/>
</svg>
