<svg width="24" height="24" viewBox="0 0 24 24" fill="none" xmlns="http://www.w3.org/2000/svg">
<path fill-rule="evenodd" clip-rule="evenodd" d="M18.2131 20.9819C13.2429 23.8515 6.88751 22.1485 4.01796 17.1783C1.14841 12.2081 2.85133 5.85275 7.82154 2.98321C8.64603 2.50718 9.50937 2.15672 10.3891 1.92628L10.4141 1.91974C10.7375 1.835 11.0183 1.76142 11.2525 1.72642C11.5007 1.68933 11.7596 1.68438 12.0174 1.78983C12.3939 1.94381 12.6852 2.25461 12.8145 2.64031C12.9104 2.92661 12.8625 3.23373 12.7951 3.51097C12.7257 3.79656 12.6057 4.15739 12.4591 4.59823L12.4518 4.62021C11.6339 7.07979 11.8318 9.86271 13.2292 12.2829C14.4957 14.4766 16.5126 15.9656 18.7695 16.6137L18.7918 16.6201C19.2379 16.7481 19.603 16.853 19.8777 16.9571C20.1444 17.0582 20.4246 17.1923 20.6066 17.4334C20.8516 17.7581 20.9433 18.1745 20.8573 18.5722C20.7983 18.8445 20.6478 19.0551 20.4768 19.2388C20.3155 19.412 20.096 19.6018 19.8433 19.8202L19.8237 19.8372C19.3328 20.2617 18.7952 20.6458 18.2131 20.9819ZM4.88399 16.6783C7.4774 21.1702 13.2212 22.7093 17.7131 20.1159C18.2402 19.8116 18.7263 19.4641 19.1696 19.0808C19.4476 18.8404 19.6251 18.686 19.745 18.5573C19.8593 18.4346 19.8753 18.3819 19.8799 18.3607C19.9044 18.2475 19.8781 18.1282 19.8084 18.0357C19.8084 18.0358 19.8084 18.0358 19.8084 18.0357C19.8061 18.0333 19.7578 17.9811 19.5231 17.8922C19.2921 17.8046 18.9673 17.7109 18.4935 17.5748C15.9976 16.8582 13.7643 15.2098 12.3631 12.7829C10.817 10.1049 10.5986 7.02395 11.5029 4.30466C11.6586 3.83644 11.765 3.51521 11.8234 3.27483C11.8826 3.03101 11.8671 2.96162 11.8663 2.95818C11.8663 2.95804 11.8663 2.95812 11.8663 2.95818C11.8295 2.84829 11.7462 2.75928 11.6389 2.71541C11.6189 2.70722 11.5664 2.69062 11.4003 2.71544C11.2262 2.74147 10.9982 2.80047 10.6425 2.89365C9.84831 3.10168 9.068 3.41826 8.32154 3.84923C3.82962 6.44264 2.29058 12.1864 4.88399 16.6783Z" fill="black"/>
</svg>
