<svg width="24" height="24" viewBox="0 0 24 24" fill="none" xmlns="http://www.w3.org/2000/svg">
<path fill-rule="evenodd" clip-rule="evenodd" d="M19.5872 21.6314C14.2583 24.7081 7.44425 22.8823 4.36759 17.5534C1.29094 12.2244 3.11676 5.41036 8.44569 2.3337C8.81499 2.12048 9.19187 1.93063 9.57455 1.76378L9.62562 1.74151C10.02 1.56951 10.402 1.40288 10.7267 1.30054C11.0607 1.1953 11.5672 1.07693 12.113 1.25869C12.7905 1.48435 13.3116 2.03178 13.5038 2.71954C13.5989 3.06019 13.5692 3.37467 13.5241 3.60288C13.4784 3.83378 13.3997 4.05886 13.3185 4.26132C13.1631 4.64848 12.9221 5.13445 12.6449 5.69355L12.6219 5.73996C11.3785 8.24809 11.3753 11.3062 12.8773 13.9077C14.2035 16.2046 16.4231 17.6624 18.8479 18.0952C19.6537 18.239 20.2328 18.8298 20.4321 19.5084C20.6439 20.2299 20.4323 21.1436 19.5872 21.6314ZM16.8312 20.1546C14.3403 19.3233 12.1293 17.6121 10.7123 15.1577C8.77435 11.8011 8.78277 7.85547 10.3821 4.62953C10.5008 4.3901 10.6028 4.18401 10.6898 4.00486C10.6526 4.02104 10.6139 4.0379 10.5737 4.05544C10.2768 4.1849 9.98365 4.33251 9.69569 4.49877C5.56249 6.88507 4.14636 12.1702 6.53266 16.3034C8.63712 19.9484 12.9961 21.4803 16.8312 20.1546ZM11.0713 3.11902C11.0719 3.11598 11.0721 3.11543 11.0716 3.11758C11.0716 3.118 11.0715 3.11849 11.0713 3.11902Z" fill="black"/>
</svg>
