<svg width="24" height="24" viewBox="0 0 24 24" fill="none" xmlns="http://www.w3.org/2000/svg">
<path fill-rule="evenodd" clip-rule="evenodd" d="M19.0871 20.7655C14.2364 23.566 8.03396 21.904 5.23345 17.0534C2.43294 12.2028 4.09489 6.00028 8.94552 3.19977C9.50502 2.87674 10.0827 2.613 10.6713 2.40668L10.6854 2.40174C11.0628 2.26944 11.3654 2.16336 11.6112 2.10597C11.8621 2.04739 12.0925 2.02938 12.3117 2.11007C12.6482 2.2339 12.9079 2.50804 13.0132 2.85073C13.0856 3.08614 13.03 3.36166 12.9331 3.66402C12.8337 3.97457 12.6682 4.37548 12.4558 4.89006L12.451 4.90174C11.3478 7.57451 11.4541 10.7108 13.0111 13.4077C14.2548 15.5619 16.2037 17.0542 18.3982 17.7621L18.4102 17.766C18.9385 17.9364 19.3501 18.0692 19.6505 18.1939C19.9432 18.3155 20.1887 18.4511 20.3214 18.6586C20.5145 18.9606 20.5556 19.336 20.4324 19.6727C20.3521 19.892 20.1894 20.0561 19.9825 20.2095C19.7798 20.3597 19.5033 20.5218 19.1584 20.7239L19.1454 20.7315L19.0871 20.7655ZM5.66646 16.8034C8.32891 21.4149 14.2256 22.9949 18.8371 20.3324L18.8926 20.3001C19.2534 20.0887 19.5063 19.9401 19.6847 19.8078C19.8614 19.6768 19.9321 19.5848 19.9629 19.5008C20.0325 19.3107 20.0092 19.0985 19.9001 18.9279C19.8587 18.8632 19.7481 18.7759 19.4587 18.6557C19.1795 18.5397 18.7875 18.413 18.2447 18.2379C15.9368 17.4935 13.8861 15.9233 12.5781 13.6577C10.9402 10.8207 10.829 7.52105 11.9888 4.71098C12.207 4.18228 12.3645 3.80023 12.457 3.51149C12.5528 3.21221 12.5579 3.0711 12.5353 2.99772C12.4758 2.80419 12.3291 2.64923 12.139 2.5793C12.0551 2.5484 11.9392 2.54284 11.7249 2.59287C11.5086 2.64338 11.2315 2.74012 10.8367 2.87853C10.2773 3.07461 9.72796 3.32537 9.19552 3.63278C4.58403 6.29522 3.00402 12.1919 5.66646 16.8034Z" fill="black"/>
</svg>
