<svg width="24" height="24" viewBox="0 0 24 24" fill="none" xmlns="http://www.w3.org/2000/svg">
<path fill-rule="evenodd" clip-rule="evenodd" d="M18.0881 20.7654C13.2374 23.5659 7.03494 21.904 4.23443 17.0533C1.43391 12.2027 3.09586 6.00022 7.9465 3.19971C8.75148 2.73495 9.59406 2.39296 10.4524 2.16812L10.4664 2.16446C10.7993 2.07724 11.0688 2.00664 11.2894 1.97368C11.5171 1.93965 11.7244 1.94008 11.9227 2.02122C12.232 2.14768 12.4712 2.403 12.5774 2.71975C12.6492 2.93406 12.6181 3.18064 12.5521 3.45193C12.4852 3.72737 12.3679 4.07998 12.2184 4.52955L12.2145 4.54132C11.375 7.06583 11.5781 9.92325 13.0126 12.4079C14.3128 14.6599 16.3838 16.1888 18.7005 16.854L18.7124 16.8574C19.1673 16.988 19.5241 17.0905 19.789 17.1909C20.0499 17.2898 20.2708 17.4035 20.407 17.584C20.6082 17.8506 20.6835 18.1928 20.6129 18.5193C20.5675 18.7289 20.4507 18.9 20.2938 19.0684C20.1419 19.2316 19.9313 19.4137 19.6711 19.6386L19.6602 19.6481C19.1812 20.0623 18.6564 20.4373 18.0881 20.7654ZM4.66744 16.8033C7.32988 21.4148 13.2266 22.9948 17.8381 20.3324C18.3789 20.0201 18.8779 19.6635 19.3331 19.2699C19.6068 19.0332 19.7966 18.8686 19.9279 18.7277C20.0564 18.5897 20.106 18.4976 20.1242 18.4136C20.1641 18.2292 20.1215 18.0357 20.0079 17.8851C19.9631 17.8259 19.861 17.7529 19.6117 17.6584C19.3686 17.5662 19.0319 17.4693 18.5625 17.3345C16.1263 16.635 13.9471 15.0265 12.5796 12.6579C11.0706 10.0443 10.8574 7.03791 11.7401 4.38355C11.8943 3.91967 12.0048 3.58673 12.0663 3.33386C12.1293 3.07446 12.1269 2.94896 12.1033 2.87863C12.0434 2.69978 11.9081 2.55541 11.7335 2.48401C11.654 2.45151 11.5499 2.44029 11.3633 2.46818C11.1727 2.49668 10.9294 2.56005 10.5791 2.6518C9.76353 2.86544 8.96247 3.19049 8.1965 3.63272C3.58501 6.29516 2.005 12.1918 4.66744 16.8033Z" fill="black"/>
</svg>
