<svg width="24" height="24" viewBox="0 0 24 24" fill="none" xmlns="http://www.w3.org/2000/svg">
<path fill-rule="evenodd" clip-rule="evenodd" d="M10.2432 2.5C9.23437 1.2785 7.70794 0.5 6 0.5C4.29206 0.5 2.76563 1.2785 1.75684 2.5C0.971571 3.45092 0.5 4.67045 0.5 6C0.5 7.32955 0.971571 8.54908 1.75684 9.5C2.1184 9.93781 2.54728 10.3174 3.02637 10.626C3.0081 10.4198 3 10.2109 3 10L3.00684 10.3154C3.07642 11.8846 3.66274 13.3195 4.59961 14.4541C5.01306 14.9547 5.49601 15.3952 6.03182 15.7647C6.18984 17.6421 6.92463 19.3557 8.05762 20.7275L8.37695 21.0938C9.91203 22.7613 12.0687 23.8479 14.4795 23.9854L15 24C17.6199 24 19.9783 22.8804 21.623 21.0938L21.9424 20.7275C23.1471 19.2688 23.9016 17.4238 23.9912 15.4062L24 15C24 12.8242 23.2275 10.8285 21.9424 9.27246C20.4441 7.45847 18.2487 6.24137 15.7664 6.03202C15.6511 5.86475 15.5295 5.70221 15.4004 5.5459C14.2414 4.1425 12.5454 3.19837 10.6274 3.02798C10.5093 2.84443 10.3817 2.6677 10.2432 2.5ZM10.3559 3.01032C10.2381 3.00375 10.1194 3 10 3L10.3559 3.01032ZM7.56114 3.43667C7.10584 3.1586 6.57178 3 6 3C5.06929 3 4.23881 3.4207 3.68457 4.0918C3.25555 4.61129 3 5.27254 3 6C3 6.57299 3.16052 7.1037 3.4375 7.55762C3.18161 8.2449 3.03088 8.98333 3.00426 9.75327C3.0559 8.26203 3.57382 6.88918 4.41699 5.77637L4.59961 5.5459C5.37694 4.60466 6.39577 3.86993 7.56114 3.43667ZM15.445 6.01252C15.2976 6.00456 15.1493 6 15 6L15.445 6.01252ZM10 5.5C10.967 5.5 11.8618 5.80432 12.5964 6.32457C10.7929 6.82321 9.21665 7.86919 8.05762 9.27246L7.82227 9.56934C7.14535 10.4626 6.6314 11.4862 6.32462 12.5959C5.80485 11.8622 5.5 10.9695 5.5 10C5.5 8.91006 5.88429 7.91649 6.52734 7.1377C7.3567 6.13346 8.60349 5.5 10 5.5ZM6 15C6 15.1243 6.00277 15.248 6.00803 15.3711L6 15ZM21.5 15C21.5 13.4264 20.9444 11.9889 20.0156 10.8643C18.8194 9.41586 17.0176 8.5 15 8.5C12.9824 8.5 11.1806 9.41586 9.98438 10.8643C9.05558 11.9889 8.5 13.4264 8.5 15C8.5 16.5736 9.05558 18.0111 9.98438 19.1357C11.1806 20.5841 12.9824 21.5 15 21.5C17.0176 21.5 18.8194 20.5841 20.0156 19.1357C20.9444 18.0111 21.5 16.5736 21.5 15Z" fill="black"/>
</svg>
