<svg width="24" height="24" viewBox="0 0 24 24" fill="none" xmlns="http://www.w3.org/2000/svg">
<path fill-rule="evenodd" clip-rule="evenodd" d="M10.2432 2.5C9.23437 1.2785 7.70794 0.5 6 0.5C4.29206 0.5 2.76563 1.2785 1.75684 2.5C0.971571 3.45092 0.5 4.67045 0.5 6C0.5 7.32955 0.971571 8.54908 1.75684 9.5C2.1184 9.93781 2.54728 10.3174 3.02637 10.626C3.0081 10.4198 3 10.2109 3 10L3.00684 10.3154C3.07642 11.8846 3.66274 13.3195 4.59961 14.4541C5.01306 14.9547 5.49601 15.3952 6.03182 15.7647C6.18984 17.6421 6.92463 19.3557 8.05762 20.7275L8.37695 21.0938C9.91203 22.7613 12.0687 23.8479 14.4795 23.9854L15 24C17.6199 24 19.9783 22.8804 21.623 21.0938L21.9424 20.7275C23.1471 19.2688 23.9016 17.4238 23.9912 15.4062L24 15C24 12.8242 23.2275 10.8285 21.9424 9.27246C20.4441 7.45847 18.2487 6.24137 15.7664 6.03202C15.6511 5.86475 15.5295 5.70221 15.4004 5.5459C14.2414 4.1425 12.5454 3.19837 10.6274 3.02798C10.5093 2.84443 10.3817 2.6677 10.2432 2.5ZM10.3559 3.01032C10.2381 3.00375 10.1194 3 10 3L10.3559 3.01032ZM8.76323 3.10895C7.09677 3.40612 5.63427 4.29307 4.59961 5.5459L4.41699 5.77637C3.52752 6.95029 3 8.41359 3 10C3 9.5775 3.03667 9.1636 3.1084 8.76172C3.04139 8.69156 2.97595 8.61984 2.91406 8.54492C2.34251 7.85285 2 6.96833 2 6C2 5.03167 2.34251 4.14715 2.91406 3.45508C3.65012 2.56394 4.7585 2 6 2C7.07173 2 8.04378 2.42075 8.76323 3.10895ZM15.445 6.01252C15.2976 6.00456 15.1493 6 15 6L15.445 6.01252ZM10 4.5C11.4988 4.5 12.8567 5.09837 13.8501 6.07278C11.5256 6.36924 9.47825 7.55247 8.05762 9.27246L7.82227 9.56934C6.89743 10.7898 6.27681 12.2535 6.07309 13.8475C5.96333 13.7355 5.85686 13.6201 5.75684 13.499C4.97114 12.5476 4.5 11.3309 4.5 10C4.5 8.66908 4.97114 7.45238 5.75684 6.50098C6.76802 5.27658 8.2926 4.5 10 4.5ZM6 15C6 15.1243 6.00277 15.248 6.00803 15.3711L6 15ZM22.5 15C22.5 13.1855 21.8575 11.5248 20.7861 10.2275C19.4081 8.55911 17.3283 7.5 15 7.5C12.6717 7.5 10.5919 8.55911 9.21387 10.2275C8.14255 11.5248 7.5 13.1855 7.5 15C7.5 16.8145 8.14255 18.4752 9.21387 19.7725C10.5919 21.4409 12.6717 22.5 15 22.5C17.3283 22.5 19.4081 21.4409 20.7861 19.7725C21.8575 18.4752 22.5 16.8145 22.5 15Z" fill="black"/>
</svg>
