<svg width="24" height="24" viewBox="0 0 24 24" fill="none" xmlns="http://www.w3.org/2000/svg">
<path fill-rule="evenodd" clip-rule="evenodd" d="M10.2432 2.5C9.23437 1.2785 7.70794 0.5 6 0.5C4.29206 0.5 2.76563 1.2785 1.75684 2.5C0.971571 3.45092 0.5 4.67045 0.5 6C0.5 7.32955 0.971571 8.54908 1.75684 9.5C2.1184 9.93781 2.54728 10.3174 3.02637 10.626C3.0081 10.4198 3 10.2109 3 10L3.00684 10.3154C3.07642 11.8846 3.66274 13.3195 4.59961 14.4541C5.01306 14.9547 5.49601 15.3952 6.03182 15.7647C6.18984 17.6421 6.92463 19.3557 8.05762 20.7275L8.37695 21.0938C9.91203 22.7613 12.0687 23.8479 14.4795 23.9854L15 24C17.6199 24 19.9783 22.8804 21.623 21.0938L21.9424 20.7275C23.1471 19.2688 23.9016 17.4238 23.9912 15.4062L24 15C24 12.8242 23.2275 10.8285 21.9424 9.27246C20.4441 7.45847 18.2487 6.24137 15.7664 6.03202C15.6511 5.86475 15.5295 5.70221 15.4004 5.5459C14.2414 4.1425 12.5454 3.19837 10.6274 3.02798C10.5093 2.84443 10.3817 2.6677 10.2432 2.5ZM10 3C9.95374 2.93842 9.90642 2.87769 9.85742 2.81836C8.93954 1.70694 7.55249 1 6 1C4.44751 1 3.06046 1.70694 2.14258 2.81836C1.42851 3.683 1 4.79082 1 6C1 7.20918 1.42851 8.317 2.14258 9.18164C2.39469 9.48691 2.68339 9.76007 3 9.99805V10C3 8.41359 3.52752 6.95029 4.41699 5.77637L4.59961 5.5459C5.88353 3.99126 7.82626 3 10 3ZM15.124 6.00293C15.2195 6.00422 15.3145 6.00713 15.4091 6.01151L15 6C12.2054 6 9.70837 7.27385 8.05762 9.27246L7.82227 9.56934C6.67848 11.0787 6 12.9602 6 15L6.00727 15.3362C6.00469 15.2657 6.00291 15.195 6.00195 15.124C5.6285 14.8322 5.28711 14.5011 4.98535 14.1357C4.05726 13.0118 3.5 11.5717 3.5 10C3.5 8.42834 4.05726 6.98821 4.98535 5.86426C6.17836 4.4197 7.98171 3.5 10 3.5C12.0183 3.5 13.8216 4.4197 15.0146 5.86426C15.0429 5.89843 15.07 5.93344 15.0972 5.96846L15.124 6.00293ZM23.5 15C23.5 12.9447 22.7715 11.0606 21.5576 9.59082C19.9978 7.70209 17.6394 6.5 15 6.5C12.3606 6.5 10.0022 7.70209 8.44238 9.59082C7.22854 11.0606 6.5 12.9447 6.5 15C6.5 17.0553 7.22854 18.9394 8.44238 20.4092C10.0022 22.2979 12.3606 23.5 15 23.5C17.6394 23.5 19.9978 22.2979 21.5576 20.4092C22.7715 18.9394 23.5 17.0553 23.5 15Z" fill="black"/>
</svg>
