<svg width="24" height="24" viewBox="0 0 24 24" fill="none" xmlns="http://www.w3.org/2000/svg">
<path fill-rule="evenodd" clip-rule="evenodd" d="M3.67143 2.5C3.48637 2.49997 3.29252 2.49993 3.12585 2.51355C2.93895 2.52882 2.70009 2.56607 2.4554 2.69075C2.12612 2.85852 1.8584 3.12624 1.69062 3.45552C1.56595 3.70021 1.5287 3.93907 1.51342 4.12598C1.49981 4.29264 1.49985 4.48649 1.49988 4.67154L1.49988 16.3285C1.49985 16.5135 1.49981 16.7074 1.51342 16.874C1.5287 17.0609 1.56595 17.2998 1.69062 17.5445C1.8584 17.8738 2.12612 18.1415 2.4554 18.3093C2.70009 18.4339 2.93895 18.4712 3.12585 18.4865C3.29253 18.5001 3.48638 18.5 3.67144 18.5L10.5546 18.5L10.5546 21.3831C10.5546 21.5682 10.5545 21.762 10.5682 21.9287C10.5834 22.1156 10.6207 22.3545 10.7454 22.5991C10.9131 22.9284 11.1809 23.1961 11.5101 23.3639C11.7548 23.4886 11.9937 23.5258 12.1806 23.5411C12.3473 23.5547 12.5411 23.5547 12.7262 23.5547H20.3831C20.5681 23.5547 20.762 23.5547 20.9287 23.5411C21.1156 23.5258 21.3544 23.4886 21.5991 23.3639C21.9284 23.1961 22.1961 22.9284 22.3639 22.5991C22.4886 22.3545 22.5258 22.1156 22.5411 21.9287C22.5547 21.762 22.5547 21.5682 22.5546 21.3831V13.7262C22.5547 13.5411 22.5547 13.3473 22.5411 13.1806C22.5258 12.9937 22.4886 12.7549 22.3639 12.5102C22.1961 12.1809 21.9284 11.9132 21.5991 11.7454C21.3544 11.6207 21.1156 11.5835 20.9287 11.5682C20.762 11.5546 20.5681 11.5546 20.3831 11.5547L17.4999 11.5547L17.4999 4.67157C17.4999 4.4865 17.5 4.29265 17.4863 4.12598C17.4711 3.93907 17.4338 3.70021 17.3091 3.45552C17.1414 3.12624 16.8737 2.85852 16.5444 2.69075C16.2997 2.56607 16.0608 2.52882 15.8739 2.51355C15.7073 2.49993 15.5134 2.49997 15.3284 2.5L3.67143 2.5ZM17.4999 13.5547L17.4999 16.3284C17.4999 16.5135 17.5 16.7074 17.4863 16.874C17.4711 17.0609 17.4338 17.2998 17.3091 17.5445C17.1414 17.8738 16.8737 18.1415 16.5444 18.3093C16.2997 18.4339 16.0608 18.4712 15.8739 18.4865C15.7072 18.5001 15.5134 18.5 15.3283 18.5L12.5546 18.5V21.3547C12.5546 21.4321 12.5546 21.4971 12.5551 21.5542C12.6122 21.5546 12.6772 21.5547 12.7546 21.5547H20.3546C20.4321 21.5547 20.497 21.5546 20.5542 21.5542C20.5546 21.4971 20.5546 21.4321 20.5546 21.3547V13.7547C20.5546 13.6772 20.5546 13.6123 20.5542 13.5551C20.497 13.5547 20.4321 13.5547 20.3546 13.5547H17.4999ZM3.49989 4.70001C3.49989 4.62257 3.4999 4.5576 3.50033 4.50045C3.55748 4.50002 3.62245 4.50001 3.69989 4.50001H15.2999C15.3773 4.50001 15.4423 4.50002 15.4994 4.50045C15.4999 4.5576 15.4999 4.62257 15.4999 4.70001V16.3C15.4999 16.3774 15.4999 16.4424 15.4994 16.4996C15.4423 16.5 15.3773 16.5 15.2999 16.5H3.69989C3.62245 16.5 3.55748 16.5 3.50033 16.4996C3.4999 16.4424 3.49989 16.3774 3.49989 16.3V4.70001Z" fill="black"/>
</svg>
