<svg width="24" height="24" viewBox="0 0 24 24" fill="none" xmlns="http://www.w3.org/2000/svg">
<path fill-rule="evenodd" clip-rule="evenodd" d="M4.2137 2C3.92704 1.99999 3.68219 1.99999 3.48103 2.01642C3.26946 2.03371 3.06256 2.07164 2.86446 2.17257C2.56653 2.32437 2.32431 2.56659 2.17251 2.86452C2.07157 3.06262 2.03365 3.26952 2.01636 3.48109C1.99992 3.68225 1.99993 3.92708 1.99994 4.21375V14.7862C1.99993 15.0729 1.99992 15.3177 2.01636 15.5189C2.03365 15.7305 2.07157 15.9374 2.17251 16.1355C2.32431 16.4334 2.56653 16.6756 2.86446 16.8274C3.06256 16.9284 3.26946 16.9663 3.48103 16.9836C3.68219 17 3.92702 17 4.21367 17H11.0547V19.8409C11.0547 20.1276 11.0547 20.3724 11.0711 20.5736C11.0884 20.7851 11.1263 20.992 11.2273 21.1901C11.3791 21.4881 11.6213 21.7303 11.9192 21.8821C12.1173 21.983 12.3242 22.0209 12.5358 22.0382C12.7369 22.0547 12.9817 22.0547 13.2684 22.0547H19.8409C20.1276 22.0547 20.3724 22.0547 20.5736 22.0382C20.7852 22.0209 20.9921 21.983 21.1902 21.8821C21.4881 21.7303 21.7303 21.4881 21.8821 21.1901C21.983 20.992 22.021 20.7851 22.0383 20.5736C22.0547 20.3724 22.0547 20.1276 22.0547 19.841V13.2684C22.0547 12.9818 22.0547 12.7369 22.0383 12.5357C22.021 12.3242 21.983 12.1173 21.8821 11.9192C21.7303 11.6212 21.4881 11.379 21.1902 11.2272C20.9921 11.1263 20.7852 11.0884 20.5736 11.0711C20.3724 11.0546 20.1276 11.0546 19.8409 11.0546H16.9999V4.21375C16.9999 3.92709 17 3.68225 16.9835 3.48109C16.9662 3.26952 16.9283 3.06262 16.8274 2.86452C16.6756 2.56659 16.4333 2.32437 16.1354 2.17257C15.9373 2.07164 15.7304 2.03371 15.5189 2.01642C15.3177 1.99999 15.0729 1.99999 14.7862 2H4.2137ZM16.9999 12.0547V14.7863C16.9999 15.0729 17 15.3178 16.9835 15.5189C16.9662 15.7305 16.9283 15.9374 16.8274 16.1355C16.6756 16.4334 16.4333 16.6756 16.1354 16.8274C15.9373 16.9284 15.7304 16.9663 15.5189 16.9836C15.3177 17 15.0729 17 14.7862 17H12.0547V19.8213C12.0547 20.1329 12.0551 20.3366 12.0678 20.4921C12.08 20.6419 12.1011 20.7025 12.1183 20.7361C12.1742 20.8459 12.2634 20.9351 12.3732 20.9911C12.4068 21.0082 12.4675 21.0293 12.6172 21.0416C12.7728 21.0543 12.9764 21.0547 13.288 21.0547H19.8213C20.133 21.0547 20.3366 21.0543 20.4922 21.0416C20.6419 21.0293 20.7025 21.0082 20.7362 20.9911C20.8459 20.9351 20.9352 20.8459 20.9911 20.7361C21.0082 20.7025 21.0293 20.6419 21.0416 20.4921C21.0543 20.3366 21.0547 20.1329 21.0547 19.8213V13.288C21.0547 12.9764 21.0543 12.7727 21.0416 12.6172C21.0293 12.4674 21.0082 12.4068 20.9911 12.3732C20.9352 12.2634 20.8459 12.1742 20.7362 12.1182C20.7025 12.1011 20.6419 12.08 20.4922 12.0677C20.3366 12.055 20.133 12.0547 19.8213 12.0547H16.9999ZM3.31845 3.06358C3.35208 3.04644 3.41273 3.02533 3.56246 3.0131C3.71802 3.00039 3.92166 3 4.23327 3H14.7666C15.0782 3 15.2819 3.00039 15.4374 3.0131C15.5871 3.02533 15.6478 3.04644 15.6814 3.06358C15.7912 3.11951 15.8804 3.20875 15.9364 3.31851C15.9535 3.35214 15.9746 3.41279 15.9868 3.56252C15.9996 3.71808 15.9999 3.92172 15.9999 4.23333V14.7667C15.9999 15.0783 15.9996 15.2819 15.9868 15.4375C15.9746 15.5872 15.9535 15.6479 15.9364 15.6815C15.8804 15.7913 15.7912 15.8805 15.6814 15.9364C15.6478 15.9536 15.5871 15.9747 15.4374 15.9869C15.2819 15.9996 15.0782 16 14.7666 16H4.23327C3.92166 16 3.71802 15.9996 3.56246 15.9869C3.41273 15.9747 3.35208 15.9536 3.31845 15.9364C3.20868 15.8805 3.11945 15.7913 3.06352 15.6815C3.04638 15.6479 3.02527 15.5872 3.01304 15.4375C3.00033 15.2819 2.99994 15.0783 2.99994 14.7667V4.23333C2.99994 3.92172 3.00033 3.71808 3.01304 3.56252C3.02527 3.41279 3.04638 3.35214 3.06352 3.31851C3.11945 3.20875 3.20868 3.11951 3.31845 3.06358Z" fill="black"/>
</svg>
