<svg width="24" height="24" viewBox="0 0 24 24" fill="none" xmlns="http://www.w3.org/2000/svg">
<path fill-rule="evenodd" clip-rule="evenodd" d="M20.7798 22.8047C20.8965 22.8047 21.0487 22.8048 21.1848 22.7937C21.3455 22.7806 21.5901 22.7459 21.8491 22.6139C22.1784 22.4462 22.4461 22.1784 22.6139 21.8492C22.7459 21.5901 22.7805 21.3455 22.7937 21.1849C22.8048 21.0488 22.8047 20.8965 22.8046 20.7798V8.32954C22.8047 8.21282 22.8048 8.06057 22.7937 7.92448C22.7805 7.7638 22.7459 7.51925 22.6139 7.26019C22.4461 6.9309 22.1784 6.66319 21.8491 6.49541C21.5901 6.36341 21.3455 6.32876 21.1848 6.31563C21.0488 6.30451 20.8965 6.3046 20.7798 6.30466L13.7499 6.30467L13.7499 3.27489C13.75 3.15818 13.7501 3.00591 13.7389 2.86983C13.7258 2.70915 13.6912 2.4646 13.5592 2.20554C13.3914 1.87625 13.1237 1.60854 12.7944 1.44076C12.5353 1.30876 12.2908 1.27411 12.1301 1.26098C11.994 1.24986 11.8418 1.24995 11.725 1.25001H3.27478C3.15806 1.24995 3.00579 1.24986 2.86971 1.26098C2.70903 1.27411 2.46448 1.30876 2.20541 1.44076C1.87613 1.60854 1.60841 1.87625 1.44064 2.20554C1.30864 2.4646 1.27399 2.70915 1.26086 2.86983C1.24974 3.00591 1.24982 3.15816 1.24989 3.27487V11.7251C1.24982 11.8419 1.24974 11.9941 1.26086 12.1302C1.27399 12.2909 1.30864 12.5354 1.44064 12.7945C1.60841 13.1238 1.87613 13.3915 2.20541 13.5593C2.46448 13.6913 2.70903 13.7259 2.86971 13.7391C3.00579 13.7502 3.15803 13.7501 3.27474 13.75L6.30464 13.75L6.30463 20.7798C6.30457 20.8965 6.30448 21.0488 6.3156 21.1849C6.32873 21.3455 6.36338 21.5901 6.49538 21.8492C6.66315 22.1784 6.93087 22.4462 7.26015 22.6139C7.51922 22.7459 7.76377 22.7806 7.92445 22.7937C8.06054 22.8048 8.21279 22.8047 8.32951 22.8047H20.7798ZM6.30464 11.25L6.30463 8.32955C6.30457 8.21284 6.30448 8.06055 6.3156 7.92448C6.32873 7.7638 6.36338 7.51925 6.49538 7.26019C6.66315 6.9309 6.93087 6.66319 7.26015 6.49541C7.51922 6.36341 7.76377 6.32876 7.92445 6.31563C8.06052 6.30451 8.21275 6.3046 8.32946 6.30466L11.2499 6.30467V3.75002H3.7499V11.25H6.30464ZM20.3046 8.80467V20.3047H8.80464V8.80467H20.3046Z" fill="black"/>
</svg>
