<svg width="24" height="24" viewBox="0 0 24 24" fill="none" xmlns="http://www.w3.org/2000/svg">
<path fill-rule="evenodd" clip-rule="evenodd" d="M3.67143 2.5C3.48637 2.49997 3.29252 2.49993 3.12585 2.51355C2.93895 2.52882 2.70009 2.56607 2.4554 2.69075C2.12612 2.85852 1.8584 3.12624 1.69062 3.45552C1.56595 3.70021 1.5287 3.93907 1.51342 4.12598C1.49981 4.29264 1.49985 4.48649 1.49988 4.67154L1.49988 16.3285C1.49985 16.5135 1.49981 16.7074 1.51342 16.874C1.5287 17.0609 1.56595 17.2998 1.69062 17.5445C1.8584 17.8738 2.12612 18.1415 2.4554 18.3093C2.70009 18.4339 2.93895 18.4712 3.12585 18.4865C3.29253 18.5001 3.48638 18.5 3.67144 18.5L10.5546 18.5L10.5546 21.4182C10.5546 21.5877 10.5546 21.7653 10.566 21.9184C10.5789 22.0896 10.6101 22.3089 10.7154 22.5373C10.8898 22.9157 11.1936 23.2195 11.572 23.3939C11.8004 23.4992 12.0197 23.5304 12.1909 23.5432C12.3439 23.5547 12.5215 23.5547 12.691 23.5547H20.4181C20.5877 23.5547 20.7653 23.5547 20.9184 23.5432C21.0896 23.5304 21.3089 23.4992 21.5373 23.3939C21.9157 23.2195 22.2194 22.9157 22.3939 22.5373C22.4992 22.3089 22.5304 22.0896 22.5432 21.9184C22.5547 21.7654 22.5547 21.5878 22.5546 21.4183V13.6911C22.5547 13.5216 22.5547 13.344 22.5432 13.1909C22.5304 13.0197 22.4992 12.8004 22.3939 12.572C22.2194 12.1936 21.9157 11.8899 21.5373 11.7154C21.3089 11.6101 21.0896 11.5789 20.9184 11.5661C20.7653 11.5546 20.5877 11.5546 20.4182 11.5547L17.4999 11.5547L17.4999 4.67157C17.4999 4.4865 17.5 4.29265 17.4863 4.12598C17.4711 3.93907 17.4338 3.70021 17.3091 3.45552C17.1414 3.12624 16.8737 2.85852 16.5444 2.69075C16.2997 2.56607 16.0608 2.52882 15.8739 2.51355C15.7073 2.49993 15.5134 2.49997 15.3284 2.5L3.67143 2.5ZM3.49989 4.70001C3.49989 4.62257 3.4999 4.5576 3.50033 4.50045C3.55748 4.50002 3.62245 4.50001 3.69989 4.50001H15.2999C15.3773 4.50001 15.4423 4.50002 15.4994 4.50045C15.4999 4.5576 15.4999 4.62257 15.4999 4.70001V16.3C15.4999 16.3774 15.4999 16.4424 15.4994 16.4996C15.4423 16.5 15.3773 16.5 15.2999 16.5H3.69989C3.62245 16.5 3.55748 16.5 3.50033 16.4996C3.4999 16.4424 3.49989 16.3774 3.49989 16.3V4.70001Z" fill="black"/>
</svg>
