<svg width="24" height="24" viewBox="0 0 24 24" fill="none" xmlns="http://www.w3.org/2000/svg">
<path d="M5.94786 5.64616C5.43291 5.64613 4.95991 5.6461 4.56455 5.6784C4.13829 5.71323 3.67194 5.79295 3.21133 6.02764C2.55276 6.3632 2.01733 6.89863 1.68178 7.5572C1.44708 8.01782 1.36736 8.48416 1.33253 8.91042C1.30022 9.3058 1.30026 9.77876 1.3003 10.2937L1.3003 17.9986C1.30026 18.5136 1.30022 18.9865 1.33253 19.3819C1.36736 19.8082 1.44708 20.2745 1.68178 20.7351C2.01733 21.3937 2.55276 21.9291 3.21133 22.2647C3.67194 22.4994 4.13829 22.5791 4.56455 22.6139C4.95993 22.6462 5.43289 22.6462 5.94786 22.6462H13.6527C14.1677 22.6462 14.6407 22.6462 15.036 22.6139C15.4623 22.5791 15.9287 22.4994 16.3893 22.2647C17.0478 21.9291 17.5833 21.3937 17.9188 20.7351C18.1535 20.2745 18.2332 19.8082 18.2681 19.3819C18.3004 18.9865 18.3003 18.5136 18.3003 17.9986L18.3003 10.384L16.8003 11.884V17.9462C16.8003 19.0663 16.8003 19.6263 16.5823 20.0541C16.3906 20.4305 16.0846 20.7364 15.7083 20.9282C15.2805 21.1462 14.7204 21.1462 13.6003 21.1462H6.0003C4.88019 21.1462 4.32014 21.1462 3.89232 20.9282C3.51599 20.7364 3.21003 20.4305 3.01828 20.0541C2.8003 19.6263 2.8003 19.0663 2.8003 17.9462L2.8003 11.6067C2.73341 11.3543 2.73336 11.0878 2.8003 10.8353V10.3462C2.8003 9.22606 2.8003 8.66601 3.01828 8.23819C3.21003 7.86186 3.51599 7.5559 3.89232 7.36415C4.32014 7.14617 4.88019 7.14617 6.0003 7.14617L13.6003 7.14617C14.7204 7.14617 15.2805 7.14617 15.7083 7.36415C16.0021 7.51389 16.2531 7.73326 16.4403 8.0014L17.5021 6.93957L17.5104 6.93135C17.2051 6.55774 16.824 6.24915 16.3893 6.02765C15.9287 5.79295 15.4623 5.71322 15.036 5.6784C14.6407 5.6461 14.1677 5.64613 13.6528 5.64616L5.94786 5.64616Z" fill="black"/>
<path d="M7.41784 3.94603C7.38546 4.00958 7.35789 4.07604 7.33441 4.14683L5.79186 4.14681C5.84392 3.8586 5.93071 3.56064 6.08133 3.26504C6.41688 2.60648 6.95232 2.07104 7.61088 1.73549C8.0715 1.50079 8.53784 1.42107 8.96411 1.38624C9.35946 1.35394 9.83241 1.35397 10.3474 1.35401L18.0523 1.35401C18.5672 1.35397 19.0402 1.35394 19.4356 1.38624C19.8619 1.42107 20.3282 1.50079 20.7888 1.73549C21.4474 2.07104 21.9828 2.60648 22.3184 3.26504C22.5531 3.72566 22.6328 4.192 22.6676 4.61827C22.6999 5.01364 22.6999 5.48661 22.6999 6.00159V13.7064C22.6999 14.2214 22.6999 14.6944 22.6676 15.0898C22.6328 15.516 22.5531 15.9824 22.3184 16.443C21.9828 17.1015 21.4474 17.637 20.7888 17.9725C20.4566 18.1418 20.1213 18.2305 19.8003 18.2798C19.8005 18.195 19.8005 18.1107 19.8004 18.0277L19.8004 16.7509C19.9124 16.7217 20.0133 16.6842 20.1078 16.636C20.4842 16.4443 20.7901 16.1383 20.9819 15.762C21.1999 15.3342 21.1999 14.7741 21.1999 13.654V6.05401C21.1999 4.93391 21.1999 4.37385 20.9819 3.94603C20.7901 3.5697 20.4842 3.26374 20.1078 3.072C19.68 2.85401 19.12 2.85401 17.9999 2.85401L10.3998 2.85401C9.27974 2.85401 8.71969 2.85401 8.29187 3.072C7.91554 3.26374 7.60958 3.56971 7.41784 3.94603Z" fill="black"/>
<path d="M16.8609 8.71711C17.1553 8.42568 17.6301 8.42805 17.9216 8.7224C18.213 9.01675 18.2106 9.49162 17.9163 9.78305L10.3981 17.2267C10.0803 17.5413 9.56848 17.5413 9.25073 17.2267L3.72309 11.7539C3.42874 11.4624 3.42637 10.9876 3.7178 10.6932C4.00923 10.3989 4.4841 10.3965 4.77845 10.6879L9.8244 15.6838L16.8609 8.71711Z" fill="black"/>
</svg>
