<svg width="24" height="24" viewBox="0 0 24 24" fill="none" xmlns="http://www.w3.org/2000/svg">
<path fill-rule="evenodd" clip-rule="evenodd" d="M5.97889 6.64617C5.437 6.64616 4.99992 6.64616 4.64598 6.67507C4.28156 6.70485 3.96146 6.76776 3.66532 6.91865C3.19491 7.15833 2.81246 7.54078 2.57278 8.01119C2.42188 8.30733 2.35898 8.62743 2.3292 8.99185C2.30029 9.34579 2.30029 9.78285 2.30029 10.3247L2.30029 17.9676C2.30029 18.5095 2.30028 18.9465 2.3292 19.3005C2.35898 19.6649 2.42188 19.985 2.57278 20.2811C2.81246 20.7515 3.19491 21.134 3.66532 21.3737C3.96146 21.5246 4.28156 21.5875 4.64598 21.6173C4.9999 21.6462 5.43694 21.6462 5.97879 21.6462H13.6217C14.1636 21.6462 14.6007 21.6462 14.9546 21.6173C15.319 21.5875 15.6391 21.5246 15.9353 21.3737C16.4057 21.134 16.7881 20.7515 17.0278 20.2811C17.1787 19.985 17.2416 19.6649 17.2714 19.3005C17.3003 18.9466 17.3003 18.5095 17.3003 17.9676L17.3003 10.3247C17.3003 9.78289 17.3003 9.34578 17.2714 8.99185C17.2416 8.62743 17.1787 8.30733 17.0278 8.01119C16.7881 7.54078 16.4057 7.15833 15.9353 6.91865C15.6391 6.76776 15.319 6.70485 14.9546 6.67507C14.6007 6.64616 14.1636 6.64616 13.6217 6.64617H5.97889ZM14.322 11.8246C14.4189 11.7263 14.5772 11.7252 14.6755 11.8221C14.7739 11.9191 14.775 12.0774 14.678 12.1757L10.2869 16.6291C10.1646 16.7532 9.96493 16.7546 9.84091 16.6323L5.32452 12.1782C5.22622 12.0812 5.22512 11.9229 5.32207 11.8246C5.41902 11.7263 5.57731 11.7252 5.67561 11.8222L10.0605 16.1466L14.322 11.8246Z" fill="black"/>
<path d="M7.20032 5.64682C7.20349 4.79133 7.22802 4.31855 7.41784 3.94602C7.60958 3.5697 7.91554 3.26374 8.29187 3.07199C8.71969 2.854 9.27974 2.854 10.3998 2.854L17.9998 2.854C19.12 2.85401 19.68 2.85401 20.1078 3.07199C20.4842 3.26374 20.7901 3.5697 20.9819 3.94602C21.1998 4.37385 21.1998 4.9339 21.1998 6.054V13.654C21.1998 14.7741 21.1998 15.3342 20.9819 15.762C20.7901 16.1383 20.4842 16.4443 20.1078 16.636C19.7201 16.8336 19.2238 16.8521 18.3004 16.8538V17.3538C18.7159 17.3531 19.0631 17.3489 19.3542 17.3251C19.7186 17.2953 20.0387 17.2324 20.3348 17.0815C20.8052 16.8418 21.1877 16.4594 21.4274 15.989C21.5783 15.6928 21.6412 15.3727 21.6709 15.0083C21.6999 14.6544 21.6999 14.2174 21.6998 13.6756V6.03259C21.6999 5.49076 21.6999 5.0536 21.6709 4.69969C21.6412 4.33527 21.5783 4.01517 21.4274 3.71903C21.1877 3.24862 20.8052 2.86617 20.3348 2.62649C20.0387 2.4756 19.7186 2.41269 19.3542 2.38291C19.0002 2.354 18.5632 2.354 18.0213 2.354L10.3784 2.354C9.83659 2.354 9.39946 2.354 9.04554 2.38291C8.68111 2.41269 8.36102 2.47559 8.06487 2.62649C7.59447 2.86617 7.21202 3.24862 6.97233 3.71903C6.82144 4.01517 6.75853 4.33527 6.72876 4.69969C6.70704 4.96547 6.70164 5.27812 6.70029 5.64682H7.20032Z" fill="black"/>
</svg>
