<svg width="24" height="24" viewBox="0 0 24 24" fill="none" xmlns="http://www.w3.org/2000/svg">
<path fill-rule="evenodd" clip-rule="evenodd" d="M5.97889 6.64617C5.437 6.64616 4.99992 6.64616 4.64598 6.67508C4.28156 6.70485 3.96146 6.76776 3.66532 6.91865C3.19491 7.15834 2.81246 7.54079 2.57278 8.01119C2.42188 8.30734 2.35898 8.62743 2.3292 8.99186C2.30029 9.34579 2.30029 9.78286 2.30029 10.3247L2.30029 17.9676C2.30029 18.5095 2.30028 18.9465 2.3292 19.3005C2.35898 19.6649 2.42188 19.985 2.57278 20.2811C2.81246 20.7516 3.19491 21.134 3.66532 21.3737C3.96146 21.5246 4.28156 21.5875 4.64598 21.6173C4.9999 21.6462 5.43694 21.6462 5.97879 21.6462L13.6217 21.6462C14.1636 21.6462 14.6007 21.6462 14.9546 21.6173C15.319 21.5875 15.6391 21.5246 15.9353 21.3737C16.4057 21.134 16.7881 20.7516 17.0278 20.2811C17.1787 19.985 17.2416 19.6649 17.2714 19.3005C17.3003 18.9466 17.3003 18.5095 17.3003 17.9676L17.3003 10.3248C17.3003 9.78289 17.3003 9.34578 17.2714 8.99186C17.2416 8.62743 17.1787 8.30734 17.0278 8.01119C16.7881 7.54079 16.4057 7.15834 15.9353 6.91865C15.6391 6.76776 15.319 6.70485 14.9546 6.67508C14.6007 6.64616 14.1636 6.64616 13.6217 6.64617L5.97889 6.64617ZM13.966 11.4736C14.2568 11.1786 14.7316 11.1753 15.0266 11.4661C15.3215 11.7569 15.3249 12.2318 15.0341 12.5267L10.643 16.9802C10.3268 17.3009 9.81047 17.3045 9.48982 16.9883L4.97343 12.5342C4.67851 12.2433 4.67521 11.7684 4.96607 11.4735C5.25692 11.1786 5.73178 11.1753 6.0267 11.4662L10.0556 15.4395L13.966 11.4736Z" fill="black"/>
<path d="M7.20672 5.14683C7.22159 4.59333 7.2687 4.23873 7.41784 3.94603C7.60958 3.5697 7.91554 3.26374 8.29187 3.072C8.71969 2.85401 9.27974 2.85401 10.3998 2.85401L17.9998 2.85401C19.12 2.85401 19.68 2.85401 20.1078 3.072C20.4842 3.26374 20.7901 3.5697 20.9819 3.94603C21.1998 4.37385 21.1998 4.93391 21.1998 6.05401V13.654C21.1998 14.7741 21.1998 15.3342 20.9819 15.762C20.7901 16.1383 20.4842 16.4443 20.1078 16.636C19.7968 16.7945 19.4158 16.8378 18.8004 16.8496L18.8004 18.0106C18.8004 18.1245 18.8005 18.2379 18.8001 18.3498C19.0279 18.3457 19.2411 18.3377 19.4356 18.3218C19.8619 18.287 20.3282 18.2072 20.7888 17.9725C21.4474 17.637 21.9828 17.1015 22.3184 16.443C22.5531 15.9824 22.6328 15.516 22.6676 15.0898C22.6999 14.6944 22.6999 14.2214 22.6999 13.7065V6.00158C22.6999 5.48661 22.6999 5.01364 22.6676 4.61827C22.6328 4.192 22.5531 3.72566 22.3184 3.26504C21.9828 2.60647 21.4474 2.07104 20.7888 1.73549C20.3282 1.50079 19.8619 1.42107 19.4356 1.38624C19.0402 1.35394 18.5673 1.35397 18.0523 1.35401L10.3474 1.35401C9.83244 1.35397 9.35948 1.35394 8.9641 1.38624C8.53784 1.42107 8.0715 1.50079 7.61088 1.73549C6.95231 2.07104 6.41688 2.60647 6.08133 3.26504C5.84663 3.72566 5.76691 4.192 5.73208 4.61826C5.7187 4.78201 5.71087 4.95907 5.70629 5.14691L7.20672 5.14683Z" fill="black"/>
</svg>
