<svg width="24" height="24" viewBox="0 0 24 24" fill="none" xmlns="http://www.w3.org/2000/svg">
<path d="M5.93651 5.14617C5.43177 5.14611 4.94014 5.14605 4.52384 5.18007C4.06666 5.21742 3.52719 5.30556 2.98434 5.58215C2.23169 5.96564 1.61977 6.57756 1.23628 7.33021C0.959683 7.87306 0.871547 8.41253 0.834194 8.86972C0.80018 9.28603 0.800238 9.7776 0.800298 10.2824L0.800298 18.01C0.800238 18.5147 0.80018 19.0063 0.834194 19.4226C0.871547 19.8798 0.959682 20.4193 1.23628 20.9621C1.61977 21.7148 2.23169 22.3267 2.98434 22.7102C3.52719 22.9868 4.06666 23.0749 4.52384 23.1123C4.94017 23.1463 5.43176 23.1462 5.93654 23.1462H13.6641C14.1688 23.1462 14.6604 23.1463 15.0768 23.1123C15.5339 23.0749 16.0734 22.9868 16.6163 22.7102C17.3689 22.3267 17.9808 21.7148 18.3643 20.9621C18.6409 20.4193 18.7291 19.8798 18.7664 19.4226C18.8004 19.0063 18.8004 18.5147 18.8003 18.0099L18.8003 10.5911L16.8003 12.5912L16.8003 17.9462C16.8003 19.0663 16.8003 19.6263 16.5823 20.0542C16.3906 20.4305 16.0846 20.7364 15.7083 20.9282C15.2805 21.1462 14.7204 21.1462 13.6003 21.1462H6.0003C4.8802 21.1462 4.32015 21.1462 3.89232 20.9282C3.516 20.7364 3.21004 20.4305 3.01829 20.0542C2.8003 19.6263 2.8003 19.0663 2.8003 17.9462V10.3462C2.8003 9.22607 2.8003 8.66602 3.01829 8.23819C3.21004 7.86187 3.516 7.55591 3.89232 7.36416C4.32015 7.14618 4.8802 7.14617 6.0003 7.14617H13.6003C14.7204 7.14617 15.2805 7.14617 15.7083 7.36416C15.8514 7.43706 15.9843 7.52648 16.1046 7.62999L17.1486 6.58602C17.2779 6.45667 17.4206 6.34875 17.5721 6.26224C17.2904 5.99145 16.9687 5.76175 16.6163 5.58215C16.0734 5.30555 15.5339 5.21742 15.0768 5.18007C14.6605 5.14605 14.1689 5.14611 13.6642 5.14617H5.93651Z" fill="black"/>
<path d="M8.29188 3.072C8.24618 3.09528 8.20152 3.12025 8.15797 3.14683L5.90788 3.14681C5.80351 3.14677 5.69428 3.14672 5.58272 3.14712C5.59961 3.11079 5.6173 3.07443 5.63583 3.03805C6.01932 2.2854 6.63125 1.67348 7.38389 1.28999C7.92674 1.01339 8.46621 0.925258 8.9234 0.887905C9.33971 0.853891 9.8313 0.853948 10.3361 0.854009L18.0637 0.854009C18.5684 0.85395 19.06 0.853892 19.4763 0.887904C19.9335 0.925258 20.473 1.01339 21.0158 1.28999C21.7685 1.67348 22.3804 2.2854 22.7639 3.03805C23.0405 3.5809 23.1286 4.12037 23.166 4.57755C23.2 4.99388 23.1999 5.48547 23.1999 5.99025V13.7178C23.1999 14.2226 23.2 14.7141 23.166 15.1305C23.1286 15.5877 23.0405 16.1271 22.7639 16.67C22.3804 17.4226 21.7685 18.0345 21.0158 18.418C20.9435 18.4549 20.8713 18.4884 20.7993 18.5188C20.8006 18.3531 20.8005 18.1916 20.8005 18.0395L20.8004 16.0533C20.8688 15.962 20.9296 15.8646 20.9819 15.762C21.1999 15.3342 21.1999 14.7741 21.1999 13.654V6.05401C21.1999 4.93391 21.1999 4.37386 20.9819 3.94603C20.7901 3.56971 20.4842 3.26375 20.1078 3.072C19.68 2.85402 19.12 2.85401 17.9999 2.85401L10.3999 2.85401C9.27975 2.85401 8.7197 2.85401 8.29188 3.072Z" fill="black"/>
<path d="M16.685 8.53946C17.0775 8.15089 17.7107 8.15405 18.0992 8.54652C18.4878 8.93898 18.4846 9.57214 18.0922 9.96071L10.5742 17.4041C10.1576 17.8166 9.4859 17.8149 9.07131 17.4004L4.29283 12.6219C3.9023 12.2313 3.9023 11.5982 4.29283 11.2077C4.68335 10.8171 5.31652 10.8171 5.70704 11.2077L9.82792 15.3285L16.685 8.53946Z" fill="black"/>
</svg>
