<svg width="24" height="24" viewBox="0 0 24 24" fill="none" xmlns="http://www.w3.org/2000/svg">
<path d="M5.97889 6.64617C5.437 6.64616 4.99992 6.64616 4.64598 6.67507C4.28156 6.70485 3.96146 6.76776 3.66532 6.91865C3.19491 7.15833 2.81246 7.54078 2.57278 8.01119C2.42188 8.30733 2.35898 8.62743 2.3292 8.99185C2.30029 9.34579 2.30029 9.78285 2.30029 10.3247L2.30029 17.9676C2.30029 18.5095 2.30028 18.9465 2.3292 19.3005C2.35898 19.6649 2.42188 19.985 2.57278 20.2811C2.81246 20.7515 3.19491 21.134 3.66532 21.3737C3.96146 21.5246 4.28156 21.5875 4.64598 21.6173C4.9999 21.6462 5.43693 21.6462 5.97877 21.6462H13.6217C14.1636 21.6462 14.6007 21.6462 14.9546 21.6173C15.319 21.5875 15.6391 21.5246 15.9353 21.3737C16.4057 21.134 16.7881 20.7515 17.0278 20.2811C17.1787 19.985 17.2416 19.6649 17.2714 19.3005C17.3003 18.9466 17.3003 18.5095 17.3003 17.9676L17.3003 10.6769L16.8003 11.1769L16.8003 17.9462C16.8003 19.0663 16.8003 19.6263 16.5823 20.0541C16.3906 20.4305 16.0846 20.7364 15.7083 20.9282C15.2805 21.1462 14.7204 21.1462 13.6003 21.1462H6.00029C4.88019 21.1462 4.32014 21.1462 3.89231 20.9282C3.51599 20.7364 3.21003 20.4305 3.01828 20.0541C2.80029 19.6263 2.80029 19.0663 2.80029 17.9462L2.80029 10.3462C2.80029 9.22606 2.80029 8.66601 3.01828 8.23818C3.21003 7.86186 3.51599 7.5559 3.89231 7.36415C4.32014 7.14617 4.88019 7.14617 6.00029 7.14617H13.6003C14.7204 7.14617 15.2805 7.14617 15.7083 7.36415C16.0846 7.5559 16.3906 7.86186 16.5823 8.23818C16.6197 8.31162 16.6507 8.38895 16.6764 8.47235L17.0635 8.08523C17.0522 8.06038 17.0403 8.0357 17.0278 8.01119C16.7881 7.54078 16.4057 7.15833 15.9353 6.91865C15.6391 6.76776 15.319 6.70485 14.9546 6.67507C14.6007 6.64616 14.1636 6.64616 13.6217 6.64617H5.97889Z" fill="black"/>
<path d="M7.41783 3.94602C7.22802 4.31855 7.20349 4.79133 7.20032 5.64682H6.70029C6.70163 5.27812 6.70704 4.96547 6.72876 4.69969C6.75853 4.33527 6.82144 4.01517 6.97233 3.71903C7.21201 3.24862 7.59447 2.86617 8.06487 2.62649C8.36102 2.47559 8.68111 2.41269 9.04554 2.38291C9.39945 2.354 9.83649 2.354 10.3783 2.354L18.0213 2.354C18.5631 2.354 19.0002 2.354 19.3542 2.38291C19.7186 2.41269 20.0387 2.4756 20.3348 2.62649C20.8052 2.86617 21.1877 3.24862 21.4274 3.71903C21.5783 4.01517 21.6412 4.33527 21.6709 4.69969C21.6999 5.05362 21.6999 5.49067 21.6998 6.03254V13.6754C21.6999 14.2173 21.6999 14.6544 21.6709 15.0083C21.6412 15.3727 21.5783 15.6928 21.4274 15.989C21.1877 16.4594 20.8052 16.8418 20.3348 17.0815C20.0387 17.2324 19.7186 17.2953 19.3542 17.3251C19.0631 17.3489 18.7159 17.3531 18.3004 17.3538V16.8538C19.2238 16.8521 19.7201 16.8336 20.1078 16.636C20.4842 16.4443 20.7901 16.1383 20.9819 15.762C21.1998 15.3342 21.1998 14.7741 21.1998 13.654V6.05401C21.1998 4.9339 21.1998 4.37385 20.9819 3.94602C20.7901 3.5697 20.4842 3.26374 20.1078 3.07199C19.68 2.85401 19.12 2.85401 17.9998 2.854L10.3998 2.854C9.27974 2.854 8.71969 2.854 8.29187 3.07199C7.91554 3.26374 7.60958 3.5697 7.41783 3.94602Z" fill="black"/>
<path d="M17.2127 9.07242C17.3108 8.97528 17.4691 8.97607 17.5663 9.07419C17.6634 9.1723 17.6626 9.33059 17.5645 9.42773L10.0463 16.8713C9.92337 16.993 9.72541 16.993 9.60251 16.8713L4.07487 11.3986C3.97676 11.3014 3.97597 11.1431 4.07311 11.045C4.17025 10.9469 4.32854 10.9461 4.42666 11.0433L9.82439 16.3874L17.2127 9.07242Z" fill="black"/>
</svg>
