<svg width="24" height="24" viewBox="0 0 24 24" fill="none" xmlns="http://www.w3.org/2000/svg">
<path fill-rule="evenodd" clip-rule="evenodd" d="M4.46853 15.9785C3.21281 16.315 2.14075 17.0101 1.43611 17.9078C0.731226 18.8058 0.360036 19.9639 0.674179 21.1363C0.988322 22.3087 1.88885 23.1261 2.9483 23.5514C4.00738 23.9765 5.28336 24.0424 6.53908 23.7059C7.7948 23.3695 8.86686 22.6744 9.57151 21.7767C10.1695 21.0149 10.5273 20.0659 10.4303 19.0798H10.4386L10.4386 10.8184L21.4386 7.43376V11.9139C21.3102 11.8474 21.1784 11.7872 21.0441 11.7333C19.985 11.3082 18.709 11.2422 17.4533 11.5787C16.1976 11.9152 15.1255 12.6103 14.4209 13.508C13.716 14.406 13.3448 15.5641 13.659 16.7365C13.9731 17.9089 14.8736 18.7263 15.9331 19.1515C16.9922 19.5766 18.2681 19.6426 19.5239 19.3061C20.7796 18.9696 21.8516 18.2745 22.5563 17.3768C23.0729 16.7187 23.4103 15.9207 23.43 15.0798H23.4386V1.07984C23.4386 0.762497 23.288 0.463987 23.0327 0.275451C22.7774 0.0869157 22.4478 0.0307366 22.1445 0.124063L9.14451 4.12406C8.72492 4.25317 8.4386 4.64084 8.4386 5.07984L8.4386 16.3059C8.31505 16.2425 8.18836 16.1849 8.05932 16.1331C7.00023 15.708 5.72425 15.6421 4.46853 15.9785ZM2.60603 20.6187C2.49135 20.1907 2.59685 19.6682 3.00933 19.1427C3.42205 18.6169 4.10803 18.1457 4.98617 17.9104C5.86431 17.6751 6.694 17.7402 7.31432 17.9892C7.93428 18.238 8.2869 18.6378 8.40159 19.0658C8.51627 19.4938 8.41077 20.0163 7.99829 20.5418C7.58557 21.0676 6.89959 21.5388 6.02145 21.7741C5.1433 22.0094 4.31361 21.9443 3.6933 21.6953C3.07333 21.4465 2.72071 21.0467 2.60603 20.6187ZM21.4386 5.34122V2.4338L10.4386 5.81842V8.72584L21.4386 5.34122ZM15.5908 16.2189C15.4761 15.7909 15.5816 15.2683 15.9941 14.7429C16.4068 14.2171 17.0928 13.7458 17.971 13.5105C18.8491 13.2753 19.6788 13.3404 20.2991 13.5893C20.9191 13.8382 21.2717 14.2379 21.3864 14.6659C21.5011 15.0939 21.3955 15.6165 20.9831 16.1419C20.5704 16.6677 19.8844 17.139 19.0062 17.3743C18.1281 17.6096 17.2984 17.5444 16.6781 17.2955C16.0581 17.0466 15.7055 16.6469 15.5908 16.2189Z" fill="black"/>
</svg>
