<svg width="24" height="24" viewBox="0 0 24 24" fill="none" xmlns="http://www.w3.org/2000/svg">
<path d="M6.28613 15.2908C5.12481 15.602 4.14927 16.2412 3.5176 17.0459C2.88582 17.8507 2.58105 18.85 2.84533 19.8363C3.10961 20.8226 3.87316 21.5355 4.82274 21.9167C5.77213 22.2978 6.93654 22.3635 8.09787 22.0523C9.25919 21.7411 10.2347 21.102 10.8664 20.2973C11.4123 19.6018 11.7141 18.7612 11.6155 17.9092H11.6268L11.6268 9.15181C14.6038 8.11067 17.8292 10.2426 17.9454 13.4834L17.9878 14.6651C17.9945 14.8517 18.1495 14.9995 18.3363 14.9995C18.5299 14.9995 18.6888 14.8426 18.6888 14.6489L18.6888 12.1263C18.6888 9.84404 17.2682 7.80292 15.128 7.01014C13.2559 6.31664 11.9186 4.65935 11.6268 2.69775V1.90918L10.6268 1.90918L10.6268 16.0699C10.3188 15.8008 9.95611 15.585 9.56126 15.4265C8.61187 15.0454 7.44746 14.9797 6.28613 15.2908Z" fill="black"/>
</svg>
