<svg width="24" height="25" viewBox="0 0 24 25" fill="none" xmlns="http://www.w3.org/2000/svg">
<path fill-rule="evenodd" clip-rule="evenodd" d="M4.40397 15.9072C3.10105 16.2563 1.98073 16.9794 1.2396 17.9236C0.498166 18.8682 0.093765 20.1058 0.43284 21.3712C0.771916 22.6367 1.74093 23.5062 2.85531 23.9535C3.96925 24.4007 5.30101 24.4667 6.60393 24.1176C7.90685 23.7685 9.02717 23.0454 9.7683 22.1012C10.3926 21.3058 10.778 20.3026 10.6817 19.25H10.6887L10.6887 11.5617L8.18874 9.06168L8.18874 16.086L8.15259 16.0713C7.03865 15.6242 5.70689 15.5581 4.40397 15.9072ZM2.84765 20.7242C2.7579 20.3892 2.83019 19.9462 3.20613 19.4672C3.58235 18.9879 4.22007 18.5447 5.05102 18.322C5.88196 18.0994 6.65586 18.1644 7.22134 18.3914C7.78637 18.6182 8.0705 18.9657 8.16025 19.3007C8.25 19.6356 8.17771 20.0787 7.80178 20.5576C7.42555 21.0369 6.78783 21.4801 5.95688 21.7028C5.12594 21.9254 4.35204 21.8604 3.78656 21.6335C3.22154 21.4067 2.9374 21.0591 2.84765 20.7242Z" fill="black"/>
<path d="M21.1374 11.6714C20.0957 11.2533 18.8636 11.1684 17.6428 11.4446L20.1789 13.9808L20.2061 13.9915C20.7711 14.2183 21.0553 14.5659 21.145 14.9008C21.1503 14.9205 21.155 14.9406 21.1592 14.961L23.2056 17.0075C23.4911 16.4695 23.6668 15.8723 23.6803 15.25H23.6887L23.6887 1.25001C23.6887 0.853329 23.5005 0.480192 23.1814 0.244522C22.8623 0.008854 22.4503 -0.0613726 22.0711 0.0552865L9.97523 3.7771L11.9755 5.77732L21.1887 2.94246V5.32675L13.7987 7.6006L15.7989 9.60081L21.1887 7.94242V11.6924C21.1717 11.6853 21.1545 11.6783 21.1374 11.6714Z" fill="black"/>
<path d="M13.4176 16.9714C13.1864 16.1084 13.3009 15.2583 13.6324 14.5053L18.978 19.8509C17.8757 20.037 16.7803 19.9311 15.8401 19.5537C14.7257 19.1064 13.7567 18.2368 13.4176 16.9714Z" fill="black"/>
<path d="M5.79888 2.07563C5.50599 1.78273 5.03112 1.78273 4.73822 2.07563C4.44533 2.36852 4.44533 2.84339 4.73822 3.13629L22.2941 20.6921C22.587 20.985 23.0618 20.985 23.3547 20.6921C23.6476 20.3992 23.6476 19.9244 23.3547 19.6315L5.79888 2.07563Z" fill="black"/>
</svg>
