<svg width="24" height="24" viewBox="0 0 24 24" fill="none" xmlns="http://www.w3.org/2000/svg">
<path fill-rule="evenodd" clip-rule="evenodd" d="M4.66222 16.7027C3.54809 17.0013 2.62081 17.6124 2.02564 18.3706C1.43041 19.129 1.15885 20.0487 1.3982 20.942C1.63754 21.8352 2.3326 22.496 3.22724 22.8551C4.12179 23.2142 5.23041 23.2798 6.34454 22.9813C7.45867 22.6827 8.38595 22.0716 8.98112 21.3133C9.50157 20.6503 9.77456 19.8638 9.67496 19.0796H9.68817V10.2642L22.1882 6.41804V13.4963C21.8456 13.0252 21.3473 12.6631 20.7643 12.4291C19.8697 12.07 18.7611 12.0044 17.647 12.3029C16.5329 12.6014 15.6056 13.2126 15.0104 13.9708C14.4152 14.7291 14.1436 15.6489 14.383 16.5421C14.6223 17.4354 15.3174 18.0962 16.212 18.4552C17.1066 18.8143 18.2152 18.8799 19.3293 18.5814C20.4435 18.2829 21.3707 17.6717 21.9659 16.9135C22.3978 16.3633 22.6593 15.728 22.6788 15.0796H22.6882V1.07959C22.6882 1.00026 22.6505 0.925628 22.5867 0.878494C22.5229 0.831361 22.4405 0.817316 22.3647 0.840646L9.36465 4.84065C9.25975 4.87292 9.18817 4.96984 9.18817 5.07959L9.18817 17.8754C8.8461 17.4144 8.35395 17.0595 7.77952 16.8289C6.88497 16.4698 5.77635 16.4042 4.66222 16.7027ZM22.1882 5.8949V1.41808L9.68817 5.26423V9.74106L22.1882 5.8949Z" fill="black"/>
</svg>
