<svg width="24" height="24" viewBox="0 0 24 24" fill="none" xmlns="http://www.w3.org/2000/svg">
<path d="M6.35069 15.5323C5.23656 15.8309 4.30929 16.442 3.71411 17.2002C3.11888 17.9585 2.84733 18.8783 3.08667 19.7716C3.32602 20.6648 4.02108 21.3256 4.91572 21.6847C5.81027 22.0437 6.91889 22.1094 8.03302 21.8108C9.14715 21.5123 10.0744 20.9012 10.6696 20.1429C11.19 19.4799 11.463 18.6934 11.3634 17.9092H11.3766L11.3766 9.24701C14.4202 7.99187 17.8258 10.1517 17.9453 13.4834L17.9877 14.6651C17.9944 14.8517 18.1494 14.9995 18.3361 14.9995C18.5298 14.9995 18.6886 14.8426 18.6886 14.6489V12.7254C18.6886 10.3888 17.2198 8.30449 15.0194 7.51851C13.0034 6.7984 11.5856 4.97994 11.3766 2.85209V1.90918L10.8766 1.90918L10.8766 16.705C10.5346 16.244 10.0424 15.8891 9.46799 15.6585C8.57344 15.2994 7.46482 15.2338 6.35069 15.5323Z" fill="black"/>
</svg>
