<svg width="24" height="24" viewBox="0 0 24 24" fill="none" xmlns="http://www.w3.org/2000/svg">
<path fill-rule="evenodd" clip-rule="evenodd" d="M4.5979 16.4615C3.43657 16.7727 2.46104 17.4118 1.82937 18.2165C1.19759 19.0214 0.892822 20.0206 1.1571 21.0069C1.42138 21.9932 2.18493 22.7062 3.1345 23.0873C4.0839 23.4684 5.24831 23.5342 6.40963 23.223C7.57096 22.9118 8.5465 22.2727 9.17816 21.468C9.72409 20.7725 10.0258 19.9318 9.92725 19.0798H9.93856L9.93856 10.4491L21.9386 6.75677V12.854C21.6273 12.5788 21.2592 12.3584 20.8578 12.1973C19.9084 11.8162 18.744 11.7505 17.5827 12.0617C16.4214 12.3728 15.4458 13.012 14.8142 13.8167C14.1824 14.6216 13.8776 15.6208 14.1419 16.6071C14.4062 17.5934 15.1697 18.3064 16.1193 18.6875C17.0687 19.0686 18.2331 19.1343 19.3944 18.8231C20.5557 18.512 21.5313 17.8728 22.1629 17.0681C22.6232 16.4818 22.9099 15.7923 22.9295 15.0798H22.9386V1.07984C22.9386 0.921165 22.8632 0.771911 22.7356 0.677643C22.608 0.583376 22.4432 0.555284 22.2915 0.601949L9.29151 4.60195C9.08172 4.6665 8.93856 4.86033 8.93856 5.07984L8.93856 17.2405C8.63056 16.9715 8.26788 16.7556 7.87303 16.5971C6.92363 16.2161 5.75923 16.1503 4.5979 16.4615ZM21.9386 5.71051V1.75682L9.93856 5.44913V9.40281L21.9386 5.71051Z" fill="black"/>
</svg>
