<svg width="24" height="24" viewBox="0 0 24 24" fill="none" xmlns="http://www.w3.org/2000/svg">
<path fill-rule="evenodd" clip-rule="evenodd" d="M3.71411 17.2002C4.30929 16.442 5.23656 15.8309 6.35069 15.5323C7.46482 15.2338 8.57344 15.2994 9.46799 15.6585C10.0424 15.8891 10.5346 16.244 10.8766 16.705L10.8766 1.90918L11.3766 1.90918V2.9326L11.3896 2.92878C11.7063 4.00187 12.5167 4.85903 13.5704 5.23539L14.7072 5.64148C17.2449 6.54791 18.9388 8.95169 18.9388 11.6464L18.9388 14.9995C18.9388 15.132 18.8354 15.2415 18.7031 15.2491C18.5709 15.2567 18.4556 15.1598 18.4404 15.0282L18.2647 13.5048C17.8827 10.1923 14.4193 8.20063 11.3766 9.50198L11.3766 17.9092H11.3634C11.463 18.6934 11.19 19.4799 10.6696 20.1429C10.0744 20.9012 9.14715 21.5123 8.03302 21.8108C6.91889 22.1094 5.81027 22.0437 4.91572 21.6847C4.02108 21.3256 3.32602 20.6648 3.08667 19.7716C2.84733 18.8783 3.11888 17.9585 3.71411 17.2002ZM4.10742 17.509C3.58529 18.1741 3.38015 18.935 3.56963 19.6422C3.75911 20.3493 4.3172 20.9057 5.10197 21.2207C5.88683 21.5357 6.88387 21.6011 7.90361 21.3279C8.92334 21.0546 9.7541 20.4995 10.2763 19.8342C10.7984 19.169 11.0036 18.4082 10.8141 17.701C10.6246 16.9939 10.0665 16.4375 9.28174 16.1225C8.49689 15.8075 7.49984 15.7421 6.4801 16.0153C5.46037 16.2885 4.62961 16.8437 4.10742 17.509ZM13.4022 5.70626C12.5708 5.40928 11.8719 4.85036 11.3998 4.12913L11.3997 8.9537C14.2601 7.87004 17.3942 9.36804 18.4388 12.1168V11.6464C18.4388 9.16299 16.8777 6.9477 14.539 6.11234L13.4022 5.70626Z" fill="black"/>
</svg>
