<svg width="24" height="24" viewBox="0 0 24 24" fill="none" xmlns="http://www.w3.org/2000/svg">
<path d="M8.93831 17.2403L8.93831 8.93373L10.3322 10.3276L9.93831 10.4488L9.93831 19.0796H9.92701C10.0256 19.9316 9.72384 20.7722 9.17792 21.4677C8.54625 22.2724 7.57071 22.9116 6.40939 23.2227C5.24806 23.5339 4.08366 23.4682 3.13426 23.0871C2.18469 22.706 1.42113 21.993 1.15686 21.0067C0.892578 20.0204 1.19735 19.0212 1.82913 18.2163C2.46079 17.4116 3.43633 16.7724 4.59766 16.4613C5.75898 16.1501 6.92339 16.2158 7.87279 16.5969C8.26763 16.7554 8.63032 16.9712 8.93831 17.2403Z" fill="black"/>
<path d="M20.8576 12.197C19.9386 11.8282 18.8182 11.7548 17.6941 12.0327L22.3974 16.736C22.719 16.2283 22.9132 15.6616 22.9292 15.0796H22.9383V1.07959C22.9383 0.920921 22.863 0.771667 22.7354 0.677398C22.6077 0.583132 22.4429 0.55504 22.2913 0.601705L10.0345 4.37303L10.8346 5.17312L21.9383 1.75657V5.71026L13.858 8.19653L14.658 8.99661L21.9383 6.75653V12.8538C21.6271 12.5785 21.2589 12.3582 20.8576 12.197Z" fill="black"/>
<path d="M14.1416 16.6068C13.94 15.8542 14.0697 15.0941 14.4231 14.4185L18.9317 18.9271C17.9273 19.111 16.9423 19.0177 16.119 18.6873C15.1695 18.3061 14.4059 17.5931 14.1416 16.6068Z" fill="black"/>
<path d="M5.62211 2.08199C5.42685 1.88673 5.11026 1.88673 4.915 2.08199C4.71974 2.27726 4.71974 2.59384 4.915 2.7891L22.4709 20.345C22.6661 20.5402 22.9827 20.5402 23.178 20.345C23.3732 20.1497 23.3732 19.8331 23.178 19.6378L5.62211 2.08199Z" fill="black"/>
</svg>
