<svg width="24" height="24" viewBox="0 0 24 24" fill="none" xmlns="http://www.w3.org/2000/svg">
<path fill-rule="evenodd" clip-rule="evenodd" d="M4.53322 16.22C3.32469 16.5438 2.30089 17.211 1.63274 18.0622C0.964408 18.9136 0.626429 19.9923 0.915639 21.0716C1.20485 22.151 2.03689 22.9162 3.0414 23.3194C4.04564 23.7224 5.26583 23.7883 6.47436 23.4645C7.68288 23.1406 8.70668 22.4735 9.37483 21.6223C9.94663 20.8939 10.2766 19.9991 10.1789 19.0798H10.1886L10.1886 10.6337L21.6886 7.09527V12.3494C21.4585 12.1978 21.2105 12.0695 20.951 11.9653C19.9467 11.5622 18.7265 11.4964 17.518 11.8202C16.3095 12.144 15.2857 12.8111 14.6175 13.6623C13.9492 14.5138 13.6112 15.5924 13.9004 16.6718C14.1896 17.7511 15.0217 18.5163 16.0262 18.9195C17.0304 19.3226 18.2506 19.3884 19.4591 19.0646C20.6677 18.7408 21.6915 18.0737 22.3596 17.2225C22.8481 16.6002 23.1601 15.8565 23.1797 15.0798H23.1886L23.1886 1.07984C23.1886 0.841831 23.0756 0.61795 22.8842 0.476547C22.6927 0.335146 22.4455 0.29301 22.218 0.363006L9.21801 4.36301C8.90332 4.45984 8.68858 4.75059 8.68858 5.07984L8.68858 16.7393C8.46277 16.592 8.21998 16.467 7.96618 16.3651C6.96193 15.962 5.74174 15.8962 4.53322 16.22ZM2.36453 20.6834C2.22491 20.1624 2.36362 19.5604 2.81266 18.9883C3.26187 18.4161 3.9961 17.9169 4.92144 17.6689C5.84679 17.421 6.73226 17.4862 7.40742 17.7572C8.08232 18.0281 8.50343 18.48 8.64305 19.0011C8.78266 19.5221 8.64395 20.1241 8.19492 20.6961C7.74571 21.2684 7.01147 21.7676 6.08613 22.0156C5.16079 22.2635 4.27532 22.1983 3.60015 21.9273C2.92525 21.6564 2.50414 21.2045 2.36453 20.6834ZM21.6886 5.52587V2.09531L10.1886 5.63377V9.06433L21.6886 5.52587ZM15.3493 16.2836C15.2097 15.7625 15.3484 15.1606 15.7974 14.5885C16.2466 14.0162 16.9809 13.517 17.9062 13.2691C18.8316 13.0211 19.717 13.0863 20.3922 13.3573C21.0671 13.6282 21.4882 14.0802 21.6278 14.6012C21.7674 15.1223 21.6287 15.7242 21.1797 16.2963C20.7305 16.8686 19.9963 17.3678 19.0709 17.6157C18.1456 17.8637 17.2601 17.7985 16.5849 17.5275C15.91 17.2566 15.4889 16.8046 15.3493 16.2836Z" fill="black"/>
</svg>
