<svg width="24" height="24" viewBox="0 0 24 24" fill="none" xmlns="http://www.w3.org/2000/svg">
<path d="M6.15701 14.8081C4.90129 15.1446 3.82923 15.8397 3.12458 16.7374C2.4197 17.6354 2.04851 18.7935 2.36266 19.9659C2.6768 21.1383 3.57733 21.9557 4.63677 22.3809C5.69586 22.8061 6.97184 22.872 8.22756 22.5355C9.48328 22.1991 10.5553 21.504 11.26 20.6063C11.8579 19.8445 12.2158 18.8955 12.1188 17.9094H12.1271L12.1271 9.00707C14.9543 8.35225 17.8359 10.4237 17.9457 13.4837L17.9881 14.6653C17.9948 14.852 18.1498 14.9998 18.3365 14.9998C18.5302 14.9998 18.6891 14.8428 18.6891 14.6491V10.9583C18.6891 8.76079 17.3678 6.77876 15.3394 5.93343C13.7199 5.25856 12.5235 3.82686 12.1271 2.12212V1.90942L10.1271 1.90942L10.1271 15.1355C10.0035 15.0721 9.87684 15.0145 9.7478 14.9627C8.68871 14.5376 7.41273 14.4717 6.15701 14.8081Z" fill="black"/>
</svg>
