<svg width="24" height="24" viewBox="0 0 24 24" fill="none" xmlns="http://www.w3.org/2000/svg">
<path fill-rule="evenodd" clip-rule="evenodd" d="M3.32109 16.8915C3.98925 16.0403 5.01305 15.3732 6.22157 15.0494C7.43009 14.7255 8.65029 14.7914 9.65453 15.1945C9.90833 15.2963 10.1511 15.4213 10.3769 15.5686L10.3769 1.90918L11.8769 1.90918V2.81227C12.1536 3.72044 12.8438 4.44484 13.7388 4.76453L14.8757 5.17061C17.6123 6.14813 19.4391 8.74039 19.4391 11.6464V14.9995C19.4391 15.397 19.1289 15.7255 18.7321 15.7483C18.3353 15.7711 17.9896 15.4804 17.944 15.0855L17.7683 13.5621C17.4374 10.6926 14.5355 8.92506 11.8769 9.84451L11.8769 17.9092H11.8672C11.965 18.8284 11.635 19.7232 11.0632 20.4517C10.395 21.3029 9.37124 21.97 8.16271 22.2938C6.95419 22.6176 5.734 22.5518 4.72975 22.1487C3.72524 21.7455 2.8932 20.9803 2.60399 19.901C2.31478 18.8216 2.65276 17.7429 3.32109 16.8915ZM4.50101 17.8177C4.05198 18.3897 3.91327 18.9917 4.05288 19.5127C4.1925 20.0338 4.61361 20.4858 5.2885 20.7566C5.96367 21.0276 6.84914 21.0929 7.77448 20.8449C8.69983 20.597 9.43406 20.0978 9.88327 19.5255C10.3323 18.9534 10.471 18.3515 10.3314 17.8304C10.1918 17.3094 9.77068 16.8574 9.09578 16.5865C8.42061 16.3155 7.53514 16.2503 6.6098 16.4983C5.68446 16.7462 4.95022 17.2454 4.50101 17.8177ZM17.6735 9.97661C16.2365 8.45961 14.0421 7.74002 11.9 8.27398L11.9 5.42368C12.2935 5.74521 12.7433 6.00176 13.2343 6.17712L14.3711 6.5832C15.9665 7.15304 17.1663 8.42472 17.6735 9.97661Z" fill="black"/>
</svg>
