<svg width="24" height="24" viewBox="0 0 24 24" fill="none" xmlns="http://www.w3.org/2000/svg">
<path fill-rule="evenodd" clip-rule="evenodd" d="M3.51785 17.0461C4.14951 16.2414 5.12505 15.6023 6.28638 15.2911C7.4477 14.9799 8.61211 15.0456 9.56151 15.4267C9.95635 15.5852 10.319 15.8011 10.627 16.0701L10.627 1.90942L11.627 1.90942V2.85906L11.6298 2.85826C11.9239 3.85474 12.6764 4.65071 13.6548 5.00021L14.7917 5.40629C17.4289 6.34826 19.1892 8.84629 19.1892 11.6466V14.9998C19.1892 15.2648 18.9824 15.4838 18.7179 15.499C18.4533 15.5142 18.2228 15.3203 18.1925 15.0571L18.0168 13.5337C17.6603 10.4428 14.4789 8.56281 11.627 9.67022L11.627 17.9094H11.6157C11.7143 18.7614 11.4126 19.602 10.8666 20.2975C10.235 21.1023 9.25944 21.7414 8.09811 22.0526C6.93678 22.3637 5.77238 22.298 4.82298 21.9169C3.87341 21.5358 3.10985 20.8228 2.84558 19.8365C2.5813 18.8502 2.88607 17.851 3.51785 17.0461ZM4.30446 17.6636C3.81888 18.2822 3.64695 18.9636 3.8115 19.5777C3.97605 20.1918 4.46565 20.696 5.19548 20.9889C5.92549 21.2819 6.86675 21.3472 7.83929 21.0866C8.81183 20.8261 9.59433 20.2989 10.08 19.6801C10.5656 19.0615 10.7375 18.3801 10.573 17.766C10.4084 17.1519 9.91884 16.6477 9.18901 16.3548C8.45899 16.0617 7.51773 15.9964 6.5452 16.257C5.57266 16.5176 4.79016 17.0448 4.30446 17.6636ZM18.151 10.9908C16.8065 8.89088 14.161 7.82563 11.6501 8.60362L11.6502 4.84945C12.1056 5.33414 12.6746 5.71196 13.3185 5.94193L14.4553 6.34802C16.4863 7.07346 17.9048 8.88585 18.151 10.9908Z" fill="black"/>
</svg>
