<svg width="24" height="25" viewBox="0 0 24 25" fill="none" xmlns="http://www.w3.org/2000/svg">
<path fill-rule="evenodd" clip-rule="evenodd" d="M4.40397 15.9072C3.10105 16.2563 1.98073 16.9794 1.2396 17.9236C0.498166 18.8682 0.093765 20.1058 0.43284 21.3712C0.771916 22.6367 1.74093 23.5062 2.85531 23.9535C3.96925 24.4007 5.30101 24.4667 6.60393 24.1176C7.90685 23.7685 9.02717 23.0454 9.7683 22.1012C10.3926 21.3058 10.778 20.3026 10.6817 19.25H10.6887L10.6887 11.1732L21.1887 7.94242V11.6924C21.1717 11.6853 21.1545 11.6783 21.1374 11.6714C20.0234 11.2243 18.6917 11.1583 17.3888 11.5074C16.0858 11.8565 14.9655 12.5796 14.2244 13.5238C13.4829 14.4683 13.0785 15.7059 13.4176 16.9714C13.7567 18.2368 14.7257 19.1064 15.8401 19.5537C16.954 20.0008 18.2858 20.0669 19.5887 19.7178C20.8916 19.3686 22.0119 18.6456 22.7531 17.7014C23.2978 17.0074 23.6606 16.1552 23.6803 15.25H23.6887L23.6887 1.25001C23.6887 0.853329 23.5005 0.480192 23.1814 0.244522C22.8623 0.008854 22.4503 -0.0613727 22.0711 0.0552865L9.07113 4.05529C8.54665 4.21667 8.18874 4.70125 8.18874 5.25001L8.18874 16.086L8.15259 16.0713C7.03865 15.6242 5.70689 15.5581 4.40397 15.9072ZM21.1887 5.32675V2.94246L10.6887 6.17323L10.6887 8.55752L21.1887 5.32675Z" fill="black"/>
</svg>
