<svg width="24" height="24" viewBox="0 0 24 24" fill="none" xmlns="http://www.w3.org/2000/svg">
<path d="M6.35118 15.5326C5.23705 15.8311 4.30978 16.4422 3.7146 17.2005C3.11937 17.9588 2.84781 18.8786 3.08716 19.7718C3.32651 20.6651 4.02157 21.3258 4.91621 21.6849C5.81076 22.044 6.91938 22.1096 8.03351 21.8111C9.14764 21.5126 10.0749 20.9014 10.6701 20.1432C11.1905 19.4801 11.4635 18.6937 11.3639 17.9094H11.3771L11.3771 9.24726C14.4207 7.99212 17.8263 10.1519 17.9458 13.4837L17.9882 14.6653C17.9949 14.852 18.1499 14.9998 18.3366 14.9998C18.5303 14.9998 18.6891 14.8428 18.6891 14.6491V12.7257C18.6891 10.3891 17.2203 8.30473 15.0199 7.51875C13.0039 6.79864 11.586 4.98018 11.3771 2.85233V1.90942L10.8771 1.90942L10.8771 16.7052C10.5351 16.2442 10.0429 15.8893 9.46848 15.6587C8.57393 15.2997 7.46531 15.234 6.35118 15.5326Z" fill="black"/>
</svg>
