<svg width="24" height="26" viewBox="0 0 24 26" fill="none" xmlns="http://www.w3.org/2000/svg">
<path fill-rule="evenodd" clip-rule="evenodd" d="M4.40385 16.7371C3.10093 17.0862 1.98061 17.8093 1.23948 18.7535C0.498044 19.698 0.0936429 20.9356 0.432718 22.201C0.771794 23.4665 1.74081 24.3361 2.85519 24.7834C3.96913 25.2305 5.30089 25.2965 6.60381 24.9474C7.90673 24.5983 9.02705 23.8752 9.76818 22.931C10.3925 22.1357 10.7779 21.1325 10.6816 20.0798H10.6886L10.6886 12.003L21.1886 8.77225V12.5222C21.1715 12.5151 21.1544 12.5082 21.1372 12.5013C20.0233 12.0542 18.6915 11.9881 17.3886 12.3372C16.0857 12.6863 14.9654 13.4094 14.2243 14.3536C13.4828 15.2982 13.0784 16.5358 13.4175 17.8012C13.7566 19.0666 14.7256 19.9362 15.84 20.3835C16.9539 20.8307 18.2857 20.8967 19.5886 20.5476C20.8915 20.1985 22.0118 19.4754 22.753 18.5312C23.2977 17.8372 23.6605 16.985 23.6802 16.0798H23.6886L23.6886 2.07984C23.6886 1.68316 23.5003 1.31003 23.1812 1.07436C22.8622 0.838688 22.4502 0.768461 22.071 0.885121L9.07101 4.88512C8.54652 5.0465 8.18862 5.53109 8.18862 6.07984L8.18862 16.9158L8.15247 16.9011C7.03853 16.454 5.70677 16.3879 4.40385 16.7371ZM2.84753 21.554C2.75778 21.219 2.83007 20.776 3.206 20.2971C3.58223 19.8178 4.21995 19.3745 5.0509 19.1519C5.88184 18.9292 6.65574 18.9942 7.22122 19.2212C7.78624 19.448 8.07037 19.7955 8.16012 20.1305C8.24987 20.4654 8.17759 20.9085 7.80165 21.3874C7.42543 21.8667 6.78771 22.31 5.95676 22.5326C5.12582 22.7553 4.35191 22.6903 3.78644 22.4633C3.22141 22.2365 2.93728 21.889 2.84753 21.554ZM21.1886 6.15658V3.77229L10.6886 7.00306V9.38735L21.1886 6.15658ZM15.8323 17.1542C15.7426 16.8192 15.8149 16.3762 16.1908 15.8972C16.567 15.4179 17.2047 14.9747 18.0357 14.752C18.8666 14.5294 19.6405 14.5944 20.206 14.8214C20.771 15.0481 21.0552 15.3957 21.1449 15.7307C21.2347 16.0656 21.1624 16.5087 20.7864 16.9876C20.4102 17.4669 19.7725 17.9101 18.9415 18.1328C18.1106 18.3554 17.3367 18.2904 16.7712 18.0635C16.2062 17.8367 15.9221 17.4891 15.8323 17.1542Z" fill="black"/>
</svg>
