<svg width="24" height="24" viewBox="0 0 24 24" fill="none" xmlns="http://www.w3.org/2000/svg">
<path fill-rule="evenodd" clip-rule="evenodd" d="M4.53334 16.22C3.32481 16.5438 2.30102 17.211 1.63286 18.0622C0.96453 18.9136 0.626551 19.9923 0.915761 21.0716C1.20497 22.151 2.03701 22.9162 3.04152 23.3194C4.04576 23.7224 5.26596 23.7883 6.47448 23.4645C7.683 23.1406 8.7068 22.4735 9.37496 21.6223C9.94675 20.8939 10.2767 19.9991 10.179 19.0798H10.1887L10.1887 10.6337L21.6887 7.09527V12.3494C21.4586 12.1978 21.2106 12.0695 20.9511 11.9653C19.9468 11.5622 18.7266 11.4964 17.5181 11.8202C16.3096 12.144 15.2858 12.8111 14.6176 13.6623C13.9493 14.5138 13.6113 15.5924 13.9005 16.6718C14.1898 17.7511 15.0218 18.5163 16.0263 18.9195C17.0305 19.3226 18.2507 19.3884 19.4593 19.0646C20.6678 18.7408 21.6916 18.0737 22.3597 17.2225C22.8482 16.6002 23.1602 15.8565 23.1798 15.0798H23.1887L23.1887 1.07984C23.1887 0.841831 23.0757 0.61795 22.8843 0.476547C22.6928 0.335146 22.4456 0.29301 22.2181 0.363006L9.21813 4.36301C8.90344 4.45984 8.6887 4.75059 8.6887 5.07984L8.6887 16.7393C8.46289 16.592 8.2201 16.467 7.9663 16.3651C6.96205 15.962 5.74186 15.8962 4.53334 16.22ZM21.6887 5.52587V2.09531L10.1887 5.63377V9.06433L21.6887 5.52587Z" fill="black"/>
</svg>
