<svg width="24" height="24" viewBox="0 0 24 24" fill="none" xmlns="http://www.w3.org/2000/svg">
<path fill-rule="evenodd" clip-rule="evenodd" d="M4.66271 16.703C3.54858 17.0015 2.6213 17.6127 2.02613 18.3709C1.43089 19.1292 1.15934 20.049 1.39868 20.9422C1.63803 21.8355 2.33309 22.4962 3.22773 22.8553C4.12228 23.2144 5.2309 23.28 6.34503 22.9815C7.45916 22.683 8.38644 22.0718 8.98161 21.3136C9.50205 20.6506 9.77505 19.8641 9.67544 19.0798H9.68866V10.2644L22.1887 6.41828V13.4965C21.846 13.0254 21.3478 12.6633 20.7648 12.4293C19.8702 12.0702 18.7616 12.0046 17.6475 12.3031C16.5334 12.6017 15.6061 13.2128 15.0109 13.971C14.4157 14.7294 14.1441 15.6491 14.3835 16.5424C14.6228 17.4356 15.3179 18.0964 16.2125 18.4555C17.1071 18.8146 18.2157 18.8802 19.3298 18.5817C20.4439 18.2831 21.3712 17.672 21.9664 16.9137C22.3983 16.3635 22.6598 15.7283 22.6793 15.0798H22.6887V1.07984C22.6887 1.0005 22.651 0.925872 22.5872 0.878738C22.5234 0.831605 22.441 0.81756 22.3651 0.84089L9.36514 4.84089C9.26024 4.87317 9.18866 4.97009 9.18866 5.07984L9.18866 17.8756C8.84659 17.4147 8.35444 17.0597 7.78001 16.8291C6.88546 16.4701 5.77684 16.4045 4.66271 16.703ZM22.1887 5.89515V1.41833L9.68866 5.26448V9.7413L22.1887 5.89515Z" fill="black"/>
</svg>
