<svg width="24" height="24" viewBox="0 0 24 24" fill="none" xmlns="http://www.w3.org/2000/svg">
<path fill-rule="evenodd" clip-rule="evenodd" d="M3.7146 17.2005C4.30978 16.4422 5.23705 15.8311 6.35118 15.5326C7.46531 15.234 8.57393 15.2997 9.46848 15.6587C10.0429 15.8893 10.5351 16.2442 10.8771 16.7052L10.8771 1.90942L11.3771 1.90942V2.93285L11.3901 2.92903C11.7068 4.00212 12.5172 4.85928 13.5709 5.23564L14.7077 5.64172C17.2454 6.54816 18.9393 8.95194 18.9393 11.6466L18.9393 14.9998C18.9393 15.1323 18.8359 15.2418 18.7036 15.2494C18.5713 15.257 18.4561 15.1601 18.4409 15.0284L18.2652 13.5051C17.8832 10.1926 14.4198 8.20087 11.3771 9.50222L11.3771 17.9094H11.3639C11.4635 18.6937 11.1905 19.4801 10.6701 20.1432C10.0749 20.9014 9.14764 21.5126 8.03351 21.8111C6.91938 22.1096 5.81076 22.044 4.91621 21.6849C4.02157 21.3258 3.32651 20.6651 3.08716 19.7718C2.84781 18.8786 3.11937 17.9588 3.7146 17.2005ZM4.10791 17.5092C3.58578 18.1744 3.38064 18.9352 3.57012 19.6424C3.7596 20.3495 4.31769 20.9059 5.10246 21.2209C5.88731 21.5359 6.88436 21.6014 7.9041 21.3281C8.92383 21.0549 9.75459 20.4997 10.2768 19.8345C10.7989 19.1693 11.004 18.4084 10.8146 17.7013C10.6251 16.9941 10.067 16.4377 9.28223 16.1227C8.49737 15.8077 7.50033 15.7423 6.48059 16.0155C5.46086 16.2888 4.6301 16.8439 4.10791 17.5092ZM13.4027 5.7065C12.5713 5.40953 11.8724 4.85061 11.4003 4.12937L11.4002 8.95394C14.2606 7.87029 17.3947 9.36828 18.4393 12.117V11.6466C18.4393 9.16323 16.8782 6.94794 14.5395 6.11259L13.4027 5.7065Z" fill="black"/>
</svg>
