<svg width="24" height="24" viewBox="0 0 24 24" fill="none" xmlns="http://www.w3.org/2000/svg">
<path fill-rule="evenodd" clip-rule="evenodd" d="M3.32122 16.8918C3.98937 16.0405 5.01317 15.3734 6.22169 15.0496C7.43022 14.7258 8.65041 14.7916 9.65465 15.1947C9.90845 15.2966 10.1512 15.4216 10.3771 15.5689L10.3771 1.90942L11.8771 1.90942V2.81251C12.1537 3.72068 12.8439 4.44508 13.739 4.76477L14.8758 5.17086C17.6125 6.14837 19.4392 8.74064 19.4392 11.6466V14.9998C19.4392 15.3973 19.1291 15.7257 18.7322 15.7486C18.3354 15.7714 17.9897 15.4806 17.9441 15.0857L17.7684 13.5624C17.4375 10.6928 14.5356 8.92531 11.8771 9.84476L11.8771 17.9094H11.8674C11.9651 18.8287 11.6351 19.7235 11.0633 20.4519C10.3952 21.3031 9.37136 21.9702 8.16283 22.294C6.95431 22.6179 5.73412 22.552 4.72988 22.1489C3.72537 21.7457 2.89333 20.9806 2.60412 19.9012C2.31491 18.8219 2.65288 17.7432 3.32122 16.8918ZM4.50113 17.8179C4.0521 18.39 3.91339 18.9919 4.053 19.513C4.19262 20.034 4.61373 20.486 5.28863 20.7569C5.96379 21.0279 6.84927 21.0931 7.77461 20.8452C8.69995 20.5972 9.43419 20.098 9.88339 19.5257C10.3324 18.9537 10.4711 18.3517 10.3315 17.8307C10.1919 17.3096 9.7708 16.8577 9.0959 16.5868C8.42074 16.3158 7.53526 16.2505 6.60992 16.4985C5.68458 16.7464 4.95034 17.2456 4.50113 17.8179ZM17.6737 9.97686C16.2367 8.45986 14.0422 7.74027 11.9001 8.27422L11.9002 5.42392C12.2936 5.74545 12.7435 6.00201 13.2344 6.17736L14.3713 6.58345C15.9666 7.15329 17.1664 8.42497 17.6737 9.97686Z" fill="black"/>
</svg>
