<svg width="24" height="24" viewBox="0 0 24 24" fill="none" xmlns="http://www.w3.org/2000/svg">
<path fill-rule="evenodd" clip-rule="evenodd" d="M2.92808 16.5828C3.66921 15.6386 4.78953 14.9155 6.09245 14.5664C7.39536 14.2173 8.72713 14.2833 9.84107 14.7305L9.87722 14.7451L9.87722 1.90918L12.3772 1.90918V2.73434C12.6208 3.45943 13.1838 4.03522 13.9073 4.29367L15.0442 4.69975C17.9798 5.74834 19.9394 8.52909 19.9394 11.6464V14.9995C19.9394 15.662 19.4225 16.2095 18.7611 16.2475C18.0997 16.2855 17.5235 15.8009 17.4476 15.1428L17.2719 13.6194C16.9919 11.1919 14.6404 9.65236 12.3772 10.2172V17.9092H12.3702C12.4665 18.9618 12.0811 19.965 11.4568 20.7604C10.7156 21.7046 9.59533 22.4277 8.29241 22.7768C6.98949 23.1259 5.65772 23.0598 4.54379 22.6127C3.42941 22.1654 2.46039 21.2958 2.12132 20.0304C1.78224 18.7649 2.18664 17.5273 2.92808 16.5828ZM4.8946 18.1264C4.51867 18.6053 4.44638 19.0484 4.53613 19.3833C4.62588 19.7183 4.91001 20.0658 5.47504 20.2926C6.04051 20.5196 6.81441 20.5846 7.64536 20.362C8.47631 20.1393 9.11403 19.6961 9.49025 19.2168C9.86618 18.7378 9.93847 18.2948 9.84872 17.9598C9.75897 17.6249 9.47484 17.2773 8.90981 17.0505C8.34434 16.8236 7.57044 16.7586 6.73949 16.9812C5.90855 17.2039 5.27083 17.6471 4.8946 18.1264ZM15.989 8.17601C14.8893 7.67827 13.6478 7.48274 12.4003 7.66583L12.4003 6.35386C12.6133 6.46712 12.8358 6.56561 13.0664 6.64798L14.2032 7.05407C14.8885 7.29883 15.4932 7.68635 15.989 8.17601Z" fill="black"/>
</svg>
