<svg width="24" height="24" viewBox="0 0 24 24" fill="none" xmlns="http://www.w3.org/2000/svg">
<path fill-rule="evenodd" clip-rule="evenodd" d="M4.53309 16.2198C3.32457 16.5436 2.30077 17.2107 1.63262 18.0619C0.964286 18.9134 0.626307 19.992 0.915517 21.0714C1.20473 22.1507 2.03677 22.9159 3.04128 23.3191C4.04552 23.7222 5.26571 23.788 6.47424 23.4642C7.68276 23.1404 8.70656 22.4733 9.37471 21.6221C9.94651 20.8936 10.2765 19.9988 10.1788 19.0796H10.1885L10.1885 10.6335L21.6885 7.09502V12.3492C21.4584 12.1975 21.2103 12.0692 20.9508 11.965C19.9466 11.562 18.7264 11.4961 17.5179 11.8199C16.3094 12.1438 15.2856 12.8109 14.6174 13.6621C13.9491 14.5135 13.6111 15.5922 13.9003 16.6715C14.1895 17.7509 15.0215 18.5161 16.0261 18.9193C17.0303 19.3224 18.2505 19.3882 19.459 19.0644C20.6675 18.7406 21.6913 18.0734 22.3595 17.2222C22.848 16.5999 23.16 15.8562 23.1796 15.0796H23.1885L23.1885 1.0796C23.1885 0.841587 23.0755 0.617706 22.884 0.476303C22.6926 0.334902 22.4454 0.292766 22.2179 0.362762L9.21789 4.36276C8.9032 4.45959 8.68846 4.75034 8.68846 5.0796L8.68846 16.7391C8.46265 16.5917 8.21986 16.4668 7.96605 16.3649C6.96181 15.9618 5.74162 15.896 4.53309 16.2198ZM21.6885 5.52562V2.09507L10.1885 5.63353V9.06408L21.6885 5.52562Z" fill="black"/>
</svg>
