<svg width="24" height="24" viewBox="0 0 24 24" fill="none" xmlns="http://www.w3.org/2000/svg">
<path fill-rule="evenodd" clip-rule="evenodd" d="M2.92795 16.583C3.66909 15.6388 4.78941 14.9158 6.09232 14.5666C7.39524 14.2175 8.72701 14.2836 9.84094 14.7307L9.8771 14.7454L9.8771 1.90942L12.3771 1.90942V2.73458C12.6207 3.45968 13.1837 4.03547 13.9072 4.29391L15.0441 4.7C17.9797 5.74858 19.9392 8.52934 19.9392 11.6466V14.9998C19.9392 15.6623 19.4224 16.2097 18.761 16.2477C18.0996 16.2857 17.5234 15.8011 17.4475 15.143L17.2718 13.6197C16.9918 11.1922 14.6403 9.65261 12.3771 10.2174V17.9094H12.37C12.4664 18.9621 12.081 19.9652 11.4567 20.7606C10.7155 21.7048 9.5952 22.4279 8.29229 22.777C6.98937 23.1261 5.6576 23.0601 4.54367 22.613C3.42929 22.1657 2.46027 21.2961 2.12119 20.0306C1.78212 18.7652 2.18652 17.5276 2.92795 16.583ZM4.89448 18.1267C4.51855 18.6056 4.44626 19.0486 4.53601 19.3836C4.62576 19.7185 4.90989 20.0661 5.47492 20.2929C6.04039 20.5199 6.81429 20.5848 7.64524 20.3622C8.47618 20.1395 9.1139 19.6963 9.49013 19.217C9.86606 18.7381 9.93835 18.295 9.8486 17.9601C9.75885 17.6251 9.47472 17.2776 8.90969 17.0508C8.34422 16.8238 7.57032 16.7588 6.73937 16.9815C5.90843 17.2041 5.27071 17.6473 4.89448 18.1267ZM15.9888 8.17626C14.8892 7.67851 13.6477 7.48298 12.4002 7.66607L12.4002 6.3541C12.6132 6.46736 12.8356 6.56586 13.0662 6.64823L14.2031 7.05431C14.8883 7.29907 15.4931 7.68659 15.9888 8.17626Z" fill="black"/>
</svg>
