<svg width="24" height="26" viewBox="0 0 24 26" fill="none" xmlns="http://www.w3.org/2000/svg">
<path d="M4.40373 16.7368C3.10081 17.0859 1.98049 17.809 1.23935 18.7532C0.497922 19.6978 0.0935208 20.9354 0.432596 22.2008C0.771671 23.4663 1.74069 24.3358 2.85507 24.7831C3.969 25.2303 5.30077 25.2963 6.60369 24.9472C7.90661 24.5981 9.02692 23.875 9.76806 22.9308C10.3924 22.1354 10.7778 21.1322 10.6814 20.0796H10.6885L10.6885 12.3913L8.1885 9.89127L8.1885 16.9156L8.15234 16.9009C7.03841 16.4538 5.70664 16.3877 4.40373 16.7368Z" fill="black"/>
<path d="M21.1371 12.501C20.0955 12.0829 18.8634 11.998 17.6425 12.2742L23.2054 17.8371C23.4909 17.2991 23.6666 16.7019 23.6801 16.0796H23.6885L23.6885 2.0796C23.6885 1.68292 23.5002 1.30978 23.1811 1.07411C22.862 0.838444 22.45 0.768217 22.0709 0.884876L9.97499 4.60669L11.9752 6.60691L21.1885 3.77205V6.15634L13.7985 8.43019L15.7987 10.4304L21.1885 8.77201V12.522C21.1714 12.5149 21.1543 12.5079 21.1371 12.501Z" fill="black"/>
<path d="M13.4174 17.801C13.1861 16.9379 13.3007 16.0879 13.6321 15.3349L18.9777 20.6805C17.8755 20.8666 16.7801 20.7607 15.8399 20.3833C14.7255 19.936 13.7565 19.0664 13.4174 17.801Z" fill="black"/>
<path d="M5.79864 2.90522C5.50575 2.61232 5.03087 2.61232 4.73798 2.90522C4.44509 3.19811 4.44509 3.67298 4.73798 3.96588L22.2938 21.5217C22.5867 21.8146 23.0616 21.8146 23.3545 21.5217C23.6474 21.2288 23.6474 20.754 23.3545 20.4611L5.79864 2.90522Z" fill="black"/>
</svg>
