<svg width="24" height="24" viewBox="0 0 24 24" fill="none" xmlns="http://www.w3.org/2000/svg">
<path fill-rule="evenodd" clip-rule="evenodd" d="M4.66222 16.7027C3.54809 17.0013 2.62081 17.6124 2.02564 18.3706C1.43041 19.129 1.15885 20.0487 1.3982 20.942C1.63754 21.8352 2.3326 22.496 3.22724 22.8551C4.12179 23.2142 5.23041 23.2798 6.34454 22.9813C7.45867 22.6827 8.38595 22.0716 8.98112 21.3133C9.50157 20.6503 9.77456 19.8638 9.67496 19.0796H9.68817L9.68817 10.2642L10.9433 9.87801L10.5432 9.47797L9.68817 9.74106V8.62293L9.18817 8.12293L9.18817 17.8754C8.8461 17.4144 8.35395 17.0595 7.77952 16.8289C6.88497 16.4698 5.77635 16.4042 4.66222 16.7027ZM1.88116 20.8126C1.69168 20.1054 1.89681 19.3445 2.41894 18.6794C2.94113 18.0141 3.77189 17.4589 4.79163 17.1857C5.81136 16.9125 6.80841 16.9779 7.59327 17.2929C8.37804 17.6079 8.93612 18.1643 9.1256 18.8714C9.31508 19.5786 9.10995 20.3394 8.58782 21.0046C8.06563 21.6699 7.23487 22.2251 6.21513 22.4983C5.1954 22.7715 4.19835 22.7061 3.41349 22.3911C2.62872 22.0761 2.07064 21.5197 1.88116 20.8126Z" fill="black"/>
<path d="M17.647 12.3029C17.4541 12.3546 17.2669 12.4156 17.0859 12.4852L17.4767 12.876C17.5747 12.8432 17.6746 12.8131 17.7764 12.7859C18.7961 12.5126 19.7932 12.578 20.578 12.8931C21.3628 13.2081 21.9209 13.7644 22.1104 14.4716C22.2999 15.1787 22.0947 15.9396 21.5726 16.6048C21.5196 16.6722 21.4635 16.7386 21.4044 16.8036L21.7583 17.1575C21.8313 17.0781 21.9006 16.9967 21.9659 16.9135C22.3978 16.3633 22.6593 15.728 22.6788 15.0796H22.6882V1.07959C22.6882 1.00026 22.6505 0.925628 22.5867 0.878494C22.5229 0.831361 22.4405 0.817316 22.3647 0.840646L9.42336 4.82258L9.8234 5.22263L22.1882 1.41808V5.8949L13.2469 8.64608L13.6469 9.04612L22.1882 6.41804V13.4963C21.8456 13.0252 21.3473 12.6631 20.7643 12.4291C19.8697 12.07 18.7611 12.0044 17.647 12.3029Z" fill="black"/>
<path d="M15.0104 13.9708L15.0217 13.9565L15.378 14.3127C14.8749 14.97 14.6796 15.7173 14.8659 16.4127C15.0554 17.1199 15.6135 17.6762 16.3983 17.9912C17.1758 18.3033 18.1615 18.3704 19.1713 18.106L19.5749 18.5096C19.4941 18.5352 19.4122 18.5592 19.3293 18.5814C18.2152 18.8799 17.1066 18.8143 16.212 18.4552C15.3174 18.0962 14.6223 17.4354 14.383 16.5421C14.1436 15.6489 14.4152 14.7291 15.0104 13.9708Z" fill="black"/>
<path d="M5.44533 2.25877C5.3477 2.16114 5.18941 2.16114 5.09178 2.25877C4.99415 2.3564 4.99415 2.51469 5.09178 2.61232L22.6476 20.1682C22.7453 20.2658 22.9036 20.2658 23.0012 20.1682C23.0988 20.0705 23.0988 19.9123 23.0012 19.8146L5.44533 2.25877Z" fill="black"/>
</svg>
