<svg width="24" height="24" viewBox="0 0 24 24" fill="none" xmlns="http://www.w3.org/2000/svg">
<path d="M6.09245 14.5664C4.78953 14.9155 3.66921 15.6386 2.92808 16.5828C2.18664 17.5273 1.78224 18.7649 2.12132 20.0304C2.46039 21.2958 3.42941 22.1654 4.54379 22.6127C5.65772 23.0598 6.98949 23.1259 8.29241 22.7768C9.59533 22.4277 10.7156 21.7046 11.4568 20.7604C12.0811 19.965 12.4665 18.9618 12.3702 17.9092H12.3772L12.3772 8.956C15.1219 8.47494 17.8393 10.5136 17.9459 13.4834L17.9882 14.6651C17.9949 14.8517 18.1499 14.9995 18.3367 14.9995C18.5304 14.9995 18.6892 14.8426 18.6892 14.6489V10.4791C18.6892 8.25628 17.39 6.23858 15.3664 5.31877C13.9743 4.68602 12.897 3.51771 12.3789 2.07906L12.3772 2.07445V1.90918L9.87722 1.90918L9.87722 14.7451L9.84107 14.7305C8.72713 14.2833 7.39536 14.2173 6.09245 14.5664Z" fill="black"/>
</svg>
