<svg width="24" height="24" viewBox="0 0 24 24" fill="none" xmlns="http://www.w3.org/2000/svg">
<path fill-rule="evenodd" clip-rule="evenodd" d="M4.59766 16.4613C3.43633 16.7724 2.46079 17.4116 1.82913 18.2163C1.19735 19.0212 0.892578 20.0204 1.15686 21.0067C1.42113 21.993 2.18469 22.706 3.13426 23.0871C4.08366 23.4682 5.24806 23.5339 6.40939 23.2227C7.57071 22.9116 8.54625 22.2724 9.17792 21.4677C9.72384 20.7722 10.0256 19.9316 9.92701 19.0796H9.93831L9.93831 10.4488L21.9383 6.75653V12.8538C21.6271 12.5785 21.2589 12.3582 20.8576 12.197C19.9082 11.816 18.7438 11.7502 17.5824 12.0614C16.4211 12.3726 15.4456 13.0117 14.8139 13.8164C14.1821 14.6213 13.8774 15.6205 14.1416 16.6068C14.4059 17.5931 15.1695 18.3061 16.119 18.6873C17.0684 19.0683 18.2328 19.1341 19.3942 18.8229C20.5555 18.5117 21.531 17.8726 22.1627 17.0679C22.6229 16.4815 22.9096 15.7921 22.9292 15.0796H22.9383V1.07959C22.9383 0.920921 22.863 0.771667 22.7354 0.677398C22.6077 0.583132 22.4429 0.55504 22.2913 0.601705L9.29127 4.6017C9.08147 4.66626 8.93831 4.86009 8.93831 5.07959L8.93831 17.2403C8.63032 16.9712 8.26763 16.7554 7.87279 16.5969C6.92339 16.2158 5.75898 16.1501 4.59766 16.4613ZM21.9383 5.71026V1.75657L9.93831 5.44888V9.40257L21.9383 5.71026Z" fill="black"/>
</svg>
