<svg width="24" height="24" viewBox="0 0 24 24" fill="none" xmlns="http://www.w3.org/2000/svg">
<path fill-rule="evenodd" clip-rule="evenodd" d="M3.12458 16.7374C3.82923 15.8397 4.90129 15.1446 6.15701 14.8081C7.41273 14.4717 8.68871 14.5376 9.7478 14.9627C9.87684 15.0145 10.0035 15.0721 10.1271 15.1355L10.1271 1.90942L12.1271 1.90942V2.77446C12.3875 3.59068 13.0141 4.24037 13.8231 4.52934L14.9599 4.93543C17.7961 5.94848 19.6892 8.63499 19.6892 11.6466V14.9998C19.6892 15.5298 19.2757 15.9677 18.7466 15.9981C18.2175 16.0286 17.7565 15.6409 17.6958 15.1144L17.5201 13.591C17.2146 10.9426 14.5895 9.2885 12.1271 10.0268V17.9094H12.1188C12.2158 18.8955 11.8579 19.8445 11.26 20.6063C10.5553 21.504 9.48328 22.1991 8.22756 22.5355C6.97184 22.872 5.69586 22.8061 4.63677 22.3809C3.57733 21.9557 2.6768 21.1383 2.36266 19.9659C2.04851 18.7935 2.4197 17.6354 3.12458 16.7374ZM4.69781 17.9723C4.28533 18.4978 4.17982 19.0203 4.29451 19.4483C4.40919 19.8763 4.76181 20.276 5.38177 20.5249C6.00209 20.7739 6.83178 20.839 7.70992 20.6037C8.58807 20.3684 9.27404 19.8972 9.68676 19.3714C10.0992 18.8459 10.2047 18.3234 10.0901 17.8954C9.97538 17.4674 9.62276 17.0676 9.0028 16.8188C8.38248 16.5698 7.55279 16.5047 6.67465 16.74C5.7965 16.9753 5.11052 17.4465 4.69781 17.9723ZM16.9735 9.03398C15.6167 8.05531 13.8787 7.62487 12.1501 7.96253L12.1502 5.91631C12.4597 6.11846 12.7948 6.2858 13.1503 6.41279L14.2872 6.81888C15.4406 7.23089 16.3773 8.02768 16.9735 9.03398Z" fill="black"/>
</svg>
