<svg width="24" height="24" viewBox="0 0 24 24" fill="none" xmlns="http://www.w3.org/2000/svg">
<path d="M4.66271 16.7027C3.54858 17.0013 2.6213 17.6124 2.02613 18.3706C1.43089 19.129 1.15934 20.0487 1.39868 20.942C1.63803 21.8352 2.33309 22.496 3.22773 22.8551C4.12228 23.2142 5.2309 23.2798 6.34503 22.9813C7.45916 22.6827 8.38644 22.0716 8.98161 21.3133C9.50205 20.6503 9.77505 19.8638 9.67544 19.0796H9.68866L9.68866 10.2642L10.9437 9.87801L10.5437 9.47797L9.68866 9.74106V8.62293L9.18866 8.12293L9.18866 17.8754C8.84659 17.4144 8.35444 17.0595 7.78001 16.8289C6.88546 16.4698 5.77684 16.4042 4.66271 16.7027Z" fill="black"/>
<path d="M17.6475 12.3029C17.4546 12.3546 17.2674 12.4156 17.0864 12.4852L21.7587 17.1575C21.8318 17.0781 21.9011 16.9967 21.9664 16.9135C22.3983 16.3633 22.6598 15.728 22.6793 15.0796H22.6887V1.07959C22.6887 1.00026 22.651 0.925628 22.5872 0.878494C22.5234 0.831361 22.441 0.817316 22.3651 0.840646L9.42385 4.82258L9.82389 5.22263L22.1887 1.41808V5.8949L13.2473 8.64608L13.6474 9.04612L22.1887 6.41804V13.4963C21.846 13.0252 21.3478 12.6631 20.7648 12.4291C19.8702 12.07 18.7616 12.0044 17.6475 12.3029Z" fill="black"/>
<path d="M15.0109 13.9708L15.0222 13.9565L19.5754 18.5096C19.4946 18.5352 19.4127 18.5592 19.3298 18.5814C18.2157 18.8799 17.1071 18.8143 16.2125 18.4552C15.3179 18.0962 14.6228 17.4354 14.3835 16.5421C14.1441 15.6489 14.4157 14.7291 15.0109 13.9708Z" fill="black"/>
<path d="M5.44582 2.25877C5.34819 2.16114 5.1899 2.16114 5.09227 2.25877C4.99464 2.3564 4.99464 2.51469 5.09227 2.61232L22.6481 20.1682C22.7458 20.2658 22.904 20.2658 23.0017 20.1682C23.0993 20.0705 23.0993 19.9123 23.0017 19.8146L5.44582 2.25877Z" fill="black"/>
</svg>
