<svg width="24" height="24" viewBox="0 0 24 24" fill="none" xmlns="http://www.w3.org/2000/svg">
<path d="M6.28638 15.2911C5.12505 15.6023 4.14951 16.2414 3.51785 17.0461C2.88607 17.851 2.5813 18.8502 2.84558 19.8365C3.10985 20.8228 3.87341 21.5358 4.82298 21.9169C5.77238 22.298 6.93678 22.3637 8.09811 22.0526C9.25944 21.7414 10.235 21.1023 10.8666 20.2975C11.4126 19.602 11.7143 18.7614 11.6157 17.9094H11.627L11.627 9.15205C14.6041 8.11092 17.8294 10.2429 17.9457 13.4837L17.9881 14.6653C17.9948 14.852 18.1498 14.9998 18.3365 14.9998C18.5302 14.9998 18.689 14.8428 18.689 14.6491L18.689 12.1266C18.689 9.84429 17.2684 7.80316 15.1283 7.01039C13.2561 6.31689 11.9189 4.65959 11.627 2.698V1.90942L10.627 1.90942L10.627 16.0701C10.319 15.8011 9.95635 15.5852 9.56151 15.4267C8.61211 15.0456 7.4477 14.9799 6.28638 15.2911Z" fill="black"/>
</svg>
