<svg width="24" height="24" viewBox="0 0 24 24" fill="none" xmlns="http://www.w3.org/2000/svg">
<path fill-rule="evenodd" clip-rule="evenodd" d="M4.57653 12.6695C3.55966 12.2628 3.56508 10.8215 4.58498 10.4224L16.6438 5.70371C17.625 5.31975 18.5933 6.28803 18.2093 7.26928L13.4907 19.3281C13.0916 20.348 11.6503 20.3534 11.2435 19.3365L9.33866 14.5744L4.57653 12.6695ZM16.1285 7.78455L6.49761 11.5532L10.2041 13.0358C10.5112 13.1586 10.7545 13.4019 10.8773 13.7089L12.3599 17.4154L16.1285 7.78455Z" fill="black"/>
<path fill-rule="evenodd" clip-rule="evenodd" d="M23.502 12C23.502 18.3513 18.3532 23.5 12.002 23.5C5.65068 23.5 0.501953 18.3513 0.501953 12C0.501953 5.64873 5.65068 0.5 12.002 0.5C18.3532 0.5 23.502 5.64873 23.502 12ZM21.752 12C21.752 17.3848 17.3867 21.75 12.002 21.75C6.61718 21.75 2.25195 17.3848 2.25195 12C2.25195 6.61522 6.61718 2.25 12.002 2.25C17.3867 2.25 21.752 6.61522 21.752 12Z" fill="black"/>
</svg>
