<svg width="24" height="24" viewBox="0 0 24 24" fill="none" xmlns="http://www.w3.org/2000/svg">
<path fill-rule="evenodd" clip-rule="evenodd" d="M4.66547 12.4374C3.85899 12.1148 3.86329 10.9717 4.67217 10.6552L16.731 5.93652C17.5092 5.632 18.2771 6.39995 17.9726 7.17818L13.254 19.237C12.9374 20.0458 11.7943 20.0501 11.4717 19.2437L9.52708 14.3821L4.66547 12.4374ZM16.5656 7.34351L5.81417 11.5506L10.1074 13.2679C10.3509 13.3653 10.5438 13.5582 10.6413 13.8018L12.3585 18.095L16.5656 7.34351Z" fill="black"/>
<path fill-rule="evenodd" clip-rule="evenodd" d="M23.498 12C23.498 18.3513 18.3493 23.5 11.998 23.5C5.64677 23.5 0.498047 18.3513 0.498047 12C0.498047 5.64873 5.64677 0.5 11.998 0.5C18.3493 0.5 23.498 5.64873 23.498 12ZM22.248 12C22.248 17.6609 17.659 22.25 11.998 22.25C6.33713 22.25 1.74805 17.6609 1.74805 12C1.74805 6.33908 6.33713 1.75 11.998 1.75C17.659 1.75 22.248 6.33908 22.248 12Z" fill="black"/>
</svg>
