<svg width="24" height="24" viewBox="0 0 24 24" fill="none" xmlns="http://www.w3.org/2000/svg">
<path d="M4.99102 11.47C4.92068 11.4975 4.92031 11.5969 4.99044 11.625L9.96811 13.6161C10.1163 13.6754 10.2338 13.7928 10.2931 13.941L12.2841 18.9187C12.3122 18.9888 12.4116 18.9885 12.4391 18.9181L17.1578 6.85933C17.1843 6.79166 17.1175 6.72488 17.0498 6.75136L4.99102 11.47Z" fill="black"/>
<path fill-rule="evenodd" clip-rule="evenodd" d="M11.998 23.5C18.3493 23.5 23.498 18.3513 23.498 12C23.498 5.64873 18.3493 0.5 11.998 0.5C5.64677 0.5 0.498047 5.64873 0.498047 12C0.498047 18.3513 5.64677 23.5 11.998 23.5ZM4.80474 12.0892C4.31384 11.8929 4.31646 11.1971 4.80882 11.0044L16.8676 6.28574C17.3413 6.10038 17.8088 6.56782 17.6234 7.04153L12.9047 19.1003C12.7121 19.5927 12.0163 19.5953 11.8199 19.1044L9.82884 14.1267C9.82037 14.1055 9.80359 14.0888 9.78241 14.0803L4.80474 12.0892Z" fill="black"/>
</svg>
