<svg width="24" height="24" viewBox="0 0 24 24" fill="none" xmlns="http://www.w3.org/2000/svg">
<path d="M16.3456 7.56403L6.15443 11.5519L10.1543 13.1518C10.4296 13.2619 10.6477 13.4801 10.7578 13.7553L12.3577 17.7552L16.3456 7.56403Z" fill="black"/>
<path fill-rule="evenodd" clip-rule="evenodd" d="M11.9985 23.5C18.3498 23.5 23.4985 18.3513 23.4985 12C23.4985 5.64873 18.3498 0.5 11.9985 0.5C5.64726 0.5 0.498535 5.64873 0.498535 12C0.498535 18.3513 5.64726 23.5 11.9985 23.5ZM4.61953 12.5535C3.70786 12.1888 3.71272 10.8966 4.62711 10.5388L16.6859 5.82012C17.5656 5.47587 18.4338 6.34399 18.0895 7.22373L13.3709 19.2825C13.0131 20.1969 11.7208 20.2018 11.3562 19.2901L9.43141 14.4782L4.61953 12.5535Z" fill="black"/>
</svg>
