<svg width="24" height="24" viewBox="0 0 24 24" fill="none" xmlns="http://www.w3.org/2000/svg">
<path fill-rule="evenodd" clip-rule="evenodd" d="M4.62295 12.5535C3.71128 12.1888 3.71614 10.8966 4.63053 10.5388L16.6893 5.82012C17.569 5.47587 18.4372 6.34399 18.0929 7.22373L13.3743 19.2825C13.0165 20.1969 11.7242 20.2018 11.3596 19.2901L9.43482 14.4782L4.62295 12.5535ZM16.349 7.56403L6.15785 11.5519L10.1577 13.1518C10.433 13.2619 10.6511 13.4801 10.7612 13.7553L12.3612 17.7552L16.349 7.56403Z" fill="black"/>
<path fill-rule="evenodd" clip-rule="evenodd" d="M23.502 12C23.502 18.3513 18.3532 23.5 12.002 23.5C5.65068 23.5 0.501953 18.3513 0.501953 12C0.501953 5.64873 5.65068 0.5 12.002 0.5C18.3532 0.5 23.502 5.64873 23.502 12ZM22.002 12C22.002 17.5228 17.5248 22 12.002 22C6.47911 22 2.00195 17.5228 2.00195 12C2.00195 6.47715 6.47911 2 12.002 2C17.5248 2 22.002 6.47715 22.002 12Z" fill="black"/>
</svg>
