<svg width="24" height="24" viewBox="0 0 24 24" fill="none" xmlns="http://www.w3.org/2000/svg">
<path fill-rule="evenodd" clip-rule="evenodd" d="M4.62283 12.5535C3.71116 12.1888 3.71602 10.8966 4.6304 10.5388L16.6892 5.82012C17.5689 5.47587 18.437 6.34399 18.0928 7.22373L13.3741 19.2825C13.0163 20.1969 11.7241 20.2018 11.3595 19.2901L9.4347 14.4782L4.62283 12.5535ZM16.3489 7.56403L6.15772 11.5519L10.1576 13.1518C10.4329 13.2619 10.651 13.4801 10.7611 13.7553L12.361 17.7552L16.3489 7.56403Z" fill="black"/>
<path fill-rule="evenodd" clip-rule="evenodd" d="M23.5018 12C23.5018 18.3513 18.3531 23.5 12.0018 23.5C5.65056 23.5 0.501831 18.3513 0.501831 12C0.501831 5.64873 5.65056 0.5 12.0018 0.5C18.3531 0.5 23.5018 5.64873 23.5018 12ZM22.0018 12C22.0018 17.5228 17.5247 22 12.0018 22C6.47898 22 2.00183 17.5228 2.00183 12C2.00183 6.47715 6.47898 2 12.0018 2C17.5247 2 22.0018 6.47715 22.0018 12Z" fill="black"/>
</svg>
