<svg width="24" height="24" viewBox="0 0 24 24" fill="none" xmlns="http://www.w3.org/2000/svg">
<path d="M16.7866 7.12299L5.4749 11.5493L10.0614 13.3839C10.2732 13.4686 10.441 13.6364 10.5257 13.8482L12.3603 18.4347L16.7866 7.12299Z" fill="black"/>
<path fill-rule="evenodd" clip-rule="evenodd" d="M11.9985 23.5C18.3498 23.5 23.4985 18.3513 23.4985 12C23.4985 5.64873 18.3498 0.5 11.9985 0.5C5.64726 0.5 0.498535 5.64873 0.498535 12C0.498535 18.3513 5.64726 23.5 11.9985 23.5ZM4.71238 12.3213C4.01109 12.0408 4.01483 11.0468 4.71821 10.7716L16.777 6.05293C17.4537 5.78813 18.1215 6.45591 17.8567 7.13263L13.138 19.1914C12.8628 19.8948 11.8688 19.8985 11.5883 19.1972L9.62373 14.2859L4.71238 12.3213Z" fill="black"/>
</svg>
