<svg width="24" height="24" viewBox="0 0 24 24" fill="none" xmlns="http://www.w3.org/2000/svg">
<path fill-rule="evenodd" clip-rule="evenodd" d="M2.76088 9.12262C2.12784 9.37033 2.12448 10.2649 2.75564 10.5174L10.2221 13.504C10.2857 13.5294 10.336 13.5798 10.3614 13.6433L13.348 21.1098C13.6005 21.7409 14.4951 21.7376 14.7428 21.1045L21.8208 3.01637C22.0591 2.40732 21.4581 1.80631 20.8491 2.04464L2.76088 9.12262ZM2.94133 10.0532C2.73095 9.96902 2.73207 9.67081 2.94308 9.58824L21.0313 2.51026C21.2343 2.43082 21.4346 2.63115 21.3552 2.83417L14.2772 20.9223C14.1946 21.1334 13.8964 21.1345 13.8123 20.9241L10.8257 13.4576C10.7494 13.267 10.5984 13.116 10.4078 13.0398L2.94133 10.0532Z" fill="black"/>
</svg>
