<svg width="24" height="24" viewBox="0 0 24 24" fill="none" xmlns="http://www.w3.org/2000/svg">
<path fill-rule="evenodd" clip-rule="evenodd" d="M4.5758 12.6695C3.55893 12.2628 3.56435 10.8215 4.58424 10.4224L16.643 5.70371C17.6243 5.31975 18.5926 6.28803 18.2086 7.26928L13.4899 19.3281C13.0909 20.348 11.6495 20.3534 11.2428 19.3365L9.33793 14.5744L4.5758 12.6695ZM16.1278 7.78455L6.49688 11.5532L10.2034 13.0358C10.5104 13.1586 10.7537 13.4019 10.8765 13.7089L12.3592 17.4154L16.1278 7.78455Z" fill="black"/>
<path fill-rule="evenodd" clip-rule="evenodd" d="M23.5012 12C23.5012 18.3513 18.3525 23.5 12.0012 23.5C5.64995 23.5 0.501221 18.3513 0.501221 12C0.501221 5.64873 5.64995 0.5 12.0012 0.5C18.3525 0.5 23.5012 5.64873 23.5012 12ZM21.7512 12C21.7512 17.3848 17.386 21.75 12.0012 21.75C6.61644 21.75 2.25122 17.3848 2.25122 12C2.25122 6.61522 6.61644 2.25 12.0012 2.25C17.386 2.25 21.7512 6.61522 21.7512 12Z" fill="black"/>
</svg>
