<svg width="24" height="24" viewBox="0 0 24 24" fill="none" xmlns="http://www.w3.org/2000/svg">
<path d="M16.5656 7.34351L5.81417 11.5506L10.1074 13.2679C10.3509 13.3653 10.5438 13.5582 10.6413 13.8018L12.3585 18.095L16.5656 7.34351Z" fill="black"/>
<path fill-rule="evenodd" clip-rule="evenodd" d="M11.998 23.5C18.3493 23.5 23.498 18.3513 23.498 12C23.498 5.64873 18.3493 0.5 11.998 0.5C5.64677 0.5 0.498047 5.64873 0.498047 12C0.498047 18.3513 5.64677 23.5 11.998 23.5ZM4.66547 12.4374C3.85899 12.1148 3.86329 10.9717 4.67217 10.6552L16.731 5.93652C17.5092 5.632 18.2771 6.39995 17.9726 7.17818L13.254 19.237C12.9374 20.0458 11.7943 20.0501 11.4717 19.2437L9.52708 14.3821L4.66547 12.4374Z" fill="black"/>
</svg>
