<svg width="24" height="24" viewBox="0 0 24 24" fill="none" xmlns="http://www.w3.org/2000/svg">
<path fill-rule="evenodd" clip-rule="evenodd" d="M2.76186 9.12311C2.12882 9.37082 2.12546 10.2654 2.75661 10.5179L10.2231 13.5045C10.2866 13.5299 10.337 13.5802 10.3624 13.6438L13.349 21.1103C13.6015 21.7414 14.4961 21.7381 14.7438 21.105L21.8218 3.01686C22.0601 2.40781 21.4591 1.8068 20.85 2.04512L2.76186 9.12311ZM2.94231 10.0537C2.73192 9.9695 2.73304 9.6713 2.94406 9.58873L21.0322 2.51075C21.2353 2.43131 21.4356 2.63164 21.3561 2.83466L14.2782 20.9228C14.1956 21.1338 13.8974 21.135 13.8132 20.9246L10.8266 13.4581C10.7504 13.2675 10.5994 13.1165 10.4088 13.0403L2.94231 10.0537Z" fill="black"/>
</svg>
