<svg width="24" height="24" viewBox="0 0 24 24" fill="none" xmlns="http://www.w3.org/2000/svg">
<path d="M16.1246 7.78455L6.49371 11.5532L10.2002 13.0358C10.5073 13.1586 10.7506 13.4019 10.8734 13.7089L12.356 17.4154L16.1246 7.78455Z" fill="black"/>
<path fill-rule="evenodd" clip-rule="evenodd" d="M11.998 23.5C18.3493 23.5 23.498 18.3513 23.498 12C23.498 5.64873 18.3493 0.5 11.998 0.5C5.64677 0.5 0.498047 5.64873 0.498047 12C0.498047 18.3513 5.64677 23.5 11.998 23.5ZM4.57262 12.6695C3.55575 12.2628 3.56118 10.8215 4.58107 10.4224L16.6399 5.70371C17.6211 5.31975 18.5894 6.28803 18.2054 7.26928L13.4868 19.3281C13.0877 20.348 11.6464 20.3534 11.2396 19.3365L9.33475 14.5744L4.57262 12.6695Z" fill="black"/>
</svg>
