<svg width="25" height="24" viewBox="0 0 25 24" fill="none" xmlns="http://www.w3.org/2000/svg">
<path d="M20.8727 8.9999C20.7229 9.0017 20.5818 9.07084 20.4889 9.18837C20.3821 9.32373 20.3815 9.58352 20.3815 10.1024V10.245H2.62463L2.44592 10.2538C1.56355 10.3435 0.87465 11.089 0.874634 11.995C0.874634 12.9011 1.56354 13.6465 2.44592 13.7362L2.62463 13.745H20.3815V13.8974C20.3815 14.4162 20.3821 14.6761 20.4889 14.8114C20.5818 14.9289 20.7229 14.9981 20.8727 14.9999C21.0451 15.0019 21.2508 14.8438 21.6617 14.5272L24.1246 12.6298C24.4029 12.4155 24.5424 12.3082 24.5924 12.1776C24.6361 12.0633 24.6362 11.9365 24.5924 11.8222C24.5423 11.6917 24.4026 11.5842 24.1246 11.37L21.6617 9.47255C21.2508 9.15595 21.0451 8.99788 20.8727 8.9999Z" fill="black"/>
</svg>
