<svg width="24" height="24" viewBox="0 0 24 24" fill="none" xmlns="http://www.w3.org/2000/svg">
<path d="M16.1827 3.45224C15.5936 2.972 14.724 3.00576 14.1749 3.55477C13.6259 4.10385 13.5921 4.97343 14.0724 5.56259L14.1749 5.67685L18.67 10.172L1.74719 10.172C0.918825 10.172 0.247192 10.8436 0.247192 11.672C0.247295 12.4485 0.83755 13.0873 1.59387 13.1642L1.74719 13.172L18.67 13.172L14.1749 17.6671C13.5897 18.2528 13.5895 19.2025 14.1749 19.7882C14.7606 20.3739 15.7112 20.3736 16.297 19.7882L23.2823 12.8028C23.9065 12.1782 23.9064 11.1658 23.2823 10.5411L16.297 3.55477L16.1827 3.45224Z" fill="black"/>
</svg>
