<svg width="24" height="24" viewBox="0 0 24 24" fill="none" xmlns="http://www.w3.org/2000/svg">
<path d="M20.3674 10.126C20.2961 10.2162 20.2961 10.3892 20.2961 10.7351V11.4951L1.125 11.4951C0.848858 11.4951 0.625 11.7189 0.625 11.9951C0.625 12.2712 0.848858 12.4951 1.125 12.4951L20.2961 12.4951V13.2649C20.2961 13.6108 20.2961 13.7838 20.3674 13.874C20.4293 13.9525 20.5234 13.9988 20.6235 14C20.7384 14.0013 20.8754 13.8958 21.1495 13.6847L22.7915 12.4198C22.977 12.2769 23.0697 12.2055 23.1031 12.1185C23.1323 12.0422 23.1323 11.9578 23.1031 11.8815C23.0697 11.7945 22.977 11.7231 22.7915 11.5802L21.1495 10.3153C20.8754 10.1042 20.7384 9.99866 20.6235 10C20.5234 10.0012 20.4293 10.0475 20.3674 10.126Z" fill="black"/>
</svg>
