<svg width="24" height="24" viewBox="0 0 24 24" fill="none" xmlns="http://www.w3.org/2000/svg">
<path d="M16.3398 3.25828C15.6526 2.69805 14.6386 2.73797 13.998 3.3784C13.3574 4.01905 13.3175 5.03382 13.8779 5.72117L13.998 5.85301L18.0664 9.92137L1.74707 9.92137C0.78073 9.92137 -0.00267306 10.7051 -0.00292969 11.6714C-0.00292965 12.5776 0.685759 13.3231 1.56836 13.4126L1.74707 13.4214H18.0664L13.998 17.4907C13.3151 18.1742 13.3148 19.282 13.998 19.9653C14.6813 20.6484 15.7893 20.6482 16.4727 19.9653L23.458 12.98C24.1801 12.2576 24.1801 11.0862 23.458 10.3637L16.4727 3.3784L16.3398 3.25828Z" fill="black"/>
</svg>
