<svg width="24" height="24" viewBox="0 0 24 24" fill="none" xmlns="http://www.w3.org/2000/svg">
<path d="M19.1134 9.18901C19.0066 9.32436 19.0066 9.58381 19.0066 10.1027V10.9951L1.25024 10.9951C0.69796 10.9951 0.250244 11.4428 0.250244 11.9951C0.250244 12.5474 0.69796 12.9951 1.25024 12.9951L19.0066 12.9951V13.8973C19.0066 14.4162 19.0066 14.6756 19.1134 14.811C19.2064 14.9288 19.3475 14.9982 19.4976 15C19.67 15.002 19.8755 14.8437 20.2866 14.527L22.7497 12.6297C23.0279 12.4154 23.167 12.3083 23.217 12.1777C23.2608 12.0633 23.2608 11.9367 23.217 11.8223C23.167 11.6917 23.0279 11.5846 22.7497 11.3703L20.2866 9.47296C19.8755 9.15631 19.67 8.99799 19.4976 9.00002C19.3475 9.00179 19.2064 9.07124 19.1134 9.18901Z" fill="black"/>
</svg>
