<svg width="24" height="24" viewBox="0 0 24 24" fill="none" xmlns="http://www.w3.org/2000/svg">
<path d="M21.1819 10.5945C21.1285 10.6622 21.1285 10.7919 21.1285 11.0513V11.7451L1.24988 11.7451C1.11181 11.7451 0.999878 11.857 0.999878 11.9951C0.999878 12.1332 1.11181 12.2451 1.24988 12.2451L21.1285 12.2451V12.9487C21.1285 13.2081 21.1285 13.3378 21.1819 13.4055C21.2284 13.4644 21.299 13.4991 21.374 13.5C21.4602 13.501 21.5629 13.4218 21.7685 13.2635L23 12.3149C23.1391 12.2077 23.2087 12.1541 23.2337 12.0888C23.2556 12.0316 23.2556 11.9684 23.2337 11.9112C23.2087 11.8459 23.1391 11.7923 23 11.6851L21.7685 10.7365C21.5629 10.5782 21.4602 10.499 21.374 10.5C21.299 10.5009 21.2284 10.5356 21.1819 10.5945Z" fill="black"/>
</svg>
