<svg width="24" height="24" viewBox="0 0 24 24" fill="none" xmlns="http://www.w3.org/2000/svg">
<path fill-rule="evenodd" clip-rule="evenodd" d="M12 0C10.142 0 9.21287 -6.97747e-05 8.43555 0.123047C4.1567 0.800792 0.800792 4.1567 0.123047 8.43555C-6.97747e-05 9.21287 0 10.142 0 12C0 13.858 -6.97747e-05 14.7871 0.123047 15.5645C0.800792 19.8433 4.1567 23.1992 8.43555 23.877C9.21287 24.0001 10.142 24 12 24C13.858 24 14.7871 24.0001 15.5645 23.877C19.8433 23.1992 23.1992 19.8433 23.877 15.5645C24.0001 14.7871 24 13.858 24 12C24 10.142 24.0001 9.21287 23.877 8.43555C23.1992 4.1567 19.8433 0.800792 15.5645 0.123047C14.7871 -6.97747e-05 13.858 0 12 0ZM12.7617 6.48145C13.4024 5.84079 14.4171 5.80083 15.1045 6.36133L15.2373 6.48145L19.1826 10.4268C19.8961 11.1403 19.8961 12.2972 19.1826 13.0107L15.2373 16.9561C14.5539 17.639 13.445 17.6393 12.7617 16.9561C12.0789 16.2728 12.079 15.1648 12.7617 14.4814L13.7744 13.4688H5.82031L5.6416 13.46C4.75938 13.3702 4.0704 12.6246 4.07031 11.7188C4.07031 10.8128 4.75934 10.0673 5.6416 9.97754L5.82031 9.96875H13.7744L12.7617 8.95605L12.6416 8.82324C12.0814 8.13611 12.1217 7.12208 12.7617 6.48145Z" fill="black"/>
</svg>
