<svg width="24" height="24" viewBox="0 0 24 24" fill="none" xmlns="http://www.w3.org/2000/svg">
<path fill-rule="evenodd" clip-rule="evenodd" d="M23.8769 8.43565C24 9.21298 24 10.142 24 12C24 13.858 24 14.787 23.8769 15.5643C23.1992 19.8433 19.8433 23.1992 15.5643 23.8769C14.787 24 13.858 24 12 24C10.142 24 9.21298 24 8.43565 23.8769C4.15673 23.1992 0.800833 19.8433 0.123117 15.5643C0 14.787 0 13.858 0 12C0 10.142 0 9.21298 0.123117 8.43565C0.800833 4.15673 4.15673 0.800832 8.43565 0.123117C9.21298 0 10.142 0 12 0C13.858 0 14.787 0 15.5643 0.123117C19.8433 0.800832 23.1992 4.15673 23.8769 8.43565ZM18.8294 12.6571C19.3477 12.1389 19.3476 11.2986 18.8294 10.7804L14.8839 6.83487C14.3957 6.34671 13.6043 6.34671 13.1161 6.83487C12.628 7.32302 12.628 8.11448 13.1161 8.60263L14.9822 10.4688H5.82074C5.13039 10.4688 4.57074 11.0284 4.57074 11.7188C4.57074 12.4091 5.13039 12.9688 5.82074 12.9688H14.9822L13.1161 14.8349C12.628 15.323 12.628 16.1145 13.1161 16.6026C13.6043 17.0908 14.3957 17.0908 14.8839 16.6026L18.8294 12.6571Z" fill="black"/>
</svg>
