<svg width="24" height="24" viewBox="0 0 24 24" fill="none" xmlns="http://www.w3.org/2000/svg">
<path fill-rule="evenodd" clip-rule="evenodd" d="M23.8769 8.43565C24 9.21298 24 10.142 24 12C24 13.858 24 14.787 23.8769 15.5643C23.1992 19.8433 19.8433 23.1992 15.5643 23.8769C14.787 24 13.858 24 12 24C10.142 24 9.21298 24 8.43565 23.8769C4.15673 23.1992 0.800833 19.8433 0.123117 15.5643C0 14.787 0 13.858 0 12C0 10.142 0 9.21298 0.123117 8.43565C0.800833 4.15673 4.15673 0.800832 8.43565 0.123117C9.21298 0 10.142 0 12 0C13.858 0 14.787 0 15.5643 0.123117C19.8433 0.800832 23.1992 4.15673 23.8769 8.43565ZM18.6526 12.4803C19.0732 12.0597 19.0732 11.3777 18.6526 10.9571L14.7071 7.01162C14.3166 6.62109 13.6834 6.62109 13.2929 7.01162C12.9024 7.40214 12.9024 8.03531 13.2929 8.42583L15.5858 10.7187H5.82073C5.26845 10.7187 4.82073 11.1664 4.82073 11.7187C4.82073 12.271 5.26845 12.7187 5.82073 12.7187H15.5858L13.2929 15.0116C12.9024 15.4021 12.9024 16.0353 13.2929 16.4258C13.6834 16.8164 14.3166 16.8164 14.7071 16.4258L18.6526 12.4803Z" fill="black"/>
</svg>
