<svg width="24" height="24" viewBox="0 0 24 24" fill="none" xmlns="http://www.w3.org/2000/svg">
<path d="M19.4887 9.18901C19.3818 9.32436 19.3818 9.58381 19.3818 10.1027V10.7451L1.625 10.7451C0.934645 10.7451 0.375 11.3047 0.375 11.9951C0.375 12.6854 0.934645 13.2451 1.625 13.2451L19.3818 13.2451V13.8973C19.3818 14.4162 19.3818 14.6756 19.4887 14.811C19.5816 14.9288 19.7228 14.9982 19.8728 15C20.0452 15.002 20.2508 14.8437 20.6618 14.527L23.1249 12.6297C23.4031 12.4154 23.5422 12.3083 23.5922 12.1777C23.6361 12.0633 23.6361 11.9367 23.5922 11.8223C23.5422 11.6917 23.4031 11.5846 23.1249 11.3703L20.6618 9.47296C20.2508 9.15631 20.0452 8.99799 19.8728 9.00002C19.7228 9.00179 19.5816 9.07124 19.4887 9.18901Z" fill="black"/>
</svg>
