<svg width="24" height="24" viewBox="0 0 24 24" fill="none" xmlns="http://www.w3.org/2000/svg">
<path d="M19.873 8.99989C19.723 9.00167 19.5812 9.07159 19.4883 9.18935C19.3817 9.32474 19.3818 9.58423 19.3818 10.1024V10.495H1.625L1.47168 10.5028C0.715305 10.5796 0.125007 11.2184 0.125 11.995C0.125 12.7717 0.715302 13.4104 1.47168 13.4872L1.625 13.495H19.3818V13.8974C19.3818 14.4155 19.3818 14.675 19.4883 14.8104C19.5812 14.9282 19.723 14.9981 19.873 14.9999C20.0454 15.0018 20.2513 14.8437 20.6621 14.5272L23.125 12.6298C23.4031 12.4156 23.5418 12.3081 23.5918 12.1776C23.6356 12.0632 23.6356 11.9366 23.5918 11.8222C23.5417 11.6917 23.4031 11.5842 23.125 11.37L20.6621 9.47353C20.2512 9.15704 20.0454 8.99799 19.873 8.99989Z" fill="black"/>
</svg>
