<svg width="24" height="24" viewBox="0 0 24 24" fill="none" xmlns="http://www.w3.org/2000/svg">
<path fill-rule="evenodd" clip-rule="evenodd" d="M21.0541 1.06043C20.4683 0.474647 19.5186 0.474647 18.9328 1.06043L7.78602 12.2072C7.75064 12.2426 7.71713 12.2796 7.68559 12.3182C7.66224 12.3346 7.63997 12.3533 7.6191 12.3741C7.54029 12.453 7.49329 12.5515 7.47809 12.6539C7.45768 12.6994 7.4395 12.746 7.42366 12.7935L6.24221 16.3379C6.04677 16.9242 6.60457 17.482 7.19089 17.2866L10.7352 16.1051C10.7828 16.0893 10.8294 16.0711 10.8749 16.0507C10.9773 16.0355 11.0758 15.9885 11.1546 15.9097C11.1755 15.8888 11.1942 15.8665 11.2106 15.8432C11.2491 15.8116 11.2862 15.7781 11.3216 15.7428L22.4683 4.59597C23.0541 4.01018 23.0541 3.06043 22.4683 2.47465L21.0541 1.06043ZM8.67976 12.7277L17.8721 3.53531L19.9935 5.65663L10.8011 14.849L8.67976 12.7277ZM19.6399 1.76754L18.5793 2.8282L20.7006 4.94952L21.7612 3.88886C21.9565 3.6936 21.9565 3.37702 21.7612 3.18175L20.347 1.76754C20.1518 1.57228 19.8352 1.57228 19.6399 1.76754ZM8.19116 13.6533L7.34901 16.1798L9.87546 15.3376L8.19116 13.6533Z" fill="black"/>
<path d="M21.75 9.37691C21.75 8.63127 21.75 7.99756 21.7325 7.45265L20.7484 8.43685C20.75 8.7306 20.75 9.0502 20.75 9.39977V16.5998C20.75 17.7281 20.7496 18.5443 20.6972 19.1862C20.6452 19.8223 20.5446 20.2431 20.3685 20.5887C20.033 21.2473 19.4975 21.7827 18.839 22.1183C18.4934 22.2944 18.0726 22.395 17.4365 22.4469C16.7946 22.4994 15.9784 22.4998 14.85 22.4998H7.65C6.52164 22.4998 5.70545 22.4994 5.06352 22.4469C4.42743 22.395 4.00662 22.2944 3.66103 22.1183C3.00247 21.7827 2.46703 21.2473 2.13148 20.5887C1.95539 20.2431 1.85481 19.8223 1.80284 19.1862C1.75039 18.5443 1.75 17.7281 1.75 16.5998V9.39977C1.75 8.27141 1.75039 7.45522 1.80284 6.81329C1.85481 6.17721 1.95539 5.75639 2.13148 5.4108C2.46703 4.75224 3.00247 4.2168 3.66103 3.88125C4.00662 3.70516 4.42743 3.60458 5.06352 3.55261C5.70545 3.50016 6.52164 3.49977 7.65 3.49977H14.3717L15.3715 2.49998C15.211 2.49977 15.0448 2.49977 14.8727 2.49977H7.62737C6.52642 2.49977 5.66948 2.49977 4.98209 2.55593C4.28416 2.61295 3.7171 2.73035 3.20704 2.99024C2.36031 3.42167 1.6719 4.11008 1.24047 4.95681C0.980583 5.46687 0.86318 6.03393 0.806158 6.73186C0.749996 7.41924 0.749998 8.27616 0.75 9.37709V16.6224C0.749998 17.7233 0.749996 18.5803 0.806158 19.2677C0.86318 19.9656 0.980583 20.5327 1.24047 21.0427C1.6719 21.8895 2.36031 22.5779 3.20704 23.0093C3.7171 23.2692 4.28416 23.3866 4.98209 23.4436C5.66947 23.4998 6.52638 23.4998 7.62731 23.4998H14.8726C15.9736 23.4998 16.8305 23.4998 17.5179 23.4436C18.2158 23.3866 18.7829 23.2692 19.293 23.0093C20.1397 22.5779 20.8281 21.8895 21.2595 21.0427C21.5194 20.5327 21.6368 19.9656 21.6938 19.2677C21.75 18.5803 21.75 17.7235 21.75 16.6226V9.37691Z" fill="black"/>
</svg>
