<svg width="24" height="24" viewBox="0 0 24 24" fill="none" xmlns="http://www.w3.org/2000/svg">
<path d="M19.1096 1.23745C19.5977 0.749299 20.3892 0.749299 20.8773 1.23745L22.2916 2.65167C22.7797 3.13982 22.7797 3.93128 22.2916 4.41944L21.4078 5.30321L18.2258 2.12122L19.1096 1.23745Z" fill="black"/>
<path d="M17.1652 3.18188L20.3471 6.36387L11.5081 15.2029L8.32611 12.0209L17.1652 3.18188Z" fill="black"/>
<path d="M7.5098 13.3259L6.47938 16.4172C6.34909 16.8081 6.72095 17.1799 7.11183 17.0496L10.2031 16.0192L7.5098 13.3259Z" fill="black"/>
<path d="M21.5 9.38825C21.5 8.41721 21.5 7.64644 21.463 7.01536L11.9118 16.5665L11.8912 16.587C11.88 16.598 11.8628 16.6146 11.8414 16.634C11.6827 16.778 11.4989 16.8916 11.2991 16.9692C11.2721 16.9796 11.2496 16.9876 11.2348 16.9927L11.2073 17.002L7.59786 18.2051C7.56409 18.2164 7.50998 18.2344 7.4608 18.2491C7.41607 18.2624 7.27925 18.3031 7.10928 18.3183C6.02275 18.4156 5.11304 17.5058 5.21027 16.4193C5.22548 16.2493 5.26598 16.1133 5.2793 16.0685C5.294 16.0192 5.31223 15.9645 5.32349 15.9307L6.52662 12.3213L6.53592 12.2938C6.54102 12.279 6.54894 12.2565 6.55944 12.2294C6.63701 12.0297 6.7506 11.8459 6.89455 11.6872C6.91403 11.6658 6.93062 11.6486 6.94158 11.6374L6.96207 11.6168L15.8272 2.75169C15.529 2.75001 15.208 2.75001 14.8616 2.75001H7.63836C6.52809 2.75001 5.67963 2.75001 5.00245 2.80534C4.31998 2.8611 3.78948 2.9743 3.32054 3.21324C2.52085 3.6207 1.87068 4.27087 1.46322 5.07055C1.22429 5.53949 1.11109 6.07 1.05533 6.75246C1 7.42963 1 8.27805 1 9.38826V16.6117C1 17.7219 1 18.5704 1.05533 19.2476C1.11109 19.93 1.22429 20.4605 1.46322 20.9295C1.87068 21.7292 2.52085 22.3793 3.32054 22.7868C3.78948 23.0257 4.31998 23.1389 5.00245 23.1947C5.67961 23.25 6.52803 23.25 7.63823 23.25H14.8616C15.9719 23.25 16.8204 23.25 17.4976 23.1947C18.18 23.1389 18.7105 23.0257 19.1795 22.7868C19.9791 22.3793 20.6293 21.7292 21.0368 20.9295C21.2757 20.4605 21.3889 19.93 21.4447 19.2476C21.5 18.5704 21.5 17.722 21.5 16.6118V9.38825Z" fill="black"/>
</svg>
