<svg width="24" height="24" viewBox="0 0 24 24" fill="none" xmlns="http://www.w3.org/2000/svg">
<path d="M19.1096 1.23745C19.5977 0.749299 20.3892 0.749299 20.8773 1.23745L22.2916 2.65167C22.7797 3.13982 22.7797 3.93128 22.2916 4.41944L21.5846 5.12643L18.4026 1.94445L19.1096 1.23745Z" fill="black"/>
<path d="M16.9884 3.35866L20.1704 6.54064L11.6849 15.0261L8.50289 11.8441L16.9884 3.35866Z" fill="black"/>
<path d="M7.42141 13.5911L6.47938 16.4172C6.34909 16.8081 6.72095 17.1799 7.11183 17.0496L9.93793 16.1076L7.42141 13.5911Z" fill="black"/>
<path d="M21.5 9.38825C21.5 8.7414 21.5 8.18341 21.4891 7.69639L12.2566 16.9288C12.0096 17.1758 11.7085 17.3619 11.3771 17.4724L7.66481 18.7098C5.90586 19.2961 4.23245 17.6227 4.81877 15.8638L6.0562 12.1515C6.16666 11.8201 6.35275 11.519 6.59975 11.272L15.1217 2.75004L7.63836 2.75001C6.52809 2.75001 5.67963 2.75001 5.00245 2.80534C4.31998 2.8611 3.78948 2.9743 3.32054 3.21324C2.52085 3.6207 1.87068 4.27087 1.46322 5.07055C1.22429 5.53949 1.11109 6.07 1.05533 6.75246C1 7.42963 1 8.27805 1 9.38826V16.6117C1 17.7219 1 18.5704 1.05533 19.2476C1.11109 19.93 1.22429 20.4605 1.46322 20.9295C1.87068 21.7292 2.52085 22.3793 3.32054 22.7868C3.78948 23.0257 4.31998 23.1389 5.00245 23.1947C5.67961 23.25 6.52803 23.25 7.63823 23.25H14.8616C15.9719 23.25 16.8204 23.25 17.4976 23.1947C18.18 23.1389 18.7105 23.0257 19.1795 22.7868C19.9791 22.3793 20.6293 21.7292 21.0368 20.9295C21.2757 20.4605 21.3889 19.93 21.4447 19.2476C21.5 18.5704 21.5 17.722 21.5 16.6118V9.38825Z" fill="black"/>
</svg>
