<svg width="24" height="24" viewBox="0 0 24 24" fill="none" xmlns="http://www.w3.org/2000/svg">
<path d="M19.1096 1.23721C19.5977 0.749055 20.3892 0.749055 20.8773 1.23721L22.2916 2.65142C22.7797 3.13958 22.7797 3.93104 22.2916 4.41919L21.4078 5.30296L18.2258 2.12098L19.1096 1.23721Z" fill="black"/>
<path d="M17.1652 3.18164L20.3471 6.36362L11.5081 15.2027L8.32611 12.0207L17.1652 3.18164Z" fill="black"/>
<path d="M7.5098 13.3257L6.47938 16.4169C6.34909 16.8078 6.72095 17.1797 7.11183 17.0494L10.2031 16.019L7.5098 13.3257Z" fill="black"/>
<path d="M21.5 9.38801C21.5 8.41696 21.5 7.64619 21.463 7.01512L11.9118 16.5663L11.8912 16.5868C11.88 16.5977 11.8628 16.6143 11.8414 16.6338C11.6827 16.7778 11.4989 16.8913 11.2991 16.9689C11.2721 16.9794 11.2496 16.9873 11.2348 16.9924L11.2073 17.0017L7.59786 18.2049C7.56409 18.2161 7.50998 18.2342 7.4608 18.2488C7.41607 18.2621 7.27925 18.3029 7.10928 18.3181C6.02275 18.4153 5.11304 17.5056 5.21027 16.4191C5.22548 16.2491 5.26598 16.113 5.2793 16.0683C5.294 16.0189 5.31223 15.9642 5.32349 15.9305L6.52662 12.3211L6.53592 12.2935C6.54102 12.2787 6.54894 12.2562 6.55944 12.2292C6.63701 12.0295 6.7506 11.8457 6.89455 11.687C6.91403 11.6655 6.93062 11.6483 6.94158 11.6372L6.96207 11.6165L15.8272 2.75145C15.529 2.74977 15.208 2.74977 14.8616 2.74977H7.63836C6.52809 2.74977 5.67963 2.74977 5.00245 2.8051C4.31998 2.86086 3.78948 2.97406 3.32054 3.21299C2.52085 3.62045 1.87068 4.27062 1.46322 5.07031C1.22429 5.53925 1.11109 6.06975 1.05533 6.75222C1 7.42938 1 8.2778 1 9.38801V16.6114C1 17.7216 1 18.5702 1.05533 19.2473C1.11109 19.9298 1.22429 20.4603 1.46322 20.9292C1.87068 21.7289 2.52085 22.3791 3.32054 22.7865C3.78948 23.0255 4.31998 23.1387 5.00245 23.1944C5.67961 23.2498 6.52803 23.2498 7.63823 23.2498H14.8616C15.9719 23.2498 16.8204 23.2498 17.4976 23.1944C18.18 23.1387 18.7105 23.0255 19.1795 22.7865C19.9791 22.3791 20.6293 21.7289 21.0368 20.9292C21.2757 20.4603 21.3889 19.9298 21.4447 19.2473C21.5 18.5702 21.5 17.7217 21.5 16.6115V9.38801Z" fill="black"/>
</svg>
