<svg width="24" height="24" viewBox="0 0 24 24" fill="none" xmlns="http://www.w3.org/2000/svg">
<path d="M19.1096 1.23721C19.5977 0.749055 20.3892 0.749055 20.8773 1.23721L22.2916 2.65142C22.7797 3.13958 22.7797 3.93104 22.2916 4.41919L21.5846 5.12618L18.4026 1.9442L19.1096 1.23721Z" fill="black"/>
<path d="M16.9884 3.35842L20.1704 6.5404L11.6849 15.0259L8.50289 11.8439L16.9884 3.35842Z" fill="black"/>
<path d="M7.42141 13.5908L6.47938 16.4169C6.34909 16.8078 6.72095 17.1797 7.11183 17.0494L9.93793 16.1074L7.42141 13.5908Z" fill="black"/>
<path d="M21.5 9.38801C21.5 8.74115 21.5 8.18317 21.4891 7.69615L12.2566 16.9286C12.0096 17.1756 11.7085 17.3617 11.3771 17.4721L7.66481 18.7096C5.90586 19.2959 4.23245 17.6225 4.81877 15.8635L6.0562 12.1512C6.16666 11.8198 6.35275 11.5187 6.59975 11.2717L15.1217 2.7498L7.63836 2.74977C6.52809 2.74977 5.67963 2.74977 5.00245 2.8051C4.31998 2.86086 3.78948 2.97406 3.32054 3.21299C2.52085 3.62045 1.87068 4.27062 1.46322 5.07031C1.22429 5.53925 1.11109 6.06975 1.05533 6.75222C1 7.42938 1 8.2778 1 9.38801V16.6114C1 17.7216 1 18.5702 1.05533 19.2473C1.11109 19.9298 1.22429 20.4603 1.46322 20.9292C1.87068 21.7289 2.52085 22.3791 3.32054 22.7865C3.78948 23.0255 4.31998 23.1387 5.00245 23.1944C5.67961 23.2498 6.52803 23.2498 7.63823 23.2498H14.8616C15.9719 23.2498 16.8204 23.2498 17.4976 23.1944C18.18 23.1387 18.7105 23.0255 19.1795 22.7865C19.9791 22.3791 20.6293 21.7289 21.0368 20.9292C21.2757 20.4603 21.3889 19.9298 21.4447 19.2473C21.5 18.5702 21.5 17.7217 21.5 16.6115V9.38801Z" fill="black"/>
</svg>
