<svg width="24" height="24" viewBox="0 0 24 24" fill="none" xmlns="http://www.w3.org/2000/svg">
<path fill-rule="evenodd" clip-rule="evenodd" d="M21.2309 0.883657C20.5475 0.200239 19.4394 0.200239 18.756 0.883657L7.60925 12.0304C7.57559 12.0641 7.54338 12.0991 7.51269 12.1352C7.48827 12.1542 7.46476 12.1749 7.44232 12.1974C7.33331 12.3064 7.26487 12.4406 7.237 12.5813C7.2184 12.6249 7.20154 12.6693 7.18649 12.7145L6.00504 16.2588C5.74445 17.0406 6.48819 17.7843 7.26995 17.5237L10.8143 16.3423C10.8595 16.3272 10.9039 16.3104 10.9475 16.2918C11.0882 16.2639 11.2224 16.1955 11.3314 16.0865C11.3538 16.064 11.3746 16.0405 11.3936 16.0161C11.4297 15.9854 11.4647 15.9532 11.4983 15.9195L22.6451 4.77274C23.3285 4.08933 23.3285 2.98129 22.6451 2.29787L21.2309 0.883657ZM9.03331 12.7277L17.8721 3.88886L19.6399 5.65663L10.8011 14.4955L9.03331 12.7277ZM19.8167 1.94432L18.9328 2.8282L20.7006 4.59597L21.5845 3.71208C21.6821 3.61445 21.6821 3.45616 21.5845 3.35853L20.1702 1.94432C20.0726 1.84669 19.9143 1.84669 19.8167 1.94432ZM8.30041 14.1161L7.74429 15.7845L9.41265 15.2284L8.30041 14.1161Z" fill="black"/>
<path d="M22 9.36675C22 8.67666 22 8.07706 21.9856 7.55313L20.4999 9.03885L20.5 16.5998C20.5 17.7323 20.4994 18.5365 20.448 19.1659C20.3973 19.7865 20.3009 20.1708 20.1458 20.4752C19.8342 21.0868 19.337 21.584 18.7255 21.8955C18.421 22.0507 18.0367 22.1471 17.4161 22.1978C16.7867 22.2492 15.9825 22.2498 14.85 22.2498H7.65C6.51752 22.2498 5.71326 22.2492 5.08388 22.1978C4.46325 22.1471 4.079 22.0507 3.77453 21.8955C3.163 21.584 2.66582 21.0868 2.35423 20.4752C2.19909 20.1708 2.10271 19.7865 2.05201 19.1659C2.00058 18.5365 2 17.7323 2 16.5998V9.39977C2 8.26729 2.00058 7.46304 2.05201 6.83365C2.10271 6.21302 2.19909 5.82877 2.35423 5.5243C2.66582 4.91277 3.163 4.41559 3.77453 4.104C4.079 3.94886 4.46325 3.85248 5.08388 3.80178C5.71326 3.75035 6.51752 3.74977 7.65 3.74977H13.7682L15.2681 2.24987L7.617 2.24977C6.52485 2.24976 5.65936 2.24976 4.96173 2.30676C4.24834 2.36504 3.64472 2.48665 3.09355 2.76749C2.19978 3.22289 1.47312 3.94955 1.01772 4.84332C0.736881 5.39449 0.615275 5.99812 0.556988 6.7115C0.499991 7.40913 0.499994 8.27463 0.5 9.36677V16.6328C0.499994 17.7249 0.499991 18.5904 0.556988 19.288C0.615275 20.0014 0.736881 20.605 1.01772 21.1562C1.47312 22.05 2.19978 22.7767 3.09355 23.232C3.64472 23.5129 4.24834 23.6345 4.96173 23.6928C5.65935 23.7498 6.52484 23.7498 7.61698 23.7498H14.883C15.9752 23.7498 16.8406 23.7498 17.5383 23.6928C18.2517 23.6345 18.8553 23.5129 19.4065 23.232C20.3002 22.7767 21.0269 22.05 21.4823 21.1562C21.7631 20.605 21.8847 20.0014 21.943 19.288C22 18.5904 22 17.7249 22 16.6328V9.36675Z" fill="black"/>
</svg>
