<svg width="24" height="24" viewBox="0 0 24 24" fill="none" xmlns="http://www.w3.org/2000/svg">
<path fill-rule="evenodd" clip-rule="evenodd" d="M20.8773 1.23721C20.3892 0.749055 19.5977 0.749055 19.1096 1.23721L7.9628 12.384C7.92406 12.4227 7.88801 12.4639 7.85484 12.5071C7.83365 12.5184 7.81374 12.533 7.79587 12.5509C7.74881 12.598 7.72443 12.6592 7.72274 12.7208C7.69887 12.7699 7.67817 12.8206 7.66083 12.8726L6.47938 16.4169C6.34909 16.8078 6.72095 17.1797 7.11183 17.0494L10.6562 15.8679C10.7082 15.8506 10.7589 15.8299 10.808 15.806C10.8696 15.8043 10.9308 15.78 10.9779 15.7329C10.9957 15.715 11.0103 15.6951 11.0216 15.6739C11.0649 15.6408 11.106 15.6047 11.1448 15.566L22.2916 4.41919C22.7797 3.93104 22.7797 3.13958 22.2916 2.65142L20.8773 1.23721ZM8.3262 12.7277L17.8721 3.18175L20.347 5.65663L10.8011 15.2026L8.3262 12.7277ZM19.4631 1.59076L18.2257 2.8282L20.7006 5.30307L21.938 4.06564C22.2309 3.77274 22.2309 3.29787 21.938 3.00498L20.5238 1.59076C20.2309 1.29787 19.756 1.29787 19.4631 1.59076ZM8.0819 13.1905L6.95372 16.5751L10.3383 15.4469L8.0819 13.1905Z" fill="black"/>
<path d="M21.5 9.38801C21.5 8.41696 21.5 7.64619 21.463 7.01512L20.9835 7.49455C20.9999 8.02035 21 8.64297 21 9.39977V16.5998C21 17.724 20.9998 18.5521 20.9463 19.2066C20.8931 19.8582 20.7883 20.3155 20.5913 20.7022C20.2317 21.4078 19.6581 21.9815 18.9525 22.341C18.5658 22.5381 18.1084 22.6429 17.4568 22.6961C16.8024 22.7496 15.9742 22.7498 14.85 22.7498H7.65C6.52577 22.7498 5.69763 22.7496 5.04317 22.6961C4.39162 22.6429 3.93424 22.5381 3.54753 22.341C2.84193 21.9815 2.26825 21.4078 1.90873 20.7022C1.71169 20.3155 1.6069 19.8582 1.55367 19.2066C1.50019 18.5521 1.5 17.724 1.5 16.5998V9.39977C1.5 8.27554 1.50019 7.4474 1.55367 6.79294C1.6069 6.14139 1.71169 5.68401 1.90873 5.29731C2.26825 4.5917 2.84193 4.01802 3.54753 3.6585C3.93424 3.46146 4.39162 3.35667 5.04317 3.30344C5.69763 3.24996 6.52577 3.24977 7.65 3.24977H14.85C15.0159 3.24977 15.1753 3.24977 15.3286 3.24995L15.8272 2.75145C15.529 2.74977 15.208 2.74977 14.8616 2.74977H7.63836C6.52809 2.74977 5.67963 2.74977 5.00245 2.8051C4.31998 2.86086 3.78948 2.97406 3.32054 3.21299C2.52085 3.62045 1.87068 4.27062 1.46322 5.07031C1.22429 5.53925 1.11109 6.06975 1.05533 6.75222C1 7.42938 1 8.2778 1 9.38801V16.6114C1 17.7216 1 18.5702 1.05533 19.2473C1.11109 19.9298 1.22429 20.4603 1.46322 20.9292C1.87068 21.7289 2.52085 22.3791 3.32054 22.7865C3.78948 23.0255 4.31998 23.1387 5.00245 23.1944C5.67961 23.2498 6.52803 23.2498 7.63823 23.2498H14.8616C15.9719 23.2498 16.8204 23.2498 17.4976 23.1944C18.18 23.1387 18.7105 23.0255 19.1795 22.7865C19.9791 22.3791 20.6293 21.7289 21.0368 20.9292C21.2757 20.4603 21.3889 19.9298 21.4447 19.2473C21.5 18.5702 21.5 17.7217 21.5 16.6115V9.38801Z" fill="black"/>
</svg>
