<svg width="24" height="24" viewBox="0 0 24 24" fill="none" xmlns="http://www.w3.org/2000/svg">
<path fill-rule="evenodd" clip-rule="evenodd" d="M21.2309 0.883901C20.5475 0.200484 19.4394 0.200483 18.756 0.883901C14.9848 4.65514 11.2136 8.42645 7.44232 12.1976C7.33331 12.3066 7.26487 12.4408 7.237 12.5815C7.2184 12.6251 7.20154 12.6696 7.18649 12.7147L6.00504 16.2591C5.74445 17.0408 6.48819 17.7846 7.26995 17.524L10.8143 16.3425C10.8595 16.3275 10.9039 16.3106 10.9475 16.292C11.0882 16.2641 11.2224 16.1957 11.3314 16.0867C15.1026 12.3154 18.8739 8.54422 22.6451 4.77299C23.3285 4.08957 23.3285 2.98153 22.6451 2.29811L21.2309 0.883901ZM9.03331 12.7279L17.8721 3.8891L19.6399 5.65687L10.8011 14.4957L9.03331 12.7279ZM19.8167 1.94456L18.9328 2.82844L20.7006 4.59621L21.5845 3.71233C21.6821 3.6147 21.6821 3.45641 21.5845 3.35877L20.1702 1.94456C20.0726 1.84693 19.9143 1.84693 19.8167 1.94456ZM8.30041 14.1164L7.74429 15.7847L9.41265 15.2286L8.30041 14.1164Z" fill="black"/>
<path d="M22 9.36699C22 8.67691 22 8.07731 21.9856 7.55337L20.4999 9.03909L20.5 16.6C20.5 17.7325 20.4994 18.5367 20.448 19.1661C20.3973 19.7868 20.3009 20.171 20.1458 20.4755C19.8342 21.087 19.337 21.5842 18.7255 21.8958C18.421 22.0509 18.0367 22.1473 17.4161 22.198C16.7867 22.2494 15.9825 22.25 14.85 22.25H7.65C6.51752 22.25 5.71326 22.2494 5.08388 22.198C4.46325 22.1473 4.079 22.0509 3.77453 21.8958C3.163 21.5842 2.66582 21.087 2.35423 20.4755C2.19909 20.171 2.10271 19.7868 2.05201 19.1661C2.00058 18.5367 2 17.7325 2 16.6V9.40001C2 8.26753 2.00058 7.46328 2.05201 6.8339C2.10271 6.21327 2.19909 5.82902 2.35423 5.52455C2.66582 4.91302 3.163 4.41583 3.77453 4.10424C4.079 3.94911 4.46325 3.85273 5.08388 3.80202C5.71326 3.7506 6.51752 3.75001 7.65 3.75001H13.7682L15.2681 2.25011L7.617 2.25001C6.52485 2.25001 5.65936 2.25 4.96173 2.307C4.24834 2.36529 3.64472 2.4869 3.09355 2.76773C2.19978 3.22313 1.47312 3.94979 1.01772 4.84356C0.736881 5.39473 0.615275 5.99836 0.556988 6.71175C0.499991 7.40937 0.499994 8.27487 0.5 9.36701V16.633C0.499994 17.7252 0.499991 18.5907 0.556988 19.2883C0.615275 20.0017 0.736881 20.6053 1.01772 21.1565C1.47312 22.0502 2.19978 22.7769 3.09355 23.2323C3.64472 23.5131 4.24834 23.6347 4.96173 23.693C5.65935 23.75 6.52484 23.75 7.61698 23.75H14.883C15.9752 23.75 16.8406 23.75 17.5383 23.693C18.2517 23.6347 18.8553 23.5131 19.4065 23.2323C20.3002 22.7769 21.0269 22.0502 21.4823 21.1565C21.7631 20.6053 21.8847 20.0017 21.943 19.2883C22 18.5907 22 17.7252 22 16.633V9.36699Z" fill="black"/>
</svg>
