<svg width="24" height="25" viewBox="0 0 24 25" fill="none" xmlns="http://www.w3.org/2000/svg">
<path fill-rule="evenodd" clip-rule="evenodd" d="M21.5845 0.65901C20.7058 -0.21967 19.2812 -0.21967 18.4025 0.65901L7.25569 11.8058C7.22385 11.8376 7.19301 11.8704 7.16323 11.904C7.13771 11.9257 7.11287 11.9486 7.08877 11.9727C6.92086 12.1406 6.8107 12.3444 6.7583 12.5594C6.74169 12.6008 6.7263 12.6428 6.71215 12.6853L5.5307 16.2296C5.13982 17.4023 6.25542 18.5179 7.42806 18.127L10.9724 16.9455C11.0149 16.9314 11.0568 16.916 11.0983 16.8994C11.3133 16.847 11.517 16.7368 11.685 16.5689C11.7091 16.5448 11.732 16.52 11.7537 16.4945C11.7873 16.4647 11.82 16.4338 11.8519 16.402L22.9987 5.2552C23.8773 4.37652 23.8773 2.9519 22.9987 2.07322L21.5845 0.65901ZM9.74042 12.8566L17.8721 4.72487L18.9328 5.78553L10.8011 13.9173L9.74042 12.8566ZM19.6399 2.95711L20.7006 4.01777L21.0541 3.66421L19.9935 2.60355L19.6399 2.95711Z" fill="black"/>
<path d="M22.5 9.47649C22.5 9.02915 22.5 8.61517 22.4958 8.23252L20 10.7283V16.7287C20 17.8694 19.999 18.6498 19.9497 19.2541C19.9015 19.8438 19.8135 20.1549 19.7003 20.3771C19.4366 20.8946 19.0159 21.3153 18.4985 21.5789C18.2762 21.6922 17.9651 21.7801 17.3754 21.8283C16.7711 21.8777 15.9907 21.8787 14.85 21.8787H7.65C6.50927 21.8787 5.7289 21.8777 5.1246 21.8283C4.53489 21.7801 4.22376 21.6922 4.00153 21.5789C3.48408 21.3153 3.06338 20.8946 2.79973 20.3771C2.6865 20.1549 2.59853 19.8438 2.55034 19.2541C2.50097 18.6498 2.5 17.8694 2.5 16.7287V9.52868C2.5 8.38795 2.50097 7.60757 2.55034 7.00327C2.59853 6.41357 2.6865 6.10244 2.79973 5.8802C3.06338 5.36276 3.48408 4.94206 4.00153 4.67841C4.22376 4.56517 4.53489 4.4772 5.1246 4.42902C5.7289 4.37965 6.50927 4.37868 7.65 4.37868H12.2075L14.7075 1.87868H7.59791C6.52207 1.87866 5.63918 1.87865 4.92102 1.93732C4.17671 1.99814 3.49996 2.12815 2.86655 2.45089C1.8787 2.95423 1.07555 3.75738 0.572217 4.74523C0.249478 5.37863 0.119462 6.05539 0.0586476 6.79969C-2.81185e-05 7.51784 -1.47682e-05 8.40069 4.90598e-07 9.4765V16.7808C-1.47682e-05 17.8566 -2.81185e-05 18.7395 0.0586476 19.4577C0.119462 20.202 0.249478 20.8787 0.572217 21.5121C1.07555 22.5 1.8787 23.3031 2.86655 23.8065C3.49996 24.1292 4.17671 24.2592 4.92102 24.32C5.63913 24.3787 6.52194 24.3787 7.59769 24.3787H14.9021C15.9779 24.3787 16.8609 24.3787 17.579 24.32C18.3233 24.2592 19 24.1292 19.6334 23.8065C20.6213 23.3031 21.4244 22.5 21.9278 21.5121C22.2505 20.8787 22.3805 20.202 22.4414 19.4577C22.5 18.7395 22.5 17.8567 22.5 16.7809V9.47649Z" fill="black"/>
</svg>
