<svg width="24" height="24" viewBox="0 0 24 24" fill="none" xmlns="http://www.w3.org/2000/svg">
<path d="M19.1096 1.23721C19.5977 0.749055 20.3892 0.749055 20.8773 1.23721L22.2916 2.65142C22.7797 3.13958 22.7797 3.93104 22.2916 4.41919L21.231 5.47974L18.049 2.29776L19.1096 1.23721Z" fill="black"/>
<path d="M17.3419 3.00486L20.5239 6.18684L11.3313 15.3794L8.14934 12.1975L17.3419 3.00486Z" fill="black"/>
<path d="M7.59819 13.0605L6.47938 16.4169C6.34909 16.8078 6.72095 17.1797 7.11183 17.0494L10.4683 15.9306L7.59819 13.0605Z" fill="black"/>
<path d="M21.4447 6.75222L21.439 6.68554L11.735 16.3895C11.7324 16.3922 11.7043 16.4206 11.6734 16.4486C11.5374 16.572 11.3798 16.6694 11.2086 16.7359C11.1698 16.7509 11.1322 16.7633 11.1285 16.7645L7.51901 17.9676C7.48463 17.9791 7.4345 17.9958 7.38948 18.0092C7.34872 18.0213 7.23187 18.0561 7.087 18.0691C6.15569 18.1524 5.37593 17.3727 5.45927 16.4413C5.47224 16.2965 5.507 16.1796 5.51913 16.1389C5.53258 16.0937 5.54926 16.0437 5.56074 16.0093L6.7638 12.4002C6.76492 12.3967 6.77735 12.3587 6.79248 12.3197C6.85897 12.1485 6.95633 11.991 7.07972 11.8549C7.10777 11.824 7.136 11.7961 7.13865 11.7935L16.1777 2.75442C15.7842 2.74977 15.3481 2.74977 14.8616 2.74977H7.63836C6.52809 2.74977 5.67963 2.74977 5.00245 2.8051C4.31998 2.86086 3.78948 2.97406 3.32054 3.21299C2.52085 3.62045 1.87068 4.27062 1.46322 5.07031C1.22429 5.53925 1.11109 6.06975 1.05533 6.75222C1 7.42938 1 8.2778 1 9.38801V16.6114C1 17.7216 1 18.5702 1.05533 19.2473C1.11109 19.9298 1.22429 20.4603 1.46322 20.9292C1.87068 21.7289 2.52085 22.3791 3.32054 22.7865C3.78948 23.0255 4.31998 23.1387 5.00245 23.1944C5.67961 23.2498 6.52803 23.2498 7.63823 23.2498H14.8616C15.9719 23.2498 16.8204 23.2498 17.4976 23.1944C18.18 23.1387 18.7105 23.0255 19.1795 22.7865C19.9791 22.3791 20.6293 21.7289 21.0368 20.9292C21.2757 20.4603 21.3889 19.9298 21.4447 19.2473C21.5 18.5702 21.5 17.7217 21.5 16.6115V9.38812C21.5 8.27791 21.5 7.42938 21.4447 6.75222Z" fill="black"/>
</svg>
