<svg width="24" height="26" viewBox="0 0 24 26" fill="none" xmlns="http://www.w3.org/2000/svg">
<path fill-rule="evenodd" clip-rule="evenodd" d="M21.5845 1.5301C20.7058 0.651424 19.2812 0.651424 18.4025 1.5301L7.25569 12.6769C7.22385 12.7087 7.19301 12.7415 7.16323 12.7751C7.13771 12.7968 7.11287 12.8197 7.08877 12.8438C6.92086 13.0117 6.8107 13.2155 6.7583 13.4305C6.74169 13.4719 6.7263 13.5139 6.71215 13.5564L5.5307 17.1007C5.13982 18.2733 6.25542 19.389 7.42806 18.9981L10.9724 17.8166C11.0149 17.8025 11.0568 17.7871 11.0983 17.7705C11.3133 17.7181 11.517 17.6079 11.685 17.44C11.7091 17.4159 11.732 17.3911 11.7537 17.3655C11.7873 17.3358 11.82 17.3049 11.8519 17.2731L22.9987 6.1263C23.8773 5.24762 23.8773 3.823 22.9987 2.94432L21.5845 1.5301ZM9.74042 13.7277L17.8721 5.59597L18.9328 6.65663L10.8011 14.7884L9.74042 13.7277ZM19.6399 3.8282L20.7006 4.88886L21.0541 4.53531L19.9935 3.47465L19.6399 3.8282Z" fill="black"/>
<path d="M22.5 10.3476C22.5 9.90024 22.5 9.48627 22.4958 9.10362L20 11.5994V17.5998C20 18.7405 19.999 19.5209 19.9497 20.1252C19.9015 20.7149 19.8135 21.026 19.7003 21.2482C19.4366 21.7657 19.0159 22.1864 18.4985 22.45C18.2762 22.5633 17.9651 22.6512 17.3754 22.6994C16.7711 22.7488 15.9907 22.7498 14.85 22.7498H7.65C6.50927 22.7498 5.7289 22.7488 5.1246 22.6994C4.53489 22.6512 4.22376 22.5633 4.00153 22.45C3.48408 22.1864 3.06338 21.7657 2.79973 21.2482C2.6865 21.026 2.59853 20.7149 2.55034 20.1252C2.50097 19.5209 2.5 18.7405 2.5 17.5998V10.3998C2.5 9.25904 2.50097 8.47867 2.55034 7.87437C2.59853 7.28466 2.6865 6.97354 2.79973 6.7513C3.06338 6.23385 3.48408 5.81315 4.00153 5.5495C4.22376 5.43627 4.53489 5.3483 5.1246 5.30012C5.7289 5.25074 6.50927 5.24977 7.65 5.24977H12.2075L14.7075 2.74977H7.59791C6.52207 2.74975 5.63918 2.74974 4.92102 2.80842C4.17671 2.86923 3.49996 2.99925 2.86655 3.32199C1.8787 3.82532 1.07555 4.62847 0.572217 5.61632C0.249478 6.24973 0.119462 6.92648 0.0586476 7.67079C-2.81185e-05 8.38893 -1.47682e-05 9.27179 4.90598e-07 10.3476V17.6519C-1.47682e-05 18.7277 -2.81185e-05 19.6106 0.0586476 20.3288C0.119462 21.0731 0.249478 21.7498 0.572217 22.3832C1.07555 23.3711 1.8787 24.1742 2.86655 24.6776C3.49996 25.0003 4.17671 25.1303 4.92102 25.1911C5.63913 25.2498 6.52194 25.2498 7.59769 25.2498H14.9021C15.9779 25.2498 16.8609 25.2498 17.579 25.1911C18.3233 25.1303 19 25.0003 19.6334 24.6776C20.6213 24.1742 21.4244 23.3711 21.9278 22.3832C22.2505 21.7498 22.3805 21.0731 22.4414 20.3288C22.5 19.6106 22.5 18.7278 22.5 17.652V10.3476Z" fill="black"/>
</svg>
