<svg width="24" height="26" viewBox="0 0 24 26" fill="none" xmlns="http://www.w3.org/2000/svg">
<path d="M13.0707 23.8402C14.4193 23.6774 15.6647 23.1791 16.7207 22.4312C16.8334 22.3685 16.9396 22.2901 17.0362 22.1959C17.2119 22.058 17.3817 21.913 17.5451 21.7612C19.1804 20.5852 21.4931 20.8081 22.8653 22.3763L22.9407 22.4625C23.3953 22.982 23.3427 23.7717 22.8232 24.2263C22.3036 24.681 21.5139 24.6283 21.0593 24.1088L20.9839 24.0226C20.4185 23.3764 19.4244 23.3433 18.8173 23.9505C17.2614 25.5064 14.7387 25.5064 13.1827 23.9505L13.1161 23.8839C13.1012 23.8689 13.086 23.8544 13.0707 23.8402Z" fill="black"/>
<path d="M20.9839 19.0228C20.6398 18.6295 20.1368 18.4634 19.659 18.5304C19.9332 17.7433 20.0878 16.9002 20.1012 16.0228C21.1266 16.0831 22.1307 16.537 22.8653 17.3765L22.9407 17.4627C23.3953 17.9823 23.3427 18.772 22.8232 19.2266C22.3036 19.6812 21.5139 19.6286 21.0593 19.109L20.9839 19.0228Z" fill="black"/>
<path d="M1.13474 17.3765C1.918 16.4814 3.00772 16.0246 4.10297 16.0161C4.11594 16.9139 4.27681 17.776 4.56232 18.5789C4.02413 18.417 3.41402 18.5681 3.01616 19.0228L2.94073 19.109C2.48612 19.6286 1.69641 19.6812 1.17687 19.2266C0.657333 18.772 0.604698 17.9823 1.05931 17.4627L1.13474 17.3765Z" fill="black"/>
<path d="M6.95048 22.1827C7.16795 22.4002 7.43611 22.536 7.71693 22.5903C8.67341 23.2184 9.77262 23.6469 10.9554 23.8166C10.931 23.8382 10.9072 23.8606 10.8839 23.8839L10.8173 23.9505C9.26137 25.5064 6.73867 25.5064 5.18271 23.9504C4.5756 23.3433 3.58155 23.3764 3.01616 24.0226L2.94073 24.1088C2.48612 24.6283 1.69641 24.681 1.17687 24.2263C0.657333 23.7717 0.604698 22.982 1.05931 22.4625L1.13474 22.3763C2.65245 20.6418 5.32078 20.553 6.95048 22.1827Z" fill="black"/>
<path d="M12.1022 17.3983C12.9307 17.3983 13.6022 16.7267 13.6022 15.8983C13.6022 15.0699 12.9307 14.3983 12.1022 14.3983C11.2738 14.3983 10.6022 15.0699 10.6022 15.8983C10.6022 16.7267 11.2738 17.3983 12.1022 17.3983Z" fill="black"/>
<path fill-rule="evenodd" clip-rule="evenodd" d="M12.1501 0.770508C9.80285 0.770508 7.90006 2.6733 7.90006 5.02051L7.90006 11.9729C6.94096 12.9994 6.35205 14.3811 6.35205 15.8979C6.35205 19.0736 8.92642 21.6479 12.102 21.6479C15.2777 21.6479 17.8521 19.0736 17.8521 15.898C17.8521 14.4326 17.3024 13.093 16.4001 12.0783V5.02051C16.4001 2.6733 14.4973 0.770508 12.1501 0.770508ZM10.4001 5.02051C10.4001 4.05401 11.1836 3.27051 12.1501 3.27051C13.1166 3.27051 13.9001 4.05401 13.9001 5.02051L13.9001 12.2366L13.8999 12.2586C13.8991 12.3431 13.8972 12.5558 13.944 12.7608C13.9842 12.9366 14.0449 13.0909 14.1351 13.2469C14.2411 13.4303 14.3995 13.5975 14.465 13.6667L14.4831 13.6859C15.0234 14.267 15.3521 15.0427 15.3521 15.898C15.3521 17.6929 13.897 19.1479 12.1021 19.1479C10.3071 19.1479 8.85205 17.6929 8.85205 15.8979C8.85205 15.013 9.20409 14.2128 9.77857 13.6255L9.7978 13.6061C9.8676 13.5361 10.0361 13.3671 10.1492 13.1794C10.2454 13.0197 10.3101 12.8609 10.353 12.6795C10.4032 12.4677 10.4011 12.2473 10.4002 12.1598L10.4001 12.137V5.02051Z" fill="black"/>
<path d="M18.5001 4.69383C17.9478 4.69383 17.5001 5.14155 17.5001 5.69383C17.5001 6.24612 17.9478 6.69383 18.5001 6.69383H22.1735C22.7258 6.69383 23.1735 6.24612 23.1735 5.69383C23.1735 5.14155 22.7258 4.69383 22.1735 4.69383L18.5001 4.69383Z" fill="black"/>
<path d="M18.5001 8.69383C17.9478 8.69383 17.5001 9.14155 17.5001 9.69383C17.5001 10.2461 17.9478 10.6938 18.5001 10.6938H21.3572C21.9094 10.6938 22.3572 10.2461 22.3572 9.69383C22.3572 9.14155 21.9094 8.69383 21.3572 8.69383H18.5001Z" fill="black"/>
</svg>
