<svg width="24" height="24" viewBox="0 0 24 24" fill="none" xmlns="http://www.w3.org/2000/svg">
<path d="M14.5303 21.4697C14.4141 21.3535 14.2919 21.247 14.1647 21.1501C13.516 21.364 12.8226 21.4797 12.1021 21.4797C11.3297 21.4797 10.5883 21.3467 9.89966 21.1022C9.74921 21.2115 9.60535 21.334 9.46968 21.4697L9.4031 21.5363C8.6282 22.3112 7.37183 22.3112 6.59692 21.5363C5.17174 20.1111 2.83826 20.1888 1.51102 21.7056L1.43559 21.7918C1.16282 22.1035 1.1944 22.5773 1.50612 22.8501C1.81785 23.1229 2.29167 23.0913 2.56444 22.7796L2.63987 22.6933C3.39572 21.8295 4.72463 21.7853 5.53626 22.5969C6.89695 23.9576 9.10307 23.9576 10.4638 22.5969L10.5303 22.5304C11.342 21.7187 12.658 21.7187 13.4697 22.5304L13.5363 22.5969C14.897 23.9576 17.1031 23.9576 18.4638 22.5969C19.2754 21.7853 20.6043 21.8295 21.3602 22.6933L21.4356 22.7796C21.7084 23.0913 22.1822 23.1229 22.4939 22.8501C22.8056 22.5773 22.8372 22.1035 22.5644 21.7918L22.489 21.7056C21.1618 20.1888 18.8283 20.1111 17.4031 21.5363C16.6282 22.3112 15.3718 22.3112 14.5969 21.5363L14.5303 21.4697Z" fill="black"/>
<path d="M18.4638 17.5972C18.279 17.7819 18.0787 17.9416 17.867 18.0762C18.2584 17.3676 18.523 16.5792 18.6302 15.7416C19.9461 15.2431 21.498 15.5733 22.489 16.7058L22.5644 16.792C22.8372 17.1037 22.8056 17.5776 22.4939 17.8503C22.1822 18.1231 21.7084 18.0915 21.4356 17.7798L21.3602 17.6936C20.6043 16.8298 19.2754 16.7855 18.4638 17.5972Z" fill="black"/>
<path d="M1.51102 16.7058C2.55689 15.5106 4.2276 15.2089 5.58631 15.8321C5.71016 16.704 6.00487 17.5208 6.43544 18.2477C6.11113 18.0847 5.80696 17.8679 5.53626 17.5972C4.72463 16.7855 3.39572 16.8298 2.63987 17.6936L2.56444 17.7798C2.29167 18.0915 1.81785 18.1231 1.50612 17.8503C1.1944 17.5776 1.16282 17.1037 1.43559 16.792L1.51102 16.7058Z" fill="black"/>
<path fill-rule="evenodd" clip-rule="evenodd" d="M8.90293 3.46945C8.90293 1.70272 10.3352 0.270508 12.1019 0.270508C13.8686 0.270508 15.3008 1.70272 15.3008 3.46945L15.3008 11.3854L15.3635 11.4447C16.2791 12.3097 16.852 13.5376 16.852 14.898C16.852 17.5213 14.7253 19.648 12.1019 19.648C9.47858 19.648 7.35193 17.5213 7.35193 14.898C7.35193 13.5376 7.92476 12.3098 8.84026 11.4448L8.90292 11.3855L8.90293 3.46945ZM12.1021 16.1483C12.7925 16.1483 13.3521 15.5887 13.3521 14.8983C13.3521 14.208 12.7925 13.6483 12.1021 13.6483C11.4118 13.6483 10.8521 14.208 10.8521 14.8983C10.8521 15.5887 11.4118 16.1483 12.1021 16.1483Z" fill="black"/>
<path d="M18.0002 3.94387C17.586 3.94387 17.2502 4.27965 17.2502 4.69387C17.2502 5.10808 17.586 5.44387 18.0002 5.44387H21.6736C22.0878 5.44387 22.4236 5.10808 22.4236 4.69387C22.4236 4.27965 22.0878 3.94387 21.6736 3.94387L18.0002 3.94387Z" fill="black"/>
<path d="M18.0002 6.94387C17.586 6.94387 17.2502 7.27965 17.2502 7.69387C17.2502 8.10808 17.586 8.44387 18.0002 8.44387H20.8573C21.2715 8.44387 21.6073 8.10808 21.6073 7.69387C21.6073 7.27965 21.2715 6.94387 20.8573 6.94387H18.0002Z" fill="black"/>
</svg>
