<svg width="24" height="24" viewBox="0 0 24 24" fill="none" xmlns="http://www.w3.org/2000/svg">
<path fill-rule="evenodd" clip-rule="evenodd" d="M12.5 1.25C12.6381 1.25 12.75 1.36193 12.75 1.5V5.75H19.5C20.1904 5.75 20.75 6.30964 20.75 7V9C20.75 9.69036 20.1904 10.25 19.5 10.25H12.75V13.75H16C16.6904 13.75 17.25 14.3096 17.25 15V17C17.25 17.6904 16.6904 18.25 16 18.25H12.75V22.5C12.75 22.6381 12.6381 22.75 12.5 22.75C12.3619 22.75 12.25 22.6381 12.25 22.5V18.25H9C8.30964 18.25 7.75 17.6904 7.75 17V15C7.75 14.3096 8.30964 13.75 9 13.75H12.25V10.25H5.5C4.80964 10.25 4.25 9.69036 4.25 9V7C4.25 6.30964 4.80964 5.75 5.5 5.75H12.25V1.5C12.25 1.36193 12.3619 1.25 12.5 1.25ZM5.5 6.25C5.08579 6.25 4.75 6.58579 4.75 7V9C4.75 9.41421 5.08579 9.75 5.5 9.75H19.5C19.9142 9.75 20.25 9.41421 20.25 9V7C20.25 6.58579 19.9142 6.25 19.5 6.25H5.5ZM8.25 15C8.25 14.5858 8.58579 14.25 9 14.25H16C16.4142 14.25 16.75 14.5858 16.75 15V17C16.75 17.4142 16.4142 17.75 16 17.75H9C8.58579 17.75 8.25 17.4142 8.25 17V15Z" fill="black"/>
</svg>
