<svg width="24" height="24" viewBox="0 0 24 24" fill="none" xmlns="http://www.w3.org/2000/svg">
<path fill-rule="evenodd" clip-rule="evenodd" d="M13 9.75C13.6904 9.75 14.25 10.3096 14.25 11V13C14.25 13.6904 13.6904 14.25 13 14.25H11C10.3096 14.25 9.75 13.6904 9.75 13V11C9.75 10.3096 10.3096 9.75 11 9.75H13ZM11 10.25C10.5858 10.25 10.25 10.5858 10.25 11V13C10.25 13.4142 10.5858 13.75 11 13.75H13C13.4142 13.75 13.75 13.4142 13.75 13V11C13.75 10.5858 13.4142 10.25 13 10.25H11Z" fill="black"/>
<path fill-rule="evenodd" clip-rule="evenodd" d="M4 0.75C4.69036 0.75 5.25 1.30964 5.25 2V2.5H9.75V2C9.75 1.30964 10.3096 0.75 11 0.75H13C13.6904 0.75 14.25 1.30964 14.25 2V2.5H18.75V2C18.75 1.30964 19.3096 0.75 20 0.75H22C22.6904 0.75 23.25 1.30964 23.25 2V4C23.25 4.69036 22.6904 5.25 22 5.25H21.5V9.75H22C22.6904 9.75 23.25 10.3096 23.25 11V13C23.25 13.6904 22.6904 14.25 22 14.25H21.5V18.75H22.5C22.9142 18.75 23.25 19.0858 23.25 19.5V22.5C23.25 22.9142 22.9142 23.25 22.5 23.25H19.5C19.0858 23.25 18.75 22.9142 18.75 22.5V21.5H14.25V22C14.25 22.6904 13.6904 23.25 13 23.25H11C10.3096 23.25 9.75 22.6904 9.75 22V21.5H5.25V22C5.25 22.6904 4.69036 23.25 4 23.25H2C1.30964 23.25 0.75 22.6904 0.75 22V20C0.75 19.3096 1.30964 18.75 2 18.75H2.5V14.25H2C1.30964 14.25 0.75 13.6904 0.75 13V11C0.75 10.3096 1.30964 9.75 2 9.75H2.5V5.25H2C1.30964 5.25 0.75 4.69036 0.75 4V2C0.75 1.30964 1.30964 0.75 2 0.75H4ZM2 19.25C1.58579 19.25 1.25 19.5858 1.25 20V22C1.25 22.4142 1.58579 22.75 2 22.75H4C4.41421 22.75 4.75 22.4142 4.75 22V20C4.75 19.5858 4.41421 19.25 4 19.25H2ZM11 19.25C10.5858 19.25 10.25 19.5858 10.25 20V22C10.25 22.4142 10.5858 22.75 11 22.75H13C13.4142 22.75 13.75 22.4142 13.75 22V20C13.75 19.5858 13.4142 19.25 13 19.25H11ZM19.5 19.25C19.3619 19.25 19.25 19.3619 19.25 19.5V22.5C19.25 22.6381 19.3619 22.75 19.5 22.75H22.5C22.6381 22.75 22.75 22.6381 22.75 22.5V19.5C22.75 19.3619 22.6381 19.25 22.5 19.25H19.5ZM5.25 3V4C5.25 4.69036 4.69036 5.25 4 5.25H3V9.75H4C4.69036 9.75 5.25 10.3096 5.25 11V13C5.25 13.6904 4.69036 14.25 4 14.25H3V18.75H4C4.69036 18.75 5.25 19.3096 5.25 20V21H9.75V20C9.75 19.3096 10.3096 18.75 11 18.75H13C13.6904 18.75 14.25 19.3096 14.25 20V21H18.75V19.5C18.75 19.0858 19.0858 18.75 19.5 18.75H21V14.25H20C19.3096 14.25 18.75 13.6904 18.75 13V11C18.75 10.3096 19.3096 9.75 20 9.75H21V5.25H20C19.3096 5.25 18.75 4.69036 18.75 4V3H14.25V4C14.25 4.69036 13.6904 5.25 13 5.25H11C10.3096 5.25 9.75 4.69036 9.75 4V3H5.25ZM2 10.25C1.58579 10.25 1.25 10.5858 1.25 11V13C1.25 13.4142 1.58579 13.75 2 13.75H4C4.41421 13.75 4.75 13.4142 4.75 13V11C4.75 10.5858 4.41421 10.25 4 10.25H2ZM20 10.25C19.5858 10.25 19.25 10.5858 19.25 11V13C19.25 13.4142 19.5858 13.75 20 13.75H22C22.4142 13.75 22.75 13.4142 22.75 13V11C22.75 10.5858 22.4142 10.25 22 10.25H20ZM2 1.25C1.58579 1.25 1.25 1.58579 1.25 2V4C1.25 4.41421 1.58579 4.75 2 4.75H4C4.41421 4.75 4.75 4.41421 4.75 4V2C4.75 1.58579 4.41421 1.25 4 1.25H2ZM11 1.25C10.5858 1.25 10.25 1.58579 10.25 2V4C10.25 4.41421 10.5858 4.75 11 4.75H13C13.4142 4.75 13.75 4.41421 13.75 4V2C13.75 1.58579 13.4142 1.25 13 1.25H11ZM20 1.25C19.5858 1.25 19.25 1.58579 19.25 2V4C19.25 4.41421 19.5858 4.75 20 4.75H22C22.4142 4.75 22.75 4.41421 22.75 4V2C22.75 1.58579 22.4142 1.25 22 1.25H20Z" fill="black"/>
</svg>
