<svg width="24" height="24" viewBox="0 0 24 24" fill="none" xmlns="http://www.w3.org/2000/svg">
<path d="M22 0.5C21.4477 0.5 21 0.947715 21 1.5V22.5C21 23.0523 21.4477 23.5 22 23.5C22.5523 23.5 23 23.0523 23 22.5V1.5C23 0.947715 22.5523 0.5 22 0.5Z" fill="black"/>
<path d="M18 7C18 6.44772 17.5523 6 17 6H2C1.44772 6 1 6.44772 1 7V9C1 9.55229 1.44772 10 2 10H17C17.5523 10 18 9.55229 18 9V7Z" fill="black"/>
<path d="M17 14C17.5523 14 18 14.4477 18 15V17C18 17.5523 17.5523 18 17 18H9C8.44771 18 8 17.5523 8 17V15C8 14.4477 8.44772 14 9 14H17Z" fill="black"/>
</svg>
