<svg width="24" height="24" viewBox="0 0 24 24" fill="none" xmlns="http://www.w3.org/2000/svg">
<path d="M4.5 18.5C5.05228 18.5 5.5 18.9477 5.5 19.5V22.5C5.5 23.0523 5.05228 23.5 4.5 23.5H1.5C0.947715 23.5 0.5 23.0523 0.5 22.5V19.5C0.5 18.9477 0.947715 18.5 1.5 18.5H4.5Z" fill="black"/>
<path d="M13.5 18.5C14.0523 18.5 14.5 18.9477 14.5 19.5V22.5C14.5 23.0523 14.0523 23.5 13.5 23.5H10.5C9.94771 23.5 9.5 23.0523 9.5 22.5V19.5C9.5 18.9477 9.94771 18.5 10.5 18.5H13.5Z" fill="black"/>
<path d="M22.5 18.5C23.0523 18.5 23.5 18.9477 23.5 19.5V22.5C23.5 23.0523 23.0523 23.5 22.5 23.5H19.5C18.9477 23.5 18.5 23.0523 18.5 22.5V19.5C18.5 18.9477 18.9477 18.5 19.5 18.5H22.5Z" fill="black"/>
<path d="M4.5 9.5C5.05228 9.5 5.5 9.94771 5.5 10.5V13.5C5.5 14.0523 5.05228 14.5 4.5 14.5H1.5C0.947715 14.5 0.5 14.0523 0.5 13.5V10.5C0.5 9.94771 0.947715 9.5 1.5 9.5H4.5Z" fill="black"/>
<path fill-rule="evenodd" clip-rule="evenodd" d="M13.5 9.5C14.0523 9.5 14.5 9.94771 14.5 10.5V13.5C14.5 14.0523 14.0523 14.5 13.5 14.5H10.5C9.94771 14.5 9.5 14.0523 9.5 13.5V10.5C9.5 9.94771 9.94771 9.5 10.5 9.5H13.5ZM10.5 13.5H13.5V10.5H10.5V13.5Z" fill="black"/>
<path d="M22.5 9.5C23.0523 9.5 23.5 9.94771 23.5 10.5V13.5C23.5 14.0523 23.0523 14.5 22.5 14.5H19.5C18.9477 14.5 18.5 14.0523 18.5 13.5V10.5C18.5 9.94771 18.9477 9.5 19.5 9.5H22.5Z" fill="black"/>
<path d="M4.5 0.5C5.05228 0.5 5.5 0.947715 5.5 1.5V4.5C5.5 5.05228 5.05228 5.5 4.5 5.5H1.5C0.947715 5.5 0.5 5.05228 0.5 4.5V1.5C0.5 0.947715 0.947715 0.5 1.5 0.5H4.5Z" fill="black"/>
<path d="M13.5 0.5C14.0523 0.5 14.5 0.947715 14.5 1.5V4.5C14.5 5.05228 14.0523 5.5 13.5 5.5H10.5C9.94771 5.5 9.5 5.05228 9.5 4.5V1.5C9.5 0.947715 9.94771 0.5 10.5 0.5H13.5Z" fill="black"/>
<path d="M22.5 0.5C23.0523 0.5 23.5 0.947715 23.5 1.5V4.5C23.5 5.05228 23.0523 5.5 22.5 5.5H19.5C18.9477 5.5 18.5 5.05228 18.5 4.5V1.5C18.5 0.947715 18.9477 0.5 19.5 0.5H22.5Z" fill="black"/>
</svg>
