<svg width="24" height="24" viewBox="0 0 24 24" fill="none" xmlns="http://www.w3.org/2000/svg">
<path fill-rule="evenodd" clip-rule="evenodd" d="M2.97254 1.25H13.5275C13.8217 1.25 14.0577 1.25 14.2486 1.26559C14.4447 1.28161 14.615 1.31534 14.772 1.39532C15.0229 1.52316 15.2268 1.72713 15.3547 1.97801C15.4347 2.135 15.4684 2.30534 15.4844 2.50144C15.5 2.6923 15.5 2.92831 15.5 3.22249V8.30465H20.5822C20.8764 8.30465 21.1124 8.30465 21.3033 8.32024C21.4994 8.33626 21.6697 8.36999 21.8267 8.44997C22.0776 8.57781 22.2816 8.78178 22.4094 9.03266C22.4894 9.18965 22.5231 9.35999 22.5392 9.55609C22.5547 9.74694 22.5547 9.98295 22.5547 10.2771V20.8321C22.5547 21.1263 22.5547 21.3624 22.5392 21.5532C22.5231 21.7493 22.4894 21.9197 22.4094 22.0766C22.2816 22.3275 22.0776 22.5315 21.8267 22.6593C21.6697 22.7393 21.4994 22.773 21.3033 22.7891C21.1124 22.8047 20.8764 22.8047 20.5823 22.8046H10.0273C9.73309 22.8047 9.49704 22.8047 9.30618 22.7891C9.11008 22.773 8.93974 22.7393 8.78275 22.6593C8.53187 22.5315 8.3279 22.3275 8.20007 22.0766C8.12008 21.9197 8.08635 21.7493 8.07033 21.5532C8.05474 21.3623 8.05474 21.1263 8.05474 20.8321V15.75H2.97253C2.67835 15.75 2.4423 15.75 2.25144 15.7344C2.05534 15.7184 1.885 15.6847 1.72801 15.6047C1.47713 15.4768 1.27316 15.2729 1.14532 15.022C1.06534 14.865 1.03161 14.6947 1.01559 14.4986C0.999996 14.3077 0.999998 14.0717 1 13.7775V3.22254C0.999998 2.92833 0.999996 2.69231 1.01559 2.50144C1.03161 2.30534 1.06534 2.135 1.14532 1.97801C1.27316 1.72713 1.47713 1.52316 1.72801 1.39532C1.885 1.31534 2.05534 1.28161 2.25144 1.26559C2.44231 1.25 2.67833 1.25 2.97254 1.25ZM15 3.23333V8.30465H10.0273C9.73307 8.30465 9.49705 8.30465 9.30618 8.32024C9.11008 8.33626 8.93974 8.36999 8.78275 8.44997C8.53187 8.57781 8.3279 8.78178 8.20007 9.03266C8.12008 9.18965 8.08635 9.35999 8.07033 9.55609C8.05474 9.74695 8.05474 9.98298 8.05474 10.2772V15.25H2.98333C2.67585 15.25 2.46027 15.2498 2.29216 15.2361C2.12697 15.2226 2.02976 15.1973 1.95501 15.1592C1.79821 15.0793 1.67072 14.9518 1.59083 14.795C1.55274 14.7202 1.52743 14.623 1.51393 14.4578C1.50019 14.2897 1.5 14.0742 1.5 13.7667V3.23333C1.5 2.92585 1.50019 2.71027 1.51393 2.54216C1.52743 2.37697 1.55274 2.27976 1.59083 2.20501C1.67072 2.04821 1.79821 1.92072 1.95501 1.84083C2.02976 1.80274 2.12697 1.77743 2.29216 1.76393C2.46027 1.75019 2.67585 1.75 2.98333 1.75H13.5167C13.8242 1.75 14.0397 1.75019 14.2078 1.76393C14.373 1.77743 14.4702 1.80274 14.545 1.84083C14.7018 1.92072 14.8293 2.04821 14.9092 2.20501C14.9473 2.27976 14.9726 2.37697 14.9861 2.54216C14.9998 2.71027 15 2.92585 15 3.23333ZM8.55474 15.0917L14.8418 8.80465H11.5489L8.55474 11.7988V15.0917ZM8.55474 11.0917L10.8418 8.80465H10.0381C9.73059 8.80465 9.51501 8.80484 9.3469 8.81858C9.18171 8.83208 9.0845 8.85739 9.00975 8.89548C8.85295 8.97537 8.72546 9.10286 8.64557 9.25966C8.60748 9.33441 8.58217 9.43162 8.56867 9.59681C8.55494 9.76492 8.55474 9.9805 8.55474 10.288V11.0917ZM15 9.35352L9.10352 15.25H12.3964L15 12.6464V9.35352ZM15 13.3535L13.1035 15.25H13.5167C13.8242 15.25 14.0397 15.2498 14.2078 15.2361C14.373 15.2226 14.4702 15.1973 14.545 15.1592C14.7018 15.0793 14.8293 14.9518 14.9092 14.795C14.9473 14.7202 14.9726 14.623 14.9861 14.4578C14.9998 14.2897 15 14.0742 15 13.7667V13.3535ZM8.55474 15.75V20.8213C8.55474 21.1288 8.55494 21.3444 8.56867 21.5125C8.58217 21.6777 8.60748 21.7749 8.64557 21.8496C8.72546 22.0064 8.85295 22.1339 9.00975 22.2138C9.0845 22.2519 9.18171 22.2772 9.3469 22.2907C9.51501 22.3045 9.73059 22.3046 10.0381 22.3046H20.5714C20.8789 22.3046 21.0945 22.3045 21.2626 22.2907C21.4278 22.2772 21.525 22.2519 21.5997 22.2138C21.7565 22.1339 21.884 22.0064 21.9639 21.8496C22.002 21.7749 22.0273 21.6777 22.0408 21.5125C22.0545 21.3444 22.0547 21.1288 22.0547 20.8213V10.288C22.0547 9.9805 22.0545 9.76492 22.0408 9.59681C22.0273 9.43162 22.002 9.33441 21.9639 9.25966C21.884 9.10286 21.7565 8.97537 21.5997 8.89548C21.525 8.85739 21.4278 8.83208 21.2626 8.81858C21.0945 8.80484 20.8789 8.80465 20.5714 8.80465H15.5V13.7775C15.5 14.0717 15.5 14.3077 15.4844 14.4986C15.4684 14.6947 15.4347 14.865 15.3547 15.022C15.2268 15.2729 15.0229 15.4768 14.772 15.6047C14.615 15.6847 14.4447 15.7184 14.2486 15.7344C14.0577 15.75 13.8217 15.75 13.5275 15.75H8.55474Z" fill="black"/>
</svg>
