<svg width="24" height="24" viewBox="0 0 24 24" fill="none" xmlns="http://www.w3.org/2000/svg">
<path d="M0.875 22.125C0.875 21.7108 1.21079 21.375 1.625 21.375H22.625C23.0392 21.375 23.375 21.7108 23.375 22.125C23.375 22.5392 23.0392 22.875 22.625 22.875H1.625C1.21079 22.875 0.875 22.5392 0.875 22.125Z" fill="black"/>
<path d="M7.125 18.125C6.57272 18.125 6.125 17.6773 6.125 17.125V2.125C6.125 1.57272 6.57272 1.125 7.125 1.125H9.125C9.67729 1.125 10.125 1.57272 10.125 2.125V17.125C10.125 17.6773 9.67729 18.125 9.125 18.125H7.125Z" fill="black"/>
<path d="M14.125 17.125C14.125 17.6773 14.5727 18.125 15.125 18.125H17.125C17.6773 18.125 18.125 17.6773 18.125 17.125V9.125C18.125 8.57271 17.6773 8.125 17.125 8.125H15.125C14.5727 8.125 14.125 8.57272 14.125 9.125V17.125Z" fill="black"/>
</svg>
