<svg width="24" height="24" viewBox="0 0 24 24" fill="none" xmlns="http://www.w3.org/2000/svg">
<path fill-rule="evenodd" clip-rule="evenodd" d="M3.21376 1C2.9271 0.999992 2.68225 0.999985 2.48109 1.01642C2.26952 1.03371 2.06262 1.07164 1.86452 1.17257C1.56659 1.32437 1.32437 1.56659 1.17257 1.86452C1.07164 2.06262 1.03371 2.26952 1.01642 2.48109C0.999985 2.68225 0.999992 2.92708 1 3.21375V13.7862C0.999992 14.0729 0.999985 14.3177 1.01642 14.5189C1.03371 14.7305 1.07164 14.9374 1.17257 15.1355C1.32437 15.4334 1.56659 15.6756 1.86452 15.8274C2.06262 15.9284 2.26952 15.9663 2.48109 15.9836C2.68225 16 2.92708 16 3.21373 16H8.05474V20.8409C8.05473 21.1276 8.05473 21.3724 8.07116 21.5736C8.08845 21.7851 8.12638 21.992 8.22732 22.1901C8.37911 22.4881 8.62133 22.7303 8.91926 22.8821C9.11736 22.983 9.32426 23.0209 9.53583 23.0382C9.73699 23.0547 9.98181 23.0547 10.2685 23.0546H20.841C21.1277 23.0547 21.3725 23.0547 21.5737 23.0382C21.7852 23.0209 21.9921 22.983 22.1902 22.8821C22.4881 22.7303 22.7304 22.4881 22.8822 22.1901C22.9831 21.992 23.021 21.7851 23.0383 21.5736C23.0548 21.3724 23.0548 21.1276 23.0547 20.8409V10.2684C23.0548 9.98175 23.0548 9.73689 23.0383 9.53574C23.021 9.32417 22.9831 9.11727 22.8822 8.91917C22.7304 8.62124 22.4881 8.37902 22.1902 8.22722C21.9921 8.12629 21.7852 8.08836 21.5737 8.07107C21.3725 8.05463 21.1277 8.05464 20.841 8.05465H16V3.21375C16 2.92709 16 2.68225 15.9836 2.48109C15.9663 2.26952 15.9284 2.06262 15.8274 1.86452C15.6756 1.56659 15.4334 1.32437 15.1355 1.17257C14.9374 1.07164 14.7305 1.03371 14.5189 1.01642C14.3177 0.999985 14.0729 0.999992 13.7863 1H3.21376ZM2.31851 2.06358C2.35214 2.04644 2.41279 2.02533 2.56252 2.0131C2.71808 2.00039 2.92172 2 3.23333 2H13.7667C14.0783 2 14.2819 2.00039 14.4375 2.0131C14.5872 2.02533 14.6479 2.04644 14.6815 2.06358C14.7913 2.11951 14.8805 2.20875 14.9364 2.31851C14.9536 2.35214 14.9747 2.41279 14.9869 2.56252C14.9996 2.71808 15 2.92172 15 3.23333V13.7667C15 14.0783 14.9996 14.2819 14.9869 14.4375C14.9747 14.5872 14.9536 14.6479 14.9364 14.6815C14.8805 14.7913 14.7913 14.8805 14.6815 14.9364C14.6479 14.9536 14.5872 14.9747 14.4375 14.9869C14.2819 14.9996 14.0783 15 13.7667 15H3.23333C2.92172 15 2.71808 14.9996 2.56252 14.9869C2.41279 14.9747 2.35214 14.9536 2.31851 14.9364C2.20875 14.8805 2.11951 14.7913 2.06358 14.6815C2.04644 14.6479 2.02533 14.5872 2.0131 14.4375C2.00039 14.2819 2 14.0783 2 13.7667V3.23333C2 2.92172 2.00039 2.71808 2.0131 2.56252C2.02533 2.41279 2.04644 2.35214 2.06358 2.31851C2.11951 2.20875 2.20875 2.11951 2.31851 2.06358Z" fill="black"/>
</svg>
