<svg width="24" height="24" viewBox="0 0 24 24" fill="none" xmlns="http://www.w3.org/2000/svg">
<path fill-rule="evenodd" clip-rule="evenodd" d="M13.5 9.75C13.9142 9.75 14.25 10.0858 14.25 10.5V13.5C14.25 13.9142 13.9142 14.25 13.5 14.25H10.5C10.0858 14.25 9.75 13.9142 9.75 13.5V10.5C9.75 10.0858 10.0858 9.75 10.5 9.75H13.5ZM10.5 10.25C10.3619 10.25 10.25 10.3619 10.25 10.5V13.5C10.25 13.6381 10.3619 13.75 10.5 13.75H13.5C13.6381 13.75 13.75 13.6381 13.75 13.5V10.5C13.75 10.3619 13.6381 10.25 13.5 10.25H10.5Z" fill="black"/>
<path fill-rule="evenodd" clip-rule="evenodd" d="M4.5 0.75C4.91421 0.75 5.25 1.08579 5.25 1.5V2.5H9.75V1.5C9.75 1.08579 10.0858 0.75 10.5 0.75H13.5C13.9142 0.75 14.25 1.08579 14.25 1.5V2.5H18.75V1.5C18.75 1.08579 19.0858 0.75 19.5 0.75H22.5C22.9142 0.75 23.25 1.08579 23.25 1.5V4.5C23.25 4.91421 22.9142 5.25 22.5 5.25H21.5V9.75H22.5C22.9142 9.75 23.25 10.0858 23.25 10.5V13.5C23.25 13.9142 22.9142 14.25 22.5 14.25H21.5V18.75H22.5C22.9142 18.75 23.25 19.0858 23.25 19.5V22.5C23.25 22.9142 22.9142 23.25 22.5 23.25H19.5C19.0858 23.25 18.75 22.9142 18.75 22.5V21.5H14.25V22.5C14.25 22.9142 13.9142 23.25 13.5 23.25H10.5C10.0858 23.25 9.75 22.9142 9.75 22.5V21.5H5.25V22.5C5.25 22.9142 4.91421 23.25 4.5 23.25H1.5C1.08579 23.25 0.75 22.9142 0.75 22.5V19.5C0.75 19.0858 1.08579 18.75 1.5 18.75H2.5V14.25H1.5C1.08579 14.25 0.75 13.9142 0.75 13.5V10.5C0.75 10.0858 1.08579 9.75 1.5 9.75H2.5V5.25H1.5C1.08579 5.25 0.75 4.91421 0.75 4.5V1.5C0.75 1.08579 1.08579 0.75 1.5 0.75H4.5ZM5.25 3V4.5C5.25 4.91421 4.91421 5.25 4.5 5.25H3V9.75H4.5C4.91421 9.75 5.25 10.0858 5.25 10.5V13.5C5.25 13.9142 4.91421 14.25 4.5 14.25H3V18.75H4.5C4.91421 18.75 5.25 19.0858 5.25 19.5V21H9.75V19.5C9.75 19.0858 10.0858 18.75 10.5 18.75H13.5C13.9142 18.75 14.25 19.0858 14.25 19.5V21H18.75V19.5C18.75 19.0858 19.0858 18.75 19.5 18.75H21V14.25H19.5C19.0858 14.25 18.75 13.9142 18.75 13.5V10.5C18.75 10.0858 19.0858 9.75 19.5 9.75H21V5.25H19.5C19.0858 5.25 18.75 4.91421 18.75 4.5V3H14.25V4.5C14.25 4.91421 13.9142 5.25 13.5 5.25H10.5C10.0858 5.25 9.75 4.91421 9.75 4.5V3H5.25Z" fill="black"/>
</svg>
