<svg width="24" height="24" viewBox="0 0 24 24" fill="none" xmlns="http://www.w3.org/2000/svg">
<path fill-rule="evenodd" clip-rule="evenodd" d="M3.19555 0.250004C3.20816 0.250006 3.22075 0.250008 3.23334 0.250008L13.8045 0.250004C14.0749 0.249962 14.3475 0.249921 14.58 0.268919C14.8379 0.289994 15.1545 0.340537 15.476 0.504325C15.915 0.72803 16.272 1.08499 16.4957 1.52403C16.6595 1.84548 16.71 2.16207 16.7311 2.42002C16.7501 2.65255 16.7501 2.92513 16.75 3.19557L16.75 7.30466L20.8592 7.30466C21.1296 7.30462 21.4022 7.30458 21.6347 7.32358C21.8926 7.34465 22.2092 7.39519 22.5307 7.55898C22.9697 7.78269 23.3267 8.13964 23.5504 8.57869C23.7142 8.90014 23.7647 9.21673 23.7858 9.47468C23.8048 9.70719 23.8047 9.97976 23.8047 10.2502V20.8591C23.8047 21.1296 23.8048 21.4021 23.7858 21.6347C23.7647 21.8926 23.7142 22.2092 23.5504 22.5306C23.3267 22.9697 22.9697 23.3266 22.5307 23.5503C22.2092 23.7141 21.8926 23.7647 21.6347 23.7858C21.4022 23.8048 21.1296 23.8047 20.8592 23.8047H10.2502C9.97979 23.8047 9.70722 23.8048 9.47471 23.7858C9.21676 23.7647 8.90017 23.7141 8.57872 23.5503C8.13967 23.3266 7.78272 22.9697 7.55901 22.5306C7.39522 22.2092 7.34468 21.8926 7.32361 21.6347C7.30461 21.4021 7.30465 21.1296 7.30469 20.8591L7.3047 16.75L3.19557 16.75C2.92513 16.7501 2.65255 16.7501 2.42002 16.7311C2.16207 16.71 1.84548 16.6595 1.52403 16.4957C1.08499 16.272 0.728031 15.915 0.504326 15.476C0.340537 15.1545 0.289994 14.8379 0.268919 14.58C0.249921 14.3475 0.249962 14.0749 0.250004 13.8045L0.250008 3.23334C0.250008 3.22075 0.250006 3.20816 0.250004 3.19555C0.249962 2.92512 0.249921 2.65254 0.268919 2.42002C0.289994 2.16207 0.340537 1.84548 0.504326 1.52403C0.72803 1.08499 1.08499 0.72803 1.52403 0.504326C1.84548 0.340537 2.16207 0.289994 2.42002 0.268919C2.65254 0.249921 2.92512 0.249962 3.19555 0.250004ZM2.75383 2.75383C2.75046 2.86331 2.75001 3.01182 2.75001 3.23334V13.7667C2.75001 13.9882 2.75046 14.1367 2.75383 14.2462C2.86331 14.2496 3.01182 14.25 3.23334 14.25H9.8047V20.8213C9.8047 21.0429 9.80515 21.1914 9.80852 21.3008C9.918 21.3042 10.0665 21.3047 10.288 21.3047H20.8214C21.0429 21.3047 21.1914 21.3042 21.3009 21.3008C21.3042 21.1914 21.3047 21.0429 21.3047 20.8213V10.288C21.3047 10.0665 21.3042 9.91796 21.3009 9.80849C21.1914 9.80512 21.0429 9.80466 20.8214 9.80466H14.25V3.23334C14.25 3.01182 14.2496 2.86331 14.2462 2.75383C14.1367 2.75046 13.9882 2.75001 13.7667 2.75001H3.23334C3.01182 2.75001 2.86331 2.75046 2.75383 2.75383Z" fill="black"/>
</svg>
