<svg width="24" height="24" viewBox="0 0 24 24" fill="none" xmlns="http://www.w3.org/2000/svg">
<path d="M1.25 22.5C1.25 22.0858 1.58579 21.75 2 21.75H23C23.4142 21.75 23.75 22.0858 23.75 22.5C23.75 22.9142 23.4142 23.25 23 23.25H2C1.58579 23.25 1.25 22.9142 1.25 22.5Z" fill="black"/>
<path fill-rule="evenodd" clip-rule="evenodd" d="M6.5 18.25C5.5335 18.25 4.75 17.4665 4.75 16.5V2.5C4.75 1.5335 5.5335 0.75 6.5 0.75H9.5C10.4665 0.75 11.25 1.5335 11.25 2.5V16.5C11.25 17.4665 10.4665 18.25 9.5 18.25H6.5ZM6.25 16.5C6.25 16.6381 6.36193 16.75 6.5 16.75H9.5C9.63807 16.75 9.75 16.6381 9.75 16.5V2.5C9.75 2.36193 9.63807 2.25 9.5 2.25H6.5C6.36193 2.25 6.25 2.36193 6.25 2.5V16.5Z" fill="black"/>
<path fill-rule="evenodd" clip-rule="evenodd" d="M13.75 16.5C13.75 17.4665 14.5335 18.25 15.5 18.25H18.5C19.4665 18.25 20.25 17.4665 20.25 16.5V9.5C20.25 8.5335 19.4665 7.75 18.5 7.75H15.5C14.5335 7.75 13.75 8.5335 13.75 9.5V16.5ZM15.5 16.75C15.3619 16.75 15.25 16.6381 15.25 16.5V9.5C15.25 9.36193 15.3619 9.25 15.5 9.25H18.5C18.6381 9.25 18.75 9.36193 18.75 9.5V16.5C18.75 16.6381 18.6381 16.75 18.5 16.75H15.5Z" fill="black"/>
</svg>
