<svg width="24" height="24" viewBox="0 0 24 24" fill="none" xmlns="http://www.w3.org/2000/svg">
<path d="M22 1.25C21.8619 1.25 21.75 1.36193 21.75 1.5V22.5C21.75 22.6381 21.8619 22.75 22 22.75C22.1381 22.75 22.25 22.6381 22.25 22.5V1.5C22.25 1.36193 22.1381 1.25 22 1.25Z" fill="black"/>
<path fill-rule="evenodd" clip-rule="evenodd" d="M16 6C16.5523 6 17 6.44772 17 7V9C17 9.55228 16.5523 10 16 10H2C1.44772 10 1 9.55228 1 9V7C1 6.44772 1.44772 6 2 6H16ZM2 6.5H16C16.2761 6.5 16.5 6.72386 16.5 7V9C16.5 9.27614 16.2761 9.5 16 9.5H2C1.72386 9.5 1.5 9.27614 1.5 9V7C1.5 6.72386 1.72386 6.5 2 6.5Z" fill="black"/>
<path fill-rule="evenodd" clip-rule="evenodd" d="M17 15C17 14.4477 16.5523 14 16 14H9C8.44771 14 8 14.4477 8 15V17C8 17.5523 8.44771 18 9 18H16C16.5523 18 17 17.5523 17 17V15ZM16 14.5H9C8.72386 14.5 8.5 14.7239 8.5 15V17C8.5 17.2761 8.72386 17.5 9 17.5H16C16.2761 17.5 16.5 17.2761 16.5 17V15C16.5 14.7239 16.2761 14.5 16 14.5Z" fill="black"/>
</svg>
