<svg width="24" height="24" viewBox="0 0 24 24" fill="none" xmlns="http://www.w3.org/2000/svg">
<path d="M0.125 21.875C0.125 21.1846 0.684644 20.625 1.375 20.625H22.375C23.0654 20.625 23.625 21.1846 23.625 21.875C23.625 22.5654 23.0654 23.125 22.375 23.125H1.375C0.684644 23.125 0.125 22.5654 0.125 21.875Z" fill="black"/>
<path d="M6.875 17.875C6.32272 17.875 5.875 17.4273 5.875 16.875V1.875C5.875 1.32272 6.32272 0.875 6.875 0.875H8.875C9.42729 0.875 9.875 1.32272 9.875 1.875V16.875C9.875 17.4273 9.42729 17.875 8.875 17.875H6.875Z" fill="black"/>
<path d="M13.875 16.875C13.875 17.4273 14.3227 17.875 14.875 17.875H16.875C17.4273 17.875 17.875 17.4273 17.875 16.875V8.875C17.875 8.32271 17.4273 7.875 16.875 7.875H14.875C14.3227 7.875 13.875 8.32272 13.875 8.875V16.875Z" fill="black"/>
</svg>
