<svg width="24" height="24" viewBox="0 0 24 24" fill="none" xmlns="http://www.w3.org/2000/svg">
<path d="M22 0.75C21.5858 0.75 21.25 1.08579 21.25 1.5V22.5C21.25 22.9142 21.5858 23.25 22 23.25C22.4142 23.25 22.75 22.9142 22.75 22.5V1.5C22.75 1.08579 22.4142 0.75 22 0.75Z" fill="black"/>
<path fill-rule="evenodd" clip-rule="evenodd" d="M17.75 6C17.75 5.0335 16.9665 4.25 16 4.25H2C1.0335 4.25 0.25 5.0335 0.25 6V9C0.25 9.9665 1.0335 10.75 2 10.75H16C16.9665 10.75 17.75 9.9665 17.75 9V6ZM16 5.75C16.1381 5.75 16.25 5.86193 16.25 6V9C16.25 9.13807 16.1381 9.25 16 9.25H2C1.86193 9.25 1.75 9.13807 1.75 9V6C1.75 5.86193 1.86193 5.75 2 5.75H16Z" fill="black"/>
<path fill-rule="evenodd" clip-rule="evenodd" d="M16 13.25C16.9665 13.25 17.75 14.0335 17.75 15V18C17.75 18.9665 16.9665 19.75 16 19.75H9C8.0335 19.75 7.25 18.9665 7.25 18V15C7.25 14.0335 8.0335 13.25 9 13.25H16ZM16.25 15C16.25 14.8619 16.1381 14.75 16 14.75H9C8.86193 14.75 8.75 14.8619 8.75 15V18C8.75 18.1381 8.86193 18.25 9 18.25H16C16.1381 18.25 16.25 18.1381 16.25 18V15Z" fill="black"/>
</svg>
