<svg width="24" height="24" viewBox="0 0 24 24" fill="none" xmlns="http://www.w3.org/2000/svg">
<path d="M4.5 18.25C5.19036 18.25 5.75 18.8096 5.75 19.5V22.5C5.75 23.1904 5.19036 23.75 4.5 23.75H1.5C0.809644 23.75 0.25 23.1904 0.25 22.5V19.5C0.25 18.8096 0.809644 18.25 1.5 18.25H4.5Z" fill="black"/>
<path d="M13.5 18.25C14.1904 18.25 14.75 18.8096 14.75 19.5V22.5C14.75 23.1904 14.1904 23.75 13.5 23.75H10.5C9.80964 23.75 9.25 23.1904 9.25 22.5V19.5C9.25 18.8096 9.80964 18.25 10.5 18.25H13.5Z" fill="black"/>
<path d="M22.5 18.25C23.1904 18.25 23.75 18.8096 23.75 19.5V22.5C23.75 23.1904 23.1904 23.75 22.5 23.75H19.5C18.8096 23.75 18.25 23.1904 18.25 22.5V19.5C18.25 18.8096 18.8096 18.25 19.5 18.25H22.5Z" fill="black"/>
<path d="M4.5 9.25C5.19036 9.25 5.75 9.80964 5.75 10.5V13.5C5.75 14.1904 5.19036 14.75 4.5 14.75H1.5C0.809644 14.75 0.25 14.1904 0.25 13.5V10.5C0.25 9.80964 0.809644 9.25 1.5 9.25H4.5Z" fill="black"/>
<path fill-rule="evenodd" clip-rule="evenodd" d="M13.5 9.25C14.1904 9.25 14.75 9.80964 14.75 10.5V13.5C14.75 14.1904 14.1904 14.75 13.5 14.75H10.5C9.80964 14.75 9.25 14.1904 9.25 13.5V10.5C9.25 9.80964 9.80964 9.25 10.5 9.25H13.5ZM10.75 13.25H13.25V10.75H10.75V13.25Z" fill="black"/>
<path d="M22.5 9.25C23.1904 9.25 23.75 9.80964 23.75 10.5V13.5C23.75 14.1904 23.1904 14.75 22.5 14.75H19.5C18.8096 14.75 18.25 14.1904 18.25 13.5V10.5C18.25 9.80964 18.8096 9.25 19.5 9.25H22.5Z" fill="black"/>
<path d="M4.5 0.25C5.19036 0.25 5.75 0.809644 5.75 1.5V4.5C5.75 5.19036 5.19036 5.75 4.5 5.75H1.5C0.809644 5.75 0.25 5.19036 0.25 4.5V1.5C0.25 0.809644 0.809644 0.25 1.5 0.25H4.5Z" fill="black"/>
<path d="M13.5 0.25C14.1904 0.25 14.75 0.809644 14.75 1.5V4.5C14.75 5.19036 14.1904 5.75 13.5 5.75H10.5C9.80964 5.75 9.25 5.19036 9.25 4.5V1.5C9.25 0.809644 9.80964 0.25 10.5 0.25H13.5Z" fill="black"/>
<path d="M22.5 0.25C23.1904 0.25 23.75 0.809644 23.75 1.5V4.5C23.75 5.19036 23.1904 5.75 22.5 5.75H19.5C18.8096 5.75 18.25 5.19036 18.25 4.5V1.5C18.25 0.809644 18.8096 0.25 19.5 0.25H22.5Z" fill="black"/>
</svg>
