<svg width="24" height="24" viewBox="0 0 24 24" fill="none" xmlns="http://www.w3.org/2000/svg">
<path fill-rule="evenodd" clip-rule="evenodd" d="M13.5 9C14.3284 9 15 9.67157 15 10.5V13.5C15 14.3284 14.3284 15 13.5 15H10.5C9.67157 15 9 14.3284 9 13.5V10.5C9 9.67157 9.67157 9 10.5 9H13.5ZM11 13H13V11H11V13Z" fill="black"/>
<path fill-rule="evenodd" clip-rule="evenodd" d="M4.5 0C5.32843 0 6 0.671573 6 1.5V2H9V1.5C9 0.671573 9.67157 0 10.5 0H13.5C14.3284 5.96046e-08 15 0.671573 15 1.5V2H18V1.5C18 0.671573 18.6716 0 19.5 0H22.5C23.3284 0 24 0.671573 24 1.5V4.5C24 5.32843 23.3284 6 22.5 6H22V9H22.5C23.3284 9 24 9.67157 24 10.5V13.5C24 14.3284 23.3284 15 22.5 15H22V18H22.5C23.3284 18 24 18.6716 24 19.5V22.5C24 23.3284 23.3284 24 22.5 24H19.5C18.6716 24 18 23.3284 18 22.5V22H15V22.5C15 23.3284 14.3284 24 13.5 24H10.5C9.67157 24 9 23.3284 9 22.5V22H6V22.5C6 23.3284 5.32843 24 4.5 24H1.5C0.671573 24 0 23.3284 0 22.5V19.5C0 18.6716 0.671573 18 1.5 18H2V15H1.5C0.671573 15 0 14.3284 0 13.5V10.5C0 9.67157 0.671573 9 1.5 9H2V6H1.5C0.671573 6 0 5.32843 0 4.5V1.5C0 0.671573 0.671573 0 1.5 0H4.5ZM6 4V4.5C6 5.32843 5.32843 6 4.5 6H4V9H4.5C5.32843 9 6 9.67157 6 10.5V13.5C6 14.3284 5.32843 15 4.5 15H4V18H4.5C5.32843 18 6 18.6716 6 19.5V20H9V19.5C9 18.6716 9.67157 18 10.5 18H13.5C14.3284 18 15 18.6716 15 19.5V20H18V19.5C18 18.6716 18.6716 18 19.5 18H20V15H19.5C18.6716 15 18 14.3284 18 13.5V10.5C18 9.67157 18.6716 9 19.5 9H20V6H19.5C18.6716 6 18 5.32843 18 4.5V4H15V4.5C15 5.32843 14.3284 6 13.5 6H10.5C9.67157 6 9 5.32843 9 4.5V4H6Z" fill="black"/>
</svg>
