<svg width="24" height="24" viewBox="0 0 24 24" fill="none" xmlns="http://www.w3.org/2000/svg">
<path fill-rule="evenodd" clip-rule="evenodd" d="M3.19555 0.250004H13.8045C14.0749 0.249962 14.3475 0.249921 14.58 0.268919C14.8379 0.289994 15.1545 0.340537 15.476 0.504326C15.915 0.72803 16.272 1.08498 16.4957 1.52403C16.6595 1.84548 16.71 2.16207 16.7311 2.42002C16.7501 2.65255 16.7501 2.92513 16.75 3.19557L16.75 7.30466L20.8592 7.30465C21.1296 7.30461 21.4022 7.30457 21.6347 7.32357C21.8927 7.34464 22.2093 7.39519 22.5307 7.55898C22.9698 7.78268 23.3267 8.13963 23.5504 8.57868C23.7142 8.90013 23.7648 9.21672 23.7858 9.47467C23.8048 9.7072 23.8048 9.97977 23.8048 10.2502V20.8591C23.8048 21.1295 23.8048 21.4021 23.7858 21.6346C23.7648 21.8926 23.7142 22.2092 23.5504 22.5306C23.3267 22.9697 22.9698 23.3266 22.5307 23.5503C22.2093 23.7141 21.8927 23.7647 21.6347 23.7857C21.4022 23.8047 21.1296 23.8047 20.8592 23.8047H10.2503C9.97987 23.8047 9.70729 23.8047 9.47476 23.7857C9.21681 23.7647 8.90022 23.7141 8.57877 23.5503C8.13973 23.3266 7.78277 22.9697 7.55907 22.5306C7.39528 22.2092 7.34473 21.8926 7.32366 21.6346C7.30466 21.4021 7.3047 21.1295 7.30474 20.8591L7.30475 16.75L3.19557 16.75C2.92512 16.7501 2.65255 16.7501 2.42002 16.7311C2.16207 16.71 1.84548 16.6595 1.52403 16.4957C1.08498 16.272 0.72803 15.915 0.504326 15.476C0.340537 15.1545 0.289994 14.8379 0.268919 14.58C0.249921 14.3475 0.249962 14.0749 0.250004 13.8045V3.19555C0.249962 2.92512 0.249921 2.65254 0.268919 2.42002C0.289994 2.16207 0.340537 1.84548 0.504326 1.52403C0.72803 1.08498 1.08498 0.72803 1.52403 0.504326C1.84548 0.340537 2.16207 0.289994 2.42002 0.268919C2.65254 0.249921 2.92512 0.249962 3.19555 0.250004ZM12.208 7.30466L14.25 5.26268V3.73756L10.6829 7.30466H12.208ZM7.30475 10.6828L3.73756 14.25H5.26268L7.30475 12.2079V10.6828ZM2.75001 12.7627L12.7627 2.75001H11.2376L2.75001 11.2376V12.7627ZM2.75001 8.76268L8.76268 2.75001H7.23756L2.75001 7.23756V8.76268ZM4.76268 2.75001H3.23756L2.75001 3.23756V4.76268L4.76268 2.75001ZM9.80475 10.288V14.25H13.7667C13.9882 14.25 14.1367 14.2496 14.2462 14.2462C14.2496 14.1367 14.25 13.9882 14.25 13.7667V9.80466H10.2881C10.0666 9.80466 9.91805 9.80511 9.80857 9.80848C9.8052 9.91796 9.80475 10.0665 9.80475 10.288ZM10.7627 16.75H9.80475V17.7079L10.7627 16.75ZM13.2376 16.75L9.80475 20.1828V20.8213C9.80475 21.0428 9.8052 21.1914 9.80857 21.3008C9.90431 21.3038 10.0299 21.3045 10.2081 21.3046L14.8078 16.7048C14.7281 16.7171 14.6518 16.7252 14.58 16.7311C14.3475 16.7501 14.0749 16.7501 13.8044 16.75L13.2376 16.75ZM16.7048 14.8078L21.3047 10.208C21.3046 10.0298 21.3039 9.90422 21.3009 9.80848C21.1914 9.80511 21.0429 9.80466 20.8214 9.80466H20.1829L16.75 13.2376L16.75 13.8044C16.7501 14.0749 16.7501 14.3475 16.7311 14.58C16.7252 14.6518 16.7171 14.7281 16.7048 14.8078ZM16.75 10.7627L17.708 9.80466H16.75V10.7627ZM21.3047 12.6828L12.6829 21.3047H14.208L21.3047 14.2079V12.6828ZM21.3047 16.6828L16.6829 21.3047H18.208L21.3047 18.2079V16.6828ZM21.3047 20.6828L20.6829 21.3047H20.8214C21.0429 21.3047 21.1914 21.3042 21.3009 21.3008C21.3043 21.1914 21.3047 21.0428 21.3047 20.8213V20.6828Z" fill="black"/>
</svg>
