<svg width="24" height="24" viewBox="0 0 24 24" fill="none" xmlns="http://www.w3.org/2000/svg">
<path d="M22 1C21.7239 1 21.5 1.22386 21.5 1.5V22.5C21.5 22.7761 21.7239 23 22 23C22.2761 23 22.5 22.7761 22.5 22.5V1.5C22.5 1.22386 22.2761 1 22 1Z" fill="black"/>
<path fill-rule="evenodd" clip-rule="evenodd" d="M17.5 7C17.5 6.17157 16.8284 5.5 16 5.5H2C1.17157 5.5 0.5 6.17157 0.5 7V9C0.5 9.82843 1.17157 10.5 2 10.5H16C16.8284 10.5 17.5 9.82843 17.5 9V7ZM16 6.5C16.2761 6.5 16.5 6.72386 16.5 7V9C16.5 9.27614 16.2761 9.5 16 9.5H2C1.72386 9.5 1.5 9.27614 1.5 9V7C1.5 6.72386 1.72386 6.5 2 6.5H16Z" fill="black"/>
<path fill-rule="evenodd" clip-rule="evenodd" d="M16 13.5C16.8284 13.5 17.5 14.1716 17.5 15V17C17.5 17.8284 16.8284 18.5 16 18.5H9C8.17157 18.5 7.5 17.8284 7.5 17V15C7.5 14.1716 8.17157 13.5 9 13.5H16ZM16.5 15C16.5 14.7239 16.2761 14.5 16 14.5H9C8.72386 14.5 8.5 14.7239 8.5 15V17C8.5 17.2761 8.72386 17.5 9 17.5H16C16.2761 17.5 16.5 17.2761 16.5 17V15Z" fill="black"/>
</svg>
