<svg width="24" height="24" viewBox="0 0 24 24" fill="none" xmlns="http://www.w3.org/2000/svg">
<path fill-rule="evenodd" clip-rule="evenodd" d="M3.22254 1.25H13.7775C14.0717 1.25 14.3077 1.25 14.4986 1.26559C14.6947 1.28161 14.865 1.31534 15.022 1.39532C15.2729 1.52316 15.4768 1.72713 15.6047 1.97801C15.6847 2.135 15.7184 2.30534 15.7344 2.50144C15.75 2.6923 15.75 2.92833 15.75 3.22254V8.30466H20.8322C21.1264 8.30465 21.3624 8.30465 21.5532 8.32025C21.7494 8.33627 21.9197 8.36999 22.0767 8.44998C22.3276 8.57781 22.5315 8.78179 22.6594 9.03267C22.7394 9.18966 22.7731 9.35999 22.7891 9.5561C22.8047 9.74696 22.8047 9.98299 22.8047 10.2772V20.8321C22.8047 21.1263 22.8047 21.3624 22.7891 21.5532C22.7731 21.7493 22.7394 21.9197 22.6594 22.0766C22.5315 22.3275 22.3276 22.5315 22.0767 22.6593C21.9197 22.7393 21.7494 22.773 21.5532 22.7891C21.3624 22.8047 21.1264 22.8047 20.8322 22.8047H10.2772C9.98302 22.8047 9.74699 22.8047 9.55613 22.7891C9.36002 22.773 9.18969 22.7393 9.0327 22.6593C8.78182 22.5315 8.57784 22.3275 8.45001 22.0766C8.37002 21.9197 8.3363 21.7493 8.32028 21.5532C8.30468 21.3624 8.30469 21.1263 8.30469 20.8321V15.75H3.22253C2.92833 15.75 2.6923 15.75 2.50144 15.7344C2.30534 15.7184 2.135 15.6847 1.97801 15.6047C1.72713 15.4768 1.52316 15.2729 1.39532 15.022C1.31534 14.865 1.28161 14.6947 1.26559 14.4986C1.25 14.3077 1.25 14.0717 1.25 13.7775V3.22254C1.25 2.92833 1.25 2.69231 1.26559 2.50144C1.28161 2.30534 1.31534 2.135 1.39532 1.97801C1.52316 1.72713 1.72713 1.52316 1.97801 1.39532C2.135 1.31534 2.30534 1.28161 2.50144 1.26559C2.69231 1.25 2.92833 1.25 3.22254 1.25ZM2.54216 1.76393C2.37697 1.77743 2.27976 1.80274 2.20501 1.84083C2.04821 1.92072 1.92072 2.04821 1.84083 2.20501C1.80274 2.27976 1.77743 2.37697 1.76393 2.54216C1.75019 2.71027 1.75 2.92585 1.75 3.23333V13.7667C1.75 14.0742 1.75019 14.2897 1.76393 14.4578C1.77743 14.623 1.80274 14.7202 1.84083 14.795C1.92072 14.9518 2.04821 15.0793 2.20501 15.1592C2.27976 15.1973 2.37697 15.2226 2.54216 15.2361C2.71027 15.2498 2.92585 15.25 3.23333 15.25H8.80469V20.8213C8.80469 21.1288 8.80488 21.3444 8.81862 21.5125C8.83211 21.6777 8.85743 21.7749 8.89552 21.8496C8.97541 22.0065 9.10289 22.1339 9.2597 22.2138C9.33445 22.2519 9.43166 22.2772 9.59685 22.2907C9.76495 22.3045 9.98053 22.3047 10.288 22.3047H20.8214C21.1288 22.3047 21.3444 22.3045 21.5125 22.2907C21.6777 22.2772 21.7749 22.2519 21.8497 22.2138C22.0065 22.1339 22.134 22.0065 22.2139 21.8496C22.2519 21.7749 22.2773 21.6777 22.2908 21.5125C22.3045 21.3444 22.3047 21.1288 22.3047 20.8213V10.288C22.3047 9.9805 22.3045 9.76492 22.2908 9.59682C22.2773 9.43163 22.2519 9.33442 22.2139 9.25967C22.134 9.10286 22.0065 8.97538 21.8497 8.89548C21.7749 8.8574 21.6777 8.83208 21.5125 8.81859C21.3444 8.80485 21.1288 8.80466 20.8214 8.80466H15.25V3.23333C15.25 2.92585 15.2498 2.71027 15.2361 2.54216C15.2226 2.37697 15.1973 2.27976 15.1592 2.20501C15.0793 2.04821 14.9518 1.92072 14.795 1.84083C14.7202 1.80274 14.623 1.77743 14.4578 1.76393C14.2897 1.75019 14.0742 1.75 13.7667 1.75H3.23333C2.92585 1.75 2.71027 1.75019 2.54216 1.76393Z" fill="black"/>
</svg>
