<svg width="24" height="24" viewBox="0 0 24 24" fill="none" xmlns="http://www.w3.org/2000/svg">
<path fill-rule="evenodd" clip-rule="evenodd" d="M13 9.5C13.8284 9.5 14.5 10.1716 14.5 11V13C14.5 13.8284 13.8284 14.5 13 14.5H11C10.1716 14.5 9.5 13.8284 9.5 13V11C9.5 10.1716 10.1716 9.5 11 9.5H13ZM11 10.5C10.7239 10.5 10.5 10.7239 10.5 11V13C10.5 13.2761 10.7239 13.5 11 13.5H13C13.2761 13.5 13.5 13.2761 13.5 13V11C13.5 10.7239 13.2761 10.5 13 10.5H11Z" fill="black"/>
<path fill-rule="evenodd" clip-rule="evenodd" d="M4 0.5C4.82843 0.5 5.5 1.17157 5.5 2V2.5H9.5V2C9.5 1.17157 10.1716 0.5 11 0.5H13C13.8284 0.5 14.5 1.17157 14.5 2V2.5H18.5V2C18.5 1.17157 19.1716 0.5 20 0.5H22C22.8284 0.5 23.5 1.17157 23.5 2V4C23.5 4.82843 22.8284 5.5 22 5.5H21.5V9.5H22C22.8284 9.5 23.5 10.1716 23.5 11V13C23.5 13.8284 22.8284 14.5 22 14.5H21.5V18.5H22.5C23.0523 18.5 23.5 18.9477 23.5 19.5V22.5C23.5 23.0523 23.0523 23.5 22.5 23.5H19.5C18.9477 23.5 18.5 23.0523 18.5 22.5V21.5H14.5V22C14.5 22.8284 13.8284 23.5 13 23.5H11C10.1716 23.5 9.5 22.8284 9.5 22V21.5H5.5V22C5.5 22.8284 4.82843 23.5 4 23.5H2C1.17157 23.5 0.5 22.8284 0.5 22V20C0.5 19.1716 1.17157 18.5 2 18.5H2.5V14.5H2C1.17157 14.5 0.5 13.8284 0.5 13V11C0.5 10.1716 1.17157 9.5 2 9.5H2.5V5.5H2C1.17157 5.5 0.5 4.82843 0.5 4V2C0.5 1.17157 1.17157 0.5 2 0.5H4ZM2 19.5C1.72386 19.5 1.5 19.7239 1.5 20V22C1.5 22.2761 1.72386 22.5 2 22.5H4C4.27614 22.5 4.5 22.2761 4.5 22V20C4.5 19.7239 4.27614 19.5 4 19.5H2ZM11 19.5C10.7239 19.5 10.5 19.7239 10.5 20V22C10.5 22.2761 10.7239 22.5 11 22.5H13C13.2761 22.5 13.5 22.2761 13.5 22V20C13.5 19.7239 13.2761 19.5 13 19.5H11ZM19.5 22.5H22.5V19.5H19.5V22.5ZM5.5 3.5V4C5.5 4.82843 4.82843 5.5 4 5.5H3.5V9.5H4C4.82843 9.5 5.5 10.1716 5.5 11V13C5.5 13.8284 4.82843 14.5 4 14.5H3.5V18.5H4C4.82843 18.5 5.5 19.1716 5.5 20V20.5H9.5V20C9.5 19.1716 10.1716 18.5 11 18.5H13C13.8284 18.5 14.5 19.1716 14.5 20V20.5H18.5V19.5C18.5 18.9477 18.9477 18.5 19.5 18.5H20.5V14.5H20C19.1716 14.5 18.5 13.8284 18.5 13V11C18.5 10.1716 19.1716 9.5 20 9.5H20.5V5.5H20C19.1716 5.5 18.5 4.82843 18.5 4V3.5H14.5V4C14.5 4.82843 13.8284 5.5 13 5.5H11C10.1716 5.5 9.5 4.82843 9.5 4V3.5H5.5ZM2 10.5C1.72386 10.5 1.5 10.7239 1.5 11V13C1.5 13.2761 1.72386 13.5 2 13.5H4C4.27614 13.5 4.5 13.2761 4.5 13V11C4.5 10.7239 4.27614 10.5 4 10.5H2ZM20 10.5C19.7239 10.5 19.5 10.7239 19.5 11V13C19.5 13.2761 19.7239 13.5 20 13.5H22C22.2761 13.5 22.5 13.2761 22.5 13V11C22.5 10.7239 22.2761 10.5 22 10.5H20ZM2 1.5C1.72386 1.5 1.5 1.72386 1.5 2V4C1.5 4.27614 1.72386 4.5 2 4.5H4C4.27614 4.5 4.5 4.27614 4.5 4V2C4.5 1.72386 4.27614 1.5 4 1.5H2ZM11 1.5C10.7239 1.5 10.5 1.72386 10.5 2V4C10.5 4.27614 10.7239 4.5 11 4.5H13C13.2761 4.5 13.5 4.27614 13.5 4V2C13.5 1.72386 13.2761 1.5 13 1.5H11ZM20 1.5C19.7239 1.5 19.5 1.72386 19.5 2V4C19.5 4.27614 19.7239 4.5 20 4.5H22C22.2761 4.5 22.5 4.27614 22.5 4V2C22.5 1.72386 22.2761 1.5 22 1.5H20Z" fill="black"/>
</svg>
