<svg width="24" height="24" viewBox="0 0 24 24" fill="none" xmlns="http://www.w3.org/2000/svg">
<path fill-rule="evenodd" clip-rule="evenodd" d="M1.75 12C1.75 11.8619 1.86193 11.75 2 11.75H6.25V5C6.25 4.30964 6.80964 3.75 7.5 3.75H9.5C10.1904 3.75 10.75 4.30964 10.75 5V11.75H14.25V8.5C14.25 7.80964 14.8096 7.25 15.5 7.25H17.5C18.1904 7.25 18.75 7.80964 18.75 8.5V11.75H23C23.1381 11.75 23.25 11.8619 23.25 12C23.25 12.1381 23.1381 12.25 23 12.25H18.75V15.5C18.75 16.1904 18.1904 16.75 17.5 16.75H15.5C14.8096 16.75 14.25 16.1904 14.25 15.5V12.25H10.75V19C10.75 19.6904 10.1904 20.25 9.5 20.25H7.5C6.80964 20.25 6.25 19.6904 6.25 19V12.25H2C1.86193 12.25 1.75 12.1381 1.75 12ZM6.75 19C6.75 19.4142 7.08579 19.75 7.5 19.75H9.5C9.91421 19.75 10.25 19.4142 10.25 19V5C10.25 4.58579 9.91421 4.25 9.5 4.25H7.5C7.08579 4.25 6.75 4.58579 6.75 5V19ZM15.5 16.25C15.0858 16.25 14.75 15.9142 14.75 15.5V8.5C14.75 8.08579 15.0858 7.75 15.5 7.75H17.5C17.9142 7.75 18.25 8.08579 18.25 8.5V15.5C18.25 15.9142 17.9142 16.25 17.5 16.25H15.5Z" fill="black"/>
</svg>
