<svg width="24" height="24" viewBox="0 0 24 24" fill="none" xmlns="http://www.w3.org/2000/svg">
<path d="M1.25 22.25C1.25 21.9739 1.47386 21.75 1.75 21.75H22.75C23.0261 21.75 23.25 21.9739 23.25 22.25C23.25 22.5261 23.0261 22.75 22.75 22.75H1.75C1.47386 22.75 1.25 22.5261 1.25 22.25Z" fill="black"/>
<path d="M7.25 18.25C6.69772 18.25 6.25 17.8023 6.25 17.25V2.25C6.25 1.69772 6.69772 1.25 7.25 1.25H9.25C9.80229 1.25 10.25 1.69772 10.25 2.25V17.25C10.25 17.8023 9.80229 18.25 9.25 18.25H7.25Z" fill="black"/>
<path d="M14.25 17.25C14.25 17.8023 14.6977 18.25 15.25 18.25H17.25C17.8023 18.25 18.25 17.8023 18.25 17.25V9.25C18.25 8.69771 17.8023 8.25 17.25 8.25H15.25C14.6977 8.25 14.25 8.69772 14.25 9.25V17.25Z" fill="black"/>
</svg>
