<svg width="24" height="24" viewBox="0 0 24 24" fill="none" xmlns="http://www.w3.org/2000/svg">
<path fill-rule="evenodd" clip-rule="evenodd" d="M13 8.75C14.2426 8.75 15.25 9.75736 15.25 11V13C15.25 14.2426 14.2426 15.25 13 15.25H11C9.75736 15.25 8.75 14.2426 8.75 13V11C8.75 9.75736 9.75736 8.75 11 8.75H13ZM11.25 12.75H12.75V11.25H11.25V12.75Z" fill="black"/>
<path fill-rule="evenodd" clip-rule="evenodd" d="M4.25 0C5.4081 0 6.36094 0.875061 6.48535 2H8.76465C8.88906 0.875061 9.8419 0 11 0H13C14.1581 0 15.1109 0.875061 15.2354 2H17.5146C17.6391 0.875061 18.5919 0 19.75 0H21.75C22.9926 0 24 1.00736 24 2.25V4.25C24 5.40807 23.1249 6.35992 22 6.48438V8.76465C23.1249 8.88905 24 9.8419 24 11V13C24 14.1581 23.1249 15.1099 22 15.2344V17.5H22.25C23.2165 17.5 24 18.2835 24 19.25V22.25C24 23.2165 23.2165 24 22.25 24H19.25C18.2835 24 17.5 23.2165 17.5 22.25V22H15.2354C15.1109 23.1249 14.1581 24 13 24H11C9.8419 24 8.88905 23.1249 8.76465 22H6.48535C6.36095 23.1249 5.4081 24 4.25 24H2.25C1.00736 24 0 22.9926 0 21.75V19.75C0 18.5919 0.875061 17.6391 2 17.5146V15.2344C0.875112 15.1099 0 14.1581 0 13V11C0 9.8419 0.875061 8.88906 2 8.76465V6.48438C0.875112 6.35992 0 5.40807 0 4.25V2.25C0 1.00736 1.00736 0 2.25 0H4.25ZM2.5 21.5H4V20H2.5V21.5ZM11.25 21.5H12.75V20H11.25V21.5ZM20 21.5H21.5V20H20V21.5ZM6.5 4V4.25C6.5 5.49264 5.49264 6.5 4.25 6.5H4V8.75H4.25C5.49264 8.75 6.5 9.75736 6.5 11V13C6.5 14.2426 5.49264 15.25 4.25 15.25H4V17.5H4.25C5.49264 17.5 6.5 18.5074 6.5 19.75V20H8.75V19.75C8.75 18.5074 9.75736 17.5 11 17.5H13C14.2426 17.5 15.25 18.5074 15.25 19.75V20H17.5V19.25C17.5 18.2835 18.2835 17.5 19.25 17.5H20V15.25H19.75C18.5074 15.25 17.5 14.2426 17.5 13V11C17.5 9.75736 18.5074 8.75 19.75 8.75H20V6.5H19.75C18.5074 6.5 17.5 5.49264 17.5 4.25V4H15.25V4.25C15.25 5.49264 14.2426 6.5 13 6.5H11C9.75736 6.5 8.75 5.49264 8.75 4.25V4H6.5ZM2.5 12.75H4V11.25H2.5V12.75ZM20 12.75H21.5V11.25H20V12.75ZM2.5 4H4V2.5H2.5V4ZM11.25 4H12.75V2.5H11.25V4ZM20 4H21.5V2.5H20V4Z" fill="black"/>
</svg>
