<svg width="24" height="24" viewBox="0 0 24 24" fill="none" xmlns="http://www.w3.org/2000/svg">
<path fill-rule="evenodd" clip-rule="evenodd" d="M3.21376 1H13.7862C14.0729 0.999992 14.3177 0.999985 14.5189 1.01642C14.7305 1.03371 14.9374 1.07164 15.1355 1.17257C15.4334 1.32437 15.6756 1.56659 15.8274 1.86452C15.9284 2.06262 15.9663 2.26952 15.9836 2.48109C16 2.68225 16 2.92708 16 3.21375V8.05466H20.8409C21.1276 8.05465 21.3724 8.05464 21.5736 8.07108C21.7852 8.08836 21.9921 8.12629 22.1902 8.22723C22.4881 8.37903 22.7303 8.62125 22.8821 8.91917C22.9831 9.11728 23.021 9.32418 23.0383 9.53574C23.0547 9.73691 23.0547 9.98174 23.0547 10.2684V20.8409C23.0547 21.1276 23.0547 21.3724 23.0383 21.5736C23.021 21.7851 22.9831 21.992 22.8821 22.1901C22.7303 22.4881 22.4881 22.7303 22.1902 22.8821C21.9921 22.983 21.7852 23.021 21.5736 23.0382C21.3724 23.0547 21.1276 23.0547 20.8409 23.0547H10.2684C9.98177 23.0547 9.73694 23.0547 9.53577 23.0382C9.32421 23.021 9.11731 22.983 8.9192 22.8821C8.62128 22.7303 8.37906 22.4881 8.22726 22.1901C8.12632 21.992 8.08839 21.7851 8.07111 21.5736C8.05467 21.3724 8.05468 21.1276 8.05469 20.8409V16H3.21375C2.92708 16 2.68225 16 2.48109 15.9836C2.26952 15.9663 2.06262 15.9284 1.86452 15.8274C1.56659 15.6756 1.32437 15.4334 1.17257 15.1355C1.07164 14.9374 1.03371 14.7305 1.01642 14.5189C0.999985 14.3177 0.999992 14.0729 1 13.7862V3.21376C0.999992 2.92709 0.999985 2.68225 1.01642 2.48109C1.03371 2.26952 1.07164 2.06262 1.17257 1.86452C1.32437 1.56659 1.56659 1.32437 1.86452 1.17257C2.06262 1.07164 2.26952 1.03371 2.48109 1.01642C2.68225 0.999985 2.92709 0.999992 3.21376 1ZM2.56252 2.0131C2.41279 2.02533 2.35214 2.04644 2.31851 2.06358C2.20875 2.11951 2.11951 2.20875 2.06358 2.31851C2.04644 2.35214 2.02533 2.41279 2.0131 2.56252C2.00039 2.71808 2 2.92172 2 3.23333V13.7667C2 14.0783 2.00039 14.2819 2.0131 14.4375C2.02533 14.5872 2.04644 14.6479 2.06358 14.6815C2.11951 14.7913 2.20874 14.8805 2.31851 14.9364C2.35214 14.9536 2.41279 14.9747 2.56252 14.9869C2.71808 14.9996 2.92172 15 3.23333 15H9.05469V20.8213C9.05469 21.1329 9.05508 21.3366 9.06779 21.4921C9.08002 21.6419 9.10113 21.7025 9.11827 21.7362C9.17419 21.8459 9.26343 21.9352 9.37319 21.9911C9.40683 22.0082 9.46748 22.0293 9.61721 22.0416C9.77277 22.0543 9.97641 22.0547 10.288 22.0547H20.8214C21.133 22.0547 21.3366 22.0543 21.4922 22.0416C21.6419 22.0293 21.7025 22.0082 21.7362 21.9911C21.8459 21.9352 21.9352 21.8459 21.9911 21.7362C22.0082 21.7025 22.0294 21.6419 22.0416 21.4921C22.0543 21.3366 22.0547 21.1329 22.0547 20.8213V10.288C22.0547 9.97638 22.0543 9.77274 22.0416 9.61718C22.0294 9.46745 22.0082 9.4068 21.9911 9.37316C21.9352 9.2634 21.8459 9.17416 21.7362 9.11824C21.7025 9.1011 21.6419 9.07999 21.4922 9.06776C21.3366 9.05505 21.133 9.05466 20.8214 9.05466H15V3.23333C15 2.92172 14.9996 2.71808 14.9869 2.56252C14.9747 2.41279 14.9536 2.35214 14.9364 2.31851C14.8805 2.20874 14.7913 2.11951 14.6815 2.06358C14.6479 2.04644 14.5872 2.02533 14.4375 2.0131C14.2819 2.00039 14.0783 2 13.7667 2H3.23333C2.92172 2 2.71808 2.00039 2.56252 2.0131Z" fill="black"/>
</svg>
