<svg width="24" height="24" viewBox="0 0 24 24" fill="none" xmlns="http://www.w3.org/2000/svg">
<path fill-rule="evenodd" clip-rule="evenodd" d="M3.20654 0.750001C2.92619 0.749985 2.67227 0.74997 2.46073 0.767253C2.2337 0.785802 1.99024 0.827936 1.75102 0.949825C1.40606 1.12559 1.12559 1.40606 0.949825 1.75102C0.827936 1.99024 0.785802 2.2337 0.767253 2.46073C0.74997 2.67227 0.749985 2.92615 0.750001 3.20649V13.7935C0.749985 14.0738 0.74997 14.3277 0.767253 14.5393C0.785802 14.7663 0.827936 15.0098 0.949825 15.249C1.12559 15.5939 1.40606 15.8744 1.75102 16.0502C1.99024 16.1721 2.2337 16.2142 2.46073 16.2328C2.67228 16.25 2.92617 16.25 3.20652 16.25L7.80474 16.25V20.8481C7.80473 21.1285 7.80471 21.3824 7.82199 21.5939C7.84054 21.821 7.88268 22.0644 8.00457 22.3036C8.18033 22.6486 8.4608 22.9291 8.80576 23.1048C9.04498 23.2267 9.28844 23.2689 9.51547 23.2874C9.72702 23.3047 9.98091 23.3047 10.2613 23.3047H20.8482C21.1286 23.3047 21.3825 23.3047 21.594 23.2874C21.821 23.2689 22.0645 23.2267 22.3037 23.1048C22.6487 22.9291 22.9292 22.6486 23.1049 22.3036C23.2268 22.0644 23.2689 21.821 23.2875 21.5939C23.3048 21.3824 23.3048 21.1285 23.3047 20.8481V10.2612C23.3048 9.98082 23.3048 9.72693 23.2875 9.51538C23.2689 9.28835 23.2268 9.04489 23.1049 8.80567C22.9292 8.46071 22.6487 8.18024 22.3037 8.00447C22.0645 7.88259 21.821 7.84045 21.594 7.8219C21.3825 7.80462 21.1286 7.80463 20.8482 7.80465H16.25L16.25 3.20652C16.25 2.92617 16.25 2.67228 16.2328 2.46073C16.2142 2.2337 16.1721 1.99024 16.0502 1.75102C15.8744 1.40606 15.5939 1.12559 15.249 0.949825C15.0098 0.827936 14.7663 0.785802 14.5393 0.767253C14.3277 0.74997 14.0739 0.749985 13.7935 0.750001H3.20654ZM2.432 2.28632C2.43048 2.28709 2.43027 2.28703 2.432 2.28632C2.43881 2.28354 2.47581 2.27102 2.58288 2.26227C2.7259 2.25059 2.9176 2.25 3.23334 2.25H13.7667C14.0824 2.25 14.2741 2.25059 14.4171 2.26227C14.5242 2.27102 14.5612 2.28354 14.568 2.28632C14.6307 2.31828 14.6817 2.36929 14.7137 2.43201C14.7129 2.43049 14.713 2.43028 14.7137 2.43201C14.7165 2.43881 14.729 2.47581 14.7377 2.58288C14.7494 2.7259 14.75 2.9176 14.75 3.23334V13.7667C14.75 14.0824 14.7494 14.2741 14.7377 14.4171C14.729 14.5242 14.7165 14.5612 14.7137 14.568C14.6817 14.6307 14.6307 14.6817 14.568 14.7137C14.5695 14.7129 14.5697 14.713 14.568 14.7137C14.5612 14.7165 14.5242 14.729 14.4171 14.7377C14.2741 14.7494 14.0824 14.75 13.7667 14.75H3.23334C2.9176 14.75 2.7259 14.7494 2.58288 14.7377C2.47581 14.729 2.43881 14.7165 2.432 14.7137C2.36928 14.6817 2.31829 14.6307 2.28633 14.568C2.28711 14.5695 2.28704 14.5697 2.28633 14.568C2.28355 14.5612 2.27102 14.5242 2.26227 14.4171C2.25059 14.2741 2.25 14.0824 2.25 13.7667V3.23334C2.25 2.9176 2.25059 2.7259 2.26227 2.58288C2.27102 2.47581 2.28354 2.43881 2.28632 2.432C2.28703 2.43027 2.28709 2.43048 2.28632 2.432C2.31828 2.36928 2.36928 2.31828 2.432 2.28632Z" fill="black"/>
</svg>
