<svg width="24" height="24" viewBox="0 0 24 24" fill="none" xmlns="http://www.w3.org/2000/svg">
<path d="M23.75 1.5C23.75 1.91421 23.4142 2.25 23 2.25H2C1.58579 2.25 1.25 1.91421 1.25 1.5C1.25 1.08579 1.58579 0.75 2 0.75H23C23.4142 0.75 23.75 1.08579 23.75 1.5Z" fill="black"/>
<path fill-rule="evenodd" clip-rule="evenodd" d="M18.5 5.75C19.4665 5.75 20.25 6.5335 20.25 7.5V21.5C20.25 22.4665 19.4665 23.25 18.5 23.25H15.5C14.5335 23.25 13.75 22.4665 13.75 21.5V7.5C13.75 6.5335 14.5335 5.75 15.5 5.75H18.5ZM18.75 7.5C18.75 7.36193 18.6381 7.25 18.5 7.25H15.5C15.3619 7.25 15.25 7.36193 15.25 7.5V21.5C15.25 21.6381 15.3619 21.75 15.5 21.75H18.5C18.6381 21.75 18.75 21.6381 18.75 21.5V7.5Z" fill="black"/>
<path fill-rule="evenodd" clip-rule="evenodd" d="M11.25 7.5C11.25 6.5335 10.4665 5.75 9.5 5.75H6.5C5.5335 5.75 4.75 6.5335 4.75 7.5V14.5C4.75 15.4665 5.5335 16.25 6.5 16.25H9.5C10.4665 16.25 11.25 15.4665 11.25 14.5V7.5ZM9.5 7.25C9.63807 7.25 9.75 7.36193 9.75 7.5V14.5C9.75 14.6381 9.63807 14.75 9.5 14.75H6.5C6.36193 14.75 6.25 14.6381 6.25 14.5V7.5C6.25 7.36193 6.36193 7.25 6.5 7.25H9.5Z" fill="black"/>
</svg>
