<svg width="24" height="24" viewBox="0 0 24 24" fill="none" xmlns="http://www.w3.org/2000/svg">
<path d="M23.25 1.75C23.25 2.02614 23.0261 2.25 22.75 2.25H1.75C1.47386 2.25 1.25 2.02614 1.25 1.75C1.25 1.47386 1.47386 1.25 1.75 1.25H22.75C23.0261 1.25 23.25 1.47386 23.25 1.75Z" fill="black"/>
<path d="M17.25 5.75C17.8023 5.75 18.25 6.19772 18.25 6.75V21.75C18.25 22.3023 17.8023 22.75 17.25 22.75H15.25C14.6977 22.75 14.25 22.3023 14.25 21.75V6.75C14.25 6.19772 14.6977 5.75 15.25 5.75H17.25Z" fill="black"/>
<path d="M10.25 6.75C10.25 6.19772 9.80229 5.75 9.25 5.75H7.25C6.69772 5.75 6.25 6.19772 6.25 6.75V14.75C6.25 15.3023 6.69772 15.75 7.25 15.75H9.25C9.80229 15.75 10.25 15.3023 10.25 14.75V6.75Z" fill="black"/>
</svg>
