<svg width="24" height="24" viewBox="0 0 24 24" fill="none" xmlns="http://www.w3.org/2000/svg">
<path fill-rule="evenodd" clip-rule="evenodd" d="M3.19555 0.250004C2.92512 0.249962 2.65254 0.249921 2.42002 0.268919C2.16207 0.289994 1.84548 0.340537 1.52403 0.504326C1.08498 0.72803 0.72803 1.08498 0.504326 1.52403C0.340537 1.84548 0.289994 2.16207 0.268919 2.42002C0.249921 2.65254 0.249962 2.92512 0.250004 3.19555V13.8045C0.249962 14.0749 0.249921 14.3475 0.268919 14.58C0.289994 14.8379 0.340537 15.1545 0.504326 15.476C0.72803 15.915 1.08498 16.272 1.52403 16.4957C1.84548 16.6595 2.16207 16.71 2.42002 16.7311C2.65255 16.7501 2.92512 16.7501 3.19557 16.75L7.30475 16.75L7.30474 20.8591C7.3047 21.1295 7.30466 21.4021 7.32366 21.6346C7.34473 21.8926 7.39528 22.2092 7.55907 22.5306C7.78277 22.9697 8.13973 23.3266 8.57877 23.5503C8.90022 23.7141 9.21681 23.7647 9.47476 23.7857C9.70729 23.8047 9.97987 23.8047 10.2503 23.8047H20.8592C21.1296 23.8047 21.4022 23.8047 21.6347 23.7857C21.8927 23.7647 22.2093 23.7141 22.5307 23.5503C22.9698 23.3266 23.3267 22.9697 23.5504 22.5306C23.7142 22.2092 23.7648 21.8926 23.7858 21.6346C23.8048 21.4021 23.8048 21.1295 23.8048 20.8591V10.2502C23.8048 9.97977 23.8048 9.7072 23.7858 9.47467C23.7648 9.21672 23.7142 8.90013 23.5504 8.57868C23.3267 8.13963 22.9698 7.78268 22.5307 7.55898C22.2093 7.39519 21.8927 7.34464 21.6347 7.32357C21.4022 7.30457 21.1296 7.30461 20.8592 7.30465L16.75 7.30466L16.75 3.19557C16.7501 2.92513 16.7501 2.65255 16.7311 2.42002C16.71 2.16207 16.6595 1.84548 16.4957 1.52403C16.272 1.08498 15.915 0.72803 15.476 0.504326C15.1545 0.340537 14.8379 0.289994 14.58 0.268919C14.3475 0.249921 14.0749 0.249962 13.8045 0.250004H3.19555ZM16.75 9.80466L16.75 13.8044C16.7501 14.0749 16.7501 14.3475 16.7311 14.58C16.71 14.8379 16.6595 15.1545 16.4957 15.476C16.272 15.915 15.915 16.272 15.476 16.4957C15.1545 16.6595 14.8379 16.71 14.58 16.7311C14.3475 16.7501 14.0749 16.7501 13.8044 16.75L9.80475 16.75V20.8213C9.80475 21.0428 9.8052 21.1914 9.80857 21.3008C9.91805 21.3042 10.0666 21.3047 10.2881 21.3047H20.8214C21.0429 21.3047 21.1914 21.3042 21.3009 21.3008C21.3043 21.1914 21.3047 21.0428 21.3047 20.8213V10.288C21.3047 10.0665 21.3043 9.91796 21.3009 9.80848C21.1914 9.80511 21.0429 9.80466 20.8214 9.80466H16.75ZM2.75001 3.23334C2.75001 3.01182 2.75046 2.86331 2.75383 2.75383C2.86331 2.75046 3.01182 2.75001 3.23334 2.75001H13.7667C13.9882 2.75001 14.1367 2.75046 14.2462 2.75383C14.2496 2.86331 14.25 3.01182 14.25 3.23334V13.7667C14.25 13.9882 14.2496 14.1367 14.2462 14.2462C14.1367 14.2496 13.9882 14.25 13.7667 14.25H3.23334C3.01182 14.25 2.86331 14.2496 2.75383 14.2462C2.75046 14.1367 2.75001 13.9882 2.75001 13.7667V3.23334Z" fill="black"/>
</svg>
