<svg width="24" height="24" viewBox="0 0 24 24" fill="none" xmlns="http://www.w3.org/2000/svg">
<path fill-rule="evenodd" clip-rule="evenodd" d="M4.5 18.75C4.91421 18.75 5.25 19.0858 5.25 19.5V22.5C5.25 22.9142 4.91421 23.25 4.5 23.25H1.5C1.08579 23.25 0.75 22.9142 0.75 22.5V19.5C0.75 19.0858 1.08579 18.75 1.5 18.75H4.5ZM1.5 19.25C1.36193 19.25 1.25 19.3619 1.25 19.5V22.5C1.25 22.6381 1.36193 22.75 1.5 22.75H4.5C4.63807 22.75 4.75 22.6381 4.75 22.5V19.5C4.75 19.3619 4.63807 19.25 4.5 19.25H1.5Z" fill="black"/>
<path fill-rule="evenodd" clip-rule="evenodd" d="M13.5 18.75C13.9142 18.75 14.25 19.0858 14.25 19.5V22.5C14.25 22.9142 13.9142 23.25 13.5 23.25H10.5C10.0858 23.25 9.75 22.9142 9.75 22.5V19.5C9.75 19.0858 10.0858 18.75 10.5 18.75H13.5ZM10.5 19.25C10.3619 19.25 10.25 19.3619 10.25 19.5V22.5C10.25 22.6381 10.3619 22.75 10.5 22.75H13.5C13.6381 22.75 13.75 22.6381 13.75 22.5V19.5C13.75 19.3619 13.6381 19.25 13.5 19.25H10.5Z" fill="black"/>
<path fill-rule="evenodd" clip-rule="evenodd" d="M22.5 18.75C22.9142 18.75 23.25 19.0858 23.25 19.5V22.5C23.25 22.9142 22.9142 23.25 22.5 23.25H19.5C19.0858 23.25 18.75 22.9142 18.75 22.5V19.5C18.75 19.0858 19.0858 18.75 19.5 18.75H22.5ZM19.5 19.25C19.3619 19.25 19.25 19.3619 19.25 19.5V22.5C19.25 22.6381 19.3619 22.75 19.5 22.75H22.5C22.6381 22.75 22.75 22.6381 22.75 22.5V19.5C22.75 19.3619 22.6381 19.25 22.5 19.25H19.5Z" fill="black"/>
<path fill-rule="evenodd" clip-rule="evenodd" d="M4.5 9.75C4.91421 9.75 5.25 10.0858 5.25 10.5V13.5C5.25 13.9142 4.91421 14.25 4.5 14.25H1.5C1.08579 14.25 0.75 13.9142 0.75 13.5V10.5C0.75 10.0858 1.08579 9.75 1.5 9.75H4.5ZM1.5 10.25C1.36193 10.25 1.25 10.3619 1.25 10.5V13.5C1.25 13.6381 1.36193 13.75 1.5 13.75H4.5C4.63807 13.75 4.75 13.6381 4.75 13.5V10.5C4.75 10.3619 4.63807 10.25 4.5 10.25H1.5Z" fill="black"/>
<path fill-rule="evenodd" clip-rule="evenodd" d="M13.5 9.75C13.9142 9.75 14.25 10.0858 14.25 10.5V13.5C14.25 13.9142 13.9142 14.25 13.5 14.25H10.5C10.0858 14.25 9.75 13.9142 9.75 13.5V10.5C9.75 10.0858 10.0858 9.75 10.5 9.75H13.5ZM10.5 10.25C10.3619 10.25 10.25 10.3619 10.25 10.5V13.5C10.25 13.6381 10.3619 13.75 10.5 13.75H13.5C13.6381 13.75 13.75 13.6381 13.75 13.5V10.5C13.75 10.3619 13.6381 10.25 13.5 10.25H10.5Z" fill="black"/>
<path fill-rule="evenodd" clip-rule="evenodd" d="M22.5 9.75C22.9142 9.75 23.25 10.0858 23.25 10.5V13.5C23.25 13.9142 22.9142 14.25 22.5 14.25H19.5C19.0858 14.25 18.75 13.9142 18.75 13.5V10.5C18.75 10.0858 19.0858 9.75 19.5 9.75H22.5ZM19.5 10.25C19.3619 10.25 19.25 10.3619 19.25 10.5V13.5C19.25 13.6381 19.3619 13.75 19.5 13.75H22.5C22.6381 13.75 22.75 13.6381 22.75 13.5V10.5C22.75 10.3619 22.6381 10.25 22.5 10.25H19.5Z" fill="black"/>
<path fill-rule="evenodd" clip-rule="evenodd" d="M4.5 0.75C4.91421 0.75 5.25 1.08579 5.25 1.5V4.5C5.25 4.91421 4.91421 5.25 4.5 5.25H1.5C1.08579 5.25 0.75 4.91421 0.75 4.5V1.5C0.75 1.08579 1.08579 0.75 1.5 0.75H4.5ZM1.5 1.25C1.36193 1.25 1.25 1.36193 1.25 1.5V4.5C1.25 4.63807 1.36193 4.75 1.5 4.75H4.5C4.63807 4.75 4.75 4.63807 4.75 4.5V1.5C4.75 1.36193 4.63807 1.25 4.5 1.25H1.5Z" fill="black"/>
<path fill-rule="evenodd" clip-rule="evenodd" d="M13.5 0.75C13.9142 0.75 14.25 1.08579 14.25 1.5V4.5C14.25 4.91421 13.9142 5.25 13.5 5.25H10.5C10.0858 5.25 9.75 4.91421 9.75 4.5V1.5C9.75 1.08579 10.0858 0.75 10.5 0.75H13.5ZM10.5 1.25C10.3619 1.25 10.25 1.36193 10.25 1.5V4.5C10.25 4.63807 10.3619 4.75 10.5 4.75H13.5C13.6381 4.75 13.75 4.63807 13.75 4.5V1.5C13.75 1.36193 13.6381 1.25 13.5 1.25H10.5Z" fill="black"/>
<path fill-rule="evenodd" clip-rule="evenodd" d="M22.5 0.75C22.9142 0.75 23.25 1.08579 23.25 1.5V4.5C23.25 4.91421 22.9142 5.25 22.5 5.25H19.5C19.0858 5.25 18.75 4.91421 18.75 4.5V1.5C18.75 1.08579 19.0858 0.75 19.5 0.75H22.5ZM19.5 1.25C19.3619 1.25 19.25 1.36193 19.25 1.5V4.5C19.25 4.63807 19.3619 4.75 19.5 4.75H22.5C22.6381 4.75 22.75 4.63807 22.75 4.5V1.5C22.75 1.36193 22.6381 1.25 22.5 1.25H19.5Z" fill="black"/>
</svg>
