<svg width="24" height="24" viewBox="0 0 24 24" fill="none" xmlns="http://www.w3.org/2000/svg">
<path fill-rule="evenodd" clip-rule="evenodd" d="M13 9.25C13.9665 9.25 14.75 10.0335 14.75 11V13C14.75 13.9665 13.9665 14.75 13 14.75H11C10.0335 14.75 9.25 13.9665 9.25 13V11C9.25 10.0335 10.0335 9.25 11 9.25H13ZM11 10.75C10.8619 10.75 10.75 10.8619 10.75 11V13C10.75 13.1381 10.8619 13.25 11 13.25H13C13.1381 13.25 13.25 13.1381 13.25 13V11C13.25 10.8619 13.1381 10.75 13 10.75H11Z" fill="black"/>
<path fill-rule="evenodd" clip-rule="evenodd" d="M4 0.25C4.9665 0.25 5.75 1.0335 5.75 2V2.25H9.25V2C9.25 1.0335 10.0335 0.25 11 0.25H13C13.9665 0.25 14.75 1.0335 14.75 2V2.25H18.25V2C18.25 1.0335 19.0335 0.25 20 0.25H22C22.9665 0.25 23.75 1.0335 23.75 2V4C23.75 4.9665 22.9665 5.75 22 5.75H21.75V9.25H22C22.9665 9.25 23.75 10.0335 23.75 11V13C23.75 13.9665 22.9665 14.75 22 14.75H21.75V18.25H22.5C23.1904 18.25 23.75 18.8096 23.75 19.5V22.5C23.75 23.1904 23.1904 23.75 22.5 23.75H19.5C18.8096 23.75 18.25 23.1904 18.25 22.5V21.75H14.75V22C14.75 22.9665 13.9665 23.75 13 23.75H11C10.0335 23.75 9.25 22.9665 9.25 22V21.75H5.75V22C5.75 22.9665 4.9665 23.75 4 23.75H2C1.0335 23.75 0.25 22.9665 0.25 22V20C0.25 19.0335 1.0335 18.25 2 18.25H2.25V14.75H2C1.0335 14.75 0.25 13.9665 0.25 13V11C0.25 10.0335 1.0335 9.25 2 9.25H2.25V5.75H2C1.0335 5.75 0.25 4.9665 0.25 4V2C0.25 1.0335 1.0335 0.25 2 0.25H4ZM2 19.75C1.86193 19.75 1.75 19.8619 1.75 20V22C1.75 22.1381 1.86193 22.25 2 22.25H4C4.13807 22.25 4.25 22.1381 4.25 22V20C4.25 19.8619 4.13807 19.75 4 19.75H2ZM11 19.75C10.8619 19.75 10.75 19.8619 10.75 20V22C10.75 22.1381 10.8619 22.25 11 22.25H13C13.1381 22.25 13.25 22.1381 13.25 22V20C13.25 19.8619 13.1381 19.75 13 19.75H11ZM19.75 22.25H22.25V19.75H19.75V22.25ZM5.75 3.75V4C5.75 4.9665 4.9665 5.75 4 5.75H3.75V9.25H4C4.9665 9.25 5.75 10.0335 5.75 11V13C5.75 13.9665 4.9665 14.75 4 14.75H3.75V18.25H4C4.9665 18.25 5.75 19.0335 5.75 20V20.25H9.25V20C9.25 19.0335 10.0335 18.25 11 18.25H13C13.9665 18.25 14.75 19.0335 14.75 20V20.25H18.25V19.5C18.25 18.8096 18.8096 18.25 19.5 18.25H20.25V14.75H20C19.0335 14.75 18.25 13.9665 18.25 13V11C18.25 10.0335 19.0335 9.25 20 9.25H20.25V5.75H20C19.0335 5.75 18.25 4.9665 18.25 4V3.75H14.75V4C14.75 4.9665 13.9665 5.75 13 5.75H11C10.0335 5.75 9.25 4.9665 9.25 4V3.75H5.75ZM2 10.75C1.86193 10.75 1.75 10.8619 1.75 11V13C1.75 13.1381 1.86193 13.25 2 13.25H4C4.13807 13.25 4.25 13.1381 4.25 13V11C4.25 10.8619 4.13807 10.75 4 10.75H2ZM20 10.75C19.8619 10.75 19.75 10.8619 19.75 11V13C19.75 13.1381 19.8619 13.25 20 13.25H22C22.1381 13.25 22.25 13.1381 22.25 13V11C22.25 10.8619 22.1381 10.75 22 10.75H20ZM2 1.75C1.86193 1.75 1.75 1.86193 1.75 2V4C1.75 4.13807 1.86193 4.25 2 4.25H4C4.13807 4.25 4.25 4.13807 4.25 4V2C4.25 1.86193 4.13807 1.75 4 1.75H2ZM11 1.75C10.8619 1.75 10.75 1.86193 10.75 2V4C10.75 4.13807 10.8619 4.25 11 4.25H13C13.1381 4.25 13.25 4.13807 13.25 4V2L13.2451 1.94922C13.2217 1.83547 13.1207 1.75 13 1.75H11ZM20 1.75C19.8619 1.75 19.75 1.86193 19.75 2V4C19.75 4.13807 19.8619 4.25 20 4.25H22C22.1381 4.25 22.25 4.13807 22.25 4V2C22.25 1.86193 22.1381 1.75 22 1.75H20Z" fill="black"/>
</svg>
