<svg width="24" height="24" viewBox="0 0 24 24" fill="none" xmlns="http://www.w3.org/2000/svg">
<path fill-rule="evenodd" clip-rule="evenodd" d="M0.5 2.5C0.5 1.5335 1.2835 0.75 2.25 0.75H14.25C15.2165 0.75 16 1.5335 16 2.5V7.80465H21.3047C22.2712 7.80465 23.0547 8.58815 23.0547 9.55465V21.5546C23.0547 22.5211 22.2712 23.3046 21.3047 23.3046H9.30474C8.33824 23.3046 7.55474 22.5211 7.55474 21.5546V16.25H2.25C1.2835 16.25 0.5 15.4665 0.5 14.5V2.5ZM14.5 2.5V7.80465H9.30474C8.33824 7.80465 7.55474 8.58815 7.55474 9.55465V14.75H2.25C2.11193 14.75 2 14.6381 2 14.5V2.5C2 2.36193 2.11193 2.25 2.25 2.25H14.25C14.3881 2.25 14.5 2.36193 14.5 2.5ZM9.05474 14.0059V14.75H10.1893L14.5 10.4393V9.30465H13.756L9.05474 14.0059ZM9.05474 11.8846L11.6347 9.30465H9.756L9.05474 10.0059V11.8846ZM14.5 12.5607L12.3106 14.75H14.1893L14.5 14.4393V12.5607ZM14.25 16.25H9.05474V21.5546C9.05474 21.6927 9.16667 21.8046 9.30474 21.8046H21.3047C21.4428 21.8046 21.5547 21.6927 21.5547 21.5546V9.55465C21.5547 9.41658 21.4428 9.30465 21.3047 9.30465H16V14.5C16 15.4665 15.2165 16.25 14.25 16.25Z" fill="black"/>
</svg>
