<svg width="24" height="24" viewBox="0 0 24 24" fill="none" xmlns="http://www.w3.org/2000/svg">
<path fill-rule="evenodd" clip-rule="evenodd" d="M2.96376 1H13.5362C13.8229 0.999992 14.0677 0.999985 14.2689 1.01642C14.4805 1.03371 14.6874 1.07164 14.8855 1.17257C15.1834 1.32437 15.4256 1.56659 15.5774 1.86452C15.6784 2.06262 15.7163 2.26952 15.7336 2.48109C15.75 2.68224 15.75 2.92707 15.75 3.21372V8.05465L20.591 8.05465C20.8777 8.05464 21.1225 8.05463 21.3237 8.07107C21.5352 8.08836 21.7421 8.12629 21.9402 8.22722C22.2381 8.37902 22.4804 8.62124 22.6322 8.91917C22.7331 9.11727 22.771 9.32417 22.7883 9.53574C22.8048 9.7369 22.8048 9.98173 22.8047 10.2684V20.8409C22.8048 21.1276 22.8048 21.3724 22.7883 21.5736C22.771 21.7851 22.7331 21.992 22.6322 22.1901C22.4804 22.4881 22.2381 22.7303 21.9402 22.8821C21.7421 22.983 21.5352 23.0209 21.3237 23.0382C21.1225 23.0547 20.8777 23.0547 20.591 23.0546H10.0185C9.73183 23.0547 9.48699 23.0547 9.28583 23.0382C9.07426 23.0209 8.86736 22.983 8.66926 22.8821C8.37133 22.7303 8.12911 22.4881 7.97732 22.1901C7.87638 21.992 7.83845 21.7851 7.82116 21.5736C7.80473 21.3724 7.80473 21.1276 7.80474 20.8409L7.80474 16H2.96375C2.6771 16 2.43224 16 2.23109 15.9836C2.01952 15.9663 1.81262 15.9284 1.61452 15.8274C1.31659 15.6756 1.07437 15.4334 0.922574 15.1355C0.821636 14.9374 0.783707 14.7305 0.766421 14.5189C0.749985 14.3177 0.749992 14.0729 0.75 13.7863V3.21376C0.749992 2.9271 0.749985 2.68225 0.766421 2.48109C0.783707 2.26952 0.821636 2.06262 0.922574 1.86452C1.07437 1.56659 1.31659 1.32437 1.61452 1.17257C1.81262 1.07164 2.01952 1.03371 2.23109 1.01642C2.43225 0.999985 2.6771 0.999992 2.96376 1ZM14.75 3.23333V8.05465L10.0185 8.05465C9.73183 8.05464 9.487 8.05463 9.28583 8.07107C9.07426 8.08836 8.86736 8.12629 8.66926 8.22722C8.37133 8.37902 8.12911 8.62124 7.97732 8.91917C7.87638 9.11727 7.83845 9.32417 7.82116 9.53574C7.80473 9.73689 7.80473 9.98171 7.80474 10.2684L7.80474 15H2.98333C2.67172 15 2.46808 14.9996 2.31252 14.9869C2.16279 14.9747 2.10214 14.9536 2.06851 14.9364C1.95875 14.8805 1.86951 14.7913 1.81358 14.6815C1.79644 14.6479 1.77533 14.5872 1.7631 14.4375C1.75039 14.2819 1.75 14.0783 1.75 13.7667V3.23333C1.75 2.92172 1.75039 2.71808 1.7631 2.56252C1.77533 2.41279 1.79644 2.35214 1.81358 2.31851C1.86951 2.20875 1.95875 2.11951 2.06851 2.06358C2.10214 2.04644 2.16279 2.02533 2.31252 2.0131C2.46808 2.00039 2.67172 2 2.98333 2H13.5167C13.8283 2 14.0319 2.00039 14.1875 2.0131C14.3372 2.02533 14.3979 2.04644 14.4315 2.06358C14.5413 2.11951 14.6305 2.20875 14.6864 2.31851C14.7036 2.35214 14.7247 2.41279 14.7369 2.56252C14.7496 2.71808 14.75 2.92172 14.75 3.23333ZM8.80474 16V20.8213C8.80474 21.1329 8.80513 21.3366 8.81784 21.4921C8.83007 21.6419 8.85118 21.7025 8.86832 21.7361C8.92425 21.8459 9.01349 21.9351 9.12325 21.9911C9.15688 22.0082 9.21753 22.0293 9.36726 22.0416C9.52282 22.0543 9.72646 22.0546 10.0381 22.0546H20.5714C20.883 22.0546 21.0867 22.0543 21.2422 22.0416C21.392 22.0293 21.4526 22.0082 21.4862 21.9911C21.596 21.9351 21.6852 21.8459 21.7412 21.7361C21.7583 21.7025 21.7794 21.6419 21.7916 21.4921C21.8044 21.3366 21.8047 21.1329 21.8047 20.8213V10.288C21.8047 9.97637 21.8044 9.77273 21.7916 9.61717C21.7794 9.46744 21.7583 9.40679 21.7412 9.37316C21.6852 9.26339 21.596 9.17416 21.4862 9.11823C21.4526 9.10109 21.392 9.07998 21.2422 9.06775C21.0867 9.05504 20.883 9.05465 20.5714 9.05465H15.75V13.7863C15.75 14.0729 15.75 14.3178 15.7336 14.5189C15.7163 14.7305 15.6784 14.9374 15.5774 15.1355C15.4256 15.4334 15.1834 15.6756 14.8855 15.8274C14.6874 15.9284 14.4805 15.9663 14.2689 15.9836C14.0678 16 13.8229 16 13.5363 16H8.80474Z" fill="black"/>
</svg>
