<svg width="24" height="24" viewBox="0 0 24 24" fill="none" xmlns="http://www.w3.org/2000/svg">
<path fill-rule="evenodd" clip-rule="evenodd" d="M1.35935 13.142C1.06189 12.4237 1.06182 11.6162 1.35935 10.8979L3.5781 5.54045C3.87572 4.82232 4.44681 4.25103 5.16502 3.95354L10.5224 1.73479C11.2407 1.43743 12.0484 1.43729 12.7666 1.73479L18.124 3.95354C18.8422 4.25109 19.4133 4.82225 19.7109 5.54045L21.9297 10.8979C22.2272 11.6161 22.227 12.4238 21.9297 13.142L19.7109 18.4994C19.4134 19.2177 18.8421 19.7887 18.124 20.0864L12.7666 22.3051C12.0483 22.6026 11.2408 22.6026 10.5224 22.3051L5.16502 20.0864C4.44664 19.7888 3.87566 19.2178 3.5781 18.4994L1.35935 13.142ZM2.28318 11.2807C2.08715 11.754 2.08721 12.2859 2.28318 12.7592L4.50193 18.1166C4.698 18.59 5.07448 18.9665 5.54783 19.1625L10.9053 21.3813C11.3786 21.5773 11.9105 21.5773 12.3838 21.3813L17.7412 19.1625C18.2143 18.9664 18.5911 18.5898 18.7871 18.1166L21.0058 12.7592C21.2017 12.286 21.2018 11.7539 21.0058 11.2807L18.7871 5.92326C18.591 5.45009 18.2144 5.07342 17.7412 4.87737L12.3838 2.65862C11.9106 2.46262 11.3785 2.46275 10.9052 2.65862L5.54783 4.87737C5.07465 5.07336 4.69806 5.45016 4.50193 5.92327L2.28318 11.2807Z" fill="black"/>
</svg>
