<svg width="24" height="24" viewBox="0 0 24 24" fill="none" xmlns="http://www.w3.org/2000/svg">
<path d="M1.35871 13.142C1.06141 12.424 1.06143 11.617 1.35871 10.8989L3.57844 5.54048C3.87605 4.82232 4.44712 4.25205 5.16535 3.95455L10.5228 1.73482C11.2411 1.4374 12.0486 1.4373 12.7669 1.73482L18.1243 3.95455C18.8423 4.25209 19.4127 4.82251 19.7103 5.54048L21.93 10.8989C22.2273 11.617 22.2273 12.4239 21.93 13.142L19.7103 18.4995C19.4128 19.2177 18.8425 19.7888 18.1243 20.0864L12.7659 22.3061C12.0478 22.6034 11.2409 22.6034 10.5228 22.3061L5.16535 20.0864C4.44697 19.7888 3.876 19.2178 3.57844 18.4995L1.35871 13.142Z" fill="black"/>
</svg>
