<svg width="24" height="24" viewBox="0 0 24 24" fill="none" xmlns="http://www.w3.org/2000/svg">
<path fill-rule="evenodd" clip-rule="evenodd" d="M1.3589 13.1421C1.06135 12.4237 1.06136 11.6163 1.3589 10.898L3.57765 5.54054C3.8752 4.82219 4.44622 4.2512 5.16457 3.95363L10.522 1.73488C11.2404 1.43733 12.0478 1.43734 12.7661 1.73488L18.1236 3.95363C18.8419 4.25119 19.4129 4.82217 19.7105 5.54054L21.9292 10.898C22.2268 11.6163 22.2268 12.4237 21.9292 13.1421L19.7105 18.4995C19.4129 19.2179 18.8419 19.7889 18.1236 20.0864L12.7661 22.3052C12.0478 22.6027 11.2403 22.6027 10.522 22.3052L5.16457 20.0864C4.44621 19.7889 3.87521 19.2179 3.57765 18.4995L1.3589 13.1421ZM3.66847 11.855C3.62477 11.9607 3.62476 12.0794 3.66847 12.1851L5.88722 17.5425C5.93104 17.6483 6.01581 17.733 6.1216 17.7769L11.479 19.9956C11.5847 20.0393 11.7034 20.0393 11.8091 19.9956L17.1665 17.7769C17.2723 17.7331 17.3571 17.6483 17.4009 17.5425L19.6196 12.1851C19.6634 12.0794 19.6634 11.9607 19.6196 11.855L17.4009 6.49758C17.3571 6.39177 17.2723 6.30703 17.1665 6.2632L11.8091 4.04445C11.7034 4.00075 11.5847 4.00073 11.479 4.04445L6.1216 6.2632C6.01582 6.30704 5.93104 6.39179 5.88722 6.49758L3.66847 11.855Z" fill="black"/>
</svg>
