<svg width="24" height="24" viewBox="0 0 24 24" fill="none" xmlns="http://www.w3.org/2000/svg">
<path fill-rule="evenodd" clip-rule="evenodd" d="M1.3589 13.1421C1.06135 12.4237 1.06136 11.6163 1.3589 10.898L3.57765 5.54054C3.8752 4.82219 4.44623 4.2512 5.16457 3.95363L10.522 1.73488C11.2403 1.43732 12.0478 1.43734 12.7661 1.73488L18.1235 3.95363C18.8419 4.25119 19.4129 4.82216 19.7105 5.54054L21.9292 10.898C22.2268 11.6163 22.2268 12.4237 21.9292 13.1421L19.7105 18.4995C19.4129 19.2179 18.8419 19.7889 18.1236 20.0864L12.7661 22.3052C12.0478 22.6027 11.2403 22.6027 10.522 22.3052L5.16457 20.0864C4.44622 19.7889 3.87521 19.2179 3.57765 18.4995L1.3589 13.1421ZM2.28273 11.2808C2.08669 11.7541 2.08667 12.286 2.28273 12.7593L4.50148 18.1167C4.69754 18.59 5.07406 18.9665 5.54738 19.1626L10.9048 21.3814C11.3781 21.5774 11.91 21.5774 12.3833 21.3814L17.7407 19.1626C18.2141 18.9666 18.5906 18.59 18.7866 18.1167L21.0054 12.7593C21.2015 12.2859 21.2015 11.7541 21.0054 11.2808L18.7866 5.92335C18.5906 5.45 18.2141 5.07352 17.7407 4.87746L12.3833 2.65871C11.91 2.46266 11.3781 2.46265 10.9048 2.65871L5.54738 4.87746C5.07407 5.07353 4.69754 5.45003 4.50148 5.92335L2.28273 11.2808Z" fill="black"/>
</svg>
