<svg width="24" height="24" viewBox="0 0 24 24" fill="none" xmlns="http://www.w3.org/2000/svg">
<path fill-rule="evenodd" clip-rule="evenodd" d="M1.35935 13.142C1.06189 12.4237 1.06182 11.6162 1.35935 10.8979L3.5781 5.54045C3.87572 4.82232 4.44681 4.25103 5.16502 3.95354L10.5224 1.73479C11.2407 1.43743 12.0484 1.43729 12.7666 1.73479L18.124 3.95354C18.8422 4.25109 19.4133 4.82225 19.7109 5.54045L21.9297 10.8979C22.2272 11.6161 22.227 12.4238 21.9297 13.142L19.7109 18.4994C19.4134 19.2176 18.8421 19.7887 18.124 20.0863L12.7666 22.3051C12.0483 22.6026 11.2408 22.6026 10.5224 22.3051L5.16502 20.0863C4.44664 19.7888 3.87566 19.2178 3.5781 18.4994L1.35935 13.142ZM3.20701 11.6635C3.11253 11.8917 3.1126 12.1482 3.20701 12.3764L5.42576 17.7338C5.52033 17.9621 5.70232 18.1441 5.93064 18.2387L11.2881 20.4574C11.5163 20.5519 11.7728 20.5519 12.001 20.4574L17.3584 18.2387C17.5865 18.1441 17.7688 17.962 17.8633 17.7338L20.082 12.3764C20.1763 12.1483 20.1764 11.8916 20.082 11.6635L17.8633 6.30608C17.7687 6.07793 17.5865 5.89576 17.3584 5.80119L12.001 3.58244C11.7729 3.48801 11.5162 3.48814 11.2881 3.58244L5.93064 5.80119C5.70249 5.8957 5.52039 6.078 5.42576 6.30608L3.20701 11.6635Z" fill="black"/>
</svg>
