<svg width="24" height="24" viewBox="0 0 24 24" fill="none" xmlns="http://www.w3.org/2000/svg">
<path fill-rule="evenodd" clip-rule="evenodd" d="M11.0004 7.50012H10.0004V9.50012H13.3094L13.6899 10.2611C14.0179 10.917 14.7719 11.2396 15.4727 11.024L20.4252 9.50012H22.5004C22.7766 9.50012 23.0004 9.72398 23.0004 10.0001C23.0004 10.2763 22.7766 10.5001 22.5004 10.5001H20.7466L16.4972 16.0244C16.0239 16.6396 15.2918 17.0001 14.5156 17.0001H7.00042C5.61971 17.0001 4.50042 15.8808 4.50042 14.5001V13.7772L1.89004 12.1458C1.01733 11.6003 0.610989 10.5431 0.893716 9.55357C1.30214 8.1241 2.93541 7.44758 4.235 8.16957L6.66915 9.52188C6.77753 9.50753 6.88811 9.50012 7.00042 9.50012H9.00042V7.50012H8.00042C7.72428 7.50012 7.50042 7.27626 7.50042 7.00012C7.50042 6.72398 7.72428 6.50012 8.00042 6.50012H11.0004C11.2766 6.50012 11.5004 6.72398 11.5004 7.00012C11.5004 7.27626 11.2766 7.50012 11.0004 7.50012ZM5.48776 10.0095L3.74935 9.04373C3.01264 8.63444 2.08677 9.01795 1.85524 9.82829C1.69497 10.3892 1.92531 10.9886 2.42004 11.2978L4.50042 12.598V12.0001C4.50042 11.1879 4.88775 10.4662 5.48776 10.0095Z" fill="black"/>
<path d="M21.8583 13.5201C21.9475 13.4895 22.0528 13.4895 22.1421 13.5201C22.2499 13.5571 22.3245 13.6393 22.3724 13.692L22.3855 13.7064C22.5668 13.903 22.8393 14.2186 23.068 14.5696C23.29 14.9102 23.5002 15.3276 23.5002 15.7179C23.5002 16.5581 22.8345 17.25 22.0002 17.25C21.1658 17.25 20.5002 16.5581 20.5002 15.7179C20.5002 15.3276 20.7104 14.9102 20.9324 14.5696C21.1611 14.2186 21.4336 13.903 21.6149 13.7064L21.628 13.692C21.6758 13.6393 21.7504 13.5571 21.8583 13.5201Z" fill="black"/>
</svg>
