<svg width="24" height="24" viewBox="0 0 24 24" fill="none" xmlns="http://www.w3.org/2000/svg">
<path fill-rule="evenodd" clip-rule="evenodd" d="M9.7504 7.25012H11.0004C11.1385 7.25012 11.2504 7.13819 11.2504 7.00012C11.2504 6.86205 11.1385 6.75012 11.0004 6.75012H8.0004C7.86233 6.75012 7.7504 6.86205 7.7504 7.00012C7.7504 7.13819 7.86233 7.25012 8.0004 7.25012H9.2504V9.75012H7.0004C6.8715 9.75012 6.74514 9.76096 6.62216 9.78178L4.11356 8.38811C2.95469 7.74429 1.49827 8.34756 1.13408 9.62225C0.881963 10.5047 1.2443 11.4474 2.02252 11.9338L4.7504 13.6387V14.5001C4.7504 15.7428 5.75776 16.7501 7.0004 16.7501H14.5156C15.2142 16.7501 15.8731 16.4257 16.299 15.872L20.6235 10.2501H22.5004C22.6385 10.2501 22.7504 10.1382 22.7504 10.0001C22.7504 9.86205 22.6385 9.75012 22.5004 9.75012H20.4628L15.5462 11.2629C14.7286 11.5145 13.8489 11.1381 13.4663 10.3729L13.1549 9.75012H9.7504V7.25012ZM3.87074 8.82519L5.97744 9.99558C5.24904 10.368 4.7504 11.1258 4.7504 12.0001V13.0491L2.28752 11.5098C1.6983 11.1415 1.42395 10.4277 1.61484 9.75961C1.89059 8.79449 2.99331 8.33773 3.87074 8.82519ZM5.2504 14.5001C5.2504 15.4666 6.03391 16.2501 7.0004 16.2501H14.5156C15.0589 16.2501 15.5714 15.9978 15.9027 15.5671L19.8236 10.4699L15.6933 11.7408C14.642 12.0643 13.511 11.5803 13.0191 10.5965L12.8459 10.2501H7.0004C6.03391 10.2501 5.2504 11.0336 5.2504 12.0001V14.5001Z" fill="black"/>
<path fill-rule="evenodd" clip-rule="evenodd" d="M22.1421 13.5201C22.0528 13.4895 21.9475 13.4895 21.8583 13.5201C21.7504 13.5571 21.6758 13.6393 21.628 13.692L21.6148 13.7064C21.4336 13.903 21.1611 14.2186 20.9324 14.5696C20.7104 14.9102 20.5002 15.3276 20.5002 15.7179C20.5002 16.5581 21.1658 17.25 22.0002 17.25C22.8345 17.25 23.5002 16.5581 23.5002 15.7179C23.5002 15.3276 23.29 14.9102 23.068 14.5696C22.8393 14.2186 22.5668 13.903 22.3855 13.7064L22.3723 13.692C22.3245 13.6393 22.2499 13.5571 22.1421 13.5201ZM21.9824 14.0454L22.0002 14.0262L22.0179 14.0454C22.1902 14.2322 22.4419 14.5247 22.6491 14.8426C22.8629 15.1707 23.0002 15.4827 23.0002 15.7179C23.0002 16.2939 22.5465 16.75 22.0002 16.75C21.4538 16.75 21.0002 16.2939 21.0002 15.7179C21.0002 15.4827 21.1374 15.1707 21.3512 14.8426C21.5584 14.5247 21.8101 14.2322 21.9824 14.0454Z" fill="black"/>
</svg>
