<svg width="24" height="24" viewBox="0 0 24 24" fill="none" xmlns="http://www.w3.org/2000/svg">
<path fill-rule="evenodd" clip-rule="evenodd" d="M11.0004 7.75012H10.2504V9.25012H13.464L13.9136 10.1493C14.1868 10.6959 14.8152 10.9647 15.3992 10.785L20.3877 9.25012H22.5004C22.9147 9.25012 23.2504 9.58591 23.2504 10.0001C23.2504 10.4143 22.9147 10.7501 22.5004 10.7501H20.8697L16.6954 16.1768C16.1748 16.8536 15.3694 17.2501 14.5156 17.2501H7.00044C5.48166 17.2501 4.25044 16.0189 4.25044 14.5001V13.9158L1.75756 12.3578C0.790353 11.7533 0.340016 10.5816 0.653356 9.48489C1.106 7.90063 2.91612 7.15086 4.35643 7.95103L6.72018 9.26423C6.81233 9.2549 6.90583 9.25012 7.00044 9.25012H8.75044V7.75012H8.00044C7.58623 7.75012 7.25044 7.41434 7.25044 7.00012C7.25044 6.58591 7.58623 6.25012 8.00044 6.25012H11.0004C11.4147 6.25012 11.7504 6.58591 11.7504 7.00012C11.7504 7.41434 11.4147 7.75012 11.0004 7.75012ZM5.05591 10.0556L3.62796 9.26227C3.03197 8.93116 2.28294 9.24141 2.09564 9.89698C1.96598 10.3508 2.15233 10.8356 2.55256 11.0858L4.25044 12.1469V12.0001C4.25044 11.2407 4.55825 10.5532 5.05591 10.0556Z" fill="black"/>
<path d="M21.8583 13.5201C21.9476 13.4895 22.0528 13.4895 22.1421 13.5201C22.25 13.5571 22.3246 13.6393 22.3724 13.692L22.3855 13.7064C22.5668 13.903 22.8393 14.2186 23.068 14.5696C23.29 14.9102 23.5002 15.3276 23.5002 15.7179C23.5002 16.5581 22.8346 17.25 22.0002 17.25C21.1658 17.25 20.5002 16.5581 20.5002 15.7179C20.5002 15.3276 20.7104 14.9102 20.9324 14.5696C21.1611 14.2186 21.4336 13.903 21.6149 13.7064L21.628 13.692C21.6758 13.6393 21.7504 13.5571 21.8583 13.5201Z" fill="black"/>
</svg>
