<svg width="24" height="24" viewBox="0 0 24 24" fill="none" xmlns="http://www.w3.org/2000/svg">
<path fill-rule="evenodd" clip-rule="evenodd" d="M10.2504 7.75012H11.0004C11.4147 7.75012 11.7504 7.41434 11.7504 7.00012C11.7504 6.58591 11.4147 6.25012 11.0004 6.25012H8.00044C7.58623 6.25012 7.25044 6.58591 7.25044 7.00012C7.25044 7.41434 7.58623 7.75012 8.00044 7.75012H8.75044V9.25012H7.00044C6.90583 9.25012 6.81233 9.2549 6.72018 9.26423L4.35643 7.95103C2.91612 7.15086 1.106 7.90063 0.653356 9.48489C0.340016 10.5816 0.790353 11.7533 1.75756 12.3578L4.25044 13.9158V14.5001C4.25044 16.0189 5.48166 17.2501 7.00044 17.2501H14.5156C15.3694 17.2501 16.1748 16.8536 16.6954 16.1768L20.8697 10.7501H22.5004C22.9147 10.7501 23.2504 10.4143 23.2504 10.0001C23.2504 9.58591 22.9147 9.25012 22.5004 9.25012H20.3877L15.3992 10.785C14.8152 10.9647 14.1868 10.6959 13.9136 10.1493L13.464 9.25012H10.2504V7.75012ZM3.62796 9.26227L5.05591 10.0556C4.55825 10.5532 4.25044 11.2407 4.25044 12.0001V12.1469L2.55256 11.0858C2.15233 10.8356 1.96598 10.3508 2.09564 9.89698C2.28294 9.24141 3.03197 8.93116 3.62796 9.26227ZM5.75044 13.4886C5.75058 13.4967 5.75058 13.5049 5.75044 13.5131V14.5001C5.75044 15.1905 6.31009 15.7501 7.00044 15.7501H14.5156C14.9037 15.7501 15.2698 15.5699 15.5064 15.2623L18.47 11.4096L15.8403 12.2187C14.5555 12.614 13.1731 12.0225 12.5719 10.8201L12.5369 10.7501H7.00044C6.31009 10.7501 5.75044 11.3098 5.75044 12.0001V13.4886Z" fill="black"/>
<path fill-rule="evenodd" clip-rule="evenodd" d="M22.3043 13.0471C22.1099 12.9805 21.8905 12.9805 21.6961 13.0471C21.4484 13.1321 21.2829 13.3258 21.2519 13.3622L21.2473 13.3674C21.0571 13.5737 20.7638 13.9125 20.5135 14.2966C20.2833 14.6498 20.0002 15.1725 20.0002 15.7179C20.0002 16.8222 20.8778 17.75 22.0002 17.75C23.1226 17.75 24.0002 16.8222 24.0002 15.7179C24.0002 15.1725 23.7171 14.6498 23.4869 14.2966C23.2366 13.9125 22.9433 13.5737 22.7531 13.3674L22.7485 13.3622C22.7175 13.3258 22.552 13.1321 22.3043 13.0471ZM21.7702 15.1156C21.8422 15.005 21.9211 14.8968 22.0002 14.7954C22.0793 14.8968 22.1582 15.005 22.2302 15.1156C22.4359 15.4311 22.5002 15.6377 22.5002 15.7179C22.5002 16.0298 22.2586 16.25 22.0002 16.25C21.7418 16.25 21.5002 16.0298 21.5002 15.7179C21.5002 15.6377 21.5645 15.4311 21.7702 15.1156Z" fill="black"/>
</svg>
