<svg width="24" height="24" viewBox="0 0 24 24" fill="none" xmlns="http://www.w3.org/2000/svg">
<path fill-rule="evenodd" clip-rule="evenodd" d="M11.0004 7.25012H9.7504V9.75012H13.1549L13.4663 10.3729C13.8489 11.1381 14.7286 11.5145 15.5462 11.2629L20.4628 9.75012H22.5004C22.6385 9.75012 22.7504 9.86205 22.7504 10.0001C22.7504 10.1382 22.6385 10.2501 22.5004 10.2501H20.6235L16.299 15.872C15.8731 16.4257 15.2142 16.7501 14.5156 16.7501H7.0004C5.75776 16.7501 4.7504 15.7428 4.7504 14.5001V13.6387L2.02252 11.9338C1.2443 11.4474 0.881963 10.5047 1.13408 9.62225C1.49827 8.34756 2.95469 7.74429 4.11356 8.38811L6.62181 9.78158C6.74479 9.76077 6.8715 9.75012 7.0004 9.75012H9.2504V7.25012H8.0004C7.86233 7.25012 7.7504 7.13819 7.7504 7.00012C7.7504 6.86205 7.86233 6.75012 8.0004 6.75012H11.0004C11.1385 6.75012 11.2504 6.86205 11.2504 7.00012C11.2504 7.13819 11.1385 7.25012 11.0004 7.25012ZM5.97744 9.99558L3.87074 8.82519C2.99331 8.33773 1.89059 8.79449 1.61484 9.75961C1.42395 10.4277 1.6983 11.1415 2.28752 11.5098L4.7504 13.0491V12.0001C4.7504 11.1258 5.24904 10.368 5.97744 9.99558Z" fill="black"/>
<path d="M21.8583 13.5201C21.9475 13.4895 22.0528 13.4895 22.1421 13.5201C22.2499 13.5571 22.3245 13.6393 22.3723 13.692L22.3855 13.7064C22.5668 13.903 22.8393 14.2186 23.068 14.5696C23.29 14.9102 23.5002 15.3276 23.5002 15.7179C23.5002 16.5581 22.8345 17.25 22.0002 17.25C21.1658 17.25 20.5002 16.5581 20.5002 15.7179C20.5002 15.3276 20.7104 14.9102 20.9324 14.5696C21.1611 14.2186 21.4336 13.903 21.6148 13.7064L21.628 13.692C21.6758 13.6393 21.7504 13.5571 21.8583 13.5201Z" fill="black"/>
</svg>
