<svg width="25" height="24" viewBox="0 0 25 24" fill="none" xmlns="http://www.w3.org/2000/svg">
<path fill-rule="evenodd" clip-rule="evenodd" d="M8.50047 8.00012V9.00012H7.00047C6.9245 9.00012 6.8492 9.00295 6.77466 9.00849L4.47786 7.73249C2.89683 6.85414 0.909865 7.67717 0.412996 9.41621C0.069042 10.6201 0.563378 11.9062 1.62508 12.5698L4.00047 14.0544V14.5001C4.00047 16.157 5.34361 17.5001 7.00047 17.5001H14.5157C15.4471 17.5001 16.3256 17.0675 16.8935 16.3293L20.9929 11.0001H22.5005C23.0527 11.0001 23.5005 10.5524 23.5005 10.0001C23.5005 9.44784 23.0527 9.00012 22.5005 9.00012H20.3501L15.3257 10.5461C14.8585 10.6898 14.3558 10.4748 14.1372 10.0375L13.6185 9.00012H10.5005V8.00012H11.0005C11.5528 8.00012 12.0005 7.55241 12.0005 7.00012C12.0005 6.44784 11.5528 6.00012 11.0005 6.00012H8.00047C7.44818 6.00012 7.00047 6.44784 7.00047 7.00012C7.00047 7.55241 7.44818 8.00012 8.00047 8.00012H8.50047ZM3.50657 9.48081L4.66088 10.1221C4.30562 10.5641 4.07303 11.1089 4.01481 11.7048L2.68508 10.8738C2.37935 10.6827 2.237 10.3123 2.33604 9.96566C2.47912 9.46488 3.0513 9.22787 3.50657 9.48081ZM6.00047 13.4847C6.00064 13.4956 6.00064 13.5065 6.00047 13.5174V14.5001C6.00047 15.0524 6.44818 15.5001 7.00047 15.5001H14.5157C14.8261 15.5001 15.119 15.3559 15.3083 15.1098L17.7933 11.8794L15.9139 12.4576C14.5367 12.8814 13.0569 12.2659 12.3835 11.0001H7.00047C6.44818 11.0001 6.00047 11.4478 6.00047 12.0001V13.4847Z" fill="black"/>
<path fill-rule="evenodd" clip-rule="evenodd" d="M22.3448 12.9289C22.1242 12.8532 21.8763 12.8532 21.6556 12.9289C21.3664 13.0281 21.1761 13.2578 21.157 13.2809L21.1555 13.2827C20.963 13.4914 20.6645 13.836 20.4088 14.2283C20.1766 14.5846 19.8752 15.1337 19.8752 15.7179C19.8752 16.8882 20.8059 17.875 22.0002 17.875C23.1946 17.875 24.1252 16.8882 24.1252 15.7179C24.1252 15.1337 23.8239 14.5846 23.5916 14.2283C23.336 13.836 23.0375 13.4914 22.845 13.2827L22.8434 13.2809C22.8244 13.2578 22.634 13.0281 22.3448 12.9289ZM21.8749 15.1838C21.9149 15.1225 21.957 15.0619 22.0002 15.0027C22.0434 15.0619 22.0856 15.1225 22.1255 15.1838C22.2152 15.3214 22.2832 15.4465 22.3267 15.5525C22.3481 15.6044 22.3609 15.6455 22.3681 15.6759C22.3746 15.7034 22.3752 15.7168 22.3752 15.718C22.3752 15.9638 22.1866 16.125 22.0002 16.125C21.8139 16.125 21.6253 15.9638 21.6252 15.7181C21.6252 15.7181 21.6256 15.7048 21.6324 15.6759C21.6395 15.6455 21.6524 15.6044 21.6737 15.5525C21.7173 15.4465 21.7852 15.3214 21.8749 15.1838Z" fill="black"/>
</svg>
