<svg width="24" height="24" viewBox="0 0 24 24" fill="none" xmlns="http://www.w3.org/2000/svg">
<path d="M12 2.25C6.88474 2.25 3 5.4138 3 10.25C3 11.9169 3.82111 13.6367 5.15408 15.3888C6.47992 17.1315 8.21531 18.7832 9.86624 20.3187C11.1976 21.5569 10.314 23.75 8.51334 23.75H1V19.9122H3V21.75H8.46852C6.83657 20.2317 4.99577 18.4838 3.56237 16.5997C2.12565 14.7113 1 12.5614 1 10.25C1 4.04051 6.06957 0.25 12 0.25C17.9304 0.25 23 4.04051 23 10.25C23 12.5614 21.8743 14.7113 20.4376 16.5997C19.0042 18.4838 17.1634 20.2317 15.5315 21.75H21V19.9122H23V23.75H15.4867C13.686 23.75 12.8024 21.5569 14.1338 20.3187C15.7847 18.7832 17.5201 17.1315 18.8459 15.3888C20.1789 13.6367 21 11.9169 21 10.25C21 5.4138 17.1153 2.25 12 2.25Z" fill="black"/>
</svg>
