<svg width="24" height="24" viewBox="0 0 24 24" fill="none" xmlns="http://www.w3.org/2000/svg">
<path d="M12 2C6.78284 2 2.75 5.24214 2.75 10.25C2.75 11.9975 3.60918 13.771 4.95512 15.5401C6.2957 17.3022 8.04633 18.9674 9.69598 20.5017C10.8594 21.5838 10.0891 23.5 8.51334 23.5H1.25V19.9122H2.75V22H8.51334C8.73945 22 8.8304 21.7452 8.67442 21.6001C7.0324 20.0729 5.19043 18.3268 3.76133 16.4484C2.33758 14.577 1.25 12.4808 1.25 10.25C1.25 4.21217 6.17146 0.5 12 0.5C17.8285 0.5 22.75 4.21217 22.75 10.25C22.75 12.4808 21.6624 14.577 20.2387 16.4484C18.8096 18.3268 16.9676 20.0729 15.3256 21.6001C15.1696 21.7452 15.2605 22 15.4867 22H21.25V19.9122H22.75V23.5H15.4867C13.9109 23.5 13.1406 21.5838 14.304 20.5017C15.9537 18.9674 17.7043 17.3022 19.0449 15.5401C20.3908 13.771 21.25 11.9975 21.25 10.25C21.25 5.24214 17.2172 2 12 2Z" fill="black"/>
</svg>
