<svg width="24" height="24" viewBox="0 0 24 24" fill="none" xmlns="http://www.w3.org/2000/svg">
<path d="M12 1.75C6.68095 1.75 2.5 5.07047 2.5 10.25C2.5 12.078 3.39725 13.9054 4.75615 15.6915C6.11149 17.473 7.87734 19.1517 9.52572 20.6848C10.5212 21.6107 9.86412 23.25 8.51334 23.25H1.5V19.9122H2.5V22.25H8.51334C8.96439 22.25 9.16856 21.7183 8.84468 21.417C7.20139 19.8887 5.37464 18.156 3.96029 16.297C2.54952 14.4427 1.5 12.4003 1.5 10.25C1.5 4.38383 6.27336 0.75 12 0.75C17.7266 0.75 22.5 4.38383 22.5 10.25C22.5 12.4003 21.4505 14.4427 20.0397 16.297C18.6254 18.156 16.7986 19.8887 15.1553 21.417C14.8314 21.7183 15.0356 22.25 15.4867 22.25H21.5V19.9122H22.5V23.25H15.4867C14.1359 23.25 13.4788 21.6107 14.4743 20.6848C16.1227 19.1517 17.8885 17.473 19.2438 15.6915C20.6028 13.9054 21.5 12.078 21.5 10.25C21.5 5.07047 17.3191 1.75 12 1.75Z" fill="black"/>
</svg>
