<svg width="24" height="24" viewBox="0 0 24 24" fill="none" xmlns="http://www.w3.org/2000/svg">
<path fill-rule="evenodd" clip-rule="evenodd" d="M21 0C22.6569 0 24 1.34315 24 3V21C24 22.6569 22.6569 24 21 24H3C1.34315 24 0 22.6569 0 21V3C0 1.34315 1.34315 0 3 0H21ZM5.5 17.5V20H8V17.5H5.5ZM9.5 17.5V20H12V17.5H9.5ZM13.5 17.5V20H16V17.5H13.5ZM17.5 17.5V20H20V17.5H17.5ZM9.5 13.5V16H12V13.5H9.5ZM13.5 13.5V16H16V13.5H13.5ZM17.5 13.5V16H20V13.5H17.5ZM13.5 9.5V12H16V9.5H13.5ZM17.5 9.5V12H20V9.5H17.5ZM17.5 5.5V8H20V5.5H17.5Z" fill="black"/>
</svg>
