<svg width="24" height="24" viewBox="0 0 24 24" fill="none" xmlns="http://www.w3.org/2000/svg">
<path d="M7.5 19.5H6V18H7.5V19.5Z" fill="black"/>
<path d="M11.5 19.5H10V18H11.5V19.5Z" fill="black"/>
<path d="M15.5 19.5H14V18H15.5V19.5Z" fill="black"/>
<path d="M19.5 19.5H18V18H19.5V19.5Z" fill="black"/>
<path d="M11.5 15.5H10V14H11.5V15.5Z" fill="black"/>
<path d="M15.5 15.5H14V14H15.5V15.5Z" fill="black"/>
<path d="M19.5 15.5H18V14H19.5V15.5Z" fill="black"/>
<path d="M15.5 11.5H14V10H15.5V11.5Z" fill="black"/>
<path d="M19.5 11.5H18V10H19.5V11.5Z" fill="black"/>
<path d="M19.5 7.5H18V6H19.5V7.5Z" fill="black"/>
<path fill-rule="evenodd" clip-rule="evenodd" d="M21 0.5C22.3807 0.5 23.5 1.61929 23.5 3V21C23.5 22.3807 22.3807 23.5 21 23.5H3C1.61929 23.5 0.5 22.3807 0.5 21V3C0.5 1.61929 1.61929 0.5 3 0.5H21ZM3 1.5C2.17157 1.5 1.5 2.17157 1.5 3V21C1.5 21.8284 2.17157 22.5 3 22.5H21C21.8284 22.5 22.5 21.8284 22.5 21V3C22.5 2.17157 21.8284 1.5 21 1.5H3Z" fill="black"/>
</svg>
