<svg width="24" height="24" viewBox="0 0 24 24" fill="none" xmlns="http://www.w3.org/2000/svg">
<path d="M8 20H6V18H8V20Z" fill="black"/>
<path d="M12 20H10V18H12V20Z" fill="black"/>
<path d="M16 20H14V18H16V20Z" fill="black"/>
<path d="M20 20H18V18H20V20Z" fill="black"/>
<path d="M12 16H10V14H12V16Z" fill="black"/>
<path d="M16 16H14V14H16V16Z" fill="black"/>
<path d="M20 16H18V14H20V16Z" fill="black"/>
<path d="M16 12H14V10H16V12Z" fill="black"/>
<path d="M20 12H18V10H20V12Z" fill="black"/>
<path d="M20 8H18V6H20V8Z" fill="black"/>
<path fill-rule="evenodd" clip-rule="evenodd" d="M21 0.25C22.5188 0.25 23.75 1.48122 23.75 3V21C23.75 22.5188 22.5188 23.75 21 23.75H3C1.48122 23.75 0.25 22.5188 0.25 21V3C0.25 1.48122 1.48122 0.25 3 0.25H21ZM3 1.75C2.30964 1.75 1.75 2.30964 1.75 3V21C1.75 21.6904 2.30964 22.25 3 22.25H21C21.6904 22.25 22.25 21.6904 22.25 21V3C22.25 2.30964 21.6904 1.75 21 1.75H3Z" fill="black"/>
</svg>
