<svg width="24" height="24" viewBox="0 0 24 24" fill="none" xmlns="http://www.w3.org/2000/svg">
<path fill-rule="evenodd" clip-rule="evenodd" d="M21 0.5C22.3807 0.5 23.5 1.61929 23.5 3V21C23.5 22.3807 22.3807 23.5 21 23.5H3C1.61929 23.5 0.5 22.3807 0.5 21V3C0.5 1.61929 1.61929 0.5 3 0.5H21ZM6 18V19.5H7.5V18H6ZM10 18V19.5H11.5V18H10ZM14 18V19.5H15.5V18H14ZM18 18V19.5H19.5V18H18ZM10 14V15.5H11.5V14H10ZM14 14V15.5H15.5V14H14ZM18 14V15.5H19.5V14H18ZM14 10V11.5H15.5V10H14ZM18 10V11.5H19.5V10H18ZM18 6V7.5H19.5V6H18Z" fill="black"/>
</svg>
