<svg width="24" height="24" viewBox="0 0 24 24" fill="none" xmlns="http://www.w3.org/2000/svg">
<path fill-rule="evenodd" clip-rule="evenodd" d="M1.37598 6.65237C1.37605 6.23822 1.71181 5.90237 2.12598 5.90237L3.75 5.90237V7.40237H8.58789L6.33984 9.64944L7.40039 10.71L10.8936 7.2178C11.2052 6.9055 11.2053 6.3992 10.8936 6.08694L7.40039 2.59377L6.33984 3.65432L8.58789 5.90237H3.75V5.14846C3.74997 4.62389 3.74994 4.18451 3.7793 3.82522C3.81033 3.44551 3.8781 3.0891 4.0498 2.75198C4.31346 2.23455 4.73452 1.81347 5.25195 1.54983C5.58909 1.37812 5.94547 1.31035 6.3252 1.27932C6.6845 1.24996 7.12384 1.24999 7.64844 1.25002L12.7881 1.25002C13.2113 1.24981 13.544 1.24962 13.8652 1.32717C14.1473 1.3953 14.4171 1.50777 14.6641 1.66018C14.9446 1.83338 15.1787 2.0693 15.4756 2.36916L15.5254 2.41994L19.6055 6.53616L19.6572 6.58791C19.9499 6.88286 20.1805 7.11574 20.3496 7.39358C20.4987 7.63858 20.6082 7.90564 20.6748 8.18459C20.7504 8.50145 20.7502 8.82968 20.75 9.24612V18.8516C20.75 19.3761 20.7501 19.8156 20.7207 20.1748C20.6897 20.5545 20.6219 20.9109 20.4502 21.2481C20.1865 21.7655 19.7655 22.1866 19.248 22.4502C18.9109 22.6219 18.5545 22.6897 18.1748 22.7207C17.8155 22.7501 17.3761 22.7501 16.8516 22.75H7.64844C7.12392 22.7501 6.68446 22.7501 6.3252 22.7207C5.94547 22.6897 5.58909 22.6219 5.25195 22.4502C4.73452 22.1866 4.31345 21.7655 4.04981 21.2481C3.87811 20.9109 3.81033 20.5545 3.7793 20.1748C3.74995 19.8155 3.74997 19.3762 3.75 18.8516L3.75 7.40237L2.12598 7.40237C1.71176 7.40237 1.37598 7.06658 1.37598 6.65237ZM12.75 8.08401C12.75 8.36773 12.7501 8.56567 12.7627 8.71975C12.7751 8.87101 12.7985 8.9586 12.832 9.02444C12.9039 9.16523 13.0184 9.27974 13.1592 9.35159C13.225 9.38513 13.3126 9.40856 13.4639 9.42092C13.618 9.43349 13.8159 9.43362 14.0996 9.43362L19.25 9.43362V9.3174C19.25 8.79607 19.2452 8.65629 19.2158 8.53323C19.1856 8.40643 19.1351 8.28522 19.0674 8.17385C19.0016 8.06575 18.9071 7.96317 18.54 7.5928L14.46 3.47561C14.0882 3.10052 13.9849 3.00378 13.876 2.93655C13.7639 2.86738 13.6417 2.81615 13.5137 2.78518C13.3916 2.75571 13.2532 2.75022 12.75 2.75002V8.08401Z" fill="black"/>
</svg>
