<svg width="25" height="24" viewBox="0 0 25 24" fill="none" xmlns="http://www.w3.org/2000/svg">
<path fill-rule="evenodd" clip-rule="evenodd" d="M13.167 0.749878C13.4868 0.752235 13.8003 0.766589 14.1074 0.840698C14.4408 0.921209 14.7599 1.05415 15.0518 1.23425C15.4102 1.45551 15.7008 1.76039 16.0049 2.06726L20.0859 6.18445C20.3865 6.48769 20.6848 6.77786 20.9014 7.13367C21.0775 7.42316 21.2074 7.73864 21.2861 8.06824C21.3587 8.37216 21.3727 8.68276 21.375 8.9989V18.7997C21.375 19.339 21.3761 19.8195 21.3438 20.2157C21.3102 20.6263 21.2341 21.0562 21.0205 21.4755C20.709 22.0868 20.2119 22.5838 19.6006 22.8954C19.1812 23.109 18.7515 23.185 18.3408 23.2186C17.9446 23.251 17.4642 23.2499 16.9248 23.2499H7.8252C7.28578 23.2499 6.80539 23.251 6.40918 23.2186C5.99852 23.185 5.56875 23.109 5.14941 22.8954C4.53811 22.5838 4.04104 22.0868 3.72949 21.4755C3.5159 21.0562 3.43983 20.6263 3.40625 20.2157C3.3739 19.8195 3.375 19.339 3.375 18.7997V11.9999H5.875V18.7997C5.875 19.3801 5.87633 19.7408 5.89844 20.0116C5.91925 20.2662 5.95247 20.3318 5.95703 20.3407C6.02887 20.4815 6.14342 20.596 6.28418 20.6678C6.29263 20.6722 6.35742 20.7055 6.61328 20.7264C6.88407 20.7486 7.24458 20.7499 7.8252 20.7499H16.9248C17.5054 20.7499 17.8659 20.7486 18.1367 20.7264C18.3925 20.7055 18.4573 20.6722 18.4658 20.6678C18.6066 20.596 18.7211 20.4815 18.793 20.3407C18.7975 20.3318 18.8307 20.2663 18.8516 20.0116C18.8737 19.7408 18.875 19.3801 18.875 18.7997V10.9335H14.2246C13.9655 10.9335 13.696 10.9346 13.4668 10.9159C13.2228 10.896 12.916 10.8476 12.6035 10.6884C12.1802 10.4726 11.8358 10.1283 11.6201 9.70496C11.4609 9.39246 11.4125 9.08569 11.3926 8.84167C11.3739 8.61246 11.375 8.34294 11.375 8.08386V3.24988H11.125V0.749878H13.167ZM13.875 8.08386C13.875 8.2249 13.8745 8.33585 13.876 8.43152C13.9719 8.433 14.083 8.43347 14.2246 8.43347H18.7656C18.7375 8.38732 18.693 8.33108 18.3096 7.94421L14.2295 3.82703C14.0528 3.64872 13.9446 3.54231 13.875 3.47644V8.08386Z" fill="black"/>
<path d="M5.11133 1.24109C5.59944 0.753078 6.39077 0.753123 6.87891 1.24109L10.3721 4.73425C10.8787 5.24192 10.8791 6.06476 10.3721 6.57214L6.87891 10.0643C6.39085 10.5521 5.59943 10.5521 5.11133 10.0643C4.62334 9.57625 4.62344 8.7849 5.11133 8.29675L6.50488 6.9032H1.25C0.560205 6.90283 0.000394619 6.34299 0 5.6532C2.44456e-08 4.96307 0.559961 4.40357 1.25 4.4032H6.50488L5.11133 3.00867C4.62336 2.52052 4.6233 1.7292 5.11133 1.24109Z" fill="black"/>
</svg>
