<svg width="24" height="24" viewBox="0 0 24 24" fill="none" xmlns="http://www.w3.org/2000/svg">
<path fill-rule="evenodd" clip-rule="evenodd" d="M0.751953 6C0.752118 4.75748 1.75943 3.75 3.00195 3.75L21 3.75C22.2426 3.75 23.25 4.75736 23.25 6V16C23.25 17.2426 22.2426 18.25 21 18.25L3 18.25C1.75747 18.2499 0.749998 17.2425 0.75 16L0.751953 6ZM4.57129 13.0293C4.4791 13.2604 4.5391 13.5222 4.71094 13.7021L5.70312 14.7393C6.02343 15.0742 6.16299 15.5365 6.16309 16C6.16309 16.4636 6.02345 16.9256 5.70312 17.2607L5.23438 17.75H8.03516C7.7983 17.2148 7.66602 16.6229 7.66602 16C7.66605 13.6069 9.60698 11.6672 12 11.667C14.393 11.6672 16.333 13.6069 16.333 16C16.333 16.6231 16.1999 17.2147 15.9629 17.75H18.7598C18.7486 17.7377 18.739 17.7239 18.7275 17.7119L18.2959 17.2607C17.9757 16.9256 17.835 16.4635 17.835 16C17.8351 15.5366 17.9757 15.0742 18.2959 14.7393L19.2881 13.7021C19.46 13.5221 19.5191 13.2604 19.4268 13.0293C19.1427 12.3198 18.7593 11.654 18.2871 11.0537C18.1332 10.8582 17.8765 10.779 17.6348 10.8379L16.2383 11.1787C15.7881 11.2884 15.3181 11.1782 14.917 10.9463C14.5157 10.7141 14.1857 10.362 14.0557 9.91699L13.6523 8.53906C13.5825 8.30029 13.3859 8.11765 13.1396 8.08203C12.3837 7.97276 11.6149 7.97267 10.8584 8.08203C10.6124 8.11792 10.4154 8.30037 10.3457 8.53906L9.94336 9.91699C9.81333 10.362 9.48334 10.7141 9.08203 10.9463C8.68082 11.1782 8.20998 11.2886 7.75977 11.1787L6.36426 10.8379C6.12245 10.779 5.86583 10.8581 5.71191 11.0537C5.2397 11.654 4.8553 12.3197 4.57129 13.0293Z" fill="black"/>
<path d="M5.75 20.25C5.75 20.1119 5.86194 20 6 20H18C18.1381 20 18.25 20.1119 18.25 20.25C18.25 20.3881 18.1381 20.5 18 20.5H6C5.86194 20.5 5.75 20.3881 5.75 20.25Z" fill="black"/>
</svg>
