<svg width="24" height="24" viewBox="0 0 24 24" fill="none" xmlns="http://www.w3.org/2000/svg">
<path fill-rule="evenodd" clip-rule="evenodd" d="M0.501953 5.75C0.502355 4.3696 1.62151 3.25 3.00195 3.25L21 3.25C22.3806 3.25 23.4998 4.36948 23.5 5.75V15.75C23.5 17.1307 22.3807 18.25 21 18.25L3 18.25C1.61939 18.2499 0.499996 17.1306 0.5 15.75L0.501953 5.75ZM4.57129 13.0303C4.47932 13.2613 4.53905 13.5233 4.71094 13.7031L5.70312 14.7402C6.0234 15.0752 6.163 15.5375 6.16309 16.001C6.16299 16.4594 6.02568 16.9159 5.71289 17.25H7.85059C7.73121 16.8545 7.66607 16.4354 7.66602 16.001C7.66602 13.6079 9.60694 11.6681 12 11.668C14.393 11.6682 16.333 13.6079 16.333 16.001C16.333 16.4356 16.2669 16.8544 16.1475 17.25H18.2852C17.9727 16.9159 17.8351 16.4591 17.835 16.001C17.835 15.5377 17.9759 15.0752 18.2959 14.7402L19.2881 13.7031C19.46 13.5232 19.519 13.2614 19.4268 13.0303C19.1428 12.3207 18.7593 11.655 18.2871 11.0547C18.1332 10.859 17.8766 10.78 17.6348 10.8389L16.2383 11.1797C15.7882 11.2893 15.3181 11.1792 14.917 10.9473C14.5157 10.7152 14.1858 10.3629 14.0557 9.91797L13.6523 8.54004C13.5825 8.30118 13.3859 8.11863 13.1396 8.08301C12.3837 7.97372 11.6149 7.97364 10.8584 8.08301C10.6124 8.1189 10.4154 8.30136 10.3457 8.54004L9.94336 9.91797C9.81324 10.3628 9.48319 10.7152 9.08203 10.9473C8.68086 11.1791 8.20991 11.2895 7.75977 11.1797L6.36426 10.8389C6.1224 10.7799 5.86586 10.8591 5.71191 11.0547C5.23981 11.6549 4.85525 12.3208 4.57129 13.0303Z" fill="black"/>
<path d="M5.5 20.25C5.50022 19.974 5.72399 19.75 6 19.75H18C18.276 19.75 18.4998 19.974 18.5 20.25C18.5 20.5261 18.2761 20.75 18 20.75H6C5.72386 20.75 5.5 20.5261 5.5 20.25Z" fill="black"/>
</svg>
