<svg width="24" height="24" viewBox="0 0 24 24" fill="none" xmlns="http://www.w3.org/2000/svg">
<path fill-rule="evenodd" clip-rule="evenodd" d="M0.00195269 5.25C0.00241204 3.59351 1.3454 2.25 3.00195 2.25L21 2.25C22.6567 2.25 23.9998 3.59335 24 5.25V15.25C24 16.9069 22.6569 18.25 21 18.25H3C1.34325 18.2499 -4.83676e-06 16.9067 0 15.25L0.00195269 5.25ZM4.57129 12.0303C4.47932 12.2613 4.53905 12.5233 4.71094 12.7031L5.70312 13.7402C6.0234 14.0752 6.163 14.5375 6.16309 15.001C6.16299 15.4594 6.02568 15.9159 5.71289 16.25H7.85059C7.7316 15.8543 7.66607 15.4353 7.66602 15.001C7.66602 12.6079 9.60694 10.6682 12 10.668C14.393 10.6682 16.333 12.6079 16.333 15.001C16.333 15.4355 16.2665 15.8543 16.1475 16.25H18.2852C17.9727 15.9159 17.8351 15.4591 17.835 15.001C17.835 14.5377 17.9759 14.0752 18.2959 13.7402L19.2881 12.7031C19.46 12.5232 19.519 12.2614 19.4268 12.0303C19.1428 11.3207 18.7593 10.655 18.2871 10.0547C18.1332 9.85904 17.8766 9.78 17.6348 9.83887L16.2383 10.1797C15.7882 10.2893 15.3181 10.1792 14.917 9.94727C14.5157 9.71518 14.1858 9.36287 14.0557 8.91797L13.6523 7.54004C13.5825 7.30118 13.3859 7.11863 13.1396 7.08301C12.3837 6.97372 11.6149 6.97364 10.8584 7.08301C10.6124 7.11891 10.4154 7.30136 10.3457 7.54004L9.94336 8.91797C9.81323 9.36275 9.48319 9.71519 9.08203 9.94727C8.68087 10.1791 8.20991 10.2895 7.75977 10.1797L6.36426 9.83887C6.12241 9.77995 5.86586 9.85907 5.71191 10.0547C5.23982 10.6549 4.85525 11.3208 4.57129 12.0303Z" fill="black"/>
<path d="M5 20.75C5.00024 20.1979 5.44786 19.75 6 19.75H18C18.5521 19.75 18.9998 20.1979 19 20.75C19 21.3023 18.5523 21.75 18 21.75H6C5.44772 21.75 5 21.3023 5 20.75Z" fill="black"/>
</svg>
