<svg width="25" height="24" viewBox="0 0 25 24" fill="none" xmlns="http://www.w3.org/2000/svg">
<path fill-rule="evenodd" clip-rule="evenodd" d="M0.00195269 4.75C0.00243142 2.95545 1.45734 1.5 3.25195 1.5L21.25 1.5C23.0448 1.5 24.4998 2.95528 24.5 4.75V14.75C24.5 16.5449 23.0449 18 21.25 18H3.25C1.45517 17.9999 -5.15403e-06 16.5448 0 14.75L0.00195269 4.75ZM4.82129 11.0303C4.72932 11.2613 4.78905 11.5233 4.96094 11.7031L5.95312 12.7402C6.2734 13.0752 6.413 13.5375 6.41309 14.001C6.41299 14.4644 6.27334 14.9267 5.95312 15.2617L5.72461 15.5H8.18262C8.01022 15.0329 7.91608 14.5279 7.91602 14.001C7.91602 11.6079 9.85694 9.66816 12.25 9.66797C14.643 9.66817 16.583 11.6079 16.583 14.001C16.5829 14.5281 16.4879 15.0328 16.3154 15.5H18.7734L18.5459 15.2617C18.2257 14.9267 18.0851 14.4644 18.085 14.001C18.085 13.5377 18.2259 13.0752 18.5459 12.7402L19.5381 11.7031C19.71 11.5232 19.769 11.2614 19.6768 11.0303C19.3928 10.3207 19.0093 9.65495 18.5371 9.05469C18.3832 8.85904 18.1266 8.78 17.8848 8.83887L16.4883 9.17969C16.0382 9.2893 15.5681 9.17919 15.167 8.94727C14.7657 8.71518 14.4358 8.36287 14.3057 7.91797L13.9023 6.54004C13.8325 6.30118 13.6359 6.11863 13.3896 6.08301C12.6337 5.97372 11.8649 5.97364 11.1084 6.08301C10.8624 6.11891 10.6654 6.30136 10.5957 6.54004L10.1934 7.91797C10.0632 8.36275 9.73319 8.71519 9.33203 8.94727C8.93087 9.17912 8.45991 9.28952 8.00977 9.17969L6.61426 8.83887C6.37241 8.77995 6.11586 8.85907 5.96191 9.05469C5.48982 9.65489 5.10525 10.3208 4.82129 11.0303Z" fill="black"/>
<path d="M5 21.25C5.00024 20.5598 5.55979 20 6.25 20H18.25C18.9402 20 19.4998 20.5598 19.5 21.25C19.5 21.9404 18.9404 22.5 18.25 22.5H6.25C5.55964 22.5 5 21.9404 5 21.25Z" fill="black"/>
</svg>
