<svg width="24" height="24" viewBox="0 0 24 24" fill="none" xmlns="http://www.w3.org/2000/svg">
<path fill-rule="evenodd" clip-rule="evenodd" d="M0.502319 5.75C0.502502 4.36942 1.62174 3.25 3.00232 3.25L21.0004 3.25C22.3809 3.2502 23.5004 4.36941 23.5004 5.75V15.75C23.5004 17.1306 22.3809 18.2498 21.0004 18.25L3.00037 18.25C1.61976 18.2499 0.500364 17.1306 0.500366 15.75L0.502319 5.75ZM1.50037 15.75C1.50036 16.5783 2.17205 17.2499 3.00037 17.25H4.93591L5.26501 16.9102C5.44853 16.7206 5.55801 16.4486 5.5824 16.1367L5.58728 16.001C5.58728 15.6319 5.47445 15.3072 5.26501 15.0908L4.26013 14.0537C3.95693 13.7404 3.84019 13.2661 4.01501 12.835C4.32086 12.0826 4.73384 11.3768 5.24158 10.7402C5.52624 10.3835 5.98559 10.2505 6.40173 10.3506L7.82947 10.6943C8.09067 10.757 8.38436 10.7149 8.66931 10.5801L8.79138 10.5156C9.11877 10.3282 9.35234 10.0632 9.4408 9.76563L9.84509 8.39844C9.96752 7.98632 10.3149 7.65334 10.7699 7.58789C11.5852 7.47127 12.4151 7.47127 13.2299 7.58789C13.6275 7.64525 13.9433 7.90722 14.098 8.24805L14.1547 8.39844L14.559 9.76563C14.6476 10.0638 14.8804 10.3296 15.2074 10.5166C15.5298 10.7008 15.8713 10.7662 16.1703 10.6943L17.597 10.3506C18.0134 10.2504 18.4726 10.3835 18.7572 10.7402C19.2648 11.3766 19.6787 12.0822 19.9847 12.835C20.1597 13.2671 20.041 13.7413 19.7386 14.0537L18.7347 15.0908C18.5248 15.3077 18.4115 15.6327 18.4115 16.001L18.4164 16.1367C18.4409 16.4481 18.5508 16.7202 18.7347 16.9102L19.0629 17.25H21.0004C21.8286 17.2498 22.5004 16.5783 22.5004 15.75V5.75C22.5004 4.92169 21.8286 4.2502 21.0004 4.25L3.00232 4.25C2.17397 4.25 1.50243 4.92165 1.50232 5.75L1.50037 15.75ZM4.9408 13.2119C4.92592 13.2497 4.93059 13.3085 4.97888 13.3584L5.98376 14.3955C6.41824 14.8444 6.58728 15.4442 6.58728 16.001L6.57947 16.2119C6.55178 16.5674 6.44963 16.9285 6.25427 17.25H8.69568C8.54516 16.8621 8.46136 16.4412 8.4613 16C8.46154 14.0612 10.0523 12.5011 12.0004 12.501C13.9481 12.5014 15.5392 14.0613 15.5394 16C15.5394 16.4412 15.4544 16.862 15.3041 17.25H17.7416C17.508 16.8652 17.4116 16.4216 17.4115 16.001L17.4193 15.79C17.4579 15.2957 17.6362 14.7878 18.016 14.3955L19.0199 13.3584C19.0688 13.3078 19.0733 13.2487 19.059 13.2119L18.9535 12.9648C18.6968 12.3934 18.3681 11.8549 17.976 11.3633C17.9508 11.3318 17.8978 11.3074 17.8314 11.3232L16.4047 11.667C15.7992 11.8127 15.1966 11.6612 14.7113 11.3838C14.2208 11.1032 13.7793 10.6534 13.6 10.0488L13.1957 8.68359L13.1761 8.63965C13.1524 8.60215 13.1172 8.58257 13.0873 8.57813C12.3668 8.47504 11.6336 8.47503 10.9125 8.57813C10.8729 8.58392 10.8239 8.61678 10.8041 8.68359L10.3998 10.0488C10.2204 10.654 9.77738 11.1035 9.28748 11.3838C8.80263 11.6608 8.20023 11.8124 7.59509 11.667L6.16736 11.3232C6.10091 11.3074 6.0479 11.332 6.02283 11.3633C5.57496 11.9248 5.21063 12.5481 4.9408 13.2119ZM9.4613 16C9.46139 16.4549 9.58481 16.8821 9.80212 17.25L14.1967 17.25C14.4137 16.8817 14.5393 16.4549 14.5394 16C14.5392 14.712 13.5455 13.6427 12.2611 13.5137L12.0004 13.501C10.5921 13.5011 9.4615 14.6258 9.4613 16Z" fill="black"/>
<path d="M5.50037 20.25C5.50037 19.9739 5.72422 19.75 6.00037 19.75H18.0004C18.2763 19.7502 18.5004 19.974 18.5004 20.25C18.5004 20.526 18.2763 20.7498 18.0004 20.75H6.00037C5.72422 20.75 5.50037 20.5261 5.50037 20.25Z" fill="black"/>
</svg>
