<svg width="24" height="24" viewBox="0 0 24 24" fill="none" xmlns="http://www.w3.org/2000/svg">
<path fill-rule="evenodd" clip-rule="evenodd" d="M0.0023189 5.25C0.0025392 3.5933 1.34562 2.25 3.00232 2.25L21.0004 2.25C22.657 2.25022 24.0004 3.59328 24.0004 5.25V15.25C24.0004 16.9067 22.657 18.2498 21.0004 18.25H3.00037C1.34361 18.2499 0.000362428 16.9067 0.000366211 15.25L0.0023189 5.25ZM2.00037 15.25C2.00037 15.8022 2.4482 16.2499 3.00037 16.25H4.23865L4.90564 15.5615C5.00316 15.4606 5.08719 15.2739 5.08728 15C5.08712 14.7262 5.00278 14.539 4.90564 14.4385L3.90173 13.4023C3.47025 12.9567 3.29613 12.2733 3.55115 11.6455L3.6781 11.3496C3.98608 10.6636 4.38026 10.0168 4.85095 9.42676L4.93103 9.33398C5.31962 8.91596 5.88291 8.75251 6.40662 8.84082L6.51892 8.86328L7.94665 9.20703C8.09244 9.24189 8.30241 9.2188 8.54333 9.08106C8.79011 8.93982 8.91853 8.76616 8.9613 8.62207L9.36462 7.25781C9.53907 6.6694 10.039 6.18741 10.6996 6.09277L11.0238 6.05273C11.7806 5.97184 12.5454 5.98493 13.2992 6.09277C13.9187 6.18156 14.3972 6.61033 14.598 7.14844L14.6342 7.25684L15.0385 8.62207C15.0815 8.76704 15.2101 8.94053 15.4554 9.08106C15.6965 9.2188 15.9072 9.24214 16.0531 9.20703L17.4799 8.86328C18.071 8.72093 18.7335 8.90818 19.1478 9.42676C19.6181 10.0164 20.0133 10.6631 20.3217 11.3496L20.4486 11.6455C20.7041 12.2755 20.527 12.9581 20.098 13.4014L19.0941 14.4385C18.9961 14.5397 18.9117 14.7272 18.9115 15C18.9116 15.2726 18.995 15.4593 19.0922 15.5605L19.5228 16.0049L19.5238 16.0059C19.5979 16.0825 19.6667 16.1649 19.7328 16.25H21.0004C21.5525 16.2498 22.0004 15.8022 22.0004 15.25V5.25C22.0004 4.69785 21.5525 4.25022 21.0004 4.25L3.00232 4.25C2.45009 4.25 2.00239 4.69777 2.00232 5.25L2.00037 15.25ZM6.34216 13.0469L6.34314 13.0479C6.88914 13.6122 7.08709 14.349 7.08728 15C7.08722 15.4047 7.01034 15.8416 6.82166 16.25H8.1615C8.03102 15.8573 7.9604 15.4373 7.96033 15C7.96059 12.7787 9.78249 11.0001 12.0004 11C14.2181 11.0005 16.0392 12.7791 16.0394 15C16.0394 15.4373 15.9677 15.8572 15.8373 16.25H17.1761C16.9876 15.8417 16.9116 15.4046 16.9115 15C16.9117 14.3475 17.111 13.6115 17.6566 13.0479L18.4994 12.1768C18.2915 11.7124 18.0326 11.2708 17.7279 10.8613L16.5219 11.1523C15.7631 11.3351 15.03 11.1413 14.4633 10.8174C13.8915 10.4902 13.3452 9.9485 13.1205 9.19043L12.7806 8.04297C12.2614 7.98613 11.7367 7.98602 11.2172 8.04297L10.8793 9.18945C10.6543 9.94877 10.1064 10.4909 9.53552 10.8174C8.96914 11.1412 8.23652 11.3348 7.47791 11.1523L6.2699 10.8613C5.9656 11.2705 5.70732 11.712 5.49939 12.1768L6.34216 13.0469ZM9.97107 15.2021C10.0117 15.5949 10.1698 15.9557 10.4105 16.25H13.5873C13.8692 15.9057 14.0393 15.4709 14.0394 15C14.0392 13.9764 13.2472 13.1145 12.2103 13.0107L12.0004 13C10.8618 13.0001 9.96059 13.9083 9.96033 15L9.97107 15.2021Z" fill="black"/>
<path d="M5.00037 20.75C5.00037 20.1977 5.44808 19.75 6.00037 19.75H18.0004C18.5525 19.7502 19.0004 20.1978 19.0004 20.75C19.0004 21.3022 18.5525 21.7498 18.0004 21.75H6.00037C5.44808 21.75 5.00037 21.3023 5.00037 20.75Z" fill="black"/>
</svg>
