<svg width="24" height="24" viewBox="0 0 24 24" fill="none" xmlns="http://www.w3.org/2000/svg">
<path fill-rule="evenodd" clip-rule="evenodd" d="M0.252319 5.5C0.252521 3.98136 1.48368 2.75 3.00232 2.75L21.0004 2.75C22.519 2.7502 23.7504 3.98134 23.7504 5.5V15.5C23.7504 17.0187 22.519 18.2498 21.0004 18.25L3.00037 18.25C1.48169 18.2499 0.250363 17.0187 0.250366 15.5L0.252319 5.5ZM1.75037 15.5C1.75037 16.1903 2.31012 16.7499 3.00037 16.75H5.07068L5.08533 16.7354C5.21961 16.5964 5.31156 16.3835 5.3324 16.1172L5.33728 16C5.33718 15.6779 5.23858 15.4219 5.08533 15.2637L4.08044 14.2266C3.71364 13.8473 3.5677 13.2698 3.78259 12.7402C4.09747 11.9657 4.52351 11.2384 5.04626 10.583L5.11365 10.5039C5.41823 10.1765 5.85176 10.0328 6.26892 10.0742L6.46033 10.1064L7.88806 10.4502C8.11026 10.5035 8.38555 10.4589 8.66736 10.2979C8.95434 10.1335 9.13601 9.91441 9.20154 9.69336L9.60583 8.32715C9.75414 7.82889 10.1759 7.42001 10.7347 7.33984C11.5736 7.21986 12.4267 7.21985 13.265 7.33984L13.3685 7.3584C13.8079 7.45619 14.1523 7.76052 14.3265 8.14453L14.3939 8.32715L14.7982 9.69336L14.8285 9.77637C14.9111 9.96913 15.0809 10.1545 15.3314 10.2979C15.6133 10.459 15.8891 10.5037 16.1117 10.4502L17.5385 10.1064C18.0421 9.98529 18.603 10.1453 18.9525 10.583C19.4751 11.2381 19.901 11.965 20.2162 12.7402C20.4316 13.2713 20.2839 13.8486 19.9183 14.2266L18.9144 15.2637C18.7605 15.4226 18.6616 15.6792 18.6615 16L18.6664 16.1172C18.6873 16.3828 18.7795 16.5959 18.9144 16.7354L18.9281 16.75H21.0004C21.6906 16.7498 22.2504 16.1902 22.2504 15.5V5.5C22.2504 4.80976 21.6906 4.2502 21.0004 4.25L3.00232 4.25C2.31203 4.25 1.75241 4.80971 1.75232 5.5L1.75037 15.5ZM6.16345 14.2207C6.65425 14.7276 6.83718 15.3963 6.83728 16L6.82849 16.2295C6.81509 16.4021 6.78401 16.5768 6.73669 16.75H8.28845C8.23864 16.5075 8.21131 16.2565 8.2113 15.999C8.21182 13.9192 9.91743 12.2501 12.0004 12.25C14.0829 12.2504 15.7889 13.9193 15.7894 15.999C15.7894 16.2566 15.7613 16.5074 15.7113 16.75H17.2621C17.1936 16.4996 17.1615 16.245 17.1615 16L17.1703 15.7705C17.2124 15.2306 17.4075 14.6636 17.8363 14.2207L18.7953 13.2295C18.5479 12.6403 18.2221 12.0856 17.8275 11.5801L16.4633 11.9092C15.7811 12.0735 15.1133 11.9014 14.5873 11.6006C14.0891 11.3157 13.6243 10.8621 13.4017 10.2451L13.3607 10.1191L12.974 8.81445C12.3277 8.72895 11.6716 8.72886 11.0248 8.81445L10.639 10.1191C10.4369 10.8013 9.94199 11.2971 9.4115 11.6006C8.88591 11.9009 8.2185 12.0732 7.5365 11.9092L6.17029 11.5801C5.77613 12.0854 5.45092 12.6408 5.20349 13.2305L6.16345 14.2207ZM9.7113 15.999C9.71131 16.2619 9.75813 16.5147 9.84314 16.75L14.1576 16.75C14.2425 16.5145 14.2894 16.2618 14.2894 15.999C14.289 14.8434 13.3964 13.878 12.2357 13.7617L12.0004 13.75C10.7271 13.7501 9.71177 14.7662 9.7113 15.999Z" fill="black"/>
<path d="M5.25037 20.5C5.25037 20.0858 5.58615 19.75 6.00037 19.75H18.0004C18.4144 19.7502 18.7504 20.0859 18.7504 20.5C18.7504 20.9141 18.4144 21.2498 18.0004 21.25H6.00037C5.58615 21.25 5.25037 20.9142 5.25037 20.5Z" fill="black"/>
</svg>
