<svg width="25" height="24" viewBox="0 0 25 24" fill="none" xmlns="http://www.w3.org/2000/svg">
<path fill-rule="evenodd" clip-rule="evenodd" d="M0.00195269 4.75C0.00219134 2.95524 1.4572 1.5 3.25195 1.5L21.25 1.5C23.0448 1.5002 24.5 2.9552 24.5 4.75V14.75C24.5 16.5448 23.0448 17.9998 21.25 18H3.25C1.45517 17.9999 -5.12507e-06 16.5448 0 14.75L0.00195269 4.75ZM2.5 14.75C2.5 15.1641 2.8359 15.4999 3.25 15.5H3.90625C3.92779 15.4753 3.9479 15.4494 3.9707 15.4258L4.97559 14.3877C5.01715 14.3446 5.08683 14.2264 5.08691 14C5.08676 13.7733 5.01677 13.655 4.97559 13.6123L3.97168 12.5762C3.47621 12.0646 3.27439 11.2779 3.56934 10.5518L3.7002 10.2471C4.01664 9.54226 4.42071 8.87779 4.9043 8.27148L4.99805 8.16309C5.47949 7.64545 6.19132 7.46808 6.82715 7.62109L8.25488 7.96484C8.32407 7.98148 8.46844 7.97884 8.66895 7.86426C8.87452 7.74655 8.95044 7.61921 8.9707 7.55176L9.37402 6.18652C9.57419 5.51078 10.1501 4.95517 10.9141 4.8457L11.2461 4.80371C12.0238 4.72053 12.8094 4.73488 13.584 4.8457C14.3002 4.94826 14.8511 5.44252 15.082 6.06055L15.123 6.18652L15.5273 7.55176C15.5479 7.6204 15.6254 7.74716 15.8301 7.86426C16.0301 7.9786 16.1746 7.98142 16.2441 7.96484L17.6709 7.62109L17.7998 7.59473C18.4447 7.48587 19.1447 7.70894 19.5938 8.27148C20.146 8.96384 20.5965 9.73208 20.9297 10.5518L20.9795 10.6895C21.1988 11.3781 20.9888 12.0982 20.5273 12.5752L19.5234 13.6123L19.5225 13.6133C19.4803 13.6572 19.4113 13.7757 19.4111 14C19.4112 14.2246 19.4797 14.3427 19.5215 14.3867L19.9521 14.8311L19.9531 14.832C20.1432 15.0284 20.3087 15.2547 20.4463 15.5H21.25C21.664 15.4998 22 15.1641 22 14.75V4.75C22 4.33591 21.664 4.0002 21.25 4L3.25195 4C2.83778 4 2.50201 4.33583 2.50195 4.75L2.5 14.75ZM6.77148 11.873L6.77246 11.874C7.37471 12.4964 7.58674 13.3018 7.58691 14C7.58686 14.4812 7.48594 15.0125 7.22656 15.5H8.23438C8.05718 15.0344 7.96004 14.529 7.95996 14C7.96019 11.6374 9.89715 9.75003 12.25 9.75C14.6028 9.75041 16.5388 11.6379 16.5391 14C16.539 14.5293 16.4402 15.0343 16.2627 15.5H17.2715C17.0122 15.0126 16.9112 14.4813 16.9111 14C16.9113 13.2999 17.1256 12.4946 17.7275 11.873L18.4502 11.126C18.2862 10.7831 18.0932 10.4537 17.873 10.1426L16.8301 10.3945C15.9947 10.5957 15.1963 10.3815 14.5889 10.0342C13.9763 9.68366 13.3781 9.09559 13.1309 8.26074L12.8389 7.27637C12.4465 7.24284 12.0517 7.24283 11.6592 7.27637L11.3691 8.26074C11.1215 9.09708 10.5206 9.68446 9.90918 10.0342C9.30216 10.3812 8.50509 10.5954 7.66992 10.3945L6.625 10.1426C6.40525 10.4535 6.21181 10.7828 6.04785 11.126L6.77148 11.873ZM10.4688 14.1758C10.5264 14.7332 10.8549 15.2205 11.3301 15.5H13.1689C13.6932 15.1914 14.0389 14.6297 14.0391 14C14.0388 13.1088 13.3484 12.3503 12.4355 12.2588L12.25 12.25C11.2463 12.25 10.4602 13.0495 10.46 14L10.4688 14.1758Z" fill="black"/>
<path d="M5 21.25C5 20.5596 5.55964 20 6.25 20H18.25C18.9402 20.0002 19.5 20.5598 19.5 21.25C19.5 21.9402 18.9402 22.4998 18.25 22.5H6.25C5.55964 22.5 5 21.9404 5 21.25Z" fill="black"/>
</svg>
