<svg width="24" height="24" viewBox="0 0 24 24" fill="none" xmlns="http://www.w3.org/2000/svg">
<path d="M21 11C20.7239 11 20.5 11.2239 20.5 11.5C20.5 11.7761 20.7239 12 21 12H23.5C23.7761 12 24 11.7761 24 11.5C24 11.2239 23.7761 11 23.5 11H21Z" fill="black"/>
<path d="M18.7173 17.5104C18.5221 17.3151 18.2055 17.3151 18.0102 17.5104C17.815 17.7057 17.815 18.0222 18.0102 18.2175L19.778 19.9853C19.9732 20.1805 20.2898 20.1805 20.4851 19.9853C20.6804 19.79 20.6804 19.4734 20.4851 19.2782L18.7173 17.5104Z" fill="black"/>
<path d="M12.5 20.5C12.5 20.2239 12.2761 20 12 20C11.7239 20 11.5 20.2239 11.5 20.5V23C11.5 23.2761 11.7239 23.5 12 23.5C12.2761 23.5 12.5 23.2761 12.5 23V20.5Z" fill="black"/>
<path d="M5.98978 17.5104C5.79452 17.3151 5.47794 17.3151 5.28268 17.5104L3.51491 19.2782C3.31965 19.4734 3.31965 19.79 3.51491 19.9853C3.71017 20.1805 4.02675 20.1805 4.22202 19.9853L5.98978 18.2175C6.18505 18.0222 6.18505 17.7057 5.98978 17.5104Z" fill="black"/>
<path d="M3.5 11.5C3.5 11.2239 3.27614 11 3 11H0.5C0.223858 11 0 11.2239 0 11.5C0 11.7761 0.223858 12 0.5 12H3C3.27614 12 3.5 11.7761 3.5 11.5Z" fill="black"/>
<path d="M12.0001 18C8.08316 18 4.91191 14.8013 4.91191 10.8888C4.91191 9.27288 5.46169 7.6962 6.47196 6.43337L7.07495 5.67963C7.12165 5.62125 7.16603 5.56133 7.20804 5.5H16.7922C16.8343 5.56133 16.8786 5.62125 16.9253 5.67963L17.5283 6.43337C18.5386 7.6962 19.0884 9.27288 19.0884 10.8888C19.0884 14.8013 15.9171 18 12.0001 18Z" fill="black"/>
<path d="M16.2649 3.79672C16.2649 4.03516 16.2931 4.27112 16.348 4.5H7.65225C7.70717 4.27112 7.73544 4.03516 7.73544 3.79672V2.6368C7.73544 1.73282 8.46826 1 9.37224 1H14.628C15.532 1 16.2649 1.73282 16.2649 2.6368V3.79672Z" fill="black"/>
</svg>
