<svg width="24" height="24" viewBox="0 0 24 24" fill="none" xmlns="http://www.w3.org/2000/svg">
<path d="M19 17.75C19.6904 17.75 20.25 18.3096 20.25 19C20.25 19.6904 19.6904 20.25 19 20.25H5C4.30964 20.25 3.75 19.6904 3.75 19C3.75 18.3096 4.30964 17.75 5 17.75H19Z" fill="black"/>
<path d="M8.86426 11.3965C9.35242 10.9085 10.1437 10.9084 10.6318 11.3965C11.1199 11.8846 11.1198 12.6759 10.6318 13.1641L9.39453 14.4014C9.00403 14.7919 8.371 14.7918 7.98047 14.4014L7.62695 14.0479C7.23643 13.6573 7.23643 13.0243 7.62695 12.6338L8.86426 11.3965Z" fill="black"/>
<path d="M13.1465 11.3965C13.6346 10.9084 14.4259 10.9084 14.9141 11.3965L16.1514 12.6338C16.5419 13.0243 16.5419 13.6573 16.1514 14.0479L15.7979 14.4014C15.4073 14.7919 14.7743 14.7919 14.3838 14.4014L13.1465 13.1641C12.6584 12.6759 12.6583 11.8846 13.1465 11.3965Z" fill="black"/>
<path d="M12.25 6.25C12.8023 6.25 13.25 6.69772 13.25 7.25V9C13.25 9.69036 12.6904 10.25 12 10.25C11.3096 10.25 10.75 9.69036 10.75 9V7.25C10.75 6.69772 11.1977 6.25 11.75 6.25H12.25Z" fill="black"/>
<path fill-rule="evenodd" clip-rule="evenodd" d="M20.2061 0.00488281C22.3194 0.112115 24 1.85996 24 4V20L23.9951 20.2061C23.8913 22.2512 22.2512 23.8913 20.2061 23.9951L20 24H4C1.85996 24 0.112115 22.3194 0.00488281 20.2061L0 20V4C2.57706e-07 1.79086 1.79086 6.44256e-08 4 0H20L20.2061 0.00488281ZM4 2.5C3.17157 2.5 2.5 3.17157 2.5 4V20C2.5 20.8284 3.17157 21.5 4 21.5H20C20.8284 21.5 21.5 20.8284 21.5 20V4C21.5 3.17157 20.8284 2.5 20 2.5H4Z" fill="black"/>
</svg>
