<svg width="24" height="24" viewBox="0 0 24 24" fill="none" xmlns="http://www.w3.org/2000/svg">
<path fill-rule="evenodd" clip-rule="evenodd" d="M12 10C13.6569 10 15 11.3431 15 13C15 14.6569 13.6569 16 12 16C10.3431 16 9 14.6569 9 13C9 11.3431 10.3431 10 12 10ZM12 12C11.4477 12 11 12.4477 11 13C11 13.5523 11.4477 14 12 14C12.5523 14 13 13.5523 13 13C13 12.4477 12.5523 12 12 12Z" fill="black"/>
<path d="M7 6.50684L4.83203 3.65723C5.03325 3.55694 5.2599 3.5 5.5 3.5H9.28711L7 6.50684Z" fill="black"/>
<path d="M12 6.50684L9.71289 3.5H14.2871L12 6.50684Z" fill="black"/>
<path d="M18.5 3.5C18.7398 3.5 18.966 3.55718 19.167 3.65723L17 6.50684L14.7129 3.5H18.5Z" fill="black"/>
<path fill-rule="evenodd" clip-rule="evenodd" d="M20.2061 0.00488281C22.3194 0.112115 24 1.85996 24 4V20L23.9951 20.2061C23.8913 22.2512 22.2512 23.8913 20.2061 23.9951L20 24H4C1.85996 24 0.112115 22.3194 0.00488281 20.2061L0 20V4C2.57706e-07 1.79086 1.79086 6.44256e-08 4 0H20L20.2061 0.00488281ZM4 2C2.89543 2 2 2.89543 2 4V20C2 21.1046 2.89543 22 4 22H20C21.1046 22 22 21.1046 22 20V4C22 2.89543 21.1046 2 20 2H4Z" fill="black"/>
</svg>
