<svg width="24" height="24" viewBox="0 0 24 24" fill="none" xmlns="http://www.w3.org/2000/svg">
<path d="M19.5 19C20.0523 19 20.5 19.4477 20.5 20C20.5 20.5523 20.0523 21 19.5 21H4.5C3.94772 21 3.5 20.5523 3.5 20C3.5 19.4477 3.94772 19 4.5 19H19.5Z" fill="black"/>
<path d="M19.5 3C20.0523 3 20.5 3.44772 20.5 4C20.5 4.55228 20.0523 5 19.5 5H4.5C3.94772 5 3.5 4.55228 3.5 4C3.5 3.44772 3.94772 3 4.5 3H19.5Z" fill="black"/>
<path fill-rule="evenodd" clip-rule="evenodd" d="M20.2061 0.00488281C22.3194 0.112115 24 1.85996 24 4V20L23.9951 20.2061C23.8913 22.2512 22.2512 23.8913 20.2061 23.9951L20 24H4C1.85996 24 0.112115 22.3194 0.00488281 20.2061L0 20V4C2.57706e-07 1.79086 1.79086 6.44256e-08 4 0H20L20.2061 0.00488281ZM4 2C2.89543 2 2 2.89543 2 4V20C2 21.1046 2.89543 22 4 22H20C21.1046 22 22 21.1046 22 20V4C22 2.89543 21.1046 2 20 2H4Z" fill="black"/>
</svg>
