<svg width="24" height="24" viewBox="0 0 24 24" fill="none" xmlns="http://www.w3.org/2000/svg">
<path fill-rule="evenodd" clip-rule="evenodd" d="M12.25 6.25C13.3546 6.25 14.25 7.14543 14.25 8.25V10C14.25 10.3722 14.1571 10.722 13.9971 11.0312C14.5839 11.0226 15.1733 11.2417 15.6211 11.6895L16.8584 12.9268C17.6394 13.7078 17.6394 14.9738 16.8584 15.7549L16.5049 16.1084C15.7238 16.8894 14.4578 16.8894 13.6768 16.1084L12.4395 14.8711C12.1771 14.6087 11.9943 14.2974 11.8887 13.9668C11.783 14.2973 11.6011 14.6088 11.3389 14.8711L10.1016 16.1084C9.32053 16.8894 8.05449 16.8894 7.27344 16.1084L6.91895 15.7549C6.13836 14.9739 6.13825 13.7077 6.91895 12.9268L8.15723 11.6895C8.66308 11.1837 9.34943 10.9703 10.0088 11.0469C9.844 10.7341 9.75 10.3781 9.75 10V8.25C9.75 7.14543 10.6454 6.25 11.75 6.25H12.25ZM9.9248 13.1035C9.82722 13.0059 9.66893 13.006 9.57129 13.1035L8.33398 14.3408L8.6875 14.6943L9.9248 13.457C10.0223 13.3594 10.0223 13.2011 9.9248 13.1035ZM14.207 13.1035C14.1094 13.0059 13.9511 13.0059 13.8535 13.1035C13.7559 13.2011 13.7559 13.3594 13.8535 13.457L15.0908 14.6943L15.4443 14.3408L14.207 13.1035ZM11.7393 12.2334C11.8003 12.3494 11.8493 12.4698 11.8887 12.5928C11.9264 12.4749 11.9736 12.3596 12.0312 12.248C12.0208 12.2482 12.0104 12.25 12 12.25C11.9117 12.25 11.8249 12.2433 11.7393 12.2334ZM11.75 10C11.75 10.1381 11.8619 10.25 12 10.25C12.1381 10.25 12.25 10.1381 12.25 10V8.25H11.75V10Z" fill="black"/>
<path fill-rule="evenodd" clip-rule="evenodd" d="M20.2061 0.00488281C22.3194 0.112115 24 1.85996 24 4V20L23.9951 20.2061C23.8913 22.2512 22.2512 23.8913 20.2061 23.9951L20 24H4C1.85996 24 0.112115 22.3194 0.00488281 20.2061L0 20V4C2.57706e-07 1.79086 1.79086 6.44256e-08 4 0H20L20.2061 0.00488281ZM4 2C2.89543 2 2 2.89543 2 4V20C2 21.1046 2.89543 22 4 22H12C6.47715 22 2 17.5228 2 12C2 6.47715 6.47715 2 12 2C17.5228 2 22 6.47715 22 12C22 17.5228 17.5228 22 12 22H20C21.1046 22 22 21.1046 22 20V4C22 2.89543 21.1046 2 20 2H4ZM12 4C7.58172 4 4 7.58172 4 12C4 16.4183 7.58172 20 12 20C16.4183 20 20 16.4183 20 12C20 7.58172 16.4183 4 12 4Z" fill="black"/>
</svg>
