<svg width="24" height="24" viewBox="0 0 24 24" fill="none" xmlns="http://www.w3.org/2000/svg">
<path d="M21 11.25C20.8619 11.25 20.75 11.3619 20.75 11.5C20.75 11.6381 20.8619 11.75 21 11.75H23.5C23.6381 11.75 23.75 11.6381 23.75 11.5C23.75 11.3619 23.6381 11.25 23.5 11.25H21Z" fill="black"/>
<path d="M18.5405 17.6872C18.4429 17.5895 18.2846 17.5895 18.187 17.6872C18.0894 17.7848 18.0894 17.9431 18.187 18.0407L19.9548 19.8085C20.0524 19.9061 20.2107 19.9061 20.3083 19.8085C20.4059 19.7109 20.4059 19.5526 20.3083 19.4549L18.5405 17.6872Z" fill="black"/>
<path d="M12.25 20.5C12.25 20.3619 12.1381 20.25 12 20.25C11.8619 20.25 11.75 20.3619 11.75 20.5V23C11.75 23.1381 11.8619 23.25 12 23.25C12.1381 23.25 12.25 23.1381 12.25 23V20.5Z" fill="black"/>
<path d="M5.81301 17.6872C5.71538 17.5895 5.55709 17.5895 5.45945 17.6872L3.69169 19.4549C3.59406 19.5526 3.59406 19.7109 3.69169 19.8085C3.78932 19.9061 3.94761 19.9061 4.04524 19.8085L5.81301 18.0407C5.91064 17.9431 5.91064 17.7848 5.81301 17.6872Z" fill="black"/>
<path d="M3.25 11.5C3.25 11.3619 3.13807 11.25 3 11.25H0.5C0.361929 11.25 0.25 11.3619 0.25 11.5C0.25 11.6381 0.361929 11.75 0.5 11.75H3C3.13807 11.75 3.25 11.6381 3.25 11.5Z" fill="black"/>
<path fill-rule="evenodd" clip-rule="evenodd" d="M5.16191 10.8888C5.16191 14.6643 8.22236 17.75 12.0001 17.75C15.7779 17.75 18.8384 14.6643 18.8384 10.8888C18.8384 9.32933 18.3077 7.8078 17.3331 6.58954L16.7301 5.8358C16.2671 5.25703 16.0149 4.53791 16.0149 3.79672V2.6368C16.0149 1.87089 15.394 1.25 14.628 1.25H9.37224C8.60633 1.25 7.98544 1.87089 7.98544 2.6368V3.79672C7.98544 4.53791 7.73318 5.25703 7.27017 5.8358L6.66718 6.58954C5.69257 7.8078 5.16191 9.32933 5.16191 10.8888ZM12.0001 17.25C8.50076 17.25 5.66191 14.3905 5.66191 10.8888C5.66191 9.44222 6.15433 8.03099 7.05761 6.90189L7.6606 6.14815C7.88066 5.87308 8.05944 5.57051 8.19358 5.25H15.8067C15.9408 5.57051 16.1196 5.87308 16.3397 6.14815L16.9427 6.90189C17.846 8.03099 18.3384 9.44222 18.3384 10.8888C18.3384 14.3905 15.4995 17.25 12.0001 17.25ZM15.5149 3.79672C15.5149 4.12061 15.5566 4.44084 15.6376 4.75H8.36273C8.44367 4.44084 8.48544 4.12061 8.48544 3.79672V2.6368C8.48544 2.14703 8.88247 1.75 9.37224 1.75H14.628C15.1178 1.75 15.5149 2.14703 15.5149 2.6368V3.79672Z" fill="black"/>
</svg>
