<svg width="24" height="24" viewBox="0 0 24 24" fill="none" xmlns="http://www.w3.org/2000/svg">
<path d="M19 17.75C19.6904 17.75 20.25 18.3096 20.25 19C20.25 19.6904 19.6904 20.25 19 20.25H5C4.30964 20.25 3.75 19.6904 3.75 19C3.75 18.3096 4.30964 17.75 5 17.75H19Z" fill="black"/>
<path d="M7 7.00684L4.83203 4.15723C5.03325 4.05694 5.2599 4 5.5 4H9.28711L7 7.00684Z" fill="black"/>
<path d="M12 7.00684L9.71289 4H14.2871L12 7.00684Z" fill="black"/>
<path d="M18.5 4C18.7398 4 18.966 4.05718 19.167 4.15723L17 7.00684L14.7129 4H18.5Z" fill="black"/>
<path fill-rule="evenodd" clip-rule="evenodd" d="M20.2061 0.00488281C22.3194 0.112115 24 1.85996 24 4V20L23.9951 20.2061C23.8913 22.2512 22.2512 23.8913 20.2061 23.9951L20 24H4C1.85996 24 0.112115 22.3194 0.00488281 20.2061L0 20V4C2.57706e-07 1.79086 1.79086 6.44256e-08 4 0H20L20.2061 0.00488281ZM4 2.5C3.17157 2.5 2.5 3.17157 2.5 4V20C2.5 20.8284 3.17157 21.5 4 21.5H20C20.8284 21.5 21.5 20.8284 21.5 20V4C21.5 3.17157 20.8284 2.5 20 2.5H4Z" fill="black"/>
</svg>
