<svg width="24" height="24" viewBox="0 0 24 24" fill="none" xmlns="http://www.w3.org/2000/svg">
<path d="M21 10.75C20.5858 10.75 20.25 11.0858 20.25 11.5C20.25 11.9142 20.5858 12.25 21 12.25H23.25C23.6642 12.25 24 11.9142 24 11.5C24 11.0858 23.6642 10.75 23.25 10.75H21Z" fill="black"/>
<path d="M18.8941 17.3336C18.6012 17.0407 18.1263 17.0407 17.8334 17.3336C17.5405 17.6265 17.5405 18.1014 17.8334 18.3943L19.6012 20.162C19.8941 20.4549 20.369 20.4549 20.6619 20.162C20.9548 19.8692 20.9548 19.3943 20.6619 19.1014L18.8941 17.3336Z" fill="black"/>
<path d="M12.75 20.5C12.75 20.0858 12.4142 19.75 12 19.75C11.5858 19.75 11.25 20.0858 11.25 20.5V23C11.25 23.4142 11.5858 23.75 12 23.75C12.4142 23.75 12.75 23.4142 12.75 23V20.5Z" fill="black"/>
<path d="M6.16656 17.3336C5.87367 17.0407 5.39879 17.0407 5.1059 17.3336L3.33813 19.1014C3.04524 19.3943 3.04524 19.8692 3.33813 20.162C3.63103 20.4549 4.1059 20.4549 4.39879 20.162L6.16656 18.3943C6.45945 18.1014 6.45945 17.6265 6.16656 17.3336Z" fill="black"/>
<path d="M3.75 11.5C3.75 11.0858 3.41421 10.75 3 10.75H0.75C0.335787 10.75 0 11.0858 0 11.5C0 11.9142 0.335787 12.25 0.75 12.25H3C3.41421 12.25 3.75 11.9142 3.75 11.5Z" fill="black"/>
<path d="M12.0001 18C8.08316 18 4.91191 14.8013 4.91191 10.8888C4.91191 9.27288 5.46169 7.6962 6.47196 6.43337L6.81866 6H17.1816L17.5283 6.43337C18.5386 7.6962 19.0884 9.27288 19.0884 10.8888C19.0884 14.8013 15.9171 18 12.0001 18Z" fill="black"/>
<path d="M16.2649 3.79672C16.2649 3.86472 16.2671 3.93251 16.2717 4H7.72858C7.73314 3.93251 7.73544 3.86472 7.73544 3.79672V2.6368C7.73544 1.73282 8.46826 1 9.37224 1H14.628C15.532 1 16.2649 1.73282 16.2649 2.6368V3.79672Z" fill="black"/>
</svg>
