<svg width="24" height="24" viewBox="0 0 24 24" fill="none" xmlns="http://www.w3.org/2000/svg">
<path d="M8.86426 12.3965C9.35242 11.9085 10.1437 11.9084 10.6318 12.3965C11.1199 12.8846 11.1198 13.6759 10.6318 14.1641L9.39453 15.4014C9.00403 15.7919 8.371 15.7918 7.98047 15.4014L7.62695 15.0479C7.23643 14.6573 7.23643 14.0243 7.62695 13.6338L8.86426 12.3965Z" fill="black"/>
<path d="M13.1465 12.3965C13.6346 11.9084 14.4259 11.9084 14.9141 12.3965L16.1514 13.6338C16.5419 14.0243 16.5419 14.6573 16.1514 15.0479L15.7979 15.4014C15.4073 15.7919 14.7743 15.7919 14.3838 15.4014L13.1465 14.1641C12.6584 13.6759 12.6583 12.8846 13.1465 12.3965Z" fill="black"/>
<path d="M12.25 7.25C12.8023 7.25 13.25 7.69772 13.25 8.25V10C13.25 10.6904 12.6904 11.25 12 11.25C11.3096 11.25 10.75 10.6904 10.75 10V8.25C10.75 7.69772 11.1977 7.25 11.75 7.25H12.25Z" fill="black"/>
<path fill-rule="evenodd" clip-rule="evenodd" d="M20.2061 0.00488281C22.3194 0.112115 24 1.85996 24 4V20L23.9951 20.2061C23.8913 22.2512 22.2512 23.8913 20.2061 23.9951L20 24H4C1.85996 24 0.112115 22.3194 0.00488281 20.2061L0 20V4C2.57706e-07 1.79086 1.79086 6.44256e-08 4 0H20L20.2061 0.00488281ZM2.5 20C2.5 20.8284 3.17157 21.5 4 21.5H8.87598C5.86623 20.5108 3.48888 18.1329 2.5 15.123V20ZM21.5 15.123C20.5111 18.1329 18.1338 20.5108 15.124 21.5H20C20.8284 21.5 21.5 20.8284 21.5 20V15.123ZM12 4.5C7.85786 4.5 4.5 7.85786 4.5 12C4.5 16.1421 7.85786 19.5 12 19.5C16.1421 19.5 19.5 16.1421 19.5 12C19.5 7.85786 16.1421 4.5 12 4.5ZM4 2.5C3.17157 2.5 2.5 3.17157 2.5 4V8.87598C3.48906 5.86652 5.86652 3.48906 8.87598 2.5H4ZM15.124 2.5C18.1335 3.48906 20.5109 5.86652 21.5 8.87598V4C21.5 3.17157 20.8284 2.5 20 2.5H15.124Z" fill="black"/>
</svg>
