<svg width="24" height="24" viewBox="0 0 24 24" fill="none" xmlns="http://www.w3.org/2000/svg">
<path d="M21 10.75C20.5858 10.75 20.25 11.0858 20.25 11.5C20.25 11.9142 20.5858 12.25 21 12.25H23C23.4142 12.25 23.75 11.9142 23.75 11.5C23.75 11.0858 23.4142 10.75 23 10.75H21Z" fill="black"/>
<path d="M18.8941 17.3336C18.6012 17.0407 18.1263 17.0407 17.8334 17.3336C17.5405 17.6265 17.5405 18.1014 17.8334 18.3943L19.6012 20.162C19.8941 20.4549 20.369 20.4549 20.6619 20.162C20.9548 19.8692 20.9548 19.3943 20.6619 19.1014L18.8941 17.3336Z" fill="black"/>
<path d="M12.75 20.5C12.75 20.0858 12.4142 19.75 12 19.75C11.5858 19.75 11.25 20.0858 11.25 20.5V23C11.25 23.4142 11.5858 23.75 12 23.75C12.4142 23.75 12.75 23.4142 12.75 23V20.5Z" fill="black"/>
<path d="M6.16656 17.3336C5.87367 17.0407 5.39879 17.0407 5.1059 17.3336L3.33813 19.1014C3.04524 19.3943 3.04524 19.8692 3.33813 20.162C3.63103 20.4549 4.1059 20.4549 4.39879 20.162L6.16656 18.3943C6.45945 18.1014 6.45945 17.6265 6.16656 17.3336Z" fill="black"/>
<path d="M3.75 11.5C3.75 11.0858 3.41421 10.75 3 10.75H1C0.585787 10.75 0.25 11.0858 0.25 11.5C0.25 11.9142 0.585787 12.25 1 12.25H3C3.41421 12.25 3.75 11.9142 3.75 11.5Z" fill="black"/>
<path fill-rule="evenodd" clip-rule="evenodd" d="M4.66191 10.8888C4.66191 14.9382 7.94396 18.25 12.0001 18.25C16.0563 18.25 19.3384 14.9382 19.3384 10.8888C19.3384 9.21643 18.7695 7.5846 17.7235 6.27719L17.1206 5.52346C16.7285 5.03334 16.5149 4.42438 16.5149 3.79672V2.6368C16.5149 1.59475 15.6701 0.75 14.628 0.75H9.37224C8.33019 0.75 7.48544 1.59475 7.48544 2.6368V3.79672C7.48544 4.42438 7.27182 5.03334 6.87973 5.52346L6.27674 6.27719C5.23082 7.5846 4.66191 9.21643 4.66191 10.8888ZM12.0001 16.75C8.77916 16.75 6.16191 14.1166 6.16191 10.8888C6.16191 9.55512 6.61609 8.25419 7.44805 7.21424L8.05104 6.4605C8.22887 6.2382 8.38291 6.00006 8.51177 5.75H15.4885C15.6174 6.00006 15.7714 6.2382 15.9493 6.4605L16.5522 7.21424C17.3842 8.25419 17.8384 9.55512 17.8384 10.8888C17.8384 14.1166 15.2211 16.75 12.0001 16.75ZM15.0149 3.79672C15.0149 3.94872 15.023 4.10001 15.039 4.25H8.96129C8.97732 4.10001 8.98544 3.94872 8.98544 3.79672V2.6368C8.98544 2.42318 9.15862 2.25 9.37224 2.25H14.628C14.8417 2.25 15.0149 2.42318 15.0149 2.6368V3.79672Z" fill="black"/>
</svg>
