<svg width="24" height="24" viewBox="0 0 24 24" fill="none" xmlns="http://www.w3.org/2000/svg">
<path d="M19 17.75C19.6904 17.75 20.25 18.3096 20.25 19C20.25 19.6904 19.6904 20.25 19 20.25H5C4.30964 20.25 3.75 19.6904 3.75 19C3.75 18.3096 4.30964 17.75 5 17.75H19Z" fill="black"/>
<path fill-rule="evenodd" clip-rule="evenodd" d="M12.25 5.25C13.3546 5.25 14.25 6.14543 14.25 7.25V9C14.25 9.37221 14.1571 9.72201 13.9971 10.0312C14.5839 10.0226 15.1733 10.2417 15.6211 10.6895L16.8584 11.9268C17.6394 12.7078 17.6394 13.9738 16.8584 14.7549L16.5049 15.1084C15.7238 15.8894 14.4578 15.8894 13.6768 15.1084L12.4395 13.8711C12.1771 13.6087 11.9943 13.2974 11.8887 12.9668C11.783 13.2973 11.6011 13.6088 11.3389 13.8711L10.1016 15.1084C9.32053 15.8894 8.05449 15.8894 7.27344 15.1084L6.91895 14.7549C6.13836 13.9739 6.13825 12.7077 6.91895 11.9268L8.15723 10.6895C8.66308 10.1837 9.34943 9.97028 10.0088 10.0469C9.844 9.73408 9.75 9.37812 9.75 9V7.25C9.75 6.14543 10.6454 5.25 11.75 5.25H12.25ZM9.9248 12.1035C9.82722 12.0059 9.66893 12.006 9.57129 12.1035L8.33398 13.3408L8.6875 13.6943L9.9248 12.457C10.0223 12.3594 10.0223 12.2011 9.9248 12.1035ZM14.207 12.1035C14.1094 12.0059 13.9511 12.0059 13.8535 12.1035C13.7559 12.2011 13.7559 12.3594 13.8535 12.457L15.0908 13.6943L15.4443 13.3408L14.207 12.1035ZM11.7393 11.2334C11.8003 11.3494 11.8493 11.4698 11.8887 11.5928C11.9264 11.4749 11.9736 11.3596 12.0312 11.248C12.0208 11.2482 12.0104 11.25 12 11.25C11.9117 11.25 11.8249 11.2433 11.7393 11.2334ZM11.75 9C11.75 9.13807 11.8619 9.25 12 9.25C12.1381 9.25 12.25 9.13807 12.25 9V7.25H11.75V9Z" fill="black"/>
<path fill-rule="evenodd" clip-rule="evenodd" d="M20.2061 0.00488281C22.3194 0.112115 24 1.85996 24 4V20L23.9951 20.2061C23.8913 22.2512 22.2512 23.8913 20.2061 23.9951L20 24H4C1.85996 24 0.112115 22.3194 0.00488281 20.2061L0 20V4C2.57706e-07 1.79086 1.79086 6.44256e-08 4 0H20L20.2061 0.00488281ZM4 2.5C3.17157 2.5 2.5 3.17157 2.5 4V20C2.5 20.8284 3.17157 21.5 4 21.5H20C20.8284 21.5 21.5 20.8284 21.5 20V4C21.5 3.17157 20.8284 2.5 20 2.5H4Z" fill="black"/>
</svg>
