<svg width="24" height="24" viewBox="0 0 24 24" fill="none" xmlns="http://www.w3.org/2000/svg">
<path d="M20 19.75C20.4142 19.75 20.75 20.0858 20.75 20.5C20.75 20.9142 20.4142 21.25 20 21.25H4C3.58579 21.25 3.25 20.9142 3.25 20.5C3.25 20.0858 3.58579 19.75 4 19.75H20Z" fill="black"/>
<path fill-rule="evenodd" clip-rule="evenodd" d="M12.25 5.5C13.2165 5.5 14 6.2835 14 7.25V9C14 9.52691 13.794 10.0041 13.4609 10.3613C14.1411 10.1602 14.9075 10.3294 15.4443 10.8662L16.6816 12.1035C17.3651 12.7869 17.3651 13.8947 16.6816 14.5781L16.3281 14.9316C15.6447 15.6151 14.5369 15.6151 13.8535 14.9316L12.6162 13.6943C11.8512 12.9293 11.8367 11.7001 12.5703 10.916C12.3895 10.9698 12.1983 11 12 11C11.6501 11 11.3213 10.9099 11.0352 10.752C11.0783 10.7884 11.1215 10.8256 11.1621 10.8662C11.943 11.6472 11.943 12.9133 11.1621 13.6943L9.9248 14.9316C9.24141 15.615 8.13362 15.615 7.4502 14.9316L7.0957 14.5781C6.41275 13.8947 6.41264 12.7868 7.0957 12.1035L8.33398 10.8662C8.97826 10.2221 9.95205 10.1097 10.7119 10.5283C10.2771 10.1614 10 9.61348 10 9V7.25C10 6.2835 10.7835 5.5 11.75 5.5H12.25ZM10.1016 11.9268C9.90635 11.7315 9.5898 11.7316 9.39453 11.9268L8.15723 13.1641C8.0596 13.2617 8.0596 13.4199 8.15723 13.5176L8.51074 13.8711C8.60838 13.9687 8.76665 13.9687 8.86426 13.8711L10.1016 12.6338C10.2967 12.4385 10.2967 12.122 10.1016 11.9268ZM14.3838 11.9268C14.1885 11.7316 13.872 11.7315 13.6768 11.9268C13.4815 12.122 13.4815 12.4385 13.6768 12.6338L14.9141 13.8711C15.0117 13.9687 15.1699 13.9687 15.2676 13.8711L15.6211 13.5176C15.7187 13.4199 15.7187 13.2617 15.6211 13.1641L14.3838 11.9268ZM11.75 7C11.6119 7 11.5 7.11193 11.5 7.25V9C11.5 9.27614 11.7239 9.5 12 9.5C12.2761 9.5 12.5 9.27614 12.5 9V7.25C12.5 7.11193 12.3881 7 12.25 7H11.75Z" fill="black"/>
<path fill-rule="evenodd" clip-rule="evenodd" d="M20.2061 0.00488281C22.3194 0.112115 24 1.85996 24 4V20L23.9951 20.2061C23.8913 22.2512 22.2512 23.8913 20.2061 23.9951L20 24H4C1.85996 24 0.112115 22.3194 0.00488281 20.2061L0 20V4C2.57706e-07 1.79086 1.79086 6.44256e-08 4 0H20L20.2061 0.00488281ZM4 1.5C2.61929 1.5 1.5 2.61929 1.5 4V20C1.5 21.3807 2.61929 22.5 4 22.5H20C21.3807 22.5 22.5 21.3807 22.5 20V4C22.5 2.61929 21.3807 1.5 20 1.5H4Z" fill="black"/>
</svg>
