<svg width="24" height="24" viewBox="0 0 24 24" fill="none" xmlns="http://www.w3.org/2000/svg">
<path fill-rule="evenodd" clip-rule="evenodd" d="M8.51074 14.043C9.19417 13.3597 10.302 13.3596 10.9854 14.043C11.6686 14.7263 11.6686 15.8342 10.9854 16.5176L9.74805 17.7549C9.16228 18.3406 8.21274 18.3406 7.62695 17.7549L7.27344 17.4014C6.68765 16.8156 6.68765 15.8661 7.27344 15.2803L8.51074 14.043ZM10.2783 14.75C9.98547 14.4572 9.51068 14.4572 9.21777 14.75L7.98047 15.9873C7.78521 16.1826 7.78521 16.4991 7.98047 16.6943L8.33398 17.0479C8.52925 17.2431 8.84577 17.2431 9.04102 17.0479L10.2783 15.8105C10.5711 15.5177 10.5711 15.0429 10.2783 14.75Z" fill="black"/>
<path fill-rule="evenodd" clip-rule="evenodd" d="M12.793 14.043C13.4764 13.3596 14.5842 13.3596 15.2676 14.043L16.5049 15.2803C17.0907 15.8661 17.0907 16.8156 16.5049 17.4014L16.1514 17.7549C15.5656 18.3407 14.6161 18.3407 14.0303 17.7549L12.793 16.5176C12.1096 15.8342 12.1096 14.7264 12.793 14.043ZM14.5605 14.75C14.2677 14.4572 13.7929 14.4571 13.5 14.75C13.2071 15.0429 13.2072 15.5176 13.5 15.8105L14.7373 17.0479C14.9326 17.2431 15.2491 17.2431 15.4443 17.0479L15.7979 16.6943C15.9931 16.4991 15.9931 16.1826 15.7979 15.9873L14.5605 14.75Z" fill="black"/>
<path fill-rule="evenodd" clip-rule="evenodd" d="M12.25 8.75C13.0784 8.75 13.75 9.42157 13.75 10.25V12C13.75 12.9665 12.9665 13.75 12 13.75C11.0335 13.75 10.25 12.9665 10.25 12V10.25C10.25 9.42157 10.9216 8.75 11.75 8.75H12.25ZM11.75 9.75C11.4739 9.75 11.25 9.97386 11.25 10.25V12C11.25 12.4142 11.5858 12.75 12 12.75C12.4142 12.75 12.75 12.4142 12.75 12V10.25C12.75 9.97386 12.5261 9.75 12.25 9.75H11.75Z" fill="black"/>
<path d="M6 4.11719L6.84961 3H8.10547L6 5.76758L3.89453 3H5.14941L6 4.11719Z" fill="black"/>
<path d="M12 4.11719L12.8496 3H14.1055L12 5.76758L9.89453 3H11.1494L12 4.11719Z" fill="black"/>
<path d="M18 4.11719L18.8496 3H20.1055L18 5.76758L15.8945 3H17.1494L18 4.11719Z" fill="black"/>
<path fill-rule="evenodd" clip-rule="evenodd" d="M20.2061 0.00488281C22.3194 0.112115 24 1.85996 24 4V20L23.9951 20.2061C23.8913 22.2512 22.2512 23.8913 20.2061 23.9951L20 24H4C1.85996 24 0.112115 22.3194 0.00488281 20.2061L0 20V4C2.57706e-07 1.79086 1.79086 6.44256e-08 4 0H20L20.2061 0.00488281ZM4 1C2.34315 1 1 2.34315 1 4V20C1 21.6569 2.34315 23 4 23H20C21.6569 23 23 21.6569 23 20V4C23 2.34315 21.6569 1 20 1H4Z" fill="black"/>
</svg>
