<svg width="24" height="24" viewBox="0 0 24 24" fill="none" xmlns="http://www.w3.org/2000/svg">
<path d="M21 11.25C20.8619 11.25 20.75 11.3619 20.75 11.5C20.75 11.6381 20.8619 11.75 21 11.75H23.5C23.6381 11.75 23.75 11.6381 23.75 11.5C23.75 11.3619 23.6381 11.25 23.5 11.25H21Z" fill="black"/>
<path d="M18.5405 17.6872C18.4429 17.5895 18.2846 17.5895 18.187 17.6872C18.0894 17.7848 18.0894 17.9431 18.187 18.0407L19.9548 19.8085C20.0524 19.9061 20.2107 19.9061 20.3083 19.8085C20.4059 19.7109 20.4059 19.5526 20.3083 19.4549L18.5405 17.6872Z" fill="black"/>
<path d="M12.25 20.5C12.25 20.3619 12.1381 20.25 12 20.25C11.8619 20.25 11.75 20.3619 11.75 20.5V23C11.75 23.1381 11.8619 23.25 12 23.25C12.1381 23.25 12.25 23.1381 12.25 23V20.5Z" fill="black"/>
<path d="M5.81301 17.6872C5.71538 17.5895 5.55709 17.5895 5.45945 17.6872L3.69169 19.4549C3.59406 19.5526 3.59406 19.7109 3.69169 19.8085C3.78932 19.9061 3.94761 19.9061 4.04524 19.8085L5.81301 18.0407C5.91064 17.9431 5.91064 17.7848 5.81301 17.6872Z" fill="black"/>
<path d="M3.25 11.5C3.25 11.3619 3.13807 11.25 3 11.25H0.5C0.361929 11.25 0.25 11.3619 0.25 11.5C0.25 11.6381 0.361929 11.75 0.5 11.75H3C3.13807 11.75 3.25 11.6381 3.25 11.5Z" fill="black"/>
<path d="M12.0001 18C8.08316 18 4.91191 14.8013 4.91191 10.8888C4.91191 9.27288 5.46169 7.6962 6.47196 6.43337L7.07495 5.67963C7.18333 5.54416 7.27921 5.40035 7.36195 5.25H16.6383C16.7211 5.40035 16.817 5.54416 16.9253 5.67963L17.5283 6.43337C18.5386 7.6962 19.0884 9.27288 19.0884 10.8888C19.0884 14.8013 15.9171 18 12.0001 18Z" fill="black"/>
<path d="M16.2649 3.79672C16.2649 4.12306 16.3178 4.44477 16.4196 4.75H7.58072C7.68248 4.44477 7.73544 4.12306 7.73544 3.79672V2.6368C7.73544 1.73282 8.46826 1 9.37224 1H14.628C15.532 1 16.2649 1.73282 16.2649 2.6368V3.79672Z" fill="black"/>
</svg>
