<svg width="24" height="24" viewBox="0 0 24 24" fill="none" xmlns="http://www.w3.org/2000/svg">
<path d="M8.86426 12.3965C9.35242 11.9085 10.1437 11.9084 10.6318 12.3965C11.1199 12.8846 11.1198 13.6759 10.6318 14.1641L9.39453 15.4014C9.00403 15.7919 8.371 15.7918 7.98047 15.4014L7.62695 15.0479C7.23643 14.6573 7.23643 14.0243 7.62695 13.6338L8.86426 12.3965Z" fill="black"/>
<path d="M13.1465 12.3965C13.6346 11.9084 14.4259 11.9084 14.9141 12.3965L16.1514 13.6338C16.5419 14.0243 16.5419 14.6573 16.1514 15.0479L15.7979 15.4014C15.4073 15.7919 14.7743 15.7919 14.3838 15.4014L13.1465 14.1641C12.6584 13.6759 12.6583 12.8846 13.1465 12.3965Z" fill="black"/>
<path d="M12.25 7.25C12.8023 7.25 13.25 7.69772 13.25 8.25V10C13.25 10.6904 12.6904 11.25 12 11.25C11.3096 11.25 10.75 10.6904 10.75 10V8.25C10.75 7.69772 11.1977 7.25 11.75 7.25H12.25Z" fill="black"/>
<path fill-rule="evenodd" clip-rule="evenodd" d="M12 2C17.5228 2 22 6.47715 22 12C22 17.5228 17.5228 22 12 22C6.47715 22 2 17.5228 2 12C2 6.47715 6.47715 2 12 2ZM12 3.5C7.30558 3.5 3.5 7.30558 3.5 12C3.5 16.6944 7.30558 20.5 12 20.5C16.6944 20.5 20.5 16.6944 20.5 12C20.5 7.30558 16.6944 3.5 12 3.5Z" fill="black"/>
<path fill-rule="evenodd" clip-rule="evenodd" d="M20.2061 0.00488281C22.3194 0.112115 24 1.85996 24 4V20L23.9951 20.2061C23.8913 22.2512 22.2512 23.8913 20.2061 23.9951L20 24H4C1.85996 24 0.112115 22.3194 0.00488281 20.2061L0 20V4C2.57706e-07 1.79086 1.79086 6.44256e-08 4 0H20L20.2061 0.00488281ZM4 1.5C2.61929 1.5 1.5 2.61929 1.5 4V20C1.5 21.3807 2.61929 22.5 4 22.5H20C21.3807 22.5 22.5 21.3807 22.5 20V4C22.5 2.61929 21.3807 1.5 20 1.5H4Z" fill="black"/>
</svg>
