<svg width="24" height="24" viewBox="0 0 24 24" fill="none" xmlns="http://www.w3.org/2000/svg">
<path fill-rule="evenodd" clip-rule="evenodd" d="M12.25 8.25C13.3546 8.25 14.25 9.14543 14.25 10.25V12C14.25 12.3722 14.1571 12.722 13.9971 13.0312C14.5839 13.0226 15.1733 13.2417 15.6211 13.6895L16.8584 14.9268C17.6394 15.7078 17.6394 16.9738 16.8584 17.7549L16.5049 18.1084C15.7238 18.8894 14.4578 18.8894 13.6768 18.1084L12.4395 16.8711C12.1771 16.6087 11.9943 16.2974 11.8887 15.9668C11.783 16.2973 11.6011 16.6088 11.3389 16.8711L10.1016 18.1084C9.32053 18.8894 8.05449 18.8894 7.27344 18.1084L6.91895 17.7549C6.13836 16.9739 6.13825 15.7077 6.91895 14.9268L8.15723 13.6895C8.66308 13.1837 9.34943 12.9703 10.0088 13.0469C9.844 12.7341 9.75 12.3781 9.75 12V10.25C9.75 9.14543 10.6454 8.25 11.75 8.25H12.25ZM9.9248 15.1035C9.82722 15.0059 9.66893 15.006 9.57129 15.1035L8.33398 16.3408L8.6875 16.6943L9.9248 15.457C10.0223 15.3594 10.0223 15.2011 9.9248 15.1035ZM14.207 15.1035C14.1094 15.0059 13.9511 15.0059 13.8535 15.1035C13.7559 15.2011 13.7559 15.3594 13.8535 15.457L15.0908 16.6943L15.4443 16.3408L14.207 15.1035ZM11.7393 14.2334C11.8003 14.3494 11.8493 14.4698 11.8887 14.5928C11.9264 14.4749 11.9736 14.3596 12.0312 14.248C12.0208 14.2482 12.0104 14.25 12 14.25C11.9117 14.25 11.8249 14.2433 11.7393 14.2334ZM11.75 12C11.75 12.1381 11.8619 12.25 12 12.25C12.1381 12.25 12.25 12.1381 12.25 12V10.25H11.75V12Z" fill="black"/>
<path d="M7 6.50684L4.83203 3.65723C5.03325 3.55694 5.2599 3.5 5.5 3.5H9.28711L7 6.50684Z" fill="black"/>
<path d="M12 6.50684L9.71289 3.5H14.2871L12 6.50684Z" fill="black"/>
<path d="M18.5 3.5C18.7398 3.5 18.966 3.55718 19.167 3.65723L17 6.50684L14.7129 3.5H18.5Z" fill="black"/>
<path fill-rule="evenodd" clip-rule="evenodd" d="M20.2061 0.00488281C22.3194 0.112115 24 1.85996 24 4V20L23.9951 20.2061C23.8913 22.2512 22.2512 23.8913 20.2061 23.9951L20 24H4C1.85996 24 0.112115 22.3194 0.00488281 20.2061L0 20V4C2.57706e-07 1.79086 1.79086 6.44256e-08 4 0H20L20.2061 0.00488281ZM4 2C2.89543 2 2 2.89543 2 4V20C2 21.1046 2.89543 22 4 22H20C21.1046 22 22 21.1046 22 20V4C22 2.89543 21.1046 2 20 2H4Z" fill="black"/>
</svg>
