<svg width="24" height="24" viewBox="0 0 24 24" fill="none" xmlns="http://www.w3.org/2000/svg">
<path d="M8.86426 13.3965C9.35242 12.9085 10.1437 12.9084 10.6318 13.3965C11.1199 13.8846 11.1198 14.6759 10.6318 15.1641L9.39453 16.4014C9.00403 16.7919 8.371 16.7918 7.98047 16.4014L7.62695 16.0479C7.23643 15.6573 7.23643 15.0243 7.62695 14.6338L8.86426 13.3965Z" fill="black"/>
<path d="M13.1465 13.3965C13.6346 12.9084 14.4259 12.9084 14.9141 13.3965L16.1514 14.6338C16.5419 15.0243 16.5419 15.6573 16.1514 16.0479L15.7979 16.4014C15.4073 16.7919 14.7743 16.7919 14.3838 16.4014L13.1465 15.1641C12.6584 14.6759 12.6583 13.8846 13.1465 13.3965Z" fill="black"/>
<path d="M12.25 8.25C12.8023 8.25 13.25 8.69772 13.25 9.25V11C13.25 11.6904 12.6904 12.25 12 12.25C11.3096 12.25 10.75 11.6904 10.75 11V9.25C10.75 8.69772 11.1977 8.25 11.75 8.25H12.25Z" fill="black"/>
<path d="M6 5.35547L4.20703 3H7.79199L6 5.35547Z" fill="black"/>
<path d="M12 5.35547L10.208 3H13.792L12 5.35547Z" fill="black"/>
<path d="M18 5.35547L16.208 3H19.793L18 5.35547Z" fill="black"/>
<path fill-rule="evenodd" clip-rule="evenodd" d="M20.2061 0.00488281C22.3194 0.112115 24 1.85996 24 4V20L23.9951 20.2061C23.8913 22.2512 22.2512 23.8913 20.2061 23.9951L20 24H4C1.85996 24 0.112115 22.3194 0.00488281 20.2061L0 20V4C2.57706e-07 1.79086 1.79086 6.44256e-08 4 0H20L20.2061 0.00488281ZM4 1C2.34315 1 1 2.34315 1 4V20C1 21.6569 2.34315 23 4 23H20C21.6569 23 23 21.6569 23 20V4C23 2.34315 21.6569 1 20 1H4Z" fill="black"/>
</svg>
