<svg width="24" height="24" viewBox="0 0 24 24" fill="none" xmlns="http://www.w3.org/2000/svg">
<path d="M21 11C20.7239 11 20.5 11.2239 20.5 11.5C20.5 11.7761 20.7239 12 21 12H23.5C23.7761 12 24 11.7761 24 11.5C24 11.2239 23.7761 11 23.5 11H21Z" fill="black"/>
<path d="M18.7173 17.5104C18.5221 17.3151 18.2055 17.3151 18.0102 17.5104C17.815 17.7057 17.815 18.0222 18.0102 18.2175L19.778 19.9853C19.9732 20.1805 20.2898 20.1805 20.4851 19.9853C20.6804 19.79 20.6804 19.4734 20.4851 19.2782L18.7173 17.5104Z" fill="black"/>
<path d="M12.5 20.5C12.5 20.2239 12.2761 20 12 20C11.7239 20 11.5 20.2239 11.5 20.5V23C11.5 23.2761 11.7239 23.5 12 23.5C12.2761 23.5 12.5 23.2761 12.5 23V20.5Z" fill="black"/>
<path d="M5.98978 17.5104C5.79452 17.3151 5.47794 17.3151 5.28268 17.5104L3.51491 19.2782C3.31965 19.4734 3.31965 19.79 3.51491 19.9853C3.71017 20.1805 4.02675 20.1805 4.22202 19.9853L5.98978 18.2175C6.18505 18.0222 6.18505 17.7057 5.98978 17.5104Z" fill="black"/>
<path d="M3.5 11.5C3.5 11.2239 3.27614 11 3 11H0.5C0.223858 11 0 11.2239 0 11.5C0 11.7761 0.223858 12 0.5 12H3C3.27614 12 3.5 11.7761 3.5 11.5Z" fill="black"/>
<path fill-rule="evenodd" clip-rule="evenodd" d="M4.91191 10.8888C4.91191 14.8013 8.08316 18 12.0001 18C15.9171 18 19.0884 14.8013 19.0884 10.8888C19.0884 9.27288 18.5386 7.6962 17.5283 6.43337L16.9253 5.67963C16.4978 5.14519 16.2649 4.48115 16.2649 3.79672V2.6368C16.2649 1.73282 15.532 1 14.628 1H9.37224C8.46826 1 7.73544 1.73282 7.73544 2.6368V3.79672C7.73544 4.48115 7.50251 5.14519 7.07495 5.67963L6.47196 6.43337C5.46169 7.6962 4.91191 9.27288 4.91191 10.8888ZM12.0001 17C8.63996 17 5.91191 14.2535 5.91191 10.8888C5.91191 9.49867 6.38521 8.14259 7.25283 7.05806L7.85582 6.30433C8.05506 6.05527 8.22257 5.78508 8.35616 5.5H15.6441C15.7777 5.78508 15.9452 6.05527 16.1445 6.30433L16.7475 7.05806C17.6151 8.14259 18.0884 9.49867 18.0884 10.8888C18.0884 14.2535 15.3603 17 12.0001 17ZM15.2649 3.79672C15.2649 4.03384 15.2858 4.26912 15.3269 4.5H8.67336C8.71445 4.26912 8.73544 4.03384 8.73544 3.79672V2.6368C8.73544 2.2851 9.02054 2 9.37224 2H14.628C14.9797 2 15.2649 2.28511 15.2649 2.6368V3.79672Z" fill="black"/>
</svg>
