<svg width="24" height="24" viewBox="0 0 24 24" fill="none" xmlns="http://www.w3.org/2000/svg">
<path d="M9 9.35547L7.20703 7H10.792L9 9.35547Z" fill="black"/>
<path d="M15 9.35547L13.208 7H16.793L15 9.35547Z" fill="black"/>
<path d="M6 5.35547L4.20703 3H7.79199L6 5.35547Z" fill="black"/>
<path d="M12 5.35547L10.208 3H13.792L12 5.35547Z" fill="black"/>
<path d="M18 5.35547L16.208 3H19.793L18 5.35547Z" fill="black"/>
<path fill-rule="evenodd" clip-rule="evenodd" d="M20.2061 0.00488281C22.3194 0.112115 24 1.85996 24 4V20L23.9951 20.2061C23.8913 22.2512 22.2512 23.8913 20.2061 23.9951L20 24H4C1.85996 24 0.112115 22.3194 0.00488281 20.2061L0 20V4C2.57706e-07 1.79086 1.79086 6.44256e-08 4 0H20L20.2061 0.00488281ZM4 1C2.34315 1 1 2.34315 1 4V20C1 21.6569 2.34315 23 4 23H20C21.6569 23 23 21.6569 23 20V4C23 2.34315 21.6569 1 20 1H4Z" fill="black"/>
</svg>
