<svg width="24" height="24" viewBox="0 0 24 24" fill="none" xmlns="http://www.w3.org/2000/svg">
<path d="M6.38086 16.75C6.64795 16.7501 6.90815 16.8355 7.12305 16.9941L9.30273 18.6035C9.43162 18.6986 9.58786 18.7499 9.74805 18.75H13.8135C13.9675 18.75 14.118 18.7026 14.2441 18.6143L16.582 16.9766C16.7921 16.8294 17.0423 16.7501 17.2988 16.75H19.8389C19.9768 16.7501 20.0889 16.862 20.0889 17C20.0889 17.138 19.9768 17.2499 19.8389 17.25H17.2988C17.1451 17.2501 16.9951 17.2975 16.8691 17.3857L14.5312 19.0234C14.3211 19.1707 14.0701 19.25 13.8135 19.25H9.74805C9.48098 19.2499 9.22074 19.1645 9.00586 19.0059L6.82617 17.3965C6.69726 17.3013 6.54107 17.2501 6.38086 17.25H4C3.86193 17.25 3.75 17.1381 3.75 17C3.75 16.8619 3.86193 16.75 4 16.75H6.38086Z" fill="black"/>
<path d="M6.38086 12.75C6.64795 12.7501 6.90815 12.8355 7.12305 12.9941L9.30273 14.6035C9.43162 14.6986 9.58786 14.7499 9.74805 14.75H13.8135C13.9675 14.75 14.118 14.7026 14.2441 14.6143L16.582 12.9766C16.7921 12.8294 17.0423 12.7501 17.2988 12.75H19.8389C19.9768 12.7501 20.0889 12.862 20.0889 13C20.0889 13.138 19.9768 13.2499 19.8389 13.25H17.2988C17.1451 13.2501 16.9951 13.2975 16.8691 13.3857L14.5312 15.0234C14.3211 15.1707 14.0701 15.25 13.8135 15.25H9.74805C9.48098 15.2499 9.22074 15.1645 9.00586 15.0059L6.82617 13.3965C6.69726 13.3013 6.54107 13.2501 6.38086 13.25H4C3.86193 13.25 3.75 13.1381 3.75 13C3.75 12.8619 3.86193 12.75 4 12.75H6.38086Z" fill="black"/>
<path d="M6.38086 8.75C6.64795 8.75006 6.90815 8.83553 7.12305 8.99414L9.30273 10.6035C9.43162 10.6986 9.58786 10.7499 9.74805 10.75H13.8135C13.9675 10.75 14.118 10.7026 14.2441 10.6143L16.582 8.97656C16.7921 8.8294 17.0423 8.75009 17.2988 8.75H19.8389C19.9768 8.75012 20.0889 8.862 20.0889 9C20.0889 9.138 19.9768 9.24988 19.8389 9.25H17.2988C17.1451 9.25009 16.9951 9.29754 16.8691 9.38574L14.5312 11.0234C14.3211 11.1707 14.0701 11.25 13.8135 11.25H9.74805C9.48098 11.2499 9.22074 11.1645 9.00586 11.0059L6.82617 9.39648C6.69726 9.30134 6.54107 9.25006 6.38086 9.25H4C3.86193 9.25 3.75 9.13807 3.75 9C3.75 8.86193 3.86193 8.75 4 8.75H6.38086Z" fill="black"/>
<path fill-rule="evenodd" clip-rule="evenodd" d="M20.2061 0.00488281C22.3194 0.112115 24 1.85996 24 4V20L23.9951 20.2061C23.8913 22.2512 22.2512 23.8913 20.2061 23.9951L20 24H4C1.85996 24 0.112115 22.3194 0.00488281 20.2061L0 20V4C2.57706e-07 1.79086 1.79086 6.44256e-08 4 0H20L20.2061 0.00488281ZM4 0.5C2.067 0.5 0.5 2.067 0.5 4V20C0.5 21.933 2.067 23.5 4 23.5H20C21.933 23.5 23.5 21.933 23.5 20V4C23.5 2.067 21.933 0.5 20 0.5H4Z" fill="black"/>
</svg>
