<svg width="24" height="24" viewBox="0 0 24 24" fill="none" xmlns="http://www.w3.org/2000/svg">
<path d="M19.5 19C20.0523 19 20.5 19.4477 20.5 20C20.5 20.5523 20.0523 21 19.5 21H4.5C3.94772 21 3.5 20.5523 3.5 20C3.5 19.4477 3.94772 19 4.5 19H19.5Z" fill="black"/>
<path d="M8.86426 11.3965C9.35242 10.9085 10.1437 10.9084 10.6318 11.3965C11.1199 11.8846 11.1198 12.6759 10.6318 13.1641L9.39453 14.4014C9.00403 14.7919 8.371 14.7918 7.98047 14.4014L7.62695 14.0479C7.23643 13.6573 7.23643 13.0243 7.62695 12.6338L8.86426 11.3965Z" fill="black"/>
<path d="M13.1465 11.3965C13.6346 10.9084 14.4259 10.9084 14.9141 11.3965L16.1514 12.6338C16.5419 13.0243 16.5419 13.6573 16.1514 14.0479L15.7979 14.4014C15.4073 14.7919 14.7743 14.7919 14.3838 14.4014L13.1465 13.1641C12.6584 12.6759 12.6583 11.8846 13.1465 11.3965Z" fill="black"/>
<path d="M12.25 6.25C12.8023 6.25 13.25 6.69772 13.25 7.25V9C13.25 9.69036 12.6904 10.25 12 10.25C11.3096 10.25 10.75 9.69036 10.75 9V7.25C10.75 6.69772 11.1977 6.25 11.75 6.25H12.25Z" fill="black"/>
<path fill-rule="evenodd" clip-rule="evenodd" d="M20.2061 0.00488281C22.3194 0.112115 24 1.85996 24 4V20L23.9951 20.2061C23.8913 22.2512 22.2512 23.8913 20.2061 23.9951L20 24H4C1.85996 24 0.112115 22.3194 0.00488281 20.2061L0 20V4C2.57706e-07 1.79086 1.79086 6.44256e-08 4 0H20L20.2061 0.00488281ZM4 2C2.89543 2 2 2.89543 2 4V20C2 21.1046 2.89543 22 4 22H20C21.1046 22 22 21.1046 22 20V4C22 2.89543 21.1046 2 20 2H4Z" fill="black"/>
</svg>
