<svg width="24" height="24" viewBox="0 0 24 24" fill="none" xmlns="http://www.w3.org/2000/svg">
<path d="M20 20.75C20.1381 20.75 20.25 20.8619 20.25 21C20.25 21.1381 20.1381 21.25 20 21.25H4C3.86193 21.25 3.75 21.1381 3.75 21C3.75 20.8619 3.86193 20.75 4 20.75H20Z" fill="black"/>
<path fill-rule="evenodd" clip-rule="evenodd" d="M8.6875 11.2197C9.2733 10.6341 10.2229 10.634 10.8086 11.2197C11.3943 11.8055 11.3942 12.755 10.8086 13.3408L9.57129 14.5781C9.08315 15.0663 8.29187 15.0662 7.80371 14.5781L7.4502 14.2246C6.96204 13.7365 6.96204 12.9452 7.4502 12.457L8.6875 11.2197ZM10.4551 11.5732C10.0646 11.1828 9.43155 11.1829 9.04102 11.5732L7.80371 12.8105C7.51082 13.1034 7.51082 13.5782 7.80371 13.8711L8.15723 14.2246C8.45012 14.5174 8.9249 14.5175 9.21777 14.2246L10.4551 12.9873C10.8454 12.5968 10.8455 11.9637 10.4551 11.5732Z" fill="black"/>
<path fill-rule="evenodd" clip-rule="evenodd" d="M12.9697 11.2197C13.5555 10.634 14.505 10.634 15.0908 11.2197L16.3281 12.457C16.8163 12.9452 16.8163 13.7365 16.3281 14.2246L15.9746 14.5781C15.4865 15.0663 14.6952 15.0663 14.207 14.5781L12.9697 13.3408C12.384 12.755 12.384 11.8055 12.9697 11.2197ZM14.7373 11.5732C14.3468 11.1828 13.7137 11.1827 13.3232 11.5732C12.9327 11.9637 12.9328 12.5968 13.3232 12.9873L14.5605 14.2246C14.8534 14.5175 15.3282 14.5175 15.6211 14.2246L15.9746 13.8711C16.2675 13.5782 16.2675 13.1034 15.9746 12.8105L14.7373 11.5732Z" fill="black"/>
<path fill-rule="evenodd" clip-rule="evenodd" d="M12.25 6C12.9404 6 13.5 6.55964 13.5 7.25V9C13.5 9.82843 12.8284 10.5 12 10.5C11.1716 10.5 10.5 9.82843 10.5 9V7.25C10.5 6.55964 11.0596 6 11.75 6H12.25ZM11.75 6.5C11.3358 6.5 11 6.83579 11 7.25V9C11 9.55228 11.4477 10 12 10C12.5523 10 13 9.55228 13 9V7.25C13 6.83579 12.6642 6.5 12.25 6.5H11.75Z" fill="black"/>
<path fill-rule="evenodd" clip-rule="evenodd" d="M20.2061 0.00488281C22.3194 0.112115 24 1.85996 24 4V20L23.9951 20.2061C23.8913 22.2512 22.2512 23.8913 20.2061 23.9951L20 24H4C1.85996 24 0.112115 22.3194 0.00488281 20.2061L0 20V4C2.57706e-07 1.79086 1.79086 6.44256e-08 4 0H20L20.2061 0.00488281ZM4 0.5C2.067 0.5 0.5 2.067 0.5 4V20C0.5 21.933 2.067 23.5 4 23.5H20C21.933 23.5 23.5 21.933 23.5 20V4C23.5 2.067 21.933 0.5 20 0.5H4Z" fill="black"/>
</svg>
