<svg width="24" height="24" viewBox="0 0 24 24" fill="none" xmlns="http://www.w3.org/2000/svg">
<path d="M21 10.75C20.5858 10.75 20.25 11.0858 20.25 11.5C20.25 11.9142 20.5858 12.25 21 12.25H23C23.4142 12.25 23.75 11.9142 23.75 11.5C23.75 11.0858 23.4142 10.75 23 10.75H21Z" fill="black"/>
<path d="M18.8941 17.3336C18.6012 17.0407 18.1263 17.0407 17.8334 17.3336C17.5405 17.6265 17.5405 18.1014 17.8334 18.3943L19.6012 20.162C19.8941 20.4549 20.369 20.4549 20.6619 20.162C20.9548 19.8692 20.9548 19.3943 20.6619 19.1014L18.8941 17.3336Z" fill="black"/>
<path d="M12.75 20.5C12.75 20.0858 12.4142 19.75 12 19.75C11.5858 19.75 11.25 20.0858 11.25 20.5V23C11.25 23.4142 11.5858 23.75 12 23.75C12.4142 23.75 12.75 23.4142 12.75 23V20.5Z" fill="black"/>
<path d="M6.16656 17.3336C5.87367 17.0407 5.39879 17.0407 5.1059 17.3336L3.33813 19.1014C3.04524 19.3943 3.04524 19.8692 3.33813 20.162C3.63103 20.4549 4.1059 20.4549 4.39879 20.162L6.16656 18.3943C6.45945 18.1014 6.45945 17.6265 6.16656 17.3336Z" fill="black"/>
<path d="M3.75 11.5C3.75 11.0858 3.41421 10.75 3 10.75H1C0.585787 10.75 0.25 11.0858 0.25 11.5C0.25 11.9142 0.585787 12.25 1 12.25H3C3.41421 12.25 3.75 11.9142 3.75 11.5Z" fill="black"/>
<path fill-rule="evenodd" clip-rule="evenodd" d="M4.41191 10.8888C4.41191 15.0752 7.80476 18.5 12.0001 18.5C16.1955 18.5 19.5884 15.0752 19.5884 10.8888C19.5884 9.15998 19.0004 7.47301 17.9188 6.12102L17.3158 5.36728C16.9591 4.9215 16.7649 4.36761 16.7649 3.79672V2.6368C16.7649 1.45668 15.8082 0.5 14.628 0.5H9.37224C8.19211 0.5 7.23544 1.45668 7.23544 2.6368V3.79672C7.23544 4.36761 7.04115 4.9215 6.68452 5.36728L6.08153 6.12102C4.99994 7.47301 4.41191 9.15998 4.41191 10.8888ZM12.0001 16.5C8.91837 16.5 6.41191 13.9796 6.41191 10.8888C6.41191 9.61157 6.84696 8.36579 7.64326 7.37041L8.24625 6.61667C8.40213 6.42183 8.54073 6.21548 8.66123 6H15.3391C15.4596 6.21548 15.5982 6.42183 15.754 6.61667L16.357 7.37041C17.1533 8.36579 17.5884 9.61157 17.5884 10.8888C17.5884 13.9796 15.0819 16.5 12.0001 16.5ZM14.7649 3.79672C14.7649 3.86463 14.7664 3.9324 14.7694 4H9.23086C9.23391 3.9324 9.23544 3.86463 9.23544 3.79672V2.6368C9.23544 2.56125 9.29669 2.5 9.37224 2.5H14.628C14.7036 2.5 14.7649 2.56125 14.7649 2.6368V3.79672Z" fill="black"/>
</svg>
