<svg width="24" height="24" viewBox="0 0 24 24" fill="none" xmlns="http://www.w3.org/2000/svg">
<path d="M20 20.5C20.2761 20.5 20.5 20.7239 20.5 21C20.5 21.2761 20.2761 21.5 20 21.5H4C3.72386 21.5 3.5 21.2761 3.5 21C3.5 20.7239 3.72386 20.5 4 20.5H20Z" fill="black"/>
<path fill-rule="evenodd" clip-rule="evenodd" d="M8.51074 11.043C9.19417 10.3597 10.302 10.3596 10.9854 11.043C11.6686 11.7263 11.6686 12.8342 10.9854 13.5176L9.74805 14.7549C9.16228 15.3406 8.21274 15.3406 7.62695 14.7549L7.27344 14.4014C6.68765 13.8156 6.68765 12.8661 7.27344 12.2803L8.51074 11.043ZM10.2783 11.75C9.98547 11.4572 9.51068 11.4572 9.21777 11.75L7.98047 12.9873C7.78521 13.1826 7.78521 13.4991 7.98047 13.6943L8.33398 14.0479C8.52925 14.2431 8.84577 14.2431 9.04102 14.0479L10.2783 12.8105C10.5711 12.5177 10.5711 12.0429 10.2783 11.75Z" fill="black"/>
<path fill-rule="evenodd" clip-rule="evenodd" d="M12.793 11.043C13.4764 10.3596 14.5842 10.3596 15.2676 11.043L16.5049 12.2803C17.0907 12.8661 17.0907 13.8156 16.5049 14.4014L16.1514 14.7549C15.5656 15.3407 14.6161 15.3407 14.0303 14.7549L12.793 13.5176C12.1096 12.8342 12.1096 11.7264 12.793 11.043ZM14.5605 11.75C14.2677 11.4572 13.7929 11.4571 13.5 11.75C13.2071 12.0429 13.2072 12.5176 13.5 12.8105L14.7373 14.0479C14.9326 14.2431 15.2491 14.2431 15.4443 14.0479L15.7979 13.6943C15.9931 13.4991 15.9931 13.1826 15.7979 12.9873L14.5605 11.75Z" fill="black"/>
<path fill-rule="evenodd" clip-rule="evenodd" d="M12.25 5.75C13.0784 5.75 13.75 6.42157 13.75 7.25V9C13.75 9.9665 12.9665 10.75 12 10.75C11.0335 10.75 10.25 9.9665 10.25 9V7.25C10.25 6.42157 10.9216 5.75 11.75 5.75H12.25ZM11.75 6.75C11.4739 6.75 11.25 6.97386 11.25 7.25V9C11.25 9.41421 11.5858 9.75 12 9.75C12.4142 9.75 12.75 9.41421 12.75 9V7.25C12.75 6.97386 12.5261 6.75 12.25 6.75H11.75Z" fill="black"/>
<path fill-rule="evenodd" clip-rule="evenodd" d="M20.2061 0.00488281C22.3194 0.112115 24 1.85996 24 4V20L23.9951 20.2061C23.8913 22.2512 22.2512 23.8913 20.2061 23.9951L20 24H4C1.85996 24 0.112115 22.3194 0.00488281 20.2061L0 20V4C2.57706e-07 1.79086 1.79086 6.44256e-08 4 0H20L20.2061 0.00488281ZM4 1C2.34315 1 1 2.34315 1 4V20C1 21.6569 2.34315 23 4 23H20C21.6569 23 23 21.6569 23 20V4C23 2.34315 21.6569 1 20 1H4Z" fill="black"/>
</svg>
