<svg width="24" height="24" viewBox="0 0 24 24" fill="none" xmlns="http://www.w3.org/2000/svg">
<path d="M20 20.75C20.1381 20.75 20.25 20.8619 20.25 21C20.25 21.1381 20.1381 21.25 20 21.25H4C3.86193 21.25 3.75 21.1381 3.75 21C3.75 20.8619 3.86193 20.75 4 20.75H20Z" fill="black"/>
<path d="M8.86426 11.3965C9.35242 10.9085 10.1437 10.9084 10.6318 11.3965C11.1199 11.8846 11.1198 12.6759 10.6318 13.1641L9.39453 14.4014C9.00403 14.7919 8.371 14.7918 7.98047 14.4014L7.62695 14.0479C7.23643 13.6573 7.23643 13.0243 7.62695 12.6338L8.86426 11.3965Z" fill="black"/>
<path d="M13.1465 11.3965C13.6346 10.9084 14.4259 10.9084 14.9141 11.3965L16.1514 12.6338C16.5419 13.0243 16.5419 13.6573 16.1514 14.0479L15.7979 14.4014C15.4073 14.7919 14.7743 14.7919 14.3838 14.4014L13.1465 13.1641C12.6584 12.6759 12.6583 11.8846 13.1465 11.3965Z" fill="black"/>
<path d="M12.25 6.25C12.8023 6.25 13.25 6.69772 13.25 7.25V9C13.25 9.69036 12.6904 10.25 12 10.25C11.3096 10.25 10.75 9.69036 10.75 9V7.25C10.75 6.69772 11.1977 6.25 11.75 6.25H12.25Z" fill="black"/>
<path fill-rule="evenodd" clip-rule="evenodd" d="M20.2061 0.00488281C22.3194 0.112115 24 1.85996 24 4V20L23.9951 20.2061C23.8913 22.2512 22.2512 23.8913 20.2061 23.9951L20 24H4C1.85996 24 0.112115 22.3194 0.00488281 20.2061L0 20V4C2.57706e-07 1.79086 1.79086 6.44256e-08 4 0H20L20.2061 0.00488281ZM4 0.5C2.067 0.5 0.5 2.067 0.5 4V20C0.5 21.933 2.067 23.5 4 23.5H20C21.933 23.5 23.5 21.933 23.5 20V4C23.5 2.067 21.933 0.5 20 0.5H4Z" fill="black"/>
</svg>
