<svg width="24" height="24" viewBox="0 0 24 24" fill="none" xmlns="http://www.w3.org/2000/svg">
<path fill-rule="evenodd" clip-rule="evenodd" d="M8.6875 12.2197C9.2733 11.6341 10.2229 11.634 10.8086 12.2197C11.3943 12.8055 11.3942 13.755 10.8086 14.3408L9.57129 15.5781C9.08315 16.0663 8.29187 16.0662 7.80371 15.5781L7.4502 15.2246C6.96204 14.7365 6.96204 13.9452 7.4502 13.457L8.6875 12.2197ZM10.4551 12.5732C10.0646 12.1828 9.43155 12.1829 9.04102 12.5732L7.80371 13.8105C7.51082 14.1034 7.51082 14.5782 7.80371 14.8711L8.15723 15.2246C8.45012 15.5174 8.9249 15.5175 9.21777 15.2246L10.4551 13.9873C10.8454 13.5968 10.8455 12.9637 10.4551 12.5732Z" fill="black"/>
<path fill-rule="evenodd" clip-rule="evenodd" d="M12.9697 12.2197C13.5555 11.634 14.505 11.634 15.0908 12.2197L16.3281 13.457C16.8163 13.9452 16.8163 14.7365 16.3281 15.2246L15.9746 15.5781C15.4865 16.0663 14.6952 16.0663 14.207 15.5781L12.9697 14.3408C12.384 13.755 12.384 12.8055 12.9697 12.2197ZM14.7373 12.5732C14.3468 12.1828 13.7137 12.1827 13.3232 12.5732C12.9327 12.9637 12.9328 13.5968 13.3232 13.9873L14.5605 15.2246C14.8534 15.5175 15.3282 15.5175 15.6211 15.2246L15.9746 14.8711C16.2675 14.5782 16.2675 14.1034 15.9746 13.8105L14.7373 12.5732Z" fill="black"/>
<path fill-rule="evenodd" clip-rule="evenodd" d="M12.25 7C12.9404 7 13.5 7.55964 13.5 8.25V10C13.5 10.8284 12.8284 11.5 12 11.5C11.1716 11.5 10.5 10.8284 10.5 10V8.25C10.5 7.55964 11.0596 7 11.75 7H12.25ZM11.75 7.5C11.3358 7.5 11 7.83579 11 8.25V10C11 10.5523 11.4477 11 12 11C12.5523 11 13 10.5523 13 10V8.25C13 7.83579 12.6642 7.5 12.25 7.5H11.75Z" fill="black"/>
<path fill-rule="evenodd" clip-rule="evenodd" d="M12 2C17.5228 2 22 6.47715 22 12C22 17.5228 17.5228 22 12 22C6.47715 22 2 17.5228 2 12C2 6.47715 6.47715 2 12 2ZM12 2.5C6.75329 2.5 2.5 6.75329 2.5 12C2.5 17.2467 6.75329 21.5 12 21.5C17.2467 21.5 21.5 17.2467 21.5 12C21.5 6.75329 17.2467 2.5 12 2.5Z" fill="black"/>
<path fill-rule="evenodd" clip-rule="evenodd" d="M20.2061 0.00488281C22.3194 0.112115 24 1.85996 24 4V20L23.9951 20.2061C23.8913 22.2512 22.2512 23.8913 20.2061 23.9951L20 24H4C1.85996 24 0.112115 22.3194 0.00488281 20.2061L0 20V4C2.57706e-07 1.79086 1.79086 6.44256e-08 4 0H20L20.2061 0.00488281ZM4 0.5C2.067 0.5 0.5 2.067 0.5 4V20C0.5 21.933 2.067 23.5 4 23.5H20C21.933 23.5 23.5 21.933 23.5 20V4C23.5 2.067 21.933 0.5 20 0.5H4Z" fill="black"/>
</svg>
