<svg width="24" height="24" viewBox="0 0 24 24" fill="none" xmlns="http://www.w3.org/2000/svg">
<path d="M9 8.11719L9.84961 7H11.1055L9 9.76758L6.89453 7H8.14941L9 8.11719Z" fill="black"/>
<path d="M15 8.11719L15.8496 7H17.1055L15 9.76758L12.8945 7H14.1494L15 8.11719Z" fill="black"/>
<path d="M6 4.11719L6.84961 3H8.10547L6 5.76758L3.89453 3H5.14941L6 4.11719Z" fill="black"/>
<path d="M12 4.11719L12.8496 3H14.1055L12 5.76758L9.89453 3H11.1494L12 4.11719Z" fill="black"/>
<path d="M18 4.11719L18.8496 3H20.1055L18 5.76758L15.8945 3H17.1494L18 4.11719Z" fill="black"/>
<path fill-rule="evenodd" clip-rule="evenodd" d="M20.2061 0.00488281C22.3194 0.112115 24 1.85996 24 4V20L23.9951 20.2061C23.8913 22.2512 22.2512 23.8913 20.2061 23.9951L20 24H4C1.85996 24 0.112115 22.3194 0.00488281 20.2061L0 20V4C2.57706e-07 1.79086 1.79086 6.44256e-08 4 0H20L20.2061 0.00488281ZM4 1C2.34315 1 1 2.34315 1 4V20C1 21.6569 2.34315 23 4 23H20C21.6569 23 23 21.6569 23 20V4C23 2.34315 21.6569 1 20 1H4Z" fill="black"/>
</svg>
