<svg width="24" height="24" viewBox="0 0 24 24" fill="none" xmlns="http://www.w3.org/2000/svg">
<path d="M6.38086 16C6.80824 16.0001 7.22449 16.1368 7.56836 16.3906L9.74805 18H13.8135L16.1514 16.3623C16.4875 16.1268 16.8884 16.0001 17.2988 16H19.8389C20.391 16.0001 20.8389 16.4478 20.8389 17C20.8389 17.5522 20.391 17.9999 19.8389 18H17.2988L14.9609 19.6377C14.6246 19.8733 14.2241 20 13.8135 20H9.74805C9.32068 19.9999 8.9044 19.8632 8.56055 19.6094L6.38086 18H4C3.44772 18 3 17.5523 3 17C3 16.4477 3.44772 16 4 16H6.38086Z" fill="black"/>
<path d="M6.38086 12C6.80824 12.0001 7.22449 12.1368 7.56836 12.3906L9.74805 14H13.8135L16.1514 12.3623C16.4875 12.1268 16.8884 12.0001 17.2988 12H19.8389C20.391 12.0001 20.8389 12.4478 20.8389 13C20.8389 13.5522 20.391 13.9999 19.8389 14H17.2988L14.9609 15.6377C14.6246 15.8733 14.2241 16 13.8135 16H9.74805C9.32068 15.9999 8.9044 15.8632 8.56055 15.6094L6.38086 14H4C3.44772 14 3 13.5523 3 13C3 12.4477 3.44772 12 4 12H6.38086Z" fill="black"/>
<path d="M6.38086 8C6.80824 8.00006 7.22449 8.13684 7.56836 8.39062L9.74805 10H13.8135L16.1514 8.3623C16.4875 8.12679 16.8884 8.00009 17.2988 8H19.8389C20.391 8.00012 20.8389 8.44779 20.8389 9C20.8389 9.55221 20.391 9.99988 19.8389 10H17.2988L14.9609 11.6377C14.6246 11.8733 14.2241 12 13.8135 12H9.74805C9.32068 11.9999 8.9044 11.8632 8.56055 11.6094L6.38086 10H4C3.44772 10 3 9.55228 3 9C3 8.44772 3.44772 8 4 8H6.38086Z" fill="black"/>
<path fill-rule="evenodd" clip-rule="evenodd" d="M20.2061 0.00488281C22.3194 0.112115 24 1.85996 24 4V20L23.9951 20.2061C23.8913 22.2512 22.2512 23.8913 20.2061 23.9951L20 24H4C1.85996 24 0.112115 22.3194 0.00488281 20.2061L0 20V4C2.57706e-07 1.79086 1.79086 6.44256e-08 4 0H20L20.2061 0.00488281ZM4 2C2.89543 2 2 2.89543 2 4V20C2 21.1046 2.89543 22 4 22H20C21.1046 22 22 21.1046 22 20V4C22 2.89543 21.1046 2 20 2H4Z" fill="black"/>
</svg>
