<svg width="24" height="24" viewBox="0 0 24 24" fill="none" xmlns="http://www.w3.org/2000/svg">
<path fill-rule="evenodd" clip-rule="evenodd" d="M12.1775 1.81431C12.0679 1.74988 11.9321 1.74988 11.8225 1.81431L3.51977 6.6983C3.42974 6.75126 3.37494 6.83445 3.35538 6.92421C3.29136 6.9862 3.25 7.0733 3.25 7.17482V16.9428C3.25 17.0668 3.31564 17.1816 3.42254 17.2445L11.7225 22.1268C11.8128 22.1799 11.9121 22.1873 12 22.1607C12.0879 22.1873 12.1872 22.1799 12.2775 22.1268L20.5775 17.2445C20.6844 17.1816 20.75 17.0668 20.75 16.9428V7.17482C20.75 7.0733 20.7086 6.9862 20.6446 6.92421C20.6251 6.83445 20.5703 6.75126 20.4802 6.6983L12.1775 1.81431ZM20.0069 6.99997L12 11.7099L3.99308 6.99997L12 2.29002L20.0069 6.99997ZM20.25 7.43708V16.857L12.25 21.5629V12.143L20.25 7.43708ZM11.75 12.143V21.5629L3.75 16.857V7.43708L11.75 12.143Z" fill="black"/>
</svg>
