<svg width="24" height="24" viewBox="0 0 24 24" fill="none" xmlns="http://www.w3.org/2000/svg">
<path d="M4.62262 16.2651C4.55262 16.3841 4.59234 16.5374 4.71135 16.6074L7.00193 17.9548C7.12094 18.0248 7.27416 17.985 7.34417 17.866C7.41417 17.747 7.37445 17.5938 7.25544 17.5238L4.96486 16.1764C4.84585 16.1064 4.69263 16.1461 4.62262 16.2651Z" fill="black"/>
<path d="M4.71151 14.6073C4.5925 14.5373 4.55278 14.3841 4.62278 14.2651C4.69279 14.1461 4.84601 14.1064 4.96502 14.1764L7.2556 15.5238C7.37461 15.5938 7.41433 15.747 7.34433 15.866C7.27432 15.985 7.1211 16.0247 7.00209 15.9547L4.71151 14.6073Z" fill="black"/>
<path fill-rule="evenodd" clip-rule="evenodd" d="M8.8013 2.81476L11.8188 1.03976C11.9308 0.97389 12.0696 0.97389 12.1816 1.03976L21.1313 6.3043C21.2253 6.35956 21.2817 6.44702 21.3006 6.54096C21.3684 6.60455 21.4125 6.69517 21.4125 6.80116V17.3302C21.4125 17.457 21.3454 17.5744 21.2362 17.6386L12.2894 22.9014C12.1953 22.9568 12.0914 22.9635 12.0002 22.9344C11.909 22.9635 11.8052 22.9568 11.711 22.9014L2.76427 17.6386C2.65499 17.5744 2.58789 17.457 2.58789 17.3302V6.80116C2.58789 6.69517 2.63199 6.60455 2.69983 6.54096C2.71872 6.44702 2.77514 6.35956 2.86908 6.3043L5.93366 4.50161L5.93819 4.4989L8.79685 2.81733L8.8013 2.81476ZM5.90868 5.09639L3.33097 6.61269L12.0002 11.7122L14.4878 10.249L5.93542 5.11404C5.92614 5.10846 5.91722 5.10257 5.90868 5.09639ZM8.97679 3.29162L6.39798 4.80856L14.9784 9.96033L17.4684 8.49561L8.97679 3.29162ZM9.46504 3.00441L17.9316 8.19304C17.9399 8.19814 17.9479 8.20348 17.9556 8.20906L20.6695 6.61269L12.0002 1.51314L9.46504 3.00441ZM11.7502 12.1453L3.08789 7.0498V17.2489L11.7502 22.3444V12.1453ZM14.7274 10.6881L12.2502 12.1453V22.3444L20.9125 17.2489V7.0498L18.2017 8.64441C18.2034 8.65876 18.2043 8.67346 18.2043 8.68847V12.2176C18.2043 12.3443 18.1372 12.4617 18.0279 12.5259L15.2666 14.1503C15.028 14.2906 14.7274 14.1186 14.7274 13.8419V10.6881ZM17.7043 8.9371L15.2274 10.3941V13.5932L17.7043 12.1362V8.9371Z" fill="black"/>
</svg>
