<svg width="24" height="24" viewBox="0 0 24 24" fill="none" xmlns="http://www.w3.org/2000/svg">
<path d="M5.33076 16.2538C4.85472 15.9738 4.69582 15.3609 4.97584 14.8849C5.25586 14.4088 5.86876 14.2499 6.3448 14.5299L8.63538 15.8773C9.11141 16.1574 9.27031 16.7703 8.99029 17.2463C8.71027 17.7223 8.09737 17.8812 7.62134 17.6012L5.33076 16.2538Z" fill="black"/>
<path fill-rule="evenodd" clip-rule="evenodd" d="M8.42441 2.16632L11.4385 0.393305C11.7852 0.189374 12.2152 0.189373 12.5619 0.393305L21.5116 5.65785C21.727 5.78453 21.8786 5.96585 21.9666 6.1695C22.0889 6.34487 22.1625 6.56018 22.1625 6.80116V17.3302C22.1625 17.7228 21.9548 18.0861 21.6164 18.2851L12.6697 23.5479C12.4536 23.675 12.2211 23.7193 12.0002 23.697C11.7793 23.7193 11.5468 23.675 11.3307 23.5479L2.38401 18.2851C2.04565 18.0861 1.83789 17.7228 1.83789 17.3302V6.80116C1.83789 6.56018 1.91154 6.34486 2.03383 6.16949C2.1218 5.96585 2.27346 5.78453 2.48882 5.65785L5.54995 3.85718C5.5526 3.8556 5.55525 3.85402 5.55792 3.85245L8.41658 2.17088C8.41919 2.16935 8.4218 2.16783 8.42441 2.16632ZM5.90342 5.96962L4.8102 6.61269L12.0002 10.8421L13.0198 10.2424L5.90342 5.96962ZM8.96888 4.16641L7.86599 4.81517L14.9823 9.08788L16.0116 8.48244L8.96888 4.16641ZM10.9219 3.01758L17.9646 7.33364L19.1902 6.61269L12.0002 2.38327L10.9219 3.01758ZM11.0002 12.5742L3.83789 8.36111V16.8199L11.0002 21.0331V12.5742ZM13.9774 11.9994L13.0002 12.5742V21.0331L20.1625 16.8199V8.36111L18.9543 9.07184V12.2176C18.9543 12.6101 18.7465 12.9734 18.4082 13.1724L15.6468 14.7967C14.9083 15.2311 13.9774 14.6987 13.9774 13.8419V11.9994ZM15.9774 10.8231L16.9543 10.2484V11.7073L15.9774 12.2819V10.8231Z" fill="black"/>
</svg>
