<svg width="24" height="24" viewBox="0 0 24 24" fill="none" xmlns="http://www.w3.org/2000/svg">
<path d="M6.05866 4.7194L3.33314 6.32265L12.0024 11.4222L14.4909 9.95835L6.0656 4.89971C5.99818 4.85922 5.99602 4.76354 6.05866 4.7194Z" fill="black"/>
<path d="M8.93307 3.02857L11.9477 1.25524C11.9815 1.2354 12.0233 1.2354 12.057 1.25524L20.6716 6.32265L17.4729 8.20424L9.03607 3.03382C9.00469 3.01459 8.96588 3.0128 8.93307 3.02857Z" fill="black"/>
<path d="M17.9554 9.08061L21.1645 7.19291V17.3302C21.1645 17.3684 21.1443 17.4038 21.1114 17.4232L12.5022 22.4874V12.2884L14.9785 10.8317V13.8419C14.9785 13.9252 15.069 13.9771 15.1409 13.9348L17.9023 12.3105C17.9352 12.2911 17.9554 12.2558 17.9554 12.2176V9.08061Z" fill="black"/>
<path fill-rule="evenodd" clip-rule="evenodd" d="M11.5022 12.2881L2.83984 7.19266V17.3302C2.83984 17.3684 2.86006 17.4038 2.89298 17.4232L11.5022 22.4874V12.2881ZM4.40876 16.1384C4.26875 16.3764 4.3482 16.6828 4.58622 16.8228L6.8768 18.1702C7.11482 18.3102 7.42127 18.2308 7.56128 17.9928C7.70129 17.7548 7.62184 17.4483 7.38382 17.3083L5.09324 15.9609C4.85522 15.8209 4.54877 15.9003 4.40876 16.1384ZM4.58622 14.8228C4.3482 14.6828 4.26875 14.3764 4.40876 14.1383C4.54877 13.9003 4.85522 13.8209 5.09324 13.9609L7.38382 15.3083C7.62184 15.4483 7.70129 15.7547 7.56128 15.9928C7.42127 16.2308 7.11482 16.3102 6.8768 16.1702L4.58622 14.8228Z" fill="black"/>
</svg>
