<svg width="24" height="24" viewBox="0 0 24 24" fill="none" xmlns="http://www.w3.org/2000/svg">
<path d="M2.41749 6.04654C2.4262 6.04046 2.43525 6.03464 2.44463 6.02912L11.8012 0.525281C11.9246 0.452673 12.0777 0.452673 12.2011 0.525281L21.5577 6.02912C21.567 6.03464 21.5761 6.04044 21.5848 6.04652L12.0011 11.7096L2.41749 6.04654Z" fill="black"/>
<path d="M2.152 6.47043L11.7511 12.1426V23.4458C11.7299 23.4378 11.709 23.4278 11.6885 23.4158L2.33506 17.9138C2.2146 17.8429 2.14062 17.7136 2.14062 17.5738V6.56612C2.14062 6.53274 2.14459 6.50075 2.152 6.47043Z" fill="black"/>
<path d="M12.2511 23.4458V12.1426L21.8503 6.47039C21.8577 6.50072 21.8617 6.53273 21.8617 6.56612V17.5738C21.8617 17.7136 21.7877 17.8429 21.6672 17.9138L12.3138 23.4158C12.2933 23.4279 12.2723 23.4378 12.2511 23.4458Z" fill="black"/>
</svg>
