<svg width="24" height="24" viewBox="0 0 24 24" fill="none" xmlns="http://www.w3.org/2000/svg">
<path d="M4.40714 16.1384C4.26713 16.3764 4.34658 16.6828 4.58459 16.8228L6.87517 18.1702C7.11319 18.3103 7.41964 18.2308 7.55965 17.9928C7.69966 17.7548 7.62021 17.4483 7.3822 17.3083L5.09161 15.9609C4.8536 15.8209 4.54715 15.9003 4.40714 16.1384Z" fill="black"/>
<path d="M4.58475 14.8228C4.34674 14.6828 4.26729 14.3764 4.4073 14.1383C4.54731 13.9003 4.85376 13.8209 5.09177 13.9609L7.38236 15.3083C7.62037 15.4483 7.69982 15.7547 7.55981 15.9928C7.4198 16.2308 7.11335 16.3102 6.87533 16.1702L4.58475 14.8228Z" fill="black"/>
<path fill-rule="evenodd" clip-rule="evenodd" d="M11.6921 0.824272C11.8823 0.712385 12.1182 0.712384 12.3084 0.824272L21.2581 6.08882C21.3923 6.16775 21.4814 6.28535 21.5254 6.41565C21.6101 6.51814 21.6625 6.65051 21.6625 6.80116V17.3302C21.6625 17.5456 21.5486 17.7449 21.3629 17.8541L12.4162 23.1169C12.2816 23.196 12.1355 23.2167 12.0002 23.1918C11.865 23.2167 11.7188 23.196 11.5843 23.1169L2.63752 17.8541C2.45188 17.7449 2.33789 17.5456 2.33789 17.3302V6.80116C2.33789 6.65051 2.39035 6.51814 2.47498 6.41565C2.51902 6.28535 2.60814 6.16775 2.74233 6.08881L5.80554 4.28692C5.8075 4.28574 5.80946 4.28458 5.81143 4.28342L8.6701 2.60185C8.67201 2.60072 8.67393 2.59961 8.67586 2.5985L11.6921 0.824272ZM9.95066 3.0088L12.0002 1.80318L20.1764 6.61269L17.9593 7.91683L9.95066 3.0088ZM13.9985 10.2468L12.0002 11.4222L3.82405 6.61269L5.90603 5.38799L13.9985 10.2468ZM8.97416 3.58321L6.88732 4.81077L14.9797 9.66951L16.9828 8.49122L8.97416 3.58321ZM20.6625 17.1059V7.4869L18.4543 8.78587V12.2176C18.4543 12.4329 18.3403 12.6322 18.1547 12.7414L15.3933 14.3658C14.9881 14.6041 14.4774 14.3119 14.4774 13.8419V11.1252L12.5002 12.2883V21.9073L20.6625 17.1059ZM11.5002 21.9073V12.2883L3.33789 7.4869V17.1059L11.5002 21.9073ZM17.4543 9.37421L15.4774 10.5371V13.1561L17.4543 11.9932V9.37421Z" fill="black"/>
</svg>
