<svg width="24" height="24" viewBox="0 0 24 24" fill="none" xmlns="http://www.w3.org/2000/svg">
<path fill-rule="evenodd" clip-rule="evenodd" d="M2.47125 6.43082C2.5801 6.19448 2.7606 5.98469 3.01275 5.83636L11.3155 0.95238C11.738 0.703862 12.262 0.703861 12.6845 0.95238L20.9872 5.83636C21.2394 5.98469 21.4199 6.19448 21.5287 6.43082C21.6673 6.63971 21.75 6.89285 21.75 7.17482V16.9428C21.75 17.4212 21.4968 17.8638 21.0845 18.1064L12.7845 22.9887C12.5314 23.1376 12.2597 23.1933 12 23.1732C11.7403 23.1933 11.4686 23.1376 11.2155 22.9887L2.91552 18.1064C2.50318 17.8638 2.25 17.4212 2.25 16.9428V7.17482C2.25 6.89285 2.33274 6.63971 2.47125 6.43082ZM5.96539 6.99997L12 3.4502L18.0346 6.99997L12 10.5497L5.96539 6.99997ZM4.75 9.18549L10.75 12.7149V19.8145L4.75 16.285V9.18549ZM13.25 12.7149L19.25 9.18549V16.285L13.25 19.8145V12.7149Z" fill="black"/>
</svg>
