<svg width="24" height="24" viewBox="0 0 24 24" fill="none" xmlns="http://www.w3.org/2000/svg">
<path d="M2.0791 1.5C2.35524 1.5 2.5791 1.72386 2.5791 2V21.8428C2.5791 22.1189 2.35524 22.3428 2.0791 22.3428C1.80296 22.3428 1.5791 22.1189 1.5791 21.8428V2C1.5791 1.72386 1.80296 1.5 2.0791 1.5Z" fill="black"/>
<path d="M22.0791 1.5C22.3552 1.5 22.5791 1.72386 22.5791 2V21.8428C22.5791 22.1189 22.3552 22.3428 22.0791 22.3428C21.803 22.3428 21.5791 22.1189 21.5791 21.8428V2C21.5791 1.72386 21.803 1.5 22.0791 1.5Z" fill="black"/>
<path fill-rule="evenodd" clip-rule="evenodd" d="M13.8789 7C14.999 7 15.5595 6.99979 15.9873 7.21777C16.3636 7.40951 16.6696 7.71554 16.8613 8.0918C17.0793 8.51962 17.0791 9.08009 17.0791 10.2002V13.7998C17.0791 14.9199 17.0793 15.4804 16.8613 15.9082L16.7842 16.0459C16.592 16.3592 16.3165 16.6145 15.9873 16.7822L15.8193 16.8535C15.4102 16.9995 14.8589 17 13.8789 17H10.2793L9.53711 16.9971C8.99554 16.9886 8.63104 16.9578 8.33887 16.8535L8.1709 16.7822C7.84166 16.6145 7.56617 16.3592 7.37402 16.0459L7.29688 15.9082C7.07889 15.4804 7.0791 14.9199 7.0791 13.7998V10.2002C7.0791 9.08009 7.07889 8.51962 7.29688 8.0918C7.48861 7.71554 7.79465 7.40951 8.1709 7.21777C8.49173 7.0543 8.88713 7.01315 9.53711 7.00293L10.2793 7H13.8789ZM10.2793 8C9.70274 8 9.33021 8.00126 9.04688 8.02441C8.77529 8.04661 8.67444 8.08419 8.625 8.10938C8.43703 8.20521 8.28432 8.35793 8.18848 8.5459C8.16329 8.59534 8.12571 8.69619 8.10352 8.96777C8.08037 9.25111 8.0791 9.62364 8.0791 10.2002V13.7998C8.0791 14.3764 8.08037 14.7489 8.10352 15.0322C8.12571 15.3038 8.16329 15.4047 8.18848 15.4541C8.28432 15.6421 8.43703 15.7948 8.625 15.8906C8.67444 15.9158 8.77529 15.9534 9.04688 15.9756C9.33021 15.9987 9.70274 16 10.2793 16H13.8789C14.4555 16 14.828 15.9987 15.1113 15.9756C15.3829 15.9534 15.4838 15.9158 15.5332 15.8906C15.7212 15.7948 15.8739 15.6421 15.9697 15.4541C15.9949 15.4047 16.0325 15.3038 16.0547 15.0322C16.0778 14.7489 16.0791 14.3764 16.0791 13.7998V10.2002C16.0791 9.62364 16.0778 9.25111 16.0547 8.96777C16.0325 8.69619 15.9949 8.59534 15.9697 8.5459C15.8739 8.35793 15.7212 8.20521 15.5332 8.10938C15.4838 8.08419 15.3829 8.04661 15.1113 8.02441C14.828 8.00126 14.4555 8 13.8789 8H10.2793Z" fill="black"/>
</svg>
