<svg width="24" height="24" viewBox="0 0 24 24" fill="none" xmlns="http://www.w3.org/2000/svg">
<path d="M22 20.6719C22.6904 20.6719 23.25 21.2315 23.25 21.9219C23.2498 22.6121 22.6903 23.1719 22 23.1719H2.15723C1.46697 23.1719 0.907391 22.6121 0.907227 21.9219C0.907227 21.2315 1.46687 20.6719 2.15723 20.6719H22Z" fill="black"/>
<path fill-rule="evenodd" clip-rule="evenodd" d="M13.8789 7C14.999 7 15.5595 6.99979 15.9873 7.21777C16.3636 7.40951 16.6696 7.71554 16.8613 8.0918C17.0793 8.51962 17.0791 9.08009 17.0791 10.2002V13.7998C17.0791 14.9199 17.0793 15.4804 16.8613 15.9082L16.7842 16.0459C16.592 16.3592 16.3165 16.6145 15.9873 16.7822L15.8193 16.8535C15.4102 16.9995 14.8589 17 13.8789 17H10.2793L9.53711 16.9971C8.99554 16.9886 8.63104 16.9578 8.33887 16.8535L8.1709 16.7822C7.84166 16.6145 7.56617 16.3592 7.37402 16.0459L7.29688 15.9082C7.07889 15.4804 7.0791 14.9199 7.0791 13.7998V10.2002C7.0791 9.08009 7.07889 8.51962 7.29688 8.0918C7.48861 7.71554 7.79465 7.40951 8.1709 7.21777C8.49173 7.0543 8.88713 7.01315 9.53711 7.00293L10.2793 7H13.8789ZM9.58105 9.50195C9.57809 9.69398 9.5791 9.91664 9.5791 10.2002V13.7998C9.5791 14.0829 9.5781 14.3053 9.58105 14.4971C9.77309 14.5 9.99574 14.5 10.2793 14.5H13.8789C14.162 14.5 14.3844 14.5 14.5762 14.4971C14.5791 14.3053 14.5791 14.0829 14.5791 13.7998V10.2002C14.5791 9.91664 14.5791 9.69399 14.5762 9.50195C14.3844 9.499 14.162 9.5 13.8789 9.5H10.2793C9.99575 9.5 9.77309 9.49899 9.58105 9.50195Z" fill="black"/>
<path d="M22 0.671875C22.6904 0.671875 23.25 1.23152 23.25 1.92188C23.2498 2.61209 22.6903 3.17188 22 3.17188H2.15723C1.46697 3.17188 0.907391 2.61209 0.907227 1.92188C0.907227 1.23152 1.46687 0.671875 2.15723 0.671875H22Z" fill="black"/>
</svg>
