<svg width="24" height="24" viewBox="0 0 24 24" fill="none" xmlns="http://www.w3.org/2000/svg">
<path d="M22 21.1719C22.4142 21.1719 22.75 21.5077 22.75 21.9219C22.7498 22.3359 22.4141 22.6719 22 22.6719H2.15723C1.74311 22.6719 1.40739 22.3359 1.40723 21.9219C1.40723 21.5077 1.74301 21.1719 2.15723 21.1719H22Z" fill="black"/>
<path fill-rule="evenodd" clip-rule="evenodd" d="M13.8789 7C14.999 7 15.5595 6.99979 15.9873 7.21777C16.3636 7.40951 16.6696 7.71554 16.8613 8.0918C17.0793 8.51962 17.0791 9.08009 17.0791 10.2002V13.7998C17.0791 14.9199 17.0793 15.4804 16.8613 15.9082L16.7842 16.0459C16.592 16.3592 16.3165 16.6145 15.9873 16.7822L15.8193 16.8535C15.4102 16.9995 14.8589 17 13.8789 17H10.2793L9.53711 16.9971C8.99554 16.9886 8.63104 16.9578 8.33887 16.8535L8.1709 16.7822C7.84166 16.6145 7.56617 16.3592 7.37402 16.0459L7.29688 15.9082C7.07889 15.4804 7.0791 14.9199 7.0791 13.7998V10.2002C7.0791 9.08009 7.07889 8.51962 7.29688 8.0918C7.48861 7.71554 7.79465 7.40951 8.1709 7.21777C8.49173 7.0543 8.88713 7.01315 9.53711 7.00293L10.2793 7H13.8789ZM10.2793 8.5C9.69466 8.5 9.34612 8.50138 9.08789 8.52246C8.84715 8.54213 8.81975 8.57139 8.85254 8.55469C8.75846 8.60262 8.68173 8.67936 8.63379 8.77344C8.6505 8.74065 8.62123 8.76805 8.60156 9.00879C8.58048 9.26702 8.5791 9.61556 8.5791 10.2002V13.7998C8.5791 14.3844 8.58048 14.733 8.60156 14.9912C8.62123 15.232 8.6505 15.2594 8.63379 15.2266C8.68173 15.3206 8.75846 15.3974 8.85254 15.4453C8.81975 15.4286 8.84715 15.4579 9.08789 15.4775C9.34612 15.4986 9.69466 15.5 10.2793 15.5H13.8789C14.4635 15.5 14.8121 15.4986 15.0703 15.4775C15.3111 15.4579 15.3385 15.4286 15.3057 15.4453C15.3997 15.3974 15.4765 15.3206 15.5244 15.2266C15.5077 15.2594 15.537 15.232 15.5566 14.9912C15.5777 14.733 15.5791 14.3844 15.5791 13.7998V10.2002C15.5791 9.61556 15.5777 9.26702 15.5566 9.00879C15.537 8.76805 15.5077 8.74065 15.5244 8.77344C15.4765 8.67936 15.3997 8.60262 15.3057 8.55469C15.3385 8.57139 15.3111 8.54213 15.0703 8.52246C14.8121 8.50138 14.4635 8.5 13.8789 8.5H10.2793Z" fill="black"/>
<path d="M22 1.17188C22.4142 1.17188 22.75 1.50766 22.75 1.92188C22.7498 2.33595 22.4141 2.67188 22 2.67188H2.15723C1.74311 2.67188 1.40739 2.33595 1.40723 1.92188C1.40723 1.50766 1.74301 1.17188 2.15723 1.17188H22Z" fill="black"/>
</svg>
