<svg width="24" height="24" viewBox="0 0 24 24" fill="none" xmlns="http://www.w3.org/2000/svg">
<path fill-rule="evenodd" clip-rule="evenodd" d="M2 6C2 3.79086 3.79086 2 6 2C8.20914 2 10 3.79086 10 6V18C10 20.2091 8.20914 22 6 22C3.79086 22 2 20.2091 2 18V6ZM6 20C7.10457 20 8 19.1046 8 18C8 16.8954 7.10457 16 6 16C4.89543 16 4 16.8954 4 18C4 19.1046 4.89543 20 6 20Z" fill="black"/>
<path d="M11.5 6.8497L12.9108 5.43888C14.4729 3.87678 17.0056 3.87678 18.5677 5.43887C20.1298 7.00097 20.1298 9.53363 18.5677 11.0957L11.4975 18.1659C11.4992 18.1108 11.5 18.0555 11.5 18V6.8497Z" fill="black"/>
<path d="M17.7847 14L9.9035 21.8812C9.86315 21.9216 9.82233 21.9612 9.78106 22H18C20.2091 22 22 20.2091 22 18C22 15.7909 20.2091 14 18 14H17.7847Z" fill="black"/>
</svg>
