<svg width="24" height="24" viewBox="0 0 24 24" fill="none" xmlns="http://www.w3.org/2000/svg">
<path d="M5.54879 7.99756V16.9507C5.54922 19.7116 7.78776 21.9505 10.5488 21.9507H11.167C13.2945 21.9505 15.2405 20.7479 16.1923 18.8452L16.2597 18.7085L17.0029 19.4517C15.8543 21.6004 13.6132 22.9505 11.167 22.9507H10.5488C7.23547 22.9505 4.54922 20.2639 4.54879 16.9507V6.99756L5.54879 7.99756Z" fill="black"/>
<path d="M1.5234 1.49756C1.71868 1.30253 2.03525 1.30237 2.23043 1.49756L22.0273 21.2944C22.2224 21.4896 22.2223 21.8062 22.0273 22.0015C21.8321 22.1967 21.5155 22.1966 21.3203 22.0015L1.5234 2.20459C1.32814 2.00933 1.32814 1.69282 1.5234 1.49756Z" fill="black"/>
<path d="M20.0019 10.1274C20.1254 9.88053 20.4259 9.78037 20.6728 9.90381C20.9191 10.0276 21.0197 10.3281 20.8964 10.5747L19.8095 12.7456L18.5644 16.064L17.7871 15.2866L18.8808 12.3755L18.8896 12.3501L20.0019 10.1274Z" fill="black"/>
<path d="M8.99899 11.4478V11.4497C8.99878 11.7255 8.77479 11.9495 8.49899 11.9497C8.22306 11.9496 7.99919 11.7256 7.99899 11.4497V10.4478L8.99899 11.4478Z" fill="black"/>
<path d="M15.499 1.6001C15.7749 1.60034 15.9989 1.82416 15.999 2.1001V11.4497C15.9988 11.7255 15.7748 11.9495 15.499 11.9497C15.2231 11.9496 14.9992 11.7256 14.999 11.4497V2.1001C14.9991 1.82408 15.223 1.60021 15.499 1.6001Z" fill="black"/>
<path d="M11.999 1.05029C12.2749 1.05054 12.499 1.2743 12.499 1.55029V9.99854L11.499 8.99854V1.55029C11.499 1.27422 11.7229 1.0504 11.999 1.05029Z" fill="black"/>
<path d="M8.49899 1.6001C8.77488 1.60034 8.99892 1.82416 8.99899 2.1001V6.49854L7.99899 5.49854V2.1001C7.99905 1.82408 8.22298 1.60021 8.49899 1.6001Z" fill="black"/>
</svg>
