<svg width="24" height="24" viewBox="0 0 24 24" fill="none" xmlns="http://www.w3.org/2000/svg">
<path d="M12.5002 1.55078C12.5002 1.27464 12.2763 1.05078 12.0002 1.05078C11.724 1.05078 11.5002 1.27464 11.5002 1.55078V10.9008C11.5002 11.1769 11.724 11.4008 12.0002 11.4008C12.2763 11.4008 12.5002 11.1769 12.5002 10.9008V1.55078Z" fill="black"/>
<path d="M9.00017 2.10071C9.00017 1.82457 8.77631 1.60071 8.50017 1.60071C8.22403 1.60071 8.00017 1.82457 8.00017 2.10071V11.4507C8.00017 11.7269 8.22403 11.9507 8.50017 11.9507C8.77631 11.9507 9.00017 11.7269 9.00017 11.4507V2.10071Z" fill="black"/>
<path d="M5.55005 5.95076C5.55005 5.67461 5.32619 5.45076 5.05005 5.45076C4.7739 5.45076 4.55005 5.67461 4.55005 5.95076V16.9508C4.55005 20.2645 7.23634 22.9508 10.55 22.9508H11.1686C13.6755 22.9508 15.9673 21.5344 17.0884 19.2921L18.159 17.1509L19.809 12.7509L20.8973 10.5744C21.0208 10.3274 20.9206 10.027 20.6737 9.90354C20.4267 9.78005 20.1263 9.88016 20.0028 10.1271L18.8911 12.3506L17.2411 16.7506L16.194 18.8449C15.2422 20.7484 13.2967 21.9508 11.1686 21.9508H10.55C7.78862 21.9508 5.55005 19.7122 5.55005 16.9508V5.95076Z" fill="black"/>
<path d="M15.5002 1.60071C15.7763 1.60071 16.0002 1.82457 16.0002 2.10071V11.4507C16.0002 11.7269 15.7763 11.9507 15.5002 11.9507C15.224 11.9507 15.0002 11.7269 15.0002 11.4507V2.10071C15.0002 1.82457 15.224 1.60071 15.5002 1.60071Z" fill="black"/>
</svg>
