<svg width="24" height="24" viewBox="0 0 24 24" fill="none" xmlns="http://www.w3.org/2000/svg">
<path d="M5.29911 7.74805V16.9512C5.29954 19.8502 7.65004 22.201 10.5491 22.2012H11.1673C13.3897 22.201 15.4222 20.9446 16.4163 18.957L16.4466 18.8955L16.8177 19.2666C15.7236 21.3733 13.5465 22.701 11.1673 22.7012H10.5491C7.3739 22.701 4.79954 20.1263 4.79911 16.9512V7.24805L5.29911 7.74805Z" fill="black"/>
<path d="M1.70048 1.6748C1.79813 1.57739 1.95644 1.57724 2.054 1.6748L21.8509 21.4717C21.9483 21.5692 21.9483 21.7276 21.8509 21.8252C21.7533 21.9228 21.595 21.9227 21.4974 21.8252L1.70048 2.02832C1.60285 1.93069 1.60285 1.77244 1.70048 1.6748Z" fill="black"/>
<path d="M20.2259 10.2393C20.2877 10.116 20.4375 10.0663 20.5608 10.1279C20.6838 10.1898 20.7345 10.3397 20.6731 10.4629L19.5784 12.6504L18.3704 15.8701L17.9817 15.4814L19.1145 12.4639L19.1194 12.4512L20.2259 10.2393Z" fill="black"/>
<path d="M8.74931 11.1982V11.4502C8.7491 11.5879 8.63704 11.6999 8.49931 11.7002C8.36149 11.7001 8.24952 11.588 8.24931 11.4502V10.6982L8.74931 11.1982Z" fill="black"/>
<path d="M15.4993 1.85059C15.6371 1.85084 15.7492 1.96273 15.7493 2.10059V11.4502C15.7491 11.5879 15.637 11.6999 15.4993 11.7002C15.3615 11.7001 15.2495 11.588 15.2493 11.4502V2.10059C15.2494 1.96266 15.3614 1.85073 15.4993 1.85059Z" fill="black"/>
<path d="M11.9993 1.30078C12.1372 1.30104 12.2493 1.41287 12.2493 1.55078V9.74902L11.7493 9.24902V1.55078C11.7493 1.4128 11.8614 1.30092 11.9993 1.30078Z" fill="black"/>
<path d="M8.49931 1.85059C8.63712 1.85084 8.74924 1.96273 8.74931 2.10059V6.24902L8.24931 5.74902V2.10059C8.24938 1.96266 8.3614 1.85073 8.49931 1.85059Z" fill="black"/>
</svg>
