<svg width="24" height="24" viewBox="0 0 24 24" fill="none" xmlns="http://www.w3.org/2000/svg">
<path d="M6.0481 9.20459V16.9507C6.04853 19.4354 8.06333 21.4504 10.5481 21.4507H11.1663C13.0357 21.4507 14.7482 20.4297 15.6458 18.8022L17.1028 20.2593C15.7956 22.2354 13.5732 23.4507 11.1663 23.4507H10.5481C6.95876 23.4504 4.04853 20.54 4.0481 16.9507V7.20459L6.0481 9.20459Z" fill="black"/>
<path d="M1.25708 1.23193C1.59872 0.890301 2.15364 0.890452 2.49537 1.23193L22.2922 21.0298C22.6336 21.3715 22.6338 21.9255 22.2922 22.2671C21.9507 22.6085 21.3966 22.6084 21.0549 22.2671L1.25708 2.47021C0.915643 2.12853 0.915572 1.57358 1.25708 1.23193Z" fill="black"/>
<path d="M19.554 9.90381C19.8009 9.40996 20.4018 9.20985 20.8958 9.45654C21.3892 9.70376 21.5889 10.3046 21.342 10.7983L20.2659 12.9487L19.1448 15.938L17.5911 14.3843L18.4114 12.1997L18.4299 12.1509L18.4534 12.103L19.554 9.90381Z" fill="black"/>
<path d="M9.094 12.2505C8.92749 12.3744 8.7218 12.4497 8.4983 12.4497C7.94636 12.4494 7.4985 12.0017 7.4983 11.4497V10.6548L9.094 12.2505Z" fill="black"/>
<path d="M15.4983 1.1001C16.0505 1.10012 16.4982 1.54788 16.4983 2.1001V11.4497C16.4981 11.9523 16.1269 12.3664 15.6438 12.437L14.4983 11.2915V2.1001C14.4984 1.54803 14.9463 1.10036 15.4983 1.1001Z" fill="black"/>
<path d="M11.9983 0.550293C12.5506 0.550313 12.9983 0.99802 12.9983 1.55029V9.7915L10.9983 7.7915V1.55029C10.9983 0.998169 11.4462 0.550554 11.9983 0.550293Z" fill="black"/>
<path d="M8.4983 1.1001C9.05052 1.10012 9.49823 1.54788 9.49829 2.1001V6.2915L7.4983 4.2915V2.1001C7.49836 1.54803 7.94627 1.10036 8.4983 1.1001Z" fill="black"/>
</svg>
