<svg width="24" height="24" viewBox="0 0 24 24" fill="none" xmlns="http://www.w3.org/2000/svg">
<path d="M6.30071 9.10352V11.7715C6.30071 12.1651 6.84209 12.3528 7.1259 12.0801C7.24648 11.9639 7.28531 11.788 7.26262 11.6221C7.25493 11.566 7.25091 11.5084 7.2509 11.4502V10.0537L17.4228 20.2256C16.0869 22.3723 13.7293 23.7001 11.1689 23.7002H10.5507C6.82282 23.7002 3.80071 20.6781 3.80071 16.9502V6.60352L6.30071 9.10352Z" fill="black"/>
<path d="M1.34465 1.32227C1.63755 1.02937 2.11231 1.02937 2.4052 1.32227L22.2021 21.1191C22.4948 21.4121 22.4949 21.8869 22.2021 22.1797C21.9092 22.4722 21.4343 22.4723 21.1415 22.1797L1.34465 2.38281C1.05185 2.09001 1.05204 1.61518 1.34465 1.32227Z" fill="black"/>
<path d="M12.0009 0.300781C12.6912 0.300895 13.2509 0.860496 13.2509 1.55078V9.94434C13.251 10.1712 13.4036 10.3698 13.623 10.4277C13.94 10.5112 14.2508 10.2721 14.2509 9.94434V2.10059C14.2509 1.41025 14.8106 0.850619 15.5009 0.850586C16.1912 0.8507 16.7509 1.4103 16.7509 2.10059V11.4502C16.7509 11.5269 16.7436 11.6019 16.7304 11.6748C16.6919 11.8863 16.7113 12.114 16.8388 12.2871C17.1452 12.7031 17.9569 12.7062 18.1386 12.2227L18.1806 12.1113L18.2031 12.0498L19.3329 9.79102C19.6419 9.17404 20.3925 8.92388 21.0097 9.23242C21.627 9.54112 21.8767 10.2918 21.5683 10.9092L20.499 13.0469L19.2441 16.3906L10.7509 7.89746V1.55078C10.7509 0.860445 11.3106 0.300814 12.0009 0.300781Z" fill="black"/>
<path d="M8.5009 0.850586C9.19116 0.8507 9.75091 1.4103 9.75091 2.10059V6.89746L7.2509 4.39746V2.10059C7.2509 1.41025 7.81058 0.850619 8.5009 0.850586Z" fill="black"/>
</svg>
