<svg width="24" height="24" viewBox="0 0 24 24" fill="none" xmlns="http://www.w3.org/2000/svg">
<path d="M5.29881 7.74756V16.9507C5.29924 19.8497 7.64973 22.2005 10.5488 22.2007H11.167C13.3894 22.2005 15.4219 20.9442 16.416 18.9565L16.4463 18.895L16.8174 19.2661C15.7233 21.3728 13.5462 22.7005 11.167 22.7007H10.5488C7.37359 22.7005 4.79924 20.1258 4.79881 16.9507V7.24756L5.29881 7.74756Z" fill="black"/>
<path d="M1.70018 1.67432C1.79782 1.5769 1.95613 1.57676 2.05369 1.67432L21.8506 21.4712C21.948 21.5688 21.948 21.7271 21.8506 21.8247C21.753 21.9223 21.5947 21.9222 21.4971 21.8247L1.70018 2.02783C1.60255 1.9302 1.60255 1.77195 1.70018 1.67432Z" fill="black"/>
<path d="M20.2256 10.2388C20.2874 10.1155 20.4372 10.0658 20.5605 10.1274C20.6835 10.1893 20.7342 10.3392 20.6728 10.4624L19.5781 12.6499L18.3701 15.8696L17.9814 15.481L19.1142 12.4634L19.1191 12.4507L20.2256 10.2388Z" fill="black"/>
<path d="M8.749 11.1978V11.4497C8.7488 11.5874 8.63673 11.6995 8.499 11.6997C8.36118 11.6996 8.24921 11.5875 8.249 11.4497V10.6978L8.749 11.1978Z" fill="black"/>
<path d="M15.499 1.8501C15.6368 1.85035 15.7489 1.96224 15.749 2.1001V11.4497C15.7488 11.5874 15.6367 11.6995 15.499 11.6997C15.3612 11.6996 15.2492 11.5875 15.249 11.4497V2.1001C15.2491 1.96217 15.3611 1.85024 15.499 1.8501Z" fill="black"/>
<path d="M11.999 1.30029C12.1369 1.30055 12.249 1.41238 12.249 1.55029V9.74854L11.749 9.24854V1.55029C11.749 1.41231 11.8611 1.30043 11.999 1.30029Z" fill="black"/>
<path d="M8.499 1.8501C8.63682 1.85035 8.74894 1.96224 8.749 2.1001V6.24854L8.249 5.74854V2.1001C8.24907 1.96217 8.36109 1.85024 8.499 1.8501Z" fill="black"/>
</svg>
