<svg width="24" height="24" viewBox="0 0 24 24" fill="none" xmlns="http://www.w3.org/2000/svg">
<path d="M6.04775 7.78711V11.5C6.04818 12.0458 6.86202 12.313 7.2665 11.9463C7.28691 11.9278 7.30737 11.9089 7.32802 11.8906C7.45058 11.7821 7.49792 11.6129 7.49794 11.4492V9.2373L17.6132 19.3525L17.5331 19.5156C16.3272 21.9267 13.8617 23.45 11.1659 23.4502H10.5477C6.95816 23.4501 4.04804 20.5397 4.04775 16.9502V5.9502C4.04775 5.8989 4.05201 5.84805 4.05946 5.79883L6.04775 7.78711Z" fill="black"/>
<path d="M1.69911 1.6748C1.79674 1.57717 1.955 1.57717 2.05263 1.6748L21.8495 21.4717C21.9468 21.5693 21.947 21.7277 21.8495 21.8252C21.752 21.9225 21.5936 21.9225 21.496 21.8252L1.69911 2.02832C1.60154 1.93075 1.60166 1.77245 1.69911 1.6748Z" fill="black"/>
<path d="M11.9979 0.549805C12.55 0.550018 12.9979 0.997652 12.9979 1.5498V9.24316C12.998 9.78196 13.3852 10.2428 13.9159 10.3359C14.2083 10.387 14.4976 10.1756 14.4979 9.87891V2.09961C14.498 1.54741 14.9457 1.09966 15.4979 1.09961C16.05 1.09982 16.4979 1.54751 16.4979 2.09961V11.4492C16.498 11.6155 16.5331 11.7872 16.6395 11.915C16.7234 12.0158 16.8038 12.1199 16.8788 12.2275C17.2018 12.6908 18.2123 12.7277 18.411 12.1992L18.4296 12.1504L18.453 12.1025L19.5536 9.90332C19.8006 9.40938 20.4014 9.20907 20.8954 9.45605C21.3887 9.7033 21.5885 10.3042 21.3417 10.7979L20.2655 12.9482L18.7597 16.9639L10.9979 9.20215V1.5498C10.9979 0.997552 11.4457 0.549857 11.9979 0.549805Z" fill="black"/>
<path d="M8.49794 1.09961C9.05 1.09982 9.49788 1.54751 9.49794 2.09961V7.70215L7.49794 5.70215V2.09961C7.49801 1.54741 7.94574 1.09966 8.49794 1.09961Z" fill="black"/>
</svg>
