<svg width="24" height="24" viewBox="0 0 24 24" fill="none" xmlns="http://www.w3.org/2000/svg">
<path d="M12.7501 1.55078C12.7501 1.13657 12.4143 0.800781 12.0001 0.800781C11.5859 0.800781 11.2501 1.13657 11.2501 1.55078V10.9008C11.2501 11.315 11.5859 11.6508 12.0001 11.6508C12.4143 11.6508 12.7501 11.315 12.7501 10.9008V1.55078Z" fill="black"/>
<path d="M9.25011 2.10071C9.25011 1.68649 8.91432 1.35071 8.50011 1.35071C8.0859 1.35071 7.75011 1.68649 7.75011 2.10071V11.4507C7.75011 11.8649 8.0859 12.2007 8.50011 12.2007C8.91432 12.2007 9.25011 11.8649 9.25011 11.4507V2.10071Z" fill="black"/>
<path d="M5.79999 5.95076C5.79999 5.53654 5.4642 5.20076 5.04999 5.20076C4.63577 5.20076 4.29999 5.53654 4.29999 5.95076V16.9508C4.29999 20.4025 7.09821 23.2008 10.55 23.2008H11.1685C13.7701 23.2008 16.1485 21.7309 17.3119 19.4039L18.3884 17.251L20.0384 12.851L21.1208 10.6862C21.306 10.3157 21.1559 9.86518 20.7854 9.67994C20.4149 9.49469 19.9644 9.64486 19.7792 10.0153L18.6616 12.2506L17.0116 16.6506L15.9703 18.7331C15.0609 20.5519 13.202 21.7008 11.1685 21.7008H10.55C7.92664 21.7008 5.79999 19.5741 5.79999 16.9508V5.95076Z" fill="black"/>
<path d="M15.5001 1.35071C15.9143 1.35071 16.2501 1.68649 16.2501 2.10071V11.4507C16.2501 11.8649 15.9143 12.2007 15.5001 12.2007C15.0859 12.2007 14.7501 11.8649 14.7501 11.4507V2.10071C14.7501 1.68649 15.0859 1.35071 15.5001 1.35071Z" fill="black"/>
</svg>
