<svg width="24" height="24" viewBox="0 0 24 24" fill="none" xmlns="http://www.w3.org/2000/svg">
<path d="M12.7502 1.55078C12.7502 1.13657 12.4144 0.800781 12.0002 0.800781C11.586 0.800781 11.2502 1.13657 11.2502 1.55078V10.9008C11.2502 11.315 11.586 11.6508 12.0002 11.6508C12.4144 11.6508 12.7502 11.315 12.7502 10.9008V1.55078Z" fill="black"/>
<path d="M9.25017 2.10071C9.25017 1.68649 8.91438 1.35071 8.50017 1.35071C8.08596 1.35071 7.75017 1.68649 7.75017 2.10071V11.4507C7.75017 11.8649 8.08596 12.2007 8.50017 12.2007C8.91438 12.2007 9.25017 11.8649 9.25017 11.4507V2.10071Z" fill="black"/>
<path d="M5.80005 5.95076C5.80005 5.53654 5.46426 5.20076 5.05005 5.20076C4.63584 5.20076 4.30005 5.53654 4.30005 5.95076V16.9508C4.30005 20.4025 7.09827 23.2008 10.55 23.2008H11.1686C13.7702 23.2008 16.1485 21.7309 17.312 19.4039L18.3885 17.251L20.0385 12.851L21.1209 10.6862C21.3061 10.3157 21.1559 9.86518 20.7855 9.67994C20.415 9.49469 19.9645 9.64486 19.7792 10.0153L18.6616 12.2506L17.0116 16.6506L15.9703 18.7331C15.061 20.5519 13.202 21.7008 11.1686 21.7008H10.55C7.9267 21.7008 5.80005 19.5741 5.80005 16.9508V5.95076Z" fill="black"/>
<path d="M15.5002 1.35071C15.9144 1.35071 16.2502 1.68649 16.2502 2.10071V11.4507C16.2502 11.8649 15.9144 12.2007 15.5002 12.2007C15.086 12.2007 14.7502 11.8649 14.7502 11.4507V2.10071C14.7502 1.68649 15.086 1.35071 15.5002 1.35071Z" fill="black"/>
</svg>
