<svg width="24" height="24" viewBox="0 0 24 24" fill="none" xmlns="http://www.w3.org/2000/svg">
<path d="M12.9999 1.5498C12.9999 0.99752 12.5522 0.549805 11.9999 0.549805C11.4476 0.549805 10.9999 0.99752 10.9999 1.5498V10.8998C10.9999 11.4521 11.4476 11.8998 11.9999 11.8998C12.5522 11.8998 12.9999 11.4521 12.9999 10.8998V1.5498Z" fill="black"/>
<path d="M9.49993 2.09973C9.49993 1.54745 9.05221 1.09973 8.49993 1.09973C7.94764 1.09973 7.49993 1.54745 7.49993 2.09973V11.4497C7.49993 12.002 7.94764 12.4497 8.49993 12.4497C9.05221 12.4497 9.49993 12.002 9.49993 11.4497V2.09973Z" fill="black"/>
<path d="M6.0498 5.94978C6.0498 5.3975 5.60209 4.94978 5.0498 4.94978C4.49752 4.94978 4.0498 5.3975 4.0498 5.94978V16.9498C4.0498 20.5396 6.95995 23.4498 10.5498 23.4498H11.1683C13.8646 23.4498 16.3295 21.9264 17.5354 19.5148L18.6177 17.35L20.2677 12.9501L21.3442 10.797C21.5912 10.303 21.391 9.70234 20.897 9.45535C20.403 9.20836 19.8024 9.40859 19.5554 9.90257L18.4319 12.1495L16.7819 16.5495L15.7465 18.6203C14.8795 20.3544 13.1071 21.4498 11.1683 21.4498H10.5498C8.06452 21.4498 6.0498 19.4351 6.0498 16.9498V5.94978Z" fill="black"/>
<path d="M15.4999 1.09973C16.0522 1.09973 16.4999 1.54745 16.4999 2.09973V11.4497C16.4999 12.002 16.0522 12.4497 15.4999 12.4497C14.9476 12.4497 14.4999 12.002 14.4999 11.4497V2.09973C14.4999 1.54745 14.9476 1.09973 15.4999 1.09973Z" fill="black"/>
</svg>
