<svg width="24" height="24" viewBox="0 0 24 24" fill="none" xmlns="http://www.w3.org/2000/svg">
<path d="M12.9999 1.5498C12.9999 0.99752 12.5522 0.549805 11.9999 0.549805C11.4476 0.549805 10.9999 0.99752 10.9999 1.5498V9.57834C10.9999 9.95014 10.7405 10.2715 10.377 10.35C9.94281 10.4437 9.49993 10.1329 9.49993 9.68868V2.09973C9.49993 1.54745 9.05221 1.09973 8.49993 1.09973C7.94764 1.09973 7.49993 1.54745 7.49993 2.09973V11.4497C7.49993 11.6134 7.45311 11.7816 7.33053 11.89C7.30961 11.9085 7.28881 11.9271 7.26813 11.9459C6.86355 12.3127 6.0498 12.0458 6.0498 11.4997V5.94978C6.0498 5.3975 5.60209 4.94978 5.0498 4.94978C4.49752 4.94978 4.0498 5.3975 4.0498 5.94978V16.9498C4.0498 20.5396 6.95995 23.4498 10.5498 23.4498H11.1683C13.8646 23.4498 16.3295 21.9264 17.5354 19.5148L18.6177 17.35L20.2677 12.9501L21.3442 10.797C21.5912 10.303 21.391 9.70234 20.897 9.45535C20.403 9.20836 19.8024 9.40859 19.5554 9.90257L18.4319 12.1495L18.4135 12.1987C18.2151 12.7278 17.2034 12.6915 16.8805 12.2278C16.8053 12.12 16.7256 12.0154 16.6416 11.9145C16.5353 11.7867 16.4999 11.6159 16.4999 11.4497V2.09973C16.4999 1.54745 16.0522 1.09973 15.4999 1.09973C14.9476 1.09973 14.4999 1.54745 14.4999 2.09973V9.87848C14.4999 10.1756 14.2106 10.3876 13.9179 10.3363C13.3871 10.2431 12.9999 9.78214 12.9999 9.24324V1.5498Z" fill="black"/>
</svg>
