<svg width="24" height="24" viewBox="0 0 24 24" fill="none" xmlns="http://www.w3.org/2000/svg">
<path d="M12.2501 1.55078C12.2501 1.41271 12.1382 1.30078 12.0001 1.30078C11.862 1.30078 11.7501 1.41271 11.7501 1.55078V10.9008C11.7501 11.0389 11.862 11.1508 12.0001 11.1508C12.1382 11.1508 12.2501 11.0389 12.2501 10.9008V1.55078Z" fill="black"/>
<path d="M8.75011 2.10071C8.75011 1.96264 8.63818 1.85071 8.50011 1.85071C8.36204 1.85071 8.25011 1.96264 8.25011 2.10071V11.4507C8.25011 11.5888 8.36204 11.7007 8.50011 11.7007C8.63818 11.7007 8.75011 11.5888 8.75011 11.4507V2.10071Z" fill="black"/>
<path d="M5.29999 5.95076C5.29999 5.81269 5.18806 5.70076 5.04999 5.70076C4.91192 5.70076 4.79999 5.81269 4.79999 5.95076V16.9508C4.79999 20.1264 7.37435 22.7008 10.55 22.7008H11.1685C13.5807 22.7008 15.7859 21.3379 16.8647 19.1803L17.9295 17.0508L19.5795 12.6508L20.6736 10.4626C20.7353 10.3391 20.6853 10.1889 20.5618 10.1272C20.4383 10.0654 20.2881 10.1155 20.2264 10.239L19.1205 12.4507L17.4705 16.8507L16.4175 18.9567C15.4234 20.9449 13.3914 22.2008 11.1685 22.2008H10.55C7.65049 22.2008 5.29999 19.8503 5.29999 16.9508V5.95076Z" fill="black"/>
<path d="M15.5001 1.85071C15.6382 1.85071 15.7501 1.96264 15.7501 2.10071V11.4507C15.7501 11.5888 15.6382 11.7007 15.5001 11.7007C15.362 11.7007 15.2501 11.5888 15.2501 11.4507V2.10071C15.2501 1.96264 15.362 1.85071 15.5001 1.85071Z" fill="black"/>
</svg>
