<svg width="24" height="24" viewBox="0 0 24 24" fill="none" xmlns="http://www.w3.org/2000/svg">
<path d="M13.2499 1.5498C13.2499 0.859449 12.6903 0.299805 11.9999 0.299805C11.3096 0.299805 10.7499 0.859449 10.7499 1.5498V9.88805C10.7499 10.1106 10.5946 10.303 10.377 10.35C10.063 10.4178 9.74993 10.189 9.74993 9.86776V2.09973C9.74993 1.40938 9.19028 0.849731 8.49993 0.849731C7.80957 0.849731 7.24993 1.40938 7.24993 2.09973V11.4497C7.24993 11.5079 7.25389 11.565 7.26157 11.6211C7.28435 11.7873 7.24571 11.9635 7.12475 12.0797C6.84096 12.3525 6.2998 12.1644 6.2998 11.7708V5.94978C6.2998 5.25942 5.74016 4.69978 5.0498 4.69978C4.35945 4.69978 3.7998 5.25942 3.7998 5.94978V16.9498C3.7998 20.6777 6.82188 23.6998 10.5498 23.6998H11.1683C13.9593 23.6998 16.5108 22.1229 17.759 19.6266L18.8472 17.4501L20.4972 13.0501L21.5678 10.9088C21.8766 10.2913 21.6263 9.54048 21.0088 9.23175C20.3913 8.92301 19.6405 9.17329 19.3318 9.79076L18.2024 12.0494L18.1379 12.2215C17.9565 12.7053 17.1446 12.7021 16.8381 12.2861C16.7107 12.1132 16.6913 11.8861 16.7297 11.6747C16.743 11.6017 16.7499 11.5266 16.7499 11.4497V2.09973C16.7499 1.40938 16.1903 0.849731 15.4999 0.849731C14.8096 0.849731 14.2499 1.40938 14.2499 2.09973V9.9433C14.2499 10.2711 13.9397 10.5103 13.6227 10.4268C13.403 10.369 13.2499 10.1704 13.2499 9.9433V1.5498Z" fill="black"/>
</svg>
