<svg width="24" height="24" viewBox="0 0 24 24" fill="none" xmlns="http://www.w3.org/2000/svg">
<path d="M6.04715 8.14355V11.501C6.04746 12.0469 6.86139 12.314 7.2659 11.9473C7.28632 11.9287 7.30677 11.9099 7.32742 11.8916C7.45002 11.7831 7.49734 11.6139 7.49734 11.4502V9.59375L17.4934 19.5898C16.2744 21.958 13.8335 23.4511 11.1653 23.4512H10.5471C6.95751 23.4511 4.04737 20.5408 4.04715 16.9512V6.14355L6.04715 8.14355Z" fill="black"/>
<path d="M1.52176 1.49902C1.71702 1.30376 2.03353 1.30376 2.22879 1.49902L22.0257 21.2959C22.2205 21.4912 22.2208 21.8078 22.0257 22.0029C21.8305 22.198 21.5139 22.1978 21.3186 22.0029L1.52176 2.20605C1.32653 2.01083 1.32661 1.69429 1.52176 1.49902Z" fill="black"/>
<path d="M11.9973 0.550781C12.5495 0.550925 12.9973 0.998585 12.9973 1.55078V9.24414C12.9973 9.783 13.3846 10.2437 13.9153 10.3369C14.2078 10.3881 14.4971 10.1767 14.4973 9.87988V2.10059C14.4974 1.54839 14.9451 1.10064 15.4973 1.10059C16.0495 1.10073 16.4973 1.54845 16.4973 2.10059V11.4502C16.4973 11.6166 16.5325 11.7881 16.6389 11.916C16.7228 12.0168 16.8032 12.1208 16.8782 12.2285C17.2011 12.6919 18.2117 12.7287 18.4104 12.2002L18.429 12.1514L18.4524 12.1035L19.553 9.9043C19.8 9.4104 20.4009 9.21006 20.8948 9.45703C21.3882 9.70422 21.5879 10.3051 21.3411 10.7988L20.2649 12.9492L18.8548 16.709L10.9973 8.85156V1.55078C10.9973 0.998529 11.4451 0.550833 11.9973 0.550781Z" fill="black"/>
<path d="M8.49734 1.10059C9.04947 1.10073 9.49728 1.54845 9.49734 2.10059V7.35156L7.49734 5.35156V2.10059C7.49741 1.54839 7.94514 1.10064 8.49734 1.10059Z" fill="black"/>
</svg>
