<svg width="24" height="24" viewBox="0 0 24 24" fill="none" xmlns="http://www.w3.org/2000/svg">
<path d="M13.2501 1.55078C13.2501 0.860425 12.6905 0.300781 12.0001 0.300781C11.3098 0.300781 10.7501 0.860425 10.7501 1.55078V9.88902C10.7501 10.1116 10.5948 10.304 10.3773 10.351C10.0632 10.4187 9.75014 10.19 9.75014 9.86874V2.10071C9.75014 1.41035 9.1905 0.850708 8.50014 0.850708C7.80978 0.850708 7.25014 1.41035 7.25014 2.10071V11.4507C7.25014 11.5088 7.25411 11.566 7.26178 11.622C7.28456 11.7882 7.24592 11.9645 7.12496 12.0807C6.84118 12.3534 6.30002 12.1654 6.30002 11.7718V5.95076C6.30002 5.2604 5.74037 4.70076 5.05002 4.70076C4.35966 4.70076 3.80002 5.2604 3.80002 5.95076V16.9508C3.80002 20.6787 6.8221 23.7008 10.55 23.7008H11.1686C13.9595 23.7008 16.511 22.1239 17.7592 19.6275L18.8474 17.4511L20.4974 13.0511L21.5681 10.9098C21.8768 10.2923 21.6265 9.54146 21.009 9.23272C20.3916 8.92399 19.6407 9.17427 19.332 9.79174L18.2026 12.0504L18.1381 12.2225C17.9567 12.7063 17.1448 12.7031 16.8383 12.2871C16.7109 12.1141 16.6915 11.8871 16.7299 11.6757C16.7432 11.6027 16.7501 11.5275 16.7501 11.4507V2.10071C16.7501 1.41035 16.1905 0.850708 15.5001 0.850708C14.8098 0.850708 14.2501 1.41035 14.2501 2.10071V9.94428C14.2501 10.2721 13.9399 10.5112 13.6229 10.4278C13.4032 10.37 13.2501 10.1714 13.2501 9.94428V1.55078Z" fill="black"/>
</svg>
