<svg width="24" height="24" viewBox="0 0 24 24" fill="none" xmlns="http://www.w3.org/2000/svg">
<path d="M12.2499 1.5498C12.2499 1.41173 12.138 1.2998 11.9999 1.2998C11.8619 1.2998 11.7499 1.41173 11.7499 1.5498V10.8998C11.7499 11.0379 11.8619 11.1498 11.9999 11.1498C12.138 11.1498 12.2499 11.0379 12.2499 10.8998V1.5498Z" fill="black"/>
<path d="M8.74993 2.09973C8.74993 1.96166 8.638 1.84973 8.49993 1.84973C8.36185 1.84973 8.24993 1.96166 8.24993 2.09973V11.4497C8.24993 11.5878 8.36185 11.6997 8.49993 11.6997C8.638 11.6997 8.74993 11.5878 8.74993 11.4497V2.09973Z" fill="black"/>
<path d="M5.2998 5.94978C5.2998 5.81171 5.18788 5.69978 5.0498 5.69978C4.91173 5.69978 4.7998 5.81171 4.7998 5.94978V16.9498C4.7998 20.1254 7.37417 22.6998 10.5498 22.6998H11.1683C13.5806 22.6998 15.7858 21.3369 16.8645 19.1793L17.9293 17.0498L19.5793 12.6499L20.6734 10.4616C20.7352 10.3381 20.6851 10.1879 20.5616 10.1262C20.4381 10.0644 20.2879 10.1145 20.2262 10.238L19.1203 12.4497L17.4703 16.8497L16.4173 18.9557C15.4232 20.9439 13.3912 22.1998 11.1683 22.1998H10.5498C7.65031 22.1998 5.2998 19.8493 5.2998 16.9498V5.94978Z" fill="black"/>
<path d="M15.4999 1.84973C15.638 1.84973 15.7499 1.96166 15.7499 2.09973V11.4497C15.7499 11.5878 15.638 11.6997 15.4999 11.6997C15.3619 11.6997 15.2499 11.5878 15.2499 11.4497V2.09973C15.2499 1.96166 15.3619 1.84973 15.4999 1.84973Z" fill="black"/>
</svg>
