<svg width="24" height="24" viewBox="0 0 24 24" fill="none" xmlns="http://www.w3.org/2000/svg">
<path d="M6.29614 8.74609V11.7705C6.29614 12.164 6.83745 12.3524 7.12133 12.0801C7.24228 11.9639 7.28081 11.7873 7.25805 11.6211C7.25036 11.565 7.24633 11.5074 7.24633 11.4492V9.69629L17.552 20.002C16.2437 22.2794 13.8123 23.7002 11.1643 23.7002H10.5461C6.81855 23.7 3.79636 20.6778 3.79614 16.9502V6.24609L6.29614 8.74609Z" fill="black"/>
<path d="M1.43188 1.40918C1.67596 1.1651 2.07257 1.1651 2.31665 1.40918L22.1135 21.207C22.3571 21.4511 22.3574 21.8469 22.1135 22.0908C21.8696 22.3343 21.4737 22.3343 21.2297 22.0908L1.43188 2.29395C1.18794 2.05 1.18821 1.65329 1.43188 1.40918Z" fill="black"/>
<path d="M11.9963 0.299805C12.6867 0.299805 13.2463 0.859449 13.2463 1.5498V9.94336C13.2464 10.1704 13.3999 10.3689 13.6194 10.4268C13.9363 10.51 14.2463 10.2711 14.2463 9.94336V2.09961C14.2464 1.40943 14.8062 0.849805 15.4963 0.849609C16.1866 0.849609 16.7463 1.40931 16.7463 2.09961V11.4492C16.7463 11.5261 16.7391 11.6018 16.7258 11.6748C16.6875 11.886 16.7071 12.1132 16.8342 12.2861C17.1407 12.7022 17.9534 12.7054 18.135 12.2217L18.176 12.1113L18.1985 12.0498L19.3284 9.79102C19.6371 9.1738 20.3878 8.92392 21.0051 9.23242C21.6225 9.54121 21.8724 10.2918 21.5637 10.9092L20.4944 13.0469L19.1448 16.6455L10.7463 8.24707V1.5498C10.7463 0.859569 11.3061 0.3 11.9963 0.299805Z" fill="black"/>
<path d="M8.49633 0.849609C9.18665 0.849609 9.74627 1.40931 9.74633 2.09961V7.24707L7.24633 4.74707V2.09961C7.2464 1.40943 7.80618 0.849805 8.49633 0.849609Z" fill="black"/>
</svg>
