<svg width="24" height="24" viewBox="0 0 24 24" fill="none" xmlns="http://www.w3.org/2000/svg">
<path d="M6.30059 9.10254V11.7705C6.30059 12.1641 6.84197 12.3518 7.12578 12.0791C7.24636 11.9629 7.28518 11.787 7.2625 11.6211C7.25481 11.565 7.25078 11.5074 7.25078 11.4492V10.0527L17.4227 20.2246C16.0867 22.3714 13.7292 23.6992 11.1688 23.6992H10.5506C6.82269 23.6992 3.80059 20.6771 3.80059 16.9492V6.60254L6.30059 9.10254Z" fill="black"/>
<path d="M1.34453 1.32129C1.63743 1.0284 2.11219 1.0284 2.40508 1.32129L22.202 21.1182C22.4946 21.4111 22.4948 21.8859 22.202 22.1787C21.9091 22.4713 21.4342 22.4713 21.1414 22.1787L1.34453 2.38184C1.05173 2.08903 1.05191 1.6142 1.34453 1.32129Z" fill="black"/>
<path d="M12.0008 0.299805C12.691 0.299919 13.2508 0.859519 13.2508 1.5498V9.94336C13.2509 10.1702 13.4035 10.3688 13.6229 10.4268C13.9398 10.5102 14.2507 10.2711 14.2508 9.94336V2.09961C14.2508 1.40927 14.8105 0.849642 15.5008 0.849609C16.191 0.849723 16.7508 1.40932 16.7508 2.09961V11.4492C16.7508 11.5259 16.7435 11.601 16.7303 11.6738C16.6918 11.8853 16.7112 12.1131 16.8387 12.2861C17.1451 12.7021 17.9567 12.7053 18.1385 12.2217L18.1805 12.1104L18.2029 12.0488L19.3328 9.79004C19.6417 9.17306 20.3923 8.9229 21.0096 9.23145C21.6269 9.54014 21.8766 10.2908 21.5682 10.9082L20.4988 13.0459L19.2439 16.3896L10.7508 7.89648V1.5498C10.7508 0.859469 11.3105 0.299837 12.0008 0.299805Z" fill="black"/>
<path d="M8.50078 0.849609C9.19104 0.849723 9.75078 1.40932 9.75078 2.09961V6.89648L7.25078 4.39648V2.09961C7.25078 1.40927 7.81045 0.849642 8.50078 0.849609Z" fill="black"/>
</svg>
