<svg width="24" height="24" viewBox="0 0 24 24" fill="none" xmlns="http://www.w3.org/2000/svg">
<path d="M6.04932 9.20508V16.9512C6.04975 19.4359 8.06452 21.4509 10.5493 21.4512H11.1675C13.0368 21.4509 14.7486 20.4294 15.646 18.8018L17.103 20.2588C15.796 22.235 13.5743 23.4509 11.1675 23.4512H10.5493C6.95995 23.4509 4.04975 20.5405 4.04932 16.9512V7.20508L6.04932 9.20508Z" fill="black"/>
<path d="M1.34717 1.32129C1.64009 1.02868 2.11492 1.02849 2.40772 1.32129L22.2046 21.1182C22.4972 21.411 22.4971 21.8859 22.2046 22.1787C21.9118 22.4715 21.437 22.4714 21.144 22.1787L1.34717 2.38184C1.05428 2.08894 1.05428 1.61418 1.34717 1.32129Z" fill="black"/>
<path d="M19.5552 9.9043C19.8022 9.41048 20.4031 9.21022 20.897 9.45703C21.39 9.70438 21.59 10.3053 21.3433 10.7988L20.2671 12.9492L19.146 15.9385L17.5923 14.3848L18.4126 12.2002L18.4312 12.1514L18.4546 12.1035L19.5552 9.9043Z" fill="black"/>
<path d="M9.09522 12.251C8.92879 12.375 8.723 12.45 8.49952 12.4502C7.94753 12.45 7.49972 12.0022 7.49952 11.4502V10.6553L9.09522 12.251Z" fill="black"/>
<path d="M15.4995 1.10059C16.0514 1.10099 16.4995 1.54861 16.4995 2.10059V11.4502C16.4993 11.9525 16.1277 12.3666 15.645 12.4375L14.4995 11.292V2.10059C14.4996 1.54848 14.9474 1.10079 15.4995 1.10059Z" fill="black"/>
<path d="M11.9995 0.550781C12.5515 0.551185 12.9995 0.998746 12.9995 1.55078V9.79199L10.9995 7.79199V1.55078C10.9995 0.998623 11.4474 0.550987 11.9995 0.550781Z" fill="black"/>
<path d="M8.49952 1.10059C9.05142 1.10099 9.49945 1.54861 9.49952 2.10059V6.29199L7.49952 4.29199V2.10059C7.49958 1.54848 7.94745 1.10079 8.49952 1.10059Z" fill="black"/>
</svg>
