<svg width="24" height="24" viewBox="0 0 24 24" fill="none" xmlns="http://www.w3.org/2000/svg">
<path d="M13.0001 1.55078C13.0001 0.998496 12.5524 0.550781 12.0001 0.550781C11.4478 0.550781 11.0001 0.998496 11.0001 1.55078V9.57931C11.0001 9.95112 10.7407 10.2725 10.3772 10.351C9.94299 10.4447 9.50011 10.1339 9.50011 9.68965V2.10071C9.50011 1.54842 9.05239 1.10071 8.50011 1.10071C7.94782 1.10071 7.50011 1.54842 7.50011 2.10071V11.4507C7.50011 11.6143 7.45329 11.7826 7.33072 11.891C7.3098 11.9095 7.28899 11.9281 7.26831 11.9469C6.86373 12.3137 6.04999 12.0468 6.04999 11.5007V5.95076C6.04999 5.39847 5.60227 4.95076 5.04999 4.95076C4.4977 4.95076 4.04999 5.39847 4.04999 5.95076V16.9508C4.04999 20.5406 6.96014 23.4508 10.55 23.4508H11.1685C13.8648 23.4508 16.3297 21.9274 17.5355 19.5157L18.6179 17.351L20.2679 12.951L21.3444 10.798C21.5914 10.304 21.3912 9.70332 20.8972 9.45633C20.4032 9.20934 19.8025 9.40956 19.5556 9.90354L18.4321 12.1505L18.4137 12.1996C18.2152 12.7287 17.2036 12.6925 16.8806 12.2288C16.8055 12.1209 16.7258 12.0164 16.6418 11.9154C16.5355 11.7877 16.5001 11.6169 16.5001 11.4507V2.10071C16.5001 1.54842 16.0524 1.10071 15.5001 1.10071C14.9478 1.10071 14.5001 1.54842 14.5001 2.10071V9.87945C14.5001 10.1766 14.2108 10.3886 13.9181 10.3373C13.3873 10.2441 13.0001 9.78312 13.0001 9.24421V1.55078Z" fill="black"/>
</svg>
