<svg width="24" height="24" viewBox="0 0 24 24" fill="none" xmlns="http://www.w3.org/2000/svg">
<path d="M12.4999 1.5498C12.4999 1.27366 12.2761 1.0498 11.9999 1.0498C11.7238 1.0498 11.4999 1.27366 11.4999 1.5498V10.8998C11.4999 11.1759 11.7238 11.3998 11.9999 11.3998C12.2761 11.3998 12.4999 11.1759 12.4999 10.8998V1.5498Z" fill="black"/>
<path d="M8.99992 2.09973C8.99992 1.82359 8.77607 1.59973 8.49992 1.59973C8.22378 1.59973 7.99992 1.82359 7.99992 2.09973V11.4497C7.99992 11.7259 8.22378 11.9497 8.49992 11.9497C8.77607 11.9497 8.99992 11.7259 8.99992 11.4497V2.09973Z" fill="black"/>
<path d="M5.5498 5.94978C5.5498 5.67364 5.32595 5.44978 5.0498 5.44978C4.77366 5.44978 4.5498 5.67364 4.5498 5.94978V16.9498C4.5498 20.2635 7.2361 22.9498 10.5498 22.9498H11.1683C13.6753 22.9498 15.967 21.5334 17.0881 19.2911L18.1588 17.1499L19.8088 12.7499L20.897 10.5734C21.0205 10.3264 20.9204 10.0261 20.6734 9.90257C20.4264 9.77907 20.1261 9.87918 20.0026 10.1262L18.8909 12.3496L17.2409 16.7496L16.1937 18.8439C15.242 20.7474 13.2965 21.9498 11.1683 21.9498H10.5498C7.78838 21.9498 5.5498 19.7112 5.5498 16.9498V5.94978Z" fill="black"/>
<path d="M15.4999 1.59973C15.7761 1.59973 15.9999 1.82359 15.9999 2.09973V11.4497C15.9999 11.7259 15.7761 11.9497 15.4999 11.9497C15.2238 11.9497 14.9999 11.7259 14.9999 11.4497V2.09973C14.9999 1.82359 15.2238 1.59973 15.4999 1.59973Z" fill="black"/>
</svg>
