<svg width="24" height="24" viewBox="0 0 24 24" fill="none" xmlns="http://www.w3.org/2000/svg">
<path d="M5.79903 8.60107V16.9507C5.79946 19.5736 7.92606 21.7005 10.549 21.7007H11.1672C13.1908 21.7005 15.0414 20.5611 15.9553 18.7573L17.0588 19.8608C15.8253 21.9207 13.5934 23.2005 11.1672 23.2007H10.549C7.09763 23.2005 4.29946 20.402 4.29903 16.9507V7.10107L5.79903 8.60107Z" fill="black"/>
<path d="M1.4338 1.40869C1.67777 1.16471 2.07446 1.16491 2.31856 1.40869L22.1154 21.2065C22.3591 21.4507 22.3594 21.8464 22.1154 22.0903C21.8715 22.3341 21.4757 22.334 21.2316 22.0903L1.4338 2.29346C1.19007 2.04942 1.19 1.65269 1.4338 1.40869Z" fill="black"/>
<path d="M19.7785 10.0151C19.9639 9.64494 20.414 9.49502 20.7844 9.68018C21.1542 9.86557 21.3052 10.3159 21.1203 10.686L20.0363 12.853L18.8557 16.0015L17.6897 14.8354L18.6467 12.2876L18.6604 12.2505L19.7785 10.0151Z" fill="black"/>
<path d="M9.0959 11.8979C8.95915 12.0796 8.74407 12.1995 8.49922 12.1997C8.08522 12.1996 7.74943 11.8637 7.74922 11.4497V10.5513L9.0959 11.8979Z" fill="black"/>
<path d="M15.4992 1.3501C15.9131 1.35041 16.2492 1.68613 16.2492 2.1001V11.4497C16.249 11.8636 15.913 12.1994 15.4992 12.1997C15.0852 12.1996 14.7494 11.8637 14.7492 11.4497V2.1001C14.7493 1.686 15.0851 1.35019 15.4992 1.3501Z" fill="black"/>
<path d="M11.9992 0.800293C12.4132 0.800601 12.7492 1.13627 12.7492 1.55029V9.89502L11.2492 8.39502V1.55029C11.2492 1.13614 11.5851 0.800388 11.9992 0.800293Z" fill="black"/>
<path d="M8.49922 1.3501C8.91314 1.35041 9.24916 1.68613 9.24922 2.1001V6.39502L7.74922 4.89502V2.1001C7.74929 1.686 8.08513 1.35019 8.49922 1.3501Z" fill="black"/>
</svg>
