<svg width="24" height="24" viewBox="0 0 24 24" fill="none" xmlns="http://www.w3.org/2000/svg">
<path d="M6 18.75C6.41421 18.75 6.75 18.4142 6.75 18C6.75 17.5858 6.41421 17.25 6 17.25C5.58579 17.25 5.25 17.5858 5.25 18C5.25 18.4142 5.58579 18.75 6 18.75Z" fill="black"/>
<path fill-rule="evenodd" clip-rule="evenodd" d="M1.75 6C1.75 3.65279 3.65279 1.75 6 1.75C8.34721 1.75 10.25 3.65279 10.25 6V7.74615L12.7341 5.2621C14.3938 3.60237 17.0847 3.60237 18.7445 5.2621C20.4042 6.92183 20.4042 9.61278 18.7445 11.2725L16.267 13.75H18C20.3472 13.75 22.25 15.6528 22.25 18C22.25 20.3472 20.3472 22.25 18 22.25L6 22.25C3.66196 22.25 1.76487 20.362 1.75009 18.0275L1.75 18V6ZM13.0876 5.61565L10.25 8.45326V18C10.25 18.4333 10.1852 18.8514 10.0647 19.2452L18.3909 10.919C19.8554 9.45449 19.8554 7.08012 18.3909 5.61565C16.9264 4.15119 14.5521 4.15119 13.0876 5.61565ZM6 2.25C3.92893 2.25 2.25 3.92893 2.25 6V18C2.25 20.0711 3.92893 21.75 6 21.75C8.07107 21.75 9.75 20.0711 9.75 18V6C9.75 3.92893 8.07107 2.25 6 2.25ZM18 14.25H15.767L9.01961 20.9974C8.71155 21.3054 8.36796 21.5563 8.00203 21.75H18C20.0711 21.75 21.75 20.0711 21.75 18C21.75 15.9289 20.0711 14.25 18 14.25Z" fill="black"/>
</svg>
