<svg width="24" height="24" viewBox="0 0 24 24" fill="none" xmlns="http://www.w3.org/2000/svg">
<path d="M6 20C7.10457 20 8 19.1046 8 18C8 16.8954 7.10457 16 6 16C4.89543 16 4 16.8954 4 18C4 19.1046 4.89543 20 6 20Z" fill="black"/>
<path fill-rule="evenodd" clip-rule="evenodd" d="M0.75 6C0.75 3.1005 3.10051 0.75 6 0.75C8.68609 0.75 10.901 2.76724 11.2125 5.36942L12.0269 4.55499C14.0772 2.50474 17.4013 2.50474 19.4516 4.55499C21.5018 6.60524 21.5018 9.92936 19.4516 11.9796L18.6423 12.7889C21.2388 13.1056 23.25 15.3179 23.25 18C23.25 20.8995 20.8995 23.25 18 23.25L6 23.25C3.11183 23.25 0.768372 20.9178 0.750107 18.034L0.75 18V6ZM13.7947 6.32276L11.25 8.86747V16.6456L17.6838 10.2118C18.7577 9.1379 18.7577 7.3967 17.6838 6.32276C16.6099 5.24882 14.8687 5.24882 13.7947 6.32276ZM6 3.25C4.48122 3.25 3.25 4.48122 3.25 6V18C3.25 19.5188 4.48122 20.75 6 20.75C7.51878 20.75 8.75 19.5188 8.75 18V6C8.75 4.48122 7.51878 3.25 6 3.25ZM18 15.25H16.1812L10.6812 20.75H18C19.5188 20.75 20.75 19.5188 20.75 18C20.75 16.4812 19.5188 15.25 18 15.25Z" fill="black"/>
</svg>
