<svg width="24" height="24" viewBox="0 0 24 24" fill="none" xmlns="http://www.w3.org/2000/svg">
<path fill-rule="evenodd" clip-rule="evenodd" d="M3.2496 5.25C2.36088 5.24891 1.75703 4.34659 2.09531 3.52441L2.7916 1.83301C3.06179 1.17763 3.70102 0.750049 4.40976 0.750001L19.5992 0.75C20.308 0.75 20.9472 1.17757 21.2174 1.83301L21.9137 3.52441C22.2526 4.34817 21.6458 5.25 20.7574 5.25H20.1754L18.3492 21.6934C18.2507 22.5796 17.5007 23.25 16.609 23.25H7.4C6.50833 23.25 5.75826 22.5796 5.65976 21.6934L3.83261 5.25H3.2496ZM20.3844 3.75L19.8307 2.40527L19.7926 2.34082C19.7459 2.28423 19.6752 2.25 19.5992 2.25L4.40976 2.25C4.30842 2.25005 4.21684 2.31175 4.17832 2.40527L3.62363 3.75L20.3844 3.75ZM6.20273 13L17.8053 13L18.6666 5.25L5.34238 5.25L6.20273 13Z" fill="black"/>
</svg>
