<svg width="24" height="24" viewBox="0 0 24 24" fill="none" xmlns="http://www.w3.org/2000/svg">
<path d="M17.6704 22.5C17.756 22.2807 17.8161 22.0477 17.8432 21.8037L17.9321 21H18.9126L20.6411 5.43945C21.0839 5.01221 21.3244 4.39118 21.2417 3.75H22.061L21.6001 2.56836L21.5669 2.5C21.4913 2.3693 21.3598 2.27905 21.2104 2.25586L21.1342 2.25H20.6997L20.4106 1.54785L20.3325 1.37598C20.2146 1.14171 20.0611 0.932059 19.8823 0.75L21.1342 0.75C21.9581 0.750307 22.6982 1.25586 22.9975 2.02344L23.7231 3.88672C23.9784 4.54217 23.4948 5.24969 22.7915 5.25H22.1723L20.354 21.6104C20.2977 22.1166 19.8692 22.4998 19.3598 22.5H17.6704Z" fill="black"/>
<path fill-rule="evenodd" clip-rule="evenodd" d="M1.49948 5.25C0.611123 5.24855 0.00714784 4.34638 0.345186 3.52442L1.04147 1.83301C1.3116 1.17779 1.95111 0.750266 2.65964 0.750001L17.8491 0.75L17.9809 0.754883C18.6361 0.804192 19.2139 1.21859 19.4673 1.83301L20.1635 3.52441C20.5025 4.34817 19.8957 5.25 19.0073 5.25H18.4253L16.5991 21.6934C16.5006 22.5796 15.7505 23.25 14.8589 23.25H5.64987C4.75844 23.2497 4.00811 22.5794 3.90964 21.6934L2.08249 5.25H1.49948ZM18.6342 3.75L18.0805 2.40527L18.0425 2.34082C18.0113 2.30316 17.9691 2.27507 17.9223 2.26074L17.8491 2.25L2.65964 2.25L2.5864 2.26074C2.51623 2.28242 2.45706 2.3352 2.42819 2.40527L1.87351 3.75L18.6342 3.75ZM3.81394 7.25L16.6938 7.25L16.9165 5.25L3.59226 5.25L3.81394 7.25ZM5.40085 21.5273C5.4149 21.6538 5.52275 21.7497 5.64987 21.75H14.8589C14.9862 21.75 15.0938 21.6539 15.1079 21.5273L16.5268 8.75L3.98093 8.75L5.40085 21.5273Z" fill="black"/>
</svg>
