<svg width="24" height="24" viewBox="0 0 24 24" fill="none" xmlns="http://www.w3.org/2000/svg">
<path fill-rule="evenodd" clip-rule="evenodd" d="M3.11929 4.99121C2.48123 4.90883 2.07245 4.23586 2.32632 3.61914L3.02261 1.92871L3.06948 1.8252C3.32271 1.32219 3.8399 1.0001 4.40933 1L19.5988 1L19.7121 1.00391C20.2361 1.04344 20.7022 1.35572 20.9386 1.8252L20.9855 1.92871L21.6818 3.61914C21.9361 4.23679 21.5259 4.91032 20.8878 4.99219L20.757 5H19.9513L18.0998 21.666C18.0152 22.4255 17.3727 23 16.6085 23H7.39956C6.63546 22.9999 5.99292 22.4254 5.90835 21.666L4.05581 5H3.25015L3.11929 4.99121ZM20.758 4L20.0617 2.30957L20.0275 2.24219C19.938 2.09357 19.776 2 19.5988 2L4.40933 2C4.23223 2.00009 4.07003 2.09357 3.98062 2.24219L3.94644 2.30957L3.25015 4L20.758 4ZM5.33999 7.5L18.6671 7.5L18.9455 5L5.06265 5L5.33999 7.5ZM6.90249 21.5557C6.93084 21.8086 7.14505 21.9999 7.39956 22H16.6085C16.8632 22 17.0773 21.8086 17.1056 21.5557L18.5558 8.5L5.45132 8.5L6.90249 21.5557Z" fill="black"/>
</svg>
