<svg width="24" height="24" viewBox="0 0 24 24" fill="none" xmlns="http://www.w3.org/2000/svg">
<path fill-rule="evenodd" clip-rule="evenodd" d="M3.1517 4.74414C2.6737 4.68203 2.36711 4.17703 2.55698 3.71484L3.25327 2.02441C3.44622 1.55639 3.90333 1.25013 4.40952 1.25L19.599 1.25L19.7865 1.26367C20.2155 1.32863 20.5864 1.61397 20.7552 2.02344L21.4515 3.71484C21.6418 4.17794 21.3336 4.68303 20.8548 4.74414L20.7572 4.75H19.7269L17.8519 21.6377C17.821 21.916 17.6998 22.1643 17.5199 22.3555L17.5042 22.5H17.3587C17.1489 22.6573 16.8885 22.75 16.6087 22.75H7.39975C7.11995 22.7499 6.85963 22.6574 6.64975 22.5H6.50424L6.48764 22.3555C6.30807 22.1643 6.18748 21.9157 6.15659 21.6377L4.28061 4.75H3.25034L3.1517 4.74414ZM3.01987 3.9043C2.95232 4.06855 3.07286 4.24947 3.25034 4.25L20.7572 4.25L20.8207 4.24219C20.9627 4.20552 21.0478 4.04811 20.9886 3.9043L20.2923 2.21484C20.1911 1.9691 19.9689 1.79775 19.7113 1.75879L19.599 1.75L4.40952 1.75C4.10574 1.75013 3.83185 1.93402 3.71616 2.21484L3.01987 3.9043ZM5.14389 8L18.8636 8L19.2249 4.75L4.78354 4.75L5.14389 8Z" fill="black"/>
</svg>
