<svg width="24" height="24" viewBox="0 0 24 24" fill="none" xmlns="http://www.w3.org/2000/svg">
<path d="M17.6704 22.5C17.7561 22.2807 17.8162 22.0477 17.8433 21.8037L17.9322 21H18.9117L20.6402 5.44043C21.0835 5.01318 21.3245 4.39159 21.2417 3.75H22.0611L21.6001 2.56836L21.5669 2.5C21.4788 2.34765 21.3144 2.25014 21.1333 2.25H20.6997L20.4107 1.54785L20.3326 1.37598C20.2147 1.1417 20.0611 0.932073 19.8824 0.75L21.1333 0.75C21.9574 0.750158 22.6983 1.2556 22.9976 2.02344L23.7232 3.88672C23.9785 4.5422 23.495 5.24974 22.7915 5.25H22.1714L20.3531 21.6104C20.2968 22.1166 19.8692 22.4997 19.3599 22.5H17.6704Z" fill="black"/>
<path fill-rule="evenodd" clip-rule="evenodd" d="M1.49954 5.25C0.611006 5.24872 0.00709103 4.34648 0.345245 3.52442L1.04153 1.83301C1.31173 1.1778 1.95112 0.75016 2.6597 0.750001L17.8492 0.75L17.981 0.754883C18.6361 0.804341 19.214 1.21867 19.4673 1.83301L20.1636 3.52441C20.5024 4.348 19.8955 5.24971 19.0074 5.25H18.4243L16.5982 21.6934C16.4996 22.5795 15.7496 23.25 14.8579 23.25H5.64896C4.75765 23.2496 4.00719 22.5793 3.90872 21.6934L2.08157 5.25H1.49954ZM18.6343 3.75L18.0806 2.40527L18.0425 2.34082C18.0114 2.3032 17.9691 2.27512 17.9224 2.26074L17.8492 2.25L2.6597 2.25L2.58646 2.26074C2.51624 2.28235 2.45718 2.33519 2.42825 2.40527L1.87357 3.75L18.6343 3.75ZM4.89603 17H15.6099L16.9156 5.25L3.59134 5.25L4.89603 17Z" fill="black"/>
</svg>
