<svg width="24" height="24" viewBox="0 0 24 24" fill="none" xmlns="http://www.w3.org/2000/svg">
<path d="M16.6244 22.5C16.7024 22.3431 16.7631 22.1759 16.8031 22H19.3607C19.6149 21.9996 19.8287 21.8079 19.8568 21.5547L21.808 4H23.5091L22.8129 2.30957C22.7358 2.12246 22.5524 2.00016 22.35 2L19.557 2L19.4496 1.73828C19.4155 1.6555 19.3754 1.57612 19.3314 1.5L22.35 1.5C22.755 1.50016 23.1205 1.74467 23.2748 2.11914L23.9711 3.80957C24.1063 4.13834 23.8645 4.4994 23.5091 4.5H22.2552L20.3539 21.6104C20.2976 22.1165 19.8699 22.4996 19.3607 22.5H16.6244Z" fill="black"/>
<path fill-rule="evenodd" clip-rule="evenodd" d="M0.750355 4.75C0.217173 4.74943 -0.145681 4.20809 0.0569957 3.71484L0.753285 2.02441C0.946281 1.55638 1.4033 1.25005 1.90953 1.25L17.099 1.25L17.2865 1.26367C17.7155 1.32869 18.0864 1.614 18.2552 2.02344L18.9515 3.71484C19.1418 4.17785 18.8335 4.68291 18.3548 4.74414L18.2572 4.75H17.2269L15.3519 21.6377C15.329 21.8442 15.2553 22.0338 15.1459 22.1963L15.1127 22.5H14.8578C14.648 22.6571 14.3882 22.7499 14.1088 22.75H4.89977C4.61979 22.75 4.35875 22.6576 4.14879 22.5H4.11266L4.10875 22.4678C3.863 22.2671 3.694 21.9742 3.65661 21.6377L1.78063 4.75H0.750355ZM0.519886 3.9043C0.452255 4.06863 0.572747 4.2496 0.750355 4.25L18.2572 4.25L18.3207 4.24219C18.4625 4.20543 18.5478 4.04802 18.4886 3.9043L17.7923 2.21484C17.6766 1.93401 17.4028 1.75009 17.099 1.75L1.90953 1.75C1.60571 1.75005 1.33191 1.934 1.21618 2.21484L0.519886 3.9043ZM2.64391 8L16.3636 8L16.725 4.75L2.28356 4.75L2.64391 8Z" fill="black"/>
</svg>
