<svg width="24" height="24" viewBox="0 0 24 24" fill="none" xmlns="http://www.w3.org/2000/svg">
<path d="M18.1696 22.5C18.2552 22.2807 18.3153 22.0477 18.3425 21.8037L20.1003 5.96973C21.3301 5.75997 22.1031 4.44538 21.6061 3.23828L20.9098 1.54785L20.8317 1.37598C20.6553 1.02521 20.4009 0.728029 20.0964 0.5L21.0827 0.5C21.9315 0.5005 22.6884 1.03684 22.9694 1.83789L23.7868 4.16895C24.0146 4.81892 23.5321 5.49949 22.8434 5.5H22.1423L20.3532 21.6104C20.297 22.1165 19.8683 22.4996 19.3591 22.5H18.1696Z" fill="black"/>
<path fill-rule="evenodd" clip-rule="evenodd" d="M1.30534 5.48731C0.411548 5.37232 -0.183322 4.48454 0.0514375 3.61426L0.114914 3.42871L0.811203 1.73828L0.873703 1.60059C1.21136 0.929655 1.90139 0.500001 2.66081 0.500001L17.8503 0.5L18.0016 0.50586C18.7001 0.558983 19.3225 0.974568 19.6374 1.60059L19.6999 1.73828L20.3962 3.42871C20.7775 4.35543 20.1604 5.3645 19.2038 5.4873L19.0085 5.5H18.6491L16.8473 21.7207C16.7348 22.7334 15.8779 23.4998 14.8591 23.5H5.65007C4.63119 23.4998 3.77433 22.7334 3.66179 21.7207L1.85905 5.5H1.50066L1.30534 5.48731ZM18.2614 3.5L17.8503 2.5L2.66081 2.5L2.2487 3.5L18.2614 3.5ZM5.03874 16L15.4694 16L16.6374 5.5L3.87175 5.5L5.03874 16ZM5.65007 21.5H14.8591L15.2477 18H5.26042L5.65007 21.5Z" fill="black"/>
</svg>
