<svg width="24" height="24" viewBox="0 0 24 24" fill="none" xmlns="http://www.w3.org/2000/svg">
<path d="M16.6244 22.5C16.7024 22.3431 16.7631 22.1759 16.8031 22H19.3607C19.615 21.9997 19.8286 21.808 19.8568 21.5547L21.808 4H23.5091L22.8128 2.30957C22.7357 2.12238 22.5525 2.00005 22.35 2L19.557 2L19.4496 1.73828C19.4154 1.65545 19.3754 1.57616 19.3314 1.5L22.35 1.5C22.7551 1.50005 23.1204 1.74458 23.2748 2.11914L23.971 3.80957C24.1064 4.13846 23.8647 4.49959 23.5091 4.5H22.2552L20.3539 21.6104C20.2976 22.1166 19.87 22.4997 19.3607 22.5H16.6244Z" fill="black"/>
<path fill-rule="evenodd" clip-rule="evenodd" d="M0.750342 4.75C0.217198 4.74939 -0.145668 4.20806 0.0569827 3.71484L0.753272 2.02441C0.946243 1.55635 1.40328 1.25007 1.90952 1.25L17.099 1.25L17.2865 1.26367C17.7155 1.32863 18.0864 1.61395 18.2552 2.02344L18.9515 3.71484C19.1418 4.17794 18.8336 4.68303 18.3548 4.74414L18.2572 4.75H17.2269L15.3519 21.6377C15.3289 21.8443 15.2553 22.0338 15.1459 22.1963L15.1126 22.5H14.8578C14.648 22.6571 14.3883 22.75 14.1087 22.75H4.89976C4.61997 22.75 4.35964 22.6574 4.14976 22.5H4.11265L4.10874 22.4668C3.86333 22.2661 3.69395 21.9739 3.65659 21.6377L1.78062 4.75H0.750342ZM0.519873 3.9043C0.452267 4.06861 0.572773 4.24956 0.750342 4.25L18.2572 4.25L18.3207 4.24219C18.4627 4.20552 18.5478 4.04811 18.4886 3.9043L17.7923 2.21484C17.6766 1.93395 17.4029 1.75 17.099 1.75L1.90952 1.75C1.60569 1.75007 1.33187 1.93397 1.21616 2.21484L0.519873 3.9043ZM3.19956 13L15.808 13L16.725 4.75L2.28355 4.75L3.19956 13Z" fill="black"/>
</svg>
