<svg width="24" height="24" viewBox="0 0 24 24" fill="none" xmlns="http://www.w3.org/2000/svg">
<path fill-rule="evenodd" clip-rule="evenodd" d="M3.25038 4.75C2.71712 4.74951 2.35429 4.20814 2.55702 3.71484L3.25331 2.02441C3.44634 1.55637 3.9033 1.25 4.40956 1.25L19.599 1.25L19.7865 1.26367C20.2154 1.32874 20.5865 1.61403 20.7553 2.02344L21.4516 3.71484C21.6417 4.17778 21.3334 4.68282 20.8549 4.74414L20.7572 4.75H19.7269L17.8519 21.6377C17.7816 22.2706 17.2455 22.7498 16.6088 22.75H7.3998C6.76288 22.75 6.22699 22.2707 6.15663 21.6377L4.28066 4.75H3.25038ZM3.01991 3.9043C2.95223 4.06868 3.07269 4.24968 3.25038 4.25L20.7572 4.25L20.8207 4.24219C20.9624 4.20536 21.0477 4.04795 20.9887 3.9043L20.2924 2.21484C20.1767 1.93403 19.9028 1.75016 19.599 1.75L4.40956 1.75C4.10571 1.75 3.83197 1.934 3.7162 2.21484L3.01991 3.9043ZM5.11659 7.75L18.891 7.75L19.225 4.75L4.78359 4.75L5.11659 7.75ZM6.6537 21.583C6.696 21.9627 7.01771 22.25 7.3998 22.25H16.6088C16.9907 22.2498 17.3126 21.9626 17.3549 21.583L18.8353 8.25L5.17226 8.25L6.6537 21.583Z" fill="black"/>
</svg>
