<svg width="24" height="24" viewBox="0 0 24 24" fill="none" xmlns="http://www.w3.org/2000/svg">
<path fill-rule="evenodd" clip-rule="evenodd" d="M3.25028 4.75C2.71733 4.74919 2.3544 4.20794 2.55692 3.71484L3.2532 2.02441C3.44614 1.55644 3.90333 1.25019 4.40945 1.25L19.5989 1.25L19.7864 1.26367C20.2154 1.32862 20.5863 1.614 20.7552 2.02344L21.4514 3.71484C21.6418 4.17794 21.3336 4.68303 20.8548 4.74414L20.7571 4.75H19.7268L17.8518 21.6377C17.7815 22.2707 17.2456 22.75 16.6087 22.75H7.39969C6.76294 22.7498 6.22685 22.2706 6.15653 21.6377L4.28055 4.75H3.25028ZM3.01981 3.9043C2.95233 4.06849 3.07291 4.24936 3.25027 4.25L20.7571 4.25L20.8206 4.24219C20.9626 4.20552 21.0478 4.04811 20.9886 3.9043L20.2923 2.21484C20.1765 1.93401 19.9028 1.75 19.5989 1.75L4.40945 1.75C4.10574 1.75019 3.83177 1.93407 3.7161 2.21484L3.01981 3.9043ZM6.11649 16.75L17.8909 16.75L19.2249 4.75L4.78348 4.75L6.11649 16.75ZM6.6536 21.583C6.69585 21.9626 7.01777 22.2498 7.39969 22.25H16.6087C16.9908 22.25 17.3125 21.9627 17.3548 21.583L17.8352 17.25H6.17215L6.6536 21.583Z" fill="black"/>
</svg>
