<svg width="24" height="24" viewBox="0 0 24 24" fill="none" xmlns="http://www.w3.org/2000/svg">
<path fill-rule="evenodd" clip-rule="evenodd" d="M3.15178 4.74414C2.67355 4.6822 2.36705 4.17716 2.55705 3.71484L3.25334 2.02441C3.44635 1.55633 3.9033 1.25 4.40959 1.25L19.599 1.25L19.7865 1.26367C20.2155 1.32869 20.5865 1.61398 20.7553 2.02344L21.4516 3.71484C21.6418 4.17786 21.3336 4.68292 20.8549 4.74414L20.7572 4.75H19.727L17.852 21.6377C17.8211 21.9159 17.6998 22.1643 17.5199 22.3555L17.5043 22.5H17.3578C17.1481 22.6572 16.8883 22.7499 16.6088 22.75H7.39983C7.11979 22.75 6.85884 22.6576 6.64885 22.5H6.50432L6.48772 22.3555C6.30801 22.1643 6.18757 21.9158 6.15666 21.6377L4.28068 4.75H3.25041L3.15178 4.74414ZM3.01994 3.9043C2.95226 4.06868 3.07272 4.24968 3.25041 4.25L20.7572 4.25L20.8207 4.24219C20.9626 4.20544 21.0478 4.04803 20.9887 3.9043L20.2924 2.21484C20.1912 1.96911 19.9689 1.79781 19.7113 1.75879L19.599 1.75L4.40959 1.75C4.10571 1.75 3.83198 1.93396 3.71623 2.21484L3.01994 3.9043ZM6.14397 17L17.8637 17L19.225 4.75L4.78361 4.75L6.14397 17Z" fill="black"/>
</svg>
