<svg width="24" height="24" viewBox="0 0 24 24" fill="none" xmlns="http://www.w3.org/2000/svg">
<path fill-rule="evenodd" clip-rule="evenodd" d="M3.11935 4.99121C2.48111 4.90898 2.0724 4.23597 2.32638 3.61914L3.02267 1.92871L3.06955 1.8252C3.32283 1.32217 3.8399 1 4.40939 1L19.5988 1L19.7121 1.00391C20.2361 1.04353 20.7024 1.35574 20.9387 1.8252L20.9856 1.92871L21.6819 3.61914C21.9361 4.23668 21.5258 4.91017 20.8879 4.99219L20.757 5H19.9514L18.0998 21.666C18.0153 22.4254 17.3727 22.9998 16.6086 23H7.39963C6.63544 23 5.99301 22.4255 5.90842 21.666L4.05588 5H3.25021L3.11935 4.99121ZM20.758 4L20.0617 2.30957L20.0276 2.24219C19.9382 2.09357 19.776 2.00009 19.5988 2L4.40939 2C4.23224 2 4.07015 2.09357 3.98068 2.24219L3.9465 2.30957L3.25021 4L20.758 4ZM5.89572 12.5L18.1115 12.5L18.9455 5L5.06271 5L5.89572 12.5ZM6.90256 21.5557C6.93092 21.8086 7.14503 22 7.39963 22H16.6086C16.8631 21.9998 17.0773 21.8085 17.1057 21.5557L18.0002 13.5L6.00705 13.5L6.90256 21.5557Z" fill="black"/>
</svg>
