<svg width="24" height="24" viewBox="0 0 24 24" fill="none" xmlns="http://www.w3.org/2000/svg">
<path d="M18.1696 22.5C18.2552 22.2807 18.3153 22.0476 18.3425 21.8037L20.1003 5.96973C21.33 5.75995 22.103 4.44537 21.6061 3.23828L20.9098 1.54785L20.8317 1.37598C20.6553 1.02522 20.4009 0.728027 20.0964 0.5L21.0827 0.5C21.9315 0.500515 22.6884 1.03685 22.9694 1.83789L23.7868 4.16895C24.0146 4.8189 23.532 5.49946 22.8434 5.5H22.1423L20.3532 21.6104C20.297 22.1165 19.8682 22.4996 19.3591 22.5H18.1696Z" fill="black"/>
<path fill-rule="evenodd" clip-rule="evenodd" d="M1.50066 5.5C0.500388 5.49905 -0.200036 4.54652 0.0514429 3.61426L0.114919 3.42871L0.811208 1.73828L0.873708 1.60059C1.21137 0.929663 1.9014 0.500001 2.66082 0.500001L17.8503 0.5L18.0016 0.50586C18.7001 0.558994 19.3225 0.974578 19.6374 1.60059L19.6999 1.73828L20.3962 3.42871C20.7775 4.35541 20.1603 5.36448 19.2038 5.4873L19.0085 5.5H18.6491L16.8473 21.7207C16.7348 22.7334 15.878 23.4998 14.8591 23.5H5.65008C4.63118 23.4998 3.77434 22.7334 3.6618 21.7207L1.85906 5.5H1.50066ZM18.2614 3.5L17.8503 2.5L2.66082 2.5L2.24871 3.5L18.2614 3.5ZM4.03777 7L16.4704 7L16.6374 5.5L3.87176 5.5L4.03777 7ZM5.65008 21.5H14.8591L16.2477 9L4.26043 9L5.65008 21.5Z" fill="black"/>
</svg>
