<svg width="24" height="24" viewBox="0 0 24 24" fill="none" xmlns="http://www.w3.org/2000/svg">
<path fill-rule="evenodd" clip-rule="evenodd" d="M3.24963 5.25C2.36083 5.24899 1.75701 4.34664 2.09534 3.52441L2.79162 1.83301C3.06186 1.17764 3.70103 0.750001 4.40979 0.750001L19.5992 0.75L19.7311 0.754883C20.3863 0.804289 20.9641 1.21854 21.2174 1.83301L21.9137 3.52441C22.2525 4.34807 21.6457 5.24982 20.7574 5.25H20.1754L18.3492 21.6934C18.2508 22.5795 17.5006 23.2498 16.609 23.25H7.40002C6.50834 23.25 5.7583 22.5796 5.65979 21.6934L3.83264 5.25H3.24963ZM20.3844 3.75L19.8307 2.40527L19.7926 2.34082C19.7614 2.30306 19.7193 2.27513 19.6725 2.26074L19.5992 2.25L4.40979 2.25L4.33655 2.26074C4.26615 2.28229 4.20731 2.33504 4.17834 2.40527L3.62366 3.75L20.3844 3.75ZM6.56409 16.25L17.444 16.25L18.6666 5.25L5.34241 5.25L6.56409 16.25ZM7.151 21.5273C7.16508 21.6539 7.27265 21.75 7.40002 21.75H16.609C16.7363 21.7498 16.844 21.6538 16.858 21.5273L17.277 17.75H6.73108L7.151 21.5273Z" fill="black"/>
</svg>
