<svg width="24" height="24" viewBox="0 0 24 24" fill="none" xmlns="http://www.w3.org/2000/svg">
<path d="M16.6234 22.5C16.7014 22.3431 16.7621 22.1759 16.8021 22H19.3597C19.6141 21.9998 19.8277 21.808 19.8558 21.5547L21.807 4H23.5082L22.8119 2.30957C22.7347 2.12243 22.5516 2 22.349 2L19.556 2L19.4486 1.73828C19.4145 1.6555 19.3744 1.57612 19.3304 1.5L22.349 1.5C22.7541 1.5 23.1194 1.74464 23.2738 2.11914L23.9701 3.80957C24.1055 4.13851 23.8638 4.49967 23.5082 4.5H22.2543L20.3529 21.6104C20.2966 22.1166 19.8691 22.4998 19.3597 22.5H16.6234Z" fill="black"/>
<path fill-rule="evenodd" clip-rule="evenodd" d="M0.750355 4.75C0.217173 4.74943 -0.14568 4.20809 0.0569954 3.71484L0.753284 2.02441C0.94629 1.5564 1.40331 1.25005 1.90953 1.25L17.099 1.25L17.2865 1.26367C17.7154 1.32872 18.0864 1.61404 18.2552 2.02344L18.9515 3.71484C19.1417 4.17781 18.8334 4.68285 18.3548 4.74414L18.2572 4.75H17.2269L15.3519 21.6377C15.2816 22.2706 14.7455 22.7498 14.1088 22.75H4.89977C4.2629 22.7499 3.72696 22.2707 3.65661 21.6377L1.78063 4.75H0.750355ZM0.519886 3.9043C0.452255 4.06863 0.572747 4.2496 0.750355 4.25L18.2572 4.25L18.3207 4.24219C18.4625 4.20539 18.5477 4.04798 18.4886 3.9043L17.7923 2.21484C17.6767 1.93404 17.4028 1.75013 17.099 1.75L1.90953 1.75C1.60572 1.75005 1.33192 1.93402 1.21618 2.21484L0.519886 3.9043ZM2.61657 7.75L16.391 7.75L16.725 4.75L2.28356 4.75L2.61657 7.75ZM4.15368 21.583C4.19596 21.9627 4.51773 22.2499 4.89977 22.25H14.1088C14.4907 22.2498 14.8126 21.9626 14.8548 21.583L16.3353 8.25L2.67223 8.25L4.15368 21.583Z" fill="black"/>
</svg>
