<svg width="24" height="24" viewBox="0 0 24 24" fill="none" xmlns="http://www.w3.org/2000/svg">
<path fill-rule="evenodd" clip-rule="evenodd" d="M3.24963 5.25C2.36083 5.24899 1.75701 4.34664 2.09534 3.52441L2.79162 1.83301C3.06188 1.17768 3.70106 0.750001 4.40979 0.750001L19.5992 0.75L19.7311 0.754883C20.3862 0.804365 20.9641 1.21861 21.2174 1.83301L21.9137 3.52441C22.2313 4.29648 21.7177 5.13687 20.9205 5.23926L20.7574 5.25H20.4264L18.5963 21.7207C18.4838 22.7335 17.6271 23.5 16.608 23.5H7.39905C6.38014 23.4998 5.52329 22.7334 5.41077 21.7207L3.57971 5.25H3.24963ZM20.2809 3.5L19.8307 2.40527L19.7926 2.34082C19.746 2.28432 19.6751 2.25015 19.5992 2.25L4.40979 2.25C4.30846 2.25 4.21693 2.31181 4.17834 2.40527L3.72619 3.5L20.2809 3.5ZM5.89807 8L18.108 8L18.3864 5.5L5.62073 5.5L5.89807 8Z" fill="black"/>
</svg>
