<svg width="24" height="24" viewBox="0 0 24 24" fill="none" xmlns="http://www.w3.org/2000/svg">
<path fill-rule="evenodd" clip-rule="evenodd" d="M3.24963 5.25C2.36083 5.24899 1.75701 4.34664 2.09534 3.52441L2.79162 1.83301C3.06184 1.17761 3.70101 0.750001 4.40979 0.750001L19.5992 0.75C20.308 0.750045 20.9472 1.17758 21.2174 1.83301L21.9137 3.52441C22.2526 4.34813 21.6458 5.24992 20.7574 5.25H20.1754L18.3492 21.6934C18.2508 22.5795 17.5006 23.2499 16.609 23.25H7.40002C6.50834 23.25 5.75829 22.5796 5.65979 21.6934L3.83264 5.25H3.24963ZM20.3844 3.75L19.8307 2.40527L19.7926 2.34082C19.7459 2.28423 19.6752 2.25003 19.5992 2.25L4.40979 2.25C4.30841 2.25 4.2169 2.31174 4.17834 2.40527L3.62366 3.75L20.3844 3.75ZM5.64709 8L18.361 8L18.6666 5.25L5.34241 5.25L5.64709 8Z" fill="black"/>
</svg>
