<svg width="24" height="24" viewBox="0 0 24 24" fill="none" xmlns="http://www.w3.org/2000/svg">
<path d="M18.1721 22.5C18.2578 22.2807 18.3178 22.0477 18.345 21.8037L20.1028 5.96973C21.3329 5.76019 22.1058 4.44556 21.6087 3.23828L20.9124 1.54785L20.8342 1.37598C20.5831 0.876693 20.1753 0.485851 19.6868 0.25L21.0413 0.25C21.9116 0.250132 22.6821 0.813347 22.9465 1.64258L23.8401 4.44629C24.0458 5.09129 23.5649 5.74987 22.888 5.75H22.1174L20.3547 21.6104C20.2985 22.1166 19.871 22.4998 19.3616 22.5H18.1721Z" fill="black"/>
<path fill-rule="evenodd" clip-rule="evenodd" d="M1.75026 5.75C0.583746 5.74864 -0.232972 4.63806 0.0598275 3.55078L0.13307 3.33399L0.829359 1.64356C1.17664 0.80079 1.99921 0.250192 2.91041 0.250001L18.0999 0.25L18.2698 0.256836C19.1121 0.320405 19.8553 0.852459 20.1809 1.64258L20.8772 3.33398C21.3518 4.48753 20.5015 5.74999 19.2581 5.75H19.1233L17.346 21.748C17.2193 22.8875 16.2561 23.75 15.1096 23.75H5.90065C4.75437 23.7498 3.79091 22.8874 3.66432 21.748L1.886 5.75H1.75026ZM18.138 3.25L17.9319 2.75L3.07741 2.75L2.87135 3.25L18.138 3.25ZM5.06764 11.75L15.9417 11.75L16.6087 5.75L4.40162 5.75L5.06764 11.75ZM6.12428 21.25H14.886L15.6633 14.25L5.34596 14.25L6.12428 21.25Z" fill="black"/>
</svg>
