<svg width="24" height="24" viewBox="0 0 24 24" fill="none" xmlns="http://www.w3.org/2000/svg">
<path fill-rule="evenodd" clip-rule="evenodd" d="M3.24866 5.5C2.24864 5.49879 1.54808 4.54636 1.79944 3.61426L1.86292 3.42871L2.55921 1.73828L2.62171 1.60059C2.95924 0.929573 3.64942 0.500154 4.40882 0.500001L19.5983 0.5C20.3577 0.5 21.0478 0.929509 21.3854 1.60059L21.4479 1.73828L22.1442 3.42871C22.5513 4.41747 21.8225 5.5 20.7565 5.5H20.3981L18.5963 21.7207C18.4838 22.7336 17.6271 23.5 16.608 23.5H7.39905C6.38011 23.4998 5.5233 22.7334 5.41077 21.7207L3.60804 5.5H3.24866ZM20.0094 3.5L19.5983 2.5L4.40882 2.5L3.99671 3.5L20.0094 3.5ZM6.78772 16L17.2184 16L18.3864 5.5L5.62073 5.5L6.78772 16ZM7.39905 21.5H16.608L16.9967 18H7.0094L7.39905 21.5Z" fill="black"/>
</svg>
