<svg width="24" height="24" viewBox="0 0 24 24" fill="none" xmlns="http://www.w3.org/2000/svg">
<path d="M5.12982 22.2768C5.55881 21.929 5.6246 21.2992 5.27677 20.8702C1.20266 15.8455 1.20266 8.65457 5.27677 3.62984C5.6246 3.20084 5.55881 2.57111 5.12982 2.22328C4.70083 1.87545 4.07109 1.94124 3.72326 2.37023C-0.946165 8.12919 -0.946165 16.3709 3.72326 22.1298C4.07109 22.5588 4.70083 22.6246 5.12982 22.2768Z" fill="black"/>
<path d="M18.8702 22.2768C18.4412 21.929 18.3754 21.2992 18.7233 20.8702C22.7974 15.8455 22.7974 8.65457 18.7233 3.62984C18.3754 3.20085 18.4412 2.57111 18.8702 2.22328C19.2992 1.87545 19.9289 1.94124 20.2768 2.37023C24.9462 8.12919 24.9462 16.3709 20.2768 22.1298C19.9289 22.5588 19.2992 22.6246 18.8702 22.2768Z" fill="black"/>
<path d="M8.00009 18.25C8.69045 18.25 9.25009 17.6904 9.25009 17C9.25009 16.3097 8.69045 15.75 8.00009 15.75C7.30974 15.75 6.75009 16.3097 6.75009 17C6.75009 17.6904 7.30974 18.25 8.00009 18.25Z" fill="black"/>
<path d="M12.0001 18.25C12.6904 18.25 13.2501 17.6904 13.2501 17C13.2501 16.3097 12.6904 15.75 12.0001 15.75C11.3097 15.75 10.7501 16.3097 10.7501 17C10.7501 17.6904 11.3097 18.25 12.0001 18.25Z" fill="black"/>
<path d="M17.2501 17C17.2501 17.6904 16.6904 18.25 16.0001 18.25C15.3097 18.25 14.7501 17.6904 14.7501 17C14.7501 16.3097 15.3097 15.75 16.0001 15.75C16.6904 15.75 17.2501 16.3097 17.2501 17Z" fill="black"/>
</svg>
