<svg width="24" height="24" viewBox="0 0 24 24" fill="none" xmlns="http://www.w3.org/2000/svg">
<path d="M5.47224 22.0826C5.79399 21.8217 5.84333 21.3494 5.58246 21.0277C1.43394 15.9112 1.43394 8.58888 5.58246 3.47238C5.84333 3.15063 5.79399 2.67833 5.47224 2.41746C5.1505 2.15659 4.6782 2.20593 4.41733 2.52767C-0.177683 8.19485 -0.177683 16.3052 4.41733 21.9724C4.6782 22.2941 5.1505 22.3435 5.47224 22.0826Z" fill="black"/>
<path d="M18.5275 22.0826C18.2058 21.8217 18.1564 21.3494 18.4173 21.0277C22.5658 15.9112 22.5658 8.58888 18.4173 3.47238C18.1564 3.15063 18.2058 2.67833 18.5275 2.41746C18.8493 2.15659 19.3216 2.20593 19.5824 2.52767C24.1775 8.19485 24.1775 16.3052 19.5824 21.9724C19.3216 22.2941 18.8493 22.3435 18.5275 22.0826Z" fill="black"/>
<path d="M7.99997 18C8.55225 18 8.99997 17.5523 8.99997 17C8.99997 16.4477 8.55225 16 7.99997 16C7.44768 16 6.99997 16.4477 6.99997 17C6.99997 17.5523 7.44768 18 7.99997 18Z" fill="black"/>
<path d="M12 18C12.5523 18 13 17.5523 13 17C13 16.4477 12.5523 16 12 16C11.4477 16 11 16.4477 11 17C11 17.5523 11.4477 18 12 18Z" fill="black"/>
<path d="M17 17C17 17.5523 16.5523 18 16 18C15.4477 18 15 17.5523 15 17C15 16.4477 15.4477 16 16 16C16.5523 16 17 16.4477 17 17Z" fill="black"/>
</svg>
