<svg width="24" height="24" viewBox="0 0 24 24" fill="none" xmlns="http://www.w3.org/2000/svg">
<path d="M5.65698 21.6942C5.76423 21.6072 5.78067 21.4498 5.69372 21.3426C1.39637 16.0425 1.39637 8.45752 5.69372 3.15746C5.78067 3.05021 5.76423 2.89278 5.65698 2.80582C5.54973 2.71886 5.3923 2.73531 5.30534 2.84256C0.859158 8.32618 0.859158 16.1738 5.30534 21.6575C5.3923 21.7647 5.54973 21.7812 5.65698 21.6942Z" fill="black"/>
<path d="M18.3421 21.6942C18.2348 21.6072 18.2184 21.4498 18.3053 21.3426C22.6027 16.0425 22.6027 8.45752 18.3053 3.15746C18.2184 3.05021 18.2348 2.89278 18.3421 2.80582C18.4493 2.71886 18.6067 2.73531 18.6937 2.84256C23.1399 8.32618 23.1399 16.1738 18.6937 21.6575C18.6067 21.7647 18.4493 21.7812 18.3421 21.6942Z" fill="black"/>
<path d="M7.99959 17.75C8.4138 17.75 8.74959 17.4142 8.74959 17C8.74959 16.5858 8.4138 16.25 7.99959 16.25C7.58537 16.25 7.24959 16.5858 7.24959 17C7.24959 17.4142 7.58537 17.75 7.99959 17.75Z" fill="black"/>
<path d="M11.9996 17.75C12.4138 17.75 12.7496 17.4142 12.7496 17C12.7496 16.5858 12.4138 16.25 11.9996 16.25C11.5854 16.25 11.2496 16.5858 11.2496 17C11.2496 17.4142 11.5854 17.75 11.9996 17.75Z" fill="black"/>
<path d="M16.7496 17C16.7496 17.4142 16.4138 17.75 15.9996 17.75C15.5854 17.75 15.2496 17.4142 15.2496 17C15.2496 16.5858 15.5854 16.25 15.9996 16.25C16.4138 16.25 16.7496 16.5858 16.7496 17Z" fill="black"/>
</svg>
