<svg width="26" height="24" viewBox="0 0 26 24" fill="none" xmlns="http://www.w3.org/2000/svg">
<path d="M6.28727 22.471C6.82351 22.0362 6.90575 21.249 6.47096 20.7128C2.47127 15.7798 2.47127 8.72025 6.47096 3.78729C6.90575 3.25106 6.82351 2.46388 6.28727 2.0291C5.75103 1.59431 4.96386 1.67655 4.52907 2.21279C-0.214768 8.06352 -0.214768 16.4366 4.52907 22.2873C4.96386 22.8235 5.75103 22.9058 6.28727 22.471Z" fill="black"/>
<path d="M19.7128 22.471C19.1765 22.0362 19.0943 21.249 19.5291 20.7128C23.5288 15.7798 23.5288 8.72025 19.5291 3.78729C19.0943 3.25106 19.1765 2.46388 19.7128 2.0291C20.249 1.59431 21.0362 1.67655 21.471 2.21279C26.2148 8.06352 26.2148 16.4366 21.471 22.2873C21.0362 22.8235 20.249 22.9058 19.7128 22.471Z" fill="black"/>
<path d="M9.00009 18.5001C9.82852 18.5001 10.5001 17.8285 10.5001 17.0001C10.5001 16.1716 9.82852 15.5001 9.00009 15.5001C8.17166 15.5001 7.50009 16.1716 7.50009 17.0001C7.50009 17.8285 8.17166 18.5001 9.00009 18.5001Z" fill="black"/>
<path d="M13.0001 18.5001C13.8285 18.5001 14.5001 17.8285 14.5001 17.0001C14.5001 16.1716 13.8285 15.5001 13.0001 15.5001C12.1717 15.5001 11.5001 16.1716 11.5001 17.0001C11.5001 17.8285 12.1717 18.5001 13.0001 18.5001Z" fill="black"/>
<path d="M18.5001 17.0001C18.5001 17.8285 17.8285 18.5001 17.0001 18.5001C16.1717 18.5001 15.5001 17.8285 15.5001 17.0001C15.5001 16.1716 16.1717 15.5001 17.0001 15.5001C17.8285 15.5001 18.5001 16.1716 18.5001 17.0001Z" fill="black"/>
</svg>
