<svg width="25" height="24" viewBox="0 0 25 24" fill="none" xmlns="http://www.w3.org/2000/svg">
<path d="M5.31608 22.471C5.85231 22.0362 5.93456 21.249 5.49977 20.7128C1.50008 15.7798 1.50008 8.72025 5.49977 3.78729C5.93456 3.25106 5.85231 2.46388 5.31608 2.0291C4.77984 1.59431 3.99267 1.67655 3.55788 2.21279C-1.18596 8.06352 -1.18596 16.4366 3.55788 22.2873C3.99267 22.8235 4.77984 22.9058 5.31608 22.471Z" fill="black"/>
<path d="M18.7416 22.471C18.2053 22.0362 18.1231 21.249 18.5579 20.7128C22.5576 15.7798 22.5576 8.72025 18.5579 3.78729C18.1231 3.25106 18.2053 2.46388 18.7416 2.0291C19.2778 1.59431 20.065 1.67655 20.4998 2.21279C25.2436 8.06352 25.2436 16.4366 20.4998 22.2873C20.065 22.8235 19.2778 22.9058 18.7416 22.471Z" fill="black"/>
<path d="M8.0289 18.5001C8.85733 18.5001 9.5289 17.8285 9.5289 17.0001C9.5289 16.1716 8.85733 15.5001 8.0289 15.5001C7.20047 15.5001 6.5289 16.1716 6.5289 17.0001C6.5289 17.8285 7.20047 18.5001 8.0289 18.5001Z" fill="black"/>
<path d="M12.0289 18.5001C12.8573 18.5001 13.5289 17.8285 13.5289 17.0001C13.5289 16.1716 12.8573 15.5001 12.0289 15.5001C11.2005 15.5001 10.5289 16.1716 10.5289 17.0001C10.5289 17.8285 11.2005 18.5001 12.0289 18.5001Z" fill="black"/>
<path d="M17.5289 17.0001C17.5289 17.8285 16.8573 18.5001 16.0289 18.5001C15.2005 18.5001 14.5289 17.8285 14.5289 17.0001C14.5289 16.1716 15.2005 15.5001 16.0289 15.5001C16.8573 15.5001 17.5289 16.1716 17.5289 17.0001Z" fill="black"/>
</svg>
