<svg width="24" height="24" viewBox="0 0 24 24" fill="none" xmlns="http://www.w3.org/2000/svg">
<path d="M5.47237 22.0826C5.79411 21.8217 5.84345 21.3494 5.58258 21.0277C1.43406 15.9112 1.43406 8.58888 5.58258 3.47238C5.84345 3.15063 5.79411 2.67833 5.47237 2.41746C5.15062 2.15659 4.67832 2.20593 4.41745 2.52767C-0.177561 8.19485 -0.177561 16.3052 4.41745 21.9724C4.67832 22.2941 5.15062 22.3435 5.47237 22.0826Z" fill="black"/>
<path d="M18.5276 22.0826C18.2059 21.8217 18.1566 21.3494 18.4174 21.0277C22.566 15.9112 22.566 8.58888 18.4174 3.47238C18.1566 3.15063 18.2059 2.67833 18.5276 2.41746C18.8494 2.15659 19.3217 2.20593 19.5826 2.52767C24.1776 8.19485 24.1776 16.3052 19.5826 21.9724C19.3217 22.2941 18.8494 22.3435 18.5276 22.0826Z" fill="black"/>
<path d="M8.00009 18C8.55238 18 9.00009 17.5523 9.00009 17C9.00009 16.4477 8.55238 16 8.00009 16C7.44781 16 7.00009 16.4477 7.00009 17C7.00009 17.5523 7.44781 18 8.00009 18Z" fill="black"/>
<path d="M12.0001 18C12.5524 18 13.0001 17.5523 13.0001 17C13.0001 16.4477 12.5524 16 12.0001 16C11.4478 16 11.0001 16.4477 11.0001 17C11.0001 17.5523 11.4478 18 12.0001 18Z" fill="black"/>
<path d="M17.0001 17C17.0001 17.5523 16.5524 18 16.0001 18C15.4478 18 15.0001 17.5523 15.0001 17C15.0001 16.4477 15.4478 16 16.0001 16C16.5524 16 17.0001 16.4477 17.0001 17Z" fill="black"/>
</svg>
