<svg width="24" height="24" viewBox="0 0 24 24" fill="none" xmlns="http://www.w3.org/2000/svg">
<path d="M5.81443 21.8884C6.02892 21.7145 6.06182 21.3996 5.8879 21.1851C1.66497 15.9768 1.66497 8.5232 5.8879 3.31492C6.06182 3.10042 6.02892 2.78555 5.81443 2.61164C5.59993 2.43772 5.28506 2.47062 5.11115 2.68511C0.590555 8.26052 0.590555 16.2395 5.11115 21.8149C5.28506 22.0294 5.59993 22.0623 5.81443 21.8884Z" fill="black"/>
<path d="M18.1846 21.8884C17.9701 21.7145 17.9372 21.3996 18.1111 21.1851C22.3341 15.9768 22.3341 8.5232 18.1111 3.31492C17.9372 3.10042 17.9701 2.78555 18.1846 2.61164C18.3991 2.43772 18.714 2.47062 18.8879 2.68511C23.4085 8.26052 23.4085 16.2395 18.8879 21.8149C18.714 22.0294 18.3991 22.0623 18.1846 21.8884Z" fill="black"/>
<path d="M7.99959 17.875C8.48284 17.875 8.87459 17.4833 8.87459 17C8.87459 16.5168 8.48284 16.125 7.99959 16.125C7.51634 16.125 7.12459 16.5168 7.12459 17C7.12459 17.4833 7.51634 17.875 7.99959 17.875Z" fill="black"/>
<path d="M11.9996 17.875C12.4828 17.875 12.8746 17.4833 12.8746 17C12.8746 16.5168 12.4828 16.125 11.9996 16.125C11.5163 16.125 11.1246 16.5168 11.1246 17C11.1246 17.4833 11.5163 17.875 11.9996 17.875Z" fill="black"/>
<path d="M16.8746 17C16.8746 17.4833 16.4828 17.875 15.9996 17.875C15.5163 17.875 15.1246 17.4833 15.1246 17C15.1246 16.5168 15.5163 16.125 15.9996 16.125C16.4828 16.125 16.8746 16.5168 16.8746 17Z" fill="black"/>
</svg>
