<svg width="24" height="24" viewBox="0 0 24 24" fill="none" xmlns="http://www.w3.org/2000/svg">
<path d="M5.81479 21.8884C6.02929 21.7145 6.06219 21.3996 5.88827 21.1851C1.66534 15.9768 1.66534 8.5232 5.88827 3.31492C6.06219 3.10042 6.02929 2.78555 5.81479 2.61164C5.6003 2.43772 5.28543 2.47062 5.11152 2.68511C0.590921 8.26052 0.590921 16.2395 5.11152 21.8149C5.28543 22.0294 5.6003 22.0623 5.81479 21.8884Z" fill="black"/>
<path d="M18.185 21.8884C17.9705 21.7145 17.9376 21.3996 18.1115 21.1851C22.3344 15.9768 22.3344 8.5232 18.1115 3.31492C17.9376 3.10042 17.9705 2.78555 18.185 2.61164C18.3995 2.43772 18.7143 2.47062 18.8883 2.68511C23.4088 8.26052 23.4088 16.2395 18.8883 21.8149C18.7143 22.0294 18.3995 22.0623 18.185 21.8884Z" fill="black"/>
<path d="M7.99995 17.875C8.4832 17.875 8.87495 17.4833 8.87495 17C8.87495 16.5168 8.4832 16.125 7.99995 16.125C7.5167 16.125 7.12495 16.5168 7.12495 17C7.12495 17.4833 7.5167 17.875 7.99995 17.875Z" fill="black"/>
<path d="M12 17.875C12.4832 17.875 12.875 17.4833 12.875 17C12.875 16.5168 12.4832 16.125 12 16.125C11.5167 16.125 11.125 16.5168 11.125 17C11.125 17.4833 11.5167 17.875 12 17.875Z" fill="black"/>
<path d="M16.875 17C16.875 17.4833 16.4832 17.875 16 17.875C15.5167 17.875 15.125 17.4833 15.125 17C15.125 16.5168 15.5167 16.125 16 16.125C16.4832 16.125 16.875 16.5168 16.875 17Z" fill="black"/>
</svg>
