<svg width="24" height="24" viewBox="0 0 24 24" fill="none" xmlns="http://www.w3.org/2000/svg">
<path d="M10.575 11.9875H13C13.787 11.9875 14.425 11.3495 14.425 10.5625C14.425 9.77549 13.787 9.1375 13 9.1375H10.575V11.9875Z" fill="black"/>
<path fill-rule="evenodd" clip-rule="evenodd" d="M3 12C3 7.02944 7.02944 3 12 3C16.9706 3 21 7.02944 21 12C21 16.9706 16.9706 21 12 21C7.02944 21 3 16.9706 3 12ZM10 7.9875H13C14.4221 7.9875 15.575 9.14037 15.575 10.5625C15.575 11.9846 14.4221 13.1375 13 13.1375H10.575V15.0625C10.575 15.3801 10.3176 15.6375 10 15.6375C9.68244 15.6375 9.425 15.3801 9.425 15.0625V8.5625C9.425 8.24494 9.68244 7.9875 10 7.9875Z" fill="black"/>
<path d="M3.83271 4.61448C4.04563 4.79032 4.07569 5.10547 3.89985 5.31839C2.40042 7.13398 1.5 9.46117 1.5 12C1.5 14.5388 2.40042 16.866 3.89985 18.6816C4.07569 18.8945 4.04563 19.2097 3.83271 19.3855C3.61979 19.5614 3.30464 19.5313 3.1288 19.3184C1.48685 17.3302 0.5 14.7797 0.5 12C0.5 9.22031 1.48685 6.66978 3.1288 4.68161C3.30464 4.46869 3.61979 4.43863 3.83271 4.61448Z" fill="black"/>
<path d="M20.1673 4.61448C20.3802 4.43863 20.6954 4.46869 20.8712 4.68161C22.5132 6.66978 23.5 9.22031 23.5 12C23.5 14.7797 22.5132 17.3302 20.8712 19.3184C20.6954 19.5313 20.3802 19.5614 20.1673 19.3855C19.9544 19.2097 19.9243 18.8945 20.1002 18.6816C21.5996 16.866 22.5 14.5388 22.5 12C22.5 9.46117 21.5996 7.13398 20.1002 5.31839C19.9243 5.10547 19.9544 4.79032 20.1673 4.61448Z" fill="black"/>
</svg>
