<svg width="24" height="24" viewBox="0 0 24 24" fill="none" xmlns="http://www.w3.org/2000/svg">
<path fill-rule="evenodd" clip-rule="evenodd" d="M12 3C7.02945 3 3.00001 7.02944 3.00001 12C3.00001 16.9706 7.02945 21 12 21C16.9706 21 21 16.9706 21 12C21 7.02944 16.9706 3 12 3ZM4.00001 12C4.00001 7.58172 7.58174 4 12 4C16.4183 4 20 7.58172 20 12C20 16.4183 16.4183 20 12 20C7.58174 20 4.00001 16.4183 4.00001 12Z" fill="black"/>
<path d="M3.89985 5.31839C4.07569 5.10547 4.04563 4.79032 3.83271 4.61448C3.61979 4.43863 3.30464 4.46869 3.1288 4.68161C2.42094 5.53872 1.83484 6.50035 1.39707 7.5398L2.3358 7.88747C2.73353 6.95406 3.26259 6.09002 3.89985 5.31839Z" fill="black"/>
<path d="M1.98839 8.82519L1.04964 8.4775C0.692761 9.58773 0.5 10.7715 0.5 12C0.5 13.2285 0.692761 14.4123 1.04964 15.5225L1.98839 15.1748C1.67112 14.1733 1.5 13.1068 1.5 12C1.5 10.8932 1.67112 9.82667 1.98839 8.82519Z" fill="black"/>
<path d="M3.1288 19.3184C2.42094 18.4613 1.83484 17.4996 1.39707 16.4602L2.3358 16.1125C2.73353 17.0459 3.26259 17.91 3.89985 18.6816C4.07569 18.8945 4.04563 19.2097 3.83271 19.3855C3.61979 19.5614 3.30464 19.5313 3.1288 19.3184Z" fill="black"/>
<path d="M20.1002 18.6816C20.7374 17.91 21.2665 17.0459 21.6642 16.1125L22.6029 16.4602C22.1652 17.4996 21.5791 18.4613 20.8712 19.3184C20.6954 19.5313 20.3802 19.5614 20.1673 19.3855C19.9544 19.2097 19.9243 18.8945 20.1002 18.6816Z" fill="black"/>
<path d="M23.5 12C23.5 13.2285 23.3072 14.4123 22.9504 15.5225L22.0116 15.1748C22.3289 14.1733 22.5 13.1068 22.5 12C22.5 10.8932 22.3289 9.82667 22.0116 8.82519L22.9504 8.4775C23.3072 9.58773 23.5 10.7715 23.5 12Z" fill="black"/>
<path d="M22.6029 7.5398L21.6642 7.88748C21.2665 6.95406 20.7374 6.09002 20.1002 5.31839C19.9243 5.10547 19.9544 4.79032 20.1673 4.61448C20.3802 4.43863 20.6954 4.46869 20.8712 4.68161C21.5791 5.53872 22.1652 6.50035 22.6029 7.5398Z" fill="black"/>
</svg>
