<svg width="24" height="24" viewBox="0 0 24 24" fill="none" xmlns="http://www.w3.org/2000/svg">
<path fill-rule="evenodd" clip-rule="evenodd" d="M12 3.25C7.16751 3.25 3.25 7.16751 3.25 12C3.25 16.8325 7.16751 20.75 12 20.75C16.8325 20.75 20.75 16.8325 20.75 12C20.75 7.16751 16.8325 3.25 12 3.25ZM5.75 12C5.75 8.54822 8.54822 5.75 12 5.75C15.4518 5.75 18.25 8.54822 18.25 12C18.25 15.4518 15.4518 18.25 12 18.25C8.54822 18.25 5.75 15.4518 5.75 12Z" fill="black"/>
<path d="M4.28537 5.63678C4.63705 5.21094 4.57694 4.58064 4.1511 4.22895C3.72526 3.87727 3.09496 3.93738 2.74328 4.36322C2.02631 5.23137 1.42898 6.20245 0.976732 7.25083L2.85531 7.9466C3.22672 7.11002 3.70965 6.33389 4.28537 5.63678Z" fill="black"/>
<path d="M2.42106 9.11874L0.542443 8.42296C0.189973 9.55295 0 10.7545 0 12C0 13.2455 0.189976 14.4471 0.54245 15.5771L2.42107 14.8813C2.14714 13.9691 2 13.002 2 12C2 10.998 2.14714 10.0309 2.42106 9.11874Z" fill="black"/>
<path d="M2.74328 19.6368C2.02631 18.7686 1.42899 17.7976 0.976742 16.7492L2.85532 16.0534C3.22673 16.89 3.70966 17.6661 4.28537 18.3632C4.63705 18.7891 4.57694 19.4194 4.1511 19.771C3.72526 20.1227 3.09496 20.0626 2.74328 19.6368Z" fill="black"/>
<path d="M19.7146 18.3632C20.2903 17.6661 20.7733 16.89 21.1447 16.0534L23.0233 16.7492C22.571 17.7976 21.9737 18.7686 21.2567 19.6368C20.905 20.0626 20.2747 20.1227 19.8489 19.771C19.4231 19.4194 19.3629 18.7891 19.7146 18.3632Z" fill="black"/>
<path d="M24 12C24 13.2455 23.81 14.4471 23.4576 15.5771L21.5789 14.8813C21.8529 13.9691 22 13.002 22 12C22 10.998 21.8529 10.0309 21.5789 9.11875L23.4576 8.42297C23.81 9.55296 24 10.7545 24 12Z" fill="black"/>
<path d="M23.0233 7.25084L21.1447 7.94661C20.7733 7.11002 20.2903 6.33389 19.7146 5.63678C19.3629 5.21094 19.4231 4.58064 19.8489 4.22895C20.2747 3.87727 20.905 3.93738 21.2567 4.36322C21.9737 5.23137 22.571 6.20246 23.0233 7.25084Z" fill="black"/>
</svg>
