<svg width="24" height="24" viewBox="0 0 24 24" fill="none" xmlns="http://www.w3.org/2000/svg">
<path d="M10.75 11.8125H13C13.6904 11.8125 14.25 11.2529 14.25 10.5625C14.25 9.87214 13.6904 9.3125 13 9.3125H10.75V11.8125Z" fill="black"/>
<path fill-rule="evenodd" clip-rule="evenodd" d="M3.25 12C3.25 7.16751 7.16751 3.25 12 3.25C16.8325 3.25 20.75 7.16751 20.75 12C20.75 16.8325 16.8325 20.75 12 20.75C7.16751 20.75 3.25 16.8325 3.25 12ZM10 7.8125H13C14.5188 7.8125 15.75 9.04372 15.75 10.5625C15.75 12.0813 14.5188 13.3125 13 13.3125H10.75V15.0625C10.75 15.4767 10.4142 15.8125 10 15.8125C9.58579 15.8125 9.25 15.4767 9.25 15.0625V8.5625C9.25 8.14829 9.58579 7.8125 10 7.8125Z" fill="black"/>
<path d="M3.99191 4.42171C4.31129 4.68548 4.35637 5.15821 4.09261 5.47758C2.62882 7.25003 1.75 9.52139 1.75 12C1.75 14.4786 2.62882 16.75 4.09261 18.5224C4.35637 18.8418 4.31129 19.3145 3.99191 19.5783C3.67253 19.842 3.1998 19.797 2.93604 19.4776C1.25845 17.4463 0.25 14.8399 0.25 12C0.25 9.16009 1.25845 6.55373 2.93604 4.52242C3.1998 4.20304 3.67253 4.15795 3.99191 4.42171Z" fill="black"/>
<path d="M20.0081 4.42171C20.3275 4.15795 20.8002 4.20304 21.064 4.52242C22.7415 6.55373 23.75 9.16009 23.75 12C23.75 14.8399 22.7415 17.4463 21.064 19.4776C20.8002 19.797 20.3275 19.842 20.0081 19.5783C19.6887 19.3145 19.6436 18.8418 19.9074 18.5224C21.3712 16.75 22.25 14.4786 22.25 12C22.25 9.52139 21.3712 7.25003 19.9074 5.47758C19.6436 5.15821 19.6887 4.68548 20.0081 4.42171Z" fill="black"/>
</svg>
