<svg width="26" height="24" viewBox="0 0 26 24" fill="none" xmlns="http://www.w3.org/2000/svg">
<path d="M14 11.5625C14.5523 11.5625 15 11.1148 15 10.5625C15 10.0102 14.5523 9.5625 14 9.5625H12V11.5625H14Z" fill="black"/>
<path fill-rule="evenodd" clip-rule="evenodd" d="M4.5 12C4.5 7.30558 8.30558 3.5 13 3.5C17.6944 3.5 21.5 7.30558 21.5 12C21.5 16.6944 17.6944 20.5 13 20.5C8.30558 20.5 4.5 16.6944 4.5 12ZM11 7.5625H14C15.6569 7.5625 17 8.90565 17 10.5625C17 12.2194 15.6569 13.5625 14 13.5625H12V15.0625C12 15.6148 11.5523 16.0625 11 16.0625C10.4477 16.0625 10 15.6148 10 15.0625V8.5625C10 8.01022 10.4477 7.5625 11 7.5625Z" fill="black"/>
<path d="M5.2307 4.13257C5.70977 4.52821 5.7774 5.23731 5.38175 5.71637C3.97141 7.4241 3.125 9.61171 3.125 12C3.125 14.3883 3.97141 16.5759 5.38175 18.2836C5.7774 18.7627 5.70977 19.4718 5.2307 19.8674C4.75163 20.2631 4.04254 20.1954 3.6469 19.7164C1.91586 17.6203 0.875 14.9302 0.875 12C0.875 9.06977 1.91586 6.37966 3.6469 4.28363C4.04254 3.80456 4.75163 3.73693 5.2307 4.13257Z" fill="black"/>
<path d="M20.7693 4.13257C21.2484 3.73693 21.9575 3.80456 22.3531 4.28363C24.0841 6.37966 25.125 9.06977 25.125 12C25.125 14.9302 24.0841 17.6203 22.3531 19.7164C21.9575 20.1954 21.2484 20.2631 20.7693 19.8674C20.2902 19.4718 20.2226 18.7627 20.6182 18.2836C22.0286 16.5759 22.875 14.3883 22.875 12C22.875 9.61171 22.0286 7.4241 20.6182 5.71637C20.2226 5.23731 20.2902 4.52821 20.7693 4.13257Z" fill="black"/>
</svg>
