<svg width="26" height="24" viewBox="0 0 26 24" fill="none" xmlns="http://www.w3.org/2000/svg">
<path fill-rule="evenodd" clip-rule="evenodd" d="M4.91302 8.71978L4.91302 9.46978L4.91302 10.7008L5.97924 10.0852L6.62876 9.7102L7.37876 11.0092L6.72924 11.3842L5.66301 11.9998L6.72924 12.6154L7.37876 12.9904L6.62876 14.2895L5.97924 13.9145L4.91302 13.2989L4.91302 14.5298L4.91302 15.2798L3.41302 15.2798L3.41302 14.5298L3.41302 13.2989L2.34715 13.9142L1.69763 14.2892L0.947632 12.9902L1.59715 12.6152L2.66301 11.9998L1.59715 11.3845L0.947632 11.0095L1.69763 9.71042L2.34715 10.0854L3.41302 10.7008L3.41302 9.46978L3.41302 8.71978L4.91302 8.71978ZM13.8967 8.71978L13.8967 9.46978L13.8967 10.7008L14.9629 10.0852L15.6125 9.7102L16.3625 11.0092L15.7129 11.3842L14.6467 11.9998L15.7129 12.6154L16.3625 12.9904L15.6125 14.2895L14.9629 13.9145L13.8967 13.2988L13.8967 14.5298L13.8967 15.2798L12.3967 15.2798L12.3967 14.5298L12.3967 13.2989L11.3308 13.9142L10.6813 14.2892L9.93132 12.9902L10.5808 12.6152L11.6467 11.9998L10.5808 11.3845L9.93132 11.0095L10.6813 9.71042L11.3308 10.0854L12.3967 10.7008L12.3967 9.46978L12.3967 8.71978L13.8967 8.71978ZM22.5866 9.46978L22.5866 8.71978L21.0866 8.71978L21.0866 9.46978L21.0866 10.7008L20.0207 10.0854L19.3712 9.71042L18.6212 11.0095L19.2707 11.3845L20.3366 11.9998L19.2707 12.6152L18.6212 12.9902L19.3712 14.2892L20.0207 13.9142L21.0866 13.2989L21.0866 14.5298L21.0866 15.2798L22.5866 15.2798L22.5866 14.5298L22.5866 13.2989L23.6528 13.9145L24.3023 14.2895L25.0523 12.9904L24.4028 12.6154L23.3366 11.9998L24.4028 11.3842L25.0523 11.0092L24.3023 9.7102L23.6528 10.0852L22.5866 10.7008L22.5866 9.46978Z" fill="black"/>
</svg>
