<svg width="26" height="24" viewBox="0 0 26 24" fill="none" xmlns="http://www.w3.org/2000/svg">
<path d="M4.16296 8.46973C4.71525 8.46973 5.16296 8.91744 5.16296 9.46973V10.2677L5.85418 9.86864C6.33247 9.5925 6.94406 9.75638 7.2202 10.2347C7.49635 10.713 7.33247 11.3246 6.85418 11.6007L6.16295 11.9998L6.85418 12.3989C7.33247 12.675 7.49635 13.2866 7.2202 13.7649C6.94406 14.2432 6.33247 14.4071 5.85418 14.1309L5.16296 13.7318V14.5297C5.16296 15.082 4.71525 15.5297 4.16296 15.5297C3.61068 15.5297 3.16296 15.082 3.16296 14.5297V13.7318L2.47209 14.1307C1.9938 14.4068 1.38221 14.243 1.10607 13.7647C0.829923 13.2864 0.993798 12.6748 1.47209 12.3986L2.16295 11.9998L1.47209 11.6009C0.993798 11.3248 0.829923 10.7132 1.10607 10.2349C1.38221 9.75659 1.9938 9.59272 2.47209 9.86886L3.16296 10.2677V9.46973C3.16296 8.91744 3.61068 8.46973 4.16296 8.46973Z" fill="black"/>
<path d="M13.1466 8.46973C13.6989 8.46973 14.1466 8.91744 14.1466 9.46973V10.2677L14.8379 9.86864C15.3162 9.5925 15.9278 9.75638 16.2039 10.2347C16.48 10.713 16.3162 11.3246 15.8379 11.6007L15.1466 11.9998L15.8379 12.3989C16.3162 12.675 16.48 13.2866 16.2039 13.7649C15.9278 14.2432 15.3162 14.4071 14.8379 14.1309L14.1466 13.7318V14.5297C14.1466 15.082 13.6989 15.5297 13.1466 15.5297C12.5943 15.5297 12.1466 15.082 12.1466 14.5297V13.7318L11.4558 14.1307C10.9775 14.4068 10.3659 14.243 10.0898 13.7647C9.81361 13.2864 9.97749 12.6748 10.4558 12.3986L11.1466 11.9998L10.4558 11.6009C9.97749 11.3248 9.81361 10.7132 10.0898 10.2349C10.3659 9.75659 10.9775 9.59272 11.4558 9.86886L12.1466 10.2677V9.46973C12.1466 8.91744 12.5943 8.46973 13.1466 8.46973Z" fill="black"/>
<path d="M22.8365 9.46973C22.8365 8.91744 22.3888 8.46973 21.8365 8.46973C21.2843 8.46973 20.8365 8.91744 20.8365 9.46973V10.2677L20.1457 9.86886C19.6674 9.59272 19.0558 9.75659 18.7796 10.2349C18.5035 10.7132 18.6674 11.3248 19.1457 11.6009L19.8365 11.9998L19.1457 12.3986C18.6674 12.6748 18.5035 13.2864 18.7796 13.7647C19.0558 14.243 19.6674 14.4068 20.1457 14.1307L20.8365 13.7318V14.5297C20.8365 15.082 21.2843 15.5297 21.8365 15.5297C22.3888 15.5297 22.8365 15.082 22.8365 14.5297V13.7318L23.5278 14.1309C24.0061 14.4071 24.6176 14.2432 24.8938 13.7649C25.1699 13.2866 25.0061 12.675 24.5278 12.3989L23.8365 11.9998L24.5278 11.6007C25.0061 11.3246 25.1699 10.713 24.8938 10.2347C24.6176 9.75638 24.0061 9.5925 23.5278 9.86864L22.8365 10.2677V9.46973Z" fill="black"/>
</svg>
