<svg width="24" height="24" viewBox="0 0 24 24" fill="none" xmlns="http://www.w3.org/2000/svg">
<path d="M18.4629 10.0522L20.3369 11.1343L20.3369 8.97021L21.3369 8.97021L21.3369 11.1343L23.2109 10.0522L23.7109 10.9185L21.8359 11.9995L23.7109 13.0825L23.2109 13.9478L21.3369 12.8657L21.3369 15.0298L20.3369 15.0298L20.3369 12.8657L18.4629 13.9478L17.9629 13.0825L19.8369 11.9995L17.9629 10.9185L18.4629 10.0522ZM9.77246 10.0522L11.6465 11.1343L11.6465 8.97021L12.6465 8.97021L12.6465 11.1343L14.5205 10.0522L15.0205 10.9185L13.1455 11.9995L15.0205 13.0825L14.5205 13.9478L12.6465 12.8657L12.6465 15.0298L11.6465 15.0298L11.6465 12.8657L9.77246 13.9478L9.27246 13.0825L11.1465 11.9995L9.27246 10.9185L9.77246 10.0522ZM0.789062 10.0522L2.66309 11.1343L2.66309 8.97021L3.66309 8.97021L3.66309 11.1343L5.53711 10.0522L6.03711 10.9185L4.16211 11.9995L6.03711 13.0825L5.53711 13.9478L3.66309 12.8657L3.66309 15.0298L2.66309 15.0298L2.66309 12.8657L0.789062 13.9478L0.289062 13.0825L2.16309 11.9995L0.289062 10.9185L0.789062 10.0522Z" fill="black"/>
</svg>
