<svg width="26" height="24" viewBox="0 0 26 24" fill="none" xmlns="http://www.w3.org/2000/svg">
<path fill-rule="evenodd" clip-rule="evenodd" d="M5.038 8.59478L5.038 9.46978L5.038 10.4843L5.91672 9.97695L6.67449 9.53945L7.54949 11.055L6.79172 11.4925L5.91299 11.9998L6.79172 12.5072L7.54949 12.9447L6.67449 14.4602L5.91672 14.0227L5.038 13.5154L5.038 14.5298L5.038 15.4048L3.288 15.4048L3.288 14.5298L3.288 13.5154L2.40963 14.0225L1.65186 14.46L0.776856 12.9445L1.53463 12.507L2.41299 11.9998L1.53463 11.4927L0.776856 11.0552L1.65186 9.53967L2.40963 9.97717L3.288 10.4843L3.288 9.46978L3.288 8.59478L5.038 8.59478ZM14.0216 8.59478L14.0216 9.46978L14.0216 10.4843L14.9004 9.97695L15.6582 9.53945L16.5332 11.055L15.7754 11.4925L14.8967 11.9998L15.7754 12.5072L16.5332 12.9447L15.6582 14.4602L14.9004 14.0227L14.0216 13.5154L14.0216 14.5298L14.0216 15.4048L12.2716 15.4048L12.2716 14.5298L12.2716 13.5154L11.3933 14.0225L10.6355 14.46L9.76055 12.9445L10.5183 12.507L11.3967 11.9998L10.5183 11.4927L9.76055 11.0552L10.6355 9.53967L11.3933 9.97717L12.2716 10.4843L12.2716 9.46978L12.2716 8.59478L14.0216 8.59478ZM22.7116 9.46978L22.7116 8.59478L20.9616 8.59478L20.9616 9.46978L20.9616 10.4843L20.0832 9.97717L19.3254 9.53967L18.4504 11.0552L19.2082 11.4927L20.0866 11.9998L19.2082 12.507L18.4504 12.9445L19.3254 14.46L20.0832 14.0225L20.9616 13.5154L20.9616 14.5298L20.9616 15.4048L22.7116 15.4048L22.7116 14.5298L22.7116 13.5154L23.5903 14.0227L24.3481 14.4602L25.2231 12.9447L24.4653 12.5072L23.5866 11.9998L24.4653 11.4925L25.2231 11.055L24.3481 9.53945L23.5903 9.97695L22.7116 10.4843L22.7116 9.46978Z" fill="black"/>
</svg>
