<svg width="25" height="24" viewBox="0 0 25 24" fill="none" xmlns="http://www.w3.org/2000/svg">
<path d="M18.6738 9.36963L20.2305 10.2681L20.2305 8.47021L22.2305 8.47021L22.2305 10.2681L23.7871 9.36963L24.7871 11.1011L23.2305 11.9995L24.7871 12.8989L23.7871 14.6313L22.2305 13.7319L22.2305 15.5298L20.2305 15.5298L20.2305 13.7319L18.6738 14.6313L17.6738 12.8989L19.2305 11.9995L17.6738 11.1011L18.6738 9.36963ZM9.9834 9.36963L11.54 10.2681L11.54 8.47021L13.54 8.47021L13.54 10.2681L15.0967 9.36963L16.0967 11.1011L14.54 11.9995L16.0967 12.8989L15.0967 14.6313L13.54 13.7319L13.54 15.5298L11.54 15.5298L11.54 13.7319L9.9834 14.6313L8.9834 12.8989L10.54 11.9995L8.9834 11.1011L9.9834 9.36963ZM1 9.36963L2.55664 10.2681L2.55664 8.47021L4.55664 8.47021L4.55664 10.2681L6.11328 9.36963L7.11328 11.1011L5.55664 11.9995L7.11328 12.8989L6.11328 14.6313L4.55664 13.7319L4.55664 15.5298L2.55664 15.5298L2.55664 13.7319L1 14.6313L-1.14997e-07 12.8989L1.55664 11.9995L-1.93585e-07 11.1011L1 9.36963Z" fill="black"/>
</svg>
