<svg width="24" height="24" viewBox="0 0 24 24" fill="none" xmlns="http://www.w3.org/2000/svg">
<path d="M5.8293 20H9.17071C9.58254 18.8348 10.6938 18 12 18C13.3062 18 14.4175 18.8348 14.8293 20H18.1707C18.5825 18.8348 19.6938 18 21 18C22.6569 18 24 19.3431 24 21C24 22.6569 22.6569 24 21 24C19.6938 24 18.5825 23.1652 18.1707 22H14.8293C14.4175 23.1652 13.3062 24 12 24C10.6938 24 9.58254 23.1652 9.17071 22H5.8293C5.41746 23.1652 4.30622 24 3 24C1.34315 24 8.59228e-07 22.6569 7.86805e-07 21C7.14381e-07 19.3431 1.34315 18 3 18C3.46316 18 3.9018 18.105 4.29344 18.2924L9.29238 13.2934C9.10496 12.9018 9 12.4632 9 12C9 10.3431 10.3431 9 12 9C12.4632 9 12.9018 9.10496 13.2934 9.29238L18.2924 4.29344C18.2469 4.19829 18.2062 4.10037 18.1707 4L14.8293 4C14.4175 5.16519 13.3062 6 12 6C10.6938 6 9.58254 5.16519 9.17071 4H5.8293C5.41746 5.16519 4.30622 6 3 6C1.34315 6 7.24234e-08 4.65686 0 3C-7.24234e-08 1.34315 1.34315 8.59228e-07 3 7.86805e-07C4.30622 7.29708e-07 5.41746 0.834809 5.8293 2L9.17071 2C9.58254 0.834809 10.6938 4.50499e-07 12 3.93403e-07C13.3062 3.36306e-07 14.4175 0.834809 14.8293 2H18.1707C18.5825 0.834809 19.6938 5.70966e-08 21 0C22.6569 -7.24234e-08 24 1.34315 24 3C24 4.65685 22.6569 6 21 6C20.5369 6 20.0982 5.89505 19.7066 5.70764L14.7076 10.7066C14.8951 11.0982 15 11.5369 15 12C15 13.6569 13.6569 15 12 15C11.5369 15 11.0982 14.8951 10.7066 14.7076L5.70764 19.7066C5.75317 19.8017 5.79383 19.8996 5.8293 20Z" fill="black"/>
<path d="M3 15C4.65686 15 6 13.6569 6 12C6 10.3431 4.65686 9 3 9C1.34315 9 3.20979e-07 10.3431 3.93402e-07 12C4.65826e-07 13.6569 1.34315 15 3 15Z" fill="black"/>
<path d="M21 15C22.6569 15 24 13.6569 24 12C24 10.3431 22.6569 9 21 9C19.3431 9 18 10.3431 18 12C18 13.6569 19.3431 15 21 15Z" fill="black"/>
</svg>
