<svg width="25" height="24" viewBox="0 0 25 24" fill="none" xmlns="http://www.w3.org/2000/svg">
<path d="M3.19104 8.46979C3.74332 8.46979 4.19104 8.9175 4.19104 9.46979V10.2678L4.88226 9.8687C5.36055 9.59256 5.97214 9.75644 6.24828 10.2347C6.52442 10.713 6.36055 11.3246 5.88226 11.6008L5.19103 11.9998L5.88226 12.3989C6.36055 12.6751 6.52442 13.2867 6.24828 13.7649C5.97214 14.2432 5.36055 14.4071 4.88226 14.131L4.19104 13.7319V14.5298C4.19104 15.0821 3.74332 15.5298 3.19104 15.5298C2.63875 15.5298 2.19104 15.0821 2.19104 14.5298V13.7319L1.50017 14.1308C1.02187 14.4069 0.410284 14.243 0.134142 13.7647C-0.142001 13.2864 0.0218743 12.6748 0.500167 12.3987L1.19103 11.9998L0.500167 11.601C0.0218743 11.3248 -0.142001 10.7132 0.134142 10.2349C0.410284 9.75665 1.02187 9.59278 1.50017 9.86892L2.19104 10.2678V9.46979C2.19104 8.9175 2.63875 8.46979 3.19104 8.46979Z" fill="black"/>
<path d="M12.1747 8.46979C12.727 8.46979 13.1747 8.9175 13.1747 9.46979V10.2678L13.8659 9.8687C14.3442 9.59256 14.9558 9.75644 15.232 10.2347C15.5081 10.713 15.3442 11.3246 14.8659 11.6008L14.1747 11.9998L14.8659 12.3989C15.3442 12.6751 15.5081 13.2867 15.232 13.7649C14.9558 14.2432 14.3442 14.4071 13.8659 14.131L13.1747 13.7319V14.5298C13.1747 15.0821 12.727 15.5298 12.1747 15.5298C11.6224 15.5298 11.1747 15.0821 11.1747 14.5298V13.7319L10.4839 14.1308C10.0056 14.4069 9.39398 14.243 9.11783 13.7647C8.84169 13.2864 9.00557 12.6748 9.48386 12.3987L10.1747 11.9998L9.48386 11.601C9.00557 11.3248 8.84169 10.7132 9.11783 10.2349C9.39398 9.75665 10.0056 9.59278 10.4839 9.86892L11.1747 10.2678V9.46979C11.1747 8.9175 11.6224 8.46979 12.1747 8.46979Z" fill="black"/>
<path d="M21.8646 9.46979C21.8646 8.9175 21.4169 8.46979 20.8646 8.46979C20.3123 8.46979 19.8646 8.9175 19.8646 9.46979V10.2678L19.1738 9.86892C18.6955 9.59278 18.0839 9.75665 17.8077 10.2349C17.5316 10.7132 17.6955 11.3248 18.1738 11.601L18.8646 11.9998L18.1738 12.3987C17.6955 12.6748 17.5316 13.2864 17.8077 13.7647C18.0839 14.243 18.6955 14.4069 19.1738 14.1308L19.8646 13.7319V14.5298C19.8646 15.0821 20.3123 15.5298 20.8646 15.5298C21.4169 15.5298 21.8646 15.0821 21.8646 14.5298V13.7319L22.5558 14.131C23.0341 14.4071 23.6457 14.2432 23.9219 13.7649C24.198 13.2867 24.0341 12.6751 23.5558 12.3989L22.8646 11.9998L23.5558 11.6008C24.0341 11.3246 24.198 10.713 23.9219 10.2347C23.6457 9.75644 23.0341 9.59256 22.5558 9.8687L21.8646 10.2678V9.46979Z" fill="black"/>
</svg>
