<svg width="24" height="24" viewBox="0 0 24 24" fill="none" xmlns="http://www.w3.org/2000/svg">
<path d="M6.80636 10.0004C6.80636 9.58619 6.47058 9.25041 6.05636 9.25041C5.64215 9.25041 5.30636 9.58619 5.30636 10.0004V10.7013L4.69943 10.3509C4.34071 10.1438 3.88202 10.2667 3.67491 10.6254C3.4678 10.9841 3.59071 11.4428 3.94943 11.6499L4.55648 12.0004L3.94943 12.3509C3.59071 12.558 3.4678 13.0167 3.67491 13.3754C3.88202 13.7341 4.34071 13.857 4.69943 13.6499L5.30636 13.2995V14.0004C5.30636 14.4146 5.64215 14.7504 6.05636 14.7504C6.47058 14.7504 6.80636 14.4146 6.80636 14.0004V13.2994L7.41353 13.6499C7.77225 13.857 8.23094 13.7341 8.43805 13.3754C8.64516 13.0167 8.52225 12.558 8.16353 12.3509L7.55648 12.0004L8.16353 11.6499C8.52225 11.4428 8.64516 10.9841 8.43805 10.6254C8.23094 10.2667 7.77225 10.1438 7.41353 10.3509L6.80636 10.7014V10.0004Z" fill="black"/>
<path d="M13.0385 10.0004C13.0385 9.58619 12.7028 9.25041 12.2885 9.25041C11.8743 9.25041 11.5385 9.58619 11.5385 10.0004V10.7013L10.9316 10.3509C10.5729 10.1438 10.1142 10.2667 9.90709 10.6254C9.69998 10.9841 9.82289 11.4428 10.1816 11.6499L10.7887 12.0004L10.1816 12.3509C9.82289 12.558 9.69998 13.0167 9.90709 13.3754C10.1142 13.7341 10.5729 13.857 10.9316 13.6499L11.5385 13.2995V14.0004C11.5385 14.4146 11.8743 14.7504 12.2885 14.7504C12.7028 14.7504 13.0385 14.4146 13.0385 14.0004V13.2994L13.6457 13.6499C14.0044 13.857 14.4631 13.7341 14.6702 13.3754C14.8773 13.0167 14.7544 12.558 14.3957 12.3509L13.7887 12.0004L14.3957 11.6499C14.7544 11.4428 14.8773 10.9841 14.6702 10.6254C14.4631 10.2667 14.0044 10.1438 13.6457 10.3509L13.0385 10.7014V10.0004Z" fill="black"/>
<path d="M18.2885 9.25041C18.7028 9.25041 19.0385 9.58619 19.0385 10.0004V10.7014L19.6457 10.3509C20.0044 10.1438 20.4631 10.2667 20.6702 10.6254C20.8773 10.9841 20.7544 11.4428 20.3957 11.6499L19.7887 12.0004L20.3957 12.3509C20.7544 12.558 20.8773 13.0167 20.6702 13.3754C20.4631 13.7341 20.0044 13.857 19.6457 13.6499L19.0385 13.2994V14.0004C19.0385 14.4146 18.7028 14.7504 18.2885 14.7504C17.8743 14.7504 17.5385 14.4146 17.5385 14.0004V13.2995L16.9316 13.6499C16.5729 13.857 16.1142 13.7341 15.9071 13.3754C15.7 13.0167 15.8229 12.558 16.1816 12.3509L16.7887 12.0004L16.1816 11.6499C15.8229 11.4428 15.7 10.9841 15.9071 10.6254C16.1142 10.2667 16.5729 10.1438 16.9316 10.3509L17.5385 10.7013V10.0004C17.5385 9.58619 17.8743 9.25041 18.2885 9.25041Z" fill="black"/>
<path fill-rule="evenodd" clip-rule="evenodd" d="M19.9167 4.75024L4.08333 4.75024C1.82817 4.75024 -9.85763e-08 6.57841 0 8.83358L2.76839e-07 15.1669C3.75415e-07 17.4221 1.82817 19.2502 4.08333 19.2502L19.9167 19.2502C22.1718 19.2502 24 17.4221 24 15.1669V8.83358C24 6.57841 22.1718 4.75024 19.9167 4.75024ZM2.5 8.83358C2.5 7.95913 3.20888 7.25024 4.08333 7.25024L19.9167 7.25024C20.7911 7.25024 21.5 7.95913 21.5 8.83358V15.1669C21.5 16.0414 20.7911 16.7502 19.9167 16.7502H4.08333C3.20888 16.7502 2.5 16.0414 2.5 15.1669V8.83358Z" fill="black"/>
</svg>
