<svg width="24" height="24" viewBox="0 0 24 24" fill="none" xmlns="http://www.w3.org/2000/svg">
<path d="M5.44999 20.5H9.55001C9.78164 19.3589 10.7905 18.5 12 18.5C13.2095 18.5 14.2184 19.3589 14.45 20.5H18.55C18.7816 19.3589 19.7905 18.5 21 18.5C22.3807 18.5 23.5 19.6193 23.5 21C23.5 22.3807 22.3807 23.5 21 23.5C19.7905 23.5 18.7816 22.6411 18.55 21.5H14.45C14.2184 22.6411 13.2095 23.5 12 23.5C10.7905 23.5 9.78164 22.6411 9.55001 21.5H5.44999C5.21836 22.6411 4.20948 23.5 3 23.5C1.61929 23.5 0.500001 22.3807 0.500001 21C0.500001 19.6193 1.61929 18.5 3 18.5C3.50955 18.5 3.9835 18.6524 4.37872 18.9142L9.91421 13.3787C9.65244 12.9835 9.5 12.5096 9.5 12C9.5 10.6193 10.6193 9.5 12 9.5C12.5096 9.5 12.9835 9.65244 13.3787 9.91421L18.9142 4.37872C18.7404 4.11631 18.6148 3.8192 18.55 3.5L14.45 3.5C14.2184 4.64112 13.2095 5.5 12 5.5C10.7905 5.5 9.78164 4.64112 9.55001 3.5L5.44999 3.5C5.21836 4.64112 4.20948 5.5 3 5.5C1.61929 5.5 0.5 4.38071 0.5 3C0.5 1.61929 1.61929 0.500001 3 0.500001C4.20948 0.500001 5.21836 1.35888 5.44999 2.5L9.55001 2.5C9.78164 1.35888 10.7905 0.5 12 0.5C13.2095 0.5 14.2184 1.35888 14.45 2.5L18.55 2.5C18.7816 1.35888 19.7905 0.5 21 0.5C22.3807 0.5 23.5 1.61929 23.5 3C23.5 4.38071 22.3807 5.5 21 5.5C20.4905 5.5 20.0165 5.34757 19.6213 5.08582L14.0858 10.6213C14.3476 11.0165 14.5 11.4905 14.5 12C14.5 13.3807 13.3807 14.5 12 14.5C11.4905 14.5 11.0165 14.3476 10.6213 14.0858L5.08582 19.6213C5.2596 19.8837 5.3852 20.1808 5.44999 20.5Z" fill="black"/>
<path d="M3 14.5C4.38071 14.5 5.5 13.3807 5.5 12C5.5 10.6193 4.38071 9.5 3 9.5C1.61929 9.5 0.5 10.6193 0.5 12C0.5 13.3807 1.61929 14.5 3 14.5Z" fill="black"/>
<path d="M21 14.5C22.3807 14.5 23.5 13.3807 23.5 12C23.5 10.6193 22.3807 9.5 21 9.5C19.6193 9.5 18.5 10.6193 18.5 12C18.5 13.3807 19.6193 14.5 21 14.5Z" fill="black"/>
</svg>
