<svg width="24" height="24" viewBox="0 0 24 24" fill="none" xmlns="http://www.w3.org/2000/svg">
<path fill-rule="evenodd" clip-rule="evenodd" d="M3.5 5.00024C1.84315 5.00024 0.5 6.34339 0.5 8.00024L0.5 16.0002C0.5 17.6571 1.84315 19.0002 3.5 19.0002L20.5 19.0002C22.1569 19.0002 23.5 17.6571 23.5 16.0002V8.00024C23.5 6.34339 22.1569 5.00024 20.5 5.00024L3.5 5.00024ZM6.13391 10.0002C6.13391 9.86217 6.02199 9.75025 5.88391 9.75025C5.74584 9.75025 5.63391 9.86217 5.63391 10.0002V11.5672L4.27698 10.7837C4.15741 10.7147 4.00451 10.7557 3.93547 10.8752C3.86644 10.9948 3.90741 11.1477 4.02698 11.2168L5.38403 12.0002L4.02698 12.7837C3.90741 12.8528 3.86644 13.0057 3.93547 13.1252C4.00451 13.2448 4.15741 13.2858 4.27698 13.2168L5.63391 12.4333L5.63392 14.0002C5.63392 14.1383 5.74584 14.2502 5.88392 14.2502C6.02199 14.2502 6.13392 14.1383 6.13392 14.0002L6.13391 12.4332L7.49108 13.2168C7.61066 13.2858 7.76355 13.2448 7.83259 13.1252C7.90162 13.0057 7.86066 12.8528 7.74108 12.7837L6.38403 12.0002L7.74108 11.2168C7.86066 11.1477 7.90162 10.9948 7.83259 10.8752C7.76355 10.7557 7.61066 10.7147 7.49108 10.7837L6.13391 11.5673V10.0002ZM12.3661 10.0002C12.3661 9.86217 12.2542 9.75024 12.1161 9.75024C11.978 9.75024 11.8661 9.86217 11.8661 10.0002V11.5672L10.5092 10.7837C10.3896 10.7147 10.2367 10.7557 10.1677 10.8752C10.0986 10.9948 10.1396 11.1477 10.2592 11.2168L11.6162 12.0002L10.2592 12.7837C10.1396 12.8528 10.0986 13.0057 10.1677 13.1252C10.2367 13.2448 10.3896 13.2858 10.5092 13.2168L11.8661 12.4333V14.0002C11.8661 14.1383 11.978 14.2502 12.1161 14.2502C12.2542 14.2502 12.3661 14.1383 12.3661 14.0002V12.4332L13.7233 13.2168C13.8428 13.2858 13.9957 13.2448 14.0648 13.1252C14.1338 13.0057 14.0928 12.8528 13.9733 12.7837L12.6162 12.0002L13.9733 11.2168C14.0928 11.1477 14.1338 10.9948 14.0648 10.8752C13.9957 10.7557 13.8428 10.7147 13.7233 10.7837L12.3661 11.5673V10.0002ZM18.1161 9.75025C18.2542 9.75025 18.3661 9.86217 18.3661 10.0002V11.5673L19.7233 10.7837C19.8428 10.7147 19.9957 10.7557 20.0648 10.8752C20.1338 10.9948 20.0928 11.1477 19.9733 11.2168L18.6162 12.0002L19.9733 12.7837C20.0928 12.8528 20.1338 13.0057 20.0648 13.1252C19.9957 13.2448 19.8428 13.2858 19.7233 13.2168L18.3661 12.4332V14.0002C18.3661 14.1383 18.2542 14.2502 18.1161 14.2502C17.978 14.2502 17.8661 14.1383 17.8661 14.0002V12.4333L16.5092 13.2168C16.3896 13.2858 16.2367 13.2448 16.1677 13.1252C16.0986 13.0057 16.1396 12.8528 16.2592 12.7837L17.6162 12.0002L16.2592 11.2168C16.1396 11.1477 16.0986 10.9948 16.1677 10.8752C16.2367 10.7557 16.3896 10.7147 16.5092 10.7837L17.8661 11.5672V10.0002C17.8661 9.86217 17.978 9.75025 18.1161 9.75025Z" fill="black"/>
</svg>
