<svg width="24" height="24" viewBox="0 0 24 24" fill="none" xmlns="http://www.w3.org/2000/svg">
<path d="M3.16306 9.19482C3.31494 9.19482 3.43806 9.31795 3.43806 9.46982V11.5236L5.21678 10.4966C5.34831 10.4207 5.5165 10.4657 5.59243 10.5973C5.66837 10.7288 5.62331 10.897 5.49178 10.9729L3.71305 11.9999L5.49178 13.0268C5.62331 13.1028 5.66837 13.271 5.59244 13.4025C5.5165 13.534 5.34831 13.5791 5.21678 13.5031L3.43806 12.4762V14.5298C3.43806 14.6817 3.31494 14.8048 3.16306 14.8048C3.01118 14.8048 2.88806 14.6817 2.88806 14.5298V12.4762L1.10969 13.5029C0.978159 13.5789 0.809972 13.5338 0.734033 13.4023C0.658093 13.2707 0.703159 13.1025 0.834689 13.0266L2.61305 11.9999L0.834689 10.9731C0.703159 10.8972 0.658093 10.729 0.734032 10.5975C0.809972 10.466 0.978159 10.4209 1.10969 10.4968L2.88806 11.5236V9.46982C2.88806 9.31795 3.01118 9.19482 3.16306 9.19482Z" fill="black"/>
<path d="M12.1467 9.19482C12.2985 9.19482 12.4217 9.31795 12.4217 9.46982V11.5236L14.2004 10.4966C14.332 10.4207 14.5001 10.4657 14.5761 10.5973C14.652 10.7288 14.607 10.897 14.4754 10.9729L12.6967 11.9999L14.4754 13.0268C14.607 13.1028 14.652 13.271 14.5761 13.4025C14.5001 13.534 14.332 13.5791 14.2004 13.5031L12.4217 12.4762V14.5298C12.4217 14.6817 12.2985 14.8048 12.1467 14.8048C11.9948 14.8048 11.8717 14.6817 11.8717 14.5298V12.4762L10.0933 13.5029C9.9618 13.5789 9.79361 13.5338 9.71768 13.4023C9.64174 13.2707 9.6868 13.1025 9.81833 13.0266L11.5967 11.9999L9.81833 10.9731C9.6868 10.8972 9.64174 10.729 9.71768 10.5975C9.79361 10.466 9.9618 10.4209 10.0933 10.4968L11.8717 11.5235V9.46982C11.8717 9.31795 11.9948 9.19482 12.1467 9.19482Z" fill="black"/>
<path d="M21.1116 9.46982C21.1116 9.31795 20.9885 9.19482 20.8366 9.19482C20.6848 9.19482 20.5616 9.31795 20.5616 9.46982V11.5236L18.7833 10.4968C18.6517 10.4209 18.4836 10.466 18.4076 10.5975C18.3317 10.729 18.3767 10.8972 18.5083 10.9731L20.2866 11.9999L18.5083 13.0266C18.3767 13.1025 18.3317 13.2707 18.4076 13.4023C18.4836 13.5338 18.6517 13.5789 18.7833 13.5029L20.5616 12.4762V14.5298C20.5616 14.6817 20.6848 14.8048 20.8366 14.8048C20.9885 14.8048 21.1116 14.6817 21.1116 14.5298V12.4762L22.8904 13.5031C23.0219 13.5791 23.1901 13.534 23.266 13.4025C23.342 13.271 23.2969 13.1028 23.1654 13.0268L21.3866 11.9999L23.1654 10.9729C23.2969 10.897 23.342 10.7288 23.266 10.5973C23.1901 10.4657 23.0219 10.4207 22.8904 10.4966L21.1116 11.5236V9.46982Z" fill="black"/>
</svg>
