<svg width="24" height="24" viewBox="0 0 24 24" fill="none" xmlns="http://www.w3.org/2000/svg">
<path d="M4.98453 20.75H10.0155C10.1385 19.7634 10.9801 19 12 19C13.0199 19 13.8615 19.7634 13.9845 20.75H19.0155C19.1385 19.7634 19.9801 19 21 19C22.1046 19 23 19.8954 23 21C23 22.1046 22.1046 23 21 23C19.9801 23 19.1385 22.2366 19.0155 21.25H13.9845C13.8615 22.2366 13.0199 23 12 23C10.9801 23 10.1385 22.2366 10.0155 21.25H4.98453C4.8615 22.2366 4.01991 23 3 23C1.89543 23 1 22.1046 1 21C1 19.8954 1.89543 19 3 19C3.46219 19 3.88776 19.1568 4.22643 19.4201L10.4201 13.2264C10.1568 12.8878 10 12.4622 10 12C10 10.8954 10.8954 10 12 10C12.4622 10 12.8878 10.1568 13.2264 10.4201L19.4201 4.22643C19.205 3.9498 19.061 3.61519 19.0155 3.25L13.9845 3.25C13.8615 4.23658 13.0199 5 12 5C10.9801 5 10.1385 4.23658 10.0155 3.25L4.98453 3.25C4.8615 4.23658 4.0199 5 3 5C1.89543 5 1 4.10457 1 3C1 1.89543 1.89543 1 3 1C4.0199 1 4.8615 1.76342 4.98453 2.75L10.0155 2.75C10.1385 1.76342 10.9801 1 12 1C13.0199 1 13.8615 1.76342 13.9845 2.75L19.0155 2.75C19.1385 1.76342 19.9801 1 21 1C22.1046 1 23 1.89543 23 3C23 4.10457 22.1046 5 21 5C20.5378 5 20.1123 4.84324 19.7736 4.57998L13.58 10.7736C13.8432 11.1123 14 11.5378 14 12C14 13.1046 13.1046 14 12 14C11.5378 14 11.1123 13.8432 10.7736 13.58L4.57998 19.7736C4.79501 20.0502 4.93899 20.3848 4.98453 20.75Z" fill="black"/>
<path d="M3 14C4.10457 14 5 13.1046 5 12C5 10.8954 4.10457 10 3 10C1.89543 10 1 10.8954 1 12C1 13.1046 1.89543 14 3 14Z" fill="black"/>
<path d="M21 14C22.1046 14 23 13.1046 23 12C23 10.8954 22.1046 10 21 10C19.8954 10 19 10.8954 19 12C19 13.1046 19.8954 14 21 14Z" fill="black"/>
</svg>
