<svg width="24" height="24" viewBox="0 0 24 24" fill="none" xmlns="http://www.w3.org/2000/svg">
<path d="M4.98766 20.375H9.04534C9.28047 19.0949 10.402 18.125 11.75 18.125C13.098 18.125 14.2195 19.0949 14.4547 20.375H18.0453C18.2805 19.0949 19.402 18.125 20.75 18.125C22.2688 18.125 23.5 19.3562 23.5 20.875C23.5 22.3938 22.2688 23.625 20.75 23.625C19.584 23.625 18.5875 22.8993 18.1875 21.875H14.3125C13.9125 22.8993 12.916 23.625 11.75 23.625C10.584 23.625 9.58751 22.8993 9.18747 21.875H4.66554C4.23328 22.6223 3.42535 23.125 2.5 23.125C1.11929 23.125 4.42827e-07 22.0057 3.82475e-07 20.625C3.22122e-07 19.2443 1.11929 18.125 2.5 18.125C3.17494 18.125 3.78741 18.3925 4.2372 18.8272L9.54534 13.519C9.20281 13.0605 9 12.4914 9 11.875C9 10.3562 10.2312 9.125 11.75 9.125C12.3664 9.125 12.9355 9.32781 13.394 9.67034L18.5985 4.46589C18.4951 4.28104 18.4124 4.08303 18.3535 3.875L14.6465 3.875C14.32 5.02925 13.2588 5.875 12 5.875C10.7412 5.875 9.67998 5.02925 9.35352 3.875L5.64648 3.875C5.32002 5.02925 4.25878 5.875 3 5.875C1.48122 5.875 0.249999 4.64378 0.249999 3.125C0.249999 1.60622 1.48122 0.375001 3 0.375001C4.25878 0.375001 5.32002 1.22075 5.64648 2.375L9.35352 2.375C9.67998 1.22075 10.7412 0.375 12 0.375C13.2588 0.375 14.32 1.22075 14.6465 2.375L18.3535 2.375C18.68 1.22075 19.7412 0.375 21 0.375C22.5188 0.375 23.75 1.60622 23.75 3.125C23.75 4.64378 22.5188 5.875 21 5.875C20.5131 5.875 20.0558 5.74849 19.6592 5.52654L14.312 10.8737C14.4334 11.184 14.5 11.5217 14.5 11.875C14.5 13.3938 13.2688 14.625 11.75 14.625C11.3967 14.625 11.059 14.5584 10.7487 14.437L4.96713 20.2186C4.97557 20.2702 4.98243 20.3224 4.98766 20.375Z" fill="black"/>
<path d="M2.75 14.625C4.26878 14.625 5.5 13.3938 5.5 11.875C5.5 10.3562 4.26878 9.125 2.75 9.125C1.23122 9.125 -6.63881e-08 10.3562 0 11.875C6.63881e-08 13.3938 1.23122 14.625 2.75 14.625Z" fill="black"/>
<path d="M20.75 14.625C22.2688 14.625 23.5 13.3938 23.5 11.875C23.5 10.3562 22.2688 9.125 20.75 9.125C19.2312 9.125 18 10.3562 18 11.875C18 13.3938 19.2312 14.625 20.75 14.625Z" fill="black"/>
</svg>
