<svg width="24" height="24" viewBox="0 0 24 24" fill="none" xmlns="http://www.w3.org/2000/svg">
<path fill-rule="evenodd" clip-rule="evenodd" d="M5.90549 21.75C5.57246 23.0439 4.39788 24 3 24C1.34315 24 8.59228e-07 22.6569 7.86805e-07 21C7.14382e-07 19.3431 1.34315 18 3 18C3.55637 18 4.07736 18.1515 4.524 18.4154L9.41538 13.524C9.15145 13.0774 9 12.5564 9 12C9 10.3431 10.3431 9 12 9C12.5564 9 13.0774 9.15145 13.524 9.41538L18.4154 4.524C18.2743 4.28526 18.1654 4.02528 18.0945 3.75H14.9055C14.5725 5.04392 13.3979 6 12 6C10.6021 6 9.42755 5.04392 9.09451 3.75L5.90549 3.75C5.57246 5.04392 4.39788 6 3 6C1.34315 6 7.24234e-08 4.65686 0 3C-7.24234e-08 1.34315 1.34315 8.59228e-07 3 7.86805e-07C4.39788 7.25702e-07 5.57246 0.95608 5.90549 2.25L9.09451 2.25C9.42754 0.956076 10.6021 4.54506e-07 12 3.93403e-07C13.3979 3.323e-07 14.5725 0.95608 14.9055 2.25H18.0945C18.4275 0.95608 19.6021 6.11033e-08 21 0C22.6569 1.83493e-06 24 1.34315 24 3C24 4.65685 22.6569 6 21 6C20.4437 6 19.9227 5.84856 19.476 5.58465L14.5847 10.476C14.8486 10.9227 15 11.4437 15 12C15 13.6569 13.6569 15 12 15C11.4437 15 10.9227 14.8486 10.4761 14.5847L5.58465 19.476C5.72571 19.7148 5.83464 19.9747 5.90549 20.25H9.09451C9.09451 20.25 9.09451 20.25 9.09451 20.25C9.42754 18.9561 10.6021 18 12 18C13.398 18 14.5726 18.9562 14.9056 20.2503C14.9055 20.2502 14.9056 20.2503 14.9056 20.2503L18.0945 20.25C18.4275 18.9561 19.6021 18 21 18C22.6569 18 24 19.3431 24 21C24 22.6569 22.6569 24 21 24C19.6021 24 18.4275 23.0439 18.0945 21.75H14.9055C14.5725 23.0439 13.3979 24 12 24C10.6021 24 9.42755 23.0439 9.09451 21.75H5.90549ZM4.5 21C4.5 21.8284 3.82843 22.5 3 22.5C2.17157 22.5 1.5 21.8284 1.5 21C1.5 20.1716 2.17157 19.5 3 19.5C3.82843 19.5 4.5 20.1716 4.5 21ZM13.5 21C13.5 21.8284 12.8284 22.5 12 22.5C11.1716 22.5 10.5 21.8284 10.5 21C10.5 20.1716 11.1716 19.5 12 19.5C12.8284 19.5 13.5 20.1716 13.5 21ZM21 22.5C21.8284 22.5 22.5 21.8284 22.5 21C22.5 20.1716 21.8284 19.5 21 19.5C20.1716 19.5 19.5 20.1716 19.5 21C19.5 21.8284 20.1716 22.5 21 22.5ZM12 13.5C12.8284 13.5 13.5 12.8284 13.5 12C13.5 11.1716 12.8284 10.5 12 10.5C11.1716 10.5 10.5 11.1716 10.5 12C10.5 12.8284 11.1716 13.5 12 13.5ZM3 4.5C3.82843 4.5 4.5 3.82843 4.5 3C4.5 2.17157 3.82843 1.5 3 1.5C2.17157 1.5 1.5 2.17157 1.5 3C1.5 3.82843 2.17157 4.5 3 4.5ZM13.5 3C13.5 3.82843 12.8284 4.5 12 4.5C11.1716 4.5 10.5 3.82843 10.5 3C10.5 2.17157 11.1716 1.5 12 1.5C12.8284 1.5 13.5 2.17157 13.5 3ZM21 4.5C21.8284 4.5 22.5 3.82843 22.5 3C22.5 2.17157 21.8284 1.5 21 1.5C20.1716 1.5 19.5 2.17157 19.5 3C19.5 3.82843 20.1716 4.5 21 4.5Z" fill="black"/>
<path fill-rule="evenodd" clip-rule="evenodd" d="M6 12C6 13.6569 4.65686 15 3 15C1.34315 15 4.65826e-07 13.6569 3.93403e-07 12C3.20979e-07 10.3431 1.34315 9 3 9C4.65685 9 6 10.3431 6 12ZM4.5 12C4.5 12.8284 3.82843 13.5 3 13.5C2.17157 13.5 1.5 12.8284 1.5 12C1.5 11.1716 2.17157 10.5 3 10.5C3.82843 10.5 4.5 11.1716 4.5 12Z" fill="black"/>
<path fill-rule="evenodd" clip-rule="evenodd" d="M24 12C24 13.6569 22.6569 15 21 15C19.3431 15 18 13.6569 18 12C18 10.3431 19.3431 9 21 9C22.6569 9 24 10.3431 24 12ZM22.5 12C22.5 12.8284 21.8284 13.5 21 13.5C20.1716 13.5 19.5 12.8284 19.5 12C19.5 11.1716 20.1716 10.5 21 10.5C21.8284 10.5 22.5 11.1716 22.5 12Z" fill="black"/>
</svg>
