<svg width="24" height="24" viewBox="0 0 24 24" fill="none" xmlns="http://www.w3.org/2000/svg">
<path d="M3.16318 9.19501C3.31506 9.19501 3.43818 9.31813 3.43818 9.47001V11.5237L5.2169 10.4968C5.34843 10.4209 5.51662 10.4659 5.59256 10.5974C5.6685 10.729 5.62343 10.8972 5.4919 10.9731L3.71317 12.0001L5.4919 13.027C5.62343 13.1029 5.6685 13.2711 5.59256 13.4027C5.51662 13.5342 5.34843 13.5793 5.2169 13.5033L3.43818 12.4764V14.53C3.43818 14.6819 3.31506 14.805 3.16318 14.805C3.0113 14.805 2.88818 14.6819 2.88818 14.53V12.4764L1.10981 13.5031C0.978281 13.579 0.810094 13.534 0.734155 13.4024C0.658215 13.2709 0.703281 13.1027 0.834812 13.0268L2.61317 12.0001L0.834812 10.9733C0.703281 10.8974 0.658215 10.7292 0.734155 10.5977C0.810094 10.4661 0.978281 10.4211 1.10981 10.497L2.88818 11.5237V9.47001C2.88818 9.31813 3.0113 9.19501 3.16318 9.19501Z" fill="black"/>
<path d="M12.1468 9.19501C12.2987 9.19501 12.4218 9.31813 12.4218 9.47001V11.5238L14.2005 10.4968C14.3321 10.4209 14.5003 10.4659 14.5762 10.5974C14.6521 10.729 14.6071 10.8972 14.4755 10.9731L12.6968 12.0001L14.4755 13.027C14.6071 13.1029 14.6521 13.2711 14.5762 13.4027C14.5003 13.5342 14.3321 13.5793 14.2005 13.5033L12.4218 12.4763V14.53C12.4218 14.6819 12.2987 14.805 12.1468 14.805C11.9949 14.805 11.8718 14.6819 11.8718 14.53V12.4764L10.0935 13.5031C9.96192 13.579 9.79374 13.534 9.7178 13.4024C9.64186 13.2709 9.68692 13.1027 9.81845 13.0268L11.5968 12.0001L9.81845 10.9733C9.68692 10.8974 9.64186 10.7292 9.7178 10.5977C9.79374 10.4661 9.96192 10.4211 10.0935 10.497L11.8718 11.5237V9.47001C11.8718 9.31813 11.9949 9.19501 12.1468 9.19501Z" fill="black"/>
<path d="M21.1118 9.47001C21.1118 9.31813 20.9886 9.19501 20.8368 9.19501C20.6849 9.19501 20.5618 9.31813 20.5618 9.47001V11.5237L18.7834 10.497C18.6519 10.4211 18.4837 10.4661 18.4077 10.5977C18.3318 10.7292 18.3769 10.8974 18.5084 10.9733L20.2868 12.0001L18.5084 13.0268C18.3769 13.1027 18.3318 13.2709 18.4077 13.4024C18.4837 13.534 18.6519 13.579 18.7834 13.5031L20.5618 12.4764V14.53C20.5618 14.6819 20.6849 14.805 20.8368 14.805C20.9886 14.805 21.1118 14.6819 21.1118 14.53V12.4764L22.8905 13.5033C23.022 13.5793 23.1902 13.5342 23.2661 13.4027C23.3421 13.2711 23.297 13.1029 23.1655 13.027L21.3868 12.0001L23.1655 10.9731C23.297 10.8972 23.3421 10.729 23.2661 10.5974C23.1902 10.4659 23.022 10.4209 22.8905 10.4968L21.1118 11.5237V9.47001Z" fill="black"/>
</svg>
