<svg width="24" height="24" viewBox="0 0 24 24" fill="none" xmlns="http://www.w3.org/2000/svg">
<path d="M3.16263 8.96979C3.43878 8.96979 3.66263 9.19365 3.66263 9.46979V11.1338L5.10385 10.3017C5.343 10.1636 5.64879 10.2456 5.78686 10.4847C5.92494 10.7239 5.843 11.0297 5.60385 11.1677L4.16262 11.9998L5.60385 12.8319C5.843 12.97 5.92494 13.2758 5.78686 13.5149C5.64879 13.7541 5.343 13.836 5.10385 13.698L3.66263 12.8659V14.5298C3.66263 14.8059 3.43878 15.0298 3.16263 15.0298C2.88649 15.0298 2.66263 14.8059 2.66263 14.5298V12.8659L1.22176 13.6977C0.982617 13.8358 0.676822 13.7539 0.53875 13.5147C0.400679 13.2756 0.482617 12.9698 0.721763 12.8317L2.16262 11.9998L0.721763 11.168C0.482617 11.0299 0.400679 10.7241 0.53875 10.4849C0.676822 10.2458 0.982617 10.1639 1.22176 10.3019L2.66263 11.1338V9.46979C2.66263 9.19365 2.88649 8.96979 3.16263 8.96979Z" fill="black"/>
<path d="M12.1463 8.96979C12.4224 8.96979 12.6463 9.19365 12.6463 9.46979V11.1338L14.0875 10.3017C14.3267 10.1636 14.6325 10.2456 14.7706 10.4847C14.9086 10.7239 14.8267 11.0297 14.5875 11.1677L13.1463 11.9998L14.5875 12.8319C14.8267 12.97 14.9086 13.2758 14.7706 13.5149C14.6325 13.7541 14.3267 13.836 14.0875 13.698L12.6463 12.8658V14.5298C12.6463 14.8059 12.4224 15.0298 12.1463 15.0298C11.8701 15.0298 11.6463 14.8059 11.6463 14.5298V12.8659L10.2055 13.6977C9.96631 13.8358 9.66051 13.7539 9.52244 13.5147C9.38437 13.2756 9.46631 12.9698 9.70545 12.8317L11.1463 11.9998L9.70545 11.168C9.46631 11.0299 9.38437 10.7241 9.52244 10.4849C9.66051 10.2458 9.96631 10.1639 10.2055 10.3019L11.6463 11.1338V9.46979C11.6463 9.19365 11.8701 8.96979 12.1463 8.96979Z" fill="black"/>
<path d="M21.3362 9.46979C21.3362 9.19365 21.1124 8.96979 20.8362 8.96979C20.5601 8.96979 20.3362 9.19365 20.3362 9.46979V11.1338L18.8953 10.3019C18.6562 10.1639 18.3504 10.2458 18.2123 10.4849C18.0743 10.7241 18.1562 11.0299 18.3953 11.168L19.8362 11.9998L18.3953 12.8317C18.1562 12.9698 18.0743 13.2756 18.2123 13.5147C18.3504 13.7539 18.6562 13.8358 18.8953 13.6977L20.3362 12.8659V14.5298C20.3362 14.8059 20.5601 15.0298 20.8362 15.0298C21.1124 15.0298 21.3362 14.8059 21.3362 14.5298V12.8659L22.7774 13.698C23.0166 13.836 23.3224 13.7541 23.4604 13.5149C23.5985 13.2758 23.5166 12.97 23.2774 12.8319L21.8362 11.9998L23.2774 11.1677C23.5166 11.0297 23.5985 10.7239 23.4604 10.4847C23.3224 10.2456 23.0166 10.1636 22.7774 10.3017L21.3362 11.1338V9.46979Z" fill="black"/>
</svg>
