<svg width="24" height="24" viewBox="0 0 24 24" fill="none" xmlns="http://www.w3.org/2000/svg">
<path d="M3.163 8.96973C3.43914 8.96973 3.663 9.19358 3.663 9.46973V11.1337L5.10422 10.3017C5.34336 10.1636 5.64916 10.2455 5.78723 10.4847C5.9253 10.7238 5.84336 11.0296 5.60422 11.1677L4.16299 11.9998L5.60422 12.8319C5.84336 12.9699 5.9253 13.2757 5.78723 13.5149C5.64916 13.754 5.34336 13.836 5.10422 13.6979L3.663 12.8658V14.5297C3.663 14.8059 3.43914 15.0297 3.163 15.0297C2.88686 15.0297 2.663 14.8059 2.663 14.5297V12.8658L1.22213 13.6977C0.982983 13.8358 0.677188 13.7538 0.539117 13.5147C0.401046 13.2755 0.482983 12.9697 0.722129 12.8317L2.16299 11.9998L0.722129 11.1679C0.482983 11.0298 0.401045 10.724 0.539117 10.4849C0.677188 10.2457 0.982983 10.1638 1.22213 10.3019L2.663 11.1338V9.46973C2.663 9.19358 2.88686 8.96973 3.163 8.96973Z" fill="black"/>
<path d="M12.1466 8.96973C12.4228 8.96973 12.6466 9.19358 12.6466 9.46973V11.1338L14.0879 10.3017C14.3271 10.1636 14.6329 10.2455 14.7709 10.4847C14.909 10.7238 14.8271 11.0296 14.5879 11.1677L13.1467 11.9998L14.5879 12.8319C14.8271 12.9699 14.909 13.2757 14.7709 13.5149C14.6329 13.754 14.3271 13.836 14.0879 13.6979L12.6466 12.8658V14.5297C12.6466 14.8059 12.4228 15.0297 12.1466 15.0297C11.8705 15.0297 11.6466 14.8059 11.6466 14.5297V12.8658L10.2058 13.6977C9.96667 13.8358 9.66088 13.7538 9.52281 13.5147C9.38474 13.2755 9.46667 12.9697 9.70582 12.8317L11.1467 11.9998L9.70582 11.1679C9.46667 11.0298 9.38474 10.724 9.52281 10.4849C9.66088 10.2457 9.96667 10.1638 10.2058 10.3019L11.6466 11.1337V9.46973C11.6466 9.19358 11.8705 8.96973 12.1466 8.96973Z" fill="black"/>
<path d="M21.3366 9.46973C21.3366 9.19358 21.1127 8.96973 20.8366 8.96973C20.5604 8.96973 20.3366 9.19358 20.3366 9.46973V11.1338L18.8957 10.3019C18.6566 10.1638 18.3508 10.2457 18.2127 10.4849C18.0746 10.724 18.1566 11.0298 18.3957 11.1679L19.8366 11.9998L18.3957 12.8317C18.1566 12.9697 18.0746 13.2755 18.2127 13.5147C18.3508 13.7538 18.6566 13.8358 18.8957 13.6977L20.3366 12.8658V14.5297C20.3366 14.8059 20.5604 15.0297 20.8366 15.0297C21.1127 15.0297 21.3366 14.8059 21.3366 14.5297V12.8658L22.7778 13.6979C23.0169 13.836 23.3227 13.754 23.4608 13.5149C23.5989 13.2757 23.5169 12.9699 23.2778 12.8319L21.8366 11.9998L23.2778 11.1677C23.5169 11.0296 23.5989 10.7238 23.4608 10.4847C23.3227 10.2455 23.0169 10.1636 22.7778 10.3017L21.3366 11.1337V9.46973Z" fill="black"/>
</svg>
