<svg width="24" height="24" viewBox="0 0 24 24" fill="none" xmlns="http://www.w3.org/2000/svg">
<path d="M18.5547 10.394L20.5869 11.5669L20.5869 9.22021L21.0869 9.22021L21.0869 11.5669L23.1191 10.394L23.3691 10.8267L21.3369 11.9995L23.3691 13.1733L23.1191 13.6069L21.0869 12.4331L21.0869 14.7798L20.5869 14.7798L20.5869 12.4331L18.5547 13.6069L18.3047 13.1733L20.3369 11.9995L18.3047 10.8267L18.5547 10.394ZM9.86426 10.394L11.8965 11.5669L11.8965 9.22021L12.3965 9.22021L12.3965 11.5669L14.4287 10.394L14.6787 10.8267L12.6465 11.9995L14.6787 13.1733L14.4287 13.6069L12.3965 12.4331L12.3965 14.7798L11.8965 14.7798L11.8965 12.4331L9.86426 13.6069L9.61426 13.1733L11.6465 11.9995L9.61426 10.8267L9.86426 10.394ZM0.880859 10.394L2.91309 11.5669L2.91309 9.22021L3.41309 9.22021L3.41309 11.5669L5.44531 10.394L5.69531 10.8267L3.66309 11.9995L5.69531 13.1733L5.44531 13.6069L3.41309 12.4331L3.41309 14.7798L2.91309 14.7798L2.91309 12.4331L0.880859 13.6069L0.630859 13.1733L2.66309 11.9995L0.630859 10.8267L0.880859 10.394Z" fill="black"/>
</svg>
