<svg width="24" height="24" viewBox="0 0 24 24" fill="none" xmlns="http://www.w3.org/2000/svg">
<path fill-rule="evenodd" clip-rule="evenodd" d="M5.95852 21.5C5.72048 22.9189 4.4865 24 3 24C1.34315 24 8.59228e-07 22.6569 7.86805e-07 21C7.14382e-07 19.3431 1.34315 18 3 18C3.64793 18 4.24788 18.2054 4.73829 18.5546L9.55464 13.7383C9.2054 13.2479 9 12.6479 9 12C9 10.3431 10.3431 9 12 9C12.6479 9 13.2479 9.2054 13.7383 9.55464L18.5546 4.73829C18.2972 4.37682 18.118 3.95584 18.0415 3.5H14.9585C14.7205 4.91886 13.4865 6 12 6C10.5135 6 9.27952 4.91886 9.04148 3.5L5.95852 3.5C5.72048 4.91886 4.4865 6 3 6C1.34315 6 7.24234e-08 4.65686 0 3C-7.24234e-08 1.34315 1.34315 8.59228e-07 3 7.86805e-07C4.4865 7.21828e-07 5.72048 1.08114 5.95852 2.5L9.04148 2.5C9.27952 1.08114 10.5135 4.58381e-07 12 3.93404e-07C13.4865 3.28427e-07 14.7205 1.08114 14.9585 2.5H18.0415C18.2795 1.08114 19.5135 6.49769e-08 21 0C22.6569 1.83493e-06 24 1.34315 24 3C24 4.65685 22.6569 6 21 6C20.3521 6 19.7522 5.79461 19.2618 5.44539L14.4454 10.2618C14.7946 10.7522 15 11.3521 15 12C15 13.6569 13.6569 15 12 15C11.3521 15 10.7522 14.7946 10.2618 14.4454L5.44539 19.2618C5.70279 19.6232 5.88205 20.0442 5.95852 20.5H9.04148C9.27952 19.0811 10.5135 18 12 18C13.4886 18 14.7239 19.0842 14.9595 20.506C14.9592 20.504 14.9589 20.502 14.9585 20.5H18.0415C18.2795 19.0811 19.5135 18 21 18C22.6569 18 24 19.3431 24 21C24 22.6569 22.6569 24 21 24C19.5135 24 18.2795 22.9189 18.0415 21.5H14.9585C14.7205 22.9189 13.4865 24 12 24C10.5135 24 9.27952 22.9189 9.04148 21.5H5.95852ZM5 21C5 22.1046 4.10457 23 3 23C1.89543 23 1 22.1046 1 21C1 19.8954 1.89543 19 3 19C4.10457 19 5 19.8954 5 21ZM14 21C14 22.1046 13.1046 23 12 23C10.8954 23 10 22.1046 10 21C10 19.8954 10.8954 19 12 19C13.1046 19 14 19.8954 14 21ZM21 23C22.1046 23 23 22.1046 23 21C23 19.8954 22.1046 19 21 19C19.8954 19 19 19.8954 19 21C19 22.1046 19.8954 23 21 23ZM12 14C13.1046 14 14 13.1046 14 12C14 10.8954 13.1046 10 12 10C10.8954 10 10 10.8954 10 12C10 13.1046 10.8954 14 12 14ZM3 5C4.10457 5 5 4.10457 5 3C5 1.89543 4.10457 1 3 1C1.89543 1 1 1.89543 1 3C1 4.10457 1.89543 5 3 5ZM14 3C14 4.10457 13.1046 5 12 5C10.8954 5 10 4.10457 10 3C10 1.89543 10.8954 1 12 1C13.1046 1 14 1.89543 14 3ZM21 5C22.1046 5 23 4.10457 23 3C23 1.89543 22.1046 1 21 1C19.8954 1 19 1.89543 19 3C19 4.10457 19.8954 5 21 5Z" fill="black"/>
<path fill-rule="evenodd" clip-rule="evenodd" d="M6 12C6 13.6569 4.65686 15 3 15C1.34315 15 4.65826e-07 13.6569 3.93403e-07 12C3.20979e-07 10.3431 1.34315 9 3 9C4.65685 9 6 10.3431 6 12ZM5 12C5 13.1046 4.10457 14 3 14C1.89543 14 1 13.1046 1 12C1 10.8954 1.89543 10 3 10C4.10457 10 5 10.8954 5 12Z" fill="black"/>
<path fill-rule="evenodd" clip-rule="evenodd" d="M24 12C24 13.6569 22.6569 15 21 15C19.3431 15 18 13.6569 18 12C18 10.3431 19.3431 9 21 9C22.6569 9 24 10.3431 24 12ZM23 12C23 13.1046 22.1046 14 21 14C19.8954 14 19 13.1046 19 12C19 10.8954 19.8954 10 21 10C22.1046 10 23 10.8954 23 12Z" fill="black"/>
</svg>
