<svg width="26" height="24" viewBox="0 0 26 24" fill="none" xmlns="http://www.w3.org/2000/svg">
<path fill-rule="evenodd" clip-rule="evenodd" d="M5.16298 8.46978L5.16298 9.46978L5.16298 10.2678L5.85419 9.8687L6.72022 9.3687L7.72022 11.1007L6.85419 11.6007L6.16296 11.9998L6.85419 12.3989L7.72022 12.8989L6.72022 14.631L5.85419 14.131L5.16298 13.7319L5.16298 14.5298L5.16298 15.5298L3.16298 15.5298L3.16298 14.5298L3.16298 13.7319L2.47211 14.1307L1.60608 14.6307L0.60608 12.8987L1.47211 12.3987L2.16296 11.9998L1.47211 11.601L0.60608 11.101L1.60608 9.36891L2.47211 9.86891L3.16298 10.2678L3.16298 9.46978L3.16298 8.46978L5.16298 8.46978ZM14.1466 8.46978L14.1466 9.46978L14.1466 10.2678L14.8379 9.8687L15.7039 9.3687L16.7039 11.1007L15.8379 11.6007L15.1467 11.9998L15.8379 12.3989L16.7039 12.8989L15.7039 14.631L14.8379 14.131L14.1466 13.7319L14.1466 14.5298L14.1466 15.5298L12.1466 15.5298L12.1466 14.5298L12.1466 13.7319L11.4558 14.1307L10.5898 14.6307L9.58977 12.8987L10.4558 12.3987L11.1467 11.9998L10.4558 11.601L9.58977 11.101L10.5898 9.36891L11.4558 9.86891L12.1466 10.2678L12.1466 9.46978L12.1466 8.46978L14.1466 8.46978ZM22.8366 9.46978L22.8366 8.46978L20.8366 8.46978L20.8366 9.46978L20.8366 10.2678L20.1457 9.86891L19.2797 9.36891L18.2797 11.101L19.1457 11.601L19.8365 11.9998L19.1457 12.3987L18.2797 12.8987L19.2797 14.6307L20.1457 14.1307L20.8366 13.7319L20.8366 14.5298L20.8366 15.5298L22.8366 15.5298L22.8366 14.5298L22.8366 13.7319L23.5278 14.131L24.3938 14.631L25.3938 12.8989L24.5278 12.3989L23.8365 11.9998L24.5278 11.6007L25.3938 11.1007L24.3938 9.3687L23.5278 9.8687L22.8366 10.2678L22.8366 9.46978Z" fill="black"/>
</svg>
