<svg width="24" height="24" viewBox="0 0 24 24" fill="none" xmlns="http://www.w3.org/2000/svg">
<path fill-rule="evenodd" clip-rule="evenodd" d="M3.66295 8.96978L3.66295 9.46978L3.66295 11.1338L5.10416 10.3017L5.53718 10.0517L6.03718 10.9177L5.60416 11.1677L4.16293 11.9998L5.60416 12.8319L6.03718 13.0819L5.53718 13.948L5.10416 13.698L3.66295 12.8659L3.66295 14.5298L3.66295 15.0298L2.66295 15.0298L2.66295 14.5298L2.66295 12.8658L1.22208 13.6977L0.789063 13.9477L0.289063 13.0817L0.722076 12.8317L2.16293 11.9998L0.722076 11.168L0.289063 10.918L0.789063 10.0519L1.22208 10.3019L2.66295 11.1338L2.66295 9.46978L2.66295 8.96978L3.66295 8.96978ZM12.6466 8.96978L12.6466 9.46978L12.6466 11.1338L14.0879 10.3017L14.5209 10.0517L15.0209 10.9177L14.5879 11.1677L13.1466 11.9998L14.5879 12.8319L15.0209 13.0819L14.5209 13.948L14.0879 13.698L12.6466 12.8658L12.6466 14.5298L12.6466 15.0298L11.6466 15.0298L11.6466 14.5298L11.6466 12.8659L10.2058 13.6977L9.77275 13.9477L9.27275 13.0817L9.70577 12.8317L11.1466 11.9998L9.70577 11.168L9.27275 10.918L9.77275 10.0519L10.2058 10.3019L11.6466 11.1338L11.6466 9.46978L11.6466 8.96978L12.6466 8.96978ZM21.3365 9.46978L21.3365 8.96978L20.3365 8.96978L20.3365 9.46978L20.3365 11.1338L18.8957 10.3019L18.4626 10.0519L17.9626 10.918L18.3957 11.168L19.8365 11.9998L18.3957 12.8317L17.9626 13.0817L18.4626 13.9477L18.8957 13.6977L20.3365 12.8658L20.3365 14.5298L20.3365 15.0298L21.3365 15.0298L21.3365 14.5298L21.3365 12.8659L22.7777 13.698L23.2108 13.948L23.7108 13.0819L23.2777 12.8319L21.8365 11.9998L23.2777 11.1677L23.7108 10.9177L23.2108 10.0517L22.7777 10.3017L21.3365 11.1338L21.3365 9.46978Z" fill="black"/>
</svg>
