<svg width="24" height="24" viewBox="0 0 24 24" fill="none" xmlns="http://www.w3.org/2000/svg">
<path fill-rule="evenodd" clip-rule="evenodd" d="M5.8293 22C5.41746 23.1652 4.30622 24 3 24C1.34315 24 8.59228e-07 22.6569 7.86805e-07 21C7.14382e-07 19.3431 1.34315 18 3 18C3.46316 18 3.9018 18.105 4.29344 18.2924L9.29238 13.2934C9.10496 12.9018 9 12.4632 9 12C9 10.3431 10.3431 9 12 9C12.4632 9 12.9018 9.10495 13.2934 9.29238L18.2924 4.29344C18.2468 4.19829 18.2062 4.10038 18.1707 4L14.8293 4C14.4175 5.1652 13.3062 6 12 6C10.6938 6 9.58254 5.16519 9.17071 4H5.8293C5.41746 5.16519 4.30622 6 3 6C1.34315 6 7.24234e-08 4.65686 0 3C-7.24234e-08 1.34315 1.34315 8.59228e-07 3 7.86805e-07C4.30622 7.29708e-07 5.41746 0.834809 5.8293 2L9.17071 2C9.58254 0.834801 10.6938 4.50501e-07 12 3.93404e-07C13.3062 3.36307e-07 14.4175 0.834809 14.8293 2H18.1707C18.5825 0.834809 19.6938 5.70966e-08 21 0C22.6569 1.83493e-06 24 1.34315 24 3C24 4.65685 22.6569 6 21 6C20.5369 6 20.0982 5.89505 19.7066 5.70764L14.7076 10.7066C14.8951 11.0982 15 11.5369 15 12C15 13.6569 13.6569 15 12 15C11.5369 15 11.0982 14.8951 10.7066 14.7076L5.70764 19.7066C5.75317 19.8017 5.79383 19.8996 5.8293 20H9.17071C9.58254 18.8348 10.6938 18 12 18C13.3062 18 14.4175 18.8348 14.8293 20H18.1707C18.5825 18.8348 19.6938 18 21 18C22.6569 18 24 19.3431 24 21C24 22.6569 22.6569 24 21 24C19.6938 24 18.5825 23.1652 18.1707 22H14.8293C14.4175 23.1652 13.3062 24 12 24C10.6938 24 9.58254 23.1652 9.17071 22H5.8293ZM4 21C4 21.5523 3.55229 22 3 22C2.44772 22 2 21.5523 2 21C2 20.4477 2.44772 20 3 20C3.55229 20 4 20.4477 4 21ZM13 21C13 21.5523 12.5523 22 12 22C11.4477 22 11 21.5523 11 21C11 20.4477 11.4477 20 12 20C12.5523 20 13 20.4477 13 21ZM21 22C21.5523 22 22 21.5523 22 21C22 20.4477 21.5523 20 21 20C20.4477 20 20 20.4477 20 21C20 21.5523 20.4477 22 21 22ZM12 13C12.5523 13 13 12.5523 13 12C13 11.4477 12.5523 11 12 11C11.4477 11 11 11.4477 11 12C11 12.5523 11.4477 13 12 13ZM3 4C3.55229 4 4 3.55228 4 3C4 2.44772 3.55229 2 3 2C2.44772 2 2 2.44772 2 3C2 3.55228 2.44772 4 3 4ZM13 3C13 3.55229 12.5523 4 12 4C11.4477 4 11 3.55229 11 3C11 2.44772 11.4477 2 12 2C12.5523 2 13 2.44772 13 3ZM21 4C21.5523 4 22 3.55229 22 3C22 2.44772 21.5523 2 21 2C20.4477 2 20 2.44772 20 3C20 3.55229 20.4477 4 21 4Z" fill="black"/>
<path fill-rule="evenodd" clip-rule="evenodd" d="M6 12C6 13.6569 4.65686 15 3 15C1.34315 15 4.65826e-07 13.6569 3.93403e-07 12C3.20979e-07 10.3431 1.34315 9 3 9C4.65685 9 6 10.3431 6 12ZM4 12C4 12.5523 3.55229 13 3 13C2.44772 13 2 12.5523 2 12C2 11.4477 2.44772 11 3 11C3.55229 11 4 11.4477 4 12Z" fill="black"/>
<path fill-rule="evenodd" clip-rule="evenodd" d="M24 12C24 13.6569 22.6569 15 21 15C19.3431 15 18 13.6569 18 12C18 10.3431 19.3431 9 21 9C22.6569 9 24 10.3431 24 12ZM22 12C22 12.5523 21.5523 13 21 13C20.4477 13 20 12.5523 20 12C20 11.4477 20.4477 11 21 11C21.5523 11 22 11.4477 22 12Z" fill="black"/>
</svg>
