<svg width="24" height="24" viewBox="0 0 24 24" fill="none" xmlns="http://www.w3.org/2000/svg">
<path d="M3.16304 8.71973C3.57726 8.71973 3.91304 9.05551 3.91304 9.46973V10.7007L4.97926 10.0851C5.33798 9.87804 5.79667 10.0009 6.00378 10.3597C6.21089 10.7184 6.08798 11.1771 5.72926 11.3842L4.66303 11.9998L5.72926 12.6154C6.08798 12.8225 6.21089 13.2812 6.00378 13.6399C5.79667 13.9986 5.33798 14.1215 4.97926 13.9144L3.91304 13.2988V14.5297C3.91304 14.9439 3.57726 15.2797 3.16304 15.2797C2.74883 15.2797 2.41304 14.9439 2.41304 14.5297V13.2988L1.34717 13.9142C0.988452 14.1213 0.529759 13.9984 0.322652 13.6397C0.115545 13.2809 0.238452 12.8223 0.597171 12.6151L1.66303 11.9998L0.597171 11.3844C0.238452 11.1773 0.115545 10.7186 0.322652 10.3599C0.529759 10.0012 0.988452 9.87826 1.34717 10.0854L2.41304 10.7007V9.46973C2.41304 9.05551 2.74883 8.71973 3.16304 8.71973Z" fill="black"/>
<path d="M12.1467 8.71973C12.5609 8.71973 12.8967 9.05551 12.8967 9.46973V10.7008L13.963 10.0851C14.3217 9.87804 14.7804 10.0009 14.9875 10.3597C15.1946 10.7184 15.0717 11.1771 14.713 11.3842L13.6467 11.9998L14.713 12.6154C15.0717 12.8225 15.1946 13.2812 14.9875 13.6399C14.7804 13.9986 14.3217 14.1215 13.963 13.9144L12.8967 13.2988V14.5297C12.8967 14.9439 12.5609 15.2797 12.1467 15.2797C11.7325 15.2797 11.3967 14.9439 11.3967 14.5297V13.2988L10.3309 13.9142C9.97214 14.1213 9.51345 13.9984 9.30634 13.6397C9.09924 13.2809 9.22214 12.8223 9.58086 12.6151L10.6467 11.9998L9.58086 11.3844C9.22214 11.1773 9.09924 10.7186 9.30634 10.3599C9.51345 10.0012 9.97214 9.87826 10.3309 10.0854L11.3967 10.7007V9.46973C11.3967 9.05551 11.7325 8.71973 12.1467 8.71973Z" fill="black"/>
<path d="M21.5866 9.46973C21.5866 9.05551 21.2508 8.71973 20.8366 8.71973C20.4224 8.71973 20.0866 9.05551 20.0866 9.46973V10.7007L19.0208 10.0854C18.662 9.87826 18.2033 10.0012 17.9962 10.3599C17.7891 10.7186 17.912 11.1773 18.2708 11.3844L19.3366 11.9998L18.2708 12.6151C17.912 12.8223 17.7891 13.2809 17.9962 13.6397C18.2033 13.9984 18.662 14.1213 19.0208 13.9142L20.0866 13.2988V14.5297C20.0866 14.9439 20.4224 15.2797 20.8366 15.2797C21.2508 15.2797 21.5866 14.9439 21.5866 14.5297V13.2988L22.6528 13.9144C23.0116 14.1215 23.4703 13.9986 23.6774 13.6399C23.8845 13.2812 23.7616 12.8225 23.4028 12.6154L22.3366 11.9998L23.4028 11.3842C23.7616 11.1771 23.8845 10.7184 23.6774 10.3597C23.4703 10.0009 23.0116 9.87804 22.6528 10.0851L21.5866 10.7007V9.46973Z" fill="black"/>
</svg>
