<svg width="24" height="24" viewBox="0 0 24 24" fill="none" xmlns="http://www.w3.org/2000/svg">
<path d="M12.5821 9.70006C12.5821 9.56199 12.4702 9.45006 12.3321 9.45006C12.194 9.45006 12.0821 9.56199 12.0821 9.70006V11.567L10.4654 10.6336C10.3458 10.5645 10.1929 10.6055 10.1239 10.7251C10.0548 10.8446 10.0958 10.9975 10.2154 11.0666L11.832 11.9999L10.2154 12.9333C10.0959 13.0023 10.0549 13.1552 10.1239 13.2748C10.193 13.3943 10.3459 13.4353 10.4654 13.3663L12.0821 12.4329V14.3001C12.0821 14.4381 12.194 14.5501 12.3321 14.5501C12.4702 14.5501 12.5821 14.4381 12.5821 14.3001V12.433L14.1991 13.3666C14.3187 13.4356 14.4716 13.3946 14.5406 13.2751C14.6096 13.1555 14.5687 13.0026 14.4491 12.9336L12.832 11.9999L14.4492 11.0663C14.5687 10.9972 14.6097 10.8443 14.5407 10.7248C14.4716 10.6052 14.3187 10.5642 14.1992 10.6333L12.5821 11.5669V9.70006Z" fill="black"/>
<path d="M5.41506 9.70008C5.41506 9.56201 5.30313 9.45008 5.16506 9.45008C5.02699 9.45008 4.91506 9.56201 4.91506 9.70008V11.567L3.29833 10.6336C3.17876 10.5645 3.02586 10.6055 2.95683 10.7251C2.88779 10.8447 2.92876 10.9975 3.04833 11.0666L4.66496 11.9999L3.04838 12.9333C2.92881 13.0023 2.88784 13.1552 2.95688 13.2748C3.02591 13.3944 3.17881 13.4353 3.29838 13.3663L4.91506 12.4329L4.91506 14.3001C4.91506 14.4381 5.02699 14.5501 5.16506 14.5501C5.30313 14.5501 5.41506 14.4381 5.41506 14.3001L5.41506 12.433L7.03205 13.3666C7.15162 13.4356 7.30452 13.3947 7.37356 13.2751C7.44259 13.1555 7.40162 13.0026 7.28205 12.9336L5.66496 11.9999L7.2821 11.0663C7.40167 10.9973 7.44264 10.8444 7.37361 10.7248C7.30457 10.6052 7.15167 10.5642 7.0321 10.6333L5.41506 11.5669V9.70008Z" fill="black"/>
<path d="M19.232 9.45006C19.37 9.45006 19.482 9.56199 19.482 9.70006V11.5669L21.099 10.6333C21.2186 10.5642 21.3715 10.6052 21.4405 10.7248C21.5096 10.8443 21.4686 10.9972 21.349 11.0663L19.7319 11.9999L21.349 12.9336C21.4685 13.0026 21.5095 13.1555 21.4405 13.2751C21.3714 13.3946 21.2185 13.4356 21.099 13.3666L19.482 12.433V14.3001C19.482 14.4381 19.37 14.5501 19.232 14.5501C19.0939 14.5501 18.982 14.4381 18.982 14.3001V12.4329L17.3653 13.3663C17.2457 13.4353 17.0928 13.3943 17.0238 13.2748C16.9548 13.1552 16.9957 13.0023 17.1153 12.9333L18.7319 11.9999L17.1152 11.0666C16.9957 10.9975 16.9547 10.8446 17.0237 10.7251C17.0928 10.6055 17.2457 10.5645 17.3652 10.6336L18.982 11.567V9.70006C18.982 9.56199 19.0939 9.45006 19.232 9.45006Z" fill="black"/>
<path fill-rule="evenodd" clip-rule="evenodd" d="M21.1044 6.0376L2.89603 6.0376C1.61427 6.0376 0.575195 7.07667 0.575195 8.35843L0.575196 15.6418C0.575196 16.9235 1.61427 17.9626 2.89603 17.9626L21.1044 17.9626C22.3861 17.9626 23.4252 16.9235 23.4252 15.6418V8.35843C23.4252 7.07667 22.3861 6.0376 21.1044 6.0376ZM1.0752 8.35843C1.0752 7.35281 1.89041 6.5376 2.89603 6.5376L21.1044 6.5376C22.11 6.5376 22.9252 7.35281 22.9252 8.35843V15.6418C22.9252 16.6474 22.11 17.4626 21.1044 17.4626H2.89603C1.89041 17.4626 1.0752 16.6474 1.0752 15.6418L1.0752 8.35843Z" fill="black"/>
</svg>
