<svg width="24" height="24" viewBox="0 0 24 24" fill="none" xmlns="http://www.w3.org/2000/svg">
<path fill-rule="evenodd" clip-rule="evenodd" d="M3.5 5.00024C1.84315 5.00024 0.5 6.34339 0.5 8.00024L0.5 16.0002C0.5 17.6571 1.84315 19.0002 3.5 19.0002L20.5 19.0002C22.1569 19.0002 23.5 17.6571 23.5 16.0002V8.00024C23.5 6.34339 22.1569 5.00024 20.5 5.00024L3.5 5.00024ZM6.63391 10.0002C6.63391 9.58603 6.29813 9.25025 5.88391 9.25025C5.4697 9.25025 5.13391 9.58603 5.13391 10.0002V10.7011L4.52698 10.3507C4.16826 10.1436 3.70957 10.2665 3.50246 10.6252C3.29536 10.984 3.41826 11.4427 3.77698 11.6498L4.38403 12.0002L3.77698 12.3507C3.41826 12.5578 3.29536 13.0165 3.50246 13.3752C3.70957 13.734 4.16826 13.8569 4.52698 13.6498L5.13391 13.2994L5.13392 14.0002C5.13392 14.4145 5.4697 14.7502 5.88391 14.7502C6.29813 14.7502 6.63392 14.4145 6.63392 14.0002L6.63391 13.2992L7.24108 13.6498C7.5998 13.8569 8.0585 13.734 8.2656 13.3752C8.47271 13.0165 8.3498 12.5578 7.99108 12.3507L7.38403 12.0002L7.99108 11.6498C8.3498 11.4427 8.47271 10.984 8.2656 10.6252C8.0585 10.2665 7.5998 10.1436 7.24108 10.3507L6.63391 10.7013V10.0002ZM12.8661 10.0002C12.8661 9.58603 12.5303 9.25024 12.1161 9.25024C11.7019 9.25024 11.3661 9.58603 11.3661 10.0002V10.7011L10.7592 10.3507C10.4004 10.1436 9.94175 10.2665 9.73464 10.6252C9.52753 10.984 9.65044 11.4427 10.0092 11.6498L10.6162 12.0002L10.0092 12.3507C9.65044 12.5578 9.52753 13.0165 9.73464 13.3752C9.94175 13.734 10.4004 13.8569 10.7592 13.6498L11.3661 13.2994V14.0002C11.3661 14.4145 11.7019 14.7502 12.1161 14.7502C12.5303 14.7502 12.8661 14.4145 12.8661 14.0002V13.2992L13.4733 13.6498C13.832 13.8569 14.2907 13.734 14.4978 13.3752C14.7049 13.0165 14.582 12.5578 14.2233 12.3507L13.6162 12.0002L14.2233 11.6498C14.582 11.4427 14.7049 10.984 14.4978 10.6252C14.2907 10.2665 13.832 10.1436 13.4733 10.3507L12.8661 10.7013V10.0002ZM18.1161 9.25025C18.5303 9.25025 18.8661 9.58603 18.8661 10.0002V10.7013L19.4733 10.3507C19.832 10.1436 20.2907 10.2665 20.4978 10.6252C20.7049 10.984 20.582 11.4427 20.2233 11.6498L19.6162 12.0002L20.2233 12.3507C20.582 12.5578 20.7049 13.0165 20.4978 13.3752C20.2907 13.734 19.832 13.8569 19.4733 13.6498L18.8661 13.2992V14.0002C18.8661 14.4145 18.5303 14.7502 18.1161 14.7502C17.7019 14.7502 17.3661 14.4145 17.3661 14.0002V13.2994L16.7592 13.6498C16.4004 13.8569 15.9417 13.734 15.7346 13.3752C15.5275 13.0165 15.6504 12.5578 16.0092 12.3507L16.6162 12.0002L16.0092 11.6498C15.6504 11.4427 15.5275 10.984 15.7346 10.6252C15.9417 10.2665 16.4004 10.1436 16.7592 10.3507L17.3661 10.7011V10.0002C17.3661 9.58603 17.7019 9.25025 18.1161 9.25025Z" fill="black"/>
</svg>
