<svg width="24" height="24" viewBox="0 0 24 24" fill="none" xmlns="http://www.w3.org/2000/svg">
<path fill-rule="evenodd" clip-rule="evenodd" d="M17.0919 0.970295C18.0223 0.0398479 19.5309 0.0398508 20.4613 0.970296L22.063 2.57197C22.9934 3.50242 22.9934 5.01097 22.063 5.94142L9.43861 18.5658C9.17707 18.8273 8.85822 19.0244 8.50732 19.1414L4.49314 20.4794C3.29459 20.8789 2.15435 19.7387 2.55386 18.5401L3.89192 14.526C4.00889 14.1751 4.20594 13.8562 4.46749 13.5947L17.0919 0.970295ZM16.7277 4.86999L6.57645 15.0212L8.01204 16.4568L18.1633 6.30557L16.7277 4.86999ZM17.7884 3.80933L19.2239 5.24491L20.2122 4.2567L18.7766 2.82111L17.7884 3.80933ZM5.53707 17.4962L5.88533 16.4514L6.58185 17.1479L5.53707 17.4962Z" fill="black"/>
</svg>
