<svg width="24" height="24" viewBox="0 0 24 24" fill="none" xmlns="http://www.w3.org/2000/svg">
<path fill-rule="evenodd" clip-rule="evenodd" d="M17.7993 2.17398C18.3392 1.63406 19.2146 1.63406 19.7545 2.17398L21.3562 3.77566C21.8961 4.31558 21.8961 5.19097 21.3562 5.73089L19.7602 7.32687C19.7584 7.32879 19.7566 7.33069 19.7547 7.33257C19.7528 7.33445 19.7509 7.3363 19.749 7.33811L8.73185 18.3553C8.58008 18.507 8.39506 18.6214 8.19144 18.6893L4.17726 20.0273C3.76048 20.1662 3.36396 19.7697 3.50289 19.3529L4.84095 15.3388C4.90882 15.1351 5.02317 14.9501 5.17494 14.7984L17.7993 2.17398ZM19.5779 6.80216L21.0027 5.37734C21.3473 5.03268 21.3473 4.47388 21.0027 4.12922L19.401 2.52754C19.0563 2.18288 18.4975 2.18288 18.1529 2.52754L16.728 3.95235L19.5779 6.80216ZM16.3745 4.30591L19.2243 7.15571L8.3783 18.0017L8.3655 18.0143C8.36219 18.0105 8.35875 18.0069 8.35519 18.0033L5.52676 15.1749C5.52324 15.1714 5.51963 15.168 5.51596 15.1647L5.5285 15.1519L16.3745 4.30591ZM3.97723 19.5111L5.27188 15.6271L7.9031 18.2583L4.01915 19.553C4.01023 19.5559 4.00473 19.5553 4.00094 19.5544C3.99617 19.5531 3.99045 19.5502 3.98524 19.545C3.98003 19.5398 3.97707 19.534 3.97584 19.5293C3.97487 19.5255 3.97426 19.52 3.97723 19.5111Z" fill="black"/>
</svg>
