<svg width="24" height="24" viewBox="0 0 24 24" fill="none" xmlns="http://www.w3.org/2000/svg">
<path fill-rule="evenodd" clip-rule="evenodd" d="M17.2683 1.64365C18.1011 0.810838 19.4514 0.81084 20.2842 1.64365L21.8859 3.24533C22.7187 4.07815 22.7187 5.42841 21.8859 6.26122L20.2955 7.85157C20.2919 7.85537 20.2881 7.85915 20.2844 7.8629C20.2806 7.86666 20.2769 7.87038 20.2731 7.87406L9.26152 18.8856C9.02742 19.1197 8.74203 19.2961 8.42795 19.4008L4.41378 20.7388C3.41067 21.0732 2.45635 20.1189 2.79072 19.1158L4.12878 15.1016C4.23347 14.7875 4.40985 14.5021 4.64395 14.268L17.2683 1.64365ZM19.5772 5.7415L20.4717 4.84701C20.5234 4.79524 20.5234 4.71131 20.4717 4.65955L18.87 3.05787C18.8182 3.0061 18.7343 3.0061 18.6825 3.05787L17.7881 3.95235L19.5772 5.7415ZM16.3738 5.36657L18.163 7.15571L8.36529 16.9534L6.57614 15.1643L16.3738 5.36657ZM5.14147 18.3881L5.59899 17.0155L6.51402 17.9306L5.14147 18.3881Z" fill="black"/>
</svg>
