<svg width="24" height="24" viewBox="0 0 24 24" fill="none" xmlns="http://www.w3.org/2000/svg">
<path fill-rule="evenodd" clip-rule="evenodd" d="M17.4453 1.82043C18.1805 1.08525 19.3724 1.08525 20.1076 1.82043L21.7093 3.42211C22.4445 4.15729 22.4445 5.34926 21.7093 6.08445L20.1174 7.6763C20.1143 7.6796 20.111 7.68287 20.1078 7.68613C20.1045 7.68938 20.1013 7.6926 20.098 7.69578L9.08493 18.7088C8.87827 18.9155 8.62633 19.0712 8.34907 19.1636L4.3349 20.5017C3.52723 20.7709 2.75885 20.0025 3.02807 19.1948L4.36613 15.1807C4.45855 14.9034 4.61425 14.6515 4.82091 14.4448L17.4453 1.82043ZM19.5774 6.09505L20.6486 5.02379C20.798 4.87439 20.798 4.63217 20.6486 4.48277L19.047 2.88109C18.8976 2.73169 18.6553 2.73169 18.5059 2.88109L17.4347 3.95235L19.5774 6.09505ZM16.374 5.01301L18.5167 7.15571L8.36546 17.307L6.22277 15.1643L16.374 5.01301ZM4.74636 18.7834L5.48991 16.5527L6.977 18.0398L4.74636 18.7834Z" fill="black"/>
</svg>
