<svg width="24" height="24" viewBox="0 0 24 24" fill="none" xmlns="http://www.w3.org/2000/svg">
<path d="M19.9308 1.99721C19.2932 1.35966 18.2595 1.35965 17.622 1.99721L16.1972 3.42202L20.1076 7.33249L21.5325 5.90767C22.17 5.27012 22.17 4.23644 21.5325 3.59889L19.9308 1.99721Z" fill="black"/>
<path d="M19.7541 7.68604L15.8436 3.77558L4.99762 14.6216L4.98542 14.6339L8.89576 18.5442L8.90808 18.532L19.7541 7.68604Z" fill="black"/>
<path d="M4.60323 15.2597C4.62761 15.1866 4.65707 15.1155 4.6913 15.0469L8.48277 18.8384C8.41419 18.8726 8.34309 18.902 8.26995 18.9264L4.25578 20.2645C3.64355 20.4686 3.0611 19.8861 3.26517 19.2739L4.60323 15.2597Z" fill="black"/>
</svg>
