<svg width="24" height="24" viewBox="0 0 24 24" fill="none" xmlns="http://www.w3.org/2000/svg">
<path fill-rule="evenodd" clip-rule="evenodd" d="M17.2684 1.64365C18.1013 0.810838 19.4515 0.81084 20.2843 1.64365L21.886 3.24533C22.7188 4.07815 22.7188 5.42841 21.886 6.26122L20.2957 7.85157C20.292 7.85537 20.2883 7.85915 20.2845 7.8629C20.2808 7.86666 20.277 7.87038 20.2732 7.87406L9.26165 18.8856C9.02754 19.1197 8.74215 19.2961 8.42807 19.4008L4.4139 20.7388C3.41079 21.0732 2.45648 20.1189 2.79084 19.1158L4.1289 15.1016C4.23359 14.7875 4.40998 14.5021 4.64408 14.268L17.2684 1.64365ZM19.5773 5.7415L20.4718 4.84701C20.5236 4.79524 20.5236 4.71131 20.4718 4.65955L18.8701 3.05787C18.8184 3.0061 18.7344 3.0061 18.6827 3.05787L17.7882 3.95235L19.5773 5.7415ZM16.374 5.36657L18.1631 7.15571L8.36541 16.9534L6.57627 15.1643L16.374 5.36657ZM5.14159 18.3881L5.59911 17.0155L6.51414 17.9306L5.14159 18.3881Z" fill="black"/>
</svg>
