<svg width="24" height="24" viewBox="0 0 24 24" fill="none" xmlns="http://www.w3.org/2000/svg">
<path fill-rule="evenodd" clip-rule="evenodd" d="M1.71076 11.2089C1.28698 9.90443 1.75155 8.47498 2.86115 7.66881L10.1795 2.35143C11.289 1.54569 12.7918 1.54555 13.9012 2.35143L21.2195 7.66881C22.329 8.47498 22.7936 9.90451 22.3699 11.2088L19.574 19.8124C19.1502 21.1166 17.9347 21.9998 16.5633 21.9999L7.5174 21.9999C6.14584 21.9999 4.92954 21.1168 4.50568 19.8124L1.71076 11.2089ZM3.15509 8.07408C2.22074 8.75293 1.8295 9.95615 2.18634 11.0546L4.98127 19.6581C5.33825 20.7564 6.36252 21.4999 7.5174 21.4999L16.5633 21.4999C17.718 21.4998 18.7414 20.7562 19.0985 19.6581L21.8944 11.0546C22.2511 9.95622 21.8598 8.75294 20.9256 8.07408L13.6072 2.7567C12.6729 2.07792 11.4078 2.07799 10.4735 2.7567L3.15509 8.07408Z" fill="black"/>
</svg>
