<svg width="24" height="24" viewBox="0 0 24 24" fill="none" xmlns="http://www.w3.org/2000/svg">
<path fill-rule="evenodd" clip-rule="evenodd" d="M1.71076 11.2089C1.28698 9.90443 1.75155 8.47498 2.86115 7.66881L10.1795 2.35143C11.289 1.54569 12.7918 1.54555 13.9012 2.35143L21.2195 7.66881C22.329 8.47498 22.7936 9.90451 22.3699 11.2088L19.574 19.8124C19.1502 21.1166 17.9347 21.9998 16.5633 21.9999L7.5174 21.9999C6.14584 21.9999 4.92954 21.1168 4.50568 19.8124L1.71076 11.2089ZM4.3299 9.69127C4.09652 9.86083 3.9996 10.162 4.08869 10.4364L6.88361 19.0399C6.97283 19.3142 7.22896 19.4999 7.5174 19.4999L16.5633 19.4999C16.8517 19.4998 17.1079 19.3142 17.1971 19.0399L19.992 10.4364C20.081 10.1621 19.9831 9.86083 19.7498 9.69127L12.4315 4.37487C12.1981 4.20539 11.8826 4.2055 11.6492 4.37487L4.3299 9.69127Z" fill="black"/>
</svg>
