<svg width="24" height="24" viewBox="0 0 24 24" fill="none" xmlns="http://www.w3.org/2000/svg">
<path d="M12.6989 2.64671C13.1723 2.55061 13.6631 2.5 14.1667 2.5C18.2168 2.5 21.5 5.78325 21.5 9.83333C21.5 10.3369 21.4494 10.8277 21.3533 11.3011C21.2434 11.8423 21.5931 12.3701 22.1344 12.48C22.6756 12.5899 23.2034 12.2402 23.3133 11.6989C23.4358 11.0953 23.5 10.4713 23.5 9.83333C23.5 4.67868 19.3213 0.5 14.1667 0.5C13.5287 0.5 12.9047 0.564154 12.3011 0.686684C11.7598 0.796551 11.4101 1.32438 11.52 1.86563C11.6299 2.40688 12.1577 2.75658 12.6989 2.64671Z" fill="black"/>
<path d="M7.52293 2.41226C7.34079 1.7201 6.57642 1.36172 5.92785 1.66439L3.99098 2.56826C2.45047 3.28717 1.49209 4.86057 1.56003 6.55921C1.72202 10.609 3.40337 14.4492 6.26927 17.3151L6.68529 17.7311C9.55119 20.597 13.3914 22.2783 17.4411 22.4403C19.1398 22.5083 20.7132 21.5499 21.4321 20.0094L22.336 18.0725C22.6386 17.4239 22.2802 16.6596 21.5881 16.4774L16.3267 15.0928C15.9827 15.0023 15.6166 15.1013 15.3651 15.3528L13.9313 16.7865C13.5747 17.1432 13.0246 17.2195 12.5844 16.9734C10.2537 15.6704 8.32994 13.7467 7.02698 11.4159C6.78089 10.9757 6.85719 10.4256 7.2138 10.069L8.64755 8.63528C8.89905 8.38379 8.99803 8.01764 8.90752 7.67368L7.52293 2.41226Z" fill="black"/>
<path d="M14 6.50016C13.5891 6.50016 13.1969 6.57054 12.8332 6.69906C12.3125 6.88311 11.7412 6.61018 11.5572 6.08947C11.3731 5.56875 11.646 4.99743 12.1668 4.81338C12.7415 4.61025 13.359 4.50016 14 4.50016C17.0376 4.50016 19.5 6.9626 19.5 10.0002C19.5 10.6412 19.3899 11.2587 19.1868 11.8334C19.0027 12.3541 18.4314 12.627 17.9107 12.443C17.39 12.259 17.1171 11.6876 17.3011 11.1669C17.4296 10.8033 17.5 10.411 17.5 10.0002C17.5 8.06717 15.933 6.50016 14 6.50016Z" fill="black"/>
</svg>
