<svg width="24" height="24" viewBox="0 0 24 24" fill="none" xmlns="http://www.w3.org/2000/svg">
<path d="M15 1C16.6568 1.00006 18 2.34318 18 4V20C18 21.6568 16.6568 22.9999 15 23H7C5.34316 23 4 21.6568 4 20L4.00098 4C4.00107 2.34321 5.34419 1 7.00098 1H15ZM7.5 3C6.67157 3 6 3.67157 6 4.5V17.5C6 18.3284 6.67157 19 7.5 19H14.5C15.3284 18.9999 16 18.3284 16 17.5V4.5C16 3.67161 15.3284 3.00007 14.5 3H7.5ZM13 4.625C13.4832 4.62507 13.875 5.01679 13.875 5.5C13.875 5.98321 13.4832 6.37493 13 6.375H9C8.51675 6.375 8.125 5.98325 8.125 5.5C8.125 5.01675 8.51675 4.625 9 4.625H13Z" fill="black"/>
</svg>
