<svg width="24" height="24" viewBox="0 0 24 24" fill="none" xmlns="http://www.w3.org/2000/svg">
<path fill-rule="evenodd" clip-rule="evenodd" d="M0.123117 8.43565C0 9.21298 0 10.142 0 12C0 13.858 0 14.787 0.123117 15.5643C0.800832 19.8433 4.15673 23.1992 8.43565 23.8769C9.21298 24 10.142 24 12 24C13.858 24 14.787 24 15.5643 23.8769C19.8433 23.1992 23.1992 19.8433 23.8769 15.5643C24 14.787 24 13.858 24 12C24 10.142 24 9.21298 23.8769 8.43565C23.1992 4.15673 19.8433 0.800832 15.5643 0.123117C14.787 0 13.858 0 12 0C10.142 0 9.21298 0 8.43565 0.123117C4.15673 0.800832 0.800832 4.15673 0.123117 8.43565ZM7.95302 5.10966C8.3854 4.90788 8.89498 5.1468 9.01641 5.60823L9.93946 9.11585C9.99981 9.34515 9.93382 9.58925 9.76615 9.75692L8.81032 10.7128C8.57258 10.9505 8.52171 11.3172 8.68577 11.6107C9.55441 13.1645 10.8369 14.447 12.3907 15.3156C12.6842 15.4797 13.0509 15.4288 13.2887 15.1911L14.2445 14.2353C14.4122 14.0676 14.6563 14.0016 14.8856 14.0619L18.3932 14.985C18.8546 15.1064 19.0935 15.616 18.8918 16.0484L18.2892 17.3396C17.8099 18.3666 16.761 19.0056 15.6285 18.9603C12.9287 18.8523 10.3686 17.7314 8.45798 15.8208L8.18063 15.5434C6.27003 13.6328 5.14913 11.0727 5.04114 8.37287C4.99584 7.24045 5.63477 6.19151 6.66177 5.71224L7.95302 5.10966Z" fill="black"/>
</svg>
