<svg width="24" height="24" viewBox="0 0 24 24" fill="none" xmlns="http://www.w3.org/2000/svg">
<path d="M16 0.25C18.071 0.250088 19.75 1.92899 19.75 4V20C19.75 22.071 18.071 23.7499 16 23.75H8C5.929 23.7499 4.25 22.071 4.25 20L4.25098 4C4.25109 1.92903 5.93001 0.250026 8.00098 0.25H16ZM5.76465 20.25C5.88908 21.3749 6.84197 22.2499 8 22.25H16C17.158 22.2499 18.1099 21.3748 18.2344 20.25H5.76465ZM8.00098 1.75C6.75841 1.75003 5.75104 2.75742 5.75098 4L5.75 18.75H18.25V4C18.25 2.75742 17.2426 1.75009 16 1.75H8.00098ZM14 3.25C14.4141 3.2501 14.75 3.58585 14.75 4C14.75 4.41415 14.4141 4.7499 14 4.75H10C9.58579 4.75 9.25 4.41421 9.25 4C9.25 3.58579 9.58579 3.25 10 3.25H14Z" fill="black"/>
</svg>
