<svg width="24" height="24" viewBox="0 0 24 24" fill="none" xmlns="http://www.w3.org/2000/svg">
<path d="M22.723 0.550659C23.1372 0.550659 23.473 0.886446 23.473 1.30066V6.60744C23.473 7.02165 23.1372 7.35744 22.723 7.35744C22.3087 7.35744 21.973 7.02166 21.973 6.60744V3.10888L16.3994 8.68243C16.1065 8.97532 15.6316 8.97532 15.3387 8.68243C15.0459 8.38953 15.0459 7.91466 15.3387 7.62177L20.9099 2.05066L17.4162 2.05066C17.002 2.05066 16.6662 1.71487 16.6662 1.30066C16.6662 0.886446 17.002 0.550659 17.4162 0.550659H22.723Z" fill="black"/>
<path d="M5.9962 1.59528C6.64478 1.29261 7.40915 1.65099 7.59129 2.34315L8.97588 7.60457C9.06639 7.94853 8.9674 8.31468 8.71591 8.56617L7.28216 9.99992C6.92555 10.3565 6.84925 10.9066 7.09534 11.3468C8.3983 13.6775 10.322 15.6013 12.6528 16.9043C13.093 17.1503 13.6431 17.074 13.9997 16.7174L15.4334 15.2837C15.6849 15.0322 16.0511 14.9332 16.395 15.0237L21.6564 16.4083C22.3486 16.5904 22.707 17.3548 22.4043 18.0034L21.5004 19.9403C20.7815 21.4808 19.2081 22.4391 17.5095 22.3712C13.4597 22.2092 9.61955 20.5279 6.75365 17.662L6.33763 17.2459C3.47173 14.38 1.79038 10.5399 1.62839 6.4901C1.56044 4.79146 2.51883 3.21806 4.05934 2.49915L5.9962 1.59528Z" fill="black"/>
</svg>
