<svg width="24" height="24" viewBox="0 0 24 24" fill="none" xmlns="http://www.w3.org/2000/svg">
<path d="M8.99982 3.5C8.72367 3.5 8.49982 3.72386 8.49982 4C8.49982 4.27614 8.72367 4.5 8.99982 4.5H14.9998C15.276 4.5 15.4998 4.27614 15.4998 4C15.4998 3.72386 15.276 3.5 14.9998 3.5H8.99982Z" fill="black"/>
<path fill-rule="evenodd" clip-rule="evenodd" d="M8.00086 0.5C6.06794 0.5 4.50097 2.06689 4.50086 3.99981L4.5 19.9998C4.4999 21.9329 6.06693 23.5 8 23.5H15.9998C17.9328 23.5 19.4998 21.933 19.4998 20V4C19.4998 2.067 17.9328 0.5 15.9998 0.5H8.00086ZM5.50086 3.99987C5.50094 2.61921 6.6202 1.5 8.00086 1.5H15.9998C17.3805 1.5 18.4998 2.61929 18.4998 4V20C18.4998 21.3807 17.3806 22.5 15.9998 22.5H8C6.61924 22.5 5.49993 21.3806 5.5 19.9999L5.50086 3.99987Z" fill="black"/>
</svg>
