<svg width="24" height="24" viewBox="0 0 24 24" fill="none" xmlns="http://www.w3.org/2000/svg">
<path fill-rule="evenodd" clip-rule="evenodd" d="M0.123117 8.43565C0 9.21298 0 10.142 0 12C0 13.858 0 14.787 0.123117 15.5643C0.800832 19.8433 4.15673 23.1992 8.43565 23.8769C9.21298 24 10.142 24 12 24C13.858 24 14.787 24 15.5643 23.8769C19.8433 23.1992 23.1992 19.8433 23.8769 15.5643C24 14.787 24 13.858 24 12C24 10.142 24 9.21298 23.8769 8.43565C23.1992 4.15673 19.8433 0.800832 15.5643 0.123117C14.787 0 13.858 0 12 0C10.142 0 9.21298 0 8.43565 0.123117C4.15673 0.800832 0.800832 4.15673 0.123117 8.43565ZM13.0736 5.33333C12.7267 5.33333 12.3884 5.3682 12.0619 5.43447C11.7913 5.48941 11.5274 5.31455 11.4725 5.04393C11.4175 4.77331 11.5924 4.50939 11.863 4.45446C12.2546 4.37497 12.6595 4.33333 13.0736 4.33333C16.418 4.33333 19.1291 7.0445 19.1291 10.3889C19.1291 10.803 19.0875 11.2079 19.008 11.5995C18.9531 11.8701 18.6892 12.0449 18.4185 11.99C18.1479 11.9351 17.9731 11.6712 18.028 11.4005C18.0943 11.0741 18.1291 10.7358 18.1291 10.3889C18.1291 7.59678 15.8657 5.33333 13.0736 5.33333ZM7.54757 4.86748C8.02705 4.64372 8.59213 4.90866 8.72679 5.42036L9.64985 8.92797C9.71773 9.18594 9.64349 9.46055 9.45487 9.64917L8.49903 10.605C8.28766 10.8164 8.24244 11.1424 8.3883 11.4034C9.24942 12.9437 10.5208 14.2151 12.0612 15.0762C12.3221 15.2221 12.6482 15.1769 12.8595 14.9655L13.8154 14.0097C14.004 13.821 14.2786 13.7468 14.5366 13.8147L18.0442 14.7377C18.5559 14.8724 18.8208 15.4375 18.5971 15.917L17.9945 17.2082C17.501 18.2657 16.421 18.9235 15.255 18.8769C12.5342 18.768 9.95426 17.6385 8.02885 15.713L7.7515 15.4357C5.82609 13.5103 4.6965 10.9303 4.58766 8.20953C4.54102 7.04355 5.19888 5.96353 6.25632 5.47006L7.54757 4.86748ZM12.1291 8.14223C12.3891 8.05033 12.6694 8.00011 12.9625 8.00011C14.3432 8.00011 15.4625 9.1194 15.4625 10.5001C15.4625 10.7932 15.4122 11.0735 15.3203 11.3335C15.2283 11.5938 15.3648 11.8795 15.6251 11.9715C15.8855 12.0636 16.1712 11.9271 16.2632 11.6667C16.3924 11.3012 16.4625 10.9083 16.4625 10.5001C16.4625 8.56711 14.8955 7.00011 12.9625 7.00011C12.5543 7.00011 12.1614 7.07019 11.7959 7.19939C11.5355 7.29142 11.399 7.57708 11.4911 7.83744C11.5831 8.0978 11.8687 8.23426 12.1291 8.14223Z" fill="black"/>
</svg>
