<svg width="24" height="24" viewBox="0 0 24 24" fill="none" xmlns="http://www.w3.org/2000/svg">
<path d="M8.99994 3.75C8.86187 3.75 8.74994 3.86193 8.74994 4C8.74994 4.13807 8.86187 4.25 8.99994 4.25H14.9999C15.138 4.25 15.2499 4.13807 15.2499 4C15.2499 3.86193 15.138 3.75 14.9999 3.75H8.99994Z" fill="black"/>
<path fill-rule="evenodd" clip-rule="evenodd" d="M8.00098 0.75C6.20613 0.75 4.75108 2.20497 4.75098 3.99982L4.75012 19.9998C4.75003 21.7948 6.20513 23.25 8.00012 23.25H16C17.7949 23.25 19.25 21.7949 19.25 20V4C19.25 2.20507 17.7949 0.75 16 0.75H8.00098ZM5.25098 3.99985C5.25107 2.48113 6.48226 1.25 8.00098 1.25H16C17.5187 1.25 18.75 2.48122 18.75 4V20C18.75 21.5188 17.5187 22.75 16 22.75H8.00012C6.48128 22.75 5.25004 21.5187 5.25012 19.9998L5.25098 3.99985Z" fill="black"/>
</svg>
