<svg width="24" height="24" viewBox="0 0 24 24" fill="none" xmlns="http://www.w3.org/2000/svg">
<path fill-rule="evenodd" clip-rule="evenodd" d="M5.61032 0.984644C6.68277 0.484167 7.94669 1.07676 8.24788 2.22128L9.63246 7.4827C9.79086 8.08462 9.61763 8.72538 9.17752 9.1655L7.74376 10.5993C7.62446 10.7186 7.59894 10.9026 7.68126 11.0499C8.91654 13.2595 10.7404 15.0833 12.95 16.3186C13.0973 16.4009 13.2813 16.3754 13.4006 16.2561L14.8344 14.8224C15.2745 14.3822 15.9152 14.209 16.5172 14.3674L21.7786 15.752C22.9231 16.0532 23.5157 17.3171 23.0152 18.3896L22.1114 20.3264C21.2646 22.1408 19.4115 23.2696 17.4108 23.1896C13.1726 23.0201 9.15382 21.2605 6.1546 18.2613L5.73858 17.8453C2.73936 14.8461 0.979793 10.8272 0.810267 6.58908C0.73024 4.58841 1.85903 2.73524 3.67345 1.88852L5.61032 0.984644ZM6.34494 2.84888L4.51922 3.70088C3.43523 4.20674 2.76086 5.31388 2.80867 6.50914C2.9581 10.2449 4.50909 13.7874 7.1528 16.4311L7.56881 16.8471C10.2125 19.4908 13.755 21.0418 17.4907 21.1912C18.686 21.239 19.7931 20.5646 20.299 19.4806L21.151 17.6549L16.1471 16.3381L14.8148 17.6703C14.0627 18.4224 12.9025 18.5834 11.9741 18.0643C9.44159 16.6486 7.3513 14.5583 5.93554 12.0258C5.41651 11.0974 5.57744 9.93715 6.32955 9.18504L7.66177 7.85282L6.34494 2.84888Z" fill="black"/>
</svg>
