<svg width="24" height="24" viewBox="0 0 24 24" fill="none" xmlns="http://www.w3.org/2000/svg">
<path d="M12.5497 1.9117C13.072 1.80569 13.6127 1.75 14.1667 1.75C18.631 1.75 22.25 5.36903 22.25 9.83333C22.25 10.3873 22.1943 10.928 22.0883 11.4503C22.0608 11.5856 22.1483 11.7175 22.2836 11.745C22.4189 11.7725 22.5508 11.685 22.5783 11.5497C22.6909 10.9949 22.75 10.4209 22.75 9.83333C22.75 5.09289 18.9071 1.25 14.1667 1.25C13.5791 1.25 13.0051 1.30908 12.4503 1.42169C12.315 1.44916 12.2275 1.58112 12.255 1.71643C12.2825 1.85174 12.4144 1.93917 12.5497 1.9117Z" fill="black"/>
<path d="M7.52293 2.41226C7.34079 1.7201 6.57642 1.36172 5.92785 1.66439L3.99098 2.56826C2.45047 3.28717 1.49209 4.86057 1.56003 6.55921C1.72202 10.609 3.40337 14.4492 6.26927 17.3151L6.68529 17.7311C9.55119 20.597 13.3914 22.2783 17.4411 22.4403C19.1398 22.5083 20.7132 21.5499 21.4321 20.0094L22.336 18.0725C22.6386 17.4239 22.2802 16.6596 21.5881 16.4774L16.3267 15.0928C15.9827 15.0023 15.6166 15.1013 15.3651 15.3528L13.9313 16.7865C13.5747 17.1432 13.0246 17.2195 12.5844 16.9734C10.2537 15.6704 8.32994 13.7467 7.02698 11.4159C6.78089 10.9757 6.85719 10.4256 7.2138 10.069L8.64755 8.63528C8.89905 8.38379 8.99803 8.01764 8.90752 7.67368L7.52293 2.41226Z" fill="black"/>
<path d="M14 5.75016C13.5028 5.75016 13.0261 5.83543 12.5833 5.99193C12.4531 6.03794 12.3103 5.96971 12.2643 5.83953C12.2183 5.70935 12.2865 5.56652 12.4167 5.52051C12.9122 5.34536 13.4453 5.25016 14 5.25016C16.6234 5.25016 18.75 7.37681 18.75 10.0002C18.75 10.5549 18.6548 11.0879 18.4797 11.5835C18.4336 11.7137 18.2908 11.7819 18.1606 11.7359C18.0305 11.6899 17.9622 11.547 18.0082 11.4169C18.1647 10.9741 18.25 10.4973 18.25 10.0002C18.25 7.65295 16.3472 5.75016 14 5.75016Z" fill="black"/>
</svg>
