<svg width="24" height="24" viewBox="0 0 24 24" fill="none" xmlns="http://www.w3.org/2000/svg">
<path d="M15.8718 8.4032C15.7337 8.4032 15.6218 8.29127 15.6218 8.1532L15.6218 2.84642C15.6218 2.70834 15.7337 2.59642 15.8718 2.59642C16.0099 2.59642 16.1218 2.70834 16.1218 2.84642L16.1218 7.55209L22.5489 1.12498C22.6466 1.02735 22.8048 1.02735 22.9025 1.12498C23.0001 1.22261 23.0001 1.3809 22.9025 1.47853L16.4778 7.9032L21.1786 7.9032C21.3167 7.9032 21.4286 8.01513 21.4286 8.1532C21.4286 8.29127 21.3167 8.4032 21.1786 8.4032L15.8718 8.4032Z" fill="black"/>
<path fill-rule="evenodd" clip-rule="evenodd" d="M7.59129 2.34322C7.40915 1.65106 6.64478 1.29268 5.9962 1.59535L4.05934 2.49922C2.51883 3.21813 1.56044 4.79153 1.62839 6.49017C1.79038 10.5399 3.47173 14.3801 6.33763 17.246L6.75365 17.662C9.61955 20.5279 13.4597 22.2093 17.5095 22.3713C19.2081 22.4392 20.7815 21.4808 21.5004 19.9403L22.4043 18.0035C22.707 17.3549 22.3486 16.5905 21.6564 16.4084L16.395 15.0238C16.0511 14.9333 15.6849 15.0323 15.4334 15.2838L13.9997 16.7175C13.6431 17.0741 13.093 17.1504 12.6528 16.9043C10.322 15.6014 8.3983 13.6776 7.09534 11.3469C6.84925 10.9067 6.92555 10.3566 7.28216 9.99999L8.71591 8.56624C8.9674 8.31474 9.06639 7.9486 8.97588 7.60464L7.59129 2.34322ZM6.20765 2.04844C6.57364 1.87765 7.00497 2.07988 7.10776 2.47046L8.49234 7.73189C8.5376 7.90386 8.4881 8.08694 8.36236 8.21269L6.9286 9.64644C6.41379 10.1613 6.30364 10.9554 6.65891 11.5909C8.00698 14.0023 9.99735 15.9927 12.4088 17.3408C13.0443 17.696 13.8384 17.5859 14.3532 17.0711L15.787 15.6373C15.9127 15.5116 16.0958 15.4621 16.2678 15.5073L21.5292 16.8919C21.9198 16.9947 22.122 17.426 21.9512 17.792L21.0473 19.7289C20.4137 21.0868 19.0268 21.9316 17.5295 21.8717C13.6053 21.7147 9.88423 20.0855 7.1072 17.3085L6.69119 16.8925C3.91417 14.1154 2.28496 10.3944 2.12799 6.47019C2.0681 4.9729 2.91288 3.586 4.27078 2.95232L6.20765 2.04844Z" fill="black"/>
</svg>
