<svg width="24" height="24" viewBox="0 0 24 24" fill="none" xmlns="http://www.w3.org/2000/svg">
<path d="M22.7232 0.550781C23.1374 0.550781 23.4732 0.886568 23.4732 1.30078V6.60756C23.4732 7.02178 23.1374 7.35756 22.7232 7.35756C22.309 7.35756 21.9732 7.02178 21.9732 6.60756V3.109L16.3997 8.68255C16.1068 8.97544 15.6319 8.97544 15.339 8.68255C15.0461 8.38966 15.0461 7.91478 15.339 7.62189L20.9101 2.05078L17.4164 2.05078C17.0022 2.05078 16.6664 1.715 16.6664 1.30078C16.6664 0.886568 17.0022 0.550781 17.4164 0.550781H22.7232Z" fill="black"/>
<path d="M5.99645 1.5954C6.64502 1.29274 7.40939 1.65111 7.59154 2.34327L8.97612 7.60469C9.06664 7.94865 8.96765 8.3148 8.71615 8.56629L7.2824 10C6.92579 10.3567 6.84949 10.9068 7.09558 11.347C8.39854 13.6777 10.3223 15.6014 12.653 16.9044C13.0932 17.1505 13.6433 17.0742 13.9999 16.7176L15.4337 15.2838C15.6852 15.0323 16.0513 14.9333 16.3953 15.0238L21.6567 16.4084C22.3488 16.5906 22.7072 17.3549 22.4046 18.0035L21.5007 19.9404C20.7818 21.4809 19.2084 22.4393 17.5097 22.3713C13.46 22.2093 9.6198 20.528 6.75389 17.6621L6.33788 17.2461C3.47198 14.3802 1.79062 10.54 1.62863 6.49022C1.56069 4.79159 2.51907 3.21818 4.05958 2.49928L5.99645 1.5954Z" fill="black"/>
</svg>
