<svg width="24" height="24" viewBox="0 0 24 24" fill="none" xmlns="http://www.w3.org/2000/svg">
<path d="M22.7231 1.05078C22.8612 1.05078 22.9731 1.16271 22.9731 1.30078V6.60756C22.9731 6.74563 22.8612 6.85756 22.7231 6.85756C22.5851 6.85756 22.4731 6.74563 22.4731 6.60756V1.90189L16.046 8.329C15.9484 8.42663 15.7901 8.42663 15.6925 8.329C15.5948 8.23137 15.5948 8.07307 15.6925 7.97544L22.1171 1.55078L17.4163 1.55078C17.2783 1.55078 17.1663 1.43885 17.1663 1.30078C17.1663 1.16271 17.2783 1.05078 17.4163 1.05078H22.7231Z" fill="black"/>
<path fill-rule="evenodd" clip-rule="evenodd" d="M7.59154 2.34317C7.40939 1.65101 6.64502 1.29263 5.99645 1.5953L4.05958 2.49917C2.51907 3.21808 1.56069 4.79148 1.62863 6.49012C1.79062 10.5399 3.47198 14.3801 6.33788 17.246L6.75389 17.662C9.6198 20.5279 13.46 22.2092 17.5097 22.3712C19.2084 22.4392 20.7818 21.4808 21.5007 19.9403L22.4046 18.0034C22.7072 17.3548 22.3488 16.5905 21.6567 16.4083L16.3953 15.0237C16.0513 14.9332 15.6852 15.0322 15.4337 15.2837L13.9999 16.7175C13.6433 17.0741 13.0932 17.1504 12.653 16.9043C10.3223 15.6013 8.39854 13.6776 7.09558 11.3469C6.84949 10.9067 6.92579 10.3566 7.2824 9.99994L8.71615 8.56619C8.96765 8.3147 9.06664 7.94855 8.97612 7.60459L7.59154 2.34317ZM6.20789 2.04839C6.57388 1.8776 7.00521 2.07983 7.108 2.47041L8.49258 7.73184C8.53784 7.90381 8.48835 8.08689 8.3626 8.21264L6.92885 9.64639C6.41404 10.1612 6.30389 10.9553 6.65915 11.5908C8.00723 14.0023 9.9976 15.9926 12.409 17.3407C13.0445 17.696 13.8387 17.5858 14.3535 17.071L15.7872 15.6373C15.913 15.5115 16.096 15.462 16.268 15.5073L21.5294 16.8919C21.92 16.9946 22.1223 17.426 21.9515 17.792L21.0476 19.7288C20.4139 21.0867 19.027 21.9315 17.5297 21.8716C13.6056 21.7147 9.88447 20.0854 7.10745 17.3084L6.69143 16.8924C3.91441 14.1154 2.2852 10.3943 2.12823 6.47014C2.06834 4.97285 2.91312 3.58595 4.27102 2.95227L6.20789 2.04839Z" fill="black"/>
</svg>
