<svg width="24" height="24" viewBox="0 0 24 24" fill="none" xmlns="http://www.w3.org/2000/svg">
<path fill-rule="evenodd" clip-rule="evenodd" d="M3.21656 17.0085C2.65413 17.3366 1.93188 17.0755 1.70936 16.4635L1.0632 14.6866C0.5453 13.2624 0.932981 11.6664 2.04655 10.6385C4.6864 8.20175 8.14721 6.84863 11.7398 6.84863L12.2603 6.84863C15.8528 6.84863 19.3136 8.20175 21.9535 10.6385C23.0671 11.6664 23.4548 13.2624 22.9369 14.6866L22.2907 16.4635C22.0682 17.0755 21.3459 17.3366 20.7835 17.0085L16.6263 14.5835C16.3457 14.4198 16.1731 14.1194 16.1731 13.7945L16.1731 12.0008C16.1731 11.5676 15.8853 11.1871 15.4684 11.0692C13.2006 10.4278 10.7994 10.4278 8.53161 11.0692C8.11475 11.1871 7.82695 11.5676 7.82695 12.0008V13.7945C7.82695 14.1194 7.65439 14.4198 7.37375 14.5835L3.21656 17.0085ZM2.17925 16.2927C2.2952 16.6115 2.67155 16.7476 2.96463 16.5767L7.12182 14.1516C7.24884 14.0775 7.32695 13.9415 7.32695 13.7945V12.0008C7.32695 11.3439 7.76338 10.7669 8.39553 10.5881C10.7523 9.92147 13.2478 9.92147 15.6045 10.5881C16.2367 10.7669 16.6731 11.3439 16.6731 12.0008L16.6731 13.7945C16.6731 13.9415 16.7512 14.0775 16.8782 14.1516L21.0354 16.5767C21.3285 16.7476 21.7048 16.6115 21.8208 16.2927L22.467 14.5157C22.916 13.2809 22.5799 11.8972 21.6144 11.0059C19.0669 8.65441 15.7272 7.34863 12.2603 7.34863L11.7398 7.34863C8.2729 7.34863 4.93318 8.65441 2.38569 11.0059C1.42019 11.8972 1.08406 13.2809 1.5331 14.5157L2.17925 16.2927Z" fill="black"/>
</svg>
