<svg width="24" height="24" viewBox="0 0 24 24" fill="none" xmlns="http://www.w3.org/2000/svg">
<path d="M5.89073 1.36912C6.6806 1.00052 7.61148 1.43697 7.83331 2.27991L9.21789 7.54133C9.33104 7.97128 9.2073 8.42897 8.89293 8.74333L7.45918 10.1771C7.18167 10.4546 7.1223 10.8827 7.3138 11.2252C8.5942 13.5156 10.4846 15.406 12.775 16.6864C13.1176 16.8779 13.5456 16.8186 13.8231 16.541L15.2569 15.1073C15.5713 14.7929 16.0289 14.6692 16.4589 14.7823L21.7203 16.1669C22.5633 16.3887 22.9997 17.3196 22.6311 18.1095L21.7272 20.0464C20.9657 21.6782 19.2991 22.6934 17.4997 22.6214C13.3872 22.4569 9.48746 20.7495 6.57712 17.8391L6.1611 17.4231C3.25076 14.5128 1.54334 10.613 1.37883 6.50048C1.30686 4.70117 2.32205 3.03451 3.95386 2.273L5.89073 1.36912Z" fill="black"/>
<path d="M13.7199 1.71981C14.0128 1.42691 14.4877 1.4269 14.7806 1.71978L17.9068 4.84589L21.0331 1.71978C21.326 1.4269 21.8008 1.42691 22.0937 1.71981C22.3866 2.01271 22.3866 2.48758 22.0937 2.78047L18.9675 5.90653L22.0936 9.0325C22.3865 9.32538 22.3865 9.80026 22.0936 10.0932C21.8008 10.3861 21.3259 10.3861 21.033 10.0932L17.9068 6.96716L14.7807 10.0932C14.4878 10.3861 14.0129 10.3861 13.72 10.0932C13.4271 9.80026 13.4271 9.32538 13.72 9.0325L16.8461 5.90653L13.7199 2.78047C13.427 2.48758 13.427 2.01271 13.7199 1.71981Z" fill="black"/>
</svg>
