<svg width="24" height="24" viewBox="0 0 24 24" fill="none" xmlns="http://www.w3.org/2000/svg">
<path fill-rule="evenodd" clip-rule="evenodd" d="M7.83343 2.27991C7.6116 1.43697 6.68072 1.00052 5.89085 1.36912L3.95398 2.273C2.32217 3.03451 1.30698 4.70117 1.37896 6.50048C1.54346 10.613 3.25088 14.5128 6.16122 17.4231L6.57724 17.8391C9.48758 20.7495 13.3873 22.4569 17.4999 22.6214C19.2992 22.6934 20.9658 21.6782 21.7274 20.0464L22.6312 18.1095C22.9998 17.3196 22.5634 16.3887 21.7204 16.1669L16.459 14.7823C16.0291 14.6692 15.5714 14.7929 15.257 15.1073L13.8233 16.541C13.5458 16.8186 13.1177 16.8779 12.7751 16.6864C10.4848 15.406 8.59432 13.5156 7.31392 11.2252C7.12242 10.8827 7.1818 10.4546 7.4593 10.1771L8.89305 8.74333C9.20742 8.42897 9.33116 7.97128 9.21801 7.54133L7.83343 2.27991ZM6.31374 2.27531C6.53844 2.17045 6.80325 2.29461 6.86635 2.53441L8.25094 7.79583C8.27357 7.88182 8.24882 7.97335 8.18595 8.03623L6.75219 9.46998C6.15828 10.0639 6.03121 10.9801 6.44106 11.7132C7.8117 14.165 9.83537 16.1887 12.2872 17.5593C13.0203 17.9691 13.9365 17.8421 14.5304 17.2482L15.9641 15.8144C16.027 15.7515 16.1185 15.7268 16.2045 15.7494L21.4659 17.134C21.7057 17.1971 21.8299 17.4619 21.725 17.6866L20.8212 19.6235C20.2301 20.8901 18.9364 21.6781 17.5398 21.6222C13.6785 21.4677 10.0169 19.8646 7.28435 17.132L6.86833 16.716C4.13575 13.9834 2.53261 10.3219 2.37816 6.46051C2.32229 5.0639 3.11027 3.77026 4.37687 3.17918L6.31374 2.27531Z" fill="black"/>
<path d="M13.8968 1.89658C14.0921 1.70131 14.4086 1.70131 14.6039 1.89656L17.9069 5.19944L21.21 1.89656C21.4052 1.70131 21.7218 1.70131 21.9171 1.89658C22.1123 2.09185 22.1123 2.40843 21.9171 2.60369L18.6141 5.90653L21.917 9.20928C22.1122 9.40454 22.1122 9.72112 21.917 9.91639C21.7217 10.1117 21.4051 10.1117 21.2099 9.9164L17.9069 6.61362L14.604 9.9164C14.4087 10.1117 14.0922 10.1117 13.8969 9.91639C13.7016 9.72112 13.7016 9.40454 13.8969 9.20928L17.1998 5.90653L13.8968 2.60369C13.7016 2.40843 13.7015 2.09185 13.8968 1.89658Z" fill="black"/>
</svg>
