<svg width="24" height="24" viewBox="0 0 24 24" fill="none" xmlns="http://www.w3.org/2000/svg">
<path d="M15.8721 8.9032C15.4578 8.9032 15.1221 8.56741 15.1221 8.1532L15.1221 2.84642C15.1221 2.4322 15.4578 2.09642 15.8721 2.09642C16.2863 2.09642 16.6221 2.4322 16.6221 2.84642L16.6221 6.34498L22.1956 0.771428C22.4885 0.478535 22.9634 0.478534 23.2563 0.771428C23.5492 1.06432 23.5492 1.53919 23.2563 1.83209L17.6852 7.4032H21.1788C21.5931 7.4032 21.9288 7.73898 21.9288 8.1532C21.9288 8.56741 21.5931 8.9032 21.1788 8.9032L15.8721 8.9032Z" fill="black"/>
<path fill-rule="evenodd" clip-rule="evenodd" d="M8.07508 2.21597C7.81357 1.22224 6.71617 0.70772 5.78501 1.14226L3.84814 2.04613C2.12503 2.85025 1.05304 4.61017 1.12904 6.51015C1.29605 10.6855 3.02955 14.6448 5.98433 17.5996L6.40034 18.0156C9.35513 20.9704 13.3144 22.7039 17.4898 22.8709C19.3897 22.9469 21.1497 21.8749 21.9538 20.1518L22.8577 18.2149C23.2922 17.2837 22.7777 16.1863 21.7839 15.9248L16.5225 14.5402C16.0066 14.4045 15.4574 14.553 15.0801 14.9302L13.6464 16.364C13.448 16.5624 13.1419 16.6048 12.897 16.4679C10.647 15.2101 8.78985 13.3529 7.53202 11.1029C7.3951 10.858 7.43755 10.552 7.63596 10.3535L9.06971 8.91979C9.44695 8.54255 9.59543 7.99333 9.45966 7.47739L8.07508 2.21597ZM6.41934 2.50154C6.50274 2.46261 6.60104 2.5087 6.62446 2.59771L8.00905 7.85913L6.5753 9.29289C5.90228 9.9659 5.75829 11.0041 6.22272 11.8349C7.61592 14.327 9.6729 16.384 12.165 17.7772C12.9958 18.2416 14.034 18.0976 14.707 17.4246L16.1408 15.9909L21.4022 17.3754C21.4912 17.3989 21.5373 17.4972 21.4984 17.5806L20.5945 19.5174C20.046 20.6927 18.8456 21.4239 17.5497 21.3721C13.7511 21.2201 10.1491 19.6431 7.461 16.9549L7.04499 16.5389C4.35684 13.8508 2.77978 10.2488 2.62784 6.4502C2.576 5.15427 3.30718 3.95388 4.48247 3.40541L6.41934 2.50154Z" fill="black"/>
</svg>
