<svg width="24" height="24" viewBox="0 0 24 24" fill="none" xmlns="http://www.w3.org/2000/svg">
<path d="M22.7252 0.300781C23.2775 0.300781 23.7252 0.748497 23.7252 1.30078V6.60756C23.7252 7.15985 23.2775 7.60756 22.7252 7.60756C22.1729 7.60756 21.7252 7.15985 21.7252 6.60756V3.71255L16.5784 8.85933C16.1879 9.24985 15.5547 9.24985 15.1642 8.85933C14.7737 8.4688 14.7737 7.83564 15.1642 7.44511L20.3085 2.30078H17.4184C16.8661 2.30078 16.4184 1.85307 16.4184 1.30078C16.4184 0.748496 16.8661 0.300781 17.4184 0.300781H22.7252Z" fill="black"/>
<path fill-rule="evenodd" clip-rule="evenodd" d="M8.31685 2.1524C8.01566 1.00788 6.75174 0.415289 5.67929 0.915767L3.74242 1.81964C1.928 2.66637 0.79921 4.51954 0.879237 6.5202C1.04876 10.7583 2.80833 14.7772 5.80755 17.7764L6.22357 18.1924C9.22279 21.1916 13.2416 22.9512 17.4798 23.1207C19.4804 23.2008 21.3336 22.072 22.1803 20.2575L23.0842 18.3207C23.5847 17.2482 22.9921 15.9843 21.8476 15.6831L16.5861 14.2985C15.9842 14.1401 15.3435 14.3134 14.9033 14.7535L13.4696 16.1872C13.3503 16.3065 13.1662 16.3321 13.019 16.2497C10.8093 15.0145 8.98551 13.1906 7.75023 10.981C7.66791 10.8337 7.69343 10.6497 7.81273 10.5304L9.24649 9.09662C9.6866 8.65651 9.85983 8.01575 9.70143 7.41382L8.31685 2.1524ZM4.58819 3.632L6.41391 2.78L7.73074 7.78394L6.39852 9.11616C5.64641 9.86828 5.48548 11.0285 6.00451 11.9569C7.42027 14.4894 9.51056 16.5797 12.0431 17.9955C12.9715 18.5145 14.1317 18.3536 14.8838 17.6014L16.216 16.2692L21.22 17.5861L20.368 19.4118C19.8621 20.4958 18.755 21.1701 17.5597 21.1223C13.8239 20.9729 10.2815 19.4219 7.63778 16.7782L7.22176 16.3622C4.57806 13.7185 3.02707 10.176 2.87764 6.44026C2.82983 5.245 3.5042 4.13787 4.58819 3.632Z" fill="black"/>
</svg>
