<svg width="24" height="24" viewBox="0 0 24 24" fill="none" xmlns="http://www.w3.org/2000/svg">
<path fill-rule="evenodd" clip-rule="evenodd" d="M3.46851 17.4404C2.63672 17.9256 1.56857 17.5394 1.23948 16.6344L0.593322 14.8575C0.00655723 13.2439 0.445787 11.4357 1.70743 10.2711C4.43964 7.74909 8.02153 6.34863 11.7398 6.34863L12.2603 6.34863C15.9786 6.34863 19.5604 7.74909 22.2927 10.2711C23.5543 11.4357 23.9935 13.2439 23.4068 14.8575L22.7606 16.6344C22.4315 17.5394 21.3634 17.9256 20.5316 17.4404L16.3744 15.0154C15.9401 14.7621 15.6731 14.2972 15.6731 13.7945V12.0008C15.6731 11.7913 15.534 11.6073 15.3324 11.5503C13.1536 10.9341 10.8465 10.9341 8.66771 11.5503C8.46613 11.6073 8.32697 11.7913 8.32697 12.0008L8.32697 13.7945C8.32697 14.2972 8.05995 14.7621 7.62571 15.0154L3.46851 17.4404ZM2.64917 16.1218C2.65855 16.1476 2.689 16.1586 2.71271 16.1448L6.82697 13.7448L6.82697 12.0008C6.82697 11.1201 7.41203 10.3466 8.25947 10.1069C10.7052 9.41518 13.2949 9.41518 15.7406 10.1069C16.5881 10.3466 17.1731 11.1201 17.1731 12.0008V13.7448L21.2874 16.1448C21.3111 16.1586 21.3415 16.1476 21.3509 16.1218L21.9971 14.3449C22.3772 13.2994 22.0927 12.1279 21.2752 11.3733C18.8201 9.10707 15.6015 7.84863 12.2603 7.84863H11.7398C8.39861 7.84863 5.17998 9.10707 2.72485 11.3733C1.90742 12.1279 1.62284 13.2994 2.00301 14.3449L2.64917 16.1218Z" fill="black"/>
</svg>
