<svg width="24" height="25" viewBox="0 0 24 25" fill="none" xmlns="http://www.w3.org/2000/svg">
<path d="M8.99982 4C8.30946 4 7.74982 4.55964 7.74982 5.25C7.74982 5.94036 8.30946 6.5 8.99982 6.5H14.9998C15.6902 6.5 16.2498 5.94036 16.2498 5.25C16.2498 4.55964 15.6902 4 14.9998 4H8.99982Z" fill="black"/>
<path fill-rule="evenodd" clip-rule="evenodd" d="M8.00086 0C5.65374 0 3.75099 1.90265 3.75086 4.24977L3.75 20.2498C3.74987 22.5971 5.6527 24.5 8 24.5H15.9998C18.347 24.5 20.2498 22.5972 20.2498 20.25V4.25C20.2498 1.90279 18.347 0 15.9998 0H8.00086ZM6.25086 4.24991C6.25091 3.28344 7.0344 2.5 8.00086 2.5H15.9998C16.9663 2.5 17.7498 3.2835 17.7498 4.25V20.25C17.7498 21.2165 16.9663 22 15.9998 22H8C7.03347 22 6.24995 21.2164 6.25 20.2499L6.25086 4.24991Z" fill="black"/>
</svg>
