<svg width="24" height="24" viewBox="0 0 24 24" fill="none" xmlns="http://www.w3.org/2000/svg">
<path fill-rule="evenodd" clip-rule="evenodd" d="M3.46876 17.4404C2.63696 17.9256 1.56881 17.5394 1.23972 16.6344L0.593567 14.8575C0.00680137 13.2439 0.446031 11.4357 1.70767 10.2711C4.43989 7.74909 8.02177 6.34863 11.7401 6.34863L12.2605 6.34863C15.9788 6.34863 19.5607 7.74909 22.2929 10.2711C23.5545 11.4357 23.9938 13.2439 23.407 14.8575L22.7609 16.6344C22.4318 17.5394 21.3636 17.9256 20.5318 17.4404L16.3746 15.0154C15.9404 14.7621 15.6734 14.2972 15.6734 13.7945V12.0008C15.6734 11.7913 15.5342 11.6073 15.3326 11.5503C13.1538 10.9341 10.8468 10.9341 8.66796 11.5503C8.46638 11.6073 8.32721 11.7913 8.32721 12.0008L8.32721 13.7945C8.32721 14.2972 8.06019 14.7621 7.62595 15.0154L3.46876 17.4404ZM2.64941 16.1218C2.65879 16.1476 2.68924 16.1586 2.71295 16.1448L6.82721 13.7448L6.82721 12.0008C6.82721 11.1201 7.41227 10.3466 8.25971 10.1069C10.7055 9.41518 13.2951 9.41518 15.7409 10.1069C16.5883 10.3466 17.1734 11.1201 17.1734 12.0008V13.7448L21.2876 16.1448C21.3113 16.1586 21.3418 16.1476 21.3512 16.1218L21.9973 14.3449C22.3775 13.2994 22.0929 12.1279 21.2755 11.3733C18.8204 9.10707 15.6017 7.84863 12.2605 7.84863H11.7401C8.39886 7.84863 5.18022 9.10707 2.72509 11.3733C1.90767 12.1279 1.62309 13.2994 2.00326 14.3449L2.64941 16.1218Z" fill="black"/>
</svg>
