<svg width="24" height="24" viewBox="0 0 24 24" fill="none" xmlns="http://www.w3.org/2000/svg">
<path d="M16 0.5C17.9329 0.500088 19.5 2.06706 19.5 4V20C19.5 21.9329 17.9329 23.4999 16 23.5H8C6.06707 23.4999 4.5 21.9329 4.5 20L4.50098 4C4.50108 2.06709 6.06808 0.500026 8.00098 0.5H16ZM5.5498 20.5C5.78146 21.6411 6.79058 22.4999 8 22.5H16C17.2094 22.4999 18.2175 21.641 18.4492 20.5H5.5498ZM8.00098 1.5C6.62034 1.50003 5.50105 2.61936 5.50098 4L5.5 19.5H18.5V4C18.5 2.61934 17.3806 1.50009 16 1.5H8.00098ZM14 3.5C14.2761 3.5001 14.5 3.72392 14.5 4C14.5 4.27608 14.2761 4.4999 14 4.5H10C9.72386 4.5 9.5 4.27614 9.5 4C9.5 3.72386 9.72386 3.5 10 3.5H14Z" fill="black"/>
</svg>
