<svg width="24" height="24" viewBox="0 0 24 24" fill="none" xmlns="http://www.w3.org/2000/svg">
<path d="M22.7231 1.05078C22.8612 1.05078 22.9731 1.16271 22.9731 1.30078V6.60756C22.9731 6.74563 22.8612 6.85756 22.7231 6.85756C22.5851 6.85756 22.4731 6.74563 22.4731 6.60756V1.90189L16.046 8.329C15.9484 8.42663 15.7901 8.42663 15.6925 8.329C15.5948 8.23137 15.5948 8.07307 15.6925 7.97544L22.1171 1.55078L17.4163 1.55078C17.2783 1.55078 17.1663 1.43885 17.1663 1.30078C17.1663 1.16271 17.2783 1.05078 17.4163 1.05078H22.7231Z" fill="black"/>
<path d="M5.99645 1.5954C6.64502 1.29273 7.40939 1.65111 7.59154 2.34327L8.97612 7.60469C9.06664 7.94865 8.96765 8.3148 8.71615 8.56629L7.2824 10C6.92579 10.3567 6.84949 10.9068 7.09558 11.347C8.39854 13.6777 10.3223 15.6014 12.653 16.9044C13.0932 17.1505 13.6433 17.0742 13.9999 16.7176L15.4337 15.2838C15.6852 15.0323 16.0513 14.9333 16.3953 15.0238L21.6567 16.4084C22.3488 16.5906 22.7072 17.3549 22.4046 18.0035L21.5007 19.9404C20.7818 21.4809 19.2084 22.4393 17.5097 22.3713C13.46 22.2093 9.6198 20.528 6.75389 17.6621L6.33788 17.2461C3.47198 14.3802 1.79062 10.54 1.62863 6.49022C1.56069 4.79159 2.51907 3.21818 4.05958 2.49927L5.99645 1.5954Z" fill="black"/>
</svg>
