<svg width="24" height="24" viewBox="0 0 24 24" fill="none" xmlns="http://www.w3.org/2000/svg">
<path d="M12.6492 2.40171C13.1389 2.30231 13.6463 2.25 14.1667 2.25C18.3548 2.25 21.75 5.64517 21.75 9.83333C21.75 10.3537 21.6977 10.8611 21.5983 11.3508C21.5159 11.7567 21.7782 12.1526 22.1841 12.235C22.59 12.3174 22.9859 12.0551 23.0683 11.6492C23.1875 11.0619 23.25 10.4545 23.25 9.83333C23.25 4.81675 19.1833 0.75 14.1667 0.75C13.5455 0.75 12.9381 0.812462 12.3508 0.931687C11.9449 1.01409 11.6826 1.40996 11.765 1.8159C11.8474 2.22183 12.2433 2.48411 12.6492 2.40171Z" fill="black"/>
<path d="M7.52293 2.41226C7.34079 1.7201 6.57642 1.36172 5.92785 1.66439L3.99098 2.56826C2.45047 3.28717 1.49209 4.86057 1.56003 6.55921C1.72202 10.609 3.40337 14.4492 6.26927 17.3151L6.68529 17.7311C9.55119 20.597 13.3914 22.2783 17.4411 22.4403C19.1398 22.5083 20.7132 21.5499 21.4321 20.0094L22.336 18.0725C22.6386 17.4239 22.2802 16.6596 21.5881 16.4774L16.3267 15.0928C15.9827 15.0023 15.6166 15.1013 15.3651 15.3528L13.9313 16.7865C13.5747 17.1432 13.0246 17.2195 12.5844 16.9734C10.2537 15.6704 8.32994 13.7467 7.02698 11.4159C6.78089 10.9757 6.85719 10.4256 7.2138 10.069L8.64755 8.63528C8.89905 8.38379 8.99803 8.01764 8.90752 7.67368L7.52293 2.41226Z" fill="black"/>
<path d="M14 6.25016C13.5604 6.25016 13.1399 6.3255 12.7499 6.46335C12.3594 6.60139 11.9309 6.39669 11.7929 6.00616C11.6548 5.61562 11.8595 5.18713 12.2501 5.04909C12.7984 4.85529 13.3877 4.75016 14 4.75016C16.8995 4.75016 19.25 7.10067 19.25 10.0002C19.25 10.6124 19.1449 11.2018 18.9511 11.7501C18.813 12.1406 18.3845 12.3453 17.994 12.2073C17.6035 12.0693 17.3988 11.6408 17.5368 11.2502C17.6747 10.8602 17.75 10.4398 17.75 10.0002C17.75 7.92909 16.0711 6.25016 14 6.25016Z" fill="black"/>
</svg>
