<svg width="24" height="24" viewBox="0 0 24 24" fill="none" xmlns="http://www.w3.org/2000/svg">
<path d="M5.89048 1.36876C6.68035 1.00015 7.61124 1.4366 7.83306 2.27955L9.21765 7.54097C9.33079 7.97091 9.20706 8.4286 8.89269 8.74297L7.45893 10.1767C7.18143 10.4542 7.12205 10.8823 7.31356 11.2249C8.59395 13.5152 10.4844 15.4057 12.7748 16.6861C13.1173 16.8776 13.5454 16.8182 13.8229 16.5407L15.2566 15.1069C15.571 14.7926 16.0287 14.6688 16.4586 14.782L21.7201 16.1666C22.563 16.3884 22.9995 17.3193 22.6309 18.1091L21.727 20.046C20.9655 21.6778 19.2988 22.693 17.4995 22.621C13.3869 22.4565 9.48722 20.7491 6.57688 17.8388L6.16086 17.4227C3.25052 14.5124 1.54309 10.6127 1.37859 6.50011C1.30662 4.7008 2.32181 3.03414 3.95362 2.27263L5.89048 1.36876Z" fill="black"/>
<path d="M13.8964 1.89621C14.0917 1.70095 14.4083 1.70094 14.6035 1.8962L17.9066 5.19907L21.2096 1.8962C21.4049 1.70094 21.7214 1.70095 21.9167 1.89621C22.112 2.09148 22.112 2.40806 21.9167 2.60332L18.6137 5.90616L21.9166 9.20891C22.1119 9.40417 22.1119 9.72075 21.9166 9.91602C21.7214 10.1113 21.4048 10.1113 21.2095 9.91604L17.9066 6.61325L14.6036 9.91604C14.4084 10.1113 14.0918 10.1113 13.8965 9.91602C13.7013 9.72075 13.7013 9.40417 13.8965 9.20891L17.1994 5.90616L13.8965 2.60332C13.7012 2.40806 13.7012 2.09148 13.8964 1.89621Z" fill="black"/>
</svg>
