<svg width="24" height="24" viewBox="0 0 24 24" fill="none" xmlns="http://www.w3.org/2000/svg">
<path d="M5.89048 1.36876C6.68035 1.00015 7.61124 1.4366 7.83306 2.27955L9.21765 7.54097C9.33079 7.97091 9.20706 8.4286 8.89269 8.74297L7.45893 10.1767C7.18143 10.4542 7.12205 10.8823 7.31356 11.2249C8.59395 13.5152 10.4844 15.4057 12.7748 16.6861C13.1173 16.8776 13.5454 16.8182 13.8229 16.5407L15.2566 15.1069C15.571 14.7926 16.0287 14.6688 16.4586 14.782L21.7201 16.1666C22.563 16.3884 22.9995 17.3193 22.6309 18.1091L21.727 20.046C20.9655 21.6778 19.2988 22.693 17.4995 22.621C13.3869 22.4565 9.48722 20.7491 6.57688 17.8388L6.16086 17.4227C3.25052 14.5124 1.54309 10.6127 1.37859 6.50011C1.30662 4.7008 2.32181 3.03414 3.95362 2.27263L5.89048 1.36876Z" fill="black"/>
<path d="M13.7197 1.71944C14.0125 1.42654 14.4874 1.42653 14.7803 1.71942L17.9066 4.84553L21.0328 1.71942C21.3257 1.42653 21.8006 1.42654 22.0935 1.71944C22.3864 2.01234 22.3864 2.48722 22.0935 2.7801L18.9673 5.90616L22.0934 9.03213C22.3863 9.32502 22.3863 9.79989 22.0934 10.0928C21.8005 10.3857 21.3256 10.3857 21.0327 10.0928L17.9066 6.9668L14.7804 10.0928C14.4875 10.3857 14.0126 10.3857 13.7198 10.0928C13.4269 9.79989 13.4269 9.32502 13.7198 9.03213L16.8459 5.90616L13.7197 2.7801C13.4268 2.48722 13.4268 2.01234 13.7197 1.71944Z" fill="black"/>
</svg>
