<svg width="25" height="24" viewBox="0 0 25 24" fill="none" xmlns="http://www.w3.org/2000/svg">
<path fill-rule="evenodd" clip-rule="evenodd" d="M3.8838 17.8723C2.78264 18.5147 1.36859 18.0033 0.932931 16.8053L0.286775 15.0283C-0.368857 13.2254 0.121923 11.205 1.53164 9.90373C4.35621 7.29643 8.05918 5.84863 11.9032 5.84863L12.4236 5.84863C16.2676 5.84863 19.9706 7.29643 22.7951 9.90373C24.2049 11.205 24.6956 13.2254 24.04 15.0283L23.3939 16.8053C22.9582 18.0033 21.5441 18.5147 20.443 17.8723L16.2858 15.4473C15.6979 15.1044 15.3365 14.475 15.3365 13.7945V12.0249C13.2612 11.4425 11.0656 11.4425 8.99032 12.0249V13.7945C8.99032 14.475 8.62884 15.1044 8.04099 15.4473L3.8838 17.8723ZM3.0958 15.4377L6.49032 13.4576L6.49032 12.0008C6.49032 10.8964 7.224 9.9264 8.28673 9.62581C10.8215 8.90889 13.5053 8.90889 16.0401 9.62581C17.1028 9.9264 17.8365 10.8964 17.8365 12.0008V13.4576L21.231 15.4377L21.6905 14.174C22.0018 13.3179 21.7688 12.3586 21.0994 11.7407C18.7367 9.55973 15.6391 8.34863 12.4236 8.34863H11.9032C8.68766 8.34863 5.59011 9.55972 3.22734 11.7407C2.55799 12.3586 2.32495 13.3179 2.63626 14.174L3.0958 15.4377Z" fill="black"/>
</svg>
