<svg width="24" height="24" viewBox="0 0 24 24" fill="none" xmlns="http://www.w3.org/2000/svg">
<path d="M16 1C17.6568 1.00006 19 2.34318 19 4V20C19 21.6568 17.6568 22.9999 16 23H8C6.34316 23 5 21.6568 5 20L5.00098 4C5.00107 2.34321 6.34419 1 8.00098 1H16ZM8 1.5C6.61929 1.5 5.5 2.61929 5.5 4V18C5.5 19.3807 6.61929 20.5 8 20.5H16C17.3807 20.4999 18.5 19.3807 18.5 18V4C18.5 2.61933 17.3807 1.50007 16 1.5H8ZM14 3.75C14.138 3.75007 14.25 3.86197 14.25 4C14.25 4.13803 14.138 4.24993 14 4.25H10C9.86193 4.25 9.75 4.13807 9.75 4C9.75 3.86193 9.86193 3.75 10 3.75H14Z" fill="black"/>
</svg>
