<svg width="24" height="24" viewBox="0 0 24 24" fill="none" xmlns="http://www.w3.org/2000/svg">
<path fill-rule="evenodd" clip-rule="evenodd" d="M4.25086 3.9998C4.25097 1.92881 5.92987 0.25 8.00086 0.25H15.9998C18.0709 0.25 19.7498 1.92893 19.7498 4L19.7498 20C19.7498 22.0711 18.0709 23.75 15.9998 23.75L8 23.75C5.92885 23.75 4.24989 22.0709 4.25 19.9998L4.25086 3.9998ZM8.99982 3C8.44753 3 7.99982 3.44772 7.99982 4C7.99982 4.55228 8.44753 5 8.99982 5H14.9998C15.5521 5 15.9998 4.55228 15.9998 4C15.9998 3.44772 15.5521 3 14.9998 3H8.99982Z" fill="black"/>
</svg>
