<svg width="24" height="24" viewBox="0 0 24 24" fill="none" xmlns="http://www.w3.org/2000/svg">
<path d="M22.725 0.300659C23.2772 0.300659 23.725 0.748374 23.725 1.30066V6.60744C23.725 7.15973 23.2772 7.60744 22.725 7.60744C22.1727 7.60744 21.725 7.15973 21.725 6.60744V3.71243L16.5782 8.85921C16.1877 9.24973 15.5545 9.24973 15.164 8.85921C14.7734 8.46868 14.7734 7.83552 15.164 7.44499L20.3083 2.30066H17.4182C16.8659 2.30066 16.4182 1.85294 16.4182 1.30066C16.4182 0.748374 16.8659 0.300659 17.4182 0.300659H22.725Z" fill="black"/>
<path fill-rule="evenodd" clip-rule="evenodd" d="M8.3166 2.15228C8.01541 1.00776 6.75149 0.415167 5.67904 0.915645L3.74218 1.81952C1.92776 2.66624 0.798966 4.51941 0.878993 6.52008C1.04852 10.7582 2.80809 14.7771 5.80731 17.7763L6.22332 18.1923C9.22254 21.1915 13.2414 22.9511 17.4795 23.1206C19.4802 23.2006 21.3334 22.0718 22.1801 20.2574L23.084 18.3206C23.5844 17.2481 22.9918 15.9842 21.8473 15.683L16.5859 14.2984C15.984 14.14 15.3432 14.3132 14.9031 14.7534L13.4693 16.1871C13.35 16.3064 13.166 16.3319 13.0187 16.2496C10.8091 15.0143 8.98527 13.1905 7.74999 10.9809C7.66766 10.8336 7.69319 10.6496 7.81249 10.5303L9.24624 9.0965C9.68636 8.65638 9.85959 8.01562 9.70119 7.4137L8.3166 2.15228ZM4.58795 3.63188L6.41367 2.77988L7.73049 7.78382L6.39828 9.11604C5.64616 9.86815 5.48524 11.0284 6.00426 11.9568C7.42002 14.4893 9.51032 16.5796 12.0428 17.9953C12.9712 18.5144 14.1314 18.3534 14.8836 17.6013L16.2158 16.2691L21.2197 17.5859L20.3677 19.4116C19.8619 20.4956 18.7547 21.17 17.5595 21.1222C13.8237 20.9728 10.2812 19.4218 7.63754 16.7781L7.22152 16.3621C4.57782 13.7184 3.02683 10.1759 2.87739 6.44014C2.82958 5.24488 3.50396 4.13774 4.58795 3.63188Z" fill="black"/>
</svg>
