<svg width="24" height="26" viewBox="0 0 24 26" fill="none" xmlns="http://www.w3.org/2000/svg">
<path d="M8.99994 4.75C8.30958 4.75 7.74994 5.30964 7.74994 6C7.74994 6.69036 8.30958 7.25 8.99994 7.25H14.9999C15.6903 7.25 16.2499 6.69036 16.2499 6C16.2499 5.30964 15.6903 4.75 14.9999 4.75H8.99994Z" fill="black"/>
<path fill-rule="evenodd" clip-rule="evenodd" d="M8.00098 0.75C5.65386 0.75 3.75111 2.65265 3.75098 4.99977L3.75012 20.9998C3.75 23.3471 5.65282 25.25 8.00012 25.25H16C18.3472 25.25 20.25 23.3472 20.25 21V5C20.25 2.65279 18.3472 0.75 16 0.75H8.00098ZM6.25098 4.99991C6.25104 4.03344 7.03452 3.25 8.00098 3.25H16C16.9665 3.25 17.75 4.0335 17.75 5V21C17.75 21.9665 16.9665 22.75 16 22.75H8.00012C7.03359 22.75 6.25007 21.9664 6.25012 20.9999L6.25098 4.99991Z" fill="black"/>
</svg>
