<svg width="24" height="24" viewBox="0 0 24 24" fill="none" xmlns="http://www.w3.org/2000/svg">
<path d="M22.723 0.550659C23.1372 0.550659 23.473 0.886446 23.473 1.30066V6.60744C23.473 7.02166 23.1372 7.35744 22.723 7.35744C22.3087 7.35744 21.973 7.02166 21.973 6.60744V3.10888L16.3994 8.68243C16.1065 8.97532 15.6316 8.97532 15.3387 8.68243C15.0459 8.38954 15.0459 7.91466 15.3387 7.62177L20.9099 2.05066L17.4162 2.05066C17.002 2.05066 16.6662 1.71487 16.6662 1.30066C16.6662 0.886446 17.002 0.550659 17.4162 0.550659H22.723Z" fill="black"/>
<path fill-rule="evenodd" clip-rule="evenodd" d="M8.07483 2.2159C7.81332 1.22217 6.71592 0.70765 5.78476 1.14219L3.8479 2.04606C2.12478 2.85018 1.05279 4.6101 1.12879 6.51008C1.29581 10.6854 3.0293 14.6447 5.98408 17.5995L6.4001 18.0155C9.35488 20.9703 13.3142 22.7038 17.4895 22.8708C19.3895 22.9468 21.1494 21.8748 21.9535 20.1517L22.8574 18.2148C23.2919 17.2837 22.7774 16.1863 21.7837 15.9248L16.5223 14.5402C16.0063 14.4044 15.4571 14.5529 15.0799 14.9301L13.6461 16.3639C13.4477 16.5623 13.1417 16.6047 12.8967 16.4678C10.6467 15.21 8.78961 13.3529 7.53177 11.1029C7.39486 10.8579 7.43731 10.5519 7.63571 10.3535L9.06947 8.91972C9.44671 8.54248 9.59519 7.99326 9.45942 7.47732L8.07483 2.2159ZM6.41909 2.50147C6.5025 2.46254 6.6008 2.50863 6.62422 2.59764L8.00881 7.85906L6.57505 9.29282C5.90204 9.96583 5.75804 11.004 6.22248 11.8348C7.61568 14.3269 9.67266 16.3839 12.1648 17.7771C12.9956 18.2416 14.0338 18.0976 14.7068 17.4245L16.1405 15.9908L21.402 17.3754C21.491 17.3988 21.5371 17.4971 21.4981 17.5805L20.5943 19.5174C20.0458 20.6927 18.8454 21.4238 17.5495 21.372C13.7509 21.2201 10.1489 19.643 7.46076 16.9549L7.04474 16.5388C4.3566 13.8507 2.77954 10.2487 2.62759 6.45013C2.57576 5.1542 3.30693 3.95381 4.48222 3.40534L6.41909 2.50147Z" fill="black"/>
</svg>
