<svg width="24" height="24" viewBox="0 0 24 24" fill="none" xmlns="http://www.w3.org/2000/svg">
<path d="M12.5995 2.1567C13.1054 2.054 13.6295 2 14.1667 2C18.4929 2 22 5.5071 22 9.83333C22 10.3705 21.946 10.8946 21.8433 11.4005C21.7884 11.6712 21.9632 11.9351 22.2338 11.99C22.5045 12.0449 22.7684 11.8701 22.8233 11.5995C22.9392 11.0284 23 10.4377 23 9.83333C23 4.95482 19.0452 1 14.1667 1C13.5623 1 12.9716 1.06077 12.4005 1.17669C12.1299 1.23162 11.9551 1.49554 12.01 1.76616C12.0649 2.03679 12.3288 2.21164 12.5995 2.1567Z" fill="black"/>
<path d="M7.52293 2.41226C7.34079 1.7201 6.57642 1.36172 5.92785 1.66439L3.99098 2.56826C2.45047 3.28717 1.49209 4.86057 1.56003 6.55921C1.72202 10.609 3.40337 14.4492 6.26927 17.3151L6.68529 17.7311C9.55119 20.597 13.3914 22.2783 17.4411 22.4403C19.1398 22.5083 20.7132 21.5499 21.4321 20.0094L22.336 18.0725C22.6386 17.4239 22.2802 16.6596 21.5881 16.4774L16.3267 15.0928C15.9827 15.0023 15.6166 15.1013 15.3651 15.3528L13.9313 16.7865C13.5747 17.1432 13.0246 17.2195 12.5844 16.9734C10.2537 15.6704 8.32994 13.7467 7.02698 11.4159C6.78089 10.9757 6.85719 10.4256 7.2138 10.069L8.64755 8.63528C8.89905 8.38379 8.99803 8.01764 8.90752 7.67368L7.52293 2.41226Z" fill="black"/>
<path d="M14 6.00016C13.5316 6.00016 13.083 6.08047 12.6666 6.22764C12.4063 6.31966 12.1206 6.1832 12.0286 5.92284C11.9366 5.66249 12.073 5.37682 12.3334 5.2848C12.8553 5.10032 13.4165 5.00016 14 5.00016C16.7614 5.00016 19 7.23874 19 10.0002C19 10.5837 18.8998 11.1448 18.7154 11.6668C18.6233 11.9271 18.3377 12.0636 18.0773 11.9716C17.817 11.8796 17.6805 11.5939 17.7725 11.3335C17.9197 10.9171 18 10.4686 18 10.0002C18 7.79102 16.2091 6.00016 14 6.00016Z" fill="black"/>
</svg>
