<svg width="24" height="24" viewBox="0 0 24 24" fill="none" xmlns="http://www.w3.org/2000/svg">
<path d="M22.723 0.0506592C23.4134 0.0506592 23.973 0.610303 23.973 1.30066V6.60744C23.973 7.2978 23.4134 7.85744 22.723 7.85744C22.0327 7.85744 21.473 7.2978 21.473 6.60744V4.31598L16.753 9.03598C16.2649 9.52414 15.4734 9.52414 14.9853 9.03598C14.4971 8.54783 14.4971 7.75637 14.9853 7.26821L19.7028 2.55066H17.4163C16.7259 2.55066 16.1663 1.99101 16.1663 1.30066C16.1663 0.610303 16.7259 0.0506592 17.4163 0.0506592H22.723Z" fill="black"/>
<path fill-rule="evenodd" clip-rule="evenodd" d="M8.55837 2.08865C8.2175 0.79335 6.78707 0.122685 5.57332 0.689099L3.63646 1.59297C1.73073 2.48231 0.54514 4.42873 0.629194 6.53007C0.801231 10.831 2.58687 14.9094 5.63053 17.9531L6.04655 18.3691C9.09021 21.4127 13.1686 23.1984 17.4695 23.3704C19.5709 23.4545 21.5173 22.2689 22.4066 20.3631L23.3105 18.4263C23.8769 17.2125 23.2062 15.7821 21.9109 15.4412L16.6495 14.0566C15.9616 13.8756 15.2293 14.0736 14.7263 14.5766L13.2926 16.0103C13.2524 16.0505 13.1904 16.0591 13.1407 16.0314C10.9714 14.8187 9.18092 13.0282 7.96821 10.8589C7.94047 10.8092 7.94907 10.7472 7.98927 10.707L9.42302 9.27328C9.92601 8.77029 10.124 8.03799 9.94296 7.35008L8.55837 2.08865ZM4.69367 3.85843L6.24809 3.13303L7.45218 7.70858L6.2215 8.93926C5.39029 9.77048 5.21244 11.0527 5.78605 12.0788C7.22437 14.6516 9.34797 16.7752 11.9208 18.2136C12.9469 18.7872 14.2291 18.6093 15.0603 17.7781L16.291 16.5474L20.8666 17.7515L20.1412 19.3059C19.6779 20.2986 18.664 20.9162 17.5694 20.8724C13.8965 20.7255 10.4136 19.2006 7.81432 16.6013L7.3983 16.1853C4.79904 13.586 3.27411 10.1031 3.1272 6.43015C3.08341 5.33557 3.70099 4.32168 4.69367 3.85843Z" fill="black"/>
</svg>
