<svg width="24" height="24" viewBox="0 0 24 24" fill="none" xmlns="http://www.w3.org/2000/svg">
<path d="M21.6153 17.8301C21.9113 17.1958 21.5608 16.4483 20.8839 16.2702L15.8808 14.9536C15.543 14.8647 15.1835 14.9619 14.9366 15.2088L13.5732 16.5722C13.2439 16.9015 12.7359 16.972 12.3295 16.7447C10.1182 15.5085 8.29297 13.6833 7.05677 11.472C6.82953 11.0655 6.89998 10.5576 7.22928 10.2283L8.59265 8.86491C8.8396 8.61796 8.9368 8.25843 8.84792 7.92069L7.5313 2.91754C7.35317 2.24065 6.60567 1.89018 5.97141 2.18617L4.12961 3.04568C2.6534 3.73458 1.73501 5.24232 1.80012 6.87006C1.95447 10.7288 3.55653 14.3879 6.28726 17.1186L6.68286 17.5142C9.4136 20.245 13.0727 21.847 16.9314 22.0014C18.5592 22.0665 20.0669 21.1481 20.7558 19.6719L21.6153 17.8301Z" fill="black"/>
</svg>
