<svg width="24" height="24" viewBox="0 0 24 24" fill="none" xmlns="http://www.w3.org/2000/svg">
<path d="M15.8721 8.6532C15.5959 8.6532 15.3721 8.42934 15.3721 8.1532L15.3721 2.84642C15.3721 2.57027 15.5959 2.34642 15.8721 2.34642C16.1482 2.34642 16.3721 2.57027 16.3721 2.84642L16.3721 6.94853L22.3724 0.948204C22.5676 0.752942 22.8842 0.752942 23.0795 0.948204C23.2748 1.14347 23.2748 1.46005 23.0795 1.65531L17.0816 7.6532L21.1788 7.6532C21.455 7.6532 21.6788 7.87705 21.6788 8.1532C21.6788 8.42934 21.455 8.6532 21.1788 8.6532L15.8721 8.6532Z" fill="black"/>
<path fill-rule="evenodd" clip-rule="evenodd" d="M7.83331 2.27959C7.61148 1.43665 6.6806 1.0002 5.89073 1.36881L3.95386 2.27268C2.32205 3.03419 1.30686 4.70085 1.37883 6.50016C1.54334 10.6127 3.25076 14.5124 6.1611 17.4228L6.57712 17.8388C9.48746 20.7491 13.3872 22.4566 17.4997 22.6211C19.2991 22.693 20.9657 21.6779 21.7272 20.046L22.6311 18.1092C22.9997 17.3193 22.5633 16.3884 21.7203 16.1666L16.4589 14.782C16.0289 14.6689 15.5713 14.7926 15.2569 15.107L13.8231 16.5407C13.5456 16.8182 13.1176 16.8776 12.775 16.6861C10.4846 15.4057 8.5942 13.5153 7.3138 11.2249C7.1223 10.8824 7.18167 10.4543 7.45918 10.1768L8.89293 8.74302C9.2073 8.42865 9.33104 7.97096 9.21789 7.54102L7.83331 2.27959ZM6.31361 2.27499C6.53831 2.17013 6.80313 2.29429 6.86623 2.53409L8.25082 7.79551C8.27345 7.8815 8.2487 7.97304 8.18583 8.03591L6.75207 9.46966C6.15816 10.0636 6.03109 10.9797 6.44094 11.7129C7.81157 14.1647 9.83525 16.1883 12.287 17.559C13.0202 17.9688 13.9363 17.8417 14.5302 17.2478L15.964 15.8141C16.0269 15.7512 16.1184 15.7265 16.2044 15.7491L21.4658 17.1337C21.7056 17.1968 21.8298 17.4616 21.7249 17.6863L20.821 19.6232C20.23 20.8898 18.9363 21.6777 17.5397 21.6219C13.6783 21.4674 10.0168 19.8643 7.28423 17.1317L6.86821 16.7157C4.13563 13.9831 2.53249 10.3216 2.37804 6.46019C2.32217 5.06359 3.11015 3.76994 4.37675 3.17886L6.31361 2.27499Z" fill="black"/>
</svg>
