<svg width="24" height="24" viewBox="0 0 24 24" fill="none" xmlns="http://www.w3.org/2000/svg">
<path d="M15.8718 8.9032C15.4576 8.9032 15.1218 8.56741 15.1218 8.1532L15.1218 2.84642C15.1218 2.4322 15.4576 2.09642 15.8718 2.09642C16.286 2.09642 16.6218 2.4322 16.6218 2.84642L16.6218 6.34498L22.1954 0.771428C22.4883 0.478535 22.9631 0.478534 23.256 0.771428C23.5489 1.06432 23.5489 1.53919 23.256 1.83209L17.6849 7.4032H21.1786C21.5928 7.4032 21.9286 7.73898 21.9286 8.1532C21.9286 8.56741 21.5928 8.9032 21.1786 8.9032L15.8718 8.9032Z" fill="black"/>
<path fill-rule="evenodd" clip-rule="evenodd" d="M8.07483 2.21597C7.81332 1.22224 6.71592 0.70772 5.78476 1.14226L3.8479 2.04613C2.12478 2.85025 1.05279 4.61017 1.12879 6.51015C1.29581 10.6855 3.0293 14.6448 5.98408 17.5996L6.4001 18.0156C9.35488 20.9704 13.3142 22.7039 17.4895 22.8709C19.3895 22.9469 21.1494 21.8749 21.9535 20.1518L22.8574 18.2149C23.2919 17.2837 22.7774 16.1863 21.7837 15.9248L16.5223 14.5402C16.0063 14.4045 15.4571 14.553 15.0799 14.9302L13.6461 16.364C13.4477 16.5624 13.1417 16.6048 12.8967 16.4679C10.6467 15.2101 8.78961 13.3529 7.53177 11.1029C7.39486 10.858 7.43731 10.552 7.63571 10.3535L9.06947 8.91979C9.44671 8.54255 9.59519 7.99333 9.45942 7.47739L8.07483 2.21597ZM6.41909 2.50154C6.5025 2.46261 6.6008 2.5087 6.62422 2.59771L8.00881 7.85913L6.57505 9.29289C5.90204 9.9659 5.75804 11.0041 6.22248 11.8349C7.61568 14.327 9.67266 16.384 12.1648 17.7772C12.9956 18.2416 14.0338 18.0976 14.7068 17.4246L16.1405 15.9909L21.402 17.3754C21.491 17.3989 21.5371 17.4972 21.4981 17.5806L20.5943 19.5174C20.0458 20.6927 18.8454 21.4239 17.5495 21.3721C13.7509 21.2201 10.1489 19.6431 7.46076 16.9549L7.04474 16.5389C4.3566 13.8508 2.77954 10.2488 2.62759 6.4502C2.57576 5.15427 3.30693 3.95388 4.48222 3.40541L6.41909 2.50154Z" fill="black"/>
</svg>
