<svg width="24" height="24" viewBox="0 0 24 24" fill="none" xmlns="http://www.w3.org/2000/svg">
<path d="M22.725 0.300659C23.2772 0.300659 23.725 0.748374 23.725 1.30066V6.60744C23.725 7.15973 23.2772 7.60744 22.725 7.60744C22.1727 7.60744 21.725 7.15973 21.725 6.60744V3.71243L16.5782 8.85921C16.1877 9.24973 15.5545 9.24973 15.164 8.85921C14.7734 8.46868 14.7734 7.83552 15.164 7.44499L20.3083 2.30066H17.4182C16.8659 2.30066 16.4182 1.85294 16.4182 1.30066C16.4182 0.748374 16.8659 0.300659 17.4182 0.300659H22.725Z" fill="black"/>
<path d="M5.9962 1.59528C6.64478 1.29261 7.40915 1.65099 7.59129 2.34315L8.97588 7.60457C9.06639 7.94853 8.9674 8.31467 8.71591 8.56617L7.28216 9.99992C6.92555 10.3565 6.84925 10.9066 7.09534 11.3468C8.3983 13.6775 10.322 15.6013 12.6528 16.9043C13.093 17.1503 13.6431 17.074 13.9997 16.7174L15.4334 15.2837C15.6849 15.0322 16.0511 14.9332 16.395 15.0237L21.6564 16.4083C22.3486 16.5904 22.707 17.3548 22.4043 18.0034L21.5004 19.9403C20.7815 21.4808 19.2081 22.4391 17.5095 22.3712C13.4597 22.2092 9.61955 20.5279 6.75365 17.662L6.33763 17.2459C3.47173 14.38 1.79038 10.5399 1.62839 6.4901C1.56044 4.79146 2.51883 3.21806 4.05934 2.49915L5.9962 1.59528Z" fill="black"/>
</svg>
