<svg width="24" height="24" viewBox="0 0 24 24" fill="none" xmlns="http://www.w3.org/2000/svg">
<path fill-rule="evenodd" clip-rule="evenodd" d="M0.123117 8.43565C0 9.21298 0 10.142 0 12C0 13.858 0 14.787 0.123117 15.5643C0.800832 19.8433 4.15673 23.1992 8.43565 23.8769C9.21298 24 10.142 24 12 24C13.858 24 14.787 24 15.5643 23.8769C19.8433 23.1992 23.1992 19.8433 23.8769 15.5643C24 14.787 24 13.858 24 12C24 10.142 24 9.21298 23.8769 8.43565C23.1992 4.15673 19.8433 0.800832 15.5643 0.123117C14.787 0 13.858 0 12 0C10.142 0 9.21298 0 8.43565 0.123117C4.15673 0.800832 0.800832 4.15673 0.123117 8.43565ZM5.51075 15.7017C5.0951 15.9441 4.56134 15.7511 4.39689 15.2989L3.91937 13.9857C3.53662 12.9331 3.82313 11.7537 4.64609 10.9941C6.597 9.19322 9.15462 8.19323 11.8096 8.19323H12.1943C14.8493 8.19323 17.4069 9.19322 19.3578 10.9941C20.1808 11.7537 20.4673 12.9331 20.0845 13.9857L19.607 15.2989C19.4426 15.7511 18.9088 15.9441 18.4932 15.7017L15.4209 13.9095C15.2135 13.7885 15.086 13.5665 15.086 13.3264V12.0008C15.086 11.6807 14.8733 11.3995 14.5652 11.3123C12.8892 10.8383 11.1147 10.8383 9.43871 11.3123C9.13064 11.3995 8.91795 11.6807 8.91795 12.0008L8.91794 13.3264C8.91794 13.5665 8.79042 13.7885 8.58302 13.9095L5.51075 15.7017Z" fill="black"/>
</svg>
