<svg width="24" height="24" viewBox="0 0 24 24" fill="none" xmlns="http://www.w3.org/2000/svg">
<path fill-rule="evenodd" clip-rule="evenodd" d="M5.99657 1.59554C6.64515 1.29288 7.40951 1.65125 7.59166 2.34341L8.97624 7.60483C9.06676 7.94879 8.96777 8.31494 8.71628 8.56643L7.28252 10.0002C6.92592 10.3568 6.84962 10.9069 7.09571 11.3471C8.39866 13.6778 10.3224 15.6016 12.6531 16.9045C13.0933 17.1506 13.6434 17.0743 14 16.7177L15.4338 15.2839C15.6853 15.0325 16.0514 14.9335 16.3954 15.024L21.6568 16.4086C22.349 16.5907 22.7073 17.3551 22.4047 18.0037L21.5008 19.9405C20.7819 21.481 19.2085 22.4394 17.5099 22.3715C13.4601 22.2095 9.61992 20.5281 6.75402 17.6622L6.338 17.2462C3.4721 14.3803 1.79075 10.5401 1.62876 6.49036C1.56081 4.79173 2.5192 3.21832 4.0597 2.49942L5.99657 1.59554ZM7.10812 2.47066C7.00534 2.08007 6.574 1.87784 6.20801 2.04864L4.27115 2.95251C2.91325 3.58619 2.06847 4.97309 2.12836 6.47038C2.28532 10.3945 3.91453 14.1156 6.69155 16.8927L7.10757 17.3087C9.88459 20.0857 13.6057 21.7149 17.5298 21.8719C19.0271 21.9318 20.414 21.087 21.0477 19.7291L21.9516 17.7922C22.1224 17.4262 21.9202 16.9949 21.5296 16.8921L16.2681 15.5075C16.0962 15.4623 15.9131 15.5118 15.7873 15.6375L14.3536 17.0713C13.8388 17.5861 13.0446 17.6962 12.4091 17.3409C9.99772 15.9929 8.00735 14.0025 6.65927 11.5911C6.30401 10.9556 6.41416 10.1614 6.92897 9.64663L8.36272 8.21288C8.48847 8.08713 8.53796 7.90406 8.49271 7.73208L7.10812 2.47066Z" fill="black"/>
</svg>
