<svg width="24" height="24" viewBox="0 0 24 24" fill="none" xmlns="http://www.w3.org/2000/svg">
<path fill-rule="evenodd" clip-rule="evenodd" d="M0.123117 8.43565C0 9.21298 0 10.142 0 12C0 13.858 0 14.787 0.123117 15.5643C0.800832 19.8433 4.15673 23.1992 8.43565 23.8769C9.21298 24 10.142 24 12 24C13.858 24 14.787 24 15.5643 23.8769C19.8433 23.1992 23.1992 19.8433 23.8769 15.5643C24 14.787 24 13.858 24 12C24 10.142 24 9.21298 23.8769 8.43565C23.1992 4.15673 19.8433 0.800832 15.5643 0.123117C14.787 0 13.858 0 12 0C10.142 0 9.21298 0 8.43565 0.123117C4.15673 0.800832 0.800832 4.15673 0.123117 8.43565ZM13.0736 5.70833C12.7519 5.70833 12.4386 5.74066 12.1365 5.80198C11.6629 5.89811 11.2011 5.59212 11.105 5.11853C11.0088 4.64494 11.3148 4.18309 11.7884 4.08695C12.2044 4.00251 12.6343 3.95833 13.0736 3.95833C16.6251 3.95833 19.5041 6.83739 19.5041 10.3889C19.5041 10.8282 19.46 11.2581 19.3755 11.6741C19.2794 12.1477 18.8175 12.4536 18.3439 12.3575C17.8704 12.2614 17.5644 11.7995 17.6605 11.3259C17.7218 11.0239 17.7541 10.7106 17.7541 10.3889C17.7541 7.80389 15.6586 5.70833 13.0736 5.70833ZM7.54757 4.86748C8.02705 4.64372 8.59213 4.90866 8.72679 5.42036L9.64985 8.92797C9.71773 9.18594 9.64349 9.46055 9.45487 9.64917L8.49903 10.605C8.28766 10.8164 8.24244 11.1424 8.3883 11.4034C9.24942 12.9437 10.5208 14.2151 12.0612 15.0762C12.3221 15.2221 12.6482 15.1769 12.8595 14.9655L13.8154 14.0097C14.004 13.821 14.2786 13.7468 14.5366 13.8147L18.0442 14.7377C18.5559 14.8724 18.8208 15.4375 18.5971 15.917L17.9945 17.2082C17.501 18.2657 16.421 18.9235 15.255 18.8769C12.5342 18.768 9.95426 17.6385 8.02885 15.713L7.7515 15.4357C5.82609 13.5103 4.6965 10.9303 4.58766 8.20953C4.54102 7.04355 5.19888 5.96353 6.25632 5.47006L7.54757 4.86748ZM12.2541 8.4958C12.4745 8.41789 12.7125 8.37511 12.9625 8.37511C14.1361 8.37511 15.0875 9.3265 15.0875 10.5001C15.0875 10.75 15.0447 10.9881 14.9668 11.2085C14.8057 11.6641 15.0446 12.1641 15.5002 12.3251C15.9558 12.4861 16.4557 12.2473 16.6168 11.7917C16.7599 11.3866 16.8375 10.9514 16.8375 10.5001C16.8375 8.36001 15.1026 6.62511 12.9625 6.62511C12.5111 6.62511 12.076 6.70264 11.6709 6.84583C11.2153 7.00687 10.9764 7.50678 11.1375 7.9624C11.2985 8.41803 11.7984 8.65684 12.2541 8.4958Z" fill="black"/>
</svg>
