<svg width="24" height="24" viewBox="0 0 24 24" fill="none" xmlns="http://www.w3.org/2000/svg">
<path d="M5.89073 1.36912C6.6806 1.00052 7.61148 1.43697 7.83331 2.27991L9.21789 7.54133C9.33104 7.97128 9.2073 8.42897 8.89293 8.74333L7.45918 10.1771C7.18167 10.4546 7.1223 10.8827 7.3138 11.2252C8.5942 13.5156 10.4846 15.406 12.775 16.6864C13.1176 16.8779 13.5456 16.8186 13.8231 16.541L15.2569 15.1073C15.5713 14.7929 16.0289 14.6692 16.4589 14.7823L21.7203 16.1669C22.5633 16.3887 22.9997 17.3196 22.6311 18.1095L21.7272 20.0464C20.9657 21.6782 19.2991 22.6934 17.4997 22.6214C13.3872 22.4569 9.48746 20.7495 6.57712 17.8391L6.1611 17.4231C3.25076 14.5128 1.54334 10.613 1.37883 6.50048C1.30686 4.70117 2.32205 3.03451 3.95386 2.273L5.89073 1.36912Z" fill="black"/>
<path d="M14.0735 2.07335C14.1711 1.97572 14.3294 1.97572 14.427 2.07335L17.9068 5.55298L21.3866 2.07335C21.4843 1.97572 21.6425 1.97572 21.7402 2.07335C21.8378 2.17099 21.8378 2.32928 21.7402 2.42691L18.2604 5.90653L21.7401 9.38606C21.8377 9.48369 21.8377 9.64198 21.7401 9.73961C21.6424 9.83725 21.4842 9.83725 21.3865 9.73962L17.9068 6.26007L14.4271 9.73962C14.3295 9.83725 14.1712 9.83725 14.0736 9.73961C13.9759 9.64198 13.9759 9.48369 14.0736 9.38606L17.5533 5.90653L14.0735 2.42691C13.9758 2.32928 13.9758 2.17099 14.0735 2.07335Z" fill="black"/>
</svg>
