<svg width="24" height="24" viewBox="0 0 24 24" fill="none" xmlns="http://www.w3.org/2000/svg">
<path fill-rule="evenodd" clip-rule="evenodd" d="M3.59474 17.6564C2.62826 18.2202 1.38716 17.7714 1.00478 16.7198L0.358628 14.9429C-0.262571 13.2346 0.202435 11.3204 1.53811 10.0874C4.31651 7.52276 7.95893 6.09863 11.7401 6.09863L12.2605 6.09863C16.0417 6.09863 19.6841 7.52276 22.4625 10.0874C23.7982 11.3204 24.2632 13.2346 23.642 14.9429L22.9958 16.7198C22.6134 17.7714 21.3723 18.2202 20.4059 17.6564L16.2487 15.2313C15.7376 14.9332 15.4234 14.3861 15.4234 13.7945V12.0008C15.4234 11.9032 15.3585 11.8174 15.2646 11.7909C13.1303 11.1872 10.8703 11.1872 8.73601 11.7909C8.64207 11.8174 8.57722 11.9032 8.57722 12.0008V13.7945C8.57722 14.3861 8.26297 14.9332 7.75193 15.2313L3.59474 17.6564ZM2.80007 15.8045L6.57722 13.6012V12.0008C6.57722 11.0083 7.23659 10.1365 8.19168 9.86638C10.6819 9.16203 13.3187 9.16203 15.8089 9.86638C16.764 10.1365 17.4234 11.0083 17.4234 12.0008V13.6012L21.2005 15.8045L21.7624 14.2594C22.1081 13.3086 21.8493 12.2432 21.1059 11.557C18.697 9.3334 15.5389 8.09863 12.2605 8.09863H11.7401C8.46171 8.09863 5.30362 9.33339 2.89468 11.557C2.15128 12.2432 1.89248 13.3086 2.23821 14.2594L2.80007 15.8045Z" fill="black"/>
</svg>
