<svg width="24" height="24" viewBox="0 0 24 24" fill="none" xmlns="http://www.w3.org/2000/svg">
<path d="M22.7232 0.550781C23.1374 0.550781 23.4732 0.886568 23.4732 1.30078V6.60756C23.4732 7.02178 23.1374 7.35756 22.7232 7.35756C22.309 7.35756 21.9732 7.02178 21.9732 6.60756V3.109L16.3997 8.68255C16.1068 8.97544 15.6319 8.97544 15.339 8.68255C15.0461 8.38966 15.0461 7.91478 15.339 7.62189L20.9101 2.05078L17.4164 2.05078C17.0022 2.05078 16.6664 1.715 16.6664 1.30078C16.6664 0.886568 17.0022 0.550781 17.4164 0.550781H22.7232Z" fill="black"/>
<path fill-rule="evenodd" clip-rule="evenodd" d="M8.07508 2.21602C7.81357 1.22229 6.71617 0.707772 5.78501 1.14231L3.84814 2.04618C2.12503 2.8503 1.05304 4.61022 1.12904 6.51021C1.29605 10.6856 3.02955 14.6448 5.98433 17.5996L6.40034 18.0156C9.35513 20.9704 13.3144 22.7039 17.4898 22.8709C19.3897 22.9469 21.1497 21.8749 21.9538 20.1518L22.8577 18.215C23.2922 17.2838 22.7777 16.1864 21.7839 15.9249L16.5225 14.5403C16.0066 14.4045 15.4574 14.553 15.0801 14.9303L13.6464 16.364C13.448 16.5624 13.1419 16.6049 12.897 16.4679C10.647 15.2101 8.78985 13.353 7.53202 11.103C7.3951 10.8581 7.43755 10.552 7.63596 10.3536L9.06971 8.91985C9.44695 8.5426 9.59543 7.99338 9.45966 7.47745L8.07508 2.21602ZM6.41934 2.50159C6.50274 2.46266 6.60104 2.50875 6.62446 2.59776L8.00905 7.85919L6.5753 9.29294C5.90228 9.96595 5.75829 11.0041 6.22272 11.8349C7.61592 14.3271 9.6729 16.384 12.165 17.7772C12.9958 18.2417 14.034 18.0977 14.707 17.4247L16.1408 15.9909L21.4022 17.3755C21.4912 17.3989 21.5373 17.4972 21.4984 17.5806L20.5945 19.5175C20.046 20.6928 18.8456 21.424 17.5497 21.3721C13.7511 21.2202 10.1491 19.6431 7.461 16.955L7.04499 16.539C4.35684 13.8508 2.77978 10.2488 2.62784 6.45025C2.576 5.15432 3.30718 3.95393 4.48247 3.40546L6.41934 2.50159Z" fill="black"/>
</svg>
