<svg width="24" height="24" viewBox="0 0 24 24" fill="none" xmlns="http://www.w3.org/2000/svg">
<path d="M15.8718 9.4032C15.1815 9.4032 14.6218 8.84355 14.6218 8.1532L14.6218 2.84642C14.6218 2.15606 15.1815 1.59642 15.8718 1.59642C16.5622 1.59642 17.1218 2.15606 17.1218 2.84642L17.1218 5.13787L21.8418 0.417874C22.33 -0.0702807 23.1214 -0.0702812 23.6096 0.417874C24.0977 0.906029 24.0977 1.69749 23.6096 2.18564L18.892 6.9032L21.1786 6.9032C21.869 6.9032 22.4286 7.46284 22.4286 8.1532C22.4286 8.84355 21.869 9.4032 21.1786 9.4032L15.8718 9.4032Z" fill="black"/>
<path d="M5.9962 1.59535C6.64478 1.29268 7.40915 1.65106 7.59129 2.34322L8.97588 7.60464C9.06639 7.9486 8.9674 8.31474 8.71591 8.56624L7.28216 9.99999C6.92555 10.3566 6.84925 10.9067 7.09534 11.3469C8.3983 13.6776 10.322 15.6014 12.6528 16.9043C13.093 17.1504 13.6431 17.0741 13.9997 16.7175L15.4334 15.2838C15.6849 15.0323 16.0511 14.9333 16.395 15.0238L21.6564 16.4084C22.3486 16.5905 22.707 17.3549 22.4043 18.0035L21.5004 19.9403C20.7815 21.4808 19.2081 22.4392 17.5095 22.3713C13.4597 22.2093 9.61955 20.5279 6.75365 17.662L6.33763 17.246C3.47173 14.3801 1.79038 10.5399 1.62839 6.49017C1.56044 4.79153 2.51883 3.21813 4.05934 2.49922L5.9962 1.59535Z" fill="black"/>
</svg>
