<svg width="24" height="24" viewBox="0 0 24 24" fill="none" xmlns="http://www.w3.org/2000/svg">
<path d="M15.8721 9.1532C15.3198 9.1532 14.8721 8.70548 14.8721 8.1532L14.8721 2.84642C14.8721 2.29413 15.3198 1.84642 15.8721 1.84642C16.4243 1.84642 16.8721 2.29413 16.8721 2.84642L16.8721 5.74143L22.0188 0.594651C22.4094 0.204127 23.0425 0.204127 23.4331 0.594651C23.8236 0.985175 23.8236 1.61834 23.4331 2.00886L18.2887 7.1532L21.1788 7.1532C21.7311 7.1532 22.1788 7.60091 22.1788 8.1532C22.1788 8.70548 21.7311 9.1532 21.1788 9.1532L15.8721 9.1532Z" fill="black"/>
<path fill-rule="evenodd" clip-rule="evenodd" d="M8.31685 2.15235C8.01566 1.00783 6.75174 0.415237 5.67929 0.915715L3.74242 1.81959C1.928 2.66631 0.79921 4.51948 0.879237 6.52015C1.04876 10.7583 2.80833 14.7771 5.80755 17.7763L6.22357 18.1924C9.22279 21.1916 13.2416 22.9511 17.4798 23.1207C19.4804 23.2007 21.3336 22.0719 22.1803 20.2575L23.0842 18.3206C23.5847 17.2482 22.9921 15.9843 21.8476 15.6831L16.5861 14.2985C15.9842 14.1401 15.3435 14.3133 14.9033 14.7534L13.4696 16.1872C13.3503 16.3065 13.1662 16.332 13.019 16.2497C10.8093 15.0144 8.98551 13.1906 7.75023 10.9809C7.66791 10.8337 7.69343 10.6496 7.81273 10.5303L9.24649 9.09657C9.6866 8.65645 9.85983 8.01569 9.70143 7.41377L8.31685 2.15235ZM4.58819 3.63195L6.41391 2.77995L7.73074 7.78389L6.39852 9.11611C5.64641 9.86822 5.48548 11.0284 6.00451 11.9569C7.42027 14.4894 9.51056 16.5796 12.0431 17.9954C12.9715 18.5144 14.1317 18.3535 14.8838 17.6014L16.216 16.2692L21.22 17.586L20.368 19.4117C19.8621 20.4957 18.755 21.1701 17.5597 21.1223C13.8239 20.9728 10.2815 19.4219 7.63778 16.7781L7.22176 16.3621C4.57806 13.7184 3.02707 10.176 2.87764 6.44021C2.82983 5.24495 3.5042 4.13781 4.58819 3.63195Z" fill="black"/>
</svg>
