<svg width="24" height="25" viewBox="0 0 24 25" fill="none" xmlns="http://www.w3.org/2000/svg">
<path d="M16 0C18.3471 8.83875e-05 20.25 1.90284 20.25 4.25V20.25C20.25 22.5972 18.3471 24.4999 16 24.5H8C5.65285 24.4999 3.75 22.5971 3.75 20.25L3.75098 4.25C3.7511 1.9029 5.65388 2.57037e-05 8.00098 0H16ZM6.25 20.25C6.25 21.2164 7.03357 21.9999 8 22H16C16.9664 21.9999 17.75 21.2164 17.75 20.25V19.5H6.25V20.25ZM8.00098 2.5C7.03454 2.50003 6.25103 3.28356 6.25098 4.25L6.25 17H17.75V4.25C17.75 3.28356 16.9664 2.50009 16 2.5H8.00098ZM14 3.5C14.4141 3.5001 14.75 3.83585 14.75 4.25C14.75 4.66415 14.4141 4.9999 14 5H10C9.58579 5 9.25 4.66421 9.25 4.25C9.25 3.83579 9.58579 3.5 10 3.5H14Z" fill="black"/>
</svg>
