<svg width="24" height="24" viewBox="0 0 24 24" fill="none" xmlns="http://www.w3.org/2000/svg">
<path d="M12.6492 2.40171C13.1389 2.30231 13.6463 2.25 14.1667 2.25C18.3548 2.25 21.75 5.64517 21.75 9.83333C21.75 10.3537 21.6977 10.8611 21.5983 11.3508C21.5159 11.7567 21.7782 12.1526 22.1841 12.235C22.59 12.3174 22.9859 12.0551 23.0683 11.6492C23.1875 11.0619 23.25 10.4545 23.25 9.83333C23.25 4.81675 19.1833 0.75 14.1667 0.75C13.5455 0.75 12.9381 0.812462 12.3508 0.931687C11.9449 1.01409 11.6826 1.40996 11.765 1.8159C11.8474 2.22183 12.2433 2.48411 12.6492 2.40171Z" fill="black"/>
<path fill-rule="evenodd" clip-rule="evenodd" d="M5.78476 1.14222C6.71592 0.707675 7.81332 1.2222 8.07483 2.21593L9.45942 7.47735C9.59519 7.99328 9.44671 8.54251 9.06947 8.91975L7.63571 10.3535C7.43731 10.5519 7.39486 10.858 7.53177 11.1029C8.78961 13.3529 10.6467 15.21 12.8967 16.4678C13.1417 16.6048 13.4477 16.5623 13.6461 16.3639L15.0799 14.9302C15.4571 14.5529 16.0063 14.4044 16.5223 14.5402L21.7837 15.9248C22.7774 16.1863 23.2919 17.2837 22.8574 18.2149L21.9535 20.1517C21.1494 21.8748 19.3895 22.9468 17.4895 22.8708C13.3142 22.7038 9.35488 20.9703 6.4001 18.0155L5.98408 17.5995C3.0293 14.6447 1.29581 10.6855 1.12879 6.51011C1.05279 4.61012 2.12478 2.85021 3.8479 2.04609L5.78476 1.14222ZM6.62422 2.59767C6.6008 2.50866 6.5025 2.46257 6.41909 2.50149L4.48222 3.40536C3.30693 3.95383 2.57576 5.15422 2.62759 6.45016C2.77954 10.2487 4.3566 13.8507 7.04474 16.5389L7.46076 16.9549C10.1489 19.643 13.7509 21.2201 17.5495 21.372C18.8454 21.4239 20.0458 20.6927 20.5943 19.5174L21.4981 17.5805C21.5371 17.4971 21.491 17.3988 21.402 17.3754L16.1405 15.9908L14.7068 17.4246C14.0338 18.0976 12.9956 18.2416 12.1648 17.7771C9.67266 16.3839 7.61568 14.327 6.22248 11.8348C5.75804 11.004 5.90204 9.96585 6.57505 9.29284L8.00881 7.85909L6.62422 2.59767Z" fill="black"/>
<path d="M14 6.25016C13.5604 6.25016 13.1399 6.3255 12.7499 6.46335C12.3594 6.60139 11.9309 6.39669 11.7929 6.00616C11.6548 5.61562 11.8595 5.18713 12.2501 5.04909C12.7984 4.85529 13.3877 4.75016 14 4.75016C16.8995 4.75016 19.25 7.10067 19.25 10.0002C19.25 10.6124 19.1449 11.2018 18.9511 11.7501C18.813 12.1406 18.3845 12.3453 17.994 12.2073C17.6035 12.0693 17.3988 11.6408 17.5368 11.2502C17.6747 10.8602 17.75 10.4398 17.75 10.0002C17.75 7.92909 16.0711 6.25016 14 6.25016Z" fill="black"/>
</svg>
