<svg width="24" height="24" viewBox="0 0 24 24" fill="none" xmlns="http://www.w3.org/2000/svg">
<path fill-rule="evenodd" clip-rule="evenodd" d="M4.25086 3.9998C4.25097 1.92881 5.92987 0.25 8.00086 0.25H15.9998C18.0709 0.25 19.7498 1.92893 19.7498 4L19.7498 20C19.7498 22.0711 18.0709 23.75 15.9998 23.75L8 23.75C5.92885 23.75 4.24989 22.0709 4.25 19.9998L4.25086 3.9998ZM8.99982 3.25C8.5856 3.25 8.24982 3.58579 8.24982 4C8.24982 4.41421 8.5856 4.75 8.99982 4.75H14.9998C15.414 4.75 15.7498 4.41421 15.7498 4C15.7498 3.58579 15.414 3.25 14.9998 3.25H8.99982Z" fill="black"/>
</svg>
