<svg width="24" height="24" viewBox="0 0 24 24" fill="none" xmlns="http://www.w3.org/2000/svg">
<path d="M12.7487 2.89171C13.2058 2.79892 13.6799 2.75 14.1667 2.75C18.0787 2.75 21.25 5.92132 21.25 9.83333C21.25 10.3201 21.2011 10.7942 21.1083 11.2513C20.971 11.9279 21.4081 12.5877 22.0846 12.725C22.7612 12.8624 23.421 12.4252 23.5583 11.7487C23.6842 11.1288 23.75 10.4881 23.75 9.83333C23.75 4.5406 19.4594 0.25 14.1667 0.25C13.5119 0.25 12.8712 0.315847 12.2513 0.44168C11.5748 0.579014 11.1376 1.2388 11.275 1.91536C11.4123 2.59192 12.0721 3.02905 12.7487 2.89171Z" fill="black"/>
<path fill-rule="evenodd" clip-rule="evenodd" d="M5.57332 0.689376C6.78707 0.122963 8.2175 0.793627 8.55837 2.08893L9.94296 7.35035C10.124 8.03827 9.92601 8.77056 9.42302 9.27355L7.98927 10.7073C7.94907 10.7475 7.94047 10.8095 7.96821 10.8591C9.18092 13.0284 10.9714 14.819 13.1407 16.0317C13.1904 16.0594 13.2524 16.0508 13.2926 16.0106L14.7263 14.5769C15.2293 14.0739 15.9616 13.8759 16.6495 14.0569L21.9109 15.4415C23.2062 15.7824 23.8769 17.2128 23.3105 18.4266L22.4066 20.3634C21.5173 22.2691 19.5709 23.4547 17.4695 23.3707C13.1686 23.1986 9.09021 21.413 6.04655 18.3693L5.63053 17.9533C2.58687 14.9097 0.801231 10.8313 0.629194 6.53035C0.54514 4.42901 1.73073 2.48258 3.63646 1.59325L5.57332 0.689376ZM6.24809 3.13331L4.69367 3.85871C3.70099 4.32196 3.08341 5.33584 3.1272 6.43043C3.27411 10.1034 4.79904 13.5863 7.3983 16.1856L7.81432 16.6016C10.4136 19.2008 13.8965 20.7258 17.5695 20.8727C18.664 20.9165 19.6779 20.2989 20.1412 19.3062L20.8666 17.7518L16.291 16.5477L15.0603 17.7784C14.2291 18.6096 12.9469 18.7874 11.9208 18.2138C9.34797 16.7755 7.22437 14.6519 5.78605 12.0791C5.21244 11.053 5.39029 9.77076 6.2215 8.93954L7.45218 7.70886L6.24809 3.13331Z" fill="black"/>
<path d="M14 6.75016C13.6179 6.75016 13.2538 6.81557 12.9166 6.93477C12.2657 7.16483 11.5515 6.82367 11.3215 6.17278C11.0914 5.52188 11.4325 4.80773 12.0834 4.57767C12.6845 4.36521 13.3302 4.25016 14 4.25016C17.1756 4.25016 19.75 6.82453 19.75 10.0002C19.75 10.67 19.6349 11.3156 19.4225 11.9167C19.1924 12.5676 18.4783 12.9088 17.8274 12.6787C17.1765 12.4487 16.8353 11.7345 17.0654 11.0836C17.1846 10.7464 17.25 10.3823 17.25 10.0002C17.25 8.20524 15.7949 6.75016 14 6.75016Z" fill="black"/>
</svg>
