<svg width="24" height="24" viewBox="0 0 24 24" fill="none" xmlns="http://www.w3.org/2000/svg">
<path d="M22.7233 0.0507812C23.4136 0.0507812 23.9733 0.610425 23.9733 1.30078V6.60756C23.9733 7.29792 23.4136 7.85756 22.7233 7.85756C22.0329 7.85756 21.4733 7.29792 21.4733 6.60756V4.31611L16.7533 9.0361C16.2651 9.52426 15.4737 9.52426 14.9855 9.0361C14.4974 8.54795 14.4974 7.75649 14.9855 7.26834L19.7031 2.55078H17.4165C16.7261 2.55078 16.1665 1.99114 16.1665 1.30078C16.1665 0.610425 16.7261 0.0507812 17.4165 0.0507812H22.7233Z" fill="black"/>
<path d="M5.99645 1.5954C6.64502 1.29274 7.40939 1.65111 7.59154 2.34327L8.97612 7.60469C9.06664 7.94865 8.96765 8.3148 8.71615 8.56629L7.2824 10C6.92579 10.3567 6.84949 10.9068 7.09558 11.347C8.39854 13.6777 10.3223 15.6014 12.653 16.9044C13.0932 17.1505 13.6433 17.0742 13.9999 16.7176L15.4337 15.2838C15.6852 15.0323 16.0513 14.9333 16.3953 15.0238L21.6567 16.4084C22.3488 16.5906 22.7072 17.3549 22.4046 18.0035L21.5007 19.9404C20.7818 21.4809 19.2084 22.4393 17.5097 22.3713C13.46 22.2093 9.6198 20.528 6.75389 17.6621L6.33788 17.2461C3.47198 14.3802 1.79062 10.54 1.62863 6.49022C1.56069 4.79159 2.51907 3.21818 4.05958 2.49928L5.99645 1.5954Z" fill="black"/>
</svg>
