<svg width="24" height="24" viewBox="0 0 24 24" fill="none" xmlns="http://www.w3.org/2000/svg">
<path d="M16 0C18.2091 8.83816e-05 20 1.79092 20 4V20C20 22.2091 18.2091 23.9999 16 24H8C5.79092 23.9999 4 22.2091 4 20L4.00098 4C4.0011 1.79096 5.79194 2.56919e-05 8.00098 0H16ZM6 20C6 21.1045 6.8955 21.9999 8 22H16C17.0356 21.9999 17.887 21.2127 17.9893 20.2041L18 20H6ZM8.00098 2C6.89647 2.00003 6.00104 2.89549 6.00098 4L6 18H18V4C18 2.89549 17.1045 2.00009 16 2H8.00098ZM14 3.25C14.4141 3.2501 14.75 3.58585 14.75 4C14.75 4.41415 14.4141 4.7499 14 4.75H10C9.58579 4.75 9.25 4.41421 9.25 4C9.25 3.58579 9.58579 3.25 10 3.25H14Z" fill="black"/>
</svg>
