<svg width="24" height="24" viewBox="0 0 24 24" fill="none" xmlns="http://www.w3.org/2000/svg">
<path d="M8.99982 3.75C8.86175 3.75 8.74982 3.86193 8.74982 4C8.74982 4.13807 8.86175 4.25 8.99982 4.25H14.9998C15.1379 4.25 15.2498 4.13807 15.2498 4C15.2498 3.86193 15.1379 3.75 14.9998 3.75H8.99982Z" fill="black"/>
<path fill-rule="evenodd" clip-rule="evenodd" d="M8.00086 0.75C6.20601 0.75 4.75096 2.20497 4.75086 3.99982L4.75 19.9998C4.7499 21.7948 6.20501 23.25 8 23.25H15.9998C17.7948 23.25 19.2498 21.7949 19.2498 20V4C19.2498 2.20507 17.7948 0.75 15.9998 0.75H8.00086ZM5.25086 3.99985C5.25094 2.48113 6.48214 1.25 8.00086 1.25H15.9998C17.5186 1.25 18.7498 2.48122 18.7498 4V20C18.7498 21.5188 17.5186 22.75 15.9998 22.75H8C6.48116 22.75 5.24992 21.5187 5.25 19.9998L5.25086 3.99985Z" fill="black"/>
</svg>
