<svg width="24" height="24" viewBox="0 0 24 24" fill="none" xmlns="http://www.w3.org/2000/svg">
<path d="M16 1C17.6568 1.00006 19 2.34318 19 4V20C19 21.6568 17.6568 22.9999 16 23H8C6.34316 23 5 21.6568 5 20L5.00098 4C5.00107 2.34321 6.34419 1 8.00098 1H16ZM8.25 2.5C7.2835 2.5 6.5 3.2835 6.5 4.25V17.75C6.5 18.7165 7.2835 19.5 8.25 19.5H15.75C16.7164 19.4999 17.5 18.7165 17.5 17.75V4.25C17.5 3.28354 16.7164 2.50007 15.75 2.5H8.25ZM14 4.375C14.3451 4.37507 14.625 4.65486 14.625 5C14.625 5.34514 14.3451 5.62493 14 5.625H10C9.65482 5.625 9.375 5.34518 9.375 5C9.375 4.65482 9.65482 4.375 10 4.375H14Z" fill="black"/>
</svg>
