<svg width="24" height="24" viewBox="0 0 24 24" fill="none" xmlns="http://www.w3.org/2000/svg">
<path d="M22.7233 0.0507812C23.4136 0.0507812 23.9733 0.610425 23.9733 1.30078V6.60756C23.9733 7.29792 23.4136 7.85756 22.7233 7.85756C22.0329 7.85756 21.4733 7.29792 21.4733 6.60756V4.31611L16.7533 9.0361C16.2651 9.52426 15.4737 9.52426 14.9855 9.0361C14.4974 8.54795 14.4974 7.75649 14.9855 7.26834L19.7031 2.55078H17.4165C16.7261 2.55078 16.1665 1.99114 16.1665 1.30078C16.1665 0.610425 16.7261 0.0507812 17.4165 0.0507812H22.7233Z" fill="black"/>
<path fill-rule="evenodd" clip-rule="evenodd" d="M8.55862 2.08878C8.21775 0.793472 6.78731 0.122808 5.57357 0.689221L3.6367 1.59309C1.73098 2.48243 0.545384 4.42885 0.629438 6.53019C0.801476 10.8311 2.58711 14.9095 5.63078 17.9532L6.04679 18.3692C9.09045 21.4129 13.1688 23.1985 17.4698 23.3705C19.5711 23.4546 21.5175 22.269 22.4069 20.3633L23.3107 18.4264C23.8772 17.2127 23.2065 15.7822 21.9112 15.4413L16.6498 14.0568C15.9619 13.8757 15.2296 14.0737 14.7266 14.5767L13.2928 16.0105C13.2526 16.0507 13.1906 16.0593 13.141 16.0315C10.9717 14.8188 9.18117 13.0283 7.96845 10.859C7.94071 10.8094 7.94931 10.7474 7.98951 10.7072L9.42327 9.2734C9.92625 8.77041 10.1242 8.03811 9.9432 7.3502L8.55862 2.08878ZM4.69391 3.85855L6.24834 3.13315L7.45243 7.7087L6.22175 8.93938C5.39053 9.7706 5.21268 11.0528 5.78629 12.0789C7.22461 14.6518 9.34821 16.7754 11.9211 18.2137C12.9471 18.7873 14.2294 18.6094 15.0606 17.7782L16.2913 16.5475L20.8668 17.7516L20.1414 19.306C19.6782 20.2987 18.6643 20.9163 17.5697 20.8725C13.8967 20.7256 10.4138 19.2007 7.81456 16.6014L7.39854 16.1854C4.79928 13.5861 3.27436 10.1032 3.12744 6.43027C3.08366 5.33569 3.70123 4.3218 4.69391 3.85855Z" fill="black"/>
</svg>
