<svg width="24" height="24" viewBox="0 0 24 24" fill="none" xmlns="http://www.w3.org/2000/svg">
<path fill-rule="evenodd" clip-rule="evenodd" d="M8.0752 2.21641C7.81369 1.22268 6.71629 0.708164 5.78513 1.1427L3.84826 2.04658C2.12515 2.8507 1.05316 4.61061 1.12916 6.5106C1.29617 10.686 3.02967 14.6452 5.98445 17.6L6.40047 18.016C9.35525 20.9708 13.3145 22.7043 17.4899 22.8713C19.3899 22.9473 21.1498 21.8753 21.9539 20.1522L22.8578 18.2153C23.2923 17.2842 22.7778 16.1868 21.7841 15.9253L16.5226 14.5407C16.0067 14.4049 15.4575 14.5534 15.0802 14.9306L13.6465 16.3644C13.4481 16.5628 13.142 16.6053 12.8971 16.4683C10.6471 15.2105 8.78998 13.3534 7.53214 11.1034C7.39522 10.8585 7.43767 10.5524 7.63608 10.354L9.06983 8.92024C9.44707 8.54299 9.59556 7.99377 9.45978 7.47784L8.0752 2.21641ZM6.41946 2.50198C6.50287 2.46306 6.60116 2.50914 6.62459 2.59815L8.00917 7.85958L6.57542 9.29333C5.90241 9.96634 5.75841 11.0045 6.22284 11.8353C7.61604 14.3274 9.67303 16.3844 12.1652 17.7776C12.9959 18.2421 14.0341 18.0981 14.7071 17.4251L16.1409 15.9913L21.4023 17.3759C21.4913 17.3993 21.5374 17.4976 21.4985 17.581L20.5946 19.5179C20.0462 20.6932 18.8458 21.4244 17.5498 21.3725C13.7513 21.2206 10.1493 19.6435 7.46113 16.9554L7.04511 16.5394C4.35697 13.8512 2.7799 10.2492 2.62796 6.45065C2.57612 5.15471 3.3073 3.95432 4.48259 3.40585L6.41946 2.50198Z" fill="black"/>
<path d="M13.72 1.71993C14.0129 1.42703 14.4878 1.42702 14.7807 1.71991L17.9069 4.84602L21.0332 1.71991C21.3261 1.42702 21.801 1.42703 22.0939 1.71993C22.3867 2.01283 22.3867 2.48771 22.0938 2.78059L18.9676 5.90665L22.0937 9.03262C22.3866 9.32551 22.3866 9.80038 22.0938 10.0933C21.8009 10.3862 21.326 10.3862 21.0331 10.0933L17.9069 6.96729L14.7808 10.0933C14.4879 10.3862 14.013 10.3862 13.7201 10.0933C13.4272 9.80038 13.4272 9.32551 13.7201 9.03262L16.8463 5.90665L13.72 2.78059C13.4272 2.48771 13.4271 2.01283 13.72 1.71993Z" fill="black"/>
</svg>
