<svg width="24" height="24" viewBox="0 0 24 24" fill="none" xmlns="http://www.w3.org/2000/svg">
<path fill-rule="evenodd" clip-rule="evenodd" d="M5.82212 1.43797C6.61199 1.06937 7.54288 1.50582 7.7647 2.34876L9.14929 7.61018C9.26243 8.04013 9.1387 8.49781 8.82433 8.81218L7.39058 10.2459C7.11307 10.5234 7.05369 10.9515 7.2452 11.2941C8.52559 13.5844 10.416 15.4749 12.7064 16.7553C13.049 16.9468 13.477 16.8874 13.7545 16.6099L15.1883 15.1761C15.5027 14.8618 15.9603 14.738 16.3903 14.8512L21.6517 16.2358C22.4947 16.4576 22.9311 17.3885 22.5625 18.1783L21.6586 20.1152C20.8971 21.747 19.2305 22.7622 17.4311 22.6902C13.3186 22.5257 9.41886 20.8183 6.50852 17.908L6.0925 17.492C3.18216 14.5816 1.47473 10.6819 1.31023 6.56933C1.23826 4.77002 2.25345 3.10336 3.88526 2.34184L5.82212 1.43797ZM6.79763 2.60325C6.73452 2.36346 6.46971 2.2393 6.24501 2.34416L4.30814 3.24803C3.04155 3.8391 2.25357 5.13275 2.30943 6.52936C2.46389 10.3907 4.06702 14.0523 6.79961 16.7848L7.21562 17.2009C9.9482 19.9334 13.6097 21.5366 17.4711 21.691C18.8677 21.7469 20.1614 20.9589 20.7524 19.6923L21.6563 17.7555C21.7612 17.5308 21.637 17.2659 21.3972 17.2028L16.1358 15.8183C16.0498 15.7956 15.9583 15.8204 15.8954 15.8833L14.4616 17.317C13.8677 17.9109 12.9516 18.038 12.2184 17.6281C9.76665 16.2575 7.74297 14.2338 6.37233 11.782C5.96248 11.0489 6.08956 10.1327 6.68347 9.53883L8.11722 8.10508C8.1801 8.0422 8.20484 7.95066 8.18221 7.86468L6.79763 2.60325Z" fill="black"/>
</svg>
