<svg width="24" height="24" viewBox="0 0 24 24" fill="none" xmlns="http://www.w3.org/2000/svg">
<path fill-rule="evenodd" clip-rule="evenodd" d="M5.9962 1.5953C6.64478 1.29263 7.40915 1.65101 7.59129 2.34317L8.97588 7.60459C9.06639 7.94854 8.9674 8.31469 8.71591 8.56619L7.28216 9.99994C6.92555 10.3565 6.84925 10.9067 7.09534 11.3469C8.3983 13.6776 10.322 15.6013 12.6528 16.9043C13.093 17.1504 13.6431 17.0741 13.9997 16.7175L15.4334 15.2837C15.6849 15.0322 16.0511 14.9332 16.395 15.0237L21.6564 16.4083C22.3486 16.5905 22.707 17.3548 22.4043 18.0034L21.5004 19.9403C20.7815 21.4808 19.2081 22.4392 17.5095 22.3712C13.4597 22.2092 9.61955 20.5279 6.75365 17.662L6.33763 17.246C3.47173 14.3801 1.79038 10.5399 1.62839 6.49012C1.56044 4.79148 2.51883 3.21807 4.05934 2.49917L5.9962 1.5953ZM7.10776 2.47041C7.00497 2.07983 6.57364 1.8776 6.20765 2.04839L4.27078 2.95226C2.91288 3.58595 2.0681 4.97285 2.12799 6.47014C2.28496 10.3943 3.91417 14.1154 6.69119 16.8924L7.1072 17.3084C9.88423 20.0854 13.6053 21.7147 17.5295 21.8716C19.0268 21.9315 20.4137 21.0867 21.0473 19.7288L21.9512 17.792C22.122 17.426 21.9198 16.9946 21.5292 16.8919L16.2678 15.5073C16.0958 15.462 15.9127 15.5115 15.787 15.6373L14.3532 17.071C13.8384 17.5858 13.0443 17.696 12.4088 17.3407C9.99735 15.9926 8.00698 14.0023 6.65891 11.5908C6.30364 10.9553 6.41379 10.1612 6.9286 9.64639L8.36236 8.21263C8.4881 8.08689 8.5376 7.90381 8.49234 7.73183L7.10776 2.47041Z" fill="black"/>
</svg>
