<svg width="24" height="24" viewBox="0 0 24 24" fill="none" xmlns="http://www.w3.org/2000/svg">
<path fill-rule="evenodd" clip-rule="evenodd" d="M0.123117 8.43565C0 9.21298 0 10.142 0 12C0 13.858 0 14.787 0.123117 15.5643C0.800832 19.8433 4.15673 23.1992 8.43565 23.8769C9.21298 24 10.142 24 12 24C13.858 24 14.787 24 15.5643 23.8769C19.8433 23.1992 23.1992 19.8433 23.8769 15.5643C24 14.787 24 13.858 24 12C24 10.142 24 9.21298 23.8769 8.43565C23.1992 4.15673 19.8433 0.800832 15.5643 0.123117C14.787 0 13.858 0 12 0C10.142 0 9.21298 0 8.43565 0.123117C4.15673 0.800832 0.800832 4.15673 0.123117 8.43565ZM13.0736 5.08333C12.7099 5.08333 12.3549 5.1199 12.0122 5.18947C11.8769 5.21694 11.7449 5.12951 11.7175 4.9942C11.69 4.85889 11.7774 4.72693 11.9127 4.69946C12.288 4.62328 12.6763 4.58333 13.0736 4.58333C16.2799 4.58333 18.8791 7.18257 18.8791 10.3889C18.8791 10.7862 18.8392 11.1744 18.763 11.5497C18.7355 11.685 18.6036 11.7725 18.4683 11.745C18.333 11.7175 18.2455 11.5856 18.273 11.4503C18.3426 11.1075 18.3791 10.7526 18.3791 10.3889C18.3791 7.45871 16.0038 5.08333 13.0736 5.08333ZM7.54757 4.86748C8.02705 4.64372 8.59213 4.90866 8.72679 5.42036L9.64985 8.92797C9.71773 9.18594 9.64349 9.46055 9.45487 9.64917L8.49903 10.605C8.28766 10.8164 8.24244 11.1424 8.3883 11.4034C9.24942 12.9437 10.5208 14.2151 12.0612 15.0762C12.3221 15.2221 12.6482 15.1769 12.8595 14.9655L13.8154 14.0097C14.004 13.821 14.2786 13.7468 14.5366 13.8147L18.0442 14.7377C18.5559 14.8724 18.8208 15.4375 18.5971 15.917L17.9945 17.2082C17.501 18.2657 16.421 18.9235 15.255 18.8769C12.5342 18.768 9.95426 17.6385 8.02885 15.713L7.7515 15.4357C5.82609 13.5103 4.6965 10.9303 4.58766 8.20953C4.54102 7.04355 5.19888 5.96353 6.25632 5.47006L7.54757 4.86748ZM12.0458 7.90652C12.3322 7.8053 12.6406 7.75011 12.9625 7.75011C14.4813 7.75011 15.7125 8.98133 15.7125 10.5001C15.7125 10.822 15.6573 11.1304 15.5561 11.4168C15.51 11.547 15.5783 11.6898 15.7085 11.7358C15.8386 11.7818 15.9815 11.7136 16.0275 11.5834C16.1474 11.2443 16.2125 10.8795 16.2125 10.5001C16.2125 8.70518 14.7574 7.25011 12.9625 7.25011C12.5831 7.25011 12.2183 7.31523 11.8792 7.4351C11.749 7.48112 11.6808 7.62395 11.7268 7.75413C11.7728 7.88431 11.9156 7.95254 12.0458 7.90652Z" fill="black"/>
</svg>
