<svg width="24" height="24" viewBox="0 0 24 24" fill="none" xmlns="http://www.w3.org/2000/svg">
<path fill-rule="evenodd" clip-rule="evenodd" d="M0.123117 8.43565C0 9.21298 0 10.142 0 12C0 13.858 0 14.787 0.123117 15.5643C0.800832 19.8433 4.15673 23.1992 8.43565 23.8769C9.21298 24 10.142 24 12 24C13.858 24 14.787 24 15.5643 23.8769C19.8433 23.1992 23.1992 19.8433 23.8769 15.5643C24 14.787 24 13.858 24 12C24 10.142 24 9.21298 23.8769 8.43565C23.1992 4.15673 19.8433 0.800832 15.5643 0.123117C14.787 0 13.858 0 12 0C10.142 0 9.21298 0 8.43565 0.123117C4.15673 0.800832 0.800832 4.15673 0.123117 8.43565ZM13.0736 5.45833C12.7351 5.45833 12.4051 5.49236 12.0868 5.55697C11.7485 5.62564 11.4186 5.40708 11.35 5.0688C11.2813 4.73052 11.4999 4.40062 11.8381 4.33196C12.2378 4.25082 12.6511 4.20833 13.0736 4.20833C16.487 4.20833 19.2541 6.97546 19.2541 10.3889C19.2541 10.8114 19.2117 11.2246 19.1305 11.6243C19.0618 11.9626 18.732 12.1812 18.3937 12.1125C18.0554 12.0438 17.8368 11.7139 17.9055 11.3757C17.9701 11.0573 18.0041 10.7274 18.0041 10.3889C18.0041 7.66582 15.7967 5.45833 13.0736 5.45833ZM7.54757 4.86748C8.02705 4.64372 8.59213 4.90866 8.72679 5.42036L9.64985 8.92797C9.71773 9.18594 9.64349 9.46055 9.45487 9.64917L8.49903 10.605C8.28766 10.8164 8.24244 11.1424 8.3883 11.4034C9.24942 12.9437 10.5208 14.2151 12.0612 15.0762C12.3221 15.2221 12.6482 15.1769 12.8595 14.9655L13.8154 14.0097C14.004 13.821 14.2786 13.7468 14.5366 13.8147L18.0442 14.7377C18.5559 14.8724 18.8208 15.4375 18.5971 15.917L17.9945 17.2082C17.501 18.2657 16.421 18.9235 15.255 18.8769C12.5342 18.768 9.95426 17.6385 8.02885 15.713L7.7515 15.4357C5.82609 13.5103 4.6965 10.9303 4.58766 8.20953C4.54102 7.04355 5.19888 5.96353 6.25632 5.47006L7.54757 4.86748ZM12.1708 8.26009C12.4176 8.17285 12.6838 8.12511 12.9625 8.12511C14.2741 8.12511 15.3375 9.18843 15.3375 10.5001C15.3375 10.7788 15.2897 11.045 15.2025 11.2918C15.0875 11.6173 15.258 11.9744 15.5835 12.0894C15.9089 12.2044 16.266 12.0338 16.381 11.7084C16.5149 11.3296 16.5875 10.9227 16.5875 10.5001C16.5875 8.49808 14.9645 6.87511 12.9625 6.87511C12.5399 6.87511 12.1329 6.94767 11.7542 7.08154C11.4287 7.19657 11.2582 7.55365 11.3732 7.87909C11.4882 8.20454 11.8453 8.37512 12.1708 8.26009Z" fill="black"/>
</svg>
