<svg width="24" height="24" viewBox="0 0 24 24" fill="none" xmlns="http://www.w3.org/2000/svg">
<path fill-rule="evenodd" clip-rule="evenodd" d="M7.59166 2.34341C7.40951 1.65125 6.64515 1.29288 5.99657 1.59554L4.0597 2.49942C2.5192 3.21832 1.56081 4.79173 1.62876 6.49036C1.79075 10.5401 3.4721 14.3803 6.338 17.2462L6.75402 17.6622C9.61992 20.5281 13.4601 22.2095 17.5099 22.3715C19.2085 22.4394 20.7819 21.481 21.5008 19.9405L22.4047 18.0037C22.7073 17.3551 22.349 16.5907 21.6568 16.4086L16.3954 15.024C16.0514 14.9335 15.6853 15.0325 15.4338 15.2839L14 16.7177C13.6434 17.0743 13.0933 17.1506 12.6531 16.9045C10.3224 15.6016 8.39866 13.6778 7.09571 11.3471C6.84962 10.9069 6.92592 10.3568 7.28252 10.0002L8.71628 8.56643C8.96777 8.31494 9.06676 7.94879 8.97624 7.60483L7.59166 2.34341ZM6.20801 2.04864C6.57401 1.87784 7.00534 2.08007 7.10812 2.47066L8.49271 7.73208C8.53796 7.90406 8.48847 8.08713 8.36272 8.21288L6.92897 9.64663C6.41416 10.1614 6.30401 10.9556 6.65927 11.5911C8.00735 14.0025 9.99772 15.9929 12.4091 17.3409C13.0446 17.6962 13.8388 17.5861 14.3536 17.0713L15.7873 15.6375C15.9131 15.5118 16.0962 15.4623 16.2681 15.5075L21.5296 16.8921C21.9202 16.9949 22.1224 17.4262 21.9516 17.7922L21.0477 19.7291C20.414 21.087 19.0271 21.9318 17.5298 21.8719C13.6057 21.7149 9.88459 20.0857 7.10757 17.3087L6.69155 16.8927C3.91453 14.1156 2.28532 10.3945 2.12836 6.47038C2.06847 4.97309 2.91325 3.58619 4.27115 2.95251L6.20801 2.04864Z" fill="black"/>
<path d="M14.0736 2.07323C14.1712 1.97559 14.3295 1.97559 14.4271 2.07322L17.9069 5.55286L21.3867 2.07322C21.4844 1.97559 21.6427 1.97559 21.7403 2.07323C21.8379 2.17086 21.8379 2.32915 21.7403 2.42678L18.2605 5.9064L21.7402 9.38593C21.8378 9.48356 21.8378 9.64185 21.7402 9.73949C21.6426 9.83712 21.4843 9.83712 21.3866 9.7395L17.9069 6.25995L14.4272 9.7395C14.3296 9.83712 14.1713 9.83712 14.0737 9.73949C13.976 9.64185 13.9761 9.48356 14.0737 9.38593L17.5534 5.9064L14.0736 2.42678C13.976 2.32915 13.976 2.17086 14.0736 2.07323Z" fill="black"/>
</svg>
