<svg width="24" height="24" viewBox="0 0 24 24" fill="none" xmlns="http://www.w3.org/2000/svg">
<path d="M15.8721 8.4032C15.734 8.4032 15.6221 8.29127 15.6221 8.1532L15.6221 2.84642C15.6221 2.70834 15.734 2.59642 15.8721 2.59642C16.0101 2.59642 16.1221 2.70834 16.1221 2.84642L16.1221 7.55209L22.5492 1.12498C22.6468 1.02735 22.8051 1.02735 22.9027 1.12498C23.0003 1.22261 23.0003 1.3809 22.9027 1.47853L16.4781 7.9032L21.1788 7.9032C21.3169 7.9032 21.4288 8.01513 21.4288 8.1532C21.4288 8.29127 21.3169 8.4032 21.1788 8.4032L15.8721 8.4032Z" fill="black"/>
<path d="M5.99645 1.59535C6.64502 1.29268 7.40939 1.65106 7.59154 2.34322L8.97612 7.60464C9.06664 7.9486 8.96765 8.31475 8.71615 8.56624L7.2824 9.99999C6.92579 10.3566 6.84949 10.9067 7.09558 11.3469C8.39854 13.6776 10.3223 15.6014 12.653 16.9043C13.0932 17.1504 13.6433 17.0741 13.9999 16.7175L15.4337 15.2838C15.6852 15.0323 16.0513 14.9333 16.3953 15.0238L21.6567 16.4084C22.3488 16.5905 22.7072 17.3549 22.4046 18.0035L21.5007 19.9403C20.7818 21.4808 19.2084 22.4392 17.5097 22.3713C13.46 22.2093 9.6198 20.5279 6.75389 17.662L6.33788 17.246C3.47198 14.3801 1.79062 10.5399 1.62863 6.49017C1.56069 4.79153 2.51907 3.21813 4.05958 2.49922L5.99645 1.59535Z" fill="black"/>
</svg>
