<svg width="24" height="24" viewBox="0 0 24 24" fill="none" xmlns="http://www.w3.org/2000/svg">
<path d="M21.6157 17.8303C21.9117 17.1961 21.5612 16.4486 20.8843 16.2704L15.8812 14.9538C15.5434 14.8649 15.1839 14.9621 14.9369 15.2091L13.5736 16.5725C13.2443 16.9017 12.7363 16.9722 12.3298 16.745C10.1185 15.5088 8.29333 13.6836 7.05713 11.4723C6.82989 11.0658 6.90035 10.5578 7.22964 10.2285L8.59302 8.86515C8.83996 8.61821 8.93716 8.25868 8.84828 7.92094L7.53166 2.91778C7.35354 2.2409 6.60604 1.89043 5.97177 2.18642L4.12998 3.04592C2.65377 3.73482 1.73538 5.24256 1.80049 6.8703C1.95484 10.7291 3.55689 14.3881 6.28763 17.1189L6.68323 17.5145C9.41396 20.2452 13.073 21.8473 16.9318 22.0016C18.5595 22.0667 20.0673 21.1483 20.7562 19.6721L21.6157 17.8303Z" fill="black"/>
</svg>
