<svg width="24" height="24" viewBox="0 0 24 24" fill="none" xmlns="http://www.w3.org/2000/svg">
<path fill-rule="evenodd" clip-rule="evenodd" d="M4.25098 3.9998C4.2511 1.92881 5.93 0.25 8.00098 0.25H16C18.071 0.25 19.75 1.92893 19.75 4L19.75 20C19.75 22.0711 18.071 23.75 16 23.75L8.00012 23.75C5.92898 23.75 4.25001 22.0709 4.25012 19.9998L4.25098 3.9998ZM8.99994 3.75C8.86187 3.75 8.74994 3.86193 8.74994 4C8.74994 4.13807 8.86187 4.25 8.99994 4.25H14.9999C15.138 4.25 15.2499 4.13807 15.2499 4C15.2499 3.86193 15.138 3.75 14.9999 3.75H8.99994Z" fill="black"/>
</svg>
