<svg width="24" height="24" viewBox="0 0 24 24" fill="none" xmlns="http://www.w3.org/2000/svg">
<path d="M22.7251 0.800781C23.0013 0.800781 23.2251 1.02464 23.2251 1.30078V6.60756C23.2251 6.88371 23.0013 7.10756 22.7251 7.10756C22.449 7.10756 22.2251 6.88371 22.2251 6.60756V2.50545L16.2248 8.50577C16.0295 8.70104 15.7129 8.70104 15.5177 8.50577C15.3224 8.31051 15.3224 7.99393 15.5177 7.79867L21.5156 1.80078L17.4183 1.80078C17.1422 1.80078 16.9183 1.57692 16.9183 1.30078C16.9183 1.02464 17.1422 0.800781 17.4183 0.800781H22.7251Z" fill="black"/>
<path d="M5.99645 1.5954C6.64502 1.29273 7.40939 1.65111 7.59154 2.34327L8.97612 7.60469C9.06664 7.94865 8.96765 8.3148 8.71615 8.56629L7.2824 10C6.92579 10.3567 6.84949 10.9068 7.09558 11.347C8.39854 13.6777 10.3223 15.6014 12.653 16.9044C13.0932 17.1505 13.6433 17.0742 13.9999 16.7176L15.4337 15.2838C15.6852 15.0323 16.0513 14.9333 16.3953 15.0238L21.6567 16.4084C22.3488 16.5906 22.7072 17.3549 22.4046 18.0035L21.5007 19.9404C20.7818 21.4809 19.2084 22.4393 17.5097 22.3713C13.46 22.2093 9.6198 20.528 6.75389 17.6621L6.33788 17.2461C3.47198 14.3802 1.79062 10.54 1.62863 6.49022C1.56069 4.79159 2.51907 3.21818 4.05958 2.49927L5.99645 1.5954Z" fill="black"/>
</svg>
