<svg width="24" height="24" viewBox="0 0 24 24" fill="none" xmlns="http://www.w3.org/2000/svg">
<path d="M21.6156 17.8303C21.9115 17.1961 21.5611 16.4486 20.8842 16.2704L15.881 14.9538C15.5433 14.8649 15.1838 14.9621 14.9368 15.2091L13.5734 16.5725C13.2442 16.9017 12.7362 16.9722 12.3297 16.745C10.1184 15.5088 8.29321 13.6836 7.05701 11.4723C6.82977 11.0658 6.90023 10.5578 7.22952 10.2285L8.59289 8.86515C8.83984 8.61821 8.93704 8.25868 8.84816 7.92094L7.53154 2.91778C7.35342 2.2409 6.60592 1.89043 5.97165 2.18642L4.12986 3.04592C2.65365 3.73482 1.73526 5.24256 1.80037 6.8703C1.95472 10.7291 3.55677 14.3881 6.28751 17.1189L6.68311 17.5145C9.41384 20.2452 13.0729 21.8473 16.9317 22.0016C18.5594 22.0667 20.0671 21.1483 20.756 19.6721L21.6156 17.8303Z" fill="black"/>
</svg>
