<svg width="24" height="24" viewBox="0 0 24 24" fill="none" xmlns="http://www.w3.org/2000/svg">
<path d="M22.7229 1.05078C22.861 1.05078 22.9729 1.16271 22.9729 1.30078V6.60756C22.9729 6.74563 22.861 6.85756 22.7229 6.85756C22.5848 6.85756 22.4729 6.74563 22.4729 6.60756V1.90189L16.0458 8.329C15.9482 8.42663 15.7899 8.42663 15.6922 8.329C15.5946 8.23137 15.5946 8.07307 15.6922 7.97544L22.1169 1.55078L17.4161 1.55078C17.278 1.55078 17.1661 1.43885 17.1661 1.30078C17.1661 1.16271 17.278 1.05078 17.4161 1.05078H22.7229Z" fill="black"/>
<path fill-rule="evenodd" clip-rule="evenodd" d="M7.59129 2.34317C7.40915 1.65101 6.64478 1.29263 5.9962 1.5953L4.05934 2.49917C2.51883 3.21808 1.56044 4.79148 1.62839 6.49012C1.79038 10.5399 3.47173 14.3801 6.33763 17.246L6.75365 17.662C9.61955 20.5279 13.4597 22.2092 17.5095 22.3712C19.2081 22.4392 20.7815 21.4808 21.5004 19.9403L22.4043 18.0034C22.707 17.3548 22.3486 16.5905 21.6564 16.4083L16.395 15.0237C16.0511 14.9332 15.6849 15.0322 15.4334 15.2837L13.9997 16.7175C13.6431 17.0741 13.093 17.1504 12.6528 16.9043C10.322 15.6013 8.3983 13.6776 7.09534 11.3469C6.84925 10.9067 6.92555 10.3566 7.28216 9.99994L8.71591 8.56619C8.9674 8.3147 9.06639 7.94855 8.97588 7.60459L7.59129 2.34317ZM6.20765 2.04839C6.57364 1.8776 7.00497 2.07983 7.10776 2.47041L8.49234 7.73184C8.5376 7.90381 8.4881 8.08689 8.36236 8.21264L6.9286 9.64639C6.41379 10.1612 6.30364 10.9553 6.65891 11.5908C8.00698 14.0023 9.99735 15.9926 12.4088 17.3407C13.0443 17.696 13.8384 17.5858 14.3532 17.071L15.787 15.6373C15.9127 15.5115 16.0958 15.462 16.2678 15.5073L21.5292 16.8919C21.9198 16.9946 22.122 17.426 21.9512 17.792L21.0473 19.7288C20.4137 21.0867 19.0268 21.9315 17.5295 21.8716C13.6053 21.7147 9.88423 20.0854 7.1072 17.3084L6.69119 16.8924C3.91417 14.1154 2.28496 10.3943 2.12799 6.47014C2.0681 4.97285 2.91288 3.58595 4.27078 2.95227L6.20765 2.04839Z" fill="black"/>
</svg>
