<svg width="24" height="24" viewBox="0 0 24 24" fill="none" xmlns="http://www.w3.org/2000/svg">
<path d="M8.99994 3.25C8.58573 3.25 8.24994 3.58579 8.24994 4C8.24994 4.41421 8.58573 4.75 8.99994 4.75H14.9999C15.4142 4.75 15.7499 4.41421 15.7499 4C15.7499 3.58579 15.4142 3.25 14.9999 3.25H8.99994Z" fill="black"/>
<path fill-rule="evenodd" clip-rule="evenodd" d="M8.00098 0.25C5.92999 0.25 4.2511 1.92881 4.25098 3.9998L4.25012 19.9998C4.25001 22.0709 5.92898 23.75 8.00012 23.75H16C18.071 23.75 19.75 22.0711 19.75 20V4C19.75 1.92893 18.071 0.25 16 0.25H8.00098ZM5.75098 3.99988C5.75105 2.75729 6.75839 1.75 8.00098 1.75H16C17.2426 1.75 18.25 2.75736 18.25 4V20C18.25 21.2426 17.2426 22.25 16 22.25H8.00012C6.75743 22.25 5.75006 21.2426 5.75012 19.9999L5.75098 3.99988Z" fill="black"/>
</svg>
