<svg width="24" height="24" viewBox="0 0 24 24" fill="none" xmlns="http://www.w3.org/2000/svg">
<path fill-rule="evenodd" clip-rule="evenodd" d="M8.07483 2.21593C7.81332 1.2222 6.71592 0.707675 5.78476 1.14222L3.8479 2.04609C2.12478 2.85021 1.05279 4.61012 1.12879 6.51011C1.29581 10.6855 3.0293 14.6447 5.98408 17.5995L6.4001 18.0155C9.35488 20.9703 13.3142 22.7038 17.4895 22.8708C19.3895 22.9468 21.1494 21.8748 21.9535 20.1517L22.8574 18.2149C23.2919 17.2837 22.7774 16.1863 21.7837 15.9248L16.5223 14.5402C16.0063 14.4044 15.4571 14.5529 15.0799 14.9302L13.6461 16.3639C13.4477 16.5623 13.1417 16.6048 12.8967 16.4678C10.6467 15.21 8.78961 13.3529 7.53177 11.1029C7.39486 10.858 7.43731 10.5519 7.63571 10.3535L9.06947 8.91975C9.44671 8.54251 9.59519 7.99328 9.45942 7.47735L8.07483 2.21593ZM6.41909 2.50149C6.5025 2.46257 6.6008 2.50866 6.62422 2.59767L8.00881 7.85909L6.57505 9.29284C5.90204 9.96585 5.75804 11.004 6.22248 11.8348C7.61568 14.327 9.67266 16.3839 12.1648 17.7771C12.9956 18.2416 14.0338 18.0976 14.7068 17.4246L16.1405 15.9908L21.402 17.3754C21.491 17.3988 21.5371 17.4971 21.4981 17.5805L20.5943 19.5174C20.0458 20.6927 18.8454 21.4239 17.5495 21.372C13.7509 21.2201 10.1489 19.643 7.46076 16.9549L7.04474 16.5389C4.3566 13.8507 2.77954 10.2487 2.62759 6.45016C2.57576 5.15422 3.30693 3.95383 4.48222 3.40536L6.41909 2.50149Z" fill="black"/>
<path d="M13.7197 1.71945C14.0125 1.42655 14.4874 1.42653 14.7803 1.71942L17.9066 4.84553L21.0328 1.71942C21.3257 1.42653 21.8006 1.42655 22.0935 1.71945C22.3864 2.01235 22.3864 2.48722 22.0935 2.78011L18.9673 5.90617L22.0934 9.03214C22.3863 9.32502 22.3863 9.7999 22.0934 10.0928C21.8005 10.3857 21.3256 10.3857 21.0327 10.0928L17.9066 6.9668L14.7804 10.0928C14.4875 10.3857 14.0126 10.3857 13.7198 10.0928C13.4269 9.7999 13.4269 9.32502 13.7198 9.03214L16.8459 5.90617L13.7197 2.78011C13.4268 2.48722 13.4268 2.01235 13.7197 1.71945Z" fill="black"/>
</svg>
