<svg width="24" height="24" viewBox="0 0 24 24" fill="none" xmlns="http://www.w3.org/2000/svg">
<path d="M22.7229 1.05066C22.861 1.05066 22.9729 1.16259 22.9729 1.30066V6.60744C22.9729 6.74551 22.861 6.85744 22.7229 6.85744C22.5848 6.85744 22.4729 6.74551 22.4729 6.60744V1.90177L16.0458 8.32888C15.9482 8.42651 15.7899 8.42651 15.6922 8.32888C15.5946 8.23124 15.5946 8.07295 15.6922 7.97532L22.1169 1.55066L17.4161 1.55066C17.278 1.55066 17.1661 1.43873 17.1661 1.30066C17.1661 1.16259 17.278 1.05066 17.4161 1.05066H22.7229Z" fill="black"/>
<path d="M5.9962 1.59528C6.64478 1.29261 7.40915 1.65099 7.59129 2.34315L8.97588 7.60457C9.06639 7.94853 8.9674 8.31467 8.71591 8.56617L7.28216 9.99992C6.92555 10.3565 6.84925 10.9066 7.09534 11.3468C8.3983 13.6775 10.322 15.6013 12.6528 16.9043C13.093 17.1503 13.6431 17.074 13.9997 16.7174L15.4334 15.2837C15.6849 15.0322 16.0511 14.9332 16.395 15.0237L21.6564 16.4083C22.3486 16.5904 22.707 17.3548 22.4043 18.0034L21.5004 19.9403C20.7815 21.4808 19.2081 22.4391 17.5095 22.3712C13.4597 22.2092 9.61955 20.5279 6.75365 17.662L6.33763 17.2459C3.47173 14.38 1.79038 10.5399 1.62839 6.4901C1.56044 4.79146 2.51883 3.21806 4.05934 2.49915L5.9962 1.59528Z" fill="black"/>
</svg>
