<svg width="24" height="24" viewBox="0 0 24 24" fill="none" xmlns="http://www.w3.org/2000/svg">
<path fill-rule="evenodd" clip-rule="evenodd" d="M5.5046 0.758224C6.71834 0.19181 8.14878 0.862475 8.48965 2.15778L9.87423 7.4192C10.0553 8.10711 9.85728 8.83941 9.3543 9.3424L7.92054 10.7762C7.88034 10.8164 7.87174 10.8784 7.89948 10.928C9.1122 13.0973 10.9027 14.8878 13.072 16.1005C13.1216 16.1283 13.1836 16.1197 13.2238 16.0795L14.6576 14.6457C15.1606 14.1427 15.8929 13.9447 16.5808 14.1258L21.8422 15.5104C23.1375 15.8512 23.8082 17.2817 23.2418 18.4954L22.3379 20.4323C21.4486 22.338 19.5021 23.5236 17.4008 23.4395C13.0999 23.2675 9.02148 21.4819 5.97782 18.4382L5.56181 18.0222C2.51814 14.9785 0.732506 10.9001 0.560468 6.59919C0.476414 4.49785 1.66201 2.55143 3.56773 1.6621L5.5046 0.758224ZM6.17937 3.20216L4.62494 3.92755C3.63226 4.39081 3.01469 5.40469 3.05847 6.49927C3.20539 10.1722 4.73031 13.6551 7.32957 16.2544L7.74559 16.6704C10.3449 19.2697 13.8277 20.7946 17.5007 20.9415C18.5953 20.9853 19.6092 20.3677 20.0724 19.3751L20.7978 17.8206L16.2223 16.6165L14.9916 17.8472C14.1604 18.6784 12.8782 18.8563 11.8521 18.2827C9.27924 16.8444 7.15564 14.7208 5.71732 12.1479C5.14371 11.1218 5.32156 9.8396 6.15278 9.00839L7.38346 7.7777L6.17937 3.20216Z" fill="black"/>
</svg>
