<svg width="24" height="24" viewBox="0 0 24 24" fill="none" xmlns="http://www.w3.org/2000/svg">
<path fill-rule="evenodd" clip-rule="evenodd" d="M3.59437 17.6564C2.6279 18.2202 1.38679 17.7714 1.00442 16.7198L0.358261 14.9429C-0.262937 13.2346 0.202069 11.3204 1.53775 10.0874C4.31614 7.52276 7.95857 6.09863 11.7397 6.09863L12.2602 6.09863C16.0413 6.09863 19.6837 7.52276 22.4621 10.0874C23.7978 11.3204 24.2628 13.2346 23.6416 14.9429L22.9954 16.7198C22.6131 17.7714 21.372 18.2202 20.4055 17.6564L16.2483 15.2313C15.7373 14.9332 15.423 14.3861 15.423 13.7945V12.0008C15.423 11.9032 15.3582 11.8174 15.2642 11.7909C13.1299 11.1872 10.87 11.1872 8.73564 11.7909C8.64171 11.8174 8.57686 11.9032 8.57686 12.0008V13.7945C8.57686 14.3861 8.26261 14.9332 7.75156 15.2313L3.59437 17.6564ZM2.7997 15.8045L6.57686 13.6012V12.0008C6.57686 11.0083 7.23623 10.1365 8.19131 9.86638C10.6815 9.16203 13.3183 9.16203 15.8086 9.86638C16.7636 10.1365 17.423 11.0083 17.423 12.0008V13.6012L21.2002 15.8045L21.762 14.2594C22.1078 13.3086 21.8489 12.2432 21.1056 11.557C18.6966 9.3334 15.5385 8.09863 12.2602 8.09863H11.7397C8.46135 8.09863 5.30326 9.33339 2.89431 11.557C2.15092 12.2432 1.89211 13.3086 2.23785 14.2594L2.7997 15.8045Z" fill="black"/>
</svg>
