<svg width="24" height="24" viewBox="0 0 24 24" fill="none" xmlns="http://www.w3.org/2000/svg">
<path d="M15.8718 8.6532C15.5957 8.6532 15.3718 8.42934 15.3718 8.1532L15.3718 2.84642C15.3718 2.57027 15.5957 2.34642 15.8718 2.34642C16.148 2.34642 16.3718 2.57027 16.3718 2.84642L16.3718 6.94853L22.3721 0.948204C22.5674 0.752942 22.884 0.752942 23.0793 0.948204C23.2745 1.14347 23.2745 1.46005 23.0793 1.65531L17.0814 7.6532L21.1786 7.6532C21.4547 7.6532 21.6786 7.87705 21.6786 8.1532C21.6786 8.42934 21.4547 8.6532 21.1786 8.6532L15.8718 8.6532Z" fill="black"/>
<path fill-rule="evenodd" clip-rule="evenodd" d="M7.83306 2.27959C7.61124 1.43665 6.68035 1.0002 5.89048 1.36881L3.95362 2.27268C2.32181 3.03419 1.30662 4.70085 1.37859 6.50016C1.54309 10.6127 3.25052 14.5124 6.16086 17.4228L6.57688 17.8388C9.48722 20.7491 13.3869 22.4566 17.4995 22.6211C19.2988 22.693 20.9655 21.6779 21.727 20.046L22.6309 18.1092C22.9995 17.3193 22.563 16.3884 21.7201 16.1666L16.4586 14.782C16.0287 14.6689 15.571 14.7926 15.2566 15.107L13.8229 16.5407C13.5454 16.8182 13.1173 16.8776 12.7748 16.6861C10.4844 15.4057 8.59395 13.5153 7.31356 11.2249C7.12205 10.8824 7.18143 10.4543 7.45893 10.1768L8.89269 8.74302C9.20706 8.42865 9.33079 7.97096 9.21765 7.54102L7.83306 2.27959ZM6.31337 2.27499C6.53807 2.17013 6.80288 2.29429 6.86599 2.53409L8.25057 7.79551C8.2732 7.8815 8.24846 7.97304 8.18558 8.03591L6.75183 9.46966C6.15792 10.0636 6.03084 10.9797 6.44069 11.7129C7.81133 14.1647 9.83501 16.1883 12.2868 17.559C13.0199 17.9688 13.9361 17.8417 14.53 17.2478L15.9638 15.8141C16.0266 15.7512 16.1182 15.7265 16.2042 15.7491L21.4656 17.1337C21.7054 17.1968 21.8295 17.4616 21.7247 17.6863L20.8208 19.6232C20.2297 20.8898 18.9361 21.6777 17.5395 21.6219C13.6781 21.4674 10.0166 19.8643 7.28398 17.1317L6.86797 16.7157C4.13538 13.9831 2.53225 10.3216 2.37779 6.46019C2.32193 5.06359 3.10991 3.76994 4.3765 3.17886L6.31337 2.27499Z" fill="black"/>
</svg>
