<svg width="24" height="24" viewBox="0 0 24 24" fill="none" xmlns="http://www.w3.org/2000/svg">
<path fill-rule="evenodd" clip-rule="evenodd" d="M0 4C0 1.79086 1.79086 0 4 0H20C22.2091 0 24 1.79086 24 4V20C24 22.2091 22.2091 24 20 24H4C1.79086 24 0 22.2091 0 20V4ZM16.6867 1.5H4C2.61929 1.5 1.5 2.61929 1.5 4V20C1.5 21.192 2.33419 22.1891 3.45062 22.4394C7.6492 21.3525 10.75 17.5384 10.75 13V12C10.75 7.54393 13.1293 3.64357 16.6867 1.5ZM7.02865 22.5H20C21.3807 22.5 22.5 21.3807 22.5 20V4C22.5 2.78425 21.6322 1.77119 20.4822 1.54647C15.7598 2.67977 12.25 6.93001 12.25 12V13C12.25 16.9952 10.1674 20.504 7.02865 22.5Z" fill="black"/>
</svg>
