<svg width="24" height="24" viewBox="0 0 24 24" fill="none" xmlns="http://www.w3.org/2000/svg">
<path fill-rule="evenodd" clip-rule="evenodd" d="M1.6615 22.1128C1.49175 21.993 1.3793 21.8082 1.35094 21.6024C1.33104 21.4579 1.37062 21.3205 1.42296 21.1918C1.47452 21.065 1.5538 20.9119 1.64895 20.728L11.0733 2.51876C11.1833 2.30626 11.2738 2.13142 11.3567 2.00176C11.4393 1.87249 11.5385 1.74775 11.6825 1.68043C11.8837 1.58634 12.1164 1.58634 12.3177 1.68043C12.4617 1.74775 12.5608 1.87249 12.6435 2.00176C12.7263 2.13141 12.8168 2.30625 12.9268 2.51873L22.3512 20.7281C22.4463 20.9119 22.5256 21.0651 22.5772 21.1918C22.6295 21.3205 22.6691 21.4579 22.6492 21.6024C22.6208 21.8082 22.5084 21.993 22.3386 22.1128C22.2195 22.1969 22.0793 22.2248 21.9409 22.2375C21.8046 22.25 21.6322 22.25 21.4252 22.25H2.57493C2.36795 22.25 2.19548 22.25 2.05919 22.2375C1.92082 22.2248 1.78066 22.1969 1.6615 22.1128ZM1.84626 21.5341C1.85572 21.6027 1.8932 21.6643 1.94978 21.7043C1.96025 21.7116 1.99352 21.7294 2.1048 21.7396C2.21552 21.7497 2.36486 21.75 2.58699 21.75H21.4131C21.6353 21.75 21.7846 21.7497 21.8953 21.7396C22.0066 21.7294 22.0399 21.7116 22.0504 21.7043C22.1069 21.6643 22.1444 21.6027 22.1539 21.5341C22.1556 21.5214 22.1561 21.4837 22.114 21.3802C22.0721 21.2772 22.0037 21.1445 21.9016 20.9472L12.4885 2.75974C12.3714 2.53336 12.2913 2.37912 12.2222 2.27107C12.1514 2.16037 12.1161 2.13812 12.1059 2.13339C12.0388 2.10202 11.9613 2.10202 11.8942 2.13339C11.8841 2.13812 11.8487 2.16037 11.778 2.27107C11.7089 2.37912 11.6288 2.53336 11.5116 2.75974L2.09853 20.9472C1.99643 21.1445 1.92801 21.2772 1.88613 21.3802C1.84403 21.4837 1.84451 21.5214 1.84626 21.5341Z" fill="black"/>
</svg>
