<svg width="24" height="24" viewBox="0 0 24 24" fill="none" xmlns="http://www.w3.org/2000/svg">
<path d="M1.35094 21.6024C1.3793 21.8082 1.49175 21.993 1.6615 22.1128C1.78066 22.1969 1.92082 22.2248 2.05919 22.2375C2.19547 22.25 2.36793 22.25 2.5749 22.25H21.4252C21.6322 22.25 21.8047 22.25 21.9409 22.2375C22.0793 22.2248 22.2195 22.1969 22.3386 22.1128C22.5084 21.993 22.6208 21.8082 22.6492 21.6024C22.6691 21.4579 22.6295 21.3205 22.5772 21.1918C22.5256 21.0651 22.4463 20.9119 22.3512 20.7281L12.9268 2.51873C12.8168 2.30626 12.7263 2.1314 12.6435 2.00176C12.5608 1.87249 12.4617 1.74775 12.3177 1.68043C12.1164 1.58634 11.8837 1.58634 11.6825 1.68043C11.5385 1.74775 11.4393 1.87249 11.3567 2.00176C11.2738 2.13142 11.1833 2.30626 11.0733 2.51876L1.64895 20.728C1.55381 20.9119 1.47452 21.0651 1.42296 21.1918C1.37062 21.3205 1.33104 21.4579 1.35094 21.6024Z" fill="black"/>
</svg>
