<svg width="24" height="24" viewBox="0 0 24 24" fill="none" xmlns="http://www.w3.org/2000/svg">
<path d="M4 0C1.79086 0 0 1.79086 0 4V20C0 21.2771 0.598516 22.4144 1.53036 23.1468C7.01964 22.4002 11.25 17.6941 11.25 12C11.25 5.98458 15.7703 1.02494 21.5995 0.332604C21.1096 0.118673 20.5687 0 20 0H4Z" fill="black"/>
<path d="M22.3573 0.768056C16.4431 1.10117 11.75 6.00251 11.75 12C11.75 17.7518 7.61712 22.5384 2.15898 23.5521C2.71005 23.8383 3.33614 24 4 24H20C22.2091 24 24 22.2091 24 20V4C24 2.67226 23.3531 1.49561 22.3573 0.768056Z" fill="black"/>
</svg>
