<svg width="24" height="24" viewBox="0 0 24 24" fill="none" xmlns="http://www.w3.org/2000/svg">
<path fill-rule="evenodd" clip-rule="evenodd" d="M23 12C23 14.6593 22.0564 17.0981 20.4857 19C18.4681 21.443 15.4159 23 12 23C8.58413 23 5.53191 21.443 3.51432 19C1.94364 17.0981 1 14.6593 1 12C1 9.34074 1.94364 6.90188 3.51432 5C5.53191 2.55699 8.58413 1 12 1C15.4159 1 18.4681 2.55699 20.4857 5C22.0564 6.90188 23 9.34074 23 12ZM3 12C3 9.82247 3.77078 7.83028 5.05642 6.27356C6.71036 4.27087 9.20591 3 12 3V21C9.20591 21 6.71036 19.7291 5.05642 17.7264C3.77078 16.1697 3 14.1775 3 12Z" fill="black"/>
</svg>
