<svg width="26" height="26" viewBox="0 0 26 26" fill="none" xmlns="http://www.w3.org/2000/svg">
<path fill-rule="evenodd" clip-rule="evenodd" d="M13 0.75C9.19551 0.75 5.79538 2.48582 3.55051 5.20403C1.80167 7.32163 0.75 10.0397 0.75 13C0.75 15.9603 1.80167 18.6784 3.55051 20.796C5.79538 23.5142 9.19551 25.25 13 25.25C16.8045 25.25 20.2046 23.5142 22.4495 20.796C24.1983 18.6784 25.25 15.9603 25.25 13C25.25 10.0397 24.1983 7.32163 22.4495 5.20403C20.2046 2.48582 16.8045 0.75 13 0.75ZM11.5411 3.35832C9.11142 3.72262 6.97522 4.98322 5.47813 6.79597C5.39191 6.90038 5.30782 7.0066 5.22593 7.11457L7.07234 10.5607L11.5411 3.35832ZM3.91969 9.44078C3.48729 10.5431 3.25 11.7434 3.25 13C3.25 14.3448 3.52173 15.625 4.01352 16.7897L7.92365 16.9138L3.91969 9.44078ZM5.38075 19.0842C5.4129 19.1244 5.44536 19.1643 5.47813 19.204C7.02606 21.0783 9.25724 22.3624 11.7897 22.6757L13.8512 19.3531L5.38075 19.0842ZM14.4587 22.6417C16.8885 22.2774 19.0247 21.0168 20.5219 19.204C20.6081 19.0996 20.6921 18.9934 20.774 18.8855L18.9275 15.4392L14.4587 22.6417ZM22.0803 16.5593C22.5127 15.457 22.75 14.2567 22.75 13C22.75 11.6552 22.4783 10.375 21.9865 9.21027L18.0762 9.08615L22.0803 16.5593ZM20.6192 6.91573C20.5871 6.87555 20.5546 6.83563 20.5219 6.79597C18.9739 4.92162 16.7427 3.63759 14.2102 3.3243L12.1486 6.64687L20.6192 6.91573ZM10.5204 16.9962L15.221 17.1454L17.7005 13.1491L15.4795 9.00373L10.7789 8.85452L8.29934 12.8508L10.5204 16.9962Z" fill="black"/>
</svg>
