<svg width="24" height="26" viewBox="0 0 24 26" fill="none" xmlns="http://www.w3.org/2000/svg">
<path fill-rule="evenodd" clip-rule="evenodd" d="M12.7112 1.06556C12.2615 0.915646 11.7377 0.915646 11.288 1.06556C10.7475 1.24576 10.3626 1.65157 10.1036 1.92467C10.0786 1.95098 10.0548 1.97611 10.0321 1.99964C8.8728 3.20407 6.97118 5.30059 5.35126 7.66506C3.77139 9.97107 2.28809 12.7722 2.28809 15.3356C2.28809 20.6991 6.63609 25.0471 11.9996 25.0471C17.3632 25.0471 21.7112 20.6991 21.7112 15.3356C21.7112 12.7722 20.2279 9.97107 18.648 7.66506C17.0281 5.30059 15.1264 3.20407 13.9671 1.99964C13.9445 1.97612 13.9207 1.95105 13.8958 1.92475C13.6367 1.65165 13.2517 1.24576 12.7112 1.06556ZM12 22.5471C15.9827 22.5469 19.2112 19.3183 19.2112 15.3356C19.2112 13.5907 18.1344 11.3387 16.5856 9.07803C15.0768 6.8758 13.2811 4.89193 12.1659 3.73336C12.1006 3.66546 12.0471 3.60989 12 3.5619V22.5471Z" fill="black"/>
</svg>
