<svg width="24" height="24" viewBox="0 0 24 24" fill="none" xmlns="http://www.w3.org/2000/svg">
<path fill-rule="evenodd" clip-rule="evenodd" d="M1.3732 22.5213C1.09029 22.3217 0.902863 22.0136 0.855601 21.6706C0.81754 21.3944 0.897187 21.1574 0.959777 21.0035C1.02018 20.855 1.10893 20.6835 1.19791 20.5117L10.6368 2.27445C10.74 2.07482 10.8399 1.88185 10.9354 1.73245C11.0299 1.58461 11.1928 1.35738 11.4707 1.22748C11.8062 1.07066 12.1939 1.07066 12.5294 1.22748C12.8073 1.35738 12.9702 1.58461 13.0647 1.73245C13.1602 1.88184 13.26 2.07479 13.3633 2.27442L22.8022 20.5117C22.8912 20.6835 22.9799 20.855 23.0403 21.0035C23.1029 21.1574 23.1826 21.3944 23.1445 21.6706C23.0972 22.0136 22.9098 22.3217 22.6269 22.5213C22.3991 22.6821 22.152 22.7203 21.9865 22.7354C21.8268 22.7501 21.6338 22.75 21.4402 22.75L2.55987 22.75C2.36631 22.75 2.17325 22.7501 2.01356 22.7354C1.84811 22.7203 1.60103 22.6821 1.3732 22.5213ZM2.50484 21.25C2.51675 21.2269 2.5293 21.2026 2.54256 21.177L11.9556 2.98956C11.9713 2.9593 11.9861 2.93078 12 2.90388C12.014 2.93078 12.0288 2.9593 12.0445 2.98956L21.4575 21.177C21.4708 21.2026 21.4833 21.2269 21.4953 21.25C21.4693 21.25 21.442 21.25 21.4131 21.25H2.58697C2.55812 21.25 2.5308 21.25 2.50484 21.25Z" fill="black"/>
</svg>
