<svg width="24" height="24" viewBox="0 0 24 24" fill="none" xmlns="http://www.w3.org/2000/svg">
<path fill-rule="evenodd" clip-rule="evenodd" d="M23 12C23 14.6593 22.0564 17.0981 20.4857 19C18.4681 21.443 15.4159 23 12 23C8.58413 23 5.53191 21.443 3.51432 19C1.94364 17.0981 1 14.6593 1 12C1 9.34074 1.94364 6.90188 3.51432 5C5.53191 2.55699 8.58413 1 12 1C15.4159 1 18.4681 2.55699 20.4857 5C22.0564 6.90188 23 9.34074 23 12ZM1.5 12C1.5 9.46117 2.40042 7.13398 3.89985 5.31839C5.82652 2.98546 8.73957 1.5 12 1.5V22.5C8.73957 22.5 5.82652 21.0145 3.89985 18.6816C2.40042 16.866 1.5 14.5388 1.5 12Z" fill="black"/>
</svg>
