<svg width="24" height="24" viewBox="0 0 24 24" fill="none" xmlns="http://www.w3.org/2000/svg">
<path d="M1.10327 21.6365C1.14108 21.9109 1.29102 22.1573 1.51735 22.317C1.69085 22.4395 1.88446 22.4726 2.03637 22.4865C2.18431 22.5 2.36688 22.5 2.56628 22.5H21.4338C21.6332 22.5 21.8158 22.5 21.9637 22.4865C22.1156 22.4726 22.3093 22.4395 22.4828 22.317C22.7091 22.1573 22.859 21.9109 22.8968 21.6365C22.9258 21.4261 22.8662 21.239 22.8087 21.0977C22.7528 20.96 22.6689 20.7979 22.5772 20.6208L13.1445 2.39553C13.0383 2.19026 12.9432 2.00656 12.8541 1.8671C12.7655 1.72855 12.6345 1.55256 12.4235 1.45396C12.1552 1.3285 11.845 1.3285 11.5766 1.45396C11.3656 1.55256 11.2346 1.72855 11.146 1.86711C11.0569 2.00656 10.9618 2.19026 10.8556 2.39553L1.42291 20.6209C1.33125 20.7979 1.24732 20.9601 1.19137 21.0977C1.1339 21.239 1.07429 21.4261 1.10327 21.6365Z" fill="black"/>
</svg>
