<svg width="24" height="24" viewBox="0 0 24 24" fill="none" xmlns="http://www.w3.org/2000/svg">
<path d="M0.855601 21.6706C0.902863 22.0136 1.09029 22.3217 1.3732 22.5213C1.60103 22.6821 1.84811 22.7203 2.01356 22.7354C2.17325 22.7501 2.36631 22.75 2.55987 22.75H21.4402C21.6338 22.75 21.8268 22.7501 21.9865 22.7354C22.152 22.7203 22.3991 22.6821 22.6269 22.5213C22.9098 22.3217 23.0972 22.0136 23.1445 21.6706C23.1826 21.3944 23.1029 21.1574 23.0403 21.0035C22.9799 20.855 22.8912 20.6836 22.8022 20.5118L13.3633 2.27442C13.26 2.07479 13.1602 1.88184 13.0647 1.73245C12.9702 1.58461 12.8073 1.35738 12.5294 1.22748C12.1939 1.07066 11.8062 1.07066 11.4707 1.22748C11.1928 1.35738 11.0299 1.58461 10.9354 1.73245C10.8399 1.88185 10.74 2.07482 10.6368 2.27445L1.19791 20.5117C1.10894 20.6835 1.02017 20.855 0.959777 21.0035C0.897187 21.1574 0.81754 21.3944 0.855601 21.6706Z" fill="black"/>
</svg>
