<svg width="24" height="24" viewBox="0 0 24 24" fill="none" xmlns="http://www.w3.org/2000/svg">
<path fill-rule="evenodd" clip-rule="evenodd" d="M12 0.75C8.5064 0.75 5.3846 2.34276 3.32156 4.84081C1.71524 6.78583 0.75 9.28053 0.75 12C0.75 14.7195 1.71524 17.2142 3.32156 19.1592C5.3846 21.6572 8.5064 23.25 12 23.25C15.4936 23.25 18.6154 21.6572 20.6784 19.1592C22.2848 17.2142 23.25 14.7195 23.25 12C23.25 9.28053 22.2848 6.78583 20.6784 4.84081C18.6154 2.34276 15.4936 0.75 12 0.75ZM3.70709 5.15919C5.67921 2.77123 8.66185 1.25 12 1.25C12.0858 1.25 12.1714 1.25101 12.2567 1.253L6.01685 11.3098L3.1309 5.92349C3.31176 5.66003 3.50406 5.40503 3.70709 5.15919ZM2.82036 6.4026C1.82405 8.03295 1.25 9.94923 1.25 12C1.25 13.6628 1.62741 15.2372 2.30131 16.6425L8.4107 16.8364L2.82036 6.4026ZM2.56209 17.151C2.89044 17.7513 3.27441 18.3169 3.70709 18.8408C5.51469 21.0296 8.17123 22.4902 11.1723 22.7186L14.3938 17.5266L2.56209 17.151ZM11.7432 22.747C11.8285 22.749 11.9142 22.75 12 22.75C15.3382 22.75 18.3208 21.2288 20.2929 18.8408C20.4959 18.595 20.6882 18.34 20.8691 18.0765L17.9831 12.6901L11.7432 22.747ZM21.1796 17.5974C22.1759 15.9671 22.75 14.0508 22.75 12C22.75 10.3371 22.3726 8.76271 21.6987 7.35743L15.5892 7.16351L21.1796 17.5974ZM21.4379 6.84891C21.1095 6.24862 20.7256 5.68308 20.2929 5.15919C18.4853 2.97042 15.8287 1.50982 12.8275 1.28137L9.60612 6.47335L21.4379 6.84891ZM8.98382 16.8546L14.6548 17.0346C14.6689 17.0351 14.6827 17.0367 14.6961 17.0394L17.6875 12.2181C17.695 12.2061 17.7033 12.195 17.7123 12.1847L15.0327 7.18351C15.026 7.17105 15.0205 7.15828 15.0161 7.14532L9.34515 6.96532C9.33103 6.96487 9.31722 6.96326 9.30382 6.96058L6.31243 11.7818C6.30498 11.7938 6.29668 11.805 6.28765 11.8152L8.96728 16.8165C8.97394 16.8289 8.97944 16.8417 8.98382 16.8546Z" fill="black"/>
</svg>
