<svg width="24" height="24" viewBox="0 0 24 24" fill="none" xmlns="http://www.w3.org/2000/svg">
<path d="M5.5 0.5C6.05229 0.5 6.5 0.947715 6.5 1.5V3.25L4.5 3.25V1.5C4.5 0.947715 4.94772 0.5 5.5 0.5Z" fill="black"/>
<path d="M6.5 17.5V7.75H4.5V17.5C4.5 18.6046 5.39543 19.5 6.5 19.5H16.25V17.5H6.5Z" fill="black"/>
<path d="M20.75 17.5V19.5H22.5C23.0523 19.5 23.5 19.0523 23.5 18.5C23.5 17.9477 23.0523 17.5 22.5 17.5H20.75Z" fill="black"/>
<path d="M17.5 22.5C17.5 23.0523 17.9477 23.5 18.5 23.5C19.0523 23.5 19.5 23.0523 19.5 22.5L19.5 7.0681C19.5 6.81572 19.5001 6.56993 19.4831 6.36177C19.4644 6.13318 19.4203 5.86344 19.282 5.59202C19.0903 5.21569 18.7843 4.90973 18.408 4.71799C18.1366 4.57969 17.8668 4.53562 17.6382 4.51694C17.4301 4.49994 17.1844 4.49997 16.932 4.5L1.5 4.5C0.947715 4.5 0.5 4.94771 0.5 5.5C0.5 6.05228 0.947715 6.5 1.5 6.5L16.9 6.5C17.1965 6.5 17.3588 6.50078 17.4754 6.5103L17.4886 6.51145L17.4897 6.52463C17.4992 6.64122 17.5 6.80347 17.5 7.1L17.5 22.5Z" fill="black"/>
</svg>
