<svg width="24" height="24" viewBox="0 0 24 24" fill="none" xmlns="http://www.w3.org/2000/svg">
<path fill-rule="evenodd" clip-rule="evenodd" d="M0 3.27273C0 1.46525 1.46525 0 3.27273 0H20.7273C22.5347 0 24 1.46525 24 3.27273V20.7273C24 22.5347 22.5347 24 20.7273 24H3.27273C1.46525 24 0 22.5347 0 20.7273V3.27273ZM3.27273 2.5H20.7273C21.154 2.5 21.5 2.84596 21.5 3.27273V16.0918C17.6145 15.418 14.3511 12.6446 13.1107 8.80372C13.0923 8.74677 13.0723 8.68229 13.0262 8.53392L12.417 6.57097C12.3607 6.38952 12.3132 6.23639 12.2744 6.11911C12.2429 6.02405 12.1884 5.86046 12.1121 5.71528C11.238 4.05273 8.83194 4.12983 8.06609 5.84494C7.99921 5.99471 7.95529 6.16146 7.92998 6.25833C7.89877 6.37778 7.86118 6.53351 7.81664 6.71804L6.69274 11.3742C6.16525 13.5595 4.54674 15.2516 2.5 15.9286V3.27273C2.5 2.84596 2.84596 2.5 3.27273 2.5ZM2.5 18.5225V20.7273C2.5 21.154 2.84596 21.5 3.27273 21.5H20.7273C21.154 21.5 21.5 21.154 21.5 20.7273V18.6221C16.5236 17.926 12.3059 14.4466 10.7317 9.57203C10.7083 9.49973 10.6838 9.42076 10.6414 9.28408L10.1507 7.70292L9.12295 11.9608C8.32222 15.2781 5.71599 17.7791 2.5 18.5225ZM9.87117 6.8191C9.87117 6.81905 9.87159 6.82006 9.87242 6.82223L9.87117 6.8191Z" fill="black"/>
</svg>
