<svg width="24" height="24" viewBox="0 0 24 24" fill="none" xmlns="http://www.w3.org/2000/svg">
<path fill-rule="evenodd" clip-rule="evenodd" d="M1.22904 22.7256C0.889555 22.486 0.664645 22.1163 0.607931 21.7047C0.56079 21.3626 0.660471 21.0758 0.728183 20.9093C0.793087 20.7497 0.886843 20.5687 0.97374 20.4009L10.4173 2.15461C10.5181 1.95959 10.6229 1.75717 10.7247 1.5978C10.8252 1.44067 11.02 1.16219 11.3648 1.001C11.7674 0.812817 12.2327 0.812817 12.6353 1.001C12.9801 1.16219 13.1749 1.44067 13.2753 1.5978C13.3772 1.75717 13.4819 1.95959 13.5828 2.15461L23.0264 20.401C23.1133 20.5687 23.207 20.7497 23.2719 20.9093C23.3396 21.0758 23.4393 21.3626 23.3921 21.7047C23.3354 22.1163 23.1105 22.486 22.771 22.7256C22.4888 22.9247 22.1883 22.968 22.0093 22.9844C21.8378 23.0001 21.6339 23 21.445 23C21.4343 23 21.4237 23 21.4131 23L2.58696 23C2.57639 23 2.56577 23 2.5551 23C2.36615 23 2.1623 23.0001 1.99074 22.9844C1.81175 22.968 1.51122 22.9247 1.22904 22.7256ZM2.91567 21H21.0844L12 3.44766L2.91567 21Z" fill="black"/>
</svg>
