<svg width="24" height="24" viewBox="0 0 24 24" fill="none" xmlns="http://www.w3.org/2000/svg">
<path fill-rule="evenodd" clip-rule="evenodd" d="M0 3.27273C0 1.46525 1.46525 0 3.27273 0H20.7273C22.5347 0 24 1.46525 24 3.27273V20.7273C24 22.5347 22.5347 24 20.7273 24H3.27273C1.46525 24 0 22.5347 0 20.7273V3.27273ZM3.27273 2H20.7273C21.4302 2 22 2.56982 22 3.27273V16.4184C17.7873 15.9029 14.1994 12.9884 12.8728 8.88055C12.8539 8.8219 12.8333 8.75579 12.7875 8.60802L12.1789 6.64696C12.1221 6.46393 12.0751 6.31258 12.0371 6.19766C12.0049 6.10041 11.9562 5.95589 11.8908 5.83162C11.1138 4.35379 8.97512 4.42233 8.29437 5.94687C8.23712 6.07507 8.19776 6.22242 8.17186 6.32153C8.14125 6.4387 8.10412 6.59253 8.05912 6.77894L6.93576 11.4329C6.33874 13.9062 4.39691 15.7716 2 16.3285V3.27273C2 2.56982 2.56982 2 3.27273 2ZM2 18.3692V20.7273C2 21.4302 2.56982 22 3.27273 22H20.7273C21.4302 22 22 21.4302 22 20.7273V18.431C16.9164 17.9061 12.563 14.429 10.9696 9.4952C10.9467 9.42426 10.9226 9.34652 10.8796 9.20824L10.2719 7.24983C10.2111 7.05407 10.1698 6.92106 10.1384 6.8261C10.1315 6.80553 10.1258 6.78855 10.121 6.77462C10.117 6.78883 10.1124 6.80614 10.1069 6.82711C10.0816 6.92389 10.0489 7.05927 10.0008 7.25851L8.87993 11.9021C8.06526 15.2772 5.3275 17.7828 2 18.3692Z" fill="black"/>
</svg>
