<svg width="24" height="24" viewBox="0 0 24 24" fill="none" xmlns="http://www.w3.org/2000/svg">
<path d="M22.3163 1.84171L21.842 1.68359L21.7629 1.92076C21.6775 2.17706 21.638 2.295 21.5964 2.39857C21.056 3.74271 19.7898 4.65539 18.3437 4.74296C18.2323 4.74971 18.108 4.74982 17.8378 4.74982H6.15154C5.89492 4.74982 5.75456 4.74982 5.62619 4.75759C3.98733 4.85685 2.55223 5.89121 1.93982 7.41457C1.89185 7.5339 1.84747 7.66704 1.76632 7.91048L1.7629 7.92076L1.76184 7.92402L1.68604 8.16225L2.1625 8.31386L2.23778 8.07725C2.32284 7.82208 2.36219 7.70442 2.40374 7.60107C2.9441 6.25693 4.21037 5.34426 5.65641 5.25668C5.76783 5.24993 5.89219 5.24982 6.16235 5.24982H17.8486C18.1052 5.24982 18.2456 5.24982 18.374 5.24205C20.0128 5.14279 21.4479 4.10843 22.0603 2.58507C22.1083 2.46575 22.1527 2.33263 22.2338 2.08924L22.3163 1.84171Z" fill="black"/>
<path d="M7.75008 5.74982H8.25008V21.2498H7.75008V5.74982Z" fill="black"/>
<path d="M15.7501 5.74982H16.2501V13.9171C16.2501 14.8687 16.2507 15.3195 16.305 15.7096C16.6114 17.9119 18.1601 19.74 20.282 20.4044C20.6573 20.5219 21.101 20.5965 22.0364 20.7524L22.2797 20.7834L22.2165 21.2794L21.9685 21.2478L21.959 21.2464L21.9324 21.242C21.0267 21.091 20.5457 21.0109 20.1326 20.8815C17.8262 20.1594 16.1429 18.1723 15.8097 15.7785C15.7501 15.3498 15.7501 14.8622 15.7501 13.9439V5.74982Z" fill="black"/>
</svg>
