<svg width="24" height="24" viewBox="0 0 24 24" fill="none" xmlns="http://www.w3.org/2000/svg">
<path d="M23.2649 1.36732L21.3676 0.734863L21.0514 1.68355C20.9628 1.94929 20.9316 2.04136 20.9005 2.11877C20.4682 3.19409 19.4552 3.92423 18.2984 3.99429C18.2151 3.99933 18.1179 3.99977 17.8378 3.99977L6.13014 3.99977C5.89424 3.99975 5.73232 3.99974 5.58081 4.00892C3.65275 4.12569 1.9644 5.34258 1.24392 7.13478C1.1873 7.27561 1.13611 7.4292 1.06153 7.65301L1.05136 7.68354L1.04712 7.69655L0.743896 8.64948L2.64974 9.25591L2.95088 8.30951C3.03781 8.04875 3.06871 7.95755 3.09958 7.88078C3.53187 6.80546 4.54488 6.07532 5.70172 6.00526C5.785 6.00022 5.88219 5.99977 6.16231 5.99977L17.8699 5.99978C18.1058 5.99979 18.2677 5.99981 18.4193 5.99063C20.3473 5.87386 22.0357 4.65697 22.7562 2.86478C22.8128 2.72391 22.864 2.57029 22.9386 2.34643L23.2649 1.36732Z" fill="black"/>
<path d="M7.00005 6.99977H9.00005V21.9998H7.00005V6.99977Z" fill="black"/>
<path d="M15.0001 6.99977H17.0001V13.917C17.0001 14.8925 17.0024 15.2802 17.0478 15.6062C17.3143 17.5212 18.661 19.1109 20.5061 19.6886C20.8182 19.7863 21.1972 19.8521 22.1455 20.0102L23.1184 20.1342L22.8656 22.1181L21.8737 21.9918C21.861 21.9901 21.8483 21.9883 21.8356 21.9862L21.7495 21.9718C20.9009 21.8304 20.3719 21.7423 19.9085 21.5972C17.3253 20.7885 15.44 18.5629 15.0669 15.8819C14.9999 15.4009 15 14.8646 15 14.0042L15.0001 6.99977Z" fill="black"/>
</svg>
