<svg width="24" height="24" viewBox="0 0 24 24" fill="none" xmlns="http://www.w3.org/2000/svg">
<path d="M23.5812 1.20951L21.2095 0.418945L20.8143 1.6048C20.7246 1.8737 20.6962 1.95714 20.6686 2.02582C20.2723 3.01153 19.3437 3.68083 18.2833 3.74505C18.2094 3.74953 18.1213 3.75008 17.8378 3.75008L6.12548 3.75008C5.89436 3.75005 5.7251 3.75004 5.56577 3.75969C3.5413 3.88229 1.76854 5.16003 1.01203 7.04184C0.95249 7.18994 0.898981 7.35052 0.82592 7.56979L0.814255 7.60479L0.808956 7.62106L0.429932 8.81221L2.81223 9.57026L3.18867 8.38725C3.27617 8.12478 3.30427 8.04233 3.33161 7.97434C3.72787 6.98863 4.65647 6.31934 5.7169 6.25511C5.7908 6.25064 5.87894 6.25008 6.16238 6.25008L17.8747 6.25009C18.1058 6.25011 18.2751 6.25013 18.4344 6.24048C20.4589 6.11787 22.2317 4.84013 22.9882 2.95834C23.0477 2.81023 23.1012 2.64964 23.1743 2.43037L23.5812 1.20951Z" fill="black"/>
<path d="M6.75012 7.50008H9.25012V22.2501H6.75012V7.50008Z" fill="black"/>
<path d="M14.7501 7.50008H17.2501V13.9173C17.2501 14.9008 17.2531 15.2674 17.2955 15.572C17.5486 17.3913 18.828 18.9015 20.5809 19.4503C20.872 19.5415 21.2296 19.6044 22.1819 19.7631L23.3981 19.9181L23.0821 22.398L21.8421 22.2401C21.8263 22.238 21.8104 22.2357 21.7946 22.2331L21.6938 22.2163C20.8596 22.0774 20.3143 21.9865 19.8339 21.8361C17.1585 20.9985 15.2057 18.6934 14.8193 15.9166C14.7499 15.418 14.75 14.8652 14.7501 14.0196L14.7501 7.50008Z" fill="black"/>
</svg>
