<svg width="24" height="24" viewBox="0 0 24 24" fill="none" xmlns="http://www.w3.org/2000/svg">
<path d="M22.6324 1.6839L21.6837 1.36768L21.5256 1.84202C21.4391 2.10146 21.4024 2.21078 21.3643 2.30563C20.8599 3.56017 19.6781 4.41199 18.3284 4.49373C18.2264 4.49991 18.1111 4.50013 17.8376 4.50013L6.14274 4.50013C5.89438 4.50013 5.74693 4.50012 5.6109 4.50836C3.87564 4.61345 2.35613 5.70866 1.70769 7.32163C1.65686 7.44807 1.61025 7.58791 1.53173 7.82349L1.52556 7.84201L1.52344 7.84852L1.37183 8.32498L2.32475 8.6282L2.47532 8.15499C2.56103 7.89788 2.59755 7.78908 2.63552 7.69463C3.13986 6.4401 4.32171 5.58827 5.67135 5.50653C5.77339 5.50035 5.8887 5.50013 6.16217 5.50013L17.8571 5.50013C18.1054 5.50014 18.2529 5.50014 18.3889 5.4919C20.1242 5.38681 21.6437 4.2916 22.2921 2.67863C22.3429 2.55217 22.3896 2.41231 22.4681 2.17667L22.6324 1.6839Z" fill="black"/>
<path d="M7.49991 6.00013H8.49991V21.5001H7.49991V6.00013Z" fill="black"/>
<path d="M15.4999 6.00013H16.4999V13.9174C16.4999 14.877 16.5011 15.3067 16.5524 15.6755C16.8456 17.782 18.3269 19.5307 20.3566 20.1661C20.7107 20.277 21.1327 20.3487 22.0726 20.5053L22.5591 20.5673L22.4327 21.5593L21.9367 21.4961C21.9304 21.4953 21.924 21.4944 21.9177 21.4933L21.8683 21.4851C20.9843 21.3378 20.4875 21.255 20.0578 21.1204C17.6591 20.3694 15.9084 18.3028 15.562 15.8133C15.4999 15.3672 15.4999 14.8637 15.4999 13.9673L15.4999 6.00013Z" fill="black"/>
</svg>
