<svg width="24" height="24" viewBox="0 0 24 24" fill="none" xmlns="http://www.w3.org/2000/svg">
<path d="M22.3162 1.84171L21.8418 1.68359L21.7628 1.92076C21.6773 2.17706 21.6379 2.295 21.5963 2.39857C21.0559 3.74271 19.7897 4.65539 18.3436 4.74296C18.2322 4.74971 18.1078 4.74982 17.8377 4.74982H6.15141C5.8948 4.74982 5.75444 4.74982 5.62606 4.75759C3.98721 4.85685 2.55211 5.89121 1.9397 7.41457C1.89173 7.5339 1.84735 7.66704 1.7662 7.91048L1.76278 7.92076L1.76172 7.92402L1.68591 8.16225L2.16237 8.31386L2.23766 8.07725C2.32272 7.82208 2.36207 7.70442 2.40362 7.60107C2.94398 6.25693 4.21024 5.34426 5.65629 5.25668C5.76771 5.24993 5.89207 5.24982 6.16223 5.24982H7.74995V21.2498H8.24995V5.24982H15.7499V13.9439C15.7499 14.8622 15.7499 15.3498 15.8096 15.7785C16.1427 18.1723 17.8261 20.1594 20.1325 20.8816C20.5456 21.0109 21.0265 21.091 21.9323 21.242L21.9683 21.248L22.2163 21.2794L22.2795 20.7834L22.0363 20.7524C21.1009 20.5965 20.6572 20.5219 20.2819 20.4044C18.16 19.74 16.6113 17.9119 16.3048 15.7096C16.2505 15.3195 16.2499 14.8687 16.2499 13.9171V5.24982H17.8485C18.1051 5.24982 18.2455 5.24982 18.3738 5.24205C20.0127 5.14279 21.4478 4.10843 22.0602 2.58507C22.1082 2.46575 22.1525 2.33263 22.2337 2.08924L22.3162 1.84171Z" fill="black"/>
</svg>
