<svg width="24" height="24" viewBox="0 0 24 24" fill="none" xmlns="http://www.w3.org/2000/svg">
<path d="M22.6325 1.6839L21.6838 1.36768L21.5257 1.84202C21.4392 2.10146 21.4025 2.21078 21.3644 2.30563C20.8601 3.56017 19.6782 4.41199 18.3286 4.49373C18.2265 4.49991 18.1112 4.50013 17.8377 4.50013L6.14286 4.50013C5.89451 4.50013 5.74706 4.50012 5.61102 4.50836C3.87576 4.61345 2.35625 5.70866 1.70781 7.32163C1.65698 7.44807 1.61037 7.58791 1.53185 7.82349L1.52568 7.84201L1.52356 7.84852L1.37195 8.32498L2.32487 8.6282L2.47544 8.15499C2.56115 7.89788 2.59768 7.78908 2.63564 7.69463C3.13998 6.4401 4.32183 5.58827 5.67147 5.50653C5.77351 5.50035 5.88882 5.50013 6.1623 5.50013H7.50002V21.5001H8.50002V5.50013H15.5L15.5 13.9673C15.5 14.8637 15.5 15.3672 15.5621 15.8133C15.9085 18.3028 17.6592 20.3694 20.0579 21.1204C20.4876 21.255 20.9843 21.3378 21.8684 21.4851L21.9178 21.4933C21.9241 21.4944 21.9305 21.4953 21.9368 21.4961L22.4328 21.5593L22.5592 20.5673L22.0727 20.5054C21.1328 20.3487 20.7108 20.277 20.3567 20.1661C18.327 19.5307 16.8457 17.782 16.5525 15.6755C16.5012 15.3067 16.5 14.877 16.5 13.9174V5.50013L17.8572 5.50013C18.1055 5.50014 18.253 5.50014 18.389 5.4919C20.1243 5.38681 21.6438 4.2916 22.2922 2.67863C22.3431 2.55217 22.3897 2.41231 22.4682 2.17667L22.6325 1.6839Z" fill="black"/>
</svg>
