<svg width="24" height="24" viewBox="0 0 24 24" fill="none" xmlns="http://www.w3.org/2000/svg">
<path d="M22.9486 1.52561L21.5256 1.05127L21.2885 1.76278C21.2009 2.02538 21.167 2.12607 21.1324 2.2122C20.6641 3.37712 19.5666 4.16811 18.3134 4.24401C18.2207 4.24962 18.1145 4.24995 17.8377 4.24995L6.1358 4.24995C5.89423 4.24994 5.7396 4.24993 5.59585 4.25864C3.7642 4.36957 2.16026 5.52562 1.4758 7.22821C1.42209 7.36182 1.3732 7.5085 1.29682 7.73768L1.28846 7.76277L1.28527 7.77254L1.05786 8.48723L2.48724 8.94206L2.7131 8.23225C2.79943 7.97328 2.83314 7.8733 2.86755 7.7877C3.33587 6.62278 4.43329 5.8318 5.68653 5.7559C5.77919 5.75028 5.88544 5.74995 6.16224 5.74995H7.24997V21.75H8.74997V5.74995H15.25L15.25 13.9871C15.2499 14.8643 15.2499 15.3841 15.3144 15.8476C15.6742 18.4328 17.4922 20.579 19.9831 21.3588C20.4297 21.4987 20.9424 21.5841 21.8077 21.7283L21.8766 21.7397C21.8861 21.7413 21.8956 21.7427 21.9052 21.7439L22.6492 21.8387L22.8387 20.3508L22.109 20.2578C21.1649 20.1004 20.7644 20.0316 20.4313 19.9274C18.4939 19.3208 17.0799 17.6516 16.8001 15.6408C16.7517 15.2934 16.75 14.8847 16.75 13.9172V5.74995L17.8641 5.74995C18.1057 5.74996 18.2603 5.74997 18.4041 5.74127C20.2357 5.63033 21.8397 4.47428 22.5241 2.7717C22.5778 2.63809 22.6267 2.49143 22.7031 2.26229L22.9486 1.52561Z" fill="black"/>
</svg>
