<svg width="24" height="24" viewBox="0 0 24 24" fill="none" xmlns="http://www.w3.org/2000/svg">
<path d="M9 5.75C7.20508 5.75 5.75 7.20507 5.75 9C5.75 9.41421 5.41421 9.75 5 9.75C4.58579 9.75 4.25 9.41421 4.25 9C4.25 6.37665 6.37665 4.25 9 4.25C9.41422 4.25 9.75 4.58579 9.75 5C9.75 5.41421 9.41421 5.75 9 5.75Z" fill="black"/>
<path fill-rule="evenodd" clip-rule="evenodd" d="M15.6507 13.8826C16.656 12.5155 17.25 10.8271 17.25 9C17.25 4.44365 13.5563 0.75 9 0.75C4.44365 0.75 0.75 4.44365 0.75 9C0.75 13.5563 4.44365 17.25 9 17.25C10.8273 17.25 12.5158 16.6559 13.883 15.6504L20.8664 22.6339C21.3546 23.122 22.146 23.122 22.6342 22.6339C23.1223 22.1457 23.1223 21.3543 22.6342 20.8661L15.6507 13.8826ZM9 3.25C5.82436 3.25 3.25 5.82436 3.25 9C3.25 12.1756 5.82436 14.75 9 14.75C10.5511 14.75 11.9588 14.1358 12.9931 13.1374C13.015 13.1116 13.0381 13.0865 13.0625 13.0622C13.0868 13.0378 13.1119 13.0147 13.1376 12.9928C14.1359 11.9585 14.75 10.551 14.75 9C14.75 5.82436 12.1756 3.25 9 3.25Z" fill="black"/>
</svg>
