<svg width="24" height="24" viewBox="0 0 24 24" fill="none" xmlns="http://www.w3.org/2000/svg">
<path d="M23.581 1.20951L21.2093 0.418945L20.814 1.6048C20.7244 1.8737 20.696 1.95714 20.6684 2.02582C20.2721 3.01153 19.3435 3.68083 18.2831 3.74505C18.2092 3.74953 18.121 3.75008 17.8376 3.75008L6.12524 3.75008C5.89412 3.75005 5.72485 3.75004 5.56553 3.75969C3.54106 3.88229 1.76829 5.16003 1.01178 7.04184C0.952246 7.18994 0.898737 7.35052 0.825676 7.56979L0.814011 7.60479L0.808712 7.62106L0.429688 8.81221L2.81199 9.57026L3.18842 8.38725C3.27592 8.12478 3.30403 8.04233 3.33136 7.97434C3.72763 6.98863 4.65622 6.31934 5.71666 6.25511C5.79056 6.25064 5.8787 6.25008 6.16214 6.25008L17.8745 6.25009C18.1056 6.25011 18.2749 6.25013 18.4342 6.24048C20.4587 6.11787 22.2314 4.84013 22.9879 2.95834C23.0475 2.81023 23.101 2.64964 23.1741 2.43037L23.581 1.20951Z" fill="black"/>
<path d="M6.74988 7.50008H9.24988V22.2501H6.74988V7.50008Z" fill="black"/>
<path d="M14.7499 7.50008H17.2499V13.9173C17.2499 14.9008 17.2528 15.2674 17.2952 15.572C17.5484 17.3913 18.8278 18.9015 20.5806 19.4503C20.8717 19.5415 21.2294 19.6044 22.1817 19.7631L23.3978 19.9181L23.0819 22.398L21.8419 22.2401C21.826 22.238 21.8101 22.2357 21.7944 22.2331L21.6935 22.2163C20.8594 22.0774 20.314 21.9865 19.8336 21.8361C17.1582 20.9985 15.2055 18.6934 14.8191 15.9166C14.7497 15.418 14.7498 14.8652 14.7499 14.0196L14.7499 7.50008Z" fill="black"/>
</svg>
