<svg width="24" height="24" viewBox="0 0 24 24" fill="none" xmlns="http://www.w3.org/2000/svg">
<path d="M23.2652 1.36732L21.3678 0.734863L21.0516 1.68355C20.963 1.94929 20.9319 2.04136 20.9007 2.11877C20.4684 3.19409 19.4554 3.92423 18.2986 3.99429C18.2153 3.99933 18.1181 3.99977 17.838 3.99977L6.13039 3.99977C5.89448 3.99975 5.73257 3.99974 5.58106 4.00892C3.65299 4.12569 1.96464 5.34258 1.24416 7.13478C1.18754 7.27561 1.13636 7.4292 1.06177 7.65301L1.0516 7.68354L1.04736 7.69655L0.744141 8.64948L2.64998 9.25591L2.95113 8.30951C3.03806 8.04875 3.06896 7.95755 3.09982 7.88078C3.53211 6.80546 4.54512 6.07532 5.70196 6.00526C5.78524 6.00022 5.88244 5.99977 6.16256 5.99977L17.8702 5.99978C18.1061 5.99979 18.268 5.99981 18.4195 5.99063C20.3476 5.87386 22.0359 4.65697 22.7564 2.86478C22.813 2.72391 22.8642 2.57029 22.9388 2.34643L23.2652 1.36732Z" fill="black"/>
<path d="M7.00029 6.99977H9.00029V21.9998H7.00029V6.99977Z" fill="black"/>
<path d="M15.0003 6.99977H17.0003V13.917C17.0003 14.8925 17.0026 15.2802 17.048 15.6062C17.3145 17.5212 18.6612 19.1109 20.5063 19.6886C20.8184 19.7863 21.1974 19.8521 22.1457 20.0102L23.1187 20.1342L22.8659 22.1181L21.8739 21.9918C21.8612 21.9901 21.8485 21.9883 21.8359 21.9862L21.7498 21.9718C20.9011 21.8304 20.3722 21.7423 19.9088 21.5972C17.3256 20.7885 15.4402 18.5629 15.0671 15.8819C15.0002 15.4009 15.0002 14.8646 15.0003 14.0042L15.0003 6.99977Z" fill="black"/>
</svg>
