<svg width="24" height="24" viewBox="0 0 24 24" fill="none" xmlns="http://www.w3.org/2000/svg">
<path d="M22.3158 1.84171L21.8415 1.68359L21.7624 1.92076C21.677 2.17706 21.6375 2.295 21.5959 2.39857C21.0556 3.74271 19.7893 4.65539 18.3432 4.74296C18.2318 4.74971 18.1075 4.74982 17.8373 4.74982H6.15105C5.89443 4.74982 5.75408 4.74982 5.6257 4.75759C3.98685 4.85685 2.55175 5.89121 1.93933 7.41457C1.89136 7.5339 1.84698 7.66704 1.76584 7.91048L1.76241 7.92076L1.76135 7.92402L1.68555 8.16225L2.16201 8.31386L2.2373 8.07725C2.32235 7.82208 2.36171 7.70442 2.40325 7.60107C2.94361 6.25693 4.20988 5.34426 5.65592 5.25668C5.76734 5.24993 5.8917 5.24982 6.16186 5.24982H7.74958V21.2498H8.24958V5.24982H15.7496V13.9439C15.7496 14.8622 15.7496 15.3498 15.8092 15.7785C16.1424 18.1723 17.8257 20.1594 20.1321 20.8816C20.5452 21.0109 21.0262 21.091 21.9319 21.242L21.9679 21.248L22.216 21.2794L22.2792 20.7834L22.0359 20.7524C21.1005 20.5965 20.6568 20.5219 20.2815 20.4044C18.1596 19.74 16.6109 17.9119 16.3045 15.7096C16.2502 15.3195 16.2496 14.8687 16.2496 13.9171V5.24982H17.8481C18.1047 5.24982 18.2451 5.24982 18.3735 5.24205C20.0123 5.14279 21.4474 4.10843 22.0598 2.58507C22.1078 2.46575 22.1522 2.33263 22.2333 2.08924L22.3158 1.84171Z" fill="black"/>
</svg>
