<svg width="24" height="24" viewBox="0 0 24 24" fill="none" xmlns="http://www.w3.org/2000/svg">
<path d="M22.3158 1.84171L21.8415 1.68359L21.7624 1.92076C21.677 2.17706 21.6375 2.295 21.5959 2.39857C21.0556 3.74271 19.7893 4.65539 18.3432 4.74296C18.2318 4.74971 18.1075 4.74982 17.8373 4.74982H6.15105C5.89443 4.74982 5.75408 4.74982 5.6257 4.75759C3.98685 4.85685 2.55175 5.89121 1.93933 7.41457C1.89136 7.5339 1.84698 7.66704 1.76584 7.91048L1.76241 7.92076L1.76135 7.92402L1.68555 8.16225L2.16201 8.31386L2.2373 8.07725C2.32235 7.82208 2.36171 7.70442 2.40325 7.60107C2.94361 6.25693 4.20988 5.34426 5.65592 5.25668C5.76734 5.24993 5.8917 5.24982 6.16186 5.24982H17.8481C18.1047 5.24982 18.2451 5.24982 18.3735 5.24205C20.0123 5.14279 21.4474 4.10843 22.0598 2.58507C22.1078 2.46575 22.1522 2.33263 22.2333 2.08924L22.3158 1.84171Z" fill="black"/>
<path d="M7.7496 5.74982H8.2496V21.2498H7.7496V5.74982Z" fill="black"/>
<path d="M15.7496 5.74982H16.2496V13.9171C16.2496 14.8687 16.2502 15.3195 16.3045 15.7096C16.611 17.9119 18.1597 19.74 20.2816 20.4044C20.6568 20.5219 21.1005 20.5965 22.0359 20.7524L22.2792 20.7834L22.216 21.2794L21.968 21.2478L21.9585 21.2464L21.9319 21.242C21.0262 21.091 20.5452 21.0109 20.1322 20.8815C17.8257 20.1594 16.1424 18.1723 15.8093 15.7785C15.7496 15.3498 15.7496 14.8622 15.7496 13.9439V5.74982Z" fill="black"/>
</svg>
