<svg width="24" height="24" viewBox="0 0 24 24" fill="none" xmlns="http://www.w3.org/2000/svg">
<path d="M22.9494 1.52561L21.5264 1.05127L21.2892 1.76278C21.2017 2.02538 21.1677 2.12607 21.1331 2.2122C20.6648 3.37712 19.5674 4.16811 18.3141 4.24401C18.2215 4.24962 18.1152 4.24995 17.8384 4.24995L6.13654 4.24995C5.89496 4.24994 5.74034 4.24993 5.59659 4.25864C3.76493 4.36957 2.16099 5.52562 1.47653 7.22821C1.42282 7.36182 1.37393 7.5085 1.29755 7.73768L1.28919 7.76277L1.28601 7.77254L1.05859 8.48723L2.48797 8.94206L2.71383 8.23225C2.80016 7.97328 2.83387 7.8733 2.86828 7.7877C3.3366 6.62278 4.43402 5.8318 5.68727 5.7559C5.77992 5.75028 5.88618 5.74995 6.16298 5.74995H7.2507V21.75H8.7507V5.74995H15.2507L15.2507 13.9871C15.2507 14.8643 15.2506 15.3841 15.3151 15.8476C15.6749 18.4328 17.4929 20.579 19.9839 21.3588C20.4304 21.4987 20.9431 21.5841 21.8084 21.7283L21.8774 21.7397C21.8869 21.7413 21.8964 21.7427 21.9059 21.7439L22.6499 21.8387L22.8395 20.3508L22.1098 20.2578C21.1656 20.1004 20.7651 20.0316 20.432 19.9274C18.4947 19.3208 17.0806 17.6516 16.8008 15.6408C16.7525 15.2934 16.7507 14.8847 16.7507 13.9172V5.74995L17.8649 5.74995C18.1064 5.74996 18.2611 5.74997 18.4048 5.74127C20.2365 5.63033 21.8404 4.47428 22.5249 2.7717C22.5786 2.63809 22.6275 2.49143 22.7038 2.26229L22.9494 1.52561Z" fill="black"/>
</svg>
