<svg width="24" height="24" viewBox="0 0 24 24" fill="none" xmlns="http://www.w3.org/2000/svg">
<path d="M22.6316 1.6839L21.6829 1.36768L21.5248 1.84202C21.4383 2.10146 21.4017 2.21078 21.3635 2.30563C20.8592 3.56017 19.6774 4.41199 18.3277 4.49373C18.2257 4.49991 18.1104 4.50013 17.8369 4.50013L6.14201 4.50013C5.89365 4.50013 5.7462 4.50012 5.61017 4.50836C3.87491 4.61345 2.35539 5.70866 1.70696 7.32163C1.65613 7.44807 1.60952 7.58791 1.531 7.82349L1.52483 7.84201L1.52271 7.84852L1.37109 8.32498L2.32401 8.6282L2.47459 8.15499C2.5603 7.89788 2.59682 7.78908 2.63479 7.69463C3.13913 6.4401 4.32097 5.58827 5.67062 5.50653C5.77266 5.50035 5.88796 5.50013 6.16144 5.50013L17.8563 5.50013C18.1047 5.50014 18.2521 5.50014 18.3882 5.4919C20.1234 5.38681 21.6429 4.2916 22.2914 2.67863C22.3422 2.55217 22.3888 2.41231 22.4674 2.17667L22.6316 1.6839Z" fill="black"/>
<path d="M7.49918 6.00013H8.49918V21.5001H7.49918V6.00013Z" fill="black"/>
<path d="M15.4992 6.00013H16.4992V13.9174C16.4992 14.877 16.5004 15.3067 16.5517 15.6755C16.8448 17.782 18.3262 19.5307 20.3558 20.1661C20.71 20.277 21.132 20.3487 22.0719 20.5053L22.5584 20.5673L22.432 21.5593L21.936 21.4961C21.9296 21.4953 21.9233 21.4944 21.917 21.4933L21.8676 21.4851C20.9835 21.3378 20.4868 21.255 20.057 21.1204C17.6584 20.3694 15.9077 18.3028 15.5612 15.8133C15.4991 15.3672 15.4992 14.8637 15.4992 13.9673L15.4992 6.00013Z" fill="black"/>
</svg>
