<svg width="24" height="24" viewBox="0 0 24 24" fill="none" xmlns="http://www.w3.org/2000/svg">
<path d="M7.5 23H5.7998C4.11978 23 3.27941 22.9998 2.6377 22.6729C2.07347 22.3853 1.61472 21.9265 1.32715 21.3623C1.00018 20.7206 1 19.8802 1 18.2002V16.5H7.5V23Z" fill="black"/>
<path d="M15.5 23H8.5V16.5H15.5V23Z" fill="black"/>
<path d="M23 18.2002C23 19.8802 22.9998 20.7206 22.6729 21.3623C22.3853 21.9265 21.9265 22.3853 21.3623 22.6729C20.7206 22.9998 19.8802 23 18.2002 23H16.5V16.5H23V18.2002Z" fill="black"/>
<path d="M7.5 15.5H1V8.5H7.5V15.5Z" fill="black"/>
<path d="M15.5 15.5H8.5V8.5H15.5V15.5Z" fill="black"/>
<path d="M23 15.5H16.5V8.5H23V15.5Z" fill="black"/>
<path d="M7.5 7.5H1V5.7998C1 4.11978 1.00018 3.27941 1.32715 2.6377C1.61472 2.07347 2.07347 1.61472 2.6377 1.32715C3.27941 1.00018 4.11978 1 5.7998 1H7.5V7.5Z" fill="black"/>
<path d="M15.5 7.5H8.5V1H15.5V7.5Z" fill="black"/>
<path d="M18.2002 1C19.8802 1 20.7206 1.00018 21.3623 1.32715C21.9265 1.61472 22.3853 2.07347 22.6729 2.6377C22.9998 3.27941 23 4.11978 23 5.7998V7.5H16.5V1H18.2002Z" fill="black"/>
</svg>
