<svg width="24" height="24" viewBox="0 0 24 24" fill="none" xmlns="http://www.w3.org/2000/svg">
<path fill-rule="evenodd" clip-rule="evenodd" d="M19.3125 1.00488C20.2877 1.02021 20.881 1.0819 21.3623 1.32715C21.9265 1.61472 22.3853 2.07347 22.6729 2.6377C22.9998 3.27941 23 4.11978 23 5.7998V18.2002L22.9951 19.3125C22.9798 20.2877 22.9181 20.881 22.6729 21.3623L22.5576 21.5684C22.2694 22.0383 21.8562 22.4211 21.3623 22.6729L21.2393 22.7305C20.7793 22.9281 20.2066 22.9811 19.3125 22.9951L18.2002 23H5.7998C4.11978 23 3.27941 22.9998 2.6377 22.6729C2.14381 22.4211 1.73057 22.0383 1.44238 21.5684L1.32715 21.3623C1.0819 20.881 1.02021 20.2877 1.00488 19.3125L1 18.2002V5.7998C1 4.22468 1.00007 3.38795 1.26953 2.76074L1.32715 2.6377C1.57888 2.14381 1.96166 1.73057 2.43164 1.44238L2.6377 1.32715C3.27941 1.00018 4.11978 1 5.7998 1H18.2002L19.3125 1.00488ZM2.5 18.2002C2.5 19.0647 2.50144 19.6229 2.53613 20.0479C2.56936 20.4546 2.6253 20.6063 2.66309 20.6807C2.8069 20.9629 3.03709 21.1931 3.31934 21.3369C3.39365 21.3747 3.54542 21.4306 3.95215 21.4639C4.37708 21.4986 4.93534 21.5 5.7998 21.5H7.75V16.25H2.5V18.2002ZM16.25 16.25V21.5H18.2002C19.0647 21.5 19.6229 21.4986 20.0479 21.4639C20.4546 21.4306 20.6063 21.3747 20.6807 21.3369C20.9629 21.1931 21.1931 20.9629 21.3369 20.6807C21.3747 20.6063 21.4306 20.4546 21.4639 20.0479C21.4986 19.6229 21.5 19.0647 21.5 18.2002V16.25H16.25ZM9.25 21.5H14.75V16.25H9.25V21.5ZM16.25 9.25V14.75H21.5V9.25H16.25ZM2.5 14.75H7.75V9.25H2.5V14.75ZM9.25 14.75H14.75V9.25H9.25V14.75ZM16.25 7.75H21.5V5.7998C21.5 4.93534 21.4986 4.37708 21.4639 3.95215C21.4306 3.54542 21.3747 3.39365 21.3369 3.31934C21.1931 3.03709 20.9629 2.8069 20.6807 2.66309C20.6063 2.6253 20.4546 2.56936 20.0479 2.53613C19.6229 2.50144 19.0647 2.5 18.2002 2.5H16.25V7.75ZM5.7998 2.5C4.93534 2.5 4.37708 2.50144 3.95215 2.53613C3.54542 2.56936 3.39365 2.6253 3.31934 2.66309C3.03709 2.8069 2.8069 3.03709 2.66309 3.31934C2.6253 3.39365 2.56936 3.54542 2.53613 3.95215C2.50144 4.37708 2.5 4.93534 2.5 5.7998V7.75H7.75V2.5H5.7998ZM9.25 7.75H14.75V2.5H9.25V7.75Z" fill="black"/>
</svg>
