<svg width="24" height="24" viewBox="0 0 24 24" fill="none" xmlns="http://www.w3.org/2000/svg">
<path fill-rule="evenodd" clip-rule="evenodd" d="M19.3125 1.00488C20.2877 1.02021 20.881 1.0819 21.3623 1.32715C21.9265 1.61472 22.3853 2.07347 22.6729 2.6377C22.9998 3.27941 23 4.11978 23 5.7998V18.2002L22.9951 19.3125C22.9798 20.2877 22.9181 20.881 22.6729 21.3623L22.5576 21.5684C22.2694 22.0383 21.8562 22.4211 21.3623 22.6729L21.2393 22.7305C20.7793 22.9281 20.2066 22.9811 19.3125 22.9951L18.2002 23H5.7998C4.11978 23 3.27941 22.9998 2.6377 22.6729C2.14381 22.4211 1.73057 22.0383 1.44238 21.5684L1.32715 21.3623C1.0819 20.881 1.02021 20.2877 1.00488 19.3125L1 18.2002V5.7998C1 4.11978 1.00018 3.27941 1.32715 2.6377C1.61472 2.07347 2.07347 1.61472 2.6377 1.32715C3.27941 1.00018 4.11978 1 5.7998 1H18.2002L19.3125 1.00488ZM3.5 18.2002C3.5 19.0814 3.50161 19.592 3.53223 19.9668C3.54517 20.1253 3.56094 20.2121 3.56934 20.251C3.61261 20.3252 3.67392 20.3862 3.74805 20.4297C3.78635 20.438 3.87317 20.4547 4.0332 20.4678C4.40801 20.4984 4.91863 20.5 5.7998 20.5H7.25V16.75H3.5V18.2002ZM16.75 16.75V20.5H18.2002C19.0814 20.5 19.592 20.4984 19.9668 20.4678C20.1255 20.4548 20.2122 20.4381 20.251 20.4297C20.3253 20.3863 20.3863 20.3253 20.4297 20.251C20.4381 20.2122 20.4548 20.1255 20.4678 19.9668C20.4984 19.592 20.5 19.0814 20.5 18.2002V16.75H16.75ZM9.75 20.5H14.25V16.75H9.75V20.5ZM16.75 9.75V14.25H20.5V9.75H16.75ZM3.5 14.25H7.25V9.75H3.5V14.25ZM9.75 14.25H14.25V9.75H9.75V14.25ZM16.75 7.25H20.5V5.7998C20.5 4.91863 20.4984 4.40801 20.4678 4.0332C20.4547 3.87317 20.438 3.78635 20.4297 3.74805C20.3862 3.67392 20.3252 3.61261 20.251 3.56934C20.2121 3.56094 20.1253 3.54517 19.9668 3.53223C19.592 3.50161 19.0814 3.5 18.2002 3.5H16.75V7.25ZM5.7998 3.5C4.91863 3.5 4.40801 3.50161 4.0332 3.53223C3.87345 3.54528 3.78645 3.56098 3.74805 3.56934C3.67398 3.61267 3.61267 3.67398 3.56934 3.74805C3.56098 3.78645 3.54528 3.87345 3.53223 4.0332C3.50161 4.40801 3.5 4.91863 3.5 5.7998V7.25H7.25V3.5H5.7998ZM9.75 7.25H14.25V3.5H9.75V7.25Z" fill="black"/>
</svg>
