<svg width="24" height="24" viewBox="0 0 24 24" fill="none" xmlns="http://www.w3.org/2000/svg">
<path d="M6.75 23H5.7998C4.11978 23 3.27941 22.9998 2.6377 22.6729C2.07347 22.3853 1.61472 21.9265 1.32715 21.3623C1.00018 20.7206 1 19.8802 1 18.2002V17.25H6.75V23Z" fill="black"/>
<path d="M14.75 23H9.25V17.25H14.75V23Z" fill="black"/>
<path d="M23 18.2002C23 19.8802 22.9998 20.7206 22.6729 21.3623C22.3853 21.9265 21.9265 22.3853 21.3623 22.6729C20.7206 22.9998 19.8802 23 18.2002 23H17.25V17.25H23V18.2002Z" fill="black"/>
<path d="M6.75 14.75H1V9.25H6.75V14.75Z" fill="black"/>
<path d="M14.75 14.75H9.25V9.25H14.75V14.75Z" fill="black"/>
<path d="M23 14.75H17.25V9.25H23V14.75Z" fill="black"/>
<path d="M6.75 6.75H1V5.7998C1 4.11978 1.00018 3.27941 1.32715 2.6377C1.61472 2.07347 2.07347 1.61472 2.6377 1.32715C3.27941 1.00018 4.11978 1 5.7998 1H6.75V6.75Z" fill="black"/>
<path d="M14.75 6.75H9.25V1H14.75V6.75Z" fill="black"/>
<path d="M18.2002 1C19.8802 1 20.7206 1.00018 21.3623 1.32715C21.9265 1.61472 22.3853 2.07347 22.6729 2.6377C22.9998 3.27941 23 4.11978 23 5.7998V6.75H17.25V1H18.2002Z" fill="black"/>
</svg>
