<svg width="24" height="24" viewBox="0 0 24 24" fill="none" xmlns="http://www.w3.org/2000/svg">
<path fill-rule="evenodd" clip-rule="evenodd" d="M20.0145 10.8855C20.0647 11.2498 20.0906 11.6219 20.0906 12C20.0906 16.4677 16.4688 20.0895 12.0011 20.0895C10.1268 20.0895 8.40147 19.4521 7.02991 18.3823C6.66574 18.4995 6.31346 18.6029 5.97488 18.692C4.86974 18.9828 3.88229 19.1292 3.09262 19.0904C2.32956 19.0529 1.59638 18.8314 1.23944 18.2132C0.882497 17.5949 1.05727 16.8492 1.40632 16.1697C1.76754 15.4664 2.38806 14.6844 3.19252 13.8728C3.43881 13.6243 3.7043 13.371 3.98764 13.1144C3.93744 12.7501 3.9115 12.3781 3.9115 12C3.9115 7.53222 7.53332 3.9104 12.0011 3.9104C13.8753 3.9104 15.6006 4.54777 16.9722 5.61758C17.3364 5.50043 17.6887 5.39704 18.0272 5.30793C19.1324 5.01708 20.1198 4.87067 20.9095 4.90948C21.6726 4.94699 22.4057 5.16848 22.7627 5.78672C23.1196 6.40497 22.9449 7.15066 22.5958 7.83025C22.2346 8.53352 21.6141 9.31547 20.8096 10.1271C20.5633 10.3756 20.2978 10.6289 20.0145 10.8855ZM4.9115 12C4.9115 8.0845 8.0856 4.9104 12.0011 4.9104C15.4044 4.9104 18.2476 7.30844 18.9331 10.507C17.4704 11.7712 15.5626 13.1222 13.3774 14.3838C11.1928 15.6451 9.06946 16.6216 7.24359 17.2563C5.81125 15.9591 4.9115 14.0846 4.9115 12ZM8.18841 17.9781C9.93677 17.323 11.8896 16.3975 13.8774 15.2499C15.8649 14.1024 17.6425 12.8742 19.0839 11.6878C19.0884 11.7913 19.0906 11.8954 19.0906 12C19.0906 15.9154 15.9165 19.0895 12.0011 19.0895C10.5976 19.0895 9.28935 18.6817 8.18841 17.9781ZM19.7721 9.74485C19.4034 8.4721 18.7305 7.3286 17.8373 6.39822C17.9882 6.35433 18.1365 6.31324 18.2818 6.275C19.34 5.99648 20.2156 5.87658 20.8604 5.90828C21.5318 5.94128 21.8045 6.1271 21.8967 6.28672C21.9888 6.44634 22.0134 6.77542 21.7063 7.37336C21.4113 7.94762 20.8697 8.64595 20.0994 9.42318C19.9941 9.52936 19.885 9.63662 19.7721 9.74485ZM4.22999 14.2551C4.11711 14.3633 4.008 14.4705 3.90276 14.5767C3.13242 15.3539 2.5908 16.0523 2.29585 16.6265C1.98873 17.2245 2.01331 17.5536 2.10547 17.7132C2.19762 17.8728 2.47032 18.0586 3.14172 18.0916C3.78651 18.1233 4.6621 18.0034 5.72037 17.7249C5.86566 17.6867 6.01386 17.6456 6.16481 17.6017C5.27159 16.6713 4.59869 15.5278 4.22999 14.2551Z" fill="black"/>
</svg>
