<svg width="24" height="24" viewBox="0 0 24 24" fill="none" xmlns="http://www.w3.org/2000/svg">
<path fill-rule="evenodd" clip-rule="evenodd" d="M20.5419 11.0804C20.5741 11.3825 20.5906 11.6893 20.5906 12C20.5906 16.7438 16.7449 20.5895 12.001 20.5895C10.1062 20.5895 8.35472 19.976 6.93433 18.9368C6.64939 19.0249 6.3717 19.1045 6.10212 19.1755C4.97354 19.4725 3.93015 19.6322 3.06805 19.5898C2.25916 19.5501 1.29575 19.3107 0.806406 18.4632C0.317068 17.6156 0.591518 16.6616 0.961534 15.9412C1.35589 15.1734 2.01585 14.3497 2.83737 13.5208C3.03357 13.3228 3.24138 13.1222 3.46012 12.9195C3.42797 12.6174 3.41148 12.3106 3.41148 12C3.41148 7.25608 7.25715 3.4104 12.001 3.4104C13.8958 3.4104 15.6473 4.02392 17.0677 5.06315C17.3527 4.97502 17.6304 4.89535 17.9 4.8244C19.0285 4.52737 20.0719 4.36771 20.934 4.41009C21.7429 4.44984 22.7063 4.68916 23.1957 5.53672C23.685 6.38428 23.4106 7.33828 23.0405 8.05869C22.6462 8.82647 21.9862 9.65024 21.1647 10.4791C20.9685 10.6771 20.7607 10.8777 20.5419 11.0804ZM5.41148 12C5.41148 8.36065 8.36172 5.4104 12.001 5.4104C15.0617 5.4104 17.6349 7.49701 18.3759 10.3253C16.974 11.5077 15.1784 12.7667 13.1274 13.9508C11.0771 15.1346 9.0895 16.0599 7.36496 16.6828C6.15871 15.4885 5.41148 13.8315 5.41148 12ZM9.3767 18.0462C10.8805 17.4226 12.4946 16.6255 14.1274 15.6829C15.7596 14.7405 17.2565 13.7415 18.5482 12.7513C18.1753 16.0368 15.3863 18.5895 12.001 18.5895C11.0683 18.5895 10.1808 18.3957 9.3767 18.0462ZM19.9842 8.82367C19.6741 8.04489 19.2533 7.32218 18.7413 6.67496C19.6204 6.46444 20.3262 6.38262 20.8358 6.40767C21.2506 6.42806 21.409 6.50878 21.457 6.54056C21.4605 6.59797 21.4512 6.77553 21.2615 7.14492C21.0285 7.59847 20.6053 8.16821 19.9842 8.82367ZM4.01786 15.1762C3.39678 15.8317 2.97354 16.4014 2.74059 16.855C2.55086 17.2244 2.54156 17.4019 2.5451 17.4593C2.59305 17.4911 2.75148 17.5718 3.16624 17.5922C3.6759 17.6173 4.38163 17.5355 5.26078 17.3249C4.74876 16.6777 4.32798 15.955 4.01786 15.1762Z" fill="black"/>
</svg>
