<svg width="24" height="24" viewBox="0 0 24 24" fill="none" xmlns="http://www.w3.org/2000/svg">
<path fill-rule="evenodd" clip-rule="evenodd" d="M19.7477 10.7893C19.8089 11.1839 19.8406 11.5882 19.8406 12C19.8406 16.3296 16.3307 19.8395 12.0011 19.8395C10.1374 19.8395 8.42561 19.1892 7.08026 18.1031C6.67502 18.236 6.28451 18.352 5.91126 18.4502C4.81784 18.738 3.85835 18.8777 3.10491 18.8407C2.36476 18.8043 1.7467 18.5918 1.45596 18.0882C1.16521 17.5846 1.29015 16.943 1.62871 16.2839C1.97336 15.6129 2.57416 14.8518 3.37009 14.0488C3.64157 13.7748 3.93697 13.4948 4.25442 13.2106C4.19325 12.816 4.16151 12.4117 4.16151 12C4.16151 7.67029 7.6714 4.1604 12.0011 4.1604C13.8647 4.1604 15.5765 4.81071 16.9219 5.89679C17.3271 5.76386 17.7176 5.64793 18.0909 5.5497C19.1843 5.26193 20.1438 5.12215 20.8972 5.15918C21.6374 5.19556 22.2554 5.40813 22.5462 5.91172C22.8369 6.41531 22.712 7.05685 22.3734 7.71602C22.0288 8.38704 21.428 9.14809 20.6321 9.95114C20.3606 10.2251 20.0652 10.5051 19.7477 10.7893ZM4.66151 12C4.66151 7.94643 7.94754 4.6604 12.0011 4.6604C15.5758 4.6604 18.5537 7.21604 19.2073 10.5999C17.7156 11.9047 15.7529 13.301 13.5024 14.6003C11.2525 15.8993 9.06235 16.9008 7.18689 17.5402C5.63964 16.1946 4.66151 14.2115 4.66151 12ZM7.64736 17.9094C9.49148 17.2551 11.5992 16.2765 13.7524 15.0333C15.9057 13.7901 17.8071 12.4541 19.2958 11.1841C19.3254 11.452 19.3406 11.7242 19.3406 12C19.3406 16.0535 16.0546 19.3395 12.0011 19.3395C10.3712 19.3395 8.86535 18.8082 7.64736 17.9094ZM19.6365 10.2151C19.2795 8.68189 18.4727 7.32147 17.3627 6.28049C17.6572 6.18823 17.9427 6.10572 18.2181 6.03323C19.2881 5.75163 20.1917 5.62511 20.8727 5.65858C21.567 5.69271 21.9548 5.88745 22.1132 6.16172C22.2715 6.436 22.2463 6.86923 21.9287 7.48758C21.6172 8.09409 21.0558 8.81333 20.2769 9.59917C20.0769 9.80102 19.8631 10.0066 19.6365 10.2151ZM4.3656 13.7849C4.139 13.9933 3.92527 14.1989 3.72521 14.4007C2.94634 15.1866 2.38499 15.9058 2.07348 16.5123C1.75587 17.1307 1.73062 17.5639 1.88897 17.8382C2.04732 18.1124 2.43514 18.3072 3.12945 18.3413C3.81046 18.3748 4.71401 18.2483 5.78401 17.9667C6.05943 17.8942 6.34495 17.8117 6.63945 17.7194C5.52944 16.6784 4.72259 15.318 4.3656 13.7849Z" fill="black"/>
</svg>
