<svg width="24" height="24" viewBox="0 0 24 24" fill="none" xmlns="http://www.w3.org/2000/svg">
<path fill-rule="evenodd" clip-rule="evenodd" d="M20.2792 10.9826C20.3197 11.316 20.3406 11.6555 20.3406 12C20.3406 16.6058 16.6069 20.3395 12.001 20.3395C10.1164 20.3395 8.37786 19.7144 6.98132 18.6602C6.65722 18.7624 6.34252 18.8537 6.0385 18.9337C4.92164 19.2277 3.90622 19.3807 3.08034 19.3401C2.29436 19.3015 1.44606 19.0711 1.02292 18.3382C0.599781 17.6053 0.824395 16.7554 1.18393 16.0554C1.56171 15.3199 2.20195 14.517 3.01494 13.6968C3.23615 13.4736 3.47246 13.2468 3.72292 13.0174C3.68237 12.6839 3.66149 12.3444 3.66149 12C3.66149 7.39415 7.39524 3.6604 12.001 3.6604C13.8856 3.6604 15.6242 4.28552 17.0208 5.33973C17.3449 5.23749 17.6596 5.14618 17.9636 5.06616C19.0805 4.77223 20.0959 4.61919 20.9218 4.65978C21.7077 4.69842 22.556 4.92882 22.9792 5.66172C23.4023 6.39462 23.1777 7.24447 22.8182 7.94447C22.4404 8.67999 21.8002 9.48285 20.9872 10.3031C20.766 10.5263 20.5296 10.7531 20.2792 10.9826ZM5.16149 12C5.16149 8.22258 8.22366 5.1604 12.001 5.1604C15.233 5.1604 17.9413 7.40206 18.6561 10.4154C17.2233 11.6388 15.3711 12.9441 13.2524 14.1673C11.1343 15.3902 9.07846 16.3414 7.30285 16.9705C5.98423 15.7237 5.16149 13.9579 5.16149 12ZM8.76184 18.0253C10.3976 17.38 12.1869 16.5145 14.0024 15.4664C15.8173 14.4185 17.461 13.3021 18.8375 12.2085C18.7273 15.8894 15.7087 18.8395 12.001 18.8395C10.8291 18.8395 9.72601 18.5448 8.76184 18.0253ZM19.8875 9.28164C19.5355 8.26001 18.9905 7.32823 18.2961 6.52981C18.3126 6.52543 18.329 6.52108 18.3454 6.51677C19.3919 6.24133 20.2396 6.12806 20.8481 6.15798C21.4966 6.18985 21.6542 6.36676 21.6801 6.41172C21.7061 6.45668 21.7805 6.68161 21.4839 7.25914C21.2055 7.80114 20.6836 8.47857 19.9218 9.24719C19.9104 9.25866 19.899 9.27014 19.8875 9.28164ZM4.11454 14.7183C4.10309 14.7298 4.09168 14.7412 4.08032 14.7527C3.3185 15.5213 2.7966 16.1988 2.51822 16.7408C2.22158 17.3183 2.296 17.5432 2.32196 17.5882C2.34792 17.6331 2.5055 17.81 3.15398 17.8419C3.76255 17.8718 4.61017 17.7586 5.65673 17.4831C5.6731 17.4788 5.68951 17.4745 5.70597 17.4701C5.01159 16.6717 4.46661 15.7399 4.11454 14.7183Z" fill="black"/>
</svg>
