<svg width="24" height="24" viewBox="0 0 24 24" fill="none" xmlns="http://www.w3.org/2000/svg">
<path d="M20.0016 12C20.0016 16.4183 16.4199 20 12.0016 20C10.0623 20 8.28413 19.3099 6.8993 18.162C8.91063 17.5206 11.3024 16.4484 13.7532 15.0334C16.2043 13.6182 18.329 12.0828 19.8901 10.6615C19.9635 11.0967 20.0016 11.5439 20.0016 12Z" fill="black"/>
<path d="M6.46401 17.7737C5.38673 16.7401 4.5981 15.4081 4.23115 13.9104L4.23233 13.9093C4.18629 13.7213 4.1469 13.5307 4.11442 13.3377L4.11316 13.3389C4.03981 12.9035 4.00162 12.4562 4.00162 12C4.00162 7.58172 7.58334 4 12.0016 4C15.7616 4 18.9158 6.59396 19.7722 10.09C19.7721 10.0898 19.7722 10.0901 19.7722 10.09C19.949 9.92444 20.1174 9.76042 20.2772 9.59921C21.056 8.81337 21.6174 8.09413 21.9289 7.48762C22.2465 6.86927 22.2718 6.43604 22.1134 6.16176C21.9551 5.88749 21.5672 5.69275 20.8729 5.65862C20.1919 5.62515 19.2884 5.75167 18.2184 6.03327C18.1759 6.04446 18.1331 6.05589 18.0901 6.06756C17.955 5.92892 17.8152 5.79489 17.6709 5.66571C17.8132 5.62467 17.9534 5.586 18.0911 5.54974C19.1846 5.26197 20.144 5.12219 20.8975 5.15922C21.6376 5.1956 22.2557 5.40817 22.5464 5.91176C22.8372 6.41535 22.7122 7.05689 22.3737 7.71607C22.029 8.38709 21.4282 9.14813 20.6323 9.95118C20.4018 10.1838 20.154 10.4212 19.8901 10.6615C19.8577 10.4687 19.8182 10.2778 19.7722 10.09C18.2281 11.5354 16.0499 13.13 13.5032 14.6004C10.9572 16.0703 8.48757 17.1591 6.46401 17.7737C6.60422 17.9082 6.74961 18.0379 6.8993 18.162C6.55865 18.2706 6.22877 18.3667 5.91151 18.4502C4.81808 18.738 3.85859 18.8778 3.10515 18.8408C2.36501 18.8044 1.74695 18.5918 1.4562 18.0882C1.16545 17.5846 1.29039 16.9431 1.62896 16.2839C1.97361 15.6129 2.5744 14.8518 3.37033 14.0488C3.4708 13.9474 3.57454 13.8452 3.68147 13.7423C3.72116 13.9328 3.76723 14.121 3.81945 14.3067C3.78779 14.3381 3.75646 14.3695 3.72546 14.4008C2.94659 15.1866 2.38524 15.9058 2.07372 16.5124C1.75612 17.1307 1.73086 17.5639 1.88922 17.8382C2.04757 18.1125 2.43538 18.3072 3.1297 18.3414C3.81071 18.3748 4.71426 18.2483 5.78425 17.9667C6.00457 17.9087 6.23135 17.8443 6.46401 17.7737Z" fill="black"/>
</svg>
