<svg width="24" height="24" viewBox="0 0 24 24" fill="none" xmlns="http://www.w3.org/2000/svg">
<path fill-rule="evenodd" clip-rule="evenodd" d="M19.7472 10.7893C19.8084 11.1839 19.8401 11.5882 19.8401 12C19.8401 16.3296 16.3303 19.8395 12.0006 19.8395C10.1369 19.8395 8.42512 19.1892 7.07977 18.1031C6.67454 18.236 6.28403 18.352 5.91078 18.4502C4.81735 18.738 3.85786 18.8777 3.10442 18.8407C2.36427 18.8043 1.74622 18.5918 1.45547 18.0882C1.16472 17.5846 1.28966 16.943 1.62823 16.2839C1.97288 15.6129 2.57367 14.8518 3.3696 14.0488C3.64108 13.7748 3.93648 13.4948 4.25393 13.2106C4.19276 12.816 4.16102 12.4117 4.16102 12C4.16102 7.67029 7.67091 4.1604 12.0006 4.1604C13.8642 4.1604 15.576 4.81071 16.9214 5.89679C17.3266 5.76386 17.7171 5.64793 18.0904 5.5497C19.1838 5.26193 20.1433 5.12215 20.8968 5.15918C21.6369 5.19556 22.255 5.40813 22.5457 5.91172C22.8364 6.41531 22.7115 7.05685 22.3729 7.71602C22.0283 8.38704 21.4275 9.14809 20.6316 9.95114C20.3601 10.2251 20.0647 10.5051 19.7472 10.7893ZM4.66102 12C4.66102 7.94643 7.94705 4.6604 12.0006 4.6604C15.5753 4.6604 18.5532 7.21604 19.2068 10.5999C17.7151 11.9047 15.7524 13.301 13.5019 14.6003C11.252 15.8993 9.06186 16.9008 7.18641 17.5402C5.63915 16.1946 4.66102 14.2115 4.66102 12ZM7.64687 17.9094C9.491 17.2551 11.5987 16.2765 13.7519 15.0333C15.9052 13.7901 17.8066 12.4541 19.2953 11.1841C19.3249 11.452 19.3401 11.7242 19.3401 12C19.3401 16.0535 16.0541 19.3395 12.0006 19.3395C10.3707 19.3395 8.86486 18.8082 7.64687 17.9094ZM19.636 10.2151C19.2791 8.68189 18.4722 7.32147 17.3622 6.28049C17.6567 6.18823 17.9422 6.10572 18.2177 6.03323C19.2876 5.75163 20.1912 5.62511 20.8722 5.65858C21.5665 5.69271 21.9543 5.88745 22.1127 6.16172C22.271 6.436 22.2458 6.86923 21.9282 7.48758C21.6167 8.09409 21.0553 8.81333 20.2764 9.59917C20.0764 9.80102 19.8627 10.0066 19.636 10.2151ZM4.36512 13.7849C4.13851 13.9933 3.92479 14.1989 3.72473 14.4007C2.94585 15.1866 2.38451 15.9058 2.07299 16.5123C1.75539 17.1307 1.73013 17.5639 1.88848 17.8382C2.04683 18.1124 2.43465 18.3072 3.12897 18.3413C3.80997 18.3748 4.71353 18.2483 5.78352 17.9667C6.05894 17.8942 6.34446 17.8117 6.63897 17.7194C5.52895 16.6784 4.7221 15.318 4.36512 13.7849Z" fill="black"/>
</svg>
