<svg width="24" height="24" viewBox="0 0 24 24" fill="none" xmlns="http://www.w3.org/2000/svg">
<path fill-rule="evenodd" clip-rule="evenodd" d="M20.803 11.1789C20.8279 11.4492 20.8406 11.7231 20.8406 12C20.8406 16.8819 16.883 20.8395 12.001 20.8395C10.0962 20.8395 8.33204 20.237 6.88882 19.2122C6.64219 19.2869 6.40098 19.3554 6.16574 19.4173C5.02544 19.7174 3.95409 19.8837 3.05577 19.8395C2.22396 19.7986 1.14543 19.5504 0.589889 18.5882C0.034353 17.626 0.358642 16.5678 0.739143 15.827C1.15006 15.0269 1.82975 14.1823 2.6598 13.3448C2.83108 13.172 3.01099 12.9973 3.1991 12.821C3.1742 12.5507 3.16147 12.2768 3.16147 12C3.16147 7.11801 7.11907 3.1604 12.001 3.1604C13.9059 3.1604 15.67 3.76291 17.1132 4.78775C17.3598 4.71298 17.6011 4.64455 17.8363 4.58263C18.9766 4.28252 20.048 4.11623 20.9463 4.16039C21.7781 4.20127 22.8566 4.44951 23.4122 5.41172C23.9677 6.37394 23.6434 7.43209 23.2629 8.17291C22.852 8.97295 22.1723 9.81762 21.3423 10.6551C21.171 10.8279 20.9911 11.0026 20.803 11.1789ZM5.66147 12C5.66147 8.49872 8.49979 5.6604 12.001 5.6604C14.8905 5.6604 17.3284 7.59345 18.0922 10.2369C16.7224 11.3778 14.9842 12.5901 13.0024 13.7343C11.0212 14.8782 9.1028 15.7771 7.43023 16.3929C6.33485 15.2535 5.66147 13.7053 5.66147 12ZM10.0472 18.0327C11.3955 17.4453 12.8177 16.7277 14.2524 15.8994C15.6869 15.0712 17.0192 14.1984 18.202 13.3247C17.5928 16.19 15.048 18.3395 12.001 18.3395C11.3193 18.3395 10.6626 18.2319 10.0472 18.0327ZM20.0629 8.36918C19.8179 7.82599 19.5196 7.31201 19.1747 6.83389C19.8641 6.69001 20.4172 6.6374 20.8236 6.65737C20.9881 6.66546 21.1022 6.68319 21.1792 6.70095C21.1561 6.77644 21.1144 6.88419 21.0391 7.0307C20.8534 7.39231 20.5316 7.84459 20.0629 8.36918ZM3.93915 15.6307C3.47045 16.1553 3.14869 16.6076 2.96296 16.9692C2.88771 17.1157 2.84598 17.2234 2.8229 17.2989C2.89981 17.3167 3.014 17.3344 3.1785 17.3425C3.58484 17.3625 4.13796 17.3099 4.82738 17.166C4.48246 16.6879 4.18416 16.1739 3.93915 15.6307ZM21.319 6.74937L21.3165 6.74769C21.3182 6.74875 21.319 6.74937 21.319 6.74937ZM21.2073 6.55867L21.2071 6.55564C21.2071 6.55564 21.2073 6.55661 21.2073 6.55867ZM2.68307 17.2505L2.68558 17.2522C2.68383 17.2511 2.68307 17.2505 2.68307 17.2505ZM2.79472 17.4412L2.79491 17.4443C2.79491 17.4443 2.79476 17.4433 2.79472 17.4412Z" fill="black"/>
</svg>
