<svg width="24" height="24" viewBox="0 0 24 24" fill="none" xmlns="http://www.w3.org/2000/svg">
<path d="M20.0016 12C20.0016 16.4183 16.4199 20 12.0016 20C10.3922 20 8.89378 19.5248 7.63905 18.707C9.5987 18.0345 11.8452 17.001 14.1282 15.6829C16.4106 14.3651 18.4285 12.9367 19.9906 11.5761C19.9979 11.7165 20.0016 11.8578 20.0016 12Z" fill="black"/>
<path d="M5.8886 17.1608C5.28188 16.4429 4.79935 15.6167 4.47414 14.7152L4.47521 14.7142C4.21512 13.9929 4.05574 13.2236 4.01403 12.4231L4.01265 12.4243C4.0053 12.2838 4.00159 12.1423 4.00159 12C4.00159 7.58172 7.58331 4 12.0016 4C15.4667 4 18.4172 6.20297 19.529 9.28474C19.6026 9.21306 19.6744 9.14189 19.7445 9.07124C20.4977 8.31123 20.9999 7.65471 21.2617 7.14496C21.4515 6.77557 21.4608 6.59801 21.4572 6.5406C21.4093 6.50882 21.2509 6.4281 20.8361 6.40772C20.4735 6.38989 20.0116 6.42616 19.4587 6.52439C18.9968 5.89658 18.4576 5.32922 17.8551 4.83638L17.9002 4.82444C19.0288 4.52742 20.0722 4.36775 20.9343 4.41013C21.7432 4.44989 22.7066 4.6892 23.1959 5.53676C23.6853 6.38432 23.4108 7.33832 23.0408 8.05873C22.6464 8.82651 21.9865 9.65028 21.165 10.4791C20.8101 10.8372 20.4174 11.2043 19.9906 11.5761C19.9487 10.7758 19.7891 10.0058 19.529 9.28474C18.0299 10.7446 15.7949 12.4112 13.1282 13.9509C10.4622 15.4901 7.90215 16.5923 5.8886 17.1608C6.39262 17.7572 6.98264 18.2791 7.63905 18.707C7.10379 18.8906 6.58972 19.0473 6.10236 19.1755C4.97378 19.4726 3.93039 19.6322 3.0683 19.5899C2.2594 19.5501 1.29599 19.3108 0.80665 18.4632C0.317312 17.6157 0.591762 16.6617 0.961778 15.9412C1.35613 15.1735 2.01609 14.3497 2.83762 13.5208L2.87155 13.4867C2.99782 14.2682 3.222 15.0169 3.5311 15.7199C3.16929 16.1499 2.90678 16.5319 2.74083 16.855C2.55111 17.2244 2.5418 17.402 2.54534 17.4594C2.59329 17.4912 2.75173 17.5719 3.16648 17.5923C3.73884 17.6204 4.5585 17.5138 5.59333 17.2414C5.69038 17.2159 5.78881 17.189 5.8886 17.1608Z" fill="black"/>
</svg>
