<svg width="24" height="24" viewBox="0 0 24 24" fill="none" xmlns="http://www.w3.org/2000/svg">
<path d="M20.0018 12C20.0018 16.4183 16.4201 20 12.0018 20C10.5074 20 9.10864 19.5902 7.91185 18.8769C9.84415 18.1973 12.0338 17.1809 14.2534 15.8994C16.4723 14.6184 18.4467 13.2308 20.0012 11.8976C20.0016 11.9317 20.0018 11.9658 20.0018 12Z" fill="black"/>
<path fill-rule="evenodd" clip-rule="evenodd" d="M5.71635 16.9496C5.24563 16.3526 4.85813 15.687 4.57135 14.9702L4.57239 14.9692C4.2171 14.0808 4.0165 13.1139 4.0039 12.1016L4.00247 12.1028C4.00204 12.0686 4.00182 12.0343 4.00182 12C4.00182 7.58172 7.58354 4 12.0018 4C15.3707 4 18.2532 6.08236 19.4324 9.03015C19.4325 9.03029 19.4324 9.03002 19.4324 9.03015C19.4781 8.9851 19.5229 8.93987 19.5671 8.89526C20.3119 8.14384 20.7943 7.50823 21.0396 7.03074C21.1148 6.88424 21.1566 6.77648 21.1797 6.70099C21.1027 6.68323 20.9886 6.6655 20.824 6.65741C20.5705 6.64495 20.2598 6.66075 19.8946 6.70934C19.3481 5.89578 18.6791 5.17137 17.914 4.56253C19.0255 4.27515 20.0688 4.11727 20.9468 4.16043C21.7786 4.20131 22.8571 4.44955 23.4127 5.41176C23.9682 6.37398 23.6439 7.43213 23.2634 8.17295C22.8525 8.97299 22.1728 9.81766 21.3428 10.6551C20.9412 11.0603 20.4921 11.4765 20.0012 11.8976C19.9884 10.8856 19.7877 9.91833 19.4324 9.03015C17.9525 10.4894 15.7042 12.1751 13.0034 13.7344C10.3033 15.2933 7.71989 16.3974 5.71635 16.9496ZM21.3195 6.74941L21.317 6.74773C21.3187 6.74879 21.3195 6.74938 21.3195 6.74941ZM21.2078 6.55871L21.2076 6.55568C21.2077 6.55566 21.2078 6.55665 21.2078 6.55871Z" fill="black"/>
<path fill-rule="evenodd" clip-rule="evenodd" d="M6.16623 19.4173C6.71763 19.2722 7.30203 19.0914 7.91185 18.8769C7.06693 18.3733 6.32257 17.7184 5.71635 16.9496C5.65367 16.9668 5.59146 16.9834 5.52994 16.9996C4.50682 17.2689 3.71513 17.3689 3.17899 17.3426C3.01449 17.3345 2.9003 17.3167 2.82339 17.299C2.84647 17.2235 2.8882 17.1157 2.96345 16.9692C3.07958 16.7431 3.24889 16.4816 3.47405 16.1891C3.049 15.3253 2.75129 14.3876 2.60544 13.4004C1.80031 14.2197 1.14146 15.0447 0.739631 15.827C0.359131 16.5678 0.0348413 17.626 0.590378 18.5882C1.14591 19.5504 2.22445 19.7987 3.05626 19.8395C3.95457 19.8837 5.02592 19.7174 6.16623 19.4173ZM2.68355 17.2506L2.68607 17.2522C2.68432 17.2512 2.68352 17.2506 2.68355 17.2506ZM2.79521 17.4413L2.7954 17.4443C2.79536 17.4443 2.79525 17.4433 2.79521 17.4413Z" fill="black"/>
</svg>
