<svg width="24" height="24" viewBox="0 0 24 24" fill="none" xmlns="http://www.w3.org/2000/svg">
<path fill-rule="evenodd" clip-rule="evenodd" d="M12 3.4682C12.3741 2.74461 13.1293 2.25 14 2.25H18C19.2426 2.25 20.25 3.25736 20.25 4.5V6.25H21C22.2426 6.25 23.25 7.25736 23.25 8.5V21.75H0.75V8.5C0.75 7.25736 1.75736 6.25 3 6.25H3.75V4.5C3.75 3.25736 4.75736 2.25 6 2.25H10C10.8707 2.25 11.6259 2.74461 12 3.4682ZM3.25 8.75V19.25H20.75V8.75H3.25ZM9.75 6.25V4.75H6.25V6.25H9.75ZM17.75 4.75V6.25H14.25V4.75H17.75Z" fill="black"/>
</svg>
