<svg width="24" height="24" viewBox="0 0 24 24" fill="none" xmlns="http://www.w3.org/2000/svg">
<path fill-rule="evenodd" clip-rule="evenodd" d="M12 24C18.6274 24 24 18.6274 24 12C24 5.37258 18.6274 0 12 0C5.37258 0 0 5.37258 0 12C0 18.6274 5.37258 24 12 24ZM13.4997 5.30435C13.4997 4.47592 12.8281 3.80435 11.9997 3.80435C11.1714 3.80453 10.5006 4.47603 10.5006 5.30435V10.4997H5.30435C4.47624 10.4999 3.8055 11.1715 3.80532 11.9997C3.80532 12.8279 4.47613 13.4994 5.30435 13.4997H10.5006V18.695C10.5006 19.5233 11.1714 20.1948 11.9997 20.195C12.8281 20.195 13.4997 19.5234 13.4997 18.695V13.4997H18.6959C19.5242 13.4995 20.1959 12.828 20.1959 11.9997C20.1958 11.1715 19.5241 10.4998 18.6959 10.4997H13.4997V5.30435Z" fill="black"/>
</svg>
