<svg width="24" height="24" viewBox="0 0 24 24" fill="none" xmlns="http://www.w3.org/2000/svg">
<path d="M12 4.05435C12.6904 4.05435 13.25 4.61399 13.25 5.30435V10.75H18.6957C19.386 10.75 19.9457 11.3096 19.9457 12C19.9457 12.6903 19.386 13.25 18.6957 13.25H13.25V18.6957C13.25 19.386 12.6904 19.9457 12 19.9457C11.3096 19.9457 10.75 19.386 10.75 18.6957V13.25H5.30435C4.61399 13.25 4.05435 12.6903 4.05435 12C4.05435 11.3096 4.61399 10.75 5.30435 10.75H10.75V5.30435C10.75 4.61399 11.3096 4.05435 12 4.05435Z" fill="black"/>
<path fill-rule="evenodd" clip-rule="evenodd" d="M24 12C24 18.6274 18.6274 24 12 24C5.37258 24 0 18.6274 0 12C0 5.37258 5.37258 0 12 0C18.6274 0 24 5.37258 24 12ZM21.5 12C21.5 17.2467 17.2467 21.5 12 21.5C6.75329 21.5 2.5 17.2467 2.5 12C2.5 6.75329 6.75329 2.5 12 2.5C17.2467 2.5 21.5 6.75329 21.5 12Z" fill="black"/>
</svg>
