<svg width="24" height="24" viewBox="0 0 24 24" fill="none" xmlns="http://www.w3.org/2000/svg">
<path d="M12 4.25098C12.8283 4.25116 13.5 4.92266 13.5 5.75098V10.501H18.25C19.0783 10.5012 19.75 11.1727 19.75 12.001C19.7496 12.8289 19.078 13.4998 18.25 13.5H13.5V18.251L13.4922 18.4033C13.4154 19.1596 12.7765 19.7498 12 19.75C11.2235 19.7498 10.5846 19.1596 10.5078 18.4033L10.501 18.251V13.5H5.75L5.59766 13.4932C4.84127 13.4166 4.25042 12.7774 4.25 12.001C4.25 11.2241 4.841 10.5844 5.59766 10.5078L5.75 10.501H10.501V5.75098C10.501 4.92267 11.1717 4.25117 12 4.25098Z" fill="black"/>
<path fill-rule="evenodd" clip-rule="evenodd" d="M12 0C18.6274 0 24 5.37258 24 12C24 18.6274 18.6274 24 12 24C5.37258 24 0 18.6274 0 12C0 5.37258 5.37258 0 12 0ZM12 3C7.02944 3 3 7.02944 3 12C3 16.9706 7.02944 21 12 21C16.9706 21 21 16.9706 21 12C21 7.02944 16.9706 3 12 3Z" fill="black"/>
</svg>
