<svg width="24" height="24" viewBox="0 0 24 24" fill="none" xmlns="http://www.w3.org/2000/svg">
<path d="M12 4.25098C12.9662 4.25116 13.7498 5.03381 13.75 6V10.251H18C18.9662 10.2512 19.7497 11.0338 19.75 12C19.7498 12.9662 18.9662 13.7498 18 13.75H13.75V18.001L13.7412 18.1797C13.6512 19.0616 12.9057 19.7498 12 19.75C11.0944 19.7498 10.3498 19.0616 10.2598 18.1797L10.251 18.001V13.75H6L5.82129 13.7412C4.93905 13.6515 4.25017 12.9059 4.25 12C4.25024 11.0942 4.9391 10.3495 5.82129 10.2598L6 10.251H10.251V6C10.2512 5.0338 11.0338 4.25116 12 4.25098Z" fill="black"/>
<path fill-rule="evenodd" clip-rule="evenodd" d="M12 0C13.858 0 14.7871 -6.97747e-05 15.5645 0.123047C19.8433 0.800792 23.1992 4.1567 23.877 8.43555C24.0001 9.21287 24 10.142 24 12C24 13.858 24.0001 14.7871 23.877 15.5645L23.8057 15.9629C22.9886 20.0505 19.7096 23.2204 15.5645 23.877L15.2646 23.918C14.5406 24.0005 13.626 24 12 24C10.374 24 9.45938 24.0005 8.73535 23.918L8.43555 23.877C4.29043 23.2204 1.0114 20.0505 0.194336 15.9629L0.123047 15.5645C-6.97747e-05 14.7871 0 13.858 0 12C0 10.142 -6.97747e-05 9.21287 0.123047 8.43555C0.800792 4.1567 4.1567 0.800792 8.43555 0.123047C9.21287 -6.97747e-05 10.142 0 12 0ZM12 3.5C10.0086 3.5 9.42006 3.51094 8.9834 3.58008C6.2021 4.02059 4.02059 6.2021 3.58008 8.9834C3.51094 9.42006 3.5 10.0086 3.5 12C3.5 13.9914 3.51094 14.5799 3.58008 15.0166C4.02059 17.7979 6.2021 19.9794 8.9834 20.4199C9.42006 20.4891 10.0086 20.5 12 20.5C13.9914 20.5 14.5799 20.4891 15.0166 20.4199C17.7979 19.9794 19.9794 17.7979 20.4199 15.0166C20.4891 14.5799 20.5 13.9914 20.5 12C20.5 10.0086 20.4891 9.42006 20.4199 8.9834C19.9794 6.2021 17.7979 4.02059 15.0166 3.58008C14.5799 3.51094 13.9914 3.5 12 3.5Z" fill="black"/>
</svg>
