<svg width="24" height="24" viewBox="0 0 24 24" fill="none" xmlns="http://www.w3.org/2000/svg">
<path d="M12 4.80435C12.2761 4.80435 12.5 5.0282 12.5 5.30435V11.5H18.6956C18.9718 11.5 19.1956 11.7238 19.1956 12C19.1956 12.2761 18.9718 12.5 18.6956 12.5H12.5V18.6957C12.5 18.9718 12.2761 19.1957 12 19.1957C11.7239 19.1957 11.5 18.9718 11.5 18.6957V12.5H5.30435C5.0282 12.5 4.80435 12.2761 4.80435 12C4.80435 11.7238 5.0282 11.5 5.30435 11.5H11.5V5.30435C11.5 5.0282 11.7239 4.80435 12 4.80435Z" fill="black"/>
<path fill-rule="evenodd" clip-rule="evenodd" d="M24 12C24 18.6274 18.6274 24 12 24C5.37258 24 0 18.6274 0 12C0 5.37258 5.37258 0 12 0C18.6274 0 24 5.37258 24 12ZM23 12C23 18.0751 18.0751 23 12 23C5.92487 23 1 18.0751 1 12C1 5.92487 5.92487 1 12 1C18.0751 1 23 5.92487 23 12Z" fill="black"/>
</svg>
