<svg width="24" height="24" viewBox="0 0 24 24" fill="none" xmlns="http://www.w3.org/2000/svg">
<path d="M12 5.05435C12.1381 5.05435 12.25 5.16627 12.25 5.30435V11.75H18.6957C18.8337 11.75 18.9457 11.8619 18.9457 12C18.9457 12.1381 18.8337 12.25 18.6957 12.25H12.25V18.6957C12.25 18.8337 12.1381 18.9456 12 18.9457C11.8619 18.9456 11.75 18.8337 11.75 18.6957V12.25H5.30435C5.16628 12.25 5.05435 12.1381 5.05435 12C5.05435 11.8619 5.16628 11.75 5.30435 11.75H11.75V5.30435C11.75 5.16627 11.8619 5.05435 12 5.05435Z" fill="black"/>
<path fill-rule="evenodd" clip-rule="evenodd" d="M24 12C24 18.6274 18.6274 24 12 24C5.37258 24 0 18.6274 0 12C0 5.37258 5.37258 0 12 0C18.6274 0 24 5.37258 24 12ZM23.5 12C23.5 18.3513 18.3513 23.5 12 23.5C5.64873 23.5 0.5 18.3513 0.5 12C0.5 5.64873 5.64873 0.5 12 0.5C18.3513 0.5 23.5 5.64873 23.5 12Z" fill="black"/>
</svg>
