<svg width="24" height="24" viewBox="0 0 24 24" fill="none" xmlns="http://www.w3.org/2000/svg">
<path fill-rule="evenodd" clip-rule="evenodd" d="M12 24C18.6274 24 24 18.6274 24 12C24 5.37258 18.6274 0 12 0C5.37258 0 0 5.37258 0 12C0 18.6274 5.37258 24 12 24ZM12 4.55435C12.4142 4.55435 12.75 4.89013 12.75 5.30435V11.25H18.6957C19.1099 11.25 19.4457 11.5858 19.4457 12C19.4457 12.4142 19.1099 12.75 18.6957 12.75H12.75V18.6957C12.75 19.1099 12.4142 19.4457 12 19.4456C11.5858 19.4457 11.25 19.1099 11.25 18.6957V12.75H5.30435C4.89013 12.75 4.55435 12.4142 4.55435 12C4.55435 11.5858 4.89013 11.25 5.30435 11.25H11.25V5.30435C11.25 4.89013 11.5858 4.55435 12 4.55435Z" fill="black"/>
</svg>
