<svg width="24" height="24" viewBox="0 0 24 24" fill="none" xmlns="http://www.w3.org/2000/svg">
<path d="M12 4.55435C12.4142 4.55435 12.75 4.89013 12.75 5.30435V11.25H18.6957C19.1099 11.25 19.4457 11.5858 19.4457 12C19.4457 12.4142 19.1099 12.75 18.6957 12.75H12.75V18.6957C12.75 19.1099 12.4142 19.4457 12 19.4456C11.5858 19.4457 11.25 19.1099 11.25 18.6957V12.75H5.30435C4.89013 12.75 4.55435 12.4142 4.55435 12C4.55435 11.5858 4.89013 11.25 5.30435 11.25H11.25V5.30435C11.25 4.89013 11.5858 4.55435 12 4.55435Z" fill="black"/>
<path fill-rule="evenodd" clip-rule="evenodd" d="M0 12C0 10.142 0 9.21298 0.123117 8.43565C0.800832 4.15673 4.15673 0.800832 8.43565 0.123117C9.21298 0 10.142 0 12 0C13.858 0 14.787 0 15.5643 0.123117C19.8433 0.800832 23.1992 4.15673 23.8769 8.43565C24 9.21298 24 10.142 24 12C24 13.858 24 14.787 23.8769 15.5643C23.1992 19.8433 19.8433 23.1992 15.5643 23.8769C14.787 24 13.858 24 12 24C10.142 24 9.21298 24 8.43565 23.8769C4.15673 23.1992 0.800832 19.8433 0.123117 15.5643C0 14.787 0 13.858 0 12ZM12 22.5C10.0847 22.5 9.30164 22.4953 8.67031 22.3954C5.03322 21.8193 2.18071 18.9668 1.60465 15.3297C1.50466 14.6984 1.5 13.9153 1.5 12C1.5 10.0847 1.50466 9.30164 1.60465 8.67031C2.18071 5.03322 5.03322 2.18071 8.67031 1.60465C9.30164 1.50466 10.0847 1.5 12 1.5C13.9153 1.5 14.6984 1.50466 15.3297 1.60465C18.9668 2.18071 21.8193 5.03322 22.3954 8.67031C22.4953 9.30164 22.5 10.0847 22.5 12C22.5 13.9153 22.4953 14.6984 22.3954 15.3297C21.8193 18.9668 18.9668 21.8193 15.3297 22.3954C14.6984 22.4953 13.9153 22.5 12 22.5Z" fill="black"/>
</svg>
