<svg width="24" height="24" viewBox="0 0 24 24" fill="none" xmlns="http://www.w3.org/2000/svg">
<path fill-rule="evenodd" clip-rule="evenodd" d="M0.123117 8.43565C0 9.21298 0 10.142 0 12C0 13.858 0 14.787 0.123117 15.5643C0.800832 19.8433 4.15673 23.1992 8.43565 23.8769C9.21298 24 10.142 24 12 24C13.858 24 14.787 24 15.5643 23.8769C19.8433 23.1992 23.1992 19.8433 23.8769 15.5643C24 14.787 24 13.858 24 12C24 10.142 24 9.21298 23.8769 8.43565C23.1992 4.15673 19.8433 0.800832 15.5643 0.123117C14.787 0 13.858 0 12 0C10.142 0 9.21298 0 8.43565 0.123117C4.15673 0.800832 0.800832 4.15673 0.123117 8.43565ZM12 4.05435C12.6904 4.05435 13.25 4.61399 13.25 5.30435V10.75H18.6957C19.386 10.75 19.9457 11.3096 19.9457 12C19.9457 12.6903 19.386 13.25 18.6957 13.25H13.25V18.6957C13.25 19.386 12.6904 19.9457 12 19.9457C11.3096 19.9457 10.75 19.386 10.75 18.6957V13.25H5.30435C4.61399 13.25 4.05435 12.6903 4.05435 12C4.05435 11.3096 4.61399 10.75 5.30435 10.75H10.75V5.30435C10.75 4.61399 11.3096 4.05435 12 4.05435Z" fill="black"/>
</svg>
