<svg width="24" height="24" viewBox="0 0 24 24" fill="none" xmlns="http://www.w3.org/2000/svg">
<path fill-rule="evenodd" clip-rule="evenodd" d="M12 24C18.6274 24 24 18.6274 24 12C24 5.37258 18.6274 0 12 0C5.37258 0 0 5.37258 0 12C0 18.6274 5.37258 24 12 24ZM12 4.05435C12.6904 4.05435 13.25 4.61399 13.25 5.30435V10.75H18.6957C19.386 10.75 19.9457 11.3096 19.9457 12C19.9457 12.6903 19.386 13.25 18.6957 13.25H13.25V18.6957C13.25 19.386 12.6904 19.9457 12 19.9457C11.3096 19.9457 10.75 19.386 10.75 18.6957V13.25H5.30435C4.61399 13.25 4.05435 12.6903 4.05435 12C4.05435 11.3096 4.61399 10.75 5.30435 10.75H10.75V5.30435C10.75 4.61399 11.3096 4.05435 12 4.05435Z" fill="black"/>
</svg>
