<svg width="24" height="24" viewBox="0 0 24 24" fill="none" xmlns="http://www.w3.org/2000/svg">
<path d="M12 4.05435C12.6904 4.05435 13.25 4.61399 13.25 5.30435V10.75H18.6957C19.386 10.75 19.9457 11.3096 19.9457 12C19.9457 12.6903 19.386 13.25 18.6957 13.25H13.25V18.6957C13.25 19.386 12.6904 19.9457 12 19.9457C11.3096 19.9457 10.75 19.386 10.75 18.6957V13.25H5.30435C4.61399 13.25 4.05435 12.6903 4.05435 12C4.05435 11.3096 4.61399 10.75 5.30435 10.75H10.75V5.30435C10.75 4.61399 11.3096 4.05435 12 4.05435Z" fill="black"/>
<path fill-rule="evenodd" clip-rule="evenodd" d="M0 12C0 10.142 0 9.21298 0.123117 8.43565C0.800832 4.15673 4.15673 0.800832 8.43565 0.123117C9.21298 0 10.142 0 12 0C13.858 0 14.787 0 15.5643 0.123117C19.8433 0.800832 23.1992 4.15673 23.8769 8.43565C24 9.21298 24 10.142 24 12C24 13.858 24 14.787 23.8769 15.5643C23.1992 19.8433 19.8433 23.1992 15.5643 23.8769C14.787 24 13.858 24 12 24C10.142 24 9.21298 24 8.43565 23.8769C4.15673 23.1992 0.800832 19.8433 0.123117 15.5643C0 14.787 0 13.858 0 12ZM12 21.5C10.0465 21.5 9.36075 21.4922 8.82674 21.4077C5.61755 20.8994 3.10062 18.3825 2.59234 15.1733C2.50776 14.6392 2.5 13.9535 2.5 12C2.5 10.0465 2.50776 9.36075 2.59234 8.82674C3.10062 5.61755 5.61755 3.10062 8.82674 2.59234C9.36075 2.50776 10.0465 2.5 12 2.5C13.9535 2.5 14.6392 2.50776 15.1733 2.59234C18.3825 3.10062 20.8994 5.61755 21.4077 8.82674C21.4922 9.36075 21.5 10.0465 21.5 12C21.5 13.9535 21.4922 14.6392 21.4077 15.1733C20.8994 18.3825 18.3825 20.8994 15.1733 21.4077C14.6392 21.4922 13.9535 21.5 12 21.5Z" fill="black"/>
</svg>
