<svg width="24" height="24" viewBox="0 0 24 24" fill="none" xmlns="http://www.w3.org/2000/svg">
<path fill-rule="evenodd" clip-rule="evenodd" d="M12 0C13.858 0 14.7871 -6.97747e-05 15.5645 0.123047C19.8433 0.800792 23.1992 4.1567 23.877 8.43555C24.0001 9.21287 24 10.142 24 12C24 13.858 24.0001 14.7871 23.877 15.5645C23.1992 19.8433 19.8433 23.1992 15.5645 23.877C14.7871 24.0001 13.858 24 12 24C10.142 24 9.21289 24.0001 8.43556 23.877C4.15671 23.1992 0.800807 19.8433 0.123062 15.5645C-5.45159e-05 14.7871 1.52589e-05 13.858 1.52589e-05 12C1.52589e-05 10.142 -5.45159e-05 9.21287 0.123062 8.43555C0.800807 4.1567 4.15671 0.800792 8.43556 0.123047C9.21289 -6.97747e-05 10.142 0 12 0ZM12 3.80469C11.1717 3.80487 10.501 4.47637 10.501 5.30469V10.5H5.3047C4.4766 10.5003 3.80585 11.1719 3.80568 12C3.80586 12.8281 4.47661 13.4997 5.3047 13.5H10.501V18.6953C10.5012 19.5235 11.1719 20.1951 12 20.1953C12.8282 20.1951 13.4998 19.5235 13.5 18.6953V13.5H18.6963C19.5243 13.4997 20.1961 12.8281 20.1963 12C20.1961 11.1719 19.5243 10.5003 18.6963 10.5H13.5V5.30469C13.5 4.47637 12.8283 3.80487 12 3.80469Z" fill="black"/>
</svg>
