<svg width="24" height="24" viewBox="0 0 24 24" fill="none" xmlns="http://www.w3.org/2000/svg">
<path fill-rule="evenodd" clip-rule="evenodd" d="M12 0C13.858 0 14.7871 -6.97747e-05 15.5645 0.123047C19.8433 0.800792 23.1992 4.1567 23.877 8.43555C24.0001 9.21287 24 10.142 24 12C24 13.858 24.0001 14.7871 23.877 15.5645C23.1992 19.8433 19.8433 23.1992 15.5645 23.877C14.7871 24.0001 13.858 24 12 24C10.142 24 9.21289 24.0001 8.43556 23.877C4.15671 23.1992 0.800807 19.8433 0.123062 15.5645C-5.45159e-05 14.7871 1.52589e-05 13.858 1.52589e-05 12C1.52589e-05 10.142 -5.45159e-05 9.21287 0.123062 8.43555C0.800807 4.1567 4.15671 0.800792 8.43556 0.123047C9.21289 -6.97747e-05 10.142 0 12 0ZM12 3.55469C11.0337 3.55487 10.251 4.3383 10.251 5.30469V10.251H5.3047C4.33853 10.2512 3.55585 11.0338 3.55568 12C3.55586 12.9662 4.33853 13.7497 5.3047 13.75H10.251V18.6953C10.2512 19.6615 11.0338 20.4451 12 20.4453C12.9662 20.4451 13.7498 19.6615 13.75 18.6953V13.75H18.6963C19.6624 13.7497 20.4461 12.9661 20.4463 12C20.4461 11.0339 19.6624 10.2513 18.6963 10.251H13.75V5.30469C13.75 4.3383 12.9664 3.55487 12 3.55469Z" fill="black"/>
</svg>
