<svg width="24" height="24" viewBox="0 0 24 24" fill="none" xmlns="http://www.w3.org/2000/svg">
<path d="M12 4.30435C12.5523 4.30435 13 4.75206 13 5.30435V11H18.6956C19.2479 11 19.6956 11.4477 19.6956 12C19.6956 12.5523 19.2479 13 18.6956 13H13V18.6957C13 19.2479 12.5523 19.6957 12 19.6956C11.4477 19.6957 11 19.2479 11 18.6957V13H5.30435C4.75206 13 4.30435 12.5523 4.30435 12C4.30435 11.4477 4.75206 11 5.30435 11H11V5.30435C11 4.75206 11.4477 4.30435 12 4.30435Z" fill="black"/>
<path fill-rule="evenodd" clip-rule="evenodd" d="M24 12C24 18.6274 18.6274 24 12 24C5.37258 24 0 18.6274 0 12C0 5.37258 5.37258 0 12 0C18.6274 0 24 5.37258 24 12ZM22 12C22 17.5228 17.5228 22 12 22C6.47715 22 2 17.5228 2 12C2 6.47715 6.47715 2 12 2C17.5228 2 22 6.47715 22 12Z" fill="black"/>
</svg>
