<svg width="24" height="24" viewBox="0 0 24 24" fill="none" xmlns="http://www.w3.org/2000/svg">
<path fill-rule="evenodd" clip-rule="evenodd" d="M17.0391 1.43844C18.2321 1.08087 19.5569 1.56999 20.207 2.69527L22.832 7.24215C23.1081 7.72037 22.9439 8.33216 22.4658 8.60836C21.9876 8.88401 21.3766 8.7202 21.1006 8.24215L18.4756 3.69527C18.2685 3.33712 17.8096 3.2144 17.4512 3.42086C17.1398 3.60079 17.0064 3.97069 17.1123 4.29976L23.0166 14.5263C23.8447 15.961 23.3535 17.7965 21.9189 18.625L15.4082 22.3837C13.9735 23.2118 12.138 22.7196 11.3096 21.2851L6.52051 12.9902L3.99219 12.3515C2.46945 11.9664 2.18561 9.92525 3.5459 9.13961L16.667 1.56441C16.7849 1.49632 16.9119 1.4549 17.0391 1.43844ZM5.57715 10.2763L18.2529 10.2754L17.6748 9.27437C17.6362 9.22894 17.6002 9.17941 17.5693 9.12594L15.4443 5.44527C15.3925 5.35537 15.3463 5.26377 15.3057 5.17086L15.084 4.78707L5.57715 10.2763Z" fill="black"/>
<path d="M2.89258 15.0117C2.95146 15.0316 2.99504 15.0786 3.08203 15.1709C3.2346 15.3327 3.43911 15.5575 3.65918 15.8222C3.93419 16.153 4.23456 16.547 4.49121 16.9599C4.85042 17.538 5.12391 18.1542 5.12402 18.6884C5.124 19.2613 4.92644 19.7873 4.59668 20.1972C4.17275 20.7243 3.53064 21.0604 2.8125 21.0605L2.57617 21.0478C2.50011 21.0399 2.42526 21.027 2.35156 21.0117C2.33315 21.0079 2.31512 21.0023 2.29688 20.998C2.24249 20.9853 2.1886 20.9716 2.13574 20.955C2.10376 20.945 2.07239 20.9332 2.04102 20.9218C2.0067 20.9094 1.97202 20.8978 1.93848 20.8837C1.90366 20.8692 1.86988 20.8522 1.83594 20.8359C1.80113 20.8192 1.76626 20.8025 1.73242 20.7841C1.69985 20.7664 1.66835 20.7467 1.63672 20.7275C1.61088 20.7118 1.58475 20.6963 1.55957 20.6796C1.5224 20.655 1.48586 20.6292 1.4502 20.6025C1.42649 20.5847 1.40289 20.5665 1.37988 20.5478C1.34928 20.523 1.31936 20.497 1.29004 20.4707C1.26492 20.4481 1.23996 20.425 1.21582 20.4013C1.18992 20.3759 1.16438 20.3498 1.13965 20.3232C1.11335 20.2949 1.08742 20.2659 1.0625 20.2363C1.03976 20.2093 1.01765 20.1814 0.996094 20.1533C0.9763 20.1275 0.957236 20.1008 0.938477 20.0742C0.914385 20.04 0.890486 20.0052 0.868164 19.9697C0.851556 19.9432 0.835912 19.9158 0.820312 19.8886C0.799871 19.853 0.779389 19.817 0.760742 19.7802C0.745213 19.7496 0.731045 19.7179 0.716797 19.6865C0.701458 19.6527 0.685679 19.6186 0.671875 19.5839C0.657634 19.5482 0.645378 19.5112 0.632812 19.4746C0.620526 19.4387 0.607309 19.4028 0.59668 19.3662C0.585613 19.328 0.576608 19.2889 0.567383 19.25C0.559801 19.218 0.55122 19.1858 0.544922 19.1533C0.535848 19.1064 0.529783 19.0585 0.523438 19.0107C0.509481 18.9054 0.500007 18.7977 0.5 18.6884C0.500013 18.6271 0.503793 18.5643 0.510742 18.5009C0.51181 18.4913 0.513433 18.4813 0.514648 18.4716C0.517902 18.4458 0.523031 18.4196 0.527344 18.3935C0.53552 18.344 0.544835 18.2935 0.556641 18.2431C0.564454 18.2098 0.573707 18.1762 0.583008 18.1425C0.59521 18.0984 0.607451 18.0533 0.62207 18.0087C0.634091 17.9721 0.64759 17.9352 0.661133 17.8984C0.676726 17.856 0.69346 17.8131 0.710938 17.7705C0.724192 17.7381 0.737686 17.7052 0.751953 17.6728C0.774572 17.6214 0.799267 17.57 0.824219 17.5185C0.837946 17.4902 0.850855 17.4609 0.865234 17.4326C0.894706 17.3746 0.926085 17.3165 0.958008 17.2587C0.969189 17.2385 0.979753 17.2174 0.991211 17.1972C1.08139 17.0383 1.18047 16.8809 1.2832 16.7275C1.29712 16.7067 1.31113 16.6856 1.3252 16.665C1.36149 16.6118 1.39847 16.5588 1.43555 16.5068C1.5094 16.4031 1.58508 16.302 1.66016 16.2041C1.75087 16.0858 1.84225 15.9725 1.93066 15.8652C1.94588 15.8467 1.96051 15.8276 1.97559 15.8095C1.98593 15.7971 1.99657 15.7847 2.00684 15.7724L2.2793 15.458L2.54199 15.1709C2.62919 15.0784 2.67342 15.0316 2.73242 15.0117C2.78134 14.9953 2.84372 14.9952 2.89258 15.0117Z" fill="black"/>
</svg>
