<svg width="24" height="24" viewBox="0 0 24 24" fill="none" xmlns="http://www.w3.org/2000/svg">
<path fill-rule="evenodd" clip-rule="evenodd" d="M17.7998 1.48208C18.2742 1.45728 18.7452 1.58278 19.1436 1.84146C19.4103 2.01475 19.6044 2.24359 19.7734 2.48794C19.9376 2.72528 20.1127 3.03062 20.3164 3.38345L22.6162 7.36685C22.8232 7.72535 22.7 8.18397 22.3418 8.39126C21.9831 8.59835 21.5245 8.47556 21.3174 8.11685L19.0176 4.13345C18.8015 3.75926 18.6613 3.51674 18.54 3.34146C18.424 3.17373 18.3601 3.12289 18.3252 3.10025C18.1927 3.0144 18.0366 2.97203 17.8789 2.98013C17.8374 2.98231 17.7566 2.99547 17.5723 3.08267C17.3797 3.17386 17.1368 3.31394 16.7627 3.52994L16.4756 3.69595L22.8008 14.651C23.5598 15.9662 23.1089 17.6484 21.7939 18.4079L15.2832 22.1667C13.968 22.9258 12.2868 22.4748 11.5273 21.1598L6.68457 12.7731L4.05469 12.11C2.74902 11.7802 2.50467 10.0296 3.6709 9.35611L16.0127 2.23111C16.3656 2.02737 16.6698 1.8497 16.9307 1.72623C17.1993 1.59911 17.482 1.49875 17.7998 1.48208ZM5.07715 10.276H18.542L15.1758 4.44595L5.07715 10.276Z" fill="black"/>
<path d="M2.89258 15.0124C2.90707 15.0173 2.92104 15.0235 2.93457 15.0319C2.9758 15.0577 3.01651 15.102 3.08203 15.1715C3.15825 15.2524 3.24824 15.3484 3.3457 15.4577C4.0284 16.2233 5.12358 17.6194 5.12402 18.6881C5.12402 18.9334 5.08792 19.1707 5.02051 19.3932C4.75042 20.2844 3.98146 20.9502 3.04883 21.0475L2.8125 21.0602L2.57617 21.0475C2.50009 21.0396 2.42528 21.0267 2.35156 21.0114C2.32157 21.0052 2.29226 20.9963 2.2627 20.9889C2.22314 20.979 2.18326 20.9706 2.14453 20.9586C2.10845 20.9475 2.0734 20.9334 2.03809 20.9206C2.00214 20.9074 1.96577 20.8954 1.93066 20.8805C1.89914 20.8672 1.8687 20.8513 1.83789 20.8366C1.80491 20.8208 1.77137 20.806 1.73926 20.7887C1.70495 20.7702 1.67194 20.7493 1.63867 20.7292C1.60957 20.7115 1.58002 20.6943 1.55176 20.6754C1.51904 20.6536 1.4876 20.6296 1.45605 20.6061C1.42984 20.5866 1.4033 20.5672 1.37793 20.5465C1.3513 20.5249 1.32547 20.502 1.2998 20.4792C1.2687 20.4515 1.23762 20.4235 1.20801 20.3942C1.18565 20.3721 1.16405 20.3489 1.14258 20.3258C1.11435 20.2956 1.08622 20.2648 1.05957 20.2331C1.04001 20.2097 1.02063 20.1859 1.00195 20.1618C0.978071 20.1309 0.955009 20.0991 0.932617 20.067C0.910522 20.0354 0.888753 20.0031 0.868164 19.9704C0.851405 19.9437 0.836047 19.9157 0.820312 19.8883C0.799513 19.8521 0.778705 19.8154 0.759766 19.778C0.746039 19.7508 0.733428 19.7227 0.720703 19.695C0.703299 19.657 0.685383 19.6188 0.669922 19.5797C0.656995 19.5471 0.645322 19.5135 0.633789 19.4801C0.620789 19.4425 0.60785 19.4044 0.59668 19.3659C0.58599 19.329 0.577331 19.2911 0.568359 19.2536C0.56049 19.2206 0.551424 19.1874 0.544922 19.154C0.535837 19.1071 0.529796 19.0592 0.523438 19.0114C0.509424 18.9058 0.500005 18.7976 0.5 18.6881C0.500026 18.6268 0.503782 18.564 0.510742 18.5006C0.511812 18.491 0.513433 18.481 0.514648 18.4713C0.51796 18.4451 0.523928 18.4187 0.52832 18.3922C0.536417 18.3434 0.545011 18.2935 0.556641 18.2438C0.564284 18.2112 0.572958 18.1781 0.582031 18.1452C0.594565 18.0997 0.607944 18.0534 0.623047 18.0075C0.634956 17.9713 0.647733 17.9346 0.661133 17.8981C0.676236 17.857 0.692111 17.8154 0.708984 17.7741C0.723726 17.738 0.739865 17.7018 0.755859 17.6657C0.775798 17.6206 0.796622 17.5751 0.818359 17.5299C0.83389 17.4977 0.848855 17.4645 0.865234 17.4323C0.986413 17.1938 1.13001 16.9559 1.2832 16.7272C1.29476 16.71 1.3067 16.6926 1.31836 16.6754C1.35974 16.6146 1.40193 16.5541 1.44434 16.4948C1.51487 16.3961 1.58757 16.3001 1.65918 16.2067C1.74807 16.0907 1.83708 15.9791 1.92383 15.8737C1.94202 15.8516 1.95955 15.8289 1.97754 15.8073C2.08323 15.6805 2.18533 15.5631 2.2793 15.4577L2.54199 15.1715C2.60732 15.1022 2.64816 15.0577 2.68945 15.0319C2.70319 15.0233 2.71769 15.0173 2.73242 15.0124C2.78137 14.9959 2.84366 14.9959 2.89258 15.0124Z" fill="black"/>
</svg>
