<svg width="24" height="24" viewBox="0 0 24 24" fill="none" xmlns="http://www.w3.org/2000/svg">
<path fill-rule="evenodd" clip-rule="evenodd" d="M17.8125 1.73135C18.2341 1.70932 18.6528 1.82183 19.0068 2.05167C19.235 2.19989 19.4071 2.39913 19.5674 2.63077C19.7244 2.85778 19.8938 3.15226 20.0996 3.5087L22.3994 7.4921C22.5374 7.73108 22.4556 8.03749 22.2168 8.17569C21.9777 8.31354 21.6712 8.23115 21.5332 7.9921L19.2334 4.0087C19.0194 3.63805 18.8735 3.38475 18.7451 3.19913C18.6204 3.01896 18.5354 2.93829 18.4619 2.89053C18.285 2.77581 18.0758 2.71944 17.8652 2.73038C17.7778 2.73501 17.6637 2.76278 17.4658 2.85635C17.2619 2.95292 17.0082 3.09946 16.6377 3.31338L16.1338 3.6044L22.584 14.7763C23.2739 15.9718 22.8642 17.5009 21.6689 18.1913L15.1582 21.9501C13.9626 22.6403 12.4336 22.2305 11.7432 21.0351L6.84863 12.5575L4.11426 11.8671C3.02683 11.5919 2.82445 10.1343 3.7959 9.57315L16.1377 2.44717C16.494 2.24148 16.7887 2.07111 17.0381 1.95303C17.2925 1.8327 17.5411 1.74567 17.8125 1.73135ZM7.29883 11.6396L7.50293 11.6913L12.6094 20.5351C13.0237 21.2522 13.9409 21.4979 14.6582 21.0839L21.1689 17.3251C21.8858 16.9108 22.1316 15.9935 21.7178 15.2763L19.4082 11.2763H5.85742L7.29883 11.6396ZM4.57715 10.2763L18.8301 10.2753L15.2676 4.1044L4.57715 10.2763Z" fill="black"/>
<path fill-rule="evenodd" clip-rule="evenodd" d="M2.89258 15.0116C2.9514 15.0316 2.99509 15.0786 3.08203 15.1708C3.69199 15.8177 5.12305 17.466 5.12402 18.6874C5.12402 19.9971 4.08937 21.0593 2.8125 21.0595L2.57617 21.0468C1.41011 20.9255 0.5 19.9154 0.5 18.6874C0.500854 17.6186 1.59675 16.2224 2.2793 15.4569L2.54199 15.1708C2.62909 15.0784 2.67344 15.0316 2.73242 15.0116C2.78129 14.9952 2.84374 14.9952 2.89258 15.0116ZM2.81152 16.37C2.58821 16.6335 2.34221 16.9441 2.12207 17.2714C1.70083 17.8978 1.50058 18.3987 1.5 18.6874C1.5 19.4689 2.1115 20.0595 2.8125 20.0595C3.51338 20.0593 4.12402 19.4688 4.12402 18.6874C4.12345 18.3987 3.92319 17.8978 3.50195 17.2714C3.28166 16.9439 3.03495 16.6336 2.81152 16.37Z" fill="black"/>
</svg>
