<svg width="24" height="24" viewBox="0 0 24 24" fill="none" xmlns="http://www.w3.org/2000/svg">
<path fill-rule="evenodd" clip-rule="evenodd" d="M17.8125 1.73123C18.2341 1.7092 18.6528 1.82171 19.0068 2.05154C19.235 2.19976 19.4071 2.399 19.5674 2.63065C19.7244 2.85766 19.8938 3.15214 20.0996 3.50858L22.3994 7.49197C22.5374 7.73096 22.4556 8.03736 22.2168 8.17557C21.9777 8.31342 21.6712 8.23103 21.5332 7.99197L19.2334 4.00858C19.0194 3.63793 18.8735 3.38462 18.7451 3.19901C18.6204 3.01884 18.5354 2.93817 18.4619 2.89041C18.285 2.77568 18.0758 2.71932 17.8652 2.73026C17.7778 2.73488 17.6637 2.76266 17.4658 2.85623C17.2619 2.9528 17.0082 3.09934 16.6377 3.31326L16.1338 3.60428L22.584 14.7762C23.2739 15.9717 22.8642 17.5008 21.6689 18.1912L15.1582 21.95C13.9626 22.6402 12.4336 22.2304 11.7432 21.0349L6.84863 12.5574L4.11426 11.867C3.02683 11.5917 2.82445 10.1342 3.7959 9.57303L16.1377 2.44705C16.494 2.24136 16.7887 2.07099 17.0381 1.95291C17.2925 1.83258 17.5411 1.74555 17.8125 1.73123ZM7.29883 11.6394L7.50293 11.6912L12.6094 20.5349C13.0237 21.2521 13.9409 21.4978 14.6582 21.0838L21.1689 17.325C21.8858 16.9107 22.1316 15.9934 21.7178 15.2762L19.4082 11.2762H5.85742L7.29883 11.6394ZM4.57715 10.2762L18.8301 10.2752L15.2676 4.10428L4.57715 10.2762Z" fill="black"/>
<path fill-rule="evenodd" clip-rule="evenodd" d="M2.89258 15.0115C2.9514 15.0315 2.99509 15.0785 3.08203 15.1707C3.69199 15.8176 5.12305 17.4659 5.12402 18.6873C5.12402 19.9969 4.08937 21.0592 2.8125 21.0594L2.57617 21.0467C1.41011 20.9253 0.5 19.9153 0.5 18.6873C0.500854 17.6185 1.59675 16.2223 2.2793 15.4568L2.54199 15.1707C2.62909 15.0783 2.67344 15.0314 2.73242 15.0115C2.78129 14.9951 2.84374 14.9951 2.89258 15.0115ZM2.81152 16.3699C2.58821 16.6333 2.34221 16.944 2.12207 17.2713C1.70083 17.8977 1.50058 18.3986 1.5 18.6873C1.5 19.4688 2.1115 20.0594 2.8125 20.0594C3.51338 20.0592 4.12402 19.4687 4.12402 18.6873C4.12345 18.3986 3.92319 17.8977 3.50195 17.2713C3.28166 16.9438 3.03495 16.6334 2.81152 16.3699Z" fill="black"/>
</svg>
