<svg width="24" height="24" viewBox="0 0 24 24" fill="none" xmlns="http://www.w3.org/2000/svg">
<path fill-rule="evenodd" clip-rule="evenodd" d="M17.8262 1.98126C18.1947 1.96205 18.5605 2.05974 18.8701 2.26055C19.0597 2.38365 19.2099 2.55435 19.3613 2.77325C19.5112 2.98987 19.675 3.27372 19.8828 3.6336L22.1826 7.617C22.2516 7.7364 22.211 7.88962 22.0918 7.9588C21.9722 8.02771 21.819 7.98652 21.75 7.867L19.4502 3.8836C19.2385 3.51698 19.0866 3.25429 18.9512 3.0584C18.8173 2.86497 18.7099 2.75435 18.5977 2.68145C18.3765 2.53793 18.1158 2.4676 17.8525 2.48126C17.7189 2.48828 17.5709 2.53111 17.3584 2.63165C17.1431 2.73359 16.8795 2.8847 16.5127 3.09649L15.792 3.51251L22.3672 14.9012C22.9881 15.9771 22.6196 17.353 21.5439 17.9744L15.0332 21.7332C13.9572 22.3544 12.5814 21.9859 11.96 20.91L7.01172 12.3406L4.17578 11.6248C3.30589 11.4045 3.14355 10.2377 3.9209 9.78887L16.2627 2.66387C16.6226 2.45608 16.9064 2.29221 17.1445 2.1795C17.3852 2.06561 17.6004 1.99311 17.8262 1.98126ZM3.93555 10.7762C3.97638 10.9429 4.10098 11.0894 4.29785 11.1395L7.2373 11.8826L7.33984 11.908L12.3926 20.66C12.8759 21.4967 13.9463 21.7837 14.7832 21.3006L21.2939 17.5418C22.1306 17.0585 22.4174 15.988 21.9346 15.1512L19.4082 10.7752L3.93555 10.7762ZM4.1709 10.2225C4.14313 10.2385 4.11774 10.2568 4.09473 10.2762L19.1191 10.2752L15.3594 3.76251L4.1709 10.2225Z" fill="black"/>
<path fill-rule="evenodd" clip-rule="evenodd" d="M2.89258 15.0115C2.95139 15.0315 2.99512 15.0785 3.08203 15.1707C3.69198 15.8176 5.12298 17.4659 5.12402 18.6873C5.12402 19.997 4.08937 21.0592 2.8125 21.0594L2.57617 21.0467C1.41011 20.9254 0.5 19.9153 0.5 18.6873C0.500912 17.6185 1.59677 16.2223 2.2793 15.4568L2.54199 15.1707C2.62907 15.0784 2.67345 15.0315 2.73242 15.0115C2.78128 14.9951 2.84375 14.9951 2.89258 15.0115ZM2.81152 15.615C2.51251 15.9389 2.07816 16.4412 1.70703 16.993C1.27951 17.6288 1.00055 18.2379 1 18.6873C1 19.7329 1.8235 20.5594 2.8125 20.5594C3.80137 20.5592 4.62402 19.7328 4.62402 18.6873C4.62347 18.2378 4.34458 17.6289 3.91699 16.993C3.5456 16.4408 3.11056 15.9389 2.81152 15.615Z" fill="black"/>
</svg>
