<svg width="24" height="24" viewBox="0 0 24 24" fill="none" xmlns="http://www.w3.org/2000/svg">
<path fill-rule="evenodd" clip-rule="evenodd" d="M17.7998 1.48158C18.2742 1.45677 18.7452 1.58325 19.1436 1.84193C19.4103 2.01527 19.6044 2.24401 19.7734 2.48841C19.9376 2.72578 20.1127 3.03104 20.3164 3.38392L22.6162 7.36732C22.8231 7.72587 22.7001 8.18455 22.3418 8.39173C21.9832 8.59879 21.5246 8.47582 21.3174 8.11732L19.0176 4.13392C18.8016 3.7599 18.6612 3.5172 18.54 3.34193C18.4243 3.17473 18.3611 3.1225 18.3262 3.09974C18.1937 3.01383 18.0366 2.97152 17.8789 2.97962C17.8374 2.9818 17.7566 2.99498 17.5723 3.08216C17.3796 3.17335 17.1368 3.31342 16.7627 3.52943L16.4756 3.69544L22.8008 14.6515C23.5595 15.9665 23.1086 17.6479 21.7939 18.4074L15.2832 22.1661C13.9682 22.9253 12.2869 22.475 11.5273 21.1603L6.68457 12.7726L4.05469 12.1095C2.74889 11.7797 2.50453 10.029 3.6709 9.3556L16.0127 2.2306C16.3655 2.0269 16.6698 1.85016 16.9307 1.72669C17.1994 1.59955 17.482 1.49825 17.7998 1.48158ZM12.8262 20.4103C13.1715 21.0076 13.9356 21.2122 14.5332 20.8673L21.0439 17.1085C21.6412 16.7634 21.8464 15.9991 21.502 15.4015L19.4092 11.7765L7.84082 11.7755L12.8262 20.4103ZM5.07715 10.2765H18.543L15.1768 4.44544L5.07715 10.2765Z" fill="black"/>
<path fill-rule="evenodd" clip-rule="evenodd" d="M2.89258 15.0119C2.95137 15.0319 2.99512 15.0789 3.08203 15.171C3.69205 15.818 5.12304 17.4663 5.12402 18.6876C5.12392 19.9972 4.0893 21.0595 2.8125 21.0597L2.57617 21.047C1.41017 20.9257 0.500095 19.9155 0.5 18.6876C0.500858 17.6189 1.59674 16.2226 2.2793 15.4572L2.54199 15.171C2.62906 15.0787 2.67347 15.0318 2.73242 15.0119C2.78129 14.9955 2.84374 14.9954 2.89258 15.0119ZM2.53711 17.5509C2.12289 18.1669 2.00079 18.559 2 18.6876C2.0001 19.2049 2.39955 19.5597 2.8125 19.5597C3.22534 19.5595 3.62392 19.2047 3.62402 18.6876C3.62323 18.559 3.50204 18.1669 3.08789 17.5509C2.99982 17.42 2.90621 17.291 2.8125 17.1671C2.71875 17.291 2.62522 17.4199 2.53711 17.5509Z" fill="black"/>
</svg>
