<svg width="24" height="24" viewBox="0 0 24 24" fill="none" xmlns="http://www.w3.org/2000/svg">
<path fill-rule="evenodd" clip-rule="evenodd" d="M16.9795 1.19525C18.2779 0.812193 19.7169 1.34641 20.4238 2.57025L23.0488 7.11713C23.3939 7.71489 23.1894 8.47987 22.5918 8.82514C21.9939 9.17025 21.229 8.96497 20.8838 8.36713L18.2588 3.82025C18.1206 3.5817 17.8151 3.50001 17.5762 3.63764C17.3745 3.7541 17.286 3.98955 17.3457 4.20404L23.2334 14.4013C24.1305 15.9556 23.5979 17.9432 22.0439 18.8408L15.5332 22.5996C13.9789 23.4969 11.9913 22.9643 11.0938 21.4101L6.35742 13.207L3.93164 12.5947C2.19078 12.1549 1.86586 9.82068 3.4209 8.92279L16.542 1.3476C16.6809 1.26738 16.8299 1.21803 16.9795 1.19525ZM6.07715 10.2763H17.9648L17.4678 9.41498C17.4263 9.36393 17.3865 9.30972 17.3525 9.25092L15.2275 5.57025C15.1755 5.48014 15.1303 5.38781 15.0889 5.29486L14.9932 5.12885L6.07715 10.2763Z" fill="black"/>
<path d="M2.89258 15.0117C2.95144 15.0316 2.99504 15.0786 3.08203 15.1708C3.15833 15.2518 3.24811 15.3485 3.3457 15.4579C3.5407 15.6766 3.76985 15.9469 3.99707 16.246C4.26109 16.5936 4.52164 16.9819 4.72656 17.373C4.74209 17.4026 4.75858 17.4322 4.77344 17.4619C4.98415 17.8831 5.12389 18.3069 5.12402 18.6884C5.12399 18.9338 5.08797 19.1709 5.02051 19.3935C4.99804 19.4676 4.97155 19.5405 4.94238 19.6113C4.85475 19.8237 4.73776 20.0208 4.59668 20.1962C4.17276 20.7236 3.53085 21.0594 2.8125 21.0595L2.57617 21.0478C2.44926 21.0346 2.32606 21.0079 2.20605 20.9746C2.1859 20.9689 2.16544 20.9641 2.14551 20.9579C2.10913 20.9467 2.07368 20.9329 2.03809 20.9199C2.00215 20.9068 1.96576 20.8947 1.93066 20.8798C1.89915 20.8665 1.86868 20.8506 1.83789 20.8359C1.80493 20.8201 1.77135 20.8053 1.73926 20.788C1.70497 20.7695 1.67192 20.7486 1.63867 20.7285C1.6092 20.7106 1.57939 20.6929 1.55078 20.6738C1.5208 20.6537 1.49189 20.6317 1.46289 20.6103C1.43437 20.5892 1.40545 20.5682 1.37793 20.5458C1.34809 20.5216 1.31866 20.4964 1.29004 20.4706C1.26563 20.4487 1.24126 20.4262 1.21777 20.4033C1.18972 20.3758 1.16242 20.3472 1.13574 20.3183C1.11062 20.2911 1.08636 20.2627 1.0625 20.2343C1.0422 20.2102 1.0213 20.1861 1.00195 20.1611C0.97722 20.1291 0.9538 20.0957 0.930664 20.0624C0.910958 20.0341 0.890563 20.0057 0.87207 19.9765C0.851349 19.9437 0.831664 19.9098 0.8125 19.8759C0.795672 19.8462 0.779257 19.8157 0.763672 19.7851C0.746241 19.7509 0.729698 19.7157 0.713867 19.6806C0.699528 19.6488 0.684852 19.6165 0.671875 19.5839C0.658255 19.5497 0.64588 19.5144 0.633789 19.4794C0.620474 19.4409 0.607092 19.4017 0.595703 19.3622C0.586113 19.329 0.578515 19.2946 0.570312 19.2607C0.561716 19.2252 0.551922 19.1894 0.544922 19.1533C0.535861 19.1065 0.529783 19.0584 0.523438 19.0107C0.516913 18.9615 0.511342 18.9114 0.507812 18.8613C0.503777 18.8041 0.5 18.7457 0.5 18.6874V18.6855C0.500124 18.6248 0.503847 18.5625 0.510742 18.4999C0.511817 18.4904 0.513439 18.4803 0.514648 18.4706C0.517973 18.4445 0.523934 18.418 0.52832 18.3915C0.534746 18.3527 0.540141 18.3127 0.548828 18.2734L0.5625 18.2128C0.568308 18.1895 0.576506 18.166 0.583008 18.1425C0.595193 18.0984 0.607466 18.0533 0.62207 18.0087C0.634394 17.9712 0.64819 17.9332 0.662109 17.8954C0.676287 17.857 0.691301 17.8179 0.707031 17.7792C0.722466 17.7413 0.739037 17.703 0.755859 17.665C0.778218 17.6144 0.801566 17.5632 0.826172 17.5126C0.834286 17.4959 0.842237 17.4785 0.850586 17.4619L0.882812 17.3974C0.997042 17.1766 1.13003 16.9564 1.27148 16.7441C1.29844 16.7037 1.32699 16.6638 1.35449 16.624C1.38105 16.5855 1.40761 16.5466 1.43457 16.5087C1.50908 16.4041 1.58537 16.3018 1.66113 16.2031C1.73938 16.1011 1.81876 16.0031 1.89551 15.9091C1.92711 15.8704 1.95727 15.831 1.98828 15.7939C2.0901 15.6721 2.18855 15.5587 2.2793 15.457L2.54199 15.1708C2.60707 15.1018 2.64829 15.058 2.68945 15.0322C2.70326 15.0235 2.71762 15.0167 2.73242 15.0117C2.78132 14.9953 2.84372 14.9952 2.89258 15.0117Z" fill="black"/>
</svg>
