<svg width="24" height="24" viewBox="0 0 24 24" fill="none" xmlns="http://www.w3.org/2000/svg">
<path fill-rule="evenodd" clip-rule="evenodd" d="M16.9795 1.19525C18.2779 0.812193 19.7169 1.34641 20.4238 2.57025L23.0488 7.11713C23.3939 7.71489 23.1894 8.47987 22.5918 8.82514C21.9939 9.17025 21.229 8.96497 20.8838 8.36713L18.2588 3.82025C18.1206 3.5817 17.8151 3.50001 17.5762 3.63764C17.3745 3.7541 17.286 3.98955 17.3457 4.20404L23.2334 14.4013C24.1305 15.9556 23.5979 17.9432 22.0439 18.8408L15.5332 22.5996C13.9789 23.4969 11.9913 22.9643 11.0938 21.4101L6.35742 13.207L3.93164 12.5947C2.19078 12.1549 1.86586 9.82068 3.4209 8.92279L16.542 1.3476C16.6809 1.26738 16.8299 1.21803 16.9795 1.19525ZM13.2588 20.1601C13.466 20.5185 13.9246 20.6415 14.2832 20.4345L20.7939 16.6757C21.1522 16.4686 21.2751 16.0098 21.0684 15.6513L19.4082 12.7763H8.99512L13.2588 20.1601ZM6.07715 10.2763H17.9648L17.4678 9.41498C17.4263 9.36393 17.3865 9.30972 17.3525 9.25092L15.2275 5.57025C15.1755 5.48014 15.1303 5.38781 15.0889 5.29486L14.9932 5.12885L6.07715 10.2763Z" fill="black"/>
<path d="M2.89258 15.0117C2.95147 15.0316 2.99503 15.0786 3.08203 15.1708C3.2346 15.3327 3.4391 15.5575 3.65918 15.8222C3.93419 16.153 4.23456 16.547 4.49121 16.9599C4.85042 17.538 5.12391 18.1542 5.12402 18.6884C5.12401 19.2613 4.92645 19.7873 4.59668 20.1972C4.17275 20.7243 3.53065 21.0604 2.8125 21.0605L2.57617 21.0478C2.50011 21.0399 2.42526 21.0269 2.35156 21.0117C2.33315 21.0078 2.31513 21.0023 2.29688 20.998C2.24248 20.9853 2.1886 20.9716 2.13574 20.955C2.10375 20.945 2.0724 20.9332 2.04102 20.9218C2.0067 20.9094 1.97203 20.8978 1.93848 20.8837C1.90366 20.8691 1.86989 20.8521 1.83594 20.8359C1.80112 20.8192 1.76627 20.8025 1.73242 20.7841C1.69984 20.7664 1.66835 20.7467 1.63672 20.7275C1.61088 20.7118 1.58475 20.6963 1.55957 20.6796C1.5224 20.655 1.48586 20.6292 1.4502 20.6025C1.42648 20.5847 1.4029 20.5665 1.37988 20.5478C1.34927 20.5229 1.31937 20.497 1.29004 20.4706C1.26491 20.4481 1.23996 20.425 1.21582 20.4013C1.18991 20.3759 1.16439 20.3498 1.13965 20.3232C1.11334 20.2949 1.08743 20.2659 1.0625 20.2363C1.03975 20.2092 1.01765 20.1813 0.996094 20.1533C0.976294 20.1275 0.957241 20.1008 0.938477 20.0742C0.914379 20.0399 0.89049 20.0052 0.868164 19.9697C0.85155 19.9432 0.835917 19.9158 0.820312 19.8886C0.799865 19.853 0.779393 19.817 0.760742 19.7802C0.745208 19.7496 0.73105 19.7179 0.716797 19.6865C0.701454 19.6526 0.685682 19.6186 0.671875 19.5839C0.65763 19.5481 0.645382 19.5112 0.632812 19.4746C0.620522 19.4387 0.60731 19.4028 0.59668 19.3662C0.585609 19.328 0.576611 19.2889 0.567383 19.2499C0.559798 19.218 0.551221 19.1857 0.544922 19.1533C0.535846 19.1064 0.529784 19.0585 0.523438 19.0107C0.509479 18.9053 0.500004 18.7977 0.5 18.6884C0.500013 18.6271 0.50379 18.5643 0.510742 18.5009C0.511811 18.4913 0.513433 18.4813 0.514648 18.4716C0.517904 18.4458 0.52303 18.4196 0.527344 18.3935C0.535522 18.344 0.544831 18.2935 0.556641 18.2431C0.564456 18.2098 0.573704 18.1762 0.583008 18.1425C0.595213 18.0984 0.607446 18.0533 0.62207 18.0087C0.634094 17.9721 0.647586 17.9352 0.661133 17.8984C0.67673 17.8559 0.693455 17.8131 0.710938 17.7704C0.724196 17.7381 0.737681 17.7052 0.751953 17.6728C0.774577 17.6214 0.799263 17.57 0.824219 17.5185C0.83795 17.4902 0.850849 17.4609 0.865234 17.4326C0.894711 17.3745 0.92608 17.3165 0.958008 17.2587C0.969195 17.2385 0.979747 17.2174 0.991211 17.1972C1.0814 17.0382 1.18046 16.8809 1.2832 16.7275C1.29712 16.7067 1.31112 16.6856 1.3252 16.665C1.36149 16.6118 1.39846 16.5588 1.43555 16.5068C1.50941 16.4031 1.58507 16.3019 1.66016 16.204C1.75088 16.0858 1.84224 15.9724 1.93066 15.8652C1.94588 15.8467 1.96051 15.8276 1.97559 15.8095C1.98594 15.7971 1.99656 15.7846 2.00684 15.7724L2.2793 15.4579L2.54199 15.1708C2.6292 15.0784 2.67341 15.0316 2.73242 15.0117C2.78134 14.9953 2.84372 14.9952 2.89258 15.0117Z" fill="black"/>
</svg>
