<svg width="24" height="24" viewBox="0 0 24 24" fill="none" xmlns="http://www.w3.org/2000/svg">
<path d="M2.25 13.0005C2.25 8.66243 5.0831 4.98607 9 3.72074V3.1965C4.80278 4.47925 1.75 8.38336 1.75 13.0005C1.75 18.6614 6.33908 23.2505 12 23.2505C17.6609 23.2505 22.25 18.6614 22.25 13.0005C22.25 8.38336 19.1972 4.47925 15 3.1965V3.72074C18.9169 4.98607 21.75 8.66243 21.75 13.0005C21.75 18.3853 17.3848 22.7505 12 22.7505C6.61522 22.7505 2.25 18.3853 2.25 13.0005Z" fill="black"/>
<path d="M12.25 1.00049C12.25 0.862417 12.1381 0.750488 12 0.750488C11.8619 0.750488 11.75 0.862417 11.75 1.00049L11.75 9.00049C11.75 9.13856 11.8619 9.25049 12 9.25049C12.1381 9.25049 12.25 9.13856 12.25 9.00049L12.25 1.00049Z" fill="black"/>
</svg>
