<svg width="24" height="24" viewBox="0 0 24 24" fill="none" xmlns="http://www.w3.org/2000/svg">
<path d="M3 13.0002C3 9.46652 5.03656 6.40847 8 4.93576V2.75012C3.90264 4.35026 1 8.33628 1 13.0002C1 19.0754 5.92487 24.0002 12 24.0002C18.0751 24.0002 23 19.0754 23 13.0002C23 8.33628 20.0974 4.35027 16 2.75013V4.93576C18.9634 6.40847 21 9.46652 21 13.0002C21 17.9708 16.9706 22.0002 12 22.0002C7.02944 22.0002 3 17.9708 3 13.0002Z" fill="black"/>
<path d="M13 1.00024C13 0.44796 12.5523 0.000244116 12 0.000244141C11.4477 0.000244165 11 0.44796 11 1.00024L11 9.00024C11 9.55253 11.4477 10.0002 12 10.0002C12.5523 10.0002 13 9.55253 13 9.00024L13 1.00024Z" fill="black"/>
</svg>
