<svg width="24" height="24" viewBox="0 0 24 24" fill="none" xmlns="http://www.w3.org/2000/svg">
<path d="M1 12.75C1 8.27858 3.66916 4.43304 7.5 2.71289V6.13574C5.38751 7.57576 4 10.0005 4 12.75C4 17.1683 7.58172 20.75 12 20.75C16.4183 20.75 20 17.1683 20 12.75C20 10.0005 18.6125 7.57576 16.5 6.13574V2.71289C20.3308 4.43304 23 8.27858 23 12.75C23 18.8251 18.0751 23.75 12 23.75C5.92487 23.75 1 18.8251 1 12.75Z" fill="black"/>
<path d="M10.5 1.75C10.5 0.921573 11.1716 0.250001 12 0.25C12.8284 0.25 13.5 0.921573 13.5 1.75L13.5 9.75C13.5 10.5784 12.8284 11.25 12 11.25C11.1716 11.25 10.5 10.5784 10.5 9.75L10.5 1.75Z" fill="black"/>
</svg>
