<svg width="24" height="24" viewBox="0 0 24 24" fill="none" xmlns="http://www.w3.org/2000/svg">
<path d="M2.75 13.0005C2.75 9.32461 4.89416 6.14952 8 4.6577V3.01931C4.04381 4.60623 1.25 8.47709 1.25 13.0005C1.25 18.9375 6.06294 23.7505 12 23.7505C17.9371 23.7505 22.75 18.9376 22.75 13.0005C22.75 8.47709 19.9562 4.60623 16 3.01931V4.65771C19.1058 6.14953 21.25 9.32461 21.25 13.0005C21.25 18.1091 17.1086 22.2505 12 22.2505C6.89137 22.2505 2.75 18.1091 2.75 13.0005Z" fill="black"/>
<path d="M12.75 1.00049C12.75 0.586275 12.4142 0.250488 12 0.250488C11.5858 0.250488 11.25 0.586275 11.25 1.00049L11.25 9.00049C11.25 9.4147 11.5858 9.75049 12 9.75049C12.4142 9.75049 12.75 9.4147 12.75 9.00049L12.75 1.00049Z" fill="black"/>
</svg>
