<svg width="24" height="24" viewBox="0 0 24 24" fill="none" xmlns="http://www.w3.org/2000/svg">
<path d="M2.5 13.0002C2.5 8.80187 5.22342 5.23958 9 3.98365V2.93506C4.66277 4.22589 1.5 8.24371 1.5 13.0002C1.5 18.7992 6.20101 23.5002 12 23.5002C17.799 23.5002 22.5 18.7992 22.5 13.0002C22.5 8.24371 19.3372 4.22589 15 2.93506V3.98365C18.7766 5.23958 21.5 8.80187 21.5 13.0002C21.5 18.247 17.2467 22.5002 12 22.5002C6.75329 22.5002 2.5 18.2469 2.5 13.0002Z" fill="black"/>
<path d="M12.5 1.00024C12.5 0.724102 12.2761 0.500244 12 0.500244C11.7239 0.500244 11.5 0.724102 11.5 1.00024L11.5 9.00024C11.5 9.27639 11.7239 9.50024 12 9.50024C12.2761 9.50024 12.5 9.27639 12.5 9.00024L12.5 1.00024Z" fill="black"/>
</svg>
