<svg width="24" height="25" viewBox="0 0 24 25" fill="none" xmlns="http://www.w3.org/2000/svg">
<path d="M3.25 13.25C3.25 10.0631 4.95371 7.27419 7.5 5.74429V2.9361C3.52671 4.6721 0.75 8.63678 0.75 13.25C0.75 19.4632 5.7868 24.5 12 24.5C18.2132 24.5 23.25 19.4632 23.25 13.25C23.25 8.63678 20.4733 4.6721 16.5 2.9361V5.7443C19.0463 7.27419 20.75 10.0631 20.75 13.25C20.75 18.0825 16.8325 22 12 22C7.16751 22 3.25 18.0825 3.25 13.25Z" fill="black"/>
<path d="M13.25 1.25C13.25 0.559645 12.6904 -3.01764e-08 12 0C11.3096 3.01764e-08 10.75 0.559645 10.75 1.25L10.75 9.25C10.75 9.94036 11.3096 10.5 12 10.5C12.6904 10.5 13.25 9.94036 13.25 9.25L13.25 1.25Z" fill="black"/>
</svg>
