<svg width="24" height="24" viewBox="0 0 24 24" fill="none" xmlns="http://www.w3.org/2000/svg">
<path d="M2.75 13.0002C2.75 9.32437 4.89416 6.14928 8 4.65746V3.01907C4.04381 4.60598 1.25 8.47685 1.25 13.0002C1.25 18.9373 6.06294 23.7502 12 23.7502C17.9371 23.7502 22.75 18.9373 22.75 13.0002C22.75 8.47685 19.9562 4.60598 16 3.01907V4.65746C19.1058 6.14928 21.25 9.32437 21.25 13.0002C21.25 18.1089 17.1086 22.2502 12 22.2502C6.89137 22.2502 2.75 18.1089 2.75 13.0002Z" fill="black"/>
<path d="M12.75 1.00024C12.75 0.586031 12.4142 0.250244 12 0.250244C11.5858 0.250244 11.25 0.586031 11.25 1.00024L11.25 9.00024C11.25 9.41446 11.5858 9.75024 12 9.75024C12.4142 9.75024 12.75 9.41446 12.75 9.00024L12.75 1.00024Z" fill="black"/>
</svg>
