<svg width="24" height="26" viewBox="0 0 24 26" fill="none" xmlns="http://www.w3.org/2000/svg">
<path d="M3.25 14C3.25 10.8131 4.95371 8.02419 7.5 6.49429V3.6861C3.52671 5.4221 0.75 9.38678 0.75 14C0.75 20.2132 5.7868 25.25 12 25.25C18.2132 25.25 23.25 20.2132 23.25 14C23.25 9.38678 20.4733 5.4221 16.5 3.6861V6.4943C19.0463 8.02419 20.75 10.8131 20.75 14C20.75 18.8325 16.8325 22.75 12 22.75C7.16751 22.75 3.25 18.8325 3.25 14Z" fill="black"/>
<path d="M13.25 2C13.25 1.30964 12.6904 0.75 12 0.75C11.3096 0.75 10.75 1.30964 10.75 2L10.75 10C10.75 10.6904 11.3096 11.25 12 11.25C12.6904 11.25 13.25 10.6904 13.25 10L13.25 2Z" fill="black"/>
</svg>
