<svg width="24" height="24" viewBox="0 0 24 24" fill="none" xmlns="http://www.w3.org/2000/svg">
<path d="M2.5 13.0005C2.5 8.80211 5.22342 5.23982 9 3.98389V2.93531C4.66277 4.22613 1.5 8.24396 1.5 13.0005C1.5 18.7995 6.20101 23.5005 12 23.5005C17.799 23.5005 22.5 18.7995 22.5 13.0005C22.5 8.24396 19.3372 4.22613 15 2.93531V3.98389C18.7766 5.23982 21.5 8.80211 21.5 13.0005C21.5 18.2472 17.2467 22.5005 12 22.5005C6.75329 22.5005 2.5 18.2472 2.5 13.0005Z" fill="black"/>
<path d="M12.5 1.00049C12.5 0.724346 12.2761 0.500488 12 0.500488C11.7239 0.500488 11.5 0.724346 11.5 1.00049L11.5 9.00049C11.5 9.27663 11.7239 9.50049 12 9.50049C12.2761 9.50049 12.5 9.27663 12.5 9.00049L12.5 1.00049Z" fill="black"/>
</svg>
