<svg width="24" height="26" viewBox="0 0 24 26" fill="none" xmlns="http://www.w3.org/2000/svg">
<path d="M3.25 14.0002C3.25 10.8134 4.95371 8.02444 7.5 6.49454V3.68634C3.52671 5.42234 0.75 9.38703 0.75 14.0002C0.75 20.2134 5.7868 25.2502 12 25.2502C18.2132 25.2502 23.25 20.2134 23.25 14.0002C23.25 9.38703 20.4733 5.42234 16.5 3.68634V6.49454C19.0463 8.02444 20.75 10.8134 20.75 14.0002C20.75 18.8327 16.8325 22.7502 12 22.7502C7.16751 22.7502 3.25 18.8327 3.25 14.0002Z" fill="black"/>
<path d="M13.25 2.00024C13.25 1.30989 12.6904 0.750244 12 0.750244C11.3096 0.750244 10.75 1.30989 10.75 2.00024L10.75 10.0002C10.75 10.6906 11.3096 11.2502 12 11.2502C12.6904 11.2502 13.25 10.6906 13.25 10.0002L13.25 2.00024Z" fill="black"/>
</svg>
