<svg width="24" height="24" viewBox="0 0 24 24" fill="none" xmlns="http://www.w3.org/2000/svg">
<path fill-rule="evenodd" clip-rule="evenodd" d="M10.2006 3.06031C9.03487 0.728882 5.83549 0.412085 4.23518 2.46962C2.81137 4.30023 3.50134 6.98184 5.63028 7.89862H3.50171C2.39714 7.89862 1.50171 8.79405 1.50171 9.89862V13.8986H2.50171V20.8986C2.50171 22.0032 3.39714 22.8986 4.50171 22.8986H19.5017C20.6063 22.8986 21.5017 22.0032 21.5017 20.8986V13.8986H22.5017V9.89862C22.5017 8.79405 21.6063 7.89862 20.5017 7.89862H18.3732C20.5021 6.98183 21.192 4.30024 19.7682 2.46963C18.1679 0.412097 14.9685 0.728894 13.8028 3.06032L12.0017 6.66256L10.2006 3.06031ZM5.81388 3.6975C6.5108 2.80147 7.90408 2.93944 8.41173 3.95474L10.2952 7.72168L6.42407 6.06289C5.49487 5.66472 5.19325 4.49546 5.81388 3.6975ZM11.0017 13.8986H13.0017V20.8986H11.0017V13.8986ZM3.50171 11.8986V9.89862H11.0017V11.8986H3.50171ZM13.0017 11.8986V9.89862H20.5017V11.8986H13.0017ZM15.5917 3.95475C16.0993 2.93945 17.4926 2.80148 18.1895 3.69751C18.8102 4.49547 18.5085 5.66474 17.5794 6.0629L13.7082 7.72169L15.5917 3.95475Z" fill="black"/>
</svg>
