<svg width="24" height="24" viewBox="0 0 24 24" fill="none" xmlns="http://www.w3.org/2000/svg">
<path fill-rule="evenodd" clip-rule="evenodd" d="M10.1989 3.06031C9.03316 0.728882 5.83378 0.412085 4.23347 2.46962C2.80966 4.30023 3.49963 6.98184 5.62857 7.89862H3.5C2.39543 7.89862 1.5 8.79405 1.5 9.89862V13.8986H2.5V20.8986C2.5 22.0032 3.39543 22.8986 4.5 22.8986H19.5C20.6046 22.8986 21.5 22.0032 21.5 20.8986V13.8986H22.5V9.89862C22.5 8.79405 21.6046 7.89862 20.5 7.89862H18.3715C20.5004 6.98183 21.1903 4.30024 19.7665 2.46963C18.1662 0.412097 14.9668 0.728894 13.8011 3.06032L12 6.66256L10.1989 3.06031ZM5.81218 3.6975C6.50909 2.80147 7.90237 2.93944 8.41002 3.95474L10.2935 7.72168L6.42236 6.06289C5.49317 5.66472 5.19154 4.49546 5.81218 3.6975ZM4.5 13.8986H11V20.8986H4.5V13.8986ZM13 13.8986H19.5V20.8986H13V13.8986ZM3.5 11.8986V9.89862H11V11.8986H3.5ZM13 11.8986V9.89862H20.5V11.8986H13ZM15.59 3.95475C16.0976 2.93945 17.4909 2.80148 18.1878 3.69751C18.8085 4.49547 18.5068 5.66474 17.5776 6.0629L13.7065 7.72169L15.59 3.95475Z" fill="black"/>
</svg>
