<svg width="24" height="24" viewBox="0 0 24 24" fill="none" xmlns="http://www.w3.org/2000/svg">
<path d="M14.1768 21.8232C13.7085 21.3549 13.1268 21.0691 12.5202 20.9656C12.382 20.975 12.2426 20.9797 12.1021 20.9797C11.9152 20.9797 11.7303 20.9713 11.5477 20.9548C10.9166 21.048 10.309 21.3375 9.82323 21.8232L9.75665 21.8898C8.78648 22.86 7.21353 22.86 6.24336 21.8898C5.0227 20.6692 3.02407 20.7357 1.88729 22.0348L1.81186 22.121C1.72094 22.2249 1.73147 22.3829 1.83537 22.4738C1.93928 22.5647 2.09722 22.5542 2.18815 22.4503L2.26358 22.3641C3.2099 21.2826 4.87366 21.2272 5.8898 22.2434C7.05524 23.4088 8.94477 23.4088 10.1102 22.2434L10.1768 22.1768C11.1837 21.1699 12.8163 21.1699 13.8232 22.1768L13.8898 22.2434C15.0552 23.4088 16.9448 23.4088 18.1102 22.2434C19.1263 21.2272 20.7901 21.2826 21.7364 22.3641L21.8119 22.4503C21.9028 22.5542 22.0607 22.5647 22.1646 22.4738C22.2685 22.3829 22.2791 22.2249 22.1881 22.121L22.1127 22.0348C20.9759 20.7357 18.9773 20.6692 17.7566 21.8898C16.7865 22.86 15.2135 22.86 14.2434 21.8898L14.1768 21.8232Z" fill="black"/>
<path d="M18.1102 17.2436C17.9209 17.4329 17.7125 17.5915 17.4912 17.7193C17.651 17.4145 17.7858 17.0945 17.8928 16.7621C19.1215 15.6759 21.0173 15.7832 22.1127 17.0351L22.1881 17.1213C22.2791 17.2252 22.2685 17.3831 22.1646 17.4741C22.0607 17.565 21.9028 17.5544 21.8119 17.4505L21.7364 17.3643C20.7901 16.2829 19.1263 16.2275 18.1102 17.2436Z" fill="black"/>
<path d="M6.24336 16.8901C6.29682 16.9435 6.35211 16.994 6.40903 17.0416C6.51616 17.326 6.64399 17.6003 6.79069 17.8626C6.46386 17.7178 6.1577 17.5115 5.8898 17.2436C4.87366 16.2275 3.2099 16.2829 2.26358 17.3643L2.18815 17.4505C2.09722 17.5544 1.93928 17.565 1.83537 17.474C1.73147 17.3831 1.72094 17.2252 1.81186 17.1213L1.88729 17.0351C3.02407 15.7359 5.0227 15.6694 6.24336 16.8901Z" fill="black"/>
<path fill-rule="evenodd" clip-rule="evenodd" d="M9.40294 3.46945C9.40293 1.97887 10.6113 0.770508 12.1019 0.770508C13.5925 0.770508 14.8008 1.97887 14.8008 3.46945L14.8008 11.343C14.8008 11.4986 14.8027 11.5313 14.8082 11.5537C14.8164 11.5864 14.8221 11.5997 14.8403 11.6281C14.8524 11.6469 14.8833 11.6789 15.0201 11.8082C15.8399 12.5827 16.352 13.6807 16.352 14.898C16.352 17.2452 14.4492 19.148 12.1019 19.148C9.75473 19.148 7.85193 17.2452 7.85193 14.898C7.85193 13.6808 8.36395 12.5828 9.18364 11.8083C9.32046 11.679 9.35141 11.647 9.36346 11.6282C9.38165 11.5998 9.38737 11.5865 9.39552 11.5538C9.40109 11.5314 9.40294 11.4987 9.40294 11.3431V3.46945ZM12.1021 15.6483C12.5163 15.6483 12.8521 15.3125 12.8521 14.8983C12.8521 14.4841 12.5163 14.1483 12.1021 14.1483C11.6879 14.1483 11.3521 14.4841 11.3521 14.8983C11.3521 15.3125 11.6879 15.6483 12.1021 15.6483Z" fill="black"/>
<path d="M18.0002 4.44387C17.8621 4.44387 17.7502 4.5558 17.7502 4.69387C17.7502 4.83194 17.8621 4.94387 18.0002 4.94387H21.6736C21.8117 4.94387 21.9236 4.83194 21.9236 4.69387C21.9236 4.5558 21.8117 4.44387 21.6736 4.44387L18.0002 4.44387Z" fill="black"/>
<path d="M18.0002 7.44387C17.8621 7.44387 17.7502 7.5558 17.7502 7.69387C17.7502 7.83194 17.8621 7.94387 18.0002 7.94387H20.8573C20.9954 7.94387 21.1073 7.83194 21.1073 7.69387C21.1073 7.5558 20.9954 7.44387 20.8573 7.44387H18.0002Z" fill="black"/>
</svg>
