<svg width="24" height="24" viewBox="0 0 24 24" fill="none" xmlns="http://www.w3.org/2000/svg">
<path fill-rule="evenodd" clip-rule="evenodd" d="M9.97698 3.17209C8.89353 1.00518 5.9199 0.710738 4.43252 2.62308C3.10793 4.32613 3.75167 6.82163 5.7348 7.67141L6.84842 8.1486H3.50171C2.53521 8.1486 1.75171 8.9321 1.75171 9.8986V13.6486H2.75171V20.8986C2.75171 21.8651 3.53521 22.6486 4.50171 22.6486H19.5017C20.4682 22.6486 21.2517 21.8651 21.2517 20.8986V13.6486H22.2517V9.8986C22.2517 8.9321 21.4682 8.1486 20.5017 8.1486H17.155L18.2686 7.67142C20.2517 6.82164 20.8955 4.32614 19.5709 2.6231C18.0835 0.710749 15.1099 1.00519 14.0264 3.1721L12.0017 7.22155L9.97698 3.17209ZM5.61655 3.544C6.42638 2.50278 8.04543 2.6631 8.63534 3.84291L10.788 8.14819L10.6558 8.14814L6.3256 6.29266C5.24585 5.82998 4.89535 4.47125 5.61655 3.544ZM11.2517 13.6486H12.7517V21.1486H11.2517V13.6486ZM3.25171 12.1486V9.8986C3.25171 9.76053 3.36364 9.6486 3.50171 9.6486H11.2517V12.1486H3.25171ZM12.7517 12.1486V9.6486H20.5017C20.6398 9.6486 20.7517 9.76053 20.7517 9.8986V12.1486H12.7517ZM15.3681 3.84292C15.958 2.66311 17.577 2.50279 18.3869 3.54401C19.1081 4.47127 18.7576 5.82999 17.6778 6.29267L13.3477 8.14815L13.2154 8.1482L15.3681 3.84292Z" fill="black"/>
</svg>
