<svg width="24" height="25" viewBox="0 0 24 25" fill="none" xmlns="http://www.w3.org/2000/svg">
<path d="M13.0707 23.0697C14.4193 22.9069 15.6647 22.4086 16.7207 21.6606C16.8334 21.598 16.9396 21.5196 17.0362 21.4254C17.2119 21.2875 17.3817 21.1425 17.5451 20.9907C19.1804 19.8146 21.4931 20.0376 22.8653 21.6058L22.9407 21.692C23.3953 22.2115 23.3427 23.0012 22.8232 23.4558C22.3036 23.9104 21.5139 23.8578 21.0593 23.3383L20.9839 23.2521C20.4185 22.6059 19.4244 22.5728 18.8173 23.1799C17.2614 24.7359 14.7387 24.7359 13.1827 23.1799L13.1161 23.1134C13.1012 23.0984 13.086 23.0839 13.0707 23.0697Z" fill="black"/>
<path d="M20.9839 18.2523C20.6398 17.859 20.1368 17.6929 19.659 17.7599C19.9332 16.9728 20.0878 16.1297 20.1012 15.2523C21.1266 15.3126 22.1307 15.7665 22.8653 16.606L22.9407 16.6922C23.3953 17.2118 23.3427 18.0015 22.8232 18.4561C22.3036 18.9107 21.5139 18.858 21.0593 18.3385L20.9839 18.2523Z" fill="black"/>
<path d="M1.13474 16.606C1.918 15.7109 3.00772 15.2541 4.10297 15.2456C4.11594 16.1434 4.27681 17.0054 4.56232 17.8084C4.02413 17.6465 3.41402 17.7976 3.01616 18.2523L2.94073 18.3385C2.48612 18.858 1.69641 18.9107 1.17687 18.4561C0.657333 18.0015 0.604698 17.2118 1.05931 16.6922L1.13474 16.606Z" fill="black"/>
<path d="M6.95048 21.4122C7.16795 21.6296 7.43611 21.7655 7.71693 21.8198C8.67341 22.4478 9.77262 22.8763 10.9554 23.0461C10.931 23.0677 10.9072 23.0901 10.8839 23.1134L10.8173 23.1799C9.26137 24.7359 6.73867 24.7359 5.18271 23.1799C4.5756 22.5728 3.58155 22.6059 3.01616 23.2521L2.94073 23.3383C2.48612 23.8578 1.69641 23.9104 1.17687 23.4558C0.657333 23.0012 0.604698 22.2115 1.05931 21.692L1.13474 21.6058C2.65245 19.8713 5.32078 19.7825 6.95048 21.4122Z" fill="black"/>
<path d="M12.1022 16.6278C12.9307 16.6278 13.6022 15.9562 13.6022 15.1278C13.6022 14.2994 12.9307 13.6278 12.1022 13.6278C11.2738 13.6278 10.6022 14.2994 10.6022 15.1278C10.6022 15.9562 11.2738 16.6278 12.1022 16.6278Z" fill="black"/>
<path fill-rule="evenodd" clip-rule="evenodd" d="M12.1501 0C9.80285 1.02603e-07 7.90006 1.90279 7.90006 4.25L7.90006 11.2024C6.94096 12.2289 6.35205 13.6106 6.35205 15.1274C6.35205 18.3031 8.92642 20.8774 12.1021 20.8774C15.2777 20.8774 17.8521 18.3031 17.8521 15.1274C17.8521 13.6621 17.3024 12.3225 16.4001 11.3077V4.25C16.4001 1.90279 14.4973 -1.02596e-07 12.1501 0ZM10.4001 4.25C10.4001 3.2835 11.1836 2.5 12.1501 2.5C13.1166 2.5 13.9001 3.2835 13.9001 4.25L13.9001 11.4661L13.8999 11.4881C13.8991 11.5726 13.8972 11.7853 13.944 11.9903C13.9842 12.1661 14.0449 12.3204 14.1351 12.4764C14.2411 12.6598 14.3995 12.827 14.465 12.8962L14.4831 12.9154C15.0234 13.4965 15.3521 14.2722 15.3521 15.1274C15.3521 16.9224 13.897 18.3774 12.1021 18.3774C10.3071 18.3774 8.85205 16.9224 8.85205 15.1274C8.85205 14.2425 9.20409 13.4423 9.77857 12.855L9.7978 12.8356C9.8676 12.7656 10.0361 12.5966 10.1492 12.4089C10.2454 12.2492 10.3101 12.0904 10.353 11.909C10.4032 11.6972 10.4011 11.4768 10.4002 11.3893L10.4001 11.3665V4.25Z" fill="black"/>
<path d="M18.5001 3.92332C17.9478 3.92332 17.5001 4.37104 17.5001 4.92332C17.5001 5.47561 17.9478 5.92332 18.5001 5.92332H22.1735C22.7258 5.92332 23.1735 5.47561 23.1735 4.92332C23.1735 4.37104 22.7258 3.92332 22.1735 3.92332L18.5001 3.92332Z" fill="black"/>
<path d="M18.5001 7.92332C17.9478 7.92332 17.5001 8.37104 17.5001 8.92332C17.5001 9.47561 17.9478 9.92332 18.5001 9.92332H21.3572C21.9094 9.92332 22.3572 9.47561 22.3572 8.92332C22.3572 8.37104 21.9094 7.92332 21.3572 7.92332H18.5001Z" fill="black"/>
</svg>
