<svg width="24" height="24" viewBox="0 0 24 24" fill="none" xmlns="http://www.w3.org/2000/svg">
<path fill-rule="evenodd" clip-rule="evenodd" d="M9.52977 3.39566C8.61083 1.55778 6.08873 1.30804 4.82719 2.93001C3.70373 4.37446 4.24973 6.49104 5.93173 7.21178L9.28474 8.64856H3.50171C2.81135 8.64856 2.25171 9.2082 2.25171 9.89856V13.1486H3.25171V20.8986C3.25171 21.5889 3.81135 22.1486 4.50171 22.1486H19.5017C20.1921 22.1486 20.7517 21.5889 20.7517 20.8986V13.1486H21.7517V9.89856C21.7517 9.2082 21.1921 8.64856 20.5017 8.64856H14.7187L18.0717 7.21179C19.7537 6.49105 20.2997 4.37448 19.1762 2.93002C17.9147 1.30805 15.3926 1.55779 14.4737 3.39567L12.0017 8.33955L9.52977 3.39566ZM5.22187 3.23698C6.25756 1.90539 8.32813 2.11041 9.08255 3.61926L11.5971 8.64842L10.5531 8.64806L6.12867 6.7522C4.74779 6.16049 4.29954 4.42284 5.22187 3.23698ZM11.7517 13.1486H12.2517V21.6486H11.7517V13.1486ZM2.75171 12.6486V9.89856C2.75171 9.48434 3.0875 9.14856 3.50171 9.14856H11.7517V12.6486H2.75171ZM12.2517 12.6486V9.14856H20.5017C20.9159 9.14856 21.2517 9.48434 21.2517 9.89856V12.6486H12.2517ZM14.9209 3.61928C15.6753 2.11043 17.7459 1.9054 18.7815 3.23699C19.7039 4.42285 19.2556 6.1605 17.8748 6.75221L13.4504 8.64808L12.4063 8.64843L14.9209 3.61928Z" fill="black"/>
</svg>
