<svg width="24" height="24" viewBox="0 0 24 24" fill="none" xmlns="http://www.w3.org/2000/svg">
<path fill-rule="evenodd" clip-rule="evenodd" d="M9.75167 3.28387C8.75047 1.28148 6.0026 1.00939 4.62815 2.77655C3.40412 4.3503 3.99899 6.65633 5.83156 7.44159L8.06487 8.39858H3.5C2.67157 8.39858 2 9.07015 2 9.89858V13.3986H3V20.8986C3 21.727 3.67157 22.3986 4.5 22.3986H19.5C20.3284 22.3986 21 21.727 21 20.8986V13.3986H22V9.89858C22 9.07015 21.3284 8.39858 20.5 8.39858H15.9352L18.1684 7.44161C20.001 6.65635 20.5959 4.35031 19.3719 2.77656C17.9974 1.0094 15.2495 1.28149 14.2483 3.28389L12 7.78055L9.75167 3.28387ZM5.4175 3.39049C6.34026 2.20408 8.18507 2.38676 8.85724 3.73109L11.1908 8.3983L10.6027 8.3981L6.22542 6.52243C4.99511 5.99523 4.59573 4.44705 5.4175 3.39049ZM4 13.3986H11.5V21.3986H4.5C4.22386 21.3986 4 21.1747 4 20.8986V13.3986ZM12.5 13.3986H20V20.8986C20 21.1747 19.7761 21.3986 19.5 21.3986H12.5V13.3986ZM3 12.3986V9.89858C3 9.62243 3.22386 9.39858 3.5 9.39858H11.5V12.3986H3ZM12.5 12.3986V9.39858H20.5C20.7761 9.39858 21 9.62243 21 9.89858V12.3986H12.5ZM15.1428 3.7311C15.8149 2.38677 17.6597 2.2041 18.5825 3.3905C19.4043 4.44706 19.0049 5.99524 17.7746 6.52244L13.3973 8.39811L12.8092 8.39831L15.1428 3.7311Z" fill="black"/>
</svg>
