<svg width="24" height="24" viewBox="0 0 24 24" fill="none" xmlns="http://www.w3.org/2000/svg">
<path d="M14.3536 21.6465C14.0079 21.3008 13.6052 21.0471 13.1757 20.8853C12.8272 20.9474 12.4685 20.9797 12.1021 20.9797C11.6886 20.9797 11.2847 20.9385 10.8943 20.8598C10.4386 21.0199 10.0108 21.2821 9.64645 21.6465L9.57987 21.713C8.70734 22.5856 7.29268 22.5856 6.42014 21.713C5.09722 20.3901 2.93117 20.4622 1.69916 21.8702L1.62372 21.9564C1.44188 22.1642 1.46293 22.4801 1.67075 22.662C1.87856 22.8438 2.19445 22.8227 2.37629 22.6149L2.45172 22.5287C3.30281 21.5561 4.79914 21.5063 5.71303 22.4202C6.97609 23.6832 9.02392 23.6832 10.287 22.4202L10.3536 22.3536C11.2629 21.4443 12.7371 21.4443 13.6465 22.3536L13.713 22.4202C14.9761 23.6832 17.0239 23.6832 18.287 22.4202C19.2009 21.5063 20.6972 21.5561 21.5483 22.5287L21.6237 22.6149C21.8056 22.8227 22.1215 22.8438 22.3293 22.662C22.5371 22.4801 22.5581 22.1642 22.3763 21.9564L22.3009 21.8702C21.0688 20.4622 18.9028 20.3901 17.5799 21.713C16.7073 22.5856 15.2927 22.5856 14.4201 21.713L14.3536 21.6465Z" fill="black"/>
<path d="M18.287 17.4204C17.9849 17.7225 17.6378 17.9524 17.2674 18.11C17.6013 17.5741 17.8542 16.9824 18.0088 16.3522C19.3346 15.4189 21.1944 15.606 22.3009 16.8704L22.3763 16.9566C22.5581 17.1645 22.5371 17.4803 22.3293 17.6622C22.1215 17.844 21.8056 17.823 21.6237 17.6152L21.5483 17.529C20.6972 16.5563 19.2009 16.5065 18.287 17.4204Z" fill="black"/>
<path d="M1.69916 16.8704C2.87925 15.5218 4.91632 15.3988 6.24854 16.5535C6.41621 17.1476 6.67191 17.7048 7.00065 18.2101C6.5298 18.0576 6.08702 17.7944 5.71303 17.4204C4.79914 16.5065 3.30281 16.5563 2.45172 17.529L2.37629 17.6152C2.19445 17.823 1.87856 17.844 1.67075 17.6622C1.46293 17.4803 1.44188 17.1645 1.62372 16.9566L1.69916 16.8704Z" fill="black"/>
<path d="M12.1021 15.8983C12.6544 15.8983 13.1021 15.4506 13.1021 14.8983C13.1021 14.346 12.6544 13.8983 12.1021 13.8983C11.5498 13.8983 11.1021 14.346 11.1021 14.8983C11.1021 15.4506 11.5498 15.8983 12.1021 15.8983Z" fill="black"/>
<path fill-rule="evenodd" clip-rule="evenodd" d="M12.1019 0.520508C10.4732 0.520508 9.15293 1.8408 9.15294 3.46945V11.3431C9.15294 11.4179 9.15283 11.4582 9.15155 11.4876L9.15134 11.492L9.14203 11.5016C9.115 11.5291 9.0766 11.5655 9.01195 11.6266C8.14435 12.4463 7.60193 13.6092 7.60193 14.898C7.60193 17.3833 9.61666 19.398 12.1019 19.398C14.5872 19.398 16.602 17.3833 16.602 14.898C16.602 13.6091 16.0595 12.4462 15.1918 11.6265C15.1272 11.5654 15.0888 11.529 15.0617 11.5015L15.0524 11.4918L15.0522 11.4874C15.0509 11.4581 15.0508 11.4178 15.0508 11.343L15.0508 3.46945C15.0508 1.8408 13.7305 0.520508 12.1019 0.520508ZM10.1529 3.46945C10.1529 2.39308 11.0255 1.52051 12.1019 1.52051C13.1783 1.52051 14.0508 2.39308 14.0508 3.46945L14.0508 11.343L14.0508 11.3735C14.0505 11.4808 14.0501 11.613 14.0805 11.735C14.1083 11.8468 14.1466 11.9355 14.2087 12.0326C14.2768 12.1388 14.3846 12.2401 14.4767 12.3267L14.5051 12.3533C15.1811 12.9921 15.602 13.8955 15.602 14.898C15.602 16.831 14.0349 18.398 12.1019 18.398C10.1689 18.398 8.60193 16.831 8.60193 14.898C8.60193 13.8955 9.02272 12.9921 9.69872 12.3534L9.72708 12.3267C9.81922 12.2402 9.92701 12.1389 9.99504 12.0327C10.0572 11.9356 10.0954 11.8469 10.1233 11.7351C10.1537 11.6131 10.1533 11.4809 10.153 11.3736L10.1529 11.3431V3.46945Z" fill="black"/>
<path d="M18.0002 4.19387C17.724 4.19387 17.5002 4.41772 17.5002 4.69387C17.5002 4.97001 17.724 5.19387 18.0002 5.19387H21.6736C21.9497 5.19387 22.1736 4.97001 22.1736 4.69387C22.1736 4.41772 21.9497 4.19387 21.6736 4.19387L18.0002 4.19387Z" fill="black"/>
<path d="M18.0002 7.19387C17.724 7.19387 17.5002 7.41773 17.5002 7.69387C17.5002 7.97001 17.724 8.19387 18.0002 8.19387H20.8573C21.1334 8.19387 21.3573 7.97001 21.3573 7.69387C21.3573 7.41773 21.1334 7.19387 20.8573 7.19387H18.0002Z" fill="black"/>
</svg>
