<svg width="24" height="24" viewBox="0 0 24 24" fill="none" xmlns="http://www.w3.org/2000/svg">
<path d="M9.98047 10.1309C10.1739 10.2522 10.4273 10.4436 10.8184 10.7412L14.6064 13.624C14.8725 13.8264 15.0319 13.9498 15.1406 14.0488C15.1882 14.0922 15.2134 14.1183 15.2236 14.1309C15.2329 14.1608 15.2329 14.1927 15.2236 14.2227C15.2134 14.2353 15.1883 14.2613 15.1406 14.3047C15.0319 14.4037 14.8724 14.5271 14.6064 14.7295L10.8184 17.6123C10.4272 17.91 10.1739 18.1013 9.98047 18.2227C9.88623 18.2818 9.83163 18.3065 9.80762 18.3164C9.77701 18.3114 9.74848 18.2979 9.72559 18.2773C9.71896 18.2532 9.70461 18.1957 9.69434 18.085C9.67356 17.8601 9.67285 17.546 9.67285 17.0596V11.2939C9.67285 10.8077 9.67358 10.4934 9.69434 10.2686C9.70465 10.1573 9.719 10.0992 9.72559 10.0752C9.74849 10.0546 9.77699 10.0411 9.80762 10.0361C9.83154 10.046 9.88594 10.0716 9.98047 10.1309Z" fill="black"/>
<path fill-rule="evenodd" clip-rule="evenodd" d="M24 20C24 22.2091 22.2091 23.9999 20 24H4C1.79095 23.9999 4.94824e-05 22.2091 0 20V6.25H24V20ZM9.62891 8.55762C9.19479 8.61032 8.79579 8.82934 8.52148 9.1709C8.27964 9.47211 8.21587 9.83771 8.18848 10.1338C8.15997 10.4422 8.16113 10.8371 8.16113 11.2939V17.0596C8.16113 17.5165 8.15996 17.9113 8.18848 18.2197C8.21589 18.5157 8.27973 18.8815 8.52148 19.1826C8.83477 19.5726 9.31033 19.8023 9.81543 19.8076C10.2055 19.8116 10.5392 19.6373 10.7939 19.4775C11.0592 19.3111 11.3751 19.0684 11.7422 18.7891L15.5312 15.9062C15.7754 15.7205 15.9985 15.5517 16.168 15.3975C16.3414 15.2395 16.5262 15.0389 16.6328 14.7646L16.6816 14.6201C16.7779 14.2816 16.7612 13.9197 16.6328 13.5889L16.5889 13.4893C16.4798 13.2651 16.3196 13.0942 16.168 12.9561C15.9986 12.8018 15.7753 12.633 15.5312 12.4473L11.7422 9.56348C11.3753 9.28429 11.0591 9.0424 10.7939 8.87598C10.571 8.73613 10.2875 8.5846 9.95898 8.55176L9.81543 8.5459L9.62891 8.55762Z" fill="black"/>
<path d="M20 0C22.2091 6.59742e-05 24 1.79094 24 4V4.75H0V4C4.95405e-05 1.79094 1.79095 6.62255e-05 4 0H20Z" fill="black"/>
</svg>
