<svg width="24" height="24" viewBox="0 0 24 24" fill="none" xmlns="http://www.w3.org/2000/svg">
<path fill-rule="evenodd" clip-rule="evenodd" d="M17.1035 13.4121C17.2707 13.8427 17.2923 14.3133 17.167 14.7539L17.1035 14.9414C16.9565 15.3199 16.7062 15.5828 16.5098 15.7617C16.3201 15.9344 16.0756 16.1186 15.8389 16.2988L12.0508 19.1816C11.6913 19.4552 11.3529 19.714 11.0635 19.8955C10.7919 20.0658 10.3543 20.3092 9.81055 20.3037C9.15295 20.2968 8.53371 19.9971 8.12598 19.4893C7.78893 19.0693 7.71671 18.5803 7.6875 18.2646C7.65639 17.9283 7.65723 17.5067 7.65723 17.0596V11.2939C7.65723 10.8469 7.6564 10.4252 7.6875 10.0889C7.7167 9.77328 7.78898 9.28424 8.12598 8.86426C8.53371 8.35644 9.15294 8.05668 9.81055 8.0498C10.3544 8.04429 10.7919 8.28767 11.0635 8.45801C11.3529 8.63954 11.6913 8.89832 12.0508 9.17188L15.8389 12.0547C16.0757 12.2349 16.3201 12.4191 16.5098 12.5918C16.6817 12.7484 16.895 12.9698 17.0439 13.2764L17.1035 13.4121ZM14.2979 14.0166L10.5098 11.1328C10.3846 11.0376 10.2751 10.9555 10.1797 10.8838C10.179 11.0021 10.1768 11.1379 10.1768 11.2939V17.0596C10.1768 17.2156 10.179 17.3514 10.1797 17.4697C10.2751 17.398 10.3845 17.315 10.5098 17.2197L14.2979 14.3369C14.3768 14.2769 14.4455 14.224 14.5068 14.1768C14.4454 14.1295 14.3768 14.0767 14.2979 14.0166Z" fill="black"/>
<path fill-rule="evenodd" clip-rule="evenodd" d="M23.9951 20.2061C23.8879 22.3194 22.14 24 20 24H4L3.79395 23.9951C1.74886 23.8913 0.10865 22.2512 0.00488281 20.2061L0 20V4C4.79903e-05 1.86004 1.68064 0.112172 3.79395 0.00488281L4 0H20C22.2091 6.44247e-08 24 1.7909 24 4V20L23.9951 20.2061ZM21.5 4C21.5 3.17162 20.8284 2.5 20 2.5H4C3.17166 2.50007 2.50005 3.17166 2.5 4V4.75H21.5V4ZM2.5 7.25V20C2.5 20.8284 3.17163 21.4999 4 21.5H20C20.8284 21.5 21.5 20.8284 21.5 20V7.25H2.5Z" fill="black"/>
</svg>
