<svg width="24" height="24" viewBox="0 0 24 24" fill="none" xmlns="http://www.w3.org/2000/svg">
<path d="M9.94043 10.4062C10.1103 10.5213 10.3348 10.6867 10.6631 10.9365L14.4521 13.8193C14.6705 13.9855 14.8087 14.0944 14.9062 14.1768C14.8087 14.2591 14.6704 14.3671 14.4521 14.5332L10.6631 17.417C10.3348 17.6668 10.1103 17.8322 9.94043 17.9473C9.92898 17.7445 9.92481 17.4683 9.9248 17.0596V11.2939C9.9248 10.8854 9.92899 10.609 9.94043 10.4062Z" fill="black"/>
<path fill-rule="evenodd" clip-rule="evenodd" d="M24 20C24 22.2091 22.2091 23.9999 20 24H4C1.79095 23.9999 4.94824e-05 22.2091 0 20V6H24V20ZM9.81348 8.29785C9.23197 8.30389 8.68378 8.56853 8.32324 9.01758C8.03416 9.37786 7.96583 9.80463 7.9375 10.1104C7.90768 10.4327 7.90918 10.8419 7.90918 11.2939V17.0596C7.90918 17.5116 7.90768 17.9208 7.9375 18.2432C7.96585 18.5489 8.03417 18.9758 8.32324 19.3359C8.68379 19.7849 9.23201 20.0496 9.81348 20.0557C10.28 20.0603 10.6647 19.8515 10.9277 19.6865C11.2051 19.5126 11.5332 19.2628 11.8965 18.9863L15.6846 16.1025C15.9251 15.9195 16.1593 15.7426 16.3389 15.5791C16.5238 15.4106 16.7424 15.179 16.8691 14.8525L16.9238 14.6875C17.0347 14.298 17.0168 13.8817 16.8691 13.501L16.8164 13.3818C16.6874 13.1168 16.5006 12.9207 16.3389 12.7734C16.1593 12.61 15.925 12.433 15.6846 12.25L11.8965 9.36719C11.5332 9.09076 11.205 8.84094 10.9277 8.66699C10.6647 8.50201 10.2801 8.29321 9.81348 8.29785Z" fill="black"/>
<path d="M20 0C22.2091 6.59742e-05 24 1.79094 24 4H0L0.00488281 3.79395C0.112155 1.68064 1.86005 6.4154e-05 4 0H20Z" fill="black"/>
</svg>
