<svg width="24" height="24" viewBox="0 0 24 24" fill="none" xmlns="http://www.w3.org/2000/svg">
<path fill-rule="evenodd" clip-rule="evenodd" d="M0.750001 13.2499L0.750001 11.7501C0.749983 10.9526 0.749969 10.2793 0.795027 9.72782C0.842216 9.15026 0.944985 8.59699 1.21323 8.07054C1.62069 7.27085 2.27085 6.62068 3.07054 6.21322C3.597 5.94498 4.15026 5.84221 4.72782 5.79502C5.03165 5.7702 5.37241 5.75906 5.75056 5.75406C5.75215 5.39401 5.75825 5.06796 5.7814 4.78462C5.81497 4.37381 5.89049 3.94403 6.10423 3.52453C6.41582 2.91301 6.91301 2.41582 7.52453 2.10423C7.94403 1.89049 8.37381 1.81497 8.78462 1.7814C9.16957 1.74995 9.63337 1.74998 10.1542 1.75L13.8458 1.75C14.3666 1.74997 14.8304 1.74995 15.2154 1.7814C15.6262 1.81497 16.056 1.89049 16.4755 2.10423C17.087 2.41582 17.5842 2.91301 17.8958 3.52454C18.1095 3.94403 18.185 4.37381 18.2186 4.78462C18.2418 5.06795 18.2478 5.39401 18.2494 5.75406C18.6276 5.75906 18.9684 5.7702 19.2722 5.79502C19.8497 5.84221 20.403 5.94498 20.9295 6.21322C21.7292 6.62069 22.3793 7.27085 22.7868 8.07054C23.055 8.59699 23.1578 9.15026 23.205 9.72782C23.25 10.2793 23.25 10.9525 23.25 11.7501V13.2499C23.25 14.0475 23.25 14.7207 23.205 15.2722C23.1578 15.8497 23.055 16.403 22.7868 16.9295C22.3793 17.7291 21.7292 18.3793 20.9295 18.7868C20.403 19.055 19.8497 19.1578 19.2722 19.205C18.9661 19.23 18.6224 19.2411 18.2408 19.2461C18.1151 20.926 16.7122 22.25 15 22.25H9C7.28785 22.25 5.88493 20.926 5.75918 19.2461C5.37759 19.2411 5.03395 19.23 4.72782 19.205C4.15026 19.1578 3.597 19.055 3.07054 18.7868C2.27085 18.3793 1.62069 17.7292 1.21323 16.9295C0.944985 16.403 0.842216 15.8497 0.795028 15.2722C0.749969 14.7207 0.749984 14.0474 0.750001 13.2499ZM15.7493 5.75C15.7477 5.4192 15.7427 5.18101 15.7269 4.9882C15.7061 4.73372 15.6729 4.66871 15.6683 4.65969C15.5964 4.51856 15.4816 4.40365 15.3405 4.33175C15.3315 4.32715 15.2663 4.29389 15.0118 4.2731C14.741 4.25098 14.3807 4.25 13.8 4.25H10.2C9.61932 4.25 9.25899 4.25098 8.9882 4.2731C8.73372 4.29389 8.66871 4.32705 8.65969 4.33166C8.51856 4.40356 8.40365 4.51839 8.33175 4.65951C8.32714 4.66854 8.29389 4.73372 8.2731 4.9882C8.25735 5.181 8.25232 5.4192 8.25073 5.75L15.7493 5.75ZM15.75 16.1507C15.7499 15.5988 15.7484 15.2512 15.7269 14.9882C15.7061 14.7337 15.673 14.6687 15.6683 14.6597C15.6401 14.6043 15.6052 14.5528 15.5647 14.5065C15.544 14.4828 15.5218 14.4604 15.4983 14.4395C15.4508 14.3972 15.3978 14.361 15.3405 14.3317C15.3315 14.3271 15.2663 14.2939 15.0118 14.2731C14.744 14.2512 14.3886 14.25 13.8192 14.25H10.1691C9.60647 14.25 9.25415 14.2514 8.9882 14.2731C8.73372 14.2939 8.66871 14.3271 8.65969 14.3317C8.51857 14.4036 8.40365 14.5184 8.33175 14.6595C8.32715 14.6685 8.29389 14.7337 8.2731 14.9882C8.25098 15.259 8.25 15.6193 8.25 16.2L8.25087 19.0363C8.26981 19.4337 8.59796 19.75 9 19.75H15C15.4021 19.75 15.7303 19.4336 15.7491 19.0362L15.75 16.1507ZM5 11.25C5.69036 11.25 6.25 10.6904 6.25 10C6.25 9.30965 5.69036 8.75 5 8.75C4.30965 8.75 3.75 9.30965 3.75 10C3.75 10.6904 4.30965 11.25 5 11.25Z" fill="black"/>
</svg>
