<svg width="24" height="24" viewBox="0 0 24 24" fill="none" xmlns="http://www.w3.org/2000/svg">
<path d="M5 11C5.55229 11 6 10.5523 6 10C6 9.44772 5.55229 9 5 9C4.44772 9 4 9.44772 4 10C4 10.5523 4.44772 11 5 11Z" fill="black"/>
<path fill-rule="evenodd" clip-rule="evenodd" d="M4.76853 6.29336C5.18171 6.2596 5.67043 6.25212 6.25 6.25047L6.25 6.16957C6.24999 5.63542 6.24998 5.18956 6.27974 4.82533C6.31078 4.44545 6.37789 4.08879 6.54973 3.75153C6.81338 3.23408 7.23408 2.81339 7.75153 2.54973C8.08879 2.37789 8.44545 2.31078 8.82533 2.27974C9.18957 2.24998 9.63543 2.24999 10.1696 2.25L13.8304 2.25C14.3646 2.24999 14.8104 2.24998 15.1747 2.27974C15.5546 2.31078 15.9112 2.37789 16.2485 2.54973C16.7659 2.81339 17.1866 3.23408 17.4503 3.75153C17.6221 4.08879 17.6892 4.44545 17.7203 4.82533C17.75 5.18956 17.75 5.6354 17.75 6.16955V6.25047C18.3296 6.25212 18.8183 6.2596 19.2315 6.29336C19.7781 6.33802 20.2582 6.43238 20.7025 6.65872C21.4081 7.01825 21.9817 7.59193 22.3413 8.29753C22.5676 8.74175 22.662 9.22189 22.7066 9.76853C22.75 10.2994 22.75 10.955 22.75 11.7679V13.2321C22.75 14.045 22.75 14.7006 22.7066 15.2315C22.662 15.7781 22.5676 16.2582 22.3413 16.7025C21.9817 17.4081 21.4081 17.9817 20.7025 18.3413C20.2582 18.5676 19.7781 18.662 19.2315 18.7066C18.8183 18.7404 18.3296 18.7479 17.75 18.7495V19C17.75 20.5188 16.5188 21.75 15 21.75H9C7.48122 21.75 6.25 20.5188 6.25 19V18.7495C5.67043 18.7479 5.18171 18.7404 4.76853 18.7066C4.2219 18.662 3.74175 18.5676 3.29754 18.3413C2.59193 17.9817 2.01825 17.4081 1.65873 16.7025C1.43239 16.2582 1.33803 15.7781 1.29336 15.2315C1.24999 14.7006 1.24999 14.0449 1.25 13.2321L1.25 11.7679C1.24999 10.9551 1.24999 10.2994 1.29336 9.76853C1.33803 9.22189 1.43239 8.74175 1.65873 8.29753C2.01825 7.59193 2.59193 7.01825 3.29754 6.65872C3.74175 6.43238 4.2219 6.33802 4.76853 6.29336ZM2.99524 16.0215C2.8946 15.824 2.82547 15.5632 2.78838 15.1093C2.75058 14.6467 2.75 14.0525 2.75 13.2V11.8C2.75 10.9475 2.75058 10.3533 2.78838 9.89068C2.82547 9.4368 2.8946 9.17604 2.99524 8.97852C3.21095 8.55516 3.55516 8.21095 3.97852 7.99523C4.17604 7.89459 4.43681 7.82546 4.89068 7.78838C5.34106 7.75158 5.91617 7.75006 6.73283 7.75L17.2672 7.75C18.0838 7.75006 18.6589 7.75158 19.1093 7.78838C19.5632 7.82546 19.824 7.89459 20.0215 7.99523C20.4448 8.21095 20.789 8.55515 21.0048 8.97852C21.1054 9.17604 21.1745 9.4368 21.2116 9.89068C21.2494 10.3533 21.25 10.9475 21.25 11.8V13.2C21.25 14.0525 21.2494 14.6467 21.2116 15.1093C21.1745 15.5632 21.1054 15.824 21.0048 16.0215C20.789 16.4448 20.4448 16.789 20.0215 17.0048C19.824 17.1054 19.5632 17.1745 19.1093 17.2116C18.7534 17.2407 18.3195 17.2478 17.75 17.2495V15C17.75 14.26 17.4577 13.5882 16.9822 13.0939C16.9514 13.0618 16.9198 13.0305 16.8874 13C16.3949 12.535 15.7308 12.25 15 12.25L9 12.25C8.25995 12.25 7.58818 12.5423 7.09385 13.0178C7.06136 13.0491 7.02964 13.0811 6.99872 13.1139C6.53452 13.6063 6.25 14.2699 6.25 15L6.25 17.2495C5.68053 17.2478 5.24665 17.2407 4.89068 17.2116C4.43681 17.1745 4.17604 17.1054 3.97852 17.0048C3.55516 16.789 3.21095 16.4448 2.99524 16.0215ZM16.25 6.25H7.75V6.2C7.75 5.62757 7.75058 5.24336 7.77476 4.94748C7.79822 4.66036 7.8401 4.52307 7.88624 4.43251C8.00608 4.19731 8.19731 4.00609 8.43251 3.88624C8.52307 3.8401 8.66036 3.79822 8.94748 3.77476C9.24336 3.75058 9.62757 3.75 10.2 3.75L13.8 3.75C14.3724 3.75 14.7566 3.75058 15.0525 3.77476C15.3396 3.79822 15.4769 3.8401 15.5675 3.88624C15.8027 4.00608 15.9939 4.19731 16.1138 4.43251C16.1599 4.52307 16.2018 4.66035 16.2252 4.94748C16.2494 5.24336 16.25 5.62757 16.25 6.2V6.25ZM7.75 19C7.75 19.6904 8.30964 20.25 9 20.25H15C15.6904 20.25 16.25 19.6904 16.25 19L16.25 16.2C16.25 15.6276 16.2494 15.2434 16.2252 14.9475C16.2018 14.6604 16.1599 14.5231 16.1138 14.4325C16.0628 14.3324 15.9988 14.2403 15.9241 14.1583C15.9 14.1318 15.8749 14.1065 15.8486 14.0822C15.7649 14.0048 15.6704 13.9387 15.5675 13.8862C15.4769 13.8401 15.3396 13.7982 15.0525 13.7748C14.7607 13.7509 14.3829 13.75 13.8233 13.75H10.188C9.62218 13.75 9.24128 13.7508 8.94748 13.7748C8.66036 13.7982 8.52307 13.8401 8.43251 13.8862C8.19731 14.0061 8.00608 14.1973 7.88624 14.4325C7.8401 14.5231 7.79822 14.6604 7.77476 14.9475C7.75058 15.2434 7.75 15.6276 7.75 16.2L7.75 19Z" fill="black"/>
</svg>
