<svg width="24" height="24" viewBox="0 0 24 24" fill="none" xmlns="http://www.w3.org/2000/svg">
<path fill-rule="evenodd" clip-rule="evenodd" d="M1.75 13.2115L1.75 11.7885C1.75 10.9581 1.75 10.3197 1.7917 9.80925C1.83384 9.29353 1.91979 8.88651 2.10423 8.52453C2.41582 7.913 2.913 7.41582 3.52453 7.10423C3.88652 6.91979 4.29353 6.83384 4.80925 6.7917C5.31177 6.75064 5.93838 6.75001 6.75 6.75L6.75 6.18869C6.75 5.63821 6.75 5.20974 6.77808 4.86605C6.80659 4.51708 6.86529 4.23355 6.99524 3.97852C7.21095 3.55516 7.55516 3.21095 7.97852 2.99524C8.23355 2.86529 8.51708 2.80659 8.86605 2.77808C9.20974 2.75 9.6382 2.75 10.1887 2.75L13.8113 2.75C14.3618 2.75 14.7903 2.75 15.134 2.77808C15.4829 2.80659 15.7665 2.86529 16.0215 2.99524C16.4448 3.21095 16.789 3.55516 17.0048 3.97852C17.1347 4.23355 17.1934 4.51708 17.2219 4.86605C17.25 5.20974 17.25 5.6382 17.25 6.18868V6.75C18.0616 6.75001 18.6882 6.75064 19.1908 6.7917C19.7065 6.83384 20.1135 6.91979 20.4755 7.10423C21.087 7.41582 21.5842 7.913 21.8958 8.52453C22.0802 8.88651 22.1662 9.29353 22.2083 9.80925C22.25 10.3197 22.25 10.9581 22.25 11.7883V13.2115C22.25 14.0418 22.25 14.6803 22.2083 15.1908C22.1662 15.7065 22.0802 16.1135 21.8958 16.4755C21.5842 17.087 21.087 17.5842 20.4755 17.8958C20.1135 18.0802 19.7065 18.1662 19.1908 18.2083C18.6882 18.2494 18.0616 18.25 17.25 18.25V19C17.25 20.2426 16.2426 21.25 15 21.25H9C7.75736 21.25 6.75 20.2426 6.75 19V18.25C5.93838 18.25 5.31177 18.2494 4.80925 18.2083C4.29353 18.1662 3.88652 18.0802 3.52453 17.8958C2.913 17.5842 2.41582 17.087 2.10423 16.4755C1.91979 16.1135 1.83384 15.7065 1.7917 15.1908C1.75 14.6803 1.75 14.0419 1.75 13.2115ZM16.75 6.75V6.2C16.75 5.63582 16.7498 5.22772 16.7236 4.90676C16.6976 4.58872 16.6473 4.37831 16.5593 4.20552C16.3915 3.87623 16.1238 3.60852 15.7945 3.44074C15.6217 3.3527 15.4113 3.3024 15.0932 3.27642C14.7723 3.25019 14.3642 3.25 13.8 3.25L10.2 3.25C9.63582 3.25 9.22772 3.25019 8.90676 3.27642C8.58872 3.3024 8.37831 3.3527 8.20552 3.44074C7.87623 3.60852 7.60852 3.87623 7.44074 4.20552C7.35269 4.37831 7.3024 4.58872 7.27642 4.90676C7.25019 5.22772 7.25 5.63582 7.25 6.2L7.25 6.75L16.75 6.75ZM16.75 16.2C16.75 15.6358 16.7498 15.2277 16.7236 14.9068C16.6976 14.5887 16.6473 14.3783 16.5593 14.2055C16.3915 13.8762 16.1238 13.6085 15.7945 13.4407C15.6217 13.3527 15.4113 13.3024 15.0932 13.2764C14.7723 13.2502 14.3642 13.25 13.8 13.25L10.2 13.25C9.63582 13.25 9.22773 13.2502 8.90676 13.2764C8.58872 13.3024 8.37831 13.3527 8.20552 13.4407C7.87623 13.6085 7.60852 13.8762 7.44074 14.2055C7.3527 14.3783 7.3024 14.5887 7.27642 14.9068C7.2502 15.2277 7.25 15.6358 7.25 16.2L7.25025 18.25L7.25 19C7.25 19.9665 8.0335 20.75 9 20.75H15C15.9665 20.75 16.75 19.9665 16.75 19V16.2ZM5 10.5C5.27614 10.5 5.5 10.2761 5.5 10C5.5 9.72386 5.27614 9.5 5 9.5C4.72386 9.5 4.5 9.72386 4.5 10C4.5 10.2761 4.72386 10.5 5 10.5Z" fill="black"/>
</svg>
