<svg width="24" height="24" viewBox="0 0 24 24" fill="none" xmlns="http://www.w3.org/2000/svg">
<path fill-rule="evenodd" clip-rule="evenodd" d="M2.3 1L2.28405 1H2.28399C2.15782 0.999987 2.03495 0.999974 1.93089 1.00848C1.81659 1.01781 1.68173 1.03985 1.54601 1.109C1.35785 1.20487 1.20487 1.35785 1.109 1.54601C1.03985 1.68173 1.01781 1.81659 1.00848 1.93089C0.999974 2.03495 0.999987 2.15782 1 2.28399V2.28405L1 2.3V9.7L1 9.71595V9.71601C0.999987 9.84218 0.999974 9.96506 1.00848 10.0691C1.01781 10.1834 1.03985 10.3183 1.109 10.454C1.20487 10.6422 1.35785 10.7951 1.54601 10.891C1.68173 10.9602 1.81659 10.9822 1.93089 10.9915C2.03494 11 2.1578 11 2.28395 11H2.28397H2.28399H2.28405L2.3 11H9.7L9.71596 11H9.71602H9.71604H9.71606C9.84221 11 9.96507 11 10.0691 10.9915C10.1834 10.9822 10.3183 10.9602 10.454 10.891C10.6422 10.7951 10.7951 10.6422 10.891 10.454C10.9602 10.3183 10.9822 10.1834 10.9915 10.0691C11 9.96507 11 9.84221 11 9.71606V9.71604V9.71602V9.71596L11 9.7V2.3L11 2.28405V2.28399V2.28397V2.28395C11 2.1578 11 2.03494 10.9915 1.93089C10.9822 1.81659 10.9602 1.68173 10.891 1.54601C10.7951 1.35785 10.6422 1.20487 10.454 1.109C10.3183 1.03985 10.1834 1.01781 10.0691 1.00848C9.96506 0.999974 9.84218 0.999987 9.71601 1H9.71595L9.7 1H2.3ZM2.00516 2.01232L2.00573 2.00573L2.01232 2.00516C2.07061 2.00039 2.15174 2 2.3 2H9.7C9.84827 2 9.92939 2.00039 9.98769 2.00516L9.99428 2.00573L9.99485 2.01232C9.99961 2.07061 10 2.15174 10 2.3V9.7C10 9.84827 9.99961 9.92939 9.99485 9.98769L9.99428 9.99428L9.98769 9.99485C9.92939 9.99961 9.84827 10 9.7 10H2.3C2.15174 10 2.07061 9.99961 2.01232 9.99485L2.00573 9.99428L2.00516 9.98769C2.00039 9.92939 2 9.84827 2 9.7V2.3C2 2.15174 2.00039 2.07061 2.00516 2.01232ZM14.3 1L14.2841 1H14.284C14.1578 0.999987 14.035 0.999974 13.9309 1.00848C13.8166 1.01781 13.6817 1.03985 13.546 1.109C13.3579 1.20487 13.2049 1.35785 13.109 1.54601C13.0398 1.68173 13.0178 1.81659 13.0085 1.93089C13 2.03494 13 2.1578 13 2.28396V2.28398V2.284V2.28405L13 2.3V9.7L13 9.71595V9.71601V9.71603V9.71605C13 9.8422 13 9.96507 13.0085 10.0691C13.0178 10.1834 13.0398 10.3183 13.109 10.454C13.2049 10.6422 13.3579 10.7951 13.546 10.891C13.6817 10.9602 13.8166 10.9822 13.9309 10.9915C14.0349 11 14.1578 11 14.284 11H14.284H14.284H14.284L14.3 11H21.7L21.716 11H21.716H21.716H21.7161C21.8422 11 21.9651 11 22.0691 10.9915C22.1834 10.9822 22.3183 10.9602 22.454 10.891C22.6422 10.7951 22.7951 10.6422 22.891 10.454C22.9602 10.3183 22.9822 10.1834 22.9915 10.0691C23 9.96506 23 9.84218 23 9.71601V9.716V9.71598V9.71596L23 9.7V2.3L23 2.28405V2.28403V2.28401V2.28399C23 2.15782 23 2.03495 22.9915 1.93089C22.9822 1.81659 22.9602 1.68173 22.891 1.54601C22.7951 1.35785 22.6422 1.20487 22.454 1.109C22.3183 1.03985 22.1834 1.01781 22.0691 1.00848C21.9651 0.999974 21.8422 0.999987 21.716 1H21.716L21.7 1H14.3ZM14.0052 2.01232L14.0057 2.00573L14.0123 2.00516C14.0706 2.00039 14.1517 2 14.3 2H21.7C21.8483 2 21.9294 2.00039 21.9877 2.00516L21.9943 2.00573L21.9949 2.01232C21.9996 2.07061 22 2.15174 22 2.3V9.7C22 9.84827 21.9996 9.92939 21.9949 9.98769L21.9943 9.99428L21.9877 9.99485C21.9294 9.99961 21.8483 10 21.7 10H14.3C14.1517 10 14.0706 9.99961 14.0123 9.99485L14.0057 9.99428L14.0052 9.98769C14.0004 9.92939 14 9.84827 14 9.7V2.3C14 2.15174 14.0004 2.07061 14.0052 2.01232ZM2.28405 13L2.3 13H9.7L9.71595 13H9.71601H9.71603C9.84219 13 9.96506 13 10.0691 13.0085C10.1834 13.0178 10.3183 13.0398 10.454 13.109C10.6422 13.2049 10.7951 13.3579 10.891 13.546C10.9602 13.6817 10.9822 13.8166 10.9915 13.9309C11 14.0349 11 14.1578 11 14.284V14.284V14.284L11 14.3V21.7L11 21.716V21.716V21.716C11 21.8422 11 21.9651 10.9915 22.0691C10.9822 22.1834 10.9602 22.3183 10.891 22.454C10.7951 22.6422 10.6422 22.7951 10.454 22.891C10.3183 22.9602 10.1834 22.9822 10.0691 22.9915C9.96505 23 9.84217 23 9.716 23H9.71598H9.71596L9.7 23H2.3L2.28405 23H2.28403H2.28401C2.15783 23 2.03496 23 1.93089 22.9915C1.81659 22.9822 1.68173 22.9602 1.54601 22.891C1.35785 22.7951 1.20487 22.6422 1.109 22.454C1.03985 22.3183 1.01781 22.1834 1.00848 22.0691C0.999974 21.9651 0.999987 21.8422 1 21.716V21.716L1 21.7V14.3L1 14.2841V14.284C0.999987 14.1578 0.999974 14.035 1.00848 13.9309C1.01781 13.8166 1.03985 13.6817 1.109 13.546C1.20487 13.3579 1.35785 13.2049 1.54601 13.109C1.68173 13.0398 1.81659 13.0178 1.93089 13.0085C2.03495 13 2.15781 13 2.28398 13H2.284H2.28405ZM2.00573 14.0057L2.00516 14.0123C2.00039 14.0706 2 14.1517 2 14.3V21.7C2 21.8483 2.00039 21.9294 2.00516 21.9877L2.00573 21.9943L2.01232 21.9949C2.07061 21.9996 2.15174 22 2.3 22H9.7C9.84827 22 9.92939 21.9996 9.98769 21.9949L9.99428 21.9943L9.99485 21.9877C9.99961 21.9294 10 21.8483 10 21.7V14.3C10 14.1517 9.99961 14.0706 9.99485 14.0123L9.99428 14.0057L9.98769 14.0052C9.92939 14.0004 9.84827 14 9.7 14H2.3C2.15174 14 2.07061 14.0004 2.01232 14.0052L2.00573 14.0057ZM14.3 13L14.2841 13H14.284C14.1578 13 14.035 13 13.9309 13.0085C13.8166 13.0178 13.6817 13.0398 13.546 13.109C13.3579 13.2049 13.2049 13.3579 13.109 13.546C13.0398 13.6817 13.0178 13.8166 13.0085 13.9309C13 14.035 13 14.1578 13 14.284V14.2841L13 14.3V21.7L13 21.716V21.716C13 21.8422 13 21.9651 13.0085 22.0691C13.0178 22.1834 13.0398 22.3183 13.109 22.454C13.2049 22.6422 13.3579 22.7951 13.546 22.891C13.6817 22.9602 13.8166 22.9822 13.9309 22.9915C14.035 23 14.1578 23 14.284 23H14.284L14.3 23H21.7L21.716 23H21.716C21.8422 23 21.965 23 22.0691 22.9915C22.1834 22.9822 22.3183 22.9602 22.454 22.891C22.6422 22.7951 22.7951 22.6422 22.891 22.454C22.9602 22.3183 22.9822 22.1834 22.9915 22.0691C23 21.965 23 21.8422 23 21.716V21.716L23 21.7V14.3L23 14.284V14.284C23 14.1578 23 14.035 22.9915 13.9309C22.9822 13.8166 22.9602 13.6817 22.891 13.546C22.7951 13.3579 22.6422 13.2049 22.454 13.109C22.3183 13.0398 22.1834 13.0178 22.0691 13.0085C21.9651 13 21.8422 13 21.716 13H21.716L21.7 13H14.3ZM14.0052 14.0123L14.0057 14.0057L14.0123 14.0052C14.0706 14.0004 14.1517 14 14.3 14H21.7C21.8483 14 21.9294 14.0004 21.9877 14.0052L21.9943 14.0057L21.9949 14.0123C21.9996 14.0706 22 14.1517 22 14.3V21.7C22 21.8483 21.9996 21.9294 21.9949 21.9877L21.9943 21.9943L21.9877 21.9949C21.9294 21.9996 21.8483 22 21.7 22H14.3C14.1517 22 14.0706 21.9996 14.0123 21.9949L14.0057 21.9943L14.0052 21.9877C14.0004 21.9294 14 21.8483 14 21.7V14.3C14 14.1517 14.0004 14.0706 14.0052 14.0123Z" fill="black"/>
</svg>
