<svg width="24" height="24" viewBox="0 0 24 24" fill="none" xmlns="http://www.w3.org/2000/svg">
<path fill-rule="evenodd" clip-rule="evenodd" d="M2.30001 0.500012L2.27687 0.500006C2.15776 0.499961 2.0155 0.499906 1.89018 0.510145C1.74496 0.52201 1.53697 0.552453 1.31903 0.663502C1.03678 0.807312 0.807312 1.03678 0.663502 1.31903C0.552453 1.53697 0.52201 1.74496 0.510145 1.89018C0.499906 2.0155 0.499961 2.15776 0.500006 2.27687L0.500012 2.30001V9.20001L0.500006 9.22315C0.499961 9.34227 0.499906 9.48452 0.510145 9.60984C0.52201 9.75506 0.552453 9.96305 0.663502 10.181C0.807312 10.4632 1.03678 10.6927 1.31903 10.8365C1.53697 10.9476 1.74496 10.978 1.89018 10.9899C2.0155 11.0001 2.15777 11.0001 2.27688 11L2.30001 11H9.20001L9.22314 11C9.34226 11.0001 9.48452 11.0001 9.60984 10.9899C9.75506 10.978 9.96305 10.9476 10.181 10.8365C10.4632 10.6927 10.6927 10.4632 10.8365 10.181C10.9476 9.96305 10.978 9.75506 10.9899 9.60984C11.0001 9.48452 11.0001 9.34226 11 9.22314L11 9.20001V2.30001L11 2.27688C11.0001 2.15777 11.0001 2.0155 10.9899 1.89018C10.978 1.74496 10.9476 1.53697 10.8365 1.31903C10.6927 1.03678 10.4632 0.807312 10.181 0.663502C9.96305 0.552453 9.75506 0.52201 9.60984 0.510145C9.48452 0.499906 9.34227 0.499961 9.22315 0.500006L9.20001 0.500012H2.30001ZM2.50001 9.00001V2.50001H9.00001V9.00001H2.50001ZM14.8 0.500012L14.7769 0.500006C14.6578 0.499961 14.5155 0.499906 14.3902 0.510145C14.245 0.52201 14.037 0.552453 13.819 0.663502C13.5368 0.807312 13.3073 1.03678 13.1635 1.31903C13.0525 1.53697 13.022 1.74496 13.0101 1.89018C12.9999 2.01549 13 2.15773 13 2.27684V2.27687L13 2.30001V9.20001L13 9.22315V9.22318C13 9.34229 12.9999 9.48453 13.0101 9.60984C13.022 9.75506 13.0525 9.96305 13.1635 10.181C13.3073 10.4632 13.5368 10.6927 13.819 10.8365C14.037 10.9476 14.245 10.978 14.3902 10.9899C14.5155 11.0001 14.6578 11.0001 14.7769 11L14.8 11H21.7L21.7231 11C21.8423 11.0001 21.9845 11.0001 22.1098 10.9899C22.2551 10.978 22.4631 10.9476 22.681 10.8365C22.9632 10.6927 23.1927 10.4632 23.3365 10.181C23.4476 9.96305 23.478 9.75506 23.4899 9.60984C23.5001 9.48454 23.5001 9.34231 23.5 9.22321V9.22319V9.22316V9.22314L23.5 9.20001V2.30001L23.5 2.27688V2.27686V2.27684V2.27682C23.5001 2.15771 23.5001 2.01548 23.4899 1.89018C23.478 1.74496 23.4476 1.53697 23.3365 1.31903C23.1927 1.03678 22.9632 0.807312 22.681 0.663502C22.4631 0.552453 22.2551 0.52201 22.1098 0.510145C21.9845 0.499906 21.8423 0.499961 21.7232 0.500006L21.7 0.500012H14.8ZM15 9.00001V2.50001H21.5V9.00001H15ZM2.27687 13L2.30001 13H9.20001L9.22315 13H9.22318C9.34229 13 9.48453 12.9999 9.60984 13.0101C9.75506 13.022 9.96305 13.0525 10.181 13.1635C10.4632 13.3073 10.6927 13.5368 10.8365 13.819C10.9476 14.037 10.978 14.245 10.9899 14.3902C11.0001 14.5155 11.0001 14.6578 11 14.7769L11 14.8V21.7L11 21.7231C11.0001 21.8423 11.0001 21.9845 10.9899 22.1098C10.978 22.2551 10.9476 22.4631 10.8365 22.681C10.6927 22.9632 10.4632 23.1927 10.181 23.3365C9.96305 23.4476 9.75506 23.478 9.60984 23.4899C9.48454 23.5001 9.34229 23.5001 9.22319 23.5H9.22316H9.22314L9.20001 23.5H2.30001L2.27688 23.5H2.27686H2.27684C2.15773 23.5001 2.01549 23.5001 1.89018 23.4899C1.74496 23.478 1.53697 23.4476 1.31903 23.3365C1.03678 23.1927 0.807312 22.9632 0.663502 22.681C0.552453 22.4631 0.52201 22.2551 0.510145 22.1098C0.499906 21.9845 0.499961 21.8423 0.500006 21.7232L0.500012 21.7V14.8L0.500006 14.7769C0.499961 14.6578 0.499906 14.5155 0.510145 14.3902C0.52201 14.245 0.552453 14.037 0.663502 13.819C0.807312 13.5368 1.03678 13.3073 1.31903 13.1635C1.53697 13.0525 1.74496 13.022 1.89018 13.0101C2.01549 12.9999 2.15773 13 2.27684 13H2.27687ZM2.50001 15V21.5H9.00001V15H2.50001ZM14.8 13L14.7769 13H14.7768C14.6577 13 14.5155 12.9999 14.3902 13.0101C14.245 13.022 14.037 13.0525 13.819 13.1635C13.5368 13.3073 13.3073 13.5368 13.1635 13.819C13.0525 14.037 13.022 14.245 13.0101 14.3902C12.9999 14.5155 13 14.6577 13 14.7768V14.7769L13 14.8V21.7L13 21.7232V21.7232C13 21.8423 12.9999 21.9845 13.0101 22.1098C13.022 22.2551 13.0525 22.4631 13.1635 22.681C13.3073 22.9632 13.5368 23.1927 13.819 23.3365C14.037 23.4476 14.245 23.478 14.3902 23.4899C14.5155 23.5001 14.6577 23.5001 14.7769 23.5H14.7769L14.8 23.5H21.7L21.7231 23.5H21.7232C21.8423 23.5001 21.9845 23.5001 22.1098 23.4899C22.2551 23.478 22.4631 23.4476 22.681 23.3365C22.9632 23.1927 23.1927 22.9632 23.3365 22.681C23.4476 22.4631 23.478 22.2551 23.4899 22.1098C23.5001 21.9845 23.5001 21.8423 23.5 21.7232V21.7231L23.5 21.7V14.8L23.5 14.7769V14.7769C23.5001 14.6577 23.5001 14.5155 23.4899 14.3902C23.478 14.245 23.4476 14.037 23.3365 13.819C23.1927 13.5368 22.9632 13.3073 22.681 13.1635C22.4631 13.0525 22.2551 13.022 22.1098 13.0101C21.9845 12.9999 21.8423 13 21.7232 13H21.7232L21.7 13H14.8ZM15 21.5V15H21.5V21.5H15Z" fill="black"/>
</svg>
