<svg width="24" height="24" viewBox="0 0 24 24" fill="none" xmlns="http://www.w3.org/2000/svg">
<path fill-rule="evenodd" clip-rule="evenodd" d="M14.3 1.25H14.2904H14.2904C14.1586 1.25 14.0449 1.24999 13.9512 1.25764C13.8524 1.26572 13.7541 1.28355 13.6595 1.33175C13.5184 1.40365 13.4037 1.51839 13.3317 1.65951C13.2835 1.7541 13.2657 1.85241 13.2576 1.95124C13.25 2.04487 13.25 2.15853 13.25 2.29029V2.29036V2.3V9.7V9.70964V9.70971C13.25 9.84147 13.25 9.95513 13.2576 10.0488C13.2657 10.1476 13.2835 10.2459 13.3317 10.3405C13.4037 10.4816 13.5184 10.5963 13.6595 10.6683C13.7541 10.7165 13.8524 10.7343 13.9512 10.7424C14.0449 10.75 14.1586 10.75 14.2904 10.75H14.3H21.7H21.7096C21.8414 10.75 21.9551 10.75 22.0488 10.7424C22.1476 10.7343 22.2459 10.7165 22.3405 10.6683C22.4816 10.5963 22.5963 10.4816 22.6683 10.3405C22.7165 10.2459 22.7343 10.1476 22.7424 10.0488C22.75 9.95511 22.75 9.84143 22.75 9.70964V9.7V2.3V2.29036C22.75 2.15857 22.75 2.04489 22.7424 1.95124C22.7343 1.85241 22.7165 1.7541 22.6683 1.65951C22.5963 1.51839 22.4816 1.40365 22.3405 1.33175C22.2459 1.28355 22.1476 1.26572 22.0488 1.25764C21.9551 1.24999 21.8414 1.25 21.7096 1.25H21.7H14.3ZM13.8865 1.77725C13.8989 1.77095 13.924 1.76153 13.992 1.75598C14.0628 1.7502 14.1559 1.75 14.3 1.75H21.7C21.8441 1.75 21.9372 1.7502 22.008 1.75598C22.076 1.76153 22.1011 1.77095 22.1135 1.77725C22.1605 1.80122 22.1988 1.83946 22.2228 1.8865C22.229 1.89886 22.2385 1.92404 22.244 1.99196C22.2498 2.06279 22.25 2.15586 22.25 2.3V9.7C22.25 9.84414 22.2498 9.93721 22.244 10.008C22.2385 10.076 22.229 10.1011 22.2228 10.1135C22.1988 10.1605 22.1605 10.1988 22.1135 10.2228C22.1011 10.229 22.076 10.2385 22.008 10.244C21.9372 10.2498 21.8441 10.25 21.7 10.25H14.3C14.1559 10.25 14.0628 10.2498 13.992 10.244C13.924 10.2385 13.8989 10.229 13.8865 10.2228C13.8395 10.1988 13.8012 10.1605 13.7772 10.1135C13.771 10.1011 13.7615 10.076 13.756 10.008C13.7502 9.93721 13.75 9.84414 13.75 9.7V2.3C13.75 2.15586 13.7502 2.06279 13.756 1.99196C13.7615 1.92404 13.771 1.89886 13.7772 1.8865C13.8012 1.83946 13.8395 1.80122 13.8865 1.77725ZM2.29036 1.25H2.3H9.7H9.70964H9.70965C9.84143 1.25 9.95512 1.24999 10.0488 1.25764C10.1476 1.26572 10.2459 1.28355 10.3405 1.33175C10.4816 1.40365 10.5963 1.51839 10.6683 1.65951C10.7165 1.7541 10.7343 1.85241 10.7424 1.95124C10.75 2.04489 10.75 2.15857 10.75 2.29036V2.3V9.7V9.70964C10.75 9.84143 10.75 9.95511 10.7424 10.0488C10.7343 10.1476 10.7165 10.2459 10.6683 10.3405C10.5963 10.4816 10.4816 10.5963 10.3405 10.6683C10.2459 10.7165 10.1476 10.7343 10.0488 10.7424C9.95512 10.75 9.84143 10.75 9.70964 10.75H9.7H2.3H2.29036C2.15857 10.75 2.04489 10.75 1.95124 10.7424C1.85241 10.7343 1.7541 10.7165 1.65951 10.6683C1.51839 10.5963 1.40365 10.4816 1.33175 10.3405C1.28355 10.2459 1.26572 10.1476 1.25764 10.0488C1.24999 9.95512 1.25 9.84143 1.25 9.70965V9.70964V9.7V2.3V2.29036V2.29035C1.25 2.15857 1.24999 2.04488 1.25764 1.95124C1.26572 1.85241 1.28355 1.7541 1.33175 1.65951C1.40365 1.51839 1.51839 1.40365 1.65951 1.33175C1.7541 1.28355 1.85241 1.26572 1.95124 1.25764C2.04488 1.24999 2.15857 1.25 2.29035 1.25H2.29036ZM2.29036 13.25H2.3H9.7H9.70964H9.70971C9.84147 13.25 9.95513 13.25 10.0488 13.2576C10.1476 13.2657 10.2459 13.2835 10.3405 13.3317C10.4816 13.4037 10.5963 13.5184 10.6683 13.6595C10.7165 13.7541 10.7343 13.8524 10.7424 13.9512C10.75 14.0449 10.75 14.1586 10.75 14.2904V14.3V21.7V21.7096C10.75 21.8414 10.75 21.9551 10.7424 22.0488C10.7343 22.1476 10.7165 22.2459 10.6683 22.3405C10.5963 22.4816 10.4816 22.5963 10.3405 22.6683C10.2459 22.7165 10.1476 22.7343 10.0488 22.7424C9.95512 22.75 9.84143 22.75 9.70964 22.75H9.7H2.3H2.29036C2.15857 22.75 2.04489 22.75 1.95124 22.7424C1.85241 22.7343 1.7541 22.7165 1.65951 22.6683C1.51839 22.5963 1.40365 22.4816 1.33175 22.3405C1.28355 22.2459 1.26572 22.1476 1.25764 22.0488C1.24999 21.9551 1.25 21.8414 1.25 21.7096V21.7V14.3V14.2904V14.2904C1.25 14.1586 1.24999 14.0449 1.25764 13.9512C1.26572 13.8524 1.28355 13.7541 1.33175 13.6595C1.40365 13.5184 1.51839 13.4037 1.65951 13.3317C1.7541 13.2835 1.85241 13.2657 1.95124 13.2576C2.04487 13.25 2.15853 13.25 2.29029 13.25H2.29036ZM14.3 13.25H14.2904H14.2903C14.1585 13.25 14.0449 13.25 13.9512 13.2576C13.8524 13.2657 13.7541 13.2835 13.6595 13.3317C13.5184 13.4037 13.4037 13.5184 13.3317 13.6595C13.2835 13.7541 13.2657 13.8524 13.2576 13.9512C13.25 14.0449 13.25 14.1585 13.25 14.2903V14.2904V14.3V21.7V21.7096V21.7097C13.25 21.8415 13.25 21.9551 13.2576 22.0488C13.2657 22.1476 13.2835 22.2459 13.3317 22.3405C13.4037 22.4816 13.5184 22.5963 13.6595 22.6683C13.7541 22.7165 13.8524 22.7343 13.9512 22.7424C14.0449 22.75 14.1586 22.75 14.2904 22.75H14.3H21.7H21.7096C21.8414 22.75 21.9551 22.75 22.0488 22.7424C22.1476 22.7343 22.2459 22.7165 22.3405 22.6683C22.4816 22.5963 22.5963 22.4816 22.6683 22.3405C22.7165 22.2459 22.7343 22.1476 22.7424 22.0488C22.75 21.9551 22.75 21.8414 22.75 21.7096V21.7V14.3V14.2904C22.75 14.1586 22.75 14.0449 22.7424 13.9512C22.7343 13.8524 22.7165 13.7541 22.6683 13.6595C22.5963 13.5184 22.4816 13.4037 22.3405 13.3317C22.2459 13.2835 22.1476 13.2657 22.0488 13.2576C21.9551 13.25 21.8415 13.25 21.7097 13.25H21.7096H21.7H14.3Z" fill="black"/>
</svg>
