<svg width="24" height="24" viewBox="0 0 24 24" fill="none" xmlns="http://www.w3.org/2000/svg">
<path fill-rule="evenodd" clip-rule="evenodd" d="M2.30002 0.250019L2.27489 0.25001C2.15817 0.249946 2.00592 0.249864 1.86983 0.260982C1.70915 0.27411 1.4646 0.308759 1.20554 0.440758C0.876252 0.608536 0.608536 0.876252 0.440758 1.20554C0.308759 1.4646 0.27411 1.70915 0.260982 1.86983C0.249864 2.00592 0.249946 2.15817 0.25001 2.27489L0.250019 2.30002V9.20002L0.25001 9.22515C0.249946 9.34186 0.249864 9.49412 0.260982 9.63021C0.27411 9.79088 0.308759 10.0354 0.440758 10.2945C0.608536 10.6238 0.876252 10.8915 1.20554 11.0593C1.4646 11.1913 1.70915 11.2259 1.86983 11.2391C2.00591 11.2502 2.15816 11.2501 2.27487 11.25H2.2749L2.30002 11.25H9.20002L9.22514 11.25H9.22517C9.34188 11.2501 9.49413 11.2502 9.63021 11.2391C9.79088 11.2259 10.0354 11.1913 10.2945 11.0593C10.6238 10.8915 10.8915 10.6238 11.0593 10.2945C11.1913 10.0354 11.2259 9.79088 11.2391 9.63021C11.2502 9.49413 11.2501 9.34188 11.25 9.22517V9.22514L11.25 9.20002V2.30002L11.25 2.2749V2.27487C11.2501 2.15816 11.2502 2.00591 11.2391 1.86983C11.2259 1.70915 11.1913 1.4646 11.0593 1.20554C10.8915 0.876252 10.6238 0.608536 10.2945 0.440758C10.0354 0.308759 9.79088 0.27411 9.63021 0.260982C9.49412 0.249864 9.34186 0.249946 9.22515 0.25001L9.20002 0.250019H2.30002ZM2.75002 8.75002V2.75002H8.75002V8.75002H2.75002ZM14.8 0.250019L14.7749 0.25001C14.6582 0.249946 14.5059 0.249864 14.3698 0.260982C14.2092 0.27411 13.9646 0.308759 13.7055 0.440758C13.3763 0.608536 13.1085 0.876252 12.9408 1.20554C12.8088 1.4646 12.7741 1.70915 12.761 1.86983C12.7499 2.00591 12.7499 2.15815 12.75 2.27486V2.27489L12.75 2.30002V9.20002L12.75 9.22515V9.22517C12.7499 9.34189 12.7499 9.49413 12.761 9.63021C12.7741 9.79088 12.8088 10.0354 12.9408 10.2945C13.1085 10.6238 13.3763 10.8915 13.7055 11.0593C13.9646 11.1913 14.2092 11.2259 14.3698 11.2391C14.5059 11.2502 14.6582 11.2501 14.7749 11.25H14.7749L14.8 11.25H21.7L21.7251 11.25H21.7252C21.8419 11.2501 21.9941 11.2502 22.1302 11.2391C22.2909 11.2259 22.5354 11.1913 22.7945 11.0593C23.1238 10.8915 23.3915 10.6238 23.5593 10.2945C23.6913 10.0354 23.7259 9.79088 23.7391 9.63021C23.7502 9.49414 23.7501 9.34191 23.75 9.2252V9.22514L23.75 9.20002V2.30002L23.75 2.2749V2.27484C23.7501 2.15813 23.7502 2.0059 23.7391 1.86983C23.7259 1.70915 23.6913 1.4646 23.5593 1.20554C23.3915 0.876252 23.1238 0.608536 22.7945 0.440758C22.5354 0.308759 22.2909 0.27411 22.1302 0.260982C21.9941 0.249864 21.8419 0.249946 21.7251 0.25001L21.7 0.250019H14.8ZM15.25 8.75002V2.75002H21.25V8.75002H15.25ZM2.27489 12.75L2.30002 12.75H9.20002L9.22515 12.75H9.22517C9.34189 12.7499 9.49413 12.7499 9.63021 12.761C9.79088 12.7741 10.0354 12.8088 10.2945 12.9408C10.6238 13.1085 10.8915 13.3763 11.0593 13.7055C11.1913 13.9646 11.2259 14.2092 11.2391 14.3698C11.2502 14.5059 11.2501 14.6582 11.25 14.7749V14.7749L11.25 14.8V21.7L11.25 21.7251V21.7252C11.2501 21.8419 11.2502 21.9941 11.2391 22.1302C11.2259 22.2909 11.1913 22.5354 11.0593 22.7945C10.8915 23.1238 10.6238 23.3915 10.2945 23.5593C10.0354 23.6913 9.79088 23.7259 9.63021 23.7391C9.49414 23.7502 9.34191 23.7501 9.2252 23.75H9.22514L9.20002 23.75H2.30002L2.2749 23.75H2.27484C2.15813 23.7501 2.0059 23.7502 1.86983 23.7391C1.70915 23.7259 1.4646 23.6913 1.20554 23.5593C0.876252 23.3915 0.608536 23.1238 0.440758 22.7945C0.308759 22.5354 0.27411 22.2909 0.260982 22.1302C0.249864 21.9941 0.249946 21.8419 0.25001 21.7251L0.250019 21.7V14.8L0.25001 14.7749C0.249946 14.6582 0.249864 14.5059 0.260982 14.3698C0.27411 14.2092 0.308759 13.9646 0.440758 13.7055C0.608536 13.3763 0.876252 13.1085 1.20554 12.9408C1.4646 12.8088 1.70915 12.7741 1.86983 12.761C2.00591 12.7499 2.15815 12.7499 2.27486 12.75H2.27489ZM2.75002 15.25V21.25H8.75002V15.25H2.75002ZM14.8 12.75L14.7749 12.75H14.7749C14.6582 12.7499 14.5059 12.7499 14.3698 12.761C14.2092 12.7741 13.9646 12.8088 13.7055 12.9408C13.3763 13.1085 13.1085 13.3763 12.9408 13.7055C12.8088 13.9646 12.7741 14.2092 12.761 14.3698C12.7499 14.5059 12.7499 14.6582 12.75 14.7749V14.7749L12.75 14.8V21.7L12.75 21.7251V21.7252C12.7499 21.8419 12.7499 21.9941 12.761 22.1302C12.7741 22.2909 12.8088 22.5354 12.9408 22.7945C13.1085 23.1238 13.3763 23.3915 13.7055 23.5593C13.9646 23.6913 14.2092 23.7259 14.3698 23.7391C14.5059 23.7502 14.6581 23.7501 14.7748 23.75H14.7749L14.8 23.75H21.7L21.7251 23.75H21.7252C21.8419 23.7501 21.9941 23.7502 22.1302 23.7391C22.2909 23.7259 22.5354 23.6913 22.7945 23.5593C23.1238 23.3915 23.3915 23.1238 23.5593 22.7945C23.6913 22.5354 23.7259 22.2909 23.7391 22.1302C23.7502 21.9941 23.7501 21.8419 23.75 21.7252V21.7251L23.75 21.7V14.8L23.75 14.7749V14.7748C23.7501 14.6581 23.7502 14.5059 23.7391 14.3698C23.7259 14.2092 23.6913 13.9646 23.5593 13.7055C23.3915 13.3763 23.1238 13.1085 22.7945 12.9408C22.5354 12.8088 22.2909 12.7741 22.1302 12.761C21.9941 12.7499 21.8419 12.7499 21.7252 12.75H21.7251L21.7 12.75H14.8ZM15.25 21.25V15.25H21.25V21.25H15.25Z" fill="black"/>
</svg>
