<svg width="24" height="24" viewBox="0 0 24 24" fill="none" xmlns="http://www.w3.org/2000/svg">
<path fill-rule="evenodd" clip-rule="evenodd" d="M1.60899 2.04601C1.5 2.25992 1.5 2.53995 1.5 3.1V8.9C1.5 9.46005 1.5 9.74008 1.60899 9.95399C1.70487 10.1422 1.85785 10.2951 2.04601 10.391C2.25992 10.5 2.53995 10.5 3.1 10.5H8.9C9.46005 10.5 9.74008 10.5 9.95399 10.391C10.1422 10.2951 10.2951 10.1422 10.391 9.95399C10.5 9.74008 10.5 9.46005 10.5 8.9V3.1C10.5 2.53995 10.5 2.25992 10.391 2.04601C10.2951 1.85785 10.1422 1.70487 9.95399 1.60899C9.74008 1.5 9.46005 1.5 8.9 1.5H3.1C2.53995 1.5 2.25992 1.5 2.04601 1.60899C1.85785 1.70487 1.70487 1.85785 1.60899 2.04601ZM13.609 2.04601C13.5 2.25992 13.5 2.53995 13.5 3.1V8.9C13.5 9.46005 13.5 9.74008 13.609 9.95399C13.7049 10.1422 13.8578 10.2951 14.046 10.391C14.2599 10.5 14.5399 10.5 15.1 10.5H20.9C21.4601 10.5 21.7401 10.5 21.954 10.391C22.1422 10.2951 22.2951 10.1422 22.391 9.95399C22.5 9.74008 22.5 9.46005 22.5 8.9V3.1C22.5 2.53995 22.5 2.25992 22.391 2.04601C22.2951 1.85785 22.1422 1.70487 21.954 1.60899C21.7401 1.5 21.4601 1.5 20.9 1.5H15.1C14.5399 1.5 14.2599 1.5 14.046 1.60899C13.8578 1.70487 13.7049 1.85785 13.609 2.04601ZM1.5 15.1C1.5 14.5399 1.5 14.2599 1.60899 14.046C1.70487 13.8578 1.85785 13.7049 2.04601 13.609C2.25992 13.5 2.53995 13.5 3.1 13.5H8.9C9.46005 13.5 9.74008 13.5 9.95399 13.609C10.1422 13.7049 10.2951 13.8578 10.391 14.046C10.5 14.2599 10.5 14.5399 10.5 15.1V20.9C10.5 21.4601 10.5 21.7401 10.391 21.954C10.2951 22.1422 10.1422 22.2951 9.95399 22.391C9.74008 22.5 9.46005 22.5 8.9 22.5H3.1C2.53995 22.5 2.25992 22.5 2.04601 22.391C1.85785 22.2951 1.70487 22.1422 1.60899 21.954C1.5 21.7401 1.5 21.4601 1.5 20.9V15.1ZM13.609 14.046C13.5 14.2599 13.5 14.5399 13.5 15.1V20.9C13.5 21.4601 13.5 21.7401 13.609 21.954C13.7049 22.1422 13.8578 22.2951 14.046 22.391C14.2599 22.5 14.5399 22.5 15.1 22.5H20.9C21.4601 22.5 21.7401 22.5 21.954 22.391C22.1422 22.2951 22.2951 22.1422 22.391 21.954C22.5 21.7401 22.5 21.4601 22.5 20.9V15.1C22.5 14.5399 22.5 14.2599 22.391 14.046C22.2951 13.8578 22.1422 13.7049 21.954 13.609C21.7401 13.5 21.4601 13.5 20.9 13.5H15.1C14.5399 13.5 14.2599 13.5 14.046 13.609C13.8578 13.7049 13.7049 13.8578 13.609 14.046Z" fill="black"/>
</svg>
