<svg width="26" height="26" viewBox="0 0 26 26" fill="none" xmlns="http://www.w3.org/2000/svg">
<path d="M9.81339 13.6495C9.91271 13.6495 10.0957 13.6476 10.2626 13.6612C10.4272 13.6747 10.6932 13.7099 10.9882 13.836L11.1171 13.8956L11.2724 13.9835C11.6263 14.2007 11.9148 14.5118 12.1044 14.8839C12.2802 15.229 12.3234 15.5492 12.3388 15.7374C12.3524 15.9044 12.3515 16.0872 12.3515 16.1866V22.5479C12.3515 22.6473 12.3524 22.8302 12.3388 22.9972C12.3234 23.1854 12.2803 23.5064 12.1044 23.8517C11.8877 24.2767 11.5421 24.6223 11.1171 24.839C10.7718 25.0149 10.4508 25.058 10.2626 25.0733C10.0956 25.087 9.91272 25.086 9.81339 25.086H3.45206C3.35265 25.086 3.16982 25.087 3.00284 25.0733C2.81468 25.058 2.49449 25.0148 2.14932 24.839C1.72412 24.6223 1.3778 24.2768 1.16104 23.8517C0.985158 23.5065 0.942059 23.1854 0.926668 22.9972C0.91306 22.8302 0.914946 22.6473 0.914949 22.5479V16.1866C0.914947 16.0872 0.91304 15.9044 0.926668 15.7374C0.942046 15.5492 0.985209 15.2291 1.16104 14.8839L1.24893 14.7286C1.46617 14.3744 1.77704 14.0853 2.14932 13.8956L2.27725 13.836C2.57246 13.7097 2.83815 13.6747 3.00284 13.6612C3.16983 13.6476 3.35265 13.6495 3.45206 13.6495H9.81339Z" fill="black"/>
<path d="M22.5478 13.6495C22.6471 13.6495 22.8301 13.6476 22.997 13.6612C23.1616 13.6747 23.4276 13.7099 23.7226 13.836L23.8515 13.8956L24.0067 13.9835C24.3607 14.2007 24.6492 14.5118 24.8388 14.8839C25.0146 15.229 25.0578 15.5492 25.0732 15.7374C25.0868 15.9044 25.0859 16.0872 25.0858 16.1866V22.5479C25.0858 22.6473 25.0868 22.8302 25.0732 22.9972C25.0578 23.1854 25.0147 23.5064 24.8388 23.8517C24.6221 24.2766 24.2765 24.6223 23.8515 24.839C23.5063 25.0149 23.1852 25.0579 22.997 25.0733C22.8301 25.0869 22.6471 25.086 22.5478 25.086H16.1864C16.087 25.086 15.9042 25.087 15.7372 25.0733C15.5491 25.058 15.2288 25.0148 14.8837 24.839C14.4585 24.6223 14.1122 24.2768 13.8954 23.8517C13.7195 23.5065 13.6764 23.1854 13.661 22.9972C13.6474 22.8302 13.6493 22.6473 13.6493 22.5479V16.1866C13.6493 16.0872 13.6474 15.9044 13.661 15.7374C13.6764 15.5492 13.7196 15.2291 13.8954 14.8839L13.9833 14.7286C14.2005 14.3744 14.5114 14.0853 14.8837 13.8956L15.0116 13.836C15.3068 13.7097 15.5725 13.6747 15.7372 13.6612C15.9042 13.6476 16.087 13.6495 16.1864 13.6495H22.5478Z" fill="black"/>
<path d="M9.81339 0.915132C9.91271 0.91513 10.0957 0.91324 10.2626 0.926851C10.4272 0.94031 10.6932 0.975508 10.9882 1.10166L11.1171 1.16123L11.2724 1.24912C11.6263 1.46632 11.9148 1.77744 12.1044 2.14951C12.2802 2.49469 12.3234 2.81486 12.3388 3.00302C12.3524 3.17 12.3515 3.35284 12.3515 3.45224V9.81357C12.3515 9.91291 12.3524 10.0958 12.3388 10.2628C12.3234 10.451 12.2803 10.772 12.1044 11.1173C11.8877 11.5423 11.5421 11.8879 11.1171 12.1046C10.7718 12.2805 10.4508 12.3236 10.2626 12.339C10.0956 12.3526 9.91272 12.3517 9.81339 12.3517H3.45206C3.35265 12.3517 3.16982 12.3526 3.00284 12.339C2.81468 12.3236 2.4945 12.2804 2.14932 12.1046C1.7241 11.8879 1.3778 11.5425 1.16104 11.1173C0.985136 10.772 0.942054 10.451 0.926668 10.2628C0.913057 10.0958 0.914947 9.9129 0.914949 9.81357V3.45224C0.914947 3.35283 0.913034 3.17001 0.926668 3.00302C0.942047 2.81486 0.985185 2.49472 1.16104 2.14951L1.24893 1.99423C1.46617 1.64001 1.77704 1.35092 2.14932 1.16123L2.27725 1.10166C2.57245 0.975351 2.83815 0.940311 3.00284 0.926851C3.16983 0.913217 3.35265 0.91513 3.45206 0.915132H9.81339Z" fill="black"/>
<path fill-rule="evenodd" clip-rule="evenodd" d="M22.5478 0.915132C22.6471 0.915129 22.8301 0.913243 22.997 0.926851C23.1616 0.940314 23.4276 0.975525 23.7226 1.10166L23.8515 1.16123L24.0067 1.24912C24.3607 1.46631 24.6492 1.77746 24.8388 2.14951C25.0146 2.49468 25.0578 2.81486 25.0732 3.00302C25.0868 3.17 25.0859 3.35284 25.0858 3.45224V9.81357C25.0858 9.91291 25.0868 10.0958 25.0732 10.2628C25.0578 10.451 25.0147 10.772 24.8388 11.1173C24.6221 11.5423 24.2765 11.8879 23.8515 12.1046C23.5063 12.2805 23.1852 12.3236 22.997 12.339C22.8301 12.3526 22.6471 12.3517 22.5478 12.3517H16.1864C16.087 12.3517 15.9042 12.3526 15.7372 12.339C15.5491 12.3236 15.2289 12.2804 14.8837 12.1046C14.4585 11.8879 14.1122 11.5425 13.8954 11.1173C13.7195 10.772 13.6764 10.451 13.661 10.2628C13.6474 10.0958 13.6493 9.9129 13.6493 9.81357V3.45224C13.6493 3.35283 13.6474 3.17001 13.661 3.00302C13.6764 2.81486 13.7195 2.49473 13.8954 2.14951L13.9833 1.99423C14.2005 1.64001 14.5114 1.35092 14.8837 1.16123L15.0116 1.10166C15.3068 0.975371 15.5725 0.94031 15.7372 0.926851C15.9042 0.913223 16.087 0.91513 16.1864 0.915132H22.5478ZM17.2489 8.75107H21.4853V4.51474H17.2489V8.75107Z" fill="black"/>
</svg>
