<svg width="24" height="24" viewBox="0 0 24 24" fill="none" xmlns="http://www.w3.org/2000/svg">
<path fill-rule="evenodd" clip-rule="evenodd" d="M0 12C0 10.142 0 9.21298 0.123117 8.43565C0.800832 4.15673 4.15673 0.800832 8.43565 0.123117C9.21298 0 10.142 0 12 0C13.858 0 14.787 0 15.5643 0.123117C19.8433 0.800832 23.1992 4.15673 23.8769 8.43565C24 9.21298 24 10.142 24 12C24 13.858 24 14.787 23.8769 15.5643C23.1992 19.8433 19.8433 23.1992 15.5643 23.8769C14.787 24 13.858 24 12 24C10.142 24 9.21298 24 8.43565 23.8769C4.15673 23.1992 0.800832 19.8433 0.123117 15.5643C0 14.787 0 13.858 0 12ZM9.23056 5.7157C10.6968 4.19221 13.1284 4.16864 14.624 5.66418C16.0994 7.13957 16.0994 9.53165 14.624 11.007L13.5726 12.0584C13.2721 12.3589 13.1218 12.604 13.038 12.8217C12.9529 13.0426 12.9125 13.2964 12.9125 13.6521C12.9125 14.2044 12.4648 14.6521 11.9125 14.6521C11.3602 14.6521 10.9125 14.2044 10.9125 13.6521C10.9125 13.1448 10.9697 12.6271 11.1716 12.1028C11.3748 11.5754 11.7011 11.1015 12.1584 10.6442L13.2098 9.59283C13.9041 8.89849 13.9041 7.77273 13.2098 7.07839C12.5055 6.37412 11.3601 6.38568 10.6702 7.10402L10.665 7.10949L10.6415 7.13352C10.45 7.33368 10.3068 7.5755 10.2228 7.84059C10.0562 8.36712 9.49422 8.65885 8.96768 8.49218C8.44115 8.3255 8.14943 7.76355 8.3161 7.23701C8.49273 6.67901 8.79524 6.16855 9.20136 5.74569L9.20662 5.74022L9.23056 5.7157ZM11.9999 18.4424C12.6903 18.4424 13.2499 17.8827 13.2499 17.1924C13.2499 16.502 12.6903 15.9424 11.9999 15.9424C11.3096 15.9424 10.7499 16.502 10.7499 17.1924C10.7499 17.8827 11.3096 18.4424 11.9999 18.4424Z" fill="black"/>
</svg>
