<svg width="24" height="24" viewBox="0 0 24 24" fill="none" xmlns="http://www.w3.org/2000/svg">
<path d="M9.05101 5.41675C10.6144 3.79303 13.2065 3.7681 14.8008 5.3624C16.3738 6.93542 16.3738 9.4858 14.8008 11.0588L13.7494 12.1102C13.4685 12.3911 13.3402 12.6076 13.2713 12.7866C13.2008 12.9696 13.1625 13.1904 13.1625 13.5271C13.1625 14.2175 12.6028 14.7771 11.9125 14.7771C11.2221 14.7771 10.6625 14.2175 10.6625 13.5271C10.6625 13.0009 10.7218 12.4502 10.9384 11.888C11.1565 11.3218 11.5047 10.8194 11.9816 10.3424L13.033 9.29106C13.6297 8.69434 13.6297 7.72688 13.033 7.13017C12.4277 6.52492 11.4434 6.53486 10.8505 7.1522L10.844 7.15904L10.8213 7.18217C10.6567 7.35446 10.5335 7.56264 10.4612 7.79104C10.2529 8.4492 9.55041 8.81386 8.89224 8.60552C8.23407 8.39718 7.86941 7.69473 8.07775 7.03657C8.26593 6.44209 8.58826 5.89815 9.02105 5.44752L9.02762 5.44068L9.05101 5.41675Z" fill="black"/>
<path d="M12 18.5674C12.8284 18.5674 13.5 17.8958 13.5 17.0674C13.5 16.2389 12.8284 15.5674 12 15.5674C11.1715 15.5674 10.5 16.2389 10.5 17.0674C10.5 17.8958 11.1715 18.5674 12 18.5674Z" fill="black"/>
<path fill-rule="evenodd" clip-rule="evenodd" d="M12 23.5C18.3513 23.5 23.5 18.3513 23.5 12C23.5 5.64873 18.3513 0.5 12 0.5C5.64873 0.5 0.5 5.64873 0.5 12C0.5 18.3513 5.64873 23.5 12 23.5ZM12 21C16.9706 21 21 16.9706 21 12C21 7.02944 16.9706 3 12 3C7.02944 3 3 7.02944 3 12C3 16.9706 7.02944 21 12 21Z" fill="black"/>
</svg>
