<svg width="24" height="24" viewBox="0 0 24 24" fill="none" xmlns="http://www.w3.org/2000/svg">
<path fill-rule="evenodd" clip-rule="evenodd" d="M23.5 12C23.5 18.3513 18.3513 23.5 12 23.5C5.64873 23.5 0.5 18.3513 0.5 12C0.5 5.64873 5.64873 0.5 12 0.5C18.3513 0.5 23.5 5.64873 23.5 12ZM10.2294 12.9158C10.2294 12.4557 10.2815 11.9482 10.4843 11.4216C10.689 10.8901 11.0126 10.4295 11.4345 10.0076L12.2782 9.16284C12.5636 8.87746 12.5636 8.41501 12.2782 8.12964C11.9888 7.84052 11.5188 7.84542 11.2353 8.14038L11.2265 8.14819L11.206 8.17065C11.1296 8.25269 11.0713 8.35139 11.037 8.45972L8.17765 7.55444C8.35168 7.00466 8.64922 6.50074 9.04972 6.08374L9.07901 6.05444C10.5275 4.55504 12.9251 4.53337 14.4003 6.00854C15.857 7.46551 15.8572 9.82803 14.4003 11.2849L13.5556 12.1287C13.3689 12.3153 13.3099 12.4329 13.2841 12.4998C13.2565 12.5714 13.2294 12.6832 13.2294 12.9158C13.2294 13.7442 12.5578 14.4158 11.7294 14.4158C10.9011 14.4156 10.2294 13.7441 10.2294 12.9158ZM8.17765 7.55444C7.92789 8.34398 8.36484 9.18609 9.15421 9.43628C9.94387 9.68624 10.7868 9.24925 11.037 8.45972L8.17765 7.55444ZM11.8 18.5842C12.7665 18.5842 13.55 17.8007 13.55 16.8342C13.55 15.8677 12.7665 15.0842 11.8 15.0842C10.8335 15.0842 10.05 15.8677 10.05 16.8342C10.05 17.8007 10.8335 18.5842 11.8 18.5842Z" fill="black"/>
</svg>
