<svg width="24" height="24" viewBox="0 0 24 24" fill="none" xmlns="http://www.w3.org/2000/svg">
<path d="M12 16.3916C12.5523 16.3916 13 16.8393 13 17.3916C12.9999 17.9438 12.5522 18.3916 12 18.3916C11.4478 18.3916 11.0001 17.9438 11 17.3916C11 16.8393 11.4477 16.3916 12 16.3916Z" fill="black"/>
<path d="M9.20996 6.02246C10.6858 4.49077 13.1321 4.46715 14.6367 5.97168C16.1214 7.45636 16.1211 9.86377 14.6367 11.3486L13.4814 12.5039C13.1241 12.8612 12.9284 13.1708 12.8154 13.4639C12.7016 13.7594 12.6543 14.0848 12.6543 14.502C12.6542 14.9159 12.3182 15.2517 11.9043 15.252C11.4902 15.252 11.1544 14.916 11.1543 14.502C11.1543 13.9711 11.2136 13.4479 11.415 12.9248C11.6175 12.3993 11.9458 11.9185 12.4209 11.4434L13.5762 10.2881C14.4748 9.38901 14.4751 7.93112 13.5762 7.03223C12.6643 6.12042 11.1804 6.13543 10.2871 7.06543L10.2832 7.07031L10.2578 7.09473C10.0089 7.35388 9.82352 7.66845 9.71484 8.01172C9.58971 8.40642 9.16823 8.62497 8.77344 8.5C8.37871 8.37489 8.16018 7.9534 8.28516 7.55859C8.46313 6.99652 8.76784 6.48241 9.17676 6.05664L9.18066 6.05273L9.20996 6.02246Z" fill="black"/>
<path fill-rule="evenodd" clip-rule="evenodd" d="M12 0C18.6274 0 24 5.37258 24 12C24 18.6274 18.6274 24 12 24C5.37258 24 0 18.6274 0 12C0 5.37258 5.37258 0 12 0ZM12 1.5C6.20101 1.5 1.5 6.20101 1.5 12C1.5 17.799 6.20101 22.5 12 22.5C17.799 22.5 22.5 17.799 22.5 12C22.5 6.20101 17.799 1.5 12 1.5Z" fill="black"/>
</svg>
