<svg width="24" height="24" viewBox="0 0 24 24" fill="none" xmlns="http://www.w3.org/2000/svg">
<path d="M12 15.084C12.9664 15.084 13.7499 15.8676 13.75 16.834C13.75 17.8005 12.9665 18.584 12 18.584C11.0335 18.584 10.25 17.8005 10.25 16.834C10.2501 15.8676 11.0336 15.084 12 15.084Z" fill="black"/>
<path d="M9.2793 6.05469C10.7278 4.5553 13.1254 4.53362 14.6006 6.00879C16.0571 7.46577 16.0573 9.82836 14.6006 11.2852L13.7559 12.1289C13.5692 12.3156 13.5101 12.4331 13.4844 12.5C13.4568 12.5717 13.4297 12.6835 13.4297 12.916C13.4296 13.7442 12.7579 14.4159 11.9297 14.416C11.1015 14.4158 10.4298 13.7442 10.4297 12.916C10.4297 12.456 10.4819 11.9484 10.6846 11.4219C10.8893 10.8904 11.2129 10.4297 11.6348 10.0078L12.4785 9.16309C12.7638 8.87779 12.7636 8.41527 12.4785 8.12988C12.1891 7.84077 11.719 7.84568 11.4355 8.14062L11.4268 8.14844L11.4062 8.1709C11.3298 8.25294 11.2716 8.35164 11.2373 8.45996L8.37793 7.55469C8.55196 7.0049 8.8495 6.50099 9.25 6.08398L9.2793 6.05469Z" fill="black"/>
<path d="M11.2373 8.45996C10.9871 9.2493 10.144 9.68625 9.35449 9.43652C8.56517 9.18635 8.12827 8.34419 8.37793 7.55469L11.2373 8.45996Z" fill="black"/>
<path fill-rule="evenodd" clip-rule="evenodd" d="M12 0.5C18.3513 0.5 23.5 5.64873 23.5 12C23.5 18.3513 18.3513 23.5 12 23.5C5.64873 23.5 0.5 18.3513 0.5 12C0.5 5.64873 5.64873 0.5 12 0.5ZM12 3.5C7.30558 3.5 3.5 7.30558 3.5 12C3.5 16.6944 7.30558 20.5 12 20.5C16.6944 20.5 20.5 16.6944 20.5 12C20.5 7.30558 16.6944 3.5 12 3.5Z" fill="black"/>
</svg>
