<svg width="24" height="24" viewBox="0 0 24 24" fill="none" xmlns="http://www.w3.org/2000/svg">
<path d="M12 14.5879C13.0355 14.5879 13.875 15.4274 13.875 16.4629C13.875 17.4984 13.0355 18.3379 12 18.3379C10.9645 18.3379 10.125 17.4984 10.125 16.4629C10.125 15.4274 10.9645 14.5879 12 14.5879Z" fill="black"/>
<path d="M9.32324 6.15723C10.7499 4.68163 13.1109 4.66091 14.5635 6.11328C15.9982 7.54815 15.998 9.87462 14.5635 11.3096L13.7871 12.0859C13.6724 12.2007 13.6274 12.2729 13.6094 12.3066C13.5942 12.3352 13.582 12.3655 13.5732 12.4199C13.4309 13.3058 12.5978 13.9086 11.7119 13.7666C10.8259 13.6243 10.2221 12.7904 10.3643 11.9043C10.4933 11.101 10.8611 10.4152 11.4893 9.78711L12.2646 9.01172C12.4304 8.84594 12.4304 8.5769 12.2646 8.41113C12.0965 8.2435 11.8228 8.24666 11.6582 8.41797L11.6504 8.42676L11.6396 8.4375L11.5771 8.51953C11.5596 8.54907 11.5448 8.5809 11.5342 8.61426C11.2633 9.4697 10.3506 9.94359 9.49512 9.67285C8.63973 9.40196 8.1659 8.48925 8.43652 7.63379C8.60779 7.09282 8.90078 6.59699 9.29492 6.18652L9.30371 6.17773L9.32324 6.15723Z" fill="black"/>
<path fill-rule="evenodd" clip-rule="evenodd" d="M12 0C18.6274 0 24 5.37258 24 12C24 18.6274 18.6274 24 12 24C5.37258 24 0 18.6274 0 12C0 5.37258 5.37258 0 12 0ZM12 3.5C7.30558 3.5 3.5 7.30558 3.5 12C3.5 16.6944 7.30558 20.5 12 20.5C16.6944 20.5 20.5 16.6944 20.5 12C20.5 7.30558 16.6944 3.5 12 3.5Z" fill="black"/>
</svg>
