<svg width="24" height="24" viewBox="0 0 24 24" fill="none" xmlns="http://www.w3.org/2000/svg">
<path fill-rule="evenodd" clip-rule="evenodd" d="M0 12C0 10.142 0 9.21298 0.123117 8.43565C0.800832 4.15673 4.15673 0.800832 8.43565 0.123117C9.21298 0 10.142 0 12 0C13.858 0 14.787 0 15.5643 0.123117C19.8433 0.800832 23.1992 4.15673 23.8769 8.43565C24 9.21298 24 10.142 24 12C24 13.858 24 14.787 23.8769 15.5643C23.1992 19.8433 19.8433 23.1992 15.5643 23.8769C14.787 24 13.858 24 12 24C10.142 24 9.21298 24 8.43565 23.8769C4.15673 23.1992 0.800832 19.8433 0.123117 15.5643C0 14.787 0 13.858 0 12ZM9.56692 6.5601C10.8483 5.22664 12.975 5.20541 14.2828 6.51319C15.5724 7.80275 15.5724 9.89355 14.2828 11.1831L13.1277 12.3382C12.731 12.7349 12.4912 13.1013 12.3484 13.4719C12.2054 13.8434 12.1539 14.2342 12.1539 14.6893C12.1539 14.8274 12.0419 14.9393 11.9039 14.9393C11.7658 14.9393 11.6539 14.8274 11.6539 14.6893C11.6539 14.1963 11.7096 13.7395 11.8819 13.2922C12.0545 12.8441 12.3382 12.4206 12.7742 11.9847L13.9293 10.8296C15.0236 9.73526 15.0236 7.96105 13.9293 6.86674C12.8193 5.75679 11.0142 5.77501 9.92687 6.90714L9.92556 6.90851L9.89725 6.93753C9.59529 7.25213 9.37002 7.63218 9.23834 8.04815C9.19668 8.17978 9.05619 8.25272 8.92455 8.21105C8.79292 8.16938 8.71999 8.02889 8.76166 7.89726C8.91652 7.40803 9.18164 6.9608 9.53727 6.59052L9.53858 6.58915L9.56692 6.5601ZM12 18.204C12.3452 18.204 12.625 17.9242 12.625 17.579C12.625 17.2338 12.3452 16.954 12 16.954C11.6548 16.954 11.375 17.2338 11.375 17.579C11.375 17.9242 11.6548 18.204 12 18.204Z" fill="black"/>
</svg>
