<svg width="24" height="24" viewBox="0 0 24 24" fill="none" xmlns="http://www.w3.org/2000/svg">
<path d="M12 16.9541C12.3452 16.9541 12.625 17.2339 12.625 17.5791C12.6249 17.9242 12.3451 18.2041 12 18.2041C11.6549 18.2041 11.3751 17.9242 11.375 17.5791C11.375 17.2339 11.6548 16.9541 12 16.9541Z" fill="black"/>
<path d="M9.56738 6.55957C10.8488 5.22664 12.9756 5.20514 14.2832 6.5127C15.5726 7.80211 15.5723 9.89302 14.2832 11.1826L13.1279 12.3379C12.7313 12.7345 12.4914 13.1011 12.3486 13.4717C12.2056 13.8431 12.1543 14.2344 12.1543 14.6895C12.1542 14.8273 12.0421 14.9392 11.9043 14.9395C11.7663 14.9395 11.6544 14.8274 11.6543 14.6895C11.6543 14.1965 11.7096 13.7392 11.8818 13.292C12.0544 12.844 12.3386 12.4202 12.7744 11.9844L13.9297 10.8291C15.0236 9.73476 15.0238 7.96037 13.9297 6.86621C12.8197 5.75634 11.0141 5.77518 9.92676 6.90723L9.92578 6.9082L9.89648 6.93848L9.89551 6.9375C9.59406 7.25186 9.36984 7.63238 9.23828 8.04785C9.19664 8.17941 9.05637 8.25245 8.9248 8.21094C8.79328 8.16928 8.72024 8.029 8.76172 7.89746C8.91655 7.40841 9.18165 6.96102 9.53711 6.59082L9.53906 6.58887L9.56738 6.55957Z" fill="black"/>
<path fill-rule="evenodd" clip-rule="evenodd" d="M12 0C18.6274 0 24 5.37258 24 12C24 18.6274 18.6274 24 12 24C5.37258 24 0 18.6274 0 12C0 5.37258 5.37258 0 12 0ZM12 0.5C5.64873 0.5 0.5 5.64873 0.5 12C0.5 18.3513 5.64873 23.5 12 23.5C18.3513 23.5 23.5 18.3513 23.5 12C23.5 5.64873 18.3513 0.5 12 0.5Z" fill="black"/>
</svg>
