<svg width="24" height="24" viewBox="0 0 24 24" fill="none" xmlns="http://www.w3.org/2000/svg">
<path d="M12 15.9424C12.6903 15.9424 13.25 16.502 13.25 17.1924C13.25 17.8827 12.6903 18.4424 12 18.4424C11.3096 18.4424 10.75 17.8827 10.75 17.1924C10.75 16.502 11.3096 15.9424 12 15.9424Z" fill="black"/>
<path d="M9.2334 5.71289C10.7 4.19227 13.1294 4.16953 14.624 5.66406C16.0994 7.13942 16.0993 9.53144 14.624 11.0068L13.5723 12.0586C13.2722 12.3588 13.122 12.6037 13.0381 12.8213C12.953 13.0422 12.9121 13.2967 12.9121 13.6523C12.912 14.2045 12.4643 14.6523 11.9121 14.6523C11.3601 14.6521 10.9123 14.2044 10.9121 13.6523C10.9121 13.1451 10.9699 12.6268 11.1719 12.1025C11.375 11.5753 11.7011 11.1017 12.1582 10.6445L13.21 9.59277C13.9042 8.89843 13.9042 7.77243 13.21 7.07812C12.5057 6.37392 11.3598 6.3862 10.6699 7.10449L10.665 7.10938L10.6387 7.13672C10.4487 7.33626 10.3061 7.57712 10.2227 7.84082C10.0559 8.36714 9.49418 8.65877 8.96777 8.49219C8.44131 8.32554 8.14988 7.76378 8.31641 7.2373C8.49299 6.67947 8.79523 6.16887 9.20117 5.74609L9.20703 5.74023L9.2334 5.71289Z" fill="black"/>
<path fill-rule="evenodd" clip-rule="evenodd" d="M12 0C18.6274 0 24 5.37258 24 12C24 18.6274 18.6274 24 12 24C5.37258 24 0 18.6274 0 12C0 5.37258 5.37258 0 12 0ZM12 2C6.47715 2 2 6.47715 2 12C2 17.5228 6.47715 22 12 22C17.5228 22 22 17.5228 22 12C22 6.47715 17.5228 2 12 2Z" fill="black"/>
</svg>
