<svg width="24" height="24" viewBox="0 0 24 24" fill="none" xmlns="http://www.w3.org/2000/svg">
<path fill-rule="evenodd" clip-rule="evenodd" d="M12 0C13.858 0 14.7871 -6.97747e-05 15.5645 0.123047C19.8433 0.800792 23.1992 4.1567 23.877 8.43555C24.0001 9.21287 24 10.142 24 12C24 13.858 24.0001 14.7871 23.877 15.5645C23.1992 19.8433 19.8433 23.1992 15.5645 23.877C14.7871 24.0001 13.858 24 12 24C10.142 24 9.21287 24.0001 8.43555 23.877C4.1567 23.1992 0.800792 19.8433 0.123047 15.5645C-6.97747e-05 14.7871 0 13.858 0 12C0 10.142 -6.97747e-05 9.21287 0.123047 8.43555C0.800792 4.1567 4.1567 0.800792 8.43555 0.123047C9.21287 -6.97747e-05 10.142 0 12 0ZM11.7998 15.084C10.8335 15.0841 10.0499 15.8677 10.0498 16.834C10.0498 17.8004 10.8334 18.5839 11.7998 18.584C12.7663 18.584 13.5498 17.8005 13.5498 16.834C13.5497 15.8676 12.7662 15.084 11.7998 15.084ZM14.4004 6.00879C12.9252 4.53361 10.5276 4.55528 9.0791 6.05469L9.0498 6.08398C8.64935 6.50097 8.35176 7.00494 8.17773 7.55469L11.0371 8.45996C11.0714 8.35168 11.1297 8.25292 11.2061 8.1709L11.2266 8.14844L11.2354 8.14062C11.5188 7.84566 11.9889 7.84076 12.2783 8.12988C12.5635 8.41527 12.5636 8.87776 12.2783 9.16309L11.4346 10.0078C11.0127 10.4297 10.6891 10.8904 10.4844 11.4219C10.2817 11.9484 10.2295 12.456 10.2295 12.916C10.2296 13.7442 10.9013 14.4158 11.7295 14.416C12.5578 14.416 13.2294 13.7443 13.2295 12.916C13.2295 12.6836 13.2566 12.5717 13.2842 12.5C13.3099 12.4331 13.3691 12.3155 13.5557 12.1289L14.4004 11.2852C15.8572 9.82832 15.857 7.46577 14.4004 6.00879ZM8.17773 7.55469C7.92812 8.34417 8.365 9.18635 9.1543 9.43652C9.94385 9.68637 10.7869 9.24932 11.0371 8.45996L8.17773 7.55469Z" fill="black"/>
</svg>
