<svg width="24" height="24" viewBox="0 0 24 24" fill="none" xmlns="http://www.w3.org/2000/svg">
<path fill-rule="evenodd" clip-rule="evenodd" d="M0 12C0 10.142 0 9.21298 0.123117 8.43565C0.800832 4.15673 4.15673 0.800832 8.43565 0.123117C9.21298 0 10.142 0 12 0C13.858 0 14.787 0 15.5643 0.123117C19.8433 0.800832 23.1992 4.15673 23.8769 8.43565C24 9.21298 24 10.142 24 12C24 13.858 24 14.787 23.8769 15.5643C23.1992 19.8433 19.8433 23.1992 15.5643 23.8769C14.787 24 13.858 24 12 24C10.142 24 9.21298 24 8.43565 23.8769C4.15673 23.1992 0.800832 19.8433 0.123117 15.5643C0 14.787 0 13.858 0 12ZM9.38731 6.3237C10.7658 4.88996 13.053 4.86734 14.4596 6.27391C15.8468 7.66111 15.8468 9.91019 14.4596 11.2974L13.3045 12.4525C12.9274 12.8296 12.7096 13.1674 12.5817 13.4993C12.4533 13.8328 12.4039 14.1907 12.4039 14.6268C12.4039 14.903 12.18 15.1268 11.9039 15.1268C11.6277 15.1268 11.4039 14.903 11.4039 14.6268C11.4039 14.1148 11.4617 13.6251 11.6486 13.1398C11.8361 12.653 12.1418 12.2009 12.5974 11.7454L13.7525 10.5903C14.7492 9.59361 14.7492 7.97769 13.7525 6.98102C12.7416 5.97009 11.0975 5.98669 10.1072 7.01781L10.1045 7.02055L10.0769 7.04884C9.80198 7.33554 9.59673 7.68188 9.47669 8.0611C9.39335 8.32437 9.11237 8.47023 8.84911 8.38689C8.58584 8.30355 8.43998 8.02258 8.52331 7.75931C8.68972 7.2336 8.97465 6.75291 9.35696 6.35484L9.35959 6.35211L9.38731 6.3237ZM12 18.2665C12.4142 18.2665 12.75 17.9307 12.75 17.5165C12.75 17.1023 12.4142 16.7665 12 16.7665C11.5858 16.7665 11.25 17.1023 11.25 17.5165C11.25 17.9307 11.5858 18.2665 12 18.2665Z" fill="black"/>
</svg>
