<svg width="24" height="24" viewBox="0 0 24 24" fill="none" xmlns="http://www.w3.org/2000/svg">
<path d="M8.71046 14.8214C8.00925 14.1815 7.56934 13.2602 7.56934 12.2363C7.56934 11.2265 7.99729 10.3165 8.68181 9.67777L7.97428 8.97041C7.10902 9.79033 6.56934 10.9503 6.56934 12.2363C6.56934 13.5364 7.12085 14.7076 8.00269 15.529L8.71046 14.8214Z" fill="black"/>
<path d="M4.7922 5.78911L4.08495 5.08203C2.22444 6.89761 1.06934 9.43249 1.06934 12.2372C1.06934 15.0554 2.23568 17.6013 4.11207 19.4186L4.81936 18.7115C3.12381 17.0752 2.06934 14.7792 2.06934 12.2372C2.06934 9.70866 3.11256 7.42372 4.7922 5.78911Z" fill="black"/>
<path d="M15.3237 14.8214C16.0249 14.1815 16.4648 13.2602 16.4648 12.2363C16.4648 11.2265 16.0369 10.3165 15.3524 9.67777L16.0599 8.97041C16.9252 9.79033 17.4648 10.9503 17.4648 12.2363C17.4648 13.5364 16.9133 14.7076 16.0315 15.529L15.3237 14.8214Z" fill="black"/>
<path d="M19.242 5.78911L19.9492 5.08203C21.8097 6.89761 22.9648 9.43249 22.9648 12.2372C22.9648 15.0554 21.7985 17.6013 19.9221 19.4186L19.2148 18.7115C20.9104 17.0752 21.9648 14.7792 21.9648 12.2372C21.9648 9.70866 20.9216 7.42372 19.242 5.78911Z" fill="black"/>
<path d="M12.0166 13.1859C11.4643 13.1859 11.0166 12.7383 11.0166 12.1861C11.0166 11.6339 11.4643 11.1863 12.0166 11.1863C12.5689 11.1863 13.0166 11.6339 13.0166 12.1861C13.0166 12.7383 12.5689 13.1859 12.0166 13.1859Z" fill="black"/>
</svg>
