<svg width="24" height="24" viewBox="0 0 24 24" fill="none" xmlns="http://www.w3.org/2000/svg">
<path d="M8.88832 14.6424C8.23173 14.048 7.81934 13.189 7.81934 12.2339C7.81934 11.2935 8.21903 10.4464 8.85793 9.85316L7.79659 8.79217C6.88663 9.65725 6.31934 10.8793 6.31934 12.2339C6.31934 13.6033 6.89911 14.8372 7.82658 15.7038L8.88832 14.6424Z" fill="black"/>
<path d="M4.96834 5.96487L3.90741 4.9043C2.00212 6.7649 0.819336 9.36174 0.819336 12.2349C0.819336 15.1223 2.01393 17.7307 3.93593 19.5932L4.99692 18.5325C3.34615 16.9415 2.31934 14.708 2.31934 12.2349C2.31934 9.77602 3.3343 7.55404 4.96834 5.96487Z" fill="black"/>
<path d="M15.1459 14.6424C15.8024 14.048 16.2148 13.189 16.2148 12.2339C16.2148 11.2935 15.8151 10.4464 15.1763 9.85316L16.2376 8.79217C17.1476 9.65725 17.7148 10.8793 17.7148 12.2339C17.7148 13.6033 17.1351 14.8372 16.2076 15.7038L15.1459 14.6424Z" fill="black"/>
<path d="M19.0658 5.96487L20.1268 4.9043C22.0321 6.7649 23.2148 9.36174 23.2148 12.2349C23.2148 15.1223 22.0202 17.7307 20.0982 19.5932L19.0373 18.5325C20.688 16.9415 21.7148 14.708 21.7148 12.2349C21.7148 9.77602 20.6999 7.55404 19.0658 5.96487Z" fill="black"/>
<path d="M12.0166 13.4342C11.3262 13.4342 10.7666 12.8748 10.7666 12.1846C10.7666 11.4945 11.3262 10.935 12.0166 10.935C12.7069 10.935 13.2666 11.4945 13.2666 12.1846C13.2666 12.8748 12.7069 13.4342 12.0166 13.4342Z" fill="black"/>
</svg>
