<svg width="24" height="24" viewBox="0 0 24 24" fill="none" xmlns="http://www.w3.org/2000/svg">
<path d="M19.2841 18.4223C20.9395 16.7897 21.9647 14.5221 21.9647 12.0142C21.9647 9.50621 20.9395 7.23862 19.2841 5.606C19.0875 5.41209 19.0853 5.09552 19.2792 4.89891C19.4731 4.7023 19.7896 4.7001 19.9863 4.894C21.8244 6.70682 22.9647 9.22779 22.9647 12.0142C22.9647 14.8005 21.8244 17.3215 19.9863 19.1343C19.7896 19.3282 19.4731 19.326 19.2792 19.1294C19.0853 18.9328 19.0875 18.6162 19.2841 18.4223Z" fill="black"/>
<path d="M15.3895 14.5378C16.053 13.9003 16.465 13.0055 16.465 12.0137C16.465 11.0218 16.053 10.127 15.3895 9.48952C15.1904 9.29819 15.1841 8.98168 15.3754 8.78255C15.5667 8.58343 15.8832 8.5771 16.0824 8.76842C16.934 9.58664 17.465 10.7386 17.465 12.0137C17.465 13.2888 16.934 14.4407 16.0824 15.2589C15.8832 15.4502 15.5667 15.4439 15.3754 15.2448C15.1841 15.0457 15.1904 14.7291 15.3895 14.5378Z" fill="black"/>
<path d="M4.72283 18.3955C3.08334 16.7649 2.06934 14.5084 2.06934 12.0142C2.06934 9.51991 3.08334 7.26342 4.72283 5.63283C4.91862 5.4381 4.91949 5.12152 4.72476 4.92573C4.53003 4.72994 4.21345 4.72907 4.01765 4.9238C2.19718 6.73439 1.06934 9.24304 1.06934 12.0142C1.06934 14.7853 2.19718 17.2939 4.01765 19.1045C4.21345 19.2992 4.53003 19.2984 4.72476 19.1026C4.91949 18.9068 4.91862 18.5902 4.72283 18.3955Z" fill="black"/>
<path d="M8.62401 14.518C7.97253 13.8819 7.56905 12.9953 7.56905 12.0137C7.56905 11.032 7.97253 10.1455 8.62401 9.50934C8.82158 9.31641 8.82535 8.99985 8.63242 8.80228C8.4395 8.60471 8.12294 8.60094 7.92536 8.79387C7.08913 9.61043 6.56905 10.7518 6.56905 12.0137C6.56905 13.2756 7.08913 14.4169 7.92536 15.2335C8.12294 15.4264 8.4395 15.4226 8.63242 15.2251C8.82535 15.0275 8.82158 14.7109 8.62401 14.518Z" fill="black"/>
<path d="M12.0164 12.9639C11.4641 12.9639 11.0164 12.5162 11.0164 11.9639C11.0164 11.4116 11.4641 10.9639 12.0164 10.9639C12.5687 10.9639 13.0164 11.4116 13.0164 11.9639C13.0164 12.5162 12.5687 12.9639 12.0164 12.9639Z" fill="black"/>
</svg>
