<svg width="24" height="24" viewBox="0 0 24 24" fill="none" xmlns="http://www.w3.org/2000/svg">
<path d="M9.06496 14.4658C8.45371 13.9168 8.06934 13.1206 8.06934 12.2348C8.06934 11.3634 8.44131 10.5787 9.03532 10.0308L7.62011 8.61618C6.66474 9.52649 6.06934 10.811 6.06934 12.2348C6.06934 13.673 6.67685 14.9691 7.64922 15.881L9.06496 14.4658Z" fill="black"/>
<path d="M5.14548 6.14256L3.73085 4.72852C1.78021 6.63423 0.569336 9.29346 0.569336 12.2356C0.569336 15.1917 1.79177 17.8622 3.75879 19.7698L5.1735 18.3557C3.56807 16.8101 2.56934 14.6393 2.56934 12.2356C2.56934 9.84584 3.55646 7.68639 5.14548 6.14256Z" fill="black"/>
<path d="M14.9692 14.4658C15.5805 13.9168 15.9648 13.1206 15.9648 12.2348C15.9648 11.3634 15.5929 10.5787 14.9989 10.0308L16.4141 8.61618C17.3694 9.52649 17.9648 10.811 17.9648 12.2348C17.9648 13.673 17.3573 14.9691 16.385 15.881L14.9692 14.4658Z" fill="black"/>
<path d="M18.8887 6.14256L20.3033 4.72852C22.254 6.63423 23.4648 9.29346 23.4648 12.2356C23.4648 15.1917 22.2424 17.8622 20.2754 19.7698L18.8607 18.3557C20.4661 16.8101 21.4648 14.6393 21.4648 12.2356C21.4648 9.84584 20.4777 7.68639 18.8887 6.14256Z" fill="black"/>
<path d="M12.0166 13.6843C11.1881 13.6843 10.5166 13.013 10.5166 12.1849C10.5166 11.3568 11.1881 10.6855 12.0166 10.6855C12.845 10.6855 13.5166 11.3568 13.5166 12.1849C13.5166 13.013 12.845 13.6843 12.0166 13.6843Z" fill="black"/>
</svg>
