<svg width="24" height="24" viewBox="0 0 24 24" fill="none" xmlns="http://www.w3.org/2000/svg">
<path d="M18.7574 17.8883C20.2758 16.3909 21.2147 14.3133 21.2147 12.0142C21.2147 9.71503 20.2758 7.63747 18.7574 6.13999C18.2659 5.65523 18.2604 4.86379 18.7452 4.37227C19.2299 3.88074 20.0214 3.87525 20.5129 4.36001C22.4881 6.30797 23.7147 9.01897 23.7147 12.0142C23.7147 15.0094 22.4881 17.7203 20.5129 19.6683C20.0214 20.1531 19.2299 20.1476 18.7452 19.6561C18.2604 19.1645 18.2659 18.3731 18.7574 17.8883Z" fill="black"/>
<path d="M14.8699 13.997C15.3923 13.4951 15.715 12.7931 15.715 12.0137C15.715 11.2342 15.3923 10.5323 14.8699 10.0303C14.3721 9.55203 14.3563 8.76073 14.8346 8.26292C15.3129 7.76511 16.1042 7.7493 16.602 8.2276C17.5947 9.18137 18.215 10.5261 18.215 12.0137C18.215 13.5012 17.5947 14.846 16.602 15.7997C16.1042 16.278 15.3129 16.2622 14.8346 15.7644C14.3563 15.2666 14.3721 14.4753 14.8699 13.997Z" fill="black"/>
<path d="M5.25172 17.8637C3.74796 16.3681 2.81934 14.3008 2.81934 12.0142C2.81934 9.72756 3.74796 7.6602 5.25172 6.16461C5.7412 5.67778 5.74335 4.88633 5.25653 4.39685C4.7697 3.90736 3.97825 3.90521 3.48877 4.39203C1.53256 6.33762 0.319336 9.03538 0.319336 12.0142C0.319336 14.9929 1.53256 17.6907 3.48877 19.6363C3.97825 20.1231 4.7697 20.121 5.25653 19.6315C5.74335 19.142 5.7412 18.3505 5.25172 17.8637Z" fill="black"/>
<path d="M9.14799 13.9814C8.63508 13.4806 8.31905 12.7851 8.31905 12.0137C8.31905 11.2422 8.63508 10.5468 9.14799 10.0459C9.64192 9.56363 9.65134 8.77223 9.16902 8.2783C8.68671 7.78437 7.89531 7.77495 7.40138 8.25726C6.42659 9.20913 5.81905 10.5416 5.81905 12.0137C5.81905 13.4858 6.42659 14.8182 7.40138 15.7701C7.89531 16.2524 8.68671 16.243 9.16902 15.749C9.65134 15.2551 9.64192 14.4637 9.14799 13.9814Z" fill="black"/>
<path d="M12.0164 13.7139C11.0499 13.7139 10.2664 12.9304 10.2664 11.9639C10.2664 10.9974 11.0499 10.2139 12.0164 10.2139C12.9829 10.2139 13.7664 10.9974 13.7664 11.9639C13.7664 12.9304 12.9829 13.7139 12.0164 13.7139Z" fill="black"/>
</svg>
