<svg width="24" height="24" viewBox="0 0 24 24" fill="none" xmlns="http://www.w3.org/2000/svg">
<path d="M19.1085 18.2443C20.7183 16.6568 21.7147 14.4525 21.7147 12.0142C21.7147 9.57582 20.7183 7.37157 19.1085 5.78399C18.8136 5.49314 18.8103 5.01828 19.1012 4.72336C19.392 4.42844 19.8669 4.42515 20.1618 4.71601C22.0456 6.57387 23.2147 9.15818 23.2147 12.0142C23.2147 14.8701 22.0456 17.4544 20.1618 19.3123C19.8669 19.6032 19.392 19.5999 19.1012 19.305C18.8103 19.01 18.8136 18.5352 19.1085 18.2443Z" fill="black"/>
<path d="M15.2163 14.3576C15.8328 13.7653 16.215 12.9347 16.215 12.0137C16.215 11.0926 15.8328 10.2621 15.2163 9.66979C14.9176 9.38281 14.9082 8.90803 15.1951 8.60934C15.4821 8.31065 15.9569 8.30117 16.2556 8.58815C17.1542 9.45155 17.715 10.6678 17.715 12.0137C17.715 13.3596 17.1542 14.5758 16.2556 15.4392C15.9569 15.7262 15.4821 15.7167 15.1951 15.418C14.9082 15.1193 14.9176 14.6445 15.2163 14.3576Z" fill="black"/>
<path d="M4.89913 18.2182C3.30488 16.6326 2.31934 14.4392 2.31934 12.0142C2.31934 9.58913 3.30488 7.39568 4.89913 5.81009C5.19282 5.518 5.19411 5.04313 4.90201 4.74944C4.60992 4.45575 4.13505 4.45445 3.84136 4.74655C1.97564 6.60214 0.819336 9.17382 0.819336 12.0142C0.819336 14.8545 1.97564 17.4262 3.84136 19.2818C4.13505 19.5739 4.60992 19.5726 4.90201 19.2789C5.19411 18.9852 5.19282 18.5103 4.89913 18.2182Z" fill="black"/>
<path d="M8.79867 14.3391C8.19338 13.7481 7.81905 12.9253 7.81905 12.0137C7.81905 11.1021 8.19338 10.2793 8.79867 9.6882C9.09503 9.39882 9.10068 8.92398 8.81129 8.62762C8.5219 8.33126 8.04706 8.32561 7.7507 8.615C6.86829 9.47666 6.31905 10.6817 6.31905 12.0137C6.31905 13.3456 6.86828 14.5507 7.7507 15.4123C8.04706 15.7017 8.5219 15.6961 8.81129 15.3997C9.10068 15.1034 9.09502 14.6285 8.79867 14.3391Z" fill="black"/>
<path d="M12.0164 13.2139C11.326 13.2139 10.7664 12.6543 10.7664 11.9639C10.7664 11.2736 11.326 10.7139 12.0164 10.7139C12.7068 10.7139 13.2664 11.2736 13.2664 11.9639C13.2664 12.6543 12.7068 13.2139 12.0164 13.2139Z" fill="black"/>
</svg>
