<svg width="24" height="24" viewBox="0 0 24 24" fill="none" xmlns="http://www.w3.org/2000/svg">
<path fill-rule="evenodd" clip-rule="evenodd" d="M0.123117 8.43565C0 9.21298 0 10.142 0 12C0 13.858 0 14.787 0.123117 15.5643C0.800832 19.8433 4.15673 23.1992 8.43565 23.8769C9.21298 24 10.142 24 12 24C13.858 24 14.787 24 15.5643 23.8769C19.8433 23.1992 23.1992 19.8433 23.8769 15.5643C24 14.787 24 13.858 24 12C24 10.142 24 9.21298 23.8769 8.43565C23.1992 4.15673 19.8433 0.800832 15.5643 0.123117C14.787 0 13.858 0 12 0C10.142 0 9.21298 0 8.43565 0.123117C4.15673 0.800832 0.800832 4.15673 0.123117 8.43565ZM19.7256 11.9909C19.7256 13.6861 19.0325 15.2189 17.9137 16.3223C17.8154 16.4193 17.8143 16.5776 17.9113 16.6759C18.0082 16.7742 18.1665 16.7753 18.2648 16.6783C19.475 15.4848 20.2256 13.8253 20.2256 11.9909C20.2256 10.1565 19.475 8.49697 18.2648 7.30345C18.1665 7.2065 18.0082 7.20759 17.9113 7.3059C17.8143 7.4042 17.8154 7.56249 17.9137 7.65944C19.0325 8.76287 19.7256 10.2957 19.7256 11.9909ZM16.0586 11.9903C16.0586 12.6751 15.774 13.2931 15.316 13.7331C15.2165 13.8288 15.2133 13.9871 15.309 14.0866C15.4046 14.1862 15.5629 14.1893 15.6625 14.0937C16.2145 13.5633 16.5586 12.8167 16.5586 11.9903C16.5586 11.1638 16.2145 10.4173 15.6625 9.88687C15.5629 9.79121 15.4046 9.79437 15.309 9.89393C15.2133 9.99349 15.2165 10.1518 15.316 10.2474C15.774 10.6875 16.0586 11.3054 16.0586 11.9903ZM4.2959 11.9904C4.2959 13.6763 4.98139 15.2016 6.08946 16.3037C6.18736 16.4011 6.18779 16.5594 6.09043 16.6572C5.99306 16.7551 5.83477 16.7556 5.73687 16.6582C4.53831 15.4662 3.7959 13.8147 3.7959 11.9904C3.7959 10.1661 4.53831 8.51464 5.73687 7.32258C5.83477 7.22521 5.99306 7.22564 6.09043 7.32354C6.18779 7.42144 6.18736 7.57973 6.08946 7.67709C4.98139 8.77915 4.2959 10.3045 4.2959 11.9904ZM7.96191 11.9899C7.96191 12.6677 8.24062 13.2799 8.69033 13.7191C8.78912 13.8155 8.791 13.9738 8.69454 14.0726C8.59808 14.1714 8.4398 14.1733 8.34101 14.0768C7.79892 13.5475 7.46191 12.8078 7.46191 11.9899C7.46191 11.172 7.79892 10.4323 8.34101 9.90299C8.4398 9.80652 8.59808 9.80841 8.69454 9.90719C8.791 10.006 8.78912 10.1643 8.69033 10.2607C8.24062 10.6999 7.96191 11.3121 7.96191 11.9899ZM11.2607 11.9569C11.2607 12.3711 11.5965 12.7069 12.0108 12.7069C12.425 12.7069 12.7608 12.3711 12.7608 11.9569C12.7608 11.5427 12.425 11.2069 12.0108 11.2069C11.5965 11.2069 11.2607 11.5427 11.2607 11.9569Z" fill="black"/>
</svg>
