<svg width="24" height="24" viewBox="0 0 24 24" fill="none" xmlns="http://www.w3.org/2000/svg">
<path d="M19.4597 18.6003C21.1608 16.9227 22.2148 14.5917 22.2148 12.0142C22.2148 9.4366 21.1608 7.10567 19.4597 5.428C19.3614 5.33105 19.3603 5.17276 19.4573 5.07445C19.5542 4.97615 19.7125 4.97505 19.8108 5.072C21.6033 6.83977 22.7148 9.29739 22.7148 12.0142C22.7148 14.7309 21.6033 17.1886 19.8108 18.9563C19.7125 19.0533 19.5542 19.0522 19.4573 18.9539C19.3603 18.8556 19.3614 18.6973 19.4597 18.6003Z" fill="black"/>
<path d="M15.5629 14.7181C16.2734 14.0354 16.7151 13.0763 16.7151 12.0137C16.7151 10.951 16.2734 9.99191 15.5629 9.30924C15.4633 9.21358 15.4601 9.05532 15.5558 8.95576C15.6515 8.8562 15.8097 8.85303 15.9093 8.9487C16.7138 9.72173 17.2151 10.8094 17.2151 12.0137C17.2151 13.218 16.7138 14.3056 15.9093 15.0786C15.8097 15.1743 15.6515 15.1711 15.5558 15.0716C15.4601 14.972 15.4633 14.8138 15.5629 14.7181Z" fill="black"/>
<path d="M4.54666 18.5727C2.86192 16.8972 1.81946 14.5776 1.81946 12.0142C1.81946 9.45069 2.86192 7.13117 4.54666 5.45558C4.64455 5.35821 4.64499 5.19992 4.54762 5.10202C4.45026 5.00413 4.29197 5.0037 4.19407 5.10106C2.41884 6.86665 1.31946 9.31225 1.31946 12.0142C1.31946 14.7161 2.41884 17.1617 4.19407 18.9273C4.29197 19.0246 4.45026 19.0242 4.54762 18.9263C4.64499 18.8284 4.64456 18.6701 4.54666 18.5727Z" fill="black"/>
<path d="M8.44947 14.6969C7.75181 14.0156 7.31917 13.0654 7.31917 12.0137C7.31917 10.9619 7.75181 10.0117 8.44947 9.33047C8.54825 9.23401 8.55014 9.07573 8.45367 8.97694C8.35721 8.87815 8.19893 8.87627 8.10015 8.97273C7.31011 9.74419 6.81917 10.8218 6.81917 12.0137C6.81917 13.2055 7.31011 14.2832 8.10015 15.0546C8.19893 15.1511 8.35721 15.1492 8.45367 15.0504C8.55014 14.9516 8.54825 14.7933 8.44947 14.6969Z" fill="black"/>
<path d="M12.0165 12.7139C11.6023 12.7139 11.2665 12.3781 11.2665 11.9639C11.2665 11.5497 11.6023 11.2139 12.0165 11.2139C12.4308 11.2139 12.7666 11.5497 12.7666 11.9639C12.7666 12.3781 12.4308 12.7139 12.0165 12.7139Z" fill="black"/>
</svg>
