<svg width="24" height="24" viewBox="0 0 24 24" fill="none" xmlns="http://www.w3.org/2000/svg">
<path fill-rule="evenodd" clip-rule="evenodd" d="M0.123117 8.43565C0 9.21298 0 10.142 0 12C0 13.858 0 14.787 0.123117 15.5643C0.800832 19.8433 4.15673 23.1992 8.43565 23.8769C9.21298 24 10.142 24 12 24C13.858 24 14.787 24 15.5643 23.8769C19.8433 23.1992 23.1992 19.8433 23.8769 15.5643C24 14.787 24 13.858 24 12C24 10.142 24 9.21298 23.8769 8.43565C23.1992 4.15673 19.8433 0.800832 15.5643 0.123117C14.787 0 13.858 0 12 0C10.142 0 9.21298 0 8.43565 0.123117C4.15673 0.800832 0.800832 4.15673 0.123117 8.43565ZM19.2256 11.9904C19.2256 13.5464 18.5901 14.9525 17.5626 15.9658C17.2677 16.2567 17.2644 16.7316 17.5553 17.0265C17.8461 17.3214 18.321 17.3247 18.6159 17.0338C19.9174 15.7502 20.7256 13.964 20.7256 11.9904C20.7256 10.0168 19.9174 8.23059 18.6159 6.94696C18.321 6.65611 17.8461 6.6594 17.5553 6.95432C17.2644 7.24923 17.2677 7.72409 17.5626 8.01495C18.5901 9.02828 19.2256 10.4344 19.2256 11.9904ZM15.5596 11.9903C15.5596 12.5335 15.3346 13.0229 14.9706 13.3726C14.6719 13.6596 14.6624 14.1344 14.9494 14.433C15.2364 14.7317 15.7112 14.7412 16.0099 14.4542C16.656 13.8334 17.0596 12.9584 17.0596 11.9903C17.0596 11.0222 16.656 10.1471 16.0099 9.52632C15.7112 9.23934 15.2364 9.24883 14.9494 9.54751C14.6624 9.8462 14.6719 10.321 14.9706 10.608C15.3346 10.9576 15.5596 11.447 15.5596 11.9903ZM4.7959 11.9899C4.7959 13.5374 5.42447 14.9366 6.44205 15.9487C6.73574 16.2408 6.73704 16.7157 6.44494 17.0093C6.15285 17.303 5.67797 17.3043 5.38428 17.0122C4.09522 15.7302 3.2959 13.9527 3.2959 11.9899C3.2959 10.0271 4.09522 8.24963 5.38428 6.96757C5.67797 6.67548 6.15285 6.67677 6.44494 6.97046C6.73704 7.26415 6.73574 7.73902 6.44205 8.03112C5.42447 9.04318 4.7959 10.4424 4.7959 11.9899ZM8.46289 11.9899C8.46289 12.5276 8.6833 13.0124 9.04063 13.3613C9.33699 13.6507 9.34264 14.1256 9.05325 14.4219C8.76386 14.7183 8.28902 14.7239 7.99267 14.4345C7.3582 13.815 6.96289 12.9479 6.96289 11.9899C6.96289 11.0319 7.3582 10.1648 7.99267 9.54525C8.28902 9.25586 8.76386 9.26151 9.05325 9.55787C9.34264 9.85423 9.33699 10.3291 9.04063 10.6185C8.6833 10.9674 8.46289 11.4522 8.46289 11.9899ZM10.8858 11.9566C10.8858 12.5779 11.3895 13.0816 12.0108 13.0816C12.6322 13.0816 13.1358 12.5779 13.1358 11.9566C13.1358 11.3353 12.6322 10.8316 12.0108 10.8316C11.3895 10.8316 10.8858 11.3353 10.8858 11.9566Z" fill="black"/>
</svg>
