<svg width="24" height="24" viewBox="0 0 24 24" fill="none" xmlns="http://www.w3.org/2000/svg">
<path fill-rule="evenodd" clip-rule="evenodd" d="M0.123117 8.43565C0 9.21298 0 10.142 0 12C0 13.858 0 14.787 0.123117 15.5643C0.800832 19.8433 4.15673 23.1992 8.43565 23.8769C9.21298 24 10.142 24 12 24C13.858 24 14.787 24 15.5643 23.8769C19.8433 23.1992 23.1992 19.8433 23.8769 15.5643C24 14.787 24 13.858 24 12C24 10.142 24 9.21298 23.8769 8.43565C23.1992 4.15673 19.8433 0.800832 15.5643 0.123117C14.787 0 13.858 0 12 0C10.142 0 9.21298 0 8.43565 0.123117C4.15673 0.800832 0.800832 4.15673 0.123117 8.43565ZM19.4756 11.9904C19.4756 13.616 18.8113 15.0855 17.7382 16.1438C17.5415 16.3377 17.5394 16.6543 17.7333 16.8509C17.9272 17.0475 18.2437 17.0497 18.4403 16.8558C19.6962 15.6173 20.4756 13.8944 20.4756 11.9904C20.4756 10.0864 19.6962 8.36354 18.4403 7.12496C18.2437 6.93106 17.9272 6.93325 17.7333 7.12986C17.5394 7.32647 17.5415 7.64305 17.7382 7.83695C18.8113 8.89533 19.4756 10.3648 19.4756 11.9904ZM15.8096 11.9903C15.8096 12.6043 15.5548 13.158 15.1438 13.5529C14.9447 13.7442 14.9384 14.0607 15.1297 14.2598C15.321 14.459 15.6375 14.4653 15.8367 14.274C16.4357 13.6984 16.8096 12.8875 16.8096 11.9903C16.8096 11.093 16.4357 10.2822 15.8367 9.7066C15.6375 9.51527 15.321 9.5216 15.1297 9.72072C14.9384 9.91985 14.9447 10.2364 15.1438 10.4277C15.5548 10.8226 15.8096 11.3762 15.8096 11.9903ZM4.5459 11.9899C4.5459 13.6066 5.20293 15.0689 6.26576 16.1259C6.46155 16.3207 6.46241 16.6373 6.26768 16.8331C6.07295 17.0288 5.75637 17.0297 5.56058 16.835C4.31677 15.5979 3.5459 13.8835 3.5459 11.9899C3.5459 10.0963 4.31676 8.38189 5.56058 7.14483C5.75637 6.9501 6.07295 6.95096 6.26768 7.14676C6.46241 7.34255 6.46155 7.65913 6.26576 7.85386C5.20293 8.91092 4.5459 10.3732 4.5459 11.9899ZM8.21289 11.9899C8.21289 12.5976 8.46245 13.1462 8.86597 13.5402C9.06354 13.7331 9.06731 14.0497 8.87438 14.2473C8.68146 14.4448 8.3649 14.4486 8.16733 14.2557C7.57905 13.6812 7.21289 12.8779 7.21289 11.9899C7.21289 11.1019 7.57905 10.2986 8.16733 9.72412C8.3649 9.53119 8.68146 9.53496 8.87438 9.73253C9.06731 9.9301 9.06354 10.2467 8.86597 10.4396C8.46245 10.8336 8.21289 11.3822 8.21289 11.9899ZM11.0108 11.9566C11.0108 12.5089 11.4585 12.9566 12.0108 12.9566C12.5631 12.9566 13.0108 12.5089 13.0108 11.9566C13.0108 11.4043 12.5631 10.9566 12.0108 10.9566C11.4585 10.9566 11.0108 11.4043 11.0108 11.9566Z" fill="black"/>
</svg>
