<svg width="24" height="24" viewBox="0 0 24 24" fill="none" xmlns="http://www.w3.org/2000/svg">
<path d="M8.53424 14.9977C7.78745 14.3123 7.31934 13.3281 7.31934 12.2347C7.31934 11.156 7.77489 10.1838 8.50415 9.4997L8.15041 9.14601C7.33077 9.92068 6.81934 11.018 6.81934 12.2347C6.81934 13.4662 7.34325 14.5754 8.18037 15.3515L8.53424 14.9977Z" fill="black"/>
<path d="M4.61431 5.61039L4.2607 5.25684C2.44603 7.02729 1.31934 9.49951 1.31934 12.2349C1.31934 14.9849 2.45816 17.469 4.28998 19.2413L4.64361 18.8878C2.90222 17.2059 1.81934 14.8468 1.81934 12.2349C1.81934 9.63759 2.89008 7.29035 4.61431 5.61039Z" fill="black"/>
<path d="M15.4999 14.9977C16.2467 14.3123 16.7148 13.3281 16.7148 12.2347C16.7148 11.156 16.2593 10.1838 15.53 9.4997L15.8838 9.14601C16.7034 9.92068 17.2148 11.018 17.2148 12.2347C17.2148 13.4662 16.6909 14.5754 15.8538 15.3515L15.4999 14.9977Z" fill="black"/>
<path d="M19.4199 5.61039L19.7735 5.25684C21.5882 7.02729 22.7148 9.49951 22.7148 12.2349C22.7148 14.9849 21.576 17.469 19.7442 19.2413L19.3906 18.8878C21.132 17.2059 22.2148 14.8468 22.2148 12.2349C22.2148 9.63759 21.1441 7.29035 19.4199 5.61039Z" fill="black"/>
<path d="M12.0166 12.936C11.6024 12.936 11.2666 12.6003 11.2666 12.1861C11.2666 11.7719 11.6024 11.4362 12.0166 11.4362C12.4308 11.4362 12.7666 11.7719 12.7666 12.1861C12.7666 12.6003 12.4308 12.936 12.0166 12.936Z" fill="black"/>
</svg>
