<svg width="24" height="24" viewBox="0 0 24 24" fill="none" xmlns="http://www.w3.org/2000/svg">
<path d="M2.7334 1.50098C2.45733 1.50106 2.2334 1.72586 2.2334 2.00195V22.002C2.23366 22.2778 2.45749 22.5019 2.7334 22.502C3.00938 22.502 3.23314 22.2779 3.2334 22.002V2.00098C3.23313 1.72506 3.00938 1.50098 2.7334 1.50098Z" fill="black"/>
<path d="M19.4814 8.8418C19.2862 8.6466 18.9697 8.64663 18.7744 8.8418C18.5793 9.03706 18.5792 9.3536 18.7744 9.54883L20.749 11.5234H8.27051C7.99458 11.5235 7.7707 11.7475 7.77051 12.0234C7.77055 12.2995 7.99449 12.5233 8.27051 12.5234H20.749L18.7744 14.499C18.5794 14.6943 18.5793 15.0109 18.7744 15.2061C18.9696 15.401 19.2862 15.401 19.4814 15.2061L22.3096 12.377C22.5048 12.1817 22.5048 11.8652 22.3096 11.6699L19.4814 8.8418Z" fill="black"/>
</svg>
