<svg width="24" height="24" viewBox="0 0 24 24" fill="none" xmlns="http://www.w3.org/2000/svg">
<path d="M2.7373 0.74707C2.04702 0.74715 1.4873 1.30774 1.4873 1.99805V21.998C1.48757 22.6881 2.04718 23.248 2.7373 23.248C3.4275 23.248 3.98704 22.6882 3.9873 21.998V1.99707C3.98704 1.30694 3.4275 0.74707 2.7373 0.74707Z" fill="black"/>
<path d="M18.4854 7.86719C18.3361 7.86895 18.1951 7.93765 18.1025 8.05469C17.9961 8.18951 17.9961 8.44911 17.9961 8.96582V10.7725H8.27051C7.58048 10.7726 7.02087 11.3325 7.02051 12.0225C7.02051 12.7127 7.58026 13.2723 8.27051 13.2725H17.9961V14.9893C17.9961 15.5057 17.9964 15.7644 18.1025 15.8994C18.1951 16.0167 18.3359 16.0861 18.4854 16.0879C18.6571 16.0899 18.8621 15.9325 19.2715 15.6172L23.1816 12.6045C23.4586 12.3912 23.5977 12.2843 23.6475 12.1543C23.6908 12.0406 23.6909 11.9145 23.6475 11.8008C23.5975 11.6708 23.4586 11.563 23.1816 11.3496L19.2715 8.33789C18.8621 8.02255 18.6571 7.86523 18.4854 7.86719Z" fill="black"/>
</svg>
