<svg width="24" height="24" viewBox="0 0 24 24" fill="none" xmlns="http://www.w3.org/2000/svg">
<path d="M20.7358 1.24805C20.3216 1.24805 19.9858 1.58481 19.9858 1.99902V21.999C19.9861 22.413 20.3218 22.749 20.7358 22.749C21.1499 22.749 21.4856 22.413 21.4858 21.999V1.99805C21.4856 1.58406 21.1499 1.24805 20.7358 1.24805Z" fill="black"/>
<path d="M13.6567 8.66504C13.3639 8.37245 12.889 8.37241 12.5962 8.66504C12.3035 8.95786 12.3036 9.4327 12.5962 9.72559L14.144 11.2734H2.26904C1.85508 11.2735 1.51938 11.6095 1.51904 12.0234C1.51904 12.4376 1.85488 12.7734 2.26904 12.7734H14.144L12.5962 14.3213C12.3034 14.6141 12.3035 15.0899 12.5962 15.3828C12.889 15.6754 13.3639 15.6754 13.6567 15.3828L16.4849 12.5537C16.7776 12.2608 16.7777 11.786 16.4849 11.4932L13.6567 8.66504Z" fill="black"/>
</svg>
