<svg width="24" height="24" viewBox="0 0 24 24" fill="none" xmlns="http://www.w3.org/2000/svg">
<path d="M2.73633 0.748047C2.04615 0.748251 1.48633 1.30782 1.48633 1.99805V21.998C1.48633 22.6883 2.04615 23.2478 2.73633 23.248C3.42668 23.248 3.98633 22.6884 3.98633 21.998V1.99805C3.98633 1.30769 3.42668 0.748047 2.73633 0.748047Z" fill="black"/>
<path d="M20.0146 8.31152C19.5265 7.82351 18.7342 7.82342 18.2461 8.31152C17.7586 8.79962 17.7584 9.59111 18.2461 10.0791L18.9404 10.7734H8.27246C7.5824 10.7737 7.02254 11.3333 7.02246 12.0234C7.02251 12.7136 7.58238 13.2731 8.27246 13.2734H18.9404L18.2461 13.9678C17.7582 14.4559 17.7582 15.2482 18.2461 15.7363C18.7342 16.2244 19.5265 16.2242 20.0146 15.7363L22.8428 12.9072C23.3308 12.4191 23.3308 11.6278 22.8428 11.1396L20.0146 8.31152Z" fill="black"/>
</svg>
