<svg width="24" height="24" viewBox="0 0 24 24" fill="none" xmlns="http://www.w3.org/2000/svg">
<path d="M20.7373 0.74707C20.0469 0.74707 19.4873 1.30769 19.4873 1.99805V21.998C19.4876 22.6882 20.0471 23.248 20.7373 23.248C21.4275 23.248 21.987 22.6882 21.9873 21.998V1.99707C21.987 1.30697 21.4275 0.747114 20.7373 0.74707Z" fill="black"/>
<path d="M11.4844 7.86719C11.3353 7.86906 11.1941 7.93775 11.1016 8.05469C10.9952 8.18951 10.9951 8.44914 10.9951 8.96582V10.7725H1.26953C0.579627 10.7727 0.0199309 11.3326 0.0195312 12.0225C0.0195313 12.7127 0.579381 13.2722 1.26953 13.2725H10.9951V14.9893C10.9951 15.5056 10.9955 15.7644 11.1016 15.8994C11.1941 16.0166 11.3351 16.086 11.4844 16.0879C11.6561 16.0897 11.8613 15.9324 12.2705 15.6172L16.1807 12.6045C16.4576 12.3912 16.5957 12.2843 16.6455 12.1543C16.689 12.0405 16.689 11.9146 16.6455 11.8008C16.5955 11.6709 16.4574 11.5628 16.1807 11.3496L12.2705 8.33789C11.8616 8.0229 11.656 7.86542 11.4844 7.86719Z" fill="black"/>
</svg>
