<svg width="24" height="24" viewBox="0 0 24 24" fill="none" xmlns="http://www.w3.org/2000/svg">
<path d="M20.731 1.74902C20.5929 1.74902 20.481 1.86193 20.481 2V22C20.4812 22.1378 20.593 22.25 20.731 22.25C20.8689 22.25 20.9807 22.1378 20.981 22V1.99902C20.9807 1.86118 20.8689 1.74902 20.731 1.74902Z" fill="black"/>
<path d="M13.3062 9.01855C13.2086 8.92124 13.0502 8.92123 12.9526 9.01855C12.8552 9.11611 12.8553 9.27445 12.9526 9.37207L15.354 11.7734H2.27197C2.13422 11.7736 2.02223 11.8857 2.02197 12.0234C2.02199 12.1614 2.13407 12.2732 2.27197 12.2734H15.354L12.9526 14.6748C12.8551 14.7724 12.8552 14.9307 12.9526 15.0283C13.0503 15.126 13.2085 15.126 13.3062 15.0283L16.1343 12.2002C16.2317 12.1025 16.2318 11.9442 16.1343 11.8467L13.3062 9.01855Z" fill="black"/>
</svg>
