<svg width="24" height="24" viewBox="0 0 24 24" fill="none" xmlns="http://www.w3.org/2000/svg">
<path d="M2.73145 1.74902C2.59349 1.74917 2.48145 1.86202 2.48145 2V22C2.48171 22.1378 2.59366 22.2499 2.73145 22.25C2.86935 22.25 2.98118 22.1378 2.98145 22V1.99902C2.98118 1.86118 2.86935 1.74902 2.73145 1.74902Z" fill="black"/>
<path d="M19.3066 9.01855C19.209 8.92129 19.0507 8.92119 18.9531 9.01855C18.8557 9.11609 18.8558 9.27445 18.9531 9.37207L21.3545 11.7734H8.27246C8.13477 11.7737 8.02271 11.8857 8.02246 12.0234C8.02248 12.1613 8.13462 12.2732 8.27246 12.2734H21.3545L18.9531 14.6748C18.8556 14.7723 18.8558 14.9307 18.9531 15.0283C19.0508 15.126 19.209 15.126 19.3066 15.0283L22.1348 12.2002C22.2322 12.1026 22.2323 11.9443 22.1348 11.8467L19.3066 9.01855Z" fill="black"/>
</svg>
