<svg width="24" height="24" viewBox="0 0 24 24" fill="none" xmlns="http://www.w3.org/2000/svg">
<path d="M2.73438 0.99707C2.18216 0.997155 1.73438 1.44484 1.73438 1.99707V21.9971C1.73438 22.5493 2.18216 22.997 2.73438 22.9971C3.28666 22.9971 3.73438 22.5494 3.73438 21.9971V1.99707C3.73438 1.44479 3.28666 0.99707 2.73438 0.99707Z" fill="black"/>
<path d="M19.8398 8.48828C19.4493 8.09781 18.8163 8.09778 18.4258 8.48828C18.0355 8.8788 18.0354 9.51188 18.4258 9.90234L19.5469 11.0234H8.27539C7.72328 11.0235 7.27552 11.4713 7.27539 12.0234C7.27544 12.5756 7.72323 13.0233 8.27539 13.0234H19.5469L18.4258 14.1445C18.0354 14.5351 18.0353 15.1691 18.4258 15.5596C18.8162 15.9498 19.4493 15.9497 19.8398 15.5596L22.668 12.7305C23.0585 12.3399 23.0585 11.7069 22.668 11.3164L19.8398 8.48828Z" fill="black"/>
</svg>
