<svg width="24" height="24" viewBox="0 0 24 24" fill="none" xmlns="http://www.w3.org/2000/svg">
<path d="M20.7334 1.50098C20.4573 1.50098 20.2334 1.72581 20.2334 2.00195V22.002C20.2337 22.2779 20.4574 22.502 20.7334 22.502C21.0094 22.502 21.2331 22.2779 21.2334 22.002V2.00098C21.2331 1.72506 21.0094 1.50098 20.7334 1.50098Z" fill="black"/>
<path d="M13.4814 8.8418C13.2862 8.64656 12.9697 8.64661 12.7744 8.8418C12.5792 9.03707 12.5792 9.35359 12.7744 9.54883L14.749 11.5234H2.27051C1.99454 11.5235 1.7707 11.7475 1.77051 12.0234C1.77055 12.2995 1.99445 12.5234 2.27051 12.5234H14.749L12.7744 14.499C12.5793 14.6943 12.5792 15.0109 12.7744 15.2061C12.9696 15.401 13.2862 15.4011 13.4814 15.2061L16.3096 12.377C16.5048 12.1817 16.5048 11.8652 16.3096 11.6699L13.4814 8.8418Z" fill="black"/>
</svg>
