<svg width="24" height="24" viewBox="0 0 24 24" fill="none" xmlns="http://www.w3.org/2000/svg">
<path d="M2.73438 1.50098C2.45833 1.50109 2.23438 1.72588 2.23438 2.00195V22.002C2.23464 22.2778 2.45849 22.5018 2.73438 22.502C3.01036 22.502 3.23411 22.2779 3.23438 22.002V2.00098C3.23411 1.72506 3.01035 1.50098 2.73438 1.50098Z" fill="black"/>
<path d="M18.4863 7.86816C18.337 7.87006 18.196 7.93943 18.1035 8.05664C17.9973 8.19158 17.9971 8.45022 17.9971 8.9668V11.5234H8.26758C7.99201 11.5239 7.76783 11.7478 7.76758 12.0234C7.76762 12.2992 7.99187 12.523 8.26758 12.5234H17.9971V14.9912C17.9971 15.5077 17.9972 15.7665 18.1035 15.9014C18.196 16.0185 18.3371 16.0879 18.4863 16.0898C18.658 16.0917 18.8633 15.9334 19.2725 15.6182L23.1826 12.6064C23.4595 12.3932 23.5985 12.2862 23.6484 12.1562C23.6921 12.0423 23.6921 11.9157 23.6484 11.8018C23.5986 11.6717 23.4596 11.5649 23.1826 11.3516L19.2725 8.33984C18.8632 8.02461 18.658 7.86627 18.4863 7.86816Z" fill="black"/>
</svg>
