<svg width="24" height="24" viewBox="0 0 24 24" fill="none" xmlns="http://www.w3.org/2000/svg">
<path d="M20.7344 0.99707C20.1821 0.99707 19.7344 1.44479 19.7344 1.99707V21.9971C19.7344 22.5494 20.1821 22.9971 20.7344 22.9971C21.2867 22.9971 21.7344 22.5494 21.7344 21.9971V1.99707C21.7344 1.44479 21.2867 0.99707 20.7344 0.99707Z" fill="black"/>
<path d="M13.8398 8.48828C13.4493 8.09778 12.8163 8.09776 12.4258 8.48828C12.0354 8.87881 12.0353 9.51187 12.4258 9.90234L13.5469 11.0234H2.27539C1.72324 11.0235 1.27552 11.4713 1.27539 12.0234C1.27544 12.5756 1.72319 13.0234 2.27539 13.0234H13.5469L12.4258 14.1445C12.0353 14.5351 12.0353 15.1691 12.4258 15.5596C12.8162 15.9498 13.4493 15.9497 13.8398 15.5596L16.668 12.7305C17.0585 12.3399 17.0585 11.7069 16.668 11.3164L13.8398 8.48828Z" fill="black"/>
</svg>
