<svg width="24" height="24" viewBox="0 0 24 24" fill="none" xmlns="http://www.w3.org/2000/svg">
<path d="M7.49994 3.5C7.26555 3.5 7.03702 3.52297 6.81633 3.56663C6.54543 3.62022 6.28239 3.44406 6.2288 3.17317C6.17521 2.90228 6.35137 2.63923 6.62226 2.58564C6.90652 2.52941 7.20005 2.5 7.49994 2.5C7.79983 2.5 8.09336 2.52941 8.37762 2.58564C8.64851 2.63923 8.82467 2.90228 8.77108 3.17317C8.71749 3.44406 8.45445 3.62022 8.18355 3.56663C7.96286 3.52297 7.73433 3.5 7.49994 3.5Z" fill="black"/>
<path d="M5.69296 3.39558C5.84659 3.62504 5.7851 3.9356 5.55564 4.08922C5.17374 4.3449 4.84484 4.6738 4.58916 5.0557C4.43554 5.28516 4.12498 5.34664 3.89552 5.19302C3.66605 5.0394 3.60457 4.72884 3.75819 4.49938C4.08659 4.00886 4.5088 3.58665 4.99932 3.25825C5.22878 3.10463 5.53934 3.16611 5.69296 3.39558Z" fill="black"/>
<path d="M9.30692 3.39558C9.46054 3.16611 9.7711 3.10463 10.0006 3.25825C10.4911 3.58665 10.9133 4.00886 11.2417 4.49938C11.3953 4.72884 11.3338 5.0394 11.1044 5.19302C10.8749 5.34665 10.5643 5.28516 10.4107 5.0557C10.155 4.6738 9.82614 4.3449 9.44424 4.08922C9.21478 3.9356 9.1533 3.62504 9.30692 3.39558Z" fill="black"/>
<path d="M3.67311 5.72886C3.944 5.78245 4.12016 6.04549 4.06657 6.31639C4.02291 6.53708 3.99994 6.76561 3.99994 7C3.99994 7.27614 3.77608 7.5 3.49994 7.5C3.2238 7.5 2.99994 7.27614 2.99994 7C2.99994 6.70011 3.02935 6.40658 3.08558 6.12232C3.13917 5.85143 3.40222 5.67527 3.67311 5.72886Z" fill="black"/>
<path d="M11 7.00441L11 8.875H12V7C12 6.76561 12.0229 6.53708 12.0666 6.31639C12.1202 6.04549 11.944 5.78245 11.6731 5.72886C11.6143 5.71723 11.5559 5.71642 11.4999 5.72505C11.444 5.71642 11.3855 5.71723 11.3268 5.72886C11.0559 5.78245 10.8797 6.04549 10.9333 6.31639C10.977 6.53708 10.9999 6.76561 10.9999 7C10.9999 7.00147 10.9999 7.00294 11 7.00441Z" fill="black"/>
<path d="M12 9.625H11V12.375H12V9.625Z" fill="black"/>
<path d="M12 13.125H11V15.875H12V13.125Z" fill="black"/>
<path d="M12 16.625H11V19.375H12V16.625Z" fill="black"/>
<path d="M12 20.125H11V21.5C11 21.7761 11.2238 22 11.5 22C11.7761 22 12 21.7761 12 21.5V20.125Z" fill="black"/>
<path d="M1.52215 11.0313C4.15362 9.62953 7.11058 8.7546 10.25 8.5476V19.5981C9.20314 19.741 8.20577 20.0367 7.28089 20.4616C6.83028 20.6686 6.27436 20.5288 5.99558 20.0881L1.15499 12.4368C0.851172 11.9565 1.00572 11.3064 1.52215 11.0313Z" fill="black"/>
<path d="M16.6808 20.7419C15.4895 20.1056 14.161 19.6903 12.75 19.5515V8.52504C16.2923 8.69414 19.6121 9.713 22.5068 11.3817C23.0021 11.6672 23.1422 12.3017 22.8452 12.7712L18.0214 20.3959C17.7295 20.8574 17.138 20.986 16.6808 20.7419Z" fill="black"/>
<path d="M16.1836 3.56663C15.9629 3.52297 15.7343 3.5 15.4999 3.5C15.2656 3.5 15.037 3.52297 14.8163 3.56663C14.5454 3.62022 14.2824 3.44406 14.2288 3.17317C14.1752 2.90228 14.3514 2.63923 14.6223 2.58564C14.9065 2.52941 15.2 2.5 15.4999 2.5C15.7998 2.5 16.0934 2.52941 16.3776 2.58564C16.6485 2.63923 16.8247 2.90228 16.7711 3.17317C16.7175 3.44406 16.4544 3.62022 16.1836 3.56663Z" fill="black"/>
<path d="M17.4442 4.08922C17.2148 3.9356 17.1533 3.62504 17.3069 3.39558C17.4605 3.16611 17.7711 3.10463 18.0006 3.25825C18.4911 3.58665 18.9133 4.00886 19.2417 4.49938C19.3953 4.72884 19.3338 5.0394 19.1044 5.19302C18.8749 5.34664 18.5643 5.28516 18.4107 5.0557C18.155 4.6738 17.8261 4.3449 17.4442 4.08922Z" fill="black"/>
<path d="M12.9993 3.25825C13.2288 3.10463 13.5393 3.16611 13.693 3.39558C13.8466 3.62504 13.7851 3.9356 13.5556 4.08922C13.1737 4.3449 12.8448 4.6738 12.5892 5.0557C12.4355 5.28516 12.125 5.34665 11.8955 5.19302C11.6661 5.0394 11.6046 4.72884 11.7582 4.49938C12.0866 4.00886 12.5088 3.58665 12.9993 3.25825Z" fill="black"/>
<path d="M18.9333 6.31639C18.8797 6.04549 19.0559 5.78245 19.3268 5.72886C19.5977 5.67527 19.8607 5.85143 19.9143 6.12232C19.9705 6.40658 19.9999 6.70011 19.9999 7C19.9999 7.27614 19.7761 7.5 19.4999 7.5C19.2238 7.5 18.9999 7.27614 18.9999 7C18.9999 6.76561 18.977 6.53708 18.9333 6.31639Z" fill="black"/>
</svg>
