<svg width="24" height="24" viewBox="0 0 24 24" fill="none" xmlns="http://www.w3.org/2000/svg">
<path d="M4.37935 3.5C3.97688 3.49999 3.64468 3.49999 3.37409 3.5221C3.09304 3.54506 2.83469 3.59434 2.59202 3.71799C2.2157 3.90973 1.90973 4.2157 1.71799 4.59202C1.59434 4.83469 1.54506 5.09304 1.5221 5.37409C1.49999 5.64468 1.49999 5.97685 1.5 6.37932V14.6207C1.49999 15.0231 1.49999 15.3553 1.5221 15.6259C1.54506 15.907 1.59434 16.1653 1.71799 16.408C1.90973 16.7843 2.2157 17.0903 2.59202 17.282C2.83469 17.4057 3.09304 17.4549 3.37409 17.4779C3.64468 17.5 3.97686 17.5 4.37934 17.5H8.95612L4.11858 8.47245C3.85772 7.98565 4.04088 7.37956 4.52768 7.1187C5.01447 6.85784 5.62057 7.041 5.88142 7.5278L11.2252 17.5H19.6207C20.0231 17.5 20.3553 17.5 20.6259 17.4779C20.907 17.4549 21.1653 17.4057 21.408 17.282C21.7843 17.0903 22.0903 16.7843 22.282 16.408C22.4057 16.1653 22.4549 15.907 22.4779 15.6259C22.5 15.3553 22.5 15.0232 22.5 14.6207V6.37934C22.5 5.97688 22.5 5.64467 22.4779 5.37409C22.4549 5.09304 22.4057 4.83469 22.282 4.59202C22.0903 4.2157 21.7843 3.90973 21.408 3.71799C21.1653 3.59434 20.907 3.54506 20.6259 3.5221C20.3553 3.49999 20.0231 3.49999 19.6207 3.5H4.37935Z" fill="black"/>
<path d="M4.76383 7.55934C5.00723 7.42891 5.31027 7.52049 5.4407 7.76389L11.5975 19.2533C11.6277 19.2511 11.6582 19.25 11.689 19.25C12.3794 19.25 12.939 19.8096 12.939 20.5C12.939 21.1904 12.3794 21.75 11.689 21.75C10.9987 21.75 10.439 21.1904 10.439 20.5C10.439 20.2047 10.5414 19.9333 10.7127 19.7194L4.55928 8.23621C4.42885 7.99281 4.52043 7.68977 4.76383 7.55934Z" fill="black"/>
</svg>
