<svg width="24" height="24" viewBox="0 0 24 24" fill="none" xmlns="http://www.w3.org/2000/svg">
<path d="M1.63978 6.25192C4.63722 4.65523 8.06206 3.75 11.6985 3.75C15.5903 3.75 19.2396 4.78679 22.382 6.59825C22.7507 6.8108 22.8572 7.28472 22.634 7.63758L17.8103 15.2623C17.6737 15.4782 17.4481 15.5981 17.2131 15.612C17.1488 15.423 17.0736 15.2372 16.9876 15.0555L17.0343 15.0803C17.1634 15.1493 17.3169 15.107 17.3877 14.995L22.2115 7.37026C22.2871 7.25076 22.2478 7.09804 22.1323 7.03143C19.0639 5.26262 15.5004 4.25 11.6985 4.25C8.14594 4.25 4.80163 5.13417 1.87485 6.69321C1.75457 6.75728 1.71153 6.91348 1.7889 7.03578L6.62949 14.6871C6.69727 14.7943 6.84108 14.8383 6.96789 14.7801C7.23878 14.6556 7.51545 14.5415 7.79739 14.4383C7.88809 14.584 7.98652 14.726 8.0927 14.8635C7.78048 14.9735 7.47488 15.0974 7.17663 15.2344C6.83395 15.3919 6.41539 15.2839 6.20695 14.9544L1.36636 7.3031C1.13802 6.94218 1.2554 6.45667 1.63978 6.25192Z" fill="black"/>
<path d="M14.6196 14.1294C14.7367 14.3501 14.8704 14.5636 15.0206 14.7679C14.3948 14.5668 13.7439 14.421 13.0738 14.3363C12.9981 14.2262 12.9178 14.1186 12.8329 14.0137C12.7741 13.9412 12.7185 13.8668 12.666 13.7907C13.3354 13.8472 13.9883 13.9618 14.6196 14.1294Z" fill="black"/>
<path d="M10.948 13.7744C11.0206 13.9403 11.102 14.1029 11.1922 14.2616C10.666 14.2858 10.1497 14.3474 9.64585 14.4438C9.54964 14.2961 9.44531 14.1525 9.33286 14.0137L9.32133 13.9994C9.85081 13.8865 10.394 13.8106 10.948 13.7744Z" fill="black"/>
<path d="M8.94426 8.90736C9.03117 8.80008 9.01465 8.64265 8.90736 8.55574C8.80007 8.46884 8.64264 8.48536 8.55573 8.59265C7.14809 10.3305 7.14809 12.9053 8.55574 14.6431C9.81476 16.1974 9.81475 18.5097 8.55574 20.0641C8.46883 20.1714 8.48535 20.3288 8.59264 20.4157C8.69993 20.5026 8.85736 20.4861 8.94427 20.3788C10.3519 18.641 10.3519 16.0662 8.94427 14.3284C7.68525 12.774 7.68525 10.4617 8.94426 8.90736Z" fill="black"/>
<path d="M15.9443 8.90746C16.0312 8.80018 16.0146 8.64275 15.9074 8.55584C15.8001 8.46894 15.6426 8.48546 15.5557 8.59275C14.1481 10.3306 14.1481 12.9053 15.5557 14.6431C16.8148 16.1974 16.8148 18.5097 15.5557 20.0641C15.4688 20.1713 15.4854 20.3288 15.5926 20.4157C15.6999 20.5026 15.8574 20.4861 15.9443 20.3788C17.3519 18.641 17.3519 16.0662 15.9443 14.3284C14.6852 12.7741 14.6852 10.4618 15.9443 8.90746Z" fill="black"/>
<path d="M12.4074 8.55584C12.5146 8.64275 12.5312 8.80018 12.4443 8.90746C11.1852 10.4618 11.1852 12.7741 12.4443 14.3284C13.8519 16.0662 13.8519 18.641 12.4443 20.3788C12.3574 20.4861 12.1999 20.5026 12.0926 20.4157C11.9854 20.3288 11.9688 20.1713 12.0557 20.0641C13.3148 18.5097 13.3148 16.1974 12.0557 14.6431C10.6481 12.9053 10.6481 10.3306 12.0557 8.59275C12.1426 8.48546 12.3001 8.46894 12.4074 8.55584Z" fill="black"/>
</svg>
