<svg width="24" height="24" viewBox="0 0 24 24" fill="none" xmlns="http://www.w3.org/2000/svg">
<path d="M11.6985 3.75C8.06206 3.75 4.63722 4.65523 1.63978 6.25192C1.2554 6.45667 1.13802 6.94218 1.36636 7.3031L6.20695 14.9544C6.41539 15.2839 6.83395 15.3919 7.17663 15.2344C7.47488 15.0974 7.78048 14.9735 8.0927 14.8635C6.6114 12.9446 6.63626 10.1681 8.16726 8.27796C8.42798 7.95609 8.90026 7.90652 9.22213 8.16723C9.544 8.42795 9.59357 8.90023 9.33286 9.2221C8.22246 10.5929 8.22246 12.6428 9.33286 14.0137C9.44531 14.1525 9.54964 14.2961 9.64585 14.4438C10.1497 14.3474 10.666 14.2858 11.1922 14.2616C10.1316 12.3962 10.2899 9.97844 11.6673 8.27806C11.928 7.95619 12.4003 7.90662 12.7221 8.16734C13.044 8.42805 13.0936 8.90033 12.8329 9.2222C11.7225 10.593 11.7225 12.6429 12.8329 14.0137C12.9178 14.1186 12.9981 14.2262 13.0738 14.3363C13.7439 14.421 14.3948 14.5668 15.0206 14.7679C13.6126 12.8533 13.6615 10.137 15.1673 8.27806C15.428 7.95619 15.9003 7.90662 16.2221 8.16734C16.544 8.42805 16.5936 8.90033 16.3329 9.2222C15.2225 10.593 15.2225 12.6429 16.3329 14.0137C16.7252 14.4981 17.0186 15.0406 17.2131 15.612C17.4481 15.5981 17.6737 15.4782 17.8103 15.2623L22.634 7.63758C22.8572 7.28472 22.7507 6.8108 22.382 6.59825C19.2396 4.78679 15.5903 3.75 11.6985 3.75Z" fill="black"/>
<path d="M8.94427 8.90736C9.03117 8.80008 9.01465 8.64265 8.90736 8.55574C8.80007 8.46884 8.64264 8.48536 8.55574 8.59265C7.14809 10.3305 7.14809 12.9053 8.55574 14.6431C9.81476 16.1974 9.81476 18.5097 8.55574 20.0641C8.46883 20.1714 8.48535 20.3288 8.59264 20.4157C8.69993 20.5026 8.85736 20.4861 8.94427 20.3788C10.3519 18.641 10.3519 16.0662 8.94427 14.3284C7.68525 12.774 7.68525 10.4617 8.94427 8.90736Z" fill="black"/>
<path d="M15.9443 8.90746C16.0312 8.80018 16.0146 8.64275 15.9074 8.55584C15.8001 8.46894 15.6426 8.48546 15.5557 8.59275C14.1481 10.3306 14.1481 12.9053 15.5557 14.6431C16.8148 16.1974 16.8148 18.5097 15.5557 20.0641C15.4688 20.1713 15.4854 20.3288 15.5926 20.4157C15.6999 20.5026 15.8574 20.4861 15.9443 20.3788C17.3519 18.641 17.3519 16.0662 15.9443 14.3284C14.6852 12.7741 14.6852 10.4618 15.9443 8.90746Z" fill="black"/>
<path d="M12.4074 8.55584C12.5146 8.64275 12.5312 8.80018 12.4443 8.90746C11.1852 10.4618 11.1852 12.7741 12.4443 14.3284C13.8519 16.0662 13.8519 18.641 12.4443 20.3788C12.3574 20.4861 12.1999 20.5026 12.0926 20.4157C11.9854 20.3288 11.9688 20.1713 12.0557 20.0641C13.3148 18.5097 13.3148 16.1974 12.0557 14.6431C10.6481 12.9053 10.6481 10.3306 12.0557 8.59275C12.1426 8.48546 12.3001 8.46894 12.4074 8.55584Z" fill="black"/>
</svg>
