<svg width="24" height="24" viewBox="0 0 24 24" fill="none" xmlns="http://www.w3.org/2000/svg">
<path d="M1.63954 6.25192C4.63698 4.65523 8.06182 3.75 11.6983 3.75C15.5901 3.75 19.2393 4.78679 22.3818 6.59825C22.7505 6.8108 22.857 7.28472 22.6338 7.63758L17.81 15.2623C17.6735 15.4782 17.4478 15.5981 17.2129 15.612C17.1485 15.423 17.0734 15.2372 16.9874 15.0555L17.034 15.0803C17.1632 15.1493 17.3166 15.107 17.3875 14.995L22.2112 7.37026C22.2868 7.25076 22.2476 7.09804 22.1321 7.03143C19.0636 5.26262 15.5002 4.25 11.6983 4.25C8.1457 4.25 4.80138 5.13417 1.87461 6.69321C1.75433 6.75728 1.71128 6.91348 1.78865 7.03578L6.62924 14.6871C6.69702 14.7943 6.84084 14.8383 6.96765 14.7801C7.23854 14.6556 7.51521 14.5415 7.79715 14.4383C7.88785 14.584 7.98628 14.726 8.09245 14.8635C7.78024 14.9735 7.47463 15.0974 7.17638 15.2344C6.83371 15.3919 6.41515 15.2839 6.2067 14.9544L1.36611 7.3031C1.13778 6.94218 1.25516 6.45667 1.63954 6.25192Z" fill="black"/>
<path d="M14.6193 14.1294C14.7364 14.3501 14.8701 14.5636 15.0204 14.7679C14.3946 14.5668 13.7437 14.421 13.0736 14.3363C12.9979 14.2262 12.9176 14.1186 12.8326 14.0137C12.7739 13.9412 12.7182 13.8668 12.6657 13.7907C13.3352 13.8472 13.9881 13.9618 14.6193 14.1294Z" fill="black"/>
<path d="M10.9478 13.7744C11.0203 13.9403 11.1017 14.1029 11.1919 14.2616C10.6657 14.2858 10.1494 14.3474 9.6456 14.4438C9.5494 14.2961 9.44507 14.1525 9.33261 14.0137L9.32109 13.9994C9.85057 13.8865 10.3938 13.8106 10.9478 13.7744Z" fill="black"/>
<path d="M8.94402 8.90736C9.03093 8.80008 9.0144 8.64265 8.90711 8.55574C8.79982 8.46884 8.6424 8.48536 8.55549 8.59265C7.14784 10.3305 7.14784 12.9053 8.55549 14.6431C9.81451 16.1974 9.81451 18.5097 8.55549 20.0641C8.46859 20.1714 8.48511 20.3288 8.5924 20.4157C8.69969 20.5026 8.85712 20.4861 8.94402 20.3788C10.3517 18.641 10.3517 16.0662 8.94402 14.3284C7.685 12.774 7.685 10.4617 8.94402 8.90736Z" fill="black"/>
<path d="M15.944 8.90746C16.0309 8.80018 16.0144 8.64275 15.9071 8.55584C15.7998 8.46894 15.6424 8.48546 15.5555 8.59275C14.1478 10.3306 14.1478 12.9053 15.5555 14.6431C16.8145 16.1974 16.8145 18.5097 15.5555 20.0641C15.4686 20.1713 15.4851 20.3288 15.5924 20.4157C15.6997 20.5026 15.8571 20.4861 15.944 20.3788C17.3517 18.641 17.3517 16.0662 15.944 14.3284C14.685 12.7741 14.685 10.4618 15.944 8.90746Z" fill="black"/>
<path d="M12.4071 8.55584C12.5144 8.64275 12.5309 8.80018 12.444 8.90746C11.185 10.4618 11.185 12.7741 12.444 14.3284C13.8517 16.0662 13.8517 18.641 12.444 20.3788C12.3571 20.4861 12.1997 20.5026 12.0924 20.4157C11.9851 20.3288 11.9686 20.1713 12.0555 20.0641C13.3145 18.5097 13.3145 16.1974 12.0555 14.6431C10.6478 12.9053 10.6478 10.3306 12.0555 8.59275C12.1424 8.48546 12.2998 8.46894 12.4071 8.55584Z" fill="black"/>
</svg>
