<svg width="24" height="24" viewBox="0 0 24 24" fill="none" xmlns="http://www.w3.org/2000/svg">
<path d="M7.49955 3.75C7.0575 3.75 6.63785 3.83784 6.25569 3.99632C5.87307 4.15498 5.43427 3.97343 5.27561 3.59081C5.11694 3.20819 5.29849 2.76939 5.68111 2.61073C6.24221 2.37805 6.85688 2.25 7.49955 2.25C8.14223 2.25 8.75689 2.37805 9.318 2.61073C9.70061 2.76939 9.88217 3.20819 9.7235 3.59081C9.56483 3.97343 9.12603 4.15498 8.74341 3.99632C8.36125 3.83784 7.94161 3.75 7.49955 3.75Z" fill="black"/>
<path d="M4.09037 4.77605C4.47299 4.93472 4.65454 5.37352 4.49587 5.75614C4.33739 6.1383 4.24955 6.55795 4.24955 7C4.24955 7.41421 3.91377 7.75 3.49955 7.75C3.08534 7.75 2.74955 7.41421 2.74955 7C2.74955 6.35732 2.8776 5.74266 3.11028 5.18156C3.26895 4.79894 3.70775 4.61739 4.09037 4.77605Z" fill="black"/>
<path d="M10.7496 7.00567L10.7496 7C10.7496 6.55795 10.6617 6.1383 10.5032 5.75614C10.3446 5.37352 10.5261 4.93472 10.9087 4.77605C11.1061 4.69421 11.3184 4.70289 11.4996 4.78301C11.6807 4.70289 11.893 4.69421 12.0904 4.77605C12.473 4.93472 12.6545 5.37352 12.4959 5.75614C12.3388 6.13489 12.2511 6.55046 12.2496 6.98817V10H10.7496V7.00567Z" fill="black"/>
<path d="M12.2496 12H10.7496V17H12.2496V12Z" fill="black"/>
<path d="M12.2496 19H10.7496V21.5C10.7496 21.9142 11.0854 22.25 11.4996 22.25C11.9138 22.25 12.2496 21.9142 12.2496 21.5V19Z" fill="black"/>
<path d="M1.40427 10.8106C3.93087 9.46474 6.75402 8.59902 9.74957 8.33536V9.84159C7.10544 10.0915 4.60988 10.8447 2.35966 12.0035L6.94043 19.2441C7.82545 18.8555 8.76726 18.5721 9.74957 18.4095V19.933C8.92153 20.0906 8.12914 20.3469 7.38491 20.6888C6.82637 20.9454 6.13307 20.7736 5.78396 20.2218L0.943371 12.5704C0.564075 11.9709 0.755789 11.1561 1.40427 10.8106Z" fill="black"/>
<path d="M17.0825 19.5416C15.9054 18.9398 14.6138 18.5292 13.2496 18.3507V19.8654C14.4324 20.043 15.5485 20.4207 16.5627 20.9624C17.1293 21.265 17.8668 21.1075 18.2324 20.5296L23.0561 12.9049C23.427 12.3187 23.2532 11.5236 22.6313 11.1651C19.8362 9.55384 16.6494 8.54158 13.2496 8.30402V9.80795C16.2829 10.0354 19.1293 10.9244 21.6449 12.3299L17.0825 19.5416Z" fill="black"/>
<path d="M16.7434 3.99632C16.3613 3.83784 15.9416 3.75 15.4996 3.75C15.0575 3.75 14.6379 3.83784 14.2557 3.99632C13.8731 4.15498 13.4343 3.97343 13.2756 3.59081C13.1169 3.20819 13.2985 2.76939 13.6811 2.61073C14.2422 2.37805 14.8569 2.25 15.4996 2.25C16.1422 2.25 16.7569 2.37805 17.318 2.61073C17.7006 2.76939 17.8822 3.20819 17.7235 3.59081C17.5648 3.97343 17.126 4.15498 16.7434 3.99632Z" fill="black"/>
<path d="M18.5032 5.75614C18.3446 5.37352 18.5261 4.93472 18.9087 4.77605C19.2914 4.61739 19.7302 4.79894 19.8888 5.18156C20.1215 5.74266 20.2496 6.35732 20.2496 7C20.2496 7.41421 19.9138 7.75 19.4996 7.75C19.0853 7.75 18.7496 7.41421 18.7496 7C18.7496 6.55795 18.6617 6.1383 18.5032 5.75614Z" fill="black"/>
</svg>
