<svg width="24" height="24" viewBox="0 0 24 24" fill="none" xmlns="http://www.w3.org/2000/svg">
<path fill-rule="evenodd" clip-rule="evenodd" d="M4.36392 3C3.97485 2.99998 3.62467 2.99996 3.33337 3.02376C3.02141 3.04925 2.68993 3.10694 2.36503 3.27249C1.89462 3.51217 1.51217 3.89462 1.27249 4.36503C1.10694 4.68993 1.04925 5.02141 1.02376 5.33338C0.999961 5.62468 0.99998 5.97479 1 6.36385V14.6361C0.99998 15.0252 0.999961 15.3753 1.02376 15.6666C1.04925 15.9786 1.10694 16.3101 1.27249 16.635C1.51217 17.1054 1.89462 17.4878 2.36503 17.7275C2.68993 17.8931 3.02141 17.9508 3.33337 17.9762C3.62469 18 3.97483 18 4.36392 18L9.22409 18L10.283 19.9762C10.2223 20.1392 10.189 20.3157 10.189 20.5C10.189 21.3284 10.8606 22 11.689 22C12.5175 22 13.189 21.3284 13.189 20.5C13.189 19.797 12.7055 19.207 12.0528 19.0444L11.4931 18L19.6361 18C20.0252 18 20.3753 18 20.6666 17.9762C20.9786 17.9508 21.3101 17.8931 21.635 17.7275C22.1054 17.4878 22.4878 17.1054 22.7275 16.635C22.8931 16.3101 22.9508 15.9786 22.9762 15.6666C23 15.3753 23 15.0252 23 14.6361V6.3639C23 5.97482 23 5.62468 22.9762 5.33338C22.9508 5.02141 22.8931 4.68993 22.7275 4.36503C22.4878 3.89462 22.1054 3.51217 21.635 3.27249C21.3101 3.10694 20.9786 3.04925 20.6666 3.02376C20.3753 2.99996 20.0252 2.99998 19.6362 3H4.36392ZM10.4214 16H19.6C20.0365 16 20.3038 15.9992 20.5038 15.9829C20.5969 15.9753 20.6533 15.9657 20.6875 15.9577C20.7038 15.9538 20.7138 15.9506 20.7192 15.9487C20.7225 15.9475 20.7245 15.9467 20.7257 15.9461L20.727 15.9455C20.8211 15.8976 20.8976 15.8211 20.9455 15.727C20.9457 15.7266 20.9468 15.7244 20.9487 15.7192C20.9506 15.7138 20.9538 15.7038 20.9577 15.6875C20.9657 15.6533 20.9753 15.5969 20.9829 15.5038C20.9992 15.3038 21 15.0365 21 14.6V6.4C21 5.96346 20.9992 5.6962 20.9829 5.49624C20.9753 5.40309 20.9657 5.34673 20.9577 5.3125C20.9538 5.29622 20.9506 5.28621 20.9487 5.28079C20.9468 5.27559 20.9457 5.27341 20.9455 5.27301C20.8976 5.17893 20.8211 5.10244 20.727 5.0545C20.7266 5.0543 20.7244 5.05319 20.7192 5.05133C20.7138 5.0494 20.7038 5.04618 20.6875 5.04235C20.6533 5.03429 20.5969 5.02473 20.5038 5.01712C20.3038 5.00078 20.0365 5 19.6 5H4.4C3.96346 5 3.6962 5.00078 3.49624 5.01712C3.40309 5.02473 3.34673 5.03429 3.3125 5.04235C3.29622 5.04618 3.28621 5.0494 3.28079 5.05133C3.27559 5.05319 3.27341 5.0543 3.27301 5.0545C3.17893 5.10244 3.10244 5.17893 3.0545 5.27301C3.0543 5.27341 3.05319 5.27559 3.05133 5.28079C3.0494 5.28621 3.04618 5.29622 3.04235 5.3125C3.03429 5.34673 3.02473 5.40309 3.01712 5.49624C3.00078 5.6962 3 5.96346 3 6.4V14.6C3 15.0365 3.00078 15.3038 3.01712 15.5038C3.02473 15.5969 3.03429 15.6533 3.04235 15.6875C3.04618 15.7038 3.0494 15.7138 3.05133 15.7192C3.05319 15.7244 3.0543 15.7266 3.0545 15.727C3.10244 15.8211 3.17893 15.8976 3.27301 15.9455C3.27341 15.9457 3.27559 15.9468 3.28079 15.9487C3.28621 15.9506 3.29622 15.9538 3.3125 15.9577C3.34673 15.9657 3.40309 15.9753 3.49624 15.9829C3.6962 15.9992 3.96346 16 4.4 16H8.15236L4.11857 8.47238C3.85771 7.98558 4.04087 7.37949 4.52767 7.11863C5.01446 6.85777 5.62056 7.04093 5.88142 7.52773L10.4214 16Z" fill="black"/>
</svg>
