<svg width="24" height="24" viewBox="0 0 24 24" fill="none" xmlns="http://www.w3.org/2000/svg">
<path d="M7.49965 3.5C7.26527 3.5 7.03674 3.52297 6.81604 3.56663C6.54515 3.62022 6.2821 3.44406 6.22851 3.17317C6.17492 2.90228 6.35108 2.63923 6.62197 2.58564C6.90624 2.52941 7.19976 2.5 7.49965 2.5C7.79955 2.5 8.09307 2.52941 8.37734 2.58564C8.64823 2.63923 8.82439 2.90228 8.7708 3.17317C8.71721 3.44406 8.45416 3.62022 8.18327 3.56663C7.96257 3.52297 7.73404 3.5 7.49965 3.5Z" fill="black"/>
<path d="M5.69268 3.39558C5.8463 3.62504 5.78482 3.9356 5.55535 4.08922C5.17346 4.3449 4.84455 4.6738 4.58888 5.0557C4.43525 5.28516 4.1247 5.34664 3.89523 5.19302C3.66577 5.0394 3.60429 4.72884 3.75791 4.49938C4.0863 4.00886 4.50852 3.58665 4.99903 3.25825C5.2285 3.10463 5.53905 3.16611 5.69268 3.39558Z" fill="black"/>
<path d="M9.30663 3.39558C9.46026 3.16611 9.77081 3.10463 10.0003 3.25825C10.4908 3.58665 10.913 4.00886 11.2414 4.49938C11.395 4.72884 11.3335 5.0394 11.1041 5.19302C10.8746 5.34665 10.5641 5.28516 10.4104 5.0557C10.1548 4.6738 9.82585 4.3449 9.44396 4.08922C9.21449 3.9356 9.15301 3.62504 9.30663 3.39558Z" fill="black"/>
<path d="M3.67283 5.72886C3.94372 5.78245 4.11988 6.04549 4.06628 6.31639C4.02262 6.53708 3.99965 6.76561 3.99965 7C3.99965 7.27614 3.7758 7.5 3.49965 7.5C3.22351 7.5 2.99965 7.27614 2.99965 7C2.99965 6.70011 3.02906 6.40658 3.0853 6.12232C3.13889 5.85143 3.40193 5.67527 3.67283 5.72886Z" fill="black"/>
<path d="M10.9997 7.00463V8.875H11.9997V7C11.9997 6.76561 12.0226 6.53708 12.0663 6.31639C12.1199 6.04549 11.9437 5.78245 11.6728 5.72886C11.614 5.71723 11.5556 5.71642 11.4997 5.72505C11.4437 5.71642 11.3853 5.71723 11.3265 5.72886C11.0556 5.78245 10.8794 6.04549 10.933 6.31639C10.9767 6.53708 10.9997 6.76561 10.9997 7C10.9997 7.00154 10.9997 7.00309 10.9997 7.00463Z" fill="black"/>
<path d="M11.9997 9.625H10.9997V12.375H11.9997V9.625Z" fill="black"/>
<path d="M11.9997 13.125H10.9997V15.875H11.9997V13.125Z" fill="black"/>
<path d="M11.9997 16.625H10.9997V19.375H11.9997V16.625Z" fill="black"/>
<path d="M11.9997 20.125H10.9997V21.5C10.9997 21.7761 11.2235 22 11.4997 22C11.7758 22 11.9997 21.7761 11.9997 21.5V20.125Z" fill="black"/>
<path d="M1.5219 11.0313C4.0834 9.6668 6.95332 8.8015 9.99968 8.56553V9.56867C7.12641 9.80199 4.4209 10.622 2.00342 11.9078L6.84041 19.5535C6.84079 19.5537 6.84192 19.5544 6.84376 19.5549C6.84882 19.5563 6.85578 19.5563 6.86318 19.5529C7.84266 19.1029 8.89599 18.7855 9.99968 18.6235V19.6353C9.04393 19.7891 8.1316 20.0707 7.28065 20.4616C6.83004 20.6686 6.27411 20.5288 5.99533 20.0881L1.15474 12.4368C0.850928 11.9565 1.00547 11.3064 1.5219 11.0313Z" fill="black"/>
<path d="M17.1517 19.8598C15.8894 19.1856 14.4869 18.7383 12.9997 18.5722V19.579C14.3177 19.7403 15.5598 20.1433 16.6806 20.7419C17.1378 20.986 17.7293 20.8574 18.0212 20.3959L22.8449 12.7712C23.142 12.3017 23.0018 11.6672 22.5065 11.3817C19.68 9.75231 16.4482 8.7425 12.9997 8.53841V9.54024C16.2635 9.74269 19.3203 10.7013 21.9965 12.2419L17.1761 19.8613C17.1757 19.8616 17.1744 19.8623 17.1724 19.8628C17.1667 19.8643 17.1593 19.8638 17.1517 19.8598Z" fill="black"/>
<path d="M16.1833 3.56663C15.9626 3.52297 15.734 3.5 15.4997 3.5C15.2653 3.5 15.0367 3.52297 14.816 3.56663C14.5451 3.62022 14.2821 3.44406 14.2285 3.17317C14.1749 2.90228 14.3511 2.63923 14.622 2.58564C14.9062 2.52941 15.1998 2.5 15.4997 2.5C15.7995 2.5 16.0931 2.52941 16.3773 2.58564C16.6482 2.63923 16.8244 2.90228 16.7708 3.17317C16.7172 3.44406 16.4542 3.62022 16.1833 3.56663Z" fill="black"/>
<path d="M17.444 4.08922C17.2145 3.9356 17.153 3.62504 17.3066 3.39558C17.4603 3.16611 17.7708 3.10463 18.0003 3.25825C18.4908 3.58665 18.913 4.00886 19.2414 4.49938C19.395 4.72884 19.3335 5.0394 19.1041 5.19302C18.8746 5.34664 18.5641 5.28516 18.4104 5.0557C18.1548 4.6738 17.8259 4.3449 17.444 4.08922Z" fill="black"/>
<path d="M12.999 3.25825C13.2285 3.10463 13.5391 3.16611 13.6927 3.39558C13.8463 3.62504 13.7848 3.9356 13.5554 4.08922C13.1735 4.3449 12.8445 4.6738 12.5889 5.0557C12.4353 5.28516 12.1247 5.34665 11.8952 5.19302C11.6658 5.0394 11.6043 4.72884 11.7579 4.49938C12.0863 4.00886 12.5085 3.58665 12.999 3.25825Z" fill="black"/>
<path d="M18.933 6.31639C18.8794 6.04549 19.0556 5.78245 19.3265 5.72886C19.5974 5.67527 19.8604 5.85143 19.914 6.12232C19.9702 6.40658 19.9997 6.70011 19.9997 7C19.9997 7.27614 19.7758 7.5 19.4997 7.5C19.2235 7.5 18.9997 7.27614 18.9997 7C18.9997 6.76561 18.9767 6.53708 18.933 6.31639Z" fill="black"/>
</svg>
