<svg width="24" height="24" viewBox="0 0 24 24" fill="none" xmlns="http://www.w3.org/2000/svg">
<path d="M7.50008 4C7.09147 4 6.70432 4.08114 6.35199 4.22725C5.84183 4.4388 5.25676 4.19674 5.04521 3.68658C4.83365 3.17642 5.07572 2.59135 5.58588 2.3798C6.1768 2.13475 6.82397 2 7.50008 2C8.1762 2 8.82336 2.13475 9.41429 2.3798C9.92445 2.59135 10.1665 3.17642 9.95496 3.68658C9.74341 4.19674 9.15834 4.4388 8.64818 4.22725C8.29585 4.08114 7.9087 4 7.50008 4Z" fill="black"/>
<path d="M4.18666 4.54512C4.69682 4.75668 4.93889 5.34174 4.72733 5.8519C4.58122 6.20424 4.50008 6.59138 4.50008 7C4.50008 7.55228 4.05237 8 3.50008 8C2.9478 8 2.50008 7.55228 2.50008 7C2.50008 6.32388 2.63483 5.67672 2.87988 5.08579C3.09143 4.57563 3.6765 4.33357 4.18666 4.54512Z" fill="black"/>
<path d="M12.5001 6.98862C12.5016 6.58419 12.5826 6.20097 12.7273 5.8519C12.9389 5.34174 12.6968 4.75668 12.1867 4.54512C11.9595 4.4509 11.7174 4.44666 11.5001 4.516C11.2828 4.44666 11.0407 4.4509 10.8135 4.54512C10.3033 4.75668 10.0613 5.34174 10.2728 5.8519C10.4189 6.20424 10.5001 6.59138 10.5001 7C10.5001 7.00218 10.5001 7.00437 10.5001 7.00655V10.25H12.5001V6.98862Z" fill="black"/>
<path d="M12.5001 11.75H10.5001V17.25H12.5001V11.75Z" fill="black"/>
<path d="M12.5001 18.75H10.5001V21.5C10.5001 22.0523 10.9478 22.5 11.5001 22.5C12.0524 22.5 12.5001 22.0523 12.5001 21.5V18.75Z" fill="black"/>
<path d="M1.16973 10.3693C3.55509 9.09868 6.19868 8.24654 9.0001 7.91067V10.4309C6.90379 10.7142 4.91268 11.3231 3.07888 12.2043L7.13772 18.6199C7.73696 18.3816 8.35924 18.1888 9.0001 18.0459V20.6239C8.51482 20.7618 8.04517 20.9359 7.59418 21.1431C6.81977 21.4989 5.85173 21.2633 5.36195 20.4891L0.52136 12.8377C-0.00889707 11.9996 0.257152 10.8554 1.16973 10.3693Z" fill="black"/>
<path d="M16.8998 18.8959C15.9882 18.4718 15.0159 18.1558 14.0001 17.9642V20.52C14.8215 20.7165 15.6021 21.0159 16.3277 21.4034C17.1129 21.8228 18.1425 21.6077 18.6554 20.7969L23.4792 13.1722C23.9977 12.3526 23.7566 11.2363 22.8815 10.7319C20.219 9.19706 17.2091 8.19368 14.0001 7.86664V10.3812C16.4815 10.6661 18.8221 11.4062 20.9368 12.5148L16.8998 18.8959Z" fill="black"/>
<path d="M16.6482 4.22725C16.2958 4.08114 15.9087 4 15.5001 4C15.0915 4 14.7043 4.08114 14.352 4.22725C13.8418 4.4388 13.2568 4.19674 13.0452 3.68658C12.8337 3.17642 13.0757 2.59135 13.5859 2.3798C14.1768 2.13475 14.824 2 15.5001 2C16.1762 2 16.8234 2.13475 17.4143 2.3798C17.9244 2.59135 18.1665 3.17642 17.955 3.68658C17.7434 4.19674 17.1583 4.4388 16.6482 4.22725Z" fill="black"/>
<path d="M18.2728 5.8519C18.0613 5.34174 18.3033 4.75668 18.8135 4.54512C19.3237 4.33357 19.9087 4.57563 20.1203 5.08579C20.3653 5.67672 20.5001 6.32388 20.5001 7C20.5001 7.55228 20.0524 8 19.5001 8C18.9478 8 18.5001 7.55228 18.5001 7C18.5001 6.59138 18.4189 6.20424 18.2728 5.8519Z" fill="black"/>
</svg>
