<svg width="24" height="24" viewBox="0 0 24 24" fill="none" xmlns="http://www.w3.org/2000/svg">
<path d="M1.16973 5.36933C4.30849 3.69736 7.89437 2.75 11.6986 2.75C15.7701 2.75 19.5911 3.83512 22.8815 5.73189C23.7566 6.23632 23.9977 7.35264 23.4792 8.17222L18.6554 15.7969C18.6342 15.8304 18.6121 15.8629 18.5892 15.8944C18.3761 14.9418 17.9513 14.03 17.3148 13.24L20.9368 7.51483C18.1787 6.06887 15.0365 5.25 11.6986 5.25C8.60745 5.25 5.68437 5.95228 3.07888 7.20425L5.75275 11.4307C5.71006 12.961 6.19115 14.504 7.19602 15.7446C7.30825 15.8831 7.40343 16.0328 7.48156 16.1902C6.72807 16.4751 5.82825 16.2261 5.36195 15.4891L0.52136 7.83774C-0.00889707 6.99958 0.257152 5.85544 1.16973 5.36933Z" fill="black"/>
<path d="M9.52714 9.37943C9.87477 8.95027 9.80867 8.32057 9.37951 7.97295C8.95035 7.62533 8.32064 7.69142 7.97302 8.12058C6.34244 10.1336 6.34244 13.1021 7.97302 15.1151C9.0091 16.3942 9.0091 18.3129 7.97302 19.592C7.6254 20.0212 7.6915 20.6509 8.12066 20.9985C8.54982 21.3461 9.17952 21.28 9.52714 20.8508C11.1577 18.8378 11.1577 15.8693 9.52714 13.8563C8.49106 12.5772 8.49106 10.6585 9.52714 9.37943Z" fill="black"/>
<path d="M16.5271 9.37954C16.8748 8.95038 16.8087 8.32067 16.3795 7.97305C15.9504 7.62543 15.3207 7.69152 14.973 8.12068C13.3424 10.1337 13.3424 13.1022 14.973 15.1152C16.0091 16.3943 16.0091 18.3129 14.973 19.592C14.6254 20.0211 14.6915 20.6509 15.1207 20.9985C15.5498 21.3461 16.1795 21.28 16.5271 20.8508C18.1577 18.8378 18.1577 15.8694 16.5271 13.8563C15.4911 12.5773 15.4911 10.6586 16.5271 9.37954Z" fill="black"/>
<path d="M12.8795 7.97305C13.3087 8.32067 13.3748 8.95038 13.0271 9.37954C11.9911 10.6586 11.9911 12.5773 13.0271 13.8563C14.6577 15.8694 14.6577 18.8378 13.0271 20.8508C12.6795 21.28 12.0498 21.3461 11.6207 20.9985C11.1915 20.6509 11.1254 20.0211 11.473 19.592C12.5091 18.3129 12.5091 16.3943 11.473 15.1152C9.84244 13.1022 9.84244 10.1337 11.473 8.12068C11.8207 7.69152 12.4504 7.62543 12.8795 7.97305Z" fill="black"/>
</svg>
