<svg width="24" height="24" viewBox="0 0 24 24" fill="none" xmlns="http://www.w3.org/2000/svg">
<path d="M11.6983 3.75C8.06182 3.75 4.63698 4.65523 1.63954 6.25192C1.25516 6.45667 1.13778 6.94218 1.36611 7.3031L6.2067 14.9544C6.41515 15.2839 6.83371 15.3919 7.17638 15.2344C7.47463 15.0974 7.78024 14.9735 8.09245 14.8635C6.61116 12.9446 6.63602 10.1681 8.16702 8.27796C8.42774 7.95609 8.90002 7.90652 9.22188 8.16723C9.54375 8.42795 9.59333 8.90023 9.33261 9.2221C8.22222 10.5929 8.22222 12.6428 9.33261 14.0137C9.44507 14.1525 9.5494 14.2961 9.6456 14.4438C10.1494 14.3474 10.6657 14.2858 11.1919 14.2616C10.1313 12.3962 10.2897 9.97844 11.667 8.27806C11.9277 7.95619 12.4 7.90662 12.7219 8.16734C13.0438 8.42805 13.0933 8.90033 12.8326 9.2222C11.7222 10.593 11.7222 12.6429 12.8326 14.0137C12.9176 14.1186 12.9979 14.2262 13.0736 14.3363C13.7437 14.421 14.3946 14.5668 15.0204 14.7679C13.6124 12.8533 13.6613 10.137 15.167 8.27806C15.4277 7.95619 15.9 7.90662 16.2219 8.16734C16.5438 8.42805 16.5933 8.90033 16.3326 9.2222C15.2222 10.593 15.2222 12.6429 16.3326 14.0137C16.7249 14.4981 17.0184 15.0406 17.2129 15.612C17.4478 15.5981 17.6735 15.4782 17.81 15.2623L22.6338 7.63758C22.857 7.28472 22.7505 6.8108 22.3818 6.59825C19.2393 4.78679 15.5901 3.75 11.6983 3.75Z" fill="black"/>
<path d="M8.94402 8.90736C9.03093 8.80008 9.0144 8.64265 8.90711 8.55574C8.79982 8.46884 8.6424 8.48536 8.55549 8.59265C7.14784 10.3305 7.14784 12.9053 8.55549 14.6431C9.81451 16.1974 9.81451 18.5097 8.55549 20.0641C8.46859 20.1714 8.48511 20.3288 8.5924 20.4157C8.69969 20.5026 8.85712 20.4861 8.94402 20.3788C10.3517 18.641 10.3517 16.0662 8.94402 14.3284C7.685 12.774 7.685 10.4617 8.94402 8.90736Z" fill="black"/>
<path d="M15.944 8.90746C16.0309 8.80018 16.0144 8.64275 15.9071 8.55584C15.7998 8.46894 15.6424 8.48546 15.5555 8.59275C14.1478 10.3306 14.1478 12.9053 15.5555 14.6431C16.8145 16.1974 16.8145 18.5097 15.5555 20.0641C15.4686 20.1713 15.4851 20.3288 15.5924 20.4157C15.6997 20.5026 15.8571 20.4861 15.944 20.3788C17.3517 18.641 17.3517 16.0662 15.944 14.3284C14.685 12.7741 14.685 10.4618 15.944 8.90746Z" fill="black"/>
<path d="M12.4071 8.55584C12.5144 8.64275 12.5309 8.80018 12.444 8.90746C11.185 10.4618 11.185 12.7741 12.444 14.3284C13.8517 16.0662 13.8517 18.641 12.444 20.3788C12.3571 20.4861 12.1997 20.5026 12.0924 20.4157C11.9851 20.3288 11.9686 20.1713 12.0555 20.0641C13.3145 18.5097 13.3145 16.1974 12.0555 14.6431C10.6478 12.9053 10.6478 10.3306 12.0555 8.59275C12.1424 8.48546 12.2998 8.46894 12.4071 8.55584Z" fill="black"/>
</svg>
