<svg width="24" height="24" viewBox="0 0 24 24" fill="none" xmlns="http://www.w3.org/2000/svg">
<path fill-rule="evenodd" clip-rule="evenodd" d="M4.37935 3.5C3.97687 3.49999 3.64468 3.49999 3.37409 3.5221C3.09304 3.54506 2.83469 3.59434 2.59202 3.71799C2.2157 3.90973 1.90973 4.2157 1.71799 4.59202C1.59434 4.83469 1.54506 5.09304 1.5221 5.37409C1.49999 5.64468 1.49999 5.97686 1.5 6.37934V14.6207C1.49999 15.0231 1.49999 15.3553 1.5221 15.6259C1.54506 15.907 1.59434 16.1653 1.71799 16.408C1.90973 16.7843 2.2157 17.0903 2.59202 17.282C2.83469 17.4057 3.09304 17.4549 3.37409 17.4779C3.64468 17.5 3.97686 17.5 4.37934 17.5H9.52342L10.7127 19.7194C10.5414 19.9333 10.439 20.2047 10.439 20.5C10.439 21.1904 10.9987 21.75 11.689 21.75C12.3794 21.75 12.939 21.1904 12.939 20.5C12.939 19.8096 12.3794 19.25 11.689 19.25C11.6582 19.25 11.6277 19.2511 11.5975 19.2533L10.6579 17.5H19.6207C20.0231 17.5 20.3553 17.5 20.6259 17.4779C20.907 17.4549 21.1653 17.4057 21.408 17.282C21.7843 17.0903 22.0903 16.7843 22.282 16.408C22.4057 16.1653 22.4549 15.907 22.4779 15.6259C22.5 15.3553 22.5 15.0232 22.5 14.6207V6.37934C22.5 5.97688 22.5 5.64467 22.4779 5.37409C22.4549 5.09304 22.4057 4.83469 22.282 4.59202C22.0903 4.2157 21.7843 3.90973 21.408 3.71799C21.1653 3.59434 20.907 3.54506 20.6259 3.5221C20.3553 3.49999 20.0231 3.49999 19.6207 3.5H4.37935ZM10.1221 16.5H19.6C20.0283 16.5 20.3194 16.4996 20.5445 16.4812C20.7637 16.4633 20.8758 16.4309 20.954 16.391C21.1422 16.2951 21.2951 16.1422 21.391 15.954C21.4309 15.8758 21.4633 15.7637 21.4812 15.5445C21.4996 15.3194 21.5 15.0283 21.5 14.6V6.4C21.5 5.97171 21.4996 5.68056 21.4812 5.45552C21.4633 5.23631 21.4309 5.12421 21.391 5.04601C21.2951 4.85785 21.1422 4.70487 20.954 4.60899C20.8758 4.56915 20.7637 4.53669 20.5445 4.51878C20.3194 4.50039 20.0283 4.5 19.6 4.5H4.4C3.97171 4.5 3.68056 4.50039 3.45552 4.51878C3.23631 4.53669 3.12421 4.56915 3.04601 4.60899C2.85785 4.70487 2.70487 4.85785 2.60899 5.04601C2.56915 5.12421 2.53669 5.23631 2.51878 5.45552C2.50039 5.68056 2.5 5.97171 2.5 6.4V14.6C2.5 15.0283 2.50039 15.3194 2.51878 15.5445C2.53669 15.7637 2.56915 15.8758 2.60899 15.954C2.70487 16.1422 2.85785 16.2951 3.04601 16.391C3.12421 16.4309 3.23631 16.4633 3.45552 16.4812C3.68056 16.4996 3.97171 16.5 4.4 16.5H8.98755L4.55928 8.23621C4.42885 7.99281 4.52043 7.68977 4.76383 7.55934C5.00723 7.42891 5.31027 7.52049 5.4407 7.76389L10.1221 16.5Z" fill="black"/>
</svg>
