<svg width="24" height="24" viewBox="0 0 24 24" fill="none" xmlns="http://www.w3.org/2000/svg">
<path d="M7.4997 3.5C7.26531 3.5 7.03678 3.52297 6.81608 3.56663C6.54519 3.62022 6.28214 3.44406 6.22855 3.17317C6.17496 2.90228 6.35112 2.63923 6.62201 2.58564C6.90628 2.52941 7.1998 2.5 7.4997 2.5C7.79959 2.5 8.09311 2.52941 8.37738 2.58564C8.64827 2.63923 8.82443 2.90228 8.77084 3.17317C8.71725 3.44406 8.4542 3.62022 8.18331 3.56663C7.96261 3.52297 7.73409 3.5 7.4997 3.5Z" fill="black"/>
<path d="M5.69272 3.39558C5.84634 3.62504 5.78486 3.9356 5.55539 4.08922C5.1735 4.3449 4.84459 4.6738 4.58892 5.0557C4.4353 5.28516 4.12474 5.34664 3.89527 5.19302C3.66581 5.0394 3.60433 4.72884 3.75795 4.49938C4.08634 4.00886 4.50856 3.58665 4.99907 3.25825C5.22854 3.10463 5.53909 3.16611 5.69272 3.39558Z" fill="black"/>
<path d="M9.30667 3.39558C9.4603 3.16611 9.77085 3.10463 10.0003 3.25825C10.4908 3.58665 10.913 4.00886 11.2414 4.49938C11.3951 4.72884 11.3336 5.0394 11.1041 5.19302C10.8747 5.34665 10.5641 5.28516 10.4105 5.0557C10.1548 4.6738 9.82589 4.3449 9.444 4.08922C9.21453 3.9356 9.15305 3.62504 9.30667 3.39558Z" fill="black"/>
<path d="M3.67287 5.72886C3.94376 5.78245 4.11992 6.04549 4.06633 6.31639C4.02267 6.53708 3.9997 6.76561 3.9997 7C3.9997 7.27614 3.77584 7.5 3.4997 7.5C3.22355 7.5 2.9997 7.27614 2.9997 7C2.9997 6.70011 3.0291 6.40658 3.08534 6.12232C3.13893 5.85143 3.40197 5.67527 3.67287 5.72886Z" fill="black"/>
<path d="M10.9997 7.00441L10.9997 8.875H11.9997V7C11.9997 6.76561 12.0227 6.53708 12.0663 6.31639C12.1199 6.04549 11.9438 5.78245 11.6729 5.72886C11.6141 5.71723 11.5557 5.71642 11.4997 5.72505C11.4437 5.71642 11.3853 5.71723 11.3265 5.72886C11.0556 5.78245 10.8795 6.04549 10.9331 6.31639C10.9767 6.53708 10.9997 6.76561 10.9997 7C10.9997 7.00147 10.9997 7.00294 10.9997 7.00441Z" fill="black"/>
<path d="M11.9997 9.625H10.9997V12.375H11.9997V9.625Z" fill="black"/>
<path d="M11.9997 13.125H10.9997V15.875H11.9997V13.125Z" fill="black"/>
<path d="M11.9997 16.625H10.9997V19.375H11.9997V16.625Z" fill="black"/>
<path d="M11.9997 20.125H10.9997V21.5C10.9997 21.7761 11.2236 22 11.4997 22C11.7759 22 11.9997 21.7761 11.9997 21.5V20.125Z" fill="black"/>
<path d="M1.5219 11.0313C4.15338 9.62953 7.11034 8.7546 10.2497 8.5476V19.5981C9.2029 19.741 8.20552 20.0367 7.28065 20.4616C6.83004 20.6686 6.27411 20.5288 5.99533 20.0881L1.15474 12.4368C0.850928 11.9565 1.00547 11.3064 1.5219 11.0313Z" fill="black"/>
<path d="M16.6806 20.7419C15.4892 20.1056 14.1607 19.6903 12.7497 19.5515V8.52504C16.2921 8.69414 19.6118 9.713 22.5065 11.3817C23.0018 11.6672 23.142 12.3017 22.8449 12.7712L18.0212 20.3959C17.7293 20.8574 17.1378 20.986 16.6806 20.7419Z" fill="black"/>
<path d="M16.1833 3.56663C15.9626 3.52297 15.7341 3.5 15.4997 3.5C15.2653 3.5 15.0368 3.52297 14.8161 3.56663C14.5452 3.62022 14.2821 3.44406 14.2286 3.17317C14.175 2.90228 14.3511 2.63923 14.622 2.58564C14.9063 2.52941 15.1998 2.5 15.4997 2.5C15.7996 2.5 16.0931 2.52941 16.3774 2.58564C16.6483 2.63923 16.8244 2.90228 16.7708 3.17317C16.7172 3.44406 16.4542 3.62022 16.1833 3.56663Z" fill="black"/>
<path d="M17.444 4.08922C17.2145 3.9356 17.1531 3.62504 17.3067 3.39558C17.4603 3.16611 17.7709 3.10463 18.0003 3.25825C18.4908 3.58665 18.913 4.00886 19.2414 4.49938C19.3951 4.72884 19.3336 5.0394 19.1041 5.19302C18.8747 5.34664 18.5641 5.28516 18.4105 5.0557C18.1548 4.6738 17.8259 4.3449 17.444 4.08922Z" fill="black"/>
<path d="M12.9991 3.25825C13.2285 3.10463 13.5391 3.16611 13.6927 3.39558C13.8463 3.62504 13.7849 3.9356 13.5554 4.08922C13.1735 4.3449 12.8446 4.6738 12.5889 5.0557C12.4353 5.28516 12.1247 5.34665 11.8953 5.19302C11.6658 5.0394 11.6043 4.72884 11.7579 4.49938C12.0863 4.00886 12.5086 3.58665 12.9991 3.25825Z" fill="black"/>
<path d="M18.9331 6.31639C18.8795 6.04549 19.0556 5.78245 19.3265 5.72886C19.5974 5.67527 19.8605 5.85143 19.9141 6.12232C19.9703 6.40658 19.9997 6.70011 19.9997 7C19.9997 7.27614 19.7758 7.5 19.4997 7.5C19.2236 7.5 18.9997 7.27614 18.9997 7C18.9997 6.76561 18.9767 6.53708 18.9331 6.31639Z" fill="black"/>
</svg>
