<svg width="24" height="24" viewBox="0 0 24 24" fill="none" xmlns="http://www.w3.org/2000/svg">
<path d="M7.49992 3.25C7.24915 3.25 7.00438 3.27458 6.76779 3.32138L6.52254 3.3699L6.42551 2.87941L6.67075 2.83089C6.93913 2.7778 7.2164 2.75 7.49992 2.75C7.78344 2.75 8.06071 2.7778 8.32908 2.83089L8.57433 2.87941L8.4773 3.3699L8.23205 3.32138C7.99546 3.27458 7.75068 3.25 7.49992 3.25Z" fill="black"/>
<path d="M5.62428 3.7424L5.41654 3.88148C5.00749 4.15533 4.65525 4.50757 4.3814 4.91662L4.24232 5.12436L3.82684 4.8462L3.96592 4.63846C4.27613 4.1751 4.67502 3.77621 5.13838 3.466L5.34612 3.32692L5.62428 3.7424Z" fill="black"/>
<path d="M9.65372 3.32692L9.86146 3.466C10.3248 3.77621 10.7237 4.1751 11.0339 4.63846L11.173 4.8462L10.7575 5.12436L10.6184 4.91662C10.3446 4.50757 9.99235 4.15533 9.5833 3.88148L9.37556 3.7424L9.65372 3.32692Z" fill="black"/>
<path d="M3.86982 6.02262L3.8213 6.26787C3.7745 6.50446 3.74992 6.74923 3.74992 7C3.74992 7.13807 3.63799 7.25 3.49992 7.25C3.36185 7.25 3.24992 7.13807 3.24992 7C3.24992 6.71648 3.27772 6.43921 3.33081 6.17083L3.37933 5.92559L3.86982 6.02262Z" fill="black"/>
<path d="M11.3695 5.97525L11.13 6.02262L11.1785 6.26787C11.2253 6.50446 11.2499 6.74923 11.2499 7L11.2499 8.625H11.7499L11.7499 7C11.7499 6.74923 11.7745 6.50446 11.8213 6.26787L11.8698 6.02262L11.6303 5.97525L11.6205 5.92559L11.4999 5.94945L11.3793 5.92559L11.3695 5.97525Z" fill="black"/>
<path d="M11.7499 9.875H11.2499V12.125H11.7499V9.875Z" fill="black"/>
<path d="M11.7499 13.375H11.2499V15.625H11.7499V13.375Z" fill="black"/>
<path d="M11.7499 16.875H11.2499V19.125H11.7499V16.875Z" fill="black"/>
<path d="M11.7499 20.375H11.2499V21.5C11.2499 21.6381 11.3619 21.75 11.4999 21.75C11.638 21.75 11.7499 21.6381 11.7499 21.5V20.375Z" fill="black"/>
<path d="M1.52215 11.0313C4.29289 9.55534 7.4245 8.66346 10.7499 8.52037V19.5418C9.52024 19.6508 8.35195 19.9695 7.28089 20.4616C6.83028 20.6686 6.27436 20.5288 5.99558 20.0881L1.15499 12.4368C0.851172 11.9565 1.00572 11.3064 1.52215 11.0313Z" fill="black"/>
<path d="M16.6808 20.7419C15.3497 20.0309 13.8473 19.5959 12.2499 19.5141V8.50688C15.9799 8.59997 19.4763 9.63471 22.5068 11.3817C23.0021 11.6672 23.1422 12.3017 22.8452 12.7712L18.0214 20.3959C17.7295 20.8574 17.138 20.986 16.6808 20.7419Z" fill="black"/>
<path d="M16.2321 3.32138C15.9955 3.27458 15.7507 3.25 15.4999 3.25C15.2492 3.25 15.0044 3.27458 14.7678 3.32138L14.5225 3.3699L14.4255 2.87941L14.6708 2.83089C14.9391 2.7778 15.2164 2.75 15.4999 2.75C15.7834 2.75 16.0607 2.7778 16.3291 2.83089L16.5743 2.87941L16.4773 3.3699L16.2321 3.32138Z" fill="black"/>
<path d="M17.5833 3.88148L17.3756 3.7424L17.6537 3.32692L17.8615 3.466C18.3248 3.77621 18.7237 4.1751 19.0339 4.63846L19.173 4.8462L18.7575 5.12436L18.6184 4.91662C18.3446 4.50757 17.9924 4.15533 17.5833 3.88148Z" fill="black"/>
<path d="M13.1384 3.466L13.3461 3.32692L13.6243 3.7424L13.4165 3.88148C13.0075 4.15533 12.6553 4.50757 12.3814 4.91662L12.2423 5.12436L11.8268 4.8462L11.9659 4.63846C12.2761 4.1751 12.675 3.77621 13.1384 3.466Z" fill="black"/>
<path d="M19.1785 6.26787L19.13 6.02262L19.6205 5.92559L19.669 6.17083C19.7221 6.43921 19.7499 6.71648 19.7499 7C19.7499 7.13807 19.638 7.25 19.4999 7.25C19.3618 7.25 19.2499 7.13807 19.2499 7C19.2499 6.74923 19.2253 6.50446 19.1785 6.26787Z" fill="black"/>
</svg>
