<svg width="24" height="24" viewBox="0 0 24 24" fill="none" xmlns="http://www.w3.org/2000/svg">
<path d="M1.80823 5.88165C4.77213 4.35932 8.13527 3.5 11.6985 3.5C15.5235 3.5 19.1177 4.49019 22.2351 6.2276L22.2495 6.23563C22.3564 6.29521 22.4631 6.35466 22.55 6.41371C22.6477 6.48017 22.7536 6.56739 22.8374 6.69689C22.9548 6.87835 23.0114 7.10079 22.995 7.31631C22.9831 7.47229 22.9298 7.60151 22.8752 7.70677C22.8261 7.80163 22.7591 7.90744 22.691 8.0151L18.1693 15.1624C18.1033 15.2667 18.04 15.3668 17.9805 15.447C17.9253 15.5215 17.8547 15.6054 17.7583 15.6767C17.6509 15.3135 17.5078 14.9594 17.3289 14.6203L21.837 7.49449C21.9175 7.36736 21.9605 7.29853 21.9874 7.24667L21.9897 7.24204L21.9878 7.24071C21.9422 7.20972 21.8754 7.17198 21.7482 7.1011C18.7761 5.4446 15.3489 4.5 11.6985 4.5C8.2977 4.5 5.09083 5.31982 2.26511 6.77118C2.13191 6.8396 2.06155 6.87626 2.0134 6.90674L2.01126 6.9081L2.01375 6.91297C2.04147 6.96661 2.08597 7.03778 2.16871 7.16857L6.69447 14.3223C6.76718 14.4372 6.80776 14.5008 6.84018 14.5447L6.84498 14.5511L6.85784 14.5467C6.91484 14.5267 6.99163 14.494 7.12482 14.4368L7.19984 14.4048C7.36028 14.7012 7.54831 14.9857 7.76392 15.2542C7.68196 15.287 7.60052 15.3208 7.5196 15.3555L7.5065 15.3612C7.39107 15.4108 7.28245 15.4574 7.18933 15.4902C7.09122 15.5246 6.96687 15.5601 6.82546 15.5575C6.63139 15.554 6.45495 15.4994 6.2929 15.3925C6.17773 15.3166 6.0971 15.2218 6.03577 15.1388C5.97925 15.0622 5.91922 14.9673 5.85705 14.869L1.3146 7.68894C1.24439 7.57799 1.17561 7.4693 1.12535 7.37204C1.06973 7.26441 1.01534 7.13182 1.00478 6.97193C0.990231 6.7517 1.05196 6.52525 1.17625 6.34286C1.26523 6.21229 1.37651 6.12638 1.47859 6.06177C1.5695 6.00422 1.68104 5.94696 1.79324 5.88935L1.80823 5.88165Z" fill="black"/>
<path d="M13.8798 13.7048C14.0333 14.1106 14.2335 14.5015 14.4803 14.8686C14.2834 14.8152 14.0842 14.7673 13.8828 14.7252C13.7021 14.3646 13.4816 14.0202 13.2214 13.699C13.1919 13.6626 13.1633 13.6257 13.1356 13.5882C13.3862 13.6191 13.6344 13.6581 13.8798 13.7048Z" fill="black"/>
<path d="M10.334 13.5794C10.4505 13.9102 10.5976 14.2318 10.7752 14.5396C10.62 14.553 10.4658 14.5697 10.3126 14.5897C10.1459 14.2782 9.9488 13.9797 9.72136 13.6989L9.6995 13.6717C9.90912 13.6352 10.1207 13.6044 10.334 13.5794Z" fill="black"/>
<path d="M9.1385 9.06472C9.31231 8.85014 9.27927 8.53529 9.06469 8.36148C8.85011 8.18767 8.53525 8.22072 8.36144 8.4353C6.87948 10.2649 6.87948 12.9709 8.36144 14.8004C9.54615 16.263 9.54615 18.4441 8.36144 19.9067C8.18763 20.1213 8.22068 20.4361 8.43526 20.6099C8.64984 20.7838 8.96469 20.7507 9.1385 20.5361C10.6205 18.7066 10.6205 16.0006 9.1385 14.171C7.9538 12.7084 7.9538 10.5273 9.1385 9.06472Z" fill="black"/>
<path d="M16.1385 9.06482C16.3123 8.85024 16.2793 8.53539 16.0647 8.36158C15.8501 8.18777 15.5353 8.22081 15.3614 8.43539C13.8795 10.2649 13.8795 12.9709 15.3614 14.8005C16.5462 16.263 16.5462 18.4441 15.3614 19.9067C15.1876 20.1213 15.2207 20.4361 15.4353 20.6099C15.6498 20.7838 15.9647 20.7507 16.1385 20.5361C17.6205 18.7066 17.6205 16.0006 16.1385 14.171C14.9538 12.7085 14.9538 10.5274 16.1385 9.06482Z" fill="black"/>
<path d="M12.5647 8.36158C12.7793 8.53539 12.8123 8.85024 12.6385 9.06482C11.4538 10.5274 11.4538 12.7085 12.6385 14.171C14.1205 16.0006 14.1205 18.7066 12.6385 20.5361C12.4647 20.7507 12.1498 20.7838 11.9353 20.6099C11.7207 20.4361 11.6876 20.1213 11.8614 19.9067C13.0462 18.4441 13.0462 16.263 11.8614 14.8005C10.3795 12.9709 10.3795 10.2649 11.8614 8.43539C12.0353 8.22081 12.3501 8.18777 12.5647 8.36158Z" fill="black"/>
</svg>
