<svg width="24" height="24" viewBox="0 0 24 24" fill="none" xmlns="http://www.w3.org/2000/svg">
<path d="M7.50004 3.75C7.05799 3.75 6.63834 3.83784 6.25618 3.99632C5.87356 4.15498 5.43476 3.97343 5.2761 3.59081C5.11743 3.20819 5.29898 2.76939 5.6816 2.61073C6.2427 2.37805 6.85736 2.25 7.50004 2.25C8.14272 2.25 8.75738 2.37805 9.31848 2.61073C9.7011 2.76939 9.88265 3.20819 9.72399 3.59081C9.56532 3.97343 9.12652 4.15498 8.7439 3.99632C8.36174 3.83784 7.9421 3.75 7.50004 3.75Z" fill="black"/>
<path d="M4.09085 4.77605C4.47347 4.93472 4.65502 5.37352 4.49636 5.75614C4.33788 6.1383 4.25004 6.55795 4.25004 7C4.25004 7.41421 3.91426 7.75 3.50004 7.75C3.08583 7.75 2.75004 7.41421 2.75004 7C2.75004 6.35732 2.87809 5.74266 3.11077 5.18156C3.26944 4.79894 3.70823 4.61739 4.09085 4.77605Z" fill="black"/>
<path d="M10.7501 7.00567L10.75 7C10.75 6.55795 10.6622 6.1383 10.5037 5.75614C10.3451 5.37352 10.5266 4.93472 10.9092 4.77605C11.1066 4.69421 11.3189 4.70289 11.5 4.78301C11.6812 4.70289 11.8935 4.69421 12.0909 4.77605C12.4735 4.93472 12.655 5.37352 12.4964 5.75614C12.3393 6.13489 12.2516 6.55046 12.2501 6.98817V10H10.7501V7.00567Z" fill="black"/>
<path d="M12.2501 12H10.7501V17H12.2501V12Z" fill="black"/>
<path d="M12.2501 19H10.7501V21.5C10.7501 21.9142 11.0858 22.25 11.5001 22.25C11.9143 22.25 12.2501 21.9142 12.2501 21.5V19Z" fill="black"/>
<path d="M1.40475 10.8106C3.93136 9.46474 6.75451 8.59902 9.75006 8.33536V9.84159C7.10592 10.0915 4.61037 10.8447 2.36015 12.0035L6.94091 19.2441C7.82594 18.8555 8.76775 18.5721 9.75006 18.4095V19.933C8.92202 20.0906 8.12963 20.3469 7.3854 20.6888C6.82686 20.9454 6.13356 20.7736 5.78445 20.2218L0.943859 12.5704C0.564564 11.9709 0.756277 11.1561 1.40475 10.8106Z" fill="black"/>
<path d="M17.0829 19.5416C15.9059 18.9398 14.6143 18.5292 13.2501 18.3507V19.8654C14.4329 20.043 15.549 20.4207 16.5632 20.9624C17.1297 21.265 17.8673 21.1075 18.2329 20.5296L23.0566 12.9049C23.4275 12.3187 23.2536 11.5236 22.6318 11.1651C19.8367 9.55384 16.6499 8.54158 13.2501 8.30402V9.80795C16.2834 10.0354 19.1298 10.9244 21.6454 12.3299L17.0829 19.5416Z" fill="black"/>
<path d="M16.7439 3.99632C16.3617 3.83784 15.9421 3.75 15.5 3.75C15.058 3.75 14.6383 3.83784 14.2562 3.99632C13.8736 4.15498 13.4348 3.97343 13.2761 3.59081C13.1174 3.20819 13.299 2.76939 13.6816 2.61073C14.2427 2.37805 14.8574 2.25 15.5 2.25C16.1427 2.25 16.7574 2.37805 17.3185 2.61073C17.7011 2.76939 17.8827 3.20819 17.724 3.59081C17.5653 3.97343 17.1265 4.15498 16.7439 3.99632Z" fill="black"/>
<path d="M18.5037 5.75614C18.3451 5.37352 18.5266 4.93472 18.9092 4.77605C19.2918 4.61739 19.7306 4.79894 19.8893 5.18156C20.122 5.74266 20.25 6.35732 20.25 7C20.25 7.41421 19.9143 7.75 19.5 7.75C19.0858 7.75 18.75 7.41421 18.75 7C18.75 6.55795 18.6622 6.1383 18.5037 5.75614Z" fill="black"/>
</svg>
