<svg width="24" height="24" viewBox="0 0 24 24" fill="none" xmlns="http://www.w3.org/2000/svg">
<path d="M7.49945 3.875C7.07412 3.875 6.67072 3.95949 6.30347 4.11178C5.85708 4.29689 5.34515 4.08508 5.16004 3.63869C4.97493 3.1923 5.18674 2.68037 5.63313 2.49526C6.20914 2.2564 6.84006 2.125 7.49945 2.125C8.15885 2.125 8.78976 2.2564 9.36578 2.49526C9.81217 2.68037 10.024 3.1923 9.83886 3.63869C9.65375 4.08508 9.14182 4.29689 8.69543 4.11178C8.32818 3.95949 7.92479 3.875 7.49945 3.875Z" fill="black"/>
<path d="M4.13815 4.66059C4.58454 4.8457 4.79635 5.35763 4.61123 5.80402C4.45894 6.17127 4.37445 6.57466 4.37445 7C4.37445 7.48325 3.9827 7.875 3.49945 7.875C3.0162 7.875 2.62445 7.48325 2.62445 7C2.62445 6.3406 2.75585 5.70969 2.99471 5.13368C3.17982 4.68729 3.69176 4.47548 4.13815 4.66059Z" fill="black"/>
<path d="M12.3745 6.98839C12.376 6.56732 12.4603 6.16793 12.6112 5.80402C12.7963 5.35763 12.5845 4.8457 12.1381 4.66059C11.926 4.57262 11.6991 4.57429 11.4995 4.64817C11.2998 4.57429 11.0729 4.57262 10.8608 4.66059C10.4144 4.8457 10.2026 5.35763 10.3877 5.80402C10.54 6.17127 10.6245 6.57466 10.6245 7C10.6245 7.00204 10.6245 7.00408 10.6245 7.00612V9.25C10.6245 9.73325 11.0162 10.125 11.4995 10.125C11.9827 10.125 12.3745 9.73325 12.3745 9.25V6.98839Z" fill="black"/>
<path d="M12.3745 12.75C12.3745 12.2668 11.9827 11.875 11.4995 11.875C11.0162 11.875 10.6245 12.2668 10.6245 12.75V16.25C10.6245 16.7332 11.0162 17.125 11.4995 17.125C11.9827 17.125 12.3745 16.7332 12.3745 16.25V12.75Z" fill="black"/>
<path d="M12.3745 19.75C12.3745 19.2668 11.9827 18.875 11.4995 18.875C11.0162 18.875 10.6245 19.2668 10.6245 19.75V21.5C10.6245 21.9832 11.0162 22.375 11.4995 22.375C11.9827 22.375 12.3745 21.9832 12.3745 21.5V19.75Z" fill="black"/>
<path d="M1.28663 10.59C3.77814 9.26279 6.55465 8.39729 9.49947 8.10758V10.1182C7.08375 10.3796 4.79781 11.0667 2.71788 12.1022L7.0377 18.9304C7.8201 18.6035 8.6442 18.3565 9.49947 18.1994V20.2397C8.79863 20.3952 8.12581 20.6235 7.48918 20.9159C6.82271 21.2221 5.99204 21.0184 5.57259 20.3554L0.731999 12.7041C0.277223 11.9852 0.506104 11.0057 1.28663 10.59Z" fill="black"/>
<path d="M16.9919 19.217C15.9086 18.6888 14.7342 18.3177 13.4995 18.1333V20.16C14.5474 20.3485 15.5379 20.6985 16.4448 21.1829C17.1207 21.5439 18.0043 21.3576 18.4435 20.6633L23.2673 13.0386C23.712 12.3357 23.5045 11.3799 22.756 10.9485C19.9926 9.3555 16.8507 8.34142 13.4995 8.0721V10.0792C16.3029 10.3269 18.9393 11.147 21.2914 12.4209L16.9919 19.217Z" fill="black"/>
<path d="M16.6954 4.11178C16.3282 3.95949 15.9248 3.875 15.4995 3.875C15.0741 3.875 14.6707 3.95949 14.3035 4.11178C13.8571 4.29689 13.3452 4.08508 13.16 3.63869C12.9749 3.1923 13.1867 2.68037 13.6331 2.49526C14.2091 2.2564 14.8401 2.125 15.4995 2.125C16.1588 2.125 16.7898 2.2564 17.3658 2.49526C17.8122 2.68037 18.024 3.1923 17.8389 3.63869C17.6538 4.08508 17.1418 4.29689 16.6954 4.11178Z" fill="black"/>
<path d="M18.3877 5.80402C18.2026 5.35763 18.4144 4.8457 18.8608 4.66059C19.3071 4.47548 19.8191 4.68729 20.0042 5.13368C20.2431 5.70969 20.3745 6.3406 20.3745 7C20.3745 7.48325 19.9827 7.875 19.4995 7.875C19.0162 7.875 18.6245 7.48325 18.6245 7C18.6245 6.57466 18.54 6.17127 18.3877 5.80402Z" fill="black"/>
</svg>
