<svg width="24" height="24" viewBox="0 0 24 24" fill="none" xmlns="http://www.w3.org/2000/svg">
<path d="M4.36392 3C3.9749 2.99998 3.62465 2.99997 3.33338 3.02376C3.02141 3.04925 2.68993 3.10694 2.36503 3.27249C1.89462 3.51217 1.51217 3.89462 1.27249 4.36503C1.10694 4.68993 1.04925 5.02141 1.02376 5.33338C0.999965 5.62465 0.999982 5.97473 1 6.36375V14.6361C0.999982 15.0251 0.999965 15.3754 1.02376 15.6666C1.04925 15.9786 1.10694 16.3101 1.27249 16.635C1.51217 17.1054 1.89462 17.4878 2.36503 17.7275C2.68993 17.8931 3.02141 17.9508 3.33338 17.9762C3.62469 18 3.97481 18 4.36389 18L8.08953 18L3.23715 8.94477C2.71544 7.97118 3.08176 6.75899 4.05535 6.23727C5.02895 5.71556 6.24114 6.08188 6.76285 7.05547L12.6276 18L19.6361 18C20.0252 18 20.3753 18 20.6666 17.9762C20.9786 17.9508 21.3101 17.8931 21.635 17.7275C22.1054 17.4878 22.4878 17.1054 22.7275 16.635C22.8931 16.3101 22.9508 15.9786 22.9762 15.6666C23.0001 15.3753 23 15.0252 23 14.6362V6.3639C23 5.97484 23.0001 5.62467 22.9762 5.33338C22.9508 5.02141 22.8931 4.68993 22.7275 4.36503C22.4878 3.89462 22.1054 3.51217 21.635 3.27249C21.3101 3.10694 20.9786 3.04925 20.6666 3.02376C20.3754 2.99997 20.0253 2.99998 19.6363 3H4.36392Z" fill="black"/>
<path d="M4.52767 7.11863C5.01447 6.85777 5.62056 7.04093 5.88142 7.52773L12.0528 19.0444C12.7055 19.207 13.189 19.797 13.189 20.5C13.189 21.3284 12.5175 22 11.689 22C10.8606 22 10.189 21.3284 10.189 20.5C10.189 20.3157 10.2223 20.1392 10.283 19.9762L4.11857 8.47238C3.85771 7.98558 4.04087 7.37949 4.52767 7.11863Z" fill="black"/>
</svg>
