<svg width="24" height="24" viewBox="0 0 24 24" fill="none" xmlns="http://www.w3.org/2000/svg">
<path d="M1.40427 5.81062C4.47236 4.17629 7.97773 3.25 11.6981 3.25C15.6797 3.25 19.4149 4.31095 22.6313 6.16507C23.2532 6.52356 23.427 7.31868 23.0561 7.9049L18.2324 15.5296C18.1768 15.6174 18.1127 15.6954 18.0419 15.7637C17.8904 15.1953 17.6561 14.646 17.3388 14.1364L21.6449 7.32994C18.7046 5.68715 15.3125 4.75 11.6981 4.75C8.33025 4.75 5.15558 5.56364 2.35966 7.00346L6.63141 13.7556C6.85272 14.3523 7.17026 14.9191 7.58402 15.4299C7.61796 15.4718 7.65059 15.5145 7.68193 15.558C7.58211 15.6 7.48309 15.6437 7.38491 15.6888C6.82637 15.9454 6.13307 15.7736 5.78396 15.2218L0.943371 7.57042C0.564075 6.97088 0.755789 6.15605 1.40427 5.81062Z" fill="black"/>
<path d="M14.3074 15.0596L14.3258 15.0863L14.3171 15.084L14.3074 15.0596Z" fill="black"/>
<path d="M13.2756 13.3541C13.3533 13.3645 13.4308 13.3756 13.5081 13.3874C13.5612 13.5646 13.6224 13.7397 13.6919 13.912C13.605 13.7857 13.5128 13.6621 13.4152 13.5416C13.3659 13.4808 13.3194 13.4182 13.2756 13.3541Z" fill="black"/>
<path d="M9.80765 13.4001C9.8726 13.3896 9.93772 13.3798 10.003 13.3704C10.0572 13.5533 10.1202 13.7341 10.1918 13.9119C10.105 13.7856 10.0128 13.662 9.9152 13.5416C9.87777 13.4954 9.84192 13.4482 9.80765 13.4001Z" fill="black"/>
<path d="M9.33235 9.22208C9.59307 8.90021 9.54349 8.42793 9.22162 8.16721C8.89975 7.9065 8.42747 7.95607 8.16676 8.27794C6.61049 10.1992 6.61049 13.0365 8.16676 14.9578C9.27715 16.3286 9.27715 18.3785 8.16676 19.7493C7.90604 20.0712 7.95562 20.5435 8.27748 20.8042C8.59935 21.0649 9.07163 21.0154 9.33235 20.6935C10.8886 18.7722 10.8886 15.9349 9.33235 14.0136C8.22195 12.6428 8.22195 10.5929 9.33235 9.22208Z" fill="black"/>
<path d="M16.3323 9.22218C16.5931 8.90031 16.5435 8.42803 16.2216 8.16731C15.8998 7.9066 15.4275 7.95617 15.1668 8.27804C13.6105 10.1993 13.6105 13.0365 15.1668 14.9578C16.2772 16.3287 16.2772 18.3785 15.1668 19.7493C14.906 20.0712 14.9556 20.5435 15.2775 20.8042C15.5993 21.0649 16.0716 21.0154 16.3323 20.6935C17.8886 18.7722 17.8886 15.935 16.3323 14.0137C15.222 12.6429 15.222 10.593 16.3323 9.22218Z" fill="black"/>
<path d="M12.7216 8.16731C13.0435 8.42803 13.0931 8.90031 12.8323 9.22218C11.722 10.593 11.722 12.6429 12.8323 14.0137C14.3886 15.935 14.3886 18.7722 12.8323 20.6935C12.5716 21.0154 12.0993 21.0649 11.7775 20.8042C11.4556 20.5435 11.406 20.0712 11.6668 19.7493C12.7772 18.3785 12.7772 16.3287 11.6668 14.9578C10.1105 13.0365 10.1105 10.1993 11.6668 8.27804C11.9275 7.95617 12.3998 7.9066 12.7216 8.16731Z" fill="black"/>
</svg>
