<svg width="24" height="24" viewBox="0 0 24 24" fill="none" xmlns="http://www.w3.org/2000/svg">
<path d="M7.49976 3.25C7.24899 3.25 7.00421 3.27458 6.76762 3.32138L6.52238 3.3699L6.42534 2.87941L6.67059 2.83089C6.93896 2.7778 7.21624 2.75 7.49976 2.75C7.78327 2.75 8.06055 2.7778 8.32892 2.83089L8.57417 2.87941L8.47713 3.3699L8.23189 3.32138C7.9953 3.27458 7.75052 3.25 7.49976 3.25Z" fill="black"/>
<path d="M5.62412 3.7424L5.41637 3.88148C5.00732 4.15533 4.65509 4.50757 4.38124 4.91662L4.24216 5.12436L3.82667 4.8462L3.96575 4.63846C4.27596 4.1751 4.67485 3.77621 5.13821 3.466L5.34596 3.32692L5.62412 3.7424Z" fill="black"/>
<path d="M9.65356 3.32692L9.8613 3.466C10.3247 3.77621 10.7235 4.1751 11.0338 4.63846L11.1728 4.8462L10.7574 5.12436L10.6183 4.91662C10.3444 4.50757 9.99219 4.15533 9.58314 3.88148L9.3754 3.7424L9.65356 3.32692Z" fill="black"/>
<path d="M3.86966 6.02262L3.82114 6.26787C3.77433 6.50446 3.74976 6.74923 3.74976 7C3.74976 7.13807 3.63783 7.25 3.49976 7.25C3.36168 7.25 3.24976 7.13807 3.24976 7C3.24976 6.71648 3.27755 6.43921 3.33065 6.17083L3.37916 5.92559L3.86966 6.02262Z" fill="black"/>
<path d="M11.3693 5.97525L11.1299 6.02262L11.1784 6.26787C11.2252 6.50446 11.2498 6.74923 11.2498 7L11.2498 8.625H11.7498L11.7498 7C11.7498 6.74923 11.7743 6.50446 11.8211 6.26787L11.8697 6.02262L11.6302 5.97525L11.6203 5.92559L11.4998 5.94945L11.3792 5.92559L11.3693 5.97525Z" fill="black"/>
<path d="M11.7498 9.875H11.2498V12.125H11.7498V9.875Z" fill="black"/>
<path d="M11.7498 13.375H11.2498V15.625H11.7498V13.375Z" fill="black"/>
<path d="M11.7498 16.875H11.2498V19.125H11.7498V16.875Z" fill="black"/>
<path d="M11.7498 20.375H11.2498V21.5C11.2498 21.6381 11.3617 21.75 11.4998 21.75C11.6378 21.75 11.7498 21.6381 11.7498 21.5V20.375Z" fill="black"/>
<path d="M1.63954 11.2519C4.30546 9.83182 7.30948 8.95869 10.4998 8.78293V9.28371C7.39367 9.45889 4.46997 10.3107 1.87461 11.6932C1.75433 11.7573 1.71128 11.9135 1.78865 12.0358L6.62924 19.6871C6.69702 19.7943 6.84084 19.8383 6.96765 19.7801C8.06201 19.2773 9.25073 18.9436 10.4998 18.8125V19.3154C9.32466 19.4445 8.20665 19.7611 7.17638 20.2344C6.83371 20.3919 6.41515 20.2839 6.2067 19.9544L1.36611 12.3031C1.13778 11.9422 1.25516 11.4567 1.63954 11.2519Z" fill="black"/>
<path d="M17.034 20.0803C15.6665 19.3499 14.1306 18.8916 12.4998 18.7779V19.2791C14.0462 19.392 15.5016 19.8287 16.7985 20.5213C17.1463 20.7071 17.5918 20.6072 17.81 20.2623L22.6338 12.6376C22.857 12.2847 22.7505 11.8108 22.3818 11.5982C19.456 9.91169 16.0909 8.89666 12.4998 8.7647V9.26505C16.0008 9.39673 19.2802 10.3875 22.1321 12.0314C22.2476 12.098 22.2868 12.2508 22.2112 12.3703L17.3875 19.995C17.3166 20.107 17.1632 20.1493 17.034 20.0803Z" fill="black"/>
<path d="M16.2319 3.32138C15.9953 3.27458 15.7505 3.25 15.4998 3.25C15.249 3.25 15.0042 3.27458 14.7676 3.32138L14.5224 3.3699L14.4253 2.87941L14.6706 2.83089C14.939 2.7778 15.2162 2.75 15.4998 2.75C15.7833 2.75 16.0605 2.7778 16.3289 2.83089L16.5742 2.87941L16.4771 3.3699L16.2319 3.32138Z" fill="black"/>
<path d="M17.5831 3.88148L17.3754 3.7424L17.6536 3.32692L17.8613 3.466C18.3247 3.77621 18.7235 4.1751 19.0338 4.63846L19.1728 4.8462L18.7574 5.12436L18.6183 4.91662C18.3444 4.50757 17.9922 4.15533 17.5831 3.88148Z" fill="black"/>
<path d="M13.1382 3.466L13.346 3.32692L13.6241 3.7424L13.4164 3.88148C13.0073 4.15533 12.6551 4.50757 12.3812 4.91662L12.2422 5.12436L11.8267 4.8462L11.9658 4.63846C12.276 4.1751 12.6749 3.77621 13.1382 3.466Z" fill="black"/>
<path d="M19.1784 6.26787L19.1299 6.02262L19.6203 5.92559L19.6689 6.17083C19.722 6.43921 19.7498 6.71648 19.7498 7C19.7498 7.13807 19.6378 7.25 19.4998 7.25C19.3617 7.25 19.2498 7.13807 19.2498 7C19.2498 6.74923 19.2252 6.50446 19.1784 6.26787Z" fill="black"/>
</svg>
