<svg width="24" height="24" viewBox="0 0 24 24" fill="none" xmlns="http://www.w3.org/2000/svg">
<path d="M7.49994 3.875C7.0746 3.875 6.67121 3.95949 6.30396 4.11178C5.85757 4.29689 5.34564 4.08508 5.16053 3.63869C4.97542 3.1923 5.18723 2.68037 5.63362 2.49526C6.20963 2.2564 6.84054 2.125 7.49994 2.125C8.15934 2.125 8.79025 2.2564 9.36626 2.49526C9.81265 2.68037 10.0245 3.1923 9.83935 3.63869C9.65424 4.08508 9.14231 4.29689 8.69592 4.11178C8.32867 3.95949 7.92528 3.875 7.49994 3.875Z" fill="black"/>
<path d="M4.13863 4.66059C4.58502 4.8457 4.79683 5.35763 4.61172 5.80402C4.45943 6.17127 4.37494 6.57466 4.37494 7C4.37494 7.48325 3.98319 7.875 3.49994 7.875C3.01669 7.875 2.62494 7.48325 2.62494 7C2.62494 6.3406 2.75634 5.70969 2.9952 5.13368C3.18031 4.68729 3.69225 4.47548 4.13863 4.66059Z" fill="black"/>
<path d="M12.375 6.98839C12.3765 6.56732 12.4608 6.16793 12.6117 5.80402C12.7968 5.35763 12.585 4.8457 12.1386 4.66059C11.9265 4.57262 11.6996 4.57429 11.4999 4.64817C11.3003 4.57429 11.0734 4.57262 10.8612 4.66059C10.4149 4.8457 10.203 5.35763 10.3882 5.80402C10.5405 6.17127 10.6249 6.57466 10.6249 7C10.6249 7.00204 10.6249 7.00408 10.625 7.00612V9.25C10.625 9.73325 11.0167 10.125 11.5 10.125C11.9832 10.125 12.375 9.73325 12.375 9.25V6.98839Z" fill="black"/>
<path d="M12.375 12.75C12.375 12.2668 11.9832 11.875 11.5 11.875C11.0167 11.875 10.625 12.2668 10.625 12.75V16.25C10.625 16.7332 11.0167 17.125 11.5 17.125C11.9832 17.125 12.375 16.7332 12.375 16.25V12.75Z" fill="black"/>
<path d="M12.375 19.75C12.375 19.2668 11.9832 18.875 11.5 18.875C11.0167 18.875 10.625 19.2668 10.625 19.75V21.5C10.625 21.9832 11.0167 22.375 11.5 22.375C11.9832 22.375 12.375 21.9832 12.375 21.5V19.75Z" fill="black"/>
<path d="M1.28712 10.59C3.77862 9.26279 6.55514 8.39729 9.49996 8.10758V10.1182C7.08424 10.3796 4.7983 11.0667 2.71837 12.1022L7.03819 18.9304C7.82059 18.6035 8.64469 18.3565 9.49996 18.1994V20.2397C8.79912 20.3952 8.1263 20.6235 7.48967 20.9159C6.8232 21.2221 5.99252 21.0184 5.57308 20.3554L0.732487 12.7041C0.277711 11.9852 0.506592 11.0057 1.28712 10.59Z" fill="black"/>
<path d="M16.9924 19.217C15.9091 18.6888 14.7347 18.3177 13.5 18.1333V20.16C14.5478 20.3485 15.5384 20.6985 16.4453 21.1829C17.1212 21.5439 18.0048 21.3576 18.444 20.6633L23.2678 13.0386C23.7125 12.3357 23.505 11.3799 22.7565 10.9485C19.9931 9.3555 16.8512 8.34142 13.5 8.0721V10.0792C16.3034 10.3269 18.9398 11.147 21.2919 12.4209L16.9924 19.217Z" fill="black"/>
<path d="M16.6959 4.11178C16.3287 3.95949 15.9253 3.875 15.4999 3.875C15.0746 3.875 14.6712 3.95949 14.304 4.11178C13.8576 4.29689 13.3456 4.08508 13.1605 3.63869C12.9754 3.1923 13.1872 2.68037 13.6336 2.49526C14.2096 2.2564 14.8405 2.125 15.4999 2.125C16.1593 2.125 16.7903 2.2564 17.3663 2.49526C17.8127 2.68037 18.0245 3.1923 17.8394 3.63869C17.6542 4.08508 17.1423 4.29689 16.6959 4.11178Z" fill="black"/>
<path d="M18.3882 5.80402C18.203 5.35763 18.4149 4.8457 18.8612 4.66059C19.3076 4.47548 19.8196 4.68729 20.0047 5.13368C20.2435 5.70969 20.3749 6.3406 20.3749 7C20.3749 7.48325 19.9832 7.875 19.4999 7.875C19.0167 7.875 18.6249 7.48325 18.6249 7C18.6249 6.57466 18.5404 6.17127 18.3882 5.80402Z" fill="black"/>
</svg>
