<svg width="24" height="24" viewBox="0 0 24 24" fill="none" xmlns="http://www.w3.org/2000/svg">
<path d="M7.50008 3.75C7.05803 3.75 6.63838 3.83784 6.25622 3.99632C5.8736 4.15498 5.4348 3.97343 5.27614 3.59081C5.11747 3.20819 5.29902 2.76939 5.68164 2.61073C6.24274 2.37805 6.85741 2.25 7.50008 2.25C8.14276 2.25 8.75742 2.37805 9.31853 2.61073C9.70115 2.76939 9.8827 3.20819 9.72403 3.59081C9.56536 3.97343 9.12656 4.15498 8.74394 3.99632C8.36178 3.83784 7.94214 3.75 7.50008 3.75Z" fill="black"/>
<path d="M4.0909 4.77605C4.47352 4.93472 4.65507 5.37352 4.4964 5.75614C4.33792 6.1383 4.25008 6.55795 4.25008 7C4.25008 7.41421 3.9143 7.75 3.50008 7.75C3.08587 7.75 2.75008 7.41421 2.75008 7C2.75008 6.35732 2.87813 5.74266 3.11081 5.18156C3.26948 4.79894 3.70828 4.61739 4.0909 4.77605Z" fill="black"/>
<path d="M10.7501 7.00553L10.7501 10H12.2501V6.98817C12.2517 6.55046 12.3393 6.13489 12.4964 5.75614C12.6551 5.37352 12.4735 4.93472 12.0909 4.77605C11.8935 4.69421 11.6812 4.70289 11.5001 4.78301C11.319 4.70289 11.1066 4.69421 10.9093 4.77605C10.5267 4.93472 10.3451 5.37352 10.5038 5.75614C10.6622 6.1383 10.7501 6.55795 10.7501 7C10.7501 7.00185 10.7501 7.00369 10.7501 7.00553Z" fill="black"/>
<path d="M12.2501 12H10.7501V17H12.2501V12Z" fill="black"/>
<path d="M12.2501 19H10.7501V21.5C10.7501 21.9142 11.0859 22.25 11.5001 22.25C11.9143 22.25 12.2501 21.9142 12.2501 21.5V19Z" fill="black"/>
<path d="M1.52239 11.0313C4.08387 9.66684 6.95377 8.80154 10.0001 8.56556V19.6353C9.04438 19.7891 8.13207 20.0707 7.28114 20.4616C6.83053 20.6686 6.2746 20.5288 5.99582 20.0881L1.15523 12.4368C0.851416 11.9566 1.00596 11.3064 1.52239 11.0313Z" fill="black"/>
<path d="M16.6811 20.7419C15.5603 20.1433 14.3181 19.7403 13.0001 19.5791V8.53843C16.4487 8.74252 19.6805 9.75232 22.507 11.3817C23.0023 11.6672 23.1425 12.3017 22.8454 12.7713L18.0217 20.396C17.7298 20.8574 17.1383 20.9861 16.6811 20.7419Z" fill="black"/>
<path d="M16.7439 3.99632C16.3618 3.83784 15.9421 3.75 15.5001 3.75C15.058 3.75 14.6384 3.83784 14.2562 3.99632C13.8736 4.15498 13.4348 3.97343 13.2761 3.59081C13.1175 3.20819 13.299 2.76939 13.6816 2.61073C14.2427 2.37805 14.8574 2.25 15.5001 2.25C16.1428 2.25 16.7574 2.37805 17.3185 2.61073C17.7011 2.76939 17.8827 3.20819 17.724 3.59081C17.5654 3.97343 17.1266 4.15498 16.7439 3.99632Z" fill="black"/>
<path d="M18.5038 5.75614C18.3451 5.37352 18.5267 4.93472 18.9093 4.77605C19.2919 4.61739 19.7307 4.79894 19.8894 5.18156C20.122 5.74266 20.2501 6.35732 20.2501 7C20.2501 7.41421 19.9143 7.75 19.5001 7.75C19.0859 7.75 18.7501 7.41421 18.7501 7C18.7501 6.55795 18.6622 6.1383 18.5038 5.75614Z" fill="black"/>
</svg>
