<svg width="24" height="24" viewBox="0 0 24 24" fill="none" xmlns="http://www.w3.org/2000/svg">
<path d="M7.49988 4C7.09126 4 6.70412 4.08114 6.35178 4.22725C5.84162 4.4388 5.25656 4.19674 5.045 3.68658C4.83345 3.17642 5.07552 2.59135 5.58568 2.3798C6.1766 2.13475 6.82377 2 7.49988 2C8.176 2 8.82316 2.13475 9.41409 2.3798C9.92425 2.59135 10.1663 3.17642 9.95476 3.68658C9.7432 4.19674 9.15814 4.4388 8.64798 4.22725C8.29564 4.08114 7.9085 4 7.49988 4Z" fill="black"/>
<path d="M4.18646 4.54512C4.69662 4.75668 4.93868 5.34174 4.72713 5.8519C4.58102 6.20424 4.49988 6.59138 4.49988 7C4.49988 7.55228 4.05217 8 3.49988 8C2.9476 8 2.49988 7.55228 2.49988 7C2.49988 6.32388 2.63463 5.67672 2.87968 5.08579C3.09123 4.57563 3.6763 4.33357 4.18646 4.54512Z" fill="black"/>
<path d="M12.4999 6.98862C12.5014 6.58419 12.5824 6.20097 12.7271 5.8519C12.9387 5.34174 12.6966 4.75668 12.1865 4.54512C11.9593 4.4509 11.7172 4.44666 11.4999 4.516C11.2826 4.44666 11.0405 4.4509 10.8133 4.54512C10.3031 4.75668 10.0611 5.34174 10.2726 5.8519C10.4187 6.20424 10.4999 6.59138 10.4999 7C10.4999 7.00213 10.4999 7.00426 10.4999 7.00639L10.4999 10.25H12.4999V6.98862Z" fill="black"/>
<path d="M12.4999 11.75H10.4999V17.25H12.4999V11.75Z" fill="black"/>
<path d="M12.4999 18.75H10.4999V21.5C10.4999 22.0523 10.9476 22.5 11.4999 22.5C12.0522 22.5 12.4999 22.0523 12.4999 21.5V18.75Z" fill="black"/>
<path d="M1.52215 11.0313C3.8724 9.77939 6.4823 8.94768 9.2499 8.63674V19.7841C8.56516 19.946 7.90644 20.1743 7.28089 20.4617C6.83028 20.6687 6.27436 20.5288 5.99558 20.0882L1.15499 12.4368C0.851172 11.9566 1.00572 11.3064 1.52215 11.0313Z" fill="black"/>
<path d="M16.6808 20.7419C15.7751 20.2582 14.7901 19.9022 13.7499 19.6983V8.59581C16.9171 8.89294 19.8861 9.87104 22.5068 11.3817C23.0021 11.6672 23.1422 12.3018 22.8452 12.7713L18.0214 20.396C17.7295 20.8574 17.138 20.9861 16.6808 20.7419Z" fill="black"/>
<path d="M16.648 4.22725C16.2956 4.08114 15.9085 4 15.4999 4C15.0913 4 14.7041 4.08114 14.3518 4.22725C13.8416 4.4388 13.2566 4.19674 13.045 3.68658C12.8334 3.17642 13.0755 2.59135 13.5857 2.3798C14.1766 2.13475 14.8238 2 15.4999 2C16.176 2 16.8232 2.13475 17.4141 2.3798C17.9242 2.59135 18.1663 3.17642 17.9548 3.68658C17.7432 4.19674 17.1581 4.4388 16.648 4.22725Z" fill="black"/>
<path d="M18.2726 5.8519C18.0611 5.34174 18.3031 4.75668 18.8133 4.54512C19.3235 4.33357 19.9085 4.57563 20.1201 5.08579C20.3651 5.67672 20.4999 6.32388 20.4999 7C20.4999 7.55228 20.0522 8 19.4999 8C18.9476 8 18.4999 7.55228 18.4999 7C18.4999 6.59138 18.4187 6.20424 18.2726 5.8519Z" fill="black"/>
</svg>
