<svg width="24" height="24" viewBox="0 0 24 24" fill="none" xmlns="http://www.w3.org/2000/svg">
<path d="M1.28663 5.58997C4.39006 3.93683 7.93568 3 11.698 3C15.7246 3 19.5026 4.07304 22.756 5.94848C23.5045 6.37994 23.712 7.33566 23.2673 8.03856L18.4435 15.6633C18.4049 15.7243 18.3629 15.7814 18.3179 15.8345C18.1321 15.0705 17.8038 14.3364 17.3329 13.6779L21.2914 7.42088C18.4415 5.87735 15.1741 5 11.698 5C8.46843 5 5.41939 5.75727 2.71788 7.10223L6.04189 12.3564C6.17545 13.5156 6.62471 14.6429 7.38966 15.5872C7.46291 15.6777 7.52956 15.7723 7.58962 15.8705C7.55604 15.8854 7.52256 15.9006 7.48918 15.9159C6.82271 16.2221 5.99204 16.0184 5.57259 15.3554L0.731999 7.70408C0.277223 6.98523 0.506104 6.00575 1.28663 5.58997Z" fill="black"/>
<path d="M9.42938 9.30076C9.73355 8.92524 9.67571 8.37425 9.3002 8.07008C8.92469 7.76591 8.37369 7.82375 8.06952 8.19926C6.4761 10.1664 6.47609 13.0693 8.06952 15.0365C9.14276 16.3614 9.14276 18.3457 8.06952 19.6707C7.76536 20.0462 7.82319 20.5972 8.1987 20.9013C8.57422 21.2055 9.12521 21.1477 9.42938 20.7722C11.0228 18.805 11.0228 15.9021 9.42938 13.935C8.35614 12.61 8.35614 10.6257 9.42938 9.30076Z" fill="black"/>
<path d="M16.4294 9.30086C16.7335 8.92535 16.6757 8.37435 16.3002 8.07018C15.9247 7.76601 15.3737 7.82384 15.0695 8.19936C13.4761 10.1665 13.4761 13.0694 15.0695 15.0365C16.1428 16.3615 16.1428 18.3457 15.0695 19.6707C14.7654 20.0462 14.8232 20.5972 15.1987 20.9013C15.5742 21.2055 16.1252 21.1477 16.4294 20.7722C18.0228 18.805 18.0228 15.9022 16.4294 13.935C15.3561 12.6101 15.3561 10.6258 16.4294 9.30086Z" fill="black"/>
<path d="M12.8002 8.07018C13.1757 8.37435 13.2335 8.92535 12.9294 9.30086C11.8561 10.6258 11.8561 12.6101 12.9294 13.935C14.5228 15.9022 14.5228 18.805 12.9294 20.7722C12.6252 21.1477 12.0742 21.2055 11.6987 20.9013C11.3232 20.5972 11.2654 20.0462 11.5695 19.6707C12.6428 18.3457 12.6428 16.3615 11.5695 15.0365C9.97609 13.0694 9.97609 10.1665 11.5695 8.19936C11.8737 7.82384 12.4247 7.76601 12.8002 8.07018Z" fill="black"/>
</svg>
