<svg width="24" height="24" viewBox="0 0 24 24" fill="none" xmlns="http://www.w3.org/2000/svg">
<path d="M1.16899 5.36933C4.30776 3.69736 7.89364 2.75 11.6979 2.75C15.7694 2.75 19.5904 3.83512 22.8808 5.73189C23.7558 6.23632 23.9969 7.35264 23.4784 8.17222L18.6547 15.7969C18.6335 15.8304 18.6114 15.8629 18.5885 15.8944C18.3754 14.9418 17.9506 14.03 17.3141 13.24L20.936 7.51483C18.178 6.06887 15.0358 5.25 11.6979 5.25C8.60671 5.25 5.68364 5.95228 3.07815 7.20425L5.75202 11.4307C5.70933 12.961 6.19042 14.504 7.19529 15.7446C7.30752 15.8831 7.4027 16.0328 7.48083 16.1902C6.72734 16.4751 5.82752 16.2261 5.36122 15.4891L0.520628 7.83774C-0.00962949 6.99958 0.256419 5.85544 1.16899 5.36933Z" fill="black"/>
<path d="M9.52641 9.37943C9.87403 8.95027 9.80793 8.32057 9.37878 7.97295C8.94962 7.62533 8.31991 7.69142 7.97229 8.12058C6.3417 10.1336 6.3417 13.1021 7.97229 15.1151C9.00837 16.3942 9.00837 18.3129 7.97229 19.592C7.62467 20.0212 7.69077 20.6509 8.11993 20.9985C8.54908 21.3461 9.17879 21.28 9.52641 20.8508C11.157 18.8378 11.157 15.8693 9.52641 13.8563C8.49033 12.5772 8.49033 10.6585 9.52641 9.37943Z" fill="black"/>
<path d="M16.5264 9.37954C16.874 8.95038 16.8079 8.32067 16.3788 7.97305C15.9496 7.62543 15.3199 7.69152 14.9723 8.12068C13.3417 10.1337 13.3417 13.1022 14.9723 15.1152C16.0084 16.3943 16.0084 18.3129 14.9723 19.592C14.6247 20.0211 14.6908 20.6509 15.1199 20.9985C15.5491 21.3461 16.1788 21.28 16.5264 20.8508C18.157 18.8378 18.157 15.8694 16.5264 13.8563C15.4903 12.5773 15.4903 10.6586 16.5264 9.37954Z" fill="black"/>
<path d="M12.8788 7.97305C13.3079 8.32067 13.374 8.95038 13.0264 9.37954C11.9903 10.6586 11.9903 12.5773 13.0264 13.8563C14.657 15.8694 14.657 18.8378 13.0264 20.8508C12.6788 21.28 12.0491 21.3461 11.6199 20.9985C11.1908 20.6509 11.1247 20.0211 11.4723 19.592C12.5084 18.3129 12.5084 16.3943 11.4723 15.1152C9.8417 13.1022 9.8417 10.1337 11.4723 8.12068C11.8199 7.69152 12.4496 7.62543 12.8788 7.97305Z" fill="black"/>
</svg>
