<svg width="24" height="24" viewBox="0 0 24 24" fill="none" xmlns="http://www.w3.org/2000/svg">
<path d="M7.49935 4C7.09073 4 6.70359 4.08114 6.35125 4.22725C5.84109 4.4388 5.25603 4.19674 5.04447 3.68658C4.83292 3.17642 5.07499 2.59135 5.58515 2.3798C6.17607 2.13475 6.82324 2 7.49935 2C8.17547 2 8.82263 2.13475 9.41356 2.3798C9.92372 2.59135 10.1658 3.17642 9.95423 3.68658C9.74267 4.19674 9.15761 4.4388 8.64745 4.22725C8.29511 4.08114 7.90797 4 7.49935 4Z" fill="black"/>
<path d="M4.18593 4.54512C4.69609 4.75668 4.93815 5.34174 4.7266 5.8519C4.58049 6.20424 4.49935 6.59138 4.49935 7C4.49935 7.55228 4.05164 8 3.49935 8C2.94707 8 2.49935 7.55228 2.49935 7C2.49935 6.32388 2.6341 5.67672 2.87915 5.08579C3.0907 4.57563 3.67577 4.33357 4.18593 4.54512Z" fill="black"/>
<path d="M12.4994 6.98862C12.5009 6.58419 12.5818 6.20097 12.7266 5.8519C12.9382 5.34174 12.6961 4.75668 12.1859 4.54512C11.9587 4.4509 11.7167 4.44666 11.4994 4.516C11.282 4.44666 11.04 4.4509 10.8128 4.54512C10.3026 4.75668 10.0605 5.34174 10.2721 5.8519C10.4182 6.20424 10.4994 6.59138 10.4994 7C10.4994 7.00218 10.4994 7.00437 10.4994 7.00655V10.25H12.4994V6.98862Z" fill="black"/>
<path d="M12.4994 11.75H10.4994V17.25H12.4994V11.75Z" fill="black"/>
<path d="M12.4994 18.75H10.4994V21.5C10.4994 22.0523 10.9471 22.5 11.4994 22.5C12.0517 22.5 12.4994 22.0523 12.4994 21.5V18.75Z" fill="black"/>
<path d="M1.16899 10.3693C3.55435 9.09868 6.19795 8.24654 8.99937 7.91067V10.4309C6.90306 10.7142 4.91194 11.3231 3.07815 12.2043L7.13699 18.6199C7.73623 18.3816 8.35851 18.1888 8.99937 18.0459V20.6239C8.51409 20.7618 8.04444 20.9359 7.59344 21.1431C6.81904 21.4989 5.851 21.2633 5.36122 20.4891L0.520628 12.8377C-0.00962949 11.9996 0.256419 10.8554 1.16899 10.3693Z" fill="black"/>
<path d="M16.8991 18.8959C15.9874 18.4718 15.0152 18.1558 13.9994 17.9642V20.52C14.8208 20.7165 15.6013 21.0159 16.327 21.4034C17.1122 21.8228 18.1418 21.6077 18.6547 20.7969L23.4784 13.1722C23.9969 12.3526 23.7558 11.2363 22.8808 10.7319C20.2183 9.19706 17.2083 8.19368 13.9994 7.86664V10.3812C16.4808 10.6661 18.8214 11.4062 20.936 12.5148L16.8991 18.8959Z" fill="black"/>
<path d="M16.6474 4.22725C16.2951 4.08114 15.908 4 15.4994 4C15.0907 4 14.7036 4.08114 14.3513 4.22725C13.8411 4.4388 13.256 4.19674 13.0445 3.68658C12.8329 3.17642 13.075 2.59135 13.5851 2.3798C14.1761 2.13475 14.8232 2 15.4994 2C16.1755 2 16.8226 2.13475 17.4136 2.3798C17.9237 2.59135 18.1658 3.17642 17.9542 3.68658C17.7427 4.19674 17.1576 4.4388 16.6474 4.22725Z" fill="black"/>
<path d="M18.2721 5.8519C18.0605 5.34174 18.3026 4.75668 18.8128 4.54512C19.3229 4.33357 19.908 4.57563 20.1196 5.08579C20.3646 5.67672 20.4994 6.32388 20.4994 7C20.4994 7.55228 20.0516 8 19.4994 8C18.9471 8 18.4994 7.55228 18.4994 7C18.4994 6.59138 18.4182 6.20424 18.2721 5.8519Z" fill="black"/>
</svg>
