<svg width="24" height="24" viewBox="0 0 24 24" fill="none" xmlns="http://www.w3.org/2000/svg">
<path d="M7.5001 3.875C7.07477 3.875 6.67137 3.95949 6.30413 4.11178C5.85774 4.29689 5.3458 4.08508 5.16069 3.63869C4.97558 3.1923 5.18739 2.68037 5.63378 2.49526C6.20979 2.2564 6.84071 2.125 7.5001 2.125C8.1595 2.125 8.79041 2.2564 9.36643 2.49526C9.81282 2.68037 10.0246 3.1923 9.83952 3.63869C9.65441 4.08508 9.14247 4.29689 8.69608 4.11178C8.32884 3.95949 7.92544 3.875 7.5001 3.875Z" fill="black"/>
<path d="M4.1388 4.66059C4.58519 4.8457 4.797 5.35763 4.61189 5.80402C4.4596 6.17127 4.3751 6.57466 4.3751 7C4.3751 7.48325 3.98335 7.875 3.5001 7.875C3.01686 7.875 2.6251 7.48325 2.6251 7C2.6251 6.3406 2.7565 5.70969 2.99537 5.13368C3.18048 4.68729 3.69241 4.47548 4.1388 4.66059Z" fill="black"/>
<path d="M12.3751 6.98839C12.3766 6.56732 12.461 6.16793 12.6119 5.80402C12.797 5.35763 12.5852 4.8457 12.1388 4.66059C11.9267 4.57262 11.6997 4.57429 11.5001 4.64817C11.3005 4.57429 11.0735 4.57262 10.8614 4.66059C10.415 4.8457 10.2032 5.35763 10.3883 5.80402C10.5406 6.17127 10.6251 6.57466 10.6251 7C10.6251 7.00204 10.6251 7.00408 10.6251 7.00612V9.25C10.6251 9.73325 11.0169 10.125 11.5001 10.125C11.9834 10.125 12.3751 9.73325 12.3751 9.25V6.98839Z" fill="black"/>
<path d="M12.3751 12.75C12.3751 12.2668 11.9834 11.875 11.5001 11.875C11.0169 11.875 10.6251 12.2668 10.6251 12.75V16.25C10.6251 16.7332 11.0169 17.125 11.5001 17.125C11.9834 17.125 12.3751 16.7332 12.3751 16.25V12.75Z" fill="black"/>
<path d="M12.3751 19.75C12.3751 19.2668 11.9834 18.875 11.5001 18.875C11.0169 18.875 10.6251 19.2668 10.6251 19.75V21.5C10.6251 21.9832 11.0169 22.375 11.5001 22.375C11.9834 22.375 12.3751 21.9832 12.3751 21.5V19.75Z" fill="black"/>
<path d="M1.52239 11.0313C4.0137 9.70423 6.79675 8.84934 9.75012 8.58638V19.6786C8.88513 19.8393 8.05758 20.1049 7.28114 20.4616C6.83053 20.6687 6.2746 20.5288 5.99582 20.0881L1.15523 12.4368C0.851416 11.9566 1.00596 11.3064 1.52239 11.0313Z" fill="black"/>
<path d="M16.6811 20.7419C15.6314 20.1813 14.4753 19.7923 13.2501 19.6127V8.55468C16.6049 8.79178 19.7489 9.79178 22.507 11.3817C23.0023 11.6672 23.1425 12.3017 22.8454 12.7713L18.0217 20.396C17.7298 20.8574 17.1383 20.9861 16.6811 20.7419Z" fill="black"/>
<path d="M16.6961 4.11178C16.3288 3.95949 15.9254 3.875 15.5001 3.875C15.0748 3.875 14.6714 3.95949 14.3041 4.11178C13.8577 4.29689 13.3458 4.08508 13.1607 3.63869C12.9756 3.1923 13.1874 2.68037 13.6338 2.49526C14.2098 2.2564 14.8407 2.125 15.5001 2.125C16.1595 2.125 16.7904 2.2564 17.3664 2.49526C17.8128 2.68037 18.0246 3.1923 17.8395 3.63869C17.6544 4.08508 17.1425 4.29689 16.6961 4.11178Z" fill="black"/>
<path d="M18.3883 5.80402C18.2032 5.35763 18.415 4.8457 18.8614 4.66059C19.3078 4.47548 19.8197 4.68729 20.0048 5.13368C20.2437 5.70969 20.3751 6.3406 20.3751 7C20.3751 7.48325 19.9834 7.875 19.5001 7.875C19.0169 7.875 18.6251 7.48325 18.6251 7C18.6251 6.57466 18.5406 6.17127 18.3883 5.80402Z" fill="black"/>
</svg>
