<svg width="24" height="24" viewBox="0 0 24 24" fill="none" xmlns="http://www.w3.org/2000/svg">
<path fill-rule="evenodd" clip-rule="evenodd" d="M13.7565 4.00037C13.7658 4.00718 13.7752 4.01397 13.7845 4.02075L22.6476 10.4667C22.7772 10.5608 22.9227 10.6666 23.0392 10.7685C23.1669 10.88 23.3573 11.0675 23.4705 11.3535C23.6108 11.7081 23.6108 12.1028 23.4705 12.4574C23.3573 12.7434 23.1669 12.9309 23.0392 13.0425C22.9227 13.1444 22.7772 13.2501 22.6476 13.3443L13.7565 19.8106C13.5762 19.9417 13.3899 20.0773 13.2259 20.1751C13.0653 20.2709 12.7632 20.4348 12.3792 20.4229C11.9322 20.409 11.5148 20.1964 11.2407 19.8431C11.0051 19.5396 10.9601 19.1988 10.943 19.0126C10.9257 18.8225 10.9257 18.592 10.9258 18.3691C10.9258 18.3575 10.9258 18.346 10.9258 18.3344V15.9492C8.07505 16.1994 5.40733 17.5124 3.46602 19.6478L3.16802 19.9756C3.11671 20.0321 3.0669 20.0869 3.02514 20.1306C2.98964 20.1679 2.91554 20.2452 2.82265 20.3145C1.93663 20.9754 0.664392 20.4836 0.45337 19.3985C0.431247 19.2848 0.428435 19.1777 0.427213 19.1263C0.425776 19.0658 0.425779 18.9917 0.425781 18.9154L0.425782 18.9055C0.425781 12.9979 5.08272 8.17802 10.9258 7.91662L10.9258 5.47648C10.9258 5.46495 10.9258 5.4534 10.9258 5.44183C10.9257 5.21891 10.9257 4.98845 10.943 4.79833C10.9601 4.61207 11.0052 4.27137 11.2407 3.96781C11.5148 3.61453 11.9322 3.40197 12.3792 3.38807C12.7632 3.37613 13.0653 3.54006 13.2259 3.63585C13.3899 3.73363 13.5762 3.86922 13.7565 4.00037ZM12.9258 5.86923L12.9258 8.40546C12.9258 9.23389 12.2542 9.90546 11.4258 9.90546C6.83949 9.90546 3.05442 13.336 2.4966 17.771C4.79787 15.5027 7.84019 14.1407 11.062 13.9332C11.0694 13.9328 11.0771 13.9323 11.0849 13.9317C11.1946 13.9246 11.3354 13.9155 11.463 13.9191C11.6202 13.9235 11.8258 13.9472 12.0459 14.0471C12.3424 14.1817 12.5955 14.4191 12.7489 14.7063C12.8663 14.926 12.901 15.1368 12.9145 15.2904C12.9259 15.4192 12.9258 15.5641 12.9258 15.6818C12.9258 15.6898 12.9258 15.6977 12.9258 15.7055V17.9417L21.2256 11.9055L12.9258 5.86923Z" fill="black"/>
</svg>
