<svg width="24" height="24" viewBox="0 0 24 24" fill="none" xmlns="http://www.w3.org/2000/svg">
<path d="M22.7208 6.35801C23.0168 6.64776 23.0168 7.11753 22.7208 7.40727L18.6026 11.4384C18.3066 11.7281 17.8267 11.7281 17.5307 11.4384C17.2347 11.1486 17.2347 10.6788 17.5307 10.3891L20.3467 7.63264H8.92681C5.40543 7.63264 2.55078 10.4873 2.55078 14.0087C2.55078 17.53 5.40542 20.3847 8.9268 20.3847H13.4488C13.863 20.3847 14.1988 20.7205 14.1988 21.1347C14.1988 21.5489 13.863 21.8847 13.4488 21.8847H8.9268C4.577 21.8847 1.05078 18.3585 1.05078 14.0087C1.05078 9.65885 4.577 6.13264 8.92681 6.13264H20.3467L17.5307 3.37619C17.2347 3.08644 17.2347 2.61667 17.5307 2.32693C17.8267 2.03718 18.3066 2.03718 18.6026 2.32693L22.7208 6.35801Z" fill="black"/>
</svg>
