<svg width="24" height="24" viewBox="0 0 24 24" fill="none" xmlns="http://www.w3.org/2000/svg">
<path d="M23.0781 6.00826C23.5715 6.49117 23.5715 7.27412 23.0781 7.75703L18.9599 11.7881C18.4666 12.271 17.6667 12.271 17.1733 11.7881C16.68 11.3052 16.68 10.5222 17.1733 10.0393L19.1213 8.13264H8.92681C5.68157 8.13264 3.05078 10.7634 3.05078 14.0087C3.05078 17.2539 5.68156 19.8847 8.9268 19.8847H13.4488C14.1392 19.8847 14.6988 20.4443 14.6988 21.1347C14.6988 21.825 14.1392 22.3847 13.4488 22.3847H8.9268C4.30085 22.3847 0.550781 18.6346 0.550781 14.0087C0.550781 9.38271 4.30086 5.63264 8.92681 5.63264H19.1213L17.1733 3.72594C16.68 3.24303 16.68 2.46008 17.1733 1.97717C17.6667 1.49426 18.4666 1.49426 18.9599 1.97717L23.0781 6.00826Z" fill="black"/>
</svg>
