<svg width="24" height="24" viewBox="0 0 24 24" fill="none" xmlns="http://www.w3.org/2000/svg">
<path d="M1.94217 19.736C4.15357 17.2442 7.19252 15.6703 10.4645 15.2817C10.9548 15.2234 11.2 15.1943 11.4397 15.2924C11.6351 15.3724 11.8327 15.5479 11.9352 15.7325C12.0609 15.9589 12.0609 16.235 12.0609 16.7872V17.6636C12.0609 18.69 12.0609 19.2032 12.2729 19.4745C12.4575 19.7107 12.7382 19.8516 13.0378 19.8585C13.3821 19.8665 13.7937 19.5599 14.6168 18.9467L22.5022 13.0722C23.086 12.6372 23.3779 12.4198 23.4821 12.1528C23.5734 11.9189 23.5734 11.6593 23.4821 11.4254C23.3779 11.1584 23.086 10.9409 22.5022 10.506L14.6168 4.63148C13.7937 4.01829 13.3821 3.7117 13.0378 3.71963C12.7382 3.72654 12.4575 3.86747 12.2729 4.10363C12.0609 4.37498 12.0609 4.88818 12.0609 5.91456V7.97191C12.0609 8.20333 11.8733 8.39095 11.6418 8.39095C5.46086 8.39094 0.450195 13.4016 0.450195 19.5826C0.450195 20.2235 1.24253 20.5243 1.66792 20.045L1.94217 19.736Z" fill="black"/>
</svg>
