<svg width="24" height="24" viewBox="0 0 24 24" fill="none" xmlns="http://www.w3.org/2000/svg">
<path d="M1.94119 19.736C4.15259 17.2442 7.19154 15.6703 10.4635 15.2817C10.9539 15.2234 11.1991 15.1943 11.4387 15.2924C11.6341 15.3724 11.8318 15.5479 11.9342 15.7325C12.0599 15.9589 12.0599 16.235 12.0599 16.7872V17.6636C12.0599 18.69 12.0599 19.2032 12.2719 19.4745C12.4565 19.7107 12.7372 19.8516 13.0369 19.8585C13.3812 19.8665 13.7927 19.5599 14.6158 18.9467L22.5012 13.0722C23.085 12.6372 23.3769 12.4198 23.4811 12.1528C23.5724 11.9189 23.5724 11.6593 23.4811 11.4254C23.3769 11.1584 23.085 10.9409 22.5012 10.506L14.6158 4.63148C13.7927 4.01829 13.3812 3.7117 13.0369 3.71963C12.7372 3.72654 12.4565 3.86747 12.2719 4.10363C12.0599 4.37498 12.0599 4.88818 12.0599 5.91456V7.97191C12.0599 8.20333 11.8723 8.39095 11.6409 8.39095C5.45988 8.39094 0.449218 13.4016 0.449219 19.5826C0.449219 20.2235 1.24155 20.5243 1.66694 20.045L1.94119 19.736Z" fill="black"/>
</svg>
