<svg width="24" height="24" viewBox="0 0 24 24" fill="none" xmlns="http://www.w3.org/2000/svg">
<path d="M22.3637 6.70752C22.4624 6.80411 22.4624 6.9607 22.3637 7.05728L18.2455 11.0884C18.1469 11.1849 17.9869 11.1849 17.8882 11.0884C17.7895 10.9918 17.7895 10.8352 17.8882 10.7386L21.5724 7.1324H8.92705C5.12953 7.1324 2.05103 10.2109 2.05103 14.0084C2.05103 17.8059 5.12952 20.8844 8.92705 20.8844H13.4491C13.5871 20.8844 13.6991 20.9964 13.6991 21.1344C13.6991 21.2725 13.5871 21.3844 13.4491 21.3844H8.92705C4.85338 21.3844 1.55103 18.0821 1.55103 14.0084C1.55103 9.93476 4.85339 6.6324 8.92705 6.6324H21.5724L17.8882 3.02619C17.7895 2.92961 17.7895 2.77302 17.8882 2.67644C17.9869 2.57986 18.1469 2.57986 18.2455 2.67644L22.3637 6.70752Z" fill="black"/>
</svg>
