<svg width="24" height="24" viewBox="0 0 24 24" fill="none" xmlns="http://www.w3.org/2000/svg">
<path fill-rule="evenodd" clip-rule="evenodd" d="M13.6139 4.20582L22.4973 10.6665C22.6301 10.763 22.767 10.8625 22.8747 10.9567C22.9909 11.0582 23.1464 11.2142 23.238 11.4455C23.3549 11.741 23.3549 12.0699 23.238 12.3654C23.1464 12.5968 22.9909 12.7527 22.8747 12.8542C22.767 12.9484 22.6301 13.0479 22.4974 13.1444L13.6139 19.6051C13.4294 19.7393 13.2517 19.8686 13.0979 19.9604C12.9464 20.0507 12.6964 20.1826 12.3869 20.173C12.0145 20.1614 11.6666 19.9843 11.4382 19.6898C11.2484 19.4453 11.2081 19.1654 11.192 18.9899C11.1757 18.8115 11.1757 18.5917 11.1758 18.3635L11.1758 15.7055C11.1758 15.6966 11.1758 15.6879 11.1758 15.6795C11.1753 15.6796 11.1749 15.6796 11.1744 15.6796C8.15997 15.8737 5.32607 17.2301 3.28104 19.4796L2.98429 19.8061C2.93188 19.8637 2.88386 19.9165 2.8442 19.9581C2.80923 19.9948 2.74767 20.0585 2.67317 20.1141C1.93482 20.6649 0.874624 20.255 0.698772 19.3508C0.68103 19.2596 0.678346 19.171 0.677143 19.1203C0.675778 19.0629 0.67578 18.9916 0.675781 18.9137L0.675781 18.9055C0.675781 13.052 5.3542 8.29116 11.1758 8.15831L11.1758 5.44738C11.1757 5.21923 11.1757 4.99941 11.192 4.82107C11.2081 4.64547 11.2484 4.36565 11.4382 4.12107C11.6666 3.82667 12.0145 3.64953 12.3869 3.63795C12.6964 3.62833 12.9464 3.76026 13.0979 3.85057C13.2517 3.94229 13.4294 4.07161 13.6139 4.20582ZM12.6758 5.37839C12.6758 5.40921 12.6758 5.44185 12.6758 5.47648L12.6758 8.40546C12.6758 9.09582 12.1161 9.65546 11.4258 9.65546C6.46864 9.65546 2.42225 13.5548 2.18662 18.4536C4.49306 15.9254 7.68409 14.4013 11.078 14.1827C11.0848 14.1823 11.0916 14.1818 11.0985 14.1814C11.211 14.1741 11.3406 14.1657 11.456 14.169C11.5938 14.1729 11.7633 14.1933 11.9426 14.2748C12.1889 14.3866 12.4009 14.5854 12.5284 14.824C12.6238 15.0027 12.6535 15.1763 12.6655 15.3124C12.6759 15.4296 12.6758 15.5639 12.6758 15.6846L12.6758 18.3344C12.6758 18.3691 12.6758 18.4017 12.6758 18.4325C12.7008 18.4144 12.7272 18.3952 12.7552 18.3749L21.595 11.9459C21.6146 11.9317 21.6331 11.9182 21.6506 11.9055C21.6331 11.8927 21.6146 11.8792 21.595 11.865L12.7552 5.43604C12.7272 5.41567 12.7008 5.39648 12.6758 5.37839Z" fill="black"/>
</svg>
