<svg width="24" height="24" viewBox="0 0 24 24" fill="none" xmlns="http://www.w3.org/2000/svg">
<path d="M22.721 6.35777C23.017 6.64751 23.017 7.11728 22.721 7.40703L18.6028 11.4381C18.3068 11.7279 17.8269 11.7279 17.5309 11.4381C17.2349 11.1484 17.2349 10.6786 17.5309 10.3889L20.3469 7.6324H8.92705C5.40567 7.6324 2.55103 10.487 2.55103 14.0084C2.55103 17.5298 5.40567 20.3844 8.92705 20.3844H13.4491C13.8633 20.3844 14.1991 20.7202 14.1991 21.1344C14.1991 21.5486 13.8633 21.8844 13.4491 21.8844H8.92705C4.57724 21.8844 1.05103 18.3582 1.05103 14.0084C1.05103 9.65861 4.57725 6.1324 8.92705 6.1324H20.3469L17.5309 3.37595C17.2349 3.0862 17.2349 2.61643 17.5309 2.32668C17.8269 2.03694 18.3068 2.03694 18.6028 2.32668L22.721 6.35777Z" fill="black"/>
</svg>
