<svg width="24" height="24" viewBox="0 0 24 24" fill="none" xmlns="http://www.w3.org/2000/svg">
<path d="M22.1982 10.625C23.0267 10.625 23.6982 11.2966 23.6982 12.125C23.6982 18.5167 18.5167 23.6982 12.125 23.6982C9.1513 23.6982 6.43953 22.5734 4.39062 20.7314L4.33203 20.7852C4.01785 21.081 3.86072 21.2294 3.71777 21.2422C3.59341 21.2531 3.47052 21.207 3.38379 21.1172C3.28408 21.0138 3.26249 20.7983 3.21973 20.3682L2.96289 17.792C2.93394 17.5009 2.92009 17.3549 2.9707 17.25C3.01504 17.1583 3.09134 17.0856 3.18555 17.0469C3.29323 17.0026 3.43799 17.026 3.72656 17.0723L6.28418 17.4824C6.71068 17.5508 6.92414 17.5849 7.02148 17.6904C7.10603 17.7823 7.14421 17.9077 7.12598 18.0312C7.10491 18.1733 6.9483 18.322 6.63379 18.6182L6.58496 18.665C8.08029 19.9333 10.0121 20.6982 12.125 20.6982C16.8599 20.6982 20.6982 16.8599 20.6982 12.125C20.6982 11.2966 21.3698 10.625 22.1982 10.625Z" fill="black"/>
<path d="M12.125 0.551758C15.099 0.551758 17.8115 1.67549 19.8604 3.51758L19.918 3.46484C20.2322 3.16896 20.3893 3.02058 20.5322 3.00781C20.6566 2.99693 20.7795 3.04303 20.8662 3.13281C20.9659 3.23621 20.9875 3.45174 21.0303 3.88184L21.1484 5.06934C21.204 5.25505 21.2228 5.44809 21.2051 5.63867L21.2871 6.45801C21.3161 6.74913 21.3299 6.8951 21.2793 7C21.235 7.09171 21.1587 7.16436 21.0645 7.20312C20.9568 7.24735 20.812 7.22399 20.5234 7.17773L17.9658 6.76758C17.5393 6.69921 17.3259 6.6651 17.2285 6.55957C17.144 6.46769 17.1049 6.34224 17.123 6.21875C17.1441 6.07669 17.3017 5.92803 17.6162 5.63184L17.666 5.58398C16.1707 4.31566 14.2378 3.55176 12.125 3.55176C7.39013 3.55176 3.55176 7.39013 3.55176 12.125C3.55176 12.9534 2.88018 13.625 2.05176 13.625C1.22333 13.625 0.551758 12.9534 0.551758 12.125C0.551761 5.73328 5.73328 0.551761 12.125 0.551758Z" fill="black"/>
</svg>
