<svg width="24" height="24" viewBox="0 0 24 24" fill="none" xmlns="http://www.w3.org/2000/svg">
<path fill-rule="evenodd" clip-rule="evenodd" d="M0 12C0 10.142 0 9.21298 0.123117 8.43565C0.800832 4.15673 4.15673 0.800832 8.43565 0.123117C9.21298 0 10.142 0 12 0C13.858 0 14.787 0 15.5643 0.123117C19.8433 0.800832 23.1992 4.15673 23.8769 8.43565C24 9.21298 24 10.142 24 12C24 13.858 24 14.787 23.8769 15.5643C23.1992 19.8433 19.8433 23.1992 15.5643 23.8769C14.787 24 13.858 24 12 24C10.142 24 9.21298 24 8.43565 23.8769C4.15673 23.1992 0.800832 19.8433 0.123117 15.5643C0 14.787 0 13.858 0 12ZM18.2988 12.0833C18.2988 15.5161 15.5161 18.2988 12.0833 18.2988C10.478 18.2988 9.0148 17.6906 7.9115 16.6909L8.22512 16.3955C8.40868 16.2227 8.50046 16.1362 8.51275 16.0533C8.52345 15.9812 8.50099 15.9081 8.45164 15.8545C8.39491 15.7928 8.27043 15.7728 8.02148 15.7329L6.5297 15.4937C6.3612 15.4666 6.27694 15.4531 6.21409 15.4789C6.15902 15.5015 6.11424 15.5437 6.08837 15.5973C6.05884 15.6585 6.06728 15.7434 6.08415 15.9132L6.23352 17.4167C6.25845 17.6676 6.27092 17.793 6.32908 17.8534C6.37968 17.9058 6.45129 17.9326 6.52391 17.9263C6.60738 17.919 6.69916 17.8326 6.88273 17.6597L7.18158 17.3783C8.46816 18.5698 10.1907 19.2988 12.0833 19.2988C16.0683 19.2988 19.2988 16.0684 19.2988 12.0833C19.2988 11.8072 19.075 11.5833 18.7988 11.5833C18.5227 11.5833 18.2988 11.8072 18.2988 12.0833ZM12.0834 5.86783C8.65069 5.86783 5.86792 8.65061 5.86792 12.0833C5.86792 12.3595 5.64406 12.5833 5.36792 12.5833C5.09178 12.5833 4.86792 12.3595 4.86792 12.0833C4.86792 8.09832 8.09841 4.86783 12.0834 4.86783C13.9761 4.86783 15.6986 5.5969 16.9852 6.7884L17.284 6.50699C17.4675 6.33412 17.5593 6.24769 17.6428 6.24039C17.7154 6.23404 17.787 6.26084 17.8376 6.31332C17.8958 6.37364 17.9083 6.4991 17.9332 6.75001L18.0826 8.25343C18.0994 8.42326 18.1079 8.50817 18.0783 8.56936C18.0525 8.62298 18.0077 8.66514 17.9526 8.68776C17.8898 8.71356 17.8055 8.70005 17.637 8.67302L16.1452 8.43377C15.8963 8.39384 15.7718 8.37387 15.7151 8.3122C15.6657 8.25854 15.6433 8.18546 15.654 8.11335C15.6662 8.03046 15.758 7.94403 15.9416 7.77117L16.2552 7.47579C15.1519 6.4761 13.6888 5.86783 12.0834 5.86783Z" fill="black"/>
</svg>
