<svg width="24" height="24" viewBox="0 0 24 24" fill="none" xmlns="http://www.w3.org/2000/svg">
<path fill-rule="evenodd" clip-rule="evenodd" d="M0 12C0 10.142 0 9.21298 0.123117 8.43565C0.800832 4.15673 4.15673 0.800832 8.43565 0.123117C9.21298 0 10.142 0 12 0C13.858 0 14.787 0 15.5643 0.123117C19.8433 0.800832 23.1992 4.15673 23.8769 8.43565C24 9.21298 24 10.142 24 12C24 13.858 24 14.787 23.8769 15.5643C23.1992 19.8433 19.8433 23.1992 15.5643 23.8769C14.787 24 13.858 24 12 24C10.142 24 9.21298 24 8.43565 23.8769C4.15673 23.1992 0.800832 19.8433 0.123117 15.5643C0 14.787 0 13.858 0 12ZM18.5488 12.0833C18.5488 15.6541 15.6541 18.5488 12.0833 18.5488C10.3531 18.5488 8.78157 17.8694 7.62099 16.7621L8.02819 16.3786C8.18553 16.2304 8.2642 16.1563 8.27474 16.0853C8.28391 16.0235 8.26465 15.9608 8.22235 15.9149C8.17373 15.862 8.06703 15.8449 7.85363 15.8106L6.57498 15.6056C6.43055 15.5824 6.35833 15.5708 6.30446 15.5929C6.25725 15.6123 6.21887 15.6485 6.19669 15.6944C6.17138 15.7469 6.17861 15.8197 6.19308 15.9652L6.32111 17.2539C6.34248 17.4689 6.35317 17.5765 6.40302 17.6282C6.44639 17.6732 6.50777 17.6961 6.57002 17.6907C6.64157 17.6844 6.72024 17.6103 6.87757 17.4622L7.25653 17.1053C8.50829 18.3087 10.2094 19.0488 12.0833 19.0488C15.9303 19.0488 19.0488 15.9303 19.0488 12.0833C19.0488 11.9453 18.9369 11.8333 18.7988 11.8333C18.6608 11.8333 18.5488 11.9453 18.5488 12.0833ZM12.0833 5.61783C8.5125 5.61783 5.6178 8.51254 5.6178 12.0833C5.6178 12.2214 5.50587 12.3333 5.3678 12.3333C5.22973 12.3333 5.1178 12.2214 5.1178 12.0833C5.1178 8.23639 8.23636 5.11783 12.0833 5.11783C13.9572 5.11783 15.6583 5.85802 16.9101 7.06138L17.2891 6.70451C17.4464 6.55634 17.5251 6.48225 17.5966 6.47599C17.6589 6.47055 17.7202 6.49352 17.7636 6.53851C17.8135 6.59021 17.8241 6.69774 17.8455 6.91281L17.9735 8.20146C17.988 8.34702 17.9952 8.4198 17.9699 8.47225C17.9478 8.51821 17.9094 8.55435 17.8622 8.57374C17.8083 8.59586 17.7361 8.58427 17.5916 8.56111L16.313 8.35603C16.0996 8.32181 15.9929 8.3047 15.9443 8.25183C15.902 8.20584 15.8827 8.1432 15.8919 8.08139C15.9024 8.01034 15.9811 7.93626 16.1384 7.78808L16.5456 7.4046C15.3851 6.29732 13.8136 5.61783 12.0833 5.61783Z" fill="black"/>
</svg>
