<svg width="24" height="24" viewBox="0 0 24 24" fill="none" xmlns="http://www.w3.org/2000/svg">
<path fill-rule="evenodd" clip-rule="evenodd" d="M0 12C0 10.142 0 9.21298 0.123117 8.43565C0.800832 4.15673 4.15673 0.800832 8.43565 0.123117C9.21298 0 10.142 0 12 0C13.858 0 14.787 0 15.5643 0.123117C19.8433 0.800832 23.1992 4.15673 23.8769 8.43565C24 9.21298 24 10.142 24 12C24 13.858 24 14.787 23.8769 15.5643C23.1992 19.8433 19.8433 23.1992 15.5643 23.8769C14.787 24 13.858 24 12 24C10.142 24 9.21298 24 8.43565 23.8769C4.15673 23.1992 0.800832 19.8433 0.123117 15.5643C0 14.787 0 13.858 0 12ZM18.0488 12.0833C18.0488 15.378 15.378 18.0488 12.0833 18.0488C10.7097 18.0488 9.44451 17.585 8.43569 16.8042L8.81574 16.4463C9.07796 16.1993 9.20909 16.0759 9.22665 15.9575C9.24193 15.8544 9.20984 15.75 9.13934 15.6734C9.05831 15.5853 8.88047 15.5568 8.52481 15.4997L6.39372 15.1579C6.153 15.1193 6.03263 15.1 5.94285 15.1369C5.86417 15.1692 5.80021 15.2294 5.76324 15.306C5.72106 15.3934 5.73311 15.5147 5.75721 15.7573L5.97061 17.9051C6.00622 18.2635 6.02403 18.4428 6.10712 18.5289C6.1794 18.6039 6.2817 18.6422 6.38545 18.6331C6.50469 18.6227 6.63581 18.4992 6.89804 18.2523L7.33298 17.8427C8.62328 18.908 10.2786 19.5488 12.0833 19.5488C16.2064 19.5488 19.5488 16.2064 19.5488 12.0833C19.5488 11.6691 19.213 11.3333 18.7988 11.3333C18.3846 11.3333 18.0488 11.6691 18.0488 12.0833ZM12.0834 6.11783C8.78876 6.11783 6.11792 8.78868 6.11792 12.0833C6.11792 12.4975 5.78213 12.8333 5.36792 12.8333C4.95371 12.8333 4.61792 12.4975 4.61792 12.0833C4.61792 7.96025 7.96034 4.61783 12.0834 4.61783C13.8882 4.61783 15.5435 5.25871 16.8337 6.324L17.2687 5.91443C17.5309 5.66749 17.662 5.54401 17.7813 5.53357C17.885 5.5245 17.9873 5.56279 18.0596 5.63776C18.1427 5.72393 18.1605 5.90316 18.1961 6.2616L18.4095 8.40935C18.4336 8.65196 18.4456 8.77326 18.4035 8.86067C18.3665 8.93727 18.3025 8.99751 18.2239 9.02981C18.1341 9.06668 18.0137 9.04738 17.773 9.00877L15.6419 8.66698C15.2862 8.60993 15.1084 8.58141 15.0274 8.4933C14.9569 8.41665 14.9248 8.31225 14.94 8.20923C14.9576 8.09082 15.0887 7.96734 15.351 7.72039L15.731 7.36246C14.7222 6.5817 13.4571 6.11783 12.0834 6.11783Z" fill="black"/>
</svg>
