<svg width="24" height="24" viewBox="0 0 24 24" fill="none" xmlns="http://www.w3.org/2000/svg">
<path fill-rule="evenodd" clip-rule="evenodd" d="M0 12C0 10.142 0 9.21298 0.123117 8.43565C0.800832 4.15673 4.15673 0.800832 8.43565 0.123117C9.21298 0 10.142 0 12 0C13.858 0 14.787 0 15.5643 0.123117C19.8433 0.800832 23.1992 4.15673 23.8769 8.43565C24 9.21298 24 10.142 24 12C24 13.858 24 14.787 23.8769 15.5643C23.1992 19.8433 19.8433 23.1992 15.5643 23.8769C14.787 24 13.858 24 12 24C10.142 24 9.21298 24 8.43565 23.8769C4.15673 23.1992 0.800832 19.8433 0.123117 15.5643C0 14.787 0 13.858 0 12ZM17.9238 12.0833C17.9238 15.309 15.309 17.9238 12.0833 17.9238C10.7456 17.9238 9.51299 17.4746 8.52783 16.7174L8.81574 16.4463C9.07796 16.1993 9.20909 16.0759 9.22665 15.9575C9.24193 15.8544 9.20984 15.75 9.13934 15.6734C9.05831 15.5853 8.88048 15.5568 8.52483 15.4997L6.39372 15.1579C6.153 15.1193 6.03263 15.1 5.94285 15.1369C5.86417 15.1692 5.80021 15.2294 5.76324 15.306C5.72106 15.3934 5.73311 15.5147 5.75721 15.7573L5.97061 17.9051C6.00622 18.2635 6.02403 18.4428 6.10712 18.5289C6.1794 18.6039 6.2817 18.6422 6.38545 18.6331C6.50469 18.6227 6.63581 18.4992 6.89804 18.2523L7.24129 17.929C8.55487 19.0181 10.2426 19.6738 12.0833 19.6738C16.2755 19.6738 19.6738 16.2755 19.6738 12.0833C19.6738 11.6001 19.2821 11.2083 18.7988 11.2083C18.3156 11.2083 17.9238 11.6001 17.9238 12.0833ZM12.0834 6.24283C8.8578 6.24283 6.24292 8.85772 6.24292 12.0833C6.24292 12.5666 5.85117 12.9583 5.36792 12.9583C4.88467 12.9583 4.49292 12.5666 4.49292 12.0833C4.49292 7.89122 7.8913 4.49283 12.0834 4.49283C13.9241 4.49283 15.6119 5.14856 16.9254 6.23765L17.2687 5.91443C17.5309 5.66749 17.662 5.54401 17.7813 5.53357C17.885 5.5245 17.9873 5.56279 18.0596 5.63776C18.1427 5.72393 18.1605 5.90316 18.1961 6.2616L18.4095 8.40935C18.4336 8.65196 18.4456 8.77326 18.4035 8.86067C18.3665 8.93727 18.3025 8.99751 18.2239 9.02981C18.1341 9.06668 18.0137 9.04738 17.773 9.00877L15.6419 8.66698C15.2862 8.60993 15.1084 8.58141 15.0274 8.4933C14.9569 8.41665 14.9248 8.31225 14.94 8.20923C14.9576 8.09082 15.0887 7.96734 15.351 7.72039L15.6389 7.44923C14.6537 6.69209 13.4211 6.24283 12.0834 6.24283Z" fill="black"/>
</svg>
