<svg width="24" height="24" viewBox="0 0 24 24" fill="none" xmlns="http://www.w3.org/2000/svg">
<path fill-rule="evenodd" clip-rule="evenodd" d="M0 12C0 10.142 0 9.21298 0.123117 8.43565C0.800832 4.15673 4.15673 0.800832 8.43565 0.123117C9.21298 0 10.142 0 12 0C13.858 0 14.787 0 15.5643 0.123117C19.8433 0.800832 23.1992 4.15673 23.8769 8.43565C24 9.21298 24 10.142 24 12C24 13.858 24 14.787 23.8769 15.5643C23.1992 19.8433 19.8433 23.1992 15.5643 23.8769C14.787 24 13.858 24 12 24C10.142 24 9.21298 24 8.43565 23.8769C4.15673 23.1992 0.800832 19.8433 0.123117 15.5643C0 14.787 0 13.858 0 12ZM17.6738 12.0833C17.6738 15.1709 15.1709 17.6738 12.0833 17.6738C10.9251 17.6738 9.84924 17.3221 8.95639 16.7185L9.20946 16.4801C9.52414 16.1838 9.68148 16.0356 9.70255 15.8935C9.72089 15.7699 9.68238 15.6446 9.59778 15.5526C9.50054 15.4469 9.28714 15.4127 8.86034 15.3442L6.30303 14.9341C6.01416 14.8878 5.86973 14.8646 5.76199 14.9088C5.66758 14.9476 5.59082 15.0199 5.54646 15.1118C5.49584 15.2167 5.5103 15.3623 5.53923 15.6534L5.7953 18.2307C5.83804 18.6608 5.8594 18.8759 5.95911 18.9793C6.04586 19.0693 6.16861 19.1152 6.29311 19.1043C6.4362 19.0918 6.59354 18.9436 6.90822 18.6473L7.28971 18.288C8.61455 19.3129 10.2777 19.9238 12.0833 19.9238C16.4135 19.9238 19.9238 16.4135 19.9238 12.0833C19.9238 11.462 19.4202 10.9583 18.7988 10.9583C18.1775 10.9583 17.6738 11.462 17.6738 12.0833ZM12.0834 6.49283C8.99587 6.49283 6.49292 8.99579 6.49292 12.0833C6.49292 12.7047 5.98924 13.2083 5.36792 13.2083C4.7466 13.2083 4.24292 12.7047 4.24292 12.0833C4.24292 7.75315 7.75323 4.24283 12.0834 4.24283C13.889 4.24283 15.5522 4.85382 16.877 5.87865L17.2585 5.51939C17.5732 5.22305 17.7305 5.07488 17.8736 5.06236C17.9981 5.05147 18.1209 5.09742 18.2076 5.18738C18.3073 5.29079 18.3287 5.50586 18.3714 5.93599L18.6275 8.51329C18.6564 8.8044 18.6709 8.94998 18.6203 9.05488C18.5759 9.14679 18.4992 9.21908 18.4048 9.25785C18.297 9.30209 18.1526 9.27892 17.8637 9.23259L15.3064 8.82244C14.8796 8.75399 14.6662 8.71976 14.569 8.61404C14.4844 8.52205 14.4459 8.39677 14.4642 8.27315C14.4853 8.13106 14.6426 7.98289 14.9573 7.68655L15.2104 7.4482C14.3175 6.84454 13.2416 6.49283 12.0834 6.49283Z" fill="black"/>
</svg>
