<svg width="24" height="24" viewBox="0 0 24 24" fill="none" xmlns="http://www.w3.org/2000/svg">
<path d="M12.125 2.55176C6.83785 2.55176 2.55176 6.83785 2.55176 12.125C2.55176 12.4011 2.3279 12.625 2.05176 12.625C1.77562 12.625 1.55176 12.4011 1.55176 12.125C1.55176 6.28556 6.28556 1.55176 12.125 1.55176C15.0248 1.55176 17.6521 2.71954 19.5618 4.60922L19.9387 4.25428C20.1485 4.05672 20.2534 3.95794 20.3488 3.94959C20.4318 3.94233 20.5136 3.97297 20.5714 4.03294C20.6379 4.10188 20.6522 4.24526 20.6807 4.53201L20.8514 6.25022C20.8706 6.4443 20.8803 6.54134 20.8465 6.61127C20.817 6.67255 20.7658 6.72074 20.7029 6.74658C20.631 6.77608 20.5347 6.76064 20.3422 6.72975L18.6373 6.45631C18.3528 6.41068 18.2105 6.38786 18.1457 6.31738C18.0893 6.25606 18.0636 6.17253 18.0758 6.09012C18.0899 5.99539 18.1948 5.89661 18.4045 5.69905L18.8333 5.29523C17.1055 3.59784 14.7375 2.55176 12.125 2.55176Z" fill="black"/>
<path d="M12.125 21.6982C17.4122 21.6982 21.6982 17.4122 21.6982 12.125C21.6982 11.8489 21.9221 11.625 22.1982 11.625C22.4744 11.625 22.6982 11.8489 22.6982 12.125C22.6982 17.9644 17.9644 22.6982 12.125 22.6982C9.22516 22.6982 6.59793 21.5305 4.68821 19.6408L4.31132 19.9957C4.10154 20.1933 3.99664 20.2921 3.90124 20.3004C3.81824 20.3077 3.73641 20.277 3.67858 20.2171C3.61211 20.1481 3.59786 20.0047 3.56937 19.718L3.39866 17.9998C3.37938 17.8057 3.36973 17.7087 3.40348 17.6387C3.43305 17.5774 3.48423 17.5293 3.54717 17.5034C3.61899 17.4739 3.71528 17.4894 3.90786 17.5202L5.61274 17.7937C5.89727 17.8393 6.03953 17.8621 6.10436 17.9326C6.16076 17.9939 6.18643 18.0775 6.17421 18.1599C6.16016 18.2546 6.05527 18.3534 5.84548 18.5509L5.41666 18.9548C7.14449 20.6522 9.5125 21.6982 12.125 21.6982Z" fill="black"/>
</svg>
