<svg width="24" height="24" viewBox="0 0 24 24" fill="none" xmlns="http://www.w3.org/2000/svg">
<path d="M20.9926 6.21332C20.9926 6.64373 20.6437 6.99264 20.2133 6.99264L16 6.99264C15.5858 6.99264 15.25 6.65685 15.25 6.24264C15.25 5.82843 15.5858 5.49264 16 5.49264L18.6775 5.49264C16.9929 3.82807 14.6789 2.80176 12.125 2.80176C6.97592 2.80176 2.80176 6.97592 2.80176 12.125C2.80176 12.5392 2.46597 12.875 2.05176 12.875C1.63754 12.875 1.30176 12.5392 1.30176 12.125C1.30176 6.14749 6.14749 1.30176 12.125 1.30176C14.9714 1.30176 17.5612 2.40104 19.4926 4.19655V2C19.4926 1.58579 19.8284 1.25 20.2426 1.25C20.6569 1.25 20.9926 1.58579 20.9926 2V6.21332Z" fill="black"/>
<path d="M3.25736 18.0367C3.25736 17.6063 3.60628 17.2574 4.03668 17.2574H8.25C8.66421 17.2574 9 17.5931 9 18.0074C9 18.4216 8.66421 18.7574 8.25 18.7574H5.57248C7.25706 20.4219 9.57106 21.4482 12.125 21.4482C17.2741 21.4482 21.4482 17.2741 21.4482 12.125C21.4482 11.7108 21.784 11.375 22.1982 11.375C22.6125 11.375 22.9482 11.7108 22.9482 12.125C22.9482 18.1025 18.1025 22.9482 12.125 22.9482C9.27864 22.9482 6.68884 21.849 4.75736 20.0535V22.25C4.75736 22.6642 4.42157 23 4.00736 23C3.59315 23 3.25736 22.6642 3.25736 22.25V18.0367Z" fill="black"/>
</svg>
