<svg width="24" height="24" viewBox="0 0 24 24" fill="none" xmlns="http://www.w3.org/2000/svg">
<path d="M22.1982 10.375C23.1647 10.375 23.9482 11.1585 23.9482 12.125C23.9482 18.6548 18.6548 23.9482 12.125 23.9482C9.08011 23.9482 6.30283 22.7928 4.20801 20.9023C3.97398 21.1206 3.84048 21.2312 3.71777 21.2422C3.59341 21.2531 3.47052 21.207 3.38379 21.1172C3.28408 21.0138 3.26249 20.7983 3.21973 20.3682L2.96289 17.792C2.93394 17.5009 2.92009 17.3549 2.9707 17.25C3.01504 17.1583 3.09134 17.0856 3.18555 17.0469C3.29323 17.0026 3.43799 17.026 3.72656 17.0723L6.28418 17.4824C6.71068 17.5508 6.92414 17.5849 7.02148 17.6904C7.10603 17.7823 7.14421 17.9077 7.12598 18.0312C7.1081 18.1518 6.99257 18.2771 6.76562 18.4932C8.21458 19.7142 10.0823 20.4482 12.125 20.4482C16.7218 20.4482 20.4482 16.7218 20.4482 12.125C20.4482 11.1585 21.2317 10.375 22.1982 10.375Z" fill="black"/>
<path d="M12.125 0.301758C15.1699 0.301758 17.9472 1.45722 20.042 3.34766C20.276 3.12935 20.4095 3.01877 20.5322 3.00781C20.6566 2.99693 20.7795 3.04303 20.8662 3.13281C20.9659 3.23621 20.9875 3.45174 21.0303 3.88184L21.2871 6.45801C21.3161 6.74913 21.3299 6.8951 21.2793 7C21.235 7.09171 21.1587 7.16436 21.0645 7.20312C20.9568 7.24735 20.812 7.22399 20.5234 7.17773L17.9658 6.76758C17.5393 6.69921 17.3259 6.6651 17.2285 6.55957C17.144 6.46769 17.1049 6.34224 17.123 6.21875C17.1409 6.09828 17.2568 5.97265 17.4834 5.75684C16.0345 4.53606 14.1674 3.80176 12.125 3.80176C7.5282 3.80176 3.80176 7.5282 3.80176 12.125C3.80176 13.0915 3.01826 13.875 2.05176 13.875C1.08526 13.875 0.301758 13.0915 0.301758 12.125C0.301761 5.59521 5.59521 0.301761 12.125 0.301758Z" fill="black"/>
</svg>
