<svg width="24" height="24" viewBox="0 0 24 24" fill="none" xmlns="http://www.w3.org/2000/svg">
<path d="M12.125 0.301758C14.6861 0.301758 17.0569 1.11724 18.9922 2.5V2C18.9924 1.31 19.5522 0.750245 20.2422 0.75C20.9324 0.75 21.4919 1.30985 21.4922 2V4.90918C21.4987 4.91763 21.5052 4.9261 21.5117 4.93457L21.4922 4.94922V6.21289C21.4922 6.91943 20.9194 7.49217 20.2129 7.49219H16C15.3099 7.49194 14.75 6.93239 14.75 6.24219C14.7502 5.55219 15.31 4.99243 16 4.99219H16.4111C15.1584 4.23763 13.6932 3.80176 12.125 3.80176C7.5282 3.80176 3.80176 7.5282 3.80176 12.125C3.80176 16.7218 7.5282 20.4482 12.125 20.4482C16.7218 20.4482 20.4482 16.7218 20.4482 12.125C20.4482 11.1585 21.2318 10.375 22.1982 10.375C23.1647 10.375 23.9482 11.1585 23.9482 12.125C23.9482 18.6548 18.6548 23.9482 12.125 23.9482C5.5952 23.9482 0.301758 18.6548 0.301758 12.125C0.301761 5.59521 5.59521 0.301761 12.125 0.301758Z" fill="black"/>
</svg>
