<svg width="24" height="24" viewBox="0 0 24 24" fill="none" xmlns="http://www.w3.org/2000/svg">
<path fill-rule="evenodd" clip-rule="evenodd" d="M0.123117 8.43565C0 9.21298 0 10.142 0 12C0 13.858 0 14.787 0.123117 15.5643C0.800832 19.8433 4.15673 23.1992 8.43565 23.8769C9.21298 24 10.142 24 12 24C13.858 24 14.787 24 15.5643 23.8769C19.8433 23.1992 23.1992 19.8433 23.8769 15.5643C24 14.787 24 13.858 24 12C24 10.142 24 9.21298 23.8769 8.43565C23.1992 4.15673 19.8433 0.800832 15.5643 0.123117C14.787 0 13.858 0 12 0C10.142 0 9.21298 0 8.43565 0.123117C4.15673 0.800832 0.800832 4.15673 0.123117 8.43565ZM12.0834 6.24283C8.8578 6.24283 6.24292 8.85771 6.24292 12.0833C6.24292 15.3089 8.8578 17.9238 12.0834 17.9238C15.309 17.9238 17.9239 15.3089 17.9239 12.0833C17.9239 11.6001 18.3157 11.2083 18.7989 11.2083C19.2822 11.2083 19.6739 11.6001 19.6739 12.0833C19.6739 16.2754 16.2755 19.6738 12.0834 19.6738C7.8913 19.6738 4.49292 16.2754 4.49292 12.0833C4.49292 7.89121 7.8913 4.49283 12.0834 4.49283C13.8172 4.49283 15.4152 5.07457 16.6927 6.05223L17.2585 5.51939C17.5732 5.22304 17.7305 5.07488 17.8736 5.06236C17.9981 5.05147 18.1209 5.09742 18.2076 5.18738C18.3073 5.29079 18.3287 5.50585 18.3714 5.93598L18.6275 8.51329C18.6564 8.80442 18.6709 8.94998 18.6203 9.05488C18.5759 9.14679 18.4992 9.21908 18.4048 9.25784C18.297 9.30208 18.1526 9.27892 17.8637 9.23259L15.3064 8.82244C14.8796 8.75399 14.6662 8.71976 14.569 8.61403C14.4844 8.52205 14.4459 8.39677 14.4642 8.27315C14.4853 8.13105 14.6426 7.98288 14.9573 7.68654L15.3967 7.27274C14.455 6.62278 13.3136 6.24283 12.0834 6.24283Z" fill="black"/>
</svg>
