<svg width="24" height="24" viewBox="0 0 24 24" fill="none" xmlns="http://www.w3.org/2000/svg">
<path fill-rule="evenodd" clip-rule="evenodd" d="M0.123117 8.43565C0 9.21298 0 10.142 0 12C0 13.858 0 14.787 0.123117 15.5643C0.800832 19.8433 4.15673 23.1992 8.43565 23.8769C9.21298 24 10.142 24 12 24C13.858 24 14.787 24 15.5643 23.8769C19.8433 23.1992 23.1992 19.8433 23.8769 15.5643C24 14.787 24 13.858 24 12C24 10.142 24 9.21298 23.8769 8.43565C23.1992 4.15673 19.8433 0.800832 15.5643 0.123117C14.787 0 13.858 0 12 0C10.142 0 9.21298 0 8.43565 0.123117C4.15673 0.800832 0.800832 4.15673 0.123117 8.43565ZM12.0835 5.61783C8.51274 5.61783 5.61804 8.51253 5.61804 12.0833C5.61804 15.6541 8.51274 18.5488 12.0835 18.5488C15.6543 18.5488 18.549 15.6541 18.549 12.0833C18.549 11.9453 18.661 11.8333 18.799 11.8333C18.9371 11.8333 19.049 11.9453 19.049 12.0833C19.049 15.9303 15.9305 19.0488 12.0835 19.0488C8.2366 19.0488 5.11804 15.9303 5.11804 12.0833C5.11804 8.23639 8.2366 5.11783 12.0835 5.11783C13.9574 5.11783 15.6585 5.85797 16.9102 7.06126L17.2891 6.70451C17.4464 6.55634 17.5251 6.48225 17.5966 6.47599C17.6589 6.47055 17.7202 6.49352 17.7636 6.53851C17.8135 6.59021 17.8241 6.69774 17.8455 6.91281L17.9735 8.20146C17.988 8.34702 17.9952 8.4198 17.9699 8.47225C17.9478 8.51821 17.9094 8.55435 17.8622 8.57374C17.8083 8.59586 17.7361 8.58427 17.5916 8.56111L16.313 8.35603C16.0996 8.32181 15.9929 8.3047 15.9443 8.25183C15.902 8.20584 15.8827 8.1432 15.8919 8.08139C15.9024 8.01034 15.9811 7.93626 16.1384 7.78808L16.5458 7.40448C15.3852 6.29727 13.8138 5.61783 12.0835 5.61783Z" fill="black"/>
</svg>
