<svg width="24" height="24" viewBox="0 0 24 24" fill="none" xmlns="http://www.w3.org/2000/svg">
<path d="M12.125 0.551758C14.696 0.551758 17.0718 1.39036 18.9922 2.80762V2C18.9924 1.31 19.5522 0.750245 20.2422 0.75C20.9324 0.75 21.4919 1.30985 21.4922 2V6.21289C21.4922 6.91943 20.9194 7.49217 20.2129 7.49219H16C15.3099 7.49194 14.75 6.93239 14.75 6.24219C14.7502 5.55219 15.31 4.99243 16 4.99219H16.8809C15.5194 4.08237 13.8845 3.55176 12.125 3.55176C7.39013 3.55176 3.55176 7.39013 3.55176 12.125C3.55176 16.8599 7.39013 20.6982 12.125 20.6982C16.8599 20.6982 20.6982 16.8599 20.6982 12.125C20.6982 11.2966 21.3698 10.625 22.1982 10.625C23.0267 10.625 23.6982 11.2966 23.6982 12.125C23.6982 18.5167 18.5167 23.6982 12.125 23.6982C5.73327 23.6982 0.551758 18.5167 0.551758 12.125C0.551761 5.73328 5.73328 0.551761 12.125 0.551758Z" fill="black"/>
</svg>
