<svg width="24" height="24" viewBox="0 0 24 24" fill="none" xmlns="http://www.w3.org/2000/svg">
<path fill-rule="evenodd" clip-rule="evenodd" d="M12 0C13.858 0 14.7871 -6.97747e-05 15.5645 0.123047C19.8433 0.800792 23.1992 4.1567 23.877 8.43555C24.0001 9.21287 24 10.142 24 12C24 13.858 24.0001 14.7871 23.877 15.5645C23.1992 19.8433 19.8433 23.1992 15.5645 23.877C14.7871 24.0001 13.858 24 12 24C10.142 24 9.21287 24.0001 8.43555 23.877C4.1567 23.1992 0.800792 19.8433 0.123047 15.5645C-6.97747e-05 14.7871 0 13.858 0 12C0 10.142 -6.97747e-05 9.21287 0.123047 8.43555C0.800792 4.1567 4.1567 0.800792 8.43555 0.123047C9.21287 -6.97747e-05 10.142 0 12 0ZM12.084 4.11816C7.68476 4.11816 4.11816 7.68476 4.11816 12.084C4.11852 16.4829 7.68498 20.0488 12.084 20.0488C16.4827 20.0485 20.0485 16.4827 20.0488 12.084C20.0488 11.3937 19.4891 10.8341 18.7988 10.834C18.1086 10.8342 17.5488 11.3937 17.5488 12.084C17.5485 15.102 15.102 17.5485 12.084 17.5488C9.06569 17.5488 6.61852 15.1022 6.61816 12.084C6.61816 9.06547 9.06547 6.61816 12.084 6.61816C13.2058 6.61828 14.2481 6.95688 15.1162 7.53711L14.957 7.6875C14.6423 7.98385 14.4849 8.13232 14.4639 8.27441C14.4457 8.39786 14.4839 8.52339 14.5684 8.61523C14.6657 8.72067 14.8795 8.75494 15.3057 8.82324L17.8633 9.2334C18.1518 9.27965 18.2966 9.30294 18.4043 9.25879C18.4986 9.22004 18.5758 9.14746 18.6201 9.05566C18.6707 8.95082 18.6558 8.80451 18.627 8.51367L18.3711 5.93652C18.3284 5.50693 18.3065 5.29198 18.207 5.18848C18.1203 5.09858 17.9975 5.05266 17.873 5.06348C17.7301 5.07629 17.5731 5.22451 17.2588 5.52051L16.9668 5.79395C15.6186 4.746 13.925 4.11829 12.084 4.11816Z" fill="black"/>
</svg>
