<svg width="24" height="24" viewBox="0 0 24 24" fill="none" xmlns="http://www.w3.org/2000/svg">
<path d="M2.80176 12.125C2.80176 6.97592 6.97592 2.80176 12.125 2.80176C14.5596 2.80176 16.7762 3.73442 18.4374 5.26357L18.0109 5.66521C17.7486 5.91216 17.6175 6.03563 17.6 6.15404C17.5847 6.25706 17.6168 6.36147 17.6873 6.43812C17.7683 6.52622 17.9461 6.55475 18.3018 6.61179L20.4329 6.95358C20.6736 6.99219 20.794 7.01149 20.8838 6.97463C20.9624 6.94232 21.0264 6.88208 21.0634 6.80549C21.1056 6.71807 21.0935 6.59677 21.0694 6.35417L20.856 4.20641C20.8204 3.84797 20.8026 3.66875 20.7195 3.58258C20.6472 3.5076 20.5449 3.46931 20.4412 3.47839C20.3219 3.48882 20.1908 3.6123 19.9286 3.85925L19.5317 4.23301C17.5961 2.41593 14.9906 1.30176 12.125 1.30176C6.14749 1.30176 1.30176 6.14749 1.30176 12.125C1.30176 18.1025 6.14749 22.9483 12.125 22.9483C18.1025 22.9483 22.9483 18.1025 22.9483 12.125C22.9483 11.7108 22.6125 11.375 22.1983 11.375C21.784 11.375 21.4483 11.7108 21.4483 12.125C21.4483 17.2741 17.2741 21.4483 12.125 21.4483C6.97592 21.4483 2.80176 17.2741 2.80176 12.125Z" fill="black"/>
</svg>
