<svg width="24" height="24" viewBox="0 0 24 24" fill="none" xmlns="http://www.w3.org/2000/svg">
<path d="M2.55176 12.125C2.55176 6.83785 6.83785 2.55176 12.125 2.55176C14.7375 2.55176 17.1055 3.59784 18.8333 5.29523L18.4045 5.69905C18.1948 5.89661 18.0899 5.99539 18.0758 6.09012C18.0636 6.17253 18.0893 6.25606 18.1457 6.31738C18.2105 6.38787 18.3528 6.41068 18.6373 6.45632L20.3422 6.72975C20.5347 6.76064 20.631 6.77608 20.7029 6.74659C20.7658 6.72074 20.817 6.67255 20.8465 6.61127C20.8803 6.54134 20.8706 6.4443 20.8514 6.25022L20.6807 4.53202C20.6522 4.24526 20.6379 4.10188 20.5714 4.03295C20.5136 3.97297 20.4318 3.94234 20.3488 3.9496C20.2534 3.95794 20.1485 4.05672 19.9387 4.25428L19.5618 4.60922C17.6521 2.71954 15.0248 1.55176 12.125 1.55176C6.28556 1.55176 1.55176 6.28556 1.55176 12.125C1.55176 17.9644 6.28556 22.6983 12.125 22.6983C17.9644 22.6983 22.6983 17.9644 22.6983 12.125C22.6983 11.8489 22.4744 11.625 22.1983 11.625C21.9221 11.625 21.6983 11.8489 21.6983 12.125C21.6983 17.4122 17.4122 21.6983 12.125 21.6983C6.83785 21.6983 2.55176 17.4122 2.55176 12.125Z" fill="black"/>
</svg>
