<svg width="24" height="24" viewBox="0 0 24 24" fill="none" xmlns="http://www.w3.org/2000/svg">
<path fill-rule="evenodd" clip-rule="evenodd" d="M12 0C13.858 0 14.7871 -6.97747e-05 15.5645 0.123047C19.8433 0.800792 23.1992 4.1567 23.877 8.43555C24.0001 9.21287 24 10.142 24 12C24 13.858 24.0001 14.7871 23.877 15.5645C23.1992 19.8433 19.8433 23.1992 15.5645 23.877C14.7871 24.0001 13.858 24 12 24C10.142 24 9.21287 24.0001 8.43555 23.877C4.1567 23.1992 0.800792 19.8433 0.123047 15.5645C-6.97747e-05 14.7871 0 13.858 0 12C0 10.142 -6.97747e-05 9.21287 0.123047 8.43555C0.800792 4.1567 4.1567 0.800792 8.43555 0.123047C9.21287 -6.97747e-05 10.142 0 12 0ZM12.084 3.86816C7.54669 3.86816 3.86816 7.54669 3.86816 12.084C3.86852 16.621 7.54691 20.2988 12.084 20.2988C16.6208 20.2985 20.2985 16.6208 20.2988 12.084C20.2988 11.2556 19.6271 10.5841 18.7988 10.584C17.9706 10.5842 17.2988 11.2557 17.2988 12.084C17.2985 14.9639 14.9639 17.2985 12.084 17.2988C9.20376 17.2988 6.86852 14.9641 6.86816 12.084C6.86816 9.20354 9.20354 6.86816 12.084 6.86816C13.1352 6.86828 14.1115 7.17849 14.9297 7.71289C14.6335 7.9919 14.4846 8.13566 14.4639 8.27344C14.4456 8.39697 14.4838 8.52332 14.5684 8.61523C14.6658 8.7207 14.8802 8.75489 15.3066 8.82324L17.8633 9.2334C18.152 9.27967 18.2966 9.30205 18.4043 9.25781C18.4985 9.21908 18.5758 9.14735 18.6201 9.05566C18.6707 8.95081 18.6559 8.80456 18.627 8.51367L18.3711 5.93652C18.3284 5.50711 18.3065 5.29195 18.207 5.18848C18.1203 5.09857 17.9975 5.05266 17.873 5.06348C17.73 5.07603 17.5724 5.22423 17.2578 5.52051L17.1523 5.61816C15.7567 4.52293 13.9951 3.86829 12.084 3.86816Z" fill="black"/>
</svg>
