<svg width="24" height="24" viewBox="0 0 24 24" fill="none" xmlns="http://www.w3.org/2000/svg">
<path d="M7.74951 19C7.74951 18.5858 7.41373 18.25 6.99951 18.25H2.99964C2.58543 18.25 2.24964 18.5858 2.24964 19C2.24964 19.4142 2.58543 19.75 2.99964 19.75H6.99951C7.41373 19.75 7.74951 19.4142 7.74951 19Z" fill="black"/>
<path fill-rule="evenodd" clip-rule="evenodd" d="M0.0512986 17.5148C0 17.8387 0 18.2258 0 19C0 19.7741 0 20.1612 0.0512986 20.4851C0.33368 22.268 1.73197 23.6663 3.51486 23.9487C3.83874 24 4.22583 24 5 24C5.77417 24 6.16126 24 6.48514 23.9487C8.26803 23.6663 9.66632 22.268 9.9487 20.4851C10 20.1612 10 19.7741 10 19C10 18.2258 10 17.8387 9.9487 17.5148C9.66632 15.7319 8.26803 14.3337 6.48514 14.0513C6.16126 14 5.77417 14 5 14C4.22583 14 3.83874 14 3.51486 14.0513C1.73197 14.3337 0.33368 15.7319 0.0512986 17.5148ZM3.74951 22.4671C3.9274 22.4953 4.16851 22.5 5 22.5C5.83149 22.5 6.0726 22.4953 6.25049 22.4671C7.39154 22.2864 8.28644 21.3915 8.46717 20.2505C8.49535 20.0726 8.5 19.8315 8.5 19C8.5 18.1685 8.49535 17.9274 8.46717 17.7495C8.28644 16.6084 7.39154 15.7135 6.25049 15.5328C6.0726 15.5046 5.83149 15.5 5 15.5C4.16851 15.5 3.9274 15.5046 3.74951 15.5328C2.60846 15.7135 1.71356 16.6084 1.53283 17.7495C1.50466 17.9274 1.5 18.1685 1.5 19C1.5 19.8315 1.50466 20.0726 1.53283 20.2505C1.71356 21.3915 2.60846 22.2864 3.74951 22.4671Z" fill="black"/>
<path fill-rule="evenodd" clip-rule="evenodd" d="M11.1237 22C11.2396 21.7029 11.3307 21.3931 11.3943 21.073C11.4587 20.7493 11.484 20.3996 11.4939 20H17.3125C18.108 19.9999 18.6588 19.9976 19.0889 19.9625C19.4656 19.9317 19.6842 19.8794 19.8375 19.8148C20.2823 19.6081 20.6384 19.2427 20.8331 18.7912C20.8893 18.6406 20.9346 18.4293 20.9624 18.089C20.9818 17.8523 20.9912 17.5791 20.9957 17.2487V12C20.9957 11.4477 20.548 11 19.9957 11H4.00137C3.44915 11 3.00145 11.4476 3.00137 11.9998L3.00128 12.5916C2.97637 12.5961 2.95161 12.6008 2.92701 12.6057C2.22686 12.7449 1.57576 13.0151 0.999984 13.39L0.999984 7.99015C0.999972 7.1852 0.999962 6.52081 1.04418 5.97962C1.0901 5.41753 1.18867 4.90082 1.43596 4.41549C1.81945 3.66284 2.43138 3.05092 3.18402 2.66742C3.66936 2.42013 4.18606 2.32157 4.74816 2.27564C5.28935 2.23143 5.95372 2.23144 6.75869 2.23145L8.45562 2.23145C8.61719 2.23142 8.74189 2.2314 8.86284 2.23914C10.0082 2.31244 11.0577 2.90361 11.714 3.84511C11.7833 3.94453 11.848 4.05117 11.9317 4.18935L11.9461 4.21315C12.0507 4.38577 12.0804 4.43389 12.1084 4.47407C12.4165 4.91597 12.9091 5.19344 13.4467 5.22784C13.4955 5.23097 13.5521 5.23145 13.754 5.23145L17.2413 5.23145C18.0463 5.23144 18.7106 5.23143 19.2518 5.27564C19.8139 5.32157 20.3306 5.42013 20.8159 5.66742C21.5686 6.05092 22.1805 6.66284 22.564 7.41549C22.8113 7.90082 22.9099 8.41753 22.9558 8.97962C23 9.52081 23 10.1852 23 10.9901L23 16.2413C23 16.6113 23 16.9518 22.9957 17.264V18C22.9957 18.5552 22.8826 19.084 22.6781 19.5646C22.6441 19.6493 22.6062 19.7331 22.564 19.816C22.1805 20.5686 21.5686 21.1805 20.8159 21.564C20.7718 21.5865 20.7274 21.6078 20.6828 21.6279C20.1701 21.8667 19.5985 22 18.9957 22L11.1237 22ZM8.42782 4.23145C8.62968 4.23145 8.68624 4.23193 8.73511 4.23506C9.27268 4.26946 9.76529 4.54693 10.0733 4.98883C10.1013 5.02901 10.1311 5.07713 10.2357 5.24975L10.2501 5.27355C10.3338 5.41173 10.3984 5.51837 10.4677 5.61779C11.1241 6.55929 12.1736 7.15046 13.319 7.22376C13.4399 7.2315 13.5646 7.23148 13.7261 7.23145L17.2 7.23145C18.0566 7.23145 18.6389 7.23223 19.0889 7.269C19.5274 7.30482 19.7516 7.36975 19.908 7.44944C20.2843 7.64118 20.5903 7.94715 20.782 8.32347C20.8617 8.47987 20.9266 8.70407 20.9624 9.14249L20.9638 9.15964C20.6601 9.05615 20.3345 9 19.9957 9L4.00137 9C3.65022 9 3.31316 9.06033 2.99999 9.17119V8.03145C2.99999 7.17487 3.00076 6.59258 3.03754 6.14249C3.07336 5.70407 3.13828 5.47987 3.21797 5.32347C3.40972 4.94714 3.71568 4.64118 4.092 4.44944C4.2484 4.36975 4.47261 4.30482 4.91102 4.269C5.36111 4.23223 5.94341 4.23145 6.79999 4.23145H8.42782Z" fill="black"/>
</svg>
