<svg width="24" height="24" viewBox="0 0 24 24" fill="none" xmlns="http://www.w3.org/2000/svg">
<path fill-rule="evenodd" clip-rule="evenodd" d="M0 19C-3.37851e-08 18.2258 -4.84288e-08 17.8387 0.0512988 17.5148C0.33368 15.7319 1.73197 14.3336 3.51486 14.0513C3.83874 14 4.22583 14 5 14C5.77417 14 6.16126 14 6.48514 14.0513C8.26803 14.3336 9.66632 15.7319 9.9487 17.5148C10 17.8387 10 18.2258 10 19C10 19.7741 10 20.1612 9.9487 20.4851C9.66632 22.268 8.26803 23.6663 6.48514 23.9487C6.16126 24 5.77417 24 5 24C4.22583 24 3.83874 24 3.51486 23.9487C1.73197 23.6663 0.33368 22.268 0.0512988 20.4851C4.84288e-08 20.1612 3.38951e-08 19.7741 0 19ZM7.49951 19C7.49951 18.7238 7.27566 18.5 6.99951 18.5H2.99964C2.7235 18.5 2.49964 18.7238 2.49964 19C2.49964 19.2761 2.7235 19.5 2.99964 19.5H6.99951C7.27565 19.5 7.49951 19.2761 7.49951 19Z" fill="black"/>
<path fill-rule="evenodd" clip-rule="evenodd" d="M10.9039 20.9754C10.7953 21.5215 10.5991 22.0347 10.3303 22.5H16.8214C17.3633 22.5 17.8004 22.5 18.1543 22.4711C18.5187 22.4413 18.8388 22.3784 19.135 22.2275C19.6054 21.9879 19.9878 21.6054 20.2275 21.135C20.3784 20.8389 20.4413 20.5188 20.4711 20.1543C20.5 19.8004 20.5 19.3634 20.5 18.8215L20.5 9.26049C20.5001 8.82878 20.5002 8.52994 20.4317 8.24286C20.3712 7.98915 20.2713 7.74647 20.1357 7.52365C19.9823 7.27152 19.7718 7.05933 19.4679 6.75278L15.3073 2.55474C14.9997 2.24424 14.7868 2.02932 14.5328 1.87253C14.3082 1.73397 14.0632 1.63182 13.8067 1.56988C13.5165 1.4998 13.214 1.49988 12.777 1.50001L7.6786 1.50002C7.13674 1.50002 6.69961 1.50001 6.34569 1.52893C5.98126 1.55871 5.66117 1.62161 5.36502 1.7725C4.89462 2.01219 4.51217 2.39464 4.27248 2.86505C4.12159 3.16119 4.05868 3.48128 4.02891 3.84571C3.99999 4.19964 3.99999 4.63671 4 5.1786L4 13.0063C4.25986 12.9998 4.55034 12.9999 4.88424 12.9999H5.11576C5.93336 12.9997 6.49065 12.9996 6.97545 13.096C8.95891 13.4906 10.5094 15.0411 10.9039 17.0245C11.0004 17.5093 11.0002 18.0666 11 18.8842V19.1157C11.0002 19.9333 11.0004 20.4906 10.9039 20.9754ZM12.75 2.50003C13.2428 2.50017 13.415 2.50404 13.572 2.54194C13.7258 2.5791 13.8729 2.64039 14.0076 2.72353C14.1478 2.81003 14.274 2.9328 14.6373 3.2994L18.7177 7.4165C19.0766 7.7786 19.1968 7.90437 19.2814 8.04347C19.3628 8.17717 19.4227 8.32277 19.459 8.475C19.4968 8.63338 19.5 8.8073 19.5 9.31711V9.43353H14.1C13.8158 9.43353 13.6178 9.43334 13.4636 9.42074C13.3123 9.40838 13.2253 9.38533 13.1595 9.35179C13.0184 9.27988 12.9037 9.16514 12.8317 9.02402C12.7982 8.95818 12.7752 8.87126 12.7628 8.71997C12.7502 8.56576 12.75 8.36768 12.75 8.08353V2.50003Z" fill="black"/>
</svg>
