<svg width="24" height="24" viewBox="0 0 24 24" fill="none" xmlns="http://www.w3.org/2000/svg">
<path fill-rule="evenodd" clip-rule="evenodd" d="M8.30176 2.1051C8.79543 1.85827 9.39628 2.05907 9.64355 2.55237C9.89054 3.04635 9.69027 3.64718 9.19629 3.89417L7.74902 4.6178V4.99963H21C22.6567 4.99963 23.9998 6.34295 24 7.99963V16.9996C24 18.6565 22.6568 19.9996 21 19.9996H7.74902V20.3815L9.19629 21.1051C9.69016 21.352 9.89029 21.953 9.64355 22.4469C9.39657 22.9409 8.79574 23.1412 8.30176 22.8942L6.74902 22.1178L5.19629 22.8942C4.70236 23.141 4.10144 22.9408 3.85449 22.4469C3.60823 21.9532 3.80827 21.352 4.30176 21.1051L5.74902 20.3815V19.9996H3C1.3949 19.9996 0.084222 18.7391 0.00390625 17.1539L0 16.9996V7.99963C0.000203824 6.34295 1.34327 4.99963 3 4.99963H5.74902V4.6178L4.30176 3.89417C3.80848 3.64688 3.60766 3.04603 3.85449 2.55237C4.10141 2.05891 4.70258 1.8589 5.19629 2.1051L6.74902 2.88147L8.30176 2.1051ZM7.74902 17.9996H21C21.5523 17.9996 22 17.5519 22 16.9996V7.99963C21.9998 7.44752 21.5522 6.99963 21 6.99963H7.74902V17.9996ZM3 6.99963C2.44784 6.99963 2.0002 7.44752 2 7.99963V16.9996C2.00001 17.5519 2.44772 17.9996 3 17.9996H5.74902V6.99963H3Z" fill="black"/>
</svg>
