<svg width="24" height="24" viewBox="0 0 24 24" fill="none" xmlns="http://www.w3.org/2000/svg">
<path d="M7.30176 2.10509C7.79541 1.85827 8.39627 2.05909 8.64355 2.55235C8.89054 3.04633 8.69025 3.64716 8.19629 3.89415L6.74902 4.61778V4.99962H4.75V19.9996H6.74902V20.3815L8.19629 21.1051C8.69015 21.352 8.89027 21.953 8.64355 22.4469C8.39657 22.9409 7.79574 23.1411 7.30176 22.8941L5.74902 22.1178L4.19629 22.8941C3.70236 23.1409 3.10144 22.9408 2.85449 22.4469C2.60826 21.9532 2.80828 21.352 3.30176 21.1051L4.74902 20.3815L4.75 19.9996H3C1.34315 19.9996 8.27072e-06 18.6565 0 16.9996V7.99962C0.00022944 6.34296 1.34329 4.99962 3 4.99962H4.75L4.74902 4.61778L3.30176 3.89415C2.80849 3.64686 2.60767 3.04601 2.85449 2.55235C3.10142 2.05893 3.7026 1.8589 4.19629 2.10509L5.74902 2.88145L7.30176 2.10509Z" fill="black"/>
<path d="M6.74902 4.99962H21C22.6567 4.99962 23.9998 6.34296 24 7.99962V16.9996C24 18.6565 22.6568 19.9996 21 19.9996H6.74902V4.99962Z" fill="black"/>
</svg>
