<svg width="24" height="24" viewBox="0 0 24 24" fill="none" xmlns="http://www.w3.org/2000/svg">
<path fill-rule="evenodd" clip-rule="evenodd" d="M19.8887 2.77616C20.0121 2.71477 20.162 2.76514 20.2236 2.88846C20.2847 3.01177 20.2345 3.16181 20.1113 3.22343L18.25 4.15409V5.99979H22C23.1046 5.99979 24 6.89522 24 7.99979V16.9998C23.9999 18.0353 23.2127 18.8868 22.2041 18.989L22 18.9998H18.25V20.8455L20.1113 21.7762C20.2343 21.838 20.285 21.9879 20.2236 22.1111C20.1619 22.234 20.0119 22.2844 19.8887 22.2234L18 21.2791L16.1113 22.2234C15.9881 22.2846 15.8382 22.234 15.7764 22.1111C15.715 21.9878 15.7655 21.8379 15.8887 21.7762L17.75 20.8455V18.9998H2L1.7959 18.989C0.854422 18.8936 0.106296 18.1453 0.0107422 17.2039L0 16.9998V7.99979C0 6.89522 0.895431 5.99979 2 5.99979H17.75V4.15409L15.8887 3.22343C15.7656 3.16176 15.7153 3.01173 15.7764 2.88846C15.838 2.76517 15.9879 2.71487 16.1113 2.77616L18 3.7205L19.8887 2.77616ZM18.25 18.4998H22C22.8284 18.4998 23.4999 17.8281 23.5 16.9998V7.99979C23.5 7.17137 22.8284 6.49979 22 6.49979H18.25V18.4998ZM2 6.49979C1.17157 6.49979 0.5 7.17137 0.5 7.99979V16.9998C0.500123 17.8281 1.17165 18.4998 2 18.4998H17.75V6.49979H2Z" fill="black"/>
</svg>
