<svg width="24" height="24" viewBox="0 0 24 24" fill="none" xmlns="http://www.w3.org/2000/svg">
<path fill-rule="evenodd" clip-rule="evenodd" d="M19.666 2.32903C20.0363 2.14444 20.4868 2.29477 20.6719 2.66497C20.8564 3.03513 20.7058 3.48559 20.3359 3.67083L18.751 4.4638V5.99993H21.5L21.7559 6.01262C23.0164 6.14076 24 7.2056 24 8.49993V16.4999L23.9873 16.7558C23.8591 18.0162 22.7943 18.9999 21.5 18.9999H18.751V20.5361L20.3359 21.329C20.7057 21.5144 20.8565 21.9648 20.6719 22.3349C20.4868 22.7049 20.0362 22.8552 19.666 22.6708L18.001 21.8388L16.3359 22.6708C15.9657 22.8557 15.5154 22.7049 15.3301 22.3349C15.1451 21.9645 15.2957 21.5142 15.666 21.329L17.251 20.5361V18.9999H2.5C1.20574 18.9999 0.140929 18.0162 0.0126953 16.7558L0 16.4999V8.49993C1.20792e-07 7.2056 0.98362 6.14076 2.24414 6.01262L2.5 5.99993H17.251V4.4638L15.666 3.67083C15.2957 3.48568 15.1453 3.03534 15.3301 2.66497C15.5153 2.2948 15.9656 2.14413 16.3359 2.32903L18.001 3.16106L19.666 2.32903ZM18.751 17.4999H21.5C22.0522 17.4999 22.4999 17.0521 22.5 16.4999V8.49993C22.5 7.94764 22.0523 7.49993 21.5 7.49993H18.751V17.4999ZM2.5 7.49993C1.94772 7.49993 1.5 7.94764 1.5 8.49993V16.4999C1.50012 17.0521 1.94779 17.4999 2.5 17.4999H17.251V7.49993H2.5Z" fill="black"/>
</svg>
