<svg width="24" height="24" viewBox="0 0 24 24" fill="none" xmlns="http://www.w3.org/2000/svg">
<path d="M17.25 5.99992V18.9999H2.5C1.11936 18.9999 0.0001241 17.8805 0 16.4999V8.49992C1.38356e-05 7.11922 1.1193 5.99992 2.5 5.99992H17.25Z" fill="black"/>
<path d="M17.251 4.46379L15.666 3.67082C15.2957 3.48567 15.1453 3.03533 15.3301 2.66496C15.5153 2.29481 15.9656 2.14413 16.3359 2.32902L18.001 3.16105L19.666 2.32902C20.0363 2.14444 20.4868 2.29478 20.6719 2.66496C20.8564 3.03512 20.7058 3.48558 20.3359 3.67082L18.751 4.46379V5.99992H21.5C22.8807 5.99992 24 7.11922 24 8.49992V16.4999C23.9999 17.8805 22.8806 18.9999 21.5 18.9999H18.751V20.5361L20.3359 21.329C20.7057 21.5144 20.8565 21.9648 20.6719 22.3349C20.4868 22.7049 20.0362 22.8552 19.666 22.6708L18.001 21.8388L16.3359 22.6708C15.9657 22.8557 15.5154 22.7048 15.3301 22.3349C15.1452 21.9645 15.2957 21.5142 15.666 21.329L17.251 20.5361L17.25 18.9999H18.751V5.99992H17.25L17.251 4.46379Z" fill="black"/>
</svg>
