<svg width="24" height="24" viewBox="0 0 24 24" fill="none" xmlns="http://www.w3.org/2000/svg">
<path d="M19.3018 2.10509C19.7954 1.85827 20.3963 2.05909 20.6436 2.55235C20.8905 3.04633 20.6903 3.64716 20.1963 3.89415L18.749 4.61778V4.99962H16.75V19.9996H18.749V20.3815L20.1963 21.1051C20.6901 21.352 20.8903 21.953 20.6436 22.4469C20.3966 22.9409 19.7957 23.1411 19.3018 22.8941L17.749 22.1178L16.1963 22.8941C15.7024 23.1409 15.1014 22.9408 14.8545 22.4469C14.6083 21.9532 14.8083 21.352 15.3018 21.1051L16.749 20.3815L16.75 19.9996H3C1.34315 19.9996 8.27072e-06 18.6565 0 16.9996V7.99962C0.00022952 6.34296 1.34329 4.99962 3 4.99962H16.75L16.749 4.61778L15.3018 3.89415C14.8085 3.64686 14.6077 3.04601 14.8545 2.55235C15.1014 2.05893 15.7026 1.8589 16.1963 2.10509L17.749 2.88146L19.3018 2.10509Z" fill="black"/>
<path d="M18.749 4.99962H21C22.6567 4.99962 23.9998 6.34296 24 7.99962V16.9996C24 18.6565 22.6568 19.9996 21 19.9996H18.749V4.99962Z" fill="black"/>
</svg>
