<svg width="24" height="24" viewBox="0 0 24 24" fill="none" xmlns="http://www.w3.org/2000/svg">
<path fill-rule="evenodd" clip-rule="evenodd" d="M7.69141 1.88177C8.30861 1.57368 9.05944 1.82439 9.36816 2.44134C9.67631 3.05856 9.42557 3.80936 8.80859 4.1181L7.5 4.7724V4.99993H21C22.6568 4.99993 23.9999 6.34313 24 7.99994V16.9999C23.9999 18.6567 22.6568 19.9999 21 19.9999H7.5V20.2275L8.80859 20.8818C9.42561 21.1904 9.67621 21.9413 9.36816 22.5585C9.05942 23.1755 8.30864 23.4263 7.69141 23.1181L6.25 22.3974L4.80859 23.1181C4.19135 23.4263 3.44055 23.1756 3.13184 22.5585C2.8237 21.9413 3.07437 21.1905 3.69141 20.8818L5 20.2275V19.9999H3C1.34323 19.9999 0.000132991 18.6567 0 16.9999V7.99994C5.96221e-05 6.34313 1.34318 4.99993 3 4.99993H5V4.7724L3.69141 4.1181C3.0744 3.8094 2.82373 3.05857 3.13184 2.44134C3.44058 1.82439 4.19139 1.57363 4.80859 1.88177L6.25 2.60247L7.69141 1.88177ZM5 4.99993V19.9999H7.5V4.99993H5Z" fill="black"/>
</svg>
