<svg width="24" height="24" viewBox="0 0 24 24" fill="none" xmlns="http://www.w3.org/2000/svg">
<path d="M5.5 5.99996V19H2C0.895499 19 0.000111635 18.1044 0 17V7.99996C0.000110417 6.89549 0.895499 5.99996 2 5.99996H5.5Z" fill="black"/>
<path d="M5.50098 4.30856L3.77734 3.44723C3.53058 3.32371 3.43044 3.0232 3.55371 2.77633C3.67734 2.52981 3.97784 2.42945 4.22461 2.5527L6.00098 3.44039L7.77734 2.5527C8.02411 2.42966 8.32471 2.52979 8.44824 2.77633C8.57145 3.0231 8.47114 3.32362 8.22461 3.44723L6.50098 4.30856V5.99996H22C23.1045 5.99996 23.9999 6.89549 24 7.99996V17C23.9999 18.1044 23.1045 19 22 19H6.50098V20.6914L8.22461 21.5527C8.47114 21.6762 8.57125 21.9768 8.44824 22.2236C8.32475 22.4703 8.0242 22.5704 7.77734 22.4472L6.00098 21.5595L4.22461 22.4472C3.97775 22.5705 3.67727 22.4703 3.55371 22.2236C3.43054 21.9767 3.53061 21.6762 3.77734 21.5527L5.50098 20.6914L5.5 19H6.50098V5.99996H5.5L5.50098 4.30856Z" fill="black"/>
</svg>
