<svg width="24" height="24" viewBox="0 0 24 24" fill="none" xmlns="http://www.w3.org/2000/svg">
<path fill-rule="evenodd" clip-rule="evenodd" d="M8.69141 1.88181C9.30865 1.57367 10.0595 1.82434 10.3682 2.44138C10.6763 3.05862 10.4256 3.8094 9.80859 4.11813L8.5 4.77243V4.99997H21C22.6569 4.99997 24 6.34312 24 7.99997V17C23.9999 18.6567 22.6568 20 21 20H8.5V20.2275L9.80859 20.8818C10.4257 21.1905 10.6763 21.9413 10.3682 22.5586C10.0594 23.1756 9.30865 23.4263 8.69141 23.1181L7.25 22.3974L5.80859 23.1181C5.19133 23.4263 4.44054 23.1756 4.13184 22.5586C3.82363 21.9413 4.07433 21.1905 4.69141 20.8818L6 20.2275V20H3C1.39496 20 0.0843183 18.7393 0.00390625 17.1543L0 17V7.99997C0 6.34312 1.34315 4.99997 3 4.99997H6V4.77243L4.69141 4.11813C4.07436 3.80944 3.82369 3.05863 4.13184 2.44138C4.44056 1.82435 5.19135 1.57362 5.80859 1.88181L7.25 2.60251L8.69141 1.88181ZM8.5 17.5H21C21.2761 17.5 21.4999 17.276 21.5 17V7.99997C21.5 7.72383 21.2761 7.49997 21 7.49997H8.5V17.5ZM3 7.49997C2.72386 7.49997 2.5 7.72383 2.5 7.99997V17C2.50011 17.276 2.72393 17.5 3 17.5H6V7.49997H3Z" fill="black"/>
</svg>
