<svg width="24" height="24" viewBox="0 0 24 24" fill="none" xmlns="http://www.w3.org/2000/svg">
<path fill-rule="evenodd" clip-rule="evenodd" d="M7.88867 2.77616C8.01207 2.71477 8.16196 2.76514 8.22363 2.88847C8.28458 3.01174 8.23443 3.16183 8.11133 3.22343L6.25 4.15409V5.99979H22C23.1046 5.99979 24 6.89522 24 7.99979V16.9998C23.9998 18.1042 23.1044 18.9998 22 18.9998H6.25V20.8455L8.11133 21.7762C8.23426 21.838 8.28498 21.9879 8.22363 22.1111C8.16187 22.2339 8.01179 22.2843 7.88867 22.2234L6 21.2791L4.11133 22.2234C3.98821 22.2845 3.8382 22.2339 3.77637 22.1111C3.715 21.9878 3.76559 21.838 3.88867 21.7762L5.75 20.8455V18.9998H2C0.895571 18.9998 0.000226994 18.1042 0 16.9998V7.99979C0 6.89522 0.895431 5.99979 2 5.99979H5.75V4.15409L3.88867 3.22343C3.76566 3.16179 3.71543 3.0117 3.77637 2.88847C3.83802 2.76517 3.98795 2.71487 4.11133 2.77616L6 3.7205L7.88867 2.77616ZM5.75 5.99979V18.9998H6.25V5.99979H5.75Z" fill="black"/>
</svg>
