<svg width="24" height="24" viewBox="0 0 24 24" fill="none" xmlns="http://www.w3.org/2000/svg">
<path fill-rule="evenodd" clip-rule="evenodd" d="M19.7764 2.55275C20.0231 2.42937 20.3236 2.52988 20.4473 2.77639C20.5707 3.02336 20.4706 3.32381 20.2236 3.44729L18.5 4.30861V6.00002H22C23.1045 6.00002 23.9999 6.89552 24 8.00002V17C24 18.0357 23.2128 18.887 22.2041 18.9893L22 19H18.5V20.6914L20.2236 21.5528C20.4705 21.6763 20.5706 21.9767 20.4473 22.2237C20.3238 22.4706 20.0233 22.5707 19.7764 22.4473L18 21.5596L16.2236 22.4473C15.9767 22.5705 15.6762 22.4704 15.5527 22.2237C15.4298 21.9769 15.5298 21.6762 15.7764 21.5528L17.5 20.6914V19H2L1.7959 18.9893C0.854355 18.8938 0.106202 18.1457 0.0107422 17.2041L0 17V8.00002C7.62759e-05 6.89552 0.895478 6.00002 2 6.00002H17.5V4.30861L15.7764 3.44729C15.5299 3.32359 15.4294 3.02313 15.5527 2.77639C15.6762 2.52976 15.9768 2.42983 16.2236 2.55275L18 3.44045L19.7764 2.55275ZM18.5 18H22C22.5523 18 23 17.5523 23 17V8.00002C22.9999 7.4478 22.5522 7.00002 22 7.00002H18.5V18ZM2 7.00002C1.44776 7.00002 1.00008 7.4478 1 8.00002V17C1 17.5523 1.44772 18 2 18H17.5V7.00002H2Z" fill="black"/>
</svg>
