<svg width="24" height="24" viewBox="0 0 24 24" fill="none" xmlns="http://www.w3.org/2000/svg">
<path fill-rule="evenodd" clip-rule="evenodd" d="M8.77734 2.55271C9.02413 2.42964 9.32472 2.52975 9.44824 2.77634C9.57158 3.02315 9.47121 3.32361 9.22461 3.44724L7.50098 4.30857V5.99997H22C23.1045 5.99997 23.9999 6.89547 24 7.99997V17C24 18.0356 23.2128 18.887 22.2041 18.9892L22 19H7.50098V20.6914L9.22461 21.5527C9.4712 21.6762 9.57129 21.9768 9.44824 22.2236C9.32479 22.4705 9.02426 22.5705 8.77734 22.4472L7.00098 21.5595L5.22461 22.4472C4.97768 22.5706 4.67723 22.4705 4.55371 22.2236C4.43049 21.9767 4.53054 21.6762 4.77734 21.5527L6.50098 20.6914V19H2L1.7959 18.9892C0.854355 18.8938 0.106202 18.1456 0.0107422 17.2041L0 17V7.99997C7.62759e-05 6.89547 0.895478 5.99997 2 5.99997H6.50098V4.30857L4.77734 3.44724C4.53053 3.32369 4.43031 3.02324 4.55371 2.77634C4.67733 2.52979 4.97783 2.42945 5.22461 2.55271L7.00098 3.4404L8.77734 2.55271ZM7.50098 18H22C22.5523 18 23 17.5523 23 17V7.99997C22.9999 7.44775 22.5522 6.99997 22 6.99997H7.50098V18ZM2 6.99997C1.44776 6.99997 1.00008 7.44775 1 7.99997V17C1 17.5523 1.44772 18 2 18H6.50098V6.99997H2Z" fill="black"/>
</svg>
