<svg width="24" height="24" viewBox="0 0 24 24" fill="none" xmlns="http://www.w3.org/2000/svg">
<path d="M20.5736 8.36612C20.6713 8.26871 20.8296 8.26856 20.9272 8.36612L23.7553 11.1942C23.8527 11.2918 23.8526 11.4502 23.7553 11.5478L20.9272 14.3769C20.8297 14.4743 20.6713 14.474 20.5736 14.3769C20.476 14.2792 20.476 14.121 20.5736 14.0233L22.9789 11.6171H1.10001L3.50528 14.0233C3.60274 14.121 3.60285 14.2793 3.50528 14.3769C3.40769 14.4742 3.24932 14.4742 3.15176 14.3769L0.32364 11.5478C0.226152 11.4501 0.226057 11.2918 0.32364 11.1942L3.15176 8.36612C3.24935 8.26854 3.40764 8.26863 3.50528 8.36612C3.60278 8.46376 3.60287 8.62205 3.50528 8.71964L1.10782 11.1171H22.9711L20.5736 8.71964C20.476 8.62201 20.476 8.46375 20.5736 8.36612Z" fill="black"/>
</svg>
