<svg width="24" height="24" viewBox="0 0 24 24" fill="none" xmlns="http://www.w3.org/2000/svg">
<path d="M21.4278 0.957861C21.8183 0.567479 22.4523 0.567384 22.8428 0.957861C23.2327 1.3483 23.2328 1.98154 22.8428 2.37192L2.37212 22.8426C1.98174 23.2327 1.34853 23.2325 0.958054 22.8426C0.56753 22.4521 0.56753 21.8181 0.958054 21.4276L21.4278 0.957861Z" fill="black"/>
<path d="M21.4278 11.5643C21.8183 11.174 22.4524 11.1739 22.8428 11.5643C23.2328 11.9548 23.2328 12.588 22.8428 12.9784L13.0313 22.7889C12.6408 23.1794 12.0078 23.1793 11.6172 22.7889C11.2268 22.3984 11.2267 21.7654 11.6172 21.3749L21.4278 11.5643Z" fill="black"/>
</svg>
