<svg width="24" height="24" viewBox="0 0 24 24" fill="none" xmlns="http://www.w3.org/2000/svg">
<path d="M11.332 0.542893C11.7225 0.152369 12.3555 0.152369 12.746 0.542893L15.5741 3.37102C15.9646 3.76155 15.9646 4.39458 15.5741 4.78508C15.1836 5.1755 14.5506 5.1755 14.1601 4.78508L13.0429 3.66789V19.9101L14.1601 18.7929C14.5506 18.4024 15.1836 18.4024 15.5741 18.7929C15.9646 19.1834 15.9646 19.8165 15.5741 20.207L12.746 23.0351C12.3555 23.4255 11.7225 23.4255 11.332 23.0351L8.50383 20.207C8.11333 19.8165 8.11338 19.1834 8.50383 18.7929C8.89435 18.4024 9.52737 18.4024 9.91789 18.7929L11.0429 19.9179V3.66008L9.91789 4.78508C9.52739 5.17558 8.89436 5.17553 8.50383 4.78508C8.11331 4.39456 8.11331 3.76154 8.50383 3.37102L11.332 0.542893Z" fill="black"/>
</svg>
