<svg width="24" height="24" viewBox="0 0 24 24" fill="none" xmlns="http://www.w3.org/2000/svg">
<path d="M11.863 0.0731517C11.9607 -0.0243362 12.1189 -0.0244316 12.2165 0.0731517L15.0447 2.90128C15.1421 2.99887 15.1421 3.15719 15.0447 3.25479C14.947 3.3522 14.7887 3.35225 14.6911 3.25479L12.2937 0.857331V22.7206L14.6911 20.3232C14.7888 20.2255 14.947 20.2255 15.0447 20.3232C15.142 20.4208 15.1422 20.5791 15.0447 20.6767L12.2165 23.5048C12.119 23.6021 11.9606 23.602 11.863 23.5048L9.03391 20.6767C8.93646 20.5792 8.93681 20.4208 9.03391 20.3232C9.13154 20.2255 9.2898 20.2255 9.38743 20.3232L11.7937 22.7284V0.849519L9.38743 3.25479C9.28982 3.35216 9.13148 3.35224 9.03391 3.25479C8.93663 3.15722 8.9366 2.99884 9.03391 2.90128L11.863 0.0731517Z" fill="black"/>
</svg>
