<svg width="24" height="24" viewBox="0 0 24 24" fill="none" xmlns="http://www.w3.org/2000/svg">
<path d="M21.7813 1.31039C21.9765 1.11521 22.2931 1.11536 22.4884 1.31039C22.6833 1.50567 22.6835 1.82225 22.4884 2.01742L2.01864 22.4881C1.82354 22.683 1.50683 22.6828 1.31161 22.4881C1.11635 22.2929 1.11635 21.9754 1.31161 21.7801L21.7813 1.31039Z" fill="black"/>
<path d="M21.7813 11.9168C21.9766 11.7218 22.2931 11.7217 22.4884 11.9168C22.6835 12.112 22.6835 12.4286 22.4884 12.6239L12.6778 22.4344C12.4826 22.6297 12.1661 22.6296 11.9708 22.4344C11.7756 22.2391 11.7755 21.9226 11.9708 21.7274L21.7813 11.9168Z" fill="black"/>
</svg>
