<svg width="24" height="24" viewBox="0 0 24 24" fill="none" xmlns="http://www.w3.org/2000/svg">
<path d="M3.29775 8.0126C3.59062 7.71973 4.0654 7.71979 4.3583 8.0126C4.65102 8.3055 4.65113 8.78031 4.3583 9.07314L2.81435 10.6171H21.3407L19.7968 9.07412C19.5042 8.78128 19.5042 8.3064 19.7968 8.01357C20.0897 7.72068 20.5654 7.72068 20.8583 8.01357L23.6864 10.8417C23.9791 11.1345 23.979 11.6094 23.6864 11.9022L20.8583 14.7313C20.5655 15.0242 20.0897 15.0241 19.7968 14.7313C19.5041 14.4386 19.5043 13.9637 19.7968 13.6708L21.3505 12.1171H2.80654L4.3583 13.6698C4.65091 13.9627 4.6511 14.4376 4.3583 14.7304C4.06548 15.0229 3.59059 15.0229 3.29775 14.7304L0.469628 11.9013C0.176819 11.6084 0.176763 11.1336 0.469628 10.8407L3.29775 8.0126Z" fill="black"/>
</svg>
