<svg width="24" height="25" viewBox="0 0 24 25" fill="none" xmlns="http://www.w3.org/2000/svg">
<path d="M11.6836 0.146401C11.8788 -0.0487697 12.1954 -0.0488308 12.3906 0.146401L15.2187 2.97453C15.4139 3.16976 15.4139 3.48629 15.2187 3.68156C15.0234 3.87676 14.7069 3.87679 14.5117 3.68156L12.541 1.71085V22.3671L14.5117 20.3964C14.707 20.2012 15.0235 20.2012 15.2187 20.3964C15.4139 20.5916 15.4139 20.9082 15.2187 21.1034L12.3906 23.9316C12.1953 24.1268 11.8788 24.1268 11.6836 23.9316L8.85543 21.1034C8.66019 20.9082 8.66023 20.5917 8.85543 20.3964C9.0507 20.2012 9.36723 20.2012 9.56246 20.3964L11.541 22.3749V1.70304L9.56246 3.68156C9.36721 3.87681 9.0507 3.87679 8.85543 3.68156C8.66017 3.4863 8.66017 3.16979 8.85543 2.97453L11.6836 0.146401Z" fill="black"/>
</svg>
