<svg width="25" height="24" viewBox="0 0 25 24" fill="none" xmlns="http://www.w3.org/2000/svg">
<path d="M20.3969 8.18935C20.5921 7.99429 20.9087 7.99416 21.1039 8.18935L23.932 11.0175C24.127 11.2127 24.127 11.5293 23.932 11.7245L21.1039 14.5536C20.9088 14.7487 20.5922 14.7483 20.3969 14.5536C20.2016 14.3583 20.2016 14.0418 20.3969 13.8466L22.3754 11.8671H1.70351L3.68202 13.8466C3.87706 14.0419 3.87721 14.3584 3.68202 14.5536C3.48681 14.7485 3.17017 14.7485 2.97499 14.5536L0.146865 11.7245C-0.0482631 11.5292 -0.0483448 11.2127 0.146865 11.0175L2.97499 8.18935C3.17021 7.99413 3.48675 7.99422 3.68202 8.18935C3.87711 8.38463 3.87723 8.70118 3.68202 8.89638L1.71132 10.8671H22.3676L20.3969 8.89638C20.2016 8.70112 20.2016 8.38461 20.3969 8.18935Z" fill="black"/>
</svg>
