<svg width="24" height="24" viewBox="0 0 24 24" fill="none" xmlns="http://www.w3.org/2000/svg">
<path d="M19.0424 7.83488C19.4329 7.44436 20.0669 7.44436 20.4574 7.83488L23.2856 10.663C23.6758 11.0535 23.6758 11.6866 23.2856 12.0771L20.4574 14.9062C20.067 15.2966 19.4329 15.2965 19.0424 14.9062C18.6521 14.5158 18.6523 13.8827 19.0424 13.4921L20.1674 12.3671H3.91055L5.03555 13.4921C5.42591 13.8826 5.42601 14.5157 5.03555 14.9062C4.64508 15.2966 4.01202 15.2965 3.62149 14.9062L0.793365 12.078C0.402852 11.6875 0.402874 11.0545 0.793365 10.664L3.62149 7.83488C4.01193 7.44462 4.64506 7.44472 5.03555 7.83488C5.42591 8.22542 5.42601 8.85945 5.03555 9.24992L3.91837 10.3671H20.1615L19.0424 9.24894C18.6522 8.85849 18.6522 8.22535 19.0424 7.83488Z" fill="black"/>
</svg>
