<svg width="24" height="24" viewBox="0 0 24 24" fill="none" xmlns="http://www.w3.org/2000/svg">
<path d="M21.2512 0.781042C21.7393 0.293063 22.5306 0.293013 23.0187 0.781042C23.5068 1.26915 23.5067 2.06047 23.0187 2.54862L2.54802 23.0193C2.05982 23.5067 1.26836 23.5072 0.780446 23.0193C0.29249 22.5313 0.292682 21.7389 0.780446 21.2508L21.2512 0.781042Z" fill="black"/>
<path d="M21.2512 11.3875C21.7393 10.8997 22.5317 10.8995 23.0197 11.3875C23.5073 11.8755 23.5073 12.667 23.0197 13.1551L13.2082 22.9656C12.72 23.4538 11.9288 23.4537 11.4406 22.9656C10.9525 22.4774 10.9525 21.6862 11.4406 21.198L21.2512 11.3875Z" fill="black"/>
</svg>
