<svg width="24" height="24" viewBox="0 0 24 24" fill="none" xmlns="http://www.w3.org/2000/svg">
<path fill-rule="evenodd" clip-rule="evenodd" d="M10.4795 17H8.97949V15.1865H4.60254C4.32619 15.1865 4.07202 15.0335 3.94141 14.79C3.81102 14.5463 3.82529 14.2506 3.97852 14.0205L8.8291 6.74414H10.4795V17ZM6.00391 13.6865H8.97949V9.22266L6.00391 13.6865Z" fill="black"/>
<path d="M14.3271 10.3457L17.7383 6.74414H19.8047L15.2266 11.5762L19.876 17H17.8994L14.3271 12.832V17H12.8271V6.74414H14.3271V10.3457Z" fill="black"/>
<path fill-rule="evenodd" clip-rule="evenodd" d="M21 2.75C22.5186 2.7502 23.75 3.98134 23.75 5.5V18.5C23.75 20.0187 22.5186 21.2498 21 21.25H3C1.48147 21.2497 0.249997 20.0186 0.25 18.5L0.251953 5.5C0.252119 3.98146 1.48346 2.7502 3.00195 2.75H21ZM3.00195 4.25C2.31182 4.2502 1.75203 4.80982 1.75195 5.5L1.75 18.5C1.75 19.1902 2.30991 19.7497 3 19.75H21C21.6902 19.7498 22.25 19.1902 22.25 18.5V5.5C22.25 4.80976 21.6902 4.2502 21 4.25H3.00195Z" fill="black"/>
</svg>
