<svg width="24" height="24" viewBox="0 0 24 24" fill="none" xmlns="http://www.w3.org/2000/svg">
<path fill-rule="evenodd" clip-rule="evenodd" d="M9.98047 17H9.48047V14.6865H4.60254C4.51062 14.6865 4.4254 14.6356 4.38184 14.5547C4.33846 14.4736 4.34368 14.3745 4.39453 14.2979L9.42969 6.74414H9.98047V17ZM5.06934 14.1865H9.48047V7.57031L5.06934 14.1865Z" fill="black"/>
<path d="M13.8271 17H13.3271V6.74414H13.8271V17Z" fill="black"/>
<path d="M14.5537 11.5596L19.2168 17H18.5576L14.0283 11.7139L13.8809 11.543L14.0361 11.3799L18.4277 6.74414H19.1152L14.5537 11.5596Z" fill="black"/>
<path fill-rule="evenodd" clip-rule="evenodd" d="M21 3.25C22.2425 3.2502 23.25 4.25748 23.25 5.5V18.5C23.25 19.7425 22.2425 20.7498 21 20.75H3C1.75761 20.7497 0.749997 19.7424 0.75 18.5L0.751953 5.5C0.752089 4.25758 1.75958 3.2502 3.00195 3.25H21ZM3.00195 3.75C2.0357 3.7502 1.25206 4.5337 1.25195 5.5L1.25 18.5C1.25 19.4663 2.03376 20.2497 3 20.25H21C21.9663 20.2498 22.75 19.4664 22.75 18.5V5.5C22.75 4.53362 21.9663 3.7502 21 3.75H3.00195Z" fill="black"/>
</svg>
