<svg width="24" height="24" viewBox="0 0 24 24" fill="none" xmlns="http://www.w3.org/2000/svg">
<path d="M8.73047 13.4365H6.4707L8.73047 10.0469V13.4365Z" fill="black"/>
<path fill-rule="evenodd" clip-rule="evenodd" d="M21 3.5C22.1044 3.5002 23 4.39555 23 5.5V18.5C23 19.6044 22.1044 20.4998 21 20.5H3C1.89559 20.4998 0.999998 19.6044 1 18.5L1.00098 5.5C1.0011 4.39574 1.8968 3.50036 3.00098 3.5H21ZM8.52832 6.74414L3.77051 13.8818C3.56619 14.1886 3.54681 14.5832 3.7207 14.9082C3.89479 15.2331 4.23392 15.4365 4.60254 15.4365H8.73047V17H10.7305V6.74414H8.52832ZM12.5771 6.74414V17H14.5771V13.5068L17.5703 17H20.2041L15.5625 11.584L20.1484 6.74414H17.3945L14.5771 9.71875V6.74414H12.5771Z" fill="black"/>
</svg>
