<svg width="25" height="24" viewBox="0 0 25 24" fill="none" xmlns="http://www.w3.org/2000/svg">
<path fill-rule="evenodd" clip-rule="evenodd" d="M11.2305 17H8.73047V15.6865H4.85254C4.3918 15.6864 3.96754 15.4325 3.75 15.0264C3.53267 14.6201 3.55715 14.1266 3.8125 13.7432L8.47754 6.74414H11.2305V17ZM7.18848 13.1865H8.73047V10.873L7.18848 13.1865Z" fill="black"/>
<path d="M15.0771 9.0918L17.2998 6.74414H20.7432L16.1494 11.5928L20.7832 17H17.4912L15.0771 14.1836V17H12.5771V6.74414H15.0771V9.0918Z" fill="black"/>
<path fill-rule="evenodd" clip-rule="evenodd" d="M21.25 2.25C23.0448 2.2502 24.5 3.7052 24.5 5.5V18.5C24.5 20.2948 23.0448 21.7498 21.25 21.75H3.25C1.45532 21.7497 -3.76825e-06 20.2947 0 18.5L0.00195312 5.5C0.00214957 3.70534 1.45733 2.2502 3.25195 2.25H21.25ZM3.25195 4.75C2.83794 4.7502 2.502 5.08594 2.50195 5.5L2.5 18.5C2.5 18.914 2.83605 19.2497 3.25 19.25H21.25C21.664 19.2498 22 18.9141 22 18.5V5.5C22 5.08591 21.664 4.7502 21.25 4.75H3.25195Z" fill="black"/>
</svg>
