<svg width="24" height="24" viewBox="0 0 24 24" fill="none" xmlns="http://www.w3.org/2000/svg">
<path d="M9.48047 14.1865H5.06934L9.48047 7.57031V14.1865Z" fill="black"/>
<path fill-rule="evenodd" clip-rule="evenodd" d="M21 3.5C22.1044 3.5002 23 4.39555 23 5.5V18.5C23 19.6044 22.1044 20.4998 21 20.5H3C1.89559 20.4998 0.999998 19.6044 1 18.5L1.00098 5.5C1.0011 4.39574 1.8968 3.50036 3.00098 3.5H21ZM9.42969 6.74414L4.39453 14.2979C4.34368 14.3745 4.33846 14.4736 4.38184 14.5547C4.42541 14.6356 4.51062 14.6865 4.60254 14.6865H9.48047V17H9.98047V6.74414H9.42969ZM13.3271 6.74414V17H13.8271V6.74414H13.3271ZM18.4277 6.74414L14.0361 11.3799L13.8809 11.543L14.0283 11.7139L18.5576 17H19.2168L14.5537 11.5596L19.1152 6.74414H18.4277Z" fill="black"/>
</svg>
