<svg width="24" height="24" viewBox="0 0 24 24" fill="none" xmlns="http://www.w3.org/2000/svg">
<path fill-rule="evenodd" clip-rule="evenodd" d="M10.2305 17H9.23047V14.9365H4.60352C4.41942 14.9365 4.25022 14.834 4.16309 14.6719C4.07621 14.5094 4.08538 14.3125 4.1875 14.1592L9.12988 6.74414H10.2305V17ZM5.53809 13.9365H9.23047V8.39746L5.53809 13.9365Z" fill="black"/>
<path d="M14.0771 10.9727L18.083 6.74414H19.46L14.8906 11.5684L19.5459 17H18.2285L14.0771 12.1562V17H13.0771V6.74414H14.0771V10.9727Z" fill="black"/>
<path fill-rule="evenodd" clip-rule="evenodd" d="M21 3C22.3805 3.0002 23.5 4.11941 23.5 5.5V18.5C23.5 19.8806 22.3805 20.9998 21 21H3C1.61954 20.9997 0.499997 19.8805 0.5 18.5L0.501953 5.5C0.502104 4.11952 1.62152 3.0002 3.00195 3H21ZM3.00195 4C2.17376 4.0002 1.50204 4.67176 1.50195 5.5L1.5 18.5C1.5 19.3282 2.17183 19.9997 3 20H21C21.8283 19.9998 22.5 19.3283 22.5 18.5V5.5C22.5 4.67169 21.8283 4.0002 21 4H3.00195Z" fill="black"/>
</svg>
