<svg width="24" height="24" viewBox="0 0 24 24" fill="none" xmlns="http://www.w3.org/2000/svg">
<path d="M18.8011 5C19.3776 5 19.7499 5.00078 20.0333 5.02393C20.3049 5.04613 20.4056 5.0838 20.4551 5.109C20.6432 5.20487 20.7962 5.35785 20.8921 5.54601C20.9173 5.59546 20.955 5.69618 20.9772 5.96784C21.0003 6.25118 21.0011 6.62345 21.0011 7.2V10.8C21.0011 11.3766 21.0003 11.7488 20.9772 12.0322C20.955 12.3038 20.9173 12.4045 20.8921 12.454C20.7962 12.6422 20.6432 12.7951 20.4551 12.891C20.4056 12.9162 20.3049 12.9539 20.0333 12.9761C19.7499 12.9992 19.3776 13 18.8011 13H6.29921L6.28781 11.0835C6.28626 10.8223 6.28548 10.6917 6.23073 10.6242C6.18311 10.5655 6.11113 10.5313 6.03499 10.5312C5.94746 10.531 5.84371 10.6119 5.63621 10.7737L1.91369 13.6766C1.77559 13.7843 1.70653 13.8382 1.68192 13.9033C1.66036 13.9603 1.66073 14.0232 1.68297 14.08C1.70836 14.1447 1.77804 14.1978 1.91742 14.3038L5.67421 17.1622C5.88361 17.3216 5.98833 17.4012 6.07585 17.4C6.15198 17.399 6.22355 17.3639 6.27047 17.3047C6.32441 17.2366 6.32363 17.106 6.32208 16.8448L6.31111 15H18.8396C19.3668 15 19.8216 15 20.1961 14.9694C20.5915 14.9371 20.9847 14.8658 21.3631 14.673C21.9276 14.3854 22.3865 13.9265 22.6741 13.362C22.8669 12.9836 22.9382 12.5904 22.9705 12.195C23.0011 11.8205 23.0011 11.3657 23.0011 10.8386V7.16144C23.0011 6.6343 23.0011 6.17954 22.9705 5.80497C22.9382 5.40963 22.8669 5.01641 22.6741 4.63803C22.3865 4.07354 21.9276 3.6146 21.3631 3.32698C20.9847 3.13419 20.5915 3.06287 20.1961 3.03057C19.8216 2.99997 19.3668 2.99998 18.8397 3H14.0011C13.4488 3 13.0011 3.44772 13.0011 4C13.0011 4.55229 13.4488 5 14.0011 5H18.8011Z" fill="black"/>
</svg>
