<svg width="24" height="24" viewBox="0 0 24 24" fill="none" xmlns="http://www.w3.org/2000/svg">
<path d="M18.8011 4.5C19.3694 4.5 19.7656 4.50039 20.074 4.52559C20.3766 4.55031 20.5504 4.5964 20.6821 4.66349C20.9643 4.8073 21.1938 5.03677 21.3376 5.31901C21.4047 5.45069 21.4508 5.62454 21.4755 5.92712C21.5007 6.23554 21.5011 6.6317 21.5011 7.2V10.8C21.5011 11.3683 21.5007 11.7645 21.4755 12.0729C21.4508 12.3755 21.4047 12.5493 21.3376 12.681C21.1938 12.9632 20.9643 13.1927 20.6821 13.3365C20.5504 13.4036 20.3766 13.4497 20.074 13.4744C19.7656 13.4996 19.3694 13.5 18.8011 13.5H6.30219L6.28781 11.0835C6.28626 10.8223 6.28548 10.6917 6.23073 10.6242C6.18311 10.5655 6.11113 10.5313 6.03499 10.5312C5.94746 10.531 5.84371 10.6119 5.63621 10.7737L1.91369 13.6766C1.77559 13.7843 1.70653 13.8382 1.68192 13.9033C1.66036 13.9603 1.66073 14.0232 1.68297 14.08C1.70836 14.1447 1.77804 14.1978 1.91742 14.3038L5.67421 17.1622C5.88361 17.3216 5.98833 17.4012 6.07585 17.4C6.15198 17.399 6.22355 17.3639 6.27047 17.3047C6.32441 17.2365 6.32363 17.106 6.32208 16.8448L6.30813 14.5H18.8225C19.3644 14.5 19.8015 14.5 20.1554 14.4711C20.5198 14.4413 20.8399 14.3784 21.1361 14.2275C21.6065 13.9878 21.9889 13.6054 22.2286 13.135C22.3795 12.8388 22.4424 12.5187 22.4722 12.1543C22.5011 11.8004 22.5011 11.3633 22.5011 10.8214V7.17858C22.5011 6.6367 22.5011 6.19963 22.4722 5.84569C22.4424 5.48126 22.3795 5.16117 22.2286 4.86502C21.9889 4.39462 21.6065 4.01217 21.1361 3.77248C20.8399 3.62159 20.5198 3.55868 20.1554 3.52891C19.8015 3.49999 19.3644 3.5 18.8225 3.5H14.0011C13.725 3.5 13.5011 3.72386 13.5011 4C13.5011 4.27614 13.725 4.5 14.0011 4.5H18.8011Z" fill="black"/>
</svg>
