<svg width="24" height="24" viewBox="0 0 24 24" fill="none" xmlns="http://www.w3.org/2000/svg">
<path d="M18.8011 4.75C19.3735 4.75 19.7577 4.75058 20.0536 4.77476C20.3407 4.79822 20.478 4.8401 20.5686 4.88624C20.8038 5.00608 20.995 5.19731 21.1149 5.43251C21.161 5.52307 21.2029 5.66036 21.2263 5.94748C21.2505 6.24336 21.2511 6.62757 21.2511 7.2V10.8C21.2511 11.3724 21.2505 11.7566 21.2263 12.0525C21.2029 12.3396 21.161 12.4769 21.1149 12.5675C20.995 12.8027 20.8038 12.9939 20.5686 13.1138C20.478 13.1599 20.3407 13.2018 20.0536 13.2252C19.7577 13.2494 19.3735 13.25 18.8011 13.25H6.3007L6.28781 11.0835C6.28626 10.8223 6.28548 10.6917 6.23073 10.6242C6.18311 10.5655 6.11113 10.5313 6.03499 10.5312C5.94746 10.531 5.84371 10.6119 5.63621 10.7737L1.91369 13.6766C1.77559 13.7843 1.70653 13.8382 1.68192 13.9033C1.66036 13.9603 1.66073 14.0232 1.68297 14.08C1.70836 14.1447 1.77804 14.1978 1.91742 14.3038L5.67421 17.1622C5.88361 17.3216 5.98833 17.4012 6.07585 17.4C6.15198 17.399 6.22355 17.3639 6.27047 17.3047C6.32441 17.2365 6.32363 17.106 6.32208 16.8448L6.30962 14.75H18.8315C19.3657 14.75 19.8115 14.75 20.1758 14.7203C20.5557 14.6892 20.9123 14.6221 21.2496 14.4503C21.767 14.1866 22.1877 13.7659 22.4514 13.2485C22.6232 12.9112 22.6903 12.5546 22.7214 12.1747C22.7511 11.8104 22.7511 11.3646 22.7511 10.8305V7.16955C22.7511 6.6354 22.7511 6.18956 22.7214 5.82533C22.6903 5.44545 22.6232 5.08879 22.4514 4.75153C22.1877 4.23408 21.767 3.81339 21.2496 3.54973C20.9123 3.37789 20.5556 3.31078 20.1758 3.27974C19.8115 3.24998 19.3657 3.24999 18.8315 3.25H14.0011C13.5869 3.25 13.2511 3.58579 13.2511 4C13.2511 4.41421 13.5869 4.75 14.0011 4.75H18.8011Z" fill="black"/>
</svg>
