<svg width="24" height="24" viewBox="0 0 24 24" fill="none" xmlns="http://www.w3.org/2000/svg">
<path d="M18.8011 5.25C19.3818 5.25 19.7421 5.25098 20.0129 5.2731C20.2674 5.29389 20.3324 5.32706 20.3414 5.33166C20.4825 5.40357 20.5974 5.51839 20.6693 5.65951C20.674 5.66855 20.7072 5.73377 20.728 5.9882C20.7501 6.25899 20.7511 6.61933 20.7511 7.2V10.8C20.7511 11.3807 20.7501 11.741 20.728 12.0118C20.7072 12.2663 20.674 12.3313 20.6694 12.3403C20.5975 12.4814 20.4827 12.5964 20.3416 12.6683C20.3326 12.6729 20.2674 12.7061 20.0129 12.7269C19.7421 12.749 19.3818 12.75 18.8011 12.75H6.29773L6.28781 11.0835C6.28626 10.8223 6.28548 10.6917 6.23073 10.6242C6.18311 10.5655 6.11113 10.5313 6.03499 10.5312C5.94746 10.531 5.84371 10.6119 5.63621 10.7737L1.91369 13.6766C1.77558 13.7843 1.70653 13.8382 1.68192 13.9033C1.66036 13.9603 1.66073 14.0232 1.68297 14.08C1.70836 14.1447 1.77804 14.1978 1.91742 14.3038L5.67421 17.1622C5.88362 17.3216 5.98832 17.4012 6.07585 17.4C6.15198 17.399 6.22355 17.3639 6.27047 17.3047C6.32441 17.2366 6.32363 17.106 6.32208 16.8448L6.3126 15.25L18.8469 15.25C19.3677 15.25 19.8315 15.2501 20.2165 15.2186C20.6273 15.185 21.0571 15.1095 21.4766 14.8958C22.0881 14.5842 22.5853 14.087 22.8969 13.4755C23.1106 13.056 23.1861 12.6262 23.2197 12.2154C23.2511 11.8304 23.2511 11.3666 23.2511 10.8459V7.15413C23.2511 6.63336 23.2511 6.16957 23.2197 5.78462C23.1861 5.37381 23.1106 4.94403 22.8969 4.52454C22.5853 3.91301 22.0881 3.41582 21.4766 3.10423C21.0571 2.89049 20.6273 2.81497 20.2165 2.7814C19.8315 2.74995 19.3678 2.74998 18.847 2.75L14.0011 2.75C13.3107 2.75 12.7511 3.30965 12.7511 4C12.7511 4.69036 13.3107 5.25 14.0011 5.25H18.8011Z" fill="black"/>
</svg>
