<svg width="24" height="24" viewBox="0 0 24 24" fill="none" xmlns="http://www.w3.org/2000/svg">
<path d="M18.8011 4.25C19.3653 4.25 19.7734 4.25019 20.0943 4.27642C20.4124 4.3024 20.6228 4.3527 20.7956 4.44074C21.1249 4.60852 21.3926 4.87623 21.5604 5.20552C21.6484 5.37831 21.6987 5.58872 21.7247 5.90676C21.7509 6.22772 21.7511 6.63582 21.7511 7.2V10.8C21.7511 11.3642 21.7509 11.7723 21.7247 12.0932C21.6987 12.4113 21.6484 12.6217 21.5604 12.7945C21.3926 13.1238 21.1249 13.3915 20.7956 13.5593C20.6228 13.6473 20.4124 13.6976 20.0943 13.7236C19.7734 13.7498 19.3653 13.75 18.8011 13.75H6.30367L6.28781 11.0835C6.28626 10.8223 6.28548 10.6917 6.23073 10.6242C6.18311 10.5655 6.11113 10.5313 6.03499 10.5312C5.94746 10.531 5.84371 10.6119 5.63621 10.7737L1.91369 13.6766C1.77559 13.7843 1.70653 13.8382 1.68192 13.9033C1.66036 13.9603 1.66073 14.0232 1.68297 14.08C1.70836 14.1447 1.77804 14.1978 1.91742 14.3038L5.67421 17.1622C5.88361 17.3216 5.98833 17.4012 6.07585 17.4C6.15198 17.399 6.22355 17.3639 6.27047 17.3047C6.32441 17.2365 6.32363 17.106 6.32208 16.8448L6.30665 14.25H18.8124C19.3629 14.25 19.7914 14.25 20.135 14.2219C20.484 14.1934 20.7675 14.1347 21.0226 14.0048C21.4459 13.789 21.7901 13.4448 22.0059 13.0215C22.1358 12.7664 22.1945 12.4829 22.223 12.134C22.2511 11.7903 22.2511 11.3618 22.2511 10.8113V7.18868C22.2511 6.6382 22.2511 6.20974 22.223 5.86605C22.1945 5.51708 22.1358 5.23355 22.0059 4.97852C21.7901 4.55516 21.4459 4.21095 21.0226 3.99524C20.7675 3.86529 20.484 3.80659 20.135 3.77808C19.7914 3.75 19.363 3.75 18.8125 3.75H14.0011C13.863 3.75 13.7511 3.86193 13.7511 4C13.7511 4.13807 13.863 4.25 14.0011 4.25H18.8011Z" fill="black"/>
</svg>
