<svg width="24" height="24" viewBox="0 0 24 24" fill="none" xmlns="http://www.w3.org/2000/svg">
<path d="M18.8 5.25C19.3807 5.25 19.741 5.25098 20.0118 5.2731C20.2663 5.29389 20.3313 5.32706 20.3403 5.33166C20.4814 5.40357 20.5963 5.51839 20.6683 5.65951C20.6729 5.66855 20.7061 5.73377 20.7269 5.9882C20.749 6.25899 20.75 6.61933 20.75 7.2V10.8C20.75 11.3807 20.749 11.741 20.7269 12.0118C20.7061 12.2663 20.673 12.3313 20.6683 12.3403C20.5964 12.4814 20.4816 12.5964 20.3405 12.6683C20.3315 12.6729 20.2663 12.7061 20.0118 12.7269C19.741 12.749 19.3807 12.75 18.8 12.75H4.76777L8.29074 9.22703C8.77889 8.73888 8.77889 7.94742 8.29074 7.45927C7.80258 6.97111 7.01112 6.97111 6.52297 7.45927L0.866117 13.1161C0.377961 13.6043 0.377961 14.3957 0.866117 14.8839L6.52297 20.5407C7.01112 21.0289 7.80258 21.0289 8.29074 20.5407C8.77889 20.0526 8.77889 19.2611 8.29074 18.773L4.76777 15.25L18.8458 15.25C19.3666 15.25 19.8304 15.2501 20.2154 15.2186C20.6262 15.185 21.056 15.1095 21.4755 14.8958C22.087 14.5842 22.5842 14.087 22.8958 13.4755C23.1095 13.056 23.185 12.6262 23.2186 12.2154C23.25 11.8304 23.25 11.3666 23.25 10.8459V7.15413C23.25 6.63336 23.25 6.16957 23.2186 5.78462C23.185 5.37381 23.1095 4.94403 22.8958 4.52454C22.5842 3.91301 22.087 3.41582 21.4755 3.10423C21.056 2.89049 20.6262 2.81497 20.2154 2.7814C19.8305 2.74995 19.3667 2.74998 18.8459 2.75L14 2.75C13.3096 2.75 12.75 3.30965 12.75 4C12.75 4.69036 13.3096 5.25 14 5.25H18.8Z" fill="black"/>
</svg>
