<svg width="24" height="24" viewBox="0 0 24 24" fill="none" xmlns="http://www.w3.org/2000/svg">
<path d="M18.8 5C19.3766 5 19.7488 5.00078 20.0322 5.02393C20.3038 5.04613 20.4045 5.0838 20.454 5.109C20.6422 5.20487 20.7951 5.35785 20.891 5.54601C20.9162 5.59546 20.9539 5.69618 20.9761 5.96784C20.9992 6.25118 21 6.62345 21 7.2V10.8C21 11.3766 20.9992 11.7488 20.9761 12.0322C20.9539 12.3038 20.9162 12.4045 20.891 12.454C20.7951 12.6422 20.6422 12.7951 20.454 12.891C20.4045 12.9162 20.3038 12.9539 20.0322 12.9761C19.7488 12.9992 19.3766 13 18.8 13H4.16421L8.11396 9.05026C8.50449 8.65973 8.50449 8.02657 8.11396 7.63604C7.72344 7.24552 7.09027 7.24552 6.69975 7.63604L1.04289 13.2929C0.652369 13.6834 0.652369 14.3166 1.04289 14.7071L6.69975 20.364C7.09027 20.7545 7.72344 20.7545 8.11396 20.364C8.50449 19.9734 8.50449 19.3403 8.11396 18.9497L4.16421 15H18.8385C19.3657 15 19.8205 15 20.195 14.9694C20.5904 14.9371 20.9836 14.8658 21.362 14.673C21.9265 14.3854 22.3854 13.9265 22.673 13.362C22.8658 12.9836 22.9371 12.5904 22.9694 12.195C23 11.8205 23 11.3657 23 10.8386V7.16144C23 6.6343 23 6.17954 22.9694 5.80497C22.9371 5.40963 22.8658 5.01641 22.673 4.63803C22.3854 4.07354 21.9265 3.6146 21.362 3.32698C20.9836 3.13419 20.5904 3.06287 20.195 3.03057C19.8205 2.99997 19.3657 2.99998 18.8386 3H14C13.4477 3 13 3.44772 13 4C13 4.55229 13.4477 5 14 5H18.8Z" fill="black"/>
</svg>
