<svg width="24" height="24" viewBox="0 0 24 24" fill="none" xmlns="http://www.w3.org/2000/svg">
<path d="M18.8 4.5C19.3683 4.5 19.7645 4.50039 20.0729 4.52559C20.3755 4.55031 20.5493 4.5964 20.681 4.66349C20.9632 4.8073 21.1927 5.03677 21.3365 5.31901C21.4036 5.45069 21.4497 5.62454 21.4744 5.92712C21.4996 6.23554 21.5 6.6317 21.5 7.2V10.8C21.5 11.3683 21.4996 11.7645 21.4744 12.0729C21.4497 12.3755 21.4036 12.5493 21.3365 12.681C21.1927 12.9632 20.9632 13.1927 20.681 13.3365C20.5493 13.4036 20.3755 13.4497 20.0729 13.4744C19.7645 13.4996 19.3683 13.5 18.8 13.5H2.95711L7.76041 8.6967C7.95567 8.50144 7.95567 8.18485 7.76041 7.98959C7.56515 7.79433 7.24856 7.79433 7.0533 7.98959L1.39645 13.6464C1.20118 13.8417 1.20118 14.1583 1.39645 14.3536L7.0533 20.0104C7.24856 20.2057 7.56515 20.2057 7.76041 20.0104C7.95567 19.8151 7.95567 19.4986 7.76041 19.3033L2.95711 14.5H18.8214C19.3633 14.5 19.8004 14.5 20.1543 14.4711C20.5187 14.4413 20.8388 14.3784 21.135 14.2275C21.6054 13.9878 21.9878 13.6054 22.2275 13.135C22.3784 12.8388 22.4413 12.5187 22.4711 12.1543C22.5 11.8004 22.5 11.3633 22.5 10.8214V7.17858C22.5 6.6367 22.5 6.19963 22.4711 5.84569C22.4413 5.48126 22.3784 5.16117 22.2275 4.86502C21.9878 4.39462 21.6054 4.01217 21.135 3.77248C20.8388 3.62159 20.5187 3.55868 20.1543 3.52891C19.8004 3.49999 19.3633 3.5 18.8214 3.5H14C13.7239 3.5 13.5 3.72386 13.5 4C13.5 4.27614 13.7239 4.5 14 4.5H18.8Z" fill="black"/>
</svg>
