<svg width="24" height="24" viewBox="0 0 24 24" fill="none" xmlns="http://www.w3.org/2000/svg">
<path d="M11.1243 11.6687H12.9993C13.4825 11.6687 13.8743 11.277 13.8743 10.7937C13.8743 10.3105 13.4825 9.91875 12.9993 9.91875H11.1243V11.6687Z" fill="black"/>
<path fill-rule="evenodd" clip-rule="evenodd" d="M0.675781 12C0.675781 5.74623 5.7455 0.676514 11.9993 0.676514C18.2531 0.676514 23.3228 5.74623 23.3228 12C23.3228 18.2539 18.2531 23.3236 11.9993 23.3236C5.7455 23.3236 0.675781 18.2539 0.675781 12ZM9.99929 7.66875H12.9993C14.7252 7.66875 16.1243 9.06786 16.1243 10.7937C16.1243 11.7436 15.7005 12.5945 15.0317 13.1676L15.969 14.7609C16.284 15.2964 16.1052 15.9859 15.5697 16.301C15.0342 16.616 14.3446 16.4372 14.0296 15.9017L12.8631 13.9187H11.1243V15.2937C11.1243 15.9151 10.6206 16.4187 9.99929 16.4187C9.37797 16.4187 8.87429 15.9151 8.87429 15.2937V8.79375C8.87429 8.17242 9.37797 7.66875 9.99929 7.66875Z" fill="black"/>
</svg>
