<svg width="24" height="24" viewBox="0 0 24 24" fill="none" xmlns="http://www.w3.org/2000/svg">
<path d="M10.2993 12.4937H12.9993C13.9382 12.4937 14.6993 11.7326 14.6993 10.7937C14.6993 9.85486 13.9382 9.09375 12.9993 9.09375H10.2993V12.4937Z" fill="black"/>
<path fill-rule="evenodd" clip-rule="evenodd" d="M0.675781 12C0.675781 5.74623 5.7455 0.676514 11.9993 0.676514C18.2531 0.676514 23.3228 5.74623 23.3228 12C23.3228 18.2539 18.2531 23.3236 11.9993 23.3236C5.7455 23.3236 0.675781 18.2539 0.675781 12ZM9.99929 8.49374H12.9993C14.2695 8.49374 15.2993 9.52349 15.2993 10.7937C15.2993 11.7371 14.7313 12.5479 13.9187 12.9026L15.2579 15.1792C15.3419 15.322 15.2942 15.5059 15.1514 15.5899C15.0086 15.6739 14.8247 15.6262 14.7407 15.4834L13.3218 13.0713C13.2164 13.0861 13.1087 13.0937 12.9993 13.0937H10.2993V15.2937C10.2993 15.4594 10.165 15.5937 9.99929 15.5937C9.83361 15.5937 9.69929 15.4594 9.69929 15.2937V8.79375C9.69929 8.62806 9.83361 8.49374 9.99929 8.49374Z" fill="black"/>
</svg>
