<svg width="24" height="24" viewBox="0 0 24 24" fill="none" xmlns="http://www.w3.org/2000/svg">
<path fill-rule="evenodd" clip-rule="evenodd" d="M9.99998 8.0437H13C14.5188 8.0437 15.75 9.27492 15.75 10.7937C15.75 11.7415 15.2705 12.5772 14.541 13.0717L15.6464 14.951C15.8564 15.308 15.7373 15.7677 15.3802 15.9777C15.0232 16.1877 14.5635 16.0685 14.3535 15.7115L13.0777 13.5426C13.0519 13.5433 13.026 13.5437 13 13.5437H10.75V15.2937C10.75 15.7079 10.4142 16.0437 9.99998 16.0437C9.58577 16.0437 9.24998 15.7079 9.24998 15.2937V8.7937C9.24998 8.37949 9.58577 8.0437 9.99998 8.0437ZM10.75 12.0437H13C13.6903 12.0437 14.25 11.4841 14.25 10.7937C14.25 10.1033 13.6903 9.5437 13 9.5437H10.75V12.0437Z" fill="black"/>
<path fill-rule="evenodd" clip-rule="evenodd" d="M12 0.25C5.51065 0.25 0.25 5.51065 0.25 12C0.25 18.4893 5.51065 23.75 12 23.75C18.4893 23.75 23.75 18.4893 23.75 12C23.75 5.51065 18.4893 0.25 12 0.25ZM1.75 12C1.75 6.33908 6.33908 1.75 12 1.75C17.6609 1.75 22.25 6.33908 22.25 12C22.25 17.6609 17.6609 22.25 12 22.25C6.33908 22.25 1.75 17.6609 1.75 12Z" fill="black"/>
</svg>
