<svg width="24" height="24" viewBox="0 0 24 24" fill="none" xmlns="http://www.w3.org/2000/svg">
<path fill-rule="evenodd" clip-rule="evenodd" d="M9.99998 8.2937H13C14.3807 8.2937 15.5 9.41299 15.5 10.7937C15.5 11.7391 14.9752 12.562 14.201 12.9869L15.4309 15.0777C15.5709 15.3158 15.4915 15.6222 15.2535 15.7622C15.0155 15.9022 14.709 15.8228 14.569 15.5848L13.2159 13.2845C13.1447 13.2906 13.0727 13.2937 13 13.2937H10.5V15.2937C10.5 15.5698 10.2761 15.7937 9.99998 15.7937C9.72384 15.7937 9.49998 15.5698 9.49998 15.2937V8.7937C9.49998 8.51756 9.72384 8.2937 9.99998 8.2937ZM10.5 12.2937H13C13.8284 12.2937 14.5 11.6221 14.5 10.7937C14.5 9.96527 13.8284 9.2937 13 9.2937H10.5V12.2937Z" fill="black"/>
<path fill-rule="evenodd" clip-rule="evenodd" d="M12 0.5C5.64873 0.5 0.5 5.64873 0.5 12C0.5 18.3513 5.64873 23.5 12 23.5C18.3513 23.5 23.5 18.3513 23.5 12C23.5 5.64873 18.3513 0.5 12 0.5ZM1.5 12C1.5 6.20101 6.20101 1.5 12 1.5C17.799 1.5 22.5 6.20101 22.5 12C22.5 17.799 17.799 22.5 12 22.5C6.20101 22.5 1.5 17.799 1.5 12Z" fill="black"/>
</svg>
