<svg width="24" height="24" viewBox="0 0 24 24" fill="none" xmlns="http://www.w3.org/2000/svg">
<path d="M10.5 12.2937H13C13.8285 12.2937 14.5 11.6221 14.5 10.7937C14.5 9.96529 13.8285 9.29371 13 9.29371H10.5V12.2937Z" fill="black"/>
<path fill-rule="evenodd" clip-rule="evenodd" d="M0.676514 12C0.676514 5.7462 5.74623 0.676483 12 0.676483C18.2539 0.676483 23.3236 5.7462 23.3236 12C23.3236 18.2538 18.2539 23.3235 12 23.3235C5.74623 23.3235 0.676514 18.2538 0.676514 12ZM10 8.29371H13C14.3807 8.29371 15.5 9.413 15.5 10.7937C15.5 11.7392 14.9752 12.562 14.201 12.9869L15.431 15.0777C15.571 15.3158 15.4915 15.6222 15.2535 15.7622C15.0155 15.9022 14.7091 15.8228 14.569 15.5848L13.2159 13.2845C13.1448 13.2906 13.0728 13.2937 13 13.2937H10.5V15.2937C10.5 15.5699 10.2762 15.7937 10 15.7937C9.72388 15.7937 9.50003 15.5699 9.50003 15.2937V8.79371C9.50003 8.51757 9.72388 8.29371 10 8.29371Z" fill="black"/>
</svg>
