<svg width="24" height="24" viewBox="0 0 24 24" fill="none" xmlns="http://www.w3.org/2000/svg">
<path d="M10.8743 11.9187H12.9993C13.6206 11.9187 14.1243 11.4151 14.1243 10.7937C14.1243 10.1724 13.6206 9.66875 12.9993 9.66875H10.8743V11.9187Z" fill="black"/>
<path fill-rule="evenodd" clip-rule="evenodd" d="M0.675781 12C0.675781 5.74623 5.7455 0.676514 11.9993 0.676514C18.2531 0.676514 23.3228 5.74623 23.3228 12C23.3228 18.2539 18.2531 23.3236 11.9993 23.3236C5.7455 23.3236 0.675781 18.2539 0.675781 12ZM9.99929 7.91875C9.51604 7.91875 9.12429 8.3105 9.12429 8.79375V15.2937C9.12429 15.777 9.51604 16.1687 9.99929 16.1687C10.4825 16.1687 10.8743 15.777 10.8743 15.2937V13.6687H12.9993L13.0061 13.6687L14.2451 15.7749C14.4901 16.1915 15.0264 16.3305 15.4429 16.0855C15.8595 15.8405 15.9985 15.3042 15.7535 14.8876L14.7062 13.1074C15.4148 12.5838 15.8743 11.7424 15.8743 10.7937C15.8743 9.20593 14.5871 7.91875 12.9993 7.91875H9.99929Z" fill="black"/>
</svg>
