<svg width="24" height="24" viewBox="0 0 24 24" fill="none" xmlns="http://www.w3.org/2000/svg">
<path d="M10.4993 12.2937H12.9993C13.8277 12.2937 14.4993 11.6222 14.4993 10.7937C14.4993 9.96532 13.8277 9.29375 12.9993 9.29375H10.4993V12.2937Z" fill="black"/>
<path fill-rule="evenodd" clip-rule="evenodd" d="M0.675781 12C0.675781 5.74623 5.7455 0.676514 11.9993 0.676514C18.2531 0.676514 23.3228 5.74623 23.3228 12C23.3228 18.2539 18.2531 23.3236 11.9993 23.3236C5.7455 23.3236 0.675781 18.2539 0.675781 12ZM9.99929 8.29375H12.9993C14.38 8.29375 15.4993 9.41303 15.4993 10.7937C15.4993 11.7392 14.9745 12.562 14.2003 12.9869L15.4302 15.0778C15.5703 15.3158 15.4908 15.6222 15.2528 15.7623C15.0148 15.9023 14.7083 15.8228 14.5683 15.5848L13.2152 13.2846C13.144 13.2906 13.072 13.2937 12.9993 13.2937H10.4993V15.2937C10.4993 15.5699 10.2754 15.7937 9.99929 15.7937C9.72315 15.7937 9.49929 15.5699 9.49929 15.2937V8.79375C9.49929 8.5176 9.72315 8.29375 9.99929 8.29375Z" fill="black"/>
</svg>
