<svg width="24" height="24" viewBox="0 0 24 24" fill="none" xmlns="http://www.w3.org/2000/svg">
<path fill-rule="evenodd" clip-rule="evenodd" d="M9.99996 7.66875H13C14.7259 7.66875 16.125 9.06786 16.125 10.7937C16.125 11.7436 15.7012 12.5945 15.0324 13.1676L15.9696 14.7609C16.2846 15.2964 16.1059 15.9859 15.5704 16.301C15.0348 16.616 14.3453 16.4372 14.0303 15.9017L12.8638 13.9187H11.125V15.2937C11.125 15.9151 10.6213 16.4187 9.99996 16.4187C9.37864 16.4187 8.87496 15.9151 8.87496 15.2937V8.79375C8.87496 8.17242 9.37864 7.66875 9.99996 7.66875ZM11.125 11.6687H13C13.4832 11.6687 13.875 11.277 13.875 10.7937C13.875 10.3105 13.4832 9.91875 13 9.91875H11.125V11.6687Z" fill="black"/>
<path fill-rule="evenodd" clip-rule="evenodd" d="M12 0.25C5.51065 0.25 0.25 5.51065 0.25 12C0.25 18.4893 5.51065 23.75 12 23.75C18.4893 23.75 23.75 18.4893 23.75 12C23.75 5.51065 18.4893 0.25 12 0.25ZM2.75 12C2.75 6.89137 6.89137 2.75 12 2.75C17.1086 2.75 21.25 6.89137 21.25 12C21.25 17.1086 17.1086 21.25 12 21.25C6.89137 21.25 2.75 17.1086 2.75 12Z" fill="black"/>
</svg>
