<svg width="24" height="24" viewBox="0 0 24 24" fill="none" xmlns="http://www.w3.org/2000/svg">
<path d="M10.875 11.9187H13C13.6213 11.9187 14.125 11.415 14.125 10.7937C14.125 10.1724 13.6213 9.66871 13 9.66871H10.875V11.9187Z" fill="black"/>
<path fill-rule="evenodd" clip-rule="evenodd" d="M0.676514 12C0.676514 5.7462 5.74623 0.676483 12 0.676483C18.2539 0.676483 23.3236 5.7462 23.3236 12C23.3236 18.2538 18.2539 23.3235 12 23.3235C5.74623 23.3235 0.676514 18.2538 0.676514 12ZM10 7.91871C9.51678 7.91871 9.12503 8.31047 9.12503 8.79371V15.2937C9.12503 15.777 9.51678 16.1687 10 16.1687C10.4833 16.1687 10.875 15.777 10.875 15.2937V13.6687H13L13.0069 13.6687L14.2458 15.7749C14.4908 16.1914 15.0271 16.3305 15.4437 16.0855C15.8602 15.8404 15.9992 15.3041 15.7542 14.8876L14.707 13.1074C15.4155 12.5837 15.875 11.7424 15.875 10.7937C15.875 9.2059 14.5878 7.91871 13 7.91871H10Z" fill="black"/>
</svg>
