<svg width="24" height="24" viewBox="0 0 24 24" fill="none" xmlns="http://www.w3.org/2000/svg">
<path d="M11.125 11.6687H13C13.4833 11.6687 13.875 11.277 13.875 10.7937C13.875 10.3105 13.4833 9.91871 13 9.91871H11.125V11.6687Z" fill="black"/>
<path fill-rule="evenodd" clip-rule="evenodd" d="M0.676514 12C0.676514 5.7462 5.74623 0.676483 12 0.676483C18.2539 0.676483 23.3236 5.7462 23.3236 12C23.3236 18.2538 18.2539 23.3235 12 23.3235C5.74623 23.3235 0.676514 18.2538 0.676514 12ZM10 7.66871H13C14.7259 7.66871 16.125 9.06783 16.125 10.7937C16.125 11.7436 15.7012 12.5944 15.0324 13.1676L15.9697 14.7609C16.2847 15.2964 16.106 15.9859 15.5704 16.3009C15.0349 16.616 14.3454 16.4372 14.0303 15.9017L12.8639 13.9187H11.125V15.2937C11.125 15.915 10.6213 16.4187 10 16.4187C9.37871 16.4187 8.87503 15.915 8.87503 15.2937V8.79371C8.87503 8.17239 9.37871 7.66871 10 7.66871Z" fill="black"/>
</svg>
