<svg width="24" height="24" viewBox="0 0 24 24" fill="none" xmlns="http://www.w3.org/2000/svg">
<path d="M0.489746 11.999C0.490269 10.7828 1.46937 9.80325 3.42725 7.8457L7.84814 3.42578C9.80577 1.46848 10.7852 0.489397 12.0015 0.489258C13.2178 0.489567 14.198 1.46806 16.1558 3.42578L20.5747 7.8457C22.5324 9.80339 23.5118 10.7828 23.5122 11.999C23.5122 13.2155 22.5325 14.1955 20.5747 16.1533L16.1548 20.5732C14.1969 22.5311 13.2169 23.5105 12.0005 23.5107C10.784 23.5106 9.80513 22.5312 7.84717 20.5732L3.42725 16.1533C1.46897 14.195 0.489695 13.2157 0.489746 11.999Z" fill="black"/>
</svg>
