<svg width="24" height="24" viewBox="0 0 24 24" fill="none" xmlns="http://www.w3.org/2000/svg">
<path fill-rule="evenodd" clip-rule="evenodd" d="M0.489258 12C0.489393 10.9355 1.23901 10.0528 2.73828 8.53711L7.84766 3.42676C9.68312 1.5916 10.6585 0.615905 11.7754 0.500977L12.001 0.489258C13.2175 0.489309 14.1965 1.46897 16.1543 3.42676L20.5742 7.84668L21.2627 8.53711C22.7619 10.0529 23.5117 10.9355 23.5117 12C23.5117 13.2166 22.5322 14.1954 20.5742 16.1533L16.1543 20.5742L15.4629 21.2627C13.9472 22.7617 13.0645 23.5117 12 23.5117C10.9356 23.5116 10.0528 22.7618 8.53711 21.2627L7.84668 20.5742L3.42676 16.1543L2.73828 15.4629C1.34626 14.0554 0.600431 13.1938 0.500977 12.2256L0.489258 12ZM0.989258 12C0.989239 12.455 1.16551 12.8989 1.62109 13.4961C2.08553 14.1048 2.79128 14.8118 3.78027 15.8008L8.2002 20.2207C9.18907 21.2096 9.89629 21.9155 10.5049 22.3799C11.1017 22.8352 11.5452 23.0116 12 23.0117C12.4549 23.0117 12.8983 22.8351 13.4951 22.3799C14.1037 21.9155 14.8119 21.2096 15.8008 20.2207L20.2207 15.7998C21.2096 14.8109 21.9155 14.1037 22.3799 13.4951C22.8352 12.8982 23.0117 12.4549 23.0117 12C23.0117 11.5451 22.8353 11.1018 22.3799 10.5049C21.9155 9.89628 21.2096 9.18908 20.2207 8.20019L15.8008 3.78027C14.8122 2.79169 14.1055 2.0864 13.4971 1.62207C12.9 1.1665 12.456 0.989277 12.001 0.989258C11.5461 0.989324 11.1027 1.1658 10.5059 1.62109C9.89719 2.08541 9.19024 2.79137 8.20117 3.78027L3.78125 8.2002C2.79221 9.18907 2.08558 9.89628 1.62109 10.5049C1.16577 11.1017 0.989334 11.5451 0.989258 12Z" fill="black"/>
</svg>
