<svg width="24" height="24" viewBox="0 0 24 24" fill="none" xmlns="http://www.w3.org/2000/svg">
<path d="M0.489258 12C0.489379 10.7834 1.46854 9.80456 3.42676 7.84668L7.84766 3.42676C9.80565 1.46909 10.7845 0.489352 12.001 0.489258C13.2175 0.489309 14.1965 1.46892 16.1543 3.42676L20.5742 7.84668C22.5322 9.80466 23.5117 10.7834 23.5117 12C23.5117 13.2166 22.5323 14.1962 20.5742 16.1543L16.1543 20.5742C14.1962 22.5323 13.2166 23.5117 12 23.5117C10.7835 23.5116 9.80459 22.5321 7.84668 20.5742L3.42676 16.1543C1.46848 14.196 0.489206 13.2167 0.489258 12Z" fill="black"/>
</svg>
