<svg width="24" height="24" viewBox="0 0 24 24" fill="none" xmlns="http://www.w3.org/2000/svg">
<path d="M0.48877 12C0.488838 10.7833 1.46882 9.8038 3.42725 7.8457L7.84717 3.42578C9.80528 1.468 10.7849 0.489206 12.0015 0.489258C13.2179 0.489397 14.1969 1.46887 16.1548 3.42676L20.5747 7.8457C22.5328 9.80383 23.5112 10.7834 23.5112 12C23.5112 13.2165 22.5326 14.1955 20.5747 16.1533L16.1538 20.5742C14.1959 22.5321 13.217 23.5116 12.0005 23.5117C10.7839 23.5117 9.80432 22.5323 7.84619 20.5742L3.42627 16.1543C1.46802 14.1961 0.488718 13.2167 0.48877 12Z" fill="black"/>
</svg>
