<svg width="24" height="24" viewBox="0 0 24 24" fill="none" xmlns="http://www.w3.org/2000/svg">
<path fill-rule="evenodd" clip-rule="evenodd" d="M23.8769 8.43565C24 9.21298 24 10.142 24 12C24 13.858 24 14.787 23.8769 15.5643C23.1992 19.8433 19.8433 23.1992 15.5643 23.8769C14.787 24 13.858 24 12 24C10.142 24 9.21298 24 8.43565 23.8769C4.15673 23.1992 0.800833 19.8433 0.123117 15.5643C0 14.787 0 13.858 0 12C0 10.142 0 9.21298 0.123117 8.43565C0.800833 4.15673 4.15673 0.800832 8.43565 0.123117C9.21298 0 10.142 0 12 0C13.858 0 14.787 0 15.5643 0.123117C19.8433 0.800832 23.1992 4.15673 23.8769 8.43565ZM15.8929 11.4915C16.0357 11.6343 16.0357 11.8657 15.8929 12.0085L9.97466 17.9268C9.87703 18.0244 9.71874 18.0244 9.62111 17.9268C9.52348 17.8291 9.52348 17.6709 9.62111 17.5732L15.4443 11.75L9.62111 5.92678C9.52348 5.82915 9.52348 5.67085 9.62111 5.57322C9.71874 5.47559 9.87703 5.47559 9.97466 5.57322L15.8929 11.4915Z" fill="black"/>
</svg>
