<svg width="24" height="24" viewBox="0 0 24 24" fill="none" xmlns="http://www.w3.org/2000/svg">
<path fill-rule="evenodd" clip-rule="evenodd" d="M12 0C10.142 0 9.21287 -6.97747e-05 8.43555 0.123047C4.1567 0.800792 0.800792 4.1567 0.123047 8.43555C-6.97747e-05 9.21287 0 10.142 0 12C0 13.858 -6.97747e-05 14.7871 0.123047 15.5645C0.800792 19.8433 4.1567 23.1992 8.43555 23.877C9.21287 24.0001 10.142 24 12 24C13.858 24 14.7871 24.0001 15.5645 23.877C19.8433 23.1992 23.1992 19.8433 23.877 15.5645C24.0001 14.7871 24 13.858 24 12C24 10.142 24.0001 9.21287 23.877 8.43555C23.1992 4.1567 19.8433 0.800792 15.5645 0.123047C14.7871 -6.97747e-05 13.858 0 12 0ZM8.73633 4.68945C9.28536 4.14042 10.155 4.10579 10.7441 4.58594L10.8584 4.68945L16.7764 10.6074C17.4069 11.2382 17.4068 12.2607 16.7764 12.8916L10.8584 18.8105C10.2726 19.3962 9.32207 19.3963 8.73633 18.8105C8.15113 18.2248 8.15104 17.2751 8.73633 16.6895L13.6758 11.75L8.73633 6.81055L8.63379 6.69629C8.15377 6.10726 8.18763 5.2385 8.73633 4.68945Z" fill="black"/>
</svg>
