<svg width="24" height="24" viewBox="0 0 24 24" fill="none" xmlns="http://www.w3.org/2000/svg">
<path fill-rule="evenodd" clip-rule="evenodd" d="M23.8769 8.43565C24 9.21298 24 10.142 24 12C24 13.858 24 14.787 23.8769 15.5643C23.1992 19.8433 19.8433 23.1992 15.5643 23.8769C14.787 24 13.858 24 12 24C10.142 24 9.21298 24 8.43565 23.8769C4.15673 23.1992 0.800833 19.8433 0.123117 15.5643C0 14.787 0 13.858 0 12C0 10.142 0 9.21298 0.123117 8.43565C0.800833 4.15673 4.15673 0.800832 8.43565 0.123117C9.21298 0 10.142 0 12 0C13.858 0 14.787 0 15.5643 0.123117C19.8433 0.800832 23.1992 4.15673 23.8769 8.43565ZM16.6 10.7844C17.1333 11.3177 17.1333 12.1823 16.6 12.7156L10.6818 18.6339C10.1936 19.122 9.40216 19.122 8.914 18.6339C8.42585 18.1457 8.42585 17.3543 8.914 16.8661L14.0301 11.75L8.914 6.63388C8.42585 6.14573 8.42585 5.35427 8.914 4.86612C9.40216 4.37796 10.1936 4.37796 10.6818 4.86612L16.6 10.7844Z" fill="black"/>
</svg>
