<svg width="24" height="24" viewBox="0 0 24 24" fill="none" xmlns="http://www.w3.org/2000/svg">
<path d="M8.25 9H6.75V6H8.25V9Z" fill="black"/>
<path d="M11.25 9H9.75V6H11.25V9Z" fill="black"/>
<path d="M14.25 9H12.75V6H14.25V9Z" fill="black"/>
<path d="M17.25 9H15.75V6H17.25V9Z" fill="black"/>
<path fill-rule="evenodd" clip-rule="evenodd" d="M19 3C20.1046 3 21 3.89543 21 5V14H18V17H15.1152V20H9.11523V17H6V14H3V5C3 3.89543 3.89543 3 5 3H19ZM5 4.5C4.72386 4.5 4.5 4.72386 4.5 5V12.5H7.5V15.5H10.6152V18.5H13.6152V15.5H16.5V12.5H19.5V5C19.5 4.72386 19.2761 4.5 19 4.5H5Z" fill="black"/>
<path fill-rule="evenodd" clip-rule="evenodd" d="M20.2061 0.00488281C22.3194 0.112115 24 1.85996 24 4V20L23.9951 20.2061C23.8913 22.2512 22.2512 23.8913 20.2061 23.9951L20 24H4C1.85996 24 0.112115 22.3194 0.00488281 20.2061L0 20V4C2.57706e-07 1.79086 1.79086 6.44256e-08 4 0H20L20.2061 0.00488281ZM4 1.5C2.61929 1.5 1.5 2.61929 1.5 4V20C1.5 21.3807 2.61929 22.5 4 22.5H20C21.3807 22.5 22.5 21.3807 22.5 20V4C22.5 2.61929 21.3807 1.5 20 1.5H4Z" fill="black"/>
</svg>
