<svg width="24" height="24" viewBox="0 0 24 24" fill="none" xmlns="http://www.w3.org/2000/svg">
<path fill-rule="evenodd" clip-rule="evenodd" d="M19.5 3.5C20.0523 3.5 20.5 3.94772 20.5 4.5V14H18V17H15.1152V20H9.11523V17H6V14H3.5V4.5C3.5 3.94772 3.94772 3.5 4.5 3.5H19.5ZM6.5 10H8.5V7H6.5V10ZM9.5 10H11.5V7H9.5V10ZM12.5 10H14.5V7H12.5V10ZM15.5 10H17.5V7H15.5V10Z" fill="black"/>
<path fill-rule="evenodd" clip-rule="evenodd" d="M20.2061 0.00488281C22.3194 0.112115 24 1.85996 24 4V20L23.9951 20.2061C23.8913 22.2512 22.2512 23.8913 20.2061 23.9951L20 24H4C1.85996 24 0.112115 22.3194 0.00488281 20.2061L0 20V4C2.57706e-07 1.79086 1.79086 6.44256e-08 4 0H20L20.2061 0.00488281ZM4 2.5C3.17157 2.5 2.5 3.17157 2.5 4V20C2.5 20.8284 3.17157 21.5 4 21.5H20C20.8284 21.5 21.5 20.8284 21.5 20V4C21.5 3.17157 20.8284 2.5 20 2.5H4Z" fill="black"/>
</svg>
