<svg width="24" height="24" viewBox="0 0 24 24" fill="none" xmlns="http://www.w3.org/2000/svg">
<path fill-rule="evenodd" clip-rule="evenodd" d="M19 3C20.1046 3 21 3.89543 21 5V14H18V17H15.1152V20H9.11523V17H6V14H3V5C3 3.89543 3.89543 3 5 3H19ZM7.25 9H7.75V6H7.25V9ZM10.25 9H10.75V6H10.25V9ZM13.25 9H13.75V6H13.25V9ZM16.25 9H16.75V6H16.25V9Z" fill="black"/>
<path fill-rule="evenodd" clip-rule="evenodd" d="M20.2061 0.00488281C22.3194 0.112115 24 1.85996 24 4V20L23.9951 20.2061C23.8913 22.2512 22.2512 23.8913 20.2061 23.9951L20 24H4C1.85996 24 0.112115 22.3194 0.00488281 20.2061L0 20V4C2.57706e-07 1.79086 1.79086 6.44256e-08 4 0H20L20.2061 0.00488281ZM4 0.5C2.067 0.5 0.5 2.067 0.5 4V20C0.5 21.933 2.067 23.5 4 23.5H20C21.933 23.5 23.5 21.933 23.5 20V4C23.5 2.067 21.933 0.5 20 0.5H4Z" fill="black"/>
</svg>
