<svg width="24" height="24" viewBox="0 0 24 24" fill="none" xmlns="http://www.w3.org/2000/svg">
<path d="M7.75 9H7.25V6H7.75V9Z" fill="black"/>
<path d="M10.75 9H10.25V6H10.75V9Z" fill="black"/>
<path d="M13.75 9H13.25V6H13.75V9Z" fill="black"/>
<path d="M16.75 9H16.25V6H16.75V9Z" fill="black"/>
<path fill-rule="evenodd" clip-rule="evenodd" d="M19 3C20.1046 3 21 3.89543 21 5V14H18V17H15.1152V20H9.11523V17H6V14H3V5C3 3.89543 3.89543 3 5 3H19ZM5 3.5C4.17157 3.5 3.5 4.17157 3.5 5V13.5H6.5V16.5H9.61523V19.5H14.6152V16.5H17.5V13.5H20.5V5C20.5 4.17157 19.8284 3.5 19 3.5H5Z" fill="black"/>
<path fill-rule="evenodd" clip-rule="evenodd" d="M20.2061 0.00488281C22.3194 0.112115 24 1.85996 24 4V20L23.9951 20.2061C23.8913 22.2512 22.2512 23.8913 20.2061 23.9951L20 24H4C1.85996 24 0.112115 22.3194 0.00488281 20.2061L0 20V4C2.57706e-07 1.79086 1.79086 6.44256e-08 4 0H20L20.2061 0.00488281ZM4 0.5C2.067 0.5 0.5 2.067 0.5 4V20C0.5 21.933 2.067 23.5 4 23.5H20C21.933 23.5 23.5 21.933 23.5 20V4C23.5 2.067 21.933 0.5 20 0.5H4Z" fill="black"/>
</svg>
