<svg width="24" height="24" viewBox="0 0 24 24" fill="none" xmlns="http://www.w3.org/2000/svg">
<path d="M8 9H7V6H8V9Z" fill="black"/>
<path d="M11 9H10V6H11V9Z" fill="black"/>
<path d="M14 9H13V6H14V9Z" fill="black"/>
<path d="M17 9H16V6H17V9Z" fill="black"/>
<path fill-rule="evenodd" clip-rule="evenodd" d="M19 3C20.1046 3 21 3.89543 21 5V14H18V17H15.1152V20H9.11523V17H6V14H3V5C3 3.89543 3.89543 3 5 3H19ZM5 4C4.44772 4 4 4.44772 4 5V13H7V16H10.1152V19H14.1152V16H17V13H20V5C20 4.44772 19.5523 4 19 4H5Z" fill="black"/>
<path fill-rule="evenodd" clip-rule="evenodd" d="M20.2061 0.00488281C22.3194 0.112115 24 1.85996 24 4V20L23.9951 20.2061C23.8913 22.2512 22.2512 23.8913 20.2061 23.9951L20 24H4C1.85996 24 0.112115 22.3194 0.00488281 20.2061L0 20V4C2.57706e-07 1.79086 1.79086 6.44256e-08 4 0H20L20.2061 0.00488281ZM4 1C2.34315 1 1 2.34315 1 4V20C1 21.6569 2.34315 23 4 23H20C21.6569 23 23 21.6569 23 20V4C23 2.34315 21.6569 1 20 1H4Z" fill="black"/>
</svg>
