<svg width="24" height="24" viewBox="0 0 24 24" fill="none" xmlns="http://www.w3.org/2000/svg">
<path fill-rule="evenodd" clip-rule="evenodd" d="M17.8757 8.703C17.0946 9.48405 15.8283 9.48405 15.0472 8.703C14.2662 7.92195 14.2662 6.65562 15.0472 5.87457C15.8283 5.09353 17.0946 5.09352 17.8757 5.87457C18.6567 6.65562 18.6567 7.92195 17.8757 8.703ZM15.7543 7.99589C16.1449 8.38642 16.778 8.38642 17.1686 7.99589C17.5591 7.60537 17.5591 6.9722 17.1686 6.58168C16.778 6.19116 16.1449 6.19116 15.7543 6.58168C15.3638 6.9722 15.3638 7.60537 15.7543 7.99589Z" fill="black"/>
<path fill-rule="evenodd" clip-rule="evenodd" d="M23.0174 1.1849C22.9956 0.944524 22.8051 0.754073 22.5647 0.732221L20.8733 0.578459C18.5373 0.366092 16.2009 0.981228 14.2723 2.31641C13.3152 2.97901 12.4218 3.72421 11.6017 4.54198L10.0862 4.62175C6.30504 4.82076 2.85336 6.83539 0.820548 10.0298C0.547643 10.4587 0.818951 11.0251 1.32418 11.0812L6.59571 11.667C6.37539 12.2735 6.51834 12.9669 6.98933 13.4379L10.3117 16.7603C10.7827 17.2313 11.4762 17.3742 12.0826 17.1539L12.6684 22.4257C12.7245 22.9309 13.291 23.2022 13.7198 22.9293C16.9143 20.8965 18.9289 17.4448 19.1279 13.6637L19.2077 12.1479C20.0254 11.3278 20.7706 10.4344 21.4332 9.47729C22.7684 7.5487 23.3835 5.21231 23.1712 2.87628L23.0174 1.1849ZM12.2211 15.9319L12.2313 15.9254L15.202 14.0687C16.348 13.3524 17.4092 12.5147 18.368 11.5721L18.3781 11.5625C19.2017 10.7516 19.9497 9.86329 20.611 8.90808C21.8128 7.17225 22.3664 5.06937 22.1753 2.96682L22.0592 1.69039L20.7828 1.57435C18.6803 1.38321 16.5774 1.93687 14.8415 3.1386C12.7714 4.57177 11.0154 6.41221 9.68095 8.54732L7.59931 11.8779C7.42917 12.1502 7.46944 12.5038 7.69644 12.7308L11.0188 16.0532C11.2458 16.2802 11.5994 16.3205 11.8717 16.1503L12.2211 15.9319ZM18.1547 13.1288L18.1293 13.6111C17.9562 16.8997 16.2815 19.9157 13.6053 21.8026L13.028 16.6068L15.7323 14.9167C16.5867 14.3827 17.3963 13.7846 18.1547 13.1288ZM8.83267 8.01733C9.36665 7.16296 9.96467 6.35335 10.6205 5.59501L10.1387 5.62037C6.85019 5.79345 3.83411 7.46812 1.94726 10.1443L7.14251 10.7216L8.83267 8.01733Z" fill="black"/>
<path d="M9.3578 19.9846C9.55306 20.1798 9.55306 20.4964 9.3578 20.6917L7.49361 22.5559C7.29835 22.7511 6.98177 22.7511 6.78651 22.5559C6.59124 22.3606 6.59124 22.044 6.78651 21.8488L8.6507 19.9846C8.84596 19.7893 9.16254 19.7893 9.3578 19.9846Z" fill="black"/>
<path d="M3.76518 15.0991C3.96045 14.9038 3.96045 14.5872 3.76518 14.392C3.56992 14.1967 3.25334 14.1967 3.05808 14.392L1.19389 16.2562C0.998624 16.4514 0.998624 16.768 1.19389 16.9633C1.38915 17.1585 1.70573 17.1585 1.90099 16.9633L3.76518 15.0991Z" fill="black"/>
<path d="M6.56117 17.8954C6.75643 17.7001 6.75643 17.3835 6.56117 17.1883C6.36591 16.993 6.04933 16.993 5.85406 17.1883L2.12568 20.9167C1.93042 21.1119 1.93042 21.4285 2.12568 21.6238C2.32095 21.819 2.63753 21.819 2.83279 21.6238L6.56117 17.8954Z" fill="black"/>
</svg>
