<svg width="24" height="24" viewBox="0 0 24 24" fill="none" xmlns="http://www.w3.org/2000/svg">
<path fill-rule="evenodd" clip-rule="evenodd" d="M18.2293 9.05655C17.2529 10.0329 15.67 10.0329 14.6937 9.05655C13.7174 8.08024 13.7174 6.49733 14.6937 5.52102C15.67 4.54471 17.2529 4.54471 18.2293 5.52102C19.2056 6.49733 19.2056 8.08024 18.2293 9.05655ZM15.7544 7.99589C16.1449 8.38642 16.7781 8.38642 17.1686 7.99589C17.5591 7.60537 17.5591 6.9722 17.1686 6.58168C16.7781 6.19116 16.1449 6.19116 15.7544 6.58168C15.3639 6.97221 15.3639 7.60537 15.7544 7.99589Z" fill="black"/>
<path fill-rule="evenodd" clip-rule="evenodd" d="M23.2664 1.16227C23.2336 0.801703 22.948 0.516026 22.5874 0.483248L20.896 0.329486C18.5016 0.111813 16.1068 0.742319 14.1301 2.11086C13.1871 2.76365 12.3053 3.49559 11.4934 4.29734L10.0731 4.37209C6.21123 4.57535 2.68587 6.63299 0.609668 9.89559C0.237429 10.4806 0.607487 11.2531 1.29661 11.3297L6.2781 11.8832C6.16197 12.4988 6.34866 13.1508 6.81259 13.6147L10.135 16.9371C10.5989 17.401 11.2509 17.5877 11.8664 17.4716L12.42 22.4533C12.4965 23.1424 13.2691 23.5125 13.8541 23.1402C17.1167 21.064 19.1743 17.5387 19.3776 13.6768L19.4523 12.2563C20.2541 11.4444 20.986 10.5625 21.6388 9.61959C23.0073 7.64282 23.6378 5.24805 23.4202 2.85365L23.2664 1.16227ZM12.0862 15.7214L12.0989 15.7134L15.0695 13.8567C16.2001 13.1501 17.2469 12.3237 18.1928 11.3938L18.205 11.3821C19.0166 10.5828 19.7538 9.7072 20.4055 8.76578C21.5739 7.07813 22.1122 5.03364 21.9263 2.98945L21.8292 1.9205L20.7602 1.82333C18.716 1.63749 16.6715 2.17578 14.9839 3.34415C12.9417 4.75796 11.2094 6.57354 9.89299 8.67982L7.81134 12.0105C7.7029 12.184 7.72857 12.4094 7.87325 12.554L11.1956 15.8764C11.3403 16.0211 11.5657 16.0468 11.7392 15.9383L12.0862 15.7214ZM17.8744 13.6905C17.6879 16.7229 16.1941 19.5101 13.806 21.3445L13.2939 16.7355L15.8648 15.1287C16.5656 14.6907 17.2366 14.2102 17.8744 13.6905ZM8.6207 7.88483C9.05866 7.1841 9.53915 6.51311 10.0588 5.87534C7.02664 6.06196 4.23963 7.55573 2.40535 9.94368L7.01388 10.4557L8.6207 7.88483Z" fill="black"/>
<path d="M9.53461 19.8078C9.82751 20.1007 9.82751 20.5755 9.53461 20.8684L7.67042 22.7326C7.37753 23.0255 6.90266 23.0255 6.60976 22.7326C6.31687 22.4397 6.31687 21.9649 6.60976 21.672L8.47395 19.8078C8.76685 19.5149 9.24172 19.5149 9.53461 19.8078Z" fill="black"/>
<path d="M3.94199 15.2759C4.23489 14.983 4.23489 14.5081 3.94199 14.2152C3.6491 13.9223 3.17423 13.9223 2.88133 14.2152L1.01714 16.0794C0.724251 16.3723 0.724251 16.8472 1.01714 17.1401C1.31004 17.4329 1.78491 17.4329 2.0778 17.1401L3.94199 15.2759Z" fill="black"/>
<path d="M6.73798 18.0722C7.03088 17.7793 7.03088 17.3044 6.73798 17.0115C6.44509 16.7186 5.97022 16.7186 5.67732 17.0115L1.94894 20.7399C1.65605 21.0328 1.65605 21.5076 1.94894 21.8005C2.24184 22.0934 2.71671 22.0934 3.0096 21.8005L6.73798 18.0722Z" fill="black"/>
</svg>
