<svg width="25" height="25" viewBox="0 0 25 25" fill="none" xmlns="http://www.w3.org/2000/svg">
<path fill-rule="evenodd" clip-rule="evenodd" d="M19.5822 9.63669C18.4106 10.8083 16.5111 10.8083 15.3395 9.63669C14.168 8.46511 14.168 6.56562 15.3395 5.39405C16.5111 4.22247 18.4106 4.22247 19.5822 5.39405C20.7538 6.56562 20.7538 8.46511 19.5822 9.63669ZM18.168 6.80826C17.7774 6.41773 17.1443 6.41773 16.7538 6.80826C16.3632 7.19878 16.3632 7.83195 16.7538 8.22247C17.1443 8.613 17.7775 8.613 18.168 8.22247C18.5585 7.83195 18.5585 7.19878 18.168 6.80826Z" fill="black"/>
<path fill-rule="evenodd" clip-rule="evenodd" d="M24.7661 1.34332C24.7115 0.742379 24.2354 0.266251 23.6344 0.211621L21.9431 0.0578588C19.4319 -0.170427 16.9204 0.490819 14.8472 1.92608C13.9331 2.55892 13.075 3.26431 12.2805 4.03415L11.0503 4.0989C7.02702 4.31065 3.35431 6.4543 1.19132 9.85327C0.620424 10.7504 1.18798 11.9353 2.24488 12.0528L6.74775 12.5531C6.76849 13.1546 7.01108 13.7448 7.46083 14.1946L10.7832 17.5169C11.2331 17.9668 11.8236 18.2094 12.4252 18.23L12.9257 22.7346C13.0432 23.7915 14.2281 24.3591 15.1252 23.7882C18.5242 21.6252 20.6679 17.9525 20.8796 13.9292L20.9445 12.6963C21.714 11.9021 22.4191 11.0443 23.0517 10.1305C24.4869 8.05736 25.1482 5.54584 24.9199 3.0347L24.7661 1.34332ZM18.8361 11.2717C17.9183 12.1727 16.903 12.9738 15.8066 13.659L12.5169 15.7151L9.26268 12.4609L11.3188 9.17114C12.006 8.07163 12.8097 7.05356 13.714 6.13364C14.4945 5.33957 15.3501 4.61863 16.2703 3.98156C17.8615 2.87991 19.7893 2.37237 21.7167 2.54759L22.3707 2.60705L22.4302 3.26104C22.6054 5.18849 22.0979 7.11623 20.9962 8.70749C20.357 9.6308 19.6334 10.489 18.8361 11.2717ZM18.2403 15.0342C17.8572 17.1694 16.7872 19.1179 15.2023 20.585L14.8282 17.2186L17.1316 15.779C17.5098 15.5426 17.8795 15.2942 18.2403 15.0342ZM7.75884 10.1501L4.39449 9.77624C5.861 8.19197 7.80854 7.1222 9.9427 6.73874L9.91679 6.77478C9.66649 7.12372 9.427 7.48099 9.19878 7.84614L7.75884 10.1501Z" fill="black"/>
<path d="M8.09462 18.652C8.58277 18.1638 8.58277 17.3724 8.09462 16.8842C7.60646 16.3961 6.815 16.3961 6.32685 16.8842L2.59847 20.6126C2.11031 21.1008 2.11031 21.8922 2.59847 22.3804C3.08662 22.8685 3.87808 22.8685 4.36623 22.3804L8.09462 18.652Z" fill="black"/>
<path d="M5.29774 15.8556C5.78589 15.3675 5.7859 14.576 5.29774 14.0878C4.80958 13.5997 4.01813 13.5997 3.52997 14.0878L1.66578 15.952C1.17763 16.4402 1.17763 17.2316 1.66578 17.7198C2.15394 18.208 2.94539 18.208 3.43355 17.7198L5.29774 15.8556Z" fill="black"/>
<path d="M10.8876 19.6806C11.3757 20.1688 11.3757 20.9602 10.8876 21.4484L9.02339 23.3126C8.53524 23.8007 7.74378 23.8007 7.25563 23.3126C6.76747 22.8244 6.76747 22.033 7.25563 21.5448L9.11982 19.6806C9.60797 19.1925 10.3994 19.1925 10.8876 19.6806Z" fill="black"/>
</svg>
