<svg width="24" height="24" viewBox="0 0 24 24" fill="none" xmlns="http://www.w3.org/2000/svg">
<path fill-rule="evenodd" clip-rule="evenodd" d="M22.5425 0.981194C22.6627 0.99212 22.7579 1.08735 22.7688 1.20753L22.9226 2.89891C23.1296 5.17658 22.5299 7.45459 21.2281 9.33499C19.7368 11.489 17.8218 13.3162 15.6002 14.7047L12.2696 16.7863C11.7012 17.1416 10.9628 17.0575 10.4889 16.5835L7.1665 13.2611C6.69255 12.7872 6.60846 12.0488 6.9637 11.4805L9.04534 8.14982C10.4339 5.9282 12.261 4.0132 14.415 2.52195C16.2954 1.22014 18.5734 0.620372 20.8511 0.827432L22.5425 0.981194ZM15.4008 8.34944C15.9866 8.93523 16.9364 8.93523 17.5222 8.34944C18.1079 7.76366 18.1079 6.81391 17.5222 6.22812C16.9364 5.64234 15.9866 5.64234 15.4008 6.22812C14.815 6.81391 14.815 7.76366 15.4008 8.34944Z" fill="black"/>
<path d="M18.7408 14.9201C18.2124 18.1139 16.3507 20.9591 13.5861 22.7184C13.3133 22.892 12.9531 22.7194 12.9174 22.3981L12.5234 18.852C12.8022 18.7658 13.0736 18.6428 13.3304 18.4823L16.661 16.4007C17.3849 15.9483 18.0792 15.4537 18.7408 14.9201Z" fill="black"/>
<path d="M4.89902 11.2269C4.98524 10.9482 5.10816 10.6771 5.26855 10.4205L7.3502 7.08983C7.80281 6.36564 8.29765 5.67097 8.83154 5.00914C5.63722 5.53726 2.79149 7.39906 1.03197 10.164C0.858389 10.4368 1.03095 10.7971 1.35229 10.8328L4.89902 11.2269Z" fill="black"/>
<path d="M9.71128 19.631C10.1018 20.0215 10.1018 20.6547 9.71128 21.0452L7.84709 22.9094C7.45656 23.2999 6.8234 23.2999 6.43288 22.9094C6.04235 22.5189 6.04235 21.8857 6.43288 21.4952L8.29707 19.631C8.68759 19.2405 9.32076 19.2405 9.71128 19.631Z" fill="black"/>
<path d="M4.11866 15.4526C4.50919 15.0621 4.50919 14.429 4.11866 14.0384C3.72814 13.6479 3.09497 13.6479 2.70445 14.0384L0.840256 15.9026C0.449733 16.2931 0.449732 16.9263 0.840257 17.3168C1.23078 17.7074 1.86395 17.7074 2.25447 17.3168L4.11866 15.4526Z" fill="black"/>
<path d="M6.91465 18.2489C7.30517 17.8584 7.30517 17.2252 6.91465 16.8347C6.52412 16.4442 5.89096 16.4442 5.50043 16.8347L1.77205 20.5631C1.38153 20.9536 1.38153 21.5868 1.77205 21.9773C2.16258 22.3678 2.79574 22.3678 3.18627 21.9773L6.91465 18.2489Z" fill="black"/>
</svg>
