<svg width="24" height="24" viewBox="0 0 24 24" fill="none" xmlns="http://www.w3.org/2000/svg">
<path fill-rule="evenodd" clip-rule="evenodd" d="M18.5828 9.41011C17.4113 10.5817 15.5118 10.5817 14.3402 9.41011C13.1686 8.23853 13.1686 6.33904 14.3402 5.16747C15.5118 3.99589 17.4113 3.99589 18.5828 5.16747C19.7544 6.33904 19.7544 8.23853 18.5828 9.41011ZM17.1686 6.58168C16.7781 6.19116 16.1449 6.19116 15.7544 6.58168C15.3639 6.97221 15.3639 7.60537 15.7544 7.99589C16.1449 8.38642 16.7781 8.38642 17.1686 7.99589C17.5592 7.60537 17.5592 6.97221 17.1686 6.58168Z" fill="black"/>
<path fill-rule="evenodd" clip-rule="evenodd" d="M23.5154 1.13963C23.4717 0.658881 23.0908 0.277979 22.6101 0.234274L20.9187 0.0805132C18.4659 -0.142466 16.0128 0.50341 13.9878 1.90531C13.0592 2.54819 12.1891 3.26687 11.3857 4.05266L10.06 4.12244C6.11741 4.32994 2.51838 6.43059 0.398785 9.76138C-0.0727823 10.5024 0.396024 11.4812 1.26903 11.5782L5.99895 12.1037C5.96011 12.7157 6.1788 13.3344 6.63585 13.7915L9.95822 17.1138C10.4153 17.5709 11.034 17.7896 11.646 17.7507L12.1715 22.4809C12.2685 23.3539 13.2473 23.8227 13.9883 23.3511C17.3191 21.2315 19.4198 17.6325 19.6273 13.6899L19.6971 12.364C20.4828 11.5606 21.2015 10.6905 21.8444 9.7619C23.2463 7.73693 23.8922 5.28378 23.6692 2.83101L23.5154 1.13963ZM11.9518 15.5107L11.9664 15.5014L14.9371 13.6447C16.0522 12.9478 17.0846 12.1327 18.0176 11.2156L18.0316 11.2021C18.8313 10.4142 19.5577 9.55126 20.2 8.62348C21.335 6.98402 21.8579 4.9979 21.6774 3.01208L21.5991 2.15061L20.7376 2.0723C18.7518 1.89177 16.7657 2.41469 15.1262 3.54969C13.112 4.94416 11.4034 6.73488 10.105 8.81232L8.02338 12.143C7.97664 12.2177 7.9877 12.3149 8.05006 12.3773L11.3724 15.6996C11.4348 15.762 11.532 15.7731 11.6067 15.7263L11.9518 15.5107ZM17.5736 14.2471C17.268 16.8341 15.9853 19.199 14.0042 20.8645L13.5598 16.8642L15.9974 15.3407C16.541 15.0009 17.0669 14.6359 17.5736 14.2471ZM8.40874 7.75233C8.74847 7.20876 9.11347 6.68286 9.50223 6.17622C6.91548 6.48192 4.55077 7.76453 2.88537 9.74547L6.88525 10.1899L8.40874 7.75233Z" fill="black"/>
<path d="M9.71142 19.631C10.1019 20.0215 10.1019 20.6547 9.71142 21.0452L7.84723 22.9094C7.45671 23.2999 6.82354 23.2999 6.43302 22.9094C6.04249 22.5189 6.0425 21.8857 6.43302 21.4952L8.29721 19.631C8.68773 19.2405 9.3209 19.2405 9.71142 19.631Z" fill="black"/>
<path d="M4.1188 15.4526C4.50933 15.0621 4.50933 14.429 4.1188 14.0384C3.72828 13.6479 3.09512 13.6479 2.70459 14.0384L0.840401 15.9026C0.449877 16.2931 0.449876 16.9263 0.8404 17.3168C1.23092 17.7074 1.86409 17.7074 2.25461 17.3168L4.1188 15.4526Z" fill="black"/>
<path d="M6.91479 18.2489C7.30532 17.8584 7.30532 17.2252 6.91479 16.8347C6.52427 16.4442 5.8911 16.4442 5.50058 16.8347L1.7722 20.5631C1.38167 20.9536 1.38167 21.5868 1.7722 21.9773C2.16272 22.3678 2.79589 22.3678 3.18641 21.9773L6.91479 18.2489Z" fill="black"/>
</svg>
