<svg width="24" height="24" viewBox="0 0 24 24" fill="none" xmlns="http://www.w3.org/2000/svg">
<path fill-rule="evenodd" clip-rule="evenodd" d="M17.8762 8.703C17.0951 9.48405 15.8288 9.48405 15.0477 8.703C14.2667 7.92195 14.2667 6.65562 15.0477 5.87457C15.8288 5.09353 17.0951 5.09352 17.8762 5.87457C18.6572 6.65562 18.6572 7.92195 17.8762 8.703ZM15.7548 7.99589C16.1454 8.38642 16.7785 8.38642 17.169 7.99589C17.5596 7.60537 17.5596 6.9722 17.169 6.58168C16.7785 6.19116 16.1454 6.19116 15.7548 6.58168C15.3643 6.9722 15.3643 7.60537 15.7548 7.99589Z" fill="black"/>
<path fill-rule="evenodd" clip-rule="evenodd" d="M23.0179 1.1849C22.996 0.944524 22.8056 0.754073 22.5652 0.732221L20.8738 0.578459C18.5378 0.366092 16.2014 0.981228 14.2728 2.31641C13.3157 2.97901 12.4223 3.72421 11.6022 4.54198L10.0867 4.62175C6.30553 4.82076 2.85385 6.83539 0.821036 10.0298C0.548131 10.4587 0.819439 11.0251 1.32467 11.0812L6.5962 11.667C6.37587 12.2735 6.51883 12.9669 6.98982 13.4379L10.3122 16.7603C10.7832 17.2313 11.4767 17.3742 12.0831 17.1539L12.6689 22.4257C12.725 22.9309 13.2915 23.2022 13.7203 22.9293C16.9147 20.8965 18.9294 17.4448 19.1284 13.6637L19.2082 12.1479C20.0259 11.3278 20.7711 10.4344 21.4337 9.47729C22.7689 7.5487 23.384 5.21231 23.1717 2.87628L23.0179 1.1849ZM12.2216 15.9319L12.2318 15.9254L15.2025 14.0687C16.3485 13.3524 17.4097 12.5147 18.3685 11.5721L18.3786 11.5625C19.2022 10.7516 19.9502 9.86329 20.6115 8.90808C21.8132 7.17225 22.3669 5.06937 22.1758 2.96682L22.0597 1.69039L20.7833 1.57435C18.6807 1.38321 16.5779 1.93687 14.842 3.1386C12.7719 4.57177 11.0159 6.41221 9.68144 8.54732L7.5998 11.8779C7.42966 12.1502 7.46993 12.5038 7.69693 12.7308L11.0193 16.0532C11.2463 16.2802 11.5999 16.3205 11.8722 16.1503L12.2216 15.9319ZM18.1552 13.1288L18.1298 13.6111C17.9567 16.8997 16.282 19.9157 13.6058 21.8026L13.0285 16.6068L15.7328 14.9167C16.5872 14.3827 17.3968 13.7846 18.1552 13.1288ZM8.83315 8.01733C9.36714 7.16296 9.96516 6.35335 10.621 5.59501L10.1392 5.62037C6.85067 5.79345 3.83459 7.46812 1.94774 10.1443L7.143 10.7216L8.83315 8.01733Z" fill="black"/>
<path d="M9.35829 19.9846C9.55355 20.1798 9.55355 20.4964 9.35829 20.6917L7.4941 22.5559C7.29884 22.7511 6.98226 22.7511 6.78699 22.5559C6.59173 22.3606 6.59173 22.044 6.78699 21.8488L8.65118 19.9846C8.84645 19.7893 9.16303 19.7893 9.35829 19.9846Z" fill="black"/>
<path d="M3.76567 15.0991C3.96094 14.9038 3.96093 14.5872 3.76567 14.392C3.57041 14.1967 3.25383 14.1967 3.05856 14.392L1.19437 16.2562C0.999112 16.4514 0.999112 16.768 1.19437 16.9633C1.38964 17.1585 1.70622 17.1585 1.90148 16.9633L3.76567 15.0991Z" fill="black"/>
<path d="M6.56166 17.8954C6.75692 17.7001 6.75692 17.3835 6.56166 17.1883C6.3664 16.993 6.04982 16.993 5.85455 17.1883L2.12617 20.9167C1.93091 21.1119 1.93091 21.4285 2.12617 21.6238C2.32143 21.819 2.63802 21.819 2.83328 21.6238L6.56166 17.8954Z" fill="black"/>
</svg>
