<svg width="25" height="25" viewBox="0 0 25 25" fill="none" xmlns="http://www.w3.org/2000/svg">
<path fill-rule="evenodd" clip-rule="evenodd" d="M18.6171 9.63669C17.4455 10.8083 15.546 10.8083 14.3745 9.63669C13.2029 8.46511 13.2029 6.56562 14.3745 5.39405C15.546 4.22247 17.4455 4.22247 18.6171 5.39405C19.7887 6.56562 19.7887 8.46511 18.6171 9.63669ZM17.2029 6.80826C16.8124 6.41773 16.1792 6.41773 15.7887 6.80826C15.3981 7.19878 15.3981 7.83195 15.7887 8.22247C16.1792 8.613 16.8124 8.613 17.2029 8.22247C17.5934 7.83195 17.5934 7.19878 17.2029 6.80826Z" fill="black"/>
<path fill-rule="evenodd" clip-rule="evenodd" d="M23.8011 1.34332C23.7464 0.742379 23.2703 0.266251 22.6694 0.211621L20.978 0.0578588C18.4668 -0.170427 15.9553 0.490819 13.8822 1.92608C12.9681 2.55892 12.1099 3.26431 11.3155 4.03415L10.0852 4.0989C6.06193 4.31065 2.38922 6.4543 0.226233 9.85327C-0.344664 10.7504 0.22289 11.9353 1.27979 12.0528L5.78266 12.5531C5.8034 13.1546 6.046 13.7448 6.49574 14.1946L9.81812 17.5169C10.268 17.9668 10.8585 18.2094 11.4601 18.23L11.9607 22.7346C12.0781 23.7915 13.263 24.3591 14.1602 23.7882C17.5591 21.6252 19.7028 17.9525 19.9145 13.9292L19.9794 12.6963C20.7489 11.9021 21.454 11.0443 22.0866 10.1305C23.5219 8.05736 24.1831 5.54584 23.9548 3.0347L23.8011 1.34332ZM17.871 11.2717C16.9532 12.1727 15.9379 12.9738 14.8415 13.659L11.5518 15.7151L8.2976 12.4609L10.3537 9.17114C11.0409 8.07163 11.8446 7.05356 12.7489 6.13364C13.5295 5.33957 14.385 4.61863 15.3052 3.98156C16.8965 2.87991 18.8242 2.37237 20.7516 2.54759L21.4056 2.60705L21.4651 3.26104C21.6403 5.18849 21.1328 7.11623 20.0311 8.70749C19.3919 9.6308 18.6683 10.489 17.871 11.2717ZM17.2752 15.0342C16.8921 17.1694 15.8221 19.1179 14.2372 20.585L13.8632 17.2186L16.1665 15.779C16.5447 15.5426 16.9144 15.2942 17.2752 15.0342ZM6.79375 10.1501L3.4294 9.77624C4.89591 8.19197 6.84345 7.1222 8.97761 6.73874L8.9517 6.77478C8.7014 7.12372 8.46191 7.48099 8.23369 7.84614L6.79375 10.1501Z" fill="black"/>
<path d="M7.12953 18.652C7.61768 18.1638 7.61768 17.3724 7.12953 16.8842C6.64137 16.3961 5.84992 16.3961 5.36176 16.8842L1.63338 20.6126C1.14522 21.1008 1.14522 21.8922 1.63338 22.3804C2.12153 22.8685 2.91299 22.8685 3.40115 22.3804L7.12953 18.652Z" fill="black"/>
<path d="M4.33265 15.8556C4.82081 15.3675 4.82081 14.576 4.33265 14.0878C3.8445 13.5997 3.05304 13.5997 2.56488 14.0878L0.700694 15.952C0.212539 16.4402 0.212539 17.2316 0.700694 17.7198C1.18885 18.208 1.98031 18.208 2.46846 17.7198L4.33265 15.8556Z" fill="black"/>
<path d="M9.9225 19.6806C10.4107 20.1688 10.4107 20.9602 9.9225 21.4484L8.05831 23.3126C7.57015 23.8007 6.77869 23.8007 6.29054 23.3126C5.80238 22.8244 5.80238 22.033 6.29054 21.5448L8.15473 19.6806C8.64288 19.1925 9.43434 19.1925 9.9225 19.6806Z" fill="black"/>
</svg>
