<svg width="24" height="24" viewBox="0 0 24 24" fill="none" xmlns="http://www.w3.org/2000/svg">
<path fill-rule="evenodd" clip-rule="evenodd" d="M17.5223 8.34945C16.9365 8.93523 15.9868 8.93523 15.401 8.34945C14.8152 7.76366 14.8152 6.81391 15.401 6.22813C15.9868 5.64234 16.9365 5.64234 17.5223 6.22813C18.1081 6.81391 18.1081 7.76366 17.5223 8.34945ZM15.7546 7.99589C16.1451 8.38642 16.7782 8.38642 17.1688 7.99589C17.5593 7.60537 17.5593 6.9722 17.1688 6.58168C16.7782 6.19116 16.1451 6.19116 15.7546 6.58168C15.364 6.9722 15.364 7.60537 15.7546 7.99589Z" fill="black"/>
<path fill-rule="evenodd" clip-rule="evenodd" d="M22.7686 1.20753C22.7577 1.08735 22.6625 0.99212 22.5423 0.981194L20.8509 0.827432C18.5733 0.620372 16.2952 1.22014 14.4148 2.52195C13.4437 3.19427 12.539 3.95273 11.711 4.78659L10.0995 4.8714C6.3991 5.06616 3.0211 7.0378 1.03168 10.164C0.858098 10.4368 1.03066 10.7971 1.352 10.8328L6.97765 11.4578L6.96353 11.4805C6.60829 12.0488 6.69238 12.7872 7.16632 13.2611L10.4887 16.5835C10.9626 17.0575 11.701 17.1416 12.2694 16.7863L12.292 16.7722L12.9171 22.3981C12.9528 22.7194 13.3131 22.892 13.5858 22.7184C16.7121 20.729 18.6837 17.351 18.8785 13.6505L18.9633 12.0388C19.7971 11.2108 20.5556 10.3061 21.2279 9.33499C22.5297 7.45459 23.1295 5.17658 22.9224 2.89891L22.7686 1.20753ZM12.3568 16.142L12.364 16.1374L15.3347 14.2807C16.4962 13.5547 17.5717 12.7057 18.5435 11.7504L18.5507 11.7436C19.3866 10.921 20.1458 10.0196 20.8168 9.05038C22.0519 7.26636 22.6209 5.10511 22.4245 2.94418L22.2896 1.46028L20.8057 1.32538C18.6447 1.12893 16.4835 1.69796 14.6995 2.93305C12.6014 4.38558 10.8216 6.25087 9.46917 8.41482L7.38753 11.7455C7.15568 12.1164 7.21056 12.5983 7.51988 12.9076L10.8423 16.23C11.1516 16.5393 11.6334 16.5942 12.0044 16.3623L12.3568 16.142ZM18.4361 12.5429L18.3791 13.6242C18.1947 17.1294 16.3431 20.3322 13.4028 22.2417L12.7624 16.4782L15.6 14.7047C16.6128 14.0717 17.5618 13.3476 18.4361 12.5429ZM9.04488 8.14983C9.67785 7.13708 10.402 6.18804 11.2067 5.31382L10.1258 5.37071C6.62061 5.55519 3.41791 7.40673 1.5084 10.3471L7.27139 10.9874L9.04488 8.14983Z" fill="black"/>
<path d="M9.18124 20.1613C9.27887 20.259 9.27887 20.4173 9.18124 20.5149L7.31705 22.3791C7.21942 22.4767 7.06113 22.4767 6.96349 22.3791C6.86586 22.2814 6.86586 22.1232 6.96349 22.0255L8.82769 20.1613C8.92532 20.0637 9.08361 20.0637 9.18124 20.1613Z" fill="black"/>
<path d="M3.58862 14.9223C3.68625 14.8247 3.68625 14.6664 3.58862 14.5688C3.49099 14.4711 3.3327 14.4711 3.23507 14.5688L1.37088 16.4329C1.27325 16.5306 1.27325 16.6889 1.37088 16.7865C1.46851 16.8841 1.6268 16.8841 1.72443 16.7865L3.58862 14.9223Z" fill="black"/>
<path d="M6.38461 17.7186C6.48224 17.621 6.48224 17.4627 6.38461 17.365C6.28698 17.2674 6.12868 17.2674 6.03105 17.365L2.30267 21.0934C2.20504 21.1911 2.20504 21.3494 2.30267 21.447C2.4003 21.5446 2.5586 21.5446 2.65623 21.447L6.38461 17.7186Z" fill="black"/>
</svg>
