<svg width="24" height="24" viewBox="0 0 24 24" fill="none" xmlns="http://www.w3.org/2000/svg">
<path fill-rule="evenodd" clip-rule="evenodd" d="M18.229 9.05655C17.2527 10.0329 15.6698 10.0329 14.6935 9.05655C13.7172 8.08024 13.7172 6.49733 14.6935 5.52102C15.6698 4.54471 17.2527 4.54471 18.229 5.52102C19.2053 6.49733 19.2053 8.08024 18.229 9.05655ZM15.7541 7.99589C16.1447 8.38642 16.7778 8.38642 17.1683 7.99589C17.5589 7.60537 17.5589 6.9722 17.1683 6.58168C16.7778 6.19116 16.1447 6.19116 15.7541 6.58168C15.3636 6.97221 15.3636 7.60537 15.7541 7.99589Z" fill="black"/>
<path fill-rule="evenodd" clip-rule="evenodd" d="M23.2662 1.16227C23.2334 0.801703 22.9477 0.516026 22.5871 0.483248L20.8958 0.329486C18.5014 0.111813 16.1066 0.742319 14.1298 2.11086C13.1869 2.76365 12.305 3.49559 11.4931 4.29734L10.0728 4.37209C6.21098 4.57535 2.68563 6.63299 0.609424 9.89559C0.237184 10.4806 0.607243 11.2531 1.29637 11.3297L6.27785 11.8832C6.16173 12.4988 6.34841 13.1508 6.81235 13.6147L10.1347 16.9371C10.5987 17.401 11.2506 17.5877 11.8662 17.4716L12.4197 22.4533C12.4963 23.1424 13.2689 23.5125 13.8538 23.1402C17.1164 21.064 19.1741 17.5387 19.3773 13.6768L19.4521 12.2563C20.2538 11.4444 20.9858 10.5625 21.6386 9.61959C23.0071 7.64282 23.6376 5.24805 23.4199 2.85365L23.2662 1.16227ZM12.086 15.7214L12.0986 15.7134L15.0693 13.8567C16.1999 13.1501 17.2467 12.3237 18.1925 11.3938L18.2048 11.3821C19.0164 10.5828 19.7535 9.7072 20.4053 8.76578C21.5736 7.07813 22.1119 5.03364 21.9261 2.98945L21.8289 1.9205L20.76 1.82333C18.7158 1.63749 16.6713 2.17578 14.9836 3.34415C12.9415 4.75796 11.2092 6.57354 9.89274 8.67982L7.8111 12.0105C7.70266 12.184 7.72833 12.4094 7.87301 12.554L11.1954 15.8764C11.3401 16.0211 11.5655 16.0468 11.739 15.9383L12.086 15.7214ZM17.8741 13.6905C17.6877 16.7229 16.1939 19.5101 13.8058 21.3445L13.2936 16.7355L15.8646 15.1287C16.5653 14.6907 17.2363 14.2102 17.8741 13.6905ZM8.62046 7.88483C9.05841 7.1841 9.5389 6.51311 10.0586 5.87534C7.02639 6.06196 4.23939 7.55573 2.40511 9.94368L7.01364 10.4557L8.62046 7.88483Z" fill="black"/>
<path d="M9.53437 19.8078C9.82726 20.1007 9.82726 20.5755 9.53437 20.8684L7.67018 22.7326C7.37729 23.0255 6.90241 23.0255 6.60952 22.7326C6.31663 22.4397 6.31663 21.9649 6.60952 21.672L8.47371 19.8078C8.7666 19.5149 9.24148 19.5149 9.53437 19.8078Z" fill="black"/>
<path d="M3.94175 15.2759C4.23464 14.983 4.23464 14.5081 3.94175 14.2152C3.64886 13.9223 3.17398 13.9223 2.88109 14.2152L1.0169 16.0794C0.724007 16.3723 0.724007 16.8472 1.0169 17.1401C1.30979 17.4329 1.78467 17.4329 2.07756 17.1401L3.94175 15.2759Z" fill="black"/>
<path d="M6.73774 18.0722C7.03063 17.7793 7.03063 17.3044 6.73774 17.0115C6.44484 16.7186 5.96997 16.7186 5.67708 17.0115L1.9487 20.7399C1.6558 21.0328 1.6558 21.5076 1.9487 21.8005C2.24159 22.0934 2.71646 22.0934 3.00936 21.8005L6.73774 18.0722Z" fill="black"/>
</svg>
