<svg width="24" height="24" viewBox="0 0 24 24" fill="none" xmlns="http://www.w3.org/2000/svg">
<path d="M9.95996 2.75C10.1378 2.75 10.2863 2.74989 10.4072 2.75977C10.5311 2.76988 10.6482 2.79129 10.7588 2.84766C10.9281 2.93394 11.0661 3.07187 11.1523 3.24121C11.2087 3.35184 11.2301 3.46893 11.2402 3.59277C11.2501 3.7137 11.25 3.86217 11.25 4.04004V20.96C11.25 21.1378 11.2501 21.2863 11.2402 21.4072C11.2301 21.5311 11.2087 21.6482 11.1523 21.7588C11.0661 21.9281 10.9281 22.0661 10.7588 22.1523C10.6482 22.2087 10.5311 22.2301 10.4072 22.2402C10.2863 22.2501 10.1378 22.25 9.95996 22.25H3.29004C3.11217 22.25 2.9637 22.2501 2.84277 22.2402C2.71893 22.2301 2.60184 22.2087 2.49121 22.1523C2.32187 22.0661 2.18394 21.9281 2.09766 21.7588C2.04129 21.6482 2.01988 21.5311 2.00977 21.4072C1.99989 21.2863 2 21.1378 2 20.96V4.04004C2 3.86217 1.99989 3.7137 2.00977 3.59277C2.01988 3.46893 2.04129 3.35184 2.09766 3.24121C2.18394 3.07187 2.32187 2.93394 2.49121 2.84766C2.60184 2.79129 2.71893 2.76988 2.84277 2.75977C2.9637 2.74989 3.11217 2.75 3.29004 2.75H9.95996ZM21.501 14.75C21.6387 14.7504 21.751 14.8622 21.751 15V17.1006C21.751 17.5161 21.7509 17.8429 21.7295 18.1055C21.7078 18.3709 21.6622 18.5935 21.5596 18.7949C21.3919 19.1238 21.1238 19.3919 20.7949 19.5596C20.5937 19.662 20.3715 19.7068 20.1064 19.7285C19.8439 19.75 19.5162 19.75 19.1006 19.75H14.6758L16.6631 21.7373C16.7602 21.8348 16.7602 21.9933 16.6631 22.0908C16.5656 22.1883 16.4072 22.1881 16.3096 22.0908L13.9189 19.7012C13.808 19.5902 13.808 19.4098 13.9189 19.2988L16.3096 16.9092C16.4072 16.8119 16.5656 16.8117 16.6631 16.9092C16.7602 17.0067 16.7602 17.1652 16.6631 17.2627L14.6758 19.25H19.1006C19.5243 19.25 19.828 19.2499 20.0654 19.2305C20.2996 19.2113 20.4492 19.175 20.5684 19.1143C20.8033 18.9944 20.9945 18.8024 21.1143 18.5674C21.175 18.4481 21.2123 18.2989 21.2314 18.0645C21.2508 17.827 21.251 17.5234 21.251 17.0996V15C21.251 14.8619 21.3629 14.75 21.501 14.75ZM2.88379 3.25781C2.79101 3.26539 2.74716 3.2795 2.71875 3.29395C2.64349 3.33229 2.5823 3.39349 2.54395 3.46875C2.5295 3.49716 2.51539 3.54101 2.50781 3.63379C2.50001 3.72959 2.5 3.85413 2.5 4.04004V20.96C2.5 21.1459 2.50001 21.2704 2.50781 21.3662C2.51539 21.459 2.5295 21.5028 2.54395 21.5313C2.5823 21.6065 2.64349 21.6677 2.71875 21.7061C2.74716 21.7205 2.79101 21.7346 2.88379 21.7422C2.97959 21.75 3.10413 21.75 3.29004 21.75H9.95996C10.1459 21.75 10.2704 21.75 10.3662 21.7422C10.459 21.7346 10.5028 21.7205 10.5313 21.7061C10.6065 21.6677 10.6677 21.6065 10.7061 21.5313C10.7205 21.5028 10.7346 21.459 10.7422 21.3662C10.75 21.2704 10.75 21.1459 10.75 20.96V4.04004C10.75 3.85413 10.75 3.72959 10.7422 3.63379C10.7346 3.54101 10.7205 3.49716 10.7061 3.46875C10.6677 3.39349 10.6065 3.33229 10.5313 3.29395C10.5028 3.2795 10.459 3.26539 10.3662 3.25781C10.2704 3.25001 10.1459 3.25 9.95996 3.25H3.29004C3.10413 3.25 2.97959 3.25001 2.88379 3.25781ZM20.96 2.75C21.1378 2.75 21.2863 2.74989 21.4072 2.75977C21.5311 2.76988 21.6482 2.79129 21.7588 2.84766C21.9281 2.93394 22.0661 3.07187 22.1523 3.24121C22.2087 3.35184 22.2301 3.46893 22.2402 3.59277C22.2501 3.7137 22.25 3.86217 22.25 4.04004V10.46C22.25 10.6378 22.2501 10.7863 22.2402 10.9072C22.2301 11.0311 22.2087 11.1482 22.1523 11.2588C22.0661 11.4281 21.9281 11.5661 21.7588 11.6523C21.6482 11.7087 21.5311 11.7301 21.4072 11.7402C21.2863 11.7501 21.1378 11.75 20.96 11.75H14.54C14.3622 11.75 14.2137 11.7501 14.0928 11.7402C13.9689 11.7301 13.8518 11.7087 13.7412 11.6523C13.5719 11.5661 13.4339 11.4281 13.3477 11.2588C13.2913 11.1482 13.2699 11.0311 13.2598 10.9072C13.2499 10.7863 13.25 10.6378 13.25 10.46V4.04004C13.25 3.86217 13.2499 3.7137 13.2598 3.59277C13.2699 3.46893 13.2913 3.35184 13.3477 3.24121C13.4339 3.07187 13.5719 2.93394 13.7412 2.84766C13.8518 2.79129 13.9689 2.76988 14.0928 2.75977C14.2137 2.74989 14.3622 2.75 14.54 2.75H20.96ZM14.1338 3.25781C14.041 3.26539 13.9972 3.2795 13.9688 3.29395C13.8935 3.33229 13.8323 3.39349 13.7939 3.46875C13.7795 3.49716 13.7654 3.54101 13.7578 3.63379C13.75 3.72959 13.75 3.85413 13.75 4.04004V10.46C13.75 10.6459 13.75 10.7704 13.7578 10.8662C13.7654 10.959 13.7795 11.0028 13.7939 11.0313C13.8323 11.1065 13.8935 11.1677 13.9688 11.2061C13.9972 11.2205 14.041 11.2346 14.1338 11.2422C14.2296 11.25 14.3541 11.25 14.54 11.25H20.96C21.1459 11.25 21.2704 11.25 21.3662 11.2422C21.459 11.2346 21.5028 11.2205 21.5313 11.2061C21.6065 11.1677 21.6677 11.1065 21.7061 11.0313C21.7205 11.0028 21.7346 10.959 21.7422 10.8662C21.75 10.7704 21.75 10.6459 21.75 10.46V4.04004C21.75 3.85413 21.75 3.72959 21.7422 3.63379C21.7346 3.54101 21.7205 3.49716 21.7061 3.46875C21.6677 3.39349 21.6065 3.33229 21.5313 3.29395C21.5028 3.2795 21.459 3.26539 21.3662 3.25781C21.2704 3.25001 21.1459 3.25 20.96 3.25H14.54C14.3541 3.25 14.2296 3.25001 14.1338 3.25781Z" fill="black"/>
</svg>
