<svg width="24" height="24" viewBox="0 0 24 24" fill="none" xmlns="http://www.w3.org/2000/svg">
<path d="M5.9903 6.19227C5.50227 5.70415 5.5023 4.91264 5.9903 4.4245L6.76853 3.64627C7.54578 2.86905 8.18128 2.23209 8.73932 1.75835C9.3086 1.27508 9.87936 0.88836 10.5554 0.668689C11.6098 0.326147 12.7459 0.326789 13.8002 0.669379C14.4761 0.889051 15.0465 1.27524 15.6157 1.75835C15.9973 2.08232 16.4129 2.48501 16.8876 2.95436V2.55108C16.8876 1.86081 17.4472 1.30135 18.1375 1.30122C18.8278 1.30122 19.3873 1.86073 19.3873 2.55108V5.93056C19.3873 6.63978 18.8122 7.21493 18.103 7.21495H14.7235C14.0333 7.21485 13.4737 6.65528 13.4736 5.96508C13.4736 5.27479 14.0332 4.71532 14.7235 4.71522L15.1136 4.71591C14.6652 4.27292 14.3115 3.93135 13.9977 3.66492C13.5468 3.28213 13.2647 3.12399 13.0275 3.04689C12.4753 2.86747 11.8803 2.86686 11.3281 3.0462C11.0909 3.12328 10.8082 3.28205 10.3572 3.66492C9.89518 4.05722 9.34246 4.6079 8.5363 5.41404L7.75807 6.19227C7.26994 6.68024 6.47841 6.68026 5.9903 6.19227Z" fill="black"/>
<path fill-rule="evenodd" clip-rule="evenodd" d="M4.99938 17.9086C3.96961 16.7689 3.96961 15.0293 4.99938 13.8897L5.10573 13.7778L10.0555 8.82804C11.1905 7.69311 13.0086 7.65763 14.1862 8.7217L14.2981 8.82804L19.2479 13.7778L19.3542 13.8897C20.4182 15.0673 20.3828 16.8855 19.2479 18.0204L14.2981 22.9702L14.1862 23.0765C13.0466 24.1063 11.307 24.1062 10.1673 23.0765L10.0555 22.9702L5.10573 18.0204L4.99938 17.9086ZM11.8232 21.2024C12.0185 21.3976 12.3351 21.3976 12.5303 21.2024L17.4801 16.2527C17.6753 16.0574 17.6753 15.7408 17.4801 15.5456L12.5303 10.5958C12.3351 10.4006 12.0185 10.4006 11.8232 10.5958L6.87349 15.5456C6.67823 15.7408 6.67823 16.0574 6.87349 16.2527L11.8232 21.2024Z" fill="black"/>
</svg>
