<svg width="24" height="24" viewBox="0 0 24 24" fill="none" xmlns="http://www.w3.org/2000/svg">
<path d="M9.4502 2.25C9.57778 2.25 9.71891 2.24989 9.83984 2.25977C9.96955 2.27039 10.1407 2.29672 10.3174 2.38672C10.5525 2.50654 10.7435 2.69751 10.8633 2.93262C10.9533 3.10925 10.9796 3.28045 10.9902 3.41016C11.0001 3.53109 11 3.67223 11 3.7998V21.2002C11 21.3278 11.0001 21.4689 10.9902 21.5898C10.9796 21.7195 10.9533 21.8907 10.8633 22.0674C10.7435 22.3025 10.5525 22.4935 10.3174 22.6133C10.1407 22.7033 9.96955 22.7296 9.83984 22.7402C9.71891 22.7501 9.57778 22.75 9.4502 22.75H2.7998C2.67222 22.75 2.53109 22.7501 2.41016 22.7402C2.28045 22.7296 2.10926 22.7033 1.93262 22.6133C1.69751 22.4935 1.50654 22.3025 1.38672 22.0674C1.29672 21.8907 1.27039 21.7195 1.25977 21.5898C1.24989 21.4689 1.25 21.3278 1.25 21.2002V3.7998C1.25 3.67223 1.24988 3.53109 1.25977 3.41016C1.27039 3.28045 1.29672 3.10925 1.38672 2.93262C1.50655 2.69751 1.69751 2.50654 1.93262 2.38672C2.10926 2.29672 2.28045 2.27039 2.41016 2.25977C2.53109 2.24988 2.67222 2.25 2.7998 2.25H9.4502ZM21.501 14.25C21.9148 14.2504 22.251 14.586 22.251 15V17.1006C22.251 17.508 22.251 17.8589 22.2275 18.1465C22.2033 18.4428 22.1503 18.7379 22.0059 19.0215C21.7902 19.4446 21.4455 19.7892 21.0225 20.0049C20.739 20.1493 20.4436 20.2033 20.1475 20.2275C19.8599 20.251 19.508 20.25 19.1006 20.25H15.8828L17.0166 21.3838C17.3091 21.6766 17.309 22.1515 17.0166 22.4443C16.7237 22.7372 16.248 22.7371 15.9551 22.4443L13.5654 20.0547C13.2592 19.7484 13.2592 19.2516 13.5654 18.9453L15.9551 16.5557C16.248 16.2629 16.7237 16.2628 17.0166 16.5557C17.3091 16.8485 17.3091 17.3234 17.0166 17.6162L15.8828 18.75H19.1006C19.5323 18.75 19.8121 18.7497 20.0244 18.7324C20.2273 18.7158 20.3037 18.6868 20.3408 18.668C20.4816 18.5961 20.5971 18.4817 20.6689 18.3408C20.6878 18.3037 20.7158 18.2275 20.7324 18.0244C20.7498 17.8119 20.751 17.532 20.751 17.0996V15C20.751 14.5858 21.0868 14.25 21.501 14.25ZM2.75 3.7998V21.2002C2.75 21.2174 2.75096 21.2336 2.75098 21.249C2.76636 21.249 2.7826 21.25 2.7998 21.25H9.4502C9.46776 21.25 9.48432 21.249 9.5 21.249V3.75H2.75098C2.75096 3.76567 2.75 3.78225 2.75 3.7998ZM21.2002 2.25C21.3278 2.25 21.4689 2.24989 21.5898 2.25977C21.7195 2.27039 21.8907 2.29673 22.0674 2.38672C22.3025 2.50654 22.4935 2.69751 22.6133 2.93262C22.7033 3.10926 22.7296 3.28045 22.7402 3.41016C22.7501 3.53109 22.75 3.67222 22.75 3.7998V10.4502C22.75 10.5778 22.7501 10.7189 22.7402 10.8398C22.7296 10.9696 22.7033 11.1407 22.6133 11.3174C22.4935 11.5525 22.3025 11.7435 22.0674 11.8633C21.8907 11.9533 21.7195 11.9796 21.5898 11.9902C21.4689 12.0001 21.3278 12 21.2002 12H14.5498C14.4222 12 14.2811 12.0001 14.1602 11.9902C14.0305 11.9796 13.8592 11.9533 13.6826 11.8633C13.4475 11.7435 13.2565 11.5525 13.1367 11.3174C13.0467 11.1407 13.0204 10.9695 13.0098 10.8398C12.9999 10.7189 13 10.5778 13 10.4502V3.7998C13 3.67222 12.9999 3.53109 13.0098 3.41016C13.0204 3.28045 13.0467 3.10926 13.1367 2.93262C13.2565 2.69751 13.4475 2.50655 13.6826 2.38672C13.8592 2.29672 14.0305 2.27039 14.1602 2.25977C14.2811 2.24989 14.4222 2.25 14.5498 2.25H21.2002ZM14.5 3.7998V10.4502C14.5 10.4674 14.501 10.4836 14.501 10.499C14.5164 10.499 14.5326 10.5 14.5498 10.5H21.2002C21.2178 10.5 21.2343 10.499 21.25 10.499V3.75H14.501C14.501 3.76568 14.5 3.78224 14.5 3.7998Z" fill="black"/>
</svg>
