<svg width="24" height="24" viewBox="0 0 24 24" fill="none" xmlns="http://www.w3.org/2000/svg">
<path d="M8.70023 1.75003C8.8195 1.75003 8.98399 1.74887 9.12991 1.76077C9.2503 1.77061 9.41817 1.79254 9.60355 1.85843L9.79495 1.94046C10.083 2.08729 10.3241 2.31087 10.4922 2.58499L10.5596 2.70511C10.6916 2.96415 10.7262 3.20947 10.7393 3.37015C10.7512 3.51606 10.75 3.68055 10.75 3.79984V21.2002C10.75 21.3195 10.7512 21.484 10.7393 21.6299C10.7262 21.7906 10.6916 22.0359 10.5596 22.295C10.3919 22.6241 10.1241 22.8919 9.79495 23.0596C9.53589 23.1916 9.29059 23.2262 9.12991 23.2393C8.98399 23.2512 8.81951 23.25 8.70023 23.25H2.79984C2.68055 23.25 2.51607 23.2512 2.37015 23.2393C2.20947 23.2262 1.96416 23.1916 1.70511 23.0596C1.37601 22.8919 1.1082 22.6241 0.940461 22.295C0.808475 22.0359 0.773901 21.7906 0.760773 21.6299C0.748875 21.484 0.75003 21.3195 0.750031 21.2002V3.79984C0.75003 3.68056 0.748873 3.51606 0.760773 3.37015C0.770611 3.24976 0.79254 3.08189 0.85843 2.89652L0.940461 2.70511L1.00784 2.58499C1.15201 2.34989 1.34989 2.15201 1.58499 2.00784L1.70511 1.94046L1.89652 1.85843C2.08189 1.79254 2.24976 1.77061 2.37015 1.76077C2.51607 1.74887 2.68055 1.75003 2.79984 1.75003H8.70023ZM21.501 13.75C22.191 13.7504 22.751 14.3099 22.751 15V17.1006C22.751 17.4998 22.7521 17.8748 22.7266 18.1875C22.6998 18.5148 22.6375 18.8833 22.4512 19.2491C22.1876 19.7662 21.7662 20.1866 21.2491 20.4502C20.8833 20.6366 20.5148 20.6988 20.1875 20.7256C19.8749 20.7511 19.4997 20.75 19.1006 20.75H17.0899L17.3701 21.0303C17.8579 21.5184 17.8578 22.3098 17.3701 22.7979C16.882 23.286 16.0898 23.2859 15.6016 22.7979L13.2119 20.4082C12.7105 19.9067 12.7105 19.0933 13.2119 18.5918L15.6016 16.2022C16.0898 15.7141 16.882 15.7141 17.3701 16.2022C17.8579 16.6902 17.8578 17.4817 17.3701 17.9698L17.0899 18.25H19.1006C19.5409 18.25 19.7971 18.2487 19.9844 18.2334C20.0619 18.2271 20.1052 18.2181 20.125 18.2139C20.1625 18.1921 20.1931 18.1616 20.2149 18.1241C20.2191 18.104 20.2281 18.0609 20.2344 17.9834C20.2497 17.796 20.251 17.5402 20.251 17.0996V15C20.251 14.3097 20.8107 13.75 21.501 13.75ZM3.25003 20.75H8.25003V4.25003H3.25003V20.75ZM8.91995 20.7481C8.92104 20.748 8.92204 20.7481 8.92288 20.7481C8.92534 20.7479 8.92675 20.7471 8.92679 20.7471C8.92659 20.7471 8.92412 20.7476 8.91995 20.7481ZM21.2002 1.75003C21.3195 1.75003 21.484 1.74888 21.6299 1.76077C21.7503 1.77061 21.9182 1.79255 22.1035 1.85843L22.295 1.94046C22.583 2.08729 22.8241 2.31087 22.9922 2.58499L23.0596 2.70511C23.1916 2.96416 23.2262 3.20947 23.2393 3.37015C23.2512 3.51607 23.25 3.68055 23.25 3.79984V9.70023C23.25 9.81951 23.2512 9.98399 23.2393 10.1299C23.2262 10.2906 23.1916 10.5359 23.0596 10.795C22.8919 11.1241 22.6241 11.3919 22.295 11.5596C22.0359 11.6916 21.7906 11.7262 21.6299 11.7393C21.484 11.7512 21.3195 11.75 21.2002 11.75H15.2998C15.1806 11.75 15.016 11.7512 14.8701 11.7393C14.7095 11.7262 14.4641 11.6916 14.2051 11.5596C13.876 11.3919 13.6082 11.124 13.4405 10.795C13.3085 10.5359 13.2739 10.2906 13.2608 10.1299C13.2489 9.98399 13.25 9.8195 13.25 9.70023V3.79984C13.25 3.68055 13.2489 3.51607 13.2608 3.37015C13.2706 3.24976 13.2925 3.08189 13.3584 2.89652L13.4405 2.70511L13.5078 2.58499C13.652 2.3499 13.8499 2.15201 14.085 2.00784L14.2051 1.94046L14.3965 1.85843C14.5819 1.79254 14.7498 1.77061 14.8701 1.76077C15.0161 1.74887 15.1806 1.75003 15.2998 1.75003H21.2002ZM15.75 9.25003H20.75V4.25003H15.75V9.25003ZM21.42 9.24808C21.421 9.24802 21.422 9.24812 21.4229 9.24808C21.4251 9.24795 21.4266 9.24723 21.4268 9.2471C21.4264 9.24717 21.4239 9.24762 21.42 9.24808ZM2.57327 4.25296C2.57328 4.25296 2.57578 4.25249 2.58011 4.25198C2.57902 4.25204 2.57803 4.25194 2.57718 4.25198C2.57469 4.25213 2.57327 4.25296 2.57327 4.25296ZM8.92679 4.25296C8.92658 4.25285 8.92518 4.25212 8.92288 4.25198C8.92204 4.25194 8.92104 4.25204 8.91995 4.25198C8.92405 4.25246 8.92652 4.25291 8.92679 4.25296ZM15.0733 4.25296C15.0733 4.25296 15.0758 4.25248 15.0801 4.25198C15.079 4.25203 15.078 4.25194 15.0772 4.25198C15.0747 4.25214 15.0733 4.25296 15.0733 4.25296ZM21.4268 4.25296C21.4265 4.25281 21.4251 4.25211 21.4229 4.25198C21.422 4.25194 21.421 4.25204 21.42 4.25198C21.4239 4.25244 21.4264 4.25289 21.4268 4.25296Z" fill="black"/>
</svg>
