<svg width="24" height="24" viewBox="0 0 24 24" fill="none" xmlns="http://www.w3.org/2000/svg">
<path d="M21.2203 22.75C21.3424 22.7501 21.4749 22.7501 21.5895 22.7407C21.7193 22.7301 21.8907 22.7039 22.0675 22.6138C22.3027 22.4939 22.4939 22.3027 22.6138 22.0675C22.7039 21.8907 22.7301 21.7193 22.7407 21.5895C22.7501 21.4749 22.7501 21.3424 22.75 21.2203V14.5298C22.7501 14.4077 22.7501 14.2752 22.7407 14.1606C22.7301 14.0308 22.7039 13.8594 22.6138 13.6825C22.4939 13.4473 22.3027 13.2561 22.0675 13.1363C21.8907 13.0462 21.7193 13.0199 21.5895 13.0093C21.4749 13 21.3424 13 21.2203 13H14.5298C14.4077 13 14.2752 13 14.1606 13.0093C14.0308 13.0199 13.8594 13.0462 13.6825 13.1363C13.4473 13.2561 13.2561 13.4473 13.1363 13.6825C13.0462 13.8594 13.0199 14.0308 13.0093 14.1606C13 14.2752 13 14.4076 13 14.5298V21.2203C13 21.3424 13 21.4749 13.0093 21.5895C13.0199 21.7193 13.0462 21.8907 13.1363 22.0675C13.2561 22.3027 13.4473 22.4939 13.6825 22.6138C13.8594 22.7039 14.0308 22.7301 14.1606 22.7407C14.2752 22.7501 14.4077 22.7501 14.5298 22.75H21.2203Z" fill="black"/>
<path fill-rule="evenodd" clip-rule="evenodd" d="M9.47022 22.75C9.59234 22.75 9.72488 22.7501 9.83948 22.7407C9.96924 22.7301 10.1407 22.7039 10.3175 22.6138C10.5527 22.4939 10.7439 22.3027 10.8638 22.0675C10.9539 21.8907 10.9801 21.7192 10.9907 21.5895C11.0001 21.4748 11 21.3424 11 21.2202V3.77979C11 3.65763 11.0001 3.52518 10.9907 3.41053C10.9801 3.28078 10.9539 3.10935 10.8638 2.93252C10.7439 2.69732 10.5527 2.50609 10.3175 2.38625C10.1407 2.29615 9.96924 2.26991 9.83948 2.25931C9.72485 2.24994 9.59243 2.24997 9.47029 2.25H2.77978C2.65764 2.24997 2.52516 2.24994 2.41053 2.25931C2.28078 2.26991 2.10935 2.29615 1.93252 2.38625C1.69732 2.50609 1.50609 2.69732 1.38625 2.93252C1.29615 3.10935 1.26991 3.28078 1.25931 3.41053C1.24994 3.52517 1.24997 3.65761 1.25 3.77976L1.25 21.2202C1.24997 21.3424 1.24994 21.4748 1.25931 21.5895C1.26991 21.7192 1.29615 21.8907 1.38625 22.0675C1.50609 22.3027 1.69732 22.4939 1.93252 22.6138C2.10935 22.7039 2.28078 22.7301 2.41053 22.7407C2.52513 22.7501 2.65752 22.75 2.77964 22.75H9.47022ZM9.49999 21.25H2.75002L2.75002 3.75002H9.49999V21.25Z" fill="black"/>
<path d="M21.5001 10.75C21.9143 10.75 22.2501 10.4142 22.2501 10L22.25 7.87096C22.25 7.47562 22.25 7.13457 22.2271 6.85365C22.2028 6.55715 22.1493 6.26224 22.0047 5.97847C21.789 5.55512 21.4448 5.21092 21.0215 4.99521C20.7377 4.85062 20.4428 4.79714 20.1463 4.77291C19.8653 4.74996 19.5243 4.74997 19.1289 4.74998L15.8821 4.74999L17.0162 3.61587C17.3091 3.32297 17.3091 2.8481 17.0162 2.55521C16.7233 2.26231 16.2484 2.26231 15.9555 2.55521L13.5653 4.94546C13.259 5.25172 13.259 5.74826 13.5653 6.05451L15.9555 8.44477C16.2484 8.73766 16.7233 8.73766 17.0162 8.44477C17.3091 8.15187 17.3091 7.677 17.0162 7.38411L15.8821 6.24999H19.1C19.5324 6.24999 19.8116 6.25057 20.0241 6.26793C20.2279 6.28458 20.3034 6.31283 20.3405 6.33173C20.4816 6.40363 20.5963 6.51836 20.6682 6.65948C20.6871 6.69656 20.7154 6.7721 20.732 6.97584C20.7494 7.18834 20.75 7.46754 20.75 7.89994L20.7501 10C20.7501 10.4143 21.0859 10.75 21.5001 10.75Z" fill="black"/>
</svg>
