<svg width="24" height="24" viewBox="0 0 24 24" fill="none" xmlns="http://www.w3.org/2000/svg">
<path d="M5.99036 5.66178C5.79522 5.46655 5.79525 5.14991 5.99036 4.95467L6.76859 4.17644C7.55442 3.39063 8.16529 2.77993 8.69449 2.33064C9.22821 1.87756 9.71218 1.55876 10.2565 1.38185C11.1602 1.08821 12.1342 1.08822 13.0379 1.38185C13.5823 1.55875 14.0668 1.87679 14.6006 2.32995C15.1299 2.77932 15.7405 3.39108 16.5265 4.17713L17.1073 4.75787V2.55092C17.1073 2.27486 17.3312 2.05111 17.6072 2.05097C17.8834 2.05097 18.1072 2.27478 18.1072 2.55092V5.93039C18.1071 6.22537 17.8683 6.4641 17.5734 6.46418L14.1932 6.46487C13.9172 6.46477 13.6934 6.2409 13.6933 5.96492C13.6933 5.68884 13.9172 5.46507 14.1932 5.46497H16.4002L15.8194 4.88424C15.0216 4.08645 14.4439 3.50911 13.9529 3.0923C13.4665 2.67939 13.0974 2.45325 12.7286 2.3334C12.0257 2.10508 11.2687 2.10504 10.5658 2.3334C10.197 2.45327 9.82798 2.67933 9.34152 3.0923C8.85063 3.50904 8.2733 4.08596 7.47569 4.88354L6.69746 5.66178C6.50223 5.85686 6.18558 5.85687 5.99036 5.66178Z" fill="black"/>
<path fill-rule="evenodd" clip-rule="evenodd" d="M4.46911 17.9084C3.43933 16.7687 3.43933 15.0292 4.46911 13.8895L4.57545 13.7776L9.5252 8.82787C10.6602 7.69295 12.4783 7.65747 13.656 8.72153L13.7678 8.82787L18.7176 13.7776L18.8239 13.8895C19.8879 15.0671 19.8525 16.8853 18.7176 18.0203L13.7678 22.97L13.656 23.0764C12.5163 24.1061 10.7768 24.1061 9.63707 23.0764L9.5252 22.97L4.57545 18.0203L4.46911 17.9084ZM10.2323 22.2629C11.0134 23.0439 12.2797 23.0439 13.0607 22.2629L18.0105 17.3132C18.7915 16.5321 18.7915 15.2658 18.0105 14.4847L13.0607 9.53498C12.2797 8.75395 11.0134 8.75399 10.2323 9.53498L5.28256 14.4847C4.50151 15.2658 4.50151 16.5321 5.28256 17.3132L10.2323 22.2629Z" fill="black"/>
</svg>
