<svg width="24" height="24" viewBox="0 0 24 24" fill="none" xmlns="http://www.w3.org/2000/svg">
<path fill-rule="evenodd" clip-rule="evenodd" d="M13 10.2314L13 10.2002V3.79984L13 3.76871V3.76868C12.9999 3.65143 12.9998 3.51299 13.0098 3.39066C13.0187 3.28166 13.0387 3.13692 13.0948 2.97952L13.1631 2.81937L13.2217 2.71585C13.3452 2.51449 13.5145 2.34523 13.7159 2.22171L13.8194 2.16312L13.9795 2.09476C14.1369 2.03869 14.2817 2.0187 14.3907 2.0098C14.513 1.99983 14.6515 1.99993 14.7687 2.00002L14.7999 2.00003H21.2002L21.2314 2.00002C21.3486 1.99993 21.4871 1.99983 21.6094 2.0098C21.7184 2.0187 21.8632 2.03869 22.0206 2.09476L22.1807 2.16312C22.4277 2.28894 22.6342 2.48091 22.7784 2.71585L22.837 2.81937C22.9478 3.03716 22.9784 3.24553 22.9903 3.39066C23.0002 3.51298 23.0002 3.65141 23.0001 3.76866L23 3.79984V10.2002L23.0001 10.2314C23.0002 10.3487 23.0002 10.4871 22.9903 10.6094C22.9784 10.7545 22.9478 10.9629 22.837 11.1807C22.6932 11.4629 22.463 11.6931 22.1807 11.8369C21.9629 11.9478 21.7545 11.9784 21.6094 11.9903C21.4871 12.0002 21.3487 12.0001 21.2314 12H21.2314L21.2002 12H14.7999L14.7687 12H14.7687C14.6514 12.0001 14.513 12.0002 14.3907 11.9903C14.2456 11.9784 14.0372 11.9478 13.8194 11.8369C13.5371 11.6931 13.3069 11.4629 13.1631 11.1807C13.0523 10.9629 13.0217 10.7545 13.0098 10.6094C12.9998 10.4871 12.9999 10.3486 13 10.2314V10.2314ZM3.00003 21H9.00003V4.00004H3.00003V21ZM1.00002 21.2314L1.00003 21.2002V3.79985L1.00002 3.76872C0.999931 3.65146 0.99983 3.51301 1.0098 3.39067C1.0187 3.28167 1.03869 3.13693 1.09476 2.97953L1.16312 2.81938L1.22171 2.71586C1.34523 2.51451 1.51449 2.34524 1.71585 2.22172L1.81937 2.16313L1.97952 2.09477C2.13692 2.0387 2.28166 2.01871 2.39066 2.00981C2.513 1.99984 2.65145 1.99994 2.76871 2.00003L2.79984 2.00004H9.20023L9.23135 2.00003C9.34861 1.99994 9.48706 1.99984 9.60941 2.00981C9.71841 2.01871 9.86314 2.0387 10.0205 2.09477L10.1807 2.16313C10.4276 2.28895 10.6342 2.48092 10.7784 2.71586L10.8369 2.81938C10.9478 3.03717 10.9784 3.24554 10.9903 3.39067C11.0002 3.513 11.0001 3.65144 11 3.76869V3.76872L11 3.79985V21.2002L11 21.2314V21.2314C11.0001 21.3486 11.0002 21.4871 10.9903 21.6094C10.9784 21.7545 10.9478 21.9629 10.8369 22.1807C10.6931 22.4629 10.4629 22.6931 10.1807 22.837C9.9629 22.9478 9.75453 22.9784 9.60941 22.9903C9.48706 23.0002 9.3486 23.0001 9.23134 23.0001L9.20023 23H2.79984L2.76872 23.0001C2.65146 23.0001 2.51301 23.0002 2.39066 22.9903C2.24553 22.9784 2.03716 22.9478 1.81937 22.837C1.53712 22.6931 1.30693 22.4629 1.16312 22.1807C1.05224 21.9629 1.02165 21.7545 1.0098 21.6094C0.99983 21.4871 0.999931 21.3486 1.00002 21.2314ZM22.5008 15C22.5008 14.4479 22.0528 14.0003 21.5008 14C20.9485 14 20.5008 14.4478 20.5008 15V17.0997C20.5008 17.5362 20.4995 17.804 20.4832 18.004C20.4756 18.0969 20.4659 18.1533 20.4578 18.1875C20.454 18.2037 20.4509 18.2143 20.449 18.2198C20.4477 18.2233 20.4467 18.2254 20.4462 18.2264L20.4461 18.2266C20.3982 18.3206 20.3213 18.3974 20.2273 18.4454L20.2195 18.4483C20.2187 18.4486 20.2177 18.4489 20.2167 18.4493C20.2109 18.4515 20.2017 18.4549 20.1883 18.4581C20.1541 18.4661 20.0974 18.4758 20.0047 18.4834C19.8048 18.4998 19.5367 18.5 19.1004 18.5H16.4861L17.1932 17.793C17.5834 17.4025 17.5834 16.7694 17.1932 16.3789C16.8026 15.9884 16.1686 15.9884 15.7781 16.3789L13.3885 18.7686C12.9846 19.1725 12.9846 19.8276 13.3885 20.2315L15.7781 22.6211C16.1686 23.0117 16.8026 23.0117 17.1932 22.6211C17.5833 22.2307 17.5834 21.5975 17.1932 21.2071L16.4861 20.5H19.1004L19.1482 20.5C19.5323 20.5001 19.8786 20.5001 20.1668 20.4766C20.4786 20.4511 20.8108 20.393 21.1355 20.2276C21.6058 19.9879 21.9887 19.6051 22.2283 19.1348C22.3936 18.8102 22.4509 18.4788 22.4764 18.167C22.5008 17.8685 22.5008 17.508 22.5008 17.1074V17.1006V15Z" fill="black"/>
</svg>
