<svg width="24" height="24" viewBox="0 0 24 24" fill="none" xmlns="http://www.w3.org/2000/svg">
<path d="M9.20023 2.00003C9.32355 2.00003 9.47605 1.99893 9.60941 2.0098C9.7184 2.0187 9.86315 2.03869 10.0205 2.09476L10.1807 2.16312C10.4276 2.28894 10.6342 2.48092 10.7784 2.71585L10.8369 2.81937C10.9478 3.03715 10.9784 3.24553 10.9903 3.39066C11.0011 3.52401 11 3.67651 11 3.79984V21.2002C11 21.3235 11.0011 21.4761 10.9903 21.6094C10.9784 21.7545 10.9478 21.9629 10.8369 22.1807C10.6931 22.4629 10.4629 22.6931 10.1807 22.8369C9.9629 22.9478 9.75453 22.9784 9.60941 22.9903C9.47605 23.0011 9.32355 23 9.20023 23H2.79984C2.67651 23 2.52401 23.0011 2.39066 22.9903C2.24553 22.9784 2.03715 22.9478 1.81937 22.8369C1.53713 22.6931 1.30692 22.4629 1.16312 22.1807C1.05225 21.9629 1.02165 21.7545 1.0098 21.6094C0.998935 21.4761 1.00003 21.3235 1.00003 21.2002V3.79984C1.00003 3.67651 0.998934 3.52401 1.0098 3.39066C1.0187 3.28166 1.03869 3.13691 1.09476 2.97952L1.16312 2.81937L1.22171 2.71585C1.34523 2.5145 1.5145 2.34523 1.71585 2.22171L1.81937 2.16312L1.97952 2.09476C2.13692 2.03869 2.28166 2.0187 2.39066 2.0098C2.52401 1.99893 2.67651 2.00003 2.79984 2.00003H9.20023ZM21.501 14C22.0529 14.0004 22.501 14.448 22.501 15V17.1006C22.501 17.5039 22.5011 17.8669 22.4766 18.167C22.4511 18.4787 22.3938 18.8102 22.2285 19.1348C21.9889 19.605 21.6059 19.9879 21.1358 20.2276C20.8111 20.393 20.4788 20.4511 20.167 20.4766C19.867 20.5011 19.5037 20.5 19.1006 20.5H16.4864L17.1934 21.2071C17.5835 21.5975 17.5834 22.2307 17.1934 22.6211C16.8029 23.0116 16.1689 23.0115 15.7784 22.6211L13.3887 20.2315C12.9849 19.8276 12.9849 19.1725 13.3887 18.7686L15.7784 16.3789C16.1689 15.9885 16.8029 15.9885 17.1934 16.3789C17.5835 16.7694 17.5835 17.4026 17.1934 17.793L16.4864 18.5H19.1006C19.5368 18.5 19.8051 18.4998 20.0049 18.4834C20.0975 18.4758 20.1544 18.4661 20.1885 18.458C20.2043 18.4543 20.2144 18.4502 20.2198 18.4483C20.2243 18.4467 20.227 18.4456 20.2276 18.4453C20.3214 18.3974 20.3985 18.3205 20.4463 18.2266C20.4468 18.2256 20.448 18.2233 20.4493 18.2198C20.4512 18.2143 20.4543 18.2036 20.458 18.1875C20.4661 18.1533 20.4758 18.0969 20.4834 18.0039C20.4998 17.804 20.501 17.5361 20.501 17.0996V15C20.501 14.4478 20.9487 14 21.501 14ZM3.00003 21H9.00003V4.00003H3.00003V21ZM21.2002 2.00003C21.3235 2.00003 21.4761 1.99894 21.6094 2.0098C21.7184 2.0187 21.8632 2.0387 22.0205 2.09476L22.1807 2.16312C22.4276 2.28894 22.6342 2.48092 22.7784 2.71585L22.8369 2.81937C22.9478 3.03715 22.9784 3.24553 22.9903 3.39066C23.0011 3.52401 23 3.67651 23 3.79984V10.2002C23 10.3236 23.0011 10.4761 22.9903 10.6094C22.9784 10.7545 22.9478 10.9629 22.8369 11.1807C22.6931 11.4629 22.4629 11.6931 22.1807 11.8369C21.9629 11.9478 21.7545 11.9784 21.6094 11.9903C21.4761 12.0011 21.3235 12 21.2002 12H14.7998C14.6765 12 14.524 12.0011 14.3907 11.9903C14.2455 11.9784 14.0371 11.9478 13.8194 11.8369C13.5371 11.6931 13.3069 11.4629 13.1631 11.1807C13.0523 10.9629 13.0217 10.7545 13.0098 10.6094C12.9989 10.4761 13 10.3236 13 10.2002V3.79984C13 3.67651 12.9989 3.52401 13.0098 3.39066C13.0187 3.28166 13.0387 3.13692 13.0948 2.97952L13.1631 2.81937L13.2217 2.71585C13.3452 2.5145 13.5145 2.34523 13.7159 2.22171L13.8194 2.16312L13.9795 2.09476C14.1369 2.03869 14.2817 2.0187 14.3907 2.0098C14.524 1.99893 14.6765 2.00003 14.7998 2.00003H21.2002ZM15 10H21V4.00003H15V10Z" fill="black"/>
</svg>
