<svg width="24" height="24" viewBox="0 0 24 24" fill="none" xmlns="http://www.w3.org/2000/svg">
<path fill-rule="evenodd" clip-rule="evenodd" d="M13 10.4545V10.4502V3.7998V3.79548V3.79545C13 3.66901 13 3.52972 13.0098 3.41016C13.0204 3.28045 13.0467 3.10926 13.1367 2.93262C13.2566 2.6975 13.4475 2.50655 13.6826 2.38672C13.8593 2.29671 14.0305 2.27039 14.1602 2.25977C14.2798 2.25 14.4191 2.25 14.5455 2.25L14.5498 2.25H21.2002L21.2045 2.25C21.331 2.25 21.4703 2.25 21.5899 2.25977C21.7196 2.27039 21.8908 2.29671 22.0674 2.38672C22.3025 2.50655 22.4935 2.6975 22.6133 2.93262C22.7033 3.10926 22.7296 3.28045 22.7403 3.41016C22.75 3.52971 22.75 3.66898 22.75 3.7954V3.7998V10.4502V10.4546C22.75 10.581 22.75 10.7203 22.7403 10.8398C22.7296 10.9696 22.7033 11.1407 22.6133 11.3174C22.4935 11.5525 22.3025 11.7435 22.0674 11.8633C21.8908 11.9533 21.7196 11.9796 21.5899 11.9902C21.4703 12 21.331 12 21.2046 12H21.2046H21.2002H14.5498H14.5455H14.5454C14.419 12 14.2797 12 14.1602 11.9902C14.0305 11.9796 13.8593 11.9533 13.6826 11.8633C13.4475 11.7435 13.2566 11.5525 13.1367 11.3174C13.0467 11.1407 13.0204 10.9696 13.0098 10.8398C13 10.7203 13 10.581 13 10.4546V10.4545ZM9.5 3.75002H2.75098C2.75097 3.75759 2.75074 3.76535 2.75051 3.77334C2.75026 3.78191 2.75 3.79073 2.75 3.79983V21.2002C2.75 21.2091 2.75026 21.2178 2.75051 21.2262C2.75074 21.234 2.75097 21.2416 2.75098 21.249C2.75841 21.2491 2.76604 21.2493 2.77388 21.2495C2.78227 21.2498 2.79091 21.25 2.7998 21.25H9.4502C9.4593 21.25 9.46812 21.2498 9.4767 21.2495L9.48819 21.2492L9.5 21.249V3.75002ZM1.25 21.2046L1.25 21.2002V3.79983L1.25 3.79548C1.25 3.66904 1.25 3.52975 1.25977 3.41018C1.27039 3.28047 1.29671 3.10929 1.38672 2.93264C1.50655 2.69753 1.6975 2.50657 1.93262 2.38674C2.10926 2.29674 2.28045 2.27041 2.41016 2.25979C2.52973 2.25002 2.66903 2.25002 2.79548 2.25002L2.7998 2.25002H9.4502L9.45452 2.25002C9.58097 2.25002 9.72027 2.25002 9.83984 2.25979C9.96955 2.27041 10.1407 2.29674 10.3174 2.38674C10.5525 2.50657 10.7435 2.69753 10.8633 2.93264C10.9533 3.10929 10.9796 3.28047 10.9902 3.41018C11 3.52976 11 3.66906 11 3.79551V3.79554V3.79983V21.2002V21.2045V21.2045C11 21.331 11 21.4703 10.9902 21.5899C10.9796 21.7196 10.9533 21.8908 10.8633 22.0674C10.7435 22.3025 10.5525 22.4935 10.3174 22.6133C10.1407 22.7033 9.96955 22.7296 9.83984 22.7403C9.72027 22.75 9.58097 22.75 9.45453 22.75H9.4502H2.7998H2.79547C2.66903 22.75 2.52973 22.75 2.41016 22.7403C2.28045 22.7296 2.10926 22.7033 1.93262 22.6133C1.6975 22.4935 1.50655 22.3025 1.38672 22.0674C1.29671 21.8908 1.27039 21.7196 1.25977 21.5899C1.25 21.4703 1.25 21.331 1.25 21.2046ZM22.2508 15C22.2508 14.586 21.9147 14.2503 21.5008 14.25C21.0866 14.25 20.7508 14.5858 20.7508 15V17.0996C20.7508 17.532 20.7496 17.8119 20.7322 18.0244C20.7156 18.2277 20.6876 18.3037 20.6687 18.3408C20.5969 18.4817 20.4815 18.5961 20.3406 18.668C20.3035 18.6869 20.2272 18.7158 20.0242 18.7324C19.8118 18.7497 19.5322 18.75 19.1004 18.75H15.8826L17.0164 17.6162C17.309 17.3234 17.309 16.8485 17.0164 16.5557C16.7235 16.2628 16.2478 16.2628 15.9549 16.5557L13.5652 18.9453C13.259 19.2516 13.259 19.7484 13.5652 20.0547L15.9549 22.4443C16.2478 22.7372 16.7235 22.7372 17.0164 22.4443C17.309 22.1515 17.309 21.6766 17.0164 21.3838L15.8826 20.25H19.1004L19.1501 20.25C19.5365 20.2501 19.8714 20.2501 20.1473 20.2276C20.4435 20.2033 20.7387 20.1494 21.0223 20.0049C21.4454 19.7892 21.79 19.4447 22.0056 19.0215C22.1501 18.7379 22.2031 18.4428 22.2273 18.1465C22.2507 17.86 22.2508 17.5107 22.2508 17.1052V17.1006V15Z" fill="black"/>
</svg>
