<svg width="24" height="24" viewBox="0 0 24 24" fill="none" xmlns="http://www.w3.org/2000/svg">
<path d="M5.99024 5.66178C5.79511 5.46655 5.79514 5.14991 5.99024 4.95467L6.76847 4.17644C7.5543 3.39063 8.16517 2.77993 8.69437 2.33064C9.2281 1.87756 9.71206 1.55876 10.2564 1.38185C11.1601 1.08821 12.1341 1.08822 13.0378 1.38185C13.5822 1.55875 14.0667 1.87679 14.6005 2.32995C15.1298 2.77932 15.7404 3.39108 16.5264 4.17713L17.1071 4.75787V2.55092C17.1071 2.27486 17.3311 2.05111 17.6071 2.05097C17.8832 2.05097 18.107 2.27478 18.107 2.55092V5.93039C18.107 6.22537 17.8682 6.4641 17.5733 6.46418L14.1931 6.46487C13.9171 6.46477 13.6933 6.2409 13.6931 5.96492C13.6931 5.68884 13.917 5.46507 14.1931 5.46497H16.4L15.8193 4.88424C15.0215 4.08645 14.4437 3.50911 13.9528 3.0923C13.4664 2.67939 13.0973 2.45325 12.7285 2.3334C12.0256 2.10508 11.2686 2.10504 10.5657 2.3334C10.1969 2.45327 9.82787 2.67933 9.3414 3.0923C8.85051 3.50904 8.27318 4.08596 7.47558 4.88354L6.69735 5.66178C6.50211 5.85686 6.18547 5.85687 5.99024 5.66178Z" fill="black"/>
<path d="M4.57533 18.0203C3.40376 16.8487 3.40376 14.9492 4.57533 13.7776L9.52508 8.82787C10.6967 7.65636 12.5962 7.65632 13.7677 8.82787L18.7175 13.7776C19.889 14.9492 19.889 16.8487 18.7175 18.0203L13.7677 22.97C12.5962 24.1416 10.6967 24.1415 9.52508 22.97L4.57533 18.0203Z" fill="black"/>
</svg>
