<svg width="24" height="24" viewBox="0 0 24 24" fill="none" xmlns="http://www.w3.org/2000/svg">
<path d="M5.99034 5.83859C5.69757 5.54573 5.6976 5.07081 5.99034 4.77793L6.76857 3.9997C7.55155 3.21674 8.17085 2.59753 8.70966 2.14009C9.25517 1.677 9.76777 1.33552 10.3559 1.14434C11.3099 0.834381 12.338 0.834365 13.292 1.14434C13.8803 1.33551 14.3934 1.67621 14.939 2.1394C15.4779 2.59693 16.0969 3.21719 16.8801 4.00039L17.034 4.15438V2.55096C17.034 2.13683 17.3699 1.80117 17.784 1.80104C18.1982 1.80104 18.5339 2.13675 18.5339 2.55096V5.93043C18.5339 6.36348 18.1832 6.71412 17.7501 6.71419L14.37 6.71488C13.9559 6.71478 13.6202 6.37901 13.62 5.96496C13.62 5.55081 13.9558 5.21514 14.37 5.21504H15.9734L15.8194 5.06105C15.0187 4.26035 14.4494 3.69159 13.9681 3.28293C13.4934 2.87999 13.153 2.67659 12.828 2.57098C12.1754 2.35903 11.4725 2.35897 10.8199 2.57098C10.495 2.67658 10.1545 2.87998 9.67986 3.28293C9.19859 3.69152 8.62968 4.25994 7.82923 5.06036L7.051 5.83859C6.75813 6.13131 6.28319 6.13132 5.99034 5.83859Z" fill="black"/>
<path fill-rule="evenodd" clip-rule="evenodd" d="M4.64587 17.9084C3.61609 16.7687 3.61609 15.0292 4.64587 13.8895L4.75221 13.7777L9.70196 8.82791C10.8369 7.69299 12.6551 7.65751 13.8327 8.72157L13.9446 8.82791L18.8943 13.7777L19.0007 13.8895C20.0647 15.0672 20.0293 16.8853 18.8943 18.0203L13.9446 22.97L13.8327 23.0764C12.6931 24.1061 10.9535 24.1061 9.81382 23.0764L9.70196 22.97L4.75221 18.0203L4.64587 17.9084ZM10.7626 21.9094C11.3484 22.4951 12.2982 22.4952 12.8839 21.9094L17.8337 16.9596C18.4194 16.3739 18.4194 15.4241 17.8337 14.8383L12.8839 9.88857C12.2982 9.30281 11.3484 9.30284 10.7626 9.88857L5.81287 14.8383C5.22708 15.4241 5.22708 16.3739 5.81287 16.9596L10.7626 21.9094Z" fill="black"/>
</svg>
