<svg width="24" height="24" viewBox="0 0 24 24" fill="none" xmlns="http://www.w3.org/2000/svg">
<path d="M6.60556 7.21491C5.89634 7.21489 5.32119 6.63974 5.32117 5.93052V2.55104C5.32117 1.86069 5.88068 1.30118 6.57104 1.30118C7.26119 1.30142 7.8209 1.86083 7.8209 2.55104V2.95431C8.29553 2.48503 8.71131 2.08225 9.09287 1.75831C9.66189 1.27529 10.2326 0.888994 10.9083 0.669337C11.9626 0.326831 13.0988 0.326133 14.1531 0.668646C14.8291 0.888329 15.4 1.27508 15.9692 1.75831C16.5272 2.23204 17.1628 2.86908 17.94 3.64623L18.7182 4.42446C19.206 4.91256 19.2061 5.70414 18.7182 6.19223C18.2301 6.68007 17.4386 6.68003 16.9505 6.19223L16.1722 5.414C15.3662 4.60795 14.8133 4.05716 14.3513 3.66487C13.9004 3.28212 13.6176 3.12326 13.3804 3.04615C12.8283 2.86685 12.2331 2.86751 11.681 3.04685C11.4439 3.12395 11.1615 3.28225 10.7108 3.66487C10.397 3.93128 10.0433 4.27294 9.59489 4.71587L9.98504 4.71518C10.6752 4.71538 11.2349 5.27481 11.2349 5.96504C11.2347 6.65513 10.6751 7.2147 9.98504 7.21491H6.60556Z" fill="black"/>
<path fill-rule="evenodd" clip-rule="evenodd" d="M5.10573 18.0204L4.99938 17.9085C3.96961 16.7688 3.96961 15.0293 4.99938 13.8896L5.10573 13.7777L10.0555 8.828C11.1905 7.69307 13.0086 7.65759 14.1862 8.72165L14.2981 8.828L19.2479 13.7777L19.3542 13.8896C20.4182 15.0672 20.3828 16.8854 19.2479 18.0204L14.2981 22.9701L14.1862 23.0765C13.0466 24.1062 11.307 24.1062 10.1673 23.0765L10.0555 22.9701L5.10573 18.0204ZM11.8232 21.2024C12.0185 21.3976 12.3351 21.3976 12.5303 21.2024L17.4801 16.2526C17.6753 16.0574 17.6753 15.7408 17.4801 15.5455L12.5303 10.5958C12.3351 10.4005 12.0185 10.4006 11.8232 10.5958L6.87349 15.5455C6.67823 15.7408 6.67823 16.0574 6.87349 16.2526L11.8232 21.2024Z" fill="black"/>
</svg>
