<svg width="24" height="24" viewBox="0 0 24 24" fill="none" xmlns="http://www.w3.org/2000/svg">
<path d="M21.2232 23C21.3423 23.0001 21.4845 23.0001 21.6099 22.9899C21.7551 22.978 21.9631 22.9476 22.181 22.8365C22.4633 22.6927 22.6927 22.4633 22.8365 22.181C22.9476 21.9631 22.978 21.7551 22.9899 21.6099C23.0001 21.4846 23.0001 21.3423 23 21.2232V14.7769C23.0001 14.6578 23.0001 14.5155 22.9899 14.3902C22.978 14.245 22.9476 14.037 22.8365 13.819C22.6927 13.5368 22.4633 13.3073 22.181 13.1635C21.9631 13.0525 21.7551 13.022 21.6099 13.0102C21.4846 12.9999 21.3423 13 21.2232 13H14.7769C14.6578 13 14.5155 12.9999 14.3902 13.0102C14.245 13.022 14.037 13.0525 13.819 13.1635C13.5368 13.3073 13.3073 13.5368 13.1635 13.819C13.0525 14.037 13.022 14.245 13.0102 14.3902C12.9999 14.5155 13 14.6578 13 14.7769V21.2232C13 21.3423 12.9999 21.4845 13.0102 21.6099C13.022 21.7551 13.0525 21.9631 13.1635 22.181C13.3073 22.4633 13.5368 22.6927 13.819 22.8365C14.037 22.9476 14.245 22.978 14.3902 22.9899C14.5155 23.0001 14.6578 23.0001 14.7769 23H21.2232Z" fill="black"/>
<path fill-rule="evenodd" clip-rule="evenodd" d="M9.22315 23C9.34227 23.0001 9.48452 23.0001 9.60984 22.9899C9.75506 22.978 9.96305 22.9476 10.181 22.8365C10.4632 22.6927 10.6927 22.4632 10.8365 22.181C10.9476 21.9631 10.978 21.7551 10.9899 21.6098C11.0001 21.4845 11.0001 21.3423 11 21.2232V3.77687C11.0001 3.65776 11.0001 3.5155 10.9899 3.39018C10.978 3.24496 10.9476 3.03697 10.8365 2.81903C10.6927 2.53679 10.4632 2.30731 10.181 2.1635C9.96305 2.05245 9.75506 2.02201 9.60984 2.01015C9.48456 1.99991 9.34236 1.99996 9.22326 2.00001H2.77686C2.65777 1.99996 2.51546 1.99991 2.39018 2.01015C2.24496 2.02201 2.03697 2.05245 1.81903 2.1635C1.53678 2.30731 1.30731 2.53679 1.1635 2.81903C1.05245 3.03697 1.02201 3.24496 1.01014 3.39018C0.999906 3.5155 0.99996 3.65775 1.00001 3.77686V21.2232C0.99996 21.3423 0.999906 21.4845 1.01014 21.6098C1.02201 21.7551 1.05245 21.9631 1.1635 22.181C1.30731 22.4632 1.53678 22.6927 1.81903 22.8365C2.03697 22.9476 2.24496 22.978 2.39018 22.9899C2.5155 23.0001 2.65776 23.0001 2.77687 23H9.22315ZM9.00001 4.00001V21H3.00001V4.00001H9.00001Z" fill="black"/>
<path d="M21.5001 11C22.0524 11 22.5001 10.5523 22.5001 9.99998L22.5 7.86381C22.5 7.47475 22.5 7.12458 22.4762 6.83328C22.4507 6.52132 22.393 6.18985 22.2275 5.86496C21.9878 5.39457 21.6053 5.01213 21.1349 4.77245C20.8101 4.60691 20.4786 4.54922 20.1666 4.52374C19.8753 4.49994 19.5252 4.49995 19.1361 4.49998L16.4856 4.49998L17.1929 3.79264C17.5835 3.40211 17.5835 2.76895 17.1929 2.37842C16.8024 1.9879 16.1693 1.9879 15.7787 2.37842L13.3885 4.76867C12.9846 5.17256 12.9846 5.8274 13.3885 6.23128L15.7787 8.62153C16.1693 9.01206 16.8024 9.01206 17.1929 8.62153C17.5835 8.23101 17.5835 7.59785 17.1929 7.20732L16.4856 6.49998H19.1C19.5365 6.49998 19.8038 6.50076 20.0038 6.51709C20.0969 6.5247 20.1533 6.53426 20.1875 6.54232C20.1925 6.5435 20.1969 6.54462 20.2008 6.54567C20.2095 6.54801 20.2154 6.54996 20.2192 6.5513C20.2244 6.55316 20.2266 6.55427 20.227 6.55447C20.3211 6.60241 20.3976 6.6789 20.4455 6.77297C20.4457 6.77341 20.4468 6.77562 20.4487 6.78076C20.4506 6.78617 20.4538 6.79619 20.4576 6.81247C20.4657 6.84669 20.4753 6.90305 20.4829 6.9962C20.4992 7.19615 20.5 7.46341 20.5 7.89994L20.5001 10C20.5001 10.5523 20.9478 11 21.5001 11Z" fill="black"/>
</svg>
