<svg width="24" height="24" viewBox="0 0 24 24" fill="none" xmlns="http://www.w3.org/2000/svg">
<path d="M6.0746 6.46438C5.77969 6.46424 5.54084 6.22553 5.54082 5.93059V2.55112C5.54083 2.27499 5.76463 2.05117 6.04076 2.05117C6.3167 2.05141 6.5407 2.27514 6.54071 2.55112V4.75807L7.12145 4.17733C7.90737 3.39141 8.51812 2.77948 9.04735 2.33015C9.58103 1.87711 10.0658 1.55894 10.61 1.38205C11.5137 1.08851 12.4878 1.08844 13.3915 1.38205C13.9357 1.55897 14.4198 1.87781 14.9535 2.33084C15.4826 2.78012 16.0936 3.3909 16.8794 4.17664L17.6576 4.95487C17.8525 5.15007 17.8525 5.46678 17.6576 5.66197C17.4624 5.85691 17.1457 5.85689 16.9505 5.66197L16.1723 4.88374C15.3748 4.08625 14.7973 3.50923 14.3065 3.0925C13.8201 2.67961 13.4509 2.45348 13.0821 2.3336C12.3794 2.10527 11.6222 2.10537 10.9194 2.3336C10.5507 2.45345 10.1813 2.67974 9.69507 3.0925C9.20417 3.50927 8.62619 4.0868 7.82856 4.88443L7.24782 5.46517H9.45476C9.73073 5.46538 9.9547 5.68911 9.95471 5.96512C9.95453 6.24099 9.73062 6.46486 9.45476 6.46507L6.0746 6.46438Z" fill="black"/>
<path fill-rule="evenodd" clip-rule="evenodd" d="M4.57545 18.0205L4.46911 17.9086C3.43933 16.7689 3.43933 15.0294 4.46911 13.8897L4.57545 13.7778L9.5252 8.82807C10.6602 7.69315 12.4783 7.65767 13.656 8.72173L13.7678 8.82807L18.7176 13.7778L18.8239 13.8897C19.8879 15.0673 19.8525 16.8855 18.7176 18.0205L13.7678 22.9702L13.656 23.0766C12.5163 24.1063 10.7768 24.1063 9.63707 23.0766L9.5252 22.9702L4.57545 18.0205ZM10.2323 22.2631C11.0134 23.0441 12.2797 23.0441 13.0607 22.2631L18.0105 17.3134C18.7915 16.5323 18.7915 15.266 18.0105 14.4849L13.0607 9.53518C12.2797 8.75415 11.0134 8.75419 10.2323 9.53518L5.28256 14.4849C4.50151 15.266 4.50151 16.5323 5.28256 17.3134L10.2323 22.2631Z" fill="black"/>
</svg>
