<svg width="24" height="24" viewBox="0 0 24 24" fill="none" xmlns="http://www.w3.org/2000/svg">
<path d="M6.42812 6.96419C5.85705 6.96407 5.39441 6.50155 5.39439 5.93046V2.55099C5.3944 1.99871 5.842 1.5511 6.39428 1.5511C6.94634 1.55136 7.39416 1.99888 7.39417 2.55099V3.55364C8.05079 2.8978 8.59428 2.35926 9.0777 1.94884C9.63496 1.4758 10.1769 1.11223 10.8089 0.906828C11.8129 0.580664 12.895 0.579989 13.899 0.906137C14.5311 1.11156 15.0735 1.47567 15.6309 1.94884C16.1792 2.41442 16.8064 3.04296 17.5865 3.82295L18.3647 4.60118C18.7548 4.99164 18.7549 5.62494 18.3647 6.0154C17.9742 6.40562 17.341 6.40556 16.9505 6.0154L16.1722 5.23717C15.369 4.43396 14.8077 3.87467 14.3361 3.47423C13.8734 3.08143 13.562 2.89992 13.281 2.80856C12.6786 2.6129 12.0293 2.61359 11.4269 2.80925C11.146 2.90062 10.8343 3.08093 10.3718 3.47354C9.95545 3.82699 9.47105 4.30616 8.81046 4.96579L9.80828 4.9651C10.3604 4.96532 10.8082 5.41285 10.8082 5.96499C10.808 6.51699 10.3603 6.96465 9.80828 6.96488L6.42812 6.96419Z" fill="black"/>
<path fill-rule="evenodd" clip-rule="evenodd" d="M4.92897 18.0203L4.82263 17.9085C3.79285 16.7688 3.79285 15.0292 4.82263 13.8896L4.92897 13.7777L9.87871 8.82794C11.0137 7.69302 12.8319 7.65754 14.0095 8.7216L14.1214 8.82794L19.0711 13.7777L19.1774 13.8896C20.2415 15.0672 20.206 16.8854 19.0711 18.0203L14.1214 22.9701L14.0095 23.0764C12.8698 24.1062 11.1303 24.1061 9.99058 23.0764L9.87871 22.9701L4.92897 18.0203ZM11.2929 21.5559C11.6835 21.9463 12.3166 21.9464 12.7071 21.5559L17.6569 16.6061C18.0473 16.2156 18.0473 15.5824 17.6569 15.1919L12.7071 10.2422C12.3166 9.85165 11.6835 9.85169 11.2929 10.2422L6.34318 15.1919C5.95266 15.5824 5.95266 16.2156 6.34318 16.6061L11.2929 21.5559Z" fill="black"/>
</svg>
