<svg width="24" height="24" viewBox="0 0 24 24" fill="none" xmlns="http://www.w3.org/2000/svg">
<path fill-rule="evenodd" clip-rule="evenodd" d="M13.2501 9.72941L13.2501 9.70023V3.79984L13.2501 3.77066V3.77062V3.77061C13.25 3.65456 13.2499 3.50449 13.2608 3.37015C13.2706 3.24976 13.2926 3.0819 13.3585 2.89652L13.4405 2.70511L13.5079 2.58499C13.652 2.34989 13.8499 2.15201 14.085 2.00784L14.2051 1.94046L14.3966 1.85843C14.5819 1.79253 14.7498 1.77061 14.8702 1.76077C15.0045 1.74982 15.1546 1.74993 15.2707 1.75002L15.2999 1.75003H21.2003L21.2294 1.75002C21.3455 1.74993 21.4956 1.74982 21.63 1.76077C21.7503 1.77061 21.9182 1.79253 22.1036 1.85843L22.295 1.94046C22.5831 2.0873 22.8242 2.31085 22.9923 2.58499L23.0596 2.70511C23.1916 2.96417 23.2262 3.20947 23.2393 3.37015C23.2503 3.50451 23.2502 3.6546 23.2501 3.77066V3.77069L23.2501 3.79984V9.70023L23.2501 9.72937V9.7294C23.2502 9.84546 23.2503 9.99555 23.2393 10.1299C23.2262 10.2906 23.1916 10.5359 23.0596 10.795C22.8919 11.1241 22.6241 11.3919 22.295 11.5596C22.0359 11.6916 21.7906 11.7262 21.63 11.7393C21.4956 11.7502 21.3456 11.7501 21.2295 11.75H21.2295L21.2003 11.75H15.2999L15.2707 11.75H15.2706H15.2706C15.1546 11.7501 15.0045 11.7502 14.8702 11.7393C14.7095 11.7262 14.4642 11.6916 14.2051 11.5596C13.876 11.3919 13.6082 11.1241 13.4405 10.795C13.3085 10.5359 13.2739 10.2906 13.2608 10.1299C13.2499 9.99557 13.25 9.8455 13.2501 9.72946V9.72945V9.72941ZM8.2471 21.4268C8.2471 21.4268 8.24793 21.4254 8.24808 21.4229V21.42C8.24758 21.4243 8.2471 21.4268 8.2471 21.4268ZM3.25198 21.4229C3.25213 21.4254 3.25296 21.4268 3.25296 21.4268C3.25296 21.4268 3.25249 21.4243 3.25198 21.42V21.4229ZM3.25003 20.75H8.25003V4.25004H3.25003V20.75ZM2.57718 20.7481H2.58011C2.57577 20.7476 2.57328 20.7471 2.57327 20.7471C2.57327 20.7471 2.57468 20.7479 2.57718 20.7481ZM8.91995 20.7481H8.92288C8.92538 20.7479 8.92679 20.7471 8.92679 20.7471C8.92678 20.7471 8.92429 20.7476 8.91995 20.7481ZM8.92679 4.25297C8.92679 4.25297 8.92538 4.25214 8.92288 4.252H8.91995L8.92457 4.25261L8.92679 4.25297ZM2.57718 4.252C2.57468 4.25214 2.57327 4.25297 2.57327 4.25297L2.57329 4.25297C2.5735 4.25293 2.57596 4.25248 2.58011 4.252H2.57718ZM0.750016 21.2294L0.750031 21.2002V3.79985L0.750016 3.77067C0.749929 3.65461 0.749815 3.50452 0.760773 3.37016C0.77061 3.24977 0.792535 3.08191 0.85843 2.89653L0.940461 2.70512L1.00784 2.585C1.15201 2.3499 1.34989 2.15202 1.58499 2.00786L1.70511 1.94047L1.89652 1.85844C2.0819 1.79255 2.24976 1.77062 2.37015 1.76078C2.50451 1.74983 2.6546 1.74994 2.77065 1.75003L2.79984 1.75004H8.70023L8.72941 1.75003C8.84547 1.74994 8.99555 1.74983 9.12991 1.76078C9.2503 1.77062 9.41816 1.79255 9.60355 1.85844L9.79495 1.94047C10.083 2.08731 10.3241 2.31086 10.4922 2.585L10.5596 2.70512C10.6916 2.96418 10.7262 3.20948 10.7393 3.37016C10.7502 3.50449 10.7501 3.65455 10.75 3.7706V3.77061V3.77065L10.75 3.79985V21.2002L10.75 21.2294V21.2295C10.7501 21.3455 10.7502 21.4956 10.7393 21.6299C10.7262 21.7906 10.6916 22.0359 10.5596 22.295C10.3919 22.6241 10.1241 22.8919 9.79495 23.0596C9.53589 23.1916 9.29059 23.2262 9.12991 23.2393C8.99555 23.2503 8.84546 23.2501 8.7294 23.2501H8.72937L8.70023 23.25H2.79984L2.77069 23.2501H2.77066C2.6546 23.2501 2.50451 23.2503 2.37015 23.2393C2.20947 23.2262 1.96417 23.1916 1.70511 23.0596C1.376 22.8919 1.10821 22.6241 0.940461 22.295C0.808462 22.0359 0.773902 21.7906 0.760773 21.6299C0.749815 21.4956 0.749929 21.3455 0.750016 21.2294ZM22.7508 15C22.7508 14.3099 22.1909 13.7503 21.5008 13.75C20.8104 13.75 20.2508 14.3097 20.2508 15V17.0997C20.2508 17.5402 20.2495 17.796 20.2342 17.9834C20.2278 18.061 20.2189 18.104 20.2146 18.1241C20.1929 18.1616 20.1623 18.1921 20.1248 18.2139C20.105 18.2181 20.0618 18.2271 19.9842 18.2334C19.7968 18.2487 19.5408 18.25 19.1004 18.25H17.0896L17.3699 17.9698C17.8578 17.4817 17.8578 16.6903 17.3699 16.2022C16.8818 15.714 16.0895 15.714 15.6014 16.2022L13.2117 18.5918C12.7102 19.0933 12.7102 19.9067 13.2117 20.4082L15.6014 22.7979C16.0895 23.286 16.8818 23.286 17.3699 22.7979C17.8577 22.3098 17.8578 21.5184 17.3699 21.0303L17.0896 20.75H19.1004L19.1483 20.75C19.5295 20.7501 19.8872 20.7501 20.1873 20.7256C20.5146 20.6989 20.883 20.6366 21.2488 20.4502C21.766 20.1866 22.1874 19.7662 22.451 19.2491C22.6373 18.8833 22.6996 18.5148 22.7264 18.1875C22.7508 17.8879 22.7508 17.5311 22.7508 17.1505L22.7508 17.1006V15Z" fill="black"/>
</svg>
