<svg width="24" height="24" viewBox="0 0 24 24" fill="none" xmlns="http://www.w3.org/2000/svg">
<path fill-rule="evenodd" clip-rule="evenodd" d="M21.2203 22.75H14.5298C14.4077 22.7501 14.2752 22.7501 14.1606 22.7407C14.0308 22.7301 13.8594 22.7039 13.6825 22.6138C13.4473 22.4939 13.2561 22.3027 13.1363 22.0675C13.0462 21.8907 13.0199 21.7193 13.0093 21.5895C13 21.4749 13 21.3424 13 21.2203V14.5298C13 14.4077 13 14.2752 13.0093 14.1606C13.0199 14.0308 13.0462 13.8594 13.1363 13.6825C13.2561 13.4473 13.4473 13.2561 13.6825 13.1363C13.8594 13.0462 14.0308 13.0199 14.1606 13.0093C14.2752 13 14.4076 13 14.5298 13H21.2202C21.3424 13 21.4749 13 21.5895 13.0093C21.7193 13.0199 21.8907 13.0462 22.0675 13.1363C22.3027 13.2561 22.4939 13.4473 22.6138 13.6825C22.7039 13.8594 22.7301 14.0308 22.7407 14.1606C22.7501 14.2752 22.7501 14.4077 22.75 14.5298V21.2202C22.7501 21.3424 22.7501 21.4749 22.7407 21.5895C22.7301 21.7193 22.7039 21.8907 22.6138 22.0675C22.4939 22.3027 22.3027 22.4939 22.0675 22.6138C21.8907 22.7039 21.7193 22.7301 21.5895 22.7407C21.4749 22.7501 21.3424 22.7501 21.2203 22.75ZM21.25 21.25V14.5H14.5L14.5 21.25H21.25Z" fill="black"/>
<path fill-rule="evenodd" clip-rule="evenodd" d="M9.47022 22.75H2.77979C2.65767 22.75 2.52513 22.7501 2.41053 22.7407C2.28078 22.7301 2.10935 22.7039 1.93252 22.6138C1.69732 22.4939 1.50609 22.3027 1.38625 22.0675C1.29615 21.8907 1.26991 21.7192 1.25931 21.5895C1.24994 21.4748 1.24997 21.3424 1.25 21.2203L1.25 3.77978C1.24997 3.65763 1.24994 3.52517 1.25931 3.41053C1.26991 3.28078 1.29615 3.10935 1.38625 2.93252C1.50609 2.69732 1.69732 2.50609 1.93252 2.38625C2.10935 2.29615 2.28078 2.26991 2.41053 2.25931C2.52516 2.24994 2.65758 2.24997 2.77972 2.25H9.47024C9.59238 2.24997 9.72485 2.24994 9.83948 2.25931C9.96924 2.26991 10.1407 2.29615 10.3175 2.38625C10.5527 2.50609 10.7439 2.69732 10.8638 2.93252C10.9539 3.10935 10.9801 3.28078 10.9907 3.41053C11.0001 3.52518 11 3.65763 11 3.77979V21.2202C11 21.3424 11.0001 21.4748 10.9907 21.5895C10.9801 21.7192 10.9539 21.8907 10.8638 22.0675C10.7439 22.3027 10.5527 22.4939 10.3175 22.6138C10.1407 22.7039 9.96924 22.7301 9.83948 22.7407C9.72488 22.7501 9.59234 22.75 9.47022 22.75ZM9.49999 21.25V3.75002H2.75002L2.75002 21.25H9.49999Z" fill="black"/>
<path d="M21.5001 10.75C21.9143 10.75 22.2501 10.4142 22.2501 10L22.25 7.87096C22.25 7.47562 22.25 7.13457 22.2271 6.85365C22.2028 6.55715 22.1493 6.26224 22.0047 5.97847C21.789 5.55512 21.4448 5.21092 21.0215 4.99521C20.7377 4.85062 20.4428 4.79714 20.1463 4.77291C19.8653 4.74996 19.5243 4.74997 19.1289 4.74998L15.8821 4.74999L17.0162 3.61587C17.3091 3.32297 17.3091 2.8481 17.0162 2.55521C16.7233 2.26231 16.2484 2.26231 15.9555 2.55521L13.5653 4.94546C13.259 5.25172 13.259 5.74826 13.5653 6.05451L15.9555 8.44477C16.2484 8.73766 16.7233 8.73766 17.0162 8.44477C17.3091 8.15187 17.3091 7.677 17.0162 7.38411L15.8821 6.24999H19.1C19.5324 6.24999 19.8116 6.25057 20.0241 6.26793C20.2279 6.28458 20.3034 6.31283 20.3405 6.33173C20.4816 6.40363 20.5963 6.51836 20.6682 6.65948C20.6871 6.69656 20.7154 6.7721 20.732 6.97584C20.7494 7.18834 20.75 7.46754 20.75 7.89994L20.7501 10C20.7501 10.4143 21.0859 10.75 21.5001 10.75Z" fill="black"/>
</svg>
