<svg width="24" height="24" viewBox="0 0 24 24" fill="none" xmlns="http://www.w3.org/2000/svg">
<path fill-rule="evenodd" clip-rule="evenodd" d="M9.72055 22.275C9.89324 22.275 10.0393 22.275 10.1589 22.2652C10.2843 22.255 10.4048 22.2326 10.5196 22.1742C10.6936 22.0855 10.8351 21.944 10.9238 21.7699C10.9823 21.6552 11.0046 21.5347 11.0148 21.4093C11.0246 21.2896 11.0246 21.1436 11.0246 20.9709L11.0246 4.02904C11.0246 3.85634 11.0246 3.71033 11.0148 3.59066C11.0046 3.46527 10.9823 3.34478 10.9238 3.23003C10.8351 3.05598 10.6936 2.91448 10.5196 2.82579C10.4048 2.76733 10.2843 2.74499 10.1589 2.73475C10.0393 2.72497 9.89329 2.72497 9.72063 2.72498H3.02868C2.85602 2.72497 2.70994 2.72497 2.5903 2.73475C2.4649 2.74499 2.34442 2.76733 2.22967 2.82579C2.05562 2.91448 1.91411 3.05598 1.82543 3.23003C1.76696 3.34478 1.74462 3.46527 1.73438 3.59066C1.7246 3.71032 1.7246 3.85632 1.72461 4.029V20.9709C1.7246 21.1436 1.7246 21.2896 1.73438 21.4093C1.74462 21.5347 1.76696 21.6552 1.82543 21.7699C1.91411 21.944 2.05562 22.0855 2.22967 22.1742C2.34442 22.2326 2.4649 22.255 2.5903 22.2652C2.70996 22.275 2.85597 22.275 3.02866 22.275H9.72055ZM10.2699 21.6841C10.2456 21.6965 10.2055 21.7096 10.1141 21.717C10.0195 21.7248 9.89616 21.725 9.70961 21.725H3.03961C2.85305 21.725 2.72968 21.7248 2.63508 21.717C2.5437 21.7096 2.50366 21.6965 2.47936 21.6841C2.4088 21.6482 2.35143 21.5908 2.31548 21.5202C2.3031 21.4959 2.29002 21.4559 2.28255 21.3645C2.27482 21.2699 2.27461 21.1465 2.27461 20.96V4.03997C2.27461 3.85342 2.27482 3.73004 2.28255 3.63545C2.29002 3.54407 2.3031 3.50402 2.31548 3.47973C2.35143 3.40917 2.4088 3.3518 2.47936 3.31585C2.50366 3.30347 2.5437 3.29038 2.63508 3.28292C2.72968 3.27519 2.85305 3.27498 3.03961 3.27498H9.70961C9.89616 3.27498 10.0195 3.27519 10.1141 3.28292C10.2055 3.29038 10.2456 3.30347 10.2699 3.31585C10.3404 3.3518 10.3978 3.40917 10.4337 3.47973C10.4461 3.50402 10.4592 3.54407 10.4667 3.63545C10.4744 3.73004 10.4746 3.85342 10.4746 4.03998L10.4746 20.96C10.4746 21.1465 10.4744 21.2699 10.4667 21.3645C10.4592 21.4559 10.4461 21.4959 10.4337 21.5202C10.3978 21.5908 10.3404 21.6482 10.2699 21.6841Z" fill="black"/>
<path d="M20.9705 22.275C21.1432 22.275 21.2893 22.275 21.4089 22.2652C21.5343 22.255 21.6548 22.2326 21.7696 22.1742C21.9436 22.0855 22.0851 21.944 22.1738 21.7699C22.2323 21.6552 22.2546 21.5347 22.2648 21.4093C22.2746 21.2896 22.2746 21.1436 22.2746 20.9709V14.529C22.2746 14.3564 22.2746 14.2103 22.2648 14.0907C22.2546 13.9653 22.2323 13.8448 22.1738 13.73C22.0851 13.556 21.9436 13.4145 21.7696 13.3258C21.6548 13.2673 21.5343 13.245 21.4089 13.2347C21.2893 13.225 21.1432 13.225 20.9705 13.225H14.5287C14.356 13.225 14.21 13.225 14.0903 13.2347C13.9649 13.245 13.8444 13.2673 13.7297 13.3258C13.5556 13.4145 13.4141 13.556 13.3254 13.73C13.267 13.8448 13.2446 13.9653 13.2344 14.0907C13.2246 14.2103 13.2246 14.3563 13.2246 14.529V20.9709C13.2246 21.1436 13.2246 21.2896 13.2344 21.4093C13.2446 21.5347 13.267 21.6552 13.3254 21.7699C13.4141 21.944 13.5556 22.0855 13.7297 22.1742C13.8444 22.2326 13.9649 22.255 14.0903 22.2652C14.21 22.275 14.3559 22.275 14.5286 22.275H20.9705Z" fill="black"/>
<path d="M21.4996 10.275C21.6515 10.275 21.7746 10.1518 21.7746 9.99997L21.7745 7.88776C21.7745 7.47801 21.7745 7.15364 21.7531 6.8923C21.7313 6.62517 21.6858 6.39973 21.581 6.19408C21.4108 5.8601 21.1393 5.58857 20.8053 5.4184C20.5996 5.31361 20.3742 5.26811 20.1071 5.24629C19.8457 5.22494 19.5214 5.22494 19.1117 5.22494H14.7348L16.6798 3.27995C16.7872 3.17255 16.7872 2.99843 16.6798 2.89104C16.5724 2.78364 16.3983 2.78364 16.2909 2.89104L13.9006 5.28129C13.7799 5.40205 13.7799 5.59784 13.9006 5.71859L16.2909 8.10884C16.3983 8.21624 16.5724 8.21624 16.6798 8.10884C16.7872 8.00145 16.7872 7.82733 16.6798 7.71994L14.7348 5.77494H19.0995C19.5241 5.77494 19.826 5.77515 20.0623 5.79446C20.2954 5.81351 20.4404 5.84976 20.5556 5.90845C20.7861 6.02589 20.9735 6.21329 21.091 6.44378C21.1497 6.55898 21.1859 6.70399 21.205 6.9371C21.2243 7.17343 21.2245 7.47532 21.2245 7.89988L21.2246 9.99998C21.2246 10.1519 21.3477 10.275 21.4996 10.275Z" fill="black"/>
</svg>
