<svg width="24" height="24" viewBox="0 0 24 24" fill="none" xmlns="http://www.w3.org/2000/svg">
<path d="M5.99022 5.83859C5.69746 5.54573 5.69749 5.07081 5.99022 4.77793L6.76845 3.9997C7.55143 3.21674 8.17073 2.59753 8.70954 2.14009C9.25506 1.677 9.76765 1.33552 10.3558 1.14434C11.3098 0.834381 12.3379 0.834365 13.2919 1.14434C13.8802 1.33551 14.3932 1.67621 14.9388 2.1394C15.4778 2.59693 16.0967 3.21719 16.8799 4.00039L17.0339 4.15438V2.55096C17.0339 2.13683 17.3698 1.80117 17.7838 1.80104C18.1981 1.80104 18.5338 2.13675 18.5338 2.55096V5.93043C18.5337 6.36348 18.1831 6.71412 17.75 6.71419L14.3698 6.71488C13.9558 6.71478 13.62 6.37901 13.6199 5.96496C13.6199 5.55081 13.9557 5.21514 14.3698 5.21504H15.9733L15.8193 5.06105C15.0186 4.26035 14.4493 3.69159 13.968 3.28293C13.4933 2.87999 13.1528 2.67659 12.8279 2.57098C12.1753 2.35903 11.4724 2.35897 10.8198 2.57098C10.4948 2.67658 10.1544 2.87998 9.67974 3.28293C9.19847 3.69152 8.62956 4.25994 7.82911 5.06036L7.05088 5.83859C6.75802 6.13131 6.28308 6.13132 5.99022 5.83859Z" fill="black"/>
<path d="M4.75209 18.0203C3.58052 16.8487 3.58052 14.9492 4.75209 13.7777L9.70184 8.82791C10.8734 7.6564 12.7729 7.65636 13.9445 8.82791L18.8942 13.7777C20.0657 14.9492 20.0657 16.8487 18.8942 18.0203L13.9445 22.97C12.7729 24.1416 10.8734 24.1416 9.70184 22.97L4.75209 18.0203Z" fill="black"/>
</svg>
