<svg width="24" height="24" viewBox="0 0 24 24" fill="none" xmlns="http://www.w3.org/2000/svg">
<path d="M5.9902 6.01545C5.5998 5.62496 5.59984 4.99174 5.9902 4.60123L6.76843 3.823C7.54853 3.04292 8.17561 2.41448 8.72403 1.94889C9.28149 1.47566 9.82371 1.1116 10.4559 0.906185C11.46 0.580005 12.5419 0.580616 13.546 0.906876C14.1781 1.1123 14.7198 1.47574 15.2772 1.94889C15.7607 2.35933 16.304 2.89777 16.9607 3.55369V2.55104C16.9607 1.99884 17.4084 1.55128 17.9606 1.55114C18.5129 1.55114 18.9605 1.99875 18.9605 2.55104V5.93051C18.9605 6.50163 18.4979 6.96417 17.9268 6.96424L14.5466 6.96493C13.9945 6.96483 13.5468 6.51716 13.5467 5.96504C13.5467 5.41281 13.9944 4.96524 14.5466 4.96514L15.5444 4.96583C14.8837 4.30612 14.3995 3.82706 13.9831 3.47359C13.5205 3.08081 13.209 2.90067 12.928 2.8093C12.3255 2.61355 11.6764 2.61291 11.0739 2.80861C10.7928 2.89995 10.4816 3.08137 10.0188 3.47428C9.54711 3.87473 8.98597 4.43392 8.18265 5.23721L7.40441 6.01545C7.01392 6.40579 6.38069 6.4058 5.9902 6.01545Z" fill="black"/>
<path d="M4.92885 18.0204C3.75728 16.8488 3.75728 14.9493 4.92885 13.7777L9.8786 8.82799C11.0502 7.65647 12.9497 7.65644 14.1212 8.82799L19.071 13.7777C20.2425 14.9493 20.2425 16.8488 19.071 18.0204L14.1212 22.9701C12.9497 24.1417 11.0502 24.1416 9.8786 22.9701L4.92885 18.0204Z" fill="black"/>
</svg>
