<svg width="24" height="24" viewBox="0 0 24 24" fill="none" xmlns="http://www.w3.org/2000/svg">
<path d="M5.99014 5.48504C5.89263 5.38745 5.89266 5.2291 5.99014 5.13149L6.76837 4.35326C7.55727 3.56439 8.16009 2.96175 8.67977 2.52058C9.20162 2.07761 9.6571 1.78273 10.1575 1.62013C11.0109 1.34292 11.9302 1.3422 12.7836 1.61944C13.2841 1.78208 13.7394 2.07815 14.2614 2.52127C14.781 2.9625 15.3838 3.56501 16.1727 4.35395L17.1802 5.36144V2.55097C17.1802 2.41298 17.2923 2.30113 17.4302 2.30099C17.5683 2.30099 17.6802 2.41289 17.6802 2.55097V5.93044C17.6802 6.08735 17.5533 6.21418 17.3964 6.21425L14.0162 6.21494C13.8783 6.21484 13.7664 6.10287 13.7662 5.96497C13.7662 5.82696 13.8782 5.71509 14.0162 5.71499H16.8267L15.8192 4.7075C15.0243 3.91263 14.438 3.32671 13.9375 2.90176C13.4394 2.47897 13.0422 2.22934 12.6296 2.09521C11.8765 1.8505 11.0647 1.8512 10.3115 2.0959C9.89886 2.23003 9.50114 2.47883 9.00294 2.90176C8.50244 3.32665 7.91664 3.91212 7.12192 4.70681L6.34369 5.48504C6.24609 5.5825 6.08773 5.5825 5.99014 5.48504Z" fill="black"/>
<path d="M4.39846 18.0203C3.22688 16.8487 3.22688 14.9492 4.39846 13.7777L9.3482 8.82792C10.5198 7.6564 12.4193 7.65637 13.5908 8.82792L18.5406 13.7777C19.7121 14.9492 19.7121 16.8487 18.5406 18.0203L13.5908 22.9701C12.4193 24.1416 10.5198 24.1416 9.3482 22.9701L4.39846 18.0203Z" fill="black"/>
</svg>
