<svg width="24" height="24" viewBox="0 0 24 24" fill="none" xmlns="http://www.w3.org/2000/svg">
<path d="M6.428 6.96419C5.85693 6.96407 5.39429 6.50155 5.39427 5.93046V2.55099C5.39428 1.99871 5.84189 1.5511 6.39416 1.5511C6.94622 1.55136 7.39405 1.99888 7.39406 2.55099V3.55364C8.05067 2.8978 8.59416 2.35926 9.07758 1.94884C9.63484 1.4758 10.1768 1.11223 10.8087 0.906828C11.8128 0.580664 12.8949 0.579989 13.8989 0.906137C14.531 1.11156 15.0734 1.47567 15.6307 1.94884C16.1791 2.41442 16.8063 3.04296 17.5863 3.82295L18.3646 4.60118C18.7547 4.99164 18.7547 5.62494 18.3646 6.0154C17.9741 6.40562 17.3408 6.40556 16.9504 6.0154L16.1721 5.23717C15.3689 4.43396 14.8076 3.87467 14.336 3.47423C13.8733 3.08143 13.5619 2.89992 13.2809 2.80856C12.6785 2.6129 12.0291 2.61359 11.4268 2.80925C11.1458 2.90062 10.8341 3.08093 10.3716 3.47354C9.95534 3.82699 9.47093 4.30616 8.81034 4.96579L9.80816 4.9651C10.3602 4.96532 10.808 5.41285 10.8081 5.96499C10.8079 6.51699 10.3602 6.96465 9.80816 6.96488L6.428 6.96419Z" fill="black"/>
<path d="M4.92885 18.0203C3.75728 16.8488 3.75728 14.9493 4.92885 13.7777L9.8786 8.82794C11.0502 7.65643 12.9497 7.65639 14.1212 8.82794L19.071 13.7777C20.2425 14.9492 20.2425 16.8488 19.071 18.0203L14.1212 22.9701C12.9497 24.1416 11.0502 24.1416 9.8786 22.9701L4.92885 18.0203Z" fill="black"/>
</svg>
