<svg width="25" height="24" viewBox="0 0 25 24" fill="none" xmlns="http://www.w3.org/2000/svg">
<path d="M23.8279 3.88996C24.0845 2.93686 23.3665 2 22.3795 2H21.8753C21.2547 2 20.6981 2.38224 20.4753 2.96153L16.4221 13.5H20.1684L20.2291 13.4997C20.2912 13.4992 20.367 13.4987 20.4574 13.5002L21.2371 13.5132L23.8279 3.88996Z" fill="black"/>
<path d="M14.0497 3.44235C14.0187 2.63695 13.3568 2 12.5508 2H11.9949C11.2111 2 10.5595 2.60346 10.4994 3.38495L9.72129 13.5H14.4365L14.0497 3.44235Z" fill="black"/>
<path d="M3.58855 2.96154C3.36575 2.38224 2.80919 2 2.18853 2H1.68435C0.697322 2 -0.0206788 2.93686 0.235928 3.88996L2.82681 13.5132L3.60645 13.5002C3.69688 13.4987 3.77269 13.4992 3.83472 13.4997L3.8368 13.4997L3.89545 13.5L3.90085 13.5H7.64181L3.58855 2.96154Z" fill="black"/>
<path fill-rule="evenodd" clip-rule="evenodd" d="M2.05456 15.6755C2.48139 15.3198 3.0194 15.125 3.575 15.125H20.4888C21.0444 15.125 21.5825 15.3198 22.0093 15.6755L23.2093 16.6755C24.3487 17.625 24.3487 19.375 23.2093 20.3245L22.0093 21.3245C21.5825 21.6802 21.0444 21.875 20.4888 21.875H3.575C3.0194 21.875 2.48139 21.6802 2.05456 21.3245L0.854562 20.3245C-0.284856 19.375 -0.284852 17.625 0.854563 16.6755L2.05456 15.6755ZM21.0319 19.25L8.53193 19.25C8.11772 19.25 7.78193 18.9142 7.78193 18.5C7.78193 18.0858 8.11772 17.75 8.53193 17.75L21.0319 17.75C21.4461 17.75 21.7819 18.0858 21.7819 18.5C21.7819 18.9142 21.4461 19.25 21.0319 19.25ZM5.78193 17.75C5.36772 17.75 5.03193 18.0858 5.03193 18.5C5.03193 18.9142 5.36772 19.25 5.78193 19.25H6.03193C6.44614 19.25 6.78193 18.9142 6.78193 18.5C6.78193 18.0858 6.44614 17.75 6.03193 17.75H5.78193ZM3.03193 17.75C2.61772 17.75 2.28193 18.0858 2.28193 18.5C2.28193 18.9142 2.61772 19.25 3.03193 19.25H3.28193C3.69614 19.25 4.03193 18.9142 4.03193 18.5C4.03193 18.0858 3.69614 17.75 3.28193 17.75H3.03193Z" fill="black"/>
</svg>
