<svg width="25" height="24" viewBox="0 0 25 24" fill="none" xmlns="http://www.w3.org/2000/svg">
<path d="M4.7508 18.2498C4.33658 18.2498 4.0008 18.5856 4.0008 18.9998C4.0008 19.414 4.33658 19.7498 4.7508 19.7498H5.2508C5.66501 19.7498 6.0008 19.414 6.0008 18.9998C6.0008 18.5856 5.66501 18.2498 5.2508 18.2498H4.7508Z" fill="black"/>
<path d="M7.0008 18.9998C7.0008 18.5856 7.33658 18.2498 7.7508 18.2498H8.2508C8.66501 18.2498 9.0008 18.5856 9.0008 18.9998C9.0008 19.414 8.66501 19.7498 8.2508 19.7498H7.7508C7.33658 19.7498 7.0008 19.414 7.0008 18.9998Z" fill="black"/>
<path d="M10.7508 18.2498C10.3366 18.2498 10.0008 18.5856 10.0008 18.9998C10.0008 19.414 10.3366 19.7498 10.7508 19.7498L19.7508 19.7498C20.165 19.7498 20.5008 19.414 20.5008 18.9998C20.5008 18.5856 20.165 18.2498 19.7508 18.2498L10.7508 18.2498Z" fill="black"/>
<path fill-rule="evenodd" clip-rule="evenodd" d="M23.5753 1.79231C24.2419 1.97179 24.6368 2.65768 24.4573 3.3243L21.3096 15.0159C21.3975 15.0576 21.4832 15.1041 21.5663 15.155C21.8488 15.3281 22.0807 15.5609 22.2853 15.7664L22.3376 15.8188L22.9676 16.4488C23.2387 16.7199 23.493 16.9741 23.6888 17.2048C23.9015 17.4553 24.1179 17.7593 24.2449 18.15C24.4243 18.7023 24.4243 19.2973 24.2449 19.8496C24.1179 20.2403 23.9015 20.5443 23.6888 20.7947C23.4929 21.0255 23.2388 21.2796 22.9676 21.5508L22.3376 22.1807L22.2853 22.2332C22.0807 22.4386 21.8489 22.6714 21.5663 22.8445C21.3203 22.9953 21.052 23.1064 20.7714 23.1738C20.4493 23.2511 20.1207 23.2505 19.8308 23.2499L19.7567 23.2498H4.7449L4.67082 23.2499C4.38084 23.2505 4.05232 23.2511 3.73013 23.1738C3.44953 23.1064 3.18129 22.9953 2.93524 22.8445C2.65272 22.6714 2.4209 22.4386 2.21627 22.2332L2.16396 22.1807L1.53401 21.5508C1.26282 21.2796 1.00865 21.0255 0.812731 20.7947C0.600121 20.5443 0.383644 20.2403 0.256703 19.8496C0.077244 19.2973 0.077244 18.7023 0.256703 18.15C0.383644 17.7593 0.600121 17.4553 0.812731 17.2048C1.00867 16.974 1.26279 16.72 1.53401 16.4488L2.16396 15.8188L2.21627 15.7664C2.42089 15.5609 2.65272 15.3281 2.93524 15.155C3.01814 15.1042 3.10357 15.0579 3.19113 15.0163L0.0432913 3.3243C-0.136183 2.65768 0.258726 1.97179 0.925345 1.79231C1.59196 1.61284 2.27786 2.00775 2.45733 2.67437L5.7084 14.7498H11.5006V2.99957C11.5006 2.30922 12.0602 1.74957 12.7506 1.74957C13.4409 1.74957 14.0006 2.30922 14.0006 2.99957V14.7498H18.7922L22.0433 2.67437C22.2228 2.00775 22.9087 1.61284 23.5753 1.79231ZM4.30895 17.2579C4.28678 17.2637 4.2655 17.2725 4.24572 17.2841C4.24013 17.2884 4.2263 17.2997 4.20121 17.3226C4.14335 17.3754 4.06914 17.4492 3.93173 17.5866L3.33173 18.1866C3.02013 18.4982 2.84028 18.6794 2.71858 18.8228C2.66496 18.8859 2.63977 18.9225 2.6298 18.9382C2.61955 18.9786 2.61955 19.0209 2.6298 19.0613C2.63977 19.077 2.66496 19.1136 2.71858 19.1768C2.84028 19.3201 3.02013 19.5014 3.33173 19.813L3.93173 20.413C4.06914 20.5504 4.14335 20.6242 4.20121 20.677C4.2263 20.6999 4.24014 20.7111 4.24572 20.7155C4.2655 20.7271 4.28678 20.7359 4.30895 20.7417C4.31598 20.7425 4.33374 20.7444 4.36767 20.7459C4.44592 20.7495 4.55058 20.7498 4.7449 20.7498H19.7567C19.951 20.7498 20.0557 20.7495 20.1339 20.7459C20.1678 20.7444 20.1856 20.7425 20.1926 20.7417C20.2148 20.7359 20.2361 20.7271 20.2559 20.7155C20.2614 20.7111 20.2753 20.6999 20.3004 20.677C20.3582 20.6242 20.4324 20.5504 20.5698 20.413L21.1698 19.813C21.4814 19.5014 21.6613 19.3201 21.783 19.1768C21.8366 19.1136 21.8618 19.077 21.8718 19.0613C21.882 19.0209 21.882 18.9786 21.8718 18.9382C21.8618 18.9225 21.8366 18.8859 21.783 18.8228C21.6613 18.6794 21.4814 18.4982 21.1698 18.1866L20.5698 17.5866C20.4324 17.4492 20.3582 17.3754 20.3004 17.3226C20.2753 17.2997 20.2614 17.2884 20.2558 17.2841C20.2361 17.2725 20.2148 17.2637 20.1926 17.2579C20.1856 17.257 20.1678 17.2552 20.1339 17.2537C20.0557 17.2501 19.951 17.2498 19.7567 17.2498H4.7449C4.55058 17.2498 4.44592 17.2501 4.36767 17.2537C4.33374 17.2552 4.31598 17.257 4.30895 17.2579Z" fill="black"/>
</svg>
