<svg width="24" height="24" viewBox="0 0 24 24" fill="none" xmlns="http://www.w3.org/2000/svg">
<path fill-rule="evenodd" clip-rule="evenodd" d="M22.3472 2.25C23.1697 2.25 23.7681 3.03072 23.5542 3.82497L20.6802 14.5H16.273L20.6764 3.05128C20.862 2.56854 21.3258 2.25 21.843 2.25H22.3472ZM19.5306 13L22.021 3.75H22.0147L18.457 13H19.5306Z" fill="black"/>
<path fill-rule="evenodd" clip-rule="evenodd" d="M12.5185 2.25C13.1902 2.25 13.7418 2.78079 13.7676 3.45196L14.1925 14.5H9.86281L10.7163 3.40413C10.7664 2.75288 11.3095 2.25 11.9627 2.25H12.5185ZM12.6337 13L12.2779 3.75H12.1942L11.4826 13H12.6337Z" fill="black"/>
<path fill-rule="evenodd" clip-rule="evenodd" d="M2.15624 2.25C2.67345 2.25 3.13725 2.56853 3.32292 3.05128L7.72628 14.5H3.31909L0.445041 3.82497C0.231203 3.03072 0.829534 2.25 1.65206 2.25H2.15624ZM1.97827 3.75H1.98454L5.54223 13H4.46865L1.97827 3.75Z" fill="black"/>
<path fill-rule="evenodd" clip-rule="evenodd" d="M3.84047 15.75C3.54544 15.75 3.35997 15.7499 3.18061 15.7879C3.02175 15.8215 2.86835 15.877 2.72481 15.9529C2.56273 16.0386 2.42026 16.1573 2.19364 16.3462L2.04275 16.472C1.67074 16.782 1.37893 17.0252 1.16393 17.2385C0.945532 17.4552 0.786577 17.6598 0.699062 17.8992C0.55726 18.2872 0.55726 18.7128 0.699062 19.1008C0.786577 19.3402 0.945532 19.5448 1.16392 19.7615C1.37893 19.9748 1.67073 20.218 2.04274 20.528L2.19365 20.6538C2.42027 20.8427 2.56273 20.9614 2.72481 21.0471C2.86835 21.123 3.02175 21.1785 3.18061 21.2121C3.35997 21.2501 3.54544 21.25 3.84047 21.25H20.1588C20.4538 21.25 20.6393 21.2501 20.8187 21.2121C20.9775 21.1785 21.1309 21.123 21.2745 21.0471C21.4365 20.9614 21.579 20.8427 21.8056 20.6538L21.9565 20.528C22.3285 20.218 22.6204 19.9748 22.8353 19.7615C23.0537 19.5448 23.2127 19.3402 23.3002 19.1008C23.442 18.7128 23.442 18.2872 23.3002 17.8992C23.2127 17.6598 23.0537 17.4552 22.8353 17.2385C22.6203 17.0252 22.3285 16.782 21.9565 16.472L21.8056 16.3462C21.579 16.1574 21.4365 16.0386 21.2745 15.9529C21.1309 15.877 20.9775 15.8215 20.8187 15.7879C20.6393 15.7499 20.4538 15.75 20.1588 15.75H3.84047ZM8.49964 19.25L20.9996 19.25C21.4139 19.25 21.7496 18.9142 21.7496 18.5C21.7496 18.0858 21.4139 17.75 20.9996 17.75L8.49964 17.75C8.08543 17.75 7.74964 18.0858 7.74964 18.5C7.74964 18.9142 8.08543 19.25 8.49964 19.25ZM4.99964 18.5C4.99964 18.0858 5.33543 17.75 5.74964 17.75H5.99964C6.41385 17.75 6.74964 18.0858 6.74964 18.5C6.74964 18.9142 6.41385 19.25 5.99964 19.25H5.74964C5.33543 19.25 4.99964 18.9142 4.99964 18.5ZM2.24964 18.5C2.24964 18.0858 2.58543 17.75 2.99964 17.75H3.24964C3.66385 17.75 3.99964 18.0858 3.99964 18.5C3.99964 18.9142 3.66385 19.25 3.24964 19.25H2.99964C2.58543 19.25 2.24964 18.9142 2.24964 18.5Z" fill="black"/>
</svg>
