<svg width="25" height="24" viewBox="0 0 25 24" fill="none" xmlns="http://www.w3.org/2000/svg">
<path d="M4.15693 17.7498C3.74272 17.7498 3.40693 18.0855 3.40693 18.4998C3.40693 18.914 3.74272 19.2498 4.15693 19.2498H4.65693C5.07114 19.2498 5.40693 18.914 5.40693 18.4998C5.40693 18.0855 5.07114 17.7498 4.65693 17.7498H4.15693Z" fill="black"/>
<path d="M6.40693 18.4998C6.40693 18.0855 6.74272 17.7498 7.15693 17.7498H7.65693C8.07114 17.7498 8.40693 18.0855 8.40693 18.4998C8.40693 18.914 8.07114 19.2498 7.65693 19.2498H7.15693C6.74272 19.2498 6.40693 18.914 6.40693 18.4998Z" fill="black"/>
<path d="M10.1569 17.7498C9.74272 17.7498 9.40693 18.0855 9.40693 18.4998C9.40693 18.914 9.74271 19.2498 10.1569 19.2498L20.1569 19.2498C20.5711 19.2498 20.9069 18.914 20.9069 18.4998C20.9069 18.0855 20.5711 17.7498 20.1569 17.7498L10.1569 17.7498Z" fill="black"/>
<path fill-rule="evenodd" clip-rule="evenodd" d="M23.4169 2.03414C23.9502 2.17772 24.2661 2.72644 24.1225 3.25973L20.9551 15.0245C21.0139 15.0319 21.0726 15.0415 21.1311 15.0539C21.3581 15.1019 21.5772 15.1812 21.7823 15.2896C22.0165 15.4135 22.218 15.5817 22.4179 15.7488L22.6153 15.9134C22.9689 16.208 23.2824 16.4692 23.5209 16.7059C23.7727 16.9557 24.0197 17.2523 24.1619 17.6415C24.3645 18.1958 24.3645 18.8038 24.1619 19.358C24.0197 19.7472 23.7727 20.0438 23.5209 20.2936C23.2824 20.5303 22.969 20.7915 22.6154 21.0861L22.4179 21.2508C22.218 21.4178 22.0165 21.5861 21.7823 21.7099C21.5772 21.8183 21.3581 21.8977 21.1311 21.9457C20.8719 22.0005 20.6094 22.0001 20.349 21.9998H3.96492C3.70444 22.0001 3.44196 22.0005 3.18271 21.9457C2.95578 21.8977 2.73663 21.8183 2.53157 21.7099C2.2973 21.5861 2.09588 21.4178 1.89599 21.2508L1.69846 21.0861C1.34492 20.7915 1.0314 20.5303 0.79294 20.2936C0.541164 20.0438 0.294182 19.7472 0.151932 19.358C-0.0506439 18.8038 -0.0506439 18.1958 0.151932 17.6415C0.294182 17.2523 0.541164 16.9557 0.79294 16.7059C1.03142 16.4692 1.3449 16.208 1.69847 15.9134L1.89599 15.7488C2.09587 15.5818 2.29731 15.4135 2.53157 15.2896C2.73663 15.1812 2.95578 15.1019 3.18271 15.0539C3.24125 15.0415 3.29995 15.0319 3.35875 15.0245L0.191305 3.25973C0.0477257 2.72644 0.363653 2.17772 0.896948 2.03414C1.43024 1.89057 1.97896 2.20649 2.12254 2.73979L5.4233 14.9998H11.6572V3C11.6572 2.44772 12.1049 2 12.6572 2C13.2095 2 13.6572 2.44772 13.6572 3V14.9998H18.8905L22.1913 2.73979C22.3349 2.20649 22.8836 1.89057 23.4169 2.03414ZM20.288 16.9998H19.6798C19.665 17.0001 19.6502 17.0001 19.6353 16.9998H12.6793L12.6572 17L12.6351 16.9998H4.02584C3.66264 16.9998 3.62404 17.0048 3.59654 17.0106C3.55116 17.0202 3.50733 17.036 3.46631 17.0577C3.44147 17.0709 3.40861 17.0917 3.12959 17.3243L3.00959 17.4243C2.61592 17.7523 2.37084 17.9577 2.20168 18.1256C2.06479 18.2614 2.03437 18.3192 2.03037 18.3281C2.02961 18.3298 2.02978 18.3297 2.03037 18.3281C1.98985 18.439 1.98987 18.5606 2.03039 18.6714L2.03002 18.6705C2.02976 18.6699 2.02983 18.6702 2.03039 18.6714C2.03439 18.6803 2.06479 18.7381 2.20168 18.874C2.37084 19.0418 2.61592 19.2472 3.00959 19.5753L3.12959 19.6753C3.40861 19.9078 3.44147 19.9287 3.46631 19.9418C3.50733 19.9635 3.55116 19.9793 3.59654 19.9889C3.62404 19.9948 3.66264 19.9998 4.02584 19.9998H20.288C20.6512 19.9998 20.6898 19.9948 20.7173 19.9889C20.7627 19.9793 20.8065 19.9635 20.8475 19.9418C20.8724 19.9287 20.9052 19.9078 21.1843 19.6753L21.3043 19.5753C21.6979 19.2472 21.943 19.0418 22.1122 18.874C22.2491 18.7381 22.2795 18.6803 22.2835 18.6714C22.2842 18.6697 22.2841 18.6698 22.2835 18.6714C22.324 18.5606 22.324 18.439 22.2835 18.3281C22.2795 18.3192 22.2491 18.2614 22.1122 18.1256C21.943 17.9577 21.6979 17.7523 21.3043 17.4243L21.1843 17.3243C20.9052 17.0917 20.8724 17.0709 20.8475 17.0577C20.8065 17.036 20.7627 17.0202 20.7173 17.0106C20.6898 17.0048 20.6512 16.9998 20.288 16.9998Z" fill="black"/>
</svg>
