<svg width="24" height="24" viewBox="0 0 24 24" fill="none" xmlns="http://www.w3.org/2000/svg">
<path d="M2.9997 18.25C2.86163 18.25 2.7497 18.3619 2.7497 18.5C2.7497 18.6381 2.86163 18.75 2.9997 18.75H3.4997C3.63777 18.75 3.7497 18.6381 3.7497 18.5C3.7497 18.3619 3.63777 18.25 3.4997 18.25H2.9997Z" fill="black"/>
<path d="M4.7497 18.5C4.7497 18.3619 4.86163 18.25 4.9997 18.25H5.4997C5.63777 18.25 5.7497 18.3619 5.7497 18.5C5.7497 18.6381 5.63777 18.75 5.4997 18.75H4.9997C4.86163 18.75 4.7497 18.6381 4.7497 18.5Z" fill="black"/>
<path d="M7.9997 18.25C7.86163 18.25 7.7497 18.3619 7.7497 18.5C7.7497 18.6381 7.86163 18.75 7.9997 18.75L21.4997 18.75C21.6378 18.75 21.7497 18.6381 21.7497 18.5C21.7497 18.3619 21.6378 18.25 21.4997 18.25L7.9997 18.25Z" fill="black"/>
<path fill-rule="evenodd" clip-rule="evenodd" d="M21.2664 2.91026C21.3035 2.81371 21.3963 2.75 21.4997 2.75H22.9997C23.0775 2.75 23.1508 2.7862 23.1981 2.84793C23.2454 2.90966 23.2613 2.98989 23.2411 3.06499L19.8259 15.75L20.1589 15.75C20.4539 15.75 20.6394 15.7499 20.8187 15.7879C20.9776 15.8215 21.131 15.877 21.2745 15.9529C21.4366 16.0386 21.579 16.1573 21.8056 16.3462L21.9566 16.472C22.3286 16.782 22.6204 17.0252 22.8354 17.2385C23.0538 17.4552 23.2128 17.6598 23.3003 17.8992C23.4421 18.2872 23.4421 18.7128 23.3003 19.1008C23.2128 19.3402 23.0538 19.5448 22.8354 19.7615C22.6204 19.9748 22.3286 20.218 21.9566 20.528L21.8057 20.6538C21.5791 20.8427 21.4366 20.9614 21.2745 21.0471C21.131 21.123 20.9776 21.1785 20.8187 21.2121C20.6394 21.2501 20.4539 21.25 20.1589 21.25H3.84054C3.54551 21.25 3.36003 21.2501 3.18067 21.2121C3.02182 21.1785 2.86841 21.123 2.72487 21.0471C2.5628 20.9614 2.42033 20.8427 2.19371 20.6538L2.0428 20.528C1.67079 20.218 1.37899 19.9748 1.16399 19.7615C0.945594 19.5448 0.78664 19.3402 0.699125 19.1008C0.557323 18.7128 0.557323 18.2872 0.699125 17.8992C0.78664 17.6598 0.945594 17.4552 1.16399 17.2385C1.37899 17.0252 1.67079 16.782 2.0428 16.472L2.1937 16.3462C2.42033 16.1573 2.5628 16.0386 2.72487 15.9529C2.86841 15.877 3.02182 15.8215 3.18067 15.7879C3.36003 15.7499 3.54551 15.75 3.84054 15.75L4.17348 15.75L0.758291 3.06499C0.738071 2.98989 0.753955 2.90966 0.801265 2.84793C0.848575 2.7862 0.921918 2.75 0.999694 2.75H2.49969C2.60314 2.75 2.6959 2.81371 2.73303 2.91026L7.67139 15.75H10.2682L11.2504 2.98083C11.2605 2.85058 11.3691 2.75 11.4997 2.75H12.9997C13.134 2.75 13.2443 2.85616 13.2495 2.99039L13.7403 15.75H16.328L21.2664 2.91026ZM16.8637 15.75H19.3081L22.6735 3.25H21.6714L16.8637 15.75ZM3.86862 16.25C3.53645 16.25 3.40612 16.2513 3.28413 16.2771C3.17066 16.301 3.06109 16.3407 2.95856 16.3949C2.84832 16.4532 2.7474 16.5357 2.49222 16.7483L2.37222 16.8483C1.98888 17.1678 1.71392 17.3972 1.51617 17.5934C1.32003 17.7881 1.21976 17.9313 1.16874 18.0709C1.06745 18.348 1.06745 18.652 1.16874 18.9291C1.21976 19.0687 1.32003 19.2119 1.51617 19.4066C1.71391 19.6028 1.98888 19.8322 2.37222 20.1517L2.49222 20.2517C2.7474 20.4643 2.84832 20.5468 2.95856 20.6051C3.06109 20.6593 3.17066 20.699 3.28413 20.7229C3.40612 20.7487 3.53645 20.75 3.86862 20.75H20.1308C20.4629 20.75 20.5933 20.7487 20.7153 20.7229C20.8287 20.699 20.9383 20.6593 21.0408 20.6051C21.1511 20.5468 21.252 20.4643 21.5072 20.2517L21.6272 20.1517C22.0105 19.8322 22.2855 19.6028 22.4832 19.4066C22.6794 19.2119 22.7796 19.0687 22.8307 18.9291C22.9319 18.652 22.9319 18.348 22.8307 18.0709C22.7796 17.9313 22.6794 17.7881 22.4832 17.5934C22.2855 17.3972 22.0105 17.1678 21.6272 16.8483L21.5072 16.7483C21.252 16.5357 21.1511 16.4532 21.0408 16.3949C20.9383 16.3407 20.8287 16.301 20.7153 16.2771C20.5933 16.2513 20.4629 16.25 20.1308 16.25H3.86862ZM1.3259 3.25L4.69129 15.75H7.13569L2.32799 3.25H1.3259ZM11.7312 3.25L10.7697 15.75H13.2399L12.7591 3.25H11.7312Z" fill="black"/>
</svg>
