<svg width="24" height="24" viewBox="0 0 24 24" fill="none" xmlns="http://www.w3.org/2000/svg">
<path d="M4.00037 18C3.72423 18 3.50037 18.2239 3.50037 18.5C3.50037 18.7761 3.72423 19 4.00037 19H4.50037C4.77651 19 5.00037 18.7761 5.00037 18.5C5.00037 18.2239 4.77651 18 4.50037 18H4.00037Z" fill="black"/>
<path d="M6.50037 18.5C6.50037 18.2239 6.72423 18 7.00037 18H7.50037C7.77651 18 8.00037 18.2239 8.00037 18.5C8.00037 18.7761 7.77651 19 7.50037 19H7.00037C6.72423 19 6.50037 18.7761 6.50037 18.5Z" fill="black"/>
<path d="M10.0004 18C9.72423 18 9.50037 18.2239 9.50037 18.5C9.50037 18.7761 9.72423 19 10.0004 19L21.0004 19C21.2765 19 21.5004 18.7761 21.5004 18.5C21.5004 18.2239 21.2765 18 21.0004 18L10.0004 18Z" fill="black"/>
<path fill-rule="evenodd" clip-rule="evenodd" d="M21.033 2.82051C21.1073 2.62741 21.2928 2.5 21.4997 2.5H22.9997C23.1552 2.5 23.3019 2.57239 23.3966 2.69586C23.4912 2.81932 23.5229 2.97979 23.4825 3.12999L20.1521 15.5L20.1753 15.5C20.454 15.4999 20.6648 15.4998 20.8705 15.5433C21.052 15.5817 21.2273 15.6452 21.3914 15.7319C21.5772 15.8301 21.739 15.9651 21.9531 16.1437L22.1248 16.2867C22.4898 16.5909 22.7887 16.84 23.0115 17.061C23.241 17.2888 23.4293 17.5241 23.5351 17.8134C23.6971 18.2568 23.6971 18.7432 23.5351 19.1866C23.4293 19.4759 23.241 19.7112 23.0115 19.939C22.7887 20.16 22.4899 20.4091 22.1248 20.7133L21.9532 20.8563C21.7391 21.0349 21.5772 21.1699 21.3914 21.2681C21.2273 21.3548 21.052 21.4183 20.8705 21.4567C20.6648 21.5002 20.454 21.5001 20.1753 21.5H3.82413C3.54535 21.5001 3.33462 21.5002 3.12894 21.4567C2.94739 21.4183 2.77207 21.3548 2.60803 21.2681C2.42217 21.1699 2.26035 21.0349 2.04626 20.8563L1.87465 20.7133C1.50963 20.4091 1.21064 20.16 0.987895 19.939C0.758374 19.7112 0.570079 19.4759 0.464318 19.1866C0.302258 18.7432 0.302258 18.2568 0.464318 17.8134C0.570079 17.5241 0.758374 17.2888 0.987897 17.061C1.21067 16.84 1.50954 16.5909 1.87462 16.2867L2.04626 16.1437C2.26034 15.9651 2.42217 15.8301 2.60803 15.7319C2.77207 15.6452 2.94739 15.5817 3.12894 15.5433C3.33462 15.4998 3.54534 15.4999 3.82412 15.5L3.84728 15.5L0.516891 3.12999C0.476451 2.97979 0.50822 2.81932 0.602839 2.69586C0.697459 2.57239 0.844148 2.5 0.999698 2.5H2.4997C2.70658 2.5 2.8921 2.62741 2.96637 2.82051L7.8431 15.5H10.0367L11.0012 2.96165C11.0212 2.70115 11.2384 2.5 11.4997 2.5H12.9997C13.2684 2.5 13.489 2.71232 13.4993 2.98078L13.9808 15.5H16.1563L21.033 2.82051ZM17.2277 15.5H19.1165L22.3473 3.5H21.8431L17.2277 15.5ZM3.86862 16.5C3.5261 16.5 3.42635 16.5025 3.33586 16.5216C3.24508 16.5408 3.15742 16.5726 3.0754 16.6159C2.99363 16.6592 2.91539 16.7211 2.65227 16.9404L2.53227 17.0404C2.14548 17.3627 1.88048 17.5841 1.69226 17.7709C1.50725 17.9545 1.43632 18.067 1.40354 18.1567C1.32251 18.3784 1.32251 18.6216 1.40354 18.8433C1.43632 18.933 1.50725 19.0455 1.69226 19.2291C1.88048 19.4159 2.14548 19.6373 2.53227 19.9596L2.65227 20.0596C2.91539 20.2789 2.99363 20.3408 3.0754 20.3841C3.15742 20.4274 3.24508 20.4592 3.33586 20.4784C3.42635 20.4975 3.5261 20.5 3.86862 20.5H20.1308C20.4733 20.5 20.573 20.4975 20.6635 20.4784C20.7543 20.4592 20.842 20.4274 20.924 20.3841C21.0058 20.3408 21.084 20.2789 21.3471 20.0596L21.4671 19.9596C21.8539 19.6373 22.1189 19.4159 22.3071 19.2291C22.4921 19.0455 22.5631 18.933 22.5959 18.8433C22.6769 18.6216 22.6769 18.3784 22.5959 18.1567C22.5631 18.067 22.4921 17.9545 22.3071 17.7709C22.1189 17.5841 21.8539 17.3627 21.4671 17.0404L21.3471 16.9404C21.084 16.7211 21.0058 16.6592 20.924 16.6159C20.842 16.5726 20.7543 16.5408 20.6635 16.5216C20.573 16.5025 20.4733 16.5 20.1308 16.5H3.86862ZM1.65212 3.5L4.88289 15.5H6.77168L2.1563 3.5H1.65212ZM11.9627 3.5L11.0396 15.5H12.9801L12.5186 3.5H11.9627Z" fill="black"/>
</svg>
