<svg width="24" height="24" viewBox="0 0 24 24" fill="none" xmlns="http://www.w3.org/2000/svg">
<path d="M4.00001 17.75C3.5858 17.75 3.25001 18.0858 3.25001 18.5C3.25001 18.9142 3.5858 19.25 4.00001 19.25H4.50001C4.91422 19.25 5.25001 18.9142 5.25001 18.5C5.25001 18.0858 4.91422 17.75 4.50001 17.75H4.00001Z" fill="black"/>
<path d="M6.25001 18.5C6.25001 18.0858 6.5858 17.75 7.00001 17.75H7.50001C7.91422 17.75 8.25001 18.0858 8.25001 18.5C8.25001 18.9142 7.91422 19.25 7.50001 19.25H7.00001C6.5858 19.25 6.25001 18.9142 6.25001 18.5Z" fill="black"/>
<path d="M10 17.75C9.5858 17.75 9.25001 18.0858 9.25001 18.5C9.25001 18.9142 9.5858 19.25 10 19.25H20C20.4142 19.25 20.75 18.9142 20.75 18.5C20.75 18.0858 20.4142 17.75 20 17.75L10 17.75Z" fill="black"/>
<path fill-rule="evenodd" clip-rule="evenodd" d="M20.7993 2.73077C20.9107 2.44112 21.189 2.25 21.4993 2.25H22.9993C23.2327 2.25 23.4527 2.35859 23.5946 2.54378C23.7365 2.72898 23.7842 2.96968 23.7235 3.19498L20.4773 15.2524C20.6315 15.2567 20.7774 15.2682 20.9218 15.2987C21.1261 15.3419 21.3233 15.4133 21.5078 15.5109C21.7178 15.6219 21.8993 15.7734 22.1051 15.9451L22.2915 16.1006C22.6505 16.3997 22.9566 16.6548 23.1872 16.8836C23.4279 17.1224 23.6455 17.3883 23.7695 17.7276C23.9518 18.2264 23.9518 18.7736 23.7695 19.2724C23.6455 19.6117 23.4279 19.8776 23.1872 20.1164C22.9566 20.3452 22.6506 20.6003 22.2916 20.8994L22.1051 21.0549C21.8993 21.2267 21.7178 21.3782 21.5078 21.4891C21.3233 21.5867 21.1261 21.6581 20.9218 21.7013C20.6895 21.7504 20.4531 21.7502 20.185 21.75H3.81365C3.54561 21.7502 3.30918 21.7504 3.07685 21.7013C2.87261 21.6581 2.67537 21.5867 2.49082 21.4891C2.28088 21.3781 2.09938 21.2267 1.89361 21.0549L1.70716 20.8995C1.34817 20.6003 1.04205 20.3452 0.81144 20.1164C0.57079 19.8776 0.353152 19.6117 0.229146 19.2724C0.0468278 18.7736 0.0468278 18.2264 0.229146 17.7276C0.353152 17.3883 0.57079 17.1224 0.81144 16.8836C1.04205 16.6548 1.34816 16.3997 1.70715 16.1005L1.8936 15.9451C2.09937 15.7734 2.28088 15.6219 2.49082 15.5109C2.67537 15.4133 2.87261 15.3419 3.07685 15.2987C3.22123 15.2682 3.3672 15.2567 3.52135 15.2524L0.275116 3.19498C0.214459 2.96968 0.262112 2.72898 0.404042 2.54378C0.545969 2.35859 0.766003 2.25 0.999329 2.25H2.49933C2.80966 2.25 3.08794 2.44112 3.19934 2.73077L8.01443 15.25H9.80481L10.7515 2.94248C10.7816 2.55173 11.1074 2.25 11.4993 2.25H12.9993C13.4023 2.25 13.7333 2.56847 13.7488 2.97118L14.221 15.25H15.9842L20.7993 2.73077ZM17.5914 15.25H18.9245L22.0207 3.75H22.0144L17.5914 15.25ZM3.86825 16.75C3.51539 16.75 3.44622 16.7538 3.38722 16.7662C3.31914 16.7806 3.2534 16.8044 3.19188 16.837C3.13857 16.8651 3.08302 16.9065 2.81195 17.1324L2.69195 17.2324C2.30172 17.5576 2.04668 17.771 1.86799 17.9483C1.6941 18.1209 1.65252 18.2028 1.63799 18.2425C1.57721 18.4088 1.57721 18.5912 1.63799 18.7575C1.65252 18.7972 1.6941 18.8791 1.86799 19.0517C2.04668 19.229 2.30172 19.4424 2.69195 19.7676L2.81195 19.8676C3.08302 20.0935 3.13857 20.1349 3.19188 20.163C3.2534 20.1956 3.31914 20.2194 3.38722 20.2338C3.44622 20.2462 3.51539 20.25 3.86825 20.25H20.1304C20.4833 20.25 20.5525 20.2462 20.6114 20.2338C20.6795 20.2194 20.7453 20.1956 20.8068 20.163C20.8601 20.1349 20.9156 20.0935 21.1867 19.8676L21.3067 19.7676C21.6969 19.4424 21.952 19.229 22.1307 19.0517C22.3046 18.8791 22.3461 18.7972 22.3607 18.7575C22.4215 18.5912 22.4215 18.4088 22.3607 18.2425C22.3461 18.2028 22.3046 18.1209 22.1307 17.9483C21.952 17.771 21.6969 17.5576 21.3067 17.2324L21.1867 17.1324C20.9156 16.9065 20.8601 16.8651 20.8068 16.837C20.7453 16.8044 20.6795 16.7806 20.6114 16.7662C20.5525 16.7538 20.4833 16.75 20.1304 16.75H3.86825ZM1.97796 3.75L5.07411 15.25H6.40731L1.98423 3.75H1.97796ZM12.1939 3.75L11.3092 15.25H12.7199L12.2776 3.75H12.1939Z" fill="black"/>
</svg>
