<svg width="24" height="24" viewBox="0 0 24 24" fill="none" xmlns="http://www.w3.org/2000/svg">
<path fill-rule="evenodd" clip-rule="evenodd" d="M22.3476 2.25C23.1701 2.25 23.7684 3.03072 23.5546 3.82497L20.6806 14.5H16.2734L20.6767 3.05128C20.8624 2.56854 21.3262 2.25 21.8434 2.25H22.3476ZM19.531 13L22.0214 3.75H22.0151L18.4574 13H19.531Z" fill="black"/>
<path fill-rule="evenodd" clip-rule="evenodd" d="M12.5189 2.25C13.1905 2.25 13.7421 2.78079 13.7679 3.45196L14.1929 14.5H9.86318L10.7167 3.40413C10.7668 2.75288 11.3099 2.25 11.963 2.25H12.5189ZM12.6341 13L12.2783 3.75H12.1945L11.483 13H12.6341Z" fill="black"/>
<path fill-rule="evenodd" clip-rule="evenodd" d="M2.15661 2.25C2.67382 2.25 3.13762 2.56853 3.32329 3.05128L7.72665 14.5H3.31945L0.445408 3.82497C0.231569 3.03072 0.829901 2.25 1.65243 2.25H2.15661ZM1.97864 3.75H1.98491L5.5426 13H4.46902L1.97864 3.75Z" fill="black"/>
<path fill-rule="evenodd" clip-rule="evenodd" d="M3.84084 15.75C3.54581 15.75 3.36034 15.7499 3.18097 15.7879C3.02212 15.8215 2.86872 15.877 2.72517 15.9529C2.5631 16.0386 2.42063 16.1573 2.19401 16.3462L2.04311 16.472C1.67111 16.782 1.37929 17.0252 1.16429 17.2385C0.945898 17.4552 0.786943 17.6598 0.699428 17.8992C0.557627 18.2872 0.557627 18.7128 0.699428 19.1008C0.786943 19.3402 0.945898 19.5448 1.16429 19.7615C1.37929 19.9748 1.6711 20.218 2.04311 20.528L2.19401 20.6538C2.42063 20.8427 2.5631 20.9614 2.72517 21.0471C2.86872 21.123 3.02212 21.1785 3.18097 21.2121C3.36034 21.2501 3.54581 21.25 3.84084 21.25H20.1592C20.4542 21.25 20.6397 21.2501 20.819 21.2121C20.9779 21.1785 21.1313 21.123 21.2748 21.0471C21.4369 20.9614 21.5794 20.8427 21.806 20.6538L21.9569 20.528C22.3289 20.218 22.6207 19.9748 22.8357 19.7615C23.0541 19.5448 23.2131 19.3402 23.3006 19.1008C23.4424 18.7128 23.4424 18.2872 23.3006 17.8992C23.2131 17.6598 23.0541 17.4552 22.8357 17.2385C22.6207 17.0252 22.3289 16.782 21.9569 16.472L21.806 16.3462C21.5794 16.1574 21.4369 16.0386 21.2748 15.9529C21.1313 15.877 20.9779 15.8215 20.819 15.7879C20.6397 15.7499 20.4542 15.75 20.1592 15.75H3.84084ZM8.50001 19.25L21 19.25C21.4142 19.25 21.75 18.9142 21.75 18.5C21.75 18.0858 21.4142 17.75 21 17.75L8.50001 17.75C8.08579 17.75 7.75001 18.0858 7.75001 18.5C7.75001 18.9142 8.08579 19.25 8.50001 19.25ZM5.00001 18.5C5.00001 18.0858 5.33579 17.75 5.75001 17.75H6.00001C6.41422 17.75 6.75001 18.0858 6.75001 18.5C6.75001 18.9142 6.41422 19.25 6.00001 19.25H5.75001C5.33579 19.25 5.00001 18.9142 5.00001 18.5ZM2.25001 18.5C2.25001 18.0858 2.58579 17.75 3.00001 17.75H3.25001C3.66422 17.75 4.00001 18.0858 4.00001 18.5C4.00001 18.9142 3.66422 19.25 3.25001 19.25H3.00001C2.58579 19.25 2.25001 18.9142 2.25001 18.5Z" fill="black"/>
</svg>
