<svg width="24" height="24" viewBox="0 0 24 24" fill="none" xmlns="http://www.w3.org/2000/svg">
<path d="M3.4185 1.05856C3.9785 -0.0195217 5.52077 -0.0195208 6.08077 1.05856L8.50026 5.71651C9.01893 6.71504 8.29434 7.90794 7.16913 7.90794H2.33014C1.20494 7.90794 0.480335 6.71504 0.999007 5.71651L3.4185 1.05856Z" fill="black"/>
<path d="M5.74963 8.90794V18.1653C5.74963 19.546 6.86892 20.6653 8.24963 20.6653C9.63035 20.6653 10.7496 19.546 10.7496 18.1653V6.9153C10.7496 4.29195 12.8763 2.1653 15.4996 2.1653C18.123 2.1653 20.2496 4.29195 20.2496 6.9153V14.7653C19.9265 14.6997 19.5921 14.6653 19.2496 14.6653C18.9072 14.6653 18.5727 14.6997 18.2496 14.7653V6.9153C18.2496 5.39652 17.0184 4.1653 15.4996 4.1653C13.9809 4.1653 12.7496 5.39652 12.7496 6.9153V18.1653C12.7496 20.6506 10.7349 22.6653 8.24963 22.6653C5.76435 22.6653 3.74963 20.6506 3.74963 18.1653V8.90794H5.74963Z" fill="black"/>
<path d="M19.2496 15.6653C17.0405 15.6653 15.2496 17.4562 15.2496 19.6653C15.2496 21.8744 17.0405 23.6653 19.2496 23.6653C21.4588 23.6653 23.2496 21.8744 23.2496 19.6653C23.2496 17.4562 21.4588 15.6653 19.2496 15.6653Z" fill="black"/>
</svg>
