<svg width="24" height="24" viewBox="0 0 24 24" fill="none" xmlns="http://www.w3.org/2000/svg">
<path d="M2.99995 18.25C2.86188 18.25 2.74995 18.3619 2.74995 18.5C2.74995 18.6381 2.86188 18.75 2.99995 18.75H3.49995C3.63802 18.75 3.74995 18.6381 3.74995 18.5C3.74995 18.3619 3.63802 18.25 3.49995 18.25H2.99995Z" fill="black"/>
<path d="M4.74995 18.5C4.74995 18.3619 4.86188 18.25 4.99995 18.25H5.49995C5.63802 18.25 5.74995 18.3619 5.74995 18.5C5.74995 18.6381 5.63802 18.75 5.49995 18.75H4.99995C4.86188 18.75 4.74995 18.6381 4.74995 18.5Z" fill="black"/>
<path d="M7.99995 18.25C7.86188 18.25 7.74995 18.3619 7.74995 18.5C7.74995 18.6381 7.86188 18.75 7.99995 18.75L21.4999 18.75C21.638 18.75 21.7499 18.6381 21.7499 18.5C21.7499 18.3619 21.638 18.25 21.4999 18.25L7.99995 18.25Z" fill="black"/>
<path fill-rule="evenodd" clip-rule="evenodd" d="M21.2666 2.91026C21.3037 2.81371 21.3965 2.75 21.4999 2.75H22.9999C23.0777 2.75 23.1511 2.7862 23.1984 2.84793C23.2457 2.90966 23.2616 2.98989 23.2413 3.06499L19.8261 15.75L20.1591 15.75C20.4541 15.75 20.6396 15.7499 20.819 15.7879C20.9778 15.8215 21.1312 15.877 21.2748 15.9529C21.4368 16.0386 21.5793 16.1573 21.8059 16.3462L21.9569 16.472C22.3289 16.782 22.6207 17.0252 22.8357 17.2385C23.054 17.4552 23.213 17.6598 23.3005 17.8992C23.4423 18.2872 23.4423 18.7128 23.3005 19.1008C23.213 19.3402 23.054 19.5448 22.8357 19.7615C22.6207 19.9748 22.3288 20.218 21.9568 20.528L21.8059 20.6538C21.5793 20.8427 21.4368 20.9614 21.2748 21.0471C21.1312 21.123 20.9778 21.1785 20.819 21.2121C20.6396 21.2501 20.4541 21.25 20.1591 21.25H3.84078C3.54575 21.25 3.36028 21.2501 3.18092 21.2121C3.02206 21.1785 2.86866 21.123 2.72511 21.0471C2.56304 20.9614 2.42057 20.8427 2.19395 20.6538L2.04305 20.528C1.67104 20.218 1.37923 19.9748 1.16423 19.7615C0.945838 19.5448 0.786884 19.3402 0.699369 19.1008C0.557567 18.7128 0.557567 18.2872 0.699369 17.8992C0.786884 17.6598 0.945838 17.4552 1.16423 17.2385C1.37923 17.0252 1.67104 16.782 2.04304 16.472L2.19395 16.3462C2.42057 16.1573 2.56304 16.0386 2.72511 15.9529C2.86866 15.877 3.02206 15.8215 3.18092 15.7879C3.36028 15.7499 3.54575 15.75 3.84078 15.75L4.17373 15.75L0.758535 3.06499C0.738315 2.98989 0.7542 2.90966 0.801509 2.84793C0.848819 2.7862 0.922163 2.75 0.999938 2.75H2.49994C2.60338 2.75 2.69614 2.81371 2.73327 2.91026L7.67164 15.75H10.2684L11.2507 2.98083C11.2607 2.85058 11.3693 2.75 11.4999 2.75H12.9999C13.1343 2.75 13.2446 2.85616 13.2498 2.99039L13.7405 15.75H16.3282L21.2666 2.91026ZM16.8639 15.75H19.3083L22.6737 3.25H21.6716L16.8639 15.75ZM3.86886 16.25C3.5367 16.25 3.40636 16.2513 3.28437 16.2771C3.17091 16.301 3.06133 16.3407 2.9588 16.3949C2.84857 16.4532 2.74764 16.5357 2.49247 16.7483L2.37246 16.8483C1.98912 17.1678 1.71416 17.3972 1.51642 17.5934C1.32028 17.7881 1.22001 17.9313 1.16898 18.0709C1.0677 18.348 1.0677 18.652 1.16898 18.9291C1.22001 19.0687 1.32028 19.2119 1.51642 19.4066C1.71416 19.6028 1.98912 19.8322 2.37246 20.1517L2.49247 20.2517C2.74764 20.4643 2.84857 20.5468 2.9588 20.6051C3.06133 20.6593 3.17091 20.699 3.28437 20.7229C3.40636 20.7487 3.5367 20.75 3.86886 20.75H20.131C20.4632 20.75 20.5935 20.7487 20.7155 20.7229C20.829 20.699 20.9386 20.6593 21.0411 20.6051C21.1513 20.5468 21.2522 20.4643 21.5074 20.2517L21.6274 20.1517C22.0108 19.8322 22.2857 19.6028 22.4835 19.4066C22.6796 19.2119 22.7799 19.0687 22.8309 18.9291C22.9322 18.652 22.9322 18.348 22.8309 18.0709C22.7799 17.9313 22.6796 17.7881 22.4835 17.5934C22.2857 17.3972 22.0108 17.1678 21.6274 16.8483L21.5074 16.7483C21.2522 16.5357 21.1513 16.4532 21.0411 16.3949C20.9386 16.3407 20.829 16.301 20.7155 16.2771C20.5935 16.2513 20.4632 16.25 20.131 16.25H3.86886ZM1.32615 3.25L4.69153 15.75H7.13593L2.32824 3.25H1.32615ZM11.7314 3.25L10.7699 15.75H13.2401L12.7594 3.25H11.7314Z" fill="black"/>
</svg>
