<svg width="24" height="24" viewBox="0 0 24 24" fill="none" xmlns="http://www.w3.org/2000/svg">
<path d="M5.83662 4.20518C7.68962 3.27436 9.78247 2.75 12 2.75C14.2175 2.75 16.3103 3.27436 18.1633 4.20518C18.5334 4.39111 18.9842 4.24178 19.1702 3.87164C19.3561 3.5015 19.2068 3.05072 18.8366 2.86479C16.7794 1.8314 14.4565 1.25 12 1.25C9.54341 1.25 7.22049 1.8314 5.1633 2.86479C4.79317 3.05072 4.64384 3.5015 4.82977 3.87164C5.0157 4.24178 5.46648 4.39111 5.83662 4.20518Z" fill="black"/>
<path d="M8.77641 7.36271C9.77299 6.96755 10.8602 6.75 12 6.75C13.1398 6.75 14.2269 6.96755 15.2235 7.36271C15.6086 7.51538 16.0445 7.327 16.1972 6.94195C16.3498 6.55691 16.1615 6.12099 15.7764 5.96832C14.6067 5.50454 13.3322 5.25 12 5.25C10.6678 5.25 9.39318 5.50454 8.22352 5.96832C7.83847 6.12099 7.65009 6.55691 7.80277 6.94195C7.95544 7.327 8.39136 7.51538 8.77641 7.36271Z" fill="black"/>
<path d="M4.25001 20.5C4.25001 20.0858 4.5858 19.75 5.00001 19.75H5.50001C5.91423 19.75 6.25001 20.0858 6.25001 20.5C6.25001 20.9142 5.91423 21.25 5.50001 21.25H5.00001C4.5858 21.25 4.25001 20.9142 4.25001 20.5Z" fill="black"/>
<path d="M7.50001 19.75C7.0858 19.75 6.75001 20.0858 6.75001 20.5C6.75001 20.9142 7.0858 21.25 7.50001 21.25H8.00001C8.41423 21.25 8.75001 20.9142 8.75001 20.5C8.75001 20.0858 8.41423 19.75 8.00001 19.75H7.50001Z" fill="black"/>
<path fill-rule="evenodd" clip-rule="evenodd" d="M7.98294 17.25L3.18278 6.68965C3.06108 6.4219 2.79411 6.25 2.50001 6.25H1.00001C0.760735 6.25 0.535823 6.36417 0.394593 6.55731C0.253361 6.75045 0.212763 6.99939 0.285311 7.2274L3.52197 17.3997C2.20498 17.8148 1.25001 19.0459 1.25001 20.5C1.25001 22.2949 2.70508 23.75 4.50001 23.75H19.5C21.2949 23.75 22.75 22.2949 22.75 20.5C22.75 19.0459 21.795 17.8148 20.478 17.3997L23.7147 7.2274C23.7872 6.99939 23.7466 6.75045 23.6054 6.55731C23.4642 6.36417 23.2393 6.25 23 6.25H21.5C21.2059 6.25 20.9389 6.4219 20.8172 6.68965L16.0171 17.25H7.98294ZM19.5 18.75C20.4665 18.75 21.25 19.5335 21.25 20.5C21.25 21.4665 20.4665 22.25 19.5 22.25H4.50001C3.53351 22.25 2.75001 21.4665 2.75001 20.5C2.75001 19.5335 3.53351 18.75 4.50001 18.75H19.5Z" fill="black"/>
</svg>
