<svg width="24" height="24" viewBox="0 0 24 24" fill="none" xmlns="http://www.w3.org/2000/svg">
<path d="M4.08501 1.40428C4.36501 0.865239 5.13615 0.86524 5.41615 1.40428L7.83564 6.06222C8.09498 6.56149 7.73268 7.15794 7.17007 7.15794L2.33109 7.15794C1.76849 7.15794 1.40618 6.56149 1.66552 6.06222L4.08501 1.40428Z" fill="black"/>
<path d="M5.00058 7.90794V18.1653C5.00058 19.9602 6.45565 21.4153 8.25058 21.4153C10.0455 21.4153 11.5006 19.9602 11.5006 18.1653V6.9153C11.5006 4.70616 13.2914 2.9153 15.5006 2.9153C17.7097 2.9153 19.5006 4.70616 19.5006 6.9153V15.673C19.4179 15.6679 19.3345 15.6653 19.2506 15.6653C19.1666 15.6653 19.0833 15.6679 19.0006 15.673V6.9153C19.0006 4.98231 17.4336 3.4153 15.5006 3.4153C13.5676 3.4153 12.0006 4.98231 12.0006 6.9153V18.1653C12.0006 20.2364 10.3216 21.9153 8.25058 21.9153C6.17951 21.9153 4.50058 20.2364 4.50058 18.1653V7.90794H5.00058Z" fill="black"/>
<path d="M19.2506 16.4153C17.4557 16.4153 16.0006 17.8704 16.0006 19.6653C16.0006 21.4602 17.4557 22.9153 19.2506 22.9153C21.0455 22.9153 22.5006 21.4602 22.5006 19.6653C22.5006 17.8704 21.0455 16.4153 19.2506 16.4153Z" fill="black"/>
</svg>
