<svg width="24" height="24" viewBox="0 0 24 24" fill="none" xmlns="http://www.w3.org/2000/svg">
<path fill-rule="evenodd" clip-rule="evenodd" d="M3.64002 1.1738C4.10668 0.275399 5.39191 0.275399 5.85858 1.1738L8.27807 5.83174C8.7103 6.66385 8.10646 7.65794 7.16879 7.65794H2.32981C1.39214 7.65794 0.7883 6.66386 1.22053 5.83174L3.64002 1.1738ZM4.7493 2.29235L2.74138 6.15794H6.75722L4.7493 2.29235Z" fill="black"/>
<path d="M5.4993 8.90794V18.1653C5.4993 19.6841 6.73052 20.9153 8.2493 20.9153C9.76808 20.9153 10.9993 19.6841 10.9993 18.1653V6.9153C10.9993 4.43002 13.014 2.4153 15.4993 2.4153C17.9846 2.4153 19.9993 4.43002 19.9993 6.9153V14.7212C19.7547 14.6844 19.5042 14.6653 19.2493 14.6653C18.9944 14.6653 18.7439 14.6844 18.4993 14.7212V6.9153C18.4993 5.25845 17.1562 3.9153 15.4993 3.9153C13.8424 3.9153 12.4993 5.25845 12.4993 6.9153V18.1653C12.4993 20.5125 10.5965 22.4153 8.2493 22.4153C5.90209 22.4153 3.9993 20.5125 3.9993 18.1653V8.90794H5.4993Z" fill="black"/>
<path fill-rule="evenodd" clip-rule="evenodd" d="M19.2493 15.9153C17.1782 15.9153 15.4993 17.5942 15.4993 19.6653C15.4993 21.7364 17.1782 23.4153 19.2493 23.4153C21.3204 23.4153 22.9993 21.7364 22.9993 19.6653C22.9993 17.5942 21.3204 15.9153 19.2493 15.9153ZM16.9993 19.6653C16.9993 18.4227 18.0067 17.4153 19.2493 17.4153C20.4919 17.4153 21.4993 18.4227 21.4993 19.6653C21.4993 20.9079 20.4919 21.9153 19.2493 21.9153C18.0067 21.9153 16.9993 20.9079 16.9993 19.6653Z" fill="black"/>
</svg>
