<svg width="26" height="24" viewBox="0 0 26 24" fill="none" xmlns="http://www.w3.org/2000/svg">
<path d="M5.49994 18.2498C5.08573 18.2498 4.74994 18.5856 4.74994 18.9998C4.74994 19.414 5.08573 19.7498 5.49994 19.7498H5.99994C6.41415 19.7498 6.74994 19.414 6.74994 18.9998C6.74994 18.5856 6.41415 18.2498 5.99994 18.2498H5.49994Z" fill="black"/>
<path d="M7.74994 18.9998C7.74994 18.5856 8.08573 18.2498 8.49994 18.2498H8.99994C9.41415 18.2498 9.74994 18.5856 9.74994 18.9998C9.74994 19.414 9.41415 19.7498 8.99994 19.7498H8.49994C8.08573 19.7498 7.74994 19.414 7.74994 18.9998Z" fill="black"/>
<path d="M11.5 18.2498C11.0857 18.2498 10.75 18.5856 10.75 18.9998C10.75 19.414 11.0857 19.7498 11.5 19.7498L20.5 19.7498C20.9142 19.7498 21.25 19.414 21.25 18.9998C21.25 18.5856 20.9142 18.2498 20.5 18.2498L11.5 18.2498Z" fill="black"/>
<path fill-rule="evenodd" clip-rule="evenodd" d="M24.3244 1.79231C24.991 1.97179 25.386 2.65768 25.2065 3.3243L22.0587 15.0159C22.1466 15.0576 22.2323 15.1041 22.3155 15.155C22.598 15.3281 22.8298 15.5609 23.0344 15.7664L23.0868 15.8188L23.7167 16.4488C23.9879 16.7199 24.2421 16.9741 24.438 17.2048C24.6506 17.4553 24.8671 17.7593 24.994 18.15C25.1735 18.7023 25.1735 19.2973 24.994 19.8496C24.8671 20.2403 24.6506 20.5443 24.438 20.7947C24.2421 21.0255 23.9879 21.2796 23.7167 21.5508L23.0868 22.1807L23.0344 22.2332C22.8298 22.4386 22.598 22.6714 22.3155 22.8445C22.0694 22.9953 21.8012 23.1064 21.5206 23.1738C21.1984 23.2511 20.8699 23.2505 20.5799 23.2499L20.5058 23.2498H5.49405L5.41997 23.2499C5.12999 23.2505 4.80147 23.2511 4.47928 23.1738C4.19868 23.1064 3.93043 22.9953 3.68438 22.8445C3.40187 22.6714 3.17004 22.4386 2.96542 22.2332L2.91311 22.1807L2.28315 21.5508C2.01196 21.2796 1.75779 21.0255 1.56188 20.7947C1.34927 20.5443 1.13279 20.2403 1.00585 19.8496C0.82639 19.2973 0.82639 18.7023 1.00585 18.15C1.13279 17.7593 1.34927 17.4553 1.56188 17.2048C1.75782 16.974 2.01193 16.72 2.28316 16.4488L2.91311 15.8188L2.96541 15.7664C3.17004 15.5609 3.40187 15.3281 3.68438 15.155C3.76728 15.1042 3.85271 15.0579 3.94028 15.0163L0.792437 3.3243C0.612963 2.65768 1.00787 1.97179 1.67449 1.79231C2.34111 1.61284 3.027 2.00775 3.20648 2.67437L6.45755 14.7498H12.2497V2.99957C12.2497 2.30922 12.8094 1.74957 13.4997 1.74957C14.1901 1.74957 14.7497 2.30922 14.7497 2.99957V14.7498H19.5414L22.7924 2.67437C22.9719 2.00775 23.6578 1.61284 24.3244 1.79231ZM5.0581 17.2579C5.03592 17.2637 5.01464 17.2725 4.99487 17.2841C4.98928 17.2884 4.97544 17.2997 4.95036 17.3226C4.8925 17.3754 4.81828 17.4492 4.68087 17.5866L4.08087 18.1866C3.76928 18.4982 3.58942 18.6794 3.46773 18.8228C3.41411 18.8859 3.38892 18.9225 3.37895 18.9382C3.36869 18.9786 3.36869 19.0209 3.37895 19.0613C3.38892 19.077 3.41411 19.1136 3.46773 19.1768C3.58942 19.3201 3.76928 19.5014 4.08087 19.813L4.68087 20.413C4.81828 20.5504 4.8925 20.6242 4.95036 20.677C4.97544 20.6999 4.98928 20.7111 4.99487 20.7155C5.01464 20.7271 5.03592 20.7359 5.0581 20.7417C5.06513 20.7425 5.08288 20.7444 5.11682 20.7459C5.19506 20.7495 5.29972 20.7498 5.49405 20.7498H20.5058C20.7001 20.7498 20.8048 20.7495 20.883 20.7459C20.917 20.7444 20.9347 20.7425 20.9418 20.7417C20.9639 20.7359 20.9852 20.7271 21.005 20.7155C21.0106 20.7111 21.0244 20.6999 21.0495 20.677C21.1074 20.6242 21.1816 20.5504 21.319 20.413L21.919 19.813C22.2306 19.5014 22.4104 19.3201 22.5321 19.1768C22.5858 19.1136 22.6109 19.077 22.6209 19.0613C22.6312 19.0209 22.6312 18.9786 22.6209 18.9382C22.6109 18.9225 22.5858 18.8859 22.5321 18.8228C22.4104 18.6794 22.2306 18.4982 21.919 18.1866L21.319 17.5866C21.1816 17.4492 21.1074 17.3754 21.0495 17.3226C21.0244 17.2997 21.0106 17.2884 21.005 17.2841C20.9852 17.2725 20.9639 17.2637 20.9418 17.2579C20.9347 17.257 20.917 17.2552 20.8831 17.2537C20.8048 17.2501 20.7001 17.2498 20.5058 17.2498H5.49405C5.29972 17.2498 5.19506 17.2501 5.11682 17.2537C5.08289 17.2552 5.06513 17.257 5.0581 17.2579Z" fill="black"/>
</svg>
