<svg width="24" height="24" viewBox="0 0 24 24" fill="none" xmlns="http://www.w3.org/2000/svg">
<path d="M4.00001 18C3.72386 18 3.50001 18.2239 3.50001 18.5C3.50001 18.7761 3.72386 19 4.00001 19H4.50001C4.77615 19 5.00001 18.7761 5.00001 18.5C5.00001 18.2239 4.77615 18 4.50001 18H4.00001Z" fill="black"/>
<path d="M6.50001 18.5C6.50001 18.2239 6.72386 18 7.00001 18H7.50001C7.77615 18 8.00001 18.2239 8.00001 18.5C8.00001 18.7761 7.77615 19 7.50001 19H7.00001C6.72386 19 6.50001 18.7761 6.50001 18.5Z" fill="black"/>
<path d="M10 18C9.72386 18 9.50001 18.2239 9.50001 18.5C9.50001 18.7761 9.72386 19 10 19L21 19C21.2761 19 21.5 18.7761 21.5 18.5C21.5 18.2239 21.2761 18 21 18L10 18Z" fill="black"/>
<path fill-rule="evenodd" clip-rule="evenodd" d="M21.0327 2.82051C21.1069 2.62741 21.2924 2.5 21.4993 2.5H22.9993C23.1549 2.5 23.3016 2.57239 23.3962 2.69586C23.4908 2.81932 23.5226 2.97979 23.4821 3.12999L20.1518 15.5L20.1749 15.5C20.4537 15.4999 20.6644 15.4998 20.8701 15.5433C21.0516 15.5817 21.227 15.6452 21.391 15.7319C21.5769 15.8301 21.7387 15.9651 21.9528 16.1437L22.1244 16.2867C22.4895 16.5909 22.7884 16.84 23.0111 17.061C23.2407 17.2888 23.429 17.5241 23.5347 17.8134C23.6968 18.2568 23.6968 18.7432 23.5347 19.1866C23.429 19.4759 23.2407 19.7112 23.0111 19.939C22.7884 20.16 22.4895 20.4091 22.1244 20.7133L21.9528 20.8563C21.7387 21.0349 21.5769 21.1699 21.391 21.2681C21.227 21.3548 21.0516 21.4183 20.8701 21.4567C20.6644 21.5002 20.4537 21.5001 20.1749 21.5H3.82376C3.54498 21.5001 3.33426 21.5002 3.12858 21.4567C2.94703 21.4183 2.77171 21.3548 2.60766 21.2681C2.4218 21.1699 2.25998 21.0349 2.0459 20.8563L1.87428 20.7133C1.50926 20.4091 1.21028 20.16 0.987529 19.939C0.758008 19.7112 0.569713 19.4759 0.463952 19.1866C0.301892 18.7432 0.301892 18.2568 0.463952 17.8134C0.569713 17.5241 0.758008 17.2888 0.987531 17.061C1.21031 16.84 1.50918 16.5909 1.87426 16.2867L2.04589 16.1437C2.25997 15.9651 2.42181 15.8301 2.60766 15.7319C2.77171 15.6452 2.94703 15.5817 3.12858 15.5433C3.33426 15.4998 3.54498 15.4999 3.82376 15.5L3.84691 15.5L0.516524 3.12999C0.476085 2.97979 0.507854 2.81932 0.602473 2.69586C0.697093 2.57239 0.843781 2.5 0.999331 2.5H2.49933C2.70622 2.5 2.89174 2.62741 2.966 2.82051L7.84273 15.5H10.0363L11.0008 2.96165C11.0208 2.70115 11.2381 2.5 11.4993 2.5H12.9993C13.268 2.5 13.4886 2.71232 13.499 2.98078L13.9805 15.5H16.1559L21.0327 2.82051ZM17.2273 15.5H19.1161L22.3469 3.5H21.8427L17.2273 15.5ZM3.86825 16.5C3.52574 16.5 3.42598 16.5025 3.33549 16.5216C3.24472 16.5408 3.15706 16.5726 3.07503 16.6159C2.99326 16.6592 2.91503 16.7211 2.6519 16.9404L2.5319 17.0404C2.14512 17.3627 1.88011 17.5841 1.6919 17.7709C1.50688 17.9545 1.43596 18.067 1.40318 18.1567C1.32215 18.3784 1.32215 18.6216 1.40318 18.8433C1.43596 18.933 1.50688 19.0455 1.6919 19.2291C1.88011 19.4159 2.14512 19.6373 2.5319 19.9596L2.6519 20.0596C2.91503 20.2789 2.99326 20.3408 3.07503 20.3841C3.15706 20.4274 3.24472 20.4592 3.33549 20.4784C3.42598 20.4975 3.52574 20.5 3.86825 20.5H20.1304C20.4729 20.5 20.5727 20.4975 20.6632 20.4784C20.7539 20.4592 20.8416 20.4274 20.9236 20.3841C21.0054 20.3408 21.0836 20.2789 21.3468 20.0596L21.4668 19.9596C21.8535 19.6373 22.1185 19.4159 22.3068 19.2291C22.4918 19.0455 22.5627 18.933 22.5955 18.8433C22.6765 18.6216 22.6765 18.3784 22.5955 18.1567C22.5627 18.067 22.4918 17.9545 22.3068 17.7709C22.1185 17.5841 21.8535 17.3627 21.4668 17.0404L21.3468 16.9404C21.0836 16.7211 21.0054 16.6592 20.9236 16.6159C20.8416 16.5726 20.7539 16.5408 20.6632 16.5216C20.5727 16.5025 20.4729 16.5 20.1304 16.5H3.86825ZM1.65175 3.5L4.88252 15.5H6.77132L2.15593 3.5H1.65175ZM11.9623 3.5L11.0393 15.5H12.9797L12.5182 3.5H11.9623Z" fill="black"/>
</svg>
