<svg width="24" height="24" viewBox="0 0 24 24" fill="none" xmlns="http://www.w3.org/2000/svg">
<path d="M5.7244 3.98178C7.61143 3.03387 9.74263 2.5 12 2.5C14.2573 2.5 16.3885 3.03387 18.2755 3.98178C18.5223 4.10573 18.8228 4.00618 18.9468 3.75942C19.0707 3.51266 18.9712 3.21214 18.7244 3.08819C16.7012 2.0719 14.4167 1.5 12 1.5C9.58325 1.5 7.29867 2.0719 5.27552 3.08819C5.02876 3.21214 4.92921 3.51266 5.05316 3.75942C5.17712 4.00618 5.47764 4.10573 5.7244 3.98178Z" fill="black"/>
<path d="M8.68426 7.13031C9.70969 6.72371 10.8281 6.5 12 6.5C13.1718 6.5 14.2902 6.72371 15.3157 7.13031C15.5724 7.23209 15.863 7.10651 15.9648 6.84981C16.0665 6.59311 15.941 6.3025 15.6843 6.20072C14.5434 5.74837 13.3001 5.5 12 5.5C10.6998 5.5 9.45648 5.74837 8.31566 6.20072C8.05896 6.3025 7.93338 6.59311 8.03516 6.84981C8.13695 7.10651 8.42756 7.23209 8.68426 7.13031Z" fill="black"/>
<path d="M4.50001 20.5C4.50001 20.2239 4.72387 20 5.00001 20H5.50001C5.77615 20 6.00001 20.2239 6.00001 20.5C6.00001 20.7761 5.77615 21 5.50001 21H5.00001C4.72387 21 4.50001 20.7761 4.50001 20.5Z" fill="black"/>
<path d="M7.50001 20C7.22387 20 7.00001 20.2239 7.00001 20.5C7.00001 20.7761 7.22387 21 7.50001 21H8.00001C8.27615 21 8.50001 20.7761 8.50001 20.5C8.50001 20.2239 8.27615 20 8.00001 20H7.50001Z" fill="black"/>
<path fill-rule="evenodd" clip-rule="evenodd" d="M7.82196 17.5L2.95519 6.7931C2.87405 6.6146 2.69608 6.5 2.5 6.5H1C0.840488 6.5 0.690548 6.57611 0.596394 6.70487C0.502241 6.83364 0.475176 6.9996 0.523541 7.1516L3.83943 17.573C2.50038 17.8739 1.50001 19.0701 1.50001 20.5C1.50001 22.1569 2.84315 23.5 4.50001 23.5H19.5C21.1569 23.5 22.5 22.1569 22.5 20.5C22.5 19.0701 21.4996 17.8739 20.1606 17.573L23.4765 7.1516C23.5248 6.9996 23.4978 6.83364 23.4036 6.70487C23.3095 6.57611 23.1595 6.5 23 6.5H21.5C21.3039 6.5 21.126 6.6146 21.0448 6.7931L16.178 17.5H7.82196ZM19.5 18.5C20.6046 18.5 21.5 19.3954 21.5 20.5C21.5 21.6046 20.6046 22.5 19.5 22.5H4.50001C3.39544 22.5 2.50001 21.6046 2.50001 20.5C2.50001 19.3954 3.39544 18.5 4.50001 18.5H19.5Z" fill="black"/>
</svg>
