<svg width="24" height="24" viewBox="0 0 24 24" fill="none" xmlns="http://www.w3.org/2000/svg">
<path d="M5.94884 4.42858C7.76781 3.51485 9.82232 3 12 3C14.1776 3 16.2321 3.51485 18.0511 4.42858C18.5446 4.67649 19.1456 4.47738 19.3936 3.98386C19.6415 3.49034 19.4424 2.8893 18.9488 2.64139C16.8576 1.59091 14.4964 1 12 1C9.50357 1 7.1423 1.59091 5.05109 2.64139C4.55757 2.8893 4.35846 3.49034 4.60637 3.98386C4.85428 4.47738 5.45533 4.67649 5.94884 4.42858Z" fill="black"/>
<path d="M8.86856 7.5951C9.83629 7.21139 10.8922 7 12 7C13.1077 7 14.1636 7.21139 15.1314 7.5951C15.6448 7.79867 16.226 7.5475 16.4296 7.0341C16.6331 6.5207 16.382 5.93949 15.8686 5.73592C14.67 5.2607 13.3642 5 12 5C10.6357 5 9.32988 5.2607 8.13137 5.73592C7.61797 5.93949 7.36681 6.5207 7.57037 7.0341C7.77394 7.5475 8.35516 7.79867 8.86856 7.5951Z" fill="black"/>
<path d="M4.00001 20.5C4.00001 19.9477 4.44773 19.5 5.00001 19.5H5.50001C6.0523 19.5 6.50001 19.9477 6.50001 20.5C6.50001 21.0523 6.0523 21.5 5.50001 21.5H5.00001C4.44773 21.5 4.00001 21.0523 4.00001 20.5Z" fill="black"/>
<path d="M8.50002 19.5C7.94773 19.5 7.50002 19.9477 7.50002 20.5C7.50002 21.0523 7.94773 21.5 8.50002 21.5H9.00002C9.5523 21.5 10 21.0523 10 20.5C10 19.9477 9.5523 19.5 9.00002 19.5H8.50002Z" fill="black"/>
<path fill-rule="evenodd" clip-rule="evenodd" d="M8.14392 17L3.41037 6.5862C3.2481 6.2292 2.89215 6 2.50001 6H1.00001C0.680979 6 0.381096 6.15222 0.192789 6.40975C0.0044823 6.66727 -0.0496483 6.99919 0.047081 7.3032L3.21045 17.2452C1.91564 17.7587 1.00001 19.0224 1.00001 20.5C1.00001 22.433 2.56701 24 4.50001 24H19.5C21.433 24 23 22.433 23 20.5C23 19.0224 22.0844 17.7587 20.7896 17.2452L23.9529 7.3032C24.0497 6.99919 23.9955 6.66727 23.8072 6.40975C23.6189 6.15222 23.319 6 23 6H21.5C21.1079 6 20.7519 6.2292 20.5896 6.5862L15.8561 17H8.14392ZM19.5 19C20.3284 19 21 19.6716 21 20.5C21 21.3284 20.3284 22 19.5 22H4.50001C3.67159 22 3.00001 21.3284 3.00001 20.5C3.00001 19.6716 3.67159 19 4.50001 19H19.5Z" fill="black"/>
</svg>
