<svg width="24" height="24" viewBox="0 0 24 24" fill="none" xmlns="http://www.w3.org/2000/svg">
<path d="M3.19698 0.943324C3.85031 -0.314442 5.64963 -0.314441 6.30296 0.943325L8.72245 5.60127C9.32757 6.76622 8.48221 8.15794 7.16947 8.15794H2.33048C1.01774 8.15794 0.172369 6.76622 0.777489 5.60127L3.19698 0.943324Z" fill="black"/>
<path d="M5.99997 9.40794V18.1653C5.99997 19.4079 7.00733 20.4153 8.24997 20.4153C9.49261 20.4153 10.5 19.4079 10.5 18.1653V6.9153C10.5 4.15388 12.7385 1.9153 15.5 1.9153C18.2614 1.9153 20.5 4.15388 20.5 6.9153V14.308C20.0984 14.2146 19.6799 14.1653 19.25 14.1653C18.82 14.1653 18.4015 14.2146 18 14.308V6.9153C18 5.53459 16.8807 4.4153 15.5 4.4153C14.1193 4.4153 13 5.53459 13 6.9153V18.1653C13 20.7887 10.8733 22.9153 8.24997 22.9153C5.62662 22.9153 3.49997 20.7887 3.49997 18.1653V9.40794H5.99997Z" fill="black"/>
<path d="M19.25 15.4153C16.9028 15.4153 15 17.3181 15 19.6653C15 22.0125 16.9028 23.9153 19.25 23.9153C21.5972 23.9153 23.5 22.0125 23.5 19.6653C23.5 17.3181 21.5972 15.4153 19.25 15.4153Z" fill="black"/>
</svg>
