<svg width="24" height="24" viewBox="0 0 24 24" fill="none" xmlns="http://www.w3.org/2000/svg">
<path fill-rule="evenodd" clip-rule="evenodd" d="M22.3475 2.5C23.0055 2.5 23.4842 3.12458 23.3131 3.75997L20.3543 14.75H16.445L20.91 3.14102C21.0585 2.75483 21.4296 2.5 21.8433 2.5H22.3475ZM22.3475 3.5L21.8433 3.5L17.901 13.75H19.5879L22.3475 3.5Z" fill="black"/>
<path fill-rule="evenodd" clip-rule="evenodd" d="M12.5188 2.5C13.0561 2.5 13.4974 2.92463 13.5181 3.46157L13.9522 14.75H10.0946L10.9659 3.4233C11.006 2.90231 11.4404 2.5 11.963 2.5H12.5188ZM12.5188 3.5H11.963L11.1745 13.75H12.913L12.5188 3.5Z" fill="black"/>
<path fill-rule="evenodd" clip-rule="evenodd" d="M2.15655 2.5C2.57032 2.5 2.94136 2.75483 3.08989 3.14102L7.55488 14.75H3.6456L0.686752 3.75997C0.51568 3.12457 0.994346 2.5 1.65237 2.5H2.15655ZM2.15655 3.5L1.65237 3.5L4.41198 13.75H6.09886L2.15655 3.5Z" fill="black"/>
<path fill-rule="evenodd" clip-rule="evenodd" d="M3.84078 15.75C3.54575 15.75 3.36028 15.7499 3.18092 15.7879C3.02206 15.8215 2.86866 15.877 2.72511 15.9529C2.56304 16.0386 2.42057 16.1573 2.19395 16.3462L2.04305 16.472C1.67105 16.782 1.37923 17.0252 1.16423 17.2385C0.945838 17.4552 0.786884 17.6598 0.699369 17.8992C0.557567 18.2872 0.557567 18.7128 0.699369 19.1008C0.786884 19.3402 0.945838 19.5448 1.16423 19.7615C1.37923 19.9748 1.67104 20.218 2.04305 20.528L2.19395 20.6538C2.42057 20.8427 2.56304 20.9614 2.72511 21.0471C2.86866 21.123 3.02206 21.1785 3.18092 21.2121C3.36028 21.2501 3.54575 21.25 3.84078 21.25H20.1591C20.4541 21.25 20.6396 21.2501 20.819 21.2121C20.9778 21.1785 21.1312 21.123 21.2748 21.0471C21.4368 20.9614 21.5793 20.8427 21.8059 20.6538L21.9568 20.528C22.3288 20.218 22.6207 19.9748 22.8357 19.7615C23.054 19.5448 23.213 19.3402 23.3005 19.1008C23.4423 18.7128 23.4423 18.2872 23.3005 17.8992C23.213 17.6598 23.054 17.4552 22.8357 17.2385C22.6207 17.0252 22.3289 16.782 21.9569 16.472L21.8059 16.3462C21.5793 16.1574 21.4368 16.0386 21.2748 15.9529C21.1312 15.877 20.9778 15.8215 20.819 15.7879C20.6396 15.7499 20.4541 15.75 20.1591 15.75H3.84078ZM8.49995 19H20.9999C21.2761 19 21.4999 18.7761 21.4999 18.5C21.4999 18.2239 21.2761 18 20.9999 18L8.49995 18C8.2238 18 7.99995 18.2239 7.99995 18.5C7.99995 18.7761 8.2238 19 8.49995 19ZM5.24995 18.5C5.24995 18.2239 5.4738 18 5.74995 18H5.99995C6.27609 18 6.49995 18.2239 6.49995 18.5C6.49995 18.7761 6.27609 19 5.99995 19H5.74995C5.4738 19 5.24995 18.7761 5.24995 18.5ZM2.49995 18.5C2.49995 18.2239 2.7238 18 2.99995 18H3.24995C3.52609 18 3.74995 18.2239 3.74995 18.5C3.74995 18.7761 3.52609 19 3.24995 19H2.99995C2.7238 19 2.49995 18.7761 2.49995 18.5Z" fill="black"/>
</svg>
