<svg width="24" height="24" viewBox="0 0 24 24" fill="none" xmlns="http://www.w3.org/2000/svg">
<path fill-rule="evenodd" clip-rule="evenodd" d="M20.807 16.2725L13.7357 23.3438C13.6179 23.4616 13.4866 23.5584 13.35 23.6406C13.3248 23.6558 13.2995 23.6716 13.2738 23.6855C13.2491 23.699 13.2238 23.7113 13.1986 23.7236C13.1697 23.7378 13.1411 23.752 13.1117 23.7646C13.0824 23.7773 13.0526 23.7887 13.0228 23.7998C12.9941 23.8105 12.965 23.8207 12.9359 23.8301C12.9091 23.8387 12.8819 23.847 12.8549 23.8545C12.8262 23.8624 12.7968 23.8694 12.7679 23.876C12.7343 23.8837 12.7003 23.8915 12.6664 23.8975C12.6489 23.9005 12.6312 23.9027 12.6136 23.9053C12.4925 23.9231 12.3705 23.9292 12.2484 23.9248C12.2129 23.9235 12.1774 23.9221 12.142 23.9189C12.1205 23.917 12.0989 23.9147 12.0775 23.9121C12.0397 23.9075 12.0018 23.9023 11.9642 23.8955C11.936 23.8904 11.9082 23.8833 11.8802 23.877C11.8509 23.8703 11.8214 23.8634 11.7924 23.8555C11.7622 23.8472 11.7323 23.8388 11.7025 23.8291C11.6731 23.8195 11.6437 23.8088 11.6146 23.7979C11.5884 23.788 11.5623 23.7776 11.5365 23.7666C11.5056 23.7534 11.475 23.7394 11.4447 23.7246C11.4181 23.7116 11.3917 23.6978 11.3656 23.6836C11.3423 23.6709 11.3192 23.6573 11.2963 23.6436C11.2649 23.6248 11.233 23.6066 11.2025 23.5859C11.1953 23.581 11.1882 23.5753 11.181 23.5703C11.0854 23.5037 10.9929 23.429 10.9076 23.3438L1.00719 13.4434C0.960434 13.3966 0.916514 13.3479 0.875358 13.2979C0.858157 13.2769 0.842752 13.2539 0.82653 13.2324C0.803057 13.2014 0.779588 13.1707 0.758171 13.1387C0.745321 13.1194 0.733173 13.0996 0.721061 13.0801C0.69864 13.0439 0.676499 13.007 0.656608 12.9697C0.647467 12.9525 0.639851 12.9344 0.631218 12.917C0.611892 12.878 0.593155 12.8387 0.57653 12.7988C0.567524 12.7772 0.559356 12.7553 0.55114 12.7334C0.537279 12.6965 0.523679 12.6596 0.512077 12.6221C0.505487 12.6008 0.500351 12.5791 0.494499 12.5576C0.482705 12.5144 0.472088 12.4706 0.463249 12.4268C0.46037 12.4125 0.457026 12.3981 0.45446 12.3838C0.446871 12.3414 0.440747 12.2986 0.435905 12.2559C0.432919 12.2295 0.430032 12.2032 0.428093 12.1768C0.425548 12.142 0.423948 12.1071 0.42321 12.0723C0.422587 12.043 0.422552 12.0137 0.42321 11.9844C0.423881 11.9549 0.426123 11.925 0.428093 11.8955C0.430205 11.8639 0.432298 11.8323 0.435905 11.8008C0.439406 11.7703 0.443701 11.7393 0.448601 11.709C0.453987 11.6756 0.460077 11.6425 0.467155 11.6094C0.472697 11.5835 0.480101 11.5579 0.486686 11.5322C0.494945 11.5 0.503171 11.4674 0.513054 11.4355C0.524465 11.3988 0.537557 11.3623 0.55114 11.3262C0.558674 11.3061 0.565413 11.2855 0.573601 11.2656C0.599905 11.202 0.628333 11.1384 0.661491 11.0771L0.751335 10.9287C0.787763 10.8736 0.827034 10.8197 0.869499 10.7676L1.00719 10.6152L8.07848 3.54395L20.807 16.2725ZM12.1752 17.832C12.0781 17.9297 12.0777 18.0881 12.1752 18.1855C12.2727 18.2822 12.4313 18.2823 12.5287 18.1855L17.2709 13.4434L16.9174 13.0898L12.1752 17.832ZM10.6156 13.4414C10.518 13.539 10.5182 13.6973 10.6156 13.7949C10.7133 13.892 10.8717 13.8924 10.9691 13.7949L14.2963 10.4688L13.9427 10.1152L10.6156 13.4414ZM6.16442 11.8213C6.06776 11.919 6.06722 12.0775 6.16442 12.1748C6.26179 12.2715 6.42043 12.2713 6.51794 12.1748L11.2601 7.43262L10.9066 7.0791L6.16442 11.8213Z" fill="black"/>
<path d="M13.9134 1.28809C14.0512 1.28831 14.1633 1.4003 14.1634 1.53809C14.1632 1.67582 14.0512 1.78786 13.9134 1.78809H12.5238L22.8549 12.1191V10.7305C22.8552 10.5927 22.967 10.4805 23.1049 10.4805C23.2427 10.4806 23.3557 10.5926 23.3558 10.7305L23.3549 12.7314C23.3543 12.8689 23.2425 12.9813 23.1049 12.9814H21.1049C20.9671 12.9813 20.8551 12.8683 20.8549 12.7305C20.855 12.5927 20.9671 12.4807 21.1049 12.4805L22.5101 12.4814L12.1634 2.13477V3.53809C12.1632 3.6759 12.0513 3.78797 11.9134 3.78809C11.7756 3.78802 11.6637 3.67593 11.6634 3.53809V1.53809C11.6636 1.4002 11.7755 1.28815 11.9134 1.28809H13.9134Z" fill="black"/>
</svg>
