<svg width="24" height="24" viewBox="0 0 24 24" fill="none" xmlns="http://www.w3.org/2000/svg">
<path fill-rule="evenodd" clip-rule="evenodd" d="M20.5071 15.9951L13.4368 23.0664C13.3187 23.1844 13.1869 23.2819 13.05 23.3643C13.0249 23.3794 12.9995 23.3943 12.9739 23.4082C12.9492 23.4216 12.9238 23.434 12.8987 23.4463C12.8695 23.4606 12.8404 23.4745 12.8108 23.4873C12.7837 23.4989 12.7562 23.5102 12.7287 23.5205C12.6977 23.5323 12.6665 23.5436 12.635 23.5537C12.6114 23.5613 12.5875 23.5685 12.5637 23.5752C12.5295 23.5848 12.4948 23.5938 12.4602 23.6016C12.4321 23.6079 12.4036 23.6141 12.3752 23.6191C12.3486 23.6239 12.3219 23.6272 12.2951 23.6309C12.2608 23.6356 12.2262 23.6396 12.1916 23.6426C12.0748 23.6525 11.9568 23.6521 11.8401 23.6416C11.8228 23.64 11.8056 23.6378 11.7883 23.6357C11.7456 23.6308 11.7028 23.6249 11.6604 23.6172C11.6372 23.6129 11.6141 23.6076 11.591 23.6025C11.5554 23.5947 11.5198 23.5869 11.4846 23.5771C11.4622 23.5709 11.4395 23.5637 11.4172 23.5566C11.3771 23.544 11.3375 23.5299 11.2981 23.5146C11.2812 23.5081 11.264 23.5012 11.2473 23.4941C11.2072 23.4773 11.1674 23.459 11.1282 23.4395C11.1105 23.4306 11.0929 23.4215 11.0754 23.4121C11.026 23.3855 10.9774 23.3572 10.9299 23.3262C10.9266 23.324 10.9225 23.3225 10.9192 23.3203C10.8679 23.2864 10.8175 23.2501 10.7688 23.2109C10.7629 23.2062 10.757 23.2011 10.7512 23.1963L10.6067 23.0664L0.707258 13.167C0.611712 13.0714 0.52844 12.9677 0.456281 12.8594C0.448924 12.8483 0.442895 12.8364 0.435774 12.8252C0.371381 12.7242 0.316172 12.6194 0.271711 12.5107C0.26857 12.5031 0.265964 12.494 0.262922 12.4863C0.242939 12.4356 0.223909 12.3849 0.208235 12.333C0.205116 12.3227 0.202394 12.3121 0.199445 12.3018C0.16697 12.1876 0.144822 12.0714 0.133039 11.9541C0.131975 11.9435 0.131005 11.9325 0.13011 11.9219C0.12593 11.8722 0.123756 11.8223 0.123274 11.7725C0.123138 11.7588 0.12313 11.7451 0.123274 11.7314C0.123785 11.6846 0.126331 11.6375 0.13011 11.5908C0.131534 11.573 0.132102 11.5549 0.134016 11.5371C0.138717 11.4937 0.146011 11.4503 0.153547 11.4072C0.156807 11.3885 0.159504 11.3693 0.163313 11.3506C0.173539 11.3007 0.186354 11.2513 0.200422 11.2021C0.202884 11.1935 0.20469 11.1844 0.207258 11.1758C0.280808 10.9314 0.401501 10.6974 0.570539 10.4902L0.707258 10.3389L7.77757 3.26758L7.77855 3.26855L7.77952 3.26758L20.5071 15.9951ZM15.0403 13.3584C14.9839 13.3953 14.9307 13.4388 14.8811 13.4883L11.345 17.0244C10.9551 17.4149 10.9548 18.0481 11.345 18.4385C11.7354 18.8283 12.3696 18.8285 12.76 18.4385L16.2951 14.9033C16.3448 14.8537 16.388 14.7997 16.425 14.7432L15.0403 13.3584ZM12.0666 10.3838C12.0103 10.4207 11.956 10.4642 11.9065 10.5137L9.78538 12.6348C9.39503 13.0252 9.39508 13.6583 9.78538 14.0488C10.1759 14.4387 10.8091 14.439 11.1994 14.0488L13.3205 11.9277C13.37 11.8782 13.4135 11.8239 13.4504 11.7676L12.0666 10.3838ZM9.02952 7.34766C8.97339 7.3845 8.92069 7.42823 8.87132 7.47754L5.33519 11.0137C4.94513 11.4042 4.94487 12.0374 5.33519 12.4277C5.72576 12.8177 6.3599 12.8181 6.75023 12.4277L10.2854 8.8916C10.3347 8.8422 10.3774 8.78861 10.4143 8.73242L9.02952 7.34766Z" fill="black"/>
<path d="M13.6135 0.261719C14.1657 0.261793 14.6135 0.70948 14.6135 1.26172C14.6132 1.68849 14.3456 2.05211 13.969 2.19531L21.8723 10.0986C22.0158 9.7221 22.379 9.45313 22.8059 9.45312C23.3579 9.45344 23.8059 9.90201 23.8059 10.4541V12.4541C23.8054 13.0058 23.3576 13.4538 22.8059 13.4541H20.8059C20.2539 13.4541 19.8054 13.006 19.8049 12.4541C19.805 12.023 20.0788 11.6561 20.4612 11.5156L12.552 3.60645C12.4112 3.98821 12.0441 4.26068 11.6135 4.26074C11.0618 4.26045 10.615 3.81339 10.6145 3.26172V1.26172C10.6145 0.709613 11.0615 0.26201 11.6135 0.261719H13.6135Z" fill="black"/>
</svg>
