<svg width="24" height="24" viewBox="0 0 24 24" fill="none" xmlns="http://www.w3.org/2000/svg">
<path fill-rule="evenodd" clip-rule="evenodd" d="M23 9.99893V22.9999H1V9.99893H23ZM5.75 16.9999C5.75015 17.6901 6.30974 18.2499 7 18.2499C7.69026 18.2499 8.24985 17.6901 8.25 16.9999V11.9999H5.75V16.9999ZM15.75 16.9999C15.7502 17.6901 16.3097 18.2499 17 18.2499C17.6903 18.2499 18.2498 17.6901 18.25 16.9999V11.9999H15.75V16.9999ZM10.75 14.9999C10.7502 15.6901 11.3097 16.2499 12 16.2499C12.6903 16.2499 13.2498 15.6901 13.25 14.9999V11.9999H10.75V14.9999Z" fill="black"/>
<path d="M19.2803 2.11612C19.7684 1.62796 20.5597 1.62796 21.0479 2.11612L22.4619 3.53018C22.9498 4.01836 22.95 4.8097 22.4619 5.29776L21.0479 6.71182C20.5598 7.19974 19.7684 7.19963 19.2803 6.71182C18.9934 6.42496 18.8755 6.03329 18.9258 5.66006H5.40137C5.45167 6.03332 5.33473 6.42494 5.04785 6.71182C4.55973 7.19979 3.76839 7.19979 3.28027 6.71182L1.86621 5.29776C1.3781 4.80965 1.3782 4.01835 1.86621 3.53018L3.28027 2.11612C3.76843 1.62796 4.5597 1.62796 5.04785 2.11612C5.33268 2.40113 5.45016 2.78909 5.40234 3.16006H18.9248C18.877 2.78905 18.9954 2.40113 19.2803 2.11612Z" fill="black"/>
</svg>
