<svg width="24" height="24" viewBox="0 0 24 24" fill="none" xmlns="http://www.w3.org/2000/svg">
<path fill-rule="evenodd" clip-rule="evenodd" d="M23 22.9999H1V10.9999H23V22.9999ZM9 16.9999C9.00008 17.5521 9.44777 17.9999 10 17.9999C10.5522 17.9999 10.9999 17.5521 11 16.9999V12.4999H9V16.9999ZM17 16.9999C17.0001 17.5521 17.4478 17.9999 18 17.9999C18.5522 17.9999 18.9999 17.5521 19 16.9999V12.4999H17V16.9999ZM5 14.9999C5.00008 15.5521 5.44777 15.9999 6 15.9999C6.55223 15.9999 6.99992 15.5521 7 14.9999V12.4999H5V14.9999ZM13 14.9999C13.0001 15.5521 13.4478 15.9999 14 15.9999C14.5522 15.9999 14.9999 15.5521 15 14.9999V12.4999H13V14.9999Z" fill="black"/>
<path d="M19.457 2.29289C19.8476 1.90237 20.4806 1.90237 20.8711 2.29289L22.2852 3.70696C22.6755 4.0975 22.6756 4.73056 22.2852 5.12102L20.8711 6.53508C20.4806 6.92546 19.8475 6.92537 19.457 6.53508C19.1526 6.23068 19.0867 5.77951 19.2568 5.41008H5.07129C5.24138 5.77949 5.17547 6.2307 4.87109 6.53508C4.48059 6.9255 3.84754 6.9255 3.45703 6.53508L2.04297 5.12102C1.65247 4.73052 1.65252 4.09749 2.04297 3.70696L3.45703 2.29289C3.84756 1.90237 4.48057 1.90237 4.87109 2.29289C5.17321 2.59518 5.24085 3.04218 5.0752 3.41008H19.2529C19.0872 3.04211 19.1548 2.59521 19.457 2.29289Z" fill="black"/>
</svg>
