<svg width="24" height="24" viewBox="0 0 24 24" fill="none" xmlns="http://www.w3.org/2000/svg">
<path fill-rule="evenodd" clip-rule="evenodd" d="M20.6309 16.1982L13.5596 23.2695L13.4072 23.4062C12.6741 24.0043 11.616 24.0041 10.8828 23.4062L10.7314 23.2695L0.832035 13.3701C0.099751 12.6378 0.054394 11.4789 0.695316 10.6934L0.832035 10.542L7.90235 3.4707L20.6309 16.1982ZM1.89258 11.6025C1.69733 11.7978 1.69736 12.1143 1.89258 12.3096L11.792 22.209C11.9873 22.4036 12.304 22.404 12.499 22.209L18.5088 16.1982L16.7412 14.4297L12.7061 18.4648C12.4134 18.7572 11.9383 18.7569 11.6455 18.4648C11.3527 18.1721 11.353 17.6972 11.6455 17.4043L15.6797 13.3691L13.7656 11.4551L11.1465 14.0752C10.8538 14.3679 10.3779 14.3675 10.085 14.0752C9.79256 13.7824 9.79251 13.3074 10.085 13.0146L12.7051 10.3945L10.7305 8.41992L6.69532 12.4541C6.40257 12.7461 5.92748 12.7462 5.63477 12.4541C5.34237 12.1614 5.34265 11.6864 5.63477 11.3936L9.66993 7.35938L7.90235 5.5918L1.89258 11.6025Z" fill="black"/>
<path d="M13.7373 0.714844C14.1513 0.715074 14.4873 1.05077 14.4873 1.46484C14.4869 1.87855 14.1511 2.21461 13.7373 2.21484H13.5547L22.1787 10.8389V10.6562C22.179 10.2423 22.5147 9.90625 22.9287 9.90625C23.3427 9.90634 23.6784 10.2423 23.6787 10.6562L23.6797 12.6572C23.6793 13.071 23.3426 13.4071 22.9287 13.4072L20.9277 13.4062C20.5142 13.4058 20.1791 13.0708 20.1787 12.6572C20.1787 12.2433 20.5139 11.9077 20.9277 11.9072H21.126L12.4873 3.26855V3.46484C12.4869 3.87862 12.1512 4.21375 11.7373 4.21387C11.3234 4.21384 10.9877 3.87867 10.9873 3.46484V1.46484C10.9873 1.05065 11.3231 0.714872 11.7373 0.714844H13.7373Z" fill="black"/>
</svg>
