<svg width="24" height="24" viewBox="0 0 24 24" fill="none" xmlns="http://www.w3.org/2000/svg">
<path fill-rule="evenodd" clip-rule="evenodd" d="M23 22.9999H1V9.99991H23V22.9999ZM3.5 20.4999H20.5V12.4999H18.25V16.9999C18.2499 17.6902 17.6903 18.2499 17 18.2499C16.3097 18.2499 15.7501 17.6902 15.75 16.9999V12.4999H13.25V14.9999C13.2499 15.6902 12.6903 16.2499 12 16.2499C11.3097 16.2499 10.7501 15.6902 10.75 14.9999V12.4999H8.25V16.9999C8.2499 17.6902 7.69029 18.2499 7 18.2499C6.30971 18.2499 5.7501 17.6902 5.75 16.9999V12.4999H3.5V20.4999Z" fill="black"/>
<path d="M19.2803 2.11612C19.7684 1.62796 20.5597 1.62796 21.0479 2.11612L22.4619 3.53018C22.9498 4.01835 22.95 4.80968 22.4619 5.29776L21.0479 6.71182C20.5598 7.1998 19.7684 7.1997 19.2803 6.71182C18.9934 6.42494 18.8755 6.03332 18.9258 5.66006H5.40137C5.4517 6.03335 5.33475 6.42492 5.04785 6.71182C4.55972 7.19985 3.7684 7.19985 3.28027 6.71182L1.86621 5.29776C1.37809 4.80963 1.37815 4.01834 1.86621 3.53018L3.28027 2.11612C3.76843 1.62796 4.5597 1.62796 5.04785 2.11612C5.33271 2.40113 5.45017 2.78907 5.40234 3.16006H18.9248C18.877 2.78903 18.9953 2.40113 19.2803 2.11612Z" fill="black"/>
</svg>
