<svg width="24" height="24" viewBox="0 0 24 24" fill="none" xmlns="http://www.w3.org/2000/svg">
<path fill-rule="evenodd" clip-rule="evenodd" d="M20.6318 16.1982L13.5605 23.2695L13.4092 23.4062C13.3069 23.4897 13.1972 23.56 13.084 23.6201C13.0719 23.6265 13.0591 23.6325 13.0469 23.6387C13.0095 23.6575 12.9718 23.675 12.9336 23.6914C12.9058 23.7033 12.8769 23.714 12.8486 23.7246C12.8194 23.7356 12.7904 23.7473 12.7607 23.7568C12.7371 23.7644 12.7132 23.7716 12.6894 23.7783C12.65 23.7894 12.6103 23.799 12.5703 23.8076C12.5489 23.8122 12.5273 23.8164 12.5059 23.8203C12.4734 23.8262 12.4409 23.8316 12.4082 23.8359C12.3785 23.8399 12.3481 23.8441 12.3184 23.8467C12.202 23.8566 12.0851 23.856 11.9687 23.8457C11.9431 23.8434 11.9172 23.8402 11.8916 23.8369C11.8583 23.8327 11.8251 23.8282 11.792 23.8223C11.7591 23.8164 11.726 23.8093 11.6934 23.8018C11.6701 23.7964 11.6471 23.7904 11.624 23.7842C11.5883 23.7746 11.5528 23.7636 11.5176 23.752C11.4961 23.7448 11.4744 23.7373 11.4531 23.7295C11.4144 23.7152 11.3758 23.7003 11.3379 23.6836C11.3275 23.679 11.317 23.6737 11.3066 23.6689C11.2648 23.6496 11.2233 23.6288 11.1826 23.6064C11.1654 23.5969 11.1488 23.5862 11.1318 23.5762C11.0968 23.5555 11.0614 23.5347 11.0273 23.5117C11.0217 23.5079 11.0163 23.5039 11.0107 23.5C10.9129 23.4324 10.8186 23.3566 10.7314 23.2695L0.832023 13.3701C0.698873 13.237 0.589697 13.0882 0.501945 12.9316C0.498577 12.9257 0.494514 12.9201 0.491203 12.9141C0.465977 12.8679 0.443184 12.8201 0.421867 12.7725C0.418087 12.764 0.413792 12.7555 0.410148 12.7471C0.363795 12.6395 0.328324 12.5287 0.30175 12.416C0.300704 12.4116 0.299813 12.4068 0.29882 12.4023C0.286544 12.3486 0.276329 12.2937 0.268547 12.2393C0.267702 12.2334 0.267372 12.2275 0.266594 12.2217C0.259728 12.1703 0.253847 12.1191 0.250969 12.0674C0.250384 12.0568 0.25041 12.0457 0.249992 12.0352C0.247942 11.9834 0.247064 11.9317 0.249016 11.8799C0.249261 11.8734 0.249688 11.8669 0.249992 11.8604C0.272852 11.3809 0.465892 10.9081 0.832023 10.542L7.90234 3.4707L7.90331 3.47168L7.90429 3.4707L20.6318 16.1982ZM11.6455 17.4043C11.353 17.6972 11.3527 18.1721 11.6455 18.4648C11.9383 18.757 12.4133 18.7572 12.706 18.4648L16.7412 14.4297L15.6807 13.3691L11.6455 17.4043ZM10.0859 13.0146C9.7931 13.3075 9.79321 13.7823 10.0859 14.0752C10.3789 14.3673 10.8539 14.3678 11.1465 14.0752L13.7666 11.4541L12.706 10.3936L10.0859 13.0146ZM5.63476 11.3936C5.3427 11.6864 5.34244 12.1614 5.63476 12.4541C5.92746 12.7462 6.40255 12.7461 6.6953 12.4541L10.7314 8.41895L9.67089 7.3584L5.63476 11.3936Z" fill="black"/>
<path d="M13.7373 0.714844C14.1514 0.71499 14.4873 1.05072 14.4873 1.46484C14.4869 1.8786 14.1511 2.2147 13.7373 2.21484H13.5547L22.1787 10.8389V10.6562C22.179 10.2423 22.5147 9.9063 22.9287 9.90625C23.3427 9.90631 23.6784 10.2423 23.6787 10.6562L23.6797 12.6572C23.6793 13.071 23.3426 13.4072 22.9287 13.4072L20.9287 13.4062C20.515 13.406 20.1791 13.0709 20.1787 12.6572C20.1787 12.2432 20.5147 11.9075 20.9287 11.9072H21.126L12.4873 3.26855V3.46484C12.4869 3.87866 12.1512 4.21382 11.7373 4.21387C11.3234 4.21383 10.9877 3.87866 10.9873 3.46484V1.46484C10.9873 1.05066 11.3231 0.714885 11.7373 0.714844H13.7373Z" fill="black"/>
</svg>
