<svg width="24" height="24" viewBox="0 0 24 24" fill="none" xmlns="http://www.w3.org/2000/svg">
<path fill-rule="evenodd" clip-rule="evenodd" d="M12 23C18.0751 23 23 18.0751 23 12C23 5.92487 18.0751 1 12 1C5.92487 1 1 5.92487 1 12C1 18.0751 5.92487 23 12 23ZM16.0519 17C16.472 17 16.6821 17 16.8215 16.8832C16.9301 16.7921 17.0075 16.613 16.9994 16.4714C16.989 16.2899 16.8636 16.1565 16.6126 15.8897C15.5183 14.7264 13.9648 14 12.2416 14C10.5184 14 8.96488 14.7264 7.87055 15.8897C7.61961 16.1565 7.49414 16.2899 7.48376 16.4714C7.47566 16.613 7.55308 16.7921 7.66171 16.8832C7.80108 17 8.01114 17 8.43126 17H16.0519ZM17 9.5C17 10.0523 16.5523 10.5 16 10.5C15.4477 10.5 15 10.0523 15 9.5C15 8.94772 15.4477 8.5 16 8.5C16.5523 8.5 17 8.94772 17 9.5ZM9.5 9.5C9.5 10.0523 9.05228 10.5 8.5 10.5C7.94771 10.5 7.5 10.0523 7.5 9.5C7.5 8.94772 7.94771 8.5 8.5 8.5C9.05228 8.5 9.5 8.94772 9.5 9.5Z" fill="black"/>
</svg>
