<svg width="24" height="24" viewBox="0 0 24 24" fill="none" xmlns="http://www.w3.org/2000/svg">
<path fill-rule="evenodd" clip-rule="evenodd" d="M12 24C18.6274 24 24 18.6274 24 12C24 5.37258 18.6274 0 12 0C5.37258 0 0 5.37258 0 12C0 18.6274 5.37258 24 12 24ZM16.0519 17C16.472 17 16.6821 17 16.8215 16.8832C16.9301 16.7921 17.0075 16.613 16.9994 16.4714C16.989 16.2899 16.8636 16.1565 16.6126 15.8897C15.5183 14.7264 13.9648 14 12.2416 14C10.5184 14 8.96488 14.7264 7.87055 15.8897C7.61961 16.1565 7.49414 16.2899 7.48376 16.4714C7.47566 16.613 7.55308 16.7921 7.66171 16.8832C7.80108 17 8.01114 17 8.43126 17H16.0519ZM17.75 9.5C17.75 10.4665 16.9665 11.25 16 11.25C15.0335 11.25 14.25 10.4665 14.25 9.5C14.25 8.5335 15.0335 7.75 16 7.75C16.9665 7.75 17.75 8.5335 17.75 9.5ZM10.25 9.5C10.25 10.4665 9.4665 11.25 8.5 11.25C7.5335 11.25 6.75 10.4665 6.75 9.5C6.75 8.5335 7.5335 7.75 8.5 7.75C9.4665 7.75 10.25 8.5335 10.25 9.5Z" fill="black"/>
</svg>
