<svg width="24" height="24" viewBox="0 0 24 24" fill="none" xmlns="http://www.w3.org/2000/svg">
<path d="M15.8107 17C16.2308 17 16.4409 17 16.5803 16.8832C16.6889 16.7921 16.7663 16.613 16.7582 16.4714C16.7478 16.2899 16.6224 16.1565 16.3714 15.8897C15.2771 14.7264 13.7236 14 12.0004 14C10.2772 14 8.72367 14.7264 7.62934 15.8897C7.3784 16.1565 7.25293 16.2899 7.24255 16.4714C7.23445 16.613 7.31187 16.7921 7.4205 16.8832C7.55987 17 7.76993 17 8.19005 17H15.8107Z" fill="black"/>
<path d="M17 9.5C17 10.0523 16.5523 10.5 16 10.5C15.4477 10.5 15 10.0523 15 9.5C15 8.94772 15.4477 8.5 16 8.5C16.5523 8.5 17 8.94772 17 9.5Z" fill="black"/>
<path d="M9.5 9.5C9.5 10.0523 9.05228 10.5 8.5 10.5C7.94771 10.5 7.5 10.0523 7.5 9.5C7.5 8.94772 7.94771 8.5 8.5 8.5C9.05228 8.5 9.5 8.94772 9.5 9.5Z" fill="black"/>
<path fill-rule="evenodd" clip-rule="evenodd" d="M23 12C23 18.0751 18.0751 23 12 23C5.92487 23 1 18.0751 1 12C1 5.92487 5.92487 1 12 1C18.0751 1 23 5.92487 23 12ZM12 22C17.5228 22 22 17.5228 22 12C22 6.47715 17.5228 2 12 2C6.47715 2 2 6.47715 2 12C2 17.5228 6.47715 22 12 22Z" fill="black"/>
</svg>
