<svg width="24" height="24" viewBox="0 0 24 24" fill="none" xmlns="http://www.w3.org/2000/svg">
<path d="M16.0519 17C16.472 17 16.6821 17 16.8215 16.8832C16.9301 16.7921 17.0075 16.613 16.9994 16.4714C16.989 16.2899 16.8636 16.1565 16.6126 15.8897C15.5183 14.7264 13.9648 14 12.2416 14C10.5184 14 8.96488 14.7264 7.87055 15.8897C7.61961 16.1565 7.49414 16.2899 7.48376 16.4714C7.47566 16.613 7.55308 16.7921 7.66171 16.8832C7.80108 17 8.01114 17 8.43126 17H16.0519Z" fill="black"/>
<path d="M17.5 9.5C17.5 10.3284 16.8284 11 16 11C15.1716 11 14.5 10.3284 14.5 9.5C14.5 8.67157 15.1716 8 16 8C16.8284 8 17.5 8.67157 17.5 9.5Z" fill="black"/>
<path d="M10 9.5C10 10.3284 9.32843 11 8.5 11C7.67157 11 7 10.3284 7 9.5C7 8.67157 7.67157 8 8.5 8C9.32843 8 10 8.67157 10 9.5Z" fill="black"/>
<path fill-rule="evenodd" clip-rule="evenodd" d="M24 12C24 18.6274 18.6274 24 12 24C5.37258 24 0 18.6274 0 12C0 5.37258 5.37258 0 12 0C18.6274 0 24 5.37258 24 12ZM12 22C17.5228 22 22 17.5228 22 12C22 6.47715 17.5228 2 12 2C6.47715 2 2 6.47715 2 12C2 17.5228 6.47715 22 12 22Z" fill="black"/>
</svg>
