<svg width="24" height="24" viewBox="0 0 24 24" fill="none" xmlns="http://www.w3.org/2000/svg">
<path d="M1.77721 22.1102C1.71568 21.9868 1.76611 21.837 1.88951 21.7753L3.994 20.7225C4.07893 20.6803 4.1761 20.692 4.24889 20.743C3.82817 19.5155 4.36785 18.1363 5.56041 17.5399L8.00963 16.3153C11.9302 14.3548 14.9646 10.984 16.5038 6.87976L16.9042 5.81238C17.4053 4.47665 18.8756 3.79071 20.2167 4.2489C20.1765 4.1917 20.1604 4.11802 20.1786 4.0448L20.7049 1.93933C20.7385 1.80554 20.8738 1.72427 21.0077 1.75769C21.1414 1.79127 21.2226 1.92664 21.1893 2.06043L20.6629 4.1659C20.6386 4.26252 20.5611 4.33209 20.4696 4.35047C21.7105 4.92189 22.319 6.3605 21.8319 7.66004L21.4315 8.72742C19.4259 14.0756 15.4719 18.4677 10.3631 21.0223L7.91392 22.247C6.61407 22.8968 5.03357 22.37 4.38365 21.0702C4.37117 21.0452 4.36109 21.0192 4.34947 20.994C4.33499 21.0672 4.28943 21.1337 4.21764 21.1698L2.11217 22.2225C1.98876 22.2839 1.83888 22.2336 1.77721 22.1102Z" fill="black"/>
<path d="M9.12486 10.6102C7.95956 9.44479 7.95947 7.55492 9.12486 6.38953C10.1406 5.37349 10.0848 3.70986 9.00377 2.76355L8.91783 2.68836C8.81405 2.59742 8.80351 2.4387 8.89439 2.33484C8.98526 2.23138 9.14314 2.22091 9.24693 2.3114L9.33287 2.38758C10.6315 3.52435 10.6987 5.52249 9.47838 6.74304C8.50825 7.71317 8.50834 9.28654 9.47838 10.2567L9.54478 10.3231C9.64202 10.4208 9.64223 10.5791 9.54478 10.6766C9.44728 10.7741 9.28893 10.7739 9.19127 10.6766L9.12486 10.6102Z" fill="black"/>
<path d="M5.12486 10.6102C3.95956 9.44479 3.95947 7.55492 5.12486 6.38953C6.14064 5.37349 6.08477 3.70986 5.00377 2.76355L4.91783 2.68836C4.81405 2.59742 4.80351 2.4387 4.89439 2.33484C4.98526 2.23138 5.14314 2.22091 5.24693 2.3114L5.33287 2.38758C6.63153 3.52435 6.69867 5.52249 5.47838 6.74304C4.50825 7.71317 4.50834 9.28654 5.47838 10.2567L5.54478 10.3231C5.64202 10.4208 5.64223 10.5791 5.54478 10.6766C5.44728 10.7741 5.28893 10.7739 5.19127 10.6766L5.12486 10.6102Z" fill="black"/>
</svg>
