<svg width="24" height="24" viewBox="0 0 24 24" fill="none" xmlns="http://www.w3.org/2000/svg">
<path fill-rule="evenodd" clip-rule="evenodd" d="M1.32938 22.3348C1.1445 21.9645 1.29519 21.5143 1.66532 21.329L3.40262 20.4598C3.15983 19.0308 3.86211 17.5519 5.22587 16.87L7.67508 15.6454C11.4258 13.7696 14.3294 10.5437 15.802 6.61707L16.2024 5.54969C16.7682 4.04226 18.2954 3.17682 19.8265 3.38758L20.219 1.81824C20.3198 1.41711 20.7269 1.17241 21.1282 1.27234C21.5295 1.37285 21.7739 1.78012 21.6741 2.18152L21.2386 3.92176C22.5209 4.77247 23.0975 6.42222 22.5345 7.92469L22.1341 8.99207C20.062 14.5171 15.9763 19.055 10.6985 21.6942L8.2493 22.9188C6.73574 23.6754 4.92548 23.19 3.97782 21.8495L2.33524 22.6708C1.96497 22.8554 1.51457 22.7049 1.32938 22.3348ZM5.89579 18.2118C4.9668 18.6766 4.59049 19.8069 5.05497 20.7362C5.51993 21.665 6.65027 22.0416 7.57938 21.577L10.0286 20.3524C14.9676 17.8825 18.7907 13.6353 20.7298 8.46473L21.1302 7.39734C21.4942 6.42491 21.0007 5.34045 20.0286 4.97547C19.0561 4.61109 17.9718 5.10459 17.6067 6.07703L17.2063 7.14441C15.6007 11.4255 12.4345 14.9421 8.34501 16.9872L5.89579 18.2118Z" fill="black"/>
<path d="M8.77079 10.9638C7.41032 9.60304 7.41017 7.39663 8.77079 6.03602C9.58189 5.22434 9.53774 3.89523 8.67411 3.13953L8.58817 3.06434C8.27665 2.79154 8.24515 2.31739 8.51786 2.00574C8.79062 1.69484 9.264 1.66323 9.57547 1.93543L9.66239 2.01063C11.1789 3.33773 11.2559 5.67138 9.83133 7.09656C9.0565 7.87139 9.05666 9.12828 9.83133 9.9032L9.89774 9.96961C10.1905 10.2624 10.1903 10.7372 9.89774 11.0302C9.60485 11.3231 9.13009 11.3231 8.83719 11.0302L8.77079 10.9638Z" fill="black"/>
<path d="M4.77079 10.9638C3.41032 9.60304 3.41017 7.39663 4.77079 6.03602C5.58189 5.22434 5.53774 3.89523 4.67411 3.13953L4.58817 3.06434C4.27665 2.79154 4.24515 2.31739 4.51786 2.00574C4.79062 1.69484 5.264 1.66323 5.57547 1.93543L5.66239 2.01063C7.17888 3.33773 7.25594 5.67138 5.83133 7.09656C5.0565 7.87139 5.05666 9.12828 5.83133 9.9032L5.89774 9.96961C6.19052 10.2624 6.19029 10.7372 5.89774 11.0302C5.60485 11.3231 5.13009 11.3231 4.83719 11.0302L4.77079 10.9638Z" fill="black"/>
</svg>
