<svg width="24" height="24" viewBox="0 0 24 24" fill="none" xmlns="http://www.w3.org/2000/svg">
<path d="M1.77684 22.1101C1.71532 21.9866 1.76575 21.8368 1.88914 21.7751L3.99364 20.7224C4.07856 20.6801 4.17574 20.6918 4.24852 20.7429C3.8278 19.5153 4.36749 18.1361 5.56004 17.5397L8.00926 16.3151C11.9298 14.3546 14.9642 10.9838 16.5034 6.87958L16.9038 5.8122C17.4049 4.47647 18.8752 3.79053 20.2163 4.24872C20.1761 4.19152 20.16 4.11784 20.1782 4.04462L20.7046 1.93915C20.7381 1.80535 20.8735 1.72409 21.0073 1.75751C21.141 1.79109 21.2223 1.92645 21.1889 2.06024L20.6626 4.16571C20.6383 4.26233 20.5608 4.33191 20.4692 4.35028C21.7101 4.9217 22.3186 6.36031 21.8315 7.65985L21.4311 8.72724C19.4255 14.0754 15.4715 18.4676 10.3628 21.0222L7.91356 22.2468C6.61371 22.8966 5.0332 22.3698 4.38329 21.07C4.3708 21.045 4.36072 21.019 4.34911 20.9938C4.33462 21.0671 4.28906 21.1336 4.21727 21.1696L2.1118 22.2224C1.9884 22.2838 1.83852 22.2334 1.77684 22.1101Z" fill="black"/>
<path d="M9.1245 10.61C7.95919 9.44461 7.95911 7.55473 9.1245 6.38935C10.1403 5.37331 10.0844 3.70968 9.0034 2.76337L8.91746 2.68817C8.81368 2.59723 8.80314 2.43852 8.89403 2.33466C8.9849 2.23119 9.14277 2.22073 9.24657 2.31122L9.3325 2.38739C10.6312 3.52416 10.6983 5.52231 9.47801 6.74286C8.50788 7.71299 8.50797 9.28635 9.47801 10.2565L9.54442 10.3229C9.64165 10.4206 9.64186 10.5789 9.54442 10.6765C9.44691 10.774 9.28856 10.7737 9.1909 10.6765L9.1245 10.61Z" fill="black"/>
<path d="M5.1245 10.61C3.95919 9.44461 3.95911 7.55473 5.1245 6.38935C6.14028 5.37331 6.0844 3.70968 5.0034 2.76337L4.91746 2.68817C4.81368 2.59723 4.80314 2.43852 4.89403 2.33466C4.9849 2.23119 5.14277 2.22073 5.24657 2.31122L5.3325 2.38739C6.63117 3.52416 6.69831 5.52231 5.47801 6.74286C4.50788 7.71299 4.50797 9.28635 5.47801 10.2565L5.54442 10.3229C5.64165 10.4206 5.64187 10.5789 5.54442 10.6765C5.44691 10.774 5.28856 10.7737 5.1909 10.6765L5.1245 10.61Z" fill="black"/>
</svg>
