<svg width="24" height="24" viewBox="0 0 24 24" fill="none" xmlns="http://www.w3.org/2000/svg">
<path fill-rule="evenodd" clip-rule="evenodd" d="M1.7762 22.1102C1.71473 21.9868 1.76513 21.8369 1.88851 21.7752L3.98128 20.7284C3.57983 19.4088 4.17305 17.9539 5.44808 17.3163L7.89729 16.0916C11.7612 14.1594 14.7514 10.8369 16.2684 6.79184L16.6688 5.72446C17.2047 4.29611 18.7532 3.54653 20.1932 3.97934L20.7039 1.9393C20.7375 1.80557 20.8729 1.72432 21.0067 1.75766C21.1404 1.79122 21.2216 1.9266 21.1883 2.0604L20.6619 4.16294C21.9617 4.81501 22.587 6.35571 22.0653 7.7479L21.6649 8.81528C19.6371 14.2225 15.6387 18.6631 10.4735 21.2459L8.02425 22.4706C6.6055 23.1795 4.88159 22.6085 4.16585 21.1952L2.11116 22.2225C1.98775 22.2839 1.83787 22.2335 1.7762 22.1102ZM5.67073 17.7635C4.49496 18.3519 4.01846 19.7827 4.60628 20.9588C5.19455 22.1348 6.62539 22.6112 7.80159 22.0233L10.2508 20.7987C15.3029 18.2723 19.2127 13.9284 21.1961 8.6395L21.5965 7.57211C22.058 6.34078 21.4342 4.96848 20.203 4.50669C18.9718 4.0453 17.5994 4.66916 17.1375 5.90024L16.7371 6.96762C15.1758 11.1309 12.0969 14.5502 8.11995 16.5389L5.67073 17.7635Z" fill="black"/>
<path d="M9.12386 10.6102C7.95856 9.44477 7.95849 7.55489 9.12386 6.3895C10.1397 5.37343 10.0839 3.70983 9.00276 2.76352L8.91683 2.68833C8.81306 2.5974 8.80254 2.43867 8.89339 2.33481C8.98425 2.23132 9.14212 2.22087 9.24593 2.31137L9.33186 2.38755C10.6307 3.52432 10.6978 5.52243 9.47737 6.74301C8.50727 7.71314 8.50734 9.28651 9.47737 10.2567L9.54378 10.3231C9.64113 10.4207 9.64131 10.5791 9.54378 10.6766C9.44624 10.7741 9.28791 10.774 9.19026 10.6766L9.12386 10.6102Z" fill="black"/>
<path d="M5.12386 10.6102C3.95856 9.44477 3.95849 7.55489 5.12386 6.3895C6.13973 5.37343 6.08389 3.70983 5.00276 2.76352L4.91683 2.68833C4.81306 2.5974 4.80254 2.43867 4.89339 2.33481C4.98425 2.23131 5.14212 2.22087 5.24593 2.31137L5.33186 2.38755C6.63065 3.52432 6.69776 5.52243 5.47737 6.74301C4.50726 7.71314 4.50734 9.28651 5.47737 10.2567L5.54378 10.3231C5.64113 10.4207 5.64131 10.5791 5.54378 10.6766C5.44624 10.7741 5.28791 10.774 5.19026 10.6766L5.12386 10.6102Z" fill="black"/>
</svg>
