<svg width="24" height="24" viewBox="0 0 24 24" fill="none" xmlns="http://www.w3.org/2000/svg">
<path d="M1.10469 22.4468C0.857794 21.953 1.05839 21.3522 1.55195 21.105L3.65742 20.0523C3.80204 19.98 3.95623 19.9473 4.10762 19.9478C4.08814 18.9644 4.6207 18.01 5.55879 17.5406L8.00801 16.316C11.9285 14.3556 14.9628 10.9845 16.5021 6.88042L16.9025 5.81304C17.3052 4.73938 18.3353 4.08713 19.4201 4.10894C19.4199 4.02788 19.4289 3.94506 19.4494 3.86284L19.9748 1.75835C20.1087 1.22276 20.6521 0.897257 21.1877 1.03081C21.7234 1.16474 22.049 1.70701 21.9152 2.24273L21.3889 4.34819C21.345 4.52292 21.2571 4.67512 21.1408 4.79644C21.91 5.50026 22.2187 6.6247 21.8303 7.66069L21.4299 8.72808C19.4242 14.0761 15.4702 18.4685 10.3615 21.023L7.91231 22.2476C6.8363 22.7852 5.56946 22.5153 4.79609 21.6695C4.72561 21.7368 4.64367 21.7955 4.55195 21.8414L2.44649 22.8941C1.95273 23.1406 1.35169 22.9404 1.10469 22.4468Z" fill="black"/>
<path d="M8.59297 11.1402C7.13501 9.68192 7.13497 7.31718 8.59297 5.85894C9.3021 5.14954 9.2629 3.98824 8.50801 3.32769L8.42207 3.25249C8.00685 2.88886 7.96505 2.25689 8.32832 1.84136C8.6919 1.42593 9.32384 1.38334 9.73945 1.74663L9.82539 1.8228C11.4508 3.24523 11.5342 5.74558 10.007 7.273C9.33008 7.9502 9.33012 9.0489 10.007 9.72612L10.0734 9.79253C10.4639 10.183 10.4639 10.8161 10.0734 11.2066C9.6829 11.5969 9.04982 11.597 8.65938 11.2066L8.59297 11.1402Z" fill="black"/>
<path d="M4.59297 11.1402C3.13501 9.68192 3.13497 7.31718 4.59297 5.85894C5.3021 5.14954 5.26291 3.98824 4.50801 3.32769L4.42207 3.25249C4.00685 2.88886 3.96505 2.25689 4.32832 1.84136C4.6919 1.42593 5.32384 1.38334 5.73945 1.74663L5.82539 1.8228C7.45081 3.24523 7.53419 5.74558 6.00703 7.273C5.33008 7.9502 5.33012 9.0489 6.00703 9.72612L6.07344 9.79253C6.46394 10.183 6.4639 10.8161 6.07344 11.2066C5.6829 11.5969 5.04982 11.597 4.65938 11.2066L4.59297 11.1402Z" fill="black"/>
</svg>
