<svg width="24" height="24" viewBox="0 0 24 24" fill="none" xmlns="http://www.w3.org/2000/svg">
<path d="M1.10515 22.446C0.858252 21.9522 1.05885 21.3513 1.55241 21.1042L3.65788 20.0514C3.8025 19.9792 3.95668 19.9464 4.10808 19.947C4.0886 18.9636 4.62116 18.0091 5.55925 17.5397L8.00847 16.3151C11.9289 14.3548 14.9633 10.9836 16.5026 6.87957L16.903 5.81218C17.3057 4.73852 18.3357 4.08628 19.4206 4.10808C19.4203 4.02703 19.4294 3.94421 19.4499 3.86199L19.9753 1.7575C20.1092 1.2219 20.6526 0.896403 21.1882 1.02996C21.7239 1.16389 22.0495 1.70616 21.9157 2.24187L21.3893 4.34734C21.3455 4.52206 21.2576 4.67427 21.1413 4.79558C21.9104 5.4994 22.2191 6.62384 21.8307 7.65984L21.4303 8.72722C19.4246 14.0752 15.4707 18.4677 10.362 21.0221L7.91276 22.2468C6.83675 22.7843 5.56992 22.5144 4.79655 21.6686C4.72607 21.736 4.64413 21.7946 4.55241 21.8405L2.44694 22.8932C1.95319 23.1397 1.35215 22.9395 1.10515 22.446Z" fill="black"/>
<path d="M8.59343 11.1393C7.13547 9.68106 7.13543 7.31633 8.59343 5.85808C9.30256 5.14869 9.26336 3.98739 8.50847 3.32683L8.42253 3.25164C8.00731 2.88801 7.96551 2.25603 8.32878 1.8405C8.69236 1.42507 9.3243 1.38249 9.73991 1.74578L9.82585 1.82195C11.4513 3.24437 11.5346 5.74473 10.0075 7.27215C9.33054 7.94934 9.33058 9.04805 10.0075 9.72527L10.0739 9.79168C10.4644 10.1822 10.4644 10.8152 10.0739 11.2057C9.68335 11.596 9.05028 11.5962 8.65983 11.2057L8.59343 11.1393Z" fill="black"/>
<path d="M4.59343 11.1393C3.13547 9.68106 3.13543 7.31633 4.59343 5.85808C5.30256 5.14869 5.26336 3.98739 4.50847 3.32683L4.42253 3.25164C4.00731 2.88801 3.96551 2.25603 4.32878 1.8405C4.69236 1.42507 5.3243 1.38249 5.73991 1.74578L5.82585 1.82195C7.45127 3.24437 7.53465 5.74473 6.00749 7.27215C5.33054 7.94934 5.33058 9.04805 6.00749 9.72527L6.0739 9.79168C6.4644 10.1822 6.46436 10.8152 6.0739 11.2057C5.68335 11.596 5.05028 11.5962 4.65983 11.2057L4.59343 11.1393Z" fill="black"/>
</svg>
