<svg width="24" height="24" viewBox="0 0 24 24" fill="none" xmlns="http://www.w3.org/2000/svg">
<path fill-rule="evenodd" clip-rule="evenodd" d="M1.32902 22.3341C1.14413 21.9638 1.29482 21.5135 1.66495 21.3283L3.40226 20.4591C3.15947 19.0301 3.86174 17.5511 5.2255 16.8693L7.67472 15.6447C11.4255 13.7688 14.329 10.543 15.8017 6.61634L16.2021 5.54896C16.7679 4.04153 18.295 3.17609 19.8261 3.38685L20.2187 1.81751C20.3194 1.41638 20.7265 1.17168 21.1278 1.27161C21.5292 1.37211 21.7735 1.77939 21.6737 2.18079L21.2382 3.92103C22.5206 4.77174 23.0971 6.42149 22.5341 7.92396L22.1337 8.99134C20.0616 14.5164 15.9759 19.0543 10.6982 21.6935L8.24894 22.9181C6.73537 23.6746 4.92511 23.1893 3.97745 21.8488L2.33487 22.67C1.96461 22.8547 1.5142 22.7042 1.32902 22.3341ZM5.89542 18.2111C4.96643 18.6758 4.59012 19.8062 5.0546 20.7355C5.51957 21.6643 6.64991 22.0409 7.57902 21.5763L10.0282 20.3517C14.9672 17.8817 18.7903 13.6346 20.7294 8.46399L21.1298 7.39661C21.4938 6.42417 21.0003 5.33972 20.0282 4.97474C19.0557 4.61035 17.9714 5.10386 17.6064 6.0763L17.206 7.14368C15.6003 11.4248 12.4341 14.9414 8.34464 16.9865L5.89542 18.2111Z" fill="black"/>
<path d="M8.77042 10.963C7.40996 9.60231 7.4098 7.3959 8.77042 6.03528C9.58152 5.22361 9.53737 3.8945 8.67374 3.1388L8.5878 3.0636C8.27628 2.79081 8.24479 2.31666 8.51749 2.00501C8.79025 1.69411 9.26363 1.6625 9.57511 1.9347L9.66202 2.00989C11.1785 3.337 11.2556 5.67065 9.83097 7.09583C9.05614 7.87066 9.05629 9.12755 9.83097 9.90247L9.89737 9.96888C10.1902 10.2617 10.1899 10.7365 9.89737 11.0294C9.60448 11.3223 9.12972 11.3223 8.83683 11.0294L8.77042 10.963Z" fill="black"/>
<path d="M4.77042 10.963C3.40996 9.60231 3.4098 7.3959 4.77042 6.03528C5.58152 5.22361 5.53737 3.8945 4.67374 3.1388L4.5878 3.0636C4.27628 2.79081 4.24479 2.31666 4.51749 2.00501C4.79025 1.69411 5.26363 1.66249 5.57511 1.9347L5.66202 2.00989C7.17851 3.337 7.25557 5.67065 5.83097 7.09583C5.05614 7.87066 5.05629 9.12755 5.83097 9.90247L5.89737 9.96888C6.19015 10.2617 6.18993 10.7365 5.89737 11.0294C5.60448 11.3223 5.12972 11.3223 4.83683 11.0294L4.77042 10.963Z" fill="black"/>
</svg>
