<svg width="24" height="24" viewBox="0 0 24 24" fill="none" xmlns="http://www.w3.org/2000/svg">
<path fill-rule="evenodd" clip-rule="evenodd" d="M0.881887 22.5577C0.57352 21.9405 0.824418 21.1898 1.44146 20.881L2.86528 20.1691C2.75793 18.6502 3.55526 17.1454 5.002 16.422L7.45122 15.1974C11.0891 13.378 13.9057 10.2491 15.334 6.44054L15.7344 5.37315C16.3284 3.79079 17.8452 2.8243 19.4444 2.85558L19.7344 1.69737C19.902 1.02802 20.5806 0.620069 21.25 0.787216C21.919 0.954897 22.327 1.63365 22.1602 2.30284L21.8067 3.7169C23.0719 4.73895 23.6047 6.49253 23.003 8.09874L23.002 8.09972L22.6016 9.1671C20.4851 14.8101 16.3124 19.4452 10.9219 22.1407L8.47271 23.3653C6.8697 24.1666 4.97745 23.7538 3.83989 22.4767L2.55864 23.1173C1.94139 23.4253 1.19053 23.1748 0.881887 22.5577ZM6.11919 18.6583C5.43721 18.9996 5.16097 19.8295 5.502 20.5118C5.84345 21.1937 6.67338 21.4701 7.35552 21.129L9.80474 19.9044C14.6309 17.4909 18.367 13.3406 20.2618 8.28819L20.6612 7.22276C20.9285 6.5089 20.567 5.71169 19.8536 5.44347C19.1395 5.17576 18.3424 5.53796 18.0743 6.25206L17.6739 7.31944C16.0238 11.7186 12.7707 15.3322 8.56841 17.4337L6.11919 18.6583Z" fill="black"/>
<path d="M8.41704 11.3165C6.86139 9.76053 6.86119 7.2376 8.41704 5.68175C9.02362 5.07469 8.99048 4.08104 8.34478 3.51573L8.25884 3.43956C7.7396 2.98492 7.6862 2.19533 8.14067 1.67589C8.59521 1.15675 9.3849 1.10454 9.90435 1.5587L9.99126 1.6339C11.7254 3.1515 11.8138 5.81966 10.1846 7.44933C9.60508 8.02887 9.60528 8.96927 10.1846 9.54893L10.251 9.61534C10.7391 10.1034 10.7389 10.8947 10.251 11.3829C9.76287 11.8711 8.9716 11.8711 8.48345 11.3829L8.41704 11.3165Z" fill="black"/>
<path d="M4.41704 11.3165C2.86139 9.76053 2.86119 7.2376 4.41704 5.68175C5.02362 5.07469 4.99048 4.08104 4.34478 3.51573L4.25884 3.43956C3.7396 2.98492 3.6862 2.19533 4.14067 1.67589C4.59521 1.15675 5.3849 1.10454 5.90435 1.5587L5.99126 1.6339C7.72538 3.1515 7.81381 5.81966 6.18462 7.44933C5.60508 8.02887 5.60528 8.96927 6.18462 9.54893L6.25103 9.61534C6.7391 10.1034 6.73893 10.8947 6.25103 11.3829C5.76287 11.8711 4.9716 11.8711 4.48345 11.3829L4.41704 11.3165Z" fill="black"/>
</svg>
