<svg width="24" height="24" viewBox="0 0 24 24" fill="none" xmlns="http://www.w3.org/2000/svg">
<path d="M0.880731 22.5576C0.572681 21.9404 0.823487 21.1896 1.4403 20.8808L3.54479 19.8281C3.72756 19.7367 3.92284 19.6956 4.11413 19.6972C4.18181 18.805 4.7009 17.9693 5.55944 17.54L8.00866 16.3154C11.9292 14.3549 14.9636 10.9841 16.5028 6.87983L16.9032 5.81245C17.2748 4.8221 18.1801 4.19045 19.1698 4.11518C19.169 4.01193 19.1807 3.90653 19.2069 3.80171L19.7333 1.69722C19.9008 1.02795 20.5795 0.620187 21.2489 0.78706C21.9182 0.954571 22.3259 1.63332 22.159 2.30268L21.6327 4.40815C21.5774 4.62899 21.4651 4.82014 21.3173 4.97261C21.955 5.67922 22.188 6.70733 21.8309 7.66011L21.4305 8.72749C19.4249 14.0757 15.471 18.4679 10.3622 21.0224L7.91296 22.247C6.91546 22.7457 5.75415 22.5494 4.97351 21.8447C4.88414 21.9311 4.77999 22.0059 4.66296 22.0644L2.55749 23.1171C1.94022 23.4251 1.18931 23.1747 0.880731 22.5576Z" fill="black"/>
<path d="M8.41686 11.3173C6.86109 9.76142 6.86111 7.23849 8.41686 5.68257C9.02354 5.07561 8.99009 4.08196 8.3446 3.51655L8.25866 3.44038C7.73932 2.98582 7.68614 2.19621 8.1405 1.67671C8.59506 1.15733 9.38466 1.10514 9.90417 1.55952L9.99108 1.63472C11.725 3.15242 11.8137 5.82058 10.1844 7.45015C9.60499 8.02976 9.60498 8.97015 10.1844 9.54976L10.2508 9.61616C10.7387 10.1043 10.7388 10.8957 10.2508 11.3837C9.76277 11.8716 8.9714 11.8716 8.48327 11.3837L8.41686 11.3173Z" fill="black"/>
<path d="M4.41686 11.3173C2.86109 9.76142 2.86111 7.23849 4.41686 5.68257C5.02354 5.07561 4.99009 4.08196 4.3446 3.51655L4.25866 3.44038C3.73932 2.98582 3.68614 2.19621 4.1405 1.67671C4.59506 1.15733 5.38466 1.10514 5.90417 1.55952L5.99108 1.63472C7.72499 3.15242 7.81372 5.82058 6.18444 7.45015C5.60499 8.02976 5.60498 8.97015 6.18444 9.54976L6.25085 9.61616C6.7387 10.1043 6.73883 10.8957 6.25085 11.3837C5.76277 11.8716 4.9714 11.8716 4.48327 11.3837L4.41686 11.3173Z" fill="black"/>
</svg>
