<svg width="24" height="24" viewBox="0 0 24 24" fill="none" xmlns="http://www.w3.org/2000/svg">
<path d="M0.881067 22.5579C0.573016 21.9407 0.823822 21.1899 1.44064 20.8811L3.54513 19.8284C3.72789 19.737 3.92317 19.6959 4.11447 19.6975C4.18215 18.8053 4.70124 17.9696 5.55978 17.5403L8.009 16.3157C11.9296 14.3553 14.9639 10.9844 16.5031 6.88014L16.9035 5.81276C17.2751 4.82241 18.1805 4.19075 19.1701 4.11549C19.1693 4.01224 19.1811 3.90683 19.2072 3.80201L19.7336 1.69752C19.9011 1.02826 20.5799 0.620492 21.2492 0.787365C21.9185 0.954876 22.3262 1.63363 22.1594 2.30299L21.633 4.40846C21.5778 4.62929 21.4654 4.82044 21.3176 4.97291C21.9554 5.67952 22.1883 6.70763 21.8313 7.66041L21.4309 8.72779C19.4252 14.076 15.4713 18.4682 10.3625 21.0227L7.91329 22.2473C6.91579 22.746 5.75449 22.5497 4.97384 21.845C4.88448 21.9314 4.78033 22.0062 4.66329 22.0647L2.55782 23.1174C1.94056 23.4254 1.18965 23.175 0.881067 22.5579Z" fill="black"/>
<path d="M8.4172 11.3176C6.86142 9.76172 6.86144 7.2388 8.4172 5.68287C9.02387 5.07592 8.99042 4.08226 8.34493 3.51686L8.259 3.44069C7.73966 2.98613 7.68648 2.19651 8.14083 1.67701C8.59539 1.15763 9.38499 1.10544 9.9045 1.55983L9.99142 1.63502C11.7253 3.15272 11.8141 5.82089 10.1848 7.45045C9.60533 8.03007 9.60531 8.97046 10.1848 9.55006L10.2512 9.61647C10.739 10.1046 10.7392 10.896 10.2512 11.384C9.76311 11.872 8.97173 11.8719 8.48361 11.384L8.4172 11.3176Z" fill="black"/>
<path d="M4.4172 11.3176C2.86142 9.76173 2.86144 7.2388 4.4172 5.68287C5.02387 5.07592 4.99042 4.08226 4.34493 3.51686L4.259 3.44069C3.73966 2.98613 3.68648 2.19651 4.14083 1.67701C4.59539 1.15763 5.38499 1.10544 5.9045 1.55983L5.99142 1.63502C7.72532 3.15272 7.81406 5.82089 6.18478 7.45045C5.60533 8.03007 5.60531 8.97046 6.18478 9.55006L6.25118 9.61647C6.73903 10.1046 6.73917 10.896 6.25118 11.384C5.76311 11.872 4.97173 11.8719 4.48361 11.384L4.4172 11.3176Z" fill="black"/>
</svg>
