<svg width="24" height="24" viewBox="0 0 24 24" fill="none" xmlns="http://www.w3.org/2000/svg">
<path d="M1.55276 22.2227C1.42943 21.9758 1.52973 21.6754 1.77639 21.5518L3.88186 20.499C3.97358 20.4533 4.07335 20.4382 4.16799 20.4502C3.91853 19.3027 4.46199 18.0893 5.56057 17.54L8.00979 16.3154C11.9301 14.3549 14.9648 10.984 16.5039 6.87989L16.9043 5.8125C17.3695 4.57292 18.6691 3.8934 19.9258 4.16797C19.9182 4.10831 19.9202 4.04627 19.9356 3.98438L20.4619 1.87891C20.5291 1.61131 20.8007 1.44781 21.0684 1.51465C21.3356 1.58187 21.4991 1.85365 21.4326 2.1211L20.9063 4.22657C20.8791 4.3351 20.8159 4.42462 20.7354 4.49024C21.7946 5.13368 22.2828 6.45717 21.8321 7.66016L21.4317 8.72754C19.4261 14.0756 15.4719 18.4679 10.3633 21.0225L7.91409 22.2471C6.68064 22.8638 5.19521 22.4202 4.49124 21.2627C4.44812 21.3153 4.39378 21.3611 4.32913 21.3936L2.22366 22.4463C1.9768 22.5695 1.67624 22.4694 1.55276 22.2227Z" fill="black"/>
<path d="M8.94729 10.7871C7.68441 9.5241 7.68444 7.47593 8.94729 6.21289C9.86079 5.2992 9.81083 3.80329 8.83889 2.95215L8.75198 2.87598C8.54473 2.69418 8.52375 2.37856 8.7051 2.1709C8.88691 1.96313 9.20334 1.94231 9.41116 2.12403L9.49709 2.19922C10.9047 3.43123 10.977 5.59709 9.65432 6.91993C8.782 7.79244 8.78197 9.20759 9.65432 10.0801L9.72073 10.1465C9.91576 10.3418 9.91591 10.6583 9.72073 10.8535C9.52553 11.0485 9.20892 11.0485 9.0137 10.8535L8.94729 10.7871Z" fill="black"/>
<path d="M4.94729 10.7871C3.68441 9.5241 3.68444 7.47593 4.94729 6.21289C5.86079 5.2992 5.81083 3.80329 4.83889 2.95215L4.75198 2.87598C4.54473 2.69418 4.52375 2.37856 4.7051 2.1709C4.88691 1.96313 5.20334 1.94231 5.41116 2.12403L5.49709 2.19922C6.90471 3.43123 6.97697 5.59709 5.65432 6.91993C4.782 7.79244 4.78196 9.20759 5.65432 10.0801L5.72073 10.1465C5.91575 10.3418 5.91591 10.6583 5.72073 10.8535C5.52553 11.0485 5.20892 11.0485 5.0137 10.8535L4.94729 10.7871Z" fill="black"/>
</svg>
