<svg width="24" height="24" viewBox="0 0 24 24" fill="none" xmlns="http://www.w3.org/2000/svg">
<path d="M1.5 4C1.5 2.61929 2.61929 1.5 4 1.5H7C7.27614 1.5 7.5 1.72386 7.5 2C7.5 2.27614 7.27614 2.5 7 2.5H4C3.17157 2.5 2.5 3.17157 2.5 4V7C2.5 7.27614 2.27614 7.5 2 7.5C1.72386 7.5 1.5 7.27614 1.5 7V4Z" fill="black"/>
<path d="M16.5 2C16.5 1.72386 16.7239 1.5 17 1.5H20C21.3807 1.5 22.5 2.61929 22.5 4V7C22.5 7.27614 22.2761 7.5 22 7.5C21.7239 7.5 21.5 7.27614 21.5 7V4C21.5 3.17157 20.8284 2.5 20 2.5H17C16.7239 2.5 16.5 2.27614 16.5 2Z" fill="black"/>
<path d="M2 16.5C2.27614 16.5 2.5 16.7239 2.5 17V20C2.5 20.8284 3.17157 21.5 4 21.5H7C7.27614 21.5 7.5 21.7239 7.5 22C7.5 22.2761 7.27614 22.5 7 22.5H4C2.61929 22.5 1.5 21.3807 1.5 20V17C1.5 16.7239 1.72386 16.5 2 16.5Z" fill="black"/>
<path d="M22 16.5C22.2761 16.5 22.5 16.7239 22.5 17V20C22.5 21.3807 21.3807 22.5 20 22.5H17C16.7239 22.5 16.5 22.2761 16.5 22C16.5 21.7239 16.7239 21.5 17 21.5H20C20.8284 21.5 21.5 20.8284 21.5 20V17C21.5 16.7239 21.7239 16.5 22 16.5Z" fill="black"/>
<path d="M18 5.5C18.2761 5.5 18.5 5.72386 18.5 6V10.5H17.5V6C17.5 5.72386 17.7239 5.5 18 5.5Z" fill="black"/>
<path d="M18.5 13.5V18C18.5 18.2761 18.2761 18.5 18 18.5C17.7239 18.5 17.5 18.2761 17.5 18V13.5H18.5Z" fill="black"/>
<path d="M13.5 13.5V18C13.5 18.2761 13.7239 18.5 14 18.5C14.2761 18.5 14.5 18.2761 14.5 18V13.5H13.5Z" fill="black"/>
<path d="M14.5 10.5V6C14.5 5.72386 14.2761 5.5 14 5.5C13.7239 5.5 13.5 5.72386 13.5 6V10.5H14.5Z" fill="black"/>
<path d="M10.5 13.5V18C10.5 18.2761 10.2761 18.5 10 18.5C9.72386 18.5 9.5 18.2761 9.5 18V13.5H10.5Z" fill="black"/>
<path d="M10.5 10.5V6C10.5 5.72386 10.2761 5.5 10 5.5C9.72386 5.5 9.5 5.72386 9.5 6V10.5H10.5Z" fill="black"/>
<path d="M6.5 13.5V18C6.5 18.2761 6.27614 18.5 6 18.5C5.72386 18.5 5.5 18.2761 5.5 18V13.5H6.5Z" fill="black"/>
<path d="M6.5 10.5V6C6.5 5.72386 6.27614 5.5 6 5.5C5.72386 5.5 5.5 5.72386 5.5 6V10.5H6.5Z" fill="black"/>
<path d="M2 11.5C1.72386 11.5 1.5 11.7239 1.5 12C1.5 12.2761 1.72386 12.5 2 12.5H22C22.2761 12.5 22.5 12.2761 22.5 12C22.5 11.7239 22.2761 11.5 22 11.5H2Z" fill="black"/>
</svg>
