<svg width="24" height="24" viewBox="0 0 24 24" fill="none" xmlns="http://www.w3.org/2000/svg">
<path d="M5.16011 1H6.99866C7.55094 1 7.99866 1.44772 7.99866 2C7.99866 2.55229 7.55094 3 6.99866 3H5.19866C4.62211 3 4.24983 3.00078 3.96649 3.02393C3.69483 3.04613 3.59411 3.0838 3.54467 3.109C3.35651 3.20487 3.20352 3.35785 3.10765 3.54601C3.08246 3.59546 3.04478 3.69618 3.02259 3.96784C2.99944 4.25118 2.99866 4.62345 2.99866 5.2V7C2.99866 7.55229 2.55094 8 1.99866 8C1.44637 8 0.998658 7.55229 0.998658 7V5.16146C0.998639 4.63431 0.998624 4.17955 1.02923 3.80497C1.06153 3.40963 1.13284 3.01641 1.32564 2.63803C1.61326 2.07354 2.0722 1.6146 2.63669 1.32698C3.01507 1.13419 3.40828 1.06287 3.80363 1.03057C4.17819 0.999969 4.63298 0.999984 5.16011 1Z" fill="black"/>
<path d="M20.0308 3.02393C19.7475 3.00078 19.3752 3 18.7987 3H16.9987C16.4464 3 15.9987 2.55229 15.9987 2C15.9987 1.44772 16.4464 1 16.9987 1H18.8372C19.3643 0.999984 19.8191 0.999969 20.1937 1.03057C20.589 1.06287 20.9822 1.13419 21.3606 1.32698C21.9251 1.6146 22.3841 2.07354 22.6717 2.63803C22.8645 3.01641 22.9358 3.40963 22.9681 3.80497C22.9987 4.17954 22.9987 4.6343 22.9987 5.16144V7C22.9987 7.55229 22.5509 8 21.9987 8C21.4464 8 20.9987 7.55229 20.9987 7V5.2C20.9987 4.62345 20.9979 4.25118 20.9747 3.96784C20.9525 3.69618 20.9149 3.59546 20.8897 3.54601C20.7938 3.35785 20.6408 3.20487 20.4526 3.109C20.4032 3.0838 20.3025 3.04613 20.0308 3.02393Z" fill="black"/>
<path d="M1.99866 16C2.55094 16 2.99866 16.4477 2.99866 17V18.8C2.99866 19.3766 2.99944 19.7488 3.02259 20.0322C3.04478 20.3038 3.08246 20.4045 3.10765 20.454C3.20352 20.6422 3.35651 20.7951 3.54467 20.891C3.59411 20.9162 3.69483 20.9539 3.96649 20.9761C4.24983 20.9992 4.62211 21 5.19866 21H6.99866C7.55094 21 7.99866 21.4477 7.99866 22C7.99866 22.5523 7.55094 23 6.99866 23H5.16009C4.63295 23 4.1782 23 3.80363 22.9694C3.40828 22.9371 3.01507 22.8658 2.63669 22.673C2.0722 22.3854 1.61326 21.9265 1.32564 21.362C1.13284 20.9836 1.06153 20.5904 1.02923 20.195C0.998624 19.8205 0.998639 19.3657 0.998658 18.8385V17C0.998658 16.4477 1.44637 16 1.99866 16Z" fill="black"/>
<path d="M21.9987 16C22.5509 16 22.9987 16.4477 22.9987 17V18.8386C22.9987 19.3657 22.9987 19.8205 22.9681 20.195C22.9358 20.5904 22.8645 20.9836 22.6717 21.362C22.3841 21.9265 21.9251 22.3854 21.3606 22.673C20.9822 22.8658 20.589 22.9371 20.1937 22.9694C19.8191 23 19.3644 23 18.8372 23H16.9987C16.4464 23 15.9987 22.5523 15.9987 22C15.9987 21.4477 16.4464 21 16.9987 21H18.7987C19.3752 21 19.7475 20.9992 20.0308 20.9761C20.3025 20.9539 20.4032 20.9162 20.4526 20.891C20.6408 20.7951 20.7938 20.6422 20.8897 20.454C20.9149 20.4045 20.9525 20.3038 20.9747 20.0322C20.9979 19.7488 20.9987 19.3766 20.9987 18.8V17C20.9987 16.4477 21.4464 16 21.9987 16Z" fill="black"/>
<path d="M9.19866 8H14.7987C15.3917 8 15.7162 8.00156 15.9494 8.02061L15.9758 8.0229L15.9781 8.04927C15.9971 8.28244 15.9987 8.60695 15.9987 9.2V10H17.9987V9.2C17.9987 8.0799 17.9987 7.51985 17.7807 7.09202C17.5889 6.7157 17.283 6.40974 16.9066 6.21799C16.4788 6 15.9188 6 14.7987 6H9.19866C8.07855 6 7.5185 6 7.09068 6.21799C6.71435 6.40974 6.40839 6.7157 6.21665 7.09202C5.99866 7.51985 5.99866 8.0799 5.99866 9.2V10H7.99866V9.2C7.99866 8.60695 8.00021 8.28244 8.01926 8.04927L8.02155 8.0229L8.04792 8.02061C8.2811 8.00156 8.6056 8 9.19866 8Z" fill="black"/>
<path d="M15.9987 14V14.8C15.9987 15.3931 15.9971 15.7176 15.9781 15.9507L15.9758 15.9771L15.9494 15.9794C15.7162 15.9984 15.3917 16 14.7987 16H9.19866C8.6056 16 8.2811 15.9984 8.04792 15.9794L8.02156 15.9771L8.01926 15.9507C8.00021 15.7176 7.99866 15.3931 7.99866 14.8V14H5.99866V14.8C5.99866 15.9201 5.99866 16.4802 6.21665 16.908C6.40839 17.2843 6.71435 17.5903 7.09068 17.782C7.5185 18 8.07855 18 9.19866 18H14.7987C15.9188 18 16.4788 18 16.9066 17.782C17.283 17.5903 17.5889 17.2843 17.7807 16.908C17.9987 16.4802 17.9987 15.9201 17.9987 14.8V14H15.9987Z" fill="black"/>
<path d="M1.99866 11C1.44637 11 0.998658 11.4477 0.998658 12C0.998658 12.5523 1.44637 13 1.99866 13H21.9987C22.5509 13 22.9987 12.5523 22.9987 12C22.9987 11.4477 22.5509 11 21.9987 11H1.99866Z" fill="black"/>
</svg>
