<svg width="24" height="24" viewBox="0 0 24 24" fill="none" xmlns="http://www.w3.org/2000/svg">
<path d="M5.17725 1.5H6.99866C7.2748 1.5 7.49866 1.72386 7.49866 2C7.49866 2.27614 7.2748 2.5 6.99866 2.5H5.19866C4.63035 2.5 4.2342 2.50039 3.92578 2.52559C3.62319 2.55031 3.44935 2.5964 3.31767 2.66349C3.03543 2.8073 2.80596 3.03677 2.66215 3.31901C2.59505 3.45069 2.54897 3.62454 2.52424 3.92712C2.49905 4.23554 2.49866 4.6317 2.49866 5.2V7C2.49866 7.27614 2.2748 7.5 1.99866 7.5C1.72252 7.5 1.49866 7.27614 1.49866 7V5.1786C1.49865 4.6367 1.49865 4.19963 1.52757 3.84569C1.55734 3.48126 1.62025 3.16117 1.77114 2.86502C2.01082 2.39462 2.39328 2.01217 2.86368 1.77248C3.15983 1.62159 3.47992 1.55868 3.84435 1.52891C4.19828 1.49999 4.63536 1.5 5.17725 1.5Z" fill="black"/>
<path d="M20.0715 2.52559C19.7631 2.50039 19.367 2.5 18.7987 2.5H16.9987C16.7225 2.5 16.4987 2.27614 16.4987 2C16.4987 1.72386 16.7225 1.5 16.9987 1.5H18.8201C19.362 1.5 19.799 1.49999 20.153 1.52891C20.5174 1.55868 20.8375 1.62159 21.1336 1.77248C21.604 2.01217 21.9865 2.39462 22.2262 2.86502C22.3771 3.16117 22.44 3.48126 22.4697 3.84569C22.4987 4.19963 22.4987 4.6367 22.4987 5.17858V7C22.4987 7.27614 22.2748 7.5 21.9987 7.5C21.7225 7.5 21.4987 7.27614 21.4987 7V5.2C21.4987 4.6317 21.4983 4.23554 21.4731 3.92712C21.4483 3.62454 21.4023 3.45069 21.3352 3.31901C21.1914 3.03677 20.9619 2.8073 20.6796 2.66349C20.548 2.5964 20.3741 2.55031 20.0715 2.52559Z" fill="black"/>
<path d="M1.99866 16.5C2.2748 16.5 2.49866 16.7239 2.49866 17V18.8C2.49866 19.3683 2.49905 19.7645 2.52424 20.0729C2.54897 20.3755 2.59505 20.5493 2.66215 20.681C2.80596 20.9632 3.03543 21.1927 3.31767 21.3365C3.44935 21.4036 3.62319 21.4497 3.92578 21.4744C4.2342 21.4996 4.63035 21.5 5.19866 21.5H6.99866C7.2748 21.5 7.49866 21.7239 7.49866 22C7.49866 22.2761 7.2748 22.5 6.99866 22.5H5.17724C4.63536 22.5 4.19828 22.5 3.84435 22.4711C3.47992 22.4413 3.15983 22.3784 2.86368 22.2275C2.39328 21.9878 2.01082 21.6054 1.77114 21.135C1.62025 20.8388 1.55734 20.5187 1.52757 20.1543C1.49865 19.8004 1.49865 19.3633 1.49866 18.8214V17C1.49866 16.7239 1.72252 16.5 1.99866 16.5Z" fill="black"/>
<path d="M21.9987 16.5C22.2748 16.5 22.4987 16.7239 22.4987 17V18.8214C22.4987 19.3633 22.4987 19.8004 22.4697 20.1543C22.44 20.5187 22.3771 20.8388 22.2262 21.135C21.9865 21.6054 21.604 21.9878 21.1336 22.2275C20.8375 22.3784 20.5174 22.4413 20.153 22.4711C19.799 22.5 19.362 22.5 18.8201 22.5H16.9987C16.7225 22.5 16.4987 22.2761 16.4987 22C16.4987 21.7239 16.7225 21.5 16.9987 21.5H18.7987C19.367 21.5 19.7631 21.4996 20.0715 21.4744C20.3741 21.4497 20.548 21.4036 20.6796 21.3365C20.9619 21.1927 21.1914 20.9632 21.3352 20.681C21.4023 20.5493 21.4483 20.3755 21.4731 20.0729C21.4983 19.7645 21.4987 19.3683 21.4987 18.8V17C21.4987 16.7239 21.7225 16.5 21.9987 16.5Z" fill="black"/>
<path d="M6.21664 7.09202C5.99866 7.51984 5.99866 8.0799 5.99866 9.2V10.75H17.9987V9.2C17.9987 8.0799 17.9987 7.51984 17.7807 7.09202C17.5889 6.7157 17.283 6.40973 16.9066 6.21799C16.4788 6 15.9188 6 14.7987 6H9.19866C8.07855 6 7.5185 6 7.09068 6.21799C6.71435 6.40973 6.40839 6.7157 6.21664 7.09202Z" fill="black"/>
<path d="M17.9987 13.25V14.8C17.9987 15.9201 17.9987 16.4802 17.7807 16.908C17.5889 17.2843 17.283 17.5903 16.9066 17.782C16.4788 18 15.9188 18 14.7987 18H9.19866C8.07855 18 7.5185 18 7.09068 17.782C6.71435 17.5903 6.40839 17.2843 6.21664 16.908C5.99866 16.4802 5.99866 15.9201 5.99866 14.8V13.25H17.9987Z" fill="black"/>
<path d="M1.99866 11.5C1.72252 11.5 1.49866 11.7239 1.49866 12C1.49866 12.2761 1.72252 12.5 1.99866 12.5H21.9987C22.2748 12.5 22.4987 12.2761 22.4987 12C22.4987 11.7239 22.2748 11.5 21.9987 11.5H1.99866Z" fill="black"/>
</svg>
