<svg width="24" height="24" viewBox="0 0 24 24" fill="none" xmlns="http://www.w3.org/2000/svg">
<path d="M5.15281 0.750001L6.99866 0.750005C7.68902 0.750005 8.24866 1.30965 8.24866 2C8.24866 2.69036 7.68902 3.25 6.99866 3.25H5.19866C4.61798 3.25 4.25765 3.25098 3.98685 3.2731C3.73238 3.29389 3.66737 3.32706 3.65834 3.33166C3.51722 3.40356 3.40231 3.51839 3.33041 3.65951C3.3258 3.66853 3.29255 3.73372 3.27176 3.9882C3.24963 4.25899 3.24866 4.61933 3.24866 5.2V7C3.24866 7.69036 2.68902 8.25 1.99866 8.25C1.30831 8.25 0.748661 7.69036 0.748661 7L0.748659 5.15416C0.748632 4.63338 0.748609 4.16957 0.780061 3.78462C0.813625 3.37381 0.889145 2.94403 1.10289 2.52454C1.41448 1.91301 1.91166 1.41582 2.52319 1.10423C2.94269 0.890489 3.37247 0.814968 3.78328 0.781404C4.16821 0.749954 4.63206 0.749976 5.15281 0.750001Z" fill="black"/>
<path d="M20.0105 3.2731C19.7397 3.25098 19.3793 3.25 18.7987 3.25H16.9987C16.3083 3.25 15.7487 2.69036 15.7487 2C15.7487 1.30965 16.3083 0.750005 16.9987 0.750005L18.8445 0.750001C19.3653 0.749976 19.8291 0.749954 20.214 0.781404C20.6249 0.814968 21.0546 0.890489 21.4741 1.10423C22.0857 1.41582 22.5828 1.91301 22.8944 2.52454C23.1082 2.94403 23.1837 3.37381 23.2173 3.78462C23.2487 4.16957 23.2487 4.63336 23.2487 5.15413V7C23.2487 7.69036 22.689 8.25 21.9987 8.25C21.3083 8.25 20.7487 7.69036 20.7487 7V5.2C20.7487 4.61933 20.7477 4.25899 20.7256 3.9882C20.7048 3.73377 20.6716 3.66873 20.667 3.65969C20.5951 3.51857 20.4803 3.40365 20.3392 3.33175C20.3301 3.32715 20.265 3.29389 20.0105 3.2731Z" fill="black"/>
<path d="M1.99866 15.75C2.68902 15.75 3.24866 16.3096 3.24866 17V18.8C3.24866 19.3807 3.24963 19.741 3.27176 20.0118C3.29255 20.2663 3.32572 20.3313 3.33032 20.3403C3.40222 20.4814 3.51705 20.5964 3.65817 20.6683C3.6672 20.6729 3.73239 20.7061 3.98685 20.7269C4.25765 20.749 4.61798 20.75 5.19866 20.75H6.99866C7.68902 20.75 8.24866 21.3097 8.24866 22C8.24866 22.6904 7.68902 23.25 6.99866 23.25H5.15279C4.63202 23.25 4.16822 23.2501 3.78328 23.2186C3.37247 23.185 2.94269 23.1095 2.52319 22.8958C1.91166 22.5842 1.41448 22.087 1.10289 21.4755C0.889145 21.056 0.813625 20.6262 0.780061 20.2154C0.748609 19.8304 0.748632 19.3666 0.748659 18.8458L0.748661 17C0.748661 16.3096 1.30831 15.75 1.99866 15.75Z" fill="black"/>
<path d="M21.9987 15.75C22.689 15.75 23.2487 16.3096 23.2487 17V18.8459C23.2487 19.3666 23.2487 19.8304 23.2173 20.2154C23.1837 20.6262 23.1082 21.056 22.8944 21.4755C22.5828 22.087 22.0857 22.5842 21.4741 22.8958C21.0546 23.1095 20.6249 23.185 20.214 23.2186C19.8291 23.2501 19.3653 23.25 18.8445 23.25H16.9987C16.3083 23.25 15.7487 22.6904 15.7487 22C15.7487 21.3097 16.3083 20.75 16.9987 20.75H18.7987C19.3793 20.75 19.7397 20.749 20.0105 20.7269C20.2649 20.7061 20.33 20.673 20.339 20.6684C20.4801 20.5964 20.595 20.4816 20.6669 20.3405C20.6715 20.3315 20.7048 20.2663 20.7256 20.0118C20.7477 19.741 20.7487 19.3807 20.7487 18.8V17C20.7487 16.3096 21.3083 15.75 21.9987 15.75Z" fill="black"/>
<path d="M9.19866 8.5H14.7987C15.0817 8.5 15.3039 8.50007 15.4956 8.50302C15.4986 8.69481 15.4987 8.91697 15.4987 9.2V9.5H17.9987V9.2C17.9987 8.0799 17.9987 7.51985 17.7807 7.09202C17.5889 6.7157 17.283 6.40974 16.9066 6.21799C16.4788 6 15.9188 6 14.7987 6H9.19866C8.07856 6 7.5185 6 7.09068 6.21799C6.71435 6.40974 6.4084 6.7157 6.21665 7.09202C5.99866 7.51985 5.99866 8.0799 5.99866 9.2V9.5H8.49866V9.2C8.49866 8.91697 8.49872 8.69481 8.50167 8.50302C8.69347 8.50007 8.91562 8.5 9.19866 8.5Z" fill="black"/>
<path d="M15.4987 14.5V14.8C15.4987 15.083 15.4986 15.3052 15.4956 15.497C15.3039 15.4999 15.0817 15.5 14.7987 15.5H9.19866C8.91562 15.5 8.69347 15.4999 8.50168 15.497C8.49872 15.3052 8.49866 15.083 8.49866 14.8V14.5H5.99866V14.8C5.99866 15.9201 5.99866 16.4802 6.21665 16.908C6.4084 17.2843 6.71435 17.5903 7.09068 17.782C7.5185 18 8.07856 18 9.19866 18H14.7987C15.9188 18 16.4788 18 16.9066 17.782C17.283 17.5903 17.5889 17.2843 17.7807 16.908C17.9987 16.4802 17.9987 15.9201 17.9987 14.8V14.5H15.4987Z" fill="black"/>
<path d="M1.99866 10.75C1.30831 10.75 0.748661 11.3096 0.748661 12C0.748661 12.6904 1.30831 13.25 1.99866 13.25H21.9987C22.689 13.25 23.2487 12.6904 23.2487 12C23.2487 11.3096 22.689 10.75 21.9987 10.75H1.99866Z" fill="black"/>
</svg>
