<svg width="24" height="24" viewBox="0 0 24 24" fill="none" xmlns="http://www.w3.org/2000/svg">
<path d="M1.75 4C1.75 2.75736 2.75736 1.75 4 1.75H7C7.13807 1.75 7.25 1.86193 7.25 2C7.25 2.13807 7.13807 2.25 7 2.25H4C3.0335 2.25 2.25 3.0335 2.25 4V7C2.25 7.13807 2.13807 7.25 2 7.25C1.86193 7.25 1.75 7.13807 1.75 7V4Z" fill="black"/>
<path d="M16.75 2C16.75 1.86193 16.8619 1.75 17 1.75H20C21.2426 1.75 22.25 2.75736 22.25 4V7C22.25 7.13807 22.1381 7.25 22 7.25C21.8619 7.25 21.75 7.13807 21.75 7V4C21.75 3.0335 20.9665 2.25 20 2.25H17C16.8619 2.25 16.75 2.13807 16.75 2Z" fill="black"/>
<path d="M2 16.75C2.13807 16.75 2.25 16.8619 2.25 17V20C2.25 20.9665 3.0335 21.75 4 21.75H7C7.13807 21.75 7.25 21.8619 7.25 22C7.25 22.1381 7.13807 22.25 7 22.25H4C2.75736 22.25 1.75 21.2426 1.75 20V17C1.75 16.8619 1.86193 16.75 2 16.75Z" fill="black"/>
<path d="M22 16.75C22.1381 16.75 22.25 16.8619 22.25 17V20C22.25 21.2426 21.2426 22.25 20 22.25H17C16.8619 22.25 16.75 22.1381 16.75 22C16.75 21.8619 16.8619 21.75 17 21.75H20C20.9665 21.75 21.75 20.9665 21.75 20V17C21.75 16.8619 21.8619 16.75 22 16.75Z" fill="black"/>
<path d="M18 5.75C18.1381 5.75 18.25 5.86193 18.25 6V11H17.75V6C17.75 5.86193 17.8619 5.75 18 5.75Z" fill="black"/>
<path d="M18.25 13V18C18.25 18.1381 18.1381 18.25 18 18.25C17.8619 18.25 17.75 18.1381 17.75 18V13H18.25Z" fill="black"/>
<path d="M13.75 13V18C13.75 18.1381 13.8619 18.25 14 18.25C14.1381 18.25 14.25 18.1381 14.25 18V13H13.75Z" fill="black"/>
<path d="M14.25 11V6C14.25 5.86193 14.1381 5.75 14 5.75C13.8619 5.75 13.75 5.86193 13.75 6V11H14.25Z" fill="black"/>
<path d="M10.25 13V18C10.25 18.1381 10.1381 18.25 10 18.25C9.86193 18.25 9.75 18.1381 9.75 18V13H10.25Z" fill="black"/>
<path d="M10.25 11V6C10.25 5.86193 10.1381 5.75 10 5.75C9.86193 5.75 9.75 5.86193 9.75 6V11H10.25Z" fill="black"/>
<path d="M6.25 13V18C6.25 18.1381 6.13807 18.25 6 18.25C5.86193 18.25 5.75 18.1381 5.75 18V13H6.25Z" fill="black"/>
<path d="M6.25 11V6C6.25 5.86193 6.13807 5.75 6 5.75C5.86193 5.75 5.75 5.86193 5.75 6V11H6.25Z" fill="black"/>
<path d="M2 11.75C1.86193 11.75 1.75 11.8619 1.75 12C1.75 12.1381 1.86193 12.25 2 12.25H22C22.1381 12.25 22.25 12.1381 22.25 12C22.25 11.8619 22.1381 11.75 22 11.75H2Z" fill="black"/>
</svg>
