<svg width="24" height="24" viewBox="0 0 24 24" fill="none" xmlns="http://www.w3.org/2000/svg">
<path d="M0.75 4C0.75 2.20507 2.20507 0.75 4 0.75H7C7.69036 0.75 8.25 1.30964 8.25 2C8.25 2.69036 7.69036 3.25 7 3.25H4C3.58579 3.25 3.25 3.58579 3.25 4V7C3.25 7.69036 2.69036 8.25 2 8.25C1.30964 8.25 0.75 7.69036 0.75 7V4Z" fill="black"/>
<path d="M15.75 2C15.75 1.30964 16.3096 0.75 17 0.75H20C21.7949 0.75 23.25 2.20507 23.25 4V7C23.25 7.69036 22.6904 8.25 22 8.25C21.3096 8.25 20.75 7.69036 20.75 7V4C20.75 3.58579 20.4142 3.25 20 3.25H17C16.3096 3.25 15.75 2.69036 15.75 2Z" fill="black"/>
<path d="M2 15.75C2.69036 15.75 3.25 16.3096 3.25 17V20C3.25 20.4142 3.58579 20.75 4 20.75H7C7.69036 20.75 8.25 21.3096 8.25 22C8.25 22.6904 7.69036 23.25 7 23.25H4C2.20507 23.25 0.75 21.7949 0.75 20V17C0.75 16.3096 1.30964 15.75 2 15.75Z" fill="black"/>
<path d="M22 15.75C22.6904 15.75 23.25 16.3096 23.25 17V20C23.25 21.7949 21.7949 23.25 20 23.25H17C16.3096 23.25 15.75 22.6904 15.75 22C15.75 21.3096 16.3096 20.75 17 20.75H20C20.4142 20.75 20.75 20.4142 20.75 20V17C20.75 16.3096 21.3096 15.75 22 15.75Z" fill="black"/>
<path d="M18 4.75C18.6904 4.75 19.25 5.30964 19.25 6V9.5H16.75V6C16.75 5.30964 17.3096 4.75 18 4.75Z" fill="black"/>
<path d="M19.25 14.5V18C19.25 18.6904 18.6904 19.25 18 19.25C17.3096 19.25 16.75 18.6904 16.75 18V14.5H19.25Z" fill="black"/>
<path d="M12.75 14.5V18C12.75 18.6904 13.3096 19.25 14 19.25C14.6904 19.25 15.25 18.6904 15.25 18V14.5H12.75Z" fill="black"/>
<path d="M15.25 9.5V6C15.25 5.30964 14.6904 4.75 14 4.75C13.3096 4.75 12.75 5.30964 12.75 6V9.5H15.25Z" fill="black"/>
<path d="M11.25 14.5V18C11.25 18.6904 10.6904 19.25 10 19.25C9.30964 19.25 8.75 18.6904 8.75 18V14.5H11.25Z" fill="black"/>
<path d="M11.25 9.5V6C11.25 5.30964 10.6904 4.75 10 4.75C9.30964 4.75 8.75 5.30964 8.75 6V9.5H11.25Z" fill="black"/>
<path d="M7.25 14.5V18C7.25 18.6904 6.69036 19.25 6 19.25C5.30964 19.25 4.75 18.6904 4.75 18V14.5H7.25Z" fill="black"/>
<path d="M7.25 9.5V6C7.25 5.30964 6.69036 4.75 6 4.75C5.30964 4.75 4.75 5.30964 4.75 6V9.5H7.25Z" fill="black"/>
<path d="M2 10.75C1.30964 10.75 0.75 11.3096 0.75 12C0.75 12.6904 1.30964 13.25 2 13.25H22C22.6904 13.25 23.25 12.6904 23.25 12C23.25 11.3096 22.6904 10.75 22 10.75H2Z" fill="black"/>
</svg>
