<svg width="24" height="24" viewBox="0 0 24 24" fill="none" xmlns="http://www.w3.org/2000/svg">
<path d="M5.15294 0.750001L6.99878 0.750005C7.68914 0.750005 8.24878 1.30965 8.24878 2C8.24878 2.69036 7.68914 3.25 6.99878 3.25H5.19878C4.6181 3.25 4.25777 3.25098 3.98698 3.2731C3.7325 3.29389 3.66749 3.32706 3.65847 3.33166C3.51734 3.40356 3.40243 3.51839 3.33053 3.65951C3.32593 3.66853 3.29267 3.73372 3.27188 3.9882C3.24976 4.25899 3.24878 4.61933 3.24878 5.2V7C3.24878 7.69036 2.68914 8.25 1.99878 8.25C1.30843 8.25 0.748783 7.69036 0.748783 7L0.748781 5.15416C0.748754 4.63338 0.748731 4.16957 0.780183 3.78462C0.813747 3.37381 0.889267 2.94403 1.10301 2.52454C1.4146 1.91301 1.91179 1.41582 2.52331 1.10423C2.94281 0.890489 3.37259 0.814968 3.7834 0.781404C4.16833 0.749954 4.63218 0.749976 5.15294 0.750001Z" fill="black"/>
<path d="M20.0106 3.2731C19.7398 3.25098 19.3795 3.25 18.7988 3.25H16.9988C16.3084 3.25 15.7488 2.69036 15.7488 2C15.7488 1.30965 16.3084 0.750005 16.9988 0.750005L18.8446 0.750001C19.3654 0.749976 19.8292 0.749954 20.2142 0.781404C20.625 0.814968 21.0548 0.890489 21.4743 1.10423C22.0858 1.41582 22.583 1.91301 22.8946 2.52454C23.1083 2.94403 23.1838 3.37381 23.2174 3.78462C23.2488 4.16957 23.2488 4.63336 23.2488 5.15413V7C23.2488 7.69036 22.6891 8.25 21.9988 8.25C21.3084 8.25 20.7488 7.69036 20.7488 7V5.2C20.7488 4.61933 20.7478 4.25899 20.7257 3.9882C20.7049 3.73377 20.6717 3.66873 20.6671 3.65969C20.5952 3.51857 20.4804 3.40365 20.3393 3.33175C20.3303 3.32715 20.2651 3.29389 20.0106 3.2731Z" fill="black"/>
<path d="M1.99878 15.75C2.68914 15.75 3.24878 16.3096 3.24878 17V18.8C3.24878 19.3807 3.24976 19.741 3.27188 20.0118C3.29267 20.2663 3.32584 20.3313 3.33044 20.3403C3.40234 20.4814 3.51717 20.5964 3.65829 20.6683C3.66732 20.6729 3.73251 20.7061 3.98698 20.7269C4.25777 20.749 4.6181 20.75 5.19878 20.75H6.99878C7.68914 20.75 8.24878 21.3097 8.24878 22C8.24878 22.6904 7.68914 23.25 6.99878 23.25H5.15291C4.63214 23.25 4.16834 23.2501 3.7834 23.2186C3.37259 23.185 2.94281 23.1095 2.52331 22.8958C1.91179 22.5842 1.4146 22.087 1.10301 21.4755C0.889267 21.056 0.813747 20.6262 0.780183 20.2154C0.748731 19.8304 0.748754 19.3666 0.748781 18.8458L0.748783 17C0.748783 16.3096 1.30843 15.75 1.99878 15.75Z" fill="black"/>
<path d="M21.9988 15.75C22.6891 15.75 23.2488 16.3096 23.2488 17V18.8459C23.2488 19.3666 23.2488 19.8304 23.2174 20.2154C23.1838 20.6262 23.1083 21.056 22.8946 21.4755C22.583 22.087 22.0858 22.5842 21.4743 22.8958C21.0548 23.1095 20.625 23.185 20.2142 23.2186C19.8292 23.2501 19.3654 23.25 18.8447 23.25H16.9988C16.3084 23.25 15.7488 22.6904 15.7488 22C15.7488 21.3097 16.3084 20.75 16.9988 20.75H18.7988C19.3795 20.75 19.7398 20.749 20.0106 20.7269C20.2651 20.7061 20.3301 20.673 20.3391 20.6684C20.4802 20.5964 20.5951 20.4816 20.667 20.3405C20.6716 20.3315 20.7049 20.2663 20.7257 20.0118C20.7478 19.741 20.7488 19.3807 20.7488 18.8V17C20.7488 16.3096 21.3084 15.75 21.9988 15.75Z" fill="black"/>
<path d="M6.21677 7.09202C5.99878 7.51985 5.99878 8.0799 5.99878 9.2V9.5H17.9988V9.20001C17.9988 8.0799 17.9988 7.51985 17.7808 7.09202C17.589 6.7157 17.2831 6.40974 16.9068 6.21799C16.4789 6.00001 15.9189 6.00001 14.7988 6.00001H9.19878C8.07868 6.00001 7.51862 6.00001 7.0908 6.21799C6.71448 6.40974 6.40852 6.7157 6.21677 7.09202Z" fill="black"/>
<path d="M17.9988 14.5V14.8C17.9988 15.9201 17.9988 16.4802 17.7808 16.908C17.589 17.2843 17.2831 17.5903 16.9068 17.782C16.4789 18 15.9189 18 14.7988 18H9.19878C8.07868 18 7.51862 18 7.0908 17.782C6.71448 17.5903 6.40852 17.2843 6.21677 16.908C5.99878 16.4802 5.99878 15.9201 5.99878 14.8V14.5H17.9988Z" fill="black"/>
<path d="M1.99878 10.75C1.30843 10.75 0.748783 11.3096 0.748783 12C0.748783 12.6904 1.30843 13.25 1.99878 13.25H21.9988C22.6891 13.25 23.2488 12.6904 23.2488 12C23.2488 11.3096 22.6891 10.75 21.9988 10.75H1.99878Z" fill="black"/>
</svg>
