<svg width="24" height="24" viewBox="0 0 24 24" fill="none" xmlns="http://www.w3.org/2000/svg">
<path d="M11.2215 16.9371C14.3781 16.9371 16.937 14.3782 16.937 11.2216C16.937 8.06503 14.3781 5.50611 11.2215 5.50611C8.06495 5.50611 5.50603 8.06503 5.50603 11.2216C5.50603 14.3782 8.06495 16.9371 11.2215 16.9371Z" fill="black"/>
<path fill-rule="evenodd" clip-rule="evenodd" d="M0.123117 8.43565C0 9.21298 0 10.142 0 12C0 13.858 0 14.787 0.123117 15.5643C0.800832 19.8433 4.15673 23.1992 8.43565 23.8769C9.21298 24 10.142 24 12 24C13.858 24 14.787 24 15.5643 23.8769C19.8433 23.1992 23.1992 19.8433 23.8769 15.5643C24 14.787 24 13.858 24 12C24 10.142 24 9.21298 23.8769 8.43565C23.1992 4.15673 19.8433 0.800832 15.5643 0.123117C14.787 0 13.858 0 12 0C10.142 0 9.21298 0 8.43565 0.123117C4.15673 0.800832 0.800832 4.15673 0.123117 8.43565ZM11.2215 17.9371C12.896 17.9371 14.4273 17.3243 15.6034 16.3107L18.6404 19.3475C18.8357 19.5427 19.1523 19.5427 19.3475 19.3474C19.5428 19.1522 19.5428 18.8356 19.3475 18.6403L16.3105 15.6036C17.3242 14.4274 17.937 12.8961 17.937 11.2216C17.937 7.51274 14.9304 4.50611 11.2215 4.50611C7.51266 4.50611 4.50603 7.51274 4.50603 11.2216C4.50603 14.9305 7.51266 17.9371 11.2215 17.9371Z" fill="black"/>
</svg>
