<svg width="24" height="24" viewBox="0 0 24 24" fill="none" xmlns="http://www.w3.org/2000/svg">
<path d="M8.98373 7.21611C8.49558 6.72796 7.70412 6.72796 7.21597 7.21612C6.72781 7.70428 6.72782 8.49573 7.21597 8.98389L9.01536 10.7833L7.21624 12.5824C6.72808 13.0705 6.72808 13.862 7.21623 14.3501C7.70438 14.8383 8.49584 14.8383 8.984 14.3501L10.7831 12.551L12.5823 14.3501C13.0704 14.8383 13.8619 14.8383 14.35 14.3501C14.8382 13.862 14.8382 13.0705 14.35 12.5824L12.5509 10.7833L14.3503 8.98389C14.8384 8.49573 14.8384 7.70428 14.3503 7.21612C13.8621 6.72796 13.0707 6.72796 12.5825 7.21611L10.7831 9.0155L8.98373 7.21611Z" fill="black"/>
<path fill-rule="evenodd" clip-rule="evenodd" d="M18.534 16.7668C19.8634 15.0599 20.6553 12.9137 20.6553 10.5825C20.6553 5.01922 16.1453 0.509277 10.582 0.509277C5.01874 0.509277 0.508789 5.01922 0.508789 10.5825C0.508789 16.1458 5.01874 20.6558 10.582 20.6558C12.9291 20.6558 15.0886 19.8531 16.8011 18.5073C17.447 17.9997 18.0293 17.4149 18.534 16.7668ZM10.582 18.1558C14.7646 18.1558 18.1553 14.7651 18.1553 10.5825C18.1553 6.39994 14.7646 3.00928 10.582 3.00928C6.39945 3.00928 3.00879 6.39994 3.00879 10.5825C3.00879 14.7651 6.39945 18.1558 10.582 18.1558Z" fill="black"/>
<path d="M21.3568 23.1249L18.1896 19.9579C18.838 19.4311 19.4307 18.8385 19.9574 18.1901L23.1246 21.357C23.6127 21.8452 23.6128 22.6366 23.1246 23.1248C22.6365 23.613 21.845 23.613 21.3568 23.1249Z" fill="black"/>
</svg>
