<svg width="24" height="24" viewBox="0 0 24 24" fill="none" xmlns="http://www.w3.org/2000/svg">
<path fill-rule="evenodd" clip-rule="evenodd" d="M17.4628 18.8776C15.7255 20.3014 13.5035 21.1558 11.082 21.1558C5.51874 21.1558 1.00879 16.6458 1.00879 11.0825C1.00879 5.51922 5.51874 1.00928 11.082 1.00928C16.6453 1.00928 21.1553 5.51922 21.1553 11.0825C21.1553 13.504 20.3008 15.726 18.877 17.4633L23.4478 22.0338C23.8383 22.4243 23.8383 23.0575 23.4478 23.448C23.0573 23.8386 22.4241 23.8386 22.0336 23.4481L17.4628 18.8776ZM19.1553 11.0825C19.1553 15.5413 15.5408 19.1558 11.082 19.1558C6.62331 19.1558 3.00879 15.5413 3.00879 11.0825C3.00879 6.62379 6.62331 3.00928 11.082 3.00928C15.5408 3.00928 19.1553 6.62379 19.1553 11.0825Z" fill="black"/>
</svg>
