<svg width="24" height="24" viewBox="0 0 24 24" fill="none" xmlns="http://www.w3.org/2000/svg">
<path d="M10.9715 15.6871C13.5758 15.6871 15.687 13.5759 15.687 10.9716C15.687 8.36731 13.5758 6.25611 10.9715 6.25611C8.36723 6.25611 6.25603 8.36731 6.25603 10.9716C6.25603 13.5759 8.36723 15.6871 10.9715 15.6871Z" fill="black"/>
<path fill-rule="evenodd" clip-rule="evenodd" d="M0.123117 8.43565C0 9.21298 0 10.142 0 12C0 13.858 0 14.787 0.123117 15.5643C0.800832 19.8433 4.15673 23.1992 8.43565 23.8769C9.21298 24 10.142 24 12 24C13.858 24 14.787 24 15.5643 23.8769C19.8433 23.1992 23.1992 19.8433 23.8769 15.5643C24 14.787 24 13.858 24 12C24 10.142 24 9.21298 23.8769 8.43565C23.1992 4.15673 19.8433 0.800832 15.5643 0.123117C14.787 0 13.858 0 12 0C10.142 0 9.21298 0 8.43565 0.123117C4.15673 0.800832 0.800832 4.15673 0.123117 8.43565ZM10.9715 17.6871C12.4652 17.6871 13.845 17.1995 14.9603 16.3747L18.0369 19.451C18.4274 19.8415 19.0606 19.8415 19.4511 19.451C19.8416 19.0604 19.8416 18.4273 19.451 18.0368L16.3746 14.9605C17.1994 13.8451 17.687 12.4653 17.687 10.9716C17.687 7.26274 14.6804 4.25611 10.9715 4.25611C7.26266 4.25611 4.25603 7.26274 4.25603 10.9716C4.25603 14.6805 7.26266 17.6871 10.9715 17.6871Z" fill="black"/>
</svg>
