<svg width="24" height="24" viewBox="0 0 24 24" fill="none" xmlns="http://www.w3.org/2000/svg">
<path d="M7.56043 7.56043C7.95095 7.1699 8.58411 7.1699 8.97464 7.56043L11.0822 9.66796L13.1897 7.56043C13.5803 7.1699 14.2134 7.1699 14.604 7.56043C14.9945 7.95096 14.9945 8.58412 14.604 8.97464L12.4964 11.0822L14.6037 13.1894C14.9942 13.5799 14.9942 14.2131 14.6037 14.6036C14.2132 14.9942 13.58 14.9942 13.1895 14.6036L11.0822 12.4964L8.97492 14.6036C8.58439 14.9942 7.95123 14.9942 7.5607 14.6036C7.17018 14.2131 7.17018 13.5799 7.56071 13.1894L9.66797 11.0822L7.56043 8.97464C7.1699 8.58412 7.1699 7.95096 7.56043 7.56043Z" fill="black"/>
<path fill-rule="evenodd" clip-rule="evenodd" d="M11.082 21.1553C16.6453 21.1553 21.1553 16.6453 21.1553 11.082C21.1553 5.51874 16.6453 1.00879 11.082 1.00879C5.51874 1.00879 1.00879 5.51874 1.00879 11.082C1.00879 16.6453 5.51874 21.1553 11.082 21.1553ZM11.082 19.1553C15.5408 19.1553 19.1553 15.5408 19.1553 11.082C19.1553 6.62331 15.5408 3.00879 11.082 3.00879C6.62331 3.00879 3.00879 6.62331 3.00879 11.082C3.00879 15.5408 6.62331 19.1553 11.082 19.1553Z" fill="black"/>
<path d="M17.4632 18.8775L22.0341 23.4481C22.4247 23.8386 23.0578 23.8385 23.4483 23.448C23.8389 23.0575 23.8388 22.4243 23.4483 22.0338L18.8775 17.4632C18.4539 17.98 17.98 18.4539 17.4632 18.8775Z" fill="black"/>
</svg>
