<svg width="24" height="24" viewBox="0 0 24 24" fill="none" xmlns="http://www.w3.org/2000/svg">
<path d="M7.60618 7.60594C7.70381 7.50831 7.8621 7.50831 7.95974 7.60594L11.0822 10.7284L14.2047 7.60594C14.3024 7.50831 14.4607 7.50831 14.5583 7.60594C14.6559 7.70357 14.6559 7.86186 14.5583 7.95949L11.4358 11.082L14.558 14.2042C14.6556 14.3018 14.6556 14.4601 14.558 14.5577C14.4603 14.6554 14.302 14.6554 14.2044 14.5577L11.0822 11.4355L7.96006 14.5577C7.86243 14.6554 7.70414 14.6554 7.60651 14.5577C7.50888 14.4601 7.50888 14.3018 7.60651 14.2042L10.7287 11.082L7.60618 7.95949C7.50855 7.86186 7.50855 7.70357 7.60618 7.60594Z" fill="black"/>
<path fill-rule="evenodd" clip-rule="evenodd" d="M11.0823 21.1558C13.774 21.1558 16.2191 20.1 18.0262 18.38C18.1449 18.267 18.2609 18.1511 18.374 18.0325L18.3797 18.0265C20.0998 16.2194 21.1555 13.7743 21.1555 11.0825C21.1555 5.51922 16.6456 1.00928 11.0823 1.00928C5.51898 1.00928 1.00903 5.51922 1.00903 11.0825C1.00903 16.6458 5.51898 21.1558 11.0823 21.1558ZM11.0823 20.6558C16.3694 20.6558 20.6555 16.3697 20.6555 11.0825C20.6555 5.79537 16.3694 1.50928 11.0823 1.50928C5.79512 1.50928 1.50903 5.79537 1.50903 11.0825C1.50903 16.3697 5.79512 20.6558 11.0823 20.6558Z" fill="black"/>
<path d="M18.3798 18.7337L22.5642 22.9177C22.6618 23.0154 22.8201 23.0154 22.9177 22.9177C23.0154 22.8201 23.0154 22.6618 22.9177 22.5642L18.7334 18.3801C18.6183 18.5007 18.5004 18.6186 18.3798 18.7337Z" fill="black"/>
</svg>
