<svg width="24" height="24" viewBox="0 0 24 24" fill="none" xmlns="http://www.w3.org/2000/svg">
<path d="M7.14265 7.14299C7.53317 6.75247 8.16633 6.75247 8.55686 7.14299L10.6644 9.25053L12.772 7.14299C13.1625 6.75247 13.7957 6.75247 14.1862 7.14299C14.5767 7.53352 14.5767 8.16668 14.1862 8.55721L12.0786 10.6647L14.1859 12.772C14.5764 13.1625 14.5764 13.7957 14.1859 14.1862C13.7954 14.5767 13.1622 14.5767 12.7717 14.1862L10.6644 12.0789L8.55714 14.1862C8.16661 14.5767 7.53345 14.5767 7.14292 14.1862C6.7524 13.7957 6.7524 13.1625 7.14293 12.772L9.25019 10.6647L7.14265 8.55721C6.75213 8.16668 6.75212 7.53352 7.14265 7.14299Z" fill="black"/>
<path fill-rule="evenodd" clip-rule="evenodd" d="M10.707 20.7808C13.1285 20.7808 15.3505 19.9264 17.0878 18.5025C17.5957 18.0863 18.0621 17.6215 18.48 17.115L18.502 17.0883C19.9258 15.351 20.7803 13.129 20.7803 10.7075C20.7803 5.14422 16.2703 0.634277 10.707 0.634277C5.14374 0.634277 0.633789 5.14422 0.633789 10.7075C0.633789 16.2708 5.14374 20.7808 10.707 20.7808ZM10.707 18.7808C15.1658 18.7808 18.7803 15.1663 18.7803 10.7075C18.7803 6.24879 15.1658 2.63428 10.707 2.63428C6.24831 2.63428 2.63379 6.24879 2.63379 10.7075C2.63379 15.1663 6.24831 18.7808 10.707 18.7808Z" fill="black"/>
<path d="M18.5079 19.9225L21.6586 23.0731C22.0492 23.4636 22.6823 23.4636 23.0728 23.073C23.4633 22.6825 23.4633 22.0493 23.0728 21.6588L19.9221 18.5083C19.4904 19.0177 19.0173 19.4909 18.5079 19.9225Z" fill="black"/>
</svg>
