<svg width="24" height="24" viewBox="0 0 24 24" fill="none" xmlns="http://www.w3.org/2000/svg">
<path fill-rule="evenodd" clip-rule="evenodd" d="M17.8426 18.5502C16.0551 20.1694 13.6838 21.1558 11.082 21.1558C5.51874 21.1558 1.00879 16.6458 1.00879 11.0825C1.00879 5.51922 5.51874 1.00928 11.082 1.00928C16.6453 1.00928 21.1553 5.51922 21.1553 11.0825C21.1553 13.6843 20.1689 16.0557 18.5497 17.8431L23.0942 22.3874C23.2895 22.5826 23.2895 22.8992 23.0943 23.0945C22.899 23.2898 22.5824 23.2898 22.3871 23.0945L17.8426 18.5502ZM20.1553 11.0825C20.1553 16.0935 16.0931 20.1558 11.082 20.1558C6.07102 20.1558 2.00879 16.0935 2.00879 11.0825C2.00879 6.07151 6.07102 2.00928 11.082 2.00928C16.0931 2.00928 20.1553 6.07151 20.1553 11.0825Z" fill="black"/>
</svg>
