<svg width="24" height="24" viewBox="0 0 24 24" fill="none" xmlns="http://www.w3.org/2000/svg">
<path d="M10.9998 5.50011C7.96219 5.50011 5.49976 7.96255 5.49976 11.0001C5.49976 11.2763 5.2759 11.5001 4.99976 11.5001C4.72361 11.5001 4.49976 11.2763 4.49976 11.0001C4.49976 7.41026 7.4099 4.50011 10.9998 4.50011C11.2759 4.50011 11.4998 4.72397 11.4998 5.00011C11.4998 5.27626 11.2759 5.50011 10.9998 5.50011Z" fill="black"/>
<path fill-rule="evenodd" clip-rule="evenodd" d="M18.4247 17.7181C20.0439 15.9307 21.0303 13.5593 21.0303 10.9575C21.0303 5.39422 16.5203 0.884277 10.957 0.884277C5.39374 0.884277 0.883789 5.39422 0.883789 10.9575C0.883789 16.5208 5.39374 21.0308 10.957 21.0308C13.5648 21.0308 15.9412 20.0398 17.7301 18.4139C17.9727 18.1934 18.2046 17.9612 18.4247 17.7181ZM10.957 20.0308C15.9681 20.0308 20.0303 15.9685 20.0303 10.9575C20.0303 5.94651 15.9681 1.88428 10.957 1.88428C5.94602 1.88428 1.88379 5.94651 1.88379 10.9575C1.88379 15.9685 5.94602 20.0308 10.957 20.0308Z" fill="black"/>
<path d="M22.2622 22.9695L18.4255 19.1331C18.6717 18.9081 18.9076 18.6722 19.1326 18.426L22.9692 22.2624C23.1645 22.4576 23.1645 22.7742 22.9693 22.9695C22.774 23.1648 22.4574 23.1648 22.2622 22.9695Z" fill="black"/>
</svg>
