<svg width="24" height="24" viewBox="0 0 24 24" fill="none" xmlns="http://www.w3.org/2000/svg">
<path d="M11 5.50011C7.96243 5.50011 5.5 7.96255 5.5 11.0001C5.5 11.2763 5.27614 11.5001 5 11.5001C4.72386 11.5001 4.5 11.2763 4.5 11.0001C4.5 7.41026 7.41015 4.50011 11 4.50011C11.2761 4.50011 11.5 4.72397 11.5 5.00011C11.5 5.27626 11.2761 5.50011 11 5.50011Z" fill="black"/>
<path fill-rule="evenodd" clip-rule="evenodd" d="M18.4249 17.7181C20.0441 15.9307 21.0305 13.5593 21.0305 10.9575C21.0305 5.39422 16.5206 0.884277 10.9573 0.884277C5.39398 0.884277 0.884033 5.39422 0.884033 10.9575C0.884033 16.5208 5.39398 21.0308 10.9573 21.0308C13.5651 21.0308 15.9414 20.0398 17.7303 18.4139C17.973 18.1934 18.2048 17.9612 18.4249 17.7181ZM10.9573 20.0308C15.9683 20.0308 20.0305 15.9685 20.0305 10.9575C20.0305 5.94651 15.9683 1.88428 10.9573 1.88428C5.94626 1.88428 1.88403 5.94651 1.88403 10.9575C1.88403 15.9685 5.94626 20.0308 10.9573 20.0308Z" fill="black"/>
<path d="M22.2624 22.9695L18.4258 19.1331C18.6719 18.9081 18.9079 18.6722 19.1329 18.426L22.9695 22.2624C23.1648 22.4576 23.1648 22.7742 22.9695 22.9695C22.7743 23.1648 22.4577 23.1648 22.2624 22.9695Z" fill="black"/>
</svg>
