<svg width="24" height="24" viewBox="0 0 24 24" fill="none" xmlns="http://www.w3.org/2000/svg">
<path d="M10.75 5.75011C7.98858 5.75011 5.75 7.98869 5.75 10.7501C5.75 11.3024 5.30228 11.7501 4.75 11.7501C4.19772 11.7501 3.75 11.3024 3.75 10.7501C3.75 6.88412 6.88401 3.75011 10.75 3.75011C11.3023 3.75011 11.75 4.19783 11.75 4.75011C11.75 5.3024 11.3023 5.75011 10.75 5.75011Z" fill="black"/>
<path fill-rule="evenodd" clip-rule="evenodd" d="M18.5023 17.0883C19.9261 15.351 20.7805 13.129 20.7805 10.7075C20.7805 5.14422 16.2706 0.634277 10.7073 0.634277C5.14398 0.634277 0.634033 5.14422 0.634033 10.7075C0.634033 16.2708 5.14398 20.7808 10.7073 20.7808C13.1288 20.7808 15.3507 19.9264 17.088 18.5025C17.097 18.4952 17.1059 18.4879 17.1148 18.4805C17.6212 18.0626 18.0861 17.5962 18.5023 17.0883ZM10.7073 18.7808C15.166 18.7808 18.7805 15.1663 18.7805 10.7075C18.7805 6.24879 15.166 2.63428 10.7073 2.63428C6.24855 2.63428 2.63403 6.24879 2.63403 10.7075C2.63403 15.1663 6.24855 18.7808 10.7073 18.7808Z" fill="black"/>
<path d="M21.6589 23.0731L18.5081 19.9225C19.0175 19.4909 19.4907 19.0177 19.9223 18.5083L23.073 21.6588C23.4636 22.0493 23.4636 22.6825 23.0731 23.073C22.6826 23.4636 22.0494 23.4636 21.6589 23.0731Z" fill="black"/>
</svg>
