<svg width="24" height="24" viewBox="0 0 24 24" fill="none" xmlns="http://www.w3.org/2000/svg">
<path fill-rule="evenodd" clip-rule="evenodd" d="M17.2665 19.0346C15.5596 20.3639 13.4134 21.1558 11.0823 21.1558C5.51898 21.1558 1.00903 16.6458 1.00903 11.0825C1.00903 5.51922 5.51898 1.00928 11.0823 1.00928C16.6456 1.00928 21.1555 5.51922 21.1555 11.0825C21.1555 13.4137 20.3637 15.5599 19.0343 17.2668L23.6248 21.857C24.113 22.3452 24.113 23.1366 23.6248 23.6248C23.1367 24.113 22.3453 24.113 21.8571 23.6249L17.2665 19.0346ZM18.6555 11.0825C18.6555 15.2651 15.2649 18.6558 11.0823 18.6558C6.89969 18.6558 3.50903 15.2651 3.50903 11.0825C3.50903 6.89994 6.89969 3.50928 11.0823 3.50928C15.2649 3.50928 18.6555 6.89994 18.6555 11.0825Z" fill="black"/>
</svg>
