<svg width="24" height="24" viewBox="0 0 24 24" fill="none" xmlns="http://www.w3.org/2000/svg">
<path d="M10.7498 5.75011C7.98833 5.75011 5.74976 7.98869 5.74976 10.7501C5.74976 11.3024 5.30204 11.7501 4.74976 11.7501C4.19747 11.7501 3.74976 11.3024 3.74976 10.7501C3.74976 6.88412 6.88376 3.75011 10.7498 3.75011C11.302 3.75011 11.7498 4.19783 11.7498 4.75011C11.7498 5.3024 11.302 5.75011 10.7498 5.75011Z" fill="black"/>
<path fill-rule="evenodd" clip-rule="evenodd" d="M18.502 17.0883C19.9258 15.351 20.7803 13.129 20.7803 10.7075C20.7803 5.14422 16.2703 0.634277 10.707 0.634277C5.14374 0.634277 0.633789 5.14422 0.633789 10.7075C0.633789 16.2708 5.14374 20.7808 10.707 20.7808C13.1285 20.7808 15.3505 19.9264 17.0878 18.5025C17.0967 18.4952 17.1056 18.4879 17.1146 18.4805C17.6209 18.0626 18.0858 17.5962 18.502 17.0883ZM10.707 18.7808C15.1658 18.7808 18.7803 15.1663 18.7803 10.7075C18.7803 6.24879 15.1658 2.63428 10.707 2.63428C6.24831 2.63428 2.63379 6.24879 2.63379 10.7075C2.63379 15.1663 6.24831 18.7808 10.707 18.7808Z" fill="black"/>
<path d="M21.6586 23.0731L18.5079 19.9225C19.0173 19.4909 19.4904 19.0177 19.9221 18.5083L23.0728 21.6588C23.4633 22.0493 23.4633 22.6825 23.0728 23.073C22.6823 23.4636 22.0492 23.4636 21.6586 23.0731Z" fill="black"/>
</svg>
