<svg width="24" height="24" viewBox="0 0 24 24" fill="none" xmlns="http://www.w3.org/2000/svg">
<path d="M7.59198 7.59223C7.88488 7.29934 8.35975 7.29933 8.65264 7.59223L11.0819 10.0215L13.5111 7.59223C13.804 7.29933 14.2789 7.29934 14.5718 7.59223C14.8647 7.88512 14.8647 8.36 14.5718 8.65289L12.1425 11.0821L14.5715 13.511C14.8644 13.8039 14.8644 14.2788 14.5715 14.5717C14.2786 14.8646 13.8037 14.8646 13.5108 14.5717L11.0819 12.1428L8.65294 14.5717C8.36004 14.8646 7.88517 14.8646 7.59227 14.5717C7.29938 14.2788 7.29938 13.8039 7.59228 13.511L10.0212 11.0821L7.59199 8.65289C7.29909 8.36 7.29909 7.88512 7.59198 7.59223Z" fill="black"/>
<path fill-rule="evenodd" clip-rule="evenodd" d="M10.832 20.9058C13.3437 20.9058 15.6407 19.9865 17.4049 18.4661C17.7777 18.1448 18.1267 17.7967 18.4489 17.4247L18.4656 17.4054C19.986 15.6412 20.9053 13.3442 20.9053 10.8325C20.9053 5.26922 16.3953 0.759277 10.832 0.759277C5.26874 0.759277 0.758789 5.26922 0.758789 10.8325C0.758789 16.3958 5.26874 20.9058 10.832 20.9058ZM10.832 19.4058C15.5669 19.4058 19.4053 15.5674 19.4053 10.8325C19.4053 6.09765 15.5669 2.25928 10.832 2.25928C6.09716 2.25928 2.25879 6.09765 2.25879 10.8325C2.25879 15.5674 6.09716 19.4058 10.832 19.4058Z" fill="black"/>
<path d="M18.4681 19.5293L21.9604 23.0213C22.2533 23.3142 22.7282 23.3142 23.021 23.0213C23.3139 22.7284 23.3139 22.2535 23.021 21.9606L19.5288 18.4686C19.1984 18.8446 18.8441 19.1989 18.4681 19.5293Z" fill="black"/>
</svg>
