<svg width="24" height="24" viewBox="0 0 24 24" fill="none" xmlns="http://www.w3.org/2000/svg">
<path d="M8.98398 7.21611C8.49582 6.72796 7.70436 6.72796 7.21621 7.21612C6.72806 7.70428 6.72806 8.49573 7.21622 8.98389L9.0156 10.7833L7.21648 12.5824C6.72833 13.0705 6.72832 13.862 7.21648 14.3501C7.70463 14.8383 8.49608 14.8383 8.98424 14.3501L10.7834 12.551L12.5825 14.3501C13.0707 14.8383 13.8621 14.8383 14.3503 14.3501C14.8384 13.862 14.8384 13.0705 14.3503 12.5824L12.5511 10.7833L14.3505 8.98389C14.8387 8.49573 14.8387 7.70428 14.3505 7.21612C13.8624 6.72796 13.0709 6.72796 12.5828 7.21611L10.7834 9.0155L8.98398 7.21611Z" fill="black"/>
<path fill-rule="evenodd" clip-rule="evenodd" d="M18.5343 16.7668C19.8637 15.0599 20.6555 12.9137 20.6555 10.5825C20.6555 5.01922 16.1456 0.509277 10.5823 0.509277C5.01898 0.509277 0.509033 5.01922 0.509033 10.5825C0.509033 16.1458 5.01898 20.6558 10.5823 20.6558C12.9293 20.6558 15.0888 19.8531 16.8014 18.5073C17.4472 17.9997 18.0295 17.4149 18.5343 16.7668ZM10.5823 18.1558C14.7649 18.1558 18.1555 14.7651 18.1555 10.5825C18.1555 6.39994 14.7649 3.00928 10.5823 3.00928C6.39969 3.00928 3.00903 6.39994 3.00903 10.5825C3.00903 14.7651 6.39969 18.1558 10.5823 18.1558Z" fill="black"/>
<path d="M21.3571 23.1249L18.1899 19.9579C18.8382 19.4311 19.4309 18.8385 19.9577 18.1901L23.1248 21.357C23.613 21.8452 23.613 22.6366 23.1249 23.1248C22.6367 23.613 21.8453 23.613 21.3571 23.1249Z" fill="black"/>
</svg>
