<svg width="24" height="24" viewBox="0 0 24 24" fill="none" xmlns="http://www.w3.org/2000/svg">
<path fill-rule="evenodd" clip-rule="evenodd" d="M17.2663 19.0346C15.5593 20.3639 13.4131 21.1558 11.082 21.1558C5.51874 21.1558 1.00879 16.6458 1.00879 11.0825C1.00879 5.51922 5.51874 1.00928 11.082 1.00928C16.6453 1.00928 21.1553 5.51922 21.1553 11.0825C21.1553 13.4137 20.3634 15.5599 19.034 17.2668L23.6245 21.857C24.1127 22.3452 24.1127 23.1366 23.6246 23.6248C23.1365 24.113 22.345 24.113 21.8568 23.6249L17.2663 19.0346ZM18.6553 11.0825C18.6553 15.2651 15.2646 18.6558 11.082 18.6558C6.89945 18.6558 3.50879 15.2651 3.50879 11.0825C3.50879 6.89994 6.89945 3.50928 11.082 3.50928C15.2646 3.50928 18.6553 6.89994 18.6553 11.0825Z" fill="black"/>
</svg>
