<svg width="24" height="24" viewBox="0 0 24 24" fill="none" xmlns="http://www.w3.org/2000/svg">
<path fill-rule="evenodd" clip-rule="evenodd" d="M17.6549 18.7161C15.8907 20.2365 13.5937 21.1558 11.082 21.1558C5.51874 21.1558 1.00879 16.6458 1.00879 11.0825C1.00879 5.51922 5.51874 1.00928 11.082 1.00928C16.6453 1.00928 21.1553 5.51922 21.1553 11.0825C21.1553 13.5942 20.236 15.8912 18.7155 17.6554L23.271 22.2106C23.5639 22.5035 23.5639 22.9784 23.271 23.2713C22.9782 23.5642 22.5033 23.5642 22.2104 23.2713L17.6549 18.7161ZM19.6553 11.0825C19.6553 15.8174 15.8169 19.6558 11.082 19.6558C6.34716 19.6558 2.50879 15.8174 2.50879 11.0825C2.50879 6.34765 6.34716 2.50928 11.082 2.50928C15.8169 2.50928 19.6553 6.34765 19.6553 11.0825Z" fill="black"/>
</svg>
