<svg width="24" height="24" viewBox="0 0 24 24" fill="none" xmlns="http://www.w3.org/2000/svg">
<path d="M7.59223 7.59223C7.88512 7.29934 8.35999 7.29933 8.65289 7.59223L11.0821 10.0215L13.5114 7.59223C13.8043 7.29933 14.2791 7.29934 14.572 7.59223C14.8649 7.88512 14.8649 8.36 14.572 8.65289L12.1428 11.0821L14.5717 13.511C14.8646 13.8039 14.8646 14.2788 14.5717 14.5717C14.2788 14.8646 13.804 14.8646 13.5111 14.5717L11.0821 12.1428L8.65318 14.5717C8.36029 14.8646 7.88541 14.8646 7.59252 14.5717C7.29963 14.2788 7.29963 13.8039 7.59252 13.511L10.0215 11.0821L7.59223 8.65289C7.29934 8.36 7.29933 7.88512 7.59223 7.59223Z" fill="black"/>
<path fill-rule="evenodd" clip-rule="evenodd" d="M10.8323 20.9058C13.344 20.9058 15.6409 19.9865 17.4051 18.4661C17.7779 18.1448 18.1269 17.7967 18.4491 17.4247L18.4658 17.4054C19.9863 15.6412 20.9055 13.3442 20.9055 10.8325C20.9055 5.26922 16.3956 0.759277 10.8323 0.759277C5.26898 0.759277 0.759033 5.26922 0.759033 10.8325C0.759033 16.3958 5.26898 20.9058 10.8323 20.9058ZM10.8323 19.4058C15.5672 19.4058 19.4055 15.5674 19.4055 10.8325C19.4055 6.09765 15.5672 2.25928 10.8323 2.25928C6.09741 2.25928 2.25903 6.09765 2.25903 10.8325C2.25903 15.5674 6.09741 19.4058 10.8323 19.4058Z" fill="black"/>
<path d="M18.4684 19.5293L21.9606 23.0213C22.2535 23.3142 22.7284 23.3142 23.0213 23.0213C23.3142 22.7284 23.3142 22.2535 23.0213 21.9606L19.529 18.4686C19.1987 18.8446 18.8443 19.1989 18.4684 19.5293Z" fill="black"/>
</svg>
