<svg width="24" height="24" viewBox="0 0 24 24" fill="none" xmlns="http://www.w3.org/2000/svg">
<path d="M13.7229 5.06148C14.2016 4.60606 14.4999 3.96287 14.4999 3.25C14.4999 1.86929 13.3807 0.75 11.9999 0.75C10.6192 0.75 9.49995 1.86929 9.49995 3.25C9.49995 3.96288 9.79833 4.60608 10.277 5.0615C8.13972 5.89127 6.89522 8.1305 7.3252 10.3879L7.58767 11.7659C7.64416 12.0624 7.66611 12.3639 7.65353 12.6643L2.92678 18.2664C2.68954 18.5475 2.69127 18.9593 2.93086 19.2385C3.17045 19.5176 3.57717 19.5818 3.89109 19.39L6.24942 17.9488C6.41545 17.8473 6.58341 17.7505 6.75313 17.6585C6.74128 17.8191 6.76041 17.9842 6.81409 18.1453L8.31409 22.6453C8.5324 23.3002 9.2403 23.6542 9.89523 23.4359C10.5502 23.2175 10.9041 22.5096 10.6858 21.8547L9.52865 18.3833L12 17.1476L14.4713 18.3832L13.3141 21.8547C13.0958 22.5096 13.4497 23.2175 14.1047 23.4359C14.7596 23.6542 15.4675 23.3002 15.6858 22.6453L17.1821 18.1563C17.1978 18.1107 17.2109 18.0641 17.2212 18.0168C17.2572 17.8526 17.259 17.6866 17.2301 17.5276C13.9482 15.8515 10.0247 15.8836 6.75313 17.6585C6.75711 17.605 6.76455 17.5519 6.77528 17.4996L7.09358 15.8285C7.01516 15.8622 6.93699 15.8966 6.85909 15.9319L7.13644 15.6032L7.09358 15.8285C10.2225 14.4869 13.7526 14.4591 16.8865 15.7238L16.4123 13.2342C16.3199 12.7491 16.3199 12.251 16.4123 11.7659L16.6748 10.3879C16.9895 8.73562 16.4071 7.09306 15.2342 6.00582L7.13644 15.6032L7.58773 13.2342C7.62364 13.0457 7.64553 12.8552 7.65353 12.6643L13.9777 5.16894C13.8943 5.13088 13.8093 5.09503 13.7229 5.06148Z" fill="black"/>
<path d="M13.9777 5.16894C14.4475 5.38325 14.8694 5.66768 15.2342 6.00582L17.5732 3.23367C17.8403 2.91709 17.8002 2.44391 17.4837 2.1768C17.1671 1.90968 16.6939 1.94978 16.4268 2.26636L13.9777 5.16894Z" fill="black"/>
<path d="M17.2258 17.5046L16.8865 15.7238C17.7386 16.0677 18.5615 16.5071 19.339 17.0417L20.9249 18.132C21.2662 18.3666 21.3527 18.8336 21.118 19.1749C20.8834 19.5162 20.4164 19.6027 20.0751 19.368L18.4892 18.2777C18.0826 17.9982 17.6619 17.7481 17.2301 17.5276L17.2258 17.5046Z" fill="black"/>
</svg>
