<svg width="24" height="24" viewBox="0 0 24 24" fill="none" xmlns="http://www.w3.org/2000/svg">
<path fill-rule="evenodd" clip-rule="evenodd" d="M12 0.125C10.136 0.125 8.62501 1.63604 8.62501 3.5C8.62501 3.96109 8.71782 4.40117 8.88558 4.80203C7.02873 6.03269 6.03384 8.28429 6.46572 10.5516L6.72818 11.9296C6.79998 12.3065 6.79998 12.6936 6.72818 13.0705L6.606 13.7119L2.83124 18.1857C2.55446 18.5138 2.55648 18.9941 2.836 19.3199C3.11553 19.6456 3.59003 19.7204 3.95627 19.4966L5.69518 18.434L6.14584 21.8139C6.3192 23.1141 7.51373 24.0275 8.8139 23.8542C10.1141 23.6808 11.0275 22.4863 10.8542 21.1861L10.5782 19.1162L12 18.4053L13.4218 19.1162L13.1458 21.1861C12.9725 22.4863 13.8859 23.6808 15.1861 23.8542C16.4863 24.0275 17.6808 23.1141 17.8542 21.8139L18.3208 18.3144C18.3534 18.3363 18.3859 18.3584 18.4184 18.3807L20.0043 19.471C20.4025 19.7448 20.9473 19.6439 21.221 19.2457C21.4948 18.8475 21.3939 18.3027 20.9957 18.029L19.4098 16.9386C18.9016 16.5893 18.3742 16.2801 17.8321 16.0113L17.2719 13.0705C17.2001 12.6936 17.2001 12.3065 17.2719 11.9296L17.5344 10.5516C17.9014 8.62463 17.2379 6.70899 15.8905 5.42182L17.6688 3.31426C17.9804 2.94492 17.9336 2.39288 17.5643 2.08124C17.1949 1.76961 16.6429 1.81639 16.3312 2.18574L15.3705 3.32438C15.2792 1.54204 13.8051 0.125 12 0.125ZM13.302 5.77597C13.1733 5.65766 13.0812 5.50189 13.0412 5.32713C12.9791 5.05583 13.0497 4.77114 13.2314 4.56035C13.4773 4.27527 13.625 3.90599 13.625 3.5C13.625 2.60254 12.8975 1.875 12 1.875C11.1025 1.875 10.375 2.60254 10.375 3.5C10.375 3.906 10.5228 4.27528 10.7686 4.56036C10.9504 4.77115 11.021 5.05584 10.9588 5.32714C10.8967 5.59845 10.7092 5.824 10.4538 5.93465C8.79572 6.65302 7.84339 8.43173 8.18481 10.2242L8.43602 11.543L13.302 5.77597ZM8.08095 15.3212L8.23928 14.4899L14.7588 6.7631C15.6358 7.64882 16.0612 8.93294 15.8153 10.2242L15.5528 11.6021C15.4398 12.1954 15.4398 12.8047 15.5528 13.398L15.9042 15.2427C13.36 14.4597 10.6224 14.4824 8.08095 15.3212ZM7.48927 17.4305C7.40487 17.5692 7.3675 17.7352 7.38992 17.9033L7.88049 21.5826C7.92611 21.9248 8.24046 22.1651 8.58261 22.1195C8.92476 22.0739 9.16515 21.7595 9.11953 21.4174L8.76101 18.7285C8.71163 18.3582 8.90285 17.9974 9.23702 17.8303L11.6087 16.6444C11.855 16.5213 12.145 16.5213 12.3913 16.6444L14.763 17.8303C15.0972 17.9974 15.2884 18.3582 15.239 18.7285L14.8805 21.4174C14.8349 21.7595 15.0753 22.0739 15.4174 22.1195C15.7596 22.1651 16.0739 21.9248 16.1195 21.5826L16.6101 17.9033C16.6388 17.6884 16.5697 17.4769 16.4296 17.3215C16.4167 17.3073 16.4043 17.2926 16.3925 17.2776C13.5481 16.0929 10.3166 16.1368 7.48927 17.4305Z" fill="black"/>
</svg>
