<svg width="24" height="24" viewBox="0 0 24 24" fill="none" xmlns="http://www.w3.org/2000/svg">
<path d="M8.08912 15.0555L15.4998 6.27244C16.4931 7.35154 16.9647 8.86559 16.6747 10.3879L16.4122 11.7659C16.3198 12.251 16.3198 12.7491 16.4122 13.2342L16.8035 15.2883C14.0123 14.221 10.9333 14.1387 8.08912 15.0555Z" fill="black"/>
<path d="M6.79049 18.0661C10.0385 16.2413 13.9793 16.2157 17.2335 17.9524C17.23 17.9739 17.2258 17.9954 17.2211 18.0168C17.2108 18.0641 17.1978 18.1107 17.1821 18.1563L15.6857 22.6453C15.4674 23.3002 14.7595 23.6542 14.1046 23.4359C13.4497 23.2175 13.0957 22.5096 13.314 21.8547L14.4712 18.3832L11.9999 17.1476L9.52858 18.3833L10.6857 21.8547C10.904 22.5096 10.5501 23.2175 9.89517 23.4359C9.24024 23.6542 8.53234 23.3002 8.31403 22.6453L6.81403 18.1453C6.80526 18.119 6.79742 18.0926 6.79049 18.0661Z" fill="black"/>
<path d="M7.5876 11.7659C7.60887 11.8775 7.62524 11.9899 7.63672 12.1026L14.321 4.18054C14.4364 3.89292 14.4999 3.57888 14.4999 3.25C14.4999 1.86929 13.3806 0.75 11.9999 0.75C10.6192 0.75 9.49988 1.86929 9.49988 3.25C9.49988 3.96288 9.79826 4.60608 10.277 5.0615C8.13965 5.89127 6.89515 8.1305 7.32514 10.3879L7.5876 11.7659Z" fill="black"/>
<path d="M13.723 5.0615C13.9808 4.81614 14.1862 4.51642 14.321 4.18054L16.1402 2.02454C16.5408 1.54967 17.2506 1.48952 17.7255 1.89019C18.2003 2.29086 18.2605 3.00063 17.8598 3.4755L15.4998 6.27244C15.0202 5.75137 14.419 5.33169 13.723 5.0615Z" fill="black"/>
<path d="M17.2258 17.5046L16.8035 15.2883C17.7603 15.6542 18.6833 16.1358 19.5514 16.7326L21.1373 17.823C21.6493 18.175 21.779 18.8754 21.427 19.3874C21.0751 19.8994 20.3746 20.0291 19.8627 19.6771L18.2767 18.5867C17.9385 18.3542 17.5901 18.1427 17.2335 17.9524C17.2584 17.8015 17.255 17.65 17.2258 17.5046Z" fill="black"/>
<path d="M6.77528 17.4996C6.73753 17.6836 6.74089 17.8772 6.79049 18.0661C6.67441 18.1314 6.55921 18.1989 6.44496 18.2688L4.08663 19.71C3.61576 19.9977 3.00568 19.9015 2.64629 19.4827C2.2869 19.0639 2.28431 18.4463 2.64017 18.0245L7.63672 12.1026C7.67511 12.4796 7.65886 12.8608 7.58773 13.2342L6.77528 17.4996Z" fill="black"/>
</svg>
