<svg width="24" height="25" viewBox="0 0 24 25" fill="none" xmlns="http://www.w3.org/2000/svg">
<path fill-rule="evenodd" clip-rule="evenodd" d="M12.0004 0.0250244C10.2193 0.0250244 8.7754 1.46891 8.7754 3.25002C8.7754 3.81128 8.91913 4.33942 9.17133 4.79915C7.23454 5.96389 6.17765 8.23561 6.61346 10.5236L6.87593 11.9015C6.95125 12.297 6.95125 12.7031 6.87593 13.0986L6.74639 13.7787L2.94628 18.2825C2.71694 18.5543 2.71861 18.9523 2.95022 19.2222C3.18183 19.4921 3.57499 19.5541 3.87844 19.3687L6.04729 18.0432C6.06634 18.1701 6.09765 18.2944 6.14055 18.4145C6.14493 18.4286 6.14948 18.4428 6.15418 18.4569L7.62675 22.8746C7.97168 23.9094 9.09016 24.4686 10.1249 24.1237C11.1597 23.7787 11.719 22.6603 11.3741 21.6255L10.4157 18.7505L12.0004 17.9582L13.5851 18.7505L12.6268 21.6255C12.2818 22.6603 12.8411 23.7787 13.8759 24.1237C14.9106 24.4686 16.0291 23.9094 16.3741 22.8746L17.8466 18.4569C17.8484 18.4515 17.8502 18.4461 17.8519 18.4407C17.8546 18.4326 17.8572 18.4244 17.8597 18.4162C17.9178 18.2542 17.9547 18.0844 17.9689 17.9112C18.1496 18.021 18.328 18.1363 18.5037 18.2571L20.0897 19.3475C20.4196 19.5743 20.871 19.4907 21.0978 19.1608C21.3247 18.8308 21.2411 18.3794 20.9111 18.1526L19.3252 17.0623C18.8021 16.7026 18.2584 16.3861 17.6991 16.1129L17.125 13.0986C17.0496 12.7031 17.0496 12.297 17.125 11.9015L17.3874 10.5236C17.7539 8.59938 17.0647 6.68666 15.6842 5.43427L17.5545 3.21756C17.8127 2.91153 17.7739 2.45412 17.4679 2.19591C17.1619 1.9377 16.7045 1.97647 16.4463 2.28249L15.1818 3.78113C15.2105 3.60832 15.2254 3.43089 15.2254 3.25002C15.2254 1.46891 13.7815 0.0250244 12.0004 0.0250244ZM13.5136 5.75823C13.4961 5.75116 13.4786 5.7442 13.461 5.73736C13.2296 5.64753 13.0602 5.44557 13.0121 5.20206C12.964 4.95855 13.0438 4.70735 13.2236 4.53625C13.5644 4.21199 13.7754 3.75624 13.7754 3.25002C13.7754 2.26972 12.9807 1.47502 12.0004 1.47502C11.0201 1.47502 10.2254 2.26972 10.2254 3.25002C10.2254 3.75625 10.4364 4.21201 10.7772 4.53627C10.957 4.70736 11.0368 4.95856 10.9887 5.20207C10.9406 5.44558 10.7713 5.64755 10.5399 5.73738C8.72828 6.44069 7.67338 8.3388 8.03785 10.2523L8.30032 11.6302C8.3166 11.7157 8.33047 11.8016 8.34191 11.8877L13.5136 5.75823ZM7.88574 15.5464L8.09968 14.4233L14.7482 6.54357C15.7382 7.46521 16.2292 8.85465 15.963 10.2523L15.7006 11.6302C15.5911 12.205 15.5911 12.7952 15.7006 13.3699L16.0991 15.4621C13.4369 14.585 10.5446 14.609 7.88574 15.5464ZM7.56461 17.2324L7.48471 17.6518C7.46644 17.7478 7.47549 17.8445 7.50824 17.9327C7.51381 17.9477 7.51889 17.9629 7.52346 17.9783C7.52544 17.985 7.52754 17.9917 7.52977 17.9983L9.00234 22.416C9.09403 22.6911 9.39135 22.8398 9.66642 22.7481C9.94149 22.6564 10.0901 22.3591 9.99846 22.084L8.84131 18.6125C8.72721 18.2703 8.88216 17.8962 9.20487 17.7348L11.6762 16.4992C11.8803 16.3971 12.1206 16.3971 12.3247 16.4991L14.7959 17.7348C15.1187 17.8961 15.2736 18.2702 15.1595 18.6125L14.0023 22.084C13.9107 22.3591 14.0593 22.6564 14.3344 22.7481C14.6095 22.8398 14.9068 22.6911 14.9985 22.416L16.471 17.9983L16.4754 17.9848L16.4772 17.9788C16.4818 17.9634 16.4869 17.9482 16.4925 17.9332C16.5254 17.8448 16.5345 17.7479 16.5162 17.6518L16.4158 17.1247C13.5876 15.9578 10.3855 15.9869 7.56461 17.2324Z" fill="black"/>
</svg>
