<svg width="24" height="24" viewBox="0 0 24 24" fill="none" xmlns="http://www.w3.org/2000/svg">
<path d="M13.7228 5.06148C13.7722 5.01448 13.8197 4.96548 13.8651 4.91462L13.9563 4.80661C14.2965 4.37952 14.4999 3.83851 14.4999 3.25C14.4999 1.86929 13.3806 0.75 11.9999 0.75C10.6192 0.75 9.49988 1.86929 9.49988 3.25C9.49988 3.96288 9.79826 4.60608 10.2769 5.0615C8.13965 5.89127 6.89515 8.1305 7.32513 10.3879L7.5876 11.7659C7.62 11.936 7.64104 12.1077 7.65071 12.2799L13.7367 5.06688L13.7228 5.06148Z" fill="black"/>
<path d="M7.7028 15.3195L15.4134 6.18102C16.4656 7.26503 16.973 8.8221 16.6747 10.3879L16.4122 11.7659C16.3198 12.251 16.3198 12.7491 16.4122 13.2342L16.831 15.4329C13.9082 14.2952 10.6604 14.2519 7.7028 15.3195Z" fill="black"/>
<path d="M6.76393 17.9378C10.0279 16.1193 13.9767 16.0918 17.2482 17.8187C17.2445 17.8846 17.2356 17.9509 17.2211 18.0168C17.2108 18.0641 17.1977 18.1107 17.1821 18.1563L15.6857 22.6453C15.4674 23.3002 14.7595 23.6542 14.1046 23.4359C13.4497 23.2175 13.0957 22.5096 13.314 21.8547L14.4712 18.3832L11.9999 17.1476L9.52858 18.3833L10.6857 21.8547C10.904 22.5096 10.5501 23.2175 9.89516 23.4359C9.24023 23.6542 8.53233 23.3002 8.31402 22.6453L6.81402 18.1453C6.79114 18.0766 6.77453 18.0072 6.76393 17.9378Z" fill="black"/>
<path d="M13.9574 4.80535C13.9274 4.84309 13.8963 4.87994 13.8642 4.91585L13.7367 5.06688C14.3857 5.32114 14.9519 5.70559 15.4134 6.18102L17.7643 3.39489C18.1204 2.97278 18.067 2.34188 17.6449 1.98573C17.2228 1.62957 16.5919 1.68304 16.2357 2.10515L13.9574 4.80535Z" fill="black"/>
<path d="M17.2258 17.5046L16.831 15.4329C17.7529 15.7918 18.6427 16.2596 19.4806 16.8357L21.0665 17.926C21.5216 18.2389 21.6369 18.8614 21.324 19.3165C21.0112 19.7717 20.3886 19.8869 19.9335 19.5741L18.3475 18.4837C17.9915 18.2389 17.6242 18.0172 17.2482 17.8187C17.254 17.7125 17.2463 17.607 17.2258 17.5046Z" fill="black"/>
<path d="M6.77528 17.4996C6.74604 17.6421 6.74146 17.7904 6.76393 17.9378C6.63478 18.0097 6.5067 18.0845 6.37978 18.1621L4.02145 19.6033C3.6029 19.8591 3.06061 19.7735 2.74115 19.4013C2.42169 19.029 2.41938 18.48 2.73571 18.1051L7.65071 12.2799C7.66864 12.5987 7.64773 12.9192 7.58773 13.2342L6.77528 17.4996Z" fill="black"/>
</svg>
