<svg width="24" height="24" viewBox="0 0 24 24" fill="none" xmlns="http://www.w3.org/2000/svg">
<path d="M5.94835 5.64592C5.4334 5.64588 4.9604 5.64585 4.56504 5.67815C4.13878 5.71298 3.67243 5.79271 3.21182 6.0274C2.55325 6.36296 2.01782 6.89839 1.68226 7.55696C1.44757 8.01757 1.36784 8.48391 1.33302 8.91018C1.30071 9.30555 1.30075 9.77851 1.30078 10.2935L1.30078 17.9984C1.30075 18.5133 1.30071 18.9863 1.33302 19.3817C1.36784 19.8079 1.44757 20.2743 1.68226 20.7349C2.01782 21.3935 2.55325 21.9289 3.21182 22.2644C3.67243 22.4991 4.13878 22.5789 4.56504 22.6137C4.96041 22.646 5.43338 22.646 5.94835 22.6459H13.6532C14.1682 22.646 14.6412 22.646 15.0365 22.6137C15.4628 22.5789 15.9291 22.4991 16.3898 22.2644C17.0483 21.9289 17.5838 21.3935 17.9193 20.7349C18.154 20.2743 18.2337 19.8079 18.2686 19.3817C18.3009 18.9863 18.3008 18.5134 18.3008 17.9984L18.3008 10.3838L16.8008 11.8838V17.9459C16.8008 19.066 16.8008 19.6261 16.5828 20.0539C16.3911 20.4302 16.0851 20.7362 15.7088 20.9279C15.2809 21.1459 14.7209 21.1459 13.6008 21.1459H6.00079C4.88068 21.1459 4.32063 21.1459 3.8928 20.9279C3.51648 20.7362 3.21052 20.4302 3.01877 20.0539C2.80079 19.6261 2.80079 19.066 2.80079 17.9459L2.80079 11.6064C2.7339 11.3541 2.73385 11.0875 2.80079 10.835V10.3459C2.80079 9.22582 2.80079 8.66577 3.01877 8.23794C3.21052 7.86162 3.51648 7.55566 3.89281 7.36391C4.32063 7.14592 4.88068 7.14592 6.00079 7.14592L13.6008 7.14592C14.7209 7.14592 15.2809 7.14593 15.7088 7.36391C16.0026 7.51364 16.2536 7.73302 16.4408 8.00116L17.5026 6.93932L17.5109 6.93111C17.2055 6.55749 16.8245 6.2489 16.3898 6.0274C15.9291 5.79271 15.4628 5.71298 15.0365 5.67815C14.6412 5.64585 14.1682 5.64588 13.6533 5.64592L5.94835 5.64592Z" fill="black"/>
<path d="M7.41832 3.94578C7.38595 4.00933 7.35838 4.0758 7.3349 4.14658L5.79235 4.14656C5.84441 3.85835 5.9312 3.5604 6.08182 3.2648C6.41737 2.60623 6.9528 2.0708 7.61137 1.73524C8.07198 1.50055 8.53833 1.42082 8.96459 1.38599C9.35995 1.35369 9.8329 1.35373 10.3479 1.35376L18.0528 1.35376C18.5677 1.35373 19.0407 1.35369 19.4361 1.386C19.8623 1.42082 20.3287 1.50055 20.7893 1.73524C21.4479 2.0708 21.9833 2.60623 22.3189 3.2648C22.5536 3.72541 22.6333 4.19176 22.6681 4.61802C22.7004 5.0134 22.7004 5.48636 22.7003 6.00134V13.7062C22.7004 14.2212 22.7004 14.6941 22.6681 15.0895C22.6333 15.5158 22.5536 15.9821 22.3189 16.4427C21.9833 17.1013 21.4479 17.6367 20.7893 17.9723C20.4571 18.1416 20.1218 18.2302 19.8008 18.2796C19.801 18.1947 19.8009 18.1105 19.8009 18.0274L19.8009 16.7507C19.9129 16.7214 20.0138 16.6839 20.1083 16.6358C20.4846 16.444 20.7906 16.1381 20.9824 15.7617C21.2003 15.3339 21.2003 14.7739 21.2003 13.6538V6.05377C21.2003 4.93366 21.2003 4.37361 20.9824 3.94578C20.7906 3.56946 20.4846 3.2635 20.1083 3.07175C19.6805 2.85377 19.1204 2.85377 18.0003 2.85377L10.4003 2.85377C9.28023 2.85377 8.72018 2.85377 8.29236 3.07175C7.91603 3.2635 7.61007 3.56946 7.41832 3.94578Z" fill="black"/>
<path d="M16.8614 8.71687C17.1558 8.42544 17.6306 8.42781 17.9221 8.72216C18.2135 9.01651 18.2111 9.49138 17.9168 9.78281L10.3986 17.2264C10.0808 17.541 9.56896 17.541 9.25122 17.2264L3.72358 11.7536C3.42923 11.4622 3.42686 10.9873 3.71829 10.693C4.00972 10.3986 4.48459 10.3963 4.77894 10.6877L9.82488 15.6836L16.8614 8.71687Z" fill="black"/>
</svg>
