<svg width="24" height="24" viewBox="0 0 24 24" fill="none" xmlns="http://www.w3.org/2000/svg">
<path d="M5.92765 4.64593C5.43156 4.64584 4.92101 4.64575 4.48362 4.68149C3.99552 4.72137 3.38292 4.81791 2.75784 5.13641C1.91111 5.56784 1.2227 6.25625 0.791269 7.10298C0.472774 7.72806 0.37623 8.34066 0.33635 8.82876C0.300613 9.26615 0.300703 9.7767 0.30079 10.2728L0.30079 18.0191C0.300703 18.5152 0.300613 19.0257 0.336349 19.4631C0.376229 19.9512 0.472774 20.5638 0.791269 21.1889C1.2227 22.0356 1.91111 22.724 2.75784 23.1555C3.38292 23.474 3.99552 23.5705 4.48362 23.6104C4.92102 23.6461 5.43157 23.646 5.92768 23.6459H13.6739C14.17 23.646 14.6806 23.6461 15.118 23.6104C15.6061 23.5705 16.2187 23.474 16.8438 23.1555C17.6905 22.724 18.3789 22.0356 18.8103 21.1889C19.1288 20.5638 19.2254 19.9512 19.2652 19.4631C19.301 19.0257 19.3009 18.5152 19.3008 18.0191L19.3008 10.798L16.8008 13.2981V17.9459C16.8008 19.066 16.8008 19.6261 16.5828 20.0539C16.3911 20.4302 16.0851 20.7362 15.7088 20.9279C15.281 21.1459 14.7209 21.1459 13.6008 21.1459H6.0008C4.88069 21.1459 4.32064 21.1459 3.89282 20.9279C3.51649 20.7362 3.21053 20.4302 3.01879 20.0539C2.8008 19.6261 2.8008 19.066 2.8008 17.9459V10.3459C2.8008 9.22583 2.8008 8.66578 3.01879 8.23796C3.21053 7.86163 3.51649 7.55567 3.89282 7.36392C4.32064 7.14594 4.88069 7.14594 6.0008 7.14594H13.6008C14.6949 7.14594 15.2546 7.14594 15.6787 7.34906L16.7956 6.23213C17.0491 5.97861 17.3435 5.79093 17.6576 5.66906C17.4078 5.46376 17.1351 5.28487 16.8438 5.13641C16.2187 4.81791 15.6061 4.72137 15.118 4.68149C14.6806 4.64575 14.17 4.64584 13.6739 4.64593H5.92765Z" fill="black"/>
<path d="M5.90481 2.74656C5.69448 2.74647 5.46153 2.74637 5.22239 2.75002C5.65545 1.93114 6.33102 1.26531 7.15739 0.844247C7.78248 0.525753 8.39507 0.429208 8.88318 0.389328C9.32057 0.353591 9.83111 0.353681 10.3272 0.353769L18.0735 0.353768C18.5696 0.353681 19.0801 0.353591 19.5175 0.389327C20.0056 0.429208 20.6182 0.525752 21.2433 0.844247C22.09 1.27568 22.7785 1.96409 23.2099 2.81082C23.5284 3.4359 23.6249 4.0485 23.6648 4.5366C23.7005 4.974 23.7004 5.48455 23.7004 5.98066V13.7269C23.7004 14.223 23.7005 14.7336 23.6648 15.171C23.6249 15.6591 23.5284 16.2717 23.2099 16.8967C22.7785 17.7435 22.09 18.4319 21.2433 18.8633C21.227 18.8716 21.2107 18.8798 21.1944 18.8878C21.2012 18.592 21.2011 18.3007 21.201 18.0429V10.2505C21.201 10.1262 21.2011 9.99365 21.2004 9.857V6.05378C21.2004 4.93367 21.2004 4.37362 20.9824 3.9458C20.7906 3.56947 20.4847 3.26351 20.1083 3.07176C19.6805 2.85378 19.1205 2.85378 18.0004 2.85378H15.8384C15.6313 2.82204 15.4411 2.8022 15.2728 2.78845C14.7544 2.74609 14.1694 2.74635 13.697 2.74656L5.90481 2.74656Z" fill="black"/>
<path d="M16.5096 8.36157C17.0002 7.87586 17.7917 7.8798 18.2774 8.37039C18.7631 8.86097 18.7591 9.65241 18.2686 10.1381L10.7506 17.5815C10.2362 18.0908 9.4069 18.0888 8.89502 17.5769L4.11655 12.7984C3.62839 12.3103 3.62839 11.5188 4.11655 11.0306C4.6047 10.5425 5.39616 10.5425 5.88431 11.0306L9.82929 14.9756L16.5096 8.36157Z" fill="black"/>
</svg>
