<svg width="24" height="24" viewBox="0 0 24 24" fill="none" xmlns="http://www.w3.org/2000/svg">
<path fill-rule="evenodd" clip-rule="evenodd" d="M5.97938 6.64592C5.43749 6.64592 5.00041 6.64592 4.64647 6.67483C4.28205 6.70461 3.96195 6.76751 3.66581 6.91841C3.1954 7.15809 2.81295 7.54054 2.57327 8.01095C2.42237 8.30709 2.35947 8.62719 2.32969 8.99161C2.30077 9.34555 2.30078 9.78261 2.30078 10.3245L2.30078 17.9673C2.30078 18.5092 2.30077 18.9463 2.32969 19.3002C2.35947 19.6647 2.42237 19.9848 2.57327 20.2809C2.81295 20.7513 3.1954 21.1338 3.66581 21.3734C3.96195 21.5243 4.28205 21.5872 4.64647 21.617C5.00039 21.6459 5.43743 21.6459 5.97928 21.6459H13.6222C14.1641 21.6459 14.6012 21.6459 14.9551 21.617C15.3195 21.5872 15.6396 21.5243 15.9358 21.3734C16.4062 21.1338 16.7886 20.7513 17.0283 20.2809C17.1792 19.9848 17.2421 19.6647 17.2719 19.3002C17.3008 18.9463 17.3008 18.5093 17.3008 17.9674L17.3008 10.3245C17.3008 9.78264 17.3008 9.34554 17.2719 8.99161C17.2421 8.62719 17.1792 8.30709 17.0283 8.01095C16.7886 7.54054 16.4062 7.15809 15.9358 6.91841C15.6396 6.76751 15.3195 6.70461 14.9551 6.67483C14.6012 6.64592 14.1641 6.64592 13.6222 6.64592L5.97938 6.64592ZM14.1445 11.6489C14.3383 11.4522 14.6549 11.45 14.8516 11.6439C15.0482 11.8378 15.0504 12.1543 14.8565 12.351L10.4654 16.8044C10.2462 17.0268 9.88819 17.0293 9.66586 16.81L5.14947 12.3559C4.95285 12.162 4.95065 11.8454 5.14456 11.6488C5.33846 11.4522 5.65503 11.45 5.85164 11.6439L10.0585 15.7928L14.1445 11.6489Z" fill="black"/>
<path d="M7.20081 5.64658C7.20398 4.79109 7.22851 4.31831 7.41832 3.94578C7.61007 3.56946 7.91603 3.2635 8.29236 3.07175C8.72018 2.85376 9.28023 2.85376 10.4003 2.85376L18.0003 2.85376C19.1204 2.85376 19.6805 2.85376 20.1083 3.07175C20.4846 3.2635 20.7906 3.56946 20.9823 3.94578C21.2003 4.3736 21.2003 4.93366 21.2003 6.05376L21.2003 13.6538C21.2003 14.7739 21.2003 15.3339 20.9823 15.7617C20.7906 16.1381 20.4846 16.444 20.1083 16.6358C19.7206 16.8333 19.2243 16.8518 18.3009 16.8536V17.8536C18.718 17.8529 19.0843 17.8486 19.3954 17.8232C19.7907 17.7909 20.1839 17.7196 20.5623 17.5268C21.1268 17.2392 21.5857 16.7802 21.8734 16.2157C22.0661 15.8374 22.1375 15.4441 22.1698 15.0488C22.2004 14.6742 22.2004 14.2195 22.2003 13.6923L22.2003 6.01524C22.2004 5.48811 22.2004 5.03329 22.1698 4.65873C22.1375 4.26339 22.0661 3.87017 21.8734 3.49179C21.5857 2.9273 21.1268 2.46836 20.5623 2.18074C20.1839 1.98795 19.7907 1.91663 19.3954 1.88433C19.0208 1.85373 18.5661 1.85374 18.0389 1.85376L10.3618 1.85376C9.83466 1.85374 9.37987 1.85373 9.00531 1.88433C8.60996 1.91663 8.21674 1.98795 7.83836 2.18074C7.27388 2.46836 6.81494 2.9273 6.52732 3.49179C6.33452 3.87017 6.26321 4.26339 6.23091 4.65873C6.20768 4.94298 6.20209 5.2734 6.20075 5.64658L7.20081 5.64658Z" fill="black"/>
</svg>
