<svg width="24" height="24" viewBox="0 0 24 24" fill="none" xmlns="http://www.w3.org/2000/svg">
<path d="M5.96224 6.14592C5.43512 6.14591 4.98031 6.14589 4.60576 6.17649C4.21041 6.20879 3.81719 6.28011 3.43881 6.4729C2.87433 6.76052 2.41539 7.21946 2.12777 7.78395C1.93497 8.16233 1.86366 8.55555 1.83136 8.95089C1.80075 9.32544 1.80077 9.78016 1.80078 10.3072L1.80078 17.9845C1.80077 18.5116 1.80075 18.9664 1.83135 19.341C1.86366 19.7363 1.93497 20.1295 2.12777 20.5079C2.41539 21.0724 2.87433 21.5313 3.43881 21.8189C3.81719 22.0117 4.21041 22.0831 4.60576 22.1154C4.9803 22.146 5.43503 22.1459 5.96213 22.1459H13.6393C14.1664 22.1459 14.6213 22.146 14.9958 22.1154C15.3912 22.0831 15.7844 22.0117 16.1628 21.8189C16.7272 21.5313 17.1862 21.0724 17.4738 20.5079C17.6666 20.1295 17.7379 19.7363 17.7702 19.341C17.8008 18.9664 17.8008 18.5117 17.8008 17.9846L17.8008 10.5303L16.8008 11.5303V17.9459C16.8008 19.066 16.8008 19.6261 16.5828 20.0539C16.3911 20.4302 16.0851 20.7362 15.7088 20.9279C15.2809 21.1459 14.7209 21.1459 13.6008 21.1459H6.00079C4.88068 21.1459 4.32063 21.1459 3.8928 20.9279C3.51648 20.7362 3.21052 20.4302 3.01877 20.0539C2.80079 19.6261 2.80079 19.066 2.80079 17.9459L2.80079 10.3459C2.80079 9.22582 2.80079 8.66576 3.01877 8.23794C3.21052 7.86162 3.51648 7.55566 3.8928 7.36391C4.32063 7.14592 4.88068 7.14592 6.00079 7.14592L13.6008 7.14592C14.7209 7.14592 15.2809 7.14592 15.7088 7.36391C16.0795 7.55283 16.382 7.85261 16.5742 8.22133L17.3036 7.49192C17.0189 7.06096 16.6264 6.70914 16.1628 6.4729C15.7844 6.28011 15.3912 6.20879 14.9958 6.17649C14.6213 6.14589 14.1665 6.14591 13.6394 6.14592L5.96224 6.14592Z" fill="black"/>
<path d="M7.41833 3.94578C7.31978 4.13918 7.26579 4.35961 7.2362 4.64658L6.23191 4.64658C6.26468 4.25533 6.3365 3.86629 6.52732 3.49179C6.81494 2.9273 7.27388 2.46836 7.83837 2.18074C8.21675 1.98795 8.60997 1.91663 9.00531 1.88433C9.37987 1.85373 9.83461 1.85374 10.3617 1.85376L18.0389 1.85376C18.566 1.85374 19.0208 1.85373 19.3954 1.88433C19.7907 1.91663 20.1839 1.98795 20.5623 2.18074C21.1268 2.46836 21.5857 2.9273 21.8734 3.49179C22.0662 3.87017 22.1375 4.26339 22.1698 4.65873C22.2004 5.0333 22.2004 5.48806 22.2003 6.01521V13.6923C22.2004 14.2194 22.2004 14.6742 22.1698 15.0488C22.1375 15.4441 22.0662 15.8374 21.8734 16.2157C21.5857 16.7802 21.1268 17.2392 20.5623 17.5268C20.1839 17.7196 19.7907 17.7909 19.3954 17.8232C19.3644 17.8257 19.3329 17.828 19.3009 17.8302V16.8276C19.641 16.8007 19.8916 16.7462 20.1083 16.6358C20.4846 16.444 20.7906 16.1381 20.9823 15.7617C21.2003 15.3339 21.2003 14.7739 21.2003 13.6538V6.05376C21.2003 4.93366 21.2003 4.3736 20.9823 3.94578C20.7906 3.56946 20.4846 3.2635 20.1083 3.07175C19.6805 2.85376 19.1204 2.85376 18.0003 2.85376L10.4003 2.85376C9.28023 2.85376 8.72018 2.85376 8.29236 3.07175C7.91603 3.2635 7.61007 3.56946 7.41833 3.94578Z" fill="black"/>
<path d="M17.0373 8.89453C17.2335 8.70024 17.5501 8.70182 17.7444 8.89805C17.9387 9.09428 17.9371 9.41086 17.7409 9.60515L10.2227 17.0488C10.0023 17.2669 9.64743 17.2669 9.42711 17.0488L3.89947 11.576C3.70324 11.3817 3.70166 11.0651 3.89595 10.8689C4.09023 10.6726 4.40681 10.6711 4.60304 10.8654L9.82488 16.0354L17.0373 8.89453Z" fill="black"/>
</svg>
