<svg width="24" height="24" viewBox="0 0 24 24" fill="none" xmlns="http://www.w3.org/2000/svg">
<path fill-rule="evenodd" clip-rule="evenodd" d="M5.97938 6.64593C5.43749 6.64593 5.00041 6.64592 4.64647 6.67484C4.28205 6.70462 3.96195 6.76752 3.66581 6.91842C3.1954 7.1581 2.81295 7.54055 2.57327 8.01096C2.42237 8.3071 2.35947 8.6272 2.32969 8.99162C2.30077 9.34555 2.30078 9.78262 2.30078 10.3245L2.30078 17.9673C2.30078 18.5092 2.30077 18.9463 2.32969 19.3002C2.35947 19.6647 2.42237 19.9848 2.57327 20.2809C2.81295 20.7513 3.1954 21.1338 3.66581 21.3734C3.96195 21.5243 4.28205 21.5872 4.64647 21.617C5.00039 21.6459 5.43743 21.6459 5.97928 21.6459H13.6222C14.1641 21.6459 14.6012 21.6459 14.9551 21.617C15.3195 21.5872 15.6396 21.5243 15.9358 21.3734C16.4062 21.1338 16.7886 20.7513 17.0283 20.2809C17.1792 19.9848 17.2421 19.6647 17.2719 19.3002C17.3008 18.9463 17.3008 18.5093 17.3008 17.9674L17.3008 10.3245C17.3008 9.78265 17.3008 9.34554 17.2719 8.99162C17.2421 8.6272 17.1792 8.3071 17.0283 8.01096C16.7886 7.54055 16.4062 7.1581 15.9358 6.91842C15.6396 6.76752 15.3195 6.70462 14.9551 6.67484C14.6012 6.64592 14.1641 6.64593 13.6222 6.64593H5.97938ZM13.7884 11.2978C14.1762 10.9046 14.8093 10.9001 15.2026 11.2879C15.5959 11.6756 15.6003 12.3088 15.2126 12.702L10.8215 17.1555C10.4083 17.5745 9.73373 17.5792 9.31477 17.166L4.79838 12.7119C4.40515 12.3241 4.40075 11.691 4.78856 11.2977C5.17636 10.9045 5.80951 10.9001 6.20273 11.2879L10.0536 15.0857L13.7884 11.2978Z" fill="black"/>
<path d="M7.2362 4.64659C7.26578 4.35962 7.31978 4.13919 7.41832 3.94579C7.61007 3.56947 7.91603 3.2635 8.29236 3.07176C8.72018 2.85377 9.28023 2.85377 10.4003 2.85377L18.0003 2.85377C19.1204 2.85377 19.6805 2.85377 20.1083 3.07176C20.4846 3.2635 20.7906 3.56946 20.9823 3.94579C21.2003 4.37361 21.2003 4.93367 21.2003 6.05377V13.6538C21.2003 14.7739 21.2003 15.3339 20.9823 15.7618C20.7906 16.1381 20.4846 16.444 20.1083 16.6358C19.8916 16.7462 19.641 16.8007 19.3009 16.8276L19.3009 18.0197C19.301 18.291 19.301 18.5668 19.2952 18.8324C19.3571 18.8288 19.4177 18.8247 19.4768 18.8199C19.934 18.7825 20.4734 18.6944 21.0163 18.4178C21.7689 18.0343 22.3809 17.4224 22.7644 16.6697C23.041 16.1269 23.1291 15.5874 23.1664 15.1302C23.2005 14.7139 23.2004 14.2223 23.2003 13.7175V5.99001C23.2004 5.48523 23.2005 4.99364 23.1664 4.57731C23.1291 4.12012 23.041 3.58066 22.7644 3.03781C22.3809 2.28516 21.7689 1.67324 21.0163 1.28974C20.4735 1.01315 19.934 0.925016 19.4768 0.887662C19.0605 0.853648 18.5689 0.853706 18.0642 0.853765L10.3365 0.853765C9.8318 0.853706 9.34017 0.853649 8.92388 0.887661C8.46669 0.925014 7.92722 1.01315 7.38437 1.28975C6.63173 1.67324 6.0198 2.28516 5.63631 3.03781C5.35972 3.58066 5.27158 4.12012 5.23423 4.57731C5.23226 4.60135 5.23041 4.62563 5.22867 4.65016C5.45876 4.6465 5.69473 4.64654 5.92751 4.64658L7.2362 4.64659Z" fill="black"/>
</svg>
