<svg width="24" height="24" viewBox="0 0 24 24" fill="none" xmlns="http://www.w3.org/2000/svg">
<path d="M5.937 5.14593C5.43225 5.14587 4.94063 5.14581 4.52433 5.17982C4.06715 5.21717 3.52768 5.30531 2.98483 5.58191C2.23218 5.9654 1.62026 6.57732 1.23677 7.32997C0.960171 7.87282 0.872036 8.41228 0.834682 8.86947C0.800668 9.28578 0.800726 9.77735 0.800786 10.2821L0.800786 18.0097C0.800726 18.5145 0.800668 19.0061 0.834682 19.4224C0.872036 19.8796 0.960171 20.419 1.23677 20.9619C1.62026 21.7145 2.23218 22.3265 2.98483 22.71C3.52768 22.9866 4.06715 23.0747 4.52433 23.112C4.94066 23.1461 5.43225 23.146 5.93703 23.1459H13.6646C14.1693 23.146 14.6609 23.1461 15.0773 23.112C15.5344 23.0747 16.0739 22.9866 16.6168 22.71C17.3694 22.3265 17.9813 21.7145 18.3648 20.9619C18.6414 20.419 18.7295 19.8796 18.7669 19.4224C18.8009 19.0061 18.8009 18.5145 18.8008 18.0097L18.8008 10.5909L16.8008 12.5909L16.8008 17.9459C16.8008 19.066 16.8008 19.6261 16.5828 20.0539C16.3911 20.4302 16.0851 20.7362 15.7088 20.9279C15.2809 21.1459 14.7209 21.1459 13.6008 21.1459H6.00079C4.88069 21.1459 4.32063 21.1459 3.89281 20.9279C3.51649 20.7362 3.21053 20.4302 3.01878 20.0539C2.80079 19.6261 2.80079 19.066 2.80079 17.9459V10.3459C2.80079 9.22583 2.80079 8.66577 3.01878 8.23795C3.21053 7.86163 3.51649 7.55567 3.89281 7.36392C4.32063 7.14593 4.88069 7.14593 6.00079 7.14593H13.6008C14.7209 7.14593 15.2809 7.14593 15.7088 7.36392C15.8519 7.43682 15.9848 7.52623 16.1051 7.62974L17.149 6.58578C17.2784 6.45643 17.421 6.34851 17.5726 6.262C17.2909 5.99121 16.9692 5.7615 16.6168 5.5819C16.0739 5.30531 15.5344 5.21718 15.0773 5.17982C14.661 5.14581 14.1694 5.14587 13.6647 5.14593H5.937Z" fill="black"/>
<path d="M8.29236 3.07176C8.24667 3.09504 8.202 3.12001 8.15846 3.14658L5.90836 3.14656C5.804 3.14652 5.69476 3.14648 5.58321 3.14687C5.6001 3.11055 5.61778 3.07419 5.63632 3.03781C6.01981 2.28516 6.63173 1.67324 7.38438 1.28974C7.92723 1.01315 8.4667 0.925014 8.92389 0.887661C9.3402 0.853647 9.83178 0.853704 10.3365 0.853765L18.0641 0.853765C18.5689 0.853706 19.0605 0.853648 19.4768 0.88766C19.934 0.925014 20.4735 1.01315 21.0163 1.28974C21.769 1.67324 22.3809 2.28516 22.7644 3.03781C23.041 3.58066 23.1291 4.12012 23.1665 4.57731C23.2005 4.99364 23.2004 5.48523 23.2003 5.99001V13.7175C23.2004 14.2223 23.2005 14.7139 23.1665 15.1302C23.1291 15.5874 23.041 16.1269 22.7644 16.6697C22.3809 17.4224 21.769 18.0343 21.0163 18.4178C20.944 18.4546 20.8718 18.4881 20.7998 18.5186C20.8011 18.3529 20.801 18.1914 20.8009 18.0393L20.8009 16.053C20.8693 15.9617 20.9301 15.8644 20.9824 15.7618C21.2003 15.3339 21.2003 14.7739 21.2003 13.6538V6.05377C21.2003 4.93367 21.2003 4.37361 20.9824 3.94579C20.7906 3.56946 20.4847 3.2635 20.1083 3.07176C19.6805 2.85377 19.1205 2.85377 18.0004 2.85377L10.4003 2.85377C9.28024 2.85377 8.72019 2.85377 8.29236 3.07176Z" fill="black"/>
<path d="M16.6855 8.53922C17.078 8.15065 17.7111 8.15381 18.0997 8.54627C18.4883 8.93874 18.4851 9.5719 18.0927 9.96047L10.5747 17.4039C10.158 17.8164 9.48638 17.8147 9.07179 17.4001L4.29332 12.6216C3.90279 12.2311 3.90279 11.5979 4.29332 11.2074C4.68384 10.8169 5.31701 10.8169 5.70753 11.2074L9.82841 15.3283L16.6855 8.53922Z" fill="black"/>
</svg>
