<svg width="24" height="24" viewBox="0 0 24 24" fill="none" xmlns="http://www.w3.org/2000/svg">
<path d="M5.97938 6.64592C5.43749 6.64592 5.00041 6.64591 4.64647 6.67483C4.28205 6.7046 3.96195 6.76751 3.66581 6.91841C3.1954 7.15809 2.81295 7.54054 2.57327 8.01095C2.42237 8.30709 2.35947 8.62718 2.32969 8.99161C2.30077 9.34554 2.30078 9.78261 2.30078 10.3245L2.30078 17.9673C2.30078 18.5092 2.30077 18.9463 2.32969 19.3002C2.35947 19.6647 2.42237 19.9848 2.57327 20.2809C2.81295 20.7513 3.1954 21.1338 3.66581 21.3734C3.96195 21.5243 4.28205 21.5872 4.64647 21.617C5.00038 21.6459 5.43742 21.6459 5.97926 21.6459H13.6222C14.164 21.6459 14.6012 21.6459 14.9551 21.617C15.3195 21.5872 15.6396 21.5243 15.9358 21.3734C16.4062 21.1338 16.7886 20.7513 17.0283 20.2809C17.1792 19.9848 17.2421 19.6647 17.2719 19.3002C17.3008 18.9463 17.3008 18.5093 17.3008 17.9674L17.3008 10.6767L16.8008 11.1767L16.8008 17.9459C16.8008 19.066 16.8008 19.6261 16.5828 20.0539C16.391 20.4302 16.0851 20.7362 15.7088 20.9279C15.2809 21.1459 14.7209 21.1459 13.6008 21.1459H6.00078C4.88068 21.1459 4.32062 21.1459 3.8928 20.9279C3.51648 20.7362 3.21052 20.4302 3.01877 20.0539C2.80078 19.6261 2.80078 19.066 2.80078 17.9459L2.80078 10.3459C2.80078 9.22582 2.80078 8.66576 3.01877 8.23794C3.21052 7.86162 3.51648 7.55566 3.8928 7.36391C4.32063 7.14592 4.88068 7.14592 6.00078 7.14592H13.6008C14.7209 7.14592 15.2809 7.14592 15.7088 7.36391C16.0851 7.55566 16.391 7.86162 16.5828 8.23794C16.6202 8.31138 16.6512 8.38871 16.6769 8.4721L17.064 8.08499C17.0527 8.06013 17.0408 8.03546 17.0283 8.01095C16.7886 7.54054 16.4062 7.15809 15.9358 6.9184C15.6396 6.76751 15.3195 6.70461 14.9551 6.67483C14.6012 6.64591 14.1641 6.64592 13.6222 6.64592H5.97938Z" fill="black"/>
<path d="M7.41832 3.94578C7.22851 4.31831 7.20398 4.79109 7.20081 5.64658H6.70078C6.70212 5.27787 6.70753 4.96522 6.72924 4.69945C6.75902 4.33502 6.82193 4.01493 6.97282 3.71878C7.2125 3.24838 7.59495 2.86593 8.06536 2.62624C8.36151 2.47535 8.6816 2.41244 9.04602 2.38267C9.39994 2.35375 9.83697 2.35376 10.3788 2.35376L18.0217 2.35376C18.5636 2.35376 19.0007 2.35375 19.3546 2.38267C19.7191 2.41245 20.0392 2.47535 20.3353 2.62624C20.8057 2.86593 21.1882 3.24838 21.4279 3.71878C21.5787 4.01493 21.6417 4.33502 21.6714 4.69945C21.7003 5.05337 21.7003 5.49043 21.7003 6.03229V13.6752C21.7003 14.217 21.7003 14.6541 21.6714 15.0081C21.6417 15.3725 21.5787 15.6926 21.4279 15.9887C21.1882 16.4591 20.8057 16.8416 20.3353 17.0813C20.0392 17.2322 19.7191 17.2951 19.3546 17.3249C19.0636 17.3486 18.7164 17.3529 18.3009 17.3536V16.8536C19.2243 16.8518 19.7206 16.8333 20.1083 16.6358C20.4846 16.444 20.7906 16.1381 20.9823 15.7617C21.2003 15.3339 21.2003 14.7739 21.2003 13.6538V6.05376C21.2003 4.93366 21.2003 4.3736 20.9823 3.94578C20.7906 3.56946 20.4846 3.26349 20.1083 3.07175C19.6805 2.85376 19.1204 2.85376 18.0003 2.85376L10.4003 2.85376C9.28023 2.85376 8.72018 2.85376 8.29235 3.07175C7.91603 3.2635 7.61007 3.56945 7.41832 3.94578Z" fill="black"/>
<path d="M17.2132 9.07218C17.3113 8.97504 17.4696 8.97583 17.5667 9.07394C17.6639 9.17206 17.6631 9.33035 17.565 9.42749L10.0468 16.8711C9.92386 16.9928 9.7259 16.9928 9.603 16.8711L4.07536 11.3983C3.97725 11.3012 3.97646 11.1429 4.0736 11.0448C4.17074 10.9467 4.32903 10.9459 4.42715 11.043L9.82488 16.3872L17.2132 9.07218Z" fill="black"/>
</svg>
