<svg width="24" height="24" viewBox="0 0 24 24" fill="none" xmlns="http://www.w3.org/2000/svg">
<path fill-rule="evenodd" clip-rule="evenodd" d="M3.34377 1H7.65623C8.01519 1 8.30008 1 8.5296 1.01875C8.76442 1.03794 8.96342 1.07799 9.14524 1.17063C9.4398 1.32071 9.67929 1.5602 9.82937 1.85476C9.92201 2.03658 9.96206 2.23558 9.98125 2.4704C10 2.69995 10 2.98469 10 3.34372V5.72497H16.2785C16.5719 5.72497 16.8088 5.72497 17.0007 5.74065C17.1983 5.7568 17.3723 5.79094 17.5334 5.87302C17.789 6.00325 17.9968 6.21105 18.127 6.46664C18.2091 6.62773 18.2433 6.80173 18.2594 6.99938C18.2751 7.19126 18.2751 7.42813 18.2751 7.7215V14.0547H20.7115C21.0705 14.0547 21.3553 14.0547 21.5848 14.0734C21.8196 14.0926 22.0187 14.1327 22.2005 14.2253C22.495 14.3754 22.7345 14.6149 22.8846 14.9094C22.9772 15.0912 23.0173 15.2902 23.0365 15.5251C23.0552 15.7546 23.0552 16.0394 23.0552 16.3984V20.7109C23.0552 21.0699 23.0552 21.3547 23.0365 21.5843C23.0173 21.8191 22.9772 22.0181 22.8846 22.1999C22.7345 22.4945 22.495 22.734 22.2005 22.884C22.0187 22.9767 21.8196 23.0167 21.5848 23.0359C21.3553 23.0547 21.0705 23.0547 20.7115 23.0547H16.399C16.04 23.0547 15.7552 23.0547 15.5256 23.0359C15.2908 23.0167 15.0918 22.9767 14.91 22.884C14.6154 22.734 14.3759 22.4945 14.2259 22.1999C14.1332 22.0181 14.0932 21.8191 14.074 21.5843C14.0552 21.3547 14.0552 21.07 14.0552 20.7109V18.275H7.72162C7.42825 18.275 7.19136 18.275 6.99948 18.2593C6.80183 18.2432 6.62783 18.209 6.46674 18.1269C6.21115 17.9967 6.00335 17.7889 5.87312 17.5333C5.79104 17.3722 5.7569 17.1982 5.74075 17.0006C5.72507 16.8087 5.72507 16.5718 5.72507 16.2784V10H3.34377C2.98474 10 2.69995 10 2.4704 9.98125C2.23558 9.96206 2.03658 9.92201 1.85476 9.82937C1.5602 9.67929 1.32071 9.4398 1.17063 9.14524C1.07799 8.96342 1.03794 8.76442 1.01875 8.5296C1 8.30008 1 8.01539 1 7.65642V3.34377C1 2.98481 1 2.69992 1.01875 2.4704C1.03794 2.23558 1.07799 2.03658 1.17063 1.85476C1.32071 1.5602 1.5602 1.32071 1.85476 1.17063C2.03658 1.07799 2.23558 1.03794 2.4704 1.01875C2.69992 1 2.98481 1 3.34377 1ZM2.51112 1.51709C2.30722 1.53375 2.18134 1.56539 2.08176 1.61613C1.88128 1.71828 1.71828 1.88128 1.61613 2.08176C1.56539 2.18134 1.53375 2.30722 1.51709 2.51112C1.50019 2.71793 1.5 2.98227 1.5 3.35476V7.64524C1.5 8.01773 1.50019 8.28207 1.51709 8.48888C1.53375 8.69278 1.56539 8.81866 1.61613 8.91824C1.71828 9.11872 1.88128 9.28172 2.08176 9.38387C2.18134 9.43461 2.30722 9.46625 2.51112 9.48291C2.71793 9.49981 2.98227 9.5 3.35476 9.5H7.64524C8.01773 9.5 8.28207 9.49981 8.48888 9.48291C8.69278 9.46625 8.81866 9.43461 8.91824 9.38387C9.11872 9.28172 9.28172 9.11872 9.38387 8.91824C9.43461 8.81866 9.46625 8.69278 9.48291 8.48888C9.49981 8.28207 9.5 8.01773 9.5 7.64524V3.35476C9.5 2.98227 9.49981 2.71793 9.48291 2.51112C9.46625 2.30722 9.43461 2.18134 9.38387 2.08176C9.28172 1.88128 9.11872 1.71828 8.91824 1.61613C8.81866 1.56539 8.69278 1.53375 8.48888 1.51709C8.28207 1.50019 8.01773 1.5 7.64524 1.5H3.35476C2.98227 1.5 2.71793 1.50019 2.51112 1.51709ZM15.5663 14.5718C15.3625 14.5884 15.2366 14.6201 15.137 14.6708C14.9365 14.7729 14.7735 14.9359 14.6714 15.1364C14.6206 15.236 14.589 15.3619 14.5723 15.5658C14.5554 15.7726 14.5552 16.0369 14.5552 16.4094V20.6999C14.5552 21.0724 14.5554 21.3367 14.5723 21.5435C14.589 21.7474 14.6206 21.8733 14.6714 21.9729C14.7735 22.1734 14.9365 22.3364 15.137 22.4385C15.2366 22.4893 15.3625 22.5209 15.5663 22.5376C15.7732 22.5545 16.0375 22.5547 16.41 22.5547H20.7005C21.073 22.5547 21.3373 22.5545 21.5441 22.5376C21.748 22.5209 21.8739 22.4893 21.9735 22.4385C22.174 22.3364 22.337 22.1734 22.4391 21.9729C22.4898 21.8733 22.5215 21.7474 22.5381 21.5435C22.555 21.3367 22.5552 21.0724 22.5552 20.6999V16.4094C22.5552 16.0369 22.555 15.7726 22.5381 15.5658C22.5215 15.3619 22.4898 15.236 22.4391 15.1364C22.337 14.9359 22.174 14.7729 21.9735 14.6708C21.8739 14.6201 21.748 14.5884 21.5441 14.5718C21.3373 14.5549 21.073 14.5547 20.7005 14.5547H16.41C16.0375 14.5547 15.7732 14.5549 15.5663 14.5718Z" fill="black"/>
</svg>
