<svg width="25" height="25" viewBox="0 0 25 25" fill="none" xmlns="http://www.w3.org/2000/svg">
<path fill-rule="evenodd" clip-rule="evenodd" d="M3.1534 3.29249e-06H7.84661C8.15241 -3.50929e-05 8.45222 -7.2645e-05 8.70648 0.0207016C8.98627 0.0435611 9.31902 0.0976724 9.65448 0.268598C10.1182 0.504857 10.4952 0.881845 10.7314 1.34553C10.9023 1.68099 10.9565 2.01375 10.9793 2.29353C11.0001 2.5478 11 2.84761 11 3.15342L11 4.74998L16.4363 4.74998C16.6843 4.74993 16.9396 4.74989 17.1583 4.76776C17.4024 4.7877 17.7087 4.83597 18.0212 4.99522C18.4446 5.21093 18.7888 5.55514 19.0045 5.9785C19.1637 6.29104 19.212 6.59734 19.2319 6.84139C19.2498 7.06009 19.2498 7.31537 19.2497 7.56342L19.2497 13.0547L20.7407 13.0547C21.074 13.0546 21.3949 13.0546 21.6659 13.0767C21.9626 13.101 22.3078 13.1579 22.6541 13.3343C23.1368 13.5803 23.5293 13.9727 23.7753 14.4554C23.9517 14.8017 24.0086 15.147 24.0328 15.4436C24.055 15.7147 24.0549 16.0356 24.0549 16.3688V20.7405C24.0549 21.0737 24.055 21.3946 24.0328 21.6657C24.0086 21.9624 23.9517 22.3076 23.7753 22.6539C23.5293 23.1366 23.1368 23.5291 22.6541 23.7751C22.3078 23.9515 21.9626 24.0084 21.6659 24.0326C21.3949 24.0547 21.074 24.0547 20.7408 24.0547H16.3691C16.0358 24.0547 15.7149 24.0547 15.4439 24.0326C15.1472 24.0084 14.8019 23.9515 14.4557 23.7751C13.9729 23.5291 13.5805 23.1366 13.3345 22.6539C13.1581 22.3076 13.1012 21.9624 13.077 21.6657C13.0548 21.3946 13.0549 21.0738 13.0549 20.7405L13.0549 19.25L7.56316 19.25C7.31511 19.25 7.05983 19.2501 6.84114 19.2322C6.59708 19.2123 6.29079 19.164 5.97824 19.0047C5.55488 18.789 5.21067 18.4448 4.99496 18.0215C4.83571 17.7089 4.78744 17.4026 4.7675 17.1586C4.74963 16.9399 4.74968 16.6846 4.74972 16.4366L4.74972 11L3.15342 11C2.84761 11 2.5478 11.0001 2.29353 10.9793C2.01375 10.9565 1.68099 10.9023 1.34553 10.7314C0.881845 10.4952 0.504857 10.1182 0.268598 9.65448C0.0976724 9.31902 0.0435611 8.98627 0.0207016 8.70648C-7.2645e-05 8.45222 -3.50929e-05 8.15241 3.29249e-06 7.84661V3.1534C-3.50929e-05 2.8476 -7.2645e-05 2.5478 0.0207016 2.29353C0.0435611 2.01375 0.0976724 1.68099 0.268598 1.34553C0.504857 0.881845 0.881845 0.504857 1.34553 0.268598C1.68099 0.0976724 2.01375 0.0435611 2.29353 0.0207016C2.5478 -7.2645e-05 2.8476 -3.50929e-05 3.1534 3.29249e-06ZM7.24972 11V16.4C7.24972 16.5415 7.24975 16.6526 7.25123 16.7485C7.34713 16.75 7.4582 16.75 7.59972 16.75H13.0549L13.0549 16.3688C13.0549 16.0356 13.0548 15.7147 13.077 15.4436C13.1012 15.147 13.1581 14.8017 13.3345 14.4554C13.5805 13.9727 13.9729 13.5803 14.4557 13.3343C14.8019 13.1579 15.1472 13.101 15.4439 13.0767C15.7149 13.0546 16.0358 13.0546 16.369 13.0547L16.7497 13.0547V7.59998C16.7497 7.45846 16.7497 7.34738 16.7482 7.25149C16.6523 7.25001 16.5412 7.24998 16.3997 7.24998H11L11 7.8466C11 8.1524 11.0001 8.45221 10.9793 8.70648C10.9565 8.98627 10.9023 9.31902 10.7314 9.65448C10.4952 10.1182 10.1182 10.4952 9.65448 10.7314C9.31902 10.9023 8.98627 10.9565 8.70648 10.9793C8.45221 11.0001 8.1524 11 7.8466 11L7.24972 11ZM2.51129 2.51129C2.50092 2.6501 2.50001 2.84424 2.50001 3.19286V7.80715C2.50001 8.15578 2.50092 8.34991 2.51129 8.48872C2.6501 8.4991 2.84424 8.50001 3.19286 8.50001H7.80715C8.15578 8.50001 8.34991 8.4991 8.48872 8.48872C8.4991 8.34991 8.50001 8.15578 8.50001 7.80715V3.19286C8.50001 2.84424 8.4991 2.6501 8.48872 2.51129C8.34991 2.50092 8.15578 2.50001 7.80715 2.50001H3.19286C2.84424 2.50001 2.6501 2.50092 2.51129 2.51129ZM15.5762 15.576C15.5739 15.5928 15.5712 15.6161 15.5687 15.6472C15.5559 15.8039 15.5549 16.0204 15.5549 16.4094V20.6999C15.5549 21.0889 15.5559 21.3055 15.5687 21.4621C15.5712 21.4932 15.5739 21.5166 15.5762 21.5333C15.593 21.5357 15.6163 21.5384 15.6474 21.5409C15.8041 21.5537 16.0207 21.5547 16.4097 21.5547H20.7001C21.0891 21.5547 21.3057 21.5537 21.4623 21.5409C21.4935 21.5384 21.5168 21.5357 21.5336 21.5333C21.5359 21.5166 21.5386 21.4932 21.5411 21.4621C21.5539 21.3055 21.5549 21.0889 21.5549 20.6999V16.4094C21.5549 16.0204 21.5539 15.8039 21.5411 15.6472C21.5386 15.6161 21.5359 15.5928 21.5336 15.576C21.5168 15.5737 21.4935 15.571 21.4623 15.5684C21.3057 15.5556 21.0891 15.5547 20.7001 15.5547H16.4097C16.0207 15.5547 15.8041 15.5556 15.6474 15.5684C15.6163 15.571 15.593 15.5737 15.5762 15.576Z" fill="black"/>
</svg>
