<svg width="24" height="24" viewBox="0 0 24 24" fill="none" xmlns="http://www.w3.org/2000/svg">
<path fill-rule="evenodd" clip-rule="evenodd" d="M3.67608 2.75C3.48679 2.74998 3.30245 2.74996 3.14633 2.76271C2.97489 2.77672 2.77259 2.80977 2.56902 2.91349C2.28677 3.0573 2.0573 3.28677 1.91349 3.56902C1.80977 3.77259 1.77672 3.97489 1.76271 4.14633C1.74996 4.30245 1.74998 4.48679 1.75 4.67608V16.3239C1.74998 16.5132 1.74996 16.6976 1.76271 16.8537C1.77672 17.0251 1.80977 17.2274 1.91349 17.431C2.0573 17.7132 2.28677 17.9427 2.56902 18.0865C2.77259 18.1902 2.97489 18.2233 3.14633 18.2373C3.30245 18.2501 3.48678 18.25 3.67607 18.25L10.8048 18.25L10.8048 21.3786C10.8048 21.5678 10.8047 21.7522 10.8175 21.9083C10.8315 22.0798 10.8645 22.2821 10.9683 22.4856C11.1121 22.7679 11.3416 22.9974 11.6238 23.1412C11.8274 23.2449 12.0297 23.2779 12.2011 23.292C12.3572 23.3047 12.5416 23.3047 12.7308 23.3047H20.3787C20.568 23.3047 20.7523 23.3047 20.9085 23.292C21.0799 23.2779 21.2822 23.2449 21.4858 23.1412C21.768 22.9974 21.9975 22.7679 22.1413 22.4856C22.245 22.2821 22.2781 22.0798 22.2921 21.9083C22.3048 21.7522 22.3048 21.5679 22.3048 21.3786V13.7307C22.3048 13.5414 22.3048 13.3571 22.2921 13.201C22.2781 13.0295 22.245 12.8272 22.1413 12.6237C21.9975 12.3414 21.768 12.112 21.4858 11.9681C21.2822 11.8644 21.0799 11.8314 20.9085 11.8174C20.7524 11.8046 20.568 11.8046 20.3788 11.8047L17.25 11.8047L17.25 4.67607C17.25 4.48678 17.2501 4.30245 17.2373 4.14633C17.2233 3.97489 17.1902 3.77259 17.0865 3.56902C16.9427 3.28677 16.7132 3.0573 16.431 2.91349C16.2274 2.80977 16.0251 2.77672 15.8537 2.76271C15.6976 2.74996 15.5132 2.74998 15.3239 2.75H3.67608ZM3.25773 4.26848L3.25859 4.25859L3.26848 4.25773C3.35592 4.25059 3.47761 4.25 3.7 4.25H15.3C15.5224 4.25 15.6441 4.25059 15.7315 4.25773L15.7414 4.25859L15.7423 4.26848C15.7494 4.35592 15.75 4.47761 15.75 4.7V16.3C15.75 16.5224 15.7494 16.6441 15.7423 16.7315L15.7414 16.7414L15.7315 16.7423C15.6441 16.7494 15.5224 16.75 15.3 16.75H3.7C3.47761 16.75 3.35592 16.7494 3.26848 16.7423L3.25859 16.7414L3.25773 16.7315C3.25059 16.6441 3.25 16.5224 3.25 16.3V4.7C3.25 4.47761 3.25059 4.35592 3.25773 4.26848Z" fill="black"/>
</svg>
