<svg width="24" height="24" viewBox="0 0 24 24" fill="none" xmlns="http://www.w3.org/2000/svg">
<path fill-rule="evenodd" clip-rule="evenodd" d="M2.97171 0.500001H8.02829C8.31124 0.499986 8.56718 0.499972 8.78029 0.517384C9.00891 0.536063 9.25355 0.578456 9.49379 0.700863C9.84054 0.877544 10.1225 1.15947 10.2991 1.50622C10.4216 1.74646 10.4639 1.9911 10.4826 2.21971C10.5 2.43285 10.5 2.68873 10.5 2.9717L10.5 5.24998L16.5854 5.24998C16.8155 5.24996 17.0311 5.24994 17.2122 5.26473C17.4086 5.28078 17.6295 5.31792 17.8491 5.42982C18.1595 5.58801 18.412 5.84043 18.5701 6.1509C18.682 6.37051 18.7192 6.59133 18.7352 6.78779C18.75 6.96882 18.75 7.1844 18.75 7.4145L18.75 13.5547L21.083 13.5547C21.3659 13.5547 21.6219 13.5546 21.835 13.572C22.0636 13.5907 22.3082 13.6331 22.5485 13.7555C22.8952 13.9322 23.1772 14.2141 23.3538 14.5609C23.4762 14.8011 23.5186 15.0458 23.5373 15.2744C23.5547 15.4875 23.5547 15.7434 23.5547 16.0264V21.083C23.5547 21.3659 23.5547 21.6218 23.5373 21.835C23.5186 22.0636 23.4762 22.3082 23.3538 22.5485C23.1772 22.8952 22.8952 23.1771 22.5485 23.3538C22.3082 23.4762 22.0636 23.5186 21.835 23.5373C21.6218 23.5547 21.366 23.5547 21.083 23.5547H16.0264C15.7434 23.5547 15.4875 23.5547 15.2744 23.5373C15.0458 23.5186 14.8011 23.4762 14.5609 23.3538C14.2142 23.1771 13.9322 22.8952 13.7556 22.5485C13.6331 22.3082 13.5907 22.0636 13.5721 21.835C13.5547 21.6218 13.5547 21.366 13.5547 21.083L13.5547 18.75L7.41455 18.75C7.18446 18.75 6.96882 18.75 6.78779 18.7352C6.59133 18.7192 6.37051 18.682 6.1509 18.5701C5.84043 18.4119 5.58801 18.1595 5.42982 17.8491C5.31792 17.6295 5.28079 17.4086 5.26474 17.2122C5.24994 17.0311 5.24996 16.8156 5.24998 16.5855L5.24998 10.5L2.9717 10.5C2.68873 10.5 2.43285 10.5 2.21971 10.4826C1.9911 10.4639 1.74646 10.4216 1.50622 10.2991C1.15947 10.1225 0.877544 9.84054 0.700863 9.49379C0.578456 9.25355 0.536063 9.00891 0.517384 8.78029C0.499972 8.56718 0.499986 8.31133 0.500001 8.02839V2.97171C0.499986 2.68877 0.499972 2.43283 0.517384 2.21971C0.536063 1.9911 0.578456 1.74646 0.700863 1.50622C0.877544 1.15947 1.15947 0.877544 1.50622 0.700863C1.74646 0.578456 1.9911 0.536063 2.21971 0.517384C2.43283 0.499972 2.68877 0.499986 2.97171 0.500001ZM6.74998 10.5V16.56C6.74998 16.8244 6.75057 16.9776 6.75975 17.09C6.7638 17.1396 6.76863 17.1658 6.77107 17.1767C6.78385 17.1982 6.80181 17.2161 6.82329 17.2289C6.83419 17.2313 6.8604 17.2362 6.90994 17.2402C7.02239 17.2494 7.17558 17.25 7.43998 17.25H13.5547L13.5547 16.0264C13.5547 15.7434 13.5547 15.4875 13.5721 15.2744C13.5907 15.0458 13.6331 14.8011 13.7556 14.5609C13.9322 14.2141 14.2142 13.9322 14.5609 13.7555C14.8011 13.6331 15.0458 13.5907 15.2744 13.572C15.4875 13.5546 15.7434 13.5547 16.0264 13.5547L17.25 13.5547V7.43998C17.25 7.17558 17.2494 7.02239 17.2402 6.90993C17.2362 6.86039 17.2313 6.83419 17.2289 6.82329C17.2161 6.8018 17.1982 6.78385 17.1767 6.77107C17.1658 6.76863 17.1396 6.7638 17.09 6.75975C16.9776 6.75056 16.8244 6.74998 16.56 6.74998H10.5L10.5 8.02831C10.5 8.31128 10.5 8.56716 10.4826 8.78029C10.4639 9.00891 10.4216 9.25355 10.2991 9.49379C10.1225 9.84054 9.84054 10.1225 9.49379 10.2991C9.25355 10.4216 9.00891 10.4639 8.78029 10.4826C8.56716 10.5 8.31128 10.5 8.02831 10.5L6.74998 10.5ZM2.18721 2.03737C2.18593 2.03792 2.18606 2.03796 2.18721 2.03737C2.12269 2.07024 2.07024 2.12269 2.03737 2.18721C2.03796 2.18606 2.03792 2.18593 2.03737 2.18721C2.03481 2.19316 2.02154 2.23005 2.0124 2.34186C2.00059 2.48647 2 2.68017 2 2.99858V8.00143C2 8.31984 2.00059 8.51353 2.0124 8.65814C2.02154 8.76996 2.03478 8.80686 2.03735 8.81281C2.0379 8.81409 2.03793 8.81396 2.03735 8.81281C2.07022 8.87733 2.12269 8.92976 2.18721 8.96264C2.19316 8.9652 2.23005 8.97847 2.34186 8.98761C2.48647 8.99942 2.68017 9 2.99858 9H8.00143C8.31984 9 8.51353 8.99942 8.65814 8.98761C8.76996 8.97847 8.80686 8.96523 8.81281 8.96266C8.81409 8.96211 8.81396 8.96208 8.81281 8.96266C8.87733 8.92979 8.92976 8.87731 8.96264 8.8128C8.96205 8.81394 8.96208 8.81408 8.96264 8.8128C8.9652 8.80684 8.97847 8.76996 8.98761 8.65814C8.99942 8.51353 9 8.31984 9 8.00143V2.99858C9 2.68017 8.99942 2.48647 8.98761 2.34186C8.97847 2.23005 8.96523 2.19315 8.96266 2.18719C8.96251 2.18692 8.96227 2.18642 8.96266 2.18719C8.92979 2.12268 8.87731 2.07024 8.8128 2.03737C8.81394 2.03796 8.81408 2.03792 8.8128 2.03737C8.80685 2.03481 8.76996 2.02154 8.65814 2.0124C8.51353 2.00059 8.31984 2 8.00143 2H2.99858C2.68017 2 2.48647 2.00059 2.34186 2.0124C2.23005 2.02154 2.19316 2.03481 2.18721 2.03737ZM15.2419 15.092C15.2406 15.0926 15.2408 15.0926 15.2419 15.092C15.1774 15.1249 15.1249 15.1774 15.0921 15.2419C15.0926 15.2407 15.0926 15.2406 15.0921 15.2419C15.0895 15.2478 15.0762 15.2847 15.0671 15.3965C15.0553 15.5411 15.0547 15.7348 15.0547 16.0532V21.0561C15.0547 21.3745 15.0553 21.5682 15.0671 21.7128C15.0762 21.8246 15.0895 21.8615 15.092 21.8675C15.0926 21.8688 15.0926 21.8686 15.092 21.8675C15.1249 21.932 15.1774 21.9844 15.2419 22.0173C15.2408 22.0167 15.2406 22.0167 15.2419 22.0173C15.2478 22.0199 15.2847 22.0331 15.3966 22.0423C15.5412 22.0541 15.7349 22.0547 16.0533 22.0547H21.0561C21.3745 22.0547 21.5682 22.0541 21.7128 22.0423C21.8246 22.0331 21.8615 22.0199 21.8675 22.0173C21.8683 22.017 21.8677 22.0173 21.8675 22.0173C21.932 21.9845 21.9845 21.932 22.0173 21.8675C22.0167 21.8686 22.0168 21.8687 22.0173 21.8675C22.0199 21.8615 22.0332 21.8246 22.0423 21.7128C22.0541 21.5682 22.0547 21.3745 22.0547 21.0561V16.0532C22.0547 15.7348 22.0541 15.5411 22.0423 15.3965C22.0332 15.2847 22.0199 15.2478 22.0173 15.2419C22.0168 15.2406 22.0168 15.2407 22.0173 15.2419C21.9845 15.1773 21.932 15.1249 21.8675 15.092C21.8686 15.0926 21.8688 15.0926 21.8675 15.092C21.8615 15.0895 21.8246 15.0762 21.7128 15.0671C21.5682 15.0553 21.3745 15.0547 21.0561 15.0547H16.0533C15.7349 15.0547 15.5412 15.0553 15.3966 15.0671C15.2847 15.0762 15.2478 15.0895 15.2419 15.092Z" fill="black"/>
</svg>
