<svg width="24" height="24" viewBox="0 0 24 24" fill="none" xmlns="http://www.w3.org/2000/svg">
<path fill-rule="evenodd" clip-rule="evenodd" d="M3.67155 2.5C3.4865 2.49997 3.29264 2.49993 3.12598 2.51355C2.93907 2.52882 2.70021 2.56607 2.45552 2.69075C2.12624 2.85852 1.85852 3.12624 1.69075 3.45552C1.56607 3.70021 1.52882 3.93907 1.51355 4.12598C1.49993 4.29264 1.49997 4.48649 1.5 4.67154L1.5 16.3285C1.49997 16.5135 1.49993 16.7074 1.51355 16.874C1.52882 17.0609 1.56607 17.2998 1.69075 17.5445C1.85852 17.8738 2.12624 18.1415 2.45552 18.3093C2.70021 18.4339 2.93907 18.4712 3.12598 18.4865C3.29265 18.5001 3.4865 18.5 3.67157 18.5L10.5547 18.5L10.5547 21.3831C10.5547 21.5682 10.5547 21.762 10.5683 21.9287C10.5836 22.1156 10.6208 22.3545 10.7455 22.5991C10.9133 22.9284 11.181 23.1961 11.5103 23.3639C11.7549 23.4886 11.9938 23.5258 12.1807 23.5411C12.3474 23.5547 12.5412 23.5547 12.7263 23.5547H20.3832C20.5683 23.5547 20.7621 23.5547 20.9288 23.5411C21.1157 23.5258 21.3545 23.4886 21.5992 23.3639C21.9285 23.1961 22.1962 22.9284 22.364 22.5991C22.4887 22.3545 22.5259 22.1156 22.5412 21.9287C22.5548 21.762 22.5548 21.5682 22.5548 21.3831V13.7262C22.5548 13.5411 22.5548 13.3473 22.5412 13.1806C22.5259 12.9937 22.4887 12.7549 22.364 12.5102C22.1962 12.1809 21.9285 11.9132 21.5992 11.7454C21.3545 11.6207 21.1157 11.5835 20.9288 11.5682C20.7621 11.5546 20.5683 11.5546 20.3832 11.5547L17.5 11.5547L17.5 4.67157C17.5 4.4865 17.5001 4.29265 17.4865 4.12598C17.4712 3.93907 17.4339 3.70021 17.3093 3.45552C17.1415 3.12624 16.8738 2.85852 16.5445 2.69075C16.2998 2.56607 16.0609 2.52882 15.874 2.51355C15.7074 2.49993 15.5135 2.49997 15.3285 2.5L3.67155 2.5ZM17.5 13.5547L17.5 16.3284C17.5 16.5135 17.5001 16.7074 17.4865 16.874C17.4712 17.0609 17.4339 17.2998 17.3093 17.5445C17.1415 17.8738 16.8738 18.1415 16.5445 18.3093C16.2998 18.4339 16.0609 18.4712 15.874 18.4865C15.7074 18.5001 15.5135 18.5 15.3284 18.5L12.5547 18.5V21.3547C12.5547 21.4321 12.5548 21.4971 12.5552 21.5542C12.6123 21.5546 12.6773 21.5547 12.7547 21.5547H20.3547C20.4322 21.5547 20.4972 21.5546 20.5543 21.5542C20.5547 21.4971 20.5547 21.4321 20.5547 21.3547V13.7547C20.5547 13.6772 20.5547 13.6123 20.5543 13.5551C20.4972 13.5547 20.4322 13.5547 20.3547 13.5547H17.5ZM3.50001 4.70001C3.50001 4.62257 3.50002 4.5576 3.50045 4.50045C3.5576 4.50002 3.62257 4.50001 3.70001 4.50001H15.3C15.3774 4.50001 15.4424 4.50002 15.4996 4.50045C15.5 4.5576 15.5 4.62257 15.5 4.70001V16.3C15.5 16.3774 15.5 16.4424 15.4996 16.4996C15.4424 16.5 15.3774 16.5 15.3 16.5H3.70001C3.62257 16.5 3.5576 16.5 3.50045 16.4996C3.50002 16.4424 3.50001 16.3774 3.50001 16.3V4.70001Z" fill="black"/>
</svg>
