<svg width="24" height="24" viewBox="0 0 24 24" fill="none" xmlns="http://www.w3.org/2000/svg">
<path fill-rule="evenodd" clip-rule="evenodd" d="M4.22119 2.22498C3.9278 2.22497 3.69091 2.22497 3.49902 2.24065C3.30136 2.2568 3.12737 2.29094 2.96627 2.37303C2.71069 2.50325 2.50289 2.71105 2.37266 2.96664C2.29058 3.12774 2.25643 3.30173 2.24028 3.49938C2.2246 3.69127 2.22461 3.92817 2.22461 4.22155V14.7784C2.22461 15.0718 2.2246 15.3087 2.24028 15.5006C2.25643 15.6982 2.29058 15.8722 2.37266 16.0333C2.50289 16.2889 2.71069 16.4967 2.96627 16.6269C3.12737 16.709 3.30136 16.7432 3.49902 16.7593C3.6909 16.775 3.92778 16.775 4.22115 16.775H11.2794V19.833C11.2793 20.1264 11.2793 20.3633 11.295 20.5552C11.3112 20.7529 11.3453 20.9269 11.4274 21.088C11.5576 21.3435 11.7654 21.5513 12.021 21.6816C12.1821 21.7637 12.3561 21.7978 12.5538 21.814C12.7456 21.8296 12.9825 21.8296 13.2759 21.8296H19.8328C20.1262 21.8296 20.3631 21.8296 20.5549 21.814C20.7526 21.7978 20.9266 21.7637 21.0877 21.6816C21.3433 21.5513 21.5511 21.3435 21.6813 21.088C21.7634 20.9269 21.7975 20.7529 21.8137 20.5552C21.8294 20.3633 21.8294 20.1265 21.8294 19.8331V13.2762C21.8294 12.9828 21.8294 12.7459 21.8137 12.554C21.7975 12.3564 21.7634 12.1824 21.6813 12.0213C21.5511 11.7657 21.3433 11.5579 21.0877 11.4277C20.9266 11.3456 20.7526 11.3114 20.5549 11.2953C20.3631 11.2796 20.1262 11.2796 19.8328 11.2796H16.7746V4.22152C16.7746 3.92815 16.7746 3.69126 16.7589 3.49938C16.7428 3.30173 16.7086 3.12774 16.6266 2.96664C16.4963 2.71105 16.2885 2.50325 16.0329 2.37303C15.8718 2.29094 15.6979 2.2568 15.5002 2.24065C15.3083 2.22497 15.0714 2.22497 14.778 2.22498H4.22119ZM3.21597 2.86308C3.28661 2.82709 3.38016 2.80219 3.54381 2.78882C3.71066 2.77519 3.92504 2.77498 4.23294 2.77498H14.7663C15.0742 2.77498 15.2886 2.77519 15.4554 2.78882C15.6191 2.80219 15.7126 2.82709 15.7833 2.86308C15.9353 2.94058 16.059 3.06424 16.1365 3.21633C16.1725 3.28697 16.1974 3.38053 16.2108 3.54417C16.2244 3.71102 16.2246 3.92541 16.2246 4.23331V14.7666C16.2246 15.0745 16.2244 15.2889 16.2108 15.4558C16.1974 15.6194 16.1725 15.713 16.1365 15.7836C16.059 15.9357 15.9353 16.0594 15.7833 16.1369C15.7126 16.1729 15.6191 16.1978 15.4554 16.2111C15.2886 16.2248 15.0742 16.225 14.7663 16.225H4.23294C3.92504 16.225 3.71066 16.2248 3.54381 16.2111C3.38016 16.1978 3.28661 16.1729 3.21597 16.1369C3.06387 16.0594 2.94021 15.9357 2.86271 15.7836C2.82672 15.713 2.80183 15.6194 2.78846 15.4558C2.77482 15.2889 2.77461 15.0745 2.77461 14.7666V4.23331C2.77461 3.92541 2.77482 3.71102 2.78846 3.54417C2.80183 3.38053 2.82672 3.28697 2.86271 3.21633C2.94021 3.06424 3.06387 2.94058 3.21597 2.86308Z" fill="black"/>
</svg>
