<svg width="24" height="24" viewBox="0 0 24 24" fill="none" xmlns="http://www.w3.org/2000/svg">
<path fill-rule="evenodd" clip-rule="evenodd" d="M3.72217 1.72498H7.279C7.57239 1.72497 7.80929 1.72497 8.00118 1.74065C8.19883 1.7568 8.37283 1.79094 8.53392 1.87303C8.78951 2.00325 8.99731 2.21105 9.12754 2.46664C9.20962 2.62774 9.24376 2.80173 9.25991 2.99938C9.27559 3.19127 9.27559 3.42817 9.27559 3.72156V5.72495H16.279C16.5724 5.72495 16.8093 5.72495 17.0012 5.74062C17.1988 5.75677 17.3728 5.79092 17.5339 5.873C17.7895 6.00323 17.9973 6.21103 18.1275 6.46661C18.2096 6.62771 18.2437 6.80171 18.2599 6.99936C18.2756 7.19124 18.2756 7.42811 18.2756 7.72148V14.7796H20.3339C20.6273 14.7796 20.8642 14.7796 21.0561 14.7953C21.2537 14.8115 21.4277 14.8456 21.5888 14.9277C21.8444 15.0579 22.0522 15.2657 22.1824 15.5213C22.2645 15.6824 22.2987 15.8564 22.3148 16.054C22.3305 16.2459 22.3305 16.4828 22.3305 16.7762V20.333C22.3305 20.6264 22.3305 20.8633 22.3148 21.0552C22.2987 21.2529 22.2645 21.4269 22.1824 21.588C22.0522 21.8436 21.8444 22.0514 21.5888 22.1816C21.4277 22.2637 21.2537 22.2978 21.0561 22.314C20.8642 22.3296 20.6273 22.3296 20.3339 22.3296H16.7771C16.4837 22.3296 16.2468 22.3296 16.0549 22.314C15.8572 22.2978 15.6833 22.2637 15.5222 22.1816C15.2666 22.0514 15.0588 21.8436 14.9285 21.588C14.8465 21.4269 14.8123 21.2529 14.7962 21.0552C14.7805 20.8633 14.7805 20.6265 14.7805 20.3331V18.275H7.72211C7.42874 18.275 7.19185 18.275 6.99997 18.2593C6.80232 18.2431 6.62832 18.209 6.46722 18.1269C6.21164 17.9967 6.00384 17.7889 5.87361 17.5333C5.79153 17.3722 5.75738 17.1982 5.74123 17.0005C5.72556 16.8087 5.72556 16.5718 5.72556 16.2784V9.27498H3.72218C3.42879 9.27498 3.19188 9.27498 2.99999 9.2593C2.80234 9.24315 2.62835 9.20901 2.46725 9.12693C2.21166 8.9967 2.00386 8.7889 1.87364 8.53331C1.79155 8.37222 1.75741 8.19822 1.74126 8.00057C1.72558 7.80868 1.72558 7.57179 1.72559 7.2784V3.72156C1.72558 3.42817 1.72558 3.19127 1.74126 2.99938C1.75741 2.80173 1.79155 2.62774 1.87364 2.46664C2.00386 2.21105 2.21166 2.00325 2.46725 1.87303C2.62835 1.79094 2.80234 1.7568 2.99999 1.74065C3.19188 1.72497 3.42878 1.72497 3.72217 1.72498ZM6.27556 9.27498V16.2666C6.27556 16.5745 6.27578 16.7889 6.28941 16.9558C6.30278 17.1194 6.32767 17.213 6.36367 17.2836C6.44116 17.4357 6.56482 17.5594 6.71692 17.6368C6.78756 17.6728 6.88112 17.6977 7.04476 17.7111C7.21161 17.7247 7.426 17.725 7.7339 17.725H14.7805V16.7762C14.7805 16.4828 14.7805 16.2459 14.7962 16.054C14.8123 15.8564 14.8465 15.6824 14.9285 15.5213C15.0588 15.2657 15.2666 15.0579 15.5222 14.9277C15.6833 14.8456 15.8572 14.8115 16.0549 14.7953C16.2468 14.7796 16.4837 14.7796 16.777 14.7796H17.7256V7.73328C17.7256 7.42539 17.7253 7.211 17.7117 7.04415C17.6983 6.88051 17.6735 6.78695 17.6375 6.71631C17.56 6.56421 17.4363 6.44055 17.2842 6.36305C17.2136 6.32706 17.12 6.30217 16.9564 6.2888C16.7895 6.27517 16.5751 6.27495 16.2672 6.27495H9.27559V7.27838C9.27559 7.57177 9.27559 7.80868 9.25991 8.00057C9.24376 8.19822 9.20962 8.37222 9.12754 8.53331C8.99731 8.7889 8.78951 8.9967 8.53392 9.12693C8.37283 9.20901 8.19883 9.24315 8.00118 9.2593C7.80929 9.27498 7.57239 9.27498 7.279 9.27498H6.27556ZM3.04478 2.28882C2.88114 2.30219 2.78758 2.32709 2.71694 2.36308C2.56485 2.44058 2.44119 2.56424 2.36369 2.71633C2.3277 2.78697 2.3028 2.88053 2.28943 3.04417C2.2758 3.21102 2.27559 3.42541 2.27559 3.73331V7.26664C2.27559 7.57454 2.2758 7.78893 2.28943 7.95578C2.3028 8.11942 2.3277 8.21298 2.36369 8.28362C2.44119 8.43572 2.56485 8.55937 2.71694 8.63687C2.78758 8.67287 2.88114 8.69776 3.04478 8.71113C3.21163 8.72476 3.42602 8.72498 3.73392 8.72498H7.26725C7.57515 8.72498 7.78954 8.72476 7.95639 8.71113C8.12003 8.69776 8.21359 8.67287 8.28423 8.63687C8.43633 8.55937 8.55999 8.43572 8.63748 8.28362C8.67348 8.21298 8.69837 8.11942 8.71174 7.95578C8.72537 7.78893 8.72559 7.57454 8.72559 7.26664V3.73331C8.72559 3.42541 8.72537 3.21102 8.71174 3.04417C8.69837 2.88053 8.67348 2.78697 8.63748 2.71633C8.55999 2.56424 8.43633 2.44058 8.28423 2.36308C8.21359 2.32709 8.12003 2.30219 7.95639 2.28882C7.78954 2.27519 7.57515 2.27498 7.26725 2.27498H3.73392C3.42602 2.27498 3.21163 2.27519 3.04478 2.28882ZM16.0997 15.3435C15.936 15.3569 15.8425 15.3818 15.7719 15.4177C15.6198 15.4952 15.4961 15.6189 15.4186 15.771C15.3826 15.8416 15.3577 15.9352 15.3443 16.0988C15.3307 16.2657 15.3305 16.4801 15.3305 16.788V20.3213C15.3305 20.6292 15.3307 20.8436 15.3443 21.0104C15.3577 21.1741 15.3826 21.2676 15.4186 21.3383C15.4961 21.4904 15.6198 21.614 15.7719 21.6915C15.8425 21.7275 15.936 21.7524 16.0997 21.7658C16.2665 21.7794 16.4809 21.7796 16.7888 21.7796H20.3222C20.6301 21.7796 20.8444 21.7794 21.0113 21.7658C21.1749 21.7524 21.2685 21.7275 21.3391 21.6915C21.4912 21.614 21.6149 21.4904 21.6924 21.3383C21.7284 21.2676 21.7533 21.1741 21.7666 21.0104C21.7803 20.8436 21.7805 20.6292 21.7805 20.3213V16.788C21.7805 16.4801 21.7803 16.2657 21.7666 16.0988C21.7533 15.9352 21.7284 15.8416 21.6924 15.771C21.6149 15.6189 21.4912 15.4952 21.3391 15.4177C21.2685 15.3818 21.1749 15.3569 21.0113 15.3435C20.8444 15.3299 20.6301 15.3296 20.3222 15.3296H16.7888C16.4809 15.3296 16.2665 15.3299 16.0997 15.3435Z" fill="black"/>
</svg>
