<svg width="24" height="24" viewBox="0 0 24 24" fill="none" xmlns="http://www.w3.org/2000/svg">
<path fill-rule="evenodd" clip-rule="evenodd" d="M4.21376 2C3.9271 1.99999 3.68225 1.99999 3.48109 2.01642C3.26952 2.03371 3.06262 2.07164 2.86452 2.17257C2.56659 2.32437 2.32437 2.56659 2.17257 2.86452C2.07164 3.06262 2.03371 3.26952 2.01642 3.48109C1.99999 3.68225 1.99999 3.92708 2 4.21375V14.7862C1.99999 15.0729 1.99999 15.3177 2.01642 15.5189C2.03371 15.7305 2.07164 15.9374 2.17257 16.1355C2.32437 16.4334 2.56659 16.6756 2.86452 16.8274C3.06262 16.9284 3.26952 16.9663 3.48109 16.9836C3.68225 17 3.92708 17 4.21373 17H11.0547V19.8409C11.0547 20.1276 11.0547 20.3724 11.0712 20.5736C11.0884 20.7851 11.1264 20.992 11.2273 21.1901C11.3791 21.4881 11.6213 21.7303 11.9193 21.8821C12.1174 21.983 12.3243 22.0209 12.5358 22.0382C12.737 22.0547 12.9818 22.0547 13.2684 22.0547H19.841C20.1276 22.0547 20.3725 22.0547 20.5737 22.0382C20.7852 22.0209 20.9921 21.983 21.1902 21.8821C21.4881 21.7303 21.7304 21.4881 21.8822 21.1901C21.9831 20.992 22.021 20.7851 22.0383 20.5736C22.0548 20.3724 22.0548 20.1276 22.0547 19.841V13.2684C22.0548 12.9818 22.0548 12.7369 22.0383 12.5357C22.021 12.3242 21.9831 12.1173 21.8822 11.9192C21.7304 11.6212 21.4881 11.379 21.1902 11.2272C20.9921 11.1263 20.7852 11.0884 20.5737 11.0711C20.3725 11.0546 20.1277 11.0546 19.841 11.0546H17V4.21375C17 3.92709 17 3.68225 16.9836 3.48109C16.9663 3.26952 16.9284 3.06262 16.8274 2.86452C16.6756 2.56659 16.4334 2.32437 16.1355 2.17257C15.9374 2.07164 15.7305 2.03371 15.5189 2.01642C15.3177 1.99999 15.0729 1.99999 14.7863 2H4.21376ZM17 12.0547V14.7863C17 15.0729 17 15.3178 16.9836 15.5189C16.9663 15.7305 16.9284 15.9374 16.8274 16.1355C16.6756 16.4334 16.4334 16.6756 16.1355 16.8274C15.9374 16.9284 15.7305 16.9663 15.5189 16.9836C15.3178 17 15.0729 17 14.7863 17H12.0547V19.8213C12.0547 20.1329 12.0551 20.3366 12.0678 20.4921C12.0801 20.6419 12.1012 20.7025 12.1183 20.7361C12.1742 20.8459 12.2635 20.9351 12.3732 20.9911C12.4069 21.0082 12.4675 21.0293 12.6173 21.0416C12.7728 21.0543 12.9765 21.0547 13.2881 21.0547H19.8214C20.133 21.0547 20.3367 21.0543 20.4922 21.0416C20.642 21.0293 20.7026 21.0082 20.7362 20.9911C20.846 20.9351 20.9352 20.8459 20.9912 20.7361C21.0083 20.7025 21.0294 20.6419 21.0416 20.4921C21.0544 20.3366 21.0547 20.1329 21.0547 19.8213V13.288C21.0547 12.9764 21.0544 12.7727 21.0416 12.6172C21.0294 12.4674 21.0083 12.4068 20.9912 12.3732C20.9352 12.2634 20.846 12.1742 20.7362 12.1182C20.7026 12.1011 20.642 12.08 20.4922 12.0677C20.3367 12.055 20.133 12.0547 19.8214 12.0547H17ZM3.31851 3.06358C3.35214 3.04644 3.41279 3.02533 3.56252 3.0131C3.71808 3.00039 3.92172 3 4.23333 3H14.7667C15.0783 3 15.2819 3.00039 15.4375 3.0131C15.5872 3.02533 15.6479 3.04644 15.6815 3.06358C15.7913 3.11951 15.8805 3.20875 15.9364 3.31851C15.9536 3.35214 15.9747 3.41279 15.9869 3.56252C15.9996 3.71808 16 3.92172 16 4.23333V14.7667C16 15.0783 15.9996 15.2819 15.9869 15.4375C15.9747 15.5872 15.9536 15.6479 15.9364 15.6815C15.8805 15.7913 15.7913 15.8805 15.6815 15.9364C15.6479 15.9536 15.5872 15.9747 15.4375 15.9869C15.2819 15.9996 15.0783 16 14.7667 16H4.23333C3.92172 16 3.71808 15.9996 3.56252 15.9869C3.41279 15.9747 3.35214 15.9536 3.31851 15.9364C3.20875 15.8805 3.11951 15.7913 3.06358 15.6815C3.04644 15.6479 3.02533 15.5872 3.0131 15.4375C3.00039 15.2819 3 15.0783 3 14.7667V4.23333C3 3.92172 3.00039 3.71808 3.0131 3.56252C3.02533 3.41279 3.04644 3.35214 3.06358 3.31851C3.11951 3.20875 3.20875 3.11951 3.31851 3.06358Z" fill="black"/>
</svg>
