<svg width="24" height="24" viewBox="0 0 24 24" fill="none" xmlns="http://www.w3.org/2000/svg">
<path fill-rule="evenodd" clip-rule="evenodd" d="M18.749 16.5C19.8535 16.5001 20.749 17.3955 20.749 18.5V20.5C20.749 21.6045 19.8535 22.4999 18.749 22.5H4.74902C3.64442 22.4998 2.74874 21.6037 2.74902 20.499L2.75 18.499C2.75053 17.3949 3.64579 16.5 4.75 16.5H18.749ZM15.749 19.25C15.611 19.25 15.499 19.3619 15.499 19.5C15.499 19.6381 15.611 19.75 15.749 19.75H16.749C16.8871 19.75 16.999 19.6381 16.999 19.5C16.999 19.3619 16.8871 19.25 16.749 19.25H15.749Z" fill="black"/>
<path fill-rule="evenodd" clip-rule="evenodd" d="M18.749 9C19.8535 9.00009 20.749 9.89548 20.749 11V13C20.749 14.1045 19.8535 14.9999 18.749 15H4.74902C3.64442 14.9998 2.74874 14.1037 2.74902 12.999L2.75 10.999C2.75053 9.89487 3.64579 9 4.75 9H18.749ZM15.749 11.75C15.611 11.75 15.499 11.8619 15.499 12C15.499 12.1381 15.611 12.25 15.749 12.25H16.749C16.8871 12.25 16.999 12.1381 16.999 12C16.999 11.8619 16.8871 11.75 16.749 11.75H15.749Z" fill="black"/>
<path fill-rule="evenodd" clip-rule="evenodd" d="M18.749 1.5C19.8535 1.50009 20.749 2.39548 20.749 3.5V5.5C20.749 6.60452 19.8535 7.49991 18.749 7.5H4.74902C3.64442 7.49981 2.74874 6.60368 2.74902 5.49902L2.75 3.49902C2.75053 2.39487 3.64579 1.5 4.75 1.5H18.749ZM15.749 4.25C15.611 4.25 15.499 4.36193 15.499 4.5C15.499 4.63807 15.611 4.75 15.749 4.75H16.749C16.8871 4.75 16.999 4.63807 16.999 4.5C16.999 4.36193 16.8871 4.25 16.749 4.25H15.749Z" fill="black"/>
</svg>
