<svg width="24" height="24" viewBox="0 0 24 24" fill="none" xmlns="http://www.w3.org/2000/svg">
<path fill-rule="evenodd" clip-rule="evenodd" d="M20.749 19.5C20.749 20.6045 19.8535 21.4999 18.749 21.5H4.74902C3.64445 21.5 2.74902 20.6046 2.74902 19.5V16.125H20.749V19.5ZM15.749 17.75C15.1967 17.75 14.749 18.1977 14.749 18.75C14.749 19.3023 15.1967 19.75 15.749 19.75H16.749C17.3013 19.75 17.749 19.3023 17.749 18.75C17.749 18.1977 17.3013 17.75 16.749 17.75H15.749Z" fill="black"/>
<path fill-rule="evenodd" clip-rule="evenodd" d="M20.749 14.125H2.75V9.125H20.749V14.125ZM15.749 10.75C15.1967 10.75 14.749 11.1977 14.749 11.75C14.749 12.3023 15.1967 12.75 15.749 12.75H16.749C17.3013 12.75 17.749 12.3023 17.749 11.75C17.749 11.1977 17.3013 10.75 16.749 10.75H15.749Z" fill="black"/>
<path fill-rule="evenodd" clip-rule="evenodd" d="M18.749 1.5C19.8535 1.50013 20.749 2.39551 20.749 3.5V7.125H2.75V3.5C2.75008 2.39554 3.64556 1.50008 4.75 1.5H18.749ZM15.749 3.5C15.1967 3.5 14.749 3.94772 14.749 4.5C14.749 5.05228 15.1967 5.5 15.749 5.5H16.749C17.3013 5.5 17.749 5.05228 17.749 4.5C17.749 3.94772 17.3013 3.5 16.749 3.5H15.749Z" fill="black"/>
</svg>
