<svg width="24" height="24" viewBox="0 0 24 24" fill="none" xmlns="http://www.w3.org/2000/svg">
<path d="M16.749 17.75C17.0252 17.75 17.249 17.9739 17.249 18.25C17.249 18.5261 17.0252 18.75 16.749 18.75H15.749C15.4729 18.75 15.249 18.5261 15.249 18.25C15.249 17.9739 15.4729 17.75 15.749 17.75H16.749Z" fill="black"/>
<path d="M16.749 11.25C17.0252 11.25 17.249 11.4739 17.249 11.75C17.249 12.0261 17.0252 12.25 16.749 12.25H15.749C15.4729 12.25 15.249 12.0261 15.249 11.75C15.249 11.4739 15.4729 11.25 15.749 11.25H16.749Z" fill="black"/>
<path d="M16.749 4.25C17.0252 4.25 17.249 4.47386 17.249 4.75C17.249 5.02614 17.0252 5.25 16.749 5.25H15.749C15.4729 5.25 15.249 5.02614 15.249 4.75C15.249 4.47386 15.4729 4.25 15.749 4.25H16.749Z" fill="black"/>
<path fill-rule="evenodd" clip-rule="evenodd" d="M18.749 1C20.1296 1.00013 21.249 2.11937 21.249 3.5V19.5C21.249 20.8806 20.1296 21.9999 18.749 22H4.74902C3.36837 21.9999 2.24902 20.8806 2.24902 19.5L2.25 3.5C2.25011 2.11949 3.36954 1.00021 4.75 1H18.749ZM3.24902 15.75V19.5C3.24902 20.3284 3.92066 20.9999 4.74902 21H18.749C19.5773 20.9999 20.249 20.3283 20.249 19.5V15.75H3.24902ZM3.24902 14.75H20.249V8.5H3.25L3.24902 14.75ZM4.75 2C3.9218 2.00021 3.25006 2.67175 3.25 3.5V7.5H20.249V3.5C20.249 2.67165 19.5773 2.00013 18.749 2H4.75Z" fill="black"/>
</svg>
