<svg width="24" height="24" viewBox="0 0 24 24" fill="none" xmlns="http://www.w3.org/2000/svg">
<path fill-rule="evenodd" clip-rule="evenodd" d="M0.139222 19.4743C-0.276167 17.6188 0.237744 15.5938 1.68405 14.1475C3.21183 12.6197 5.38443 12.1323 7.32306 12.6818L12.5604 7.44446C12.0109 5.50583 12.4983 3.33323 14.0261 1.80545C15.4724 0.359142 17.4974 -0.154768 19.3529 0.260621C20.3816 0.490914 20.5077 1.68782 19.9091 2.28639L17.5814 4.61411C17.4728 4.72266 17.4728 4.89866 17.5814 5.00722L18.956 6.38187C19.0646 6.49043 19.2406 6.49043 19.3491 6.38187L21.6769 4.05415C22.2754 3.45559 23.4723 3.58169 23.7026 4.61038C24.118 6.46585 23.6041 8.49087 22.1578 9.93718C20.6019 11.4931 18.3772 11.97 16.4117 11.3714L11.25 16.5331C11.8486 18.4986 11.3717 20.7233 9.81578 22.2792C8.36947 23.7255 6.34445 24.2394 4.48898 23.824C3.46029 23.5937 3.33419 22.3968 3.93276 21.7983L6.26048 19.4705C6.36903 19.362 6.36903 19.186 6.26048 19.0774L4.88582 17.7028C4.77726 17.5942 4.60126 17.5942 4.49271 17.7028L2.16499 20.0305C1.56642 20.6291 0.369518 20.503 0.139222 19.4743ZM1.51395 18.5602L3.43205 16.6421C4.12639 15.9478 5.25214 15.9478 5.94648 16.6421L7.32114 18.0168C8.01548 18.7111 8.01548 19.8369 7.32114 20.5312L5.40303 22.4493C6.60443 22.5471 7.83744 22.1362 8.75512 21.2185C9.99798 19.9757 10.3112 18.1532 9.69042 16.6178L9.50431 16.1574L16.036 9.62571L16.4964 9.81182C18.0318 10.4326 19.8543 10.1194 21.0971 8.87652C22.0148 7.95883 22.4257 6.72583 22.3279 5.52443L20.4098 7.44253C19.7155 8.13688 18.5897 8.13687 17.8954 7.44253L16.5207 6.06788C15.8264 5.37354 15.8264 4.24779 16.5207 3.55345L18.4388 1.63535C17.2374 1.53752 16.0044 1.94843 15.0867 2.86611C13.8667 4.08619 13.5424 5.8647 14.1183 7.38234L14.2904 7.83581L7.71441 14.4118L7.26094 14.2397C5.7433 13.6638 3.96479 13.9881 2.74471 15.2081C1.82703 16.1258 1.41612 17.3588 1.51395 18.5602Z" fill="black"/>
</svg>
