<svg width="24" height="24" viewBox="0 0 24 24" fill="none" xmlns="http://www.w3.org/2000/svg">
<path fill-rule="evenodd" clip-rule="evenodd" d="M0.627199 19.365C0.24764 17.6696 0.71745 15.8212 2.03766 14.501C3.50516 13.0335 5.62491 12.6167 7.46267 13.2493L13.128 7.58398C12.4954 5.74623 12.9122 3.62648 14.3797 2.15898C15.6999 0.838767 17.5483 0.368957 19.2437 0.748516C19.8211 0.87778 19.9251 1.56336 19.5556 1.93281L17.2279 4.26053C16.9241 4.56434 16.9241 5.05693 17.2279 5.36074L18.6025 6.7354C18.9064 7.03922 19.3989 7.03922 19.7028 6.7354L22.0305 4.40768C22.3999 4.03823 23.0855 4.14218 23.2148 4.71959C23.5943 6.415 23.1245 8.26339 21.8043 9.5836C20.3095 11.0784 18.1381 11.483 16.2771 10.7989L10.6776 16.3984C11.3617 18.2594 10.9571 20.4309 9.46228 21.9256C8.14207 23.2458 6.29369 23.7156 4.59827 23.3361C4.02086 23.2068 3.91691 22.5212 4.28636 22.1518L6.61408 19.8241C6.9179 19.5203 6.9179 19.0277 6.61408 18.7239L5.23943 17.3492C4.93561 17.0454 4.44303 17.0454 4.13921 17.3492L1.81149 19.6769C1.44204 20.0464 0.756465 19.9424 0.627199 19.365ZM2.39122 14.8546C1.1971 16.0487 0.771392 17.7204 1.11512 19.2558C1.13217 19.3319 1.18189 19.3747 1.24449 19.3895C1.31069 19.4052 1.39281 19.3885 1.45794 19.3234L3.78566 16.9956C4.28474 16.4966 5.0939 16.4966 5.59298 16.9956L6.96764 18.3703C7.46672 18.8694 7.46671 19.6785 6.96764 20.1776L4.63992 22.5053C4.57479 22.5705 4.55811 22.6526 4.57379 22.7188C4.58862 22.7814 4.63135 22.8311 4.7075 22.8482C6.24287 23.1919 7.91462 22.7662 9.10873 21.5721C10.4985 20.1823 10.8474 18.1453 10.154 16.4303L10.092 16.2769L16.1556 10.2133L16.309 10.2753C18.0239 10.9687 20.061 10.6198 21.4508 9.23005C22.6449 8.03593 23.0706 6.36419 22.7268 4.82882C22.7098 4.75267 22.6601 4.70993 22.5975 4.69511C22.5313 4.67943 22.4492 4.6961 22.384 4.76123L20.0563 7.08895C19.5572 7.58803 18.7481 7.58803 18.249 7.08895L16.8743 5.7143C16.3752 5.21522 16.3753 4.40605 16.8743 3.90697L19.202 1.57925C19.2672 1.51412 19.2839 1.43201 19.2682 1.36581C19.2534 1.3032 19.2106 1.25349 19.1345 1.23644C17.5991 0.89271 15.9274 1.31842 14.7332 2.51253C13.369 3.87679 13.0077 5.86484 13.6509 7.55971L13.7082 7.71087L7.58955 13.8296L7.43839 13.7722C5.74352 13.129 3.75547 13.4903 2.39122 14.8546Z" fill="black"/>
</svg>
