<svg width="24" height="24" viewBox="0 0 24 24" fill="none" xmlns="http://www.w3.org/2000/svg">
<path d="M16.749 18.75C17.1632 18.75 17.499 19.0858 17.499 19.5C17.499 19.9142 17.1632 20.25 16.749 20.25H15.749C15.3348 20.25 14.999 19.9142 14.999 19.5C14.999 19.0858 15.3348 18.75 15.749 18.75H16.749Z" fill="black"/>
<path d="M16.749 11.25C17.1632 11.25 17.499 11.5858 17.499 12C17.499 12.4142 17.1632 12.75 16.749 12.75H15.749C15.3348 12.75 14.999 12.4142 14.999 12C14.999 11.5858 15.3348 11.25 15.749 11.25H16.749Z" fill="black"/>
<path d="M16.749 3.75C17.1632 3.75 17.499 4.08579 17.499 4.5C17.499 4.91421 17.1632 5.25 16.749 5.25H15.749C15.3348 5.25 14.999 4.91421 14.999 4.5C14.999 4.08579 15.3348 3.75 15.749 3.75H16.749Z" fill="black"/>
<path fill-rule="evenodd" clip-rule="evenodd" d="M18.749 15.75C20.2677 15.7501 21.499 16.9813 21.499 18.5V20.5C21.499 22.0187 20.2677 23.2499 18.749 23.25H4.75C3.23094 23.25 1.99961 22.0181 2 20.499V18.499C2.00054 16.9807 3.2316 15.75 4.75 15.75C3.23094 15.75 1.99961 14.5181 2 12.999V10.999C2.00054 9.48065 3.2316 8.25002 4.75 8.25C3.23094 8.25 1.99961 7.01808 2 5.49902V3.49902C2.00054 1.98065 3.2316 0.750021 4.75 0.75H18.749C20.2677 0.750087 21.499 1.98127 21.499 3.5V5.5C21.499 7.01873 20.2677 8.24991 18.749 8.25C20.2677 8.25009 21.499 9.48127 21.499 11V13C21.499 14.5187 20.2677 15.7499 18.749 15.75ZM4.75 17.25C4.05979 17.25 3.50018 17.8098 3.5 18.5V20.5C3.5 21.1903 4.05963 21.75 4.75 21.75H18.749C19.4393 21.7499 19.999 21.1903 19.999 20.5V18.5C19.999 17.8097 19.4393 17.2501 18.749 17.25H4.75ZM4.75 9.75C4.05979 9.75002 3.50018 10.3098 3.5 11V13C3.5 13.6903 4.05963 14.25 4.75 14.25H18.749C19.4393 14.2499 19.999 13.6903 19.999 13V11C19.999 10.3097 19.4393 9.75009 18.749 9.75H4.75ZM4.75 2.25C4.05979 2.25002 3.50018 2.80978 3.5 3.5V5.5C3.5 6.19033 4.05963 6.75 4.75 6.75H18.749C19.4393 6.74991 19.999 6.1903 19.999 5.5V3.5C19.999 2.8097 19.4393 2.25009 18.749 2.25H4.75Z" fill="black"/>
</svg>
