<svg width="24" height="24" viewBox="0 0 24 24" fill="none" xmlns="http://www.w3.org/2000/svg">
<path d="M16.749 17.25C17.3013 17.25 17.749 17.6977 17.749 18.25C17.749 18.8023 17.3013 19.25 16.749 19.25H15.749C15.1967 19.25 14.749 18.8023 14.749 18.25C14.749 17.6977 15.1967 17.25 15.749 17.25H16.749Z" fill="black"/>
<path d="M16.749 10.75C17.3013 10.75 17.749 11.1977 17.749 11.75C17.749 12.3023 17.3013 12.75 16.749 12.75H15.749C15.1967 12.75 14.749 12.3023 14.749 11.75C14.749 11.1977 15.1967 10.75 15.749 10.75H16.749Z" fill="black"/>
<path d="M16.749 3.75C17.3013 3.75 17.749 4.19772 17.749 4.75C17.749 5.30228 17.3013 5.75 16.749 5.75H15.749C15.1967 5.75 14.749 5.30228 14.749 4.75C14.749 4.19772 15.1967 3.75 15.749 3.75H16.749Z" fill="black"/>
<path fill-rule="evenodd" clip-rule="evenodd" d="M18.749 0.5C20.4058 0.500132 21.749 1.84323 21.749 3.5V19.5C21.749 21.1568 20.4058 22.4999 18.749 22.5H4.74902C3.09223 22.4999 1.74902 21.1568 1.74902 19.5L1.75 3.5C1.75013 1.84337 3.09342 0.500213 4.75 0.5H18.749ZM3.74902 16.25V19.5C3.74902 20.0522 4.1968 20.4999 4.74902 20.5H18.749C19.3012 20.4999 19.749 20.0522 19.749 19.5V16.25H3.74902ZM3.74902 14.25H19.749V9H3.75L3.74902 14.25ZM4.75 2.5C4.19793 2.50021 3.75004 2.94788 3.75 3.5V7H19.749V3.5C19.749 2.9478 19.3012 2.50013 18.749 2.5H4.75Z" fill="black"/>
</svg>
