<svg width="24" height="24" viewBox="0 0 24 24" fill="none" xmlns="http://www.w3.org/2000/svg">
<path d="M16.749 17.25C17.3013 17.25 17.749 17.6977 17.749 18.25C17.749 18.8023 17.3013 19.25 16.749 19.25H15.749C15.1967 19.25 14.749 18.8023 14.749 18.25C14.749 17.6977 15.1967 17.25 15.749 17.25H16.749Z" fill="black"/>
<path d="M16.749 10.75C17.3013 10.75 17.749 11.1977 17.749 11.75C17.749 12.3023 17.3013 12.75 16.749 12.75H15.749C15.1967 12.75 14.749 12.3023 14.749 11.75C14.749 11.1977 15.1967 10.75 15.749 10.75H16.749Z" fill="black"/>
<path d="M16.749 3.75C17.3013 3.75 17.749 4.19772 17.749 4.75C17.749 5.30228 17.3013 5.75 16.749 5.75H15.749C15.1967 5.75 14.749 5.30228 14.749 4.75C14.749 4.19772 15.1967 3.75 15.749 3.75H16.749Z" fill="black"/>
<path fill-rule="evenodd" clip-rule="evenodd" d="M18.749 0.25C20.5438 0.250132 21.999 1.70516 21.999 3.5V19.5C21.999 21.2948 20.5438 22.7499 18.749 22.75H4.74902C2.95415 22.7499 1.49902 21.2949 1.49902 19.5L1.5 3.5C1.50014 1.7053 2.95535 0.250213 4.75 0.25H18.749ZM3.99902 16.25V19.5C3.99902 19.9142 4.33488 20.2499 4.74902 20.25H18.749C19.1631 20.2499 19.499 19.9141 19.499 19.5V16.25H3.99902ZM3.99902 14.25H19.499V9H4L3.99902 14.25ZM4.75 2.75C4.33599 2.75021 4.00003 3.08594 4 3.5V7H19.499V3.5C19.499 3.08587 19.1631 2.75013 18.749 2.75H4.75Z" fill="black"/>
</svg>
