<svg width="24" height="24" viewBox="0 0 24 24" fill="none" xmlns="http://www.w3.org/2000/svg">
<path d="M16.749 17.5C17.1632 17.5 17.499 17.8358 17.499 18.25C17.499 18.6642 17.1632 19 16.749 19H15.749C15.3348 19 14.999 18.6642 14.999 18.25C14.999 17.8358 15.3348 17.5 15.749 17.5H16.749Z" fill="black"/>
<path d="M16.749 11C17.1632 11 17.499 11.3358 17.499 11.75C17.499 12.1642 17.1632 12.5 16.749 12.5H15.749C15.3348 12.5 14.999 12.1642 14.999 11.75C14.999 11.3358 15.3348 11 15.749 11H16.749Z" fill="black"/>
<path d="M16.749 4C17.1632 4 17.499 4.33579 17.499 4.75C17.499 5.16421 17.1632 5.5 16.749 5.5H15.749C15.3348 5.5 14.999 5.16421 14.999 4.75C14.999 4.33579 15.3348 4 15.749 4H16.749Z" fill="black"/>
<path fill-rule="evenodd" clip-rule="evenodd" d="M18.749 0.75C20.2677 0.750132 21.499 1.9813 21.499 3.5V19.5C21.499 21.0187 20.2677 22.2499 18.749 22.25H4.74902C3.2303 22.2499 1.99902 21.0187 1.99902 19.5L2 3.5C2.00012 1.98143 3.23148 0.750213 4.75 0.75H18.749ZM3.49902 16V19.5C3.49902 20.1903 4.05873 20.7499 4.74902 20.75H18.749C19.4393 20.7499 19.999 20.1903 19.999 19.5V16H3.49902ZM3.49902 14.5H19.999V8.75H3.5L3.49902 14.5ZM4.75 2.25C4.05986 2.25021 3.50005 2.80981 3.5 3.5V7.25H19.999V3.5C19.999 2.80973 19.4393 2.25013 18.749 2.25H4.75Z" fill="black"/>
</svg>
