<svg width="24" height="24" viewBox="0 0 24 24" fill="none" xmlns="http://www.w3.org/2000/svg">
<path d="M2.03765 14.501C0.54358 15.9951 0.138636 18.1652 0.821366 20.0255C0.910779 20.2691 1.20378 20.2846 1.35033 20.1381L4.1392 17.3492C4.44301 17.0454 4.9356 17.0454 5.23941 17.3492L6.61407 18.7238C6.91789 19.0277 6.91789 19.5202 6.61407 19.8241L3.8252 22.6129C3.67865 22.7595 3.69412 23.0525 3.93775 23.1419C5.79803 23.8246 7.9682 23.4197 9.46227 21.9256C10.957 20.4308 11.3617 18.2594 10.6776 16.3984L16.2771 10.7989C18.1381 11.483 20.3095 11.0784 21.8043 9.58359C23.2984 8.08952 23.7033 5.91935 23.0206 4.05906C22.9312 3.81544 22.6382 3.79997 22.4916 3.94652L19.7027 6.73539C19.3989 7.0392 18.9063 7.0392 18.6025 6.73539L17.2279 5.36073C16.9241 5.05691 16.9241 4.56433 17.2279 4.26051L20.0167 1.47164C20.1633 1.32509 20.1478 1.0321 19.9042 0.942684C18.0439 0.259953 15.8737 0.664896 14.3797 2.15896C12.9122 3.62646 12.4954 5.74621 13.128 7.58397L7.46265 13.2493C5.6249 12.6167 3.50515 13.0335 2.03765 14.501Z" fill="black"/>
</svg>
