<svg width="24" height="24" viewBox="0 0 24 24" fill="none" xmlns="http://www.w3.org/2000/svg">
<path fill-rule="evenodd" clip-rule="evenodd" d="M20.749 20.5C20.749 21.6045 19.8535 22.4999 18.749 22.5H4.74902C3.64445 22.5 2.74902 21.6046 2.74902 20.5V15.375H20.749V20.5ZM15.749 18.5C15.611 18.5 15.499 18.6119 15.499 18.75C15.499 18.8881 15.611 19 15.749 19H16.749C16.8871 19 16.999 18.8881 16.999 18.75C16.999 18.6119 16.8871 18.5 16.749 18.5H15.749Z" fill="black"/>
<path fill-rule="evenodd" clip-rule="evenodd" d="M20.749 14.875H2.74902L2.75 8.375H20.749V14.875ZM15.749 11.5C15.611 11.5 15.499 11.6119 15.499 11.75C15.499 11.8881 15.611 12 15.749 12H16.749C16.8871 12 16.999 11.8881 16.999 11.75C16.999 11.6119 16.8871 11.5 16.749 11.5H15.749Z" fill="black"/>
<path fill-rule="evenodd" clip-rule="evenodd" d="M18.749 1.5C19.8535 1.50013 20.749 2.39551 20.749 3.5V7.875H2.75V3.5C2.75008 2.39554 3.64556 1.50009 4.75 1.5H18.749ZM15.749 4.25C15.611 4.25 15.499 4.36193 15.499 4.5C15.499 4.63807 15.611 4.75 15.749 4.75H16.749C16.8871 4.75 16.999 4.63807 16.999 4.5C16.999 4.36193 16.8871 4.25 16.749 4.25H15.749Z" fill="black"/>
</svg>
