<svg width="25" height="25" viewBox="0 0 25 25" fill="none" xmlns="http://www.w3.org/2000/svg">
<path fill-rule="evenodd" clip-rule="evenodd" d="M12.2107 7.43753C11.7357 5.47279 12.264 3.31242 13.8003 1.77613C15.3106 0.26582 17.4253 -0.270287 19.3615 0.163167C20.7202 0.467311 20.8606 2.03727 20.0964 2.80148L17.9116 4.98627L19.0803 6.15496L21.2651 3.97014C22.0293 3.20593 23.5993 3.34639 23.9034 4.70499C24.3369 6.64123 23.8008 8.75597 22.2905 10.2663C20.726 11.8308 18.5144 12.35 16.5209 11.8287L11.8108 16.5388C12.3321 18.5323 11.8129 20.7439 10.2484 22.3084C8.73809 23.8187 6.62334 24.3548 4.6871 23.9213C3.32851 23.6172 3.18805 22.0472 3.95226 21.283L6.13707 19.0982L4.96839 17.9295L2.7836 20.1143C2.01938 20.8785 0.44943 20.7381 0.145283 19.3794C-0.28817 17.4432 0.247937 15.3285 1.75825 13.8182C3.29453 12.2819 5.45489 11.7536 7.41963 12.2286L12.2107 7.43753ZM15.3913 3.36712C14.3143 4.44414 14.027 6.0146 14.536 7.35596L14.7941 8.03615L8.01826 14.812L7.33807 14.5539C5.99671 14.0449 4.42626 14.3322 3.34924 15.4092C2.78364 15.9748 2.43583 16.676 2.3068 17.4091L3.48298 16.233C4.30335 15.4126 5.63343 15.4126 6.4538 16.233L7.83364 17.6128C8.65401 18.4332 8.65401 19.7633 7.83364 20.5836L6.6574 21.7599C7.39054 21.6308 8.09181 21.283 8.65744 20.7174C9.75459 19.6202 10.0322 18.0109 9.48348 16.6538L9.20429 15.9633L15.9454 9.22218L16.636 9.50137C17.993 10.05 19.6023 9.77248 20.6995 8.67532C21.2651 8.1097 21.6129 7.40843 21.742 6.67529L20.5657 7.85152C19.7453 8.6719 18.4153 8.67189 17.5949 7.85152L16.2151 6.47169C15.3947 5.65131 15.3947 4.32123 16.2151 3.50086L17.3912 2.32468C16.6581 2.45371 15.9569 2.80153 15.3913 3.36712Z" fill="black"/>
</svg>
