<svg width="24" height="24" viewBox="0 0 24 24" fill="none" xmlns="http://www.w3.org/2000/svg">
<path fill-rule="evenodd" clip-rule="evenodd" d="M18.749 16.5C19.8535 16.5001 20.749 17.3955 20.749 18.5V20.5C20.749 21.6045 19.8535 22.4999 18.749 22.5H4.74902C3.64442 22.4998 2.74874 21.6037 2.74902 20.499L2.75 18.499C2.75053 17.3949 3.64579 16.5 4.75 16.5H18.749ZM15.749 19C15.4729 19 15.249 19.2239 15.249 19.5C15.249 19.7761 15.4729 20 15.749 20H16.749C17.0252 20 17.249 19.7761 17.249 19.5C17.249 19.2239 17.0252 19 16.749 19H15.749Z" fill="black"/>
<path fill-rule="evenodd" clip-rule="evenodd" d="M18.749 9C19.8535 9.00009 20.749 9.89548 20.749 11V13C20.749 14.1045 19.8535 14.9999 18.749 15H4.74902C3.64442 14.9998 2.74874 14.1037 2.74902 12.999L2.75 10.999C2.75053 9.89487 3.64579 9 4.75 9H18.749ZM15.749 11.5C15.4729 11.5 15.249 11.7239 15.249 12C15.249 12.2761 15.4729 12.5 15.749 12.5H16.749C17.0252 12.5 17.249 12.2761 17.249 12C17.249 11.7239 17.0252 11.5 16.749 11.5H15.749Z" fill="black"/>
<path fill-rule="evenodd" clip-rule="evenodd" d="M18.749 1.5C19.8535 1.50009 20.749 2.39548 20.749 3.5V5.5C20.749 6.60452 19.8535 7.49991 18.749 7.5H4.74902C3.64442 7.49981 2.74874 6.60368 2.74902 5.49902L2.75 3.49902C2.75053 2.39487 3.64579 1.5 4.75 1.5H18.749ZM15.749 4C15.4729 4 15.249 4.22386 15.249 4.5C15.249 4.77614 15.4729 5 15.749 5H16.749C17.0252 5 17.249 4.77614 17.249 4.5C17.249 4.22386 17.0252 4 16.749 4H15.749Z" fill="black"/>
</svg>
