<svg width="24" height="24" viewBox="0 0 24 24" fill="none" xmlns="http://www.w3.org/2000/svg">
<path d="M16.749 19C17.0252 19 17.249 19.2239 17.249 19.5C17.249 19.7761 17.0252 20 16.749 20H15.749C15.4729 20 15.249 19.7761 15.249 19.5C15.249 19.2239 15.4729 19 15.749 19H16.749Z" fill="black"/>
<path fill-rule="evenodd" clip-rule="evenodd" d="M18.749 16C20.1297 16.0001 21.249 17.1193 21.249 18.5V20.5C21.249 21.8807 20.1297 22.9999 18.749 23H4.75C3.36904 23 2.24965 21.88 2.25 20.499V18.499C2.25054 17.1187 3.36967 16 4.75 16H18.749ZM4.75 17C3.92174 17 3.25021 17.6717 3.25 18.5V20.5C3.25 21.3284 3.92155 22 4.75 22H18.749C19.5774 21.9999 20.249 21.3284 20.249 20.5V18.5C20.249 17.6716 19.5774 17.0001 18.749 17H4.75Z" fill="black"/>
<path d="M16.749 11.5C17.0252 11.5 17.249 11.7239 17.249 12C17.249 12.2761 17.0252 12.5 16.749 12.5H15.749C15.4729 12.5 15.249 12.2761 15.249 12C15.249 11.7239 15.4729 11.5 15.749 11.5H16.749Z" fill="black"/>
<path fill-rule="evenodd" clip-rule="evenodd" d="M18.749 8.5C20.1297 8.50009 21.249 9.61934 21.249 11V13C21.249 14.3807 20.1297 15.4999 18.749 15.5H4.75C3.36904 15.5 2.24965 14.38 2.25 12.999V10.999C2.25054 9.61873 3.36967 8.50002 4.75 8.5H18.749ZM4.75 9.5C3.92174 9.50002 3.25021 10.1717 3.25 11V13C3.25 13.8284 3.92155 14.5 4.75 14.5H18.749C19.5774 14.4999 20.249 13.8284 20.249 13V11C20.249 10.1716 19.5774 9.50009 18.749 9.5H4.75Z" fill="black"/>
<path d="M16.749 4C17.0252 4 17.249 4.22386 17.249 4.5C17.249 4.77614 17.0252 5 16.749 5H15.749C15.4729 5 15.249 4.77614 15.249 4.5C15.249 4.22386 15.4729 4 15.749 4H16.749Z" fill="black"/>
<path fill-rule="evenodd" clip-rule="evenodd" d="M18.749 1C20.1297 1.00009 21.249 2.11934 21.249 3.5V5.5C21.249 6.88066 20.1297 7.99991 18.749 8H4.75C3.36904 8 2.24965 6.87998 2.25 5.49902V3.49902C2.25054 2.11873 3.36967 1.00002 4.75 1H18.749ZM4.75 2C3.92174 2.00002 3.25021 2.67173 3.25 3.5V5.5C3.25 6.3284 3.92155 7 4.75 7H18.749C19.5774 6.99991 20.249 6.32837 20.249 5.5V3.5C20.249 2.67163 19.5774 2.00009 18.749 2H4.75Z" fill="black"/>
</svg>
