<svg width="25" height="25" viewBox="0 0 25 25" fill="none" xmlns="http://www.w3.org/2000/svg">
<path fill-rule="evenodd" clip-rule="evenodd" d="M0.142228 19.5052C-0.282119 17.6097 0.242818 15.5405 1.72065 14.0627C3.2631 12.5202 5.4487 12.0158 7.41116 12.5455L12.5455 7.41116C12.0158 5.4487 12.5202 3.2631 14.0627 1.72065C15.5405 0.242816 17.6097 -0.282119 19.5052 0.142228C20.6467 0.39778 20.7783 1.72252 20.1225 2.37836L17.7948 4.70608C17.735 4.76582 17.735 4.86268 17.7948 4.92242L19.1694 6.29707C19.2291 6.35681 19.326 6.35681 19.3857 6.29707L21.7135 3.96935C22.3693 3.31351 23.694 3.44515 23.9496 4.58666C24.3739 6.48213 23.849 8.55132 22.3712 10.0292C20.8003 11.6 18.5626 12.0943 16.5724 11.516L11.516 16.5724C12.0943 18.5626 11.6 20.8003 10.0292 22.3712C8.55132 23.849 6.48214 24.3739 4.58666 23.9496C3.44515 23.694 3.31351 22.3693 3.96935 21.7135L6.29707 19.3857C6.35681 19.326 6.35681 19.2292 6.29707 19.1694L4.92242 17.7948C4.86268 17.735 4.76582 17.735 4.70608 17.7948L2.37836 20.1225C1.72252 20.7783 0.397782 20.6467 0.142228 19.5052ZM1.75023 18.2757L3.46865 16.5573C4.2118 15.8142 5.4167 15.8142 6.15985 16.5573L7.53451 17.932C8.27767 18.6751 8.27767 19.88 7.53451 20.6232L5.81609 22.3416C6.89239 22.3569 7.97174 21.9537 8.79172 21.1337C9.99786 19.9276 10.3022 18.1588 9.69952 16.6682L9.48239 16.1311L16.1311 9.48239L16.6682 9.69952C18.1588 10.3022 19.9276 9.99786 21.1337 8.79172C21.9537 7.97174 22.3569 6.89239 22.3416 5.81609L20.6232 7.53451C19.88 8.27766 18.6751 8.27767 17.932 7.53451L16.5573 6.15985C15.8142 5.4167 15.8142 4.2118 16.5573 3.46865L18.2757 1.75023C17.1994 1.73489 16.1201 2.13811 15.3001 2.95809C14.1161 4.14212 13.801 5.86825 14.3602 7.34158L14.5609 7.87062L7.87062 14.5609L7.34158 14.3602C5.86825 13.801 4.14212 14.1161 2.95809 15.3001C2.13811 16.1201 1.7349 17.1994 1.75023 18.2757Z" fill="black"/>
</svg>
