<svg width="24" height="24" viewBox="0 0 24 24" fill="none" xmlns="http://www.w3.org/2000/svg">
<path d="M16.3865 2.433L16.7848 3.77892L18.2008 3.43787C19.3607 3.15852 20.6813 3.51912 21.5149 4.56414C22.2322 5.46319 22.8156 6.45966 23.2479 7.52319C23.7618 8.78751 23.4053 10.142 22.559 11.0155L21.6048 12.0006L21.8771 12.2818C23.0937 13.5385 23.761 15.6526 22.7215 17.6018C22.3771 18.2477 21.9736 18.8618 21.5157 19.4364C20.6823 20.4821 19.3612 20.8435 18.2005 20.564L18.7858 18.1335C19.0728 18.2026 19.3767 18.1091 19.5606 17.8783C19.9235 17.423 20.243 16.9366 20.5156 16.4254C20.9403 15.6291 20.7088 14.6692 20.081 14.0208L19.5703 13.4934C19.1877 13.0982 19.0201 12.5508 19.0201 12.0008C19.0201 11.4508 19.1878 10.9025 19.5705 10.5074L20.7634 9.27605C20.9728 9.05997 21.0452 8.7433 20.9319 8.4646C20.5899 7.62335 20.1284 6.83488 19.5606 6.1232C19.3767 5.8926 19.073 5.7993 18.7862 5.86837L17.0913 6.27659C16.554 6.40601 15.9943 6.2769 15.5145 6.0025C15.0286 5.72461 14.628 5.30065 14.4691 4.76391L13.9892 3.14251C13.9049 2.85758 13.6694 2.6405 13.3752 2.59839C12.4633 2.46784 11.5366 2.46785 10.6239 2.59843C10.3297 2.64053 10.0941 2.85763 10.0098 3.14262L9.5299 4.76391C9.37104 5.30065 8.97045 5.72462 8.48455 6.0025C8.00473 6.2769 7.44506 6.40601 6.9077 6.27659L5.21284 5.86837C4.92606 5.7993 4.62237 5.8926 4.43841 6.1232C3.87067 6.83488 3.40909 7.62335 3.06713 8.4646L0.751155 7.52319C1.18347 6.45966 1.76688 5.46319 2.4841 4.56414C3.31777 3.51912 4.63838 3.15852 5.79824 3.43788L7.21423 3.77892L7.61256 2.4331C7.95385 1.27999 8.93868 0.314098 10.2698 0.123637C11.4172 -0.0405293 12.5825 -0.0405872 13.7295 0.123619C15.0607 0.314185 16.0452 1.28017 16.3865 2.433Z" fill="black"/>
<path d="M16.7846 20.2229L18.2005 20.564L18.7858 18.1335L17.091 17.7252C16.5538 17.5959 15.9944 17.7249 15.5145 17.9987C15.0285 18.2761 14.6281 18.6999 14.4693 19.2365L13.9894 20.8588C13.905 21.1441 13.6691 21.3613 13.3745 21.4032C12.463 21.5329 11.5368 21.5329 10.6246 21.4032C10.33 21.3613 10.0941 21.144 10.0096 20.8587L9.52973 19.2365C9.37098 18.6999 8.97051 18.2761 8.48449 17.9987C8.00463 17.7249 7.4452 17.5959 6.90807 17.7252L5.2132 18.1335C4.92623 18.2026 4.62236 18.1091 4.43839 17.8783C3.87075 17.166 3.40923 16.3777 3.0673 15.5373C2.95391 15.2586 3.02625 14.9419 3.23552 14.7258L4.42872 13.4934C4.81131 13.0982 4.97895 12.5508 4.97895 12.0008C4.97895 11.4508 4.81124 10.9025 4.42854 10.5074L3.23561 9.27605C3.02628 9.05997 2.95384 8.7433 3.06713 8.4646L0.751155 7.52319C0.237227 8.78751 0.593756 10.142 1.44001 11.0155L2.39428 12.0006L1.43943 12.9868C0.593376 13.8606 0.237268 15.2153 0.751635 16.4795C1.18386 17.5418 1.76693 18.5375 2.48333 19.4364C3.31672 20.4821 4.63786 20.8435 5.7986 20.564L7.21444 20.2229L7.61236 21.5679C7.95392 22.7225 8.94031 23.6887 10.2725 23.8782C11.4182 24.0412 12.5815 24.0413 13.7268 23.8783C15.0591 23.6887 16.0452 22.7223 16.3867 21.568L16.7846 20.2229Z" fill="black"/>
<path fill-rule="evenodd" clip-rule="evenodd" d="M16.3308 12.0002C16.3308 14.3613 14.3918 16.2752 11.9999 16.2752C9.60797 16.2752 7.66896 14.3613 7.66896 12.0002C7.66896 9.63922 9.60797 7.72523 11.9999 7.72523C14.3918 7.72523 16.3308 9.63922 16.3308 12.0002ZM11.9999 10.2252C10.958 10.2252 10.169 11.0505 10.169 12.0002C10.169 12.95 10.958 13.7752 11.9999 13.7752C13.0418 13.7752 13.8308 12.95 13.8308 12.0002C13.8308 11.0505 13.0418 10.2252 11.9999 10.2252Z" fill="black"/>
</svg>
