<svg width="24" height="24" viewBox="0 0 24 24" fill="none" xmlns="http://www.w3.org/2000/svg">
<path fill-rule="evenodd" clip-rule="evenodd" d="M7.07111 12.0002C7.07111 9.29871 9.28705 7.12531 12 7.12531C14.7129 7.12531 16.9288 9.29871 16.9288 12.0002C16.9288 14.7017 14.7129 16.8751 12 16.8751C9.28705 16.8751 7.07111 14.7017 7.07111 12.0002ZM12 8.62531C10.097 8.62531 8.57111 10.1455 8.57111 12.0002C8.57111 13.8549 10.097 15.3751 12 15.3751C13.9029 15.3751 15.4288 13.8549 15.4288 12.0002C15.4288 10.1455 13.9029 8.62531 12 8.62531Z" fill="black"/>
<path fill-rule="evenodd" clip-rule="evenodd" d="M10.3005 0.37146C11.4277 0.210187 12.5723 0.210156 13.6988 0.371416C14.3505 0.464712 14.8479 0.940736 15.0226 1.53103L15.5783 3.40844C15.694 3.79958 16.0012 4.15238 16.4418 4.4044C16.8757 4.65255 17.3278 4.73807 17.7197 4.64367L19.6822 4.17099C20.2762 4.02793 20.9329 4.21616 21.3408 4.72749C22.043 5.60775 22.6141 6.58311 23.0371 7.62388C23.2885 8.24227 23.1194 8.92029 22.6859 9.36772L21.3046 10.7936C21.03 11.0771 20.8786 11.5057 20.8786 12.0009C20.8786 12.4957 21.0297 12.9235 21.3046 13.2074L21.8958 13.8181C22.7994 14.7514 23.1982 16.209 22.522 17.477C22.1848 18.1093 21.7897 18.7108 21.3411 19.2738C20.9332 19.7855 20.2762 19.9741 19.6818 19.831L17.7193 19.3583C17.3276 19.264 16.8756 19.3494 16.4413 19.5972C16.001 19.8485 15.6941 20.2009 15.5785 20.5918L15.0228 22.4703C14.8479 23.0613 14.3497 23.5375 13.6974 23.6304C12.5718 23.7906 11.4282 23.7905 10.3019 23.6303C9.64955 23.5375 9.15118 23.0613 8.9763 22.4701L8.4206 20.5918C8.30497 20.201 7.99809 19.8485 7.55779 19.5972C7.12345 19.3494 6.6715 19.264 6.2798 19.3583L4.31733 19.831C3.72291 19.9741 3.06588 19.7855 2.65804 19.2738C1.95614 18.3931 1.38529 17.4181 0.962278 16.3784C0.710696 15.7601 0.879588 15.082 1.31294 14.6344L2.69454 13.2074C2.96937 12.9235 3.12047 12.4957 3.12047 12.0009C3.12047 11.5057 2.96915 11.0771 2.69447 10.7936L1.31318 9.36772C0.879726 8.92029 0.710626 8.24227 0.961993 7.62388C1.38505 6.58311 1.95606 5.60775 2.65829 4.72749C3.06621 4.21616 3.72292 4.02793 4.31691 4.17099L6.27937 4.64366C6.67132 4.73806 7.12335 4.65254 7.55725 4.4044C7.99792 4.15238 8.30506 3.79957 8.42083 3.40844L8.97646 1.53115C9.15121 0.940724 9.64879 0.464713 10.3005 0.37146ZM13.4862 1.85628C12.5008 1.71521 11.4993 1.71522 10.513 1.85634C10.4834 1.86057 10.4354 1.88731 10.4148 1.95686L9.85915 3.83414C9.60703 4.68598 8.9865 5.31499 8.30191 5.7065C7.62468 6.09381 6.78062 6.30728 5.92814 6.10196L3.96567 5.62929C3.89553 5.6124 3.84897 5.64025 3.83088 5.66293C3.21833 6.43076 2.72042 7.28133 2.35158 8.18873C2.3406 8.21574 2.33924 8.27107 2.39054 8.32402L3.77183 9.74985C4.38342 10.3812 4.62047 11.2223 4.62047 12.0009C4.62047 12.7797 4.38335 13.6196 3.77219 14.2508L2.39059 15.6778C2.33931 15.7307 2.34068 15.7861 2.35168 15.8131C2.72051 16.7196 3.21843 17.5702 3.83107 18.3389C3.84926 18.3617 3.89594 18.3896 3.96609 18.3727L5.92856 17.9C6.78075 17.6947 7.62433 17.9082 8.30124 18.2944C8.98647 18.6855 9.60698 19.3145 9.85898 20.1663L10.4147 22.0446C10.4353 22.1142 10.4834 22.141 10.5132 22.1453C11.4994 22.2855 12.5007 22.2856 13.486 22.1453C13.5157 22.1411 13.5638 22.1143 13.5844 22.0447L14.1401 20.1663C14.3921 19.3145 15.0126 18.6855 15.6979 18.2944C16.3748 17.9082 17.2183 17.6947 18.0705 17.9L20.033 18.3727C20.1032 18.3896 20.1498 18.3617 20.168 18.3389C20.5596 17.8475 20.9044 17.3227 21.1985 16.7712C21.5058 16.1949 21.3685 15.4298 20.8182 14.8615L20.2269 14.2508C19.6158 13.6196 19.3786 12.7797 19.3786 12.0009C19.3786 11.2223 19.6157 10.3812 20.2273 9.74985L21.6086 8.32402C21.6599 8.27107 21.6585 8.21574 21.6475 8.18873C21.2787 7.28133 20.7808 6.43076 20.1682 5.66293C20.1501 5.64025 20.1036 5.6124 20.0334 5.62929L18.0709 6.10196C17.2185 6.30729 16.3744 6.09381 15.6972 5.7065C15.0126 5.31499 14.3921 4.68598 14.14 3.83415L13.5843 1.95674C13.5637 1.88718 13.5157 1.8605 13.4862 1.85628Z" fill="black"/>
</svg>
