<svg width="24" height="24" viewBox="0 0 24 24" fill="none" xmlns="http://www.w3.org/2000/svg">
<path fill-rule="evenodd" clip-rule="evenodd" d="M7.57089 12.0002C7.57089 9.58096 9.55682 7.62531 11.9997 7.62531C14.4426 7.62531 16.4286 9.58096 16.4286 12.0002C16.4286 14.4194 14.4426 16.3751 11.9997 16.3751C9.55682 16.3751 7.57089 14.4194 7.57089 12.0002ZM11.9997 8.12531C9.82682 8.12531 8.07089 9.86321 8.07089 12.0002C8.07089 14.1372 9.82682 15.8751 11.9997 15.8751C14.1727 15.8751 15.9286 14.1372 15.9286 12.0002C15.9286 9.86321 14.1727 8.12531 11.9997 8.12531Z" fill="black"/>
<path fill-rule="evenodd" clip-rule="evenodd" d="M10.3711 0.86642C11.4514 0.711864 12.5482 0.711842 13.6277 0.86637C14.072 0.929975 14.4196 1.25622 14.5429 1.67294L15.0986 3.55035C15.2598 4.09505 15.6714 4.53992 16.1934 4.83843C16.7084 5.13297 17.2911 5.26114 17.8366 5.12977L19.799 4.65709C20.2184 4.55609 20.6717 4.69085 20.9497 5.0393C21.6221 5.88208 22.1687 6.81585 22.5737 7.81216C22.7449 8.23343 22.6326 8.70388 22.3266 9.01982L20.9453 10.4457C20.5583 10.8451 20.3784 11.4112 20.3784 12.0009C20.3784 12.5904 20.5582 13.1556 20.9451 13.5552L21.5364 14.1659C22.3222 14.9775 22.6339 16.2043 22.0806 17.2418C21.7578 17.8471 21.3795 18.423 20.9498 18.9621C20.6719 19.3109 20.2183 19.4459 19.7986 19.3449L17.8361 18.8722C17.2909 18.7409 16.7085 18.869 16.1933 19.163C15.6713 19.4608 15.2599 19.9055 15.0988 20.45L14.5431 22.3284C14.4197 22.7456 14.0715 23.0721 13.6267 23.1354C12.5479 23.2889 11.4517 23.2889 10.3721 23.1353C9.92727 23.072 9.57898 22.7456 9.45553 22.3283L8.89984 20.45C8.73875 19.9055 8.32732 19.4608 7.80538 19.163C7.29018 18.869 6.70769 18.7409 6.1625 18.8722L4.20002 19.3449C3.78036 19.4459 3.32678 19.3109 3.04882 18.9621C2.37668 18.1188 1.83014 17.1852 1.42518 16.19C1.2538 15.7687 1.36594 15.2982 1.67193 14.9822L3.05353 13.5552C3.44047 13.1556 3.62025 12.5904 3.62024 12.0009C3.62024 11.4112 3.44034 10.8451 3.05336 10.4457L1.67207 9.01982C1.366 8.70388 1.25372 8.23343 1.42496 7.81216C1.82995 6.81585 2.37659 5.88208 3.04893 5.0393C3.32691 4.69085 3.78023 4.55609 4.1996 4.65709L6.16207 5.12976C6.70752 5.26114 7.29023 5.13297 7.80524 4.83843C8.32722 4.53992 8.73882 4.09504 8.90004 3.55034L9.45568 1.67306C9.57904 1.25625 9.92677 0.929999 10.3711 0.86642ZM13.5568 1.36132C12.5244 1.21353 11.4752 1.21354 10.442 1.36138C10.205 1.39529 10.0071 1.57178 9.93512 1.81496L9.37949 3.69224C9.17281 4.39051 8.65675 4.92746 8.05346 5.27247C7.45734 5.61339 6.74396 5.78421 6.04499 5.61586L4.08253 5.14319C3.83777 5.08424 3.58782 5.16555 3.43979 5.35111C2.79735 6.15642 2.27507 7.04859 1.88816 8.00044C1.79705 8.22458 1.85251 8.48748 2.03119 8.67192L3.41248 10.0978C3.91177 10.6131 4.12024 11.3168 4.12024 12.0009C4.12025 12.685 3.9118 13.3876 3.41275 13.903L2.03115 15.33C1.85251 15.5145 1.79713 15.7774 1.88832 16.0015C2.27521 16.9524 2.79744 17.8445 3.43983 18.6505C3.58791 18.8363 3.83803 18.9178 4.08294 18.8588L6.04542 18.3861C6.74411 18.2178 7.45714 18.3886 8.05319 18.7287C8.65678 19.0731 9.17275 19.61 9.37929 20.3081L9.93499 22.1865C10.007 22.4299 10.2052 22.6065 10.4425 22.6403C11.4754 22.7872 12.5242 22.7872 13.5562 22.6403C13.7935 22.6066 13.9916 22.43 14.0636 22.1866L14.6194 20.3081C14.8259 19.61 15.3419 19.0731 15.9454 18.7287C16.5415 18.3886 17.2545 18.2178 17.9532 18.3861L19.9157 18.8588C20.1606 18.9178 20.4107 18.8363 20.5588 18.6505C20.9694 18.1353 21.331 17.5849 21.6394 17.0065C22.0697 16.1996 21.8452 15.2037 21.1772 14.5137L20.5859 13.903C20.0869 13.3876 19.8784 12.685 19.8784 12.0009C19.8784 11.3168 20.0869 10.6131 20.5862 10.0978L21.9675 8.67192C22.1461 8.48748 22.2016 8.22458 22.1105 8.00045C21.7236 7.04859 21.2013 6.15642 20.5589 5.35111C20.4108 5.16555 20.1609 5.08424 19.9161 5.14319L17.9536 5.61586C17.2547 5.78421 16.5413 5.61339 15.9452 5.27247C15.3419 4.92745 14.8258 4.39052 14.6192 3.69225L14.0635 1.81484C13.9915 1.5717 13.7937 1.39524 13.5568 1.36132Z" fill="black"/>
</svg>
