<svg width="24" height="24" viewBox="0 0 24 24" fill="none" xmlns="http://www.w3.org/2000/svg">
<path fill-rule="evenodd" clip-rule="evenodd" d="M7.321 12.0002C7.321 9.43984 9.42194 7.37531 11.9998 7.37531C14.5778 7.37531 16.6787 9.43984 16.6787 12.0002C16.6787 14.5606 14.5778 16.6251 11.9998 16.6251C9.42194 16.6251 7.321 14.5606 7.321 12.0002ZM11.9998 8.37531C9.96193 8.37531 8.321 10.0043 8.321 12.0002C8.321 13.9961 9.96193 15.6251 11.9998 15.6251C14.0378 15.6251 15.6787 13.9961 15.6787 12.0002C15.6787 10.0043 14.0378 8.37531 11.9998 8.37531Z" fill="black"/>
<path fill-rule="evenodd" clip-rule="evenodd" d="M10.3358 0.61894C11.4395 0.461025 12.5603 0.460999 13.6632 0.618893C14.2112 0.697343 14.6337 1.09848 14.7828 1.60198L15.3384 3.47939C15.4769 3.94731 15.8363 4.34615 16.3176 4.62142C16.7921 4.89276 17.3094 4.9996 17.7781 4.88672L19.7406 4.41404C20.2473 4.29201 20.8023 4.45351 21.1453 4.88339C21.8326 5.74491 22.3914 6.69948 22.8054 7.71802C23.0167 8.23785 22.876 8.81209 22.5062 9.19377L21.125 10.6196C20.7941 10.9611 20.6285 11.4585 20.6285 12.0009C20.6285 12.5431 20.794 13.0395 21.1248 13.3813L21.7161 13.992C22.5608 14.8645 22.9161 16.2067 22.3013 17.3594C21.9713 17.9782 21.5846 18.5669 21.1454 19.1179C20.8025 19.5482 20.2472 19.71 19.7402 19.5879L17.7777 19.1152C17.3093 19.0024 16.792 19.1092 16.3173 19.3801C15.8362 19.6547 15.477 20.0532 15.3387 20.5209L14.7829 22.3993C14.6338 22.9034 14.2106 23.3048 13.662 23.3829C12.5599 23.5397 11.4399 23.5397 10.337 23.3828C9.78841 23.3048 9.36508 22.9034 9.21591 22.3992L8.66022 20.5209C8.52186 20.0532 8.1627 19.6547 7.68158 19.3801C7.20681 19.1092 6.6896 19.0024 6.22115 19.1152L4.25867 19.5879C3.75164 19.71 3.19633 19.5482 2.85343 19.1179C2.16641 18.2559 1.60772 17.3016 1.19373 16.2842C0.982247 15.7644 1.12276 15.1901 1.49243 14.8083L2.87404 13.3813C3.20492 13.0395 3.37036 12.5431 3.37036 12.0009C3.37036 11.4585 3.20474 10.9611 2.87392 10.6196L1.49263 9.19377C1.12287 8.81208 0.982175 8.23785 1.19348 7.71802C1.6075 6.69948 2.16633 5.74492 2.85361 4.88339C3.19656 4.45351 3.75158 4.29201 4.25826 4.41404L6.22072 4.88671C6.68942 4.9996 7.20679 4.89275 7.68125 4.62142C8.16257 4.34615 8.52194 3.94731 8.66044 3.47939L9.21607 1.6021C9.36513 1.09849 9.78778 0.697356 10.3358 0.61894ZM13.5215 1.6088C12.5126 1.46437 11.4873 1.46438 10.4775 1.60886C10.3442 1.62793 10.2212 1.72954 10.1749 1.88591L9.61932 3.76319C9.38992 4.53825 8.82163 5.12122 8.17769 5.48949C7.54101 5.8536 6.76229 6.04575 5.98656 5.85891L4.0241 5.38624C3.86665 5.34832 3.7184 5.4029 3.63533 5.50702C3.00784 6.29359 2.49775 7.16496 2.11987 8.09459C2.06882 8.22016 2.09588 8.37927 2.21087 8.49797L3.59215 9.9238C4.14759 10.4971 4.37036 11.2695 4.37036 12.0009C4.37036 12.7324 4.14757 13.5036 3.59247 14.0769L2.21087 15.5039C2.09591 15.6226 2.06891 15.7817 2.12 15.9073C2.49786 16.836 3.00794 17.7073 3.63545 18.4947C3.71859 18.599 3.86699 18.6537 4.02451 18.6157L5.98699 18.143C6.76243 17.9563 7.54074 18.1484 8.17722 18.5116C8.82162 18.8793 9.38987 19.4622 9.61914 20.2372L10.1748 22.1155C10.2211 22.272 10.3443 22.3738 10.4778 22.3928C11.4874 22.5364 12.5125 22.5364 13.5211 22.3928C13.6546 22.3738 13.7777 22.2722 13.824 22.1157L14.3797 20.2372C14.609 19.4622 15.1773 18.8793 15.8216 18.5116C16.4581 18.1484 17.2364 17.9563 18.0119 18.143L19.9744 18.6157C20.1319 18.6537 20.2803 18.599 20.3634 18.4947C20.7645 17.9914 21.1177 17.4538 21.419 16.8888C21.7878 16.1973 21.6069 15.3168 20.9977 14.6876L20.4064 14.0769C19.8513 13.5036 19.6285 12.7324 19.6285 12.0009C19.6285 11.2695 19.8513 10.4971 20.4067 9.9238L21.788 8.49797C21.903 8.37927 21.9301 8.22016 21.879 8.09459C21.5011 7.16496 20.991 6.29359 20.3635 5.50702C20.2805 5.4029 20.1322 5.34832 19.9748 5.38624L18.0123 5.85891C17.2366 6.04575 16.4579 5.8536 15.8212 5.48948C15.1772 5.12122 14.609 4.53825 14.3796 3.7632L13.8239 1.88579C13.7776 1.72944 13.6547 1.62787 13.5215 1.6088Z" fill="black"/>
</svg>
