<svg width="24" height="24" viewBox="0 0 24 24" fill="none" xmlns="http://www.w3.org/2000/svg">
<path d="M19.5604 6.1232L21.1238 4.87595C21.8112 5.73752 22.3702 6.69239 22.7845 7.71147L20.9317 8.4646C20.5897 7.62335 20.1281 6.83488 19.5604 6.1232Z" fill="black"/>
<path d="M16.6508 4.32544L18.3177 3.92397C19.3029 3.68668 20.4201 3.99382 21.1238 4.87595L19.5604 6.1232C19.3764 5.8926 19.0728 5.7993 18.786 5.86837L17.0911 6.27659C16.5537 6.40601 15.9941 6.2769 15.5143 6.0025C15.0284 5.72461 14.6278 5.30065 14.4689 4.76391L13.989 3.14251C13.9047 2.85758 13.6692 2.6405 13.375 2.59839C12.4631 2.46784 11.5364 2.46785 10.6237 2.59843C10.3295 2.64053 10.0939 2.85763 10.0095 3.14262L9.52967 4.76391C9.37081 5.30065 8.97023 5.72462 8.48432 6.0025C8.00451 6.2769 7.44483 6.40601 6.90747 6.27659L5.21261 5.86837C4.92583 5.7993 4.62215 5.89261 4.43819 6.1232C3.87044 6.83488 3.40886 7.62335 3.0669 8.4646C2.95362 8.7433 3.02605 9.05997 3.23538 9.27605L4.42831 10.5074C4.81101 10.9025 4.97872 11.4508 4.97872 12.0008C4.97872 12.5508 4.81108 13.0982 4.4285 13.4934L3.2353 14.7258C3.02602 14.9419 2.95369 15.2586 3.06707 15.5373C3.40901 16.3777 3.87052 17.166 4.43816 17.8783C4.62213 18.1091 4.926 18.2026 5.21297 18.1335L5.68129 20.0779C4.69531 20.3153 3.57762 20.0075 2.87412 19.1248C2.18746 18.2632 1.62871 17.309 1.21454 16.291C0.78037 15.224 1.07972 14.0769 1.79842 13.3346L2.96371 12.131C2.97013 12.1084 2.97872 12.0649 2.97872 12.0008C2.97872 11.9365 2.97007 11.8927 2.96355 11.8698L1.79891 10.6676C1.08003 9.92559 0.780323 8.77867 1.21412 7.71147C1.62836 6.69239 2.18741 5.73752 2.87474 4.87595C3.57846 3.99382 4.69569 3.68668 5.68093 3.92398L7.34777 4.32544C7.37224 4.32065 7.42296 4.30552 7.49144 4.26636C7.56255 4.22569 7.603 4.18786 7.62025 4.16812L8.09177 2.57501C8.38168 1.59552 9.21666 0.779385 10.3404 0.618597C11.4409 0.461148 12.5584 0.461098 13.6584 0.618573C14.7822 0.779448 15.6169 1.59565 15.9068 2.5749L16.3783 4.16812C16.3956 4.18787 16.436 4.2257 16.5072 4.26637C16.5756 4.30552 16.6263 4.32065 16.6508 4.32544Z" fill="black"/>
<path fill-rule="evenodd" clip-rule="evenodd" d="M15.5143 17.9988C15.0283 18.2761 14.6278 18.6999 14.4691 19.2365L13.9891 20.8588C13.9047 21.1441 13.6688 21.3613 13.3743 21.4032C12.4628 21.5329 11.5366 21.5329 10.6244 21.4032C10.3298 21.3613 10.0938 21.144 10.0094 20.8587L9.5295 19.2365C9.37075 18.6999 8.97028 18.2761 8.48426 17.9988C8.0044 17.7249 7.44497 17.5959 6.90784 17.7252L5.21297 18.1335L5.68129 20.0779L7.34813 19.6764C7.37277 19.6812 7.4239 19.6964 7.493 19.7358C7.56302 19.7758 7.60297 19.813 7.62012 19.8325L8.09159 21.4261C8.38172 22.4068 9.21803 23.2232 10.3427 23.3832C11.4417 23.5395 12.5576 23.5396 13.6561 23.3833C14.7808 23.2232 15.6169 22.4066 15.907 21.4262L16.3785 19.8325C16.3956 19.813 16.4356 19.7758 16.5056 19.7358L15.5143 17.9988Z" fill="black"/>
<path d="M18.7856 18.1335L17.0907 17.7252C16.5536 17.5959 15.9942 17.7249 15.5143 17.9988L16.5056 19.7358C16.5747 19.6964 16.6258 19.6812 16.6504 19.6764L18.3173 20.0779L18.7856 18.1335Z" fill="black"/>
<path d="M20.7632 9.27605C20.9725 9.05997 21.045 8.7433 20.9317 8.4646L22.7845 7.71147C23.2183 8.77866 22.9185 9.92559 22.1997 10.6676L20.7632 9.27605Z" fill="black"/>
<path d="M21.035 11.8699L22.1997 10.6676L20.7632 9.27605L19.5703 10.5074C19.1876 10.9025 19.0199 11.4508 19.0199 12.0008C19.0199 12.5508 19.1875 13.0982 19.5701 13.4934L20.0807 14.0208C20.7086 14.6692 20.9401 15.6291 20.5153 16.4255C20.2427 16.9366 19.9233 17.423 19.5604 17.8783C19.3765 18.1091 19.0726 18.2026 18.7856 18.1335L18.3173 20.0779C19.3033 20.3153 20.421 20.0075 21.1245 19.1248C21.5634 18.574 21.95 17.9855 22.2801 17.3666C23.1967 15.6479 22.6165 13.7646 21.5176 12.6296L21.0349 12.131C21.0285 12.1084 21.0199 12.0649 21.0199 12.0008C21.0199 11.9365 21.0285 11.8927 21.035 11.8699Z" fill="black"/>
<path fill-rule="evenodd" clip-rule="evenodd" d="M16.3306 12.0002C16.3306 14.3613 14.3915 16.2752 11.9996 16.2752C9.60775 16.2752 7.66873 14.3613 7.66873 12.0002C7.66873 9.63922 9.60775 7.72523 11.9996 7.72523C14.3915 7.72523 16.3306 9.63922 16.3306 12.0002ZM11.9996 14.2752C13.3116 14.2752 14.3306 13.2323 14.3306 12.0002C14.3306 10.7682 13.3116 9.72523 11.9996 9.72523C10.6877 9.72523 9.66873 10.7682 9.66873 12.0002C9.66873 13.2323 10.6877 14.2752 11.9996 14.2752Z" fill="black"/>
</svg>
