<svg width="24" height="24" viewBox="0 0 24 24" fill="none" xmlns="http://www.w3.org/2000/svg">
<path d="M10.7762 22.9327C11.178 22.9772 11.5864 23 12 23C12.5846 23 13.1585 22.9544 13.7184 22.8665C16.4303 22.4411 18.8134 21.0249 20.4857 19C21.9582 17.217 22.8796 14.962 22.989 12.496C22.9963 12.3315 23 12.1662 23 12C23 11.6691 22.9854 11.3417 22.9568 11.0183C22.7555 8.74218 21.8609 6.66525 20.4857 5C18.4996 2.59516 15.511 1.04887 12.1598 1.00114C12.1067 1.00038 12.0534 1 12 1C11.9462 1 11.8926 1.00039 11.839 1.00115C8.4883 1.04923 5.50015 2.59545 3.51432 5C1.95514 6.88795 1.01386 9.30505 1.00015 11.9416C1.00005 11.9611 1 11.9805 1 12C1 14.6593 1.94364 17.0981 3.51432 19C3.57113 19.0688 3.62875 19.1369 3.68718 19.2042L3.70605 19.2266C5.47053 21.25 7.96363 22.6215 10.7762 22.9327Z" fill="black"/>
</svg>
