<svg width="24" height="24" viewBox="0 0 24 24" fill="none" xmlns="http://www.w3.org/2000/svg">
<path fill-rule="evenodd" clip-rule="evenodd" d="M22.9993 12.125C22.9961 12.4149 22.9816 12.7022 22.9564 12.9863C22.9096 13.5126 22.8258 14.0283 22.7075 14.5307C22.3145 16.1991 21.5416 17.721 20.4854 19C18.9822 20.82 16.9049 22.1484 14.5308 22.7074C14.2411 22.7756 13.9469 22.8324 13.6488 22.8772C13.111 22.9581 12.5604 23 12 23C8.69081 23 5.7226 21.539 3.70605 19.2266L3.6872 19.2042C3.6671 19.1811 3.64709 19.1578 3.62718 19.1345L3.51465 19C3.32141 18.766 3.13765 18.5239 2.96397 18.2742C2.61995 17.7797 2.31529 17.2558 2.05496 16.7067C1.88886 16.3564 1.74088 15.9958 1.6119 15.6263C1.38942 14.9889 1.22382 14.3249 1.12146 13.6402C1.05275 13.1807 1.01249 12.7119 1.00248 12.2357C1.00145 12.1868 1.00074 12.1378 1.00035 12.0886C1.00012 12.0591 1 12.0296 1 12C1 11.9805 1.00005 11.9611 1.00015 11.9416C1.00457 11.0911 1.10551 10.2635 1.29257 9.46909C1.64902 7.95606 2.31814 6.56345 3.22754 5.36328L3.51465 5C5.01776 3.18002 7.09498 1.8517 9.46904 1.29261C10.2789 1.10191 11.1233 1.00068 11.9912 1C11.9942 1 11.9971 1 12 1C12.0534 1 12.1067 1.00038 12.1598 1.00114C12.1852 1.0015 12.2105 1.00194 12.2357 1.00248C12.7119 1.01249 13.1807 1.05277 13.6402 1.12147C14.3249 1.22384 14.9891 1.3893 15.6264 1.61179C15.9959 1.74076 16.3563 1.88895 16.7066 2.05504C17.2557 2.31538 17.7799 2.61977 18.2744 2.96379C18.5722 3.17093 18.859 3.39253 19.1343 3.62734C19.5791 4.00669 19.9934 4.4207 20.3728 4.86546C20.4107 4.90994 20.4481 4.95491 20.4854 5C20.6786 5.23396 20.8623 5.47605 21.036 5.72568C21.38 6.2202 21.6847 6.74412 21.945 7.29322C22.1111 7.64353 22.2591 8.00418 22.3881 8.37365C22.6106 9.011 22.7762 9.67498 22.8785 10.3597C22.9586 10.8948 23 11.4426 23 12C23 12.0417 22.9998 12.0834 22.9993 12.125ZM20.4654 12.7728L12.7728 20.4654C13.4399 20.4054 14.0848 20.2684 14.6985 20.0632L20.0633 14.6984C20.2684 14.085 20.4054 13.4402 20.4654 12.7728ZM20.3518 10.4098L10.4099 20.3518C9.99771 20.2738 9.59604 20.1662 9.2072 20.031L20.0311 9.20716C20.1662 9.59589 20.2739 9.99752 20.3518 10.4098ZM19.2314 7.53023L7.53009 19.2316C7.21976 19.0392 6.92266 18.8274 6.64044 18.5978L18.5976 6.6406C18.8272 6.92285 19.0391 7.21993 19.2314 7.53023ZM17.3595 5.40217L5.40232 17.3593C5.1727 17.0771 4.96088 16.78 4.76853 16.4697L16.4698 4.76838C16.7802 4.9607 17.0773 5.17251 17.3595 5.40217ZM14.7927 3.96895L3.96891 14.7927C3.83375 14.404 3.72607 14.0024 3.64816 13.5901L13.59 3.64823C14.0022 3.72613 14.4039 3.8338 14.7927 3.96895ZM11.227 3.5346L3.53457 11.2271C3.59458 10.5596 3.73161 9.91484 3.93679 9.30143L9.30132 3.93689C9.91503 3.73166 10.5599 3.59464 11.227 3.5346Z" fill="black"/>
</svg>
