<svg width="24" height="24" viewBox="0 0 24 24" fill="none" xmlns="http://www.w3.org/2000/svg">
<path fill-rule="evenodd" clip-rule="evenodd" d="M22.8176 9.99436C22.7118 9.41972 22.5612 8.86073 22.3698 8.32111C22.2093 7.86893 22.02 7.43049 21.8043 7.00771C21.5691 6.54675 21.3025 6.10438 21.0071 5.68384C20.842 5.44891 20.6678 5.22093 20.4854 5C20.384 4.87724 20.28 4.75673 20.1735 4.63853C19.8384 4.26679 19.4786 3.91784 19.0962 3.59469C18.7547 3.30604 18.3952 3.038 18.0199 2.79212C17.5864 2.50813 17.1317 2.25381 16.6586 2.0323C16.2227 1.82821 15.7711 1.65195 15.3063 1.50564C14.8912 1.37498 14.4656 1.26825 14.0308 1.18711C13.9623 1.17432 13.8936 1.16217 13.8247 1.15066C13.2312 1.05157 12.6216 1 12 1C8.5842 1 5.53223 2.55708 3.51465 5L3.22754 5.36328C2.33683 6.53879 1.67679 7.89873 1.31512 9.37577C1.22212 9.75574 1.14874 10.1436 1.09637 10.5379C1.03281 11.0162 1 11.5043 1 12C1 12.5679 1.04305 13.1257 1.12606 13.6704C1.21142 14.2308 1.33906 14.7772 1.50562 15.3064C1.65194 15.7712 1.82836 16.2226 2.03245 16.6584C2.25395 17.1316 2.50802 17.5865 2.79201 18.02C3.01495 18.3603 3.25641 18.6873 3.51465 19L3.59536 19.0955C3.62572 19.1315 3.65565 19.1678 3.68646 19.2034L3.70605 19.2266C5.66045 21.4678 8.50876 22.9091 11.695 22.9959C11.7964 22.9986 11.898 23 12 23C12.6802 23 13.3458 22.9383 13.9918 22.8202C16.5901 22.3449 18.8695 20.9565 20.4854 19C21.6543 17.5846 22.4761 15.8717 22.82 13.9919C22.9382 13.346 23 12.6801 23 12C23 11.898 22.9987 11.7963 22.9959 11.695C22.9801 11.1158 22.9196 10.5478 22.8176 9.99436ZM20.9981 11.8139C20.9994 11.8758 21 11.9378 21 12C21 12.6483 20.9316 13.2803 20.8017 13.8892L13.8893 20.8016C13.2801 20.9316 12.6481 21 12 21C11.9378 21 11.8758 20.9994 11.8139 20.9981L20.9981 11.8139ZM20.7611 9.92978L9.92986 20.761C9.44074 20.646 8.96702 20.491 8.51227 20.2997L20.2997 8.51224C20.4911 8.96689 20.646 9.44057 20.7611 9.92978ZM6.05488 18.7571L18.757 6.05496C18.8203 6.12677 18.8824 6.19961 18.9434 6.27344C19.1671 6.54435 19.3752 6.82845 19.5665 7.12443L7.12433 19.5666C6.74768 19.3233 6.39027 19.0525 6.05488 18.7571ZM5.01505 17.6758L17.6759 5.01494C17.3273 4.73121 16.9572 4.47315 16.5684 4.24359L4.24367 16.5683C4.47327 16.9571 4.73134 17.3272 5.01505 17.6758ZM3.5593 15.1316L15.1315 3.55935C14.6583 3.38376 14.1664 3.24689 13.6595 3.15249L3.15242 13.6596C3.24682 14.1666 3.38371 14.6585 3.5593 15.1316ZM11.6855 3.00538C10.9094 3.03199 10.1584 3.15671 9.44429 3.36769L3.36756 9.44443C3.15667 10.1582 3.03197 10.9091 3.00538 11.6855L11.6855 3.00538Z" fill="black"/>
</svg>
