<svg width="24" height="24" viewBox="0 0 24 24" fill="none" xmlns="http://www.w3.org/2000/svg">
<path fill-rule="evenodd" clip-rule="evenodd" d="M1.5 5.11691C1.50002 4.71461 1.74154 4.35118 2.1123 4.19504L11.6123 0.195036L11.7061 0.160856C11.9292 0.0922523 12.1706 0.103738 12.3877 0.195036L21.8877 4.19504C22.2585 4.35118 22.5 4.71461 22.5 5.11691V9.12472C22.5 11.2343 22.0712 13.3224 21.2402 15.2614C19.9738 18.2162 17.8238 20.7065 15.0859 22.3913L13.2275 23.5359C12.4751 23.9989 11.525 23.9989 10.7725 23.5359L8.91406 22.3913C6.17623 20.7065 4.0262 18.2162 2.75977 15.2614C1.92876 13.3224 1.50003 11.2343 1.5 9.12472L1.5 5.11691ZM11.1289 15.3249C11.1293 15.6005 11.3534 15.8245 11.6289 15.8249H16.8145C17.0903 15.8249 17.314 15.6007 17.3145 15.3249C17.3145 15.0488 17.0906 14.8249 16.8145 14.8249H11.6289C11.3531 14.8253 11.1289 15.049 11.1289 15.3249ZM6.83203 6.82297C6.63698 7.01825 6.63684 7.33481 6.83203 7.53L10.6689 11.3669L6.83203 15.2038C6.63715 15.3991 6.6369 15.7157 6.83203 15.9109C7.02722 16.1054 7.34397 16.1055 7.53906 15.9109L11.7295 11.7204C11.9244 11.5254 11.9241 11.2087 11.7295 11.0134L7.53906 6.82297C7.34385 6.62775 7.02731 6.62785 6.83203 6.82297Z" fill="black"/>
</svg>
