<svg width="24" height="24" viewBox="0 0 24 24" fill="none" xmlns="http://www.w3.org/2000/svg">
<path fill-rule="evenodd" clip-rule="evenodd" d="M11.806 0.655943C11.93 0.603699 12.07 0.603699 12.194 0.655943L21.694 4.65594C21.8794 4.73401 22 4.91559 22 5.11676V9.12453C22 11.1665 21.5852 13.1872 20.7809 15.064C19.5551 17.9241 17.4745 20.3349 14.8244 21.9658L12.965 23.11C12.3732 23.4742 11.6268 23.4742 11.035 23.11L9.17563 21.9658C6.52552 20.3349 4.44489 17.9241 3.21913 15.064C2.41476 13.1872 2 11.1665 2 9.12453V5.11676C2 4.91559 2.12056 4.73401 2.30597 4.65594L11.806 0.655943ZM3 5.44875V9.12453C3 11.0311 3.38725 12.9177 4.13827 14.6701C5.28274 17.3405 7.22538 19.5914 9.69972 21.1141L11.5591 22.2583C11.8295 22.4247 12.1705 22.4247 12.4409 22.2583L14.3003 21.1141C16.7746 19.5914 18.7173 17.3405 19.8617 14.6701C20.6127 12.9177 21 11.0311 21 9.12453V5.44875L12 1.65927L3 5.44875Z" fill="black"/>
</svg>
