<svg width="24" height="24" viewBox="0 0 24 24" fill="none" xmlns="http://www.w3.org/2000/svg">
<path fill-rule="evenodd" clip-rule="evenodd" d="M12.3881 0.195186L21.8881 4.19519C22.2589 4.35132 22.5 4.71448 22.5 5.11682V9.12459C22.5 11.2343 22.0715 13.3219 21.2404 15.261C19.974 18.216 17.8244 20.7067 15.0864 22.3917L13.2271 23.5359C12.4746 23.999 11.5254 23.999 10.7729 23.5359L8.91358 22.3917C6.17559 20.7067 4.02596 18.216 2.75955 15.261C1.92851 13.3219 1.5 11.2343 1.5 9.12459L1.5 5.11682C1.5 4.71448 1.74113 4.35132 2.11194 4.19519L11.6119 0.195186C11.8601 0.0906997 12.1399 0.0906997 12.3881 0.195186ZM8.69775 8.06435C9.1859 7.57618 9.97735 7.57616 10.4655 8.0643L12 9.5987L13.5345 8.0643C14.0226 7.57616 14.8141 7.57618 15.3022 8.06435C15.7904 8.55251 15.7904 9.34397 15.3022 9.83211L13.7678 11.3664L15.3021 12.9007C15.7903 13.3888 15.7903 14.1803 15.3022 14.6684C14.814 15.1566 14.0226 15.1566 13.5344 14.6685L12 13.1341L10.4656 14.6685C9.97743 15.1566 9.18597 15.1566 8.69783 14.6684C8.20968 14.1803 8.2097 13.3888 8.69787 12.9007L10.2322 11.3664L8.6978 9.83211C8.20963 9.34397 8.20961 8.55251 8.69775 8.06435Z" fill="black"/>
</svg>
