<svg width="24" height="24" viewBox="0 0 24 24" fill="none" xmlns="http://www.w3.org/2000/svg">
<path d="M9.05133 8.41802C9.34421 8.12512 9.81909 8.12511 10.112 8.41799L12 10.3059L13.888 8.41799C14.1809 8.12511 14.6558 8.12512 14.9487 8.41802C15.2416 8.71092 15.2416 9.18579 14.9487 9.47868L13.0607 11.3666L14.9486 13.2544C15.2415 13.5472 15.2415 14.0221 14.9486 14.315C14.6557 14.6079 14.1809 14.6079 13.888 14.315L12 12.4272L10.1121 14.315C9.81916 14.6079 9.34428 14.6079 9.0514 14.315C8.75851 14.0221 8.75852 13.5472 9.05142 13.2544L10.9393 11.3666L9.05135 9.47868C8.75845 9.18579 8.75844 8.71092 9.05133 8.41802Z" fill="black"/>
<path fill-rule="evenodd" clip-rule="evenodd" d="M21.791 4.42572L12.291 0.425716C12.1049 0.347353 11.8951 0.347353 11.709 0.425716L2.20896 4.42572C1.93085 4.54282 1.75 4.81519 1.75 5.11694L1.75 9.12471C1.75 11.2005 2.17164 13.2547 2.98934 15.1627C4.23542 18.0702 6.35055 20.521 9.0446 22.1789L10.9039 23.3231C11.5761 23.7367 12.4239 23.7367 13.0961 23.3231L14.9554 22.1789C17.6494 20.521 19.7646 18.0702 21.0107 15.1627C21.8284 13.2547 22.25 11.2005 22.25 9.12471V5.11694C22.25 4.81519 22.0692 4.54282 21.791 4.42572ZM3.25 9.12471V5.61493L12 1.93071L20.75 5.61492V9.12471C20.75 10.9974 20.3696 12.8505 19.6319 14.5718C18.5078 17.1948 16.5997 19.4057 14.1693 20.9014L12.3099 22.0456C12.1199 22.1625 11.8801 22.1625 11.6901 22.0456L9.83075 20.9014C7.40034 19.4057 5.4922 17.1948 4.36806 14.5718C3.63038 12.8505 3.25 10.9974 3.25 9.12471Z" fill="black"/>
</svg>
