<svg width="24" height="24" viewBox="0 0 24 24" fill="none" xmlns="http://www.w3.org/2000/svg">
<path d="M15.7929 7.53032C16.1834 7.1398 16.8166 7.1398 17.2071 7.53032C17.5976 7.92085 17.5976 8.55401 17.2071 8.94454L10.9647 15.187C10.5529 15.5988 9.88516 15.5988 9.47334 15.187L6.7929 12.5065C6.40238 12.116 6.40238 11.4828 6.7929 11.0923C7.18343 10.7018 7.81659 10.7018 8.20712 11.0923L10.219 13.1042L15.7929 7.53032Z" fill="black"/>
<path fill-rule="evenodd" clip-rule="evenodd" d="M21.8881 4.19542L12.3881 0.195419C12.1399 0.0909324 11.8601 0.0909324 11.6119 0.195419L2.11194 4.19542C1.74113 4.35155 1.5 4.71471 1.5 5.11705L1.5 9.12482C1.5 11.2345 1.92851 13.3222 2.75955 15.2613C4.02596 18.2162 6.17559 20.707 8.91358 22.3919L10.7729 23.5361C11.5254 23.9992 12.4746 23.9992 13.2271 23.5361L15.0864 22.3919C17.8244 20.707 19.974 18.2162 21.2404 15.2613C22.0715 13.3222 22.5 11.2345 22.5 9.12482V5.11705C22.5 4.71471 22.2589 4.35155 21.8881 4.19542ZM3.5 9.12482V5.78103L12 2.20208L20.5 5.78103V9.12482C20.5 10.9636 20.1265 12.7833 19.4022 14.4734C18.2983 17.049 16.4247 19.22 14.0382 20.6886L12.1789 21.8328C12.0692 21.9003 11.9308 21.9003 11.8211 21.8328L9.96177 20.6886C7.57531 19.22 5.70166 17.049 4.59784 14.4734C3.8735 12.7833 3.5 10.9636 3.5 9.12482Z" fill="black"/>
</svg>
