<svg width="24" height="24" viewBox="0 0 24 24" fill="none" xmlns="http://www.w3.org/2000/svg">
<path d="M11.1289 15.3252C11.1289 15.0493 11.3531 14.8256 11.6289 14.8252H16.8145C17.0906 14.8252 17.3145 15.0491 17.3145 15.3252C17.314 15.601 17.0903 15.8252 16.8145 15.8252H11.6289C11.3534 15.8248 11.1294 15.6007 11.1289 15.3252Z" fill="black"/>
<path d="M6.83203 7.53028C6.63685 7.3351 6.63701 7.01853 6.83203 6.82325C7.02731 6.62814 7.34385 6.62804 7.53906 6.82325L11.7295 11.0137C11.9241 11.2089 11.9244 11.5256 11.7295 11.7207L7.53906 15.9111C7.34398 16.1058 7.02721 16.1056 6.83203 15.9111C6.6369 15.716 6.63717 15.3994 6.83203 15.2041L10.6689 11.3672L6.83203 7.53028Z" fill="black"/>
<path fill-rule="evenodd" clip-rule="evenodd" d="M2 5.1172C2 4.91613 2.12041 4.73439 2.30566 4.65626L11.8057 0.656261L11.9014 0.626964C11.9989 0.607339 12.1012 0.617062 12.1943 0.656261L21.6943 4.65626C21.8796 4.73439 22 4.91613 22 5.1172V9.12501C22 11.1669 21.5856 13.1877 20.7812 15.0645C19.5555 17.9245 17.4743 20.335 14.8242 21.9658L12.9648 23.1104C12.3731 23.4744 11.6269 23.4744 11.0352 23.1104L9.17578 21.9658C6.52574 20.335 4.44451 17.9245 3.21875 15.0645C2.41445 13.1877 2.00003 11.1669 2 9.12501L2 5.1172ZM3 9.12501C3.00003 11.0315 3.38768 12.9186 4.13867 14.6709C5.28317 17.3411 7.22603 19.5917 9.7002 21.1143L11.5586 22.2588C11.829 22.4252 12.171 22.4252 12.4414 22.2588L14.2998 21.1143C16.774 19.5917 18.7168 17.3411 19.8613 14.6709C20.6123 12.9186 21 11.0315 21 9.12501V5.44923L12 1.65919L3 5.44923L3 9.12501Z" fill="black"/>
</svg>
