<svg width="24" height="24" viewBox="0 0 24 24" fill="none" xmlns="http://www.w3.org/2000/svg">
<path d="M14.2917 7.95028L14.2917 9.69999L9.70833 9.69999V7.95028C9.70833 6.68463 10.7343 5.65861 12 5.65861C13.2656 5.65861 14.2917 6.68463 14.2917 7.95028Z" fill="black"/>
<path d="M12.6249 12.0336C12.6249 11.6884 12.3451 11.4086 11.9999 11.4086C11.6547 11.4086 11.3749 11.6884 11.3749 12.0336V14.9503C11.3749 15.2955 11.6547 15.5753 11.9999 15.5753C12.3451 15.5753 12.6249 15.2955 12.6249 14.9503V12.0336Z" fill="black"/>
<path fill-rule="evenodd" clip-rule="evenodd" d="M12.3881 0.195415L21.8881 4.19541C22.2589 4.35155 22.5 4.71471 22.5 5.11705V9.12482C22.5 11.2345 22.0715 13.3222 21.2404 15.2613C19.974 18.2162 17.8244 20.707 15.0864 22.3919L13.2271 23.5361C12.4746 23.9992 11.5254 23.9992 10.7729 23.5361L8.91358 22.3919C6.17559 20.707 4.02596 18.2162 2.75955 15.2613C1.92851 13.3222 1.5 11.2345 1.5 9.12482L1.5 5.11705C1.5 4.71471 1.74113 4.35155 2.11194 4.19542L11.6119 0.195415C11.8601 0.0909286 12.1399 0.0909285 12.3881 0.195415ZM6.94066 10.6555C6.74992 11.0299 6.74992 11.5199 6.74992 12.5V14.4833C6.74992 15.4634 6.74992 15.9535 6.94066 16.3278C7.10844 16.6571 7.37616 16.9248 7.70544 17.0926C8.07979 17.2833 8.56983 17.2833 9.54992 17.2833L14.4499 17.2833C15.43 17.2833 15.9201 17.2833 16.2944 17.0926C16.6237 16.9248 16.8914 16.6571 17.0592 16.3278C17.2499 15.9535 17.2499 15.4634 17.2499 14.4833V12.5C17.2499 11.5199 17.2499 11.0299 17.0592 10.6555C16.8914 10.3262 16.6237 10.0585 16.2944 9.89073C16.0951 9.78919 15.863 9.7417 15.5417 9.7195V7.95028C15.5417 5.99427 13.956 4.40861 12 4.40861C10.044 4.40861 8.45833 5.99427 8.45833 7.95028V9.71949C8.13689 9.74169 7.90476 9.78917 7.70544 9.89073C7.37616 10.0585 7.10844 10.3262 6.94066 10.6555Z" fill="black"/>
</svg>
