<svg width="24" height="24" viewBox="0 0 24 24" fill="none" xmlns="http://www.w3.org/2000/svg">
<path fill-rule="evenodd" clip-rule="evenodd" d="M21.8881 4.19519L12.3881 0.195186C12.1399 0.0906997 11.8601 0.0906997 11.6119 0.195186L2.11194 4.19519C1.74113 4.35132 1.5 4.71448 1.5 5.11682L1.5 9.12459C1.5 11.2343 1.92851 13.3219 2.75955 15.261C4.02596 18.216 6.17559 20.7067 8.91358 22.3917L10.7729 23.5359C11.5254 23.999 12.4746 23.999 13.2271 23.5359L15.0864 22.3917C17.8244 20.7067 19.974 18.216 21.2404 15.261C22.0715 13.3219 22.5 11.2343 22.5 9.12459V5.11682C22.5 4.71448 22.2589 4.35132 21.8881 4.19519ZM12 4.36658C12.6904 4.36658 13.25 4.92623 13.25 5.61658V11.6166C13.25 12.3069 12.6904 12.8666 12 12.8666C11.3096 12.8666 10.75 12.3069 10.75 11.6166V5.61658C10.75 4.92623 11.3096 4.36658 12 4.36658ZM12 17.8666C12.8284 17.8666 13.5 17.195 13.5 16.3666C13.5 15.5382 12.8284 14.8666 12 14.8666C11.1716 14.8666 10.5 15.5382 10.5 16.3666C10.5 17.195 11.1716 17.8666 12 17.8666Z" fill="black"/>
</svg>
