<svg width="24" height="24" viewBox="0 0 24 24" fill="none" xmlns="http://www.w3.org/2000/svg">
<path d="M9.05133 8.41813C9.34421 8.12523 9.81909 8.12522 10.112 8.4181L12 10.306L13.888 8.4181C14.1809 8.12521 14.6558 8.12523 14.9487 8.41813C15.2416 8.71103 15.2416 9.1859 14.9487 9.47879L13.0607 11.3667L14.9486 13.2545C15.2415 13.5473 15.2415 14.0222 14.9486 14.3151C14.6557 14.608 14.1809 14.608 13.888 14.3152L12 12.4273L10.1121 14.3152C9.81916 14.608 9.34428 14.608 9.0514 14.3151C8.75851 14.0222 8.75852 13.5473 9.05142 13.2545L10.9393 11.3667L9.05135 9.47879C8.75845 9.1859 8.75844 8.71103 9.05133 8.41813Z" fill="black"/>
<path fill-rule="evenodd" clip-rule="evenodd" d="M21.791 4.42582L12.291 0.425823C12.1049 0.347459 11.8951 0.347459 11.709 0.425823L2.20896 4.42582C1.93085 4.54292 1.75 4.81529 1.75 5.11705L1.75 9.12482C1.75 11.2006 2.17164 13.2548 2.98934 15.1628C4.23542 18.0703 6.35055 20.5211 9.0446 22.179L10.9039 23.3232C11.5761 23.7368 12.4239 23.7368 13.0961 23.3232L14.9554 22.179C17.6494 20.5211 19.7646 18.0703 21.0107 15.1628C21.8284 13.2548 22.25 11.2006 22.25 9.12482V5.11705C22.25 4.81529 22.0692 4.54292 21.791 4.42582ZM3.25 9.12482V5.61503L12 1.93082L20.75 5.61503V9.12482C20.75 10.9975 20.3696 12.8506 19.6319 14.5719C18.5078 17.1949 16.5997 19.4059 14.1693 20.9015L12.3099 22.0457C12.1199 22.1627 11.8801 22.1627 11.6901 22.0457L9.83075 20.9015C7.40034 19.4059 5.4922 17.1949 4.36806 14.5719C3.63038 12.8506 3.25 10.9975 3.25 9.12482Z" fill="black"/>
</svg>
