<svg width="24" height="24" viewBox="0 0 24 24" fill="none" xmlns="http://www.w3.org/2000/svg">
<path fill-rule="evenodd" clip-rule="evenodd" d="M11.709 0.425473C11.8951 0.347108 12.1049 0.347108 12.291 0.425473L21.791 4.42547C22.0692 4.54257 22.25 4.81494 22.25 5.1167V9.12447C22.25 11.2003 21.8284 13.2545 21.0107 15.1624C19.7646 18.07 17.6494 20.5208 14.9554 22.1786L13.0961 23.3228C12.4239 23.7365 11.5761 23.7365 10.9039 23.3228L9.0446 22.1786C6.35055 20.5208 4.23542 18.07 2.98934 15.1624C2.17164 13.2545 1.75 11.2003 1.75 9.12447L1.75 5.1167C1.75 4.81494 1.93085 4.54257 2.20896 4.42547L11.709 0.425473ZM3.25 5.61468V9.12447C3.25 10.9971 3.63038 12.8503 4.36806 14.5716C5.4922 17.1946 7.40034 19.4055 9.83075 20.9011L11.6901 22.0453C11.8801 22.1623 12.1199 22.1623 12.3099 22.0453L14.1693 20.9011C16.5997 19.4055 18.5078 17.1946 19.6319 14.5716C20.3696 12.8503 20.75 10.9971 20.75 9.12447V5.61468L12 1.93047L3.25 5.61468Z" fill="black"/>
</svg>
