<svg width="24" height="24" viewBox="0 0 24 24" fill="none" xmlns="http://www.w3.org/2000/svg">
<path d="M14.6667 7.95028L14.6667 9.70008H9.33333V7.95028C9.33333 6.47752 10.5272 5.28361 12 5.28361C13.4728 5.28361 14.6667 6.47752 14.6667 7.95028Z" fill="black"/>
<path d="M12.2499 12.0336C12.2499 11.8955 12.138 11.7836 11.9999 11.7836C11.8619 11.7836 11.7499 11.8955 11.7499 12.0336V14.9503C11.7499 15.0883 11.8619 15.2003 11.9999 15.2003C12.138 15.2003 12.2499 15.0883 12.2499 14.9503V12.0336Z" fill="black"/>
<path fill-rule="evenodd" clip-rule="evenodd" d="M12.3881 0.195415L21.8881 4.19541C22.2589 4.35155 22.5 4.71471 22.5 5.11705V9.12482C22.5 11.2345 22.0715 13.3222 21.2404 15.2613C19.974 18.2162 17.8244 20.707 15.0864 22.3919L13.2271 23.5361C12.4746 23.9992 11.5254 23.9992 10.7729 23.5361L8.91358 22.3919C6.17559 20.707 4.02596 18.2162 2.75955 15.2613C1.92851 13.3222 1.5 11.2345 1.5 9.12482L1.5 5.11705C1.5 4.71471 1.74113 4.35155 2.11194 4.19542L11.6119 0.195415C11.8601 0.0909286 12.1399 0.0909285 12.3881 0.195415ZM6.94066 10.6555C6.74992 11.0299 6.74992 11.5199 6.74992 12.5V14.4833C6.74992 15.4634 6.74992 15.9535 6.94066 16.3278C7.10844 16.6571 7.37616 16.9248 7.70544 17.0926C8.07979 17.2833 8.56983 17.2833 9.54992 17.2833L14.4499 17.2833C15.43 17.2833 15.9201 17.2833 16.2944 17.0926C16.6237 16.9248 16.8914 16.6571 17.0592 16.3278C17.2499 15.9535 17.2499 15.4634 17.2499 14.4833V12.5C17.2499 11.5199 17.2499 11.0299 17.0592 10.6555C16.8914 10.3262 16.6237 10.0585 16.2944 9.89073C16.025 9.75344 15.6956 9.71497 15.1667 9.70419V7.95028C15.1667 6.20138 13.7489 4.78361 12 4.78361C10.2511 4.78361 8.83333 6.20138 8.83333 7.95028V9.70419C8.30433 9.71496 7.97491 9.75343 7.70544 9.89073C7.37616 10.0585 7.10844 10.3262 6.94066 10.6555Z" fill="black"/>
</svg>
