<svg width="24" height="24" viewBox="0 0 24 24" fill="none" xmlns="http://www.w3.org/2000/svg">
<path fill-rule="evenodd" clip-rule="evenodd" d="M21.8881 4.19506L12.3881 0.195064C12.1399 0.0905776 11.8601 0.0905776 11.6119 0.195064L2.11194 4.19506C1.74113 4.3512 1.5 4.71436 1.5 5.1167L1.5 9.12447C1.5 11.2341 1.92851 13.3218 2.75955 15.2609C4.02596 18.2159 6.17559 20.7066 8.91358 22.3915L10.7729 23.5357C11.5254 23.9988 12.4746 23.9988 13.2271 23.5357L15.0864 22.3915C17.8244 20.7066 19.974 18.2159 21.2404 15.2609C22.0715 13.3218 22.5 11.2341 22.5 9.12447V5.1167C22.5 4.71436 22.2589 4.3512 21.8881 4.19506ZM12 5.8667C12.4142 5.8667 12.75 6.20248 12.75 6.6167V12.6167C12.75 13.0309 12.4142 13.3667 12 13.3667C11.5858 13.3667 11.25 13.0309 11.25 12.6167V6.6167C11.25 6.20248 11.5858 5.8667 12 5.8667ZM12 16.8667C12.4142 16.8667 12.75 16.5309 12.75 16.1167C12.75 15.7025 12.4142 15.3667 12 15.3667C11.5858 15.3667 11.25 15.7025 11.25 16.1167C11.25 16.5309 11.5858 16.8667 12 16.8667Z" fill="black"/>
</svg>
