<svg width="24" height="24" viewBox="0 0 24 24" fill="none" xmlns="http://www.w3.org/2000/svg">
<path fill-rule="evenodd" clip-rule="evenodd" d="M12.3881 0.195064L21.8881 4.19506C22.2589 4.3512 22.5 4.71436 22.5 5.1167V9.12447C22.5 11.2341 22.0715 13.3218 21.2404 15.2609C19.974 18.2159 17.8244 20.7066 15.0864 22.3915L13.2271 23.5357C12.4746 23.9988 11.5254 23.9988 10.7729 23.5357L8.91358 22.3915C6.17559 20.7066 4.02596 18.2159 2.75955 15.2609C1.92851 13.3218 1.5 11.2341 1.5 9.12447L1.5 5.1167C1.5 4.71436 1.74113 4.3512 2.11194 4.19506L11.6119 0.195064C11.8601 0.0905776 12.1399 0.0905776 12.3881 0.195064ZM9.05132 8.41777C9.3442 8.12487 9.81908 8.12486 10.112 8.41774L12 10.3057L13.888 8.41774C14.1809 8.12486 14.6558 8.12487 14.9487 8.41777C15.2416 8.71067 15.2416 9.18554 14.9487 9.47843L13.0607 11.3663L14.9486 13.2541C15.2415 13.547 15.2415 14.0219 14.9486 14.3148C14.6557 14.6077 14.1809 14.6077 13.888 14.3148L12 12.4269L10.112 14.3148C9.81915 14.6077 9.34428 14.6077 9.05139 14.3148C8.7585 14.0219 8.75852 13.547 9.05142 13.2541L10.9393 11.3663L9.05134 9.47843C8.75844 9.18554 8.75843 8.71067 9.05132 8.41777Z" fill="black"/>
</svg>
