<svg width="24" height="24" viewBox="0 0 24 24" fill="none" xmlns="http://www.w3.org/2000/svg">
<path fill-rule="evenodd" clip-rule="evenodd" d="M12.3881 0.195064L21.8881 4.19506C22.2589 4.3512 22.5 4.71436 22.5 5.1167V9.12447C22.5 11.2341 22.0715 13.3218 21.2404 15.2609C19.974 18.2159 17.8244 20.7066 15.0864 22.3915L13.2271 23.5357C12.4746 23.9988 11.5254 23.9988 10.7729 23.5357L8.91358 22.3915C6.17559 20.7066 4.02596 18.2159 2.75955 15.2609C1.92851 13.3218 1.5 11.2341 1.5 9.12447L1.5 5.1167C1.5 4.71436 1.74113 4.3512 2.11194 4.19506L11.6119 0.195064C11.8601 0.0905776 12.1399 0.0905776 12.3881 0.195064ZM16.3232 8.06029C16.4209 7.96266 16.5791 7.96266 16.6768 8.06029C16.7744 8.15792 16.7744 8.31621 16.6768 8.41384L10.4344 14.6563C10.3154 14.7752 10.1226 14.7752 10.0037 14.6563L7.32323 11.9758C7.22559 11.8782 7.22559 11.7199 7.32323 11.6223C7.42086 11.5246 7.57915 11.5246 7.67678 11.6223L10.219 14.1645L16.3232 8.06029Z" fill="black"/>
</svg>
