<svg width="24" height="24" viewBox="0 0 24 24" fill="none" xmlns="http://www.w3.org/2000/svg">
<path d="M9.22811 8.5949C9.42336 8.39963 9.73995 8.39962 9.93521 8.59488L12 10.6596L14.0648 8.59488C14.2601 8.39962 14.5767 8.39963 14.7719 8.5949C14.9672 8.79017 14.9672 9.10675 14.7719 9.30201L12.7071 11.3667L14.7718 13.4312C14.9671 13.6265 14.9671 13.9431 14.7718 14.1384C14.5766 14.3336 14.26 14.3336 14.0647 14.1384L12 12.0738L9.93529 14.1384C9.74002 14.3336 9.42344 14.3336 9.22818 14.1384C9.03292 13.9431 9.03293 13.6265 9.2282 13.4312L11.2929 11.3667L9.22812 9.30201C9.03286 9.10675 9.03285 8.79017 9.22811 8.5949Z" fill="black"/>
<path fill-rule="evenodd" clip-rule="evenodd" d="M21.694 4.65623L12.194 0.656232C12.07 0.60399 11.93 0.60399 11.806 0.656232L2.30597 4.65623C2.12056 4.7343 2 4.91588 2 5.11705L2 9.12482C2 11.1668 2.41476 13.1875 3.21913 15.0643C4.44489 17.9244 6.52552 20.3352 9.17563 21.9661L11.035 23.1103C11.6268 23.4745 12.3732 23.4745 12.965 23.1103L14.8244 21.9661C17.4745 20.3352 19.5551 17.9244 20.7809 15.0643C21.5852 13.1875 22 11.1668 22 9.12482V5.11705C22 4.91588 21.8794 4.7343 21.694 4.65623ZM3 9.12482V5.44904L12 1.65956L21 5.44904V9.12482C21 11.0313 20.6127 12.918 19.8617 14.6704C18.7173 17.3408 16.7746 19.5917 14.3003 21.1144L12.4409 22.2586C12.1705 22.425 11.8295 22.425 11.5591 22.2586L9.69972 21.1144C7.22538 19.5917 5.28274 17.3408 4.13827 14.6704C3.38725 12.918 3 11.0313 3 9.12482Z" fill="black"/>
</svg>
