<svg width="24" height="24" viewBox="0 0 24 24" fill="none" xmlns="http://www.w3.org/2000/svg">
<path fill-rule="evenodd" clip-rule="evenodd" d="M12.3881 0.195064L21.8881 4.19506C22.2589 4.3512 22.5 4.71436 22.5 5.1167V9.12447C22.5 11.2341 22.0715 13.3218 21.2404 15.2609C19.974 18.2159 17.8244 20.7066 15.0864 22.3915L13.2271 23.5357C12.4746 23.9988 11.5254 23.9988 10.7729 23.5357L8.91358 22.3915C6.17559 20.7066 4.02596 18.2159 2.75955 15.2609C1.92851 13.3218 1.5 11.2341 1.5 9.12447L1.5 5.1167C1.5 4.71436 1.74113 4.3512 2.11194 4.19506L11.6119 0.195064C11.8601 0.0905776 12.1399 0.0905776 12.3881 0.195064ZM15.7929 7.52996C16.1834 7.13944 16.8166 7.13944 17.2071 7.52996C17.5976 7.92049 17.5976 8.55365 17.2071 8.94417L10.9647 15.1866C10.5529 15.5984 9.88516 15.5984 9.47333 15.1866L6.79289 12.5062C6.40237 12.1156 6.40237 11.4825 6.79289 11.0919C7.18342 10.7014 7.81658 10.7014 8.20711 11.0919L10.219 13.1038L15.7929 7.52996Z" fill="black"/>
</svg>
