<svg width="24" height="25" viewBox="0 0 24 25" fill="none" xmlns="http://www.w3.org/2000/svg">
<path fill-rule="evenodd" clip-rule="evenodd" d="M11.5149 0.0979558C11.8251 -0.0326519 12.1749 -0.0326519 12.4851 0.0979558L21.9851 4.09796C22.4486 4.29312 22.75 4.74707 22.75 5.25V9.25777C22.75 11.4013 22.3146 13.5225 21.4702 15.4927C20.1835 18.4951 17.9994 21.0258 15.2174 22.7378L13.3581 23.882C12.5252 24.3945 11.4748 24.3945 10.6419 23.882L8.78255 22.7378C6.00062 21.0258 3.8165 18.4951 2.52977 15.4927C1.68539 13.5225 1.25 11.4013 1.25 9.25777L1.25 5.25C1.25 4.74707 1.55141 4.29312 2.01493 4.09796L11.5149 0.0979558ZM3.75 6.07997V9.25777C3.75 11.0627 4.11662 12.8489 4.82763 14.5079C5.91112 17.036 7.75027 19.1671 10.0928 20.6086L11.9521 21.7528C11.9815 21.7709 12.0185 21.7709 12.0479 21.7528L13.9072 20.6086C16.2497 19.1671 18.0889 17.036 19.1724 14.5079C19.8834 12.8489 20.25 11.0627 20.25 9.25777V6.07997L12 2.60628L3.75 6.07997Z" fill="black"/>
</svg>
