<svg width="24" height="24" viewBox="0 0 24 24" fill="none" xmlns="http://www.w3.org/2000/svg">
<path fill-rule="evenodd" clip-rule="evenodd" d="M21.8881 4.19506L12.3881 0.195064C12.1399 0.0905776 11.8601 0.0905776 11.6119 0.195064L2.11194 4.19506C1.74113 4.3512 1.5 4.71436 1.5 5.1167L1.5 9.12447C1.5 11.2341 1.92851 13.3218 2.75955 15.2609C4.02596 18.2159 6.17559 20.7066 8.91358 22.3915L10.7729 23.5357C11.5254 23.9988 12.4746 23.9988 13.2271 23.5357L15.0864 22.3915C17.8244 20.7066 19.974 18.2159 21.2404 15.2609C22.0715 13.3218 22.5 11.2341 22.5 9.12447V5.1167C22.5 4.71436 22.2589 4.3512 21.8881 4.19506ZM12 4.36646C12.6904 4.36646 13.25 4.92611 13.25 5.61646V11.6165C13.25 12.3068 12.6904 12.8665 12 12.8665C11.3096 12.8665 10.75 12.3068 10.75 11.6165V5.61646C10.75 4.92611 11.3096 4.36646 12 4.36646ZM12 17.8665C12.8284 17.8665 13.5 17.1949 13.5 16.3665C13.5 15.538 12.8284 14.8665 12 14.8665C11.1716 14.8665 10.5 15.538 10.5 16.3665C10.5 17.1949 11.1716 17.8665 12 17.8665Z" fill="black"/>
</svg>
