<svg width="24" height="26" viewBox="0 0 24 26" fill="none" xmlns="http://www.w3.org/2000/svg">
<path d="M15.6161 8.35344C16.1043 7.86528 16.8957 7.86528 17.3839 8.35344C17.872 8.84159 17.872 9.63305 17.3839 10.1212L11.1415 16.3636C10.632 16.8731 9.80602 16.8731 9.29656 16.3636L6.61613 13.6832C6.12797 13.195 6.12797 12.4036 6.61613 11.9154C7.10428 11.4273 7.89574 11.4273 8.38389 11.9154L10.219 13.7505L15.6161 8.35344Z" fill="black"/>
<path fill-rule="evenodd" clip-rule="evenodd" d="M21.9851 4.9649L12.4851 0.964899C12.1749 0.834291 11.8251 0.834291 11.5149 0.964899L2.01493 4.9649C1.55141 5.16007 1.25 5.61401 1.25 6.11694L1.25 10.1247C1.25 12.2682 1.68539 14.3894 2.52977 16.3596C3.8165 19.362 6.00062 21.8927 8.78255 23.6047L10.6419 24.7489C11.4748 25.2614 12.5252 25.2614 13.3581 24.7489L15.2174 23.6047C17.9994 21.8927 20.1835 19.362 21.4702 16.3596C22.3146 14.3894 22.75 12.2682 22.75 10.1247V6.11694C22.75 5.61402 22.4486 5.16006 21.9851 4.9649ZM3.75 10.1247V6.94691L12 3.47323L20.25 6.94691V10.1247C20.25 11.9297 19.8834 13.7158 19.1724 15.3748C18.0889 17.903 16.2497 20.034 13.9072 21.4756L12.0479 22.6198C12.0185 22.6378 11.9815 22.6378 11.9521 22.6198L10.0928 21.4756C7.75027 20.034 5.91112 17.903 4.82763 15.3748C4.11662 13.7158 3.75 11.9297 3.75 10.1247Z" fill="black"/>
</svg>
