<svg width="24" height="25" viewBox="0 0 24 25" fill="none" xmlns="http://www.w3.org/2000/svg">
<path d="M12.6249 11.7575C12.6249 11.4123 12.3451 11.1325 11.9999 11.1325C11.6548 11.1325 11.3749 11.4123 11.3749 11.7575V14.2575C11.3749 14.6027 11.6548 14.8825 11.9999 14.8825C12.3451 14.8825 12.6249 14.6027 12.6249 14.2575V11.7575Z" fill="black"/>
<path fill-rule="evenodd" clip-rule="evenodd" d="M8.86386 9.40515L8.87488 9.40427V8.00764C8.87488 6.28175 10.274 4.88264 11.9999 4.88264C13.7258 4.88264 15.1249 6.28175 15.1249 8.00764V9.40426L15.136 9.40516C15.4248 9.42875 15.7015 9.48013 15.9647 9.61425C16.3645 9.81798 16.6896 10.1431 16.8933 10.5429C17.0275 10.8061 17.0788 11.0828 17.1024 11.3716C17.125 11.6473 17.125 11.9839 17.1249 12.3827V13.6326C17.125 14.0314 17.125 14.368 17.1024 14.6437C17.0788 14.9325 17.0275 15.2091 16.8933 15.4724C16.6896 15.8722 16.3645 16.1973 15.9647 16.401C15.7015 16.5352 15.4248 16.5865 15.136 16.6101C14.8603 16.6327 14.5237 16.6327 14.1249 16.6326H9.87503C9.47624 16.6327 9.13961 16.6327 8.86386 16.6101C8.57508 16.5865 8.29845 16.5352 8.03522 16.401C7.63538 16.1973 7.31029 15.8722 7.10656 15.4724C6.97244 15.2091 6.92106 14.9325 6.89746 14.6437C6.87493 14.368 6.87494 14.0314 6.87495 13.6326V12.3827C6.87494 11.9839 6.87493 11.6473 6.89746 11.3716C6.92106 11.0828 6.97244 10.8061 7.10656 10.5429C7.31029 10.1431 7.63538 9.81798 8.03522 9.61425C8.29845 9.48013 8.57508 9.42875 8.86386 9.40515ZM13.8749 8.00764V9.38264H10.1249V8.00764C10.1249 6.97211 10.9643 6.13264 11.9999 6.13264C13.0354 6.13264 13.8749 6.97211 13.8749 8.00764ZM8.60271 10.728C8.66035 10.6986 8.75417 10.6683 8.96565 10.651C9.18442 10.6331 9.4696 10.6326 9.89995 10.6326H14.0999C14.5303 10.6326 14.8155 10.6331 15.0343 10.651C15.2457 10.6683 15.3395 10.6986 15.3972 10.728C15.5618 10.8119 15.6957 10.9458 15.7796 11.1104C15.8089 11.168 15.8393 11.2619 15.8566 11.4733C15.8745 11.6921 15.8749 11.9773 15.8749 12.4076V13.6076C15.8749 14.038 15.8745 14.3232 15.8566 14.5419C15.8393 14.7534 15.8089 14.8472 15.7796 14.9049C15.6957 15.0695 15.5618 15.2034 15.3972 15.2873C15.3396 15.3166 15.2457 15.347 15.0343 15.3643C14.8155 15.3822 14.5303 15.3826 14.0999 15.3826H9.89995C9.4696 15.3826 9.18442 15.3822 8.96565 15.3643C8.75417 15.347 8.66035 15.3166 8.60271 15.2873C8.43807 15.2034 8.30421 15.0695 8.22032 14.9049C8.19095 14.8472 8.16059 14.7534 8.14331 14.5419C8.12544 14.3232 8.12495 14.038 8.12495 13.6076V12.4076C8.12495 11.9773 8.12544 11.6921 8.14331 11.4733C8.16059 11.2619 8.19095 11.168 8.22032 11.1104C8.30421 10.9458 8.43807 10.8119 8.60271 10.728Z" fill="black"/>
<path fill-rule="evenodd" clip-rule="evenodd" d="M21.7425 4.04898L12.2425 0.0489778C12.0874 -0.016326 11.9126 -0.0163259 11.7575 0.0489779L2.25746 4.04898C2.02571 4.14656 1.875 4.37353 1.875 4.625L1.875 8.63277C1.875 10.6917 2.2932 12.7291 3.10423 14.6215C4.34015 17.5053 6.43804 19.9361 9.11011 21.5805L10.9694 22.7247C11.6014 23.1136 12.3986 23.1136 13.0306 22.7247L14.8899 21.5805C17.562 19.9361 19.6598 17.5053 20.8958 14.6215C21.7068 12.7291 22.125 10.6917 22.125 8.63277V4.625C22.125 4.37354 21.9743 4.14656 21.7425 4.04898ZM3.125 8.63277V5.03999L12 1.30314L20.875 5.03998V8.63277C20.875 10.5224 20.4912 12.3923 19.7468 14.1291C18.6125 16.7758 16.6871 19.0067 14.2348 20.5159L12.3754 21.6601C12.1452 21.8018 11.8548 21.8018 11.6246 21.6601L9.76523 20.5159C7.31286 19.0067 5.38747 16.7758 4.25316 14.1291C3.50881 12.3923 3.125 10.5224 3.125 8.63277Z" fill="black"/>
</svg>
