<svg width="24" height="24" viewBox="0 0 24 24" fill="none" xmlns="http://www.w3.org/2000/svg">
<path fill-rule="evenodd" clip-rule="evenodd" d="M1.5 5.11691C1.50002 4.71461 1.74154 4.35118 2.1123 4.19504L11.6123 0.195036L11.7061 0.160856C11.9292 0.0922523 12.1706 0.103738 12.3877 0.195036L21.8877 4.19504C22.2585 4.35118 22.5 4.71461 22.5 5.11691V9.12472C22.5 11.2343 22.0712 13.3224 21.2402 15.2614C19.9738 18.2162 17.8238 20.7065 15.0859 22.3913L13.2275 23.5359C12.4751 23.9989 11.525 23.9989 10.7725 23.5359L8.91406 22.3913C6.17623 20.7065 4.0262 18.2162 2.75977 15.2614C1.92876 13.3224 1.50003 11.2343 1.5 9.12472L1.5 5.11691ZM10.8789 15.3249C10.8793 15.7385 11.2153 16.0745 11.6289 16.0749H16.8145C17.2284 16.0749 17.564 15.7388 17.5645 15.3249C17.5645 14.9107 17.2287 14.5749 16.8145 14.5749H11.6289C11.215 14.5753 10.8789 14.9109 10.8789 15.3249ZM6.65527 6.64621C6.36259 6.93912 6.36245 7.41393 6.65527 7.70676L10.3154 11.3669L6.65527 15.0271C6.36275 15.32 6.3625 15.7948 6.65527 16.0876C6.94809 16.3798 7.42311 16.3799 7.71582 16.0876L11.9062 11.8972C12.1988 11.6045 12.1985 11.1295 11.9062 10.8366L7.71582 6.64621C7.42297 6.35336 6.94818 6.35345 6.65527 6.64621Z" fill="black"/>
</svg>
