<svg width="24" height="24" viewBox="0 0 24 24" fill="none" xmlns="http://www.w3.org/2000/svg">
<path fill-rule="evenodd" clip-rule="evenodd" d="M21.8881 4.19506L12.3881 0.195064C12.1399 0.0905776 11.8601 0.0905776 11.6119 0.195064L2.11194 4.19506C1.74113 4.3512 1.5 4.71436 1.5 5.1167L1.5 9.12447C1.5 11.2341 1.92851 13.3218 2.75955 15.2609C4.02596 18.2159 6.17559 20.7066 8.91358 22.3915L10.7729 23.5357C11.5254 23.9988 12.4746 23.9988 13.2271 23.5357L15.0864 22.3915C17.8244 20.7066 19.974 18.2159 21.2404 15.2609C22.0715 13.3218 22.5 11.2341 22.5 9.12447V5.1167C22.5 4.71436 22.2589 4.3512 21.8881 4.19506ZM12 21.8831C12.062 21.8831 12.124 21.8662 12.1789 21.8324L14.0382 20.6882C16.4247 19.2196 18.2983 17.0486 19.4022 14.4731C20.1265 12.7829 20.5 10.9633 20.5 9.12447V5.78067L12 2.20173L12 21.8831Z" fill="black"/>
</svg>
