<svg width="24" height="24" viewBox="0 0 24 24" fill="none" xmlns="http://www.w3.org/2000/svg">
<path d="M12 6.86695C12.2761 6.86695 12.5 7.09081 12.5 7.36695V13.367C12.5 13.6431 12.2761 13.867 12 13.867C11.7239 13.867 11.5 13.6431 11.5 13.367V7.36695C11.5 7.09081 11.7239 6.86695 12 6.86695Z" fill="black"/>
<path d="M12 17.367C12.4142 17.367 12.75 17.0312 12.75 16.617C12.75 16.2027 12.4142 15.867 12 15.867C11.5858 15.867 11.25 16.2027 11.25 16.617C11.25 17.0312 11.5858 17.367 12 17.367Z" fill="black"/>
<path fill-rule="evenodd" clip-rule="evenodd" d="M12.194 0.656369L21.694 4.65637C21.8794 4.73443 22 4.91602 22 5.11719V9.12496C22 11.1669 21.5852 13.1876 20.7809 15.0644C19.5551 17.9245 17.4745 20.3354 14.8244 21.9662L12.965 23.1104C12.3732 23.4746 11.6268 23.4746 11.035 23.1104L9.17563 21.9662C6.52552 20.3354 4.44489 17.9245 3.21913 15.0644C2.41476 13.1876 2 11.1669 2 9.12495L2 5.11719C2 4.91602 2.12056 4.73444 2.30597 4.65637L11.806 0.656369C11.93 0.604127 12.07 0.604127 12.194 0.656369ZM3 5.44917V9.12495C3 11.0315 3.38725 12.9181 4.13827 14.6705C5.28274 17.3409 7.22538 19.5919 9.69972 21.1145L11.5591 22.2587C11.8295 22.4252 12.1705 22.4252 12.4409 22.2587L14.3003 21.1145C16.7746 19.5919 18.7173 17.3409 19.8617 14.6705C20.6127 12.9181 21 11.0315 21 9.12496V5.44918L12 1.6597L3 5.44917Z" fill="black"/>
</svg>
