<svg width="24" height="24" viewBox="0 0 24 24" fill="none" xmlns="http://www.w3.org/2000/svg">
<path fill-rule="evenodd" clip-rule="evenodd" d="M21.791 4.42547L12.291 0.425472C12.1049 0.347108 11.8951 0.347108 11.709 0.425472L2.20896 4.42547C1.93085 4.54257 1.75 4.81494 1.75 5.1167L1.75 9.12447C1.75 11.2003 2.17164 13.2545 2.98934 15.1624C4.23542 18.07 6.35055 20.5208 9.0446 22.1786L10.9039 23.3228C11.5761 23.7365 12.4239 23.7365 13.0961 23.3228L14.9554 22.1786C17.6494 20.5208 19.7646 18.07 21.0107 15.1624C21.8284 13.2545 22.25 11.2003 22.25 9.12447V5.1167C22.25 4.81494 22.0692 4.54257 21.791 4.42547ZM12 22.1331C12.1074 22.1331 12.2149 22.1038 12.3099 22.0453L14.1693 20.9011C16.5997 19.4055 18.5078 17.1946 19.6319 14.5716C20.3696 12.8503 20.75 10.9971 20.75 9.12447V5.61468L12 1.93047L12 22.1331Z" fill="black"/>
</svg>
