<svg width="24" height="24" viewBox="0 0 24 24" fill="none" xmlns="http://www.w3.org/2000/svg">
<path d="M12.4999 12.2496C12.4999 11.9734 12.2761 11.7496 11.9999 11.7496C11.7238 11.7496 11.4999 11.9734 11.4999 12.2496V14.7496C11.4999 15.0257 11.7238 15.2496 11.9999 15.2496C12.2761 15.2496 12.4999 15.0257 12.4999 14.7496V12.2496Z" fill="black"/>
<path fill-rule="evenodd" clip-rule="evenodd" d="M8.87404 10.0218C8.91459 10.0185 8.95653 10.0157 8.99988 10.0133V8.49969C8.99988 6.84284 10.343 5.49969 11.9999 5.49969C13.6567 5.49969 14.9999 6.84284 14.9999 8.49969V10.0133C15.0433 10.0157 15.0853 10.0185 15.1259 10.0218C15.4069 10.0448 15.6653 10.094 15.9079 10.2177C16.2843 10.4094 16.5902 10.7154 16.782 11.0917C16.9056 11.3344 16.9549 11.5927 16.9779 11.8738C17 12.1444 17 12.4766 16.9999 12.879L16.9999 14.1204C17 14.5228 17 14.855 16.9779 15.1256C16.9549 15.4067 16.9056 15.665 16.782 15.9077C16.5902 16.284 16.2843 16.59 15.9079 16.7817C15.6653 16.9054 15.4069 16.9546 15.1259 16.9776C14.8553 16.9997 14.5231 16.9997 14.1206 16.9997H9.87931C9.47682 16.9997 9.14463 16.9997 8.87404 16.9776C8.59299 16.9546 8.33464 16.9054 8.09197 16.7817C7.71564 16.59 7.40968 16.284 7.21794 15.9077C7.09429 15.665 7.04501 15.4067 7.02205 15.1256C6.99994 14.855 6.99994 14.5228 6.99995 14.1203V12.879C6.99994 12.4766 6.99994 12.1444 7.02205 11.8738C7.04501 11.5927 7.09429 11.3344 7.21794 11.0917C7.40968 10.7154 7.71564 10.4094 8.09197 10.2177C8.33464 10.094 8.59299 10.0448 8.87404 10.0218ZM13.9999 8.49969V9.99969L9.99988 9.99969V8.49969C9.99988 7.39512 10.8953 6.49969 11.9999 6.49969C13.1044 6.49969 13.9999 7.39512 13.9999 8.49969ZM8.54596 11.1087C8.62416 11.0688 8.73626 11.0364 8.95547 11.0185C9.18051 11.0001 9.47166 10.9997 9.89995 10.9997L14.0999 10.9997C14.5282 10.9997 14.8194 11.0001 15.0444 11.0185C15.2636 11.0364 15.3757 11.0688 15.4539 11.1087C15.6421 11.2046 15.7951 11.3575 15.891 11.5457C15.9308 11.6239 15.9633 11.736 15.9812 11.9552C15.9996 12.1803 15.9999 12.4714 15.9999 12.8997L15.9999 14.0997C15.9999 14.528 15.9996 14.8191 15.9812 15.0442C15.9633 15.2634 15.9308 15.3755 15.891 15.4537C15.7951 15.6418 15.6421 15.7948 15.4539 15.8907C15.3757 15.9305 15.2636 15.963 15.0444 15.9809C14.8194 15.9993 14.5282 15.9997 14.0999 15.9997H9.89995C9.47166 15.9997 9.18051 15.9993 8.95547 15.9809C8.73626 15.963 8.62416 15.9305 8.54596 15.8907C8.3578 15.7948 8.20482 15.6418 8.10894 15.4537C8.0691 15.3755 8.03663 15.2634 8.01872 15.0442C8.00034 14.8191 7.99995 14.528 7.99995 14.0997V12.8997C7.99995 12.4714 8.00034 12.1803 8.01872 11.9552C8.03663 11.736 8.0691 11.6239 8.10894 11.5457C8.20482 11.3575 8.3578 11.2046 8.54596 11.1087Z" fill="black"/>
<path fill-rule="evenodd" clip-rule="evenodd" d="M21.694 4.65623L12.194 0.656232C12.07 0.60399 11.93 0.60399 11.806 0.656232L2.30597 4.65623C2.12056 4.7343 2 4.91588 2 5.11705L2 9.12482C2 11.1668 2.41476 13.1875 3.21913 15.0643C4.44489 17.9244 6.52552 20.3352 9.17563 21.9661L11.035 23.1103C11.6268 23.4745 12.3732 23.4745 12.965 23.1103L14.8244 21.9661C17.4745 20.3352 19.5551 17.9244 20.7809 15.0643C21.5852 13.1875 22 11.1668 22 9.12482V5.11705C22 4.91588 21.8794 4.7343 21.694 4.65623ZM3 9.12482V5.44904L12 1.65956L21 5.44904V9.12482C21 11.0313 20.6127 12.918 19.8617 14.6704C18.7173 17.3408 16.7746 19.5917 14.3003 21.1144L12.4409 22.2586C12.1705 22.425 11.8295 22.425 11.5591 22.2586L9.69972 21.1144C7.22538 19.5917 5.28274 17.3408 4.13827 14.6704C3.38725 12.918 3 11.0313 3 9.12482Z" fill="black"/>
</svg>
