<svg width="24" height="24" viewBox="0 0 24 24" fill="none" xmlns="http://www.w3.org/2000/svg">
<path fill-rule="evenodd" clip-rule="evenodd" d="M12.3881 0.195064L21.8881 4.19506C22.2589 4.3512 22.5 4.71436 22.5 5.1167V9.12447C22.5 11.2341 22.0715 13.3218 21.2404 15.2609C19.974 18.2159 17.8244 20.7066 15.0864 22.3915L13.2271 23.5357C12.4746 23.9988 11.5254 23.9988 10.7729 23.5357L8.91358 22.3915C6.17559 20.7066 4.02596 18.2159 2.75955 15.2609C1.92851 13.3218 1.5 11.2341 1.5 9.12447L1.5 5.1167C1.5 4.71436 1.74113 4.3512 2.11194 4.19506L11.6119 0.195064C11.8601 0.0905776 12.1399 0.0905776 12.3881 0.195064ZM16.1464 7.88351C16.3417 7.68825 16.6583 7.68825 16.8536 7.88351C17.0488 8.07878 17.0488 8.39536 16.8536 8.59062L10.6111 14.833C10.3946 15.0496 10.0434 15.0496 9.82689 14.833L7.14645 12.1526C6.95119 11.9573 6.95119 11.6408 7.14645 11.4455C7.34171 11.2502 7.65829 11.2502 7.85355 11.4455L10.219 13.811L16.1464 7.88351Z" fill="black"/>
</svg>
