<svg width="24" height="24" viewBox="0 0 24 24" fill="none" xmlns="http://www.w3.org/2000/svg">
<path fill-rule="evenodd" clip-rule="evenodd" d="M12.3881 0.195064L21.8881 4.19506C22.2589 4.3512 22.5 4.71436 22.5 5.1167V9.12447C22.5 11.2341 22.0715 13.3218 21.2404 15.2609C19.974 18.2159 17.8244 20.7066 15.0864 22.3915L13.2271 23.5357C12.4746 23.9988 11.5254 23.9988 10.7729 23.5357L8.91358 22.3915C6.17559 20.7066 4.02596 18.2159 2.75955 15.2609C1.92851 13.3218 1.5 11.2341 1.5 9.12447L1.5 5.1167C1.5 4.71436 1.74113 4.3512 2.11194 4.19506L11.6119 0.195064C11.8601 0.0905776 12.1399 0.0905776 12.3881 0.195064ZM8.69775 8.06422C9.1859 7.57606 9.97735 7.57604 10.4655 8.06418L12 9.59858L13.5345 8.06418C14.0226 7.57604 14.8141 7.57606 15.3022 8.06422C15.7904 8.55239 15.7904 9.34385 15.3022 9.83199L13.7678 11.3663L15.3021 12.9005C15.7903 13.3887 15.7903 14.1801 15.3022 14.6683C14.814 15.1565 14.0226 15.1565 13.5344 14.6684L12 13.134L10.4656 14.6684C9.97743 15.1565 9.18597 15.1565 8.69783 14.6683C8.20968 14.1801 8.2097 13.3887 8.69787 12.9005L10.2322 11.3663L8.6978 9.83199C8.20963 9.34385 8.20961 8.55239 8.69775 8.06422Z" fill="black"/>
</svg>
