<svg width="24" height="24" viewBox="0 0 24 24" fill="none" xmlns="http://www.w3.org/2000/svg">
<path fill-rule="evenodd" clip-rule="evenodd" d="M21.694 4.65594L12.194 0.655942C12.07 0.6037 11.93 0.6037 11.806 0.655942L2.30597 4.65594C2.12056 4.73401 2 4.91559 2 5.11676L2 9.12453C2 11.1665 2.41476 13.1872 3.21913 15.064C4.44489 17.9241 6.52552 20.3349 9.17563 21.9658L11.035 23.11C11.6268 23.4742 12.3732 23.4742 12.965 23.11L14.8244 21.9658C17.4745 20.3349 19.5551 17.9241 20.7809 15.064C21.5852 13.1872 22 11.1665 22 9.12453V5.11676C22 4.91559 21.8794 4.73401 21.694 4.65594ZM12 22.3831C12.1529 22.3831 12.3057 22.3415 12.4409 22.2583L14.3003 21.1141C16.7746 19.5914 18.7173 17.3405 19.8617 14.6701C20.6127 12.9177 21 11.0311 21 9.12453V5.44875L12 1.65927L12 22.3831Z" fill="black"/>
</svg>
