<svg width="24" height="24" viewBox="0 0 24 24" fill="none" xmlns="http://www.w3.org/2000/svg">
<path fill-rule="evenodd" clip-rule="evenodd" d="M12.3881 0.195186L21.8881 4.19519C22.2589 4.35132 22.5 4.71448 22.5 5.11682V9.12459C22.5 11.2343 22.0715 13.3219 21.2404 15.261C19.974 18.216 17.8244 20.7067 15.0864 22.3917L13.2271 23.5359C12.4746 23.999 11.5254 23.999 10.7729 23.5359L8.91358 22.3917C6.17559 20.7067 4.02596 18.216 2.75955 15.261C1.92851 13.3219 1.5 11.2343 1.5 9.12459L1.5 5.11682C1.5 4.71448 1.74113 4.35132 2.11194 4.19519L11.6119 0.195186C11.8601 0.0906997 12.1399 0.0906997 12.3881 0.195186ZM9.40488 8.77144C9.50251 8.6738 9.6608 8.6738 9.75843 8.77143L12 11.0129L14.2416 8.77143C14.3392 8.6738 14.4975 8.6738 14.5951 8.77143C14.6928 8.86907 14.6927 9.02736 14.5951 9.12499L12.3536 11.3664L14.595 13.6078C14.6927 13.7054 14.6927 13.8637 14.595 13.9613C14.4974 14.059 14.3391 14.059 14.2415 13.9614L12 11.72L9.7585 13.9614C9.66087 14.059 9.50258 14.059 9.40495 13.9613C9.30732 13.8637 9.30733 13.7054 9.40496 13.6078L11.6464 11.3664L9.40489 9.12499C9.30725 9.02736 9.30725 8.86907 9.40488 8.77144Z" fill="black"/>
</svg>
