<svg width="24" height="24" viewBox="0 0 24 24" fill="none" xmlns="http://www.w3.org/2000/svg">
<path d="M15.9697 7.7071C16.2626 7.41421 16.7374 7.41421 17.0303 7.7071C17.3232 7.99999 17.3232 8.47487 17.0303 8.76776L10.7879 15.0102C10.4737 15.3244 9.96431 15.3244 9.65012 15.0102L6.96968 12.3297C6.67679 12.0369 6.67679 11.562 6.96968 11.2691C7.26257 10.9762 7.73745 10.9762 8.03034 11.2691L10.219 13.4578L15.9697 7.7071Z" fill="black"/>
<path fill-rule="evenodd" clip-rule="evenodd" d="M21.791 4.42583L12.291 0.425827C12.1049 0.347463 11.8951 0.347463 11.709 0.425827L2.20896 4.42583C1.93085 4.54293 1.75 4.8153 1.75 5.11705L1.75 9.12482C1.75 11.2006 2.17164 13.2548 2.98934 15.1628C4.23542 18.0703 6.35055 20.5211 9.0446 22.179L10.9039 23.3232C11.5761 23.7368 12.4239 23.7368 13.0961 23.3232L14.9554 22.179C17.6494 20.5211 19.7646 18.0703 21.0107 15.1628C21.8284 13.2548 22.25 11.2006 22.25 9.12482V5.11705C22.25 4.8153 22.0692 4.54293 21.791 4.42583ZM3.25 9.12482V5.61504L12 1.93082L20.75 5.61504V9.12482C20.75 10.9975 20.3696 12.8507 19.6319 14.5719C18.5078 17.1949 16.5997 19.4059 14.1693 20.9015L12.3099 22.0457C12.1199 22.1627 11.8801 22.1627 11.6901 22.0457L9.83075 20.9015C7.40034 19.4059 5.4922 17.1949 4.36806 14.5719C3.63038 12.8507 3.25 10.9975 3.25 9.12482Z" fill="black"/>
</svg>
