<svg width="24" height="24" viewBox="0 0 24 24" fill="none" xmlns="http://www.w3.org/2000/svg">
<path fill-rule="evenodd" clip-rule="evenodd" d="M12.3881 0.195186L21.8881 4.19519C22.2589 4.35132 22.5 4.71448 22.5 5.11682V9.12459C22.5 11.2343 22.0715 13.3219 21.2404 15.261C19.974 18.216 17.8244 20.7067 15.0864 22.3917L13.2271 23.5359C12.4746 23.999 11.5254 23.999 10.7729 23.5359L8.91358 22.3917C6.17559 20.7067 4.02596 18.216 2.75955 15.261C1.92851 13.3219 1.5 11.2343 1.5 9.12459L1.5 5.11682C1.5 4.71448 1.74113 4.35132 2.11194 4.19519L11.6119 0.195186C11.8601 0.0906997 12.1399 0.0906997 12.3881 0.195186ZM8.87454 8.24112C9.26505 7.85058 9.89822 7.85057 10.2887 8.24108L12 9.95225L13.7113 8.24108C14.1018 7.85057 14.735 7.85059 15.1255 8.24112C15.516 8.63165 15.516 9.26482 15.1254 9.65533L13.4142 11.3664L15.1254 13.0774C15.5159 13.468 15.5159 14.1011 15.1254 14.4917C14.7349 14.8822 14.1017 14.8822 13.7112 14.4917L12 12.7806L10.2888 14.4917C9.89829 14.8822 9.26512 14.8822 8.87461 14.4917C8.48409 14.1011 8.48411 13.468 8.87464 13.0774L10.5858 11.3664L8.87457 9.65533C8.48404 9.26482 8.48402 8.63165 8.87454 8.24112Z" fill="black"/>
</svg>
