<svg width="24" height="24" viewBox="0 0 24 24" fill="none" xmlns="http://www.w3.org/2000/svg">
<path fill-rule="evenodd" clip-rule="evenodd" d="M21.8881 4.19506L12.3881 0.195064C12.1399 0.0905776 11.8601 0.0905776 11.6119 0.195064L2.11194 4.19506C1.74113 4.3512 1.5 4.71436 1.5 5.1167L1.5 9.12447C1.5 11.2341 1.92851 13.3218 2.75955 15.2609C4.02596 18.2159 6.17559 20.7066 8.91358 22.3915L10.7729 23.5357C11.5254 23.9988 12.4746 23.9988 13.2271 23.5357L15.0864 22.3915C17.8244 20.7066 19.974 18.2159 21.2404 15.2609C22.0715 13.3218 22.5 11.2341 22.5 9.12447V5.1167C22.5 4.71436 22.2589 4.3512 21.8881 4.19506ZM12 5.36646C12.5523 5.36646 13 5.81418 13 6.36646V12.3665C13 12.9187 12.5523 13.3665 12 13.3665C11.4477 13.3665 11 12.9187 11 12.3665V6.36646C11 5.81418 11.4477 5.36646 12 5.36646ZM12 17.8665C12.6904 17.8665 13.25 17.3068 13.25 16.6165C13.25 15.9261 12.6904 15.3665 12 15.3665C11.3096 15.3665 10.75 15.9261 10.75 16.6165C10.75 17.3068 11.3096 17.8665 12 17.8665Z" fill="black"/>
</svg>
