<svg width="24" height="25" viewBox="0 0 24 25" fill="none" xmlns="http://www.w3.org/2000/svg">
<path d="M12.9999 13.1331C12.9999 12.5808 12.5522 12.1331 11.9999 12.1331C11.4477 12.1331 10.9999 12.5808 10.9999 13.1331V14.1331C10.9999 14.6854 11.4477 15.1331 11.9999 15.1331C12.5522 15.1331 12.9999 14.6854 12.9999 14.1331V13.1331Z" fill="black"/>
<path fill-rule="evenodd" clip-rule="evenodd" d="M7.86497 9.90513C8.07622 9.79749 8.29025 9.73545 8.49988 9.69821L8.49988 8.63264C8.49988 6.69965 10.0669 5.13264 11.9999 5.13264C13.9329 5.13264 15.4999 6.69965 15.4999 8.63264V9.69819C15.7096 9.73542 15.9236 9.79747 16.1349 9.90513C16.6053 10.1448 16.9878 10.5273 17.2275 10.9977C17.393 11.3226 17.4507 11.654 17.4762 11.966C17.5 12.2573 17.5 12.6074 17.5 12.9964V14.2687C17.5 14.6578 17.5 15.008 17.4762 15.2993C17.4507 15.6112 17.393 15.9427 17.2275 16.2676C16.9878 16.738 16.6053 17.1205 16.1349 17.3602C15.81 17.5257 15.4785 17.5834 15.1666 17.6089C14.8753 17.6327 14.5252 17.6327 14.1361 17.6326H9.86386C9.4748 17.6327 9.12462 17.6327 8.83332 17.6089C8.52135 17.5834 8.18988 17.5257 7.86497 17.3602C7.39457 17.1205 7.01212 16.738 6.77243 16.2676C6.60689 15.9427 6.5492 15.6112 6.52371 15.2993C6.49991 15.008 6.49993 14.6579 6.49995 14.2688V12.9966C6.49993 12.6075 6.49991 12.2573 6.52371 11.966C6.5492 11.654 6.60689 11.3226 6.77243 10.9977C7.01212 10.5273 7.39457 10.1448 7.86497 9.90513ZM13.4999 8.63264V9.63264H10.4999V8.63264C10.4999 7.80422 11.1715 7.13264 11.9999 7.13264C12.8283 7.13264 13.4999 7.80422 13.4999 8.63264ZM8.77575 11.6859C8.77696 11.6854 8.77859 11.6847 8.78074 11.684C8.78615 11.682 8.79617 11.6788 8.81245 11.675C8.84668 11.6669 8.90303 11.6574 8.99619 11.6498C9.19615 11.6334 9.46341 11.6326 9.89995 11.6326H14.1C14.5365 11.6326 14.8038 11.6334 15.0037 11.6498C15.0969 11.6574 15.1532 11.6669 15.1875 11.675C15.2037 11.6788 15.2137 11.682 15.2192 11.684C15.2215 11.6848 15.2233 11.6855 15.2245 11.686C15.226 11.6866 15.2267 11.687 15.2269 11.6871C15.321 11.7351 15.3975 11.8116 15.4455 11.9056C15.4457 11.906 15.4468 11.9082 15.4486 11.9134C15.4506 11.9188 15.4538 11.9289 15.4576 11.9451C15.4657 11.9794 15.4752 12.0357 15.4828 12.1289C15.4992 12.3288 15.5 12.5961 15.5 13.0326V14.2326C15.5 14.6692 15.4992 14.9364 15.4828 15.1364C15.4752 15.2296 15.4657 15.2859 15.4576 15.3201C15.4538 15.3364 15.4506 15.3464 15.4486 15.3519C15.4468 15.3571 15.4457 15.3592 15.4455 15.3596C15.3975 15.4537 15.321 15.5302 15.2269 15.5781L15.2251 15.579L15.2192 15.5813C15.2137 15.5832 15.2037 15.5865 15.1875 15.5903C15.1532 15.5984 15.0969 15.6079 15.0037 15.6155C14.8038 15.6319 14.5365 15.6326 14.0999 15.6326H9.89995C9.46341 15.6326 9.19615 15.6319 8.99619 15.6155C8.90303 15.6079 8.84668 15.5984 8.81245 15.5903C8.79617 15.5865 8.78615 15.5832 8.78074 15.5813C8.77554 15.5795 8.77336 15.5784 8.77296 15.5781C8.67887 15.5302 8.60238 15.4537 8.55445 15.3596C8.55437 15.3595 8.55418 15.3591 8.55388 15.3584C8.55334 15.3573 8.55246 15.3552 8.55128 15.3519C8.54934 15.3464 8.54613 15.3364 8.5423 15.3201C8.53424 15.2859 8.52468 15.2296 8.51707 15.1364C8.50073 14.9364 8.49995 14.6692 8.49995 14.2326V13.0326C8.49995 12.5961 8.50073 12.3288 8.51707 12.1289C8.52468 12.0357 8.53424 11.9794 8.5423 11.9451C8.54613 11.9289 8.54934 11.9188 8.55128 11.9134C8.55313 11.9082 8.55424 11.906 8.55445 11.9056C8.60238 11.8116 8.67887 11.7351 8.77296 11.6871C8.77319 11.687 8.77404 11.6866 8.77575 11.6859Z" fill="black"/>
<path fill-rule="evenodd" clip-rule="evenodd" d="M21.9851 4.09796L12.4851 0.0979557C12.1749 -0.0326519 11.8251 -0.0326519 11.5149 0.0979557L2.01493 4.09796C1.55141 4.29312 1.25 4.74707 1.25 5.25L1.25 9.25777C1.25 11.4013 1.68539 13.5225 2.52977 15.4927C3.8165 18.4951 6.00062 21.0258 8.78255 22.7378L10.6419 23.882C11.4748 24.3945 12.5252 24.3945 13.3581 23.882L15.2174 22.7378C17.9994 21.0258 20.1835 18.4951 21.4702 15.4927C22.3146 13.5225 22.75 11.4013 22.75 9.25777V5.25C22.75 4.74707 22.4486 4.29312 21.9851 4.09796ZM3.75 9.25777V6.07997L12 2.60629L20.25 6.07997V9.25777C20.25 11.0627 19.8834 12.8489 19.1724 14.5079C18.0889 17.036 16.2497 19.1671 13.9072 20.6086L12.0479 21.7528C12.0185 21.7709 11.9815 21.7709 11.9521 21.7528L10.0928 20.6086C7.75027 19.1671 5.91112 17.036 4.82763 14.5079C4.11662 12.8489 3.75 11.0627 3.75 9.25777Z" fill="black"/>
</svg>
