<svg width="24" height="24" viewBox="0 0 24 24" fill="none" xmlns="http://www.w3.org/2000/svg">
<path d="M16.3232 8.06054C16.4209 7.96291 16.5792 7.96291 16.6768 8.06054C16.7744 8.15817 16.7744 8.31647 16.6768 8.4141L10.4344 14.6565C10.3154 14.7755 10.1226 14.7755 10.0037 14.6565L7.32323 11.9761C7.2256 11.8784 7.2256 11.7202 7.32323 11.6225C7.42086 11.5249 7.57916 11.5249 7.67679 11.6225L10.219 14.1648L16.3232 8.06054Z" fill="black"/>
<path fill-rule="evenodd" clip-rule="evenodd" d="M21.597 4.88654L12.097 0.886536C12.035 0.860413 11.965 0.860413 11.903 0.886536L2.40299 4.88653C2.31028 4.92557 2.25 5.01636 2.25 5.11694L2.25 9.12471C2.25 11.1328 2.65788 13.12 3.44891 14.9657C4.65435 17.7784 6.70048 20.1492 9.30665 21.753L11.166 22.8972C11.6775 23.212 12.3225 23.212 12.834 22.8972L14.6933 21.753C17.2995 20.1492 19.3457 17.7784 20.5511 14.9657C21.3421 13.12 21.75 11.1328 21.75 9.12471V5.11694C21.75 5.01636 21.6897 4.92557 21.597 4.88654ZM2.75 9.12471V5.28294L12 1.3882L21.25 5.28294V9.12471C21.25 11.0651 20.8559 12.9853 20.0915 14.7688C18.9267 17.4866 16.9496 19.7775 14.4313 21.3272L12.572 22.4714C12.2212 22.6873 11.7788 22.6873 11.428 22.4714L9.5687 21.3272C7.05041 19.7775 5.07327 17.4866 3.90848 14.7688C3.14413 12.9853 2.75 11.0651 2.75 9.12471Z" fill="black"/>
</svg>
