<svg width="24" height="24" viewBox="0 0 24 24" fill="none" xmlns="http://www.w3.org/2000/svg">
<path d="M12 6.36681C12.4142 6.36681 12.75 6.7026 12.75 7.11681V13.1168C12.75 13.531 12.4142 13.8668 12 13.8668C11.5858 13.8668 11.25 13.531 11.25 13.1168V7.11681C11.25 6.7026 11.5858 6.36681 12 6.36681Z" fill="black"/>
<path d="M12 17.8668C12.5523 17.8668 13 17.4191 13 16.8668C13 16.3145 12.5523 15.8668 12 15.8668C11.4477 15.8668 11 16.3145 11 16.8668C11 17.4191 11.4477 17.8668 12 17.8668Z" fill="black"/>
<path fill-rule="evenodd" clip-rule="evenodd" d="M12.291 0.425823L21.791 4.42582C22.0692 4.54292 22.25 4.81529 22.25 5.11705V9.12482C22.25 11.2006 21.8284 13.2548 21.0107 15.1628C19.7646 18.0703 17.6494 20.5211 14.9554 22.179L13.0961 23.3232C12.4239 23.7368 11.5761 23.7368 10.9039 23.3232L9.0446 22.179C6.35055 20.5211 4.23542 18.0703 2.98934 15.1628C2.17164 13.2548 1.75 11.2006 1.75 9.12482L1.75 5.11705C1.75 4.81529 1.93085 4.54292 2.20896 4.42582L11.709 0.425823C11.8951 0.347459 12.1049 0.347459 12.291 0.425823ZM3.25 5.61503V9.12482C3.25 10.9975 3.63038 12.8506 4.36806 14.5719C5.4922 17.1949 7.40034 19.4059 9.83075 20.9015L11.6901 22.0457C11.8801 22.1627 12.1199 22.1627 12.3099 22.0457L14.1693 20.9015C16.5997 19.4059 18.5078 17.1949 19.6319 14.5719C20.3696 12.8506 20.75 10.9975 20.75 9.12482V5.61503L12 1.93082L3.25 5.61503Z" fill="black"/>
</svg>
