<svg width="24" height="24" viewBox="0 0 24 24" fill="none" xmlns="http://www.w3.org/2000/svg">
<path d="M14.4167 7.95041L14.4167 9.70013L9.58333 9.70013V7.95042C9.58333 6.61573 10.6653 5.53375 12 5.53375C13.3347 5.53375 14.4167 6.61573 14.4167 7.95041Z" fill="black"/>
<path d="M12.4999 12.0337C12.4999 11.7576 12.2761 11.5337 11.9999 11.5337C11.7238 11.5337 11.4999 11.7576 11.4999 12.0337V14.9504C11.4999 15.2266 11.7238 15.4504 11.9999 15.4504C12.2761 15.4504 12.4999 15.2266 12.4999 14.9504V12.0337Z" fill="black"/>
<path fill-rule="evenodd" clip-rule="evenodd" d="M12.3881 0.195552L21.8881 4.19555C22.2589 4.35168 22.5 4.71484 22.5 5.11719V9.12495C22.5 11.2346 22.0715 13.3223 21.2404 15.2614C19.974 18.2164 17.8244 20.7071 15.0864 22.392L13.2271 23.5362C12.4746 23.9993 11.5254 23.9993 10.7729 23.5362L8.91358 22.392C6.17559 20.7071 4.02596 18.2164 2.75955 15.2614C1.92851 13.3223 1.5 11.2346 1.5 9.12495L1.5 5.11719C1.5 4.71484 1.74113 4.35168 2.11194 4.19555L11.6119 0.195552C11.8601 0.0910659 12.1399 0.0910659 12.3881 0.195552ZM6.94066 10.6556C6.74992 11.03 6.74992 11.52 6.74992 12.5001V14.4835C6.74992 15.4636 6.74992 15.9536 6.94066 16.3279C7.10844 16.6572 7.37616 16.9249 7.70544 17.0927C8.07979 17.2835 8.56983 17.2835 9.54992 17.2835L14.4499 17.2835C15.43 17.2835 15.9201 17.2835 16.2944 17.0927C16.6237 16.9249 16.8914 16.6572 17.0592 16.3279C17.2499 15.9536 17.2499 15.4636 17.2499 14.4835V12.5001C17.2499 11.52 17.2499 11.03 17.0592 10.6556C16.8914 10.3264 16.6237 10.0586 16.2944 9.89087C16.0702 9.77661 15.8044 9.7308 15.4167 9.71243V7.95041C15.4167 6.06344 13.887 4.53375 12 4.53375C10.113 4.53375 8.58333 6.06344 8.58333 7.95042V9.71242C8.19551 9.73079 7.92971 9.7766 7.70544 9.89087C7.37616 10.0586 7.10844 10.3264 6.94066 10.6556Z" fill="black"/>
</svg>
