<svg width="24" height="25" viewBox="0 0 24 25" fill="none" xmlns="http://www.w3.org/2000/svg">
<path d="M15.6161 7.48649C16.1043 6.99834 16.8957 6.99834 17.3839 7.48649C17.872 7.97465 17.872 8.76611 17.3839 9.25426L11.1415 15.4967C10.632 16.0061 9.80602 16.0061 9.29656 15.4967L6.61613 12.8162C6.12797 12.3281 6.12797 11.5366 6.61613 11.0485C7.10428 10.5603 7.89574 10.5603 8.38389 11.0485L10.219 12.8836L15.6161 7.48649Z" fill="black"/>
<path fill-rule="evenodd" clip-rule="evenodd" d="M21.9851 4.09796L12.4851 0.0979557C12.1749 -0.0326519 11.8251 -0.0326519 11.5149 0.0979557L2.01493 4.09796C1.55141 4.29312 1.25 4.74707 1.25 5.25L1.25 9.25777C1.25 11.4013 1.68539 13.5225 2.52977 15.4927C3.8165 18.4951 6.00062 21.0258 8.78255 22.7378L10.6419 23.882C11.4748 24.3945 12.5252 24.3945 13.3581 23.882L15.2174 22.7378C17.9994 21.0258 20.1835 18.4951 21.4702 15.4927C22.3146 13.5225 22.75 11.4013 22.75 9.25777V5.25C22.75 4.74707 22.4486 4.29312 21.9851 4.09796ZM3.75 9.25777V6.07997L12 2.60629L20.25 6.07997V9.25777C20.25 11.0627 19.8834 12.8489 19.1724 14.5079C18.0889 17.036 16.2497 19.1671 13.9072 20.6086L12.0479 21.7528C12.0185 21.7709 11.9815 21.7709 11.9521 21.7528L10.0928 20.6086C7.75027 19.1671 5.91112 17.036 4.82763 14.5079C4.11662 12.8489 3.75 11.0627 3.75 9.25777Z" fill="black"/>
</svg>
