<svg width="24" height="24" viewBox="0 0 24 24" fill="none" xmlns="http://www.w3.org/2000/svg">
<path fill-rule="evenodd" clip-rule="evenodd" d="M21.597 4.88629L12.097 0.886292C12.035 0.860168 11.965 0.860168 11.903 0.886292L2.40299 4.88629C2.31028 4.92532 2.25 5.01611 2.25 5.1167L2.25 9.12447C2.25 11.1326 2.65788 13.1197 3.44891 14.9655C4.65435 17.7782 6.70048 20.149 9.30665 21.7528L11.166 22.897C11.6775 23.2118 12.3225 23.2118 12.834 22.897L14.6933 21.7528C17.2995 20.149 19.3457 17.7782 20.5511 14.9655C21.3421 13.1197 21.75 11.1326 21.75 9.12447V5.1167C21.75 5.01611 21.6897 4.92532 21.597 4.88629ZM12 22.6331C12.1983 22.6331 12.3966 22.5791 12.572 22.4712L14.4313 21.327C16.9496 19.7773 18.9267 17.4864 20.0915 14.7685C20.8559 12.985 21.25 11.0649 21.25 9.12447V5.28269L12 1.38796L12 22.6331Z" fill="black"/>
</svg>
