<svg width="24" height="25" viewBox="0 0 24 25" fill="none" xmlns="http://www.w3.org/2000/svg">
<path d="M11.3789 15.4584C11.3789 14.7682 11.9389 14.2087 12.6289 14.2084H16.8145C17.5048 14.2084 18.0645 14.768 18.0645 15.4584C18.0642 16.1485 17.5046 16.7083 16.8145 16.7084H12.6289C11.939 16.708 11.3792 16.1482 11.3789 15.4584Z" fill="black"/>
<path d="M6.30176 8.1937C5.81361 7.70555 5.81362 6.91428 6.30176 6.42612C6.78992 5.93809 7.58122 5.93801 8.06934 6.42612L12.2598 10.6166C12.7474 11.1047 12.7476 11.8961 12.2598 12.3841L8.06934 16.5746C7.58132 17.0624 6.78989 17.0622 6.30176 16.5746C5.81366 16.0865 5.81378 15.2952 6.30176 14.807L9.6084 11.5003L6.30176 8.1937Z" fill="black"/>
<path fill-rule="evenodd" clip-rule="evenodd" d="M1.25 5.25034C1.2501 4.74756 1.55128 4.29316 2.01465 4.098L11.5146 0.0979994L11.6328 0.0550306C11.9118 -0.0306521 12.214 -0.016241 12.4854 0.0979994L21.9854 4.098C22.4487 4.29316 22.7499 4.74756 22.75 5.25034V9.25815C22.75 11.4016 22.315 13.5234 21.4707 15.4935C20.184 18.4956 17.9994 21.0257 15.2178 22.7376L13.3584 23.8822C12.5255 24.3947 11.4745 24.3947 10.6416 23.8822L8.78223 22.7376C6.00063 21.0257 3.81596 18.4956 2.5293 15.4935C1.68498 13.5234 1.25001 11.4016 1.25 9.25816L1.25 5.25034ZM3.75 9.25816C3.75001 11.0629 4.11627 12.8493 4.82715 14.5082C5.91061 17.0362 7.75035 19.1672 10.0928 20.6087L11.9521 21.7533C11.9815 21.7713 12.0185 21.7713 12.0479 21.7533L13.9072 20.6087C16.2496 19.1672 18.0894 17.0362 19.1729 14.5082C19.8837 12.8493 20.25 11.0629 20.25 9.25815V6.08042L12 2.60679L3.75 6.08042L3.75 9.25816Z" fill="black"/>
</svg>
