<svg width="24" height="24" viewBox="0 0 24 24" fill="none" xmlns="http://www.w3.org/2000/svg">
<path fill-rule="evenodd" clip-rule="evenodd" d="M11.709 0.425534C11.8951 0.347169 12.1049 0.347169 12.291 0.425534L21.791 4.42553C22.0692 4.54263 22.25 4.815 22.25 5.11676V9.12453C22.25 11.2003 21.8284 13.2545 21.0107 15.1625C19.7646 18.07 17.6494 20.5208 14.9554 22.1787L13.0961 23.3229C12.4239 23.7365 11.5761 23.7365 10.9039 23.3229L9.0446 22.1787C6.35055 20.5208 4.23542 18.07 2.98934 15.1625C2.17164 13.2545 1.75 11.2003 1.75 9.12453L1.75 5.11676C1.75 4.815 1.93085 4.54263 2.20896 4.42553L11.709 0.425534ZM3.25 5.61474V9.12453C3.25 10.9972 3.63038 12.8504 4.36806 14.5716C5.4922 17.1946 7.40034 19.4056 9.83075 20.9012L11.6901 22.0454C11.8801 22.1624 12.1199 22.1624 12.3099 22.0454L14.1693 20.9012C16.5997 19.4056 18.5078 17.1946 19.6319 14.5716C20.3696 12.8504 20.75 10.9972 20.75 9.12453V5.61474L12 1.93053L3.25 5.61474Z" fill="black"/>
</svg>
