<svg width="24" height="24" viewBox="0 0 24 24" fill="none" xmlns="http://www.w3.org/2000/svg">
<path fill-rule="evenodd" clip-rule="evenodd" d="M12.3881 0.195184L21.8881 4.19518C22.2589 4.35132 22.5 4.71448 22.5 5.11682V9.12459C22.5 11.2343 22.0715 13.3219 21.2404 15.261C19.974 18.216 17.8244 20.7067 15.0864 22.3917L13.2271 23.5359C12.4746 23.999 11.5254 23.999 10.7729 23.5359L8.91358 22.3917C6.17559 20.7067 4.02596 18.216 2.75955 15.261C1.92851 13.3219 1.5 11.2343 1.5 9.12459L1.5 5.11682C1.5 4.71448 1.74113 4.35132 2.11194 4.19518L11.6119 0.195184C11.8601 0.0906978 12.1399 0.0906978 12.3881 0.195184ZM15.7929 7.53008C16.1834 7.13956 16.8166 7.13956 17.2071 7.53008C17.5976 7.92061 17.5976 8.55377 17.2071 8.94429L10.9647 15.1867C10.5529 15.5985 9.88516 15.5985 9.47333 15.1867L6.79289 12.5063C6.40237 12.1158 6.40237 11.4826 6.79289 11.0921C7.18342 10.7015 7.81658 10.7015 8.20711 11.0921L10.219 13.104L15.7929 7.53008Z" fill="black"/>
</svg>
