<svg width="24" height="24" viewBox="0 0 24 24" fill="none" xmlns="http://www.w3.org/2000/svg">
<path d="M9.40489 8.77157C9.50252 8.67393 9.66081 8.67393 9.75844 8.77156L12 11.013L14.2416 8.77156C14.3392 8.67393 14.4975 8.67393 14.5951 8.77157C14.6928 8.8692 14.6928 9.02749 14.5951 9.12512L12.3536 11.3666L14.595 13.6079C14.6927 13.7055 14.6927 13.8638 14.5951 13.9615C14.4974 14.0591 14.3391 14.0591 14.2415 13.9615L12 11.7201L9.75851 13.9615C9.66088 14.0591 9.50259 14.0591 9.40496 13.9615C9.30733 13.8638 9.30734 13.7055 9.40497 13.6079L11.6464 11.3666L9.4049 9.12512C9.30726 9.02749 9.30726 8.8692 9.40489 8.77157Z" fill="black"/>
<path fill-rule="evenodd" clip-rule="evenodd" d="M21.597 4.88654L12.097 0.886536C12.035 0.860413 11.965 0.860413 11.903 0.886536L2.40299 4.88653C2.31028 4.92557 2.25 5.01636 2.25 5.11694L2.25 9.12471C2.25 11.1328 2.65788 13.12 3.44891 14.9657C4.65435 17.7784 6.70048 20.1492 9.30665 21.753L11.166 22.8972C11.6775 23.212 12.3225 23.212 12.834 22.8972L14.6933 21.753C17.2995 20.1492 19.3457 17.7784 20.5511 14.9657C21.3421 13.12 21.75 11.1328 21.75 9.12471V5.11694C21.75 5.01636 21.6897 4.92557 21.597 4.88654ZM2.75 9.12471V5.28294L12 1.3882L21.25 5.28294V9.12471C21.25 11.0651 20.8559 12.9853 20.0915 14.7688C18.9267 17.4866 16.9496 19.7775 14.4313 21.3272L12.572 22.4714C12.2212 22.6873 11.7788 22.6873 11.428 22.4714L9.5687 21.3272C7.05041 19.7775 5.07327 17.4866 3.90848 14.7688C3.14413 12.9853 2.75 11.0651 2.75 9.12471Z" fill="black"/>
</svg>
