<svg width="24" height="24" viewBox="0 0 24 24" fill="none" xmlns="http://www.w3.org/2000/svg">
<path fill-rule="evenodd" clip-rule="evenodd" d="M21.8881 4.19512L12.3881 0.195125C12.1399 0.0906386 11.8601 0.0906386 11.6119 0.195125L2.11194 4.19513C1.74113 4.35126 1.5 4.71442 1.5 5.11676L1.5 9.12453C1.5 11.2342 1.92851 13.3219 2.75955 15.261C4.02596 18.2159 6.17559 20.7067 8.91358 22.3916L10.7729 23.5358C11.5254 23.9989 12.4746 23.9989 13.2271 23.5358L15.0864 22.3916C17.8244 20.7067 19.974 18.2159 21.2404 15.261C22.0715 13.3219 22.5 11.2342 22.5 9.12453V5.11676C22.5 4.71442 22.2589 4.35126 21.8881 4.19512ZM12 21.8831C12.062 21.8831 12.124 21.8662 12.1789 21.8325L14.0382 20.6883C16.4247 19.2197 18.2983 17.0487 19.4022 14.4731C20.1265 12.783 20.5 10.9633 20.5 9.12453V5.78074L12 2.20179L12 21.8831Z" fill="black"/>
</svg>
