<svg width="24" height="24" viewBox="0 0 24 24" fill="none" xmlns="http://www.w3.org/2000/svg">
<path d="M12.8749 13.0002C12.8749 12.5169 12.4832 12.1252 11.9999 12.1252C11.5167 12.1252 11.1249 12.5169 11.1249 13.0002V14.0002C11.1249 14.4834 11.5167 14.8752 11.9999 14.8752C12.4832 14.8752 12.8749 14.4834 12.8749 14.0002V13.0002Z" fill="black"/>
<path fill-rule="evenodd" clip-rule="evenodd" d="M7.92172 9.88355C8.1536 9.76541 8.39061 9.70501 8.62488 9.67195V8.49969C8.62488 6.63573 10.1359 5.12469 11.9999 5.12469C13.8638 5.12469 15.3749 6.63573 15.3749 8.49969V9.67193C15.6092 9.70498 15.8463 9.76538 16.0782 9.88355C16.5251 10.1113 16.8884 10.4746 17.1161 10.9215C17.2712 11.2258 17.3267 11.539 17.3516 11.8432C17.375 12.1293 17.375 12.4749 17.375 12.867V14.1323C17.375 14.5244 17.375 14.87 17.3516 15.1561C17.3267 15.4604 17.2712 15.7736 17.1161 16.0779C16.8884 16.5248 16.5251 16.8881 16.0782 17.1158C15.7738 17.2709 15.4606 17.3265 15.1564 17.3514C14.8703 17.3747 14.5247 17.3747 14.1326 17.3747H9.86733C9.47524 17.3747 9.12959 17.3747 8.8435 17.3514C8.53926 17.3265 8.22607 17.2709 7.92172 17.1158C7.47484 16.8881 7.11151 16.5248 6.88381 16.0779C6.72874 15.7736 6.67315 15.4604 6.64829 15.1561C6.62492 14.87 6.62493 14.5245 6.62495 14.1324V12.8671C6.62493 12.475 6.62492 12.1293 6.64829 11.8432C6.67315 11.539 6.72874 11.2258 6.88381 10.9215C7.11151 10.4746 7.47484 10.1113 7.92172 9.88355ZM13.6249 8.49969V9.62469H10.3749L10.3749 8.49969C10.3749 7.60223 11.1024 6.87469 11.9999 6.87469C12.8973 6.87469 13.6249 7.60223 13.6249 8.49969ZM8.71621 11.4428C8.73273 11.4344 8.78999 11.4082 8.98601 11.3922C9.19224 11.3754 9.46547 11.3747 9.89995 11.3747H14.0999C14.5344 11.3747 14.8077 11.3754 15.0139 11.3922C15.2099 11.4082 15.2672 11.4344 15.2837 11.4428C15.4013 11.5027 15.4969 11.5983 15.5568 11.7159C15.5652 11.7325 15.5914 11.7897 15.6074 11.9857C15.6243 12.192 15.6249 12.4652 15.6249 12.8997V14.0997C15.6249 14.5342 15.6243 14.8074 15.6074 15.0136C15.5914 15.2097 15.5652 15.2669 15.5568 15.2834C15.4969 15.401 15.4013 15.4967 15.2837 15.5566C15.2672 15.565 15.2099 15.5911 15.0139 15.6072C14.8077 15.624 14.5344 15.6247 14.0999 15.6247L9.89995 15.6247C9.46547 15.6247 9.19224 15.624 8.98601 15.6072C8.78999 15.5911 8.73273 15.565 8.71621 15.5566C8.59861 15.4967 8.50299 15.401 8.44307 15.2834C8.43465 15.2669 8.4085 15.2097 8.39248 15.0136C8.37563 14.8074 8.37495 14.5342 8.37495 14.0997V12.8997C8.37495 12.4652 8.37563 12.192 8.39248 11.9857C8.4085 11.7897 8.43465 11.7325 8.44307 11.7159C8.50299 11.5983 8.59861 11.5027 8.71621 11.4428Z" fill="black"/>
<path fill-rule="evenodd" clip-rule="evenodd" d="M21.8881 4.19541L12.3881 0.195415C12.1399 0.0909285 11.8601 0.0909286 11.6119 0.195415L2.11194 4.19542C1.74113 4.35155 1.5 4.71471 1.5 5.11705L1.5 9.12482C1.5 11.2345 1.92851 13.3222 2.75955 15.2613C4.02596 18.2162 6.17559 20.707 8.91358 22.3919L10.7729 23.5361C11.5254 23.9992 12.4746 23.9992 13.2271 23.5361L15.0864 22.3919C17.8244 20.707 19.974 18.2162 21.2404 15.2613C22.0715 13.3222 22.5 11.2345 22.5 9.12482V5.11705C22.5 4.71471 22.2589 4.35155 21.8881 4.19541ZM3.5 9.12482V5.78102L12 2.20208L20.5 5.78103V9.12482C20.5 10.9636 20.1265 12.7833 19.4022 14.4734C18.2983 17.049 16.4247 19.22 14.0382 20.6886L12.1789 21.8328C12.0692 21.9003 11.9308 21.9003 11.8211 21.8328L9.96177 20.6886C7.57531 19.22 5.70166 17.049 4.59784 14.4734C3.8735 12.7833 3.5 10.9636 3.5 9.12482Z" fill="black"/>
</svg>
