<svg width="24" height="24" viewBox="0 0 24 24" fill="none" xmlns="http://www.w3.org/2000/svg">
<path fill-rule="evenodd" clip-rule="evenodd" d="M12.3881 0.195064L21.8881 4.19506C22.2589 4.3512 22.5 4.71436 22.5 5.1167V9.12447C22.5 11.2341 22.0715 13.3218 21.2404 15.2609C19.974 18.2159 17.8244 20.7066 15.0864 22.3915L13.2271 23.5357C12.4746 23.9988 11.5254 23.9988 10.7729 23.5357L8.91358 22.3915C6.17559 20.7066 4.02596 18.2159 2.75955 15.2609C1.92851 13.3218 1.5 11.2341 1.5 9.12447L1.5 5.1167C1.5 4.71436 1.74113 4.3512 2.11194 4.19506L11.6119 0.195064C11.8601 0.0905776 12.1399 0.0905776 12.3881 0.195064ZM9.2281 8.59454C9.42336 8.39927 9.73994 8.39927 9.93521 8.59452L12 10.6592L14.0648 8.59452C14.2601 8.39927 14.5766 8.39927 14.7719 8.59454C14.9672 8.78981 14.9672 9.10639 14.7719 9.30165L12.7071 11.3663L14.7718 13.4309C14.9671 13.6261 14.9671 13.9427 14.7718 14.138C14.5766 14.3333 14.26 14.3333 14.0647 14.138L12 12.0734L9.93528 14.138C9.74001 14.3333 9.42343 14.3333 9.22817 14.138C9.03291 13.9427 9.03292 13.6261 9.22819 13.4309L11.2929 11.3663L9.22812 9.30165C9.03285 9.10639 9.03284 8.78981 9.2281 8.59454Z" fill="black"/>
</svg>
