<svg width="24" height="24" viewBox="0 0 24 24" fill="none" xmlns="http://www.w3.org/2000/svg">
<path d="M8.87454 8.24135C9.26506 7.85082 9.89822 7.85081 10.2888 8.24132L12 9.95248L13.7113 8.24132C14.1018 7.8508 14.735 7.85082 15.1255 8.24135C15.516 8.63189 15.516 9.26505 15.1254 9.65557L13.4143 11.3667L15.1254 13.0777C15.5159 13.4682 15.5159 14.1014 15.1254 14.4919C14.7349 14.8824 14.1017 14.8824 13.7112 14.4919L12 12.7808L10.2888 14.4919C9.8983 14.8824 9.26513 14.8824 8.87462 14.4919C8.4841 14.1014 8.48412 13.4682 8.87465 13.0777L10.5858 11.3667L8.87458 9.65557C8.48405 9.26505 8.48403 8.63189 8.87454 8.24135Z" fill="black"/>
<path fill-rule="evenodd" clip-rule="evenodd" d="M21.8881 4.19541L12.3881 0.195415C12.1399 0.0909285 11.8601 0.0909286 11.6119 0.195415L2.11194 4.19542C1.74113 4.35155 1.5 4.71471 1.5 5.11705L1.5 9.12482C1.5 11.2345 1.92851 13.3222 2.75955 15.2613C4.02596 18.2162 6.17559 20.707 8.91358 22.3919L10.7729 23.5361C11.5254 23.9992 12.4746 23.9992 13.2271 23.5361L15.0864 22.3919C17.8244 20.707 19.974 18.2162 21.2404 15.2613C22.0715 13.3222 22.5 11.2345 22.5 9.12482V5.11705C22.5 4.71471 22.2589 4.35155 21.8881 4.19541ZM3.5 9.12482V5.78102L12 2.20208L20.5 5.78103V9.12482C20.5 10.9636 20.1265 12.7833 19.4022 14.4734C18.2983 17.049 16.4247 19.22 14.0382 20.6886L12.1789 21.8328C12.0692 21.9003 11.9308 21.9003 11.8211 21.8328L9.96177 20.6886C7.57531 19.22 5.70166 17.049 4.59784 14.4734C3.8735 12.7833 3.5 10.9636 3.5 9.12482Z" fill="black"/>
</svg>
