<svg width="24" height="24" viewBox="0 0 24 24" fill="none" xmlns="http://www.w3.org/2000/svg">
<path d="M15.7929 7.53021C16.1834 7.13969 16.8166 7.13969 17.2071 7.53021C17.5976 7.92074 17.5976 8.5539 17.2071 8.94443L10.9647 15.1868C10.5529 15.5987 9.88516 15.5987 9.47334 15.1868L6.7929 12.5064C6.40238 12.1159 6.40238 11.4827 6.7929 11.0922C7.18343 10.7017 7.81659 10.7017 8.20712 11.0922L10.219 13.1041L15.7929 7.53021Z" fill="black"/>
<path fill-rule="evenodd" clip-rule="evenodd" d="M21.8881 4.19531L12.3881 0.195308C12.1399 0.0908217 11.8601 0.0908218 11.6119 0.195308L2.11194 4.19531C1.74113 4.35144 1.5 4.7146 1.5 5.11694L1.5 9.12471C1.5 11.2344 1.92851 13.3221 2.75955 15.2612C4.02596 18.2161 6.17559 20.7069 8.91358 22.3918L10.7729 23.536C11.5254 23.9991 12.4746 23.9991 13.2271 23.536L15.0864 22.3918C17.8244 20.7069 19.974 18.2161 21.2404 15.2612C22.0715 13.3221 22.5 11.2344 22.5 9.12471V5.11694C22.5 4.7146 22.2589 4.35144 21.8881 4.19531ZM3.5 9.12471V5.78092L12 2.20197L20.5 5.78092V9.12471C20.5 10.9635 20.1265 12.7832 19.4022 14.4733C18.2983 17.0489 16.4247 19.2199 14.0382 20.6885L12.1789 21.8327C12.0692 21.9002 11.9308 21.9002 11.8211 21.8327L9.96177 20.6885C7.57531 19.2199 5.70166 17.0489 4.59784 14.4733C3.8735 12.7832 3.5 10.9635 3.5 9.12471Z" fill="black"/>
</svg>
