<svg width="24" height="26" viewBox="0 0 24 26" fill="none" xmlns="http://www.w3.org/2000/svg">
<path fill-rule="evenodd" clip-rule="evenodd" d="M11.5149 0.964655C11.8251 0.834047 12.1749 0.834047 12.4851 0.964655L21.9851 4.96465C22.4486 5.15982 22.75 5.61377 22.75 6.1167V10.1245C22.75 12.268 22.3146 14.3892 21.4702 16.3594C20.1835 19.3618 17.9994 21.8925 15.2174 23.6045L13.3581 24.7487C12.5252 25.2612 11.4748 25.2612 10.6419 24.7487L8.78255 23.6045C6.00062 21.8925 3.8165 19.3618 2.52977 16.3594C1.68539 14.3892 1.25 12.268 1.25 10.1245L1.25 6.1167C1.25 5.61377 1.55141 5.15982 2.01493 4.96465L11.5149 0.964655ZM3.75 6.94667V10.1245C3.75 11.9294 4.11662 13.7156 4.82763 15.3746C5.91112 17.9027 7.75027 20.0338 10.0928 21.4753L11.9521 22.6195C11.9815 22.6376 12.0185 22.6376 12.0479 22.6195L13.9072 21.4753C16.2497 20.0338 18.0889 17.9027 19.1724 15.3746C19.8834 13.7156 20.25 11.9294 20.25 10.1245V6.94667L12 3.47298L3.75 6.94667Z" fill="black"/>
</svg>
