<svg width="24" height="24" viewBox="0 0 24 24" fill="none" xmlns="http://www.w3.org/2000/svg">
<path d="M12.2499 12.2497C12.2499 12.1116 12.138 11.9997 11.9999 11.9997C11.8619 11.9997 11.7499 12.1116 11.7499 12.2497V14.7497C11.7499 14.8878 11.8619 14.9997 11.9999 14.9997C12.138 14.9997 12.2499 14.8878 12.2499 14.7497V12.2497Z" fill="black"/>
<path fill-rule="evenodd" clip-rule="evenodd" d="M8.89439 10.2711C9.00162 10.2623 9.11955 10.2572 9.24988 10.2542L9.24988 8.49983C9.24988 6.98105 10.4811 5.74983 11.9999 5.74983C13.5187 5.74983 14.7499 6.98105 14.7499 8.49983V10.2542C14.8803 10.2572 14.9982 10.2623 15.1055 10.2711C15.3711 10.2928 15.5929 10.3379 15.7944 10.4406C16.1237 10.6083 16.3914 10.8761 16.5592 11.2053C16.6619 11.4069 16.707 11.6287 16.7287 11.8943C16.75 12.1546 16.75 12.4781 16.7499 12.8887V14.1109C16.75 14.5216 16.75 14.8451 16.7287 15.1054C16.707 15.371 16.6619 15.5928 16.5592 15.7943C16.3914 16.1236 16.1237 16.3913 15.7944 16.5591C15.5929 16.6618 15.3711 16.7069 15.1055 16.7286C14.8452 16.7498 14.5218 16.7498 14.1112 16.7498L9.88884 16.7498C9.47829 16.7498 9.15469 16.7498 8.89439 16.7286C8.62881 16.7069 8.40702 16.6618 8.20547 16.5591C7.87618 16.3913 7.60847 16.1236 7.44069 15.7943C7.33799 15.5928 7.29292 15.371 7.27122 15.1054C7.24995 14.8451 7.24995 14.5217 7.24995 14.1111V12.8887C7.24995 12.4782 7.24995 12.1546 7.27122 11.8943C7.29292 11.6287 7.33799 11.4069 7.44069 11.2053C7.60847 10.8761 7.87618 10.6083 8.20547 10.4406C8.40702 10.3379 8.62881 10.2928 8.89439 10.2711ZM9.74988 10.2499L9.74988 8.49983C9.74988 7.25719 10.7572 6.24983 11.9999 6.24983C13.2425 6.24983 14.2499 7.25719 14.2499 8.49983V10.2499H9.74988ZM8.43246 10.8861C8.55178 10.8253 8.70044 10.7886 8.93511 10.7694C9.1727 10.75 9.47578 10.7498 9.89995 10.7498L14.0999 10.7498C14.5241 10.7498 14.8272 10.75 15.0648 10.7694C15.2995 10.7886 15.4481 10.8253 15.5674 10.8861C15.8026 11.0059 15.9939 11.1971 16.1137 11.4323C16.1745 11.5517 16.2112 11.7003 16.2303 11.935C16.2498 12.1726 16.2499 12.4757 16.2499 12.8998V14.0998C16.2499 14.524 16.2498 14.8271 16.2303 15.0647C16.2112 15.2993 16.1745 15.448 16.1137 15.5673C15.9939 15.8025 15.8026 15.9937 15.5674 16.1136C15.4481 16.1744 15.2995 16.2111 15.0648 16.2302C14.8272 16.2496 14.5241 16.2498 14.0999 16.2498H9.89995C9.47578 16.2498 9.1727 16.2496 8.93511 16.2302C8.70044 16.2111 8.55178 16.1744 8.43246 16.1136C8.19726 15.9937 8.00603 15.8025 7.88619 15.5673C7.8254 15.448 7.78873 15.2993 7.76956 15.0647C7.75014 14.8271 7.74995 14.524 7.74995 14.0998V12.8998C7.74995 12.4757 7.75014 12.1726 7.76956 11.935C7.78873 11.7003 7.8254 11.5517 7.88619 11.4323C8.00603 11.1971 8.19726 11.0059 8.43246 10.8861Z" fill="black"/>
<path fill-rule="evenodd" clip-rule="evenodd" d="M21.597 4.88678L12.097 0.88678C12.035 0.860657 11.965 0.860657 11.903 0.88678L2.40299 4.88678C2.31028 4.92581 2.25 5.0166 2.25 5.11719L2.25 9.12496C2.25 11.1331 2.65788 13.1202 3.44891 14.966C4.65435 17.7786 6.70048 20.1495 9.30665 21.7533L11.166 22.8975C11.6775 23.2122 12.3225 23.2122 12.834 22.8975L14.6933 21.7533C17.2995 20.1495 19.3457 17.7786 20.5511 14.966C21.3421 13.1202 21.75 11.1331 21.75 9.12496V5.11719C21.75 5.0166 21.6897 4.92581 21.597 4.88678ZM2.75 9.12496V5.28318L12 1.38844L21.25 5.28318V9.12496C21.25 11.0653 20.8559 12.9855 20.0915 14.769C18.9267 17.4868 16.9496 19.7777 14.4313 21.3275L12.572 22.4717C12.2212 22.6875 11.7788 22.6875 11.428 22.4717L9.5687 21.3275C7.05041 19.7777 5.07327 17.4868 3.90848 14.769C3.14413 12.9855 2.75 11.0653 2.75 9.12496Z" fill="black"/>
</svg>
