<svg width="24" height="24" viewBox="0 0 24 24" fill="none" xmlns="http://www.w3.org/2000/svg">
<path fill-rule="evenodd" clip-rule="evenodd" d="M1.5 5.11691C1.50002 4.71461 1.74154 4.35118 2.1123 4.19504L11.6123 0.195036L11.7061 0.160856C11.9292 0.0922523 12.1706 0.103738 12.3877 0.195036L21.8877 4.19504C22.2585 4.35118 22.5 4.71461 22.5 5.11691V9.12472C22.5 11.2343 22.0712 13.3224 21.2402 15.2614C19.9738 18.2162 17.8238 20.7065 15.0859 22.3913L13.2275 23.5359C12.4751 23.9989 11.525 23.9989 10.7725 23.5359L8.91406 22.3913C6.17623 20.7065 4.0262 18.2162 2.75977 15.2614C1.92876 13.3224 1.50003 11.2343 1.5 9.12472L1.5 5.11691ZM10.6289 15.3249C10.6294 15.8766 11.0772 16.3245 11.6289 16.3249H16.8145C17.3664 16.3249 17.814 15.8768 17.8145 15.3249C17.8145 14.7726 17.3667 14.3249 16.8145 14.3249H11.6289C11.077 14.3253 10.6289 14.7729 10.6289 15.3249ZM6.47852 6.46945C6.08819 6.85999 6.08806 7.49306 6.47852 7.88351L9.96191 11.3669L6.47852 14.8503C6.08835 15.2409 6.08811 15.874 6.47852 16.2644C6.86897 16.6541 7.50224 16.6543 7.89258 16.2644L12.083 12.0739C12.4732 11.6836 12.4729 11.0504 12.083 10.6599L7.89258 6.46945C7.5021 6.07897 6.86905 6.07906 6.47852 6.46945Z" fill="black"/>
</svg>
