<svg width="24" height="24" viewBox="0 0 24 24" fill="none" xmlns="http://www.w3.org/2000/svg">
<path d="M13.9167 7.95028L13.9167 9.69999L10.0833 9.69999V7.95028C10.0833 6.89173 10.9415 6.03361 12 6.03361C13.0585 6.03361 13.9167 6.89173 13.9167 7.95028Z" fill="black"/>
<path d="M12.9999 12.0336C12.9999 11.4813 12.5522 11.0336 11.9999 11.0336C11.4476 11.0336 10.9999 11.4813 10.9999 12.0336V14.9503C10.9999 15.5026 11.4476 15.9503 11.9999 15.9503C12.5522 15.9503 12.9999 15.5026 12.9999 14.9503V12.0336Z" fill="black"/>
<path fill-rule="evenodd" clip-rule="evenodd" d="M12.3881 0.195415L21.8881 4.19541C22.2589 4.35155 22.5 4.71471 22.5 5.11705V9.12482C22.5 11.2345 22.0715 13.3222 21.2404 15.2613C19.974 18.2162 17.8244 20.707 15.0864 22.3919L13.2271 23.5361C12.4746 23.9992 11.5254 23.9992 10.7729 23.5361L8.91358 22.3919C6.17559 20.707 4.02596 18.2162 2.75955 15.2613C1.92851 13.3222 1.5 11.2345 1.5 9.12482L1.5 5.11705C1.5 4.71471 1.74113 4.35155 2.11194 4.19542L11.6119 0.195415C11.8601 0.0909286 12.1399 0.0909285 12.3881 0.195415ZM6.94066 10.6555C6.74992 11.0299 6.74992 11.5199 6.74992 12.5V14.4833C6.74992 15.4634 6.74992 15.9535 6.94066 16.3278C7.10844 16.6571 7.37616 16.9248 7.70544 17.0926C8.07979 17.2833 8.56983 17.2833 9.54992 17.2833L14.4499 17.2833C15.43 17.2833 15.9201 17.2833 16.2944 17.0926C16.6237 16.9248 16.8914 16.6571 17.0592 16.3278C17.2499 15.9535 17.2499 15.4634 17.2499 14.4833V12.5C17.2499 11.5199 17.2499 11.0299 17.0592 10.6555C16.8914 10.3262 16.6237 10.0585 16.2944 9.89073C16.1822 9.83358 16.0597 9.79355 15.9167 9.76552V7.95028C15.9167 5.78716 14.1631 4.03361 12 4.03361C9.83688 4.03361 8.08333 5.78716 8.08333 7.95028V9.76549C7.94025 9.79352 7.81765 9.83356 7.70544 9.89073C7.37616 10.0585 7.10844 10.3262 6.94066 10.6555Z" fill="black"/>
</svg>
