<svg width="24" height="24" viewBox="0 0 24 24" fill="none" xmlns="http://www.w3.org/2000/svg">
<path fill-rule="evenodd" clip-rule="evenodd" d="M12.422 2.67346C12.1885 2.44218 11.8118 2.44218 11.5782 2.67346L1.67754 12.4772C1.29033 12.8606 1.57494 13.5 2.09943 13.5L7.49997 13.5V19C7.49997 19.2761 7.72383 19.5 7.99997 19.5H16C16.2761 19.5 16.5 19.2761 16.5 19V13.5H21.9008C22.4253 13.5 22.7099 12.8606 22.3227 12.4772L12.422 2.67346ZM12.2819 3.38403C12.2817 3.38415 12.282 3.38392 12.2819 3.38403ZM12.0001 3.663L3.07572 12.5L7.99997 12.5C8.27612 12.5 8.49997 12.7239 8.49997 13V18.5H15.5V13C15.5 12.7239 15.7238 12.5 16 12.5H20.9245L12.0001 3.663ZM11.7188 3.38439C11.7186 3.38427 11.7189 3.38451 11.7188 3.38439Z" fill="black"/>
</svg>
