<svg width="24" height="24" viewBox="0 0 24 24" fill="none" xmlns="http://www.w3.org/2000/svg">
<path d="M12.9489 2.14052C12.4231 1.61983 11.5756 1.61982 11.0497 2.14052L11.9293 3.02874" fill="black"/>
<path fill-rule="evenodd" clip-rule="evenodd" d="M11.0497 2.14052L1.14904 11.9442C0.27467 12.81 0.919853 14.25 2.09865 14.25L6.74919 14.25V19C6.74919 19.6904 7.30883 20.25 7.99919 20.25H15.9992C16.6895 20.25 17.2492 19.6904 17.2492 19V14.25H21.9C23.0788 14.25 23.724 12.81 22.8496 11.9442L12.9489 2.14052M11.9993 4.71848L19.1004 11.75H15.9992C15.3088 11.75 14.7492 12.3096 14.7492 13V17.75H9.24919V13C9.24919 12.3096 8.68954 11.75 7.99919 11.75L4.89827 11.75L11.9993 4.71848ZM11.1906 3.91766C11.1904 3.91743 11.1908 3.91789 11.1906 3.91766Z" fill="black"/>
</svg>
