<svg width="24" height="24" viewBox="0 0 24 24" fill="none" xmlns="http://www.w3.org/2000/svg">
<path fill-rule="evenodd" clip-rule="evenodd" d="M12.247 2.8511C12.1109 2.7163 11.8912 2.7163 11.7551 2.8511L1.85436 12.6548C1.62954 12.8774 1.79395 13.25 2.10035 13.25L7.75089 13.25V19C7.75089 19.1381 7.86281 19.25 8.00089 19.25H16.0009C16.139 19.25 16.2509 19.1381 16.2509 19V13.25H21.9017C22.2081 13.25 22.3725 12.8774 22.1477 12.6548L12.247 2.8511ZM12.001 3.31118L21.5332 12.75H16.0009C15.8628 12.75 15.7509 12.8619 15.7509 13V18.75H8.25089V13C8.25089 12.8619 8.13896 12.75 8.00089 12.75L2.46885 12.75L12.001 3.31118ZM2.20617 13.0101C2.20605 13.0102 2.20629 13.01 2.20617 13.0101Z" fill="black"/>
</svg>
