<svg width="24" height="24" viewBox="0 0 24 24" fill="none" xmlns="http://www.w3.org/2000/svg">
<path fill-rule="evenodd" clip-rule="evenodd" d="M12.597 2.49581C12.266 2.16807 11.7324 2.16806 11.4014 2.49581L1.50073 12.2995C0.951127 12.8437 1.35593 13.75 2.09852 13.75L7.24906 13.75V19C7.24906 19.4142 7.58485 19.75 7.99906 19.75H15.9991C16.4133 19.75 16.7491 19.4142 16.7491 19V13.75H21.8999C22.6425 13.75 23.0473 12.8437 22.4977 12.2995L12.597 2.49581ZM11.9992 4.01483L20.3158 12.25H15.9991C15.5848 12.25 15.2491 12.5858 15.2491 13V18.25H8.74906V13C8.74906 12.5858 8.41327 12.25 7.99906 12.25L3.68259 12.25L11.9992 4.01483ZM2.55615 13.3654C2.5561 13.3654 2.5562 13.3654 2.55615 13.3654Z" fill="black"/>
</svg>
