<svg width="24" height="24" viewBox="0 0 24 24" fill="none" xmlns="http://www.w3.org/2000/svg">
<path d="M12.5497 12.5501C12.5497 12.2739 12.3258 12.0501 12.0497 12.0501C11.7736 12.0501 11.5497 12.2739 11.5497 12.5501V17.6001C11.5497 17.8762 11.7736 18.1001 12.0497 18.1001C12.3258 18.1001 12.5497 17.8762 12.5497 17.6001V12.5501Z" fill="black"/>
<path d="M7.65029 12.0501C7.92643 12.0501 8.15029 12.2739 8.15029 12.5501V17.6001C8.15029 17.8762 7.92643 18.1001 7.65029 18.1001C7.37415 18.1001 7.15029 17.8762 7.15029 17.6001V12.5501C7.15029 12.2739 7.37415 12.0501 7.65029 12.0501Z" fill="black"/>
<path d="M16.9501 12.5501C16.9501 12.2739 16.7262 12.0501 16.4501 12.0501C16.1739 12.0501 15.9501 12.2739 15.9501 12.5501V17.6001C15.9501 17.8762 16.1739 18.1001 16.4501 18.1001C16.7262 18.1001 16.9501 17.8762 16.9501 17.6001V12.5501Z" fill="black"/>
<path fill-rule="evenodd" clip-rule="evenodd" d="M14.4728 1.13408C14.7026 0.980901 15.013 1.04299 15.1662 1.27275L19.4177 7.65008H20.1189C21.6511 7.65008 22.8228 9.01583 22.5898 10.5302L21.1357 19.9822C20.873 21.6897 19.4039 22.95 17.6764 22.95H6.32392C4.59643 22.95 3.1273 21.6897 2.86462 19.9822L1.41047 10.5302C1.17748 9.01583 2.34918 7.65008 3.8814 7.65008H4.58258L8.83413 1.27275C8.98731 1.04299 9.29774 0.980901 9.52751 1.13408C9.75727 1.28725 9.81936 1.59769 9.66618 1.82745L5.78443 7.65008H18.2159L14.3341 1.82745C14.1809 1.59769 14.243 1.28725 14.4728 1.13408ZM4.85697 8.65008H20.1189C21.0382 8.65008 21.7412 9.46953 21.6015 10.3782L20.1473 19.8302C19.9597 21.0498 18.9103 21.95 17.6764 21.95H6.32392C5.09 21.95 4.04062 21.0498 3.853 19.8302L2.39884 10.3782C2.25905 9.46953 2.96207 8.65008 3.8814 8.65008H4.84244C4.84729 8.65015 4.85213 8.65015 4.85697 8.65008Z" fill="black"/>
</svg>
