<svg width="24" height="24" viewBox="0 0 24 24" fill="none" xmlns="http://www.w3.org/2000/svg">
<path fill-rule="evenodd" clip-rule="evenodd" d="M7.09909 5C7.56236 2.71776 9.58011 1 11.9991 1C14.418 1 16.4358 2.71776 16.8991 5H20.7939C22.0462 5 22.9904 6.13775 22.7596 7.36858L20.1346 21.3686C19.9573 22.3145 19.1313 23 18.1689 23H5.82873C4.8663 23 4.04035 22.3145 3.86299 21.3686L1.23799 7.36858C1.00721 6.13775 1.95146 5 3.20373 5H7.09909ZM8.99907 10C8.99907 10.5523 8.55136 11 7.99907 11C7.44679 11 6.99907 10.5523 6.99907 10V7H3.20373L5.82873 21H18.1689L20.7939 7H16.9991V10C16.9991 10.5523 16.5514 11 15.9991 11C15.4468 11 14.9991 10.5523 14.9991 10V7L8.99907 7V10ZM14.8284 5H9.16978C9.58161 3.83481 10.6929 3 11.9991 3C13.3053 3 14.4165 3.83481 14.8284 5Z" fill="black"/>
</svg>
