<svg width="24" height="24" viewBox="0 0 24 24" fill="none" xmlns="http://www.w3.org/2000/svg">
<path fill-rule="evenodd" clip-rule="evenodd" d="M14.6114 1.34206C14.7263 1.26547 14.8815 1.29652 14.9581 1.4114L19.2839 7.90006H20.1188C21.4978 7.90006 22.5524 9.12923 22.3427 10.4922L20.8885 19.9442C20.6446 21.5297 19.2804 22.7 17.6763 22.7H6.32387C4.71976 22.7 3.35558 21.5297 3.11166 19.9442L1.65751 10.4922C1.44782 9.12923 2.50235 7.90006 3.88134 7.90006H4.71632L9.04209 1.4114C9.11868 1.29652 9.27389 1.26547 9.38878 1.34206C9.50366 1.41865 9.5347 1.57387 9.45811 1.68875L5.31724 7.90006H18.6829L14.5421 1.68875C14.4655 1.57387 14.4965 1.41865 14.6114 1.34206ZM12.3 12.5501C12.3 12.412 12.1881 12.3001 12.05 12.3001C11.9119 12.3001 11.8 12.412 11.8 12.5501V17.6C11.8 17.7381 11.9119 17.85 12.05 17.85C12.1881 17.85 12.3 17.7381 12.3 17.6V12.5501ZM7.65057 12.3001C7.78865 12.3001 7.90057 12.412 7.90057 12.5501V17.6C7.90057 17.7381 7.78865 17.85 7.65057 17.85C7.5125 17.85 7.40057 17.7381 7.40057 17.6V12.5501C7.40057 12.412 7.5125 12.3001 7.65057 12.3001ZM16.7004 12.5501C16.7004 12.412 16.5885 12.3001 16.4504 12.3001C16.3123 12.3001 16.2004 12.412 16.2004 12.5501V17.6C16.2004 17.7381 16.3123 17.85 16.4504 17.85C16.5885 17.85 16.7004 17.7381 16.7004 17.6V12.5501Z" fill="black"/>
</svg>
