<svg width="24" height="24" viewBox="0 0 24 24" fill="none" xmlns="http://www.w3.org/2000/svg">
<path d="M13.2991 12.5509C13.2991 11.8605 12.7395 11.3009 12.0491 11.3009C11.3588 11.3009 10.7991 11.8605 10.7991 12.5509V17.6009C10.7991 18.2912 11.3588 18.8509 12.0491 18.8509C12.7395 18.8509 13.2991 18.2912 13.2991 17.6009V12.5509Z" fill="black"/>
<path d="M7.64972 11.3009C8.34007 11.3009 8.89972 11.8605 8.89972 12.5509V17.6009C8.89972 18.2912 8.34007 18.8509 7.64972 18.8509C6.95936 18.8509 6.39971 18.2912 6.39971 17.6009V12.5509C6.39971 11.8605 6.95936 11.3009 7.64972 11.3009Z" fill="black"/>
<path d="M17.6995 12.5509C17.6995 11.8605 17.1399 11.3009 16.4495 11.3009C15.7592 11.3009 15.1995 11.8605 15.1995 12.5509V17.6009C15.1995 18.2912 15.7592 18.8509 16.4495 18.8509C17.1399 18.8509 17.6995 18.2912 17.6995 17.6009V12.5509Z" fill="black"/>
<path fill-rule="evenodd" clip-rule="evenodd" d="M14.0562 0.510851C14.6306 0.127911 15.4067 0.283128 15.7896 0.857539L19.8185 6.9009H20.1183C22.1102 6.9009 23.6334 8.67637 23.3305 10.6451L21.8764 20.0971C21.5574 22.1704 19.7735 23.7009 17.6758 23.7009H6.32335C4.22567 23.7009 2.44174 22.1704 2.12277 20.0971L0.668617 10.6451C0.365737 8.67637 1.88895 6.9009 3.88082 6.9009H4.18062L8.20952 0.857539C8.59246 0.283128 9.36855 0.127911 9.94296 0.510851C10.5174 0.893792 10.6726 1.66988 10.2896 2.24429L7.18524 6.9009H16.8139L13.7095 2.24429C13.3266 1.66988 13.4818 0.893792 14.0562 0.510851ZM4.86668 9.4009H19.1325C19.1446 9.40107 19.1568 9.40107 19.1689 9.4009H20.1183C20.578 9.4009 20.9295 9.81062 20.8596 10.2649L19.4054 19.717C19.2741 20.5707 18.5395 21.2009 17.6758 21.2009H6.32335C5.4596 21.2009 4.72504 20.5707 4.5937 19.717L3.13954 10.2649C3.06965 9.81062 3.42116 9.4009 3.88082 9.4009H4.83022C4.84238 9.40107 4.85453 9.40107 4.86668 9.4009Z" fill="black"/>
</svg>
