<svg width="24" height="24" viewBox="0 0 24 24" fill="none" xmlns="http://www.w3.org/2000/svg">
<path fill-rule="evenodd" clip-rule="evenodd" d="M6.89887 4.75C7.45965 2.45399 9.5304 0.75 11.9991 0.75C14.4679 0.75 16.5386 2.45399 17.0994 4.75H20.794C22.2028 4.75 23.265 6.02997 23.0054 7.41465L20.3804 21.4146C20.1809 22.4788 19.2517 23.25 18.169 23.25H5.82881C4.74608 23.25 3.81688 22.4788 3.61735 21.4146L0.992347 7.41465C0.73272 6.02997 1.795 4.75 3.20381 4.75H6.89887ZM9.24915 10C9.24915 10.6904 8.6895 11.25 7.99915 11.25C7.30879 11.25 6.74915 10.6904 6.74915 10V7.25H3.50504L6.03629 20.75H17.9615L20.4927 7.25H17.2491V10C17.2491 10.6904 16.6895 11.25 15.9991 11.25C15.3088 11.25 14.7491 10.6904 14.7491 10V7.25H9.24915V10ZM14.4493 4.75H9.549C10.0042 3.85958 10.9305 3.25 11.9991 3.25C13.0678 3.25 13.9941 3.85958 14.4493 4.75Z" fill="black"/>
</svg>
