<svg width="24" height="24" viewBox="0 0 24 24" fill="none" xmlns="http://www.w3.org/2000/svg">
<path d="M13.2999 12.5502C13.2999 11.8598 12.7402 11.3002 12.0499 11.3002C11.3595 11.3002 10.7999 11.8598 10.7999 12.5502V17.6002C10.7999 18.2905 11.3595 18.8502 12.0499 18.8502C12.7402 18.8502 13.2999 18.2905 13.2999 17.6002V12.5502Z" fill="black"/>
<path d="M7.65045 11.3002C8.3408 11.3002 8.90045 11.8598 8.90045 12.5502V17.6002C8.90045 18.2905 8.3408 18.8502 7.65045 18.8502C6.96009 18.8502 6.40045 18.2905 6.40045 17.6002V12.5502C6.40045 11.8598 6.96009 11.3002 7.65045 11.3002Z" fill="black"/>
<path d="M17.7003 12.5502C17.7003 11.8598 17.1406 11.3002 16.4503 11.3002C15.7599 11.3002 15.2003 11.8598 15.2003 12.5502V17.6002C15.2003 18.2905 15.7599 18.8502 16.4503 18.8502C17.1406 18.8502 17.7003 18.2905 17.7003 17.6002V12.5502Z" fill="black"/>
<path fill-rule="evenodd" clip-rule="evenodd" d="M14.0569 0.510119C14.6313 0.127178 15.4074 0.282396 15.7904 0.856806L19.8193 6.90016H20.1191C22.1109 6.90016 23.6341 8.67564 23.3313 10.6444L21.8771 20.0964C21.5581 22.1697 19.7742 23.7001 17.6765 23.7001H6.32408C4.22641 23.7001 2.44247 22.1697 2.12351 20.0964L0.669349 10.6444C0.36647 8.67564 1.88968 6.90016 3.88156 6.90016H4.18135L8.21025 0.856806C8.59319 0.282396 9.36928 0.127178 9.94369 0.510119C10.5181 0.893059 10.6733 1.66915 10.2904 2.24356L7.18598 6.90016H16.8146L13.7102 2.24356C13.3273 1.66915 13.4825 0.893059 14.0569 0.510119ZM4.86741 9.40016H19.1332C19.1454 9.40034 19.1575 9.40034 19.1697 9.40016H20.1191C20.5787 9.40016 20.9302 9.80989 20.8603 10.2642L19.4062 19.7162C19.2748 20.5699 18.5403 21.2001 17.6765 21.2001H6.32408C5.46033 21.2001 4.72577 20.5699 4.59443 19.7162L3.14028 10.2642C3.07038 9.80989 3.42189 9.40016 3.88156 9.40016H4.83095C4.84311 9.40034 4.85526 9.40034 4.86741 9.40016Z" fill="black"/>
</svg>
