<svg width="24" height="24" viewBox="0 0 24 24" fill="none" xmlns="http://www.w3.org/2000/svg">
<path d="M12.5491 12.5508C12.5491 12.2747 12.3252 12.0508 12.0491 12.0508C11.7729 12.0508 11.5491 12.2747 11.5491 12.5508V17.6008C11.5491 17.8769 11.7729 18.1008 12.0491 18.1008C12.3252 18.1008 12.5491 17.8769 12.5491 17.6008V12.5508Z" fill="black"/>
<path d="M7.64968 12.0508C7.92582 12.0508 8.14968 12.2747 8.14968 12.5508V17.6008C8.14968 17.8769 7.92582 18.1008 7.64968 18.1008C7.37354 18.1008 7.14968 17.8769 7.14968 17.6008V12.5508C7.14968 12.2747 7.37354 12.0508 7.64968 12.0508Z" fill="black"/>
<path d="M16.9495 12.5508C16.9495 12.2747 16.7256 12.0508 16.4495 12.0508C16.1733 12.0508 15.9495 12.2747 15.9495 12.5508V17.6008C15.9495 17.8769 16.1733 18.1008 16.4495 18.1008C16.7256 18.1008 16.9495 17.8769 16.9495 17.6008V12.5508Z" fill="black"/>
<path fill-rule="evenodd" clip-rule="evenodd" d="M14.4722 1.13481C14.7019 0.981633 15.0124 1.04372 15.1656 1.27348L19.4171 7.65082H20.1183C21.6505 7.65082 22.8222 9.01656 22.5892 10.531L21.1351 19.983C20.8724 21.6904 19.4033 22.9508 17.6758 22.9508H6.32331C4.59581 22.9508 3.12669 21.6904 2.86401 19.983L1.40986 10.531C1.17687 9.01656 2.34857 7.65082 3.88079 7.65082H4.58197L8.83352 1.27348C8.9867 1.04372 9.29713 0.981633 9.5269 1.13481C9.75666 1.28799 9.81875 1.59842 9.66557 1.82818L5.78382 7.65082H18.2153L14.3335 1.82818C14.1803 1.59842 14.2424 1.28799 14.4722 1.13481ZM4.85636 8.65082H20.1183C21.0376 8.65082 21.7406 9.47026 21.6008 10.3789L20.1467 19.8309C19.9591 21.0505 18.9097 21.9508 17.6758 21.9508H6.32331C5.08939 21.9508 4.04001 21.0505 3.85239 19.8309L2.39823 10.3789C2.25844 9.47027 2.96146 8.65082 3.88079 8.65082H4.84183C4.84668 8.65089 4.85152 8.65089 4.85636 8.65082Z" fill="black"/>
</svg>
