<svg width="24" height="24" viewBox="0 0 24 24" fill="none" xmlns="http://www.w3.org/2000/svg">
<path fill-rule="evenodd" clip-rule="evenodd" d="M14.0567 1.01012C14.6311 0.627178 15.4072 0.782396 15.7901 1.35681L20.1901 7.95679C20.2856 8.10001 20.3476 8.25576 20.3781 8.41483C21.627 8.55723 22.539 9.71611 22.3427 10.9923L20.8885 20.4443C20.6446 22.0298 19.2804 23.2001 17.6763 23.2001H6.32387C4.71976 23.2001 3.35558 22.0298 3.11166 20.4443L1.65751 10.9923C1.46117 9.71611 2.3732 8.55722 3.62214 8.41483C3.65255 8.25576 3.71457 8.10001 3.81005 7.95679L8.21004 1.35681C8.59298 0.782396 9.36907 0.627178 9.94348 1.01012C10.5179 1.39306 10.6731 2.16915 10.2902 2.74356L6.51909 8.40017H17.4811L13.71 2.74356C13.3271 2.16915 13.4823 1.39306 14.0567 1.01012ZM13.3 13.0502C13.3 12.3598 12.7403 11.8002 12.05 11.8002C11.3596 11.8002 10.8 12.3598 10.8 13.0502V18.1002C10.8 18.7905 11.3596 19.3502 12.05 19.3502C12.7403 19.3502 13.3 18.7905 13.3 18.1002V13.0502ZM7.65057 11.8002C8.34093 11.8002 8.90057 12.3598 8.90057 13.0502V18.1002C8.90057 18.7905 8.34093 19.3502 7.65057 19.3502C6.96022 19.3502 6.40057 18.7905 6.40057 18.1002V13.0502C6.40057 12.3598 6.96022 11.8002 7.65057 11.8002ZM17.7004 13.0502C17.7004 12.3598 17.1407 11.8002 16.4504 11.8002C15.76 11.8002 15.2004 12.3598 15.2004 13.0502V18.1002C15.2004 18.7905 15.76 19.3502 16.4504 19.3502C17.1407 19.3502 17.7004 18.7905 17.7004 18.1002V13.0502Z" fill="black"/>
</svg>
