<svg width="24" height="24" viewBox="0 0 24 24" fill="none" xmlns="http://www.w3.org/2000/svg">
<path d="M12.2992 12.5508C12.2992 12.4127 12.1872 12.3008 12.0492 12.3008C11.9111 12.3008 11.7992 12.4127 11.7992 12.5508V17.6008C11.7992 17.7389 11.9111 17.8508 12.0492 17.8508C12.1872 17.8508 12.2992 17.7389 12.2992 17.6008V12.5508Z" fill="black"/>
<path d="M7.64974 12.3008C7.78782 12.3008 7.89974 12.4127 7.89974 12.5508V17.6008C7.89974 17.7389 7.78782 17.8508 7.64974 17.8508C7.51167 17.8508 7.39974 17.7389 7.39974 17.6008V12.5508C7.39974 12.4127 7.51167 12.3008 7.64974 12.3008Z" fill="black"/>
<path d="M16.6995 12.5508C16.6995 12.4127 16.5876 12.3008 16.4495 12.3008C16.3115 12.3008 16.1995 12.4127 16.1995 12.5508V17.6008C16.1995 17.7389 16.3115 17.8508 16.4495 17.8508C16.5876 17.8508 16.6995 17.7389 16.6995 17.6008V12.5508Z" fill="black"/>
<path fill-rule="evenodd" clip-rule="evenodd" d="M14.6109 1.3428C14.7258 1.26621 14.881 1.29725 14.9576 1.41213L19.2834 7.90079H20.1184C21.4973 7.90079 22.5519 9.12996 22.3422 10.4929L20.888 19.9449C20.6441 21.5304 19.2799 22.7008 17.6758 22.7008H6.32338C4.71927 22.7008 3.35509 21.5304 3.11117 19.9449L1.65702 10.4929C1.44733 9.12996 2.50186 7.90079 3.88085 7.90079H4.71583L9.0416 1.41213C9.11819 1.29725 9.27341 1.26621 9.38829 1.3428C9.50317 1.41938 9.53421 1.5746 9.45763 1.68948L5.31675 7.90079H18.6825L14.5416 1.68948C14.465 1.5746 14.496 1.41938 14.6109 1.3428ZM4.85305 8.40079H20.1184C21.1909 8.40079 22.0111 9.35681 21.848 10.4169L20.3938 19.8689C20.1875 21.2104 19.0331 22.2008 17.6758 22.2008H6.32338C4.96606 22.2008 3.81175 21.2104 3.60536 19.8689L2.1512 10.4169C1.98811 9.35681 2.8083 8.40079 3.88085 8.40079H4.84575C4.84818 8.40083 4.85061 8.40083 4.85305 8.40079Z" fill="black"/>
</svg>
