<svg width="24" height="24" viewBox="0 0 24 24" fill="none" xmlns="http://www.w3.org/2000/svg">
<path fill-rule="evenodd" clip-rule="evenodd" d="M14.3341 1.17609C14.6787 0.946326 15.1444 1.03946 15.3741 1.3841L19.7741 7.98409C19.8094 8.03701 19.8371 8.09278 19.8574 8.15011H20.1188C21.4978 8.15011 22.5524 9.37928 22.3427 10.7422L20.8885 20.1943C20.6446 21.7797 19.2804 22.9501 17.6763 22.9501H6.32387C4.71976 22.9501 3.35558 21.7797 3.11166 20.1943L1.65751 10.7422C1.44782 9.37928 2.50235 8.15011 3.88134 8.15011H4.14282C4.16313 8.09278 4.19079 8.03701 4.22607 7.98409L8.62606 1.3841C8.85583 1.03946 9.32148 0.946326 9.66613 1.17609C10.0108 1.40586 10.1039 1.87151 9.87414 2.21615L5.91817 8.15011H18.082L14.126 2.21615C13.8963 1.87151 13.9894 1.40586 14.3341 1.17609ZM12.8 12.8001C12.8 12.3859 12.4642 12.0501 12.05 12.0501C11.6358 12.0501 11.3 12.3859 11.3 12.8001V17.8501C11.3 18.2643 11.6358 18.6001 12.05 18.6001C12.4642 18.6001 12.8 18.2643 12.8 17.8501V12.8001ZM7.65057 12.0501C8.06479 12.0501 8.40057 12.3859 8.40057 12.8001V17.8501C8.40057 18.2643 8.06479 18.6001 7.65057 18.6001C7.23636 18.6001 6.90057 18.2643 6.90057 17.8501V12.8001C6.90057 12.3859 7.23636 12.0501 7.65057 12.0501ZM17.2004 12.8001C17.2004 12.3859 16.8646 12.0501 16.4504 12.0501C16.0362 12.0501 15.7004 12.3859 15.7004 12.8001V17.8501C15.7004 18.2643 16.0362 18.6001 16.4504 18.6001C16.8646 18.6001 17.2004 18.2643 17.2004 17.8501V12.8001Z" fill="black"/>
</svg>
