<svg width="24" height="24" viewBox="0 0 24 24" fill="none" xmlns="http://www.w3.org/2000/svg">
<path d="M12.7991 12.5508C12.7991 12.1366 12.4634 11.8008 12.0491 11.8008C11.6349 11.8008 11.2991 12.1366 11.2991 12.5508V17.6008C11.2991 18.015 11.6349 18.3508 12.0491 18.3508C12.4634 18.3508 12.7991 18.015 12.7991 17.6008V12.5508Z" fill="black"/>
<path d="M7.64973 11.8008C8.06394 11.8008 8.39973 12.1366 8.39973 12.5508V17.6008C8.39973 18.015 8.06394 18.3508 7.64973 18.3508C7.23552 18.3508 6.89973 18.015 6.89973 17.6008V12.5508C6.89973 12.1366 7.23552 11.8008 7.64973 11.8008Z" fill="black"/>
<path d="M17.1995 12.5508C17.1995 12.1366 16.8637 11.8008 16.4495 11.8008C16.0353 11.8008 15.6995 12.1366 15.6995 12.5508V17.6008C15.6995 18.015 16.0353 18.3508 16.4495 18.3508C16.8637 18.3508 17.1995 18.015 17.1995 17.6008V12.5508Z" fill="black"/>
<path fill-rule="evenodd" clip-rule="evenodd" d="M14.3336 0.926823C14.6782 0.697059 15.1439 0.790189 15.3736 1.13484L19.551 7.40084H20.1183C21.8038 7.40084 23.0926 8.90317 22.8364 10.569L21.3822 20.021C21.1008 21.8504 19.5267 23.2008 17.6758 23.2008H6.32336C4.47247 23.2008 2.89841 21.8504 2.61697 20.021L1.16282 10.569C0.906534 8.90317 2.1954 7.40084 3.88084 7.40084H4.44822L8.62556 1.13484C8.85532 0.790189 9.32098 0.697059 9.66562 0.926823C10.0103 1.15659 10.1034 1.62224 9.87364 1.96689L6.251 7.40084H17.7482L14.1255 1.96689C13.8958 1.62224 13.9889 1.15659 14.3336 0.926823ZM4.85984 8.90084H19.1393C19.1466 8.90095 19.1539 8.90095 19.1612 8.90084H20.1183C20.8844 8.90084 21.4703 9.58372 21.3538 10.3409L19.8996 19.7929C19.7308 20.8906 18.7863 21.7008 17.6758 21.7008H6.32336C5.21283 21.7008 4.26839 20.8906 4.09953 19.7929L2.64537 10.3409C2.52888 9.58372 3.11473 8.90084 3.88084 8.90084H4.838C4.84529 8.90095 4.85257 8.90095 4.85984 8.90084Z" fill="black"/>
</svg>
