<svg width="24" height="24" viewBox="0 0 24 24" fill="none" xmlns="http://www.w3.org/2000/svg">
<path fill-rule="evenodd" clip-rule="evenodd" d="M16.4923 5.75C16.3626 3.381 14.4005 1.5 11.9991 1.5C9.59772 1.5 7.63566 3.381 7.50594 5.75H3.2035C2.42083 5.75 1.83068 6.46109 1.97491 7.23036L4.59991 21.2304C4.71077 21.8216 5.22699 22.25 5.82851 22.25H18.1687C18.7702 22.25 19.2864 21.8216 19.3972 21.2304L22.0222 7.23036C22.1665 6.46109 21.5763 5.75 20.7937 5.75H16.4923ZM8.5079 5.75H7.50594C7.50141 5.83276 7.49911 5.91611 7.49911 6V10C7.49911 10.2761 7.72297 10.5 7.99911 10.5C8.27525 10.5 8.49911 10.2761 8.49911 10V6C8.49911 5.91594 8.50207 5.83258 8.5079 5.75ZM15.4903 5.75C15.3621 3.93368 13.8481 2.5 11.9991 2.5C10.1502 2.5 8.63609 3.93368 8.5079 5.75H15.4903ZM16.4923 5.75H15.4903C15.4961 5.83258 15.4991 5.91594 15.4991 6V10C15.4991 10.2761 15.723 10.5 15.9991 10.5C16.2753 10.5 16.4991 10.2761 16.4991 10V6C16.4991 5.91611 16.4968 5.83276 16.4923 5.75Z" fill="black"/>
</svg>
