<svg width="24" height="24" viewBox="0 0 24 24" fill="none" xmlns="http://www.w3.org/2000/svg">
<path fill-rule="evenodd" clip-rule="evenodd" d="M7.75803 5.75C7.88743 3.51916 9.73751 1.75 12.0008 1.75C14.2641 1.75 16.1142 3.51916 16.2436 5.75H20.7956C21.5783 5.75 22.1684 6.46109 22.0242 7.23036L19.3992 21.2304C19.2883 21.8216 18.7721 22.25 18.1706 22.25H5.83046C5.22894 22.25 4.71272 21.8216 4.60187 21.2304L1.97687 7.23036C1.83263 6.46109 2.42279 5.75 3.20546 5.75H7.75803ZM8.2508 10C8.2508 10.1381 8.13887 10.25 8.0008 10.25C7.86272 10.25 7.7508 10.1381 7.7508 10V6.25H3.20546C2.73586 6.25 2.38176 6.67666 2.4683 7.13822L5.0933 21.1382C5.15982 21.4929 5.46955 21.75 5.83046 21.75H18.1706C18.5315 21.75 18.8412 21.4929 18.9078 21.1382L21.5328 7.13822C21.6193 6.67666 21.2652 6.25 20.7956 6.25H16.2508V10C16.2508 10.1381 16.1389 10.25 16.0008 10.25C15.8627 10.25 15.7508 10.1381 15.7508 10V6.25H8.2508V10ZM15.7426 5.75H8.259C8.38764 3.79549 10.0137 2.25 12.0008 2.25C13.9879 2.25 15.6139 3.79549 15.7426 5.75Z" fill="black"/>
</svg>
