<svg width="24" height="24" viewBox="0 0 24 24" fill="none" xmlns="http://www.w3.org/2000/svg">
<path fill-rule="evenodd" clip-rule="evenodd" d="M17.2433 5.75C17.1128 2.96659 14.8148 0.75 11.9991 0.75C9.18342 0.75 6.88545 2.96659 6.75496 5.75H3.2035C2.42083 5.75 1.83068 6.46109 1.97491 7.23036L4.59991 21.2304C4.71077 21.8216 5.22699 22.25 5.82851 22.25H18.1687C18.7702 22.25 19.2864 21.8216 19.3972 21.2304L22.0222 7.23036C22.1665 6.46109 21.5763 5.75 20.7937 5.75H17.2433ZM9.26032 5.75H6.75496C6.75108 5.83285 6.74911 5.91619 6.74911 6V10C6.74911 10.6904 7.30876 11.25 7.99911 11.25C8.68947 11.25 9.24911 10.6904 9.24911 10V6C9.24911 5.91573 9.2529 5.83234 9.26032 5.75ZM14.7379 5.75C14.6116 4.34838 13.4336 3.25 11.9991 3.25C10.5646 3.25 9.38663 4.34838 9.26032 5.75H14.7379ZM17.2433 5.75H14.7379C14.7453 5.83234 14.7491 5.91573 14.7491 6V10C14.7491 10.6904 15.3088 11.25 15.9991 11.25C16.6895 11.25 17.2491 10.6904 17.2491 10V6C17.2491 5.91619 17.2471 5.83285 17.2433 5.75Z" fill="black"/>
</svg>
