<svg width="24" height="24" viewBox="0 0 24 24" fill="none" xmlns="http://www.w3.org/2000/svg">
<path fill-rule="evenodd" clip-rule="evenodd" d="M14.1949 1.09384C14.6544 0.787485 15.2753 0.911659 15.5816 1.37119L19.9816 7.97117C20.0456 8.06714 20.0908 8.17016 20.1181 8.27587C21.4971 8.27587 22.5519 9.50504 22.3422 10.868L20.888 20.32C20.6441 21.9055 19.2799 23.0758 17.6758 23.0758H6.32338C4.71927 23.0758 3.35509 21.9055 3.11117 20.32L1.65702 10.868C1.44733 9.50504 2.50186 8.27587 3.88085 8.27587C3.90814 8.17016 3.95359 8.06714 4.01758 7.97117L8.41756 1.37119C8.72392 0.911659 9.34479 0.787485 9.80431 1.09384C10.2638 1.40019 10.388 2.02106 10.0817 2.48059L6.21814 8.27587H17.7811L13.9175 2.48059C13.6112 2.02106 13.7354 1.40019 14.1949 1.09384ZM13.0495 12.9259C13.0495 12.3736 12.6018 11.9259 12.0495 11.9259C11.4972 11.9259 11.0495 12.3736 11.0495 12.9259V17.9759C11.0495 18.5281 11.4972 18.9759 12.0495 18.9759C12.6018 18.9759 13.0495 18.5281 13.0495 17.9759V12.9259ZM7.65009 11.9259C8.20237 11.9259 8.65009 12.3736 8.65009 12.9259V17.9759C8.65009 18.5281 8.20237 18.9759 7.65009 18.9759C7.0978 18.9759 6.65009 18.5281 6.65009 17.9759V12.9259C6.65009 12.3736 7.0978 11.9259 7.65009 11.9259ZM17.4499 12.9259C17.4499 12.3736 17.0022 11.9259 16.4499 11.9259C15.8976 11.9259 15.4499 12.3736 15.4499 12.9259V17.9759C15.4499 18.5281 15.8976 18.9759 16.4499 18.9759C17.0022 18.9759 17.4499 18.5281 17.4499 17.9759V12.9259Z" fill="black"/>
</svg>
