<svg width="24" height="24" viewBox="0 0 24 24" fill="none" xmlns="http://www.w3.org/2000/svg">
<path fill-rule="evenodd" clip-rule="evenodd" d="M14.3336 1.17682C14.6782 0.947059 15.1439 1.04019 15.3736 1.38484L19.7736 7.98482C19.8089 8.03774 19.8366 8.09351 19.8569 8.15084H20.1184C21.4973 8.15084 22.5519 9.38002 22.3422 10.743L20.888 20.195C20.6441 21.7804 19.2799 22.9508 17.6758 22.9508H6.32338C4.71927 22.9508 3.35509 21.7804 3.11117 20.195L1.65702 10.743C1.44733 9.38002 2.50186 8.15084 3.88085 8.15084H4.14233C4.16264 8.09351 4.19031 8.03774 4.22559 7.98482L8.62558 1.38484C8.85534 1.04019 9.32099 0.947059 9.66564 1.17682C10.0103 1.40659 10.1034 1.87224 9.87365 2.21689L5.91768 8.15084H18.0815L14.1256 2.21689C13.8958 1.87224 13.9889 1.40659 14.3336 1.17682ZM12.7995 12.8008C12.7995 12.3866 12.4637 12.0508 12.0495 12.0508C11.6353 12.0508 11.2995 12.3866 11.2995 12.8008V17.8508C11.2995 18.265 11.6353 18.6008 12.0495 18.6008C12.4637 18.6008 12.7995 18.265 12.7995 17.8508V12.8008ZM7.65009 12.0508C8.0643 12.0508 8.40009 12.3866 8.40009 12.8008V17.8508C8.40009 18.265 8.0643 18.6008 7.65009 18.6008C7.23587 18.6008 6.90009 18.265 6.90009 17.8508V12.8008C6.90009 12.3866 7.23587 12.0508 7.65009 12.0508ZM17.1999 12.8008C17.1999 12.3866 16.8641 12.0508 16.4499 12.0508C16.0357 12.0508 15.6999 12.3866 15.6999 12.8008V17.8508C15.6999 18.265 16.0357 18.6008 16.4499 18.6008C16.8641 18.6008 17.1999 18.265 17.1999 17.8508V12.8008Z" fill="black"/>
</svg>
