<svg width="24" height="24" viewBox="0 0 24 24" fill="none" xmlns="http://www.w3.org/2000/svg">
<path fill-rule="evenodd" clip-rule="evenodd" d="M14.4722 1.25981C14.702 1.10663 15.0124 1.16872 15.1656 1.39848L19.5656 7.99847C19.5716 8.00746 19.5773 8.01659 19.5826 8.02582H20.1184C21.4973 8.02582 22.5519 9.25499 22.3422 10.6179L20.888 20.07C20.6441 21.6554 19.2799 22.8258 17.6758 22.8258H6.32338C4.71927 22.8258 3.35509 21.6554 3.11117 20.07L1.65702 10.6179C1.44733 9.25499 2.50186 8.02582 3.88085 8.02582H4.41659C4.42193 8.01659 4.4276 8.00746 4.4336 7.99847L8.83359 1.39848C8.98676 1.16872 9.2972 1.10663 9.52696 1.25981C9.75673 1.41299 9.81882 1.72342 9.66564 1.95318L5.61722 8.02582H18.382L14.3336 1.95318C14.1804 1.72342 14.2425 1.41299 14.4722 1.25981ZM12.5495 12.6758C12.5495 12.3997 12.3256 12.1758 12.0495 12.1758C11.7734 12.1758 11.5495 12.3997 11.5495 12.6758V17.7258C11.5495 18.0019 11.7734 18.2258 12.0495 18.2258C12.3256 18.2258 12.5495 18.0019 12.5495 17.7258V12.6758ZM7.65009 12.1758C7.92623 12.1758 8.15009 12.3997 8.15009 12.6758V17.7258C8.15009 18.0019 7.92623 18.2258 7.65009 18.2258C7.37394 18.2258 7.15009 18.0019 7.15009 17.7258V12.6758C7.15009 12.3997 7.37394 12.1758 7.65009 12.1758ZM16.9499 12.6758C16.9499 12.3997 16.726 12.1758 16.4499 12.1758C16.1737 12.1758 15.9499 12.3997 15.9499 12.6758V17.7258C15.9499 18.0019 16.1737 18.2258 16.4499 18.2258C16.726 18.2258 16.9499 18.0019 16.9499 17.7258V12.6758Z" fill="black"/>
</svg>
