<svg width="24" height="24" viewBox="0 0 24 24" fill="none" xmlns="http://www.w3.org/2000/svg">
<path fill-rule="evenodd" clip-rule="evenodd" d="M16.7426 5.75C16.6126 3.24286 14.5386 1.25 11.9991 1.25C9.45962 1.25 7.38558 3.24286 7.25558 5.75H3.2035C2.42083 5.75 1.83068 6.46109 1.97491 7.23036L4.59991 21.2304C4.71077 21.8216 5.22699 22.25 5.82851 22.25H18.1687C18.7702 22.25 19.2864 21.8216 19.3972 21.2304L22.0222 7.23036C22.1665 6.46109 21.5763 5.75 20.7937 5.75H16.7426ZM8.75858 5.75H7.25558C7.25129 5.83279 7.24911 5.91614 7.24911 6V10C7.24911 10.4142 7.5849 10.75 7.99911 10.75C8.41332 10.75 8.74911 10.4142 8.74911 10V6C8.74911 5.91588 8.75231 5.83251 8.75858 5.75ZM15.2396 5.75C15.112 4.07189 13.7099 2.75 11.9991 2.75C10.2883 2.75 8.88624 4.07189 8.75858 5.75H15.2396ZM16.7426 5.75H15.2396C15.2459 5.83251 15.2491 5.91588 15.2491 6V10C15.2491 10.4142 15.5849 10.75 15.9991 10.75C16.4133 10.75 16.7491 10.4142 16.7491 10V6C16.7491 5.91614 16.7469 5.83279 16.7426 5.75Z" fill="black"/>
</svg>
