<svg width="24" height="24" viewBox="0 0 24 24" fill="none" xmlns="http://www.w3.org/2000/svg">
<path fill-rule="evenodd" clip-rule="evenodd" d="M14.0562 1.01085C14.6306 0.627911 15.4067 0.783128 15.7897 1.35754L20.1896 7.95752C20.2851 8.10074 20.3472 8.25649 20.3776 8.41556C21.6265 8.55796 22.5385 9.71685 22.3422 10.993L20.888 20.445C20.6441 22.0305 19.2799 23.2009 17.6758 23.2009H6.32338C4.71928 23.2009 3.35509 22.0305 3.11117 20.445L1.65702 10.993C1.46068 9.71685 2.37271 8.55796 3.62165 8.41556C3.65206 8.25649 3.71409 8.10074 3.80956 7.95752L8.20955 1.35754C8.59249 0.783128 9.36858 0.627911 9.94299 1.01085C10.5174 1.39379 10.6726 2.16988 10.2897 2.74429L6.5186 8.4009H17.4806L13.7095 2.74429C13.3266 2.16988 13.4818 1.39379 14.0562 1.01085ZM13.2995 13.0509C13.2995 12.3605 12.7399 11.8009 12.0495 11.8009C11.3591 11.8009 10.7995 12.3605 10.7995 13.0509V18.1009C10.7995 18.7912 11.3591 19.3509 12.0495 19.3509C12.7399 19.3509 13.2995 18.7912 13.2995 18.1009V13.0509ZM7.65009 11.8009C8.34044 11.8009 8.90009 12.3605 8.90009 13.0509V18.1009C8.90009 18.7912 8.34044 19.3509 7.65009 19.3509C6.95973 19.3509 6.40009 18.7912 6.40009 18.1009V13.0509C6.40009 12.3605 6.95973 11.8009 7.65009 11.8009ZM17.6999 13.0509C17.6999 12.3605 17.1402 11.8009 16.4499 11.8009C15.7595 11.8009 15.1999 12.3605 15.1999 13.0509V18.1009C15.1999 18.7912 15.7595 19.3509 16.4499 19.3509C17.1402 19.3509 17.6999 18.7912 17.6999 18.1009V13.0509Z" fill="black"/>
</svg>
