<svg width="24" height="24" viewBox="0 0 24 24" fill="none" xmlns="http://www.w3.org/2000/svg">
<path fill-rule="evenodd" clip-rule="evenodd" d="M19.2985 0.154297L18.3785 2.45605C18.3446 2.54175 18.36 2.63957 18.4196 2.70996C18.4795 2.78024 18.5745 2.81277 18.6647 2.79297L23.1696 1.79102L22.9078 2.1709C20.0269 6.33197 15.8062 9.38042 10.9508 10.8086C9.94277 11.1048 8.89044 10.5026 8.63538 9.4834L7.50745 4.97754L19.2985 0.154297ZM15.191 4.06152C15.191 4.37624 15.4466 4.63184 15.7614 4.63184C16.076 4.63177 16.3307 4.3762 16.3307 4.06152C16.3304 3.74706 16.0759 3.49226 15.7614 3.49219C15.4468 3.49219 15.1913 3.74701 15.191 4.06152Z" fill="black"/>
<path d="M18.36 15.0537V18.7588C18.3599 19.6056 17.9832 20.41 17.3326 20.9521C15.8902 22.1539 14.0715 22.8125 12.194 22.8125H11.4518V20.8984L18.36 15.0537Z" fill="black"/>
<path d="M6.94983 18.4785L7.39319 18.8105C8.33003 19.5124 9.3982 20.0207 10.5338 20.3047C10.7791 20.366 10.9516 20.5861 10.9518 20.8389V22.6455C10.9516 23.0139 10.6251 23.2979 10.2604 23.2461C8.35923 22.9743 6.59622 22.093 5.23792 20.7354L4.78479 20.2832L6.94983 18.4785Z" fill="black"/>
<path d="M1.49768 9.29004C1.11583 9.02553 1.06723 8.47921 1.39514 8.15039C2.6804 6.86525 4.27258 5.92819 6.02014 5.42871L7.02502 5.14063L8.09827 9.9668L7.59143 13.5098L1.49768 9.29004Z" fill="black"/>
<path d="M6.44885 15.9053L6.93225 17.8408L4.12854 20.1787C3.94802 20.3288 3.68237 20.3173 3.51624 20.1514C2.71885 19.3539 2.11705 18.3814 1.76038 17.3115L1.29163 15.9053H6.44885Z" fill="black"/>
<path d="M0.0552979 14.7617C0.0552982 13.5055 0.310716 12.2612 0.805298 11.1064L1.36194 9.80469L6.49866 13.3604L6.90784 15.4053L0.685181 15.4043C0.336461 15.3969 0.0557533 15.1121 0.0552979 14.7617Z" fill="black"/>
</svg>
