<svg width="24" height="24" viewBox="0 0 24 24" fill="none" xmlns="http://www.w3.org/2000/svg">
<path d="M14.75 5.00013C14.75 4.72399 14.9739 4.50013 15.25 4.50013C15.5261 4.50013 15.75 4.72399 15.75 5.00013C15.7499 5.27617 15.5261 5.50013 15.25 5.50013C14.9739 5.50013 14.7501 5.27617 14.75 5.00013Z" fill="black"/>
<path fill-rule="evenodd" clip-rule="evenodd" d="M1 14.3878C1.00002 13.222 1.23728 12.0679 1.69629 10.9962L2.22949 9.74916C1.88369 9.31621 1.89812 8.67063 2.31348 8.25502C3.49777 7.07084 4.96488 6.2083 6.57519 5.74818L7.66504 5.43666L18.3057 1.08314C18.356 1.06256 18.4101 1.04041 18.4551 1.0265C18.4835 1.01773 18.5402 1.00147 18.6074 1.00697L18.6777 1.02064L18.752 1.0558C18.8215 1.09842 18.875 1.16429 18.9014 1.2433C18.9332 1.33954 18.9088 1.42818 18.8975 1.46595C18.8839 1.51099 18.8619 1.56502 18.8418 1.61537L18.1582 3.32435L22.0254 2.46595L22.0771 2.45814C22.3331 2.44181 22.5111 2.7348 22.3564 2.95814L21.9062 3.60756C19.3173 7.34689 15.5254 10.0868 11.1621 11.3703C10.317 11.6187 9.44447 11.3084 8.93164 10.6622L8.53418 13.4513C8.52885 13.4886 8.52255 13.5339 8.51367 13.5714C8.50473 13.609 8.48495 13.6772 8.42969 13.7365C8.36397 13.8065 8.27185 13.8473 8.17578 13.8478C8.0944 13.8482 8.03069 13.816 7.99707 13.797C7.96336 13.7779 7.92562 13.7521 7.89453 13.7306L7.6875 13.588L7.95703 14.9318C7.96269 14.9601 7.97001 14.9977 7.97363 15.0304C7.97749 15.0656 7.98085 15.1234 7.95898 15.1867C7.93165 15.2652 7.87643 15.3321 7.80469 15.3742C7.74678 15.4079 7.68941 15.416 7.6543 15.4191C7.62667 15.4215 7.59561 15.4219 7.56934 15.422L7.97168 17.0265L7.9873 17.1271L7.98438 17.1867C7.97563 17.2452 7.9515 17.3013 7.91504 17.3488C7.91336 17.3509 7.91086 17.3526 7.90918 17.3546L8.18945 17.5646C8.96172 18.1432 9.84215 18.562 10.7783 18.796C11.0353 18.8604 11.2441 19.0266 11.3701 19.2443L17.4473 14.1007C17.6654 13.9162 17.9999 14.0709 18 14.3566V17.8966C17.9998 18.7788 17.6074 19.616 16.9297 20.1808C15.5796 21.3057 13.8774 21.922 12.1201 21.922H11.2871C11.075 22.1924 10.7284 22.35 10.3574 22.297C8.58856 22.0443 6.94932 21.2242 5.68555 19.9611L5.27637 19.5538C4.9354 19.7859 4.47114 19.7464 4.17383 19.4494C3.42276 18.6982 2.85652 17.7822 2.52051 16.7745L2.06934 15.422H2.03418C1.46325 15.422 1.00027 14.9587 1 14.3878ZM9.02734 9.74916C9.24698 10.6266 10.1527 11.1459 11.0205 10.8908C15.2742 9.63969 18.9712 6.9687 21.4951 3.32338L21.6807 3.05482L17.8047 3.91615C17.7144 3.93617 17.6196 3.90442 17.5596 3.83412C17.4997 3.76365 17.4835 3.66516 17.5176 3.57924L18.2988 1.62611L8.04394 5.82142L9.02734 9.74916ZM12.1201 21.422C13.7606 21.422 15.3501 20.8471 16.6104 19.797C17.1741 19.3272 17.4998 18.6304 17.5 17.8966V14.7111L11.5 19.7872V21.422H12.1201ZM6.03906 19.6076C7.22626 20.7942 8.76607 21.5644 10.4277 21.8019C10.7294 21.8449 10.9997 21.6104 11 21.3058V19.7208C11 19.5132 10.8586 19.332 10.6572 19.2814C9.65648 19.0312 8.71519 18.5835 7.88965 17.965L7.52051 17.6886L5.66504 19.2355L6.03906 19.6076ZM2.66699 8.60853C2.3923 8.88353 2.43331 9.34038 2.75293 9.56166L8.05957 13.2355L8.49609 10.1828L7.5625 5.98451L6.71191 6.22865C5.18336 6.66543 3.79116 7.48448 2.66699 8.60853ZM2.99512 16.6163C3.30659 17.5504 3.83117 18.3996 4.52734 19.0958C4.66194 19.2302 4.87723 19.2399 5.02344 19.1183L7.46875 17.0802L7.05469 15.422H2.59668L2.99512 16.6163ZM1.5 14.3878C1.50027 14.6826 1.7394 14.922 2.03418 14.922H7.44531L7.0957 13.1779L2.62891 10.0851L2.15527 11.1935C1.72302 12.2028 1.50002 13.2898 1.5 14.3878Z" fill="black"/>
</svg>
