<svg width="24" height="24" viewBox="0 0 24 24" fill="none" xmlns="http://www.w3.org/2000/svg">
<path d="M14.75 5.00026C14.75 4.72411 14.9739 4.50026 15.25 4.50026C15.5261 4.50026 15.75 4.72411 15.75 5.00026C15.7499 5.27629 15.5261 5.50026 15.25 5.50026C14.9739 5.50026 14.7501 5.27629 14.75 5.00026Z" fill="black"/>
<path fill-rule="evenodd" clip-rule="evenodd" d="M1 14.388C1.00002 13.2221 1.23728 12.068 1.69629 10.9964L2.22949 9.74928C1.88369 9.31633 1.89812 8.67075 2.31348 8.25514C3.49777 7.07096 4.96488 6.20842 6.57519 5.7483L7.66504 5.43678L18.3057 1.08326C18.356 1.06268 18.4101 1.04053 18.4551 1.02662C18.4835 1.01786 18.5402 1.00159 18.6074 1.00709L18.6777 1.02076L18.752 1.05592C18.8215 1.09854 18.875 1.16441 18.9014 1.24342C18.9332 1.33967 18.9088 1.4283 18.8975 1.46608C18.8839 1.51112 18.8619 1.56514 18.8418 1.61549L18.1582 3.32447L22.0254 2.46608L22.0771 2.45826C22.3331 2.44193 22.5111 2.73492 22.3564 2.95826L21.9062 3.60768C19.3173 7.34701 15.5254 10.087 11.1621 11.3704C10.317 11.6189 9.44447 11.3086 8.93164 10.6624L8.53418 13.4514C8.52885 13.4888 8.52255 13.534 8.51367 13.5715C8.50473 13.6091 8.48495 13.6774 8.42969 13.7366C8.36397 13.8067 8.27185 13.8474 8.17578 13.8479C8.0944 13.8483 8.03069 13.8161 7.99707 13.7971C7.96336 13.7781 7.92562 13.7522 7.89453 13.7307L7.6875 13.5881L7.95703 14.9319C7.96269 14.9602 7.97001 14.9978 7.97363 15.0305C7.97749 15.0658 7.98085 15.1236 7.95898 15.1868C7.93165 15.2653 7.87643 15.3322 7.80469 15.3743C7.74678 15.4081 7.68941 15.4161 7.6543 15.4192C7.62667 15.4216 7.59561 15.4221 7.56934 15.4221L7.97168 17.0266L7.9873 17.1272L7.98438 17.1868C7.97563 17.2453 7.9515 17.3015 7.91504 17.3489C7.91336 17.351 7.91086 17.3527 7.90918 17.3547L8.18945 17.5647C8.96172 18.1433 9.84215 18.5621 10.7783 18.7962C11.0353 18.8605 11.2441 19.0267 11.3701 19.2444L17.4473 14.1008C17.6654 13.9163 17.9999 14.071 18 14.3567V17.8967C17.9998 18.779 17.6074 19.6161 16.9297 20.1809C15.5796 21.3058 13.8774 21.9221 12.1201 21.9221H11.2871C11.075 22.1925 10.7284 22.3501 10.3574 22.2971C8.58856 22.0444 6.94932 21.2244 5.68555 19.9612L5.27637 19.554C4.9354 19.786 4.47114 19.7465 4.17383 19.4495C3.42276 18.6983 2.85652 17.7823 2.52051 16.7747L2.06934 15.4221H2.03418C1.46325 15.4221 1.00027 14.9588 1 14.388ZM9.02734 9.74928C9.24698 10.6267 10.1527 11.146 11.0205 10.8909C15.2742 9.63981 18.9712 6.96882 21.4951 3.3235L21.6807 3.05494L17.8047 3.91627C17.7144 3.93629 17.6196 3.90454 17.5596 3.83424C17.4997 3.76377 17.4835 3.66528 17.5176 3.57936L18.2988 1.62623L8.04394 5.82155L9.02734 9.74928ZM12.1201 21.4221C13.7606 21.4221 15.3501 20.8473 16.6104 19.7971C17.1741 19.3273 17.4998 18.6306 17.5 17.8967V14.7112L11.5 19.7874V21.4221H12.1201ZM6.03906 19.6077C7.22626 20.7943 8.76607 21.5646 10.4277 21.802C10.7294 21.8451 10.9997 21.6106 11 21.3059V19.721C11 19.5133 10.8586 19.3321 10.6572 19.2815C9.65648 19.0313 8.71519 18.5836 7.88965 17.9651L7.52051 17.6887L5.66504 19.2356L6.03906 19.6077ZM2.66699 8.60865C2.3923 8.88365 2.43331 9.3405 2.75293 9.56178L8.05957 13.2356L8.49609 10.1829L7.5625 5.98463L6.71191 6.22877C5.18336 6.66556 3.79116 7.48461 2.66699 8.60865ZM2.99512 16.6165C3.30659 17.5505 3.83117 18.3997 4.52734 19.096C4.66194 19.2303 4.87723 19.24 5.02344 19.1184L7.46875 17.0803L7.05469 15.4221H2.59668L2.99512 16.6165ZM1.5 14.388C1.50027 14.6827 1.7394 14.9221 2.03418 14.9221H7.44531L7.0957 13.178L2.62891 10.0852L2.15527 11.1936C1.72302 12.2029 1.50002 13.29 1.5 14.388Z" fill="black"/>
</svg>
