<svg width="24" height="24" viewBox="0 0 24 24" fill="none" xmlns="http://www.w3.org/2000/svg">
<path fill-rule="evenodd" clip-rule="evenodd" d="M19.0482 0.304688L18.3275 2.10645C18.2571 2.28308 18.2903 2.48494 18.4135 2.62988C18.5368 2.77455 18.7308 2.84006 18.9164 2.79883L22.8998 1.91309C19.9772 6.06138 15.7373 9.10215 10.8656 10.5352C9.97028 10.7985 9.03482 10.2635 8.80798 9.3584L7.70447 4.94531L19.0482 0.304688ZM15.2924 3.85156C15.2924 4.17481 15.5551 4.4375 15.8783 4.4375C16.2014 4.43735 16.4633 4.17472 16.4633 3.85156C16.4631 3.52851 16.2013 3.26675 15.8783 3.2666C15.5551 3.2666 15.2925 3.52842 15.2924 3.85156Z" fill="black"/>
<path d="M18.2904 15.6953V18.9482C18.2901 19.7416 17.9379 20.495 17.3285 21.0029C15.8931 22.1989 14.0826 22.8544 12.2142 22.8545H11.7094V21.2646L18.2904 15.6953Z" fill="black"/>
<path d="M6.83728 18.9863L7.12927 19.2051C8.11898 19.9466 9.24791 20.4832 10.4476 20.7832C10.5851 20.8178 10.6819 20.9422 10.682 21.084V22.9395C10.6815 23.1614 10.4848 23.332 10.265 23.3008C8.36719 23.0296 6.60729 22.1501 5.25134 20.7949L4.98572 20.5293L6.83728 18.9863Z" fill="black"/>
<path d="M1.37537 9.01074C1.11451 8.83015 1.08088 8.45686 1.30505 8.23242C2.5945 6.94307 4.19139 6.00391 5.9447 5.50293L6.71619 5.28223L7.74744 9.92676L7.29333 13.1074L1.37537 9.01074Z" fill="black"/>
<path d="M6.11267 16.2734L6.52185 17.9111L3.86169 20.1289L3.76501 20.21C3.68178 20.2782 3.55928 20.2721 3.48279 20.1963C2.69205 19.4055 2.09532 18.4398 1.74158 17.3789L1.37341 16.2734H6.11267Z" fill="black"/>
<path d="M0.00427246 14.8418C0.00427278 13.5863 0.259011 12.3426 0.753296 11.1885L1.20154 10.1406L6.13416 13.5557L6.47205 15.2451H0.398804C0.180294 15.2401 0.00493293 15.0613 0.00427246 14.8418Z" fill="black"/>
</svg>
