<svg width="24" height="24" viewBox="0 0 24 24" fill="none" xmlns="http://www.w3.org/2000/svg">
<path d="M14.75 5.00041C14.75 4.72427 14.9739 4.50041 15.25 4.50041C15.5261 4.50041 15.75 4.72427 15.75 5.00041C15.7498 5.27638 15.526 5.50041 15.25 5.50041C14.974 5.50041 14.7502 5.27638 14.75 5.00041Z" fill="black"/>
<path fill-rule="evenodd" clip-rule="evenodd" d="M0.75 14.3871C0.75006 13.1874 0.993408 11.9997 1.46582 10.8969L1.94434 9.77873C1.61686 9.25593 1.66772 8.54656 2.13672 8.07756C3.35105 6.8634 4.85473 5.97803 6.50586 5.50627L7.58301 5.19963L18.2109 0.850998C18.2566 0.83231 18.3228 0.805491 18.3809 0.787522C18.4137 0.777393 18.5086 0.747514 18.6279 0.757248L18.7549 0.782639L18.8203 0.80803C18.9487 0.867093 19.0521 0.970171 19.1123 1.09807L19.1387 1.1635L19.165 1.28947C19.1759 1.40876 19.1467 1.50439 19.1367 1.53752C19.1192 1.59566 19.0925 1.66164 19.0742 1.70744L18.5654 2.97697L21.9707 2.22112L22.0645 2.20744C22.5207 2.179 22.8369 2.70063 22.5615 3.09905L22.1123 3.74944C19.4908 7.53602 15.6507 10.3102 11.2324 11.6098C10.4682 11.8346 9.68517 11.65 9.10938 11.1899L8.78125 13.4858C8.77658 13.5185 8.76904 13.5778 8.75684 13.6293C8.74469 13.6804 8.71239 13.7994 8.6123 13.9067C8.49954 14.0272 8.34179 14.0963 8.17676 14.0971C8.12678 14.0973 8.08131 14.0902 8.04102 14.0805L8.20215 14.8822C8.20697 14.9063 8.21753 14.9563 8.22266 15.0024C8.22825 15.0531 8.23451 15.1532 8.19531 15.267C8.1486 15.4021 8.05488 15.5169 7.93164 15.5893C7.91304 15.6002 7.89403 15.6086 7.87598 15.6166L8.21387 16.9653C8.21458 16.9677 8.23527 17.0415 8.2373 17.1196C8.23859 17.1722 8.2309 17.2243 8.21875 17.2748L8.33887 17.3637C9.08454 17.9224 9.93492 18.3271 10.8389 18.5531C11.0616 18.6089 11.2553 18.7263 11.4072 18.8822L17.2861 13.9086L17.3594 13.8559C17.737 13.6219 18.2496 13.8886 18.25 14.3559V17.8959C18.2499 18.8524 17.8246 19.7601 17.0898 20.3725C15.6948 21.5349 13.936 22.1713 12.1201 22.1713H11.4004C11.1328 22.4494 10.7401 22.603 10.3223 22.5434C8.49995 22.283 6.81078 21.4394 5.50879 20.1381L5.23145 19.8617C4.82035 20.0393 4.32841 19.9568 3.99707 19.6254C3.21853 18.8468 2.63145 17.8975 2.2832 16.853L1.88574 15.6625C1.24652 15.5889 0.75 15.0461 0.75 14.3871ZM9.26953 9.68791C9.45452 10.4279 10.2185 10.865 10.9502 10.6498C15.0479 9.44455 18.621 6.90419 21.1064 3.43791L17.8584 4.15959C17.6776 4.19974 17.4892 4.13657 17.3691 3.99553C17.2492 3.85428 17.2173 3.65783 17.2861 3.48576L17.8477 2.07951L8.33984 5.97014L9.26953 9.68791ZM12.1201 21.1713C13.7022 21.1713 15.2348 20.6167 16.4502 19.6039C16.9569 19.1815 17.2499 18.5556 17.25 17.8959V15.2485L11.75 19.9028V21.1713H12.1201ZM6.21582 19.4301C7.36488 20.5787 8.85552 21.3243 10.4639 21.5541C10.6149 21.5754 10.75 21.4577 10.75 21.3051V19.7201C10.7498 19.6273 10.6867 19.5456 10.5967 19.5229C9.56357 19.2646 8.59147 18.803 7.73926 18.1645L7.52832 18.0072L6.03516 19.2514L6.21582 19.4301ZM2.84375 8.78459C2.67919 8.94916 2.70341 9.22322 2.89453 9.35588L7.86914 12.7992L8.24121 10.1908L7.37598 6.29729L6.78027 6.46819C5.2927 6.89329 3.93781 7.6907 2.84375 8.78459ZM3.23242 16.5365C3.53157 17.4339 4.03534 18.2495 4.7041 18.9184C4.74721 18.9615 4.81631 18.965 4.86328 18.9262L7.18848 16.9867L6.85938 15.6713H2.94434L3.23242 16.5365ZM1.75 14.3871C1.75 14.544 1.8773 14.6713 2.03418 14.6713H7.14062L6.87012 13.3246L2.73926 10.4643L2.38574 11.2905C1.96664 12.2688 1.75006 13.3228 1.75 14.3871Z" fill="black"/>
</svg>
