<svg width="24" height="24" viewBox="0 0 24 24" fill="none" xmlns="http://www.w3.org/2000/svg">
<path fill-rule="evenodd" clip-rule="evenodd" d="M18.8158 0.539062L18.2083 2.05957C18.1203 2.28037 18.1619 2.53171 18.3158 2.71289C18.4699 2.89408 18.7115 2.97537 18.9437 2.92383L22.6029 2.11035C19.7047 6.09699 15.5662 9.01859 10.8285 10.4121C10.003 10.6547 9.14182 10.1617 8.93295 9.32715L7.8558 5.02148L18.8158 0.539062ZM15.2923 3.85254C15.2924 4.17576 15.555 4.4375 15.8783 4.4375C16.2014 4.43735 16.4632 4.17567 16.4632 3.85254C16.4632 3.52939 16.2014 3.26773 15.8783 3.26758C15.555 3.26758 15.2923 3.5293 15.2923 3.85254Z" fill="black"/>
<path d="M18.1624 15.9717V18.9473C18.1624 19.7027 17.8267 20.4196 17.2464 20.9033C15.834 22.0804 14.0528 22.7255 12.2142 22.7256H11.8372V21.3232L18.1624 15.9717Z" fill="black"/>
<path d="M6.84213 19.1494L7.05307 19.3076C8.05652 20.0595 9.19995 20.604 10.4164 20.9082C10.4967 20.9284 10.5539 21.0011 10.554 21.084V22.9395C10.5539 23.0834 10.4261 23.1938 10.2835 23.1738C8.41303 22.9066 6.6785 22.0399 5.34213 20.7041L5.17612 20.5381L6.84213 19.1494Z" fill="black"/>
<path d="M1.4476 8.90625C1.25271 8.77116 1.22819 8.49097 1.39584 8.32324C2.66983 7.04942 4.24757 6.12093 5.97983 5.62598L6.61948 5.44238L7.61655 9.93067L7.19467 12.8838L7.17612 12.8711L6.96323 12.7227L1.4476 8.90625Z" fill="black"/>
<path d="M6.01205 16.4004L6.37827 17.8633L3.68393 20.1104C3.65154 20.1373 3.60347 20.1351 3.57358 20.1055C2.79678 19.3286 2.21104 18.3811 1.86362 17.3389L1.55112 16.4004H6.01205Z" fill="black"/>
<path d="M0.132172 14.8408C0.132251 13.6026 0.383864 12.3764 0.871429 11.2383L1.25717 10.3359L6.01889 13.6309L6.31674 15.1162H0.408539C0.256227 15.1162 0.132242 14.9931 0.132172 14.8408Z" fill="black"/>
</svg>
