<svg width="24" height="24" viewBox="0 0 24 24" fill="none" xmlns="http://www.w3.org/2000/svg">
<path fill-rule="evenodd" clip-rule="evenodd" d="M18.8154 0.538589L18.208 2.0591C18.12 2.2799 18.1615 2.53123 18.3154 2.71242C18.4696 2.8936 18.7111 2.9749 18.9434 2.92336L22.6025 2.10988C19.7044 6.09652 15.5658 9.01812 10.8281 10.4116C10.0027 10.6542 9.14148 10.1613 8.93262 9.32668L7.85547 5.02101L18.8154 0.538589ZM15.292 3.85207C15.292 4.17529 15.5547 4.43703 15.8779 4.43703C16.201 4.43688 16.4629 4.17519 16.4629 3.85207C16.4629 3.52891 16.201 3.26725 15.8779 3.26711C15.5547 3.26711 15.292 3.52882 15.292 3.85207Z" fill="black"/>
<path d="M18.1621 15.9712V18.9468C18.1621 19.7022 17.8263 20.4191 17.2461 20.9028C15.8337 22.0799 14.0524 22.7251 12.2139 22.7251H11.8369V21.3228L18.1621 15.9712Z" fill="black"/>
<path d="M6.8418 19.1489L7.05273 19.3071C8.05618 20.059 9.19961 20.6036 10.416 20.9077C10.4964 20.9279 10.5536 21.0006 10.5537 21.0835V22.939C10.5535 23.083 10.4258 23.1933 10.2832 23.1734C8.41269 22.9061 6.67816 22.0394 5.3418 20.7036L5.17578 20.5376L6.8418 19.1489Z" fill="black"/>
<path d="M1.44727 8.90578C1.25238 8.77069 1.22785 8.4905 1.39551 8.32277C2.6695 7.04894 4.24723 6.12046 5.97949 5.6255L6.61914 5.44191L7.61621 9.93019L7.19434 12.8833L7.17578 12.8706L6.96289 12.7222L1.44727 8.90578Z" fill="black"/>
<path d="M6.01172 16.3999L6.37793 17.8628L3.68359 20.1099C3.6512 20.1368 3.60314 20.1346 3.57324 20.105C2.79644 19.3281 2.2107 18.3806 1.86328 17.3384L1.55078 16.3999H6.01172Z" fill="black"/>
<path d="M0.131836 14.8403C0.131916 13.6022 0.383529 12.376 0.871094 11.2378L1.25684 10.3355L6.01855 13.6304L6.31641 15.1157H0.408203C0.255891 15.1157 0.131906 14.9926 0.131836 14.8403Z" fill="black"/>
</svg>
