<svg width="24" height="24" viewBox="0 0 24 24" fill="none" xmlns="http://www.w3.org/2000/svg">
<path fill-rule="evenodd" clip-rule="evenodd" d="M18.585 0.770645L18.0889 2.01088C17.983 2.27593 18.033 2.5785 18.2178 2.79604C18.4028 3.01325 18.6931 3.11087 18.9717 3.04897L22.2939 2.30971C19.4238 6.13221 15.3924 8.93508 10.792 10.2882C10.0365 10.5103 9.24769 10.059 9.05664 9.29506L8.00684 5.09779L18.585 0.770645ZM15.292 3.8517C15.292 4.17494 15.5547 4.43764 15.8779 4.43764C16.201 4.43749 16.4629 4.17485 16.4629 3.8517C16.4627 3.5287 16.2009 3.26689 15.8779 3.26674C15.5548 3.26674 15.2922 3.52861 15.292 3.8517Z" fill="black"/>
<path d="M18.0342 16.2482V18.9474C18.0342 19.6647 17.715 20.3455 17.1641 20.8048C15.7747 21.9625 14.0223 22.5968 12.2139 22.5968H11.9658V21.3829L18.0342 16.2482Z" fill="black"/>
<path d="M6.8457 19.3126L6.97559 19.4103C7.99282 20.1724 9.15261 20.7241 10.3857 21.0324C10.4088 21.0384 10.4248 21.0602 10.4248 21.0841V22.9396C10.4244 23.0054 10.366 23.0562 10.3008 23.047C8.45787 22.7837 6.7493 21.9295 5.43262 20.6134L5.36523 20.547L6.8457 19.3126Z" fill="black"/>
<path d="M1.52051 8.79897C1.39141 8.70947 1.37523 8.52432 1.48633 8.41322C2.74487 7.15488 4.30342 6.23713 6.01465 5.74818L6.52344 5.60268L7.48633 9.93471L7.09668 12.6593L1.52051 8.79897Z" fill="black"/>
<path d="M5.91211 16.5294L6.2334 17.8165L3.63477 19.9835C2.88696 19.2265 2.32202 18.3078 1.98535 17.298L1.72852 16.5294H5.91211Z" fill="black"/>
<path d="M0.260742 14.841C0.260748 13.62 0.508471 12.4115 0.989258 11.2892L1.31348 10.5304L5.90234 13.7072L6.15918 14.9884H0.408203C0.326827 14.9884 0.260861 14.9223 0.260742 14.841Z" fill="black"/>
</svg>
