<svg width="24" height="24" viewBox="0 0 24 24" fill="none" xmlns="http://www.w3.org/2000/svg">
<path fill-rule="evenodd" clip-rule="evenodd" d="M19.0479 0.304916L18.3271 2.10667C18.2567 2.2833 18.29 2.48517 18.4131 2.63011C18.5364 2.77478 18.7304 2.84029 18.916 2.79906L22.8994 1.91331C19.9768 6.06161 15.7369 9.10238 10.8652 10.5354C9.96991 10.7987 9.03446 10.2637 8.80762 9.35863L7.7041 4.94554L19.0479 0.304916ZM15.292 3.85179C15.292 4.17504 15.5547 4.43773 15.8779 4.43773C16.201 4.43758 16.4629 4.17494 16.4629 3.85179C16.4628 3.52874 16.201 3.26698 15.8779 3.26683C15.5548 3.26683 15.2921 3.52865 15.292 3.85179Z" fill="black"/>
<path d="M18.29 15.6955V18.9485C18.2897 19.7418 17.9376 20.4952 17.3281 21.0032C15.8927 22.1991 14.0822 22.8547 12.2139 22.8547H11.709V21.2649L18.29 15.6955Z" fill="black"/>
<path d="M6.83691 18.9866L7.12891 19.2053C8.11862 19.9468 9.24754 20.4834 10.4473 20.7834C10.5848 20.818 10.6816 20.9424 10.6816 21.0842V22.9397C10.6811 23.1616 10.4845 23.3322 10.2646 23.301C8.36682 23.0299 6.60693 22.1504 5.25098 20.7952L4.98535 20.5295L6.83691 18.9866Z" fill="black"/>
<path d="M1.375 9.01097C1.11415 8.83038 1.08051 8.45709 1.30469 8.23265C2.59413 6.9433 4.19102 6.00413 5.94434 5.50316L6.71582 5.28246L7.74707 9.92699L7.29297 13.1077L1.375 9.01097Z" fill="black"/>
<path d="M6.1123 16.2737L6.52148 17.9114L3.86133 20.1291L3.76465 20.2102C3.68141 20.2784 3.55892 20.2724 3.48242 20.1965C2.69168 19.4057 2.09495 18.44 1.74121 17.3791L1.37305 16.2737H6.1123Z" fill="black"/>
<path d="M0.00390625 14.842C0.00390657 13.5865 0.258645 12.3428 0.75293 11.1887L1.20117 10.1409L6.13379 13.5559L6.47168 15.2453H0.398438C0.179927 15.2404 0.00456672 15.0616 0.00390625 14.842Z" fill="black"/>
</svg>
