<svg width="24" height="24" viewBox="0 0 24 24" fill="none" xmlns="http://www.w3.org/2000/svg">
<path d="M14.25 5.00103C14.25 4.44874 14.6977 4.00103 15.25 4.00103C15.8023 4.00103 16.25 4.44874 16.25 5.00103C16.2498 5.55314 15.8022 6.00103 15.25 6.00103C14.6978 6.00102 14.2502 5.55314 14.25 5.00103Z" fill="black"/>
<path fill-rule="evenodd" clip-rule="evenodd" d="M0.25 14.3877C0.250064 13.1204 0.507827 11.8662 1.00684 10.7012L1.3916 9.80278C1.09536 9.12434 1.21349 8.29437 1.7832 7.72466L2.02539 7.49028C3.25528 6.33633 4.74442 5.49062 6.36914 5.02642L7.42187 4.72564L18.0225 0.389697C18.0592 0.374657 18.1491 0.336654 18.2334 0.310595C18.2821 0.295539 18.5069 0.22109 18.7861 0.275439L18.9092 0.307666L19.0303 0.354541C19.2653 0.462874 19.4543 0.651653 19.5645 0.885791L19.6133 1.00591L19.6455 1.12895C19.702 1.40731 19.631 1.63237 19.6162 1.68169C19.5908 1.76627 19.5529 1.85668 19.5381 1.8936L19.3809 2.28423L21.8623 1.73345C22.811 1.52269 23.5256 2.58573 22.9727 3.38481L22.5234 4.03423C19.8369 7.91482 15.9011 10.7581 11.373 12.0899C10.7291 12.2792 10.0745 12.2278 9.5 11.9932L9.27637 13.5567C9.27307 13.5798 9.26192 13.6661 9.24316 13.7452C9.22468 13.823 9.1677 14.0456 8.97754 14.2491C8.87929 14.3541 8.76194 14.4371 8.63379 14.4961L8.69238 14.7842C8.6954 14.7993 8.7116 14.8743 8.71973 14.9473C8.72878 15.0291 8.74264 15.2156 8.66797 15.4317C8.61875 15.574 8.54043 15.703 8.44043 15.8125L8.69922 16.8448C8.70046 16.8497 8.70838 16.8809 8.71484 16.9122C8.71888 16.9317 8.72412 16.9592 8.72852 16.9922L8.73047 17.0313C9.40065 17.5154 10.1572 17.8677 10.96 18.0684C11.114 18.1069 11.2579 18.1674 11.3906 18.2432L16.9629 13.5274L17.0996 13.4288C17.7996 12.9957 18.7496 13.4904 18.75 14.3565V17.8965C18.7499 19.0014 18.2589 20.0495 17.4102 20.7569C15.9252 21.9943 14.053 22.6719 12.1201 22.6719H11.5908C11.2288 22.9615 10.7531 23.1108 10.251 23.0391C8.3217 22.7634 6.53368 21.87 5.15527 20.4922L5.08789 20.4258C4.57805 20.5213 4.03385 20.3698 3.64355 19.9795C2.81013 19.146 2.18138 18.13 1.80859 17.0118L1.50195 16.0918C0.776515 15.8654 0.25 15.1877 0.25 14.3877ZM9.75488 9.56743C9.87091 10.0316 10.3496 10.3057 10.8086 10.1709C14.3613 9.12603 17.5091 7.05022 19.8652 4.22563L17.9668 4.64849C17.6049 4.72883 17.2284 4.60185 16.9883 4.31938C16.7484 4.03696 16.6838 3.64495 16.8213 3.30083L16.9453 2.99028L8.92969 6.26958L9.75488 9.56743ZM12.25 20.669C13.6689 20.6397 15.0376 20.1309 16.1299 19.2208C16.5227 18.8933 16.7499 18.4079 16.75 17.8965V16.3272L12.25 20.1348V20.669ZM6.78125 19.2823C7.75148 20.1738 8.95427 20.773 10.25 21.0127V19.9463C9.27919 19.6751 8.3643 19.2347 7.54785 18.6426L6.78125 19.2823ZM7.48828 11.9278L7.7334 10.211L7.00293 6.92388L6.91797 6.94927C5.56067 7.33708 4.32025 8.05305 3.30566 9.03228L7.48828 11.9278ZM3.70605 16.379C3.94394 17.0926 4.32405 17.7494 4.82031 18.3116L6.62793 16.8057L6.46973 16.1719L3.63672 16.1719L3.70605 16.379ZM6.53027 14.1719L6.41992 13.6211L6.16797 13.4463L2.95703 11.2247L2.84473 11.4883C2.48064 12.3382 2.28299 13.249 2.25586 14.1719L6.53027 14.1719Z" fill="black"/>
</svg>
