<svg width="24" height="24" viewBox="0 0 24 24" fill="none" xmlns="http://www.w3.org/2000/svg">
<path fill-rule="evenodd" clip-rule="evenodd" d="M16.3726 0.75H7.62737C6.52642 0.749997 5.66948 0.749995 4.98209 0.806157C4.28416 0.86318 3.7171 0.980584 3.20704 1.24047C2.36031 1.6719 1.6719 2.36031 1.24047 3.20704C0.980583 3.7171 0.86318 4.28416 0.806158 4.98209C0.749997 5.66947 0.749998 6.52639 0.75 7.62734V16.3726C0.749998 17.4736 0.749997 18.3305 0.806158 19.0179C0.86318 19.7158 0.980583 20.2829 1.24047 20.793C1.6719 21.6397 2.36031 22.3281 3.20704 22.7595C3.7171 23.0194 4.28416 23.1368 4.98209 23.1938C5.66947 23.25 6.52638 23.25 7.62731 23.25H16.3726C17.4736 23.25 18.3305 23.25 19.0179 23.1938C19.7158 23.1368 20.2829 23.0194 20.793 22.7595C21.6397 22.3281 22.3281 21.6397 22.7595 20.793C23.0194 20.2829 23.1368 19.7158 23.1938 19.0179C23.25 18.3305 23.25 17.4736 23.25 16.3727V7.62737C23.25 6.52644 23.25 5.66947 23.1938 4.98209C23.1368 4.28416 23.0194 3.7171 22.7595 3.20704C22.3281 2.36031 21.6397 1.6719 20.793 1.24047C20.2829 0.980584 19.7158 0.86318 19.0179 0.806157C18.3305 0.749995 17.4736 0.749997 16.3726 0.75ZM14.25 22.25L14.25 1.75H7.65C6.52164 1.75 5.70545 1.75039 5.06352 1.80284C4.42743 1.85481 4.00662 1.95539 3.66103 2.13148C3.00247 2.46703 2.46703 3.00247 2.13148 3.66103C1.95539 4.00662 1.85481 4.42744 1.80284 5.06352C1.75039 5.70545 1.75 6.52164 1.75 7.65V16.35C1.75 17.4784 1.75039 18.2946 1.80284 18.9365C1.85481 19.5726 1.95539 19.9934 2.13148 20.339C2.46703 20.9975 3.00247 21.533 3.66103 21.8685C4.00662 22.0446 4.42743 22.1452 5.06352 22.1972C5.70545 22.2496 6.52164 22.25 7.65 22.25H14.25Z" fill="black"/>
</svg>
