<svg width="24" height="24" viewBox="0 0 24 24" fill="none" xmlns="http://www.w3.org/2000/svg">
<path fill-rule="evenodd" clip-rule="evenodd" d="M16.3616 1C17.4719 1 18.3204 1 18.9976 1.05533C19.68 1.11109 20.2105 1.22429 20.6795 1.46322C21.4791 1.87068 22.1293 2.52085 22.5368 3.32054C22.7757 3.78948 22.8889 4.31998 22.9447 5.00245C23 5.67961 23 6.52803 23 7.63824V16.3616C23 17.4719 23 18.3204 22.9447 18.9976C22.8889 19.68 22.7757 20.2105 22.5368 20.6795C22.1293 21.4791 21.4791 22.1293 20.6795 22.5368C20.2105 22.7757 19.68 22.8889 18.9976 22.9447C18.3204 23 17.472 23 16.3618 23H7.63835C6.52814 23 5.67961 23 5.00245 22.9447C4.31998 22.8889 3.78948 22.7757 3.32054 22.5368C2.52085 22.1293 1.87068 21.4791 1.46322 20.6795C1.22429 20.2105 1.11109 19.68 1.05533 18.9976C1 18.3204 1 17.472 1 16.3618V7.63835C1 6.52814 1 5.67961 1.05533 5.00245C1.11109 4.31998 1.22429 3.78948 1.46322 3.32054C1.87068 2.52085 2.52085 1.87068 3.32054 1.46322C3.78948 1.22429 4.31998 1.11109 5.00245 1.05533C5.67963 1 6.52809 1 7.63836 1H16.3616ZM20.4525 1.90873C20.0658 1.71169 19.6084 1.6069 18.9568 1.55367C18.3024 1.50019 17.4742 1.5 16.35 1.5H15L15 22.5H16.35C17.4742 22.5 18.3024 22.4998 18.9568 22.4463C19.6084 22.3931 20.0658 22.2883 20.4525 22.0913C21.1581 21.7317 21.7317 21.1581 22.0913 20.4525C22.2883 20.0658 22.3931 19.6084 22.4463 18.9568C22.4998 18.3024 22.5 17.4742 22.5 16.35V7.65C22.5 6.52577 22.4998 5.69763 22.4463 5.04317C22.3931 4.39162 22.2883 3.93424 22.0913 3.54754C21.7317 2.84193 21.1581 2.26825 20.4525 1.90873ZM14.5 22.5L14.5 1.5H7.65C6.52577 1.5 5.69763 1.50019 5.04317 1.55367C4.39162 1.6069 3.93424 1.71169 3.54753 1.90873C2.84193 2.26825 2.26825 2.84193 1.90873 3.54754C1.71169 3.93424 1.6069 4.39162 1.55367 5.04317C1.50019 5.69763 1.5 6.52577 1.5 7.65V16.35C1.5 17.4742 1.50019 18.3024 1.55367 18.9568C1.6069 19.6084 1.71169 20.0658 1.90873 20.4525C2.26825 21.1581 2.84193 21.7317 3.54753 22.0913C3.93424 22.2883 4.39162 22.3931 5.04317 22.4463C5.69763 22.4998 6.52577 22.5 7.65 22.5H14.5Z" fill="black"/>
</svg>
