<svg width="24" height="24" viewBox="0 0 24 24" fill="none" xmlns="http://www.w3.org/2000/svg">
<path fill-rule="evenodd" clip-rule="evenodd" d="M16.4021 4.61583e-07C17.4779 -1.42013e-05 18.3608 -2.62335e-05 19.079 0.0586495C19.8233 0.119462 20.5 0.24948 21.1334 0.572217C22.1213 1.07555 22.9244 1.8787 23.4278 2.86655C23.7505 3.49996 23.8805 4.17671 23.9414 4.92102C24 5.63917 24 6.52204 24 7.59787V16.4021C24 17.4779 24 18.3608 23.9414 19.079C23.8805 19.8233 23.7505 20.5 23.4278 21.1334C22.9244 22.1213 22.1213 22.9244 21.1334 23.4278C20.5 23.7505 19.8233 23.8805 19.079 23.9414C18.3609 24 17.478 24 16.4023 24H7.59788C6.52212 24 5.63914 24 4.92102 23.9414C4.17671 23.8805 3.49996 23.7505 2.86655 23.4278C1.8787 22.9244 1.07555 22.1213 0.572217 21.1334C0.249478 20.5 0.119462 19.8233 0.0586476 19.079C-2.72878e-05 18.3608 -1.47692e-05 17.478 4.89984e-07 16.4022V7.59789C-1.47692e-05 6.52207 -2.72915e-05 5.63916 0.0586476 4.92102C0.119462 4.17671 0.249478 3.49996 0.572217 2.86655C1.07555 1.8787 1.8787 1.07555 2.86655 0.572217C3.49996 0.24948 4.17671 0.119462 4.92102 0.0586495C5.63918 -2.62335e-05 6.52206 -1.42013e-05 7.5979 4.61583e-07H16.4021ZM19.9985 2.79973C19.7762 2.6865 19.4651 2.59853 18.8754 2.55035C18.2711 2.50097 17.4907 2.5 16.35 2.5H16V21.5H16.35C17.4907 21.5 18.2711 21.499 18.8754 21.4497C19.4651 21.4015 19.7762 21.3135 19.9985 21.2003C20.5159 20.9366 20.9366 20.5159 21.2003 19.9985C21.3135 19.7762 21.4015 19.4651 21.4497 18.8754C21.499 18.2711 21.5 17.4907 21.5 16.35V7.65C21.5 6.50927 21.499 5.7289 21.4497 5.1246C21.4015 4.53489 21.3135 4.22377 21.2003 4.00153C20.9366 3.48408 20.5159 3.06339 19.9985 2.79973ZM13.5 21.5L13.5 2.5H7.65C6.50927 2.5 5.7289 2.50097 5.1246 2.55035C4.53489 2.59853 4.22376 2.6865 4.00153 2.79973C3.48408 3.06339 3.06338 3.48408 2.79973 4.00153C2.6865 4.22377 2.59853 4.53489 2.55034 5.1246C2.50097 5.7289 2.5 6.50927 2.5 7.65V16.35C2.5 17.4907 2.50097 18.2711 2.55034 18.8754C2.59853 19.4651 2.6865 19.7762 2.79973 19.9985C3.06338 20.5159 3.48408 20.9366 4.00153 21.2003C4.22376 21.3135 4.53489 21.4015 5.1246 21.4497C5.7289 21.499 6.50927 21.5 7.65 21.5H13.5Z" fill="black"/>
</svg>
