<svg width="24" height="24" viewBox="0 0 24 24" fill="none" xmlns="http://www.w3.org/2000/svg">
<path fill-rule="evenodd" clip-rule="evenodd" d="M7.62737 0.75H16.3726C17.4736 0.749997 18.3305 0.749995 19.0179 0.806157C19.7158 0.86318 20.2829 0.980584 20.793 1.24047C21.6397 1.6719 22.3281 2.36031 22.7595 3.20704C23.0194 3.7171 23.1368 4.28416 23.1938 4.98209C23.25 5.66947 23.25 6.52639 23.25 7.62734V16.3726C23.25 17.4736 23.25 18.3305 23.1938 19.0179C23.1368 19.7158 23.0194 20.2829 22.7595 20.793C22.3281 21.6397 21.6397 22.3281 20.793 22.7595C20.2829 23.0194 19.7158 23.1368 19.0179 23.1938C18.3305 23.25 17.4736 23.25 16.3727 23.25H7.62736C6.52644 23.25 5.66947 23.25 4.98209 23.1938C4.28416 23.1368 3.7171 23.0194 3.20704 22.7595C2.36031 22.3281 1.6719 21.6397 1.24047 20.793C0.980583 20.2829 0.86318 19.7158 0.806158 19.0179C0.749996 18.3305 0.749998 17.4736 0.75 16.3727V7.62737C0.749998 6.52644 0.749996 5.66947 0.806158 4.98209C0.86318 4.28416 0.980583 3.7171 1.24047 3.20704C1.6719 2.36031 2.36031 1.6719 3.20704 1.24047C3.7171 0.980584 4.28416 0.86318 4.98209 0.806157C5.66948 0.749995 6.52641 0.749997 7.62737 0.75ZM9.75 22.25L9.75 1.75H16.35C17.4784 1.75 18.2946 1.75039 18.9365 1.80284C19.5726 1.85481 19.9934 1.95539 20.339 2.13148C20.9975 2.46703 21.533 3.00247 21.8685 3.66103C22.0446 4.00662 22.1452 4.42744 22.1972 5.06352C22.2496 5.70545 22.25 6.52164 22.25 7.65V16.35C22.25 17.4784 22.2496 18.2946 22.1972 18.9365C22.1452 19.5726 22.0446 19.9934 21.8685 20.339C21.533 20.9975 20.9975 21.533 20.339 21.8685C19.9934 22.0446 19.5726 22.1452 18.9365 22.1972C18.2946 22.2496 17.4784 22.25 16.35 22.25H9.75Z" fill="black"/>
</svg>
