<svg width="24" height="24" viewBox="0 0 24 24" fill="none" xmlns="http://www.w3.org/2000/svg">
<path fill-rule="evenodd" clip-rule="evenodd" d="M16.383 0.5H7.617C6.52486 0.499995 5.65935 0.49999 4.96173 0.556988C4.24834 0.615274 3.64472 0.736882 3.09355 1.01772C2.19978 1.47312 1.47312 2.19978 1.01772 3.09355C0.736881 3.64472 0.615275 4.24835 0.556988 4.96173C0.499991 5.65935 0.499994 6.52485 0.5 7.61698V16.383C0.499994 17.4752 0.499991 18.3406 0.556988 19.0383C0.615275 19.7517 0.736881 20.3553 1.01772 20.9065C1.47312 21.8002 2.19978 22.5269 3.09355 22.9823C3.64472 23.2631 4.24834 23.3847 4.96173 23.443C5.65935 23.5 6.52484 23.5 7.61698 23.5H16.383C17.4752 23.5 18.3406 23.5 19.0383 23.443C19.7517 23.3847 20.3553 23.2631 20.9065 22.9823C21.8002 22.5269 22.5269 21.8002 22.9823 20.9065C23.2631 20.3553 23.3847 19.7517 23.443 19.0383C23.5 18.3406 23.5 17.4751 23.5 16.383V7.617C23.5 6.52486 23.5 5.65936 23.443 4.96173C23.3847 4.24835 23.2631 3.64472 22.9823 3.09355C22.5269 2.19978 21.8002 1.47312 20.9065 1.01772C20.3553 0.736882 19.7517 0.615274 19.0383 0.556988C18.3406 0.49999 17.4751 0.499995 16.383 0.5ZM14 22L14 2H7.65C6.51752 2 5.71326 2.00058 5.08388 2.05201C4.46325 2.10271 4.079 2.19909 3.77453 2.35423C3.163 2.66582 2.66582 3.163 2.35423 3.77453C2.19909 4.079 2.10271 4.46325 2.05201 5.08388C2.00058 5.71327 2 6.51752 2 7.65V16.35C2 17.4825 2.00058 18.2867 2.05201 18.9161C2.10271 19.5367 2.19909 19.921 2.35423 20.2255C2.66582 20.837 3.163 21.3342 3.77453 21.6458C4.079 21.8009 4.46325 21.8973 5.08388 21.948C5.71326 21.9994 6.51752 22 7.65 22H14Z" fill="black"/>
</svg>
