<svg width="24" height="24" viewBox="0 0 24 24" fill="none" xmlns="http://www.w3.org/2000/svg">
<path fill-rule="evenodd" clip-rule="evenodd" d="M16.4021 4.61583e-07H7.59792C6.52208 -1.42013e-05 5.63918 -2.62335e-05 4.92102 0.0586495C4.17671 0.119462 3.49996 0.24948 2.86655 0.572217C1.8787 1.07555 1.07555 1.8787 0.572217 2.86655C0.249478 3.49996 0.119462 4.17671 0.0586476 4.92102C-2.72915e-05 5.63916 -1.47692e-05 6.52202 4.89984e-07 7.59784V16.4021C-1.47692e-05 17.4779 -2.72878e-05 18.3608 0.0586476 19.079C0.119462 19.8233 0.249478 20.5 0.572217 21.1334C1.07555 22.1213 1.8787 22.9244 2.86655 23.4278C3.49996 23.7505 4.17671 23.8805 4.92102 23.9414C5.63913 24 6.52194 24 7.59769 24H16.4021C17.4779 24 18.3609 24 19.079 23.9414C19.8233 23.8805 20.5 23.7505 21.1334 23.4278C22.1213 22.9244 22.9244 22.1213 23.4278 21.1334C23.7505 20.5 23.8805 19.8233 23.9414 19.079C24 18.3608 24 17.478 24 16.4022V7.59792C24 6.52211 24 5.63916 23.9414 4.92102C23.8805 4.17671 23.7505 3.49996 23.4278 2.86655C22.9244 1.8787 22.1213 1.07555 21.1334 0.572217C20.5 0.24948 19.8233 0.119462 19.079 0.0586495C18.3608 -2.62335e-05 17.4779 -1.42013e-05 16.4021 4.61583e-07ZM13.5 21.5L13.5 2.5H7.65C6.50927 2.5 5.7289 2.50097 5.1246 2.55035C4.53489 2.59853 4.22376 2.6865 4.00153 2.79973C3.48408 3.06339 3.06338 3.48408 2.79973 4.00153C2.6865 4.22377 2.59853 4.53489 2.55034 5.1246C2.50097 5.7289 2.5 6.50927 2.5 7.65V16.35C2.5 17.4907 2.50097 18.2711 2.55034 18.8754C2.59853 19.4651 2.6865 19.7762 2.79973 19.9985C3.06338 20.5159 3.48408 20.9366 4.00153 21.2003C4.22376 21.3135 4.53489 21.4015 5.1246 21.4497C5.7289 21.499 6.50927 21.5 7.65 21.5H13.5Z" fill="black"/>
</svg>
