<svg width="24" height="24" viewBox="0 0 24 24" fill="none" xmlns="http://www.w3.org/2000/svg">
<path fill-rule="evenodd" clip-rule="evenodd" d="M7.60719 0.25C6.52341 0.24999 5.64925 0.249982 4.94138 0.307819C4.21253 0.367368 3.57234 0.493181 2.98005 0.794968C2.03924 1.27434 1.27433 2.03924 0.794968 2.98005C0.49318 3.57234 0.367367 4.21253 0.307818 4.94138C0.249983 5.64923 0.249991 6.52335 0.25 7.60709V16.3928C0.249991 17.4765 0.249983 18.3508 0.307818 19.0586C0.367367 19.7875 0.49318 20.4277 0.794968 21.02C1.27433 21.9608 2.03924 22.7257 2.98005 23.205C3.57234 23.5068 4.21253 23.6326 4.94138 23.6922C5.64923 23.75 6.52334 23.75 7.60707 23.75H16.3928C17.4766 23.75 18.3508 23.75 19.0586 23.6922C19.7875 23.6326 20.4277 23.5068 21.02 23.205C21.9608 22.7257 22.7257 21.9608 23.205 21.02C23.5068 20.4277 23.6326 19.7875 23.6922 19.0586C23.75 18.3508 23.75 17.4767 23.75 16.3929V7.60717C23.75 6.52344 23.75 5.64923 23.6922 4.94138C23.6326 4.21253 23.5068 3.57234 23.205 2.98005C22.7257 2.03924 21.9608 1.27434 21.02 0.794968C20.4277 0.493181 19.7875 0.367368 19.0586 0.307819C18.3507 0.249983 17.4766 0.24999 16.3928 0.25H7.60719ZM3.88803 2.57698C4.15138 2.44279 4.49907 2.35062 5.10424 2.30118C5.72108 2.25078 6.51339 2.25 7.65 2.25H8.25L8.25 21.75H7.65C6.51339 21.75 5.72108 21.7492 5.10424 21.6988C4.49907 21.6494 4.15138 21.5572 3.88803 21.423C3.32354 21.1354 2.8646 20.6765 2.57698 20.112C2.4428 19.8486 2.35062 19.5009 2.30118 18.8958C2.25078 18.2789 2.25 17.4866 2.25 16.35V7.65C2.25 6.51339 2.25078 5.72108 2.30118 5.10424C2.35062 4.49907 2.4428 4.15138 2.57698 3.88803C2.8646 3.32354 3.32354 2.8646 3.88803 2.57698ZM10.25 21.75L10.25 2.25H16.35C17.4866 2.25 18.2789 2.25078 18.8958 2.30118C19.5009 2.35062 19.8486 2.44279 20.112 2.57698C20.6765 2.8646 21.1354 3.32354 21.423 3.88803C21.5572 4.15138 21.6494 4.49907 21.6988 5.10424C21.7492 5.72108 21.75 6.51339 21.75 7.65V16.35C21.75 17.4866 21.7492 18.2789 21.6988 18.8958C21.6494 19.5009 21.5572 19.8486 21.423 20.112C21.1354 20.6765 20.6765 21.1354 20.112 21.423C19.8486 21.5572 19.5009 21.6494 18.8958 21.6988C18.2789 21.7492 17.4866 21.75 16.35 21.75H10.25Z" fill="black"/>
</svg>
