<svg width="24" height="24" viewBox="0 0 24 24" fill="none" xmlns="http://www.w3.org/2000/svg">
<path fill-rule="evenodd" clip-rule="evenodd" d="M16.3726 0.75C17.4736 0.749997 18.3305 0.749995 19.0179 0.806157C19.7158 0.86318 20.2829 0.980584 20.793 1.24047C21.6397 1.6719 22.3281 2.36031 22.7595 3.20704C23.0194 3.7171 23.1368 4.28416 23.1938 4.98209C23.25 5.66948 23.25 6.5264 23.25 7.62735V16.3726C23.25 17.4736 23.25 18.3305 23.1938 19.0179C23.1368 19.7158 23.0194 20.2829 22.7595 20.793C22.3281 21.6397 21.6397 22.3281 20.793 22.7595C20.2829 23.0194 19.7158 23.1368 19.0179 23.1938C18.3305 23.25 17.4736 23.25 16.3727 23.25H7.62736C6.52642 23.25 5.66947 23.25 4.98209 23.1938C4.28416 23.1368 3.7171 23.0194 3.20704 22.7595C2.36031 22.3281 1.6719 21.6397 1.24047 20.793C0.980583 20.2829 0.86318 19.7158 0.806158 19.0179C0.749997 18.3305 0.749998 17.4736 0.75 16.3727V7.62736C0.749998 6.52642 0.749997 5.66947 0.806158 4.98209C0.86318 4.28416 0.980583 3.7171 1.24047 3.20704C1.6719 2.36031 2.36031 1.6719 3.20704 1.24047C3.7171 0.980584 4.28416 0.86318 4.98209 0.806157C5.66948 0.749995 6.52641 0.749997 7.62737 0.75H16.3726ZM20.339 2.13148C19.9934 1.95539 19.5726 1.85481 18.9365 1.80284C18.2946 1.75039 17.4784 1.75 16.35 1.75H15.25L15.25 22.25H16.35C17.4784 22.25 18.2946 22.2496 18.9365 22.1972C19.5726 22.1452 19.9934 22.0446 20.339 21.8685C20.9975 21.533 21.533 20.9975 21.8685 20.339C22.0446 19.9934 22.1452 19.5726 22.1972 18.9365C22.2496 18.2946 22.25 17.4784 22.25 16.35V7.65C22.25 6.52164 22.2496 5.70545 22.1972 5.06352C22.1452 4.42744 22.0446 4.00662 21.8685 3.66103C21.533 3.00247 20.9975 2.46703 20.339 2.13148ZM14.25 22.25L14.25 1.75H7.65C6.52164 1.75 5.70545 1.75039 5.06352 1.80284C4.42743 1.85481 4.00662 1.95539 3.66103 2.13148C3.00247 2.46703 2.46703 3.00247 2.13148 3.66103C1.95539 4.00662 1.85481 4.42744 1.80284 5.06352C1.75039 5.70545 1.75 6.52164 1.75 7.65V16.35C1.75 17.4784 1.75039 18.2946 1.80284 18.9365C1.85481 19.5726 1.95539 19.9934 2.13148 20.339C2.46703 20.9975 3.00247 21.533 3.66103 21.8685C4.00662 22.0446 4.42743 22.1452 5.06352 22.1972C5.70545 22.2496 6.52164 22.25 7.65 22.25H14.25Z" fill="black"/>
</svg>
