<svg width="24" height="24" viewBox="0 0 24 24" fill="none" xmlns="http://www.w3.org/2000/svg">
<path d="M7.25 1C7.25 0.585786 6.91421 0.25 6.5 0.25C6.08579 0.25 5.75 0.585786 5.75 1V4.75463C5.61828 4.75749 5.49844 4.76212 5.38867 4.76961C5.09703 4.78951 4.85827 4.83043 4.63896 4.92127C4.08765 5.14963 3.64963 5.58765 3.42127 6.13896C3.33043 6.35827 3.28951 6.59703 3.26961 6.88867C3.25 7.17611 3.25 7.53261 3.25 7.99061V8.00939C3.25 8.46739 3.25 8.82389 3.26961 9.11133C3.28951 9.40297 3.33043 9.64173 3.42127 9.86104C3.64963 10.4124 4.08765 10.8504 4.63896 11.0787C4.85827 11.1696 5.09703 11.2105 5.38867 11.2304C5.49844 11.2379 5.61828 11.2425 5.75 11.2454L5.75 23C5.75 23.4142 6.08579 23.75 6.5 23.75C6.91421 23.75 7.25 23.4142 7.25 23V11.2454C7.38172 11.2425 7.50156 11.2379 7.61133 11.2304C7.90297 11.2105 8.14173 11.1696 8.36104 11.0787C8.91235 10.8504 9.35037 10.4124 9.57873 9.86104C9.66957 9.64173 9.71049 9.40297 9.73039 9.11133C9.75 8.82389 9.75 8.46739 9.75 8.00939V7.99061C9.75 7.53261 9.75 7.17611 9.73039 6.88867C9.71049 6.59703 9.66957 6.35827 9.57873 6.13896C9.35037 5.58765 8.91235 5.14963 8.36104 4.92127C8.14173 4.83043 7.90297 4.78951 7.61133 4.76961C7.50156 4.76212 7.38172 4.75749 7.25 4.75463V1Z" fill="black"/>
<path d="M18.25 23C18.25 23.4142 17.9142 23.75 17.5 23.75C17.0858 23.75 16.75 23.4142 16.75 23V19.2454C16.6183 19.2425 16.4984 19.2379 16.3887 19.2304C16.097 19.2105 15.8583 19.1696 15.639 19.0787C15.0876 18.8504 14.6496 18.4124 14.4213 17.861C14.3304 17.6417 14.2895 17.403 14.2696 17.1113C14.25 16.8239 14.25 16.4674 14.25 16.0094V15.9906C14.25 15.5326 14.25 15.1761 14.2696 14.8887C14.2895 14.597 14.3304 14.3583 14.4213 14.139C14.6496 13.5876 15.0876 13.1496 15.639 12.9213C15.8583 12.8304 16.097 12.7895 16.3887 12.7696C16.4984 12.7621 16.6183 12.7575 16.75 12.7546V1.00001C16.75 0.585794 17.0858 0.25001 17.5 0.250008C17.9142 0.25001 18.25 0.585794 18.25 1.00001V12.7546C18.3817 12.7575 18.5016 12.7621 18.6113 12.7696C18.903 12.7895 19.1417 12.8304 19.361 12.9213C19.9124 13.1496 20.3504 13.5876 20.5787 14.139C20.6696 14.3583 20.7105 14.597 20.7304 14.8887C20.75 15.1761 20.75 15.5326 20.75 15.9906V16.0094C20.75 16.4674 20.75 16.8239 20.7304 17.1113C20.7105 17.403 20.6696 17.6417 20.5787 17.861C20.3504 18.4124 19.9124 18.8504 19.361 19.0787C19.1417 19.1696 18.903 19.2105 18.6113 19.2304C18.5016 19.2379 18.3817 19.2425 18.25 19.2454V23Z" fill="black"/>
</svg>
