<svg width="24" height="25" viewBox="0 0 24 25" fill="none" xmlns="http://www.w3.org/2000/svg">
<path d="M6.75 1.25C6.75 0.559644 6.19036 0 5.5 0C4.80964 0 4.25 0.559644 4.25 1.25L4.25 4.77998C3.99472 4.80393 3.76366 4.84902 3.54329 4.9403C2.93072 5.19404 2.44404 5.68072 2.1903 6.29329C2.08474 6.54814 2.04096 6.81728 2.02019 7.12165C1.99999 7.41766 2 7.78136 2 8.23224V8.26776C2 8.71864 1.99999 9.08234 2.02019 9.37835C2.04096 9.68272 2.08474 9.95186 2.1903 10.2067C2.44404 10.8193 2.93072 11.306 3.54329 11.5597C3.76366 11.651 3.99472 11.6961 4.25 11.72L4.25 23.25C4.25 23.9403 4.80964 24.5 5.5 24.5C6.19036 24.5 6.75 23.9403 6.75 23.25L6.75 11.72C7.00528 11.6961 7.23634 11.651 7.45671 11.5597C8.06928 11.306 8.55596 10.8193 8.8097 10.2067C8.91526 9.95186 8.95904 9.68272 8.97981 9.37835C9.00001 9.08235 9 8.71865 9 8.26778V8.23224C9 7.78137 9.00001 7.41765 8.97981 7.12165C8.95904 6.81728 8.91526 6.54814 8.8097 6.29329C8.55596 5.68072 8.06928 5.19404 7.45671 4.9403C7.23634 4.84902 7.00528 4.80393 6.75 4.77998V1.25Z" fill="black"/>
<path d="M19.75 23.25C19.75 23.9404 19.1904 24.5 18.5 24.5C17.8096 24.5 17.25 23.9404 17.25 23.25V19.72C16.9947 19.6961 16.7637 19.651 16.5433 19.5597C15.9307 19.306 15.444 18.8193 15.1903 18.2067C15.0847 17.9519 15.041 17.6827 15.0202 17.3783C15 17.0823 15 16.7186 15 16.2678V16.2322C15 15.7814 15 15.4177 15.0202 15.1217C15.041 14.8173 15.0847 14.5481 15.1903 14.2933C15.444 13.6807 15.9307 13.194 16.5433 12.9403C16.7637 12.849 16.9947 12.8039 17.25 12.78V1.25001C17.25 0.559652 17.8096 7.62939e-06 18.5 7.62939e-06C19.1904 7.62939e-06 19.75 0.559652 19.75 1.25001V12.78C20.0053 12.8039 20.2363 12.849 20.4567 12.9403C21.0693 13.194 21.556 13.6807 21.8097 14.2933C21.9153 14.5481 21.959 14.8173 21.9798 15.1217C22 15.4177 22 15.7814 22 16.2322V16.2678C22 16.7186 22 17.0823 21.9798 17.3783C21.959 17.6827 21.9153 17.9519 21.8097 18.2067C21.556 18.8193 21.0693 19.306 20.4567 19.5597C20.2363 19.651 20.0053 19.6961 19.75 19.72V23.25Z" fill="black"/>
</svg>
