<svg width="24" height="25" viewBox="0 0 24 25" fill="none" xmlns="http://www.w3.org/2000/svg">
<path fill-rule="evenodd" clip-rule="evenodd" d="M7.25 1.25C7.25 0.559644 6.69036 0 6 0C5.30965 0 4.75 0.559644 4.75 1.25L4.75 4.02716C4.42871 4.05293 4.093 4.10792 3.75628 4.24739C2.95994 4.57725 2.32725 5.20994 1.99739 6.00628C1.84767 6.36775 1.79531 6.72804 1.77193 7.0706C1.74997 7.39252 1.74998 7.77855 1.75 8.21189V8.28805C1.74998 8.72139 1.74997 9.10748 1.77193 9.4294C1.79531 9.77196 1.84767 10.1323 1.99739 10.4937C2.32725 11.2901 2.95994 11.9228 3.75628 12.2526C4.093 12.3921 4.42871 12.4471 4.75 12.4728L4.75 23.25C4.75 23.9403 5.30965 24.5 6 24.5C6.69036 24.5 7.25 23.9403 7.25 23.25L7.25 12.4728C7.5713 12.4471 7.907 12.3921 8.24372 12.2526C9.04007 11.9228 9.67276 11.2901 10.0026 10.4937C10.1523 10.1323 10.2047 9.77196 10.2281 9.4294C10.25 9.10746 10.25 8.72142 10.25 8.28805V8.21195C10.25 7.77858 10.25 7.39254 10.2281 7.0706C10.2047 6.72804 10.1523 6.36775 10.0026 6.00628C9.67276 5.20994 9.04007 4.57725 8.24372 4.24739C7.907 4.10792 7.5713 4.05293 7.25 4.02716V1.25ZM4.71299 6.55709C4.52922 6.63321 4.38321 6.77922 4.30709 6.96299C4.30439 6.96952 4.28075 7.02654 4.26613 7.24078C4.25068 7.46727 4.25 7.76696 4.25 8.25C4.25 8.73304 4.25068 9.03273 4.26613 9.25922C4.28075 9.47346 4.30435 9.53039 4.30706 9.53692C4.38318 9.72069 4.52922 9.86679 4.71299 9.94291C4.71952 9.94561 4.77654 9.96925 4.99078 9.98387C5.21728 9.99932 5.51696 10 6 10C6.48305 10 6.78273 9.99932 7.00923 9.98387C7.22347 9.96925 7.2804 9.94565 7.28693 9.94295C7.4707 9.86683 7.61679 9.72078 7.69291 9.53701C7.69562 9.53049 7.71925 9.47346 7.73387 9.25922C7.74933 9.03273 7.75 8.73304 7.75 8.25C7.75 7.76696 7.74933 7.46727 7.73387 7.24078C7.71925 7.02654 7.69566 6.9696 7.69295 6.96308C7.61683 6.77931 7.47079 6.63321 7.28702 6.55709C7.28049 6.55438 7.22346 6.53075 7.00923 6.51613C6.78273 6.50068 6.48305 6.5 6 6.5C5.51696 6.5 5.21728 6.50068 4.99078 6.51613C4.77654 6.53075 4.71952 6.55438 4.71299 6.55709Z" fill="black"/>
<path fill-rule="evenodd" clip-rule="evenodd" d="M19.25 23.25C19.25 23.9404 18.6904 24.5 18 24.5C17.3096 24.5 16.75 23.9404 16.75 23.25V20.4728C16.4287 20.4471 16.093 20.3921 15.7563 20.2526C14.9599 19.9228 14.3273 19.2901 13.9974 18.4937C13.8477 18.1323 13.7953 17.772 13.7719 17.4294C13.75 17.1075 13.75 16.7215 13.75 16.2881V16.212C13.75 15.7786 13.75 15.3925 13.7719 15.0706C13.7953 14.728 13.8477 14.3677 13.9974 14.0063C14.3273 13.2099 14.9599 12.5772 15.7563 12.2474C16.093 12.1079 16.4287 12.0529 16.75 12.0272V1.25001C16.75 0.559652 17.3096 7.6443e-06 18 7.6443e-06C18.6904 7.6443e-06 19.25 0.559652 19.25 1.25001V12.0272C19.5713 12.0529 19.907 12.1079 20.2437 12.2474C21.0401 12.5772 21.6728 13.2099 22.0026 14.0063C22.1523 14.3677 22.2047 14.728 22.2281 15.0706C22.25 15.3925 22.25 15.7786 22.25 16.2119V16.2881C22.25 16.7214 22.25 17.1075 22.2281 17.4294C22.2047 17.772 22.1523 18.1323 22.0026 18.4937C21.6728 19.2901 21.0401 19.9228 20.2437 20.2526C19.907 20.3921 19.5713 20.4471 19.25 20.4728V23.25ZM16.713 14.5571C16.5292 14.6332 16.3832 14.7792 16.3071 14.963C16.3044 14.9695 16.2808 15.0265 16.2661 15.2408C16.2507 15.4673 16.25 15.767 16.25 16.25C16.25 16.733 16.2507 17.0327 16.2661 17.2592C16.2808 17.4735 16.3043 17.5304 16.3071 17.5369C16.3832 17.7207 16.5292 17.8668 16.713 17.9429C16.7195 17.9456 16.7765 17.9693 16.9908 17.9839C17.2173 17.9993 17.517 18 18 18C18.483 18 18.7827 17.9993 19.0092 17.9839C19.2235 17.9693 19.2804 17.9457 19.2869 17.9429C19.4707 17.8668 19.6168 17.7208 19.6929 17.537C19.6956 17.5305 19.7193 17.4735 19.7339 17.2592C19.7493 17.0327 19.75 16.733 19.75 16.25C19.75 15.767 19.7493 15.4673 19.7339 15.2408C19.7193 15.0265 19.6957 14.9696 19.693 14.9631C19.6168 14.7793 19.4708 14.6332 19.287 14.5571C19.2805 14.5544 19.2235 14.5307 19.0092 14.5161C18.7827 14.5007 18.483 14.5 18 14.5C17.517 14.5 17.2173 14.5007 16.9908 14.5161C16.7765 14.5307 16.7195 14.5544 16.713 14.5571Z" fill="black"/>
</svg>
