<svg width="24" height="24" viewBox="0 0 24 24" fill="none" xmlns="http://www.w3.org/2000/svg">
<path d="M15.8103 15C16.2304 15 16.4405 15 16.5799 15.1168C16.6885 15.2079 16.7659 15.387 16.7578 15.5286C16.7474 15.7101 16.622 15.8435 16.371 16.1103C15.2767 17.2736 13.7232 18 12 18C10.2768 18 8.7233 17.2736 7.62896 16.1103C7.37803 15.8435 7.25256 15.7101 7.24217 15.5286C7.23407 15.387 7.31149 15.2079 7.42013 15.1168C7.55949 15 7.76955 15 8.18968 15H15.8103Z" fill="black"/>
<path d="M17 9.5C17 10.0523 16.5523 10.5 16 10.5C15.4477 10.5 15 10.0523 15 9.5C15 8.94772 15.4477 8.5 16 8.5C16.5523 8.5 17 8.94772 17 9.5Z" fill="black"/>
<path d="M9.5 9.5C9.5 10.0523 9.05228 10.5 8.5 10.5C7.94771 10.5 7.5 10.0523 7.5 9.5C7.5 8.94772 7.94771 8.5 8.5 8.5C9.05228 8.5 9.5 8.94772 9.5 9.5Z" fill="black"/>
<path fill-rule="evenodd" clip-rule="evenodd" d="M23 12C23 18.0751 18.0751 23 12 23C5.92487 23 1 18.0751 1 12C1 5.92487 5.92487 1 12 1C18.0751 1 23 5.92487 23 12ZM12 22C17.5228 22 22 17.5228 22 12C22 6.47715 17.5228 2 12 2C6.47715 2 2 6.47715 2 12C2 17.5228 6.47715 22 12 22Z" fill="black"/>
</svg>
