<svg width="24" height="24" viewBox="0 0 24 24" fill="none" xmlns="http://www.w3.org/2000/svg">
<path fill-rule="evenodd" clip-rule="evenodd" d="M12 24C18.6274 24 24 18.6274 24 12C24 5.37258 18.6274 0 12 0C5.37258 0 0 5.37258 0 12C0 18.6274 5.37258 24 12 24ZM15.8103 15C16.2304 15 16.4405 15 16.5799 15.1168C16.6885 15.2079 16.7659 15.387 16.7578 15.5286C16.7474 15.7101 16.622 15.8435 16.371 16.1103C15.2767 17.2736 13.7232 18 12 18C10.2768 18 8.7233 17.2736 7.62896 16.1103C7.37803 15.8435 7.25256 15.7101 7.24217 15.5286C7.23407 15.387 7.31149 15.2079 7.42013 15.1168C7.55949 15 7.76955 15 8.18968 15H15.8103ZM17.75 9.5C17.75 10.4665 16.9665 11.25 16 11.25C15.0335 11.25 14.25 10.4665 14.25 9.5C14.25 8.5335 15.0335 7.75 16 7.75C16.9665 7.75 17.75 8.5335 17.75 9.5ZM10.25 9.5C10.25 10.4665 9.4665 11.25 8.5 11.25C7.5335 11.25 6.75 10.4665 6.75 9.5C6.75 8.5335 7.5335 7.75 8.5 7.75C9.4665 7.75 10.25 8.5335 10.25 9.5Z" fill="black"/>
</svg>
