<svg width="24" height="24" viewBox="0 0 24 24" fill="none" xmlns="http://www.w3.org/2000/svg">
<path fill-rule="evenodd" clip-rule="evenodd" d="M12 24C18.6274 24 24 18.6274 24 12C24 5.37258 18.6274 0 12 0C5.37258 0 0 5.37258 0 12C0 18.6274 5.37258 24 12 24ZM15.8103 15C16.2304 15 16.4405 15 16.5799 15.1168C16.6885 15.2079 16.7659 15.387 16.7578 15.5286C16.7474 15.7101 16.622 15.8435 16.371 16.1103C15.2767 17.2736 13.7232 18 12 18C10.2768 18 8.7233 17.2736 7.62896 16.1103C7.37803 15.8435 7.25256 15.7101 7.24217 15.5286C7.23407 15.387 7.31149 15.2079 7.42013 15.1168C7.55949 15 7.76955 15 8.18968 15H15.8103ZM17.5 9.5C17.5 10.3284 16.8284 11 16 11C15.1716 11 14.5 10.3284 14.5 9.5C14.5 8.67157 15.1716 8 16 8C16.8284 8 17.5 8.67157 17.5 9.5ZM10 9.5C10 10.3284 9.32843 11 8.5 11C7.67157 11 7 10.3284 7 9.5C7 8.67157 7.67157 8 8.5 8C9.32843 8 10 8.67157 10 9.5Z" fill="black"/>
</svg>
