<svg width="24" height="24" viewBox="0 0 24 24" fill="none" xmlns="http://www.w3.org/2000/svg">
<path fill-rule="evenodd" clip-rule="evenodd" d="M12 22.5C17.799 22.5 22.5 17.799 22.5 12C22.5 6.20101 17.799 1.5 12 1.5C6.20101 1.5 1.5 6.20101 1.5 12C1.5 17.799 6.20101 22.5 12 22.5ZM15.8103 15C16.2304 15 16.4405 15 16.5799 15.1168C16.6885 15.2079 16.7659 15.387 16.7578 15.5286C16.7474 15.7101 16.622 15.8435 16.371 16.1103C15.2767 17.2736 13.7232 18 12 18C10.2768 18 8.7233 17.2736 7.62896 16.1103C7.37803 15.8435 7.25256 15.7101 7.24217 15.5286C7.23407 15.387 7.31149 15.2079 7.42013 15.1168C7.55949 15 7.76955 15 8.18968 15H15.8103ZM16.75 9.5C16.75 9.91421 16.4142 10.25 16 10.25C15.5858 10.25 15.25 9.91421 15.25 9.5C15.25 9.08579 15.5858 8.75 16 8.75C16.4142 8.75 16.75 9.08579 16.75 9.5ZM9.25 9.5C9.25 9.91421 8.91421 10.25 8.5 10.25C8.08579 10.25 7.75 9.91421 7.75 9.5C7.75 9.08579 8.08579 8.75 8.5 8.75C8.91421 8.75 9.25 9.08579 9.25 9.5Z" fill="black"/>
</svg>
