<svg width="24" height="24" viewBox="0 0 24 24" fill="none" xmlns="http://www.w3.org/2000/svg">
<path d="M2 13.291V15H4.95898L6.69141 16H2V18.2002C2 19.0564 2.00037 19.6388 2.03711 20.0888C2.07291 20.5271 2.13813 20.7518 2.21777 20.9082C2.40949 21.2844 2.71559 21.5904 3.0918 21.7822C3.24819 21.8619 3.47273 21.927 3.91113 21.9629C4.36117 21.9996 4.94341 22 5.7998 22H8V16.7548L8.3252 16.9433L9.44727 15H12.9121L12.335 16H9V22H15V20.7959L16 21.374V22H17.084L18.7178 22.9433L19.2646 21.9951C19.5879 21.9906 19.8561 21.9819 20.0889 21.9629C20.5273 21.927 20.7518 21.8619 20.9082 21.7822C21.2844 21.5904 21.5905 21.2844 21.7822 20.9082C21.8619 20.7518 21.9271 20.5271 21.9629 20.0888C21.9996 19.6388 22 19.0564 22 18.2002V17.2578L23 15.5263V18.2002L22.9951 19.3125C22.9798 20.2876 22.918 20.881 22.6729 21.3623L22.5576 21.5683C22.2694 22.0383 21.8561 22.4211 21.3623 22.6728L21.2393 22.7304C20.7793 22.9281 20.2066 22.981 19.3125 22.9951L18.2002 23H5.7998C4.11978 23 3.27941 22.9998 2.6377 22.6728C2.14385 22.4211 1.73055 22.0383 1.44238 21.5683L1.32715 21.3623C1.08199 20.881 1.0202 20.2876 1.00488 19.3125L1 18.2002V12.7138L2 13.291Z" fill="black"/>
<path fill-rule="evenodd" clip-rule="evenodd" d="M6.33105 5.39937C8.81646 1.09508 14.3205 -0.379769 18.625 2.10543C22.9295 4.59069 24.4041 10.0948 21.9189 14.3994L18.1689 20.8945L12.9727 17.8945L16.7227 11.3994C17.551 9.96455 17.0597 8.13015 15.625 7.30172C14.1901 6.4733 12.3548 6.96455 11.5264 8.39937L7.77637 14.8945L2.58105 11.8945L6.33105 5.39937ZM18.125 2.97164C14.2987 0.762519 9.40545 2.07311 7.19629 5.89937L3.94629 11.5293L7.41113 13.5293L10.6611 7.89937C11.7658 5.98653 14.212 5.33102 16.125 6.43551C18.0381 7.54004 18.6933 9.98624 17.5889 11.8994L14.3389 17.5293L17.8027 19.5293L21.0527 13.8994C23.2618 10.0731 21.9512 5.18079 18.125 2.97164Z" fill="black"/>
<path d="M8.55273 0.999959C8.08128 1.29457 7.63182 1.62882 7.20801 1.99996H5.7998C4.94343 1.99996 4.36117 2.00031 3.91113 2.03707C3.47281 2.07288 3.24819 2.13807 3.0918 2.21773C2.71561 2.40943 2.40951 2.71559 2.21777 3.09176C2.1381 3.24813 2.07293 3.47284 2.03711 3.91109C2.00035 4.36109 2 4.94351 2 5.79976V7.99996H3.09668L2.51953 8.99996H2V9.89937L1 11.6308V5.79976C1 4.22481 1.00008 3.38788 1.26953 2.7607L1.32715 2.63765C1.57888 2.14385 1.96173 1.73049 2.43164 1.44234L2.6377 1.32711C3.27939 1.00019 4.11987 0.999959 5.7998 0.999959H8.55273Z" fill="black"/>
<path d="M12.9258 8.99996C13.3745 8.40045 14.2103 8.21686 14.875 8.60055C15.5921 9.01477 15.8377 9.93207 15.4238 10.6494L15 11.3828V8.99996H12.9258Z" fill="black"/>
<path d="M19.7217 1.01851C20.4609 1.04584 20.9523 1.11825 21.3623 1.32711C21.9265 1.61465 22.3853 2.07352 22.6729 2.63765C22.8804 3.04491 22.9547 3.53249 22.9824 4.26363C22.1726 2.98848 21.0771 1.87145 19.7217 1.01851Z" fill="black"/>
</svg>
