<svg width="24" height="24" viewBox="0 0 24 24" fill="none" xmlns="http://www.w3.org/2000/svg">
<path d="M2 13.2914V15.0004H4.95898L6.69141 16.0004H2V18.2006C2 19.0568 2.00035 19.6393 2.03711 20.0892C2.07293 20.5274 2.1381 20.7522 2.21777 20.9086C2.40952 21.2847 2.71563 21.5909 3.0918 21.7826C3.24819 21.8623 3.47284 21.9275 3.91113 21.9633C4.36117 22 4.94343 22.0004 5.7998 22.0004H8V16.7553L8.3252 16.9437L9.44727 15.0004H12.9121L12.335 16.0004H9V22.0004H15V20.7963L16 21.3744V22.0004H17.084L18.7178 22.9437L19.2646 21.9955C19.5879 21.991 19.8561 21.9823 20.0889 21.9633C20.5272 21.9275 20.7518 21.8623 20.9082 21.7826C21.2844 21.5909 21.5905 21.2847 21.7822 20.9086C21.8619 20.7522 21.9271 20.5274 21.9629 20.0892C21.9996 19.6393 22 19.0568 22 18.2006V17.2582L23 15.5267V18.2006L22.9951 19.3129C22.9798 20.2879 22.9181 20.8814 22.6729 21.3627L22.5576 21.5687C22.2694 22.0386 21.8561 22.4215 21.3623 22.6732L21.2393 22.7308C20.7793 22.9284 20.2065 22.9814 19.3125 22.9955L18.2002 23.0004H5.7998C4.11989 23.0004 3.27939 23.0001 2.6377 22.6732C2.14389 22.4215 1.73057 22.0386 1.44238 21.5687L1.32715 21.3627C1.08193 20.8814 1.02022 20.2879 1.00488 19.3129L1 18.2006V12.7142L2 13.2914Z" fill="black"/>
<path fill-rule="evenodd" clip-rule="evenodd" d="M6.33105 5.39979C8.81631 1.0952 14.3204 -0.380311 18.625 2.10487C22.9296 4.59015 24.4042 10.0952 21.9189 14.3998L18.1689 20.8949L12.9727 17.8949L16.7227 11.3998C17.5511 9.96492 17.0599 8.12959 15.625 7.30116C14.1901 6.47278 12.3548 6.96494 11.5264 8.39979L7.77637 14.8949L2.58105 11.8949L6.33105 5.39979ZM18.125 2.97108C14.2987 0.761976 9.40542 2.07347 7.19629 5.89979L3.94629 11.5287L7.41113 13.5287L10.6611 7.89979C11.7655 5.98692 14.211 5.33108 16.124 6.43495L18.125 2.97108Z" fill="black"/>
<path d="M8.55273 1.00038C8.08129 1.295 7.63181 1.62924 7.20801 2.00038H5.7998C4.94341 2.00038 4.36117 2.00073 3.91113 2.03749C3.47273 2.07331 3.24819 2.13847 3.0918 2.21815C2.7156 2.40989 2.40949 2.71597 2.21777 3.09218C2.13814 3.24857 2.07291 3.47334 2.03711 3.91151C2.00038 4.36151 2 4.944 2 5.80018V8.00038H3.09668L2.51953 9.00038H2V9.89979L1 11.6312V5.80018C1 4.2253 1.00019 3.3883 1.26953 2.76112L1.32715 2.63808C1.57885 2.14424 1.96173 1.73095 2.43164 1.44276L2.6377 1.32753C3.27941 1.00056 4.11978 1.00038 5.7998 1.00038H8.55273Z" fill="black"/>
<path d="M12.9258 9.00038C13.3745 8.40071 14.2102 8.21716 14.875 8.60097C15.5921 9.01527 15.8379 9.93251 15.4238 10.6498L15 11.3832V9.00038H12.9258Z" fill="black"/>
<path d="M19.7217 1.01893C20.461 1.04626 20.9523 1.11863 21.3623 1.32753C21.9265 1.61511 22.3853 2.0739 22.6729 2.63808C22.8803 3.04533 22.9547 3.53293 22.9824 4.26405C22.1726 2.98887 21.0771 1.8719 19.7217 1.01893Z" fill="black"/>
</svg>
