<svg width="24" height="24" viewBox="0 0 24 24" fill="none" xmlns="http://www.w3.org/2000/svg">
<path d="M2.5 13.8678V14.7496H4.02539L6.62402 16.2496H2.5V18.1998C2.5 19.064 2.50147 19.6226 2.53613 20.0474C2.56932 20.4536 2.6253 20.6058 2.66309 20.6803C2.80687 20.9625 3.03716 21.1927 3.31934 21.3365C3.39365 21.3743 3.54544 21.4302 3.95215 21.4635C4.37708 21.4982 4.93534 21.4996 5.7998 21.4996H7.75V16.899L8.41699 17.2848L9.88086 14.7496H12.7676L11.9014 16.2496H9.25V21.4996H14.75V20.941L18.3145 22.9986L18.2002 22.9996H5.7998C4.11978 22.9996 3.27941 22.9994 2.6377 22.6724C2.14388 22.4207 1.73054 22.0379 1.44238 21.568L1.32715 21.3619C1.08203 20.8806 1.0202 20.2871 1.00488 19.3121L1 18.1998V13.0025L2.5 13.8678Z" fill="black"/>
<path d="M23 18.1998L22.9951 19.3121C22.9798 20.2871 22.918 20.8806 22.6729 21.3619L22.5576 21.568C22.2695 22.0379 21.8561 22.4207 21.3623 22.6724L21.2393 22.7301C20.7793 22.9277 20.2066 22.9807 19.3125 22.9947L18.9756 22.9957L19.8535 21.4742C19.9214 21.4705 19.9861 21.4685 20.0479 21.4635C20.4546 21.4302 20.6063 21.3743 20.6807 21.3365C20.9628 21.1927 21.1931 20.9625 21.3369 20.6803C21.3747 20.6058 21.4307 20.4536 21.4639 20.0474C21.4924 19.6972 21.4968 19.2558 21.498 18.6275L23 16.026V18.1998Z" fill="black"/>
<path fill-rule="evenodd" clip-rule="evenodd" d="M6.11426 5.27499C8.66857 0.85078 14.3258 -0.665072 18.75 1.88925C23.174 4.44364 24.69 10.1009 22.1357 14.525L18.2607 21.2359L12.6318 17.9859L16.5068 11.275C17.2662 9.95974 16.8152 8.27759 15.5 7.51815C14.1847 6.75876 12.5026 7.20968 11.7432 8.52499L7.86816 15.2359L2.23926 11.9859L6.11426 5.27499ZM18 3.18807C14.2932 1.04797 9.55319 2.31822 7.41309 6.02499L4.28809 11.4371L7.31934 13.1871L10.4443 7.77499C11.6178 5.74254 14.2164 5.04546 16.249 6.21835L18 3.18807Z" fill="black"/>
<path d="M13.0576 9.2496C13.4095 8.6713 14.1606 8.47683 14.75 8.81698C15.3475 9.16221 15.5519 9.92632 15.207 10.524L14.75 11.315V9.2496H13.0576Z" fill="black"/>
<path d="M8.0918 0.999597C7.45743 1.42895 6.86576 1.9311 6.32715 2.4996H5.7998C4.93536 2.4996 4.37707 2.50104 3.95215 2.53573C3.54571 2.56894 3.39371 2.6249 3.31934 2.66268C3.0372 2.80644 2.80691 3.03683 2.66309 3.31893C2.62531 3.39322 2.56937 3.54531 2.53613 3.95175C2.50145 4.37661 2.5 4.93516 2.5 5.7994V7.7496H2.95215L1 11.1305V5.7994C1 4.22453 1.00009 3.38749 1.26953 2.76034L1.32715 2.63729C1.57888 2.14354 1.96176 1.73011 2.43164 1.44198L2.6377 1.32675C3.27939 0.999858 4.11991 0.999597 5.7998 0.999597H8.0918Z" fill="black"/>
<path d="M20.2148 1.04452C20.6928 1.08668 21.051 1.16818 21.3623 1.32675C21.9264 1.61427 22.3853 2.07321 22.6729 2.63729C22.8288 2.94339 22.9085 3.29525 22.9512 3.76132C22.2284 2.72047 21.3104 1.79628 20.2148 1.04452Z" fill="black"/>
</svg>
