<svg width="24" height="24" viewBox="0 0 24 24" fill="none" xmlns="http://www.w3.org/2000/svg">
<path d="M6.48926 16.7503H3.5V18.2005C3.5 19.0815 3.50161 19.5924 3.53223 19.9671C3.54517 20.1254 3.56094 20.2124 3.56934 20.2513C3.6126 20.3255 3.67399 20.3866 3.74805 20.43C3.78638 20.4384 3.87325 20.455 4.0332 20.4681C4.40801 20.4987 4.91865 20.5003 5.7998 20.5003H7.25V17.1888L8.60059 17.9691L10.7471 14.2503H12.4795L11.0361 16.7503H9.75V20.5003H12.9844L17.3145 23.0003H5.7998C4.11988 23.0003 3.27939 23.0001 2.6377 22.6732C2.14388 22.4215 1.73057 22.0386 1.44238 21.5687L1.32715 21.3626C1.08193 20.8813 1.02021 20.2879 1.00488 19.3128L1 18.2005V13.5804L6.48926 16.7503Z" fill="black"/>
<path d="M23 18.2005L22.9951 19.3128C22.9798 20.2879 22.9181 20.8813 22.6729 21.3626L22.5576 21.5687C22.2694 22.0386 21.8561 22.4215 21.3623 22.6732L21.2393 22.7308C20.823 22.9096 20.3142 22.9664 19.5586 22.9866L23 17.0267V18.2005Z" fill="black"/>
<path fill-rule="evenodd" clip-rule="evenodd" d="M5.68066 5.02473C8.37303 0.36141 14.3367 -1.23692 19 1.4554C23.6634 4.14779 25.2607 10.1114 22.5684 14.7747L18.4434 21.9193L11.9482 18.1693L16.0732 11.0247C16.6946 9.94857 16.3262 8.57183 15.25 7.95051C14.1739 7.3293 12.7981 7.69865 12.1768 8.77473L8.05176 15.9193L1.55566 12.1693L5.68066 5.02473ZM17.75 3.62044C14.2824 1.6185 9.84871 2.8072 7.84668 6.27473L4.97168 11.2542L7.13672 12.5042L10.0117 7.52473C11.3234 5.25292 14.2281 4.4739 16.5 5.78548L17.75 3.62044Z" fill="black"/>
<path d="M13.4756 9.52473C13.6828 9.16621 14.1414 9.04326 14.5 9.25032C14.8584 9.45749 14.9813 9.91615 14.7744 10.2747L14.25 11.1829V9.75032H13.3457L13.4756 9.52473Z" fill="black"/>
<path d="M7.24121 1.00032C6.34508 1.69294 5.54318 2.53103 4.87207 3.50423C4.51557 3.50779 4.25137 3.51472 4.0332 3.53255C3.87346 3.5456 3.78645 3.5613 3.74805 3.56965C3.67403 3.61298 3.61264 3.67434 3.56934 3.74837C3.56097 3.78691 3.54525 3.87415 3.53223 4.03352C3.50163 4.4083 3.5 4.91917 3.5 5.80012V5.80208L1 10.1322V5.80012C1 4.1203 1.0003 3.2797 1.32715 2.63801C1.6147 2.07383 2.07353 1.61505 2.6377 1.32747C3.27941 1.0005 4.11978 1.00032 5.7998 1.00032H7.24121Z" fill="black"/>
<path d="M21.498 1.40364C21.9508 1.66484 22.3267 2.03913 22.5898 2.49055C22.2541 2.10701 21.8903 1.7433 21.498 1.40364Z" fill="black"/>
</svg>
