<svg width="24" height="24" viewBox="0 0 24 24" fill="none" xmlns="http://www.w3.org/2000/svg">
<path fill-rule="evenodd" clip-rule="evenodd" d="M15.75 10.125C19.685 10.125 22.875 13.315 22.875 17.25V23.875H17.625V17.25C17.625 16.2145 16.7855 15.375 15.75 15.375C14.7145 15.375 13.875 16.2145 13.875 17.25V23.875H8.625V17.25C8.62502 13.315 11.815 10.125 15.75 10.125ZM15.75 12.375C13.0576 12.375 10.875 14.5576 10.875 17.25V21.625H11.625V17.25C11.625 14.9718 13.4718 13.125 15.75 13.125V12.375Z" fill="black"/>
<path fill-rule="evenodd" clip-rule="evenodd" d="M19.2998 0.250005C19.8392 0.250005 20.3196 0.248884 20.7158 0.281255C21.1265 0.314835 21.5562 0.390834 21.9756 0.604497C22.5869 0.916053 23.0839 1.41306 23.3955 2.02442C23.6092 2.44376 23.6852 2.87351 23.7188 3.28418C23.7511 3.68039 23.75 4.16078 23.75 4.7002V14.3731C23.2423 12.9614 22.3711 11.7242 21.25 10.7715V9.75H19.751C18.5585 9.11252 17.1967 8.75 15.75 8.75C14.3033 8.75001 12.9415 9.11251 11.749 9.75H9.75V11.2285C8.20549 12.7676 7.25001 14.8973 7.25 17.25V16.75H2.75V19.2998C2.75 19.8804 2.75132 20.2409 2.77344 20.5117C2.79435 20.7676 2.82773 20.8324 2.83204 20.8408C2.90389 20.9816 3.01837 21.0961 3.15918 21.168C3.16751 21.1722 3.2321 21.2056 3.48829 21.2266C3.75907 21.2487 4.11957 21.25 4.7002 21.25H7.25V23.75H4.7002C4.16078 23.75 3.68039 23.7511 3.28418 23.7188C2.87351 23.6852 2.44377 23.6092 2.02442 23.3955C1.41306 23.0839 0.916054 22.587 0.604497 21.9756C0.390836 21.5562 0.314835 21.1265 0.281255 20.7158C0.248885 20.3196 0.250005 19.8392 0.250005 19.2998V4.7002C0.250005 4.16078 0.248883 3.68039 0.281255 3.28418C0.314837 2.87351 0.39083 2.44376 0.604497 2.02442C0.916058 1.41306 1.41306 0.916055 2.02442 0.604497C2.44377 0.390829 2.87351 0.314836 3.28418 0.281255C3.68039 0.248883 4.16078 0.250005 4.7002 0.250005H19.2998ZM2.75 14.25H7.25V9.75H2.75V14.25ZM4.7002 2.75C4.11957 2.75 3.75907 2.75132 3.48829 2.77344C3.23213 2.79437 3.16753 2.82779 3.15918 2.83204C3.01837 2.90389 2.90389 3.01837 2.83204 3.15918C2.82779 3.16751 2.79437 3.2321 2.77344 3.48829C2.75132 3.75907 2.75 4.11958 2.75 4.7002V7.25H7.25V2.75H4.7002ZM9.75 7.25H14.25V2.75H9.75V7.25ZM16.75 7.25H21.25V4.7002C21.25 4.11958 21.2487 3.75907 21.2266 3.48829C21.2056 3.23211 21.1722 3.16751 21.168 3.15918C21.0961 3.01837 20.9816 2.90388 20.8408 2.83204C20.8324 2.82775 20.7677 2.79436 20.5117 2.77344C20.2409 2.75132 19.8804 2.75 19.2998 2.75H16.75V7.25Z" fill="black"/>
<path d="M15.75 16.75C16.0261 16.75 16.25 16.9739 16.25 17.25V23.75H15.25V17.25C15.25 16.9739 15.4739 16.75 15.75 16.75Z" fill="black"/>
</svg>
