<svg width="24" height="24" viewBox="0 0 24 24" fill="none" xmlns="http://www.w3.org/2000/svg">
<path fill-rule="evenodd" clip-rule="evenodd" d="M19.7998 0.5C20.3516 0.5 20.7957 0.499999 21.1543 0.529297C21.5186 0.559066 21.8387 0.621634 22.1348 0.772461C22.6052 1.01214 22.9879 1.39483 23.2275 1.86523C23.3784 2.16133 23.4409 2.48136 23.4707 2.8457C23.5 3.20429 23.5 3.64839 23.5 4.2002V12.1719C23.1985 11.7865 22.8641 11.4285 22.5 11.1025V9H16V9.0625C15.6599 9.10361 15.3261 9.16391 15 9.24512V9H9V15H9.06348C8.86104 15.7155 8.75 16.4697 8.75 17.25V23.5H4.2002C3.64839 23.5 3.20429 23.5 2.8457 23.4707C2.48136 23.4409 2.16133 23.3784 1.86523 23.2275C1.39483 22.9879 1.01214 22.6052 0.772461 22.1348C0.621634 21.8387 0.559066 21.5186 0.529297 21.1543C0.499999 20.7957 0.5 20.3516 0.5 19.7998V4.2002C0.5 3.64839 0.499999 3.20429 0.529297 2.8457C0.559066 2.48136 0.621634 2.16133 0.772461 1.86523C1.01214 1.39483 1.39483 1.01214 1.86523 0.772461C2.16133 0.621634 2.48136 0.559066 2.8457 0.529297C3.20429 0.499999 3.64839 0.5 4.2002 0.5H19.7998ZM1.5 19.7998C1.5 20.3681 1.50019 20.7648 1.52539 21.0732C1.55009 21.3753 1.59613 21.5491 1.66309 21.6807C1.8069 21.9629 2.03709 22.1931 2.31934 22.3369C2.45091 22.4039 2.62471 22.4499 2.92676 22.4746C3.23518 22.4998 3.63189 22.5 4.2002 22.5H8V16H1.5V19.7998ZM1.5 15H8V9H1.5V15ZM4.2002 1.5C3.63189 1.5 3.23518 1.50019 2.92676 1.52539C2.62471 1.55009 2.45091 1.59613 2.31934 1.66309C2.03709 1.8069 1.8069 2.03709 1.66309 2.31934C1.59613 2.45091 1.55009 2.62471 1.52539 2.92676C1.50019 3.23518 1.5 3.63189 1.5 4.2002V8H8V1.5H4.2002ZM9 8H15V1.5H9V8ZM16 8H22.5V4.2002C22.5 3.63189 22.4998 3.23518 22.4746 2.92676C22.4499 2.62471 22.4039 2.45091 22.3369 2.31934C22.1931 2.03709 21.9629 1.8069 21.6807 1.66309C21.5491 1.59613 21.3753 1.55009 21.0732 1.52539C20.7648 1.50019 20.3681 1.5 19.7998 1.5H16V8Z" fill="black"/>
<path d="M17.75 23.5H16.25V22.5H17.75V23.5Z" fill="black"/>
<path fill-rule="evenodd" clip-rule="evenodd" d="M17 10.75C20.5899 10.75 23.5 13.6601 23.5 17.25V23.25H19.5V17.25C19.5 15.8693 18.3807 14.75 17 14.75C15.6193 14.75 14.5 15.8693 14.5 17.25V23.25H10.5V17.25C10.5 13.6601 13.4101 10.75 17 10.75ZM17 11.75C13.9624 11.75 11.5 14.2124 11.5 17.25V22.25H13.5V17.25C13.5 15.317 15.067 13.75 17 13.75C18.933 13.75 20.5 15.317 20.5 17.25V22.25H22.5V17.25C22.5 14.2124 20.0376 11.75 17 11.75Z" fill="black"/>
</svg>
