<svg width="24" height="24" viewBox="0 0 24 24" fill="none" xmlns="http://www.w3.org/2000/svg">
<path fill-rule="evenodd" clip-rule="evenodd" d="M19.7998 4.41348e-06C20.3434 4.41348e-06 20.8116 -0.00106774 21.1953 0.0302779C21.5906 0.0625882 21.984 0.134409 22.3623 0.327153C22.9265 0.614724 23.3853 1.07349 23.6729 1.6377C23.8656 2.01599 23.9374 2.40944 23.9697 2.80469C24.0011 3.18836 24 3.65666 24 4.2002V13.7051C23.5247 12.634 22.8411 11.6768 22 10.8838V9.5H20.0615C18.8475 8.86249 17.4664 8.5 16 8.5C14.5336 8.50001 13.1525 8.86249 11.9385 9.5H9.5V11.3936C8.25868 12.7704 7.45034 14.5432 7.28418 16.5H2V19.7998C2 20.3763 2.00127 20.7489 2.02442 21.0322C2.04661 21.3038 2.08419 21.4047 2.10938 21.4541C2.20522 21.6421 2.35794 21.7948 2.5459 21.8906C2.59534 21.9158 2.69621 21.9534 2.96778 21.9756C3.25111 21.9987 3.62366 22 4.2002 22H7.25V24H4.2002C3.65666 24 3.18836 24.0011 2.80469 23.9697C2.40944 23.9374 2.01599 23.8656 1.6377 23.6729C1.07349 23.3853 0.614724 22.9265 0.327153 22.3623C0.134409 21.984 0.0625882 21.5906 0.0302779 21.1953C-0.00106774 20.8116 4.41348e-06 20.3434 4.41348e-06 19.7998V4.2002C4.39056e-06 3.65666 -0.00106897 3.18836 0.0302779 2.80469C0.0625895 2.40944 0.134403 2.01599 0.327153 1.6377C0.614726 1.07348 1.07348 0.614726 1.6377 0.327153C2.01599 0.134403 2.40944 0.0625895 2.80469 0.0302779C3.18836 -0.00106897 3.65666 4.39056e-06 4.2002 4.41348e-06H19.7998ZM2 14.5H7.5V9.5H2V14.5ZM4.2002 2C3.62366 2 3.25111 2.00127 2.96778 2.02442C2.6962 2.04662 2.59534 2.08419 2.5459 2.10938C2.35794 2.20522 2.20522 2.35794 2.10938 2.5459C2.08419 2.59534 2.04662 2.6962 2.02442 2.96778C2.00127 3.25111 2 3.62366 2 4.2002V7.5H7.5V2H4.2002ZM9.5 7.5H14.5V2H9.5V7.5ZM16.5 7.5H22V4.2002C22 3.62366 21.9987 3.25111 21.9756 2.96778C21.9534 2.69621 21.9158 2.59534 21.8906 2.5459C21.7948 2.35794 21.6421 2.20522 21.4541 2.10938C21.4047 2.08419 21.3038 2.04661 21.0322 2.02442C20.7489 2.00127 20.3763 2 19.7998 2H16.5V7.5Z" fill="black"/>
<path d="M16 17C16.1381 17 16.25 17.1119 16.25 17.25V24H15.75V17.25C15.75 17.1119 15.8619 17 16 17Z" fill="black"/>
<path fill-rule="evenodd" clip-rule="evenodd" d="M16 10.25C19.866 10.25 23 13.384 23 17.25V23.75H18V17.25C18 16.1454 17.1046 15.25 16 15.25C14.8954 15.25 14 16.1454 14 17.25V23.75H9V17.25C9.00001 13.384 12.134 10.25 16 10.25ZM16 12.25C13.2386 12.25 11 14.4886 11 17.25V21.75H12V17.25C12 15.0409 13.7909 13.25 16 13.25C18.2091 13.25 20 15.0409 20 17.25V21.75H21V17.25C21 14.4886 18.7614 12.25 16 12.25Z" fill="black"/>
</svg>
