<svg width="24" height="24" viewBox="0 0 24 24" fill="none" xmlns="http://www.w3.org/2000/svg">
<path d="M3 14.4464V14.5001H3.09277L6.55664 16.5001H3V18.2003C3 19.0731 3.00151 19.608 3.03418 20.0079C3.0494 20.1939 3.06885 20.3067 3.08496 20.3751C3.0926 20.4075 3.09868 20.4278 3.10254 20.4386C3.10622 20.4488 3.10938 20.4542 3.10938 20.4542C3.20522 20.6421 3.35798 20.7949 3.5459 20.8907C3.5459 20.8907 3.55142 20.894 3.56152 20.8976C3.57236 20.9014 3.59253 20.9075 3.625 20.9151C3.69342 20.9312 3.80609 20.9507 3.99219 20.9659C4.39208 20.9986 4.92685 21.0001 5.7998 21.0001H7.5V17.044L8.50879 17.627L10.3145 14.5001H12.624L11.4688 16.5001H9.5V21.0001H14.3516L17.8154 23.0001H5.7998C4.11984 23.0001 3.2794 22.9999 2.6377 22.6729C2.14385 22.4212 1.73057 22.0384 1.44238 21.5685L1.32715 21.3624C1.08192 20.8811 1.02021 20.2877 1.00488 19.3126L1 18.2003V13.2911L3 14.4464Z" fill="black"/>
<path d="M23 18.2003L22.9951 19.3126C22.9798 20.2877 22.9181 20.8811 22.6729 21.3624L22.5576 21.5685C22.2694 22.0384 21.8561 22.4212 21.3623 22.6729L21.2393 22.7306C20.7793 22.9282 20.2065 22.9812 19.3125 22.9952H19.2656L20.4951 20.8644C20.6634 20.768 20.8022 20.6276 20.8906 20.4542C20.8906 20.4542 20.8938 20.4488 20.8975 20.4386C20.9013 20.4278 20.9074 20.4075 20.915 20.3751C20.9296 20.3134 20.9446 20.2155 20.959 20.0606L23 16.5274V18.2003Z" fill="black"/>
<path fill-rule="evenodd" clip-rule="evenodd" d="M5.89746 5.14951C8.52081 0.605732 14.3312 -0.951374 18.875 1.67197C23.4187 4.2953 24.9758 10.1057 22.3525 14.6495L18.3525 21.5772L12.29 18.0772L16.29 11.1495C16.9804 9.95382 16.5706 8.42486 15.375 7.73447C14.1793 7.04411 12.6503 7.45378 11.96 8.64951L7.95996 15.5772L1.89746 12.0772L5.89746 5.14951ZM17.875 3.40439C14.2878 1.33333 9.70096 2.56233 7.62988 6.14951L4.62988 11.3458L7.22754 12.8458L10.2275 7.64951C11.4702 5.4972 14.2227 4.75943 16.375 6.00205C18.5273 7.24466 19.265 9.99721 18.0225 12.1495L15.0225 17.3458L17.6201 18.8458L20.6201 13.6495C22.6912 10.0624 21.4621 5.4755 17.875 3.40439Z" fill="black"/>
<path d="M13.2588 9.39951C13.535 8.92131 14.1467 8.75718 14.625 9.0333C15.1031 9.30943 15.2671 9.92132 14.9912 10.3995L14.5 11.2501V9.50009H13.2012L13.2588 9.39951Z" fill="black"/>
<path d="M7.66016 1.00009C6.88504 1.56248 6.1738 2.23 5.55469 3.00107C4.82417 3.00159 4.35322 3.00478 3.99219 3.03427C3.80606 3.04949 3.69342 3.06894 3.625 3.08506C3.5925 3.09271 3.57234 3.09877 3.56152 3.10263C3.55117 3.10633 3.5459 3.10947 3.5459 3.10947C3.35796 3.20531 3.2052 3.35805 3.10938 3.54599C3.10938 3.54599 3.10607 3.55173 3.10254 3.56162C3.09867 3.57248 3.09258 3.59273 3.08496 3.62509C3.06886 3.69353 3.04938 3.8063 3.03418 3.99228C3.00152 4.39216 3 4.92707 3 5.7999V7.16806L1 10.6319V5.7999C1 4.22491 1.00014 3.38803 1.26953 2.76084L1.32715 2.63779C1.57886 2.14393 1.9617 1.73066 2.43164 1.44248L2.6377 1.32724C3.27941 1.00028 4.11978 1.00009 5.7998 1.00009H7.66016Z" fill="black"/>
<path d="M20.7471 1.11826C20.9785 1.16602 21.1785 1.2336 21.3623 1.32724C21.9265 1.61482 22.3853 2.07359 22.6729 2.63779C22.7632 2.81517 22.8267 3.00831 22.874 3.22959C22.2761 2.44464 21.5642 1.73293 20.7471 1.11826Z" fill="black"/>
</svg>
