<svg width="24" height="24" viewBox="0 0 24 24" fill="none" xmlns="http://www.w3.org/2000/svg">
<path d="M1.5 12.7139V15.25H5.8916L6.75781 15.75H1.5V18.2002C1.5 19.0484 1.50024 19.6547 1.53906 20.1299C1.5774 20.599 1.65094 20.8962 1.77246 21.1348C2.01214 21.6052 2.39483 21.9879 2.86523 22.2275C3.10381 22.3491 3.40101 22.4226 3.87012 22.4609C4.34525 22.4998 4.95158 22.5 5.7998 22.5H8.25V16.5752L9.01562 15.25H13.0566L12.7686 15.75H8.75V22.5H15.25V20.6523L15.75 20.9414V22.5H18.2002C18.2846 22.5 18.3666 22.4981 18.4463 22.498L18.626 22.6025L18.6855 22.4971C19.288 22.4957 19.7507 22.4919 20.1299 22.4609C20.599 22.4226 20.8962 22.3491 21.1348 22.2275C21.6052 21.9879 21.9879 21.6052 22.2275 21.1348C22.3491 20.8962 22.4226 20.599 22.4609 20.1299C22.4998 19.6547 22.5 19.0484 22.5 18.2002V15.8916L23 15.0254V18.2002L22.9951 19.3125C22.9798 20.2877 22.9181 20.881 22.6729 21.3623L22.5576 21.5684C22.2694 22.0383 21.8562 22.4211 21.3623 22.6729L21.2393 22.7305C20.7793 22.9281 20.2066 22.9811 19.3125 22.9951L18.2002 23H5.7998C4.11978 23 3.27941 22.9998 2.6377 22.6729C2.14381 22.4211 1.73057 22.0383 1.44238 21.5684L1.32715 21.3623C1.0819 20.881 1.02021 20.2877 1.00488 19.3125L1 18.2002V12.4258L1.5 12.7139Z" fill="black"/>
<path fill-rule="evenodd" clip-rule="evenodd" d="M6.54688 5.52441C8.96312 1.33935 14.3149 -0.0939798 18.5 2.32227C22.6848 4.73859 24.1183 10.0894 21.7021 14.2744L18.0771 20.5527L13.3145 17.8027L16.9395 11.5244C17.8368 9.97001 17.3044 7.98244 15.75 7.08496C14.1956 6.18753 12.2081 6.7201 11.3105 8.27441L7.68555 14.5527L2.92188 11.8027L6.54688 5.52441ZM18.25 2.75488C14.3042 0.476748 9.2587 1.82866 6.98047 5.77441L3.60547 11.6201L7.50195 13.8701L10.877 8.02441C11.9125 6.23082 14.2064 5.61681 16 6.65234C17.7934 7.68795 18.4076 9.98091 17.3721 11.7744L13.9971 17.6201L17.8945 19.8701L21.2695 14.0244C23.5476 10.0785 22.1958 5.03308 18.25 2.75488Z" fill="black"/>
<path d="M9.04102 1C8.77035 1.15427 8.50589 1.32057 8.24902 1.5H5.7998C4.95158 1.5 4.34525 1.50024 3.87012 1.53906C3.40101 1.5774 3.10381 1.65094 2.86523 1.77246C2.39483 2.01214 2.01214 2.39483 1.77246 2.86523C1.65094 3.10381 1.5774 3.40101 1.53906 3.87012C1.50024 4.34525 1.5 4.95158 1.5 5.7998V8.25H3.24121L2.95312 8.75H1.5V11.2656L1 12.1318V5.7998C1 4.22468 1.00007 3.38795 1.26953 2.76074L1.32715 2.6377C1.57888 2.14381 1.96166 1.73057 2.43164 1.44238L2.6377 1.32715C3.27941 1.00018 4.11978 1 5.7998 1H9.04102Z" fill="black"/>
<path d="M14.7061 8.25C14.806 8.28535 14.9049 8.32887 15 8.38379C15.3553 8.58899 15.6099 8.90085 15.75 9.25488V10.543C15.7189 10.6213 15.684 10.6993 15.6406 10.7744L15.25 11.4502V8.75H12.8066C13.0092 8.51725 13.2648 8.3483 13.5449 8.25H14.7061Z" fill="black"/>
<path d="M19.3125 1.00488C20.2877 1.02021 20.881 1.0819 21.3623 1.32715C21.9265 1.61472 22.3853 2.07347 22.6729 2.6377C22.9247 3.1319 22.9818 3.74395 22.9951 4.7666C22.8321 4.48431 22.6553 4.2094 22.4648 3.94238C22.4631 3.918 22.4629 3.89384 22.4609 3.87012C22.4226 3.40101 22.3491 3.10381 22.2275 2.86523C21.9879 2.39483 21.6052 2.01214 21.1348 1.77246C20.8962 1.65094 20.599 1.5774 20.1299 1.53906C20.102 1.53679 20.0737 1.53522 20.0449 1.5332C19.7899 1.3532 19.5256 1.18158 19.25 1.02246C19.239 1.01614 19.2278 1.01018 19.2168 1.00391L19.3125 1.00488Z" fill="black"/>
</svg>
