<svg width="24" height="24" viewBox="0 0 24 24" fill="none" xmlns="http://www.w3.org/2000/svg">
<path fill-rule="evenodd" clip-rule="evenodd" d="M19.7998 0.250004C20.3475 0.250004 20.8037 0.24898 21.1748 0.279301C21.5545 0.310332 21.9109 0.378102 22.2481 0.549809C22.7655 0.813458 23.1865 1.23452 23.4502 1.75196C23.6219 2.0891 23.6897 2.44547 23.7207 2.8252C23.751 3.19633 23.75 3.65253 23.75 4.2002V14.3731C23.4055 13.4152 22.8936 12.5376 22.25 11.7744V9.25H18.627C17.7284 8.92681 16.7599 8.75 15.75 8.75C14.7401 8.75 13.7716 8.92681 12.8731 9.25H9.25V11.7744C8.60642 12.5376 8.09452 13.4152 7.75 14.3731V9.25H1.75V14.75H7.62403C7.4756 15.233 7.37098 15.7345 7.31055 16.25H1.75V19.7998C1.75 20.3722 1.75025 20.7569 1.77442 21.0527C1.79788 21.3397 1.84059 21.4768 1.88672 21.5674C2.00655 21.8025 2.19751 21.9935 2.43262 22.1133C2.52316 22.1594 2.66028 22.2021 2.94727 22.2256C3.24315 22.2498 3.62778 22.25 4.2002 22.25H7.25V23.75H4.2002C3.65253 23.75 3.19633 23.751 2.8252 23.7207C2.44547 23.6897 2.0891 23.6219 1.75196 23.4502C1.23452 23.1865 0.813458 22.7655 0.549809 22.2481C0.378102 21.9109 0.310332 21.5545 0.279301 21.1748C0.24898 20.8037 0.250004 20.3475 0.250004 19.7998V4.2002C0.250004 3.65253 0.248979 3.19633 0.279301 2.8252C0.310333 2.44547 0.378098 2.0891 0.549809 1.75196C0.81346 1.23452 1.23452 0.81346 1.75196 0.549809C2.0891 0.378098 2.44547 0.310333 2.8252 0.279301C3.19633 0.248979 3.65253 0.250004 4.2002 0.250004H19.7998ZM4.2002 1.75C3.62778 1.75 3.24315 1.75024 2.94727 1.77442C2.66028 1.79788 2.52316 1.84059 2.43262 1.88672C2.19751 2.00655 2.00655 2.19751 1.88672 2.43262C1.84059 2.52316 1.79788 2.66028 1.77442 2.94727C1.75024 3.24315 1.75 3.62778 1.75 4.2002V7.75H7.75V1.75H4.2002ZM9.25 7.75H14.75V1.75H9.25V7.75ZM16.25 7.75H22.25V4.2002C22.25 3.62778 22.2498 3.24315 22.2256 2.94727C22.2021 2.66028 22.1594 2.52316 22.1133 2.43262C21.9935 2.19751 21.8025 2.00655 21.5674 1.88672C21.4768 1.84059 21.3397 1.79788 21.0527 1.77442C20.7569 1.75025 20.3722 1.75 19.7998 1.75H16.25V7.75Z" fill="black"/>
<path d="M15.75 16.75C16.0261 16.75 16.25 16.9739 16.25 17.25V23.75H15.25V17.25C15.25 16.9739 15.4739 16.75 15.75 16.75Z" fill="black"/>
<path fill-rule="evenodd" clip-rule="evenodd" d="M15.75 10.5C19.4779 10.5 22.5 13.5221 22.5 17.25V23.5H18V17.25C18 16.0074 16.9926 15 15.75 15C14.5074 15 13.5 16.0074 13.5 17.25V23.5H9V17.25C9.00001 13.5221 12.0221 10.5 15.75 10.5ZM15.75 12C12.8505 12 10.5 14.3505 10.5 17.25V22H12V17.25C12 15.1789 13.6789 13.5 15.75 13.5V12Z" fill="black"/>
</svg>
