<svg width="24" height="24" viewBox="0 0 24 24" fill="none" xmlns="http://www.w3.org/2000/svg">
<path d="M0.179321 11.9999C0.179321 11.3785 0.683001 10.8749 1.30432 10.8749H2.89568L2.64063 10.6198C2.2501 10.2293 2.2501 9.5961 2.64063 9.20558C3.03115 8.81506 3.66431 8.81506 4.05484 9.20558L5.72411 10.8749L9.28347 10.8749L7.05919 8.65057L4.69905 8.65056C4.14676 8.65056 3.69905 8.20285 3.69905 7.65056C3.69905 7.09828 4.14677 6.65056 4.69905 6.65056H5.05919L3.6413 5.23268C3.20196 4.79334 3.20196 4.08103 3.6413 3.64169C4.08064 3.20235 4.79295 3.20235 5.23229 3.64169L6.65045 5.05985V4.69916C6.65045 4.14688 7.09817 3.69916 7.65045 3.69916C8.20274 3.69917 8.65045 4.14688 8.65045 4.69917L8.65045 7.05985L10.875 9.28437V5.7241L9.20581 4.05494C8.81529 3.66441 8.81529 3.03125 9.20581 2.64072C9.59633 2.2502 10.2295 2.2502 10.62 2.64072L10.875 2.89567V1.3042C10.875 0.682878 11.3787 0.179199 12 0.179199C12.6213 0.179199 13.125 0.682878 13.125 1.3042V2.89548L13.3797 2.64073C13.7702 2.2502 14.4034 2.2502 14.7939 2.64073C15.1845 3.03125 15.1845 3.66442 14.7939 4.05494L13.125 5.7239V9.28411L15.3492 7.05989V4.69939C15.3492 4.14711 15.7969 3.69939 16.3492 3.69939C16.9015 3.69939 17.3492 4.14711 17.3492 4.69939V5.05989L18.7674 3.64169C19.2067 3.20235 19.9191 3.20235 20.3584 3.64169C20.7977 4.08103 20.7977 4.79334 20.3584 5.23268L18.9403 6.6508H19.3006C19.8529 6.6508 20.3006 7.09851 20.3006 7.65079C20.3006 8.20308 19.8529 8.65079 19.3006 8.65079H16.9403L14.7162 10.8749H18.2759L19.9451 9.20567C20.3356 8.81514 20.9688 8.81514 21.3593 9.20567C21.7498 9.59619 21.7498 10.2294 21.3593 10.6199L21.1043 10.8749H22.6956C23.3169 10.8749 23.8206 11.3785 23.8206 11.9999C23.8206 12.6212 23.3169 13.1249 22.6956 13.1249H21.1046L21.3593 13.3796C21.7498 13.7701 21.7498 14.4033 21.3593 14.7938C20.9688 15.1843 20.3356 15.1843 19.9451 14.7938L18.2761 13.1249H14.7165L16.9409 15.3493L19.3009 15.3493C19.8531 15.3493 20.3009 15.797 20.3009 16.3493C20.3009 16.9016 19.8531 17.3493 19.3009 17.3493H18.9409L20.3586 18.767C20.798 19.2064 20.798 19.9187 20.3586 20.358C19.9193 20.7974 19.207 20.7974 18.7677 20.358L17.3495 18.9398V19.3007C17.3495 19.853 16.9017 20.3007 16.3495 20.3007C15.7972 20.3007 15.3495 19.853 15.3495 19.3007L15.3495 16.9398L13.125 14.7153V18.276L14.7939 19.9449C15.1844 20.3354 15.1844 20.9686 14.7939 21.3591C14.4033 21.7497 13.7702 21.7497 13.3796 21.3591L13.125 21.1045V22.6955C13.125 23.3168 12.6213 23.8205 12 23.8205C11.3787 23.8205 10.875 23.3168 10.875 22.6955V21.1041L10.6199 21.3591C10.2294 21.7497 9.59625 21.7497 9.20573 21.3591C8.8152 20.9686 8.8152 20.3354 9.20573 19.9449L10.875 18.2757V14.7156L8.65047 16.9401L8.65047 19.3005C8.65047 19.8528 8.20275 20.3005 7.65047 20.3005C7.09818 20.3005 6.65047 19.8528 6.65047 19.3005V18.9401L5.23254 20.358C4.7932 20.7974 4.08089 20.7974 3.64155 20.358C3.20221 19.9187 3.20221 19.2064 3.64155 18.767L5.05951 17.3491H4.69906C4.14678 17.3491 3.69906 16.9013 3.69906 16.3491C3.69906 15.7968 4.14678 15.3491 4.69906 15.3491H7.05951L9.28373 13.1249L5.72369 13.1249L4.05484 14.7937C3.66431 15.1842 3.03115 15.1842 2.64062 14.7937C2.2501 14.4032 2.2501 13.77 2.64062 13.3795L2.89527 13.1249H1.30432C0.683001 13.1249 0.179321 12.6212 0.179321 11.9999Z" fill="black"/>
</svg>
