<svg width="24" height="24" viewBox="0 0 24 24" fill="none" xmlns="http://www.w3.org/2000/svg">
<path fill-rule="evenodd" clip-rule="evenodd" d="M11.3965 12.2497L5.91415 12.2497C5.92802 12.1677 5.93512 12.0841 5.93512 11.9997C5.93512 11.9154 5.92802 11.8318 5.91415 11.7497L11.3963 11.7497L7.51966 7.87311C7.58757 7.82486 7.65177 7.77072 7.71145 7.71104C7.77103 7.65146 7.82508 7.58738 7.87327 7.51961L11.7503 11.3967V5.91354C11.8324 5.92741 11.916 5.93451 12.0003 5.93451C12.0847 5.93451 12.1683 5.92741 12.2503 5.91354V11.3964L16.1271 7.51971C16.1753 7.58756 16.2294 7.65171 16.289 7.71135C16.3487 7.77097 16.4128 7.82506 16.4806 7.87327L12.6041 11.7497L18.0865 11.7497C18.0727 11.8318 18.0656 11.9154 18.0656 11.9997C18.0656 12.0841 18.0727 12.1677 18.0865 12.2497L12.6044 12.2497L16.481 16.1263C16.4131 16.1746 16.3489 16.2287 16.2892 16.2884C16.2296 16.348 16.1756 16.4121 16.1274 16.4798L12.2503 12.6028L12.2503 18.0859C12.1683 18.072 12.0847 18.0649 12.0003 18.0649C11.916 18.0649 11.8324 18.072 11.7503 18.0859L11.7503 12.603L7.87362 16.4798C7.82539 16.4119 7.77129 16.3478 7.71165 16.2881C7.65202 16.2285 7.5879 16.1744 7.52007 16.1262L11.3965 12.2497ZM11.9894 11.9954L11.9895 11.9997L11.9894 12.0039L11.9927 12.0071L11.9962 12.0107L12.0003 12.0106L12.0047 12.0107L12.0082 12.0071L12.0113 12.0041L12.0112 11.9997L12.0113 11.9956L12.008 11.9923L12.0045 11.9888L12.0003 11.9889L11.996 11.9888L11.9924 11.9923L11.9894 11.9954Z" fill="black"/>
<path d="M2.3138 11.9997L2.0638 11.7497H1.30469C1.16662 11.7497 1.05469 11.8617 1.05469 11.9997C1.05469 12.1378 1.16662 12.2497 1.30469 12.2497H2.0638L2.3138 11.9997Z" fill="black"/>
<path d="M5.15079 5.15038L4.79692 5.15038L4.26038 4.61383C4.16275 4.51621 4.16275 4.35791 4.26038 4.26028C4.35802 4.16265 4.51631 4.16265 4.61394 4.26028L5.15079 4.79713V5.15038Z" fill="black"/>
<path d="M12.0003 2.31319L11.7503 2.06319V1.30408C11.7503 1.166 11.8623 1.05408 12.0003 1.05408C12.1384 1.05408 12.2503 1.16601 12.2503 1.30408V2.06319L12.0003 2.31319Z" fill="black"/>
<path d="M18.8497 5.15069V4.79708L19.3865 4.26028C19.4841 4.16265 19.6424 4.16265 19.74 4.26028C19.8377 4.35791 19.8377 4.5162 19.74 4.61384L19.2032 5.15069H18.8497Z" fill="black"/>
<path d="M21.6869 11.9997L21.9369 11.7497H22.696C22.8341 11.7497 22.946 11.8617 22.946 11.9997C22.946 12.1378 22.8341 12.2497 22.696 12.2497H21.9369L21.6869 11.9997Z" fill="black"/>
<path d="M18.8499 18.8491H19.2038L19.7403 19.3856C19.8379 19.4833 19.8379 19.6415 19.7403 19.7392C19.6427 19.8368 19.4844 19.8368 19.3867 19.7392L18.8499 19.2023V18.8491Z" fill="black"/>
<path d="M12.0003 21.6863L12.2503 21.9363V22.6954C12.2503 22.8335 12.1384 22.9454 12.0003 22.9454C11.8623 22.9454 11.7503 22.8335 11.7503 22.6954V21.9363L12.0003 21.6863Z" fill="black"/>
<path d="M5.15098 18.8488V19.2024L4.61419 19.7392C4.51656 19.8368 4.35827 19.8368 4.26064 19.7392C4.16301 19.6415 4.16301 19.4833 4.26064 19.3856L4.79749 18.8488H5.15098Z" fill="black"/>
<path d="M2.17132 14.2635C2.07369 14.1658 2.07369 14.0075 2.17132 13.9099L4.0815 11.9997L2.17132 10.0896C2.07369 9.99192 2.07369 9.83363 2.17132 9.736C2.26895 9.63837 2.42724 9.63837 2.52487 9.736L4.61183 11.823C4.65871 11.8698 4.68505 11.9334 4.68505 11.9997C4.68505 12.066 4.65871 12.1296 4.61183 12.1765L2.52487 14.2635C2.42724 14.3611 2.26895 14.3611 2.17132 14.2635Z" fill="black"/>
<path d="M13.9104 21.8287C14.0081 21.9263 14.1664 21.9263 14.264 21.8287C14.3616 21.7311 14.3616 21.5728 14.264 21.4751L12.177 19.3882C12.1302 19.3413 12.0666 19.315 12.0003 19.315C11.934 19.315 11.8704 19.3413 11.8235 19.3882L9.73654 21.4751C9.63891 21.5728 9.63891 21.7311 9.73654 21.8287C9.83417 21.9263 9.99246 21.9263 10.0901 21.8287L12.0003 19.9185L13.9104 21.8287Z" fill="black"/>
<path d="M9.73654 2.17078C9.83417 2.07315 9.99246 2.07315 10.0901 2.17078L12.0003 4.08096L13.9104 2.17078C14.0081 2.07315 14.1664 2.07315 14.264 2.17078C14.3616 2.26841 14.3616 2.4267 14.264 2.52434L12.177 4.61129C12.1302 4.65818 12.0666 4.68451 12.0003 4.68451C11.934 4.68452 11.8704 4.65818 11.8235 4.61129L9.73654 2.52434C9.63891 2.4267 9.63891 2.26841 9.73654 2.17078Z" fill="black"/>
<path d="M21.8292 9.736C21.9269 9.83363 21.9269 9.99192 21.8292 10.0896L19.919 11.9997L21.8292 13.9099C21.9268 14.0075 21.9268 14.1658 21.8292 14.2635C21.7316 14.3611 21.5733 14.3611 21.4757 14.2635L19.3887 12.1765C19.3418 12.1296 19.3155 12.066 19.3155 11.9997C19.3155 11.9334 19.3418 11.8698 19.3887 11.823L21.4757 9.736C21.5733 9.63837 21.7316 9.63837 21.8292 9.736Z" fill="black"/>
<path d="M17.5996 3.69929C17.5996 3.56122 17.4877 3.44929 17.3496 3.44929C17.2116 3.44929 17.0996 3.56122 17.0996 3.69929V6.6507C17.0996 6.717 17.126 6.78059 17.1728 6.82747C17.2197 6.87436 17.2833 6.9007 17.3496 6.9007L20.301 6.9007C20.4391 6.9007 20.551 6.78877 20.551 6.6507C20.551 6.51262 20.4391 6.4007 20.301 6.4007H17.5996V3.69929Z" fill="black"/>
<path d="M20.5512 17.3491C20.5512 17.4872 20.4393 17.5991 20.3012 17.5991H17.5998V20.3005C17.5998 20.4386 17.4879 20.5505 17.3498 20.5505C17.2117 20.5505 17.0998 20.4386 17.0998 20.3005V17.3491C17.0998 17.2828 17.1262 17.2192 17.173 17.1723C17.2199 17.1254 17.2835 17.0991 17.3498 17.0991H20.3012C20.4393 17.0991 20.5512 17.211 20.5512 17.3491Z" fill="black"/>
<path d="M6.40092 20.3002C6.40092 20.4382 6.51285 20.5502 6.65092 20.5502C6.78899 20.5502 6.90092 20.4382 6.90092 20.3002V17.3488C6.90092 17.2825 6.87458 17.2189 6.82769 17.172C6.78081 17.1251 6.71722 17.0988 6.65092 17.0988H3.69952C3.56144 17.0988 3.44952 17.2107 3.44952 17.3488C3.44952 17.4868 3.56144 17.5988 3.69952 17.5988H6.40092L6.40092 20.3002Z" fill="black"/>
<path d="M3.44932 6.65038C3.44932 6.51231 3.56125 6.40038 3.69932 6.40038L6.40072 6.40038L6.40072 3.69898C6.40072 3.56091 6.51265 3.44898 6.65072 3.44898C6.78879 3.44898 6.90072 3.56091 6.90072 3.69898L6.90072 6.65038C6.90072 6.71668 6.87438 6.78027 6.8275 6.82716C6.78061 6.87404 6.71703 6.90038 6.65072 6.90038L3.69932 6.90038C3.56125 6.90038 3.44932 6.78845 3.44932 6.65038Z" fill="black"/>
</svg>
