<svg width="24" height="24" viewBox="0 0 24 24" fill="none" xmlns="http://www.w3.org/2000/svg">
<path d="M1.3042 11.2499C0.889986 11.2499 0.554199 11.5856 0.554199 11.9999C0.554199 12.4141 0.889986 12.7499 1.3042 12.7499H1.56331L2.31331 11.9999L1.56331 11.2499H1.3042Z" fill="black"/>
<path d="M5.74543 11.2499L3.87794 9.38236C3.58505 9.08946 3.11017 9.08946 2.81728 9.38236C2.52439 9.67525 2.52439 10.1501 2.81728 10.443L4.37391 11.9996L2.81728 13.5563C2.52439 13.8492 2.52439 14.324 2.81728 14.6169C3.11017 14.9098 3.58505 14.9098 3.87794 14.6169L5.74502 12.7499L10.1889 12.7499L7.33972 15.5991L4.69894 15.5991C4.28473 15.5991 3.94894 15.9349 3.94894 16.3491C3.94894 16.7633 4.28473 17.0991 4.69894 17.0991H6.90034L6.90034 19.3005C6.90034 19.7147 7.23613 20.0505 7.65034 20.0505C8.06456 20.0505 8.40034 19.7147 8.40034 19.3005V16.6598L11.2499 13.8103L11.2499 18.2542L9.38238 20.1217C9.08949 20.4146 9.08949 20.8895 9.38238 21.1824C9.67527 21.4753 10.1501 21.4753 10.443 21.1824L11.9997 19.6257L13.5563 21.1824C13.8492 21.4753 14.3241 21.4753 14.617 21.1824C14.9098 20.8895 14.9098 20.4146 14.617 20.1217L12.7499 18.2546L12.7499 13.81L15.5993 16.6595L15.5993 19.3007C15.5993 19.7149 15.9351 20.0507 16.3493 20.0507C16.7635 20.0507 17.0993 19.7149 17.0993 19.3007L17.0993 17.0993H19.3007C19.7149 17.0993 20.0507 16.7635 20.0507 16.3493C20.0507 15.9351 19.7149 15.5993 19.3007 15.5993H16.6605L13.811 12.7499L18.2546 12.7499L20.1217 14.617C20.4146 14.9099 20.8895 14.9099 21.1824 14.617C21.4753 14.3241 21.4753 13.8492 21.1824 13.5564L19.6258 11.9997L21.1824 10.4431C21.4753 10.1502 21.4753 9.67534 21.1824 9.38244C20.8895 9.08955 20.4146 9.08955 20.1217 9.38244L18.2543 11.2499L13.8108 11.2499L16.6598 8.40079L19.3005 8.40079C19.7147 8.40079 20.0505 8.06501 20.0505 7.65079C20.0505 7.23658 19.7147 6.90079 19.3005 6.90079L17.0991 6.90079V4.69939C17.0991 4.28518 16.7633 3.94939 16.3491 3.94939C15.9349 3.94939 15.5991 4.28518 15.5991 4.69939V7.34022L12.7499 10.1894V5.74535L14.617 3.87816C14.9099 3.58527 14.9099 3.1104 14.617 2.8175C14.3241 2.52461 13.8493 2.52461 13.5564 2.8175L11.9998 4.37413L10.4431 2.8175C10.1502 2.52461 9.67536 2.52461 9.38246 2.8175C9.08957 3.1104 9.08957 3.58527 9.38246 3.87816L11.2499 5.74555V10.1897L8.40033 7.34018V4.69917C8.40033 4.28495 8.06454 3.94916 7.65033 3.94916C7.23612 3.94916 6.90033 4.28495 6.90033 4.69916V6.90056L4.69893 6.90056C4.28471 6.90056 3.94893 7.23635 3.94893 7.65056C3.94893 8.06478 4.28471 8.40056 4.69893 8.40056L7.33939 8.40057L10.1887 11.2499L5.74543 11.2499Z" fill="black"/>
<path d="M5.1503 5.1505H4.08933L3.90634 4.96751C3.61345 4.67462 3.61345 4.19975 3.90634 3.90685C4.19924 3.61396 4.67411 3.61396 4.967 3.90685L5.1503 4.09015L5.1503 5.1505Z" fill="black"/>
<path d="M11.9999 2.31331L11.2499 1.56331V1.3042C11.2499 0.889986 11.5856 0.554199 11.9999 0.554199C12.4141 0.554199 12.7499 0.889986 12.7499 1.3042V1.56332L11.9999 2.31331Z" fill="black"/>
<path d="M18.8492 5.15082V4.09009L19.0324 3.90685C19.3253 3.61396 19.8002 3.61396 20.0931 3.90685C20.386 4.19974 20.386 4.67462 20.0931 4.96751L19.9098 5.15082H18.8492Z" fill="black"/>
<path d="M21.6864 11.9999L22.4364 11.2499H22.6955C23.1097 11.2499 23.4455 11.5856 23.4455 11.9999C23.4455 12.4141 23.1097 12.7499 22.6955 12.7499H22.4364L21.6864 11.9999Z" fill="black"/>
<path d="M18.8494 18.8492H19.9104L20.0934 19.0322C20.3863 19.3251 20.3863 19.8 20.0934 20.0929C19.8005 20.3857 19.3256 20.3857 19.0327 20.0929L18.8494 19.9096V18.8492Z" fill="black"/>
<path d="M11.9999 21.6864L12.7499 22.4364V22.6955C12.7499 23.1097 12.4141 23.4455 11.9999 23.4455C11.5856 23.4455 11.2499 23.1097 11.2499 22.6955V22.4364L11.9999 21.6864Z" fill="black"/>
<path d="M5.1505 18.8489V19.9096L4.96726 20.0929C4.67436 20.3857 4.19949 20.3857 3.9066 20.0929C3.6137 19.8 3.6137 19.3251 3.9066 19.0322L4.0899 18.8489H5.1505Z" fill="black"/>
</svg>
