<svg width="24" height="24" viewBox="0 0 24 24" fill="none" xmlns="http://www.w3.org/2000/svg">
<path d="M1.30469 11.25C0.890474 11.25 0.554687 11.5858 0.554688 12C0.554688 12.4142 0.890474 12.75 1.30469 12.75H1.5638L2.3138 12L1.5638 11.25H1.30469Z" fill="black"/>
<path d="M10.1894 12.75L5.73416 12.75C5.86469 12.5239 5.93512 12.2656 5.93512 12C5.93512 11.7344 5.86469 11.4761 5.73417 11.25L10.1892 11.25L7.03877 8.09958C7.29103 8.03202 7.52359 7.89914 7.71145 7.71128C7.89919 7.52354 8.03202 7.29117 8.09962 7.0391L11.2503 10.1898V5.7338C11.4764 5.86432 11.7348 5.93476 12.0003 5.93476C12.2659 5.93476 12.5243 5.86432 12.7503 5.7338V10.1896L15.9008 7.03912C15.9684 7.2913 16.1012 7.52379 16.289 7.7116C16.4768 7.89938 16.7093 8.03224 16.9614 8.09981L13.8113 11.25L18.2665 11.25C18.136 11.4761 18.0656 11.7344 18.0656 12C18.0656 12.2656 18.136 12.5239 18.2665 12.75L13.8115 12.75L16.9619 15.9004C16.7096 15.9679 16.4771 16.1008 16.2892 16.2887C16.1015 16.4764 15.9687 16.7088 15.9011 16.9608L12.7503 13.8101L12.7503 18.2661C12.5242 18.1356 12.2659 18.0652 12.0003 18.0652C11.7348 18.0652 11.4764 18.1356 11.2503 18.2661L11.2503 13.8104L8.09989 16.9608C8.03232 16.7086 7.89945 16.4762 7.71165 16.2884C7.52386 16.1006 7.29141 15.9677 7.03926 15.9001L10.1894 12.75Z" fill="black"/>
<path d="M5.15079 5.15062H4.08982L3.90683 4.96763C3.61394 4.67474 3.61394 4.19987 3.90683 3.90697C4.19972 3.61408 4.6746 3.61408 4.96749 3.90697L5.15079 4.09027L5.15079 5.15062Z" fill="black"/>
<path d="M12.0003 2.31344L11.2503 1.56344V1.30432C11.2503 0.890108 11.5861 0.554321 12.0003 0.554321C12.4146 0.554321 12.7503 0.890108 12.7503 1.30432V1.56344L12.0003 2.31344Z" fill="black"/>
<path d="M18.8497 5.15094V4.09021L19.0329 3.90697C19.3258 3.61408 19.8007 3.61408 20.0936 3.90697C20.3865 4.19987 20.3865 4.67474 20.0936 4.96763L19.9103 5.15094H18.8497Z" fill="black"/>
<path d="M21.6869 12L22.4369 11.25H22.696C23.1102 11.25 23.446 11.5858 23.446 12C23.446 12.4142 23.1102 12.75 22.696 12.75H22.4369L21.6869 12Z" fill="black"/>
<path d="M18.8499 18.8493H19.9109L20.0938 19.0323C20.3867 19.3252 20.3867 19.8001 20.0938 20.093C19.801 20.3859 19.3261 20.3859 19.0332 20.093L18.8499 19.9097V18.8493Z" fill="black"/>
<path d="M12.0003 21.6865L12.7503 22.4365V22.6956C12.7503 23.1098 12.4146 23.4456 12.0003 23.4456C11.5861 23.4456 11.2503 23.1098 11.2503 22.6956V22.4365L12.0003 21.6865Z" fill="black"/>
<path d="M5.15098 18.849V19.9097L4.96775 20.093C4.67485 20.3859 4.19998 20.3859 3.90708 20.093C3.61419 19.8001 3.61419 19.3252 3.90708 19.0323L4.09039 18.849H5.15098Z" fill="black"/>
<path d="M1.81777 14.6173C1.52487 14.3244 1.52487 13.8495 1.81777 13.5566L3.37439 12L1.81777 10.4434C1.52487 10.1505 1.52487 9.67558 1.81777 9.38269C2.11066 9.0898 2.58554 9.0898 2.87843 9.38269L4.96538 11.4696C5.10604 11.6103 5.18505 11.8011 5.18505 12C5.18505 12.1989 5.10604 12.3897 4.96538 12.5303L2.87843 14.6173C2.58553 14.9102 2.11066 14.9102 1.81777 14.6173Z" fill="black"/>
<path d="M13.5569 22.1825C13.8498 22.4754 14.3247 22.4754 14.6176 22.1825C14.9104 21.8896 14.9104 21.4147 14.6176 21.1218L12.5306 19.0349C12.3899 18.8942 12.1992 18.8152 12.0003 18.8152C11.8014 18.8152 11.6106 18.8942 11.4699 19.0349L9.38298 21.1218C9.09009 21.4147 9.09009 21.8896 9.38298 22.1825C9.67588 22.4754 10.1508 22.4754 10.4436 22.1825L12.0003 20.6259L13.5569 22.1825Z" fill="black"/>
<path d="M9.38298 1.81747C9.67588 1.52458 10.1508 1.52458 10.4436 1.81747L12.0003 3.3741L13.5569 1.81747C13.8498 1.52458 14.3247 1.52458 14.6176 1.81747C14.9105 2.11037 14.9105 2.58524 14.6176 2.87813L12.5306 4.96509C12.3899 5.10574 12.1992 5.18476 12.0003 5.18476C11.8014 5.18476 11.6106 5.10574 11.4699 4.96509L9.38298 2.87813C9.09009 2.58524 9.09009 2.11037 9.38298 1.81747Z" fill="black"/>
<path d="M22.1828 9.38269C22.4757 9.67559 22.4757 10.1505 22.1828 10.4434L20.6261 12L22.1828 13.5566C22.4757 13.8495 22.4757 14.3244 22.1828 14.6173C21.8899 14.9102 21.415 14.9102 21.1221 14.6173L19.0352 12.5303C18.8945 12.3897 18.8155 12.1989 18.8155 12C18.8155 11.8011 18.8945 11.6103 19.0352 11.4696L21.1221 9.38269C21.415 9.0898 21.8899 9.0898 22.1828 9.38269Z" fill="black"/>
<path d="M18.0996 3.69954C18.0996 3.28532 17.7638 2.94954 17.3496 2.94954C16.9354 2.94954 16.5996 3.28532 16.5996 3.69954V6.65094C16.5996 6.84985 16.6786 7.04062 16.8193 7.18127C16.9599 7.32192 17.1507 7.40094 17.3496 7.40094L20.301 7.40094C20.7152 7.40094 21.051 7.06515 21.051 6.65094C21.051 6.23673 20.7152 5.90094 20.301 5.90094H18.0996V3.69954Z" fill="black"/>
<path d="M21.0512 17.3493C21.0512 17.7635 20.7154 18.0993 20.3012 18.0993H18.0998V20.3007C18.0998 20.7149 17.764 21.0507 17.3498 21.0507C16.9356 21.0507 16.5998 20.7149 16.5998 20.3007V17.3493C16.5998 17.1504 16.6788 16.9597 16.8195 16.819C16.9601 16.6783 17.1509 16.5993 17.3498 16.5993H20.3012C20.7154 16.5993 21.0512 16.9351 21.0512 17.3493Z" fill="black"/>
<path d="M5.90092 20.3004C5.90092 20.7146 6.2367 21.0504 6.65092 21.0504C7.06513 21.0504 7.40092 20.7146 7.40092 20.3004V17.349C7.40092 17.1501 7.3219 16.9593 7.18125 16.8187C7.04059 16.678 6.84983 16.599 6.65092 16.599H3.69952C3.2853 16.599 2.94952 16.9348 2.94952 17.349C2.94952 17.7632 3.2853 18.099 3.69952 18.099H5.90092V20.3004Z" fill="black"/>
<path d="M2.94932 6.65062C2.94932 6.23641 3.28511 5.90062 3.69932 5.90062H5.90072L5.90072 3.69922C5.90072 3.28501 6.23651 2.94922 6.65072 2.94922C7.06494 2.94922 7.40072 3.28501 7.40072 3.69922V6.65063C7.40072 6.84954 7.3217 7.0403 7.18105 7.18095C7.0404 7.32161 6.84963 7.40063 6.65072 7.40063L3.69932 7.40062C3.28511 7.40062 2.94932 7.06484 2.94932 6.65062Z" fill="black"/>
</svg>
