<svg width="24" height="24" viewBox="0 0 24 24" fill="none" xmlns="http://www.w3.org/2000/svg">
<path d="M0.804688 12C0.804687 11.7238 1.02855 11.5 1.30469 11.5H3.22794L1.99454 10.2666C1.79928 10.0713 1.79928 9.75473 1.99454 9.55947C2.18981 9.36421 2.50639 9.36421 2.70165 9.55947L4.64216 11.5L10.7927 11.5L6.44337 7.15063L3.69932 7.15062C3.42318 7.15062 3.19932 6.92677 3.19932 6.65062C3.19932 6.37448 3.42318 6.15062 3.69932 6.15062H5.44337L4.08361 4.79086C3.88835 4.59559 3.88835 4.27901 4.08361 4.08375C4.27887 3.88849 4.59545 3.88849 4.79071 4.08375L6.15072 5.44376L6.15072 3.69922C6.15072 3.42308 6.37458 3.19922 6.65072 3.19922C6.92686 3.19922 7.15072 3.42308 7.15072 3.69922L7.15072 6.44376L11.5003 10.7934V4.64194L9.55976 2.70136C9.3645 2.50609 9.3645 2.18951 9.55976 1.99425C9.75502 1.79899 10.0716 1.79899 10.2669 1.99425L11.5003 3.22772V1.30432C11.5003 1.02818 11.7242 0.804321 12.0003 0.804321C12.2765 0.804321 12.5003 1.02818 12.5003 1.30432V3.22758L13.7337 1.99425C13.9289 1.79899 14.2455 1.79899 14.4408 1.99425C14.636 2.18951 14.636 2.50609 14.4408 2.70136L12.5003 4.6418V10.7931L16.8496 6.44383V3.69954C16.8496 3.42339 17.0735 3.19954 17.3496 3.19954C17.6258 3.19954 17.8496 3.42339 17.8496 3.69954V5.44383L19.2097 4.08375C19.405 3.88849 19.7216 3.88849 19.9168 4.08375C20.1121 4.27901 20.1121 4.59559 19.9168 4.79086L18.5567 6.15094H20.301C20.5772 6.15094 20.801 6.3748 20.801 6.65094C20.801 6.92708 20.5772 7.15094 20.301 7.15094H17.5567L13.2077 11.5L19.3584 11.5L21.2989 9.55947C21.4942 9.36421 21.8107 9.36421 22.006 9.55947C22.2013 9.75473 22.2013 10.0713 22.006 10.2666L20.7726 11.5H22.696C22.9721 11.5 23.196 11.7238 23.196 12C23.196 12.2761 22.9721 12.5 22.696 12.5H20.7726L22.006 13.7334C22.2013 13.9286 22.2013 14.2452 22.006 14.4405C21.8107 14.6357 21.4942 14.6357 21.2989 14.4405L19.3584 12.5L13.208 12.5L17.5573 16.8493H20.3012C20.5774 16.8493 20.8012 17.0732 20.8012 17.3493C20.8012 17.6255 20.5774 17.8493 20.3012 17.8493H18.5573L19.9171 19.2091C20.1123 19.4044 20.1123 19.7209 19.9171 19.9162C19.7218 20.1115 19.4052 20.1115 19.21 19.9162L17.8498 18.5561V20.3007C17.8498 20.5769 17.626 20.8007 17.3498 20.8007C17.0737 20.8007 16.8498 20.5769 16.8498 20.3007V17.556L12.5003 13.2066L12.5003 19.3582L14.4408 21.2986C14.636 21.4939 14.636 21.8104 14.4408 22.0057C14.2455 22.201 13.9289 22.201 13.7337 22.0057L12.5003 20.7724V22.6956C12.5003 22.9718 12.2765 23.1956 12.0003 23.1956C11.7242 23.1956 11.5003 22.9718 11.5003 22.6956V20.7722L10.2669 22.0057C10.0716 22.201 9.75502 22.201 9.55976 22.0057C9.3645 21.8104 9.3645 21.4939 9.55976 21.2986L11.5003 19.358L11.5003 13.2068L7.15092 17.5562L7.15092 20.3004C7.15092 20.5766 6.92706 20.8004 6.65092 20.8004C6.37477 20.8004 6.15092 20.5766 6.15092 20.3004L6.15092 18.5562L4.79097 19.9162C4.59571 20.1115 4.27912 20.1115 4.08386 19.9162C3.8886 19.7209 3.8886 19.4044 4.08386 19.2091L5.44393 17.849H3.69952C3.42337 17.849 3.19952 17.6252 3.19952 17.349C3.19952 17.0729 3.42337 16.849 3.69952 16.849H6.44393L10.793 12.5L4.64216 12.5L2.70165 14.4405C2.50639 14.6357 2.18981 14.6357 1.99454 14.4405C1.79928 14.2452 1.79928 13.9286 1.99454 13.7334L3.22795 12.5H1.30469C1.02855 12.5 0.804688 12.2761 0.804688 12Z" fill="black"/>
</svg>
