<svg width="24" height="24" viewBox="0 0 24 24" fill="none" xmlns="http://www.w3.org/2000/svg">
<path d="M1.3042 11.1249C0.82095 11.1249 0.429199 11.5166 0.429199 11.9999C0.429199 12.4831 0.82095 12.8749 1.3042 12.8749H1.43831L2.31331 11.9999L1.43831 11.1249H1.3042Z" fill="black"/>
<path d="M9.88716 12.8749L5.65299 12.8749C5.83495 12.6215 5.93463 12.3158 5.93463 11.9999C5.93463 11.6839 5.83495 11.3782 5.65299 11.1249L9.8869 11.1249L6.89282 8.13077C7.20074 8.08032 7.48748 7.93464 7.71096 7.71116C7.93432 7.48781 8.07996 7.20127 8.13049 6.89356L11.1249 9.88793V5.65299C11.3782 5.83495 11.6839 5.93463 11.9999 5.93463C12.3158 5.93463 12.6215 5.83495 12.8749 5.65299V9.88767L15.869 6.89355C15.9194 7.20138 16.0651 7.48804 16.2885 7.71147C16.5119 7.93488 16.7986 8.08054 17.1064 8.13103L14.1125 11.1249H18.3467C18.1648 11.3782 18.0651 11.6839 18.0651 11.9999C18.0651 12.3158 18.1648 12.6215 18.3467 12.8749H14.1128L17.1069 15.8689C16.799 15.9194 16.5122 16.0651 16.2887 16.2885C16.0654 16.5119 15.9197 16.7984 15.8692 17.1061L12.8749 14.1118V18.3467C12.6215 18.1648 12.3158 18.0651 11.9999 18.0651C11.6839 18.0651 11.3782 18.1648 11.1249 18.3467V14.112L8.13073 17.1062C8.08025 16.7983 7.93459 16.5117 7.71116 16.2882C7.48775 16.0648 7.20113 15.9192 6.89334 15.8687L9.88716 12.8749Z" fill="black"/>
<path d="M5.1503 5.1505H3.91255L3.81795 5.0559C3.47625 4.71419 3.47625 4.16017 3.81795 3.81846C4.15966 3.47676 4.71368 3.47676 5.05539 3.81846L5.1503 3.91337L5.1503 5.1505Z" fill="black"/>
<path d="M11.9999 2.31331L11.1249 1.43831V1.3042C11.1249 0.82095 11.5166 0.429199 11.9999 0.429199C12.4831 0.429199 12.8749 0.820949 12.8749 1.3042V1.43831L11.9999 2.31331Z" fill="black"/>
<path d="M18.8492 5.15081V3.91331L18.9441 3.81846C19.2858 3.47675 19.8398 3.47675 20.1815 3.81846C20.5232 4.16017 20.5232 4.71419 20.1815 5.0559L20.0866 5.15081H18.8492Z" fill="black"/>
<path d="M21.6864 11.9999L22.5614 11.1249H22.6955C23.1788 11.1249 23.5705 11.5166 23.5705 11.9999C23.5705 12.4831 23.1788 12.8749 22.6955 12.8749H22.5614L21.6864 11.9999Z" fill="black"/>
<path d="M18.8494 18.8492H20.0872L20.1817 18.9438C20.5235 19.2855 20.5235 19.8395 20.1817 20.1812C19.84 20.5229 19.286 20.5229 18.9443 20.1812L18.8494 20.0863V18.8492Z" fill="black"/>
<path d="M11.9999 21.6864L12.8749 22.5614V22.6955C12.8749 23.1788 12.4831 23.5705 11.9999 23.5705C11.5166 23.5705 11.1249 23.1788 11.1249 22.6955V22.5614L11.9999 21.6864Z" fill="black"/>
<path d="M5.1505 18.8489V20.0864L5.05564 20.1812C4.71394 20.5229 4.15992 20.5229 3.81821 20.1812C3.4765 19.8395 3.4765 19.2855 3.81821 18.9438L3.91312 18.8489H5.1505Z" fill="black"/>
<path d="M1.72889 14.7055C1.38718 14.3638 1.38718 13.8098 1.72889 13.4681L3.19713 11.9999L1.72889 10.5316C1.38718 10.1899 1.38718 9.63589 1.72889 9.29418C2.0706 8.95247 2.62462 8.95247 2.96633 9.29418L5.05328 11.3811C5.21738 11.5452 5.30957 11.7678 5.30957 11.9999C5.30957 12.2319 5.21738 12.4545 5.05328 12.6186L2.96633 14.7055C2.62462 15.0472 2.0706 15.0472 1.72889 14.7055Z" fill="black"/>
<path d="M13.468 22.2707C13.8097 22.6125 14.3637 22.6125 14.7055 22.2707C15.0472 21.929 15.0472 21.375 14.7055 21.0333L12.6185 18.9464C12.4544 18.7823 12.2318 18.6901 11.9998 18.6901C11.7677 18.6901 11.5452 18.7823 11.3811 18.9464L9.29411 21.0333C8.9524 21.375 8.9524 21.929 9.29411 22.2707C9.63582 22.6125 10.1898 22.6125 10.5315 22.2707L11.9998 20.8025L13.468 22.2707Z" fill="black"/>
<path d="M9.29411 1.72896C9.63582 1.38725 10.1898 1.38725 10.5315 1.72896L11.9998 3.1972L13.468 1.72896C13.8097 1.38725 14.3637 1.38725 14.7055 1.72896C15.0472 2.07067 15.0472 2.62469 14.7055 2.9664L12.6185 5.05336C12.4544 5.21745 12.2318 5.30964 11.9998 5.30964C11.7677 5.30964 11.5452 5.21745 11.3811 5.05336L9.29411 2.9664C8.9524 2.62469 8.9524 2.07067 9.29411 1.72896Z" fill="black"/>
<path d="M22.2707 9.29418C22.6124 9.63589 22.6124 10.1899 22.2707 10.5316L20.8024 11.9999L22.2707 13.4681C22.6124 13.8098 22.6124 14.3638 22.2707 14.7055C21.929 15.0472 21.3749 15.0472 21.0332 14.7055L18.9463 12.6186C18.7822 12.4545 18.69 12.2319 18.69 11.9999C18.69 11.7678 18.7822 11.5452 18.9463 11.3811L21.0332 9.29418C21.3749 8.95247 21.929 8.95247 22.2707 9.29418Z" fill="black"/>
<path d="M18.2241 3.69941C18.2241 3.21617 17.8324 2.82441 17.3491 2.82441C16.8659 2.82441 16.4741 3.21617 16.4741 3.69941V6.65082C16.4741 6.88288 16.5663 7.10544 16.7304 7.26954C16.8945 7.43363 17.1171 7.52582 17.3491 7.52582L20.3005 7.52582C20.7838 7.52582 21.1755 7.13407 21.1755 6.65082C21.1755 6.16757 20.7838 5.77582 20.3005 5.77582H18.2241V3.69941Z" fill="black"/>
<path d="M21.1757 17.3492C21.1757 17.8325 20.784 18.2242 20.3007 18.2242H18.2243V20.3006C18.2243 20.7839 17.8326 21.1756 17.3493 21.1756C16.8661 21.1756 16.4743 20.7839 16.4743 20.3006V17.3492C16.4743 17.1171 16.5665 16.8946 16.7306 16.7305C16.8947 16.5664 17.1173 16.4742 17.3493 16.4742H20.3007C20.784 16.4742 21.1757 16.866 21.1757 17.3492Z" fill="black"/>
<path d="M5.77543 20.3003C5.77543 20.7835 6.16718 21.1753 6.65043 21.1753C7.13368 21.1753 7.52543 20.7835 7.52543 20.3003V17.3489C7.52543 17.1168 7.43324 16.8943 7.26915 16.7302C7.10505 16.5661 6.88249 16.4739 6.65043 16.4739H3.69903C3.21578 16.4739 2.82403 16.8656 2.82403 17.3489C2.82403 17.8321 3.21578 18.2239 3.69903 18.2239H5.77543V20.3003Z" fill="black"/>
<path d="M2.82383 6.6505C2.82383 6.16725 3.21558 5.7755 3.69883 5.7755H5.77523L5.77523 3.6991C5.77523 3.21585 6.16699 2.8241 6.65023 2.8241C7.13348 2.8241 7.52523 3.21585 7.52523 3.6991V6.6505C7.52523 6.88257 7.43305 7.10513 7.26895 7.26922C7.10486 7.43332 6.8823 7.5255 6.65023 7.5255L3.69883 7.5255C3.21558 7.5255 2.82383 7.13375 2.82383 6.6505Z" fill="black"/>
</svg>
