<svg width="24" height="24" viewBox="0 0 24 24" fill="none" xmlns="http://www.w3.org/2000/svg">
<path d="M0.804321 11.9999C0.804321 11.7237 1.02818 11.4999 1.30432 11.4999H3.22758L1.99418 10.2665C1.79892 10.0712 1.79892 9.75461 1.99418 9.55935C2.18944 9.36408 2.50602 9.36408 2.70129 9.55935L4.64179 11.4999L10.7924 11.4999L6.44301 7.1505L3.69895 7.1505C3.42281 7.1505 3.19895 6.92664 3.19895 6.6505C3.19895 6.37436 3.42281 6.1505 3.69895 6.1505H5.44301L4.08324 4.79074C3.88798 4.59547 3.88798 4.27889 4.08324 4.08363C4.2785 3.88837 4.59509 3.88837 4.79035 4.08363L6.15036 5.44364L6.15036 3.6991C6.15036 3.42296 6.37421 3.1991 6.65036 3.1991C6.9265 3.1991 7.15036 3.42296 7.15036 3.6991L7.15036 6.44364L11.5 10.7933V4.64181L9.55939 2.70123C9.36413 2.50597 9.36413 2.18939 9.55939 1.99413C9.75466 1.79887 10.0712 1.79887 10.2665 1.99413L11.5 3.2276V1.3042C11.5 1.02806 11.7238 0.804199 12 0.804199C12.2761 0.804199 12.5 1.02806 12.5 1.3042V3.22746L13.7333 1.99413C13.9286 1.79887 14.2452 1.79887 14.4404 1.99413C14.6357 2.18939 14.6357 2.50597 14.4404 2.70123L12.5 4.64168V10.793L16.8493 6.44371V3.69941C16.8493 3.42327 17.0731 3.19941 17.3493 3.19941C17.6254 3.19941 17.8493 3.42327 17.8493 3.69941V5.44371L19.2093 4.08363C19.4046 3.88837 19.7212 3.88837 19.9165 4.08363C20.1117 4.27889 20.1117 4.59547 19.9165 4.79074L18.5564 6.15082H20.3007C20.5768 6.15082 20.8007 6.37468 20.8007 6.65082C20.8007 6.92696 20.5768 7.15082 20.3007 7.15082H17.5564L13.2073 11.4999L19.358 11.4999L21.2985 9.55935C21.4938 9.36408 21.8104 9.36408 22.0056 9.55935C22.2009 9.75461 22.2009 10.0712 22.0056 10.2665L20.7722 11.4999H22.6956C22.9718 11.4999 23.1956 11.7237 23.1956 11.9999C23.1956 12.276 22.9718 12.4999 22.6956 12.4999H20.7722L22.0056 13.7333C22.2009 13.9285 22.2009 14.2451 22.0056 14.4404C21.8104 14.6356 21.4938 14.6356 21.2985 14.4404L19.358 12.4999L13.2076 12.4999L17.5569 16.8492H20.3009C20.577 16.8492 20.8009 17.0731 20.8009 17.3492C20.8009 17.6254 20.577 17.8492 20.3009 17.8492H18.5569L19.9167 19.209C20.112 19.4042 20.112 19.7208 19.9167 19.9161C19.7214 20.1113 19.4049 20.1113 19.2096 19.9161L17.8495 18.5559V20.3006C17.8495 20.5768 17.6256 20.8006 17.3495 20.8006C17.0733 20.8006 16.8495 20.5768 16.8495 20.3006V17.5559L12.5 13.2064L12.5 19.358L14.4404 21.2985C14.6357 21.4937 14.6357 21.8103 14.4404 22.0056C14.2452 22.2008 13.9286 22.2008 13.7333 22.0056L12.5 20.7722V22.6955C12.5 22.9716 12.2761 23.1955 12 23.1955C11.7238 23.1955 11.5 22.9716 11.5 22.6955V20.7721L10.2665 22.0056C10.0712 22.2008 9.75466 22.2008 9.55939 22.0056C9.36413 21.8103 9.36413 21.4937 9.55939 21.2985L11.5 19.3579L11.5 13.2067L7.15055 17.5561L7.15055 20.3003C7.15055 20.5764 6.92669 20.8003 6.65055 20.8003C6.37441 20.8003 6.15055 20.5764 6.15055 20.3003L6.15055 18.5561L4.7906 19.9161C4.59534 20.1113 4.27876 20.1113 4.0835 19.9161C3.88823 19.7208 3.88823 19.4042 4.0835 19.209L5.44357 17.8489H3.69915C3.42301 17.8489 3.19915 17.625 3.19915 17.3489C3.19915 17.0728 3.42301 16.8489 3.69915 16.8489H6.44357L10.7926 12.4999L4.6418 12.4999L2.70128 14.4404C2.50602 14.6356 2.18944 14.6356 1.99418 14.4404C1.79892 14.2451 1.79892 13.9285 1.99418 13.7333L3.22758 12.4999H1.30432C1.02818 12.4999 0.804321 12.276 0.804321 11.9999Z" fill="black"/>
</svg>
