<svg width="24" height="24" viewBox="0 0 24 24" fill="none" xmlns="http://www.w3.org/2000/svg">
<path fill-rule="evenodd" clip-rule="evenodd" d="M1.05432 11.9999C1.05432 11.8618 1.16625 11.7499 1.30432 11.7499L4.83134 11.7499L3.17096 10.0895C3.07332 9.99183 3.07332 9.83354 3.17096 9.73591C3.26859 9.63828 3.42688 9.63828 3.52451 9.73591L5.53845 11.7499L11.3959 11.7499L7.54662 7.90057L4.69905 7.90056C4.56098 7.90056 4.44905 7.78864 4.44905 7.65056C4.44905 7.51249 4.56098 7.40056 4.69905 7.40056L7.04662 7.40057L4.26002 4.61396C4.16239 4.51633 4.16239 4.35804 4.26002 4.2604C4.35765 4.16277 4.51594 4.16277 4.61357 4.2604L7.40045 7.04729V4.69916C7.40045 4.56109 7.51238 4.44916 7.65045 4.44916C7.78852 4.44916 7.90045 4.56109 7.90045 4.69916V7.54729L11.75 11.3968V5.53844L9.73614 3.52461C9.63851 3.42698 9.63851 3.26869 9.73614 3.17105C9.83377 3.07342 9.99206 3.07342 10.0897 3.17105L11.75 4.83133V1.3042C11.75 1.16613 11.8619 1.0542 12 1.0542C12.138 1.0542 12.25 1.16613 12.25 1.3042V4.83113L13.9101 3.17105C14.0077 3.07343 14.166 3.07343 14.2636 3.17105C14.3612 3.26869 14.3612 3.42698 14.2636 3.52461L12.25 5.53824V11.3966L16.0992 7.54733V4.69939C16.0992 4.56132 16.2111 4.44939 16.3492 4.44939C16.4873 4.44939 16.5992 4.56132 16.5992 4.69939V7.04733L19.3861 4.2604C19.4838 4.16277 19.642 4.16277 19.7397 4.2604C19.8373 4.35804 19.8373 4.51633 19.7397 4.61396L16.9528 7.40079L19.3006 7.40079C19.4387 7.40079 19.5506 7.51272 19.5506 7.65079C19.5506 7.78887 19.4387 7.90079 19.3006 7.90079L16.4528 7.90079L12.6038 11.7499L18.4615 11.7499L20.4754 9.736C20.573 9.63837 20.7313 9.63837 20.829 9.736C20.9266 9.83363 20.9266 9.99192 20.829 10.0896L19.1686 11.7499H22.6956C22.8337 11.7499 22.9456 11.8618 22.9456 11.9999C22.9456 12.1379 22.8337 12.2499 22.6956 12.2499H19.1689L20.8289 13.9099C20.9266 14.0075 20.9266 14.1658 20.8289 14.2635C20.7313 14.3611 20.573 14.3611 20.4754 14.2635L18.4618 12.2499L12.604 12.2499L16.4535 16.0993L19.3009 16.0993C19.4389 16.0993 19.5509 16.2112 19.5509 16.3493C19.5509 16.4874 19.4389 16.5993 19.3009 16.5993L16.9535 16.5993L19.7399 19.3857C19.8376 19.4834 19.8376 19.6417 19.7399 19.7393C19.6423 19.8369 19.484 19.8369 19.3864 19.7393L16.5995 16.9524L16.5995 19.3007C16.5995 19.4388 16.4875 19.5507 16.3495 19.5507C16.2114 19.5507 16.0995 19.4388 16.0995 19.3007L16.0995 16.4524L12.25 12.6029L12.25 18.4617L14.2635 20.4753C14.3612 20.5729 14.3612 20.7312 14.2635 20.8288C14.1659 20.9264 14.0076 20.9264 13.91 20.8288L12.25 19.1688V22.6955C12.25 22.8336 12.138 22.9455 12 22.9455C11.8619 22.9455 11.75 22.8336 11.75 22.6955V19.1684L10.0896 20.8288C9.99198 20.9264 9.83369 20.9264 9.73606 20.8288C9.63842 20.7312 9.63842 20.5729 9.73606 20.4753L11.75 18.4613L11.75 12.6032L7.90047 16.4527V19.3005C7.90047 19.4385 7.78854 19.5505 7.65047 19.5505C7.51239 19.5505 7.40047 19.4385 7.40047 19.3005V16.9527L4.61383 19.7393C4.51619 19.8369 4.3579 19.8369 4.26027 19.7393C4.16264 19.6417 4.16264 19.4834 4.26027 19.3857L7.04695 16.5991H4.69906C4.56099 16.5991 4.44906 16.4871 4.44906 16.3491C4.44906 16.211 4.56099 16.0991 4.69906 16.0991H7.54695L11.3962 12.2499L5.53803 12.2499L3.52451 14.2634C3.42688 14.361 3.26859 14.361 3.17095 14.2634C3.07332 14.1657 3.07332 14.0075 3.17095 13.9098L4.83093 12.2499L1.30432 12.2499C1.16625 12.2499 1.05432 12.1379 1.05432 11.9999ZM11.9891 11.9999L11.989 11.9955L11.9921 11.9925L11.9956 11.9889L12 11.989L12.0041 11.9889L12.0076 11.9925L12.0109 11.9957L12.0108 11.9999L12.0109 12.0042L12.0079 12.0072L12.0044 12.0108L12 12.0107L11.9958 12.0108L11.9923 12.0072L11.989 12.004L11.9891 11.9999Z" fill="black"/>
</svg>
