<svg width="24" height="24" viewBox="0 0 24 24" fill="none" xmlns="http://www.w3.org/2000/svg">
<path d="M1.30469 11.5C1.02855 11.5 0.804687 11.7238 0.804688 12C0.804688 12.2761 1.02855 12.5 1.30469 12.5H1.8138L2.3138 12L1.8138 11.5H1.30469Z" fill="black"/>
<path d="M10.793 12.5L5.84934 12.5C5.90559 12.3409 5.93512 12.1719 5.93512 12C5.93512 11.828 5.90559 11.6591 5.84934 11.5L10.7927 11.5L7.29702 8.00428C7.44939 7.93154 7.58979 7.83294 7.71145 7.71128C7.833 7.58974 7.93153 7.44948 8.00424 7.29728L11.5003 10.7934V5.84897C11.6594 5.90523 11.8284 5.93476 12.0003 5.93476C12.1723 5.93476 12.3412 5.90523 12.5003 5.84897V10.7931L15.9961 7.29734C16.0688 7.44964 16.1674 7.58998 16.289 7.7116C16.4106 7.83319 16.5509 7.93175 16.7032 8.00447L13.2077 11.5L18.1513 11.5C18.0951 11.6591 18.0656 11.828 18.0656 12C18.0656 12.1719 18.0951 12.3409 18.1513 12.5L13.208 12.5L16.7037 15.9957C16.5513 16.0684 16.4109 16.167 16.2892 16.2887C16.1677 16.4102 16.0691 16.5505 15.9964 16.7027L12.5003 13.2066L12.5003 18.151C12.3412 18.0947 12.1723 18.0652 12.0003 18.0652C11.8284 18.0652 11.6594 18.0947 11.5003 18.151L11.5003 13.2068L8.00456 16.7026C7.93183 16.5503 7.83326 16.41 7.71165 16.2884C7.59005 16.1668 7.44974 16.0682 7.29747 15.9955L10.793 12.5Z" fill="black"/>
<path d="M5.15079 5.15062H4.44337L4.08361 4.79086C3.88835 4.59559 3.88835 4.27901 4.08361 4.08375C4.27887 3.88849 4.59545 3.88849 4.79071 4.08375L5.15079 4.44383V5.15062Z" fill="black"/>
<path d="M12.0003 2.31344L11.5003 1.81344V1.30432C11.5003 1.02818 11.7242 0.804321 12.0003 0.804321C12.2765 0.804321 12.5003 1.02818 12.5003 1.30432V1.81344L12.0003 2.31344Z" fill="black"/>
<path d="M18.8497 5.15094V4.44377L19.2097 4.08375C19.405 3.88849 19.7216 3.88849 19.9168 4.08375C20.1121 4.27901 20.1121 4.59559 19.9168 4.79086L19.5567 5.15094H18.8497Z" fill="black"/>
<path d="M21.6869 12L22.1869 11.5H22.696C22.9721 11.5 23.196 11.7238 23.196 12C23.196 12.2761 22.9721 12.5 22.696 12.5H22.1869L21.6869 12Z" fill="black"/>
<path d="M18.8499 18.8493H19.5573L19.9171 19.2091C20.1123 19.4044 20.1123 19.7209 19.9171 19.9162C19.7218 20.1115 19.4052 20.1115 19.21 19.9162L18.8499 19.5561V18.8493Z" fill="black"/>
<path d="M12.0003 21.6865L12.5003 22.1865V22.6956C12.5003 22.9718 12.2765 23.1956 12.0003 23.1956C11.7242 23.1956 11.5003 22.9718 11.5003 22.6956V22.1865L12.0003 21.6865Z" fill="black"/>
<path d="M5.15098 18.849V19.5562L4.79097 19.9162C4.59571 20.1115 4.27912 20.1115 4.08386 19.9162C3.8886 19.7209 3.8886 19.4044 4.08386 19.2091L4.44394 18.849H5.15098Z" fill="black"/>
<path d="M1.99454 14.4405C1.79928 14.2452 1.79928 13.9286 1.99454 13.7334L3.72795 12L1.99454 10.2666C1.79928 10.0713 1.79928 9.75473 1.99454 9.55947C2.18981 9.36421 2.50639 9.36421 2.70165 9.55947L4.78861 11.6464C4.88238 11.7402 4.93505 11.8674 4.93505 12C4.93505 12.1326 4.88238 12.2598 4.78861 12.3535L2.70165 14.4405C2.50639 14.6357 2.18981 14.6357 1.99454 14.4405Z" fill="black"/>
<path d="M13.7337 22.0057C13.9289 22.201 14.2455 22.201 14.4408 22.0057C14.636 21.8104 14.636 21.4939 14.4408 21.2986L12.3538 19.2116C12.2601 19.1179 12.1329 19.0652 12.0003 19.0652C11.8677 19.0652 11.7405 19.1179 11.6467 19.2116L9.55976 21.2986C9.3645 21.4939 9.3645 21.8104 9.55976 22.0057C9.75502 22.201 10.0716 22.201 10.2669 22.0057L12.0003 20.2723L13.7337 22.0057Z" fill="black"/>
<path d="M9.55976 1.99425C9.75502 1.79899 10.0716 1.79899 10.2669 1.99425L12.0003 3.72765L13.7337 1.99425C13.9289 1.79899 14.2455 1.79899 14.4408 1.99425C14.636 2.18951 14.636 2.50609 14.4408 2.70136L12.3538 4.78831C12.2601 4.88208 12.1329 4.93476 12.0003 4.93476C11.8677 4.93476 11.7405 4.88208 11.6467 4.78831L9.55976 2.70136C9.3645 2.50609 9.3645 2.18951 9.55976 1.99425Z" fill="black"/>
<path d="M22.006 9.55947C22.2013 9.75473 22.2013 10.0713 22.006 10.2666L20.2726 12L22.006 13.7334C22.2013 13.9286 22.2013 14.2452 22.006 14.4405C21.8107 14.6357 21.4942 14.6357 21.2989 14.4405L19.2119 12.3535C19.1182 12.2598 19.0655 12.1326 19.0655 12C19.0655 11.8674 19.1182 11.7402 19.2119 11.6464L21.2989 9.55947C21.4942 9.36421 21.8107 9.36421 22.006 9.55947Z" fill="black"/>
<path d="M17.8496 3.69954C17.8496 3.42339 17.6258 3.19954 17.3496 3.19954C17.0735 3.19954 16.8496 3.42339 16.8496 3.69954V6.65094C16.8496 6.78355 16.9023 6.91072 16.9961 7.00449C17.0898 7.09826 17.217 7.15094 17.3496 7.15094L20.301 7.15094C20.5772 7.15094 20.801 6.92708 20.801 6.65094C20.801 6.3748 20.5772 6.15094 20.301 6.15094H17.8496V3.69954Z" fill="black"/>
<path d="M20.8012 17.3493C20.8012 17.6255 20.5774 17.8493 20.3012 17.8493H17.8498V20.3007C17.8498 20.5769 17.626 20.8007 17.3498 20.8007C17.0737 20.8007 16.8498 20.5769 16.8498 20.3007V17.3493C16.8498 17.2167 16.9025 17.0895 16.9963 16.9958C17.09 16.902 17.2172 16.8493 17.3498 16.8493H20.3012C20.5774 16.8493 20.8012 17.0732 20.8012 17.3493Z" fill="black"/>
<path d="M6.15092 20.3004C6.15092 20.5766 6.37477 20.8004 6.65092 20.8004C6.92706 20.8004 7.15092 20.5766 7.15092 20.3004V17.349C7.15092 17.2164 7.09824 17.0892 7.00447 16.9955C6.9107 16.9017 6.78352 16.849 6.65092 16.849H3.69952C3.42337 16.849 3.19952 17.0729 3.19952 17.349C3.19952 17.6252 3.42337 17.849 3.69952 17.849H6.15092L6.15092 20.3004Z" fill="black"/>
<path d="M3.19932 6.65062C3.19932 6.37448 3.42318 6.15062 3.69932 6.15062H6.15072L6.15072 3.69922C6.15072 3.42308 6.37458 3.19922 6.65072 3.19922C6.92686 3.19922 7.15072 3.42308 7.15072 3.69922L7.15072 6.65063C7.15072 6.78323 7.09804 6.91041 7.00428 7.00418C6.91051 7.09795 6.78333 7.15063 6.65072 7.15063L3.69932 7.15062C3.42318 7.15062 3.19932 6.92677 3.19932 6.65062Z" fill="black"/>
</svg>
