<svg width="24" height="24" viewBox="0 0 24 24" fill="none" xmlns="http://www.w3.org/2000/svg">
<path d="M0.554688 12C0.554687 11.5858 0.890474 11.25 1.30469 11.25H2.62439L1.81777 10.4434C1.52487 10.1505 1.52487 9.67558 1.81777 9.38269C2.11066 9.0898 2.58554 9.0898 2.87843 9.38269L4.74571 11.25L10.1892 11.25L6.33982 7.40063L3.69932 7.40062C3.28511 7.40062 2.94932 7.06484 2.94932 6.65062C2.94932 6.23641 3.28511 5.90062 3.69932 5.90062H4.83982L3.90683 4.96763C3.61394 4.67474 3.61394 4.19987 3.90683 3.90697C4.19972 3.61408 4.6746 3.61408 4.96749 3.90697L5.90072 4.8402L5.90072 3.69922C5.90072 3.28501 6.23651 2.94922 6.65072 2.94922C7.06494 2.94922 7.40072 3.28501 7.40072 3.69922L7.40072 6.34021L11.2503 10.1898V4.74549L9.38298 2.87813C9.09009 2.58524 9.09009 2.11037 9.38298 1.81747C9.67588 1.52458 10.1508 1.52458 10.4436 1.81747L11.2503 2.62417V1.30432C11.2503 0.890108 11.5861 0.554321 12.0003 0.554321C12.4146 0.554321 12.7503 0.890108 12.7503 1.30432V2.62403L13.5569 1.81747C13.8498 1.52458 14.3247 1.52458 14.6176 1.81747C14.9105 2.11037 14.9105 2.58524 14.6176 2.87813L12.7503 4.74535V10.1896L16.5996 6.34028V3.69954C16.5996 3.28532 16.9354 2.94954 17.3496 2.94954C17.7638 2.94954 18.0996 3.28532 18.0996 3.69954V4.84028L19.0329 3.90697C19.3258 3.61408 19.8007 3.61408 20.0936 3.90697C20.3865 4.19987 20.3865 4.67474 20.0936 4.96763L19.1603 5.90094H20.301C20.7152 5.90094 21.051 6.23673 21.051 6.65094C21.051 7.06515 20.7152 7.40094 20.301 7.40094H17.6603L13.8113 11.25L19.2548 11.25L21.1221 9.38269C21.415 9.0898 21.8899 9.0898 22.1828 9.38269C22.4757 9.67559 22.4757 10.1505 22.1828 10.4434L21.3762 11.25H22.696C23.1102 11.25 23.446 11.5858 23.446 12C23.446 12.4142 23.1102 12.75 22.696 12.75H21.3761L22.1828 13.5566C22.4757 13.8495 22.4757 14.3244 22.1828 14.6173C21.8899 14.9102 21.415 14.9102 21.1221 14.6173L19.2548 12.75L13.8115 12.75L17.6609 16.5993H20.3012C20.7154 16.5993 21.0512 16.9351 21.0512 17.3493C21.0512 17.7635 20.7154 18.0993 20.3012 18.0993H19.1609L20.0938 19.0323C20.3867 19.3252 20.3867 19.8001 20.0938 20.093C19.801 20.3859 19.3261 20.3859 19.0332 20.093L18.0998 19.1596V20.3007C18.0998 20.7149 17.764 21.0507 17.3498 21.0507C16.9356 21.0507 16.5998 20.7149 16.5998 20.3007V17.6596L12.7503 13.8101L12.7503 19.2546L14.6176 21.1218C14.9104 21.4147 14.9104 21.8896 14.6176 22.1825C14.3247 22.4754 13.8498 22.4754 13.5569 22.1825L12.7503 21.3759V22.6956C12.7503 23.1098 12.4146 23.4456 12.0003 23.4456C11.5861 23.4456 11.2503 23.1098 11.2503 22.6956V21.3758L10.4436 22.1825C10.1508 22.4754 9.67588 22.4754 9.38298 22.1825C9.09009 21.8896 9.09009 21.4147 9.38298 21.1218L11.2503 19.2545L11.2503 13.8104L7.40092 17.6598L7.40092 20.3004C7.40092 20.7146 7.06513 21.0504 6.65092 21.0504C6.2367 21.0504 5.90092 20.7146 5.90092 20.3004V19.1598L4.96775 20.093C4.67485 20.3859 4.19998 20.3859 3.90708 20.093C3.61419 19.8001 3.61419 19.3252 3.90708 19.0323L4.84038 18.099H3.69952C3.2853 18.099 2.94952 17.7632 2.94952 17.349C2.94952 16.9348 3.2853 16.599 3.69952 16.599H6.34038L10.1894 12.75L4.74572 12.75L2.87843 14.6173C2.58553 14.9102 2.11066 14.9102 1.81777 14.6173C1.52487 14.3244 1.52487 13.8495 1.81777 13.5566L2.6244 12.75H1.30469C0.890474 12.75 0.554688 12.4142 0.554688 12Z" fill="black"/>
</svg>
