<svg width="24" height="24" viewBox="0 0 24 24" fill="none" xmlns="http://www.w3.org/2000/svg">
<path fill-rule="evenodd" clip-rule="evenodd" d="M11.3962 12.2499L5.91378 12.2499C5.92765 12.1678 5.93476 12.0842 5.93476 11.9999C5.93476 11.9155 5.92765 11.8319 5.91378 11.7499L11.3959 11.7499L7.51929 7.87323C7.5872 7.82498 7.6514 7.77084 7.71108 7.71116C7.77066 7.65158 7.82471 7.58751 7.8729 7.51973L11.75 11.3968V5.91366C11.832 5.92753 11.9156 5.93464 12 5.93464C12.0843 5.93464 12.1679 5.92753 12.25 5.91366V11.3966L16.1267 7.51983C16.1749 7.58768 16.229 7.65183 16.2887 7.71147C16.3483 7.77109 16.4124 7.82518 16.4802 7.87339L12.6038 11.7499L18.0862 11.7499C18.0723 11.8319 18.0652 11.9155 18.0652 11.9999C18.0652 12.0842 18.0723 12.1678 18.0862 12.2499L12.604 12.2499L16.4807 16.1265C16.4127 16.1747 16.3485 16.2289 16.2889 16.2885C16.2293 16.3481 16.1752 16.4122 16.127 16.48L12.25 12.6029L12.25 18.086C12.1679 18.0722 12.0843 18.0651 12 18.0651C11.9156 18.0651 11.832 18.0722 11.75 18.086L11.75 12.6032L7.87325 16.4799C7.82502 16.412 7.77092 16.3479 7.71128 16.2882C7.65166 16.2286 7.58753 16.1745 7.51971 16.1263L11.3962 12.2499ZM11.989 11.9955L11.9891 11.9999L11.989 12.004L11.9923 12.0072L11.9958 12.0108L12 12.0107L12.0044 12.0108L12.0079 12.0072L12.0109 12.0042L12.0108 11.9999L12.0109 11.9957L12.0076 11.9925L12.0041 11.9889L12 11.989L11.9956 11.9889L11.9921 11.9925L11.989 11.9955Z" fill="black"/>
<path d="M2.31344 11.9999L2.06344 11.7499H1.30432C1.16625 11.7499 1.05432 11.8618 1.05432 11.9999C1.05432 12.1379 1.16625 12.2499 1.30432 12.2499H2.06343L2.31344 11.9999Z" fill="black"/>
<path d="M5.15042 5.1505L4.79656 5.1505L4.26002 4.61396C4.16239 4.51633 4.16239 4.35804 4.26002 4.2604C4.35765 4.16277 4.51594 4.16277 4.61357 4.2604L5.15042 4.79726V5.1505Z" fill="black"/>
<path d="M12 2.31331L11.75 2.06331V1.3042C11.75 1.16613 11.8619 1.0542 12 1.0542C12.138 1.0542 12.25 1.16613 12.25 1.3042V2.06332L12 2.31331Z" fill="black"/>
<path d="M18.8493 5.15082V4.7972L19.3861 4.2604C19.4838 4.16277 19.642 4.16277 19.7397 4.2604C19.8373 4.35804 19.8373 4.51633 19.7397 4.61396L19.2028 5.15082H18.8493Z" fill="black"/>
<path d="M21.6865 11.9999L21.9365 11.7499H22.6956C22.8337 11.7499 22.9456 11.8618 22.9456 11.9999C22.9456 12.1379 22.8337 12.2499 22.6956 12.2499H21.9365L21.6865 11.9999Z" fill="black"/>
<path d="M18.8495 18.8492H19.2034L19.7399 19.3857C19.8376 19.4834 19.8376 19.6417 19.7399 19.7393C19.6423 19.8369 19.484 19.8369 19.3864 19.7393L18.8495 19.2024V18.8492Z" fill="black"/>
<path d="M12 21.6864L12.25 21.9364V22.6955C12.25 22.8336 12.138 22.9455 12 22.9455C11.8619 22.9455 11.75 22.8336 11.75 22.6955V21.9364L12 21.6864Z" fill="black"/>
<path d="M5.15062 18.8489V19.2025L4.61383 19.7393C4.51619 19.8369 4.3579 19.8369 4.26027 19.7393C4.16264 19.6417 4.16264 19.4834 4.26027 19.3857L4.79713 18.8489H5.15062Z" fill="black"/>
<path d="M2.17095 14.2636C2.07332 14.166 2.07332 14.0077 2.17095 13.91L4.08113 11.9999L2.17095 10.0897C2.07332 9.99204 2.07332 9.83375 2.17096 9.73612C2.26859 9.63849 2.42688 9.63849 2.52451 9.73612L4.61146 11.8231C4.65835 11.87 4.68469 11.9336 4.68469 11.9999C4.68469 12.0662 4.65835 12.1297 4.61146 12.1766L2.52451 14.2636C2.42688 14.3612 2.26858 14.3612 2.17095 14.2636Z" fill="black"/>
<path d="M13.9101 21.8288C14.0077 21.9264 14.166 21.9264 14.2636 21.8288C14.3613 21.7312 14.3613 21.5729 14.2636 21.4753L12.1767 19.3883C12.1298 19.3414 12.0662 19.3151 11.9999 19.3151C11.9336 19.3151 11.87 19.3414 11.8231 19.3883L9.73617 21.4753C9.63854 21.5729 9.63854 21.7312 9.73617 21.8288C9.8338 21.9264 9.99209 21.9264 10.0897 21.8288L11.9999 19.9186L13.9101 21.8288Z" fill="black"/>
<path d="M9.73617 2.1709C9.8338 2.07327 9.99209 2.07327 10.0897 2.1709L11.9999 4.08108L13.9101 2.1709C14.0077 2.07327 14.166 2.07327 14.2636 2.1709C14.3613 2.26854 14.3613 2.42683 14.2636 2.52446L12.1767 4.61141C12.1298 4.6583 12.0662 4.68464 11.9999 4.68464C11.9336 4.68464 11.87 4.6583 11.8231 4.61141L9.73617 2.52446C9.63854 2.42683 9.63854 2.26854 9.73617 2.1709Z" fill="black"/>
<path d="M21.8289 9.73612C21.9265 9.83375 21.9265 9.99205 21.8289 10.0897L19.9187 11.9999L21.8289 13.91C21.9265 14.0077 21.9265 14.166 21.8289 14.2636C21.7312 14.3612 21.5729 14.3612 21.4753 14.2636L19.3883 12.1766C19.3415 12.1297 19.3151 12.0662 19.3151 11.9999C19.3151 11.9336 19.3415 11.87 19.3883 11.8231L21.4753 9.73612C21.5729 9.63849 21.7312 9.63849 21.8289 9.73612Z" fill="black"/>
<path d="M17.5993 3.69941C17.5993 3.56134 17.4873 3.44941 17.3493 3.44941C17.2112 3.44941 17.0993 3.56134 17.0993 3.69941V6.65082C17.0993 6.71712 17.1256 6.78071 17.1725 6.82759C17.2194 6.87448 17.283 6.90082 17.3493 6.90082L20.3007 6.90082C20.4387 6.90082 20.5507 6.78889 20.5507 6.65082C20.5507 6.51275 20.4387 6.40082 20.3007 6.40082H17.5993V3.69941Z" fill="black"/>
<path d="M20.5509 17.3492C20.5509 17.4873 20.4389 17.5992 20.3009 17.5992H17.5995V20.3006C17.5995 20.4387 17.4875 20.5506 17.3495 20.5506C17.2114 20.5506 17.0995 20.4387 17.0995 20.3006V17.3492C17.0995 17.2829 17.1258 17.2193 17.1727 17.1724C17.2196 17.1255 17.2831 17.0992 17.3495 17.0992H20.3009C20.4389 17.0992 20.5509 17.2111 20.5509 17.3492Z" fill="black"/>
<path d="M6.40055 20.3003C6.40055 20.4384 6.51248 20.5503 6.65055 20.5503C6.78862 20.5503 6.90055 20.4384 6.90055 20.3003V17.3489C6.90055 17.2826 6.87421 17.219 6.82733 17.1721C6.78044 17.1252 6.71685 17.0989 6.65055 17.0989H3.69915C3.56108 17.0989 3.44915 17.2108 3.44915 17.3489C3.44915 17.487 3.56108 17.5989 3.69915 17.5989H6.40055L6.40055 20.3003Z" fill="black"/>
<path d="M3.44895 6.6505C3.44895 6.51243 3.56088 6.4005 3.69895 6.4005L6.40036 6.4005L6.40036 3.6991C6.40036 3.56103 6.51229 3.4491 6.65036 3.4491C6.78843 3.4491 6.90036 3.56103 6.90036 3.6991L6.90036 6.6505C6.90036 6.71681 6.87402 6.7804 6.82713 6.82728C6.78025 6.87416 6.71666 6.9005 6.65036 6.9005L3.69895 6.9005C3.56088 6.9005 3.44895 6.78857 3.44895 6.6505Z" fill="black"/>
</svg>
