<svg width="24" height="24" viewBox="0 0 24 24" fill="none" xmlns="http://www.w3.org/2000/svg">
<path d="M1.30469 11.5C1.02855 11.5 0.804687 11.7238 0.804688 12C0.804688 12.2761 1.02855 12.5 1.30469 12.5H1.8138L2.3138 12L1.8138 11.5H1.30469Z" fill="black"/>
<path d="M10.793 12.5L5.84934 12.5C5.90559 12.3409 5.93512 12.1719 5.93512 12C5.93512 11.828 5.90559 11.6591 5.84934 11.5L10.7927 11.5L7.44344 8.15069L4.69942 8.15069C4.42327 8.15069 4.19942 7.92683 4.19942 7.65069C4.19942 7.37454 4.42327 7.15069 4.69942 7.15069L7.15082 7.15069V4.69929C7.15082 4.42314 7.37468 4.19929 7.65082 4.19929C7.92696 4.19929 8.15082 4.42314 8.15082 4.69929V7.44386L11.5003 10.7934V5.84897C11.6547 5.90356 11.8184 5.93298 11.9851 5.93468C11.858 5.93082 11.7369 5.87864 11.6467 5.78846L9.55973 3.70151C9.36447 3.50624 9.36447 3.18966 9.55973 2.9944C9.75499 2.79914 10.0716 2.79914 10.2668 2.9944L12.0002 4.7278L13.7336 2.9944C13.9289 2.79914 14.2455 2.79914 14.4407 2.9944C14.636 3.18966 14.636 3.50624 14.4407 3.70151L12.3538 5.78846C12.2636 5.87867 12.1425 5.93085 12.0153 5.93468C12.1821 5.93302 12.3459 5.90359 12.5003 5.84897V10.7931L15.8496 7.4439V4.69952C15.8496 4.42337 16.0734 4.19952 16.3496 4.19952C16.6257 4.19952 16.8496 4.42337 16.8496 4.69952V7.15092L19.301 7.15092C19.5771 7.15092 19.801 7.37477 19.801 7.65092C19.801 7.92706 19.5771 8.15092 19.301 8.15092L16.5568 8.15092L13.2077 11.5L18.1513 11.5C18.0951 11.6591 18.0656 11.828 18.0656 12C18.0656 12.1719 18.0951 12.3409 18.1513 12.5L13.208 12.5L16.5574 15.8494L19.3012 15.8494C19.5774 15.8494 19.8012 16.0733 19.8012 16.3494C19.8012 16.6256 19.5774 16.8494 19.3012 16.8494H16.8498L16.8498 19.3008C16.8498 19.577 16.626 19.8008 16.3498 19.8008C16.0737 19.8008 15.8498 19.577 15.8498 19.3008L15.8498 16.5561L12.5003 13.2066L12.5003 18.151C12.3412 18.0947 12.1723 18.0652 12.0003 18.0652C11.8284 18.0652 11.6594 18.0947 11.5003 18.151L11.5003 13.2068L8.15083 16.5563V19.3006C8.15083 19.5767 7.92697 19.8006 7.65083 19.8006C7.37469 19.8006 7.15083 19.5767 7.15083 19.3006V16.8492H4.69943C4.42329 16.8492 4.19943 16.6253 4.19943 16.3492C4.19943 16.073 4.42329 15.8492 4.69943 15.8492H7.44376L10.793 12.5Z" fill="black"/>
<path d="M5.15079 5.15062H4.44337L4.08361 4.79086C3.88835 4.59559 3.88835 4.27901 4.08361 4.08375C4.27887 3.88849 4.59545 3.88849 4.79071 4.08375L5.15079 4.44383V5.15062Z" fill="black"/>
<path d="M12.0003 2.31344L11.5003 1.81344V1.30432C11.5003 1.02818 11.7242 0.804321 12.0003 0.804321C12.2765 0.804321 12.5003 1.02818 12.5003 1.30432V1.81344L12.0003 2.31344Z" fill="black"/>
<path d="M18.8497 5.15094V4.44377L19.2097 4.08375C19.405 3.88849 19.7216 3.88849 19.9168 4.08375C20.1121 4.27901 20.1121 4.59559 19.9168 4.79086L19.5567 5.15094H18.8497Z" fill="black"/>
<path d="M21.6869 12L22.1869 11.5H22.696C22.9721 11.5 23.196 11.7238 23.196 12C23.196 12.2761 22.9721 12.5 22.696 12.5H22.1869L21.6869 12Z" fill="black"/>
<path d="M18.8499 18.8493H19.5573L19.9171 19.2091C20.1123 19.4044 20.1123 19.7209 19.9171 19.9162C19.7218 20.1115 19.4052 20.1115 19.21 19.9162L18.8499 19.5561V18.8493Z" fill="black"/>
<path d="M12.0003 21.6865L12.5003 22.1865V22.6956C12.5003 22.9718 12.2765 23.1956 12.0003 23.1956C11.7242 23.1956 11.5003 22.9718 11.5003 22.6956V22.1865L12.0003 21.6865Z" fill="black"/>
<path d="M5.15098 18.849V19.5562L4.79097 19.9162C4.59571 20.1115 4.27912 20.1115 4.08386 19.9162C3.8886 19.7209 3.8886 19.4044 4.08386 19.2091L4.44394 18.849H5.15098Z" fill="black"/>
<path d="M2.99454 14.4403C2.79928 14.245 2.79928 13.9284 2.99454 13.7332L4.72795 11.9998L2.99454 10.2664C2.79928 10.0711 2.79928 9.75452 2.99454 9.55926C3.18981 9.36399 3.50639 9.36399 3.70165 9.55926L5.78861 11.6462C5.88238 11.74 5.93512 11.8674 5.93512 12C5.93512 12.1326 5.88238 12.2596 5.78861 12.3533L3.70165 14.4403C3.50639 14.6355 3.18981 14.6355 2.99454 14.4403Z" fill="black"/>
<path d="M13.7336 21.0057C13.9288 21.201 14.2454 21.201 14.4407 21.0057C14.6359 20.8104 14.6359 20.4939 14.4407 20.2986L12.3537 18.2116C12.2599 18.1179 12.1329 18.0652 12.0003 18.0652C11.8677 18.0652 11.7404 18.1179 11.6466 18.2116L9.55964 20.2986C9.36438 20.4939 9.36438 20.8104 9.55964 21.0057C9.75491 21.201 10.0715 21.201 10.2668 21.0057L12.0002 19.2723L13.7336 21.0057Z" fill="black"/>
<path d="M21.0061 9.55934C21.2014 9.7546 21.2014 10.0712 21.0061 10.2664L19.2727 11.9999L21.0061 13.7333C21.2014 13.9285 21.2014 14.2451 21.0061 14.4404C20.8108 14.6356 20.4942 14.6356 20.299 14.4404L18.212 12.3534C18.1183 12.2596 18.0656 12.1326 18.0656 12C18.0656 11.8674 18.1183 11.7401 18.212 11.6463L20.299 9.55934C20.4942 9.36408 20.8108 9.36408 21.0061 9.55934Z" fill="black"/>
</svg>
