<svg width="24" height="24" viewBox="0 0 24 24" fill="none" xmlns="http://www.w3.org/2000/svg">
<path d="M0.179688 11.9997C0.179687 11.3784 0.683367 10.8747 1.30469 10.8747H2.89605L2.64099 10.6197C2.25047 10.2291 2.25047 9.59598 2.64099 9.20546C3.03152 8.81493 3.66468 8.81493 4.05521 9.20546L5.72448 10.8747L9.28384 10.8747L7.05955 8.65044L4.69942 8.65044C4.14713 8.65044 3.69942 8.20273 3.69942 7.65044C3.69942 7.09816 4.14713 6.65044 4.69942 6.65044H5.05955L3.64167 5.23255C3.20233 4.79322 3.20233 4.0809 3.64167 3.64156C4.08101 3.20223 4.79332 3.20222 5.23266 3.64157L6.65082 5.05973V4.69904C6.65082 4.14676 7.09853 3.69904 7.65082 3.69904C8.2031 3.69904 8.65082 4.14676 8.65082 4.69904L8.65082 7.05973L10.8753 9.28425V5.72398L9.20618 4.05482C8.81565 3.66429 8.81565 3.03113 9.20618 2.6406C9.5967 2.25008 10.2299 2.25008 10.6204 2.6406L10.8753 2.89555V1.30408C10.8753 0.682756 11.379 0.179077 12.0003 0.179077C12.6217 0.179077 13.1253 0.682756 13.1253 1.30408V2.89535L13.3801 2.6406C13.7706 2.25008 14.4038 2.25008 14.7943 2.6406C15.1848 3.03113 15.1848 3.66429 14.7943 4.05482L13.1253 5.72378V9.28399L15.3496 7.05977V4.69927C15.3496 4.14699 15.7973 3.69927 16.3496 3.69927C16.9018 3.69927 17.3496 4.14699 17.3496 4.69927V5.05977L18.7678 3.64156C19.2071 3.20222 19.9194 3.20222 20.3588 3.64156C20.7981 4.0809 20.7981 4.79321 20.3588 5.23255L18.9406 6.65067H19.301C19.8532 6.65067 20.301 7.09839 20.301 7.65067C20.301 8.20296 19.8532 8.65067 19.301 8.65067H16.9406L14.7166 10.8747H18.2762L19.9454 9.20554C20.336 8.81502 20.9691 8.81502 21.3596 9.20554C21.7502 9.59607 21.7502 10.2292 21.3596 10.6198L21.1047 10.8747H22.696C23.3173 10.8747 23.821 11.3784 23.821 11.9997C23.821 12.621 23.3173 13.1247 22.696 13.1247H21.1049L21.3596 13.3795C21.7502 13.77 21.7502 14.4031 21.3596 14.7937C20.9691 15.1842 20.336 15.1842 19.9454 14.7937L18.2765 13.1247H14.7168L16.9413 15.3492L19.3012 15.3492C19.8535 15.3492 20.3012 15.7969 20.3012 16.3492C20.3012 16.9015 19.8535 17.3492 19.3012 17.3492H18.9413L20.359 18.7669C20.7984 19.2062 20.7984 19.9186 20.359 20.3579C19.9197 20.7972 19.2074 20.7972 18.768 20.3579L17.3498 18.9397V19.3006C17.3498 19.8529 16.9021 20.3006 16.3498 20.3006C15.7975 20.3006 15.3498 19.8529 15.3498 19.3006L15.3498 16.9397L13.1253 14.7152V18.2759L14.7942 19.9448C15.1847 20.3353 15.1847 20.9685 14.7942 21.359C14.4037 21.7495 13.7705 21.7495 13.38 21.359L13.1253 21.1043V22.6954C13.1253 23.3167 12.6217 23.8204 12.0003 23.8204C11.379 23.8204 10.8753 23.3167 10.8753 22.6954V21.104L10.6203 21.359C10.2298 21.7495 9.59662 21.7495 9.20609 21.359C8.81557 20.9685 8.81557 20.3353 9.20609 19.9448L10.8753 18.2756V14.7155L8.65083 16.94L8.65083 19.3003C8.65083 19.8526 8.20312 20.3003 7.65083 20.3003C7.09855 20.3003 6.65083 19.8526 6.65083 19.3003V18.94L5.23291 20.3579C4.79357 20.7972 4.08126 20.7972 3.64192 20.3579C3.20258 19.9186 3.20258 19.2062 3.64192 18.7669L5.05988 17.3489H4.69943C4.14715 17.3489 3.69943 16.9012 3.69943 16.3489C3.69943 15.7967 4.14715 15.3489 4.69943 15.3489H7.05988L9.28409 13.1247L5.72406 13.1247L4.0552 14.7936C3.66468 15.1841 3.03151 15.1841 2.64099 14.7936C2.25047 14.4031 2.25047 13.7699 2.64099 13.3794L2.89563 13.1247H1.30469C0.683367 13.1247 0.179688 12.621 0.179688 11.9997Z" fill="black"/>
</svg>
