<svg width="24" height="24" viewBox="0 0 24 24" fill="none" xmlns="http://www.w3.org/2000/svg">
<path d="M0.554321 11.9999C0.554321 11.5856 0.890108 11.2499 1.30432 11.2499L3.62424 11.2499L2.8174 10.443C2.52451 10.1501 2.52451 9.67525 2.8174 9.38236C3.1103 9.08946 3.58517 9.08946 3.87806 9.38236L5.74556 11.2499L10.1888 11.2499L7.33952 8.40057L4.69905 8.40056C4.28484 8.40056 3.94905 8.06478 3.94905 7.65056C3.94905 7.23635 4.28484 6.90056 4.69905 6.90056H5.83952L3.90646 4.96751C3.61357 4.67462 3.61357 4.19975 3.90646 3.90685C4.19936 3.61396 4.67423 3.61396 4.96712 3.90685L6.90045 5.84018L6.90045 4.69916C6.90045 4.28495 7.23624 3.94916 7.65045 3.94916C8.06467 3.94916 8.40045 4.28495 8.40045 4.69917V7.34018L11.25 10.1897V5.74555L9.38259 3.87816C9.08969 3.58527 9.08969 3.1104 9.38259 2.8175C9.67548 2.52461 10.1504 2.52461 10.4432 2.8175L11.25 3.62423V1.3042C11.25 0.889986 11.5858 0.554199 12 0.554199C12.4142 0.554199 12.75 0.889986 12.75 1.3042V3.62403L13.5565 2.8175C13.8494 2.52461 14.3243 2.52461 14.6172 2.8175C14.9101 3.1104 14.9101 3.58527 14.6172 3.87816L12.75 5.74535V10.1894L15.5992 7.34022V4.69939C15.5992 4.28518 15.935 3.94939 16.3492 3.94939C16.7634 3.94939 17.0992 4.28518 17.0992 4.69939V5.84022L19.0326 3.90685C19.3255 3.61396 19.8003 3.61396 20.0932 3.90685C20.3861 4.19974 20.3861 4.67462 20.0932 4.96751L18.1599 6.90079H19.3006C19.7148 6.90079 20.0506 7.23658 20.0506 7.65079C20.0506 8.06501 19.7148 8.40079 19.3006 8.40079L16.6599 8.40079L13.8109 11.2499L18.2544 11.2499L20.1218 9.38244C20.4147 9.08955 20.8896 9.08955 21.1825 9.38244C21.4754 9.67534 21.4754 10.1502 21.1825 10.4431L20.3758 11.2499H22.6956C23.1098 11.2499 23.4456 11.5856 23.4456 11.9999C23.4456 12.4141 23.1098 12.7499 22.6956 12.7499H20.376L21.1825 13.5564C21.4754 13.8492 21.4754 14.3241 21.1825 14.617C20.8896 14.9099 20.4147 14.9099 20.1218 14.617L18.2547 12.7499L13.8111 12.7499L16.6606 15.5993H19.3009C19.7151 15.5993 20.0509 15.9351 20.0509 16.3493C20.0509 16.7635 19.7151 17.0993 19.3009 17.0993H18.1606L20.0935 19.0322C20.3864 19.3251 20.3864 19.8 20.0935 20.0929C19.8006 20.3857 19.3257 20.3857 19.0328 20.0929L17.0995 18.1595L17.0995 19.3007C17.0995 19.7149 16.7637 20.0507 16.3495 20.0507C15.9352 20.0507 15.5995 19.7149 15.5995 19.3007L15.5995 16.6595L12.75 13.81L12.75 18.2546L14.6171 20.1217C14.91 20.4146 14.91 20.8895 14.6171 21.1824C14.3242 21.4753 13.8493 21.4753 13.5564 21.1824L12.75 20.3759V22.6955C12.75 23.1097 12.4142 23.4455 12 23.4455C11.5858 23.4455 11.25 23.1097 11.25 22.6955V20.3755L10.4432 21.1824C10.1503 21.4753 9.6754 21.4753 9.3825 21.1824C9.08961 20.8895 9.08961 20.4146 9.3825 20.1217L11.25 18.2542L11.25 13.8103L8.40047 16.6598V19.3005C8.40047 19.7147 8.06468 20.0505 7.65047 20.0505C7.23625 20.0505 6.90047 19.7147 6.90047 19.3005V18.1598L4.96738 20.0929C4.67449 20.3857 4.19961 20.3857 3.90672 20.0929C3.61383 19.8 3.61383 19.3251 3.90672 19.0322L5.83984 17.0991H4.69906C4.28485 17.0991 3.94906 16.7633 3.94906 16.3491C3.94906 15.9349 4.28485 15.5991 4.69906 15.5991L7.33985 15.5991L10.1891 12.7499L5.74514 12.7499L3.87806 14.6169C3.58517 14.9098 3.11029 14.9098 2.8174 14.6169C2.52451 14.324 2.52451 13.8492 2.8174 13.5563L3.62382 12.7499L1.30432 12.7499C0.890108 12.7499 0.554321 12.4141 0.554321 11.9999Z" fill="black"/>
</svg>
