<svg width="24" height="24" viewBox="0 0 24 24" fill="none" xmlns="http://www.w3.org/2000/svg">
<path d="M6.43463 11.9999C6.43463 11.5957 6.31234 11.2043 6.08824 10.8749L9.28335 10.8749L7.02382 8.61532C7.4153 8.54089 7.77871 8.35052 8.06452 8.06471C8.3502 7.77903 8.54053 7.41583 8.61502 7.02454L10.8749 9.28437V6.08824C11.2043 6.31234 11.5957 6.43463 11.9999 6.43463C12.404 6.43463 12.7954 6.31234 13.1249 6.08824V9.28411L15.3844 7.02454C15.4589 7.41594 15.6492 7.77927 15.935 8.06503C16.2207 8.35076 16.584 8.54111 16.9754 8.61557L14.7161 10.8749H17.9115C17.6874 11.2043 17.5651 11.5957 17.5651 11.9999C17.5651 12.404 17.6874 12.7954 17.9115 13.1249H14.7164L16.9759 15.3844C16.5844 15.4588 16.221 15.6492 15.9352 15.935C15.6495 16.2207 15.4592 16.5839 15.3847 16.9752L13.1249 14.7153V17.9115C12.7954 17.6874 12.404 17.5651 11.9999 17.5651C11.5957 17.5651 11.2043 17.6874 10.8749 17.9115V14.7156L8.61528 16.9752C8.54082 16.5838 8.35047 16.2204 8.06471 15.9347C7.77898 15.6489 7.41569 15.4586 7.02433 15.3841L9.28361 13.1249L6.08824 13.1249C6.31234 12.7955 6.43463 12.404 6.43463 11.9999Z" fill="black"/>
<path d="M3.6989 4.6505C3.57592 4.6505 3.45553 4.6616 3.33868 4.68285C3.25779 4.31971 3.35862 3.92424 3.64118 3.64169C3.9238 3.35906 4.31938 3.25825 4.68259 3.33924C4.66138 3.45598 4.6503 3.57624 4.6503 3.6991L4.6503 4.6505H3.6989Z" fill="black"/>
<path d="M11.3271 0.933464C11.2402 0.846535 11.1472 0.769278 11.0496 0.701698C11.2492 0.387617 11.6002 0.179199 11.9999 0.179199C12.3995 0.179199 12.7505 0.387617 12.9501 0.701698C12.8525 0.769278 12.7595 0.846535 12.6726 0.933464L11.9999 1.60621L11.3271 0.933464Z" fill="black"/>
<path d="M19.3492 3.69941C19.3492 3.57645 19.3381 3.45607 19.3169 3.33924C19.6801 3.25825 20.0756 3.35907 20.3583 3.64169C20.6409 3.92432 20.7417 4.31992 20.6607 4.68315C20.5439 4.66191 20.4235 4.65081 20.3006 4.65081H19.3492V3.69941Z" fill="black"/>
<path d="M23.0662 11.3271C23.1532 11.2402 23.2304 11.1472 23.298 11.0496C23.6121 11.2492 23.8205 11.6002 23.8205 11.9999C23.8205 12.3995 23.6121 12.7505 23.298 12.9501C23.2304 12.8525 23.1532 12.7595 23.0662 12.6726L22.3935 11.9999L23.0662 11.3271Z" fill="black"/>
<path d="M20.3008 19.3492C20.4238 19.3492 20.5442 19.3381 20.661 19.3169C20.7419 19.68 20.6411 20.0755 20.3585 20.358C20.0759 20.6406 19.6803 20.7415 19.3171 20.6605C19.3383 20.5437 19.3494 20.4235 19.3494 20.3006V19.3492H20.3008Z" fill="black"/>
<path d="M12.6726 23.0662C12.7595 23.1532 12.8525 23.2304 12.9501 23.298C12.7505 23.6121 12.3995 23.8205 11.9999 23.8205C11.6002 23.8205 11.2492 23.6121 11.0496 23.298C11.1472 23.2304 11.2402 23.1532 11.3271 23.0662L11.9999 22.3935L12.6726 23.0662Z" fill="black"/>
<path d="M4.6505 20.3003C4.6505 20.4233 4.66159 20.5436 4.68284 20.6605C4.31963 20.7415 3.92405 20.6406 3.64143 20.358C3.3588 20.0754 3.25799 19.6798 3.339 19.3166C3.45581 19.3378 3.57616 19.3489 3.6991 19.3489H4.6505V20.3003Z" fill="black"/>
<path d="M0.701699 11.0496C0.387617 11.2492 0.179199 11.6002 0.179199 11.9999C0.179199 12.3995 0.387617 12.7505 0.701698 12.9501C0.769277 12.8525 0.846534 12.7595 0.933464 12.6726L1.60621 11.9999L0.933465 11.3271C0.846535 11.2402 0.769278 11.1472 0.701699 11.0496Z" fill="black"/>
<path d="M1.6405 14.7939C1.24998 14.4034 1.24998 13.7702 1.6405 13.3797L3.02035 11.9999L1.6405 10.62C1.24998 10.2295 1.24998 9.59632 1.6405 9.20579C2.03103 8.81527 2.66419 8.81527 3.05472 9.20579L5.14167 11.2927C5.32921 11.4803 5.43457 11.7346 5.43457 11.9999C5.43457 12.2651 5.32921 12.5194 5.14167 12.707L3.05472 14.7939C2.66419 15.1844 2.03103 15.1844 1.6405 14.7939Z" fill="black"/>
<path d="M13.3796 22.3591C13.7702 22.7497 14.4033 22.7497 14.7938 22.3591C15.1844 21.9686 15.1844 21.3354 14.7938 20.9449L12.7069 18.858C12.5194 18.6704 12.265 18.5651 11.9998 18.5651C11.7346 18.5651 11.4802 18.6704 11.2927 18.858L9.20572 20.9449C8.81519 21.3354 8.81519 21.9686 9.20572 22.3591C9.59624 22.7497 10.2294 22.7497 10.6199 22.3591L11.9998 20.9793L13.3796 22.3591Z" fill="black"/>
<path d="M9.20572 1.64057C9.59624 1.25005 10.2294 1.25005 10.6199 1.64057L11.9998 3.02042L13.3796 1.64058C13.7702 1.25005 14.4033 1.25005 14.7938 1.64058C15.1844 2.0311 15.1844 2.66426 14.7938 3.05479L12.7069 5.14174C12.5194 5.32928 12.265 5.43464 11.9998 5.43464C11.7346 5.43464 11.4802 5.32928 11.2927 5.14174L9.20572 3.05479C8.81519 2.66426 8.81519 2.0311 9.20572 1.64057Z" fill="black"/>
<path d="M22.3591 9.20579C22.7496 9.59632 22.7496 10.2295 22.3591 10.62L20.9792 11.9999L22.3591 13.3797C22.7496 13.7702 22.7496 14.4034 22.3591 14.7939C21.9685 15.1844 21.3354 15.1844 20.9448 14.7939L18.8579 12.707C18.6704 12.5194 18.565 12.2651 18.565 11.9999C18.565 11.7346 18.6704 11.4803 18.8579 11.2927L20.9448 9.20579C21.3354 8.81527 21.9685 8.81527 22.3591 9.20579Z" fill="black"/>
<path d="M18.3491 3.69941C18.3491 3.14713 17.9014 2.69941 17.3491 2.69941C16.7969 2.69941 16.3491 3.14713 16.3491 3.69941V6.65082C16.3491 6.91603 16.4545 7.17039 16.642 7.35792C16.8296 7.54546 17.0839 7.65082 17.3491 7.65082L20.3005 7.65082C20.8528 7.65082 21.3005 7.2031 21.3005 6.65082C21.3005 6.09853 20.8528 5.65082 20.3005 5.65082H18.3491V3.69941Z" fill="black"/>
<path d="M21.3007 17.3492C21.3007 17.9015 20.853 18.3492 20.3007 18.3492H18.3493V20.3006C18.3493 20.8529 17.9016 21.3006 17.3493 21.3006C16.797 21.3006 16.3493 20.8529 16.3493 20.3006V17.3492C16.3493 17.084 16.4547 16.8296 16.6422 16.6421C16.8298 16.4546 17.0841 16.3492 17.3493 16.3492H20.3007C20.853 16.3492 21.3007 16.7969 21.3007 17.3492Z" fill="black"/>
<path d="M5.65043 20.3003C5.65043 20.8526 6.09814 21.3003 6.65043 21.3003C7.20271 21.3003 7.65043 20.8526 7.65043 20.3003V17.3489C7.65043 17.0837 7.54507 16.8293 7.35753 16.6418C7.17 16.4543 6.91564 16.3489 6.65043 16.3489H3.69903C3.14674 16.3489 2.69903 16.7966 2.69903 17.3489C2.69903 17.9012 3.14674 18.3489 3.69903 18.3489H5.65043L5.65043 20.3003Z" fill="black"/>
<path d="M2.69883 6.6505C2.69883 6.09822 3.14655 5.6505 3.69883 5.6505H5.65023L5.65023 3.6991C5.65023 3.14682 6.09795 2.6991 6.65023 2.6991C7.20252 2.6991 7.65023 3.14682 7.65023 3.6991V6.6505C7.65023 6.91572 7.54488 7.17007 7.35734 7.35761C7.1698 7.54515 6.91545 7.6505 6.65023 7.6505L3.69883 7.6505C3.14655 7.6505 2.69883 7.20279 2.69883 6.6505Z" fill="black"/>
</svg>
