<svg width="24" height="24" viewBox="0 0 24 24" fill="none" xmlns="http://www.w3.org/2000/svg">
<path fill-rule="evenodd" clip-rule="evenodd" d="M11.3962 12.2499L5.91378 12.2499C5.92765 12.1678 5.93476 12.0842 5.93476 11.9999C5.93476 11.9155 5.92765 11.8319 5.91378 11.7499L11.3959 11.7499L7.54662 7.90057L4.69905 7.90056C4.56098 7.90056 4.44905 7.78864 4.44905 7.65056C4.44905 7.51249 4.56098 7.40056 4.69905 7.40056L7.40045 7.40057V4.69916C7.40045 4.56109 7.51238 4.44916 7.65045 4.44916C7.78852 4.44916 7.90045 4.56109 7.90045 4.69916V7.54729L11.75 11.3968V5.91366C11.832 5.92753 11.9156 5.93464 12 5.93464C12.0843 5.93464 12.1679 5.92753 12.25 5.91366V11.3966L16.0992 7.54733V4.69939C16.0992 4.56132 16.2111 4.44939 16.3492 4.44939C16.4873 4.44939 16.5992 4.56132 16.5992 4.69939V7.40079L19.3006 7.40079C19.4387 7.40079 19.5506 7.51272 19.5506 7.65079C19.5506 7.78887 19.4387 7.90079 19.3006 7.90079L16.4528 7.90079L12.6038 11.7499L18.0862 11.7499C18.0723 11.8319 18.0652 11.9155 18.0652 11.9999C18.0652 12.0842 18.0723 12.1678 18.0862 12.2499L12.604 12.2499L16.4535 16.0993L19.3009 16.0993C19.4389 16.0993 19.5509 16.2112 19.5509 16.3493C19.5509 16.4874 19.4389 16.5993 19.3009 16.5993L16.5995 16.5993L16.5995 19.3007C16.5995 19.4388 16.4875 19.5507 16.3495 19.5507C16.2114 19.5507 16.0995 19.4388 16.0995 19.3007L16.0995 16.4524L12.25 12.6029L12.25 18.086C12.1679 18.0722 12.0843 18.0651 12 18.0651C11.9156 18.0651 11.832 18.0722 11.75 18.086L11.75 12.6032L7.90047 16.4527V19.3005C7.90047 19.4385 7.78854 19.5505 7.65047 19.5505C7.51239 19.5505 7.40047 19.4385 7.40047 19.3005V16.5991H4.69906C4.56099 16.5991 4.44906 16.4871 4.44906 16.3491C4.44906 16.211 4.56099 16.0991 4.69906 16.0991H7.54695L11.3962 12.2499ZM11.989 11.9955L11.9891 11.9999L11.989 12.004L11.9923 12.0072L11.9958 12.0108L12 12.0107L12.0044 12.0108L12.0079 12.0072L12.0109 12.0042L12.0108 11.9999L12.0109 11.9957L12.0076 11.9925L12.0041 11.9889L12 11.989L11.9956 11.9889L11.9921 11.9925L11.989 11.9955Z" fill="black"/>
<path d="M2.31344 11.9999L2.06344 11.7499H1.30432C1.16625 11.7499 1.05432 11.8618 1.05432 11.9999C1.05432 12.1379 1.16625 12.2499 1.30432 12.2499H2.06343L2.31344 11.9999Z" fill="black"/>
<path d="M5.15042 5.1505L4.79656 5.1505L4.26002 4.61396C4.16239 4.51633 4.16239 4.35804 4.26002 4.2604C4.35765 4.16277 4.51594 4.16277 4.61357 4.2604L5.15042 4.79726V5.1505Z" fill="black"/>
<path d="M12 2.31331L11.75 2.06331V1.3042C11.75 1.16613 11.8619 1.0542 12 1.0542C12.138 1.0542 12.25 1.16613 12.25 1.3042V2.06332L12 2.31331Z" fill="black"/>
<path d="M18.8493 5.15082V4.7972L19.3861 4.2604C19.4838 4.16277 19.642 4.16277 19.7397 4.2604C19.8373 4.35804 19.8373 4.51633 19.7397 4.61396L19.2028 5.15082H18.8493Z" fill="black"/>
<path d="M21.6865 11.9999L21.9365 11.7499H22.6956C22.8337 11.7499 22.9456 11.8618 22.9456 11.9999C22.9456 12.1379 22.8337 12.2499 22.6956 12.2499H21.9365L21.6865 11.9999Z" fill="black"/>
<path d="M18.8495 18.8492H19.2034L19.7399 19.3857C19.8376 19.4834 19.8376 19.6417 19.7399 19.7393C19.6423 19.8369 19.484 19.8369 19.3864 19.7393L18.8495 19.2024L18.8495 18.8492Z" fill="black"/>
<path d="M12 21.6864L12.25 21.9364V22.6955C12.25 22.8336 12.138 22.9455 12 22.9455C11.8619 22.9455 11.75 22.8336 11.75 22.6955V21.9364L12 21.6864Z" fill="black"/>
<path d="M5.15062 18.8489V19.2025L4.61383 19.7393C4.51619 19.8369 4.3579 19.8369 4.26027 19.7393C4.16264 19.6417 4.16264 19.4834 4.26027 19.3857L4.79713 18.8489H5.15062Z" fill="black"/>
<path d="M3.17095 14.2634C3.07332 14.1657 3.07332 14.0075 3.17095 13.9098L5.08113 11.9996L3.17096 10.0895C3.07332 9.99183 3.07332 9.83354 3.17096 9.73591C3.26859 9.63828 3.42688 9.63828 3.52451 9.73591L5.61146 11.8229C5.65835 11.8698 5.68469 11.9333 5.68469 11.9996C5.68469 12.0659 5.65835 12.1295 5.61146 12.1764L3.52451 14.2634C3.42688 14.361 3.26859 14.361 3.17095 14.2634Z" fill="black"/>
<path d="M13.91 20.8288C14.0076 20.9264 14.1659 20.9264 14.2635 20.8288C14.3612 20.7312 14.3612 20.5729 14.2635 20.4753L12.1766 18.3883C12.1297 18.3414 12.0661 18.3151 11.9998 18.3151C11.9335 18.3151 11.8699 18.3414 11.823 18.3883L9.73606 20.4753C9.63842 20.5729 9.63842 20.7312 9.73606 20.8288C9.83369 20.9264 9.99198 20.9264 10.0896 20.8288L11.9998 18.9186L13.91 20.8288Z" fill="black"/>
<path d="M9.73614 3.17105C9.83377 3.07342 9.99206 3.07342 10.0897 3.17105L11.9999 5.08123L13.9101 3.17105C14.0077 3.07343 14.166 3.07343 14.2636 3.17105C14.3612 3.26869 14.3612 3.42698 14.2636 3.52461L12.1767 5.61156C12.1298 5.65845 12.0662 5.68479 11.9999 5.68479C11.9336 5.68479 11.87 5.65845 11.8231 5.61156L9.73614 3.52461C9.63851 3.42698 9.63851 3.26869 9.73614 3.17105Z" fill="black"/>
<path d="M20.829 9.736C20.9266 9.83363 20.9266 9.99192 20.829 10.0896L18.9188 11.9997L20.8289 13.9099C20.9266 14.0075 20.9266 14.1658 20.8289 14.2635C20.7313 14.3611 20.573 14.3611 20.4754 14.2635L18.3884 12.1765C18.3416 12.1296 18.3152 12.066 18.3152 11.9997C18.3152 11.9334 18.3416 11.8698 18.3884 11.823L20.4754 9.736C20.573 9.63837 20.7313 9.63837 20.829 9.736Z" fill="black"/>
</svg>
