<svg width="24" height="24" viewBox="0 0 24 24" fill="none" xmlns="http://www.w3.org/2000/svg">
<path d="M6.43512 12C6.43512 11.5959 6.31283 11.2044 6.08873 10.875L9.28384 10.875L7.02431 8.61544C7.41579 8.54101 7.7792 8.35064 8.065 8.06483C8.35068 7.77915 8.54101 7.41595 8.61551 7.02467L10.8753 9.28449V6.08836C11.2047 6.31246 11.5962 6.43476 12.0003 6.43476C12.4044 6.43476 12.7959 6.31246 13.1253 6.08836V9.28424L15.3849 7.02466C15.4594 7.41607 15.6497 7.77939 15.9355 8.06515C16.2212 8.35088 16.5845 8.54123 16.9759 8.6157L14.7166 10.875H17.912C17.6879 11.2044 17.5656 11.5959 17.5656 12C17.5656 12.4041 17.6879 12.7956 17.9119 13.125H14.7168L16.9764 15.3845C16.5849 15.4589 16.2215 15.6493 15.9357 15.9351C15.65 16.2208 15.4597 16.584 15.3852 16.9753L13.1253 14.7155V17.9116C12.7959 17.6875 12.4044 17.5652 12.0003 17.5652C11.5962 17.5652 11.2047 17.6875 10.8753 17.9116V14.7157L8.61576 16.9753C8.54131 16.5839 8.35096 16.2206 8.0652 15.9348C7.77947 15.6491 7.41618 15.4587 7.02482 15.3843L9.28409 13.125L6.08873 13.125C6.31283 12.7956 6.43512 12.4041 6.43512 12Z" fill="black"/>
<path d="M3.69939 4.65062C3.57641 4.65062 3.45601 4.66172 3.33917 4.68297C3.25828 4.31983 3.35911 3.92437 3.64167 3.64181C3.92429 3.35919 4.31987 3.25837 4.68308 3.33937C4.66187 3.4561 4.65079 3.57637 4.65079 3.69922L4.65079 4.65062H3.69939Z" fill="black"/>
<path d="M11.3276 0.933586C11.2407 0.846657 11.1477 0.7694 11.0501 0.70182C11.2497 0.387739 11.6007 0.179321 12.0003 0.179321C12.4 0.179321 12.751 0.387739 12.9506 0.70182C12.853 0.7694 12.76 0.846657 12.6731 0.933586L12.0003 1.60633L11.3276 0.933586Z" fill="black"/>
<path d="M19.3497 3.69953C19.3497 3.57657 19.3386 3.4562 19.3173 3.33936C19.6806 3.25837 20.0761 3.35919 20.3588 3.64181C20.6414 3.92444 20.7422 4.32004 20.6612 4.68327C20.5444 4.66203 20.424 4.65094 20.3011 4.65094H19.3497V3.69953Z" fill="black"/>
<path d="M23.0667 11.3272C23.1537 11.2403 23.2309 11.1474 23.2985 11.0497C23.6126 11.2493 23.821 11.6003 23.821 12C23.821 12.3996 23.6126 12.7506 23.2985 12.9502C23.2309 12.8526 23.1537 12.7596 23.0667 12.6727L22.394 12L23.0667 11.3272Z" fill="black"/>
<path d="M20.3013 19.3493C20.4243 19.3493 20.5447 19.3382 20.6615 19.317C20.7424 19.6801 20.6416 20.0756 20.359 20.3581C20.0764 20.6408 19.6808 20.7416 19.3176 20.6606C19.3388 20.5439 19.3499 20.4236 19.3499 20.3007V19.3493H20.3013Z" fill="black"/>
<path d="M12.6731 23.0664C12.76 23.1533 12.853 23.2305 12.9506 23.2981C12.751 23.6122 12.4 23.8206 12.0003 23.8206C11.6007 23.8206 11.2497 23.6122 11.0501 23.2981C11.1477 23.2305 11.2407 23.1533 11.3276 23.0664L12.0003 22.3936L12.6731 23.0664Z" fill="black"/>
<path d="M4.65098 20.3004C4.65098 20.4234 4.66208 20.5438 4.68333 20.6606C4.32012 20.7416 3.92454 20.6408 3.64192 20.3581C3.35929 20.0755 3.25848 19.6799 3.33948 19.3167C3.4563 19.3379 3.57664 19.349 3.69958 19.349H4.65098V20.3004Z" fill="black"/>
<path d="M0.702187 11.0497C0.388106 11.2493 0.179687 11.6003 0.179688 12C0.179688 12.3996 0.388105 12.7506 0.702186 12.9502C0.769765 12.8526 0.847022 12.7596 0.933952 12.6727L1.6067 12L0.933953 11.3272C0.847023 11.2403 0.769766 11.1474 0.702187 11.0497Z" fill="black"/>
<path d="M1.64099 14.794C1.25047 14.4035 1.25047 13.7704 1.64099 13.3798L3.02084 12L1.64099 10.6201C1.25047 10.2296 1.25047 9.59644 1.64099 9.20591C2.03152 8.81539 2.66468 8.81539 3.0552 9.20592L5.14216 11.2929C5.3297 11.4804 5.43505 11.7348 5.43505 12C5.43505 12.2652 5.3297 12.5195 5.14216 12.7071L3.0552 14.794C2.66468 15.1846 2.03151 15.1846 1.64099 14.794Z" fill="black"/>
<path d="M13.3801 22.3593C13.7706 22.7498 14.4038 22.7498 14.7943 22.3593C15.1849 21.9687 15.1849 21.3356 14.7943 20.945L12.7074 18.8581C12.5198 18.6706 12.2655 18.5652 12.0003 18.5652C11.7351 18.5652 11.4807 18.6706 11.2932 18.8581L9.20621 20.945C8.81568 21.3356 8.81568 21.9687 9.20621 22.3593C9.59673 22.7498 10.2299 22.7498 10.6204 22.3593L12.0003 20.9794L13.3801 22.3593Z" fill="black"/>
<path d="M9.20621 1.6407C9.59673 1.25017 10.2299 1.25017 10.6204 1.6407L12.0003 3.02055L13.3801 1.6407C13.7706 1.25017 14.4038 1.25017 14.7943 1.6407C15.1849 2.03122 15.1849 2.66439 14.7943 3.05491L12.7074 5.14187C12.5198 5.3294 12.2655 5.43476 12.0003 5.43476C11.7351 5.43476 11.4807 5.3294 11.2932 5.14187L9.20621 3.05491C8.81568 2.66439 8.81568 2.03122 9.20621 1.6407Z" fill="black"/>
<path d="M22.3596 9.20592C22.7501 9.59644 22.7501 10.2296 22.3596 10.6201L20.9797 12L22.3595 13.3798C22.7501 13.7704 22.7501 14.4035 22.3595 14.794C21.969 15.1846 21.3359 15.1846 20.9453 14.794L18.8584 12.7071C18.6708 12.5195 18.5655 12.2652 18.5655 12C18.5655 11.7348 18.6708 11.4804 18.8584 11.2929L20.9453 9.20592C21.3359 8.81539 21.969 8.81539 22.3596 9.20592Z" fill="black"/>
<path d="M18.3496 3.69954C18.3496 3.14725 17.9019 2.69954 17.3496 2.69954C16.7973 2.69954 16.3496 3.14725 16.3496 3.69954V6.65094C16.3496 6.91616 16.455 7.17051 16.6425 7.35805C16.8301 7.54558 17.0844 7.65094 17.3496 7.65094L20.301 7.65094C20.8533 7.65094 21.301 7.20322 21.301 6.65094C21.301 6.09865 20.8533 5.65094 20.301 5.65094H18.3496V3.69954Z" fill="black"/>
<path d="M21.3012 17.3493C21.3012 17.9016 20.8535 18.3493 20.3012 18.3493H18.3498V20.3007C18.3498 20.853 17.9021 21.3007 17.3498 21.3007C16.7975 21.3007 16.3498 20.853 16.3498 20.3007V17.3493C16.3498 17.0841 16.4552 16.8298 16.6427 16.6422C16.8302 16.4547 17.0846 16.3493 17.3498 16.3493H20.3012C20.8535 16.3493 21.3012 16.797 21.3012 17.3493Z" fill="black"/>
<path d="M5.65092 20.3004C5.65092 20.8527 6.09863 21.3004 6.65092 21.3004C7.2032 21.3004 7.65092 20.8527 7.65092 20.3004V17.349C7.65092 17.0838 7.54556 16.8294 7.35802 16.6419C7.17049 16.4544 6.91613 16.349 6.65092 16.349H3.69952C3.14723 16.349 2.69952 16.7967 2.69952 17.349C2.69952 17.9013 3.14723 18.349 3.69952 18.349H5.65092L5.65092 20.3004Z" fill="black"/>
<path d="M2.69932 6.65062C2.69932 6.09834 3.14704 5.65062 3.69932 5.65062H5.65072L5.65072 3.69922C5.65072 3.14694 6.09844 2.69922 6.65072 2.69922C7.20301 2.69922 7.65072 3.14694 7.65072 3.69922V6.65062C7.65072 6.91584 7.54537 7.17019 7.35783 7.35773C7.17029 7.54527 6.91594 7.65063 6.65072 7.65063L3.69932 7.65062C3.14703 7.65062 2.69932 7.20291 2.69932 6.65062Z" fill="black"/>
</svg>
