<svg width="24" height="24" viewBox="0 0 24 24" fill="none" xmlns="http://www.w3.org/2000/svg">
<path fill-rule="evenodd" clip-rule="evenodd" d="M1.05469 12C1.05469 11.8619 1.16662 11.75 1.30469 11.75L4.83171 11.75L3.17132 10.0896C3.07369 9.99195 3.07369 9.83366 3.17132 9.73603C3.26895 9.6384 3.42724 9.6384 3.52488 9.73603L5.53882 11.75L11.3963 11.75L7.54699 7.90069L4.69942 7.90069C4.56134 7.90069 4.44942 7.78876 4.44942 7.65069C4.44942 7.51262 4.56134 7.40069 4.69942 7.40069L7.04699 7.40069L4.26038 4.61408C4.16275 4.51645 4.16275 4.35816 4.26038 4.26053C4.35802 4.1629 4.51631 4.1629 4.61394 4.26053L7.40082 7.04741V4.69929C7.40082 4.56121 7.51275 4.44929 7.65082 4.44929C7.78889 4.44929 7.90082 4.56121 7.90082 4.69929V7.54741L11.7503 11.3969V5.53856L9.73651 3.52473C9.63888 3.4271 9.63888 3.26881 9.73651 3.17118C9.83414 3.07355 9.99243 3.07355 10.0901 3.17118L11.7503 4.83146V1.30432C11.7503 1.16625 11.8623 1.05432 12.0003 1.05432C12.1384 1.05432 12.2503 1.16625 12.2503 1.30432V4.83126L13.9104 3.17118C14.008 3.07355 14.1663 3.07355 14.264 3.17118C14.3616 3.26881 14.3616 3.4271 14.264 3.52473L12.2503 5.53836V11.3967L16.0996 7.54745V4.69952C16.0996 4.56144 16.2115 4.44952 16.3496 4.44952C16.4876 4.44952 16.5996 4.56144 16.5996 4.69952V7.04745L19.3865 4.26053C19.4841 4.16289 19.6424 4.16289 19.74 4.26053C19.8377 4.35816 19.8377 4.51645 19.74 4.61408L16.9532 7.40092L19.301 7.40092C19.439 7.40092 19.551 7.51285 19.551 7.65092C19.551 7.78899 19.439 7.90092 19.301 7.90092L16.4532 7.90092L12.6041 11.75L18.4619 11.75L20.4758 9.73612C20.5734 9.63849 20.7317 9.63849 20.8293 9.73612C20.9269 9.83375 20.9269 9.99204 20.8293 10.0897L19.169 11.75H22.696C22.8341 11.75 22.946 11.8619 22.946 12C22.946 12.138 22.8341 12.25 22.696 12.25H19.1693L20.8293 13.91C20.9269 14.0077 20.9269 14.166 20.8293 14.2636C20.7317 14.3612 20.5734 14.3612 20.4758 14.2636L18.4622 12.25L12.6044 12.25L16.4538 16.0994L19.3012 16.0994C19.4393 16.0994 19.5512 16.2113 19.5512 16.3494C19.5512 16.4875 19.4393 16.5994 19.3012 16.5994L16.9538 16.5994L19.7403 19.3859C19.8379 19.4835 19.8379 19.6418 19.7403 19.7394C19.6427 19.8371 19.4844 19.8371 19.3867 19.7394L16.5998 16.9525L16.5998 19.3008C16.5998 19.4389 16.4879 19.5508 16.3498 19.5508C16.2117 19.5508 16.0998 19.4389 16.0998 19.3008L16.0998 16.4525L12.2503 12.603L12.2503 18.4618L14.2639 20.4754C14.3615 20.573 14.3615 20.7313 14.2639 20.8289C14.1663 20.9266 14.008 20.9266 13.9103 20.8289L12.2503 19.1689V22.6956C12.2503 22.8337 12.1384 22.9456 12.0003 22.9456C11.8623 22.9456 11.7503 22.8337 11.7503 22.6956V19.1686L10.09 20.8289C9.99234 20.9266 9.83405 20.9266 9.73642 20.8289C9.63879 20.7313 9.63879 20.573 9.73642 20.4754L11.7503 18.4615L11.7503 12.6033L7.90083 16.4528V19.3006C7.90083 19.4387 7.7889 19.5506 7.65083 19.5506C7.51276 19.5506 7.40083 19.4387 7.40083 19.3006V16.9528L4.61419 19.7394C4.51656 19.8371 4.35827 19.8371 4.26064 19.7394C4.16301 19.6418 4.16301 19.4835 4.26064 19.3859L7.04732 16.5992H4.69943C4.56136 16.5992 4.44943 16.4873 4.44943 16.3492C4.44943 16.2111 4.56136 16.0992 4.69943 16.0992H7.54732L11.3965 12.25L5.5384 12.25L3.52487 14.2635C3.42724 14.3611 3.26895 14.3611 3.17132 14.2635C3.07369 14.1659 3.07369 14.0076 3.17132 13.9099L4.83129 12.25L1.30469 12.25C1.16662 12.25 1.05469 12.138 1.05469 12ZM11.9895 12L11.9894 11.9956L11.9924 11.9926L11.996 11.989L12.0003 11.9891L12.0045 11.989L12.008 11.9926L12.0113 11.9958L12.0112 12L12.0113 12.0043L12.0082 12.0074L12.0047 12.0109L12.0003 12.0108L11.9962 12.0109L11.9927 12.0074L11.9894 12.0041L11.9895 12Z" fill="black"/>
</svg>
