<svg width="24" height="24" viewBox="0 0 24 24" fill="none" xmlns="http://www.w3.org/2000/svg">
<path d="M0.179688 12C0.179687 11.3787 0.683367 10.875 1.30469 10.875H1.89584L1.64099 10.6201C1.25047 10.2296 1.25047 9.59644 1.64099 9.20591C2.03152 8.81539 2.66468 8.81539 3.0552 9.20592L4.72426 10.875L9.28384 10.875L6.05949 7.65063L3.69932 7.65062C3.14703 7.65062 2.69932 7.20291 2.69932 6.65062C2.69932 6.09834 3.14704 5.65062 3.69932 5.65062H4.05949L3.64167 5.2328C3.20233 4.79346 3.20233 4.08115 3.64167 3.64181C4.08101 3.20247 4.79332 3.20247 5.23266 3.64181L5.65072 4.05988V3.69922C5.65072 3.14694 6.09844 2.69922 6.65072 2.69922C7.20301 2.69922 7.65072 3.14694 7.65072 3.69922L7.65072 6.05988L10.8753 9.28449V4.72404L9.20621 3.05491C8.81568 2.66439 8.81568 2.03122 9.20621 1.6407C9.59673 1.25017 10.2299 1.25017 10.6204 1.6407L10.8753 1.89561V1.30432C10.8753 0.683001 11.379 0.179321 12.0003 0.179321C12.6217 0.179321 13.1253 0.683001 13.1253 1.30432V1.89548L13.3801 1.6407C13.7706 1.25017 14.4038 1.25017 14.7943 1.6407C15.1849 2.03122 15.1849 2.66439 14.7943 3.05491L13.1253 4.7239V9.28424L16.3496 6.05995V3.69954C16.3496 3.14725 16.7973 2.69954 17.3496 2.69954C17.9019 2.69954 18.3496 3.14725 18.3496 3.69954V4.05995L18.7678 3.64181C19.2071 3.20247 19.9194 3.20247 20.3588 3.64181C20.7981 4.08115 20.7981 4.79346 20.3588 5.2328L19.9406 5.65094H20.301C20.8533 5.65094 21.301 6.09865 21.301 6.65094C21.301 7.20322 20.8533 7.65094 20.301 7.65094H17.9406L14.7166 10.875L19.2763 10.875L20.9453 9.20592C21.3359 8.81539 21.969 8.81539 22.3596 9.20592C22.7501 9.59644 22.7501 10.2296 22.3596 10.6201L22.1047 10.875H22.696C23.3173 10.875 23.821 11.3787 23.821 12C23.821 12.6213 23.3173 13.125 22.696 13.125H22.1047L22.3595 13.3798C22.7501 13.7704 22.7501 14.4035 22.3595 14.794C21.969 15.1846 21.3359 15.1846 20.9453 14.794L19.2763 13.125L14.7168 13.125L17.9412 16.3493H20.3012C20.8535 16.3493 21.3012 16.797 21.3012 17.3493C21.3012 17.9016 20.8535 18.3493 20.3012 18.3493H19.9412L20.359 18.7671C20.7984 19.2065 20.7984 19.9188 20.359 20.3581C19.9197 20.7975 19.2074 20.7975 18.768 20.3581L18.3498 19.9399V20.3007C18.3498 20.853 17.9021 21.3007 17.3498 21.3007C16.7975 21.3007 16.3498 20.853 16.3498 20.3007V17.9399L13.1253 14.7155L13.1253 19.2761L14.7943 20.945C15.1849 21.3356 15.1849 21.9687 14.7943 22.3593C14.4038 22.7498 13.7706 22.7498 13.3801 22.3593L13.1253 22.1045V22.6956C13.1253 23.3169 12.6217 23.8206 12.0003 23.8206C11.379 23.8206 10.8753 23.3169 10.8753 22.6956V22.1043L10.6204 22.3593C10.2299 22.7498 9.59673 22.7498 9.20621 22.3593C8.81568 21.9687 8.81568 21.3356 9.20621 20.945L10.8753 19.2759L10.8753 14.7157L7.65092 17.9401L7.65092 20.3004C7.65092 20.8527 7.2032 21.3004 6.65092 21.3004C6.09863 21.3004 5.65092 20.8527 5.65092 20.3004V19.9401L5.23291 20.3581C4.79357 20.7975 4.08126 20.7975 3.64192 20.3581C3.20258 19.9188 3.20258 19.2065 3.64192 18.7671L4.06005 18.349H3.69952C3.14723 18.349 2.69952 17.9013 2.69952 17.349C2.69952 16.7967 3.14723 16.349 3.69952 16.349H6.06005L9.28409 13.125L4.72427 13.125L3.0552 14.794C2.66468 15.1846 2.03151 15.1846 1.64099 14.794C1.25047 14.4035 1.25047 13.7704 1.64099 13.3798L1.89584 13.125H1.30469C0.683367 13.125 0.179688 12.6213 0.179688 12Z" fill="black"/>
</svg>
