<svg width="24" height="24" viewBox="0 0 24 24" fill="none" xmlns="http://www.w3.org/2000/svg">
<path d="M22.999 18.4821L18.7564 22.7248C18.3659 23.1153 17.7327 23.1153 17.3422 22.7248L13.0995 18.4821C12.709 18.0916 12.709 17.4585 13.0995 17.0679C13.4901 16.6774 14.1232 16.6774 14.5137 17.0679L17.0493 19.6035V1.47314C17.0493 0.92086 17.497 0.473145 18.0493 0.473145C18.6016 0.473145 19.0493 0.92086 19.0493 1.47314V19.6035L21.5848 17.0679C21.9753 16.6774 22.6085 16.6774 22.999 17.0679C23.3896 17.4585 23.3896 18.0916 22.999 18.4821Z" fill="black"/>
<path d="M6.75639 0.973166C6.36586 0.582642 5.7327 0.582642 5.34217 0.973166L1.09953 5.21581C0.70901 5.60633 0.70901 6.2395 1.09953 6.63002C1.49006 7.02054 2.12322 7.02054 2.51375 6.63002L5.04928 4.09449V22.2248C5.04928 22.7771 5.497 23.2248 6.04928 23.2248C6.60157 23.2248 7.04928 22.7771 7.04928 22.2248V4.09449L9.58482 6.63002C9.97534 7.02054 10.6085 7.02054 10.999 6.63002C11.3896 6.2395 11.3896 5.60633 10.999 5.21581L6.75639 0.973166Z" fill="black"/>
</svg>
