<svg width="24" height="24" viewBox="0 0 24 24" fill="none" xmlns="http://www.w3.org/2000/svg">
<path d="M22.6455 18.1286L18.4028 22.3712C18.2076 22.5665 17.891 22.5665 17.6957 22.3712L13.4531 18.1286C13.2578 17.9333 13.2578 17.6167 13.4531 17.4215C13.6483 17.2262 13.9649 17.2262 14.1602 17.4215L17.5493 20.8106V1.47314C17.5493 1.197 17.7731 0.973145 18.0493 0.973145C18.3254 0.973145 18.5493 1.197 18.5493 1.47314V20.8106L21.9384 17.4215C22.1336 17.2262 22.4502 17.2262 22.6455 17.4215C22.8407 17.6167 22.8407 17.9333 22.6455 18.1286Z" fill="black"/>
<path d="M6.40283 1.32672C6.20757 1.13146 5.89099 1.13146 5.69573 1.32672L1.45309 5.56936C1.25782 5.76462 1.25783 6.0812 1.45309 6.27647C1.64835 6.47173 1.96493 6.47173 2.16019 6.27647L5.54928 2.88738V22.2248C5.54928 22.5009 5.77314 22.7248 6.04928 22.7248C6.32542 22.7248 6.54928 22.5009 6.54928 22.2248V2.88738L9.93837 6.27647C10.1336 6.47173 10.4502 6.47173 10.6455 6.27647C10.8407 6.0812 10.8407 5.76462 10.6455 5.56936L6.40283 1.32672Z" fill="black"/>
</svg>
