<svg width="24" height="24" viewBox="0 0 24 24" fill="none" xmlns="http://www.w3.org/2000/svg">
<path fill-rule="evenodd" clip-rule="evenodd" d="M0.123117 8.43565C0 9.21298 0 10.142 0 12C0 13.858 0 14.787 0.123117 15.5643C0.800832 19.8433 4.15673 23.1992 8.43565 23.8769C9.21298 24 10.142 24 12 24C13.858 24 14.787 24 15.5643 23.8769C19.8433 23.1992 23.1992 19.8433 23.8769 15.5643C24 14.787 24 13.858 24 12C24 10.142 24 9.21298 23.8769 8.43565C23.1992 4.15673 19.8433 0.800832 15.5643 0.123117C14.787 0 13.858 0 12 0C10.142 0 9.21298 0 8.43565 0.123117C4.15673 0.800832 0.800832 4.15673 0.123117 8.43565ZM16.6526 19.2969L19.481 16.4685C19.8227 16.1268 19.8227 15.5728 19.481 15.2311C19.1393 14.8894 18.5853 14.8894 18.2436 15.2311L16.9089 16.5658V4.98188C16.9089 4.49863 16.5171 4.10688 16.0339 4.10688C15.5506 4.10688 15.1589 4.49863 15.1589 4.98188V16.5658L13.8241 15.2311C13.4824 14.8894 12.9284 14.8894 12.5867 15.2311C12.245 15.5728 12.245 16.1268 12.5867 16.4685L15.4151 19.2969C15.7568 19.6386 16.3109 19.6386 16.6526 19.2969ZM7.41514 4.50124C7.75684 4.15953 8.31086 4.15953 8.65257 4.50124L11.481 7.32966C11.8227 7.67137 11.8227 8.22539 11.481 8.5671C11.1393 8.90881 10.5853 8.90881 10.2436 8.5671L8.90885 7.23239V18.8163C8.90885 19.2995 8.5171 19.6913 8.03385 19.6913C7.5506 19.6913 7.15885 19.2995 7.15885 18.8163V7.23239L5.82415 8.5671C5.48244 8.90881 4.92842 8.90881 4.58671 8.5671C4.245 8.22539 4.245 7.67137 4.58671 7.32966L7.41514 4.50124Z" fill="black"/>
</svg>
