<svg width="24" height="24" viewBox="0 0 24 24" fill="none" xmlns="http://www.w3.org/2000/svg">
<path d="M23.1758 18.6589L18.9332 22.9016C18.445 23.3897 17.6536 23.3897 17.1654 22.9016L12.9228 18.6589C12.4346 18.1708 12.4346 17.3793 12.9228 16.8912C13.4109 16.403 14.2024 16.403 14.6905 16.8912L16.7993 18.9999V1.47314C16.7993 0.782789 17.3589 0.223145 18.0493 0.223145C18.7396 0.223145 19.2993 0.782789 19.2993 1.47314V18.9999L21.408 16.8912C21.8962 16.403 22.6877 16.403 23.1758 16.8912C23.664 17.3793 23.664 18.1708 23.1758 18.6589Z" fill="black"/>
<path d="M6.93316 0.79639C6.44501 0.308234 5.65355 0.308234 5.1654 0.79639L0.922757 5.03903C0.434602 5.52719 0.434602 6.31864 0.922757 6.8068C1.41091 7.29495 2.20237 7.29495 2.69052 6.8068L4.79928 4.69804V22.2248C4.79928 22.9152 5.35893 23.4748 6.04928 23.4748C6.73964 23.4748 7.29928 22.9152 7.29928 22.2248V4.69804L9.40804 6.8068C9.89619 7.29495 10.6876 7.29495 11.1758 6.8068C11.664 6.31864 11.664 5.52719 11.1758 5.03903L6.93316 0.79639Z" fill="black"/>
</svg>
