<svg width="24" height="24" viewBox="0 0 24 24" fill="none" xmlns="http://www.w3.org/2000/svg">
<path d="M22.8223 18.3054L18.5796 22.548C18.2867 22.8409 17.8118 22.8409 17.519 22.548L13.2763 18.3054C12.9834 18.0125 12.9834 17.5376 13.2763 17.2447C13.5692 16.9518 14.0441 16.9518 14.337 17.2447L17.2993 20.207V1.47314C17.2993 1.05893 17.6351 0.723145 18.0493 0.723145C18.4635 0.723145 18.7993 1.05893 18.7993 1.47314V20.207L21.7616 17.2447C22.0545 16.9518 22.5294 16.9518 22.8223 17.2447C23.1151 17.5376 23.1151 18.0125 22.8223 18.3054Z" fill="black"/>
<path d="M6.57961 1.14994C6.28672 0.85705 5.81184 0.85705 5.51895 1.14994L1.27631 5.39258C0.983417 5.68548 0.983417 6.16035 1.27631 6.45324C1.5692 6.74614 2.04408 6.74614 2.33697 6.45324L5.29928 3.49093V22.2248C5.29928 22.639 5.63507 22.9748 6.04928 22.9748C6.46349 22.9748 6.79928 22.639 6.79928 22.2248V3.49093L9.76159 6.45324C10.0545 6.74614 10.5294 6.74614 10.8223 6.45324C11.1151 6.16035 11.1151 5.68548 10.8223 5.39258L6.57961 1.14994Z" fill="black"/>
</svg>
