<svg width="24" height="24" viewBox="0 0 24 24" fill="none" xmlns="http://www.w3.org/2000/svg">
<path fill-rule="evenodd" clip-rule="evenodd" d="M0.123117 8.43565C0 9.21298 0 10.142 0 12C0 13.858 0 14.787 0.123117 15.5643C0.800832 19.8433 4.15673 23.1992 8.43565 23.8769C9.21298 24 10.142 24 12 24C13.858 24 14.787 24 15.5643 23.8769C19.8433 23.1992 23.1992 19.8433 23.8769 15.5643C24 14.787 24 13.858 24 12C24 10.142 24 9.21298 23.8769 8.43565C23.1992 4.15673 19.8433 0.800832 15.5643 0.123117C14.787 0 13.858 0 12 0C10.142 0 9.21298 0 8.43565 0.123117C4.15673 0.800832 0.800832 4.15673 0.123117 8.43565ZM16.2106 18.855L19.0391 16.0266C19.1367 15.9289 19.1367 15.7706 19.0391 15.673C18.9414 15.5754 18.7831 15.5754 18.6855 15.673L16.2839 18.0747V4.98188C16.2839 4.84381 16.1719 4.73188 16.0339 4.73188C15.8958 4.73188 15.7839 4.84381 15.7839 4.98188V18.0747L13.3822 15.673C13.2846 15.5754 13.1263 15.5754 13.0287 15.673C12.931 15.7706 12.931 15.9289 13.0287 16.0266L15.8571 18.855C15.9547 18.9526 16.113 18.9526 16.2106 18.855ZM7.85708 4.94318C7.95471 4.84555 8.113 4.84555 8.21063 4.94318L11.0391 7.77161C11.1367 7.86924 11.1367 8.02753 11.0391 8.12516C10.9414 8.22279 10.7831 8.22279 10.6855 8.12516L8.28385 5.72351V18.8163C8.28385 18.9544 8.17193 19.0663 8.03385 19.0663C7.89578 19.0663 7.78385 18.9544 7.78385 18.8163V5.72351L5.3822 8.12516C5.28457 8.22279 5.12628 8.22279 5.02865 8.12516C4.93102 8.02753 4.93102 7.86924 5.02865 7.77161L7.85708 4.94318Z" fill="black"/>
</svg>
