<svg width="24" height="24" viewBox="0 0 24 24" fill="none" xmlns="http://www.w3.org/2000/svg">
<path fill-rule="evenodd" clip-rule="evenodd" d="M0.123117 8.43565C0 9.21298 0 10.142 0 12C0 13.858 0 14.787 0.123117 15.5643C0.800832 19.8433 4.15673 23.1992 8.43565 23.8769C9.21298 24 10.142 24 12 24C13.858 24 14.787 24 15.5643 23.8769C19.8433 23.1992 23.1992 19.8433 23.8769 15.5643C24 14.787 24 13.858 24 12C24 10.142 24 9.21298 23.8769 8.43565C23.1992 4.15673 19.8433 0.800832 15.5643 0.123117C14.787 0 13.858 0 12 0C10.142 0 9.21298 0 8.43565 0.123117C4.15673 0.800832 0.800832 4.15673 0.123117 8.43565ZM19.5694 16.5569C19.9599 16.1664 19.9599 15.5332 19.5694 15.1427C19.1789 14.7522 18.5457 14.7522 18.1552 15.1427L17.0339 16.264V4.98188C17.0339 4.42959 16.5861 3.98188 16.0339 3.98188C15.4816 3.98188 15.0339 4.42959 15.0339 4.98188V16.264L13.9125 15.1427C13.522 14.7522 12.8888 14.7522 12.4983 15.1427C12.1078 15.5332 12.1078 16.1664 12.4983 16.5569L15.3267 19.3853C15.7173 19.7759 16.3504 19.7759 16.741 19.3853L19.5694 16.5569ZM7.32675 4.41285C7.71727 4.02232 8.35044 4.02232 8.74096 4.41285L11.5694 7.24127C11.9599 7.6318 11.9599 8.26496 11.5694 8.65549C11.1789 9.04601 10.5457 9.04601 10.1552 8.65549L9.03385 7.53417V18.8163C9.03385 19.3686 8.58614 19.8163 8.03385 19.8163C7.48157 19.8163 7.03385 19.3686 7.03385 18.8163V7.53417L5.91253 8.65549C5.52201 9.04601 4.88884 9.04601 4.49832 8.65549C4.1078 8.26496 4.1078 7.6318 4.49832 7.24127L7.32675 4.41285Z" fill="black"/>
</svg>
