<svg width="24" height="24" viewBox="0 0 24 24" fill="none" xmlns="http://www.w3.org/2000/svg">
<path d="M5.41891 4.28606C4.98651 4.28606 4.7703 4.28606 4.65751 4.19703C4.55937 4.11958 4.50149 4.00193 4.50002 3.87692C4.49832 3.73324 4.63026 3.56196 4.89413 3.2194L6.47522 1.16684C6.65382 0.934987 6.74311 0.819061 6.85192 0.777388C6.94726 0.740871 7.05274 0.740871 7.14808 0.777388C7.25689 0.819061 7.34618 0.934987 7.52478 1.16684L9.10587 3.2194C9.36974 3.56196 9.50168 3.73324 9.49998 3.87692C9.49851 4.00193 9.44063 4.11958 9.34249 4.19703C9.2297 4.28606 9.01349 4.28606 8.58109 4.28606H7.74509L7.74509 22.7499C7.74509 23.1641 7.4093 23.4999 6.99509 23.4999C6.58088 23.4999 6.24509 23.1641 6.24509 22.7499L6.24509 4.28606H5.41891Z" fill="black"/>
<path d="M15.4189 19.9639C14.9865 19.9639 14.7703 19.9639 14.6575 20.0529C14.5594 20.1303 14.5015 20.248 14.5 20.373C14.4983 20.5167 14.6303 20.688 14.8941 21.0305L16.4752 23.0831C16.6538 23.3149 16.7431 23.4309 16.8519 23.4725C16.9473 23.5091 17.0527 23.5091 17.1481 23.4725C17.2569 23.4309 17.3462 23.3149 17.5248 23.0831L19.1059 21.0305C19.3697 20.688 19.5017 20.5167 19.5 20.373C19.4985 20.248 19.4406 20.1303 19.3425 20.0529C19.2297 19.9639 19.0135 19.9639 18.5811 19.9639H17.7451L17.7451 1.5C17.7451 1.08579 17.4093 0.75 16.9951 0.75C16.5809 0.75 16.2451 1.08579 16.2451 1.5L16.2451 19.9639H15.4189Z" fill="black"/>
</svg>
