<svg width="24" height="24" viewBox="0 0 24 24" fill="none" xmlns="http://www.w3.org/2000/svg">
<path d="M22.4687 17.9518L18.2261 22.1945C18.1284 22.2921 17.9701 22.2921 17.8725 22.1945L13.6299 17.9518C13.5322 17.8542 13.5322 17.6959 13.6299 17.5983C13.7275 17.5006 13.8858 17.5006 13.9834 17.5983L17.7993 21.4141V1.47314C17.7993 1.33507 17.9112 1.22314 18.0493 1.22314C18.1874 1.22314 18.2993 1.33507 18.2993 1.47314V21.4141L22.1151 17.5983C22.2128 17.5006 22.3711 17.5006 22.4687 17.5983C22.5663 17.6959 22.5663 17.8542 22.4687 17.9518Z" fill="black"/>
<path d="M6.22606 1.5035C6.12843 1.40587 5.97014 1.40587 5.8725 1.5035L1.62986 5.74614C1.53223 5.84377 1.53223 6.00206 1.62986 6.09969C1.72749 6.19732 1.88579 6.19732 1.98342 6.09969L5.79928 2.28383V22.2248C5.79928 22.3629 5.91121 22.4748 6.04928 22.4748C6.18735 22.4748 6.29928 22.3629 6.29928 22.2248V2.28383L10.1151 6.09969C10.2128 6.19732 10.3711 6.19732 10.4687 6.09969C10.5663 6.00206 10.5663 5.84377 10.4687 5.74614L6.22606 1.5035Z" fill="black"/>
</svg>
