<svg width="24" height="24" viewBox="0 0 24 24" fill="none" xmlns="http://www.w3.org/2000/svg">
<path d="M10.5 22.7499C10.6381 22.7499 10.75 22.638 10.75 22.4999L10.75 1.49976C10.75 1.36168 10.6381 1.24976 10.5 1.24976C10.3619 1.24976 10.25 1.36168 10.25 1.49976L10.25 22.4999C10.25 22.638 10.3619 22.7499 10.5 22.7499Z" fill="black"/>
<path d="M13.75 22.4999C13.75 22.638 13.6381 22.7499 13.5 22.7499C13.3619 22.7499 13.25 22.638 13.25 22.4999L13.25 1.49976C13.25 1.36168 13.3619 1.24976 13.5 1.24976C13.6381 1.24976 13.75 1.36168 13.75 1.49976L13.75 22.4999Z" fill="black"/>
<path d="M16 7.49994C16 6.67151 16.6716 5.99994 17.5 5.99994H19.5C20.3284 5.99994 21 6.67151 21 7.49994V16.4999C21 17.3284 20.3284 17.9999 19.5 17.9999H17.5C16.6716 17.9999 16 17.3284 16 16.4999V7.49994Z" fill="black"/>
<path d="M3 4.49994C3 3.67151 3.67157 2.99994 4.5 2.99994H6.5C7.32843 2.99994 8 3.67151 8 4.49994V19.4999C8 20.3284 7.32843 20.9999 6.5 20.9999H4.5C3.67157 20.9999 3 20.3284 3 19.4999V4.49994Z" fill="black"/>
</svg>
