<svg width="24" height="24" viewBox="0 0 24 24" fill="none" xmlns="http://www.w3.org/2000/svg">
<path d="M10.5 23.0002C10.7761 23.0002 11 22.7763 11 22.5002L11 1.5C11 1.22386 10.7761 1 10.5 1C10.2239 1 10 1.22386 10 1.5L10 22.5002C10 22.7763 10.2239 23.0002 10.5 23.0002Z" fill="black"/>
<path d="M14 22.5002C14 22.7763 13.7761 23.0002 13.5 23.0002C13.2239 23.0002 13 22.7763 13 22.5002L13 1.5C13 1.22386 13.2239 1 13.5 1C13.7761 1 14 1.22386 14 1.5L14 22.5002Z" fill="black"/>
<path fill-rule="evenodd" clip-rule="evenodd" d="M17.5 6.00018C16.6716 6.00018 16 6.67176 16 7.50018V16.5002C16 17.3286 16.6716 18.0002 17.5 18.0002H19.5C20.3284 18.0002 21 17.3286 21 16.5002V7.50018C21 6.67176 20.3284 6.00018 19.5 6.00018H17.5ZM17 7.50018V16.5002C17 16.7763 17.2239 17.0002 17.5 17.0002H19.5C19.7761 17.0002 20 16.7763 20 16.5002V7.50018C20 7.22404 19.7761 7.00018 19.5 7.00018H17.5C17.2239 7.00018 17 7.22404 17 7.50018Z" fill="black"/>
<path fill-rule="evenodd" clip-rule="evenodd" d="M4.5 3.00018C3.67157 3.00018 3 3.67176 3 4.50018V19.5002C3 20.3286 3.67157 21.0002 4.5 21.0002H6.5C7.32843 21.0002 8 20.3286 8 19.5002V4.50018C8 3.67176 7.32843 3.00018 6.5 3.00018H4.5ZM4 4.50018V19.5002C4 19.7763 4.22386 20.0002 4.5 20.0002H6.5C6.77614 20.0002 7 19.7763 7 19.5002V4.50018C7 4.22404 6.77614 4.00018 6.5 4.00018H4.5C4.22386 4.00018 4 4.22404 4 4.50018Z" fill="black"/>
</svg>
