<svg width="24" height="24" viewBox="0 0 24 24" fill="none" xmlns="http://www.w3.org/2000/svg">
<path fill-rule="evenodd" clip-rule="evenodd" d="M17.4998 18.125C17.4998 17.2966 16.8282 16.625 15.9998 16.625H6.99976C6.17133 16.625 5.49976 17.2966 5.49976 18.125V20.625C5.49976 21.4534 6.17133 22.125 6.99976 22.125H15.9998C16.8282 22.125 17.4998 21.4534 17.4998 20.625V18.125ZM15.9998 18.125H6.99976V20.625H15.9998V18.125Z" fill="black"/>
<path d="M1.37488 14.625C0.960665 14.625 0.624878 14.2892 0.624878 13.875C0.624878 13.4608 0.960665 13.125 1.37488 13.125L22.3751 13.125C22.7893 13.125 23.1251 13.4608 23.1251 13.875C23.1251 14.2892 22.7893 14.625 22.3751 14.625L1.37488 14.625Z" fill="black"/>
<path fill-rule="evenodd" clip-rule="evenodd" d="M20.4998 3.375C20.4998 2.54657 19.8282 1.875 18.9998 1.875H3.99982C3.17139 1.875 2.49982 2.54657 2.49982 3.375V5.875C2.49982 6.70343 3.17139 7.375 3.99982 7.375H18.9998C19.8282 7.375 20.4998 6.70343 20.4998 5.875V3.375ZM18.9998 3.375H3.99982V5.875H18.9998V3.375Z" fill="black"/>
<path d="M0.624878 10.375C0.624878 10.7892 0.960665 11.125 1.37488 11.125L22.3751 11.125C22.7893 11.125 23.1251 10.7892 23.1251 10.375C23.1251 9.96079 22.7893 9.625 22.3751 9.625L1.37488 9.625C0.960665 9.625 0.624878 9.96079 0.624878 10.375Z" fill="black"/>
</svg>
