<svg width="24" height="24" viewBox="0 0 24 24" fill="none" xmlns="http://www.w3.org/2000/svg">
<path d="M1.25 10.5C1.25 10.6381 1.36193 10.75 1.5 10.75L22.5002 10.75C22.6383 10.75 22.7502 10.6381 22.7502 10.5C22.7502 10.3619 22.6383 10.25 22.5002 10.25L1.5 10.25C1.36193 10.25 1.25 10.3619 1.25 10.5Z" fill="black"/>
<path d="M1.5 13.75C1.36193 13.75 1.25 13.6381 1.25 13.5C1.25 13.3619 1.36193 13.25 1.5 13.25L22.5002 13.25C22.6383 13.25 22.7502 13.3619 22.7502 13.5C22.7502 13.6381 22.6383 13.75 22.5002 13.75L1.5 13.75Z" fill="black"/>
<path fill-rule="evenodd" clip-rule="evenodd" d="M18 17.5C18 16.6716 17.3284 16 16.5 16H7.5C6.67157 16 6 16.6716 6 17.5V19.5C6 20.3284 6.67157 21 7.5 21H16.5C17.3284 21 18 20.3284 18 19.5V17.5ZM16.5 16.5H7.5C6.94772 16.5 6.5 16.9477 6.5 17.5V19.5C6.5 20.0523 6.94772 20.5 7.5 20.5H16.5C17.0523 20.5 17.5 20.0523 17.5 19.5V17.5C17.5 16.9477 17.0523 16.5 16.5 16.5Z" fill="black"/>
<path fill-rule="evenodd" clip-rule="evenodd" d="M21 4.5C21 3.67157 20.3284 3 19.5 3H4.5C3.67157 3 3 3.67157 3 4.5V6.5C3 7.32843 3.67157 8 4.5 8H19.5C20.3284 8 21 7.32843 21 6.5V4.5ZM19.5 3.5H4.5C3.94772 3.5 3.5 3.94772 3.5 4.5V6.5C3.5 7.05228 3.94772 7.5 4.5 7.5H19.5C20.0523 7.5 20.5 7.05228 20.5 6.5V4.5C20.5 3.94772 20.0523 3.5 19.5 3.5Z" fill="black"/>
</svg>
