<svg width="24" height="24" viewBox="0 0 24 24" fill="none" xmlns="http://www.w3.org/2000/svg">
<path fill-rule="evenodd" clip-rule="evenodd" d="M18.5 6.37531C17.6716 6.37531 17 7.04688 17 7.87531V16.8753C17 17.7037 17.6716 18.3753 18.5 18.3753H22.5C23.3284 18.3753 24 17.7037 24 16.8753V7.87531C24 7.04688 23.3284 6.37531 22.5 6.37531H18.5ZM21.5 8.87531H19.5V15.8753H21.5V8.87531Z" fill="black"/>
<path d="M15.25 22.5002C15.25 23.1905 14.6904 23.7502 14 23.7502C13.3096 23.7502 12.75 23.1905 12.75 22.5002L12.75 1.5C12.75 0.809645 13.3096 0.25 14 0.25C14.6904 0.25 15.25 0.809645 15.25 1.5L15.25 22.5002Z" fill="black"/>
<path fill-rule="evenodd" clip-rule="evenodd" d="M1.5 3.37524C0.671574 3.37524 0 4.04682 0 4.87524V19.8752C0 20.7037 0.671574 21.3752 1.5 21.3752H5.5C6.32843 21.3752 7 20.7037 7 19.8752V4.87524C7 4.04682 6.32843 3.37524 5.5 3.37524H1.5ZM4.5 5.87524H2.5V18.8752H4.5V5.87524Z" fill="black"/>
<path d="M10 23.7502C10.6904 23.7502 11.25 23.1905 11.25 22.5002L11.25 1.5C11.25 0.809645 10.6904 0.25 10 0.25C9.30964 0.25 8.75 0.809645 8.75 1.5L8.75 22.5002C8.75 23.1905 9.30964 23.7502 10 23.7502Z" fill="black"/>
</svg>
