<svg width="24" height="24" viewBox="0 0 24 24" fill="none" xmlns="http://www.w3.org/2000/svg">
<path d="M1 10.5C1 10.7761 1.22386 11 1.5 11L22.5002 11C22.7763 11 23.0002 10.7761 23.0002 10.5C23.0002 10.2239 22.7763 10 22.5002 10L1.5 10C1.22386 10 1 10.2239 1 10.5Z" fill="black"/>
<path d="M1.5 14C1.22386 14 1 13.7761 1 13.5C1 13.2239 1.22386 13 1.5 13L22.5002 13C22.7763 13 23.0002 13.2239 23.0002 13.5C23.0002 13.7761 22.7763 14 22.5002 14L1.5 14Z" fill="black"/>
<path d="M16.5 16C17.3284 16 18 16.6716 18 17.5V19.5C18 20.3284 17.3284 21 16.5 21H7.5C6.67157 21 6 20.3284 6 19.5V17.5C6 16.6716 6.67157 16 7.5 16H16.5Z" fill="black"/>
<path d="M19.5 3C20.3284 3 21 3.67157 21 4.5V6.5C21 7.32843 20.3284 8 19.5 8H4.5C3.67157 8 3 7.32843 3 6.5V4.5C3 3.67157 3.67157 3 4.5 3H19.5Z" fill="black"/>
</svg>
