<svg width="24" height="24" viewBox="0 0 24 24" fill="none" xmlns="http://www.w3.org/2000/svg">
<path d="M16.1249 17C16.9533 17 17.6249 17.6716 17.6249 18.5V20.5C17.6249 21.3284 16.9533 22 16.1249 22H7.12488C6.29645 22 5.62488 21.3284 5.62488 20.5V18.5C5.62488 17.6716 6.29645 17 7.12488 17H16.1249Z" fill="black"/>
<path d="M1.5 15.25C0.809645 15.25 0.25 14.6904 0.25 14C0.25 13.3096 0.809645 12.75 1.5 12.75L22.5002 12.75C23.1905 12.75 23.7502 13.3096 23.7502 14C23.7502 14.6904 23.1905 15.25 22.5002 15.25L1.5 15.25Z" fill="black"/>
<path d="M19.1249 2C19.9534 2 20.6249 2.67157 20.6249 3.5V5.5C20.6249 6.32843 19.9534 7 19.1249 7H4.12494C3.29651 7 2.62494 6.32843 2.62494 5.5V3.5C2.62494 2.67157 3.29651 2 4.12494 2H19.1249Z" fill="black"/>
<path d="M0.25 10C0.25 10.6904 0.809645 11.25 1.5 11.25L22.5002 11.25C23.1905 11.25 23.7502 10.6904 23.7502 10C23.7502 9.30964 23.1905 8.75 22.5002 8.75L1.5 8.75C0.809645 8.75 0.25 9.30964 0.25 10Z" fill="black"/>
</svg>
