<svg width="24" height="24" viewBox="0 0 24 24" fill="none" xmlns="http://www.w3.org/2000/svg">
<path d="M10.5 22.9999C10.7761 22.9999 11 22.7761 11 22.4999L11 1.49976C11 1.22361 10.7761 0.999756 10.5 0.999756C10.2239 0.999756 10 1.22361 10 1.49976L10 22.4999C10 22.7761 10.2239 22.9999 10.5 22.9999Z" fill="black"/>
<path d="M14 22.4999C14 22.7761 13.7761 22.9999 13.5 22.9999C13.2239 22.9999 13 22.7761 13 22.4999L13 1.49976C13 1.22361 13.2239 0.999756 13.5 0.999756C13.7761 0.999756 14 1.22361 14 1.49976L14 22.4999Z" fill="black"/>
<path d="M16 7.49994C16 6.67151 16.6716 5.99994 17.5 5.99994H19.5C20.3284 5.99994 21 6.67151 21 7.49994V16.4999C21 17.3284 20.3284 17.9999 19.5 17.9999H17.5C16.6716 17.9999 16 17.3284 16 16.4999V7.49994Z" fill="black"/>
<path d="M3 4.49994C3 3.67151 3.67157 2.99994 4.5 2.99994H6.5C7.32843 2.99994 8 3.67151 8 4.49994V19.4999C8 20.3284 7.32843 20.9999 6.5 20.9999H4.5C3.67157 20.9999 3 20.3284 3 19.4999V4.49994Z" fill="black"/>
</svg>
