<svg width="24" height="24" viewBox="0 0 24 24" fill="none" xmlns="http://www.w3.org/2000/svg">
<path fill-rule="evenodd" clip-rule="evenodd" d="M18.5 6.37531C17.6716 6.37531 17 7.04688 17 7.87531V16.8753C17 17.7037 17.6716 18.3753 18.5 18.3753H21.5C22.3284 18.3753 23 17.7037 23 16.8753V7.87531C23 7.04688 22.3284 6.37531 21.5 6.37531H18.5ZM21 8.37531H19V16.3753H21V8.37531Z" fill="black"/>
<path d="M15 22.5002C15 23.0525 14.5523 23.5002 14 23.5002C13.4477 23.5002 13 23.0525 13 22.5002L13 1.5C13 0.947716 13.4477 0.5 14 0.5C14.5523 0.5 15 0.947716 15 1.5L15 22.5002Z" fill="black"/>
<path fill-rule="evenodd" clip-rule="evenodd" d="M2.5 3.37524C1.67157 3.37524 1 4.04682 1 4.87524V19.8752C1 20.7037 1.67157 21.3752 2.5 21.3752H5.5C6.32843 21.3752 7 20.7037 7 19.8752V4.87524C7 4.04682 6.32843 3.37524 5.5 3.37524H2.5ZM5 5.37524H3V19.3752H5V5.37524Z" fill="black"/>
<path d="M10 23.5002C10.5523 23.5002 11 23.0525 11 22.5002L11 1.5C11 0.947716 10.5523 0.5 10 0.5C9.44771 0.5 9 0.947716 9 1.5L9 22.5002C9 23.0525 9.44771 23.5002 10 23.5002Z" fill="black"/>
</svg>
