<svg width="24" height="24" viewBox="0 0 24 24" fill="none" xmlns="http://www.w3.org/2000/svg">
<path d="M15.8749 16.75C16.7033 16.75 17.3749 17.4216 17.3749 18.25V20.25C17.3749 21.0784 16.7033 21.75 15.8749 21.75L6.87488 21.75C6.04645 21.75 5.37488 21.0784 5.37488 20.25L5.37488 18.25C5.37488 17.4216 6.04645 16.75 6.87488 16.75L15.8749 16.75Z" fill="black"/>
<path d="M1.25 14.75C0.835787 14.75 0.5 14.4142 0.5 14C0.5 13.5858 0.835787 13.25 1.25 13.25L22.2502 13.25C22.6644 13.25 23.0002 13.5858 23.0002 14C23.0002 14.4142 22.6644 14.75 22.2502 14.75L1.25 14.75Z" fill="black"/>
<path d="M18.8749 2.25C19.7034 2.25 20.3749 2.92157 20.3749 3.75V5.75C20.3749 6.57843 19.7034 7.25 18.8749 7.25L3.87494 7.25C3.04651 7.25 2.37494 6.57843 2.37494 5.75L2.37494 3.75C2.37494 2.92158 3.04651 2.25 3.87494 2.25L18.8749 2.25Z" fill="black"/>
<path d="M0.5 10.5C0.5 10.9142 0.835787 11.25 1.25 11.25L22.2502 11.25C22.6644 11.25 23.0002 10.9142 23.0002 10.5C23.0002 10.0858 22.6644 9.75 22.2502 9.75L1.25 9.75C0.835787 9.75 0.5 10.0858 0.5 10.5Z" fill="black"/>
</svg>
