<svg width="24" height="24" viewBox="0 0 24 24" fill="none" xmlns="http://www.w3.org/2000/svg">
<path fill-rule="evenodd" clip-rule="evenodd" d="M18.5 6.37506C17.6716 6.37506 17 7.04663 17 7.87506V16.8751C17 17.7035 17.6716 18.3751 18.5 18.3751H21.5C22.3284 18.3751 23 17.7035 23 16.8751V7.87506C23 7.04663 22.3284 6.37506 21.5 6.37506H18.5ZM21 8.37506H19V16.3751H21V8.37506Z" fill="black"/>
<path d="M15 22.4999C15 23.0522 14.5523 23.4999 14 23.4999C13.4477 23.4999 13 23.0522 13 22.4999L13 1.49976C13 0.947472 13.4477 0.499756 14 0.499756C14.5523 0.499756 15 0.947472 15 1.49976L15 22.4999Z" fill="black"/>
<path fill-rule="evenodd" clip-rule="evenodd" d="M2.5 3.375C1.67157 3.375 1 4.04657 1 4.875V19.875C1 20.7034 1.67157 21.375 2.5 21.375H5.5C6.32843 21.375 7 20.7034 7 19.875V4.875C7 4.04657 6.32843 3.375 5.5 3.375H2.5ZM5 5.375H3V19.375H5V5.375Z" fill="black"/>
<path d="M10 23.4999C10.5523 23.4999 11 23.0522 11 22.4999L11 1.49976C11 0.947472 10.5523 0.499756 10 0.499756C9.44771 0.499756 9 0.947472 9 1.49976L9 22.4999C9 23.0522 9.44771 23.4999 10 23.4999Z" fill="black"/>
</svg>
