<svg width="24" height="24" viewBox="0 0 24 24" fill="none" xmlns="http://www.w3.org/2000/svg">
<path fill-rule="evenodd" clip-rule="evenodd" d="M17.6249 18.5C17.6249 17.6716 16.9533 17 16.1249 17H7.12488C6.29645 17 5.62488 17.6716 5.62488 18.5V21.5C5.62488 22.3284 6.29645 23 7.12488 23H16.1249C16.9533 23 17.6249 22.3284 17.6249 21.5V18.5ZM15.6249 21V19H7.62488V21H15.6249Z" fill="black"/>
<path d="M1.5 15C0.947716 15 0.5 14.5523 0.5 14C0.5 13.4477 0.947716 13 1.5 13L22.5002 13C23.0525 13 23.5002 13.4477 23.5002 14C23.5002 14.5523 23.0525 15 22.5002 15L1.5 15Z" fill="black"/>
<path fill-rule="evenodd" clip-rule="evenodd" d="M20.6249 2.5C20.6249 1.67157 19.9534 1 19.1249 1H4.12494C3.29651 1 2.62494 1.67157 2.62494 2.5V5.5C2.62494 6.32843 3.29651 7 4.12494 7H19.1249C19.9534 7 20.6249 6.32843 20.6249 5.5V2.5ZM18.6249 5V3H4.62494V5H18.6249Z" fill="black"/>
<path d="M0.5 10C0.5 10.5523 0.947716 11 1.5 11L22.5002 11C23.0525 11 23.5002 10.5523 23.5002 10C23.5002 9.44771 23.0525 9 22.5002 9L1.5 9C0.947716 9 0.5 9.44771 0.5 10Z" fill="black"/>
</svg>
