<svg width="24" height="24" viewBox="0 0 24 24" fill="none" xmlns="http://www.w3.org/2000/svg">
<path fill-rule="evenodd" clip-rule="evenodd" d="M18.5 6.37506C17.6716 6.37506 17 7.04663 17 7.87506V16.8751C17 17.7035 17.6716 18.3751 18.5 18.3751H22.5C23.3284 18.3751 24 17.7035 24 16.8751V7.87506C24 7.04663 23.3284 6.37506 22.5 6.37506H18.5ZM21.5 8.87506H19.5V15.8751H21.5V8.87506Z" fill="black"/>
<path d="M15.25 22.4999C15.25 23.1903 14.6904 23.7499 14 23.7499C13.3096 23.7499 12.75 23.1903 12.75 22.4999L12.75 1.49976C12.75 0.809401 13.3096 0.249756 14 0.249756C14.6904 0.249756 15.25 0.8094 15.25 1.49976L15.25 22.4999Z" fill="black"/>
<path fill-rule="evenodd" clip-rule="evenodd" d="M1.5 3.375C0.671574 3.375 0 4.04657 0 4.875V19.875C0 20.7034 0.671574 21.375 1.5 21.375H5.5C6.32843 21.375 7 20.7034 7 19.875V4.875C7 4.04657 6.32843 3.375 5.5 3.375H1.5ZM4.5 5.875H2.5V18.875H4.5V5.875Z" fill="black"/>
<path d="M10 23.7499C10.6904 23.7499 11.25 23.1903 11.25 22.4999L11.25 1.49976C11.25 0.8094 10.6904 0.249756 10 0.249756C9.30964 0.249756 8.75 0.809401 8.75 1.49976L8.75 22.4999C8.75 23.1903 9.30964 23.7499 10 23.7499Z" fill="black"/>
</svg>
