<svg width="24" height="24" viewBox="0 0 24 24" fill="none" xmlns="http://www.w3.org/2000/svg">
<path d="M16.5 7.87531C16.5 7.04688 17.1716 6.37531 18 6.37531H20C20.8284 6.37531 21.5 7.04688 21.5 7.87531V16.8753C21.5 17.7037 20.8284 18.3753 20 18.3753H18C17.1716 18.3753 16.5 17.7037 16.5 16.8753V7.87531Z" fill="black"/>
<path d="M14.5 22.5002C14.5 22.9144 14.1642 23.2502 13.75 23.2502C13.3358 23.2502 13 22.9144 13 22.5002L13 1.5C13 1.08579 13.3358 0.75 13.75 0.75C14.1642 0.75 14.5 1.08579 14.5 1.5L14.5 22.5002Z" fill="black"/>
<path d="M2 4.87524C2 4.04682 2.67157 3.37524 3.5 3.37524H5.5C6.32843 3.37524 7 4.04682 7 4.87524V19.8752C7 20.7037 6.32843 21.3752 5.5 21.3752H3.5C2.67157 21.3752 2 20.7037 2 19.8752V4.87524Z" fill="black"/>
<path d="M10.25 23.2502C10.6642 23.2502 11 22.9144 11 22.5002L11 1.5C11 1.08579 10.6642 0.75 10.25 0.75C9.83579 0.75 9.5 1.08579 9.5 1.5L9.5 22.5002C9.5 22.9144 9.83579 23.2502 10.25 23.2502Z" fill="black"/>
</svg>
