<svg width="24" height="24" viewBox="0 0 24 24" fill="none" xmlns="http://www.w3.org/2000/svg">
<path d="M10.5 22.7502C10.6381 22.7502 10.75 22.6383 10.75 22.5002L10.75 1.5C10.75 1.36193 10.6381 1.25 10.5 1.25C10.3619 1.25 10.25 1.36193 10.25 1.5L10.25 22.5002C10.25 22.6383 10.3619 22.7502 10.5 22.7502Z" fill="black"/>
<path d="M13.75 22.5002C13.75 22.6383 13.6381 22.7502 13.5 22.7502C13.3619 22.7502 13.25 22.6383 13.25 22.5002L13.25 1.5C13.25 1.36193 13.3619 1.25 13.5 1.25C13.6381 1.25 13.75 1.36193 13.75 1.5L13.75 22.5002Z" fill="black"/>
<path d="M16 7.50018C16 6.67176 16.6716 6.00018 17.5 6.00018H19.5C20.3284 6.00018 21 6.67176 21 7.50018V16.5002C21 17.3286 20.3284 18.0002 19.5 18.0002H17.5C16.6716 18.0002 16 17.3286 16 16.5002V7.50018Z" fill="black"/>
<path d="M3 4.50018C3 3.67176 3.67157 3.00018 4.5 3.00018H6.5C7.32843 3.00018 8 3.67176 8 4.50018V19.5002C8 20.3286 7.32843 21.0002 6.5 21.0002H4.5C3.67157 21.0002 3 20.3286 3 19.5002V4.50018Z" fill="black"/>
</svg>
