<svg width="24" height="24" viewBox="0 0 24 24" fill="none" xmlns="http://www.w3.org/2000/svg">
<path d="M0.999878 10.5C0.999878 10.7761 1.22374 11 1.49988 11L22.5001 11C22.7762 11 23.0001 10.7761 23.0001 10.5C23.0001 10.2239 22.7762 10 22.5001 10L1.49988 10C1.22374 10 0.999878 10.2239 0.999878 10.5Z" fill="black"/>
<path d="M1.49988 14C1.22374 14 0.999878 13.7761 0.999878 13.5C0.999878 13.2239 1.22374 13 1.49988 13L22.5001 13C22.7762 13 23.0001 13.2239 23.0001 13.5C23.0001 13.7761 22.7762 14 22.5001 14L1.49988 14Z" fill="black"/>
<path d="M16.4999 16C17.3283 16 17.9999 16.6716 17.9999 17.5V19.5C17.9999 20.3284 17.3283 21 16.4999 21H7.49988C6.67145 21 5.99988 20.3284 5.99988 19.5V17.5C5.99988 16.6716 6.67145 16 7.49988 16H16.4999Z" fill="black"/>
<path d="M19.4999 3C20.3283 3 20.9999 3.67157 20.9999 4.5V6.5C20.9999 7.32843 20.3283 8 19.4999 8H4.49988C3.67145 8 2.99988 7.32843 2.99988 6.5V4.5C2.99988 3.67157 3.67145 3 4.49988 3H19.4999Z" fill="black"/>
</svg>
