<svg width="24" height="24" viewBox="0 0 24 24" fill="none" xmlns="http://www.w3.org/2000/svg">
<path fill-rule="evenodd" clip-rule="evenodd" d="M17.4999 18.125C17.4999 17.2966 16.8283 16.625 15.9999 16.625H6.99988C6.17145 16.625 5.49988 17.2966 5.49988 18.125V20.625C5.49988 21.4534 6.17145 22.125 6.99988 22.125H15.9999C16.8283 22.125 17.4999 21.4534 17.4999 20.625V18.125ZM15.9999 18.125H6.99988V20.625H15.9999V18.125Z" fill="black"/>
<path d="M1.375 14.625C0.960787 14.625 0.625 14.2892 0.625 13.875C0.625 13.4608 0.960787 13.125 1.375 13.125L22.3752 13.125C22.7894 13.125 23.1252 13.4608 23.1252 13.875C23.1252 14.2892 22.7894 14.625 22.3752 14.625L1.375 14.625Z" fill="black"/>
<path fill-rule="evenodd" clip-rule="evenodd" d="M20.4999 3.375C20.4999 2.54657 19.8284 1.875 18.9999 1.875H3.99994C3.17151 1.875 2.49994 2.54657 2.49994 3.375V5.875C2.49994 6.70343 3.17151 7.375 3.99994 7.375H18.9999C19.8284 7.375 20.4999 6.70343 20.4999 5.875V3.375ZM18.9999 3.375H3.99994V5.875H18.9999V3.375Z" fill="black"/>
<path d="M0.625 10.375C0.625 10.7892 0.960787 11.125 1.375 11.125L22.3752 11.125C22.7894 11.125 23.1252 10.7892 23.1252 10.375C23.1252 9.96079 22.7894 9.625 22.3752 9.625L1.375 9.625C0.960787 9.625 0.625 9.96079 0.625 10.375Z" fill="black"/>
</svg>
