<svg width="24" height="24" viewBox="0 0 24 24" fill="none" xmlns="http://www.w3.org/2000/svg">
<path d="M17 7.87506C17 7.04663 17.6716 6.37506 18.5 6.37506H20.5C21.3284 6.37506 22 7.04663 22 7.87506V16.8751C22 17.7035 21.3284 18.3751 20.5 18.3751H18.5C17.6716 18.3751 17 17.7035 17 16.8751V7.87506Z" fill="black"/>
<path d="M15 22.4999C15 23.0522 14.5523 23.4999 14 23.4999C13.4477 23.4999 13 23.0522 13 22.4999L13 1.49976C13 0.947472 13.4477 0.499756 14 0.499756C14.5523 0.499756 15 0.947472 15 1.49976L15 22.4999Z" fill="black"/>
<path d="M2 4.875C2 4.04657 2.67157 3.375 3.5 3.375H5.5C6.32843 3.375 7 4.04657 7 4.875V19.875C7 20.7034 6.32843 21.375 5.5 21.375H3.5C2.67157 21.375 2 20.7034 2 19.875V4.875Z" fill="black"/>
<path d="M10 23.4999C10.5523 23.4999 11 23.0522 11 22.4999L11 1.49976C11 0.947472 10.5523 0.499756 10 0.499756C9.44771 0.499756 9 0.947472 9 1.49976L9 22.4999C9 23.0522 9.44771 23.4999 10 23.4999Z" fill="black"/>
</svg>
