<svg width="24" height="24" viewBox="0 0 24 24" fill="none" xmlns="http://www.w3.org/2000/svg">
<path d="M16.1248 17C16.9532 17 17.6248 17.6716 17.6248 18.5V20.5C17.6248 21.3284 16.9532 22 16.1248 22H7.12476C6.29633 22 5.62476 21.3284 5.62476 20.5V18.5C5.62476 17.6716 6.29633 17 7.12476 17H16.1248Z" fill="black"/>
<path d="M1.49988 15C0.947594 15 0.499878 14.5523 0.499878 14C0.499878 13.4477 0.947594 13 1.49988 13L22.5001 13C23.0523 13 23.5001 13.4477 23.5001 14C23.5001 14.5523 23.0523 15 22.5001 15L1.49988 15Z" fill="black"/>
<path d="M19.1248 2C19.9532 2 20.6248 2.67157 20.6248 3.5V5.5C20.6248 6.32843 19.9532 7 19.1248 7H4.12482C3.29639 7 2.62482 6.32843 2.62482 5.5V3.5C2.62482 2.67157 3.29639 2 4.12482 2H19.1248Z" fill="black"/>
<path d="M0.499878 10C0.499878 10.5523 0.947594 11 1.49988 11L22.5001 11C23.0523 11 23.5001 10.5523 23.5001 10C23.5001 9.44771 23.0523 9 22.5001 9L1.49988 9C0.947594 9 0.499878 9.44771 0.499878 10Z" fill="black"/>
</svg>
