<svg width="24" height="24" viewBox="0 0 24 24" fill="none" xmlns="http://www.w3.org/2000/svg">
<path fill-rule="evenodd" clip-rule="evenodd" d="M17.6248 18.5C17.6248 17.6716 16.9532 17 16.1248 17H7.12476C6.29633 17 5.62476 17.6716 5.62476 18.5V21.5C5.62476 22.3284 6.29633 23 7.12476 23H16.1248C16.9532 23 17.6248 22.3284 17.6248 21.5V18.5ZM15.6248 21V19H7.62476V21H15.6248Z" fill="black"/>
<path d="M1.49988 15C0.947594 15 0.499878 14.5523 0.499878 14C0.499878 13.4477 0.947594 13 1.49988 13L22.5001 13C23.0523 13 23.5001 13.4477 23.5001 14C23.5001 14.5523 23.0523 15 22.5001 15L1.49988 15Z" fill="black"/>
<path fill-rule="evenodd" clip-rule="evenodd" d="M20.6248 2.5C20.6248 1.67157 19.9532 1 19.1248 1H4.12482C3.29639 1 2.62482 1.67157 2.62482 2.5V5.5C2.62482 6.32843 3.29639 7 4.12482 7H19.1248C19.9532 7 20.6248 6.32843 20.6248 5.5V2.5ZM18.6248 5V3H4.62482V5H18.6248Z" fill="black"/>
<path d="M0.499878 10C0.499878 10.5523 0.947594 11 1.49988 11L22.5001 11C23.0523 11 23.5001 10.5523 23.5001 10C23.5001 9.44771 23.0523 9 22.5001 9L1.49988 9C0.947594 9 0.499878 9.44771 0.499878 10Z" fill="black"/>
</svg>
