<svg width="24" height="24" viewBox="0 0 24 24" fill="none" xmlns="http://www.w3.org/2000/svg">
<path d="M15.8748 16.75C16.7032 16.75 17.3748 17.4216 17.3748 18.25V20.25C17.3748 21.0784 16.7032 21.75 15.8748 21.75L6.87476 21.75C6.04633 21.75 5.37476 21.0784 5.37476 20.25L5.37476 18.25C5.37476 17.4216 6.04633 16.75 6.87476 16.75L15.8748 16.75Z" fill="black"/>
<path d="M1.24988 14.75C0.835665 14.75 0.499878 14.4142 0.499878 14C0.499878 13.5858 0.835665 13.25 1.24988 13.25L22.2501 13.25C22.6643 13.25 23.0001 13.5858 23.0001 14C23.0001 14.4142 22.6643 14.75 22.2501 14.75L1.24988 14.75Z" fill="black"/>
<path d="M18.8748 2.25C19.7032 2.25 20.3748 2.92157 20.3748 3.75V5.75C20.3748 6.57843 19.7032 7.25 18.8748 7.25L3.87482 7.25C3.04639 7.25 2.37482 6.57843 2.37482 5.75L2.37482 3.75C2.37482 2.92158 3.04639 2.25 3.87482 2.25L18.8748 2.25Z" fill="black"/>
<path d="M0.499878 10.5C0.499878 10.9142 0.835665 11.25 1.24988 11.25L22.2501 11.25C22.6643 11.25 23.0001 10.9142 23.0001 10.5C23.0001 10.0858 22.6643 9.75 22.2501 9.75L1.24988 9.75C0.835665 9.75 0.499878 10.0858 0.499878 10.5Z" fill="black"/>
</svg>
