<svg width="24" height="24" viewBox="0 0 24 24" fill="none" xmlns="http://www.w3.org/2000/svg">
<path fill-rule="evenodd" clip-rule="evenodd" d="M18 6.37531C17.1716 6.37531 16.5 7.04688 16.5 7.87531V16.8753C16.5 17.7037 17.1716 18.3753 18 18.3753H20.5C21.3284 18.3753 22 17.7037 22 16.8753V7.87531C22 7.04688 21.3284 6.37531 20.5 6.37531H18ZM18 7.87531V16.8753H20.5V7.87531H18Z" fill="black"/>
<path d="M14.5 22.5002C14.5 22.9144 14.1642 23.2502 13.75 23.2502C13.3358 23.2502 13 22.9144 13 22.5002L13 1.5C13 1.08579 13.3358 0.75 13.75 0.75C14.1642 0.75 14.5 1.08579 14.5 1.5L14.5 22.5002Z" fill="black"/>
<path fill-rule="evenodd" clip-rule="evenodd" d="M3.25 3.37524C2.42157 3.37524 1.75 4.04682 1.75 4.87524V19.8752C1.75 20.7037 2.42157 21.3752 3.25 21.3752H5.75C6.57843 21.3752 7.25 20.7037 7.25 19.8752V4.87524C7.25 4.04682 6.57843 3.37524 5.75 3.37524H3.25ZM3.25 4.87524V19.8752H5.75V4.87524L3.25 4.87524Z" fill="black"/>
<path d="M10.25 23.2502C10.6642 23.2502 11 22.9144 11 22.5002L11 1.5C11 1.08579 10.6642 0.75 10.25 0.75C9.83579 0.75 9.5 1.08579 9.5 1.5L9.5 22.5002C9.5 22.9144 9.83579 23.2502 10.25 23.2502Z" fill="black"/>
</svg>
