<svg width="24" height="24" viewBox="0 0 24 24" fill="none" xmlns="http://www.w3.org/2000/svg">
<path d="M16.5 7.87506C16.5 7.04663 17.1716 6.37506 18 6.37506H20C20.8284 6.37506 21.5 7.04663 21.5 7.87506V16.8751C21.5 17.7035 20.8284 18.3751 20 18.3751H18C17.1716 18.3751 16.5 17.7035 16.5 16.8751V7.87506Z" fill="black"/>
<path d="M14.5 22.4999C14.5 22.9142 14.1642 23.2499 13.75 23.2499C13.3358 23.2499 13 22.9142 13 22.4999L13 1.49976C13 1.08554 13.3358 0.749756 13.75 0.749756C14.1642 0.749756 14.5 1.08554 14.5 1.49976L14.5 22.4999Z" fill="black"/>
<path d="M2 4.875C2 4.04657 2.67157 3.375 3.5 3.375H5.5C6.32843 3.375 7 4.04657 7 4.875V19.875C7 20.7034 6.32843 21.375 5.5 21.375H3.5C2.67157 21.375 2 20.7034 2 19.875V4.875Z" fill="black"/>
<path d="M10.25 23.2499C10.6642 23.2499 11 22.9142 11 22.4999L11 1.49976C11 1.08554 10.6642 0.749756 10.25 0.749756C9.83579 0.749756 9.5 1.08554 9.5 1.49976L9.5 22.4999C9.5 22.9142 9.83579 23.2499 10.25 23.2499Z" fill="black"/>
</svg>
