<svg width="24" height="24" viewBox="0 0 24 24" fill="none" xmlns="http://www.w3.org/2000/svg">
<path d="M1.24988 10.5C1.24988 10.6381 1.36181 10.75 1.49988 10.75L22.5001 10.75C22.6381 10.75 22.7501 10.6381 22.7501 10.5C22.7501 10.3619 22.6381 10.25 22.5001 10.25L1.49988 10.25C1.36181 10.25 1.24988 10.3619 1.24988 10.5Z" fill="black"/>
<path d="M1.49988 13.75C1.36181 13.75 1.24988 13.6381 1.24988 13.5C1.24988 13.3619 1.36181 13.25 1.49988 13.25L22.5001 13.25C22.6381 13.25 22.7501 13.3619 22.7501 13.5C22.7501 13.6381 22.6381 13.75 22.5001 13.75L1.49988 13.75Z" fill="black"/>
<path fill-rule="evenodd" clip-rule="evenodd" d="M17.9999 17.5C17.9999 16.6716 17.3283 16 16.4999 16H7.49988C6.67145 16 5.99988 16.6716 5.99988 17.5V19.5C5.99988 20.3284 6.67145 21 7.49988 21H16.4999C17.3283 21 17.9999 20.3284 17.9999 19.5V17.5ZM16.4999 16.5H7.49988C6.94759 16.5 6.49988 16.9477 6.49988 17.5V19.5C6.49988 20.0523 6.94759 20.5 7.49988 20.5H16.4999C17.0522 20.5 17.4999 20.0523 17.4999 19.5V17.5C17.4999 16.9477 17.0522 16.5 16.4999 16.5Z" fill="black"/>
<path fill-rule="evenodd" clip-rule="evenodd" d="M20.9999 4.5C20.9999 3.67157 20.3283 3 19.4999 3H4.49988C3.67145 3 2.99988 3.67157 2.99988 4.5V6.5C2.99988 7.32843 3.67145 8 4.49988 8H19.4999C20.3283 8 20.9999 7.32843 20.9999 6.5V4.5ZM19.4999 3.5H4.49988C3.94759 3.5 3.49988 3.94772 3.49988 4.5V6.5C3.49988 7.05228 3.94759 7.5 4.49988 7.5H19.4999C20.0522 7.5 20.4999 7.05228 20.4999 6.5V4.5C20.4999 3.94772 20.0522 3.5 19.4999 3.5Z" fill="black"/>
</svg>
