<svg width="24" height="24" viewBox="0 0 24 24" fill="none" xmlns="http://www.w3.org/2000/svg">
<path d="M17 7.87531C17 7.04688 17.6716 6.37531 18.5 6.37531H20.5C21.3284 6.37531 22 7.04688 22 7.87531V16.8753C22 17.7037 21.3284 18.3753 20.5 18.3753H18.5C17.6716 18.3753 17 17.7037 17 16.8753V7.87531Z" fill="black"/>
<path d="M15 22.5002C15 23.0525 14.5523 23.5002 14 23.5002C13.4477 23.5002 13 23.0525 13 22.5002L13 1.5C13 0.947716 13.4477 0.5 14 0.5C14.5523 0.5 15 0.947716 15 1.5L15 22.5002Z" fill="black"/>
<path d="M2 4.87524C2 4.04682 2.67157 3.37524 3.5 3.37524H5.5C6.32843 3.37524 7 4.04682 7 4.87524V19.8752C7 20.7037 6.32843 21.3752 5.5 21.3752H3.5C2.67157 21.3752 2 20.7037 2 19.8752V4.87524Z" fill="black"/>
<path d="M10 23.5002C10.5523 23.5002 11 23.0525 11 22.5002L11 1.5C11 0.947716 10.5523 0.5 10 0.5C9.44771 0.5 9 0.947716 9 1.5L9 22.5002C9 23.0525 9.44771 23.5002 10 23.5002Z" fill="black"/>
</svg>
