<svg width="24" height="24" viewBox="0 0 24 24" fill="none" xmlns="http://www.w3.org/2000/svg">
<path d="M10.75 22C10.75 22.6904 11.3096 23.25 12 23.25C12.6904 23.25 13.25 22.6904 13.25 22L13.25 2C13.25 1.30964 12.6904 0.75 12 0.75C11.3096 0.75 10.75 1.30964 10.75 2L10.75 22Z" fill="black"/>
<path d="M7 18.09C6.30964 18.09 5.75 17.5304 5.75 16.84L5.75 6.84C5.75 6.14964 6.30964 5.59 7 5.59C7.69036 5.59 8.25 6.14964 8.25 6.84L8.25 16.84C8.25 17.5304 7.69036 18.09 7 18.09Z" fill="black"/>
<path d="M17 18.09C16.3096 18.09 15.75 17.5304 15.75 16.84V6.84C15.75 6.14964 16.3096 5.59 17 5.59C17.6904 5.59 18.25 6.14964 18.25 6.84V16.84C18.25 17.5304 17.6904 18.09 17 18.09Z" fill="black"/>
<path d="M20.75 13.84C20.75 14.5304 21.3096 15.09 22 15.09C22.6904 15.09 23.25 14.5304 23.25 13.84V10.84C23.25 10.1496 22.6904 9.59 22 9.59C21.3096 9.59 20.75 10.1496 20.75 10.84V13.84Z" fill="black"/>
<path d="M2 15.09C1.30964 15.09 0.75 14.5304 0.75 13.84V10.84C0.75 10.1496 1.30964 9.59 2 9.59C2.69036 9.59 3.25 10.1496 3.25 10.84L3.25 13.84C3.25 14.5304 2.69036 15.09 2 15.09Z" fill="black"/>
</svg>
