<svg width="24" height="24" viewBox="0 0 24 24" fill="none" xmlns="http://www.w3.org/2000/svg">
<path d="M11 22C11 22.5523 11.4477 23 12 23C12.5523 23 13 22.5523 13 22L13 2C13 1.44772 12.5523 1 12 1C11.4477 1 11 1.44772 11 2L11 22Z" fill="black"/>
<path d="M7 17.84C6.44772 17.84 6 17.3923 6 16.84L6 6.84C6 6.28771 6.44771 5.84 7 5.84C7.55228 5.84 8 6.28771 8 6.84L8 16.84C8 17.3923 7.55228 17.84 7 17.84Z" fill="black"/>
<path d="M17 17.84C16.4477 17.84 16 17.3923 16 16.84V6.84C16 6.28771 16.4477 5.84 17 5.84C17.5523 5.84 18 6.28771 18 6.84V16.84C18 17.3923 17.5523 17.84 17 17.84Z" fill="black"/>
<path d="M21 13.84C21 14.3923 21.4477 14.84 22 14.84C22.5523 14.84 23 14.3923 23 13.84V10.84C23 10.2877 22.5523 9.84 22 9.84C21.4477 9.84 21 10.2877 21 10.84V13.84Z" fill="black"/>
<path d="M2 14.84C1.44772 14.84 1 14.3923 1 13.84V10.84C1 10.2877 1.44772 9.84 2 9.84C2.55228 9.84 3 10.2877 3 10.84V13.84C3 14.3923 2.55228 14.84 2 14.84Z" fill="black"/>
</svg>
