<svg width="24" height="24" viewBox="0 0 24 24" fill="none" xmlns="http://www.w3.org/2000/svg">
<path d="M11.75 22C11.75 22.1381 11.8619 22.25 12 22.25C12.1381 22.25 12.25 22.1381 12.25 22L12.25 2C12.25 1.86193 12.1381 1.75 12 1.75C11.8619 1.75 11.75 1.86193 11.75 2L11.75 22Z" fill="black"/>
<path d="M7 17.09C6.86193 17.09 6.75 16.9781 6.75 16.84L6.75 6.84C6.75 6.70193 6.86193 6.59 7 6.59C7.13807 6.59 7.25 6.70193 7.25 6.84L7.25 16.84C7.25 16.9781 7.13807 17.09 7 17.09Z" fill="black"/>
<path d="M17 17.09C16.8619 17.09 16.75 16.9781 16.75 16.84V6.84C16.75 6.70193 16.8619 6.59 17 6.59C17.1381 6.59 17.25 6.70193 17.25 6.84V16.84C17.25 16.9781 17.1381 17.09 17 17.09Z" fill="black"/>
<path d="M21.75 13.84C21.75 13.9781 21.8619 14.09 22 14.09C22.1381 14.09 22.25 13.9781 22.25 13.84V10.84C22.25 10.7019 22.1381 10.59 22 10.59C21.8619 10.59 21.75 10.7019 21.75 10.84V13.84Z" fill="black"/>
<path d="M2 14.09C1.86193 14.09 1.75 13.9781 1.75 13.84V10.84C1.75 10.7019 1.86193 10.59 2 10.59C2.13807 10.59 2.25 10.7019 2.25 10.84L2.25 13.84C2.25 13.9781 2.13807 14.09 2 14.09Z" fill="black"/>
</svg>
