<svg width="24" height="24" viewBox="0 0 24 24" fill="none" xmlns="http://www.w3.org/2000/svg">
<path d="M11.25 22C11.25 22.4142 11.5858 22.75 12 22.75C12.4142 22.75 12.75 22.4142 12.75 22L12.75 2C12.75 1.58579 12.4142 1.25 12 1.25C11.5858 1.25 11.25 1.58579 11.25 2L11.25 22Z" fill="black"/>
<path d="M7 17.59C6.58579 17.59 6.25 17.2542 6.25 16.84L6.25 6.84C6.25 6.42578 6.58579 6.09 7 6.09C7.41421 6.09 7.75 6.42578 7.75 6.84L7.75 16.84C7.75 17.2542 7.41421 17.59 7 17.59Z" fill="black"/>
<path d="M17 17.59C16.5858 17.59 16.25 17.2542 16.25 16.84V6.84C16.25 6.42578 16.5858 6.09 17 6.09C17.4142 6.09 17.75 6.42578 17.75 6.84V16.84C17.75 17.2542 17.4142 17.59 17 17.59Z" fill="black"/>
<path d="M21.25 13.84C21.25 14.2542 21.5858 14.59 22 14.59C22.4142 14.59 22.75 14.2542 22.75 13.84V10.84C22.75 10.4258 22.4142 10.09 22 10.09C21.5858 10.09 21.25 10.4258 21.25 10.84V13.84Z" fill="black"/>
<path d="M2 14.59C1.58579 14.59 1.25 14.2542 1.25 13.84V10.84C1.25 10.4258 1.58579 10.09 2 10.09C2.41421 10.09 2.75 10.4258 2.75 10.84L2.75 13.84C2.75 14.2542 2.41421 14.59 2 14.59Z" fill="black"/>
</svg>
