<svg width="24" height="24" viewBox="0 0 24 24" fill="none" xmlns="http://www.w3.org/2000/svg">
<path d="M5.19832 4.45418C5.19832 4.86839 4.86253 5.20418 4.44832 5.20418H1.61989C1.20568 5.20418 0.869894 4.86839 0.869894 4.45418C0.869894 4.03997 1.20568 3.70418 1.61989 3.70418H2.63766L0.736027 1.80255C0.443134 1.50965 0.443134 1.03478 0.736027 0.741887C1.02892 0.448993 1.50379 0.448993 1.79669 0.741887L3.69832 2.64352V1.62575C3.69832 1.21154 4.03411 0.875753 4.44832 0.875753C4.86253 0.875753 5.19832 1.21154 5.19832 1.62575V4.45418Z" fill="black"/>
<path fill-rule="evenodd" clip-rule="evenodd" d="M13.2501 3.51344C7.8728 3.51344 3.51363 7.87261 3.51363 13.2499C3.51363 18.6272 7.8728 22.9864 13.2501 22.9864C18.6274 22.9864 22.9866 18.6272 22.9866 13.2499C22.9866 7.87261 18.6274 3.51344 13.2501 3.51344ZM9.53055 8.4696C9.23766 8.17671 8.76278 8.1767 8.46989 8.46959C8.17699 8.76249 8.17699 9.23736 8.46988 9.53025L12.0126 13.073C12.0044 13.1308 12.0002 13.1899 12.0002 13.2499C12.0002 13.9403 12.5599 14.4999 13.2502 14.4999C13.9406 14.4999 14.5002 13.9403 14.5002 13.2499C14.5002 12.5596 13.9406 11.9999 13.2502 11.9999C13.1901 11.9999 13.1311 12.0042 13.0733 12.0124L9.53055 8.4696Z" fill="black"/>
</svg>
