<svg width="24" height="24" viewBox="0 0 24 24" fill="none" xmlns="http://www.w3.org/2000/svg">
<path d="M5.19759 4.45418C5.19759 4.86839 4.8618 5.20418 4.44759 5.20418H1.61916C1.20495 5.20418 0.869161 4.86839 0.869161 4.45418C0.869161 4.03997 1.20495 3.70418 1.61916 3.70418H2.63693L0.735295 1.80255C0.442402 1.50965 0.442402 1.03478 0.735295 0.741887C1.02819 0.448993 1.50306 0.448993 1.79596 0.741887L3.69759 2.64352V1.62575C3.69759 1.21154 4.03337 0.875753 4.44759 0.875753C4.8618 0.875753 5.19759 1.21154 5.19759 1.62575V4.45418Z" fill="black"/>
<path fill-rule="evenodd" clip-rule="evenodd" d="M13.2494 3.51344C7.87207 3.51344 3.5129 7.87261 3.5129 13.2499C3.5129 18.6272 7.87207 22.9864 13.2494 22.9864C18.6267 22.9864 22.9859 18.6272 22.9859 13.2499C22.9859 7.87261 18.6267 3.51344 13.2494 3.51344ZM9.52982 8.4696C9.23693 8.17671 8.76205 8.1767 8.46916 8.46959C8.17626 8.76249 8.17626 9.23736 8.46915 9.53025L12.0119 13.073C12.0037 13.1308 11.9995 13.1899 11.9995 13.2499C11.9995 13.9403 12.5591 14.4999 13.2495 14.4999C13.9398 14.4999 14.4995 13.9403 14.4995 13.2499C14.4995 12.5596 13.9398 11.9999 13.2495 11.9999C13.1894 11.9999 13.1303 12.0042 13.0725 12.0124L9.52982 8.4696Z" fill="black"/>
</svg>
