<svg width="24" height="24" viewBox="0 0 24 24" fill="none" xmlns="http://www.w3.org/2000/svg">
<path d="M4.94759 4.45418C4.94759 4.73032 4.72373 4.95418 4.44759 4.95418L1.61916 4.95418C1.34302 4.95418 1.11916 4.73032 1.11916 4.45418C1.11916 4.17804 1.34302 3.95418 1.61916 3.95418H3.24048L0.912072 1.62577C0.716809 1.43051 0.71681 1.11393 0.912072 0.918663C1.10733 0.723401 1.42392 0.723401 1.61918 0.918663L3.94759 3.24707V1.62575C3.94759 1.34961 4.17145 1.12575 4.44759 1.12575C4.72373 1.12575 4.94759 1.34961 4.94759 1.62575V4.45418Z" fill="black"/>
<path d="M9.35304 8.64638C9.15778 8.45111 8.8412 8.45111 8.64593 8.64637C8.45067 8.84163 8.45067 9.15821 8.64593 9.35348L12.2833 12.9909C12.2613 13.0735 12.2495 13.1604 12.2495 13.2499C12.2495 13.8022 12.6972 14.2499 13.2495 14.2499C13.8018 14.2499 14.2495 13.8022 14.2495 13.2499C14.2495 12.6976 13.8018 12.2499 13.2495 12.2499C13.1599 12.2499 13.073 12.2617 12.9904 12.2838L9.35304 8.64638Z" fill="black"/>
<path fill-rule="evenodd" clip-rule="evenodd" d="M3.2629 13.2499C3.2629 7.73454 7.734 3.26344 13.2494 3.26344C18.7648 3.26344 23.2359 7.73454 23.2359 13.2499C23.2359 18.7653 18.7648 23.2364 13.2494 23.2364C7.734 23.2364 3.2629 18.7653 3.2629 13.2499ZM13.2494 4.26344C8.28629 4.26344 4.2629 8.28683 4.2629 13.2499C4.2629 18.213 8.28629 22.2364 13.2494 22.2364C18.2125 22.2364 22.2359 18.213 22.2359 13.2499C22.2359 8.28683 18.2125 4.26344 13.2494 4.26344Z" fill="black"/>
</svg>
