<svg width="24" height="24" viewBox="0 0 24 24" fill="none" xmlns="http://www.w3.org/2000/svg">
<path d="M4.94759 4.45418C4.94759 4.73032 4.72373 4.95418 4.44759 4.95418L1.61916 4.95418C1.34302 4.95418 1.11916 4.73032 1.11916 4.45418C1.11916 4.17804 1.34302 3.95418 1.61916 3.95418H3.24048L0.912072 1.62577C0.716809 1.43051 0.71681 1.11393 0.912072 0.918663C1.10733 0.723401 1.42392 0.723401 1.61918 0.918663L3.94759 3.24707V1.62575C3.94759 1.34961 4.17145 1.12575 4.44759 1.12575C4.72373 1.12575 4.94759 1.34961 4.94759 1.62575V4.45418Z" fill="black"/>
<path fill-rule="evenodd" clip-rule="evenodd" d="M13.2494 3.51344C7.87207 3.51344 3.5129 7.87261 3.5129 13.2499C3.5129 18.6272 7.87207 22.9864 13.2494 22.9864C18.6267 22.9864 22.9859 18.6272 22.9859 13.2499C22.9859 7.87261 18.6267 3.51344 13.2494 3.51344ZM9.35304 8.64638C9.15778 8.45111 8.8412 8.45111 8.64593 8.64637C8.45067 8.84163 8.45067 9.15822 8.64593 9.35348L12.2833 12.9909C12.2613 13.0735 12.2495 13.1604 12.2495 13.2499C12.2495 13.8022 12.6972 14.2499 13.2495 14.2499C13.8018 14.2499 14.2495 13.8022 14.2495 13.2499C14.2495 12.6976 13.8018 12.2499 13.2495 12.2499C13.1599 12.2499 13.0731 12.2617 12.9904 12.2838L9.35304 8.64638Z" fill="black"/>
</svg>
