<svg width="24" height="24" viewBox="0 0 24 24" fill="none" xmlns="http://www.w3.org/2000/svg">
<path d="M5.32259 4.45418C5.32259 4.93743 4.93084 5.32918 4.44759 5.32918H1.61916C1.13591 5.32918 0.744161 4.93743 0.744161 4.45418C0.744161 3.97093 1.13591 3.57918 1.61916 3.57918H2.33515L0.646907 1.89094C0.305198 1.54923 0.305198 0.995207 0.646907 0.653498C0.988615 0.31179 1.54263 0.31179 1.88434 0.653498L3.57259 2.34174V1.62575C3.57259 1.1425 3.96434 0.750753 4.44759 0.750753C4.93084 0.750753 5.32259 1.1425 5.32259 1.62575V4.45418Z" fill="black"/>
<path fill-rule="evenodd" clip-rule="evenodd" d="M13.2494 3.51344C7.87207 3.51344 3.5129 7.87261 3.5129 13.2499C3.5129 18.6272 7.87207 22.9864 13.2494 22.9864C18.6267 22.9864 22.9859 18.6272 22.9859 13.2499C22.9859 7.87261 18.6267 3.51344 13.2494 3.51344ZM9.61821 8.38121C9.2765 8.0395 8.72248 8.0395 8.38077 8.38121C8.03906 8.72291 8.03906 9.27693 8.38076 9.61864L11.7691 13.007C11.7562 13.0861 11.7495 13.1672 11.7495 13.2499C11.7495 14.0784 12.4211 14.7499 13.2495 14.7499C14.0779 14.7499 14.7495 14.0784 14.7495 13.2499C14.7495 12.4215 14.0779 11.7499 13.2495 11.7499C13.1667 11.7499 13.0856 11.7566 13.0065 11.7695L9.61821 8.38121Z" fill="black"/>
</svg>
