<svg width="24" height="24" viewBox="0 0 24 24" fill="none" xmlns="http://www.w3.org/2000/svg">
<path d="M5.32259 4.4543C5.32259 4.93755 4.93084 5.3293 4.44759 5.3293H1.61916C1.13591 5.3293 0.744161 4.93755 0.744161 4.4543C0.744161 3.97105 1.13591 3.5793 1.61916 3.5793H2.33515L0.646907 1.89106C0.305198 1.54935 0.305198 0.995329 0.646907 0.65362C0.988615 0.311912 1.54263 0.311912 1.88434 0.65362L3.57259 2.34187V1.62587C3.57259 1.14263 3.96434 0.750875 4.44759 0.750875C4.93084 0.750875 5.32259 1.14263 5.32259 1.62587V4.4543Z" fill="black"/>
<path d="M9.61818 8.3813C9.27647 8.03959 8.72245 8.03959 8.38074 8.38129C8.03903 8.723 8.03903 9.27702 8.38073 9.61873L11.9995 13.2376L11.9995 13.25C11.9995 13.9404 12.5591 14.5 13.2495 14.5C13.9398 14.5 14.4995 13.9404 14.4995 13.25C14.4995 12.5597 13.9398 12 13.2495 12L13.2369 12.0001L9.61818 8.3813Z" fill="black"/>
<path fill-rule="evenodd" clip-rule="evenodd" d="M2.51287 13.25C2.51287 7.32042 7.31976 2.51353 13.2494 2.51353C19.179 2.51353 23.9858 7.32042 23.9858 13.25C23.9858 19.1796 19.179 23.9865 13.2494 23.9865C7.31976 23.9865 2.51287 19.1796 2.51287 13.25ZM13.2494 5.01353C8.70047 5.01353 5.01287 8.70113 5.01287 13.25C5.01287 17.7989 8.70047 21.4865 13.2494 21.4865C17.7982 21.4865 21.4858 17.7989 21.4858 13.25C21.4858 8.70113 17.7982 5.01353 13.2494 5.01353Z" fill="black"/>
</svg>
