<svg width="24" height="24" viewBox="0 0 24 24" fill="none" xmlns="http://www.w3.org/2000/svg">
<path d="M4.94832 4.45418C4.94832 4.73032 4.72446 4.95418 4.44832 4.95418L1.61989 4.95418C1.34375 4.95418 1.11989 4.73032 1.11989 4.45418C1.11989 4.17804 1.34375 3.95418 1.61989 3.95418H3.24121L0.912804 1.62577C0.717542 1.43051 0.717542 1.11393 0.912804 0.918663C1.10807 0.723401 1.42465 0.723401 1.61991 0.918663L3.94832 3.24707V1.62575C3.94832 1.34961 4.17218 1.12575 4.44832 1.12575C4.72446 1.12575 4.94832 1.34961 4.94832 1.62575V4.45418Z" fill="black"/>
<path fill-rule="evenodd" clip-rule="evenodd" d="M13.2501 3.51344C7.8728 3.51344 3.51363 7.87261 3.51363 13.2499C3.51363 18.6272 7.8728 22.9864 13.2501 22.9864C18.6274 22.9864 22.9866 18.6272 22.9866 13.2499C22.9866 7.87261 18.6274 3.51344 13.2501 3.51344ZM9.35377 8.64638C9.15851 8.45111 8.84193 8.45111 8.64667 8.64637C8.4514 8.84163 8.4514 9.15822 8.64666 9.35348L12.2841 12.9909C12.262 13.0735 12.2502 13.1604 12.2502 13.2499C12.2502 13.8022 12.6979 14.2499 13.2502 14.2499C13.8025 14.2499 14.2502 13.8022 14.2502 13.2499C14.2502 12.6976 13.8025 12.2499 13.2502 12.2499C13.1606 12.2499 13.0738 12.2617 12.9912 12.2838L9.35377 8.64638Z" fill="black"/>
</svg>
