<svg width="24" height="24" viewBox="0 0 24 24" fill="none" xmlns="http://www.w3.org/2000/svg">
<path d="M5.32332 4.45418C5.32332 4.93743 4.93157 5.32918 4.44832 5.32918H1.61989C1.13664 5.32918 0.744894 4.93743 0.744894 4.45418C0.744894 3.97093 1.13664 3.57918 1.61989 3.57918H2.33588L0.647639 1.89094C0.30593 1.54923 0.30593 0.995207 0.647639 0.653498C0.989348 0.31179 1.54337 0.31179 1.88508 0.653498L3.57332 2.34174V1.62575C3.57332 1.1425 3.96507 0.750753 4.44832 0.750753C4.93157 0.750753 5.32332 1.1425 5.32332 1.62575V4.45418Z" fill="black"/>
<path d="M9.61891 8.38118C9.2772 8.03947 8.72318 8.03946 8.38147 8.38117C8.03976 8.72288 8.03976 9.2769 8.38146 9.61861L12.0002 13.2374L12.0002 13.2499C12.0002 13.9402 12.5598 14.4999 13.2502 14.4999C13.9405 14.4999 14.5002 13.9402 14.5002 13.2499C14.5002 12.5595 13.9405 11.9999 13.2502 11.9999L13.2376 12L9.61891 8.38118Z" fill="black"/>
<path fill-rule="evenodd" clip-rule="evenodd" d="M2.5136 13.2499C2.5136 7.3203 7.32049 2.51341 13.2501 2.51341C19.1797 2.51341 23.9866 7.3203 23.9866 13.2499C23.9866 19.1795 19.1797 23.9864 13.2501 23.9864C7.32049 23.9864 2.5136 19.1795 2.5136 13.2499ZM13.2501 5.01341C8.7012 5.01341 5.0136 8.70101 5.0136 13.2499C5.0136 17.7988 8.7012 21.4864 13.2501 21.4864C17.799 21.4864 21.4866 17.7988 21.4866 13.2499C21.4866 8.70101 17.799 5.01341 13.2501 5.01341Z" fill="black"/>
</svg>
