<svg width="24" height="24" viewBox="0 0 24 24" fill="none" xmlns="http://www.w3.org/2000/svg">
<path d="M4.69832 4.45418C4.69832 4.59225 4.58639 4.70418 4.44832 4.70418L1.61989 4.70418C1.48182 4.70418 1.36989 4.59225 1.36989 4.45418C1.36989 4.31611 1.48182 4.20418 1.61989 4.20418L3.84477 4.20418L1.08958 1.44899C0.99195 1.35136 0.99195 1.19307 1.08958 1.09544C1.18721 0.997809 1.3455 0.997809 1.44313 1.09544L4.19832 3.85063V1.62575C4.19832 1.48768 4.31025 1.37575 4.44832 1.37575C4.58639 1.37575 4.69832 1.48768 4.69832 1.62575V4.45418Z" fill="black"/>
<path d="M9.17699 8.82315C9.07936 8.72552 8.92107 8.72552 8.82344 8.82315C8.72581 8.92078 8.72581 9.07907 8.82344 9.1767L12.5732 12.9265C12.5264 13.0245 12.5001 13.1341 12.5001 13.2499C12.5001 13.6641 12.8359 13.9999 13.2501 13.9999C13.6644 13.9999 14.0001 13.6641 14.0001 13.2499C14.0001 12.8357 13.6644 12.4999 13.2501 12.4999C13.1344 12.4999 13.0247 12.5261 12.9268 12.573L9.17699 8.82315Z" fill="black"/>
<path fill-rule="evenodd" clip-rule="evenodd" d="M3.51363 13.2499C3.51363 7.87261 7.8728 3.51344 13.2501 3.51344C18.6274 3.51344 22.9866 7.87261 22.9866 13.2499C22.9866 18.6272 18.6274 22.9864 13.2501 22.9864C7.8728 22.9864 3.51363 18.6272 3.51363 13.2499ZM13.2501 4.01344C8.14895 4.01344 4.01363 8.14876 4.01363 13.2499C4.01363 18.3511 8.14895 22.4864 13.2501 22.4864C18.3513 22.4864 22.4866 18.3511 22.4866 13.2499C22.4866 8.14876 18.3513 4.01344 13.2501 4.01344Z" fill="black"/>
</svg>
