<svg width="24" height="24" viewBox="0 0 24 24" fill="none" xmlns="http://www.w3.org/2000/svg">
<path d="M4.94832 4.45418C4.94832 4.73032 4.72446 4.95418 4.44832 4.95418L1.61989 4.95418C1.34375 4.95418 1.11989 4.73032 1.11989 4.45418C1.11989 4.17804 1.34375 3.95418 1.61989 3.95418H3.24121L0.912804 1.62577C0.717542 1.43051 0.717542 1.11393 0.912804 0.918663C1.10807 0.723401 1.42465 0.723401 1.61991 0.918663L3.94832 3.24707V1.62575C3.94832 1.34961 4.17218 1.12575 4.44832 1.12575C4.72446 1.12575 4.94832 1.34961 4.94832 1.62575V4.45418Z" fill="black"/>
<path d="M9.35377 8.64638C9.15851 8.45111 8.84193 8.45111 8.64666 8.64637C8.4514 8.84163 8.4514 9.15821 8.64666 9.35348L12.2841 12.9909C12.262 13.0735 12.2502 13.1604 12.2502 13.2499C12.2502 13.8022 12.6979 14.2499 13.2502 14.2499C13.8025 14.2499 14.2502 13.8022 14.2502 13.2499C14.2502 12.6976 13.8025 12.2499 13.2502 12.2499C13.1606 12.2499 13.0738 12.2617 12.9912 12.2838L9.35377 8.64638Z" fill="black"/>
<path fill-rule="evenodd" clip-rule="evenodd" d="M3.26363 13.2499C3.26363 7.73454 7.73473 3.26344 13.2501 3.26344C18.7655 3.26344 23.2366 7.73454 23.2366 13.2499C23.2366 18.7653 18.7655 23.2364 13.2501 23.2364C7.73473 23.2364 3.26363 18.7653 3.26363 13.2499ZM13.2501 4.26344C8.28702 4.26344 4.26363 8.28683 4.26363 13.2499C4.26363 18.213 8.28702 22.2364 13.2501 22.2364C18.2132 22.2364 22.2366 18.213 22.2366 13.2499C22.2366 8.28683 18.2132 4.26344 13.2501 4.26344Z" fill="black"/>
</svg>
