<svg width="24" height="24" viewBox="0 0 24 24" fill="none" xmlns="http://www.w3.org/2000/svg">
<path d="M4.69759 4.45418C4.69759 4.59225 4.58566 4.70418 4.44759 4.70418L1.61916 4.70418C1.48109 4.70418 1.36916 4.59225 1.36916 4.45418C1.36916 4.31611 1.48109 4.20418 1.61916 4.20418L3.84403 4.20418L1.08885 1.44899C0.991217 1.35136 0.991217 1.19307 1.08885 1.09544C1.18648 0.997809 1.34477 0.997809 1.4424 1.09544L4.19759 3.85063V1.62575C4.19759 1.48768 4.30952 1.37575 4.44759 1.37575C4.58566 1.37575 4.69759 1.48768 4.69759 1.62575V4.45418Z" fill="black"/>
<path fill-rule="evenodd" clip-rule="evenodd" d="M13.2494 3.51344C7.87207 3.51344 3.5129 7.87261 3.5129 13.2499C3.5129 18.6272 7.87207 22.9864 13.2494 22.9864C18.6267 22.9864 22.9859 18.6272 22.9859 13.2499C22.9859 7.87261 18.6267 3.51344 13.2494 3.51344ZM9.17626 8.82315C9.07863 8.72552 8.92034 8.72552 8.82271 8.82315C8.72508 8.92078 8.72508 9.07907 8.82271 9.1767L12.5725 12.9265C12.5256 13.0245 12.4994 13.1341 12.4994 13.2499C12.4994 13.6641 12.8352 13.9999 13.2494 13.9999C13.6636 13.9999 13.9994 13.6641 13.9994 13.2499C13.9994 12.8357 13.6636 12.4999 13.2494 12.4999C13.1336 12.4999 13.024 12.5261 12.9261 12.573L9.17626 8.82315Z" fill="black"/>
</svg>
