<svg width="25" height="25" viewBox="0 0 25 25" fill="none" xmlns="http://www.w3.org/2000/svg">
<path d="M12.125 0.199707C18.7109 0.199831 24.0505 5.53865 24.0508 12.1245C24.0508 18.7106 18.711 24.0502 12.125 24.0503C11.4349 24.05 10.875 23.4905 10.875 22.8003C10.875 22.1101 11.4349 21.5506 12.125 21.5503C17.3303 21.5502 21.5508 17.3299 21.5508 12.1245C21.5505 6.91936 17.3302 2.69983 12.125 2.69971C6.91994 2.69997 2.70046 6.91945 2.7002 12.1245C2.70018 12.8148 2.14043 13.3744 1.4502 13.3745C0.759851 13.3745 0.200213 12.8149 0.200195 12.1245C0.200458 5.53874 5.53923 0.199968 12.125 0.199707Z" fill="black"/>
</svg>
