<svg width="25" height="25" viewBox="0 0 25 25" fill="none" xmlns="http://www.w3.org/2000/svg">
<path d="M12.126 0.208496C18.7068 0.208884 24.042 5.54453 24.042 12.1255C24.0417 18.7062 18.7067 24.0411 12.126 24.0415C11.5738 24.0415 11.1261 23.5937 11.126 23.0415C11.126 22.4892 11.5737 22.0415 12.126 22.0415C17.6021 22.0411 22.0417 17.6016 22.042 12.1255C22.042 6.6491 17.6023 2.20888 12.126 2.2085C6.64935 2.2085 2.20898 6.64886 2.20898 12.1255C2.20869 12.6774 1.7609 13.1253 1.20898 13.1255C0.657055 13.1253 0.209275 12.6774 0.208984 12.1255C0.208985 5.54429 5.54478 0.208496 12.126 0.208496Z" fill="black"/>
</svg>
