<svg width="24" height="24" viewBox="0 0 24 24" fill="none" xmlns="http://www.w3.org/2000/svg">
<path d="M12.125 0.455566C18.5701 0.455609 23.7949 5.68035 23.7949 12.1255C23.7947 18.5704 18.57 23.7954 12.125 23.7954C11.8492 23.7952 11.6252 23.5713 11.625 23.2954C11.625 23.0194 11.849 22.7956 12.125 22.7954C18.0177 22.7954 22.7947 18.0181 22.7949 12.1255C22.7949 6.23264 18.0178 1.45561 12.125 1.45557C6.2323 1.45578 1.45508 6.23274 1.45508 12.1255C1.45485 12.4014 1.23101 12.6254 0.955078 12.6255C0.679257 12.6253 0.455303 12.4013 0.455078 12.1255C0.455079 5.68046 5.68002 0.45578 12.125 0.455566Z" fill="black"/>
</svg>
