<svg width="24" height="24" viewBox="0 0 24 24" fill="none" xmlns="http://www.w3.org/2000/svg">
<path d="M14.6426 2.23926H14.1426C8.397 2.23939 3.73857 6.89704 3.73828 12.6426C3.73828 17.7193 7.85396 21.8348 12.9307 21.835C17.2426 21.8349 20.7383 18.3393 20.7383 14.0273C20.738 10.4802 17.8626 7.60463 14.3154 7.60449C11.5331 7.60462 9.27665 9.86028 9.27637 12.6426C9.27637 14.6604 10.9128 16.2967 12.9307 16.2969C14.1839 16.2968 15.2002 15.2805 15.2002 14.0273C15.1999 13.539 14.8037 13.1427 14.3154 13.1426H13.8154V12.1426H14.3154C15.356 12.1427 16.1999 12.9867 16.2002 14.0273C16.2002 15.8328 14.7362 17.2968 12.9307 17.2969C10.3606 17.2967 8.27637 15.2127 8.27637 12.6426C8.27665 9.30799 10.9808 6.60462 14.3154 6.60449C18.4149 6.60463 21.738 9.92793 21.7383 14.0273C21.7383 18.8916 17.7949 22.8349 12.9307 22.835C7.30167 22.8348 2.73828 18.2716 2.73828 12.6426C2.73857 6.34475 7.84472 1.23939 14.1426 1.23926H14.6426V2.23926Z" fill="black"/>
</svg>
