<svg width="24" height="24" viewBox="0 0 24 24" fill="none" xmlns="http://www.w3.org/2000/svg">
<path d="M14.8926 2.48926H14.1426C8.53507 2.48939 3.98857 7.03511 3.98828 12.6426C3.98828 17.5812 7.99203 21.5848 12.9307 21.585C17.1046 21.5849 20.4883 18.2012 20.4883 14.0273C20.488 10.6183 17.7245 7.85463 14.3154 7.85449C11.6712 7.85462 9.52665 9.99835 9.52637 12.6426C9.52637 14.5224 11.0509 16.0467 12.9307 16.0469C14.0458 16.0468 14.9502 15.1425 14.9502 14.0273C14.9499 13.6771 14.6657 13.3927 14.3154 13.3926H13.5654V11.8926H14.3154C15.494 11.8927 16.4499 12.8486 16.4502 14.0273C16.4502 15.9709 14.8742 17.5468 12.9307 17.5469C10.2225 17.5467 8.02637 15.3508 8.02637 12.6426C8.02665 9.16992 10.8427 6.35462 14.3154 6.35449C18.5529 6.35463 21.988 9.78986 21.9883 14.0273C21.9883 19.0297 17.933 23.0849 12.9307 23.085C7.1636 23.0848 2.48828 18.4097 2.48828 12.6426C2.48857 6.20668 7.70665 0.98939 14.1426 0.989258H14.8926V2.48926Z" fill="black"/>
</svg>
