<svg width="24" height="24" viewBox="0 0 24 24" fill="none" xmlns="http://www.w3.org/2000/svg">
<path d="M14.1426 0.489258C14.8326 0.489501 15.3923 1.04927 15.3926 1.73926C15.3923 2.42924 14.8326 2.98902 14.1426 2.98926C8.81122 2.98939 4.48857 7.31125 4.48828 12.6426C4.48828 17.3051 8.26817 21.0848 12.9307 21.085C16.8284 21.0849 19.9883 17.9251 19.9883 14.0273C19.988 10.8944 17.4484 8.35463 14.3154 8.35449C11.9473 8.35462 10.0267 10.2745 10.0264 12.6426C10.0264 14.2462 11.3271 15.5467 12.9307 15.5469C13.7697 15.5468 14.4502 14.8663 14.4502 14.0273C14.4499 13.9533 14.3896 13.8927 14.3154 13.8926C13.6252 13.8924 13.0654 13.3329 13.0654 12.6426C13.0657 11.9525 13.6254 11.3927 14.3154 11.3926C15.7701 11.3927 16.9499 12.5724 16.9502 14.0273C16.9502 16.247 15.1504 18.0468 12.9307 18.0469C9.94635 18.0467 7.52637 15.6269 7.52637 12.6426C7.52665 8.89378 10.5666 5.85462 14.3154 5.85449C18.8291 5.85463 22.488 9.51372 22.4883 14.0273C22.4883 19.3058 18.2091 23.5849 12.9307 23.585C6.88746 23.5848 1.98828 18.6858 1.98828 12.6426C1.98857 5.93054 7.4305 0.48939 14.1426 0.489258Z" fill="black"/>
</svg>
