<svg width="24" height="24" viewBox="0 0 24 24" fill="none" xmlns="http://www.w3.org/2000/svg">
<path fill-rule="evenodd" clip-rule="evenodd" d="M7.63836 1H16.3616C17.4719 1 18.3204 1 18.9976 1.05533C19.68 1.11109 20.2105 1.22429 20.6795 1.46322C21.4791 1.87068 22.1293 2.52085 22.5368 3.32054C22.7757 3.78948 22.8889 4.31998 22.9447 5.00245C23 5.67961 23 6.52803 23 7.63824V16.6C23 18.8402 23 19.9603 22.564 20.816C22.1805 21.5686 21.5686 22.1805 20.816 22.564C19.9603 23 18.8402 23 16.6 23H7.4C5.15979 23 4.03968 23 3.18404 22.564C2.43139 22.1805 1.81947 21.5686 1.43597 20.816C1 19.9603 1 18.8402 1 16.6V7.63836C1 6.52815 1 5.67961 1.05533 5.00245C1.11109 4.31998 1.22429 3.78948 1.46322 3.32054C1.87068 2.52085 2.52085 1.87068 3.32054 1.46322C3.78948 1.22429 4.31998 1.11109 5.00245 1.05533C5.67963 1 6.52809 1 7.63836 1ZM1.5 11.75V7.65C1.5 6.52577 1.50019 5.69763 1.55367 5.04317C1.6069 4.39162 1.71169 3.93424 1.90873 3.54754C2.26825 2.84193 2.84193 2.26825 3.54753 1.90873C3.93424 1.71169 4.39162 1.6069 5.04317 1.55367C5.69763 1.50019 6.52577 1.5 7.65 1.5H16.35C17.4742 1.5 18.3024 1.50019 18.9568 1.55367C19.6084 1.6069 20.0658 1.71169 20.4525 1.90873C21.1581 2.26825 21.7317 2.84193 22.0913 3.54754C22.2883 3.93424 22.3931 4.39162 22.4463 5.04317C22.4998 5.69763 22.5 6.52577 22.5 7.65V11.75L1.5 11.75Z" fill="black"/>
</svg>
