<svg width="24" height="24" viewBox="0 0 24 24" fill="none" xmlns="http://www.w3.org/2000/svg">
<path fill-rule="evenodd" clip-rule="evenodd" d="M2.50098 8.7002C2.50121 5.96015 2.50168 4.50432 3.25 3.58496L3.40918 3.4082C4.20371 2.61396 5.42204 2.51437 7.67187 2.50195L8.70215 2.5L15.2988 2.5C18.2213 2.5 19.6837 2.49953 20.5918 3.40723C21.4999 4.31529 21.5 5.77818 21.5 8.70117L21.499 15.2998L21.4971 16.3291C21.4846 18.5787 21.3859 19.7973 20.5918 20.5918C19.6837 21.4996 18.2214 21.5 15.2988 21.5H8.70117C5.77795 21.5 4.31531 21.5 3.40723 20.5918C2.61298 19.7971 2.51418 18.5784 2.50195 16.3281L2.50098 8.7002ZM3.50098 15.2988C3.50085 16.7882 3.50217 17.8053 3.60449 18.5674C3.70299 19.3003 3.87721 19.6475 4.11426 19.8848C4.35147 20.122 4.69861 20.2969 5.43164 20.3955C6.1938 20.4979 7.21152 20.5 8.70117 20.5H15.2988C16.788 20.5 17.8054 20.4979 18.5674 20.3955C19.3003 20.2969 19.6475 20.1219 19.8848 19.8848C20.1218 19.6476 20.296 19.301 20.3945 18.5684C20.497 17.8064 20.5 16.7891 20.5 15.2998V8.70117C20.5 7.21145 20.497 6.19377 20.3945 5.43164C20.296 4.69914 20.1217 4.35243 19.8848 4.11523C19.6475 3.87817 19.3002 3.70306 18.5674 3.60449C17.8054 3.50211 16.788 3.49902 15.2988 3.49902L8.70215 3.5C7.21286 3.5 6.19562 3.50212 5.43359 3.60449C4.7005 3.70305 4.35347 3.87811 4.11621 4.11523C3.8791 4.35245 3.70312 4.69875 3.60449 5.43164C3.50199 6.19364 3.5011 7.21084 3.50098 8.7002L3.50098 15.2988Z" fill="black"/>
</svg>
