<svg width="24" height="24" viewBox="0 0 24 24" fill="none" xmlns="http://www.w3.org/2000/svg">
<path fill-rule="evenodd" clip-rule="evenodd" d="M2.50195 8.7002C2.50219 5.96017 2.50179 4.50436 3.25 3.58496L3.40918 3.4082C4.20376 2.61372 5.42253 2.51534 7.67285 2.50293L8.70215 2.50098L15.2988 2.5C18.2216 2.5 19.6837 2.50029 20.5918 3.4082C21.4998 4.31624 21.5 5.7784 21.5 8.70117L21.498 16.3291C21.4856 18.579 21.3861 19.7973 20.5918 20.5918C19.6837 21.4996 18.2214 21.5 15.2988 21.5H8.70117C5.77807 21.5 4.31627 21.4999 3.4082 20.5918C2.6138 19.7972 2.51418 18.5784 2.50195 16.3281L2.50195 8.7002ZM3.00098 15.2988C3.00085 16.7744 3.00147 17.8315 3.10938 18.6348C3.21537 19.4232 3.41624 19.8927 3.76172 20.2383C4.10731 20.5839 4.57762 20.7845 5.36621 20.8906C6.16933 20.9985 7.22604 21 8.70117 21H15.2988C16.7741 21 17.8317 20.9986 18.6348 20.8906C19.4232 20.7846 19.8927 20.5837 20.2383 20.2383C20.5838 19.8927 20.7846 19.4233 20.8906 18.6348C20.9986 17.8316 21 16.7744 21 15.2988V8.70117C21 7.2259 20.9995 6.16834 20.8916 5.36523C20.7855 4.57673 20.5839 4.10729 20.2383 3.76172C19.8927 3.41622 19.4232 3.21543 18.6348 3.10937C17.8316 3.00144 16.7741 3 15.2988 3L8.70215 3.00098C7.22702 3.00098 6.17023 3.00146 5.36719 3.10938C4.57851 3.21542 4.10833 3.41614 3.7627 3.76172C3.41729 4.10724 3.21645 4.57696 3.11035 5.36523C3.00236 6.1683 3.0011 7.22499 3.00098 8.7002L3.00098 15.2988Z" fill="black"/>
</svg>
