<svg width="24" height="24" viewBox="0 0 24 24" fill="none" xmlns="http://www.w3.org/2000/svg">
<path d="M1 20.5C1 21.6046 1.89543 22.5 3 22.5H6.5C7.05228 22.5 7.5 22.0523 7.5 21.5C7.5 20.9477 7.05228 20.5 6.5 20.5H3V4H6.5C7.05228 4 7.5 3.55228 7.5 3C7.5 2.44772 7.05228 2 6.5 2H3C1.89543 2 1 2.89543 1 4V20.5Z" fill="black"/>
<path d="M23 20.5C23 21.6046 22.1046 22.5 21 22.5H17.5C16.9477 22.5 16.5 22.0523 16.5 21.5C16.5 20.9477 16.9477 20.5 17.5 20.5H21V4H17.5C16.9477 4 16.5 3.55228 16.5 3C16.5 2.44772 16.9477 2 17.5 2H21C22.1046 2 23 2.89543 23 4V20.5Z" fill="black"/>
<path d="M8 18.25C8.69036 18.25 9.25 17.6904 9.25 17C9.25 16.3096 8.69036 15.75 8 15.75C7.30964 15.75 6.75 16.3096 6.75 17C6.75 17.6904 7.30964 18.25 8 18.25Z" fill="black"/>
<path d="M12 18.25C12.6904 18.25 13.25 17.6904 13.25 17C13.25 16.3096 12.6904 15.75 12 15.75C11.3096 15.75 10.75 16.3096 10.75 17C10.75 17.6904 11.3096 18.25 12 18.25Z" fill="black"/>
<path d="M17.25 17C17.25 17.6904 16.6904 18.25 16 18.25C15.3096 18.25 14.75 17.6904 14.75 17C14.75 16.3096 15.3096 15.75 16 15.75C16.6904 15.75 17.25 16.3096 17.25 17Z" fill="black"/>
</svg>
