<svg width="24" height="24" viewBox="0 0 24 24" fill="none" xmlns="http://www.w3.org/2000/svg">
<path d="M1.75 20.5C1.75 21.4665 2.5335 22.25 3.5 22.25H7C7.41421 22.25 7.75 21.9142 7.75 21.5C7.75 21.0858 7.41421 20.75 7 20.75H3.5C3.36193 20.75 3.25 20.6381 3.25 20.5V4C3.25 3.86193 3.36193 3.75 3.5 3.75H7C7.41421 3.75 7.75 3.41421 7.75 3C7.75 2.58579 7.41421 2.25 7 2.25H3.5C2.5335 2.25 1.75 3.0335 1.75 4V20.5Z" fill="black"/>
<path d="M22.25 20.5C22.25 21.4665 21.4665 22.25 20.5 22.25H17C16.5858 22.25 16.25 21.9142 16.25 21.5C16.25 21.0858 16.5858 20.75 17 20.75H20.5C20.6381 20.75 20.75 20.6381 20.75 20.5V4C20.75 3.86193 20.6381 3.75 20.5 3.75H17C16.5858 3.75 16.25 3.41421 16.25 3C16.25 2.58579 16.5858 2.25 17 2.25H20.5C21.4665 2.25 22.25 3.0335 22.25 4V20.5Z" fill="black"/>
<path d="M8 18C8.55228 18 9 17.5523 9 17C9 16.4477 8.55228 16 8 16C7.44772 16 7 16.4477 7 17C7 17.5523 7.44772 18 8 18Z" fill="black"/>
<path d="M12 18C12.5523 18 13 17.5523 13 17C13 16.4477 12.5523 16 12 16C11.4477 16 11 16.4477 11 17C11 17.5523 11.4477 18 12 18Z" fill="black"/>
<path d="M17 17C17 17.5523 16.5523 18 16 18C15.4477 18 15 17.5523 15 17C15 16.4477 15.4477 16 16 16C16.5523 16 17 16.4477 17 17Z" fill="black"/>
</svg>
