<svg width="24" height="24" viewBox="0 0 24 24" fill="none" xmlns="http://www.w3.org/2000/svg">
<path fill-rule="evenodd" clip-rule="evenodd" d="M2.50146 8.7002C2.5017 5.96003 2.50119 4.50337 3.24951 3.58398L3.40967 3.4082C4.20422 2.61386 5.42233 2.51437 7.67236 2.50195L8.70166 2.49902L15.2993 2.49902C18.2219 2.49902 19.6833 2.50025 20.5913 3.4082C21.4993 4.31621 21.5005 5.77762 21.5005 8.70019L21.4995 15.2988L21.4976 16.3291C21.4851 18.579 21.3858 19.7973 20.5913 20.5918C19.6832 21.4995 18.221 21.499 15.2983 21.499H8.70068C5.77774 21.499 4.31576 21.4999 3.40772 20.5918C2.61325 19.7972 2.51467 18.5785 2.50244 16.3281L2.50146 8.7002ZM4.00147 15.2988C4.00134 16.8024 4.00423 17.7799 4.10107 18.501C4.19214 19.1783 4.33944 19.4024 4.46826 19.5312C4.59712 19.6601 4.82093 19.8083 5.49854 19.8994C6.21959 19.9963 7.197 20 8.70068 20H15.2983C16.8021 20 17.7804 19.9953 18.5015 19.8984C19.1786 19.8073 19.4029 19.6601 19.5317 19.5312C19.6605 19.4023 19.8078 19.1779 19.8989 18.501C19.9958 17.78 19.9995 16.8022 19.9995 15.2988V8.70117C19.9995 7.19772 19.9958 6.22005 19.8989 5.49902C19.8078 4.82124 19.6606 4.59665 19.5317 4.46777C19.4029 4.33894 19.1788 4.19172 18.5015 4.10059C17.7804 4.00368 16.8021 4 15.2983 4L8.70264 4C7.19928 4 6.22146 4.00276 5.50049 4.09961C4.8229 4.19071 4.59814 4.33894 4.46924 4.46777C4.34044 4.59665 4.19222 4.82095 4.10107 5.49805C4.00413 6.21899 4.00159 7.19679 4.00146 8.7002L4.00147 15.2988Z" fill="black"/>
</svg>
