<svg width="24" height="24" viewBox="0 0 24 24" fill="none" xmlns="http://www.w3.org/2000/svg">
<path d="M2 20.5C2 21.3284 2.67157 22 3.5 22H7C7.27614 22 7.5 21.7761 7.5 21.5C7.5 21.2239 7.27614 21 7 21H3.5C3.22386 21 3 20.7761 3 20.5V4C3 3.72386 3.22386 3.5 3.5 3.5H7C7.27614 3.5 7.5 3.27614 7.5 3C7.5 2.72386 7.27614 2.5 7 2.5H3.5C2.67157 2.5 2 3.17157 2 4V20.5Z" fill="black"/>
<path d="M22 20.5C22 21.3284 21.3284 22 20.5 22H17C16.7239 22 16.5 21.7761 16.5 21.5C16.5 21.2239 16.7239 21 17 21H20.5C20.7761 21 21 20.7761 21 20.5V4C21 3.72386 20.7761 3.5 20.5 3.5H17C16.7239 3.5 16.5 3.27614 16.5 3C16.5 2.72386 16.7239 2.5 17 2.5H20.5C21.3284 2.5 22 3.17157 22 4V20.5Z" fill="black"/>
<path d="M8 17.875C8.48325 17.875 8.875 17.4832 8.875 17C8.875 16.5168 8.48325 16.125 8 16.125C7.51675 16.125 7.125 16.5168 7.125 17C7.125 17.4832 7.51675 17.875 8 17.875Z" fill="black"/>
<path d="M12 17.875C12.4832 17.875 12.875 17.4832 12.875 17C12.875 16.5168 12.4832 16.125 12 16.125C11.5168 16.125 11.125 16.5168 11.125 17C11.125 17.4832 11.5168 17.875 12 17.875Z" fill="black"/>
<path d="M16.875 17C16.875 17.4832 16.4832 17.875 16 17.875C15.5168 17.875 15.125 17.4832 15.125 17C15.125 16.5168 15.5168 16.125 16 16.125C16.4832 16.125 16.875 16.5168 16.875 17Z" fill="black"/>
</svg>
