<svg width="24" height="24" viewBox="0 0 24 24" fill="none" xmlns="http://www.w3.org/2000/svg">
<path fill-rule="evenodd" clip-rule="evenodd" d="M2.50098 8.7002C2.50121 5.9606 2.50197 4.5053 3.25 3.58594L3.40918 3.40918C4.20375 2.61468 5.42255 2.51534 7.67285 2.50293L8.70215 2.50098L15.2988 2.5C18.2216 2.5 19.6837 2.50039 20.5918 3.4082C21.4998 4.31622 21.5 5.77851 21.5 8.70117V15.2998L21.498 16.3291C21.4856 18.5791 21.3863 19.7983 20.5918 20.5928C19.6837 21.5006 18.2216 21.501 15.2988 21.501L8.70117 21.5C5.77819 21.5 4.31625 21.4999 3.4082 20.5918C2.61392 19.7972 2.51419 18.5792 2.50195 16.3291L2.50098 8.7002ZM4.50098 15.2988C4.50085 16.8166 4.5044 17.7545 4.5957 18.4346C4.67889 19.0537 4.80076 19.1565 4.82227 19.1777C4.8428 19.1983 4.94342 19.3216 5.56543 19.4053C6.24542 19.4966 7.18355 19.5 8.70117 19.5L15.2988 19.501C16.8167 19.501 17.7546 19.4967 18.4346 19.4053C19.0548 19.3219 19.1567 19.1999 19.1777 19.1787C19.1984 19.1581 19.3207 19.057 19.4043 18.4355C19.4957 17.7556 19.5 16.8174 19.5 15.2998V8.70117C19.5 7.18385 19.4956 6.24631 19.4043 5.56641C19.3206 4.94409 19.1983 4.84281 19.1777 4.82227C19.1567 4.80103 19.0545 4.67906 18.4346 4.5957C17.7546 4.5043 16.8167 4.5 15.2988 4.5L8.70215 4.50098C7.18423 4.50098 6.24638 4.50527 5.56641 4.59668C4.94417 4.68036 4.84374 4.80274 4.82324 4.82324C4.80164 4.84459 4.67991 4.94773 4.59668 5.56641C4.50531 6.24621 4.50111 7.18319 4.50098 8.7002L4.50098 15.2988Z" fill="black"/>
</svg>
