<svg width="24" height="24" viewBox="0 0 24 24" fill="none" xmlns="http://www.w3.org/2000/svg">
<path fill-rule="evenodd" clip-rule="evenodd" d="M1.04606 9.8409C1.00639 9.58806 1.08978 9.33056 1.27067 9.14949C1.4019 9.01854 1.59052 8.9668 1.77946 8.93465C1.9766 8.90111 2.23837 8.87978 2.56462 8.85359L8.23747 8.39852C8.45007 8.38145 8.49756 8.37443 8.53435 8.35848C8.57484 8.34088 8.61158 8.31444 8.64079 8.28133C8.66712 8.25126 8.68918 8.20698 8.77067 8.01082L10.9543 2.75301C11.0801 2.45011 11.1817 2.20586 11.2746 2.0284C11.3636 1.8584 11.4715 1.69462 11.6369 1.61043C11.8651 1.49447 12.1353 1.49441 12.3634 1.61043C12.5289 1.69463 12.6367 1.85837 12.7258 2.0284C12.8186 2.20586 12.9193 2.4501 13.0451 2.75301L15.2297 8.01082C15.3112 8.20722 15.3332 8.25126 15.3595 8.28133C15.3888 8.31448 15.4254 8.34088 15.466 8.35848C15.5028 8.37442 15.5502 8.38144 15.7629 8.39852L21.4357 8.85359C21.762 8.87978 22.0237 8.9011 22.2209 8.93465C22.4098 8.96681 22.5984 9.01847 22.7297 9.14949C22.9106 9.33056 22.9939 9.58806 22.9543 9.8409C22.9254 10.0242 22.8031 10.1773 22.6691 10.3145C22.5294 10.4576 22.3295 10.6289 22.0812 10.8419L17.759 14.5489C17.5979 14.687 17.5626 14.7216 17.5422 14.7559C17.5198 14.7939 17.5054 14.8371 17.5011 14.8809C17.4974 14.9208 17.5056 14.9689 17.5549 15.1759L18.8752 20.7179C18.9511 21.0366 19.0131 21.2932 19.0422 21.4913C19.0699 21.6811 19.0786 21.8768 18.9943 22.0421C18.8779 22.2701 18.6592 22.4286 18.4064 22.4688C18.2229 22.4979 18.0394 22.4291 17.8674 22.3438C17.688 22.2549 17.4635 22.1174 17.1838 21.9464L12.3302 18.9776C12.1479 18.8661 12.1048 18.8438 12.0656 18.835C12.0226 18.8255 11.9778 18.8255 11.9347 18.835C11.8956 18.8438 11.8523 18.8662 11.6701 18.9776L6.81657 21.9464C6.53691 22.1174 6.31234 22.2549 6.13298 22.3438C5.9609 22.4292 5.77742 22.4979 5.59392 22.4688C5.34103 22.4286 5.1225 22.2701 5.00603 22.0421C4.92172 21.8768 4.93039 21.6811 4.95817 21.4913C4.98722 21.2932 5.04824 21.0366 5.12419 20.7179L6.44548 15.1759C6.49477 14.969 6.50294 14.9208 6.49919 14.8809C6.49496 14.8371 6.48057 14.7939 6.45817 14.7559C6.43777 14.7216 6.40257 14.6872 6.24138 14.5489L1.91813 10.8419C1.66963 10.6287 1.46995 10.4576 1.33024 10.3145C1.19632 10.1773 1.07498 10.0241 1.04606 9.8409ZM12.2502 18.3702C12.3607 18.4093 12.4672 18.4751 12.591 18.5509L17.4445 21.5196C17.7324 21.6957 17.9344 21.8188 18.089 21.8956C18.2499 21.9754 18.3098 21.9773 18.3273 21.9747C18.4224 21.9596 18.5052 21.9003 18.549 21.8145C18.5569 21.7985 18.573 21.7407 18.547 21.5636C18.522 21.3927 18.4671 21.1624 18.3888 20.8341L17.0685 15.2911C17.0274 15.1186 16.9906 14.9751 17.0041 14.8331C17.0153 14.7163 17.0519 14.603 17.1115 14.502C17.184 14.3793 17.2982 14.2854 17.4328 14.17L21.756 10.462C22.012 10.2424 22.1912 10.0883 22.3117 9.96492C22.4377 9.83583 22.4584 9.77988 22.4611 9.76277C22.4758 9.66788 22.444 9.57096 22.3761 9.50301C22.3634 9.49052 22.3135 9.45788 22.1369 9.42781C21.9669 9.39888 21.7318 9.37959 21.3957 9.35262L15.7228 8.89656C15.5457 8.88235 15.3978 8.8743 15.2668 8.81746C15.1589 8.77065 15.0623 8.70057 14.9845 8.61238C14.8902 8.5053 14.8368 8.36714 14.7687 8.2032L12.5842 2.94441C12.4546 2.63258 12.3635 2.4139 12.2834 2.26082C12.2721 2.23921 12.2602 2.22055 12.2502 2.2032V18.3702ZM11.4093 18.5509C11.5332 18.4751 11.6396 18.4093 11.7502 18.3702V17.1036L8.55974 20.294L11.4093 18.5509ZM5.45134 21.8145C5.49507 21.9002 5.57712 21.9595 5.67204 21.9747C5.68912 21.9774 5.74854 21.9758 5.91032 21.8956C6.06503 21.8188 6.26775 21.6958 6.55583 21.5196L6.73649 21.4093L11.7502 16.3966V13.1036L6.10759 18.7462L5.61052 20.8341C5.53231 21.1623 5.47834 21.3927 5.45329 21.5636C5.4273 21.7411 5.4434 21.7986 5.45134 21.8145ZM11.7502 12.3966V9.10359L6.6281 14.2257C6.73546 14.3181 6.82779 14.3987 6.88884 14.502C6.94845 14.603 6.98505 14.7163 6.99626 14.8331C7.00976 14.975 6.97291 15.1186 6.93181 15.2911L6.32927 17.8175L11.7502 12.3966ZM6.24919 13.8975L11.7502 8.39656V5.10359L9.64372 7.21004L9.23161 8.2032C9.16353 8.36711 9.11008 8.50531 9.01579 8.61238C8.93805 8.70052 8.84136 8.77065 8.73356 8.81746C8.60254 8.87428 8.45456 8.88236 8.27751 8.89656L7.92888 8.92488L4.47673 12.377L6.24919 13.8975ZM11.7502 4.39656V2.20223C11.7401 2.21977 11.7284 2.2389 11.717 2.26082C11.6369 2.41389 11.5457 2.63257 11.4162 2.94441L10.1467 6.00008L11.7502 4.39656ZM4.09587 12.0509L7.16032 8.98641L3.57927 9.27449L2.32341 10.5304L4.09587 12.0509ZM1.53923 9.76277C1.54192 9.77988 1.5626 9.83579 1.68864 9.96492C1.75498 10.0329 1.83863 10.1109 1.94353 10.2032L2.81071 9.33699L2.60466 9.35262C2.26862 9.37959 2.03345 9.3989 1.86345 9.42781C1.68728 9.45779 1.63709 9.49045 1.62419 9.50301C1.5563 9.57097 1.5245 9.66787 1.53923 9.76277Z" fill="black"/>
</svg>
