<svg width="24" height="24" viewBox="0 0 24 24" fill="none" xmlns="http://www.w3.org/2000/svg">
<path d="M10.5222 2.83346C10.9859 1.71735 11.2177 1.1593 11.5462 0.992107C11.8312 0.847032 12.1684 0.847032 12.4534 0.992107C12.7819 1.1593 13.0137 1.71735 13.4774 2.83346L15.2689 7.14594C15.4051 7.47387 15.4732 7.63784 15.5831 7.76237C15.6802 7.8725 15.8004 7.95988 15.9352 8.01831C16.0875 8.08437 16.2645 8.09858 16.6184 8.12699L21.272 8.50051C22.4744 8.59703 23.0756 8.64528 23.336 8.90584C23.5618 9.13193 23.666 9.45238 23.6164 9.76809C23.5591 10.1319 23.1013 10.5246 22.1856 11.3099L18.6372 14.3531C18.368 14.584 18.2334 14.6994 18.1491 14.8422C18.0746 14.9686 18.0287 15.1098 18.0148 15.2558C17.9991 15.4209 18.0402 15.5934 18.1224 15.9384L19.206 20.4865C19.4859 21.6613 19.6259 22.2487 19.4583 22.5769C19.3128 22.8616 19.04 23.0597 18.7242 23.1097C18.3603 23.1674 17.8452 22.8524 16.8148 22.2223L12.8345 19.7882C12.5314 19.6028 12.3798 19.5101 12.2176 19.4739C12.0742 19.4419 11.9255 19.4419 11.782 19.4739C11.6199 19.5101 11.4683 19.6028 11.1651 19.7882L7.1848 22.2223C6.15447 22.8524 5.6393 23.1674 5.27538 23.1097C4.95959 23.0597 4.68678 22.8616 4.54136 22.5769C4.37377 22.2487 4.51372 21.6613 4.79363 20.4865L5.8772 15.9384C5.9594 15.5934 6.0005 15.4209 5.98479 15.2558C5.9709 15.1098 5.92505 14.9686 5.85049 14.8422C5.76619 14.6994 5.63159 14.584 5.36238 14.3531L1.81405 11.3099C0.898367 10.5246 0.440528 10.1319 0.383266 9.76809C0.333576 9.45238 0.437783 9.13193 0.663665 8.90584C0.923972 8.64528 1.5252 8.59703 2.72764 8.50051L7.38117 8.12699C7.73514 8.09858 7.91213 8.08437 8.06446 8.01831C8.19919 7.95988 8.3194 7.8725 8.41654 7.76237C8.52638 7.63784 8.5945 7.47387 8.73073 7.14594L10.5222 2.83346Z" fill="black"/>
</svg>
