<svg width="24" height="24" viewBox="0 0 24 24" fill="none" xmlns="http://www.w3.org/2000/svg">
<path fill-rule="evenodd" clip-rule="evenodd" d="M15.4856 8.09415L13.6193 3.60703C13.5202 3.36872 13.4218 3.13202 13.3254 2.94797C13.2395 2.78406 13.0506 2.44255 12.6714 2.24961C12.2495 2.03496 11.7505 2.03496 11.3286 2.24961C10.9494 2.44255 10.7605 2.78406 10.6746 2.94796C10.5782 3.13201 10.4798 3.36869 10.3807 3.60699C10.376 3.61827 10.3713 3.62955 10.3666 3.64083L8.5144 8.09415L3.70666 8.47959C3.69449 8.48056 3.68232 8.48154 3.67015 8.48251C3.41289 8.50309 3.15738 8.52354 2.95254 8.55838C2.77012 8.5894 2.38696 8.6635 2.08627 8.96454C1.75176 9.29944 1.59753 9.7741 1.67131 10.2417C1.73762 10.6619 2.00405 10.9471 2.13339 11.0794C2.27864 11.228 2.47335 11.3948 2.66939 11.5626L6.36017 14.7242L5.23257 19.4513C5.17265 19.7024 5.11313 19.9517 5.08296 20.1573C5.0561 20.3403 5.00817 20.7277 5.20156 21.1066C5.4167 21.5283 5.82047 21.8216 6.28794 21.896C6.70815 21.9628 7.06169 21.7975 7.2275 21.7154C7.41371 21.6231 7.63246 21.4895 7.85269 21.3549L12 18.8218L16.1474 21.355C16.3676 21.4895 16.5863 21.6232 16.7725 21.7154C16.9383 21.7975 17.2919 21.9628 17.7121 21.896C18.1795 21.8216 18.5833 21.5283 18.7985 21.1066C18.9918 20.7277 18.9439 20.3403 18.917 20.1573C18.8869 19.9517 18.8274 19.7024 18.7675 19.4514L17.6398 14.7242L21.3307 11.5626C21.5267 11.3947 21.7214 11.228 21.8666 11.0794C21.996 10.9471 22.2624 10.6619 22.3287 10.2417C22.4025 9.7741 22.2483 9.29944 21.9137 8.96454C21.6131 8.6635 21.2299 8.5894 21.0475 8.55838C20.8426 8.52354 20.5871 8.50309 20.3298 8.48251L15.4856 8.09415ZM17.576 14.4508C17.5759 14.4506 17.5759 14.4506 17.576 14.4508ZM17.4275 14.9078C17.4274 14.9079 17.4273 14.908 17.4275 14.9078ZM6.57252 14.9078C6.57269 14.908 6.57268 14.908 6.57252 14.9078ZM6.42402 14.4508C6.42406 14.4506 6.42406 14.4506 6.42402 14.4508ZM8.40537 8.35285C8.40527 8.35306 8.40527 8.35305 8.40537 8.35285ZM11.7821 3.14088C11.6242 3.22118 11.5128 3.48908 11.29 4.02486L9.38354 8.60845C9.31801 8.76599 9.28525 8.84475 9.23246 8.90457C9.18576 8.95747 9.12799 8.99944 9.06325 9.0275C8.99005 9.05923 8.90502 9.06605 8.73495 9.07968L3.78657 9.47639C3.20815 9.52276 2.91893 9.54595 2.79379 9.67123C2.6852 9.77995 2.63514 9.93403 2.65909 10.0858C2.68669 10.2607 2.90704 10.4495 3.34774 10.827L7.11787 14.0565C7.24745 14.1675 7.31224 14.223 7.35281 14.2917C7.38869 14.3524 7.41076 14.4204 7.41744 14.4906C7.425 14.57 7.4052 14.653 7.36561 14.819L6.21378 19.6477C6.07914 20.2122 6.01181 20.4944 6.0923 20.6521C6.16214 20.789 6.2932 20.8842 6.44496 20.9084C6.61983 20.9362 6.86744 20.7849 7.36266 20.4824L11.5992 17.8948C11.7448 17.8059 11.8176 17.7614 11.8954 17.7441C11.9643 17.7287 12.0357 17.7287 12.1046 17.7441C12.1825 17.7614 12.2553 17.8059 12.4009 17.8948L16.6373 20.4824C17.1326 20.7849 17.3802 20.9362 17.5551 20.9084C17.7068 20.8842 17.8379 20.789 17.9077 20.6521C17.9882 20.4944 17.9209 20.2122 17.7862 19.6477L16.6344 14.819C16.5948 14.653 16.575 14.57 16.5826 14.4906C16.5892 14.4204 16.6113 14.3524 16.6472 14.2917C16.6878 14.223 16.7526 14.1675 16.8821 14.0565L20.6523 10.827C21.093 10.4495 21.3133 10.2607 21.3409 10.0858C21.3649 9.93403 21.3148 9.77995 21.2062 9.67123C21.0811 9.54595 20.7919 9.52276 20.2134 9.47639L15.2651 9.07968C15.095 9.06605 15.01 9.05923 14.9368 9.0275C14.872 8.99944 14.8142 8.95747 14.7676 8.90457C14.7148 8.84475 14.682 8.76599 14.6165 8.60845L12.7101 4.02487C12.4872 3.48908 12.3758 3.22118 12.218 3.14088C12.081 3.0712 11.919 3.0712 11.7821 3.14088Z" fill="black"/>
</svg>
