<svg width="24" height="24" viewBox="0 0 24 24" fill="none" xmlns="http://www.w3.org/2000/svg">
<path fill-rule="evenodd" clip-rule="evenodd" d="M15.4857 8.09391L13.6194 3.60678C13.5204 3.36847 13.422 3.13177 13.3255 2.94772C13.2397 2.78382 13.0508 2.44231 12.6716 2.24937C12.2497 2.03472 11.7506 2.03472 11.3287 2.24937C10.9495 2.44231 10.7606 2.78382 10.6747 2.94772C10.5783 3.13176 10.4799 3.36845 10.3808 3.60675C10.3761 3.61803 10.3715 3.62931 10.3668 3.64059L8.51452 8.09391L3.70679 8.47934C3.69461 8.48032 3.68244 8.48129 3.67027 8.48227C3.41301 8.50285 3.1575 8.52329 2.95266 8.55813C2.77024 8.58915 2.38708 8.66326 2.08639 8.9643C1.75188 9.2992 1.59766 9.77386 1.67143 10.2414C1.73775 10.6617 2.00417 10.9469 2.13352 11.0792C2.27877 11.2278 2.47348 11.3945 2.66951 11.5624L6.36029 14.7239L5.23269 19.4511C5.17277 19.7021 5.11325 19.9514 5.08308 20.157C5.05622 20.3401 5.00829 20.7274 5.20168 21.1064C5.41682 21.528 5.82059 21.8214 6.28807 21.8957C6.70827 21.9625 7.06181 21.7973 7.22763 21.7151C7.41383 21.6229 7.63258 21.4892 7.85281 21.3547L12.0001 18.8215L16.1475 21.3547C16.3677 21.4893 16.5865 21.6229 16.7726 21.7151C16.9384 21.7973 17.292 21.9625 17.7122 21.8957C18.1797 21.8214 18.5834 21.528 18.7986 21.1064C18.992 20.7274 18.944 20.3401 18.9172 20.157C18.887 19.9515 18.8275 19.7021 18.7676 19.4511L17.64 14.7239L21.3308 11.5624C21.5268 11.3945 21.7215 11.2278 21.8667 11.0792C21.9961 10.9469 22.2625 10.6617 22.3288 10.2414C22.4026 9.77386 22.2484 9.2992 21.9139 8.9643C21.6132 8.66326 21.23 8.58916 21.0476 8.55813C20.8428 8.52329 20.5872 8.50285 20.33 8.48227L15.4857 8.09391ZM17.5761 14.4506C17.5761 14.4503 17.5761 14.4503 17.5761 14.4506ZM17.4276 14.9075C17.4275 14.9077 17.4275 14.9077 17.4276 14.9075ZM6.57264 14.9076C6.57282 14.9077 6.5728 14.9077 6.57264 14.9076ZM6.42414 14.4506C6.42418 14.4504 6.42418 14.4504 6.42414 14.4506ZM8.40549 8.35261C8.40539 8.35282 8.4054 8.35281 8.40549 8.35261ZM11.7822 3.14064C11.6243 3.22094 11.5129 3.48883 11.2901 4.02462L9.38366 8.60821C9.31814 8.76574 9.28537 8.84451 9.23258 8.90432C9.18588 8.95722 9.12811 8.9992 9.06337 9.02726C8.99017 9.05899 8.90514 9.0658 8.73507 9.07944L3.7867 9.47615C3.20827 9.52252 2.91905 9.54571 2.79391 9.67099C2.68533 9.7797 2.63526 9.93378 2.65921 10.0856C2.68681 10.2605 2.90716 10.4492 3.34786 10.8267L7.118 14.0563C7.24757 14.1673 7.31236 14.2228 7.35293 14.2914C7.38882 14.3522 7.41088 14.4201 7.41756 14.4904C7.42512 14.5698 7.40532 14.6528 7.36574 14.8187L6.2139 19.6475C6.07926 20.2119 6.01194 20.4942 6.09242 20.6519C6.16226 20.7888 6.29333 20.884 6.44508 20.9081C6.61996 20.9359 6.86756 20.7847 7.36278 20.4822L11.5993 17.8946C11.7449 17.8056 11.8177 17.7612 11.8956 17.7438C11.9644 17.7285 12.0358 17.7285 12.1047 17.7438C12.1826 17.7612 12.2554 17.8056 12.401 17.8946L16.6375 20.4822C17.1327 20.7847 17.3803 20.9359 17.5552 20.9081C17.7069 20.884 17.838 20.7888 17.9078 20.6519C17.9883 20.4942 17.921 20.2119 17.7864 19.6475L16.6345 14.8187C16.5949 14.6528 16.5751 14.5698 16.5827 14.4904C16.5894 14.4201 16.6114 14.3522 16.6473 14.2914C16.6879 14.2228 16.7527 14.1673 16.8823 14.0563L20.6524 10.8267C21.0931 10.4492 21.3134 10.2605 21.341 10.0856C21.365 9.93378 21.3149 9.7797 21.2063 9.67099C21.0812 9.5457 20.792 9.52252 20.2136 9.47615L15.2652 9.07944C15.0951 9.0658 15.0101 9.05899 14.9369 9.02726C14.8721 8.9992 14.8144 8.95722 14.7677 8.90432C14.7149 8.84451 14.6821 8.76574 14.6166 8.60821L12.7102 4.02462C12.4873 3.48883 12.3759 3.22094 12.2181 3.14064C12.0811 3.07096 11.9191 3.07096 11.7822 3.14064Z" fill="black"/>
</svg>
