<svg width="24" height="24" viewBox="0 0 24 24" fill="none" xmlns="http://www.w3.org/2000/svg">
<path fill-rule="evenodd" clip-rule="evenodd" d="M13.5624 1.53456C13.8846 0.663937 15.116 0.663938 15.4381 1.53456L17.1767 6.23286C17.278 6.50657 17.4938 6.72239 17.7675 6.82367L22.4658 8.5622C23.3364 8.88436 23.3364 10.1157 22.4658 10.4379L17.7675 12.1764C17.4938 12.2777 17.278 12.4935 17.1767 12.7672L15.4381 17.4655C15.116 18.3362 13.8846 18.3362 13.5624 17.4655L11.8239 12.7672C11.7226 12.4935 11.5068 12.2777 11.2331 12.1764L6.5348 10.4379C5.66418 10.1157 5.66418 8.88436 6.5348 8.5622L11.2331 6.82367C11.5068 6.72239 11.7226 6.50657 11.8239 6.23286L13.5624 1.53456ZM14.5003 1.88159L16.2388 6.57989C16.4414 7.12733 16.873 7.55895 17.4205 7.76152L22.1188 9.50005L17.4205 11.2386C16.873 11.4411 16.4414 11.8728 16.2388 12.4202L14.5003 17.1185L12.7618 12.4202C12.5592 11.8728 12.1276 11.4411 11.5801 11.2386L6.88184 9.50005L11.5801 7.76152C12.1276 7.55895 12.5592 7.12733 12.7618 6.57989L14.5003 1.88159Z" fill="black"/>
<path fill-rule="evenodd" clip-rule="evenodd" d="M4.06244 15.5346C4.3846 14.6639 5.61599 14.6639 5.93815 15.5346L6.46126 16.9483C6.56255 17.222 6.77836 17.4378 7.05208 17.5391L8.46579 18.0622C9.33641 18.3844 9.33641 19.6157 8.46579 19.9379L7.05208 20.461C6.77836 20.5623 6.56255 20.7781 6.46127 21.0518L5.93815 22.4655C5.61599 23.3362 4.3846 23.3362 4.06244 22.4655L3.53932 21.0518C3.43804 20.7781 3.22223 20.5623 2.94851 20.461L1.5348 19.9379C0.664181 19.6157 0.664181 18.3844 1.5348 18.0622L2.94851 17.5391C3.22223 17.4378 3.43804 17.222 3.53932 16.9483L4.06244 15.5346ZM5.00029 15.8816L5.52341 17.2953C5.72598 17.8427 6.1576 18.2744 6.70504 18.4769L8.11875 19L6.70504 19.5232C6.15761 19.7257 5.72598 20.1574 5.52341 20.7048L5.00029 22.1185L4.47718 20.7048C4.27461 20.1574 3.84298 19.7257 3.29554 19.5232L1.88184 19L3.29554 18.4769C3.84298 18.2744 4.27461 17.8427 4.47718 17.2953L5.00029 15.8816Z" fill="black"/>
</svg>
