<svg width="24" height="24" viewBox="0 0 24 24" fill="none" xmlns="http://www.w3.org/2000/svg">
<path fill-rule="evenodd" clip-rule="evenodd" d="M12.3638 1.61062C12.1354 1.49438 11.8652 1.49438 11.6369 1.61062C11.4712 1.69494 11.3636 1.85857 11.2745 2.02885C11.1828 2.20403 11.0835 2.44309 10.9599 2.74059L8.77041 8.01115C8.68844 8.20846 8.66714 8.25139 8.6406 8.28148C8.61134 8.31466 8.57513 8.34098 8.53454 8.35858C8.49773 8.37455 8.45031 8.38156 8.23734 8.39866L2.55231 8.85497C2.2318 8.88069 1.97421 8.90137 1.77959 8.93449C1.59037 8.96669 1.4018 9.01851 1.27055 9.14988C1.08957 9.33104 1.00607 9.58779 1.04589 9.84075C1.07476 10.0242 1.19678 10.177 1.33087 10.3144C1.46878 10.4556 1.66494 10.6238 1.90902 10.8332L6.24196 14.5493C6.40394 14.6882 6.43811 14.7217 6.45848 14.7562C6.48094 14.7943 6.49476 14.8368 6.49894 14.8808C6.50274 14.9207 6.49477 14.9679 6.44532 15.1755L5.1218 20.7306C5.04719 21.0438 4.98723 21.2954 4.95859 21.491C4.93075 21.681 4.92177 21.8766 5.00628 22.042C5.1228 22.2702 5.34139 22.4289 5.59441 22.469C5.77793 22.4981 5.96106 22.429 6.13315 22.3436C6.31019 22.2558 6.5309 22.1208 6.80555 21.9529L11.6706 18.9777C11.853 18.8662 11.8955 18.8439 11.9347 18.8352C11.9779 18.8255 12.0227 18.8255 12.0659 18.8352C12.1051 18.8439 12.1476 18.8662 12.33 18.9777L17.1951 21.9529C17.4697 22.1208 17.6905 22.2558 17.8675 22.3436C18.0396 22.429 18.2227 22.4981 18.4062 22.469C18.6593 22.4289 18.8779 22.2702 18.9944 22.042C19.0789 21.8766 19.0699 21.681 19.0421 21.491C19.0134 21.2954 18.9535 21.0438 18.8788 20.7306L17.5553 15.1755C17.5059 14.9679 17.4979 14.9207 17.5017 14.8808C17.5059 14.8368 17.5197 14.7943 17.5422 14.7562C17.5625 14.7217 17.5967 14.6882 17.7587 14.5493L22.0917 10.8331C22.3357 10.6239 22.5319 10.4556 22.6698 10.3144C22.8039 10.177 22.9259 10.0242 22.9548 9.84075C22.9946 9.58779 22.9111 9.33104 22.7301 9.14988C22.5989 9.01851 22.4103 8.96669 22.2211 8.93449C22.0264 8.90137 21.7689 8.88069 21.4484 8.85497L15.7633 8.39866C15.5503 8.38156 15.5029 8.37455 15.4661 8.35858C15.4255 8.34098 15.3893 8.31466 15.3601 8.28148C15.3335 8.2514 15.3122 8.20846 15.2303 8.01115L13.0407 2.74059C12.9172 2.44309 12.8178 2.20403 12.7262 2.02885C12.637 1.85857 12.5294 1.69494 12.3638 1.61062ZM11.9999 2.02344C12.0469 2.02337 12.0939 2.0343 12.137 2.05622C12.1524 2.06406 12.1992 2.10032 12.2832 2.2607C12.3633 2.41384 12.4543 2.63217 12.584 2.94436L14.7809 8.23294C14.8435 8.38403 14.8963 8.51162 14.9851 8.61224C15.0629 8.70048 15.1592 8.77049 15.2672 8.81731C15.3903 8.87068 15.528 8.88158 15.691 8.89448L21.3955 9.35234C21.7318 9.37933 21.9671 9.39846 22.1372 9.4274C22.3153 9.45771 22.3641 9.49101 22.3764 9.50326C22.4444 9.57138 22.4758 9.66791 22.4609 9.76301C22.4582 9.78013 22.4382 9.83581 22.312 9.96506C22.1915 10.0885 22.0125 10.2424 21.7564 10.462L17.4086 14.1908C17.2845 14.297 17.1797 14.3867 17.1116 14.5021C17.0518 14.6033 17.0151 14.7164 17.004 14.8334C16.9913 14.9669 17.0234 15.101 17.0614 15.2598L18.3895 20.834C18.4678 21.1626 18.5223 21.3925 18.5473 21.5634C18.5736 21.7424 18.557 21.7992 18.5491 21.8146C18.5053 21.9004 18.4231 21.9601 18.328 21.9751C18.3109 21.9779 18.2517 21.976 18.0897 21.8957C17.9349 21.8189 17.7332 21.6958 17.445 21.5196L12.5632 18.5342C12.4237 18.4487 12.3059 18.3764 12.1748 18.3472C12.1172 18.3343 12.0586 18.3279 11.9999 18.328L11.9999 2.02344Z" fill="black"/>
</svg>
