<svg width="24" height="24" viewBox="0 0 24 24" fill="none" xmlns="http://www.w3.org/2000/svg">
<path fill-rule="evenodd" clip-rule="evenodd" d="M13.5624 1.53456C13.8846 0.663937 15.116 0.663938 15.4381 1.53456L17.1767 6.23286C17.278 6.50657 17.4938 6.72239 17.7675 6.82367L22.4658 8.5622C23.3364 8.88436 23.3364 10.1157 22.4658 10.4379L17.7675 12.1764C17.4938 12.2777 17.278 12.4935 17.1767 12.7672L15.4381 17.4655C15.116 18.3362 13.8846 18.3362 13.5624 17.4655L11.8239 12.7672C11.7226 12.4935 11.5068 12.2777 11.2331 12.1764L6.5348 10.4379C5.66418 10.1157 5.66418 8.88436 6.5348 8.5622L11.2331 6.82367C11.5068 6.72239 11.7226 6.50657 11.8239 6.23286L13.5624 1.53456ZM14.9692 1.70807L16.7077 6.40637C16.8597 6.81695 17.1834 7.14067 17.594 7.2926L22.2923 9.03112C22.7276 9.1922 22.7276 9.8079 22.2923 9.96898L17.594 11.7075C17.1834 11.8594 16.8597 12.1831 16.7077 12.5937L14.9692 17.292C14.8081 17.7273 14.1924 17.7273 14.0314 17.292L12.2928 12.5937C12.1409 12.1831 11.8172 11.8594 11.4066 11.7075L6.70832 9.96898C6.27301 9.8079 6.27301 9.1922 6.70832 9.03112L11.4066 7.2926C11.8172 7.14067 12.1409 6.81695 12.2928 6.40637L14.0314 1.70807C14.1924 1.27276 14.8081 1.27276 14.9692 1.70807Z" fill="black"/>
<path fill-rule="evenodd" clip-rule="evenodd" d="M4.06244 15.5346C4.3846 14.6639 5.61599 14.6639 5.93815 15.5346L6.46126 16.9483C6.56255 17.222 6.77836 17.4378 7.05208 17.5391L8.46579 18.0622C9.33641 18.3844 9.33641 19.6157 8.46579 19.9379L7.05208 20.461C6.77836 20.5623 6.56255 20.7781 6.46127 21.0518L5.93815 22.4655C5.61599 23.3362 4.3846 23.3362 4.06244 22.4655L3.53932 21.0518C3.43804 20.7781 3.22223 20.5623 2.94851 20.461L1.5348 19.9379C0.664181 19.6157 0.664181 18.3844 1.5348 18.0622L2.94851 17.5391C3.22223 17.4378 3.43804 17.222 3.53932 16.9483L4.06244 15.5346ZM5.46922 15.7081L5.99234 17.1218C6.14427 17.5324 6.46798 17.8561 6.87856 18.008L8.29227 18.5311C8.72758 18.6922 8.72758 19.3079 8.29227 19.469L6.87856 19.9921C6.46798 20.144 6.14427 20.4677 5.99234 20.8783L5.46922 22.292C5.30814 22.7273 4.69245 22.7273 4.53137 22.292L4.00825 20.8783C3.85632 20.4677 3.5326 20.144 3.12203 19.9921L1.70832 19.469C1.27301 19.3079 1.27301 18.6922 1.70832 18.5311L3.12203 18.008C3.5326 17.8561 3.85632 17.5324 4.00825 17.1218L4.53137 15.7081C4.69245 15.2728 5.30814 15.2728 5.46922 15.7081Z" fill="black"/>
</svg>
