<svg width="24" height="24" viewBox="0 0 24 24" fill="none" xmlns="http://www.w3.org/2000/svg">
<path fill-rule="evenodd" clip-rule="evenodd" d="M0.123117 8.43565C0 9.21298 0 10.142 0 12C0 13.858 0 14.787 0.123117 15.5643C0.800832 19.8433 4.15673 23.1992 8.43565 23.8769C9.21298 24 10.142 24 12 24C13.858 24 14.787 24 15.5643 23.8769C19.8433 23.1992 23.1992 19.8433 23.8769 15.5643C24 14.787 24 13.858 24 12C24 10.142 24 9.21298 23.8769 8.43565C23.1992 4.15673 19.8433 0.800832 15.5643 0.123117C14.787 0 13.858 0 12 0C10.142 0 9.21298 0 8.43565 0.123117C4.15673 0.800832 0.800832 4.15673 0.123117 8.43565ZM12.4339 4.00729C12.676 4.13049 12.7984 4.34961 12.8568 4.46129C12.9219 4.58554 12.9887 4.74626 13.0575 4.91182L13.0575 4.91185L13.0666 4.9338L14.7461 8.97342L19.1056 9.32308L19.1293 9.32498L19.1293 9.32498L19.1293 9.32498C19.3079 9.33928 19.4813 9.35316 19.6195 9.37668C19.7438 9.39782 19.9898 9.44652 20.1818 9.63864C20.3978 9.85489 20.4974 10.1614 20.4498 10.4633C20.4075 10.7315 20.2371 10.9156 20.149 11.0058C20.051 11.1061 19.9189 11.2192 19.7829 11.3358L19.7648 11.3513L16.4429 14.1981L17.4578 18.4544L17.4633 18.4775L17.4633 18.4776L17.4633 18.4777C17.5049 18.652 17.5453 18.8212 17.5656 18.9599C17.5839 19.0847 17.6136 19.3338 17.4901 19.5758C17.3511 19.848 17.0903 20.0375 16.7884 20.0854C16.5202 20.128 16.2924 20.0227 16.1795 19.9667C16.0538 19.9044 15.9053 19.8137 15.7524 19.7202L15.7321 19.7078L12.0002 17.4273L8.26831 19.7078L8.24805 19.7202L8.24804 19.7202C8.09509 19.8137 7.94661 19.9044 7.82094 19.9667C7.70798 20.0227 7.48025 20.128 7.21199 20.0854C6.91007 20.0375 6.64927 19.848 6.51029 19.5758C6.38681 19.3338 6.41653 19.0847 6.43482 18.9599C6.45517 18.8212 6.49555 18.6519 6.53715 18.4776L6.53715 18.4775L6.54266 18.4544L7.5575 14.1981L4.2356 11.3513L4.21756 11.3358L4.21755 11.3358C4.08149 11.2192 3.94939 11.1061 3.85141 11.0058C3.76331 10.9156 3.59291 10.7315 3.55063 10.4633C3.50303 10.1614 3.60265 9.85489 3.81866 9.63864C4.01057 9.44652 4.25663 9.39782 4.3809 9.37668C4.51913 9.35316 4.69254 9.33928 4.87115 9.32498L4.89481 9.32308L9.25435 8.97342L10.9338 4.9338L10.9429 4.91188L10.9429 4.91185L10.9429 4.91184C11.0117 4.74627 11.0785 4.58555 11.1436 4.46129C11.2021 4.34961 11.3244 4.13049 11.5665 4.00729C11.839 3.86863 12.1614 3.86863 12.4339 4.00729ZM12.0002 5.62482L11.9999 5.62565V16.1268C12.0698 16.1268 12.1397 16.1344 12.2083 16.1498C12.3706 16.1859 12.5112 16.2736 12.5825 16.3181L12.6024 16.3304L16.1888 18.522L15.2135 14.4315L15.208 14.4088L15.208 14.4088C15.1878 14.3273 15.1479 14.1666 15.1636 14.0012C15.1769 13.8615 15.2208 13.7264 15.2921 13.6056C15.3766 13.4625 15.5033 13.3559 15.5675 13.3019L15.5854 13.2867L18.7779 10.5508L14.5882 10.2148L14.5649 10.213C14.4811 10.2071 14.3158 10.1953 14.1633 10.1292C14.0345 10.0734 13.9196 9.98987 13.8267 9.88461C13.7167 9.75999 13.6545 9.60643 13.623 9.52862L13.6141 9.5069L12.0002 5.62482Z" fill="black"/>
</svg>
