<svg width="24" height="24" viewBox="0 0 24 24" fill="none" xmlns="http://www.w3.org/2000/svg">
<path fill-rule="evenodd" clip-rule="evenodd" d="M0.123117 8.43565C0 9.21298 0 10.142 0 12C0 13.858 0 14.787 0.123117 15.5643C0.800832 19.8433 4.15673 23.1992 8.43565 23.8769C9.21298 24 10.142 24 12 24C13.858 24 14.787 24 15.5643 23.8769C19.8433 23.1992 23.1992 19.8433 23.8769 15.5643C24 14.787 24 13.858 24 12C24 10.142 24 9.21298 23.8769 8.43565C23.1992 4.15673 19.8433 0.800832 15.5643 0.123117C14.787 0 13.858 0 12 0C10.142 0 9.21298 0 8.43565 0.123117C4.15673 0.800832 0.800832 4.15673 0.123117 8.43565ZM11.6975 4.16156C11.4785 4.27302 11.3239 4.64506 11.0148 5.38913L9.82049 8.26412C9.72967 8.48273 9.68426 8.59205 9.61103 8.67507C9.54627 8.74849 9.46613 8.80675 9.37631 8.8457C9.27475 8.88974 9.15677 8.89921 8.9208 8.91815L5.81843 9.16717C5.0168 9.23151 4.61598 9.26368 4.44244 9.43738C4.29185 9.58811 4.22238 9.80174 4.25551 10.0122C4.29368 10.2548 4.59891 10.5165 5.20936 11.0401L7.57492 13.0689C7.75439 13.2228 7.84413 13.2998 7.90033 13.395C7.95003 13.4792 7.9806 13.5733 7.98986 13.6707C8.00033 13.7808 7.97293 13.8958 7.91814 14.1258L7.19575 17.1578C7.00915 17.941 6.91585 18.3327 7.02757 18.5514C7.12452 18.7413 7.30639 18.8733 7.51692 18.9067C7.75954 18.9451 8.10298 18.7351 8.78987 18.315L11.4434 16.6923C11.6455 16.5687 11.7466 16.5069 11.8547 16.4828C11.9503 16.4614 12.0494 16.4614 12.1451 16.4828C12.2532 16.5069 12.3542 16.5687 12.5564 16.6923L15.2099 18.315C15.8968 18.7351 16.2402 18.9451 16.4828 18.9067C16.6934 18.8733 16.8752 18.7413 16.9722 18.5514C17.0839 18.3327 16.9906 17.941 16.804 17.1578L16.0816 14.1258C16.0268 13.8958 15.9994 13.7808 16.0099 13.6707C16.0191 13.5733 16.0497 13.4792 16.0994 13.395C16.1556 13.2998 16.2454 13.2228 16.4248 13.0689L18.7904 11.0401C19.4008 10.5165 19.7061 10.2548 19.7442 10.0122C19.7774 9.80174 19.7079 9.58811 19.5573 9.43738C19.3838 9.26368 18.983 9.23151 18.1813 9.16717L15.079 8.91815C14.843 8.89921 14.725 8.88974 14.6234 8.8457C14.5336 8.80675 14.4535 8.74849 14.3887 8.67507C14.3155 8.59205 14.2701 8.48275 14.1793 8.26413L12.9849 5.38913C12.6758 4.64506 12.5213 4.27302 12.3023 4.16156C12.1123 4.06485 11.8875 4.06485 11.6975 4.16156Z" fill="black"/>
</svg>
