<svg width="24" height="24" viewBox="0 0 24 24" fill="none" xmlns="http://www.w3.org/2000/svg">
<path fill-rule="evenodd" clip-rule="evenodd" d="M13.3337 2.19125C13.279 2.08704 13.0916 1.72941 12.6797 1.51993C12.2524 1.3026 11.747 1.3026 11.3197 1.51993C10.9078 1.72941 10.7204 2.08705 10.6658 2.19125L10.6641 2.19447C10.5981 2.32036 10.5348 2.47255 10.4874 2.58679L8.30713 7.82333L2.64825 8.27652C2.52471 8.28633 2.36029 8.29939 2.22006 8.32323L2.21639 8.32385C2.10042 8.34353 1.70193 8.41114 1.37516 8.73835C1.03622 9.07776 0.880032 9.55879 0.954949 10.0326C1.02717 10.4893 1.30994 10.7781 1.39223 10.8622L1.39484 10.8648C1.49432 10.9665 1.61973 11.0737 1.71394 11.1542L6.02417 14.8425L4.70727 20.3575C4.67844 20.4779 4.64005 20.6382 4.61937 20.7789L4.61884 20.7825C4.6017 20.8989 4.54286 21.2986 4.75281 21.7103C4.97062 22.1375 5.37952 22.4348 5.85303 22.5103C6.30949 22.583 6.67149 22.4038 6.77692 22.3516L6.78021 22.35C6.90765 22.287 7.04831 22.201 7.15393 22.1365L11.9997 19.1797L16.8455 22.1364C16.9511 22.201 17.0918 22.287 17.2192 22.35L17.2225 22.3516C17.3279 22.4038 17.6899 22.583 18.1464 22.5103C18.6199 22.4348 19.0288 22.1375 19.2466 21.7103C19.4566 21.2985 19.3977 20.8989 19.3806 20.7825L19.3801 20.7789C19.3594 20.6383 19.321 20.478 19.2922 20.3576L17.9753 14.8425L22.2855 11.1542C22.3797 11.0737 22.5051 10.9665 22.6046 10.8648L22.6072 10.8622C22.6895 10.7781 22.9723 10.4893 23.0445 10.0326C23.1194 9.55879 22.9632 9.07776 22.6243 8.73835C22.2975 8.41114 21.899 8.34353 21.7831 8.32385L21.7794 8.32323C21.6392 8.29939 21.4748 8.28633 21.3512 8.27652L15.6923 7.82333L13.5121 2.58676C13.4646 2.47253 13.4014 2.32035 13.3353 2.19447L13.3337 2.19125ZM11.9992 5.45994L11.9997 5.4586L13.5871 9.27131C13.6002 9.30282 13.6274 9.36845 13.6575 9.42973C13.6969 9.50993 13.7653 9.63496 13.8795 9.76434C14.0253 9.92935 14.2055 10.0603 14.4075 10.1478C14.5659 10.2164 14.706 10.2427 14.7944 10.2554C14.862 10.265 14.9328 10.2706 14.9669 10.2732L19.0845 10.603L15.9486 13.2865C15.9226 13.3086 15.8685 13.3548 15.8194 13.4024C15.7552 13.4646 15.6572 13.5683 15.5693 13.717C15.4572 13.9067 15.3882 14.1188 15.3674 14.3382C15.351 14.5102 15.3693 14.6517 15.3846 14.7398C15.3964 14.8071 15.413 14.8762 15.421 14.9094L15.423 14.9178L16.3794 18.9234L12.8518 16.771C12.8228 16.7532 12.7622 16.7161 12.7019 16.6843C12.6229 16.6425 12.4942 16.5816 12.3258 16.5441C12.2183 16.5202 12.1087 16.5082 11.9992 16.5083L11.9992 5.45994Z" fill="black"/>
</svg>
