<svg width="24" height="24" viewBox="0 0 24 24" fill="none" xmlns="http://www.w3.org/2000/svg">
<path fill-rule="evenodd" clip-rule="evenodd" d="M12.5773 1.68987C12.2146 1.5054 11.7856 1.5054 11.4229 1.68987C11.1119 1.84804 10.9474 2.13336 10.8574 2.30499C10.7596 2.49145 10.6577 2.73617 10.5467 3.00266L8.4367 8.06995L2.96171 8.50841C2.6734 8.53147 2.40872 8.55265 2.20086 8.58798C2.0097 8.62047 1.68702 8.6886 1.44022 8.93575C1.15248 9.22388 1.01991 9.63224 1.08352 10.0344C1.13808 10.3794 1.3592 10.6241 1.49482 10.7627C1.6423 10.9134 1.84405 11.086 2.06383 11.274L6.23386 14.842L4.95961 20.178C4.89249 20.4589 4.83085 20.717 4.80021 20.9254C4.77202 21.1172 4.73713 21.4448 4.89567 21.7558C5.08055 22.1184 5.42764 22.3708 5.8296 22.4349C6.17429 22.4898 6.47524 22.3556 6.64898 22.2697C6.83783 22.1763 7.06426 22.0381 7.31087 21.8876L12.0001 19.0268L16.6893 21.8876C16.9359 22.0381 17.1624 22.1763 17.3512 22.2697C17.525 22.3556 17.8259 22.4898 18.1706 22.4349C18.5726 22.3708 18.9196 22.1184 19.1045 21.7558C19.2631 21.4448 19.2282 21.1172 19.2 20.9254C19.1693 20.717 19.1077 20.459 19.0406 20.178L17.7663 14.842L21.9363 11.274C22.1561 11.086 22.3579 10.9134 22.5054 10.7627C22.641 10.6241 22.8621 10.3794 22.9167 10.0344C22.9803 9.63224 22.8477 9.22388 22.56 8.93575C22.3132 8.6886 21.9905 8.62046 21.7993 8.58798C21.5915 8.55265 21.3268 8.53148 21.0385 8.50841L15.5635 8.06996L13.4535 3.0027C13.3425 2.7362 13.2406 2.49146 13.1428 2.30498C13.0528 2.13336 12.8883 1.84804 12.5773 1.68987ZM11.9996 3.41638C11.9998 3.41597 11.9999 3.41556 12.0001 3.41515C12.0246 3.47334 12.0513 3.53741 12.0807 3.60812L14.1582 8.59737L14.1732 8.63377C14.2253 8.76099 14.3083 8.96388 14.453 9.12781C14.5768 9.26788 14.7298 9.379 14.9013 9.45329C15.1019 9.54023 15.3206 9.55636 15.4576 9.56648L15.4969 9.56946L20.8877 10.0011C20.9642 10.0073 21.0335 10.0129 21.0965 10.0181C21.0486 10.0594 20.9958 10.1046 20.9375 10.1545L16.8317 13.6676L16.8016 13.6931C16.6965 13.7819 16.5289 13.9235 16.4175 14.112C16.3223 14.273 16.2638 14.4531 16.246 14.6393C16.2253 14.8573 16.2776 15.0704 16.3104 15.2041L16.3197 15.2424L17.5744 20.496C17.5922 20.5706 17.6083 20.6382 17.6227 20.6997C17.5687 20.6669 17.5094 20.6308 17.4439 20.5909L12.8268 17.774L12.7933 17.7533C12.6765 17.6811 12.4902 17.5658 12.2769 17.5183C12.1856 17.498 12.0926 17.4878 11.9996 17.4879L11.9996 3.41638Z" fill="black"/>
</svg>
