<svg width="24" height="24" viewBox="0 0 24 24" fill="none" xmlns="http://www.w3.org/2000/svg">
<path fill-rule="evenodd" clip-rule="evenodd" d="M16.5188 6.67217L15.0184 3.06479C15.0115 3.04835 15.0045 3.03136 14.9972 3.01386C14.9063 2.79485 14.7831 2.49806 14.6541 2.25182L14.6503 2.24466C14.5436 2.04083 14.1714 1.3298 13.3517 0.912704C12.5024 0.480596 11.4977 0.480596 10.6484 0.912704C9.82861 1.3298 9.4564 2.04082 9.3497 2.24465L9.34595 2.25181C9.21693 2.49805 9.09374 2.79484 9.00283 3.01385C8.99557 3.03135 8.98851 3.04835 8.98167 3.06479L7.48128 6.67217L3.58681 6.98439C3.56905 6.98581 3.55069 6.98727 3.5318 6.98877C3.29542 7.00755 2.9751 7.033 2.70106 7.07961C2.69849 7.08005 2.69583 7.0805 2.69309 7.08096C2.46626 7.11945 1.67502 7.25373 1.02501 7.9045C0.351609 8.57869 0.041142 9.53421 0.189658 10.4755C0.333014 11.384 0.894214 11.9577 1.0551 12.1222L1.06075 12.128C1.25506 12.3267 1.49925 12.5356 1.67945 12.6898C1.69385 12.7021 1.70784 12.714 1.72137 12.7256L4.68854 15.2673L3.78202 19.0677C3.77789 19.085 3.7736 19.1029 3.76919 19.1213C3.71401 19.3519 3.63923 19.6645 3.59887 19.9395L3.5977 19.9475C3.56421 20.1751 3.44741 20.9691 3.86546 21.7884C4.29856 22.6372 5.11137 23.2277 6.05245 23.3774C6.96083 23.5218 7.67988 23.1653 7.88601 23.0631L7.89326 23.0595C8.14236 22.9362 8.41646 22.7685 8.61874 22.6447C8.63491 22.6348 8.65061 22.6252 8.66581 22.616L12 20.5794L15.3342 22.616C15.3494 22.6252 15.3651 22.6348 15.3813 22.6447C15.5836 22.7685 15.8577 22.9362 16.1068 23.0595L16.114 23.0631C16.3202 23.1653 17.0392 23.5218 17.9476 23.3774C18.8887 23.2277 19.7015 22.6372 20.1346 21.7884C20.5526 20.9691 20.4358 20.1751 20.4023 19.9475L20.4012 19.9395C20.3608 19.6645 20.286 19.352 20.2309 19.1214C20.2264 19.1029 20.2222 19.085 20.218 19.0677L19.3115 15.2673L22.2787 12.7256C22.2922 12.714 22.3062 12.7021 22.3206 12.6898C22.5008 12.5356 22.745 12.3267 22.9393 12.128L22.9449 12.1222C23.1058 11.9577 23.667 11.384 23.8104 10.4755C23.9589 9.53421 23.6484 8.57869 22.975 7.9045C22.325 7.25373 21.5338 7.11945 21.307 7.08096L21.299 7.07961C21.0249 7.033 20.7046 7.00755 20.4682 6.98877C20.4493 6.98727 20.431 6.98581 20.4132 6.98439L16.5188 6.67217ZM9.38355 8.60845C9.31803 8.76599 9.28527 8.84475 9.23247 8.90457C9.18578 8.95747 9.12801 8.99944 9.06327 9.0275C8.99007 9.05923 8.90503 9.06605 8.73496 9.07968L3.78659 9.47639C3.20816 9.52276 2.91895 9.54595 2.79381 9.67123C2.68522 9.77995 2.63516 9.93403 2.65911 10.0858C2.68671 10.2607 2.90706 10.4495 3.34776 10.827L7.11789 14.0565C7.24747 14.1675 7.31226 14.223 7.35283 14.2917C7.38871 14.3524 7.41078 14.4204 7.41746 14.4906C7.42501 14.57 7.40522 14.653 7.36563 14.819L6.2138 19.6477C6.07915 20.2122 6.01183 20.4944 6.09232 20.6521C6.16215 20.789 6.29322 20.8842 6.44497 20.9084C6.61985 20.9362 6.86745 20.7849 7.36268 20.4824L11.5992 17.8948C11.7448 17.8059 11.8176 17.7614 11.8954 17.7441C11.9643 17.7287 12.0357 17.7287 12.1046 17.7441C12.1825 17.7614 12.2553 17.8059 12.4009 17.8948L16.6374 20.4824C17.1326 20.7849 17.3802 20.9362 17.5551 20.9084C17.7068 20.8842 17.8379 20.789 17.9077 20.6521C17.9882 20.4944 17.9209 20.2122 17.7862 19.6477L16.6344 14.819C16.5948 14.653 16.575 14.57 16.5826 14.4906C16.5893 14.4204 16.6113 14.3524 16.6472 14.2917C16.6878 14.223 16.7526 14.1675 16.8822 14.0565L20.6523 10.827C21.093 10.4495 21.3133 10.2607 21.3409 10.0858C21.3649 9.93403 21.3148 9.77995 21.2062 9.67123C21.0811 9.54595 20.7919 9.52276 20.2135 9.47639L15.2651 9.07968C15.095 9.06605 15.01 9.05923 14.9368 9.0275C14.872 8.99944 14.8143 8.95747 14.7676 8.90457C14.7148 8.84475 14.682 8.76599 14.6165 8.60845L12.7101 4.02487C12.4872 3.48908 12.3758 3.22118 12.218 3.14088C12.081 3.0712 11.919 3.0712 11.7821 3.14088C11.6242 3.22118 11.5128 3.48908 11.29 4.02486L9.38355 8.60845Z" fill="black"/>
</svg>
