<svg width="24" height="24" viewBox="0 0 24 24" fill="none" xmlns="http://www.w3.org/2000/svg">
<path fill-rule="evenodd" clip-rule="evenodd" d="M0.123117 8.43565C0 9.21298 0 10.142 0 12C0 13.858 0 14.787 0.123117 15.5643C0.800832 19.8433 4.15673 23.1992 8.43565 23.8769C9.21298 24 10.142 24 12 24C13.858 24 14.787 24 15.5643 23.8769C19.8433 23.1992 23.1992 19.8433 23.8769 15.5643C24 14.787 24 13.858 24 12C24 10.142 24 9.21298 23.8769 8.43565C23.1992 4.15673 19.8433 0.800832 15.5643 0.123117C14.787 0 13.858 0 12 0C10.142 0 9.21298 0 8.43565 0.123117C4.15673 0.800832 0.800832 4.15673 0.123117 8.43565ZM12.4452 4.20645C12.7087 4.34052 12.8325 4.5736 12.877 4.6584C12.9294 4.75854 12.9814 4.88368 13.0277 4.99496L13.0277 4.99502L13.0277 4.99506L13.0363 5.01577L14.6899 8.9915L18.9821 9.3356L19.0044 9.33739L19.0045 9.3374C19.1246 9.34699 19.2597 9.35777 19.3712 9.37673C19.4656 9.39278 19.7255 9.43853 19.9344 9.64772C20.1566 9.8701 20.259 10.1853 20.21 10.4958C20.1639 10.7878 19.9805 10.9776 19.9136 11.0461C19.8345 11.1269 19.7316 11.2151 19.64 11.2935L19.623 11.3081L16.3528 14.1093L17.3519 18.2977L17.3571 18.3196L17.3571 18.3196C17.3851 18.4368 17.4166 18.5686 17.433 18.6805C17.4469 18.7752 17.4837 19.0366 17.3494 19.2999C17.2065 19.5799 16.9384 19.7747 16.628 19.8241C16.336 19.8705 16.0988 19.7547 16.013 19.7122C15.9117 19.662 15.796 19.5913 15.6932 19.5285L15.6932 19.5285L15.674 19.5168L11.9993 17.2723L8.32466 19.5168L8.3055 19.5285C8.20266 19.5913 8.08701 19.662 7.98568 19.7122C7.8999 19.7547 7.66271 19.8705 7.37072 19.8241C7.06029 19.7747 6.79218 19.5799 6.64932 19.2999C6.51493 19.0366 6.55175 18.7752 6.56565 18.6805C6.58206 18.5686 6.61355 18.4368 6.64156 18.3196L6.64156 18.3196L6.64678 18.2977L7.64587 14.1093L4.37571 11.3081L4.35864 11.2935L4.35863 11.2935C4.26707 11.2151 4.16411 11.1269 4.08507 11.0461C4.01816 10.9776 3.83475 10.7878 3.78867 10.4958C3.73968 10.1853 3.84209 9.87011 4.06422 9.64772C4.27317 9.43853 4.53311 9.39278 4.62748 9.37673C4.73896 9.35777 4.87407 9.34698 4.99421 9.33739H4.99423L5.0166 9.3356L9.30874 8.9915L10.9623 5.01577L10.971 4.99503L10.971 4.99502C11.0172 4.88372 11.0692 4.75856 11.1217 4.6584C11.1661 4.5736 11.29 4.34052 11.5535 4.20645C11.8336 4.06391 12.165 4.06391 12.4452 4.20645ZM11.9993 6.42848L11.9991 6.42901L11.9991 15.6835C12.0709 15.6835 12.1427 15.6914 12.2133 15.7071C12.3858 15.7455 12.5333 15.8395 12.5758 15.8665L12.5848 15.8722L15.6826 17.7643L14.8403 14.2334L14.8377 14.2232C14.8251 14.1743 14.7813 14.0051 14.7981 13.8291C14.8117 13.6854 14.8569 13.5465 14.9303 13.4222C15.0202 13.27 15.1551 13.1588 15.194 13.1267L15.2021 13.1199L17.9589 10.7584L14.3406 10.4683L14.33 10.4676H14.33H14.33C14.2796 10.4645 14.1051 10.4538 13.943 10.3835C13.8105 10.3261 13.6924 10.2403 13.5968 10.1321C13.4799 9.99952 13.4158 9.83686 13.3973 9.78994L13.3934 9.7801L11.9993 6.42848Z" fill="black"/>
</svg>
