<svg width="24" height="24" viewBox="0 0 24 24" fill="none" xmlns="http://www.w3.org/2000/svg">
<path fill-rule="evenodd" clip-rule="evenodd" d="M15.83 7.62016L14.095 3.44882C14.0892 3.43488 14.0834 3.42082 14.0775 3.40667C13.9819 3.17662 13.8755 2.92047 13.7683 2.71592C13.6772 2.54206 13.4275 2.07332 12.8982 1.80398C12.3338 1.51684 11.6662 1.51684 11.1019 1.80398C10.5725 2.07332 10.3228 2.54205 10.2317 2.71591C10.1245 2.92048 10.0181 3.17664 9.92249 3.40669C9.91661 3.42084 9.91078 3.43489 9.90498 3.44882L8.17002 7.62016L3.66671 7.98119C3.65167 7.98239 3.63649 7.98361 3.62122 7.98483C3.37289 8.00465 3.09637 8.02673 2.86871 8.06545C2.67521 8.09836 2.15226 8.19096 1.73252 8.61119C1.28504 9.05919 1.07874 9.69414 1.17743 10.3196C1.27 10.9063 1.63865 11.2886 1.77585 11.4289C1.93727 11.5941 2.148 11.7745 2.33725 11.9365C2.34889 11.9465 2.36045 11.9564 2.37191 11.9662L5.80296 14.9052L4.75472 19.2997C4.75122 19.3144 4.74768 19.3292 4.74412 19.3441C4.68624 19.5864 4.62179 19.8562 4.58827 20.0847C4.55977 20.2789 4.48623 20.8048 4.75619 21.3339C5.04399 21.8979 5.5841 22.2903 6.20944 22.3898C6.79603 22.483 7.27353 22.2505 7.44942 22.1634C7.65637 22.0609 7.89306 21.9163 8.10562 21.7863C8.11869 21.7783 8.13167 21.7704 8.14455 21.7626L12 19.4076L15.8555 21.7626C15.8684 21.7704 15.8813 21.7784 15.8944 21.7863C16.107 21.9163 16.3437 22.0609 16.5506 22.1634C16.7265 22.2505 17.204 22.483 17.7906 22.3898C18.4159 22.2903 18.956 21.8979 19.2438 21.3339C19.5138 20.8048 19.4403 20.2789 19.4118 20.0847C19.3782 19.8562 19.3138 19.5864 19.2559 19.3441C19.2523 19.3292 19.2488 19.3144 19.2453 19.2997L18.1971 14.9052L21.6281 11.9662C21.6396 11.9564 21.6511 11.9465 21.6628 11.9365C21.852 11.7745 22.0627 11.5941 22.2242 11.4289C22.3614 11.2886 22.73 10.9063 22.8226 10.3196C22.9213 9.69414 22.715 9.05919 22.2675 8.61119C21.8478 8.19096 21.3248 8.09836 21.1313 8.06545C20.9036 8.02673 20.6271 8.00465 20.3788 7.98483C20.3635 7.98361 20.3484 7.98239 20.3333 7.98119L15.83 7.62016ZM9.38354 8.60845C9.31802 8.76599 9.28526 8.84475 9.23246 8.90457C9.18577 8.95747 9.128 8.99944 9.06326 9.0275C8.99006 9.05923 8.90502 9.06605 8.73495 9.07968L3.78658 9.47639C3.20815 9.52276 2.91894 9.54595 2.7938 9.67123C2.68521 9.77995 2.63515 9.93403 2.65909 10.0858C2.68669 10.2607 2.90704 10.4495 3.34775 10.827L7.11788 14.0565C7.24746 14.1675 7.31224 14.223 7.35282 14.2917C7.3887 14.3524 7.41077 14.4204 7.41745 14.4906C7.425 14.57 7.40521 14.653 7.36562 14.819L6.21378 19.6477C6.07914 20.2122 6.01182 20.4944 6.0923 20.6521C6.16214 20.789 6.29321 20.8842 6.44496 20.9084C6.61984 20.9362 6.86744 20.7849 7.36267 20.4824L11.5992 17.8948C11.7448 17.8059 11.8176 17.7614 11.8954 17.7441C11.9643 17.7287 12.0357 17.7287 12.1046 17.7441C12.1825 17.7614 12.2553 17.8059 12.4009 17.8948L16.6374 20.4824C17.1326 20.7849 17.3802 20.9362 17.5551 20.9084C17.7068 20.8842 17.8379 20.789 17.9077 20.6521C17.9882 20.4944 17.9209 20.2122 17.7862 19.6477L16.6344 14.819C16.5948 14.653 16.575 14.57 16.5826 14.4906C16.5893 14.4204 16.6113 14.3524 16.6472 14.2917C16.6878 14.223 16.7526 14.1675 16.8821 14.0565L20.6523 10.827C21.093 10.4495 21.3133 10.2607 21.3409 10.0858C21.3649 9.93403 21.3148 9.77995 21.2062 9.67123C21.0811 9.54595 20.7919 9.52276 20.2134 9.47639L15.2651 9.07968C15.095 9.06605 15.01 9.05923 14.9368 9.0275C14.872 8.99944 14.8143 8.95747 14.7676 8.90457C14.7148 8.84475 14.682 8.76599 14.6165 8.60845L12.7101 4.02487C12.4872 3.48908 12.3758 3.22118 12.218 3.14088C12.081 3.0712 11.919 3.0712 11.7821 3.14088C11.6242 3.22118 11.5128 3.48908 11.29 4.02486L9.38354 8.60845Z" fill="black"/>
</svg>
