<svg width="24" height="24" viewBox="0 0 24 24" fill="none" xmlns="http://www.w3.org/2000/svg">
<path fill-rule="evenodd" clip-rule="evenodd" d="M13.5622 1.53456C13.8844 0.663937 15.1157 0.663938 15.4379 1.53456L17.1764 6.23286C17.2777 6.50657 17.4935 6.72239 17.7672 6.82367L22.4655 8.5622C23.3362 8.88436 23.3362 10.1157 22.4655 10.4379L17.7672 12.1764C17.4935 12.2777 17.2777 12.4935 17.1764 12.7672L15.4379 17.4655C15.1157 18.3362 13.8844 18.3362 13.5622 17.4655L11.8237 12.7672C11.7224 12.4935 11.5066 12.2777 11.2329 12.1764L6.53456 10.4379C5.66394 10.1157 5.66394 8.88436 6.53456 8.5622L11.2329 6.82367C11.5066 6.72239 11.7224 6.50657 11.8237 6.23286L13.5622 1.53456ZM14.5 1.88159L16.2386 6.57989C16.4411 7.12733 16.8728 7.55895 17.4202 7.76152L22.1185 9.50005L17.4202 11.2386C16.8728 11.4411 16.4411 11.8728 16.2386 12.4202L14.5 17.1185L12.7615 12.4202C12.559 11.8728 12.1273 11.4411 11.5799 11.2386L6.88159 9.50005L11.5799 7.76152C12.1273 7.55895 12.559 7.12733 12.7615 6.57989L14.5 1.88159Z" fill="black"/>
<path fill-rule="evenodd" clip-rule="evenodd" d="M4.0622 15.5346C4.38436 14.6639 5.61574 14.6639 5.9379 15.5346L6.46102 16.9483C6.56231 17.222 6.77812 17.4378 7.05184 17.5391L8.46554 18.0622C9.33616 18.3844 9.33616 19.6157 8.46554 19.9379L7.05184 20.461C6.77812 20.5623 6.56231 20.7781 6.46102 21.0518L5.9379 22.4655C5.61574 23.3362 4.38436 23.3362 4.0622 22.4655L3.53908 21.0518C3.43779 20.7781 3.22198 20.5623 2.94826 20.461L1.53456 19.9379C0.663937 19.6157 0.663937 18.3844 1.53456 18.0622L2.94826 17.5391C3.22198 17.4378 3.43779 17.222 3.53908 16.9483L4.0622 15.5346ZM5.00005 15.8816L5.52317 17.2953C5.72574 17.8427 6.15736 18.2744 6.7048 18.4769L8.11851 19L6.7048 19.5232C6.15736 19.7257 5.72574 20.1574 5.52317 20.7048L5.00005 22.1185L4.47693 20.7048C4.27436 20.1574 3.84274 19.7257 3.2953 19.5232L1.88159 19L3.2953 18.4769C3.84274 18.2744 4.27436 17.8427 4.47693 17.2953L5.00005 15.8816Z" fill="black"/>
</svg>
