<svg width="24" height="24" viewBox="0 0 24 24" fill="none" xmlns="http://www.w3.org/2000/svg">
<path fill-rule="evenodd" clip-rule="evenodd" d="M16.5189 6.67192L15.0185 3.06455C15.0117 3.04811 15.0046 3.03111 14.9973 3.01362C14.9064 2.79461 14.7832 2.49781 14.6542 2.25157L14.6505 2.24441C14.5438 2.04058 14.1716 1.32956 13.3518 0.91246C12.5025 0.480352 11.4978 0.480352 10.6485 0.91246C9.82873 1.32956 9.45652 2.04058 9.34982 2.24441L9.34607 2.25157C9.21705 2.49781 9.09386 2.79459 9.00295 3.0136C8.99569 3.0311 8.98863 3.0481 8.9818 3.06454L7.4814 6.67192L3.58693 6.98414C3.56918 6.98556 3.55082 6.98702 3.53192 6.98852C3.29554 7.00731 2.97522 7.03276 2.70118 7.07936C2.69861 7.0798 2.69595 7.08025 2.69321 7.08072C2.46639 7.11921 1.67514 7.25348 1.02513 7.90425C0.351731 8.57844 0.0412641 9.53396 0.18978 10.4752C0.333136 11.3838 0.894336 11.9575 1.05522 12.1219L1.06087 12.1277C1.25519 12.3265 1.49937 12.5354 1.67957 12.6895C1.69397 12.7018 1.70796 12.7138 1.72149 12.7254L4.68866 15.2671L3.78214 19.0674C3.77801 19.0847 3.77373 19.1027 3.76932 19.1211C3.71413 19.3517 3.63935 19.6642 3.59899 19.9392L3.59782 19.9472C3.56433 20.1749 3.44753 20.9689 3.86558 21.7882C4.29868 22.6369 5.1115 23.2275 6.05257 23.3771C6.96095 23.5215 7.68 23.1651 7.88614 23.0629L7.89338 23.0593C8.14248 22.9359 8.41659 22.7682 8.61886 22.6445C8.63503 22.6346 8.65074 22.625 8.66593 22.6157L12.0001 20.5792L15.3344 22.6157C15.3495 22.625 15.3653 22.6346 15.3814 22.6445C15.5837 22.7682 15.8578 22.9359 16.1069 23.0593L16.1142 23.0629C16.3203 23.1651 17.0393 23.5215 17.9477 23.3771C18.8888 23.2275 19.7016 22.6369 20.1347 21.7882C20.5528 20.9689 20.436 20.1749 20.4025 19.9472L20.4013 19.9392C20.3609 19.6642 20.2862 19.3517 20.231 19.1211C20.2266 19.1027 20.2223 19.0848 20.2181 19.0674L19.3116 15.2671L22.2788 12.7254C22.2923 12.7138 22.3063 12.7018 22.3207 12.6895C22.5009 12.5354 22.7451 12.3265 22.9394 12.1277L22.9451 12.1219C23.1059 11.9575 23.6672 11.3838 23.8105 10.4752C23.959 9.53396 23.6486 8.57844 22.9752 7.90425C22.3251 7.25348 21.5339 7.11921 21.3071 7.08072L21.2991 7.07936C21.0251 7.03276 20.7047 7.00731 20.4684 6.98852C20.4495 6.98702 20.4311 6.98556 20.4134 6.98414L16.5189 6.67192ZM9.38367 8.60821C9.31815 8.76574 9.28539 8.84451 9.23259 8.90432C9.1859 8.95722 9.12813 8.9992 9.06339 9.02726C8.99019 9.05899 8.90516 9.0658 8.73508 9.07944L3.78671 9.47615C3.20828 9.52252 2.91907 9.54571 2.79393 9.67099C2.68534 9.7797 2.63528 9.93379 2.65923 10.0856C2.68683 10.2605 2.90718 10.4492 3.34788 10.8267L7.11801 14.0563C7.24759 14.1673 7.31238 14.2228 7.35295 14.2914C7.38883 14.3522 7.4109 14.4201 7.41758 14.4904C7.42514 14.5698 7.40534 14.6528 7.36575 14.8187L6.21392 19.6475C6.07928 20.2119 6.01195 20.4942 6.09244 20.6519C6.16228 20.7888 6.29334 20.884 6.4451 20.9081C6.61997 20.9359 6.86758 20.7847 7.3628 20.4822L11.5993 17.8946C11.7449 17.8056 11.8177 17.7612 11.8956 17.7438C11.9644 17.7285 12.0358 17.7285 12.1047 17.7438C12.1826 17.7612 12.2554 17.8056 12.401 17.8946L16.6375 20.4822C17.1327 20.7847 17.3803 20.9359 17.5552 20.9081C17.7069 20.884 17.838 20.7888 17.9079 20.6519C17.9883 20.4942 17.921 20.2119 17.7864 19.6475L16.6345 14.8187C16.5949 14.6528 16.5752 14.5698 16.5827 14.4904C16.5894 14.4201 16.6115 14.3522 16.6473 14.2914C16.6879 14.2228 16.7527 14.1673 16.8823 14.0563L20.6524 10.8267C21.0931 10.4492 21.3135 10.2605 21.3411 10.0856C21.365 9.93379 21.3149 9.7797 21.2064 9.67099C21.0812 9.5457 20.792 9.52252 20.2136 9.47615L15.2652 9.07944C15.0951 9.0658 15.0101 9.05899 14.9369 9.02726C14.8722 8.9992 14.8144 8.95722 14.7677 8.90432C14.7149 8.84451 14.6821 8.76574 14.6166 8.60821L12.7102 4.02462C12.4873 3.48883 12.3759 3.22094 12.2181 3.14064C12.0811 3.07096 11.9191 3.07096 11.7822 3.14064C11.6244 3.22094 11.5129 3.48883 11.2901 4.02462L9.38367 8.60821Z" fill="black"/>
</svg>
