<svg width="24" height="24" viewBox="0 0 24 24" fill="none" xmlns="http://www.w3.org/2000/svg">
<path fill-rule="evenodd" clip-rule="evenodd" d="M15.0783 8.41619C15.1108 8.49445 15.1286 8.53666 15.1426 8.56615C15.175 8.57042 15.2206 8.57426 15.3051 8.58104L20.276 8.97955C20.5459 9.00118 20.7814 9.02004 20.9638 9.05105C21.1351 9.08019 21.3785 9.1358 21.5601 9.31764C21.7816 9.53945 21.8838 9.85382 21.8349 10.1635C21.7949 10.4174 21.6307 10.6054 21.5092 10.7297C21.3799 10.8619 21.2005 11.0156 20.9948 11.1918L17.2075 14.436C17.1432 14.4911 17.1085 14.5211 17.0848 14.5436C17.0908 14.5757 17.1012 14.6203 17.1209 14.7027L18.278 19.5535C18.3408 19.8169 18.3956 20.0466 18.4225 20.2296C18.4477 20.4016 18.47 20.6502 18.3532 20.8792C18.2107 21.1584 17.9433 21.3527 17.6337 21.4019C17.3799 21.4423 17.1503 21.3442 16.9945 21.2671C16.8288 21.185 16.6272 21.0618 16.3961 20.9206L12.1403 18.3213C12.068 18.2771 12.0288 18.2534 12.0001 18.2378C11.9714 18.2534 11.9322 18.2771 11.8599 18.3213L7.60404 20.9207C7.37299 21.0619 7.17143 21.185 7.00571 21.2671C6.84997 21.3442 6.62039 21.4423 6.36657 21.4019C6.05695 21.3527 5.78953 21.1584 5.64704 20.8792C5.53023 20.6502 5.55255 20.4016 5.57778 20.2296C5.60463 20.0466 5.65946 19.8168 5.7223 19.5534L6.87938 14.7027C6.89904 14.6203 6.90948 14.5757 6.91543 14.5436C6.89174 14.5211 6.85709 14.4911 6.79271 14.436L3.00539 11.1917C2.79974 11.0156 2.62034 10.8619 2.49106 10.7297C2.36958 10.6054 2.20537 10.4174 2.16532 10.1635C2.11645 9.85382 2.2186 9.53945 2.44015 9.31764C2.62178 9.1358 2.86515 9.08019 3.03648 9.05105C3.21882 9.02004 3.4543 9.00118 3.72423 8.97955L8.6951 8.58104C8.77959 8.57426 8.82522 8.57042 8.85761 8.56615C8.87168 8.53666 8.88944 8.49445 8.92199 8.41619L10.8371 3.81172C10.9411 3.56171 11.0318 3.3436 11.1176 3.17977C11.1983 3.02583 11.3264 2.81155 11.5554 2.695C11.8348 2.55284 12.1654 2.55284 12.4448 2.695C12.6739 2.81155 12.802 3.02583 12.8826 3.17977C12.9685 3.3436 13.0592 3.56171 13.1631 3.81173L15.0783 8.41619ZM11.7822 3.14064C11.6243 3.22094 11.5129 3.48883 11.2901 4.02462L9.38365 8.60821C9.31813 8.76574 9.28537 8.84451 9.23257 8.90432C9.18588 8.95722 9.12811 8.9992 9.06337 9.02726C8.99017 9.05899 8.90513 9.0658 8.73507 9.07944L3.78669 9.47615C3.20826 9.52252 2.91905 9.54571 2.79391 9.67099C2.68532 9.7797 2.63526 9.93378 2.65921 10.0856C2.6868 10.2605 2.90716 10.4492 3.34786 10.8267L7.11799 14.0563C7.24757 14.1673 7.31236 14.2228 7.35293 14.2914C7.38881 14.3522 7.41088 14.4201 7.41756 14.4904C7.42511 14.5698 7.40532 14.6528 7.36573 14.8187L6.21389 19.6475C6.07925 20.2119 6.01193 20.4942 6.09241 20.6519C6.16225 20.7888 6.29332 20.884 6.44507 20.9081C6.61995 20.9359 6.86755 20.7847 7.36278 20.4822L11.5993 17.8946C11.7449 17.8056 11.8177 17.7612 11.8955 17.7438C11.9644 17.7285 12.0358 17.7285 12.1047 17.7438C12.1826 17.7612 12.2554 17.8056 12.401 17.8946L16.6375 20.4822C17.1327 20.7847 17.3803 20.9359 17.5552 20.9081C17.7069 20.884 17.838 20.7888 17.9078 20.6519C17.9883 20.4942 17.921 20.2119 17.7863 19.6475L16.6345 14.8187C16.5949 14.6528 16.5751 14.5698 16.5827 14.4904C16.5894 14.4201 16.6114 14.3522 16.6473 14.2914C16.6879 14.2228 16.7527 14.1673 16.8823 14.0563L20.6524 10.8267C21.0931 10.4492 21.3134 10.2605 21.341 10.0856C21.365 9.93378 21.3149 9.7797 21.2063 9.67099C21.0812 9.5457 20.792 9.52252 20.2136 9.47615L15.2652 9.07944C15.0951 9.0658 15.0101 9.05899 14.9369 9.02726C14.8721 8.9992 14.8144 8.95722 14.7677 8.90432C14.7149 8.84451 14.6821 8.76574 14.6166 8.60821L12.7102 4.02462C12.4873 3.48883 12.3759 3.22094 12.2181 3.14064C12.0811 3.07096 11.9191 3.07096 11.7822 3.14064Z" fill="black"/>
</svg>
