<svg width="24" height="24" viewBox="0 0 24 24" fill="none" xmlns="http://www.w3.org/2000/svg">
<path fill-rule="evenodd" clip-rule="evenodd" d="M13.5622 1.53456C13.8844 0.663937 15.1157 0.663938 15.4379 1.53456L17.1764 6.23286C17.2777 6.50657 17.4935 6.72239 17.7672 6.82367L22.4655 8.5622C23.3362 8.88436 23.3362 10.1157 22.4655 10.4379L17.7672 12.1764C17.4935 12.2777 17.2777 12.4935 17.1764 12.7672L15.4379 17.4655C15.1157 18.3362 13.8844 18.3362 13.5622 17.4655L11.8237 12.7672C11.7224 12.4935 11.5066 12.2777 11.2329 12.1764L6.53456 10.4379C5.66394 10.1157 5.66394 8.88436 6.53456 8.5622L11.2329 6.82367C11.5066 6.72239 11.7224 6.50657 11.8237 6.23286L13.5622 1.53456ZM14.969 1.70807L16.7075 6.40637C16.8594 6.81695 17.1831 7.14067 17.5937 7.2926L22.292 9.03112C22.7273 9.1922 22.7273 9.8079 22.292 9.96898L17.5937 11.7075C17.1831 11.8594 16.8594 12.1831 16.7075 12.5937L14.969 17.292C14.8079 17.7273 14.1922 17.7273 14.0311 17.292L12.2926 12.5937C12.1407 12.1831 11.817 11.8594 11.4064 11.7075L6.70807 9.96898C6.27276 9.8079 6.27276 9.1922 6.70808 9.03112L11.4064 7.2926C11.817 7.14067 12.1407 6.81695 12.2926 6.40637L14.0311 1.70807C14.1922 1.27276 14.8079 1.27276 14.969 1.70807Z" fill="black"/>
<path fill-rule="evenodd" clip-rule="evenodd" d="M4.0622 15.5346C4.38436 14.6639 5.61574 14.6639 5.9379 15.5346L6.46102 16.9483C6.56231 17.222 6.77812 17.4378 7.05184 17.5391L8.46554 18.0622C9.33616 18.3844 9.33616 19.6157 8.46554 19.9379L7.05184 20.461C6.77812 20.5623 6.56231 20.7781 6.46102 21.0518L5.9379 22.4655C5.61574 23.3362 4.38436 23.3362 4.0622 22.4655L3.53908 21.0518C3.43779 20.7781 3.22198 20.5623 2.94826 20.461L1.53456 19.9379C0.663937 19.6157 0.663937 18.3844 1.53456 18.0622L2.94826 17.5391C3.22198 17.4378 3.43779 17.222 3.53908 16.9483L4.0622 15.5346ZM5.46898 15.7081L5.99209 17.1218C6.14402 17.5324 6.46774 17.8561 6.87832 18.008L8.29203 18.5311C8.72734 18.6922 8.72734 19.3079 8.29203 19.469L6.87832 19.9921C6.46774 20.144 6.14402 20.4677 5.99209 20.8783L5.46898 22.292C5.3079 22.7273 4.6922 22.7273 4.53112 22.292L4.00801 20.8783C3.85608 20.4677 3.53236 20.144 3.12178 19.9921L1.70807 19.469C1.27276 19.3079 1.27276 18.6922 1.70807 18.5311L3.12178 18.008C3.53236 17.8561 3.85608 17.5324 4.00801 17.1218L4.53112 15.7081C4.6922 15.2728 5.3079 15.2728 5.46898 15.7081Z" fill="black"/>
</svg>
