<svg width="24" height="24" viewBox="0 0 24 24" fill="none" xmlns="http://www.w3.org/2000/svg">
<path fill-rule="evenodd" clip-rule="evenodd" d="M13.1701 2.21071C13.1109 2.09765 12.9458 1.78688 12.5944 1.60811C12.2209 1.41806 11.779 1.41806 11.4055 1.60811C11.0541 1.78688 10.889 2.09765 10.8298 2.21071C10.7598 2.34427 10.6905 2.51116 10.6288 2.65957L8.41251 7.98818L2.65979 8.44937C2.4996 8.46216 2.31945 8.47654 2.17082 8.50182C2.04499 8.52322 1.6984 8.58422 1.41981 8.86314C1.12364 9.15965 0.987093 9.5799 1.05241 9.99388C1.11385 10.3833 1.35839 10.6363 1.44762 10.7276C1.553 10.8354 1.69029 10.953 1.81237 11.0575L6.19534 14.8119L4.85627 20.4256C4.81893 20.5819 4.77694 20.7577 4.75505 20.9068C4.73652 21.0331 4.68743 21.3816 4.8666 21.7328C5.05709 22.1061 5.41457 22.3658 5.82847 22.4316C6.2178 22.4935 6.53405 22.3391 6.64843 22.2825C6.78352 22.2156 6.9377 22.1213 7.07481 22.0375L12 19.0292L16.925 22.0375C17.0622 22.1213 17.2164 22.2155 17.3515 22.2825C17.4659 22.3391 17.7821 22.4935 18.1715 22.4316C18.5854 22.3658 18.9428 22.1061 19.1333 21.7328C19.3125 21.3816 19.2634 21.0331 19.2449 20.9068C19.223 20.7577 19.181 20.5819 19.1437 20.4257L17.8046 14.8119L22.1876 11.0575C22.3096 10.953 22.4469 10.8354 22.5523 10.7276C22.6415 10.6363 22.8861 10.3833 22.9475 9.99388C23.0128 9.5799 22.8763 9.15965 22.5801 8.86314C22.3015 8.58422 21.9549 8.52322 21.8291 8.50182C21.6805 8.47654 21.5003 8.46216 21.3402 8.44937L15.5874 7.98818L13.3711 2.65954C13.3095 2.51114 13.2401 2.34426 13.1701 2.21071ZM11.9994 4.5722L12 4.57083L13.8586 9.03965L13.8639 9.05277C13.8885 9.11533 13.974 9.33221 14.13 9.50892C14.2573 9.65321 14.4149 9.76769 14.5915 9.84422C14.8077 9.93796 15.0404 9.95222 15.1075 9.95633L15.1216 9.95726L19.9461 10.344L16.2704 13.4927L16.2595 13.5017C16.2076 13.5445 16.0278 13.6928 15.9079 13.8958C15.81 14.0615 15.7498 14.2467 15.7316 14.4383C15.7093 14.6729 15.7676 14.8986 15.7845 14.9637L15.7879 14.9774L16.9109 19.6853L12.7805 17.1624L12.7686 17.1549C12.7119 17.1188 12.5152 16.9936 12.2852 16.9423C12.1911 16.9213 12.0952 16.9108 11.9994 16.9109L11.9994 4.5722Z" fill="black"/>
</svg>
