<svg width="24" height="24" viewBox="0 0 24 24" fill="none" xmlns="http://www.w3.org/2000/svg">
<path fill-rule="evenodd" clip-rule="evenodd" d="M16.1744 7.14616L14.5567 3.2568C14.5502 3.24125 14.5436 3.22539 14.5369 3.20926C14.444 2.98539 14.3292 2.70916 14.2112 2.48387L14.2102 2.48189C14.1127 2.2958 13.802 1.70285 13.1249 1.35834C12.4181 0.998718 11.5819 0.998718 10.8751 1.35834C10.198 1.70284 9.88736 2.2958 9.78987 2.48188L9.78883 2.48386C9.67079 2.70915 9.55607 2.98538 9.46309 3.20925C9.45638 3.22539 9.4498 3.24125 9.44333 3.2568L7.82565 7.14616L3.62676 7.48279C3.60997 7.48413 3.59285 7.4855 3.57543 7.48688C3.33378 7.50613 3.03562 7.52989 2.78489 7.57253L2.78268 7.57291C2.57558 7.60812 1.91565 7.72034 1.37877 8.25785C0.818326 8.81894 0.559939 9.61417 0.683542 10.3975C0.801948 11.1479 1.26988 11.6266 1.41673 11.7768L1.4183 11.7785C1.59609 11.9603 1.82334 12.1548 2.00752 12.3124C2.0208 12.3238 2.03385 12.3349 2.04664 12.3459L5.24575 15.0863L4.26837 19.1837C4.26446 19.2001 4.26047 19.2168 4.25641 19.2337C4.20004 19.4695 4.1305 19.7604 4.09357 20.0121L4.09324 20.0143C4.06274 20.2221 3.96553 20.8845 4.31083 21.5612C4.67127 22.2676 5.34774 22.759 6.13095 22.8836C6.88123 23.0028 7.48108 22.7057 7.66933 22.6125L7.67134 22.6115C7.89926 22.4986 8.15445 22.3426 8.36126 22.2161C8.37616 22.207 8.39081 22.198 8.40518 22.1893L12 19.9935L15.5949 22.1893C15.6092 22.198 15.6239 22.207 15.6388 22.2161C15.8456 22.3426 16.1008 22.4986 16.3287 22.6115L16.3307 22.6125C16.5189 22.7057 17.1188 23.0028 17.8691 22.8836C18.6523 22.759 19.3288 22.2676 19.6892 21.5612C20.0345 20.8845 19.9373 20.2222 19.9068 20.0143L19.9065 20.0121C19.8695 19.7605 19.8 19.4696 19.7436 19.2338C19.7396 19.2168 19.7356 19.2001 19.7317 19.1837L18.7543 15.0863L21.9534 12.3459C21.9662 12.3349 21.9792 12.3238 21.9925 12.3124C22.1767 12.1548 22.4039 11.9603 22.5817 11.7785L22.5833 11.7768C22.7302 11.6266 23.1981 11.1479 23.3165 10.3975C23.4401 9.61417 23.1817 8.81894 22.6213 8.25785C22.0844 7.72034 21.4245 7.60812 21.2174 7.57291L21.2151 7.57253C20.9644 7.52989 20.6662 7.50613 20.4246 7.48688C20.4072 7.4855 20.3901 7.48413 20.3733 7.48279L16.1744 7.14616ZM9.38355 8.60845C9.31802 8.76599 9.28526 8.84475 9.23247 8.90457C9.18577 8.95747 9.128 8.99944 9.06326 9.0275C8.99006 9.05923 8.90503 9.06605 8.73495 9.07968L3.78658 9.47639C3.20816 9.52276 2.91894 9.54595 2.7938 9.67123C2.68522 9.77995 2.63515 9.93403 2.6591 10.0858C2.6867 10.2607 2.90705 10.4495 3.34775 10.827L7.11789 14.0565C7.24746 14.1675 7.31225 14.223 7.35282 14.2917C7.38871 14.3524 7.41077 14.4204 7.41745 14.4906C7.42501 14.57 7.40521 14.653 7.36563 14.819L6.21379 19.6477C6.07915 20.2122 6.01183 20.4944 6.09231 20.6521C6.16215 20.789 6.29322 20.8842 6.44497 20.9084C6.61984 20.9362 6.86745 20.7849 7.36265 20.4825L11.5992 17.8948C11.7448 17.8059 11.8176 17.7614 11.8954 17.7441C11.9643 17.7287 12.0357 17.7287 12.1046 17.7441C12.1825 17.7614 12.2553 17.8059 12.4009 17.8948L16.6374 20.4824C17.1326 20.7849 17.3802 20.9362 17.5551 20.9084C17.7068 20.8842 17.8379 20.789 17.9077 20.6521C17.9882 20.4944 17.9209 20.2122 17.7862 19.6477L16.6344 14.819C16.5948 14.653 16.575 14.57 16.5826 14.4906C16.5893 14.4204 16.6113 14.3524 16.6472 14.2917C16.6878 14.223 16.7526 14.1675 16.8821 14.0565L20.6523 10.827C21.093 10.4495 21.3133 10.2607 21.3409 10.0858C21.3649 9.93403 21.3148 9.77995 21.2062 9.67123C21.0811 9.54595 20.7919 9.52276 20.2134 9.47639L15.2651 9.07968C15.095 9.06605 15.01 9.05923 14.9368 9.0275C14.872 8.99944 14.8143 8.95747 14.7676 8.90457C14.7148 8.84475 14.682 8.76599 14.6165 8.60845L12.7101 4.02487C12.4872 3.48908 12.3758 3.22118 12.218 3.14088C12.081 3.0712 11.919 3.0712 11.7821 3.14088C11.6242 3.22118 11.5128 3.48908 11.29 4.02486L9.38355 8.60845ZM15.9485 20.5906C15.9489 20.5935 15.9491 20.595 15.9491 20.5949C15.9491 20.5948 15.949 20.5941 15.9488 20.5928" fill="black"/>
</svg>
