<svg width="24" height="24" viewBox="0 0 24 24" fill="none" xmlns="http://www.w3.org/2000/svg">
<path fill-rule="evenodd" clip-rule="evenodd" d="M13.1701 2.21096C13.1109 2.0979 12.9458 1.78712 12.5944 1.60836C12.2209 1.41831 11.779 1.41831 11.4055 1.60836C11.0541 1.78712 10.889 2.0979 10.8298 2.21096C10.7598 2.34451 10.6905 2.5114 10.6288 2.65981L8.41251 7.98843L2.65979 8.44961C2.4996 8.46241 2.31945 8.47679 2.17082 8.50206C2.04499 8.52346 1.6984 8.58446 1.41981 8.86338C1.12364 9.1599 0.987093 9.58015 1.05241 9.99412C1.11385 10.3835 1.35839 10.6366 1.44762 10.7279C1.553 10.8357 1.69029 10.9532 1.81237 11.0577L6.19534 14.8122L4.85627 20.4258C4.81893 20.5821 4.77694 20.7579 4.75505 20.9071C4.73652 21.0334 4.68743 21.3819 4.8666 21.733C5.05709 22.1063 5.41457 22.366 5.82847 22.4318C6.2178 22.4937 6.53405 22.3394 6.64843 22.2827C6.78352 22.2158 6.9377 22.1216 7.07481 22.0378L12 19.0295L16.925 22.0377C17.0622 22.1215 17.2164 22.2158 17.3515 22.2827C17.4659 22.3394 17.7821 22.4937 18.1715 22.4318C18.5854 22.366 18.9428 22.1063 19.1333 21.733C19.3125 21.3818 19.2634 21.0334 19.2449 20.9071C19.223 20.7579 19.181 20.5822 19.1437 20.4259L17.8046 14.8122L22.1876 11.0577C22.3096 10.9532 22.4469 10.8357 22.5523 10.7279C22.6415 10.6366 22.8861 10.3835 22.9475 9.99412C23.0128 9.58015 22.8763 9.1599 22.5801 8.86338C22.3015 8.58446 21.9549 8.52346 21.8291 8.50206C21.6805 8.47679 21.5003 8.46241 21.3402 8.44962L15.5874 7.98843L13.3711 2.65979C13.3095 2.51138 13.2401 2.3445 13.1701 2.21096ZM11.9994 4.57244L12 4.57107L13.8586 9.03989L13.8639 9.05301C13.8885 9.11558 13.974 9.33245 14.13 9.50917C14.2573 9.65346 14.4149 9.76793 14.5915 9.84447C14.8077 9.9382 15.0404 9.95247 15.1075 9.95658L15.1216 9.9575L19.9461 10.3443L16.2704 13.4929L16.2595 13.502C16.2076 13.5447 16.0278 13.693 15.9079 13.896C15.81 14.0617 15.7498 14.2469 15.7316 14.4385C15.7093 14.6732 15.7676 14.8989 15.7845 14.964L15.7879 14.9777L16.9109 19.6855L12.7805 17.1627L12.7686 17.1552C12.7119 17.119 12.5152 16.9938 12.2852 16.9425C12.1911 16.9215 12.0952 16.9111 11.9994 16.9111L11.9994 4.57244Z" fill="black"/>
</svg>
