<svg width="24" height="24" viewBox="0 0 24 24" fill="none" xmlns="http://www.w3.org/2000/svg">
<path fill-rule="evenodd" clip-rule="evenodd" d="M15.8301 7.61992L14.0952 3.44858C14.0894 3.43464 14.0835 3.42058 14.0776 3.40643C13.982 3.17638 13.8756 2.92023 13.7684 2.71567C13.6773 2.54181 13.4277 2.07307 12.8983 1.80373C12.3339 1.51659 11.6663 1.51659 11.102 1.80373C10.5726 2.07307 10.3229 2.54181 10.2318 2.71567C10.1247 2.92023 10.0182 3.1764 9.92261 3.40645C9.91674 3.4206 9.9109 3.43464 9.9051 3.44857L8.17015 7.61992L3.66683 7.98094C3.65179 7.98215 3.63662 7.98336 3.62134 7.98458C3.37301 8.00441 3.0965 8.02649 2.86883 8.06521C2.67533 8.09812 2.15238 8.19071 1.73264 8.61095C1.28516 9.05895 1.07886 9.69389 1.17755 10.3194C1.27012 10.906 1.63877 11.2883 1.77597 11.4287C1.9374 11.5938 2.14812 11.7742 2.33737 11.9362C2.34901 11.9462 2.36057 11.9561 2.37203 11.9659L5.80308 14.905L4.75484 19.2994C4.75134 19.3141 4.7478 19.3289 4.74424 19.3439C4.68636 19.5862 4.62191 19.856 4.58839 20.0844C4.55989 20.2786 4.48636 20.8046 4.75631 21.3337C5.04411 21.8977 5.58422 22.2901 6.20957 22.3895C6.79615 22.4828 7.27366 22.2503 7.44954 22.1632C7.65649 22.0607 7.89318 21.916 8.10574 21.7861C8.11881 21.7781 8.13179 21.7702 8.14467 21.7623L12.0001 19.4074L15.8556 21.7623C15.8685 21.7702 15.8815 21.7781 15.8945 21.7861C16.1071 21.916 16.3438 22.0607 16.5507 22.1632C16.7266 22.2503 17.2041 22.4828 17.7907 22.3895C18.416 22.2901 18.9562 21.8977 19.244 21.3337C19.5139 20.8046 19.4404 20.2786 19.4119 20.0844C19.3784 19.856 19.3139 19.5862 19.256 19.3439C19.2525 19.329 19.2489 19.3141 19.2454 19.2995L18.1972 14.905L21.6282 11.9659C21.6397 11.9561 21.6513 11.9462 21.6629 11.9362C21.8521 11.7742 22.0629 11.5938 22.2243 11.4287C22.3615 11.2883 22.7301 10.906 22.8227 10.3194C22.9214 9.69389 22.7151 9.05895 22.2676 8.61095C21.8479 8.19072 21.3249 8.09812 21.1314 8.06521C20.9038 8.02649 20.6273 8.00441 20.3789 7.98458C20.3637 7.98336 20.3485 7.98215 20.3334 7.98094L15.8301 7.61992ZM9.38366 8.60821C9.31814 8.76574 9.28538 8.84451 9.23258 8.90432C9.18589 8.95722 9.12812 8.9992 9.06338 9.02726C8.99018 9.05899 8.90514 9.0658 8.73507 9.07944L3.7867 9.47615C3.20827 9.52252 2.91906 9.54571 2.79392 9.67099C2.68533 9.7797 2.63527 9.93379 2.65922 10.0856C2.68682 10.2605 2.90717 10.4492 3.34787 10.8267L7.118 14.0563C7.24758 14.1673 7.31237 14.2228 7.35294 14.2914C7.38882 14.3522 7.41089 14.4201 7.41757 14.4904C7.42512 14.5698 7.40533 14.6528 7.36574 14.8187L6.21391 19.6475C6.07926 20.2119 6.01194 20.4942 6.09243 20.6519C6.16226 20.7888 6.29333 20.884 6.44508 20.9081C6.61996 20.9359 6.86756 20.7847 7.36279 20.4822L11.5993 17.8946C11.7449 17.8056 11.8177 17.7612 11.8956 17.7438C11.9644 17.7285 12.0358 17.7285 12.1047 17.7438C12.1826 17.7612 12.2554 17.8056 12.401 17.8946L16.6375 20.4822C17.1327 20.7847 17.3803 20.9359 17.5552 20.9081C17.7069 20.884 17.838 20.7888 17.9078 20.6519C17.9883 20.4942 17.921 20.2119 17.7864 19.6475L16.6345 14.8187C16.5949 14.6528 16.5751 14.5698 16.5827 14.4904C16.5894 14.4201 16.6114 14.3522 16.6473 14.2914C16.6879 14.2228 16.7527 14.1673 16.8823 14.0563L20.6524 10.8267C21.0931 10.4492 21.3134 10.2605 21.341 10.0856C21.365 9.93379 21.3149 9.7797 21.2063 9.67099C21.0812 9.5457 20.792 9.52252 20.2136 9.47615L15.2652 9.07944C15.0951 9.0658 15.0101 9.05899 14.9369 9.02726C14.8721 8.9992 14.8144 8.95722 14.7677 8.90432C14.7149 8.84451 14.6821 8.76574 14.6166 8.60821L12.7102 4.02462C12.4873 3.48883 12.3759 3.22094 12.2181 3.14064C12.0811 3.07096 11.9191 3.07096 11.7822 3.14064C11.6244 3.22094 11.5129 3.48883 11.2901 4.02462L9.38366 8.60821Z" fill="black"/>
</svg>
