<svg width="24" height="24" viewBox="0 0 24 24" fill="none" xmlns="http://www.w3.org/2000/svg">
<path fill-rule="evenodd" clip-rule="evenodd" d="M13.1699 2.21047C13.1107 2.09741 12.9455 1.78663 12.5942 1.60787C12.2207 1.41782 11.7788 1.41782 11.4053 1.60787C11.0539 1.78663 10.8888 2.09741 10.8295 2.21047C10.7596 2.34403 10.6902 2.51091 10.6286 2.65933L8.41226 7.98794L2.65955 8.44913C2.49935 8.46192 2.31921 8.4763 2.17058 8.50158C2.04475 8.52298 1.69816 8.58397 1.41957 8.86289C1.1234 9.15941 0.986849 9.57966 1.05217 9.99363C1.11361 10.383 1.35815 10.6361 1.44737 10.7274C1.55276 10.8352 1.69004 10.9527 1.81212 11.0572L6.19509 14.8117L4.85602 20.4253C4.81868 20.5817 4.77669 20.7574 4.7548 20.9066C4.73627 21.0329 4.68718 21.3814 4.86636 21.7325C5.05684 22.1058 5.41433 22.3655 5.82823 22.4313C6.21756 22.4932 6.5338 22.3389 6.64818 22.2822C6.78328 22.2153 6.93745 22.1211 7.07456 22.0373L11.9997 19.029L16.9248 22.0372C17.0619 22.121 17.2161 22.2153 17.3513 22.2822C17.4656 22.3389 17.7819 22.4932 18.1712 22.4313C18.5851 22.3655 18.9426 22.1058 19.1331 21.7325C19.3123 21.3814 19.2632 21.0329 19.2446 20.9066C19.2227 20.7574 19.1808 20.5817 19.1434 20.4254L17.8043 14.8117L22.1873 11.0572C22.3094 10.9527 22.4467 10.8352 22.5521 10.7274C22.6413 10.6361 22.8858 10.383 22.9473 9.99363C23.0126 9.57966 22.876 9.15941 22.5799 8.86289C22.3013 8.58397 21.9547 8.52298 21.8289 8.50158C21.6802 8.4763 21.5001 8.46192 21.3399 8.44913L15.5872 7.98794L13.3709 2.6593C13.3092 2.51089 13.2399 2.34402 13.1699 2.21047ZM11.9991 4.57195L11.9997 4.57058L13.8584 9.0394L13.8636 9.05252C13.8883 9.11509 13.9738 9.33197 14.1297 9.50868C14.2571 9.65297 14.4147 9.76744 14.5912 9.84398C14.8075 9.93772 15.0402 9.95198 15.1073 9.95609L15.1214 9.95702L19.9459 10.3438L16.2701 13.4925L16.2593 13.5015C16.2074 13.5443 16.0275 13.6926 15.9077 13.8955C15.8098 14.0612 15.7496 14.2465 15.7314 14.438C15.7091 14.6727 15.7674 14.8984 15.7842 14.9635L15.7877 14.9772L16.9107 19.685L12.7803 17.1622L12.7683 17.1547C12.7116 17.1185 12.515 16.9933 12.2849 16.942C12.1908 16.921 12.095 16.9106 11.9991 16.9106L11.9991 4.57195Z" fill="black"/>
</svg>
