<svg width="24" height="24" viewBox="0 0 24 24" fill="none" xmlns="http://www.w3.org/2000/svg">
<path fill-rule="evenodd" clip-rule="evenodd" d="M12.5778 1.69011C12.2151 1.50564 11.7861 1.50564 11.4234 1.69011C11.1124 1.84828 10.9479 2.1336 10.8579 2.30523C10.7601 2.4917 10.6582 2.73641 10.5472 3.0029L8.43718 8.0702L2.9622 8.50866C2.67389 8.53172 2.40921 8.55289 2.20135 8.58822C2.01019 8.62071 1.68751 8.68885 1.4407 8.93599C1.15297 9.22412 1.0204 9.63248 1.08401 10.0347C1.13857 10.3797 1.35969 10.6243 1.49531 10.7629C1.64278 10.9136 1.84454 11.0862 2.06432 11.2742L6.23434 14.8423L4.9601 20.1782C4.89298 20.4592 4.83134 20.7172 4.8007 20.9256C4.77251 21.1174 4.73761 21.4451 4.89616 21.756C5.08104 22.1187 5.42813 22.371 5.83009 22.4351C6.17478 22.4901 6.47573 22.3559 6.64947 22.2699C6.83831 22.1765 7.06475 22.0383 7.31136 21.8879L12.0006 19.027L16.6898 21.8879C16.9364 22.0383 17.1629 22.1765 17.3517 22.2699C17.5254 22.3559 17.8264 22.4901 18.1711 22.4351C18.573 22.371 18.9201 22.1187 19.105 21.756C19.2636 21.4451 19.2287 21.1174 19.2005 20.9256C19.1698 20.7172 19.1082 20.4592 19.0411 20.1783L17.7668 14.8423L21.9368 11.2743C22.1566 11.0862 22.3584 10.9136 22.5059 10.7629C22.6415 10.6243 22.8626 10.3797 22.9172 10.0347C22.9808 9.63248 22.8482 9.22412 22.5605 8.93599C22.3137 8.68885 21.991 8.62071 21.7998 8.58822C21.592 8.55289 21.3273 8.53172 21.039 8.50866L15.564 8.0702L13.454 3.00294C13.343 2.73644 13.2411 2.4917 13.1433 2.30523C13.0533 2.1336 12.8888 1.84828 12.5778 1.69011ZM12.0001 3.41662C12.0002 3.41621 12.0004 3.4158 12.0006 3.4154C12.025 3.47359 12.0518 3.53765 12.0812 3.60836L14.1587 8.59761L14.1737 8.63401C14.2257 8.76124 14.3088 8.96413 14.4535 9.12805C14.5772 9.26812 14.7303 9.37924 14.9018 9.45353C15.1024 9.54047 15.3211 9.55661 15.4581 9.56673L15.4974 9.5697L20.8881 10.0014C20.9647 10.0075 21.034 10.0131 21.097 10.0184C21.0491 10.0596 20.9963 10.1049 20.938 10.1548L16.8322 13.6678L16.8021 13.6933C16.697 13.7821 16.5294 13.9237 16.418 14.1122C16.3228 14.2733 16.2642 14.4533 16.2465 14.6396C16.2258 14.8575 16.2781 15.0707 16.3109 15.2043L16.3202 15.2426L17.5749 20.4963C17.5927 20.5708 17.6088 20.6384 17.6232 20.6999C17.5692 20.6672 17.5099 20.631 17.4444 20.5911L12.8273 17.7742L12.7938 17.7536C12.677 17.6813 12.4907 17.5661 12.2774 17.5186C12.1861 17.4982 12.0931 17.4881 12.0001 17.4881L12.0001 3.41662Z" fill="black"/>
</svg>
