<svg width="24" height="24" viewBox="0 0 24 24" fill="none" xmlns="http://www.w3.org/2000/svg">
<path fill-rule="evenodd" clip-rule="evenodd" d="M16.1745 7.14592L14.5568 3.25656C14.5504 3.24101 14.5438 3.22515 14.5371 3.20902C14.4441 2.98514 14.3294 2.70891 14.2113 2.48362L14.2103 2.48164C14.1128 2.29556 13.8021 1.7026 13.125 1.3581C12.4182 0.998473 11.5821 0.998473 10.8752 1.3581C10.1981 1.7026 9.88749 2.29555 9.78999 2.48164L9.78895 2.48362C9.67092 2.70891 9.55619 2.98514 9.46321 3.20901C9.45651 3.22514 9.44992 3.24101 9.44345 3.25656L7.82577 7.14592L3.62688 7.48254C3.61009 7.48389 3.59297 7.48525 3.57555 7.48664C3.3339 7.50589 3.03575 7.52964 2.78501 7.57229L2.7828 7.57266C2.5757 7.60788 1.91577 7.72009 1.37889 8.2576C0.818448 8.8187 0.560061 9.61393 0.683664 10.3973C0.80207 11.1477 1.27 11.6264 1.41685 11.7766L1.41842 11.7782C1.59621 11.9601 1.82346 12.1546 2.00765 12.3122C2.02092 12.3235 2.03397 12.3347 2.04676 12.3457L5.24587 15.086L4.26849 19.1834C4.26459 19.1998 4.26059 19.2165 4.25653 19.2335C4.20017 19.4693 4.13062 19.7602 4.09369 20.0118L4.09337 20.0141C4.06286 20.2219 3.96565 20.8842 4.31095 21.5609C4.6714 22.2673 5.34786 22.7588 6.13107 22.8833C6.88135 23.0026 7.4812 22.7055 7.66946 22.6122L7.67146 22.6112C7.89938 22.4984 8.15457 22.3423 8.36138 22.2159C8.37628 22.2067 8.39093 22.1978 8.4053 22.189L12.0001 19.9933L15.595 22.189C15.6093 22.1978 15.624 22.2067 15.6389 22.2159C15.8457 22.3423 16.1009 22.4984 16.3288 22.6112L16.3308 22.6122C16.5191 22.7055 17.1189 23.0026 17.8692 22.8833C18.6524 22.7588 19.3289 22.2673 19.6893 21.5609C20.0346 20.8842 19.9374 20.2219 19.9069 20.0141L19.9066 20.0118C19.8697 19.7602 19.8001 19.4693 19.7438 19.2336C19.7397 19.2166 19.7357 19.1998 19.7318 19.1834L18.7544 15.086L21.9535 12.3457C21.9663 12.3347 21.9794 12.3235 21.9926 12.3122C22.1768 12.1546 22.4041 11.9601 22.5819 11.7782L22.5834 11.7766C22.7303 11.6264 23.1982 11.1477 23.3166 10.3973C23.4402 9.61393 23.1818 8.8187 22.6214 8.2576C22.0845 7.72009 21.4246 7.60788 21.2175 7.57266L21.2153 7.57229C20.9645 7.52964 20.6664 7.50589 20.4247 7.48664C20.4073 7.48525 20.3902 7.48389 20.3734 7.48254L16.1745 7.14592ZM9.38367 8.60821C9.31815 8.76574 9.28539 8.84451 9.23259 8.90432C9.18589 8.95722 9.12813 8.9992 9.06339 9.02726C8.99018 9.05899 8.90515 9.0658 8.73507 9.07944L3.78671 9.47615C3.20828 9.52252 2.91906 9.54571 2.79393 9.67099C2.68534 9.7797 2.63527 9.93379 2.65922 10.0856C2.68682 10.2605 2.90717 10.4492 3.34787 10.8267L7.11801 14.0563C7.24758 14.1673 7.31237 14.2228 7.35295 14.2914C7.38883 14.3522 7.41089 14.4201 7.41758 14.4904C7.42513 14.5698 7.40534 14.6528 7.36575 14.8187L6.21391 19.6475C6.07927 20.2119 6.01195 20.4942 6.09243 20.6519C6.16227 20.7888 6.29334 20.884 6.44509 20.9081C6.61997 20.9359 6.86757 20.7847 7.36277 20.4822L11.5993 17.8946C11.7449 17.8056 11.8177 17.7612 11.8956 17.7438C11.9644 17.7285 12.0358 17.7285 12.1047 17.7438C12.1826 17.7612 12.2554 17.8056 12.401 17.8946L16.6375 20.4822C17.1327 20.7847 17.3803 20.9359 17.5552 20.9081C17.7069 20.884 17.838 20.7888 17.9078 20.6519C17.9883 20.4942 17.921 20.2119 17.7864 19.6475L16.6345 14.8187C16.5949 14.6528 16.5751 14.5698 16.5827 14.4904C16.5894 14.4201 16.6114 14.3522 16.6473 14.2914C16.6879 14.2228 16.7527 14.1673 16.8823 14.0563L20.6524 10.8267C21.0931 10.4492 21.3135 10.2605 21.3411 10.0856C21.365 9.93379 21.3149 9.7797 21.2064 9.67099C21.0812 9.5457 20.792 9.52252 20.2136 9.47615L15.2652 9.07944C15.0951 9.0658 15.0101 9.05899 14.9369 9.02726C14.8721 8.9992 14.8144 8.95722 14.7677 8.90432C14.7149 8.84451 14.6821 8.76574 14.6166 8.60821L12.7102 4.02462C12.4873 3.48883 12.3759 3.22094 12.2181 3.14064C12.0811 3.07096 11.9191 3.07096 11.7822 3.14064C11.6244 3.22094 11.5129 3.48883 11.2901 4.02462L9.38367 8.60821ZM15.9486 20.5903C15.949 20.5933 15.9492 20.5948 15.9492 20.5946C15.9492 20.5945 15.9492 20.5939 15.949 20.5926" fill="black"/>
</svg>
