<svg width="24" height="24" viewBox="0 0 24 24" fill="none" xmlns="http://www.w3.org/2000/svg">
<path fill-rule="evenodd" clip-rule="evenodd" d="M13.5622 1.53456C13.8844 0.663937 15.1157 0.663938 15.4379 1.53456L17.1764 6.23286C17.2777 6.50657 17.4935 6.72239 17.7672 6.82367L22.4655 8.5622C23.3362 8.88436 23.3362 10.1157 22.4655 10.4379L17.7672 12.1764C17.4935 12.2777 17.2777 12.4935 17.1764 12.7672L15.4379 17.4655C15.1157 18.3362 13.8844 18.3362 13.5622 17.4655L11.8237 12.7672C11.7224 12.4935 11.5066 12.2777 11.2329 12.1764L6.53456 10.4379C5.66394 10.1157 5.66394 8.88436 6.53456 8.5622L11.2329 6.82367C11.5066 6.72239 11.7224 6.50657 11.8237 6.23286L13.5622 1.53456ZM14.1683 7.10045L14.5 6.20391L14.8318 7.10045C15.1863 8.05847 15.9416 8.8138 16.8997 9.1683L17.7962 9.50005L16.8997 9.8318C15.9416 10.1863 15.1863 10.9416 14.8318 11.8997L14.5 12.7962L14.1683 11.8997C13.8138 10.9416 13.0585 10.1863 12.1004 9.8318L11.2039 9.50005L12.1004 9.1683C13.0585 8.8138 13.8138 8.05846 14.1683 7.10045Z" fill="black"/>
<path d="M4.0622 15.5346C4.38436 14.6639 5.61574 14.6639 5.9379 15.5346L6.46102 16.9483C6.56231 17.222 6.77812 17.4378 7.05184 17.5391L8.46554 18.0622C9.33616 18.3844 9.33616 19.6157 8.46554 19.9379L7.05184 20.461C6.77812 20.5623 6.56231 20.7781 6.46102 21.0518L5.9379 22.4655C5.61574 23.3362 4.38436 23.3362 4.0622 22.4655L3.53908 21.0518C3.43779 20.7781 3.22198 20.5623 2.94826 20.461L1.53456 19.9379C0.663937 19.6157 0.663937 18.3844 1.53456 18.0622L2.94826 17.5391C3.22198 17.4378 3.43779 17.222 3.53908 16.9483L4.0622 15.5346Z" fill="black"/>
</svg>
