<svg width="24" height="24" viewBox="0 0 24 24" fill="none" xmlns="http://www.w3.org/2000/svg">
<path d="M2.00183 1.75C2.1399 1.75 2.25183 1.86193 2.25183 2L2.25183 21.75H22.0018C22.1399 21.75 22.2518 21.8619 22.2518 22C22.2518 22.1381 22.1399 22.25 22.0018 22.25H2.25183C1.97569 22.25 1.75183 22.0261 1.75183 21.75L1.75183 2C1.75183 1.86193 1.86376 1.75 2.00183 1.75Z" fill="black"/>
<path d="M21.3788 2.37598C21.4478 2.25645 21.601 2.2152 21.7206 2.28418C21.84 2.35329 21.8814 2.50649 21.8124 2.62598L16.3544 12.0742L16.2968 12.1484C16.2303 12.2136 16.1395 12.2511 16.0438 12.249L8.25183 12.0674L3.50183 20.3037V19.3027L7.86218 11.7402C7.92614 11.6293 8.0457 11.5624 8.17371 11.5654L15.9667 11.7471L21.3788 2.37598Z" fill="black"/>
</svg>
