<svg width="24" height="24" viewBox="0 0 24 24" fill="none" xmlns="http://www.w3.org/2000/svg">
<path d="M2.00183 1.25C2.41605 1.25 2.75183 1.58579 2.75183 2L2.75183 21.25H22.0018C22.416 21.25 22.7518 21.5858 22.7518 22C22.7518 22.4142 22.416 22.75 22.0018 22.75H2.25183C1.69955 22.75 1.25183 22.3023 1.25183 21.75L1.25183 2C1.25183 1.58579 1.58762 1.25 2.00183 1.25Z" fill="black"/>
<path d="M20.9462 2.125C21.1534 1.76668 21.6121 1.64365 21.9706 1.85059C22.3291 2.05769 22.4519 2.51638 22.245 2.875L16.788 12.3232L16.7235 12.4189C16.5598 12.6303 16.3039 12.7543 16.0321 12.748L8.53601 12.5732L4.25378 20H4.00183L4.00183 17.4326L7.42957 11.4893C7.58498 11.2202 7.8748 11.0572 8.18543 11.0645L15.6825 11.2393L20.9462 2.125Z" fill="black"/>
</svg>
