<svg width="24" height="24" viewBox="0 0 24 24" fill="none" xmlns="http://www.w3.org/2000/svg">
<path d="M2.00177 0.25C2.96827 0.25 3.75177 1.0335 3.75177 2L3.75177 20.25H22.0018C22.9683 20.25 23.7518 21.0335 23.7518 22C23.7518 22.9665 22.9683 23.75 22.0018 23.75H2.25177C1.1472 23.75 0.25177 22.8546 0.25177 21.75L0.251771 2C0.251771 1.0335 1.03527 0.25 2.00177 0.25Z" fill="black"/>
<path d="M20.0799 1.625C20.5633 0.788519 21.6338 0.501409 22.4705 0.984376C23.3073 1.46768 23.5941 2.53816 23.1111 3.375L17.6531 12.8232L17.5867 12.9307C17.2363 13.4519 16.6423 13.7627 16.0086 13.748L9.10626 13.5869L5.98517 19H5.00177L5.00177 13.6963L6.56232 10.9902C6.90042 10.4041 7.53234 10.0486 8.2088 10.0645L15.1131 10.2266L20.0799 1.625Z" fill="black"/>
</svg>
