<svg width="24" height="24" viewBox="0 0 24 24" fill="none" xmlns="http://www.w3.org/2000/svg">
<path fill-rule="evenodd" clip-rule="evenodd" d="M4.5 12.5C5.60457 12.5 6.5 13.3954 6.5 14.5V21.5C6.5 22.6046 5.60457 23.5 4.5 23.5H2.5C1.39543 23.5 0.5 22.6046 0.5 21.5V14.5C0.5 13.3954 1.39543 12.5 2.5 12.5H4.5ZM2.5 21.5H4.5V14.5H2.5V21.5Z" fill="black"/>
<path fill-rule="evenodd" clip-rule="evenodd" d="M13 6.5C14.1046 6.5 15 7.39543 15 8.5V21.5C15 22.6046 14.1046 23.5 13 23.5H11C9.89543 23.5 9 22.6046 9 21.5V8.5C9 7.39543 9.89543 6.5 11 6.5H13ZM11 21.5H13V8.5H11V21.5Z" fill="black"/>
<path fill-rule="evenodd" clip-rule="evenodd" d="M21.5 0.5C22.6046 0.5 23.5 1.39543 23.5 2.5V21.5C23.5 22.6046 22.6046 23.5 21.5 23.5H19.5C18.3954 23.5 17.5 22.6046 17.5 21.5V2.5C17.5 1.39543 18.3954 0.5 19.5 0.5H21.5ZM19.5 21.5H21.5V2.5H19.5V21.5Z" fill="black"/>
</svg>
