<svg width="24" height="24" viewBox="0 0 24 24" fill="none" xmlns="http://www.w3.org/2000/svg">
<path d="M5 12C6.10457 12 7 12.8954 7 14V22C7 23.1046 6.10457 24 5 24H2C0.89543 24 2.0133e-09 23.1046 0 22V14C1.28853e-07 12.8954 0.89543 12 2 12H5Z" fill="black"/>
<path d="M13.5 6C14.6046 6 15.5 6.89543 15.5 8V22C15.5 23.1046 14.6046 24 13.5 24H10.5C9.39543 24 8.5 23.1046 8.5 22V8C8.5 6.89543 9.39543 6 10.5 6H13.5Z" fill="black"/>
<path d="M22 0C23.1046 0 24 0.895431 24 2V22C24 23.1046 23.1046 24 22 24H19C17.8954 24 17 23.1046 17 22V2C17 0.895433 17.8954 0 19 0H22Z" fill="black"/>
</svg>
