<svg width="24" height="24" viewBox="0 0 24 24" fill="none" xmlns="http://www.w3.org/2000/svg">
<path d="M2.00183 1.5C2.27797 1.5 2.50183 1.72386 2.50183 2L2.50183 21.5H22.0018C22.278 21.5 22.5018 21.7239 22.5018 22C22.5018 22.2761 22.278 22.5 22.0018 22.5H2.25183C1.83762 22.5 1.50183 22.1642 1.50183 21.75L1.50183 2C1.50183 1.72386 1.72569 1.5 2.00183 1.5Z" fill="black"/>
<path d="M21.163 2.25098C21.301 2.01194 21.6065 1.92948 21.8456 2.06738C22.0845 2.20556 22.1663 2.51193 22.0282 2.75098L16.5712 12.1992L16.5253 12.2666C16.4097 12.4154 16.2295 12.5034 16.038 12.499L8.39343 12.3203L3.82117 20.25H3.75183L3.75183 18.3682L7.64539 11.6152C7.75503 11.4251 7.96013 11.3103 8.17957 11.3154L15.8241 11.4941L21.163 2.25098Z" fill="black"/>
</svg>
