<svg width="24" height="24" viewBox="0 0 24 24" fill="none" xmlns="http://www.w3.org/2000/svg">
<path d="M5 12.25C5.69036 12.25 6.25 12.8096 6.25 13.5V22.5C6.25 23.1904 5.69036 23.75 5 23.75H2C1.30964 23.75 0.75 23.1904 0.75 22.5V13.5C0.75 12.8096 1.30964 12.25 2 12.25H5Z" fill="black"/>
<path d="M13.5 6.25C14.1904 6.25 14.75 6.80964 14.75 7.5V22.5C14.75 23.1904 14.1904 23.75 13.5 23.75H10.5C9.80964 23.75 9.25 23.1904 9.25 22.5V7.5C9.25 6.80964 9.80964 6.25 10.5 6.25H13.5Z" fill="black"/>
<path d="M22 0.25C22.6904 0.25 23.25 0.809644 23.25 1.5V22.5C23.25 23.1904 22.6904 23.75 22 23.75H19C18.3528 23.75 17.8209 23.2582 17.7568 22.6279L17.75 22.5V1.5C17.75 0.809643 18.3096 0.25 19 0.25H22Z" fill="black"/>
</svg>
