<svg width="24" height="24" viewBox="0 0 24 24" fill="none" xmlns="http://www.w3.org/2000/svg">
<path fill-rule="evenodd" clip-rule="evenodd" d="M4.5 12C5.88071 12 7 13.1193 7 14.5V21.5C7 22.8807 5.88071 24 4.5 24H2.5C1.11929 24 4.0266e-09 22.8807 0 21.5V14.5C0 13.1193 1.11929 12 2.5 12H4.5ZM3 21H4V15H3V21Z" fill="black"/>
<path fill-rule="evenodd" clip-rule="evenodd" d="M13 6C14.3807 6 15.5 7.11929 15.5 8.5V21.5C15.5 22.8807 14.3807 24 13 24H11C9.61929 24 8.5 22.8807 8.5 21.5V8.5C8.5 7.11929 9.61929 6 11 6H13ZM11.5 21H12.5V9H11.5V21Z" fill="black"/>
<path fill-rule="evenodd" clip-rule="evenodd" d="M21.5 0C22.8807 0 24 1.11929 24 2.5V21.5C24 22.8807 22.8807 24 21.5 24H19.5C18.1193 24 17 22.8807 17 21.5V2.5C17 1.11929 18.1193 0 19.5 0H21.5ZM20 21H21V3H20V21Z" fill="black"/>
</svg>
