<svg width="24" height="24" viewBox="0 0 24 24" fill="none" xmlns="http://www.w3.org/2000/svg">
<path d="M19.1787 6.87801C21.9484 7.57177 23.9998 10.0779 24 13.0626C23.9998 16.1701 21.7758 18.757 18.833 19.3214C18.3936 19.4056 18.1736 19.4483 18.0635 19.4952C17.9244 19.5545 17.909 19.5632 17.792 19.6593C17.6994 19.7354 17.5627 19.9081 17.29 20.252C16.054 21.8113 14.1443 22.8126 12 22.8126C9.85569 22.8125 7.94601 21.8113 6.70996 20.252C6.43734 19.9081 6.30057 19.7354 6.20801 19.6593C6.09098 19.5632 6.07561 19.5545 5.93652 19.4952C5.82637 19.4483 5.60641 19.4056 5.16699 19.3214C2.22419 18.757 0.000229308 16.17 0 13.0626C0.000215812 10.0782 2.05106 7.5721 4.82031 6.87801L3.62793 10.4581L3.55957 10.7052C3.28247 11.9414 3.9814 13.2116 5.20898 13.6212C6.43675 14.0303 7.75814 13.4335 8.27832 12.2784L8.37207 12.0401L8.52637 11.5802C8.70573 11.0423 9.49953 11.1706 9.5 11.7374V14.9171C9.50009 16.2976 10.6194 17.417 12 17.4171C13.3805 17.4169 14.4999 16.2976 14.5 14.9171V11.7374C14.5005 11.1706 15.2952 11.0423 15.4746 11.5802L15.6279 12.0401L15.7217 12.2784C16.2419 13.4335 17.5632 14.0304 18.791 13.6212C20.0185 13.2116 20.7175 11.9413 20.4404 10.7052L20.3721 10.4581L19.1787 6.87801Z" fill="black"/>
<path d="M12 4.6163C12.6903 4.61631 13.2499 5.17607 13.25 5.8663V14.9181C13.2497 15.6082 12.6902 16.168 12 16.1681C11.3098 16.168 10.7503 15.6082 10.75 14.9181V5.8663C10.7501 5.17608 11.3098 4.61634 12 4.6163Z" fill="black"/>
<path d="M7.86035 1.73544C8.12041 1.15771 8.78152 0.859874 9.39551 1.06454C10.0095 1.26938 10.3586 1.90428 10.2197 2.52255L10.1855 2.64559L7.18555 11.6456L7.13965 11.7647C6.8795 12.3422 6.21836 12.6402 5.60449 12.4356C4.94986 12.2172 4.59641 11.5093 4.81445 10.8546L7.81445 1.85458L7.86035 1.73544Z" fill="black"/>
<path d="M14.6045 1.06454C15.2185 0.859887 15.8796 1.15772 16.1396 1.73544L16.1855 1.85458L19.1855 10.8546C19.4036 11.5093 19.0501 12.2172 18.3955 12.4356C17.7817 12.6402 17.1205 12.3422 16.8604 11.7647L16.8145 11.6456L13.8145 2.64559L13.7803 2.52255C13.6414 1.90432 13.9906 1.26943 14.6045 1.06454Z" fill="black"/>
</svg>
