<svg width="24" height="24" viewBox="0 0 24 24" fill="none" xmlns="http://www.w3.org/2000/svg">
<path d="M20.3438 7.29429C22.5044 8.31483 23.9998 10.5138 24 13.0619C23.9996 16.1692 21.7757 18.7563 18.833 19.3207C18.3936 19.4049 18.1736 19.4476 18.0635 19.4945C17.9245 19.5537 17.909 19.5625 17.792 19.6585C17.6994 19.7348 17.5625 19.9075 17.29 20.2513C16.054 21.8105 14.1443 22.8119 12 22.8119C9.85578 22.8118 7.94601 21.8105 6.70996 20.2513C6.43747 19.9075 6.30057 19.7348 6.20801 19.6585C6.09098 19.5625 6.07552 19.5537 5.93652 19.4945C5.82638 19.4476 5.60641 19.4049 5.16699 19.3207C2.22428 18.7563 0.000386261 16.1692 0 13.0619C0.000150672 10.5141 1.495 8.315 3.65527 7.29429L2.6543 10.3001L2.6084 10.4476C2.18378 11.9766 3.02934 13.5865 4.55176 14.0941C6.07435 14.6014 7.71651 13.8204 8.29395 12.3421L8.3457 12.1966C8.46631 11.8356 8.99998 11.9223 9 12.3031V14.9164C9.00027 16.573 10.3433 17.9163 12 17.9164C13.6567 17.9163 14.9997 16.573 15 14.9164V12.3031C15 11.9223 15.5337 11.8356 15.6543 12.1966L15.7061 12.3421C16.2835 13.8204 17.9256 14.6014 19.4482 14.0941C20.9706 13.5865 21.8162 11.9765 21.3916 10.4476L21.3457 10.3001L20.3438 7.29429Z" fill="black"/>
<path d="M12 4.11558C12.9664 4.11571 13.75 4.89916 13.75 5.86558V14.9173C13.7496 15.8834 12.9661 16.6672 12 16.6673C11.0339 16.6672 10.2504 15.8834 10.25 14.9173V5.86558C10.25 4.89916 11.0336 4.11571 12 4.11558Z" fill="black"/>
<path d="M6.90527 1.52769C7.26949 0.719347 8.19441 0.301973 9.05371 0.588235C9.91293 0.874951 10.4019 1.76396 10.208 2.62925L10.1602 2.8021L7.16016 11.8021L7.09473 11.9691C6.73054 12.7775 5.80564 13.1949 4.94629 12.9085C4.02978 12.6027 3.53431 11.6114 3.83984 10.6947L6.83984 1.69468L6.90527 1.52769Z" fill="black"/>
<path d="M14.9463 0.588235C15.8056 0.301913 16.7304 0.719433 17.0947 1.52769L17.1602 1.69468L20.1602 10.6947C20.4656 11.6114 19.9702 12.6028 19.0537 12.9085C18.1944 13.1949 17.2695 12.7774 16.9053 11.9691L16.8398 11.8021L13.8398 2.8021L13.792 2.62925C13.5981 1.76396 14.087 0.874904 14.9463 0.588235Z" fill="black"/>
</svg>
