<svg width="24" height="24" viewBox="0 0 24 24" fill="none" xmlns="http://www.w3.org/2000/svg">
<path d="M20 7.14577C22.3442 8.08772 23.9998 10.3808 24 13.0618C24 16.1695 21.776 18.7562 18.833 19.3206L18.3252 19.4212C18.2014 19.4481 18.1186 19.47 18.0635 19.4934C17.9241 19.5528 17.9091 19.5624 17.792 19.6585L17.7129 19.7346C17.6226 19.8313 17.4946 19.9931 17.29 20.2512L17.0508 20.5374C15.8147 21.9322 14.0104 22.8118 12 22.8118C9.98964 22.8117 8.18533 21.9322 6.94922 20.5374L6.70996 20.2512C6.43722 19.9071 6.30057 19.7346 6.20801 19.6585C6.14949 19.6104 6.11577 19.5844 6.08008 19.5628L5.93652 19.4934C5.88139 19.47 5.79856 19.4481 5.6748 19.4212L5.16699 19.3206C2.22405 18.7562 6.82535e-07 16.1694 0 13.0618C0.000158652 10.3808 1.65583 8.08772 4 7.14577V8.2405C2.30088 9.07904 1.10815 10.7877 1.00684 12.7854L1 13.0618C1 15.6804 2.87371 17.8621 5.35449 18.3382C5.56874 18.3792 5.74884 18.4134 5.8877 18.4436C6.01085 18.4705 6.17717 18.5093 6.32812 18.5735C6.3865 18.5984 6.49184 18.6426 6.59863 18.7073C6.70524 18.7719 6.79266 18.8447 6.8418 18.885C6.96805 18.9886 7.07789 19.117 7.1582 19.2132C7.24814 19.3209 7.36015 19.4623 7.49316 19.6301C8.54796 20.9609 10.1743 21.8117 12 21.8118C13.8257 21.8118 15.452 20.961 16.5068 19.6301C16.6397 19.4625 16.7509 19.3208 16.8408 19.2132C16.9212 19.1169 17.0319 18.9887 17.1582 18.885C17.2073 18.8447 17.2948 18.7719 17.4014 18.7073C17.5082 18.6426 17.6135 18.5984 17.6719 18.5735C17.8228 18.5093 17.9892 18.4705 18.1123 18.4436C18.2511 18.4134 18.4305 18.3792 18.6445 18.3382C21.1256 17.8623 23 15.6805 23 13.0618C22.9999 10.9461 21.7771 9.11647 20 8.23952V7.14577Z" fill="black"/>
<path d="M12 5.36647C12.276 5.36667 12.5 5.59045 12.5 5.86647V14.9182C12.4995 15.1938 12.2757 15.418 12 15.4182C11.7243 15.4181 11.5005 15.1938 11.5 14.9182V5.86647C11.5 5.59044 11.724 5.36665 12 5.36647Z" fill="black"/>
<path d="M8.56738 1.99831C8.68382 1.79752 8.92935 1.6985 9.1582 1.77468C9.38729 1.85116 9.5239 2.07804 9.49609 2.30886L9.47461 2.40749L6.47461 11.4075L6.43262 11.5003C6.31618 11.701 6.07064 11.8001 5.8418 11.7239C5.61271 11.6474 5.47611 11.4205 5.50391 11.1897L5.52539 11.0911L8.52539 2.09108L8.56738 1.99831Z" fill="black"/>
<path d="M14.8418 1.77468C15.0707 1.69859 15.3163 1.79737 15.4326 1.99831L15.4746 2.09108L18.4746 11.0911L18.4961 11.1897C18.5239 11.4205 18.3872 11.6473 18.1582 11.7239C17.9293 11.8 17.6837 11.7012 17.5674 11.5003L17.5254 11.4075L14.5254 2.40749L14.5039 2.30886C14.4761 2.07807 14.6128 1.85122 14.8418 1.77468Z" fill="black"/>
</svg>
