<svg width="24" height="24" viewBox="0 0 24 24" fill="none" xmlns="http://www.w3.org/2000/svg">
<path d="M17.7979 6.69082C21.2385 6.78252 23.9996 9.59922 24 13.0619C23.9998 16.1694 21.7758 18.7563 18.833 19.3207C18.3937 19.4049 18.1737 19.4476 18.0635 19.4945C17.9244 19.5538 17.9089 19.5627 17.792 19.6586C17.6994 19.7347 17.5626 19.9075 17.29 20.2514C16.054 21.8107 14.1443 22.8119 12 22.8119C9.85569 22.8118 7.94601 21.8106 6.70996 20.2514C6.43743 19.9075 6.30055 19.7348 6.20801 19.6586C6.09111 19.5627 6.07555 19.5538 5.93652 19.4945C5.82633 19.4476 5.60628 19.4049 5.16699 19.3207C2.22421 18.7563 0.000229307 16.1693 0 13.0619C0.000401928 9.59955 2.76098 6.78303 6.20117 6.69082L4.81445 10.8539C4.5966 11.5085 4.95016 12.2165 5.60449 12.435C6.21818 12.6393 6.87947 12.3413 7.13965 11.7641L7.18555 11.6449L8.83398 6.69961H10.75V14.9174C10.7502 15.6074 11.31 16.1672 12 16.1674C12.69 16.1672 13.2498 15.6074 13.25 14.9174V6.69961H15.166L16.8145 11.6449L16.8604 11.7641C17.1205 12.3413 17.7818 12.6392 18.3955 12.435C19.0498 12.2164 19.4034 11.5084 19.1855 10.8539L17.7979 6.69082Z" fill="black"/>
<path d="M12 5.3666C12.276 5.36679 12.5 5.59058 12.5 5.8666V14.9184C12.4994 15.1939 12.2756 15.4182 12 15.4184C11.7244 15.4182 11.5006 15.1939 11.5 14.9184V5.8666C11.5 5.59058 11.724 5.36679 12 5.3666Z" fill="black"/>
<path d="M8.56738 1.99843C8.68382 1.79764 8.92935 1.69862 9.1582 1.7748C9.38729 1.85128 9.5239 2.07817 9.49609 2.30898L9.47461 2.40761L6.47461 11.4076L6.43262 11.5004C6.31616 11.7011 6.0706 11.8002 5.8418 11.724C5.61274 11.6476 5.47617 11.4206 5.50391 11.1898L5.52539 11.0912L8.52539 2.09121L8.56738 1.99843Z" fill="black"/>
<path d="M14.8418 1.7748C15.0707 1.69871 15.3163 1.79749 15.4326 1.99843L15.4746 2.09121L18.4746 11.0912L18.4961 11.1898C18.5239 11.4206 18.3872 11.6475 18.1582 11.724C17.9293 11.8001 17.6837 11.7012 17.5674 11.5004L17.5254 11.4076L14.5254 2.40761L14.5039 2.30898C14.4761 2.07821 14.6128 1.85137 14.8418 1.7748Z" fill="black"/>
</svg>
