<svg width="24" height="24" viewBox="0 0 24 24" fill="none" xmlns="http://www.w3.org/2000/svg">
<path d="M20 7.14675C22.3442 8.0887 23.9998 10.3817 24 13.0628C24 16.1704 21.776 18.7572 18.833 19.3216L18.3252 19.4221C18.2014 19.4491 18.1186 19.4709 18.0635 19.4944C17.9241 19.5538 17.9091 19.5634 17.792 19.6594L17.7129 19.7356C17.6226 19.8323 17.4946 19.9941 17.29 20.2522L17.0508 20.5383C15.8147 21.9332 14.0104 22.8128 12 22.8128C9.98964 22.8127 8.18533 21.9332 6.94922 20.5383L6.70996 20.2522C6.43722 19.9081 6.30057 19.7356 6.20801 19.6594C6.14949 19.6114 6.11577 19.5854 6.08008 19.5637L5.93652 19.4944C5.88139 19.4709 5.79856 19.4491 5.6748 19.4221L5.16699 19.3216C2.22405 18.7571 6.82535e-07 16.1704 0 13.0628C0.000158652 10.3817 1.65583 8.0887 4 7.14675V8.24147C2.30088 9.08002 1.10815 10.7887 1.00684 12.7864L1 13.0628C1 15.6813 2.87371 17.8631 5.35449 18.3391C5.56874 18.3802 5.74884 18.4144 5.8877 18.4446C6.01085 18.4714 6.17717 18.5102 6.32812 18.5745C6.3865 18.5994 6.49184 18.6435 6.59863 18.7083C6.70524 18.7729 6.79266 18.8457 6.8418 18.886C6.96805 18.9896 7.07789 19.1179 7.1582 19.2141C7.24814 19.3219 7.36015 19.4633 7.49316 19.6311C8.54796 20.9619 10.1743 21.8127 12 21.8128C13.8257 21.8128 15.452 20.962 16.5068 19.6311C16.6397 19.4635 16.7509 19.3218 16.8408 19.2141C16.9212 19.1179 17.0319 18.9897 17.1582 18.886C17.2073 18.8457 17.2948 18.7729 17.4014 18.7083C17.5082 18.6435 17.6135 18.5994 17.6719 18.5745C17.8228 18.5102 17.9892 18.4714 18.1123 18.4446C18.2511 18.4144 18.4305 18.3802 18.6445 18.3391C21.1256 17.8633 23 15.6815 23 13.0628C22.9999 10.9471 21.7771 9.11745 20 8.2405V7.14675Z" fill="black"/>
<path d="M12 5.36745C12.276 5.36765 12.5 5.59143 12.5 5.86745V14.9192C12.4995 15.1948 12.2757 15.419 12 15.4192C11.7243 15.419 11.5005 15.1948 11.5 14.9192V5.86745C11.5 5.59142 11.724 5.36763 12 5.36745Z" fill="black"/>
<path d="M8.56738 1.99929C8.68382 1.79849 8.92935 1.69948 9.1582 1.77565C9.38729 1.85214 9.5239 2.07902 9.49609 2.30983L9.47461 2.40847L6.47461 11.4085L6.43262 11.5012C6.31618 11.702 6.07064 11.801 5.8418 11.7249C5.61271 11.6484 5.47611 11.4215 5.50391 11.1907L5.52539 11.0921L8.52539 2.09206L8.56738 1.99929Z" fill="black"/>
<path d="M14.8418 1.77565C15.0707 1.69956 15.3163 1.79834 15.4326 1.99929L15.4746 2.09206L18.4746 11.0921L18.4961 11.1907C18.5239 11.4215 18.3872 11.6483 18.1582 11.7249C17.9293 11.801 17.6837 11.7022 17.5674 11.5012L17.5254 11.4085L14.5254 2.40847L14.5039 2.30983C14.4761 2.07905 14.6128 1.8522 14.8418 1.77565Z" fill="black"/>
</svg>
