<svg width="24" height="24" viewBox="0 0 24 24" fill="none" xmlns="http://www.w3.org/2000/svg">
<path d="M20 7.14541C22.3441 8.08732 23.9997 10.3806 24 13.0614C24 16.1691 21.7759 18.7558 18.833 19.3202L18.3252 19.4208C18.2015 19.4477 18.1186 19.4696 18.0635 19.4931C17.9242 19.5524 17.9089 19.5622 17.792 19.6581C17.6994 19.7342 17.5627 19.9069 17.29 20.2509L17.0508 20.537C15.8147 21.9319 14.0104 22.8114 12 22.8114C9.98964 22.8113 8.18533 21.9319 6.94922 20.537L6.70996 20.2509C6.50544 19.9928 6.37733 19.8309 6.28711 19.7343L6.20801 19.6581C6.09111 19.5622 6.07585 19.5524 5.93652 19.4931C5.88139 19.4696 5.79846 19.4477 5.6748 19.4208L5.16699 19.3202C2.22408 18.7558 0 16.1691 0 13.0614C0.000310766 10.3806 1.65593 8.08732 4 7.14541V8.80459C2.57774 9.59991 1.59452 11.0868 1.50684 12.8104L1.5 13.0614C1.5 15.4357 3.19919 17.415 5.44922 17.8466C5.66076 17.8871 5.8477 17.9231 5.99414 17.955C6.11714 17.9818 6.32545 18.0284 6.52441 18.1132C6.57713 18.1356 6.71606 18.1929 6.8584 18.2792C7.00015 18.3652 7.11451 18.4613 7.15918 18.4979C7.32543 18.6344 7.46235 18.7959 7.54297 18.8925C7.6379 19.0062 7.75461 19.1538 7.88574 19.3192C8.84991 20.5356 10.3337 21.3113 12 21.3114C13.6662 21.3114 15.15 20.5356 16.1143 19.3192C16.2454 19.1538 16.3621 19.0062 16.457 18.8925C16.5377 18.7959 16.6746 18.6344 16.8408 18.4979L16.9541 18.4071C17.006 18.3678 17.0706 18.3223 17.1416 18.2792C17.2839 18.1929 17.4229 18.1356 17.4756 18.1132L17.625 18.0565C17.7731 18.0064 17.9136 17.9751 18.0059 17.955C18.1523 17.9231 18.3393 17.8871 18.5508 17.8466C20.8008 17.415 22.5 15.4357 22.5 13.0614C22.4997 11.2317 21.4911 9.63809 20 8.80459V7.14541Z" fill="black"/>
<path d="M12 5.11611C12.414 5.11635 12.75 5.45204 12.75 5.86611V14.9179C12.7497 15.3317 12.4138 15.6676 12 15.6679C11.5862 15.6676 11.2503 15.3317 11.25 14.9179V5.86611C11.25 5.45203 11.586 5.11633 12 5.11611Z" fill="black"/>
<path d="M8.31641 1.94033C8.47243 1.59398 8.86912 1.41457 9.2373 1.53701C9.60525 1.65991 9.81522 2.04139 9.73242 2.41201L9.71191 2.48623L6.71191 11.4862L6.68359 11.5575C6.52765 11.9041 6.131 12.0834 5.7627 11.9608C5.39469 11.8379 5.18459 11.4565 5.26758 11.0858L5.28809 11.0116L8.28809 2.01162L8.31641 1.94033Z" fill="black"/>
<path d="M14.7627 1.53701C15.1308 1.4145 15.5275 1.5941 15.6836 1.94033L15.7119 2.01162L18.7119 11.0116L18.7324 11.0858C18.8153 11.4565 18.6053 11.838 18.2373 11.9608C17.869 12.0835 17.4725 11.904 17.3164 11.5575L17.2881 11.4862L14.2881 2.48623L14.2676 2.41201C14.1849 2.04138 14.3947 1.65981 14.7627 1.53701Z" fill="black"/>
</svg>
