<svg width="24" height="24" viewBox="0 0 24 24" fill="none" xmlns="http://www.w3.org/2000/svg">
<path d="M20 7.13632C22.3442 8.07833 23.9999 10.3713 24 13.0523C23.9999 15.8996 22.1329 18.3103 19.5566 19.1285L19.0791 19.2828C18.9633 19.3227 18.8865 19.3539 18.8359 19.3824L18.7041 19.4635C18.6719 19.4881 18.6426 19.5166 18.5908 19.5689C18.5091 19.6516 18.3936 19.8307 18.1631 20.1881L17.9277 20.5299C16.6994 22.1998 14.7215 23.2838 12.4893 23.2838C9.80138 23.2838 7.4804 21.713 6.39453 19.4391C6.39092 19.4315 6.38337 19.4273 6.375 19.4273C2.85423 19.4272 9.03886e-05 16.5731 0 13.0523C6.75042e-05 10.3713 1.65583 8.07833 4 7.13632V9.99081C3.13642 10.6617 2.56385 11.6896 2.50488 12.8531L2.5 13.0523C2.50009 15.1923 4.23485 16.9272 6.375 16.9273C7.09287 16.9273 8.0246 17.2664 8.55078 18.1725L8.65039 18.3619L8.78809 18.6256C9.52061 19.9183 10.906 20.7838 12.4893 20.7838C13.9847 20.7838 15.3016 20.0129 16.0625 18.8336C16.1705 18.6662 16.2767 18.5003 16.3662 18.3687C16.4354 18.2671 16.5961 18.0309 16.8135 17.8111C16.8439 17.7803 16.9929 17.6245 17.1855 17.4771C17.3778 17.3302 17.5662 17.2273 17.6045 17.2057C17.8753 17.0525 18.1493 16.9593 18.2646 16.9195C18.4163 16.8673 18.606 16.8072 18.7998 16.7457C20.3686 16.2475 21.4999 14.7786 21.5 13.0523C21.4999 11.8074 20.9125 10.6998 20 9.99081V7.13632Z" fill="black"/>
<path d="M12 4.61581C12.69 4.61604 13.2498 5.17576 13.25 5.86581V14.9176C13.2498 15.6076 12.69 16.1673 12 16.1676C11.31 16.1674 10.7502 15.6076 10.75 14.9176V5.86581C10.7502 5.17575 11.3099 4.61602 12 4.61581Z" fill="black"/>
<path d="M7.81348 1.8541C8.0129 1.25321 8.64007 0.887847 9.27148 1.02792C9.90258 1.16844 10.3148 1.76458 10.2412 2.39316L10.2207 2.52011L8.2207 11.5201L8.18652 11.6432C7.98736 12.2445 7.36024 12.6096 6.72852 12.4693C6.09722 12.3287 5.6848 11.7329 5.75879 11.1041L5.7793 10.9771L7.7793 1.97714L7.81348 1.8541Z" fill="black"/>
<path d="M14.7285 1.02792C15.3599 0.887875 15.9871 1.25322 16.1865 1.8541L16.2207 1.97714L18.2207 10.9771L18.2412 11.1041C18.3152 11.7329 17.9027 12.3287 17.2715 12.4693C16.6398 12.6096 16.0126 12.2445 15.8135 11.6432L15.7793 11.5201L13.7793 2.52011L13.7588 2.39316C13.6852 1.76458 14.0974 1.16843 14.7285 1.02792Z" fill="black"/>
</svg>
