<svg width="24" height="24" viewBox="0 0 24 24" fill="none" xmlns="http://www.w3.org/2000/svg">
<path d="M20 7.14492C22.3441 8.08683 23.9997 10.3801 24 13.0609C24 16.1686 21.7759 18.7553 18.833 19.3197L18.3252 19.4203C18.2015 19.4472 18.1186 19.4691 18.0635 19.4926C17.9242 19.5519 17.9089 19.5617 17.792 19.6576C17.6994 19.7337 17.5627 19.9064 17.29 20.2504L17.0508 20.5365C15.8147 21.9314 14.0104 22.8109 12 22.8109C9.98964 22.8108 8.18533 21.9314 6.94922 20.5365L6.70996 20.2504C6.50544 19.9924 6.37733 19.8304 6.28711 19.7338L6.20801 19.6576C6.09111 19.5617 6.07585 19.5519 5.93652 19.4926C5.88139 19.4691 5.79846 19.4472 5.6748 19.4203L5.16699 19.3197C2.22408 18.7553 0 16.1686 0 13.0609C0.000310766 10.3801 1.65593 8.08683 4 7.14492V8.8041C2.57774 9.59942 1.59452 11.0863 1.50684 12.81L1.5 13.0609C1.5 15.4352 3.19919 17.4145 5.44922 17.8461C5.66076 17.8867 5.8477 17.9226 5.99414 17.9545C6.11714 17.9813 6.32545 18.028 6.52441 18.1127C6.57713 18.1352 6.71606 18.1924 6.8584 18.2787C7.00015 18.3647 7.11451 18.4608 7.15918 18.4975C7.32543 18.6339 7.46235 18.7954 7.54297 18.892C7.6379 19.0057 7.75461 19.1533 7.88574 19.3187C8.84991 20.5351 10.3337 21.3108 12 21.3109C13.6662 21.3109 15.15 20.5351 16.1143 19.3187C16.2454 19.1533 16.3621 19.0057 16.457 18.892C16.5377 18.7954 16.6746 18.6339 16.8408 18.4975L16.9541 18.4066C17.006 18.3673 17.0706 18.3218 17.1416 18.2787C17.2839 18.1924 17.4229 18.1352 17.4756 18.1127L17.625 18.0561C17.7731 18.0059 17.9136 17.9746 18.0059 17.9545C18.1523 17.9226 18.3393 17.8867 18.5508 17.8461C20.8008 17.4145 22.5 15.4352 22.5 13.0609C22.4997 11.2313 21.4911 9.6376 20 8.8041V7.14492Z" fill="black"/>
<path d="M12 5.11562C12.414 5.11586 12.75 5.45156 12.75 5.86562V14.9174C12.7497 15.3312 12.4138 15.6671 12 15.6674C11.5862 15.6672 11.2503 15.3312 11.25 14.9174V5.86562C11.25 5.45155 11.586 5.11584 12 5.11562Z" fill="black"/>
<path d="M8.31641 1.93984C8.47243 1.5935 8.86912 1.41409 9.2373 1.53652C9.60525 1.65942 9.81522 2.04091 9.73242 2.41152L9.71191 2.48574L6.71191 11.4857L6.68359 11.557C6.52765 11.9036 6.131 12.0829 5.7627 11.9603C5.39469 11.8374 5.18459 11.456 5.26758 11.0853L5.28809 11.0111L8.28809 2.01113L8.31641 1.93984Z" fill="black"/>
<path d="M14.7627 1.53652C15.1308 1.41401 15.5275 1.59361 15.6836 1.93984L15.7119 2.01113L18.7119 11.0111L18.7324 11.0853C18.8153 11.456 18.6053 11.8375 18.2373 11.9603C17.869 12.083 17.4725 11.9035 17.3164 11.557L17.2881 11.4857L14.2881 2.48574L14.2676 2.41152C14.1849 2.04089 14.3947 1.65932 14.7627 1.53652Z" fill="black"/>
</svg>
