<svg width="24" height="24" viewBox="0 0 24 24" fill="none" xmlns="http://www.w3.org/2000/svg">
<path d="M10 14.9169C10.0002 16.0213 10.8956 16.9168 12 16.9169C13.1044 16.9168 13.9998 16.0213 14 14.9169V6.70009H14.375L16.1025 11.8817L16.1768 12.0722C16.5928 12.9965 17.6505 13.4738 18.6328 13.1464C19.615 12.8187 20.174 11.8024 19.9521 10.8134L19.8975 10.6161L18.6133 6.76357C21.6646 7.23861 23.9998 9.87789 24 13.0624C23.9997 16.1698 21.7758 18.7568 18.833 19.3212C18.3935 19.4055 18.1736 19.4481 18.0635 19.495C17.9244 19.5543 17.909 19.563 17.792 19.6591C17.6994 19.7353 17.5626 19.9079 17.29 20.2519C16.054 21.8111 14.1443 22.8124 12 22.8124C9.85573 22.8123 7.94601 21.8111 6.70996 20.2519C6.43738 19.9079 6.30057 19.7353 6.20801 19.6591C6.09096 19.563 6.07558 19.5543 5.93652 19.495C5.82638 19.4481 5.60644 19.4055 5.16699 19.3212C2.22422 18.7568 0.000296641 16.1698 0 13.0624C0.00018831 9.87822 2.33486 7.23902 5.38574 6.76357L4.10254 10.6161L4.04785 10.8134C3.826 11.8024 4.38505 12.8187 5.36719 13.1464C6.34953 13.4738 7.40716 12.9965 7.82324 12.0722L7.89746 11.8817L9.62402 6.70009H10V14.9169Z" fill="black"/>
<path d="M12 4.86513C12.552 4.86525 12.9998 5.31312 13 5.86513V14.9169C12.9999 15.469 12.5521 15.9168 12 15.9169C11.4478 15.9169 11.0001 15.4691 11 14.9169V5.86513C11.0002 5.31306 11.4479 4.86515 12 4.86513Z" fill="black"/>
<path d="M8.08887 1.83779C8.29691 1.37569 8.82528 1.13706 9.31641 1.30068C9.80716 1.46457 10.0872 1.9724 9.97656 2.46669L9.94824 2.56533L6.94824 11.5653L6.91113 11.6601C6.70317 12.1223 6.17477 12.3607 5.68359 12.1972C5.15999 12.0224 4.87726 11.4563 5.05176 10.9325L8.05176 1.93251L8.08887 1.83779Z" fill="black"/>
<path d="M14.6836 1.30068C15.1747 1.1371 15.7031 1.37573 15.9111 1.83779L15.9482 1.93251L18.9482 10.9325C19.1226 11.4562 18.8399 12.0223 18.3164 12.1972C17.8252 12.3609 17.2969 12.1222 17.0889 11.6601L17.0518 11.5653L14.0518 2.56533L14.0234 2.46669C13.9128 1.97232 14.1927 1.46448 14.6836 1.30068Z" fill="black"/>
</svg>
