<svg width="24" height="24" viewBox="0 0 24 24" fill="none" xmlns="http://www.w3.org/2000/svg">
<path d="M20 7.1362C22.3442 8.07821 23.9999 10.3711 24 13.0522C23.9999 15.8995 22.1329 18.3102 19.5566 19.1284L19.0791 19.2827C18.9633 19.3226 18.8865 19.3537 18.8359 19.3823L18.7041 19.4633C18.6719 19.488 18.6426 19.5165 18.5908 19.5688C18.5091 19.6515 18.3936 19.8306 18.1631 20.188L17.9277 20.5298C16.6994 22.1997 14.7215 23.2837 12.4893 23.2837C9.80138 23.2836 7.4804 21.7128 6.39453 19.4389C6.39092 19.4314 6.38337 19.4272 6.375 19.4272C2.85423 19.4271 9.03886e-05 16.573 0 13.0522C6.75042e-05 10.3711 1.65583 8.07821 4 7.1362V9.99069C3.13642 10.6616 2.56385 11.6895 2.50488 12.853L2.5 13.0522C2.50009 15.1922 4.23485 16.9271 6.375 16.9272C7.09287 16.9272 8.0246 17.2663 8.55078 18.1723L8.65039 18.3618L8.78809 18.6255C9.52061 19.9182 10.906 20.7836 12.4893 20.7837C13.9847 20.7837 15.3016 20.0127 16.0625 18.8335C16.1705 18.6661 16.2767 18.5001 16.3662 18.3686C16.4354 18.267 16.5961 18.0308 16.8135 17.811C16.8439 17.7802 16.9929 17.6243 17.1855 17.477C17.3778 17.3301 17.5662 17.2272 17.6045 17.2055C17.8753 17.0524 18.1493 16.9592 18.2646 16.9194C18.4163 16.8671 18.606 16.8071 18.7998 16.7456C20.3686 16.2474 21.4999 14.7785 21.5 13.0522C21.4999 11.8073 20.9125 10.6997 20 9.99069V7.1362Z" fill="black"/>
<path d="M12 4.61569C12.69 4.61592 13.2498 5.17564 13.25 5.86569V14.9174C13.2498 15.6075 12.69 16.1672 12 16.1674C11.31 16.1672 10.7502 15.6075 10.75 14.9174V5.86569C10.7502 5.17563 11.3099 4.6159 12 4.61569Z" fill="black"/>
<path d="M7.81348 1.85397C8.0129 1.25309 8.64007 0.887725 9.27148 1.0278C9.90258 1.16831 10.3148 1.76446 10.2412 2.39304L10.2207 2.51999L8.2207 11.52L8.18652 11.643C7.98736 12.2444 7.36024 12.6094 6.72852 12.4692C6.09722 12.3286 5.6848 11.7328 5.75879 11.104L5.7793 10.977L7.7793 1.97702L7.81348 1.85397Z" fill="black"/>
<path d="M14.7285 1.0278C15.3599 0.887753 15.9871 1.25309 16.1865 1.85397L16.2207 1.97702L18.2207 10.977L18.2412 11.104C18.3152 11.7328 17.9027 12.3286 17.2715 12.4692C16.6398 12.6094 16.0126 12.2444 15.8135 11.643L15.7793 11.52L13.7793 2.51999L13.7588 2.39304C13.6852 1.76446 14.0974 1.16831 14.7285 1.0278Z" fill="black"/>
</svg>
