<svg width="24" height="24" viewBox="0 0 24 24" fill="none" xmlns="http://www.w3.org/2000/svg">
<path d="M10.5 14.9174C10.5006 15.7453 11.172 16.4173 12 16.4174C12.8281 16.4174 13.4994 15.7453 13.5 14.9174V6.69964H14.9023L16.5771 11.7231L16.6328 11.8657C16.9449 12.5588 17.7379 12.9168 18.4746 12.6713C19.2602 12.4093 19.6845 11.5596 19.4229 10.7739L18.0654 6.70257C21.3806 6.92893 23.9998 9.68934 24 13.0619C23.9996 16.1692 21.7757 18.7564 18.833 19.3207C18.3936 19.405 18.1736 19.4476 18.0635 19.4946C17.9245 19.5538 17.909 19.5626 17.792 19.6586C17.6994 19.7349 17.5625 19.9077 17.29 20.2514C16.054 21.8106 14.1442 22.8119 12 22.8119C9.8558 22.8119 7.94601 21.8105 6.70996 20.2514C6.43752 19.9077 6.30057 19.7349 6.20801 19.6586C6.09099 19.5626 6.07549 19.5538 5.93652 19.4946C5.82638 19.4476 5.6064 19.405 5.16699 19.3207C2.22431 18.7564 0.000429932 16.1692 0 13.0619C0.000199434 9.68968 2.61885 6.92941 5.93359 6.70257L4.57715 10.7739C4.31552 11.5594 4.74006 12.4091 5.52539 12.6713C6.26209 12.9168 7.05509 12.5588 7.36719 11.8657L7.42285 11.7231L9.09766 6.69964H10.5V14.9174Z" fill="black"/>
<path d="M12 5.11566C12.414 5.11588 12.75 5.45158 12.75 5.86566V14.9174C12.7495 15.3311 12.4137 15.6672 12 15.6674C11.5863 15.6672 11.2505 15.3311 11.25 14.9174V5.86566C11.25 5.45158 11.586 5.11588 12 5.11566Z" fill="black"/>
<path d="M8.31641 1.93987C8.47241 1.5935 8.86911 1.41411 9.2373 1.53655C9.60521 1.65947 9.81522 2.04096 9.73242 2.41155L9.71191 2.48577L6.71191 11.4858L6.68359 11.5571C6.5276 11.9035 6.13091 12.0828 5.7627 11.9604C5.39478 11.8375 5.18476 11.456 5.26758 11.0854L5.28809 11.0112L8.28809 2.01116L8.31641 1.93987Z" fill="black"/>
<path d="M14.7627 1.53655C15.1309 1.41397 15.5275 1.59361 15.6836 1.93987L15.7119 2.01116L18.7119 11.0112L18.7324 11.0854C18.8152 11.456 18.6053 11.8376 18.2373 11.9604C17.8691 12.083 17.4725 11.9034 17.3164 11.5571L17.2881 11.4858L14.2881 2.48577L14.2676 2.41155C14.1849 2.04093 14.3947 1.65936 14.7627 1.53655Z" fill="black"/>
</svg>
