<svg width="24" height="24" viewBox="0 0 24 24" fill="none" xmlns="http://www.w3.org/2000/svg">
<path fill-rule="evenodd" clip-rule="evenodd" d="M12 0.25C5.51065 0.25 0.25 5.51065 0.25 12C0.25 18.4893 5.51065 23.75 12 23.75C18.4893 23.75 23.75 18.4893 23.75 12C23.75 5.51065 18.4893 0.25 12 0.25ZM2.78315 11.2114C3.1833 6.47188 7.15701 2.75 12 2.75C16.843 2.75 20.8167 6.47188 21.2169 11.2114C20.8817 11.3637 20.4897 11.3438 20.1694 11.1516L17.1751 9.35504C16.2426 8.79555 15.1756 8.5 14.0881 8.5H12.2483C12.0828 8.49772 11.9172 8.49772 11.7517 8.5H9.9119C8.82444 8.5 7.75742 8.79555 6.82493 9.35504L3.83064 11.1516C3.51028 11.3438 3.11834 11.3637 2.78315 11.2114ZM3.28668 15.1124C4.15222 17.5353 5.99963 19.4915 8.34968 20.5019L7.07836 16.6879L7.40989 17.1299C7.49801 17.2474 7.55879 17.3285 7.62401 17.4025C8.05348 17.8901 8.65588 18.1913 9.30359 18.2423C9.40194 18.2501 9.50323 18.2501 9.65005 18.2501L10.2343 18.2501L10.844 20.079C10.878 20.1811 10.9735 20.2499 11.0811 20.2499H12.7105C12.8147 20.2499 12.908 20.1853 12.9446 20.0877L13.6337 18.25C13.6959 18.2499 13.7443 18.2495 13.7922 18.2471C14.3713 18.2192 14.9227 17.9908 15.352 17.601C15.3968 17.5603 15.4402 17.5169 15.5031 17.4541L16.96 15.9972C17.0674 15.8897 17.1716 15.7795 17.2724 15.6667L15.4241 20.5955C17.8816 19.6157 19.8202 17.6125 20.7133 15.1124C20.5498 14.8897 20.2833 14.7627 20.004 14.7792L17.2264 14.9426C17.0351 15.1877 16.8282 15.4219 16.6064 15.6436L15.1578 17.0923C15.087 17.163 15.0516 17.1984 15.0159 17.2308C14.6862 17.5302 14.2664 17.7106 13.8234 17.7443L13.8316 17.7223C13.774 17.732 13.7158 17.7392 13.6571 17.7438C13.5787 17.75 13.4959 17.75 13.3304 17.75H10.6696C10.5041 17.75 10.4213 17.75 10.3429 17.7438C10.2439 17.736 10.1462 17.7209 10.0506 17.6989L10.0676 17.7501H9.66961C9.50408 17.7501 9.42131 17.7501 9.34287 17.7439C8.8247 17.703 8.34278 17.4621 7.99921 17.072C7.9472 17.013 7.89755 16.9468 7.79823 16.8144L6.93897 15.6687C6.8025 15.4867 6.67345 15.2999 6.55201 15.1088L6.49105 14.9259L3.99601 14.7792C3.71672 14.7627 3.45025 14.8897 3.28668 15.1124Z" fill="black"/>
</svg>
