<svg width="24" height="24" viewBox="0 0 24 24" fill="none" xmlns="http://www.w3.org/2000/svg">
<path fill-rule="evenodd" clip-rule="evenodd" d="M12 1C5.92487 1 1 5.92487 1 12C1 18.0751 5.92487 23 12 23C18.0751 23 23 18.0751 23 12C23 5.92487 18.0751 1 12 1ZM2.93949 7.76269C4.53445 4.35812 7.99184 2 12 2C16.0082 2 19.4656 4.35817 21.0606 7.76279L21.1403 8.00209C21.3785 8.71678 21.5 9.4652 21.5 10.2186C21.5 10.3726 21.4192 10.5154 21.287 10.5947L21.1178 10.6963C20.8806 10.8385 20.5862 10.846 20.3422 10.7158L17.2353 9.05882C17.2039 9.04209 17.171 9.02881 17.137 9.01914C16.7334 8.68464 16.2392 8.44967 15.687 8.35765L14.734 8.19882C12.9238 7.89712 11.0762 7.89712 9.26596 8.19882L8.31299 8.35765C7.76079 8.44968 7.26647 8.68468 6.86286 9.01923C6.82895 9.0289 6.79604 9.04216 6.7647 9.05888L3.65782 10.7159C3.4138 10.846 3.11939 10.8386 2.88224 10.6963L2.71295 10.5947C2.58083 10.5155 2.49999 10.3727 2.49999 10.2186C2.49999 9.46526 2.62145 8.71684 2.85968 8.00215L2.93949 7.76269ZM2.02225 11.3277C2.00749 11.5499 2 11.7741 2 12C2 13.168 2.20023 14.2892 2.56825 15.3311L2.75964 15.0122C3.04695 14.5333 3.57649 14.2537 4.13396 14.2865L6.56197 14.4293C6.14517 13.5817 5.87635 12.665 5.77121 11.7186C5.73196 11.3655 5.7545 11.0191 5.83041 10.6905L4.12841 11.5982C3.57445 11.8937 2.9061 11.8768 2.36775 11.5538L2.19846 11.4522C2.13615 11.4148 2.07731 11.3731 2.02225 11.3277ZM4.08621 18.114C5.91521 20.478 8.77986 22 12 22C15.2197 22 18.0841 20.4783 19.9131 18.115C20.3206 17.5533 20.5924 16.9045 20.7065 16.2194C20.7194 16.1419 20.7044 16.0624 20.6639 15.9951L20.3829 15.5266C20.2871 15.367 20.1106 15.2738 19.9248 15.2847L16.8294 15.4668C16.7682 15.5555 16.7052 15.6431 16.6403 15.7296L16.1183 16.4257L14.5914 20.2428C14.2877 21.0022 13.5523 21.5001 12.7344 21.5001H11.0594C10.2126 21.5001 9.45767 20.9669 9.17451 20.1689L7.81446 16.336L7.35967 15.7296C7.29484 15.6432 7.2318 15.5556 7.17058 15.4668L4.07524 15.2848C3.88942 15.2738 3.7129 15.367 3.61713 15.5266L3.33605 15.9951C3.29564 16.0625 3.28055 16.142 3.29346 16.2194C3.40757 16.9041 3.67909 17.5526 4.08621 18.114ZM21.4318 15.3311C21.7998 14.2891 22 13.168 22 12C22 11.774 21.9925 11.5498 21.9778 11.3276C21.9227 11.3731 21.8638 11.4148 21.8015 11.4522L21.6322 11.5537C21.0939 11.8768 20.4255 11.8936 19.8716 11.5982L18.1696 10.6904C18.2455 11.019 18.268 11.3654 18.2288 11.7186C18.1236 12.665 17.8548 13.5817 17.438 14.4293L19.866 14.2864C20.4235 14.2536 20.953 14.5332 21.2404 15.0121L21.4318 15.3311ZM13.6964 18.2423C13.9304 18.2239 14.1585 18.1728 14.3747 18.092L13.6629 19.8714C13.5111 20.2511 13.1433 20.5001 12.7344 20.5001H11.0594C10.636 20.5001 10.2585 20.2335 10.1169 19.8345L9.47707 18.0312C9.73611 18.1474 10.0154 18.2196 10.3036 18.2423C10.4019 18.2501 10.5032 18.2501 10.6501 18.25H13.3498C13.4967 18.2501 13.598 18.2501 13.6964 18.2423ZM14.5696 9.18521C12.8683 8.90165 11.1317 8.90165 9.43036 9.18521L8.47739 9.34404C7.39591 9.52429 6.64401 10.5185 6.76509 11.6082C6.90701 12.8855 7.38857 14.1015 8.15967 15.1296L9.19823 16.5144C9.30236 16.6532 9.33846 16.7007 9.37441 16.7415C9.63208 17.0341 9.99352 17.2148 10.3822 17.2454C10.4364 17.2497 10.496 17.25 10.6696 17.25H13.3304C13.5039 17.25 13.5636 17.2497 13.6178 17.2454C14.0065 17.2148 14.3679 17.0341 14.6256 16.7415C14.6615 16.7007 14.6976 16.6532 14.8018 16.5144L15.8403 15.1296C16.6114 14.1015 17.093 12.8855 17.2349 11.6082C17.356 10.5185 16.6041 9.52429 15.5226 9.34404L14.5696 9.18521Z" fill="black"/>
</svg>
