<svg width="24" height="24" viewBox="0 0 24 24" fill="none" xmlns="http://www.w3.org/2000/svg">
<path fill-rule="evenodd" clip-rule="evenodd" d="M12 0.5C5.64873 0.5 0.5 5.64873 0.5 12C0.5 18.3513 5.64873 23.5 12 23.5C18.3513 23.5 23.5 18.3513 23.5 12C23.5 5.64873 18.3513 0.5 12 0.5ZM2.54538 11.0655C3.01483 6.25742 7.06862 2.5 12 2.5C16.9314 2.5 20.9852 6.25742 21.4546 11.0655C21.4156 11.0966 21.3743 11.1254 21.3306 11.1516C20.9732 11.3661 20.5268 11.3661 20.1694 11.1516L17.1751 9.35504C16.2426 8.79555 15.1756 8.5 14.0881 8.5H12.2483C12.0828 8.49772 11.9172 8.49772 11.7517 8.5H9.9119C8.82444 8.5 7.75742 8.79555 6.82493 9.35504L3.83064 11.1516C3.47325 11.3661 3.02675 11.3661 2.66936 11.1516C2.62574 11.1254 2.58437 11.0966 2.54538 11.0655ZM3.12931 15.4073C4.11404 17.9694 6.17683 19.9968 8.76213 20.9339C8.7432 20.8869 8.72562 20.8391 8.70942 20.7905L7.14747 16.1046L8.49694 17.4541C8.55975 17.5169 8.60319 17.5604 8.64798 17.601C9.01599 17.9351 9.47375 18.1507 9.96178 18.223L10.6068 20.158C10.6748 20.3622 10.8659 20.4999 11.0811 20.4999H12.7105C12.9189 20.4999 13.1055 20.3706 13.1787 20.1755L13.9048 18.2392C14.4425 18.1888 14.9506 17.9654 15.352 17.601C15.3968 17.5604 15.4402 17.5169 15.503 17.4541L16.8345 16.1227L15.0513 20.8777C15.0334 20.9255 15.0141 20.9726 14.9935 21.0188C17.6929 20.1232 19.8551 18.0496 20.8707 15.4073C20.8388 15.328 20.8004 15.2507 20.7556 15.1761C20.5985 14.9142 20.3089 14.7612 20.004 14.7792L17.2264 14.9426C17.0351 15.1877 16.8282 15.4219 16.6064 15.6436L15.1578 17.0923C15.0872 17.1629 15.0516 17.1984 15.0159 17.2308C14.7573 17.4656 14.4433 17.6272 14.1061 17.7023L14.1259 17.6495C13.9752 17.6992 13.8179 17.7312 13.6571 17.7438C13.5787 17.75 13.4959 17.75 13.3304 17.75H10.6696C10.5041 17.75 10.4213 17.75 10.3429 17.7438C10.1397 17.7278 9.94216 17.681 9.7563 17.6066L9.77842 17.6729C9.48515 17.5891 9.21292 17.4386 8.98407 17.2308C8.94833 17.1984 8.91296 17.163 8.84222 17.0923L7.39354 15.6436C7.1718 15.4219 6.9649 15.1877 6.7736 14.9426L3.99601 14.7792C3.69112 14.7612 3.4015 14.9142 3.24436 15.1761C3.19959 15.2507 3.16123 15.328 3.12931 15.4073Z" fill="black"/>
</svg>
