<svg width="24" height="24" viewBox="0 0 24 24" fill="none" xmlns="http://www.w3.org/2000/svg">
<path d="M14.3746 18.0921L13.6629 19.8713C13.5111 20.251 13.1433 20.4999 12.7344 20.4999H11.0594C10.636 20.4999 10.2585 20.2333 10.1169 19.8343L9.47713 18.0312C9.15403 17.8863 8.86238 17.6731 8.62401 17.4025C8.55879 17.3285 8.49801 17.2474 8.40989 17.1299L7.81455 16.3361L9.17451 20.1688C9.45767 20.9667 10.2126 21.4999 11.0594 21.4999H12.7344C13.5523 21.4999 14.2877 21.002 14.5914 20.2427L16.1181 16.4259L15.5901 17.1299C15.502 17.2474 15.4412 17.3285 15.376 17.4025C15.1017 17.714 14.7568 17.9493 14.3746 18.0921Z" fill="black"/>
<path fill-rule="evenodd" clip-rule="evenodd" d="M12 1C5.92487 1 1 5.92487 1 12C1 18.0751 5.92487 23 12 23C18.0751 23 23 18.0751 23 12C23 5.92487 18.0751 1 12 1ZM2.13454 10.3557C2.91876 5.61518 7.03719 2 12 2C16.9628 2 21.0812 5.61518 21.8655 10.3557C21.8153 10.6812 21.6237 10.9758 21.3306 11.1516C20.9732 11.3661 20.5268 11.3661 20.1694 11.1516L17.1751 9.35504C16.2426 8.79555 15.1756 8.5 14.0881 8.5H12.2483C12.0828 8.49772 11.9172 8.49772 11.7517 8.5H9.9119C8.82444 8.5 7.75742 8.79555 6.82493 9.35504L3.83064 11.1516C3.47325 11.3661 3.02675 11.3661 2.66936 11.1516C2.37627 10.9758 2.18473 10.6812 2.13454 10.3557ZM3.11092 16.5854C4.77333 19.8016 8.12993 22 12 22C15.8701 22 19.2267 19.8016 20.8891 16.5854C21.0583 16.1243 21.0133 15.6056 20.7556 15.1761C20.5985 14.9142 20.3089 14.7612 20.004 14.7792L16.5235 14.9839C16.3758 15.226 16.2163 15.4616 16.0453 15.6897L15.2018 16.8144C15.1024 16.9468 15.0528 17.013 15.0008 17.072C14.8984 17.1882 14.7838 17.2912 14.6596 17.3796C14.3669 17.5879 14.021 17.7151 13.6571 17.7438C13.5787 17.75 13.4959 17.75 13.3304 17.75H10.6696C10.5041 17.75 10.4213 17.75 10.3429 17.7438C9.92344 17.7108 9.52776 17.5466 9.20998 17.2784C9.13516 17.2152 9.06469 17.1464 8.99921 17.072C8.9472 17.013 8.89754 16.9468 8.79822 16.8144L7.95471 15.6897C7.78366 15.4616 7.62414 15.226 7.47651 14.9839L3.99601 14.7792C3.69112 14.7612 3.4015 14.9142 3.24436 15.1761C2.98666 15.6056 2.94166 16.1243 3.11092 16.5854Z" fill="black"/>
</svg>
