<svg width="24" height="24" viewBox="0 0 24 24" fill="none" xmlns="http://www.w3.org/2000/svg">
<path d="M13.913 18.2157L13.4503 19.2954C13.3321 19.5711 13.0609 19.7499 12.7609 19.7499H11.0353C10.7237 19.7499 10.4446 19.5573 10.3341 19.2659L9.92315 18.1826C9.42288 18.064 8.96798 17.793 8.62401 17.4025C8.55879 17.3285 8.49801 17.2474 8.40989 17.1299L7.55471 15.9897C7.50694 15.926 7.46003 15.8617 7.41397 15.797L8.93156 19.7979C9.26309 20.6719 10.1005 21.2499 11.0353 21.2499H12.7609C13.661 21.2499 14.4744 20.7135 14.829 19.8862L16.5747 15.8128C16.5323 15.8722 16.4892 15.9312 16.4453 15.9897L15.5901 17.1299C15.502 17.2474 15.4412 17.3285 15.376 17.4025C14.9948 17.8353 14.4774 18.1212 13.913 18.2157Z" fill="black"/>
<path fill-rule="evenodd" clip-rule="evenodd" d="M12 0.75C5.7868 0.75 0.75 5.7868 0.75 12C0.75 18.2132 5.7868 23.25 12 23.25C18.2132 23.25 23.25 18.2132 23.25 12C23.25 5.7868 18.2132 0.75 12 0.75ZM2.32024 10.8236C2.9011 5.99356 7.01337 2.25 12 2.25C16.9866 2.25 21.0989 5.99356 21.6798 10.8236C21.5901 10.9541 21.4722 11.0667 21.3306 11.1516C20.9732 11.3661 20.5268 11.3661 20.1694 11.1516L17.1751 9.35504C16.2426 8.79555 15.1756 8.5 14.0881 8.5H12.2483C12.0828 8.49772 11.9172 8.49772 11.7517 8.5H9.9119C8.82444 8.5 7.75742 8.79555 6.82493 9.35504L3.83064 11.1516C3.47325 11.3661 3.02675 11.3661 2.66936 11.1516C2.5278 11.0667 2.40994 10.9541 2.32024 10.8236ZM3.0237 15.8128C4.508 19.3028 7.96822 21.75 12 21.75C16.0318 21.75 19.492 19.3028 20.9763 15.8128C20.9481 15.5912 20.8745 15.3741 20.7556 15.1761C20.5985 14.9142 20.3089 14.7612 20.004 14.7792L16.5235 14.9839C16.3758 15.226 16.2163 15.4616 16.0453 15.6897L15.2018 16.8144C15.1024 16.9468 15.0528 17.013 15.0008 17.072C14.772 17.3317 14.4819 17.5253 14.1606 17.6378C13.9994 17.6942 13.8303 17.7302 13.6571 17.7438C13.5787 17.75 13.4959 17.75 13.3304 17.75H10.6696C10.5041 17.75 10.4213 17.75 10.3429 17.7438C10.1172 17.726 9.89837 17.6703 9.69487 17.5808C9.43113 17.4648 9.19314 17.2922 8.99921 17.072C8.9472 17.013 8.89754 16.9468 8.79822 16.8144L7.95471 15.6897C7.78366 15.4616 7.62414 15.226 7.47651 14.9839L3.99601 14.7792C3.69112 14.7612 3.4015 14.9142 3.24436 15.1761C3.12552 15.3741 3.05191 15.5912 3.0237 15.8128Z" fill="black"/>
</svg>
