<svg width="24" height="24" viewBox="0 0 24 24" fill="none" xmlns="http://www.w3.org/2000/svg">
<path d="M22 18.9111C22.4142 18.9111 22.75 19.2469 22.75 19.6611C22.75 20.0753 22.4142 20.4111 22 20.4111H2C1.58579 20.4111 1.25 20.0753 1.25 19.6611C1.25 19.2469 1.58579 18.9111 2 18.9111H22Z" fill="black"/>
<path d="M22 12.1611C22.2761 12.1611 22.5 12.385 22.5 12.6611C22.5 12.9373 22.2761 13.1611 22 13.1611H2C1.72386 13.1611 1.5 12.9373 1.5 12.6611C1.5 12.385 1.72386 12.1611 2 12.1611H22Z" fill="black"/>
<path d="M22 5.41113C22.1381 5.41113 22.25 5.52306 22.25 5.66113C22.25 5.7992 22.1381 5.91113 22 5.91113H2C1.86193 5.91113 1.75 5.7992 1.75 5.66113C1.75 5.52306 1.86193 5.41113 2 5.41113H22Z" fill="black"/>
</svg>
