<svg width="24" height="24" viewBox="0 0 24 24" fill="none" xmlns="http://www.w3.org/2000/svg">
<path d="M22 18.6602C22.5523 18.6602 23 19.1079 23 19.6602C23 20.2124 22.5523 20.6602 22 20.6602H2C1.44772 20.6602 1 20.2124 1 19.6602C1 19.1079 1.44772 18.6602 2 18.6602H22Z" fill="black"/>
<path d="M22 11.9102C22.4142 11.9102 22.75 12.2459 22.75 12.6602C22.75 13.0744 22.4142 13.4102 22 13.4102H2C1.58579 13.4102 1.25 13.0744 1.25 12.6602C1.25 12.2459 1.58579 11.9102 2 11.9102H22Z" fill="black"/>
<path d="M22 5.16016C22.2761 5.16016 22.5 5.38401 22.5 5.66016C22.5 5.9363 22.2761 6.16016 22 6.16016H2C1.72386 6.16016 1.5 5.9363 1.5 5.66016C1.5 5.38401 1.72386 5.16016 2 5.16016H22Z" fill="black"/>
</svg>
