<svg width="24" height="24" viewBox="0 0 24 24" fill="none" xmlns="http://www.w3.org/2000/svg">
<path fill-rule="evenodd" clip-rule="evenodd" d="M22 14.75C22.1381 14.75 22.25 14.8619 22.25 15V22C22.25 22.138 22.138 22.25 22 22.25H2C1.86195 22.25 1.75004 22.138 1.75 22V15C1.75 14.8619 1.86193 14.75 2 14.75H22ZM2.25 21.75H21.75V15.25H2.25V21.75Z" fill="black"/>
<path fill-rule="evenodd" clip-rule="evenodd" d="M22 5.75C22.1381 5.75 22.25 5.86193 22.25 6V11C22.25 11.138 22.138 11.25 22 11.25H2C1.86195 11.25 1.75004 11.138 1.75 11V6C1.75 5.86193 1.86193 5.75 2 5.75H22ZM2.25 10.75H21.75V6.25H2.25V10.75Z" fill="black"/>
<path d="M22 1.41113C22.1381 1.41113 22.25 1.52306 22.25 1.66113C22.25 1.7992 22.1381 1.91113 22 1.91113H2C1.86193 1.91113 1.75 1.7992 1.75 1.66113C1.75 1.52306 1.86193 1.41113 2 1.41113H22Z" fill="black"/>
</svg>
