<svg width="24" height="24" viewBox="0 0 24 24" fill="none" xmlns="http://www.w3.org/2000/svg">
<path fill-rule="evenodd" clip-rule="evenodd" d="M22 14C22.5523 14 23 14.4477 23 15V22C23 22.5522 22.5523 23 22 23H2C1.44774 23 1.00004 22.5522 1 22V15C1 14.4477 1.44772 14 2 14H22ZM3 21H21V16H3V21Z" fill="black"/>
<path fill-rule="evenodd" clip-rule="evenodd" d="M22 5C22.5523 5 23 5.44772 23 6V11C23 11.5522 22.5523 12 22 12H2C1.44774 12 1.00004 11.5522 1 11V6C1 5.44772 1.44772 5 2 5H22ZM3 10H21V7H3V10Z" fill="black"/>
<path d="M22 0.661133C22.5523 0.661133 23 1.10885 23 1.66113C23 2.21342 22.5523 2.66113 22 2.66113H2C1.44772 2.66113 1 2.21342 1 1.66113C1 1.10885 1.44772 0.661133 2 0.661133H22Z" fill="black"/>
</svg>
