<svg width="24" height="24" viewBox="0 0 24 24" fill="none" xmlns="http://www.w3.org/2000/svg">
<path d="M22 18.6611C22.5523 18.6611 23 19.1088 23 19.6611C23 20.2134 22.5523 20.6611 22 20.6611H2C1.44772 20.6611 1 20.2134 1 19.6611C1 19.1088 1.44772 18.6611 2 18.6611H22Z" fill="black"/>
<path d="M22 11.9111C22.4142 11.9111 22.75 12.2469 22.75 12.6611C22.75 13.0753 22.4142 13.4111 22 13.4111H2C1.58579 13.4111 1.25 13.0753 1.25 12.6611C1.25 12.2469 1.58579 11.9111 2 11.9111H22Z" fill="black"/>
<path d="M22 5.16113C22.2761 5.16113 22.5 5.38499 22.5 5.66113C22.5 5.93728 22.2761 6.16113 22 6.16113H2C1.72386 6.16113 1.5 5.93728 1.5 5.66113C1.5 5.38499 1.72386 5.16113 2 5.16113H22Z" fill="black"/>
</svg>
