<svg width="24" height="24" viewBox="0 0 24 24" fill="none" xmlns="http://www.w3.org/2000/svg">
<path d="M22 18.4102C22.6904 18.4102 23.25 18.9698 23.25 19.6602C23.25 20.3505 22.6904 20.9102 22 20.9102H2C1.30964 20.9102 0.75 20.3505 0.75 19.6602C0.75 18.9698 1.30964 18.4102 2 18.4102H22Z" fill="black"/>
<path d="M22 11.6602C22.5523 11.6602 23 12.1079 23 12.6602C23 13.2124 22.5523 13.6602 22 13.6602H2C1.44772 13.6602 1 13.2124 1 12.6602C1 12.1079 1.44772 11.6602 2 11.6602H22Z" fill="black"/>
<path d="M22 4.91016C22.4142 4.91016 22.75 5.24594 22.75 5.66016C22.75 6.07437 22.4142 6.41016 22 6.41016H2C1.58579 6.41016 1.25 6.07437 1.25 5.66016C1.25 5.24594 1.58579 4.91016 2 4.91016H22Z" fill="black"/>
</svg>
