<svg width="24" height="24" viewBox="0 0 24 24" fill="none" xmlns="http://www.w3.org/2000/svg">
<path d="M22 18.9102C22.4142 18.9102 22.75 19.2459 22.75 19.6602C22.75 20.0744 22.4142 20.4102 22 20.4102H2C1.58579 20.4102 1.25 20.0744 1.25 19.6602C1.25 19.2459 1.58579 18.9102 2 18.9102H22Z" fill="black"/>
<path d="M22 12.1602C22.2761 12.1602 22.5 12.384 22.5 12.6602C22.5 12.9363 22.2761 13.1602 22 13.1602H2C1.72386 13.1602 1.5 12.9363 1.5 12.6602C1.5 12.384 1.72386 12.1602 2 12.1602H22Z" fill="black"/>
<path d="M22 5.41016C22.1381 5.41016 22.25 5.52209 22.25 5.66016C22.25 5.79823 22.1381 5.91016 22 5.91016H2C1.86193 5.91016 1.75 5.79823 1.75 5.66016C1.75 5.52209 1.86193 5.41016 2 5.41016H22Z" fill="black"/>
</svg>
