<svg width="24" height="24" viewBox="0 0 24 24" fill="none" xmlns="http://www.w3.org/2000/svg">
<path d="M22 18.1602C22.8284 18.1602 23.5 18.8317 23.5 19.6602C23.5 20.4886 22.8284 21.1602 22 21.1602H2C1.17157 21.1602 0.5 20.4886 0.5 19.6602C0.5 18.8317 1.17157 18.1602 2 18.1602H22Z" fill="black"/>
<path d="M22 11.4102C22.6904 11.4102 23.25 11.9698 23.25 12.6602C23.25 13.3505 22.6904 13.9102 22 13.9102H2C1.30964 13.9102 0.75 13.3505 0.75 12.6602C0.75 11.9698 1.30964 11.4102 2 11.4102H22Z" fill="black"/>
<path d="M22 4.66016C22.5523 4.66016 23 5.10787 23 5.66016C23 6.21244 22.5523 6.66016 22 6.66016H2C1.44772 6.66016 1 6.21244 1 5.66016C1 5.10787 1.44772 4.66016 2 4.66016H22Z" fill="black"/>
</svg>
