<svg width="24" height="24" viewBox="0 0 24 24" fill="none" xmlns="http://www.w3.org/2000/svg">
<path d="M22 17.9111C22.9665 17.9111 23.75 18.6946 23.75 19.6611C23.75 20.6276 22.9665 21.4111 22 21.4111H2C1.0335 21.4111 0.25 20.6276 0.25 19.6611C0.25 18.6946 1.0335 17.9111 2 17.9111H22Z" fill="black"/>
<path d="M22 11.1611C22.8284 11.1611 23.5 11.8327 23.5 12.6611C23.5 13.4896 22.8284 14.1611 22 14.1611H2C1.17157 14.1611 0.5 13.4896 0.5 12.6611C0.5 11.8327 1.17157 11.1611 2 11.1611H22Z" fill="black"/>
<path d="M22 4.41113C22.6904 4.41113 23.25 4.97078 23.25 5.66113C23.25 6.35149 22.6904 6.91113 22 6.91113H2C1.30964 6.91113 0.75 6.35149 0.75 5.66113C0.75 4.97078 1.30964 4.41113 2 4.41113H22Z" fill="black"/>
</svg>
