<svg width="24" height="24" viewBox="0 0 24 24" fill="none" xmlns="http://www.w3.org/2000/svg">
<path fill-rule="evenodd" clip-rule="evenodd" d="M22 13.75C22.6904 13.75 23.25 14.3096 23.25 15V22C23.25 22.6903 22.6903 23.25 22 23.25H2C1.30967 23.25 0.750041 22.6903 0.75 22V15C0.75 14.3096 1.30964 13.75 2 13.75H22ZM3.25 20.75H20.75V16.25H3.25V20.75Z" fill="black"/>
<path fill-rule="evenodd" clip-rule="evenodd" d="M22 4.75C22.6904 4.75 23.25 5.30964 23.25 6V11C23.25 11.6903 22.6903 12.25 22 12.25H2C1.30967 12.25 0.750041 11.6903 0.75 11V6C0.75 5.30964 1.30964 4.75 2 4.75H22ZM3.25 9.75H20.75V7.25H3.25V9.75Z" fill="black"/>
<path d="M22 0.411133C22.6904 0.411133 23.25 0.970777 23.25 1.66113C23.25 2.35149 22.6904 2.91113 22 2.91113H2C1.30964 2.91113 0.75 2.35149 0.75 1.66113C0.75 0.970777 1.30964 0.411133 2 0.411133H22Z" fill="black"/>
</svg>
