<svg width="24" height="24" viewBox="0 0 24 24" fill="none" xmlns="http://www.w3.org/2000/svg">
<path d="M22 17.9102C22.9665 17.9102 23.75 18.6937 23.75 19.6602C23.75 20.6267 22.9665 21.4102 22 21.4102H2C1.0335 21.4102 0.25 20.6267 0.25 19.6602C0.25 18.6937 1.0335 17.9102 2 17.9102H22Z" fill="black"/>
<path d="M22 11.1602C22.8284 11.1602 23.5 11.8317 23.5 12.6602C23.5 13.4886 22.8284 14.1602 22 14.1602H2C1.17157 14.1602 0.5 13.4886 0.5 12.6602C0.5 11.8317 1.17157 11.1602 2 11.1602H22Z" fill="black"/>
<path d="M22 4.41016C22.6904 4.41016 23.25 4.9698 23.25 5.66016C23.25 6.35051 22.6904 6.91016 22 6.91016H2C1.30964 6.91016 0.75 6.35051 0.75 5.66016C0.75 4.9698 1.30964 4.41016 2 4.41016H22Z" fill="black"/>
</svg>
