<svg width="24" height="24" viewBox="0 0 24 24" fill="none" xmlns="http://www.w3.org/2000/svg">
<path fill-rule="evenodd" clip-rule="evenodd" d="M22 14.25C22.4142 14.25 22.75 14.5858 22.75 15V22C22.75 22.4142 22.4142 22.75 22 22.75H2C1.58581 22.75 1.25004 22.4142 1.25 22V15C1.25 14.5858 1.58579 14.25 2 14.25H22ZM2.75 21.25H21.25V15.75H2.75V21.25Z" fill="black"/>
<path fill-rule="evenodd" clip-rule="evenodd" d="M22 5.25C22.4142 5.25 22.75 5.58579 22.75 6V11C22.75 11.4142 22.4142 11.75 22 11.75H2C1.58581 11.75 1.25004 11.4142 1.25 11V6C1.25 5.58579 1.58579 5.25 2 5.25H22ZM2.75 10.25H21.25V6.75H2.75V10.25Z" fill="black"/>
<path d="M22 0.911133C22.4142 0.911133 22.75 1.24692 22.75 1.66113C22.75 2.07535 22.4142 2.41113 22 2.41113H2C1.58579 2.41113 1.25 2.07535 1.25 1.66113C1.25 1.24692 1.58579 0.911133 2 0.911133H22Z" fill="black"/>
</svg>
