<svg width="24" height="24" viewBox="0 0 24 24" fill="none" xmlns="http://www.w3.org/2000/svg">
<path fill-rule="evenodd" clip-rule="evenodd" d="M22 14.5C22.2761 14.5 22.5 14.7239 22.5 15V22C22.5 22.2761 22.2761 22.5 22 22.5H2C1.72388 22.5 1.50004 22.2761 1.5 22V15C1.5 14.7239 1.72386 14.5 2 14.5H22ZM2.5 21.5H21.5V15.5H2.5V21.5Z" fill="black"/>
<path fill-rule="evenodd" clip-rule="evenodd" d="M22 5.5C22.2761 5.5 22.5 5.72386 22.5 6V11C22.5 11.2761 22.2761 11.5 22 11.5H2C1.72388 11.5 1.50004 11.2761 1.5 11V6C1.5 5.72386 1.72386 5.5 2 5.5H22ZM2.5 10.5H21.5V6.5H2.5V10.5Z" fill="black"/>
<path d="M22 1.16113C22.2761 1.16113 22.5 1.38499 22.5 1.66113C22.5 1.93728 22.2761 2.16113 22 2.16113H2C1.72386 2.16113 1.5 1.93728 1.5 1.66113C1.5 1.38499 1.72386 1.16113 2 1.16113H22Z" fill="black"/>
</svg>
