<svg width="24" height="24" viewBox="0 0 24 24" fill="none" xmlns="http://www.w3.org/2000/svg">
<path d="M0.5 12C0.5 11.4477 0.947715 11 1.5 11H4C4.55228 11 5 11.4477 5 12C5 12.5523 4.55228 13 4 13H1.5C0.947715 13 0.5 12.5523 0.5 12Z" fill="black"/>
<path d="M11 22.5C11 23.0523 11.4477 23.5 12 23.5C12.5523 23.5 13 23.0523 13 22.5V20C13 19.4477 12.5523 19 12 19C11.4477 19 11 19.4477 11 20V22.5Z" fill="black"/>
<path d="M12 0.5C12.5523 0.5 13 0.947716 13 1.5V4C13 4.55228 12.5523 5 12 5C11.4477 5 11 4.55228 11 4V1.5C11 0.947716 11.4477 0.5 12 0.5Z" fill="black"/>
<path d="M23.5 12C23.5 12.5523 23.0523 13 22.5 13H20C19.4477 13 19 12.5523 19 12C19 11.4477 19.4477 11 20 11H22.5C23.0523 11 23.5 11.4477 23.5 12Z" fill="black"/>
<path d="M20.1312 5.2823C20.5217 4.89177 20.5217 4.25861 20.1312 3.86809C19.7407 3.47756 19.1075 3.47756 18.717 3.86809L16.9492 5.63585C16.5587 6.02638 16.5587 6.65954 16.9492 7.05007C17.3397 7.44059 17.9729 7.44059 18.3634 7.05007L20.1312 5.2823Z" fill="black"/>
<path d="M20.1312 20.1319C19.7407 20.5224 19.1075 20.5224 18.717 20.1319L16.9492 18.3641C16.5587 17.9736 16.5587 17.3405 16.9492 16.9499C17.3397 16.5594 17.9729 16.5594 18.3634 16.9499L20.1312 18.7177C20.5217 19.1082 20.5217 19.7414 20.1312 20.1319Z" fill="black"/>
<path d="M3.86737 18.7177C3.47685 19.1082 3.47685 19.7414 3.86737 20.1319C4.2579 20.5224 4.89106 20.5224 5.28159 20.1319L7.04935 18.3641C7.43988 17.9736 7.43988 17.3405 7.04935 16.9499C6.65883 16.5594 6.02566 16.5594 5.63514 16.9499L3.86737 18.7177Z" fill="black"/>
<path d="M3.86737 3.86809C4.2579 3.47756 4.89106 3.47756 5.28159 3.86809L7.04935 5.63585C7.43988 6.02638 7.43988 6.65954 7.04935 7.05007C6.65883 7.44059 6.02566 7.44059 5.63514 7.05007L3.86737 5.2823C3.47685 4.89178 3.47685 4.25861 3.86737 3.86809Z" fill="black"/>
<path fill-rule="evenodd" clip-rule="evenodd" d="M12 7.5C9.51472 7.5 7.5 9.51472 7.5 12C7.5 14.4853 9.51472 16.5 12 16.5C14.4853 16.5 16.5 14.4853 16.5 12C16.5 9.51472 14.4853 7.5 12 7.5ZM9.5 12C9.5 10.6193 10.6193 9.5 12 9.5C13.3807 9.5 14.5 10.6193 14.5 12C14.5 13.3807 13.3807 14.5 12 14.5C10.6193 14.5 9.5 13.3807 9.5 12Z" fill="black"/>
</svg>
