<svg width="24" height="24" viewBox="0 0 24 24" fill="none" xmlns="http://www.w3.org/2000/svg">
<path d="M1.25 12C1.25 11.8619 1.36193 11.75 1.5 11.75H4C4.13807 11.75 4.25 11.8619 4.25 12C4.25 12.1381 4.13807 12.25 4 12.25H1.5C1.36193 12.25 1.25 12.1381 1.25 12Z" fill="black"/>
<path d="M11.75 22.5C11.75 22.6381 11.8619 22.75 12 22.75C12.1381 22.75 12.25 22.6381 12.25 22.5V20C12.25 19.8619 12.1381 19.75 12 19.75C11.8619 19.75 11.75 19.8619 11.75 20V22.5Z" fill="black"/>
<path d="M12 1.25C12.1381 1.25 12.25 1.36193 12.25 1.5V4C12.25 4.13807 12.1381 4.25 12 4.25C11.8619 4.25 11.75 4.13807 11.75 4V1.5C11.75 1.36193 11.8619 1.25 12 1.25Z" fill="black"/>
<path d="M22.75 12C22.75 12.1381 22.6381 12.25 22.5 12.25H20C19.8619 12.25 19.75 12.1381 19.75 12C19.75 11.8619 19.8619 11.75 20 11.75H22.5C22.6381 11.75 22.75 11.8619 22.75 12Z" fill="black"/>
<path d="M19.6009 4.75197C19.6985 4.65434 19.6985 4.49605 19.6009 4.39842C19.5032 4.30078 19.3449 4.30078 19.2473 4.39842L17.4795 6.16618C17.3819 6.26381 17.3819 6.42211 17.4795 6.51974C17.5772 6.61737 17.7355 6.61737 17.8331 6.51974L19.6009 4.75197Z" fill="black"/>
<path d="M19.6009 19.6016C19.5032 19.6992 19.3449 19.6992 19.2473 19.6016L17.4795 17.8338C17.3819 17.7362 17.3819 17.5779 17.4795 17.4803C17.5772 17.3826 17.7355 17.3826 17.8331 17.4803L19.6009 19.248C19.6985 19.3457 19.6985 19.5039 19.6009 19.6016Z" fill="black"/>
<path d="M4.3977 19.248C4.30007 19.3457 4.30007 19.5039 4.3977 19.6016C4.49533 19.6992 4.65362 19.6992 4.75126 19.6016L6.51902 17.8338C6.61665 17.7362 6.61665 17.5779 6.51902 17.4803C6.42139 17.3826 6.2631 17.3826 6.16547 17.4803L4.3977 19.248Z" fill="black"/>
<path d="M4.3977 4.39842C4.49533 4.30079 4.65363 4.30079 4.75126 4.39842L6.51902 6.16618C6.61665 6.26382 6.61665 6.42211 6.51902 6.51974C6.42139 6.61737 6.2631 6.61737 6.16547 6.51974L4.3977 4.75197C4.30007 4.65434 4.30007 4.49605 4.3977 4.39842Z" fill="black"/>
<path fill-rule="evenodd" clip-rule="evenodd" d="M12 8.25C9.92893 8.25 8.25 9.92893 8.25 12C8.25 14.0711 9.92893 15.75 12 15.75C14.0711 15.75 15.75 14.0711 15.75 12C15.75 9.92893 14.0711 8.25 12 8.25ZM8.75 12C8.75 10.2051 10.2051 8.75 12 8.75C13.7949 8.75 15.25 10.2051 15.25 12C15.25 13.7949 13.7949 15.25 12 15.25C10.2051 15.25 8.75 13.7949 8.75 12Z" fill="black"/>
</svg>
