<svg width="24" height="24" viewBox="0 0 24 24" fill="none" xmlns="http://www.w3.org/2000/svg">
<path d="M0.25 12C0.25 11.3096 0.809644 10.75 1.5 10.75H4C4.69036 10.75 5.25 11.3096 5.25 12C5.25 12.6904 4.69036 13.25 4 13.25H1.5C0.809644 13.25 0.25 12.6904 0.25 12Z" fill="black"/>
<path d="M10.75 22.5C10.75 23.1904 11.3096 23.75 12 23.75C12.6904 23.75 13.25 23.1904 13.25 22.5V20C13.25 19.3096 12.6904 18.75 12 18.75C11.3096 18.75 10.75 19.3096 10.75 20V22.5Z" fill="black"/>
<path d="M12 0.25C12.6904 0.25 13.25 0.809645 13.25 1.5V4C13.25 4.69036 12.6904 5.25 12 5.25C11.3096 5.25 10.75 4.69036 10.75 4V1.5C10.75 0.809645 11.3096 0.25 12 0.25Z" fill="black"/>
<path d="M23.75 12C23.75 12.6904 23.1904 13.25 22.5 13.25H20C19.3097 13.25 18.75 12.6904 18.75 12C18.75 11.3096 19.3097 10.75 20 10.75H22.5C23.1904 10.75 23.75 11.3096 23.75 12Z" fill="black"/>
<path d="M20.308 5.45908C20.7961 4.97092 20.7961 4.17947 20.308 3.69131C19.8198 3.20316 19.0284 3.20315 18.5402 3.69131L16.7724 5.45908C16.2843 5.94723 16.2843 6.73869 16.7724 7.22684C17.2606 7.715 18.052 7.715 18.5402 7.22684L20.308 5.45908Z" fill="black"/>
<path d="M20.308 20.3087C19.8198 20.7968 19.0284 20.7968 18.5402 20.3087L16.7724 18.5409C16.2843 18.0528 16.2843 17.2613 16.7724 16.7732C17.2606 16.285 18.052 16.285 18.5402 16.7732L20.308 18.5409C20.7961 19.0291 20.7961 19.8205 20.308 20.3087Z" fill="black"/>
<path d="M3.6906 18.5409C3.20244 19.0291 3.20244 19.8205 3.6906 20.3087C4.17875 20.7968 4.97021 20.7968 5.45836 20.3087L7.22613 18.5409C7.71429 18.0528 7.71429 17.2613 7.22613 16.7732C6.73797 16.285 5.94652 16.285 5.45836 16.7732L3.6906 18.5409Z" fill="black"/>
<path d="M3.6906 3.69131C4.17875 3.20315 4.97021 3.20316 5.45836 3.69131L7.22613 5.45908C7.71428 5.94723 7.71429 6.73869 7.22613 7.22684C6.73797 7.715 5.94652 7.715 5.45836 7.22685L3.6906 5.45908C3.20244 4.97092 3.20244 4.17946 3.6906 3.69131Z" fill="black"/>
<path d="M12 15.5C13.933 15.5 15.5 13.933 15.5 12C15.5 10.067 13.933 8.5 12 8.5C10.067 8.5 8.5 10.067 8.5 12C8.5 13.933 10.067 15.5 12 15.5Z" fill="black"/>
</svg>
