<svg width="24" height="24" viewBox="0 0 24 24" fill="none" xmlns="http://www.w3.org/2000/svg">
<path d="M3 12C3 11.7239 3.22386 11.5 3.5 11.5H4C4.27614 11.5 4.5 11.7239 4.5 12C4.5 12.2761 4.27614 12.5 4 12.5H3.5C3.22386 12.5 3 12.2761 3 12Z" fill="black"/>
<path d="M11.5 20.5C11.5 20.7761 11.7239 21 12 21C12.2761 21 12.5 20.7761 12.5 20.5V20C12.5 19.7239 12.2761 19.5 12 19.5C11.7239 19.5 11.5 19.7239 11.5 20V20.5Z" fill="black"/>
<path d="M12 3C12.2761 3 12.5 3.22386 12.5 3.5V4C12.5 4.27614 12.2761 4.5 12 4.5C11.7239 4.5 11.5 4.27614 11.5 4V3.5C11.5 3.22386 11.7239 3 12 3Z" fill="black"/>
<path d="M21 12C21 12.2761 20.7761 12.5 20.5 12.5H20C19.7239 12.5 19.5 12.2761 19.5 12C19.5 11.7239 19.7239 11.5 20 11.5H20.5C20.7761 11.5 21 11.7239 21 12Z" fill="black"/>
<path d="M18.0104 6.6967L18.364 6.34315C18.5592 6.14788 18.5592 5.8313 18.364 5.63604C18.1687 5.44078 17.8521 5.44078 17.6569 5.63604L17.3033 5.98959C17.108 6.18486 17.108 6.50144 17.3033 6.6967C17.4986 6.89196 17.8151 6.89196 18.0104 6.6967Z" fill="black"/>
<path d="M18.364 18.364C18.1687 18.5592 17.8521 18.5592 17.6569 18.364L17.3033 18.0104C17.108 17.8151 17.108 17.4986 17.3033 17.3033C17.4986 17.108 17.8151 17.108 18.0104 17.3033L18.364 17.6569C18.5592 17.8521 18.5592 18.1687 18.364 18.364Z" fill="black"/>
<path d="M5.63604 17.6569C5.44078 17.8521 5.44078 18.1687 5.63604 18.364C5.8313 18.5592 6.14788 18.5592 6.34315 18.364L6.6967 18.0104C6.89196 17.8151 6.89196 17.4986 6.6967 17.3033C6.50144 17.108 6.18486 17.108 5.98959 17.3033L5.63604 17.6569Z" fill="black"/>
<path d="M5.63604 5.63604C5.8313 5.44078 6.14789 5.44078 6.34315 5.63604L6.6967 5.98959C6.89196 6.18486 6.89196 6.50144 6.6967 6.6967C6.50144 6.89196 6.18485 6.89196 5.98959 6.6967L5.63604 6.34315C5.44078 6.14788 5.44078 5.8313 5.63604 5.63604Z" fill="black"/>
<path d="M12 15.5C13.933 15.5 15.5 13.933 15.5 12C15.5 10.067 13.933 8.5 12 8.5C10.067 8.5 8.5 10.067 8.5 12C8.5 13.933 10.067 15.5 12 15.5Z" fill="black"/>
</svg>
