<svg width="24" height="24" viewBox="0 0 24 24" fill="none" xmlns="http://www.w3.org/2000/svg">
<path d="M2 12C2 11.7239 2.22386 11.5 2.5 11.5H4C4.27614 11.5 4.5 11.7239 4.5 12C4.5 12.2761 4.27614 12.5 4 12.5H2.5C2.22386 12.5 2 12.2761 2 12Z" fill="black"/>
<path d="M11.5 21.5C11.5 21.7761 11.7239 22 12 22C12.2761 22 12.5 21.7761 12.5 21.5V20C12.5 19.7239 12.2761 19.5 12 19.5C11.7239 19.5 11.5 19.7239 11.5 20V21.5Z" fill="black"/>
<path d="M12 2C12.2761 2 12.5 2.22386 12.5 2.5V4C12.5 4.27614 12.2761 4.5 12 4.5C11.7239 4.5 11.5 4.27614 11.5 4V2.5C11.5 2.22386 11.7239 2 12 2Z" fill="black"/>
<path d="M22 12C22 12.2761 21.7761 12.5 21.5 12.5H20C19.7239 12.5 19.5 12.2761 19.5 12C19.5 11.7239 19.7239 11.5 20 11.5H21.5C21.7761 11.5 22 11.7239 22 12Z" fill="black"/>
<path d="M19.0711 5.63604C19.2663 5.44078 19.2663 5.12419 19.0711 4.92893C18.8758 4.73367 18.5592 4.73367 18.364 4.92893L17.3033 5.98959C17.108 6.18485 17.108 6.50144 17.3033 6.6967C17.4986 6.89196 17.8151 6.89196 18.0104 6.6967L19.0711 5.63604Z" fill="black"/>
<path d="M19.0711 19.0711C18.8758 19.2663 18.5592 19.2663 18.364 19.0711L17.3033 18.0104C17.108 17.8151 17.108 17.4986 17.3033 17.3033C17.4986 17.108 17.8151 17.108 18.0104 17.3033L19.0711 18.364C19.2663 18.5592 19.2663 18.8758 19.0711 19.0711Z" fill="black"/>
<path d="M4.92893 18.364C4.73367 18.5592 4.73367 18.8758 4.92893 19.0711C5.12419 19.2663 5.44078 19.2663 5.63604 19.0711L6.6967 18.0104C6.89196 17.8151 6.89196 17.4986 6.6967 17.3033C6.50144 17.108 6.18486 17.108 5.98959 17.3033L4.92893 18.364Z" fill="black"/>
<path d="M4.92893 4.92893C5.1242 4.73367 5.44078 4.73367 5.63604 4.92893L6.6967 5.98959C6.89196 6.18486 6.89196 6.50144 6.6967 6.6967C6.50144 6.89196 6.18485 6.89196 5.98959 6.6967L4.92893 5.63604C4.73367 5.44078 4.73367 5.1242 4.92893 4.92893Z" fill="black"/>
<path fill-rule="evenodd" clip-rule="evenodd" d="M12 8C9.79086 8 8 9.79086 8 12C8 14.2091 9.79086 16 12 16C14.2091 16 16 14.2091 16 12C16 9.79086 14.2091 8 12 8ZM9 12C9 10.3431 10.3431 9 12 9C13.6569 9 15 10.3431 15 12C15 13.6569 13.6569 15 12 15C10.3431 15 9 13.6569 9 12Z" fill="black"/>
</svg>
