<svg width="24" height="24" viewBox="0 0 24 24" fill="none" xmlns="http://www.w3.org/2000/svg">
<path d="M1.5 12C1.5 11.4477 1.94772 11 2.5 11H4C4.55229 11 5 11.4477 5 12C5 12.5523 4.55228 13 4 13H2.5C1.94771 13 1.5 12.5523 1.5 12Z" fill="black"/>
<path d="M11 21.5C11 22.0523 11.4477 22.5 12 22.5C12.5523 22.5 13 22.0523 13 21.5V20C13 19.4477 12.5523 19 12 19C11.4477 19 11 19.4477 11 20V21.5Z" fill="black"/>
<path d="M12 1.5C12.5523 1.5 13 1.94772 13 2.5V4C13 4.55228 12.5523 5 12 5C11.4477 5 11 4.55228 11 4V2.5C11 1.94772 11.4477 1.5 12 1.5Z" fill="black"/>
<path d="M22.5 12C22.5 12.5523 22.0523 13 21.5 13H20C19.4477 13 19 12.5523 19 12C19 11.4477 19.4477 11 20 11H21.5C22.0523 11 22.5 11.4477 22.5 12Z" fill="black"/>
<path d="M19.4246 5.98959C19.8151 5.59907 19.8151 4.9659 19.4246 4.57538C19.0341 4.18485 18.4009 4.18485 18.0104 4.57538L16.9497 5.63604C16.5592 6.02656 16.5592 6.65973 16.9497 7.05025C17.3403 7.44078 17.9734 7.44078 18.364 7.05025L19.4246 5.98959Z" fill="black"/>
<path d="M19.4246 19.4246C19.0341 19.8151 18.4009 19.8151 18.0104 19.4246L16.9497 18.364C16.5592 17.9734 16.5592 17.3403 16.9497 16.9497C17.3403 16.5592 17.9734 16.5592 18.364 16.9497L19.4246 18.0104C19.8151 18.4009 19.8151 19.0341 19.4246 19.4246Z" fill="black"/>
<path d="M4.57538 18.0104C4.18485 18.4009 4.18485 19.0341 4.57538 19.4246C4.9659 19.8151 5.59907 19.8151 5.98959 19.4246L7.05025 18.364C7.44078 17.9734 7.44078 17.3403 7.05025 16.9497C6.65973 16.5592 6.02656 16.5592 5.63604 16.9497L4.57538 18.0104Z" fill="black"/>
<path d="M4.57538 4.57538C4.9659 4.18485 5.59907 4.18485 5.98959 4.57538L7.05025 5.63604C7.44078 6.02656 7.44078 6.65973 7.05025 7.05025C6.65973 7.44078 6.02656 7.44078 5.63604 7.05025L4.57538 5.98959C4.18486 5.59907 4.18486 4.9659 4.57538 4.57538Z" fill="black"/>
<path fill-rule="evenodd" clip-rule="evenodd" d="M12 7.5C9.51472 7.5 7.5 9.51472 7.5 12C7.5 14.4853 9.51472 16.5 12 16.5C14.4853 16.5 16.5 14.4853 16.5 12C16.5 9.51472 14.4853 7.5 12 7.5ZM9.5 12C9.5 10.6193 10.6193 9.5 12 9.5C13.3807 9.5 14.5 10.6193 14.5 12C14.5 13.3807 13.3807 14.5 12 14.5C10.6193 14.5 9.5 13.3807 9.5 12Z" fill="black"/>
</svg>
