<svg width="24" height="24" viewBox="0 0 24 24" fill="none" xmlns="http://www.w3.org/2000/svg">
<path d="M1.75 12C1.75 11.5858 2.08579 11.25 2.5 11.25H4C4.41421 11.25 4.75 11.5858 4.75 12C4.75 12.4142 4.41421 12.75 4 12.75H2.5C2.08579 12.75 1.75 12.4142 1.75 12Z" fill="black"/>
<path d="M11.25 21.5C11.25 21.9142 11.5858 22.25 12 22.25C12.4142 22.25 12.75 21.9142 12.75 21.5V20C12.75 19.5858 12.4142 19.25 12 19.25C11.5858 19.25 11.25 19.5858 11.25 20V21.5Z" fill="black"/>
<path d="M12 1.75C12.4142 1.75 12.75 2.08579 12.75 2.5V4C12.75 4.41421 12.4142 4.75 12 4.75C11.5858 4.75 11.25 4.41421 11.25 4V2.5C11.25 2.08579 11.5858 1.75 12 1.75Z" fill="black"/>
<path d="M22.25 12C22.25 12.4142 21.9142 12.75 21.5 12.75H20C19.5858 12.75 19.25 12.4142 19.25 12C19.25 11.5858 19.5858 11.25 20 11.25H21.5C21.9142 11.25 22.25 11.5858 22.25 12Z" fill="black"/>
<path d="M19.2478 5.81282C19.5407 5.51992 19.5407 5.04505 19.2478 4.75216C18.955 4.45926 18.4801 4.45926 18.1872 4.75216L17.1265 5.81282C16.8336 6.10571 16.8336 6.58058 17.1265 6.87348C17.4194 7.16637 17.8943 7.16637 18.1872 6.87348L19.2478 5.81282Z" fill="black"/>
<path d="M19.2478 19.2478C18.955 19.5407 18.4801 19.5407 18.1872 19.2478L17.1265 18.1872C16.8336 17.8943 16.8336 17.4194 17.1265 17.1265C17.4194 16.8336 17.8943 16.8336 18.1872 17.1265L19.2478 18.1872C19.5407 18.4801 19.5407 18.955 19.2478 19.2478Z" fill="black"/>
<path d="M4.75216 18.1872C4.45926 18.4801 4.45926 18.955 4.75216 19.2478C5.04505 19.5407 5.51992 19.5407 5.81282 19.2478L6.87348 18.1872C7.16637 17.8943 7.16637 17.4194 6.87348 17.1265C6.58058 16.8336 6.10571 16.8336 5.81282 17.1265L4.75216 18.1872Z" fill="black"/>
<path d="M4.75216 4.75216C5.04505 4.45926 5.51992 4.45926 5.81282 4.75216L6.87348 5.81282C7.16637 6.10571 7.16637 6.58058 6.87348 6.87348C6.58058 7.16637 6.10571 7.16637 5.81282 6.87348L4.75216 5.81282C4.45926 5.51992 4.45926 5.04505 4.75216 4.75216Z" fill="black"/>
<path fill-rule="evenodd" clip-rule="evenodd" d="M12 7.75C9.65279 7.75 7.75 9.65279 7.75 12C7.75 14.3472 9.65279 16.25 12 16.25C14.3472 16.25 16.25 14.3472 16.25 12C16.25 9.65279 14.3472 7.75 12 7.75ZM9.25 12C9.25 10.4812 10.4812 9.25 12 9.25C13.5188 9.25 14.75 10.4812 14.75 12C14.75 13.5188 13.5188 14.75 12 14.75C10.4812 14.75 9.25 13.5188 9.25 12Z" fill="black"/>
</svg>
