<svg width="24" height="24" viewBox="0 0 24 24" fill="none" xmlns="http://www.w3.org/2000/svg">
<path d="M2.25 12C2.25 11.3096 2.80965 10.75 3.5 10.75H4C4.69036 10.75 5.25 11.3096 5.25 12C5.25 12.6904 4.69035 13.25 4 13.25H3.5C2.80964 13.25 2.25 12.6904 2.25 12Z" fill="black"/>
<path d="M10.75 20.5C10.75 21.1904 11.3096 21.75 12 21.75C12.6904 21.75 13.25 21.1904 13.25 20.5V20C13.25 19.3096 12.6904 18.75 12 18.75C11.3096 18.75 10.75 19.3096 10.75 20V20.5Z" fill="black"/>
<path d="M12 2.25C12.6904 2.25 13.25 2.80964 13.25 3.5V4C13.25 4.69036 12.6904 5.25 12 5.25C11.3096 5.25 10.75 4.69036 10.75 4V3.5C10.75 2.80964 11.3096 2.25 12 2.25Z" fill="black"/>
<path d="M21.75 12C21.75 12.6904 21.1904 13.25 20.5 13.25H20C19.3096 13.25 18.75 12.6904 18.75 12C18.75 11.3096 19.3097 10.75 20 10.75H20.5C21.1904 10.75 21.75 11.3096 21.75 12Z" fill="black"/>
<path d="M18.8943 6.87348C19.3824 6.38532 19.3824 5.59387 18.8943 5.10571C18.4061 4.61756 17.6147 4.61755 17.1265 5.10571L16.773 5.45926C16.2848 5.94742 16.2848 6.73887 16.773 7.22703C17.2611 7.71519 18.0526 7.71519 18.5407 7.22703L18.8943 6.87348Z" fill="black"/>
<path d="M18.8943 18.8943C18.4061 19.3824 17.6147 19.3824 17.1265 18.8943L16.773 18.5407C16.2848 18.0526 16.2848 17.2611 16.773 16.773C17.2611 16.2848 18.0526 16.2848 18.5407 16.773L18.8943 17.1265C19.3824 17.6147 19.3824 18.4061 18.8943 18.8943Z" fill="black"/>
<path d="M5.10571 17.1265C4.61755 17.6147 4.61755 18.4061 5.10571 18.8943C5.59386 19.3824 6.38532 19.3824 6.87348 18.8943L7.22703 18.5407C7.71518 18.0526 7.71518 17.2611 7.22703 16.773C6.73887 16.2848 5.94742 16.2848 5.45926 16.773L5.10571 17.1265Z" fill="black"/>
<path d="M5.10571 5.10571C5.59387 4.61755 6.38532 4.61755 6.87348 5.10571L7.22703 5.45926C7.71519 5.94742 7.71519 6.73888 7.22703 7.22703C6.73887 7.71519 5.94742 7.71518 5.45926 7.22703L5.10571 6.87348C4.61755 6.38532 4.61755 5.59386 5.10571 5.10571Z" fill="black"/>
<path d="M12 15.5C13.933 15.5 15.5 13.933 15.5 12C15.5 10.067 13.933 8.5 12 8.5C10.067 8.5 8.5 10.067 8.5 12C8.5 13.933 10.067 15.5 12 15.5Z" fill="black"/>
</svg>
