<svg width="24" height="24" viewBox="0 0 24 24" fill="none" xmlns="http://www.w3.org/2000/svg">
<path d="M2.5 12C2.5 11.4477 2.94772 11 3.5 11H4C4.55229 11 5 11.4477 5 12C5 12.5523 4.55228 13 4 13H3.5C2.94771 13 2.5 12.5523 2.5 12Z" fill="black"/>
<path d="M11 20.5C11 21.0523 11.4477 21.5 12 21.5C12.5523 21.5 13 21.0523 13 20.5V20C13 19.4477 12.5523 19 12 19C11.4477 19 11 19.4477 11 20V20.5Z" fill="black"/>
<path d="M12 2.5C12.5523 2.5 13 2.94772 13 3.5V4C13 4.55228 12.5523 5 12 5C11.4477 5 11 4.55228 11 4V3.5C11 2.94772 11.4477 2.5 12 2.5Z" fill="black"/>
<path d="M21.5 12C21.5 12.5523 21.0523 13 20.5 13H20C19.4477 13 19 12.5523 19 12C19 11.4477 19.4477 11 20 11H20.5C21.0523 11 21.5 11.4477 21.5 12Z" fill="black"/>
<path d="M18.7175 6.6967C19.108 6.30618 19.108 5.67301 18.7175 5.28249C18.327 4.89196 17.6938 4.89196 17.3033 5.28249L16.9497 5.63604C16.5592 6.02656 16.5592 6.65973 16.9497 7.05025C17.3403 7.44078 17.9734 7.44078 18.364 7.05025L18.7175 6.6967Z" fill="black"/>
<path d="M18.7175 18.7175C18.327 19.108 17.6938 19.108 17.3033 18.7175L16.9497 18.364C16.5592 17.9734 16.5592 17.3403 16.9497 16.9497C17.3403 16.5592 17.9734 16.5592 18.364 16.9497L18.7175 17.3033C19.108 17.6938 19.108 18.327 18.7175 18.7175Z" fill="black"/>
<path d="M5.28249 17.3033C4.89196 17.6938 4.89196 18.327 5.28249 18.7175C5.67301 19.108 6.30617 19.108 6.6967 18.7175L7.05025 18.364C7.44078 17.9734 7.44078 17.3403 7.05025 16.9497C6.65973 16.5592 6.02656 16.5592 5.63604 16.9497L5.28249 17.3033Z" fill="black"/>
<path d="M5.28249 5.28249C5.67301 4.89196 6.30618 4.89196 6.6967 5.28249L7.05025 5.63604C7.44078 6.02656 7.44078 6.65973 7.05025 7.05025C6.65973 7.44078 6.02656 7.44078 5.63604 7.05025L5.28249 6.6967C4.89196 6.30617 4.89196 5.67301 5.28249 5.28249Z" fill="black"/>
<path d="M12 15.5C13.933 15.5 15.5 13.933 15.5 12C15.5 10.067 13.933 8.5 12 8.5C10.067 8.5 8.5 10.067 8.5 12C8.5 13.933 10.067 15.5 12 15.5Z" fill="black"/>
</svg>
