<svg width="24" height="24" viewBox="0 0 24 24" fill="none" xmlns="http://www.w3.org/2000/svg">
<path d="M3.25 12C3.25 11.8619 3.36193 11.75 3.5 11.75H4C4.13807 11.75 4.25 11.8619 4.25 12C4.25 12.1381 4.13807 12.25 4 12.25H3.5C3.36193 12.25 3.25 12.1381 3.25 12Z" fill="black"/>
<path d="M11.75 20.5C11.75 20.6381 11.8619 20.75 12 20.75C12.1381 20.75 12.25 20.6381 12.25 20.5V20C12.25 19.8619 12.1381 19.75 12 19.75C11.8619 19.75 11.75 19.8619 11.75 20V20.5Z" fill="black"/>
<path d="M12 3.25C12.1381 3.25 12.25 3.36193 12.25 3.5V4C12.25 4.13807 12.1381 4.25 12 4.25C11.8619 4.25 11.75 4.13807 11.75 4V3.5C11.75 3.36193 11.8619 3.25 12 3.25Z" fill="black"/>
<path d="M20.75 12C20.75 12.1381 20.6381 12.25 20.5 12.25H20C19.8619 12.25 19.75 12.1381 19.75 12C19.75 11.8619 19.8619 11.75 20 11.75H20.5C20.6381 11.75 20.75 11.8619 20.75 12Z" fill="black"/>
<path d="M18.1872 6.16637C18.2848 6.06874 18.2848 5.91045 18.1872 5.81282C18.0896 5.71519 17.9313 5.71519 17.8336 5.81282L17.4801 6.16637C17.3824 6.264 17.3824 6.42229 17.4801 6.51992C17.5777 6.61755 17.736 6.61755 17.8336 6.51992L18.1872 6.16637Z" fill="black"/>
<path d="M18.1872 18.1872C18.0896 18.2848 17.9313 18.2848 17.8336 18.1872L17.4801 17.8336C17.3824 17.736 17.3824 17.5777 17.4801 17.4801C17.5777 17.3824 17.736 17.3824 17.8336 17.4801L18.1872 17.8336C18.2848 17.9313 18.2848 18.0896 18.1872 18.1872Z" fill="black"/>
<path d="M5.81282 17.8336C5.71518 17.9313 5.71518 18.0896 5.81282 18.1872C5.91045 18.2848 6.06874 18.2848 6.16637 18.1872L6.51992 17.8336C6.61755 17.736 6.61755 17.5777 6.51992 17.4801C6.42229 17.3824 6.264 17.3824 6.16637 17.4801L5.81282 17.8336Z" fill="black"/>
<path d="M5.81282 5.81282C5.91045 5.71518 6.06874 5.71518 6.16637 5.81282L6.51992 6.16637C6.61755 6.264 6.61755 6.42229 6.51992 6.51992C6.42229 6.61755 6.264 6.61755 6.16637 6.51992L5.81282 6.16637C5.71519 6.06874 5.71519 5.91045 5.81282 5.81282Z" fill="black"/>
<path fill-rule="evenodd" clip-rule="evenodd" d="M12 8.25C9.92893 8.25 8.25 9.92893 8.25 12C8.25 14.0711 9.92893 15.75 12 15.75C14.0711 15.75 15.75 14.0711 15.75 12C15.75 9.92893 14.0711 8.25 12 8.25ZM8.75 12C8.75 10.2051 10.2051 8.75 12 8.75C13.7949 8.75 15.25 10.2051 15.25 12C15.25 13.7949 13.7949 15.25 12 15.25C10.2051 15.25 8.75 13.7949 8.75 12Z" fill="black"/>
</svg>
