<svg width="24" height="24" viewBox="0 0 24 24" fill="none" xmlns="http://www.w3.org/2000/svg">
<path d="M20.7493 4.25C20.7493 3.69772 21.1971 3.25 21.7493 3.25C22.3016 3.25 22.7493 3.69772 22.7493 4.25V19.25C22.7493 19.8023 22.3016 20.25 21.7493 20.25C21.1971 20.25 20.7493 19.8023 20.7493 19.25V4.25Z" fill="black"/>
<path d="M20.3512 12.6285C20.7418 12.238 20.7418 11.6048 20.3512 11.2143L13.2957 4.15872C12.9051 3.7682 12.272 3.7682 11.8815 4.15872C11.4909 4.54925 11.4909 5.18241 11.8815 5.57294L17.2299 10.9214H2.09961C1.54733 10.9214 1.09961 11.3691 1.09961 11.9214C1.09961 12.4737 1.54733 12.9214 2.09961 12.9214H17.2299L11.8815 18.2698C11.4909 18.6604 11.4909 19.2935 11.8815 19.6841C12.272 20.0746 12.9051 20.0746 13.2957 19.6841L20.3512 12.6285Z" fill="black"/>
</svg>
