<svg width="24" height="24" viewBox="0 0 24 24" fill="none" xmlns="http://www.w3.org/2000/svg">
<path d="M20.7493 4C20.7493 3.58579 21.0851 3.25 21.4993 3.25C21.9136 3.25 22.2493 3.58579 22.2493 4V19C22.2493 19.4142 21.9136 19.75 21.4993 19.75C21.0851 19.75 20.7493 19.4142 20.7493 19V4Z" fill="black"/>
<path d="M20.4245 12.2017C20.7173 11.9088 20.7173 11.4339 20.4245 11.1411L13.3689 4.0855C13.076 3.79261 12.6011 3.79261 12.3082 4.0855C12.0153 4.37839 12.0153 4.85327 12.3082 5.14616L18.0835 10.9214H2.34961C1.9354 10.9214 1.59961 11.2572 1.59961 11.6714C1.59961 12.0856 1.9354 12.4214 2.34961 12.4214H18.0835L12.3082 18.1966C12.0153 18.4895 12.0153 18.9644 12.3082 19.2573C12.6011 19.5502 13.076 19.5502 13.3689 19.2573L20.4245 12.2017Z" fill="black"/>
</svg>
