<svg width="24" height="24" viewBox="0 0 24 24" fill="none" xmlns="http://www.w3.org/2000/svg">
<path d="M20.7493 4.25C20.7493 4.11193 20.8613 4 20.9993 4C21.1374 4 21.2493 4.11193 21.2493 4.25V19.25C21.2493 19.3881 21.1374 19.5 20.9993 19.5C20.8613 19.5 20.7493 19.3881 20.7493 19.25V4.25Z" fill="black"/>
<path d="M20.5709 12.0982C20.6685 12.0005 20.6685 11.8422 20.5709 11.7446L13.5153 4.68905C13.4177 4.59142 13.2594 4.59142 13.1618 4.68905C13.0642 4.78668 13.0642 4.94497 13.1618 5.04261L19.7906 11.6714H2.84961C2.71154 11.6714 2.59961 11.7833 2.59961 11.9214C2.59961 12.0595 2.71154 12.1714 2.84961 12.1714H19.7906L13.1618 18.8002C13.0642 18.8978 13.0642 19.0561 13.1618 19.1537C13.2594 19.2514 13.4177 19.2514 13.5153 19.1537L20.5709 12.0982Z" fill="black"/>
</svg>
