<svg width="24" height="24" viewBox="0 0 24 24" fill="none" xmlns="http://www.w3.org/2000/svg">
<path d="M19.9993 4.25C19.9993 3.69772 20.4471 3.25 20.9993 3.25C21.5516 3.25 21.9993 3.69772 21.9993 4.25V19.25C21.9993 19.8023 21.5516 20.25 20.9993 20.25C20.4471 20.25 19.9993 19.8023 19.9993 19.25V12.1705C19.9609 12.2065 19.9067 12.2478 19.833 12.3038L16.0762 15.1622C15.8668 15.3216 15.7621 15.4012 15.6746 15.4C15.5985 15.399 15.5269 15.3639 15.48 15.3047C15.426 15.2365 15.4268 15.106 15.4284 14.8448L15.4393 13H2.84961C2.29732 13 1.84961 12.5523 1.84961 12C1.84961 11.4477 2.29732 11 2.84961 11H15.4512L15.4626 9.08345C15.4642 8.82227 15.465 8.69168 15.5197 8.6242C15.5673 8.5655 15.6393 8.53129 15.7155 8.53116C15.803 8.53101 15.9067 8.61191 16.1142 8.77373L19.8368 11.6766C19.9084 11.7325 19.9614 11.7739 19.9993 11.8098V4.25Z" fill="black"/>
</svg>
