<svg width="24" height="24" viewBox="0 0 24 24" fill="none" xmlns="http://www.w3.org/2000/svg">
<path d="M20.4993 4.25C20.4993 3.97386 20.7232 3.75 20.9993 3.75C21.2755 3.75 21.4993 3.97386 21.4993 4.25V19.25C21.4993 19.5261 21.2755 19.75 20.9993 19.75C20.7232 19.75 20.4993 19.5261 20.4993 19.25V12.5233L13.6921 19.3305C13.4969 19.5258 13.1803 19.5258 12.985 19.3305C12.7897 19.1352 12.7897 18.8187 12.985 18.6234L19.187 12.4214H2.84961C2.57347 12.4214 2.34961 12.1975 2.34961 11.9214C2.34961 11.6452 2.57347 11.4214 2.84961 11.4214H19.187L12.985 5.21938C12.7897 5.02412 12.7897 4.70754 12.985 4.51227C13.1803 4.31701 13.4969 4.31701 13.6921 4.51227L20.4993 11.3195V4.25Z" fill="black"/>
</svg>
