<svg width="24" height="24" viewBox="0 0 24 24" fill="none" xmlns="http://www.w3.org/2000/svg">
<path d="M20.2493 4.25C20.2493 3.83579 20.5851 3.5 20.9993 3.5C21.4136 3.5 21.7493 3.83579 21.7493 4.25V19.25C21.7493 19.6642 21.4136 20 20.9993 20C20.5851 20 20.2493 19.6642 20.2493 19.25V4.25Z" fill="black"/>
<path d="M15.4626 9.08345C15.4642 8.82227 15.465 8.69168 15.5197 8.6242C15.5673 8.5655 15.6393 8.53129 15.7155 8.53116C15.803 8.53101 15.9067 8.61191 16.1142 8.77373L19.8368 11.6766C19.9749 11.7843 20.0439 11.8382 20.0685 11.9033C20.0901 11.9603 20.0897 12.0232 20.0675 12.08C20.0421 12.1447 19.9724 12.1978 19.833 12.3038L16.0762 15.1622C15.8668 15.3216 15.7621 15.4012 15.6746 15.4C15.5985 15.399 15.5269 15.3639 15.48 15.3047C15.426 15.2365 15.4268 15.106 15.4284 14.8448L15.4408 12.75H2.84961C2.4354 12.75 2.09961 12.4142 2.09961 12C2.09961 11.5858 2.4354 11.25 2.84961 11.25H15.4497L15.4626 9.08345Z" fill="black"/>
</svg>
