<svg width="24" height="24" viewBox="0 0 24 24" fill="none" xmlns="http://www.w3.org/2000/svg">
<path d="M14 5C14.5522 5.00007 15 5.44776 15 6C15 6.55224 14.5522 6.99993 14 7H10C9.44772 7 9 6.55228 9 6C9 5.44772 9.44772 5 10 5H14Z" fill="black"/>
<path fill-rule="evenodd" clip-rule="evenodd" d="M18 1C19.6568 1.00007 21 2.34319 21 4V20C21 21.6568 19.6568 22.9999 18 23H6C4.34317 23 3 21.6568 3 20L3.00098 4C3.00109 2.3433 4.3443 1.00012 6.00098 1H18ZM6.75 3C6.05964 3 5.5 3.55964 5.5 4.25V18.25C5.5 18.9404 6.05964 19.5 6.75 19.5H17.25C17.9403 19.4999 18.5 18.9403 18.5 18.25V4.25C18.5 3.55969 17.9403 3.00007 17.25 3H6.75Z" fill="black"/>
</svg>
