<svg width="24" height="24" viewBox="0 0 24 24" fill="none" xmlns="http://www.w3.org/2000/svg">
<path d="M15 3.75C15.138 3.7501 15.25 3.86199 15.25 4C15.25 4.13801 15.138 4.2499 15 4.25H9C8.86193 4.25 8.75 4.13807 8.75 4C8.75 3.86193 8.86193 3.75 9 3.75H15Z" fill="black"/>
<path fill-rule="evenodd" clip-rule="evenodd" d="M18 0.75C19.7948 0.750099 21.25 2.20514 21.25 4V20C21.25 21.7949 19.7948 23.2499 18 23.25H6C4.20516 23.2499 2.75 21.7948 2.75 20L2.75098 4C2.7511 2.20528 4.20629 0.750183 6.00098 0.75H18ZM6.00098 1.25C4.48242 1.25018 3.25108 2.4814 3.25098 4L3.25 20C3.25 21.5187 4.4813 22.7499 6 22.75H18C19.5187 22.7499 20.75 21.5187 20.75 20V4C20.75 2.48128 19.5187 1.2501 18 1.25H6.00098Z" fill="black"/>
</svg>
