<svg width="24" height="24" viewBox="0 0 24 24" fill="none" xmlns="http://www.w3.org/2000/svg">
<path d="M14 3.25C14.4141 3.2501 14.75 3.58585 14.75 4C14.75 4.41415 14.4141 4.7499 14 4.75H10C9.58579 4.75 9.25 4.41421 9.25 4C9.25 3.58579 9.58579 3.25 10 3.25H14Z" fill="black"/>
<path fill-rule="evenodd" clip-rule="evenodd" d="M18 0C20.2091 9.94009e-05 22 1.79092 22 4V20C22 22.2091 20.2091 23.9999 18 24H6C3.79094 23.9999 2 22.209 2 20L2.00098 4C2.00113 1.79108 3.7921 0.000183658 6.00098 0H18ZM4 20C4 21.1045 4.89552 21.9999 6 22H18C19.0356 21.9999 19.887 21.2127 19.9893 20.2041L20 20H4ZM6.00098 2C4.89662 2.00018 4.00105 2.8956 4.00098 4L4 18H20V4C20 2.89549 19.1045 2.0001 18 2H6.00098Z" fill="black"/>
</svg>
