<svg width="24" height="24" viewBox="0 0 24 24" fill="none" xmlns="http://www.w3.org/2000/svg">
<path d="M16.25 3.75C16.388 3.7501 16.5 3.86199 16.5 4C16.5 4.13801 16.388 4.2499 16.25 4.25H12.25C12.1119 4.25 12 4.13807 12 4C12 3.86193 12.1119 3.75 12.25 3.75H16.25Z" fill="black"/>
<path fill-rule="evenodd" clip-rule="evenodd" d="M18.25 0.75C20.0448 0.750099 21.5 2.20514 21.5 4V20C21.5 21.7949 20.0448 23.2499 18.25 23.25H6.25C4.45516 23.2499 3 21.7948 3 20L3.00098 4C3.0011 2.20528 4.45629 0.750183 6.25098 0.75H18.25ZM3.51172 20.25C3.63807 21.6515 4.81559 22.7499 6.25 22.75H18.25C19.6844 22.7499 20.8599 21.6515 20.9863 20.25H3.51172ZM6.25098 1.25C4.73242 1.25018 3.50108 2.4814 3.50098 4L3.5 19.75H21V4C21 2.48128 19.7687 1.2501 18.25 1.25H6.25098Z" fill="black"/>
</svg>
