<svg width="24" height="24" viewBox="0 0 24 24" fill="none" xmlns="http://www.w3.org/2000/svg">
<path d="M15 3.5C15.2761 3.5001 15.5 3.72392 15.5 4C15.5 4.27608 15.2761 4.4999 15 4.5H9C8.72386 4.5 8.5 4.27614 8.5 4C8.5 3.72386 8.72386 3.5 9 3.5H15Z" fill="black"/>
<path fill-rule="evenodd" clip-rule="evenodd" d="M18 0.5C19.9329 0.500099 21.5 2.06707 21.5 4V20C21.5 21.9329 19.9329 23.4999 18 23.5H6C4.06709 23.4999 2.5 21.9329 2.5 20L2.50098 4C2.50111 2.06721 4.06823 0.500184 6.00098 0.5H18ZM6.00098 1.5C4.62049 1.50018 3.50107 2.61947 3.50098 4L3.5 20C3.5 21.3806 4.61937 22.4999 6 22.5H18C19.3806 22.4999 20.5 21.3807 20.5 20V4C20.5 2.61935 19.3806 1.5001 18 1.5H6.00098Z" fill="black"/>
</svg>
