<svg width="24" height="24" viewBox="0 0 24 24" fill="none" xmlns="http://www.w3.org/2000/svg">
<path fill-rule="evenodd" clip-rule="evenodd" d="M0.499023 6.50098C0.499122 4.42999 2.17802 2.75097 4.24902 2.75098H20.249C22.32 2.75098 23.9989 4.42999 23.999 6.50098V17.499C23.9989 19.57 22.32 21.249 20.249 21.249L4.24902 21.248C2.17814 21.2479 0.499167 19.5689 0.499023 17.498V6.50098ZM3.24902 15.249C3.24902 15.8013 3.69674 16.249 4.24902 16.249C4.80131 16.249 5.24902 15.8013 5.24902 15.249V9.24902C5.24892 8.69682 4.80125 8.24902 4.24902 8.24902C3.6968 8.24902 3.24912 8.69682 3.24902 9.24902V15.249Z" fill="black"/>
</svg>
