<svg width="24" height="24" viewBox="0 0 24 24" fill="none" xmlns="http://www.w3.org/2000/svg">
<path d="M3.25 9C3.2501 8.58587 3.58585 8.25 4 8.25C4.41415 8.25 4.7499 8.58587 4.75 9V15C4.75 15.4142 4.41421 15.75 4 15.75C3.58579 15.75 3.25 15.4142 3.25 15V9Z" fill="black"/>
<path fill-rule="evenodd" clip-rule="evenodd" d="M0.25 6C0.250099 3.92902 1.92899 2.25 4 2.25H20C22.071 2.25 23.7499 3.92902 23.75 6V18C23.7499 20.071 22.071 21.75 20 21.75L4 21.749C1.92915 21.7489 0.250184 20.0698 0.25 17.999V6ZM1.75 17.999C1.75018 19.2414 2.75753 20.2489 4 20.249L20 20.25C21.2426 20.25 22.2499 19.2426 22.25 18V6C22.2499 4.75744 21.2426 3.75 20 3.75H4C2.75742 3.75 1.7501 4.75744 1.75 6V17.999Z" fill="black"/>
</svg>
