<svg width="24" height="24" viewBox="0 0 24 24" fill="none" xmlns="http://www.w3.org/2000/svg">
<path fill-rule="evenodd" clip-rule="evenodd" d="M0.499023 6.50098C0.499122 4.42999 2.17802 2.75097 4.24902 2.75098H20.249C22.32 2.75098 23.9989 4.42999 23.999 6.50098V17.499C23.9989 19.57 22.32 21.249 20.249 21.249L4.24902 21.248C2.17814 21.2479 0.499167 19.5689 0.499023 17.498V6.50098ZM3.49902 15.249C3.49902 15.6632 3.83481 15.999 4.24902 15.999C4.66324 15.999 4.99902 15.6632 4.99902 15.249V9.24902C4.99892 8.83489 4.66318 8.49902 4.24902 8.49902C3.83487 8.49902 3.49912 8.83489 3.49902 9.24902V15.249Z" fill="black"/>
</svg>
