<svg width="24" height="24" viewBox="0 0 24 24" fill="none" xmlns="http://www.w3.org/2000/svg">
<path fill-rule="evenodd" clip-rule="evenodd" d="M0.499023 6.50098C0.499122 4.42999 2.17802 2.75097 4.24902 2.75098H20.249C22.32 2.75098 23.9989 4.42999 23.999 6.50098V17.499C23.9989 19.57 22.32 21.249 20.249 21.249L4.24902 21.248C2.17814 21.2479 0.499167 19.5689 0.499023 17.498V6.50098ZM2.99902 15.249C2.99902 15.9394 3.55867 16.499 4.24902 16.499C4.93938 16.499 5.49902 15.9394 5.49902 15.249V9.24902C5.49892 8.55875 4.93932 7.99902 4.24902 7.99902C3.55873 7.99902 2.99912 8.55875 2.99902 9.24902V15.249Z" fill="black"/>
</svg>
