<svg width="24" height="24" viewBox="0 0 24 24" fill="none" xmlns="http://www.w3.org/2000/svg">
<path d="M3.5 9C3.5001 8.72394 3.72392 8.5 4 8.5C4.27608 8.5 4.4999 8.72394 4.5 9V15C4.5 15.2761 4.27614 15.5 4 15.5C3.72386 15.5 3.5 15.2761 3.5 15V9Z" fill="black"/>
<path fill-rule="evenodd" clip-rule="evenodd" d="M0.5 6C0.500099 4.06709 2.06707 2.5 4 2.5H20C21.9329 2.5 23.4999 4.06709 23.5 6V18C23.4999 19.9329 21.9329 21.5 20 21.5L4 21.499C2.06721 21.4989 0.500184 19.9318 0.5 17.999V6ZM1.5 17.999C1.50018 19.3795 2.61947 20.4989 4 20.499L20 20.5C21.3806 20.5 22.4999 19.3806 22.5 18V6C22.4999 4.61937 21.3807 3.5 20 3.5H4C2.61935 3.5 1.5001 4.61937 1.5 6V17.999Z" fill="black"/>
</svg>
