<svg width="24" height="24" viewBox="0 0 24 24" fill="none" xmlns="http://www.w3.org/2000/svg">
<path fill-rule="evenodd" clip-rule="evenodd" d="M17.748 0.25C19.819 0.250098 21.498 1.92899 21.498 4V20C21.498 22.071 19.819 23.7499 17.748 23.75H6.75C4.67901 23.7499 3 22.071 3 20L3.00098 4C3.00111 1.92912 4.68013 0.250143 6.75098 0.25H17.748ZM9 3.5C8.72386 3.5 8.5 3.72386 8.5 4C8.5 4.27614 8.72386 4.5 9 4.5H15C15.2761 4.4999 15.5 4.27608 15.5 4C15.5 3.72392 15.2761 3.5001 15 3.5H9Z" fill="black"/>
</svg>
