<svg width="24" height="25" viewBox="0 0 24 25" fill="none" xmlns="http://www.w3.org/2000/svg">
<path d="M15 4C15.6903 4.0001 16.25 4.55971 16.25 5.25C16.25 5.94029 15.6903 6.4999 15 6.5H9C8.30964 6.5 7.75 5.94036 7.75 5.25C7.75 4.55964 8.30964 4 9 4H15Z" fill="black"/>
<path fill-rule="evenodd" clip-rule="evenodd" d="M18 0C20.3471 9.95036e-05 22.25 1.90285 22.25 4.25V20.25C22.25 22.5971 20.3471 24.4999 18 24.5H6C3.65287 24.4999 1.75 22.5971 1.75 20.25L1.75098 4.25C1.75114 1.90302 3.65404 0.000183658 6.00098 0H18ZM6.00098 2.5C5.03468 2.50018 4.25104 3.28366 4.25098 4.25L4.25 20.25C4.25 21.2164 5.03359 21.9999 6 22H18C18.9664 21.9999 19.75 21.2164 19.75 20.25V4.25C19.75 3.28356 18.9664 2.5001 18 2.5H6.00098Z" fill="black"/>
</svg>
