<svg width="24" height="24" viewBox="0 0 24 24" fill="none" xmlns="http://www.w3.org/2000/svg">
<path fill-rule="evenodd" clip-rule="evenodd" d="M3.56811 2.5C3.31572 2.49997 3.06993 2.49994 2.86178 2.51695C2.63318 2.53563 2.36345 2.57969 2.09202 2.71799C1.7157 2.90974 1.40974 3.2157 1.21799 3.59202C1.07969 3.86345 1.03563 4.13318 1.01695 4.36178C0.999943 4.56993 0.999973 4.81572 1 5.06811L1 18.9319C0.999973 19.1843 0.999943 19.4301 1.01695 19.6382C1.03563 19.8668 1.07969 20.1366 1.21799 20.408C1.40974 20.7843 1.7157 21.0903 2.09202 21.282C2.36345 21.4203 2.63318 21.4644 2.86178 21.4831C3.0699 21.5001 3.31564 21.5 3.56797 21.5H20.4319C20.6843 21.5 20.9301 21.5001 21.1382 21.4831C21.3668 21.4644 21.6366 21.4203 21.908 21.282C22.2843 21.0903 22.5903 20.7843 22.782 20.408C22.9203 20.1366 22.9644 19.8668 22.9831 19.6382C23.0001 19.4301 23 19.1844 23 18.932V5.06809C23 4.81576 23.0001 4.5699 22.9831 4.36178C22.9644 4.13318 22.9203 3.86345 22.782 3.59202C22.5903 3.2157 22.2843 2.90974 21.908 2.71799C21.6366 2.5797 21.3668 2.53563 21.1382 2.51695C20.9301 2.49994 20.6843 2.49997 20.4319 2.5L15.252 2.5C15.2513 2.5 15.2507 2.5 15.25 2.5C15.2493 2.5 15.2487 2.5 15.248 2.5L8.75198 2.5C8.75132 2.5 8.75066 2.5 8.75 2.5C8.74935 2.5 8.74869 2.5 8.74803 2.5L3.56811 2.5ZM7.75 4.50001L3.6 4.50001C3.30348 4.50001 3.14122 4.50078 3.02464 4.51031L3.01145 4.51145L3.01031 4.52464C3.00078 4.64122 3 4.80348 3.00001 5.10001L3.00001 8H7.75L7.75 4.50001ZM9.75 4.50001L9.75 8H14.25L14.25 4.5L9.75 4.50001ZM16.25 4.5L16.25 8L21 8V5.1C21 4.80348 20.9992 4.64122 20.9897 4.52464L20.9885 4.51145L20.9754 4.51031C20.8588 4.50078 20.6965 4.5 20.4 4.5L16.25 4.5ZM21 10L16.25 10V13.5H21V10ZM21 15.5L16.25 15.5L16.25 19.5H20.4C20.6965 19.5 20.8588 19.4992 20.9754 19.4897L20.9886 19.4885L20.9897 19.4754C20.9992 19.3588 21 19.1965 21 18.9V15.5ZM14.25 19.5L14.25 15.5L9.75 15.5L9.75 19.5H14.25ZM7.75 19.5H3.60001C3.30348 19.5 3.14122 19.4992 3.02464 19.4897L3.01145 19.4886L3.01031 19.4754C3.00078 19.3588 3.00001 19.1965 3.00001 18.9L3.00001 15.5H7.75L7.75 19.5ZM3.00001 13.5H7.75V10H3.00001L3.00001 13.5ZM14.25 13.5H9.75V10H14.25V13.5Z" fill="black"/>
</svg>
