<svg width="24" height="24" viewBox="0 0 24 24" fill="none" xmlns="http://www.w3.org/2000/svg">
<path d="M1 15.2499L1 19.5899C1 20.206 1 20.514 1.11989 20.7493C1.22535 20.9563 1.39363 21.1246 1.60061 21.23C1.83591 21.3499 2.14394 21.3499 2.76 21.3499L7.65 21.3499V15.2499L1 15.2499Z" fill="black"/>
<path d="M8.65 21.3499H15.35V15.2499H8.65L8.65 21.3499Z" fill="black"/>
<path d="M16.35 21.3499L21.24 21.3499C21.8561 21.3499 22.1641 21.3499 22.3994 21.23C22.6064 21.1246 22.7746 20.9563 22.8801 20.7493C23 20.514 23 20.206 23 19.5899L23 15.2499L16.35 15.2499V21.3499Z" fill="black"/>
<path d="M23 14.2499V9.1999L16.35 9.1999V14.2499L23 14.2499Z" fill="black"/>
<path d="M23 8.1999L23 4.4099C23 3.79385 23 3.48582 22.8801 3.25051C22.7746 3.04354 22.6064 2.87526 22.3994 2.7698C22.1641 2.6499 21.8561 2.6499 21.24 2.6499L16.35 2.6499L16.35 8.1999L23 8.1999Z" fill="black"/>
<path d="M15.35 2.6499L8.65 2.6499L8.65 8.1999L15.35 8.1999L15.35 2.6499Z" fill="black"/>
<path d="M7.65 2.6499L2.76 2.6499C2.14394 2.6499 1.83591 2.6499 1.60061 2.7698C1.39363 2.87526 1.22535 3.04354 1.11989 3.25052C1 3.48582 1 3.79385 1 4.4099L1 8.1999H7.65L7.65 2.6499Z" fill="black"/>
<path d="M1 9.1999L1 14.2499L7.65 14.2499V9.1999H1Z" fill="black"/>
<path d="M15.35 14.2499H8.65L8.65 9.1999L15.35 9.1999V14.2499Z" fill="black"/>
</svg>
