<svg width="24" height="24" viewBox="0 0 24 24" fill="none" xmlns="http://www.w3.org/2000/svg">
<path fill-rule="evenodd" clip-rule="evenodd" d="M3 2.75C2.0335 2.75 1.25 3.5335 1.25 4.5L1.25 19.5C1.25 20.4665 2.0335 21.25 3 21.25H21C21.9665 21.25 22.75 20.4665 22.75 19.5V4.5C22.75 3.5335 21.9665 2.75 21 2.75L15.5017 2.75L15.5 2.75L15.4983 2.75L8.50171 2.75L8.5 2.75L8.49829 2.75L3 2.75ZM7.75 4.25L3 4.25C2.86193 4.25 2.75 4.36193 2.75 4.5V8.25H7.75L7.75 4.25ZM2.75 9.75L2.75 13.75H7.75V9.75H2.75ZM2.75 15.25V19.5C2.75 19.6381 2.86193 19.75 3 19.75H7.75L7.75 15.25H2.75ZM9.25 19.75H14.75V15.25H9.25V19.75ZM16.25 19.75H21C21.1381 19.75 21.25 19.6381 21.25 19.5V15.25H16.25V19.75ZM21.25 13.75V9.75L16.25 9.75V13.75H21.25ZM21.25 8.25V4.5C21.25 4.36193 21.1381 4.25 21 4.25L16.25 4.25L16.25 8.25L21.25 8.25ZM14.75 4.25L9.25 4.25L9.25 8.25L14.75 8.25L14.75 4.25ZM14.75 13.75H9.25V9.75L14.75 9.75V13.75Z" fill="black"/>
</svg>
