<svg width="24" height="24" viewBox="0 0 24 24" fill="none" xmlns="http://www.w3.org/2000/svg">
<path d="M1 15L1 19.59C1 20.2061 1 20.5141 1.11989 20.7494C1.22535 20.9564 1.39363 21.1247 1.60061 21.2301C1.83591 21.35 2.14394 21.35 2.76 21.35L7.9 21.35V15L1 15Z" fill="black"/>
<path d="M8.4 21.35H15.6V15H8.4V21.35Z" fill="black"/>
<path d="M16.1 21.35L21.24 21.35C21.8561 21.35 22.1641 21.35 22.3994 21.2301C22.6064 21.1247 22.7746 20.9564 22.8801 20.7494C23 20.5141 23 20.2061 23 19.59L23 15L16.1 15V21.35Z" fill="black"/>
<path d="M23 14.5V8.95002L16.1 8.95002V14.5L23 14.5Z" fill="black"/>
<path d="M23 8.45002L23 4.41003C23 3.79397 23 3.48594 22.8801 3.25064C22.7746 3.04366 22.6064 2.87538 22.3994 2.76992C22.1641 2.65003 21.8561 2.65003 21.24 2.65003L16.1 2.65002L16.1 8.45002L23 8.45002Z" fill="black"/>
<path d="M15.6 2.65002L8.4 2.65002L8.4 8.45002L15.6 8.45002L15.6 2.65002Z" fill="black"/>
<path d="M7.9 2.65002L2.76 2.65003C2.14394 2.65003 1.83591 2.65003 1.60061 2.76992C1.39363 2.87538 1.22535 3.04366 1.11989 3.25064C1 3.48594 1 3.79397 1 4.41003L1 8.45002H7.9L7.9 2.65002Z" fill="black"/>
<path d="M1 8.95002L1 14.5L7.9 14.5L7.9 8.95002H1Z" fill="black"/>
<path d="M15.6 14.5H8.4L8.4 8.95002L15.6 8.95002V14.5Z" fill="black"/>
</svg>
