<svg width="24" height="24" viewBox="0 0 24 24" fill="none" xmlns="http://www.w3.org/2000/svg">
<path fill-rule="evenodd" clip-rule="evenodd" d="M3.56344 2.25001C3.3154 2.24996 3.06011 2.24992 2.84142 2.26779C2.59737 2.28772 2.29107 2.336 1.97853 2.49524C1.55517 2.71096 1.21096 3.05517 0.995244 3.47853C0.835997 3.79107 0.787724 4.09737 0.767784 4.34142C0.749916 4.56012 0.749961 4.81539 0.750004 5.06344L0.750004 18.9366C0.749961 19.1846 0.749916 19.4399 0.767784 19.6586C0.787724 19.9027 0.835997 20.2089 0.995244 20.5215C1.21096 20.9449 1.55517 21.2891 1.97853 21.5048C2.29107 21.664 2.59737 21.7123 2.84142 21.7322C3.0601 21.7501 3.31536 21.7501 3.56339 21.75H20.4366C20.6846 21.7501 20.9399 21.7501 21.1586 21.7322C21.4026 21.7123 21.7089 21.664 22.0215 21.5048C22.4449 21.2891 22.7891 20.9449 23.0048 20.5215C23.164 20.2089 23.2123 19.9027 23.2322 19.6586C23.2501 19.4399 23.2501 19.1847 23.25 18.9366V5.06342C23.2501 4.81539 23.2501 4.5601 23.2322 4.34142C23.2123 4.09737 23.164 3.79107 23.0048 3.47853C22.7891 3.05516 22.4449 2.71096 22.0215 2.49524C21.7089 2.336 21.4027 2.28772 21.1586 2.26778C20.9399 2.24992 20.6846 2.24996 20.4366 2.25L3.56344 2.25001ZM7.50001 4.75001L7.50001 7.75001L3.25001 7.75001V5.10001C3.25001 4.95849 3.25004 4.84741 3.25151 4.75152C3.34741 4.75004 3.45849 4.75001 3.60001 4.75001H7.50001ZM3.25001 10.25H7.50001V13.25H3.25001V10.25ZM3.25001 15.75H7.50001L7.50001 19.25H3.60001C3.45849 19.25 3.34741 19.25 3.25151 19.2485C3.25004 19.1526 3.25001 19.0415 3.25001 18.9V15.75ZM10 19.25H14L14 15.75H10L10 19.25ZM16.5 19.25H20.4C20.5415 19.25 20.6526 19.25 20.7485 19.2485C20.75 19.1526 20.75 19.0415 20.75 18.9V15.75H16.5L16.5 19.25ZM20.75 13.25V10.25H16.5V13.25H20.75ZM20.75 7.75001V5.10001C20.75 4.95849 20.75 4.84741 20.7485 4.75151C20.6526 4.75004 20.5415 4.75001 20.4 4.75001L16.5 4.75001V7.75001H20.75ZM14 4.75001V7.75001H10V4.75001L14 4.75001ZM14 13.25H10V10.25H14V13.25Z" fill="black"/>
</svg>
