<svg width="24" height="24" viewBox="0 0 24 24" fill="none" xmlns="http://www.w3.org/2000/svg">
<path d="M14 3.5C14.2761 3.50007 14.5 3.7239 14.5 4C14.5 4.2761 14.2761 4.49993 14 4.5H10C9.72386 4.5 9.5 4.27614 9.5 4C9.5 3.72386 9.72386 3.5 10 3.5H14Z" fill="black"/>
<path fill-rule="evenodd" clip-rule="evenodd" d="M18 1C19.6568 1.00007 21 2.34319 21 4V20C21 21.6568 19.6568 22.9999 18 23H6C4.34317 23 3 21.6568 3 20L3.00098 4C3.00109 2.3433 4.3443 1.00012 6.00098 1H18ZM6 2C4.89543 2 4 2.89543 4 4V18.5C4 19.6046 4.89543 20.5 6 20.5H18C19.1045 20.4999 20 19.6045 20 18.5V4C20 2.89547 19.1045 2.00007 18 2H6Z" fill="black"/>
</svg>
