<svg width="24" height="24" viewBox="0 0 24 24" fill="none" xmlns="http://www.w3.org/2000/svg">
<path d="M3.5 9C3.5001 8.4478 3.94778 8 4.5 8C5.05222 8 5.4999 8.4478 5.5 9V15C5.5 15.5523 5.05228 16 4.5 16C3.94772 16 3.5 15.5523 3.5 15V9Z" fill="black"/>
<path fill-rule="evenodd" clip-rule="evenodd" d="M0 6C9.94653e-05 3.79095 1.79092 2 4 2H20C22.2091 2 23.9999 3.79095 24 6V18C23.9999 20.2091 22.209 22 20 22L4 21.999C1.79108 21.9989 0.000183658 20.2079 0 17.999V6ZM2 17.999C2.00018 19.1034 2.8956 19.9989 4 19.999L20 20C21.1045 20 21.9999 19.1045 22 18V6C21.9999 4.89551 21.1045 4 20 4H4C2.89549 4 2.0001 4.89551 2 6V17.999Z" fill="black"/>
</svg>
