<svg width="24" height="24" viewBox="0 0 24 24" fill="none" xmlns="http://www.w3.org/2000/svg">
<path fill-rule="evenodd" clip-rule="evenodd" d="M3.5893 3.25C3.31836 3.25 3.09981 3.25 2.92284 3.26445C2.74063 3.27934 2.58059 3.3108 2.43251 3.38624C2.19731 3.50609 2.00608 3.69731 1.88624 3.93251C1.8108 4.08059 1.77934 4.24063 1.76446 4.42284C1.75 4.59977 1.75 4.81824 1.75 5.08908L1.75 18.9107C1.75 19.1816 1.75 19.4002 1.76446 19.5772C1.77934 19.7594 1.8108 19.9194 1.88624 20.0675C2.00608 20.3027 2.19731 20.4939 2.43251 20.6138C2.58059 20.6892 2.74063 20.7207 2.92285 20.7355C3.09981 20.75 3.31834 20.75 3.58928 20.75H20.4107C20.6817 20.75 20.9002 20.75 21.0772 20.7355C21.2594 20.7207 21.4194 20.6892 21.5675 20.6138C21.8027 20.4939 21.9939 20.3027 22.1138 20.0675C22.1892 19.9194 22.2207 19.7594 22.2355 19.5772C22.25 19.4002 22.25 19.1817 22.25 18.9107V5.08929C22.25 4.81836 22.25 4.59981 22.2355 4.42284C22.2207 4.24063 22.1892 4.08059 22.1138 3.93251C21.9939 3.69731 21.8027 3.50608 21.5675 3.38624C21.4194 3.3108 21.2594 3.27934 21.0772 3.26446C20.9002 3.25 20.6817 3.25 20.4107 3.25L15.501 3.25C15.5013 3.25 15.5007 3.25 15.501 3.25C15.5007 3.25 15.4993 3.25 15.499 3.25L8.50099 3.25C8.50132 3.25 8.50066 3.25 8.50099 3.25C8.50066 3.25 8.49934 3.25 8.49901 3.25L3.5893 3.25ZM8.25 3.75L3.6 3.75C3.31585 3.75 3.11777 3.7502 2.96356 3.7628C2.81227 3.77515 2.72535 3.7982 2.65951 3.83175C2.51839 3.90365 2.40365 4.01839 2.33175 4.15951C2.2982 4.22535 2.27516 4.31227 2.26279 4.46356C2.2502 4.61777 2.25 4.81585 2.25 5.1V8.75L8.25 8.75L8.25 3.75ZM8.75 3.75L8.75 8.75H15.25L15.25 3.75L8.75 3.75ZM15.75 3.75L15.75 8.75L21.75 8.75V5.1C21.75 4.81585 21.7498 4.61777 21.7372 4.46356C21.7248 4.31227 21.7018 4.22535 21.6683 4.15951C21.5963 4.01839 21.4816 3.90365 21.3405 3.83175C21.2747 3.7982 21.1877 3.77516 21.0364 3.76279C20.8822 3.75019 20.6842 3.75 20.4 3.75L15.75 3.75ZM21.75 9.25L15.75 9.25V14.25H21.75V9.25ZM21.75 14.75H15.75V20.25H20.4C20.6842 20.25 20.8822 20.2498 21.0364 20.2372C21.1877 20.2248 21.2747 20.2018 21.3405 20.1683C21.4816 20.0963 21.5963 19.9816 21.6683 19.8405C21.7018 19.7747 21.7248 19.6877 21.7372 19.5364C21.7498 19.3822 21.75 19.1842 21.75 18.9V14.75ZM15.25 20.25V14.75L8.75 14.75L8.75 20.25H15.25ZM8.25 20.25L8.25 14.75H2.25V18.9C2.25 19.1842 2.2502 19.3822 2.26279 19.5364C2.27516 19.6877 2.2982 19.7747 2.33175 19.8405C2.40365 19.9816 2.51839 20.0963 2.65951 20.1683C2.72535 20.2018 2.81227 20.2248 2.96356 20.2372C3.11777 20.2498 3.31585 20.25 3.6 20.25H8.25ZM2.25 14.25H8.25L8.25 9.25L2.25 9.25V14.25ZM15.25 14.25L8.75 14.25L8.75 9.25H15.25V14.25Z" fill="black"/>
</svg>
