<svg width="24" height="25" viewBox="0 0 24 25" fill="none" xmlns="http://www.w3.org/2000/svg">
<path d="M14 3.5C14.4141 3.5001 14.75 3.83585 14.75 4.25C14.75 4.66415 14.4141 4.9999 14 5H10C9.58579 5 9.25 4.66421 9.25 4.25C9.25 3.83579 9.58579 3.5 10 3.5H14Z" fill="black"/>
<path fill-rule="evenodd" clip-rule="evenodd" d="M18 0C20.3471 9.94392e-05 22.25 1.90285 22.25 4.25V20.25C22.25 22.5971 20.3471 24.4999 18 24.5H6C3.65287 24.4999 1.75 22.5971 1.75 20.25L1.75098 4.25C1.75114 1.90302 3.65404 0.000183658 6.00098 0H18ZM4.25 20.25C4.25 21.2164 5.03359 21.9999 6 22H18C18.9664 21.9999 19.75 21.2164 19.75 20.25V19.5H4.25V20.25ZM6.00098 2.5C5.03468 2.50018 4.25104 3.28366 4.25098 4.25L4.25 17H19.75V4.25C19.75 3.28356 18.9664 2.5001 18 2.5H6.00098Z" fill="black"/>
</svg>
