<svg width="24" height="24" viewBox="0 0 24 24" fill="none" xmlns="http://www.w3.org/2000/svg">
<path fill-rule="evenodd" clip-rule="evenodd" d="M4.4502 0.75C3.8984 0.75 3.45429 0.75 3.0957 0.779297C2.73137 0.809065 2.41132 0.871643 2.11523 1.02246C1.64484 1.26214 1.26215 1.64485 1.02246 2.11523C0.87164 2.41131 0.809068 2.73138 0.779297 3.0957C0.75 3.45428 0.75 3.89841 0.75 4.4502V19.5498C0.75 20.1016 0.750003 20.5457 0.779297 20.9043C0.809065 21.2686 0.871645 21.5887 1.02246 21.8848C1.26214 22.3552 1.64483 22.7379 2.11523 22.9775C2.41133 23.1284 2.73136 23.1909 3.0957 23.2207C3.45429 23.25 3.8984 23.25 4.4502 23.25H19.5498C20.1016 23.25 20.5457 23.25 20.9043 23.2207C21.2686 23.1909 21.5887 23.1284 21.8848 22.9775C22.3552 22.7379 22.7379 22.3552 22.9775 21.8848C23.1284 21.5887 23.1909 21.2686 23.2207 20.9043C23.25 20.5457 23.25 20.1016 23.25 19.5498V4.4502C23.25 3.89841 23.25 3.45428 23.2207 3.0957C23.1909 2.73137 23.1284 2.41132 22.9775 2.11523C22.7379 1.64484 22.3552 1.26214 21.8848 1.02246C21.5887 0.871638 21.2686 0.809066 20.9043 0.779297C20.5457 0.749999 20.1016 0.75 19.5498 0.75H4.4502ZM19.5498 1.75C20.1181 1.75 20.5148 1.75019 20.8232 1.77539C21.1253 1.80009 21.2991 1.84614 21.4307 1.91309C21.7129 2.05689 21.9431 2.28711 22.0869 2.56934C22.1539 2.70091 22.1999 2.87473 22.2246 3.17676C22.2498 3.48517 22.25 3.88191 22.25 4.4502V7.25098C22.1355 7.16502 22.0136 7.0881 21.8848 7.02246C21.5887 6.87164 21.2686 6.80907 20.9043 6.7793C20.5457 6.75 20.1016 6.75 19.5498 6.75H19.1338C18.3238 6.75 18.0462 6.74214 17.8154 6.65723C17.5937 6.57558 17.394 6.44281 17.2334 6.26953C17.0663 6.08919 16.9521 5.83646 16.6406 5.08887L15.7822 3.02734C15.5518 2.47439 15.3856 2.06764 15.1592 1.75H19.5498ZM12.3662 1.75C13.1762 1.75 13.4538 1.75787 13.6846 1.84277C13.9063 1.92442 14.106 2.0572 14.2666 2.23047C14.4337 2.41081 14.5479 2.66354 14.8594 3.41113L15.7178 5.47266C15.9482 6.02559 16.1144 6.43236 16.3408 6.75H12.1338C11.3238 6.75 11.0462 6.74214 10.8154 6.65723C10.5937 6.57558 10.394 6.44281 10.2334 6.26953C10.0663 6.08919 9.95213 5.83646 9.64062 5.08887L8.78223 3.02734C8.55183 2.47439 8.38558 2.06764 8.15918 1.75H12.3662Z" fill="black"/>
</svg>
