<svg width="24" height="24" viewBox="0 0 24 24" fill="none" xmlns="http://www.w3.org/2000/svg">
<path fill-rule="evenodd" clip-rule="evenodd" d="M4.4502 0.250004C3.90666 0.250004 3.43836 0.248932 3.05469 0.280278C2.65944 0.312588 2.26599 0.384412 1.8877 0.577153C1.32349 0.86472 0.864729 1.3235 0.577153 1.8877C0.384409 2.26598 0.312591 2.65945 0.280278 3.05469C0.248932 3.43835 0.250004 3.90667 0.250004 4.4502V19.5498C0.250004 20.0933 0.248935 20.5617 0.280278 20.9453C0.312588 21.3406 0.384413 21.734 0.577153 22.1123C0.864726 22.6765 1.32348 23.1353 1.8877 23.4229C2.266 23.6156 2.65943 23.6874 3.05469 23.7197C3.43836 23.7511 3.90665 23.75 4.4502 23.75H19.5498C20.0934 23.75 20.5616 23.7511 20.9453 23.7197C21.3406 23.6874 21.734 23.6156 22.1123 23.4229C22.6765 23.1353 23.1353 22.6765 23.4229 22.1123C23.6156 21.734 23.6874 21.3406 23.7197 20.9453C23.7511 20.5617 23.75 20.0933 23.75 19.5498V4.4502C23.75 3.90667 23.7511 3.43835 23.7197 3.05469C23.6874 2.65945 23.6156 2.26598 23.4229 1.8877C23.1353 1.32349 22.6765 0.864723 22.1123 0.577153C21.734 0.384406 21.3406 0.312589 20.9453 0.280278C20.5616 0.248931 20.0934 0.250004 19.5498 0.250004H4.4502ZM19.5498 2.25C20.1264 2.25 20.4989 2.25029 20.7822 2.27344C21.0539 2.29564 21.1547 2.33419 21.2041 2.35938C21.3921 2.45521 21.5448 2.60795 21.6406 2.7959C21.6658 2.84534 21.7034 2.94622 21.7256 3.21778C21.7487 3.50111 21.75 3.87367 21.75 4.4502V6.42872C21.7269 6.42127 21.7038 6.41401 21.6807 6.40723C21.4384 6.33635 21.1923 6.30046 20.9453 6.28028C20.5616 6.24893 20.0934 6.25 19.5498 6.25H19.1338C18.2852 6.25 18.1153 6.23514 17.9883 6.18848C17.8405 6.13405 17.7067 6.04521 17.5996 5.92969C17.5077 5.8304 17.4289 5.67962 17.1025 4.89649L16.2432 2.83497C16.1582 2.63109 16.0755 2.43622 15.9932 2.25H19.5498ZM12.3662 2.25C13.2148 2.25 13.3847 2.26487 13.5117 2.31153C13.6595 2.36596 13.7933 2.45481 13.9004 2.57032C13.9923 2.66961 14.0711 2.82037 14.3975 3.60352L15.2568 5.66504C15.3418 5.86891 15.4245 6.0638 15.5068 6.25H12.1338C11.2852 6.25 11.1153 6.23514 10.9883 6.18848C10.8405 6.13405 10.7067 6.04521 10.5996 5.92969C10.5077 5.8304 10.4289 5.67962 10.1025 4.89649L9.24317 2.83497C9.15822 2.63109 9.07551 2.43622 8.99317 2.25H12.3662Z" fill="black"/>
</svg>
