<svg width="24" height="24" viewBox="0 0 24 24" fill="none" xmlns="http://www.w3.org/2000/svg">
<path fill-rule="evenodd" clip-rule="evenodd" d="M4.4502 4.75276e-06C3.91078 4.75276e-06 3.43039 -0.00111585 3.03418 0.0312548C2.62352 0.0648352 2.19376 0.140836 1.77442 0.354497C1.16306 0.666051 0.666059 1.16307 0.354497 1.77442C0.140834 2.19376 0.064838 2.62352 0.0312547 3.03418C-0.00111622 3.43039 4.64768e-06 3.91079 4.7136e-06 4.4502V19.5498C4.7136e-06 20.0892 -0.0011133 20.5696 0.0312547 20.9658C0.0648351 21.3765 0.140838 21.8062 0.354497 22.2256C0.666056 22.837 1.16305 23.334 1.77442 23.6455C2.19377 23.8592 2.62351 23.9352 3.03418 23.9688C3.4304 24.0011 3.91078 24 4.4502 24H19.5498C20.0892 24 20.5696 24.0011 20.9658 23.9688C21.3765 23.9352 21.8062 23.8592 22.2256 23.6455C22.8369 23.3339 23.334 22.8369 23.6455 22.2256C23.8592 21.8062 23.9352 21.3765 23.9688 20.9658C24.0011 20.5696 24 20.0892 24 19.5498V4.4502C24 3.91079 24.0011 3.43039 23.9688 3.03418C23.9352 2.62352 23.8592 2.19376 23.6455 1.77442C23.334 1.16306 22.8369 0.666053 22.2256 0.354497C21.8062 0.140831 21.3765 0.0648359 20.9658 0.0312548C20.5696 -0.00111678 20.0892 4.49848e-06 19.5498 4.75276e-06H4.4502ZM5.36622 2.5C6.2349 2.5 6.35058 2.51824 6.42579 2.5459C6.53665 2.58672 6.63648 2.65361 6.7168 2.74024C6.77125 2.79902 6.83298 2.89855 7.167 3.7002L8.0254 5.76172C8.28416 6.38275 8.51995 6.99588 8.9502 7.45997C9.29814 7.83517 9.7298 8.12294 10.21 8.29981C10.6554 8.46381 11.1363 8.49495 11.6328 8.5H19.5498C20.1304 8.5 20.4909 8.50132 20.7617 8.52344C21.0178 8.54437 21.0825 8.57777 21.0908 8.58204C21.2316 8.65388 21.3461 8.76838 21.418 8.90918C21.4222 8.91751 21.4556 8.98212 21.4766 9.23829C21.4987 9.50907 21.5 9.86959 21.5 10.4502V19.5498C21.5 20.1304 21.4987 20.4909 21.4766 20.7617C21.4557 21.0175 21.4223 21.0823 21.418 21.0908C21.3461 21.2316 21.2316 21.3461 21.0908 21.418C21.0825 21.4222 21.0179 21.4556 20.7617 21.4766C20.4909 21.4987 20.1304 21.5 19.5498 21.5H4.4502C3.86957 21.5 3.50907 21.4987 3.23829 21.4766C2.98208 21.4556 2.91751 21.4222 2.90918 21.418C2.76836 21.3461 2.65389 21.2316 2.58204 21.0908C2.57772 21.0824 2.54435 21.0176 2.52344 20.7617C2.50133 20.4909 2.5 20.1304 2.5 19.5498V4.4502C2.5 3.86959 2.50132 3.50907 2.52344 3.23829C2.54438 2.98212 2.57779 2.91751 2.58204 2.90918C2.65389 2.76838 2.76837 2.65388 2.90918 2.58204C2.91763 2.57773 2.98237 2.54435 3.23829 2.52344C3.50907 2.50132 3.86957 2.5 4.4502 2.5H5.36622ZM19.5498 2.5C20.1304 2.5 20.4909 2.50132 20.7617 2.52344C21.0178 2.54437 21.0825 2.57777 21.0908 2.58204C21.2316 2.65388 21.3461 2.76837 21.418 2.90918C21.4222 2.91751 21.4556 2.98212 21.4766 3.23829C21.4987 3.50907 21.5 3.8696 21.5 4.4502V6.10743C21.3198 6.07015 21.1413 6.04561 20.9658 6.03125C20.5696 5.99888 20.0892 6 19.5498 6H19.1338C18.2651 6 18.1494 5.98177 18.0742 5.95411C17.9634 5.91328 17.8635 5.84641 17.7832 5.75977C17.7288 5.70098 17.667 5.60141 17.333 4.79981L16.4746 2.73829C16.4414 2.65854 16.4079 2.57919 16.375 2.5H19.5498ZM12.3662 2.5C13.2349 2.5 13.3506 2.51824 13.4258 2.5459C13.5366 2.58672 13.6365 2.65361 13.7168 2.74024C13.7713 2.79902 13.833 2.89855 14.167 3.7002L15.0254 5.76172C15.0586 5.84145 15.0921 5.92083 15.125 6H12.1338C11.2651 6 11.1494 5.98177 11.0742 5.95411C10.9634 5.91328 10.8635 5.84641 10.7832 5.75977C10.7288 5.70098 10.667 5.6014 10.333 4.79981L9.47461 2.73829C9.44139 2.65854 9.40793 2.57919 9.375 2.5H12.3662Z" fill="black"/>
</svg>
