<svg width="24" height="24" viewBox="0 0 24 24" fill="none" xmlns="http://www.w3.org/2000/svg">
<path fill-rule="evenodd" clip-rule="evenodd" d="M4.4502 1C3.89435 1 3.46223 1.00006 3.11621 1.02832C2.76728 1.05683 2.48353 1.1152 2.22852 1.24512C1.80516 1.46083 1.46083 1.80517 1.24512 2.22852C1.11519 2.48352 1.05683 2.76729 1.02832 3.11621C1.00006 3.46222 1 3.89437 1 4.4502V19.5498C1 20.1056 1.00006 20.5378 1.02832 20.8838C1.05683 21.2327 1.1152 21.5165 1.24512 21.7715C1.46083 22.1948 1.80516 22.5392 2.22852 22.7549C2.48353 22.8848 2.76727 22.9432 3.11621 22.9717C3.46223 22.9999 3.89435 23 4.4502 23H19.5498C20.1057 23 20.5378 22.9999 20.8838 22.9717C21.2327 22.9432 21.5165 22.8848 21.7715 22.7549C22.1948 22.5392 22.5392 22.1948 22.7549 21.7715C22.8848 21.5165 22.9432 21.2327 22.9717 20.8838C22.9999 20.5378 23 20.1056 23 19.5498V4.4502C23 3.89437 22.9999 3.46222 22.9717 3.11621C22.9432 2.76729 22.8848 2.48352 22.7549 2.22852C22.5392 1.80516 22.1948 1.46083 21.7715 1.24512C21.5165 1.11519 21.2327 1.05683 20.8838 1.02832C20.5378 1.00006 20.1057 1 19.5498 1H4.4502ZM5.36621 1.5C6.15684 1.5 6.48881 1.50334 6.77148 1.60742C7.03017 1.70267 7.26278 1.8584 7.4502 2.06055C7.65484 2.28142 7.78589 2.58594 8.08984 3.31543L8.94824 5.37695C9.23719 6.07043 9.4037 6.47734 9.68359 6.7793C9.92451 7.03915 10.2232 7.23885 10.5557 7.36133C10.9421 7.50361 11.3824 7.5 12.1338 7.5H19.5498C20.1137 7.5 20.5219 7.50018 20.8428 7.52637C21.1608 7.55235 21.3721 7.60239 21.5449 7.69043C21.874 7.85817 22.1418 8.12599 22.3096 8.45508C22.3976 8.62786 22.4476 8.83921 22.4736 9.15723C22.4998 9.47811 22.5 9.88631 22.5 10.4502V19.5498C22.5 20.1137 22.4998 20.5219 22.4736 20.8428C22.4477 21.1608 22.3976 21.3721 22.3096 21.5449C22.1418 21.874 21.874 22.1418 21.5449 22.3096C21.3721 22.3976 21.1608 22.4476 20.8428 22.4736C20.5219 22.4998 20.1137 22.5 19.5498 22.5H4.4502C3.88629 22.5 3.47812 22.4998 3.15723 22.4736C2.83918 22.4476 2.62787 22.3976 2.45508 22.3096C2.12598 22.1418 1.85818 21.874 1.69043 21.5449C1.6024 21.3721 1.55235 21.1608 1.52637 20.8428C1.50018 20.5219 1.5 20.1137 1.5 19.5498V4.4502C1.5 3.88631 1.50018 3.47811 1.52637 3.15723C1.55235 2.83921 1.60239 2.62787 1.69043 2.45508C1.85818 2.12599 2.12598 1.85817 2.45508 1.69043C2.62787 1.60239 2.8392 1.55235 3.15723 1.52637C3.47812 1.50018 3.8863 1.5 4.4502 1.5H5.36621ZM19.5498 1.5C20.1137 1.5 20.5219 1.50018 20.8428 1.52637C21.1608 1.55235 21.3721 1.60239 21.5449 1.69043C21.874 1.85817 22.1418 2.12598 22.3096 2.45508C22.3976 2.62787 22.4476 2.83921 22.4736 3.15723C22.4998 3.47811 22.5 3.88632 22.5 4.4502V7.83789C22.3022 7.59281 22.0551 7.38964 21.7715 7.24512C21.5165 7.11519 21.2327 7.05683 20.8838 7.02832C20.5378 7.00006 20.1057 7 19.5498 7H19.1338C18.3431 7 18.0112 6.99666 17.7285 6.89258C17.4698 6.79732 17.2372 6.64161 17.0498 6.43945C16.8452 6.21857 16.7141 5.91407 16.4102 5.18457L15.5518 3.12305C15.2628 2.42958 15.0963 2.02266 14.8164 1.7207C14.7425 1.64096 14.6622 1.56792 14.5781 1.5H19.5498ZM12.3662 1.5C13.1568 1.5 13.4888 1.50334 13.7715 1.60742C14.0302 1.70267 14.2628 1.8584 14.4502 2.06055C14.6548 2.28142 14.7859 2.58594 15.0898 3.31543L15.9482 5.37695C16.2372 6.07043 16.4037 6.47734 16.6836 6.7793C16.7574 6.85885 16.837 6.93221 16.9209 7H12.1338C11.3431 7 11.0112 6.99666 10.7285 6.89258C10.4698 6.79732 10.2372 6.64161 10.0498 6.43945C9.84516 6.21857 9.71411 5.91407 9.41016 5.18457L8.55176 3.12305C8.26281 2.42958 8.0963 2.02266 7.81641 1.7207C7.74247 1.64096 7.66224 1.56792 7.57812 1.5H12.3662Z" fill="black"/>
</svg>
