<svg width="24" height="24" viewBox="0 0 24 24" fill="none" xmlns="http://www.w3.org/2000/svg">
<path fill-rule="evenodd" clip-rule="evenodd" d="M4.4502 0.500004C3.90253 0.500004 3.44633 0.49898 3.0752 0.529301C2.69548 0.560332 2.33909 0.628107 2.00196 0.799809C1.48453 1.06345 1.06346 1.48453 0.799809 2.00196C0.628104 2.33909 0.560335 2.69549 0.529301 3.0752C0.498979 3.44632 0.500004 3.90254 0.500004 4.4502V19.5498C0.500004 20.0975 0.498982 20.5537 0.529301 20.9248C0.560332 21.3045 0.628109 21.6609 0.799809 21.9981C1.06346 22.5155 1.48452 22.9365 2.00196 23.2002C2.3391 23.3719 2.69547 23.4397 3.0752 23.4707C3.44633 23.501 3.90253 23.5 4.4502 23.5H19.5498C20.0975 23.5 20.5537 23.501 20.9248 23.4707C21.3045 23.4397 21.6609 23.3719 21.9981 23.2002C22.5155 22.9365 22.9366 22.5155 23.2002 21.9981C23.3719 21.6609 23.4397 21.3045 23.4707 20.9248C23.501 20.5537 23.5 20.0975 23.5 19.5498V4.4502C23.5 3.90254 23.501 3.44632 23.4707 3.0752C23.4397 2.69548 23.3719 2.33909 23.2002 2.00196C22.9365 1.48453 22.5155 1.06346 21.9981 0.799809C21.6609 0.6281 21.3045 0.560333 20.9248 0.529301C20.5537 0.498979 20.0975 0.500004 19.5498 0.500004H4.4502ZM5.36622 2C6.19612 2 6.4197 2.01127 6.59864 2.07715C6.78336 2.14519 6.94917 2.25605 7.08301 2.40039C7.21265 2.54023 7.30875 2.74177 7.62793 3.50782L8.48731 5.56934C8.76116 6.22658 8.96133 6.73711 9.31641 7.12012C9.61088 7.43771 9.9764 7.68139 10.3828 7.83106C10.873 8.01154 11.4217 8 12.1338 8H19.5498C20.1222 8 20.5069 8.00024 20.8027 8.02442C21.0897 8.04788 21.2268 8.09059 21.3174 8.13672C21.5525 8.25654 21.7435 8.44752 21.8633 8.68262C21.9094 8.77316 21.9521 8.9103 21.9756 9.19727C21.9998 9.49314 22 9.8778 22 10.4502V19.5498C22 20.1222 21.9998 20.5069 21.9756 20.8027C21.9521 21.0897 21.9094 21.2268 21.8633 21.3174C21.7435 21.5525 21.5525 21.7435 21.3174 21.8633C21.2268 21.9094 21.0897 21.9521 20.8027 21.9756C20.5069 21.9998 20.1222 22 19.5498 22H4.4502C3.87778 22 3.49315 21.9998 3.19727 21.9756C2.91027 21.9521 2.77316 21.9094 2.68262 21.8633C2.44751 21.7435 2.25655 21.5525 2.13672 21.3174C2.0906 21.2268 2.04788 21.0897 2.02442 20.8027C2.00025 20.5069 2 20.1222 2 19.5498V4.4502C2 3.8778 2.00024 3.49314 2.02442 3.19727C2.04788 2.9103 2.09059 2.77316 2.13672 2.68262C2.25655 2.44752 2.44752 2.25654 2.68262 2.13672C2.77316 2.0906 2.9103 2.04788 3.19727 2.02442C3.49315 2.00025 3.87778 2 4.4502 2H5.36622ZM19.5498 2C20.1222 2 20.5069 2.00024 20.8027 2.02442C21.0897 2.04788 21.2268 2.09059 21.3174 2.13672C21.5525 2.25655 21.7435 2.44752 21.8633 2.68262C21.9094 2.77316 21.9521 2.9103 21.9756 3.19727C21.9998 3.49314 22 3.8778 22 4.4502V6.80079L21.9981 6.79981C21.6609 6.6281 21.3045 6.56033 20.9248 6.5293C20.5537 6.49898 20.0975 6.5 19.5498 6.5H19.1338C18.3039 6.5 18.0803 6.48874 17.9014 6.42286C17.7166 6.35482 17.5508 6.24397 17.417 6.09961C17.2874 5.95978 17.1913 5.75824 16.8721 4.99219L16.0127 2.93067C15.8663 2.57929 15.7398 2.27044 15.6006 2H19.5498ZM12.3662 2C13.1961 2 13.4197 2.01127 13.5986 2.07715C13.7834 2.14519 13.9492 2.25605 14.083 2.40039C14.2127 2.54023 14.3087 2.74177 14.6279 3.50782L15.4873 5.56934C15.6337 5.9207 15.7602 6.22957 15.8994 6.5H12.1338C11.3039 6.5 11.0803 6.48874 10.9014 6.42286C10.7166 6.35482 10.5508 6.24397 10.417 6.09961C10.2874 5.95978 10.1913 5.75823 9.87207 4.99219L9.0127 2.93067C8.86629 2.57929 8.73981 2.27044 8.60059 2H12.3662Z" fill="black"/>
</svg>
