<svg width="24" height="24" viewBox="0 0 24 24" fill="none" xmlns="http://www.w3.org/2000/svg">
<path d="M5.87506 6C5.87506 3.72183 7.72189 1.875 10.0001 1.875C12.2782 1.875 14.1251 3.72183 14.1251 6C14.1251 6.48325 14.5168 6.875 15.0001 6.875C15.4833 6.875 15.8751 6.48325 15.8751 6C15.8751 2.75533 13.2447 0.125 10.0001 0.125C6.75539 0.125 4.12506 2.75533 4.12506 6C4.12506 6.48325 4.51681 6.875 5.00006 6.875C5.48331 6.875 5.87506 6.48325 5.87506 6Z" fill="black"/>
<path fill-rule="evenodd" clip-rule="evenodd" d="M15.0605 8.81807C14.6507 8.10511 13.8814 7.625 13.0001 7.625C12.7838 7.625 12.5742 7.65392 12.3751 7.70809V6C12.3751 4.68832 11.3117 3.625 10.0001 3.625C8.68839 3.625 7.62506 4.68832 7.62506 6V13.653L5.82901 11.4849C4.99224 10.4748 3.49505 10.3343 2.48495 11.171C1.47485 12.0078 1.33434 13.505 2.17111 14.5151L7.64101 21.1181C9.06139 22.8327 11.172 23.825 13.3986 23.825C17.5277 23.825 20.8751 20.4777 20.8751 16.3485L20.8751 12.5C20.8751 11.1883 19.8118 10.125 18.5001 10.125C18.4039 10.125 18.3088 10.1308 18.2153 10.142C17.8713 9.25436 17.0092 8.625 16.0001 8.625C15.6663 8.625 15.3487 8.69383 15.0605 8.81807ZM10.0001 5.375C10.3452 5.375 10.6251 5.65482 10.6251 6V13.9C10.6251 14.3832 11.0168 14.775 11.5001 14.775C11.9833 14.775 12.3751 14.3832 12.3751 13.9V10C12.3751 9.65482 12.6549 9.375 13.0001 9.375C13.3452 9.375 13.6251 9.65482 13.6251 10V13.9C13.6251 14.3832 14.0168 14.775 14.5001 14.775C14.9833 14.775 15.3751 14.3832 15.3751 13.9V10.9998C15.3753 10.6548 15.655 10.375 16.0001 10.375C16.3452 10.375 16.6251 10.6548 16.6251 11V14C16.6251 14.4832 17.0168 14.875 17.5001 14.875C17.9833 14.875 18.3751 14.4832 18.3751 14V11.8873C18.4152 11.8793 18.4569 11.875 18.5001 11.875C18.8453 11.875 19.1251 12.1548 19.1251 12.5L19.1251 16.3485C19.1251 19.5112 16.5612 22.075 13.3986 22.075C11.6932 22.075 10.0766 21.3149 8.98866 20.0017L3.51876 13.3987C3.29856 13.1329 3.33553 12.7389 3.60135 12.5187C3.86717 12.2985 4.26116 12.3355 4.48137 12.6013L6.73396 15.3205C7.17671 15.8549 7.92951 16.0136 8.55026 15.7032C9.05576 15.4504 9.37506 14.9338 9.37506 14.3686V6C9.37506 5.65482 9.65489 5.375 10.0001 5.375Z" fill="black"/>
</svg>
