<svg width="24" height="24" viewBox="0 0 24 24" fill="none" xmlns="http://www.w3.org/2000/svg">
<path d="M5.50005 6C5.50005 3.51472 7.51477 1.5 10.0001 1.5C12.4853 1.5 14.5001 3.51472 14.5001 6C14.5001 6.27614 14.7239 6.5 15.0001 6.5C15.2762 6.5 15.5001 6.27614 15.5001 6C15.5001 2.96243 13.0376 0.5 10.0001 0.5C6.96249 0.5 4.50005 2.96243 4.50005 6C4.50005 6.27614 4.72391 6.5 5.00005 6.5C5.2762 6.5 5.50005 6.27614 5.50005 6Z" fill="black"/>
<path fill-rule="evenodd" clip-rule="evenodd" d="M14.8877 9.33759C14.6144 8.55857 13.8725 8 13.0001 8C12.6358 8 12.2942 8.09739 12.0001 8.26756V6C12.0001 4.89543 11.1046 4 10.0001 4C8.89548 4 8.00005 4.89543 8.00005 6V14.3686C8.00005 14.413 7.975 14.4535 7.93533 14.4733C7.88663 14.4977 7.82756 14.4853 7.79282 14.4433L5.54022 11.7241C4.83557 10.8735 3.57478 10.7552 2.72417 11.4598C1.87356 12.1645 1.75523 13.4253 2.45988 14.2759L7.92978 20.8788C9.27892 22.5074 11.2837 23.45 13.3985 23.45C17.3206 23.45 20.5001 20.2706 20.5001 16.3485L20.5001 12.5C20.5001 11.3954 19.6047 10.5 18.5001 10.5C18.3115 10.5 18.1285 10.5262 17.9549 10.5754C17.7602 9.67477 16.9589 9 16.0001 9C15.5884 9 15.2058 9.12437 14.8877 9.33759ZM10.0001 5C10.5523 5 11.0001 5.44772 11.0001 6V13.9C11.0001 14.1761 11.2239 14.4 11.5001 14.4C11.7762 14.4 12.0001 14.1761 12.0001 13.9V10C12.0001 9.44772 12.4478 9 13.0001 9C13.5523 9 14.0001 9.44772 14.0001 10V13.9C14.0001 14.1761 14.2239 14.4 14.5001 14.4C14.7762 14.4 15.0001 14.1761 15.0001 13.9V10.9997C15.0003 10.4476 15.4479 10 16.0001 10C16.5523 10 17.0001 10.4477 17.0001 11V14C17.0001 14.2761 17.2239 14.5 17.5001 14.5C17.7762 14.5 18.0001 14.2761 18.0001 14V11.6306C18.0144 11.6244 18.0287 11.6176 18.0429 11.6103C18.1794 11.5399 18.3343 11.5 18.5001 11.5C19.0524 11.5 19.5001 11.9477 19.5001 12.5L19.5001 16.3485C19.5001 19.7183 16.7683 22.45 13.3985 22.45C11.5815 22.45 9.85903 21.6402 8.69987 20.2409L3.22997 13.6379C2.87764 13.2126 2.93681 12.5822 3.36211 12.2299C3.78742 11.8776 4.41781 11.9368 4.77014 12.3621L7.02273 15.0813C7.3542 15.4814 7.9178 15.6001 8.38255 15.3678C8.761 15.1785 9.00005 14.7917 9.00005 14.3686V6C9.00005 5.44772 9.44777 5 10.0001 5Z" fill="black"/>
</svg>
