<svg width="24" height="24" viewBox="0 0 24 24" fill="none" xmlns="http://www.w3.org/2000/svg">
<path d="M12.75 23C12.75 23.4142 12.4142 23.75 12 23.75C11.5858 23.75 11.25 23.4142 11.25 23V20.9658C11.4974 20.9862 11.7473 21 12 21C12.2527 21 12.5026 20.9862 12.75 20.9658V23Z" fill="black"/>
<path d="M11.25 20.9658C6.87787 20.605 3.39501 17.1221 3.03418 12.75H11.25V20.9658Z" fill="black"/>
<path d="M20.9658 12.75C20.605 17.1221 17.1221 20.605 12.75 20.9658V12.75H20.9658Z" fill="black"/>
<path d="M3.03418 11.25C3.01376 11.4974 3 11.7473 3 12C3 12.2527 3.01376 12.5026 3.03418 12.75H1C0.585786 12.75 0.25 12.4142 0.25 12C0.25 11.5858 0.585786 11.25 1 11.25H3.03418Z" fill="black"/>
<path d="M23 11.25C23.4142 11.25 23.75 11.5858 23.75 12C23.75 12.4142 23.4142 12.75 23 12.75H20.9658C20.9862 12.5026 21 12.2527 21 12C21 11.7473 20.9862 11.4974 20.9658 11.25H23Z" fill="black"/>
<path d="M11.25 11.25H3.03418C3.39501 6.87785 6.87784 3.394 11.25 3.0332V11.25Z" fill="black"/>
<path d="M12.75 3.0332C17.1222 3.394 20.605 6.87785 20.9658 11.25H12.75V3.0332Z" fill="black"/>
<path d="M12 0.25C12.4142 0.25 12.75 0.585786 12.75 1V3.0332C12.5026 3.01279 12.2526 3 12 3C11.7474 3 11.4974 3.01279 11.25 3.0332V1C11.25 0.585786 11.5858 0.25 12 0.25Z" fill="black"/>
</svg>
