<svg width="24" height="24" viewBox="0 0 24 24" fill="none" xmlns="http://www.w3.org/2000/svg">
<path d="M13 23C13 23.5523 12.5523 24 12 24C11.4477 24 11 23.5523 11 23V20.9424C11.3284 20.9787 11.6619 21 12 21C12.3381 21 12.6716 20.9787 13 20.9424V23Z" fill="black"/>
<path d="M13 3.05664C17.1698 3.51768 20.4791 6.82597 20.9424 10.9951H15.0049C14.4527 10.9952 14.0049 11.4429 14.0049 11.9951C14.0049 12.5473 14.4527 12.9951 15.0049 12.9951H20.9434C20.4842 17.1688 17.173 20.4809 13 20.9424V15C13 14.4477 12.5523 14 12 14C11.4477 14 11 14.4477 11 15V20.9424C6.82698 20.4809 3.51584 17.1688 3.05664 12.9951H9.00488C9.55713 12.9951 10.0048 12.5473 10.0049 11.9951C10.0049 11.4428 9.55717 10.9951 9.00488 10.9951H3.05762C3.5209 6.82597 6.83018 3.51768 11 3.05664V9C11 9.55229 11.4477 10 12 10C12.5523 10 13 9.55229 13 9V3.05664Z" fill="black"/>
<path d="M3.05762 10.9951C3.02095 11.3251 3 11.6602 3 12C3 12.3364 3.02068 12.6683 3.05664 12.9951H1.00488C0.452695 12.9951 0.00494895 12.5473 0.00488281 11.9951C0.00488284 11.4429 0.452654 10.9952 1.00488 10.9951H3.05762Z" fill="black"/>
<path d="M23.0049 10.9951C23.5572 10.9951 24.0049 11.4428 24.0049 11.9951C24.0048 12.5473 23.5571 12.9951 23.0049 12.9951H20.9434C20.9793 12.6683 21 12.3364 21 12C21 11.6602 20.9791 11.3251 20.9424 10.9951H23.0049Z" fill="black"/>
<path d="M12 0C12.5523 0 13 0.447715 13 1V3.05664C12.6716 3.02033 12.3381 3 12 3C11.6619 3 11.3284 3.02033 11 3.05664V1C11 0.447715 11.4477 0 12 0Z" fill="black"/>
</svg>
