<svg width="24" height="24" viewBox="0 0 24 24" fill="none" xmlns="http://www.w3.org/2000/svg">
<path d="M12.25 23C12.25 23.1381 12.1381 23.25 12 23.25C11.8619 23.25 11.75 23.1381 11.75 23V20.9932C11.8331 20.9954 11.9164 21 12 21C12.0836 21 12.1669 20.9954 12.25 20.9932V23Z" fill="black"/>
<path d="M11.75 20.9932C6.97815 20.863 3.13604 17.0219 3.00586 12.25H11.75V20.9932Z" fill="black"/>
<path d="M20.9941 12.25C20.864 17.0219 17.0218 20.863 12.25 20.9932V12.25H20.9941Z" fill="black"/>
<path d="M3 12C3 12.0836 3.00359 12.1669 3.00586 12.25H1C0.861929 12.25 0.75 12.1381 0.75 12C0.75 11.8619 0.861929 11.75 1 11.75H3.00586C3.00359 11.8331 3 11.9164 3 12Z" fill="black"/>
<path d="M23 11.75C23.1381 11.75 23.25 11.8619 23.25 12C23.25 12.1381 23.1381 12.25 23 12.25H20.9941C20.9964 12.1669 21 12.0836 21 12C21 11.9164 20.9964 11.8331 20.9941 11.75H23Z" fill="black"/>
<path d="M11.75 11.75H3.00586C3.13604 6.97814 6.97814 3.13604 11.75 3.00586V11.75Z" fill="black"/>
<path d="M12.25 3.00586C17.0219 3.13604 20.864 6.97814 20.9941 11.75H12.25V3.00586Z" fill="black"/>
<path d="M12 0.75C12.1381 0.75 12.25 0.861929 12.25 1V3.00586C12.1669 3.00359 12.0836 3 12 3C11.9164 3 11.8331 3.00359 11.75 3.00586V1C11.75 0.861929 11.8619 0.75 12 0.75Z" fill="black"/>
</svg>
