<svg width="24" height="24" viewBox="0 0 24 24" fill="none" xmlns="http://www.w3.org/2000/svg">
<path d="M13.25 22.5C13.25 23.1904 12.6904 23.75 12 23.75C11.3096 23.75 10.75 23.1904 10.75 22.5V20.9111C11.1587 20.9679 11.5757 21 12 21C12.4243 21 12.8413 20.9679 13.25 20.9111V22.5Z" fill="black"/>
<path d="M10.75 20.9111C6.77987 20.3593 3.63965 17.2201 3.08789 13.25H10.75V20.9111Z" fill="black"/>
<path d="M20.9121 13.25C20.3604 17.2201 17.2201 20.3593 13.25 20.9111V13.25H20.9121Z" fill="black"/>
<path d="M3.08789 10.75C3.0311 11.1586 3 11.5758 3 12C3 12.4242 3.0311 12.8414 3.08789 13.25H1.5C0.809644 13.25 0.25 12.6904 0.25 12C0.25 11.3096 0.809644 10.75 1.5 10.75H3.08789Z" fill="black"/>
<path d="M22.5 10.75C23.1904 10.75 23.75 11.3096 23.75 12C23.75 12.6904 23.1904 13.25 22.5 13.25H20.9121C20.9689 12.8414 21 12.4242 21 12C21 11.5758 20.9689 11.1586 20.9121 10.75H22.5Z" fill="black"/>
<path d="M10.75 10.75H3.08789C3.63965 6.77981 6.77981 3.63965 10.75 3.08789V10.75Z" fill="black"/>
<path d="M13.25 3.08789C17.2202 3.63965 20.3603 6.77981 20.9121 10.75H13.25V3.08789Z" fill="black"/>
<path d="M12 0.25C12.6904 0.25 13.25 0.809644 13.25 1.5V3.08789C12.8414 3.0311 12.4242 3 12 3C11.5758 3 11.1586 3.0311 10.75 3.08789V1.5C10.75 0.809644 11.3096 0.25 12 0.25Z" fill="black"/>
</svg>
