<svg width="24" height="24" viewBox="0 0 24 24" fill="none" xmlns="http://www.w3.org/2000/svg">
<path fill-rule="evenodd" clip-rule="evenodd" d="M12 0C12.5523 0 13 0.447715 13 1V3.05664C17.1698 3.51768 20.4791 6.82597 20.9424 10.9951H23.0049C23.5572 10.9951 24.0049 11.4428 24.0049 11.9951C24.0048 12.5473 23.5571 12.9951 23.0049 12.9951H20.9434C20.4842 17.1688 17.173 20.4809 13 20.9424V23C13 23.5523 12.5523 24 12 24C11.4477 24 11 23.5523 11 23V20.9424C6.82698 20.4809 3.51584 17.1688 3.05664 12.9951H1.00488C0.452693 12.9951 0.00494689 12.5473 0.00488281 11.9951C0.00488284 11.4429 0.452654 10.9952 1.00488 10.9951H3.05762C3.5209 6.82597 6.83018 3.51768 11 3.05664V1C11 0.447715 11.4477 0 12 0ZM13 9C13 9.55229 12.5523 10 12 10C11.4477 10 11 9.55229 11 9V5.07227C7.93611 5.51061 5.51371 7.93191 5.07324 10.9951H9.00488C9.55717 10.9951 10.0049 11.4428 10.0049 11.9951C10.0048 12.5473 9.55713 12.9951 9.00488 12.9951H5.07227C5.509 16.0629 7.93293 18.4879 11 18.9268V15C11 14.4477 11.4477 14 12 14C12.5523 14 13 14.4477 13 15V18.9268C16.0671 18.4879 18.491 16.0629 18.9277 12.9951H15.0049C14.4527 12.9951 14.0049 12.5473 14.0049 11.9951C14.0049 11.4429 14.4527 10.9952 15.0049 10.9951H18.9268C18.4863 7.93191 16.0639 5.51061 13 5.07227V9Z" fill="black"/>
</svg>
