<svg width="24" height="24" viewBox="0 0 24 24" fill="none" xmlns="http://www.w3.org/2000/svg">
<path d="M12.5 23C12.5 23.2761 12.2761 23.5 12 23.5C11.7239 23.5 11.5 23.2761 11.5 23V20.9854C11.6655 20.9944 11.8322 21 12 21C12.1678 21 12.3345 20.9944 12.5 20.9854V23Z" fill="black"/>
<path d="M12.5 3.01367C17.0708 3.26396 20.7326 6.92493 20.9854 11.4951H15.0049C14.7288 11.4952 14.5049 11.719 14.5049 11.9951C14.5049 12.2712 14.7288 12.4951 15.0049 12.4951H20.9854C20.7373 17.0698 17.0741 20.7349 12.5 20.9854V15C12.5 14.7239 12.2761 14.5 12 14.5C11.7239 14.5 11.5 14.7239 11.5 15V20.9854C6.92594 20.7349 3.26272 17.0698 3.01465 12.4951H9.00488C9.28098 12.4951 9.50482 12.2712 9.50488 11.9951C9.50488 11.719 9.28103 11.4951 9.00488 11.4951H3.01465C3.26738 6.92493 6.92916 3.26396 11.5 3.01367V9C11.5 9.27614 11.7239 9.5 12 9.5C12.2761 9.5 12.5 9.27614 12.5 9V3.01367Z" fill="black"/>
<path d="M3 12C3 12.1662 3.00576 12.3312 3.01465 12.4951H1.00488C0.728838 12.4951 0.504949 12.2712 0.504883 11.9951C0.504883 11.719 0.728797 11.4952 1.00488 11.4951H3.01465C3.00541 11.6622 3 11.8306 3 12Z" fill="black"/>
<path d="M23.0049 11.4951C23.281 11.4951 23.5049 11.719 23.5049 11.9951C23.5048 12.2712 23.281 12.4951 23.0049 12.4951H20.9854C20.9942 12.3312 21 12.1662 21 12C21 11.8306 20.9946 11.6622 20.9854 11.4951H23.0049Z" fill="black"/>
<path d="M12 0.5C12.2761 0.5 12.5 0.723858 12.5 1V3.01367C12.3345 3.00461 12.1678 3 12 3C11.8322 3 11.6655 3.00461 11.5 3.01367V1C11.5 0.723858 11.7239 0.5 12 0.5Z" fill="black"/>
</svg>
