<svg width="25" height="25" viewBox="0 0 25 25" fill="none" xmlns="http://www.w3.org/2000/svg">
<path fill-rule="evenodd" clip-rule="evenodd" d="M12.2451 0C12.9355 0 13.4951 0.559644 13.4951 1.25V3.33789C17.4637 3.88942 20.6026 7.02725 21.1562 10.9951H23.25C23.9404 10.9951 24.5 11.5548 24.5 12.2451C24.4999 12.9354 23.9403 13.4951 23.25 13.4951H21.1572C20.6073 17.4675 17.4668 20.6091 13.4951 21.1611V23.25C13.4951 23.9404 12.9355 24.5 12.2451 24.5C11.5548 24.5 10.9951 23.9404 10.9951 23.25V21.1611C7.02339 20.6091 3.8829 17.4675 3.33301 13.4951H1.25C0.559739 13.4951 6.40841e-05 12.9354 0 12.2451C3.01746e-08 11.5548 0.5597 10.9952 1.25 10.9951H3.33398C3.88766 7.02725 7.02657 3.88942 10.9951 3.33789V1.25C10.9951 0.559644 11.5548 0 12.2451 0ZM13.4951 9.25C13.4951 9.94036 12.9355 10.5 12.2451 10.5C11.5548 10.5 10.9951 9.94036 10.9951 9.25V5.87109C8.40962 6.37481 6.37284 8.41032 5.86719 10.9951H9.25C9.94036 10.9951 10.5 11.5548 10.5 12.2451C10.4999 12.9354 9.94032 13.4951 9.25 13.4951H5.86523C6.36764 16.0845 8.40645 18.1235 10.9951 18.6279V15.25C10.9951 14.5596 11.5548 14 12.2451 14C12.9355 14 13.4951 14.5596 13.4951 15.25V18.6279C16.0838 18.1235 18.1226 16.0845 18.625 13.4951H15.25C14.5597 13.4951 14.0001 12.9354 14 12.2451C14 11.5548 14.5597 10.9952 15.25 10.9951H18.623C18.1174 8.41032 16.0806 6.37481 13.4951 5.87109V9.25Z" fill="black"/>
</svg>
