<svg width="24" height="24" viewBox="0 0 24 24" fill="none" xmlns="http://www.w3.org/2000/svg">
<path fill-rule="evenodd" clip-rule="evenodd" d="M12 0.75C12.1381 0.75 12.25 0.861929 12.25 1V3.00586C17.0202 3.13597 20.8605 6.97551 20.9932 11.7451H23.0049C23.143 11.7451 23.2549 11.857 23.2549 11.9951C23.2548 12.1331 23.1429 12.2451 23.0049 12.2451H20.9941C20.8665 17.0192 17.0235 20.863 12.25 20.9932V23C12.25 23.1381 12.1381 23.25 12 23.25C11.862 23.25 11.75 23.1381 11.75 23V20.9932C6.97655 20.8629 3.13355 17.0192 3.00586 12.2451H1.00488C0.866905 12.2451 0.754946 12.1331 0.754883 11.9951C0.754883 11.8571 0.866866 11.7452 1.00488 11.7451H3.00684C3.13951 6.97554 6.9798 3.13602 11.75 3.00586V1C11.75 0.861946 11.862 0.750028 12 0.75ZM12.25 9C12.25 9.13807 12.1381 9.25 12 9.25C11.862 9.24997 11.75 9.13805 11.75 9V3.50586C7.25595 3.63572 3.63822 7.2517 3.50586 11.7451H9.00488C9.14295 11.7451 9.25488 11.857 9.25488 11.9951C9.25482 12.1331 9.14291 12.2451 9.00488 12.2451H3.50586C3.63326 16.743 7.25271 20.3632 11.75 20.4932V15C11.75 14.8619 11.862 14.75 12 14.75C12.1381 14.75 12.25 14.8619 12.25 15V20.4932C16.7473 20.3632 20.3667 16.7431 20.4941 12.2451H15.0049C14.8669 12.2451 14.7549 12.1331 14.7549 11.9951C14.7549 11.8571 14.8669 11.7452 15.0049 11.7451H20.4941C20.3618 7.25166 16.7441 3.63567 12.25 3.50586V9Z" fill="black"/>
</svg>
