<svg width="24" height="24" viewBox="0 0 24 24" fill="none" xmlns="http://www.w3.org/2000/svg">
<path fill-rule="evenodd" clip-rule="evenodd" d="M12 0.5C12.2761 0.5 12.5 0.723858 12.5 1V3.01367C17.0725 3.26405 20.7349 6.92755 20.9854 11.5H23C23.2761 11.5 23.5 11.7239 23.5 12C23.5 12.2761 23.2761 12.5 23 12.5H20.9854C20.7349 17.0724 17.0724 20.7349 12.5 20.9854V23C12.5 23.2761 12.2761 23.5 12 23.5C11.7239 23.5 11.5 23.2761 11.5 23V20.9854C6.92756 20.7349 3.26505 17.0724 3.01465 12.5H1C0.723858 12.5 0.5 12.2761 0.5 12C0.5 11.7239 0.723858 11.5 1 11.5H3.01465C3.26505 6.92755 6.92754 3.26405 11.5 3.01367V1C11.5 0.723858 11.7239 0.5 12 0.5ZM4.01758 12.5C4.26554 16.5199 7.4801 19.7345 11.5 19.9824V12.5H4.01758ZM12.5 19.9824C16.5199 19.7345 19.7345 16.5199 19.9824 12.5H12.5V19.9824ZM12.5 11.5H19.9824C19.7345 7.48008 16.5199 4.26454 12.5 4.0166V11.5ZM11.5 4.0166C7.48007 4.26454 4.26554 7.48008 4.01758 11.5H11.5V4.0166Z" fill="black"/>
</svg>
