<svg width="24" height="24" viewBox="0 0 24 24" fill="none" xmlns="http://www.w3.org/2000/svg">
<path fill-rule="evenodd" clip-rule="evenodd" d="M12 0.75C12.1381 0.75 12.25 0.861929 12.25 1V3.00586C17.0219 3.13604 20.864 6.97814 20.9941 11.75H23C23.1381 11.75 23.25 11.8619 23.25 12C23.25 12.1381 23.1381 12.25 23 12.25H20.9941C20.864 17.0219 17.0218 20.863 12.25 20.9932V23C12.25 23.1381 12.1381 23.25 12 23.25C11.8619 23.25 11.75 23.1381 11.75 23V20.9932C6.97815 20.863 3.13604 17.0219 3.00586 12.25H1C0.861929 12.25 0.75 12.1381 0.75 12C0.75 11.8619 0.861929 11.75 1 11.75H3.00586C3.13604 6.97814 6.97814 3.13604 11.75 3.00586V1C11.75 0.861929 11.8619 0.75 12 0.75ZM3.50586 12.25C3.63575 16.7457 7.25432 20.3633 11.75 20.4932V12.25H3.50586ZM12.25 20.4932C16.7457 20.3633 20.3643 16.7457 20.4941 12.25H12.25V20.4932ZM12.25 11.75H20.4941C20.3643 7.2543 16.7457 3.63575 12.25 3.50586V11.75ZM11.75 3.50586C7.2543 3.63575 3.63575 7.2543 3.50586 11.75H11.75V3.50586Z" fill="black"/>
</svg>
