<svg width="24" height="24" viewBox="0 0 24 24" fill="none" xmlns="http://www.w3.org/2000/svg">
<path fill-rule="evenodd" clip-rule="evenodd" d="M12 0.25C12.4142 0.25 12.75 0.585786 12.75 1V3.0332C17.1205 3.39386 20.6028 6.87524 20.9658 11.2451H23.0049C23.4191 11.2451 23.7549 11.5809 23.7549 11.9951C23.7548 12.4093 23.4191 12.7451 23.0049 12.7451H20.9668C20.6082 17.1196 17.1238 20.6049 12.75 20.9658V23C12.75 23.4142 12.4142 23.75 12 23.75C11.5858 23.75 11.25 23.4142 11.25 23V20.9658C6.87623 20.6049 3.39182 17.1196 3.0332 12.7451H1.00488C0.590765 12.7451 0.254947 12.4092 0.254883 11.9951C0.254883 11.5809 0.590726 11.2452 1.00488 11.2451H3.03418C3.39719 6.87524 6.87945 3.39386 11.25 3.0332V1C11.25 0.585786 11.5858 0.25 12 0.25ZM12.75 9C12.75 9.41421 12.4142 9.75 12 9.75C11.5858 9.75 11.25 9.41421 11.25 9V4.53711C7.70834 4.88875 4.89201 7.70413 4.53809 11.2451H9.00488C9.4191 11.2451 9.75488 11.5809 9.75488 11.9951C9.75482 12.4093 9.41906 12.7451 9.00488 12.7451H4.53711C4.88683 16.2907 7.70513 19.1099 11.25 19.4619V15C11.25 14.5858 11.5858 14.25 12 14.25C12.4142 14.25 12.75 14.5858 12.75 15V19.4619C16.2949 19.1099 19.1132 16.2907 19.4629 12.7451H15.0049C14.5908 12.7451 14.2549 12.4092 14.2549 11.9951C14.2549 11.5809 14.5907 11.2452 15.0049 11.2451H19.4619C19.108 7.70413 16.2917 4.88875 12.75 4.53711V9Z" fill="black"/>
</svg>
