<svg width="24" height="24" viewBox="0 0 24 24" fill="none" xmlns="http://www.w3.org/2000/svg">
<path fill-rule="evenodd" clip-rule="evenodd" d="M12 0.25C12.6904 0.25 13.25 0.809644 13.25 1.5V3.08789C17.2202 3.63965 20.3603 6.77981 20.9121 10.75H22.5C23.1904 10.75 23.75 11.3096 23.75 12C23.75 12.6904 23.1904 13.25 22.5 13.25H20.9121C20.3604 17.2201 17.2201 20.3593 13.25 20.9111V22.5C13.25 23.1904 12.6904 23.75 12 23.75C11.3096 23.75 10.75 23.1904 10.75 22.5V20.9111C6.77987 20.3593 3.63965 17.2201 3.08789 13.25H1.5C0.809644 13.25 0.25 12.6904 0.25 12C0.25 11.3096 0.809644 10.75 1.5 10.75H3.08789C3.63965 6.77981 6.77981 3.63965 10.75 3.08789V1.5C10.75 0.809644 11.3096 0.25 12 0.25ZM5.62109 13.25C6.12512 15.8371 8.16297 17.8738 10.75 18.3779V13.25H5.62109ZM13.25 18.3779C15.837 17.8738 17.8749 15.8371 18.3789 13.25H13.25V18.3779ZM13.25 10.75H18.3789C17.8749 8.16288 15.8371 6.12513 13.25 5.62109V10.75ZM10.75 5.62109C8.16288 6.12513 6.12513 8.16288 5.62109 10.75H10.75V5.62109Z" fill="black"/>
</svg>
