<svg width="24" height="24" viewBox="0 0 24 24" fill="none" xmlns="http://www.w3.org/2000/svg">
<path fill-rule="evenodd" clip-rule="evenodd" d="M9.25 3.49951C9.25 1.98073 10.4812 0.749512 12 0.749512C13.5188 0.749512 14.75 1.98073 14.75 3.49951V13.207C14.75 13.3902 14.7525 13.4286 14.7602 13.4545C14.7709 13.4911 14.7801 13.5088 14.8037 13.5388C14.8073 13.5434 14.8195 13.5568 14.8591 13.5877C14.8986 13.6184 14.9522 13.6565 15.0328 13.7136C16.3739 14.6643 17.25 16.2296 17.25 17.9995C17.25 20.899 14.8995 23.2495 12 23.2495C9.1005 23.2495 6.75 20.899 6.75 17.9995C6.75 16.2296 7.62611 14.6643 8.9672 13.7136C9.0478 13.6565 9.10144 13.6184 9.14093 13.5877C9.18053 13.5568 9.19266 13.5434 9.19628 13.5388C9.21988 13.5088 9.22907 13.4911 9.23983 13.4545C9.24746 13.4286 9.25 13.3902 9.25 13.207V3.49951ZM12 6.74951C12.1381 6.74951 12.25 6.86144 12.25 6.99951V17.2922C12.5413 17.3951 12.75 17.673 12.75 17.9995C12.75 18.4137 12.4142 18.7495 12 18.7495C11.5858 18.7495 11.25 18.4137 11.25 17.9995C11.25 17.673 11.4587 17.3951 11.75 17.2922V6.99951C11.75 6.86144 11.8619 6.74951 12 6.74951Z" fill="black"/>
</svg>
