<svg width="24" height="24" viewBox="0 0 24 24" fill="none" xmlns="http://www.w3.org/2000/svg">
<path d="M12 6.75C12.1381 6.75 12.25 6.86193 12.25 7V17.2927C12.5413 17.3956 12.75 17.6734 12.75 18C12.75 18.4142 12.4142 18.75 12 18.75C11.5858 18.75 11.25 18.4142 11.25 18C11.25 17.6734 11.4587 17.3956 11.75 17.2927V7C11.75 6.86193 11.8619 6.75 12 6.75Z" fill="black"/>
<path fill-rule="evenodd" clip-rule="evenodd" d="M12 0.75C10.4812 0.75 9.25 1.98122 9.25 3.5V13.2075C9.25 13.3906 9.24746 13.4291 9.23983 13.455C9.22907 13.4916 9.21988 13.5093 9.19628 13.5393C9.19266 13.5438 9.18053 13.5573 9.14093 13.5881C9.10144 13.6189 9.0478 13.657 8.9672 13.7141C7.62611 14.6647 6.75 16.2301 6.75 18C6.75 20.8995 9.1005 23.25 12 23.25C14.8995 23.25 17.25 20.8995 17.25 18C17.25 16.2301 16.3739 14.6647 15.0328 13.7141C14.9522 13.657 14.8986 13.6189 14.8591 13.5881C14.8195 13.5573 14.8073 13.5438 14.8037 13.5393C14.7801 13.5093 14.7709 13.4916 14.7602 13.455C14.7525 13.4291 14.75 13.3906 14.75 13.2075V3.5C14.75 1.98122 13.5188 0.75 12 0.75ZM9.75 3.5C9.75 2.25736 10.7574 1.25 12 1.25C13.2426 1.25 14.25 2.25736 14.25 3.5L14.25 13.2372C14.2498 13.3734 14.2497 13.4914 14.2805 13.5962C14.3093 13.694 14.348 13.7689 14.4112 13.8489C14.4522 13.9009 14.5017 13.9436 14.552 13.9827C14.6014 14.0212 14.6642 14.0657 14.739 14.1187L14.7437 14.122C15.9582 14.9829 16.75 16.399 16.75 18C16.75 20.6234 14.6234 22.75 12 22.75C9.37665 22.75 7.25 20.6234 7.25 18C7.25 16.399 8.04183 14.9829 9.25635 14.122L9.26097 14.1187C9.33577 14.0657 9.39864 14.0212 9.44801 13.9827C9.49829 13.9436 9.54783 13.9009 9.58884 13.8489C9.65196 13.7689 9.69071 13.694 9.71948 13.5962C9.75032 13.4914 9.75018 13.3734 9.75002 13.2372L9.75 3.5Z" fill="black"/>
</svg>
