<svg width="24" height="24" viewBox="0 0 24 24" fill="none" xmlns="http://www.w3.org/2000/svg">
<path d="M12.75 7C12.75 6.58579 12.4142 6.25 12 6.25C11.5858 6.25 11.25 6.58579 11.25 7V16.7007C10.8016 16.96 10.5 17.4448 10.5 18C10.5 18.8284 11.1716 19.5 12 19.5C12.8284 19.5 13.5 18.8284 13.5 18C13.5 17.4448 13.1983 16.96 12.75 16.7007V7Z" fill="black"/>
<path fill-rule="evenodd" clip-rule="evenodd" d="M8 4C8 1.79086 9.79086 9.65645e-08 12 0C14.2091 -9.65645e-08 16 1.79086 16 4V13.2004C16 13.3482 16.0002 13.4302 16.0025 13.4901L16.003 13.5011C16.0107 13.5099 16.0203 13.5208 16.0324 13.534C16.0936 13.6014 16.1807 13.6918 16.3179 13.834C17.3584 14.9122 18 16.3822 18 18C18 21.3137 15.3137 24 12 24C8.68629 24 6 21.3137 6 18C6 16.3822 6.6416 14.9122 7.6821 13.834C7.81934 13.6918 7.90637 13.6014 7.96759 13.534C7.97965 13.5208 7.98932 13.5099 7.99699 13.5011L7.99747 13.4901C7.99982 13.4302 8 13.3482 8 13.2004L8 4ZM12 2C10.8954 2 10 2.89543 10 4L10 13.2004L10.0001 13.2619C10.0007 13.4732 10.0014 13.73 9.94721 13.961C9.89552 14.1815 9.83407 14.3337 9.71817 14.5282C9.63369 14.67 9.52707 14.7918 9.44789 14.8789C9.36389 14.9714 9.2555 15.0837 9.13155 15.2121L9.12127 15.2228C8.42605 15.9432 8 16.9208 8 18C8 20.2091 9.79086 22 12 22C14.2091 22 16 20.2091 16 18C16 16.9208 15.5739 15.9432 14.8787 15.2228L14.8685 15.2122C14.7445 15.0837 14.6361 14.9714 14.5521 14.8789C14.4729 14.7918 14.3663 14.67 14.2818 14.5282C14.1659 14.3337 14.1045 14.1815 14.0528 13.961C13.9986 13.73 13.9993 13.4732 13.9999 13.2619L14 13.2004V4C14 2.89543 13.1046 2 12 2Z" fill="black"/>
<path d="M18.25 5.50026C18.25 5.08605 18.5858 4.75026 19 4.75026H22.5C22.9142 4.75026 23.25 5.08605 23.25 5.50026C23.25 5.91448 22.9142 6.25026 22.5 6.25026H19C18.5858 6.25026 18.25 5.91448 18.25 5.50026Z" fill="black"/>
<path d="M18.25 8.50027C18.25 8.08605 18.5858 7.75026 19 7.75026H21.5C21.9142 7.75026 22.25 8.08605 22.25 8.50027C22.25 8.91448 21.9142 9.25027 21.5 9.25027H19C18.5858 9.25027 18.25 8.91448 18.25 8.50027Z" fill="black"/>
</svg>
