<svg width="24" height="24" viewBox="0 0 24 24" fill="none" xmlns="http://www.w3.org/2000/svg">
<path d="M12 6.25C12.4142 6.25 12.75 6.58579 12.75 7V16.4184C13.3412 16.6993 13.75 17.3019 13.75 18C13.75 18.9665 12.9665 19.75 12 19.75C11.0335 19.75 10.25 18.9665 10.25 18C10.25 17.3019 10.6588 16.6993 11.25 16.4184V7C11.25 6.58579 11.5858 6.25 12 6.25Z" fill="black"/>
<path fill-rule="evenodd" clip-rule="evenodd" d="M12 0.25C9.92893 0.25 8.25 1.92893 8.25 4V13.2004C8.25 13.3462 8.24987 13.434 8.24728 13.4999C8.24562 13.5421 8.24333 13.5602 8.24274 13.5644C8.23824 13.5835 8.23534 13.594 8.23388 13.599C8.23172 13.6031 8.22731 13.6112 8.21926 13.6249C8.21897 13.6253 8.21854 13.6258 8.21796 13.6265C8.21259 13.6333 8.19442 13.6561 8.15263 13.7021C8.08828 13.773 7.99811 13.8665 7.862 14.0076C6.86466 15.0411 6.25 16.4495 6.25 18C6.25 21.1756 8.82436 23.75 12 23.75C15.1756 23.75 17.75 21.1756 17.75 18C17.75 16.4495 17.1353 15.0411 16.138 14.0076C16.0019 13.8665 15.9117 13.773 15.8474 13.7021C15.8056 13.6561 15.7874 13.6333 15.782 13.6265C15.7815 13.6258 15.781 13.6253 15.7807 13.6249C15.7727 13.6112 15.7683 13.6031 15.7661 13.599C15.7647 13.594 15.7618 13.5835 15.7573 13.5644C15.7567 13.5602 15.7544 13.5421 15.7527 13.4999C15.7501 13.434 15.75 13.3462 15.75 13.2004V4C15.75 1.92893 14.0711 0.25 12 0.25ZM9.75 4C9.75 2.75736 10.7574 1.75 12 1.75C13.2426 1.75 14.25 2.75736 14.25 4V13.2004L14.2499 13.2588C14.2495 13.4772 14.2492 13.7033 14.2962 13.904C14.342 14.0995 14.3938 14.2277 14.4966 14.4002C14.5674 14.519 14.6593 14.6251 14.7372 14.7108C14.8185 14.8004 14.9246 14.9103 15.0504 15.0406L15.0586 15.0492C15.797 15.8143 16.25 16.8535 16.25 18C16.25 20.3472 14.3472 22.25 12 22.25C9.65279 22.25 7.75 20.3472 7.75 18C7.75 16.8535 8.203 15.8143 8.94138 15.0492L8.94953 15.0407C9.07529 14.9104 9.18144 14.8004 9.26285 14.7108C9.34068 14.6251 9.43264 14.519 9.5034 14.4002C9.60618 14.2277 9.65797 14.0995 9.70381 13.904C9.75085 13.7033 9.75045 13.4772 9.75007 13.2588L9.75 13.2004V4Z" fill="black"/>
</svg>
