<svg width="24" height="24" viewBox="0 0 24 24" fill="none" xmlns="http://www.w3.org/2000/svg">
<path d="M12 6.5C12.2761 6.5 12.5 6.72386 12.5 7V17.1338C12.7989 17.3067 13 17.6299 13 18C13 18.5523 12.5523 19 12 19C11.4477 19 11 18.5523 11 18C11 17.6299 11.2011 17.3067 11.5 17.1338V7C11.5 6.72386 11.7239 6.5 12 6.5Z" fill="black"/>
<path fill-rule="evenodd" clip-rule="evenodd" d="M12 0.5C10.067 0.5 8.5 2.067 8.5 4V13.6C8.5 13.6768 8.49988 13.7177 8.49852 13.7476L8.49831 13.7517L8.49031 13.7595C8.46341 13.7852 8.4252 13.8191 8.35922 13.8775C7.21975 14.8845 6.5 16.3585 6.5 18C6.5 21.0376 8.96243 23.5 12 23.5C15.0376 23.5 17.5 21.0376 17.5 18C17.5 16.3585 16.7803 14.8845 15.6408 13.8775C15.5748 13.8191 15.5366 13.7852 15.5097 13.7595L15.5017 13.7517L15.5015 13.7476C15.5001 13.7177 15.5 13.6768 15.5 13.6V4C15.5 2.067 13.933 0.5 12 0.5ZM9.5 4C9.5 2.61929 10.6193 1.5 12 1.5C13.3807 1.5 14.5 2.61929 14.5 4V13.6L14.4999 13.6311C14.4996 13.7414 14.4992 13.8777 14.5321 14.0044C14.5619 14.1192 14.6044 14.2135 14.6707 14.3118C14.744 14.4207 14.856 14.5191 14.9502 14.6018L14.9786 14.6268C15.9124 15.452 16.5 16.6571 16.5 18C16.5 20.4853 14.4853 22.5 12 22.5C9.51472 22.5 7.5 20.4853 7.5 18C7.5 16.6571 8.08763 15.452 9.02143 14.6268L9.04981 14.6018C9.14397 14.5191 9.25598 14.4207 9.32931 14.3118C9.39556 14.2135 9.43809 14.1192 9.46789 14.0044C9.50079 13.8777 9.50039 13.7414 9.50006 13.6311L9.5 13.6V4Z" fill="black"/>
</svg>
