<svg width="24" height="24" viewBox="0 0 24 24" fill="none" xmlns="http://www.w3.org/2000/svg">
<path d="M12 6.25C12.4142 6.25 12.75 6.58579 12.75 7V16.7007C13.1984 16.96 13.5 17.4448 13.5 18C13.5 18.8284 12.8284 19.5 12 19.5C11.1716 19.5 10.5 18.8284 10.5 18C10.5 17.4448 10.8016 16.96 11.25 16.7007V7C11.25 6.58579 11.5858 6.25 12 6.25Z" fill="black"/>
<path fill-rule="evenodd" clip-rule="evenodd" d="M12 0C9.79086 0 8 1.79086 8 4V13.2004C8 13.3482 7.99982 13.4302 7.99747 13.4901L7.99699 13.5011C7.98932 13.5099 7.97965 13.5208 7.96759 13.534C7.90638 13.6014 7.81934 13.6918 7.6821 13.834C6.6416 14.9122 6 16.3822 6 18C6 21.3137 8.68629 24 12 24C15.3137 24 18 21.3137 18 18C18 16.3822 17.3584 14.9122 16.3179 13.834C16.1807 13.6918 16.0936 13.6014 16.0324 13.534C16.0203 13.5208 16.0107 13.5099 16.003 13.5011L16.0025 13.4901C16.0002 13.4302 16 13.3482 16 13.2004V4C16 1.79086 14.2091 0 12 0ZM10 4C10 2.89543 10.8954 2 12 2C13.1046 2 14 2.89543 14 4V13.2004L13.9999 13.2619C13.9993 13.4732 13.9986 13.73 14.0528 13.961C14.1045 14.1815 14.1659 14.3337 14.2818 14.5282C14.3663 14.67 14.4729 14.7918 14.5521 14.8789C14.6361 14.9714 14.7445 15.0837 14.8685 15.2122L14.8787 15.2228C15.5739 15.9432 16 16.9208 16 18C16 20.2091 14.2091 22 12 22C9.79086 22 8 20.2091 8 18C8 16.9208 8.42605 15.9432 9.12127 15.2228L9.13155 15.2121C9.2555 15.0837 9.36389 14.9714 9.44789 14.8789C9.52707 14.7918 9.63369 14.67 9.71817 14.5282C9.83407 14.3337 9.89552 14.1815 9.94721 13.961C10.0014 13.73 10.0007 13.4732 10.0001 13.2619L10 13.2004V4Z" fill="black"/>
</svg>
