<svg width="24" height="25" viewBox="0 0 24 25" fill="none" xmlns="http://www.w3.org/2000/svg">
<path d="M12.75 7.25C12.75 6.83579 12.4142 6.5 12 6.5C11.5858 6.5 11.25 6.83579 11.25 7.25V16.9507C10.8016 17.21 10.5 17.6948 10.5 18.25C10.5 19.0784 11.1716 19.75 12 19.75C12.8284 19.75 13.5 19.0784 13.5 18.25C13.5 17.6948 13.1983 17.21 12.75 16.9507V7.25Z" fill="black"/>
<path fill-rule="evenodd" clip-rule="evenodd" d="M7.75 4.25C7.75 1.90279 9.65279 1.026e-07 12 0C14.3472 -1.026e-07 16.25 1.90279 16.25 4.25V13.4504C16.25 13.5217 16.25 13.5778 16.2504 13.6263L16.2506 13.6519C16.3067 13.7122 16.3838 13.7922 16.4978 13.9104C17.5815 15.0333 18.25 16.5649 18.25 18.25C18.25 21.7018 15.4518 24.5 12 24.5C8.54822 24.5 5.75 21.7018 5.75 18.25C5.75 16.5649 6.41855 15.0333 7.50221 13.9104C7.61625 13.7922 7.6933 13.7122 7.74938 13.6519L7.74962 13.6263C7.74999 13.5778 7.75 13.5217 7.75 13.4504V4.25ZM12 2.5C11.0335 2.5 10.25 3.2835 10.25 4.25V13.4504L10.2502 13.5124C10.2509 13.7182 10.252 14.0063 10.1906 14.2681C10.1331 14.5135 10.062 14.6896 9.93294 14.9062C9.83474 15.071 9.71346 15.2084 9.63292 15.297C9.54633 15.3923 9.43561 15.5071 9.3133 15.6338L9.30117 15.6464C8.64911 16.3221 8.25 17.2381 8.25 18.25C8.25 20.3211 9.92893 22 12 22C14.0711 22 15.75 20.3211 15.75 18.25C15.75 17.2381 15.3509 16.3221 14.6988 15.6464L14.6867 15.6338C14.5644 15.5071 14.4537 15.3923 14.3671 15.297C14.2865 15.2084 14.1653 15.071 14.0671 14.9062C13.938 14.6896 13.8669 14.5135 13.8094 14.2681C13.748 14.0063 13.7491 13.7182 13.7498 13.5124L13.75 13.4504V4.25C13.75 3.2835 12.9665 2.5 12 2.5Z" fill="black"/>
<path d="M18.25 5.75026C18.25 5.33605 18.5858 5.00026 19 5.00026H22.5C22.9142 5.00026 23.25 5.33605 23.25 5.75026C23.25 6.16447 22.9142 6.50026 22.5 6.50026H19C18.5858 6.50026 18.25 6.16447 18.25 5.75026Z" fill="black"/>
<path d="M18.25 8.75026C18.25 8.33605 18.5858 8.00026 19 8.00026H21.5C21.9142 8.00026 22.25 8.33605 22.25 8.75026C22.25 9.16447 21.9142 9.50026 21.5 9.50026H19C18.5858 9.50026 18.25 9.16447 18.25 8.75026Z" fill="black"/>
</svg>
