<svg width="24" height="26" viewBox="0 0 24 26" fill="none" xmlns="http://www.w3.org/2000/svg">
<path d="M12.75 8C12.75 7.58579 12.4142 7.25 12 7.25C11.5858 7.25 11.25 7.58579 11.25 8V17.7007C10.8016 17.96 10.5 18.4448 10.5 19C10.5 19.8284 11.1716 20.5 12 20.5C12.8284 20.5 13.5 19.8284 13.5 19C13.5 18.4448 13.1983 17.96 12.75 17.7007V8Z" fill="black"/>
<path fill-rule="evenodd" clip-rule="evenodd" d="M7.75 5C7.75 2.65279 9.65279 0.75 12 0.75C14.3472 0.75 16.25 2.65279 16.25 5V14.2004C16.25 14.2717 16.25 14.3278 16.2504 14.3763L16.2506 14.4019C16.3067 14.4622 16.3838 14.5422 16.4978 14.6604C17.5815 15.7833 18.25 17.3149 18.25 19C18.25 22.4518 15.4518 25.25 12 25.25C8.54822 25.25 5.75 22.4518 5.75 19C5.75 17.3149 6.41855 15.7833 7.50221 14.6604C7.61625 14.5422 7.6933 14.4622 7.74938 14.4019L7.74962 14.3763C7.74999 14.3278 7.75 14.2717 7.75 14.2004V5ZM12 3.25C11.0335 3.25 10.25 4.0335 10.25 5V14.2004L10.2502 14.2624C10.2509 14.4682 10.252 14.7563 10.1906 15.0181C10.1331 15.2635 10.062 15.4396 9.93294 15.6562C9.83474 15.821 9.71346 15.9584 9.63292 16.047C9.54633 16.1423 9.43561 16.2571 9.3133 16.3838L9.30117 16.3964C8.64911 17.0721 8.25 17.9881 8.25 19C8.25 21.0711 9.92893 22.75 12 22.75C14.0711 22.75 15.75 21.0711 15.75 19C15.75 17.9881 15.3509 17.0721 14.6988 16.3964L14.6867 16.3838C14.5644 16.2571 14.4537 16.1423 14.3671 16.047C14.2865 15.9584 14.1653 15.821 14.0671 15.6562C13.938 15.4396 13.8669 15.2635 13.8094 15.0181C13.748 14.7563 13.7491 14.4682 13.7498 14.2624L13.75 14.2004V5C13.75 4.0335 12.9665 3.25 12 3.25Z" fill="black"/>
<path d="M18.25 6.50026C18.25 6.08605 18.5858 5.75026 19 5.75026H22.5C22.9142 5.75026 23.25 6.08605 23.25 6.50026C23.25 6.91447 22.9142 7.25026 22.5 7.25026H19C18.5858 7.25026 18.25 6.91447 18.25 6.50026Z" fill="black"/>
<path d="M18.25 9.50026C18.25 9.08605 18.5858 8.75026 19 8.75026H21.5C21.9142 8.75026 22.25 9.08605 22.25 9.50026C22.25 9.91447 21.9142 10.2503 21.5 10.2503H19C18.5858 10.2503 18.25 9.91447 18.25 9.50026Z" fill="black"/>
</svg>
