<svg width="24" height="24" viewBox="0 0 24 24" fill="none" xmlns="http://www.w3.org/2000/svg">
<path d="M12 6.49951C12.2761 6.49951 12.5 6.72337 12.5 6.99951V17.1333C12.7989 17.3062 13 17.6294 13 17.9995C13 18.5518 12.5523 18.9995 12 18.9995C11.4477 18.9995 11 18.5518 11 17.9995C11 17.6294 11.2011 17.3062 11.5 17.1333V6.99951C11.5 6.72337 11.7239 6.49951 12 6.49951Z" fill="black"/>
<path fill-rule="evenodd" clip-rule="evenodd" d="M12 0.499512C10.067 0.499512 8.5 2.06652 8.5 3.99951V13.5995C8.5 13.6763 8.49988 13.7173 8.49852 13.7471L8.49831 13.7512L8.49031 13.759C8.46341 13.7848 8.4252 13.8187 8.35922 13.877C7.21975 14.884 6.5 16.358 6.5 17.9995C6.5 21.0371 8.96243 23.4995 12 23.4995C15.0376 23.4995 17.5 21.0371 17.5 17.9995C17.5 16.358 16.7803 14.884 15.6408 13.877C15.5748 13.8187 15.5366 13.7848 15.5097 13.759L15.5017 13.7512L15.5015 13.7471C15.5001 13.7173 15.5 13.6763 15.5 13.5995V3.99951C15.5 2.06652 13.933 0.499512 12 0.499512ZM9.5 3.99951C9.5 2.6188 10.6193 1.49951 12 1.49951C13.3807 1.49951 14.5 2.6188 14.5 3.99951V13.5995L14.4999 13.6306C14.4996 13.7409 14.4992 13.8773 14.5321 14.0039C14.5619 14.1187 14.6044 14.213 14.6707 14.3113C14.744 14.4202 14.856 14.5186 14.9502 14.6013L14.9786 14.6263C15.9124 15.4515 16.5 16.6566 16.5 17.9995C16.5 20.4848 14.4853 22.4995 12 22.4995C9.51472 22.4995 7.5 20.4848 7.5 17.9995C7.5 16.6566 8.08763 15.4515 9.02143 14.6263L9.04981 14.6013C9.14397 14.5186 9.25598 14.4202 9.32931 14.3113C9.39556 14.213 9.43809 14.1187 9.46789 14.0039C9.50079 13.8773 9.50039 13.7409 9.50006 13.6306L9.5 13.5995V3.99951Z" fill="black"/>
</svg>
