<svg width="24" height="26" viewBox="0 0 24 26" fill="none" xmlns="http://www.w3.org/2000/svg">
<path d="M12 7.25C12.4142 7.25 12.75 7.58579 12.75 8V17.7007C13.1984 17.96 13.5 18.4448 13.5 19C13.5 19.8284 12.8284 20.5 12 20.5C11.1716 20.5 10.5 19.8284 10.5 19C10.5 18.4448 10.8016 17.96 11.25 17.7007V8C11.25 7.58579 11.5858 7.25 12 7.25Z" fill="black"/>
<path fill-rule="evenodd" clip-rule="evenodd" d="M12 0.75C9.65279 0.75 7.75 2.65279 7.75 5V14.2004C7.75 14.2717 7.74999 14.3278 7.74962 14.3763L7.74938 14.4019C7.6933 14.4622 7.61625 14.5422 7.50221 14.6604C6.41855 15.7833 5.75 17.3149 5.75 19C5.75 22.4518 8.54822 25.25 12 25.25C15.4518 25.25 18.25 22.4518 18.25 19C18.25 17.3149 17.5815 15.7833 16.4978 14.6604C16.3838 14.5422 16.3067 14.4622 16.2506 14.4019L16.2504 14.3763C16.25 14.3278 16.25 14.2717 16.25 14.2004V5C16.25 2.65279 14.3472 0.75 12 0.75ZM10.25 5C10.25 4.0335 11.0335 3.25 12 3.25C12.9665 3.25 13.75 4.0335 13.75 5V14.2004L13.7498 14.2624C13.7491 14.4682 13.748 14.7563 13.8094 15.0181C13.8669 15.2635 13.938 15.4396 14.0671 15.6562C14.1653 15.821 14.2865 15.9584 14.3671 16.047C14.4537 16.1423 14.5644 16.2571 14.6867 16.3838L14.6988 16.3964C15.3509 17.0721 15.75 17.9881 15.75 19C15.75 21.0711 14.0711 22.75 12 22.75C9.92893 22.75 8.25 21.0711 8.25 19C8.25 17.9881 8.64911 17.0721 9.30117 16.3964L9.3133 16.3838C9.43561 16.2571 9.54633 16.1423 9.63292 16.047C9.71346 15.9584 9.83474 15.821 9.93294 15.6562C10.062 15.4396 10.1331 15.2635 10.1906 15.0181C10.252 14.7563 10.2509 14.4682 10.2502 14.2624L10.25 14.2004V5Z" fill="black"/>
</svg>
