<svg width="24" height="24" viewBox="0 0 24 24" fill="none" xmlns="http://www.w3.org/2000/svg">
<path fill-rule="evenodd" clip-rule="evenodd" d="M12 0.5C10.067 0.5 8.5 2.067 8.5 4L8.5 13.6C8.5 13.6768 8.49988 13.7177 8.49851 13.7476L8.49831 13.7517L8.49031 13.7595C8.46341 13.7852 8.4252 13.8191 8.35922 13.8775C7.21975 14.8845 6.5 16.3585 6.5 18C6.5 21.0376 8.96243 23.5 12 23.5C15.0376 23.5 17.5 21.0376 17.5 18C17.5 16.3585 16.7803 14.8845 15.6408 13.8775C15.5748 13.8191 15.5366 13.7852 15.5097 13.7595L15.5017 13.7517L15.5015 13.7476C15.5001 13.7177 15.5 13.6768 15.5 13.6V4C15.5 2.067 13.933 0.5 12 0.5ZM12.5 7C12.5 6.72386 12.2761 6.5 12 6.5C11.7239 6.5 11.5 6.72386 11.5 7V17.1338C11.2011 17.3067 11 17.6299 11 18C11 18.5523 11.4477 19 12 19C12.5523 19 13 18.5523 13 18C13 17.6299 12.7989 17.3067 12.5 17.1338V7Z" fill="black"/>
<path d="M18.5 5.50028C18.5 5.22413 18.7239 5.00028 19 5.00028H22.5C22.7761 5.00028 23 5.22413 23 5.50028C23 5.77642 22.7761 6.00028 22.5 6.00028H19C18.7239 6.00028 18.5 5.77642 18.5 5.50028Z" fill="black"/>
<path d="M18.5 8.50028C18.5 8.22413 18.7239 8.00028 19 8.00028H21.5C21.7761 8.00028 22 8.22413 22 8.50028C22 8.77642 21.7761 9.00028 21.5 9.00028H19C18.7239 9.00028 18.5 8.77642 18.5 8.50028Z" fill="black"/>
</svg>
