<svg width="24" height="24" viewBox="0 0 24 24" fill="none" xmlns="http://www.w3.org/2000/svg">
<path fill-rule="evenodd" clip-rule="evenodd" d="M8.5 4C8.5 2.067 10.067 0.5 12 0.5C13.933 0.5 15.5 2.067 15.5 4V13.6C15.5 13.6768 15.5001 13.7177 15.5015 13.7476L15.5017 13.7517L15.5097 13.7595C15.5366 13.7852 15.5748 13.8191 15.6408 13.8775C16.7803 14.8845 17.5 16.3585 17.5 18C17.5 21.0376 15.0376 23.5 12 23.5C8.96243 23.5 6.5 21.0376 6.5 18C6.5 16.3585 7.21975 14.8845 8.35922 13.8775C8.4252 13.8191 8.46341 13.7852 8.49031 13.7595L8.49831 13.7517L8.49852 13.7476C8.49988 13.7177 8.5 13.6768 8.5 13.6V4ZM12 6.5C12.2761 6.5 12.5 6.72386 12.5 7V17.1338C12.7989 17.3067 13 17.6299 13 18C13 18.5523 12.5523 19 12 19C11.4477 19 11 18.5523 11 18C11 17.6299 11.2011 17.3067 11.5 17.1338V7C11.5 6.72386 11.7239 6.5 12 6.5Z" fill="black"/>
</svg>
