<svg width="24" height="24" viewBox="0 0 24 24" fill="none" xmlns="http://www.w3.org/2000/svg">
<path d="M12.5 7C12.5 6.72386 12.2761 6.5 12 6.5C11.7239 6.5 11.5 6.72386 11.5 7V17.1338C11.2011 17.3067 11 17.6299 11 18C11 18.5523 11.4477 19 12 19C12.5523 19 13 18.5523 13 18C13 17.6299 12.7989 17.3067 12.5 17.1338V7Z" fill="black"/>
<path fill-rule="evenodd" clip-rule="evenodd" d="M8.5 4C8.5 2.067 10.067 0.5 12 0.5C13.933 0.5 15.5 2.067 15.5 4V13.6C15.5 13.6768 15.5001 13.7177 15.5015 13.7476L15.5017 13.7517L15.5097 13.7595C15.5366 13.7852 15.5748 13.8191 15.6408 13.8775C16.7803 14.8845 17.5 16.3585 17.5 18C17.5 21.0376 15.0376 23.5 12 23.5C8.96243 23.5 6.5 21.0376 6.5 18C6.5 16.3585 7.21975 14.8845 8.35922 13.8775C8.4252 13.8191 8.46341 13.7852 8.49031 13.7595L8.49831 13.7517L8.49851 13.7476C8.49988 13.7177 8.5 13.6768 8.5 13.6L8.5 4ZM12 1.5C10.6193 1.5 9.5 2.61929 9.5 4L9.5 13.6L9.50006 13.6311C9.50039 13.7414 9.50079 13.8777 9.46789 14.0044C9.43808 14.1192 9.39556 14.2135 9.32931 14.3118C9.25598 14.4207 9.14397 14.5191 9.04981 14.6018L9.02143 14.6268C8.08763 15.452 7.5 16.6571 7.5 18C7.5 20.4853 9.51472 22.5 12 22.5C14.4853 22.5 16.5 20.4853 16.5 18C16.5 16.6571 15.9124 15.452 14.9786 14.6268L14.9502 14.6018C14.856 14.5191 14.744 14.4207 14.6707 14.3118C14.6044 14.2135 14.5619 14.1192 14.5321 14.0044C14.4992 13.8777 14.4996 13.7414 14.4999 13.6311L14.5 13.6V4C14.5 2.61929 13.3807 1.5 12 1.5Z" fill="black"/>
<path d="M18.5 5.50028C18.5 5.22413 18.7239 5.00028 19 5.00028H22.5C22.7761 5.00028 23 5.22413 23 5.50028C23 5.77642 22.7761 6.00028 22.5 6.00028H19C18.7239 6.00028 18.5 5.77642 18.5 5.50028Z" fill="black"/>
<path d="M18.5 8.50028C18.5 8.22413 18.7239 8.00028 19 8.00028H21.5C21.7761 8.00028 22 8.22413 22 8.50028C22 8.77642 21.7761 9.00028 21.5 9.00028H19C18.7239 9.00028 18.5 8.77642 18.5 8.50028Z" fill="black"/>
</svg>
