<svg width="24" height="24" viewBox="0 0 24 24" fill="none" xmlns="http://www.w3.org/2000/svg">
<path d="M12 6.74951C12.1381 6.74951 12.25 6.86144 12.25 6.99951V17.2922C12.5413 17.3951 12.75 17.673 12.75 17.9995C12.75 18.4137 12.4142 18.7495 12 18.7495C11.5858 18.7495 11.25 18.4137 11.25 17.9995C11.25 17.673 11.4587 17.3951 11.75 17.2922V6.99951C11.75 6.86144 11.8619 6.74951 12 6.74951Z" fill="black"/>
<path fill-rule="evenodd" clip-rule="evenodd" d="M12 0.749512C10.4812 0.749512 9.25 1.98073 9.25 3.49951V13.207C9.25 13.3902 9.24746 13.4286 9.23983 13.4545C9.22907 13.4911 9.21988 13.5088 9.19628 13.5388C9.19266 13.5434 9.18053 13.5568 9.14093 13.5877C9.10144 13.6184 9.0478 13.6565 8.9672 13.7136C7.62611 14.6643 6.75 16.2296 6.75 17.9995C6.75 20.899 9.1005 23.2495 12 23.2495C14.8995 23.2495 17.25 20.899 17.25 17.9995C17.25 16.2296 16.3739 14.6643 15.0328 13.7136C14.9522 13.6565 14.8986 13.6184 14.8591 13.5877C14.8195 13.5568 14.8073 13.5434 14.8037 13.5388C14.7801 13.5088 14.7709 13.4911 14.7602 13.4545C14.7525 13.4286 14.75 13.3902 14.75 13.207V3.49951C14.75 1.98073 13.5188 0.749512 12 0.749512ZM9.75 3.49951C9.75 2.25687 10.7574 1.24951 12 1.24951C13.2426 1.24951 14.25 2.25687 14.25 3.49951L14.25 13.2367C14.2498 13.3729 14.2497 13.4909 14.2805 13.5957C14.3093 13.6935 14.348 13.7684 14.4112 13.8484C14.4522 13.9004 14.5017 13.9431 14.552 13.9822C14.6014 14.0207 14.6642 14.0652 14.739 14.1182L14.7437 14.1215C15.9582 14.9824 16.75 16.3985 16.75 17.9995C16.75 20.6229 14.6234 22.7495 12 22.7495C9.37665 22.7495 7.25 20.6229 7.25 17.9995C7.25 16.3985 8.04183 14.9824 9.25635 14.1215L9.26097 14.1183C9.33577 14.0652 9.39864 14.0207 9.44801 13.9822C9.49829 13.9431 9.54783 13.9004 9.58884 13.8484C9.65196 13.7684 9.69071 13.6935 9.71948 13.5957C9.75032 13.4909 9.75018 13.3729 9.75002 13.2367L9.75 3.49951Z" fill="black"/>
</svg>
