<svg width="24" height="25" viewBox="0 0 24 25" fill="none" xmlns="http://www.w3.org/2000/svg">
<path fill-rule="evenodd" clip-rule="evenodd" d="M12 0C9.65279 1.026e-07 7.75 1.90279 7.75 4.25V13.4504C7.75 13.5217 7.74999 13.5778 7.74962 13.6263L7.74938 13.6519C7.6933 13.7122 7.61625 13.7922 7.50221 13.9104C6.41855 15.0333 5.75 16.5649 5.75 18.25C5.75 21.7018 8.54822 24.5 12 24.5C15.4518 24.5 18.25 21.7018 18.25 18.25C18.25 16.5649 17.5815 15.0333 16.4978 13.9104C16.3838 13.7922 16.3067 13.7122 16.2506 13.6519L16.2504 13.6263C16.25 13.5778 16.25 13.5217 16.25 13.4504V4.25C16.25 1.90279 14.3472 -1.026e-07 12 0ZM12.75 7.25C12.75 6.83579 12.4142 6.5 12 6.5C11.5858 6.5 11.25 6.83579 11.25 7.25V16.9507C10.8016 17.21 10.5 17.6948 10.5 18.25C10.5 19.0784 11.1716 19.75 12 19.75C12.8284 19.75 13.5 19.0784 13.5 18.25C13.5 17.6948 13.1983 17.21 12.75 16.9507V7.25Z" fill="black"/>
<path d="M18.25 5.75026C18.25 5.33605 18.5858 5.00026 19 5.00026H22.5C22.9142 5.00026 23.25 5.33605 23.25 5.75026C23.25 6.16447 22.9142 6.50026 22.5 6.50026H19C18.5858 6.50026 18.25 6.16447 18.25 5.75026Z" fill="black"/>
<path d="M18.25 8.75026C18.25 8.33605 18.5858 8.00026 19 8.00026H21.5C21.9142 8.00026 22.25 8.33605 22.25 8.75026C22.25 9.16447 21.9142 9.50026 21.5 9.50026H19C18.5858 9.50026 18.25 9.16447 18.25 8.75026Z" fill="black"/>
</svg>
