<svg width="24" height="24" viewBox="0 0 24 24" fill="none" xmlns="http://www.w3.org/2000/svg">
<path d="M12.75 6.99951C12.75 6.5853 12.4142 6.24951 12 6.24951C11.5858 6.24951 11.25 6.5853 11.25 6.99951L11.25 16.4179C10.6588 16.6988 10.25 17.3014 10.25 17.9995C10.25 18.966 11.0335 19.7495 12 19.7495C12.9665 19.7495 13.75 18.966 13.75 17.9995C13.75 17.3014 13.3412 16.6988 12.75 16.4179L12.75 6.99951Z" fill="black"/>
<path fill-rule="evenodd" clip-rule="evenodd" d="M8.25 3.99951C8.25 1.92844 9.92893 0.249512 12 0.249512C14.0711 0.249512 15.75 1.92844 15.75 3.99951V13.1999C15.75 13.3457 15.7501 13.4335 15.7527 13.4994C15.7544 13.5416 15.7567 13.5597 15.7573 13.5639C15.7618 13.583 15.7647 13.5935 15.7661 13.5985C15.7683 13.6026 15.7727 13.6107 15.7807 13.6244L15.782 13.6261C15.7874 13.6328 15.8056 13.6556 15.8474 13.7016C15.9117 13.7725 16.0019 13.866 16.138 14.0071C17.1353 15.0406 17.75 16.449 17.75 17.9995C17.75 21.1751 15.1756 23.7495 12 23.7495C8.82436 23.7495 6.25 21.1751 6.25 17.9995C6.25 16.449 6.86466 15.0406 7.862 14.0071C7.99811 13.866 8.08827 13.7725 8.15263 13.7016C8.19442 13.6557 8.21259 13.6328 8.21796 13.6261L8.21926 13.6244C8.2273 13.6107 8.23172 13.6026 8.23388 13.5985C8.23534 13.5935 8.23824 13.583 8.24274 13.5639C8.24333 13.5597 8.24562 13.5416 8.24728 13.4994C8.24986 13.4335 8.25 13.3457 8.25 13.1999L8.25 3.99951ZM12 1.74951C10.7574 1.74951 9.75 2.75687 9.75 3.99951L9.75 13.1999L9.75007 13.2583C9.75045 13.4767 9.75085 13.7028 9.7038 13.9035C9.65797 14.099 9.60618 14.2272 9.5034 14.3998C9.43264 14.5185 9.34068 14.6246 9.26285 14.7103C9.18144 14.7999 9.07535 14.9099 8.94959 15.0402L8.94138 15.0487C8.203 15.8138 7.75 16.853 7.75 17.9995C7.75 20.3467 9.65279 22.2495 12 22.2495C14.3472 22.2495 16.25 20.3467 16.25 17.9995C16.25 16.853 15.797 15.8138 15.0586 15.0487L15.0505 15.0403C14.9248 14.91 14.8185 14.7999 14.7371 14.7103C14.6593 14.6246 14.5674 14.5185 14.4966 14.3998C14.3938 14.2272 14.342 14.099 14.2962 13.9035C14.2492 13.7028 14.2495 13.4767 14.2499 13.2583L14.25 13.1999V3.99951C14.25 2.75687 13.2426 1.74951 12 1.74951Z" fill="black"/>
<path d="M18.25 5.49978C18.25 5.08557 18.5858 4.74978 19 4.74978H22.5C22.9142 4.74978 23.25 5.08557 23.25 5.49978C23.25 5.914 22.9142 6.24978 22.5 6.24978H19C18.5858 6.24978 18.25 5.914 18.25 5.49978Z" fill="black"/>
<path d="M18.25 8.49978C18.25 8.08557 18.5858 7.74978 19 7.74978H21.5C21.9142 7.74978 22.25 8.08557 22.25 8.49978C22.25 8.914 21.9142 9.24978 21.5 9.24978H19C18.5858 9.24978 18.25 8.914 18.25 8.49978Z" fill="black"/>
</svg>
