<svg width="24" height="24" viewBox="0 0 24 24" fill="none" xmlns="http://www.w3.org/2000/svg">
<path fill-rule="evenodd" clip-rule="evenodd" d="M12 0.749512C10.4812 0.749512 9.25 1.98073 9.25 3.49951L9.25 13.207C9.25 13.3902 9.24746 13.4286 9.23983 13.4545C9.22907 13.4911 9.21988 13.5088 9.19628 13.5388C9.19266 13.5434 9.18053 13.5568 9.14093 13.5877C9.10144 13.6184 9.0478 13.6565 8.9672 13.7136C7.62611 14.6643 6.75 16.2296 6.75 17.9995C6.75 20.899 9.1005 23.2495 12 23.2495C14.8995 23.2495 17.25 20.899 17.25 17.9995C17.25 16.2296 16.3739 14.6643 15.0328 13.7136C14.9522 13.6565 14.8986 13.6184 14.8591 13.5877C14.8195 13.5568 14.8073 13.5434 14.8037 13.5388C14.7801 13.5088 14.7709 13.4911 14.7602 13.4545C14.7525 13.4286 14.75 13.3902 14.75 13.207V3.49951C14.75 1.98073 13.5188 0.749512 12 0.749512ZM12.25 6.99951C12.25 6.86144 12.1381 6.74951 12 6.74951C11.8619 6.74951 11.75 6.86144 11.75 6.99951V17.2922C11.4587 17.3951 11.25 17.673 11.25 17.9995C11.25 18.4137 11.5858 18.7495 12 18.7495C12.4142 18.7495 12.75 18.4137 12.75 17.9995C12.75 17.673 12.5413 17.3951 12.25 17.2922V6.99951Z" fill="black"/>
<path d="M17.75 5.49979C17.75 5.36172 17.8619 5.24979 18 5.24979H22.5C22.6381 5.24979 22.75 5.36172 22.75 5.49979C22.75 5.63786 22.6381 5.74979 22.5 5.74979H18C17.8619 5.74979 17.75 5.63786 17.75 5.49979Z" fill="black"/>
<path d="M17.75 8.49979C17.75 8.36172 17.8619 8.24979 18 8.24979H21.5C21.6381 8.24979 21.75 8.36172 21.75 8.49979C21.75 8.63786 21.6381 8.74979 21.5 8.74979H18C17.8619 8.74979 17.75 8.63786 17.75 8.49979Z" fill="black"/>
</svg>
