<svg width="24" height="24" viewBox="0 0 24 24" fill="none" xmlns="http://www.w3.org/2000/svg">
<path d="M12.25 6.99951C12.25 6.86144 12.1381 6.74951 12 6.74951C11.8619 6.74951 11.75 6.86144 11.75 6.99951V17.2922C11.4587 17.3951 11.25 17.673 11.25 17.9995C11.25 18.4137 11.5858 18.7495 12 18.7495C12.4142 18.7495 12.75 18.4137 12.75 17.9995C12.75 17.673 12.5413 17.3951 12.25 17.2922V6.99951Z" fill="black"/>
<path fill-rule="evenodd" clip-rule="evenodd" d="M9.25 3.49951C9.25 1.98073 10.4812 0.749512 12 0.749512C13.5188 0.749512 14.75 1.98073 14.75 3.49951V13.207C14.75 13.3902 14.7525 13.4286 14.7602 13.4545C14.7709 13.4911 14.7801 13.5088 14.8037 13.5388C14.8073 13.5434 14.8195 13.5568 14.8591 13.5877C14.8986 13.6184 14.9522 13.6565 15.0328 13.7136C16.3739 14.6643 17.25 16.2296 17.25 17.9995C17.25 20.899 14.8995 23.2495 12 23.2495C9.1005 23.2495 6.75 20.899 6.75 17.9995C6.75 16.2296 7.62611 14.6643 8.9672 13.7136C9.0478 13.6565 9.10144 13.6184 9.14093 13.5877C9.18053 13.5568 9.19266 13.5434 9.19628 13.5388C9.21988 13.5088 9.22907 13.4911 9.23983 13.4545C9.24746 13.4286 9.25 13.3902 9.25 13.207L9.25 3.49951ZM12 1.24951C10.7574 1.24951 9.75 2.25687 9.75 3.49951L9.75002 13.2367C9.75018 13.3729 9.75032 13.4909 9.71948 13.5957C9.69071 13.6935 9.65196 13.7684 9.58884 13.8484C9.54783 13.9004 9.49829 13.9431 9.44801 13.9822C9.39864 14.0207 9.33577 14.0652 9.26097 14.1183L9.25635 14.1215C8.04183 14.9824 7.25 16.3985 7.25 17.9995C7.25 20.6229 9.37665 22.7495 12 22.7495C14.6234 22.7495 16.75 20.6229 16.75 17.9995C16.75 16.3985 15.9582 14.9824 14.7437 14.1215L14.739 14.1183C14.6643 14.0653 14.6013 14.0206 14.552 13.9822C14.5017 13.9431 14.4522 13.9004 14.4112 13.8484C14.348 13.7684 14.3093 13.6935 14.2805 13.5957C14.2497 13.4909 14.2498 13.3729 14.25 13.2367L14.25 3.49951C14.25 2.25687 13.2426 1.24951 12 1.24951Z" fill="black"/>
<path d="M17.75 5.49979C17.75 5.36172 17.8619 5.24979 18 5.24979H22.5C22.6381 5.24979 22.75 5.36172 22.75 5.49979C22.75 5.63786 22.6381 5.74979 22.5 5.74979H18C17.8619 5.74979 17.75 5.63786 17.75 5.49979Z" fill="black"/>
<path d="M17.75 8.49979C17.75 8.36172 17.8619 8.24979 18 8.24979H21.5C21.6381 8.24979 21.75 8.36172 21.75 8.49979C21.75 8.63786 21.6381 8.74979 21.5 8.74979H18C17.8619 8.74979 17.75 8.63786 17.75 8.49979Z" fill="black"/>
</svg>
