<svg width="24" height="24" viewBox="0 0 24 24" fill="none" xmlns="http://www.w3.org/2000/svg">
<path d="M12.25 7C12.25 6.86193 12.1381 6.75 12 6.75C11.8619 6.75 11.75 6.86193 11.75 7V17.2927C11.4587 17.3956 11.25 17.6734 11.25 18C11.25 18.4142 11.5858 18.75 12 18.75C12.4142 18.75 12.75 18.4142 12.75 18C12.75 17.6734 12.5413 17.3956 12.25 17.2927V7Z" fill="black"/>
<path fill-rule="evenodd" clip-rule="evenodd" d="M9.25 3.5C9.25 1.98122 10.4812 0.75 12 0.75C13.5188 0.75 14.75 1.98122 14.75 3.5V13.2075C14.75 13.3906 14.7525 13.4291 14.7602 13.455C14.7709 13.4916 14.7801 13.5093 14.8037 13.5393C14.8073 13.5438 14.8195 13.5573 14.8591 13.5881C14.8986 13.6189 14.9522 13.657 15.0328 13.7141C16.3739 14.6647 17.25 16.2301 17.25 18C17.25 20.8995 14.8995 23.25 12 23.25C9.1005 23.25 6.75 20.8995 6.75 18C6.75 16.2301 7.62611 14.6647 8.9672 13.7141C9.0478 13.657 9.10144 13.6189 9.14093 13.5881C9.18053 13.5573 9.19266 13.5438 9.19628 13.5393C9.21988 13.5093 9.22907 13.4916 9.23983 13.455C9.24746 13.4291 9.25 13.3906 9.25 13.2075L9.25 3.5ZM12 1.25C10.7574 1.25 9.75 2.25736 9.75 3.5L9.75002 13.2372C9.75018 13.3734 9.75032 13.4914 9.71948 13.5962C9.69071 13.694 9.65196 13.7689 9.58884 13.8489C9.54783 13.9009 9.49829 13.9436 9.44801 13.9827C9.39864 14.0212 9.33577 14.0657 9.26097 14.1187L9.25635 14.122C8.04183 14.9829 7.25 16.399 7.25 18C7.25 20.6234 9.37665 22.75 12 22.75C14.6234 22.75 16.75 20.6234 16.75 18C16.75 16.399 15.9582 14.9829 14.7437 14.122L14.739 14.1187C14.6643 14.0658 14.6013 14.0211 14.552 13.9827C14.5017 13.9436 14.4522 13.9009 14.4112 13.8489C14.348 13.7689 14.3093 13.694 14.2805 13.5962C14.2497 13.4914 14.2498 13.3734 14.25 13.2372L14.25 3.5C14.25 2.25736 13.2426 1.25 12 1.25Z" fill="black"/>
<path d="M17.75 5.50028C17.75 5.36221 17.8619 5.25028 18 5.25028H22.5C22.6381 5.25028 22.75 5.36221 22.75 5.50028C22.75 5.63835 22.6381 5.75028 22.5 5.75028H18C17.8619 5.75028 17.75 5.63835 17.75 5.50028Z" fill="black"/>
<path d="M17.75 8.50028C17.75 8.36221 17.8619 8.25028 18 8.25028H21.5C21.6381 8.25028 21.75 8.36221 21.75 8.50028C21.75 8.63835 21.6381 8.75028 21.5 8.75028H18C17.8619 8.75028 17.75 8.63835 17.75 8.50028Z" fill="black"/>
</svg>
