<svg width="24" height="24" viewBox="0 0 24 24" fill="none" xmlns="http://www.w3.org/2000/svg">
<path fill-rule="evenodd" clip-rule="evenodd" d="M9.25 3.5C9.25 1.98122 10.4812 0.75 12 0.75C13.5188 0.75 14.75 1.98122 14.75 3.5V13.2075C14.75 13.3906 14.7525 13.4291 14.7602 13.455C14.7709 13.4916 14.7801 13.5093 14.8037 13.5393C14.8073 13.5438 14.8195 13.5573 14.8591 13.5881C14.8986 13.6189 14.9522 13.657 15.0328 13.7141C16.3739 14.6647 17.25 16.2301 17.25 18C17.25 20.8995 14.8995 23.25 12 23.25C9.1005 23.25 6.75 20.8995 6.75 18C6.75 16.2301 7.62611 14.6647 8.9672 13.7141C9.0478 13.657 9.10144 13.6189 9.14093 13.5881C9.18053 13.5573 9.19266 13.5438 9.19628 13.5393C9.21988 13.5093 9.22907 13.4916 9.23983 13.455C9.24746 13.4291 9.25 13.3906 9.25 13.2075V3.5ZM12 6.75C12.1381 6.75 12.25 6.86193 12.25 7V17.2927C12.5413 17.3956 12.75 17.6734 12.75 18C12.75 18.4142 12.4142 18.75 12 18.75C11.5858 18.75 11.25 18.4142 11.25 18C11.25 17.6734 11.4587 17.3956 11.75 17.2927V7C11.75 6.86193 11.8619 6.75 12 6.75Z" fill="black"/>
</svg>
