<svg width="24" height="24" viewBox="0 0 24 24" fill="none" xmlns="http://www.w3.org/2000/svg">
<path fill-rule="evenodd" clip-rule="evenodd" d="M24 12C24 12.9745 23.8838 13.922 23.6646 14.8291C23.4528 15.7053 23.1449 16.5439 22.7527 17.3332C22.0164 18.8149 20.9828 20.1229 19.7299 21.179C17.6418 22.9393 14.9448 24 12 24C5.37258 24 2.89694e-07 18.6274 0 12C-1.1883e-07 9.28148 0.903983 6.7741 2.42775 4.76205C4.61873 1.86897 8.0911 1.70863e-07 12 0C13.2035 -5.26051e-08 14.3656 0.177158 15.4616 0.506819C20.4015 1.99258 24 6.57605 24 12ZM15.2782 1.49675C14.2428 1.17393 13.1417 1 12 1C8.8137 1 5.94383 2.35473 3.93494 4.51963C8.52388 3.98016 12.4902 7.84343 12 12.5L10.6351 19.3245C10.5455 19.7727 10.5178 20.2311 10.5528 20.6868L10.6416 21.8403C10.6715 22.2291 10.7553 22.5991 10.8848 22.9442C11.2515 22.9811 11.6236 23 12 23C17.608 23 22.2358 18.8034 22.9144 13.3793C22.1051 11.9745 21.0392 10.7313 19.7697 9.71576L18.0988 8.37902C15.9534 6.66274 14.9792 4.032 15.2782 1.49675Z" fill="black"/>
</svg>
