<svg width="24" height="24" viewBox="0 0 24 24" fill="none" xmlns="http://www.w3.org/2000/svg">
<path fill-rule="evenodd" clip-rule="evenodd" d="M23.741 14.4916C23.6907 14.7296 23.6334 14.965 23.5693 15.1976C22.1697 20.2727 17.5201 24 12 24C5.37258 24 2.89694e-07 18.6274 0 12C-1.1321e-07 9.41006 0.820495 7.01175 2.21573 5.05083C2.35657 4.85288 2.50324 4.6594 2.65554 4.47063C4.85526 1.74408 8.22397 1.65056e-07 12 0C13.1159 -4.87769e-08 14.1962 0.152313 15.2213 0.437281C15.2213 0.43729 15.2213 0.437271 15.2213 0.437281C15.3825 0.48209 15.5423 0.530149 15.7007 0.581442C15.7007 0.581432 15.7007 0.581451 15.7007 0.581442C20.5171 2.1413 24 6.66393 24 12C24 12.8543 23.9107 13.6878 23.741 14.4916ZM23.2253 14.5097C22.0803 19.654 17.4893 23.5 12 23.5C11.6734 23.5 11.35 23.4864 11.0304 23.4597C10.9067 20.8671 11.1014 18.2678 11.6109 15.7204L12.2451 12.549L12 12.5L12.2486 12.5262C12.7688 7.58476 8.43749 3.50697 3.53638 4.32382L3.41932 4.34333C5.52532 1.98482 8.58926 0.5 12 0.5C13.0787 0.5 14.1227 0.648521 15.1127 0.926233C14.5879 3.7053 15.5741 6.67944 17.9426 8.57424L19.6135 9.91098C21.0546 11.0639 22.2284 12.5158 23.0537 14.1664L23.2253 14.5097ZM15.5942 1.07282C20.1852 2.58203 23.5 6.90391 23.5 12C23.5 12.577 23.4575 13.1441 23.3755 13.6983C22.526 12.0839 21.3519 10.6614 19.9259 9.52054L18.255 8.18381C16.0514 6.42095 15.1251 3.66078 15.5942 1.07282ZM2.92763 4.93218C1.40637 6.88212 0.5 9.33521 0.5 12C0.5 17.8523 4.87156 22.6836 10.5274 23.4066C10.4092 20.7986 10.6081 18.1847 11.1206 15.6223L11.7526 12.4624C12.2303 7.85479 8.18995 4.05512 3.61858 4.81702L2.92763 4.93218Z" fill="black"/>
</svg>
