<svg width="24" height="24" viewBox="0 0 24 24" fill="none" xmlns="http://www.w3.org/2000/svg">
<path fill-rule="evenodd" clip-rule="evenodd" d="M24 12C24 12.9745 23.8838 13.922 23.6646 14.8291C23.4528 15.7053 23.1449 16.5439 22.7527 17.3332C22.0164 18.8149 20.9828 20.1229 19.7299 21.179C17.6418 22.9393 14.9448 24 12 24C5.37258 24 2.89694e-07 18.6274 0 12C-1.1883e-07 9.28148 0.903983 6.7741 2.42775 4.76205C4.61873 1.86897 8.0911 1.70863e-07 12 0C13.2035 -5.26051e-08 14.3656 0.177158 15.4616 0.506819C20.4015 1.99258 24 6.57605 24 12ZM15.2551 3.07231C14.2397 2.70202 13.1435 2.5 12 2.5C9.75417 2.5 7.69035 3.2793 6.06422 4.58225C9.67401 5.23059 12.4121 8.5849 12 12.5L10.6351 19.3245C10.5455 19.7727 10.5178 20.2311 10.5528 20.6868L10.6076 21.3987C11.0621 21.4654 11.527 21.5 12 21.5C17.2467 21.5 21.5 17.2467 21.5 12C21.5 11.7849 21.4929 11.5715 21.4788 11.36C20.9618 10.7627 20.3901 10.212 19.7697 9.71576L18.0988 8.37902C16.3969 7.01752 15.432 5.08056 15.2551 3.07231Z" fill="black"/>
</svg>
