<svg width="24" height="24" viewBox="0 0 24 24" fill="none" xmlns="http://www.w3.org/2000/svg">
<path fill-rule="evenodd" clip-rule="evenodd" d="M16.4104 0.836435C20.8556 2.59404 24 6.92981 24 12C24 12.3949 23.9809 12.7854 23.9436 13.1706C23.9418 13.1894 23.94 13.2082 23.938 13.2269C23.8323 14.2678 23.5936 15.2693 23.2391 16.2143C21.5328 20.7628 17.1444 24 12 24C5.37258 24 0 18.6274 0 12C0 9.77432 0.605926 7.69017 1.66182 5.90349C2.16287 5.05565 2.76524 4.27479 3.45228 3.57759C3.45227 3.57759 3.45229 3.57759 3.45228 3.57759C5.6286 1.3691 8.65443 1.46239e-07 12 0C12.8546 -3.73575e-08 13.6884 0.0893439 14.4925 0.259199C14.4925 0.259209 14.4925 0.259189 14.4925 0.259199C15.1535 0.398834 15.7944 0.592882 16.4104 0.836435C16.4104 0.836426 16.4104 0.836445 16.4104 0.836435ZM21.4533 12.948C20.9776 17.7496 16.9268 21.5 12 21.5C11.9156 21.5 11.8315 21.4989 11.7476 21.4967C11.775 19.6079 11.9751 17.7236 12.3463 15.8675L12.9806 12.6961L12 12.5L12.9945 12.6047C13.4274 8.4918 10.8043 4.92294 7.1664 3.81986C8.58245 2.98132 10.235 2.5 12 2.5C12.7691 2.5 13.5169 2.5914 14.2331 2.76394C14.3352 5.17417 15.4382 7.53121 17.4741 9.15989L19.145 10.4966C20.0281 11.2031 20.8046 12.0289 21.4533 12.948ZM21.203 9.63404C20.9429 9.3912 20.6732 9.15795 20.3944 8.93489L18.7235 7.59816C17.4011 6.54027 16.5906 5.08276 16.3234 3.53854C18.7162 4.76361 20.5211 6.97383 21.203 9.63404ZM5.0935 5.47691C3.48574 7.17857 2.5 9.47417 2.5 12C2.5 16.4722 5.59032 20.2227 9.75205 21.2325C9.79389 19.3006 10.0054 17.3741 10.3851 15.4752L11.01 12.3509C11.3678 8.71251 8.57289 5.64659 5.0935 5.47691Z" fill="black"/>
</svg>
