<svg width="24" height="24" viewBox="0 0 24 24" fill="none" xmlns="http://www.w3.org/2000/svg">
<path fill-rule="evenodd" clip-rule="evenodd" d="M23.8929 13.61C23.8899 13.6328 23.8868 13.6555 23.8836 13.6782C23.7769 14.4404 23.5987 15.1795 23.3559 15.8888C21.7403 20.6076 17.2663 24 12 24C5.37258 24 2.89694e-07 18.6274 0 12C-1.02454e-07 9.65612 0.671993 7.46919 1.83383 5.62137C2.22464 4.99981 2.67085 4.41662 3.16558 3.87872C5.35874 1.49423 8.50489 1.52776e-07 12 0C12.9415 -4.11542e-08 13.8577 0.108427 14.7367 0.313473C14.7367 0.313484 14.7367 0.313461 14.7367 0.313473C15.2285 0.428177 15.7086 0.573088 16.175 0.746197C16.175 0.746187 16.175 0.746206 16.175 0.746197C20.7441 2.44194 24 6.84076 24 12C24 12.546 23.9635 13.0834 23.8929 13.61ZM22.3332 13.8745C21.4493 18.7791 17.1592 22.5 12 22.5C11.832 22.5 11.665 22.4961 11.499 22.4883C11.4603 20.2516 11.6618 18.0155 12.1012 15.8184L12.7354 12.6471L12 12.5L12.7459 12.5785C13.2266 8.01171 9.82198 4.13655 5.50344 3.75052C7.29075 2.34106 9.54715 1.5 12 1.5C12.8602 1.5 13.6963 1.60345 14.4965 1.79858C14.3078 4.45929 15.3847 7.16822 17.6303 8.96468L19.3012 10.3014C20.5337 11.2874 21.5627 12.5011 22.3332 13.8745ZM15.9764 2.27907C19.6285 3.77455 22.2507 7.26832 22.4832 11.4007C21.8275 10.5617 21.0746 9.7992 20.2382 9.13011L18.5673 7.79337C16.8273 6.40139 15.9414 4.34256 15.9764 2.27907ZM3.93564 5.2753C2.41501 7.09689 1.5 9.44159 1.5 12C1.5 17.1138 5.1557 21.3737 9.99631 22.309C9.97116 20.0335 10.1832 17.7596 10.6303 15.5243L11.2576 12.3879C11.6775 8.19793 8.07612 4.73429 3.93564 5.2753Z" fill="black"/>
</svg>
