<svg width="24" height="24" viewBox="0 0 24 24" fill="none" xmlns="http://www.w3.org/2000/svg">
<path fill-rule="evenodd" clip-rule="evenodd" d="M23.8126 14.1242C23.7257 14.6103 23.6096 15.0863 23.4661 15.5503C21.9524 20.4445 17.3914 24 12 24C5.37258 24 2.89694e-07 18.6274 0 12C-1.07757e-07 9.53481 0.743355 7.24323 2.01814 5.3372C2.28905 4.93214 2.58394 4.5445 2.90081 4.1763C5.10149 1.6192 8.36167 1.59037e-07 12 0C13.0286 -4.49603e-08 14.0269 0.12941 14.9796 0.372833C14.9796 0.372843 14.9796 0.372824 14.9796 0.372833C15.3048 0.455902 15.6246 0.552217 15.9385 0.661228C15.9385 0.661218 15.9384 0.661238 15.9385 0.661228C20.6313 2.29107 24 6.75215 24 12C24 12.7249 23.9357 13.4347 23.8126 14.1242ZM22.783 14.185C21.7696 19.2134 17.327 23 12 23C11.7517 23 11.5053 22.9918 11.2611 22.9756C11.1822 20.5602 11.3815 18.1422 11.856 15.7694L12.4903 12.5981L12 12.5L12.4973 12.5523C12.9997 7.77917 9.12112 3.78589 4.47614 3.97552C6.44351 2.13015 9.08977 1 12 1C12.9645 1 13.9 1.12414 14.7915 1.35731C14.4426 4.0828 15.4783 6.92294 17.7864 8.76946L19.4574 10.1062C20.843 11.2147 21.9765 12.6052 22.783 14.185ZM15.7632 1.66054C19.9851 3.19751 23 7.24667 23 12C23 12.1808 22.9956 12.3605 22.987 12.5392C22.1997 11.3213 21.2195 10.2353 20.082 9.32533L18.4111 7.98859C16.4354 6.40802 15.5224 3.9977 15.7632 1.66054ZM3.43137 5.10167C1.91047 6.98843 1 9.38789 1 12C1 17.4821 5.01026 22.0275 10.2572 22.8627C10.1883 20.4191 10.3953 17.9737 10.8754 15.5733L11.5051 12.425C11.9578 7.98678 8.06435 4.3295 3.65968 5.06361L3.43137 5.10167Z" fill="black"/>
</svg>
