<svg width="24" height="24" viewBox="0 0 24 24" fill="none" xmlns="http://www.w3.org/2000/svg">
<path fill-rule="evenodd" clip-rule="evenodd" d="M23.9202 13.3914C23.9149 13.4371 23.9094 13.4828 23.9036 13.5284C23.7924 14.4028 23.5872 15.2479 23.2983 16.0531C21.636 20.6861 17.205 24 12 24C5.37258 24 2.89694e-07 18.6274 0 12C-9.98546e-08 9.71559 0.638325 7.58027 1.74634 5.76268C2.19346 5.02921 2.71704 4.34749 3.30605 3.72859C5.49201 1.43168 8.57883 1.49544e-07 12 0C12.898 -3.92547e-08 13.773 0.098648 14.6148 0.2857C14.6148 0.285709 14.6148 0.28569 14.6148 0.2857C15.1908 0.413713 15.7513 0.583101 16.2929 0.790642C16.2929 0.790632 16.2929 0.790651 16.2929 0.790642C20.8 2.51782 24 6.88522 24 12C24 12.4706 23.9729 12.9349 23.9202 13.3914ZM21.9032 13.3967C21.2238 18.2584 17.0488 22 12 22C11.8725 22 11.7456 21.9976 11.6193 21.9929C11.6163 19.9299 11.8184 17.8697 12.2237 15.843L12.858 12.6716L12 12.5L12.8702 12.5916C13.3268 8.25352 10.3314 4.52996 6.35325 3.74571C7.9601 2.64436 9.9048 2 12 2C12.8098 2 13.5971 2.09625 14.3511 2.27795C14.3162 4.81777 15.4105 7.34895 17.5522 9.06229L19.2231 10.399C20.2792 11.2439 21.1844 12.2577 21.9032 13.3967ZM16.1178 2.88449C19.1519 4.25724 21.3785 7.10025 21.889 10.5047C21.405 9.97539 20.8794 9.48297 20.3163 9.0325L18.6454 7.69576C17.1067 6.46479 16.2482 4.7027 16.1178 2.88449ZM4.53171 5.34968C2.95693 7.1169 2 9.4467 2 12C2 16.7918 5.37033 20.7964 9.86977 21.7726C9.88094 19.6681 10.0942 17.5675 10.5077 15.4998L11.1338 12.3693C11.522 8.45948 8.34039 5.19607 4.53171 5.34968Z" fill="black"/>
</svg>
