<svg width="24" height="24" viewBox="0 0 24 24" fill="none" xmlns="http://www.w3.org/2000/svg">
<path d="M2 21.9779C1.58579 21.9779 1.25 22.3137 1.25 22.7279C1.25 23.1421 1.58579 23.4779 2 23.4779H22C22.4142 23.4779 22.75 23.1421 22.75 22.7279C22.75 22.3137 22.4142 21.9779 22 21.9779H2Z" fill="black"/>
<path d="M9.7412 14.5C9.35346 14.5 9.15959 14.5 9.05844 14.5798C8.97044 14.6493 8.91854 14.7548 8.91722 14.8669C8.9157 14.9957 9.03401 15.1493 9.27062 15.4565L11.5296 18.3891C11.6898 18.597 11.7698 18.7009 11.8674 18.7383C11.9529 18.7711 12.0475 18.7711 12.133 18.7383C12.2305 18.7009 12.3106 18.597 12.4708 18.3891L14.7298 15.4565C14.9664 15.1493 15.0847 14.9957 15.0832 14.8669C15.0819 14.7548 15.03 14.6493 14.942 14.5798C14.8408 14.5 14.6469 14.5 14.2592 14.5H12.7739L12.7739 1.27209C12.7739 0.857883 12.4381 0.522095 12.0239 0.522095C11.6097 0.522095 11.2739 0.857884 11.2739 1.27209L11.2739 14.5H9.7412Z" fill="black"/>
</svg>
