<svg width="24" height="24" viewBox="0 0 24 24" fill="none" xmlns="http://www.w3.org/2000/svg">
<path d="M2 6.91113C1.58579 6.91113 1.25 7.24692 1.25 7.66113C1.25 8.07535 1.58579 8.41113 2 8.41113H22C22.4142 8.41113 22.75 8.07535 22.75 7.66113C22.75 7.24692 22.4142 6.91113 22 6.91113H2Z" fill="black"/>
<path d="M1.25 12.6611C1.25 12.2469 1.58579 11.9111 2 11.9111H11C11.4142 11.9111 11.75 12.2469 11.75 12.6611C11.75 13.0753 11.4142 13.4111 11 13.4111H2C1.58579 13.4111 1.25 13.0753 1.25 12.6611Z" fill="black"/>
<path d="M1.25 17.6611C1.25 17.2469 1.58579 16.9111 2 16.9111H15C15.4142 16.9111 15.75 17.2469 15.75 17.6611C15.75 18.0753 15.4142 18.4111 15 18.4111H2C1.58579 18.4111 1.25 18.0753 1.25 17.6611Z" fill="black"/>
</svg>
