<svg width="24" height="24" viewBox="0 0 24 24" fill="none" xmlns="http://www.w3.org/2000/svg">
<path d="M2 4.91119C1.58579 4.91119 1.25 5.24698 1.25 5.66119C1.25 6.07541 1.58579 6.41119 2 6.41119H22C22.4142 6.41119 22.75 6.07541 22.75 5.66119C22.75 5.24698 22.4142 4.91119 22 4.91119H2Z" fill="black"/>
<path d="M7.25 12.6612C7.25 12.247 7.58579 11.9112 8 11.9112H16C16.4142 11.9112 16.75 12.247 16.75 12.6612C16.75 13.0754 16.4142 13.4112 16 13.4112H8C7.58579 13.4112 7.25 13.0754 7.25 12.6612Z" fill="black"/>
<path d="M5.25 19.6612C5.25 19.247 5.58579 18.9112 6 18.9112H18C18.4142 18.9112 18.75 19.247 18.75 19.6612C18.75 20.0754 18.4142 20.4112 18 20.4112H6C5.58579 20.4112 5.25 20.0754 5.25 19.6612Z" fill="black"/>
</svg>
