<svg width="24" height="24" viewBox="0 0 24 24" fill="none" xmlns="http://www.w3.org/2000/svg">
<path d="M2 21.7279C1.44772 21.7279 1 22.1756 1 22.7279C1 23.2802 1.44772 23.7279 2 23.7279H22C22.5523 23.7279 23 23.2802 23 22.7279C23 22.1756 22.5523 21.7279 22 21.7279H2Z" fill="black"/>
<path d="M12.731 19.6654C12.3405 20.0559 11.7073 20.0559 11.3168 19.6654L5.24289 13.5915C4.85237 13.2009 4.85237 12.5678 5.24289 12.1772C5.63342 11.7867 6.26658 11.7867 6.65711 12.1772L11.0239 16.5441L11.0239 1.2721C11.0239 0.719818 11.4716 0.272102 12.0239 0.272102C12.5762 0.272102 13.0239 0.719818 13.0239 1.2721L13.0239 16.5441L17.3907 12.1772C17.7813 11.7867 18.4144 11.7867 18.8049 12.1772C19.1955 12.5678 19.1955 13.2009 18.8049 13.5915L12.731 19.6654Z" fill="black"/>
</svg>
