<svg width="24" height="24" viewBox="0 0 24 24" fill="none" xmlns="http://www.w3.org/2000/svg">
<path d="M2 4.66119C1.44772 4.66119 1 5.10891 1 5.66119C1 6.21348 1.44772 6.66119 2 6.66119H22C22.5523 6.66119 23 6.21348 23 5.66119C23 5.10891 22.5523 4.66119 22 4.66119H2Z" fill="black"/>
<path d="M7 12.6612C7 12.1089 7.44772 11.6612 8 11.6612H16C16.5523 11.6612 17 12.1089 17 12.6612C17 13.2135 16.5523 13.6612 16 13.6612H8C7.44772 13.6612 7 13.2135 7 12.6612Z" fill="black"/>
<path d="M5 19.6612C5 19.1089 5.44772 18.6612 6 18.6612H18C18.5523 18.6612 19 19.1089 19 19.6612C19 20.2135 18.5523 20.6612 18 20.6612H6C5.44772 20.6612 5 20.2135 5 19.6612Z" fill="black"/>
</svg>
