<svg width="24" height="24" viewBox="0 0 24 24" fill="none" xmlns="http://www.w3.org/2000/svg">
<path d="M2 22.2279C1.72386 22.2279 1.5 22.4517 1.5 22.7279C1.5 23.004 1.72386 23.2279 2 23.2279H22C22.2761 23.2279 22.5 23.004 22.5 22.7279C22.5 22.4517 22.2761 22.2279 22 22.2279H2Z" fill="black"/>
<path d="M12.3775 19.3118C12.1822 19.5071 11.8656 19.5071 11.6704 19.3118L5.59645 13.2379C5.40118 13.0426 5.40118 12.7261 5.59645 12.5308C5.79171 12.3355 6.10829 12.3355 6.30355 12.5308L11.5239 17.7512L11.5239 1.27209C11.5239 0.995953 11.7478 0.772095 12.0239 0.772095C12.3001 0.772095 12.5239 0.995953 12.5239 1.27209L12.5239 17.7512L17.7443 12.5308C17.9395 12.3355 18.2561 12.3355 18.4514 12.5308C18.6467 12.7261 18.6467 13.0426 18.4514 13.2379L12.3775 19.3118Z" fill="black"/>
</svg>
