<svg width="24" height="24" viewBox="0 0 24 24" fill="none" xmlns="http://www.w3.org/2000/svg">
<path fill-rule="evenodd" clip-rule="evenodd" d="M12.9614 2.03125C15.8382 2.03151 18.1712 4.3644 18.1714 7.24121C18.1712 9.06992 17.227 10.677 15.8013 11.6064C18.0643 12.1737 19.7397 14.2213 19.7397 16.6602C19.7395 19.537 17.4076 21.8689 14.5308 21.8691H6.68115C6.40518 21.8689 6.18115 21.6452 6.18115 21.3691L6.18213 2.53125C6.18233 2.25528 6.40611 2.03125 6.68213 2.03125H12.9614ZM7.18115 20.8691H14.5308C16.8553 20.8689 18.7395 18.9847 18.7397 16.6602C18.7397 14.3354 16.8554 12.4504 14.5308 12.4502H7.18115V20.8691ZM7.18213 11.4502H12.9614C15.2859 11.4499 17.1711 9.5657 17.1714 7.24121C17.1712 4.91669 15.2859 3.03151 12.9614 3.03125H7.18213V11.4502Z" fill="black"/>
</svg>
