<svg width="24" height="24" viewBox="0 0 24 24" fill="none" xmlns="http://www.w3.org/2000/svg">
<path fill-rule="evenodd" clip-rule="evenodd" d="M6.88156 4.47363C7.09182 4.47363 7.27961 4.60517 7.35146 4.80276L11.983 17.5395C12.0774 17.799 11.9435 18.0859 11.684 18.1803C11.4245 18.2747 11.1376 18.1408 11.0432 17.8813L9.68923 14.1578H4.0739L2.71991 17.8813C2.62554 18.1408 2.33866 18.2747 2.07914 18.1803C1.81963 18.0859 1.68575 17.799 1.78012 17.5395L6.41167 4.80276C6.48352 4.60517 6.67131 4.47363 6.88156 4.47363ZM4.43754 13.1578H9.32559L6.88156 6.43672L4.43754 13.1578Z" fill="black"/>
<path d="M17.46 7.99995C14.9821 7.99995 12.96 9.9793 12.96 12.4375V13.5625C12.96 16.0206 14.9821 18 17.46 18C19.9378 18 21.96 16.0206 21.96 13.5625C21.96 13.2863 21.7361 13.0625 21.46 13.0625L18.6028 13.0625C18.3267 13.0625 18.1028 13.2863 18.1028 13.5625C18.1028 13.8386 18.3267 14.0625 18.6028 14.0625L20.9231 14.0625C20.6769 15.7187 19.2263 17 17.46 17C15.5195 17 13.96 15.4535 13.96 13.5625V12.4375C13.96 10.5464 15.5195 8.99995 17.46 8.99995C18.9254 8.99995 20.1768 9.88364 20.6991 11.1324C20.8056 11.3872 21.0985 11.5074 21.3533 11.4008C21.608 11.2943 21.7282 11.0014 21.6216 10.7466C20.9464 9.13205 19.3353 7.99995 17.46 7.99995Z" fill="black"/>
</svg>
