<svg width="24" height="24" viewBox="0 0 24 24" fill="none" xmlns="http://www.w3.org/2000/svg">
<path d="M2 6.66113C1.44772 6.66113 1 7.10885 1 7.66113C1 8.21342 1.44772 8.66113 2 8.66113H22C22.5523 8.66113 23 8.21342 23 7.66113C23 7.10885 22.5523 6.66113 22 6.66113H2Z" fill="black"/>
<path d="M1 12.6611C1 12.1088 1.44772 11.6611 2 11.6611H11C11.5523 11.6611 12 12.1088 12 12.6611C12 13.2134 11.5523 13.6611 11 13.6611H2C1.44772 13.6611 1 13.2134 1 12.6611Z" fill="black"/>
<path d="M1 17.6611C1 17.1088 1.44772 16.6611 2 16.6611H15C15.5523 16.6611 16 17.1088 16 17.6611C16 18.2134 15.5523 18.6611 15 18.6611H2C1.44772 18.6611 1 18.2134 1 17.6611Z" fill="black"/>
</svg>
