<svg width="24" height="24" viewBox="0 0 24 24" fill="none" xmlns="http://www.w3.org/2000/svg">
<path d="M2 2.2721C1.44772 2.2721 1 1.82438 1 1.2721C1 0.719811 1.44772 0.272095 2 0.272095L22 0.272096C22.5523 0.272096 23 0.719811 23 1.2721C23 1.82438 22.5523 2.2721 22 2.2721H2Z" fill="black"/>
<path d="M12.731 4.33461C12.3405 3.94409 11.7073 3.94409 11.3168 4.33461L5.24289 10.4085C4.85237 10.7991 4.85237 11.4322 5.24289 11.8227C5.63342 12.2133 6.26658 12.2133 6.65711 11.8227L11.0239 7.45593L11.0239 22.7279C11.0239 23.2802 11.4716 23.7279 12.0239 23.7279C12.5762 23.7279 13.0239 23.2802 13.0239 22.7279L13.0239 7.45593L17.3907 11.8227C17.7813 12.2133 18.4144 12.2133 18.8049 11.8227C19.1955 11.4322 19.1955 10.7991 18.8049 10.4085L12.731 4.33461Z" fill="black"/>
</svg>
