<svg width="24" height="24" viewBox="0 0 24 24" fill="none" xmlns="http://www.w3.org/2000/svg">
<path fill-rule="evenodd" clip-rule="evenodd" d="M8.50195 10.0003C9.05408 10.0004 9.50185 10.4481 9.50195 11.0003V16.093C9.50177 16.6451 9.05403 17.0929 8.50195 17.093C8.16185 17.093 7.8613 16.9228 7.68066 16.6633C7.18194 16.9368 6.60891 17.093 6 17.093C4.06729 17.0928 2.50018 15.5257 2.5 13.593C2.5 11.6602 4.06718 10.0932 6 10.093C6.59154 10.0931 7.14914 10.2402 7.6377 10.4993C7.81081 10.2012 8.13251 10.0003 8.50195 10.0003ZM6 12.093C5.17175 12.0932 4.5 12.7647 4.5 13.593C4.50018 14.4212 5.17186 15.0928 6 15.093C6.82822 15.0929 7.49982 14.4212 7.5 13.593C7.5 12.7647 6.82833 12.0931 6 12.093Z" fill="black"/>
<path fill-rule="evenodd" clip-rule="evenodd" d="M11.3076 7.75025C11.8596 7.75055 12.3075 8.19825 12.3076 8.75025V10.4514C12.773 10.2224 13.2969 10.0931 13.8506 10.093C15.7834 10.0933 17.3506 11.6602 17.3506 13.593C17.3504 15.5257 15.7832 17.0928 13.8506 17.093C13.2297 17.0929 12.6462 16.9304 12.1406 16.6467C11.9612 16.9155 11.6538 17.0929 11.3066 17.093C10.755 17.0924 10.3068 16.6448 10.3066 16.093L10.3076 8.75025C10.3077 8.19825 10.7557 7.75059 11.3076 7.75025ZM13.8506 12.093C13.0224 12.0933 12.3506 12.7648 12.3506 13.593C12.3508 14.4211 13.0225 15.0928 13.8506 15.093C14.6787 15.0928 15.3504 14.4211 15.3506 13.593C15.3506 12.7648 14.6788 12.0933 13.8506 12.093Z" fill="black"/>
<path fill-rule="evenodd" clip-rule="evenodd" d="M20.3027 2.10572C20.7966 1.859 21.3976 2.05917 21.6445 2.55299C21.8912 3.04679 21.6909 3.64775 21.1973 3.89478L19.75 4.61842V5.00025H21C22.6569 5.00025 24 6.3434 24 8.00025V17.0003C23.9999 18.657 22.6568 20.0003 21 20.0003H19.749V20.3821L21.1963 21.1057C21.6903 21.3527 21.8905 21.9535 21.6436 22.4475C21.3965 22.9412 20.7956 23.1417 20.3018 22.8948L18.749 22.1184L17.1963 22.8948C16.7024 23.1414 16.1014 22.9413 15.8545 22.4475C15.6077 21.9537 15.8082 21.3528 16.3018 21.1057L17.749 20.3821V20.0003H3C1.39495 20.0003 0.0842894 18.7396 0.00390625 17.1546L0 17.0003V8.00025C0 6.3434 1.34315 5.00025 3 5.00025H17.75V4.61842L16.3027 3.89478C15.8089 3.64777 15.6085 3.04692 15.8555 2.55299C16.1025 2.0591 16.7033 1.85883 17.1973 2.10572L18.75 2.88209L20.3027 2.10572ZM19.749 18.0003H21C21.5522 18.0003 21.9999 17.5525 22 17.0003V8.00025C22 7.44797 21.5523 7.00025 21 7.00025H19.75L19.749 18.0003ZM3 7.00025C2.44772 7.00025 2 7.44797 2 8.00025V17.0003C2.00008 17.5525 2.44777 18.0003 3 18.0003H17.749L17.75 7.00025H3Z" fill="black"/>
</svg>
