<svg width="24" height="24" viewBox="0 0 24 24" fill="none" xmlns="http://www.w3.org/2000/svg">
<path fill-rule="evenodd" clip-rule="evenodd" d="M7.42075 4.47369C7.631 4.47369 7.81879 4.60523 7.89065 4.80282L12.5222 17.5396C12.6166 17.7991 12.4827 18.086 12.2232 18.1804C11.9637 18.2747 11.6768 18.1408 11.5824 17.8813L10.2284 14.1578H4.61309L3.2591 17.8813C3.16473 18.1408 2.87784 18.2747 2.61833 18.1804C2.35881 18.086 2.22493 17.7991 2.3193 17.5396L6.95085 4.80282C7.0227 4.60523 7.21049 4.47369 7.42075 4.47369ZM4.97672 13.1578H9.86477L7.42075 6.43678L4.97672 13.1578Z" fill="black"/>
<path fill-rule="evenodd" clip-rule="evenodd" d="M21.2497 7.75002C21.5258 7.75002 21.7497 7.97387 21.7497 8.25002V17.6598C21.7497 19.6426 20.1423 21.25 18.1595 21.25C16.7997 21.25 15.5565 20.4817 14.9484 19.2654L14.8025 18.9736C14.679 18.7266 14.7791 18.4263 15.0261 18.3028C15.2731 18.1793 15.5734 18.2794 15.6969 18.5264L15.8428 18.8182C16.2816 19.6957 17.1784 20.25 18.1595 20.25C19.59 20.25 20.7497 19.0904 20.7497 17.6598V15.6995C20.1144 16.3478 19.229 16.75 18.2497 16.75C16.3167 16.75 14.7497 15.183 14.7497 13.25V11.25C14.7497 9.31702 16.3167 7.75002 18.2497 7.75002C19.229 7.75002 20.1144 8.15225 20.7497 8.80053V8.25002C20.7497 7.97387 20.9736 7.75002 21.2497 7.75002ZM20.7497 11.25V13.25C20.7497 14.6307 19.6304 15.75 18.2497 15.75C16.869 15.75 15.7497 14.6307 15.7497 13.25V11.25C15.7497 9.86931 16.869 8.75002 18.2497 8.75002C19.6304 8.75002 20.7497 9.86931 20.7497 11.25Z" fill="black"/>
</svg>
