<svg width="24" height="24" viewBox="0 0 24 24" fill="none" xmlns="http://www.w3.org/2000/svg">
<path fill-rule="evenodd" clip-rule="evenodd" d="M8.00195 10.2499C8.41601 10.25 8.75185 10.5859 8.75195 10.9999V16.0927C8.75173 16.5067 8.41593 16.8426 8.00195 16.8427C7.66289 16.8427 7.3789 16.6164 7.28613 16.3075C6.77367 16.6453 6.15963 16.8427 5.5 16.8427C3.70539 16.8425 2.25022 15.3873 2.25 13.5927C2.25 11.7979 3.70525 10.3429 5.5 10.3427C6.15062 10.3427 6.75647 10.5349 7.26465 10.8642C7.32856 10.5148 7.63416 10.25 8.00195 10.2499ZM5.5 11.8427C4.53368 11.8429 3.75 12.6263 3.75 13.5927C3.75022 14.5589 4.53382 15.3425 5.5 15.3427C6.46626 15.3426 7.24978 14.5589 7.25 13.5927C7.25 12.6263 6.4664 11.8428 5.5 11.8427Z" fill="black"/>
<path fill-rule="evenodd" clip-rule="evenodd" d="M10.8076 7.99993C11.2215 8.00022 11.5575 8.33598 11.5576 8.74993V10.8827C12.0715 10.5421 12.6879 10.3428 13.3506 10.3427C15.1453 10.343 16.6006 11.7979 16.6006 13.5927C16.6004 15.3873 15.1451 16.8424 13.3506 16.8427C12.6766 16.8426 12.0503 16.6364 11.5312 16.2851C11.4458 16.6055 11.1538 16.8425 10.8066 16.8427C10.3931 16.8421 10.0569 16.5064 10.0566 16.0927L10.0576 8.74993C10.0577 8.336 10.3938 8.00026 10.8076 7.99993ZM13.3506 11.8427C12.3843 11.843 11.6006 12.6264 11.6006 13.5927C11.6008 14.5588 12.3845 15.3424 13.3506 15.3427C14.3167 15.3424 15.1004 14.5588 15.1006 13.5927C15.1006 12.6264 14.3169 11.843 13.3506 11.8427Z" fill="black"/>
<path fill-rule="evenodd" clip-rule="evenodd" d="M19.666 2.32903C20.0363 2.14444 20.4868 2.29477 20.6719 2.66497C20.8564 3.03513 20.7058 3.48559 20.3359 3.67083L18.751 4.4638V5.99993H21.5L21.7559 6.01262C23.0164 6.14076 24 7.2056 24 8.49993V16.4999L23.9873 16.7558C23.8591 18.0162 22.7943 18.9999 21.5 18.9999H18.751V20.5361L20.3359 21.329C20.7057 21.5144 20.8565 21.9648 20.6719 22.3349C20.4868 22.7049 20.0362 22.8552 19.666 22.6708L18.001 21.8388L16.3359 22.6708C15.9657 22.8557 15.5154 22.7049 15.3301 22.3349C15.1451 21.9645 15.2957 21.5142 15.666 21.329L17.251 20.5361V18.9999H2.5C1.20574 18.9999 0.140929 18.0162 0.0126953 16.7558L0 16.4999V8.49993C1.20792e-07 7.2056 0.98362 6.14076 2.24414 6.01262L2.5 5.99993H17.251V4.4638L15.666 3.67083C15.2957 3.48568 15.1453 3.03534 15.3301 2.66497C15.5153 2.2948 15.9656 2.14413 16.3359 2.32903L18.001 3.16106L19.666 2.32903ZM18.751 17.4999H21.5C22.0522 17.4999 22.4999 17.0521 22.5 16.4999V8.49993C22.5 7.94764 22.0523 7.49993 21.5 7.49993H18.751V17.4999ZM2.5 7.49993C1.94772 7.49993 1.5 7.94764 1.5 8.49993V16.4999C1.50012 17.0521 1.94779 17.4999 2.5 17.4999H17.251V7.49993H2.5Z" fill="black"/>
</svg>
