<svg width="24" height="24" viewBox="0 0 24 24" fill="none" xmlns="http://www.w3.org/2000/svg">
<path fill-rule="evenodd" clip-rule="evenodd" d="M4.36147 10.6531C4.7341 9.26902 5.99771 8.25 7.49996 8.25C9.29489 8.25 10.75 9.70507 10.75 11.5V14L10.7499 14.0028V14.3842C10.7499 16.2431 9.24302 17.75 7.38413 17.75H6.39838C4.751 17.75 3.52728 16.2245 3.88462 14.6163C4.12916 13.5159 5.0611 12.7024 6.18454 12.6087L10.25 12.27V11.5C10.25 9.98122 9.01875 8.75 7.49996 8.75C6.22948 8.75 5.15963 9.61178 4.84428 10.7831C4.80838 10.9164 4.67121 10.9954 4.53788 10.9595C4.40456 10.9236 4.32558 10.7864 4.36147 10.6531ZM10.2499 12.7717L6.22606 13.107C5.32076 13.1825 4.56978 13.838 4.37272 14.7248C4.08476 16.0207 5.07087 17.25 6.39838 17.25H7.38413C8.96688 17.25 10.2499 15.9669 10.2499 14.3842V12.7717Z" fill="black"/>
<path fill-rule="evenodd" clip-rule="evenodd" d="M19.9999 8.25C20.138 8.25 20.2499 8.36193 20.2499 8.5V17.9098C20.2499 19.7546 18.7545 21.25 16.9097 21.25C15.6446 21.25 14.488 20.5352 13.9222 19.4036L13.7763 19.1118C13.7146 18.9883 13.7646 18.8381 13.8881 18.7764C14.0116 18.7146 14.1618 18.7647 14.2235 18.8882L14.3694 19.18C14.8505 20.1422 15.834 20.75 16.9097 20.75C18.4783 20.75 19.7499 19.4784 19.7499 17.9098V15.2328C19.1743 16.1445 18.1578 16.75 16.9999 16.75C15.205 16.75 13.7499 15.2949 13.7499 13.5V11.5C13.7499 9.70507 15.205 8.25 16.9999 8.25C18.1578 8.25 19.1743 8.85551 19.7499 9.76716V8.5C19.7499 8.36193 19.8618 8.25 19.9999 8.25ZM19.7499 11.5V13.5C19.7499 15.0188 18.5187 16.25 16.9999 16.25C15.4811 16.25 14.2499 15.0188 14.2499 13.5V11.5C14.2499 9.98122 15.4811 8.75 16.9999 8.75C18.5187 8.75 19.7499 9.98122 19.7499 11.5Z" fill="black"/>
</svg>
