<svg width="24" height="24" viewBox="0 0 24 24" fill="none" xmlns="http://www.w3.org/2000/svg">
<path d="M0.750001 21C0.750001 20.3096 1.30964 19.75 2 19.75H12C12.6904 19.75 13.25 20.3096 13.25 21C13.25 21.6904 12.6904 22.25 12 22.25H2C1.30964 22.25 0.750001 21.6904 0.750001 21Z" fill="black"/>
<path d="M17.75 21C17.75 20.3096 18.3096 19.75 19 19.75H22C22.6904 19.75 23.25 20.3096 23.25 21C23.25 21.6904 22.6904 22.25 22 22.25H19C18.3096 22.25 17.75 21.6904 17.75 21Z" fill="black"/>
<path fill-rule="evenodd" clip-rule="evenodd" d="M7.3156 4.80857C7.84123 4.80857 8.31071 5.1374 8.49034 5.63139L11.9494 15.1438C12.1853 15.7926 11.8506 16.5098 11.2018 16.7457C10.553 16.9816 9.83582 16.6469 9.5999 15.9981L8.7985 13.7943H5.83269L5.0313 15.9981C4.79537 16.6469 4.07817 16.9816 3.42938 16.7457C2.78059 16.5098 2.44589 15.7926 2.68181 15.1438L6.14086 5.63139C6.32049 5.1374 6.78997 4.80857 7.3156 4.80857ZM7.3156 9.71629L7.88941 11.2943H6.74178L7.3156 9.71629Z" fill="black"/>
<path fill-rule="evenodd" clip-rule="evenodd" d="M18.2913 7.39919C18.9816 7.39919 19.5413 7.95883 19.5413 8.64919V15.6769C19.5413 17.6418 17.9484 19.2347 15.9834 19.2347C14.8115 19.2347 13.7274 18.6591 13.0681 17.7165C12.6724 17.1507 12.8103 16.3714 13.376 15.9757C13.9417 15.58 14.721 15.7178 15.1167 16.2836C15.3127 16.5637 15.6352 16.7347 15.9834 16.7347C16.5492 16.7347 17.0113 16.2905 17.0399 15.7318C16.7263 15.8243 16.3943 15.8739 16.0507 15.8739C14.123 15.8739 12.5602 14.3112 12.5602 12.3834V10.8897C12.5602 8.96197 14.123 7.3992 16.0507 7.3992C16.5582 7.3992 17.0403 7.50748 17.4753 7.7022C17.6943 7.51337 17.9795 7.39919 18.2913 7.39919ZM16.0507 9.8992C15.5037 9.8992 15.0602 10.3427 15.0602 10.8897V12.3834C15.0602 12.9305 15.5037 13.3739 16.0507 13.3739C16.5978 13.3739 17.0413 12.9305 17.0413 12.3834V10.8897C17.0413 10.3427 16.5978 9.8992 16.0507 9.8992Z" fill="black"/>
<path d="M2 1.75C1.30964 1.75 0.75 2.30965 0.75 3C0.75 3.69036 1.30964 4.25 2 4.25L22 4.25C22.6904 4.25 23.25 3.69036 23.25 3C23.25 2.30964 22.6904 1.75 22 1.75L2 1.75Z" fill="black"/>
</svg>
