<svg width="24" height="24" viewBox="0 0 24 24" fill="none" xmlns="http://www.w3.org/2000/svg">
<path fill-rule="evenodd" clip-rule="evenodd" d="M7.42172 4.47363C7.63198 4.47363 7.81977 4.60517 7.89162 4.80276L12.5232 17.5395C12.6175 17.799 12.4837 18.0859 12.2241 18.1803C11.9646 18.2747 11.6777 18.1408 11.5834 17.8813L10.2294 14.1578H4.61406L3.26007 17.8813C3.1657 18.1408 2.87882 18.2747 2.6193 18.1803C2.35979 18.0859 2.22591 17.799 2.32028 17.5395L6.95183 4.80276C7.02368 4.60517 7.21147 4.47363 7.42172 4.47363ZM4.9777 13.1578H9.86575L7.42172 6.43672L4.9777 13.1578Z" fill="black"/>
<path fill-rule="evenodd" clip-rule="evenodd" d="M21.2507 7.74996C21.5268 7.74996 21.7507 7.97381 21.7507 8.24996V17.6598C21.7507 19.6426 20.1433 21.25 18.1605 21.25C16.8006 21.25 15.5575 20.4817 14.9494 19.2654L14.8035 18.9736C14.68 18.7266 14.7801 18.4262 15.0271 18.3027C15.2741 18.1792 15.5744 18.2794 15.6979 18.5263L15.8438 18.8181C16.2825 19.6957 17.1794 20.25 18.1605 20.25C19.591 20.25 20.7507 19.0903 20.7507 17.6598V15.6994C20.1154 16.3477 19.23 16.75 18.2507 16.75C16.3177 16.75 14.7507 15.183 14.7507 13.25V11.25C14.7507 9.31696 16.3177 7.74996 18.2507 7.74996C19.23 7.74996 20.1154 8.15219 20.7507 8.80046V8.24996C20.7507 7.97381 20.9745 7.74996 21.2507 7.74996ZM20.7507 11.25V13.25C20.7507 14.6307 19.6314 15.75 18.2507 15.75C16.87 15.75 15.7507 14.6307 15.7507 13.25V11.25C15.7507 9.86924 16.87 8.74996 18.2507 8.74996C19.6314 8.74996 20.7507 9.86924 20.7507 11.25Z" fill="black"/>
</svg>
