<svg width="24" height="24" viewBox="0 0 24 24" fill="none" xmlns="http://www.w3.org/2000/svg">
<path fill-rule="evenodd" clip-rule="evenodd" d="M7.42167 4.22363C7.73705 4.22363 8.01874 4.42093 8.12652 4.71733L12.7581 17.4541C12.8996 17.8434 12.6988 18.2737 12.3095 18.4152C11.9203 18.5568 11.4899 18.356 11.3484 17.9667L10.0542 14.4078H4.78912L3.49497 17.9667C3.35341 18.356 2.92309 18.5568 2.53381 18.4152C2.14454 18.2737 1.94372 17.8434 2.08528 17.4541L6.71683 4.71733C6.8246 4.42093 7.10629 4.22363 7.42167 4.22363ZM5.33457 12.9078L9.50877 12.9078L7.42167 7.16826L5.33457 12.9078Z" fill="black"/>
<path fill-rule="evenodd" clip-rule="evenodd" d="M21.2506 7.49996C21.6648 7.49996 22.0006 7.83574 22.0006 8.24996V17.6598C22.0006 19.7807 20.2813 21.5 18.1604 21.5C16.7059 21.5 15.3762 20.6782 14.7257 19.3772L14.5798 19.0854C14.3946 18.7149 14.5447 18.2644 14.9152 18.0791C15.2857 17.8939 15.7362 18.0441 15.9214 18.4145L16.0673 18.7063C16.4637 19.4992 17.2741 20 18.1604 20C19.4529 20 20.5006 18.9522 20.5006 17.6598V16.2502C19.8739 16.721 19.0948 17 18.2506 17C16.1795 17 14.5006 15.321 14.5006 13.25V11.25C14.5006 9.17889 16.1795 7.49996 18.2506 7.49996C19.0948 7.49996 19.8739 7.77891 20.5006 8.24968C20.5008 7.83559 20.8365 7.49996 21.2506 7.49996ZM20.5006 11.25V13.25C20.5006 14.4926 19.4933 15.5 18.2506 15.5C17.008 15.5 16.0006 14.4926 16.0006 13.25V11.25C16.0006 10.0073 17.008 8.99996 18.2506 8.99996C19.4933 8.99996 20.5006 10.0073 20.5006 11.25Z" fill="black"/>
</svg>
