<svg width="24" height="24" viewBox="0 0 24 24" fill="none" xmlns="http://www.w3.org/2000/svg">
<path fill-rule="evenodd" clip-rule="evenodd" d="M6.00001 6.5C6.21027 6.5 6.39806 6.63154 6.46991 6.82913L10.4699 17.8291C10.5643 18.0886 10.4304 18.3755 10.1709 18.4699C9.91137 18.5643 9.62449 18.4304 9.53012 18.1709L8.37707 15H3.62295L2.46991 18.1709C2.37554 18.4304 2.08866 18.5643 1.82914 18.4699C1.56963 18.3755 1.43575 18.0886 1.53012 17.8291L5.53012 6.82913C5.60197 6.63154 5.78976 6.5 6.00001 6.5ZM3.98659 14H8.01344L6.00001 8.46309L3.98659 14Z" fill="black"/>
<path d="M16.5 6.5C14.2909 6.5 12.5 8.29086 12.5 10.5V14.5C12.5 16.7091 14.2909 18.5 16.5 18.5C18.7091 18.5 20.5 16.7091 20.5 14.5V12.5C20.5 12.2239 20.2761 12 20 12L17.5 12C17.2239 12 17 12.2239 17 12.5C17 12.7761 17.2239 13 17.5 13L19.5 13V14.5C19.5 16.1569 18.1569 17.5 16.5 17.5C14.8431 17.5 13.5 16.1569 13.5 14.5V10.5C13.5 8.84315 14.8431 7.5 16.5 7.5C17.9175 7.5 19.1065 8.48364 19.4195 9.80616C19.4831 10.0749 19.7524 10.2412 20.0212 10.1776C20.2899 10.114 20.4562 9.84462 20.3926 9.5759C19.9754 7.81249 18.3916 6.5 16.5 6.5Z" fill="black"/>
</svg>
