<svg width="24" height="24" viewBox="0 0 24 24" fill="none" xmlns="http://www.w3.org/2000/svg">
<path fill-rule="evenodd" clip-rule="evenodd" d="M5.92075 4.4737C6.131 4.4737 6.31879 4.60523 6.39065 4.80282L11.0222 17.5396C11.1166 17.7991 10.9827 18.086 10.7232 18.1804C10.4637 18.2747 10.1768 18.1408 10.0824 17.8813L8.72841 14.1579H3.11309L1.7591 17.8813C1.66473 18.1408 1.37784 18.2747 1.11833 18.1804C0.85881 18.086 0.724932 17.7991 0.819302 17.5396L5.45085 4.80282C5.5227 4.60523 5.71049 4.4737 5.92075 4.4737ZM3.47672 13.1579H8.36477L5.92075 6.43678L3.47672 13.1579Z" fill="black"/>
<path d="M18.0786 4.47369C15.5642 4.47369 13.526 6.51196 13.526 9.0263V13.6578C13.526 16.1722 15.5642 18.2105 18.0786 18.2105C20.5929 18.2105 22.6312 16.1722 22.6312 13.6578V11.3421C22.6312 11.0659 22.4073 10.8421 22.1312 10.8421L19.2365 10.8421C18.9603 10.8421 18.7365 11.0659 18.7365 11.3421C18.7365 11.6182 18.9603 11.8421 19.2365 11.8421L21.6312 11.8421V13.6578C21.6312 15.6199 20.0406 17.2105 18.0786 17.2105C16.1165 17.2105 14.526 15.6199 14.526 13.6578V9.0263C14.526 7.06425 16.1165 5.47369 18.0786 5.47369C19.7573 5.47369 21.1652 6.6386 21.5358 8.20473C21.5994 8.47345 21.8688 8.63975 22.1375 8.57617C22.4062 8.51258 22.5725 8.2432 22.5089 7.97447C22.034 5.96745 20.2314 4.47369 18.0786 4.47369Z" fill="black"/>
</svg>
