<svg width="24" height="24" viewBox="0 0 24 24" fill="none" xmlns="http://www.w3.org/2000/svg">
<path d="M2 7.41121C1.86193 7.41121 1.75 7.52314 1.75 7.66121C1.75 7.79928 1.86193 7.91121 2 7.91121H22C22.1381 7.91121 22.25 7.79928 22.25 7.66121C22.25 7.52314 22.1381 7.41121 22 7.41121H2Z" fill="black"/>
<path d="M12.75 12.6612C12.75 12.5231 12.8619 12.4112 13 12.4112H22C22.1381 12.4112 22.25 12.5231 22.25 12.6612C22.25 12.7993 22.1381 12.9112 22 12.9112H13C12.8619 12.9112 12.75 12.7993 12.75 12.6612Z" fill="black"/>
<path d="M8.75 17.6612C8.75 17.5231 8.86193 17.4112 9 17.4112H22C22.1381 17.4112 22.25 17.5231 22.25 17.6612C22.25 17.7993 22.1381 17.9112 22 17.9112H9C8.86193 17.9112 8.75 17.7993 8.75 17.6612Z" fill="black"/>
</svg>
