<svg width="24" height="24" viewBox="0 0 24 24" fill="none" xmlns="http://www.w3.org/2000/svg">
<path d="M2 6.41113C1.30964 6.41113 0.75 6.97078 0.75 7.66113C0.75 8.35149 1.30964 8.91113 2 8.91113H22C22.6904 8.91113 23.25 8.35149 23.25 7.66113C23.25 6.97078 22.6904 6.41113 22 6.41113H2Z" fill="black"/>
<path d="M0.75 12.6611C0.75 11.9708 1.30964 11.4111 2 11.4111H22C22.6904 11.4111 23.25 11.9708 23.25 12.6611C23.25 13.3515 22.6904 13.9111 22 13.9111H2C1.30964 13.9111 0.75 13.3515 0.75 12.6611Z" fill="black"/>
<path d="M0.75 17.6611C0.75 16.9708 1.30964 16.4111 2 16.4111H22C22.6904 16.4111 23.25 16.9708 23.25 17.6611C23.25 18.3515 22.6904 18.9111 22 18.9111H2C1.30964 18.9111 0.75 18.3515 0.75 17.6611Z" fill="black"/>
</svg>
