<svg width="24" height="24" viewBox="0 0 24 24" fill="none" xmlns="http://www.w3.org/2000/svg">
<path fill-rule="evenodd" clip-rule="evenodd" d="M7.42095 3.72369C7.94659 3.72369 8.41606 4.05253 8.59569 4.54652L13.2272 17.2833C13.4632 17.9321 13.1285 18.6493 12.4797 18.8852C11.8309 19.1211 11.1137 18.7864 10.8778 18.1376L9.70329 14.9079H5.13861L3.96414 18.1376C3.72822 18.7864 3.01102 19.1211 2.36222 18.8852C1.71343 18.6493 1.37874 17.9321 1.61466 17.2833L6.24621 4.54652C6.42584 4.05253 6.89532 3.72369 7.42095 3.72369ZM6.0477 12.4079H8.7942L7.42095 8.63141L6.0477 12.4079Z" fill="black"/>
<path fill-rule="evenodd" clip-rule="evenodd" d="M21.2499 7.00002C21.9403 7.00002 22.4999 7.55966 22.4999 8.25002V17.6598C22.4999 20.0569 20.5567 22 18.1597 22C16.5158 22 15.013 21.0712 14.2778 19.6008L14.1319 19.309C13.8231 18.6916 14.0734 17.9407 14.6909 17.632C15.3084 17.3232 16.0592 17.5735 16.3679 18.191L16.5138 18.4828C16.8255 19.1062 17.4627 19.5 18.1597 19.5C19.176 19.5 19.9999 18.6761 19.9999 17.6598V17.1241C19.4662 17.3656 18.8738 17.5 18.2499 17.5C15.9027 17.5 13.9999 15.5972 13.9999 13.25V11.25C13.9999 8.90281 15.9027 7.00002 18.2499 7.00002C18.9731 7.00002 19.6542 7.18067 20.2503 7.49931C20.4784 7.1961 20.8413 7.00002 21.2499 7.00002ZM19.9999 11.25V13.25C19.9999 14.2165 19.2164 15 18.2499 15C17.2834 15 16.4999 14.2165 16.4999 13.25V11.25C16.4999 10.2835 17.2834 9.50002 18.2499 9.50002C19.2164 9.50002 19.9999 10.2835 19.9999 11.25Z" fill="black"/>
</svg>
