<svg width="24" height="24" viewBox="0 0 24 24" fill="none" xmlns="http://www.w3.org/2000/svg">
<path fill-rule="evenodd" clip-rule="evenodd" d="M6.88182 3.97369C7.30233 3.97369 7.67791 4.23676 7.82162 4.63195L12.4532 17.3687C12.6419 17.8877 12.3741 18.4615 11.8551 18.6502C11.3361 18.839 10.7623 18.5712 10.5736 18.0522L9.33927 14.6578H4.42437L3.19007 18.0522C3.00133 18.5712 2.42756 18.839 1.90853 18.6502C1.3895 18.4615 1.12174 17.8877 1.31048 17.3687L5.94203 4.63195C6.08573 4.23676 6.46132 3.97369 6.88182 3.97369ZM5.15165 12.6578H8.612L6.88182 7.89987L5.15165 12.6578Z" fill="black"/>
<path d="M17.7102 7.50001C14.9637 7.50001 12.7102 9.69582 12.7102 12.4375V13.5625C12.7102 16.3042 14.9637 18.5 17.7102 18.5C20.4567 18.5 22.7102 16.3042 22.7102 13.5625C22.7102 13.0102 22.2625 12.5625 21.7102 12.5625L18.8531 12.5625C18.3008 12.5625 17.8531 13.0102 17.8531 13.5625C17.8531 14.1148 18.3008 14.5625 18.8531 14.5625L20.5314 14.5625C20.1153 15.6863 19.0179 16.5 17.7102 16.5C16.0384 16.5 14.7102 15.1701 14.7102 13.5625V12.4375C14.7102 10.83 16.0384 9.50001 17.7102 9.50001C18.9021 9.50001 19.9256 10.1791 20.4103 11.1554C20.656 11.6501 21.2561 11.8519 21.7507 11.6063C22.2454 11.3607 22.4473 10.7606 22.2017 10.2659C21.3865 8.62416 19.6781 7.50001 17.7102 7.50001Z" fill="black"/>
</svg>
