<svg width="24" height="24" viewBox="0 0 24 24" fill="none" xmlns="http://www.w3.org/2000/svg">
<path fill-rule="evenodd" clip-rule="evenodd" d="M7.42082 4.22369C7.7362 4.22369 8.01788 4.42099 8.12566 4.71739L12.7572 17.4541C12.8988 17.8434 12.6979 18.2737 12.3087 18.4153C11.9194 18.5569 11.4891 18.356 11.3475 17.9668L10.0534 14.4078H4.78826L3.49411 17.9668C3.35256 18.356 2.92223 18.5569 2.53296 18.4153C2.14368 18.2737 1.94287 17.8434 2.08442 17.4541L6.71597 4.71739C6.82375 4.42099 7.10544 4.22369 7.42082 4.22369ZM5.33372 12.9078L9.50792 12.9078L7.42082 7.16832L5.33372 12.9078Z" fill="black"/>
<path fill-rule="evenodd" clip-rule="evenodd" d="M21.2498 7.50002C21.664 7.50002 21.9998 7.8358 21.9998 8.25002V17.6598C21.9998 19.7807 20.2805 21.5 18.1596 21.5C16.705 21.5 15.3753 20.6782 14.7248 19.3772L14.5789 19.0854C14.3937 18.7149 14.5439 18.2644 14.9144 18.0792C15.2848 17.894 15.7353 18.0441 15.9206 18.4146L16.0665 18.7064C16.4629 19.4992 17.2732 20 18.1596 20C19.452 20 20.4998 18.9523 20.4998 17.6598V16.2503C19.873 16.7211 19.094 17 18.2498 17C16.1787 17 14.4998 15.3211 14.4998 13.25V11.25C14.4998 9.17895 16.1787 7.50002 18.2498 7.50002C19.094 7.50002 19.873 7.77898 20.4998 8.24974C20.4999 7.83565 20.8356 7.50002 21.2498 7.50002ZM20.4998 11.25V13.25C20.4998 14.4927 19.4924 15.5 18.2498 15.5C17.0071 15.5 15.9998 14.4927 15.9998 13.25V11.25C15.9998 10.0074 17.0071 9.00002 18.2498 9.00002C19.4924 9.00002 20.4998 10.0074 20.4998 11.25Z" fill="black"/>
</svg>
