<svg width="24" height="24" viewBox="0 0 24 24" fill="none" xmlns="http://www.w3.org/2000/svg">
<path d="M2 21.4779C1.30964 21.4779 0.75 22.0375 0.75 22.7279C0.75 23.4182 1.30964 23.9779 2 23.9779H22C22.6904 23.9779 23.25 23.4182 23.25 22.7279C23.25 22.0375 22.6904 21.4779 22 21.4779H2Z" fill="black"/>
<path d="M12.9078 19.8422C12.4196 20.3303 11.6282 20.3303 11.14 19.8422L5.06612 13.7682C4.57796 13.2801 4.57796 12.4886 5.06612 12.0005C5.55427 11.5123 6.34573 11.5123 6.83388 12.0005L10.7739 15.9405L10.7739 1.27209C10.7739 0.581741 11.3336 0.0220948 12.0239 0.0220947C12.7143 0.0220947 13.2739 0.581741 13.2739 1.27209L13.2739 15.9405L17.214 12.0005C17.7021 11.5123 18.4936 11.5123 18.9817 12.0005C19.4699 12.4886 19.4699 13.2801 18.9817 13.7682L12.9078 19.8422Z" fill="black"/>
</svg>
