<svg width="24" height="24" viewBox="0 0 24 24" fill="none" xmlns="http://www.w3.org/2000/svg">
<path d="M2 4.91113C1.58579 4.91113 1.25 5.24692 1.25 5.66113C1.25 6.07535 1.58579 6.41113 2 6.41113H22C22.4142 6.41113 22.75 6.07535 22.75 5.66113C22.75 5.24692 22.4142 4.91113 22 4.91113H2Z" fill="black"/>
<path d="M1.25 12.6611C1.25 12.2469 1.58579 11.9111 2 11.9111H22C22.4142 11.9111 22.75 12.2469 22.75 12.6611C22.75 13.0753 22.4142 13.4111 22 13.4111H2C1.58579 13.4111 1.25 13.0753 1.25 12.6611Z" fill="black"/>
<path d="M1.25 19.6611C1.25 19.2469 1.58579 18.9111 2 18.9111H22C22.4142 18.9111 22.75 19.2469 22.75 19.6611C22.75 20.0753 22.4142 20.4111 22 20.4111H2C1.58579 20.4111 1.25 20.0753 1.25 19.6611Z" fill="black"/>
</svg>
