<svg width="24" height="26" viewBox="0 0 24 26" fill="none" xmlns="http://www.w3.org/2000/svg">
<path d="M2 14.25C1.30964 14.25 0.75 13.6904 0.75 13C0.75 12.3097 1.30964 11.75 2 11.75L22 11.75C22.6904 11.75 23.25 12.3097 23.25 13C23.25 13.6904 22.6904 14.25 22 14.25L2 14.25Z" fill="black"/>
<path d="M8.7314 19.9113C8.84379 20 9.0592 20 9.49002 20H10.7739L10.7739 23.9201C10.7739 24.6105 11.3336 25.1701 12.0239 25.1701C12.7143 25.1701 13.2739 24.6105 13.2739 23.9201L13.2739 20H14.51C14.9408 20 15.1563 20 15.2686 19.9113C15.3664 19.8342 15.4241 19.7169 15.4256 19.5924C15.4272 19.4492 15.2958 19.2786 15.0329 18.9373L12.5229 15.6788C12.3449 15.4478 12.256 15.3323 12.1476 15.2908C12.0526 15.2544 11.9475 15.2544 11.8525 15.2908C11.7441 15.3323 11.6551 15.4478 11.4772 15.6788L8.96716 18.9373C8.70425 19.2786 8.5728 19.4492 8.57449 19.5924C8.57595 19.7169 8.63363 19.8342 8.7314 19.9113Z" fill="black"/>
<path d="M8.73149 6.08873C8.84387 6.00003 9.05929 6.00003 9.49011 6.00003H10.7739V2.07996C10.7739 1.3896 11.3336 0.829956 12.0239 0.829956C12.7143 0.829956 13.2739 1.3896 13.2739 2.07996V6.00003H14.5101C14.9409 6.00003 15.1563 6.00003 15.2687 6.08873C15.3665 6.1659 15.4242 6.28312 15.4256 6.40767C15.4273 6.55084 15.2959 6.72149 15.033 7.06279L12.523 10.3213C12.345 10.5523 12.2561 10.6678 12.1476 10.7093C12.0527 10.7457 11.9476 10.7457 11.8526 10.7093C11.7442 10.6678 11.6552 10.5523 11.4773 10.3213L8.96725 7.06279C8.70434 6.72149 8.57289 6.55084 8.57457 6.40767C8.57604 6.28312 8.63371 6.1659 8.73149 6.08873Z" fill="black"/>
</svg>
