<svg width="24" height="24" viewBox="0 0 24 24" fill="none" xmlns="http://www.w3.org/2000/svg">
<path fill-rule="evenodd" clip-rule="evenodd" d="M6.00003 6C6.42053 6 6.79612 6.26307 6.93982 6.65826L10.9398 17.6583C11.1286 18.1773 10.8608 18.7511 10.3418 18.9398C9.82274 19.1285 9.24897 18.8608 9.06023 18.3417L8.02687 15.5H3.97318L2.93982 18.3417C2.75108 18.8608 2.17732 19.1285 1.65828 18.9398C1.13925 18.7511 0.871495 18.1773 1.06023 17.6583L5.06023 6.65826C5.20394 6.26307 5.57952 6 6.00003 6ZM4.70046 13.5H7.2996L6.00003 9.92618L4.70046 13.5Z" fill="black"/>
<path d="M16.5 6C14.0147 6 12 8.01472 12 10.5V14.5C12 16.9853 14.0147 19 16.5 19C18.9853 19 21 16.9853 21 14.5V12.5C21 11.9477 20.5523 11.5 20 11.5L17.5 11.5C16.9477 11.5 16.5 11.9477 16.5 12.5C16.5 13.0523 16.9477 13.5 17.5 13.5L19 13.5V14.5C19 15.8807 17.8807 17 16.5 17C15.1193 17 14 15.8807 14 14.5V10.5C14 9.11929 15.1193 8 16.5 8C17.5708 8 18.4868 8.67367 18.8424 9.62369C19.036 10.1409 19.6123 10.4033 20.1295 10.2096C20.6468 10.016 20.9091 9.43975 20.7155 8.92252C20.077 7.21686 18.4319 6 16.5 6Z" fill="black"/>
</svg>
