<svg width="24" height="24" viewBox="0 0 24 24" fill="none" xmlns="http://www.w3.org/2000/svg">
<path d="M2 6.91121C1.58579 6.91121 1.25 7.247 1.25 7.66121C1.25 8.07542 1.58579 8.41121 2 8.41121H22C22.4142 8.41121 22.75 8.07542 22.75 7.66121C22.75 7.247 22.4142 6.91121 22 6.91121H2Z" fill="black"/>
<path d="M1.25 12.6612C1.25 12.247 1.58579 11.9112 2 11.9112H22C22.4142 11.9112 22.75 12.247 22.75 12.6612C22.75 13.0754 22.4142 13.4112 22 13.4112H2C1.58579 13.4112 1.25 13.0754 1.25 12.6612Z" fill="black"/>
<path d="M1.25 17.6612C1.25 17.247 1.58579 16.9112 2 16.9112H22C22.4142 16.9112 22.75 17.247 22.75 17.6612C22.75 18.0754 22.4142 18.4112 22 18.4112H2C1.58579 18.4112 1.25 18.0754 1.25 17.6612Z" fill="black"/>
</svg>
