<svg width="24" height="24" viewBox="0 0 24 24" fill="none" xmlns="http://www.w3.org/2000/svg">
<path d="M2 7.41113C1.86193 7.41113 1.75 7.52306 1.75 7.66113C1.75 7.7992 1.86193 7.91113 2 7.91113H22C22.1381 7.91113 22.25 7.7992 22.25 7.66113C22.25 7.52306 22.1381 7.41113 22 7.41113H2Z" fill="black"/>
<path d="M7.75 12.6611C7.75 12.5231 7.86193 12.4111 8 12.4111H16C16.1381 12.4111 16.25 12.5231 16.25 12.6611C16.25 12.7992 16.1381 12.9111 16 12.9111H8C7.86193 12.9111 7.75 12.7992 7.75 12.6611Z" fill="black"/>
<path d="M5.75 17.6611C5.75 17.5231 5.86193 17.4111 6 17.4111H18C18.1381 17.4111 18.25 17.5231 18.25 17.6611C18.25 17.7992 18.1381 17.9111 18 17.9111H6C5.86193 17.9111 5.75 17.7992 5.75 17.6611Z" fill="black"/>
</svg>
