<svg width="24" height="24" viewBox="0 0 24 24" fill="none" xmlns="http://www.w3.org/2000/svg">
<path fill-rule="evenodd" clip-rule="evenodd" d="M5.92106 4.22363C6.23644 4.22363 6.51813 4.42094 6.62591 4.71733L11.2575 17.4541C11.399 17.8434 11.1982 18.2737 10.8089 18.4152C10.4196 18.5568 9.98932 18.356 9.84776 17.9667L8.55361 14.4078H3.28851L1.99436 17.9667C1.8528 18.356 1.42248 18.5568 1.0332 18.4152C0.643928 18.2737 0.443111 17.8434 0.584666 17.4541L5.21622 4.71733C5.32399 4.42094 5.60568 4.22363 5.92106 4.22363ZM3.83396 12.9078H8.00816L5.92106 7.16827L3.83396 12.9078Z" fill="black"/>
<path d="M18.0789 4.22363C15.4265 4.22363 13.2763 6.37383 13.2763 9.02624V13.6578C13.2763 16.3102 15.4265 18.4604 18.0789 18.4604C20.7313 18.4604 22.8815 16.3102 22.8815 13.6578V11.342C22.8815 10.9278 22.5457 10.592 22.1315 10.592L19.2368 10.592C18.8225 10.592 18.4868 10.9278 18.4868 11.342C18.4868 11.7562 18.8225 12.092 19.2368 12.092L21.3815 12.092V13.6578C21.3815 15.4818 19.9029 16.9604 18.0789 16.9604C16.2549 16.9604 14.7763 15.4818 14.7763 13.6578V9.02624C14.7763 7.20226 16.2549 5.72363 18.0789 5.72363C19.6391 5.72363 20.9483 6.80632 21.2928 8.26224C21.3882 8.66532 21.7923 8.91477 22.1954 8.81939C22.5985 8.72401 22.8479 8.31993 22.7525 7.91685C22.2516 5.79961 20.3502 4.22363 18.0789 4.22363Z" fill="black"/>
</svg>
