<svg width="24" height="24" viewBox="0 0 24 24" fill="none" xmlns="http://www.w3.org/2000/svg">
<path fill-rule="evenodd" clip-rule="evenodd" d="M3.87886 10.5231C4.30878 8.92627 5.76615 7.75 7.50017 7.75C9.57124 7.75 11.2502 9.42893 11.2502 11.5V14L11.2502 14.005V14.3842C11.2502 16.5192 9.51936 18.25 7.38433 18.25H6.39859C4.43133 18.25 2.97 16.4283 3.39673 14.5079C3.68875 13.1937 4.80164 12.2223 6.14322 12.1105L9.75017 11.8099V11.5C9.75017 10.2574 8.74281 9.25 7.50017 9.25C6.46144 9.25 5.58536 9.95453 5.32729 10.9131C5.21961 11.3131 4.80807 11.55 4.4081 11.4423C4.00813 11.3346 3.77118 10.9231 3.87886 10.5231ZM9.75015 13.3151L6.26779 13.6053C5.58062 13.6626 5.01059 14.1601 4.86102 14.8333C4.64244 15.8169 5.39095 16.75 6.39859 16.75H7.38433C8.69094 16.75 9.75015 15.6908 9.75015 14.3842V13.3151Z" fill="black"/>
<path fill-rule="evenodd" clip-rule="evenodd" d="M20.0001 7.75C20.4143 7.75 20.7501 8.08579 20.7501 8.5V17.9098C20.7501 20.0307 19.0308 21.75 16.91 21.75C15.4554 21.75 14.1257 20.9282 13.4752 19.6272L13.3293 19.3354C13.1441 18.9649 13.2942 18.5144 13.6647 18.3292C14.0352 18.1439 14.4857 18.2941 14.6709 18.6646L14.8168 18.9564C15.2132 19.7492 16.0236 20.25 16.91 20.25C18.2024 20.25 19.2501 19.2023 19.2501 17.9098V16.5003C18.6234 16.971 17.8443 17.25 17.0001 17.25C14.9291 17.25 13.2501 15.5711 13.2501 13.5V11.5C13.2501 9.42893 14.9291 7.75 17.0001 7.75C17.8443 7.75 18.6234 8.02896 19.2501 8.49973C19.2503 8.08564 19.586 7.75 20.0001 7.75ZM19.2501 11.5V13.5C19.2501 14.7426 18.2428 15.75 17.0001 15.75C15.7575 15.75 14.7501 14.7426 14.7501 13.5V11.5C14.7501 10.2574 15.7575 9.25 17.0001 9.25C18.2428 9.25 19.2501 10.2574 19.2501 11.5Z" fill="black"/>
</svg>
