<svg width="24" height="24" viewBox="0 0 24 24" fill="none" xmlns="http://www.w3.org/2000/svg">
<path fill-rule="evenodd" clip-rule="evenodd" d="M6.38162 4.72363C6.48674 4.72363 6.58064 4.7894 6.61657 4.8882L11.2481 17.625C11.2953 17.7547 11.2284 17.8982 11.0986 17.9453C10.9688 17.9925 10.8254 17.9256 10.7782 17.7958L9.35926 13.8937C9.33331 13.9028 9.3054 13.9078 9.27634 13.9078H3.4869C3.45783 13.9078 3.42992 13.9028 3.40397 13.8937L1.98502 17.7958C1.93783 17.9256 1.79439 17.9925 1.66463 17.9453C1.53487 17.8982 1.46793 17.7547 1.51512 17.625L6.14667 4.8882C6.1826 4.7894 6.27649 4.72363 6.38162 4.72363ZM3.58067 13.4078H9.18257L6.38162 5.70518L3.58067 13.4078Z" fill="black"/>
<path d="M14.2104 17.75C14.4865 17.75 14.7104 17.5261 14.7104 17.25C14.7104 16.9738 14.4865 16.75 14.2104 16.75C13.9342 16.75 13.7104 16.9738 13.7104 17.25C13.7104 17.5261 13.9342 17.75 14.2104 17.75Z" fill="black"/>
<path d="M18.7104 17.2499C18.7104 17.5261 18.4866 17.7499 18.2104 17.7499C17.9343 17.7499 17.7104 17.5261 17.7104 17.2499C17.7104 16.9738 17.9343 16.7499 18.2104 16.7499C18.4866 16.7499 18.7104 16.9738 18.7104 17.2499Z" fill="black"/>
<path d="M22.2104 17.7499C22.4866 17.7499 22.7104 17.5261 22.7104 17.2499C22.7104 16.9738 22.4866 16.7499 22.2104 16.7499C21.9343 16.7499 21.7104 16.9738 21.7104 17.2499C21.7104 17.5261 21.9343 17.7499 22.2104 17.7499Z" fill="black"/>
</svg>
