<svg width="24" height="24" viewBox="0 0 24 24" fill="none" xmlns="http://www.w3.org/2000/svg">
<path fill-rule="evenodd" clip-rule="evenodd" d="M12.9966 1.3877C16.2584 1.38795 18.9027 4.03214 18.9028 7.29395C18.9028 8.87281 18.2812 10.3054 17.272 11.3652C19.1627 12.3499 20.4545 14.3271 20.4546 16.6064C20.4545 19.8683 17.8102 22.5135 14.5483 22.5137H6.7876C6.09747 22.5137 5.53796 21.9537 5.5376 21.2637V2.6377C5.5376 1.94734 6.09724 1.3877 6.7876 1.3877H12.9966ZM12.9966 13.2012H8.0376V20.0137H14.5483C16.4295 20.0135 17.9545 18.4876 17.9546 16.6064C17.9544 14.7253 16.4295 13.2004 14.5483 13.2002H13.0347C13.022 13.2003 13.0093 13.2012 12.9966 13.2012ZM8.0376 10.7002H13.0317C14.8966 10.6811 16.4027 9.16328 16.4028 7.29395C16.4027 5.41285 14.8776 3.88795 12.9966 3.8877H8.0376V10.7002Z" fill="black"/>
</svg>
