<svg width="24" height="24" viewBox="0 0 24 24" fill="none" xmlns="http://www.w3.org/2000/svg">
<path fill-rule="evenodd" clip-rule="evenodd" d="M6.38169 4.47363C6.59194 4.47363 6.77973 4.60517 6.85158 4.80276L11.4831 17.5395C11.5775 17.799 11.4436 18.0859 11.1841 18.1803C10.9246 18.2747 10.6377 18.1408 10.5433 17.8813L9.18935 14.1578H3.57402L2.22003 17.8813C2.12566 18.1408 1.83878 18.2747 1.57926 18.1803C1.31975 18.0859 1.18587 17.799 1.28024 17.5395L5.91179 4.80276C5.98364 4.60517 6.17143 4.47363 6.38169 4.47363ZM3.93766 13.1578H8.82571L6.38169 6.43672L3.93766 13.1578Z" fill="black"/>
<path d="M14.2105 17.875C14.5557 17.875 14.8355 17.5951 14.8355 17.25C14.8355 16.9048 14.5557 16.625 14.2105 16.625C13.8653 16.625 13.5855 16.9048 13.5855 17.25C13.5855 17.5951 13.8653 17.875 14.2105 17.875Z" fill="black"/>
<path d="M18.8356 17.2499C18.8356 17.5951 18.5557 17.8749 18.2106 17.8749C17.8654 17.8749 17.5856 17.5951 17.5856 17.2499C17.5856 16.9048 17.8654 16.6249 18.2106 16.6249C18.5557 16.6249 18.8356 16.9048 18.8356 17.2499Z" fill="black"/>
<path d="M22.2106 17.8749C22.5557 17.8749 22.8356 17.5951 22.8356 17.2499C22.8356 16.9048 22.5557 16.6249 22.2106 16.6249C21.8654 16.6249 21.5856 16.9048 21.5856 17.2499C21.5856 17.5951 21.8654 17.8749 22.2106 17.8749Z" fill="black"/>
</svg>
