<svg width="24" height="24" viewBox="0 0 24 24" fill="none" xmlns="http://www.w3.org/2000/svg">
<path d="M2 6.66121C1.44772 6.66121 1 7.10892 1 7.66121C1 8.21349 1.44772 8.66121 2 8.66121H22C22.5523 8.66121 23 8.21349 23 7.66121C23 7.10892 22.5523 6.66121 22 6.66121H2Z" fill="black"/>
<path d="M12 12.6612C12 12.1089 12.4477 11.6612 13 11.6612H22C22.5523 11.6612 23 12.1089 23 12.6612C23 13.2135 22.5523 13.6612 22 13.6612H13C12.4477 13.6612 12 13.2135 12 12.6612Z" fill="black"/>
<path d="M8 17.6612C8 17.1089 8.44772 16.6612 9 16.6612H22C22.5523 16.6612 23 17.1089 23 17.6612C23 18.2135 22.5523 18.6612 22 18.6612H9C8.44772 18.6612 8 18.2135 8 17.6612Z" fill="black"/>
</svg>
