<svg width="24" height="24" viewBox="0 0 24 24" fill="none" xmlns="http://www.w3.org/2000/svg">
<path d="M22.2178 1.38721C22.632 1.38721 22.9678 1.72299 22.9678 2.13721C22.9678 2.55141 22.632 2.88721 22.2178 2.88721H15.7295L10.6836 20.1899H17.5176C17.9317 20.1901 18.2676 20.5258 18.2676 20.9399C18.2676 21.3541 17.9317 21.6898 17.5176 21.6899H1.84863C1.43442 21.6899 1.09863 21.3542 1.09863 20.9399C1.09865 20.5257 1.43443 20.1899 1.84863 20.1899H9.12012L14.167 2.88721H6.54883C6.13472 2.88709 5.79884 2.55134 5.79883 2.13721C5.79883 1.72306 6.13471 1.38732 6.54883 1.38721H22.2178Z" fill="black"/>
</svg>
