<svg width="24" height="24" viewBox="0 0 24 24" fill="none" xmlns="http://www.w3.org/2000/svg">
<path d="M2 7.41119C1.86193 7.41119 1.75 7.52312 1.75 7.66119C1.75 7.79927 1.86193 7.91119 2 7.91119H22C22.1381 7.91119 22.25 7.79927 22.25 7.66119C22.25 7.52312 22.1381 7.41119 22 7.41119H2Z" fill="black"/>
<path d="M7.75 12.6612C7.75 12.5231 7.86193 12.4112 8 12.4112H16C16.1381 12.4112 16.25 12.5231 16.25 12.6612C16.25 12.7993 16.1381 12.9112 16 12.9112H8C7.86193 12.9112 7.75 12.7993 7.75 12.6612Z" fill="black"/>
<path d="M5.75 17.6612C5.75 17.5231 5.86193 17.4112 6 17.4112H18C18.1381 17.4112 18.25 17.5231 18.25 17.6612C18.25 17.7993 18.1381 17.9112 18 17.9112H6C5.86193 17.9112 5.75 17.7993 5.75 17.6612Z" fill="black"/>
</svg>
