<svg width="24" height="24" viewBox="0 0 24 24" fill="none" xmlns="http://www.w3.org/2000/svg">
<path d="M2 4.66113C1.44772 4.66113 1 5.10885 1 5.66113C1 6.21342 1.44772 6.66113 2 6.66113H22C22.5523 6.66113 23 6.21342 23 5.66113C23 5.10885 22.5523 4.66113 22 4.66113H2Z" fill="black"/>
<path d="M1 12.6611C1 12.1088 1.44772 11.6611 2 11.6611H22C22.5523 11.6611 23 12.1088 23 12.6611C23 13.2134 22.5523 13.6611 22 13.6611H2C1.44772 13.6611 1 13.2134 1 12.6611Z" fill="black"/>
<path d="M1 19.6611C1 19.1088 1.44772 18.6611 2 18.6611H22C22.5523 18.6611 23 19.1088 23 19.6611C23 20.2134 22.5523 20.6611 22 20.6611H2C1.44772 20.6611 1 20.2134 1 19.6611Z" fill="black"/>
</svg>
