<svg width="24" height="24" viewBox="0 0 24 24" fill="none" xmlns="http://www.w3.org/2000/svg">
<path fill-rule="evenodd" clip-rule="evenodd" d="M7.42166 4.72363C7.52678 4.72363 7.62068 4.7894 7.6566 4.8882L12.2882 17.625C12.3353 17.7547 12.2684 17.8982 12.1386 17.9453C12.0089 17.9925 11.8654 17.9256 11.8183 17.7958L10.3993 13.8937C10.3734 13.9028 10.3454 13.9078 10.3164 13.9078H4.52694C4.49787 13.9078 4.46996 13.9028 4.44401 13.8937L3.02506 17.7958C2.97787 17.9256 2.83443 17.9925 2.70467 17.9453C2.57491 17.8982 2.50797 17.7547 2.55516 17.625L7.18671 4.8882C7.22263 4.7894 7.31653 4.72363 7.42166 4.72363ZM4.62071 13.4078H10.2226L7.42166 5.70518L4.62071 13.4078Z" fill="black"/>
<path fill-rule="evenodd" clip-rule="evenodd" d="M21.2506 7.99996C21.3887 7.99996 21.5006 8.11189 21.5006 8.24996V17.6598C21.5006 19.5045 20.0052 21 18.1604 21C16.8953 21 15.7387 20.2852 15.1729 19.1536L15.027 18.8618C14.9652 18.7383 15.0153 18.5881 15.1388 18.5264C15.2623 18.4646 15.4125 18.5147 15.4742 18.6382L15.6201 18.9299C16.1012 19.8922 17.0847 20.5 18.1604 20.5C19.729 20.5 21.0006 19.2284 21.0006 17.6598V14.9828C20.4249 15.8944 19.4085 16.5 18.2506 16.5C16.4557 16.5 15.0006 15.0449 15.0006 13.25V11.25C15.0006 9.45503 16.4557 7.99996 18.2506 7.99996C19.4085 7.99996 20.4249 8.60547 21.0006 9.51711V8.24996C21.0006 8.11189 21.1125 7.99996 21.2506 7.99996ZM21.0006 11.25V13.25C21.0006 14.7687 19.7694 16 18.2506 16C16.7318 16 15.5006 14.7687 15.5006 13.25V11.25C15.5006 9.73117 16.7318 8.49996 18.2506 8.49996C19.7694 8.49996 21.0006 9.73117 21.0006 11.25Z" fill="black"/>
</svg>
