<svg width="24" height="24" viewBox="0 0 24 24" fill="none" xmlns="http://www.w3.org/2000/svg">
<path d="M1.75 5.75V2.75C1.75 2.41848 1.8817 2.10054 2.11612 1.86612C2.35054 1.6317 2.66848 1.5 3 1.5H12L21 1.5C21.6904 1.5 22.25 2.05965 22.25 2.75V5.75C22.25 6.44036 21.6904 7 21 7C20.3096 7 19.75 6.44036 19.75 5.75V4L13.25 4L13.25 20.5H16C16.6904 20.5 17.25 21.0596 17.25 21.75C17.25 22.4404 16.6904 23 16 23H8C7.30964 23 6.75 22.4404 6.75 21.75C6.75 21.0596 7.30964 20.5 8 20.5H10.75L10.75 4L4.25 4L4.25 5.75C4.25 6.44035 3.69036 7 3 7C2.30964 7 1.75 6.44035 1.75 5.75Z" fill="black"/>
</svg>
