<svg width="24" height="24" viewBox="0 0 24 24" fill="none" xmlns="http://www.w3.org/2000/svg">
<path d="M2 4.66113C1.44772 4.66113 1 5.10885 1 5.66113C1 6.21342 1.44772 6.66113 2 6.66113H22C22.5523 6.66113 23 6.21342 23 5.66113C23 5.10885 22.5523 4.66113 22 4.66113H2Z" fill="black"/>
<path d="M7 12.6611C7 12.1088 7.44772 11.6611 8 11.6611H16C16.5523 11.6611 17 12.1088 17 12.6611C17 13.2134 16.5523 13.6611 16 13.6611H8C7.44772 13.6611 7 13.2134 7 12.6611Z" fill="black"/>
<path d="M5 19.6611C5 19.1088 5.44772 18.6611 6 18.6611H18C18.5523 18.6611 19 19.1088 19 19.6611C19 20.2134 18.5523 20.6611 18 20.6611H6C5.44772 20.6611 5 20.2134 5 19.6611Z" fill="black"/>
</svg>
