<svg width="24" height="24" viewBox="0 0 24 24" fill="none" xmlns="http://www.w3.org/2000/svg">
<path d="M5.25 8.75C4.83579 8.75 4.5 9.08579 4.5 9.5C4.5 9.91421 4.83579 10.25 5.25 10.25L17.25 10.25C17.6642 10.25 18 9.91421 18 9.5C18 9.08579 17.6642 8.75 17.25 8.75L5.25 8.75Z" fill="black"/>
<path d="M12.0194 0.450195C13.7972 0.450195 15.4194 1.46376 16.1989 3.06154C16.4411 3.55791 16.235 4.1566 15.7386 4.39875C15.2423 4.64091 14.6436 4.43482 14.4014 3.93846C13.9572 3.02785 13.0326 2.4502 12.0194 2.4502H10.9002C9.2157 2.4502 7.85017 3.81573 7.85017 5.5002C7.85017 6.26528 8.13188 6.96457 8.59723 7.5L6.2616 7.5C5.99686 6.88675 5.85017 6.21061 5.85017 5.5002C5.85017 2.71116 8.11114 0.450195 10.9002 0.450195L12.0194 0.450195Z" fill="black"/>
<path d="M14.5084 11.5H16.8667C17.1453 12.1265 17.3001 12.8202 17.3001 13.55C17.3001 16.339 15.0391 18.6 12.2501 18.6H9.73689C8.21835 18.6 6.80692 17.8177 6.0021 16.53C5.70939 16.0617 5.85176 15.4447 6.3201 15.152C6.78844 14.8593 7.40539 15.0017 7.6981 15.47C8.13744 16.173 8.90793 16.6 9.73689 16.6H12.2501C13.9346 16.6 15.3001 15.2345 15.3001 13.55C15.3001 12.7608 15.0003 12.0416 14.5084 11.5Z" fill="black"/>
</svg>
