<svg width="24" height="24" viewBox="0 0 24 24" fill="none" xmlns="http://www.w3.org/2000/svg">
<path fill-rule="evenodd" clip-rule="evenodd" d="M6.59968 1.9502C6.32354 1.9502 6.09968 2.17405 6.09968 2.4502V10.5412C6.09963 10.544 6.09961 10.5469 6.09961 10.5498V18.6498C6.09961 18.9259 6.32347 19.1498 6.59961 19.1498H13.3496C15.8625 19.1498 17.8996 17.1127 17.8996 14.5998C17.8996 12.5245 16.5102 10.7737 14.6108 10.2269C15.7833 9.40383 16.5497 8.04151 16.5497 6.5002C16.5497 3.9873 14.5126 1.9502 11.9997 1.9502H6.59968ZM7.09961 11.0502H11.9997C12.0198 11.0502 12.0399 11.0501 12.06 11.0498H13.3496C15.3102 11.0498 16.8996 12.6392 16.8996 14.5998C16.8996 16.5604 15.3102 18.1498 13.3496 18.1498H7.09961V11.0502ZM12.0529 10.0498C13.989 10.0213 15.5497 8.44303 15.5497 6.5002C15.5497 4.53958 13.9603 2.9502 11.9997 2.9502H7.09968V10.0498H12.0529Z" fill="black"/>
</svg>
