<svg width="24" height="24" viewBox="0 0 24 24" fill="none" xmlns="http://www.w3.org/2000/svg">
<path fill-rule="evenodd" clip-rule="evenodd" d="M6.23187 3.72363C6.7575 3.72363 7.22698 4.05247 7.40661 4.54646L12.0382 17.2832C12.2741 17.932 11.9394 18.6492 11.2906 18.8851C10.6418 19.1211 9.9246 18.7864 9.68867 18.1376L8.51421 14.9078H3.94952L2.77506 18.1376C2.53913 18.7864 1.82193 19.1211 1.17314 18.8851C0.524345 18.6492 0.18965 17.932 0.425574 17.2832L5.05712 4.54646C5.23675 4.05247 5.70623 3.72363 6.23187 3.72363ZM4.85862 12.4078H7.60511L6.23186 8.63135L4.85862 12.4078Z" fill="black"/>
<path d="M18.3897 3.72363C15.4611 3.72363 13.0871 6.09769 13.0871 9.02624V13.6578C13.0871 16.5863 15.4611 18.9604 18.3897 18.9604C21.3182 18.9604 23.6923 16.5863 23.6923 13.6578V11.342C23.6923 10.6517 23.1326 10.092 22.4423 10.092H19.5476C18.8572 10.092 18.2976 10.6517 18.2976 11.342C18.2976 12.0324 18.8572 12.592 19.5476 12.592H21.1923V13.6578C21.1923 15.2056 19.9375 16.4604 18.3897 16.4604C16.8418 16.4604 15.5871 15.2056 15.5871 13.6578V9.02624C15.5871 7.4784 16.8418 6.22363 18.3897 6.22363C19.7129 6.22363 20.8247 7.14189 21.1171 8.37737C21.276 9.04917 21.9495 9.46491 22.6213 9.30595C23.2931 9.14699 23.7089 8.47353 23.5499 7.80172C22.9968 5.46404 20.898 3.72363 18.3897 3.72363Z" fill="black"/>
</svg>
