<svg width="24" height="24" viewBox="0 0 24 24" fill="none" xmlns="http://www.w3.org/2000/svg">
<path d="M6.68098 1.2251C6.68098 0.810884 6.34519 0.475098 5.93098 0.475098C5.51676 0.475098 5.18098 0.810884 5.18098 1.2251V11.4104C5.18098 15.1998 8.25284 18.2716 12.0422 18.2716C15.8315 18.2716 18.9034 15.1998 18.9034 11.4104V1.2251C18.9034 0.810884 18.5676 0.475098 18.1534 0.475098C17.7392 0.475098 17.4034 0.810884 17.4034 1.2251V11.4104C17.4034 14.3713 15.0031 16.7716 12.0422 16.7716C9.08127 16.7716 6.68098 14.3713 6.68098 11.4104V1.2251Z" fill="black"/>
<path d="M5.25195 21.5248C4.83774 21.5248 4.50195 21.8606 4.50195 22.2748C4.50195 22.689 4.83774 23.0248 5.25195 23.0248H18.8324C19.2466 23.0248 19.5824 22.689 19.5824 22.2748C19.5824 21.8606 19.2466 21.5248 18.8324 21.5248H5.25195Z" fill="black"/>
</svg>
