<svg width="24" height="24" viewBox="0 0 24 24" fill="none" xmlns="http://www.w3.org/2000/svg">
<path fill-rule="evenodd" clip-rule="evenodd" d="M6.38194 3.97363C6.80245 3.97363 7.17803 4.2367 7.32174 4.63189L11.9533 17.3687C12.142 17.8877 11.8743 18.4614 11.3552 18.6502C10.8362 18.8389 10.2624 18.5712 10.0737 18.0521L8.83939 14.6578H3.9245L2.69019 18.0521C2.50145 18.5712 1.92768 18.8389 1.40865 18.6502C0.889618 18.4614 0.621861 17.8877 0.810601 17.3687L5.44215 4.63189C5.58586 4.2367 5.96144 3.97363 6.38194 3.97363ZM4.65177 12.6578H8.11212L6.38194 7.89981L4.65177 12.6578Z" fill="black"/>
<path d="M14.2107 18.75C14.763 18.75 15.2107 18.3022 15.2107 17.7499C15.2107 17.1977 14.763 16.7499 14.2107 16.7499C13.6585 16.7499 13.2107 17.1977 13.2107 17.7499C13.2107 18.3022 13.6585 18.75 14.2107 18.75Z" fill="black"/>
<path d="M19.2109 17.7499C19.2109 18.3022 18.7632 18.7499 18.2109 18.7499C17.6586 18.7499 17.2109 18.3022 17.2109 17.7499C17.2109 17.1977 17.6586 16.7499 18.2109 16.7499C18.7632 16.7499 19.2109 17.1977 19.2109 17.7499Z" fill="black"/>
<path d="M22.2109 18.7499C22.7632 18.7499 23.2109 18.3022 23.2109 17.7499C23.2109 17.1977 22.7632 16.7499 22.2109 16.7499C21.6586 16.7499 21.2109 17.1977 21.2109 17.7499C21.2109 18.3022 21.6586 18.7499 22.2109 18.7499Z" fill="black"/>
</svg>
