<svg width="24" height="24" viewBox="0 0 24 24" fill="none" xmlns="http://www.w3.org/2000/svg">
<path d="M6.43098 1.2251C6.43098 0.948955 6.20712 0.725098 5.93098 0.725098C5.65483 0.725098 5.43098 0.948955 5.43098 1.2251V11.4104C5.43098 15.0617 8.39091 18.0216 12.0422 18.0216C15.6934 18.0216 18.6534 15.0617 18.6534 11.4104V1.2251C18.6534 0.948955 18.4295 0.725098 18.1534 0.725098C17.8772 0.725098 17.6534 0.948955 17.6534 1.2251V11.4104C17.6534 14.5094 15.1412 17.0216 12.0422 17.0216C8.9432 17.0216 6.43098 14.5094 6.43098 11.4104V1.2251Z" fill="black"/>
<path d="M5.25195 21.7748C4.97581 21.7748 4.75195 21.9987 4.75195 22.2748C4.75195 22.5509 4.97581 22.7748 5.25195 22.7748H18.8324C19.1085 22.7748 19.3324 22.5509 19.3324 22.2748C19.3324 21.9987 19.1085 21.7748 18.8324 21.7748H5.25195Z" fill="black"/>
</svg>
