<svg width="24" height="24" viewBox="0 0 24 24" fill="none" xmlns="http://www.w3.org/2000/svg">
<path d="M2 2.5C1.58579 2.5 1.25 2.16421 1.25 1.75C1.25 1.33579 1.58579 1 2 1L22 1C22.4142 1 22.75 1.33579 22.75 1.75C22.75 2.16421 22.4142 2.5 22 2.5L2 2.5Z" fill="black"/>
<path d="M9.7412 9.97791C9.35346 9.97791 9.15959 9.97791 9.05844 9.89808C8.97044 9.82862 8.91854 9.72313 8.91722 9.61103C8.9157 9.48218 9.03401 9.3286 9.27062 9.02142L11.5296 6.0888C11.6898 5.8809 11.7698 5.77695 11.8674 5.73958C11.9529 5.70683 12.0475 5.70683 12.133 5.73958C12.2305 5.77695 12.3106 5.8809 12.4708 6.0888L14.7298 9.02142C14.9664 9.3286 15.0847 9.48218 15.0832 9.61103C15.0819 9.72313 15.03 9.82862 14.942 9.89808C14.8408 9.97791 14.6469 9.97791 14.2592 9.97791L12.7739 9.9779L12.7739 23.2058C12.7739 23.62 12.4381 23.9558 12.0239 23.9558C11.6097 23.9558 11.2739 23.62 11.2739 23.2058L11.2739 9.97791H9.7412Z" fill="black"/>
</svg>
