<svg width="24" height="24" viewBox="0 0 24 24" fill="none" xmlns="http://www.w3.org/2000/svg">
<path d="M2 22.4779C1.86193 22.4779 1.75 22.5898 1.75 22.7279C1.75 22.866 1.86193 22.9779 2 22.9779H22C22.1381 22.9779 22.25 22.866 22.25 22.7279C22.25 22.5898 22.1381 22.4779 22 22.4779H2Z" fill="black"/>
<path d="M12.2007 19.135C12.1031 19.2327 11.9448 19.2327 11.8471 19.135L5.77322 13.0611C5.67559 12.9635 5.67559 12.8052 5.77322 12.7076C5.87085 12.6099 6.02914 12.6099 6.12678 12.7076L11.7739 18.3547L11.7739 1.27209C11.7739 1.13403 11.8858 1.02209 12.0239 1.02209C12.162 1.02209 12.2739 1.13403 12.2739 1.27209L12.2739 18.3547L17.9211 12.7076C18.0187 12.6099 18.177 12.6099 18.2746 12.7076C18.3722 12.8052 18.3722 12.9635 18.2746 13.0611L12.2007 19.135Z" fill="black"/>
</svg>
