<svg width="24" height="24" viewBox="0 0 24 24" fill="none" xmlns="http://www.w3.org/2000/svg">
<path fill-rule="evenodd" clip-rule="evenodd" d="M6.38189 3.72363C6.90752 3.72363 7.377 4.05247 7.55663 4.54645L12.1882 17.2832C12.4241 17.932 12.0894 18.6492 11.4406 18.8851C10.7918 19.1211 10.0746 18.7864 9.8387 18.1376L8.66423 14.9078H4.09955L2.92508 18.1376C2.68916 18.7864 1.97195 19.1211 1.32316 18.8851C0.674369 18.6492 0.339674 17.932 0.575598 17.2832L5.20715 4.54645C5.38678 4.05247 5.85626 3.72363 6.38189 3.72363ZM5.00864 12.4078H7.75514L6.38189 8.63135L5.00864 12.4078Z" fill="black"/>
<path d="M14.2107 19C14.901 19 15.4607 18.4403 15.4607 17.7499C15.4607 17.0596 14.901 16.4999 14.2107 16.4999C13.5203 16.4999 12.9607 17.0596 12.9607 17.7499C12.9607 18.4403 13.5203 19 14.2107 19Z" fill="black"/>
<path d="M19.4608 17.7499C19.4608 18.4403 18.9012 18.9999 18.2108 18.9999C17.5205 18.9999 16.9608 18.4403 16.9608 17.7499C16.9608 17.0596 17.5205 16.4999 18.2108 16.4999C18.9012 16.4999 19.4608 17.0596 19.4608 17.7499Z" fill="black"/>
<path d="M22.2108 18.9999C22.9012 18.9999 23.4608 18.4403 23.4608 17.7499C23.4608 17.0596 22.9012 16.4999 22.2108 16.4999C21.5205 16.4999 20.9608 17.0596 20.9608 17.7499C20.9608 18.4403 21.5205 18.9999 22.2108 18.9999Z" fill="black"/>
</svg>
