<svg width="24" height="24" viewBox="0 0 24 24" fill="none" xmlns="http://www.w3.org/2000/svg">
<path fill-rule="evenodd" clip-rule="evenodd" d="M3.87874 10.5231C4.30866 8.92627 5.76603 7.75 7.50005 7.75C9.57111 7.75 11.25 9.42893 11.25 11.5V14L11.25 14.005V14.3842C11.25 16.5192 9.51924 18.25 7.38421 18.25H6.39846C4.43121 18.25 2.96988 16.4283 3.39661 14.5079C3.68863 13.1937 4.80152 12.2223 6.1431 12.1105L9.75005 11.8099V11.5C9.75005 10.2574 8.74269 9.25 7.50005 9.25C6.46132 9.25 5.58523 9.95453 5.32717 10.9131C5.21949 11.3131 4.80795 11.55 4.40798 11.4423C4.00801 11.3346 3.77106 10.9231 3.87874 10.5231ZM9.75003 13.3151L6.26766 13.6053C5.5805 13.6626 5.01047 14.1601 4.86089 14.8333C4.64232 15.8169 5.39082 16.75 6.39846 16.75H7.38421C8.69082 16.75 9.75003 15.6908 9.75003 14.3842V13.3151Z" fill="black"/>
<path fill-rule="evenodd" clip-rule="evenodd" d="M20 7.75C20.4142 7.75 20.75 8.08579 20.75 8.5V17.9098C20.75 20.0307 19.0307 21.75 16.9098 21.75C15.4553 21.75 14.1256 20.9282 13.4751 19.6272L13.3292 19.3354C13.1439 18.9649 13.2941 18.5144 13.6646 18.3292C14.0351 18.1439 14.4856 18.2941 14.6708 18.6646L14.8167 18.9564C15.2131 19.7492 16.0234 20.25 16.9098 20.25C18.2023 20.25 19.25 19.2023 19.25 17.9098V16.5003C18.6233 16.971 17.8442 17.25 17 17.25C14.9289 17.25 13.25 15.5711 13.25 13.5V11.5C13.25 9.42893 14.9289 7.75 17 7.75C17.8442 7.75 18.6233 8.02896 19.25 8.49973C19.2501 8.08564 19.5859 7.75 20 7.75ZM19.25 11.5V13.5C19.25 14.7426 18.2426 15.75 17 15.75C15.7574 15.75 14.75 14.7426 14.75 13.5V11.5C14.75 10.2574 15.7574 9.25 17 9.25C18.2426 9.25 19.25 10.2574 19.25 11.5Z" fill="black"/>
</svg>
