<svg width="24" height="24" viewBox="0 0 24 24" fill="none" xmlns="http://www.w3.org/2000/svg">
<path d="M2 12.75C1.58579 12.75 1.25 12.4142 1.25 12C1.25 11.5858 1.58579 11.25 2 11.25L22 11.25C22.4142 11.25 22.75 11.5858 22.75 12C22.75 12.4142 22.4142 12.75 22 12.75L2 12.75Z" fill="black"/>
<path d="M9.38527 6.07099C9.47518 6.00003 9.64751 6.00003 9.99217 6.00003H11.2739L11.2739 1.07996C11.2739 0.665742 11.6097 0.329956 12.0239 0.329956C12.4382 0.329956 12.7739 0.665742 12.7739 1.07996L12.7739 6.00003H14.0082C14.3528 6.00003 14.5251 6.00003 14.6151 6.07099C14.6933 6.13273 14.7394 6.2265 14.7406 6.32614C14.7419 6.44067 14.6368 6.5772 14.4264 6.85024L12.4185 9.45701C12.2761 9.64181 12.2049 9.73422 12.1182 9.76743C12.0422 9.79654 11.9581 9.79654 11.8821 9.76743C11.7954 9.73422 11.7242 9.64181 11.5819 9.45701L9.57388 6.85024C9.36356 6.5772 9.25839 6.44067 9.25974 6.32614C9.26091 6.2265 9.30705 6.13273 9.38527 6.07099Z" fill="black"/>
<path d="M9.38527 17.9291C9.47518 18 9.64751 18 9.99217 18H11.2739L11.2739 22.9201C11.2739 23.3343 11.6097 23.6701 12.0239 23.6701C12.4382 23.6701 12.7739 23.3343 12.7739 22.9201L12.7739 18H14.0082C14.3528 18 14.5251 18 14.6151 17.9291C14.6933 17.8673 14.7394 17.7736 14.7406 17.6739C14.7419 17.5594 14.6368 17.4229 14.4264 17.1498L12.4185 14.5431C12.2761 14.3582 12.2049 14.2658 12.1182 14.2326C12.0422 14.2035 11.9581 14.2035 11.8821 14.2326C11.7954 14.2658 11.7242 14.3582 11.5819 14.5431L9.57388 17.1498C9.36355 17.4229 9.25839 17.5594 9.25974 17.6739C9.26091 17.7736 9.30705 17.8673 9.38527 17.9291Z" fill="black"/>
</svg>
