<svg width="24" height="24" viewBox="0 0 24 24" fill="none" xmlns="http://www.w3.org/2000/svg">
<path d="M2 5.41113C1.86193 5.41113 1.75 5.52306 1.75 5.66113C1.75 5.7992 1.86193 5.91113 2 5.91113H22C22.1381 5.91113 22.25 5.7992 22.25 5.66113C22.25 5.52306 22.1381 5.41113 22 5.41113H2Z" fill="black"/>
<path d="M1.75 12.6611C1.75 12.5231 1.86193 12.4111 2 12.4111H11C11.1381 12.4111 11.25 12.5231 11.25 12.6611C11.25 12.7992 11.1381 12.9111 11 12.9111H2C1.86193 12.9111 1.75 12.7992 1.75 12.6611Z" fill="black"/>
<path d="M1.75 19.6611C1.75 19.5231 1.86193 19.4111 2 19.4111H15C15.1381 19.4111 15.25 19.5231 15.25 19.6611C15.25 19.7992 15.1381 19.9111 15 19.9111H2C1.86193 19.9111 1.75 19.7992 1.75 19.6611Z" fill="black"/>
</svg>
