<svg width="24" height="24" viewBox="0 0 24 24" fill="none" xmlns="http://www.w3.org/2000/svg">
<path d="M2 7.16113C1.72386 7.16113 1.5 7.38499 1.5 7.66113C1.5 7.93728 1.72386 8.16113 2 8.16113H22C22.2761 8.16113 22.5 7.93728 22.5 7.66113C22.5 7.38499 22.2761 7.16113 22 7.16113H2Z" fill="black"/>
<path d="M1.5 12.6611C1.5 12.385 1.72386 12.1611 2 12.1611H11C11.2761 12.1611 11.5 12.385 11.5 12.6611C11.5 12.9373 11.2761 13.1611 11 13.1611H2C1.72386 13.1611 1.5 12.9373 1.5 12.6611Z" fill="black"/>
<path d="M1.5 17.6611C1.5 17.385 1.72386 17.1611 2 17.1611H15C15.2761 17.1611 15.5 17.385 15.5 17.6611C15.5 17.9373 15.2761 18.1611 15 18.1611H2C1.72386 18.1611 1.5 17.9373 1.5 17.6611Z" fill="black"/>
</svg>
