<svg width="24" height="24" viewBox="0 0 24 24" fill="none" xmlns="http://www.w3.org/2000/svg">
<path d="M2 4.41119C1.30964 4.41119 0.75 4.97084 0.75 5.66119C0.75 6.35155 1.30964 6.91119 2 6.91119H22C22.6904 6.91119 23.25 6.35155 23.25 5.66119C23.25 4.97084 22.6904 4.41119 22 4.41119H2Z" fill="black"/>
<path d="M6.75 12.6612C6.75 11.9708 7.30964 11.4112 8 11.4112H16C16.6904 11.4112 17.25 11.9708 17.25 12.6612C17.25 13.3516 16.6904 13.9112 16 13.9112H8C7.30964 13.9112 6.75 13.3516 6.75 12.6612Z" fill="black"/>
<path d="M4.75 19.6612C4.75 18.9708 5.30964 18.4112 6 18.4112H18C18.6904 18.4112 19.25 18.9708 19.25 19.6612C19.25 20.3516 18.6904 20.9112 18 20.9112H6C5.30964 20.9112 4.75 20.3516 4.75 19.6612Z" fill="black"/>
</svg>
