<svg width="24" height="24" viewBox="0 0 24 24" fill="none" xmlns="http://www.w3.org/2000/svg">
<path fill-rule="evenodd" clip-rule="evenodd" d="M7.4216 4.72363C7.52672 4.72363 7.62062 4.7894 7.65654 4.8882L12.2881 17.625C12.3353 17.7547 12.2683 17.8982 12.1386 17.9453C12.0088 17.9925 11.8654 17.9256 11.8182 17.7958L10.3992 13.8937C10.3733 13.9028 10.3454 13.9078 10.3163 13.9078H4.52688C4.49781 13.9078 4.4699 13.9028 4.44395 13.8937L3.02499 17.7958C2.97781 17.9256 2.83437 17.9925 2.70461 17.9453C2.57485 17.8982 2.50791 17.7547 2.5551 17.625L7.18665 4.8882C7.22257 4.7894 7.31647 4.72363 7.4216 4.72363ZM4.62065 13.4078H10.2225L7.4216 5.70518L4.62065 13.4078Z" fill="black"/>
<path fill-rule="evenodd" clip-rule="evenodd" d="M21.2505 7.99996C21.3886 7.99996 21.5005 8.11189 21.5005 8.24996V17.6598C21.5005 19.5045 20.0051 21 18.1604 21C16.8952 21 15.7386 20.2852 15.1728 19.1536L15.0269 18.8618C14.9652 18.7383 15.0152 18.5881 15.1387 18.5264C15.2622 18.4646 15.4124 18.5147 15.4741 18.6382L15.62 18.9299C16.1011 19.8922 17.0846 20.5 18.1604 20.5C19.729 20.5 21.0005 19.2284 21.0005 17.6598V14.9828C20.4249 15.8944 19.4084 16.5 18.2505 16.5C16.4556 16.5 15.0005 15.0449 15.0005 13.25V11.25C15.0005 9.45503 16.4556 7.99996 18.2505 7.99996C19.4084 7.99996 20.4249 8.60547 21.0005 9.51711V8.24996C21.0005 8.11189 21.1125 7.99996 21.2505 7.99996ZM21.0005 11.25V13.25C21.0005 14.7687 19.7693 16 18.2505 16C16.7318 16 15.5005 14.7687 15.5005 13.25V11.25C15.5005 9.73117 16.7318 8.49996 18.2505 8.49996C19.7693 8.49996 21.0005 9.73117 21.0005 11.25Z" fill="black"/>
</svg>
