<svg width="24" height="24" viewBox="0 0 24 24" fill="none" xmlns="http://www.w3.org/2000/svg">
<path d="M1.75 21C1.75 20.8619 1.86193 20.75 2 20.75H12C12.1381 20.75 12.25 20.8619 12.25 21C12.25 21.1381 12.1381 21.25 12 21.25H2C1.86193 21.25 1.75 21.1381 1.75 21Z" fill="black"/>
<path d="M18.75 21C18.75 20.8619 18.8619 20.75 19 20.75H22C22.1381 20.75 22.25 20.8619 22.25 21C22.25 21.1381 22.1381 21.25 22 21.25H19C18.8619 21.25 18.75 21.1381 18.75 21Z" fill="black"/>
<path fill-rule="evenodd" clip-rule="evenodd" d="M7.56565 5.95232C7.67077 5.95232 7.76467 6.01809 7.8006 6.11688L11.2596 15.6293C11.3068 15.759 11.2399 15.9024 11.1101 15.9496C10.9804 15.9968 10.8369 15.9299 10.7897 15.8001L9.74866 12.9371C9.74168 12.9377 9.73463 12.938 9.7275 12.938L5.40369 12.938C5.3966 12.938 5.38958 12.9377 5.38263 12.9372L4.34155 15.8001C4.29437 15.9299 4.15093 15.9968 4.02117 15.9496C3.89141 15.9025 3.82447 15.759 3.87166 15.6293L7.3307 6.11688C7.36663 6.01809 7.46052 5.95232 7.56565 5.95232ZM5.56413 12.438L9.56716 12.438L7.56565 6.93386L5.56413 12.438Z" fill="black"/>
<path fill-rule="evenodd" clip-rule="evenodd" d="M17.8937 8.39919C18.0318 8.39919 18.1437 8.51112 18.1437 8.64919V15.6769C18.1437 17.0895 16.9985 18.2347 15.5858 18.2347C14.617 18.2347 13.7313 17.6873 13.298 16.8208L13.189 16.6029C13.1273 16.4794 13.1773 16.3292 13.3008 16.2674C13.4243 16.2057 13.5745 16.2558 13.6362 16.3792L13.7452 16.5972C14.0938 17.2943 14.8064 17.7347 15.5858 17.7347C16.7224 17.7347 17.6437 16.8134 17.6437 15.6769L17.6437 13.8805C17.1892 14.4838 16.4667 14.8739 15.6532 14.8739C14.2777 14.8739 13.1626 13.7589 13.1626 12.3834V10.8897C13.1626 9.51424 14.2777 8.39919 15.6532 8.39919C16.4667 8.39919 17.1892 8.78929 17.6437 9.39264V8.64919C17.6437 8.51112 17.7556 8.39919 17.8937 8.39919ZM17.6437 10.8897V12.3834C17.6437 13.4827 16.7525 14.3739 15.6532 14.3739C14.5538 14.3739 13.6626 13.4827 13.6626 12.3834V10.8897C13.6626 9.79038 14.5538 8.89919 15.6532 8.89919C16.7525 8.89919 17.6437 9.79038 17.6437 10.8897Z" fill="black"/>
<path d="M2 2.75C1.86193 2.75 1.75 2.86193 1.75 3C1.75 3.13807 1.86193 3.25 2 3.25L22 3.25C22.1381 3.25 22.25 3.13807 22.25 3C22.25 2.86193 22.1381 2.75 22 2.75L2 2.75Z" fill="black"/>
</svg>
