<svg width="24" height="24" viewBox="0 0 24 24" fill="none" xmlns="http://www.w3.org/2000/svg">
<path d="M6.18098 1.2251C6.18098 1.08703 6.06905 0.975098 5.93098 0.975098C5.7929 0.975098 5.68098 1.08703 5.68098 1.2251V11.4104C5.68098 14.9236 8.52898 17.7716 12.0422 17.7716C15.5554 17.7716 18.4034 14.9236 18.4034 11.4104V1.2251C18.4034 1.08703 18.2915 0.975098 18.1534 0.975098C18.0153 0.975098 17.9034 1.08703 17.9034 1.2251V11.4104C17.9034 14.6475 15.2792 17.2716 12.0422 17.2716C8.80513 17.2716 6.18098 14.6475 6.18098 11.4104V1.2251Z" fill="black"/>
<path d="M5.25195 22.0248C5.11388 22.0248 5.00195 22.1367 5.00195 22.2748C5.00195 22.4129 5.11388 22.5248 5.25195 22.5248H18.8324C18.9705 22.5248 19.0824 22.4129 19.0824 22.2748C19.0824 22.1367 18.9705 22.0248 18.8324 22.0248H5.25195Z" fill="black"/>
</svg>
