<svg width="24" height="24" viewBox="0 0 24 24" fill="none" xmlns="http://www.w3.org/2000/svg">
<path fill-rule="evenodd" clip-rule="evenodd" d="M5.92113 3.97363C6.34163 3.97363 6.71722 4.2367 6.86092 4.63189L11.4925 17.3687C11.6812 17.8877 11.4135 18.4614 10.8944 18.6502C10.3754 18.8389 9.80162 18.5712 9.61288 18.0521L8.37858 14.6578H3.46368L2.22937 18.0521C2.04063 18.5712 1.46687 18.8389 0.947836 18.6502C0.428802 18.4614 0.161046 17.8877 0.349785 17.3687L4.98134 4.63189C5.12504 4.2367 5.50062 3.97363 5.92113 3.97363ZM4.19095 12.6578H7.6513L5.92113 7.89981L4.19095 12.6578Z" fill="black"/>
<path d="M18.0789 3.97363C15.2885 3.97363 13.0263 6.23576 13.0263 9.02624V13.6578C13.0263 16.4483 15.2885 18.7104 18.0789 18.7104C20.8694 18.7104 23.1315 16.4483 23.1315 13.6578V11.342C23.1315 10.7897 22.6838 10.342 22.1315 10.342H19.2368C18.6845 10.342 18.2368 10.7897 18.2368 11.342C18.2368 11.8943 18.6845 12.342 19.2368 12.342H21.1315V13.6578C21.1315 15.3437 19.7649 16.7104 18.0789 16.7104C16.393 16.7104 15.0263 15.3437 15.0263 13.6578V9.02624C15.0263 7.34033 16.393 5.97363 18.0789 5.97363C19.5207 5.97363 20.7312 6.97411 21.0496 8.3198C21.1768 8.85724 21.7156 9.18984 22.253 9.06267C22.7905 8.9355 23.1231 8.39673 22.9959 7.85928C22.4688 5.63182 20.4688 3.97363 18.0789 3.97363Z" fill="black"/>
</svg>
