<svg width="24" height="24" viewBox="0 0 24 24" fill="none" xmlns="http://www.w3.org/2000/svg">
<path d="M2 22.4779C1.86193 22.4779 1.75 22.5898 1.75 22.7279C1.75 22.866 1.86193 22.9779 2 22.9779H22C22.1381 22.9779 22.25 22.866 22.25 22.7279C22.25 22.5898 22.1381 22.4779 22 22.4779H2Z" fill="black"/>
<path d="M9.9922 15C9.64754 15 9.47521 15 9.3853 15.071C9.30708 15.1327 9.26094 15.2265 9.25977 15.3261C9.25842 15.4406 9.36358 15.5772 9.57391 15.8502L11.5819 18.457C11.7243 18.6418 11.7954 18.7342 11.8822 18.7674C11.9582 18.7965 12.0422 18.7965 12.1182 18.7674C12.205 18.7342 12.2761 18.6418 12.4185 18.457L14.4265 15.8502C14.6368 15.5772 14.742 15.4406 14.7406 15.3261C14.7394 15.2265 14.6933 15.1327 14.6151 15.071C14.5252 15 14.3529 15 14.0082 15H12.2739L12.2739 1.2721C12.2739 1.13403 12.162 1.0221 12.0239 1.0221C11.8858 1.0221 11.7739 1.13403 11.7739 1.2721L11.7739 15H9.9922Z" fill="black"/>
</svg>
