<svg width="24" height="24" viewBox="0 0 24 24" fill="none" xmlns="http://www.w3.org/2000/svg">
<path fill-rule="evenodd" clip-rule="evenodd" d="M6.59968 1.4502C6.0474 1.4502 5.59968 1.89791 5.59968 2.4502V10.5376C5.59963 10.5416 5.59961 10.5457 5.59961 10.5498V18.6498C5.59961 19.2021 6.04732 19.6498 6.59961 19.6498H13.3496C16.1386 19.6498 18.3996 17.3888 18.3996 14.5998C18.3996 12.6098 17.2485 10.8886 15.5759 10.0658C16.4866 9.15231 17.0497 7.89201 17.0497 6.5002C17.0497 3.71116 14.7887 1.4502 11.9997 1.4502H6.59968ZM7.59961 11.5502H11.9997C12.0209 11.5502 12.042 11.5501 12.0632 11.5498H13.3496C15.0341 11.5498 16.3996 12.9153 16.3996 14.5998C16.3996 16.2843 15.0341 17.6498 13.3496 17.6498H7.59961V11.5502ZM12.049 9.5498C13.7107 9.52345 15.0497 8.16819 15.0497 6.5002C15.0497 4.81573 13.6842 3.4502 11.9997 3.4502H7.59968V9.5498H12.049Z" fill="black"/>
</svg>
