<svg width="24" height="24" viewBox="0 0 24 24" fill="none" xmlns="http://www.w3.org/2000/svg">
<path d="M5.75 11.8426C6.99254 11.8427 8 12.85 8 14.0926C7.99968 15.3349 6.99234 16.3424 5.75 16.3426C4.50774 16.3424 3.50032 15.3348 3.5 14.0926C3.5 12.8501 4.50754 11.8428 5.75 11.8426Z" fill="black"/>
<path d="M12.9502 11.8426C14.1926 11.8428 15.2002 12.8501 15.2002 14.0926C15.1999 15.3348 14.1924 16.3423 12.9502 16.3426C11.708 16.3423 10.7005 15.3348 10.7002 14.0926C10.7002 12.8501 11.7078 11.8428 12.9502 11.8426Z" fill="black"/>
<path fill-rule="evenodd" clip-rule="evenodd" d="M19.8887 2.77616C20.0121 2.71477 20.162 2.76514 20.2236 2.88846C20.2846 3.01174 20.2344 3.16183 20.1113 3.22343L18.25 4.15409V5.99979H22C23.1046 5.99979 24 6.89522 24 7.99979V16.9998C23.9998 18.1042 23.1044 18.9998 22 18.9998H18.25V20.8455L20.1113 21.7762C20.2343 21.838 20.285 21.9879 20.2236 22.1111C20.1619 22.2339 20.0118 22.2843 19.8887 22.2234L18 21.2791L16.1113 22.2234C15.9882 22.2845 15.8382 22.2339 15.7764 22.1111C15.715 21.9878 15.7656 21.838 15.8887 21.7762L17.75 20.8455V18.9998H2C0.895571 18.9998 0.000227622 18.1042 0 16.9998V7.99979C0 6.89522 0.895431 5.99979 2 5.99979H17.75V4.15409L15.8887 3.22343C15.7657 3.16178 15.7154 3.0117 15.7764 2.88846C15.838 2.76517 15.9879 2.71487 16.1113 2.77616L18 3.7205L19.8887 2.77616ZM17.75 5.99979V18.9998H18.25V5.99979H17.75ZM8.25195 11.2498C8.11398 11.2498 8.00205 11.3618 8.00195 11.4998V12.5174C7.50468 11.8078 6.68223 11.3426 5.75 11.3426C4.2314 11.3428 3 12.5739 3 14.0926C3.00032 15.6109 4.2316 16.8424 5.75 16.8426C6.682 16.8425 7.50464 16.377 8.00195 15.6678V16.5926C8.00227 16.7303 8.11412 16.8425 8.25195 16.8426C8.38973 16.8424 8.50163 16.7303 8.50195 16.5926V11.4998C8.50185 11.3619 8.38986 11.2499 8.25195 11.2498ZM10.4072 8.74979C10.2695 8.75013 10.1573 8.86201 10.1572 8.99979L10.1562 16.5926C10.1566 16.73 10.2689 16.842 10.4062 16.8426C10.5439 16.8423 10.6569 16.7302 10.6572 16.5926V15.6092C11.1495 16.3517 11.9926 16.8424 12.9502 16.8426C14.4686 16.8423 15.6999 15.6109 15.7002 14.0926C15.7002 12.5739 14.4688 11.3428 12.9502 11.3426C11.9924 11.3427 11.1495 11.8332 10.6572 12.576V8.99979C10.6571 8.86198 10.545 8.75007 10.4072 8.74979Z" fill="black"/>
</svg>
