<svg width="24" height="24" viewBox="0 0 24 24" fill="none" xmlns="http://www.w3.org/2000/svg">
<path d="M1.75 21C1.75 20.8619 1.86193 20.75 2 20.75H22C22.1381 20.75 22.25 20.8619 22.25 21C22.25 21.1381 22.1381 21.25 22 21.25H2C1.86193 21.25 1.75 21.1381 1.75 21Z" fill="black"/>
<path fill-rule="evenodd" clip-rule="evenodd" d="M7.56562 5.95232C7.67074 5.95232 7.76464 6.01809 7.80057 6.11688L11.2596 15.6293C11.3068 15.759 11.2399 15.9025 11.1101 15.9496C10.9803 15.9968 10.8369 15.9299 10.7897 15.8001L9.74862 12.9371C9.74167 12.9377 9.73463 12.938 9.72752 12.938H5.40372C5.39661 12.938 5.38957 12.9377 5.38261 12.9371L4.34152 15.8001C4.29434 15.9299 4.1509 15.9968 4.02114 15.9496C3.89138 15.9025 3.82444 15.759 3.87163 15.6293L7.33067 6.11688C7.3666 6.01809 7.46049 5.95232 7.56562 5.95232ZM5.56411 12.438L9.56712 12.438L7.56562 6.93386L5.56411 12.438Z" fill="black"/>
<path fill-rule="evenodd" clip-rule="evenodd" d="M17.8937 8.39921C18.0317 8.39921 18.1437 8.51114 18.1437 8.64921V15.6769C18.1437 17.0896 16.9985 18.2348 15.5858 18.2348C14.6169 18.2348 13.7312 17.6874 13.298 16.8208L13.189 16.6029C13.1272 16.4794 13.1773 16.3292 13.3008 16.2675C13.4243 16.2057 13.5745 16.2558 13.6362 16.3793L13.7452 16.5972C14.0938 17.2944 14.8063 17.7348 15.5858 17.7348C16.7223 17.7348 17.6437 16.8134 17.6437 15.6769L17.6437 13.8805C17.1892 14.4839 16.4667 14.874 15.6531 14.874C14.2776 14.874 13.1626 13.7589 13.1626 12.3834V10.8897C13.1626 9.51426 14.2776 8.39921 15.6531 8.39921C16.4667 8.39921 17.1892 8.78931 17.6437 9.39266V8.64921C17.6437 8.51114 17.7556 8.39921 17.8937 8.39921ZM17.6437 10.8897V12.3834C17.6437 13.4828 16.7525 14.374 15.6531 14.374C14.5538 14.374 13.6626 13.4828 13.6626 12.3834V10.8897C13.6626 9.7904 14.5538 8.89921 15.6531 8.89921C16.7525 8.89921 17.6437 9.7904 17.6437 10.8897Z" fill="black"/>
<path d="M2 2.75C1.86193 2.75 1.75 2.86193 1.75 3C1.75 3.13807 1.86193 3.25 2 3.25L22 3.25C22.1381 3.25 22.25 3.13807 22.25 3C22.25 2.86193 22.1381 2.75 22 2.75L2 2.75Z" fill="black"/>
</svg>
