<svg width="24" height="24" viewBox="0 0 24 24" fill="none" xmlns="http://www.w3.org/2000/svg">
<path fill-rule="evenodd" clip-rule="evenodd" d="M12.9731 1.81934C15.9777 1.81952 18.4144 4.25518 18.4146 7.25977C18.4144 8.98279 17.611 10.5167 16.3608 11.5137C18.4684 12.2635 19.9779 14.2758 19.978 16.6406C19.9779 19.6451 17.542 22.0816 14.5376 22.082H6.71924C6.30519 22.082 5.96951 21.746 5.96924 21.332V2.56934C5.96924 2.15512 6.30502 1.81934 6.71924 1.81934H12.9731ZM12.9731 12.7012H7.46924V20.582H14.5376C16.7136 20.5816 18.4779 18.8167 18.478 16.6406C18.4778 14.4646 16.7135 12.7007 14.5376 12.7002H13.0083C12.9966 12.7003 12.9849 12.7012 12.9731 12.7012ZM7.46924 11.2002H13.0063C15.1672 11.1822 16.9143 9.42478 16.9146 7.25977C16.9144 5.08361 15.1493 3.31952 12.9731 3.31934H7.46924V11.2002Z" fill="black"/>
</svg>
