<svg width="24" height="24" viewBox="0 0 24 24" fill="none" xmlns="http://www.w3.org/2000/svg">
<path fill-rule="evenodd" clip-rule="evenodd" d="M6.88158 3.97363C7.30208 3.97363 7.67767 4.2367 7.82137 4.63189L12.4529 17.3687C12.6417 17.8877 12.3739 18.4614 11.8549 18.6502C11.3358 18.8389 10.7621 18.5712 10.5733 18.0521L9.33902 14.6578H4.42413L3.18982 18.0521C3.00108 18.5712 2.42732 18.8389 1.90828 18.6502C1.38925 18.4614 1.1215 17.8877 1.31023 17.3687L5.94178 4.63189C6.08549 4.2367 6.46107 3.97363 6.88158 3.97363ZM5.1514 12.6578H8.61175L6.88158 7.89981L5.1514 12.6578Z" fill="black"/>
<path d="M17.71 7.49995C14.9634 7.49995 12.71 9.69576 12.71 12.4375V13.5625C12.71 16.3041 14.9634 18.5 17.71 18.5C20.4565 18.5 22.71 16.3041 22.71 13.5625C22.71 13.0102 22.2622 12.5625 21.71 12.5625L18.8528 12.5625C18.3005 12.5625 17.8528 13.0102 17.8528 13.5625C17.8528 14.1147 18.3005 14.5625 18.8528 14.5625L20.5311 14.5625C20.1151 15.6862 19.0176 16.5 17.71 16.5C16.0382 16.5 14.71 15.17 14.71 13.5625V12.4375C14.71 10.8299 16.0382 9.49995 17.71 9.49995C18.9019 9.49995 19.9253 10.179 20.4101 11.1553C20.6557 11.65 21.2558 11.8519 21.7505 11.6063C22.2452 11.3606 22.447 10.7605 22.2014 10.2659C21.3862 8.6241 19.6778 7.49995 17.71 7.49995Z" fill="black"/>
</svg>
