<svg width="24" height="24" viewBox="0 0 24 24" fill="none" xmlns="http://www.w3.org/2000/svg">
<path fill-rule="evenodd" clip-rule="evenodd" d="M6.38175 4.22363C6.69713 4.22363 6.97882 4.42093 7.0866 4.71733L11.7181 17.4541C11.8597 17.8434 11.6589 18.2737 11.2696 18.4152C10.8803 18.5568 10.45 18.356 10.3085 17.9667L9.01431 14.4078H3.7492L2.45505 17.9667C2.31349 18.356 1.88317 18.5568 1.4939 18.4152C1.10462 18.2737 0.903804 17.8434 1.04536 17.4541L5.67691 4.71733C5.78469 4.42093 6.06637 4.22363 6.38175 4.22363ZM4.29465 12.9078H8.46885L6.38175 7.16826L4.29465 12.9078Z" fill="black"/>
<path d="M14.2106 17.9999C14.6248 17.9999 14.9606 17.6642 14.9606 17.2499C14.9606 16.8357 14.6248 16.4999 14.2106 16.4999C13.7964 16.4999 13.4606 16.8357 13.4606 17.2499C13.4606 17.6642 13.7964 17.9999 14.2106 17.9999Z" fill="black"/>
<path d="M18.9607 17.2499C18.9607 17.6642 18.6249 17.9999 18.2107 17.9999C17.7965 17.9999 17.4607 17.6642 17.4607 17.2499C17.4607 16.8357 17.7965 16.4999 18.2107 16.4999C18.6249 16.4999 18.9607 16.8357 18.9607 17.2499Z" fill="black"/>
<path d="M22.2107 17.9999C22.6249 17.9999 22.9607 17.6642 22.9607 17.2499C22.9607 16.8357 22.6249 16.4999 22.2107 16.4999C21.7965 16.4999 21.4607 16.8357 21.4607 17.2499C21.4607 17.6642 21.7965 17.9999 22.2107 17.9999Z" fill="black"/>
</svg>
