<svg width="24" height="24" viewBox="0 0 24 24" fill="none" xmlns="http://www.w3.org/2000/svg">
<path d="M1 21C1 20.4477 1.44772 20 2 20H12C12.5523 20 13 20.4477 13 21C13 21.5523 12.5523 22 12 22H2C1.44772 22 1 21.5523 1 21Z" fill="black"/>
<path d="M18 21C18 20.4477 18.4477 20 19 20H22C22.5523 20 23 20.4477 23 21C23 21.5523 22.5523 22 22 22H19C18.4477 22 18 21.5523 18 21Z" fill="black"/>
<path fill-rule="evenodd" clip-rule="evenodd" d="M7.56565 5.20232C7.98616 5.20232 8.36174 5.46539 8.50544 5.86058L11.9645 15.3729C12.1532 15.892 11.8855 16.4657 11.3664 16.6545C10.8474 16.8432 10.2736 16.5755 10.0849 16.0564L9.22366 13.688L5.90764 13.688L5.0464 16.0564C4.85766 16.5755 4.2839 16.8432 3.76486 16.6545C3.24583 16.4657 2.97807 15.892 3.16681 15.3729L6.62586 5.86058C6.76956 5.46539 7.14514 5.20232 7.56565 5.20232ZM6.63491 11.688H8.49639L7.56565 9.12849L6.63491 11.688Z" fill="black"/>
<path fill-rule="evenodd" clip-rule="evenodd" d="M17.8937 7.64919C18.446 7.64919 18.8937 8.09691 18.8937 8.64919V15.6769C18.8937 17.5037 17.4127 18.9847 15.5858 18.9847C14.3329 18.9847 13.1875 18.2768 12.6272 17.1562L12.5182 16.9383C12.2712 16.4443 12.4714 15.8436 12.9654 15.5966C13.4594 15.3496 14.0601 15.5499 14.3071 16.0438L14.416 16.2618C14.6376 16.7048 15.0904 16.9847 15.5858 16.9847C16.3081 16.9847 16.8937 16.3992 16.8937 15.6769V15.378C16.5116 15.5365 16.0926 15.6239 15.6532 15.6239C13.8635 15.6239 12.4126 14.1731 12.4126 12.3834L12.4126 10.8897C12.4126 9.10003 13.8635 7.64919 15.6532 7.64919C16.1849 7.64919 16.6867 7.77726 17.1294 8.00423C17.3129 7.78709 17.5872 7.64919 17.8937 7.64919ZM16.8937 10.8897V12.3834C16.8937 13.0685 16.3383 13.6239 15.6532 13.6239C14.968 13.6239 14.4126 13.0685 14.4126 12.3834L14.4126 10.8897C14.4126 10.2046 14.968 9.64919 15.6532 9.64919C16.3383 9.64919 16.8937 10.2046 16.8937 10.8897Z" fill="black"/>
<path d="M2 2C1.44772 2 1 2.44772 1 3C1 3.55229 1.44772 4 2 4L22 4C22.5523 4 23 3.55229 23 3C23 2.44772 22.5523 2 22 2L2 2Z" fill="black"/>
</svg>
