<svg width="24" height="24" viewBox="0 0 24 24" fill="none" xmlns="http://www.w3.org/2000/svg">
<path fill-rule="evenodd" clip-rule="evenodd" d="M6.38187 4.47363C6.59212 4.47363 6.77991 4.60517 6.85177 4.80276L11.4833 17.5395C11.5777 17.799 11.4438 18.0859 11.1843 18.1803C10.9248 18.2747 10.6379 18.1408 10.5435 17.8813L9.18953 14.1578H3.57421L2.22022 17.8813C2.12585 18.1408 1.83896 18.2747 1.57945 18.1803C1.31993 18.0859 1.18605 17.799 1.28042 17.5395L5.91197 4.80276C5.98382 4.60517 6.17162 4.47363 6.38187 4.47363ZM3.93784 13.1578H8.82589L6.38187 6.43672L3.93784 13.1578Z" fill="black"/>
<path d="M14.2107 17.875C14.5559 17.875 14.8357 17.5951 14.8357 17.25C14.8357 16.9048 14.5559 16.625 14.2107 16.625C13.8655 16.625 13.5857 16.9048 13.5857 17.25C13.5857 17.5951 13.8655 17.875 14.2107 17.875Z" fill="black"/>
<path d="M18.8358 17.2499C18.8358 17.5951 18.5559 17.8749 18.2108 17.8749C17.8656 17.8749 17.5858 17.5951 17.5858 17.2499C17.5858 16.9048 17.8656 16.6249 18.2108 16.6249C18.5559 16.6249 18.8358 16.9048 18.8358 17.2499Z" fill="black"/>
<path d="M22.2108 17.8749C22.5559 17.8749 22.8358 17.5951 22.8358 17.2499C22.8358 16.9048 22.5559 16.6249 22.2108 16.6249C21.8656 16.6249 21.5858 16.9048 21.5858 17.2499C21.5858 17.5951 21.8656 17.8749 22.2108 17.8749Z" fill="black"/>
</svg>
