<svg width="24" height="24" viewBox="0 0 24 24" fill="none" xmlns="http://www.w3.org/2000/svg">
<path d="M2 1.5221C1.86193 1.5221 1.75 1.41017 1.75 1.2721C1.75 1.13402 1.86193 1.02209 2 1.02209L22 1.0221C22.1381 1.0221 22.25 1.13402 22.25 1.2721C22.25 1.41017 22.1381 1.5221 22 1.5221H2Z" fill="black"/>
<path d="M12.2007 4.86494C12.1031 4.76731 11.9448 4.76731 11.8471 4.86494L5.77322 10.9389C5.67559 11.0365 5.67559 11.1948 5.77322 11.2924C5.87085 11.39 6.02914 11.39 6.12678 11.2924L11.7739 5.64527L11.7739 22.7279C11.7739 22.866 11.8858 22.9779 12.0239 22.9779C12.162 22.9779 12.2739 22.866 12.2739 22.7279L12.2739 5.64527L17.9211 11.2924C18.0187 11.39 18.177 11.39 18.2746 11.2924C18.3722 11.1948 18.3722 11.0365 18.2746 10.9389L12.2007 4.86494Z" fill="black"/>
</svg>
