<svg width="24" height="24" viewBox="0 0 24 24" fill="none" xmlns="http://www.w3.org/2000/svg">
<path d="M2.25 5.75V2.75C2.25 2.55109 2.32902 2.36032 2.46967 2.21967C2.61032 2.07902 2.80109 2 3 2L11.9981 2L12 2L12.0019 2L21 2C21.4142 2 21.75 2.33579 21.75 2.75V5.75C21.75 6.16421 21.4142 6.5 21 6.5C20.5858 6.5 20.25 6.16421 20.25 5.75V3.5L12.75 3.5L12.75 21H16C16.4142 21 16.75 21.3358 16.75 21.75C16.75 22.1642 16.4142 22.5 16 22.5H8C7.58579 22.5 7.25 22.1642 7.25 21.75C7.25 21.3358 7.58579 21 8 21H11.25L11.25 3.5L3.75 3.5V5.75C3.75 6.16421 3.41421 6.5 3 6.5C2.58579 6.5 2.25 6.16421 2.25 5.75Z" fill="black"/>
</svg>
