<svg width="24" height="24" viewBox="0 0 24 24" fill="none" xmlns="http://www.w3.org/2000/svg">
<path fill-rule="evenodd" clip-rule="evenodd" d="M12.9846 1.60449C16.1176 1.60465 18.6583 4.14438 18.6584 7.27734C18.6583 8.92059 17.9578 10.3994 16.8411 11.4355C18.8288 12.3176 20.2159 14.3083 20.2161 16.623C20.2159 19.7559 17.676 22.2964 14.5432 22.2969H6.75415C6.20205 22.2969 5.75445 21.8489 5.75415 21.2969V2.60449C5.75415 2.05221 6.20187 1.60449 6.75415 1.60449H12.9846ZM12.9846 12.9512H7.75415V20.2969H14.5432C16.5714 20.2964 18.2159 18.6513 18.2161 16.623C18.2159 14.5948 16.5713 12.9507 14.5432 12.9502H13.0208C13.0087 12.9503 12.9967 12.9512 12.9846 12.9512ZM7.75415 10.9502H13.0227C15.0335 10.9296 16.6582 9.29298 16.6584 7.27734C16.6583 5.24895 15.013 3.60465 12.9846 3.60449H7.75415V10.9502Z" fill="black"/>
</svg>
