<svg width="24" height="24" viewBox="0 0 24 24" fill="none" xmlns="http://www.w3.org/2000/svg">
<path fill-rule="evenodd" clip-rule="evenodd" d="M5.92111 4.47363C6.13137 4.47363 6.31916 4.60517 6.39101 4.80276L11.0226 17.5395C11.1169 17.799 10.9831 18.0859 10.7235 18.1803C10.464 18.2747 10.1771 18.1408 10.0828 17.8813L8.72878 14.1578H3.11345L1.75946 17.8813C1.66509 18.1408 1.37821 18.2747 1.11869 18.1803C0.859176 18.0859 0.725298 17.799 0.819668 17.5395L5.45122 4.80276C5.52307 4.60517 5.71086 4.47363 5.92111 4.47363ZM3.47709 13.1578H8.36514L5.92111 6.43672L3.47709 13.1578Z" fill="black"/>
<path d="M18.0789 4.47363C15.5646 4.47363 13.5263 6.5119 13.5263 9.02624V13.6578C13.5263 16.1721 15.5646 18.2104 18.0789 18.2104C20.5933 18.2104 22.6315 16.1721 22.6315 13.6578V11.342C22.6315 11.0659 22.4077 10.842 22.1315 10.842L19.2368 10.842C18.9607 10.842 18.7368 11.0659 18.7368 11.342C18.7368 11.6182 18.9607 11.842 19.2368 11.842L21.6315 11.842V13.6578C21.6315 15.6198 20.041 17.2104 18.0789 17.2104C16.1169 17.2104 14.5263 15.6198 14.5263 13.6578V9.02624C14.5263 7.06419 16.1169 5.47363 18.0789 5.47363C19.7577 5.47363 21.1656 6.63853 21.5362 8.20467C21.5998 8.47339 21.8692 8.63969 22.1379 8.57611C22.4066 8.51252 22.5729 8.24314 22.5093 7.97441C22.0344 5.96739 20.2317 4.47363 18.0789 4.47363Z" fill="black"/>
</svg>
