<svg width="24" height="24" viewBox="0 0 24 24" fill="none" xmlns="http://www.w3.org/2000/svg">
<path d="M2 13.25C1.30964 13.25 0.75 12.6903 0.75 12C0.75 11.3096 1.30964 10.75 2 10.75L22 10.75C22.6904 10.75 23.25 11.3096 23.25 12C23.25 12.6903 22.6904 13.25 22 13.25L2 13.25Z" fill="black"/>
<path d="M9.90781 4.86607C9.41965 4.37792 8.6282 4.37792 8.14004 4.86607C7.65189 5.35423 7.65189 6.14568 8.14004 6.63384L11.14 9.63384C11.6282 10.122 12.4197 10.122 12.9078 9.63384L15.9078 6.63384C16.396 6.14568 16.396 5.35423 15.9078 4.86607C15.4197 4.37792 14.6282 4.37792 14.14 4.86607L13.2739 5.73219L13.2739 2.0799C13.2739 1.38954 12.7143 0.829895 12.0239 0.829895C11.3336 0.829895 10.7739 1.38954 10.7739 2.0799L10.7739 5.73219L9.90781 4.86607Z" fill="black"/>
<path d="M12.9078 14.3661C12.4197 13.878 11.6282 13.878 11.14 14.3661L8.14004 17.3661C7.65189 17.8543 7.65189 18.6457 8.14004 19.1339C8.6282 19.6221 9.41965 19.6221 9.90781 19.1339L10.7739 18.2678V21.9201C10.7739 22.6104 11.3336 23.1701 12.0239 23.1701C12.7143 23.1701 13.2739 22.6104 13.2739 21.9201V18.2678L14.14 19.1339C14.6282 19.6221 15.4197 19.6221 15.9078 19.1339C16.396 18.6457 16.396 17.8543 15.9078 17.3661L12.9078 14.3661Z" fill="black"/>
</svg>
