<svg width="24" height="24" viewBox="0 0 24 24" fill="none" xmlns="http://www.w3.org/2000/svg">
<path d="M2 4.91119C1.58579 4.91119 1.25 5.24698 1.25 5.66119C1.25 6.07541 1.58579 6.41119 2 6.41119H22C22.4142 6.41119 22.75 6.07541 22.75 5.66119C22.75 5.24698 22.4142 4.91119 22 4.91119H2Z" fill="black"/>
<path d="M1.25 12.6612C1.25 12.247 1.58579 11.9112 2 11.9112H11C11.4142 11.9112 11.75 12.247 11.75 12.6612C11.75 13.0754 11.4142 13.4112 11 13.4112H2C1.58579 13.4112 1.25 13.0754 1.25 12.6612Z" fill="black"/>
<path d="M1.25 19.6612C1.25 19.247 1.58579 18.9112 2 18.9112H15C15.4142 18.9112 15.75 19.247 15.75 19.6612C15.75 20.0754 15.4142 20.4112 15 20.4112H2C1.58579 20.4112 1.25 20.0754 1.25 19.6612Z" fill="black"/>
</svg>
