<svg width="24" height="24" viewBox="0 0 24 24" fill="none" xmlns="http://www.w3.org/2000/svg">
<path d="M1.25 21C1.25 20.5858 1.58579 20.25 2 20.25H12C12.4142 20.25 12.75 20.5858 12.75 21C12.75 21.4142 12.4142 21.75 12 21.75H2C1.58579 21.75 1.25 21.4142 1.25 21Z" fill="black"/>
<path d="M18.25 21C18.25 20.5858 18.5858 20.25 19 20.25H22C22.4142 20.25 22.75 20.5858 22.75 21C22.75 21.4142 22.4142 21.75 22 21.75H19C18.5858 21.75 18.25 21.4142 18.25 21Z" fill="black"/>
<path fill-rule="evenodd" clip-rule="evenodd" d="M7.56565 5.45232C7.88103 5.45232 8.16271 5.64962 8.27049 5.94601L11.7295 15.4584C11.8711 15.8477 11.6703 16.278 11.281 16.4195C10.8917 16.5611 10.4614 16.3603 10.3198 15.971L9.39877 13.438H5.73253L4.81145 15.971C4.6699 16.3603 4.23957 16.5611 3.8503 16.4195C3.46102 16.278 3.26021 15.8477 3.40176 15.4584L6.8608 5.94601C6.96858 5.64962 7.25027 5.45232 7.56565 5.45232ZM6.27798 11.938H8.85331L7.56565 8.39695L6.27798 11.938Z" fill="black"/>
<path fill-rule="evenodd" clip-rule="evenodd" d="M17.8937 7.89919C18.3079 7.89919 18.6437 8.23498 18.6437 8.64919V15.6769C18.6437 17.3657 17.2746 18.7347 15.5858 18.7347C14.4276 18.7347 13.3688 18.0803 12.8508 17.0444L12.7418 16.8265C12.5566 16.456 12.7067 16.0055 13.0772 15.8202C13.4477 15.635 13.8982 15.7852 14.0835 16.1556L14.1924 16.3736C14.4563 16.9013 14.9957 17.2347 15.5858 17.2347C16.4462 17.2347 17.1437 16.5373 17.1437 15.6769V14.9766C16.7049 15.2294 16.1959 15.3739 15.6532 15.3739C14.0015 15.3739 12.6626 14.035 12.6626 12.3834V10.8897C12.6626 9.2381 14.0015 7.89919 15.6532 7.89919C16.2242 7.89919 16.7578 8.05922 17.2116 8.33687C17.3301 8.07858 17.5909 7.89919 17.8937 7.89919ZM17.1437 10.8897V12.3834C17.1437 13.2066 16.4764 13.8739 15.6532 13.8739C14.83 13.8739 14.1626 13.2066 14.1626 12.3834V10.8897C14.1626 10.0665 14.83 9.39919 15.6532 9.39919C16.4764 9.39919 17.1437 10.0665 17.1437 10.8897Z" fill="black"/>
<path d="M2 2.25C1.58579 2.25 1.25 2.58579 1.25 3C1.25 3.41421 1.58579 3.75 2 3.75L22 3.75C22.4142 3.75 22.75 3.41422 22.75 3C22.75 2.58579 22.4142 2.25 22 2.25L2 2.25Z" fill="black"/>
</svg>
