<svg width="24" height="24" viewBox="0 0 24 24" fill="none" xmlns="http://www.w3.org/2000/svg">
<path fill-rule="evenodd" clip-rule="evenodd" d="M6.38186 4.72363C6.48699 4.72363 6.58088 4.7894 6.61681 4.8882L11.2484 17.625C11.2955 17.7547 11.2286 17.8982 11.0988 17.9453C10.9691 17.9925 10.8256 17.9256 10.7785 17.7958L9.35951 13.8937C9.33356 13.9028 9.30565 13.9078 9.27658 13.9078H3.48714C3.45807 13.9078 3.43017 13.9028 3.40421 13.8937L1.98526 17.7958C1.93808 17.9256 1.79463 17.9925 1.66488 17.9453C1.53512 17.8982 1.46818 17.7547 1.51536 17.625L6.14691 4.8882C6.18284 4.7894 6.27674 4.72363 6.38186 4.72363ZM3.58091 13.4078H9.18281L6.38186 5.70518L3.58091 13.4078Z" fill="black"/>
<path d="M14.2106 17.75C14.4868 17.75 14.7106 17.5261 14.7106 17.25C14.7106 16.9738 14.4868 16.75 14.2106 16.75C13.9345 16.75 13.7106 16.9738 13.7106 17.25C13.7106 17.5261 13.9345 17.75 14.2106 17.75Z" fill="black"/>
<path d="M18.7107 17.2499C18.7107 17.5261 18.4868 17.7499 18.2107 17.7499C17.9346 17.7499 17.7107 17.5261 17.7107 17.2499C17.7107 16.9738 17.9346 16.7499 18.2107 16.7499C18.4868 16.7499 18.7107 16.9738 18.7107 17.2499Z" fill="black"/>
<path d="M22.2107 17.7499C22.4868 17.7499 22.7107 17.5261 22.7107 17.2499C22.7107 16.9738 22.4868 16.7499 22.2107 16.7499C21.9346 16.7499 21.7107 16.9738 21.7107 17.2499C21.7107 17.5261 21.9346 17.7499 22.2107 17.7499Z" fill="black"/>
</svg>
