<svg width="24" height="24" viewBox="0 0 24 24" fill="none" xmlns="http://www.w3.org/2000/svg">
<path d="M5.25 9C4.97386 9 4.75 9.22386 4.75 9.5C4.75 9.77614 4.97386 10 5.25 10L17.25 10C17.5261 10 17.75 9.77614 17.75 9.5C17.75 9.22386 17.5261 9 17.25 9L5.25 9Z" fill="black"/>
<path d="M12.0194 0.950195C13.6061 0.950195 15.0539 1.85478 15.7495 3.28077C15.8706 3.52896 15.7676 3.8283 15.5194 3.94938C15.2712 4.07045 14.9719 3.96741 14.8508 3.71923C14.3227 2.63683 13.2238 1.9502 12.0194 1.9502H10.9002C8.93956 1.9502 7.35017 3.53958 7.35017 5.5002C7.35017 6.47521 7.74324 7.35842 8.37956 8H7.09779C6.62519 7.2826 6.35017 6.42352 6.35017 5.5002C6.35017 2.9873 8.38728 0.950195 10.9002 0.950195L12.0194 0.950195Z" fill="black"/>
<path d="M14.7199 11H16.0189C16.512 11.7274 16.8001 12.605 16.8001 13.55C16.8001 16.0629 14.763 18.1 12.2501 18.1H9.73689C8.39075 18.1 7.13955 17.4065 6.4261 16.265C6.27974 16.0308 6.35093 15.7224 6.5851 15.576C6.81927 15.4296 7.12774 15.5008 7.2741 15.735C7.80481 16.5841 8.73554 17.1 9.73689 17.1H12.2501C14.2107 17.1 15.8001 15.5106 15.8001 13.55C15.8001 12.5493 15.386 11.6453 14.7199 11Z" fill="black"/>
</svg>
