<svg width="24" height="24" viewBox="0 0 24 24" fill="none" xmlns="http://www.w3.org/2000/svg">
<path d="M2 4.41119C1.30964 4.41119 0.75 4.97084 0.75 5.66119C0.75 6.35155 1.30964 6.91119 2 6.91119H22C22.6904 6.91119 23.25 6.35155 23.25 5.66119C23.25 4.97084 22.6904 4.41119 22 4.41119H2Z" fill="black"/>
<path d="M0.75 12.6612C0.75 11.9708 1.30964 11.4112 2 11.4112H11C11.6904 11.4112 12.25 11.9708 12.25 12.6612C12.25 13.3516 11.6904 13.9112 11 13.9112H2C1.30964 13.9112 0.75 13.3516 0.75 12.6612Z" fill="black"/>
<path d="M0.75 19.6612C0.75 18.9708 1.30964 18.4112 2 18.4112H15C15.6904 18.4112 16.25 18.9708 16.25 19.6612C16.25 20.3516 15.6904 20.9112 15 20.9112H2C1.30964 20.9112 0.75 20.3516 0.75 19.6612Z" fill="black"/>
</svg>
