<svg width="24" height="24" viewBox="0 0 24 24" fill="none" xmlns="http://www.w3.org/2000/svg">
<path d="M21.0074 1.53895H14.7852C14.7776 1.53877 14.77 1.53878 14.7625 1.53895H7.15556C6.87941 1.53895 6.65556 1.76281 6.65556 2.03895C6.65556 2.31509 6.87941 2.53895 7.15556 2.53895H14.1074L9.55093 18.1612H3C2.72386 18.1612 2.5 18.385 2.5 18.6612C2.5 18.9373 2.72386 19.1612 3 19.1612H9.91481C9.92239 19.1613 9.92995 19.1613 9.93749 19.1612H16.8519C17.128 19.1612 17.3519 18.9373 17.3519 18.6612C17.3519 18.385 17.128 18.1612 16.8519 18.1612H10.5926L15.1491 2.53895H21.0074C21.2835 2.53895 21.5074 2.31509 21.5074 2.03895C21.5074 1.76281 21.2835 1.53895 21.0074 1.53895Z" fill="black"/>
</svg>
