<svg width="24" height="25" viewBox="0 0 24 25" fill="none" xmlns="http://www.w3.org/2000/svg">
<path d="M2 13.4201C1.30964 13.4201 0.75 12.8604 0.75 12.1701C0.75 11.4797 1.30964 10.9201 2 10.9201L22 10.9201C22.6904 10.9201 23.25 11.4797 23.25 12.1701C23.25 12.8604 22.6904 13.4201 22 13.4201L2 13.4201Z" fill="black"/>
<path d="M8.7314 19.0814C8.84379 19.1701 9.0592 19.1701 9.49002 19.1701H10.7739L10.7739 23.0902C10.7739 23.7805 11.3336 24.3402 12.0239 24.3402C12.7143 24.3402 13.2739 23.7805 13.2739 23.0902L13.2739 19.1701H14.51C14.9408 19.1701 15.1563 19.1701 15.2686 19.0814C15.3664 19.0042 15.4241 18.887 15.4256 18.7624C15.4272 18.6193 15.2958 18.4486 15.0329 18.1073L12.5229 14.8489C12.3449 14.6178 12.256 14.5023 12.1476 14.4608C12.0526 14.4244 11.9475 14.4244 11.8525 14.4608C11.7441 14.5023 11.6551 14.6178 11.4772 14.8489L8.96716 18.1073C8.70425 18.4486 8.5728 18.6193 8.57449 18.7624C8.57595 18.887 8.63363 19.0042 8.7314 19.0814Z" fill="black"/>
<path d="M8.73149 5.25878C8.84387 5.17008 9.05929 5.17008 9.49011 5.17008H10.7739V1.25C10.7739 0.559643 11.3336 -3.01755e-08 12.0239 0C12.7143 3.01773e-08 13.2739 0.559643 13.2739 1.25V5.17008H14.5101C14.9409 5.17008 15.1563 5.17008 15.2687 5.25878C15.3665 5.33595 15.4242 5.45317 15.4256 5.57772C15.4273 5.72088 15.2959 5.89153 15.033 6.23284L12.523 9.4913C12.345 9.72231 12.2561 9.83781 12.1476 9.87933C12.0527 9.91571 11.9476 9.91571 11.8526 9.87933C11.7442 9.83781 11.6552 9.72231 11.4773 9.49132L8.96725 6.23284C8.70434 5.89153 8.57289 5.72088 8.57457 5.57772C8.57604 5.45317 8.63371 5.33595 8.73149 5.25878Z" fill="black"/>
</svg>
