<svg width="24" height="24" viewBox="0 0 24 24" fill="none" xmlns="http://www.w3.org/2000/svg">
<path d="M6.93098 1.2251C6.93098 0.672813 6.48326 0.225098 5.93098 0.225098C5.37869 0.225098 4.93098 0.672813 4.93098 1.2251V11.4104C4.93098 15.3378 8.11477 18.5216 12.0422 18.5216C15.9696 18.5216 19.1534 15.3378 19.1534 11.4104V1.2251C19.1534 0.672813 18.7057 0.225098 18.1534 0.225098C17.6011 0.225098 17.1534 0.672813 17.1534 1.2251V11.4104C17.1534 14.2333 14.865 16.5216 12.0422 16.5216C9.21934 16.5216 6.93098 14.2333 6.93098 11.4104V1.2251Z" fill="black"/>
<path d="M5.25195 21.2748C4.69967 21.2748 4.25195 21.7225 4.25195 22.2748C4.25195 22.8271 4.69967 23.2748 5.25195 23.2748H18.8324C19.3847 23.2748 19.8324 22.8271 19.8324 22.2748C19.8324 21.7225 19.3847 21.2748 18.8324 21.2748H5.25195Z" fill="black"/>
</svg>
