<svg width="24" height="24" viewBox="0 0 24 24" fill="none" xmlns="http://www.w3.org/2000/svg">
<path d="M2 6.66113C1.44772 6.66113 1 7.10885 1 7.66113C1 8.21342 1.44772 8.66113 2 8.66113H22C22.5523 8.66113 23 8.21342 23 7.66113C23 7.10885 22.5523 6.66113 22 6.66113H2Z" fill="black"/>
<path d="M12 12.6611C12 12.1088 12.4477 11.6611 13 11.6611H22C22.5523 11.6611 23 12.1088 23 12.6611C23 13.2134 22.5523 13.6611 22 13.6611H13C12.4477 13.6611 12 13.2134 12 12.6611Z" fill="black"/>
<path d="M8 17.6611C8 17.1088 8.44772 16.6611 9 16.6611H22C22.5523 16.6611 23 17.1088 23 17.6611C23 18.2134 22.5523 18.6611 22 18.6611H9C8.44772 18.6611 8 18.2134 8 17.6611Z" fill="black"/>
</svg>
