<svg width="24" height="24" viewBox="0 0 24 24" fill="none" xmlns="http://www.w3.org/2000/svg">
<path fill-rule="evenodd" clip-rule="evenodd" d="M8.25195 11.2498C8.38986 11.2499 8.50185 11.3619 8.50195 11.4998V16.5926C8.50174 16.7304 8.38979 16.8424 8.25195 16.8426C8.11405 16.8425 8.00217 16.7304 8.00195 16.5926V15.6678C7.50465 16.3771 6.68206 16.8425 5.75 16.8426C4.23153 16.8424 3.00022 15.611 3 14.0926C3 12.5739 4.2314 11.3428 5.75 11.3426C6.68223 11.3426 7.50468 11.8078 8.00195 12.5174V11.4998C8.00205 11.3618 8.11398 11.2498 8.25195 11.2498ZM5.75 11.8426C4.50754 11.8428 3.5 12.8501 3.5 14.0926C3.50022 15.3349 4.50767 16.3424 5.75 16.3426C6.99241 16.3424 7.99978 15.3349 8 14.0926C8 12.85 6.99254 11.8427 5.75 11.8426Z" fill="black"/>
<path fill-rule="evenodd" clip-rule="evenodd" d="M10.4072 8.74979C10.545 8.75007 10.6571 8.86198 10.6572 8.99979V12.576C11.1495 11.8332 11.9924 11.3427 12.9502 11.3426C14.4688 11.3428 15.7002 12.5739 15.7002 14.0926C15.7 15.611 14.4686 16.8423 12.9502 16.8426C11.9926 16.8424 11.1495 16.3517 10.6572 15.6092V16.5926C10.657 16.7303 10.544 16.8423 10.4062 16.8426C10.2688 16.842 10.1565 16.7301 10.1562 16.5926L10.1572 8.99979C10.1573 8.86201 10.2695 8.75013 10.4072 8.74979ZM12.9502 11.8426C11.7078 11.8428 10.7002 12.8501 10.7002 14.0926C10.7004 15.3349 11.7079 16.3423 12.9502 16.3426C14.1925 16.3423 15.2 15.3349 15.2002 14.0926C15.2002 12.8501 14.1926 11.8428 12.9502 11.8426Z" fill="black"/>
<path fill-rule="evenodd" clip-rule="evenodd" d="M19.8887 2.77616C20.0121 2.71477 20.162 2.76514 20.2236 2.88846C20.2847 3.01177 20.2345 3.16181 20.1113 3.22343L18.25 4.15409V5.99979H22C23.1046 5.99979 24 6.89522 24 7.99979V16.9998C23.9999 18.0353 23.2127 18.8868 22.2041 18.989L22 18.9998H18.25V20.8455L20.1113 21.7762C20.2343 21.838 20.285 21.9879 20.2236 22.1111C20.1619 22.234 20.0119 22.2844 19.8887 22.2234L18 21.2791L16.1113 22.2234C15.9881 22.2846 15.8382 22.234 15.7764 22.1111C15.715 21.9878 15.7655 21.8379 15.8887 21.7762L17.75 20.8455V18.9998H2L1.7959 18.989C0.854422 18.8936 0.106296 18.1453 0.0107422 17.2039L0 16.9998V7.99979C0 6.89522 0.895431 5.99979 2 5.99979H17.75V4.15409L15.8887 3.22343C15.7656 3.16176 15.7153 3.01173 15.7764 2.88846C15.838 2.76517 15.9879 2.71487 16.1113 2.77616L18 3.7205L19.8887 2.77616ZM18.25 18.4998H22C22.8284 18.4998 23.4999 17.8281 23.5 16.9998V7.99979C23.5 7.17137 22.8284 6.49979 22 6.49979H18.25V18.4998ZM2 6.49979C1.17157 6.49979 0.5 7.17137 0.5 7.99979V16.9998C0.500123 17.8281 1.17165 18.4998 2 18.4998H17.75V6.49979H2Z" fill="black"/>
</svg>
