<svg width="24" height="24" viewBox="0 0 24 24" fill="none" xmlns="http://www.w3.org/2000/svg">
<path d="M21.6523 0.944824C22.3425 0.945042 22.9023 1.5046 22.9023 2.19482C22.9021 2.88484 22.3424 3.44461 21.6523 3.44482H15.5811L10.8594 19.6343H16.9795C17.6698 19.6343 18.2295 20.1939 18.2295 20.8843C18.2292 21.5744 17.6696 22.1343 16.9795 22.1343H1.40527C0.715201 22.1342 0.155606 21.5743 0.155273 20.8843C0.155273 20.194 0.714996 19.6344 1.40527 19.6343H8.25488L12.9766 3.44482H6.07812C5.38792 3.44482 4.82837 2.88498 4.82812 2.19482C4.82812 1.50447 5.38777 0.944824 6.07812 0.944824H21.6523Z" fill="black"/>
</svg>
