<svg width="24" height="24" viewBox="0 0 24 24" fill="none" xmlns="http://www.w3.org/2000/svg">
<path d="M2 21.9779C1.58579 21.9779 1.25 22.3137 1.25 22.7279C1.25 23.1421 1.58579 23.4779 2 23.4779H22C22.4142 23.4779 22.75 23.1421 22.75 22.7279C22.75 22.3137 22.4142 21.9779 22 21.9779H2Z" fill="black"/>
<path d="M12.5542 19.4886C12.2614 19.7815 11.7865 19.7815 11.4936 19.4886L5.41967 13.4147C5.12678 13.1218 5.12678 12.6469 5.41967 12.354C5.71256 12.0611 6.18744 12.0611 6.48033 12.354L11.2739 17.1476L11.2739 1.27209C11.2739 0.857884 11.6097 0.522095 12.0239 0.522095C12.4381 0.522095 12.7739 0.857883 12.7739 1.27209L12.7739 17.1476L17.5675 12.354C17.8604 12.0611 18.3353 12.0611 18.6282 12.354C18.9211 12.6469 18.9211 13.1218 18.6282 13.4147L12.5542 19.4886Z" fill="black"/>
</svg>
