<svg width="24" height="24" viewBox="0 0 24 24" fill="none" xmlns="http://www.w3.org/2000/svg">
<path d="M2 7.16121C1.72386 7.16121 1.5 7.38507 1.5 7.66121C1.5 7.93735 1.72386 8.16121 2 8.16121H22C22.2761 8.16121 22.5 7.93735 22.5 7.66121C22.5 7.38507 22.2761 7.16121 22 7.16121H2Z" fill="black"/>
<path d="M12.5 12.6612C12.5 12.3851 12.7239 12.1612 13 12.1612H22C22.2761 12.1612 22.5 12.3851 22.5 12.6612C22.5 12.9374 22.2761 13.1612 22 13.1612H13C12.7239 13.1612 12.5 12.9374 12.5 12.6612Z" fill="black"/>
<path d="M8.5 17.6612C8.5 17.3851 8.72386 17.1612 9 17.1612H22C22.2761 17.1612 22.5 17.3851 22.5 17.6612C22.5 17.9374 22.2761 18.1612 22 18.1612H9C8.72386 18.1612 8.5 17.9374 8.5 17.6612Z" fill="black"/>
</svg>
