<svg width="24" height="24" viewBox="0 0 24 24" fill="none" xmlns="http://www.w3.org/2000/svg">
<path d="M2 12.75C1.58579 12.75 1.25 12.4142 1.25 12C1.25 11.5858 1.58579 11.25 2 11.25L22 11.25C22.4142 11.25 22.75 11.5858 22.75 12C22.75 12.4142 22.4142 12.75 22 12.75L2 12.75Z" fill="black"/>
<path d="M9.55427 6.21969C9.26138 5.92679 8.7865 5.92679 8.49361 6.21969C8.20072 6.51258 8.20072 6.98745 8.49361 7.28035L11.4936 10.2803C11.7865 10.5732 12.2614 10.5732 12.5543 10.2803L15.5543 7.28035C15.8472 6.98745 15.8472 6.51258 15.5543 6.21969C15.2614 5.92679 14.7865 5.92679 14.4936 6.21969L12.7739 7.93936V1.07996C12.7739 0.665744 12.4382 0.329956 12.0239 0.329956C11.6097 0.329956 11.2739 0.665744 11.2739 1.07996V7.93936L9.55427 6.21969Z" fill="black"/>
<path d="M12.5543 13.7197C12.2614 13.4268 11.7865 13.4268 11.4936 13.7197L8.49361 16.7197C8.20072 17.0126 8.20072 17.4875 8.49361 17.7804C8.7865 18.0733 9.26138 18.0733 9.55427 17.7804L11.2739 16.0607L11.2739 22.9201C11.2739 23.3343 11.6097 23.6701 12.0239 23.6701C12.4382 23.6701 12.7739 23.3343 12.7739 22.9201L12.7739 16.0607L14.4936 17.7804C14.7865 18.0733 15.2614 18.0733 15.5543 17.7804C15.8472 17.4875 15.8472 17.0126 15.5543 16.7197L12.5543 13.7197Z" fill="black"/>
</svg>
