<svg width="24" height="24" viewBox="0 0 24 24" fill="none" xmlns="http://www.w3.org/2000/svg">
<path d="M2 12.25C1.86193 12.25 1.75 12.1381 1.75 12C1.75 11.8619 1.86193 11.75 2 11.75L22 11.75C22.1381 11.75 22.25 11.8619 22.25 12C22.25 12.1381 22.1381 12.25 22 12.25L2 12.25Z" fill="black"/>
<path d="M9.38527 6.07096C9.47518 6 9.64751 6 9.99217 6L11.7739 6L11.7739 1.07993C11.7739 0.941854 11.8859 0.829926 12.0239 0.829926C12.162 0.829926 12.2739 0.941854 12.2739 1.07993L12.2739 6H14.0082C14.3528 6 14.5251 6 14.6151 6.07096C14.6933 6.1327 14.7394 6.22647 14.7406 6.32611C14.7419 6.44064 14.6368 6.57717 14.4264 6.85021L12.4185 9.45698C12.2761 9.64178 12.2049 9.73419 12.1182 9.7674C12.0422 9.79651 11.9581 9.79651 11.8821 9.7674C11.7954 9.73419 11.7242 9.64178 11.5819 9.45698L9.57388 6.85021C9.36355 6.57717 9.25839 6.44064 9.25974 6.32611C9.26091 6.22647 9.30705 6.1327 9.38527 6.07096Z" fill="black"/>
<path d="M9.38527 17.929C9.47518 18 9.64751 18 9.99217 18H11.7739L11.7739 22.9201C11.7739 23.0581 11.8859 23.1701 12.0239 23.1701C12.162 23.1701 12.2739 23.0581 12.2739 22.9201L12.2739 18H14.0082C14.3528 18 14.5252 18 14.6151 17.929C14.6933 17.8673 14.7394 17.7735 14.7406 17.6739C14.7419 17.5594 14.6368 17.4228 14.4264 17.1498L12.4185 14.543C12.2761 14.3582 12.2049 14.2658 12.1182 14.2326C12.0422 14.2035 11.9581 14.2035 11.8821 14.2326C11.7954 14.2658 11.7242 14.3582 11.5819 14.543L9.57388 17.1498C9.36355 17.4228 9.25839 17.5594 9.25974 17.6739C9.26091 17.7735 9.30705 17.8673 9.38527 17.929Z" fill="black"/>
</svg>
