<svg width="24" height="24" viewBox="0 0 24 24" fill="none" xmlns="http://www.w3.org/2000/svg">
<path fill-rule="evenodd" clip-rule="evenodd" d="M6.2315 3.7237C6.75713 3.7237 7.22661 4.05253 7.40624 4.54652L12.0378 17.2833C12.2737 17.9321 11.939 18.6493 11.2902 18.8852C10.6414 19.1211 9.92423 18.7864 9.68831 18.1376L8.51384 14.9079H3.94916L2.77469 18.1376C2.53877 18.7864 1.82156 19.1211 1.17277 18.8852C0.523979 18.6493 0.189283 17.9321 0.425208 17.2833L5.05676 4.54652C5.23639 4.05253 5.70587 3.7237 6.2315 3.7237ZM4.85825 12.4079H7.60475L6.2315 8.63141L4.85825 12.4079Z" fill="black"/>
<path d="M18.3893 3.72369C15.4608 3.72369 13.0867 6.09775 13.0867 9.0263V13.6578C13.0867 16.5864 15.4608 18.9605 18.3893 18.9605C21.3179 18.9605 23.6919 16.5864 23.6919 13.6578V11.3421C23.6919 10.6517 23.1323 10.0921 22.4419 10.0921H19.5472C18.8568 10.0921 18.2972 10.6517 18.2972 11.3421C18.2972 12.0324 18.8568 12.5921 19.5472 12.5921H21.1919V13.6578C21.1919 15.2057 19.9372 16.4605 18.3893 16.4605C16.8415 16.4605 15.5867 15.2057 15.5867 13.6578V9.0263C15.5867 7.47846 16.8415 6.22369 18.3893 6.22369C19.7126 6.22369 20.8244 7.14195 21.1167 8.37743C21.2757 9.04923 21.9491 9.46498 22.621 9.30602C23.2928 9.14705 23.7085 8.47359 23.5495 7.80178C22.9964 5.4641 20.8976 3.72369 18.3893 3.72369Z" fill="black"/>
</svg>
