<svg width="24" height="24" viewBox="0 0 24 24" fill="none" xmlns="http://www.w3.org/2000/svg">
<path fill-rule="evenodd" clip-rule="evenodd" d="M6.88165 3.72363C7.40728 3.72363 7.87676 4.05247 8.05639 4.54645L12.6879 17.2832C12.9239 17.932 12.5892 18.6492 11.9404 18.8851C11.2916 19.1211 10.5744 18.7864 10.3385 18.1376L9.16399 14.9078H4.5993L3.42484 18.1376C3.18891 18.7864 2.47171 19.1211 1.82292 18.8851C1.17413 18.6492 0.83943 17.932 1.07535 17.2832L5.7069 4.54645C5.88654 4.05247 6.35601 3.72363 6.88165 3.72363ZM5.5084 12.4078H8.2549L6.88165 8.63135L5.5084 12.4078Z" fill="black"/>
<path d="M17.71 7.24995C14.8292 7.24995 12.46 9.55399 12.46 12.4375V13.5625C12.46 16.4459 14.8292 18.75 17.71 18.75C20.5909 18.75 22.96 16.4459 22.96 13.5625C22.96 12.8721 22.4004 12.3125 21.71 12.3125L18.8529 12.3125C18.1625 12.3125 17.6029 12.8721 17.6029 13.5625C17.6029 14.2528 18.1625 14.8125 18.8529 14.8125L20.1443 14.8125C19.6868 15.662 18.7766 16.25 17.71 16.25C16.1726 16.25 14.96 15.0282 14.96 13.5625V12.4375C14.96 10.9717 16.1726 9.74995 17.71 9.74995C18.6618 9.74995 19.4949 10.2206 19.9885 10.932C20.382 11.4992 21.1609 11.64 21.7281 11.2465C22.2953 10.8529 22.4361 10.0741 22.0425 9.50691C21.0956 8.14212 19.5052 7.24995 17.71 7.24995Z" fill="black"/>
</svg>
