<svg width="24" height="24" viewBox="0 0 24 24" fill="none" xmlns="http://www.w3.org/2000/svg">
<path d="M2 5.16113C1.72386 5.16113 1.5 5.38499 1.5 5.66113C1.5 5.93728 1.72386 6.16113 2 6.16113H22C22.2761 6.16113 22.5 5.93728 22.5 5.66113C22.5 5.38499 22.2761 5.16113 22 5.16113H2Z" fill="black"/>
<path d="M1.5 12.6611C1.5 12.385 1.72386 12.1611 2 12.1611H11C11.2761 12.1611 11.5 12.385 11.5 12.6611C11.5 12.9373 11.2761 13.1611 11 13.1611H2C1.72386 13.1611 1.5 12.9373 1.5 12.6611Z" fill="black"/>
<path d="M1.5 19.6611C1.5 19.385 1.72386 19.1611 2 19.1611H15C15.2761 19.1611 15.5 19.385 15.5 19.6611C15.5 19.9373 15.2761 20.1611 15 20.1611H2C1.72386 20.1611 1.5 19.9373 1.5 19.6611Z" fill="black"/>
</svg>
