<svg width="24" height="24" viewBox="0 0 24 24" fill="none" xmlns="http://www.w3.org/2000/svg">
<path d="M2 7.16119C1.72386 7.16119 1.5 7.38505 1.5 7.66119C1.5 7.93734 1.72386 8.16119 2 8.16119H22C22.2761 8.16119 22.5 7.93734 22.5 7.66119C22.5 7.38505 22.2761 7.16119 22 7.16119H2Z" fill="black"/>
<path d="M1.5 12.6612C1.5 12.3851 1.72386 12.1612 2 12.1612H11C11.2761 12.1612 11.5 12.3851 11.5 12.6612C11.5 12.9373 11.2761 13.1612 11 13.1612H2C1.72386 13.1612 1.5 12.9373 1.5 12.6612Z" fill="black"/>
<path d="M1.5 17.6612C1.5 17.3851 1.72386 17.1612 2 17.1612H15C15.2761 17.1612 15.5 17.3851 15.5 17.6612C15.5 17.9373 15.2761 18.1612 15 18.1612H2C1.72386 18.1612 1.5 17.9373 1.5 17.6612Z" fill="black"/>
</svg>
