<svg width="24" height="24" viewBox="0 0 24 24" fill="none" xmlns="http://www.w3.org/2000/svg">
<path fill-rule="evenodd" clip-rule="evenodd" d="M3.63756 10.4581C4.09612 8.75489 5.65037 7.5 7.50027 7.5C9.68043 7.5 11.4532 9.24418 11.4993 11.4133L11.5003 11.4888L11.5003 11.5V14L11.5003 14.0056V14.3842C11.5003 16.6573 9.65754 18.5 7.38443 18.5H6.39869C4.2715 18.5 2.69136 16.5302 3.15279 14.4537C3.46855 13.0326 4.67191 11.9822 6.12256 11.8613L9.50027 11.5799V11.5C9.50027 10.3954 8.60484 9.5 7.50027 9.5C6.57743 9.5 5.79822 10.1259 5.5688 10.9781C5.42522 11.5114 4.87651 11.8273 4.34321 11.6837C3.80991 11.5401 3.49399 10.9914 3.63756 10.4581ZM9.50025 13.5868L6.28865 13.8544C5.71055 13.9026 5.231 14.3212 5.10517 14.8875C4.92128 15.715 5.55098 16.5 6.39869 16.5H7.38443C8.55297 16.5 9.50025 15.5527 9.50025 14.3842V13.5868Z" fill="black"/>
<path fill-rule="evenodd" clip-rule="evenodd" d="M20.0002 7.5C20.5525 7.5 21.0002 7.94772 21.0002 8.5V17.9098C21.0002 20.1688 19.169 22 16.9101 22C15.3608 22 13.9445 21.1247 13.2517 19.739L13.1058 19.4472C12.8588 18.9532 13.059 18.3526 13.553 18.1056C14.047 17.8586 14.6477 18.0588 14.8947 18.5528L15.0405 18.8446C15.3946 19.5527 16.1184 20 16.9101 20C18.0644 20 19.0002 19.0642 19.0002 17.9098V16.9649C18.4119 17.3052 17.7288 17.5 17.0002 17.5C14.7911 17.5 13.0002 15.7091 13.0002 13.5V11.5C13.0002 9.29086 14.7911 7.5 17.0002 7.5C17.7657 7.5 18.4809 7.715 19.0888 8.08791C19.2458 7.7412 19.5949 7.5 20.0002 7.5ZM19.0002 11.5V13.5C19.0002 14.6046 18.1048 15.5 17.0002 15.5C15.8957 15.5 15.0002 14.6046 15.0002 13.5V11.5C15.0002 10.3954 15.8957 9.5 17.0002 9.5C18.1048 9.5 19.0002 10.3954 19.0002 11.5Z" fill="black"/>
</svg>
