<svg width="24" height="24" viewBox="0 0 24 24" fill="none" xmlns="http://www.w3.org/2000/svg">
<path d="M2 1.5221C1.86193 1.5221 1.75 1.41017 1.75 1.2721C1.75 1.13402 1.86193 1.02209 2 1.02209L22 1.0221C22.1381 1.0221 22.25 1.13402 22.25 1.2721C22.25 1.41017 22.1381 1.5221 22 1.5221H2Z" fill="black"/>
<path d="M9.9922 9C9.64754 9 9.47521 9 9.3853 8.92904C9.30708 8.8673 9.26094 8.77353 9.25977 8.67389C9.25842 8.55936 9.36358 8.42284 9.57391 8.14979L11.5819 5.54302C11.7243 5.35822 11.7954 5.26581 11.8822 5.2326C11.9582 5.20349 12.0422 5.20349 12.1182 5.2326C12.205 5.26581 12.2761 5.35822 12.4185 5.54302L14.4265 8.14979C14.6368 8.42284 14.742 8.55936 14.7406 8.67389C14.7394 8.77353 14.6933 8.8673 14.6151 8.92904C14.5252 9 14.3529 9 14.0082 9H12.2739L12.2739 22.7279C12.2739 22.866 12.162 22.9779 12.0239 22.9779C11.8858 22.9779 11.7739 22.866 11.7739 22.7279L11.7739 9H9.9922Z" fill="black"/>
</svg>
