<svg width="24" height="24" viewBox="0 0 24 24" fill="none" xmlns="http://www.w3.org/2000/svg">
<path d="M22.4336 1.1665C22.9859 1.16652 23.4336 1.61424 23.4336 2.1665C23.4336 2.71878 22.9859 3.16649 22.4336 3.1665H16.1543L11.2705 19.9106H17.748C18.3002 19.9108 18.748 20.3585 18.748 20.9106C18.748 21.4628 18.3002 21.9105 17.748 21.9106H2.12793C1.57565 21.9106 1.12794 21.4629 1.12793 20.9106C1.12793 20.3584 1.57564 19.9106 2.12793 19.9106H9.1875L14.0713 3.1665H6.81348C6.26127 3.16642 5.81348 2.71874 5.81348 2.1665C5.81349 1.61428 6.26127 1.16659 6.81348 1.1665H22.4336Z" fill="black"/>
</svg>
