<svg width="24" height="24" viewBox="0 0 24 24" fill="none" xmlns="http://www.w3.org/2000/svg">
<path d="M2 21.4779C1.30964 21.4779 0.75 22.0375 0.75 22.7279C0.75 23.4182 1.30964 23.9779 2 23.9779H22C22.6904 23.9779 23.25 23.4182 23.25 22.7279C23.25 22.0375 22.6904 21.4779 22 21.4779H2Z" fill="black"/>
<path d="M8.9879 13C8.47091 13 8.21241 13 8.07755 13.1064C7.96022 13.199 7.89102 13.3397 7.88925 13.4891C7.88723 13.6609 8.04497 13.8657 8.36046 14.2753L11.3725 18.1854C11.586 18.4626 11.6928 18.6012 11.8228 18.6511C11.9368 18.6947 12.0629 18.6947 12.1769 18.6511C12.307 18.6012 12.4138 18.4626 12.6273 18.1854L15.6393 14.2753C15.9548 13.8657 16.1126 13.6609 16.1105 13.4891C16.1088 13.3397 16.0396 13.199 15.9222 13.1064C15.7874 13 15.5289 13 15.0119 13H13.2739L13.2739 1.27209C13.2739 0.581739 12.7143 0.0220947 12.0239 0.0220947C11.3336 0.0220948 10.7739 0.581739 10.7739 1.27209L10.7739 13H8.9879Z" fill="black"/>
</svg>
