<svg width="24" height="24" viewBox="0 0 24 24" fill="none" xmlns="http://www.w3.org/2000/svg">
<path fill-rule="evenodd" clip-rule="evenodd" d="M9.00195 9.74996C9.69215 9.75008 10.2519 10.3098 10.252 11V16.0927C10.2517 16.7828 9.69208 17.3426 9.00195 17.3427C8.65669 17.3427 8.34339 17.2028 8.11719 16.9765C7.62766 17.2108 7.07892 17.3427 6.5 17.3427C4.42924 17.3425 2.75021 15.6635 2.75 13.5927C2.75 11.5218 4.42911 9.84295 6.5 9.84274C7.05585 9.84277 7.58315 9.96555 8.05762 10.1826C8.2868 9.918 8.62448 9.74999 9.00195 9.74996ZM6.5 12.3427C5.80982 12.3429 5.25 12.9025 5.25 13.5927C5.25021 14.2828 5.80995 14.8425 6.5 14.8427C7.19013 14.8426 7.74979 14.2828 7.75 13.5927C7.75 12.9025 7.19026 12.3429 6.5 12.3427Z" fill="black"/>
<path fill-rule="evenodd" clip-rule="evenodd" d="M20.6914 1.8818C21.3087 1.57366 22.0595 1.82434 22.3682 2.44137C22.6764 3.05862 22.4256 3.80939 21.8086 4.11813L20.5 4.77242V4.99996H21C22.6569 4.99996 24 6.34311 24 7.99996V17C23.9999 18.6567 22.6568 20 21 20H20.5V20.2275L21.8086 20.8818C22.4257 21.1905 22.6763 21.9413 22.3682 22.5586C22.0594 23.1756 21.3087 23.4264 20.6914 23.1181L19.25 22.3974L17.8086 23.1181C17.1913 23.4263 16.4405 23.1756 16.1318 22.5586C15.8236 21.9413 16.0744 21.1905 16.6914 20.8818L18 20.2275V20H3C1.39496 20 0.0843183 18.7393 0.00390625 17.1543L0 17V7.99996C0 6.34311 1.34315 4.99996 3 4.99996H18V4.77242L16.6914 4.11813C16.0744 3.80943 15.8237 3.05861 16.1318 2.44137C16.4406 1.82435 17.1914 1.57363 17.8086 1.8818L19.25 2.6025L20.6914 1.8818ZM20.5 17.5H21C21.2761 17.5 21.4999 17.276 21.5 17V7.99996C21.5 7.72382 21.2761 7.49996 21 7.49996H20.5V17.5ZM3 7.49996C2.72386 7.49996 2.5 7.72382 2.5 7.99996V17C2.50011 17.276 2.72393 17.5 3 17.5H18V14.4531C17.6108 16.109 16.1251 17.3425 14.3506 17.3427C13.7605 17.3427 13.2017 17.2057 12.7051 16.9629C12.4778 17.1969 12.1585 17.3426 11.8066 17.3427C11.1169 17.3421 10.5569 16.7825 10.5566 16.0927L10.5576 8.74996C10.5577 8.05989 11.1176 7.5003 11.8076 7.49996C12.4977 7.50027 13.0575 8.05989 13.0576 8.74996V10.0722C13.4605 9.92421 13.8963 9.8428 14.3506 9.84274C16.1247 9.84296 17.6104 11.0752 18 12.7304V7.49996H3ZM14.3506 12.3427C13.6605 12.343 13.1006 12.9025 13.1006 13.5927C13.1008 14.2827 13.6606 14.8425 14.3506 14.8427C15.0406 14.8425 15.6004 14.2827 15.6006 13.5927C15.6006 12.9025 15.0407 12.343 14.3506 12.3427Z" fill="black"/>
</svg>
