<svg width="24" height="24" viewBox="0 0 24 24" fill="none" xmlns="http://www.w3.org/2000/svg">
<path fill-rule="evenodd" clip-rule="evenodd" d="M6.38188 4.22363C6.69726 4.22363 6.97894 4.42093 7.08672 4.71733L11.7183 17.4541C11.8598 17.8434 11.659 18.2737 11.2697 18.4152C10.8805 18.5568 10.4501 18.356 10.3086 17.9667L9.01443 14.4078H3.74932L2.45517 17.9667C2.31362 18.356 1.88329 18.5568 1.49402 18.4152C1.10474 18.2737 0.903927 17.8434 1.04548 17.4541L5.67703 4.71733C5.78481 4.42093 6.0665 4.22363 6.38188 4.22363ZM4.29478 12.9078H8.46898L6.38188 7.16826L4.29478 12.9078Z" fill="black"/>
<path d="M14.2107 17.9999C14.6249 17.9999 14.9607 17.6642 14.9607 17.2499C14.9607 16.8357 14.6249 16.4999 14.2107 16.4999C13.7965 16.4999 13.4607 16.8357 13.4607 17.2499C13.4607 17.6642 13.7965 17.9999 14.2107 17.9999Z" fill="black"/>
<path d="M18.9608 17.2499C18.9608 17.6642 18.625 17.9999 18.2108 17.9999C17.7966 17.9999 17.4608 17.6642 17.4608 17.2499C17.4608 16.8357 17.7966 16.4999 18.2108 16.4999C18.625 16.4999 18.9608 16.8357 18.9608 17.2499Z" fill="black"/>
<path d="M22.2108 17.9999C22.625 17.9999 22.9608 17.6642 22.9608 17.2499C22.9608 16.8357 22.625 16.4999 22.2108 16.4999C21.7966 16.4999 21.4608 16.8357 21.4608 17.2499C21.4608 17.6642 21.7966 17.9999 22.2108 17.9999Z" fill="black"/>
</svg>
