<svg width="24" height="24" viewBox="0 0 24 24" fill="none" xmlns="http://www.w3.org/2000/svg">
<path d="M2 6.41121C1.30964 6.41121 0.75 6.97085 0.75 7.66121C0.75 8.35157 1.30964 8.91121 2 8.91121H22C22.6904 8.91121 23.25 8.35157 23.25 7.66121C23.25 6.97085 22.6904 6.41121 22 6.41121H2Z" fill="black"/>
<path d="M11.75 12.6612C11.75 11.9709 12.3096 11.4112 13 11.4112H22C22.6904 11.4112 23.25 11.9709 23.25 12.6612C23.25 13.3516 22.6904 13.9112 22 13.9112H13C12.3096 13.9112 11.75 13.3516 11.75 12.6612Z" fill="black"/>
<path d="M7.75 17.6612C7.75 16.9709 8.30964 16.4112 9 16.4112H22C22.6904 16.4112 23.25 16.9709 23.25 17.6612C23.25 18.3516 22.6904 18.9112 22 18.9112H9C8.30964 18.9112 7.75 18.3516 7.75 17.6612Z" fill="black"/>
</svg>
