<svg width="24" height="24" viewBox="0 0 24 24" fill="none" xmlns="http://www.w3.org/2000/svg">
<path fill-rule="evenodd" clip-rule="evenodd" d="M5.92111 4.72363C6.02623 4.72363 6.12013 4.7894 6.15606 4.8882L10.7876 17.625C10.8348 17.7547 10.7678 17.8982 10.6381 17.9453C10.5083 17.9925 10.3649 17.9256 10.3177 17.7958L8.89875 13.8937C8.8728 13.9028 8.84489 13.9078 8.81583 13.9078H3.02639C2.99732 13.9078 2.96941 13.9028 2.94346 13.8937L1.52451 17.7958C1.47732 17.9256 1.33388 17.9925 1.20412 17.9453C1.07436 17.8982 1.00742 17.7547 1.05461 17.625L5.68616 4.8882C5.72208 4.7894 5.81598 4.72363 5.92111 4.72363ZM3.12016 13.4078H8.72206L5.92111 5.70518L3.12016 13.4078Z" fill="black"/>
<path d="M18.0789 4.72363C15.7027 4.72363 13.7763 6.64997 13.7763 9.02624V13.6578C13.7763 16.0341 15.7027 17.9604 18.0789 17.9604C20.4552 17.9604 22.3815 16.0341 22.3815 13.6578V11.342C22.3815 11.2039 22.2696 11.092 22.1315 11.092L19.2368 11.092C19.0987 11.092 18.9868 11.2039 18.9868 11.342C18.9868 11.4801 19.0987 11.592 19.2368 11.592L21.8815 11.592V13.6578C21.8815 15.7579 20.179 17.4604 18.0789 17.4604C15.9788 17.4604 14.2763 15.7579 14.2763 13.6578V9.02624C14.2763 6.92612 15.9788 5.22363 18.0789 5.22363C19.8762 5.22363 21.3828 6.47075 21.7795 8.14711C21.8112 8.28147 21.9459 8.36462 22.0803 8.33282C22.2147 8.30103 22.2978 8.16634 22.266 8.03198C21.8172 6.13518 20.1132 4.72363 18.0789 4.72363Z" fill="black"/>
</svg>
