<svg width="24" height="24" viewBox="0 0 24 24" fill="none" xmlns="http://www.w3.org/2000/svg">
<path fill-rule="evenodd" clip-rule="evenodd" d="M6.38182 3.97363C6.80233 3.97363 7.17791 4.2367 7.32162 4.63189L11.9532 17.3687C12.1419 17.8877 11.8741 18.4614 11.3551 18.6502C10.8361 18.8389 10.2623 18.5712 10.0736 18.0521L8.83927 14.6578H3.92437L2.69007 18.0521C2.50133 18.5712 1.92756 18.8389 1.40853 18.6502C0.889495 18.4614 0.621739 17.8877 0.810479 17.3687L5.44203 4.63189C5.58573 4.2367 5.96132 3.97363 6.38182 3.97363ZM4.65165 12.6578H8.112L6.38182 7.89981L4.65165 12.6578Z" fill="black"/>
<path d="M14.2106 18.75C14.7629 18.75 15.2106 18.3022 15.2106 17.7499C15.2106 17.1977 14.7629 16.7499 14.2106 16.7499C13.6583 16.7499 13.2106 17.1977 13.2106 17.7499C13.2106 18.3022 13.6583 18.75 14.2106 18.75Z" fill="black"/>
<path d="M19.2107 17.7499C19.2107 18.3022 18.763 18.7499 18.2107 18.7499C17.6585 18.7499 17.2107 18.3022 17.2107 17.7499C17.2107 17.1977 17.6585 16.7499 18.2107 16.7499C18.763 16.7499 19.2107 17.1977 19.2107 17.7499Z" fill="black"/>
<path d="M22.2107 18.7499C22.763 18.7499 23.2107 18.3022 23.2107 17.7499C23.2107 17.1977 22.763 16.7499 22.2107 16.7499C21.6585 16.7499 21.2107 17.1977 21.2107 17.7499C21.2107 18.3022 21.6585 18.7499 22.2107 18.7499Z" fill="black"/>
</svg>
