<svg width="24" height="24" viewBox="0 0 24 24" fill="none" xmlns="http://www.w3.org/2000/svg">
<path d="M2 12.25C1.86193 12.25 1.75 12.1381 1.75 12C1.75 11.8619 1.86193 11.75 2 11.75L22 11.75C22.1381 11.75 22.25 11.8619 22.25 12C22.25 12.1381 22.1381 12.25 22 12.25L2 12.25Z" fill="black"/>
<path d="M9.20072 6.57321C9.10309 6.47558 8.94479 6.47558 8.84716 6.57321C8.74953 6.67084 8.74953 6.82913 8.84716 6.92676L11.8472 9.92676C11.9448 10.0244 12.1031 10.0244 12.2007 9.92676L15.2007 6.92676C15.2983 6.82913 15.2983 6.67084 15.2007 6.57321C15.1031 6.47558 14.9448 6.47558 14.8472 6.57321L12.2739 9.14643L12.2739 1.07993C12.2739 0.941854 12.162 0.829926 12.0239 0.829926C11.8859 0.829926 11.7739 0.941854 11.7739 1.07993V9.14643L9.20072 6.57321Z" fill="black"/>
<path d="M12.2007 14.0732C12.1031 13.9756 11.9448 13.9756 11.8472 14.0732L8.84716 17.0732C8.74953 17.1709 8.74953 17.3291 8.84716 17.4268C8.9448 17.5244 9.10309 17.5244 9.20072 17.4268L11.7739 14.8536L11.7739 22.9201C11.7739 23.0581 11.8859 23.1701 12.0239 23.1701C12.162 23.1701 12.2739 23.0581 12.2739 22.9201L12.2739 14.8536L14.8472 17.4268C14.9448 17.5244 15.1031 17.5244 15.2007 17.4268C15.2983 17.3291 15.2983 17.1709 15.2007 17.0732L12.2007 14.0732Z" fill="black"/>
</svg>
