<svg width="24" height="24" viewBox="0 0 24 24" fill="none" xmlns="http://www.w3.org/2000/svg">
<path fill-rule="evenodd" clip-rule="evenodd" d="M5.99996 6.25C6.31534 6.25 6.59703 6.4473 6.7048 6.7437L10.7048 17.7437C10.8464 18.133 10.6455 18.5633 10.2563 18.7048C9.86699 18.8464 9.43667 18.6456 9.29512 18.2563L8.20191 15.25H3.79801L2.70481 18.2563C2.56325 18.6456 2.13293 18.8464 1.74365 18.7048C1.35438 18.5633 1.15356 18.133 1.29511 17.7437L5.29511 6.74369C5.40289 6.4473 5.68458 6.25 5.99996 6.25ZM4.34346 13.75H7.65646L5.99996 9.19463L4.34346 13.75Z" fill="black"/>
<path d="M16.4999 6.25C14.1527 6.25 12.2499 8.15279 12.2499 10.5V14.5C12.2499 16.8472 14.1527 18.75 16.4999 18.75C18.8472 18.75 20.7499 16.8472 20.7499 14.5V12.5C20.7499 12.0858 20.4142 11.75 19.9999 11.75L17.4999 11.75C17.0857 11.75 16.7499 12.0858 16.7499 12.5C16.7499 12.9142 17.0857 13.25 17.4999 13.25L19.2499 13.25V14.5C19.2499 16.0188 18.0187 17.25 16.4999 17.25C14.9812 17.25 13.7499 16.0188 13.7499 14.5V10.5C13.7499 8.98122 14.9812 7.75 16.4999 7.75C17.799 7.75 18.8893 8.65142 19.1761 9.86372C19.2715 10.2668 19.6756 10.5163 20.0787 10.4209C20.4818 10.3255 20.7312 9.92142 20.6358 9.51834C20.1925 7.64471 18.51 6.25 16.4999 6.25Z" fill="black"/>
</svg>
