<svg width="24" height="24" viewBox="0 0 24 24" fill="none" xmlns="http://www.w3.org/2000/svg">
<path d="M2 2.2721C1.44772 2.2721 1 1.82438 1 1.2721C1 0.719811 1.44772 0.272095 2 0.272095L22 0.272096C22.5523 0.272096 23 0.719811 23 1.2721C23 1.82438 22.5523 2.2721 22 2.2721H2Z" fill="black"/>
<path d="M9.49014 10C9.05932 10 8.84391 10 8.73152 9.91131C8.63374 9.83414 8.57607 9.71692 8.57461 9.59237C8.57292 9.44921 8.70437 9.27856 8.96728 8.93725L11.4773 5.67879C11.6552 5.44778 11.7442 5.33228 11.8526 5.29076C11.9476 5.25438 12.0527 5.25438 12.1477 5.29076C12.2561 5.33228 12.3451 5.44778 12.523 5.67879L15.033 8.93725C15.2959 9.27856 15.4274 9.44921 15.4257 9.59237C15.4242 9.71693 15.3665 9.83414 15.2688 9.91131C15.1564 10 14.941 10 14.5101 10H13.0239L13.0239 22.7279C13.0239 23.2802 12.5762 23.7279 12.0239 23.7279C11.4716 23.7279 11.0239 23.2802 11.0239 22.7279L11.0239 10H9.49014Z" fill="black"/>
</svg>
