<svg width="24" height="24" viewBox="0 0 24 24" fill="none" xmlns="http://www.w3.org/2000/svg">
<path d="M2 4.41113C1.30964 4.41113 0.75 4.97078 0.75 5.66113C0.75 6.35149 1.30964 6.91113 2 6.91113H22C22.6904 6.91113 23.25 6.35149 23.25 5.66113C23.25 4.97078 22.6904 4.41113 22 4.41113H2Z" fill="black"/>
<path d="M6.75 12.6611C6.75 11.9708 7.30964 11.4111 8 11.4111H16C16.6904 11.4111 17.25 11.9708 17.25 12.6611C17.25 13.3515 16.6904 13.9111 16 13.9111H8C7.30964 13.9111 6.75 13.3515 6.75 12.6611Z" fill="black"/>
<path d="M4.75 19.6611C4.75 18.9708 5.30964 18.4111 6 18.4111H18C18.6904 18.4111 19.25 18.9708 19.25 19.6611C19.25 20.3515 18.6904 20.9111 18 20.9111H6C5.30964 20.9111 4.75 20.3515 4.75 19.6611Z" fill="black"/>
</svg>
