<svg width="24" height="24" viewBox="0 0 24 24" fill="none" xmlns="http://www.w3.org/2000/svg">
<path d="M2 5.16119C1.72386 5.16119 1.5 5.38505 1.5 5.66119C1.5 5.93734 1.72386 6.16119 2 6.16119H22C22.2761 6.16119 22.5 5.93734 22.5 5.66119C22.5 5.38505 22.2761 5.16119 22 5.16119H2Z" fill="black"/>
<path d="M7.5 12.6612C7.5 12.3851 7.72386 12.1612 8 12.1612H16C16.2761 12.1612 16.5 12.3851 16.5 12.6612C16.5 12.9373 16.2761 13.1612 16 13.1612H8C7.72386 13.1612 7.5 12.9373 7.5 12.6612Z" fill="black"/>
<path d="M5.5 19.6612C5.5 19.3851 5.72386 19.1612 6 19.1612H18C18.2761 19.1612 18.5 19.3851 18.5 19.6612C18.5 19.9373 18.2761 20.1612 18 20.1612H6C5.72386 20.1612 5.5 19.9373 5.5 19.6612Z" fill="black"/>
</svg>
