<svg width="24" height="24" viewBox="0 0 24 24" fill="none" xmlns="http://www.w3.org/2000/svg">
<path d="M9.0007 0.25C8.58649 0.25 8.2507 0.585786 8.2507 1C8.2507 1.41421 8.58649 1.75 9.0007 1.75H15.0007C15.4149 1.75 15.7507 1.41421 15.7507 1C15.7507 0.585786 15.4149 0.25 15.0007 0.25H9.0007Z" fill="black"/>
<path fill-rule="evenodd" clip-rule="evenodd" d="M21.7663 13C21.7663 18.3944 17.3933 22.7674 11.9989 22.7674C6.60448 22.7674 2.23145 18.3944 2.23145 13C2.23145 7.60559 6.60448 3.23256 11.9989 3.23256C17.3933 3.23256 21.7663 7.60559 21.7663 13ZM12.7488 6.55814C12.7488 6.14393 12.413 5.80814 11.9988 5.80814C11.5846 5.80814 11.2488 6.14393 11.2488 6.55814V11.7006C10.8004 11.96 10.4988 12.4448 10.4988 13C10.4988 13.8284 11.1703 14.5 11.9988 14.5C12.554 14.5 13.0387 14.1983 13.2981 13.75H18.4406C18.8549 13.75 19.1906 13.4142 19.1906 13C19.1906 12.5858 18.8549 12.25 18.4406 12.25H13.2981C13.1664 12.0223 12.9765 11.8324 12.7488 11.7007V6.55814Z" fill="black"/>
</svg>
