<svg width="24" height="24" viewBox="0 0 24 24" fill="none" xmlns="http://www.w3.org/2000/svg">
<path d="M2 12C2 6.47715 6.47715 2 12 2C17.1853 2 21.4489 5.94668 21.9506 11H22.9552C22.4499 5.3935 17.738 1 12 1C5.92487 1 1 5.92487 1 12C1 18.0751 5.92487 23 12 23C17.738 23 22.4499 18.6065 22.9552 13H21.9506C21.4489 18.0533 17.1853 22 12 22C6.47715 22 2 17.5228 2 12Z" fill="black"/>
<path d="M12.8662 12.5C12.6933 12.7989 12.3701 13 12 13C11.4477 13 11 12.5523 11 12C11 11.6299 11.2011 11.3067 11.5 11.1338V4C11.5 3.72386 11.7239 3.5 12 3.5C12.2761 3.5 12.5 3.72386 12.5 4V11.1338C12.6518 11.2216 12.7784 11.3482 12.8662 11.5H18C18.2761 11.5 18.5 11.7239 18.5 12C18.5 12.2761 18.2761 12.5 18 12.5H12.8662Z" fill="black"/>
</svg>
