<svg width="24" height="24" viewBox="0 0 24 24" fill="none" xmlns="http://www.w3.org/2000/svg">
<path d="M9.00208 0.5C8.72593 0.5 8.50208 0.723858 8.50208 1C8.50208 1.27614 8.72593 1.5 9.00208 1.5H15.0021C15.2782 1.5 15.5021 1.27614 15.5021 1C15.5021 0.723858 15.2782 0.5 15.0021 0.5H9.00208Z" fill="black"/>
<path d="M12.0005 14.25C12.5131 14.25 12.9536 13.9415 13.1465 13.5H18.4422C18.7183 13.5 18.9422 13.2761 18.9422 13C18.9422 12.7239 18.7183 12.5 18.4422 12.5H13.1465C13.0205 12.2116 12.7888 11.9799 12.5003 11.8539V6.55814C12.5003 6.282 12.2765 6.05814 12.0003 6.05814C11.7242 6.05814 11.5003 6.282 11.5003 6.55814V11.8541C11.059 12.047 10.7505 12.4875 10.7505 13C10.7505 13.6904 11.3102 14.25 12.0005 14.25Z" fill="black"/>
<path fill-rule="evenodd" clip-rule="evenodd" d="M12.0005 2.73256C6.32992 2.73256 1.73303 7.32945 1.73303 13C1.73303 18.6706 6.32992 23.2674 12.0005 23.2674C17.671 23.2674 22.2679 18.6706 22.2679 13C22.2679 7.32945 17.671 2.73256 12.0005 2.73256ZM2.73303 13C2.73303 7.88173 6.88221 3.73256 12.0005 3.73256C17.1187 3.73256 21.2679 7.88173 21.2679 13C21.2679 18.1183 17.1187 22.2674 12.0005 22.2674C6.88221 22.2674 2.73303 18.1183 2.73303 13Z" fill="black"/>
</svg>
