<svg width="24" height="24" viewBox="0 0 24 24" fill="none" xmlns="http://www.w3.org/2000/svg">
<path d="M2.25 12C2.25 6.61522 6.61522 2.25 12 2.25C16.9613 2.25 21.057 5.95557 21.6706 10.75H23.1813C22.5595 5.12506 17.7907 0.75 12 0.75C5.7868 0.75 0.75 5.7868 0.75 12C0.75 18.2132 5.7868 23.25 12 23.25C17.7907 23.25 22.5595 18.8749 23.1813 13.25H21.6706C21.057 18.0444 16.9613 21.75 12 21.75C6.61522 21.75 2.25 17.3848 2.25 12Z" fill="black"/>
<path d="M13.0001 12.75C12.772 13.0536 12.409 13.25 12 13.25C11.3096 13.25 10.75 12.6904 10.75 12C10.75 11.591 10.9464 11.228 11.25 10.9999V4C11.25 3.58579 11.5858 3.25 12 3.25C12.4142 3.25 12.75 3.58579 12.75 4V10.9999C12.8447 11.071 12.929 11.1553 13.0001 11.25H18C18.4142 11.25 18.75 11.5858 18.75 12C18.75 12.4142 18.4142 12.75 18 12.75H13.0001Z" fill="black"/>
</svg>
