<svg width="24" height="24" viewBox="0 0 24 24" fill="none" xmlns="http://www.w3.org/2000/svg">
<path d="M9 0C8.30964 0 7.75 0.559644 7.75 1.25C7.75 1.94036 8.30964 2.5 9 2.5H15C15.6904 2.5 16.25 1.94036 16.25 1.25C16.25 0.559644 15.6904 0 15 0H9Z" fill="black"/>
<path d="M12 15C12.5552 15 13.04 14.6984 13.2993 14.25H17.442C17.8562 14.25 18.192 13.9142 18.192 13.5C18.192 13.0858 17.8562 12.75 17.442 12.75H13.2993C13.1676 12.5223 12.9778 12.3325 12.7501 12.2008V8.05814C12.7501 7.64393 12.4144 7.30814 12.0001 7.30814C11.5859 7.30814 11.2501 7.64393 11.2501 8.05814V12.2006C10.8017 12.4599 10.5 12.9447 10.5 13.5C10.5 14.3284 11.1716 15 12 15Z" fill="black"/>
<path fill-rule="evenodd" clip-rule="evenodd" d="M22.5 13.5C22.5 19.299 17.799 24 12 24C6.20101 24 1.5 19.299 1.5 13.5C1.5 7.70101 6.20101 3 12 3C17.799 3 22.5 7.70101 22.5 13.5ZM20 13.5C20 17.9183 16.4183 21.5 12 21.5C7.58172 21.5 4 17.9183 4 13.5C4 9.08172 7.58172 5.5 12 5.5C16.4183 5.5 20 9.08172 20 13.5Z" fill="black"/>
</svg>
