<svg width="24" height="24" viewBox="0 0 24 24" fill="none" xmlns="http://www.w3.org/2000/svg">
<path d="M9.00046 0.75C8.86239 0.75 8.75046 0.861929 8.75046 1C8.75046 1.13807 8.86239 1.25 9.00046 1.25H15.0005C15.1385 1.25 15.2505 1.13807 15.2505 1C15.2505 0.861929 15.1385 0.75 15.0005 0.75H9.00046Z" fill="black"/>
<path fill-rule="evenodd" clip-rule="evenodd" d="M21.7661 13C21.7661 18.3944 17.3931 22.7674 11.9986 22.7674C6.60423 22.7674 2.2312 18.3944 2.2312 13C2.2312 7.60559 6.60423 3.23256 11.9986 3.23256C17.3931 3.23256 21.7661 7.60559 21.7661 13ZM12.2485 6.55814C12.2485 6.42007 12.1366 6.30814 11.9985 6.30814C11.8605 6.30814 11.7485 6.42007 11.7485 6.55814V12.2927C11.4572 12.3956 11.2485 12.6734 11.2485 13C11.2485 13.4142 11.5843 13.75 11.9985 13.75C12.3251 13.75 12.6029 13.5413 12.7059 13.25H18.4404C18.5785 13.25 18.6904 13.1381 18.6904 13C18.6904 12.8619 18.5785 12.75 18.4404 12.75H12.7059C12.6305 12.5369 12.4616 12.368 12.2485 12.2927V6.55814Z" fill="black"/>
</svg>
