<svg width="24" height="24" viewBox="0 0 24 24" fill="none" xmlns="http://www.w3.org/2000/svg">
<path d="M13.1181 13C12.8434 13.3069 12.4443 13.5 12 13.5C11.1716 13.5 10.5 12.8284 10.5 12C10.5 11.5558 10.6931 11.1566 11 10.8819V5C11 4.44772 11.4477 4 12 4C12.5523 4 13 4.44772 13 5V10.8819C13.0415 10.9191 13.0809 10.9585 13.1181 11H17C17.5523 11 18 11.4477 18 12C18 12.5523 17.5523 13 17 13H13.1181Z" fill="black"/>
<path fill-rule="evenodd" clip-rule="evenodd" d="M0.5 12C0.5 5.64873 5.64873 0.5 12 0.5C18.3513 0.5 23.5 5.64873 23.5 12C23.5 18.3513 18.3513 23.5 12 23.5C5.64873 23.5 0.5 18.3513 0.5 12ZM12 2.5C6.7533 2.5 2.5 6.75329 2.5 12C2.5 17.2467 6.7533 21.5 12 21.5C17.2467 21.5 21.5 17.2467 21.5 12C21.5 6.75329 17.2467 2.5 12 2.5Z" fill="black"/>
</svg>
