<svg width="24" height="24" viewBox="0 0 24 24" fill="none" xmlns="http://www.w3.org/2000/svg">
<path d="M8.99951 0C8.44723 0 7.99951 0.447715 7.99951 1C7.99951 1.55228 8.44723 2 8.99951 2H14.9995C15.5518 2 15.9995 1.55228 15.9995 1C15.9995 0.447715 15.5518 0 14.9995 0H8.99951Z" fill="black"/>
<path d="M11.9979 14.5C12.5531 14.5 13.0379 14.1983 13.2972 13.75H18.4396C18.8538 13.75 19.1896 13.4142 19.1896 13C19.1896 12.5858 18.8538 12.25 18.4396 12.25H13.2972C13.1655 12.0222 12.9756 11.8323 12.7478 11.7006V6.55814C12.7478 6.14393 12.412 5.80814 11.9978 5.80814C11.5836 5.80814 11.2478 6.14393 11.2478 6.55814V11.7007C10.7995 11.9601 10.4979 12.4448 10.4979 13C10.4979 13.8284 11.1695 14.5 11.9979 14.5Z" fill="black"/>
<path fill-rule="evenodd" clip-rule="evenodd" d="M11.9979 2.23256C6.05122 2.23256 1.23047 7.05331 1.23047 13C1.23047 18.9467 6.05122 23.7674 11.9979 23.7674C17.9446 23.7674 22.7654 18.9467 22.7654 13C22.7654 7.05331 17.9446 2.23256 11.9979 2.23256ZM3.23047 13C3.23047 8.15788 7.15579 4.23256 11.9979 4.23256C16.84 4.23256 20.7654 8.15788 20.7654 13C20.7654 17.8421 16.84 21.7674 11.9979 21.7674C7.15579 21.7674 3.23047 17.8421 3.23047 13Z" fill="black"/>
</svg>
