<svg width="24" height="24" viewBox="0 0 24 24" fill="none" xmlns="http://www.w3.org/2000/svg">
<path fill-rule="evenodd" clip-rule="evenodd" d="M22.5 12C22.5 17.799 17.799 22.5 12 22.5C6.20101 22.5 1.5 17.799 1.5 12C1.5 6.20101 6.20101 1.5 12 1.5C17.799 1.5 22.5 6.20101 22.5 12ZM13.1181 13C12.8434 13.3069 12.4443 13.5 12 13.5C11.1716 13.5 10.5 12.8284 10.5 12C10.5 11.5557 10.6931 11.1566 11 10.8819V5C11 4.44772 11.4477 4 12 4C12.5523 4 13 4.44772 13 5V10.8819C13.0415 10.9191 13.0809 10.9585 13.1181 11H17C17.5523 11 18 11.4477 18 12C18 12.5523 17.5523 13 17 13H13.1181Z" fill="black"/>
</svg>
