<svg width="24" height="24" viewBox="0 0 24 24" fill="none" xmlns="http://www.w3.org/2000/svg">
<path d="M9.00046 0.5C8.72432 0.5 8.50046 0.723858 8.50046 1C8.50046 1.27614 8.72432 1.5 9.00046 1.5H15.0005C15.2766 1.5 15.5005 1.27614 15.5005 1C15.5005 0.723858 15.2766 0.5 15.0005 0.5H9.00046Z" fill="black"/>
<path fill-rule="evenodd" clip-rule="evenodd" d="M21.7661 13C21.7661 18.3944 17.3931 22.7674 11.9986 22.7674C6.60423 22.7674 2.2312 18.3944 2.2312 13C2.2312 7.60559 6.60423 3.23256 11.9986 3.23256C17.3931 3.23256 21.7661 7.60559 21.7661 13ZM12.4985 6.55814C12.4985 6.282 12.2747 6.05814 11.9985 6.05814C11.7224 6.05814 11.4985 6.282 11.4985 6.55814V11.854C11.057 12.0469 10.7485 12.4874 10.7485 13C10.7485 13.6904 11.3082 14.25 11.9985 14.25C12.5111 14.25 12.9516 13.9415 13.1445 13.5H18.4404C18.7165 13.5 18.9404 13.2761 18.9404 13C18.9404 12.7239 18.7165 12.5 18.4404 12.5H13.1445C13.0185 12.2116 12.7869 11.98 12.4985 11.854V6.55814Z" fill="black"/>
</svg>
