<svg width="24" height="24" viewBox="0 0 24 24" fill="none" xmlns="http://www.w3.org/2000/svg">
<path d="M2.75 12C2.75 6.89137 6.89137 2.75 12 2.75C16.5103 2.75 20.2667 5.97813 21.0847 10.25H23.6206C22.7755 4.59066 17.8947 0.25 12 0.25C5.51065 0.25 0.25 5.51065 0.25 12C0.25 18.4893 5.51065 23.75 12 23.75C17.8947 23.75 22.7755 19.4093 23.6206 13.75H21.0847C20.2667 18.0219 16.5103 21.25 12 21.25C6.89137 21.25 2.75 17.1086 2.75 12Z" fill="black"/>
<path d="M13.2248 13.25C12.9091 13.5593 12.4769 13.75 12 13.75C11.0335 13.75 10.25 12.9665 10.25 12C10.25 11.5232 10.4407 11.0909 10.75 10.7753V5C10.75 4.30964 11.3096 3.75 12 3.75C12.6904 3.75 13.25 4.30964 13.25 5V10.75H17C17.6904 10.75 18.25 11.3096 18.25 12C18.25 12.6904 17.6904 13.25 17 13.25H13.2248Z" fill="black"/>
</svg>
