<svg width="24" height="24" viewBox="0 0 24 24" fill="none" xmlns="http://www.w3.org/2000/svg">
<path fill-rule="evenodd" clip-rule="evenodd" d="M22.5 12C22.5 17.799 17.799 22.5 12 22.5C6.20101 22.5 1.5 17.799 1.5 12C1.5 6.20101 6.20101 1.5 12 1.5C17.799 1.5 22.5 6.20101 22.5 12ZM13.0001 12.75C12.772 13.0536 12.409 13.25 12 13.25C11.3096 13.25 10.75 12.6904 10.75 12C10.75 11.591 10.9464 11.228 11.25 10.9999V4C11.25 3.58579 11.5858 3.25 12 3.25C12.4142 3.25 12.75 3.58579 12.75 4V10.9999C12.8447 11.071 12.929 11.1553 13.0001 11.25H18C18.4142 11.25 18.75 11.5858 18.75 12C18.75 12.4142 18.4142 12.75 18 12.75H13.0001Z" fill="black"/>
</svg>
