<svg width="24" height="24" viewBox="0 0 24 24" fill="none" xmlns="http://www.w3.org/2000/svg">
<path d="M6.95177 2.17153C7.01489 1.76215 6.73419 1.37912 6.32482 1.31599C5.91544 1.25287 5.53241 1.53357 5.46929 1.94294L5.1543 3.98578C4.96879 5.18893 4.31157 6.29926 3.48712 7.39918C2.0823 9.2734 1.25 11.6005 1.25 14.1194C1.25 16.7966 2.19016 19.2567 3.75828 21.1869C4.07354 21.575 4.5331 21.7835 5 21.8053V22.5C5 22.7761 5.22386 23 5.5 23H7.5C7.77614 23 8 22.7761 8 22.5V21.8072H10.5V22.5C10.5 22.7761 10.7239 23 11 23H13C13.2761 23 13.5 22.7761 13.5 22.5V21.8072H16V22.5C16 22.7761 16.2239 23 16.5 23H18.5C18.7761 23 19 22.7761 19 22.5V21.8053C19.4669 21.7835 19.9265 21.575 20.2417 21.1869C21.8098 19.2567 22.75 16.7966 22.75 14.1194C22.75 11.6005 21.9177 9.2734 20.5129 7.39918C19.6884 6.29926 19.0312 5.18893 18.8457 3.98578L18.5307 1.94294C18.4676 1.53357 18.0846 1.25287 17.6752 1.31599C17.2658 1.37912 16.9851 1.76215 17.0482 2.17153L17.3632 4.21436C17.6066 5.79266 18.4491 7.14682 19.3126 8.29884C20.5298 9.92276 21.25 11.9363 21.25 14.1194C21.25 16.4392 20.4367 18.5681 19.0775 20.2411C19.0501 20.2748 18.9963 20.3072 18.9183 20.3072H5.08169C5.00373 20.3072 4.94985 20.2748 4.92251 20.2411C3.56333 18.5681 2.75 16.4392 2.75 14.1194C2.75 11.9363 3.47017 9.92276 4.68738 8.29884C5.55088 7.14682 6.39343 5.79266 6.63678 4.21436L6.95177 2.17153Z" fill="black"/>
<path d="M12 6.00004C12.4142 6.00004 12.75 6.33582 12.75 6.75004V12.25C12.75 12.6642 12.4142 13 12 13C11.5858 13 11.25 12.6642 11.25 12.25V6.75004C11.25 6.33582 11.5858 6.00004 12 6.00004Z" fill="black"/>
<path d="M13 15.5C13 16.0523 12.5523 16.5 12 16.5C11.4477 16.5 11 16.0523 11 15.5C11 14.9478 11.4477 14.5 12 14.5C12.5523 14.5 13 14.9478 13 15.5Z" fill="black"/>
</svg>
