<svg width="24" height="24" viewBox="0 0 24 24" fill="none" xmlns="http://www.w3.org/2000/svg">
<path d="M7.44593 2.24779C7.55113 1.5655 7.08331 0.927107 6.40101 0.821905C5.71872 0.716702 5.08033 1.18453 4.97513 1.86682L4.66014 3.90966C4.49391 4.98775 3.89847 6.01681 3.08704 7.09937C1.61968 9.05702 0.75 11.4886 0.75 14.1194C0.75 16.9158 1.73243 19.4863 3.3702 21.5023C3.78721 22.0156 4.39348 22.2837 5 22.3058V23.25C5 23.5261 5.22386 23.75 5.5 23.75H7.5C7.77614 23.75 8 23.5261 8 23.25V22.3073H10.5V23.25C10.5 23.5261 10.7239 23.75 11 23.75H13C13.2761 23.75 13.5 23.5261 13.5 23.25V22.3073H16V23.25C16 23.5261 16.2239 23.75 16.5 23.75H18.5C18.7761 23.75 19 23.5261 19 23.25V22.3058C19.6065 22.2837 20.2128 22.0156 20.6298 21.5023C22.2676 19.4863 23.25 16.9158 23.25 14.1194C23.25 11.4886 22.3803 9.05702 20.913 7.09937C20.1015 6.01681 19.5061 4.98775 19.3399 3.90966L19.0249 1.86682C18.9197 1.18453 18.2813 0.716702 17.599 0.821905C16.9167 0.927107 16.4489 1.5655 16.5541 2.24779L16.8691 4.29063C17.1317 5.99397 18.036 7.42941 18.9125 8.59879C20.0672 10.1393 20.75 12.0483 20.75 14.1194C20.75 16.2657 20.0166 18.2386 18.7842 19.8073H5.21582C3.98337 18.2386 3.25 16.2657 3.25 14.1194C3.25 12.0483 3.93279 10.1393 5.08747 8.59879C5.96398 7.42941 6.8683 5.99397 7.13094 4.29063L7.44593 2.24779Z" fill="black"/>
<path d="M12 4.87511C12.6904 4.87511 13.25 5.43475 13.25 6.12511V11.6251C13.25 12.3155 12.6904 12.8751 12 12.8751C11.3096 12.8751 10.75 12.3155 10.75 11.6251V6.12511C10.75 5.43475 11.3096 4.87511 12 4.87511Z" fill="black"/>
<path d="M13.5 16.1251C13.5 16.9535 12.8284 17.6251 12 17.6251C11.1716 17.6251 10.5 16.9535 10.5 16.1251C10.5 15.2967 11.1716 14.6251 12 14.6251C12.8284 14.6251 13.5 15.2967 13.5 16.1251Z" fill="black"/>
</svg>
