<svg width="24" height="24" viewBox="0 0 24 24" fill="none" xmlns="http://www.w3.org/2000/svg">
<path d="M6.45761 2.09535C6.47865 1.95889 6.38508 1.83122 6.24862 1.81018C6.11216 1.78914 5.98449 1.8827 5.96345 2.01916L5.64846 4.062C5.44367 5.39019 4.72467 6.5818 3.88721 7.69909C2.54492 9.48987 1.75 11.7124 1.75 14.1194C1.75 16.6775 2.64788 19.0272 4.14636 20.8717C4.36013 21.1348 4.67328 21.2834 5 21.3046V22.35C5 22.6261 5.22386 22.85 5.5 22.85H7.5C7.77614 22.85 8 22.6261 8 22.35V21.3073H10.5V22.35C10.5 22.6261 10.7239 22.85 11 22.85H13C13.2761 22.85 13.5 22.6261 13.5 22.35V21.3073H16V22.35C16 22.6261 16.2239 22.85 16.5 22.85H18.5C18.7761 22.85 19 22.6261 19 22.35V21.3046C19.3267 21.2834 19.6399 21.1348 19.8536 20.8717C21.3521 19.0272 22.25 16.6775 22.25 14.1194C22.25 11.7124 21.4551 9.48987 20.1128 7.69909C19.2753 6.5818 18.5563 5.39019 18.3515 4.062L18.0366 2.01916C18.0155 1.8827 17.8878 1.78914 17.7514 1.81018C17.6149 1.83122 17.5214 1.95889 17.5424 2.09535L17.8574 4.13819C18.0815 5.59144 18.8622 6.86432 19.7127 7.99897C20.9925 9.70633 21.75 11.8244 21.75 14.1194C21.75 16.5584 20.8944 18.7976 19.4656 20.5564C19.3361 20.7157 19.1351 20.8073 18.9183 20.8073H5.08169C4.86487 20.8073 4.66387 20.7157 4.53443 20.5564C3.1056 18.7976 2.25 16.5584 2.25 14.1194C2.25 11.8244 3.00755 9.70633 4.2873 7.99897C5.13777 6.86432 5.91855 5.59144 6.14262 4.13819L6.45761 2.09535Z" fill="black"/>
<path d="M12 6.85003C12.1657 6.85003 12.3 6.98435 12.3 7.15003V12.65C12.3 12.8157 12.1657 12.95 12 12.95C11.8343 12.95 11.7 12.8157 11.7 12.65V7.15003C11.7 6.98435 11.8343 6.85003 12 6.85003Z" fill="black"/>
<path d="M12.5 15.1501C12.5 15.4262 12.2761 15.6501 12 15.6501C11.7239 15.6501 11.5 15.4262 11.5 15.1501C11.5 14.8739 11.7239 14.6501 12 14.6501C12.2761 14.6501 12.5 14.8739 12.5 15.1501Z" fill="black"/>
</svg>
