<svg width="24" height="24" viewBox="0 0 24 24" fill="none" xmlns="http://www.w3.org/2000/svg">
<path d="M7.44593 2.24773C7.55113 1.56544 7.08331 0.927046 6.40101 0.821844C5.71872 0.716641 5.08033 1.18447 4.97513 1.86676L4.66014 3.9096C4.49391 4.98769 3.89847 6.01675 3.08704 7.09931C1.61968 9.05696 0.75 11.4885 0.75 14.1194C0.75 16.9157 1.73243 19.4862 3.3702 21.5022C3.78721 22.0155 4.39348 22.2837 5 22.3058V23.2499C5 23.5261 5.22386 23.7499 5.5 23.7499H7.5C7.77614 23.7499 8 23.5261 8 23.2499V22.3072H10.5V23.2499C10.5 23.5261 10.7239 23.7499 11 23.7499H13C13.2761 23.7499 13.5 23.5261 13.5 23.2499V22.3072H16V23.2499C16 23.5261 16.2239 23.7499 16.5 23.7499H18.5C18.7761 23.7499 19 23.5261 19 23.2499V22.3058C19.6065 22.2837 20.2128 22.0155 20.6298 21.5022C22.2676 19.4862 23.25 16.9157 23.25 14.1194C23.25 11.4885 22.3803 9.05696 20.913 7.09931C20.1015 6.01675 19.5061 4.98769 19.3399 3.9096L19.0249 1.86676C18.9197 1.18447 18.2813 0.716641 17.599 0.821844C16.9167 0.927046 16.4489 1.56544 16.5541 2.24773L16.8691 4.29057C17.1317 5.99391 18.036 7.42935 18.9125 8.59873C20.0672 10.1392 20.75 12.0482 20.75 14.1194C20.75 16.2656 20.0166 18.2385 18.7842 19.8072H5.21582C3.98337 18.2385 3.25 16.2656 3.25 14.1194C3.25 12.0482 3.93279 10.1392 5.08747 8.59873C5.96398 7.42935 6.8683 5.99391 7.13094 4.29057L7.44593 2.24773Z" fill="black"/>
<path d="M12 4.87504C12.6904 4.87504 13.25 5.43469 13.25 6.12504V11.625C13.25 12.3154 12.6904 12.875 12 12.875C11.3096 12.875 10.75 12.3154 10.75 11.625V6.12504C10.75 5.43469 11.3096 4.87504 12 4.87504Z" fill="black"/>
<path d="M13.5 16.125C13.5 16.9535 12.8284 17.625 12 17.625C11.1716 17.625 10.5 16.9535 10.5 16.125C10.5 15.2966 11.1716 14.625 12 14.625C12.8284 14.625 13.5 15.2966 13.5 16.125Z" fill="black"/>
</svg>
