<svg width="24" height="24" viewBox="0 0 24 24" fill="none" xmlns="http://www.w3.org/2000/svg">
<path d="M11 4C11 4.55228 10.5523 5 10 5C9.44771 5 9 4.55228 9 4C9 3.44772 9.44771 3 10 3C10.5523 3 11 3.44772 11 4Z" fill="black"/>
<path d="M13 6.5C13.5523 6.5 14 6.05228 14 5.5C14 4.94772 13.5523 4.5 13 4.5C12.4477 4.5 12 4.94772 12 5.5C12 6.05228 12.4477 6.5 13 6.5Z" fill="black"/>
<path d="M7 16C6.44772 16 6 16.4477 6 17C6 17.5523 6.44772 18 7 18C7.55228 18 8 17.5523 8 17C8 16.4477 7.55228 16 7 16Z" fill="black"/>
<path fill-rule="evenodd" clip-rule="evenodd" d="M9.46221 0C6.9978 0 5 1.9978 5 4.46221C5 5.07177 5.24214 5.65636 5.67317 6.08738L5.79289 6.20711C5.9255 6.33972 6 6.51957 6 6.70711V8C3.23858 8 1 10.2386 1 13V20C1 21.6569 2.34315 23 4 23H20C21.6569 23 23 21.6569 23 20V13C23 10.2386 20.7614 8 18 8V6.70711C18 6.51957 18.0745 6.33972 18.2071 6.20711L18.3268 6.08738C18.7579 5.65636 19 5.07177 19 4.46221C19 1.9978 17.0022 0 14.5378 0H9.46221ZM16 8V6.70711C16 5.98914 16.2852 5.30057 16.7929 4.79289L16.9126 4.67317C16.9686 4.61722 17 4.54134 17 4.46221C17 3.10237 15.8976 2 14.5378 2H9.46221C8.10237 2 7 3.10237 7 4.46221C7 4.54134 7.03143 4.61722 7.08738 4.67316L7.20711 4.79289C7.71479 5.30057 8 5.98914 8 6.70711V8H16ZM16.5 11.5C17.0523 11.5 17.5 11.9477 17.5 12.5V16H18C18.5523 16 19 16.4477 19 17C19 17.5523 18.5523 18 18 18H17.5V19C17.5 19.5523 17.0523 20 16.5 20C15.9477 20 15.5 19.5523 15.5 19V18H15C14.4477 18 14 17.5523 14 17C14 16.4477 14.4477 16 15 16H15.5V12.5C15.5 11.9477 15.9477 11.5 16.5 11.5ZM4 17C4 15.3431 5.34315 14 7 14C8.65685 14 10 15.3431 10 17C10 18.6569 8.65685 20 7 20C5.34315 20 4 18.6569 4 17Z" fill="black"/>
</svg>
