<svg width="24" height="24" viewBox="0 0 24 24" fill="none" xmlns="http://www.w3.org/2000/svg">
<path d="M9.5 5C9.91421 5 10.25 4.66421 10.25 4.25C10.25 3.83579 9.91421 3.5 9.5 3.5C9.08579 3.5 8.75 3.83579 8.75 4.25C8.75 4.66421 9.08579 5 9.5 5Z" fill="black"/>
<path d="M12.25 5.5C12.25 5.91421 11.9142 6.25 11.5 6.25C11.0858 6.25 10.75 5.91421 10.75 5.5C10.75 5.08579 11.0858 4.75 11.5 4.75C11.9142 4.75 12.25 5.08579 12.25 5.5Z" fill="black"/>
<path d="M9.5 7.5C9.91421 7.5 10.25 7.16421 10.25 6.75C10.25 6.33579 9.91421 6 9.5 6C9.08579 6 8.75 6.33579 8.75 6.75C8.75 7.16421 9.08579 7.5 9.5 7.5Z" fill="black"/>
<path d="M5.75 17C5.75 16.3096 6.30964 15.75 7 15.75C7.69036 15.75 8.25 16.3096 8.25 17C8.25 17.6904 7.69036 18.25 7 18.25C6.30964 18.25 5.75 17.6904 5.75 17Z" fill="black"/>
<path fill-rule="evenodd" clip-rule="evenodd" d="M5.25 5.46221C5.25 3.13587 7.13587 1.25 9.46221 1.25H14.5378C16.8641 1.25 18.75 3.13587 18.75 5.46221C18.75 6.00547 18.5342 6.52647 18.1501 6.9106L18.0303 7.03033C17.8508 7.20982 17.75 7.45327 17.75 7.70711V8.25H18C20.6234 8.25 22.75 10.3766 22.75 13V20C22.75 21.5188 21.5188 22.75 20 22.75H4C2.48122 22.75 1.25 21.5188 1.25 20V13C1.25 10.3766 3.37665 8.25 6 8.25H6.25V7.70711C6.25 7.45327 6.14916 7.20982 5.96967 7.03033L5.84994 6.9106C5.46581 6.52647 5.25 6.00546 5.25 5.46221ZM16.25 7.70711V8.25H7.75V7.70711C7.75 7.05544 7.49113 6.43047 7.03033 5.96967L6.9106 5.84994C6.80777 5.74711 6.75 5.60764 6.75 5.46221C6.75 3.9643 7.9643 2.75 9.46221 2.75H14.5378C16.0357 2.75 17.25 3.9643 17.25 5.46221C17.25 5.60764 17.1922 5.74711 17.0894 5.84994L16.9697 5.96967C16.5089 6.43047 16.25 7.05544 16.25 7.70711ZM17.25 12.5C17.25 12.0858 16.9142 11.75 16.5 11.75C16.0858 11.75 15.75 12.0858 15.75 12.5V16.25H15C14.5858 16.25 14.25 16.5858 14.25 17C14.25 17.4142 14.5858 17.75 15 17.75H15.75V19C15.75 19.4142 16.0858 19.75 16.5 19.75C16.9142 19.75 17.25 19.4142 17.25 19V17.75H18C18.4142 17.75 18.75 17.4142 18.75 17C18.75 16.5858 18.4142 16.25 18 16.25H17.25V12.5ZM7 14.25C5.48122 14.25 4.25 15.4812 4.25 17C4.25 18.5188 5.48122 19.75 7 19.75C8.51878 19.75 9.75 18.5188 9.75 17C9.75 15.4812 8.51878 14.25 7 14.25Z" fill="black"/>
</svg>
