<svg width="24" height="25" viewBox="0 0 24 25" fill="none" xmlns="http://www.w3.org/2000/svg">
<path d="M17.75 13.5V17.25H18C18.6904 17.25 19.25 17.8096 19.25 18.5C19.25 19.1904 18.6904 19.75 18 19.75H17.75V20C17.75 20.6904 17.1904 21.25 16.5 21.25C15.8096 21.25 15.25 20.6904 15.25 20V19.75H15C14.3096 19.75 13.75 19.1904 13.75 18.5C13.75 17.8096 14.3096 17.25 15 17.25H15.25V13.5C15.25 12.8096 15.8096 12.25 16.5 12.25C17.1904 12.25 17.75 12.8096 17.75 13.5Z" fill="black"/>
<path fill-rule="evenodd" clip-rule="evenodd" d="M7 14.75C5.20507 14.75 3.75 16.2051 3.75 18C3.75 19.7949 5.20507 21.25 7 21.25C8.79493 21.25 10.25 19.7949 10.25 18C10.25 16.2051 8.79493 14.75 7 14.75ZM6.25 18C6.25 17.5858 6.58579 17.25 7 17.25C7.41421 17.25 7.75 17.5858 7.75 18C7.75 18.4142 7.41421 18.75 7 18.75C6.58579 18.75 6.25 18.4142 6.25 18Z" fill="black"/>
<path d="M10 6C10.5523 6 11 5.55228 11 5C11 4.44772 10.5523 4 10 4C9.44771 4 9 4.44772 9 5C9 5.55228 9.44771 6 10 6Z" fill="black"/>
<path d="M14 6.5C14 7.05228 13.5523 7.5 13 7.5C12.4477 7.5 12 7.05228 12 6.5C12 5.94772 12.4477 5.5 13 5.5C13.5523 5.5 14 5.94772 14 6.5Z" fill="black"/>
<path fill-rule="evenodd" clip-rule="evenodd" d="M4.75 5.46221C4.75 2.85973 6.85973 0.75 9.46221 0.75H14.5378C17.1403 0.75 19.25 2.85973 19.25 5.46221C19.25 6.13807 18.9815 6.78625 18.5036 7.26415L18.3839 7.38389C18.2982 7.46961 18.25 7.58587 18.25 7.70711V8.75585C21.0334 8.88634 23.25 11.1843 23.25 14V22C23.25 23.2426 22.2426 24.25 21 24.25H3C1.75736 24.25 0.75 23.2426 0.75 22V14C0.75 11.1843 2.96659 8.88634 5.75 8.75585V7.70711C5.75 7.58588 5.70184 7.46961 5.61612 7.38388L5.49639 7.26416C5.01848 6.78625 4.75 6.13807 4.75 5.46221ZM18 11.25C19.5188 11.25 20.75 12.4812 20.75 14V21.75H3.25V14C3.25 12.4812 4.48122 11.25 6 11.25H18ZM15.75 7.70711V8.75H8.25V7.70711C8.25 6.92283 7.93845 6.17068 7.38388 5.61612L7.26416 5.49639C7.25509 5.48733 7.25 5.47503 7.25 5.46221C7.25 4.24044 8.24044 3.25 9.46221 3.25H14.5378C15.7596 3.25 16.75 4.24044 16.75 5.46221C16.75 5.47503 16.7449 5.48733 16.7358 5.49639L16.6161 5.61611C16.0616 6.17068 15.75 6.92283 15.75 7.70711Z" fill="black"/>
</svg>
