<svg width="24" height="24" viewBox="0 0 24 24" fill="none" xmlns="http://www.w3.org/2000/svg">
<path d="M9.5 5C9.91421 5 10.25 4.66421 10.25 4.25C10.25 3.83579 9.91421 3.5 9.5 3.5C9.08579 3.5 8.75 3.83579 8.75 4.25C8.75 4.66421 9.08579 5 9.5 5Z" fill="black"/>
<path d="M12.25 5.5C12.25 5.91421 11.9142 6.25 11.5 6.25C11.0858 6.25 10.75 5.91421 10.75 5.5C10.75 5.08579 11.0858 4.75 11.5 4.75C11.9142 4.75 12.25 5.08579 12.25 5.5Z" fill="black"/>
<path d="M9.5 7.5C9.91421 7.5 10.25 7.16421 10.25 6.75C10.25 6.33579 9.91421 6 9.5 6C9.08579 6 8.75 6.33579 8.75 6.75C8.75 7.16421 9.08579 7.5 9.5 7.5Z" fill="black"/>
<path d="M5.5 17C5.5 16.1716 6.17157 15.5 7 15.5C7.82843 15.5 8.5 16.1716 8.5 17C8.5 17.8284 7.82843 18.5 7 18.5C6.17157 18.5 5.5 17.8284 5.5 17Z" fill="black"/>
<path fill-rule="evenodd" clip-rule="evenodd" d="M5.5 5.46221C5.5 3.27394 7.27394 1.5 9.46221 1.5H14.5378C16.7261 1.5 18.5 3.27394 18.5 5.46221C18.5 5.93916 18.3105 6.39657 17.9733 6.73383L17.8536 6.85355C17.6272 7.07993 17.5 7.38696 17.5 7.70711V8.5H18C20.4853 8.5 22.5 10.5147 22.5 13V20C22.5 21.3807 21.3807 22.5 20 22.5H4C2.61929 22.5 1.5 21.3807 1.5 20V13C1.5 10.5147 3.51472 8.5 6 8.5H6.5V7.70711C6.5 7.38696 6.37282 7.07993 6.14645 6.85355L6.02672 6.73383C5.68947 6.39657 5.5 5.93916 5.5 5.46221ZM16.5 7.70711V8.5H7.5V7.70711C7.5 7.12175 7.26747 6.56036 6.85355 6.14645L6.73383 6.02672C6.58411 5.877 6.5 5.67394 6.5 5.46221C6.5 3.82623 7.82623 2.5 9.46221 2.5H14.5378C16.1738 2.5 17.5 3.82623 17.5 5.46221C17.5 5.67394 17.4159 5.877 17.2662 6.02672L17.1464 6.14645C16.7325 6.56036 16.5 7.12175 16.5 7.70711ZM17 12.5C17 12.2239 16.7761 12 16.5 12C16.2239 12 16 12.2239 16 12.5V16.5H15C14.7239 16.5 14.5 16.7239 14.5 17C14.5 17.2761 14.7239 17.5 15 17.5H16V19C16 19.2761 16.2239 19.5 16.5 19.5C16.7761 19.5 17 19.2761 17 19V17.5H18C18.2761 17.5 18.5 17.2761 18.5 17C18.5 16.7239 18.2761 16.5 18 16.5H17V12.5ZM7 14.5C5.61929 14.5 4.5 15.6193 4.5 17C4.5 18.3807 5.61929 19.5 7 19.5C8.38071 19.5 9.5 18.3807 9.5 17C9.5 15.6193 8.38071 14.5 7 14.5Z" fill="black"/>
</svg>
