<svg width="24" height="24" viewBox="0 0 24 24" fill="none" xmlns="http://www.w3.org/2000/svg">
<path d="M10.25 4.25C10.25 4.66421 9.91421 5 9.5 5C9.08579 5 8.75 4.66421 8.75 4.25C8.75 3.83579 9.08579 3.5 9.5 3.5C9.91421 3.5 10.25 3.83579 10.25 4.25Z" fill="black"/>
<path d="M11.5 6.25C11.9142 6.25 12.25 5.91421 12.25 5.5C12.25 5.08579 11.9142 4.75 11.5 4.75C11.0858 4.75 10.75 5.08579 10.75 5.5C10.75 5.91421 11.0858 6.25 11.5 6.25Z" fill="black"/>
<path d="M10.25 6.75C10.25 7.16421 9.91421 7.5 9.5 7.5C9.08579 7.5 8.75 7.16421 8.75 6.75C8.75 6.33579 9.08579 6 9.5 6C9.91421 6 10.25 6.33579 10.25 6.75Z" fill="black"/>
<path d="M17.25 12.5C17.25 12.0858 16.9142 11.75 16.5 11.75C16.0858 11.75 15.75 12.0858 15.75 12.5V16.25H15C14.5858 16.25 14.25 16.5858 14.25 17C14.25 17.4142 14.5858 17.75 15 17.75H15.75V19C15.75 19.4142 16.0858 19.75 16.5 19.75C16.9142 19.75 17.25 19.4142 17.25 19V17.75H18C18.4142 17.75 18.75 17.4142 18.75 17C18.75 16.5858 18.4142 16.25 18 16.25H17.25V12.5Z" fill="black"/>
<path fill-rule="evenodd" clip-rule="evenodd" d="M7 14.25C5.48122 14.25 4.25 15.4812 4.25 17C4.25 18.5188 5.48122 19.75 7 19.75C8.51878 19.75 9.75 18.5188 9.75 17C9.75 15.4812 8.51878 14.25 7 14.25ZM5.75 17C5.75 16.3096 6.30964 15.75 7 15.75C7.69036 15.75 8.25 16.3096 8.25 17C8.25 17.6904 7.69036 18.25 7 18.25C6.30964 18.25 5.75 17.6904 5.75 17Z" fill="black"/>
<path fill-rule="evenodd" clip-rule="evenodd" d="M9.46221 1.25C7.13587 1.25 5.25 3.13587 5.25 5.46221C5.25 6.00546 5.46581 6.52647 5.84994 6.9106L5.96967 7.03033C6.14916 7.20982 6.25 7.45327 6.25 7.70711V8.25H6C3.37665 8.25 1.25 10.3766 1.25 13V20C1.25 21.5188 2.48122 22.75 4 22.75H20C21.5188 22.75 22.75 21.5188 22.75 20V13C22.75 10.3766 20.6234 8.25 18 8.25H17.75V7.70711C17.75 7.45327 17.8508 7.20982 18.0303 7.03033L18.1501 6.9106C18.5342 6.52647 18.75 6.00547 18.75 5.46221C18.75 3.13587 16.8641 1.25 14.5378 1.25H9.46221ZM16.25 8.25V7.70711C16.25 7.05544 16.5089 6.43047 16.9697 5.96967L17.0894 5.84994C17.1922 5.74711 17.25 5.60764 17.25 5.46221C17.25 3.9643 16.0357 2.75 14.5378 2.75H9.46221C7.9643 2.75 6.75 3.9643 6.75 5.46221C6.75 5.60764 6.80777 5.74711 6.9106 5.84994L7.03033 5.96967C7.49113 6.43047 7.75 7.05544 7.75 7.70711V8.25H16.25ZM6 9.75C4.20507 9.75 2.75 11.2051 2.75 13V20C2.75 20.6904 3.30964 21.25 4 21.25H20C20.6904 21.25 21.25 20.6904 21.25 20V13C21.25 11.2051 19.7949 9.75 18 9.75H6Z" fill="black"/>
</svg>
