<svg width="24" height="24" viewBox="0 0 24 24" fill="none" xmlns="http://www.w3.org/2000/svg">
<path fill-rule="evenodd" clip-rule="evenodd" d="M0.123117 8.43565C0 9.21298 0 10.142 0 12C0 13.858 0 14.787 0.123117 15.5643C0.800832 19.8433 4.15673 23.1992 8.43565 23.8769C9.21298 24 10.142 24 12 24C13.858 24 14.787 24 15.5643 23.8769C19.8433 23.1992 23.1992 19.8433 23.8769 15.5643C24 14.787 24 13.858 24 12C24 10.142 24 9.21298 23.8769 8.43565C23.1992 4.15673 19.8433 0.800832 15.5643 0.123117C14.787 0 13.858 0 12 0C10.142 0 9.21298 0 8.43565 0.123117C4.15673 0.800832 0.800832 4.15673 0.123117 8.43565ZM11.1673 4.78377C11.6855 4.26551 12.5258 4.26552 13.044 4.78377L16.9895 8.72927C17.4777 9.21743 17.4777 10.0089 16.9895 10.497C16.5014 10.9852 15.7099 10.9852 15.2218 10.497L13.3556 8.63092V17.7924C13.3556 18.4828 12.796 19.0424 12.1056 19.0424C11.4153 19.0424 10.8556 18.4828 10.8556 17.7924V8.63093L8.98954 10.497C8.50138 10.9852 7.70993 10.9852 7.22177 10.497C6.73361 10.0089 6.73361 9.21743 7.22177 8.72927L11.1673 4.78377Z" fill="black"/>
</svg>
