<svg width="24" height="24" viewBox="0 0 24 24" fill="none" xmlns="http://www.w3.org/2000/svg">
<path d="M14.811 4.51144C14.6756 4.61827 14.4162 4.61827 13.8973 4.61827H13.2549L13.2549 22.3751C13.2549 23.0655 12.6953 23.6251 12.0049 23.6251C11.3146 23.6251 10.7549 23.0655 10.7549 22.3751L10.7549 4.61827H10.1027C9.58381 4.61827 9.32436 4.61827 9.18901 4.51144C9.07124 4.4185 9.00179 4.27732 9.00002 4.12731C8.99799 3.95488 9.15631 3.74935 9.47296 3.33828L11.3703 0.875207C11.5846 0.596985 11.6917 0.457873 11.8223 0.407865C11.9367 0.364045 12.0633 0.364045 12.1777 0.407865C12.3083 0.457873 12.4154 0.596985 12.6297 0.875207L14.527 3.33828C14.8437 3.74935 15.002 3.95488 15 4.12731C14.9982 4.27732 14.9288 4.4185 14.811 4.51144Z" fill="black"/>
</svg>
