<svg width="24" height="24" viewBox="0 0 24 24" fill="none" xmlns="http://www.w3.org/2000/svg">
<path fill-rule="evenodd" clip-rule="evenodd" d="M0.123117 8.43565C0 9.21298 0 10.142 0 12C0 13.858 0 14.787 0.123117 15.5643C0.800832 19.8433 4.15673 23.1992 8.43565 23.8769C9.21298 24 10.142 24 12 24C13.858 24 14.787 24 15.5643 23.8769C19.8433 23.1992 23.1992 19.8433 23.8769 15.5643C24 14.787 24 13.858 24 12C24 10.142 24 9.21298 23.8769 8.43565C23.1992 4.15673 19.8433 0.800832 15.5643 0.123117C14.787 0 13.858 0 12 0C10.142 0 9.21298 0 8.43565 0.123117C4.15673 0.800832 0.800832 4.15673 0.123117 8.43565ZM11.8744 5.49088C12.0021 5.36314 12.2092 5.36315 12.3369 5.49088L16.2824 9.43638C16.3801 9.53401 16.3801 9.6923 16.2824 9.78993C16.1848 9.88756 16.0265 9.88756 15.9289 9.78993L12.3556 6.2167V17.7924C12.3556 17.9305 12.2437 18.0424 12.1056 18.0424C11.9676 18.0424 11.8556 17.9305 11.8556 17.7924V6.21671L8.28243 9.78993C8.1848 9.88756 8.02651 9.88756 7.92888 9.78993C7.83125 9.6923 7.83125 9.53401 7.92888 9.43638L11.8744 5.49088Z" fill="black"/>
</svg>
