<svg width="24" height="25" viewBox="0 0 24 25" fill="none" xmlns="http://www.w3.org/2000/svg">
<path d="M15.0001 4.12698C14.9983 4.27699 14.9284 4.41881 14.8106 4.51175C14.6752 4.61833 14.4157 4.6182 13.8975 4.6182H13.755V22.375L13.7462 22.5537C13.6566 23.4363 12.9111 24.125 12.005 24.125C11.0988 24.125 10.3533 23.4363 10.2637 22.5537L10.255 22.375V4.6182H10.1026C9.58443 4.6182 9.32495 4.61828 9.18953 4.51175C9.07177 4.41881 9.00185 4.27699 9.00008 4.12698C8.99818 3.95462 9.15628 3.74877 9.47273 3.33792L11.3702 0.875031C11.5844 0.596914 11.6918 0.45828 11.8223 0.408234C11.9368 0.36441 12.0634 0.36441 12.1778 0.408234C12.3083 0.458316 12.4158 0.596948 12.63 0.875031L14.5264 3.33792C14.8429 3.74881 15.002 3.95461 15.0001 4.12698Z" fill="black"/>
</svg>
