<svg width="24" height="24" viewBox="0 0 24 24" fill="none" xmlns="http://www.w3.org/2000/svg">
<path fill-rule="evenodd" clip-rule="evenodd" d="M0.719791 11.9893C0.150892 11.6097 0.0602719 10.7973 0.552799 10.3047L1.52643 9.33107C1.9979 8.8597 2.5813 8.5253 3.21295 8.3506C2.41035 7.32423 2.03294 6.00899 2.19831 4.68556L2.30085 3.86525C2.33617 3.58294 2.49285 3.32975 2.72956 3.17189C3.3802 2.73841 4.25168 3.20457 4.25202 3.98634V4.11037C4.25202 5.16384 5.18179 5.97596 6.22565 5.834L9.64264 5.36818C9.6555 5.36465 9.66881 5.36282 9.6817 5.35939C9.69384 5.35617 9.70567 5.35178 9.71784 5.34865C9.72742 5.34618 9.73752 5.3452 9.74713 5.34279C9.8405 5.31941 9.93488 5.29905 10.0303 5.28127C10.0682 5.27417 10.1064 5.26892 10.1446 5.26271C10.209 5.25231 10.2737 5.2422 10.3389 5.23439C10.3692 5.23073 10.3993 5.22479 10.4298 5.2217C10.4573 5.2189 10.4851 5.21814 10.5128 5.21584C10.5491 5.21281 10.5855 5.20927 10.6221 5.20705C10.7213 5.20108 10.8212 5.19728 10.9219 5.19728H13.0801C13.0964 5.19728 13.1128 5.1991 13.129 5.19923L13.1299 5.19728C13.1717 5.19728 13.2134 5.20014 13.2549 5.20119C13.2794 5.20201 13.3038 5.20191 13.3282 5.20314C13.3308 5.20327 13.3334 5.20398 13.336 5.20412C13.706 5.21951 14.0655 5.2737 14.4092 5.36818L17.8262 5.834C18.8701 5.97595 19.7999 5.16384 19.7999 4.11037V3.98634C19.8002 3.20451 20.6717 2.73826 21.3223 3.17189C21.559 3.32975 21.7157 3.58293 21.751 3.86525L21.8536 4.68556C22.0193 6.01173 21.6391 7.32917 20.8331 8.35646C21.4567 8.53274 22.0319 8.86489 22.4981 9.33107L23.4727 10.3047C23.9651 10.7973 23.8736 11.6097 23.3048 11.9893L22.0294 12.8399C20.8246 13.6428 19.2697 13.6956 18.0128 12.9776L17.3008 12.5723L16.1592 15.3106C15.674 14.9057 15.1056 14.592 14.4835 14.4287L14.377 14.4004C12.8196 13.9921 11.1825 13.9924 9.62506 14.4004L9.51569 14.4287C8.89336 14.5919 8.32463 14.905 7.83991 15.3096L6.70417 12.583L6.01276 12.9776C4.7556 13.6959 3.20012 13.6431 1.99518 12.8399L0.719791 11.9893ZM19.004 11.2412C19.6034 11.5835 20.3457 11.5584 20.92 11.1758L21.2755 10.9375L21.084 10.7451C20.7421 10.4032 20.278 10.2111 19.795 10.211H18.6671C18.6589 10.4776 18.6331 10.7431 18.5919 11.0059L19.004 11.2412ZM13.6036 12.4795C13.6036 12.8937 13.9394 13.2294 14.3536 13.2295C14.7676 13.2292 15.1036 12.8936 15.1036 12.4795C15.1034 12.0656 14.7674 11.7298 14.3536 11.7295C13.9396 11.7296 13.6038 12.0655 13.6036 12.4795ZM8.89752 12.4795C8.89752 12.8936 9.23354 13.2292 9.64752 13.2295C10.0617 13.2295 10.3975 12.8937 10.3975 12.4795C10.3973 12.0655 10.0616 11.7295 9.64752 11.7295C9.23367 11.7298 8.89773 12.0656 8.89752 12.4795ZM3.10456 11.1748C3.67899 11.5578 4.42095 11.5838 5.02057 11.2412L5.43268 11.0049C5.39157 10.7424 5.36567 10.4773 5.35749 10.211L4.23053 10.211L4.04987 10.2197C3.63295 10.2613 3.2407 10.446 2.94147 10.7451L2.74811 10.9375L3.10456 11.1748Z" fill="black"/>
<path fill-rule="evenodd" clip-rule="evenodd" d="M8.1319 20.3467C7.60962 19.563 7.51392 18.5696 7.87604 17.7002C8.20598 16.9087 8.91508 16.2047 9.73151 15.9287L9.89655 15.8799L10.0059 15.8506C11.3138 15.5081 12.6884 15.5087 13.9962 15.8516L14.1026 15.8789C14.9877 16.1112 15.774 16.8556 16.126 17.7002L16.1885 17.8643C16.4747 18.6928 16.3591 19.6128 15.8692 20.3477L15.7413 20.5264C15.0781 21.3978 14.043 21.9149 12.9395 21.9151H11.0626C9.88524 21.9149 8.78507 21.3262 8.1319 20.3467ZM12.6622 19.0918C12.6622 19.506 12.998 19.8417 13.4122 19.8418C13.8263 19.8417 14.1622 19.506 14.1622 19.0918C14.162 18.6778 13.8262 18.3419 13.4122 18.3418C12.9981 18.3419 12.6624 18.6778 12.6622 19.0918ZM9.83893 19.0918C9.83893 19.506 10.1748 19.8417 10.5889 19.8418C11.0031 19.8418 11.3389 19.506 11.3389 19.0918C11.3387 18.6778 11.003 18.3418 10.5889 18.3418C10.1749 18.3419 9.83913 18.6778 9.83893 19.0918Z" fill="black"/>
</svg>
