<svg width="24" height="24" viewBox="0 0 24 24" fill="none" xmlns="http://www.w3.org/2000/svg">
<path d="M13.6037 12.9764C13.6037 12.5622 13.9395 12.2264 14.3537 12.2264C14.7677 12.2266 15.1037 12.5623 15.1037 12.9764C15.1036 13.3904 14.7677 13.7263 14.3537 13.7264C13.9395 13.7264 13.6038 13.3906 13.6037 12.9764Z" fill="black"/>
<path d="M8.8986 12.9764C8.8986 12.5622 9.23438 12.2264 9.6486 12.2264C10.0626 12.2267 10.3986 12.5624 10.3986 12.9764C10.3986 13.3905 10.0626 13.7262 9.6486 13.7264C9.23441 13.7264 8.89864 13.3906 8.8986 12.9764Z" fill="black"/>
<path d="M12.6623 19.0926C12.6625 18.6786 12.9982 18.3427 13.4123 18.3426C13.8263 18.3426 14.162 18.6786 14.1623 19.0926C14.1623 19.5069 13.8265 19.8426 13.4123 19.8426C12.9981 19.8426 12.6623 19.5069 12.6623 19.0926Z" fill="black"/>
<path d="M9.83903 19.0926C9.83925 18.6787 10.175 18.3427 10.589 18.3426C11.0031 18.3426 11.3388 18.6786 11.339 19.0926C11.339 19.5069 11.0032 19.8426 10.589 19.8426C10.1749 19.8426 9.83903 19.5068 9.83903 19.0926Z" fill="black"/>
<path fill-rule="evenodd" clip-rule="evenodd" d="M0.858558 11.7821C0.419605 11.4892 0.349785 10.8622 0.729652 10.4823L1.70426 9.50867C2.04222 9.17078 2.44141 8.90842 2.87516 8.73034C1.95296 7.59031 1.51635 6.11154 1.70231 4.6239L1.80485 3.80456L1.83317 3.64636C1.919 3.28421 2.13939 2.96537 2.45231 2.75671C3.43522 2.10172 4.75178 2.80606 4.75211 3.98718V4.1112C4.75211 4.86176 5.41466 5.43988 6.15836 5.33874L9.54606 4.87781C9.55025 4.87668 9.55456 4.87599 9.55875 4.87488C9.65823 4.84856 9.75884 4.82517 9.86051 4.80456C9.87315 4.802 9.88593 4.8002 9.8986 4.79773C9.98255 4.78135 10.0672 4.76713 10.1525 4.75476C10.1914 4.74912 10.2305 4.74392 10.2697 4.73913C10.3496 4.72936 10.43 4.72189 10.5109 4.7157C10.5395 4.71351 10.5681 4.71157 10.5968 4.70984C10.7044 4.70334 10.8128 4.69812 10.922 4.69812H13.0802C13.0965 4.69812 13.1128 4.69992 13.1291 4.70007L13.13 4.69812C13.179 4.69812 13.2279 4.70169 13.2765 4.703C13.3065 4.70409 13.3365 4.70532 13.3664 4.70691C13.7588 4.72405 14.1403 4.78007 14.506 4.8778L17.8937 5.33874C18.6374 5.43988 19.3 4.86176 19.3 4.1112V3.98718C19.3003 2.806 20.6168 2.10156 21.5998 2.75671C21.9127 2.96537 22.1331 3.28419 22.2189 3.64636L22.2472 3.80456L22.3498 4.6239C22.5362 6.11521 22.096 7.597 21.1691 8.73816C21.5956 8.91607 21.9884 9.17568 22.3214 9.50866L23.2961 10.4823C23.6757 10.8622 23.605 11.4892 23.1662 11.7821L21.8908 12.6327C20.7649 13.383 19.3116 13.4326 18.1369 12.7616L17.8361 12.5907L16.3527 16.1493C16.3331 16.1963 16.3331 16.2497 16.3527 16.2968L16.8175 17.412C16.8638 17.523 16.9022 17.6361 16.9367 17.7499C16.943 17.7707 16.9493 17.7915 16.9552 17.8124C16.9649 17.8465 16.974 17.8806 16.9826 17.9149C16.9918 17.9517 17.0019 17.9883 17.0099 18.0253C17.0176 18.0606 17.0229 18.0963 17.0295 18.1317C17.0354 18.1636 17.042 18.1954 17.047 18.2274C17.0535 18.2684 17.0586 18.3094 17.0636 18.3505C17.0672 18.3791 17.0716 18.4077 17.0744 18.4364C17.0781 18.4741 17.0807 18.5119 17.0832 18.5497C17.0855 18.5848 17.0868 18.62 17.0881 18.6551C17.0892 18.6877 17.0897 18.7202 17.09 18.7528C17.0903 18.7896 17.0908 18.8264 17.09 18.8632C17.0892 18.899 17.087 18.9348 17.0851 18.9706C17.0832 19.0081 17.0814 19.0455 17.0783 19.0829C17.0761 19.1087 17.0732 19.1343 17.0705 19.16C17.0653 19.2086 17.06 19.2572 17.0529 19.3055C17.0493 19.3297 17.0452 19.3537 17.0412 19.3778C17.0349 19.415 17.0281 19.4521 17.0207 19.4891C17.0135 19.5247 17.0065 19.5602 16.9982 19.5956C16.9903 19.6296 16.9808 19.6633 16.9718 19.6971C16.9632 19.7297 16.955 19.7624 16.9455 19.7948C16.9327 19.838 16.9189 19.8809 16.9045 19.9237C16.8973 19.9449 16.8905 19.9661 16.883 19.9872C16.8107 20.1894 16.7208 20.3865 16.6115 20.5751L16.4933 20.7645C16.3411 20.9928 16.1677 21.2029 15.9787 21.3944C15.8224 21.5527 15.6541 21.6969 15.4767 21.828C15.031 22.1573 14.5253 22.3996 13.9855 22.536C13.6475 22.6214 13.2965 22.6659 12.9396 22.6659H11.0627C10.2593 22.6659 9.48553 22.4402 8.82145 22.0311C8.3784 21.7583 7.98425 21.4036 7.66227 20.9803C7.60876 20.91 7.55738 20.8376 7.50797 20.7635C7.4253 20.6395 7.35106 20.5112 7.28532 20.3798C7.25248 20.3141 7.22112 20.2478 7.19254 20.1805C6.96518 19.6458 6.87357 19.065 6.92106 18.4901C6.92829 18.4026 6.93956 18.3154 6.95328 18.2284C6.97151 18.1128 6.99481 17.9977 7.02457 17.8837C7.03491 17.844 7.04702 17.8049 7.05875 17.7655C7.09418 17.6467 7.13455 17.5288 7.18278 17.413L7.6486 16.2968C7.66817 16.2498 7.66814 16.1963 7.6486 16.1493L6.16911 12.6014L5.88883 12.7616C4.71387 13.4329 3.26006 13.3834 2.13395 12.6327L0.858558 11.7821ZM18.88 11.4589C19.5617 11.8482 20.4057 11.8198 21.0588 11.3846L21.6681 10.9764L21.2609 10.5692C20.8721 10.1804 20.3445 9.96192 19.7951 9.96179H18.4191C18.4193 9.9793 18.4201 9.99697 18.4201 10.0145C18.4201 10.3916 18.385 10.7675 18.3166 11.1366L18.88 11.4589ZM17.3478 6.7782C17.7308 7.27682 18.0261 7.84589 18.214 8.46179H19.3166L19.4074 8.38952C20.4812 7.53043 21.031 6.17501 20.8605 4.81042L20.7951 4.27527C20.7025 5.85386 19.2812 7.04124 17.6916 6.82507L17.3478 6.7782ZM7.11442 10.3104C7.14707 10.8229 7.26412 11.3274 7.46207 11.8026L8.9777 15.4423C9.20896 15.3195 9.45305 15.2215 9.70621 15.1551L9.81559 15.1268C11.2484 14.7514 12.7539 14.7512 14.1867 15.1268L14.2931 15.1542C14.5466 15.2207 14.79 15.3202 15.0216 15.4432L16.5392 11.8026C16.7753 11.2362 16.8966 10.6281 16.8966 10.0145C16.8966 8.25792 15.7094 6.77999 14.0939 6.33581L13.0783 6.19812H10.9728L9.86344 6.34851C9.85531 6.35085 9.84713 6.35295 9.83903 6.35534C9.4201 6.47918 9.03111 6.67256 8.68571 6.92273C8.6789 6.92766 8.67197 6.9324 8.6652 6.93738C8.39155 7.13833 8.14598 7.37515 7.93473 7.6405C7.92577 7.65176 7.9172 7.66332 7.90836 7.67468C7.80649 7.80564 7.71246 7.94299 7.62809 8.08679C7.62521 8.0917 7.62216 8.09651 7.6193 8.10144C7.49065 8.32298 7.38335 8.55859 7.30094 8.80554C7.29836 8.81325 7.29663 8.82124 7.2941 8.82898C7.26747 8.91053 7.24302 8.99315 7.22184 9.07702L7.1652 9.34265C7.14575 9.45223 7.13053 9.56305 7.12028 9.67468C7.11034 9.78696 7.10465 9.90065 7.10465 10.0155C7.10467 10.114 7.10821 10.2123 7.11442 10.3104ZM8.41715 18.6063C8.37742 19.0677 8.49251 19.5361 8.75602 19.9315C8.78813 19.9797 8.82183 20.0264 8.85661 20.0721C9.37873 20.7585 10.1937 21.1659 11.0627 21.1659H12.9396C13.8661 21.1657 14.7313 20.7025 15.2453 19.9315C15.6285 19.3565 15.6995 18.628 15.4338 17.9901L15.4279 17.9764C15.1527 17.328 14.5417 16.7706 13.9123 16.6053L13.8068 16.578C12.6234 16.2677 11.379 16.267 10.1955 16.577L10.0861 16.6063C9.45389 16.7722 8.84131 17.335 8.56852 17.9891C8.51864 18.1089 8.48059 18.2318 8.45426 18.3563C8.43674 18.4392 8.42437 18.5226 8.41715 18.6063ZM3.19157 4.81042C3.02103 6.17501 3.57085 7.53043 4.64469 8.38952L4.73551 8.46179H5.83512C5.92796 8.15749 6.04831 7.86523 6.19157 7.58679C6.19475 7.58057 6.19812 7.57444 6.20133 7.56823C6.23267 7.50791 6.26543 7.44847 6.29899 7.38952C6.30676 7.37582 6.31453 7.36213 6.32242 7.34851C6.35475 7.29289 6.38777 7.23779 6.42203 7.18347C6.4317 7.1681 6.44151 7.15283 6.45133 7.13757C6.48327 7.08806 6.51644 7.03945 6.54996 6.99109C6.56472 6.96976 6.57983 6.94871 6.59489 6.92761C6.62729 6.88229 6.65975 6.83709 6.69352 6.79284C6.69714 6.7881 6.70063 6.78293 6.70426 6.7782L6.36051 6.82507C4.7709 7.04124 3.34955 5.85386 3.257 4.27527L3.19157 4.81042ZM2.96598 11.3837C3.61923 11.8191 4.46287 11.8484 5.14469 11.4589L5.70817 11.1366C5.70257 11.1064 5.69769 11.0761 5.69254 11.0458C5.68337 10.9919 5.67489 10.9378 5.66715 10.8837C5.6607 10.8385 5.65503 10.7932 5.64957 10.7479C5.64352 10.6975 5.63778 10.6471 5.63297 10.5966C5.62785 10.5429 5.62399 10.4892 5.62028 10.4354C5.61733 10.3925 5.61353 10.3496 5.61149 10.3065C5.60684 10.2094 5.60465 10.1119 5.60465 10.0145C5.60466 9.99697 5.60545 9.97929 5.60563 9.96179H4.23063L4.02555 9.97156C3.6188 10.012 3.2325 10.1722 2.91618 10.4315L2.76481 10.5692L2.35563 10.9774L2.96598 11.3837Z" fill="black"/>
</svg>
