<svg width="24" height="24" viewBox="0 0 24 24" fill="none" xmlns="http://www.w3.org/2000/svg">
<path fill-rule="evenodd" clip-rule="evenodd" d="M0.997228 11.5733C0.688185 11.367 0.63917 10.9255 0.906407 10.6582L1.88102 9.68461C2.34957 9.21617 2.94358 8.90163 3.58414 8.77445C2.52901 7.70255 2.00928 6.19907 2.1984 4.68559L2.30094 3.86528C2.33626 3.58296 2.49294 3.32977 2.72965 3.17192C3.38028 2.73849 4.25177 3.20461 4.25211 3.98637V4.11039C4.25211 5.16386 5.18188 5.97598 6.22574 5.83402L9.64274 5.3682C9.65589 5.36459 9.66957 5.36292 9.68277 5.35942C9.6946 5.35627 9.70607 5.35173 9.71793 5.34867C9.73625 5.34396 9.75519 5.34146 9.77359 5.33695C9.85811 5.31631 9.94325 5.29737 10.0295 5.28129C10.067 5.27424 10.1049 5.2689 10.1427 5.26274C10.2101 5.25185 10.2776 5.2415 10.3459 5.23344C10.3739 5.2301 10.4017 5.22458 10.4298 5.22172C10.4668 5.21797 10.504 5.21678 10.5412 5.21391C10.5682 5.21182 10.5951 5.20872 10.6222 5.20707C10.7214 5.2011 10.8213 5.19731 10.922 5.19731L13.0802 5.19731C13.0965 5.19731 13.1128 5.19912 13.1291 5.19926L13.13 5.19731C13.1715 5.19731 13.2129 5.20018 13.2541 5.20121C13.2788 5.20204 13.3036 5.20191 13.3283 5.20317C13.3328 5.2034 13.3374 5.20487 13.342 5.20512C13.7099 5.22087 14.0674 5.27423 14.4093 5.3682L17.8263 5.83402C18.8702 5.97598 19.8 5.16386 19.8 4.11039V3.98637C19.8003 3.20452 20.6718 2.73824 21.3224 3.17191C21.5591 3.32978 21.7158 3.58295 21.7511 3.86527L21.8537 4.68559C22.0431 6.20177 21.52 7.70707 20.4611 8.77934C21.0939 8.90905 21.6802 9.22125 22.1437 9.68461L23.1183 10.6582C23.3856 10.9256 23.3358 11.3671 23.0265 11.5733L21.7511 12.4239C20.704 13.1216 19.3524 13.168 18.2599 12.544L17.4923 12.1065C17.4818 12.133 17.4731 12.1602 17.4621 12.1866L15.9572 15.7959C15.5 15.3858 14.9537 15.0688 14.3566 14.9121L14.2502 14.8838C12.7759 14.4973 11.2264 14.4976 9.75211 14.8838L9.64274 14.9121C9.04525 15.0688 8.4987 15.3857 8.04215 15.7959L6.53922 12.1856C6.52978 12.1629 6.52105 12.14 6.51188 12.1172L5.76481 12.544C4.67205 13.1683 3.31989 13.122 2.27262 12.4239L0.997228 11.5733ZM18.756 11.6748C19.5198 12.1113 20.4645 12.0794 21.1964 11.5918L22.0607 11.0157L21.4367 10.3916C21.001 9.95613 20.4099 9.71099 19.7941 9.71098H18.1593C18.1654 9.81097 18.1691 9.91197 18.1691 10.0137C18.1691 10.4349 18.1231 10.854 18.0343 11.2637L18.756 11.6748ZM13.7277 12.9756C13.7278 13.3205 14.0079 13.6003 14.3527 13.6006C14.6978 13.6006 14.9776 13.3207 14.9777 12.9756C14.9777 12.6306 14.6986 12.3509 14.3537 12.3506C14.0085 12.3507 13.7277 12.6305 13.7277 12.9756ZM9.02262 12.9756C9.02268 13.3206 9.30268 13.6004 9.64762 13.6006C9.99276 13.6006 10.2726 13.3207 10.2726 12.9756C10.2726 12.6304 9.9928 12.3506 9.64762 12.3506C9.30264 12.3509 9.02262 12.6306 9.02262 12.9756ZM2.82731 11.5918C3.55938 12.0799 4.5047 12.1114 5.26871 11.6748L5.98942 11.2637C5.90064 10.8541 5.85466 10.4348 5.85465 10.0137C5.85466 9.91196 5.85929 9.81098 5.86539 9.71098H4.23063L4.00016 9.7227C3.46881 9.77565 2.96916 10.0107 2.58805 10.3916L1.96305 11.0157L2.82731 11.5918Z" fill="black"/>
<path fill-rule="evenodd" clip-rule="evenodd" d="M8.13199 20.3467C7.64228 19.6119 7.52759 18.6927 7.81363 17.8643L7.87613 17.7002C8.20608 16.9087 8.91515 16.2047 9.7316 15.9288L9.89664 15.8799L10.006 15.8506C11.3139 15.5081 12.6885 15.5088 13.9963 15.8516L14.1027 15.8789C14.9878 16.1112 15.7741 16.8556 16.1261 17.7002L16.1886 17.8643C16.4748 18.6928 16.3592 19.6128 15.8693 20.3477L15.7414 20.5264C15.0782 21.3979 14.0431 21.9149 12.9396 21.9151H11.0627C9.88531 21.9149 8.78518 21.3263 8.13199 20.3467ZM12.7873 19.0918C12.7873 19.437 13.0671 19.7168 13.4123 19.7168C13.7574 19.7168 14.0373 19.437 14.0373 19.0918C14.0371 18.7469 13.7573 18.4669 13.4123 18.4668C13.0672 18.4669 12.7875 18.7469 12.7873 19.0918ZM9.96402 19.0918C9.96402 19.437 10.2439 19.7168 10.589 19.7168C10.9342 19.7168 11.214 19.437 11.214 19.0918C11.2138 18.7468 10.9341 18.4668 10.589 18.4668C10.244 18.4669 9.96422 18.7469 9.96402 19.0918Z" fill="black"/>
</svg>
