<svg width="24" height="24" viewBox="0 0 24 24" fill="none" xmlns="http://www.w3.org/2000/svg">
<path fill-rule="evenodd" clip-rule="evenodd" d="M6.2133 2.38491C6.74535 1.57837 7.64695 1.09302 8.61317 1.09302H15.3865C16.3528 1.09302 17.2544 1.57837 17.7864 2.38491L18.9964 4.21917L20.1397 3.70266C20.5801 3.50371 21.0984 3.69944 21.2974 4.13984C21.4963 4.58023 21.3006 5.09852 20.8602 5.29748L19.9723 5.69858L20.2105 6.05967C20.5204 6.52949 20.6857 7.07995 20.6857 7.64278V10.5C20.6857 11.5355 19.8462 12.375 18.8107 12.375H5.18906C4.15353 12.375 3.31406 11.5355 3.31406 10.5V7.64279C3.31406 7.07995 3.47926 6.52949 3.78919 6.05967L4.02744 5.6985L3.13974 5.29748C2.69934 5.09852 2.50361 4.58023 2.70256 4.13984C2.90152 3.69944 3.41981 3.50371 3.8602 3.70266L5.00336 4.21909L6.2133 2.38491ZM16.3256 3.34854L17.2933 4.8155H6.70639L7.67409 3.34854C7.88229 3.03294 8.23509 2.84302 8.61317 2.84302H15.3865C15.7646 2.84302 16.1174 3.03294 16.3256 3.34854ZM5.62509 8.00012C5.62509 7.51687 6.01684 7.12512 6.50009 7.12512H8.50009C8.98334 7.12512 9.37509 7.51687 9.37509 8.00012C9.37509 8.48337 8.98334 8.87512 8.50009 8.87512H6.50009C6.01684 8.87512 5.62509 8.48337 5.62509 8.00012ZM14.6251 8.00012C14.6251 7.51687 15.0168 7.12512 15.5001 7.12512H17.5001C17.9833 7.12512 18.3751 7.51687 18.3751 8.00012C18.3751 8.48337 17.9833 8.87512 17.5001 8.87512H15.5001C15.0168 8.87512 14.6251 8.48337 14.6251 8.00012Z" fill="black"/>
<path d="M4.49991 14.9421V13.4205C4.72121 13.4725 4.95195 13.5 5.18912 13.5H8.49991V14.9421C8.49991 15.5264 8.02627 16 7.442 16H5.55782C4.97355 16 4.49991 15.5264 4.49991 14.9421Z" fill="black"/>
<path d="M15.4999 14.9421V13.5H18.8107C19.0479 13.5 19.2786 13.4725 19.4999 13.4205V14.9421C19.4999 15.5264 19.0263 16 18.442 16H16.5578C15.9736 16 15.4999 15.5264 15.4999 14.9421Z" fill="black"/>
<path d="M7.44207 17.5H5.84325C4.9728 18.1721 4.79824 19.4642 5.5347 20.3479L7.42235 22.6131C7.73172 22.9844 8.28346 23.0345 8.65471 22.7252C9.02595 22.4158 9.07611 21.864 8.76674 21.4928L6.87909 19.2276C6.77967 19.1083 6.81749 18.9275 6.9564 18.858L7.91322 18.3796C8.48889 18.0918 8.85895 17.5678 8.97499 16.9899C8.5478 17.3102 8.01709 17.5 7.44207 17.5Z" fill="black"/>
<path d="M16.5579 17.5C16.5206 17.5 16.4836 17.4992 16.4467 17.4976C15.5736 18.169 15.3977 19.4631 16.1351 20.3479L18.0227 22.6131C18.3321 22.9844 18.8838 23.0345 19.2551 22.7252C19.6263 22.4158 19.6765 21.864 19.3671 21.4928L17.4795 19.2276C17.38 19.1083 17.4179 18.9275 17.5568 18.858L18.5136 18.3796C18.9934 18.1397 19.3304 17.7357 19.4965 17.2732C19.175 17.4189 18.818 17.5 18.4421 17.5H16.5579Z" fill="black"/>
</svg>
