<svg width="24" height="24" viewBox="0 0 24 24" fill="none" xmlns="http://www.w3.org/2000/svg">
<path d="M5.35205 5.10569C1.54443 8.9133 1.54443 15.0867 5.35205 18.8943C5.8402 19.3824 5.8402 20.1739 5.35205 20.662C4.86389 21.1502 4.07244 21.1502 3.58428 20.662C-1.19964 15.8781 -1.19964 8.12184 3.58428 3.33792C4.07244 2.84976 4.86389 2.84976 5.35205 3.33792C5.8402 3.82607 5.8402 4.61753 5.35205 5.10569Z" fill="black"/>
<path d="M9.29049 7.22703C6.65445 9.86307 6.65445 14.1369 9.29049 16.773C9.77865 17.2611 9.77865 18.0526 9.29049 18.5407C8.80234 19.0289 8.01088 19.0289 7.52273 18.5407C3.91038 14.9284 3.91038 9.07161 7.52273 5.45926C8.01088 4.97111 8.80234 4.97111 9.29049 5.45926C9.77865 5.94742 9.77865 6.73887 9.29049 7.22703Z" fill="black"/>
<path fill-rule="evenodd" clip-rule="evenodd" d="M23.4554 6.53177C24.0253 6.14208 24.1713 5.36422 23.7816 4.79437C23.3919 4.22451 22.6141 4.07847 22.0442 4.46816L15.0653 9.24075C15.0487 9.2521 15.0307 9.26141 15.0119 9.26847L11.8521 10.4534C11.0751 10.7448 10.4712 11.3714 10.2088 12.1587L9.59318 14.0054C8.9996 15.7861 10.325 17.625 12.2021 17.625H13.3076C13.8414 19.3622 15.4587 20.625 17.3708 20.625C19.283 20.625 20.9003 19.3622 21.434 17.625H22.7498C23.4402 17.625 23.9998 17.0654 23.9998 16.375C23.9998 15.6846 23.4402 15.125 22.7498 15.125H21.434C20.9003 13.3878 19.283 12.125 17.3708 12.125C15.4587 12.125 13.8414 13.3878 13.3076 15.125H12.2021C12.0314 15.125 11.9109 14.9578 11.9649 14.7959L12.5805 12.9492C12.6043 12.8777 12.6592 12.8207 12.7299 12.7942L15.8897 11.6093C16.0969 11.5316 16.2939 11.4292 16.4765 11.3044L23.4554 6.53177ZM17.3708 14.625C16.4044 14.625 15.6208 15.4085 15.6208 16.375C15.6208 17.3415 16.4044 18.125 17.3708 18.125C18.3373 18.125 19.1208 17.3415 19.1208 16.375C19.1208 15.4085 18.3373 14.625 17.3708 14.625Z" fill="black"/>
</svg>
