<svg width="24" height="24" viewBox="0 0 24 24" fill="none" xmlns="http://www.w3.org/2000/svg">
<path d="M15.2501 8.00007C15.2501 7.862 15.362 7.75007 15.5001 7.75007H17.5001C17.6381 7.75007 17.7501 7.862 17.7501 8.00007C17.7501 8.13814 17.6381 8.25007 17.5001 8.25007H15.5001C15.362 8.25007 15.2501 8.13814 15.2501 8.00007Z" fill="black"/>
<path d="M6.50006 7.75007C6.36199 7.75007 6.25006 7.862 6.25006 8.00007C6.25006 8.13814 6.36199 8.25007 6.50006 8.25007H8.50006C8.63813 8.25007 8.75006 8.13814 8.75006 8.00007C8.75006 7.862 8.63813 7.75007 8.50006 7.75007L6.50006 7.75007Z" fill="black"/>
<path fill-rule="evenodd" clip-rule="evenodd" d="M17.0561 2.86672L18.5066 5.06558C18.5388 5.06641 18.5695 5.07333 18.5975 5.08522L20.3971 4.27224C20.523 4.2154 20.6711 4.27132 20.7279 4.39715C20.7847 4.52297 20.7288 4.67106 20.603 4.7279L18.8163 5.53504L19.4802 6.54149C19.6958 6.86832 19.8107 7.25125 19.8107 7.64278V10.5C19.8107 10.8947 19.5821 11.236 19.25 11.3986V13.692C19.25 14.1382 18.8883 14.5 18.4421 14.5H16.5579C16.1117 14.5 15.75 14.1382 15.75 13.692V11.5H8.25002V13.692C8.25002 14.1382 7.8883 14.5 7.4421 14.5H5.55793C5.11173 14.5 4.75002 14.1382 4.75002 13.692V11.3987C4.41787 11.2361 4.18915 10.8947 4.18915 10.5V7.64279C4.18915 7.25125 4.30407 6.86832 4.51967 6.54149L5.18364 5.53496L3.39714 4.7279C3.27131 4.67106 3.21539 4.52297 3.27223 4.39715C3.32907 4.27132 3.47716 4.2154 3.60299 4.27224L5.40258 5.08522C5.43057 5.07335 5.46117 5.06645 5.49327 5.06559L6.94379 2.86672C7.31391 2.30565 7.94111 1.96802 8.61326 1.96802H15.3866C16.0588 1.96802 16.686 2.30565 17.0561 2.86672ZM8.61326 2.46802H15.3866C15.8907 2.46802 16.3611 2.72124 16.6387 3.14205L17.9076 5.0655H6.09232L7.36116 3.14205C7.63875 2.72124 8.10915 2.46802 8.61326 2.46802ZM5.76249 5.5655H18.2374L19.0629 6.81681C19.2246 7.06194 19.3107 7.34913 19.3107 7.64278V10.5C19.3107 10.774 19.0904 10.9965 18.8173 11H5.1826C4.90948 10.9965 4.68915 10.774 4.68915 10.5V7.64279C4.68915 7.34913 4.77534 7.06194 4.93704 6.81681L5.76249 5.5655ZM5.25002 11.5V13.692C5.25002 13.8621 5.38787 14 5.55793 14H7.4421C7.61216 14 7.75002 13.8621 7.75002 13.692V11.5H5.25002ZM16.25 11.5V13.692C16.25 13.8621 16.3879 14 16.5579 14H18.4421C18.6122 14 18.75 13.8621 18.75 13.692V11.5H16.25Z" fill="black"/>
<path d="M7.44216 15.5H7.33091L7.7434 16.1187C8.03229 16.552 7.87601 17.1405 7.4102 17.3734L6.45337 17.8518C5.6656 18.2457 5.45109 19.2712 6.01493 19.9478L7.90258 22.213C7.99097 22.3191 8.14861 22.3334 8.25468 22.245C8.36075 22.1566 8.37508 21.999 8.28669 21.8929L6.39904 19.6277C6.04161 19.1988 6.1776 18.5487 6.67698 18.299L7.63381 17.8206C8.36862 17.4532 8.61514 16.5249 8.15943 15.8414L7.88857 15.4351C7.74715 15.4773 7.5973 15.5 7.44216 15.5Z" fill="black"/>
<path d="M18.4422 15.5H17.9313L18.3438 16.1187C18.6327 16.552 18.4764 17.1405 18.0106 17.3734L17.0537 17.8518C16.266 18.2457 16.0515 19.2712 16.6153 19.9478L18.5029 22.213C18.5913 22.3191 18.749 22.3334 18.8551 22.245C18.9611 22.1566 18.9755 21.999 18.8871 21.8929L16.9994 19.6277C16.642 19.1988 16.778 18.5487 17.2774 18.299L18.2342 17.8206C18.969 17.4532 19.2155 16.5249 18.7598 15.8414L18.5306 15.4975C18.5013 15.4991 18.4718 15.5 18.4422 15.5Z" fill="black"/>
</svg>
