<svg width="24" height="24" viewBox="0 0 24 24" fill="none" xmlns="http://www.w3.org/2000/svg">
<path d="M4.3986 4.39858C0.200466 8.59671 0.200466 15.4032 4.3986 19.6014C4.49623 19.699 4.49623 19.8573 4.3986 19.9549C4.30097 20.0526 4.14268 20.0526 4.04505 19.9549C-0.34835 15.5615 -0.34835 8.43842 4.04505 4.04503C4.14268 3.94739 4.30097 3.94739 4.3986 4.04503C4.49623 4.14266 4.49623 4.30095 4.3986 4.39858Z" fill="black"/>
<path d="M7.51967 6.51989C4.4931 9.54646 4.4931 14.4535 7.51967 17.48C7.6173 17.5777 7.6173 17.736 7.51967 17.8336C7.42203 17.9312 7.26374 17.9312 7.16611 17.8336C3.94429 14.6118 3.94429 9.38816 7.16611 6.16634C7.26374 6.06871 7.42203 6.06871 7.51967 6.16634C7.6173 6.26397 7.6173 6.42226 7.51967 6.51989Z" fill="black"/>
<path fill-rule="evenodd" clip-rule="evenodd" d="M23.9727 4.875C23.9819 4.875 23.991 4.87545 24 4.87632V6.58089C23.8551 6.62903 23.7171 6.69811 23.5906 6.78667L21.5991 8.18071C20.7982 8.74139 21.1949 9.99994 22.1726 9.99994H24V16.6106C23.9684 16.62 23.9349 16.625 23.9003 16.625H20.1157C19.9881 18.3031 18.586 19.625 16.8752 19.625C15.1644 19.625 13.7624 18.3031 13.6347 16.625H10.7064C9.51194 16.625 8.66849 15.4548 9.04623 14.3216L9.62771 12.5772C9.81692 12.0096 10.283 11.5779 10.8635 11.4328L15.7955 10.1998C15.9438 10.1628 16.084 10.0988 16.2092 10.0112L23.1973 5.11944C23.4246 4.96034 23.6953 4.875 23.9727 4.875ZM14.1252 16.375C14.1252 14.8562 15.3564 13.625 16.8752 13.625C18.394 13.625 19.6252 14.8562 19.6252 16.375C19.6252 17.8938 18.394 19.125 16.8752 19.125C15.3564 19.125 14.1252 17.8938 14.1252 16.375Z" fill="black"/>
</svg>
