<svg width="24" height="24" viewBox="0 0 24 24" fill="none" xmlns="http://www.w3.org/2000/svg">
<path d="M14.6252 8.00007C14.6252 7.51682 15.017 7.12507 15.5002 7.12507H17.5002C17.9835 7.12507 18.3752 7.51682 18.3752 8.00007C18.3752 8.48332 17.9835 8.87507 17.5002 8.87507H15.5002C15.017 8.87507 14.6252 8.48332 14.6252 8.00007Z" fill="black"/>
<path d="M6.50022 7.12507C6.01697 7.12507 5.62522 7.51682 5.62522 8.00007C5.62522 8.48332 6.01697 8.87507 6.50022 8.87507H8.50022C8.98346 8.87507 9.37522 8.48332 9.37522 8.00007C9.37522 7.51682 8.98346 7.12507 8.50022 7.12507L6.50022 7.12507Z" fill="black"/>
<path fill-rule="evenodd" clip-rule="evenodd" d="M8.61342 0.968018C7.60519 0.968018 6.66438 1.47447 6.1092 2.31607L4.88823 4.16697L3.86045 3.70266C3.42005 3.50371 2.90176 3.69944 2.70281 4.13984C2.50386 4.58023 2.69959 5.09852 3.13998 5.29748L3.91232 5.64638L3.68509 5.99084C3.36169 6.48109 3.1893 7.05548 3.1893 7.64279V10.5C3.1893 11.1592 3.50821 11.7439 4.00017 12.1083V13.942C4.00017 14.8025 4.69767 15.5 5.55808 15.5H7.44226C8.30267 15.5 9.00017 14.8025 9.00017 13.942V12.5H15.0002V13.942C15.0002 14.8025 15.6977 15.5 16.5581 15.5H18.4423C19.3027 15.5 20.0002 14.8025 20.0002 13.942V12.1081C20.492 11.7438 20.8109 11.1591 20.8109 10.5V7.64278C20.8109 7.05548 20.6385 6.48109 20.3151 5.99084L20.0879 5.64646L20.8604 5.29748C21.3008 5.09852 21.4966 4.58023 21.2976 4.13984C21.0987 3.69944 20.5804 3.50371 20.14 3.70266L19.112 4.16705L17.891 2.31607C17.3358 1.47447 16.395 0.968018 15.3868 0.968018H8.61342ZM5.35456 7.09214L5.94934 6.1905H18.0509L18.6456 7.09214C18.7534 7.25555 18.8109 7.44702 18.8109 7.64278V10.5H5.1893V7.64279C5.1893 7.44702 5.24676 7.25555 5.35456 7.09214ZM7.10376 4.4405H16.8964L16.2215 3.41737C16.0365 3.13683 15.7229 2.96802 15.3868 2.96802H8.61342C8.27734 2.96802 7.96374 3.13683 7.77868 3.41737L7.10376 4.4405ZM17.0002 12.5H18.0002V13.5H17.0002V12.5ZM6.00017 12.5H7.00017V13.5H6.00017V12.5Z" fill="black"/>
<path d="M7.44231 17H6.48016L6.11812 17.181C4.89777 17.7912 4.56546 19.3798 5.43892 20.428L7.32657 22.6931C7.68013 23.1174 8.3107 23.1747 8.73497 22.8212C9.15925 22.4676 9.21657 21.8371 8.86301 21.4128L6.97536 19.1476C6.92755 19.0902 6.94574 19.0033 7.01255 18.9698L7.96937 18.4914C8.75294 18.0996 9.17808 17.2962 9.1367 16.488C8.65168 16.8114 8.06901 17 7.44231 17Z" fill="black"/>
<path d="M18.4423 17H17.0805L16.7185 17.181C15.4981 17.7912 15.1658 19.3798 16.0393 20.428L17.9269 22.6931C18.2805 23.1174 18.9111 23.1747 19.3353 22.8212C19.7596 22.4676 19.8169 21.8371 19.4634 21.4128L17.5757 19.1476C17.5279 19.0902 17.5461 19.0033 17.6129 18.9698L18.5697 18.4914C19.2803 18.1361 19.6961 17.4423 19.7366 16.7134C19.3435 16.8972 18.9049 17 18.4423 17Z" fill="black"/>
</svg>
