<svg width="24" height="24" viewBox="0 0 24 24" fill="none" xmlns="http://www.w3.org/2000/svg">
<path d="M4.75216 4.75213C0.749281 8.75501 0.749281 15.2449 4.75216 19.2478C5.04505 19.5407 5.04505 20.0156 4.75216 20.3085C4.45926 20.6014 3.98439 20.6014 3.6915 20.3085C-0.897165 15.7198 -0.897165 8.28013 3.6915 3.69147C3.98439 3.39858 4.45926 3.39858 4.75216 3.69147C5.04505 3.98436 5.04505 4.45924 4.75216 4.75213Z" fill="black"/>
<path d="M7.87322 6.87345C5.04192 9.70475 5.04192 14.2952 7.87322 17.1265C8.16611 17.4194 8.16611 17.8943 7.87322 18.1872C7.58033 18.48 7.10545 18.48 6.81256 18.1872C3.39547 14.7701 3.39547 9.22987 6.81256 5.81279C7.10545 5.51989 7.58033 5.51989 7.87322 5.81279C8.16611 6.10568 8.16611 6.58055 7.87322 6.87345Z" fill="black"/>
<path fill-rule="evenodd" clip-rule="evenodd" d="M23.6951 5.72884C24.0285 5.48312 24.0997 5.01361 23.854 4.68014C23.6082 4.34668 23.1387 4.27555 22.8053 4.52126L15.9188 9.59558C15.8401 9.65362 15.7507 9.69568 15.6558 9.7194L10.7421 10.9478C9.99579 11.1344 9.39653 11.6893 9.15326 12.4191L8.57178 14.1635C8.08612 15.6205 9.17056 17.125 10.7063 17.125H13.2001C13.5476 18.8367 15.0609 20.125 16.8751 20.125C18.6893 20.125 20.2026 18.8367 20.5501 17.125H23.2502C23.6644 17.125 24.0002 16.7893 24.0002 16.375C24.0002 15.9608 23.6644 15.625 23.2502 15.625H20.5501C20.2027 13.9133 18.6893 12.625 16.8751 12.625C15.0608 12.625 13.5475 13.9133 13.2001 15.625H10.7063C10.1944 15.625 9.83292 15.1235 9.9948 14.6379L10.5763 12.8935C10.6574 12.6502 10.8571 12.4652 11.1059 12.403L16.0196 11.1746C16.3043 11.1034 16.5724 10.9773 16.8086 10.8032L23.6951 5.72884ZM16.8751 14.125C15.6324 14.125 14.6251 15.1323 14.6251 16.375C14.6251 17.6176 15.6324 18.625 16.8751 18.625C18.1177 18.625 19.1251 17.6176 19.1251 16.375C19.1251 15.1323 18.1177 14.125 16.8751 14.125Z" fill="black"/>
</svg>
