<svg width="24" height="24" viewBox="0 0 24 24" fill="none" xmlns="http://www.w3.org/2000/svg">
<path fill-rule="evenodd" clip-rule="evenodd" d="M6.10923 2.31607C6.66441 1.47447 7.60522 0.968018 8.61345 0.968018H15.3868C16.395 0.968018 17.3358 1.47447 17.891 2.31607L19.0423 4.06138L20.0886 3.58875C20.5919 3.36137 21.1842 3.58507 21.4116 4.08837C21.6389 4.59168 21.4153 5.18402 20.9119 5.41139L20.1577 5.75213L20.3151 5.99084C20.6385 6.48109 20.8109 7.05548 20.8109 7.64278V10.5C20.8109 11.6046 19.9155 12.5 18.8109 12.5H5.18933C4.08477 12.5 3.18933 11.6046 3.18933 10.5V7.64279C3.18933 7.05548 3.36172 6.48109 3.68512 5.99084L3.84264 5.75205L3.08855 5.41139C2.58524 5.18402 2.36155 4.59168 2.58892 4.08837C2.8163 3.58507 3.40863 3.36137 3.91194 3.58875L4.95797 4.0613L6.10923 2.31607ZM16.2216 3.41737L17.1438 4.8155H6.85641L7.77871 3.41737C7.96377 3.13683 8.27737 2.96802 8.61345 2.96802H15.3868C15.7229 2.96802 16.0365 3.13683 16.2216 3.41737ZM5.62537 8.00012C5.62537 7.51687 6.01712 7.12512 6.50037 7.12512H8.50037C8.98362 7.12512 9.37537 7.51687 9.37537 8.00012C9.37537 8.48337 8.98362 8.87512 8.50037 8.87512H6.50037C6.01712 8.87512 5.62537 8.48337 5.62537 8.00012ZM14.6254 8.00012C14.6254 7.51687 15.0171 7.12512 15.5004 7.12512H17.5004C17.9836 7.12512 18.3754 7.51687 18.3754 8.00012C18.3754 8.48337 17.9836 8.87512 17.5004 8.87512H15.5004C15.0171 8.87512 14.6254 8.48337 14.6254 8.00012Z" fill="black"/>
<path d="M4.50018 15.4421V13.6768C4.72232 13.7247 4.95291 13.75 5.18939 13.75H8.50018V15.4421C8.50018 16.0264 8.02654 16.5 7.44227 16.5H5.5581C4.97383 16.5 4.50018 16.0264 4.50018 15.4421Z" fill="black"/>
<path d="M15.5002 15.4421V13.75H18.811C19.0475 13.75 19.2781 13.7247 19.5002 13.6768V15.4421C19.5002 16.0264 19.0265 16.5 18.4423 16.5H16.5581C15.9738 16.5 15.5002 16.0264 15.5002 15.4421Z" fill="black"/>
<path d="M5.55817 18C5.45417 18 5.35162 17.9938 5.25086 17.9817C4.80755 18.721 4.83528 19.7036 5.43895 20.428L7.3266 22.6931C7.68016 23.1174 8.31073 23.1747 8.735 22.8212C9.15928 22.4676 9.21661 21.8371 8.86304 21.4128L6.97539 19.1476C6.92758 19.0902 6.94577 19.0033 7.01258 18.9698L7.9694 18.4914C8.40489 18.2737 8.72966 17.9288 8.92517 17.5266C8.5069 17.8246 7.99509 18 7.44234 18H5.55817Z" fill="black"/>
<path d="M16.5582 18C16.3285 18 16.106 17.9697 15.8943 17.913C15.4067 18.6592 15.4167 19.6809 16.0393 20.428L17.927 22.6931C18.2805 23.1174 18.9111 23.1747 19.3354 22.8212C19.7596 22.4676 19.817 21.8371 19.4634 21.4128L17.5758 19.1476C17.5279 19.0902 17.5461 19.0033 17.6129 18.9698L18.5698 18.4914C18.8878 18.3324 19.1467 18.1056 19.3394 17.8382C19.0603 17.9428 18.758 18 18.4423 18H16.5582Z" fill="black"/>
</svg>
