<svg width="24" height="24" viewBox="0 0 24 24" fill="none" xmlns="http://www.w3.org/2000/svg">
<path d="M14.7502 8.00007C14.7502 7.58586 15.086 7.25007 15.5002 7.25007H17.5002C17.9144 7.25007 18.2502 7.58586 18.2502 8.00007C18.2502 8.41428 17.9144 8.75007 17.5002 8.75007H15.5002C15.086 8.75007 14.7502 8.41428 14.7502 8.00007Z" fill="black"/>
<path d="M6.50018 7.25007C6.08597 7.25007 5.75018 7.58586 5.75018 8.00007C5.75018 8.41428 6.08597 8.75007 6.50018 8.75007H8.50018C8.9144 8.75007 9.25018 8.41428 9.25018 8.00007C9.25018 7.58586 8.9144 7.25007 8.50018 7.25007L6.50018 7.25007Z" fill="black"/>
<path fill-rule="evenodd" clip-rule="evenodd" d="M8.61339 1.21802C7.68918 1.21802 6.82677 1.68226 6.31786 2.45374L5.04923 4.37688L3.80896 3.81658C3.43147 3.64605 2.98722 3.81382 2.81669 4.1913C2.64616 4.56878 2.81393 5.01303 3.19141 5.18356L4.21273 5.64495L3.89374 6.1285C3.59729 6.5779 3.43927 7.10442 3.43927 7.64279V10.5C3.43927 11.1209 3.76263 11.6663 4.25014 11.9769V13.942C4.25014 14.6644 4.83571 15.25 5.55805 15.25H7.44222C8.16457 15.25 8.75014 14.6644 8.75014 13.942V12.25H15.2501V13.942C15.2501 14.6644 15.8357 15.25 16.5581 15.25H18.4422C19.1646 15.25 19.7501 14.6644 19.7501 13.942V11.9768C20.2376 11.6662 20.5609 11.1208 20.5609 10.5V7.64278C20.5609 7.10442 20.4028 6.5779 20.1064 6.1285L19.7875 5.64503L20.809 5.18356C21.1864 5.01303 21.3542 4.56878 21.1837 4.1913C21.0131 3.81382 20.5689 3.64605 20.1914 3.81658L18.951 4.37696L17.6823 2.45374C17.1734 1.68226 16.311 1.21802 15.3868 1.21802H8.61339ZM5.14585 6.95447L5.73228 6.0655H18.2679L18.8543 6.95447C18.989 7.15874 19.0609 7.39807 19.0609 7.64278V10.5C19.0609 10.6365 18.9514 10.7475 18.8155 10.75H5.18464C5.04871 10.7475 4.93927 10.6365 4.93927 10.5V7.64279C4.93927 7.39807 5.0111 7.15874 5.14585 6.95447ZM6.72177 4.5655H17.2784L16.4302 3.27971C16.1988 2.92904 15.8068 2.71802 15.3868 2.71802H8.61339C8.19329 2.71802 7.80129 2.92904 7.56996 3.27971L6.72177 4.5655ZM16.7501 12.25H18.2501V13.75H16.7501V12.25ZM5.75014 12.25H7.25014V13.75H5.75014V12.25Z" fill="black"/>
<path d="M7.44228 16H7.06344L7.3275 16.3961C7.44956 16.5791 7.38353 16.8278 7.18671 16.9262L6.22989 17.4046C5.15374 17.9427 4.86069 19.3436 5.63094 20.2679L7.51859 22.5331C7.78377 22.8513 8.25669 22.8943 8.5749 22.6291C8.8931 22.364 8.9361 21.891 8.67092 21.5728L6.78328 19.3076C6.63225 19.1264 6.68971 18.8517 6.90071 18.7462L7.85753 18.2678C8.83751 17.7778 9.18174 16.5576 8.61829 15.6311C8.28495 15.8636 7.87954 16 7.44228 16Z" fill="black"/>
<path d="M18.4423 16H17.6638L17.9279 16.3961C18.0499 16.5791 17.9839 16.8278 17.7871 16.9262L16.8303 17.4046C15.7541 17.9427 15.4611 19.3436 16.2313 20.2679L18.119 22.5331C18.3841 22.8513 18.8571 22.8943 19.1753 22.6291C19.4935 22.364 19.5365 21.891 19.2713 21.5728L17.3836 19.3076C17.2326 19.1264 17.2901 18.8517 17.5011 18.7462L18.4579 18.2678C19.3769 17.8083 19.7368 16.7065 19.3133 15.8071C19.0488 15.9308 18.7536 16 18.4423 16Z" fill="black"/>
</svg>
