<svg width="24" height="24" viewBox="0 0 24 24" fill="none" xmlns="http://www.w3.org/2000/svg">
<path fill-rule="evenodd" clip-rule="evenodd" d="M6.10899 2.31607C6.66417 1.47447 7.60497 0.968018 8.6132 0.968018H15.3866C16.3948 0.968018 17.3356 1.47447 17.8908 2.31607L19.0421 4.06138L20.0883 3.58875C20.5916 3.36137 21.184 3.58507 21.4113 4.08837C21.6387 4.59168 21.415 5.18402 20.9117 5.41139L20.1574 5.75213L20.3149 5.99084C20.6383 6.48109 20.8107 7.05548 20.8107 7.64278V10.5C20.8107 11.6046 19.9153 12.5 18.8107 12.5H5.18909C4.08452 12.5 3.18909 11.6046 3.18909 10.5V7.64279C3.18909 7.05548 3.36148 6.48109 3.68487 5.99084L3.84239 5.75205L3.08831 5.41139C2.585 5.18402 2.36131 4.59168 2.58868 4.08837C2.81605 3.58507 3.40839 3.36137 3.9117 3.58875L4.95773 4.0613L6.10899 2.31607ZM16.2213 3.41737L17.1436 4.8155H6.85617L7.77847 3.41737C7.96353 3.13683 8.27713 2.96802 8.6132 2.96802H15.3866C15.7226 2.96802 16.0362 3.13683 16.2213 3.41737ZM5.62512 8.00012C5.62512 7.51687 6.01687 7.12512 6.50012 7.12512H8.50012C8.98337 7.12512 9.37512 7.51687 9.37512 8.00012C9.37512 8.48337 8.98337 8.87512 8.50012 8.87512H6.50012C6.01687 8.87512 5.62512 8.48337 5.62512 8.00012ZM14.6251 8.00012C14.6251 7.51687 15.0169 7.12512 15.5001 7.12512H17.5001C17.9834 7.12512 18.3751 7.51687 18.3751 8.00012C18.3751 8.48337 17.9834 8.87512 17.5001 8.87512H15.5001C15.0169 8.87512 14.6251 8.48337 14.6251 8.00012Z" fill="black"/>
<path d="M4.49994 15.4421V13.6768C4.72208 13.7247 4.95266 13.75 5.18915 13.75H8.49994V15.4421C8.49994 16.0264 8.0263 16.5 7.44203 16.5H5.55785C4.97359 16.5 4.49994 16.0264 4.49994 15.4421Z" fill="black"/>
<path d="M15.4999 15.4421V13.75H18.8107C19.0472 13.75 19.2778 13.7247 19.4999 13.6768V15.4421C19.4999 16.0264 19.0263 16.5 18.442 16.5H16.5579C15.9736 16.5 15.4999 16.0264 15.4999 15.4421Z" fill="black"/>
<path d="M5.55793 18C5.45392 18 5.35137 17.9938 5.25062 17.9817C4.80731 18.721 4.83504 19.7036 5.43871 20.428L7.32635 22.6931C7.67992 23.1174 8.31048 23.1747 8.73476 22.8212C9.15904 22.4676 9.21636 21.8371 8.8628 21.4128L6.97515 19.1476C6.92733 19.0902 6.94552 19.0033 7.01233 18.9698L7.96916 18.4914C8.40464 18.2737 8.72942 17.9288 8.92493 17.5266C8.50665 17.8246 7.99485 18 7.4421 18H5.55793Z" fill="black"/>
<path d="M16.5579 18C16.3283 18 16.1057 17.9697 15.894 17.913C15.4065 18.6592 15.4165 19.6809 16.0391 20.428L17.9267 22.6931C18.2803 23.1174 18.9109 23.1747 19.3351 22.8212C19.7594 22.4676 19.8167 21.8371 19.4632 21.4128L17.5755 19.1476C17.5277 19.0902 17.5459 19.0033 17.6127 18.9698L18.5695 18.4914C18.8875 18.3324 19.1465 18.1056 19.3392 17.8382C19.06 17.9428 18.7577 18 18.4421 18H16.5579Z" fill="black"/>
</svg>
