<svg width="24" height="24" viewBox="0 0 24 24" fill="none" xmlns="http://www.w3.org/2000/svg">
<path d="M5.35571 5.10569C1.5481 8.9133 1.5481 15.0867 5.35571 18.8943C5.84386 19.3824 5.84386 20.1739 5.35571 20.662C4.86755 21.1502 4.0761 21.1502 3.58794 20.662C-1.19598 15.8781 -1.19598 8.12184 3.58794 3.33792C4.0761 2.84976 4.86755 2.84976 5.35571 3.33792C5.84386 3.82607 5.84386 4.61753 5.35571 5.10569Z" fill="black"/>
<path d="M9.54074 7.22703C6.9047 9.86307 6.9047 14.1369 9.54074 16.773C10.0289 17.2611 10.0289 18.0526 9.54074 18.5407C9.05258 19.0289 8.26113 19.0289 7.77297 18.5407C4.16062 14.9284 4.16062 9.07161 7.77297 5.45926C8.26113 4.97111 9.05258 4.97111 9.54074 5.45926C10.0289 5.94742 10.0289 6.73887 9.54074 7.22703Z" fill="black"/>
<path fill-rule="evenodd" clip-rule="evenodd" d="M18.4543 10.0112L24 6.12912V16.625H23.3631C23.2337 18.8558 21.3836 20.625 19.1203 20.625C16.8571 20.625 15.007 18.8558 14.8776 16.625H12.9515C11.7571 16.625 10.9136 15.4548 11.2913 14.3216L11.8728 12.5772C12.062 12.0096 12.5281 11.5779 13.1086 11.4328L18.0406 10.1998C18.1889 10.1628 18.3291 10.0988 18.4543 10.0112ZM17.3703 16.375C17.3703 15.4085 18.1538 14.625 19.1203 14.625C20.0868 14.625 20.8703 15.4085 20.8703 16.375C20.8703 17.3415 20.0868 18.125 19.1203 18.125C18.1538 18.125 17.3703 17.3415 17.3703 16.375Z" fill="black"/>
</svg>
