<svg width="24" height="24" viewBox="0 0 24 24" fill="none" xmlns="http://www.w3.org/2000/svg">
<path d="M14.7499 8.00007C14.7499 7.58586 15.0857 7.25007 15.4999 7.25007H17.4999C17.9142 7.25007 18.2499 7.58586 18.2499 8.00007C18.2499 8.41428 17.9142 8.75007 17.4999 8.75007H15.4999C15.0857 8.75007 14.7499 8.41428 14.7499 8.00007Z" fill="black"/>
<path d="M6.49994 7.25007C6.08573 7.25007 5.74994 7.58586 5.74994 8.00007C5.74994 8.41428 6.08573 8.75007 6.49994 8.75007H8.49994C8.91415 8.75007 9.24994 8.41428 9.24994 8.00007C9.24994 7.58586 8.91415 7.25007 8.49994 7.25007L6.49994 7.25007Z" fill="black"/>
<path fill-rule="evenodd" clip-rule="evenodd" d="M8.61314 1.21802C7.68893 1.21802 6.82653 1.68226 6.31761 2.45374L5.04898 4.37688L3.80871 3.81658C3.43123 3.64605 2.98698 3.81382 2.81645 4.1913C2.64592 4.56878 2.81369 5.01303 3.19117 5.18356L4.21248 5.64495L3.8935 6.1285C3.59705 6.5779 3.43903 7.10442 3.43903 7.64279V10.5C3.43903 11.1209 3.76239 11.6663 4.24989 11.9769V13.942C4.24989 14.6644 4.83547 15.25 5.55781 15.25H7.44198C8.16432 15.25 8.74989 14.6644 8.74989 13.942V12.25H15.2499V13.942C15.2499 14.6644 15.8355 15.25 16.5578 15.25H18.442C19.1643 15.25 19.7499 14.6644 19.7499 13.942V11.9768C20.2373 11.6662 20.5606 11.1208 20.5606 10.5V7.64278C20.5606 7.10442 20.4026 6.5779 20.1062 6.1285L19.7872 5.64503L20.8087 5.18356C21.1862 5.01303 21.354 4.56878 21.1834 4.1913C21.0129 3.81382 20.5687 3.64605 20.1912 3.81658L18.9507 4.37696L17.682 2.45374C17.1731 1.68226 16.3107 1.21802 15.3865 1.21802H8.61314ZM5.1456 6.95447L5.73203 6.0655H18.2676L18.854 6.95447C18.9888 7.15874 19.0606 7.39807 19.0606 7.64278V10.5C19.0606 10.6365 18.9512 10.7475 18.8153 10.75H5.1844C5.04846 10.7475 4.93903 10.6365 4.93903 10.5V7.64279C4.93903 7.39807 5.01085 7.15874 5.1456 6.95447ZM6.72153 4.5655H17.2781L16.4299 3.27971C16.1986 2.92904 15.8066 2.71802 15.3865 2.71802H8.61314C8.19305 2.71802 7.80105 2.92904 7.56972 3.27971L6.72153 4.5655ZM16.7499 12.25H18.2499V13.75H16.7499V12.25ZM5.74989 12.25H7.24989V13.75H5.74989V12.25Z" fill="black"/>
<path d="M7.44204 16H7.0632L7.32725 16.3961C7.44931 16.5791 7.38329 16.8278 7.18647 16.9262L6.22965 17.4046C5.15349 17.9427 4.86044 19.3436 5.6307 20.2679L7.51835 22.5331C7.78352 22.8513 8.25644 22.8943 8.57465 22.6291C8.89286 22.364 8.93585 21.891 8.67068 21.5728L6.78303 19.3076C6.63201 19.1264 6.68947 18.8517 6.90047 18.7462L7.85729 18.2678C8.83727 17.7778 9.1815 16.5576 8.61805 15.6311C8.28471 15.8636 7.8793 16 7.44204 16Z" fill="black"/>
<path d="M18.442 16H17.6636L17.9276 16.3961C18.0497 16.5791 17.9837 16.8278 17.7868 16.9262L16.83 17.4046C15.7539 17.9427 15.4608 19.3436 16.2311 20.2679L18.1187 22.5331C18.3839 22.8513 18.8568 22.8943 19.175 22.6291C19.4932 22.364 19.5362 21.891 19.271 21.5728L17.3834 19.3076C17.2324 19.1264 17.2898 18.8517 17.5008 18.7462L18.4577 18.2678C19.3767 17.8083 19.7366 16.7065 19.3131 15.8071C19.0486 15.9308 18.7534 16 18.442 16Z" fill="black"/>
</svg>
