<svg width="24" height="24" viewBox="0 0 24 24" fill="none" xmlns="http://www.w3.org/2000/svg">
<path d="M4.57538 4.57536C0.474874 8.67586 0.474874 15.3241 4.57538 19.4246C4.77064 19.6199 4.77064 19.9364 4.57538 20.1317C4.38012 20.327 4.06353 20.327 3.86827 20.1317C-0.622758 15.6407 -0.622758 8.35928 3.86827 3.86825C4.06353 3.67299 4.38012 3.67299 4.57538 3.86825C4.77064 4.06351 4.77064 4.38009 4.57538 4.57536Z" fill="black"/>
<path d="M7.69644 6.69667C4.76751 9.6256 4.76751 14.3743 7.69644 17.3033C7.8917 17.4985 7.89171 17.8151 7.69644 18.0104C7.50118 18.2056 7.1846 18.2056 6.98934 18.0104C3.66988 14.6909 3.66988 9.30902 6.98934 5.98956C7.1846 5.7943 7.50118 5.7943 7.69644 5.98956C7.89171 6.18482 7.8917 6.50141 7.69644 6.69667Z" fill="black"/>
<path fill-rule="evenodd" clip-rule="evenodd" d="M23.9727 4.875C23.9819 4.875 23.991 4.87545 24 4.87632V6.58089C23.8551 6.62903 23.7171 6.69811 23.5906 6.78667L21.5991 8.18071C20.7982 8.74139 21.1949 9.99994 22.1726 9.99994H24V16.6106C23.9684 16.62 23.9349 16.625 23.9003 16.625H20.3664C20.2382 18.4413 18.7241 19.875 16.8752 19.875C15.0263 19.875 13.5122 18.4413 13.384 16.625H10.7064C9.51194 16.625 8.66849 15.4548 9.04623 14.3216L9.62771 12.5772C9.81692 12.0096 10.283 11.5779 10.8635 11.4328L15.7955 10.1998C15.9438 10.1628 16.084 10.0988 16.2092 10.0112L23.1973 5.11944C23.4246 4.96034 23.6953 4.875 23.9727 4.875ZM14.3752 16.375C14.3752 14.9943 15.4945 13.875 16.8752 13.875C18.2559 13.875 19.3752 14.9943 19.3752 16.375C19.3752 17.7557 18.2559 18.875 16.8752 18.875C15.4945 18.875 14.3752 17.7557 14.3752 16.375Z" fill="black"/>
</svg>
