<svg width="24" height="24" viewBox="0 0 24 24" fill="none" xmlns="http://www.w3.org/2000/svg">
<path d="M4.57538 4.57536C0.474874 8.67586 0.474874 15.3241 4.57538 19.4246C4.77064 19.6199 4.77064 19.9364 4.57538 20.1317C4.38012 20.327 4.06353 20.327 3.86827 20.1317C-0.622758 15.6407 -0.622758 8.35928 3.86827 3.86825C4.06353 3.67299 4.38012 3.67299 4.57538 3.86825C4.77064 4.06351 4.77064 4.38009 4.57538 4.57536Z" fill="black"/>
<path d="M7.69644 6.69667C4.76751 9.6256 4.76751 14.3743 7.69644 17.3033C7.8917 17.4985 7.89171 17.8151 7.69644 18.0104C7.50118 18.2056 7.1846 18.2056 6.98934 18.0104C3.66988 14.6909 3.66988 9.30902 6.98934 5.98956C7.1846 5.7943 7.50118 5.7943 7.69644 5.98956C7.89171 6.18482 7.8917 6.50141 7.69644 6.69667Z" fill="black"/>
<path fill-rule="evenodd" clip-rule="evenodd" d="M23.7655 5.54871C23.9995 5.40204 24.0703 5.09347 23.9236 4.8595C23.7769 4.62552 23.4684 4.55475 23.2344 4.70142L15.0612 9.825C14.9721 9.88088 14.8747 9.92235 14.7726 9.94786L9.80254 11.1904C9.13916 11.3562 8.60648 11.8495 8.39024 12.4982L7.80876 14.2426C7.37706 15.5377 8.341 16.8751 9.70612 16.8751H12.4104C12.653 18.5712 14.1117 19.875 15.8749 19.875C17.6381 19.875 19.0968 18.5712 19.3394 16.8751H23.5C23.7761 16.8751 24 16.6512 24 16.3751C24 16.0989 23.7761 15.8751 23.5 15.8751H19.3395C19.0969 14.1789 17.6382 12.875 15.8749 12.875C14.1116 12.875 12.6529 14.1789 12.4103 15.8751H9.70612C9.02356 15.8751 8.54159 15.2064 8.75744 14.5588L9.33892 12.8144C9.44704 12.4901 9.71338 12.2434 10.0451 12.1605L15.0151 10.918C15.2193 10.867 15.4141 10.784 15.5924 10.6723L23.7655 5.54871ZM15.8749 13.875C14.4942 13.875 13.3749 14.9943 13.3749 16.375C13.3749 17.7557 14.4942 18.875 15.8749 18.875C17.2556 18.875 18.3749 17.7557 18.3749 16.375C18.3749 14.9943 17.2556 13.875 15.8749 13.875Z" fill="black"/>
</svg>
