<svg width="24" height="24" viewBox="0 0 24 24" fill="none" xmlns="http://www.w3.org/2000/svg">
<path d="M15.0001 8.00007C15.0001 7.72393 15.224 7.50007 15.5001 7.50007H17.5001C17.7763 7.50007 18.0001 7.72393 18.0001 8.00007C18.0001 8.27621 17.7763 8.50007 17.5001 8.50007H15.5001C15.224 8.50007 15.0001 8.27621 15.0001 8.00007Z" fill="black"/>
<path d="M6.50012 7.50007C6.22398 7.50007 6.00012 7.72393 6.00012 8.00007C6.00012 8.27621 6.22398 8.50007 6.50012 8.50007H8.50012C8.77627 8.50007 9.00012 8.27621 9.00012 8.00007C9.00012 7.72393 8.77627 7.50007 8.50012 7.50007L6.50012 7.50007Z" fill="black"/>
<path fill-rule="evenodd" clip-rule="evenodd" d="M8.61333 1.46802C7.77313 1.46802 6.98913 1.89006 6.52648 2.5914L5.14048 4.69246L3.70597 4.04441C3.45432 3.93072 3.15815 4.04257 3.04446 4.29422C2.93078 4.54588 3.04262 4.84204 3.29428 4.95573L4.58282 5.53784L4.10236 6.26617C3.83287 6.6747 3.68921 7.15336 3.68921 7.64279V10.5C3.68921 11.08 4.01837 11.5831 4.50008 11.8327V13.942C4.50008 14.5263 4.97372 15 5.55799 15H7.44216C8.02643 15 8.50008 14.5263 8.50008 13.942V12H15.5001V13.942C15.5001 14.5263 15.9737 15 16.558 15H18.4422C19.0264 15 19.5001 14.5263 19.5001 13.942V11.8326C19.9817 11.583 20.3108 11.0799 20.3108 10.5V7.64278C20.3108 7.15336 20.1672 6.6747 19.8977 6.26617L19.4173 5.53792L20.706 4.95573C20.9576 4.84204 21.0695 4.54588 20.9558 4.29422C20.8421 4.04257 20.5459 3.93072 20.2943 4.04441L18.8596 4.69254L17.4735 2.5914C17.0109 1.89006 16.2269 1.46802 15.3867 1.46802H8.61333ZM4.9371 6.81681L5.59763 5.8155H18.4024L19.0629 6.81681C19.2246 7.06194 19.3108 7.34913 19.3108 7.64278V10.5C19.3108 10.774 19.0905 10.9965 18.8174 11H5.18267C4.90954 10.9965 4.68921 10.774 4.68921 10.5V7.64279C4.68921 7.34913 4.7754 7.06194 4.9371 6.81681ZM6.2573 4.8155H17.7427L16.6388 3.14205C16.3612 2.72124 15.8908 2.46802 15.3867 2.46802H8.61333C8.10921 2.46802 7.63881 2.72124 7.36122 3.14205L6.2573 4.8155ZM16.5001 12H18.5001V13.942C18.5001 13.974 18.4741 14 18.4422 14H16.558C16.526 14 16.5001 13.974 16.5001 13.942V12ZM5.50008 12H7.50008V13.942C7.50008 13.974 7.47415 14 7.44216 14H5.55799C5.52601 14 5.50008 13.974 5.50008 13.942V12Z" fill="black"/>
<path d="M7.44222 16H7.36384L7.53545 16.2574C7.74092 16.5656 7.62977 16.9841 7.29846 17.1498L6.34163 17.6282C5.40967 18.0942 5.15589 19.3074 5.82294 20.1079L7.71059 22.3731C7.88737 22.5852 8.20265 22.6139 8.41479 22.4371C8.62693 22.2603 8.65559 21.945 8.47881 21.7329L6.59116 19.4677C6.33693 19.1626 6.43365 18.7002 6.78885 18.5226L7.74567 18.0442C8.59412 17.62 8.89229 16.5637 8.40489 15.7614C8.11764 15.9137 7.79 16 7.44222 16Z" fill="black"/>
<path d="M18.4422 16H17.9642L18.1358 16.2574C18.3413 16.5656 18.2301 16.9841 17.8988 17.1498L16.942 17.6282C16.01 18.0942 15.7563 19.3074 16.4233 20.1079L18.311 22.3731C18.4877 22.5852 18.803 22.6139 19.0152 22.4371C19.2273 22.2603 19.256 21.945 19.0792 21.7329L17.1915 19.4677C16.9373 19.1626 17.034 18.7002 17.3892 18.5226L18.346 18.0442C19.1467 17.6439 19.4573 16.6807 19.0802 15.8992C18.8793 15.9646 18.6649 16 18.4422 16Z" fill="black"/>
</svg>
