<svg width="25" height="24" viewBox="0 0 25 24" fill="none" xmlns="http://www.w3.org/2000/svg">
<path d="M4.92893 4.92891C1.02369 8.83415 1.02369 15.1658 4.92893 19.071C5.31946 19.4616 5.31946 20.0947 4.92893 20.4853C4.53841 20.8758 3.90524 20.8758 3.51472 20.4853C-1.17157 15.799 -1.17157 8.20099 3.51472 3.5147C3.90524 3.12417 4.53841 3.12417 4.92893 3.5147C5.31946 3.90522 5.31946 4.53838 4.92893 4.92891Z" fill="black"/>
<path d="M8.5539 7.05025C5.82023 9.78392 5.82023 14.2161 8.5539 16.9497C8.94443 17.3403 8.94443 17.9734 8.5539 18.364C8.16338 18.7545 7.53021 18.7545 7.13969 18.364C3.62497 14.8492 3.62497 9.15076 7.13969 5.63604C7.53021 5.24551 8.16338 5.24552 8.5539 5.63604C8.94443 6.02656 8.94443 6.65973 8.5539 7.05025Z" fill="black"/>
<path fill-rule="evenodd" clip-rule="evenodd" d="M23.8571 6.29453C24.2959 5.95917 24.3798 5.33158 24.0444 4.89277C23.709 4.45397 23.0815 4.3701 22.6426 4.70546L16.51 9.3923C16.4559 9.43369 16.3938 9.46357 16.3277 9.4801L11.4273 10.7052C10.598 10.9125 9.93219 11.5291 9.66189 12.34L9.08041 14.0844C8.54079 15.7032 9.74571 17.375 11.4521 17.375H13.7469C14.191 19.1002 15.7571 20.3749 17.6209 20.3749C19.4847 20.3749 21.0508 19.1002 21.4949 17.375H23.2499C23.8022 17.375 24.2499 16.9272 24.2499 16.375C24.2499 15.8227 23.8022 15.375 23.2499 15.375H21.4949C21.0508 13.6497 19.4847 12.3749 17.6209 12.3749C15.757 12.3749 14.1909 13.6497 13.7469 15.375H11.4521C11.1108 15.375 10.8698 15.0406 10.9778 14.7168L11.5593 12.9724C11.6133 12.8103 11.7465 12.6869 11.9123 12.6455L16.8128 11.4204C17.1434 11.3377 17.4537 11.1883 17.7245 10.9814L23.8571 6.29453ZM17.6209 14.3749C16.5163 14.3749 15.6209 15.2704 15.6209 16.3749C15.6209 17.4795 16.5163 18.3749 17.6209 18.3749C18.7255 18.3749 19.6209 17.4795 19.6209 16.3749C19.6209 15.2704 18.7255 14.3749 17.6209 14.3749Z" fill="black"/>
</svg>
