<svg width="24" height="24" viewBox="0 0 24 24" fill="none" xmlns="http://www.w3.org/2000/svg">
<path d="M14.625 8.00007C14.625 7.51682 15.0167 7.12507 15.5 7.12507H17.5C17.9832 7.12507 18.375 7.51682 18.375 8.00007C18.375 8.48332 17.9832 8.87507 17.5 8.87507H15.5C15.0167 8.87507 14.625 8.48332 14.625 8.00007Z" fill="black"/>
<path d="M6.49997 7.12507C6.01672 7.12507 5.62497 7.51682 5.62497 8.00007C5.62497 8.48332 6.01672 8.87507 6.49997 8.87507H8.49997C8.98322 8.87507 9.37497 8.48332 9.37497 8.00007C9.37497 7.51682 8.98322 7.12507 8.49997 7.12507L6.49997 7.12507Z" fill="black"/>
<path fill-rule="evenodd" clip-rule="evenodd" d="M8.61317 0.968018C7.60494 0.968018 6.66414 1.47447 6.10896 2.31607L4.88799 4.16697L3.8602 3.70266C3.41981 3.50371 2.90152 3.69944 2.70256 4.13984C2.50361 4.58023 2.69934 5.09852 3.13974 5.29748L3.91207 5.64638L3.68484 5.99084C3.36144 6.48109 3.18906 7.05548 3.18906 7.64279V10.5C3.18906 11.1592 3.50797 11.7439 3.99993 12.1083V13.942C3.99993 14.8025 4.69743 15.5 5.55784 15.5H7.44201C8.30242 15.5 8.99993 14.8025 8.99993 13.942V12.5H14.9999V13.942C14.9999 14.8025 15.6974 15.5 16.5578 15.5H18.442C19.3024 15.5 19.9999 14.8025 19.9999 13.942V12.1081C20.4918 11.7438 20.8107 11.1591 20.8107 10.5V7.64278C20.8107 7.05548 20.6383 6.48109 20.3149 5.99084L20.0877 5.64646L20.8602 5.29748C21.3006 5.09852 21.4963 4.58023 21.2974 4.13984C21.0984 3.69944 20.5801 3.50371 20.1397 3.70266L19.1118 4.16705L17.8908 2.31607C17.3356 1.47447 16.3948 0.968018 15.3865 0.968018H8.61317ZM5.35432 7.09214L5.9491 6.1905H18.0506L18.6454 7.09214C18.7532 7.25555 18.8107 7.44702 18.8107 7.64278V10.5H5.18906V7.64279C5.18906 7.44702 5.24652 7.25555 5.35432 7.09214ZM7.10351 4.4405H16.8962L16.2213 3.41737C16.0362 3.13683 15.7226 2.96802 15.3865 2.96802H8.61317C8.2771 2.96802 7.9635 3.13683 7.77844 3.41737L7.10351 4.4405ZM16.9999 12.5H17.9999V13.5H16.9999V12.5ZM5.99993 12.5H6.99993V13.5H5.99993V12.5Z" fill="black"/>
<path d="M7.44207 17H6.47992L6.11787 17.181C4.89753 17.7912 4.56521 19.3798 5.43868 20.428L7.32632 22.6931C7.67989 23.1174 8.31045 23.1747 8.73473 22.8212C9.15901 22.4676 9.21633 21.8371 8.86277 21.4128L6.97512 19.1476C6.9273 19.0902 6.94549 19.0033 7.0123 18.9698L7.96913 18.4914C8.75269 18.0996 9.17784 17.2962 9.13646 16.488C8.65144 16.8114 8.06877 17 7.44207 17Z" fill="black"/>
<path d="M18.4421 17H17.0803L16.7182 17.181C15.4979 17.7912 15.1656 19.3798 16.039 20.428L17.9267 22.6931C18.2803 23.1174 18.9108 23.1747 19.3351 22.8212C19.7594 22.4676 19.8167 21.8371 19.4631 21.4128L17.5755 19.1476C17.5277 19.0902 17.5459 19.0033 17.6127 18.9698L18.5695 18.4914C19.2801 18.1361 19.6959 17.4423 19.7363 16.7134C19.3433 16.8972 18.9047 17 18.4421 17Z" fill="black"/>
</svg>
