<svg width="24" height="24" viewBox="0 0 24 24" fill="none" xmlns="http://www.w3.org/2000/svg">
<path d="M4.92893 4.92891C1.02369 8.83415 1.02369 15.1658 4.92893 19.071C5.31946 19.4616 5.31946 20.0947 4.92893 20.4853C4.53841 20.8758 3.90524 20.8758 3.51472 20.4853C-1.17157 15.799 -1.17157 8.20099 3.51472 3.5147C3.90524 3.12417 4.53841 3.12417 4.92893 3.5147C5.31946 3.90522 5.31946 4.53838 4.92893 4.92891Z" fill="black"/>
<path d="M8.61396 7.05025C5.88029 9.78392 5.88029 14.2161 8.61396 16.9497C9.00449 17.3403 9.00449 17.9734 8.61396 18.364C8.22344 18.7545 7.59027 18.7545 7.19975 18.364C3.68503 14.8492 3.68503 9.15076 7.19975 5.63604C7.59027 5.24551 8.22344 5.24552 8.61396 5.63604C9.00449 6.02656 9.00449 6.65973 8.61396 7.05025Z" fill="black"/>
<path fill-rule="evenodd" clip-rule="evenodd" d="M17.2092 10.0112L24 5.25753V7.20011L22.5991 8.18071C21.7982 8.74139 22.1949 9.99994 23.1726 9.99994H24V16.625H21.8675C21.7385 18.7177 20.0004 20.375 17.8752 20.375C15.75 20.375 14.012 18.7177 13.8829 16.625H11.7064C10.5119 16.625 9.66849 15.4548 10.0462 14.3216L10.6277 12.5772C10.8169 12.0096 11.283 11.5779 11.8635 11.4328L16.7955 10.1998C16.9438 10.1628 17.084 10.0988 17.2092 10.0112ZM15.8752 16.375C15.8752 15.2704 16.7706 14.375 17.8752 14.375C18.9798 14.375 19.8752 15.2704 19.8752 16.375C19.8752 17.4795 18.9798 18.375 17.8752 18.375C16.7706 18.375 15.8752 17.4795 15.8752 16.375Z" fill="black"/>
</svg>
