<svg width="24" height="24" viewBox="0 0 24 24" fill="none" xmlns="http://www.w3.org/2000/svg">
<path d="M4.75216 4.75213C0.749281 8.75501 0.749281 15.2449 4.75216 19.2478C5.04505 19.5407 5.04505 20.0156 4.75216 20.3085C4.45926 20.6014 3.98439 20.6014 3.6915 20.3085C-0.897165 15.7198 -0.897165 8.28013 3.6915 3.69147C3.98439 3.39858 4.45926 3.39858 4.75216 3.69147C5.04505 3.98436 5.04505 4.45924 4.75216 4.75213Z" fill="black"/>
<path d="M7.87322 6.87345C5.04192 9.70475 5.04192 14.2952 7.87322 17.1265C8.16611 17.4194 8.16611 17.8943 7.87322 18.1872C7.58033 18.48 7.10545 18.48 6.81256 18.1872C3.39547 14.7701 3.39547 9.22987 6.81256 5.81279C7.10545 5.51989 7.58033 5.51989 7.87322 5.81279C8.16611 6.10568 8.16611 6.58055 7.87322 6.87345Z" fill="black"/>
<path fill-rule="evenodd" clip-rule="evenodd" d="M23.9727 4.875C23.9819 4.875 23.991 4.87545 24 4.87632V6.58089C23.8551 6.62903 23.7171 6.69811 23.5906 6.78667L21.5991 8.18071C20.7982 8.74139 21.1949 9.99994 22.1726 9.99994H24V16.6106C23.9684 16.62 23.9349 16.625 23.9003 16.625H20.617C20.4884 18.5795 18.8623 20.125 16.8752 20.125C14.8882 20.125 13.2621 18.5795 13.1334 16.625H10.7064C9.51194 16.625 8.66849 15.4548 9.04623 14.3216L9.62771 12.5772C9.81692 12.0096 10.283 11.5779 10.8635 11.4328L15.7955 10.1998C15.9438 10.1628 16.084 10.0988 16.2092 10.0112L23.1973 5.11944C23.4246 4.96034 23.6953 4.875 23.9727 4.875ZM14.6252 16.375C14.6252 15.1323 15.6326 14.125 16.8752 14.125C18.1179 14.125 19.1252 15.1323 19.1252 16.375C19.1252 17.6176 18.1179 18.625 16.8752 18.625C15.6326 18.625 14.6252 17.6176 14.6252 16.375Z" fill="black"/>
</svg>
