<svg width="24" height="24" viewBox="0 0 24 24" fill="none" xmlns="http://www.w3.org/2000/svg">
<path d="M1.83832 13.4776C1.45571 13.8885 1.33458 14.4786 1.5244 15.007C1.64211 15.3346 1.87706 15.5324 2.00199 15.6267C2.14594 15.7354 2.30984 15.827 2.46152 15.9043C2.75796 16.0555 3.16893 16.2316 3.65354 16.4392L20.0191 23.4531C20.1803 23.5222 20.3574 23.5982 20.5136 23.6489C20.6805 23.7031 20.9578 23.7764 21.2802 23.7152C21.6735 23.6404 22.0206 23.4115 22.2443 23.0795C22.4276 22.8073 22.4694 22.5235 22.4853 22.3488C22.5002 22.1852 22.5002 21.9925 22.5001 21.8172V14.7767C22.5002 14.6576 22.5002 14.5153 22.49 14.39C22.4781 14.2448 22.4477 14.0368 22.3366 13.8188C22.1928 13.5366 21.9633 13.3071 21.6811 13.1633C21.4631 13.0522 21.2552 13.0218 21.1099 13.0099C20.9846 12.9997 20.8424 12.9998 20.7232 12.9998L4.35952 12.9998C3.83228 12.9998 3.38516 12.9998 3.05315 13.0219C2.88327 13.0333 2.69654 13.0529 2.52142 13.0961C2.36944 13.1336 2.07557 13.2228 1.83832 13.4776Z" fill="black"/>
<path fill-rule="evenodd" clip-rule="evenodd" d="M1.83832 10.522C1.45571 10.1112 1.33458 9.52103 1.5244 8.99266C1.64211 8.66502 1.87706 8.46723 2.00199 8.37292C2.14594 8.26424 2.30984 8.17264 2.46152 8.09531C2.75791 7.94419 3.16881 7.7681 3.65333 7.56045L20.0191 0.546547C20.1802 0.477442 20.3575 0.401424 20.5136 0.350693C20.6805 0.296478 20.9578 0.223185 21.2802 0.284454C21.6735 0.359207 22.0206 0.588093 22.2443 0.920166C22.4276 1.19234 22.4694 1.47607 22.4853 1.65082C22.5002 1.81438 22.5002 2.00709 22.5001 2.18242V9.22296C22.5002 9.34205 22.5002 9.48436 22.49 9.60964C22.4781 9.75486 22.4477 9.96285 22.3366 10.1808C22.1928 10.463 21.9633 10.6925 21.6811 10.8363C21.4631 10.9474 21.2552 10.9778 21.1099 10.9897C20.9846 10.9999 20.8424 10.9999 20.7232 10.9998L4.35952 10.9998C3.83228 10.9998 3.38516 10.9998 3.05315 10.9777C2.88327 10.9663 2.69654 10.9467 2.52142 10.9035C2.36944 10.8661 2.07557 10.7768 1.83832 10.522ZM5.37203 8.99981H20.5001V2.51635L5.37203 8.99981Z" fill="black"/>
</svg>
