<svg width="24" height="24" viewBox="0 0 24 24" fill="none" xmlns="http://www.w3.org/2000/svg">
<path d="M10.8518 2.02127C10.5094 1.70243 10.0176 1.60149 9.57732 1.75967C9.31879 1.85255 9.1574 2.04026 9.07258 2.15261C8.97698 2.27924 8.89314 2.42801 8.81816 2.57507C8.67087 2.86395 8.49754 3.26841 8.2871 3.75946L1.27822 20.1135C1.2074 20.2787 1.13568 20.4459 1.0886 20.5909C1.03885 20.744 0.980678 20.973 1.03019 21.2335C1.09249 21.5613 1.28323 21.8505 1.55995 22.0369C1.77992 22.185 2.01329 22.2218 2.17362 22.2363C2.3254 22.2502 2.50737 22.2501 2.68708 22.2501H9.72017C9.84231 22.2501 9.97479 22.2502 10.0894 22.2408C10.2192 22.2302 10.3906 22.204 10.5674 22.1139C10.8026 21.994 10.9939 21.8028 11.1137 21.5676C11.2038 21.3908 11.23 21.2193 11.2406 21.0896C11.25 20.9749 11.25 20.8425 11.2499 20.7203L11.2499 4.36761C11.25 3.83339 11.25 3.39332 11.2284 3.06978C11.2174 2.90508 11.1989 2.73531 11.1609 2.58127C11.1272 2.44458 11.0528 2.20848 10.8518 2.02127Z" fill="black"/>
<path fill-rule="evenodd" clip-rule="evenodd" d="M13.1481 2.02127C13.4905 1.70243 13.9823 1.60149 14.4226 1.75967C14.6811 1.85255 14.8425 2.04026 14.9273 2.15261C15.0229 2.27924 15.1067 2.42801 15.1817 2.57507C15.329 2.86395 15.5023 3.26841 15.7128 3.75946L22.7217 20.1135C22.7925 20.2787 22.8642 20.4459 22.9113 20.5909C22.961 20.744 23.0192 20.973 22.9697 21.2335C22.9074 21.5613 22.7167 21.8505 22.4399 22.0369C22.22 22.185 21.9866 22.2218 21.8263 22.2363C21.6745 22.2502 21.4925 22.2501 21.3128 22.2501H14.2797C14.1576 22.2501 14.0251 22.2502 13.9105 22.2408C13.7807 22.2302 13.6093 22.204 13.4325 22.1139C13.1973 21.994 13.006 21.8028 12.8862 21.5676C12.7961 21.3908 12.7698 21.2193 12.7592 21.0896C12.7499 20.9749 12.7499 20.8425 12.7499 20.7203L12.7499 4.36761C12.7499 3.83339 12.7499 3.39332 12.7715 3.06978C12.7825 2.90508 12.801 2.73531 12.8389 2.58127C12.8726 2.44458 12.9471 2.20848 13.1481 2.02127ZM14.25 4.15445L21.3625 20.7501L14.25 20.7501L14.25 4.15445ZM21.4933 21.0845L21.4925 21.0809C21.4931 21.0834 21.4933 21.0846 21.4933 21.0845ZM21.7178 20.7392L21.7214 20.7385C21.7215 20.7386 21.7203 20.7388 21.7178 20.7392Z" fill="black"/>
</svg>
