<svg width="24" height="24" viewBox="0 0 24 24" fill="none" xmlns="http://www.w3.org/2000/svg">
<path d="M2.91662 12.9515C2.65517 13.2323 2.5724 13.6356 2.70211 13.9966C2.76326 14.1668 2.89387 14.2893 3.00978 14.3768C3.13282 14.4697 3.28989 14.56 3.46999 14.6518C3.82752 14.8341 4.33817 15.053 4.99417 15.3341L19.9183 21.7302C20.1469 21.8281 20.3416 21.9116 20.5034 21.9642C20.6694 22.0181 20.8511 22.0574 21.0414 22.0213C21.3101 21.9702 21.5473 21.8138 21.7002 21.5869C21.8083 21.4262 21.8438 21.2437 21.8596 21.0699C21.875 20.9005 21.875 20.6887 21.875 20.44V14.026C21.875 13.856 21.875 13.7064 21.8649 13.5826C21.8541 13.451 21.8301 13.3159 21.7633 13.1847C21.665 12.9918 21.5082 12.835 21.3153 12.7368C21.1841 12.6699 21.049 12.6459 20.9174 12.6352C20.7936 12.625 20.644 12.625 20.474 12.6251H5.55028C4.83655 12.625 4.28096 12.625 3.88052 12.6518C3.67881 12.6652 3.49884 12.6864 3.34916 12.7233C3.20816 12.7581 3.03988 12.8192 2.91662 12.9515Z" fill="black"/>
<path fill-rule="evenodd" clip-rule="evenodd" d="M3.00809 10.9634C2.77853 10.7169 2.70586 10.3628 2.81975 10.0458C2.86849 9.91009 2.97547 9.80586 3.08509 9.7231C3.19947 9.63675 3.34898 9.55028 3.52677 9.45963C3.88058 9.27924 4.38819 9.06169 5.04832 8.77878L19.9631 2.38675C20.1955 2.28712 20.3858 2.20558 20.542 2.15483C20.7011 2.10313 20.8587 2.07135 21.018 2.10163C21.254 2.14648 21.4623 2.28381 21.5965 2.48306C21.6871 2.61758 21.7199 2.77492 21.7351 2.94157C21.75 3.10517 21.75 3.31207 21.75 3.56497V9.97016C21.75 10.1435 21.75 10.2887 21.7403 10.4073C21.7302 10.5312 21.7083 10.648 21.6519 10.7586C21.5656 10.928 21.4279 11.0657 21.2586 11.152C21.1479 11.2083 21.0311 11.2302 20.9073 11.2404C20.7886 11.2501 20.6435 11.2501 20.4701 11.2501H5.55556C4.83736 11.2501 4.2851 11.2501 3.88884 11.2236C3.68971 11.2103 3.51823 11.1897 3.37909 11.1554C3.24573 11.1226 3.10634 11.0689 3.00809 10.9634ZM3.2903 10.2148C3.23968 10.3557 3.27198 10.5131 3.37401 10.6226C3.37701 10.625 3.40542 10.647 3.4988 10.67C3.59579 10.6939 3.73333 10.7121 3.92213 10.7247C4.29965 10.7499 4.83517 10.7501 5.5668 10.7501H20.46C20.6461 10.7501 20.7707 10.7499 20.8666 10.742C20.9595 10.7344 21.0032 10.7209 21.0316 10.7065C21.1069 10.6681 21.168 10.6069 21.2064 10.5316C21.2209 10.5032 21.2344 10.4595 21.242 10.3666C21.2498 10.2708 21.25 10.1462 21.25 9.96005V3.57725C21.25 3.30913 21.2497 3.12512 21.2372 2.9869C21.2246 2.84908 21.202 2.79245 21.1818 2.76236C21.1221 2.67381 21.0296 2.61277 20.9247 2.59284C20.889 2.58606 20.8281 2.58761 20.6965 2.63037C20.5645 2.67325 20.3952 2.74551 20.1488 2.85113L5.25561 9.23393C4.58313 9.52213 4.09097 9.73321 3.75389 9.90507C3.58532 9.99102 3.46608 10.062 3.38635 10.1221C3.3096 10.1801 3.29214 10.2115 3.2903 10.2148Z" fill="black"/>
</svg>
