<svg width="24" height="24" viewBox="0 0 24 24" fill="none" xmlns="http://www.w3.org/2000/svg">
<path fill-rule="evenodd" clip-rule="evenodd" d="M12.25 6.06886C12.6374 6.06886 12.9899 6.29257 13.1548 6.64306L16.3357 13.4024C16.5709 13.9022 16.3564 14.4979 15.8567 14.7331C15.357 14.9682 14.7612 14.7538 14.5261 14.254L13.8286 12.7718H10.6714L9.97393 14.254C9.73877 14.7538 9.14303 14.9682 8.64332 14.7331C8.1436 14.4979 7.92913 13.9022 8.1643 13.4024L11.3452 6.64306C11.5101 6.29257 11.8626 6.06886 12.25 6.06886ZM12.25 9.4174L11.6126 10.7718H12.8874L12.25 9.4174Z" fill="black"/>
<path fill-rule="evenodd" clip-rule="evenodd" d="M17.7413 2.25C18.5463 2.24999 19.2106 2.24998 19.7518 2.29419C20.3139 2.34012 20.8306 2.43868 21.316 2.68598C22.0686 3.06947 22.6805 3.68139 23.064 4.43404C23.3113 4.91937 23.4099 5.43608 23.4558 5.99818C23.5 6.53937 23.5 7.20372 23.5 8.00868V12.4913C23.5 13.2963 23.5 13.9606 23.4558 14.5018C23.4099 15.0639 23.3113 15.5806 23.064 16.066C22.6805 16.8186 22.0686 17.4305 21.316 17.814C20.8306 18.0613 20.3139 18.1599 19.7518 18.2058C19.2106 18.25 18.5463 18.25 17.7413 18.25H12.4142L8.12125 22.543C8.03144 22.6329 7.92248 22.7419 7.82232 22.8258C7.73975 22.8949 7.4798 23.1126 7.09807 23.1426C6.69918 23.174 6.30936 23.0125 6.04949 22.7083C5.80081 22.4171 5.77096 22.0802 5.76146 21.9729C5.74993 21.8428 5.74993 21.6878 5.74999 21.5607L5.75 18.2495C5.16872 18.2479 4.67088 18.2403 4.24818 18.2058C3.68608 18.1599 3.16937 18.0613 2.68404 17.814C1.93139 17.4305 1.31947 16.8186 0.935975 16.066C0.688683 15.5806 0.590119 15.0639 0.544194 14.5018C0.499978 13.9606 0.499987 13.2963 0.5 12.4913V8.00868C0.499987 7.20372 0.499978 6.53937 0.544194 5.99818C0.590119 5.43608 0.688683 4.91937 0.935975 4.43404C1.31947 3.68139 1.93139 3.06947 2.68404 2.68598C3.16937 2.43868 3.68608 2.34012 4.24818 2.29419C4.78937 2.24998 5.45372 2.24999 6.25868 2.25H17.7413ZM20.408 4.46799C20.2516 4.3883 20.0274 4.32337 19.589 4.28755C19.1389 4.25078 18.5566 4.25 17.7 4.25H6.3C5.44342 4.25 4.86113 4.25078 4.41104 4.28755C3.97262 4.32337 3.74842 4.3883 3.59202 4.46799C3.2157 4.65973 2.90974 4.9657 2.71799 5.34202C2.6383 5.49842 2.57337 5.72262 2.53755 6.16104C2.50078 6.61113 2.5 7.19342 2.5 8.05V12.45C2.5 13.3066 2.50078 13.8889 2.53755 14.339C2.57337 14.7774 2.6383 15.0016 2.71799 15.158C2.90974 15.5343 3.21569 15.8403 3.59202 16.032C3.74842 16.1117 3.97262 16.1766 4.41104 16.2124C4.86113 16.2492 5.44342 16.25 6.3 16.25L6.36383 16.25C6.41963 16.2499 6.51119 16.2498 6.59563 16.2567C6.69916 16.2652 6.87628 16.2888 7.06749 16.3862C7.30269 16.5061 7.49392 16.6973 7.61376 16.9325C7.71118 17.1237 7.73481 17.3008 7.74327 17.4044C7.75017 17.4888 7.75007 17.5804 7.75001 17.6362L7.75 20.0858L11.1757 16.6601L11.1793 16.6564C11.2016 16.6332 11.3113 16.5195 11.4504 16.4342C11.5623 16.3657 11.6842 16.3152 11.8117 16.2845C11.9705 16.2464 12.1284 16.2493 12.1606 16.2499L12.1657 16.25H17.7C18.5566 16.25 19.1389 16.2492 19.589 16.2124C20.0274 16.1766 20.2516 16.1117 20.408 16.032C20.7843 15.8403 21.0903 15.5343 21.282 15.158C21.3617 15.0016 21.4266 14.7774 21.4624 14.339C21.4992 13.8889 21.5 13.3066 21.5 12.45V8.05C21.5 7.19342 21.4992 6.61113 21.4624 6.16104C21.4266 5.72262 21.3617 5.49842 21.282 5.34202C21.0903 4.9657 20.7843 4.65973 20.408 4.46799Z" fill="black"/>
</svg>
