<svg width="24" height="24" viewBox="0 0 24 24" fill="none" xmlns="http://www.w3.org/2000/svg">
<path d="M2.2041 12.8184C1.94903 13.0923 1.86828 13.4857 1.99482 13.8379C2.06287 14.0274 2.20333 14.1523 2.30312 14.2277C2.41242 14.3102 2.54605 14.3863 2.6885 14.4589C2.96985 14.6023 3.36793 14.7729 3.86602 14.9864L20.2063 21.9894C20.3766 22.0624 20.5342 22.13 20.668 22.1734C20.8073 22.2187 20.988 22.2617 21.1867 22.224C21.4489 22.1741 21.6803 22.0216 21.8294 21.8002C21.9424 21.6324 21.974 21.4494 21.9873 21.3035C22 21.1634 22 20.9919 22 20.8067V13.7839C22 13.6577 22 13.5348 21.9915 13.4307C21.9822 13.3164 21.9601 13.1816 21.891 13.0458C21.7951 12.8577 21.6421 12.7047 21.454 12.6088C21.3183 12.5397 21.1834 12.5176 21.0691 12.5083C20.965 12.4998 20.8421 12.4998 20.7159 12.4998L4.37645 12.4998C3.83452 12.4998 3.40142 12.4998 3.0863 12.5209C2.92676 12.5315 2.77397 12.5488 2.64099 12.5816C2.5196 12.6115 2.34126 12.6711 2.2041 12.8184Z" fill="black"/>
<path fill-rule="evenodd" clip-rule="evenodd" d="M2.2041 11.1813C1.94903 10.9074 1.86828 10.514 1.99482 10.1617C2.06287 9.97232 2.20333 9.84733 2.30312 9.77199C2.41242 9.68948 2.54605 9.6134 2.6885 9.54078C2.96986 9.39732 3.36794 9.22672 3.86605 9.01325L20.2063 2.01028C20.3766 1.93729 20.5342 1.86971 20.668 1.82626C20.8073 1.78098 20.988 1.73793 21.1867 1.77569C21.4489 1.82553 21.6803 1.97811 21.8294 2.1995C21.9424 2.36724 21.974 2.55026 21.9873 2.69618C22 2.83626 22 3.00776 22 3.193V10.2158C22 10.342 22 10.4649 21.9915 10.5689C21.9822 10.6832 21.9601 10.8181 21.891 10.9538C21.7951 11.142 21.6421 11.295 21.454 11.3908C21.3183 11.46 21.1834 11.482 21.0691 11.4914C20.965 11.4999 20.8421 11.4999 20.7159 11.4998L4.37645 11.4998C3.83452 11.4998 3.40142 11.4998 3.0863 11.4788C2.92676 11.4682 2.77397 11.4509 2.64099 11.4181C2.5196 11.3882 2.34126 11.3286 2.2041 11.1813ZM3.06236 10.4739C3.08641 10.4608 3.11312 10.4468 3.14273 10.4317C3.3906 10.3053 3.75755 10.1477 4.27934 9.92409L20.5818 2.93732C20.7768 2.85374 20.8919 2.80497 20.9769 2.77733L20.99 2.7732L20.9914 2.78684C20.9995 2.87592 21 3.00089 21 3.21307V10.1998C21 10.3481 20.9996 10.4292 20.9948 10.4875L20.9942 10.4941L20.9877 10.4947C20.9294 10.4994 20.8482 10.4998 20.7 10.4998H4.39751C3.82983 10.4998 3.43048 10.4996 3.15286 10.481C3.1197 10.4788 3.08961 10.4764 3.06236 10.4739Z" fill="black"/>
</svg>
