<svg width="24" height="24" viewBox="0 0 24 24" fill="none" xmlns="http://www.w3.org/2000/svg">
<path d="M1.78008 13.565C1.33318 14.0508 1.19767 14.7467 1.42965 15.3648C1.58229 15.7714 1.88214 16.0041 2.01907 16.1021C2.18483 16.2207 2.36944 16.3177 2.53246 16.3963C2.85088 16.5498 3.28969 16.7274 3.79789 16.9331L19.9618 23.4757C20.1179 23.5389 20.304 23.6143 20.4705 23.6648C20.6513 23.7195 20.9736 23.7997 21.3512 23.7224C21.804 23.6297 22.2017 23.3616 22.4575 22.9767C22.6709 22.6556 22.7174 22.3268 22.7345 22.1387C22.7503 21.9654 22.7502 21.7647 22.7501 21.5963L22.7501 15.0246C22.7502 14.9079 22.7502 14.7556 22.7391 14.6196C22.726 14.4589 22.6913 14.2143 22.5593 13.9553C22.3916 13.626 22.1239 13.3583 21.7946 13.1905C21.5355 13.0585 21.291 13.0238 21.1303 13.0107C20.9942 12.9996 20.8419 12.9997 20.7252 12.9997L4.56376 12.9998C4.01551 12.9997 3.54211 12.9997 3.18936 13.0226C3.00876 13.0342 2.80123 13.0549 2.60308 13.1027C2.43938 13.1421 2.07414 13.2453 1.78008 13.565Z" fill="black"/>
<path fill-rule="evenodd" clip-rule="evenodd" d="M1.78008 10.4345C1.33318 9.94871 1.19767 9.25276 1.42965 8.63476C1.58229 8.22812 1.88214 7.99543 2.01907 7.89745C2.18483 7.77884 2.36944 7.6818 2.53246 7.60321C2.85088 7.44969 3.28971 7.27209 3.79792 7.0664L19.9618 0.523859C20.1179 0.460612 20.304 0.385201 20.4705 0.334761C20.6513 0.28002 20.9736 0.199782 21.3512 0.277128C21.804 0.36986 22.2017 0.63793 22.4575 1.02283C22.6709 1.34388 22.7174 1.67269 22.7345 1.86079C22.7503 2.03409 22.7502 2.23482 22.7501 2.40319L22.7501 8.97489C22.7502 9.09161 22.7502 9.24386 22.7391 9.37994C22.726 9.54062 22.6913 9.78518 22.5593 10.0442C22.3916 10.3735 22.1239 10.6412 21.7946 10.809C21.5355 10.941 21.291 10.9757 21.1303 10.9888C20.9942 10.9999 20.8419 10.9998 20.7252 10.9998L4.56376 10.9998C4.01551 10.9998 3.54211 10.9998 3.18936 10.977C3.00876 10.9653 2.80123 10.9446 2.60308 10.8968C2.43938 10.8574 2.07414 10.7542 1.78008 10.4345ZM6.91994 8.49975H20.2501V3.10422L6.91994 8.49975Z" fill="black"/>
</svg>
