<svg width="24" height="24" viewBox="0 0 24 24" fill="none" xmlns="http://www.w3.org/2000/svg">
<path fill-rule="evenodd" clip-rule="evenodd" d="M20.9701 2.75H20.96H14.54H14.5299C14.3565 2.75 14.2114 2.74999 14.0927 2.75969C13.9689 2.76981 13.852 2.79172 13.7414 2.84809C13.5721 2.93438 13.4344 3.07206 13.3481 3.24141C13.2917 3.35205 13.2698 3.46887 13.2597 3.59272C13.25 3.71136 13.25 3.85648 13.25 4.02989V4.04V10.46V10.4701C13.25 10.6435 13.25 10.7886 13.2597 10.9073C13.2698 11.0311 13.2917 11.148 13.3481 11.2586C13.4344 11.4279 13.5721 11.5656 13.7414 11.6519C13.852 11.7083 13.9689 11.7302 14.0927 11.7403C14.2114 11.75 14.3565 11.75 14.5299 11.75H14.54H20.96H20.9701C21.1435 11.75 21.2886 11.75 21.4073 11.7403C21.5311 11.7302 21.648 11.7083 21.7586 11.6519C21.9279 11.5656 22.0656 11.4279 22.1519 11.2586C22.2083 11.148 22.2302 11.0311 22.2403 10.9073C22.25 10.7886 22.25 10.6435 22.25 10.4701V10.46V4.04V4.0299V4.02986V4.02983C22.25 3.85644 22.25 3.71134 22.2403 3.59272C22.2302 3.46887 22.2083 3.35205 22.1519 3.24141C22.0656 3.07206 21.9279 2.93438 21.7586 2.84809C21.648 2.79172 21.5311 2.76981 21.4073 2.75969C21.2886 2.74999 21.1435 2.75 20.9701 2.75ZM21.3666 3.25803C21.4595 3.26562 21.5032 3.27913 21.5316 3.2936C21.6069 3.33195 21.6681 3.39314 21.7064 3.4684C21.7209 3.49681 21.7344 3.54051 21.742 3.63344C21.7498 3.72929 21.75 3.85386 21.75 4.04V10.46C21.75 10.6461 21.7498 10.7707 21.742 10.8666C21.7344 10.9595 21.7209 11.0032 21.7064 11.0316C21.6681 11.1069 21.6069 11.1681 21.5316 11.2064C21.5032 11.2209 21.4595 11.2344 21.3666 11.242C21.2707 11.2498 21.1461 11.25 20.96 11.25H14.54C14.3539 11.25 14.2293 11.2498 14.1334 11.242C14.0405 11.2344 13.9968 11.2209 13.9684 11.2064C13.8931 11.1681 13.8319 11.1069 13.7936 11.0316C13.7791 11.0032 13.7656 10.9595 13.758 10.8666C13.7502 10.7707 13.75 10.6461 13.75 10.46V4.04C13.75 3.85386 13.7502 3.72929 13.758 3.63344C13.7656 3.54051 13.7791 3.49681 13.7936 3.4684C13.8319 3.39314 13.8931 3.33195 13.9684 3.2936C13.9968 3.27913 14.0405 3.26562 14.1334 3.25803C14.2293 3.25019 14.3539 3.25 14.54 3.25H20.96C21.1461 3.25 21.2707 3.25019 21.3666 3.25803ZM9.9701 2.75L9.96 2.75H3.29L3.2799 2.75H3.27964C3.10634 2.75 2.9613 2.75 2.84272 2.75969C2.71887 2.76981 2.60205 2.79172 2.49141 2.8481C2.32206 2.93438 2.18438 3.07206 2.09809 3.24141C2.04172 3.35205 2.01981 3.46888 2.00969 3.59273C1.99999 3.71136 2 3.85648 2 4.02989V4.04V20.96V20.9701C2 21.1435 1.99999 21.2886 2.00969 21.4073C2.01981 21.5311 2.04172 21.648 2.09809 21.7586C2.18438 21.9279 2.32206 22.0656 2.49141 22.1519C2.60205 22.2083 2.71887 22.2302 2.84272 22.2403C2.96134 22.25 3.10644 22.25 3.27982 22.25H3.27986H3.27989H3.29H9.96H9.97011H9.97014H9.97018C10.1436 22.25 10.2887 22.25 10.4073 22.2403C10.5311 22.2302 10.648 22.2083 10.7586 22.1519C10.9279 22.0656 11.0656 21.9279 11.1519 21.7586C11.2083 21.648 11.2302 21.5311 11.2403 21.4073C11.25 21.2886 11.25 21.1435 11.25 20.9701V20.96V4.04V4.0299C11.25 3.85648 11.25 3.71136 11.2403 3.59273C11.2302 3.46888 11.2083 3.35205 11.1519 3.24141C11.0656 3.07206 10.9279 2.93438 10.7586 2.8481C10.648 2.79172 10.5311 2.76981 10.4073 2.75969C10.2887 2.75 10.1437 2.75 9.97036 2.75H9.9701ZM10.3666 3.25803C10.4595 3.26562 10.5032 3.27913 10.5316 3.2936C10.6069 3.33195 10.6681 3.39314 10.7064 3.46841C10.7209 3.49681 10.7344 3.54051 10.742 3.63344C10.7498 3.72929 10.75 3.85386 10.75 4.04V20.96C10.75 21.1461 10.7498 21.2707 10.742 21.3666C10.7344 21.4595 10.7209 21.5032 10.7064 21.5316C10.6681 21.6069 10.6069 21.6681 10.5316 21.7064C10.5032 21.7209 10.4595 21.7344 10.3666 21.742C10.2707 21.7498 10.1461 21.75 9.96 21.75H3.29C3.10386 21.75 2.97929 21.7498 2.88344 21.742C2.79051 21.7344 2.74681 21.7209 2.7184 21.7064C2.64314 21.6681 2.58195 21.6069 2.5436 21.5316C2.52913 21.5032 2.51562 21.4595 2.50803 21.3666C2.50019 21.2707 2.5 21.1461 2.5 20.96V4.04C2.5 3.85386 2.50019 3.72929 2.50803 3.63344C2.51562 3.54051 2.52913 3.49681 2.5436 3.46841C2.58195 3.39314 2.64314 3.33195 2.7184 3.2936C2.74681 3.27913 2.79051 3.26562 2.88344 3.25803C2.97929 3.2502 3.10386 3.25 3.29 3.25H9.96C10.1461 3.25 10.2707 3.2502 10.3666 3.25803ZM21.5 14.75C21.638 14.75 21.75 14.8619 21.75 15L21.7499 17.1001V17.1112V17.1112V17.1113C21.7499 17.5219 21.7499 17.8453 21.7286 18.1056C21.7069 18.3712 21.6618 18.593 21.5591 18.7945C21.3913 19.1238 21.1236 19.3915 20.7943 19.5593C20.5928 19.662 20.371 19.7071 20.1054 19.7288C19.8451 19.75 19.5216 19.75 19.111 19.75H19.0999H14.6748L16.6625 21.7377C16.7601 21.8353 16.7601 21.9936 16.6625 22.0913C16.5649 22.1889 16.4066 22.1889 16.3089 22.0913L13.9187 19.701C13.8077 19.59 13.8077 19.4101 13.9187 19.2991L16.3089 16.9088C16.4066 16.8112 16.5649 16.8112 16.6625 16.9088C16.7601 17.0064 16.7601 17.1647 16.6625 17.2624L14.6748 19.25H19.0999C19.5241 19.25 19.8271 19.2498 20.0647 19.2304C20.2994 19.2113 20.448 19.1746 20.5674 19.1138C20.8026 18.994 20.9938 18.8027 21.1136 18.5675C21.1744 18.4482 21.2111 18.2996 21.2303 18.0649C21.2497 17.8273 21.2499 17.5242 21.2499 17.1001L21.25 15C21.25 14.8619 21.3619 14.75 21.5 14.75Z" fill="black"/>
</svg>
