<svg width="24" height="24" viewBox="0 0 24 24" fill="none" xmlns="http://www.w3.org/2000/svg">
<path fill-rule="evenodd" clip-rule="evenodd" d="M8.635 1.42953C9.253 1.19755 9.94896 1.33306 10.4348 1.77996C10.7544 2.07402 10.8576 2.43926 10.8971 2.60296C10.9448 2.80111 10.9655 3.00863 10.9772 3.18924C11 3.54199 11 4.01539 11 4.56364L11 20.7251C11.0001 20.8418 11.0002 20.9941 10.989 21.1302C10.9759 21.2908 10.9413 21.5354 10.8093 21.7944C10.6415 22.1237 10.3738 22.3914 10.0445 22.5592C9.78542 22.6912 9.54086 22.7259 9.38019 22.739C9.24411 22.7501 9.09186 22.75 8.97514 22.75L2.40355 22.75C2.23518 22.75 2.03433 22.7501 1.86103 22.7344C1.67294 22.7173 1.34412 22.6708 1.02307 22.4574C0.638175 22.2016 0.370104 21.8039 0.277373 21.3511C0.200025 20.9734 0.280265 20.6512 0.335004 20.4704C0.385441 20.3039 0.460841 20.1178 0.524081 19.9618L7.06665 3.7978C7.27233 3.28959 7.44994 2.85076 7.60345 2.53234C7.68205 2.36931 7.77908 2.18471 7.89769 2.01895C7.99568 1.88202 8.22837 1.58217 8.635 1.42953ZM8.5 20.25V6.91982L3.10446 20.25H8.5Z" fill="black"/>
<path fill-rule="evenodd" clip-rule="evenodd" d="M15.365 1.42953C14.747 1.19755 14.051 1.33306 13.5652 1.77996C13.2456 2.07402 13.1424 2.43926 13.1029 2.60296C13.0552 2.80111 13.0345 3.00863 13.0228 3.18924C13 3.54199 13 4.01539 13 4.56364L13 20.7251C12.9999 20.8418 12.9998 20.9941 13.011 21.1302C13.0241 21.2908 13.0587 21.5354 13.1907 21.7944C13.3585 22.1237 13.6262 22.3914 13.9555 22.5592C14.2146 22.6912 14.4591 22.7259 14.6198 22.739C14.7559 22.7501 14.9081 22.75 15.0249 22.75L21.5964 22.75C21.7648 22.75 21.9657 22.7501 22.139 22.7344C22.3271 22.7173 22.6559 22.6708 22.9769 22.4574C23.3618 22.2016 23.6299 21.8039 23.7226 21.3511C23.8 20.9734 23.7197 20.6512 23.665 20.4704C23.6146 20.3039 23.5391 20.1178 23.4759 19.9617L16.9333 3.7978C16.7277 3.28958 16.5501 2.85076 16.3965 2.53234C16.318 2.36931 16.2209 2.18471 16.1023 2.01895C16.0043 1.88202 15.7716 1.58217 15.365 1.42953ZM15.5 20.25V6.91982L20.8955 20.25H15.5Z" fill="black"/>
</svg>
