<svg width="24" height="24" viewBox="0 0 24 24" fill="none" xmlns="http://www.w3.org/2000/svg">
<path fill-rule="evenodd" clip-rule="evenodd" d="M21.2231 2.00001L21.2 2.00001H14.8L14.7768 2.00001C14.6577 1.99996 14.5155 1.99991 14.3901 2.01015C14.2449 2.02201 14.0369 2.05245 13.819 2.1635C13.5367 2.30731 13.3073 2.53678 13.1635 2.81903C13.0524 3.03697 13.022 3.24496 13.0101 3.39018C12.9999 3.5155 12.9999 3.65775 13 3.77686L13 3.80001V10.2L13 10.2232C12.9999 10.3423 12.9999 10.4845 13.0101 10.6098C13.022 10.7551 13.0524 10.9631 13.1635 11.181C13.3073 11.4632 13.5367 11.6927 13.819 11.8365C14.0369 11.9476 14.2449 11.978 14.3901 11.9899C14.5155 12.0001 14.6577 12.0001 14.7768 12L14.8 12H21.2L21.2231 12C21.3422 12.0001 21.4845 12.0001 21.6098 11.9899C21.755 11.978 21.963 11.9476 22.181 11.8365C22.4632 11.6927 22.6927 11.4632 22.8365 11.181C22.9475 10.9631 22.978 10.7551 22.9898 10.6098C23.0001 10.4845 23 10.3423 23 10.2232L23 10.2V3.80001L23 3.77687V3.77685V3.77683C23 3.65772 23.0001 3.51548 22.9898 3.39018C22.978 3.24496 22.9475 3.03697 22.8365 2.81903C22.6927 2.53678 22.4632 2.30731 22.181 2.1635C21.963 2.05245 21.755 2.02201 21.6098 2.01015C21.4845 1.99991 21.3422 1.99996 21.2231 2.00001ZM21 4.00001V10H15V4.00001H21ZM9.22309 2.00002L9.19995 2.00002H2.79995L2.77681 2.00002C2.6577 1.99997 2.51544 1.99992 2.39012 2.01016C2.2449 2.02202 2.03691 2.05246 1.81897 2.16351C1.53672 2.30732 1.30725 2.53679 1.16344 2.81904C1.05239 3.03698 1.02195 3.24497 1.01008 3.39019C0.999845 3.51551 0.999899 3.65776 0.999945 3.77687L0.999951 3.80002V21.2L0.999945 21.2232C0.999899 21.3423 0.999845 21.4845 1.01008 21.6099C1.02195 21.7551 1.05239 21.9631 1.16344 22.181C1.30725 22.4633 1.53672 22.6927 1.81897 22.8365C2.03691 22.9476 2.2449 22.978 2.39012 22.9899C2.5154 23.0001 2.65761 23.0001 2.7767 23H2.7768L2.79995 23H9.19995L9.2231 23H9.2232C9.34229 23.0001 9.4845 23.0001 9.60978 22.9899C9.755 22.978 9.96299 22.9476 10.1809 22.8365C10.4632 22.6927 10.6927 22.4633 10.8365 22.181C10.9475 21.9631 10.978 21.7551 10.9898 21.6099C11.0001 21.4845 11 21.3423 11 21.2232L11 21.2V3.80002L11 3.77688C11 3.65777 11.0001 3.51551 10.9898 3.39019C10.978 3.24498 10.9475 3.03698 10.8365 2.81904C10.6927 2.53679 10.4632 2.30732 10.1809 2.16351C9.96299 2.05246 9.755 2.02202 9.60978 2.01016C9.48446 1.99992 9.34221 1.99997 9.22309 2.00002ZM8.99995 4.00002V21H2.99995V4.00002H8.99995ZM21.5 14C22.0523 14 22.5 14.4478 22.5 15.0001L22.5 17.1002V17.1362V17.1363C22.5 17.5253 22.5 17.8755 22.4762 18.1668C22.4507 18.4787 22.393 18.8102 22.2274 19.1351C21.9877 19.6055 21.6053 19.9879 21.1349 20.2276C20.81 20.3931 20.4785 20.4508 20.1666 20.4763C19.8752 20.5001 19.5251 20.5001 19.136 20.5001L19.1 20.5001H16.4855L17.1929 21.2074C17.5834 21.5979 17.5834 22.2311 17.1929 22.6216C16.8024 23.0121 16.1692 23.0121 15.7787 22.6216L13.3884 20.2314C12.9845 19.8275 12.9845 19.1726 13.3884 18.7688L15.7787 16.3785C16.1692 15.988 16.8024 15.988 17.1929 16.3785C17.5834 16.769 17.5834 17.4022 17.1929 17.7927L16.4855 18.5001H19.1C19.5365 18.5001 19.8037 18.4993 20.0037 18.4829C20.0968 18.4753 20.1532 18.4658 20.1874 18.4577C20.1924 18.4565 20.1969 18.4554 20.2007 18.4544C20.2094 18.452 20.2154 18.4501 20.2191 18.4487C20.2243 18.4469 20.2265 18.4458 20.2269 18.4456C20.321 18.3976 20.3975 18.3211 20.4454 18.2271L20.4454 18.227C20.4457 18.2266 20.4468 18.2244 20.4486 18.2193C20.4505 18.2139 20.4537 18.2038 20.4576 18.1876C20.4656 18.1533 20.4752 18.097 20.4828 18.0038C20.4992 17.8039 20.4999 17.5366 20.5 17.1001L20.5 15C20.5 14.4477 20.9478 14 21.5 14Z" fill="black"/>
</svg>
