<svg width="24" height="24" viewBox="0 0 24 24" fill="none" xmlns="http://www.w3.org/2000/svg">
<path fill-rule="evenodd" clip-rule="evenodd" d="M2.81974 13.9543C2.70585 13.6373 2.77853 13.2832 3.00809 13.0367C3.10633 12.9312 3.24573 12.8776 3.37909 12.8447C3.51823 12.8104 3.68971 12.7898 3.88884 12.7765C4.2851 12.7501 4.83736 12.7501 5.55556 12.7501L20.4701 12.7501C20.6435 12.75 20.7886 12.75 20.9073 12.7597C21.0311 12.7699 21.1479 12.7918 21.2586 12.8481C21.4279 12.9344 21.5656 13.0721 21.6519 13.2415C21.7083 13.3521 21.7302 13.4689 21.7403 13.5928C21.75 13.7114 21.75 13.8565 21.75 14.0299V20.4351C21.75 20.688 21.75 20.8949 21.7351 21.0585C21.7199 21.2252 21.6871 21.3825 21.5965 21.517C21.4623 21.7163 21.254 21.8536 21.018 21.8985C20.8587 21.9288 20.7011 21.897 20.542 21.8453C20.3858 21.7945 20.1956 21.713 19.9631 21.6134L5.04832 15.2213C4.3882 14.9384 3.88057 14.7209 3.52677 14.5405C3.34897 14.4498 3.19947 14.3634 3.08509 14.277C2.97547 14.1942 2.86848 14.09 2.81974 13.9543ZM3.37401 13.3775C3.27198 13.487 3.23968 13.6444 3.2903 13.7853C3.29022 13.7851 3.29011 13.785 3.2903 13.7853C3.29214 13.7886 3.30959 13.82 3.38635 13.878C3.46608 13.9381 3.58532 14.0091 3.75388 14.095C4.09097 14.2669 4.58313 14.478 5.2556 14.7662L20.1488 21.149C20.3952 21.2546 20.5645 21.3269 20.6965 21.3697C20.8281 21.4125 20.889 21.414 20.9247 21.4073C21.0296 21.3873 21.1221 21.3263 21.1818 21.2377C21.202 21.2077 21.2246 21.151 21.2372 21.0132C21.2497 20.875 21.25 20.691 21.25 20.4229V14.0401C21.25 13.8539 21.2498 13.7293 21.242 13.6335C21.2344 13.5406 21.2209 13.4969 21.2064 13.4685C21.168 13.3932 21.1069 13.332 21.0316 13.2936C21.0032 13.2792 20.9595 13.2657 20.8666 13.2581C20.7707 13.2502 20.6461 13.2501 20.46 13.2501L5.56679 13.2501C4.83517 13.2501 4.29965 13.2502 3.92212 13.2754C3.73333 13.288 3.59579 13.3062 3.4988 13.3301C3.40542 13.3532 3.37701 13.3751 3.37401 13.3775Z" fill="black"/>
<path fill-rule="evenodd" clip-rule="evenodd" d="M2.81974 10.0458C2.70585 10.3628 2.77853 10.7169 3.00809 10.9634C3.10633 11.0689 3.24573 11.1226 3.37909 11.1554C3.51823 11.1897 3.68971 11.2103 3.88884 11.2236C4.28509 11.2501 4.83736 11.2501 5.55556 11.2501L20.4701 11.2501C20.6435 11.2501 20.7886 11.2501 20.9073 11.2404C21.0311 11.2302 21.1479 11.2083 21.2586 11.152C21.4279 11.0657 21.5656 10.928 21.6519 10.7586C21.7083 10.648 21.7302 10.5312 21.7403 10.4073C21.75 10.2887 21.75 10.1436 21.75 9.9702V3.56504C21.75 3.31212 21.75 3.10517 21.7351 2.94157C21.7199 2.77492 21.6871 2.61758 21.5965 2.48306C21.4623 2.28381 21.254 2.14648 21.018 2.10163C20.8587 2.07135 20.7011 2.10313 20.542 2.15483C20.3857 2.20559 20.1955 2.28711 19.9631 2.38675L5.04832 8.77878C4.38819 9.06169 3.88057 9.27924 3.52677 9.45963C3.34897 9.55028 3.19947 9.63675 3.08509 9.7231C2.97547 9.80586 2.86848 9.9101 2.81974 10.0458ZM3.37401 10.6226C3.27198 10.5131 3.23968 10.3557 3.2903 10.2148C3.29022 10.215 3.29011 10.2151 3.2903 10.2148C3.29214 10.2115 3.30959 10.1801 3.38635 10.1221C3.46608 10.062 3.58532 9.99102 3.75388 9.90507C4.09097 9.73321 4.58313 9.52213 5.2556 9.23393L20.1488 2.85113C20.3952 2.74551 20.5645 2.67325 20.6965 2.63037C20.8281 2.58761 20.889 2.58606 20.9247 2.59284C21.0296 2.61277 21.1221 2.67381 21.1818 2.76236C21.202 2.79245 21.2246 2.84908 21.2372 2.9869C21.2497 3.12512 21.25 3.30913 21.25 3.57725V9.96005C21.25 10.1462 21.2498 10.2708 21.242 10.3666C21.2344 10.4595 21.2209 10.5032 21.2064 10.5316C21.168 10.6069 21.1069 10.6681 21.0316 10.7065C21.0032 10.7209 20.9595 10.7344 20.8666 10.742C20.7707 10.7499 20.6461 10.7501 20.46 10.7501L5.56679 10.7501C4.83517 10.7501 4.29965 10.7499 3.92212 10.7247C3.73333 10.7121 3.59579 10.6939 3.4988 10.67C3.40542 10.647 3.37701 10.625 3.37401 10.6226C3.37371 10.6224 3.37384 10.6225 3.37401 10.6226Z" fill="black"/>
</svg>
