<svg width="24" height="24" viewBox="0 0 24 24" fill="none" xmlns="http://www.w3.org/2000/svg">
<path fill-rule="evenodd" clip-rule="evenodd" d="M13.5652 1.77996C14.051 1.33306 14.747 1.19755 15.365 1.42953C15.7716 1.58217 16.0043 1.88202 16.1023 2.01895C16.2209 2.18471 16.318 2.36931 16.3965 2.53234C16.5501 2.85076 16.7277 3.28957 16.9333 3.79778L23.4759 19.9617C23.5391 20.1178 23.6146 20.3039 23.665 20.4704C23.7197 20.6512 23.8 20.9734 23.7226 21.3511C23.6299 21.8039 23.3618 22.2016 22.9769 22.4574C22.6559 22.6708 22.3271 22.7173 22.139 22.7344C21.9657 22.7501 21.7649 22.75 21.5966 22.75L15.0249 22.75C14.9081 22.75 14.7559 22.7501 14.6198 22.739C14.4591 22.7259 14.2146 22.6912 13.9555 22.5592C13.6262 22.3914 13.3585 22.1237 13.1907 21.7944C13.0587 21.5354 13.0241 21.2908 13.011 21.1302C12.9998 20.9941 12.9999 20.8418 13 20.7251L13 4.56364C13 4.01539 13 3.54199 13.0228 3.18924C13.0345 3.00863 13.0552 2.80111 13.1029 2.60296C13.1424 2.43926 13.2456 2.07402 13.5652 1.77996ZM15.5 6.91982V20.25H20.8955L15.5 6.91982Z" fill="black"/>
<path d="M10.4348 1.77996C9.94896 1.33306 9.253 1.19755 8.635 1.42953C8.22837 1.58217 7.99568 1.88202 7.89769 2.01895C7.77908 2.18471 7.68205 2.36931 7.60345 2.53234C7.44994 2.85075 7.27234 3.28957 7.06666 3.79777L0.524102 19.9617C0.460863 20.1178 0.385439 20.3039 0.335004 20.4704C0.280265 20.6512 0.200025 20.9734 0.277373 21.3511C0.370104 21.8039 0.638175 22.2016 1.02307 22.4574C1.34412 22.6708 1.67294 22.7173 1.86103 22.7344C2.03433 22.7501 2.23506 22.75 2.40343 22.75L8.97514 22.75C9.09186 22.75 9.24411 22.7501 9.38019 22.739C9.54086 22.7259 9.78542 22.6912 10.0445 22.5592C10.3738 22.3914 10.6415 22.1237 10.8093 21.7944C10.9413 21.5354 10.9759 21.2908 10.989 21.1302C11.0002 20.9941 11.0001 20.8418 11 20.7251L11 4.56364C11 4.01539 11 3.54199 10.9772 3.18924C10.9655 3.00863 10.9448 2.80111 10.8971 2.60296C10.8576 2.43926 10.7544 2.07402 10.4348 1.77996Z" fill="black"/>
</svg>
