<svg width="24" height="24" viewBox="0 0 24 24" fill="none" xmlns="http://www.w3.org/2000/svg">
<path fill-rule="evenodd" clip-rule="evenodd" d="M21.2202 22.75H14.5298C14.4076 22.7501 14.2751 22.7501 14.1605 22.7407C14.0307 22.7301 13.8593 22.7039 13.6825 22.6138C13.4473 22.4939 13.2561 22.3027 13.1362 22.0675C13.0461 21.8907 13.0199 21.7193 13.0093 21.5895C12.9999 21.4749 12.9999 21.3424 13 21.2203V14.5298C12.9999 14.4077 12.9999 14.2752 13.0093 14.1606C13.0199 14.0308 13.0461 13.8594 13.1362 13.6825C13.2561 13.4473 13.4473 13.2561 13.6825 13.1363C13.8593 13.0462 14.0307 13.0199 14.1605 13.0093C14.2751 13 14.4076 13 14.5297 13H21.2202C21.3423 13 21.4748 13 21.5894 13.0093C21.7192 13.0199 21.8906 13.0462 22.0675 13.1363C22.3027 13.2561 22.4939 13.4473 22.6137 13.6825C22.7038 13.8594 22.7301 14.0308 22.7407 14.1606C22.75 14.2752 22.75 14.4077 22.75 14.5298V21.2202C22.75 21.3424 22.75 21.4749 22.7407 21.5895C22.7301 21.7193 22.7038 21.8907 22.6137 22.0675C22.4939 22.3027 22.3027 22.4939 22.0675 22.6138C21.8906 22.7039 21.7192 22.7301 21.5894 22.7407C21.4748 22.7501 21.3424 22.7501 21.2202 22.75ZM21.25 21.25V14.5H14.5L14.5 21.25H21.25Z" fill="black"/>
<path fill-rule="evenodd" clip-rule="evenodd" d="M9.47016 22.75H2.77973C2.65761 22.75 2.52507 22.7501 2.41047 22.7407C2.28072 22.7301 2.10929 22.7039 1.93246 22.6138C1.69726 22.4939 1.50603 22.3027 1.38619 22.0675C1.29609 21.8907 1.26985 21.7192 1.25925 21.5895C1.24988 21.4748 1.24991 21.3424 1.24994 21.2203L1.24994 3.77978C1.24991 3.65763 1.24988 3.52517 1.25925 3.41053C1.26985 3.28078 1.29609 3.10935 1.38619 2.93252C1.50603 2.69732 1.69726 2.50609 1.93246 2.38625C2.10929 2.29615 2.28072 2.26991 2.41047 2.25931C2.5251 2.24994 2.65752 2.24997 2.77966 2.25H9.47017C9.59232 2.24997 9.72479 2.24994 9.83942 2.25931C9.96918 2.26991 10.1406 2.29615 10.3174 2.38625C10.5526 2.50609 10.7439 2.69732 10.8637 2.93252C10.9538 3.10935 10.98 3.28078 10.9906 3.41053C11 3.52518 11 3.65763 10.9999 3.77979V21.2202C11 21.3424 11 21.4748 10.9906 21.5895C10.98 21.7192 10.9538 21.8907 10.8637 22.0675C10.7439 22.3027 10.5526 22.4939 10.3174 22.6138C10.1406 22.7039 9.96918 22.7301 9.83942 22.7407C9.72482 22.7501 9.59228 22.75 9.47016 22.75ZM9.49993 21.25V3.75002H2.74996L2.74996 21.25H9.49993Z" fill="black"/>
<path d="M21.5 10.75C21.9142 10.75 22.25 10.4142 22.25 10L22.25 7.87096C22.25 7.47562 22.25 7.13457 22.227 6.85365C22.2028 6.55715 22.1493 6.26224 22.0047 5.97847C21.789 5.55512 21.4447 5.21092 21.0214 4.99521C20.7376 4.85062 20.4427 4.79714 20.1462 4.77291C19.8653 4.74996 19.5242 4.74997 19.1289 4.74998L15.882 4.74999L17.0161 3.61587C17.309 3.32297 17.309 2.8481 17.0161 2.55521C16.7232 2.26231 16.2483 2.26231 15.9554 2.55521L13.5652 4.94546C13.2589 5.25172 13.2589 5.74826 13.5652 6.05451L15.9554 8.44477C16.2483 8.73766 16.7232 8.73766 17.0161 8.44477C17.309 8.15187 17.309 7.677 17.0161 7.38411L15.882 6.24999H19.1C19.5324 6.24999 19.8116 6.25057 20.0241 6.26793C20.2278 6.28458 20.3033 6.31283 20.3404 6.33173C20.4815 6.40363 20.5963 6.51836 20.6682 6.65948C20.6871 6.69656 20.7153 6.7721 20.732 6.97584C20.7493 7.18834 20.7499 7.46754 20.75 7.89994L20.75 10C20.75 10.4143 21.0858 10.75 21.5 10.75Z" fill="black"/>
</svg>
