<svg width="24" height="24" viewBox="0 0 24 24" fill="none" xmlns="http://www.w3.org/2000/svg">
<path d="M21.2251 23.25C21.3418 23.2501 21.494 23.2502 21.6301 23.2391C21.7908 23.2259 22.0354 23.1913 22.2944 23.0593C22.6237 22.8915 22.8914 22.6238 23.0592 22.2945C23.1912 22.0354 23.2258 21.7909 23.239 21.6302C23.2501 21.4941 23.25 21.3419 23.2499 21.2252V15.2749C23.25 15.1582 23.2501 15.0059 23.239 14.8698C23.2258 14.7092 23.1912 14.4646 23.0592 14.2055C22.8914 13.8763 22.6237 13.6085 22.2944 13.4408C22.0354 13.3088 21.7908 13.2741 21.6301 13.261C21.4941 13.2499 21.3418 13.25 21.2251 13.25H15.2748C15.1581 13.25 15.0058 13.2499 14.8697 13.261C14.7091 13.2741 14.4645 13.3088 14.2055 13.4408C13.8762 13.6085 13.6085 13.8763 13.4407 14.2055C13.3087 14.4646 13.274 14.7092 13.2609 14.8698C13.2498 15.0059 13.2499 15.1582 13.2499 15.2749V21.2251C13.2499 21.3419 13.2498 21.4941 13.2609 21.6302C13.274 21.7909 13.3087 22.0354 13.4407 22.2945C13.6085 22.6238 13.8762 22.8915 14.2055 23.0593C14.4645 23.1913 14.7091 23.2259 14.8697 23.2391C15.0058 23.2502 15.1581 23.2501 15.2748 23.25H21.2251Z" fill="black"/>
<path fill-rule="evenodd" clip-rule="evenodd" d="M8.72503 23.25C8.84174 23.2501 8.994 23.2502 9.13009 23.2391C9.29076 23.2259 9.53532 23.1913 9.79438 23.0593C10.1237 22.8915 10.3914 22.6238 10.5592 22.2945C10.6912 22.0354 10.7258 21.7909 10.7389 21.6302C10.7501 21.4941 10.75 21.3419 10.7499 21.2252L10.7499 3.77489C10.75 3.65817 10.7501 3.50592 10.7389 3.36983C10.7258 3.20915 10.6912 2.9646 10.5592 2.70553C10.3914 2.37625 10.1237 2.10853 9.79438 1.94076C9.53532 1.80876 9.29076 1.77411 9.13009 1.76098C8.994 1.74986 8.84175 1.74995 8.72504 1.75001H2.77476C2.65804 1.74995 2.50579 1.74986 2.36971 1.76098C2.20903 1.77411 1.96448 1.80876 1.70541 1.94076C1.37613 2.10853 1.10841 2.37625 0.940636 2.70553C0.808637 2.9646 0.773989 3.20915 0.760861 3.36983C0.749743 3.50591 0.749825 3.65815 0.749888 3.77487L0.749888 21.2251C0.749825 21.3419 0.749743 21.4941 0.760861 21.6302C0.773989 21.7909 0.808637 22.0354 0.940636 22.2945C1.10841 22.6238 1.37613 22.8915 1.70541 23.0593C1.96448 23.1913 2.20903 23.2259 2.36971 23.2391C2.5058 23.2502 2.65805 23.2501 2.77477 23.25H8.72503ZM8.2499 4.25002V20.75H3.2499V4.25002H8.2499Z" fill="black"/>
<path d="M21.5 11.25C22.1904 11.25 22.75 10.6903 22.75 9.99998L22.7499 7.85753C22.7499 7.47401 22.75 7.11467 22.7253 6.81292C22.6985 6.4855 22.6366 6.11747 22.4501 5.75146C22.1865 5.23403 21.7658 4.81335 21.2483 4.54971C20.8823 4.36322 20.5143 4.30132 20.1869 4.27457C19.8851 4.24992 19.5258 4.24995 19.1423 4.24998L17.0891 4.24998L17.3696 3.96942C17.8578 3.48126 17.8578 2.68981 17.3696 2.20165C16.8815 1.7135 16.09 1.7135 15.6019 2.20165L13.2116 4.5919C12.7101 5.09342 12.7101 5.90655 13.2116 6.40807L15.6019 8.79832C16.09 9.28647 16.8815 9.28647 17.3696 8.79832C17.8578 8.31016 17.8578 7.5187 17.3696 7.03055L17.0891 6.74998H19.0999C19.5406 6.74998 19.7959 6.75096 19.9833 6.76627C20.0659 6.77301 20.1095 6.78107 20.1277 6.78513C20.1635 6.80643 20.1934 6.83635 20.2147 6.87216C20.2188 6.89033 20.2269 6.934 20.2336 7.01657C20.2489 7.20398 20.2499 7.4593 20.2499 7.89995L20.25 10.0001C20.25 10.6904 20.8097 11.25 21.5 11.25Z" fill="black"/>
</svg>
