<svg width="24" height="24" viewBox="0 0 24 24" fill="none" xmlns="http://www.w3.org/2000/svg">
<path d="M2.02115 13.148C1.70231 13.4904 1.60137 13.9821 1.75955 14.4224C1.85243 14.681 2.04013 14.8424 2.15249 14.9272C2.27912 15.0228 2.42789 15.1066 2.57495 15.1816C2.86383 15.3289 3.26829 15.5022 3.75934 15.7127L20.1134 22.7215C20.2785 22.7924 20.4458 22.8641 20.5907 22.9112C20.7439 22.9609 20.9728 23.0191 21.2334 22.9696C21.5611 22.9073 21.8504 22.7165 22.0368 22.4398C22.1849 22.2198 22.2216 21.9865 22.2362 21.8261C22.25 21.6744 22.25 21.4924 22.25 21.3127V14.2796C22.25 14.1574 22.25 14.025 22.2407 13.9103C22.2301 13.7806 22.2038 13.6092 22.1137 13.4323C21.9939 13.1971 21.8027 13.0059 21.5675 12.8861C21.3906 12.796 21.2192 12.7697 21.0895 12.7591C20.9748 12.7498 20.8424 12.7498 20.7202 12.7498L4.36749 12.7498C3.83327 12.7498 3.3932 12.7498 3.06966 12.7714C2.90496 12.7824 2.73519 12.8008 2.58114 12.8388C2.44446 12.8725 2.20835 12.9469 2.02115 13.148Z" fill="black"/>
<path fill-rule="evenodd" clip-rule="evenodd" d="M2.02115 10.8517C1.70231 10.5093 1.60137 10.0175 1.75955 9.5772C1.85243 9.31867 2.04013 9.15728 2.15249 9.07246C2.27912 8.97686 2.42789 8.89302 2.57495 8.81804C2.86383 8.67075 3.26829 8.49742 3.75934 8.28697L20.1134 1.2781C20.2785 1.20728 20.4458 1.13556 20.5907 1.08847C20.7439 1.03873 20.9728 0.980557 21.2334 1.03007C21.5611 1.09237 21.8504 1.2831 22.0368 1.55983C22.1849 1.7798 22.2216 2.01316 22.2362 2.1735C22.25 2.32528 22.25 2.50725 22.25 2.68695V9.72005C22.25 9.84219 22.25 9.97467 22.2407 10.0893C22.2301 10.2191 22.2038 10.3905 22.1137 10.5673C21.9939 10.8025 21.8027 10.9937 21.5675 11.1136C21.3906 11.2037 21.2192 11.2299 21.0895 11.2405C20.9748 11.2499 20.8424 11.2499 20.7202 11.2498L4.36749 11.2498C3.83327 11.2498 3.3932 11.2498 3.06966 11.2283C2.90496 11.2173 2.73519 11.1988 2.58114 11.1608C2.44446 11.1271 2.20835 11.0527 2.02115 10.8517ZM4.15433 9.74974L20.75 2.63726L20.75 9.74981L4.15433 9.74974ZM21.0844 2.50649L21.0808 2.50726C21.0833 2.50666 21.0844 2.50644 21.0844 2.50649ZM20.7391 2.28194L20.7384 2.27833C20.7384 2.2783 20.7387 2.27945 20.7391 2.28194Z" fill="black"/>
</svg>
