<svg width="24" height="24" viewBox="0 0 24 24" fill="none" xmlns="http://www.w3.org/2000/svg">
<path fill-rule="evenodd" clip-rule="evenodd" d="M9.46 2.5H9.47735C9.64444 2.49999 9.79862 2.49998 9.92764 2.51052C10.0669 2.5219 10.2203 2.54802 10.3721 2.62534C10.5885 2.7356 10.7644 2.91153 10.8747 3.12791C10.952 3.27967 10.9781 3.43306 10.9895 3.57237C11 3.70139 11 3.85556 11 4.02265L11 4.04V20.96L11 20.9773C11 21.1444 11 21.2986 10.9895 21.4276C10.9781 21.5669 10.952 21.7203 10.8747 21.8721C10.7644 22.0885 10.5885 22.2644 10.3721 22.3747C10.2203 22.452 10.0669 22.4781 9.92764 22.4895C9.79862 22.5 9.64445 22.5 9.47736 22.5H9.46H3.04H3.02264C2.85555 22.5 2.70138 22.5 2.57237 22.4895C2.43306 22.4781 2.27967 22.452 2.12791 22.3747C1.91153 22.2644 1.7356 22.0885 1.62534 21.8721C1.54802 21.7203 1.5219 21.5669 1.51052 21.4276C1.49998 21.2986 1.49999 21.1444 1.5 20.9773V20.96V4.04V4.02268C1.49999 3.85558 1.49998 3.70139 1.51052 3.57237C1.5219 3.43306 1.54802 3.27967 1.62534 3.12791C1.7356 2.91153 1.91153 2.7356 2.12791 2.62534C2.27967 2.54802 2.43306 2.5219 2.57237 2.51052C2.70138 2.49998 2.85556 2.49999 3.02265 2.5H3.04H9.46ZM9.98214 3.57902C9.96821 3.55307 9.94693 3.5318 9.92098 3.51786C9.91469 3.51606 9.89362 3.51107 9.8462 3.5072C9.7629 3.50039 9.65027 3.5 9.46 3.5H3.04C2.84973 3.5 2.7371 3.50039 2.6538 3.5072C2.60639 3.51107 2.58532 3.51606 2.57902 3.51786C2.55307 3.5318 2.5318 3.55307 2.51786 3.57902C2.51606 3.58532 2.51107 3.60639 2.5072 3.6538C2.50039 3.73711 2.5 3.84974 2.5 4.04V20.96C2.5 21.1503 2.50039 21.2629 2.5072 21.3462C2.51107 21.3936 2.51606 21.4147 2.51786 21.421C2.5318 21.4469 2.55307 21.4682 2.57902 21.4821C2.58532 21.4839 2.60639 21.4889 2.6538 21.4928C2.7371 21.4996 2.84974 21.5 3.04 21.5H9.46C9.65027 21.5 9.7629 21.4996 9.8462 21.4928C9.89361 21.4889 9.91468 21.4839 9.92098 21.4821C9.94693 21.4682 9.96821 21.4469 9.98214 21.421C9.98395 21.4147 9.98893 21.3936 9.99281 21.3462C9.99961 21.2629 10 21.1503 10 20.96V4.04C10 3.84973 9.99961 3.7371 9.99281 3.6538C9.98893 3.60639 9.98395 3.58532 9.98214 3.57902ZM20.96 2.50001L20.9774 2.50001C21.1444 2.49999 21.2986 2.49998 21.4276 2.51052C21.5669 2.52191 21.7203 2.54803 21.8721 2.62535C22.0885 2.7356 22.2644 2.91153 22.3747 3.12792C22.452 3.27967 22.4781 3.43306 22.4895 3.57237C22.5 3.70139 22.5 3.85557 22.5 4.02266V4.04001V10.46V10.4774C22.5 10.6445 22.5 10.7986 22.4895 10.9276C22.4781 11.067 22.452 11.2203 22.3747 11.3721C22.2644 11.5885 22.0885 11.7644 21.8721 11.8747C21.7203 11.952 21.5669 11.9781 21.4276 11.9895C21.2986 12 21.1444 12 20.9774 12H20.96H14.54H14.5226C14.3556 12 14.2014 12 14.0724 11.9895C13.9331 11.9781 13.7797 11.952 13.6279 11.8747C13.4115 11.7644 13.2356 11.5885 13.1253 11.3721C13.048 11.2203 13.0219 11.067 13.0105 10.9276C13 10.7986 13 10.6445 13 10.4774V10.46V4.04001V4.02265C13 3.85556 13 3.70139 13.0105 3.57237C13.0219 3.43306 13.048 3.27967 13.1253 3.12792C13.2356 2.91153 13.4115 2.7356 13.6279 2.62535C13.7797 2.54803 13.9331 2.52191 14.0724 2.51052C14.2014 2.49998 14.3556 2.49999 14.5226 2.50001L14.54 2.50001H20.96ZM21.5 14.5C21.7761 14.5 22 14.7239 22 15L21.9999 17.1001V17.1208C21.9999 17.5232 21.9999 17.8554 21.9778 18.126C21.9548 18.4071 21.9055 18.6654 21.7819 18.9081C21.5901 19.2844 21.2842 19.5903 20.9078 19.7821C20.6652 19.9057 20.4068 19.955 20.1258 19.9779C19.8552 20.0001 19.523 20 19.1206 20H19.1205H19.0999H15.2784L16.8393 21.5609C17.0345 21.7562 17.0345 22.0728 16.8393 22.268C16.644 22.4633 16.3274 22.4633 16.1322 22.268L13.7419 19.8778C13.5333 19.6692 13.5333 19.3309 13.7419 19.1223L16.1322 16.732C16.3274 16.5368 16.644 16.5368 16.8393 16.732C17.0345 16.9273 17.0345 17.2439 16.8393 17.4391L15.2784 19H19.0999C19.5282 19 19.8193 18.9997 20.0444 18.9813C20.2636 18.9634 20.3757 18.9309 20.4539 18.8911C20.642 18.7952 20.795 18.6422 20.8909 18.454C20.9307 18.3759 20.9632 18.2638 20.9811 18.0446C20.9995 17.8195 20.9999 17.5284 20.9999 17.1001L21 15C21 14.7239 21.2238 14.5 21.5 14.5Z" fill="black"/>
</svg>
