<svg width="24" height="24" viewBox="0 0 24 24" fill="none" xmlns="http://www.w3.org/2000/svg">
<path fill-rule="evenodd" clip-rule="evenodd" d="M9.47735 2.5H9.46H3.04H3.02265C2.85556 2.49999 2.70138 2.49998 2.57237 2.51052C2.43306 2.5219 2.27967 2.54802 2.12791 2.62534C1.91153 2.7356 1.7356 2.91153 1.62534 3.12791C1.54802 3.27967 1.5219 3.43306 1.51052 3.57237C1.49998 3.70139 1.49999 3.85558 1.5 4.02268V4.04V20.96V20.9773C1.49999 21.1444 1.49998 21.2986 1.51052 21.4276C1.5219 21.5669 1.54802 21.7203 1.62534 21.8721C1.7356 22.0885 1.91153 22.2644 2.12791 22.3747C2.27967 22.452 2.43306 22.4781 2.57237 22.4895C2.70138 22.5 2.85555 22.5 3.02264 22.5H3.04H9.46H9.47736C9.64445 22.5 9.79862 22.5 9.92764 22.4895C10.0669 22.4781 10.2203 22.452 10.3721 22.3747C10.5885 22.2644 10.7644 22.0885 10.8747 21.8721C10.952 21.7203 10.9781 21.5669 10.9895 21.4276C11 21.2986 11 21.1444 11 20.9773L11 20.96V4.04L11 4.02265C11 3.85556 11 3.70139 10.9895 3.57237C10.9781 3.43306 10.952 3.27967 10.8747 3.12791C10.7644 2.91153 10.5885 2.7356 10.3721 2.62534C10.2203 2.54802 10.0669 2.5219 9.92764 2.51052C9.79862 2.49998 9.64444 2.49999 9.47735 2.5ZM9.92098 3.51786C9.94693 3.5318 9.96821 3.55307 9.98214 3.57902C9.98395 3.58532 9.98893 3.60639 9.99281 3.6538C9.99961 3.7371 10 3.84973 10 4.04V20.96C10 21.1503 9.99961 21.2629 9.99281 21.3462C9.98893 21.3936 9.98395 21.4147 9.98214 21.421C9.96821 21.4469 9.94693 21.4682 9.92098 21.4821C9.91468 21.4839 9.89361 21.4889 9.8462 21.4928C9.7629 21.4996 9.65027 21.5 9.46 21.5H3.04C2.84974 21.5 2.7371 21.4996 2.6538 21.4928C2.60639 21.4889 2.58532 21.4839 2.57902 21.4821C2.55307 21.4682 2.5318 21.4469 2.51786 21.421C2.51606 21.4147 2.51107 21.3936 2.5072 21.3462C2.50039 21.2629 2.5 21.1503 2.5 20.96V4.04C2.5 3.84974 2.50039 3.73711 2.5072 3.6538C2.51107 3.60639 2.51606 3.58532 2.51786 3.57902C2.5318 3.55307 2.55307 3.5318 2.57902 3.51786C2.58532 3.51606 2.60639 3.51107 2.6538 3.5072C2.7371 3.50039 2.84973 3.5 3.04 3.5H9.46C9.65027 3.5 9.7629 3.50039 9.8462 3.5072C9.89362 3.51107 9.91469 3.51606 9.92098 3.51786ZM20.9774 2.50001L20.96 2.50001H14.54L14.5226 2.50001C14.3556 2.49999 14.2014 2.49998 14.0724 2.51052C13.9331 2.52191 13.7797 2.54803 13.6279 2.62535C13.4115 2.7356 13.2356 2.91153 13.1253 3.12792C13.048 3.27967 13.0219 3.43306 13.0105 3.57237C13 3.7014 13 3.85558 13 4.02268V4.04001V10.46V10.4773C13 10.6444 13 10.7986 13.0105 10.9276C13.0219 11.067 13.048 11.2203 13.1253 11.3721C13.2356 11.5885 13.4115 11.7644 13.6279 11.8747C13.7797 11.952 13.9331 11.9781 14.0724 11.9895C14.2014 12 14.3556 12 14.5226 12H14.54H20.96H20.9774C21.1444 12 21.2986 12 21.4276 11.9895C21.5669 11.9781 21.7203 11.952 21.8721 11.8747C22.0885 11.7644 22.2644 11.5885 22.3747 11.3721C22.452 11.2203 22.4781 11.067 22.4895 10.9276C22.5 10.7986 22.5 10.6445 22.5 10.4774V10.46V4.04001V4.02266C22.5 3.85557 22.5 3.70139 22.4895 3.57237C22.4781 3.43306 22.452 3.27967 22.3747 3.12792C22.2644 2.91153 22.0885 2.7356 21.8721 2.62535C21.7203 2.54803 21.5669 2.52191 21.4276 2.51052C21.2986 2.49998 21.1444 2.49999 20.9774 2.50001ZM21.421 3.51786C21.4469 3.5318 21.4682 3.55308 21.4821 3.57903C21.4839 3.58532 21.4889 3.60639 21.4928 3.6538C21.4996 3.73711 21.5 3.84974 21.5 4.04001V10.46C21.5 10.6503 21.4996 10.7629 21.4928 10.8462C21.4889 10.8936 21.4839 10.9147 21.4821 10.921C21.4682 10.9469 21.4469 10.9682 21.421 10.9821C21.4147 10.984 21.3936 10.9889 21.3462 10.9928C21.2629 10.9996 21.1503 11 20.96 11H14.54C14.3497 11 14.2371 10.9996 14.1538 10.9928C14.1064 10.9889 14.0853 10.984 14.079 10.9821C14.0531 10.9682 14.0318 10.9469 14.0179 10.921C14.0161 10.9147 14.0111 10.8936 14.0072 10.8462C14.0004 10.7629 14 10.6503 14 10.46V4.04001C14 3.84974 14.0004 3.73711 14.0072 3.6538C14.0111 3.6064 14.0161 3.58533 14.0179 3.57903C14.0318 3.55308 14.0531 3.5318 14.079 3.51786C14.0853 3.51606 14.1064 3.51108 14.1538 3.5072C14.2371 3.5004 14.3497 3.50001 14.54 3.50001H20.96C21.1503 3.50001 21.2629 3.5004 21.3462 3.5072C21.3936 3.51108 21.4147 3.51606 21.421 3.51786ZM21.5 14.5C21.7761 14.5 22 14.7239 22 15L21.9999 17.1001V17.1208C21.9999 17.5232 21.9999 17.8554 21.9778 18.126C21.9548 18.4071 21.9055 18.6654 21.7819 18.9081C21.5901 19.2844 21.2842 19.5903 20.9078 19.7821C20.6652 19.9057 20.4068 19.955 20.1258 19.9779C19.8552 20.0001 19.523 20 19.1206 20H19.1205H19.0999H15.2784L16.8393 21.5609C17.0345 21.7562 17.0345 22.0728 16.8393 22.268C16.644 22.4633 16.3274 22.4633 16.1322 22.268L13.7419 19.8778C13.5333 19.6692 13.5333 19.3309 13.7419 19.1223L16.1322 16.732C16.3274 16.5368 16.644 16.5368 16.8393 16.732C17.0345 16.9273 17.0345 17.2439 16.8393 17.4391L15.2784 19H19.0999C19.5282 19 19.8193 18.9997 20.0444 18.9813C20.2636 18.9634 20.3757 18.9309 20.4539 18.8911C20.642 18.7952 20.795 18.6422 20.8909 18.454C20.9307 18.3759 20.9632 18.2638 20.9811 18.0446C20.9995 17.8195 20.9999 17.5284 20.9999 17.1001L21 15C21 14.7239 21.2238 14.5 21.5 14.5Z" fill="black"/>
</svg>
