<svg width="24" height="24" viewBox="0 0 24 24" fill="none" xmlns="http://www.w3.org/2000/svg">
<path d="M12.2497 8.24313L10.8244 11.2719H13.675L12.2497 8.24313Z" fill="black"/>
<path fill-rule="evenodd" clip-rule="evenodd" d="M17.7222 2.75H6.2778C5.45653 2.75 4.80954 2.74999 4.28889 2.79253C3.75771 2.83593 3.31413 2.92609 2.91103 3.13148C2.25246 3.46703 1.71704 4.00247 1.38148 4.66103C1.17609 5.06413 1.08593 5.50771 1.04253 6.03889C0.999994 6.55954 0.999996 7.20652 1 8.02778V12.4722C0.999996 13.2935 0.999994 13.9405 1.04253 14.4611C1.08593 14.9923 1.17609 15.4359 1.38148 15.839C1.71704 16.4975 2.25246 17.033 2.91103 17.3685C3.31413 17.5739 3.75771 17.6641 4.28889 17.7075C4.80366 17.7495 5.44191 17.75 6.25 17.75V21.5529C6.24998 21.6881 6.24996 21.821 6.25944 21.928C6.2679 22.0234 6.29008 22.2201 6.4297 22.3835C6.58561 22.5661 6.81951 22.663 7.05884 22.6441C7.27316 22.6273 7.42788 22.5039 7.50135 22.4424C7.58369 22.3735 7.67761 22.2795 7.77316 22.184L12.2071 17.75H17.7222C18.5435 17.75 19.1905 17.75 19.7111 17.7075C20.2423 17.6641 20.6859 17.5739 21.089 17.3685C21.7475 17.033 22.283 16.4975 22.6185 15.839C22.8239 15.4359 22.9141 14.9923 22.9575 14.4611C23 13.9405 23 13.2935 23 12.4722V8.02779C23 7.20653 23 6.55954 22.9575 6.03889C22.9141 5.50771 22.8239 5.06414 22.6185 4.66103C22.283 4.00247 21.7475 3.46703 21.089 3.13148C20.6859 2.92609 20.2423 2.83593 19.7111 2.79253C19.1905 2.74999 18.5435 2.75 17.7222 2.75ZM12.2497 6.56886C12.4434 6.56886 12.6197 6.68072 12.7021 6.85596L15.883 13.6153C16.0006 13.8652 15.8934 14.1631 15.6435 14.2807C15.3936 14.3982 15.0958 14.291 14.9782 14.0411L14.1456 12.2719H10.3539L9.52124 14.0411C9.40366 14.291 9.10579 14.3982 8.85593 14.2807C8.60608 14.1631 8.49884 13.8652 8.61642 13.6153L11.7973 6.85596C11.8798 6.68072 12.056 6.56886 12.2497 6.56886Z" fill="black"/>
</svg>
