<svg width="24" height="24" viewBox="0 0 24 24" fill="none" xmlns="http://www.w3.org/2000/svg">
<path fill-rule="evenodd" clip-rule="evenodd" d="M12.25 6.31886C12.5405 6.31886 12.8049 6.48664 12.9286 6.74951L16.1095 13.5089C16.2859 13.8837 16.125 14.3305 15.7502 14.5069C15.3754 14.6832 14.9286 14.5224 14.7523 14.1476L13.9872 12.5218H10.5128L9.74773 14.1476C9.57136 14.5224 9.12455 14.6832 8.74977 14.5069C8.37498 14.3305 8.21413 13.8837 8.3905 13.5089L11.5714 6.74951C11.6951 6.48664 11.9595 6.31886 12.25 6.31886ZM12.25 8.83026L11.2187 11.0218H13.2813L12.25 8.83026Z" fill="black"/>
<path fill-rule="evenodd" clip-rule="evenodd" d="M17.7321 2.5C18.5449 2.49999 19.2006 2.49999 19.7315 2.54336C20.2781 2.58803 20.7582 2.68239 21.2025 2.90873C21.9081 3.26825 22.4817 3.84193 22.8413 4.54754C23.0676 4.99175 23.162 5.4719 23.2066 6.01853C23.25 6.54944 23.25 7.20505 23.25 8.01788V12.4821C23.25 13.2949 23.25 13.9506 23.2066 14.4815C23.162 15.0281 23.0676 15.5082 22.8413 15.9525C22.4817 16.6581 21.9081 17.2317 21.2025 17.5913C20.7582 17.8176 20.2781 17.912 19.7315 17.9566C19.2006 18 18.545 18 17.7321 18H12.3107L7.94666 22.364C7.85438 22.4563 7.75302 22.5578 7.66184 22.6341C7.58415 22.6991 7.37695 22.8699 7.07846 22.8934C6.75934 22.9185 6.44748 22.7893 6.23959 22.5459C6.04514 22.3182 6.01936 22.051 6.01041 21.9501C5.99992 21.8316 5.99996 21.6883 6 21.5577L6 17.9999C5.3094 17.9995 4.73983 17.9951 4.26853 17.9566C3.7219 17.912 3.24175 17.8176 2.79754 17.5913C2.09193 17.2317 1.51825 16.6581 1.15873 15.9525C0.932385 15.5082 0.838026 15.0281 0.793364 14.4815C0.749987 13.9506 0.749993 13.295 0.75 12.4821V8.01788C0.749993 7.20505 0.749987 6.54944 0.793364 6.01853C0.838026 5.4719 0.932385 4.99175 1.15873 4.54754C1.51825 3.84193 2.09193 3.26825 2.79754 2.90873C3.24175 2.68239 3.7219 2.58803 4.26853 2.54336C4.79944 2.49999 5.45506 2.49999 6.26789 2.5H17.7321ZM20.5215 4.24524C20.324 4.1446 20.0632 4.07547 19.6093 4.03838C19.1467 4.00058 18.5525 4 17.7 4H6.3C5.44755 4 4.85331 4.00058 4.39068 4.03838C3.9368 4.07547 3.67604 4.1446 3.47852 4.24524C3.05516 4.46095 2.71095 4.80516 2.49524 5.22852C2.3946 5.42604 2.32546 5.68681 2.28838 6.14068C2.25058 6.60331 2.25 7.19755 2.25 8.05V12.45C2.25 13.3025 2.25058 13.8967 2.28838 14.3593C2.32546 14.8132 2.3946 15.074 2.49524 15.2715C2.71095 15.6948 3.05516 16.0391 3.47852 16.2548C3.67604 16.3554 3.9368 16.4245 4.39068 16.4616C4.85331 16.4994 5.44755 16.5 6.3 16.5L6.36323 16.5C6.4206 16.5 6.50181 16.4999 6.57527 16.5059C6.66334 16.5131 6.8039 16.5325 6.95399 16.609C7.14215 16.7049 7.29513 16.8578 7.39101 17.046C7.46748 17.1961 7.48691 17.3367 7.4941 17.4247C7.50011 17.4982 7.50005 17.5794 7.50001 17.6368L7.5 20.6893L11.3525 16.8368L11.3588 16.8304C11.3866 16.802 11.4728 16.7137 11.5811 16.6474C11.6705 16.5925 11.7681 16.5521 11.8701 16.5276C11.9936 16.498 12.117 16.4994 12.1567 16.4999L12.1657 16.5H17.7C18.5525 16.5 19.1467 16.4994 19.6093 16.4616C20.0632 16.4245 20.324 16.3554 20.5215 16.2548C20.9448 16.0391 21.289 15.6948 21.5048 15.2715C21.6054 15.074 21.6745 14.8132 21.7116 14.3593C21.7494 13.8967 21.75 13.3025 21.75 12.45V8.05C21.75 7.19755 21.7494 6.60331 21.7116 6.14068C21.6745 5.68681 21.6054 5.42604 21.5048 5.22852C21.289 4.80516 20.9448 4.46095 20.5215 4.24524Z" fill="black"/>
</svg>
