<svg width="24" height="24" viewBox="0 0 24 24" fill="none" xmlns="http://www.w3.org/2000/svg">
<path fill-rule="evenodd" clip-rule="evenodd" d="M21.2 2.25001L21.2203 2.25C21.3424 2.24997 21.4749 2.24994 21.5895 2.25931C21.7193 2.26991 21.8907 2.29615 22.0675 2.38625C22.3027 2.50609 22.494 2.69732 22.6138 2.93252C22.7039 3.10935 22.7301 3.28078 22.7407 3.41053C22.7501 3.52516 22.7501 3.65759 22.75 3.77973V3.77979L22.75 3.80001V10.45L22.75 10.4702C22.7501 10.5924 22.7501 10.7248 22.7407 10.8395C22.7301 10.9692 22.7039 11.1407 22.6138 11.3175C22.494 11.5527 22.3027 11.7439 22.0675 11.8638C21.8907 11.9539 21.7193 11.9801 21.5895 11.9907C21.4749 12.0001 21.3424 12 21.2203 12H21.2203H21.2203H21.2202L21.2 12H14.55L14.5298 12H14.5298H14.5298H14.5298C14.4076 12 14.2752 12.0001 14.1606 11.9907C14.0308 11.9801 13.8594 11.9539 13.6825 11.8638C13.4473 11.7439 13.2561 11.5527 13.1363 11.3175C13.0462 11.1407 13.0199 10.9692 13.0093 10.8395C13 10.7249 13 10.5924 13 10.4703V10.4703V10.4703V10.4702L13 10.45V3.80001L13 3.77978V3.77976V3.77974V3.77973C13 3.65758 13 3.52516 13.0093 3.41053C13.0199 3.28078 13.0462 3.10935 13.1363 2.93252C13.2561 2.69732 13.4473 2.50609 13.6825 2.38625C13.8594 2.29615 14.0308 2.26991 14.1606 2.25931C14.2752 2.24994 14.4077 2.24997 14.5298 2.25L14.55 2.25001H21.2ZM9.45001 2.25003L9.47022 2.25003L9.47038 2.25003C9.5925 2.25 9.72488 2.24997 9.83948 2.25933C9.96924 2.26993 10.1407 2.29617 10.3175 2.38627C10.5527 2.50611 10.7439 2.69734 10.8638 2.93254C10.9539 3.10937 10.9801 3.2808 10.9907 3.41056C11.0001 3.5252 11 3.65765 11 3.77981L11 3.80003V21.2L11 21.2202C11 21.3424 11.0001 21.4749 10.9907 21.5895C10.9801 21.7193 10.9539 21.8907 10.8638 22.0675C10.7439 22.3027 10.5527 22.4939 10.3175 22.6138C10.1407 22.7039 9.96924 22.7301 9.83948 22.7407C9.72485 22.7501 9.59243 22.7501 9.47029 22.75H9.47024L9.45001 22.75H2.80001L2.77978 22.75H2.77972C2.65758 22.7501 2.52516 22.7501 2.41053 22.7407C2.28078 22.7301 2.10935 22.7039 1.93252 22.6138C1.69732 22.4939 1.50609 22.3027 1.38625 22.0675C1.29615 21.8907 1.26991 21.7193 1.25931 21.5895C1.24994 21.4749 1.24997 21.3424 1.25 21.2203L1.25 21.2203L1.25001 21.2V3.80003L1.25 3.7798L1.25 3.77978C1.24997 3.65763 1.24994 3.52519 1.25931 3.41056C1.26991 3.2808 1.29615 3.10937 1.38625 2.93254C1.50609 2.69734 1.69732 2.50611 1.93252 2.38627C2.10935 2.29617 2.28078 2.26993 2.41053 2.25933C2.52513 2.24997 2.65752 2.25 2.77964 2.25003L2.77964 2.25003L2.77979 2.25003L2.80001 2.25003H9.45001ZM9.50001 3.80003L9.49999 3.75004L9.45001 3.75003H2.80001L2.75002 3.75004L2.75001 3.80003V21.2L2.75002 21.25L2.80001 21.25H9.45001L9.49999 21.25L9.50001 21.2V3.80003ZM21.5001 14.25C21.9143 14.25 22.2501 14.5858 22.2501 15L22.25 17.1001V17.1291C22.25 17.5244 22.25 17.8655 22.2271 18.1464C22.2028 18.4429 22.1493 18.7378 22.0047 19.0216C21.789 19.4449 21.4448 19.7891 21.0215 20.0048C20.7377 20.1494 20.4428 20.2029 20.1463 20.2271C19.8653 20.2501 19.5243 20.2501 19.1289 20.2501L19.1 20.2501H15.8821L17.0162 21.3842C17.3091 21.6771 17.3091 22.1519 17.0162 22.4448C16.7233 22.7377 16.2484 22.7377 15.9555 22.4448L13.5653 20.0546C13.259 19.7483 13.259 19.2518 13.5653 18.9455L15.9555 16.5553C16.2484 16.2624 16.7233 16.2624 17.0162 16.5553C17.3091 16.8482 17.3091 17.323 17.0162 17.6159L15.8821 18.7501H19.1C19.5324 18.7501 19.8116 18.7495 20.0241 18.7321C20.2279 18.7155 20.3034 18.6872 20.3405 18.6683C20.4816 18.5964 20.5963 18.4817 20.6682 18.3406C20.6871 18.3035 20.7154 18.2279 20.732 18.0242C20.7494 17.8117 20.75 17.5325 20.75 17.1001L20.7501 15C20.7501 14.5858 21.0859 14.25 21.5001 14.25Z" fill="black"/>
</svg>
