<svg width="24" height="24" viewBox="0 0 24 24" fill="none" xmlns="http://www.w3.org/2000/svg">
<path fill-rule="evenodd" clip-rule="evenodd" d="M9.47735 22.5C9.64444 22.5 9.79862 22.5 9.92764 22.4895C10.0669 22.4781 10.2203 22.452 10.3721 22.3747C10.5885 22.2644 10.7644 22.0885 10.8747 21.8721C10.952 21.7203 10.9781 21.5669 10.9895 21.4276C11 21.2986 11 21.1444 11 20.9774V4.02265C11 3.85556 11 3.70138 10.9895 3.57237C10.9781 3.43306 10.952 3.27967 10.8747 3.12791C10.7644 2.91152 10.5885 2.7356 10.3721 2.62534C10.2203 2.54802 10.0669 2.5219 9.92764 2.51051C9.79862 2.49997 9.64445 2.49999 9.47737 2.5H3.02264C2.85555 2.49999 2.70138 2.49997 2.57237 2.51051C2.43306 2.5219 2.27967 2.54802 2.12791 2.62534C1.91153 2.7356 1.7356 2.91152 1.62534 3.12791C1.54802 3.27967 1.5219 3.43306 1.51052 3.57237C1.49998 3.70139 1.49999 3.85558 1.5 4.02268V20.9773C1.49999 21.1444 1.49998 21.2986 1.51052 21.4276C1.5219 21.5669 1.54802 21.7203 1.62534 21.8721C1.7356 22.0885 1.91153 22.2644 2.12791 22.3747C2.27967 22.452 2.43306 22.4781 2.57237 22.4895C2.70138 22.5 2.85556 22.5 3.02265 22.5H9.47735ZM9.98214 21.421C9.96821 21.4469 9.94693 21.4682 9.92098 21.4821C9.91469 21.4839 9.89362 21.4889 9.8462 21.4928C9.7629 21.4996 9.65027 21.5 9.46 21.5H3.04C2.84973 21.5 2.7371 21.4996 2.6538 21.4928C2.60639 21.4889 2.58532 21.4839 2.57902 21.4821C2.55307 21.4682 2.5318 21.4469 2.51786 21.421C2.51606 21.4147 2.51107 21.3936 2.5072 21.3462C2.50039 21.2629 2.5 21.1503 2.5 20.96V4.04C2.5 3.84973 2.50039 3.7371 2.5072 3.6538C2.51107 3.60639 2.51606 3.58532 2.51786 3.57902C2.5318 3.55307 2.55307 3.53179 2.57902 3.51786C2.58532 3.51605 2.60639 3.51107 2.6538 3.5072C2.7371 3.50039 2.84974 3.5 3.04 3.5H9.46C9.65027 3.5 9.7629 3.50039 9.8462 3.5072C9.89361 3.51107 9.91468 3.51606 9.92098 3.51786C9.94693 3.5318 9.96821 3.55307 9.98214 3.57902C9.98395 3.58532 9.98893 3.60639 9.99281 3.6538C9.99961 3.7371 10 3.84973 10 4.04V20.96C10 21.1503 9.99961 21.2629 9.99281 21.3462C9.98893 21.3936 9.98395 21.4147 9.98214 21.421Z" fill="black"/>
<path d="M20.9774 22.5C21.1444 22.5 21.2986 22.5 21.4276 22.4895C21.5669 22.4781 21.7203 22.452 21.8721 22.3747C22.0885 22.2644 22.2644 22.0885 22.3747 21.8721C22.452 21.7203 22.4781 21.5669 22.4895 21.4276C22.5 21.2986 22.5 21.1444 22.5 20.9773V14.5226C22.5 14.3556 22.5 14.2014 22.4895 14.0724C22.4781 13.9331 22.452 13.7797 22.3747 13.6279C22.2644 13.4115 22.0885 13.2356 21.8721 13.1253C21.7203 13.048 21.5669 13.0219 21.4276 13.0105C21.2986 13 21.1444 13 20.9774 13H14.5226C14.3556 13 14.2014 13 14.0724 13.0105C13.9331 13.0219 13.7797 13.048 13.6279 13.1253C13.4115 13.2356 13.2356 13.4115 13.1253 13.6279C13.048 13.7797 13.0219 13.9331 13.0105 14.0724C13 14.2014 13 14.3555 13 14.5226V20.9774C13 21.1444 13 21.2986 13.0105 21.4276C13.0219 21.5669 13.048 21.7203 13.1253 21.8721C13.2356 22.0885 13.4115 22.2644 13.6279 22.3747C13.7797 22.452 13.9331 22.4781 14.0724 22.4895C14.2014 22.5 14.3556 22.5 14.5226 22.5H20.9774Z" fill="black"/>
<path d="M21.5 10.5C21.7761 10.5 22 10.2761 22 9.99998L21.9999 7.87922C21.9999 7.47675 21.9999 7.14458 21.9778 6.87399C21.9548 6.59295 21.9055 6.33461 21.7819 6.09194C21.5901 5.71563 21.2842 5.40968 20.9078 5.21794C20.6652 5.0943 20.4068 5.04502 20.1258 5.02206C19.8552 4.99995 19.523 4.99995 19.1206 4.99996H15.2784L16.8393 3.43907C17.0345 3.2438 17.0345 2.92722 16.8393 2.73196C16.644 2.5367 16.3274 2.5367 16.1322 2.73196L13.7419 5.12221C13.5333 5.33084 13.5333 5.66909 13.7419 5.87771L16.1322 8.26796C16.3274 8.46322 16.644 8.46322 16.8393 8.26796C17.0345 8.0727 17.0345 7.75612 16.8393 7.56086L15.2784 5.99996H19.0999C19.5282 5.99996 19.8193 6.00035 20.0444 6.01874C20.2636 6.03665 20.3757 6.06911 20.4539 6.10895C20.642 6.20482 20.795 6.35779 20.8909 6.54595C20.9307 6.62415 20.9632 6.73625 20.9811 6.95545C20.9995 7.18049 20.9999 7.47163 20.9999 7.89991L21 10C21 10.2761 21.2238 10.5 21.5 10.5Z" fill="black"/>
</svg>
