<svg width="24" height="24" viewBox="0 0 24 24" fill="none" xmlns="http://www.w3.org/2000/svg">
<path fill-rule="evenodd" clip-rule="evenodd" d="M1.52434 15.007C1.33452 14.4786 1.45565 13.8885 1.83825 13.4776C2.07551 13.2228 2.36938 13.1336 2.52136 13.0961C2.69648 13.0529 2.88321 13.0333 3.05309 13.0219C3.3851 12.9998 3.83222 12.9998 4.35946 12.9998L20.7232 12.9998C20.8423 12.9998 20.9846 12.9997 21.1099 13.0099C21.2551 13.0218 21.4631 13.0522 21.681 13.1633C21.9633 13.3071 22.1927 13.5366 22.3366 13.8188C22.4476 14.0368 22.478 14.2448 22.4899 14.39C22.5001 14.5153 22.5001 14.6575 22.5001 14.7766V21.8171C22.5001 21.9924 22.5002 22.1852 22.4853 22.3488C22.4694 22.5235 22.4275 22.8073 22.2442 23.0795C22.0205 23.4115 21.6734 23.6404 21.2801 23.7152C20.9577 23.7764 20.6805 23.7031 20.5136 23.6489C20.3573 23.5982 20.1802 23.5222 20.019 23.4531L3.65348 16.4392C3.16887 16.2316 2.7579 16.0555 2.46146 15.9043C2.30978 15.827 2.14588 15.7354 2.00193 15.6267C1.877 15.5324 1.64205 15.3346 1.52434 15.007ZM20.5 14.9998H5.37197L20.5 21.4833V14.9998Z" fill="black"/>
<path fill-rule="evenodd" clip-rule="evenodd" d="M1.52434 8.99266C1.33452 9.52103 1.45565 10.1112 1.83825 10.522C2.07551 10.7768 2.36938 10.8661 2.52136 10.9035C2.69648 10.9467 2.88321 10.9663 3.05309 10.9777C3.3851 10.9998 3.83222 10.9998 4.35946 10.9998L20.7232 10.9998C20.8423 10.9999 20.9846 10.9999 21.1099 10.9897C21.2551 10.9778 21.4631 10.9474 21.681 10.8363C21.9633 10.6925 22.1927 10.463 22.3366 10.1808C22.4476 9.96285 22.478 9.75486 22.4899 9.60964C22.5001 9.48436 22.5001 9.34215 22.5001 9.22306V2.18255C22.5001 2.0072 22.5002 1.81439 22.4853 1.65082C22.4694 1.47607 22.4275 1.19234 22.2442 0.920166C22.0205 0.588093 21.6734 0.359207 21.2801 0.284454C20.9577 0.223185 20.6805 0.296478 20.5136 0.350693C20.3574 0.401436 20.1803 0.477402 20.0191 0.546518L3.65348 7.56037C3.16889 7.76804 2.75789 7.94417 2.46146 8.09531C2.30978 8.17264 2.14588 8.26424 2.00193 8.37292C1.877 8.46723 1.64205 8.66502 1.52434 8.99266ZM20.5 8.99981H5.37197L20.5 2.51635V8.99981Z" fill="black"/>
</svg>
