<svg width="24" height="24" viewBox="0 0 24 24" fill="none" xmlns="http://www.w3.org/2000/svg">
<path fill-rule="evenodd" clip-rule="evenodd" d="M9.47735 22.5H3.02265C2.85556 22.5 2.70138 22.5 2.57237 22.4895C2.43306 22.4781 2.27967 22.452 2.12791 22.3747C1.91153 22.2644 1.7356 22.0885 1.62534 21.8721C1.54802 21.7203 1.5219 21.5669 1.51052 21.4276C1.49998 21.2986 1.49999 21.1444 1.5 20.9773V4.02268C1.49999 3.85558 1.49998 3.70139 1.51052 3.57237C1.5219 3.43306 1.54802 3.27967 1.62534 3.12791C1.7356 2.91152 1.91153 2.7356 2.12791 2.62534C2.27967 2.54802 2.43306 2.5219 2.57237 2.51051C2.70138 2.49997 2.85555 2.49999 3.02264 2.5H9.47737C9.64445 2.49999 9.79862 2.49997 9.92764 2.51051C10.0669 2.5219 10.2203 2.54802 10.3721 2.62534C10.5885 2.7356 10.7644 2.91152 10.8747 3.12791C10.952 3.27967 10.9781 3.43306 10.9895 3.57237C11 3.70138 11 3.85556 11 4.02265V20.9774C11 21.1444 11 21.2986 10.9895 21.4276C10.9781 21.5669 10.952 21.7203 10.8747 21.8721C10.7644 22.0885 10.5885 22.2644 10.3721 22.3747C10.2203 22.452 10.0669 22.4781 9.92764 22.4895C9.79862 22.5 9.64444 22.5 9.47735 22.5ZM9.92098 21.4821C9.94693 21.4682 9.96821 21.4469 9.98214 21.421C9.98395 21.4147 9.98893 21.3936 9.99281 21.3462C9.99961 21.2629 10 21.1503 10 20.96V4.04C10 3.84973 9.99961 3.7371 9.99281 3.6538C9.98893 3.60639 9.98395 3.58532 9.98214 3.57902C9.96821 3.55307 9.94693 3.5318 9.92098 3.51786C9.91468 3.51606 9.89361 3.51107 9.8462 3.5072C9.7629 3.50039 9.65027 3.5 9.46 3.5H3.04C2.84974 3.5 2.7371 3.50039 2.6538 3.5072C2.60639 3.51107 2.58532 3.51605 2.57902 3.51786C2.55307 3.53179 2.5318 3.55307 2.51786 3.57902C2.51606 3.58532 2.51107 3.60639 2.5072 3.6538C2.50039 3.7371 2.5 3.84973 2.5 4.04V20.96C2.5 21.1503 2.50039 21.2629 2.5072 21.3462C2.51107 21.3936 2.51606 21.4147 2.51786 21.421C2.5318 21.4469 2.55307 21.4682 2.57902 21.4821C2.58532 21.4839 2.60639 21.4889 2.6538 21.4928C2.7371 21.4996 2.84973 21.5 3.04 21.5H9.46C9.65027 21.5 9.7629 21.4996 9.8462 21.4928C9.89362 21.4889 9.91469 21.4839 9.92098 21.4821Z" fill="black"/>
<path fill-rule="evenodd" clip-rule="evenodd" d="M20.9774 22.5H14.5226C14.3556 22.5 14.2014 22.5 14.0724 22.4895C13.9331 22.4781 13.7797 22.452 13.6279 22.3747C13.4115 22.2644 13.2356 22.0885 13.1253 21.8721C13.048 21.7203 13.0219 21.5669 13.0105 21.4276C13 21.2986 13 21.1444 13 20.9773V14.5227C13 14.3556 13 14.2014 13.0105 14.0724C13.0219 13.9331 13.048 13.7797 13.1253 13.6279C13.2356 13.4115 13.4115 13.2356 13.6279 13.1253C13.7797 13.048 13.9331 13.0219 14.0724 13.0105C14.2014 13 14.3556 13 14.5226 13H20.9774C21.1444 13 21.2986 13 21.4276 13.0105C21.5669 13.0219 21.7203 13.048 21.8721 13.1253C22.0885 13.2356 22.2644 13.4115 22.3747 13.6279C22.452 13.7797 22.4781 13.9331 22.4895 14.0724C22.5 14.2014 22.5 14.3556 22.5 14.5226V20.9773C22.5 21.1444 22.5 21.2986 22.4895 21.4276C22.4781 21.5669 22.452 21.7203 22.3747 21.8721C22.2644 22.0885 22.0885 22.2644 21.8721 22.3747C21.7203 22.452 21.5669 22.4781 21.4276 22.4895C21.2986 22.5 21.1444 22.5 20.9774 22.5ZM21.421 21.4821C21.4469 21.4682 21.4682 21.4469 21.4821 21.421C21.4839 21.4147 21.4889 21.3936 21.4928 21.3462C21.4996 21.2629 21.5 21.1503 21.5 20.96V14.54C21.5 14.3497 21.4996 14.2371 21.4928 14.1538C21.4889 14.1064 21.4839 14.0853 21.4821 14.079C21.4682 14.0531 21.4469 14.0318 21.421 14.0179C21.4147 14.016 21.3936 14.0111 21.3462 14.0072C21.2629 14.0004 21.1503 14 20.96 14H14.54C14.3497 14 14.2371 14.0004 14.1538 14.0072C14.1064 14.0111 14.0853 14.0161 14.079 14.0179C14.0531 14.0318 14.0318 14.0531 14.0179 14.079C14.0161 14.0853 14.0111 14.1064 14.0072 14.1538C14.0004 14.2371 14 14.3497 14 14.54V20.96C14 21.1503 14.0004 21.2629 14.0072 21.3462C14.0111 21.3936 14.0161 21.4147 14.0179 21.421C14.0318 21.4469 14.0531 21.4682 14.079 21.4821C14.0853 21.4839 14.1064 21.4889 14.1538 21.4928C14.2371 21.4996 14.3497 21.5 14.54 21.5H20.96C21.1503 21.5 21.2629 21.4996 21.3462 21.4928C21.3936 21.4889 21.4147 21.4839 21.421 21.4821Z" fill="black"/>
<path d="M21.5 10.5C21.7761 10.5 22 10.2761 22 9.99998L21.9999 7.87922C21.9999 7.47675 21.9999 7.14458 21.9778 6.87399C21.9548 6.59295 21.9055 6.33461 21.7819 6.09194C21.5901 5.71563 21.2842 5.40968 20.9078 5.21794C20.6652 5.0943 20.4068 5.04502 20.1258 5.02206C19.8552 4.99995 19.523 4.99995 19.1206 4.99996H15.2784L16.8393 3.43907C17.0345 3.2438 17.0345 2.92722 16.8393 2.73196C16.644 2.5367 16.3274 2.5367 16.1322 2.73196L13.7419 5.12221C13.5333 5.33084 13.5333 5.66909 13.7419 5.87771L16.1322 8.26796C16.3274 8.46322 16.644 8.46322 16.8393 8.26796C17.0345 8.0727 17.0345 7.75612 16.8393 7.56086L15.2784 5.99996H19.0999C19.5282 5.99996 19.8193 6.00035 20.0444 6.01874C20.2636 6.03665 20.3757 6.06911 20.4539 6.10895C20.642 6.20482 20.795 6.35779 20.8909 6.54595C20.9307 6.62415 20.9632 6.73625 20.9811 6.95545C20.9995 7.18049 20.9999 7.47163 20.9999 7.89991L21 10C21 10.2761 21.2238 10.5 21.5 10.5Z" fill="black"/>
</svg>
