<svg width="24" height="24" viewBox="0 0 24 24" fill="none" xmlns="http://www.w3.org/2000/svg">
<path fill-rule="evenodd" clip-rule="evenodd" d="M1.75967 14.4224C1.60149 13.9821 1.70243 13.4904 2.02127 13.148C2.20848 12.9469 2.44458 12.8725 2.58127 12.8388C2.73531 12.8008 2.90508 12.7824 3.06978 12.7714C3.39332 12.7498 3.83335 12.7498 4.36758 12.7498L20.7203 12.7498C20.8425 12.7498 20.9749 12.7498 21.0896 12.7591C21.2193 12.7697 21.3908 12.796 21.5676 12.8861C21.8028 13.0059 21.994 13.1971 22.1139 13.4323C22.204 13.6092 22.2302 13.7806 22.2408 13.9103C22.2502 14.025 22.2501 14.1574 22.2501 14.2795V21.3127C22.2501 21.4924 22.2502 21.6744 22.2363 21.8261C22.2218 21.9865 22.185 22.2198 22.0369 22.4398C21.8505 22.7165 21.5613 22.9073 21.2335 22.9696C20.973 23.0191 20.744 22.9609 20.5909 22.9112C20.4459 22.8641 20.2787 22.7924 20.1135 22.7215L3.75946 15.7127C3.26841 15.5022 2.86395 15.3289 2.57507 15.1816C2.42801 15.1066 2.27924 15.0228 2.15261 14.9272C2.04026 14.8424 1.85255 14.681 1.75967 14.4224ZM4.15445 14.2499L20.7501 14.2498L20.7501 21.3624L4.15445 14.2499ZM21.0845 21.4932L21.0809 21.4924C21.0834 21.493 21.0846 21.4932 21.0845 21.4932ZM20.7392 21.7177L20.7385 21.7213C20.7386 21.7213 20.7388 21.7202 20.7392 21.7177Z" fill="black"/>
<path fill-rule="evenodd" clip-rule="evenodd" d="M1.75967 9.5772C1.60149 10.0175 1.70243 10.5093 2.02127 10.8517C2.20848 11.0527 2.44458 11.1271 2.58127 11.1608C2.73531 11.1988 2.90508 11.2173 3.06978 11.2283C3.39332 11.2498 3.83335 11.2498 4.36758 11.2498L20.7203 11.2498C20.8425 11.2499 20.9749 11.2499 21.0896 11.2405C21.2193 11.2299 21.3908 11.2037 21.5676 11.1136C21.8028 10.9937 21.994 10.8025 22.1139 10.5673C22.204 10.3905 22.2302 10.2191 22.2408 10.0893C22.2502 9.97467 22.2501 9.84225 22.2501 9.72011V2.68695C22.2501 2.50725 22.2502 2.32528 22.2363 2.1735C22.2218 2.01316 22.185 1.7798 22.0369 1.55983C21.8505 1.2831 21.5613 1.09237 21.2335 1.03007C20.973 0.980557 20.744 1.03873 20.5909 1.08847C20.4459 1.13556 20.2787 1.20728 20.1135 1.2781L3.75946 8.28697C3.26841 8.49742 2.86395 8.67075 2.57507 8.81804C2.42801 8.89302 2.27924 8.97686 2.15261 9.07246C2.04026 9.15728 1.85255 9.31867 1.75967 9.5772ZM4.15445 9.74974L20.7501 9.74981L20.7501 2.63726L4.15445 9.74974ZM21.0845 2.50649L21.0809 2.50726C21.0834 2.50666 21.0846 2.50644 21.0845 2.50649ZM20.7392 2.28194L20.7385 2.27833C20.7386 2.2783 20.7388 2.27945 20.7392 2.28194Z" fill="black"/>
</svg>
