<svg width="24" height="24" viewBox="0 0 24 24" fill="none" xmlns="http://www.w3.org/2000/svg">
<path fill-rule="evenodd" clip-rule="evenodd" d="M1.42965 15.3648C1.19767 14.7467 1.33318 14.0508 1.78008 13.565C2.07414 13.2453 2.43938 13.1421 2.60308 13.1027C2.80123 13.0549 3.00876 13.0342 3.18936 13.0226C3.54211 12.9997 4.01551 12.9997 4.56376 12.9998L20.7252 12.9997C20.8419 12.9997 20.9942 12.9996 21.1303 13.0107C21.291 13.0238 21.5355 13.0585 21.7946 13.1905C22.1239 13.3583 22.3916 13.626 22.5593 13.9553C22.6913 14.2143 22.726 14.4589 22.7391 14.6196C22.7502 14.7556 22.7502 14.9079 22.7501 15.0246L22.7501 21.5962C22.7502 21.7646 22.7503 21.9654 22.7345 22.1387C22.7174 22.3268 22.6709 22.6556 22.4575 22.9767C22.2017 23.3616 21.804 23.6297 21.3512 23.7224C20.9736 23.7997 20.6513 23.7195 20.4705 23.6648C20.304 23.6143 20.1179 23.5389 19.9619 23.4757L3.79792 16.9331C3.28971 16.7274 2.85088 16.5498 2.53246 16.3963C2.36944 16.3177 2.18483 16.2207 2.01907 16.1021C1.88214 16.0041 1.58229 15.7714 1.42965 15.3648ZM20.2501 15.4998H6.91994L20.2501 20.8953V15.4998Z" fill="black"/>
<path fill-rule="evenodd" clip-rule="evenodd" d="M1.42965 8.63476C1.19767 9.25276 1.33318 9.94871 1.78008 10.4345C2.07414 10.7542 2.43938 10.8574 2.60308 10.8968C2.80123 10.9446 3.00876 10.9653 3.18936 10.977C3.54211 10.9998 4.01551 10.9998 4.56376 10.9998L20.7252 10.9998C20.8419 10.9998 20.9942 10.9999 21.1303 10.9888C21.291 10.9757 21.5355 10.941 21.7946 10.809C22.1239 10.6412 22.3916 10.3735 22.5593 10.0442C22.6913 9.78518 22.726 9.54062 22.7391 9.37994C22.7502 9.24386 22.7502 9.09161 22.7501 8.97489L22.7501 2.40331C22.7502 2.23493 22.7503 2.03409 22.7345 1.86079C22.7174 1.67269 22.6709 1.34388 22.4575 1.02283C22.2017 0.63793 21.804 0.36986 21.3512 0.277128C20.9736 0.199782 20.6513 0.28002 20.4705 0.334761C20.304 0.385201 20.1179 0.460606 19.9618 0.523853L3.79792 7.0664C3.28971 7.27209 2.85088 7.44969 2.53246 7.60321C2.36944 7.6818 2.18483 7.77884 2.01907 7.89745C1.88214 7.99543 1.58229 8.22812 1.42965 8.63476ZM20.2501 8.49975H6.91994L20.2501 3.10422V8.49975Z" fill="black"/>
</svg>
