<svg width="24" height="24" viewBox="0 0 24 24" fill="none" xmlns="http://www.w3.org/2000/svg">
<path fill-rule="evenodd" clip-rule="evenodd" d="M21.2251 23.25H15.2749C15.1582 23.2501 15.0059 23.2502 14.8698 23.2391C14.7091 23.2259 14.4646 23.1913 14.2055 23.0593C13.8762 22.8915 13.6085 22.6238 13.4407 22.2945C13.3087 22.0354 13.2741 21.7909 13.261 21.6302C13.2498 21.4941 13.2499 21.3419 13.25 21.2252V15.2749C13.2499 15.1582 13.2498 15.0059 13.261 14.8698C13.2741 14.7092 13.3087 14.4646 13.4407 14.2055C13.6085 13.8763 13.8762 13.6085 14.2055 13.4408C14.4646 13.3088 14.7091 13.2741 14.8698 13.261C15.0059 13.2499 15.1581 13.25 15.2748 13.25H21.2251C21.3418 13.25 21.4941 13.2499 21.6302 13.261C21.7909 13.2741 22.0354 13.3088 22.2945 13.4408C22.6238 13.6085 22.8915 13.8763 23.0593 14.2055C23.1913 14.4646 23.2259 14.7092 23.239 14.8698C23.2502 15.0059 23.2501 15.1582 23.25 15.2749V21.2252C23.2501 21.3419 23.2502 21.4941 23.239 21.6302C23.2259 21.7909 23.1913 22.0354 23.0593 22.2945C22.8915 22.6238 22.6238 22.8915 22.2945 23.0593C22.0354 23.1913 21.7909 23.2259 21.6302 23.2391C21.4941 23.2502 21.3418 23.2501 21.2251 23.25ZM20.75 20.75V15.75H15.75V20.75H20.75Z" fill="black"/>
<path fill-rule="evenodd" clip-rule="evenodd" d="M8.72509 23.25H2.77483C2.65811 23.2501 2.50586 23.2502 2.36977 23.2391C2.20909 23.2259 1.96454 23.1913 1.70548 23.0593C1.37619 22.8915 1.10848 22.6238 0.940697 22.2945C0.808698 22.0354 0.77405 21.7909 0.760922 21.6302C0.749804 21.4941 0.749886 21.3419 0.749949 21.2252L0.749949 3.7749C0.749886 3.65818 0.749804 3.50591 0.760922 3.36983C0.77405 3.20915 0.808698 2.9646 0.940697 2.70553C1.10848 2.37625 1.37619 2.10853 1.70548 1.94076C1.96454 1.80876 2.20909 1.77411 2.36977 1.76098C2.50585 1.74986 2.6581 1.74995 2.77482 1.75001H8.7251C8.84181 1.74995 8.99406 1.74986 9.13015 1.76098C9.29082 1.77411 9.53538 1.80876 9.79444 1.94076C10.1237 2.10853 10.3914 2.37625 10.5592 2.70553C10.6912 2.9646 10.7259 3.20915 10.739 3.36983C10.7501 3.50592 10.75 3.65817 10.75 3.77489L10.75 21.2251C10.75 21.3419 10.7501 21.4941 10.739 21.6302C10.7259 21.7909 10.6912 22.0354 10.5592 22.2945C10.3914 22.6238 10.1237 22.8915 9.79444 23.0593C9.53538 23.1913 9.29082 23.2259 9.13015 23.2391C8.99406 23.2502 8.8418 23.2501 8.72509 23.25ZM8.24996 20.75V4.25002H3.24996V20.75H8.24996Z" fill="black"/>
<path d="M21.5001 11.25C22.1904 11.25 22.7501 10.6903 22.75 9.99998L22.75 7.85753C22.75 7.47401 22.75 7.11467 22.7254 6.81292C22.6986 6.4855 22.6367 6.11747 22.4502 5.75146C22.1865 5.23403 21.7658 4.81335 21.2484 4.54971C20.8824 4.36322 20.5144 4.30132 20.1869 4.27457C19.8852 4.24992 19.5259 4.24995 19.1424 4.24998L17.0891 4.24998L17.3697 3.96942C17.8578 3.48126 17.8578 2.68981 17.3697 2.20165C16.8815 1.7135 16.0901 1.7135 15.6019 2.20165L13.2117 4.5919C12.7101 5.09342 12.7101 5.90655 13.2117 6.40807L15.6019 8.79832C16.0901 9.28647 16.8815 9.28647 17.3697 8.79832C17.8578 8.31016 17.8578 7.5187 17.3697 7.03055L17.0891 6.74998H19.1C19.5406 6.74998 19.7959 6.75096 19.9834 6.76627C20.0659 6.77301 20.1096 6.78107 20.1278 6.78513C20.1636 6.80643 20.1935 6.83635 20.2148 6.87216C20.2189 6.89033 20.2269 6.934 20.2337 7.01657C20.249 7.20398 20.25 7.4593 20.25 7.89995L20.25 10.0001C20.2501 10.6904 20.8097 11.25 21.5001 11.25Z" fill="black"/>
</svg>
