<svg width="24" height="24" viewBox="0 0 24 24" fill="none" xmlns="http://www.w3.org/2000/svg">
<path d="M11.0485 2.91649C10.7677 2.65505 10.3645 2.57228 10.0034 2.70198C9.83321 2.76314 9.71077 2.89375 9.62327 3.00966C9.53038 3.13269 9.44003 3.28977 9.3482 3.46987C9.16591 3.8274 8.94706 4.33805 8.66592 4.99405L2.26985 19.9182C2.17189 20.1468 2.08842 20.3415 2.03588 20.5032C1.98194 20.6693 1.9426 20.851 1.97876 21.0413C2.02984 21.31 2.18624 21.5472 2.41316 21.7C2.5738 21.8082 2.75632 21.8436 2.93017 21.8595C3.09952 21.8749 3.31135 21.8749 3.56 21.8749H9.97401C10.144 21.8749 10.2937 21.8749 10.4174 21.8648C10.549 21.854 10.6841 21.83 10.8153 21.7632C11.0082 21.6649 11.165 21.5081 11.2633 21.3152C11.3301 21.184 11.3541 21.0489 11.3649 20.9173C11.375 20.7935 11.375 20.6439 11.375 20.4739V5.55016C11.375 4.83643 11.375 4.28083 11.3483 3.8804C11.3348 3.67869 11.3136 3.49872 11.2767 3.34904C11.242 3.20804 11.1809 3.03976 11.0485 2.91649Z" fill="black"/>
<path fill-rule="evenodd" clip-rule="evenodd" d="M13.0366 3.00797C13.2832 2.77841 13.6373 2.70573 13.9543 2.81962C14.0899 2.86836 14.1942 2.97535 14.2769 3.08497C14.3633 3.19935 14.4498 3.34885 14.5404 3.52665C14.7208 3.88045 14.9383 4.38807 15.2213 5.0482L21.6133 19.9629C21.7129 20.1954 21.7945 20.3856 21.8452 20.5419C21.8969 20.701 21.9287 20.8586 21.8984 21.0179C21.8536 21.2539 21.7162 21.4622 21.517 21.5964C21.3825 21.687 21.2251 21.7198 21.0585 21.735C20.8949 21.7499 20.688 21.7499 20.4351 21.7499H14.0299C13.8565 21.7499 13.7113 21.7499 13.5927 21.7402C13.4689 21.7301 13.352 21.7082 13.2414 21.6518C13.072 21.5655 12.9344 21.4278 12.8481 21.2585C12.7917 21.1478 12.7698 21.031 12.7597 20.9071C12.75 20.7885 12.75 20.6434 12.75 20.47V5.55544C12.75 4.83724 12.75 4.28498 12.7764 3.88872C12.7897 3.68959 12.8103 3.51811 12.8446 3.37897C12.8775 3.24561 12.9311 3.10621 13.0366 3.00797ZM13.7852 3.29018C13.6443 3.23956 13.487 3.27186 13.3774 3.37389C13.3751 3.37689 13.3531 3.4053 13.3301 3.49868C13.3061 3.59567 13.2879 3.73321 13.2753 3.922C13.2501 4.29953 13.25 4.83505 13.25 5.56667V20.4599C13.25 20.646 13.2502 20.7706 13.258 20.8664C13.2656 20.9594 13.2791 21.0031 13.2936 21.0315C13.3319 21.1067 13.3931 21.1679 13.4684 21.2063C13.4968 21.2207 13.5405 21.2343 13.6334 21.2418C13.7293 21.2497 13.8538 21.2499 14.04 21.2499H20.4228C20.6909 21.2499 20.8749 21.2496 21.0131 21.237C21.151 21.2245 21.2076 21.2019 21.2377 21.1816C21.3262 21.122 21.3873 21.0294 21.4072 20.9246C21.414 20.8889 21.4124 20.828 21.3697 20.6964C21.3268 20.5643 21.2545 20.3951 21.1489 20.1487L14.7661 5.25548C14.4779 4.58301 14.2668 4.09085 14.095 3.75376C14.009 3.5852 13.9381 3.46596 13.8779 3.38623C13.8199 3.30947 13.7885 3.29202 13.7852 3.29018Z" fill="black"/>
</svg>
