<svg width="24" height="24" viewBox="0 0 24 24" fill="none" xmlns="http://www.w3.org/2000/svg">
<path fill-rule="evenodd" clip-rule="evenodd" d="M21.2202 2.25L21.2 2.25001H14.55L14.5298 2.25C14.4076 2.24997 14.2751 2.24994 14.1605 2.25931C14.0307 2.26991 13.8593 2.29615 13.6825 2.38625C13.4473 2.50609 13.2561 2.69732 13.1362 2.93252C13.0461 3.10935 13.0199 3.28078 13.0093 3.41053C12.9999 3.52517 12.9999 3.6576 13 3.77974V3.77976V3.77978L13 3.80001V10.45L13 10.4702V10.4703V10.4703C12.9999 10.5924 12.9999 10.7248 13.0093 10.8395C13.0199 10.9692 13.0461 11.1407 13.1362 11.3175C13.2561 11.5527 13.4473 11.7439 13.6825 11.8638C13.8593 11.9539 14.0307 11.9801 14.1605 11.9907C14.2751 12.0001 14.4076 12 14.5297 12H14.5298H14.5298L14.55 12H21.2L21.2202 12H21.2202H21.2202C21.3424 12 21.4748 12.0001 21.5894 11.9907C21.7192 11.9801 21.8906 11.9539 22.0675 11.8638C22.3027 11.7439 22.4939 11.5527 22.6137 11.3175C22.7038 11.1407 22.7301 10.9692 22.7407 10.8395C22.75 10.7248 22.75 10.5924 22.75 10.4702L22.75 10.45V3.80001L22.75 3.77979V3.77973C22.75 3.65759 22.75 3.52516 22.7407 3.41053C22.7301 3.28078 22.7038 3.10935 22.6137 2.93252C22.4939 2.69732 22.3027 2.50609 22.0675 2.38625C21.8906 2.29615 21.7192 2.26991 21.5894 2.25931C21.4748 2.24994 21.3424 2.24997 21.2202 2.25ZM21.25 3.75002L21.25 3.80001V10.45L21.25 10.5L21.2 10.5H14.55L14.5 10.5L14.5 10.45V3.80001L14.5 3.75002L14.55 3.75001H21.2L21.25 3.75002ZM9.47016 2.25003L9.44995 2.25003H2.79995L2.77973 2.25003L2.77958 2.25003L2.77957 2.25003C2.65746 2.25 2.52507 2.24997 2.41047 2.25933C2.28072 2.26993 2.10929 2.29617 1.93246 2.38627C1.69726 2.50611 1.50603 2.69734 1.38619 2.93254C1.29609 3.10937 1.26985 3.2808 1.25925 3.41056C1.24988 3.52519 1.24991 3.65763 1.24994 3.77978L1.24994 3.7798L1.24995 3.80003V21.2L1.24994 21.2203L1.24994 21.2203C1.24991 21.3424 1.24988 21.4749 1.25925 21.5895C1.26985 21.7193 1.29609 21.8907 1.38619 22.0675C1.50603 22.3027 1.69726 22.4939 1.93246 22.6138C2.10929 22.7039 2.28072 22.7301 2.41047 22.7407C2.5251 22.7501 2.65752 22.7501 2.77966 22.75H2.77972L2.79995 22.75H9.44995L9.47018 22.75H9.47023C9.59237 22.7501 9.72479 22.7501 9.83942 22.7407C9.96918 22.7301 10.1406 22.7039 10.3174 22.6138C10.5526 22.4939 10.7439 22.3027 10.8637 22.0675C10.9538 21.8907 10.98 21.7193 10.9906 21.5895C11 21.4749 11 21.3424 10.9999 21.2202L10.9999 21.2V3.80003L10.9999 3.77981C11 3.65765 11 3.5252 10.9906 3.41056C10.98 3.2808 10.9538 3.10937 10.8637 2.93254C10.7439 2.69734 10.5526 2.50611 10.3174 2.38627C10.1406 2.29617 9.96918 2.26993 9.83942 2.25933C9.72482 2.24997 9.59243 2.25 9.47031 2.25003L9.47016 2.25003ZM9.49993 3.75004L9.49995 3.80003V21.2L9.49993 21.25L9.44995 21.25H2.79995L2.74996 21.25L2.74995 21.2V3.80003L2.74996 3.75004L2.79995 3.75003H9.44995L9.49993 3.75004ZM21.5 14.25C21.9142 14.25 22.25 14.5858 22.25 15L22.25 17.1001V17.1291C22.25 17.5244 22.25 17.8655 22.227 18.1464C22.2028 18.4429 22.1493 18.7378 22.0047 19.0216C21.789 19.4449 21.4448 19.7891 21.0214 20.0048C20.7376 20.1494 20.4427 20.2029 20.1462 20.2271C19.8653 20.2501 19.5242 20.2501 19.1289 20.2501L19.1 20.2501H15.882L17.0161 21.3842C17.309 21.6771 17.309 22.1519 17.0161 22.4448C16.7232 22.7377 16.2483 22.7377 15.9554 22.4448L13.5652 20.0546C13.2589 19.7483 13.2589 19.2518 13.5652 18.9455L15.9554 16.5553C16.2483 16.2624 16.7232 16.2624 17.0161 16.5553C17.309 16.8482 17.309 17.323 17.0161 17.6159L15.882 18.7501H19.1C19.5324 18.7501 19.8116 18.7495 20.0241 18.7321C20.2278 18.7155 20.3033 18.6872 20.3404 18.6683C20.4815 18.5964 20.5963 18.4817 20.6682 18.3406C20.6871 18.3035 20.7153 18.2279 20.732 18.0242C20.7493 17.8117 20.7499 17.5325 20.75 17.1001L20.75 15C20.75 14.5858 21.0858 14.25 21.5 14.25Z" fill="black"/>
</svg>
