<svg width="24" height="24" viewBox="0 0 24 24" fill="none" xmlns="http://www.w3.org/2000/svg">
<path d="M10 12.25C10.4142 12.25 10.75 12.5858 10.75 13V18C10.75 18.4142 10.4142 18.75 10 18.75C9.58579 18.75 9.25 18.4142 9.25 18V13C9.25 12.5858 9.58579 12.25 10 12.25Z" fill="black"/>
<path d="M13.75 13C13.75 12.5858 14.0858 12.25 14.5 12.25C14.9142 12.25 15.25 12.5858 15.25 13V18C15.25 18.4142 14.9142 18.75 14.5 18.75C14.0858 18.75 13.75 18.4142 13.75 18V13Z" fill="black"/>
<path fill-rule="evenodd" clip-rule="evenodd" d="M7.55888 4.50001H3.75C2.7835 4.50001 2 5.28351 2 6.25001V8.25001C2 9.21651 2.7835 10 3.75 10H4.05349L4.86484 20.9532C4.97121 22.3892 6.16735 23.5 7.60732 23.5H16.8927C18.3326 23.5 19.5288 22.3892 19.6351 20.9532L20.4465 10H20.75C21.7165 10 22.5 9.21651 22.5 8.25001V6.25001C22.5 5.28351 21.7165 4.50001 20.75 4.50001H16.9411C16.5815 2.23301 14.6182 0.5 12.25 0.5C9.88185 0.5 7.91846 2.23301 7.55888 4.50001ZM15.413 4.50001C15.0745 3.06665 13.7868 2 12.25 2C10.7132 2 9.42554 3.06665 9.08696 4.50001H15.413ZM3.75 8.50001H20.75C20.8881 8.50001 21 8.38808 21 8.25001V6.25001C21 6.11194 20.8881 6.00001 20.75 6.00001H3.75C3.61193 6.00001 3.5 6.11194 3.5 6.25001V8.25001C3.5 8.38808 3.61193 8.50001 3.75 8.50001ZM18.1392 20.8423L18.9424 10H5.5576L6.36074 20.8423C6.40909 21.4951 6.95279 22 7.60732 22H16.8927C17.5472 22 18.0909 21.4951 18.1392 20.8423Z" fill="black"/>
</svg>
