<svg width="24" height="24" viewBox="0 0 24 24" fill="none" xmlns="http://www.w3.org/2000/svg">
<path d="M10 12.75C10.1381 12.75 10.25 12.8619 10.25 13V18C10.25 18.1381 10.1381 18.25 10 18.25C9.86193 18.25 9.75 18.1381 9.75 18V13C9.75 12.8619 9.86193 12.75 10 12.75Z" fill="black"/>
<path d="M14.25 13C14.25 12.8619 14.3619 12.75 14.5 12.75C14.6381 12.75 14.75 12.8619 14.75 13V18C14.75 18.1381 14.6381 18.25 14.5 18.25C14.3619 18.25 14.25 18.1381 14.25 18V13Z" fill="black"/>
<path fill-rule="evenodd" clip-rule="evenodd" d="M8.00723 5.00001H3.75C3.05964 5.00001 2.5 5.55965 2.5 6.25001V8.25001C2.5 8.94036 3.05964 9.50001 3.75 9.50001H4.51783L5.36347 20.9162C5.4505 22.0912 6.42916 23 7.60732 23H16.8927C18.0708 23 19.0495 22.0912 19.1365 20.9162L19.9822 9.50001H20.75C21.4404 9.50001 22 8.94036 22 8.25001V6.25001C22 5.55965 21.4404 5.00001 20.75 5.00001H16.4928C16.3634 2.76916 14.5133 1 12.25 1C9.98671 1 8.13663 2.76916 8.00723 5.00001ZM15.9918 5.00001C15.8632 3.0455 14.2371 1.5 12.25 1.5C10.2629 1.5 8.63684 3.0455 8.5082 5.00001H15.9918ZM3.75 9.00001H20.75C21.1642 9.00001 21.5 8.66422 21.5 8.25001V6.25001C21.5 5.83579 21.1642 5.50001 20.75 5.50001H3.75C3.33579 5.50001 3 5.83579 3 6.25001V8.25001C3 8.66422 3.33579 9.00001 3.75 9.00001ZM18.6379 20.8793L19.4808 9.50001H5.0192L5.8621 20.8793C5.9298 21.7931 6.69098 22.5 7.60732 22.5H16.8927C17.809 22.5 18.5702 21.7931 18.6379 20.8793Z" fill="black"/>
</svg>
