<svg width="24" height="24" viewBox="0 0 24 24" fill="none" xmlns="http://www.w3.org/2000/svg">
<path fill-rule="evenodd" clip-rule="evenodd" d="M8.0291 4.75001C8.27657 2.63842 10.0719 1 12.25 1C14.4281 1 16.2234 2.63842 16.4709 4.75001L20.966 4.75001C21.0921 4.74999 21.215 4.74998 21.3191 4.75848C21.4334 4.76782 21.5683 4.78985 21.704 4.859C21.8922 4.95487 22.0451 5.10785 22.141 5.29602C22.2102 5.43173 22.2322 5.5666 22.2415 5.68089C22.25 5.78495 22.25 5.90781 22.25 6.03398V8.46597C22.25 8.59213 22.25 8.71507 22.2415 8.81912C22.2322 8.93342 22.2102 9.06829 22.141 9.204C22.0835 9.31692 22.0054 9.41717 21.9114 9.50001H2.58857C2.49464 9.41717 2.41653 9.31692 2.359 9.204C2.28985 9.06829 2.26781 8.93342 2.25848 8.81912C2.24997 8.71504 2.24999 8.59215 2.25 8.46596V6.03406C2.24999 5.90787 2.24997 5.78497 2.25848 5.68089C2.26781 5.5666 2.28985 5.43173 2.359 5.29602C2.45487 5.10785 2.60785 4.95487 2.79601 4.859C2.93172 4.78985 3.06659 4.76782 3.18089 4.75848C3.28496 4.74998 3.40785 4.74999 3.53404 4.75001L8.0291 4.75001ZM12.25 1.5C14.1515 1.5 15.7225 2.91532 15.967 4.75001H8.53305C8.77749 2.91532 10.3485 1.5 12.25 1.5Z" fill="black"/>
<path d="M4.30418 10H20.1958L19.4666 19.8438C19.4292 20.3487 19.399 20.7569 19.3481 21.0872C19.2956 21.4279 19.216 21.7255 19.0585 21.9987C18.8074 22.4342 18.4308 22.7839 17.978 23.0021C17.6939 23.139 17.3912 23.1965 17.0475 23.2237C16.7144 23.25 16.3051 23.25 15.7988 23.25H8.70123C8.19491 23.25 7.78558 23.25 7.45249 23.2237C7.10881 23.1965 6.80611 23.139 6.52204 23.0021C6.06916 22.7839 5.69261 22.4342 5.44151 21.9987C5.28401 21.7255 5.20437 21.4279 5.15187 21.0872C5.101 20.757 5.07078 20.349 5.03339 19.8444L4.30418 10Z" fill="black"/>
</svg>
