<svg width="24" height="24" viewBox="0 0 24 24" fill="none" xmlns="http://www.w3.org/2000/svg">
<path fill-rule="evenodd" clip-rule="evenodd" d="M7.77747 4.75001L3.53406 4.75001C3.40787 4.74999 3.28496 4.74998 3.18089 4.75848C3.06659 4.76782 2.93172 4.78985 2.79601 4.859C2.60785 4.95487 2.45487 5.10785 2.359 5.29602C2.28985 5.43173 2.26781 5.5666 2.25848 5.68089C2.24997 5.78497 2.24999 5.90787 2.25 6.03406V8.46596C2.24999 8.59215 2.24997 8.71504 2.25848 8.81912C2.26781 8.93342 2.28985 9.06829 2.359 9.204C2.45487 9.39216 2.60785 9.54514 2.79601 9.64101C2.93172 9.71016 3.06659 9.7322 3.18089 9.74154C3.28497 9.75004 3.40787 9.75002 3.53406 9.75001L4.28566 9.75001L5.03335 19.8438C5.07074 20.3486 5.10099 20.757 5.15187 21.0872C5.20437 21.4279 5.28401 21.7255 5.44151 21.9987C5.69261 22.4342 6.06916 22.7839 6.52204 23.0021C6.80611 23.139 7.10881 23.1965 7.45249 23.2237C7.78558 23.25 8.19491 23.25 8.70123 23.25H15.7988C16.3051 23.25 16.7144 23.25 17.0475 23.2237C17.3912 23.1965 17.6939 23.139 17.978 23.0021C18.4308 22.7839 18.8074 22.4342 19.0585 21.9987C19.216 21.7255 19.2956 21.4279 19.3481 21.0872C19.399 20.7569 19.4292 20.3487 19.4666 19.8438L20.2143 9.75001L20.9659 9.75001C21.0921 9.75002 21.215 9.75004 21.3191 9.74154C21.4334 9.7322 21.5683 9.71016 21.704 9.64101C21.8922 9.54514 22.0451 9.39216 22.141 9.204C22.2102 9.06829 22.2322 8.93342 22.2415 8.81912C22.25 8.71505 22.25 8.59216 22.25 8.46598V6.03405C22.25 5.90787 22.25 5.78496 22.2415 5.68089C22.2322 5.5666 22.2102 5.43173 22.141 5.29602C22.0451 5.10785 21.8922 4.95487 21.704 4.859C21.5683 4.78985 21.4334 4.76782 21.3191 4.75848C21.215 4.74998 21.0922 4.74999 20.966 4.75001L16.7225 4.75001C16.4738 2.50003 14.5663 0.75 12.25 0.75C9.93372 0.75 8.02619 2.50003 7.77747 4.75001ZM15.7146 4.75001C15.4719 3.05386 14.0132 1.75 12.25 1.75C10.4868 1.75 9.02806 3.05386 8.78545 4.75001H15.7146ZM3.55 8.75001H20.95C21.0983 8.75001 21.1794 8.74962 21.2377 8.74486L21.2443 8.74428L21.2449 8.73769C21.2496 8.6794 21.25 8.59827 21.25 8.45001V6.05001C21.25 5.90174 21.2496 5.82062 21.2449 5.76232L21.2443 5.75573L21.2377 5.75516C21.1794 5.7504 21.0983 5.75001 20.95 5.75001H3.55C3.40174 5.75001 3.32061 5.7504 3.26232 5.75516L3.25573 5.75573L3.25515 5.76232C3.25039 5.82062 3.25 5.90174 3.25 6.05001V8.45001C3.25 8.59827 3.25039 8.6794 3.25515 8.73769L3.25573 8.74428L3.26232 8.74486C3.32061 8.74962 3.40174 8.75001 3.55 8.75001ZM18.4709 19.7495L19.2116 9.75001H5.2884L6.0291 19.7495C6.06838 20.2797 6.09605 20.6483 6.1402 20.9349C6.18342 21.2153 6.2372 21.3767 6.30784 21.4992C6.45849 21.7605 6.68443 21.9703 6.95615 22.1013C7.08355 22.1627 7.24845 22.2044 7.53136 22.2268C7.82037 22.2496 8.19008 22.25 8.72173 22.25H15.7783C16.3099 22.25 16.6796 22.2496 16.9686 22.2268C17.2515 22.2044 17.4164 22.1627 17.5438 22.1013C17.8156 21.9703 18.0415 21.7605 18.1922 21.4992C18.2628 21.3767 18.3166 21.2153 18.3598 20.9349C18.4039 20.6483 18.4316 20.2797 18.4709 19.7495Z" fill="black"/>
</svg>
