<svg width="24" height="24" viewBox="0 0 24 24" fill="none" xmlns="http://www.w3.org/2000/svg">
<path d="M10 11.75C10.6904 11.75 11.25 12.3097 11.25 13V18C11.25 18.6904 10.6904 19.25 10 19.25C9.30966 19.25 8.75002 18.6904 8.75002 18V13C8.75002 12.3097 9.30966 11.75 10 11.75Z" fill="black"/>
<path d="M13.25 13C13.25 12.3096 13.8097 11.75 14.5 11.75C15.1904 11.75 15.75 12.3096 15.75 13V18C15.75 18.6904 15.1904 19.25 14.5 19.25C13.8097 19.25 13.25 18.6904 13.25 18V13Z" fill="black"/>
<path fill-rule="evenodd" clip-rule="evenodd" d="M7.14973 4.00001L4.31344 4C4.06539 3.99996 3.81012 3.99992 3.59142 4.01778C3.34737 4.03772 3.04107 4.086 2.72853 4.24524C2.30516 4.46096 1.96096 4.80516 1.74524 5.22853C1.586 5.54107 1.53772 5.84737 1.51778 6.09142C1.49991 6.31008 1.49996 6.56532 1.5 6.81333V7.68658C1.49996 7.9346 1.49991 8.18993 1.51778 8.4086C1.53772 8.65265 1.586 8.95895 1.74524 9.27149C1.96096 9.69485 2.30516 10.0391 2.72853 10.2548C3.03954 10.4132 3.34437 10.4618 3.58783 10.4819L4.28712 19.9224C4.32301 20.4072 4.35515 20.8414 4.41062 21.2014C4.47009 21.5873 4.56912 21.9871 4.79177 22.3733C5.11819 22.9395 5.60772 23.3941 6.19645 23.6778C6.59803 23.8713 7.00408 23.9405 7.39334 23.9713C7.75649 24.0001 8.19175 24 8.67798 24H15.822C16.3083 24 16.7435 24.0001 17.1067 23.9713C17.4959 23.9405 17.902 23.8713 18.3035 23.6778C18.8923 23.3941 19.3818 22.9395 19.7082 22.3733C19.9309 21.9871 20.0299 21.5873 20.0894 21.2014C20.1449 20.8414 20.177 20.4073 20.2129 19.9224L20.9122 10.4819C21.1556 10.4618 21.4605 10.4132 21.7715 10.2548C22.1949 10.0391 22.5391 9.69485 22.7548 9.27149C22.914 8.95895 22.9623 8.65265 22.9822 8.4086C23.0001 8.18991 23.0001 7.93466 23 7.68662V6.81342C23.0001 6.56538 23.0001 6.3101 22.9822 6.09142C22.9623 5.84737 22.914 5.54107 22.7548 5.22853C22.5391 4.80516 22.1949 4.46096 21.7715 4.24524C21.4589 4.086 21.1526 4.03772 20.9086 4.01778C20.6899 3.99992 20.4346 3.99996 20.1866 4L17.3503 4.00001C16.7895 1.704 14.7188 0 12.25 0C9.78126 0 7.71051 1.704 7.14973 4.00001ZM14.7002 4.00001C14.245 3.10958 13.3187 2.5 12.25 2.5C11.1813 2.5 10.255 3.10958 9.79986 4.00001H14.7002ZM4.31182 8.00001C4.18824 7.99999 4.08861 7.99984 4.00151 7.9985C4.00004 7.9026 4.00001 7.79153 4.00001 7.65001V6.85001C4.00001 6.70849 4.00004 6.59741 4.00151 6.50151C4.09741 6.50004 4.20849 6.50001 4.35001 6.50001H20.15C20.2915 6.50001 20.4026 6.50004 20.4985 6.50151C20.5 6.59741 20.5 6.70849 20.5 6.85001V7.65001C20.5 7.79153 20.5 7.9026 20.4985 7.9985C20.4114 7.99984 20.3118 7.99999 20.1882 8.00001H4.31182ZM17.7229 19.6941L18.404 10.5H6.09602L6.77706 19.6941C6.81721 20.2361 6.84287 20.5702 6.88146 20.8206C6.91762 21.0553 6.95191 21.1148 6.95754 21.1245C7.03287 21.2552 7.14588 21.3602 7.28174 21.4256C7.29189 21.4305 7.35383 21.4604 7.59051 21.4791C7.8431 21.4991 8.17818 21.5 8.72173 21.5H15.7783C16.3218 21.5 16.6569 21.4991 16.9095 21.4791C17.1462 21.4604 17.208 21.4306 17.2182 21.4257C17.354 21.3602 17.4671 21.2553 17.5424 21.1246C17.548 21.1149 17.5824 21.0553 17.6185 20.8206C17.6571 20.5702 17.6828 20.2361 17.7229 19.6941Z" fill="black"/>
</svg>
