<svg width="24" height="24" viewBox="0 0 24 24" fill="none" xmlns="http://www.w3.org/2000/svg">
<path fill-rule="evenodd" clip-rule="evenodd" d="M7.55888 4.50001L3.50651 4.5C3.3946 4.49998 3.27323 4.49995 3.16795 4.50785C3.04913 4.51676 2.89176 4.53873 2.72668 4.61483C2.45639 4.73943 2.23943 4.95639 2.11483 5.22668C2.03872 5.39176 2.01675 5.54913 2.00785 5.66795C1.99995 5.77324 1.99998 5.8946 2 6.00651V8.4935C1.99998 8.60541 1.99995 8.72678 2.00785 8.83206C2.01675 8.95088 2.03872 9.10825 2.11483 9.27333C2.23943 9.54362 2.45639 9.76058 2.72668 9.88519C2.89176 9.96129 3.04913 9.98326 3.16795 9.99217C3.27322 10.0001 3.39457 10 3.50648 10L4.0535 10L4.79135 19.961C4.82509 20.4167 4.85337 20.7985 4.89944 21.1109C4.9476 21.4375 5.02195 21.7431 5.17521 22.0335C5.46614 22.5848 5.93574 23.0209 6.50703 23.2703C6.80797 23.4017 7.11819 23.4533 7.44742 23.4772C7.76243 23.5 8.1452 23.5 8.60223 23.5H15.8978C16.3548 23.5 16.7376 23.5 17.0526 23.4772C17.3818 23.4533 17.692 23.4017 17.993 23.2703C18.5643 23.0209 19.0339 22.5848 19.3248 22.0335C19.478 21.7431 19.5524 21.4375 19.6005 21.1109C19.6466 20.7985 19.6749 20.4167 19.7086 19.9609L20.4465 10L20.9935 10C21.1054 10 21.2268 10.0001 21.3321 9.99217C21.4509 9.98326 21.6082 9.96129 21.7733 9.88519C22.0436 9.76058 22.2606 9.54362 22.3852 9.27333C22.4613 9.10825 22.4833 8.95088 22.4922 8.83206C22.5001 8.7268 22.5 8.60546 22.5 8.49356V6.00653C22.5 5.89464 22.5001 5.77322 22.4922 5.66795C22.4833 5.54913 22.4613 5.39176 22.3852 5.22668C22.2606 4.95639 22.0436 4.73943 21.7733 4.61483C21.6082 4.53873 21.4509 4.51676 21.3321 4.50785C21.2268 4.49995 21.1054 4.49998 20.9935 4.5L16.9411 4.50001C16.5815 2.23301 14.6182 0.5 12.25 0.5C9.88185 0.5 7.91846 2.23301 7.55888 4.50001ZM15.413 4.50001C15.0745 3.06665 13.7868 2 12.25 2C10.7132 2 9.42555 3.06665 9.08697 4.50001H15.413ZM21 8.50001V6.00001H3.50001V8.50001H21ZM18.2147 19.8236L18.9424 10H5.55761L6.28528 19.8236C6.32152 20.3128 6.34621 20.6399 6.3834 20.8921C6.4194 21.1363 6.4602 21.2545 6.50182 21.3334C6.63406 21.584 6.84752 21.7822 7.10719 21.8956C7.18892 21.9313 7.30988 21.9632 7.55602 21.9811C7.81026 21.9995 8.13829 22 8.62886 22H15.8711C16.3617 22 16.6897 21.9995 16.944 21.9811C17.1901 21.9632 17.3111 21.9313 17.3928 21.8956C17.6525 21.7822 17.8659 21.584 17.9982 21.3334C18.0398 21.2545 18.0806 21.1363 18.1166 20.8921C18.1538 20.6399 18.1785 20.3128 18.2147 19.8236Z" fill="black"/>
</svg>
