<svg width="24" height="24" viewBox="0 0 24 24" fill="none" xmlns="http://www.w3.org/2000/svg">
<path fill-rule="evenodd" clip-rule="evenodd" d="M1.96573 19.3965C1.23324 18.1125 2.0222 16.4605 3.77335 13.458L4.58194 12.085L6.99112 8.00684C9.15401 4.34707 10.27 2.4604 11.8466 2.3457L12.0009 2.33984C13.6609 2.33998 14.7781 4.22949 17.0107 8.00781L19.4198 12.085C21.7218 15.9808 22.8724 17.9291 22.0351 19.3965C21.1977 20.8638 18.9351 20.8633 14.4101 20.8633L9.59171 20.8643L7.99796 20.8604C4.64616 20.841 2.83015 20.6921 2.04776 19.5303L1.96573 19.3965ZM3.48526 17.2168C3.071 18.235 3.19696 18.528 3.26847 18.6533C3.34012 18.7788 3.52846 19.036 4.61515 19.1973C5.71468 19.3604 7.2775 19.3633 9.59073 19.3633H14.4101C16.7232 19.3633 18.2862 19.3604 19.3857 19.1973C20.4724 19.036 20.6607 18.7788 20.7323 18.6533C20.8039 18.528 20.9297 18.235 20.5155 17.2168C20.0967 16.1873 19.3054 14.8399 18.1288 12.8486L15.7187 8.77051C14.5767 6.83792 13.8046 5.53855 13.1259 4.70117C12.4579 3.87711 12.1475 3.83988 12.0009 3.83984C11.8542 3.8399 11.5444 3.8778 10.8769 4.70117C10.1981 5.53843 9.42506 6.83727 8.28312 8.76953L5.87394 12.8486C4.69704 14.84 3.90425 16.1872 3.48526 17.2168Z" fill="black"/>
</svg>
