<svg width="24" height="24" viewBox="0 0 24 24" fill="none" xmlns="http://www.w3.org/2000/svg">
<path fill-rule="evenodd" clip-rule="evenodd" d="M1.96573 19.3965C1.23324 18.1125 2.0222 16.4605 3.77335 13.458L4.58194 12.085L6.99112 8.00684C9.154 4.34708 10.27 2.46041 11.8466 2.3457L12.0009 2.33984C13.6609 2.33998 14.7781 4.22949 17.0107 8.00781L19.4198 12.085C21.7218 15.9808 22.8724 17.9291 22.0351 19.3965C21.1977 20.8638 18.9351 20.8633 14.4101 20.8633L9.59171 20.8643L7.99796 20.8604C4.64616 20.841 2.83015 20.6921 2.04776 19.5303L1.96573 19.3965ZM3.6962 18.3926C3.6962 18.3926 3.69673 18.3959 3.70206 18.4053C3.70783 18.4153 3.71085 18.417 3.71085 18.417C3.71365 18.4196 3.73386 18.4384 3.78897 18.4668C3.91829 18.5334 4.18225 18.628 4.68839 18.7031C5.74245 18.8595 7.26047 18.8633 9.59073 18.8633H14.4101C16.74 18.8633 18.2584 18.8595 19.3124 18.7031C19.818 18.6281 20.0814 18.5334 20.2108 18.4668C20.2677 18.4375 20.2889 18.4188 20.2909 18.417C20.2909 18.417 20.2939 18.4137 20.2987 18.4053C20.3047 18.3947 20.3046 18.3916 20.3046 18.3916C20.3057 18.3863 20.3099 18.3592 20.3066 18.2998C20.2981 18.1546 20.2454 17.8791 20.0526 17.4053C19.6511 16.4183 18.8824 15.1093 17.6972 13.1035L15.288 9.02539C14.1376 7.07851 13.3869 5.81824 12.7372 5.0166C12.4262 4.63291 12.2192 4.45899 12.1005 4.38379C12.0487 4.35102 12.0224 4.34299 12.0185 4.3418C12.0185 4.3418 12.0139 4.33985 12.0009 4.33984C11.989 4.33987 11.9843 4.3418 11.9843 4.3418C11.9807 4.34288 11.9544 4.35081 11.9023 4.38379C11.7836 4.4589 11.5768 4.63269 11.2655 5.0166C10.6157 5.81816 9.86437 7.07752 8.71378 9.02441L6.30362 13.1035C5.11827 15.1092 4.35076 16.4183 3.94913 17.4053C3.75644 17.8789 3.70178 18.1535 3.69327 18.2988C3.68959 18.3624 3.69559 18.3898 3.6962 18.3926Z" fill="black"/>
</svg>
