<svg width="24" height="24" viewBox="0 0 24 24" fill="none" xmlns="http://www.w3.org/2000/svg">
<path fill-rule="evenodd" clip-rule="evenodd" d="M1.96573 19.3965C1.23324 18.1125 2.0222 16.4605 3.77335 13.458L4.58194 12.085L6.99112 8.00684C9.15401 4.34707 10.27 2.4604 11.8466 2.3457L12.0009 2.33984C13.6609 2.33998 14.7781 4.22949 17.0107 8.00781L19.4198 12.085C21.7218 15.9808 22.8724 17.9291 22.0351 19.3965C21.1977 20.8638 18.9351 20.8633 14.4101 20.8633L9.59171 20.8643L7.99796 20.8604C4.64616 20.841 2.83015 20.6921 2.04776 19.5303L1.96573 19.3965ZM3.02237 17.0283C2.58917 18.093 2.6467 18.5733 2.8339 18.9014C3.02119 19.2293 3.40533 19.5227 4.5419 19.6914C5.68691 19.8613 7.29451 19.8633 9.59073 19.8633H14.4101C16.7063 19.8633 18.3139 19.8613 19.4589 19.6914C20.596 19.5227 20.9797 19.2285 21.1669 18.9004C21.3539 18.5723 21.4114 18.0927 20.9784 17.0283C20.5422 15.9562 19.7266 14.5706 18.5585 12.5938L16.1493 8.5166C15.0159 6.59851 14.2213 5.25985 13.5136 4.38672C12.8131 3.52256 12.3752 3.3399 12.0009 3.33984C11.6266 3.33996 11.1877 3.52259 10.4872 4.38672C9.77958 5.25979 8.98571 6.59807 7.85245 8.51562L5.4423 12.5938C4.27401 14.5706 3.45868 15.9562 3.02237 17.0283Z" fill="black"/>
</svg>
