<svg width="24" height="24" viewBox="0 0 24 24" fill="none" xmlns="http://www.w3.org/2000/svg">
<path fill-rule="evenodd" clip-rule="evenodd" d="M15.75 6.60351C15.75 5.7126 16.8271 5.26643 17.4571 5.8964L22.8535 11.2928C23.244 11.6834 23.244 12.3165 22.8535 12.7071L17.4571 18.1035C16.8271 18.7335 15.75 18.2873 15.75 17.3964V14.75H13.7501C13.1978 14.75 12.7501 14.3022 12.7501 13.75V10.25C12.7501 9.69767 13.1978 9.24995 13.7501 9.24995H15.75V6.60351ZM21.4393 12L17.25 7.81061V9.74995C17.25 10.3022 16.8022 10.75 16.25 10.75H14.2501V13.25H16.25C16.8022 13.25 17.25 13.6977 17.25 14.25V16.1893L21.4393 12Z" fill="black"/>
<path fill-rule="evenodd" clip-rule="evenodd" d="M8.24996 6.60351C8.24996 5.71261 7.17282 5.26644 6.54286 5.89641L1.14641 11.2929C0.755885 11.6834 0.755884 12.3165 1.14641 12.7071L6.54286 18.1035C7.17282 18.7335 8.24996 18.2873 8.24996 17.3964V14.75H10.25C10.8022 14.75 11.25 14.3022 11.25 13.75V10.25C11.25 9.69768 10.8022 9.24996 10.25 9.24996H8.24996V6.60351ZM2.56062 12L6.74996 7.81062V9.74996C6.74996 10.3022 7.19768 10.75 7.74996 10.75H9.74996V13.25H7.74996C7.19768 13.25 6.74996 13.6977 6.74996 14.25V16.1893L2.56062 12Z" fill="black"/>
</svg>
