<svg width="24" height="24" viewBox="0 0 24 24" fill="none" xmlns="http://www.w3.org/2000/svg">
<path d="M16.25 6.60351C16.25 6.15806 16.7885 5.93497 17.1035 6.24996L22.5 11.6464C22.6952 11.8417 22.6952 12.1582 22.5 12.3535L17.1035 17.75C16.7885 18.0649 16.25 17.8419 16.25 17.3964V14.25H13.5C13.2238 14.25 13 14.0261 13 13.75V10.25C13 9.97381 13.2238 9.74996 13.5 9.74996H16.25V6.60351Z" fill="black"/>
<path d="M7.74996 6.60352C7.74996 6.15807 7.21139 5.93498 6.89641 6.24996L1.49996 11.6464C1.3047 11.8417 1.3047 12.1583 1.49996 12.3535L6.89641 17.75C7.21139 18.0649 7.74996 17.8419 7.74996 17.3964V14.25H10.5C10.7761 14.25 11 14.0261 11 13.75V10.25C11 9.97382 10.7761 9.74996 10.5 9.74996H7.74996V6.60352Z" fill="black"/>
</svg>
