<svg width="24" height="24" viewBox="0 0 24 24" fill="none" xmlns="http://www.w3.org/2000/svg">
<path d="M16 6.60352C16 5.93535 16.8078 5.60072 17.2803 6.07319L22.6767 11.4696C22.9696 11.7625 22.9696 12.2374 22.6767 12.5303L17.2803 17.9267C16.8078 18.3992 16 18.0646 16 17.3964V14.5H13.5C13.0857 14.5 12.75 14.1642 12.75 13.75V10.25C12.75 9.83576 13.0857 9.49997 13.5 9.49997H16V6.60352Z" fill="black"/>
<path d="M7.99996 6.60353C7.99996 5.93535 7.19211 5.60073 6.71963 6.0732L1.32319 11.4696C1.03029 11.7625 1.03029 12.2374 1.32319 12.5303L6.71963 17.9268C7.19211 18.3992 7.99996 18.0646 7.99996 17.3964V14.5H10.5C10.9142 14.5 11.25 14.1642 11.25 13.75V10.25C11.25 9.83576 10.9142 9.49998 10.5 9.49998H7.99996V6.60353Z" fill="black"/>
</svg>
