<svg width="24" height="24" viewBox="0 0 24 24" fill="none" xmlns="http://www.w3.org/2000/svg">
<path fill-rule="evenodd" clip-rule="evenodd" d="M15.5 6.60352C15.5 5.48989 16.8464 4.93218 17.6338 5.71964L23.0303 11.1161C23.5184 11.6042 23.5184 12.3957 23.0303 12.8838L17.6338 18.2803C16.8464 19.0678 15.5 18.51 15.5 17.3964V15H13.7501C13.0597 15 12.5001 14.4403 12.5001 13.75V10.25C12.5001 9.55961 13.0597 8.99997 13.7501 8.99997H15.5V6.60352ZM21.0857 12L17.5 8.41418V9.74997C17.5 10.4403 16.9403 11 16.25 11H14.5001V13H16.25C16.9403 13 17.5 13.5596 17.5 14.25V15.5858L21.0857 12Z" fill="black"/>
<path fill-rule="evenodd" clip-rule="evenodd" d="M8.49996 6.60353C8.49996 5.4899 7.15354 4.93219 6.36608 5.71964L0.969632 11.1161C0.481478 11.6042 0.481476 12.3957 0.969632 12.8839L6.36608 18.2803C7.15353 19.0678 8.49996 18.5101 8.49996 17.3964V15H9.99996C10.6903 15 11.25 14.4403 11.25 13.75V10.25C11.25 9.55962 10.6903 8.99997 9.99996 8.99997H8.49996V6.60353ZM2.91418 12L6.49996 8.41419V9.74997C6.49996 10.4403 7.05961 11 7.74996 11H9.24996V13H7.74996C7.05961 13 6.49996 13.5596 6.49996 14.25V15.5858L2.91418 12Z" fill="black"/>
</svg>
