<svg width="24" height="24" viewBox="0 0 24 24" fill="none" xmlns="http://www.w3.org/2000/svg">
<path fill-rule="evenodd" clip-rule="evenodd" d="M16 6.60355C16 5.93538 16.8078 5.60075 17.2803 6.07322L22.6767 11.4697C22.9696 11.7626 22.9696 12.2374 22.6767 12.5303L17.2803 17.9268C16.8078 18.3993 16 18.0646 16 17.3964V14.5H13.5C13.0857 14.5 12.75 14.1642 12.75 13.75V10.25C12.75 9.83579 13.0857 9.5 13.5 9.5H16V6.60355ZM21.7929 12L17 7.20711V9.75C17 10.1642 16.6642 10.5 16.25 10.5H13.75V13.5H16.25C16.6642 13.5 17 13.8358 17 14.25V16.7929L21.7929 12Z" fill="black"/>
<path fill-rule="evenodd" clip-rule="evenodd" d="M7.99996 6.60356C7.99996 5.93538 7.19211 5.60076 6.71963 6.07323L1.32319 11.4697C1.03029 11.7626 1.03029 12.2374 1.32319 12.5303L6.71963 17.9268C7.19211 18.3993 7.99996 18.0646 7.99996 17.3965V14.5H10.5C10.9142 14.5 11.25 14.1642 11.25 13.75V10.25C11.25 9.83579 10.9142 9.50001 10.5 9.50001H7.99996V6.60356ZM2.20707 12L6.99996 7.20712V9.75001C6.99996 10.1642 7.33575 10.5 7.74996 10.5H10.25V13.5H7.74996C7.33575 13.5 6.99996 13.8358 6.99996 14.25V16.7929L2.20707 12Z" fill="black"/>
</svg>
