<svg width="24" height="24" viewBox="0 0 24 24" fill="none" xmlns="http://www.w3.org/2000/svg">
<path d="M0.251696 5.49963C0.251898 3.98099 1.48306 2.75 3.0017 2.75L21.0001 2.75C22.5189 2.75 23.7501 3.98122 23.7501 5.5V15.5C23.7501 17.0188 22.5189 18.25 21.0001 18.25H3.00037C1.48144 18.25 0.250164 17.0186 0.250366 15.4996L0.251696 5.49963Z" fill="black"/>
<path d="M5.2501 20.5C5.2501 20.0858 5.58589 19.75 6.0001 19.75H18.0001C18.4143 19.75 18.7501 20.0858 18.7501 20.5C18.7501 20.9142 18.4143 21.25 18.0001 21.25H6.0001C5.58589 21.25 5.2501 20.9142 5.2501 20.5Z" fill="black"/>
</svg>
