<svg width="24" height="24" viewBox="0 0 24 24" fill="none" xmlns="http://www.w3.org/2000/svg">
<path d="M0.501696 5.74967C0.501879 4.36909 1.62111 3.25 3.0017 3.25L21.0001 3.25C22.3808 3.25 23.5001 4.36929 23.5001 5.75V15.75C23.5001 17.1307 22.3808 18.25 21.0001 18.25H3.00037C1.61952 18.25 0.500183 17.1305 0.500366 15.7497L0.501696 5.74967Z" fill="black"/>
<path d="M5.5001 20.25C5.5001 19.9739 5.72396 19.75 6.0001 19.75H18.0001C18.2762 19.75 18.5001 19.9739 18.5001 20.25C18.5001 20.5261 18.2762 20.75 18.0001 20.75H6.0001C5.72396 20.75 5.5001 20.5261 5.5001 20.25Z" fill="black"/>
</svg>
