<svg width="24" height="24" viewBox="0 0 24 24" fill="none" xmlns="http://www.w3.org/2000/svg">
<path d="M0.751696 5.9997C0.751861 4.75718 1.75917 3.75 3.0017 3.75L21.0001 3.75C22.2427 3.75 23.2501 4.75736 23.2501 6L23.2501 16C23.2501 17.2426 22.2427 18.25 21.0001 18.25H3.00037C1.75761 18.25 0.750201 17.2425 0.750366 15.9997L0.751696 5.9997Z" fill="black"/>
<path d="M5.75012 20.25C5.75012 20.1119 5.86205 20 6.00012 20H18.0001C18.1382 20 18.2501 20.1119 18.2501 20.25C18.2501 20.3881 18.1382 20.5 18.0001 20.5H6.00012C5.86205 20.5 5.75012 20.3881 5.75012 20.25Z" fill="black"/>
</svg>
