<svg width="25" height="24" viewBox="0 0 25 24" fill="none" xmlns="http://www.w3.org/2000/svg">
<path d="M0.00132957 4.74957C0.00156823 2.95481 1.45657 1.5 3.25133 1.5L21.2497 1.5C23.0447 1.5 24.4997 2.95508 24.4997 4.75V14.75C24.4997 16.5449 23.0447 18 21.2497 18L3.25 18C1.45491 18 -0.000238628 16.5447 2.93523e-08 14.7496L0.00132957 4.74957Z" fill="black"/>
<path d="M4.99973 21.25C4.99973 20.5596 5.55938 20 6.24973 20H18.2497C18.9401 20 19.4997 20.5596 19.4997 21.25C19.4997 21.9404 18.9401 22.5 18.2497 22.5H6.24973C5.55938 22.5 4.99973 21.9404 4.99973 21.25Z" fill="black"/>
</svg>
