<svg width="26" height="24" viewBox="0 0 26 24" fill="none" xmlns="http://www.w3.org/2000/svg">
<path d="M0.751696 4.74957C0.751934 2.95481 2.20694 1.5 4.0017 1.5L22.0001 1.5C23.795 1.5 25.2501 2.95508 25.2501 4.75V14.75C25.2501 16.5449 23.795 18 22.0001 18L4.00037 18C2.20527 18 0.750128 16.5447 0.750366 14.7496L0.751696 4.74957Z" fill="black"/>
<path d="M5.7501 21.25C5.7501 20.5596 6.30974 20 7.0001 20H19.0001C19.6905 20 20.2501 20.5596 20.2501 21.25C20.2501 21.9404 19.6905 22.5 19.0001 22.5H7.0001C6.30974 22.5 5.7501 21.9404 5.7501 21.25Z" fill="black"/>
</svg>
