<svg width="24" height="24" viewBox="0 0 24 24" fill="none" xmlns="http://www.w3.org/2000/svg">
<path fill-rule="evenodd" clip-rule="evenodd" d="M3.0017 3.75C1.75917 3.75 0.751861 4.75718 0.751696 5.9997L0.750366 15.9997C0.750201 17.2425 1.75761 18.25 3.00037 18.25H21.0001C22.2427 18.25 23.2501 17.2426 23.2501 16L23.2501 6C23.2501 4.75736 22.2427 3.75 21.0001 3.75L3.0017 3.75ZM1.2517 5.99977C1.25182 5.03336 2.03529 4.25 3.0017 4.25L21.0001 4.25C21.9666 4.25 22.7501 5.0335 22.7501 6L22.7501 16C22.7501 16.9665 21.9666 17.75 21.0001 17.75H3.00037C2.03378 17.75 1.25024 16.9664 1.25037 15.9998L1.2517 5.99977Z" fill="black"/>
<path d="M6.00012 20C5.86205 20 5.75012 20.1119 5.75012 20.25C5.75012 20.3881 5.86205 20.5 6.00012 20.5H18.0001C18.1382 20.5 18.2501 20.3881 18.2501 20.25C18.2501 20.1119 18.1382 20 18.0001 20H6.00012Z" fill="black"/>
</svg>
