<svg width="24" height="24" viewBox="0 0 24 24" fill="none" xmlns="http://www.w3.org/2000/svg">
<path fill-rule="evenodd" clip-rule="evenodd" d="M3.00133 3.25C1.62075 3.25 0.501513 4.36909 0.50133 5.74967L0.5 15.7497C0.499816 17.1305 1.61916 18.25 3 18.25H20.9997C22.3804 18.25 23.4997 17.1307 23.4997 15.75V5.75C23.4997 4.36929 22.3804 3.25 20.9997 3.25L3.00133 3.25ZM1.50133 5.7498C1.50144 4.92145 2.17298 4.25 3.00133 4.25L20.9997 4.25C21.8282 4.25 22.4997 4.92157 22.4997 5.75V15.75C22.4997 16.5784 21.8282 17.25 20.9997 17.25H3C2.17149 17.25 1.49989 16.5783 1.5 15.7498L1.50133 5.7498Z" fill="black"/>
<path d="M5.99973 19.75C5.72359 19.75 5.49973 19.9739 5.49973 20.25C5.49973 20.5261 5.72359 20.75 5.99973 20.75H17.9997C18.2759 20.75 18.4997 20.5261 18.4997 20.25C18.4997 19.9739 18.2759 19.75 17.9997 19.75H5.99973Z" fill="black"/>
</svg>
