<svg width="24" height="24" viewBox="0 0 24 24" fill="none" xmlns="http://www.w3.org/2000/svg">
<path fill-rule="evenodd" clip-rule="evenodd" d="M3.0017 2.25C1.345 2.25 0.00191608 3.5929 0.00169578 5.2496L0.000366238 15.2496C0.000145939 16.9066 1.34336 18.25 3.00037 18.25H21.0001C22.657 18.25 24.0001 16.9069 24.0001 15.25L24.0001 5.25C24.0001 3.59315 22.657 2.25 21.0001 2.25L3.0017 2.25ZM2.0017 5.24987C2.00177 4.69763 2.44946 4.25 3.0017 4.25L21.0001 4.25C21.5524 4.25 22.0001 4.69771 22.0001 5.25L22.0001 15.25C22.0001 15.8023 21.5524 16.25 21.0001 16.25H3.00037C2.44803 16.25 2.00029 15.8022 2.00037 15.2499L2.0017 5.24987Z" fill="black"/>
<path d="M6.0001 19.75C5.44782 19.75 5.0001 20.1977 5.0001 20.75C5.0001 21.3023 5.44782 21.75 6.0001 21.75H18.0001C18.5524 21.75 19.0001 21.3023 19.0001 20.75C19.0001 20.1977 18.5524 19.75 18.0001 19.75H6.0001Z" fill="black"/>
</svg>
