<svg width="24" height="24" viewBox="0 0 24 24" fill="none" xmlns="http://www.w3.org/2000/svg">
<path fill-rule="evenodd" clip-rule="evenodd" d="M3.0017 3.25C1.62111 3.25 0.501879 4.36909 0.501696 5.74967L0.500366 15.7497C0.500183 17.1305 1.61952 18.25 3.00037 18.25H21.0001C22.3808 18.25 23.5001 17.1307 23.5001 15.75V5.75C23.5001 4.36929 22.3808 3.25 21.0001 3.25L3.0017 3.25ZM1.5017 5.7498C1.50181 4.92145 2.17335 4.25 3.0017 4.25L21.0001 4.25C21.8285 4.25 22.5001 4.92157 22.5001 5.75V15.75C22.5001 16.5784 21.8285 17.25 21.0001 17.25H3.00037C2.17186 17.25 1.50026 16.5783 1.50037 15.7498L1.5017 5.7498Z" fill="black"/>
<path d="M6.0001 19.75C5.72396 19.75 5.5001 19.9739 5.5001 20.25C5.5001 20.5261 5.72396 20.75 6.0001 20.75H18.0001C18.2762 20.75 18.5001 20.5261 18.5001 20.25C18.5001 19.9739 18.2762 19.75 18.0001 19.75H6.0001Z" fill="black"/>
</svg>
