<svg width="24" height="24" viewBox="0 0 24 24" fill="none" xmlns="http://www.w3.org/2000/svg">
<path fill-rule="evenodd" clip-rule="evenodd" d="M3.0017 2.75C1.48306 2.75 0.251898 3.98099 0.251696 5.49963L0.250366 15.4996C0.250164 17.0186 1.48144 18.25 3.00037 18.25H21.0001C22.5189 18.25 23.7501 17.0188 23.7501 15.5V5.5C23.7501 3.98122 22.5189 2.75 21.0001 2.75L3.0017 2.75ZM1.7517 5.49983C1.75179 4.80954 2.3114 4.25 3.0017 4.25L21.0001 4.25C21.6905 4.25 22.2501 4.80964 22.2501 5.5V15.5C22.2501 16.1904 21.6905 16.75 21.0001 16.75H3.00037C2.30995 16.75 1.75027 16.1903 1.75037 15.4998L1.7517 5.49983Z" fill="black"/>
<path d="M6.0001 19.75C5.58589 19.75 5.2501 20.0858 5.2501 20.5C5.2501 20.9142 5.58589 21.25 6.0001 21.25H18.0001C18.4143 21.25 18.7501 20.9142 18.7501 20.5C18.7501 20.0858 18.4143 19.75 18.0001 19.75H6.0001Z" fill="black"/>
</svg>
