<svg width="24" height="24" viewBox="0 0 24 24" fill="none" xmlns="http://www.w3.org/2000/svg">
<path fill-rule="evenodd" clip-rule="evenodd" d="M3.00133 2.75C1.48269 2.75 0.251532 3.98099 0.25133 5.49963L0.25 15.4996C0.249798 17.0186 1.48107 18.25 3 18.25H20.9997C22.5185 18.25 23.7497 17.0188 23.7497 15.5V5.5C23.7497 3.98122 22.5185 2.75 20.9997 2.75L3.00133 2.75ZM1.75133 5.49983C1.75142 4.80954 2.31104 4.25 3.00133 4.25L20.9997 4.25C21.6901 4.25 22.2497 4.80964 22.2497 5.5V15.5C22.2497 16.1904 21.6901 16.75 20.9997 16.75H3C2.30958 16.75 1.74991 16.1903 1.75 15.4998L1.75133 5.49983Z" fill="black"/>
<path d="M5.99973 19.75C5.58552 19.75 5.24973 20.0858 5.24973 20.5C5.24973 20.9142 5.58552 21.25 5.99973 21.25H17.9997C18.4139 21.25 18.7497 20.9142 18.7497 20.5C18.7497 20.0858 18.4139 19.75 17.9997 19.75H5.99973Z" fill="black"/>
</svg>
