<svg width="25" height="24" viewBox="0 0 25 24" fill="none" xmlns="http://www.w3.org/2000/svg">
<path fill-rule="evenodd" clip-rule="evenodd" d="M3.25133 1.5C1.45657 1.5 0.00156823 2.95481 0.00132957 4.74957L2.93523e-08 14.7496C-0.000238628 16.5447 1.45491 18 3.25 18L21.2497 18C23.0447 18 24.4997 16.5449 24.4997 14.75V4.75C24.4997 2.95508 23.0447 1.5 21.2497 1.5L3.25133 1.5ZM2.50133 4.7499C2.50138 4.33573 2.83715 4 3.25133 4L21.2497 4C21.6639 4 21.9997 4.33578 21.9997 4.75V14.75C21.9997 15.1642 21.6639 15.5 21.2497 15.5H3.25C2.83575 15.5 2.49994 15.1642 2.5 14.7499L2.50133 4.7499Z" fill="black"/>
<path d="M6.24973 20C5.55938 20 4.99973 20.5596 4.99973 21.25C4.99973 21.9404 5.55938 22.5 6.24973 22.5H18.2497C18.9401 22.5 19.4997 21.9404 19.4997 21.25C19.4997 20.5596 18.9401 20 18.2497 20H6.24973Z" fill="black"/>
</svg>
