<svg width="24" height="24" viewBox="0 0 24 24" fill="none" xmlns="http://www.w3.org/2000/svg">
<path fill-rule="evenodd" clip-rule="evenodd" d="M18.2402 13.165C18.1043 13.8382 17.8604 14.5022 17.498 15.1299C17.2395 15.5776 16.9326 15.9813 16.5928 16.3418C16.7687 16.8664 16.729 17.4607 16.4307 17.9775C15.8785 18.9338 14.6557 19.2617 13.6992 18.71C13.4854 18.5865 13.3044 18.4271 13.1562 18.2471C11.9668 18.488 10.707 18.4009 9.52344 17.9414L10.541 16.1787C11.2952 16.4123 12.0839 16.4383 12.8291 16.2754C12.8671 16.1745 12.9111 16.074 12.9668 15.9775C13.4103 15.2096 14.2863 14.8477 15.1094 15.0205C15.1046 15.0195 15.0995 15.0185 15.0947 15.0176C15.3485 14.7562 15.5751 14.4597 15.7656 14.1299C15.9451 13.819 16.0821 13.4946 16.1807 13.165H18.2402ZM14.9492 16.5449C14.7102 16.4069 14.4038 16.4886 14.2656 16.7275C14.1276 16.9667 14.2101 17.2721 14.4492 17.4102C14.6883 17.548 14.9938 17.4666 15.1318 17.2275C15.2696 16.9887 15.1877 16.6831 14.9492 16.5449Z" fill="black"/>
<path fill-rule="evenodd" clip-rule="evenodd" d="M8.59863 8.78711C8.36251 9.03723 8.15118 9.31903 7.97168 9.62988C7.78127 9.95973 7.63752 10.3039 7.53809 10.6543L7.62988 10.7676C8.10247 11.3896 8.18546 12.2586 7.77051 12.9775C7.71477 13.0741 7.6495 13.1626 7.58105 13.2461C7.81256 13.9731 8.22996 14.6422 8.80957 15.1787L7.79102 16.9414C6.80103 16.1459 6.09493 15.0983 5.70898 13.9473C5.47976 13.9089 5.25221 13.8329 5.03906 13.71C4.08248 13.1577 3.75436 11.9341 4.30664 10.9775C4.60494 10.4611 5.09973 10.1297 5.6416 10.0195C5.78387 9.54473 5.98068 9.07783 6.23926 8.62988C6.6016 8.00236 7.05438 7.45817 7.56934 7.00391L8.59863 8.78711ZM6.28906 11.5449C6.05 11.4069 5.74361 11.4886 5.60547 11.7275C5.46743 11.9667 5.54993 12.2721 5.78906 12.4102C6.02815 12.5479 6.33369 12.4665 6.47168 12.2275C6.60936 11.9887 6.52753 11.6831 6.28906 11.5449Z" fill="black"/>
<path fill-rule="evenodd" clip-rule="evenodd" d="M13.2393 5.52344C13.8299 4.69193 14.9681 4.43095 15.8691 4.95117C16.7698 5.4715 17.1112 6.58663 16.6865 7.51367C17.6139 8.53662 18.1793 9.82117 18.3291 11.1641H16.3105C16.1602 10.2343 15.7212 9.35671 15.0303 8.67578C14.6392 8.7078 14.2347 8.62597 13.8691 8.41504C13.5473 8.22924 13.2976 7.96715 13.1279 7.66504L13.0625 7.53906C12.1274 7.28129 11.1469 7.33918 10.2666 7.67383L9.25684 5.92676C10.4945 5.38507 11.8899 5.2321 13.2393 5.52344ZM15.1191 6.25C14.8801 6.11199 14.5737 6.19465 14.4355 6.43359C14.2977 6.6727 14.3801 6.97819 14.6191 7.11621C14.8581 7.25384 15.1637 7.17242 15.3018 6.93359C15.4395 6.69462 15.3579 6.38814 15.1191 6.25Z" fill="black"/>
<path fill-rule="evenodd" clip-rule="evenodd" d="M12 0C18.6272 4.05061e-05 23.9998 5.3728 24 12C24 18.6273 18.6273 24.0008 12 24.001C5.37269 24.0008 0 18.6273 0 12C0.000229722 5.37278 5.37273 0 12 0ZM12 2C6.47736 2.00008 2.00023 6.4774 2 12C2 17.5228 6.47718 22 12 22C17.5228 21.9999 22 17.5228 22 12C21.9998 6.47742 17.5226 2.00012 12 2Z" fill="black"/>
</svg>
