<svg width="24" height="24" viewBox="0 0 24 24" fill="none" xmlns="http://www.w3.org/2000/svg">
<path fill-rule="evenodd" clip-rule="evenodd" d="M18.2861 12.915C18.1638 13.674 17.9052 14.4245 17.498 15.1299C17.2395 15.5777 16.9327 15.9812 16.5928 16.3418C16.7687 16.8664 16.729 17.4606 16.4307 17.9775C15.8785 18.9339 14.6557 19.2618 13.6992 18.71C13.4855 18.5866 13.3044 18.428 13.1562 18.248C11.8884 18.5049 10.5411 18.3867 9.29102 17.8447L10.0469 16.5361C10.9121 16.8758 11.8314 16.9571 12.707 16.8076C12.7067 16.8119 12.7074 16.817 12.707 16.8213C12.7295 16.5331 12.8126 16.2446 12.9668 15.9775C13.5192 15.0213 14.7428 14.6939 15.6992 15.2461C15.6698 15.2291 15.6383 15.2145 15.6084 15.1992C15.828 14.9513 16.0272 14.6779 16.1992 14.3799C16.4696 13.9115 16.6544 13.4169 16.7607 12.915H18.2861ZM14.9492 16.5449C14.7102 16.4069 14.4038 16.4887 14.2656 16.7275C14.1276 16.9667 14.2101 17.2731 14.4492 17.4111C14.6883 17.5487 14.9939 17.4665 15.1318 17.2275C15.2694 16.9886 15.1878 16.6831 14.9492 16.5449Z" fill="black"/>
<path fill-rule="evenodd" clip-rule="evenodd" d="M8.52637 8.16016C8.14484 8.50319 7.80953 8.91152 7.53906 9.37988C7.36702 9.67787 7.22799 9.98663 7.12305 10.3008L7.21094 10.3574C8.03246 10.9505 8.28781 12.0811 7.77051 12.9775C7.61866 13.2405 7.41446 13.4545 7.18066 13.6172C7.48911 14.4508 8.02069 15.2064 8.74805 15.7861L7.99219 17.0947C6.89728 16.2829 6.12048 15.1752 5.70898 13.9482C5.47972 13.9099 5.25225 13.8329 5.03906 13.71C4.08248 13.1577 3.75436 11.9341 4.30664 10.9775C4.60495 10.4612 5.0998 10.1297 5.6416 10.0195C5.78389 9.54474 5.98067 9.07781 6.23926 8.62988C6.6465 7.92459 7.16659 7.32424 7.7627 6.83887L8.52637 8.16016ZM6.28906 11.5449C6.05006 11.4069 5.74366 11.4887 5.60547 11.7275C5.4674 11.9667 5.54992 12.2731 5.78906 12.4111C6.0281 12.5486 6.33375 12.4664 6.47168 12.2275C6.60922 11.9887 6.52756 11.6831 6.28906 11.5449Z" fill="black"/>
<path fill-rule="evenodd" clip-rule="evenodd" d="M13.2393 5.52441C13.8298 4.69271 14.968 4.4309 15.8691 4.95117C16.77 5.47153 17.1114 6.5875 16.6865 7.51465C17.671 8.60078 18.2473 9.98144 18.3516 11.4141L16.8467 11.415C16.7473 10.3614 16.3151 9.34969 15.5947 8.54492C15.049 8.75735 14.4158 8.73134 13.8691 8.41602C13.3195 8.09866 12.9783 7.55908 12.8916 6.97656C12.892 6.97933 12.8922 6.98259 12.8926 6.98535C11.8357 6.7641 10.7441 6.89533 9.78223 7.33594L9.0293 6.03223C10.322 5.40609 11.8064 5.21505 13.2393 5.52441ZM15.1191 6.25098C14.8801 6.11296 14.5737 6.19465 14.4355 6.43359C14.2975 6.67273 14.38 6.97815 14.6191 7.11621C14.8582 7.25398 15.1638 7.17261 15.3018 6.93359C15.4395 6.69473 15.3576 6.38919 15.1191 6.25098Z" fill="black"/>
<path fill-rule="evenodd" clip-rule="evenodd" d="M12 0C18.6274 3.61249e-05 24 5.37359 24 12.001C23.9998 18.6282 18.6272 24.0008 12 24.001C5.37269 24.0008 0 18.6273 0 12C0.000379452 5.37291 5.37282 0 12 0ZM12 1.50098C6.20117 1.50116 1.5 6.2021 1.5 12.001C1.50015 17.7997 6.20126 22.5008 12 22.501C17.7987 22.5008 22.4999 17.7997 22.5 12.001C22.5 6.20212 17.7988 1.5012 12 1.50098Z" fill="black"/>
</svg>
