<svg width="24" height="24" viewBox="0 0 24 24" fill="none" xmlns="http://www.w3.org/2000/svg">
<path fill-rule="evenodd" clip-rule="evenodd" d="M18.1846 13.415C18.0416 14.002 17.8153 14.5793 17.498 15.1289C17.2395 15.5767 16.9327 15.9803 16.5928 16.3408C16.7688 16.8655 16.729 17.4606 16.4307 17.9775C15.8784 18.9338 14.6556 19.2609 13.6992 18.709C13.4854 18.5855 13.3044 18.4271 13.1562 18.2471C12.0465 18.4719 10.8759 18.41 9.7627 18.0273L11.0518 15.7939C11.7763 15.9452 12.5208 15.8896 13.2031 15.6484C13.1757 15.6794 13.1507 15.7131 13.125 15.7461C13.4384 15.3443 13.8833 15.0869 14.3623 15.0049C14.7423 14.7018 15.0753 14.3252 15.333 13.8789C15.4204 13.7275 15.4959 13.5722 15.5615 13.415H18.1846ZM14.9492 16.5439C14.7102 16.4059 14.4038 16.4886 14.2656 16.7275C14.1278 16.9666 14.2102 17.2721 14.4492 17.4102C14.6882 17.5478 14.9938 17.4664 15.1318 17.2275C15.2696 16.9886 15.188 16.6821 14.9492 16.5439Z" fill="black"/>
<path fill-rule="evenodd" clip-rule="evenodd" d="M8.69141 9.44824C8.58804 9.58369 8.49177 9.72744 8.4043 9.87891C8.14654 10.3254 7.98652 10.8015 7.91406 11.2822C8.06878 11.7006 8.08277 12.1683 7.93652 12.6074C8.06874 13.3193 8.39322 13.9919 8.88672 14.5439L7.59766 16.7773C6.70907 16.0042 6.06917 15.0214 5.70898 13.9473C5.47965 13.9089 5.2523 13.832 5.03906 13.709C4.08253 13.1567 3.75448 11.9341 4.30664 10.9775C4.60494 10.4611 5.09971 10.1297 5.6416 10.0195C5.78392 9.54456 5.98055 9.077 6.23926 8.62891C6.5566 8.07933 6.9431 7.59408 7.37988 7.17676L8.69141 9.44824ZM6.28906 11.5439C6.05 11.4059 5.74361 11.4886 5.60547 11.7275C5.4676 11.9666 5.55 12.2721 5.78906 12.4102C6.02807 12.5478 6.33367 12.4664 6.47168 12.2275C6.60945 11.9886 6.52777 11.6821 6.28906 11.5439Z" fill="black"/>
<path fill-rule="evenodd" clip-rule="evenodd" d="M13.2393 5.52344C13.8298 4.69179 14.968 4.43091 15.8691 4.95117C16.7698 5.47158 17.1113 6.58663 16.6865 7.51367C17.5561 8.47295 18.1061 9.66236 18.2949 10.9141H15.749C15.496 9.8976 14.8478 8.98027 13.8691 8.41504C12.8901 7.8498 11.7707 7.74592 10.7637 8.03516L9.49023 5.83105C10.6685 5.3687 11.9738 5.25022 13.2393 5.52344ZM15.1191 6.25C14.8802 6.11203 14.5738 6.19387 14.4355 6.43262C14.2975 6.67176 14.38 6.97814 14.6191 7.11621C14.8582 7.25378 15.1638 7.17155 15.3018 6.93262C15.4392 6.69374 15.3577 6.38811 15.1191 6.25Z" fill="black"/>
<path fill-rule="evenodd" clip-rule="evenodd" d="M12 0C18.6273 4.48889e-05 23.9999 5.37268 24 12C24 18.6273 18.6273 23.9998 12 24C5.37274 23.9999 7.78438e-05 18.6273 0 12C0.000157823 5.37272 5.37268 0 12 0ZM12 2.5C6.7534 2.5 2.50016 6.75344 2.5 12C2.50008 17.2466 6.75346 21.4999 12 21.5C17.2466 21.4998 21.5 17.2466 21.5 12C21.4999 6.75339 17.2466 2.50004 12 2.5Z" fill="black"/>
</svg>
