<svg width="24" height="24" viewBox="0 0 24 24" fill="none" xmlns="http://www.w3.org/2000/svg">
<path fill-rule="evenodd" clip-rule="evenodd" d="M12 0C18.6273 5.80315e-05 23.9998 5.37275 24 12C24 18.6273 18.6273 23.9998 12 24C5.37269 23.9999 0 18.6273 0 12C0.000158592 5.37272 5.37268 0 12 0ZM16.1807 13.165C16.0821 13.4945 15.9451 13.8191 15.7656 14.1299C15.5749 14.4601 15.3469 14.7561 15.0928 15.0176C14.2745 14.853 13.4073 15.2148 12.9668 15.9775C12.9114 16.0734 12.867 16.1731 12.8291 16.2734C12.084 16.4361 11.2953 16.4123 10.541 16.1787L9.52344 17.9414C10.7074 18.401 11.9685 18.4891 13.1582 18.248C13.3062 18.4275 13.4859 18.5868 13.6992 18.71C14.6556 19.2616 15.8785 18.9337 16.4307 17.9775C16.7285 17.4614 16.7687 16.8678 16.5938 16.3438C16.934 15.983 17.2393 15.578 17.498 15.1299C17.8604 14.5023 18.1043 13.8382 18.2402 13.165H16.1807ZM7.56934 7.00391C7.05438 7.45817 6.6016 8.00236 6.23926 8.62988C5.9806 9.07798 5.78093 9.54459 5.63867 10.0195C5.09776 10.1302 4.60448 10.4618 4.30664 10.9775C3.75439 11.9341 4.08249 13.1577 5.03906 13.71C5.25191 13.8327 5.47912 13.9088 5.70801 13.9473C6.09404 15.0983 6.80093 16.1458 7.79102 16.9414L8.80957 15.1787C8.22987 14.6421 7.81471 13.9711 7.58301 13.2441C7.65082 13.1612 7.71521 13.0733 7.77051 12.9775C8.21099 12.2143 8.09026 11.2817 7.53809 10.6553C7.63746 10.3045 7.78109 9.96006 7.97168 9.62988C8.15117 9.31905 8.36253 9.03721 8.59863 8.78711L7.56934 7.00391ZM15.8691 4.95117C14.9678 4.4308 13.8297 4.69233 13.2393 5.52441C11.8899 5.23302 10.4945 5.38508 9.25684 5.92676L10.2666 7.67383C11.1474 7.33899 12.1279 7.28272 13.0635 7.54102C13.2314 7.89518 13.504 8.20423 13.8691 8.41504C14.234 8.62555 14.638 8.70634 15.0283 8.6748C15.7198 9.35595 16.1601 10.2337 16.3105 11.1641H18.3291C18.1793 9.82124 17.6126 8.5376 16.6855 7.51465C17.111 6.5874 16.7701 5.47175 15.8691 4.95117Z" fill="black"/>
</svg>
