<svg width="24" height="24" viewBox="0 0 24 24" fill="none" xmlns="http://www.w3.org/2000/svg">
<path fill-rule="evenodd" clip-rule="evenodd" d="M18.3223 12.6641C18.22 13.508 17.9499 14.3461 17.498 15.1289C17.2395 15.5767 16.9327 15.9803 16.5928 16.3408C16.7688 16.8655 16.729 17.4606 16.4307 17.9775C15.8783 18.9337 14.6556 19.2608 13.6992 18.709C13.4854 18.5855 13.3044 18.4271 13.1562 18.2471C11.8107 18.5196 10.3757 18.3697 9.0625 17.7393L9.56445 16.8711C10.581 17.3417 11.6803 17.4754 12.7266 17.3096C12.6517 16.867 12.7249 16.3967 12.9668 15.9775C13.5192 15.0212 14.7427 14.6929 15.6992 15.2451C15.8241 15.3173 15.9383 15.401 16.041 15.4941C16.0359 15.4895 16.0306 15.4851 16.0254 15.4805C16.2496 15.2211 16.4541 14.9368 16.6318 14.6289C16.9926 14.0039 17.2156 13.3372 17.3125 12.6641H18.3223ZM15.1992 16.1113C14.721 15.8352 14.1092 15.9995 13.833 16.4775C13.5571 16.9558 13.721 17.5667 14.1992 17.8428C14.6774 18.1186 15.2893 17.9557 15.5654 17.4775C15.8412 16.9995 15.677 16.3876 15.1992 16.1113Z" fill="black"/>
<path fill-rule="evenodd" clip-rule="evenodd" d="M8.4668 7.55664C7.93233 7.97708 7.46629 8.50404 7.10547 9.12891C6.92771 9.4368 6.78346 9.75526 6.6709 10.0791C6.66419 10.0769 6.65712 10.0744 6.65039 10.0723C6.78295 10.1148 6.9136 10.1727 7.03906 10.2451C7.9951 10.7975 8.32247 12.0212 7.77051 12.9775C7.52832 13.3968 7.15637 13.6942 6.73535 13.8506C7.11486 14.8404 7.78169 15.7257 8.69824 16.3711L8.19629 17.2393C6.9934 16.417 6.1456 15.2493 5.70898 13.9473C5.47967 13.9089 5.25229 13.832 5.03906 13.709C4.08257 13.1568 3.75458 11.9341 4.30664 10.9775C4.60494 10.4611 5.09971 10.1297 5.6416 10.0195C5.78392 9.54457 5.98056 9.07699 6.23926 8.62891C6.69108 7.84641 7.28144 7.19313 7.96094 6.68262L8.4668 7.55664ZM6.53906 11.1113C6.06086 10.8352 5.44907 10.9995 5.17285 11.4775C4.89687 11.9558 5.06084 12.5667 5.53906 12.8428C6.01714 13.1185 6.62811 12.9553 6.9043 12.4775C7.1801 11.9995 7.01675 11.3876 6.53906 11.1113Z" fill="black"/>
<path fill-rule="evenodd" clip-rule="evenodd" d="M13.248 5.51172C13.841 4.68953 14.9723 4.43341 15.8691 4.95117C16.7698 5.4716 17.1113 6.58663 16.6865 7.51367C17.7284 8.66306 18.3124 10.1424 18.3643 11.6641H17.3643C17.3151 10.4376 16.8567 9.24579 16.0449 8.29883C15.4255 8.74899 14.5751 8.82233 13.8691 8.41504C13.1628 8.00724 12.7994 7.23363 12.8799 6.47168C11.6542 6.24251 10.393 6.44218 9.30664 7.0127L8.80664 6.14648C10.1503 5.43052 11.7239 5.19594 13.2402 5.52344C13.2041 5.57438 13.1686 5.62744 13.1367 5.68262L13.248 5.51172ZM16.459 7.8916C16.4667 7.88165 16.4759 7.87246 16.4834 7.8623L16.4893 7.85449C16.4799 7.86736 16.4686 7.87903 16.459 7.8916ZM15.3691 5.81738C14.891 5.54136 14.2792 5.70476 14.0029 6.18262C13.7268 6.66091 13.8909 7.27268 14.3691 7.54883C14.8474 7.82457 15.4583 7.66074 15.7344 7.18262C16.0101 6.70462 15.8467 6.09368 15.3691 5.81738Z" fill="black"/>
<path fill-rule="evenodd" clip-rule="evenodd" d="M12 0C18.6274 3.17456e-05 24 5.37261 24 12C24 18.6273 18.6273 23.9998 12 24C5.37279 23.9999 0.000156449 18.6272 0 12C0.000157823 5.37272 5.37268 0 12 0ZM12 1C5.92496 1.00003 1.00011 5.92498 1 12C1.00011 18.075 5.925 22.9999 12 23C18.075 22.9999 22.9999 18.075 23 12C22.9999 5.92496 18.075 1.00006 12 1Z" fill="black"/>
</svg>
