<svg width="24" height="24" viewBox="0 0 24 24" fill="none" xmlns="http://www.w3.org/2000/svg">
<path fill-rule="evenodd" clip-rule="evenodd" d="M12 0C18.6274 5.36499e-05 24 5.3736 24 12.001C23.9998 18.6281 18.6271 24.0008 12 24.001C5.37269 24.0008 0 18.6273 0 12C0.000308325 5.37285 5.37277 0 12 0ZM16.7607 12.9141C16.6544 13.4161 16.4697 13.9114 16.1992 14.3799C16.0272 14.6779 15.827 14.9503 15.6074 15.1982C14.6656 14.7164 13.5019 15.0512 12.9668 15.9775C12.8152 16.2401 12.7322 16.5233 12.708 16.8066C11.8322 16.9561 10.9123 16.8759 10.0469 16.5361L9.29102 17.8447C10.5409 18.3866 11.8888 18.5043 13.1562 18.248C13.3044 18.428 13.4855 18.5866 13.6992 18.71C14.6557 19.2617 15.8785 18.9339 16.4307 17.9775C16.7285 17.4614 16.7687 16.8678 16.5938 16.3438C16.934 15.9831 17.2393 15.578 17.498 15.1299C17.9052 14.4246 18.1638 13.674 18.2861 12.915L16.7607 12.9141ZM7.7627 6.83887C7.16661 7.32424 6.64649 7.92461 6.23926 8.62988C5.98053 9.07807 5.78092 9.54453 5.63867 10.0195C5.0978 10.1302 4.6045 10.4619 4.30664 10.9775C3.75436 11.9341 4.08248 13.1577 5.03906 13.71C5.25251 13.8331 5.48041 13.9099 5.70996 13.9482C6.12181 15.1744 6.89761 16.2831 7.99219 17.0947L8.74805 15.7861C8.02058 15.2063 7.48917 14.4499 7.18066 13.6162C7.41415 13.4536 7.61882 13.2403 7.77051 12.9775C8.30542 12.0506 8.01287 10.8753 7.12402 10.3008C7.22896 9.98658 7.36698 9.67794 7.53906 9.37988C7.80946 8.9116 8.14396 8.50315 8.52539 8.16016L7.7627 6.83887ZM15.8691 4.95117C14.968 4.43093 13.8308 4.69284 13.2402 5.52441C11.8073 5.21494 10.3222 5.40602 9.0293 6.03223L9.78223 7.33594C10.7441 6.89532 11.8358 6.76419 12.8926 6.98535C12.9814 7.56454 13.3222 8.10024 13.8691 8.41602C14.4158 8.7313 15.0491 8.75733 15.5947 8.54492C16.3146 9.34959 16.7472 10.3606 16.8467 11.4141H18.3516C18.2473 9.98127 17.6709 8.5999 16.6865 7.51367C17.1111 6.58664 16.7698 5.47147 15.8691 4.95117Z" fill="black"/>
</svg>
