<svg width="24" height="24" viewBox="0 0 24 24" fill="none" xmlns="http://www.w3.org/2000/svg">
<path fill-rule="evenodd" clip-rule="evenodd" d="M12 0C18.6274 6.2415e-05 24 5.37263 24 12C24 18.6273 18.6273 23.9998 12 24C5.37278 23.9999 0.000148976 18.6272 0 12C0.000157823 5.37272 5.37268 0 12 0ZM15.5615 13.415C15.4959 13.5722 15.4204 13.7275 15.333 13.8789C15.0746 14.3265 14.7396 14.7026 14.3584 15.0059C13.9207 15.0817 13.5102 15.3029 13.2041 15.6475C12.5216 15.8885 11.7765 15.9452 11.0518 15.7939L9.7627 18.0273C10.8757 18.4099 12.0468 18.4714 13.1562 18.2471C13.3044 18.4271 13.4854 18.5855 13.6992 18.709C14.6556 19.2608 15.8784 18.9337 16.4307 17.9775C16.7287 17.4612 16.768 16.867 16.5928 16.3428C16.9331 15.982 17.2392 15.5772 17.498 15.1289C17.8153 14.5793 18.0416 14.002 18.1846 13.415H15.5615ZM7.37988 7.17676C6.9431 7.59409 6.5566 8.07932 6.23926 8.62891C5.9804 9.07726 5.78193 9.54434 5.63965 10.0195C5.09839 10.1301 4.60464 10.4616 4.30664 10.9775C3.75455 11.9341 4.08256 13.1567 5.03906 13.709C5.25256 13.8322 5.48035 13.9089 5.70996 13.9473C6.07047 15.0207 6.70943 16.0045 7.59766 16.7773L8.88672 14.5439C8.39308 13.9917 8.069 13.3183 7.93652 12.6064C8.08195 12.1689 8.06836 11.7032 7.91504 11.2861C7.98705 10.8044 8.14589 10.3265 8.4043 9.87891C8.49177 9.72743 8.58805 9.5837 8.69141 9.44824L7.37988 7.17676ZM15.8691 4.95117C14.9675 4.43062 13.8296 4.69265 13.2393 5.52539C11.974 5.25253 10.6684 5.36873 9.49023 5.83105L10.7637 8.03516C11.7707 7.74592 12.8901 7.8498 13.8691 8.41504C14.8478 8.98027 15.496 9.89763 15.749 10.9141H18.2949C18.1062 9.66268 17.5542 8.47486 16.6855 7.51562C17.1116 6.58825 16.7703 5.47194 15.8691 4.95117Z" fill="black"/>
</svg>
