<svg width="24" height="24" viewBox="0 0 24 24" fill="none" xmlns="http://www.w3.org/2000/svg">
<path fill-rule="evenodd" clip-rule="evenodd" d="M12 0C18.6274 4.92676e-05 24 5.3736 24 12.001C23.9999 18.6282 18.6272 24.0008 12 24.001C5.37283 24.0008 0.000227579 18.6281 0 12.001C0.000157823 5.37369 5.37268 0 12 0ZM17.3125 12.665C17.2156 13.3382 16.9926 14.0049 16.6318 14.6299C16.4541 14.9378 16.2505 15.2221 16.0264 15.4814C15.9275 15.3939 15.818 15.3147 15.6992 15.2461C14.7428 14.6939 13.5192 15.0214 12.9668 15.9775C12.7249 16.3965 12.6519 16.8671 12.7266 17.3096C11.6805 17.475 10.5809 17.3426 9.56445 16.8721L9.0625 17.7402C10.3756 18.3706 11.812 18.5201 13.1572 18.248C13.3053 18.4278 13.4857 18.5867 13.6992 18.71C14.6557 19.2618 15.8785 18.934 16.4307 17.9775C16.7287 17.461 16.7692 16.8671 16.5938 16.3428C16.9337 15.9822 17.2394 15.5778 17.498 15.1299C17.9499 14.3471 18.22 13.509 18.3223 12.665H17.3125ZM7.96094 6.68262C7.28126 7.19318 6.69117 7.84723 6.23926 8.62988C5.9806 9.07792 5.78287 9.54471 5.64062 10.0195C5.09915 10.1298 4.60483 10.4615 4.30664 10.9775C3.75436 11.9341 4.08248 13.1577 5.03906 13.71C5.25226 13.833 5.4797 13.9099 5.70898 13.9482C6.14601 15.2494 6.99366 16.4182 8.19629 17.2402L8.69824 16.3721C7.78197 15.7269 7.11612 14.8407 6.73633 13.8516C7.15703 13.695 7.52853 13.3966 7.77051 12.9775C8.32223 12.0213 7.99495 10.7985 7.03906 10.2461C6.91987 10.1773 6.79558 10.1211 6.66992 10.0791C6.78243 9.75543 6.92778 9.43765 7.10547 9.12988C7.46629 8.505 7.93232 7.97806 8.4668 7.55762L7.96094 6.68262ZM15.8691 4.95215C14.9675 4.43158 13.8295 4.69355 13.2393 5.52637C11.7233 5.19945 10.15 5.43161 8.80664 6.14746L9.30664 7.01367C10.3932 6.44303 11.655 6.24343 12.8809 6.47266C12.8005 7.23448 13.1629 8.00828 13.8691 8.41602C14.5747 8.82301 15.4237 8.74923 16.043 8.2998C16.8546 9.24689 17.3151 10.4384 17.3643 11.665H18.3643C18.3125 10.1437 17.7255 8.66595 16.6846 7.5166C17.1111 6.58909 16.7705 5.47307 15.8691 4.95215Z" fill="black"/>
</svg>
