<svg width="24" height="24" viewBox="0 0 24 24" fill="none" xmlns="http://www.w3.org/2000/svg">
<path fill-rule="evenodd" clip-rule="evenodd" d="M12 3.5C15.0269 3.5 17.5303 5.74141 17.941 8.65501C21.5603 9.51597 24 11.1394 24 13.0002C24 14.5163 22.3806 15.8748 19.8231 16.7917L21.0825 18.9731C21.4277 19.5709 21.2229 20.3354 20.625 20.6806C20.0271 21.0258 19.2626 20.8209 18.9175 20.2231L17.4175 17.625C17.3898 17.577 17.3656 17.5279 17.3449 17.4781C16.0892 17.7388 14.7084 17.9105 13.25 17.9734V20.75C13.25 21.4404 12.6904 22 12 22C11.3096 22 10.75 21.4404 10.75 20.75V17.9734C9.29164 17.9105 7.91081 17.7388 6.6551 17.4781C6.6344 17.5279 6.61024 17.577 6.58253 17.625L5.08253 20.2231C4.73735 20.8209 3.97287 21.0258 3.375 20.6806C2.77713 20.3354 2.57229 19.5709 2.91747 18.9731L4.17686 16.7917C1.61943 15.8748 0 14.5163 0 13.0002C0 11.1394 2.4397 9.51597 6.05904 8.65501C6.46971 5.74141 8.9731 3.5 12 3.5ZM14.9823 9.82274C14.2504 10.0708 13.2109 10.25 12.0014 10.25C10.7885 10.25 9.74678 10.0698 9.01486 9.82084C8.79935 9.74754 8.62994 9.67481 8.50168 9.61029C8.50057 9.57372 8.5 9.53695 8.5 9.5C8.5 7.567 10.067 6 12 6C13.933 6 15.5 7.567 15.5 9.5C15.5 9.53742 15.4994 9.57465 15.4983 9.61168C15.3691 9.67648 15.1987 9.74939 14.9823 9.82274ZM15.778 9.43959L15.7748 9.4427L15.7791 9.43891L15.7803 9.4378C15.7806 9.4375 15.7803 9.43781 15.7803 9.4378L15.778 9.43959ZM8.2218 9.4371C8.22174 9.43712 8.22239 9.43781 8.22384 9.43913L8.22794 9.44275C8.22407 9.43891 8.22191 9.43706 8.2218 9.4371ZM18.25 13.5C18.25 14.1904 17.6904 14.75 17 14.75C16.3096 14.75 15.75 14.1904 15.75 13.5C15.75 12.8096 16.3096 12.25 17 12.25C17.6904 12.25 18.25 12.8096 18.25 13.5ZM7 14.75C7.69036 14.75 8.25 14.1904 8.25 13.5C8.25 12.8096 7.69036 12.25 7 12.25C6.30964 12.25 5.75 12.8096 5.75 13.5C5.75 14.1904 6.30964 14.75 7 14.75ZM12 15.6499C12.6904 15.6499 13.25 15.0903 13.25 14.3999C13.25 13.7095 12.6904 13.1499 12 13.1499C11.3096 13.1499 10.75 13.7095 10.75 14.3999C10.75 15.0903 11.3096 15.6499 12 15.6499Z" fill="black"/>
</svg>
