<svg width="24" height="24" viewBox="0 0 24 24" fill="none" xmlns="http://www.w3.org/2000/svg">
<path d="M13.25 13.4C13.25 14.0904 12.6904 14.65 12 14.65C11.3096 14.65 10.75 14.0904 10.75 13.4C10.75 12.7096 11.3096 12.15 12 12.15C12.6904 12.15 13.25 12.7096 13.25 13.4Z" fill="black"/>
<path d="M7 13.75C7.69036 13.75 8.25 13.1904 8.25 12.5C8.25 11.8096 7.69036 11.25 7 11.25C6.30964 11.25 5.75 11.8096 5.75 12.5C5.75 13.1904 6.30964 13.75 7 13.75Z" fill="black"/>
<path d="M18.25 12.5C18.25 13.1904 17.6904 13.75 17 13.75C16.3096 13.75 15.75 13.1904 15.75 12.5C15.75 11.8096 16.3096 11.25 17 11.25C17.6904 11.25 18.25 11.8096 18.25 12.5Z" fill="black"/>
<path fill-rule="evenodd" clip-rule="evenodd" d="M6.05904 8.655C2.4397 9.51597 0 11.1394 0 13.0002C0 14.5163 1.61944 15.8748 4.17686 16.7917L2.91747 18.9731C2.57229 19.5709 2.77713 20.3354 3.375 20.6806C3.97287 21.0258 4.73735 20.8209 5.08253 20.2231L6.66604 17.4804C7.91883 17.7398 9.29587 17.9107 10.75 17.9734V20.75C10.75 21.4404 11.3096 22 12 22C12.6904 22 13.25 21.4404 13.25 20.75V17.9734C14.7084 17.9105 16.0892 17.7388 17.3449 17.4781C17.3656 17.5279 17.3898 17.577 17.4175 17.625L18.9175 20.2231C19.2626 20.8209 20.0271 21.0258 20.625 20.6806C21.2229 20.3354 21.4277 19.5709 21.0825 18.9731L19.8231 16.7917C22.3806 15.8748 24 14.5163 24 13.0002C24 11.1394 21.5603 9.51597 17.941 8.655C17.5303 5.7414 15.0269 3.5 12 3.5C8.9731 3.5 6.46972 5.7414 6.05904 8.655ZM12 9.25C13.3823 9.25 14.5263 9.01636 15.2448 8.725C15.3003 8.70248 15.3515 8.68035 15.3984 8.65884C15.0221 7.13259 13.643 6 12 6C10.357 6 8.97794 7.13259 8.60155 8.65884C8.64851 8.68035 8.69968 8.70248 8.75521 8.725C9.47373 9.01636 10.6177 9.25 12 9.25ZM16.5005 10.9034C17.6639 11.1241 18.6868 11.4237 19.5237 11.7724C20.4287 12.1495 20.9978 12.5348 21.3025 12.835C21.3715 12.9029 21.4191 12.958 21.4514 13.0002C21.4191 13.0424 21.3715 13.0975 21.3025 13.1655C20.9978 13.4656 20.4287 13.851 19.5237 14.2281C17.7247 14.9777 15.0661 15.5002 12 15.5002C8.93387 15.5002 6.27527 14.9777 4.47626 14.2281C3.57129 13.851 3.00216 13.4656 2.69748 13.1655C2.62848 13.0975 2.58092 13.0424 2.54856 13.0002C2.58092 12.958 2.62848 12.9029 2.69748 12.835C3.00216 12.5348 3.57129 12.1495 4.47626 11.7724C5.31315 11.4237 6.33607 11.1241 7.4995 10.9034C8.59893 11.4226 10.2077 11.75 12 11.75C13.7923 11.75 15.4011 11.4226 16.5005 10.9034ZM21.5156 12.8963C21.516 12.8963 21.5148 12.9006 21.5107 12.9092C21.5132 12.9006 21.5152 12.8963 21.5156 12.8963ZM2.48437 12.8963C2.48478 12.8963 2.48683 12.9006 2.48932 12.9092C2.48522 12.9006 2.48397 12.8963 2.48437 12.8963ZM2.48437 13.1042C2.48397 13.1042 2.48522 13.0999 2.48932 13.0913C2.48683 13.0999 2.48478 13.1042 2.48437 13.1042ZM21.5106 13.0912C21.5148 13.0999 21.516 13.1042 21.5156 13.1042C21.5152 13.1042 21.5131 13.0999 21.5106 13.0912Z" fill="black"/>
</svg>
