<svg width="24" height="24" viewBox="0 0 24 24" fill="none" xmlns="http://www.w3.org/2000/svg">
<path fill-rule="evenodd" clip-rule="evenodd" d="M12 3.5C8.9731 3.5 6.46971 5.7414 6.05904 8.655C2.4397 9.51597 0 11.1394 0 13.0002C0 14.5633 1.72128 15.9588 4.4171 16.8756L3.13397 19.0981C2.85783 19.5764 3.02171 20.188 3.5 20.4641C3.97829 20.7402 4.58988 20.5764 4.86603 20.0981L6.36603 17.5C6.38032 17.4752 6.39343 17.4501 6.40539 17.4247C7.79744 17.7309 9.35147 17.9264 11 17.9831V20.75C11 21.3023 11.4477 21.75 12 21.75C12.5523 21.75 13 21.3023 13 20.75V17.9831C14.6485 17.9264 16.2026 17.7309 17.5946 17.4247C17.6066 17.4501 17.6197 17.4752 17.634 17.5L19.134 20.0981C19.4101 20.5764 20.0217 20.7402 20.5 20.4641C20.9783 20.188 21.1422 19.5764 20.866 19.0981L19.5829 16.8756C22.2787 15.9588 24 14.5633 24 13.0002C24 11.1394 21.5603 9.51597 17.941 8.655C17.5303 5.7414 15.0269 3.5 12 3.5ZM15.4327 9.18836C14.6417 9.5091 13.4313 9.75 12 9.75C10.5687 9.75 9.35831 9.5091 8.56732 9.18836C8.3265 9.0907 8.15571 8.99825 8.04101 8.92434C8.31975 6.98842 9.98636 5.5 12 5.5C14.0136 5.5 15.6803 6.98842 15.959 8.92434C15.8443 8.99825 15.6735 9.0907 15.4327 9.18836ZM19 12.5C19 13.0523 18.5523 13.5 18 13.5C17.4477 13.5 17 13.0523 17 12.5C17 11.9477 17.4477 11.5 18 11.5C18.5523 11.5 19 11.9477 19 12.5ZM6 13.5C6.55228 13.5 7 13.0523 7 12.5C7 11.9477 6.55228 11.5 6 11.5C5.44772 11.5 5 11.9477 5 12.5C5 13.0523 5.44772 13.5 6 13.5ZM12 14.5C12.5523 14.5 13 14.0523 13 13.5C13 12.9477 12.5523 12.5 12 12.5C11.4477 12.5 11 12.9477 11 13.5C11 14.0523 11.4477 14.5 12 14.5Z" fill="black"/>
</svg>
