<svg width="24" height="24" viewBox="0 0 24 24" fill="none" xmlns="http://www.w3.org/2000/svg">
<path fill-rule="evenodd" clip-rule="evenodd" d="M12 3.5C8.9731 3.5 6.46971 5.7414 6.05904 8.655C2.4397 9.51597 0 11.1394 0 13.0002C0 14.6554 1.93015 16.1227 4.90377 17.0327L3.56699 19.3481C3.42892 19.5872 3.51085 19.893 3.75 20.0311C3.98915 20.1692 4.29494 20.0872 4.43301 19.8481L5.90012 17.307C7.55312 17.7143 9.46094 17.9611 11.5 17.996V20.75C11.5 21.0261 11.7239 21.25 12 21.25C12.2761 21.25 12.5 21.0261 12.5 20.75V17.996C14.5391 17.9611 16.4469 17.7143 18.0999 17.307L19.567 19.8481C19.7051 20.0872 20.0109 20.1692 20.25 20.0311C20.4891 19.893 20.5711 19.5872 20.433 19.3481L19.0962 17.0327C22.0698 16.1227 24 14.6554 24 13.0002C24 11.1394 21.5603 9.51597 17.941 8.655C17.5303 5.7414 15.0269 3.5 12 3.5ZM15.8085 10.1151C14.8725 10.4946 13.5293 10.75 12 10.75C10.4707 10.75 9.12747 10.4946 8.19155 10.1151C7.72187 9.92462 7.39768 9.72026 7.20249 9.53866C7.05813 9.40435 7.01675 9.31506 7.0049 9.27629C7.12164 6.61898 9.31353 4.5 12 4.5C14.6865 4.5 16.8784 6.61898 16.9951 9.27629C16.9832 9.31506 16.9419 9.40435 16.7975 9.53866C16.6023 9.72026 16.2781 9.92462 15.8085 10.1151ZM18.75 13C18.75 13.4142 18.4142 13.75 18 13.75C17.5858 13.75 17.25 13.4142 17.25 13C17.25 12.5858 17.5858 12.25 18 12.25C18.4142 12.25 18.75 12.5858 18.75 13ZM6 13.75C6.41421 13.75 6.75 13.4142 6.75 13C6.75 12.5858 6.41421 12.25 6 12.25C5.58579 12.25 5.25 12.5858 5.25 13C5.25 13.4142 5.58579 13.75 6 13.75ZM12 14.75C12.4142 14.75 12.75 14.4142 12.75 14C12.75 13.5858 12.4142 13.25 12 13.25C11.5858 13.25 11.25 13.5858 11.25 14C11.25 14.4142 11.5858 14.75 12 14.75Z" fill="black"/>
</svg>
