<svg width="24" height="24" viewBox="0 0 24 24" fill="none" xmlns="http://www.w3.org/2000/svg">
<path d="M13 13.5C13 14.0523 12.5523 14.5 12 14.5C11.4477 14.5 11 14.0523 11 13.5C11 12.9477 11.4477 12.5 12 12.5C12.5523 12.5 13 12.9477 13 13.5Z" fill="black"/>
<path d="M6 13.5C6.55228 13.5 7 13.0523 7 12.5C7 11.9477 6.55228 11.5 6 11.5C5.44772 11.5 5 11.9477 5 12.5C5 13.0523 5.44772 13.5 6 13.5Z" fill="black"/>
<path d="M19 12.5C19 13.0523 18.5523 13.5 18 13.5C17.4477 13.5 17 13.0523 17 12.5C17 11.9477 17.4477 11.5 18 11.5C18.5523 11.5 19 11.9477 19 12.5Z" fill="black"/>
<path fill-rule="evenodd" clip-rule="evenodd" d="M17.941 8.655C17.5303 5.7414 15.0269 3.5 12 3.5C8.9731 3.5 6.46972 5.7414 6.05904 8.655C2.4397 9.51597 0 11.1394 0 13.0002C0 14.6096 1.82485 16.0414 4.65943 16.9559L3.35048 19.2231C3.14337 19.5818 3.26628 20.0405 3.625 20.2476C3.98372 20.4547 4.44241 20.3318 4.64952 19.9731L6.14952 17.375L6.12553 17.3612C7.65697 17.7201 9.39657 17.943 11.25 17.9906V20.75C11.25 21.1642 11.5858 21.5 12 21.5C12.4142 21.5 12.75 21.1642 12.75 20.75V17.9906C14.6034 17.943 16.343 17.7201 17.8745 17.3612L17.8505 17.375L19.3505 19.9731C19.5576 20.3318 20.0163 20.4547 20.375 20.2476C20.7337 20.0405 20.8566 19.5818 20.6495 19.2231L19.3406 16.9559C22.1751 16.0414 24 14.6096 24 13.0002C24 11.1394 21.5603 9.51597 17.941 8.655ZM12 10.25C13.4803 10.25 14.7571 10.0018 15.6206 9.65171C16.0549 9.4756 16.3203 9.29968 16.4569 9.17259C16.4681 9.16221 16.4778 9.15276 16.4862 9.14423C16.3052 6.82568 14.3655 5 12 5C9.63445 5 7.69482 6.82568 7.51381 9.14424C7.52221 9.15276 7.53191 9.16221 7.54306 9.17259C7.67967 9.29968 7.94513 9.4756 8.37944 9.65171C9.2429 10.0018 10.5197 10.25 12 10.25ZM6.37486 10.1218C7.22401 11.0726 9.42216 11.75 12 11.75C14.5778 11.75 16.776 11.0726 17.6251 10.1218C18.473 10.325 19.2405 10.571 19.9084 10.8493C20.8857 11.2565 21.5786 11.7032 22.0043 12.1226C22.4247 12.5367 22.5 12.8324 22.5 13.0002C22.5 13.168 22.4247 13.4637 22.0043 13.8779C21.5786 14.2972 20.8857 14.7439 19.9084 15.1511C17.9603 15.9628 15.1652 16.5002 12 16.5002C8.83484 16.5002 6.03968 15.9628 4.09164 15.1511C3.11435 14.7439 2.42139 14.2972 1.9957 13.8779C1.57528 13.4637 1.5 13.168 1.5 13.0002C1.5 12.8324 1.57528 12.5367 1.9957 12.1226C2.42139 11.7032 3.11435 11.2565 4.09164 10.8493C4.75955 10.571 5.52703 10.325 6.37486 10.1218Z" fill="black"/>
</svg>
