<svg width="24" height="24" viewBox="0 0 24 24" fill="none" xmlns="http://www.w3.org/2000/svg">
<path d="M12.5 14C12.5 14.2761 12.2761 14.5 12 14.5C11.7239 14.5 11.5 14.2761 11.5 14C11.5 13.7239 11.7239 13.5 12 13.5C12.2761 13.5 12.5 13.7239 12.5 14Z" fill="black"/>
<path d="M6 13.5C6.27614 13.5 6.5 13.2761 6.5 13C6.5 12.7239 6.27614 12.5 6 12.5C5.72386 12.5 5.5 12.7239 5.5 13C5.5 13.2761 5.72386 13.5 6 13.5Z" fill="black"/>
<path d="M18.5 13C18.5 13.2761 18.2761 13.5 18 13.5C17.7239 13.5 17.5 13.2761 17.5 13C17.5 12.7239 17.7239 12.5 18 12.5C18.2761 12.5 18.5 12.7239 18.5 13Z" fill="black"/>
<path fill-rule="evenodd" clip-rule="evenodd" d="M17.941 8.65501C21.5603 9.51598 24 11.1394 24 13.0002C24 14.7007 21.9628 16.2028 18.8499 17.1061L20.2165 19.4731C20.2855 19.5926 20.2446 19.7455 20.125 19.8146C20.0054 19.8836 19.8525 19.8426 19.7835 19.7231L18.3517 17.2432C16.5756 17.7058 14.488 17.9801 12.25 17.9992V20.75C12.25 20.8881 12.1381 21 12 21C11.8619 21 11.75 20.8881 11.75 20.75V17.9992C9.51198 17.9801 7.42444 17.7058 5.64828 17.2432L4.21651 19.7231C4.14747 19.8426 3.99457 19.8836 3.875 19.8146C3.75543 19.7455 3.71446 19.5926 3.78349 19.4731L5.15005 17.1061C2.03717 16.2028 0 14.7007 0 13.0002C0 11.1394 2.4397 9.51598 6.05904 8.65501C6.46971 5.74141 8.9731 3.5 12 3.5C15.0269 3.5 17.5303 5.74141 17.941 8.65501ZM12 11.25C13.5783 11.25 14.9879 10.9873 15.9963 10.5784C16.5014 10.3736 16.8843 10.1408 17.1381 9.90473C17.3813 9.67842 17.4788 9.47631 17.4968 9.30999C17.3968 6.36056 14.974 4 12 4C9.02602 4 6.60321 6.36056 6.50322 9.30999C6.52118 9.47632 6.61866 9.67842 6.86192 9.90473C7.1157 10.1408 7.49861 10.3736 8.00366 10.5784C9.01205 10.9873 10.4217 11.25 12 11.25ZM17.9917 9.1818C17.9942 9.2289 17.9961 9.27615 17.9975 9.32353C17.9041 10.6702 15.2547 11.75 12 11.75C8.74532 11.75 6.0959 10.6702 6.00254 9.32353C6.00391 9.27615 6.00583 9.2289 6.00829 9.1818C5.16401 9.39039 4.39111 9.64121 3.70703 9.92624C2.6574 10.3636 1.84063 10.8716 1.29391 11.4102C0.748951 11.9471 0.5 12.4841 0.5 13.0002C0.5 13.5164 0.748951 14.0534 1.29391 14.5903C1.84063 15.1289 2.6574 15.6369 3.70703 16.0742C5.80409 16.948 8.73581 17.5002 12 17.5002C15.2642 17.5002 18.1959 16.948 20.293 16.0742C21.3426 15.6369 22.1594 15.1289 22.7061 14.5903C23.251 14.0534 23.5 13.5164 23.5 13.0002C23.5 12.4841 23.251 11.9471 22.7061 11.4102C22.1594 10.8716 21.3426 10.3636 20.293 9.92624C19.6089 9.64121 18.836 9.39039 17.9917 9.1818Z" fill="black"/>
</svg>
