<svg width="24" height="24" viewBox="0 0 24 24" fill="none" xmlns="http://www.w3.org/2000/svg">
<path d="M2.73977 14.225C2.11004 14.8494 1 14.4281 1 13.5002C1 7.4251 5.92487 2.50023 12 2.50023C18.0751 2.50023 23 7.4251 23 13.5002C23 14.4281 21.89 14.8494 21.2602 14.225C20.8074 13.7759 20.1868 13.5002 19.5 13.5002C19.0084 13.5002 18.5527 13.6411 18.1676 13.8843L18.153 13.8936C18.0193 13.978 17.8964 14.0556 17.7968 14.1135L17.7935 14.1155C17.7166 14.1602 17.5405 14.2627 17.3351 14.3097L17.3269 14.3116C17.2809 14.3224 17.1504 14.3529 17 14.3529C16.8496 14.3529 16.7191 14.3224 16.6731 14.3116L16.6649 14.3097C16.4596 14.2627 16.2834 14.1602 16.2065 14.1155L16.2032 14.1135C16.1036 14.0556 15.9807 13.978 15.847 13.8936L15.8324 13.8843C15.4473 13.6411 14.9916 13.5002 14.5 13.5002C14.0084 13.5002 13.5527 13.6411 13.1676 13.8843L13.1531 13.8935C13.0194 13.978 12.8965 14.0556 12.7968 14.1135L12.7935 14.1155C12.7166 14.1602 12.5405 14.2627 12.3351 14.3097L12.3269 14.3116C12.2809 14.3224 12.1504 14.3529 12 14.3529C11.8496 14.3529 11.7191 14.3224 11.6731 14.3116L11.6649 14.3097C11.4596 14.2627 11.2834 14.1602 11.2065 14.1155L11.2032 14.1135C11.1036 14.0556 10.9807 13.978 10.8471 13.8936L10.8324 13.8843C10.4473 13.6411 9.99163 13.5002 9.5 13.5002C9.00837 13.5002 8.5527 13.6411 8.16761 13.8843L8.15302 13.8936C8.01939 13.978 7.89641 14.0556 7.79684 14.1135L7.7935 14.1155C7.7166 14.1602 7.54045 14.2627 7.33513 14.3097L7.32694 14.3116C7.28086 14.3224 7.15039 14.3529 7 14.3529C6.84961 14.3529 6.71914 14.3224 6.67306 14.3116L6.66487 14.3097C6.45955 14.2627 6.2834 14.1602 6.2065 14.1155L6.20316 14.1135C6.10356 14.0556 5.98066 13.978 5.84699 13.8936L5.83239 13.8843C5.4473 13.6411 4.99163 13.5002 4.5 13.5002C3.81315 13.5002 3.19264 13.7759 2.73977 14.225Z" fill="black"/>
<path d="M12 0.750244C11.52 0.750244 11.119 1.08841 11.0222 1.53949C11.3447 1.51349 11.6708 1.50023 12 1.50023C12.3292 1.50023 12.6553 1.51349 12.9777 1.53949C12.881 1.08841 12.48 0.750244 12 0.750244Z" fill="black"/>
<path d="M11.4415 15.2845C11.2747 15.2462 11.123 15.1891 11 15.134V20.5002C11 21.881 12.1193 23.0002 13.5 23.0002C14.8807 23.0002 16 21.881 16 20.5002V20.0002C16 19.448 15.5523 19.0002 15 19.0002C14.4477 19.0002 14 19.448 14 20.0002V20.5002C14 20.7764 13.7762 21.0002 13.5 21.0002C13.2239 21.0002 13 20.7764 13 20.5002V15.134C12.877 15.1891 12.7253 15.2462 12.5586 15.2845L12.5528 15.2858C12.5091 15.2964 12.2747 15.3529 12 15.3529C11.7253 15.3529 11.4909 15.2964 11.4472 15.2858L11.4415 15.2845Z" fill="black"/>
</svg>
