<svg width="24" height="24" viewBox="0 0 24 24" fill="none" xmlns="http://www.w3.org/2000/svg">
<path d="M1 13.5C1 14.4279 2.11004 14.8492 2.73977 14.2247C3.19264 13.7756 3.81315 13.5 4.5 13.5C4.99163 13.5 5.4473 13.6409 5.83239 13.8841L5.84697 13.8933C5.98064 13.9777 6.10356 14.0554 6.20316 14.1133L6.2065 14.1152C6.2834 14.16 6.45955 14.2624 6.66487 14.3095L6.67306 14.3114C6.71914 14.3222 6.84961 14.3527 7 14.3527C7.15039 14.3527 7.28086 14.3222 7.32695 14.3114L7.33513 14.3095C7.54045 14.2624 7.7166 14.16 7.79351 14.1152L7.79684 14.1133C7.89638 14.0554 8.0192 13.9778 8.15277 13.8935L8.16761 13.8841C8.55271 13.6409 9.00837 13.5 9.5 13.5C9.99163 13.5 10.4473 13.6409 10.8324 13.8841L10.847 13.8933C10.9806 13.9777 11.1036 14.0554 11.2032 14.1133L11.2065 14.1152C11.2834 14.16 11.4596 14.2624 11.6649 14.3095L11.6731 14.3114C11.7191 14.3222 11.8496 14.3527 12 14.3527C12.1504 14.3527 12.2809 14.3222 12.3269 14.3114L12.3351 14.3095C12.5405 14.2624 12.7166 14.16 12.7935 14.1152L12.7968 14.1133C12.8965 14.0554 13.0194 13.9777 13.153 13.8933L13.1676 13.8841C13.5527 13.6409 14.0084 13.5 14.5 13.5C14.9916 13.5 15.4473 13.6409 15.8324 13.8841L15.847 13.8933C15.9805 13.9777 16.1036 14.0554 16.2032 14.1133L16.2065 14.1152C16.2834 14.16 16.4596 14.2624 16.6649 14.3095L16.6731 14.3114C16.7191 14.3222 16.8496 14.3527 17 14.3527C17.1504 14.3527 17.2809 14.3222 17.327 14.3114L17.3351 14.3095C17.5405 14.2624 17.7166 14.16 17.7935 14.1152L17.7968 14.1133C17.8964 14.0554 18.0193 13.9777 18.153 13.8933L18.1676 13.8841C18.5527 13.6409 19.0084 13.5 19.5 13.5C20.1868 13.5 20.8074 13.7756 21.2602 14.2247C21.89 14.8492 23 14.4278 23 13.5C23 12.3176 22.8134 11.1787 22.4681 10.1113C21.5955 10.9044 20.4362 11.3878 19.164 11.3878C16.4499 11.3878 14.2498 9.18763 14.2498 6.47355C14.2498 5.1543 14.9314 3.92424 15.4575 3.12619L15.4965 3.06734C14.3981 2.69935 13.2223 2.49998 12 2.49998C5.92487 2.49999 1 7.42485 1 13.5Z" fill="black"/>
<path d="M12 0.75C11.4659 0.75 11.0101 1.08493 10.8311 1.55619C11.2157 1.51901 11.6056 1.49999 12 1.49999C12.3944 1.49999 12.7843 1.51901 13.1689 1.55619C12.9899 1.08493 12.5341 0.75 12 0.75Z" fill="black"/>
<path d="M11.4415 15.2842C11.1267 15.2121 10.8653 15.0725 10.75 15.0065V20.5C10.75 22.0188 11.9812 23.25 13.5 23.25C15.0188 23.25 16.25 22.0188 16.25 20.5V20C16.25 19.3096 15.6904 18.75 15 18.75C14.3097 18.75 13.75 19.3096 13.75 20V20.5C13.75 20.6381 13.6381 20.75 13.5 20.75C13.3619 20.75 13.25 20.6381 13.25 20.5V15.0065C13.1347 15.0725 12.8734 15.2121 12.5586 15.2842L12.5528 15.2856C12.5091 15.2961 12.2747 15.3527 12 15.3527C11.7253 15.3527 11.4909 15.2961 11.4472 15.2856L11.4415 15.2842Z" fill="black"/>
<path d="M19.1643 9.38782C20.7738 9.38782 22.0785 8.08306 22.0785 6.47355C22.0785 5.0846 20.5334 3.24616 19.6933 2.34922C19.5268 2.17147 19.4436 2.0826 19.325 2.04234C19.2286 2.00963 19.0999 2.00963 19.0036 2.04234C18.885 2.0826 18.8017 2.17147 18.6352 2.34923C17.7951 3.24616 16.25 5.0846 16.25 6.47355C16.25 8.08305 17.5548 9.38782 19.1643 9.38782Z" fill="black"/>
</svg>
