<svg width="24" height="24" viewBox="0 0 24 24" fill="none" xmlns="http://www.w3.org/2000/svg">
<path d="M2.21168 13.6922C2.04439 13.858 1.75 13.7458 1.75 13.5C1.75 7.83907 6.33908 3.24999 12 3.24999C13.6138 3.24999 15.1404 3.62292 16.4985 4.2873C16.0875 4.97101 15.75 5.74501 15.75 6.47355C15.75 8.3592 17.2786 9.88782 19.1643 9.88782C19.9652 9.88782 20.7017 9.61205 21.284 9.15029C21.9037 10.4707 22.25 11.9449 22.25 13.5C22.25 13.7458 21.9556 13.858 21.7883 13.6922C21.2007 13.1095 20.3926 12.75 19.5 12.75C18.8625 12.75 18.2685 12.9333 17.7671 13.25L17.7625 13.2529C17.6202 13.3428 17.5073 13.4141 17.4198 13.4649C17.3384 13.5123 17.2508 13.5594 17.1676 13.5784L17.166 13.5788C17.1181 13.5898 17.0618 13.6027 17 13.6027C16.9382 13.6027 16.8819 13.5898 16.834 13.5788L16.8324 13.5784C16.7492 13.5594 16.6616 13.5123 16.5802 13.4649C16.4927 13.4141 16.3798 13.3428 16.2375 13.2529L16.2329 13.25C15.7315 12.9333 15.1375 12.75 14.5 12.75C13.8625 12.75 13.2685 12.9333 12.7671 13.25L12.7625 13.2529C12.6203 13.3427 12.5073 13.4141 12.4198 13.4649C12.3384 13.5123 12.2508 13.5594 12.1676 13.5784L12.166 13.5788C12.1181 13.5898 12.0618 13.6027 12 13.6027C11.9382 13.6027 11.8819 13.5898 11.834 13.5788L11.8324 13.5784C11.7492 13.5594 11.6616 13.5123 11.5802 13.4649C11.4927 13.4141 11.3799 13.3428 11.2375 13.2529L11.2329 13.25C10.7315 12.9333 10.1375 12.75 9.5 12.75C8.86249 12.75 8.26855 12.9333 7.76712 13.25L7.76248 13.2529C7.62016 13.3428 7.50732 13.4141 7.41983 13.4649C7.33843 13.5123 7.25084 13.5594 7.16757 13.5784L7.16599 13.5788C7.11807 13.5898 7.06179 13.6027 7 13.6027C6.93819 13.6027 6.88194 13.5898 6.83401 13.5788L6.83244 13.5784C6.74917 13.5594 6.66158 13.5123 6.58017 13.4649C6.49268 13.4141 6.37985 13.3428 6.23752 13.2529L6.23288 13.25C5.73146 12.9333 5.13752 12.75 4.5 12.75C3.60742 12.75 2.79929 13.1095 2.21168 13.6922Z" fill="black"/>
<path d="M11.75 2L11.75 2.75284C11.8331 2.75094 11.9164 2.74999 12 2.74999C12.0836 2.74999 12.1669 2.75094 12.25 2.75284L12.25 2C12.25 1.86193 12.1381 1.75 12 1.75C11.8619 1.75 11.75 1.86193 11.75 2Z" fill="black"/>
<path d="M12 14.1027C11.8957 14.1027 11.8027 14.0843 11.75 14.0725V20.5C11.75 21.4665 12.5335 22.25 13.5 22.25C14.4665 22.25 15.25 21.4665 15.25 20.5V20C15.25 19.8619 15.1381 19.75 15 19.75C14.8619 19.75 14.75 19.8619 14.75 20V20.5C14.75 21.1904 14.1904 21.75 13.5 21.75C12.8096 21.75 12.25 21.1904 12.25 20.5V14.0725C12.1973 14.0843 12.1043 14.1027 12 14.1027Z" fill="black"/>
<path d="M19.1643 9.38782C20.7738 9.38782 22.0785 8.08306 22.0785 6.47355C22.0785 5.0846 20.5334 3.24616 19.6933 2.34923C19.5268 2.17148 19.4436 2.0826 19.325 2.04234C19.2286 2.00964 19.0999 2.00964 19.0036 2.04234C18.885 2.0826 18.8017 2.17148 18.6352 2.34923C17.7951 3.24616 16.25 5.0846 16.25 6.47355C16.25 8.08306 17.5548 9.38782 19.1643 9.38782Z" fill="black"/>
</svg>
