<svg width="24" height="24" viewBox="0 0 24 24" fill="none" xmlns="http://www.w3.org/2000/svg">
<path fill-rule="evenodd" clip-rule="evenodd" d="M1.25 13.5C1.25 14.2005 2.08816 14.5188 2.56374 14.0472C3.06152 13.5536 3.74458 13.25 4.5 13.25C5.04026 13.25 5.54202 13.405 5.96589 13.6727L5.97768 13.6802C6.11383 13.7662 6.23329 13.8416 6.32883 13.8972C6.406 13.9421 6.55407 14.0276 6.72073 14.0658L6.72863 14.0676C6.77442 14.0783 6.87967 14.1027 7 14.1027C7.12033 14.1027 7.22558 14.0783 7.27137 14.0676L7.27927 14.0658C7.44593 14.0276 7.594 13.9421 7.67117 13.8972C7.76671 13.8416 7.88617 13.7662 8.02231 13.6802L8.03411 13.6727C8.45798 13.405 8.95974 13.25 9.5 13.25C10.0403 13.25 10.542 13.405 10.9659 13.6727L10.9777 13.6802C11.0786 13.7439 11.1704 13.8019 11.25 13.8502V20.5C11.25 21.7426 12.2573 22.75 13.5 22.75C14.7426 22.75 15.75 21.7426 15.75 20.5V20C15.75 19.5858 15.4142 19.25 15 19.25C14.5858 19.25 14.25 19.5858 14.25 20V20.5C14.25 20.9142 13.9142 21.25 13.5 21.25C13.0858 21.25 12.75 20.9142 12.75 20.5V13.8502C12.8296 13.8019 12.9214 13.7439 13.0224 13.6802L13.0341 13.6727C13.458 13.405 13.9597 13.25 14.5 13.25C15.0403 13.25 15.542 13.405 15.9659 13.6727L15.9777 13.6802C16.1138 13.7662 16.2333 13.8416 16.3288 13.8972C16.406 13.9421 16.5541 14.0276 16.7207 14.0658L16.7286 14.0676C16.7744 14.0783 16.8797 14.1027 17 14.1027C17.1203 14.1027 17.2256 14.0783 17.2714 14.0676L17.2793 14.0658C17.4459 14.0276 17.594 13.9421 17.6712 13.8972C17.7667 13.8416 17.8862 13.7662 18.0223 13.6802L18.0341 13.6727C18.458 13.405 18.9597 13.25 19.5 13.25C20.2554 13.25 20.9385 13.5536 21.4363 14.0472C21.9119 14.5188 22.75 14.2005 22.75 13.5C22.75 7.81506 18.3371 3.16079 12.75 2.77575L12.75 2C12.75 1.58579 12.4142 1.25 12 1.25C11.5858 1.25 11.25 1.58579 11.25 2L11.25 2.77576C5.66284 3.1608 1.25 7.81507 1.25 13.5ZM4.5 11.75C3.91831 11.75 3.36361 11.8671 2.8585 12.0788C3.54221 7.64487 7.37465 4.25 12 4.25C16.6254 4.25 20.4578 7.64488 21.1415 12.0788C20.6364 11.8671 20.0817 11.75 19.5 11.75C18.668 11.75 17.8897 11.9899 17.2331 12.4045C17.1344 12.4668 17.0593 12.5142 17 12.5507C16.9407 12.5142 16.8656 12.4668 16.7669 12.4045C16.1103 11.9899 15.332 11.75 14.5 11.75C13.668 11.75 12.8897 11.9899 12.2331 12.4045C12.1344 12.4668 12.0593 12.5142 12 12.5507C11.9407 12.5142 11.8656 12.4668 11.7669 12.4045C11.1103 11.9899 10.332 11.75 9.5 11.75C8.66797 11.75 7.88967 11.9899 7.23314 12.4045C7.13441 12.4668 7.05935 12.5142 7 12.5507C6.94065 12.5142 6.86559 12.4668 6.76686 12.4045C6.11033 11.9899 5.33203 11.75 4.5 11.75Z" fill="black"/>
</svg>
