<svg width="24" height="24" viewBox="0 0 24 24" fill="none" xmlns="http://www.w3.org/2000/svg">
<path fill-rule="evenodd" clip-rule="evenodd" d="M1 13.5002C1 14.4281 2.11004 14.8494 2.73977 14.225C3.19264 13.7759 3.81315 13.5002 4.5 13.5002C4.99163 13.5002 5.4473 13.6411 5.83239 13.8844L5.84697 13.8936C5.98064 13.978 6.10356 14.0556 6.20316 14.1135L6.2065 14.1155C6.2834 14.1602 6.45955 14.2627 6.66487 14.3097L6.67306 14.3116C6.71914 14.3224 6.84961 14.3529 7 14.3529C7.15039 14.3529 7.28086 14.3224 7.32694 14.3116L7.33513 14.3097C7.54045 14.2627 7.7166 14.1602 7.7935 14.1155L7.79684 14.1135C7.89643 14.0556 8.01932 13.978 8.15298 13.8936L8.16761 13.8844C8.5527 13.6411 9.00837 13.5002 9.5 13.5002C9.99163 13.5002 10.4473 13.6411 10.8324 13.8844L10.847 13.8936C10.8999 13.927 10.9512 13.9594 11 13.9899V20.5002C11 21.881 12.1193 23.0002 13.5 23.0002C14.8807 23.0002 16 21.881 16 20.5002V20.0002C16 19.448 15.5523 19.0002 15 19.0002C14.4477 19.0002 14 19.448 14 20.0002V20.5002C14 20.7764 13.7761 21.0002 13.5 21.0002C13.2238 21.0002 13 20.7764 13 20.5002V13.9899C13.0488 13.9594 13.1 13.927 13.153 13.8936L13.1676 13.8844C13.5527 13.6411 14.0084 13.5002 14.5 13.5002C14.9916 13.5002 15.4473 13.6411 15.8324 13.8844L15.847 13.8936C15.9806 13.978 16.1036 14.0556 16.2032 14.1135L16.2065 14.1155C16.2834 14.1602 16.4596 14.2627 16.6649 14.3097L16.6731 14.3116C16.7191 14.3224 16.8496 14.3529 17 14.3529C17.1504 14.3529 17.2809 14.3224 17.3269 14.3116L17.3351 14.3097C17.5405 14.2627 17.7166 14.1602 17.7935 14.1155L17.7968 14.1135C17.8964 14.0556 18.0193 13.978 18.153 13.8936L18.1676 13.8844C18.5527 13.6411 19.0084 13.5002 19.5 13.5002C20.1868 13.5002 20.8074 13.7759 21.2602 14.225C21.89 14.8494 23 14.4281 23 13.5002C23 7.7622 18.6065 3.05031 13 2.54509V2.00024C13 1.44796 12.5523 1.00024 12 1.00024C11.4477 1.00024 11 1.44796 11 2.00024V2.54509C5.39349 3.05032 1 7.76221 1 13.5002ZM4.5 11.5002C4.0411 11.5002 3.59802 11.5691 3.1807 11.697C4.01585 7.59057 7.64703 4.50024 12 4.50024C16.353 4.50024 19.9841 7.59057 20.8193 11.697C20.402 11.5691 19.9589 11.5002 19.5 11.5002C18.6193 11.5002 17.7949 11.7542 17.0996 12.1934L17 12.2562L16.9004 12.1934C16.2051 11.7542 15.3807 11.5002 14.5 11.5002C13.6193 11.5002 12.7949 11.7542 12.0996 12.1934L12 12.2562L11.9004 12.1934C11.2051 11.7542 10.3807 11.5002 9.5 11.5002C8.61934 11.5002 7.79495 11.7542 7.09964 12.1934L7 12.2562L6.90036 12.1934C6.20505 11.7542 5.38066 11.5002 4.5 11.5002Z" fill="black"/>
</svg>
