<svg width="24" height="24" viewBox="0 0 24 24" fill="none" xmlns="http://www.w3.org/2000/svg">
<path d="M2.56374 14.0472C2.08816 14.5188 1.25 14.2005 1.25 13.5C1.25 7.56293 6.06294 2.74999 12 2.74999C17.9371 2.74999 22.75 7.56293 22.75 13.5C22.75 14.2005 21.9119 14.5188 21.4363 14.0472C20.9385 13.5536 20.2554 13.25 19.5 13.25C18.9597 13.25 18.458 13.405 18.0341 13.6727L18.0223 13.6802C17.8862 13.7662 17.7667 13.8416 17.6712 13.8972C17.594 13.942 17.4459 14.0276 17.2793 14.0658L17.2714 14.0676C17.2256 14.0783 17.1203 14.1027 17 14.1027C16.8797 14.1027 16.7744 14.0783 16.7286 14.0676L16.7207 14.0658C16.5541 14.0276 16.406 13.942 16.3288 13.8972C16.2333 13.8416 16.1139 13.7662 15.9778 13.6802L15.9659 13.6727C15.542 13.405 15.0403 13.25 14.5 13.25C13.9597 13.25 13.458 13.405 13.0341 13.6727L13.0224 13.6801C12.8862 13.7661 12.7667 13.8416 12.6712 13.8972C12.594 13.942 12.4459 14.0276 12.2793 14.0658L12.2714 14.0676C12.2256 14.0783 12.1203 14.1027 12 14.1027C11.8797 14.1027 11.7744 14.0783 11.7286 14.0676L11.7207 14.0658C11.5541 14.0276 11.406 13.942 11.3288 13.8972C11.2333 13.8416 11.114 13.7662 10.9779 13.6803L10.9659 13.6727C10.542 13.405 10.0403 13.25 9.5 13.25C8.95974 13.25 8.45798 13.405 8.03411 13.6727L8.02231 13.6802C7.88623 13.7661 7.76668 13.8416 7.67117 13.8972C7.594 13.942 7.44593 14.0276 7.27928 14.0658L7.27137 14.0676C7.22558 14.0783 7.12032 14.1027 7 14.1027C6.87967 14.1027 6.77442 14.0783 6.72863 14.0676L6.72073 14.0658C6.55407 14.0276 6.406 13.942 6.32883 13.8972C6.23329 13.8416 6.11383 13.7662 5.97768 13.6802L5.96589 13.6727C5.54202 13.405 5.04026 13.25 4.5 13.25C3.74458 13.25 3.06152 13.5536 2.56374 14.0472Z" fill="black"/>
<path d="M11.25 2V2.02405C11.4979 2.00809 11.748 1.99999 12 1.99999C12.252 1.99999 12.5021 2.00809 12.75 2.02405V2C12.75 1.58579 12.4142 1.25 12 1.25C11.5858 1.25 11.25 1.58579 11.25 2Z" fill="black"/>
<path d="M11.5532 14.7969C11.4424 14.7715 11.3392 14.735 11.25 14.6974V20.5C11.25 21.7426 12.2574 22.75 13.5 22.75C14.7427 22.75 15.75 21.7426 15.75 20.5V20C15.75 19.5858 15.4142 19.25 15 19.25C14.5858 19.25 14.25 19.5858 14.25 20V20.5C14.25 20.9142 13.9142 21.25 13.5 21.25C13.0858 21.25 12.75 20.9142 12.75 20.5V14.6974C12.6608 14.735 12.5576 14.7715 12.4468 14.7969L12.4395 14.7986C12.3936 14.8095 12.2117 14.8527 12 14.8527C11.7883 14.8527 11.6064 14.8095 11.5605 14.7986L11.5532 14.7969Z" fill="black"/>
</svg>
