<svg width="24" height="24" viewBox="0 0 24 24" fill="none" xmlns="http://www.w3.org/2000/svg">
<path fill-rule="evenodd" clip-rule="evenodd" d="M1.5 13.5002C1.5 13.9734 2.06627 14.1887 2.38771 13.8699C2.9304 13.3318 3.676 13.0002 4.5 13.0002C5.08889 13.0002 5.63674 13.1694 6.09938 13.4616L6.10792 13.467C6.24692 13.5548 6.363 13.6281 6.4545 13.6813C6.53379 13.7274 6.65162 13.7937 6.77658 13.8224L6.78304 13.8239C6.82882 13.8344 6.90926 13.8529 7 13.8529C7.09074 13.8529 7.17117 13.8344 7.21695 13.8239L7.22342 13.8224C7.34838 13.7937 7.46621 13.7274 7.5455 13.6813C7.63699 13.6281 7.75307 13.5548 7.89205 13.467L7.90062 13.4616C8.36327 13.1694 8.91111 13.0002 9.5 13.0002C10.0889 13.0002 10.6367 13.1694 11.0994 13.4616L11.1079 13.467C11.2469 13.5547 11.363 13.6281 11.4545 13.6813C11.4685 13.6895 11.4837 13.6982 11.5 13.7073V20.5002C11.5 21.6048 12.3954 22.5002 13.5 22.5002C14.6046 22.5002 15.5 21.6048 15.5 20.5002V20.0002C15.5 19.7241 15.2761 19.5002 15 19.5002C14.7239 19.5002 14.5 19.7241 14.5 20.0002V20.5002C14.5 21.0525 14.0523 21.5002 13.5 21.5002C12.9477 21.5002 12.5 21.0525 12.5 20.5002V13.7073C12.5162 13.6982 12.5315 13.6895 12.5455 13.6813C12.637 13.6281 12.7531 13.5548 12.8921 13.467L12.9006 13.4616C13.3633 13.1694 13.9111 13.0002 14.5 13.0002C15.0889 13.0002 15.6367 13.1694 16.0994 13.4616L16.1079 13.467C16.2469 13.5548 16.363 13.6281 16.4545 13.6813C16.5338 13.7274 16.6516 13.7937 16.7766 13.8224L16.783 13.8239C16.8288 13.8344 16.9093 13.8529 17 13.8529C17.0908 13.8529 17.1712 13.8344 17.217 13.8239L17.2234 13.8224C17.3484 13.7937 17.4662 13.7274 17.5455 13.6813C17.637 13.6281 17.7531 13.5548 17.8921 13.467L17.9006 13.4616C18.3633 13.1694 18.9111 13.0002 19.5 13.0002C20.324 13.0002 21.0696 13.3318 21.6123 13.8699C21.9337 14.1887 22.5 13.9734 22.5 13.5002C22.5 7.86886 18.0668 3.27291 12.5 3.01194L12.5 2.00024C12.5 1.7241 12.2761 1.50024 12 1.50024C11.7238 1.50024 11.5 1.7241 11.5 2.00024L11.5 3.01194C5.93318 3.27292 1.5 7.86887 1.5 13.5002ZM4.5 12.0002C3.79272 12.0002 3.12797 12.1841 2.55137 12.5063C3.04829 7.72672 7.08897 4.00024 12 4.00024C16.911 4.00024 20.9517 7.72672 21.4486 12.5063C20.872 12.1841 20.2073 12.0002 19.5 12.0002C18.7166 12.0002 17.9844 12.226 17.3666 12.6161C17.2169 12.7107 17.1165 12.774 17.0428 12.8168C17.0254 12.827 17.0113 12.8349 17 12.841C16.9887 12.8349 16.9746 12.827 16.9572 12.8168C16.8835 12.774 16.7831 12.7107 16.6334 12.6161C16.0156 12.226 15.2834 12.0002 14.5 12.0002C13.7166 12.0002 12.9844 12.226 12.3666 12.6161C12.2169 12.7107 12.1165 12.774 12.0428 12.8168C12.0254 12.827 12.0113 12.8349 12 12.841C11.9887 12.8349 11.9746 12.827 11.9572 12.8168C11.8835 12.774 11.7831 12.7107 11.6334 12.6161C11.0156 12.226 10.2834 12.0002 9.5 12.0002C8.7166 12.0002 7.98439 12.226 7.36664 12.6161C7.21691 12.7107 7.11649 12.774 7.04282 12.8168C7.02537 12.827 7.01128 12.8349 7 12.841C6.98873 12.8349 6.97463 12.827 6.95718 12.8168C6.88351 12.774 6.78309 12.7107 6.63337 12.6161C6.01561 12.226 5.2834 12.0002 4.5 12.0002Z" fill="black"/>
</svg>
