<svg width="24" height="24" viewBox="0 0 24 24" fill="none" xmlns="http://www.w3.org/2000/svg">
<path d="M2.56374 14.0474C2.08816 14.519 1.25 14.2008 1.25 13.5002C1.25 7.56317 6.06294 2.75023 12 2.75023C17.9371 2.75023 22.75 7.56317 22.75 13.5002C22.75 14.2008 21.9119 14.519 21.4363 14.0474C20.9385 13.5538 20.2554 13.2502 19.5 13.2502C18.9597 13.2502 18.458 13.4053 18.0341 13.673L18.0223 13.6804C17.8862 13.7664 17.7667 13.8419 17.6712 13.8974C17.594 13.9423 17.4459 14.0279 17.2793 14.0661L17.2714 14.0679C17.2256 14.0785 17.1203 14.1029 17 14.1029C16.8797 14.1029 16.7744 14.0785 16.7286 14.0679L16.7207 14.0661C16.5541 14.0279 16.406 13.9423 16.3288 13.8974C16.2333 13.8419 16.1139 13.7664 15.9778 13.6805L15.9659 13.673C15.542 13.4053 15.0403 13.2502 14.5 13.2502C13.9597 13.2502 13.458 13.4053 13.0341 13.673L13.0224 13.6804C12.8862 13.7664 12.7667 13.8418 12.6712 13.8974C12.594 13.9423 12.4459 14.0279 12.2793 14.0661L12.2714 14.0679C12.2256 14.0785 12.1203 14.1029 12 14.1029C11.8797 14.1029 11.7744 14.0785 11.7286 14.0679L11.7207 14.0661C11.5541 14.0279 11.406 13.9423 11.3288 13.8974C11.2333 13.8419 11.114 13.7665 10.9779 13.6805L10.9659 13.673C10.542 13.4053 10.0403 13.2502 9.5 13.2502C8.95974 13.2502 8.45798 13.4053 8.03411 13.673L8.02231 13.6804C7.88623 13.7664 7.76668 13.8419 7.67117 13.8974C7.594 13.9423 7.44593 14.0279 7.27928 14.0661L7.27137 14.0679C7.22558 14.0785 7.12032 14.1029 7 14.1029C6.87967 14.1029 6.77442 14.0785 6.72863 14.0679L6.72073 14.0661C6.55407 14.0279 6.406 13.9423 6.32883 13.8974C6.23329 13.8419 6.11383 13.7664 5.97768 13.6804L5.96589 13.673C5.54202 13.4053 5.04026 13.2502 4.5 13.2502C3.74458 13.2502 3.06152 13.5538 2.56374 14.0474Z" fill="black"/>
<path d="M11.25 2.00024V2.0243C11.4979 2.00834 11.748 2.00023 12 2.00023C12.252 2.00023 12.5021 2.00834 12.75 2.0243V2.00024C12.75 1.58603 12.4142 1.25024 12 1.25024C11.5858 1.25024 11.25 1.58603 11.25 2.00024Z" fill="black"/>
<path d="M11.5532 14.7971C11.4424 14.7717 11.3392 14.7353 11.25 14.6976V20.5002C11.25 21.7429 12.2574 22.7502 13.5 22.7502C14.7427 22.7502 15.75 21.7429 15.75 20.5002V20.0002C15.75 19.586 15.4142 19.2502 15 19.2502C14.5858 19.2502 14.25 19.586 14.25 20.0002V20.5002C14.25 20.9145 13.9142 21.2502 13.5 21.2502C13.0858 21.2502 12.75 20.9145 12.75 20.5002V14.6976C12.6608 14.7353 12.5576 14.7717 12.4468 14.7971L12.4395 14.7988C12.3936 14.8097 12.2117 14.8529 12 14.8529C11.7883 14.8529 11.6064 14.8097 11.5605 14.7988L11.5532 14.7971Z" fill="black"/>
</svg>
