<svg width="24" height="24" viewBox="0 0 24 24" fill="none" xmlns="http://www.w3.org/2000/svg">
<path fill-rule="evenodd" clip-rule="evenodd" d="M1.75 13.5C1.75 13.7459 2.04439 13.8581 2.21168 13.6922C2.79929 13.1095 3.60742 12.75 4.5 12.75C5.13752 12.75 5.73146 12.9333 6.23288 13.25L6.23752 13.2529C6.37985 13.3428 6.49268 13.4141 6.58017 13.4649C6.66158 13.5123 6.74917 13.5594 6.83244 13.5785L6.83401 13.5788C6.88194 13.5898 6.93819 13.6027 7 13.6027C7.06181 13.6027 7.11806 13.5898 7.16599 13.5788L7.16757 13.5785C7.25083 13.5594 7.33843 13.5123 7.41983 13.4649C7.5073 13.4141 7.62009 13.3428 7.76236 13.253L7.76712 13.25C8.26855 12.9333 8.86248 12.75 9.5 12.75C10.1375 12.75 10.7315 12.9333 11.2329 13.25L11.2375 13.2529C11.3799 13.3428 11.4927 13.4141 11.5802 13.4649C11.635 13.4968 11.6927 13.5286 11.75 13.5518V20.5C11.75 21.4665 12.5335 22.25 13.5 22.25C14.4665 22.25 15.25 21.4665 15.25 20.5V20C15.25 19.8619 15.1381 19.75 15 19.75C14.8619 19.75 14.75 19.8619 14.75 20V20.5C14.75 21.1904 14.1904 21.75 13.5 21.75C12.8096 21.75 12.25 21.1904 12.25 20.5V13.5518C12.3073 13.5287 12.365 13.4969 12.4198 13.4649C12.5073 13.4141 12.6202 13.3428 12.7625 13.2529L12.7671 13.25C13.2685 12.9333 13.8625 12.75 14.5 12.75C15.1375 12.75 15.7315 12.9333 16.2329 13.25L16.2375 13.2529C16.3798 13.3428 16.4927 13.4141 16.5802 13.4649C16.6616 13.5123 16.7492 13.5594 16.8324 13.5785L16.834 13.5788C16.8819 13.5898 16.9382 13.6027 17 13.6027C17.0618 13.6027 17.1181 13.5898 17.166 13.5788L17.1676 13.5785C17.2508 13.5594 17.3384 13.5123 17.4198 13.4649C17.5073 13.4141 17.6202 13.3428 17.7625 13.2529L17.7671 13.25C18.2685 12.9333 18.8625 12.75 19.5 12.75C20.3926 12.75 21.2007 13.1095 21.7883 13.6922C21.9556 13.8581 22.25 13.7458 22.25 13.5C22.25 7.92265 17.7954 3.38572 12.25 3.25299L12.25 2C12.25 1.86193 12.1381 1.75 12 1.75C11.8619 1.75 11.75 1.86193 11.75 2L11.75 3.25299C6.20458 3.38574 1.75 7.92266 1.75 13.5ZM4.5 12.25C3.66178 12.25 2.88752 12.5252 2.26311 12.99C2.52841 7.84225 6.7863 3.75 12 3.75C17.2137 3.75 21.4716 7.84226 21.7369 12.99C21.1125 12.5252 20.3382 12.25 19.5 12.25C18.7652 12.25 18.0791 12.4616 17.5001 12.8272C17.3521 12.9207 17.2471 12.987 17.1685 13.0327C17.0829 13.0825 17.0557 13.0911 17.0559 13.0911C17.0297 13.0971 17.0156 13.1001 17.0058 13.1017L17 13.1026L16.9942 13.1017C16.9844 13.1001 16.9703 13.0971 16.9441 13.0911C16.943 13.0907 16.9151 13.0813 16.8315 13.0327C16.7529 12.987 16.6479 12.9207 16.4999 12.8272C15.9209 12.4616 15.2348 12.25 14.5 12.25C13.7652 12.25 13.0791 12.4616 12.5001 12.8272C12.3521 12.9207 12.2471 12.987 12.1685 13.0327C12.0849 13.0813 12.0571 13.0907 12.0559 13.0911C12.0297 13.0971 12.0156 13.1001 12.0058 13.1017L12 13.1026L11.9942 13.1017C11.9844 13.1001 11.9703 13.0971 11.9441 13.0911C11.943 13.0907 11.9151 13.0813 11.8315 13.0327C11.7529 12.987 11.6479 12.9207 11.4999 12.8272C10.9209 12.4616 10.2348 12.25 9.5 12.25C8.76523 12.25 8.07911 12.4616 7.50013 12.8272C7.35214 12.9207 7.24709 12.987 7.16849 13.0327C7.0849 13.0813 7.05707 13.0907 7.05589 13.0911C7.02974 13.0971 7.01559 13.1001 7.00584 13.1017L7 13.1026L6.99416 13.1017C6.98441 13.1001 6.9703 13.0971 6.94415 13.0911C6.94297 13.0907 6.9151 13.0813 6.83151 13.0327C6.75291 12.987 6.64786 12.9207 6.49987 12.8272C5.9209 12.4616 5.23477 12.25 4.5 12.25Z" fill="black"/>
</svg>
