<svg width="24" height="24" viewBox="0 0 24 24" fill="none" xmlns="http://www.w3.org/2000/svg">
<path fill-rule="evenodd" clip-rule="evenodd" d="M0.75 13.5002C0.75 14.6555 2.13193 15.1798 2.9158 14.4025C3.32375 13.998 3.88173 13.7502 4.5 13.7502C4.943 13.7502 5.35258 13.877 5.6989 14.0957L5.71584 14.1064C5.84736 14.1895 5.9738 14.2694 6.07749 14.3297L6.08398 14.3334C6.16221 14.379 6.36602 14.4977 6.60902 14.5534L6.61694 14.5553C6.66313 14.5662 6.81914 14.6029 7 14.6029C7.18085 14.6029 7.33686 14.5662 7.38305 14.5553L7.39098 14.5534C7.63398 14.4977 7.83779 14.379 7.91603 14.3334L7.92251 14.3297C8.0262 14.2694 8.15263 14.1895 8.28414 14.1064L8.3011 14.0957C8.64742 13.877 9.057 13.7502 9.5 13.7502C9.943 13.7502 10.3526 13.877 10.6989 14.0957L10.7159 14.1064C10.7273 14.1137 10.7387 14.1208 10.75 14.128V20.5002C10.75 22.019 11.9812 23.2502 13.5 23.2502C15.0188 23.2502 16.25 22.019 16.25 20.5002V20.0002C16.25 19.3099 15.6904 18.7502 15 18.7502C14.3096 18.7502 13.75 19.3099 13.75 20.0002V20.5002C13.75 20.6383 13.6381 20.7502 13.5 20.7502C13.3619 20.7502 13.25 20.6383 13.25 20.5002V14.128C13.2613 14.1208 13.2727 14.1136 13.2842 14.1064L13.3011 14.0957C13.6474 13.877 14.057 13.7502 14.5 13.7502C14.943 13.7502 15.3526 13.877 15.6989 14.0957L15.7159 14.1064C15.8474 14.1895 15.9738 14.2694 16.0775 14.3297L16.084 14.3334C16.1622 14.379 16.366 14.4977 16.609 14.5534L16.6169 14.5553C16.6631 14.5662 16.8192 14.6029 17 14.6029C17.1809 14.6029 17.3369 14.5662 17.3831 14.5553L17.391 14.5534C17.634 14.4977 17.8378 14.379 17.916 14.3334L17.9225 14.3297C18.0262 14.2694 18.1525 14.1896 18.284 14.1065L18.3011 14.0957C18.6474 13.877 19.057 13.7502 19.5 13.7502C20.1183 13.7502 20.6763 13.998 21.0842 14.4025C21.8681 15.1798 23.25 14.6554 23.25 13.5002C23.25 7.70955 18.8749 2.9407 13.25 2.3189V2.00024C13.25 1.30989 12.6903 0.750244 12 0.750244C11.3096 0.750244 10.75 1.30989 10.75 2.00024V2.31891C5.12505 2.94072 0.75 7.70956 0.75 13.5002ZM4.5 11.2502C4.16257 11.2502 3.83322 11.2855 3.51551 11.3526C4.47292 7.55845 7.90852 4.75024 12 4.75024C16.0915 4.75024 19.5271 7.55846 20.4845 11.3526C20.1668 11.2855 19.8374 11.2502 19.5 11.2502C18.585 11.2502 17.7269 11.5102 17 11.9608C16.2731 11.5102 15.415 11.2502 14.5 11.2502C13.585 11.2502 12.7269 11.5102 12 11.9608C11.2731 11.5102 10.415 11.2502 9.5 11.2502C8.58496 11.2502 7.72693 11.5102 7 11.9608C6.27307 11.5102 5.41504 11.2502 4.5 11.2502Z" fill="black"/>
</svg>
