<svg width="24" height="24" viewBox="0 0 24 24" fill="none" xmlns="http://www.w3.org/2000/svg">
<path d="M12.4391 3.47036V4.17746L12.9502 3.66634C14.9891 1.62749 18.2947 1.6275 20.3336 3.66635C22.3724 5.7052 22.3724 9.01083 20.3336 11.0497L19.8226 11.5607L20.5297 11.5607L20.6871 11.4032C22.9212 9.16912 22.9212 5.54691 20.6871 3.31279C18.453 1.07868 14.8308 1.07868 12.5967 3.31279L12.4391 3.47036Z" fill="black"/>
<path d="M3.66598 20.3339C1.62713 18.2951 1.62713 14.9895 3.66598 12.9506L4.17726 12.4393H3.47016L3.31243 12.5971C1.07831 14.8312 1.07831 18.4534 3.31243 20.6875C5.54654 22.9216 9.16876 22.9216 11.4029 20.6875L11.5604 20.5299V19.8228L11.0493 20.3339C9.01046 22.3728 5.70483 22.3728 3.66598 20.3339Z" fill="black"/>
<path d="M16.0454 7.95581C16.1431 8.05344 16.1431 8.21174 16.0454 8.30937L8.30856 16.0463C8.21093 16.1439 8.05264 16.1439 7.955 16.0463C7.85737 15.9486 7.85737 15.7903 7.955 15.6927L15.6919 7.95581C15.7895 7.85818 15.9478 7.85818 16.0454 7.95581Z" fill="black"/>
<path d="M13.0606 22.2103C12.9225 22.2103 12.8106 22.0984 12.8106 21.9603V16.5963C12.8106 16.4583 12.9225 16.3463 13.0606 16.3463C13.1987 16.3463 13.3106 16.4583 13.3106 16.5963V21.9603C13.3106 22.0984 13.1987 22.2103 13.0606 22.2103Z" fill="black"/>
<path d="M1.78978 10.9395C1.78978 11.0775 1.90171 11.1895 2.03978 11.1895H7.40374C7.54181 11.1895 7.65374 11.0775 7.65374 10.9395C7.65374 10.8014 7.54181 10.6895 7.40374 10.6895H2.03978C1.90171 10.6895 1.78978 10.8014 1.78978 10.9395Z" fill="black"/>
<path d="M10.9393 1.78998C11.0773 1.78998 11.1893 1.90191 11.1893 2.03998V7.40394C11.1893 7.54201 11.0773 7.65394 10.9393 7.65394C10.8012 7.65394 10.6893 7.54201 10.6893 7.40394V2.03998C10.6893 1.90191 10.8012 1.78998 10.9393 1.78998Z" fill="black"/>
<path d="M3.82327 4.17714C3.72564 4.07951 3.72564 3.92122 3.82327 3.82359C3.9209 3.72596 4.07919 3.72596 4.17682 3.82359L8.67682 8.32359C8.77445 8.42122 8.77445 8.57951 8.67682 8.67714C8.57919 8.77478 8.4209 8.77477 8.32327 8.67714L3.82327 4.17714Z" fill="black"/>
<path d="M14.8234 14.8237C14.7258 14.9214 14.7258 15.0796 14.8234 15.1773L19.3234 19.6773C19.421 19.7749 19.5793 19.7749 19.677 19.6773C19.7746 19.5796 19.7746 19.4214 19.677 19.3237L15.177 14.8237C15.0793 14.7261 14.921 14.7261 14.8234 14.8237Z" fill="black"/>
<path d="M21.9601 12.8108C22.0982 12.8108 22.2101 12.9227 22.2101 13.0608C22.2101 13.1989 22.0982 13.3108 21.9601 13.3108H16.5961C16.4581 13.3108 16.3461 13.1989 16.3461 13.0608C16.3461 12.9227 16.4581 12.8108 16.5961 12.8108L21.9601 12.8108Z" fill="black"/>
</svg>
