<svg width="24" height="24" viewBox="0 0 24 24" fill="none" xmlns="http://www.w3.org/2000/svg">
<path d="M4.37321 19.6268C2.72488 17.9785 2.72488 15.306 4.37321 13.6577L4.59159 13.4393L1.44727 13.4393C0.0650916 15.9874 0.45115 19.2403 2.60544 21.3946C4.75969 23.5489 8.01254 23.9349 10.5606 22.5529V19.4086L10.3423 19.6268C8.694 21.2752 6.02153 21.2752 4.37321 19.6268Z" fill="black"/>
<path d="M22.5527 10.5606C23.9347 8.01264 23.5486 4.75989 21.3944 2.60569C19.2401 0.451441 15.9873 0.0653511 13.4392 1.44742V4.59168L13.6575 4.37345C15.3058 2.72512 17.9783 2.72513 19.6266 4.37345C21.2749 6.02178 21.2749 8.69425 19.6266 10.3426L19.4085 10.5606H22.5527Z" fill="black"/>
<path d="M16.7527 7.2487C17.2408 7.73686 17.2408 8.52832 16.7527 9.01647L9.01579 16.7534C8.52763 17.2415 7.73617 17.2415 7.24802 16.7534C6.75986 16.2652 6.75986 15.4737 7.24802 14.9856L14.9849 7.2487C15.4731 6.76055 16.2645 6.76055 16.7527 7.2487Z" fill="black"/>
<path d="M13.0607 22.7103C12.6465 22.7103 12.3107 22.3745 12.3107 21.9603V16.5963C12.3107 16.1821 12.6465 15.8463 13.0607 15.8463C13.4749 15.8463 13.8107 16.1821 13.8107 16.5963V21.9603C13.8107 22.3745 13.4749 22.7103 13.0607 22.7103Z" fill="black"/>
<path d="M1.2899 10.9395C1.2899 11.3537 1.62568 11.6895 2.0399 11.6895L7.40386 11.6895C7.81807 11.6895 8.15386 11.3537 8.15386 10.9395C8.15386 10.5253 7.81807 10.1895 7.40386 10.1895L2.0399 10.1895C1.62569 10.1895 1.2899 10.5253 1.2899 10.9395Z" fill="black"/>
<path d="M10.9394 1.28998C11.3536 1.28998 11.6894 1.62576 11.6894 2.03998L11.6894 7.40394C11.6894 7.81815 11.3536 8.15394 10.9394 8.15394C10.5252 8.15394 10.1894 7.81815 10.1894 7.40394V2.03998C10.1894 1.62577 10.5252 1.28998 10.9394 1.28998Z" fill="black"/>
<path d="M3.46984 4.5307C3.17694 4.2378 3.17694 3.76293 3.46984 3.47004C3.76273 3.17714 4.2376 3.17714 4.5305 3.47004L9.0305 7.97004C9.32339 8.26293 9.32339 8.7378 9.0305 9.0307C8.7376 9.32359 8.26273 9.32359 7.96984 9.0307L3.46984 4.5307Z" fill="black"/>
<path d="M14.47 14.4702C14.1771 14.7631 14.1771 15.2379 14.47 15.5308L18.97 20.0308C19.2629 20.3237 19.7377 20.3237 20.0306 20.0308C20.3235 19.7379 20.3235 19.2631 20.0306 18.9702L15.5306 14.4702C15.2377 14.1773 14.7629 14.1773 14.47 14.4702Z" fill="black"/>
<path d="M21.9602 12.3108C22.3744 12.3108 22.7102 12.6466 22.7102 13.0608C22.7102 13.475 22.3744 13.8108 21.9602 13.8108H16.5962C16.182 13.8108 15.8462 13.475 15.8462 13.0608C15.8462 12.6466 16.182 12.3108 16.5962 12.3108H21.9602Z" fill="black"/>
</svg>
