<svg width="24" height="24" viewBox="0 0 24 24" fill="none" xmlns="http://www.w3.org/2000/svg">
<path d="M12.9393 2.67329L12.9393 4.03102L13.1271 3.84312C15.0684 1.9019 18.2157 1.9019 20.1569 3.84312C22.0981 5.78434 22.0981 8.93168 20.1569 10.8729L19.9692 11.0607L21.3269 11.0607C23.1839 8.71696 23.0297 5.30165 20.864 3.13602C18.6984 0.970343 15.2829 0.816097 12.9393 2.67329Z" fill="black"/>
<path d="M3.84288 20.1572C1.90166 18.2159 1.90166 15.0686 3.84288 13.1274L4.03093 12.9393H2.67317C0.815847 15.283 0.970048 18.6986 3.13577 20.8643C5.30145 23.03 8.71688 23.1842 11.0606 21.327V19.9693L10.8727 20.1572C8.93144 22.0984 5.7841 22.0984 3.84288 20.1572Z" fill="black"/>
<path d="M16.2223 7.77904C16.4176 7.9743 16.4176 8.29088 16.2223 8.48614L8.48546 16.223C8.29019 16.4183 7.97361 16.4183 7.77835 16.223C7.58309 16.0278 7.58309 15.7112 7.77835 15.5159L15.5152 7.77904C15.7105 7.58378 16.0271 7.58378 16.2223 7.77904Z" fill="black"/>
<path d="M13.0607 22.4603C12.7846 22.4603 12.5607 22.2364 12.5607 21.9603L12.5607 16.5963C12.5607 16.3202 12.7846 16.0963 13.0607 16.0963C13.3369 16.0963 13.5607 16.3202 13.5607 16.5963L13.5607 21.9603C13.5607 22.2364 13.3369 22.4603 13.0607 22.4603Z" fill="black"/>
<path d="M1.5399 10.9395C1.5399 11.2156 1.76376 11.4395 2.0399 11.4395L7.40386 11.4395C7.68 11.4395 7.90386 11.2156 7.90386 10.9395C7.90386 10.6633 7.68 10.4395 7.40386 10.4395H2.0399C1.76376 10.4395 1.5399 10.6633 1.5399 10.9395Z" fill="black"/>
<path d="M10.9394 1.53998C11.2155 1.53998 11.4394 1.76384 11.4394 2.03998V7.40394C11.4394 7.68008 11.2155 7.90394 10.9394 7.90394C10.6633 7.90394 10.4394 7.68008 10.4394 7.40394L10.4394 2.03998C10.4394 1.76384 10.6633 1.53998 10.9394 1.53998Z" fill="black"/>
<path d="M3.64662 4.35392C3.45135 4.15866 3.45135 3.84208 3.64662 3.64681C3.84188 3.45155 4.15846 3.45155 4.35372 3.64682L8.85372 8.14681C9.04898 8.34208 9.04898 8.65866 8.85372 8.85392C8.65846 9.04918 8.34188 9.04918 8.14661 8.85392L3.64662 4.35392Z" fill="black"/>
<path d="M14.6468 14.647C14.4515 14.8422 14.4515 15.1588 14.6468 15.3541L19.1467 19.8541C19.342 20.0493 19.6586 20.0493 19.8539 19.8541C20.0491 19.6588 20.0491 19.3422 19.8539 19.147L15.3539 14.647C15.1586 14.4517 14.842 14.4517 14.6468 14.647Z" fill="black"/>
<path d="M21.9602 12.5608C22.2364 12.5608 22.4602 12.7847 22.4602 13.0608C22.4602 13.3369 22.2364 13.5608 21.9602 13.5608L16.5963 13.5608C16.3201 13.5608 16.0962 13.3369 16.0963 13.0608C16.0963 12.7847 16.3201 12.5608 16.5963 12.5608H21.9602Z" fill="black"/>
</svg>
