<svg width="24" height="24" viewBox="0 0 24 24" fill="none" xmlns="http://www.w3.org/2000/svg">
<path d="M12.9391 2.67329L12.9391 4.03102L13.127 3.84312C15.0682 1.9019 18.2156 1.9019 20.1568 3.84312C22.098 5.78434 22.098 8.93168 20.1568 10.8729L19.9691 11.0607L21.3268 11.0607C23.1838 8.71696 23.0295 5.30165 20.8639 3.13602C18.6982 0.970343 15.2828 0.816097 12.9391 2.67329Z" fill="black"/>
<path d="M3.84276 20.1572C1.90154 18.2159 1.90154 15.0686 3.84276 13.1274L4.03081 12.9393H2.67305C0.815725 15.283 0.969926 18.6986 3.13565 20.8643C5.30133 23.03 8.71676 23.1842 11.0604 21.327V19.9693L10.8725 20.1572C8.93132 22.0984 5.78398 22.0984 3.84276 20.1572Z" fill="black"/>
<path d="M16.2222 7.77904C16.4175 7.9743 16.4175 8.29088 16.2222 8.48614L8.48533 16.223C8.29007 16.4183 7.97349 16.4183 7.77823 16.223C7.58297 16.0278 7.58297 15.7112 7.77823 15.5159L15.5151 7.77904C15.7104 7.58378 16.027 7.58378 16.2222 7.77904Z" fill="black"/>
<path d="M13.0606 22.4603C12.7845 22.4603 12.5606 22.2364 12.5606 21.9603L12.5606 16.5963C12.5606 16.3202 12.7845 16.0963 13.0606 16.0963C13.3367 16.0963 13.5606 16.3202 13.5606 16.5963L13.5606 21.9603C13.5606 22.2364 13.3367 22.4603 13.0606 22.4603Z" fill="black"/>
<path d="M1.53978 10.9395C1.53978 11.2156 1.76364 11.4395 2.03978 11.4395L7.40374 11.4395C7.67988 11.4395 7.90374 11.2156 7.90374 10.9395C7.90374 10.6633 7.67988 10.4395 7.40374 10.4395H2.03978C1.76364 10.4395 1.53978 10.6633 1.53978 10.9395Z" fill="black"/>
<path d="M10.9393 1.53998C11.2154 1.53998 11.4393 1.76384 11.4393 2.03998V7.40394C11.4393 7.68008 11.2154 7.90394 10.9393 7.90394C10.6631 7.90394 10.4393 7.68008 10.4393 7.40394L10.4393 2.03998C10.4393 1.76384 10.6631 1.53998 10.9393 1.53998Z" fill="black"/>
<path d="M3.64649 4.35392C3.45123 4.15866 3.45123 3.84208 3.64649 3.64681C3.84176 3.45155 4.15834 3.45155 4.3536 3.64682L8.8536 8.14681C9.04886 8.34208 9.04886 8.65866 8.8536 8.85392C8.65834 9.04918 8.34175 9.04918 8.14649 8.85392L3.64649 4.35392Z" fill="black"/>
<path d="M14.6466 14.647C14.4514 14.8422 14.4514 15.1588 14.6466 15.3541L19.1466 19.8541C19.3419 20.0493 19.6585 20.0493 19.8537 19.8541C20.049 19.6588 20.049 19.3422 19.8537 19.147L15.3537 14.647C15.1585 14.4517 14.8419 14.4517 14.6466 14.647Z" fill="black"/>
<path d="M21.9601 12.5608C22.2362 12.5608 22.4601 12.7847 22.4601 13.0608C22.4601 13.3369 22.2362 13.5608 21.9601 13.5608L16.5961 13.5608C16.32 13.5608 16.0961 13.3369 16.0961 13.0608C16.0961 12.7847 16.32 12.5608 16.5961 12.5608H21.9601Z" fill="black"/>
</svg>
