<svg width="24" height="24" viewBox="0 0 24 24" fill="none" xmlns="http://www.w3.org/2000/svg">
<path d="M4.01965 19.9804C2.17607 18.1368 2.17607 15.1478 4.01965 13.3042L4.38449 12.9393H2.35807C0.549594 15.3748 0.749901 18.832 2.95899 21.0411C5.16804 23.2501 8.62514 23.4504 11.0606 21.6421V19.6157L10.6959 19.9804C8.85229 21.824 5.86324 21.824 4.01965 19.9804Z" fill="black"/>
<path d="M12.9392 2.35819L12.9393 4.38457L13.3039 4.0199C15.1475 2.17631 18.1366 2.17631 19.9801 4.0199C21.8237 5.86349 21.8237 8.85254 19.9801 10.6961L19.6156 11.0607H21.642C23.4502 8.62523 23.2498 5.16824 21.0408 2.95924C18.8318 0.750196 15.3747 0.549845 12.9392 2.35819Z" fill="black"/>
<path d="M16.3991 7.60226C16.692 7.89515 16.692 8.37003 16.3991 8.66292L8.66223 16.3998C8.36934 16.6927 7.89447 16.6927 7.60157 16.3998C7.30868 16.1069 7.30868 15.632 7.60157 15.3391L15.3385 7.60226C15.6314 7.30937 16.1062 7.30937 16.3991 7.60226Z" fill="black"/>
<path d="M13.0607 22.4603C12.7846 22.4603 12.5607 22.2364 12.5607 21.9603V16.5963C12.5607 16.3202 12.7846 16.0963 13.0607 16.0963C13.3369 16.0963 13.5607 16.3202 13.5607 16.5963V21.9603C13.5607 22.2364 13.3369 22.4603 13.0607 22.4603Z" fill="black"/>
<path d="M1.5399 10.9395C1.5399 11.2156 1.76376 11.4395 2.0399 11.4395H7.40386C7.68 11.4395 7.90386 11.2156 7.90386 10.9395C7.90386 10.6633 7.68 10.4395 7.40386 10.4395L2.0399 10.4395C1.76376 10.4395 1.5399 10.6633 1.5399 10.9395Z" fill="black"/>
<path d="M10.9394 1.53998C11.2155 1.53998 11.4394 1.76384 11.4394 2.03998L11.4394 7.40394C11.4394 7.68008 11.2155 7.90394 10.9394 7.90394C10.6633 7.90394 10.4394 7.68008 10.4394 7.40394L10.4394 2.03998C10.4394 1.76384 10.6633 1.53998 10.9394 1.53998Z" fill="black"/>
<path d="M3.64662 4.35392C3.45135 4.15866 3.45135 3.84208 3.64662 3.64681C3.84188 3.45155 4.15846 3.45155 4.35372 3.64681L8.85372 8.14681C9.04898 8.34208 9.04898 8.65866 8.85372 8.85392C8.65846 9.04918 8.34188 9.04918 8.14661 8.85392L3.64662 4.35392Z" fill="black"/>
<path d="M14.6468 14.6469C14.4515 14.8422 14.4515 15.1588 14.6468 15.3541L19.1467 19.8541C19.342 20.0493 19.6586 20.0493 19.8539 19.8541C20.0491 19.6588 20.0491 19.3422 19.8539 19.1469L15.3539 14.647C15.1586 14.4517 14.842 14.4517 14.6468 14.6469Z" fill="black"/>
<path d="M21.9602 12.5608C22.2364 12.5608 22.4602 12.7847 22.4602 13.0608C22.4602 13.3369 22.2364 13.5608 21.9602 13.5608L16.5963 13.5608C16.3201 13.5608 16.0962 13.3369 16.0963 13.0608C16.0963 12.7847 16.3201 12.5608 16.5963 12.5608L21.9602 12.5608Z" fill="black"/>
</svg>
