<svg width="24" height="24" viewBox="0 0 24 24" fill="none" xmlns="http://www.w3.org/2000/svg">
<path d="M4.01953 19.9804C2.17594 18.1368 2.17594 15.1478 4.01953 13.3042L4.38437 12.9393H2.35795C0.549471 15.3748 0.749779 18.832 2.95887 21.0411C5.16792 23.2501 8.62502 23.4504 11.0604 21.6421V19.6157L10.6958 19.9804C8.85217 21.824 5.86312 21.824 4.01953 19.9804Z" fill="black"/>
<path d="M12.9391 2.35819L12.9391 4.38457L13.3038 4.0199C15.1474 2.17631 18.1364 2.17631 19.98 4.0199C21.8236 5.86349 21.8236 8.85254 19.98 10.6961L19.6155 11.0607H21.6418C23.4501 8.62523 23.2497 5.16824 21.0407 2.95924C18.8316 0.750196 15.3746 0.549845 12.9391 2.35819Z" fill="black"/>
<path d="M16.399 7.60226C16.6919 7.89515 16.6919 8.37003 16.399 8.66292L8.66211 16.3998C8.36922 16.6927 7.89434 16.6927 7.60145 16.3998C7.30856 16.1069 7.30856 15.632 7.60145 15.3391L15.3383 7.60226C15.6312 7.30937 16.1061 7.30937 16.399 7.60226Z" fill="black"/>
<path d="M13.0606 22.4603C12.7845 22.4603 12.5606 22.2364 12.5606 21.9603V16.5963C12.5606 16.3202 12.7845 16.0963 13.0606 16.0963C13.3367 16.0963 13.5606 16.3202 13.5606 16.5963V21.9603C13.5606 22.2364 13.3367 22.4603 13.0606 22.4603Z" fill="black"/>
<path d="M1.53978 10.9395C1.53978 11.2156 1.76363 11.4395 2.03978 11.4395H7.40374C7.67988 11.4395 7.90374 11.2156 7.90374 10.9395C7.90374 10.6633 7.67988 10.4395 7.40374 10.4395L2.03978 10.4395C1.76364 10.4395 1.53978 10.6633 1.53978 10.9395Z" fill="black"/>
<path d="M10.9393 1.53998C11.2154 1.53998 11.4393 1.76384 11.4393 2.03998L11.4393 7.40394C11.4393 7.68008 11.2154 7.90394 10.9393 7.90394C10.6631 7.90394 10.4393 7.68008 10.4393 7.40394L10.4393 2.03998C10.4393 1.76384 10.6631 1.53998 10.9393 1.53998Z" fill="black"/>
<path d="M3.64649 4.35392C3.45123 4.15866 3.45123 3.84208 3.64649 3.64681C3.84176 3.45155 4.15834 3.45155 4.3536 3.64681L8.8536 8.14681C9.04886 8.34208 9.04886 8.65866 8.8536 8.85392C8.65834 9.04918 8.34175 9.04918 8.14649 8.85392L3.64649 4.35392Z" fill="black"/>
<path d="M14.6466 14.6469C14.4514 14.8422 14.4514 15.1588 14.6466 15.3541L19.1466 19.8541C19.3419 20.0493 19.6585 20.0493 19.8537 19.8541C20.049 19.6588 20.049 19.3422 19.8537 19.1469L15.3537 14.647C15.1585 14.4517 14.8419 14.4517 14.6466 14.6469Z" fill="black"/>
<path d="M21.9601 12.5608C22.2362 12.5608 22.4601 12.7847 22.4601 13.0608C22.4601 13.3369 22.2362 13.5608 21.9601 13.5608L16.5961 13.5608C16.32 13.5608 16.0961 13.3369 16.0961 13.0608C16.0961 12.7847 16.32 12.5608 16.5961 12.5608L21.9601 12.5608Z" fill="black"/>
</svg>
