<svg width="24" height="24" viewBox="0 0 24 24" fill="none" xmlns="http://www.w3.org/2000/svg">
<path d="M4.19643 19.8036C2.45047 18.0577 2.45047 15.2269 4.19643 13.4809L4.23804 13.4393H1.7334C0.324725 15.9096 0.674331 19.1099 2.78222 21.2178C4.89006 23.3257 8.09032 23.6753 10.5606 22.2667L10.5606 19.7622L10.5191 19.8036C8.77315 21.5496 5.94239 21.5496 4.19643 19.8036Z" fill="black"/>
<path d="M13.4392 4.23813L13.4807 4.19667C15.2267 2.45072 18.0574 2.45072 19.8034 4.19668C21.5493 5.94264 21.5493 8.77339 19.8034 10.5194L19.7621 10.5606L22.2666 10.5607C23.675 8.09043 23.3254 4.89026 21.2176 2.78246C19.1097 0.674623 15.9095 0.324983 13.4393 1.73355L13.4392 4.23813Z" fill="black"/>
<path d="M16.5759 7.42548C16.9664 7.81601 16.9664 8.44917 16.5759 8.8397L8.83901 16.5766C8.44849 16.9671 7.81532 16.9671 7.4248 16.5766C7.03427 16.1861 7.03427 15.5529 7.4248 15.1624L15.1617 7.42548C15.5522 7.03496 16.1854 7.03496 16.5759 7.42548Z" fill="black"/>
<path d="M13.0607 22.7103C12.6465 22.7103 12.3107 22.3745 12.3107 21.9603L12.3107 16.5963C12.3107 16.1821 12.6465 15.8463 13.0607 15.8463C13.4749 15.8463 13.8107 16.1821 13.8107 16.5963V21.9603C13.8107 22.3745 13.4749 22.7103 13.0607 22.7103Z" fill="black"/>
<path d="M1.2899 10.9395C1.2899 11.3537 1.62569 11.6895 2.0399 11.6895L7.40386 11.6895C7.81807 11.6895 8.15386 11.3537 8.15386 10.9395C8.15386 10.5253 7.81807 10.1895 7.40386 10.1895H2.0399C1.62569 10.1895 1.2899 10.5253 1.2899 10.9395Z" fill="black"/>
<path d="M10.9394 1.28998C11.3536 1.28998 11.6894 1.62577 11.6894 2.03998V7.40394C11.6894 7.81816 11.3536 8.15394 10.9394 8.15394C10.5252 8.15394 10.1894 7.81815 10.1894 7.40394V2.03998C10.1894 1.62577 10.5252 1.28998 10.9394 1.28998Z" fill="black"/>
<path d="M3.46984 4.5307C3.17695 4.2378 3.17694 3.76293 3.46984 3.47004C3.76273 3.17714 4.23761 3.17714 4.5305 3.47004L9.0305 7.97004C9.32339 8.26293 9.32339 8.7378 9.0305 9.0307C8.7376 9.32359 8.26273 9.32359 7.96984 9.0307L3.46984 4.5307Z" fill="black"/>
<path d="M14.47 14.4702C14.1771 14.7631 14.1771 15.2379 14.47 15.5308L18.97 20.0308C19.2629 20.3237 19.7377 20.3237 20.0306 20.0308C20.3235 19.7379 20.3235 19.2631 20.0306 18.9702L15.5306 14.4702C15.2377 14.1773 14.7629 14.1773 14.47 14.4702Z" fill="black"/>
<path d="M21.9602 12.3108C22.3744 12.3108 22.7102 12.6466 22.7102 13.0608C22.7102 13.475 22.3744 13.8108 21.9602 13.8108L16.5963 13.8108C16.182 13.8108 15.8462 13.475 15.8462 13.0608C15.8463 12.6466 16.182 12.3108 16.5963 12.3108H21.9602Z" fill="black"/>
</svg>
