<svg width="24" height="25" viewBox="0 0 24 25" fill="none" xmlns="http://www.w3.org/2000/svg">
<path d="M7.18037 2.22461C7.18037 1.53425 6.62072 0.974609 5.93037 0.974609C5.24001 0.974609 4.68037 1.53425 4.68037 2.22461V12.4099C4.68037 16.4754 7.97609 19.7712 12.0416 19.7712C16.107 19.7712 19.4028 16.4754 19.4028 12.4099V2.22461C19.4028 1.53425 18.8431 0.974609 18.1528 0.974609C17.4624 0.974609 16.9028 1.53425 16.9028 2.22461V12.4099C16.9028 15.0947 14.7263 17.2712 12.0416 17.2712C9.3568 17.2712 7.18037 15.0947 7.18037 12.4099V2.22461Z" fill="black"/>
<path d="M5.25134 22.0243C4.56099 22.0243 4.00134 22.584 4.00134 23.2743C4.00134 23.9647 4.56099 24.5243 5.25134 24.5243H18.8318C19.5222 24.5243 20.0818 23.9647 20.0818 23.2743C20.0818 22.584 19.5222 22.0243 18.8318 22.0243H5.25134Z" fill="black"/>
</svg>
