<svg width="24" height="24" viewBox="0 0 24 24" fill="none" xmlns="http://www.w3.org/2000/svg">
<path d="M6.93037 1.22461C6.93037 0.672325 6.48265 0.224609 5.93037 0.224609C5.37808 0.224609 4.93037 0.672325 4.93037 1.22461V11.4099C4.93037 15.3374 8.11416 18.5212 12.0416 18.5212C15.969 18.5212 19.1528 15.3374 19.1528 11.4099V1.22461C19.1528 0.672325 18.7051 0.224609 18.1528 0.224609C17.6005 0.224609 17.1528 0.672325 17.1528 1.22461V11.4099C17.1528 14.2328 14.8644 16.5212 12.0416 16.5212C9.21873 16.5212 6.93037 14.2328 6.93037 11.4099V1.22461Z" fill="black"/>
<path d="M5.25134 21.2743C4.69906 21.2743 4.25134 21.722 4.25134 22.2743C4.25134 22.8266 4.69906 23.2743 5.25134 23.2743H18.8318C19.3841 23.2743 19.8318 22.8266 19.8318 22.2743C19.8318 21.722 19.3841 21.2743 18.8318 21.2743H5.25134Z" fill="black"/>
</svg>
