<svg width="24" height="24" viewBox="0 0 24 24" fill="none" xmlns="http://www.w3.org/2000/svg">
<path d="M6.68037 1.22461C6.68037 0.810396 6.34458 0.474609 5.93037 0.474609C5.51615 0.474609 5.18037 0.810396 5.18037 1.22461V11.4099C5.18037 15.1993 8.25223 18.2712 12.0416 18.2712C15.8309 18.2712 18.9028 15.1993 18.9028 11.4099V1.22461C18.9028 0.810396 18.567 0.474609 18.1528 0.474609C17.7386 0.474609 17.4028 0.810396 17.4028 1.22461V11.4099C17.4028 14.3709 15.0025 16.7712 12.0416 16.7712C9.08066 16.7712 6.68037 14.3709 6.68037 11.4099V1.22461Z" fill="black"/>
<path d="M5.25134 21.5243C4.83713 21.5243 4.50134 21.8601 4.50134 22.2743C4.50134 22.6885 4.83713 23.0243 5.25134 23.0243H18.8318C19.246 23.0243 19.5818 22.6885 19.5818 22.2743C19.5818 21.8601 19.246 21.5243 18.8318 21.5243H5.25134Z" fill="black"/>
</svg>
