<svg width="24" height="24" viewBox="0 0 24 24" fill="none" xmlns="http://www.w3.org/2000/svg">
<path fill-rule="evenodd" clip-rule="evenodd" d="M11.1597 4.28002C11.2928 4.20066 11.4388 4.13273 11.599 4.13771C11.8225 4.14466 12.0312 4.25094 12.1682 4.42758C12.2665 4.5542 12.2974 4.71227 12.3115 4.86656C12.3257 5.02162 12.3257 5.22114 12.3257 5.46394V8.40546C12.3257 8.54353 12.4376 8.65546 12.5757 8.65546C18.2366 8.65546 22.8257 13.2445 22.8257 18.9055V18.9089C22.8257 18.9909 22.8257 19.0571 22.8245 19.1085C22.8233 19.1576 22.8209 19.2092 22.8119 19.2553C22.7064 19.7979 22.0703 20.0438 21.6273 19.7133C21.5896 19.6852 21.5531 19.6487 21.5191 19.6131C21.4837 19.5759 21.4392 19.527 21.384 19.4663L21.0904 19.1433C18.9578 16.7975 16.0027 15.3831 12.8592 15.1807C12.7239 15.1719 12.6392 15.1667 12.5738 15.1686C12.5136 15.1703 12.4885 15.1779 12.4723 15.1853C12.4263 15.2062 12.379 15.2505 12.3552 15.2951C12.3477 15.3092 12.3379 15.3345 12.3321 15.4004C12.3259 15.4703 12.3257 15.5618 12.3257 15.7055V18.347C12.3257 18.5898 12.3257 18.7893 12.3115 18.9444C12.2974 19.0987 12.2665 19.2567 12.1682 19.3833C12.0312 19.56 11.8225 19.6663 11.599 19.6732C11.4388 19.6782 11.2928 19.6103 11.1597 19.5309C11.026 19.4512 10.8646 19.3338 10.6683 19.191L1.8091 12.748C1.66656 12.6443 1.54618 12.5568 1.45582 12.4778C1.36253 12.3962 1.27672 12.3035 1.2284 12.1814C1.15824 12.0041 1.15824 11.8068 1.2284 11.6295C1.27672 11.5074 1.36253 11.4147 1.45582 11.3331C1.54618 11.2542 1.66657 11.1666 1.80911 11.0629L10.6683 4.61992C10.8646 4.47712 11.026 4.35976 11.1597 4.28002ZM11.4158 4.70946C11.3041 4.77608 11.1612 4.87967 10.9522 5.03167L2.11234 11.4607C1.95821 11.5728 1.8563 11.6472 1.78489 11.7096C1.71448 11.7711 1.69841 11.8006 1.69332 11.8135C1.66994 11.8726 1.66994 11.9384 1.69332 11.9974C1.69841 12.0103 1.71448 12.0398 1.78489 12.1013C1.8563 12.1638 1.95821 12.2382 2.11234 12.3503L10.9522 18.7793C11.1612 18.9313 11.3041 19.0348 11.4158 19.1015C11.5305 19.1699 11.5725 19.1738 11.5835 19.1735C11.6579 19.1711 11.7275 19.1357 11.7732 19.0768C11.7799 19.0682 11.8015 19.0319 11.8136 18.8989C11.8254 18.7693 11.8257 18.5929 11.8257 18.3344V15.6953C11.8257 15.5648 11.8257 15.4509 11.834 15.3564C11.8429 15.2554 11.8627 15.1559 11.9141 15.0596C11.9898 14.9179 12.1194 14.7964 12.2656 14.73C12.3634 14.6856 12.4607 14.6716 12.5597 14.6688C12.651 14.6662 12.7591 14.6732 12.8811 14.681L12.8913 14.6817C16.1638 14.8924 19.2403 16.3649 21.4604 18.807L21.7517 19.1274C21.8097 19.1912 21.8502 19.2357 21.881 19.2681C21.8962 19.284 21.9073 19.2951 21.9156 19.303C21.9241 19.3111 21.9262 19.3126 21.9262 19.3126C22.0739 19.4227 22.2859 19.3407 22.3211 19.1599C22.3211 19.1599 22.3216 19.1574 22.3225 19.1457C22.3234 19.1343 22.3241 19.1186 22.3246 19.0966C22.3257 19.0519 22.3257 18.9917 22.3257 18.9055C22.3257 13.5207 17.9605 9.15546 12.5757 9.15546C12.1615 9.15546 11.8257 8.81968 11.8257 8.40546V5.47648C11.8257 5.21804 11.8254 5.04159 11.8136 4.91204C11.8015 4.77906 11.7799 4.74275 11.7732 4.73409C11.7275 4.67521 11.6579 4.63978 11.5835 4.63747C11.5725 4.63713 11.5305 4.64107 11.4158 4.70946Z" fill="black"/>
</svg>
