<svg width="24" height="24" viewBox="0 0 24 24" fill="none" xmlns="http://www.w3.org/2000/svg">
<path d="M1.62503 6.70752C1.52636 6.80411 1.52636 6.9607 1.62503 7.05728L5.74323 11.0884C5.8419 11.1849 6.00187 11.1849 6.10054 11.0884C6.19921 10.9918 6.19921 10.8352 6.10054 10.7386L2.4164 7.1324H15.0617C18.8592 7.1324 21.9377 10.2109 21.9377 14.0084C21.9377 17.8059 18.8592 20.8844 15.0617 20.8844H10.5397C10.4016 20.8844 10.2897 20.9964 10.2897 21.1344C10.2897 21.2725 10.4016 21.3844 10.5397 21.3844H15.0617C19.1354 21.3844 22.4377 18.0821 22.4377 14.0084C22.4377 9.93476 19.1354 6.6324 15.0617 6.6324H2.4164L6.10054 3.02619C6.19921 2.92961 6.19921 2.77302 6.10054 2.67644C6.00187 2.57986 5.8419 2.57986 5.74323 2.67644L1.62503 6.70752Z" fill="black"/>
</svg>
