<svg width="24" height="24" viewBox="0 0 24 24" fill="none" xmlns="http://www.w3.org/2000/svg">
<path d="M1.09679 6.18313C0.702112 6.56946 0.702112 7.19582 1.09679 7.58215L5.21499 11.6132C5.60966 11.9996 6.24956 11.9996 6.64424 11.6132C7.03891 11.2269 7.03891 10.6005 6.64424 10.2142L4.26227 7.88264H15.0694C18.4527 7.88264 21.1955 10.6254 21.1955 14.0087C21.1955 17.392 18.4527 20.1347 15.0694 20.1347H10.5474C9.99515 20.1347 9.54743 20.5824 9.54743 21.1347C9.54743 21.687 9.99515 22.1347 10.5474 22.1347H15.0694C19.5573 22.1347 23.1955 18.4965 23.1955 14.0087C23.1955 9.52078 19.5573 5.88264 15.0694 5.88264H4.26227L6.64424 3.55107C7.03891 3.16474 7.03891 2.53838 6.64424 2.15205C6.24956 1.76572 5.60966 1.76572 5.21499 2.15205L1.09679 6.18313Z" fill="black"/>
</svg>
