<svg width="24" height="24" viewBox="0 0 24 24" fill="none" xmlns="http://www.w3.org/2000/svg">
<path fill-rule="evenodd" clip-rule="evenodd" d="M10.7756 3.63585C10.9362 3.54006 11.2383 3.37613 11.6223 3.38807C12.0692 3.40197 12.4867 3.61453 12.7608 3.96781C12.9963 4.27137 13.0414 4.61208 13.0584 4.79833C13.0758 4.98846 13.0757 5.21891 13.0757 5.44183C13.0757 5.4534 13.0757 5.46495 13.0757 5.47648V7.91662C18.9188 8.17802 23.5757 12.9979 23.5757 18.9055C23.5757 18.9852 23.5758 19.0631 23.5743 19.1263C23.573 19.1777 23.5702 19.2848 23.5481 19.3985C23.3371 20.4836 22.0648 20.9754 21.1788 20.3145C21.0859 20.2452 21.0118 20.1679 20.9763 20.1306C20.9346 20.0868 20.8847 20.032 20.8334 19.9756L20.5354 19.6478C18.5941 17.5124 15.9264 16.1994 13.0757 15.9492V18.3344C13.0757 18.346 13.0757 18.3575 13.0757 18.3691C13.0757 18.592 13.0758 18.8225 13.0584 19.0126C13.0414 19.1988 12.9963 19.5396 12.7608 19.8431C12.4867 20.1964 12.0692 20.409 11.6223 20.4229C11.2383 20.4348 10.9362 20.2709 10.7756 20.1751C10.6116 20.0773 10.4253 19.9417 10.245 19.8106L1.37713 13.3612C1.36944 13.3556 1.36168 13.3499 1.35386 13.3443C1.2243 13.2501 1.07878 13.1444 0.962229 13.0425C0.834603 12.9309 0.644183 12.7434 0.531011 12.4574C0.390705 12.1028 0.390705 11.7081 0.531011 11.3535C0.644183 11.0675 0.834603 10.88 0.962229 10.7685C1.07878 10.6666 1.22428 10.5608 1.35384 10.4667C1.36166 10.461 1.36943 10.4553 1.37713 10.4497L10.217 4.02075C10.2263 4.01397 10.2356 4.00718 10.245 4.00037C10.4252 3.86922 10.6116 3.73363 10.7756 3.63585ZM11.0757 5.86923L2.77587 11.9055L11.0757 17.9417V15.7055C11.0757 15.6977 11.0757 15.6898 11.0757 15.6818C11.0756 15.5641 11.0756 15.4192 11.0869 15.2904C11.1005 15.1368 11.1352 14.926 11.2526 14.7063C11.4059 14.4191 11.6591 14.1817 11.9555 14.0471C12.1756 13.9472 12.3812 13.9235 12.5384 13.9191C12.666 13.9155 12.8068 13.9246 12.9166 13.9317C12.9244 13.9323 12.932 13.9328 12.9395 13.9332C16.1613 14.1407 19.2036 15.5027 21.5049 17.771C20.947 13.336 17.162 9.90546 12.5757 9.90546C11.7473 9.90546 11.0757 9.23389 11.0757 8.40546V5.86923Z" fill="black"/>
</svg>
