<svg width="24" height="24" viewBox="0 0 24 24" fill="none" xmlns="http://www.w3.org/2000/svg">
<path d="M22.0576 19.7358C19.8462 17.244 16.8073 15.6701 13.5353 15.2814C13.045 15.2232 12.7998 15.194 12.5602 15.2921C12.3647 15.3721 12.1671 15.5477 12.0646 15.7323C11.9389 15.9587 11.9389 16.2348 11.9389 16.787V17.6634C11.9389 18.6897 11.9389 19.2029 11.7269 19.4743C11.5423 19.7104 11.2616 19.8514 10.962 19.8583C10.6177 19.8662 10.2061 19.5596 9.38305 18.9464L1.49765 13.0719C0.913839 12.637 0.621932 12.4195 0.517691 12.1525C0.426395 11.9187 0.426395 11.659 0.517691 11.4252C0.621932 11.1582 0.91384 10.9407 1.49765 10.5058L9.38306 4.63123C10.2061 4.01805 10.6177 3.71145 10.962 3.71939C11.2616 3.72629 11.5423 3.86723 11.7269 4.10338C11.9389 4.37474 11.9389 4.88793 11.9389 5.91432V7.97166C11.9389 8.20309 12.1265 8.3907 12.358 8.3907C18.5389 8.3907 23.5496 13.4014 23.5496 19.5823C23.5496 20.2232 22.7573 20.5241 22.3319 20.0448L22.0576 19.7358Z" fill="black"/>
</svg>
