<svg width="24" height="24" viewBox="0 0 24 24" fill="none" xmlns="http://www.w3.org/2000/svg">
<path d="M1.44903 6.53289C1.25169 6.72605 1.25169 7.03923 1.44903 7.2324L5.56723 11.2635C5.76457 11.4566 6.08452 11.4566 6.28185 11.2635C6.47919 11.0703 6.47919 10.7571 6.28185 10.564L3.03177 7.38264H15.0644C18.7238 7.38264 21.6904 10.3492 21.6904 14.0087C21.6904 17.6681 18.7238 20.6347 15.0644 20.6347H10.5424C10.2662 20.6347 10.0424 20.8585 10.0424 21.1347C10.0424 21.4108 10.2662 21.6347 10.5424 21.6347H15.0644C19.2761 21.6347 22.6904 18.2204 22.6904 14.0087C22.6904 9.79693 19.2761 6.38264 15.0644 6.38264H3.03177L6.28185 3.20131C6.47919 3.00815 6.47919 2.69497 6.28185 2.50181C6.08452 2.30864 5.76457 2.30864 5.56723 2.50181L1.44903 6.53289Z" fill="black"/>
</svg>
