<svg width="24" height="24" viewBox="0 0 24 24" fill="none" xmlns="http://www.w3.org/2000/svg">
<path fill-rule="evenodd" clip-rule="evenodd" d="M11.0317 4.06529C11.1739 3.98046 11.372 3.88053 11.6068 3.88783C11.9047 3.89709 12.183 4.0388 12.3658 4.27433C12.5098 4.45992 12.5454 4.67887 12.5605 4.84381C12.5757 5.01045 12.5757 5.21992 12.5757 5.45453V8.40546C18.3747 8.40546 23.0757 13.1065 23.0757 18.9055V18.9116C23.0757 18.9913 23.0757 19.06 23.0744 19.1144C23.0732 19.1643 23.0707 19.2344 23.0573 19.3031C22.9166 20.0264 22.0685 20.3543 21.4778 19.9137C21.4217 19.8719 21.3727 19.8218 21.3382 19.7856C21.3006 19.7462 21.2544 19.6953 21.2006 19.6362L20.9054 19.3115C18.8166 17.0138 15.9221 15.6284 12.8431 15.4301C12.7038 15.4212 12.6325 15.4171 12.5815 15.4185L12.5811 15.4224C12.5761 15.4787 12.5757 15.5574 12.5757 15.7055V18.3564C12.5757 18.591 12.5757 18.8005 12.5605 18.9671C12.5454 19.1321 12.5098 19.351 12.3658 19.5366C12.183 19.7721 11.9047 19.9138 11.6068 19.9231C11.372 19.9304 11.1739 19.8305 11.0317 19.7456C10.8879 19.6599 10.7185 19.5367 10.5288 19.3987L1.65571 12.9455C1.51875 12.846 1.39028 12.7525 1.29129 12.666C1.18656 12.5745 1.06588 12.4502 0.995934 12.2734C0.902397 12.037 0.902397 11.7739 0.995934 11.5375C1.06588 11.3608 1.18656 11.2365 1.29129 11.1449C1.39028 11.0584 1.51875 10.965 1.65571 10.8654L10.5288 4.41224C10.7185 4.27422 10.8879 4.151 11.0317 4.06529ZM11.5438 4.92418C11.4442 4.98356 11.3123 5.07892 11.0992 5.23386L2.25938 11.6628C2.10145 11.7777 2.0104 11.8445 1.94942 11.8978C1.94634 11.9005 1.94346 11.9031 1.94079 11.9055C1.94346 11.9079 1.94634 11.9104 1.94942 11.9131C2.0104 11.9664 2.10145 12.0332 2.25938 12.1481L11.0992 18.5771C11.3123 18.732 11.4442 18.8274 11.5438 18.8867C11.5505 18.8907 11.5567 18.8943 11.5625 18.8976C11.5632 18.891 11.5639 18.8839 11.5646 18.8761C11.5752 18.7607 11.5757 18.5979 11.5757 18.3344L11.5757 15.6889C11.5757 15.5641 11.5757 15.4402 11.585 15.3344C11.5955 15.2159 11.6202 15.0793 11.6936 14.9418C11.7952 14.7517 11.966 14.5915 12.1622 14.5024C12.3008 14.4395 12.4342 14.4222 12.5526 14.4189C12.6559 14.416 12.7745 14.4236 12.8909 14.4311L12.9074 14.4322C16.2444 14.6471 19.3815 16.1485 21.6454 18.6388L21.9366 18.9592C21.9955 19.024 22.0337 19.0659 22.062 19.0956C22.0667 19.1005 22.0707 19.1047 22.0742 19.1082C22.0743 19.1033 22.0745 19.0975 22.0747 19.0906C22.0757 19.0496 22.0757 18.993 22.0757 18.9055C22.0757 13.6588 17.8224 9.40546 12.5757 9.40546C12.0234 9.40546 11.5757 8.95775 11.5757 8.40546V5.47648C11.5757 5.21306 11.5752 5.05024 11.5646 4.93478C11.5639 4.92705 11.5632 4.9199 11.5625 4.91331C11.5567 4.91659 11.5505 4.9202 11.5438 4.92418Z" fill="black"/>
</svg>
