<svg width="24" height="24" viewBox="0 0 24 24" fill="none" xmlns="http://www.w3.org/2000/svg">
<path d="M1.27303 6.35777C0.977024 6.64751 0.977024 7.11728 1.27303 7.40703L5.39123 11.4381C5.68724 11.7279 6.16716 11.7279 6.46317 11.4381C6.75917 11.1484 6.75918 10.6786 6.46317 10.3889L3.64715 7.6324H15.067C18.5884 7.6324 21.443 10.487 21.443 14.0084C21.443 17.5298 18.5884 20.3844 15.067 20.3844H10.545C10.1308 20.3844 9.79502 20.7202 9.79502 21.1344C9.79502 21.5486 10.1308 21.8844 10.545 21.8844H15.067C19.4168 21.8844 22.943 18.3582 22.943 14.0084C22.943 9.65861 19.4168 6.1324 15.067 6.1324H3.64715L6.46317 3.37595C6.75918 3.0862 6.75917 2.61643 6.46317 2.32668C6.16716 2.03694 5.68724 2.03694 5.39123 2.32668L1.27303 6.35777Z" fill="black"/>
</svg>
