<svg width="24" height="24" viewBox="0 0 24 24" fill="none" xmlns="http://www.w3.org/2000/svg">
<path d="M4.19619 19.8034C2.45023 18.0574 2.45023 15.2267 4.19619 13.4807L4.2378 13.4391H1.73316C0.324481 15.9094 0.674087 19.1097 2.78197 21.2176C4.88982 23.3254 8.09008 23.6751 10.5603 22.2665L10.5603 19.7619L10.5189 19.8034C8.77291 21.5493 5.94214 21.5493 4.19619 19.8034Z" fill="black"/>
<path d="M13.439 4.23788L13.4805 4.19643C15.2264 2.45047 18.0572 2.45047 19.8031 4.19643C21.5491 5.94239 21.5491 8.77315 19.8031 10.5191L19.7618 10.5604L22.2663 10.5604C23.6748 8.09018 23.3251 4.89002 21.2173 2.78222C19.1095 0.674379 15.9093 0.324739 13.439 1.73331L13.439 4.23788Z" fill="black"/>
<path d="M16.5757 7.42524C16.9662 7.81576 16.9662 8.44893 16.5757 8.83945L8.83877 16.5763C8.44824 16.9669 7.81508 16.9669 7.42455 16.5763C7.03403 16.1858 7.03403 15.5527 7.42455 15.1621L15.1614 7.42524C15.552 7.03472 16.1851 7.03471 16.5757 7.42524Z" fill="black"/>
<path d="M13.0605 22.71C12.6463 22.71 12.3105 22.3743 12.3105 21.96L12.3105 16.5961C12.3105 16.1819 12.6463 15.8461 13.0605 15.8461C13.4747 15.8461 13.8105 16.1819 13.8105 16.5961V21.96C13.8105 22.3743 13.4747 22.71 13.0605 22.71Z" fill="black"/>
<path d="M1.28966 10.9392C1.28966 11.3534 1.62544 11.6892 2.03966 11.6892L7.40362 11.6892C7.81783 11.6892 8.15362 11.3534 8.15362 10.9392C8.15362 10.525 7.81783 10.1892 7.40362 10.1892H2.03966C1.62544 10.1892 1.28966 10.525 1.28966 10.9392Z" fill="black"/>
<path d="M10.9391 1.28974C11.3534 1.28974 11.6892 1.62552 11.6892 2.03974V7.4037C11.6892 7.81791 11.3534 8.1537 10.9391 8.1537C10.5249 8.1537 10.1892 7.81791 10.1891 7.4037V2.03974C10.1891 1.62552 10.5249 1.28974 10.9391 1.28974Z" fill="black"/>
<path d="M3.46959 4.53045C3.1767 4.23756 3.1767 3.76269 3.46959 3.46979C3.76249 3.1769 4.23736 3.1769 4.53025 3.46979L9.03025 7.96979C9.32315 8.26269 9.32315 8.73756 9.03025 9.03045C8.73736 9.32335 8.26249 9.32335 7.96959 9.03045L3.46959 4.53045Z" fill="black"/>
<path d="M14.4697 14.4699C14.1768 14.7628 14.1768 15.2377 14.4697 15.5306L18.9697 20.0306C19.2626 20.3235 19.7375 20.3235 20.0304 20.0306C20.3233 19.7377 20.3233 19.2628 20.0304 18.9699L15.5304 14.4699C15.2375 14.177 14.7626 14.177 14.4697 14.4699Z" fill="black"/>
<path d="M21.96 12.3106C22.3742 12.3106 22.71 12.6463 22.71 13.0606C22.71 13.4748 22.3742 13.8106 21.96 13.8106L16.596 13.8106C16.1818 13.8106 15.846 13.4748 15.846 13.0606C15.846 12.6463 16.1818 12.3106 16.596 12.3106H21.96Z" fill="black"/>
</svg>
