<svg width="24" height="24" viewBox="0 0 24 24" fill="none" xmlns="http://www.w3.org/2000/svg">
<path d="M4.37296 19.6266C2.72464 17.9783 2.72464 15.3058 4.37296 13.6575L4.59135 13.4391L1.44702 13.4391C0.0648474 15.9871 0.450906 19.2401 2.6052 21.3944C4.75945 23.5486 8.01229 23.9347 10.5603 22.5526V19.4084L10.3421 19.6266C8.69376 21.2749 6.02129 21.2749 4.37296 19.6266Z" fill="black"/>
<path d="M22.5525 10.5604C23.9344 8.0124 23.5483 4.75965 21.3941 2.60544C19.2399 0.451197 15.987 0.065107 13.439 1.44718V4.59143L13.6572 4.37321C15.3056 2.72488 17.978 2.72488 19.6264 4.37321C21.2747 6.02154 21.2747 8.694 19.6264 10.3423L19.4083 10.5604H22.5525Z" fill="black"/>
<path d="M16.7524 7.24846C17.2406 7.73662 17.2406 8.52807 16.7524 9.01623L9.01554 16.7531C8.52739 17.2413 7.73593 17.2413 7.24777 16.7531C6.75962 16.265 6.75962 15.4735 7.24777 14.9853L14.9847 7.24846C15.4728 6.76031 16.2643 6.76031 16.7524 7.24846Z" fill="black"/>
<path d="M13.0605 22.71C12.6463 22.71 12.3105 22.3743 12.3105 21.96V16.5961C12.3105 16.1819 12.6463 15.8461 13.0605 15.8461C13.4747 15.8461 13.8105 16.1819 13.8105 16.5961V21.96C13.8105 22.3743 13.4747 22.71 13.0605 22.71Z" fill="black"/>
<path d="M1.28965 10.9392C1.28965 11.3534 1.62544 11.6892 2.03965 11.6892L7.40362 11.6892C7.81783 11.6892 8.15362 11.3534 8.15362 10.9392C8.15362 10.525 7.81783 10.1892 7.40362 10.1892L2.03965 10.1892C1.62544 10.1892 1.28965 10.525 1.28965 10.9392Z" fill="black"/>
<path d="M10.9391 1.28973C11.3534 1.28973 11.6891 1.62552 11.6891 2.03973L11.6891 7.4037C11.6891 7.81791 11.3534 8.1537 10.9391 8.1537C10.5249 8.1537 10.1891 7.81791 10.1891 7.4037V2.03973C10.1891 1.62552 10.5249 1.28973 10.9391 1.28973Z" fill="black"/>
<path d="M3.46959 4.53045C3.1767 4.23756 3.1767 3.76269 3.46959 3.46979C3.76249 3.1769 4.23736 3.1769 4.53025 3.46979L9.03025 7.96979C9.32314 8.26269 9.32315 8.73756 9.03025 9.03045C8.73736 9.32334 8.26249 9.32334 7.96959 9.03045L3.46959 4.53045Z" fill="black"/>
<path d="M14.4697 14.4699C14.1768 14.7628 14.1768 15.2377 14.4697 15.5306L18.9697 20.0306C19.2626 20.3235 19.7375 20.3235 20.0304 20.0306C20.3233 19.7377 20.3233 19.2628 20.0304 18.9699L15.5304 14.4699C15.2375 14.177 14.7626 14.177 14.4697 14.4699Z" fill="black"/>
<path d="M21.96 12.3106C22.3742 12.3106 22.71 12.6463 22.71 13.0606C22.71 13.4748 22.3742 13.8106 21.96 13.8106H16.596C16.1818 13.8106 15.846 13.4748 15.846 13.0606C15.846 12.6463 16.1818 12.3106 16.596 12.3106H21.96Z" fill="black"/>
</svg>
