<svg width="24" height="24" viewBox="0 0 24 24" fill="none" xmlns="http://www.w3.org/2000/svg">
<path d="M12.939 2.67304L12.939 4.03077L13.1269 3.84288C15.0681 1.90166 18.2155 1.90166 20.1567 3.84288C22.0979 5.7841 22.0979 8.93144 20.1567 10.8727L19.9689 11.0604L21.3266 11.0604C23.1837 8.71672 23.0294 5.3014 20.8638 3.13577C18.6981 0.970099 15.2827 0.815853 12.939 2.67304Z" fill="black"/>
<path d="M3.84263 20.1569C1.90141 18.2157 1.90141 15.0684 3.84263 13.1271L4.03069 12.9391H2.67293C0.815603 15.2828 0.969803 18.6983 3.13553 20.864C5.30121 23.0297 8.71663 23.1839 11.0603 21.3267V19.969L10.8724 20.1569C8.9312 22.0981 5.78385 22.0981 3.84263 20.1569Z" fill="black"/>
<path d="M16.2221 7.77879C16.4174 7.97406 16.4174 8.29064 16.2221 8.4859L8.48521 16.2228C8.28995 16.418 7.97337 16.4181 7.77811 16.2228C7.58284 16.0275 7.58284 15.7109 7.77811 15.5157L15.515 7.77879C15.7103 7.58353 16.0268 7.58353 16.2221 7.77879Z" fill="black"/>
<path d="M13.0605 22.46C12.7843 22.46 12.5605 22.2362 12.5605 21.96L12.5605 16.5961C12.5605 16.3199 12.7843 16.0961 13.0605 16.0961C13.3366 16.0961 13.5605 16.3199 13.5605 16.5961L13.5605 21.96C13.5605 22.2362 13.3366 22.46 13.0605 22.46Z" fill="black"/>
<path d="M1.53966 10.9392C1.53966 11.2154 1.76351 11.4392 2.03966 11.4392L7.40362 11.4392C7.67976 11.4392 7.90362 11.2154 7.90362 10.9392C7.90362 10.6631 7.67976 10.4392 7.40362 10.4392H2.03966C1.76351 10.4392 1.53966 10.6631 1.53966 10.9392Z" fill="black"/>
<path d="M10.9392 1.53974C11.2153 1.53974 11.4392 1.76359 11.4392 2.03974V7.4037C11.4392 7.67984 11.2153 7.9037 10.9391 7.9037C10.663 7.9037 10.4391 7.67984 10.4391 7.4037L10.4392 2.03974C10.4392 1.7636 10.663 1.53974 10.9392 1.53974Z" fill="black"/>
<path d="M3.64637 4.35368C3.45111 4.15841 3.45111 3.84183 3.64637 3.64657C3.84163 3.45131 4.15822 3.45131 4.35348 3.64657L8.85348 8.14657C9.04874 8.34183 9.04874 8.65842 8.85348 8.85368C8.65821 9.04894 8.34163 9.04894 8.14637 8.85368L3.64637 4.35368Z" fill="black"/>
<path d="M14.6465 14.6467C14.4512 14.842 14.4512 15.1586 14.6465 15.3538L19.1465 19.8538C19.3418 20.0491 19.6584 20.0491 19.8536 19.8538C20.0489 19.6586 20.0489 19.342 19.8536 19.1467L15.3536 14.6467C15.1584 14.4514 14.8418 14.4514 14.6465 14.6467Z" fill="black"/>
<path d="M21.96 12.5606C22.2361 12.5606 22.46 12.7844 22.46 13.0606C22.46 13.3367 22.2361 13.5606 21.96 13.5606L16.596 13.5606C16.3199 13.5606 16.096 13.3367 16.096 13.0606C16.096 12.7844 16.3199 12.5606 16.596 12.5606H21.96Z" fill="black"/>
</svg>
