<svg width="24" height="24" viewBox="0 0 24 24" fill="none" xmlns="http://www.w3.org/2000/svg">
<path fill-rule="evenodd" clip-rule="evenodd" d="M0.123117 15.5643C0 14.787 0 13.858 0 12C0 10.142 0 9.21298 0.123117 8.43565C0.800832 4.15673 4.15673 0.800833 8.43565 0.123117C9.21298 0 10.142 0 12 0C13.858 0 14.787 0 15.5643 0.123117C19.8433 0.800833 23.1992 4.15673 23.8769 8.43565C24 9.21298 24 10.142 24 12C24 13.858 24 14.787 23.8769 15.5643C23.1992 19.8433 19.8433 23.1992 15.5643 23.8769C14.787 24 13.858 24 12 24C10.142 24 9.21298 24 8.43565 23.8769C4.15673 23.1992 0.800832 19.8433 0.123117 15.5643ZM5.29289 13.745L11.2111 7.82675C11.6468 7.39108 12.3532 7.39108 12.7889 7.82675L18.7071 13.745C19.0976 14.1355 19.0976 14.7687 18.7071 15.1592C18.3166 15.5497 17.6834 15.5497 17.2929 15.1592L12 9.86633L6.70711 15.1592C6.31658 15.5497 5.68342 15.5497 5.29289 15.1592C4.90237 14.7687 4.90237 14.1355 5.29289 13.745Z" fill="black"/>
</svg>
