<svg width="24" height="24" viewBox="0 0 24 24" fill="none" xmlns="http://www.w3.org/2000/svg">
<path fill-rule="evenodd" clip-rule="evenodd" d="M0.123117 15.5643C0 14.787 0 13.858 0 12C0 10.142 0 9.21298 0.123117 8.43565C0.800832 4.15673 4.15673 0.800833 8.43565 0.123117C9.21298 0 10.142 0 12 0C13.858 0 14.787 0 15.5643 0.123117C19.8433 0.800833 23.1992 4.15673 23.8769 8.43565C24 9.21298 24 10.142 24 12C24 13.858 24 14.787 23.8769 15.5643C23.1992 19.8433 19.8433 23.1992 15.5643 23.8769C14.787 24 13.858 24 12 24C10.142 24 9.21298 24 8.43565 23.8769C4.15673 23.1992 0.800832 19.8433 0.123117 15.5643ZM5.46967 13.9218L11.3879 8.00353C11.726 7.66549 12.274 7.66549 12.6121 8.00353L18.5303 13.9218C18.8232 14.2147 18.8232 14.6896 18.5303 14.9824C18.2374 15.2753 17.7626 15.2753 17.4697 14.9824L12 9.51277L6.53033 14.9824C6.23744 15.2753 5.76256 15.2753 5.46967 14.9824C5.17678 14.6896 5.17678 14.2147 5.46967 13.9218Z" fill="black"/>
</svg>
