<svg width="24" height="24" viewBox="0 0 24 24" fill="none" xmlns="http://www.w3.org/2000/svg">
<path fill-rule="evenodd" clip-rule="evenodd" d="M0.123117 15.5643C0 14.787 0 13.858 0 12C0 10.142 0 9.21298 0.123117 8.43565C0.800832 4.15673 4.15673 0.800833 8.43565 0.123117C9.21298 0 10.142 0 12 0C13.858 0 14.787 0 15.5643 0.123117C19.8433 0.800833 23.1992 4.15673 23.8769 8.43565C24 9.21298 24 10.142 24 12C24 13.858 24 14.787 23.8769 15.5643C23.1992 19.8433 19.8433 23.1992 15.5643 23.8769C14.787 24 13.858 24 12 24C10.142 24 9.21298 24 8.43565 23.8769C4.15673 23.1992 0.800832 19.8433 0.123117 15.5643ZM11.0344 7.64998C11.5677 7.11667 12.4323 7.11667 12.9656 7.64998L18.8839 13.5682C19.372 14.0564 19.372 14.8478 18.8839 15.336C18.3957 15.8242 17.6043 15.8242 17.1161 15.336L12 10.2199L6.88388 15.336C6.39573 15.8242 5.60427 15.8242 5.11612 15.336C4.62796 14.8478 4.62796 14.0564 5.11612 13.5682L11.0344 7.64998Z" fill="black"/>
</svg>
