<svg width="24" height="24" viewBox="0 0 24 24" fill="none" xmlns="http://www.w3.org/2000/svg">
<path d="M12.6247 6.19333C12.2342 5.8028 11.601 5.8028 11.2105 6.19333L7.66741 9.73644C7.27688 10.127 7.27688 10.7601 7.66741 11.1507C8.05793 11.5412 8.69109 11.5412 9.08162 11.1507L10.9176 9.31465L10.9176 16.634C10.9176 17.1863 11.3653 17.634 11.9176 17.634C12.4699 17.634 12.9176 17.1863 12.9176 16.634L12.9176 9.31465L14.7536 11.1507C15.1442 11.5412 15.7773 11.5412 16.1679 11.1507C16.5584 10.7601 16.5584 10.127 16.1679 9.73644L12.6247 6.19333Z" fill="black"/>
<path fill-rule="evenodd" clip-rule="evenodd" d="M23.5 11.9998C23.5 18.351 18.3513 23.4998 12 23.4998C5.64873 23.4998 0.5 18.351 0.5 11.9998C0.5 5.64848 5.64873 0.499756 12 0.499756C18.3513 0.499756 23.5 5.64848 23.5 11.9998ZM21.5 11.9998C21.5 17.2465 17.2467 21.4998 12 21.4998C6.75329 21.4998 2.5 17.2465 2.5 11.9998C2.5 6.75305 6.75329 2.49976 12 2.49976C17.2467 2.49976 21.5 6.75305 21.5 11.9998Z" fill="black"/>
</svg>
