<svg width="24" height="25" viewBox="0 0 24 25" fill="none" xmlns="http://www.w3.org/2000/svg">
<path d="M3.25 20C3.25 19.3096 2.69036 18.75 2 18.75C1.30964 18.75 0.75 19.3096 0.75 20C0.75 22.3472 2.65279 24.25 5 24.25L19 24.25C21.3472 24.25 23.25 22.3472 23.25 20C23.25 19.3096 22.6904 18.75 22 18.75C21.3096 18.75 20.75 19.3096 20.75 20C20.75 20.9665 19.9665 21.75 19 21.75H5C4.0335 21.75 3.25 20.9665 3.25 20Z" fill="black"/>
<path d="M12.9578 0.660306C12.4696 0.172151 11.6782 0.172151 11.19 0.660306L5.11612 6.73423C4.62796 7.22238 4.62796 8.01383 5.11612 8.50199C5.60427 8.99015 6.39573 8.99015 6.88388 8.50199L10.8239 4.56196L10.8239 19.2304C10.8239 19.9207 11.3836 20.4804 12.0739 20.4804C12.7643 20.4804 13.3239 19.9207 13.3239 19.2304L13.3239 4.56196L17.264 8.50199C17.7521 8.99015 18.5436 8.99015 19.0317 8.50199C19.5199 8.01384 19.5199 7.22238 19.0317 6.73422L12.9578 0.660306Z" fill="black"/>
</svg>
