<svg width="24" height="24" viewBox="0 0 24 24" fill="none" xmlns="http://www.w3.org/2000/svg">
<path d="M12.2712 6.54688C12.0759 6.35162 11.7593 6.35162 11.5641 6.54688L8.02096 10.09C7.8257 10.2853 7.8257 10.6018 8.02096 10.7971C8.21622 10.9924 8.5328 10.9924 8.72807 10.7971L11.4176 8.10754L11.4176 16.634C11.4176 16.9102 11.6415 17.134 11.9176 17.134C12.1938 17.134 12.4176 16.9102 12.4176 16.634L12.4176 8.10754L15.1072 10.7971C15.3025 10.9924 15.619 10.9924 15.8143 10.7971C16.0096 10.6018 16.0096 10.2853 15.8143 10.09L12.2712 6.54688Z" fill="black"/>
<path fill-rule="evenodd" clip-rule="evenodd" d="M23.5 11.9998C23.5 18.351 18.3513 23.4998 12 23.4998C5.64873 23.4998 0.5 18.351 0.5 11.9998C0.5 5.64848 5.64873 0.499756 12 0.499756C18.3513 0.499756 23.5 5.64848 23.5 11.9998ZM22.5 11.9998C22.5 17.7987 17.799 22.4998 12 22.4998C6.20101 22.4998 1.5 17.7987 1.5 11.9998C1.5 6.20077 6.20101 1.49976 12 1.49976C17.799 1.49976 22.5 6.20077 22.5 11.9998Z" fill="black"/>
</svg>
