<svg width="24" height="24" viewBox="0 0 24 24" fill="none" xmlns="http://www.w3.org/2000/svg">
<path fill-rule="evenodd" clip-rule="evenodd" d="M0.123117 8.43565C0 9.21298 0 10.142 0 12C0 13.858 0 14.787 0.123117 15.5643C0.800832 19.8433 4.15673 23.1992 8.43565 23.8769C9.21298 24 10.142 24 12 24C13.858 24 14.787 24 15.5643 23.8769C19.8433 23.1992 23.1992 19.8433 23.8769 15.5643C24 14.787 24 13.858 24 12C24 10.142 24 9.21298 23.8769 8.43565C23.1992 4.15673 19.8433 0.800832 15.5643 0.123117C14.787 0 13.858 0 12 0C10.142 0 9.21298 0 8.43565 0.123117C4.15673 0.800832 0.800832 4.15673 0.123117 8.43565ZM6.16667 15.7917C6.64992 15.7917 7.04167 16.1834 7.04167 16.6667C7.04167 17.1499 7.43342 17.5417 7.91667 17.5417H16.0833C16.5666 17.5417 16.9583 17.1499 16.9583 16.6667C16.9583 16.1834 17.3501 15.7917 17.8333 15.7917C18.3166 15.7917 18.7083 16.1834 18.7083 16.6667C18.7083 18.1164 17.5331 19.2917 16.0833 19.2917H7.91667C6.46692 19.2917 5.29167 18.1164 5.29167 16.6667C5.29167 16.1834 5.68342 15.7917 6.16667 15.7917ZM11.2993 5.28207C11.641 4.94036 12.195 4.94036 12.5368 5.28207L16.0799 8.82519C16.4216 9.1669 16.4216 9.72092 16.0799 10.0626C15.7382 10.4043 15.1841 10.4043 14.8424 10.0626L12.793 8.01322V15.6344C12.793 16.1176 12.4013 16.5094 11.918 16.5094C11.4348 16.5094 11.043 16.1176 11.043 15.6344V8.01322L8.99364 10.0626C8.65193 10.4043 8.09791 10.4043 7.7562 10.0626C7.41449 9.72091 7.41449 9.16689 7.7562 8.82519L11.2993 5.28207Z" fill="black"/>
</svg>
