<svg width="24" height="24" viewBox="0 0 24 24" fill="none" xmlns="http://www.w3.org/2000/svg">
<path d="M3 20C3 19.4477 2.55228 19 2 19C1.44772 19 1 19.4477 1 20C1 22.2091 2.79086 24 5 24H19C21.2091 24 23 22.2091 23 20C23 19.4477 22.5523 19 22 19C21.4477 19 21 19.4477 21 20C21 21.1046 20.1046 22 19 22H5C3.89543 22 3 21.1046 3 20Z" fill="black"/>
<path d="M13.281 0.837082C12.8905 0.446558 12.2573 0.446558 11.8668 0.837082L5.79289 6.911C5.40237 7.30153 5.40237 7.93469 5.79289 8.32521C6.18342 8.71574 6.81658 8.71574 7.20711 8.32521L11.5739 3.9584L11.5739 19.2304C11.5739 19.7826 12.0216 20.2304 12.5739 20.2304C13.1262 20.2304 13.5739 19.7826 13.5739 19.2304L13.5739 3.9584L17.9407 8.32521C18.3313 8.71574 18.9644 8.71574 19.3549 8.32521C19.7455 7.93469 19.7455 7.30153 19.3549 6.911L13.281 0.837082Z" fill="black"/>
</svg>
