<svg width="24" height="24" viewBox="0 0 24 24" fill="none" xmlns="http://www.w3.org/2000/svg">
<path fill-rule="evenodd" clip-rule="evenodd" d="M12 23.4998C18.3513 23.4998 23.5 18.351 23.5 11.9998C23.5 5.64848 18.3513 0.499756 12 0.499756C5.64873 0.499756 0.5 5.64848 0.5 11.9998C0.5 18.351 5.64873 23.4998 12 23.4998ZM12.8015 6.01655C12.3134 5.52839 11.5219 5.52839 11.0337 6.01655L7.49063 9.55967C7.00247 10.0478 7.00247 10.8393 7.49063 11.3274C7.97878 11.8156 8.77024 11.8156 9.2584 11.3274L10.6676 9.9182V16.634C10.6676 17.3244 11.2273 17.884 11.9176 17.884C12.608 17.884 13.1676 17.3244 13.1676 16.634V9.9182L14.5769 11.3274C15.065 11.8156 15.8565 11.8156 16.3446 11.3274C16.8328 10.8393 16.8328 10.0478 16.3446 9.55967L12.8015 6.01655Z" fill="black"/>
</svg>
