<svg width="24" height="24" viewBox="0 0 24 24" fill="none" xmlns="http://www.w3.org/2000/svg">
<path d="M8.5 9.38546C8.5 10.0385 8.08271 10.594 7.50024 10.8V14.1024L11.5 16.5023V15.8946C11.4999 15.8888 11.4999 15.883 11.5 15.8773V4.46896H10.5285C10.3324 4.46896 10.2344 4.46896 10.1807 4.42813C10.134 4.39258 10.1053 4.33827 10.1021 4.27963C10.0985 4.2123 10.1536 4.13123 10.2638 3.96908L11.7353 1.80393C11.824 1.67343 11.8684 1.60814 11.924 1.5853C11.9727 1.56532 12.0273 1.56532 12.0759 1.5853C12.1316 1.60814 12.1759 1.67339 12.2646 1.80389L13.7361 3.96908C13.8463 4.13121 13.9014 4.2123 13.8978 4.27963C13.8947 4.33827 13.8659 4.39258 13.8192 4.42813C13.7655 4.46896 13.6675 4.46896 13.4715 4.46896H12.5V15.0023L16.4998 12.6024V10.3855H15.82C15.708 10.3855 15.652 10.3855 15.6092 10.3637C15.5716 10.3445 15.541 10.3139 15.5218 10.2763C15.5 10.2335 15.5 10.1775 15.5 10.0655V7.70546C15.5 7.59345 15.5 7.53744 15.5218 7.49466C15.541 7.45703 15.5716 7.42643 15.6092 7.40726C15.652 7.38546 15.708 7.38546 15.82 7.38546L18.18 7.38546C18.292 7.38546 18.348 7.38546 18.3908 7.40726C18.4284 7.42643 18.459 7.45703 18.4782 7.49466C18.5 7.53744 18.5 7.59345 18.5 7.70546V10.0655C18.5 10.1775 18.5 10.2335 18.4782 10.2763C18.459 10.3139 18.4284 10.3445 18.3908 10.3637C18.348 10.3855 18.292 10.3855 18.18 10.3855H17.4998V12.8855C17.4998 13.0611 17.4076 13.2238 17.257 13.3142L12.5 16.1685V17.3772C12.5001 17.3817 12.5001 17.3862 12.5001 17.3907C12.5 17.392 12.5 17.3933 12.5 17.3947V18.6484C13.3626 18.8704 14 19.6534 14 20.5854C14 21.6899 13.1046 22.5854 12 22.5854C10.8954 22.5854 10 21.6899 10 20.5854C10 19.6534 10.6374 18.8704 11.5 18.6484V17.6685L6.74299 14.8142C6.59239 14.7238 6.50024 14.5611 6.50024 14.3855L6.50024 10.8002C5.91752 10.5943 5.5 10.0387 5.5 9.38546C5.5 8.55703 6.17157 7.88546 7 7.88546C7.82843 7.88546 8.5 8.55703 8.5 9.38546Z" fill="black"/>
</svg>
