<svg width="24" height="24" viewBox="0 0 24 24" fill="none" xmlns="http://www.w3.org/2000/svg">
<path d="M7 7.42773C5.75736 7.42773 4.75 8.43509 4.75 9.67773C4.75 10.4579 5.14711 11.1454 5.75024 11.549V14.6777C5.75024 15.1168 5.98061 15.5237 6.3571 15.7496L10.75 18.3854V18.4275C9.85958 18.8827 9.25 19.809 9.25 20.8776C9.25 22.3964 10.4812 23.6276 12 23.6276C13.5188 23.6276 14.75 22.3964 14.75 20.8776C14.75 19.809 14.1404 18.8827 13.25 18.4275V17.7007C13.2503 17.6861 13.2503 17.6716 13.25 17.6572V16.8854L17.6429 14.2496C18.0194 14.0237 18.2498 13.6168 18.2498 13.1777V11.4277H18.93C19.042 11.4277 19.098 11.4277 19.1408 11.4059C19.1784 11.3868 19.209 11.3562 19.2282 11.3185C19.25 11.2757 19.25 11.2197 19.25 11.1077V7.24773C19.25 7.13572 19.25 7.07971 19.2282 7.03693C19.209 6.9993 19.1784 6.9687 19.1408 6.94953C19.098 6.92773 19.042 6.92773 18.93 6.92773L15.07 6.92773C14.958 6.92773 14.902 6.92773 14.8592 6.94953C14.8216 6.9687 14.791 6.9993 14.7718 7.03693C14.75 7.07971 14.75 7.13572 14.75 7.24773V11.1077C14.75 11.2197 14.75 11.2757 14.7718 11.3185C14.791 11.3562 14.8216 11.3868 14.8592 11.4059C14.902 11.4277 14.958 11.4277 15.07 11.4277H15.7498V12.47L13.25 13.9699L13.25 5.51125H14.888C15.0841 5.51125 15.1821 5.51125 15.2358 5.47043C15.2825 5.43488 15.3112 5.38057 15.3144 5.32193C15.318 5.2546 15.2629 5.17353 15.1527 5.01138L12.2647 0.761937C12.176 0.631411 12.1316 0.566149 12.076 0.543305C12.0273 0.523325 11.9727 0.523325 11.924 0.543305C11.8684 0.566149 11.824 0.631411 11.7353 0.761937L8.84731 5.01138C8.73712 5.17353 8.68202 5.2546 8.68562 5.32193C8.68875 5.38057 8.7175 5.43488 8.76424 5.47043C8.81791 5.51125 8.91593 5.51125 9.11198 5.51125H10.75V15.4699L8.25024 13.97V11.5487C8.8531 11.145 9.25 10.4577 9.25 9.67773C9.25 8.43509 8.24264 7.42773 7 7.42773Z" fill="black"/>
</svg>
