<svg width="24" height="25" viewBox="0 0 24 25" fill="none" xmlns="http://www.w3.org/2000/svg">
<path d="M7.25 7.89941C6.00736 7.89941 5 8.90677 5 10.1494C5 10.9296 5.39711 11.6171 6.00024 12.0207V15.1494C6.00024 15.5885 6.23061 15.9954 6.6071 16.2213L11 18.8571V18.8992C10.1096 19.3543 9.5 20.2806 9.5 21.3493C9.5 22.8681 10.7312 24.0993 12.25 24.0993C13.7688 24.0993 15 22.8681 15 21.3493C15 20.2806 14.3904 19.3543 13.5 18.8992V18.1723C13.5003 18.1578 13.5003 18.1433 13.5 18.1288V17.3571L17.8929 14.7213C18.2694 14.4954 18.4998 14.0885 18.4998 13.6494V11.8994H19.18C19.292 11.8994 19.348 11.8994 19.3908 11.8776C19.4284 11.8584 19.459 11.8278 19.4782 11.7902C19.5 11.7474 19.5 11.6914 19.5 11.5794V7.71941C19.5 7.6074 19.5 7.55139 19.4782 7.50861C19.459 7.47098 19.4284 7.44038 19.3908 7.42121C19.348 7.39941 19.292 7.39941 19.18 7.39941L15.32 7.39941C15.208 7.39941 15.152 7.39941 15.1092 7.42121C15.0716 7.44038 15.041 7.47098 15.0218 7.50861C15 7.55139 15 7.6074 15 7.71941V11.5794C15 11.6914 15 11.7474 15.0218 11.7902C15.041 11.8278 15.0716 11.8584 15.1092 11.8776C15.152 11.8994 15.208 11.8994 15.32 11.8994H15.9998V12.9417L13.5 14.4416L13.5 5.98293H15.138C15.3341 5.98293 15.4321 5.98293 15.4858 5.94211C15.5325 5.90656 15.5612 5.85225 15.5644 5.79361C15.568 5.72628 15.5129 5.64521 15.4027 5.48306L12.5147 1.23362C12.426 1.10309 12.3816 1.03783 12.326 1.01498C12.2773 0.995005 12.2227 0.995005 12.174 1.01498C12.1184 1.03783 12.074 1.10309 11.9853 1.23362L9.09731 5.48306C8.98712 5.64521 8.93202 5.72628 8.93562 5.79361C8.93875 5.85225 8.9675 5.90656 9.01424 5.94211C9.06791 5.98293 9.16593 5.98293 9.36198 5.98293H11V15.9416L8.50024 14.4417V12.0204C9.1031 11.6167 9.5 10.9294 9.5 10.1494C9.5 8.90677 8.49264 7.89941 7.25 7.89941Z" fill="black"/>
</svg>
