<svg width="24" height="24" viewBox="0 0 24 24" fill="none" xmlns="http://www.w3.org/2000/svg">
<path fill-rule="evenodd" clip-rule="evenodd" d="M7 7.40244C5.8264 7.40244 4.875 8.35383 4.875 9.52744C4.875 10.4371 5.44661 11.2133 6.25024 11.5164L6.25024 13.5274C6.25024 13.7909 6.38846 14.035 6.61436 14.1705L11.25 16.9521V17.3644C9.81665 17.703 8.75 18.9906 8.75 20.5274C8.75 22.3224 10.2051 23.7774 12 23.7774C13.7949 23.7774 15.25 22.3224 15.25 20.5274C15.25 18.9906 14.1834 17.703 12.75 17.3644V16.5412C12.7502 16.5325 12.7502 16.5238 12.75 16.5151V15.4521L17.3856 12.6705C17.6115 12.535 17.7498 12.2909 17.7498 12.0274V11.1524L18.2683 11.1524C18.3017 11.1525 18.3576 11.1525 18.4094 11.1483C18.4731 11.1431 18.583 11.1285 18.7018 11.068C18.8477 10.9937 18.9662 10.8751 19.0405 10.7293C19.1011 10.6104 19.1157 10.5005 19.1209 10.4369C19.1251 10.3851 19.125 10.3292 19.125 10.2958V7.75911C19.125 7.72577 19.1251 7.66977 19.1209 7.61802C19.1157 7.55436 19.1011 7.44443 19.0405 7.32559C18.9662 7.17977 18.8477 7.06121 18.7018 6.98691C18.583 6.92636 18.4731 6.91176 18.4094 6.90656C18.3576 6.90233 18.3017 6.90239 18.2683 6.90243L15.7317 6.90243C15.6983 6.90239 15.6424 6.90233 15.5906 6.90656C15.5269 6.91176 15.417 6.92636 15.2982 6.98691C15.1523 7.06121 15.0338 7.17977 14.9595 7.3256C14.8989 7.44443 14.8843 7.55436 14.8791 7.61802C14.8749 7.66979 14.875 7.72577 14.875 7.75911V10.2958C14.875 10.3291 14.8749 10.3851 14.8791 10.4369C14.8843 10.5005 14.8989 10.6104 14.9595 10.7293C15.0338 10.8751 15.1523 10.9937 15.2982 11.068C15.417 11.1285 15.5269 11.1431 15.5906 11.1483C15.6424 11.1525 15.6983 11.1525 15.7317 11.1524L16.2498 11.1524V11.6028L12.75 13.7028L12.75 5.23593L13.6364 5.23594C13.6967 5.23599 13.7786 5.23605 13.85 5.22951C13.9203 5.22307 14.0967 5.20331 14.2618 5.07775C14.4429 4.93997 14.5543 4.72955 14.5664 4.5023C14.5775 4.29521 14.4947 4.13821 14.4605 4.07645C14.4258 4.01369 14.3797 3.94599 14.3458 3.89619L12.7089 1.48767C12.6821 1.44816 12.6421 1.38922 12.6015 1.33971C12.5562 1.28462 12.4577 1.17349 12.2943 1.1064C12.1057 1.02899 11.8942 1.02899 11.7056 1.1064C11.5422 1.17349 11.4437 1.28462 11.3985 1.33971C11.3578 1.38922 11.3178 1.44817 11.291 1.48768L9.65416 3.8962C9.62026 3.94599 9.57417 4.01371 9.53944 4.07645C9.50524 4.13822 9.42243 4.29521 9.4335 4.5023C9.44565 4.72955 9.55706 4.93997 9.73818 5.07775C9.90324 5.20331 10.0796 5.22307 10.1499 5.22951C10.2214 5.23605 10.3033 5.23599 10.3635 5.23594L11.25 5.23593V15.0151C11.2498 15.0238 11.2498 15.0325 11.25 15.0412V15.2028L7.75024 13.1028L7.75024 11.5162C8.55362 11.213 9.125 10.4369 9.125 9.52744C9.125 8.35383 8.17361 7.40244 7 7.40244ZM6.125 9.52744C6.125 9.04419 6.51675 8.65244 7 8.65244C7.48325 8.65244 7.875 9.04419 7.875 9.52744C7.875 10.0107 7.48325 10.4024 7 10.4024C6.51675 10.4024 6.125 10.0107 6.125 9.52744ZM12 18.7774C11.0335 18.7774 10.25 19.5609 10.25 20.5274C10.25 21.4939 11.0335 22.2774 12 22.2774C12.9665 22.2774 13.75 21.4939 13.75 20.5274C13.75 19.5609 12.9665 18.7774 12 18.7774ZM16.125 8.15244V9.90244H17.875V8.15244L16.125 8.15244ZM11.1045 3.98593L12 2.66839L12.8954 3.98593H11.1045Z" fill="black"/>
</svg>
