<svg width="24" height="24" viewBox="0 0 24 24" fill="none" xmlns="http://www.w3.org/2000/svg">
<path d="M8.5 9.38546C8.5 9.94057 8.19846 10.4253 7.75024 10.6846V13.9608L11.25 16.0608V15.8992C11.2498 15.8905 11.2498 15.8818 11.25 15.8732V4.46896H10.5285C10.3324 4.46896 10.2344 4.46896 10.1807 4.42813C10.134 4.39258 10.1053 4.33827 10.1021 4.27963C10.0985 4.2123 10.1536 4.13123 10.2638 3.96908L11.7353 1.80393C11.824 1.67343 11.8684 1.60814 11.924 1.5853C11.9727 1.56532 12.0273 1.56532 12.0759 1.5853C12.1316 1.60814 12.1759 1.67339 12.2646 1.80389L13.7361 3.96908C13.8463 4.13121 13.9014 4.2123 13.8978 4.27963C13.8947 4.33827 13.8659 4.39258 13.8192 4.42813C13.7655 4.46896 13.6675 4.46896 13.4715 4.46896H12.75L12.75 14.5608L16.2498 12.4608V10.3855H15.82C15.708 10.3855 15.652 10.3855 15.6092 10.3637C15.5716 10.3445 15.541 10.3139 15.5218 10.2763C15.5 10.2335 15.5 10.1775 15.5 10.0655V7.70546C15.5 7.59345 15.5 7.53744 15.5218 7.49466C15.541 7.45703 15.5716 7.42643 15.6092 7.40726C15.652 7.38546 15.708 7.38546 15.82 7.38546L18.18 7.38546C18.292 7.38546 18.348 7.38546 18.3908 7.40726C18.4284 7.42643 18.459 7.45703 18.4782 7.49466C18.5 7.53744 18.5 7.59345 18.5 7.70546V10.0655C18.5 10.1775 18.5 10.2335 18.4782 10.2763C18.459 10.3139 18.4284 10.3445 18.3908 10.3637C18.348 10.3855 18.292 10.3855 18.18 10.3855H17.7498V12.8855C17.7498 13.1489 17.6115 13.393 17.3856 13.5286L12.75 16.3101V17.3731C12.7502 17.3818 12.7502 17.3905 12.75 17.3992V18.7307C13.483 19.0274 14 19.746 14 20.5854C14 21.6899 13.1046 22.5854 12 22.5854C10.8954 22.5854 10 21.6899 10 20.5854C10 19.746 10.517 19.0274 11.25 18.7307V17.8101L6.61436 15.0286C6.38846 14.893 6.25024 14.6489 6.25024 14.3855L6.25024 10.6849C5.80176 10.4256 5.5 9.94077 5.5 9.38546C5.5 8.55703 6.17157 7.88546 7 7.88546C7.82843 7.88546 8.5 8.55703 8.5 9.38546Z" fill="black"/>
</svg>
