<svg width="24" height="24" viewBox="0 0 24 24" fill="none" xmlns="http://www.w3.org/2000/svg">
<path fill-rule="evenodd" clip-rule="evenodd" d="M7 7.58272C6.0335 7.58272 5.25 8.36623 5.25 9.33272C5.25 10.2144 5.90205 10.9438 6.75024 11.065L6.75024 13.3327C6.75024 13.4205 6.79632 13.5019 6.87162 13.5471L11.75 16.4743V17.5939C10.3484 17.7202 9.25 18.8982 9.25 20.3327C9.25 21.8515 10.4812 23.0827 12 23.0827C13.5188 23.0827 14.75 21.8515 14.75 20.3327C14.75 18.8982 13.6516 17.7202 12.25 17.5939V14.9743L17.1284 12.0471C17.2037 12.0019 17.2498 11.9205 17.2498 11.8327V10.5827L18.1873 10.5827C18.2369 10.5827 18.288 10.5827 18.3317 10.5792C18.3805 10.5752 18.4418 10.5655 18.5043 10.5337C18.589 10.4905 18.6578 10.4217 18.701 10.337C18.7328 10.2745 18.7425 10.2133 18.7464 10.1644C18.75 10.1207 18.75 10.0696 18.75 10.02V7.64541C18.75 7.5958 18.75 7.54475 18.7464 7.50101C18.7425 7.4522 18.7328 7.39094 18.701 7.32843C18.6578 7.24376 18.589 7.17491 18.5043 7.13177C18.4418 7.09992 18.3805 7.09027 18.3317 7.08628C18.288 7.0827 18.2369 7.08271 18.1873 7.08272L15.8127 7.08272C15.7631 7.08271 15.712 7.08271 15.6683 7.08628C15.6195 7.09027 15.5582 7.09992 15.4957 7.13177C15.411 7.17491 15.3422 7.24376 15.299 7.32843C15.2672 7.39094 15.2575 7.4522 15.2536 7.50101C15.25 7.54475 15.25 7.5958 15.25 7.64541V10.02C15.25 10.0696 15.25 10.1207 15.2536 10.1644C15.2575 10.2133 15.2672 10.2745 15.299 10.337C15.3422 10.4217 15.411 10.4905 15.4957 10.5337C15.5582 10.5655 15.6195 10.5752 15.6683 10.5792C15.712 10.5827 15.7631 10.5827 15.8127 10.5827L16.7498 10.5827V11.6912L12.25 14.3912L12.25 4.83272C12.25 4.76877 12.226 4.71043 12.1865 4.66622L13.4816 4.66622C13.5708 4.66623 13.6543 4.66624 13.7215 4.66008C13.7886 4.65393 13.8857 4.63888 13.9705 4.57437C14.0757 4.49437 14.1404 4.37219 14.1475 4.24024C14.1531 4.13384 14.111 4.04507 14.0784 3.9861C14.0456 3.92698 13.9988 3.85803 13.9486 3.78425L12.4662 1.60307C12.4264 1.54442 12.3875 1.48726 12.3511 1.44287C12.3126 1.39599 12.2557 1.33612 12.1709 1.30129C12.0614 1.25634 11.9386 1.25634 11.8291 1.30129C11.7442 1.33612 11.6873 1.39599 11.6488 1.44287C11.6124 1.48727 11.5736 1.54441 11.5337 1.60307L10.0513 3.78424C10.0012 3.85803 9.9543 3.92698 9.92157 3.9861C9.88892 4.04507 9.84679 4.13384 9.85247 4.24024C9.85953 4.37219 9.92422 4.49437 10.0294 4.57437C10.1142 4.63888 10.2113 4.65393 10.2784 4.66008C10.3457 4.66624 10.429 4.66623 10.5182 4.66622L11.8135 4.66622C11.774 4.71043 11.75 4.76877 11.75 4.83272V15.8912L7.25024 13.1912L7.25024 11.065C8.0982 10.9436 8.75 10.2143 8.75 9.33272C8.75 8.36623 7.9665 7.58272 7 7.58272ZM5.75 9.33272C5.75 8.64237 6.30964 8.08272 7 8.08272C7.69036 8.08272 8.25 8.64237 8.25 9.33272C8.25 10.0231 7.69036 10.5827 7 10.5827C6.30964 10.5827 5.75 10.0231 5.75 9.33272ZM18.18 10.0827H15.82C15.7917 10.0827 15.7695 10.0827 15.7503 10.0824C15.75 10.0632 15.75 10.041 15.75 10.0127V7.65272C15.75 7.62442 15.75 7.6022 15.7503 7.58303C15.7695 7.58273 15.7917 7.58272 15.82 7.58272L18.18 7.58272C18.2083 7.58272 18.2305 7.58273 18.2497 7.58302C18.25 7.6022 18.25 7.62442 18.25 7.65272V10.0127C18.25 10.041 18.25 10.0632 18.2497 10.0824C18.2305 10.0827 18.2083 10.0827 18.18 10.0827ZM12 18.0827C10.7574 18.0827 9.75 19.0901 9.75 20.3327C9.75 21.5754 10.7574 22.5827 12 22.5827C13.2426 22.5827 14.25 21.5754 14.25 20.3327C14.25 19.0901 13.2426 18.0827 12 18.0827ZM11.9421 1.89172C11.9662 1.85614 11.9848 1.82889 12 1.80745C12.0151 1.82889 12.0337 1.85614 12.0579 1.89172L13.5294 4.05687C13.56 4.10192 13.5837 4.13703 13.6023 4.16552C13.5683 4.16615 13.5259 4.16622 13.4715 4.16622H10.5285C10.474 4.16622 10.4316 4.16615 10.3976 4.16552C10.4162 4.13703 10.44 4.10192 10.4706 4.05687L11.9421 1.89172Z" fill="black"/>
</svg>
