<svg width="24" height="24" viewBox="0 0 24 24" fill="none" xmlns="http://www.w3.org/2000/svg">
<path fill-rule="evenodd" clip-rule="evenodd" d="M7 7.43038C5.89543 7.43038 5 8.32581 5 9.43038C5 10.3624 5.63751 11.1455 6.50024 11.3674L6.50024 13.4304C6.50024 13.606 6.59239 13.7688 6.74299 13.8591L11.5 16.7135V17.4719C10.0811 17.7099 9 18.9439 9 20.4304C9 22.0872 10.3431 23.4304 12 23.4304C13.6569 23.4304 15 22.0872 15 20.4304C15 18.9439 13.9189 17.7099 12.5 17.4719V16.4395C12.5001 16.4337 12.5001 16.428 12.5 16.4222V15.2135L17.257 12.3591C17.4076 12.2688 17.4998 12.106 17.4998 11.9304V10.9304L18.1901 10.9304C18.2367 10.9304 18.2976 10.9304 18.3521 10.926C18.4163 10.9207 18.5142 10.9069 18.6178 10.8541C18.7495 10.787 18.8566 10.6799 18.9237 10.5482C18.9765 10.4445 18.9904 10.3467 18.9956 10.2825C19.0001 10.228 19 10.1671 19 10.1205V7.74033C19 7.69365 19.0001 7.63273 18.9956 7.57831C18.9904 7.51403 18.9765 7.41621 18.9237 7.31259C18.8566 7.18087 18.7495 7.07379 18.6178 7.00668C18.5142 6.95388 18.4163 6.94002 18.3521 6.93477C18.2976 6.93032 18.2367 6.93035 18.1901 6.93038H15.8099C15.7633 6.93035 15.7023 6.93032 15.6479 6.93477C15.5837 6.94002 15.4858 6.95388 15.3822 7.00668C15.2505 7.07379 15.1434 7.18087 15.0763 7.31259C15.0235 7.41621 15.0096 7.51403 15.0044 7.57831C14.9999 7.63273 15 7.69361 15 7.7403V10.1204C15 10.1671 14.9999 10.228 15.0044 10.2825C15.0096 10.3467 15.0235 10.4445 15.0763 10.5482C15.1434 10.6799 15.2505 10.787 15.3822 10.8541C15.4858 10.9069 15.5837 10.9207 15.6479 10.926C15.7024 10.9304 15.7633 10.9304 15.8099 10.9304L16.4998 10.9304V11.6473L12.5 14.0473L12.5 5.01388L13.4867 5.01388C13.5711 5.01391 13.6652 5.01394 13.7443 5.00669C13.8228 4.9995 13.9791 4.97961 14.1219 4.871C14.2855 4.74656 14.3861 4.55649 14.3971 4.35124C14.4067 4.1721 14.3353 4.03167 14.2971 3.96267C14.2586 3.89316 14.2057 3.81535 14.1583 3.74564L12.6707 1.55683C12.6332 1.50154 12.5883 1.43544 12.5443 1.3819C12.4965 1.32363 12.4077 1.22592 12.2658 1.16768C12.0955 1.09775 11.9045 1.09775 11.7341 1.16768C11.5923 1.22592 11.5034 1.32363 11.4556 1.3819C11.4116 1.43545 11.3668 1.50153 11.3292 1.55683L9.84168 3.7456C9.79427 3.81532 9.74134 3.89314 9.70285 3.96267C9.66465 4.03167 9.59326 4.1721 9.60283 4.35124C9.6138 4.55649 9.71443 4.74656 9.87803 4.871C10.0208 4.97961 10.1771 4.9995 10.2556 5.00669C10.3348 5.01394 10.4289 5.01391 10.5132 5.01388L11.5 5.01388V14.9221C11.4999 14.9279 11.4999 14.9338 11.5 14.9396V15.5473L7.50024 13.1473L7.50024 11.3673C8.36273 11.1452 9 10.3622 9 9.43038C9 8.32581 8.10457 7.43038 7 7.43038ZM6 9.43038C6 8.8781 6.44772 8.43038 7 8.43038C7.55228 8.43038 8 8.8781 8 9.43038C8 9.98267 7.55228 10.4304 7 10.4304C6.44772 10.4304 6 9.98267 6 9.43038ZM18 9.93038H16V7.93038H18V9.93038ZM12 18.4304C10.8954 18.4304 10 19.3258 10 20.4304C10 21.535 10.8954 22.4304 12 22.4304C13.1046 22.4304 14 21.535 14 20.4304C14 19.3258 13.1046 18.4304 12 18.4304ZM10.8684 4.01388L12 2.34895L13.1315 4.01388H10.8684Z" fill="black"/>
</svg>
