<svg width="24" height="24" viewBox="0 0 24 24" fill="none" xmlns="http://www.w3.org/2000/svg">
<path fill-rule="evenodd" clip-rule="evenodd" d="M5 9.43038C5 8.88226 5.22049 8.38564 5.57762 8.02438L6.28475 8.73151C6.10858 8.91179 6 9.1584 6 9.43038C6 9.98267 6.44772 10.4304 7 10.4304C7.27198 10.4304 7.51859 10.3218 7.69887 10.1456L8.406 10.8528C8.15859 11.0973 7.84769 11.2778 7.50024 11.3673V13.1473L11.5 15.5473V14.9396C11.4999 14.9366 11.4999 14.9337 11.4999 14.9308C11.4999 14.9279 11.5 14.925 11.5 14.9221V13.9468L12.6667 15.1134L12.5 15.2135V16.4222C12.5001 16.428 12.5001 16.4337 12.5 16.4395V17.4719C13.9189 17.7099 15 18.9439 15 20.4304C15 22.0872 13.6569 23.4304 12 23.4304C10.3431 23.4304 9 22.0872 9 20.4304C9 18.9439 10.0811 17.7099 11.5 17.4719V16.7135L6.74299 13.8591C6.59239 13.7688 6.50024 13.606 6.50024 13.4304V11.3674C5.63751 11.1455 5 10.3624 5 9.43038ZM12 18.4304C10.8954 18.4304 10 19.3258 10 20.4304C10 21.535 10.8954 22.4304 12 22.4304C13.1046 22.4304 14 21.535 14 20.4304C14 19.3258 13.1046 18.4304 12 18.4304Z" fill="black"/>
<path fill-rule="evenodd" clip-rule="evenodd" d="M12.5 9.99701L11.5 8.99701V5.01388L10.5132 5.01388C10.4289 5.01391 10.3348 5.01394 10.2556 5.00669C10.1771 4.9995 10.0208 4.97961 9.87803 4.871C9.71443 4.74656 9.6138 4.5565 9.60283 4.35124C9.59326 4.1721 9.66466 4.03167 9.70285 3.96267C9.74134 3.89314 9.79427 3.81532 9.84168 3.7456L11.3292 1.55683C11.3668 1.50154 11.4116 1.43545 11.4556 1.3819C11.5034 1.32363 11.5923 1.22592 11.7341 1.16768C11.9045 1.09775 12.0955 1.09775 12.2658 1.16768C12.4077 1.22592 12.4965 1.32363 12.5443 1.3819C12.5883 1.43544 12.6331 1.50149 12.6707 1.55678L14.1583 3.7456C14.2057 3.81531 14.2586 3.89316 14.2971 3.96267C14.3353 4.03167 14.4067 4.1721 14.3971 4.35124C14.3861 4.55649 14.2855 4.74656 14.1219 4.871C13.9791 4.97961 13.8228 4.9995 13.7443 5.00669C13.6652 5.01394 13.5711 5.01391 13.4867 5.01388L12.5 5.01388V9.99701ZM10.8684 4.01388L12 2.34895L13.1315 4.01388H10.8684Z" fill="black"/>
<path fill-rule="evenodd" clip-rule="evenodd" d="M15.7602 13.2572L15.0314 12.5284L16.4998 11.6473V10.9304L15.8099 10.9304C15.7633 10.9304 15.7024 10.9304 15.6479 10.926C15.5837 10.9207 15.4858 10.9069 15.3822 10.8541C15.2505 10.787 15.1434 10.6799 15.0763 10.5482C15.0235 10.4445 15.0096 10.3467 15.0044 10.2825C14.9999 10.228 15 10.1671 15 10.1204V7.74033C15 7.69365 14.9999 7.63273 15.0044 7.57831C15.0096 7.51403 15.0235 7.41621 15.0763 7.31259C15.1434 7.18087 15.2505 7.07379 15.3822 7.00668C15.4858 6.95388 15.5837 6.94002 15.6479 6.93477C15.7023 6.93032 15.7632 6.93035 15.8099 6.93038H18.1901C18.2367 6.93035 18.2976 6.93032 18.3521 6.93477C18.4163 6.94002 18.5142 6.95388 18.6178 7.00668C18.7495 7.07379 18.8566 7.18087 18.9237 7.31259C18.9765 7.41621 18.9904 7.51403 18.9956 7.5783C19.0001 7.63273 19 7.69361 19 7.7403V10.1204C19 10.1671 19.0001 10.228 18.9956 10.2825C18.9904 10.3467 18.9765 10.4445 18.9237 10.5482C18.8566 10.6799 18.7495 10.787 18.6178 10.8541C18.5142 10.9069 18.4163 10.9207 18.3521 10.926C18.2976 10.9304 18.2367 10.9304 18.1901 10.9304L17.4998 10.9304V11.9304C17.4998 12.106 17.4076 12.2688 17.257 12.3591L15.7602 13.2572ZM18 9.93038H16V7.93038H18V9.93038Z" fill="black"/>
<path d="M2.23295 1.49759C2.03769 1.30233 1.7211 1.30233 1.52584 1.49759C1.33058 1.69286 1.33058 2.00944 1.52584 2.2047L21.3228 22.0017C21.5181 22.1969 21.8347 22.1969 22.0299 22.0017C22.2252 21.8064 22.2252 21.4898 22.0299 21.2946L2.23295 1.49759Z" fill="black"/>
</svg>
