<svg width="24" height="24" viewBox="0 0 24 24" fill="none" xmlns="http://www.w3.org/2000/svg">
<path d="M2.23246 1.49752C2.0372 1.30226 1.72061 1.30226 1.52535 1.49752C1.33009 1.69278 1.33009 2.00937 1.52535 2.20463L21.3223 22.0016C21.5176 22.1969 21.8342 22.1969 22.0294 22.0016C22.2247 21.8063 22.2247 21.4898 22.0294 21.2945L2.23246 1.49752Z" fill="black"/>
<path d="M5.49951 9.38551C5.49951 8.98681 5.65506 8.62444 5.90879 8.35578L8.02923 10.4762C7.94475 10.556 7.85099 10.6261 7.74976 10.6847V13.9609L11.2495 16.0608V15.8992C11.2494 15.8905 11.2494 15.8819 11.2495 15.8732V13.6965L13.4455 15.8925L12.7495 16.3101L12.7495 17.3732C12.7497 17.3819 12.7497 17.3906 12.7495 17.3993V18.7308C13.4825 19.0275 13.9995 19.7461 13.9995 20.5854C13.9995 21.69 13.1041 22.5854 11.9995 22.5854C10.8949 22.5854 9.99951 21.69 9.99951 20.5854C9.99951 19.7461 10.5166 19.0275 11.2495 18.7308V17.8101L6.61387 15.0286C6.38797 14.8931 6.24976 14.6489 6.24976 14.3855V10.685C5.80127 10.4257 5.49951 9.94082 5.49951 9.38551Z" fill="black"/>
<path d="M12.7495 10.2468L11.2495 8.74676V4.469H10.528C10.3319 4.469 10.2339 4.469 10.1803 4.42818C10.1335 4.39263 10.1048 4.33832 10.1016 4.27968C10.098 4.21235 10.1531 4.13128 10.2633 3.96914L11.7348 1.80398C11.8235 1.67348 11.8679 1.60819 11.9235 1.58534C11.9722 1.56537 12.0268 1.56537 12.0754 1.58534C12.1311 1.60819 12.1754 1.67344 12.2641 1.80394L13.7356 3.96913C13.8458 4.13126 13.9009 4.21235 13.8973 4.27968C13.8942 4.33832 13.8654 4.39263 13.8187 4.42818C13.765 4.469 13.667 4.469 13.471 4.469H12.7495V10.2468Z" fill="black"/>
<path d="M16.5391 14.0363L15.4458 12.943L16.2493 12.4609V10.3855H15.8195C15.7075 10.3855 15.6515 10.3855 15.6087 10.3637C15.5711 10.3445 15.5405 10.3139 15.5213 10.2763C15.4995 10.2335 15.4995 10.1775 15.4995 10.0655V7.70551C15.4995 7.5935 15.4995 7.53749 15.5213 7.49471C15.5405 7.45708 15.5711 7.42648 15.6087 7.40731C15.6515 7.38551 15.7075 7.38551 15.8195 7.38551H18.1795C18.2915 7.38551 18.3475 7.38551 18.3903 7.40731C18.4279 7.42648 18.4585 7.45708 18.4777 7.49471C18.4995 7.53749 18.4995 7.5935 18.4995 7.70551V10.0655C18.4995 10.1775 18.4995 10.2335 18.4777 10.2763C18.4585 10.3139 18.4279 10.3445 18.3903 10.3637C18.3475 10.3855 18.2915 10.3855 18.1795 10.3855H17.7493V12.8855C17.7493 13.1489 17.611 13.3931 17.3852 13.5286L16.5391 14.0363Z" fill="black"/>
</svg>
