<svg width="24" height="24" viewBox="0 0 24 24" fill="none" xmlns="http://www.w3.org/2000/svg">
<path d="M2.40972 1.32074C2.11683 1.02785 1.64196 1.02785 1.34906 1.32074C1.05617 1.61364 1.05617 2.08851 1.34906 2.3814L21.146 22.1784C21.4389 22.4713 21.9138 22.4713 22.2067 22.1784C22.4996 21.8855 22.4996 21.4106 22.2067 21.1177L2.40972 1.32074Z" fill="black"/>
<path d="M4.75 9.67778C4.75 9.17791 4.913 8.71612 5.18876 8.34265L8.33512 11.489C8.30731 11.5096 8.27901 11.5295 8.25024 11.5487V13.9701L10.75 15.47V13.9039L13.551 16.7049L13.25 16.8855V17.6572C13.2503 17.6717 13.2503 17.6862 13.25 17.7007V18.4275C14.1404 18.8827 14.75 19.809 14.75 20.8777C14.75 22.3965 13.5188 23.6277 12 23.6277C10.4812 23.6277 9.25 22.3965 9.25 20.8777C9.25 19.809 9.85958 18.8827 10.75 18.4275V18.3855L6.3571 15.7496C5.98061 15.5237 5.75024 15.1168 5.75024 14.6778V11.5491C5.14711 11.1454 4.75 10.458 4.75 9.67778Z" fill="black"/>
<path d="M13.25 10.0399L10.75 7.53993V5.5113H10.3019C9.53926 5.5113 9.08749 4.65804 9.51614 4.02731L11.2143 1.52867C11.5912 0.973993 12.4087 0.973987 12.7857 1.52867L14.4838 4.02731C14.9125 4.65803 14.4607 5.5113 13.6981 5.5113H13.25L13.25 10.0399Z" fill="black"/>
<path d="M17.5284 14.3183L15.7062 12.4962L15.7498 12.4701V11.4278H15.7C15.1753 11.4278 14.75 11.0024 14.75 10.4778V7.87778C14.75 7.35311 15.1753 6.92778 15.7 6.92778H18.3C18.8247 6.92778 19.25 7.35311 19.25 7.87778V10.4778C19.25 11.0024 18.8247 11.4278 18.3 11.4278H18.2498V13.1778C18.2498 13.6168 18.0194 14.0237 17.6429 14.2496L17.5284 14.3183Z" fill="black"/>
</svg>
