<svg width="24" height="24" viewBox="0 0 24 24" fill="none" xmlns="http://www.w3.org/2000/svg">
<path d="M2.23295 1.49752C2.03769 1.30226 1.7211 1.30226 1.52584 1.49752C1.33058 1.69278 1.33058 2.00937 1.52584 2.20463L21.3228 22.0016C21.5181 22.1969 21.8347 22.1969 22.0299 22.0016C22.2252 21.8063 22.2252 21.4898 22.0299 21.2945L2.23295 1.49752Z" fill="black"/>
<path d="M5.5 9.38551C5.5 8.98681 5.65555 8.62444 5.90927 8.35578L8.02972 10.4762C7.94524 10.556 7.85148 10.6261 7.75024 10.6847V13.9609L11.25 16.0608V15.8992C11.2498 15.8905 11.2498 15.8819 11.25 15.8732V13.6965L13.446 15.8925L12.75 16.3101L12.75 17.3732C12.7502 17.3819 12.7502 17.3906 12.75 17.3993V18.7308C13.483 19.0275 14 19.7461 14 20.5854C14 21.69 13.1046 22.5854 12 22.5854C10.8954 22.5854 10 21.69 10 20.5854C10 19.7461 10.517 19.0275 11.25 18.7308V17.8101L6.61436 15.0286C6.38846 14.8931 6.25024 14.6489 6.25024 14.3855V10.685C5.80176 10.4257 5.5 9.94082 5.5 9.38551Z" fill="black"/>
<path d="M12.75 10.2468L11.25 8.74676V4.469H10.5285C10.3324 4.469 10.2344 4.469 10.1807 4.42818C10.134 4.39263 10.1053 4.33832 10.1021 4.27968C10.0985 4.21235 10.1536 4.13128 10.2638 3.96914L11.7353 1.80398C11.824 1.67348 11.8684 1.60819 11.924 1.58534C11.9727 1.56537 12.0273 1.56537 12.0759 1.58534C12.1316 1.60819 12.1759 1.67344 12.2646 1.80394L13.7361 3.96913C13.8463 4.13126 13.9014 4.21235 13.8978 4.27968C13.8947 4.33832 13.8659 4.39263 13.8192 4.42818C13.7655 4.469 13.6675 4.469 13.4715 4.469H12.75V10.2468Z" fill="black"/>
<path d="M16.5395 14.0363L15.4462 12.943L16.2498 12.4609V10.3855H15.82C15.708 10.3855 15.652 10.3855 15.6092 10.3637C15.5716 10.3445 15.541 10.3139 15.5218 10.2763C15.5 10.2335 15.5 10.1775 15.5 10.0655V7.70551C15.5 7.5935 15.5 7.53749 15.5218 7.49471C15.541 7.45708 15.5716 7.42648 15.6092 7.40731C15.652 7.38551 15.708 7.38551 15.82 7.38551H18.18C18.292 7.38551 18.348 7.38551 18.3908 7.40731C18.4284 7.42648 18.459 7.45708 18.4782 7.49471C18.5 7.53749 18.5 7.5935 18.5 7.70551V10.0655C18.5 10.1775 18.5 10.2335 18.4782 10.2763C18.459 10.3139 18.4284 10.3445 18.3908 10.3637C18.348 10.3855 18.292 10.3855 18.18 10.3855H17.7498V12.8855C17.7498 13.1489 17.6115 13.3931 17.3856 13.5286L16.5395 14.0363Z" fill="black"/>
</svg>
