<svg width="24" height="24" viewBox="0 0 24 24" fill="none" xmlns="http://www.w3.org/2000/svg">
<path fill-rule="evenodd" clip-rule="evenodd" d="M5 9.33025C5 8.98981 5.08506 8.66924 5.23509 8.38863L8.00024 11.1538V13.7641L11 15.564V14.1535L13.1518 16.3053L13 16.3964V17.3138C13.0002 17.3254 13.0002 17.337 13 17.3486V17.7009C14.1652 18.1127 15 19.2239 15 20.5302C15 22.187 13.6569 23.5302 12 23.5302C10.3431 23.5302 9 22.187 9 20.5302C9 19.2987 9.74197 18.2406 10.8032 17.7784L6.48573 15.1877C6.18454 15.007 6.00024 14.6815 6.00024 14.3303V11.0628C5.40231 10.7171 5 10.0706 5 9.33025ZM11 20.5302C11 19.9779 11.4477 19.5302 12 19.5302C12.5523 19.5302 13 19.9779 13 20.5302C13 21.0824 12.5523 21.5302 12 21.5302C11.4477 21.5302 11 21.0824 11 20.5302Z" fill="black"/>
<path d="M13 9.78958L11 7.78958V4.91378L10.5132 4.91378C10.4289 4.91381 10.3348 4.91384 10.2556 4.90659C10.1771 4.8994 10.0208 4.87951 9.87806 4.77091C9.71446 4.64646 9.61383 4.4564 9.60286 4.25114C9.59329 4.072 9.66468 3.93157 9.70288 3.86257C9.74137 3.79305 9.79429 3.71522 9.84171 3.6455L11.3292 1.45674C11.3668 1.40143 11.4117 1.33536 11.4556 1.2818C11.5035 1.22354 11.5923 1.12582 11.7342 1.06758C11.9045 0.997655 12.0955 0.997655 12.2658 1.06758C12.4077 1.12582 12.4965 1.22354 12.5444 1.2818C12.5883 1.33533 12.6332 1.40138 12.6707 1.45667L14.1583 3.64551C14.2057 3.71522 14.2586 3.79305 14.2971 3.86257C14.3353 3.93157 14.4067 4.072 14.3971 4.25114C14.3862 4.4564 14.2855 4.64646 14.1219 4.7709C13.9792 4.87951 13.8229 4.8994 13.7443 4.90659C13.6652 4.91384 13.5711 4.91381 13.4868 4.91378L13 4.91378V9.78958Z" fill="black"/>
<path d="M17.1292 13.9188L15.6715 12.4611L15.9998 12.2641V10.8302L15.81 10.8302C15.7633 10.8303 15.7024 10.8303 15.6479 10.8259C15.5837 10.8206 15.4858 10.8068 15.3822 10.754C15.2505 10.6868 15.1434 10.5798 15.0763 10.448C15.0235 10.3444 15.0096 10.2466 15.0044 10.1823C14.9999 10.1279 15 10.067 15 10.0203V7.64019C15 7.59351 14.9999 7.53259 15.0044 7.47817C15.0096 7.4139 15.0235 7.31608 15.0763 7.21245C15.1434 7.08074 15.2505 6.97365 15.3822 6.90654C15.4858 6.85374 15.5837 6.83988 15.6479 6.83463C15.7023 6.83018 15.7632 6.83022 15.8099 6.83024H18.1901C18.2367 6.83022 18.2977 6.83018 18.3521 6.83463C18.4164 6.83988 18.5142 6.85374 18.6178 6.90654C18.7495 6.97365 18.8566 7.08074 18.9237 7.21245C18.9765 7.31608 18.9904 7.4139 18.9956 7.47817C19.0001 7.5326 19 7.5935 19 7.64019V10.0203C19 10.067 19.0001 10.1279 18.9956 10.1823C18.9904 10.2466 18.9765 10.3444 18.9237 10.448C18.8566 10.5798 18.7495 10.6868 18.6178 10.7539C18.5142 10.8067 18.4164 10.8206 18.3521 10.8259C18.2977 10.8303 18.2368 10.8303 18.1901 10.8302L17.9998 10.8302V12.8303C17.9998 13.1815 17.8155 13.507 17.5143 13.6877L17.1292 13.9188Z" fill="black"/>
<path d="M2.40972 1.32082C2.11683 1.02792 1.64196 1.02792 1.34906 1.32082C1.05617 1.61371 1.05617 2.08858 1.34906 2.38148L21.146 22.1785C21.4389 22.4713 21.9138 22.4713 22.2067 22.1785C22.4996 21.8856 22.4996 21.4107 22.2067 21.1178L2.40972 1.32082Z" fill="black"/>
</svg>
