<svg width="24" height="24" viewBox="0 0 24 24" fill="none" xmlns="http://www.w3.org/2000/svg">
<path d="M2.40924 1.32074C2.11634 1.02785 1.64147 1.02785 1.34858 1.32074C1.05568 1.61364 1.05568 2.08851 1.34858 2.3814L21.1456 22.1784C21.4384 22.4713 21.9133 22.4713 22.2062 22.1784C22.4991 21.8855 22.4991 21.4106 22.2062 21.1177L2.40924 1.32074Z" fill="black"/>
<path d="M4.99951 9.58018C4.99951 9.17451 5.12029 8.79706 5.32785 8.4818L8.09789 11.2518C8.06581 11.273 8.03309 11.2932 7.99976 11.3125V14.014L10.9995 15.8139V14.1535L13.3076 16.4615L12.9995 16.6464V17.5637C12.9997 17.5753 12.9997 17.5869 12.9995 17.5985L12.9995 18.4881C13.8825 18.8739 14.4995 19.7549 14.4995 20.7801C14.4995 22.1608 13.3802 23.2801 11.9995 23.2801C10.6188 23.2801 9.49951 22.1608 9.49951 20.7801C9.49951 19.7549 10.1166 18.8739 10.9995 18.4881V18.1464L6.48524 15.4377C6.18405 15.2569 5.99976 14.9314 5.99976 14.5802V11.3128C5.40182 10.967 4.99951 10.3206 4.99951 9.58018Z" fill="black"/>
<path d="M12.9995 9.78951L10.9995 7.78951V5.16371H10.3014C9.73946 5.16371 9.40657 4.53499 9.72242 4.07024L11.4206 1.5716C11.6983 1.16289 12.3007 1.16289 12.5785 1.5716L14.2766 4.07024C14.5924 4.53498 14.2596 5.16371 13.6976 5.16371L12.9995 5.16371V9.78951Z" fill="black"/>
<path d="M17.285 14.075L15.8272 12.6172L15.9993 12.514V11.0802L15.6995 11.0802C15.3129 11.0802 14.9995 10.7668 14.9995 10.3802V7.78018C14.9995 7.39358 15.3129 7.08018 15.6995 7.08018H18.2995C18.6861 7.08018 18.9995 7.39358 18.9995 7.78018V10.3802C18.9995 10.7668 18.6861 11.0802 18.2995 11.0802H17.9993V13.0802C17.9993 13.4314 17.815 13.7569 17.5138 13.9377L17.285 14.075Z" fill="black"/>
</svg>
