<svg width="24" height="24" viewBox="0 0 24 24" fill="none" xmlns="http://www.w3.org/2000/svg">
<path fill-rule="evenodd" clip-rule="evenodd" d="M4.74951 9.52782C4.74951 8.88583 5.01839 8.30663 5.44968 7.89671L6.51137 8.9584C6.35107 9.09595 6.24951 9.30002 6.24951 9.52782C6.24951 9.94203 6.5853 10.2778 6.99951 10.2778C7.22731 10.2778 7.43138 10.1763 7.56893 10.016L8.63063 11.0777C8.38867 11.3322 8.08775 11.5302 7.74976 11.6497V13.1032L11.2495 15.2031V15.0416C11.2494 15.0329 11.2494 15.0242 11.2495 15.0155V13.6965L12.9095 15.3565L12.7495 15.4525V16.5155C12.7497 16.5242 12.7497 16.5329 12.7495 16.5416V17.3648C14.1829 17.7034 15.2495 18.991 15.2495 20.5278C15.2495 22.3227 13.7944 23.7778 11.9995 23.7778C10.2046 23.7778 8.74951 22.3227 8.74951 20.5278C8.74951 18.991 9.81616 17.7034 11.2495 17.3648V16.9524L6.61387 14.1709C6.38797 14.0354 6.24976 13.7913 6.24976 13.5278V11.6499C5.37573 11.3411 4.74951 10.5076 4.74951 9.52782ZM11.9995 18.7778C11.033 18.7778 10.2495 19.5613 10.2495 20.5278C10.2495 21.4943 11.033 22.2778 11.9995 22.2778C12.966 22.2778 13.7495 21.4943 13.7495 20.5278C13.7495 19.5613 12.966 18.7778 11.9995 18.7778Z" fill="black"/>
<path fill-rule="evenodd" clip-rule="evenodd" d="M12.7495 10.2468L11.2495 8.74679V5.23632L10.2159 5.23632C10.1774 5.23637 10.1131 5.23646 10.0552 5.23116C9.99879 5.226 9.83188 5.20879 9.67353 5.08834C9.50409 4.95944 9.39987 4.76259 9.38851 4.55001C9.37789 4.35134 9.45748 4.20362 9.4849 4.15409C9.51305 4.10323 9.54931 4.05003 9.571 4.01821L11.3502 1.40026L11.3546 1.39377C11.3717 1.36855 11.4038 1.32113 11.4375 1.28015C11.4754 1.23394 11.5677 1.12832 11.7241 1.06408C11.9006 0.99166 12.0984 0.99166 12.2748 1.06408C12.4313 1.12832 12.5236 1.23394 12.5615 1.28015C12.5951 1.32113 12.6273 1.36855 12.6443 1.39377L12.6487 1.40026L14.428 4.01821C14.4496 4.05003 14.4859 4.10323 14.5141 4.15409C14.5415 4.20362 14.6211 4.35134 14.6105 4.55001C14.5991 4.76259 14.4949 4.95944 14.3254 5.08834C14.1671 5.20879 14.0002 5.226 13.9438 5.23116C13.8859 5.23646 13.8215 5.23637 13.783 5.23632L12.7495 5.23632V10.2468ZM11.104 3.98632L11.9995 2.66877L12.8949 3.98632H11.104Z" fill="black"/>
<path fill-rule="evenodd" clip-rule="evenodd" d="M16.003 13.5003L14.9097 12.407L16.2493 11.6032V11.1528H15.6595L15.6542 11.1528C15.633 11.1529 15.5868 11.153 15.5429 11.1494C15.4876 11.1449 15.3839 11.1316 15.2704 11.0738C15.134 11.0043 15.023 10.8934 14.9535 10.757C14.8957 10.6435 14.8825 10.5397 14.878 10.4844C14.8744 10.4405 14.8745 10.3943 14.8745 10.3731L14.8745 10.3678V7.68782L14.8745 7.68249C14.8745 7.66133 14.8744 7.61511 14.878 7.57124C14.8825 7.51592 14.8957 7.41216 14.9535 7.29868C15.023 7.16226 15.134 7.05135 15.2704 6.98184C15.3839 6.92401 15.4876 6.91078 15.5429 6.90626C15.5868 6.90267 15.633 6.90277 15.6542 6.90281L15.6595 6.90282L18.3395 6.90282L18.3448 6.90281C18.366 6.90277 18.4122 6.90267 18.4561 6.90626C18.5114 6.91078 18.6152 6.92401 18.7287 6.98184C18.8651 7.05135 18.976 7.16226 19.0455 7.29868C19.1033 7.41216 19.1166 7.51592 19.1211 7.57124C19.1247 7.61511 19.1246 7.66133 19.1245 7.68249L19.1245 7.68782V10.3678L19.1245 10.3731C19.1246 10.3943 19.1247 10.4405 19.1211 10.4844C19.1166 10.5397 19.1033 10.6435 19.0455 10.757C18.976 10.8934 18.8651 11.0043 18.7287 11.0738C18.6152 11.1316 18.5114 11.1449 18.4561 11.1494C18.4122 11.153 18.366 11.1529 18.3448 11.1528L18.3395 11.1528H17.7493V12.0278C17.7493 12.2913 17.611 12.5354 17.3852 12.6709L16.003 13.5003ZM16.1245 8.15282V9.90282H17.8745V8.15282L16.1245 8.15282Z" fill="black"/>
<path d="M2.23246 1.49744C2.0372 1.30217 1.72061 1.30217 1.52535 1.49744C1.33009 1.6927 1.33009 2.00928 1.52535 2.20454L21.3223 22.0015C21.5176 22.1968 21.8342 22.1968 22.0294 22.0015C22.2247 21.8063 22.2247 21.4897 22.0294 21.2944L2.23246 1.49744Z" fill="black"/>
</svg>
