<svg width="24" height="24" viewBox="0 0 24 24" fill="none" xmlns="http://www.w3.org/2000/svg">
<path fill-rule="evenodd" clip-rule="evenodd" d="M17.7103 1.44617L22.5459 6.28175C22.7323 6.46811 22.8931 6.6289 23.0147 6.77215C23.1431 6.92334 23.2569 7.08758 23.3225 7.28952C23.4204 7.59079 23.4204 7.91531 23.3225 8.21657C23.2569 8.41851 23.1431 8.58275 23.0147 8.73394C22.8931 8.87719 22.7323 9.03797 22.5459 9.22433L19.7746 11.9957L20.1697 12.3908C20.7325 12.9536 20.7325 13.8661 20.1697 14.429L14.4713 20.1274C11.5423 23.0563 6.7936 23.0563 3.86467 20.1274C0.935736 17.1985 0.935736 12.4497 3.86467 9.52081L9.56312 3.82236C10.1259 3.25955 11.0384 3.25955 11.6012 3.82236L11.9964 4.21751L14.7677 1.44617C14.9541 1.25979 15.1149 1.099 15.2581 0.977386C15.4093 0.849031 15.5736 0.735221 15.7755 0.669607C16.0768 0.57172 16.4013 0.57172 16.7026 0.669607C16.9045 0.735221 17.0687 0.849031 17.2199 0.977386C17.3632 1.09899 17.524 1.25979 17.7103 1.44617ZM21.8252 8.53086L19.0675 11.2886L12.7035 4.92462L15.4612 2.1669C15.6651 1.96306 15.797 1.83172 15.9053 1.73973C16.0092 1.65153 16.0581 1.62924 16.0845 1.62066C16.185 1.58803 16.2931 1.58803 16.3935 1.62066C16.4199 1.62924 16.4689 1.65153 16.5728 1.73973C16.6811 1.83172 16.813 1.96306 17.0169 2.1669L21.8252 6.97523C22.029 7.17907 22.1604 7.31096 22.2524 7.41932C22.3406 7.52322 22.3628 7.57215 22.3714 7.59854C22.404 7.69896 22.404 7.80713 22.3714 7.90755C22.3628 7.93394 22.3406 7.98287 22.2524 8.08677C22.1604 8.19513 22.029 8.32702 21.8252 8.53086ZM11.388 12.4448C10.4871 11.5439 9.35262 11.0213 8.17951 10.8759C7.90547 10.842 7.71084 10.5923 7.7448 10.3182C7.77876 10.0442 8.02845 9.84955 8.3025 9.88351C9.68881 10.0553 11.0312 10.6738 12.0951 11.7377C13.181 12.8236 13.8028 14.1994 13.9594 15.6159C13.9897 15.8903 13.7918 16.1374 13.5173 16.1678C13.2429 16.1981 12.9958 16.0002 12.9654 15.7257C12.8329 14.5269 12.3075 13.3643 11.388 12.4448ZM9.62025 14.2126C9.16964 13.762 8.61271 13.4853 8.03048 13.3811C7.75865 13.3324 7.57773 13.0726 7.62637 12.8008C7.67502 12.529 7.93481 12.3481 8.20663 12.3967C8.98351 12.5357 9.72764 12.9058 10.3274 13.5055C10.9146 14.0928 11.2817 14.8186 11.4272 15.578C11.4792 15.8493 11.3014 16.1112 11.0302 16.1632C10.759 16.2152 10.497 16.0374 10.4451 15.7662C10.336 15.1971 10.0616 14.6539 9.62025 14.2126ZM6.73892 17.0938C7.12944 17.4843 7.76261 17.4843 8.15313 17.0938C8.54366 16.7032 8.54366 16.0701 8.15313 15.6796C7.76261 15.289 7.12944 15.289 6.73892 15.6796C6.34839 16.0701 6.34839 16.7032 6.73892 17.0938Z" fill="black"/>
</svg>
