<svg width="24" height="24" viewBox="0 0 24 24" fill="none" xmlns="http://www.w3.org/2000/svg">
<path fill-rule="evenodd" clip-rule="evenodd" d="M4.99951 9.43038C4.99951 8.88226 5.22001 8.38564 5.57713 8.02438L6.28426 8.73151C6.10809 8.91179 5.99951 9.1584 5.99951 9.43038C5.99951 9.98267 6.44723 10.4304 6.99951 10.4304C7.27149 10.4304 7.51811 10.3218 7.69838 10.1456L8.40551 10.8528C8.1581 11.0973 7.8472 11.2778 7.49976 11.3673V13.1473L11.4995 15.5473V14.9396C11.4995 14.9366 11.4994 14.9337 11.4994 14.9308C11.4994 14.9279 11.4995 14.925 11.4995 14.9221V13.9468L12.6662 15.1134L12.4995 15.2135V16.4222C12.4996 16.428 12.4996 16.4337 12.4995 16.4395V17.4719C13.9184 17.7099 14.9995 18.9439 14.9995 20.4304C14.9995 22.0872 13.6564 23.4304 11.9995 23.4304C10.3427 23.4304 8.99951 22.0872 8.99951 20.4304C8.99951 18.9439 10.0807 17.7099 11.4995 17.4719V16.7135L6.7425 13.8591C6.5919 13.7688 6.49976 13.606 6.49976 13.4304V11.3674C5.63702 11.1455 4.99951 10.3624 4.99951 9.43038ZM11.9995 18.4304C10.8949 18.4304 9.99951 19.3258 9.99951 20.4304C9.99951 21.535 10.8949 22.4304 11.9995 22.4304C13.1041 22.4304 13.9995 21.535 13.9995 20.4304C13.9995 19.3258 13.1041 18.4304 11.9995 18.4304Z" fill="black"/>
<path fill-rule="evenodd" clip-rule="evenodd" d="M12.4995 9.99701L11.4995 8.99701V5.01388L10.5127 5.01388C10.4284 5.01391 10.3343 5.01394 10.2551 5.00669C10.1766 4.9995 10.0203 4.97961 9.87754 4.871C9.71394 4.74656 9.61331 4.5565 9.60234 4.35124C9.59277 4.1721 9.66417 4.03167 9.70236 3.96267C9.74085 3.89314 9.79378 3.81532 9.84119 3.7456L11.3287 1.55683C11.3663 1.50154 11.4111 1.43545 11.4551 1.3819C11.5029 1.32363 11.5918 1.22592 11.7336 1.16768C11.904 1.09775 12.095 1.09775 12.2653 1.16768C12.4072 1.22592 12.496 1.32363 12.5438 1.3819C12.5878 1.43544 12.6327 1.50149 12.6702 1.55678L14.1578 3.7456C14.2052 3.81531 14.2581 3.89316 14.2966 3.96267C14.3348 4.03167 14.4062 4.1721 14.3966 4.35124C14.3856 4.55649 14.285 4.74656 14.1214 4.871C13.9786 4.97961 13.8224 4.9995 13.7438 5.00669C13.6647 5.01394 13.5706 5.01391 13.4863 5.01388L12.4995 5.01388V9.99701ZM10.868 4.01388L11.9995 2.34895L13.131 4.01388H10.868Z" fill="black"/>
<path fill-rule="evenodd" clip-rule="evenodd" d="M15.7597 13.2572L15.0309 12.5284L16.4993 11.6473V10.9304L15.8095 10.9304C15.7628 10.9304 15.7019 10.9304 15.6474 10.926C15.5832 10.9207 15.4853 10.9069 15.3817 10.8541C15.25 10.787 15.1429 10.6799 15.0758 10.5482C15.023 10.4445 15.0091 10.3467 15.0039 10.2825C14.9995 10.228 14.9995 10.1671 14.9995 10.1204V7.74033C14.9995 7.69365 14.9995 7.63273 15.0039 7.57831C15.0091 7.51403 15.023 7.41621 15.0758 7.31259C15.1429 7.18087 15.25 7.07379 15.3817 7.00668C15.4853 6.95388 15.5832 6.94002 15.6474 6.93477C15.7018 6.93032 15.7627 6.93035 15.8094 6.93038H18.1896C18.2362 6.93035 18.2972 6.93032 18.3516 6.93477C18.4159 6.94002 18.5137 6.95388 18.6173 7.00668C18.749 7.07379 18.8561 7.18087 18.9232 7.31259C18.976 7.41621 18.9899 7.51403 18.9951 7.5783C18.9996 7.63273 18.9995 7.69361 18.9995 7.7403V10.1204C18.9995 10.1671 18.9996 10.228 18.9951 10.2825C18.9899 10.3467 18.976 10.4445 18.9232 10.5482C18.8561 10.6799 18.749 10.787 18.6173 10.8541C18.5137 10.9069 18.4159 10.9207 18.3516 10.926C18.2972 10.9304 18.2363 10.9304 18.1896 10.9304L17.4993 10.9304V11.9304C17.4993 12.106 17.4071 12.2688 17.2565 12.3591L15.7597 13.2572ZM17.9995 9.93038H15.9995V7.93038H17.9995V9.93038Z" fill="black"/>
<path d="M2.23246 1.49759C2.0372 1.30233 1.72061 1.30233 1.52535 1.49759C1.33009 1.69286 1.33009 2.00944 1.52535 2.2047L21.3223 22.0017C21.5176 22.1969 21.8342 22.1969 22.0294 22.0017C22.2247 21.8064 22.2247 21.4898 22.0294 21.2946L2.23246 1.49759Z" fill="black"/>
</svg>
