<svg width="24" height="24" viewBox="0 0 24 24" fill="none" xmlns="http://www.w3.org/2000/svg">
<path fill-rule="evenodd" clip-rule="evenodd" d="M4.75 9.52782C4.75 8.88583 5.01888 8.30663 5.45017 7.89671L6.51186 8.9584C6.35156 9.09595 6.25 9.30002 6.25 9.52782C6.25 9.94203 6.58579 10.2778 7 10.2778C7.22779 10.2778 7.43187 10.1763 7.56942 10.016L8.63111 11.0777C8.38916 11.3322 8.08824 11.5302 7.75024 11.6497V13.1032L11.25 15.2031V15.0416C11.2498 15.0329 11.2498 15.0242 11.25 15.0155V13.6965L12.9099 15.3565L12.75 15.4525V16.5155C12.7502 16.5242 12.7502 16.5329 12.75 16.5416V17.3648C14.1834 17.7034 15.25 18.991 15.25 20.5278C15.25 22.3227 13.7949 23.7778 12 23.7778C10.2051 23.7778 8.75 22.3227 8.75 20.5278C8.75 18.991 9.81665 17.7034 11.25 17.3648V16.9524L6.61436 14.1709C6.38846 14.0354 6.25024 13.7913 6.25024 13.5278V11.6499C5.37622 11.3411 4.75 10.5076 4.75 9.52782ZM12 18.7778C11.0335 18.7778 10.25 19.5613 10.25 20.5278C10.25 21.4943 11.0335 22.2778 12 22.2778C12.9665 22.2778 13.75 21.4943 13.75 20.5278C13.75 19.5613 12.9665 18.7778 12 18.7778Z" fill="black"/>
<path fill-rule="evenodd" clip-rule="evenodd" d="M12.75 10.2468L11.25 8.74679V5.23632L10.2164 5.23632C10.1779 5.23637 10.1135 5.23646 10.0557 5.23116C9.99928 5.226 9.83237 5.20879 9.67402 5.08834C9.50458 4.95944 9.40036 4.76259 9.38899 4.55001C9.37838 4.35134 9.45797 4.20362 9.48539 4.15409C9.51354 4.10323 9.5498 4.05003 9.57149 4.01821L11.3507 1.40026L11.3551 1.39377C11.3722 1.36855 11.4043 1.32113 11.4379 1.28015C11.4759 1.23394 11.5682 1.12832 11.7246 1.06408C11.901 0.99166 12.0989 0.99166 12.2753 1.06408C12.4318 1.12832 12.5241 1.23394 12.562 1.28015C12.5956 1.32113 12.6277 1.36855 12.6448 1.39377L12.6492 1.40026L14.4284 4.01821C14.4501 4.05003 14.4864 4.10323 14.5145 4.15409C14.542 4.20362 14.6216 4.35134 14.6109 4.55001C14.5996 4.76259 14.4954 4.95944 14.3259 5.08834C14.1676 5.20879 14.0007 5.226 13.9443 5.23116C13.8864 5.23646 13.822 5.23637 13.7835 5.23632L12.75 5.23632V10.2468ZM11.1045 3.98632L12 2.66877L12.8954 3.98632H11.1045Z" fill="black"/>
<path fill-rule="evenodd" clip-rule="evenodd" d="M16.0035 13.5003L14.9102 12.407L16.2498 11.6032V11.1528H15.66L15.6547 11.1528C15.6335 11.1529 15.5873 11.153 15.5434 11.1494C15.4881 11.1449 15.3843 11.1316 15.2709 11.0738C15.1344 11.0043 15.0235 10.8934 14.954 10.757C14.8962 10.6435 14.883 10.5397 14.8784 10.4844C14.8749 10.4405 14.8749 10.3943 14.875 10.3731L14.875 10.3678V7.68782L14.875 7.68249C14.8749 7.66133 14.8749 7.61511 14.8784 7.57124C14.883 7.51592 14.8962 7.41216 14.954 7.29868C15.0235 7.16226 15.1344 7.05135 15.2709 6.98184C15.3843 6.92401 15.4881 6.91078 15.5434 6.90626C15.5873 6.90267 15.6335 6.90277 15.6547 6.90281L15.66 6.90282L18.34 6.90282L18.3453 6.90281C18.3665 6.90277 18.4127 6.90267 18.4566 6.90626C18.5119 6.91078 18.6157 6.92401 18.7291 6.98184C18.8656 7.05135 18.9765 7.16226 19.046 7.29868C19.1038 7.41216 19.117 7.51592 19.1216 7.57124C19.1251 7.61511 19.1251 7.66133 19.125 7.68249L19.125 7.68782V10.3678L19.125 10.3731C19.1251 10.3943 19.1251 10.4405 19.1216 10.4844C19.117 10.5397 19.1038 10.6435 19.046 10.757C18.9765 10.8934 18.8656 11.0043 18.7291 11.0738C18.6157 11.1316 18.5119 11.1449 18.4566 11.1494C18.4127 11.153 18.3665 11.1529 18.3453 11.1528L18.34 11.1528H17.7498V12.0278C17.7498 12.2913 17.6115 12.5354 17.3856 12.6709L16.0035 13.5003ZM16.125 8.15282V9.90282H17.875V8.15282L16.125 8.15282Z" fill="black"/>
<path d="M2.23295 1.49744C2.03769 1.30217 1.7211 1.30217 1.52584 1.49744C1.33058 1.6927 1.33058 2.00928 1.52584 2.20454L21.3228 22.0015C21.5181 22.1968 21.8347 22.1968 22.0299 22.0015C22.2252 21.8063 22.2252 21.4897 22.0299 21.2944L2.23295 1.49744Z" fill="black"/>
</svg>
