<svg width="25" height="25" viewBox="0 0 25 25" fill="none" xmlns="http://www.w3.org/2000/svg">
<path d="M8.14877 11.2778C9.26858 11.4166 10.351 11.9152 11.2112 12.7754C12.0891 13.6533 12.5904 14.7627 12.7169 15.907C12.7625 16.3187 13.1331 16.6156 13.5448 16.5701C13.9565 16.5246 14.2534 16.1539 14.2079 15.7422C14.0452 14.2713 13.3994 12.8422 12.2719 11.7148C11.1672 10.6101 9.77286 9.96762 8.33324 9.78922C7.92217 9.73828 7.54764 10.0302 7.4967 10.4413C7.44576 10.8524 7.7377 11.2269 8.14877 11.2778Z" fill="black"/>
<path d="M7.98644 13.781C8.52001 13.8765 9.03014 14.1299 9.44347 14.5432C9.8483 14.948 10.0996 15.4456 10.1995 15.9671C10.2775 16.3739 10.6705 16.6405 11.0773 16.5625C11.4841 16.4846 11.7507 16.0916 11.6727 15.6848C11.5181 14.8777 11.1279 14.1063 10.5041 13.4825C9.86714 12.8455 9.07621 12.4522 8.25067 12.3044C7.84293 12.2315 7.45325 12.5029 7.38028 12.9106C7.30732 13.3183 7.5787 13.708 7.98644 13.781Z" fill="black"/>
<path d="M8.50677 17.6011C7.92099 18.1869 6.97124 18.1869 6.38545 17.6011C5.79967 17.0153 5.79967 16.0656 6.38545 15.4798C6.97124 14.894 7.92099 14.894 8.50677 15.4798C9.09256 16.0656 9.09256 17.0153 8.50677 17.6011Z" fill="black"/>
<path fill-rule="evenodd" clip-rule="evenodd" d="M18.2284 1.05741L23.0885 5.91746C23.2639 6.09282 23.4444 6.2733 23.5865 6.44057C23.7449 6.62724 23.9274 6.87796 24.0358 7.21157C24.1826 7.66346 24.1826 8.15024 24.0358 8.60214C23.9274 8.93575 23.7449 9.18646 23.5865 9.37314C23.4444 9.54041 23.2639 9.72089 23.0885 9.89626L20.8294 12.1553C21.5533 13.0162 21.5102 14.3029 20.7 15.1131L15.0016 20.8116C11.7798 24.0334 6.55616 24.0334 3.33434 20.8116C0.112513 17.5897 0.112512 12.3661 3.33434 9.14429L9.03279 3.44584C9.84295 2.63568 11.1297 2.59256 11.9906 3.31648L14.2496 1.05741C14.425 0.881984 14.6055 0.701446 14.7728 0.55944C14.9594 0.400968 15.2101 0.218518 15.5437 0.110123C15.9956 -0.0367076 16.4824 -0.0367076 16.9343 0.110123C17.2679 0.218518 17.5186 0.400968 17.7053 0.55944C17.8726 0.701447 18.0531 0.881983 18.2284 1.05741ZM18.7139 13.5637L13.2338 19.0438C10.9883 21.2893 7.34762 21.2893 5.1021 19.0438C2.85659 16.7983 2.85659 13.1576 5.10211 10.9121L10.5822 5.43198L18.7139 13.5637ZM21.2949 8.15434L19.0675 10.3817L13.7642 5.07843L15.9916 2.85104C16.0916 2.75097 16.1702 2.67245 16.239 2.60568C16.3079 2.67245 16.3865 2.75097 16.4865 2.85104L21.2949 7.65937C21.3949 7.75943 21.4734 7.838 21.5402 7.90685C21.4734 7.97571 21.3949 8.05427 21.2949 8.15434Z" fill="black"/>
</svg>
