<svg width="24" height="24" viewBox="0 0 24 24" fill="none" xmlns="http://www.w3.org/2000/svg">
<path fill-rule="evenodd" clip-rule="evenodd" d="M17.7944 1.17665L22.8154 6.19771C22.9578 6.34007 23.0886 6.47088 23.1916 6.58793C23.3021 6.71359 23.4148 6.86085 23.4965 7.04544C23.6957 7.49614 23.6957 8.00995 23.4965 8.46065C23.4148 8.64524 23.3021 8.7925 23.1916 8.91816C23.0886 9.0352 22.9578 9.16598 22.8155 9.30832L20.1281 11.9957L20.3465 12.2141C21.0069 12.8745 21.0069 13.9453 20.3465 14.6057L14.648 20.3042C11.6215 23.3308 6.71445 23.3308 3.68789 20.3042C0.661329 17.2776 0.661327 12.3706 3.68789 9.34403L9.38634 3.64558C10.0468 2.98514 11.1176 2.98514 11.778 3.64558L11.9964 3.86396L14.6837 1.17665C14.8261 1.03427 14.9569 0.903455 15.0739 0.800521C15.1996 0.690015 15.3468 0.577239 15.5314 0.495629C15.9821 0.296379 16.4959 0.296379 16.9466 0.495629C17.1312 0.577238 17.2785 0.690015 17.4042 0.800521C17.5212 0.903449 17.652 1.03428 17.7944 1.17665ZM21.7403 8.26216L19.0675 10.935L13.0571 4.92462L15.7299 2.25176C15.8915 2.09016 15.988 1.99418 16.0645 1.92693C16.112 1.88517 16.1348 1.86999 16.1409 1.86627C16.2036 1.8395 16.2745 1.8395 16.3372 1.86627C16.3432 1.86999 16.3661 1.88517 16.4136 1.92693C16.4901 1.99418 16.5866 2.09016 16.7482 2.25175L21.7403 7.24393C21.9019 7.40552 21.9979 7.50201 22.0652 7.57849C22.1068 7.62589 22.122 7.64876 22.1258 7.65485C22.1526 7.71756 22.1526 7.7885 22.1258 7.85121C22.1221 7.85725 22.1069 7.88012 22.0652 7.9276C21.9979 8.00408 21.9019 8.10057 21.7403 8.26216ZM11.2112 12.6216C10.351 11.7614 9.26858 11.2628 8.14877 11.124C7.7377 11.0731 7.44576 10.6985 7.4967 10.2875C7.54764 9.87641 7.92217 9.58447 8.33324 9.63541C9.77286 9.81381 11.1672 10.4562 12.2719 11.561C13.3994 12.6884 14.0452 14.1175 14.2079 15.5884C14.2534 16.0001 13.9565 16.3707 13.5448 16.4163C13.1331 16.4618 12.7625 16.1649 12.7169 15.7532C12.5904 14.6088 12.0891 13.4994 11.2112 12.6216ZM9.19705 14.6371C8.78372 14.2238 8.27359 13.9704 7.74002 13.8749C7.33228 13.802 7.06089 13.4123 7.13386 13.0045C7.20683 12.5968 7.59651 12.3254 8.00425 12.3984C8.82979 12.5461 9.62072 12.9395 10.2577 13.5765C10.8815 14.2002 11.2717 14.9717 11.4263 15.7788C11.5043 16.1856 11.2377 16.5786 10.8309 16.6565C10.424 16.7344 10.0311 16.4678 9.95312 16.061C9.85321 15.5395 9.60187 15.042 9.19705 14.6371ZM6.56214 17.2705C7.0503 17.7587 7.84175 17.7587 8.32991 17.2705C8.81806 16.7824 8.81806 15.9909 8.32991 15.5028C7.84175 15.0146 7.0503 15.0146 6.56214 15.5028C6.07399 15.9909 6.07399 16.7824 6.56214 17.2705Z" fill="black"/>
</svg>
