<svg width="24" height="24" viewBox="0 0 24 24" fill="none" xmlns="http://www.w3.org/2000/svg">
<path d="M2.23295 1.49752C2.03769 1.30226 1.7211 1.30226 1.52584 1.49752C1.33058 1.69278 1.33058 2.00937 1.52584 2.20463L21.3228 22.0016C21.5181 22.1969 21.8347 22.1969 22.0299 22.0016C22.2252 21.8063 22.2252 21.4898 22.0299 21.2945L2.23295 1.49752Z" fill="black"/>
<path d="M5.5 9.38551C5.5 8.98681 5.65555 8.62445 5.90927 8.35579L8.02972 10.4762C7.87926 10.6183 7.69941 10.7296 7.50024 10.8001V14.1024L11.5 16.5024V15.8946L11.4999 15.8871L11.5 15.8773V13.9465L12.5 14.9465V15.0024L12.5349 14.9814L13.2638 15.7103L12.5 16.1686L12.5 17.3773L12.5001 17.3908L12.5 17.3947V18.6484C13.3626 18.8704 14 19.6535 14 20.5854C14 21.69 13.1046 22.5854 12 22.5854C10.8954 22.5854 10 21.69 10 20.5854C10 19.6535 10.6374 18.8704 11.5 18.6484V17.6686L6.74299 14.8142C6.59239 14.7239 6.50024 14.5611 6.50024 14.3855V10.8002C5.91752 10.5944 5.5 10.0387 5.5 9.38551Z" fill="black"/>
<path d="M12.5 9.99677L11.5 8.99677V4.46901H10.5285C10.3324 4.46901 10.2344 4.46901 10.1807 4.42818C10.134 4.39263 10.1053 4.33833 10.1021 4.27968C10.0985 4.21235 10.1536 4.13128 10.2638 3.96914L11.7353 1.80398C11.824 1.67348 11.8684 1.60819 11.924 1.58535C11.9727 1.56537 12.0273 1.56537 12.0759 1.58535C12.1316 1.60819 12.1759 1.67344 12.2646 1.80394L13.7361 3.96913C13.8463 4.13126 13.9014 4.21235 13.8978 4.27968C13.8947 4.33832 13.8659 4.39263 13.8192 4.42818C13.7655 4.46901 13.6675 4.46901 13.4715 4.46901H12.5V9.99677Z" fill="black"/>
<path d="M16.3573 13.8541L15.6285 13.1252L16.4998 12.6024V10.3855L15.82 10.3855C15.708 10.3855 15.652 10.3855 15.6092 10.3637C15.5716 10.3445 15.541 10.3139 15.5218 10.2763C15.5 10.2335 15.5 10.1775 15.5 10.0655V7.70551C15.5 7.5935 15.5 7.53749 15.5218 7.49471C15.541 7.45708 15.5716 7.42648 15.6092 7.40731C15.652 7.38551 15.708 7.38551 15.82 7.38551H18.18C18.292 7.38551 18.348 7.38551 18.3908 7.40731C18.4284 7.42648 18.459 7.45708 18.4782 7.49471C18.5 7.53749 18.5 7.5935 18.5 7.70551V10.0655C18.5 10.1775 18.5 10.2335 18.4782 10.2763C18.459 10.3139 18.4284 10.3445 18.3908 10.3637C18.348 10.3855 18.292 10.3855 18.18 10.3855H17.4998V12.8855C17.4998 13.0611 17.4076 13.2239 17.257 13.3142L16.3573 13.8541Z" fill="black"/>
</svg>
