<svg width="24" height="24" viewBox="0 0 24 24" fill="none" xmlns="http://www.w3.org/2000/svg">
<path d="M2.40924 1.32074C2.11634 1.02785 1.64147 1.02785 1.34858 1.32074C1.05568 1.61364 1.05568 2.08851 1.34858 2.3814L21.1456 22.1784C21.4384 22.4713 21.9133 22.4713 22.2062 22.1784C22.4991 21.8855 22.4991 21.4106 22.2062 21.1177L2.40924 1.32074Z" fill="black"/>
<path d="M4.74951 9.67778C4.74951 9.17791 4.91252 8.71612 5.18827 8.34265L8.33464 11.489C8.30683 11.5096 8.27853 11.5295 8.24976 11.5487V13.9701L10.7495 15.47V13.9039L13.5505 16.7049L13.2495 16.8855V17.6572C13.2498 17.6717 13.2498 17.6862 13.2495 17.7007V18.4275C14.1399 18.8827 14.7495 19.809 14.7495 20.8777C14.7495 22.3965 13.5183 23.6277 11.9995 23.6277C10.4807 23.6277 9.24951 22.3965 9.24951 20.8777C9.24951 19.809 9.85909 18.8827 10.7495 18.4275V18.3855L6.35661 15.7496C5.98012 15.5237 5.74976 15.1168 5.74976 14.6778V11.5491C5.14663 11.1454 4.74951 10.458 4.74951 9.67778Z" fill="black"/>
<path d="M13.2495 10.0399L10.7495 7.53993V5.5113H10.3014C9.53877 5.5113 9.087 4.65804 9.51566 4.02731L11.2138 1.52867C11.5908 0.973993 12.4083 0.973987 12.7852 1.52867L14.4834 4.02731C14.912 4.65803 14.4602 5.5113 13.6976 5.5113H13.2495L13.2495 10.0399Z" fill="black"/>
<path d="M17.5279 14.3183L15.7057 12.4962L15.7493 12.4701V11.4278H15.6995C15.1748 11.4278 14.7495 11.0024 14.7495 10.4778V7.87778C14.7495 7.35311 15.1748 6.92778 15.6995 6.92778H18.2995C18.8242 6.92778 19.2495 7.35311 19.2495 7.87778V10.4778C19.2495 11.0024 18.8242 11.4278 18.2995 11.4278H18.2493V13.1778C18.2493 13.6168 18.0189 14.0237 17.6424 14.2496L17.5279 14.3183Z" fill="black"/>
</svg>
