<svg width="24" height="24" viewBox="0 0 24 24" fill="none" xmlns="http://www.w3.org/2000/svg">
<path fill-rule="evenodd" clip-rule="evenodd" d="M4.99951 9.33025C4.99951 8.98981 5.08457 8.66924 5.2346 8.38863L7.99976 11.1538V13.7641L10.9995 15.564V14.1535L13.1513 16.3053L12.9995 16.3964V17.3138C12.9997 17.3254 12.9997 17.337 12.9995 17.3486V17.7009C14.1647 18.1127 14.9995 19.2239 14.9995 20.5302C14.9995 22.187 13.6564 23.5302 11.9995 23.5302C10.3427 23.5302 8.99951 22.187 8.99951 20.5302C8.99951 19.2987 9.74148 18.2406 10.8027 17.7784L6.48524 15.1877C6.18405 15.007 5.99976 14.6815 5.99976 14.3303V11.0628C5.40182 10.7171 4.99951 10.0706 4.99951 9.33025ZM10.9995 20.5302C10.9995 19.9779 11.4472 19.5302 11.9995 19.5302C12.5518 19.5302 12.9995 19.9779 12.9995 20.5302C12.9995 21.0824 12.5518 21.5302 11.9995 21.5302C11.4472 21.5302 10.9995 21.0824 10.9995 20.5302Z" fill="black"/>
<path d="M12.9995 9.78958L10.9995 7.78958V4.91378L10.5127 4.91378C10.4284 4.91381 10.3343 4.91384 10.2552 4.90659C10.1766 4.8994 10.0203 4.87951 9.87757 4.77091C9.71397 4.64646 9.61334 4.4564 9.60237 4.25114C9.5928 4.072 9.6642 3.93157 9.70239 3.86257C9.74088 3.79305 9.79381 3.71522 9.84122 3.6455L11.3288 1.45674C11.3663 1.40143 11.4112 1.33536 11.4551 1.2818C11.503 1.22354 11.5918 1.12582 11.7337 1.06758C11.904 0.997655 12.095 0.997655 12.2654 1.06758C12.4072 1.12582 12.496 1.22354 12.5439 1.2818C12.5878 1.33533 12.6327 1.40138 12.6702 1.45667L14.1578 3.64551C14.2052 3.71522 14.2581 3.79305 14.2966 3.86257C14.3348 3.93157 14.4062 4.072 14.3966 4.25114C14.3857 4.4564 14.285 4.64646 14.1214 4.7709C13.9787 4.87951 13.8224 4.8994 13.7439 4.90659C13.6647 4.91384 13.5706 4.91381 13.4863 4.91378L12.9995 4.91378V9.78958Z" fill="black"/>
<path d="M17.1287 13.9188L15.671 12.4611L15.9993 12.2641V10.8302L15.8095 10.8302C15.7628 10.8303 15.7019 10.8303 15.6474 10.8259C15.5832 10.8206 15.4854 10.8068 15.3817 10.754C15.25 10.6868 15.1429 10.5798 15.0758 10.448C15.023 10.3444 15.0092 10.2466 15.0039 10.1823C14.9995 10.1279 14.9995 10.067 14.9995 10.0203V7.64019C14.9995 7.59351 14.9995 7.53259 15.0039 7.47817C15.0092 7.4139 15.023 7.31608 15.0758 7.21245C15.1429 7.08074 15.25 6.97365 15.3817 6.90654C15.4854 6.85374 15.5832 6.83988 15.6474 6.83463C15.7019 6.83018 15.7627 6.83022 15.8094 6.83024H18.1896C18.2363 6.83022 18.2972 6.83018 18.3516 6.83463C18.4159 6.83988 18.5137 6.85374 18.6173 6.90654C18.749 6.97365 18.8561 7.08074 18.9232 7.21245C18.976 7.31608 18.9899 7.4139 18.9951 7.47817C18.9996 7.5326 18.9995 7.5935 18.9995 7.64019V10.0203C18.9995 10.067 18.9996 10.1279 18.9951 10.1823C18.9899 10.2466 18.976 10.3444 18.9232 10.448C18.8561 10.5798 18.749 10.6868 18.6173 10.7539C18.5137 10.8067 18.4159 10.8206 18.3516 10.8259C18.2972 10.8303 18.2363 10.8303 18.1896 10.8302L17.9993 10.8302V12.8303C17.9993 13.1815 17.815 13.507 17.5138 13.6877L17.1287 13.9188Z" fill="black"/>
<path d="M2.40924 1.32082C2.11634 1.02792 1.64147 1.02792 1.34858 1.32082C1.05568 1.61371 1.05568 2.08858 1.34858 2.38148L21.1456 22.1785C21.4384 22.4713 21.9133 22.4713 22.2062 22.1785C22.4991 21.8856 22.4991 21.4107 22.2062 21.1178L2.40924 1.32082Z" fill="black"/>
</svg>
