<svg width="24" height="24" viewBox="0 0 24 24" fill="none" xmlns="http://www.w3.org/2000/svg">
<path fill-rule="evenodd" clip-rule="evenodd" d="M17.968 0.996738L22.9953 6.02407C23.1349 6.1636 23.2709 6.2996 23.3793 6.42283C23.4977 6.55747 23.6289 6.72669 23.7251 6.94436C23.9528 7.45944 23.9528 8.04665 23.7251 8.56173C23.6289 8.7794 23.4977 8.94862 23.3793 9.08326C23.2709 9.2065 23.1349 9.34245 22.9954 9.48199L20.4817 11.9957L20.5233 12.0373C21.2813 12.7954 21.2813 14.0244 20.5233 14.7825L14.8248 20.481C11.7006 23.6052 6.63531 23.6052 3.51112 20.481C0.386921 17.3568 0.38692 12.2915 3.51112 9.16726L9.20956 3.46881C9.96764 2.71073 11.1967 2.71073 11.9548 3.46881L11.9964 3.5104L14.5101 0.996739C14.6496 0.857162 14.7856 0.721172 14.9088 0.612787C15.0435 0.494388 15.2127 0.363209 15.4304 0.266977C15.9454 0.0392629 16.5326 0.0392629 17.0477 0.266977C17.2654 0.363209 17.4346 0.494388 17.5693 0.612786C17.6925 0.721158 17.8285 0.857181 17.968 0.996738ZM21.5636 8.08539L19.0675 10.5815L13.4106 4.92462L15.9067 2.42853C16.0706 2.26467 16.1605 2.17539 16.2296 2.11466L16.239 2.10642L16.2485 2.11466C16.3176 2.17539 16.4075 2.26467 16.5714 2.42853L21.5636 7.4207C21.7274 7.58457 21.8167 7.67453 21.8774 7.74358L21.8857 7.75304L21.8774 7.76251C21.8167 7.83156 21.7274 7.92152 21.5636 8.08539ZM11.2112 12.6216C10.351 11.7614 9.26858 11.2628 8.14877 11.124C7.7377 11.0731 7.44576 10.6985 7.4967 10.2875C7.54764 9.87641 7.92217 9.58447 8.33324 9.63541C9.77286 9.81381 11.1672 10.4562 12.2719 11.561C13.3994 12.6884 14.0452 14.1175 14.2079 15.5884C14.2534 16.0001 13.9565 16.3707 13.5448 16.4163C13.1331 16.4618 12.7625 16.1649 12.7169 15.7532C12.5904 14.6088 12.0891 13.4994 11.2112 12.6216ZM9.19705 14.6371C8.78372 14.2238 8.27359 13.9704 7.74002 13.8749C7.33228 13.802 7.06089 13.4123 7.13386 13.0045C7.20683 12.5968 7.59651 12.3254 8.00425 12.3984C8.82979 12.5461 9.62072 12.9395 10.2577 13.5765C10.8815 14.2002 11.2717 14.9717 11.4263 15.7788C11.5043 16.1856 11.2377 16.5786 10.8309 16.6565C10.424 16.7344 10.0311 16.4678 9.95312 16.061C9.85321 15.5395 9.60187 15.042 9.19705 14.6371ZM6.56214 17.2705C7.0503 17.7587 7.84175 17.7587 8.32991 17.2705C8.81806 16.7824 8.81807 15.9909 8.32991 15.5028C7.84175 15.0146 7.0503 15.0146 6.56214 15.5028C6.07399 15.9909 6.07399 16.7824 6.56214 17.2705Z" fill="black"/>
</svg>
