<svg width="25" height="25" viewBox="0 0 25 25" fill="none" xmlns="http://www.w3.org/2000/svg">
<path d="M8.14852 12.1245C9.26833 12.2633 10.3508 12.7619 11.211 13.6221C12.0888 14.4999 12.5902 15.6093 12.7167 16.7537C12.7622 17.1654 13.1329 17.4623 13.5446 17.4168C13.9563 17.3712 14.2531 17.0006 14.2076 16.5889C14.045 15.1179 13.3991 13.6889 12.2717 12.5614C11.167 11.4567 9.77261 10.8143 8.333 10.6359C7.92193 10.585 7.54739 10.8769 7.49645 11.288C7.44551 11.699 7.73745 12.0736 8.14852 12.1245Z" fill="black"/>
<path d="M7.98619 14.6277C8.51977 14.7231 9.0299 14.9765 9.44323 15.3899C9.84805 15.7947 10.0994 16.2923 10.1993 16.8138C10.2772 17.2206 10.6702 17.4872 11.077 17.4092C11.4838 17.3313 11.7504 16.9383 11.6725 16.5315C11.5179 15.7244 11.1276 14.953 10.5039 14.3292C9.8669 13.6922 9.07597 13.2988 8.25043 13.1511C7.84269 13.0781 7.453 13.3495 7.38004 13.7573C7.30707 14.165 7.57846 14.5547 7.98619 14.6277Z" fill="black"/>
<path d="M8.50653 18.4478C7.92074 19.0336 6.971 19.0336 6.38521 18.4478C5.79942 17.862 5.79942 16.9123 6.38521 16.3265C6.971 15.7407 7.92074 15.7407 8.50653 16.3265C9.09232 16.9123 9.09232 17.862 8.50653 18.4478Z" fill="black"/>
<path fill-rule="evenodd" clip-rule="evenodd" d="M18.2282 1.90409L23.0882 6.76414C23.2637 6.9395 23.4442 7.11998 23.5862 7.28725C23.7447 7.47392 23.9271 7.72464 24.0355 8.05825C24.1824 8.51014 24.1824 8.99692 24.0355 9.44882C23.9271 9.78243 23.7447 10.0331 23.5862 10.2198C23.4442 10.3871 23.2637 10.5676 23.0882 10.7429L20.8292 13.002C21.5531 13.8629 21.51 15.1496 20.6998 15.9598L15.0014 21.6582C11.7795 24.8801 6.55592 24.8801 3.33409 21.6582C0.112268 18.4364 0.112268 13.2128 3.33409 9.99097L9.03254 4.29252C9.8427 3.48236 11.1294 3.43924 11.9903 4.16316L14.2494 1.90409C14.4248 1.72866 14.6052 1.54813 14.7725 1.40612C14.9592 1.24765 15.2099 1.0652 15.5435 0.956802C15.9954 0.809972 16.4822 0.809972 16.9341 0.956803C17.2677 1.0652 17.5184 1.24765 17.7051 1.40612C17.8724 1.54813 18.0528 1.72866 18.2282 1.90409ZM18.7137 14.4104L13.2336 19.8905C10.9881 22.136 7.34737 22.136 5.10186 19.8905C2.85634 17.645 2.85635 14.0043 5.10186 11.7587L10.5819 6.27866L18.7137 14.4104ZM21.2946 9.00102L19.0672 11.2284L13.7639 5.92511L15.9913 3.69772C16.0914 3.59765 16.1699 3.51913 16.2388 3.45236C16.3076 3.51913 16.3862 3.59765 16.4863 3.69772L21.2946 8.50605C21.3947 8.60611 21.4732 8.68468 21.54 8.75353C21.4732 8.82239 21.3947 8.90095 21.2946 9.00102Z" fill="black"/>
</svg>
