<svg width="24" height="24" viewBox="0 0 24 24" fill="none" xmlns="http://www.w3.org/2000/svg">
<path fill-rule="evenodd" clip-rule="evenodd" d="M17.9678 0.997226L22.9951 6.02456C23.1347 6.16409 23.2707 6.30009 23.3791 6.42332C23.4975 6.55796 23.6286 6.72717 23.7249 6.94485C23.9526 7.45993 23.9526 8.04714 23.7249 8.56222C23.6286 8.77989 23.4975 8.94911 23.3791 9.08375C23.2707 9.20699 23.1347 9.34294 22.9951 9.48248L20.4814 11.9962L20.523 12.0378C21.2811 12.7958 21.2811 14.0249 20.523 14.783L14.8246 20.4815C11.7004 23.6056 6.63507 23.6056 3.51087 20.4815C0.386677 17.3573 0.386676 12.2919 3.51087 9.16774L9.20932 3.4693C9.9674 2.71122 11.1965 2.71122 11.9546 3.4693L11.9962 3.51089L14.5098 0.997227C14.6494 0.857651 14.7853 0.721661 14.9086 0.613275C15.0432 0.494876 15.2124 0.363697 15.4301 0.267465C15.9452 0.0397512 16.5324 0.0397512 17.0475 0.267465C17.2652 0.363697 17.4344 0.494876 17.569 0.613275C17.6922 0.721646 17.8282 0.85767 17.9678 0.997226ZM21.5633 8.08587L19.0672 10.582L13.4104 4.92511L15.9065 2.42902C16.0703 2.26515 16.1603 2.17587 16.2293 2.11515L16.2388 2.10691L16.2483 2.11515C16.3173 2.17587 16.4073 2.26515 16.5711 2.42902L21.5633 7.42119C21.7272 7.58506 21.8165 7.67502 21.8772 7.74407L21.8854 7.75353L21.8772 7.763C21.8165 7.83205 21.7272 7.92201 21.5633 8.08587ZM11.211 12.6221C10.3508 11.7619 9.26833 11.2633 8.14852 11.1245C7.73745 11.0736 7.44551 10.699 7.49645 10.288C7.54739 9.8769 7.92193 9.58495 8.333 9.6359C9.77261 9.8143 11.167 10.4567 12.2717 11.5614C13.3991 12.6889 14.045 14.1179 14.2076 15.5889C14.2531 16.0006 13.9563 16.3712 13.5446 16.4168C13.1329 16.4623 12.7622 16.1654 12.7167 15.7537C12.5902 14.6093 12.0888 13.4999 11.211 12.6221ZM9.19681 14.6376C8.78347 14.2243 8.27335 13.9709 7.73977 13.8754C7.33203 13.8025 7.06065 13.4128 7.13362 13.005C7.20658 12.5973 7.59627 12.3259 8.004 12.3989C8.82955 12.5466 9.62048 12.94 10.2575 13.577C10.8812 14.2007 11.2715 14.9722 11.4261 15.7793C11.504 16.1861 11.2374 16.579 10.8306 16.657C10.4238 16.7349 10.0308 16.4683 9.95288 16.0615C9.85297 15.54 9.60163 15.0425 9.19681 14.6376ZM6.5619 17.271C7.05005 17.7592 7.84151 17.7592 8.32967 17.271C8.81782 16.7829 8.81782 15.9914 8.32967 15.5033C7.84151 15.0151 7.05005 15.0151 6.5619 15.5033C6.07374 15.9914 6.07374 16.7829 6.5619 17.271Z" fill="black"/>
</svg>
