<svg width="24" height="24" viewBox="0 0 24 24" fill="none" xmlns="http://www.w3.org/2000/svg">
<path d="M8.14852 11.1245C9.26833 11.2633 10.3508 11.7619 11.211 12.6221C12.0888 13.4999 12.5902 14.6093 12.7167 15.7537C12.7622 16.1654 13.1329 16.4623 13.5446 16.4168C13.9563 16.3712 14.2531 16.0006 14.2076 15.5889C14.045 14.1179 13.3991 12.6889 12.2717 11.5614C11.167 10.4567 9.77261 9.8143 8.333 9.6359C7.92193 9.58495 7.5474 9.8769 7.49645 10.288C7.44551 10.699 7.73745 11.0736 8.14852 11.1245Z" fill="black"/>
<path d="M7.98619 13.6277C8.51977 13.7231 9.0299 13.9765 9.44323 14.3899C9.84805 14.7947 10.0994 15.2923 10.1993 15.8138C10.2772 16.2206 10.6702 16.4872 11.077 16.4092C11.4838 16.3313 11.7504 15.9383 11.6725 15.5315C11.5179 14.7244 11.1276 13.953 10.5039 13.3292C9.8669 12.6922 9.07597 12.2988 8.25043 12.1511C7.84269 12.0781 7.453 12.3495 7.38004 12.7573C7.30707 13.165 7.57846 13.5547 7.98619 13.6277Z" fill="black"/>
<path d="M8.50653 17.4478C7.92074 18.0336 6.971 18.0336 6.38521 17.4478C5.79942 16.862 5.79942 15.9123 6.38521 15.3265C6.971 14.7407 7.92074 14.7407 8.50653 15.3265C9.09232 15.9123 9.09232 16.862 8.50653 17.4478Z" fill="black"/>
<path fill-rule="evenodd" clip-rule="evenodd" d="M17.8617 1.2447L22.7476 6.13063C22.9205 6.3035 23.0793 6.46231 23.202 6.60558C23.334 6.75988 23.4655 6.94219 23.5468 7.17369C23.6786 7.54902 23.6786 7.95805 23.5468 8.33337C23.4655 8.56487 23.334 8.74719 23.202 8.90149C23.0793 9.04476 22.9205 9.20355 22.7476 9.37642L20.1279 11.9962L20.3463 12.2145C21.0067 12.875 21.0067 13.9458 20.3463 14.6062L14.6478 20.3047C11.6212 23.3312 6.71421 23.3312 3.68765 20.3047C0.661083 17.2781 0.661084 12.3711 3.68765 9.34452L9.3861 3.64607C10.0465 2.98563 11.1173 2.98563 11.7778 3.64607L11.9962 3.86445L14.6159 1.2447C14.7888 1.0718 14.9476 0.91299 15.0908 0.79037C15.2451 0.658312 15.4275 0.52683 15.659 0.445533C16.0343 0.313728 16.4433 0.313728 16.8186 0.445533C17.0501 0.52683 17.2325 0.658312 17.3868 0.790371C17.53 0.912983 17.6888 1.07182 17.8617 1.2447ZM21.6694 8.33336L19.0672 10.9355L13.0568 4.92511L15.659 2.32295C15.8553 2.12664 15.9726 2.01008 16.0662 1.92998C16.1235 1.88088 16.1515 1.8639 16.1592 1.85969C16.2108 1.84234 16.2668 1.84234 16.3184 1.85969C16.3261 1.8639 16.354 1.88088 16.4114 1.92998C16.505 2.01008 16.6223 2.12664 16.8186 2.32295L21.6694 7.17371C21.8657 7.37002 21.9822 7.48733 22.0623 7.58091C22.1114 7.63829 22.1284 7.66622 22.1326 7.67392C22.15 7.72558 22.15 7.78149 22.1326 7.83315C22.1284 7.84085 22.1114 7.86879 22.0623 7.92615C21.9822 8.01974 21.8657 8.13705 21.6694 8.33336ZM10.7171 4.70673L19.2856 13.2752C19.3602 13.3499 19.3603 13.4709 19.2856 13.5456L13.5871 19.244C11.1464 21.6848 7.18908 21.6848 4.74831 19.244C2.30753 16.8032 2.30753 12.846 4.74831 10.4052L10.4468 4.70673C10.5214 4.63207 10.6425 4.63207 10.7171 4.70673Z" fill="black"/>
</svg>
