<svg width="24" height="24" viewBox="0 0 24 24" fill="none" xmlns="http://www.w3.org/2000/svg">
<path d="M11.9998 15C11.1449 15 10.315 15.1073 9.52292 15.3091C9.99295 15.9157 10.3167 16.6421 10.4425 17.4366C10.5001 17.7998 10.5 18.223 10.5 18.9434V19.0566C10.5 19.777 10.5001 20.2002 10.4425 20.5634C10.2512 21.7718 9.60202 22.8225 8.67669 23.5339C9.73203 23.8374 10.847 24 12 24C18.6274 24 24 18.6274 24 12C24 5.37258 18.6274 0 12 0C5.37258 0 0 5.37258 0 12C0 13.153 0.162606 14.268 0.466136 15.3233C0.588251 15.1645 0.720367 15.0138 0.861561 14.8721C0.625528 13.9541 0.5 12.9917 0.5 12C0.5 5.64873 5.64873 0.5 12 0.5C18.3513 0.5 23.5 5.64873 23.5 12C23.5 14.9806 22.366 17.6964 20.506 19.7395C18.7429 16.8947 15.5926 15 11.9998 15Z" fill="black"/>
<path d="M11.9998 13.5C14.4851 13.5 16.4998 11.4853 16.4998 9C16.4998 6.51472 14.4851 4.5 11.9998 4.5C9.51453 4.5 7.49981 6.51472 7.49981 9C7.49981 11.4853 9.51453 13.5 11.9998 13.5Z" fill="black"/>
<path fill-rule="evenodd" clip-rule="evenodd" d="M0 19C0 18.2258 0 17.8387 0.0512986 17.5149C0.33368 15.732 1.73197 14.3337 3.51486 14.0513C3.83874 14 4.22583 14 5 14C5.77417 14 6.16126 14 6.48514 14.0513C8.26803 14.3337 9.66632 15.732 9.9487 17.5149C10 17.8387 10 18.2258 10 19C10 19.7742 10 20.1613 9.9487 20.4851C9.66632 22.268 8.26803 23.6663 6.48514 23.9487C6.16126 24 5.77417 24 5 24C4.22583 24 3.83874 24 3.51486 23.9487C1.73197 23.6663 0.33368 22.268 0.0512986 20.4851C0 20.1613 0 19.7742 0 19ZM7.24951 19C7.24951 18.8619 7.13758 18.75 6.99951 18.75H2.99964C2.86157 18.75 2.74964 18.8619 2.74964 19C2.74964 19.1381 2.86157 19.25 2.99964 19.25H6.99951C7.13758 19.25 7.24951 19.1381 7.24951 19Z" fill="black"/>
</svg>
