<svg width="24" height="24" viewBox="0 0 24 24" fill="none" xmlns="http://www.w3.org/2000/svg">
<path fill-rule="evenodd" clip-rule="evenodd" d="M16.4998 9C16.4998 11.4853 14.4851 13.5 11.9998 13.5C9.51453 13.5 7.49981 11.4853 7.49981 9C7.49981 6.51472 9.51453 4.5 11.9998 4.5C14.4851 4.5 16.4998 6.51472 16.4998 9ZM13.9998 9C13.9998 10.1046 13.1044 11 11.9998 11C10.8952 11 9.99981 10.1046 9.99981 9C9.99981 7.89543 10.8952 7 11.9998 7C13.1044 7 13.9998 7.89543 13.9998 9Z" fill="black"/>
<path fill-rule="evenodd" clip-rule="evenodd" d="M3.23005 20.1908C1.22638 18.0463 0 15.1664 0 12C0 5.37258 5.37258 0 12 0C18.6274 0 24 5.37258 24 12C24 18.6274 18.6274 24 12 24C9.46662 24 7.1166 23.215 5.17993 21.8749C5.17995 21.8748 5.17992 21.8749 5.17993 21.8749C4.47078 21.3842 3.81707 20.819 3.23005 20.1908C3.23003 20.1908 3.23007 20.1907 3.23005 20.1908ZM17.4125 19.8084C15.8768 20.8749 14.0114 21.5 12 21.5C9.98851 21.5 8.12304 20.8748 6.58727 19.8082C7.95222 18.3856 9.8726 17.5 11.9998 17.5C14.1271 17.5 16.0475 18.3857 17.4125 19.8084ZM19.2619 18.1252C17.4393 16.2006 14.8598 15 11.9998 15C9.13998 15 6.56052 16.2005 4.73791 18.125C3.34162 16.4712 2.5 14.3339 2.5 12C2.5 6.75329 6.75329 2.5 12 2.5C17.2467 2.5 21.5 6.75329 21.5 12C21.5 14.334 20.6583 16.4714 19.2619 18.1252Z" fill="black"/>
</svg>
