<svg width="24" height="24" viewBox="0 0 24 24" fill="none" xmlns="http://www.w3.org/2000/svg">
<path fill-rule="evenodd" clip-rule="evenodd" d="M12 24C18.6274 24 24 18.6274 24 12C24 5.37258 18.6274 0 12 0C5.37258 0 0 5.37258 0 12C0 13.153 0.162605 14.268 0.466135 15.3233C1.17752 14.398 2.2282 13.7489 3.43664 13.5575C3.79978 13.4999 4.22297 13.5 4.94341 13.5H5.05659C5.77703 13.5 6.20022 13.4999 6.56336 13.5575C7.76563 13.7479 8.81175 14.3914 9.52295 15.3092C10.3151 15.1073 11.145 15 12 15C15.5928 15 18.7431 16.8947 20.5061 19.7395C18.4027 22.0499 15.3708 23.5 12.0002 23.5C11.0084 23.5 10.046 23.3745 9.12791 23.1384C8.98626 23.2796 8.83554 23.4117 8.67669 23.5339C9.73203 23.8374 10.847 24 12 24ZM16.5 9C16.5 11.4853 14.4853 13.5 12 13.5C9.5147 13.5 7.49998 11.4853 7.49998 9C7.49998 6.51472 9.5147 4.5 12 4.5C14.4853 4.5 16.5 6.51472 16.5 9Z" fill="black"/>
<path fill-rule="evenodd" clip-rule="evenodd" d="M0 19C0 18.2258 0 17.8387 0.0512986 17.5149C0.33368 15.732 1.73197 14.3337 3.51486 14.0513C3.83874 14 4.22583 14 5 14C5.77417 14 6.16126 14 6.48514 14.0513C8.26803 14.3337 9.66632 15.732 9.9487 17.5149C10 17.8387 10 18.2258 10 19C10 19.7742 10 20.1613 9.9487 20.4851C9.66632 22.268 8.26803 23.6663 6.48514 23.9487C6.16126 24 5.77417 24 5 24C4.22583 24 3.83874 24 3.51486 23.9487C1.73197 23.6663 0.33368 22.268 0.0512986 20.4851C0 20.1613 0 19.7742 0 19ZM7.24951 19C7.24951 18.8619 7.13758 18.75 6.99951 18.75H2.99964C2.86157 18.75 2.74964 18.8619 2.74964 19C2.74964 19.1381 2.86157 19.25 2.99964 19.25H6.99951C7.13758 19.25 7.24951 19.1381 7.24951 19Z" fill="black"/>
</svg>
