<svg width="24" height="24" viewBox="0 0 24 24" fill="none" xmlns="http://www.w3.org/2000/svg">
<path fill-rule="evenodd" clip-rule="evenodd" d="M16.4998 9C16.4998 11.4853 14.4851 13.5 11.9998 13.5C9.51453 13.5 7.49981 11.4853 7.49981 9C7.49981 6.51472 9.51453 4.5 11.9998 4.5C14.4851 4.5 16.4998 6.51472 16.4998 9ZM15.4998 9C15.4998 10.933 13.9328 12.5 11.9998 12.5C10.0668 12.5 8.49981 10.933 8.49981 9C8.49981 7.067 10.0668 5.5 11.9998 5.5C13.9328 5.5 15.4998 7.067 15.4998 9Z" fill="black"/>
<path fill-rule="evenodd" clip-rule="evenodd" d="M3.23005 20.1908C1.22638 18.0463 0 15.1664 0 12C0 5.37258 5.37258 0 12 0C18.6274 0 24 5.37258 24 12C24 18.6274 18.6274 24 12 24C8.91436 24 6.10074 22.8354 3.97471 20.9217C3.97473 20.9217 3.97469 20.9218 3.97471 20.9217C3.71606 20.6889 3.4676 20.445 3.23005 20.1908C3.23003 20.1908 3.23007 20.1907 3.23005 20.1908ZM19.5095 20.0379C17.5436 21.8753 14.9032 23 12 23C9.09673 23 6.45616 21.8752 4.49026 20.0377C6.10129 17.6046 8.86317 16 11.9998 16C15.1366 16 17.8985 17.6047 19.5095 20.0379ZM20.2224 19.3072C18.4169 16.7044 15.4074 15 11.9998 15C8.59232 15 5.58288 16.7043 3.77744 19.307C2.04961 17.3641 1 14.8046 1 12C1 5.92487 5.92487 1 12 1C18.0751 1 23 5.92487 23 12C23 14.8047 21.9503 17.3643 20.2224 19.3072Z" fill="black"/>
</svg>
