<svg width="24" height="24" viewBox="0 0 24 24" fill="none" xmlns="http://www.w3.org/2000/svg">
<path d="M11.9998 15C11.7124 15 11.4278 15.0121 11.1465 15.0359C11.5318 15.6893 11.8003 16.4207 11.9241 17.202C12.0008 17.6861 12.0004 18.2253 12.0001 18.8626V19.1374C12.0004 19.7747 12.0008 20.3139 11.9241 20.798C11.737 21.9795 11.2187 23.0469 10.4665 23.9029C10.9686 23.967 11.4805 24 12 24C18.6274 24 24 18.6274 24 12C24 5.37258 18.6274 0 12 0C5.37258 0 0 5.37258 0 12C0 12.5195 0.0330155 13.0314 0.0970629 13.5335C0.780702 12.9328 1.59907 12.4813 2.50269 12.2285C2.5009 12.1526 2.5 12.0764 2.5 12C2.5 6.75329 6.75329 2.5 12 2.5C17.2467 2.5 21.5 6.75329 21.5 12C21.5 14.334 20.6583 16.4714 19.2619 18.1252C17.4393 16.2006 14.8598 15 11.9998 15Z" fill="black"/>
<path d="M11.9998 13.5C14.4851 13.5 16.4998 11.4853 16.4998 9C16.4998 6.51472 14.4851 4.5 11.9998 4.5C9.51453 4.5 7.49981 6.51472 7.49981 9C7.49981 11.4853 9.51453 13.5 11.9998 13.5Z" fill="black"/>
<path fill-rule="evenodd" clip-rule="evenodd" d="M0 19C0 18.2258 0 17.8387 0.0512986 17.5149C0.33368 15.732 1.73197 14.3337 3.51486 14.0513C3.83874 14 4.22583 14 5 14C5.77417 14 6.16126 14 6.48514 14.0513C8.26803 14.3337 9.66632 15.732 9.9487 17.5149C10 17.8387 10 18.2258 10 19C10 19.7742 10 20.1613 9.9487 20.4851C9.66632 22.268 8.26803 23.6663 6.48514 23.9487C6.16126 24 5.77417 24 5 24C4.22583 24 3.83874 24 3.51486 23.9487C1.73197 23.6663 0.33368 22.268 0.0512986 20.4851C0 20.1613 0 19.7742 0 19ZM7.74951 19C7.74951 18.5858 7.41373 18.25 6.99951 18.25H2.99964C2.58543 18.25 2.24964 18.5858 2.24964 19C2.24964 19.4142 2.58543 19.75 2.99964 19.75H6.99951C7.41373 19.75 7.74951 19.4142 7.74951 19Z" fill="black"/>
</svg>
