<svg width="24" height="24" viewBox="0 0 24 24" fill="none" xmlns="http://www.w3.org/2000/svg">
<path fill-rule="evenodd" clip-rule="evenodd" d="M12 24C18.6274 24 24 18.6274 24 12C24 5.37258 18.6274 0 12 0C5.37258 0 0 5.37258 0 12C0 18.6274 5.37258 24 12 24ZM12.0002 21.5C14.9129 21.5 17.5194 20.1892 19.2621 18.1252C17.4395 16.2006 14.8599 15 12 15C9.14014 15 6.56069 16.2005 4.73808 18.125C6.48072 20.1891 9.08735 21.5 12.0002 21.5ZM16.5 9C16.5 11.4853 14.4853 13.5 12 13.5C9.5147 13.5 7.49998 11.4853 7.49998 9C7.49998 6.51472 9.5147 4.5 12 4.5C14.4853 4.5 16.5 6.51472 16.5 9Z" fill="black"/>
</svg>
