<svg width="24" height="24" viewBox="0 0 24 24" fill="none" xmlns="http://www.w3.org/2000/svg">
<path fill-rule="evenodd" clip-rule="evenodd" d="M16.4998 9C16.4998 11.4853 14.4851 13.5 11.9998 13.5C9.51453 13.5 7.49981 11.4853 7.49981 9C7.49981 6.51472 9.51453 4.5 11.9998 4.5C14.4851 4.5 16.4998 6.51472 16.4998 9ZM14.9998 9C14.9998 10.6569 13.6567 12 11.9998 12C10.343 12 8.99981 10.6569 8.99981 9C8.99981 7.34315 10.343 6 11.9998 6C13.6567 6 14.9998 7.34315 14.9998 9Z" fill="black"/>
<path fill-rule="evenodd" clip-rule="evenodd" d="M3.23005 20.1908C1.22638 18.0463 0 15.1664 0 12C0 5.37258 5.37258 0 12 0C18.6274 0 24 5.37258 24 12C24 18.6274 18.6274 24 12 24C9.09982 24 6.43993 22.9712 4.36541 21.2586C4.36543 21.2585 4.36539 21.2586 4.36541 21.2586C3.96423 20.9274 3.58495 20.5706 3.23005 20.1908C3.23003 20.1908 3.23007 20.1907 3.23005 20.1908ZM18.8461 19.9614C17.0079 21.5436 14.6156 22.5 12 22.5C9.38426 22.5 6.99191 21.5435 5.15363 19.9612C6.70133 17.8619 9.19153 16.5 11.9998 16.5C14.8082 16.5 17.2985 17.862 18.8461 19.9614ZM19.9199 18.8941C18.0912 16.5255 15.2237 15 11.9998 15C8.77608 15 5.90863 16.5254 4.07991 18.8939C2.47307 17.0494 1.5 14.6383 1.5 12C1.5 6.20101 6.20101 1.5 12 1.5C17.799 1.5 22.5 6.20101 22.5 12C22.5 14.6384 21.5268 17.0496 19.9199 18.8941Z" fill="black"/>
</svg>
