<svg width="24" height="24" viewBox="0 0 24 24" fill="none" xmlns="http://www.w3.org/2000/svg">
<path d="M12 15C15.7785 15.0001 19.0669 17.0961 20.7676 20.1885C20.6481 20.3163 20.5263 20.4419 20.4014 20.5645C18.8081 17.5528 15.6443 15.5001 12 15.5C8.35553 15.5 5.19093 17.5526 3.59766 20.5645C3.47278 20.4419 3.35089 20.3163 3.23145 20.1885C4.93209 17.0959 8.22133 15 12 15Z" fill="black"/>
<path fill-rule="evenodd" clip-rule="evenodd" d="M12 4.5C14.4852 4.5001 16.5 6.51478 16.5 9C16.5 11.4852 14.4852 13.4999 12 13.5C9.51472 13.5 7.5 11.4853 7.5 9C7.5 6.51472 9.51472 4.5 12 4.5ZM12 5C9.79086 5 8 6.79086 8 9C8 11.2091 9.79086 13 12 13C14.2091 12.9999 16 11.2091 16 9C16 6.79092 14.2091 5.0001 12 5Z" fill="black"/>
</svg>
