<svg width="24" height="24" viewBox="0 0 24 24" fill="none" xmlns="http://www.w3.org/2000/svg">
<path fill-rule="evenodd" clip-rule="evenodd" d="M16.4998 9C16.4998 11.4853 14.4851 13.5 11.9998 13.5C9.51453 13.5 7.49981 11.4853 7.49981 9C7.49981 6.51472 9.51453 4.5 11.9998 4.5C14.4851 4.5 16.4998 6.51472 16.4998 9ZM15.9998 9C15.9998 11.2091 14.209 13 11.9998 13C9.79068 13 7.99981 11.2091 7.99981 9C7.99981 6.79086 9.79068 5 11.9998 5C14.209 5 15.9998 6.79086 15.9998 9Z" fill="black"/>
<path fill-rule="evenodd" clip-rule="evenodd" d="M3.23005 20.1908C1.22638 18.0463 0 15.1664 0 12C0 5.37258 5.37258 0 12 0C18.6274 0 24 5.37258 24 12C24 18.6274 18.6274 24 12 24C8.72744 24 5.76085 22.69 3.596 20.5658C3.59602 20.5658 3.59598 20.5658 3.596 20.5658C3.47133 20.4435 3.34931 20.3184 3.23005 20.1908C3.23003 20.1908 3.23007 20.1907 3.23005 20.1908ZM20.149 20.1145C18.0665 22.2057 15.1844 23.5 12 23.5C8.81547 23.5 5.93326 22.2056 3.8508 20.1142C5.51185 17.3497 8.53982 15.5 11.9998 15.5C15.4599 15.5 18.488 17.3498 20.149 20.1145ZM20.506 19.7395C18.7429 16.8947 15.5926 15 11.9998 15C8.40708 15 5.25687 16.8946 3.4938 19.7393C1.63388 17.6962 0.5 14.9805 0.5 12C0.5 5.64873 5.64873 0.5 12 0.5C18.3513 0.5 23.5 5.64873 23.5 12C23.5 14.9806 22.366 17.6964 20.506 19.7395Z" fill="black"/>
</svg>
