<svg width="24" height="24" viewBox="0 0 24 24" fill="none" xmlns="http://www.w3.org/2000/svg">
<path d="M19.5095 20.0379C17.5436 21.8753 14.9032 23 12 23C11.3327 23 10.6793 22.9406 10.0447 22.8267C9.82019 23.1424 9.56111 23.4315 9.27286 23.6888C10.149 23.8924 11.0619 24 12 24C18.6274 24 24 18.6274 24 12C24 5.37258 18.6274 0 12 0C5.37258 0 0 5.37258 0 12C0 12.9381 0.10764 13.851 0.311243 14.7271C0.568469 14.4389 0.857606 14.1798 1.17326 13.9553C1.05942 13.3208 1 12.6673 1 12C1 5.92487 5.92487 1 12 1C18.0751 1 23 5.92487 23 12C23 14.8047 21.9503 17.3643 20.2224 19.3072C18.4169 16.7044 15.4074 15 11.9998 15C11.3346 15 10.6846 15.0649 10.0557 15.1889C10.2585 15.4762 10.4328 15.7854 10.5744 16.1122C11.0387 16.0384 11.5148 16 11.9998 16C15.1366 16 17.8985 17.6047 19.5095 20.0379Z" fill="black"/>
<path fill-rule="evenodd" clip-rule="evenodd" d="M16.4998 9C16.4998 11.4853 14.4851 13.5 11.9998 13.5C9.51453 13.5 7.49981 11.4853 7.49981 9C7.49981 6.51472 9.51453 4.5 11.9998 4.5C14.4851 4.5 16.4998 6.51472 16.4998 9ZM15.4998 9C15.4998 10.933 13.9328 12.5 11.9998 12.5C10.0668 12.5 8.49981 10.933 8.49981 9C8.49981 7.067 10.0668 5.5 11.9998 5.5C13.9328 5.5 15.4998 7.067 15.4998 9Z" fill="black"/>
<path d="M5.5 17C5.5 16.7239 5.27614 16.5 5 16.5C4.72386 16.5 4.5 16.7239 4.5 17V18.5H2.99964C2.7235 18.5 2.49964 18.7239 2.49964 19C2.49964 19.2761 2.7235 19.5 2.99964 19.5H4.5V20.9999C4.5 21.276 4.72386 21.4999 5 21.4999C5.27614 21.4999 5.5 21.276 5.5 20.9999V19.5H6.99951C7.27565 19.5 7.49951 19.2761 7.49951 19C7.49951 18.7239 7.27565 18.5 6.99951 18.5H5.5V17Z" fill="black"/>
<path fill-rule="evenodd" clip-rule="evenodd" d="M0.0512986 17.5149C0 17.8387 0 18.2258 0 19C0 19.7742 0 20.1613 0.0512986 20.4851C0.33368 22.268 1.73197 23.6663 3.51486 23.9487C3.83874 24 4.22583 24 5 24C5.77417 24 6.16126 24 6.48514 23.9487C8.26803 23.6663 9.66632 22.268 9.9487 20.4851C10 20.1613 10 19.7742 10 19C10 18.2258 10 17.8387 9.9487 17.5149C9.66632 15.732 8.26803 14.3337 6.48514 14.0513C6.16126 14 5.77417 14 5 14C4.22583 14 3.83874 14 3.51486 14.0513C1.73197 14.3337 0.33368 15.732 0.0512986 17.5149ZM3.67129 22.961C3.89785 22.9969 4.18761 23 5 23C5.81239 23 6.10215 22.9969 6.32871 22.961C7.6837 22.7464 8.7464 21.6837 8.96101 20.3287C8.9969 20.1021 9 19.8124 9 19C9 18.1876 8.9969 17.8979 8.96101 17.6713C8.7464 16.3163 7.6837 15.2536 6.32871 15.039C6.10215 15.0031 5.81239 15 5 15C4.18761 15 3.89785 15.0031 3.67129 15.039C2.3163 15.2536 1.2536 16.3163 1.03899 17.6713C1.0031 17.8979 1 18.1876 1 19C1 19.8124 1.0031 20.1021 1.03899 20.3287C1.2536 21.6837 2.3163 22.7464 3.67129 22.961Z" fill="black"/>
</svg>
