<svg width="24" height="24" viewBox="0 0 24 24" fill="none" xmlns="http://www.w3.org/2000/svg">
<path fill-rule="evenodd" clip-rule="evenodd" d="M12 24C18.6274 24 24 18.6274 24 12C24 5.37258 18.6274 0 12 0C5.37258 0 0 5.37258 0 12C0 18.6274 5.37258 24 12 24ZM12.0002 22.5C15.1607 22.5 17.9951 21.1036 19.9201 18.8941C18.0913 16.5255 15.2238 15 12 15C8.77625 15 5.9088 16.5254 4.08008 18.8939C6.00503 21.1035 8.83951 22.5 12.0002 22.5ZM16.5 9C16.5 11.4853 14.4853 13.5 12 13.5C9.5147 13.5 7.49998 11.4853 7.49998 9C7.49998 6.51472 9.5147 4.5 12 4.5C14.4853 4.5 16.5 6.51472 16.5 9Z" fill="black"/>
</svg>
