<svg width="24" height="24" viewBox="0 0 24 24" fill="none" xmlns="http://www.w3.org/2000/svg">
<path d="M11.9998 13.5C14.4851 13.5 16.4998 11.4853 16.4998 9C16.4998 6.51472 14.4851 4.5 11.9998 4.5C9.51453 4.5 7.49981 6.51472 7.49981 9C7.49981 11.4853 9.51453 13.5 11.9998 13.5Z" fill="black"/>
<path fill-rule="evenodd" clip-rule="evenodd" d="M3.23005 20.1908C5.42017 22.5348 8.53897 24 12 24C18.6274 24 24 18.6274 24 12C24 5.37258 18.6274 0 12 0C5.37258 0 0 5.37258 0 12C0 15.1664 1.22638 18.0463 3.23005 20.1908ZM4.40032 18.4999C6.2344 16.3576 8.95856 15 11.9998 15C15.0412 15 17.7654 16.3577 19.5995 18.5001C21.0961 16.7521 22 14.4816 22 12C22 6.47715 17.5228 2 12 2C6.47715 2 2 6.47715 2 12C2 14.4815 2.90386 16.7519 4.40032 18.4999Z" fill="black"/>
</svg>
