<svg width="24" height="24" viewBox="0 0 24 24" fill="none" xmlns="http://www.w3.org/2000/svg">
<path d="M18.8461 19.9614C17.0079 21.5436 14.6156 22.5 12 22.5C11.7993 22.5 11.6 22.4944 11.4021 22.4833C11.1558 23.0007 10.84 23.4778 10.4665 23.9029C10.9686 23.967 11.4805 24 12 24C18.6274 24 24 18.6274 24 12C24 5.37258 18.6274 0 12 0C5.37258 0 0 5.37258 0 12C0 12.5195 0.0330155 13.0314 0.0970629 13.5335C0.522159 13.16 0.999349 12.8442 1.51674 12.5979C1.50563 12.4 1.5 12.2007 1.5 12C1.5 6.20101 6.20101 1.5 12 1.5C17.799 1.5 22.5 6.20101 22.5 12C22.5 14.6384 21.5268 17.0496 19.9199 18.8941C18.0912 16.5255 15.2237 15 11.9998 15C11.7124 15 11.4278 15.0121 11.1465 15.0359C11.4145 15.4903 11.626 15.9825 11.7716 16.503C11.8474 16.501 11.9235 16.5 11.9998 16.5C14.8082 16.5 17.2985 17.862 18.8461 19.9614Z" fill="black"/>
<path fill-rule="evenodd" clip-rule="evenodd" d="M16.4998 9C16.4998 11.4853 14.4851 13.5 11.9998 13.5C9.51453 13.5 7.49981 11.4853 7.49981 9C7.49981 6.51472 9.51453 4.5 11.9998 4.5C14.4851 4.5 16.4998 6.51472 16.4998 9ZM14.9998 9C14.9998 10.6569 13.6567 12 11.9998 12C10.343 12 8.99981 10.6569 8.99981 9C8.99981 7.34315 10.343 6 11.9998 6C13.6567 6 14.9998 7.34315 14.9998 9Z" fill="black"/>
<path d="M5.75 17C5.75 16.5858 5.41421 16.25 5 16.25C4.58579 16.25 4.25 16.5858 4.25 17V18.25H2.99964C2.58543 18.25 2.24964 18.5858 2.24964 19C2.24964 19.4142 2.58543 19.75 2.99964 19.75H4.25V20.9999C4.25 21.4141 4.58579 21.7499 5 21.7499C5.41421 21.7499 5.75 21.4141 5.75 20.9999V19.75H6.99951C7.41373 19.75 7.74951 19.4142 7.74951 19C7.74951 18.5858 7.41373 18.25 6.99951 18.25H5.75V17Z" fill="black"/>
<path fill-rule="evenodd" clip-rule="evenodd" d="M0.0512986 17.5149C0 17.8387 0 18.2258 0 19C0 19.7742 0 20.1613 0.0512986 20.4851C0.33368 22.268 1.73197 23.6663 3.51486 23.9487C3.83874 24 4.22583 24 5 24C5.77417 24 6.16126 24 6.48514 23.9487C8.26803 23.6663 9.66632 22.268 9.9487 20.4851C10 20.1613 10 19.7742 10 19C10 18.2258 10 17.8387 9.9487 17.5149C9.66632 15.732 8.26803 14.3337 6.48514 14.0513C6.16126 14 5.77417 14 5 14C4.22583 14 3.83874 14 3.51486 14.0513C1.73197 14.3337 0.33368 15.732 0.0512986 17.5149ZM3.74951 22.4672C3.9274 22.4953 4.16851 22.5 5 22.5C5.83149 22.5 6.0726 22.4953 6.25049 22.4672C7.39154 22.2864 8.28644 21.3915 8.46717 20.2505C8.49535 20.0726 8.5 19.8315 8.5 19C8.5 18.1685 8.49535 17.9274 8.46717 17.7495C8.28644 16.6085 7.39154 15.7136 6.25049 15.5328C6.0726 15.5047 5.83149 15.5 5 15.5C4.16851 15.5 3.9274 15.5047 3.74951 15.5328C2.60846 15.7136 1.71356 16.6085 1.53283 17.7495C1.50466 17.9274 1.5 18.1685 1.5 19C1.5 19.8315 1.50466 20.0726 1.53283 20.2505C1.71356 21.3915 2.60846 22.2864 3.74951 22.4672Z" fill="black"/>
</svg>
