<svg width="24" height="24" viewBox="0 0 24 24" fill="none" xmlns="http://www.w3.org/2000/svg">
<path d="M11.9998 15C11.5238 15 11.0555 15.0333 10.5972 15.0976C11.0149 15.7454 11.3042 16.4847 11.4302 17.2802C11.5005 17.7236 11.5003 18.2232 11.5 18.8805V19.1195C11.5003 19.7768 11.5005 20.2764 11.4302 20.7198C11.2404 21.9181 10.68 22.9886 9.86898 23.8114C10.5606 23.9353 11.2727 24 12 24C18.6274 24 24 18.6274 24 12C24 5.37258 18.6274 0 12 0C5.37258 0 0 5.37258 0 12C0 12.7273 0.0646961 13.4394 0.188647 14.131C0.591299 13.7341 1.0533 13.3972 1.56057 13.1344C1.52054 12.7618 1.5 12.3833 1.5 12C1.5 6.20101 6.20101 1.5 12 1.5C17.799 1.5 22.5 6.20101 22.5 12C22.5 14.6384 21.5268 17.0496 19.9199 18.8941C18.0912 16.5255 15.2236 15 11.9998 15Z" fill="black"/>
<path d="M11.9998 13.5C14.4851 13.5 16.4998 11.4853 16.4998 9C16.4998 6.51472 14.4851 4.5 11.9998 4.5C9.51453 4.5 7.49981 6.51472 7.49981 9C7.49981 11.4853 9.51453 13.5 11.9998 13.5Z" fill="black"/>
<path fill-rule="evenodd" clip-rule="evenodd" d="M0 19C0 18.2258 0 17.8387 0.0512986 17.5149C0.33368 15.732 1.73197 14.3337 3.51486 14.0513C3.83874 14 4.22583 14 5 14C5.77417 14 6.16126 14 6.48514 14.0513C8.26803 14.3337 9.66632 15.732 9.9487 17.5149C10 17.8387 10 18.2258 10 19C10 19.7742 10 20.1613 9.9487 20.4851C9.66632 22.268 8.26803 23.6663 6.48514 23.9487C6.16126 24 5.77417 24 5 24C4.22583 24 3.83874 24 3.51486 23.9487C1.73197 23.6663 0.33368 22.268 0.0512986 20.4851C0 20.1613 0 19.7742 0 19ZM7.49951 19C7.49951 18.7239 7.27565 18.5 6.99951 18.5H2.99964C2.7235 18.5 2.49964 18.7239 2.49964 19C2.49964 19.2761 2.7235 19.5 2.99964 19.5H6.99951C7.27565 19.5 7.49951 19.2761 7.49951 19Z" fill="black"/>
</svg>
