<svg width="24" height="24" viewBox="0 0 24 24" fill="none" xmlns="http://www.w3.org/2000/svg">
<path d="M11.9998 13.5C14.4851 13.5 16.4998 11.4853 16.4998 9C16.4998 6.51472 14.4851 4.5 11.9998 4.5C9.51453 4.5 7.49981 6.51472 7.49981 9C7.49981 11.4853 9.51453 13.5 11.9998 13.5Z" fill="black"/>
<path fill-rule="evenodd" clip-rule="evenodd" d="M3.23005 20.1908C5.42017 22.5348 8.53897 24 12 24C18.6274 24 24 18.6274 24 12C24 5.37258 18.6274 0 12 0C5.37258 0 0 5.37258 0 12C0 15.1664 1.22638 18.0463 3.23005 20.1908ZM4.73791 18.125C6.56052 16.2005 9.13997 15 11.9998 15C14.8598 15 17.4393 16.2006 19.2619 18.1252C20.6583 16.4714 21.5 14.334 21.5 12C21.5 6.75329 17.2467 2.5 12 2.5C6.75329 2.5 2.5 6.75329 2.5 12C2.5 14.3339 3.34162 16.4712 4.73791 18.125Z" fill="black"/>
</svg>
