<svg width="24" height="24" viewBox="0 0 24 24" fill="none" xmlns="http://www.w3.org/2000/svg">
<path d="M20.149 20.1145C18.0665 22.2057 15.1844 23.5 12 23.5C11.2097 23.5 10.4381 23.4203 9.69267 23.2685C9.5609 23.4165 9.42071 23.5568 9.27286 23.6888C10.149 23.8924 11.0619 24 12 24C18.6274 24 24 18.6274 24 12C24 5.37258 18.6274 0 12 0C5.37258 0 0 5.37258 0 12C0 12.9381 0.10764 13.851 0.311243 14.7271C0.443186 14.5793 0.583523 14.4391 0.731532 14.3073C0.579711 13.5619 0.5 12.7903 0.5 12C0.5 5.64873 5.64873 0.5 12 0.5C18.3513 0.5 23.5 5.64873 23.5 12C23.5 14.9806 22.366 17.6964 20.506 19.7395C18.7429 16.8947 15.5926 15 11.9998 15C11.3346 15 10.6846 15.0649 10.0557 15.1889C10.159 15.3351 10.2548 15.487 10.3427 15.644C10.8808 15.5494 11.4345 15.5 11.9998 15.5C15.4599 15.5 18.488 17.3498 20.149 20.1145Z" fill="black"/>
<path fill-rule="evenodd" clip-rule="evenodd" d="M16.4998 9C16.4998 11.4853 14.4851 13.5 11.9998 13.5C9.51453 13.5 7.49981 11.4853 7.49981 9C7.49981 6.51472 9.51453 4.5 11.9998 4.5C14.4851 4.5 16.4998 6.51472 16.4998 9ZM15.9998 9C15.9998 11.2091 14.209 13 11.9998 13C9.79068 13 7.99981 11.2091 7.99981 9C7.99981 6.79086 9.79068 5 11.9998 5C14.209 5 15.9998 6.79086 15.9998 9Z" fill="black"/>
<path d="M5.25 17C5.25 16.8619 5.13807 16.75 5 16.75C4.86193 16.75 4.75 16.8619 4.75 17V18.75H2.99964C2.86157 18.75 2.74964 18.8619 2.74964 19C2.74964 19.1381 2.86157 19.25 2.99964 19.25H4.75V20.9999C4.75 21.1379 4.86193 21.2499 5 21.2499C5.13807 21.2499 5.25 21.1379 5.25 20.9999V19.25H6.99951C7.13758 19.25 7.24951 19.1381 7.24951 19C7.24951 18.8619 7.13758 18.75 6.99951 18.75H5.25V17Z" fill="black"/>
<path fill-rule="evenodd" clip-rule="evenodd" d="M0.0512986 17.5149C0 17.8387 0 18.2258 0 19C0 19.7742 0 20.1613 0.0512986 20.4851C0.33368 22.268 1.73197 23.6663 3.51486 23.9487C3.83874 24 4.22583 24 5 24C5.77417 24 6.16126 24 6.48514 23.9487C8.26803 23.6663 9.66632 22.268 9.9487 20.4851C10 20.1613 10 19.7742 10 19C10 18.2258 10 17.8387 9.9487 17.5149C9.66632 15.732 8.26803 14.3337 6.48514 14.0513C6.16126 14 5.77417 14 5 14C4.22583 14 3.83874 14 3.51486 14.0513C1.73197 14.3337 0.33368 15.732 0.0512986 17.5149ZM3.59307 23.4549C3.8683 23.4984 4.20672 23.5 5 23.5C5.79328 23.5 6.1317 23.4984 6.40693 23.4549C7.97587 23.2064 9.20636 21.9759 9.45486 20.4069C9.49845 20.1317 9.5 19.7933 9.5 19C9.5 18.2067 9.49845 17.8683 9.45486 17.5931C9.20636 16.0241 7.97587 14.7936 6.40693 14.5451C6.1317 14.5016 5.79328 14.5 5 14.5C4.20672 14.5 3.8683 14.5016 3.59307 14.5451C2.02413 14.7936 0.793638 16.0241 0.545143 17.5931C0.501552 17.8683 0.5 18.2067 0.5 19C0.5 19.7933 0.501552 20.1317 0.545143 20.4069C0.793638 21.9759 2.02413 23.2064 3.59307 23.4549Z" fill="black"/>
</svg>
