<svg width="24" height="24" viewBox="0 0 24 24" fill="none" xmlns="http://www.w3.org/2000/svg">
<path d="M5 16.5C5.27598 16.5002 5.5 16.724 5.5 17V18.5H7C7.27592 18.5003 7.5 18.724 7.5 19C7.5 19.276 7.27592 19.4997 7 19.5H5.5V21C5.49977 21.2758 5.27584 21.4998 5 21.5C4.72416 21.4998 4.50023 21.2758 4.5 21V19.5H3C2.72399 19.4998 2.5 19.276 2.5 19C2.5 18.724 2.72399 18.5002 3 18.5H4.5V17C4.5 16.724 4.72402 16.5002 5 16.5Z" fill="black"/>
<path fill-rule="evenodd" clip-rule="evenodd" d="M5 14C5.77417 14 6.16147 14.0005 6.48535 14.0518C8.26802 14.3342 9.66578 15.732 9.94824 17.5146C9.99954 17.8385 10 18.2258 10 19C10 19.7742 9.99954 20.1615 9.94824 20.4854L9.88281 20.8145C9.49009 22.4382 8.15677 23.6834 6.48535 23.9482L6.22559 23.9785C5.94375 24.0002 5.5808 24 5 24C4.22583 24 3.83853 23.9995 3.51465 23.9482C1.84323 23.6834 0.509909 22.4382 0.117188 20.8145L0.0517579 20.4854C0.000459258 20.1615 4.5562e-08 19.7742 4.5562e-08 19C4.5562e-08 18.4192 -0.000176689 18.0562 0.0214844 17.7744L0.0517579 17.5146C0.316598 15.8432 1.5618 14.5099 3.18555 14.1172L3.51465 14.0518C3.83853 14.0005 4.22583 14 5 14ZM5 15C4.18761 15 3.89746 15.0032 3.6709 15.0391C2.31623 15.2538 1.2538 16.3162 1.03906 17.6709C1.00318 17.8975 1 18.1876 1 19C1 19.8124 1.00318 20.1025 1.03906 20.3291C1.2538 21.6838 2.31623 22.7462 3.6709 22.9609C3.89746 22.9968 4.18761 23 5 23C5.81238 23 6.10254 22.9968 6.3291 22.9609C7.68377 22.7462 8.74621 21.6838 8.96094 20.3291C8.99682 20.1025 9 19.8124 9 19C9 18.1876 8.99682 17.8975 8.96094 17.6709C8.74621 16.3162 7.68377 15.2538 6.3291 15.0391C6.10254 15.0032 5.81238 15 5 15Z" fill="black"/>
<path d="M12 15C15.7794 15.0001 19.0692 17.0967 20.7695 20.1904C20.532 20.4446 20.284 20.6891 20.0254 20.9219C18.5381 18.0009 15.5025 16.0001 12 16C11.5149 16 11.0385 16.0384 10.5742 16.1123C10.4326 15.7854 10.2584 15.4758 10.0557 15.1885C10.6846 15.0646 11.3348 15 12 15Z" fill="black"/>
<path fill-rule="evenodd" clip-rule="evenodd" d="M12 4.5C14.4852 4.5001 16.5 6.51478 16.5 9C16.5 11.4852 14.4852 13.4999 12 13.5C9.51472 13.5 7.5 11.4853 7.5 9C7.5 6.51472 9.51472 4.5 12 4.5ZM12 5.5C10.067 5.5 8.5 7.067 8.5 9C8.5 10.933 10.067 12.5 12 12.5C13.9329 12.4999 15.5 10.9329 15.5 9C15.5 7.06707 13.9329 5.5001 12 5.5Z" fill="black"/>
</svg>
