<svg width="24" height="24" viewBox="0 0 24 24" fill="none" xmlns="http://www.w3.org/2000/svg">
<path d="M11.9998 13.5C14.4851 13.5 16.4998 11.4853 16.4998 9C16.4998 6.51472 14.4851 4.5 11.9998 4.5C9.51453 4.5 7.49981 6.51472 7.49981 9C7.49981 11.4853 9.51453 13.5 11.9998 13.5Z" fill="black"/>
<path fill-rule="evenodd" clip-rule="evenodd" d="M3.23005 20.1908C5.42017 22.5348 8.53897 24 12 24C18.6274 24 24 18.6274 24 12C24 5.37258 18.6274 0 12 0C5.37258 0 0 5.37258 0 12C0 15.1664 1.22638 18.0463 3.23005 20.1908ZM3.4938 19.7393C5.25687 16.8946 8.40708 15 11.9998 15C15.5926 15 18.7429 16.8947 20.506 19.7395C22.366 17.6964 23.5 14.9806 23.5 12C23.5 5.64873 18.3513 0.5 12 0.5C5.64873 0.5 0.5 5.64873 0.5 12C0.5 14.9805 1.63388 17.6962 3.4938 19.7393Z" fill="black"/>
</svg>
