<svg width="24" height="24" viewBox="0 0 24 24" fill="none" xmlns="http://www.w3.org/2000/svg">
<path d="M11.9998 15C11.3346 15 10.6846 15.0649 10.0557 15.1889C10.5018 15.821 10.8097 16.5585 10.9364 17.3584C11.0002 17.7614 11.0001 18.2223 11 18.906V19.0939C11.0001 19.7777 11.0002 20.2386 10.9364 20.6416C10.7452 21.8487 10.1415 22.9136 9.27286 23.6888C10.149 23.8924 11.0619 24 12 24C18.6274 24 24 18.6274 24 12C24 5.37258 18.6274 0 12 0C5.37258 0 0 5.37258 0 12C0 12.9381 0.10764 13.851 0.311243 14.7271C0.568469 14.4389 0.857606 14.1798 1.17326 13.9553C1.05942 13.3208 1 12.6673 1 12C1 5.92487 5.92487 1 12 1C18.0751 1 23 5.92487 23 12C23 14.8047 21.9503 17.3643 20.2224 19.3072C18.4169 16.7044 15.4074 15 11.9998 15Z" fill="black"/>
<path d="M11.9998 13.5C14.4851 13.5 16.4998 11.4853 16.4998 9C16.4998 6.51472 14.4851 4.5 11.9998 4.5C9.51453 4.5 7.49981 6.51472 7.49981 9C7.49981 11.4853 9.51453 13.5 11.9998 13.5Z" fill="black"/>
<path fill-rule="evenodd" clip-rule="evenodd" d="M0 19C0 18.2258 0 17.8387 0.0512986 17.5149C0.33368 15.732 1.73197 14.3337 3.51486 14.0513C3.83874 14 4.22583 14 5 14C5.77417 14 6.16126 14 6.48514 14.0513C8.26803 14.3337 9.66632 15.732 9.9487 17.5149C10 17.8387 10 18.2258 10 19C10 19.7742 10 20.1613 9.9487 20.4851C9.66632 22.268 8.26803 23.6663 6.48514 23.9487C6.16126 24 5.77417 24 5 24C4.22583 24 3.83874 24 3.51486 23.9487C1.73197 23.6663 0.33368 22.268 0.0512986 20.4851C0 20.1613 0 19.7742 0 19ZM5.5 17C5.5 16.7239 5.27614 16.5 5 16.5C4.72386 16.5 4.5 16.7239 4.5 17V18.5H2.99964C2.7235 18.5 2.49964 18.7239 2.49964 19C2.49964 19.2761 2.7235 19.5 2.99964 19.5H4.5V20.9999C4.5 21.276 4.72386 21.4999 5 21.4999C5.27614 21.4999 5.5 21.276 5.5 20.9999V19.5H6.99951C7.27565 19.5 7.49951 19.2761 7.49951 19C7.49951 18.7239 7.27565 18.5 6.99951 18.5H5.5V17Z" fill="black"/>
</svg>
