<svg width="24" height="24" viewBox="0 0 24 24" fill="none" xmlns="http://www.w3.org/2000/svg">
<path d="M7.25018 11.9999C7.25018 9.37652 9.37682 7.24987 12.0002 7.24987C14.6235 7.24987 16.7502 9.37652 16.7502 11.9999C16.7502 14.6232 14.6235 16.7499 12.0002 16.7499C9.37682 16.7499 7.25018 14.6232 7.25018 11.9999Z" fill="black"/>
<path fill-rule="evenodd" clip-rule="evenodd" d="M11.3273 0.444905C11.7436 0.204565 12.2564 0.204561 12.6727 0.444905L21.6705 5.63979C22.0868 5.88013 22.3433 6.3243 22.3433 6.80499V17.1948C22.3433 17.6755 22.0868 18.1196 21.6705 18.36L12.6727 23.5549C12.2565 23.7952 11.7436 23.7952 11.3273 23.5549L2.32947 18.36C1.91318 18.1196 1.65674 17.6755 1.65674 17.1948V6.80499C1.65674 6.32431 1.91318 5.88014 2.32947 5.63979L11.3273 0.444905ZM12 2.94326L4.15674 7.47157V16.5282L12 21.0565L19.8433 16.5282V7.47157L12 2.94326Z" fill="black"/>
</svg>
