<svg width="24" height="24" viewBox="0 0 24 24" fill="none" xmlns="http://www.w3.org/2000/svg">
<path d="M6.74894 11.9999C6.74894 9.10042 9.09944 6.74991 11.9989 6.74991C14.8984 6.74991 17.2489 9.10042 17.2489 11.9999C17.2489 14.8994 14.8984 17.2499 11.9989 17.2499C9.09944 17.2499 6.74894 14.8994 6.74894 11.9999Z" fill="black"/>
<path fill-rule="evenodd" clip-rule="evenodd" d="M11.5739 0.379259C11.8369 0.227423 12.1609 0.22742 12.4239 0.379259L21.8502 5.82152C22.1132 5.97336 22.2752 6.25397 22.2752 6.55765V17.4422C22.2752 17.7458 22.1132 18.0265 21.8502 18.1783L12.4239 23.6206C12.1609 23.7724 11.8369 23.7724 11.5739 23.6206L2.14766 18.1783C1.88467 18.0265 1.72266 17.7459 1.72266 17.4422V6.55765C1.72266 6.25397 1.88466 5.97336 2.14766 5.82152L11.5739 0.379259ZM11.9989 1.86594L3.22266 6.93292V17.0669L11.9989 22.1339L20.7752 17.0669V6.93292L11.9989 1.86594Z" fill="black"/>
</svg>
