<svg width="24" height="24" viewBox="0 0 24 24" fill="none" xmlns="http://www.w3.org/2000/svg">
<path d="M6.74894 11.9999C6.74894 9.10042 9.09944 6.74991 11.9989 6.74991C14.8984 6.74991 17.2489 9.10042 17.2489 11.9999C17.2489 14.8994 14.8984 17.2499 11.9989 17.2499C9.09944 17.2499 6.74894 14.8994 6.74894 11.9999Z" fill="black"/>
<path fill-rule="evenodd" clip-rule="evenodd" d="M11.4489 0.162753C11.7893 -0.0337414 12.2086 -0.0337449 12.5489 0.162753L21.9752 5.60502C22.3156 5.80151 22.5252 6.16465 22.5252 6.55765V17.4422C22.5252 17.8352 22.3156 18.1983 21.9752 18.3948L12.5489 23.8371C12.2086 24.0336 11.7893 24.0336 11.4489 23.8371L2.02266 18.3948C1.68232 18.1983 1.47266 17.8352 1.47266 17.4422V6.55765C1.47266 6.16466 1.68231 5.80152 2.02266 5.60502L11.4489 0.162753ZM11.9989 2.15461L3.47266 7.07726V16.9226L11.9989 21.8452L20.5252 16.9226V7.07726L11.9989 2.15461Z" fill="black"/>
</svg>
