<svg width="24" height="24" viewBox="0 0 24 24" fill="none" xmlns="http://www.w3.org/2000/svg">
<path d="M7.24969 11.9999C7.24969 9.37652 9.37634 7.24987 11.9997 7.24987C14.623 7.24987 16.7497 9.37652 16.7497 11.9999C16.7497 14.6232 14.623 16.7499 11.9997 16.7499C9.37634 16.7499 7.24969 14.6232 7.24969 11.9999Z" fill="black"/>
<path fill-rule="evenodd" clip-rule="evenodd" d="M11.3268 0.444905C11.7431 0.204565 12.256 0.204561 12.6722 0.444905L21.6701 5.63979C22.0863 5.88013 22.3428 6.3243 22.3428 6.80499V17.1948C22.3428 17.6755 22.0863 18.1196 21.6701 18.36L12.6722 23.5549C12.256 23.7952 11.7431 23.7952 11.3268 23.5549L2.32898 18.36C1.9127 18.1196 1.65625 17.6755 1.65625 17.1948V6.80499C1.65625 6.32431 1.91269 5.88014 2.32898 5.63979L11.3268 0.444905ZM11.9995 2.94326L4.15625 7.47157V16.5282L11.9995 21.0565L19.8428 16.5282V7.47157L11.9995 2.94326Z" fill="black"/>
</svg>
