<svg width="24" height="24" viewBox="0 0 24 24" fill="none" xmlns="http://www.w3.org/2000/svg">
<path fill-rule="evenodd" clip-rule="evenodd" d="M11.9997 6.00015C8.68596 6.00015 5.99967 8.68645 5.99967 12.0002C5.99967 15.3139 8.68596 18.0002 11.9997 18.0002C15.3134 18.0002 17.9997 15.3139 17.9997 12.0002C17.9997 8.68645 15.3134 6.00015 11.9997 6.00015ZM7.99967 12.0002C7.99967 9.79102 9.79053 8.00015 11.9997 8.00015C14.2088 8.00015 15.9997 9.79102 15.9997 12.0002C15.9997 14.2093 14.2088 16.0002 11.9997 16.0002C9.79053 16.0002 7.99967 14.2093 7.99967 12.0002Z" fill="black"/>
<path fill-rule="evenodd" clip-rule="evenodd" d="M12.5497 0.162997C12.2093 -0.0335007 11.79 -0.0334973 11.4497 0.162997L2.02339 5.60526C1.68304 5.80176 1.47339 6.1649 1.47339 6.55789V17.4424C1.47339 17.8354 1.68305 18.1986 2.02339 18.395L11.4497 23.8373C11.79 24.0338 12.2093 24.0338 12.5497 23.8373L21.9759 18.395C22.3163 18.1985 22.5259 17.8354 22.5259 17.4424V6.55789C22.5259 6.16489 22.3163 5.80176 21.9759 5.60526L12.5497 0.162997ZM3.47339 7.07751L11.9997 2.15486L20.5259 7.07751V16.9228L11.9997 21.8455L3.47339 16.9228V7.07751Z" fill="black"/>
</svg>
