<svg width="24" height="24" viewBox="0 0 24 24" fill="none" xmlns="http://www.w3.org/2000/svg">
<path fill-rule="evenodd" clip-rule="evenodd" d="M11.9989 6.74991C9.09944 6.74991 6.74894 9.10042 6.74894 11.9999C6.74894 14.8994 9.09944 17.2499 11.9989 17.2499C14.8984 17.2499 17.2489 14.8994 17.2489 11.9999C17.2489 9.10042 14.8984 6.74991 11.9989 6.74991ZM7.24894 11.9999C7.24894 9.37656 9.37558 7.24991 11.9989 7.24991C14.6223 7.24991 16.7489 9.37656 16.7489 11.9999C16.7489 14.6233 14.6223 16.7499 11.9989 16.7499C9.37558 16.7499 7.24894 14.6233 7.24894 11.9999Z" fill="black"/>
<path fill-rule="evenodd" clip-rule="evenodd" d="M12.1739 0.812272C12.0656 0.74975 11.9322 0.749751 11.8239 0.812272L2.39766 6.25454C2.28937 6.31706 2.22266 6.4326 2.22266 6.55765V17.4422C2.22266 17.5672 2.28937 17.6828 2.39766 17.7453L11.8239 23.1875C11.9322 23.2501 12.0656 23.2501 12.1739 23.1875L21.6002 17.7453C21.7085 17.6828 21.7752 17.5672 21.7752 17.4422V6.55765C21.7752 6.4326 21.7085 6.31706 21.6002 6.25454L12.1739 0.812272ZM2.72266 6.64425L11.9989 1.28859L21.2752 6.64425V17.3556L11.9989 22.7112L2.72266 17.3556V6.64425Z" fill="black"/>
</svg>
