<svg width="24" height="24" viewBox="0 0 24 24" fill="none" xmlns="http://www.w3.org/2000/svg">
<path d="M6.74967 12.0002C6.74967 9.10066 9.10017 6.75015 11.9997 6.75015C14.8992 6.75015 17.2497 9.10066 17.2497 12.0002C17.2497 14.8996 14.8992 17.2502 11.9997 17.2502C9.10017 17.2502 6.74967 14.8996 6.74967 12.0002Z" fill="black"/>
<path fill-rule="evenodd" clip-rule="evenodd" d="M11.8247 0.812516C11.933 0.749995 12.0664 0.749994 12.1747 0.812516L21.6009 6.25478C21.7092 6.3173 21.7759 6.43285 21.7759 6.55789V17.4424C21.7759 17.5675 21.7092 17.683 21.6009 17.7455L12.1747 23.1878C12.0664 23.2503 11.933 23.2503 11.8247 23.1878L2.39839 17.7455C2.2901 17.683 2.22339 17.5675 2.22339 17.4424V6.55789C2.22339 6.43285 2.2901 6.3173 2.39839 6.25478L11.8247 0.812516ZM11.9997 1.28883L2.72339 6.64449V17.3558L11.9997 22.7115L21.2759 17.3558V6.64449L11.9997 1.28883Z" fill="black"/>
</svg>
