<svg width="24" height="24" viewBox="0 0 24 24" fill="none" xmlns="http://www.w3.org/2000/svg">
<path fill-rule="evenodd" clip-rule="evenodd" d="M11.9989 6.24991C8.8233 6.24991 6.24894 8.82427 6.24894 11.9999C6.24894 15.1755 8.8233 17.7499 11.9989 17.7499C15.1746 17.7499 17.7489 15.1755 17.7489 11.9999C17.7489 8.82427 15.1746 6.24991 11.9989 6.24991ZM7.74894 11.9999C7.74894 9.6527 9.65173 7.74991 11.9989 7.74991C14.3461 7.74991 16.2489 9.6527 16.2489 11.9999C16.2489 14.3471 14.3461 16.2499 11.9989 16.2499C9.65173 16.2499 7.74894 14.3471 7.74894 11.9999Z" fill="black"/>
<path fill-rule="evenodd" clip-rule="evenodd" d="M12.4239 0.379259C12.1609 0.22742 11.8369 0.227423 11.5739 0.379259L2.14766 5.82152C1.88466 5.97336 1.72266 6.25397 1.72266 6.55765V17.4422C1.72266 17.7459 1.88467 18.0265 2.14766 18.1783L11.5739 23.6206C11.8369 23.7724 12.1609 23.7724 12.4239 23.6206L21.8502 18.1783C22.1132 18.0265 22.2752 17.7458 22.2752 17.4422V6.55765C22.2752 6.25397 22.1132 5.97336 21.8502 5.82152L12.4239 0.379259ZM3.22266 6.93292L11.9989 1.86594L20.7752 6.93292V17.0669L11.9989 22.1339L3.22266 17.0669V6.93292Z" fill="black"/>
</svg>
