<svg width="24" height="24" viewBox="0 0 24 24" fill="none" xmlns="http://www.w3.org/2000/svg">
<path d="M22.9997 5C23.2759 5 23.4997 5.22386 23.4997 5.5C23.4997 5.77614 23.2759 6 22.9997 6H21.3697C21.2503 6 21.1349 6.0427 21.0443 6.12037L19.2926 7.6218L18.7871 7.25418C18.6771 7.17415 18.5643 7.09865 18.449 7.02778L20.3935 5.36112C20.6653 5.12809 21.0116 5 21.3697 5H22.9997Z" fill="black"/>
<path fill-rule="evenodd" clip-rule="evenodd" d="M12.1304 6.99993C11.6175 6.99993 11.1169 7.15771 10.6967 7.45187L6.36473 10.4844C6.31465 10.5194 6.25857 10.545 6.19926 10.5598L2.91124 11.3818C2.4137 11.5062 2.0142 11.8762 1.85202 12.3627L1.46436 13.5257C1.14059 14.497 1.86354 15.5 2.88738 15.5H4.54996C4.78171 16.6413 5.79039 17.5 6.9999 17.5C8.2094 17.5 9.21808 16.6413 9.44983 15.5H15.55C15.7817 16.6413 16.7904 17.5 17.9999 17.5C19.2094 17.5 20.2181 16.6413 20.4498 15.5L21.9132 15.5C22.2118 15.5 22.465 15.2805 22.5072 14.9849L22.9098 12.1668C22.9884 11.6168 22.7565 11.0684 22.3071 10.7416L18.346 7.86065C17.5769 7.30125 16.6503 6.99993 15.6992 6.99993H12.1304ZM11.2702 8.27109C11.5223 8.09459 11.8226 7.99993 12.1304 7.99993H15.6992C16.4389 7.99993 17.1596 8.23429 17.7578 8.66938L21.719 11.5503C21.8687 11.6592 21.946 11.842 21.9198 12.0254L21.5663 14.5L20.0999 14.5C19.7624 14.5 19.5131 14.77 19.498 15.0754C19.459 15.8686 18.803 16.5 17.9999 16.5C17.1968 16.5 16.5408 15.8686 16.5017 15.0754C16.4867 14.77 16.2374 14.5 15.8999 14.5H9.09989C8.76239 14.5 8.51308 14.77 8.49804 15.0754C8.45899 15.8686 7.80303 16.5 6.9999 16.5C6.19676 16.5 5.5408 15.8686 5.50175 15.0754C5.48671 14.77 5.2374 14.5 4.8999 14.5H2.88738C2.5461 14.5 2.30512 14.1657 2.41304 13.8419L2.8007 12.6789C2.85476 12.5168 2.98793 12.3934 3.15378 12.352L6.4418 11.53C6.61971 11.4855 6.78797 11.4088 6.93821 11.3036L11.2702 8.27109Z" fill="black"/>
</svg>
