<svg width="24" height="24" viewBox="0 0 24 24" fill="none" xmlns="http://www.w3.org/2000/svg">
<path d="M12.1305 7.24988C11.6688 7.24988 11.2183 7.39188 10.8401 7.65663L6.50815 10.6891C6.43303 10.7417 6.34891 10.7801 6.25995 10.8023L2.97193 11.6243C2.55731 11.728 2.22439 12.0363 2.08924 12.4417L1.70158 13.6047C1.43177 14.4141 2.03424 15.25 2.88743 15.25H4.7637C4.88815 16.3751 5.8418 17.25 6.99995 17.25C8.15809 17.25 9.11175 16.3751 9.2362 15.25H15.7637C15.8881 16.3751 16.8418 17.25 17.9999 17.25C19.1581 17.25 20.1118 16.3751 20.2362 15.25L21.9133 15.25C22.0875 15.25 22.2351 15.1219 22.2598 14.9495L22.6623 12.1314C22.7278 11.673 22.5346 11.216 22.1601 10.9437L18.199 8.06279C17.4726 7.53446 16.5975 7.24988 15.6992 7.24988H12.1305Z" fill="black"/>
</svg>
