<svg width="24" height="24" viewBox="0 0 24 24" fill="none" xmlns="http://www.w3.org/2000/svg">
<path d="M0.625 5.125C0.625 4.57272 1.07272 4.125 1.625 4.125H4.07011C4.66689 4.125 5.24398 4.33848 5.69709 4.72686L10.0815 8.48493L8.7788 9.39687C8.72871 9.43192 8.67263 9.4575 8.61333 9.47233L8.26259 9.56001L4.39551 6.24537C4.30489 6.1677 4.18947 6.125 4.07011 6.125H1.625C1.07272 6.125 0.625 5.67728 0.625 5.125Z" fill="black"/>
<path fill-rule="evenodd" clip-rule="evenodd" d="M17.886 4.87507C17.014 4.87507 16.1631 5.1433 15.4487 5.64336L9.20895 10.0113C9.08376 10.0989 8.94355 10.1629 8.79528 10.1999L3.86325 11.4329C3.28279 11.578 2.8167 12.0096 2.62749 12.5772L2.04601 14.3217C1.66828 15.4548 2.51172 16.6251 3.7062 16.6251H5.88269C6.01175 18.7177 7.74983 20.375 9.875 20.375C12.0002 20.375 13.7383 18.7177 13.8673 16.6251H22.2501V10H15.1724C14.1947 10 13.798 8.74146 14.5989 8.18078L16.2253 7.04232C16.7296 6.68934 17.3302 6.50001 17.9457 6.50001H22.2501V4.87507H17.886ZM9.875 14.375C8.77043 14.375 7.875 15.2705 7.875 16.375C7.875 17.4796 8.77043 18.375 9.875 18.375C10.9796 18.375 11.875 17.4796 11.875 16.375C11.875 15.2705 10.9796 14.375 9.875 14.375Z" fill="black"/>
</svg>
