<svg width="24" height="24" viewBox="0 0 24 24" fill="none" xmlns="http://www.w3.org/2000/svg">
<path d="M23.0007 4.49994C23.5529 4.49994 24.0007 4.94765 24.0007 5.49994C24.0007 6.05222 23.5529 6.49994 23.0007 6.49994H21.3706L20.2945 7.42233L19.2292 6.64757C19.0257 6.49956 18.8139 6.3651 18.5952 6.24464L20.069 4.98143C20.4315 4.67072 20.8932 4.49994 21.3706 4.49994H23.0007Z" fill="black"/>
<path fill-rule="evenodd" clip-rule="evenodd" d="M12.1243 6.37487L12.1217 6.37488C11.4871 6.37682 10.868 6.57195 10.347 6.93433L10.3448 6.93583L6.0261 9.95904L2.7543 10.777L2.75017 10.7781C2.05355 10.9559 1.49412 11.474 1.26335 12.1549L1.26197 12.159L0.875988 13.3169L0.868651 13.339L0.866012 13.3471C0.425571 14.7113 1.43463 16.1113 2.86812 16.1249L2.87661 16.1249L2.89995 16.125L4.08445 16.125C4.53612 17.2951 5.67142 18.125 7.00075 18.125C8.33007 18.125 9.46538 17.2951 9.91705 16.125H15.0844C15.5361 17.2951 16.6714 18.125 18.0007 18.125C19.3301 18.125 20.4654 17.2951 20.917 16.125L21.9574 16.125C22.5422 16.125 23.0379 15.695 23.1206 15.1162L23.5303 12.2482L23.531 12.2437C23.6369 11.4721 23.3123 10.7043 22.6849 10.2428L22.6719 10.2333L18.7036 7.34723L18.7014 7.34568C17.8324 6.71779 16.7883 6.37826 15.7162 6.37489L12.1243 6.37487ZM15.7091 8.62488L15.7103 8.62488C16.3113 8.62703 16.8966 8.81748 17.3837 9.16947L21.2913 12.0114L21.0251 13.875L20.0508 13.875C19.3906 13.875 18.8906 14.4067 18.8755 15.0224C18.8638 15.495 18.4765 15.875 18.0007 15.875C17.525 15.875 17.1377 15.495 17.126 15.0224C17.1109 14.4067 16.6109 13.875 15.9507 13.875H9.05075C8.39062 13.875 7.89063 14.4067 7.87547 15.0224C7.86384 15.495 7.4765 15.875 7.00075 15.875C6.52499 15.875 6.13765 15.495 6.12602 15.0224C6.11087 14.4067 5.61088 13.875 4.95075 13.875H3.06166L3.37278 12.9416L6.598 12.1353C6.8474 12.0725 7.08333 11.9649 7.2943 11.8178L11.6317 8.78152L11.6326 8.78086C11.7783 8.67981 11.9513 8.62541 12.1286 8.62487L15.7091 8.62488Z" fill="black"/>
</svg>
