<svg width="24" height="24" viewBox="0 0 24 24" fill="none" xmlns="http://www.w3.org/2000/svg">
<path d="M5.3717 5.10649L9.46263 8.613L8.63543 9.19206C8.62913 9.19647 8.62264 9.20058 8.61598 9.20438L4.72091 5.86574C4.53966 5.71039 4.30883 5.625 4.07011 5.625H1.625C1.34886 5.625 1.125 5.40114 1.125 5.125C1.125 4.84886 1.34886 4.625 1.625 4.625H4.07011C4.54754 4.625 5.00921 4.79578 5.3717 5.10649Z" fill="black"/>
<path fill-rule="evenodd" clip-rule="evenodd" d="M16.1371 6.07701C16.5573 5.78285 17.0578 5.62507 17.5708 5.62507H22.0001C22.2762 5.62507 22.5001 5.40121 22.5001 5.12507C22.5001 4.84893 22.2762 4.62507 22.0001 4.62507H17.5708C16.8526 4.62507 16.1519 4.84596 15.5636 5.25778L9.06561 9.80647C8.96546 9.87658 8.85329 9.92773 8.73467 9.95738L3.80265 11.1904C3.13926 11.3562 2.60659 11.8495 2.39035 12.4982L1.80887 14.2426C1.37717 15.5377 2.34111 16.8751 3.70623 16.8751H6.41045C6.65307 18.5712 8.11177 19.875 9.875 19.875C11.6382 19.875 13.0969 18.5712 13.3396 16.8751H22.0001C22.2762 16.8751 22.5001 16.6512 22.5001 16.3751C22.5001 16.0989 22.2762 15.8751 22.0001 15.8751H13.3396C13.097 14.1789 11.6382 12.875 9.875 12.875C8.11176 12.875 6.65305 14.1789 6.41044 15.8751H3.70623C3.02367 15.8751 2.5417 15.2064 2.75755 14.5588L3.33903 12.8144C3.44715 12.4901 3.71349 12.2434 4.04518 12.1605L8.97721 10.9275C9.21443 10.8682 9.43876 10.7659 9.63908 10.6257L16.1371 6.07701ZM9.875 13.875C8.49429 13.875 7.375 14.9943 7.375 16.375C7.375 17.7558 8.49429 18.875 9.875 18.875C11.2557 18.875 12.375 17.7558 12.375 16.375C12.375 14.9943 11.2557 13.875 9.875 13.875Z" fill="black"/>
</svg>
