<svg width="24" height="24" viewBox="0 0 24 24" fill="none" xmlns="http://www.w3.org/2000/svg">
<path d="M22.3809 2.125C22.657 2.125 22.8809 2.34886 22.8809 2.625C22.8809 2.90114 22.657 3.125 22.3809 3.125H19.9358C19.6971 3.125 19.4662 3.21039 19.285 3.36574L15.7346 6.40893L15.4007 6.16609C15.2323 6.04359 15.0588 5.92935 14.8809 5.82355L18.6342 2.60649C18.9967 2.29578 19.4583 2.125 19.9358 2.125H22.3809Z" fill="black"/>
<path fill-rule="evenodd" clip-rule="evenodd" d="M20.8993 16.7463C20.8887 16.8202 20.8254 16.8751 20.7508 16.8751L17.5309 16.8751C17.448 16.8751 17.3812 16.9424 17.3777 17.0252C17.299 18.8885 15.7635 20.375 13.8809 20.375C11.9982 20.375 10.4627 18.8886 10.384 17.0253C10.3805 16.9425 10.3137 16.8752 10.2309 16.8752L1.53086 16.8752C1.44802 16.8752 1.38086 16.8081 1.38086 16.7252L1.38086 8.32821C1.38086 8.27926 1.40474 8.23339 1.44484 8.20532L4.35613 6.16738C4.86039 5.8144 5.46102 5.62506 6.07654 5.62506H11.4297C12.6978 5.62506 13.9333 6.02682 14.9588 6.77267L20.9005 11.094C21.3498 11.4208 21.5817 11.9692 21.5031 12.5192L20.8993 16.7463ZM9.76001 7.00005H6.94664C6.33112 7.00005 5.7305 7.18937 5.22625 7.54235L3.59988 8.68081C2.7989 9.24149 3.19563 10.5 4.17334 10.5H12.6394C13.0233 10.5 13.264 10.0853 13.0735 9.75198L12.3647 8.51163C11.8306 7.5769 10.8366 7.00005 9.76001 7.00005ZM13.8809 14.375C12.5001 14.375 11.3809 15.4943 11.3809 16.875C11.3809 18.2558 12.5001 19.375 13.8809 19.375C15.2616 19.375 16.3809 18.2558 16.3809 16.875C16.3809 15.4943 15.2616 14.375 13.8809 14.375Z" fill="black"/>
</svg>
