<svg width="24" height="24" viewBox="0 0 24 24" fill="none" xmlns="http://www.w3.org/2000/svg">
<path d="M22.3809 1.875C22.7951 1.875 23.1309 2.21079 23.1309 2.625C23.1309 3.03921 22.7951 3.375 22.3809 3.375H19.9358C19.7567 3.375 19.5836 3.43904 19.4477 3.55556L15.9424 6.56007L15.4007 6.16609C15.1601 5.99112 14.9093 5.83298 14.65 5.69226L18.4715 2.41667C18.8793 2.06713 19.3987 1.875 19.9358 1.875H22.3809Z" fill="black"/>
<path fill-rule="evenodd" clip-rule="evenodd" d="M20.8993 16.7463C20.8887 16.8202 20.8254 16.8751 20.7508 16.8751L17.7809 16.8751C17.698 16.8751 17.6312 16.9425 17.6279 17.0253C17.5491 19.0267 15.9016 20.625 13.8809 20.625C11.8601 20.625 10.2127 19.0267 10.1338 17.0253C10.1306 16.9425 10.0637 16.8752 9.98086 16.8752L1.53086 16.8752C1.44802 16.8752 1.38086 16.8081 1.38086 16.7252L1.38086 8.32821C1.38086 8.27926 1.40474 8.23339 1.44484 8.20532L4.35613 6.16738C4.86039 5.8144 5.46102 5.62506 6.07654 5.62506H11.4297C12.6978 5.62506 13.9333 6.02682 14.9588 6.77267L20.9005 11.094C21.3498 11.4208 21.5817 11.9692 21.5031 12.5192L20.8993 16.7463ZM9.76001 7.00005H6.94664C6.33112 7.00005 5.7305 7.18937 5.22625 7.54235L3.59988 8.68081C2.7989 9.24149 3.19563 10.5 4.17334 10.5H12.6394C13.0233 10.5 13.264 10.0853 13.0735 9.75198L12.3647 8.51163C11.8306 7.5769 10.8366 7.00005 9.76001 7.00005ZM13.8809 14.625C12.6382 14.625 11.6309 15.6324 11.6309 16.875C11.6309 18.1177 12.6382 19.125 13.8809 19.125C15.1235 19.125 16.1309 18.1177 16.1309 16.875C16.1309 15.6324 15.1235 14.625 13.8809 14.625Z" fill="black"/>
</svg>
