<svg width="24" height="24" viewBox="0 0 24 24" fill="none" xmlns="http://www.w3.org/2000/svg">
<path d="M7.79969 10.9541C8.3518 10.9543 8.79969 11.4019 8.79969 11.9541C8.7992 12.5058 8.3515 12.9539 7.79969 12.9541H5.3993C4.84745 12.9539 4.39979 12.5059 4.3993 11.9541C4.3993 11.4019 4.84715 10.9543 5.3993 10.9541H7.79969Z" fill="black"/>
<path d="M18.5995 10.9541C19.1516 10.9543 19.5995 11.4019 19.5995 11.9541C19.599 12.5058 19.1513 12.9539 18.5995 12.9541H16.1991C15.6473 12.9538 15.1996 12.5058 15.1991 11.9541C15.1991 11.402 15.647 10.9544 16.1991 10.9541H18.5995Z" fill="black"/>
<path fill-rule="evenodd" clip-rule="evenodd" d="M16.0634 3.71484C17.2054 3.71496 18.2728 4.28827 18.9022 5.24219L20.3778 7.47852L21.787 6.84277C22.2902 6.61546 22.8827 6.83878 23.1102 7.3418C23.3372 7.84488 23.1141 8.43759 22.6112 8.66504L21.493 9.16992L21.8114 9.65234C22.1776 10.2078 22.3729 10.8592 22.3729 11.5244V14.9531C22.3729 15.7136 21.986 16.3832 21.3993 16.7783V19.084C21.399 20.0056 20.652 20.7527 19.7304 20.7529H17.4696C16.5479 20.7527 15.8 20.0056 15.7997 19.084V17.1533H8.1991V19.084C8.19883 20.0057 7.45192 20.7528 6.53016 20.7529H4.26942C3.34775 20.7527 2.59977 20.0056 2.5995 19.084V16.7783C2.0129 16.3832 1.62691 15.7135 1.62684 14.9531V11.5244C1.62688 10.859 1.82193 10.2079 2.18836 9.65234L2.50575 9.16992L1.38758 8.66504C0.884747 8.43761 0.661656 7.84485 0.888558 7.3418C1.11607 6.83878 1.70863 6.61546 2.2118 6.84277L3.62098 7.47949L5.09754 5.24219C5.72674 4.28867 6.7932 3.71501 7.93543 3.71484H16.0634ZM4.5995 18.7529H6.1991V17.1533H4.5995V18.7529ZM17.7997 18.7529H19.3993V17.1533H17.7997V18.7529ZM3.85828 10.7539C3.7075 10.9825 3.62687 11.2504 3.62684 11.5244V14.9531C3.62695 15.0635 3.71664 15.1533 3.82703 15.1533H20.1727C20.283 15.1531 20.3728 15.0634 20.3729 14.9531V11.5244C20.3729 11.2506 20.2921 10.9825 20.1415 10.7539L19.4667 9.73145H4.53211L3.85828 10.7539ZM7.93543 5.71484C7.46509 5.71496 7.02646 5.95135 6.76746 6.34375L5.85145 7.73242H18.1483L17.2323 6.34375C16.9735 5.95156 16.5341 5.71496 16.0634 5.71484H7.93543Z" fill="black"/>
</svg>
