<svg width="24" height="24" viewBox="0 0 24 24" fill="none" xmlns="http://www.w3.org/2000/svg">
<path fill-rule="evenodd" clip-rule="evenodd" d="M12.2915 6.37489C12.132 6.37482 11.984 6.37475 11.8351 6.38889C11.3965 6.43054 10.9716 6.56447 10.5884 6.78189C10.4583 6.85572 10.337 6.94065 10.2064 7.03218L6.02529 9.95905L2.9248 10.7342L2.89055 10.7427C2.76786 10.7731 2.60297 10.814 2.44639 10.8803C1.98994 11.0736 1.61542 11.4204 1.38767 11.8607C1.30954 12.0117 1.25616 12.173 1.21645 12.293L1.20533 12.3265L1.00076 12.9402C0.945664 13.1054 0.892699 13.2643 0.854442 13.3999C0.814342 13.5421 0.769284 13.7287 0.763289 13.9397C0.736043 14.8986 1.35465 15.7569 2.27298 16.0342C2.47503 16.0953 2.66629 16.1115 2.81384 16.1184C2.95461 16.125 3.12207 16.125 3.29628 16.125H4.08372C4.53542 17.2952 5.67056 18.125 6.99995 18.125C8.32933 18.125 9.46448 17.2952 9.91618 16.125H15.0837C15.5354 17.2952 16.6706 18.125 17.9999 18.125C19.3293 18.125 20.4645 17.2952 20.9162 16.125L21.9133 16.125C22.5229 16.125 23.0397 15.6768 23.126 15.0733L23.5022 12.4399L23.5077 12.4016C23.5275 12.2654 23.554 12.0827 23.5492 11.8992C23.5352 11.3633 23.3192 10.8526 22.9446 10.4693C22.8162 10.3379 22.6666 10.2297 22.5551 10.149L22.5239 10.1263L18.9996 7.56311C18.7156 7.35649 18.5124 7.20864 18.296 7.0815C17.6545 6.70445 16.9386 6.47163 16.198 6.39922C15.9482 6.3748 15.6969 6.37484 15.3457 6.37489L12.2915 6.37489ZM12.0478 8.62882C12.0768 8.62606 12.1118 8.6249 12.3259 8.6249H15.296C15.7163 8.6249 15.852 8.62613 15.979 8.63854C16.3945 8.67916 16.7961 8.80977 17.156 9.02129C17.266 9.08592 17.3765 9.16479 17.7163 9.41196L21.2004 11.9459C21.2372 11.9726 21.2657 11.9934 21.2903 12.0115C21.2862 12.0418 21.2812 12.0767 21.2748 12.1217L21.0243 13.875L20.1 13.875C19.4096 13.875 18.9043 14.4263 18.8739 15.0447C18.8511 15.5067 18.4682 15.875 17.9999 15.875C17.5317 15.875 17.1488 15.5067 17.126 15.0447C17.0956 14.4263 16.5903 13.875 15.8999 13.875H9.09995C8.40959 13.875 7.9043 14.4263 7.87385 15.0447C7.8511 15.5067 7.4682 15.875 6.99995 15.875C6.5317 15.875 6.14879 15.5067 6.12604 15.0447C6.0956 14.4263 5.5903 13.875 4.89995 13.875H3.31753C3.21006 13.875 3.12768 13.8749 3.06186 13.8743C3.08207 13.8117 3.10804 13.7335 3.14203 13.6315L3.33987 13.038C3.35298 12.9987 3.36315 12.9682 3.37211 12.9418C3.3991 12.9349 3.43029 12.9271 3.47051 12.917L6.54943 12.1473C6.59236 12.1366 6.65045 12.1221 6.70942 12.1038C6.88034 12.0506 7.04386 11.976 7.19608 11.8818C7.24859 11.8493 7.29761 11.815 7.33383 11.7896L11.4686 8.89516C11.644 8.77237 11.6733 8.75325 11.6987 8.73886C11.806 8.67798 11.9249 8.64048 12.0478 8.62882Z" fill="black"/>
<path d="M4.43166 6.98146L6.17843 8.47869L5.55059 8.9182L4.0544 9.29225L3.13008 8.49997H1.5C0.947715 8.49997 0.5 8.05226 0.5 7.49997C0.5 6.94769 0.947715 6.49997 1.5 6.49997H3.13008C3.6075 6.49997 4.06917 6.67076 4.43166 6.98146Z" fill="black"/>
</svg>
