<svg width="24" height="24" viewBox="0 0 24 24" fill="none" xmlns="http://www.w3.org/2000/svg">
<path d="M0.75 7.49994C0.75 7.08573 1.08579 6.74994 1.5 6.74994H3.13008C3.54782 6.74994 3.95179 6.89938 4.26896 7.17124L7.14283 9.63456L6.22141 10.2796C6.19637 10.2971 6.16832 10.3099 6.13867 10.3173L5.74834 10.4149L3.29277 8.31012C3.24746 8.27129 3.18975 8.24994 3.13008 8.24994H1.5C1.08579 8.24994 0.75 7.91415 0.75 7.49994Z" fill="black"/>
<path d="M10.8401 7.65661C11.2183 7.39187 11.6688 7.24986 12.1305 7.24986H15.6992C16.5975 7.24986 17.4726 7.53445 18.199 8.06277L22.1601 10.9437C22.5346 11.216 22.7278 11.673 22.6623 12.1314L22.2598 14.9495C22.2351 15.1219 22.0875 15.25 21.9133 15.25L20.2362 15.25C20.1118 16.3751 19.1581 17.25 17.9999 17.25C16.8418 17.25 15.8881 16.3751 15.7637 15.25H9.2362C9.11175 16.3751 8.15809 17.25 6.99995 17.25C5.8418 17.25 4.88815 16.3751 4.7637 15.25H2.88743C2.03424 15.25 1.43177 14.4141 1.70158 13.6047L2.08924 12.4417C2.22439 12.0363 2.55731 11.728 2.97193 11.6243L6.25995 10.8023C6.3489 10.7801 6.43303 10.7417 6.50815 10.6891L10.8401 7.65661Z" fill="black"/>
</svg>
