<svg width="24" height="24" viewBox="0 0 24 24" fill="none" xmlns="http://www.w3.org/2000/svg">
<path fill-rule="evenodd" clip-rule="evenodd" d="M10.6972 7.45182C11.1174 7.15766 11.618 6.99988 12.1309 6.99988H15.6997C16.6507 6.99988 17.5773 7.3012 18.3465 7.8606L22.3076 10.7415C22.757 11.0683 22.9888 11.6167 22.9103 12.1667L22.5077 14.9849C22.4655 15.2804 22.2123 15.5 21.9137 15.5L20.4503 15.5C20.2186 16.6413 19.2099 17.5 18.0004 17.5C16.7909 17.5 15.7822 16.6413 15.5504 15.5H9.45032C9.21857 16.6413 8.20989 17.5 7.00038 17.5C5.79088 17.5 4.78219 16.6413 4.55045 15.5H2.88787C1.86403 15.5 1.14108 14.497 1.46484 13.5257L1.85251 12.3627C2.01469 11.8761 2.41419 11.5062 2.91173 11.3818L6.19975 10.5598C6.25905 10.545 6.31514 10.5194 6.36522 10.4843L10.6972 7.45182ZM12.1309 7.99988C11.8231 7.99988 11.5228 8.09455 11.2707 8.27104L6.93869 11.3035C6.78846 11.4087 6.6202 11.4854 6.44228 11.5299L3.15427 12.3519C2.98842 12.3934 2.85525 12.5167 2.80119 12.6789L2.41353 13.8419C2.30561 14.1657 2.54659 14.5 2.88787 14.5H4.90038C5.23789 14.5 5.48719 14.7699 5.50223 15.0754C5.54129 15.8686 6.19725 16.5 7.00038 16.5C7.80352 16.5 8.45948 15.8686 8.49853 15.0754C8.51357 14.7699 8.76287 14.5 9.10038 14.5H15.9004C16.2379 14.5 16.4872 14.7699 16.5022 15.0754C16.5413 15.8686 17.1973 16.5 18.0004 16.5C18.8035 16.5 19.4595 15.8686 19.4985 15.0754C19.5136 14.7699 19.7629 14.5 20.1004 14.5L21.5668 14.5L21.9203 12.0253C21.9465 11.842 21.8692 11.6592 21.7194 11.5502L17.7583 8.66933C17.1601 8.23424 16.4394 7.99988 15.6997 7.99988H12.1309Z" fill="black"/>
</svg>
