<svg width="24" height="24" viewBox="0 0 24 24" fill="none" xmlns="http://www.w3.org/2000/svg">
<path d="M7.80076 11.2036C8.21452 11.204 8.55052 11.5398 8.55076 11.9536C8.5505 12.3674 8.21451 12.7033 7.80076 12.7036H5.40036C4.98632 12.7036 4.65062 12.3676 4.65036 11.9536C4.6506 11.5396 4.98631 11.2036 5.40036 11.2036H7.80076Z" fill="black"/>
<path d="M18.6006 11.2036C19.0144 11.2039 19.3503 11.5398 19.3506 11.9536C19.3503 12.3675 19.0144 12.7034 18.6006 12.7036H16.2002C15.7861 12.7036 15.4504 12.3676 15.4502 11.9536C15.4504 11.5396 15.7861 11.2036 16.2002 11.2036H18.6006Z" fill="black"/>
<path fill-rule="evenodd" clip-rule="evenodd" d="M16.0635 3.96533C17.1217 3.96533 18.1102 4.4966 18.6933 5.38037L20.2861 7.79443L21.8916 7.06982C22.2689 6.89959 22.7132 7.06771 22.8838 7.44482C23.0539 7.82216 22.886 8.2665 22.5088 8.43701L21.122 9.06299L21.6025 9.79053C21.9419 10.3052 22.123 10.9085 22.123 11.5249V14.9536C22.1229 15.6743 21.731 16.3017 21.1494 16.6392V19.0845C21.149 19.868 20.514 20.5033 19.7304 20.5034H17.4697C16.686 20.5033 16.0502 19.8681 16.0498 19.0845V16.9038H7.94919V19.0845C7.94881 19.868 7.31385 20.5033 6.53025 20.5034H4.26951C3.48594 20.5032 2.84996 19.868 2.84958 19.0845V16.6382C2.26903 16.3004 1.87707 15.6735 1.87693 14.9536V11.5249C1.87697 10.9086 2.05816 10.3051 2.39743 9.79053L2.87693 9.06299L1.49118 8.43701C1.11413 8.26645 0.946115 7.82207 1.11618 7.44482C1.28675 7.06777 1.73112 6.89975 2.10837 7.06982L3.71286 7.79443L5.30661 5.38037C5.88945 4.49711 6.87744 3.96564 7.93552 3.96533H16.0635ZM4.34958 19.0034H6.44919V16.9038H4.34958V19.0034ZM17.5498 19.0034H19.6494V16.9038H17.5498V19.0034ZM4.39841 9.48193L3.64939 10.6167C3.47189 10.8861 3.37696 11.2022 3.37693 11.5249V14.9536C3.37714 15.2018 3.57894 15.4036 3.82712 15.4038H20.1728C20.4212 15.4038 20.6228 15.202 20.623 14.9536V11.5249C20.623 11.2021 20.5282 10.8862 20.3506 10.6167L19.6015 9.48193H4.39841ZM7.93552 5.46533C7.38131 5.4656 6.86375 5.74405 6.55857 6.20654L5.38767 7.98193H18.6123L17.4414 6.20654C17.1362 5.744 16.6182 5.46533 16.0635 5.46533H7.93552Z" fill="black"/>
</svg>
