<svg width="24" height="24" viewBox="0 0 24 24" fill="none" xmlns="http://www.w3.org/2000/svg">
<path d="M22.3799 1.875C22.7941 1.875 23.1299 2.21079 23.1299 2.625C23.1299 3.03921 22.7941 3.375 22.3799 3.375H19.9348C19.7558 3.375 19.5826 3.43904 19.4467 3.55556L15.9414 6.56007L15.3997 6.16609C15.1591 5.99112 14.9083 5.83298 14.649 5.69226L18.4705 2.41667C18.8783 2.06713 19.3977 1.875 19.9348 1.875H22.3799Z" fill="black"/>
<path fill-rule="evenodd" clip-rule="evenodd" d="M20.8983 16.7463C20.8877 16.8202 20.8244 16.8751 20.7498 16.8751L17.7799 16.8751C17.697 16.8751 17.6302 16.9425 17.6269 17.0253C17.5481 19.0267 15.9006 20.625 13.8799 20.625C11.8591 20.625 10.2117 19.0267 10.1328 17.0253C10.1296 16.9425 10.0627 16.8752 9.97988 16.8752L1.52988 16.8752C1.44704 16.8752 1.37988 16.8081 1.37988 16.7252L1.37988 8.32821C1.37988 8.27926 1.40377 8.23339 1.44386 8.20532L4.35516 6.16738C4.85941 5.8144 5.46004 5.62506 6.07557 5.62506H11.4288C12.6968 5.62506 13.9323 6.02682 14.9578 6.77267L20.8995 11.094C21.3488 11.4208 21.5807 11.9692 21.5022 12.5192L20.8983 16.7463ZM9.75903 7.00005H6.94566C6.33015 7.00005 5.72953 7.18937 5.22528 7.54235L3.5989 8.68081C2.79793 9.24149 3.19465 10.5 4.17236 10.5H12.6384C13.0223 10.5 13.263 10.0853 13.0725 9.75198L12.3638 8.51163C11.8296 7.5769 10.8356 7.00005 9.75903 7.00005ZM13.8799 14.625C12.6372 14.625 11.6299 15.6324 11.6299 16.875C11.6299 18.1177 12.6372 19.125 13.8799 19.125C15.1225 19.125 16.1299 18.1177 16.1299 16.875C16.1299 15.6324 15.1225 14.625 13.8799 14.625Z" fill="black"/>
</svg>
