<svg width="24" height="24" viewBox="0 0 24 24" fill="none" xmlns="http://www.w3.org/2000/svg">
<path d="M22.3799 2.125C22.656 2.125 22.8799 2.34886 22.8799 2.625C22.8799 2.90114 22.656 3.125 22.3799 3.125H19.9348C19.6961 3.125 19.4652 3.21039 19.284 3.36574L15.7336 6.40893L15.3997 6.16609C15.2313 6.04359 15.0578 5.92935 14.88 5.82355L18.6332 2.60649C18.9957 2.29578 19.4574 2.125 19.9348 2.125H22.3799Z" fill="black"/>
<path fill-rule="evenodd" clip-rule="evenodd" d="M20.8983 16.7463C20.8877 16.8202 20.8244 16.8751 20.7498 16.8751L17.5299 16.8751C17.447 16.8751 17.3802 16.9424 17.3767 17.0252C17.2981 18.8885 15.7626 20.375 13.8799 20.375C11.9972 20.375 10.4617 18.8886 10.383 17.0253C10.3796 16.9425 10.3127 16.8752 10.2299 16.8752L1.52988 16.8752C1.44704 16.8752 1.37988 16.8081 1.37988 16.7252L1.37988 8.32821C1.37988 8.27926 1.40377 8.23339 1.44386 8.20532L4.35516 6.16738C4.85941 5.8144 5.46004 5.62506 6.07557 5.62506H11.4288C12.6968 5.62506 13.9323 6.02682 14.9578 6.77267L20.8995 11.094C21.3488 11.4208 21.5807 11.9692 21.5022 12.5192L20.8983 16.7463ZM9.75903 7.00005H6.94566C6.33015 7.00005 5.72953 7.18937 5.22528 7.54235L3.5989 8.68081C2.79793 9.24149 3.19465 10.5 4.17236 10.5H12.6384C13.0223 10.5 13.263 10.0853 13.0725 9.75198L12.3638 8.51163C11.8296 7.5769 10.8356 7.00005 9.75903 7.00005ZM13.8799 14.375C12.4992 14.375 11.3799 15.4943 11.3799 16.875C11.3799 18.2558 12.4992 19.375 13.8799 19.375C15.2606 19.375 16.3799 18.2558 16.3799 16.875C16.3799 15.4943 15.2606 14.375 13.8799 14.375Z" fill="black"/>
</svg>
