<svg width="24" height="24" viewBox="0 0 24 24" fill="none" xmlns="http://www.w3.org/2000/svg">
<path d="M22.9998 4.625C23.483 4.625 23.8748 5.01675 23.8748 5.5C23.8748 5.98325 23.483 6.375 22.9998 6.375H21.3697C21.3399 6.375 21.311 6.38567 21.2884 6.40509L19.4093 8.01574L18.6402 7.45636C18.4043 7.28481 18.1551 7.13511 17.8957 7.00825L20.1495 5.07639C20.4893 4.78511 20.9221 4.625 21.3697 4.625H22.9998Z" fill="black"/>
<path d="M10.8401 7.65667C11.2183 7.39193 11.6688 7.24993 12.1305 7.24993H15.6992C16.5975 7.24993 17.4726 7.53451 18.199 8.06283L22.1601 10.9437C22.5346 11.2161 22.7278 11.6731 22.6623 12.1314L22.2598 14.9495C22.2351 15.122 22.0875 15.25 21.9133 15.25L20.2362 15.25C20.1118 16.3751 19.1581 17.25 17.9999 17.25C16.8418 17.25 15.8881 16.3751 15.7637 15.25H9.2362C9.11175 16.3751 8.15809 17.25 6.99995 17.25C5.8418 17.25 4.88815 16.3751 4.7637 15.25H2.88743C2.03424 15.25 1.43177 14.4142 1.70158 13.6048L2.08924 12.4418C2.22439 12.0363 2.55731 11.728 2.97193 11.6244L6.25995 10.8024C6.34891 10.7801 6.43303 10.7418 6.50815 10.6892L10.8401 7.65667Z" fill="black"/>
</svg>
