<svg width="24" height="24" viewBox="0 0 24 24" fill="none" xmlns="http://www.w3.org/2000/svg">
<path d="M5.3717 5.10649L9.85458 8.94896L9.00876 9.54105L4.72091 5.86574C4.53966 5.71039 4.30883 5.625 4.07011 5.625H1.625C1.34886 5.625 1.125 5.40114 1.125 5.125C1.125 4.84886 1.34886 4.625 1.625 4.625H4.07011C4.54754 4.625 5.00921 4.79578 5.3717 5.10649Z" fill="black"/>
<path fill-rule="evenodd" clip-rule="evenodd" d="M17.886 4.87507C17.014 4.87507 16.1631 5.1433 15.4487 5.64336L9.20895 10.0113C9.08376 10.0989 8.94355 10.1629 8.79528 10.1999L3.86325 11.4329C3.28279 11.578 2.8167 12.0096 2.62749 12.5772L2.04601 14.3217C1.66828 15.4548 2.51172 16.6251 3.7062 16.6251H6.38379C6.51199 18.4414 8.02607 19.875 9.875 19.875C11.7239 19.875 13.238 18.4414 13.3662 16.6251H22.2501V10H15.1724C14.1947 10 13.798 8.74146 14.5989 8.18078L16.2253 7.04232C16.7296 6.68934 17.3302 6.50001 17.9457 6.50001H22.2501V4.87507H17.886ZM9.875 13.875C8.49429 13.875 7.375 14.9943 7.375 16.375C7.375 17.7558 8.49429 18.875 9.875 18.875C11.2557 18.875 12.375 17.7558 12.375 16.375C12.375 14.9943 11.2557 13.875 9.875 13.875Z" fill="black"/>
</svg>
