<svg width="24" height="24" viewBox="0 0 24 24" fill="none" xmlns="http://www.w3.org/2000/svg">
<path fill-rule="evenodd" clip-rule="evenodd" d="M10.8404 7.65663C11.2186 7.39188 11.6691 7.24988 12.1307 7.24988H15.6995C16.5977 7.24988 17.4728 7.53446 18.1993 8.06279L22.1604 10.9437C22.5348 11.216 22.7281 11.673 22.6626 12.1314L22.26 14.9495C22.2354 15.1219 22.0877 15.25 21.9135 15.25L20.2364 15.25C20.112 16.3751 19.1583 17.25 18.0002 17.25C16.842 17.25 15.8884 16.3751 15.7639 15.25H9.23644C9.11199 16.3751 8.15834 17.25 7.00019 17.25C5.84205 17.25 4.88839 16.3751 4.76394 15.25H2.88768C2.03448 15.25 1.43202 14.4141 1.70182 13.6047L2.08949 12.4417C2.22464 12.0363 2.55756 11.728 2.97217 11.6243L6.26019 10.8023C6.34915 10.7801 6.43328 10.7417 6.5084 10.6891L10.8404 7.65663ZM12.1307 7.74988C11.7717 7.74988 11.4213 7.86033 11.1271 8.06624L6.79513 11.0987C6.66993 11.1864 6.52972 11.2503 6.38146 11.2874L3.09344 12.1094C2.84467 12.1716 2.64492 12.3566 2.56383 12.5998L2.17616 13.7628C2.01428 14.2485 2.37576 14.75 2.88768 14.75H4.90019C5.09656 14.75 5.24347 14.9074 5.25235 15.0877C5.29792 16.0133 6.06311 16.75 7.00019 16.75C7.93728 16.75 8.70246 16.0133 8.74804 15.0877C8.75692 14.9074 8.90382 14.75 9.10019 14.75H15.9002C16.0966 14.75 16.2435 14.9074 16.2523 15.0877C16.2979 16.0133 17.0631 16.75 18.0002 16.75C18.9373 16.75 19.7025 16.0133 19.748 15.0877C19.7569 14.9074 19.9038 14.75 20.1002 14.75L21.7834 14.75L22.1676 12.0607C22.2069 11.7857 22.091 11.5115 21.8663 11.3481L17.9052 8.46715C17.2642 8.00098 16.492 7.74988 15.6995 7.74988H12.1307Z" fill="black"/>
</svg>
