<svg width="24" height="24" viewBox="0 0 24 24" fill="none" xmlns="http://www.w3.org/2000/svg">
<path d="M23.0004 4.74994C23.4146 4.74994 23.7504 5.08573 23.7504 5.49994C23.7504 5.91415 23.4146 6.24994 23.0004 6.24994H21.3703C21.3107 6.24994 21.253 6.27129 21.2077 6.31012L19.6962 7.60565L18.9349 7.05194C18.7699 6.93194 18.599 6.82165 18.423 6.72137L20.2315 5.17124C20.5486 4.89938 20.9526 4.74994 21.3703 4.74994H23.0004Z" fill="black"/>
<path fill-rule="evenodd" clip-rule="evenodd" d="M12.1311 6.74986C11.5669 6.74986 11.0163 6.92342 10.554 7.247L6.22204 10.2795C6.197 10.297 6.16896 10.3098 6.13931 10.3172L2.85129 11.1392C2.27083 11.2844 1.80474 11.716 1.61553 12.2836L1.22786 13.4466C0.850138 14.5798 1.69359 15.75 2.88806 15.75H4.35419C4.68075 16.9044 5.74175 17.75 7.00058 17.75C8.2594 17.75 9.3204 16.9044 9.64696 15.75H15.3542C15.6808 16.9044 16.7418 17.75 18.0006 17.75C19.2594 17.75 20.3204 16.9044 20.647 15.75L21.9139 15.75C22.3369 15.75 22.6955 15.4389 22.7554 15.0202L23.1579 12.2021C23.2496 11.5604 22.9791 10.9206 22.4549 10.5393L18.4937 7.65841C17.6819 7.06793 16.7038 6.74986 15.6999 6.74986H12.1311ZM11.4143 8.47584C11.6244 8.32876 11.8746 8.24986 12.1311 8.24986H15.6999C16.3867 8.24986 17.056 8.46749 17.6115 8.8715L21.5726 11.7524C21.6475 11.8069 21.6861 11.8983 21.673 11.9899L21.3502 14.25L20.1006 14.25C19.6219 14.25 19.2702 14.6325 19.249 15.0631C19.2165 15.7238 18.6698 16.25 18.0006 16.25C17.3314 16.25 16.7847 15.7238 16.7521 15.0631C16.7309 14.6325 16.3792 14.25 15.9006 14.25H9.10057C8.62193 14.25 8.27023 14.6325 8.24903 15.0631C8.21649 15.7238 7.66975 16.25 7.00058 16.25C6.3314 16.25 5.78466 15.7238 5.75212 15.0631C5.73092 14.6325 5.37922 14.25 4.90058 14.25H2.88806C2.71742 14.25 2.59693 14.0828 2.65089 13.9209L3.03855 12.7579C3.06558 12.6768 3.13217 12.6152 3.21509 12.5945L6.50311 11.7724C6.71068 11.7206 6.90698 11.631 7.08225 11.5083L11.4143 8.47584Z" fill="black"/>
</svg>
