<svg width="24" height="24" viewBox="0 0 24 24" fill="none" xmlns="http://www.w3.org/2000/svg">
<path d="M23 4.49994C23.5523 4.49994 24 4.94765 24 5.49994C24 6.05222 23.5523 6.49994 23 6.49994H21.37L19.7085 7.92402L18.7874 7.25412C18.5321 7.06839 18.2618 6.90704 17.9803 6.77124L20.0684 4.98143C20.4309 4.67072 20.8925 4.49994 21.37 4.49994H23Z" fill="black"/>
<path d="M10.8404 7.65661C11.2186 7.39187 11.6691 7.24986 12.1307 7.24986H15.6995C16.5977 7.24986 17.4728 7.53445 18.1993 8.06277L22.1604 10.9437C22.5348 11.216 22.7281 11.673 22.6626 12.1314L22.26 14.9495C22.2354 15.1219 22.0877 15.25 21.9135 15.25L20.2364 15.25C20.112 16.3751 19.1583 17.25 18.0002 17.25C16.842 17.25 15.8884 16.3751 15.7639 15.25H9.23644C9.11199 16.3751 8.15834 17.25 7.00019 17.25C5.84205 17.25 4.88839 16.3751 4.76394 15.25H2.88768C2.03448 15.25 1.43202 14.4141 1.70182 13.6047L2.08949 12.4417C2.22464 12.0363 2.55756 11.728 2.97217 11.6243L6.26019 10.8023C6.34915 10.7801 6.43328 10.7417 6.5084 10.6891L10.8404 7.65661Z" fill="black"/>
</svg>
