<svg width="24" height="24" viewBox="0 0 24 24" fill="none" xmlns="http://www.w3.org/2000/svg">
<path d="M22.9998 5.25C23.1379 5.25 23.2498 5.36193 23.2498 5.5C23.2498 5.63807 23.1379 5.75 22.9998 5.75H21.3697C21.1907 5.75 21.0176 5.81404 20.8816 5.93056L18.6946 7.80512L18.4931 7.65854C18.4211 7.60615 18.3477 7.55591 18.2732 7.50784L20.5562 5.55093C20.7828 5.35674 21.0713 5.25 21.3697 5.25H22.9998Z" fill="black"/>
<path d="M10.8401 7.65667C11.2183 7.39193 11.6688 7.24993 12.1305 7.24993H15.6992C16.5975 7.24993 17.4726 7.53451 18.199 8.06283L22.1601 10.9437C22.5346 11.2161 22.7278 11.6731 22.6623 12.1314L22.2598 14.9495C22.2351 15.122 22.0875 15.25 21.9133 15.25L20.2362 15.25C20.1118 16.3751 19.1581 17.25 17.9999 17.25C16.8418 17.25 15.8881 16.3751 15.7637 15.25H9.2362C9.11175 16.3751 8.15809 17.25 6.99995 17.25C5.8418 17.25 4.88815 16.3751 4.7637 15.25H2.88743C2.03424 15.25 1.43177 14.4142 1.70158 13.6048L2.08924 12.4418C2.22439 12.0363 2.55731 11.728 2.97193 11.6244L6.25995 10.8024C6.34891 10.7801 6.43303 10.7418 6.50815 10.6892L10.8401 7.65667Z" fill="black"/>
</svg>
