<svg width="24" height="24" viewBox="0 0 24 24" fill="none" xmlns="http://www.w3.org/2000/svg">
<path d="M18.25 10.25C18.25 9.69772 17.8023 9.25 17.25 9.25C16.6977 9.25 16.25 9.69772 16.25 10.25V11H15.25C14.6977 11 14.25 11.4477 14.25 12C14.25 12.5523 14.6977 13 15.25 13H16.25V13.75C16.25 14.3023 16.6977 14.75 17.25 14.75C17.8023 14.75 18.25 14.3023 18.25 13.75V13H19.25C19.8023 13 20.25 12.5523 20.25 12C20.25 11.4477 19.8023 11 19.25 11H18.25V10.25Z" fill="black"/>
<path d="M5.25 11C4.69772 11 4.25 11.4477 4.25 12C4.25 12.5523 4.69772 13 5.25 13H9.25C9.80228 13 10.25 12.5523 10.25 12C10.25 11.4477 9.80228 11 9.25 11H5.25Z" fill="black"/>
<path fill-rule="evenodd" clip-rule="evenodd" d="M5 4C5 3.44772 5.44772 3 6 3H8C8.55229 3 9 3.44772 9 4V5H15V4C15 3.44772 15.4477 3 16 3H18C18.5523 3 19 3.44772 19 4V5H20C21.4001 5 22.1002 5 22.635 5.27248C23.1054 5.51217 23.4878 5.89462 23.7275 6.36502C24 6.8998 24 7.59987 24 9V18C24 19.4001 24 20.1002 23.7275 20.635C23.4878 21.1054 23.1054 21.4878 22.635 21.7275C22.1002 22 21.4001 22 20 22H4C2.59987 22 1.8998 22 1.36502 21.7275C0.894619 21.4878 0.512167 21.1054 0.272484 20.635C0 20.1002 0 19.4001 0 18V9C0 7.59987 0 6.8998 0.272484 6.36502C0.512167 5.89462 0.894619 5.51217 1.36502 5.27248C1.8998 5 2.59987 5 4 5H5V4ZM20 7.5H4C3.25868 7.5 2.85305 7.50194 2.56158 7.52576L2.52862 7.52862L2.52576 7.56158C2.50194 7.85305 2.5 8.25868 2.5 9V18C2.5 18.7413 2.50194 19.147 2.52576 19.4384L2.52862 19.4714L2.56158 19.4742C2.85305 19.4981 3.25868 19.5 4 19.5H20C20.7413 19.5 21.147 19.4981 21.4384 19.4742L21.4714 19.4714L21.4742 19.4384C21.4981 19.147 21.5 18.7413 21.5 18V9C21.5 8.25868 21.4981 7.85305 21.4742 7.56158L21.4714 7.52862L21.4384 7.52576C21.147 7.50194 20.7413 7.5 20 7.5Z" fill="black"/>
</svg>
