<svg width="25" height="25" viewBox="0 0 25 25" fill="none" xmlns="http://www.w3.org/2000/svg">
<path fill-rule="evenodd" clip-rule="evenodd" d="M1.01723 19.5016C0.592881 17.6062 1.11782 15.537 2.59565 14.0591C4.1381 12.5167 6.3237 12.0123 8.28616 12.542L13.4205 7.40762C12.8908 5.44516 13.3952 3.25956 14.9377 1.71711C16.4155 0.239276 18.4847 -0.285659 20.3802 0.138688C21.5217 0.39424 21.6533 1.71898 20.9975 2.37482L18.6698 4.70254C18.61 4.76228 18.61 4.85914 18.6698 4.91888L20.0444 6.29353C20.1041 6.35327 20.201 6.35327 20.2607 6.29353L22.5885 3.96581C23.2443 3.30997 24.569 3.44161 24.8246 4.58312C25.2489 6.47859 24.724 8.54778 23.2462 10.0256C21.6753 11.5965 19.4376 12.0907 17.4474 11.5124L12.391 16.5689C12.9693 18.559 12.475 20.7968 10.9042 22.3676C9.42632 23.8455 7.35714 24.3704 5.46166 23.9461C4.32015 23.6905 4.18851 22.3658 4.84435 21.7099L7.17207 19.3822C7.23181 19.3225 7.23181 19.2256 7.17207 19.1659L5.79742 17.7912C5.73768 17.7315 5.64082 17.7315 5.58108 17.7912L3.25336 20.1189C2.59752 20.7748 1.27278 20.6431 1.01723 19.5016ZM2.62523 18.2722L4.34365 16.5538C5.0868 15.8106 6.2917 15.8106 7.03485 16.5538L8.40951 17.9284C9.15267 18.6716 9.15267 19.8765 8.40951 20.6196L6.69109 22.3381C7.76739 22.3534 8.84674 21.9502 9.66672 21.1302C10.8729 19.9241 11.1772 18.1553 10.5745 16.6647L10.3574 16.1276L17.0061 9.47885L17.5432 9.69598C19.0338 10.2986 20.8026 9.99432 22.0087 8.78818C22.8287 7.9682 23.2319 6.88885 23.2166 5.81255L21.4982 7.53097C20.755 8.27412 19.5501 8.27413 18.807 7.53097L17.4323 6.15631C16.6892 5.41316 16.6892 4.20826 17.4323 3.46511L19.1507 1.74669C18.0744 1.73135 16.9951 2.13457 16.1751 2.95455C14.9911 4.13858 14.676 5.86471 15.2352 7.33804L15.4359 7.86708L8.74562 14.5574L8.21658 14.3566C6.74325 13.7975 5.01712 14.1125 3.83309 15.2966C3.01311 16.1165 2.6099 17.1959 2.62523 18.2722Z" fill="black"/>
</svg>
