<svg width="24" height="24" viewBox="0 0 24 24" fill="none" xmlns="http://www.w3.org/2000/svg">
<path d="M22.381 1.625C22.9333 1.625 23.381 2.07272 23.381 2.625C23.381 3.17728 22.9333 3.625 22.381 3.625H19.9359C19.8165 3.625 19.7011 3.6677 19.6105 3.74537L17.3209 5.70783L16.2831 4.953C16.0714 4.79908 15.8533 4.65582 15.6295 4.52348L18.3089 2.22686C18.762 1.83848 19.3391 1.625 19.9359 1.625H22.381Z" fill="black"/>
<path fill-rule="evenodd" clip-rule="evenodd" d="M6.07663 4.62506C5.25593 4.62506 4.45509 4.87751 3.78275 5.34815L0.807476 7.43088C0.355029 7.7476 0.245 8.37113 0.561718 8.82358C0.878437 9.27603 1.50197 9.38605 1.95441 9.06934L4.92969 6.98661C5.26586 6.75128 5.66628 6.62506 6.07663 6.62506H11.4298C12.4865 6.62506 13.5161 6.95986 14.3707 7.5814L20.3124 11.9027C20.4622 12.0116 20.5395 12.1944 20.5133 12.3778L20.032 15.7463C20.0215 15.8202 19.9582 15.8751 19.8836 15.8751L18.8712 15.8751C18.8028 15.8751 18.7433 15.8286 18.7243 15.7628C18.2425 14.0948 16.7042 12.875 14.881 12.875C13.0577 12.875 11.5194 14.0948 11.0376 15.7629C11.0186 15.8286 10.9591 15.8752 10.8907 15.8752L1.38094 15.8752C0.828651 15.8752 0.38094 16.323 0.380945 16.8753C0.38095 17.4275 0.82867 17.8752 1.38095 17.8752L10.8907 17.8752C10.9592 17.8752 11.0187 17.9217 11.0377 17.9874C11.5196 19.6553 13.0578 20.875 14.881 20.875C16.7041 20.875 18.2424 19.6553 18.7243 17.9873C18.7433 17.9216 18.8028 17.8751 18.8712 17.8751L20.881 17.8751C21.3786 17.8751 21.8005 17.5091 21.8709 17.0165L22.4932 12.6606C22.6241 11.7439 22.2376 10.8299 21.4887 10.2852L15.5471 5.96394C14.3506 5.09378 12.9092 4.62506 11.4298 4.62506H6.07663ZM14.881 14.875C13.7764 14.875 12.881 15.7705 12.881 16.875C12.881 17.9796 13.7764 18.875 14.881 18.875C15.9855 18.875 16.881 17.9796 16.881 16.875C16.881 15.7705 15.9855 14.875 14.881 14.875Z" fill="black"/>
</svg>
