<svg width="24" height="24" viewBox="0 0 24 24" fill="none" xmlns="http://www.w3.org/2000/svg">
<path fill-rule="evenodd" clip-rule="evenodd" d="M0.383211 19.4196C-0.0142636 17.6442 0.477597 15.7075 1.86086 14.3242C3.35882 12.8263 5.50516 12.3736 7.39453 12.9639L12.8425 7.51587C12.2523 5.6265 12.7049 3.48016 14.2029 1.9822C15.5861 0.598935 17.5228 0.107074 19.2983 0.504549C20.1013 0.684328 20.2164 1.62557 19.7324 2.10958L17.4046 4.4373C17.1984 4.64348 17.1984 4.97778 17.4046 5.18396L18.7793 6.55862C18.9855 6.7648 19.3198 6.7648 19.526 6.55862L21.8537 4.2309C22.3377 3.74689 23.2789 3.86192 23.4587 4.66496C23.8562 6.4404 23.3643 8.37711 21.9811 9.76037C20.4554 11.2861 18.2571 11.7274 16.3427 11.0868L10.9655 16.464C11.606 18.3785 11.1647 20.5767 9.63903 22.1024C8.25577 23.4857 6.31907 23.9775 4.54363 23.58C3.74058 23.4003 3.62555 22.459 4.10956 21.975L6.43728 19.6473C6.64346 19.4411 6.64347 19.1068 6.43728 18.9006L5.06262 17.526C4.85644 17.3198 4.52214 17.3198 4.31596 17.526L1.98824 19.8537C1.50423 20.3377 0.562992 20.2227 0.383211 19.4196ZM1.33598 19.0917L3.60885 16.8189C4.20556 16.2222 5.17302 16.2222 5.76973 16.8189L7.14439 18.1935C7.7411 18.7902 7.7411 19.7577 7.14439 20.3544L4.87151 22.6273C6.29636 22.9094 7.82915 22.4981 8.93193 21.3953C10.2482 20.079 10.5793 18.1492 9.92223 16.524L9.79815 16.2171L16.0958 9.91949L16.4027 10.0436C18.0279 10.7006 19.9576 10.3696 21.2739 9.05326C22.3767 7.95048 22.788 6.4177 22.5059 4.99285L20.2331 7.26572C19.6363 7.86243 18.6689 7.86243 18.0722 7.26572L16.6975 5.89107C16.1008 5.29436 16.1008 4.3269 16.6975 3.73019L18.9704 1.45732C17.5456 1.17522 16.0128 1.58652 14.91 2.6893C13.6178 3.98147 13.275 5.86475 13.8846 7.47101L13.9993 7.77332L7.65198 14.1206L7.34967 14.0059C5.74341 13.3964 3.86013 13.7392 2.56796 15.0313C1.46519 16.1341 1.05389 17.6669 1.33598 19.0917Z" fill="black"/>
</svg>
