<svg width="24" height="24" viewBox="0 0 24 24" fill="none" xmlns="http://www.w3.org/2000/svg">
<path d="M22.3799 1.625C22.9322 1.625 23.3799 2.07272 23.3799 2.625C23.3799 3.17728 22.9322 3.625 22.3799 3.625H19.9348C19.8154 3.625 19.7 3.6677 19.6094 3.74537L16.3443 6.54398L15.5468 5.96391C15.2502 5.74825 14.9387 5.55725 14.6152 5.39193L18.3078 2.22686C18.7609 1.83848 19.338 1.625 19.9348 1.625H22.3799Z" fill="black"/>
<path fill-rule="evenodd" clip-rule="evenodd" d="M20.8983 16.7463C20.8877 16.8202 20.8244 16.8751 20.7498 16.8751L18.0299 16.8751C17.947 16.8751 17.8802 16.9425 17.8771 17.0253C17.7981 19.1648 16.0387 20.875 13.8799 20.875C11.7211 20.875 9.9617 19.1649 9.88265 17.0254C9.87959 16.9426 9.81272 16.8752 9.72988 16.8752L1.52988 16.8752C1.44704 16.8752 1.37988 16.8081 1.37988 16.7252L1.37988 8.32821C1.37988 8.27926 1.40377 8.23339 1.44386 8.20532L4.35516 6.16738C4.85941 5.8144 5.46004 5.62506 6.07557 5.62506H11.4288C12.6968 5.62506 13.9323 6.02682 14.9578 6.77267L20.8995 11.094C21.3488 11.4208 21.5807 11.9692 21.5022 12.5192L20.8983 16.7463ZM9.75903 7.00005H6.94566C6.33015 7.00005 5.72953 7.18937 5.22528 7.54235L3.5989 8.68081C2.79793 9.24149 3.19465 10.5 4.17236 10.5H12.6384C13.0223 10.5 13.263 10.0853 13.0725 9.75198L12.3638 8.51163C11.8296 7.5769 10.8356 7.00005 9.75903 7.00005ZM13.8799 14.875C12.7753 14.875 11.8799 15.7705 11.8799 16.875C11.8799 17.9796 12.7753 18.875 13.8799 18.875C14.9844 18.875 15.8799 17.9796 15.8799 16.875C15.8799 15.7705 14.9844 14.875 13.8799 14.875Z" fill="black"/>
</svg>
