<svg width="24" height="24" viewBox="0 0 24 24" fill="none" xmlns="http://www.w3.org/2000/svg">
<path d="M7.8011 11.4536C8.07689 11.454 8.3011 11.6777 8.3011 11.9536C8.30088 12.2293 8.07676 12.4532 7.8011 12.4536H5.40071C5.12473 12.4536 4.90093 12.2295 4.90071 11.9536C4.90071 11.6775 5.12459 11.4536 5.40071 11.4536H7.8011Z" fill="black"/>
<path d="M18.6009 11.4536C18.8768 11.4539 19.1009 11.6777 19.1009 11.9536C19.1007 12.2294 18.8767 12.4533 18.6009 12.4536H16.2005C15.9245 12.4536 15.7007 12.2295 15.7005 11.9536C15.7005 11.6775 15.9244 11.4536 16.2005 11.4536H18.6009Z" fill="black"/>
<path fill-rule="evenodd" clip-rule="evenodd" d="M16.0638 4.21436C17.0379 4.21447 17.9479 4.70377 18.4847 5.51709L20.1947 8.10986L21.9945 7.29736C22.246 7.18384 22.5429 7.29584 22.6566 7.54736C22.77 7.79888 22.658 8.09575 22.4066 8.20947L20.7532 8.95557L21.3939 9.92725C21.7063 10.4009 21.8733 10.9565 21.8734 11.5239V14.9526C21.8734 15.6311 21.4745 16.215 20.8997 16.4878V19.0835C20.8996 19.7292 20.3764 20.2523 19.7308 20.2524H17.47C16.8244 20.2523 16.3003 19.7292 16.3001 19.0835V16.6528H7.69954V19.0835C7.69937 19.7292 7.17625 20.2523 6.53059 20.2524H4.26985C3.62425 20.2522 3.10009 19.7291 3.09993 19.0835V16.4878C2.52529 16.215 2.12727 15.631 2.12727 14.9526V11.5239C2.12738 10.9565 2.2943 10.401 2.60676 9.92725L3.24641 8.95557L1.59407 8.20947C1.34271 8.09575 1.23066 7.79886 1.34407 7.54736C1.45774 7.29584 1.7546 7.18387 2.00618 7.29736L3.80501 8.10986L5.51594 5.51709C6.05264 4.70416 6.96181 4.2145 7.93587 4.21436H16.0638ZM4.09993 19.0835C4.1001 19.1768 4.17653 19.2522 4.26985 19.2524H6.53059C6.62396 19.2523 6.69937 19.1769 6.69954 19.0835V16.6528H4.09993V19.0835ZM17.3001 19.0835C17.3003 19.1769 17.3766 19.2523 17.47 19.2524H19.7308C19.8242 19.2523 19.8996 19.1769 19.8997 19.0835V16.6528H17.3001V19.0835ZM4.26301 9.23193L3.44075 10.478C3.23621 10.7883 3.12738 11.1523 3.12727 11.5239V14.9526C3.12727 15.3392 3.44087 15.6528 3.82747 15.6528H20.1732C20.5596 15.6527 20.8734 15.3391 20.8734 14.9526V11.5239C20.8733 11.1523 20.7644 10.7883 20.5599 10.478L19.7376 9.23193H4.26301ZM7.93587 5.21436C7.29766 5.21447 6.70151 5.53536 6.34993 6.06787L4.92219 8.23193H19.0784L17.6507 6.06787C17.2992 5.53528 16.7023 5.21447 16.0638 5.21436H7.93587Z" fill="black"/>
</svg>
