<svg width="24" height="24" viewBox="0 0 24 24" fill="none" xmlns="http://www.w3.org/2000/svg">
<path fill-rule="evenodd" clip-rule="evenodd" d="M20.1731 15.8784C21.25 15.8784 22.1233 15.0052 22.1233 13.9282V10.4995C22.1232 9.88294 21.9422 9.27983 21.6028 8.76514L21.1233 8.03835L22.5088 7.41245C22.8861 7.24198 23.054 6.79764 22.8838 6.42026C22.7133 6.04284 22.2691 5.87487 21.8916 6.04526L20.2868 6.77024L18.6936 4.35498C18.1106 3.47147 17.1222 2.93994 16.0637 2.93994H7.93577C6.87741 2.94006 5.88977 3.47161 5.30686 4.35498L3.71353 6.77039L2.10841 6.04526C1.731 5.87499 1.2867 6.04289 1.11622 6.42026C0.946119 6.79757 1.11403 7.24195 1.49122 7.41245L2.87702 8.03849L2.39768 8.76514C2.05816 9.27984 1.8772 9.88291 1.87717 10.4995V13.9282C1.87717 15.0052 2.75041 15.8784 3.82737 15.8784H20.1731ZM19.1078 7.70698L17.4416 5.18115C17.1363 4.71832 16.6182 4.43994 16.0637 4.43994H7.93577C7.38144 4.44006 6.86411 4.71846 6.55881 5.18115L4.89264 7.70698H19.1078ZM7.80107 10.1789C8.21495 10.1792 8.55107 10.5149 8.55107 10.9289C8.55086 11.3427 8.21483 11.6785 7.80107 11.6789H5.40068C4.98659 11.6789 4.65089 11.3429 4.65068 10.9289C4.65068 10.5146 4.98646 10.1789 5.40068 10.1789H7.80107ZM18.6009 10.1789C19.0148 10.1791 19.3509 10.5148 19.3509 10.9289C19.3507 11.3427 19.0147 11.6786 18.6009 11.6789H16.2005C15.7864 11.6789 15.4507 11.3429 15.4505 10.9289C15.4505 10.5146 15.7863 10.1789 16.2005 10.1789H18.6009Z" fill="black"/>
<path d="M3.00005 16.4982C3.26081 16.5821 3.53858 16.6281 3.8272 16.6281H7.79986V18.6594C7.79956 19.3602 7.23119 19.9288 6.53033 19.9289H4.26959C3.5688 19.9287 3.00035 19.3601 3.00005 18.6594V16.4982Z" fill="black"/>
<path d="M21.0001 18.6594C20.9998 19.3602 20.4314 19.9288 19.7305 19.9289H17.4698C16.7689 19.9288 16.2005 19.3602 16.2002 18.6594V16.6281H20.1729C20.4614 16.6281 20.7394 16.582 21.0001 16.4982V18.6594Z" fill="black"/>
</svg>
