<svg width="24" height="24" viewBox="0 0 24 24" fill="none" xmlns="http://www.w3.org/2000/svg">
<path d="M5.209 5.2963L9.64313 9.09698L9.22022 9.39303L4.8836 5.67593C4.65705 5.48174 4.3685 5.375 4.07011 5.375H1.625C1.48693 5.375 1.375 5.26307 1.375 5.125C1.375 4.98693 1.48693 4.875 1.625 4.875H4.07011C4.48786 4.875 4.89182 5.02444 5.209 5.2963Z" fill="black"/>
<path fill-rule="evenodd" clip-rule="evenodd" d="M15.9937 5.8722C16.456 5.54863 17.0065 5.37507 17.5708 5.37507H22.0001C22.1382 5.37507 22.2501 5.26314 22.2501 5.12507C22.2501 4.987 22.1382 4.87507 22.0001 4.87507H17.5708C16.9039 4.87507 16.2533 5.08019 15.707 5.46259L9.20898 10.0113C9.08378 10.0989 8.94357 10.1629 8.79531 10.1999L3.86328 11.4329C3.28282 11.578 2.81673 12.0096 2.62752 12.5772L2.04604 14.3217C1.6683 15.4548 2.51175 16.6251 3.70623 16.6251H6.63447C6.76214 18.3032 8.1642 19.625 9.875 19.625C11.5858 19.625 12.9879 18.3032 13.1155 16.6251H22.0001C22.1382 16.6251 22.2501 16.5131 22.2501 16.3751C22.2501 16.237 22.1382 16.1251 22.0001 16.1251H13.1155C12.9879 14.4469 11.5858 13.125 9.875 13.125C8.16419 13.125 6.76212 14.4469 6.63447 16.1251H3.70623C2.85303 16.1251 2.25057 15.2892 2.52038 14.4798L3.10186 12.7354C3.23701 12.3299 3.56993 12.0216 3.98455 11.918L8.91657 10.685C9.12414 10.6331 9.32044 10.5436 9.49572 10.4209L15.9937 5.8722ZM9.875 13.625C8.35622 13.625 7.125 14.8563 7.125 16.375C7.125 17.8938 8.35622 19.125 9.875 19.125C11.3938 19.125 12.625 17.8938 12.625 16.375C12.625 14.8563 11.3938 13.625 9.875 13.625Z" fill="black"/>
</svg>
