<svg width="24" height="24" viewBox="0 0 24 24" fill="none" xmlns="http://www.w3.org/2000/svg">
<path d="M22.9999 4.5C23.5522 4.5 23.9999 4.94772 23.9999 5.5C23.9999 6.05228 23.5522 6.5 22.9999 6.5H21.3698L20.2937 7.42239L19.2285 6.64763C19.0249 6.49962 18.8132 6.36516 18.5945 6.2447L20.0683 4.98149C20.4307 4.67078 20.8924 4.5 21.3698 4.5H22.9999Z" fill="black"/>
<path fill-rule="evenodd" clip-rule="evenodd" d="M12.1236 6.37493L12.121 6.37494C11.4863 6.37688 10.8673 6.57202 10.3463 6.93439L10.3441 6.93589L6.02537 9.9591L2.75357 10.7771L2.74944 10.7781C2.05282 10.956 1.49339 11.474 1.26261 12.155L1.26124 12.159L0.875256 13.3169L0.867919 13.3391L0.86528 13.3472C0.424839 14.7114 1.4339 16.1114 2.86739 16.125L2.87588 16.125L2.89921 16.125L4.08372 16.125C4.53539 17.2952 5.67069 18.125 7.00002 18.125C8.32934 18.125 9.46464 17.2952 9.91631 16.125H15.0837C15.5354 17.2952 16.6707 18.125 18 18.125C19.3293 18.125 20.4646 17.2952 20.9163 16.125L21.9567 16.125C22.5414 16.125 23.0372 15.6951 23.1199 15.1162L23.5296 12.2483L23.5302 12.2438C23.6362 11.4722 23.3115 10.7044 22.6842 10.2429L22.6712 10.2334L18.7029 7.3473L18.7007 7.34574C17.8316 6.71785 16.7876 6.37832 15.7154 6.37495L12.1236 6.37493ZM15.7083 8.62494L15.7096 8.62494C16.3106 8.62709 16.8958 8.81754 17.383 9.16953L21.2906 12.0115L21.0244 13.875L20.05 13.875C19.3899 13.875 18.8899 14.4068 18.8747 15.0225C18.8631 15.4951 18.4758 15.875 18 15.875C17.5243 15.875 17.1369 15.4951 17.1253 15.0225C17.1101 14.4068 16.6102 13.875 15.95 13.875H9.05001C8.38988 13.875 7.88989 14.4068 7.87474 15.0225C7.86311 15.4951 7.47577 15.875 7.00002 15.875C6.52426 15.875 6.13692 15.4951 6.12529 15.0225C6.11014 14.4068 5.61015 13.875 4.95002 13.875H3.06093L3.37205 12.9417L6.59727 12.1354C6.84667 12.0725 7.08259 11.9649 7.29356 11.8178L11.6309 8.78158L11.6319 8.78092C11.7776 8.67987 11.9505 8.62547 12.1279 8.62493L15.7083 8.62494Z" fill="black"/>
</svg>
