<svg width="24" height="24" viewBox="0 0 24 24" fill="none" xmlns="http://www.w3.org/2000/svg">
<path d="M5.209 5.2963L9.64313 9.09698L9.22022 9.39303L4.8836 5.67593C4.65705 5.48174 4.3685 5.375 4.07011 5.375H1.625C1.48693 5.375 1.375 5.26307 1.375 5.125C1.375 4.98693 1.48693 4.875 1.625 4.875H4.07011C4.48786 4.875 4.89182 5.02444 5.209 5.2963Z" fill="black"/>
<path fill-rule="evenodd" clip-rule="evenodd" d="M17.886 4.87507C17.014 4.87507 16.1631 5.1433 15.4487 5.64336L9.20895 10.0113C9.08376 10.0989 8.94355 10.1629 8.79528 10.1999L3.86325 11.4329C3.28279 11.578 2.8167 12.0096 2.62749 12.5772L2.04601 14.3217C1.66828 15.4548 2.51172 16.6251 3.7062 16.6251H6.63447C6.76214 18.3032 8.1642 19.625 9.875 19.625C11.5858 19.625 12.9879 18.3032 13.1155 16.6251H22.2501V10H15.1724C14.1947 10 13.798 8.74146 14.5989 8.18078L16.2253 7.04232C16.7296 6.68934 17.3302 6.50001 17.9457 6.50001H22.2501V4.87507H17.886ZM9.875 13.625C8.35622 13.625 7.125 14.8563 7.125 16.375C7.125 17.8938 8.35622 19.125 9.875 19.125C11.3938 19.125 12.625 17.8938 12.625 16.375C12.625 14.8563 11.3938 13.625 9.875 13.625Z" fill="black"/>
</svg>
