<svg width="24" height="24" viewBox="0 0 24 24" fill="none" xmlns="http://www.w3.org/2000/svg">
<path d="M18.875 10.25C18.875 9.76675 18.4832 9.375 18 9.375C17.5168 9.375 17.125 9.76675 17.125 10.25V11.125H16C15.5168 11.125 15.125 11.5168 15.125 12C15.125 12.4832 15.5168 12.875 16 12.875H17.125V13.75C17.125 14.2332 17.5168 14.625 18 14.625C18.4832 14.625 18.875 14.2332 18.875 13.75V12.875H20C20.4832 12.875 20.875 12.4832 20.875 12C20.875 11.5168 20.4832 11.125 20 11.125H18.875V10.25Z" fill="black"/>
<path d="M4.5 11.125C4.01675 11.125 3.625 11.5168 3.625 12C3.625 12.4832 4.01675 12.875 4.5 12.875H8.5C8.98325 12.875 9.375 12.4832 9.375 12C9.375 11.5168 8.98325 11.125 8.5 11.125H4.5Z" fill="black"/>
<path fill-rule="evenodd" clip-rule="evenodd" d="M4.25 4C4.25 3.44772 4.69772 3 5.25 3H7.25C7.80228 3 8.25 3.44772 8.25 4V5H15.75V4C15.75 3.44772 16.1977 3 16.75 3H18.75C19.3023 3 19.75 3.44772 19.75 4V5H20C21.4001 5 22.1002 5 22.635 5.27248C23.1054 5.51217 23.4878 5.89462 23.7275 6.36502C24 6.8998 24 7.59987 24 9V18C24 19.4001 24 20.1002 23.7275 20.635C23.4878 21.1054 23.1054 21.4878 22.635 21.7275C22.1002 22 21.4001 22 20 22H4C2.59987 22 1.8998 22 1.36502 21.7275C0.894619 21.4878 0.512167 21.1054 0.272484 20.635C0 20.1002 0 19.4001 0 18V9C0 7.59987 0 6.8998 0.272484 6.36502C0.512167 5.89462 0.894619 5.51217 1.36502 5.27248C1.8998 5 2.59987 5 4 5H4.25V4ZM20 7H4C3.26693 7 2.83742 7.00156 2.52087 7.02742C2.36072 7.0405 2.28321 7.05673 2.25587 7.06365C2.17528 7.10874 2.10874 7.17528 2.06365 7.25587C2.05673 7.28321 2.0405 7.36072 2.02742 7.52087C2.00156 7.83741 2 8.26693 2 9V18C2 18.7331 2.00156 19.1626 2.02742 19.4791C2.0405 19.6393 2.05673 19.7168 2.06365 19.7441C2.10874 19.8247 2.17528 19.8913 2.25587 19.9364C2.28321 19.9433 2.36072 19.9595 2.52087 19.9726C2.83742 19.9984 3.26693 20 4 20H20C20.7331 20 21.1626 19.9984 21.4791 19.9726C21.6393 19.9595 21.7168 19.9433 21.7441 19.9364C21.8247 19.8913 21.8913 19.8247 21.9364 19.7441C21.9433 19.7168 21.9595 19.6393 21.9726 19.4791C21.9984 19.1626 22 18.7331 22 18V9C22 8.26693 21.9984 7.83742 21.9726 7.52087C21.9595 7.36073 21.9433 7.28322 21.9364 7.25588C21.8913 7.17528 21.8247 7.10874 21.7441 7.06365C21.7168 7.05673 21.6393 7.0405 21.4791 7.02742C21.1626 7.00156 20.7331 7 20 7ZM2.06703 7.24394C2.06723 7.24334 2.06702 7.24392 2.06703 7.24394ZM2.24394 7.06703C2.2439 7.06702 2.24475 7.06672 2.24658 7.06617L2.24394 7.06703Z" fill="black"/>
</svg>
