<svg width="24" height="24" viewBox="0 0 24 24" fill="none" xmlns="http://www.w3.org/2000/svg">
<path fill-rule="evenodd" clip-rule="evenodd" d="M20.1736 15.3784C20.9744 15.3784 21.6238 14.729 21.6238 13.9282V10.4995C21.6238 9.98078 21.4709 9.47354 21.1853 9.04053L20.3827 7.82348L22.3027 6.95611C22.4284 6.89932 22.4843 6.75179 22.4277 6.62603C22.3709 6.50028 22.2234 6.44435 22.0977 6.50103L20.1045 7.40147L18.2771 4.63037C17.7867 3.88699 16.9548 3.43994 16.0642 3.43994H7.93628C7.04587 3.44006 6.21473 3.88714 5.72437 4.63037L3.8962 7.40178L1.90234 6.50103C1.77662 6.44458 1.62902 6.50038 1.57226 6.62603C1.51585 6.75164 1.57182 6.89924 1.69726 6.95611L3.61784 7.82375L2.81519 9.04053C2.52966 9.47348 2.37772 9.98088 2.37769 10.4995V13.9282C2.37769 14.729 3.02707 15.3784 3.82789 15.3784H20.1736ZM19.707 7.70698L17.8591 4.90576C17.4612 4.30279 16.7867 3.93994 16.0642 3.93994H7.93628C7.214 3.94006 6.54019 4.30293 6.14234 4.90576L4.2945 7.70698H19.707ZM7.801 10.6783C7.93882 10.6785 8.05089 10.7904 8.051 10.9283C8.051 11.0662 7.93889 11.1781 7.801 11.1783H5.40061C5.26261 11.1782 5.15061 11.0663 5.15061 10.9283C5.15071 10.7903 5.26268 10.6784 5.40061 10.6783H7.801ZM18.6008 10.6783C18.7386 10.6785 18.8507 10.7904 18.8508 10.9283C18.8508 11.0662 18.7387 11.1781 18.6008 11.1783H16.2004C16.0625 11.1781 15.9504 11.0662 15.9504 10.9283C15.9505 10.7904 16.0626 10.6785 16.2004 10.6783H18.6008Z" fill="black"/>
<path d="M3.00018 15.4121C3.24516 15.549 3.52679 15.6288 3.82733 15.6289H7.79999V18.0586C7.7999 18.7596 7.23145 19.328 6.53046 19.3281H4.26971C3.56881 19.3279 3.00027 18.7595 3.00018 18.0586V15.4121Z" fill="black"/>
<path d="M21.0002 18.0586C21.0001 18.7596 20.4316 19.328 19.7307 19.3281H17.4699C16.7689 19.328 16.2005 18.7596 16.2004 18.0586V15.6289H20.173C20.4735 15.6289 20.7552 15.5489 21.0002 15.4121V18.0586Z" fill="black"/>
</svg>
