<svg width="24" height="24" viewBox="0 0 24 24" fill="none" xmlns="http://www.w3.org/2000/svg">
<path d="M7.80021 11.7031C7.93786 11.7035 8.05004 11.8154 8.05021 11.9531C8.05014 12.0909 7.93791 12.2027 7.80021 12.2031H5.39982C5.2618 12.2031 5.1499 12.0911 5.14982 11.9531C5.15 11.8152 5.26186 11.7031 5.39982 11.7031H7.80021Z" fill="black"/>
<path d="M18.6 11.7031C18.7377 11.7034 18.8498 11.8154 18.85 11.9531C18.8499 12.091 18.7378 12.2029 18.6 12.2031H16.1996C16.0616 12.2031 15.9497 12.0911 15.9496 11.9531C15.9498 11.8152 16.0617 11.7031 16.1996 11.7031H18.6Z" fill="black"/>
<path fill-rule="evenodd" clip-rule="evenodd" d="M16.0629 4.71484C16.8693 4.71484 17.6226 5.1199 18.0668 5.79297L19.8442 8.4873C19.8697 8.49226 19.8941 8.50072 19.9164 8.5127C19.9213 8.5101 19.926 8.50719 19.9311 8.50488L22.0971 7.52637C22.2229 7.46969 22.3704 7.52561 22.4272 7.65137C22.4834 7.77703 22.4277 7.92471 22.3022 7.98145L20.1508 8.95215L20.976 10.2031C21.2346 10.5952 21.3724 11.0547 21.3725 11.5244V14.9531L21.3656 15.0762C21.3209 15.5157 21.0388 15.8835 20.6498 16.0527V18.7832C20.6497 19.2908 20.2384 19.7018 19.7309 19.7021H17.4701C16.9624 19.7021 16.5503 19.291 16.5502 18.7832V16.1533H7.44963V18.7832C7.44954 19.2908 7.03828 19.7019 6.53068 19.7021H4.26994C3.76217 19.7021 3.35011 19.291 3.35002 18.7832V16.0537C2.92475 15.869 2.62639 15.4463 2.62638 14.9531V11.5244C2.62641 11.1135 2.73247 10.7105 2.93205 10.3535L3.02287 10.2031L3.84709 8.95215L1.6967 7.98145C1.57122 7.92469 1.51548 7.77698 1.5717 7.65137C1.62849 7.52565 1.77602 7.46977 1.90178 7.52637L4.06779 8.50488C4.07254 8.50705 4.07691 8.51029 4.08146 8.5127C4.1038 8.50063 4.12808 8.49223 4.15373 8.4873L5.93205 5.79297C6.37608 5.12005 7.12878 4.71509 7.93498 4.71484H16.0629ZM3.85002 18.7832C3.8501 19.0148 4.03831 19.2021 4.26994 19.2021H6.53068C6.76214 19.2019 6.94954 19.0147 6.94963 18.7832V16.1533H3.85002V18.7832ZM17.0502 18.7832C17.0503 19.0148 17.2385 19.2021 17.4701 19.2021H19.7309C19.9622 19.2018 20.1497 19.0146 20.1498 18.7832V16.1533H17.0502V18.7832ZM4.42717 8.98242L3.44084 10.4785C3.23612 10.7889 3.12641 11.1526 3.12638 11.5244V14.9531C3.12639 15.2477 3.30912 15.4992 3.56681 15.6025H7.44963V15.6533H16.5502V15.6025H20.432C20.6901 15.4993 20.8725 15.2479 20.8725 14.9531V11.5244C20.8724 11.1525 20.7628 10.789 20.558 10.4785L19.5717 8.98242H4.42717ZM7.93498 5.21484C7.29673 5.21509 6.70052 5.53557 6.34904 6.06836L4.75724 8.48242H19.2416L17.6498 6.06836C17.2982 5.53545 16.7014 5.21484 16.0629 5.21484H7.93498Z" fill="black"/>
</svg>
