<svg width="24" height="24" viewBox="0 0 24 24" fill="none" xmlns="http://www.w3.org/2000/svg">
<path d="M22.38 1.875C22.7942 1.875 23.13 2.21079 23.13 2.625C23.13 3.03921 22.7942 3.375 22.38 3.375H19.9349C19.7558 3.375 19.5827 3.43904 19.4468 3.55556L16.7219 5.89115L15.988 5.35736C15.8146 5.23124 15.6365 5.11274 15.4543 5.00203L18.4706 2.41667C18.8784 2.06713 19.3978 1.875 19.9349 1.875H22.38Z" fill="black"/>
<path fill-rule="evenodd" clip-rule="evenodd" d="M6.07563 4.87506C5.30622 4.87506 4.55544 5.11173 3.92512 5.55296L0.949845 7.63569C0.61051 7.87323 0.527988 8.34088 0.765527 8.68021C1.00307 9.01955 1.47071 9.10207 1.81005 8.86453L4.78532 6.7818C5.16351 6.51706 5.61398 6.37506 6.07563 6.37506H11.4288C12.5384 6.37506 13.6194 6.7266 14.5168 7.37922L20.4584 11.7005C20.6831 11.8639 20.7991 12.1381 20.7598 12.4131L20.2479 15.9963C20.2373 16.0702 20.174 16.1251 20.0994 16.1251L18.6776 16.1251C18.6062 16.1251 18.5451 16.0747 18.5286 16.0052C18.1363 14.3536 16.6516 13.125 14.88 13.125C13.1083 13.125 11.6236 14.3536 11.2313 16.0053C11.2149 16.0747 11.1537 16.1252 11.0823 16.1252L1.37994 16.1252C0.965727 16.1252 0.629943 16.461 0.629947 16.8753C0.629951 17.2895 0.965741 17.6252 1.37995 17.6252L11.0824 17.6252C11.1537 17.6252 11.2149 17.6756 11.2314 17.745C11.6237 19.3966 13.1084 20.625 14.88 20.625C16.6516 20.625 18.1363 19.3965 18.5286 17.7449C18.545 17.6755 18.6062 17.6251 18.6776 17.6251L20.88 17.6251C21.2532 17.6251 21.5696 17.3506 21.6224 16.9811L22.2447 12.6253C22.3626 11.8002 22.0147 10.9776 21.3407 10.4874L15.399 6.16612C14.2453 5.32704 12.8554 4.87506 11.4288 4.87506H6.07563ZM14.88 14.625C13.6373 14.625 12.63 15.6324 12.63 16.875C12.63 18.1177 13.6373 19.125 14.88 19.125C16.1226 19.125 17.13 18.1177 17.13 16.875C17.13 15.6324 16.1226 14.625 14.88 14.625Z" fill="black"/>
</svg>
