<svg width="24" height="24" viewBox="0 0 24 24" fill="none" xmlns="http://www.w3.org/2000/svg">
<path d="M5.85979 4.53704L9.11711 7.32903L8.0701 8.06197L6.56865 8.43733L4.23281 6.43519C4.1875 6.39635 4.12979 6.375 4.07011 6.375H1.625C0.934644 6.375 0.375 5.81536 0.375 5.125C0.375 4.43464 0.934644 3.875 1.625 3.875H4.07011C4.72657 3.875 5.36137 4.10983 5.85979 4.53704Z" fill="black"/>
<path fill-rule="evenodd" clip-rule="evenodd" d="M16.5672 6.69143C16.8613 6.48552 17.2117 6.37507 17.5708 6.37507H22.0001C22.6904 6.37507 23.2501 5.81543 23.2501 5.12507C23.2501 4.43472 22.6904 3.87507 22.0001 3.87507H17.5708C16.6988 3.87507 15.8479 4.1433 15.1335 4.64336L8.63551 9.19205C8.61047 9.20957 8.58243 9.22236 8.55278 9.22977L3.62075 10.4628C2.70859 10.6908 1.97617 11.369 1.67884 12.261L1.09735 14.0054C0.503773 15.7861 1.82919 17.6251 3.70623 17.6251H5.81181C6.3456 19.3622 7.96283 20.625 9.875 20.625C11.7872 20.625 13.4044 19.3622 13.9382 17.6251H22.0001C22.6904 17.6251 23.2501 17.0654 23.2501 16.3751C23.2501 15.6847 22.6904 15.1251 22.0001 15.1251H13.9382C13.4044 13.3879 11.7872 12.125 9.875 12.125C7.96281 12.125 6.34557 13.3879 5.81179 15.1251H3.70623C3.53559 15.1251 3.4151 14.9579 3.46906 14.796L4.05054 13.0516C4.07757 12.9705 4.14415 12.9089 4.22708 12.8881L9.15911 11.6551C9.48528 11.5736 9.79375 11.4329 10.0692 11.2401L16.5672 6.69143ZM9.875 14.625C8.9085 14.625 8.125 15.4086 8.125 16.375C8.125 17.3415 8.9085 18.125 9.875 18.125C10.8415 18.125 11.625 17.3415 11.625 16.375C11.625 15.4086 10.8415 14.625 9.875 14.625Z" fill="black"/>
</svg>
