<svg width="24" height="24" viewBox="0 0 24 24" fill="none" xmlns="http://www.w3.org/2000/svg">
<path d="M23.0006 4.62494C23.4839 4.62494 23.8756 5.01669 23.8756 5.49994C23.8756 5.98319 23.4839 6.37494 23.0006 6.37494H21.3705C21.3407 6.37494 21.3118 6.38561 21.2892 6.40503L20.1905 7.34676L19.2292 6.64757C19.0618 6.52582 18.8888 6.41324 18.7109 6.31008L20.1503 5.07633C20.4901 4.78505 20.923 4.62494 21.3705 4.62494H23.0006Z" fill="black"/>
<path fill-rule="evenodd" clip-rule="evenodd" d="M12.1313 6.49986C11.5158 6.49986 10.9151 6.6892 10.4109 7.0422L6.07886 10.0747L2.79085 10.8967C2.12746 11.0626 1.59479 11.5558 1.37855 12.2045L0.990885 13.3675C0.559198 14.6626 1.52314 16 2.88825 16H4.1716C4.58352 17.1654 5.69448 18 7.00077 18C8.30706 18 9.41801 17.1654 9.82993 16H15.1716C15.5835 17.1654 16.6945 18 18.0008 18C19.3071 18 20.418 17.1654 20.8299 16L21.9141 16C22.4615 16 22.9256 15.5975 23.003 15.0555L23.4056 12.2374C23.5104 11.5041 23.2012 10.7729 22.6021 10.3371L18.641 7.45623C17.7864 6.83467 16.7568 6.49986 15.7001 6.49986H12.1313ZM11.5578 8.68064C11.7259 8.56298 11.9261 8.49986 12.1313 8.49986H15.7001C16.3341 8.49986 16.9518 8.70075 17.4646 9.07368L21.4257 11.9546L21.1335 14L20.1008 14C19.481 14 19.0269 14.495 18.9995 15.0508C18.9735 15.579 18.536 16 18.0008 16C17.4655 16 17.028 15.579 17.002 15.0508C16.9746 14.495 16.5206 14 15.9008 14H9.10077C8.48098 14 8.02689 14.495 7.99952 15.0508C7.97351 15.579 7.53599 16 7.00077 16C6.46554 16 6.02802 15.579 6.00201 15.0508C5.97465 14.495 5.52055 14 4.90077 14H2.88825L3.27592 12.837L6.56394 12.015C6.80116 11.9557 7.0255 11.8534 7.22582 11.7131L11.5578 8.68064Z" fill="black"/>
</svg>
