<svg width="24" height="24" viewBox="0 0 24 24" fill="none" xmlns="http://www.w3.org/2000/svg">
<path fill-rule="evenodd" clip-rule="evenodd" d="M20.1734 16.0908C21.3884 16.0908 22.3736 15.1057 22.3736 13.8906V10.4619C22.3735 9.79635 22.1776 9.14542 21.8111 8.58984L21.4933 8.10793L22.6123 7.60239C23.1153 7.37491 23.3385 6.78227 23.1114 6.27914C22.8838 5.77613 22.2913 5.55281 21.7881 5.78012L20.3783 6.41704L18.9029 4.17969C18.2736 3.22597 17.2066 2.65234 16.064 2.65234H7.93607C6.79364 2.65246 5.72734 3.22612 5.09818 4.17969L3.62241 6.41687L2.21292 5.78012C1.70975 5.55281 1.11719 5.77613 0.889677 6.27914C0.66249 6.78228 0.885738 7.3749 1.3887 7.60239L2.50709 8.10763L2.189 8.58984C1.82257 9.14538 1.6275 9.79641 1.62747 10.4619V13.8906C1.62747 15.1057 2.61265 16.0908 3.82767 16.0908H20.1734ZM18.8083 7.66938L17.2329 5.28125C16.9738 4.88862 16.5344 4.65234 16.064 4.65234H7.93607C7.4658 4.65246 7.02714 4.88876 6.7681 5.28125L5.19276 7.66938H18.8083ZM7.8008 9.89068C8.35284 9.89089 8.8007 10.3386 8.8008 10.8907C8.8008 11.4428 8.35291 11.8905 7.8008 11.8907H5.40041C4.84821 11.8906 4.40041 11.4429 4.40041 10.8907C4.40052 10.3385 4.84827 9.89077 5.40041 9.89068H7.8008ZM18.6006 9.89068C19.1526 9.89089 19.6005 10.3386 19.6006 10.8907C19.6006 11.4428 19.1527 11.8905 18.6006 11.8907H16.2002C15.6481 11.8905 15.2002 11.4428 15.2002 10.8907C15.2003 10.3386 15.6482 9.89088 16.2002 9.89068H18.6006Z" fill="black"/>
<path d="M2.99995 16.9836C3.26374 17.054 3.54114 17.0909 3.8271 17.091H7.79975V19.2218C7.79942 19.9226 7.23107 20.4913 6.53022 20.4914H4.26948C3.56873 20.4912 3.00028 19.9226 2.99995 19.2218V16.9836Z" fill="black"/>
<path d="M20.9999 19.2218C20.9996 19.9226 20.4313 20.4913 19.7304 20.4914H17.4697C16.7688 20.4913 16.2005 19.9226 16.2001 19.2218V17.091H20.1728C20.4586 17.091 20.7363 17.0539 20.9999 16.9836V19.2218Z" fill="black"/>
</svg>
