<svg width="24" height="24" viewBox="0 0 24 24" fill="none" xmlns="http://www.w3.org/2000/svg">
<path d="M5.69709 4.72686L9.10163 7.64504L8.17559 8.29329L7.09881 8.56248L4.39551 6.24537C4.30489 6.1677 4.18947 6.125 4.07011 6.125H1.625C1.07272 6.125 0.625 5.67728 0.625 5.125C0.625 4.57272 1.07272 4.125 1.625 4.125H4.07011C4.66689 4.125 5.24398 4.33848 5.69709 4.72686Z" fill="black"/>
<path fill-rule="evenodd" clip-rule="evenodd" d="M16.4238 6.48662C16.76 6.2513 17.1604 6.12507 17.5708 6.12507H22.0001C22.5524 6.12507 23.0001 5.67736 23.0001 5.12507C23.0001 4.57279 22.5524 4.12507 22.0001 4.12507H17.5708C16.7501 4.12507 15.9492 4.37752 15.2769 4.84817L8.77888 9.39685C8.7288 9.43191 8.67272 9.45748 8.61341 9.47231L3.68138 10.7053C2.85215 10.9126 2.18631 11.5292 1.91601 12.3401L1.33452 14.0845C0.794905 15.7033 1.99983 17.3751 3.70623 17.3751H6.00102C6.44507 19.1003 8.01117 20.375 9.875 20.375C11.7388 20.375 13.3049 19.1003 13.749 17.3751H22.0001C22.5524 17.3751 23.0001 16.9274 23.0001 16.3751C23.0001 15.8228 22.5524 15.3751 22.0001 15.3751H13.749C13.305 13.6498 11.7388 12.375 9.875 12.375C8.01115 12.375 6.44505 13.6498 6.00101 15.3751H3.70623C3.36495 15.3751 3.12396 15.0407 3.23189 14.717L3.81337 12.9725C3.86743 12.8104 4.0006 12.687 4.16644 12.6456L9.09847 11.4126C9.395 11.3385 9.67542 11.2106 9.92582 11.0353L16.4238 6.48662ZM9.875 14.375C8.77043 14.375 7.875 15.2705 7.875 16.375C7.875 17.4796 8.77043 18.375 9.875 18.375C10.9796 18.375 11.875 17.4796 11.875 16.375C11.875 15.2705 10.9796 14.375 9.875 14.375Z" fill="black"/>
</svg>
