<svg width="24" height="24" viewBox="0 0 24 24" fill="none" xmlns="http://www.w3.org/2000/svg">
<path fill-rule="evenodd" clip-rule="evenodd" d="M12.1305 6.99994C11.6175 6.99994 11.117 7.15772 10.6968 7.45188L6.36478 10.4844C6.3147 10.5194 6.25862 10.545 6.19931 10.5598L2.91129 11.3819C2.41376 11.5062 2.01425 11.8762 1.85207 12.3627L1.46441 13.5257C1.14064 14.497 1.8636 15.5001 2.88743 15.5001H4.55001C4.78176 16.6413 5.79045 17.5001 6.99995 17.5001C8.20945 17.5001 9.21814 16.6413 9.44988 15.5001H15.55C15.7818 16.6413 16.7904 17.5001 17.9999 17.5001C19.2095 17.5001 20.2181 16.6413 20.4499 15.5001L21.9133 15.5001C22.2119 15.5001 22.465 15.2805 22.5072 14.9849L22.9098 12.1668C22.9884 11.6168 22.7565 11.0684 22.3072 10.7416L18.3461 7.86067C17.5769 7.30127 16.6503 6.99994 15.6992 6.99994H12.1305ZM11.2703 8.27111C11.5224 8.09461 11.8227 7.99994 12.1305 7.99994H15.6992C16.439 7.99994 17.1597 8.2343 17.7579 8.66939L21.719 11.5503C21.8688 11.6592 21.9461 11.842 21.9199 12.0254L21.5664 14.5001L20.0999 14.5001C19.7624 14.5001 19.5131 14.77 19.4981 15.0755C19.459 15.8686 18.8031 16.5001 17.9999 16.5001C17.1968 16.5001 16.5409 15.8686 16.5018 15.0755C16.4868 14.77 16.2375 14.5001 15.8999 14.5001H9.09995C8.76244 14.5001 8.51314 14.77 8.4981 15.0755C8.45904 15.8686 7.80308 16.5001 6.99995 16.5001C6.19681 16.5001 5.54085 15.8686 5.5018 15.0755C5.48676 14.77 5.23745 14.5001 4.89995 14.5001H2.88743C2.54615 14.5001 2.30517 14.1657 2.41309 13.8419L2.80076 12.679C2.85482 12.5168 2.98798 12.3935 3.15383 12.352L6.44185 11.53C6.61977 11.4855 6.78802 11.4088 6.93826 11.3036L11.2703 8.27111Z" fill="black"/>
<path d="M4.10626 7.36113L6.53943 9.4467L5.97255 9.84353L5.58023 9.94161L3.45547 8.12039C3.36485 8.04271 3.24943 8.00001 3.13008 8.00001H1.5C1.22386 8.00001 1 7.77616 1 7.50001C1 7.22387 1.22386 7.00001 1.5 7.00001H3.13008C3.48814 7.00001 3.8344 7.1281 4.10626 7.36113Z" fill="black"/>
</svg>
