<svg width="24" height="24" viewBox="0 0 24 24" fill="none" xmlns="http://www.w3.org/2000/svg">
<path d="M22.3809 1.625C22.9332 1.625 23.3809 2.07272 23.3809 2.625C23.3809 3.17728 22.9332 3.625 22.3809 3.625H19.9358C19.8164 3.625 19.701 3.6677 19.6104 3.74537L16.3453 6.54398L15.5477 5.96391C15.2512 5.74825 14.9397 5.55725 14.6162 5.39193L18.3088 2.22686C18.7619 1.83848 19.339 1.625 19.9358 1.625H22.3809Z" fill="black"/>
<path fill-rule="evenodd" clip-rule="evenodd" d="M20.8993 16.7463C20.8887 16.8202 20.8254 16.8751 20.7508 16.8751L18.0309 16.8751C17.948 16.8751 17.8811 16.9425 17.8781 17.0253C17.7991 19.1648 16.0397 20.875 13.8809 20.875C11.722 20.875 9.96268 19.1649 9.88363 17.0254C9.88057 16.9426 9.8137 16.8752 9.73086 16.8752L1.53086 16.8752C1.44802 16.8752 1.38086 16.8081 1.38086 16.7252L1.38086 8.32821C1.38086 8.27926 1.40474 8.23339 1.44484 8.20532L4.35613 6.16738C4.86039 5.8144 5.46102 5.62506 6.07654 5.62506H11.4297C12.6978 5.62506 13.9333 6.02682 14.9588 6.77267L20.9005 11.094C21.3498 11.4208 21.5817 11.9692 21.5031 12.5192L20.8993 16.7463ZM9.76001 7.00005H6.94664C6.33112 7.00005 5.7305 7.18937 5.22625 7.54235L3.59988 8.68081C2.7989 9.24149 3.19563 10.5 4.17334 10.5H12.6394C13.0233 10.5 13.264 10.0853 13.0735 9.75198L12.3647 8.51163C11.8306 7.5769 10.8366 7.00005 9.76001 7.00005ZM13.8809 14.875C12.7763 14.875 11.8809 15.7705 11.8809 16.875C11.8809 17.9796 12.7763 18.875 13.8809 18.875C14.9854 18.875 15.8809 17.9796 15.8809 16.875C15.8809 15.7705 14.9854 14.875 13.8809 14.875Z" fill="black"/>
</svg>
