<svg width="24" height="24" viewBox="0 0 24 24" fill="none" xmlns="http://www.w3.org/2000/svg">
<path fill-rule="evenodd" clip-rule="evenodd" d="M10.4101 7.04221C10.9144 6.68922 11.515 6.49988 12.1306 6.49988H15.6993C16.7561 6.49988 17.7856 6.83468 18.6402 7.45624L22.6014 10.3371C23.2005 10.7729 23.5097 11.5041 23.4049 12.2374L23.0023 15.0556C22.9249 15.5975 22.4608 16 21.9134 16L20.8292 16C20.4173 17.1654 19.3063 18 18 18C16.6937 18 15.5828 17.1654 15.1709 16H9.8292C9.41728 17.1654 8.30632 18 7.00003 18C5.69374 18 4.58279 17.1654 4.17087 16H2.88752C1.52241 16 0.558465 14.6626 0.990153 13.3675L1.37782 12.2045C1.59406 11.5558 2.12673 11.0626 2.79011 10.8967L6.07813 10.0747L10.4101 7.04221ZM12.1306 8.49988C11.9254 8.49988 11.7252 8.56299 11.5571 8.68066L7.22508 11.7132C7.02476 11.8534 6.80043 11.9557 6.5632 12.015L3.27519 12.837L2.88752 14H4.90003C5.51982 14 5.97392 14.495 6.00128 15.0508C6.02729 15.579 6.46481 16 7.00003 16C7.53526 16 7.97278 15.579 7.99879 15.0508C8.02615 14.495 8.48025 14 9.10003 14H15.9C16.5198 14 16.9739 14.495 17.0013 15.0508C17.0273 15.579 17.4648 16 18 16C18.5353 16 18.9728 15.579 18.9988 15.0508C19.0262 14.495 19.4803 14 20.1 14L21.1328 14L21.425 11.9546L17.4639 9.0737C16.9511 8.70076 16.3334 8.49988 15.6993 8.49988H12.1306Z" fill="black"/>
</svg>
