<svg width="24" height="24" viewBox="0 0 24 24" fill="none" xmlns="http://www.w3.org/2000/svg">
<path d="M23 4.74994C23.4143 4.74994 23.75 5.08573 23.75 5.49994C23.75 5.91415 23.4143 6.24994 23 6.24994H21.37C21.3103 6.24994 21.2526 6.27129 21.2073 6.31012L19.1105 8.10734L18.4934 7.65848C18.277 7.5011 18.0488 7.36307 17.8114 7.24525L20.2311 5.17124C20.5483 4.89938 20.9522 4.74994 21.37 4.74994H23Z" fill="black"/>
<path d="M10.8404 7.65661C11.2186 7.39187 11.6691 7.24986 12.1307 7.24986H15.6995C16.5977 7.24986 17.4728 7.53445 18.1993 8.06277L22.1604 10.9437C22.5348 11.216 22.7281 11.673 22.6626 12.1314L22.26 14.9495C22.2354 15.1219 22.0877 15.25 21.9135 15.25L20.2364 15.25C20.112 16.3751 19.1583 17.25 18.0002 17.25C16.842 17.25 15.8884 16.3751 15.7639 15.25H9.23644C9.11199 16.3751 8.15834 17.25 7.00019 17.25C5.84205 17.25 4.88839 16.3751 4.76394 15.25H2.88768C2.03448 15.25 1.43202 14.4141 1.70182 13.6047L2.08949 12.4417C2.22464 12.0363 2.55756 11.728 2.97217 11.6243L6.26019 10.8023C6.34915 10.7801 6.43328 10.7417 6.5084 10.6891L10.8404 7.65661Z" fill="black"/>
</svg>
