<svg width="24" height="24" viewBox="0 0 24 24" fill="none" xmlns="http://www.w3.org/2000/svg">
<path d="M22.3799 1.375C23.0703 1.375 23.6299 1.93464 23.6299 2.625C23.6299 3.31536 23.0703 3.875 22.3799 3.875H19.9348C19.8751 3.875 19.8174 3.89635 19.7721 3.93519L16.5522 6.69513L15.5468 5.96391C15.176 5.69429 14.7818 5.4632 14.3702 5.27267L18.1451 2.03704C18.6435 1.60983 19.2783 1.375 19.9348 1.375H22.3799Z" fill="black"/>
<path fill-rule="evenodd" clip-rule="evenodd" d="M20.8983 16.7463C20.8877 16.8202 20.8244 16.8751 20.7498 16.8751L18.2799 16.8751C18.197 16.8751 18.1301 16.9425 18.1273 17.0253C18.0481 19.3029 16.1768 21.125 13.8799 21.125C11.583 21.125 9.71169 19.303 9.63249 17.0254C9.62961 16.9426 9.56272 16.8752 9.47988 16.8752L1.52988 16.8752C1.44704 16.8752 1.37988 16.8081 1.37988 16.7252L1.37988 8.32821C1.37988 8.27926 1.40377 8.23339 1.44386 8.20532L4.35516 6.16738C4.85941 5.8144 5.46004 5.62506 6.07557 5.62506H11.4288C12.6968 5.62506 13.9323 6.02682 14.9578 6.77267L20.8995 11.094C21.3488 11.4208 21.5807 11.9692 21.5022 12.5192L20.8983 16.7463ZM9.75903 7.00005H6.94566C6.33015 7.00005 5.72953 7.18937 5.22528 7.54235L3.5989 8.68081C2.79793 9.24149 3.19465 10.5 4.17236 10.5H12.6384C13.0223 10.5 13.263 10.0853 13.0725 9.75198L12.3638 8.51163C11.8296 7.5769 10.8356 7.00005 9.75903 7.00005ZM13.8799 15.125C12.9134 15.125 12.1299 15.9085 12.1299 16.875C12.1299 17.8415 12.9134 18.625 13.8799 18.625C14.8464 18.625 15.6299 17.8415 15.6299 16.875C15.6299 15.9085 14.8464 15.125 13.8799 15.125Z" fill="black"/>
</svg>
