<svg width="24" height="24" viewBox="0 0 24 24" fill="none" xmlns="http://www.w3.org/2000/svg">
<path d="M7.80012 10.7031C8.49022 10.7033 9.04996 11.263 9.05012 11.9531C9.04998 12.6432 8.49023 13.2029 7.80012 13.2031H6.00032C5.31005 13.2031 4.75046 12.6434 4.75032 11.9531C4.75048 11.2629 5.31006 10.7031 6.00032 10.7031H7.80012Z" fill="black"/>
<path d="M18.0003 10.7031C18.6903 10.7034 19.2502 11.2631 19.2503 11.9531C19.2502 12.6432 18.6903 13.2028 18.0003 13.2031H16.2005C15.5102 13.2031 14.9507 12.6434 14.9505 11.9531C14.9507 11.2629 15.5103 10.7031 16.2005 10.7031H18.0003Z" fill="black"/>
<path fill-rule="evenodd" clip-rule="evenodd" d="M16.0638 3.46484C17.2896 3.46494 18.4349 4.08048 19.1107 5.10449L20.4691 7.16309L21.6859 6.61426C22.3148 6.33049 23.0549 6.60957 23.3392 7.23828C23.6232 7.86714 23.3437 8.60717 22.7152 8.8916L21.8626 9.27637L22.0198 9.51465C22.4131 10.111 22.6233 10.8102 22.6234 11.5244V14.9531C22.6234 15.7508 22.2399 16.4569 21.6497 16.9043V19.084C21.6496 20.1437 20.7905 21.0025 19.7308 21.0029H17.47C16.41 21.0029 15.5503 20.144 15.5501 19.084V17.4033H8.44954V19.084C8.44937 20.1438 7.59036 21.0026 6.53059 21.0029H4.26985C3.20984 21.0029 2.35009 20.144 2.34993 19.084V16.9033C1.76017 16.4559 1.37727 15.7504 1.37727 14.9531V11.5244C1.37731 10.8101 1.5874 10.1111 1.98079 9.51465L2.13704 9.27637L1.28547 8.8916C0.656569 8.60731 0.377353 7.8673 0.66145 7.23828C0.945838 6.60956 1.68583 6.33018 2.31477 6.61426L3.53059 7.16309L4.88997 5.10449C5.56546 4.08103 6.70977 3.46502 7.93586 3.46484H16.0638ZM4.84993 18.5029H5.94954V17.4033H4.84993V18.5029ZM18.0501 18.5029H19.1497V17.4033H18.0501V18.5029ZM4.66633 9.98145L4.06672 10.8906C3.94287 11.0784 3.8773 11.2993 3.87727 11.5244V14.9033H20.1234V11.5244C20.1233 11.2994 20.0567 11.0794 19.9329 10.8916L19.3323 9.98145H4.66633ZM7.93586 5.96484C7.54951 5.96496 7.18862 6.15916 6.9759 6.48145L6.31575 7.48145H17.6839L17.0247 6.48145C16.8122 6.15939 16.4507 5.96494 16.0638 5.96484H7.93586Z" fill="black"/>
</svg>
