<svg width="24" height="24" viewBox="0 0 24 24" fill="none" xmlns="http://www.w3.org/2000/svg">
<path d="M22.38 1.625C22.9323 1.625 23.38 2.07272 23.38 2.625C23.38 3.17728 22.9323 3.625 22.38 3.625H19.9349C19.8155 3.625 19.7001 3.6677 19.6095 3.74537L17.3199 5.70783L16.2821 4.953C16.0704 4.79908 15.8523 4.65582 15.6285 4.52348L18.3079 2.22686C18.761 1.83848 19.3381 1.625 19.9349 1.625H22.38Z" fill="black"/>
<path fill-rule="evenodd" clip-rule="evenodd" d="M6.07565 4.62506C5.25495 4.62506 4.45411 4.87751 3.78177 5.34815L0.806499 7.43088C0.354053 7.7476 0.244023 8.37113 0.560742 8.82358C0.87746 9.27603 1.50099 9.38605 1.95344 9.06934L4.92871 6.98661C5.26488 6.75128 5.6653 6.62506 6.07565 6.62506H11.4288C12.4856 6.62506 13.5151 6.95986 14.3697 7.5814L20.3114 11.9027C20.4612 12.0116 20.5385 12.1944 20.5123 12.3778L20.0311 15.7463C20.0205 15.8202 19.9572 15.8751 19.8826 15.8751L18.8703 15.8751C18.8018 15.8751 18.7423 15.8286 18.7233 15.7628C18.2415 14.0948 16.7032 12.875 14.88 12.875C13.0568 12.875 11.5185 14.0948 11.0366 15.7629C11.0176 15.8286 10.9581 15.8752 10.8897 15.8752L1.37996 15.8752C0.827674 15.8752 0.379963 16.323 0.379969 16.8753C0.379974 17.4275 0.827693 17.8752 1.37998 17.8752L10.8898 17.8752C10.9582 17.8752 11.0177 17.9217 11.0367 17.9874C11.5186 19.6553 13.0569 20.875 14.88 20.875C16.7031 20.875 18.2414 19.6553 18.7233 17.9873C18.7423 17.9216 18.8018 17.8751 18.8702 17.8751L20.88 17.8751C21.3776 17.8751 21.7995 17.5091 21.8699 17.0165L22.4922 12.6606C22.6232 11.7439 22.2367 10.8299 21.4878 10.2852L15.5461 5.96394C14.3496 5.09378 12.9083 4.62506 11.4288 4.62506H6.07565ZM14.88 14.875C13.7754 14.875 12.88 15.7705 12.88 16.875C12.88 17.9796 13.7754 18.875 14.88 18.875C15.9846 18.875 16.88 17.9796 16.88 16.875C16.88 15.7705 15.9846 14.875 14.88 14.875Z" fill="black"/>
</svg>
