<svg width="24" height="24" viewBox="0 0 24 24" fill="none" xmlns="http://www.w3.org/2000/svg">
<path d="M22.3809 2.125C22.6571 2.125 22.8809 2.34886 22.8809 2.625C22.8809 2.90114 22.6571 3.125 22.3809 3.125H19.9358C19.6971 3.125 19.4663 3.21039 19.285 3.36574L16.1248 6.07447L15.6948 5.76173C15.5595 5.66331 15.4212 5.56986 15.2801 5.48145L18.6342 2.60649C18.9967 2.29578 19.4584 2.125 19.9358 2.125H22.3809Z" fill="black"/>
<path fill-rule="evenodd" clip-rule="evenodd" d="M6.07658 5.12506C5.35847 5.12506 4.65774 5.34595 4.06944 5.75777L1.09417 7.8405C0.867944 7.99886 0.81293 8.31062 0.971289 8.53684C1.12965 8.76307 1.44141 8.81808 1.66764 8.65972L4.64291 6.57699C5.06312 6.28284 5.56365 6.12506 6.07658 6.12506H11.4298C12.5922 6.12506 13.7247 6.49334 14.6648 7.17703L20.6064 11.4983C20.906 11.7162 21.0606 12.0818 21.0082 12.4485L20.4657 16.2463C20.4551 16.3202 20.3918 16.3751 20.3172 16.3751L18.4756 16.3751C18.4009 16.3751 18.338 16.32 18.3247 16.2466C18.0286 14.6135 16.5994 13.375 14.8809 13.375C13.1624 13.375 11.7332 14.6135 11.4372 16.2467C11.4239 16.3201 11.3609 16.3752 11.2863 16.3752L1.3809 16.3752C1.10476 16.3752 0.8809 16.5991 0.880902 16.8752C0.880905 17.1514 1.10476 17.3752 1.38091 17.3752L11.2863 17.3752C11.361 17.3752 11.4239 17.4302 11.4372 17.5036C11.7334 19.1366 13.1625 20.375 14.8809 20.375C16.5994 20.375 18.0285 19.1366 18.3246 17.5036C18.338 17.4301 18.4009 17.3751 18.4755 17.3751L20.8809 17.3751C21.1297 17.3751 21.3407 17.1921 21.3759 16.9458L21.9982 12.5899C22.1029 11.8565 21.7937 11.1253 21.1946 10.6896L15.2529 6.3683C14.1419 5.5603 12.8035 5.12506 11.4298 5.12506H6.07658ZM14.8809 14.375C13.5002 14.375 12.3809 15.4943 12.3809 16.875C12.3809 18.2558 13.5002 19.375 14.8809 19.375C16.2616 19.375 17.3809 18.2558 17.3809 16.875C17.3809 15.4943 16.2616 14.375 14.8809 14.375Z" fill="black"/>
</svg>
