<svg width="24" height="24" viewBox="0 0 24 24" fill="none" xmlns="http://www.w3.org/2000/svg">
<path d="M22.3809 2.375C22.5189 2.375 22.6309 2.48693 22.6309 2.625C22.6309 2.76307 22.5189 2.875 22.3809 2.875H19.9358C19.6374 2.875 19.3488 2.98174 19.1223 3.17593L15.5268 6.25779L15.4007 6.16609C15.3033 6.09527 15.2043 6.0272 15.1036 5.96194L18.7969 2.7963C19.1141 2.52444 19.518 2.375 19.9358 2.375H22.3809Z" fill="black"/>
<path fill-rule="evenodd" clip-rule="evenodd" d="M20.8993 16.7463C20.8887 16.8202 20.8254 16.8751 20.7508 16.8751L17.2809 16.8751C17.198 16.8751 17.1312 16.9424 17.1275 17.0251C17.049 18.7504 15.6255 20.125 13.8809 20.125C12.1363 20.125 10.7127 18.7504 10.6343 17.0252C10.6305 16.9425 10.5637 16.8752 10.4809 16.8752L1.53086 16.8752C1.44802 16.8752 1.38086 16.8081 1.38086 16.7252L1.38086 8.32821C1.38086 8.27926 1.40474 8.23339 1.44484 8.20532L4.35613 6.16738C4.86039 5.8144 5.46102 5.62506 6.07654 5.62506H11.4297C12.6978 5.62506 13.9333 6.02682 14.9588 6.77267L20.9005 11.094C21.3498 11.4208 21.5817 11.9692 21.5031 12.5192L20.8993 16.7463ZM9.76001 7.00005H6.94664C6.33112 7.00005 5.7305 7.18937 5.22625 7.54235L3.59988 8.68081C2.7989 9.24149 3.19563 10.5 4.17334 10.5H12.6394C13.0233 10.5 13.264 10.0853 13.0735 9.75198L12.3647 8.51163C11.8306 7.5769 10.8366 7.00005 9.76001 7.00005ZM13.8809 14.125C12.3621 14.125 11.1309 15.3563 11.1309 16.875C11.1309 18.3938 12.3621 19.625 13.8809 19.625C15.3996 19.625 16.6309 18.3938 16.6309 16.875C16.6309 15.3563 15.3996 14.125 13.8809 14.125Z" fill="black"/>
</svg>
