<svg width="24" height="24" viewBox="0 0 24 24" fill="none" xmlns="http://www.w3.org/2000/svg">
<path d="M22.3799 2.375C22.518 2.375 22.6299 2.48693 22.6299 2.625C22.6299 2.76307 22.518 2.875 22.3799 2.875H19.9348C19.6364 2.875 19.3479 2.98174 19.1213 3.17593L15.5258 6.25779L15.3997 6.16609C15.3023 6.09527 15.2033 6.0272 15.1027 5.96194L18.7959 2.7963C19.1131 2.52444 19.517 2.375 19.9348 2.375H22.3799Z" fill="black"/>
<path fill-rule="evenodd" clip-rule="evenodd" d="M6.07559 5.37506C5.40877 5.37506 4.75809 5.58017 4.21181 5.96257L1.23654 8.0453C1.12343 8.12448 1.09592 8.28037 1.1751 8.39348C1.25428 8.50659 1.41016 8.5341 1.52327 8.45492L4.49854 6.37219C4.96078 6.04862 5.51135 5.87506 6.07559 5.87506H11.4288C12.644 5.87506 13.828 6.26008 14.8108 6.97485L20.7525 11.2961C21.1269 11.5685 21.3202 12.0255 21.2547 12.4838L20.6815 16.4963C20.6709 16.5702 20.6076 16.6251 20.533 16.6251L18.2595 16.6251C18.181 16.6251 18.1162 16.5645 18.1069 16.4866C17.915 14.8748 16.5434 13.625 14.8799 13.625C13.2164 13.625 11.8448 14.8749 11.6529 16.4867C11.6436 16.5646 11.5788 16.6251 11.5003 16.6251L1.3799 16.6252C1.24183 16.6252 1.1299 16.7372 1.1299 16.8752C1.1299 17.0133 1.24184 17.1252 1.37991 17.1252L11.5004 17.1251C11.5788 17.1251 11.6436 17.1857 11.6529 17.2636C11.8449 18.8753 13.2165 20.125 14.8799 20.125C16.5434 20.125 17.9149 18.8753 18.1069 17.2635C18.1162 17.1856 18.181 17.1251 18.2594 17.1251L20.8799 17.1251C21.0043 17.1251 21.1098 17.0336 21.1274 16.9104L21.7497 12.5545C21.8413 11.9128 21.5708 11.273 21.0466 10.8918L15.1049 6.57049C14.0366 5.79356 12.7497 5.37506 11.4288 5.37506H6.07559ZM14.8799 14.125C13.3611 14.125 12.1299 15.3563 12.1299 16.875C12.1299 18.3938 13.3611 19.625 14.8799 19.625C16.3987 19.625 17.6299 18.3938 17.6299 16.875C17.6299 15.3563 16.3987 14.125 14.8799 14.125Z" fill="black"/>
</svg>
