<svg width="24" height="24" viewBox="0 0 24 24" fill="none" xmlns="http://www.w3.org/2000/svg">
<path fill-rule="evenodd" clip-rule="evenodd" d="M0.139222 19.4743C-0.276167 17.6189 0.237744 15.5938 1.68405 14.1475C3.21183 12.6198 5.38443 12.1324 7.32306 12.6819L12.5604 7.44452C12.0109 5.50589 12.4983 3.33329 14.0261 1.80551C15.4724 0.359203 17.4974 -0.154707 19.3529 0.260682C20.3816 0.490975 20.5077 1.68788 19.9091 2.28645L17.5814 4.61417C17.4728 4.72272 17.4728 4.89873 17.5814 5.00728L18.956 6.38194C19.0646 6.49049 19.2406 6.49049 19.3491 6.38194L21.6769 4.05422C22.2754 3.45565 23.4723 3.58175 23.7026 4.61044C24.118 6.46591 23.6041 8.49093 22.1578 9.93724C20.6019 11.4932 18.3772 11.9701 16.4117 11.3714L11.25 16.5331C11.8486 18.4986 11.3717 20.7233 9.81578 22.2793C8.36947 23.7256 6.34445 24.2395 4.48898 23.8241C3.46029 23.5938 3.33419 22.3969 3.93276 21.7983L6.26048 19.4706C6.36903 19.3621 6.36903 19.1861 6.26048 19.0775L4.88582 17.7028C4.77726 17.5943 4.60126 17.5943 4.49271 17.7028L2.16499 20.0306C1.56642 20.6291 0.369518 20.503 0.139222 19.4743ZM1.51395 18.5603L3.43205 16.6422C4.12639 15.9478 5.25214 15.9478 5.94648 16.6422L7.32114 18.0168C8.01548 18.7112 8.01548 19.8369 7.32114 20.5313L5.40303 22.4494C6.60443 22.5472 7.83744 22.1363 8.75512 21.2186C9.99798 19.9757 10.3112 18.1533 9.69042 16.6178L9.50431 16.1575L16.036 9.62577L16.4964 9.81188C18.0318 10.4327 19.8543 10.1194 21.0971 8.87658C22.0148 7.95889 22.4257 6.7259 22.3279 5.52449L20.4098 7.4426C19.7155 8.13694 18.5897 8.13694 17.8954 7.4426L16.5207 6.06794C15.8264 5.3736 15.8264 4.24785 16.5207 3.55351L18.4388 1.63541C17.2374 1.53758 16.0044 1.94849 15.0867 2.86617C13.8667 4.08625 13.5424 5.86476 14.1183 7.3824L14.2904 7.83587L7.71441 14.4118L7.26094 14.2398C5.7433 13.6638 3.96479 13.9881 2.74471 15.2082C1.82703 16.1259 1.41612 17.3589 1.51395 18.5603Z" fill="black"/>
</svg>
