<svg width="24" height="24" viewBox="0 0 24 24" fill="none" xmlns="http://www.w3.org/2000/svg">
<path fill-rule="evenodd" clip-rule="evenodd" d="M15.7162 6.37489C16.7883 6.37826 17.8324 6.71779 18.7014 7.34568L18.7036 7.34724L22.6719 10.2334L22.6849 10.2428C23.3123 10.7044 23.6369 11.4721 23.531 12.2437L23.5303 12.2482L23.1206 15.1162C23.0379 15.695 22.5422 16.125 21.9574 16.125L20.917 16.125C20.4654 17.2951 19.3301 18.125 18.0007 18.125C16.6714 18.125 15.5361 17.2951 15.0844 16.125H9.91705C9.46538 17.2951 8.33007 18.125 7.00075 18.125C5.67142 18.125 4.53612 17.2951 4.08445 16.125L2.89995 16.125L2.86812 16.1249C1.43463 16.1114 0.425571 14.7113 0.866012 13.3471L0.868621 13.339L1.26334 12.1549C1.49411 11.474 2.05355 10.9559 2.75017 10.7781L2.7543 10.777L6.0261 9.95904L10.3448 6.93584L10.347 6.93434C10.868 6.57196 11.4871 6.37682 12.1217 6.37488L12.1243 6.37488L15.7162 6.37489ZM12.1286 8.62487C11.9513 8.62541 11.7783 8.67982 11.6326 8.78086C11.6323 8.78108 11.632 8.7813 11.6317 8.78152L7.2943 11.8178C7.08333 11.9649 6.8474 12.0725 6.598 12.1353L3.37278 12.9416L3.06166 13.875H4.95075C5.61088 13.875 6.11087 14.4067 6.12602 15.0225C6.13765 15.495 6.52499 15.875 7.00075 15.875C7.4765 15.875 7.86384 15.495 7.87547 15.0225C7.89063 14.4067 8.39062 13.875 9.05075 13.875H15.9507C16.6109 13.875 17.1109 14.4067 17.126 15.0225C17.1377 15.495 17.525 15.875 18.0007 15.875C18.4765 15.875 18.8638 15.495 18.8755 15.0225C18.8906 14.4067 19.3906 13.875 20.0508 13.875L21.0251 13.875L21.2913 12.0114L17.3837 9.16947C16.8966 8.81748 16.3113 8.62703 15.7103 8.62489C15.7099 8.62489 15.7095 8.62488 15.7091 8.62488L12.1286 8.62487Z" fill="black"/>
</svg>
