<svg width="24" height="24" viewBox="0 0 24 24" fill="none" xmlns="http://www.w3.org/2000/svg">
<path d="M22.9999 4.625C23.4831 4.625 23.8749 5.01675 23.8749 5.5C23.8749 5.98325 23.4831 6.375 22.9999 6.375H21.3698C21.34 6.375 21.3111 6.38567 21.2885 6.40509L20.1898 7.34682L19.2284 6.64763C19.061 6.52588 18.888 6.4133 18.7102 6.31014L20.1496 5.07639C20.4894 4.78511 20.9222 4.625 21.3698 4.625H22.9999Z" fill="black"/>
<path fill-rule="evenodd" clip-rule="evenodd" d="M12.1306 6.49993C11.515 6.49993 10.9144 6.68926 10.4101 7.04226L6.07813 10.0748L2.79011 10.8968C2.12673 11.0626 1.59406 11.5559 1.37782 12.2046L0.990153 13.3676C0.558465 14.6627 1.52241 16 2.88752 16H4.17087C4.58279 17.1654 5.69374 18 7.00003 18C8.30632 18 9.41728 17.1654 9.8292 16H15.1709C15.5828 17.1654 16.6937 18 18 18C19.3063 18 20.4173 17.1654 20.8292 16L21.9134 16C22.4608 16 22.9249 15.5975 23.0023 15.0556L23.4049 12.2375C23.5097 11.5041 23.2005 10.7729 22.6014 10.3372L18.6402 7.45629C17.7856 6.83473 16.7561 6.49993 15.6993 6.49993H12.1306ZM11.5571 8.6807C11.7252 8.56304 11.9254 8.49993 12.1306 8.49993H15.6993C16.3334 8.49993 16.9511 8.70081 17.4639 9.07374L21.425 11.9546L21.1328 14L20.1 14C19.4803 14 19.0262 14.4951 18.9988 15.0508C18.9728 15.5791 18.5353 16 18 16C17.4648 16 17.0273 15.5791 17.0013 15.0509C16.9739 14.4951 16.5198 14 15.9 14H9.10003C8.48025 14 8.02615 14.4951 7.99879 15.0509C7.97278 15.5791 7.53526 16 7.00003 16C6.46481 16 6.02729 15.5791 6.00128 15.0509C5.97392 14.4951 5.51982 14 4.90003 14H2.88752L3.27519 12.8371L6.5632 12.015C6.80043 11.9557 7.02476 11.8534 7.22508 11.7132L11.5571 8.6807Z" fill="black"/>
</svg>
