<svg width="24" height="24" viewBox="0 0 24 24" fill="none" xmlns="http://www.w3.org/2000/svg">
<path d="M22.3799 2.375C22.518 2.375 22.6299 2.48693 22.6299 2.625C22.6299 2.76307 22.518 2.875 22.3799 2.875H19.9348C19.6364 2.875 19.3479 2.98174 19.1213 3.17593L15.5258 6.25779L15.3997 6.16609C15.3023 6.09527 15.2033 6.0272 15.1027 5.96194L18.7959 2.7963C19.1131 2.52444 19.517 2.375 19.9348 2.375H22.3799Z" fill="black"/>
<path fill-rule="evenodd" clip-rule="evenodd" d="M20.8983 16.7463C20.8877 16.8202 20.8244 16.8751 20.7498 16.8751L17.2799 16.8751C17.197 16.8751 17.1302 16.9424 17.1265 17.0251C17.048 18.7504 15.6245 20.125 13.8799 20.125C12.1353 20.125 10.7117 18.7504 10.6333 17.0252C10.6295 16.9425 10.5627 16.8752 10.4799 16.8752L1.52988 16.8752C1.44704 16.8752 1.37988 16.8081 1.37988 16.7252L1.37988 8.32821C1.37988 8.27926 1.40377 8.23339 1.44386 8.20532L4.35516 6.16738C4.85941 5.8144 5.46004 5.62506 6.07557 5.62506H11.4288C12.6968 5.62506 13.9323 6.02682 14.9578 6.77267L20.8995 11.094C21.3488 11.4208 21.5807 11.9692 21.5022 12.5192L20.8983 16.7463ZM9.75903 7.00005H6.94566C6.33015 7.00005 5.72953 7.18937 5.22528 7.54235L3.5989 8.68081C2.79793 9.24149 3.19465 10.5 4.17236 10.5H12.6384C13.0223 10.5 13.263 10.0853 13.0725 9.75198L12.3638 8.51163C11.8296 7.5769 10.8356 7.00005 9.75903 7.00005ZM13.8799 14.125C12.3611 14.125 11.1299 15.3563 11.1299 16.875C11.1299 18.3938 12.3611 19.625 13.8799 19.625C15.3987 19.625 16.6299 18.3938 16.6299 16.875C16.6299 15.3563 15.3987 14.125 13.8799 14.125Z" fill="black"/>
</svg>
