<svg width="24" height="24" viewBox="0 0 24 24" fill="none" xmlns="http://www.w3.org/2000/svg">
<path d="M5.53439 4.91667L9.28213 8.12902L8.38657 8.75593L7.86172 8.88714L4.55821 6.05556C4.42228 5.93904 4.24915 5.875 4.07011 5.875H1.625C1.21079 5.875 0.875 5.53921 0.875 5.125C0.875 4.71079 1.21079 4.375 1.625 4.375H4.07011C4.60721 4.375 5.1266 4.56713 5.53439 4.91667Z" fill="black"/>
<path fill-rule="evenodd" clip-rule="evenodd" d="M16.2805 6.28181C16.6586 6.01707 17.1091 5.87507 17.5708 5.87507H22.0001C22.4143 5.87507 22.7501 5.53929 22.7501 5.12507C22.7501 4.71086 22.4143 4.37507 22.0001 4.37507H17.5708C16.8014 4.37507 16.0506 4.61174 15.4202 5.05297L8.92225 9.60166C8.84713 9.65424 8.763 9.69261 8.67404 9.71485L3.74201 10.9478C2.99571 11.1344 2.39645 11.6893 2.15318 12.4191L1.57169 14.1635C1.08604 15.6205 2.17047 17.1251 3.70623 17.1251H6.20002C6.54748 18.8367 8.06079 20.125 9.875 20.125C11.6892 20.125 13.2025 18.8367 13.55 17.1251H22.0001C22.4143 17.1251 22.7501 16.7893 22.7501 16.3751C22.7501 15.9609 22.4143 15.6251 22.0001 15.6251H13.55C13.2025 13.9134 11.6892 12.625 9.875 12.625C8.06077 12.625 6.54745 13.9134 6.20001 15.6251H3.70623C3.19431 15.6251 2.83283 15.1235 2.99472 14.6379L3.5762 12.8935C3.65729 12.6502 3.85704 12.4652 4.10581 12.403L9.03784 11.1701C9.30471 11.1033 9.55709 10.9883 9.78245 10.8305L16.2805 6.28181ZM9.875 14.125C8.63236 14.125 7.625 15.1324 7.625 16.375C7.625 17.6177 8.63236 18.625 9.875 18.625C11.1176 18.625 12.125 17.6177 12.125 16.375C12.125 15.1324 11.1176 14.125 9.875 14.125Z" fill="black"/>
</svg>
