<svg width="24" height="24" viewBox="0 0 24 24" fill="none" xmlns="http://www.w3.org/2000/svg">
<path fill-rule="evenodd" clip-rule="evenodd" d="M10.8401 7.65663C11.2183 7.39188 11.6688 7.24988 12.1305 7.24988H15.6992C16.5975 7.24988 17.4726 7.53446 18.199 8.06279L22.1601 10.9437C22.5346 11.216 22.7278 11.673 22.6623 12.1314L22.2598 14.9495C22.2351 15.1219 22.0875 15.25 21.9133 15.25L20.2362 15.25C20.1118 16.3751 19.1581 17.25 17.9999 17.25C16.8418 17.25 15.8881 16.3751 15.7637 15.25H9.2362C9.11175 16.3751 8.15809 17.25 6.99995 17.25C5.8418 17.25 4.88815 16.3751 4.7637 15.25H2.88743C2.03424 15.25 1.43177 14.4141 1.70158 13.6047L2.08924 12.4417C2.22439 12.0363 2.55731 11.728 2.97193 11.6243L6.25995 10.8023C6.34891 10.7801 6.43303 10.7417 6.50815 10.6891L10.8401 7.65663ZM12.1305 7.74988C11.7714 7.74988 11.421 7.86033 11.1269 8.06624L6.79489 11.0987C6.66969 11.1864 6.52948 11.2503 6.38122 11.2874L3.0932 12.1094C2.84443 12.1716 2.64467 12.3566 2.56359 12.5998L2.17592 13.7628C2.01404 14.2485 2.37552 14.75 2.88743 14.75H4.89995C5.09632 14.75 5.24322 14.9074 5.2521 15.0877C5.29768 16.0133 6.06286 16.75 6.99995 16.75C7.93703 16.75 8.70222 16.0133 8.74779 15.0877C8.75667 14.9074 8.90358 14.75 9.09995 14.75H15.8999C16.0963 14.75 16.2432 14.9074 16.2521 15.0877C16.2977 16.0133 17.0629 16.75 17.9999 16.75C18.937 16.75 19.7022 16.0133 19.7478 15.0877C19.7567 14.9074 19.9036 14.75 20.0999 14.75L21.7832 14.75L22.1674 12.0607C22.2067 11.7857 22.0907 11.5115 21.866 11.3481L17.9049 8.46715C17.264 8.00098 16.4918 7.74988 15.6992 7.74988H12.1305Z" fill="black"/>
</svg>
