<svg width="24" height="24" viewBox="0 0 24 24" fill="none" xmlns="http://www.w3.org/2000/svg">
<path fill-rule="evenodd" clip-rule="evenodd" d="M4.99971 1.5C4.99971 1.22386 5.22356 1 5.49971 1H18.4997C18.7758 1 18.9997 1.22386 18.9997 1.5V2.25H20.7083C21.5596 2.25 22.2497 2.94011 22.2497 3.79142C22.2497 6.35312 20.8662 8.7151 18.6318 9.96799L16.5189 11.1527L16.5163 11.1542L16.0147 11.4381C14.9657 12.9009 14.4804 14.7006 14.6582 16.5H9.3412C9.52475 14.6421 9.00144 12.7838 7.88058 11.2964L7.55066 11.1916L5.36843 9.96799C3.13402 8.7151 1.75049 6.35312 1.75049 3.79142C1.75049 2.94011 2.44061 2.25 3.2919 2.25H4.99971V1.5ZM4.99971 3.75V4.8264C4.99971 6.11237 5.29345 7.36908 5.8448 8.5062C4.23537 7.48692 3.25049 5.71026 3.25049 3.79142C3.25049 3.76854 3.26903 3.75 3.2919 3.75H4.99971ZM20.7083 3.75H18.9997V4.8264C18.9997 6.11264 18.7058 7.36961 18.1543 8.50692C19.7644 7.48775 20.7497 5.71071 20.7497 3.79142C20.7497 3.76854 20.7312 3.75 20.7083 3.75Z" fill="black"/>
<path d="M16.4997 18C16.7291 18 16.9291 18.1561 16.9848 18.3787L17.9848 22.3787C18.0221 22.5281 17.9886 22.6863 17.8938 22.8077C17.7991 22.9291 17.6537 23 17.4997 23H6.49971C6.34574 23 6.20036 22.9291 6.1056 22.8077C6.01085 22.6863 5.97729 22.5281 6.01464 22.3787L7.01464 18.3787C7.07028 18.1561 7.27027 18 7.49971 18H16.4997Z" fill="black"/>
</svg>
