<svg width="24" height="24" viewBox="0 0 24 24" fill="none" xmlns="http://www.w3.org/2000/svg">
<path fill-rule="evenodd" clip-rule="evenodd" d="M5.24958 1.5C5.24958 1.36193 5.36151 1.25 5.49958 1.25H18.4996C18.6377 1.25 18.7496 1.36193 18.7496 1.5V2.75H20.7082C21.2833 2.75 21.7496 3.21626 21.7496 3.79142C21.7496 6.17224 20.4637 8.36745 18.3871 9.53188L16.2717 10.7181L16.2695 10.7143C14.7196 12.4881 14.0649 14.8817 14.5079 17.2076L14.6112 17.75H9.38795L9.49126 17.2076C9.93424 14.882 9.27971 12.4886 7.7301 10.7148L7.72829 10.7181L5.61285 9.53188C3.53621 8.36745 2.25037 6.17224 2.25037 3.79142C2.25037 3.21626 2.71662 2.75 3.29178 2.75H5.24958V1.5ZM5.24958 3.25V4.8264C5.24958 6.55993 5.79967 8.23866 6.80584 9.62758L5.8574 9.09576C3.93852 8.01979 2.75037 5.99137 2.75037 3.79142C2.75037 3.4924 2.99277 3.25 3.29178 3.25H5.24958ZM20.7082 3.25H18.7496V4.8264C18.7496 6.56023 18.1993 8.23925 17.1928 9.62831L18.1426 9.09576C20.0614 8.01979 21.2496 5.99137 21.2496 3.79142C21.2496 3.4924 21.0072 3.25 20.7082 3.25Z" fill="black"/>
<path d="M16.4996 18.25C16.6143 18.25 16.7143 18.3281 16.7421 18.4394L17.7421 22.4394C17.7608 22.5141 17.744 22.5932 17.6966 22.6539C17.6493 22.7145 17.5766 22.75 17.4996 22.75H6.49958C6.4226 22.75 6.34991 22.7145 6.30253 22.6539C6.25516 22.5932 6.23838 22.5141 6.25705 22.4394L7.25705 18.4394C7.28487 18.3281 7.38487 18.25 7.49958 18.25H16.4996Z" fill="black"/>
</svg>
