<svg width="24" height="24" viewBox="0 0 24 24" fill="none" xmlns="http://www.w3.org/2000/svg">
<path fill-rule="evenodd" clip-rule="evenodd" d="M5.49998 0.750244C5.08576 0.750244 4.74998 1.08603 4.74998 1.50024V2.25024H3.29178C2.44048 2.25024 1.75037 2.94036 1.75037 3.79166C1.75037 6.35337 3.1339 8.71534 5.36831 9.96824L7.41667 11.1168C8.8203 12.7675 9.40861 14.9716 9.00048 17.1143L8.87935 17.7502H7.49998C7.15582 17.7502 6.85584 17.9845 6.77237 18.3183L5.77237 22.3183C5.71635 22.5424 5.76669 22.7798 5.90882 22.9618C6.05095 23.1438 6.26902 23.2502 6.49998 23.2502H17.5C17.7309 23.2502 17.949 23.1438 18.0911 22.9618C18.2333 22.7798 18.2836 22.5424 18.2276 22.3183L17.2276 18.3183C17.1441 17.9845 16.8441 17.7502 16.5 17.7502H15.1206L14.9995 17.1143C14.5913 14.9716 15.1797 12.7675 16.5833 11.1168L18.6316 9.96824C20.8661 8.71534 22.2496 6.35337 22.2496 3.79166C22.2496 2.94036 21.5595 2.25024 20.7082 2.25024H19.25V1.50024C19.25 1.08603 18.9142 0.750244 18.5 0.750244H5.49998ZM5.44336 8.22692C4.07306 7.18039 3.25037 5.54541 3.25037 3.79166C3.25037 3.76879 3.26891 3.75024 3.29178 3.75024H4.74998V4.82664C4.74998 6.00587 4.98986 7.16119 5.44336 8.22692ZM19.25 4.82664C19.25 6.00587 19.0101 7.1612 18.5566 8.22693C19.9269 7.18039 20.7496 5.54541 20.7496 3.79166C20.7496 3.76879 20.731 3.75024 20.7082 3.75024H19.25V4.82664ZM13.5936 17.7502H10.4063L10.474 17.395C10.998 14.644 10.1631 11.8091 8.23177 9.78113C6.95957 8.44532 6.24998 6.67133 6.24998 4.82664V2.25024H17.75V4.82664C17.75 6.67133 17.0404 8.44532 15.7682 9.78113C13.8368 11.8091 13.002 14.644 13.526 17.395L13.5936 17.7502ZM15.9144 19.2502L16.5394 21.7502H7.46056L8.08556 19.2502H15.9144Z" fill="black"/>
</svg>
