<svg width="25" height="24" viewBox="0 0 25 24" fill="none" xmlns="http://www.w3.org/2000/svg">
<path d="M1.87223 1.90571C1.57934 1.61281 1.10447 1.61281 0.811572 1.90571C0.51868 2.1986 0.51868 2.67347 0.811572 2.96637L18.3674 20.5222C18.6603 20.8151 19.1352 20.8151 19.4281 20.5222C19.721 20.2293 19.721 19.7545 19.4281 19.4616L1.87223 1.90571Z" fill="black"/>
<path fill-rule="evenodd" clip-rule="evenodd" d="M5.6061 3.16471L8.1061 5.66471H11.9048C12.7157 5.66471 13.2488 5.66568 13.6567 5.69901C14.0501 5.73115 14.2158 5.78703 14.3121 5.8361C14.608 5.98685 14.8485 6.22741 14.9993 6.52328C15.0484 6.61958 15.1042 6.78529 15.1364 7.17864C15.1697 7.58658 15.1707 8.11964 15.1707 8.93063V11.2373C15.1702 11.289 15.1704 11.338 15.1706 11.3837L15.1707 11.4202V12.5799L15.1706 12.6162C15.1704 12.6519 15.1703 12.6897 15.1705 12.7291L20.6655 18.2241C20.6823 18.241 20.6989 18.2579 20.7151 18.2751C21.0119 18.444 21.3987 18.6081 21.8507 18.6058C22.5585 18.6022 23.2264 18.2776 23.6665 17.7233C24.0228 17.2744 24.1042 16.7426 24.138 16.3714C24.1725 15.9912 24.1725 15.5138 24.1725 14.9879V9.01212C24.1725 8.48627 24.1725 8.00891 24.138 7.62864C24.1042 7.25742 24.0228 6.72563 23.6665 6.27679C23.2264 5.72245 22.5585 5.39781 21.8507 5.39423C21.2776 5.39133 20.8092 5.65591 20.4964 5.85871C20.176 6.06644 19.8007 6.36138 19.3873 6.68627L17.668 8.03716C17.6639 7.64233 17.6537 7.28817 17.6281 6.97506C17.5833 6.42711 17.4854 5.89577 17.2268 5.38831C16.8364 4.62202 16.2134 3.99902 15.4471 3.60858C14.9396 3.35001 14.4083 3.25208 13.8603 3.20731C13.3384 3.16467 12.7024 3.16469 11.9542 3.16471L5.6061 3.16471ZM20.8898 8.68511C21.2302 8.41761 21.4735 8.22733 21.6627 8.09029C21.6718 8.32372 21.6725 8.63255 21.6725 9.06552V14.9345C21.6725 15.3675 21.6718 15.6763 21.6627 15.9098C21.4735 15.7727 21.2302 15.5824 20.8898 15.3149L17.8556 12.931C17.7934 12.8821 17.7457 12.8446 17.7047 12.8117L17.6719 12.7851L17.6713 12.7429C17.6708 12.6904 17.6708 12.6297 17.6708 12.5506V11.4495C17.6708 11.3703 17.6708 11.3096 17.6713 11.2571L17.6719 11.2149L17.7047 11.1884C17.7457 11.1555 17.7934 11.118 17.8556 11.0691L20.8898 8.68511Z" fill="black"/>
<path d="M0.555024 5.1847L2.53543 7.1651L2.5343 7.17864C2.50097 7.58658 2.5 8.11964 2.5 8.93063V15.0695C2.5 15.8804 2.50097 16.4135 2.5343 16.8215C2.56644 17.2148 2.62232 17.3805 2.67139 17.4768C2.82214 17.7727 3.0627 18.0132 3.35857 18.164C3.45487 18.2131 3.62058 18.2689 4.01393 18.3011C4.42187 18.3344 4.95493 18.3354 5.76592 18.3354H11.9048C12.7157 18.3354 13.2488 18.3344 13.6567 18.3011L13.6703 18.3L15.6507 20.2804C15.584 20.3193 15.5161 20.3563 15.4471 20.3915C14.9396 20.6501 14.4083 20.748 13.8603 20.7928C13.3384 20.8354 12.7024 20.8354 11.9541 20.8354H5.71657C4.96826 20.8354 4.33227 20.8354 3.81035 20.7928C3.2624 20.748 2.73106 20.6501 2.2236 20.3915C1.45732 20.0011 0.834311 19.3781 0.443871 18.6118C0.185306 18.1043 0.0873747 17.573 0.0426054 17.025C-3.72231e-05 16.5031 -2.00558e-05 15.8671 9.25018e-07 15.1188V8.88131C-2.00558e-05 8.13299 -3.72231e-05 7.49699 0.0426054 6.97506C0.0873747 6.42711 0.185307 5.89577 0.443871 5.38831C0.479056 5.31925 0.516128 5.25136 0.555024 5.1847Z" fill="black"/>
</svg>
