<svg width="24" height="24" viewBox="0 0 24 24" fill="none" xmlns="http://www.w3.org/2000/svg">
<path d="M1.44446 2.25926C1.34683 2.16163 1.18854 2.16163 1.09091 2.25926C0.993275 2.35689 0.993275 2.51518 1.09091 2.61281L18.6468 20.1687C18.7444 20.2663 18.9027 20.2663 19.0003 20.1687C19.0979 20.071 19.0979 19.9127 19.0003 19.8151L1.44446 2.25926Z" fill="black"/>
<path fill-rule="evenodd" clip-rule="evenodd" d="M5.6802 4.16471C5.34421 4.16471 5.04146 4.16471 4.76724 4.16784L5.26438 4.66498C5.39963 4.66471 5.54186 4.66471 5.6917 4.66471H11.8305C12.625 4.66471 13.2059 4.6649 13.664 4.70233C14.1191 4.73952 14.4311 4.81222 14.6919 4.94509C15.1759 5.19172 15.5694 5.58525 15.8161 6.06929C15.9489 6.33005 16.0216 6.64202 16.0588 7.09721C16.0963 7.55531 16.0965 8.13614 16.0965 8.93063V15.0695C16.0965 15.2193 16.0964 15.3615 16.0962 15.4968L16.5933 15.9939C16.5965 15.7198 16.5965 15.4172 16.5965 15.0813V13.9036C16.6634 13.9603 16.7398 14.0202 16.8276 14.0892L19.8995 16.5028C20.3401 16.849 20.6846 17.1197 20.9662 17.3023C21.2464 17.484 21.5056 17.6072 21.7714 17.6058C22.1759 17.6038 22.5576 17.4183 22.8091 17.1015C22.9743 16.8933 23.0376 16.6134 23.0679 16.2808C23.0982 15.9466 23.0982 15.5086 23.0982 14.9483V9.05193C23.0982 8.49166 23.0982 8.05344 23.0679 7.71922C23.0376 7.38664 22.9743 7.10672 22.8091 6.89858C22.5576 6.58178 22.1759 6.39626 21.7714 6.39422C21.5056 6.39287 21.2464 6.51606 20.9662 6.69776C20.6846 6.88036 20.3401 7.15103 19.8995 7.49723L16.8276 9.91084C16.7398 9.9798 16.6634 10.0398 16.5965 10.0965V8.91912C16.5965 8.13851 16.5965 7.53731 16.5572 7.05649C16.5175 6.57038 16.4363 6.18529 16.2616 5.84229C15.967 5.26418 15.497 4.79415 14.9189 4.49958C14.5759 4.32482 14.1908 4.24371 13.7047 4.20399C13.2238 4.16471 12.6227 4.16471 11.842 4.16471H5.6802ZM20.1977 7.89879C20.6513 7.54241 20.978 7.28602 21.2383 7.11728C21.5022 6.94614 21.6568 6.89364 21.7688 6.89421C22.0217 6.89549 22.2603 7.01145 22.4175 7.20948C22.4872 7.29727 22.5414 7.45125 22.5699 7.7645C22.598 8.07339 22.5982 8.48868 22.5982 9.06552V14.9345C22.5982 15.5114 22.598 15.9267 22.5699 16.2356C22.5414 16.5488 22.4872 16.7028 22.4175 16.7906C22.2603 16.9886 22.0217 17.1046 21.7688 17.1058C21.6568 17.1064 21.5022 17.0539 21.2383 16.8828C20.978 16.714 20.6513 16.4576 20.1977 16.1013L17.1636 13.7173C16.9093 13.5175 16.8209 13.4453 16.7582 13.36C16.6985 13.2787 16.6541 13.1872 16.6271 13.0901C16.5987 12.9881 16.5965 12.874 16.5965 12.5506V11.4495C16.5965 11.1261 16.5987 11.0119 16.6271 10.91C16.6541 10.8128 16.6985 10.7214 16.7582 10.6401C16.8209 10.5548 16.9093 10.4826 17.1636 10.2828L20.1977 7.89879Z" fill="black"/>
<path d="M1.98236 4.91849L2.33694 5.27307C2.07734 5.49266 1.86231 5.76284 1.70616 6.06929C1.5733 6.33005 1.5006 6.64202 1.4634 7.09721C1.42598 7.55531 1.42578 8.13614 1.42578 8.93063V15.0695C1.42578 15.8639 1.42598 16.4448 1.4634 16.9029C1.5006 17.3581 1.5733 17.67 1.70616 17.9308C1.95279 18.4148 2.34633 18.8084 2.83036 19.055C3.09112 19.1879 3.40309 19.2606 3.85828 19.2978C4.31639 19.3352 4.89721 19.3354 5.6917 19.3354H11.8305C12.625 19.3354 13.2058 19.3352 13.664 19.2978C14.1191 19.2606 14.4311 19.1879 14.6919 19.055C14.9983 18.8989 15.2685 18.6838 15.4881 18.4242L15.8427 18.7788C15.5854 19.0747 15.2723 19.3204 14.9189 19.5005C14.5759 19.6753 14.1908 19.7564 13.7047 19.7961C13.2238 19.8354 12.6227 19.8354 11.8421 19.8354H5.68019C4.89956 19.8354 4.29839 19.8354 3.81756 19.7961C3.33145 19.7564 2.94636 19.6753 2.60337 19.5005C2.02525 19.2059 1.55523 18.7359 1.26066 18.1578C1.08589 17.8148 1.00478 17.4297 0.965065 16.9436C0.925779 16.4628 0.925779 15.8616 0.925781 15.081V8.91912C0.925779 8.13849 0.925779 7.53732 0.965065 7.05649C1.00478 6.57038 1.08589 6.18529 1.26066 5.84229C1.44077 5.48882 1.68646 5.17575 1.98236 4.91849Z" fill="black"/>
</svg>
