<svg width="24" height="24" viewBox="0 0 24 24" fill="none" xmlns="http://www.w3.org/2000/svg">
<path fill-rule="evenodd" clip-rule="evenodd" d="M5.66079 3.66467C4.8975 3.66467 4.27914 3.66466 3.77782 3.70562C3.2608 3.74786 2.80258 3.83738 2.37735 4.05405C1.70515 4.39655 1.15863 4.94307 0.816132 5.61527C0.599467 6.04049 0.509945 6.49871 0.467703 7.01574C0.426745 7.51703 0.42675 8.13537 0.426758 8.89862V15.1013C0.42675 15.8646 0.426745 16.483 0.467703 16.9843C0.509945 17.5013 0.599467 17.9595 0.816132 18.3848C1.15863 19.057 1.70515 19.6035 2.37735 19.946C2.80258 20.1626 3.26079 20.2522 3.77782 20.2944C4.27912 20.3354 4.89744 20.3354 5.66069 20.3353H11.8634C12.6267 20.3354 13.2451 20.3354 13.7464 20.2944C14.2634 20.2522 14.7216 20.1626 15.1468 19.946C15.819 19.6035 16.3656 19.057 16.7081 18.3848C16.9247 17.9595 17.0142 17.5013 17.0565 16.9843C17.0974 16.483 17.0974 15.8646 17.0974 15.1014V14.9363L19.6092 16.9098C20.0347 17.2441 20.3943 17.5267 20.6952 17.7218C20.9917 17.914 21.3555 18.1079 21.7749 18.1058C22.331 18.103 22.8558 17.8479 23.2017 17.4123C23.4625 17.0838 23.5348 16.678 23.5668 16.3261C23.5993 15.969 23.5992 15.5116 23.5992 14.9705V9.02953C23.5992 8.48835 23.5993 8.03104 23.5668 7.6739C23.5348 7.32199 23.4625 6.91614 23.2017 6.58765C22.8558 6.15208 22.331 5.897 21.7749 5.89419C21.3555 5.89207 20.9917 6.08595 20.6952 6.2782C20.3943 6.47331 20.0347 6.75586 19.6092 7.09022L17.0974 9.06373V8.89869C17.0974 8.13541 17.0974 7.51704 17.0565 7.01574C17.0142 6.49871 16.9247 6.04049 16.7081 5.61527C16.3656 4.94307 15.819 4.39655 15.1468 4.05405C14.7216 3.83738 14.2634 3.74786 13.7464 3.70562C13.2451 3.66466 12.6267 3.66467 11.8634 3.66467H5.66079ZM15.5974 11.3876C15.5974 11.354 15.5973 11.3202 15.5974 11.2864V8.93059C15.5974 8.12786 15.5968 7.57091 15.5615 7.13789C15.5268 6.71362 15.4625 6.47478 15.3715 6.29625C15.1729 5.90629 14.8558 5.58925 14.4659 5.39056C14.2873 5.29959 14.0485 5.2353 13.6242 5.20064C13.1912 5.16526 12.6342 5.16467 11.8315 5.16467H5.69268C4.88994 5.16467 4.333 5.16526 3.89997 5.20064C3.4757 5.2353 3.23686 5.29959 3.05834 5.39056C2.66838 5.58925 2.35133 5.90629 2.15264 6.29625C2.06168 6.47478 1.99739 6.71362 1.96272 7.13789C1.92734 7.57091 1.92676 8.12786 1.92676 8.93059V15.0694C1.92676 15.8722 1.92734 16.4291 1.96272 16.8621C1.99739 17.2864 2.06168 17.5252 2.15264 17.7038C2.35133 18.0937 2.66838 18.4108 3.05834 18.6095C3.23686 18.7004 3.4757 18.7647 3.89997 18.7994C4.333 18.8348 4.88994 18.8353 5.69268 18.8353H11.8315C12.6342 18.8353 13.1912 18.8348 13.6242 18.7994C14.0485 18.7647 14.2873 18.7004 14.4659 18.6095C14.8558 18.4108 15.1729 18.0937 15.3715 17.7038C15.4625 17.5252 15.5268 17.2864 15.5615 16.8621C15.5968 16.4291 15.5974 15.8722 15.5974 15.0694V12.7136C15.5973 12.6798 15.5974 12.646 15.5974 12.6124V11.3876ZM20.5076 8.29192C20.969 7.92937 21.2747 7.69018 21.5113 7.53677C21.6887 7.42169 21.7647 7.39842 21.7782 7.3944C21.8717 7.39792 21.9594 7.44058 22.02 7.51193C22.0252 7.52502 22.0538 7.59911 22.0729 7.80976C22.0985 8.09057 22.0992 8.47868 22.0992 9.06549V14.9345C22.0992 15.5213 22.0985 15.9094 22.0729 16.1902C22.0538 16.4009 22.0252 16.475 22.02 16.4881C21.9594 16.5594 21.8717 16.6021 21.7782 16.6056C21.7647 16.6016 21.6887 16.5783 21.5113 16.4632C21.2747 16.3098 20.969 16.0706 20.5076 15.7081L17.4735 13.3241C17.1971 13.1069 17.175 13.0814 17.1622 13.064C17.1383 13.0315 17.1205 12.9949 17.1097 12.956C17.104 12.9353 17.0975 12.9021 17.0975 12.5505V11.4495C17.0975 11.0979 17.104 11.0647 17.1097 11.044C17.1205 11.0051 17.1383 10.9685 17.1622 10.936C17.175 10.9186 17.1971 10.8931 17.4735 10.6759L20.5076 8.29192Z" fill="black"/>
</svg>
