<svg width="24" height="24" viewBox="0 0 24 24" fill="none" xmlns="http://www.w3.org/2000/svg">
<path d="M1.79802 1.90571C1.50512 1.61281 1.03025 1.61281 0.737357 1.90571C0.444464 2.1986 0.444464 2.67347 0.737357 2.96637L18.2932 20.5222C18.5861 20.8151 19.061 20.8151 19.3539 20.5222C19.6468 20.2293 19.6468 19.7545 19.3539 19.4616L1.79802 1.90571Z" fill="black"/>
<path fill-rule="evenodd" clip-rule="evenodd" d="M5.78188 3.41471L7.78188 5.41471H11.8305C12.6374 5.41471 13.1824 5.41549 13.6029 5.44984C14.0117 5.48324 14.214 5.54333 14.3514 5.61334C14.6943 5.78807 14.9731 6.06687 15.1478 6.40978C15.2178 6.54719 15.2779 6.74947 15.3113 7.15828C15.3457 7.57876 15.3465 8.12377 15.3465 8.93063V11.2577C15.3462 11.3015 15.3463 11.3442 15.3464 11.3855L15.3465 11.4087V12.5913L15.3464 12.6146C15.3463 12.6558 15.3462 12.6986 15.3465 12.7424V12.9793L19.5462 17.179C19.9301 17.4805 20.2688 17.7439 20.5582 17.9316C20.8628 18.1291 21.2789 18.3583 21.7752 18.3558C22.4072 18.3526 23.0035 18.0628 23.3965 17.5678C23.7051 17.1792 23.7819 16.7103 23.8148 16.3488C23.8483 15.9801 23.8483 15.513 23.8483 14.9799V9.02032C23.8483 8.48729 23.8483 8.01992 23.8148 7.65129C23.7819 7.28972 23.7051 6.8209 23.3965 6.43224C23.0035 5.93728 22.4072 5.64742 21.7752 5.64423C21.2789 5.64171 20.8628 5.87095 20.5582 6.06847C20.2476 6.26988 19.8802 6.55856 19.4611 6.88793L17.3463 8.54951C17.3455 7.94362 17.34 7.42819 17.3047 6.99542C17.2612 6.46293 17.1675 5.96815 16.9298 5.5018C16.5634 4.78256 15.9786 4.1978 15.2594 3.83133C14.793 3.59372 14.2982 3.49999 13.7657 3.45648C13.2542 3.41468 12.627 3.41469 11.8715 3.41471H5.78188ZM20.6611 8.48853C21.1264 8.12291 21.4216 7.8923 21.6463 7.74656C21.7177 7.70027 21.7676 7.67253 21.7994 7.65639C21.8063 7.69132 21.8153 7.7477 21.823 7.83243C21.8473 8.09921 21.8483 8.47373 21.8483 9.06552V14.9345C21.8483 15.5263 21.8473 15.9008 21.823 16.1676C21.8153 16.2524 21.8063 16.3087 21.7994 16.3437C21.7676 16.3275 21.7177 16.2998 21.6463 16.2535C21.4216 16.1078 21.1264 15.8772 20.6611 15.5115L17.627 13.1276C17.4975 13.0258 17.4301 12.9725 17.3825 12.9309C17.3704 12.9204 17.3625 12.913 17.3578 12.9085C17.3558 12.905 17.354 12.9013 17.3525 12.8976C17.3519 12.891 17.351 12.8803 17.3501 12.8643C17.3468 12.8011 17.3465 12.7152 17.3465 12.5506V11.4495C17.3465 11.2848 17.3468 11.1989 17.3501 11.1357C17.351 11.1198 17.3519 11.109 17.3525 11.1025C17.354 11.0987 17.3558 11.0951 17.3578 11.0916C17.3625 11.087 17.3704 11.0797 17.3825 11.0692C17.4301 11.0275 17.4975 10.9742 17.627 10.8725L20.6611 8.48853Z" fill="black"/>
<path d="M0.664011 5.36791L2.23388 6.93777C2.22525 7.00385 2.21756 7.07698 2.21092 7.15828C2.17656 7.57876 2.17578 8.12377 2.17578 8.93063V15.0695C2.17578 15.8763 2.17656 16.4213 2.21092 16.8418C2.24431 17.2506 2.3044 17.4529 2.37442 17.5903C2.54914 17.9332 2.82794 18.212 3.17086 18.3867C3.30827 18.4568 3.51055 18.5168 3.91935 18.5503C4.33984 18.5846 4.88484 18.5854 5.6917 18.5854H11.8305C12.6374 18.5854 13.1824 18.5846 13.6029 18.5503C13.6842 18.5436 13.7573 18.5359 13.8234 18.5273L15.3933 20.0972C15.3492 20.1219 15.3045 20.1457 15.2594 20.1688C14.793 20.4064 14.2982 20.5001 13.7657 20.5436C13.2542 20.5854 12.6271 20.5854 11.8716 20.5854H5.65074C4.89525 20.5854 4.26807 20.5854 3.75649 20.5436C3.224 20.5001 2.72922 20.4064 2.26288 20.1688C1.54364 19.8023 0.958876 19.2175 0.592404 18.4983C0.354788 18.0319 0.261063 17.5372 0.217556 17.0047C0.175757 16.4931 0.175768 15.866 0.175782 15.1105V8.88969C0.175768 8.13418 0.175757 7.50701 0.217556 6.99542C0.261063 6.46293 0.354788 5.96815 0.592404 5.5018C0.615418 5.45663 0.639296 5.41199 0.664011 5.36791Z" fill="black"/>
</svg>
