<svg width="24" height="24" viewBox="0 0 24 24" fill="none" xmlns="http://www.w3.org/2000/svg">
<path fill-rule="evenodd" clip-rule="evenodd" d="M5.65175 3.41467C4.89621 3.41466 4.26907 3.41465 3.75747 3.45645C3.22498 3.49996 2.7302 3.59368 2.26385 3.8313C1.54461 4.19777 0.959853 4.78253 0.59338 5.50177C0.355765 5.96811 0.26204 6.46289 0.218533 6.99538C0.176733 7.50698 0.176745 8.1341 0.176758 8.88964V15.1104C0.176745 15.8659 0.176733 16.493 0.218533 17.0046C0.26204 17.5371 0.355765 18.0319 0.59338 18.4983C0.959853 19.2175 1.54461 19.8023 2.26385 20.1687C2.7302 20.4063 3.22498 20.5001 3.75747 20.5436C4.26904 20.5854 4.89613 20.5854 5.65162 20.5854H11.8725C12.628 20.5854 13.2551 20.5854 13.7667 20.5436C14.2992 20.5001 14.794 20.4063 15.2603 20.1687C15.9796 19.8023 16.5643 19.2175 16.9308 18.4983C17.1684 18.0319 17.2622 17.5371 17.3057 17.0046C17.341 16.5719 17.3465 16.0564 17.3473 15.4505L19.462 17.1121C19.8812 17.4414 20.2486 17.7301 20.5592 17.9315C20.8638 18.1291 21.2799 18.3583 21.7762 18.3558C22.4081 18.3526 23.0045 18.0627 23.3975 17.5678C23.706 17.1791 23.7829 16.7103 23.8157 16.3487C23.8493 15.9801 23.8493 15.5129 23.8492 14.9798V9.02028C23.8493 8.48721 23.8493 8.01991 23.8157 7.65125C23.7829 7.28969 23.706 6.82087 23.3975 6.4322C23.0045 5.93725 22.4081 5.64739 21.7762 5.64419C21.2799 5.64168 20.8638 5.87091 20.5592 6.06844C20.2486 6.26985 19.8812 6.55854 19.462 6.88792L17.3473 8.54948C17.3465 7.94358 17.341 7.42815 17.3057 6.99538C17.2622 6.46289 17.1684 5.96811 16.9308 5.50177C16.5643 4.78253 15.9796 4.19777 15.2603 3.8313C14.794 3.59368 14.2992 3.49996 13.7667 3.45645C13.2551 3.41465 12.628 3.41466 11.8725 3.41467H5.65175ZM15.3474 11.4087L15.3474 11.3855C15.3473 11.3442 15.3472 11.3015 15.3474 11.2576V8.9306C15.3474 8.12373 15.3467 7.57873 15.3123 7.15825C15.2789 6.74944 15.2188 6.54716 15.1488 6.40975C14.9741 6.06683 14.6953 5.78803 14.3524 5.61331C14.2149 5.5433 14.0127 5.48321 13.6039 5.44981C13.1834 5.41545 12.6384 5.41467 11.8315 5.41467H5.69268C4.88582 5.41467 4.34082 5.41545 3.92033 5.44981C3.51152 5.48321 3.30924 5.5433 3.17183 5.61331C2.82892 5.78803 2.55012 6.06683 2.37539 6.40975C2.30538 6.54716 2.24529 6.74944 2.21189 7.15825C2.17754 7.57873 2.17676 8.12373 2.17676 8.93059V15.0694C2.17676 15.8763 2.17754 16.4213 2.21189 16.8418C2.24529 17.2506 2.30538 17.4529 2.37539 17.5903C2.55012 17.9332 2.82892 18.212 3.17183 18.3867C3.30924 18.4567 3.51152 18.5168 3.92033 18.5502C4.34081 18.5846 4.88582 18.5853 5.69268 18.5853H11.8315C12.6384 18.5853 13.1834 18.5846 13.6039 18.5502C14.0127 18.5168 14.2149 18.4567 14.3524 18.3867C14.6953 18.212 14.9741 17.9332 15.1488 17.5903C15.2188 17.4529 15.2789 17.2506 15.3123 16.8418C15.3467 16.4213 15.3474 15.8763 15.3474 15.0694V12.7424C15.3472 12.6985 15.3473 12.6558 15.3474 12.6145L15.3474 12.5913V11.4087ZM20.6621 8.4885C21.1274 8.12287 21.4225 7.89227 21.6473 7.74653C21.7187 7.70024 21.7686 7.6725 21.8003 7.65635C21.8072 7.69129 21.8163 7.74766 21.824 7.8324C21.8482 8.09918 21.8492 8.47369 21.8492 9.06549V14.9345C21.8492 15.5263 21.8482 15.9008 21.824 16.1676C21.8163 16.2523 21.8072 16.3087 21.8003 16.3436C21.7686 16.3275 21.7187 16.2998 21.6473 16.2535C21.4225 16.1077 21.1274 15.8771 20.6621 15.5115L17.6279 13.1275C17.4985 13.0258 17.4311 12.9725 17.3835 12.9308C17.3714 12.9203 17.3635 12.913 17.3588 12.9084C17.3567 12.9049 17.355 12.9013 17.3535 12.8976C17.3528 12.891 17.3519 12.8803 17.3511 12.8643C17.3478 12.8011 17.3475 12.7152 17.3475 12.5505V11.4495C17.3475 11.2848 17.3478 11.1989 17.3511 11.1357C17.3519 11.1197 17.3528 11.109 17.3535 11.1024C17.355 11.0987 17.3567 11.095 17.3588 11.0916C17.3635 11.087 17.3714 11.0797 17.3835 11.0691C17.4311 11.0275 17.4985 10.9742 17.6279 10.8725L20.6621 8.4885Z" fill="black"/>
</svg>
