<svg width="24" height="24" viewBox="0 0 24 24" fill="none" xmlns="http://www.w3.org/2000/svg">
<path fill-rule="evenodd" clip-rule="evenodd" d="M5.68118 4.16467C4.90054 4.16467 4.29937 4.16467 3.81854 4.20396C3.33243 4.24367 2.94734 4.32479 2.60435 4.49955C2.02623 4.79412 1.5562 5.26414 1.26163 5.84226C1.08687 6.18525 1.00576 6.57035 0.966042 7.05646C0.926756 7.53729 0.926756 8.13845 0.926758 8.91909V15.0809C0.926756 15.8616 0.926756 16.4627 0.966042 16.9436C1.00576 17.4297 1.08687 17.8148 1.26163 18.1578C1.5562 18.7359 2.02623 19.2059 2.60435 19.5005C2.94734 19.6752 3.33243 19.7563 3.81854 19.7961C4.29937 19.8354 4.90054 19.8353 5.68117 19.8353H11.843C12.6236 19.8353 13.2248 19.8354 13.7057 19.7961C14.1918 19.7563 14.5769 19.6752 14.9198 19.5005C15.498 19.2059 15.968 18.7359 16.2626 18.1578C16.4373 17.8148 16.5184 17.4297 16.5581 16.9436C16.5974 16.4627 16.5974 15.8616 16.5974 15.081V13.9035C16.6644 13.9602 16.7408 14.0202 16.8286 14.0892L19.9005 16.5028C20.3411 16.849 20.6856 17.1197 20.9672 17.3023C21.2474 17.484 21.5066 17.6072 21.7724 17.6058C22.1769 17.6038 22.5586 17.4182 22.8101 17.1014C22.9753 16.8933 23.0386 16.6134 23.0688 16.2808C23.0992 15.9465 23.0992 15.5084 23.0992 14.9481V9.0519C23.0992 8.49154 23.0992 8.05344 23.0688 7.71918C23.0386 7.3866 22.9753 7.10669 22.8101 6.89855C22.5586 6.58175 22.1769 6.39623 21.7724 6.39418C21.5066 6.39284 21.2474 6.51603 20.9672 6.69772C20.6856 6.88033 20.3411 7.151 19.9005 7.4972L16.8286 9.91081C16.7408 9.97979 16.6644 10.0398 16.5974 10.0965V8.91908C16.5974 8.13846 16.5974 7.53728 16.5581 7.05646C16.5184 6.57035 16.4373 6.18525 16.2626 5.84226C15.968 5.26414 15.498 4.79412 14.9198 4.49955C14.5769 4.32479 14.1918 4.24367 13.7057 4.20396C13.2248 4.16467 12.6237 4.16467 11.843 4.16467H5.68118ZM2.83134 4.94505C3.0921 4.81219 3.40407 4.73949 3.85926 4.7023C4.31737 4.66487 4.89819 4.66467 5.69268 4.66467H11.8315C12.626 4.66467 13.2068 4.66487 13.6649 4.7023C14.1201 4.73949 14.4321 4.81219 14.6929 4.94505C15.1769 5.19168 15.5704 5.58522 15.8171 6.06926C15.9499 6.33002 16.0226 6.64198 16.0598 7.09717C16.0972 7.55528 16.0974 8.13611 16.0974 8.93059V15.0694C16.0974 15.8639 16.0972 16.4447 16.0598 16.9029C16.0226 17.358 15.9499 17.67 15.8171 17.9308C15.5704 18.4148 15.1769 18.8083 14.6929 19.055C14.4321 19.1878 14.1201 19.2605 13.6649 19.2977C13.2068 19.3352 12.626 19.3353 11.8315 19.3353H5.69268C4.89819 19.3353 4.31736 19.3352 3.85926 19.2977C3.40407 19.2605 3.0921 19.1878 2.83134 19.055C2.3473 18.8083 1.95377 18.4148 1.70714 17.9308C1.57427 17.67 1.50157 17.358 1.46438 16.9028C1.42695 16.4447 1.42676 15.8639 1.42676 15.0694V8.93059C1.42676 8.13611 1.42695 7.55528 1.46438 7.09717C1.50157 6.64198 1.57427 6.33002 1.70714 6.06926C1.95377 5.58522 2.3473 5.19168 2.83134 4.94505ZM20.1987 7.89876C20.6523 7.54237 20.979 7.28599 21.2392 7.11724C21.5032 6.94611 21.6577 6.89361 21.7698 6.89417C22.0227 6.89545 22.2613 7.01142 22.4185 7.20944C22.4882 7.29724 22.5424 7.45121 22.5709 7.76447C22.599 8.07335 22.5992 8.48865 22.5992 9.06549V14.9345C22.5992 15.5113 22.599 15.9266 22.5709 16.2355C22.5424 16.5488 22.4882 16.7028 22.4185 16.7905C22.2613 16.9886 22.0227 17.1045 21.7698 17.1058C21.6577 17.1064 21.5032 17.0539 21.2392 16.8827C20.979 16.714 20.6523 16.4576 20.1987 16.1012L17.1646 13.7173C16.9103 13.5175 16.8218 13.4452 16.7592 13.3599C16.6995 13.2787 16.6551 13.1872 16.628 13.0901C16.5997 12.9881 16.5975 12.8739 16.5975 12.5505V11.4495C16.5975 11.1261 16.5997 11.0119 16.628 10.9099C16.6551 10.8128 16.6995 10.7213 16.7592 10.64C16.8218 10.5547 16.9103 10.4825 17.1646 10.2827L20.1987 7.89876Z" fill="black"/>
</svg>
