<svg width="24" height="24" viewBox="0 0 24 24" fill="none" xmlns="http://www.w3.org/2000/svg">
<path d="M1.62124 2.08248C1.42597 1.88722 1.10939 1.88722 0.914129 2.08248C0.718868 2.27774 0.718868 2.59433 0.914129 2.78959L18.47 20.3454C18.6652 20.5407 18.9818 20.5407 19.1771 20.3454C19.3724 20.1502 19.3724 19.8336 19.1771 19.6383L1.62124 2.08248Z" fill="black"/>
<path d="M5.6696 3.91471C5.3811 3.91471 5.11524 3.9147 4.86976 3.9168L16.8444 15.8914C16.8465 15.6459 16.8465 15.3801 16.8465 15.0916V14.4219L19.7544 16.7068C20.1871 17.0467 20.539 17.3232 20.8302 17.5121C21.1186 17.699 21.4301 17.8576 21.7726 17.8558C22.253 17.8534 22.7062 17.6331 23.0049 17.2569C23.2179 16.9886 23.2857 16.6457 23.3168 16.3035C23.3483 15.9578 23.3483 15.5102 23.3482 14.9601V9.04003C23.3483 8.48985 23.3483 8.04223 23.3168 7.69657C23.2857 7.35433 23.2179 7.01145 23.0049 6.74313C22.7062 6.36695 22.253 6.14665 21.7726 6.14422C21.4301 6.14249 21.1186 6.30103 20.8302 6.48799C20.539 6.67683 20.1871 6.95336 19.7544 7.29328L16.8465 9.57813V8.90851C16.8465 8.13688 16.8465 7.52718 16.8063 7.03613C16.7654 6.53456 16.68 6.11291 16.4843 5.7288C16.1658 5.10364 15.6575 4.59537 15.0324 4.27683C14.6483 4.08112 14.2266 3.9958 13.725 3.95482C13.234 3.9147 12.6243 3.9147 11.8527 3.91471H5.6696Z" fill="black"/>
<path d="M1.62366 4.91335L15.8478 19.1375C15.6087 19.3715 15.3342 19.5695 15.0324 19.7233C14.6483 19.919 14.2266 20.0043 13.725 20.0453C13.234 20.0854 12.6244 20.0854 11.8529 20.0854H5.66958C4.89807 20.0854 4.28821 20.0854 3.7972 20.0453C3.29564 20.0043 2.87398 19.919 2.48987 19.7233C1.86471 19.4047 1.35644 18.8965 1.03791 18.2713C0.842192 17.8872 0.756876 17.4655 0.715895 16.964C0.675776 16.4729 0.675778 15.8632 0.675781 15.0916V8.90852C0.675778 8.13689 0.675776 7.52719 0.715895 7.03613C0.756876 6.53456 0.842192 6.11291 1.03791 5.7288C1.19168 5.42701 1.38966 5.15246 1.62366 4.91335Z" fill="black"/>
</svg>
