<svg width="24" height="24" viewBox="0 0 24 24" fill="none" xmlns="http://www.w3.org/2000/svg">
<path fill-rule="evenodd" clip-rule="evenodd" d="M23.8176 14.1012C23.8799 13.7484 23.9268 13.3902 23.9576 13.0274L23.9567 13.0269C23.9854 12.6884 24 12.3459 24 12C24 10.2084 23.6074 8.5085 22.9035 6.98165L22.9047 6.98216C22.6852 6.50613 22.4355 6.04691 22.1581 5.60698C22.1576 5.60683 22.1572 5.60668 22.1568 5.60653C20.0318 2.23782 16.2773 -1.86965e-07 12 0C5.37258 2.89694e-07 -2.89694e-07 5.37258 0 12C2.89694e-07 18.6274 5.37258 24 12 24C17.9108 24 22.8242 19.727 23.8176 14.1012ZM13.1911 22.9363C18.1893 22.3981 22.1847 18.5119 22.8895 13.5654L21.6073 12.8252C20.7579 12.3348 19.8504 11.9837 18.9174 11.7733L18.711 12.9771C18.0473 16.8488 16.0875 20.3528 13.1911 22.9363ZM20.579 5.11449C18.5628 2.60574 15.4689 1 12 1C10.7763 1 9.59934 1.1998 8.49985 1.56857V2.79908C8.49985 3.84661 8.64701 4.87629 8.92833 5.86154C12.6482 4.35168 16.7377 4.1029 20.579 5.11449ZM7.49985 1.95965C5.96565 2.64835 4.61793 3.67836 3.55333 4.95303L3.70725 6.33829C4.17842 10.5788 6.33609 14.4442 9.68258 17.0703C10.8306 15.6955 11.6286 14.0292 11.9617 12.2103C9.14183 9.90503 7.49985 6.45166 7.49985 2.79908V1.95965ZM2.68057 6.15362C1.61583 7.84731 1 9.85174 1 12C1 15.3393 2.48801 18.3311 4.83714 20.3485L5.13462 20.2423C6.61304 19.7143 7.92598 18.875 9.00393 17.8086C5.48152 15.0181 3.21134 10.9305 2.71336 6.44873L2.68057 6.15362ZM5.7752 21.0705C7.43085 22.2089 9.41373 22.9058 11.5539 22.9911C14.8152 20.5078 17.0285 16.8731 17.7254 12.8081L17.9317 11.6044C16.257 11.4065 14.5378 11.6501 12.9539 12.3428C12.2456 16.3047 9.52372 19.6121 5.7752 21.0705ZM21.4887 6.43196C22.4492 8.0652 23 9.96827 23 12C23 12.1571 22.9967 12.3134 22.9902 12.4689L22.1073 11.9591C19.1895 10.2745 15.651 10.0791 12.5727 11.4181C11.0686 10.1821 9.93173 8.58923 9.24646 6.81177C13.1587 5.2075 17.5082 5.0812 21.4887 6.43196Z" fill="black"/>
</svg>
