<svg width="25" height="24" viewBox="0 0 25 24" fill="none" xmlns="http://www.w3.org/2000/svg">
<path fill-rule="evenodd" clip-rule="evenodd" d="M0 10.2223V13.7779C0 15.6495 1.51726 17.1668 3.38889 17.1668H4.88462L8.18651 21.129C9.81647 23.085 13 21.9324 13 19.3863V4.61388C13 2.06779 9.81647 0.915201 8.18651 2.87115L4.88462 6.83342H3.38889C1.51725 6.83342 0 8.35068 0 10.2223ZM6.58862 15.3064L10.1071 19.5286C10.2401 19.6882 10.5 19.5941 10.5 19.3863V4.61388C10.5 4.40603 10.2401 4.31195 10.1071 4.47162L6.58862 8.69375C6.25085 9.09907 5.7505 9.33342 5.22289 9.33342H3.38889C2.89797 9.33342 2.5 9.73139 2.5 10.2223V13.7779C2.5 14.2688 2.89797 14.6668 3.38889 14.6668H5.22289C5.7505 14.6668 6.25085 14.9011 6.58862 15.3064Z" fill="black"/>
<path d="M21.5314 4.8895C21.1387 4.50116 20.5055 4.50468 20.1172 4.89738C19.7288 5.29007 19.7323 5.92322 20.125 6.31157C21.5926 7.76284 22.5 9.77456 22.5 12.0001C22.5 14.1474 21.6553 16.0954 20.2779 17.5333C19.8958 17.9321 19.9094 18.5651 20.3082 18.9472C20.7071 19.3292 21.3401 19.3156 21.7221 18.9168C23.4418 17.1216 24.5 14.6833 24.5 12.0001C24.5 9.21872 23.3632 6.70104 21.5314 4.8895Z" fill="black"/>
<path d="M18.3932 6.99445C17.9983 6.60836 17.3652 6.61551 16.9791 7.01042C16.593 7.40533 16.6002 8.03845 16.9951 8.42454C17.9248 9.33351 18.5 10.5987 18.5 12.0001C18.5 13.3491 17.967 14.5716 17.0981 15.4719C16.7146 15.8693 16.7258 16.5023 17.1232 16.8859C17.5206 17.2694 18.1536 17.2582 18.5372 16.8608C19.7515 15.6027 20.5 13.8878 20.5 12.0001C20.5 10.0387 19.692 8.26419 18.3932 6.99445Z" fill="black"/>
<path d="M13.8392 9.13522C14.2194 8.73459 14.8523 8.718 15.253 9.09815C16.0198 9.82577 16.5 10.8577 16.5 12.0001C16.5 13.0647 16.0828 14.034 15.4049 14.7499C15.0252 15.151 14.3922 15.1683 13.9912 14.7885C13.5902 14.4088 13.5729 13.7759 13.9526 13.3748C14.2928 13.0155 14.5 12.5331 14.5 12.0001C14.5 11.4287 14.2617 10.9147 13.8763 10.5489C13.4757 10.1688 13.4591 9.53585 13.8392 9.13522Z" fill="black"/>
</svg>
