<svg width="24" height="24" viewBox="0 0 24 24" fill="none" xmlns="http://www.w3.org/2000/svg">
<path d="M10.1738 3.21044C10.6229 2.67156 11.5 2.98911 11.5 3.69058V20.3096C11.5 21.011 10.6229 21.3286 10.1738 20.7897L6.21558 16.0398C5.93059 15.6978 5.50842 15.5001 5.06325 15.5001H3C2.17157 15.5001 1.5 14.8285 1.5 14.0001V10.0001C1.5 9.17164 2.17157 8.50007 3 8.50007H5.06325C5.50842 8.50007 5.93059 8.30234 6.21558 7.96035L10.1738 3.21044Z" fill="black"/>
<path d="M16.8366 7.35996C17.0297 7.16251 17.3462 7.15893 17.5437 7.35198C18.7502 8.53153 19.5 10.1787 19.5 12.0001C19.5 13.7531 18.8053 15.3449 17.6774 16.5136C17.4856 16.7123 17.1691 16.7179 16.9704 16.5261C16.7717 16.3343 16.7661 16.0178 16.9579 15.8191C17.9131 14.8294 18.5 13.4838 18.5 12.0001C18.5 10.4587 17.8666 9.06618 16.8446 8.06702C16.6472 7.87398 16.6436 7.55741 16.8366 7.35996Z" fill="black"/>
<path d="M13.7019 9.47939C13.892 9.27907 14.2085 9.27077 14.4088 9.46085C15.0803 10.098 15.5 11.0004 15.5 12.0001C15.5 12.9318 15.1353 13.7794 14.5418 14.4062C14.352 14.6067 14.0355 14.6153 13.835 14.4255C13.6345 14.2356 13.6258 13.9191 13.8157 13.7186C14.2403 13.2702 14.5 12.666 14.5 12.0001C14.5 11.286 14.2012 10.6424 13.7205 10.1863C13.5202 9.99617 13.5119 9.6797 13.7019 9.47939Z" fill="black"/>
</svg>
