<svg width="24" height="24" viewBox="0 0 24 24" fill="none" xmlns="http://www.w3.org/2000/svg">
<path d="M10.1738 3.21044C10.6229 2.67156 11.5 2.98911 11.5 3.69058V20.3096C11.5 21.011 10.6229 21.3286 10.1738 20.7897L6.21558 16.0398C5.93059 15.6978 5.50842 15.5001 5.06325 15.5001H3C2.17157 15.5001 1.5 14.8285 1.5 14.0001V10.0001C1.5 9.17164 2.17157 8.50007 3 8.50007H5.06325C5.50842 8.50007 5.93059 8.30234 6.21558 7.96035L10.1738 3.21044Z" fill="black"/>
<path d="M16.6579 7.18519C16.9474 6.88901 17.4223 6.88365 17.7185 7.17322C18.9711 8.39786 19.75 10.1087 19.75 12.0001C19.75 13.8204 19.0284 15.4738 17.8573 16.6872C17.5696 16.9852 17.0948 16.9937 16.7968 16.706C16.4987 16.4183 16.4903 15.9435 16.778 15.6455C17.6901 14.7005 18.25 13.4164 18.25 12.0001C18.25 10.5287 17.6457 9.19985 16.6698 8.24578C16.3737 7.95621 16.3683 7.48137 16.6579 7.18519Z" fill="black"/>
<path d="M13.5206 9.30731C13.8057 9.00683 14.2804 8.99439 14.5809 9.2795C15.3 9.96188 15.75 10.9291 15.75 12.0001C15.75 12.9983 15.359 13.9067 14.7234 14.5781C14.4386 14.8788 13.9639 14.8918 13.6631 14.607C13.3623 14.3222 13.3494 13.8475 13.6342 13.5467C14.0166 13.1429 14.25 12.5995 14.25 12.0001C14.25 11.3574 13.9815 10.7786 13.5484 10.3676C13.2479 10.0825 13.2355 9.60778 13.5206 9.30731Z" fill="black"/>
</svg>
