<svg width="24" height="24" viewBox="0 0 24 24" fill="none" xmlns="http://www.w3.org/2000/svg">
<path fill-rule="evenodd" clip-rule="evenodd" d="M1.5 13.7778V10.2222C1.5 9.45517 2.12183 8.83334 2.88889 8.83334H4.72289C5.10211 8.83334 5.46174 8.6649 5.7045 8.37358L9.22295 4.15144C9.65539 3.63252 10.5 3.93831 10.5 4.6138V19.3862C10.5 20.0617 9.65539 20.3675 9.22295 19.8486L5.7045 15.6264C5.46174 15.3351 5.10211 15.1667 4.72289 15.1667H2.88889C2.12183 15.1667 1.5 14.5448 1.5 13.7778ZM2 10.2222C2 9.73131 2.39797 9.33334 2.88889 9.33334H4.72289C5.2505 9.33334 5.75085 9.09899 6.08862 8.69367L9.60706 4.47154C9.74012 4.31187 10 4.40595 10 4.6138V19.3862C10 19.5941 9.74012 19.6882 9.60706 19.5285L6.08862 15.3063C5.75085 14.901 5.2505 14.6667 4.72289 14.6667H2.88889C2.39797 14.6667 2 14.2687 2 13.7778V10.2222Z" fill="black"/>
</svg>
