<svg width="24" height="24" viewBox="0 0 24 24" fill="none" xmlns="http://www.w3.org/2000/svg">
<path d="M1.05568 1.67381C0.958052 1.57618 0.799761 1.57618 0.70213 1.67381C0.604498 1.77144 0.604498 1.92973 0.70213 2.02736L20.4991 21.8243C20.5967 21.922 20.755 21.922 20.8527 21.8243C20.9503 21.7267 20.9503 21.5684 20.8527 21.4708L1.05568 1.67381Z" fill="black"/>
<path d="M4.7224 8.83383C5.00046 8.83383 5.26798 8.74327 5.48663 8.58011L5.84284 8.93633C5.52872 9.19131 5.13385 9.33383 4.7224 9.33383H2.8884C2.39748 9.33383 1.99951 9.7318 1.99951 10.2227V13.7783C1.99951 14.2692 2.39748 14.6672 2.8884 14.6672H4.7224C5.25001 14.6672 5.75036 14.9015 6.08813 15.3068L9.60657 19.529C9.73963 19.6886 9.99951 19.5946 9.99951 19.3867V13.093L10.4995 13.593V19.3867C10.4995 20.0622 9.6549 20.368 9.22246 19.8491L5.70402 15.6269C5.46125 15.3356 5.10162 15.1672 4.7224 15.1672H2.8884C2.12134 15.1672 1.49951 14.5453 1.49951 13.7783V10.2227C1.49951 9.45566 2.12134 8.83383 2.8884 8.83383H4.7224Z" fill="black"/>
<path d="M9.99951 4.61429V8.85036L10.4995 9.35036V4.61429C10.4995 3.93879 9.6549 3.633 9.22246 4.15193L7.44002 6.29087L7.79503 6.64588L9.60657 4.47202C9.73963 4.31235 9.99951 4.40644 9.99951 4.61429Z" fill="black"/>
<path d="M14.4326 13.2834L14.7999 13.6508C15.0855 13.1671 15.2495 12.6028 15.2495 12.0005C15.2495 11.0722 14.86 10.2345 14.2362 9.64261C14.1361 9.54757 13.9778 9.55172 13.8828 9.65187C13.7878 9.75203 13.7919 9.91027 13.8921 10.0053C14.4205 10.5067 14.7495 11.215 14.7495 12.0005C14.7495 12.464 14.635 12.9004 14.4326 13.2834Z" fill="black"/>
<path d="M17.1397 15.9906L17.4933 16.3442L17.497 16.3404C18.5818 15.2164 19.2495 13.6862 19.2495 12.0005C19.2495 10.2491 18.5288 8.6656 17.3684 7.53114C17.2697 7.43462 17.1114 7.43641 17.0149 7.53513C16.9184 7.63386 16.9202 7.79214 17.0189 7.88867C18.087 8.93293 18.7495 10.3891 18.7495 12.0005C18.7495 13.5502 18.1367 14.9563 17.1397 15.9906Z" fill="black"/>
<path d="M20.5035 5.42318C20.4053 5.3261 20.247 5.32698 20.1499 5.42515C20.0529 5.52333 20.0537 5.68161 20.1519 5.7787C21.7561 7.36508 22.7495 9.56653 22.7495 12.0005C22.7495 14.3488 21.8247 16.4806 20.319 18.0525C20.2235 18.1522 20.2269 18.3105 20.3266 18.406C20.4263 18.5015 20.5845 18.4981 20.68 18.3984C22.2714 16.7372 23.2495 14.4828 23.2495 12.0005C23.2495 9.42757 22.1987 7.09963 20.5035 5.42318Z" fill="black"/>
</svg>
