<svg width="24" height="24" viewBox="0 0 24 24" fill="none" xmlns="http://www.w3.org/2000/svg">
<path d="M1.41021 1.32026C1.11732 1.02736 0.642446 1.02736 0.349553 1.32026C0.0566595 1.61315 0.0566595 2.08802 0.349553 2.38092L20.1465 22.1779C20.4394 22.4708 20.9143 22.4708 21.2072 22.1779C21.5001 21.885 21.5001 21.4101 21.2072 21.1172L1.41021 1.32026Z" fill="black"/>
<path d="M3.00049 8.50044H3.99371L11.5005 16.0072V20.3099C11.5005 21.0114 10.6234 21.3289 10.1743 20.7901L6.21607 16.0402C5.93108 15.6982 5.50891 15.5004 5.06374 15.5004H3.00049C2.17206 15.5004 1.50049 14.8289 1.50049 14.0004V10.0004C1.50049 9.17201 2.17206 8.50044 3.00049 8.50044Z" fill="black"/>
<path d="M14.2251 11.6607L15.6044 13.04C15.6995 12.7098 15.7505 12.361 15.7505 12.0005C15.7505 10.9294 15.3005 9.96225 14.5814 9.27987C14.2809 8.99475 13.8062 9.0072 13.5211 9.30767C13.236 9.60814 13.2484 10.0829 13.5489 10.368C13.9041 10.7051 14.1487 11.1551 14.2251 11.6607Z" fill="black"/>
<path d="M17.4121 14.8478L18.4914 15.927C19.2836 14.8209 19.7505 13.4647 19.7505 12.0004C19.7505 10.109 18.9716 8.39823 17.7189 7.17358C17.4228 6.88401 16.9479 6.88937 16.6584 7.18556C16.3688 7.48174 16.3741 7.95658 16.6703 8.24615C17.6462 9.20021 18.2505 10.5291 18.2505 12.0004C18.2505 13.0503 17.9428 14.0275 17.4121 14.8478Z" fill="black"/>
<path d="M20.1095 17.5451L21.1712 18.6068C22.7718 16.8703 23.7505 14.5489 23.7505 12.0004C23.7505 9.28857 22.6424 6.83414 20.8561 5.06763C20.5615 4.77637 20.0867 4.77901 19.7954 5.07353C19.5042 5.36805 19.5068 5.84292 19.8013 6.13418C21.3144 7.63049 22.2505 9.70545 22.2505 12.0004C22.2505 14.1354 21.4404 16.0797 20.1095 17.5451Z" fill="black"/>
<path d="M8.1747 5.61036L11.5005 8.93615V3.69095C11.5005 2.98948 10.6234 2.67192 10.1743 3.21081L8.1747 5.61036Z" fill="black"/>
</svg>
