<svg width="24" height="24" viewBox="0 0 24 24" fill="none" xmlns="http://www.w3.org/2000/svg">
<path d="M10.1738 3.21044C10.6229 2.67156 11.5 2.98911 11.5 3.69058V20.3096C11.5 21.011 10.6229 21.3286 10.1738 20.7897L6.21558 16.0398C5.93059 15.6978 5.50842 15.5001 5.06325 15.5001H3C2.17157 15.5001 1.5 14.8285 1.5 14.0001V10.0001C1.5 9.17164 2.17157 8.50007 3 8.50007H5.06325C5.50842 8.50007 5.93059 8.30234 6.21558 7.96035L10.1738 3.21044Z" fill="black"/>
<path d="M14.5809 9.2795C14.2804 8.99439 13.8057 9.00683 13.5206 9.30731C13.2355 9.60778 13.2479 10.0825 13.5484 10.3676C13.9815 10.7786 14.25 11.3574 14.25 12.0001C14.25 12.5995 14.0166 13.1429 13.6342 13.5467C13.3494 13.8475 13.3623 14.3222 13.6631 14.607C13.9639 14.8918 14.4386 14.8788 14.7234 14.5781C15.359 13.9067 15.75 12.9983 15.75 12.0001C15.75 10.9291 15.3 9.96188 14.5809 9.2795Z" fill="black"/>
</svg>
