<svg width="24" height="24" viewBox="0 0 24 24" fill="none" xmlns="http://www.w3.org/2000/svg">
<path d="M10.1738 3.21044C10.6229 2.67156 11.5 2.98911 11.5 3.69058V20.3096C11.5 21.011 10.6229 21.3286 10.1738 20.7897L6.21558 16.0398C5.93059 15.6978 5.50842 15.5001 5.06325 15.5001H3C2.17157 15.5001 1.5 14.8285 1.5 14.0001V10.0001C1.5 9.17164 2.17157 8.50007 3 8.50007H5.06325C5.50842 8.50007 5.93059 8.30234 6.21558 7.96035L10.1738 3.21044Z" fill="black"/>
<path d="M20.504 5.42278C20.4058 5.32569 20.2475 5.32657 20.1504 5.42475C20.0534 5.52292 20.0542 5.68121 20.1524 5.77829C21.7566 7.36467 22.75 9.56612 22.75 12.0001C22.75 14.3484 21.8252 16.4802 20.3195 18.0521C20.224 18.1518 20.2274 18.3101 20.3271 18.4056C20.4268 18.5011 20.585 18.4977 20.6805 18.398C22.2719 16.7368 23.25 14.4824 23.25 12.0001C23.25 9.42716 22.1992 7.09922 20.504 5.42278Z" fill="black"/>
<path d="M17.3689 7.53074C17.2702 7.43421 17.1119 7.436 17.0154 7.53473C16.9189 7.63346 16.9207 7.79174 17.0194 7.88826C18.0875 8.93252 18.75 10.3887 18.75 12.0001C18.75 13.5511 18.1362 14.9582 17.1377 15.9927C17.0419 16.0921 17.0447 16.2503 17.144 16.3462C17.2434 16.4421 17.4016 16.4393 17.4975 16.34C18.5823 15.216 19.25 13.6858 19.25 12.0001C19.25 10.2487 18.5293 8.66519 17.3689 7.53074Z" fill="black"/>
<path d="M13.8833 9.65147C13.9783 9.55131 14.1366 9.54716 14.2367 9.6422C14.8605 10.2341 15.25 11.0718 15.25 12.0001C15.25 12.8654 14.9115 13.6521 14.3603 14.2343C14.2654 14.3345 14.1071 14.3389 14.0069 14.2439C13.9066 14.149 13.9023 13.9908 13.9972 13.8905C14.4641 13.3975 14.75 12.7324 14.75 12.0001C14.75 11.2146 14.421 10.5063 13.8925 10.0049C13.7924 9.90986 13.7882 9.75163 13.8833 9.65147Z" fill="black"/>
</svg>
