<svg width="24" height="24" viewBox="0 0 24 24" fill="none" xmlns="http://www.w3.org/2000/svg">
<path fill-rule="evenodd" clip-rule="evenodd" d="M1 10.2223V13.7778C1 14.821 1.84568 15.6667 2.88889 15.6667H4.72289C4.95372 15.6667 5.17262 15.7692 5.32039 15.9466L8.83884 20.1687C9.57066 21.0469 11 20.5294 11 19.3862V4.61382C11 3.47068 9.57066 2.95319 8.83884 3.83137L5.32039 8.05351C5.17262 8.23083 4.95372 8.33336 4.72289 8.33336H2.88889C1.84568 8.33336 1 9.17905 1 10.2223ZM6.08862 15.3064L9.60706 19.5285C9.74012 19.6882 10 19.5941 10 19.3862V4.61382C10 4.40597 9.74012 4.31189 9.60706 4.47156L6.08862 8.69369C5.75085 9.09901 5.2505 9.33336 4.72289 9.33336H2.88889C2.39797 9.33336 2 9.73133 2 10.2223V13.7778C2 14.2687 2.39797 14.6667 2.88889 14.6667H4.72289C5.2505 14.6667 5.75085 14.901 6.08862 15.3064Z" fill="black"/>
<path d="M20.6798 5.24496C20.4834 5.05078 20.1668 5.05255 19.9727 5.24889C19.7785 5.44524 19.7803 5.76182 19.9766 5.95599C21.5352 7.49733 22.5 9.63554 22.5 12C22.5 14.2814 21.6019 16.3519 20.1389 17.8791C19.9479 18.0785 19.9547 18.395 20.1541 18.586C20.3535 18.7771 20.67 18.7703 20.8611 18.5709C22.4952 16.865 23.5 14.5493 23.5 12C23.5 9.35762 22.4205 6.96643 20.6798 5.24496Z" fill="black"/>
<path d="M17.5437 7.35191C17.3462 7.15887 17.0297 7.16244 16.8366 7.3599C16.6436 7.55735 16.6472 7.87391 16.8446 8.06696C17.8666 9.06612 18.5 10.4586 18.5 12C18.5 13.4837 17.9131 14.8293 16.9579 15.8191C16.7661 16.0178 16.7717 16.3343 16.9704 16.5261C17.1691 16.7178 17.4856 16.7122 17.6774 16.5135C18.8053 15.3448 19.5 13.753 19.5 12C19.5 10.1786 18.7502 8.53146 17.5437 7.35191Z" fill="black"/>
<path d="M13.7019 9.47932C13.892 9.27901 14.2085 9.27071 14.4088 9.46079C15.0803 10.0979 15.5 11.0004 15.5 12C15.5 12.9317 15.1353 13.7794 14.5418 14.4061C14.352 14.6066 14.0355 14.6153 13.835 14.4254C13.6345 14.2355 13.6258 13.9191 13.8157 13.7186C14.2403 13.2701 14.5 12.6659 14.5 12C14.5 11.2859 14.2012 10.6424 13.7205 10.1862C13.5202 9.99611 13.5119 9.67964 13.7019 9.47932Z" fill="black"/>
</svg>
