<svg width="24" height="24" viewBox="0 0 24 24" fill="none" xmlns="http://www.w3.org/2000/svg">
<path fill-rule="evenodd" clip-rule="evenodd" d="M0 13.7778V10.2223C0 8.62681 1.2934 7.3334 2.88889 7.3334H4.61881L8.07062 3.19123C9.4012 1.59453 12 2.53542 12 4.61386V19.3863C12 21.4647 9.4012 22.4056 8.07062 20.8089L4.61881 16.6667H2.88889C1.2934 16.6667 0 15.3733 0 13.7778ZM6.08862 15.3064C5.75085 14.9011 5.2505 14.6667 4.72289 14.6667H2.88889C2.39797 14.6667 2 14.2688 2 13.7778V10.2223C2 9.73137 2.39797 9.3334 2.88889 9.3334H4.72289C5.2505 9.3334 5.75085 9.09905 6.08862 8.69373L9.60706 4.4716C9.74012 4.31193 10 4.40601 10 4.61386V19.3863C10 19.5941 9.74012 19.6882 9.60706 19.5285L6.08862 15.3064Z" fill="black"/>
</svg>
