<svg width="25" height="24" viewBox="0 0 25 24" fill="none" xmlns="http://www.w3.org/2000/svg">
<path fill-rule="evenodd" clip-rule="evenodd" d="M0 10.2223V13.7779C0 15.6495 1.51726 17.1668 3.38889 17.1668H4.88462L8.18651 21.129C9.81647 23.085 13 21.9324 13 19.3863V4.61388C13 2.06779 9.81647 0.915201 8.18651 2.87115L4.88462 6.83342H3.38889C1.51725 6.83342 0 8.35068 0 10.2223ZM6.58862 15.3064L10.1071 19.5286C10.2401 19.6882 10.5 19.5941 10.5 19.3863V4.61388C10.5 4.40603 10.2401 4.31195 10.1071 4.47162L6.58862 8.69375C6.25085 9.09907 5.7505 9.33342 5.22289 9.33342H3.38889C2.89797 9.33342 2.5 9.73139 2.5 10.2223V13.7779C2.5 14.2688 2.89797 14.6668 3.38889 14.6668H5.22289C5.7505 14.6668 6.25085 14.9011 6.58862 15.3064Z" fill="black"/>
<path d="M15.253 9.09815C14.8523 8.718 14.2194 8.73459 13.8392 9.13522C13.4591 9.53585 13.4757 10.1688 13.8763 10.5489C14.2617 10.9147 14.5 11.4287 14.5 12.0001C14.5 12.5331 14.2928 13.0155 13.9526 13.3748C13.5729 13.7759 13.5902 14.4088 13.9912 14.7885C14.3922 15.1683 15.0252 15.151 15.4049 14.7499C16.0828 14.034 16.5 13.0647 16.5 12.0001C16.5 10.8577 16.0198 9.82577 15.253 9.09815Z" fill="black"/>
</svg>
