<svg width="24" height="24" viewBox="0 0 24 24" fill="none" xmlns="http://www.w3.org/2000/svg">
<path fill-rule="evenodd" clip-rule="evenodd" d="M0.5 10.2223V13.7778C0.5 15.0972 1.56954 16.1667 2.88889 16.1667H4.72289C4.80533 16.1667 4.88351 16.2033 4.93628 16.2667L8.45473 20.4888C9.48593 21.7262 11.5 20.9971 11.5 19.3863V4.61384C11.5 3.00305 9.48593 2.27386 8.45473 3.5113L4.93628 7.73343C4.88351 7.79677 4.80533 7.83338 4.72289 7.83338H2.88889C1.56954 7.83338 0.5 8.90293 0.5 10.2223ZM6.08862 15.3064L9.60706 19.5285C9.74012 19.6882 10 19.5941 10 19.3863V4.61384C10 4.40599 9.74012 4.31191 9.60706 4.47158L6.08862 8.69371C5.75085 9.09903 5.2505 9.33338 4.72289 9.33338H2.88889C2.39797 9.33338 2 9.73135 2 10.2223V13.7778C2 14.2687 2.39797 14.6667 2.88889 14.6667H4.72289C5.2505 14.6667 5.75085 14.9011 6.08862 15.3064Z" fill="black"/>
<path d="M14.5809 9.27946C14.2804 8.99434 13.8057 9.00679 13.5206 9.30726C13.2355 9.60773 13.2479 10.0824 13.5484 10.3676C13.9815 10.7785 14.25 11.3573 14.25 12.0001C14.25 12.5995 14.0166 13.1428 13.6342 13.5467C13.3494 13.8475 13.3623 14.3222 13.6631 14.607C13.9639 14.8917 14.4386 14.8788 14.7234 14.578C15.359 13.9067 15.75 12.9982 15.75 12.0001C15.75 10.929 15.3 9.96184 14.5809 9.27946Z" fill="black"/>
</svg>
