<svg width="24" height="24" viewBox="0 0 24 24" fill="none" xmlns="http://www.w3.org/2000/svg">
<path d="M10.1738 3.21044C10.6229 2.67156 11.5 2.98911 11.5 3.69058V20.3096C11.5 21.011 10.6229 21.3286 10.1738 20.7897L6.21558 16.0398C5.93059 15.6978 5.50842 15.5001 5.06325 15.5001H3C2.17157 15.5001 1.5 14.8285 1.5 14.0001V10.0001C1.5 9.17164 2.17157 8.50007 3 8.50007H5.06325C5.50842 8.50007 5.93059 8.30234 6.21558 7.96035L10.1738 3.21044Z" fill="black"/>
<path d="M20.8556 5.06726C20.561 4.776 20.0862 4.77865 19.7949 5.07317C19.5037 5.36769 19.5063 5.84255 19.8008 6.13381C21.3139 7.63012 22.25 9.70508 22.25 12.0001C22.25 14.2144 21.3786 16.2237 19.9584 17.7062C19.6719 18.0053 19.6821 18.4801 19.9812 18.7666C20.2803 19.0532 20.7551 19.043 21.0416 18.7439C22.7185 16.9933 23.75 14.6164 23.75 12.0001C23.75 9.2882 22.6419 6.83377 20.8556 5.06726Z" fill="black"/>
<path d="M17.7185 7.17321C17.4223 6.88365 16.9474 6.88901 16.6579 7.18519C16.3683 7.48137 16.3737 7.95621 16.6698 8.24578C17.6457 9.19985 18.25 10.5287 18.25 12.0001C18.25 13.4164 17.6901 14.7005 16.778 15.6455C16.4903 15.9435 16.4987 16.4183 16.7968 16.706C17.0948 16.9937 17.5696 16.9852 17.8573 16.6872C19.0284 15.4738 19.75 13.8204 19.75 12.0001C19.75 10.1087 18.9711 8.39786 17.7185 7.17321Z" fill="black"/>
<path d="M13.5206 9.30731C13.8057 9.00683 14.2804 8.99439 14.5809 9.2795C15.3 9.96188 15.75 10.9291 15.75 12.0001C15.75 12.9983 15.359 13.9067 14.7234 14.5781C14.4386 14.8788 13.9639 14.8918 13.6631 14.607C13.3623 14.3222 13.3494 13.8475 13.6342 13.5467C14.0166 13.1429 14.25 12.5995 14.25 12.0001C14.25 11.3574 13.9815 10.7786 13.5484 10.3676C13.2479 10.0825 13.2355 9.60778 13.5206 9.30731Z" fill="black"/>
</svg>
