<svg width="24" height="24" viewBox="0 0 24 24" fill="none" xmlns="http://www.w3.org/2000/svg">
<path d="M10.1738 3.21044C10.6229 2.67156 11.5 2.98911 11.5 3.69058V20.3096C11.5 21.011 10.6229 21.3286 10.1738 20.7897L6.21558 16.0398C5.93059 15.6978 5.50842 15.5001 5.06325 15.5001H3C2.17157 15.5001 1.5 14.8285 1.5 14.0001V10.0001C1.5 9.17164 2.17157 8.50007 3 8.50007H5.06325C5.50842 8.50007 5.93059 8.30234 6.21558 7.96035L10.1738 3.21044Z" fill="black"/>
<path d="M14.2367 9.6422C14.1366 9.54716 13.9783 9.55131 13.8833 9.65147C13.7882 9.75163 13.7924 9.90986 13.8925 10.0049C14.421 10.5063 14.75 11.2146 14.75 12.0001C14.75 12.7325 14.4641 13.3975 13.9972 13.8905C13.9023 13.9908 13.9066 14.149 14.0069 14.2439C14.1071 14.3389 14.2654 14.3345 14.3603 14.2343C14.9115 13.6521 15.25 12.8654 15.25 12.0001C15.25 11.0718 14.8605 10.2341 14.2367 9.6422Z" fill="black"/>
</svg>
