<svg width="24" height="24" viewBox="0 0 24 24" fill="none" xmlns="http://www.w3.org/2000/svg">
<path fill-rule="evenodd" clip-rule="evenodd" d="M1 13.7778V10.2223C1 9.17905 1.84568 8.33336 2.88889 8.33336H4.72289C4.95372 8.33336 5.17262 8.23083 5.32039 8.05351L8.83884 3.83137C9.57066 2.95319 11 3.47068 11 4.61382V19.3862C11 20.5294 9.57066 21.0469 8.83884 20.1687L5.32039 15.9466C5.17262 15.7692 4.95372 15.6667 4.72289 15.6667H2.88889C1.84568 15.6667 1 14.821 1 13.7778ZM6.08862 15.3064C5.75085 14.901 5.2505 14.6667 4.72289 14.6667H2.88889C2.39797 14.6667 2 14.2687 2 13.7778V10.2223C2 9.73133 2.39797 9.33336 2.88889 9.33336H4.72289C5.2505 9.33336 5.75085 9.09901 6.08862 8.69369L9.60706 4.47156C9.74012 4.31189 10 4.40597 10 4.61382V19.3862C10 19.5941 9.74012 19.6882 9.60706 19.5285L6.08862 15.3064Z" fill="black"/>
</svg>
