<svg width="24" height="24" viewBox="0 0 24 24" fill="none" xmlns="http://www.w3.org/2000/svg">
<path fill-rule="evenodd" clip-rule="evenodd" d="M1 10.2223V13.7778C1 14.821 1.84568 15.6667 2.88889 15.6667H4.72289C4.95372 15.6667 5.17262 15.7692 5.32039 15.9466L8.83884 20.1687C9.57066 21.0469 11 20.5294 11 19.3862V4.61382C11 3.47068 9.57066 2.95319 8.83884 3.83137L5.32039 8.05351C5.17262 8.23083 4.95372 8.33336 4.72289 8.33336H2.88889C1.84568 8.33336 1 9.17905 1 10.2223ZM6.08862 15.3064L9.60706 19.5285C9.74012 19.6882 10 19.5941 10 19.3862V4.61382C10 4.40597 9.74012 4.31189 9.60706 4.47156L6.08862 8.69369C5.75085 9.09901 5.2505 9.33336 4.72289 9.33336H2.88889C2.39797 9.33336 2 9.73133 2 10.2223V13.7778C2 14.2687 2.39797 14.6667 2.88889 14.6667H4.72289C5.2505 14.6667 5.75085 14.901 6.08862 15.3064Z" fill="black"/>
<path d="M14.4088 9.46079C14.2085 9.27071 13.892 9.27901 13.7019 9.47932C13.5119 9.67964 13.5202 9.99611 13.7205 10.1862C14.2012 10.6424 14.5 11.2859 14.5 12C14.5 12.6659 14.2403 13.2701 13.8157 13.7186C13.6258 13.9191 13.6345 14.2355 13.835 14.4254C14.0355 14.6153 14.352 14.6066 14.5418 14.4061C15.1353 13.7794 15.5 12.9317 15.5 12C15.5 11.0004 15.0803 10.0979 14.4088 9.46079Z" fill="black"/>
</svg>
