<svg width="24" height="24" viewBox="0 0 24 24" fill="none" xmlns="http://www.w3.org/2000/svg">
<path d="M1.23246 1.49703C1.0372 1.30177 0.720615 1.30177 0.525353 1.49703C0.330091 1.69229 0.330091 2.00888 0.525353 2.20414L20.3223 22.0011C20.5176 22.1964 20.8342 22.1964 21.0294 22.0011C21.2247 21.8059 21.2247 21.4893 21.0294 21.294L1.23246 1.49703Z" fill="black"/>
<path d="M2.99951 8.50044H4.69984L11.4995 15.3001V20.3099C11.4995 21.0114 10.6224 21.3289 10.1733 20.7901L6.21509 16.0402C5.9301 15.6982 5.50793 15.5004 5.06276 15.5004H2.99951C2.17108 15.5004 1.49951 14.8289 1.49951 14.0004V10.0004C1.49951 9.17201 2.17108 8.50044 2.99951 8.50044Z" fill="black"/>
<path d="M14.4329 12.5766L15.2228 13.3665C15.4009 12.9467 15.4995 12.485 15.4995 12.0005C15.4995 11.0008 15.0798 10.0984 14.4083 9.46122C14.208 9.27114 13.8915 9.27944 13.7014 9.47975C13.5114 9.68007 13.5197 9.99654 13.72 10.1866C14.2007 10.6428 14.4995 11.2863 14.4995 12.0005C14.4995 12.1988 14.4765 12.3917 14.4329 12.5766Z" fill="black"/>
<path d="M17.2936 15.4374L18.0044 16.1481C18.9378 15.0229 19.4995 13.5768 19.4995 12.0004C19.4995 10.179 18.7497 8.53189 17.5432 7.35234C17.3457 7.1593 17.0292 7.16287 16.8361 7.36033C16.6431 7.55778 16.6467 7.87434 16.8441 8.06739C17.8661 9.06655 18.4995 10.4591 18.4995 12.0004C18.4995 13.3011 18.0485 14.4957 17.2936 15.4374Z" fill="black"/>
<path d="M20.0053 18.1491L20.5758 18.7196C20.6808 18.7034 20.7814 18.6539 20.8606 18.5713C22.4947 16.8654 23.4995 14.5497 23.4995 12.0004C23.4995 9.35805 22.42 6.96686 20.6793 5.24538C20.4829 5.05121 20.1664 5.05298 19.9722 5.24932C19.778 5.44567 19.7798 5.76225 19.9761 5.95642C21.5347 7.49776 22.4995 9.63597 22.4995 12.0004C22.4995 14.2818 21.6014 16.3523 20.1384 17.8795C20.0647 17.9566 20.0204 18.0511 20.0053 18.1491Z" fill="black"/>
<path d="M7.85231 5.99605L11.4995 9.64325V3.69095C11.4995 2.98948 10.6224 2.67192 10.1733 3.21081L7.85231 5.99605Z" fill="black"/>
</svg>
