<svg width="24" height="24" viewBox="0 0 24 24" fill="none" xmlns="http://www.w3.org/2000/svg">
<path d="M10.1738 3.21044C10.6229 2.67156 11.5 2.98911 11.5 3.69058V20.3096C11.5 21.011 10.6229 21.3286 10.1738 20.7897L6.21558 16.0398C5.93059 15.6978 5.50842 15.5001 5.06325 15.5001H3C2.17157 15.5001 1.5 14.8285 1.5 14.0001V10.0001C1.5 9.17164 2.17157 8.50007 3 8.50007H5.06325C5.50842 8.50007 5.93059 8.30234 6.21558 7.96035L10.1738 3.21044Z" fill="black"/>
<path d="M14.753 9.09815C14.3523 8.718 13.7194 8.7346 13.3392 9.13522C12.9591 9.53585 12.9757 10.1688 13.3763 10.549C13.7617 10.9147 14 11.4287 14 12.0001C14 12.5331 13.7928 13.0155 13.4526 13.3748C13.0729 13.7759 13.0902 14.4088 13.4912 14.7885C13.8922 15.1683 14.5252 15.151 14.9049 14.75C15.5828 14.034 16 13.0647 16 12.0001C16 10.8577 15.5198 9.82577 14.753 9.09815Z" fill="black"/>
</svg>
