<svg width="24" height="24" viewBox="0 0 24 24" fill="none" xmlns="http://www.w3.org/2000/svg">
<path d="M1.05568 1.67381C0.958052 1.57618 0.799761 1.57618 0.70213 1.67381C0.604498 1.77144 0.604498 1.92973 0.70213 2.02736L20.4991 21.8243C20.5967 21.922 20.755 21.922 20.8527 21.8243C20.9503 21.7267 20.9503 21.5684 20.8527 21.4708L1.05568 1.67381Z" fill="black"/>
<path d="M5.06276 8.50044C5.1684 8.50044 5.27274 8.4893 5.37426 8.46775L11.4995 14.593V20.3099C11.4995 21.0114 10.6224 21.3289 10.1733 20.7901L6.21509 16.0402C5.9301 15.6982 5.50793 15.5004 5.06276 15.5004H2.99951C2.17108 15.5004 1.49951 14.8289 1.49951 14.0004V10.0004C1.49951 9.17201 2.17108 8.50044 2.99951 8.50044H5.06276Z" fill="black"/>
<path d="M14.4326 13.2834L14.7999 13.6507C15.0855 13.167 15.2495 12.6028 15.2495 12.0005C15.2495 11.0722 14.86 10.2345 14.2362 9.64257C14.1361 9.54753 13.9778 9.55168 13.8828 9.65184C13.7878 9.75199 13.7919 9.91023 13.8921 10.0053C14.4205 10.5067 14.7495 11.215 14.7495 12.0005C14.7495 12.4639 14.635 12.9004 14.4326 13.2834Z" fill="black"/>
<path d="M17.1397 15.9906L17.4933 16.3441L17.497 16.3403C18.5818 15.2164 19.2495 13.6861 19.2495 12.0004C19.2495 10.2491 18.5288 8.66556 17.3684 7.5311C17.2697 7.43458 17.1114 7.43637 17.0149 7.53509C16.9184 7.63382 16.9202 7.7921 17.0189 7.88863C18.087 8.93288 18.7495 10.3891 18.7495 12.0004C18.7495 13.5502 18.1367 14.9563 17.1397 15.9906Z" fill="black"/>
<path d="M7.5309 6.38175L11.4995 10.3504V3.69095C11.4995 2.98948 10.6224 2.67192 10.1733 3.21081L7.5309 6.38175Z" fill="black"/>
<path d="M20.5035 5.42314C20.4053 5.32606 20.247 5.32694 20.1499 5.42511C20.0529 5.52329 20.0537 5.68157 20.1519 5.77866C21.7561 7.36504 22.7495 9.56649 22.7495 12.0004C22.7495 14.3488 21.8247 16.4806 20.319 18.0525C20.2235 18.1522 20.2269 18.3104 20.3266 18.4059C20.4263 18.5014 20.5845 18.498 20.68 18.3983C22.2714 16.7371 23.2495 14.4827 23.2495 12.0004C23.2495 9.42753 22.1987 7.09959 20.5035 5.42314Z" fill="black"/>
</svg>
