<svg width="25" height="24" viewBox="0 0 25 24" fill="none" xmlns="http://www.w3.org/2000/svg">
<path d="M1.90972 1.32026C1.61683 1.02736 1.14196 1.02736 0.849064 1.32026C0.556171 1.61315 0.556171 2.08802 0.849064 2.38092L20.646 22.1779C20.9389 22.4708 21.4138 22.4708 21.7067 22.1779C21.9996 21.885 21.9996 21.4101 21.7067 21.1172L1.90972 1.32026Z" fill="black"/>
<path d="M0 10.2228C0 8.52876 1.24299 7.12503 2.86669 6.8739L5.32383 9.33105C5.29032 9.33295 5.25666 9.33391 5.22289 9.33391H3.38889C2.89797 9.33391 2.5 9.73188 2.5 10.2228V13.7784C2.5 14.2693 2.89797 14.6672 3.38889 14.6672H5.22289C5.7505 14.6672 6.25085 14.9016 6.58862 15.3069L10.1071 19.5291C10.2401 19.6887 10.5 19.5946 10.5 19.3868V14.5072L13 17.0072V19.3868C13 21.9329 9.81647 23.0855 8.18651 21.1295L4.88462 17.1672H3.38889C1.51726 17.1672 0 15.65 0 13.7784V10.2228Z" fill="black"/>
<path d="M10.5 7.43615L13 9.93615V4.61437C13 2.06828 9.81647 0.915689 8.18651 2.87164L7.16332 4.09947L8.93838 5.87452L10.1071 4.4721C10.2401 4.31243 10.5 4.40652 10.5 4.61437V7.43615Z" fill="black"/>
<path d="M14.3801 11.3163L16.304 13.2401C16.4312 12.8497 16.5 12.433 16.5 12.0006C16.5 10.8582 16.0198 9.82626 15.253 9.09864C14.8523 8.71848 14.2194 8.73508 13.8392 9.13571C13.4591 9.53634 13.4757 10.1693 13.8763 10.5494C14.0995 10.7612 14.2733 11.0227 14.3801 11.3163Z" fill="black"/>
<path d="M17.7307 14.6669L19.17 16.1062C20.0062 14.9531 20.5 13.5338 20.5 12.0006C20.5 10.0392 19.692 8.26468 18.3932 6.99494C17.9983 6.60885 17.3652 6.616 16.9791 7.01091C16.593 7.40581 16.6002 8.03894 16.9951 8.42503C17.9248 9.334 18.5 10.5992 18.5 12.0006C18.5 12.9812 18.2183 13.8951 17.7307 14.6669Z" fill="black"/>
<path d="M20.4321 17.3682L21.8477 18.7838C23.4932 17.0021 24.5 14.6179 24.5 12.0006C24.5 9.21921 23.3632 6.70153 21.5314 4.88999C21.1387 4.50164 20.5055 4.50517 20.1172 4.89786C19.7288 5.29056 19.7323 5.92371 20.125 6.31206C21.5926 7.76333 22.5 9.77505 22.5 12.0006C22.5 14.0666 21.718 15.9481 20.4321 17.3682Z" fill="black"/>
</svg>
