<svg width="24" height="24" viewBox="0 0 24 24" fill="none" xmlns="http://www.w3.org/2000/svg">
<path d="M1.23246 1.49703C1.0372 1.30177 0.720615 1.30177 0.525353 1.49703C0.330091 1.69229 0.330091 2.00888 0.525353 2.20414L20.3223 22.0011C20.5176 22.1964 20.8342 22.1964 21.0294 22.0011C21.2247 21.8059 21.2247 21.4893 21.0294 21.294L1.23246 1.49703Z" fill="black"/>
<path d="M2.8884 8.33385H4.53326L5.39933 9.19993C5.18708 9.28734 4.95744 9.33385 4.7224 9.33385H2.8884C2.39748 9.33385 1.99951 9.73182 1.99951 10.2227V13.7783C1.99951 14.2692 2.39748 14.6672 2.8884 14.6672H4.7224C5.25001 14.6672 5.75036 14.9015 6.08813 15.3069L9.60657 19.529C9.73963 19.6887 9.99951 19.5946 9.99951 19.3867V13.8001L10.9995 14.8001V19.3867C10.9995 20.5299 9.57017 21.0474 8.83835 20.1692L5.31991 15.947C5.17213 15.7697 4.95323 15.6672 4.7224 15.6672H2.8884C1.8452 15.6672 0.999512 14.8215 0.999512 13.7783V10.2227C0.999512 9.17954 1.8452 8.33385 2.8884 8.33385Z" fill="black"/>
<path d="M9.99951 8.14325L10.9995 9.14325V4.61431C10.9995 3.47116 9.57017 2.95368 8.83835 3.83186L7.40643 5.55017L8.11645 6.26019L9.60657 4.47204C9.73963 4.31237 9.99951 4.40646 9.99951 4.61431V8.14325Z" fill="black"/>
<path d="M14.4329 12.5766L15.2228 13.3665C15.4009 12.9467 15.4995 12.485 15.4995 12.0005C15.4995 11.0009 15.0798 10.0984 14.4083 9.46128C14.208 9.2712 13.8915 9.2795 13.7014 9.47981C13.5114 9.68013 13.5197 9.9966 13.72 10.1867C14.2007 10.6429 14.4995 11.2864 14.4995 12.0005C14.4995 12.1989 14.4765 12.3917 14.4329 12.5766Z" fill="black"/>
<path d="M17.2937 15.4374L18.0044 16.1481C18.9378 15.0229 19.4995 13.5769 19.4995 12.0005C19.4995 10.1791 18.7497 8.53195 17.5432 7.3524C17.3457 7.15936 17.0292 7.16293 16.8361 7.36039C16.6431 7.55784 16.6467 7.8744 16.8441 8.06745C17.8661 9.06661 18.4995 10.4591 18.4995 12.0005C18.4995 13.3012 18.0485 14.4957 17.2937 15.4374Z" fill="black"/>
<path d="M20.0053 18.1491L20.5759 18.7196C20.6808 18.7035 20.7815 18.6539 20.8606 18.5713C22.4947 16.8655 23.4995 14.5498 23.4995 12.0005C23.4995 9.35811 22.42 6.96692 20.6793 5.24544C20.4829 5.05127 20.1664 5.05304 19.9722 5.24938C19.778 5.44573 19.7798 5.76231 19.9761 5.95648C21.5347 7.49782 22.4995 9.63603 22.4995 12.0005C22.4995 14.2818 21.6014 16.3524 20.1384 17.8796C20.0647 17.9566 20.0204 18.0511 20.0053 18.1491Z" fill="black"/>
</svg>
