<svg width="24" height="24" viewBox="0 0 24 24" fill="none" xmlns="http://www.w3.org/2000/svg">
<path d="M10.1738 3.21044C10.6229 2.67156 11.5 2.98911 11.5 3.69058V20.3096C11.5 21.011 10.6229 21.3286 10.1738 20.7897L6.21558 16.0398C5.93059 15.6978 5.50842 15.5001 5.06325 15.5001H3C2.17157 15.5001 1.5 14.8285 1.5 14.0001V10.0001C1.5 9.17164 2.17157 8.50007 3 8.50007H5.06325C5.50842 8.50007 5.93059 8.30234 6.21558 7.96035L10.1738 3.21044Z" fill="black"/>
<path d="M21.0314 4.8895C20.6387 4.50116 20.0055 4.50468 19.6172 4.89738C19.2288 5.29007 19.2323 5.92323 19.625 6.31157C21.0926 7.76285 22 9.77456 22 12.0001C22 14.1474 21.1553 16.0954 19.7779 17.5333C19.3958 17.9321 19.4094 18.5651 19.8082 18.9472C20.2071 19.3292 20.8401 19.3156 21.2221 18.9168C22.9418 17.1216 24 14.6833 24 12.0001C24 9.21872 22.8632 6.70105 21.0314 4.8895Z" fill="black"/>
<path d="M17.8932 6.99445C17.4983 6.60836 16.8652 6.61551 16.4791 7.01042C16.093 7.40533 16.1002 8.03845 16.4951 8.42454C17.4248 9.33351 18 10.5987 18 12.0001C18 13.3491 17.467 14.5716 16.5981 15.4719C16.2146 15.8693 16.2258 16.5023 16.6232 16.8859C17.0206 17.2694 17.6536 17.2582 18.0372 16.8608C19.2515 15.6027 20 13.8878 20 12.0001C20 10.0387 19.192 8.2642 17.8932 6.99445Z" fill="black"/>
<path d="M13.3392 9.13522C13.7194 8.7346 14.3523 8.718 14.753 9.09815C15.5198 9.82577 16 10.8577 16 12.0001C16 13.0647 15.5828 14.034 14.9049 14.75C14.5252 15.151 13.8922 15.1683 13.4912 14.7885C13.0902 14.4088 13.0729 13.7759 13.4526 13.3748C13.7928 13.0155 14 12.5331 14 12.0001C14 11.4287 13.7617 10.9147 13.3763 10.549C12.9757 10.1688 12.9591 9.53585 13.3392 9.13522Z" fill="black"/>
</svg>
