<svg width="24" height="24" viewBox="0 0 24 24" fill="none" xmlns="http://www.w3.org/2000/svg">
<path fill-rule="evenodd" clip-rule="evenodd" d="M0.5 13.7778V10.2223C0.5 8.90293 1.56954 7.83338 2.88889 7.83338H4.72289C4.80533 7.83338 4.88351 7.79677 4.93628 7.73343L8.45473 3.5113C9.48593 2.27386 11.5 3.00305 11.5 4.61384V19.3863C11.5 20.9971 9.48593 21.7262 8.45473 20.4888L4.93628 16.2667C4.88351 16.2033 4.80533 16.1667 4.72289 16.1667H2.88889C1.56954 16.1667 0.5 15.0972 0.5 13.7778ZM6.08862 15.3064C5.75085 14.9011 5.2505 14.6667 4.72289 14.6667H2.88889C2.39797 14.6667 2 14.2687 2 13.7778V10.2223C2 9.73135 2.39797 9.33338 2.88889 9.33338H4.72289C5.2505 9.33338 5.75085 9.09903 6.08862 8.69371L9.60706 4.47158C9.74012 4.31191 10 4.40599 10 4.61384V19.3863C10 19.5941 9.74012 19.6882 9.60706 19.5285L6.08862 15.3064Z" fill="black"/>
</svg>
