<svg width="24" height="24" viewBox="0 0 24 24" fill="none" xmlns="http://www.w3.org/2000/svg">
<path d="M15.5 13.75C16.4665 13.75 17.25 12.9665 17.25 12C17.25 11.0335 16.4665 10.25 15.5 10.25C14.5335 10.25 13.75 11.0335 13.75 12C13.75 12.9665 14.5335 13.75 15.5 13.75Z" fill="black"/>
<path fill-rule="evenodd" clip-rule="evenodd" d="M6.25015 3.75C5.45255 3.74998 4.77932 3.74997 4.22782 3.79503C3.65026 3.84221 3.09699 3.94498 2.57054 4.21322C1.77085 4.62069 1.12068 5.27085 0.713223 6.07054C0.444982 6.597 0.342214 7.15026 0.295024 7.72782C0.249965 8.27933 0.24998 8.95254 0.250001 9.75015V14.2499C0.24998 15.0475 0.249965 15.7207 0.295024 16.2722C0.342214 16.8497 0.444982 17.403 0.713223 17.9295C1.12068 18.7292 1.77085 19.3793 2.57054 19.7868C3.09699 20.055 3.65026 20.1578 4.22782 20.205C4.77932 20.25 5.45251 20.25 6.25011 20.25H13.7498C14.5474 20.25 15.2207 20.25 15.7722 20.205C16.3497 20.1578 16.903 20.055 17.4295 19.7868C18.2291 19.3793 18.8793 18.7292 19.2868 17.9295C19.4008 17.7057 19.4849 17.477 19.5476 17.2438C19.7996 17.2386 20.0319 17.2291 20.2437 17.2118C20.7379 17.1714 21.2295 17.0823 21.7024 16.8413C22.408 16.4818 22.9817 15.9081 23.3412 15.2025C23.5822 14.7295 23.6714 14.238 23.7117 13.7438C23.75 13.2756 23.75 12.7072 23.75 12.0484L23.75 11.9518C23.75 11.293 23.75 10.7244 23.7117 10.2562C23.6714 9.76203 23.5822 9.27051 23.3412 8.79754C22.9817 8.09193 22.408 7.51825 21.7024 7.15873C21.2295 6.91773 20.7379 6.82859 20.2437 6.78821C20.0319 6.77091 19.7996 6.76143 19.5476 6.75625C19.4849 6.52296 19.4008 6.29433 19.2868 6.07054C18.8793 5.27085 18.2291 4.62069 17.4295 4.21322C16.903 3.94498 16.3497 3.84221 15.7722 3.79503C15.2207 3.74997 14.5475 3.74998 13.7499 3.75H6.25015ZM16.2945 17.5593C16.4538 17.4781 16.5986 17.3736 16.7247 17.25L15.4518 17.25C14.7929 17.25 14.2244 17.25 13.7562 17.2118C13.262 17.1714 12.7705 17.0823 12.2975 16.8413C11.5919 16.4818 11.0182 15.9081 10.6587 15.2025C10.4177 14.7295 10.3285 14.238 10.2882 13.7438C10.2499 13.2756 10.2499 12.7071 10.25 12.0482V11.9518C10.2499 11.2929 10.2499 10.7244 10.2882 10.2562C10.3285 9.76203 10.4177 9.27051 10.6587 8.79754C11.0182 8.09193 11.5919 7.51825 12.2975 7.15873C12.7705 6.91773 13.262 6.82859 13.7562 6.78821C14.2244 6.74996 14.7928 6.74998 15.4518 6.75L16.7247 6.75C16.5986 6.62643 16.4538 6.52189 16.2945 6.44074C16.1792 6.382 15.9916 6.32128 15.5686 6.28672C15.1311 6.25097 14.5607 6.25 13.7 6.25H6.3C5.4393 6.25 4.86894 6.25097 4.4314 6.28672C4.00844 6.32128 3.8208 6.382 3.70552 6.44074C3.37623 6.60852 3.10852 6.87624 2.94074 7.20552C2.882 7.3208 2.82128 7.50844 2.78672 7.9314C2.75097 8.36895 2.75 8.9393 2.75 9.8V14.2C2.75 15.0607 2.75097 15.6311 2.78672 16.0686C2.82128 16.4916 2.882 16.6792 2.94074 16.7945C3.10852 17.1238 3.37623 17.3915 3.70552 17.5593C3.8208 17.618 4.00844 17.6787 4.4314 17.7133C4.86894 17.749 5.4393 17.75 6.3 17.75H13.7C14.5607 17.75 15.1311 17.749 15.5686 17.7133C15.9916 17.6787 16.1792 17.618 16.2945 17.5593ZM13.9598 9.27991C13.6202 9.30766 13.4943 9.35475 13.4325 9.38624C13.1973 9.50608 13.006 9.69731 12.8862 9.93251C12.8547 9.99432 12.8076 10.1202 12.7799 10.4598C12.7509 10.814 12.75 11.2793 12.75 12C12.75 12.7207 12.7509 13.186 12.7799 13.5402C12.8076 13.8798 12.8547 14.0057 12.8862 14.0675C13.006 14.3027 13.1973 14.4939 13.4325 14.6138C13.4943 14.6453 13.6202 14.6923 13.9598 14.7201C14.3139 14.749 14.7793 14.75 15.5 14.75H18.5C19.2207 14.75 19.686 14.749 20.0402 14.7201C20.3797 14.6923 20.5056 14.6453 20.5674 14.6138C20.8027 14.4939 20.9939 14.3027 21.1137 14.0675C21.1452 14.0057 21.1923 13.8798 21.2201 13.5402C21.249 13.186 21.25 12.7207 21.25 12C21.25 11.2793 21.249 10.814 21.2201 10.4598C21.1923 10.1202 21.1452 9.99432 21.1137 9.93251C20.9939 9.69731 20.8027 9.50608 20.5674 9.38624C20.5056 9.35475 20.3797 9.30766 20.0402 9.27991C19.686 9.25097 19.2207 9.25 18.5 9.25H15.5C14.7793 9.25 14.3139 9.25097 13.9598 9.27991Z" fill="black"/>
</svg>
