<svg width="24" height="24" viewBox="0 0 24 24" fill="none" xmlns="http://www.w3.org/2000/svg">
<path d="M6.28847 4.75H13.7115C14.5419 4.75 15.1803 4.75 15.6908 4.7917C16.2065 4.83384 16.6135 4.91979 16.9755 5.10423C17.587 5.41582 18.0842 5.913 18.3958 6.52453C18.5417 6.81098 18.626 7.12562 18.6757 7.50002C18.6252 7.5 18.5739 7.5 18.5218 7.5H15.4781C14.7966 7.5 14.2545 7.49999 13.8172 7.53572C13.3694 7.57231 12.9876 7.64884 12.638 7.82698C12.0735 8.1146 11.6146 8.57354 11.3269 9.13803C11.1488 9.48765 11.0723 9.86949 11.0357 10.3173C11 10.7546 11 11.2966 11 11.9781V12.0219C11 12.7034 11 13.2454 11.0357 13.6827C11.0723 14.1305 11.1488 14.5123 11.3269 14.862C11.6146 15.4265 12.0735 15.8854 12.638 16.173C12.9876 16.3512 13.3694 16.4277 13.8172 16.4643C14.2545 16.5 14.7965 16.5 15.478 16.5H18.5219C18.5739 16.5 18.6252 16.5 18.6757 16.5C18.626 16.8744 18.5417 17.189 18.3958 17.4755C18.0842 18.087 17.587 18.5842 16.9755 18.8958C16.6135 19.0802 16.2065 19.1662 15.6908 19.2083C15.1803 19.25 14.5419 19.25 13.7116 19.25H6.28846C5.45816 19.25 4.81968 19.25 4.30925 19.2083C3.79353 19.1662 3.38652 19.0802 3.02453 18.8958C2.413 18.5842 1.91582 18.087 1.60423 17.4755C1.41979 17.1135 1.33384 16.7065 1.2917 16.1908C1.25 15.6803 1.25 15.0419 1.25 14.2116V9.78847C1.25 8.9582 1.25 8.31966 1.2917 7.80925C1.33384 7.29353 1.41979 6.88652 1.60423 6.52453C1.91582 5.913 2.413 5.41582 3.02453 5.10423C3.38652 4.91979 3.79353 4.83384 4.30925 4.7917C4.81969 4.75 5.45814 4.75 6.28847 4.75Z" fill="black"/>
<path fill-rule="evenodd" clip-rule="evenodd" d="M13.092 8.71799C13.2771 8.62365 13.5127 8.56393 13.8987 8.5324C14.2905 8.50039 14.7916 8.5 15.5 8.5H18.5C19.2083 8.5 19.7094 8.50039 20.1012 8.5324C20.4872 8.56393 20.7228 8.62365 20.9079 8.71799C21.2843 8.90973 21.5902 9.21569 21.782 9.59202C21.8763 9.77717 21.936 10.0128 21.9676 10.3987C21.9996 10.7905 22 11.2917 22 12C22 12.7083 21.9996 13.2095 21.9676 13.6013C21.936 13.9872 21.8763 14.2228 21.782 14.408C21.5902 14.7843 21.2843 15.0903 20.9079 15.282C20.7228 15.3764 20.4872 15.4361 20.1012 15.4676C19.7094 15.4996 19.2083 15.5 18.5 15.5H15.5C14.7916 15.5 14.2905 15.4996 13.8987 15.4676C13.5127 15.4361 13.2771 15.3764 13.092 15.282C12.7157 15.0903 12.4097 14.7843 12.2179 14.408C12.1236 14.2228 12.0639 13.9872 12.0324 13.6013C12.0003 13.2095 12 12.7083 12 12C12 11.2917 12.0003 10.7905 12.0324 10.3987C12.0639 10.0128 12.1236 9.77717 12.2179 9.59202C12.4097 9.21569 12.7157 8.90973 13.092 8.71799ZM15.5 13C16.0522 13 16.5 12.5523 16.5 12C16.5 11.4477 16.0522 11 15.5 11C14.9477 11 14.5 11.4477 14.5 12C14.5 12.5523 14.9477 13 15.5 13Z" fill="black"/>
</svg>
