<svg width="24" height="24" viewBox="0 0 24 24" fill="none" xmlns="http://www.w3.org/2000/svg">
<path d="M23.9848 12.6101C23.9949 12.408 24 12.2046 24 12C24 10.4037 23.6883 8.88017 23.1225 7.487L22.736 7.31769C18.602 5.50644 13.9295 5.4071 9.7358 7.02081C10.3791 8.53228 11.3658 9.89263 12.6381 10.9834C15.7741 9.6977 19.3415 9.92929 22.2948 11.6344L23.9848 12.6101Z" fill="black"/>
<path d="M23.7413 14.4902L21.4198 13.1499C20.7206 12.7462 19.9803 12.4407 19.2188 12.2344L19.198 12.3558C18.4183 16.9038 16.0712 21.0112 12.5983 23.9853C18.1042 23.715 22.6347 19.7338 23.7413 14.4902Z" fill="black"/>
<path d="M9.94356 23.8245C9.96217 23.8092 9.98156 23.7945 10.0017 23.7806C13.9657 21.0363 16.6585 16.8121 17.4731 12.0601L17.4939 11.9388C16.0749 11.8324 14.6337 12.054 13.2876 12.6086C12.4815 16.7255 9.59731 20.1475 5.64779 21.6287L5.11403 21.8289C6.52979 22.8226 8.17002 23.5182 9.94356 23.8245Z" fill="black"/>
<path d="M3.56911 20.5393C1.36559 18.3636 1.46052e-07 15.3413 0 12C-1.04799e-07 9.60247 0.703109 7.36916 1.91438 5.49502L2.07393 6.55868C2.73966 10.9969 5.02487 15.0188 8.46968 17.8599C7.49079 18.7741 6.32903 19.5042 5.03325 19.9902L3.56911 20.5393Z" fill="black"/>
<path d="M3.40377 3.62713L3.80457 6.29909C4.41002 10.3354 6.49797 13.9906 9.64468 16.5604C10.5754 15.3377 11.2363 13.9064 11.553 12.358C8.7511 9.98314 7.12485 6.48976 7.12485 2.79908V1.03165C5.72193 1.65615 4.46097 2.5419 3.40377 3.62713Z" fill="black"/>
<path d="M8.87485 0.41099L8.87485 2.79908C8.87485 3.67051 8.98024 4.52915 9.18299 5.35863C13.2436 3.81612 17.7057 3.7269 21.8121 5.09012C19.6398 2.01104 16.0547 -1.77239e-07 12 0C10.9189 4.72547e-08 9.87127 0.142954 8.87485 0.41099Z" fill="black"/>
</svg>
