<svg width="24" height="24" viewBox="0 0 24 24" fill="none" xmlns="http://www.w3.org/2000/svg">
<path d="M6.28847 4.75H13.7115C14.5419 4.75 15.1803 4.75 15.6908 4.7917C16.2065 4.83384 16.6135 4.91979 16.9755 5.10423C17.587 5.41582 18.0842 5.913 18.3958 6.52453C18.508 6.74488 18.5838 6.98192 18.6354 7.25C18.6011 7.25 18.5664 7.25 18.5314 7.25H15.4685C14.7952 7.24999 14.2445 7.24998 13.7969 7.28655C13.3336 7.3244 12.9152 7.40514 12.5245 7.60423C11.913 7.91582 11.4158 8.413 11.1042 9.02453C10.9051 9.41527 10.8244 9.83367 10.7865 10.2969C10.7499 10.7445 10.75 11.2952 10.75 11.9685V12.0314C10.75 12.7048 10.7499 13.2555 10.7865 13.7031C10.8244 14.1663 10.9051 14.5847 11.1042 14.9755C11.4158 15.587 11.913 16.0842 12.5245 16.3958C12.9152 16.5949 13.3336 16.6756 13.7969 16.7134C14.2444 16.75 14.7951 16.75 15.4685 16.75H18.5314C18.5664 16.75 18.6011 16.75 18.6354 16.75C18.5838 17.0181 18.508 17.2551 18.3958 17.4755C18.0842 18.087 17.587 18.5842 16.9755 18.8958C16.6135 19.0802 16.2065 19.1662 15.6908 19.2083C15.1803 19.25 14.5419 19.25 13.7116 19.25H6.28846C5.45816 19.25 4.81968 19.25 4.30925 19.2083C3.79353 19.1662 3.38652 19.0802 3.02453 18.8958C2.413 18.5842 1.91582 18.087 1.60423 17.4755C1.41979 17.1135 1.33384 16.7065 1.2917 16.1908C1.25 15.6803 1.25 15.0419 1.25 14.2116V9.78847C1.25 8.9582 1.25 8.31966 1.2917 7.80925C1.33384 7.29353 1.41979 6.88652 1.60423 6.52453C1.91582 5.913 2.413 5.41582 3.02453 5.10423C3.38652 4.91979 3.79353 4.83384 4.30925 4.7917C4.81969 4.75 5.45814 4.75 6.28847 4.75Z" fill="black"/>
<path fill-rule="evenodd" clip-rule="evenodd" d="M13.2055 8.94074C13.3495 8.86735 13.5485 8.81184 13.919 8.78157C14.2983 8.75058 14.7875 8.75 15.5 8.75H18.5C19.2124 8.75 19.7016 8.75058 20.0809 8.78157C20.4514 8.81184 20.6504 8.86735 20.7944 8.94074C21.1237 9.10852 21.3914 9.37623 21.5592 9.70552C21.6326 9.84956 21.6881 10.0486 21.7184 10.4191C21.7494 10.7983 21.75 11.2876 21.75 12C21.75 12.7124 21.7494 13.2017 21.7184 13.5809C21.6881 13.9514 21.6326 14.1504 21.5592 14.2945C21.3914 14.6238 21.1237 14.8915 20.7944 15.0593C20.6504 15.1327 20.4514 15.1882 20.0809 15.2184C19.7016 15.2494 19.2124 15.25 18.5 15.25H15.5C14.7875 15.25 14.2983 15.2494 13.919 15.2184C13.5485 15.1882 13.3495 15.1327 13.2055 15.0593C12.8762 14.8915 12.6085 14.6238 12.4407 14.2945C12.3673 14.1504 12.3118 13.9514 12.2815 13.5809C12.2505 13.2017 12.25 12.7124 12.25 12C12.25 11.2876 12.2505 10.7983 12.2815 10.4191C12.3118 10.0486 12.3673 9.84956 12.4407 9.70552C12.6085 9.37623 12.8762 9.10852 13.2055 8.94074ZM15.5 13.25C16.1903 13.25 16.75 12.6904 16.75 12C16.75 11.3096 16.1903 10.75 15.5 10.75C14.8096 10.75 14.25 11.3096 14.25 12C14.25 12.6904 14.8096 13.25 15.5 13.25Z" fill="black"/>
</svg>
