<svg width="24" height="24" viewBox="0 0 24 24" fill="none" xmlns="http://www.w3.org/2000/svg">
<path d="M23.9567 13.0269C23.9854 12.6884 24 12.3459 24 12C24 10.2084 23.6074 8.5085 22.9035 6.98165L22.8865 6.97421C18.5449 5.07201 13.6221 5.01744 9.24646 6.81177C9.93173 8.58923 11.0686 10.1821 12.5727 11.4181C15.651 10.0791 19.1895 10.2745 22.1073 11.9591L23.9567 13.0269Z" fill="black"/>
<path d="M23.8167 14.1008L21.6073 12.8252C20.7579 12.3348 19.8504 11.9837 18.9174 11.7733L18.8284 12.2925C18.037 16.9085 15.5996 21.062 11.996 24H12C17.9108 24 22.8234 19.7265 23.8167 14.1008Z" fill="black"/>
<path d="M10.477 23.9043C14.3805 21.0997 17.0291 16.8694 17.8427 12.1235L17.9317 11.6044C16.2577 11.4066 14.5392 11.6499 12.956 12.3419C12.2288 16.4181 9.40549 19.8189 5.5161 21.2776L4.75162 21.5644C6.3839 22.8033 8.34305 23.634 10.477 23.9043Z" fill="black"/>
<path d="M3.87048 20.8268C1.49079 18.634 1.526e-07 15.4911 0 12C-1.1346e-07 9.40433 0.824127 7.00114 2.22499 5.03783L2.44478 6.50306C3.11756 10.9882 5.47917 15.0392 9.03476 17.8335C7.95931 18.9218 6.64669 19.7856 5.16494 20.3413L3.87048 20.8268Z" fill="black"/>
<path d="M3.07694 3.9762L3.43372 6.35472C4.07193 10.6095 6.3206 14.4503 9.70535 17.0885C10.8415 15.7015 11.6308 14.0308 11.9633 12.2116C9.14247 9.90638 7.49985 6.45237 7.49985 2.79908V0.872336C5.79607 1.56203 4.28675 2.63168 3.07694 3.9762Z" fill="black"/>
<path d="M8.49985 0.518482L8.49985 2.79908C8.49985 3.84661 8.64701 4.87629 8.92833 5.86154C13.1626 4.14286 17.876 4.05821 22.1568 5.60653C20.0318 2.23782 16.2773 -1.86965e-07 12 0C10.7824 5.32221e-08 9.60719 0.181339 8.49985 0.518482Z" fill="black"/>
</svg>
