<svg width="24" height="24" viewBox="0 0 24 24" fill="none" xmlns="http://www.w3.org/2000/svg">
<path d="M15.5 13.5C16.3284 13.5 17 12.8284 17 12C17 11.1716 16.3284 10.5 15.5 10.5C14.6715 10.5 14 11.1716 14 12C14 12.8284 14.6715 13.5 15.5 13.5Z" fill="black"/>
<path fill-rule="evenodd" clip-rule="evenodd" d="M6.2587 4C5.45376 3.99999 4.78935 3.99998 4.24817 4.0442C3.68608 4.09012 3.16937 4.18869 2.68404 4.43598C1.93139 4.81947 1.31947 5.43139 0.935975 6.18404C0.688683 6.66938 0.590119 7.18608 0.544194 7.74818C0.499978 8.28937 0.499987 8.95373 0.5 9.7587V14.2413C0.499987 15.0463 0.499978 15.7106 0.544194 16.2518C0.590119 16.8139 0.688683 17.3306 0.935975 17.816C1.31947 18.5686 1.93139 19.1805 2.68404 19.564C3.16937 19.8113 3.68608 19.9099 4.24817 19.9558C4.78937 20 5.45374 20 6.25872 20H13.7413C14.5463 20 15.2106 20 15.7518 19.9558C16.3139 19.9099 16.8306 19.8113 17.316 19.564C18.0686 19.1805 18.6805 18.5686 19.064 17.816C19.1981 17.5529 19.2884 17.2806 19.3504 16.9969C19.6743 16.9929 19.965 16.9837 20.2234 16.9626C20.7021 16.9235 21.1571 16.8386 21.5889 16.6185C22.2475 16.283 22.7829 15.7475 23.1185 15.089C23.3385 14.6571 23.4235 14.2022 23.4626 13.7234C23.5 13.2656 23.5 12.706 23.5 12.0402V11.9599C23.5 11.294 23.5 10.7344 23.4626 10.2766C23.4235 9.79785 23.3385 9.34289 23.1185 8.91104C22.7829 8.25247 22.2475 7.71704 21.5889 7.38148C21.1571 7.16144 20.7021 7.0765 20.2234 7.03738C19.965 7.01627 19.6743 7.00708 19.3503 7.00308C19.2884 6.71936 19.1981 6.44709 19.064 6.18404C18.6805 5.43139 18.0686 4.81947 17.316 4.43598C16.8306 4.18869 16.3139 4.09012 15.7518 4.0442C15.2106 3.99998 14.5463 3.99999 13.7414 4H6.2587ZM16.408 17.782C16.7531 17.6061 17.0391 17.3342 17.2321 17H15.4598C14.7939 17 14.2344 17 13.7765 16.9626C13.2978 16.9235 12.8429 16.8386 12.411 16.6185C11.7524 16.283 11.217 15.7475 10.8814 15.089C10.6614 14.6571 10.5765 14.2022 10.5373 13.7234C10.4999 13.2656 10.4999 12.7061 10.5 12.0402V11.9598C10.4999 11.294 10.4999 10.7344 10.5373 10.2766C10.5765 9.79785 10.6614 9.34289 10.8814 8.91104C11.217 8.25247 11.7524 7.71704 12.411 7.38148C12.8429 7.16144 13.2978 7.0765 13.7765 7.03738C14.2344 6.99997 14.7939 6.99999 15.4598 7L17.2321 7C17.0391 6.66581 16.7531 6.39386 16.408 6.21799C16.2516 6.1383 16.0274 6.07337 15.589 6.03755C15.1389 6.00078 14.5566 6 13.7 6H6.3C5.44342 6 4.86113 6.00078 4.41104 6.03755C3.97262 6.07337 3.74842 6.1383 3.59202 6.21799C3.21569 6.40974 2.90973 6.7157 2.71799 7.09202C2.6383 7.24842 2.57337 7.47263 2.53755 7.91104C2.50078 8.36113 2.5 8.94342 2.5 9.8V14.2C2.5 15.0566 2.50078 15.6389 2.53755 16.089C2.57337 16.5274 2.6383 16.7516 2.71799 16.908C2.90973 17.2843 3.21569 17.5903 3.59202 17.782C3.74842 17.8617 3.97262 17.9266 4.41104 17.9625C4.86113 17.9992 5.44342 18 6.3 18H13.7C14.5566 18 15.1389 17.9992 15.589 17.9625C16.0274 17.9266 16.2516 17.8617 16.408 17.782ZM13.9394 9.03074C13.5844 9.05975 13.4219 9.11105 13.319 9.16349C13.0367 9.3073 12.8073 9.53677 12.6635 9.81902C12.611 9.92194 12.5597 10.0844 12.5307 10.4394C12.5007 10.8062 12.5 11.2834 12.5 12C12.5 12.7166 12.5007 13.1939 12.5307 13.5606C12.5597 13.9156 12.611 14.0781 12.6635 14.181C12.8073 14.4632 13.0367 14.6927 13.319 14.8365C13.4219 14.889 13.5844 14.9403 13.9394 14.9693C14.3061 14.9992 14.7834 15 15.5 15H18.5C19.2165 15 19.6938 14.9992 20.0605 14.9693C20.4156 14.9403 20.578 14.889 20.6809 14.8365C20.9632 14.6927 21.1927 14.4632 21.3365 14.181C21.3889 14.0781 21.4402 13.9156 21.4692 13.5606C21.4992 13.1939 21.5 12.7166 21.5 12C21.5 11.2834 21.4992 10.8062 21.4692 10.4394C21.4402 10.0844 21.3889 9.92194 21.3365 9.81902C21.1927 9.53677 20.9632 9.3073 20.6809 9.16349C20.578 9.11105 20.4156 9.05975 20.0605 9.03074C19.6938 9.00078 19.2165 9 18.5 9H15.5C14.7834 9 14.3061 9.00078 13.9394 9.03074Z" fill="black"/>
</svg>
