<svg width="24" height="24" viewBox="0 0 24 24" fill="none" xmlns="http://www.w3.org/2000/svg">
<path fill-rule="evenodd" clip-rule="evenodd" d="M23.7686 14.3616C23.8735 13.8361 23.944 13.2982 23.9778 12.7504L23.9769 12.7499C23.9922 12.5019 24 12.2519 24 12C24 10.3397 23.6628 8.75823 23.0532 7.3202L23.0544 7.32071C22.747 6.59541 22.3702 5.9066 21.9325 5.2626C21.9321 5.26246 21.9317 5.26232 21.9313 5.26218C19.7723 2.08618 16.1298 -1.80519e-07 12 0C5.37258 2.89694e-07 -2.89694e-07 5.37258 0 12C2.89694e-07 18.6274 5.37258 24 12 24C17.8192 24 22.6718 19.8584 23.7686 14.3616ZM14.2623 22.2557C18.4758 21.3304 21.7412 17.8748 22.3845 13.5626L21.4823 13.0417C20.733 12.609 19.9372 12.2877 19.1186 12.0788L18.9574 13.0193C18.3557 16.5295 16.7039 19.7417 14.2623 22.2557ZM19.449 4.59981C17.547 2.68533 14.9119 1.5 12 1.5C10.8656 1.5 9.77324 1.67989 8.74986 2.0127V2.79908C8.74986 3.72889 8.86846 4.64431 9.09614 5.5259C12.4111 4.23809 16.0021 3.92956 19.449 4.59981ZM7.24985 2.63339C5.933 3.30254 4.77615 4.24123 3.85196 5.37683L3.95572 6.31069C4.4104 10.4028 6.46075 14.14 9.64509 16.7206C10.6537 15.4529 11.3646 13.9463 11.6884 12.3086C8.88101 9.95673 7.24985 6.47685 7.24985 2.79908V2.63339ZM2.58439 7.34754C1.89018 8.74979 1.5 10.3293 1.5 12C1.5 15.1864 2.91934 18.0413 5.16029 19.9669C6.46837 19.483 7.6408 18.7484 8.62619 17.8253C5.40472 15.1845 3.2561 11.4581 2.58439 7.34754ZM6.58325 20.9968C8.10541 21.9152 9.87957 22.4582 11.7775 22.4977C14.7831 20.0641 16.8199 16.6104 17.479 12.7659L17.6402 11.8254C16.1352 11.6904 14.6014 11.9199 13.1754 12.5198C12.4641 16.2521 10.0003 19.4001 6.58325 20.9968ZM20.9604 6.5235C21.9203 8.09063 22.4806 9.92902 22.4995 11.8969L22.2323 11.7426C19.2906 10.0442 15.7325 9.82462 12.6153 11.1282C11.2665 9.98811 10.2296 8.5506 9.57098 6.95081C13.2204 5.51518 17.2385 5.373 20.9604 6.5235Z" fill="black"/>
</svg>
