<svg width="24" height="24" viewBox="0 0 24 24" fill="none" xmlns="http://www.w3.org/2000/svg">
<path d="M15.5 13.25C16.1903 13.25 16.75 12.6904 16.75 12C16.75 11.3096 16.1903 10.75 15.5 10.75C14.8096 10.75 14.25 11.3096 14.25 12C14.25 12.6904 14.8096 13.25 15.5 13.25Z" fill="black"/>
<path fill-rule="evenodd" clip-rule="evenodd" d="M6.26789 4.25C5.45506 4.24999 4.79943 4.24999 4.26853 4.29336C3.7219 4.33803 3.24175 4.43239 2.79754 4.65873C2.09193 5.01825 1.51825 5.59193 1.15873 6.29754C0.932385 6.74176 0.838026 7.2219 0.793364 7.76853C0.749987 8.29944 0.749993 8.95506 0.75 9.7679V14.2321C0.749993 15.0449 0.749987 15.7006 0.793364 16.2315C0.838026 16.7781 0.932385 17.2582 1.15873 17.7025C1.51825 18.4081 2.09193 18.9818 2.79754 19.3413C3.24175 19.5676 3.7219 19.662 4.26853 19.7066C4.79944 19.75 5.45505 19.75 6.26788 19.75H13.7321C14.545 19.75 15.2006 19.75 15.7315 19.7066C16.2781 19.662 16.7582 19.5676 17.2025 19.3413C17.9081 18.9818 18.4817 18.4081 18.8413 17.7025C18.9934 17.4039 19.0859 17.0891 19.1438 16.7488C19.5484 16.7462 19.8994 16.7383 20.203 16.7134C20.6663 16.6756 21.0847 16.5949 21.4754 16.3958C22.087 16.0842 22.5841 15.587 22.8957 14.9755C23.0948 14.5847 23.1756 14.1663 23.2134 13.7031C23.25 13.2555 23.25 12.7048 23.25 12.0315V11.9686C23.25 11.2952 23.25 10.7445 23.2134 10.2969C23.1756 9.83367 23.0948 9.41527 22.8957 9.02453C22.5841 8.413 22.087 7.91582 21.4754 7.60423C21.0847 7.40514 20.6663 7.3244 20.203 7.28655C19.8994 7.26175 19.5484 7.25377 19.1438 7.25121C19.0859 6.9109 18.9934 6.59611 18.8413 6.29754C18.4817 5.59193 17.9081 5.01825 17.2025 4.65873C16.7582 4.43239 16.2781 4.33803 15.7315 4.29336C15.2006 4.24999 14.545 4.24999 13.7321 4.25H6.26789ZM17.5048 17.0215C17.5445 16.9435 17.5793 16.8557 17.6092 16.75H15.4685C14.7952 16.75 14.2444 16.75 13.7969 16.7134C13.3336 16.6756 12.9152 16.5949 12.5245 16.3958C11.913 16.0842 11.4158 15.587 11.1042 14.9755C10.9051 14.5847 10.8244 14.1663 10.7865 13.7031C10.7499 13.2555 10.75 12.7048 10.75 12.0315V11.9686C10.75 11.2952 10.7499 10.7445 10.7865 10.2969C10.8244 9.83367 10.9051 9.41527 11.1042 9.02453C11.4158 8.413 11.913 7.91582 12.5245 7.60423C12.9152 7.40514 13.3336 7.3244 13.7969 7.28655C14.2445 7.24998 14.7952 7.24999 15.4685 7.25L17.6092 7.25C17.5793 7.14433 17.5445 7.0565 17.5048 6.97852C17.289 6.55516 16.9448 6.21095 16.5215 5.99524C16.324 5.8946 16.0632 5.82547 15.6093 5.78838C15.1467 5.75058 14.5525 5.75 13.7 5.75H6.3C5.44755 5.75 4.85331 5.75058 4.39068 5.78838C3.9368 5.82547 3.67604 5.8946 3.47852 5.99524C3.05516 6.21095 2.71095 6.55516 2.49524 6.97852C2.3946 7.17604 2.32546 7.43681 2.28838 7.89068C2.25058 8.35331 2.25 8.94755 2.25 9.8V14.2C2.25 15.0525 2.25058 15.6467 2.28838 16.1093C2.32546 16.5632 2.3946 16.824 2.49524 17.0215C2.71095 17.4448 3.05516 17.7891 3.47852 18.0048C3.67604 18.1054 3.9368 18.1745 4.39068 18.2116C4.85331 18.2494 5.44755 18.25 6.3 18.25H13.7C14.5525 18.25 15.1467 18.2494 15.6093 18.2116C16.0632 18.1745 16.324 18.1054 16.5215 18.0048C16.9448 17.7891 17.289 17.4448 17.5048 17.0215ZM13.919 8.78157C13.5485 8.81184 13.3495 8.86735 13.2055 8.94074C12.8762 9.10852 12.6085 9.37623 12.4407 9.70552C12.3673 9.84956 12.3118 10.0486 12.2815 10.4191C12.2505 10.7983 12.25 11.2876 12.25 12C12.25 12.7124 12.2505 13.2017 12.2815 13.5809C12.3118 13.9514 12.3673 14.1504 12.4407 14.2945C12.6085 14.6238 12.8762 14.8915 13.2055 15.0593C13.3495 15.1327 13.5485 15.1882 13.919 15.2184C14.2983 15.2494 14.7875 15.25 15.5 15.25H18.5C19.2124 15.25 19.7016 15.2494 20.0809 15.2184C20.4514 15.1882 20.6504 15.1327 20.7944 15.0593C21.1237 14.8915 21.3914 14.6238 21.5592 14.2945C21.6326 14.1504 21.6881 13.9514 21.7184 13.5809C21.7494 13.2017 21.75 12.7124 21.75 12C21.75 11.2876 21.7494 10.7983 21.7184 10.4191C21.6881 10.0486 21.6326 9.84956 21.5592 9.70552C21.3914 9.37623 21.1237 9.10852 20.7944 8.94074C20.6504 8.86735 20.4514 8.81184 20.0809 8.78157C19.7016 8.75058 19.2124 8.75 18.5 8.75H15.5C14.7875 8.75 14.2983 8.75058 13.919 8.78157Z" fill="black"/>
</svg>
