<svg width="24" height="24" viewBox="0 0 24 24" fill="none" xmlns="http://www.w3.org/2000/svg">
<path d="M23.991 12.4693C23.997 12.3136 24 12.1572 24 12C24 10.4666 23.7124 9.00032 23.1881 7.65225L22.6858 7.43218C18.622 5.65169 14.0341 5.53765 9.90245 7.09116C10.5289 8.51464 11.4655 9.79818 12.6619 10.8389C15.8163 9.571 19.3928 9.81453 22.3573 11.5261L23.991 12.4693Z" fill="black"/>
<path d="M23.7135 14.6185L21.3573 13.2582C20.7081 12.8834 20.0232 12.5944 19.3186 12.392C18.5407 16.9087 16.2264 20.9927 12.8032 23.9735C18.1716 23.6188 22.575 19.7337 23.7135 14.6185Z" fill="black"/>
<path d="M9.78866 23.7967C9.83144 23.7535 9.87878 23.7137 9.93056 23.6778C13.8627 20.9555 16.5352 16.7669 17.3473 12.0542C16.0137 11.9745 14.6637 12.188 13.3971 12.6989C12.5649 16.8287 9.6607 20.2572 5.69169 21.7458L5.23909 21.9155C6.58436 22.8346 8.12625 23.487 9.78866 23.7967Z" fill="black"/>
<path d="M3.47192 20.4423C1.32551 18.2742 1.43893e-07 15.2919 0 12C-1.01814e-07 9.67075 0.66363 7.4965 1.81213 5.65601L1.95031 6.57723C2.61351 10.9985 4.87286 15.0095 8.27994 17.8648C7.33503 18.723 6.22374 19.4102 4.98936 19.8732L3.47192 20.4423Z" fill="black"/>
<path d="M3.51349 3.51595L3.92818 6.28054C4.52255 10.243 6.55659 13.8353 9.62324 16.3808C10.4875 15.2151 11.1063 13.8636 11.4155 12.405C8.62041 10.0076 6.99985 6.50163 6.99985 2.79908V1.08815C5.69491 1.6871 4.5159 2.51325 3.51349 3.51595Z" fill="black"/>
<path d="M8.99985 0.37809L8.99986 2.79908C8.99986 3.61245 9.09274 4.41454 9.27184 5.19173C13.2698 3.70722 17.6449 3.61631 21.6885 4.91821C19.5053 1.9364 15.9788 -1.73918e-07 12 0C10.964 4.52829e-08 9.95876 0.131271 8.99985 0.37809Z" fill="black"/>
</svg>
