<svg width="24" height="24" viewBox="0 0 24 24" fill="none" xmlns="http://www.w3.org/2000/svg">
<path d="M6.28847 4.75H13.7115C14.5419 4.75 15.1803 4.75 15.6908 4.7917C16.2065 4.83384 16.6135 4.91979 16.9755 5.10423C17.587 5.41582 18.0842 5.913 18.3958 6.52453C18.4719 6.67387 18.5312 6.83087 18.5776 7C18.5651 7 18.5526 7 18.5401 7H15.4598C14.7939 6.99998 14.2344 6.99997 13.7765 7.03738C13.2978 7.07649 12.8429 7.16143 12.411 7.38148C11.7524 7.71703 11.217 8.25247 10.8814 8.91103C10.6614 9.34289 10.5765 9.79785 10.5373 10.2766C10.4999 10.7344 10.4999 11.2939 10.5 11.9598V12.0402C10.4999 12.706 10.4999 13.2656 10.5373 13.7234C10.5765 14.2021 10.6614 14.6571 10.8814 15.089C11.217 15.7475 11.7524 16.283 12.411 16.6185C12.8429 16.8386 13.2978 16.9235 13.7765 16.9626C14.2344 17 14.7939 17 15.4598 17H18.5401C18.5526 17 18.5651 17 18.5776 17C18.5312 17.1691 18.4719 17.3261 18.3958 17.4755C18.0842 18.087 17.587 18.5842 16.9755 18.8958C16.6135 19.0802 16.2065 19.1662 15.6908 19.2083C15.1803 19.25 14.5419 19.25 13.7116 19.25H6.28846C5.45816 19.25 4.81968 19.25 4.30925 19.2083C3.79353 19.1662 3.38652 19.0802 3.02453 18.8958C2.413 18.5842 1.91582 18.087 1.60423 17.4755C1.41979 17.1135 1.33384 16.7065 1.2917 16.1908C1.25 15.6803 1.25 15.0419 1.25 14.2116V9.78847C1.25 8.9582 1.25 8.31966 1.2917 7.80925C1.33384 7.29353 1.41979 6.88652 1.60423 6.52453C1.91582 5.913 2.413 5.41582 3.02453 5.10423C3.38652 4.91979 3.79353 4.83384 4.30925 4.7917C4.81969 4.75 5.45814 4.75 6.28847 4.75Z" fill="black"/>
<path fill-rule="evenodd" clip-rule="evenodd" d="M13.319 9.16349C13.4219 9.11105 13.5844 9.05975 13.9394 9.03074C14.3061 9.00078 14.7834 9 15.5 9H18.5C19.2165 9 19.6938 9.00078 20.0605 9.03074C20.4156 9.05975 20.578 9.11105 20.6809 9.16349C20.9632 9.3073 21.1927 9.53677 21.3365 9.81901C21.3889 9.92194 21.4402 10.0844 21.4692 10.4394C21.4992 10.8062 21.5 11.2834 21.5 12C21.5 12.7166 21.4992 13.1938 21.4692 13.5606C21.4402 13.9156 21.3889 14.0781 21.3365 14.181C21.1927 14.4632 20.9632 14.6927 20.6809 14.8365C20.578 14.889 20.4156 14.9403 20.0605 14.9693C19.6938 14.9992 19.2165 15 18.5 15H15.5C14.7834 15 14.3061 14.9992 13.9394 14.9693C13.5844 14.9403 13.4219 14.889 13.319 14.8365C13.0367 14.6927 12.8073 14.4632 12.6635 14.181C12.611 14.0781 12.5597 13.9156 12.5307 13.5606C12.5007 13.1938 12.5 12.7166 12.5 12C12.5 11.2834 12.5007 10.8062 12.5307 10.4394C12.5597 10.0844 12.611 9.92194 12.6635 9.81901C12.8073 9.53677 13.0367 9.3073 13.319 9.16349ZM15.5 13.5C16.3284 13.5 17 12.8284 17 12C17 11.1716 16.3284 10.5 15.5 10.5C14.6715 10.5 14 11.1716 14 12C14 12.8284 14.6715 13.5 15.5 13.5Z" fill="black"/>
</svg>
