<svg width="24" height="24" viewBox="0 0 24 24" fill="none" xmlns="http://www.w3.org/2000/svg">
<path d="M23.9304 13.3003C23.9764 12.8732 24 12.4394 24 12C24 10.0731 23.5458 8.2523 22.7387 6.63877C18.3218 4.78312 13.339 4.7944 8.92814 6.67388C9.63489 8.63029 10.8718 10.38 12.5342 11.7087C15.5718 10.3344 19.0895 10.5055 21.9823 12.1756L23.9304 13.3003Z" fill="black"/>
<path d="M23.8602 13.8372L21.7323 12.6087C20.7828 12.0605 19.7626 11.682 18.7149 11.475L18.582 12.2502C17.7839 16.9055 15.2896 21.0842 11.6045 23.9936C11.7358 23.9979 11.8676 24 12 24C18.0027 24 22.976 19.5925 23.8602 13.8372Z" fill="black"/>
<path d="M10.845 23.9451C14.6801 21.1027 17.28 16.8858 18.0891 12.1657L18.222 11.3905C16.3792 11.1227 14.4727 11.3786 12.7323 12.1679C12.058 16.2149 9.27625 19.6004 5.42831 21.0436L4.52014 21.3842C6.28888 22.7958 8.4656 23.7179 10.845 23.9451Z" fill="black"/>
<path d="M4.07987 21.0153C1.57856 18.8161 1.57028e-07 15.5924 0 12C-1.19018e-07 9.27717 0.906848 6.76615 2.43499 4.75249L2.69201 6.46597C3.36904 10.9794 5.78068 15.047 9.40814 17.8062C8.27277 19.0155 6.85998 19.9726 5.25273 20.5754L4.07987 21.0153Z" fill="black"/>
<path d="M2.86112 4.2227L3.18648 6.3918C3.84618 10.7898 6.20125 14.7519 9.74311 17.4327C11.0206 15.9413 11.8972 14.1105 12.2351 12.1097C9.40282 9.85234 7.74985 6.42598 7.74985 2.79908V0.774397C5.83963 1.49802 4.16228 2.69522 2.86112 4.2227Z" fill="black"/>
<path d="M8.24985 0.597616L8.24986 2.79908C8.24986 3.96561 8.42835 5.11049 8.76816 6.1986C13.1069 4.36083 17.9803 4.27867 22.3661 5.95094C20.2843 2.39121 16.4214 -1.93266e-07 12 0C10.6904 5.72462e-08 9.42972 0.209797 8.24985 0.597616Z" fill="black"/>
</svg>
