<svg width="24" height="24" viewBox="0 0 24 24" fill="none" xmlns="http://www.w3.org/2000/svg">
<path d="M12.5115 23.9893C12.493 23.9901 12.4745 23.9908 12.4559 23.9915Z" fill="black"/>
<path fill-rule="evenodd" clip-rule="evenodd" d="M12.4559 23.9915C12.3047 23.9972 12.1527 24 12 24C5.37258 24 2.89694e-07 18.6274 0 12C-2.89694e-07 5.37258 5.37258 2.89694e-07 12 0C16.0547 -1.77238e-07 19.6398 2.01105 21.8121 5.09013C21.8125 5.09026 21.8129 5.0904 21.8134 5.09054C22.3364 5.83199 22.7775 6.63537 23.1236 7.4875L23.1225 7.487C23.6883 8.88017 24 10.4037 24 12C24 12.2046 23.9949 12.408 23.9848 12.6101L23.9857 12.6106C23.9535 13.2518 23.871 13.8798 23.7421 14.4907C22.6297 19.7618 18.0566 23.7567 12.5115 23.9893M12.1759 21.9985C12.1174 21.9995 12.0588 22 12 22C10.2806 22 8.6625 21.566 7.24934 20.8017C10.3633 19.1217 12.5947 16.1255 13.2854 12.6094C14.6322 12.0543 16.0741 11.8324 17.4939 11.9388L17.3558 12.7447C16.7373 16.3522 14.8963 19.6128 12.1759 21.9985ZM21.899 13.4266C21.3561 17.2276 18.6757 20.3394 15.1144 21.5055C17.1552 19.1144 18.5395 16.197 19.0806 13.0404L19.2188 12.2344C19.9803 12.4407 20.7206 12.7462 21.4198 13.1499L21.899 13.4266ZM21.9858 11.4625C21.8884 9.62344 21.2941 7.91614 20.3347 6.47242C16.8483 5.53031 13.1348 5.71291 9.7358 7.02081C10.3791 8.53228 11.3658 9.89263 12.6381 10.9834C15.6655 9.74224 19.0949 9.91507 21.9858 11.4625ZM18.3778 4.29747C16.6468 2.86255 14.4241 2 12 2C10.9086 2 9.85808 2.17483 8.87486 2.49802V2.79908C8.87486 3.67051 8.98024 4.52915 9.18299 5.35863C12.1328 4.23808 15.2945 3.88447 18.3778 4.29747ZM7.13339 3.26202C5.92656 3.93561 4.87369 4.85197 4.04086 5.94502L4.07995 6.29688C4.5263 10.314 6.52276 13.9863 9.62552 16.5432C10.5659 15.3307 11.2337 13.9038 11.5513 12.3565C8.86784 10.0813 7.26321 6.77986 7.13339 3.26202ZM2.66421 8.40878C2.23517 9.52338 2 10.7342 2 12C2 15.0783 3.39088 17.8317 5.57847 19.6661C6.64105 19.213 7.60384 18.5888 8.43633 17.8305C5.52492 15.4032 3.50063 12.0885 2.66421 8.40878Z" fill="black"/>
</svg>
