<svg width="24" height="24" viewBox="0 0 24 24" fill="none" xmlns="http://www.w3.org/2000/svg">
<path fill-rule="evenodd" clip-rule="evenodd" d="M12.9886 3.1809C12.3591 2.90194 11.6409 2.90194 11.0114 3.1809C10.6249 3.35211 10.3065 3.68211 9.96926 4.15496C9.63293 4.62652 9.25519 5.27407 8.76365 6.11671L3.35166 15.3944C2.85341 16.2486 2.47063 16.9047 2.22276 17.436C1.97431 17.9684 1.84261 18.4126 1.88579 18.8362C1.95609 19.5258 2.31632 20.1529 2.87656 20.5611C3.22069 20.8119 3.67073 20.9219 4.25582 20.9756C4.83956 21.0291 5.59923 21.0291 6.58806 21.0291H17.4118C18.4007 21.0291 19.1604 21.0291 19.7442 20.9756C20.3293 20.9219 20.7793 20.8119 21.1234 20.5611C21.6837 20.1529 22.0439 19.5258 22.1142 18.8362C22.1574 18.4126 22.0257 17.9684 21.7772 17.436C21.5294 16.9048 21.1466 16.2486 20.6484 15.3945L15.2363 6.11672C14.7448 5.2741 14.367 4.62651 14.0307 4.15496C13.6935 3.68211 13.375 3.35211 12.9886 3.1809ZM12 8.37511C12.1381 8.37511 12.25 8.48704 12.25 8.62511V14.6251C12.25 14.7632 12.1381 14.8751 12 14.8751C11.8619 14.8751 11.75 14.7632 11.75 14.6251V8.62511C11.75 8.48704 11.8619 8.37511 12 8.37511ZM12 17.3751C12.2761 17.3751 12.5 17.1513 12.5 16.8751C12.5 16.599 12.2761 16.3751 12 16.3751C11.7238 16.3751 11.5 16.599 11.5 16.8751C11.5 17.1513 11.7238 17.3751 12 17.3751Z" fill="black"/>
</svg>
