<svg width="24" height="24" viewBox="0 0 24 24" fill="none" xmlns="http://www.w3.org/2000/svg">
<path fill-rule="evenodd" clip-rule="evenodd" d="M13.0899 2.95233C12.3958 2.6448 11.6041 2.6448 10.9101 2.95233C10.4611 3.15125 10.1105 3.52633 9.76572 4.00979C9.42271 4.49071 9.04022 5.14641 8.55414 5.9797L3.12927 15.2795C2.63649 16.1242 2.24894 16.7886 1.9962 17.3302C1.74234 17.8743 1.58689 18.3692 1.63708 18.8615C1.71457 19.6218 2.11171 20.3132 2.72934 20.7632C3.12932 21.0546 3.63512 21.1697 4.23297 21.2245C4.82815 21.2791 5.59721 21.2791 6.57511 21.2791H17.4246C18.4026 21.2791 19.1718 21.2792 19.767 21.2245C20.3648 21.1697 20.8706 21.0546 21.2706 20.7632C21.8883 20.3132 22.2854 19.6218 22.3629 18.8615C22.4131 18.3692 22.2576 17.8743 22.0038 17.3302C21.751 16.7886 21.3635 16.1243 20.8708 15.2796L15.4458 5.97973C14.9598 5.14643 14.5773 4.49072 14.2342 4.00979C13.8894 3.52633 13.5388 3.15125 13.0899 2.95233ZM12 8.50041C12.2761 8.50041 12.5 8.72427 12.5 9.00041V14.0004C12.5 14.2766 12.2761 14.5004 12 14.5004C11.7238 14.5004 11.5 14.2766 11.5 14.0004V9.00041C11.5 8.72427 11.7238 8.50041 12 8.50041ZM12 17.5004C12.4142 17.5004 12.75 17.1646 12.75 16.7504C12.75 16.3362 12.4142 16.0004 12 16.0004C11.5858 16.0004 11.25 16.3362 11.25 16.7504C11.25 17.1646 11.5858 17.5004 12 17.5004Z" fill="black"/>
</svg>
