<svg width="24" height="24" viewBox="0 0 24 24" fill="none" xmlns="http://www.w3.org/2000/svg">
<path d="M12.0002 8.00023C12.4145 8.00023 12.7502 8.33602 12.7502 8.75023V13.7502C12.7502 14.1644 12.4145 14.5002 12.0002 14.5002C11.586 14.5002 11.2502 14.1644 11.2502 13.7502V8.75023C11.2502 8.33602 11.586 8.00023 12.0002 8.00023Z" fill="black"/>
<path d="M12.0002 18.0002C12.5525 18.0002 13.0002 17.5525 13.0002 17.0002C13.0002 16.4479 12.5525 16.0002 12.0002 16.0002C11.448 16.0002 11.0002 16.4479 11.0002 17.0002C11.0002 17.5525 11.448 18.0002 12.0002 18.0002Z" fill="black"/>
<path fill-rule="evenodd" clip-rule="evenodd" d="M10.7078 2.49501C11.5308 2.13033 12.4696 2.13033 13.2927 2.49501C13.8667 2.74935 14.2816 3.21458 14.6416 3.71927C14.998 4.21904 15.3902 4.89145 15.8665 5.70792L21.3144 15.0472C21.7973 15.875 22.1946 16.556 22.4571 17.1186C22.7218 17.6859 22.9247 18.2822 22.8605 18.912C22.7686 19.8136 22.2977 20.6335 21.5653 21.1671C21.0536 21.5399 20.4363 21.6651 19.8129 21.7223C19.1947 21.779 18.4062 21.779 17.4478 21.779L6.5526 21.779C5.5942 21.779 4.80577 21.779 4.18752 21.7223C3.56415 21.6651 2.94682 21.5399 2.43513 21.1671C1.70272 20.6335 1.23179 19.8136 1.13989 18.912C1.07568 18.2822 1.27864 17.6859 1.54333 17.1186C1.80585 16.556 2.20312 15.875 2.68604 15.0472L8.13397 5.70788C8.61022 4.89143 9.00243 4.21903 9.35888 3.71927C9.71883 3.21458 10.1337 2.74935 10.7078 2.49501ZM12.4825 4.32355C12.1754 4.18748 11.8251 4.18748 11.518 4.32355C11.4442 4.35621 11.2865 4.46084 10.9872 4.88061C10.6904 5.29662 10.344 5.88856 9.83665 6.75827L4.43857 16.0121C3.9245 16.8934 3.57475 17.495 3.35573 17.9643C3.13438 18.4387 3.12144 18.6294 3.12957 18.7092C3.16387 19.0456 3.33959 19.3515 3.61288 19.5507C3.67774 19.5979 3.84895 19.6828 4.37025 19.7306C4.88604 19.778 5.58188 19.779 6.60213 19.779L17.3983 19.779C18.4185 19.779 19.1144 19.778 19.6302 19.7306C20.1515 19.6828 20.3227 19.5979 20.3876 19.5507C20.6608 19.3515 20.8366 19.0456 20.8709 18.7092C20.879 18.6294 20.866 18.4387 20.6447 17.9643C20.4257 17.495 20.0759 16.8934 19.5619 16.0121L14.1638 6.75827C13.6564 5.88856 13.31 5.29662 13.0133 4.88061C12.7139 4.46084 12.5562 4.35621 12.4825 4.32355Z" fill="black"/>
</svg>
