<svg width="24" height="24" viewBox="0 0 24 24" fill="none" xmlns="http://www.w3.org/2000/svg">
<path d="M12 8.37511C12.1381 8.37511 12.25 8.48704 12.25 8.62511V14.6251C12.25 14.7632 12.1381 14.8751 12 14.8751C11.862 14.8751 11.75 14.7632 11.75 14.6251V8.62511C11.75 8.48704 11.862 8.37511 12 8.37511Z" fill="black"/>
<path d="M12 17.3751C12.2762 17.3751 12.5 17.1513 12.5 16.8751C12.5 16.599 12.2762 16.3751 12 16.3751C11.7239 16.3751 11.5 16.599 11.5 16.8751C11.5 17.1513 11.7239 17.3751 12 17.3751Z" fill="black"/>
<path fill-rule="evenodd" clip-rule="evenodd" d="M11.0114 3.1809C11.6409 2.90194 12.3591 2.90194 12.9886 3.1809C13.375 3.35211 13.6935 3.68211 14.0307 4.15496C14.367 4.62651 14.7448 5.27405 15.2363 6.11667L20.6484 15.3945C21.1466 16.2486 21.5294 16.9048 21.7772 17.436C22.0257 17.9684 22.1574 18.4126 22.1142 18.8362C22.0439 19.5258 21.6837 20.1529 21.1234 20.5611C20.7793 20.8119 20.3293 20.9219 19.7442 20.9756C19.1604 21.0291 18.4007 21.0291 17.4118 21.0291H6.58806C5.59923 21.0291 4.83956 21.0291 4.25582 20.9756C3.67073 20.9219 3.22069 20.8119 2.87656 20.5611C2.31632 20.1529 1.95609 19.5258 1.88579 18.8362C1.84261 18.4126 1.97431 17.9684 2.22276 17.436C2.47063 16.9047 2.85341 16.2486 3.35166 15.3944L8.76365 6.11671C9.25519 5.27407 9.63293 4.62652 9.96926 4.15496C10.3065 3.68211 10.6249 3.35211 11.0114 3.1809ZM12.7861 3.63803C12.2855 3.41623 11.7145 3.41623 11.2139 3.63803C10.9526 3.75382 10.6984 3.99368 10.3763 4.44529C10.0549 4.89597 9.68849 5.52359 9.1886 6.38055L3.79051 15.6344C3.28389 16.5029 2.91288 17.1394 2.67586 17.6474C2.43825 18.1566 2.35405 18.4994 2.38322 18.7855C2.43911 19.3338 2.72554 19.8325 3.171 20.157C3.40342 20.3264 3.74193 20.4263 4.3015 20.4777C4.8597 20.5289 5.59645 20.5291 6.60191 20.5291L17.3981 20.5291C18.4035 20.5291 19.1403 20.5289 19.6985 20.4777C20.2581 20.4263 20.5966 20.3264 20.829 20.157C21.2744 19.8325 21.5609 19.3338 21.6168 18.7855C21.6459 18.4994 21.5617 18.1566 21.3241 17.6474C21.0871 17.1394 20.7161 16.5029 20.2095 15.6344L14.8114 6.38055C14.3115 5.5236 13.9451 4.89596 13.6236 4.44529C13.3015 3.99368 13.0474 3.75383 12.7861 3.63803Z" fill="black"/>
</svg>
