<svg width="24" height="24" viewBox="0 0 24 24" fill="none" xmlns="http://www.w3.org/2000/svg">
<path fill-rule="evenodd" clip-rule="evenodd" d="M13.0901 2.95215C12.3961 2.64461 11.6044 2.64461 10.9103 2.95215C10.4614 3.15107 10.1108 3.52615 9.76596 4.0096C9.42295 4.49053 9.04046 5.14623 8.55439 5.97951L3.12951 15.2793C2.63674 16.124 2.24918 16.7884 1.99644 17.3301C1.74258 17.8741 1.58713 18.369 1.63732 18.8613C1.71482 19.6216 2.11195 20.313 2.72958 20.763C3.12957 21.0544 3.63537 21.1695 4.23322 21.2244C4.82839 21.279 5.59745 21.279 6.57536 21.279H17.4249C18.4029 21.279 19.172 21.279 19.7672 21.2244C20.3651 21.1695 20.8709 21.0544 21.2709 20.763C21.8885 20.313 22.2856 19.6216 22.3631 18.8613C22.4133 18.369 22.2579 17.8741 22.004 17.3301C21.7513 16.7884 21.3638 16.1241 20.871 15.2794L15.4461 5.97954C14.96 5.14625 14.5775 4.49054 14.2345 4.00961C13.8897 3.52615 13.5391 3.15107 13.0901 2.95215ZM12.0002 8.50023C12.2764 8.50023 12.5002 8.72408 12.5002 9.00023V14.0002C12.5002 14.2764 12.2764 14.5002 12.0002 14.5002C11.7241 14.5002 11.5002 14.2764 11.5002 14.0002V9.00023C11.5002 8.72408 11.7241 8.50023 12.0002 8.50023ZM12.0002 17.5002C12.4144 17.5002 12.7502 17.1644 12.7502 16.7502C12.7502 16.336 12.4144 16.0002 12.0002 16.0002C11.586 16.0002 11.2502 16.336 11.2502 16.7502C11.2502 17.1644 11.586 17.5002 12.0002 17.5002Z" fill="black"/>
</svg>
