<svg width="24" height="24" viewBox="0 0 24 24" fill="none" xmlns="http://www.w3.org/2000/svg">
<path fill-rule="evenodd" clip-rule="evenodd" d="M13.3939 2.26644C12.5064 1.87318 11.494 1.87318 10.6065 2.26644C9.9699 2.5485 9.52286 3.05881 9.15534 3.57411C8.79214 4.08333 8.39497 4.76424 7.92317 5.57309L2.46493 14.9301C1.98647 15.7502 1.58421 16.4398 1.31677 17.0129C1.04666 17.5918 0.819956 18.2388 0.891168 18.9374C0.990269 19.9096 1.4981 20.7937 2.28791 21.3692C2.85545 21.7827 3.52855 21.9129 4.16467 21.9712C4.7945 22.029 5.59277 22.029 6.5423 22.029L17.458 22.029C18.4075 22.029 19.2059 22.029 19.8357 21.9712C20.4719 21.9129 21.145 21.7827 21.7125 21.3692C22.5023 20.7937 23.0101 19.9096 23.1092 18.9374C23.1805 18.2388 22.9538 17.5918 22.6836 17.0129C22.4162 16.4398 22.014 15.7503 21.5355 14.9301L16.0773 5.5731C15.6055 4.76425 15.2083 4.08333 14.8451 3.57411C14.4776 3.0588 14.0305 2.5485 13.3939 2.26644ZM12.0002 7.50023C12.5525 7.50023 13.0002 7.94795 13.0002 8.50023L13.0002 13.5002C13.0002 14.0525 12.5525 14.5002 12.0002 14.5002C11.4479 14.5002 11.0002 14.0525 11.0002 13.5002L11.0002 8.50023C11.0002 7.94795 11.4479 7.50023 12.0002 7.50023ZM12.0002 18.5002C12.6906 18.5002 13.2502 17.9406 13.2502 17.2502C13.2502 16.5599 12.6906 16.0002 12.0002 16.0002C11.3098 16.0002 10.7502 16.5599 10.7502 17.2502C10.7502 17.9406 11.3098 18.5002 12.0002 18.5002Z" fill="black"/>
</svg>
