<svg width="24" height="24" viewBox="0 0 24 24" fill="none" xmlns="http://www.w3.org/2000/svg">
<path d="M12 8.00041C12.4142 8.00041 12.75 8.3362 12.75 8.75041V13.7504C12.75 14.1646 12.4142 14.5004 12 14.5004C11.5858 14.5004 11.25 14.1646 11.25 13.7504V8.75041C11.25 8.3362 11.5858 8.00041 12 8.00041Z" fill="black"/>
<path d="M12 18.0004C12.5523 18.0004 13 17.5527 13 17.0004C13 16.4481 12.5523 16.0004 12 16.0004C11.4477 16.0004 11 16.4481 11 17.0004C11 17.5527 11.4477 18.0004 12 18.0004Z" fill="black"/>
<path fill-rule="evenodd" clip-rule="evenodd" d="M10.7075 2.49519C11.5306 2.13051 12.4694 2.13051 13.2924 2.49519C13.8665 2.74954 14.2814 3.21477 14.6413 3.71945C14.9978 4.21923 15.39 4.89164 15.8662 5.7081L21.3141 15.0474C21.797 15.8751 22.1943 16.5562 22.4569 17.1188C22.7215 17.6861 22.9245 18.2824 22.8603 18.9122C22.7684 19.8137 22.2975 20.6337 21.565 21.1673C21.0534 21.5401 20.436 21.6653 19.8127 21.7225C19.1944 21.7792 18.406 21.7792 17.4476 21.7791L6.55235 21.7791C5.59396 21.7792 4.80553 21.7792 4.18728 21.7225C3.56391 21.6653 2.94658 21.5401 2.43489 21.1673C1.70248 20.6337 1.23154 19.8137 1.13964 18.9122C1.07544 18.2824 1.27839 17.6861 1.54309 17.1188C1.80561 16.5562 2.20288 15.8752 2.6858 15.0474L8.13373 5.70806C8.60997 4.89162 9.00219 4.21922 9.35863 3.71945C9.71859 3.21477 10.1335 2.74954 10.7075 2.49519ZM12.4822 4.32374C12.1751 4.18766 11.8248 4.18766 11.5177 4.32374C11.444 4.3564 11.2863 4.46102 10.9869 4.88079C10.6902 5.29681 10.3437 5.88874 9.83641 6.75845L4.43833 16.0123C3.92425 16.8936 3.57451 17.4951 3.35549 17.9645C3.13413 18.4389 3.12119 18.6296 3.12933 18.7094C3.16362 19.0458 3.33934 19.3517 3.61263 19.5508C3.6775 19.5981 3.8487 19.683 4.37 19.7308C4.88579 19.7781 5.58164 19.7791 6.60189 19.7791L17.398 19.7791C18.4183 19.7791 19.1141 19.7781 19.6299 19.7308C20.1512 19.683 20.3224 19.5981 20.3873 19.5508C20.6606 19.3517 20.8363 19.0458 20.8706 18.7094C20.8787 18.6296 20.8658 18.4389 20.6444 17.9645C20.4254 17.4951 20.0757 16.8936 19.5616 16.0123L14.1635 6.75845C13.6562 5.88874 13.3097 5.29681 13.013 4.88079C12.7136 4.46102 12.5559 4.3564 12.4822 4.32374Z" fill="black"/>
</svg>
