<svg width="24" height="24" viewBox="0 0 24 24" fill="none" xmlns="http://www.w3.org/2000/svg">
<path fill-rule="evenodd" clip-rule="evenodd" d="M13.1914 2.72358C12.4328 2.38747 11.5676 2.38747 10.809 2.72358C10.2975 2.95021 9.9148 3.37037 9.56242 3.86444C9.21271 4.35476 8.82539 5.01875 8.34441 5.84331L2.90757 15.1636C2.4199 15.9996 2.02751 16.6722 1.76989 17.2243C1.51061 17.78 1.33141 18.3256 1.3886 18.8867C1.4733 19.7176 1.90733 20.4732 2.58236 20.9651C3.0382 21.2972 3.59976 21.4173 4.21037 21.4733C4.81709 21.529 5.5958 21.529 6.56366 21.529L17.4368 21.529C18.4046 21.529 19.1834 21.529 19.7901 21.4733C20.4007 21.4173 20.9622 21.2972 21.4181 20.9651C22.0931 20.4732 22.5271 19.7176 22.6118 18.8867C22.669 18.3256 22.4898 17.78 22.2306 17.2243C21.9729 16.6723 21.5806 15.9997 21.093 15.1638L15.6561 5.84339C15.1751 5.01882 14.7877 4.35477 14.438 3.86444C14.0856 3.37037 13.7029 2.95021 13.1914 2.72358ZM12.0002 7.50023C12.4145 7.50023 12.7502 7.83602 12.7502 8.25023L12.7502 13.2502C12.7502 13.6644 12.4145 14.0002 12.0002 14.0002C11.586 14.0002 11.2502 13.6644 11.2502 13.2502L11.2502 8.25023C11.2502 7.83602 11.586 7.50023 12.0002 7.50023ZM12.0002 18.0002C12.5525 18.0002 13.0002 17.5525 13.0002 17.0002C13.0002 16.4479 12.5525 16.0002 12.0002 16.0002C11.448 16.0002 11.0002 16.4479 11.0002 17.0002C11.0002 17.5525 11.448 18.0002 12.0002 18.0002Z" fill="black"/>
</svg>
