<svg width="24" height="24" viewBox="0 0 24 24" fill="none" xmlns="http://www.w3.org/2000/svg">
<path fill-rule="evenodd" clip-rule="evenodd" d="M13.2924 2.49519C12.4694 2.13051 11.5306 2.13051 10.7075 2.49519C10.1335 2.74954 9.71859 3.21477 9.35863 3.71945C9.00219 4.21922 8.60997 4.89162 8.13373 5.70806L2.68582 15.0473C2.2029 15.8752 1.80561 16.5562 1.54309 17.1188C1.27839 17.6861 1.07544 18.2824 1.13964 18.9122C1.23154 19.8137 1.70248 20.6337 2.43489 21.1673C2.94658 21.5401 3.56391 21.6653 4.18728 21.7225C4.80553 21.7792 5.59396 21.7792 6.55235 21.7791L17.4476 21.7791C18.406 21.7792 19.1944 21.7792 19.8127 21.7225C20.436 21.6653 21.0534 21.5401 21.565 21.1673C22.2975 20.6337 22.7684 19.8137 22.8603 18.9122C22.9245 18.2824 22.7215 17.6861 22.4569 17.1188C22.1943 16.5562 21.7971 15.8752 21.3142 15.0475L15.8662 5.7081C15.39 4.89164 14.9978 4.21923 14.6413 3.71945C14.2814 3.21477 13.8665 2.74954 13.2924 2.49519ZM12 7.50041C12.5523 7.50041 13 7.94813 13 8.50041V13.5004C13 14.0527 12.5523 14.5004 12 14.5004C11.4477 14.5004 11 14.0527 11 13.5004V8.50041C11 7.94813 11.4477 7.50041 12 7.50041ZM12 18.5004C12.6903 18.5004 13.25 17.9408 13.25 17.2504C13.25 16.5601 12.6903 16.0004 12 16.0004C11.3096 16.0004 10.75 16.5601 10.75 17.2504C10.75 17.9408 11.3096 18.5004 12 18.5004Z" fill="black"/>
</svg>
