<svg width="24" height="24" viewBox="0 0 24 24" fill="none" xmlns="http://www.w3.org/2000/svg">
<path d="M12.0002 7.00023C12.4145 7.00023 12.7502 7.33602 12.7502 7.75023L12.7502 12.7502C12.7502 13.1644 12.4145 13.5002 12.0002 13.5002C11.586 13.5002 11.2502 13.1644 11.2502 12.7502L11.2502 7.75023C11.2502 7.33602 11.586 7.00023 12.0002 7.00023Z" fill="black"/>
<path d="M12.0002 17.5002C12.5525 17.5002 13.0002 17.0525 13.0002 16.5002C13.0002 15.9479 12.5525 15.5002 12.0002 15.5002C11.448 15.5002 11.0002 15.9479 11.0002 16.5002C11.0002 17.0525 11.448 17.5002 12.0002 17.5002Z" fill="black"/>
<path fill-rule="evenodd" clip-rule="evenodd" d="M10.809 2.72358C11.5676 2.38747 12.4328 2.38747 13.1914 2.72358C13.7029 2.95021 14.0856 3.37037 14.438 3.86444C14.7877 4.35477 15.1751 5.01875 15.656 5.84332L21.0928 15.1636C21.5805 15.9995 21.9729 16.6723 22.2306 17.2243C22.4898 17.78 22.669 18.3256 22.6118 18.8867C22.5271 19.7176 22.0931 20.4732 21.4181 20.9651C20.9622 21.2972 20.4007 21.4173 19.7901 21.4733C19.1834 21.529 18.4047 21.529 17.4368 21.529L6.56366 21.529C5.5958 21.529 4.81709 21.529 4.21037 21.4733C3.59976 21.4173 3.0382 21.2972 2.58236 20.9651C1.90733 20.4732 1.4733 19.7176 1.3886 18.8867C1.33141 18.3256 1.51061 17.78 1.76989 17.2243C2.02751 16.6722 2.41987 15.9996 2.90755 15.1636L8.34439 5.84333C8.82538 5.01877 9.21271 4.35476 9.56242 3.86444C9.9148 3.37037 10.2975 2.95021 10.809 2.72358ZM12.5838 4.09499C12.2122 3.93033 11.7883 3.93033 11.4167 4.09499C11.2804 4.15536 11.0906 4.30506 10.7836 4.73544C10.4787 5.16301 10.1256 5.76684 9.62072 6.6323L4.22263 15.8862C3.71104 16.7632 3.35421 17.3764 3.12919 17.8586C2.90242 18.3446 2.86572 18.586 2.88087 18.7346C2.92236 19.1416 3.13499 19.5118 3.46567 19.7527C3.58638 19.8407 3.81336 19.9306 4.34741 19.9796C4.87734 20.0282 5.58682 20.029 6.60214 20.029L17.3983 20.029C18.4136 20.029 19.1231 20.0282 19.653 19.9796C20.1871 19.9306 20.4141 19.8407 20.5348 19.7527C20.8655 19.5118 21.0781 19.1416 21.1196 18.7346C21.1347 18.586 21.098 18.3446 20.8713 17.8586C20.6462 17.3764 20.2894 16.7632 19.7778 15.8862L14.3797 6.63231C13.8749 5.76685 13.5218 5.16301 13.2168 4.73544C12.9098 4.30506 12.72 4.15536 12.5838 4.09499Z" fill="black"/>
</svg>
