<svg width="24" height="24" viewBox="0 0 24 24" fill="none" xmlns="http://www.w3.org/2000/svg">
<path d="M7.75 4C7.75 4.55229 7.30229 5 6.75 5C6.19772 5 5.75 4.55229 5.75 4C5.75 3.44772 6.19772 3 6.75 3C7.30229 3 7.75 3.44772 7.75 4Z" fill="black"/>
<path d="M9.75 5C10.3023 5 10.75 4.55229 10.75 4C10.75 3.44772 10.3023 3 9.75 3C9.19772 3 8.75 3.44772 8.75 4C8.75 4.55229 9.19772 5 9.75 5Z" fill="black"/>
<path d="M7.87325 14.7495C7.83532 14.7387 7.7973 14.7282 7.75921 14.718C7.90433 12.5023 9.74753 10.75 12 10.75C14.0831 10.75 15.8162 12.2487 16.1798 14.2266L15.969 14.1563C14.7161 13.7387 13.3446 13.8745 12.198 14.5297C11.1122 15.1502 9.82203 15.3063 8.61962 14.9627L7.87325 14.7495Z" fill="black"/>
<path fill-rule="evenodd" clip-rule="evenodd" d="M6.16957 0.25C5.63543 0.24999 5.18956 0.249982 4.82533 0.279741C4.44545 0.310779 4.08879 0.37789 3.75153 0.549734C3.23408 0.813385 2.81339 1.23408 2.54973 1.75153C2.37789 2.08879 2.31078 2.44545 2.27974 2.82533C2.24998 3.18956 2.24999 3.6354 2.25 4.16954V19.8304C2.24999 20.3646 2.24998 20.8105 2.27974 21.1747C2.31078 21.5546 2.37789 21.9112 2.54973 22.2485C2.81339 22.7659 3.23408 23.1866 3.75153 23.4503C4.08879 23.6221 4.44545 23.6892 4.82533 23.7203C5.18956 23.75 5.6354 23.75 6.16955 23.75H17.8305C18.3646 23.75 18.8104 23.75 19.1747 23.7203C19.5546 23.6892 19.9112 23.6221 20.2485 23.4503C20.7659 23.1866 21.1866 22.7659 21.4503 22.2485C21.6221 21.9112 21.6892 21.5546 21.7203 21.1747C21.75 20.8104 21.75 20.3646 21.75 19.8305V4.16955C21.75 3.6354 21.75 3.18956 21.7203 2.82533C21.6892 2.44545 21.6221 2.08879 21.4503 1.75153C21.1866 1.23408 20.7659 0.813385 20.2485 0.549734C19.9112 0.37789 19.5546 0.310779 19.1747 0.279741C18.8104 0.249982 18.3646 0.24999 17.8305 0.25H6.16957ZM20.25 6.25V4.2C20.25 3.62757 20.2494 3.24336 20.2252 2.94748C20.2018 2.66036 20.1599 2.52307 20.1138 2.43251C19.9939 2.19731 19.8027 2.00609 19.5675 1.88624C19.4769 1.8401 19.3396 1.79822 19.0525 1.77476C18.7566 1.75058 18.3724 1.75 17.8 1.75H6.2C5.62757 1.75 5.24336 1.75058 4.94748 1.77476C4.66036 1.79822 4.52307 1.8401 4.43251 1.88624C4.19731 2.00609 4.00609 2.19731 3.88624 2.43251C3.8401 2.52307 3.79822 2.66036 3.77476 2.94748C3.75058 3.24336 3.75 3.62757 3.75 4.2V6.25H20.25ZM12 9.25C8.82436 9.25 6.25 11.8244 6.25 15C6.25 18.1756 8.82436 20.75 12 20.75C15.1756 20.75 17.75 18.1756 17.75 15C17.75 11.8244 15.1756 9.25 12 9.25Z" fill="black"/>
</svg>
