<svg width="24" height="24" viewBox="0 0 24 24" fill="none" xmlns="http://www.w3.org/2000/svg">
<path d="M7.25 3.75C7.25 4.02614 7.02614 4.25 6.75 4.25C6.47386 4.25 6.25 4.02614 6.25 3.75C6.25 3.47386 6.47386 3.25 6.75 3.25C7.02614 3.25 7.25 3.47386 7.25 3.75Z" fill="black"/>
<path d="M9.75 4.25C10.0261 4.25 10.25 4.02614 10.25 3.75C10.25 3.47386 10.0261 3.25 9.75 3.25C9.47386 3.25 9.25 3.47386 9.25 3.75C9.25 4.02614 9.47386 4.25 9.75 4.25Z" fill="black"/>
<path d="M7.87325 14.7495C7.67302 14.6923 7.47036 14.6448 7.26601 14.6072C7.46571 12.1676 9.50891 10.25 12 10.25C14.4114 10.25 16.4032 12.0469 16.7092 14.3748C16.5378 14.3365 16.3682 14.2894 16.2011 14.2337L15.969 14.1563C14.7161 13.7387 13.3446 13.8745 12.198 14.5297C11.1122 15.1502 9.82203 15.3063 8.61961 14.9627L7.87325 14.7495Z" fill="black"/>
<path fill-rule="evenodd" clip-rule="evenodd" d="M6.18869 0.75C5.63827 0.75 5.20971 0.75 4.86605 0.778079C4.51708 0.80659 4.23355 0.865292 3.97852 0.995235C3.55516 1.21095 3.21095 1.55516 2.99524 1.97852C2.86529 2.23355 2.80659 2.51708 2.77808 2.86605C2.75 3.20971 2.75 3.63814 2.75 4.18855V19.8113C2.75 20.3617 2.75 20.7903 2.77808 21.134C2.80659 21.4829 2.86529 21.7664 2.99524 22.0215C3.21095 22.4448 3.55516 22.789 3.97852 23.0048C4.23355 23.1347 4.51708 23.1934 4.86605 23.2219C5.20974 23.25 5.6382 23.25 6.18868 23.25H17.8113C18.3618 23.25 18.7903 23.25 19.134 23.2219C19.4829 23.1934 19.7665 23.1347 20.0215 23.0048C20.4448 22.789 20.789 22.4448 21.0048 22.0215C21.1347 21.7664 21.1934 21.4829 21.2219 21.134C21.25 20.7903 21.25 20.3618 21.25 19.8113V4.18868C21.25 3.6382 21.25 3.20974 21.2219 2.86605C21.1934 2.51708 21.1347 2.23355 21.0048 1.97852C20.789 1.55516 20.4448 1.21095 20.0215 0.995235C19.7665 0.865292 19.4829 0.80659 19.134 0.778079C18.7903 0.75 18.3619 0.75 17.8115 0.75H6.18869ZM20.75 6.75V4.2C20.75 3.63582 20.7498 3.22772 20.7236 2.90676C20.6976 2.58872 20.6473 2.37831 20.5593 2.20552C20.3915 1.87623 20.1238 1.60852 19.7945 1.44074C19.6217 1.3527 19.4113 1.3024 19.0932 1.27642C18.7723 1.25019 18.3642 1.25 17.8 1.25H6.2C5.63582 1.25 5.22772 1.25019 4.90676 1.27642C4.58872 1.3024 4.37831 1.3527 4.20552 1.44074C3.87623 1.60852 3.60852 1.87623 3.44074 2.20552C3.3527 2.37831 3.3024 2.58872 3.27642 2.90676C3.25019 3.22772 3.25 3.63582 3.25 4.2V6.75H20.75ZM12 9.75C9.1005 9.75 6.75 12.1005 6.75 15C6.75 17.8995 9.1005 20.25 12 20.25C14.8995 20.25 17.25 17.8995 17.25 15C17.25 12.1005 14.8995 9.75 12 9.75Z" fill="black"/>
</svg>
