<svg width="24" height="24" viewBox="0 0 24 24" fill="none" xmlns="http://www.w3.org/2000/svg">
<path d="M6.75 4.25C7.02614 4.25 7.25 4.02614 7.25 3.75C7.25 3.47386 7.02614 3.25 6.75 3.25C6.47386 3.25 6.25 3.47386 6.25 3.75C6.25 4.02614 6.47386 4.25 6.75 4.25Z" fill="black"/>
<path d="M10.25 3.75C10.25 4.02614 10.0261 4.25 9.75 4.25C9.47386 4.25 9.25 4.02614 9.25 3.75C9.25 3.47386 9.47386 3.25 9.75 3.25C10.0261 3.25 10.25 3.47386 10.25 3.75Z" fill="black"/>
<path fill-rule="evenodd" clip-rule="evenodd" d="M6.75 15C6.75 12.1005 9.1005 9.75 12 9.75C14.8995 9.75 17.25 12.1005 17.25 15C17.25 17.8995 14.8995 20.25 12 20.25C9.1005 20.25 6.75 17.8995 6.75 15ZM7.25291 14.8323C7.25097 14.8879 7.25 14.9439 7.25 15C7.25 17.6234 9.37665 19.75 12 19.75C14.6234 19.75 16.75 17.6234 16.75 15C16.75 14.8913 16.7463 14.7835 16.7392 14.6766L15.8899 14.3935C14.7045 13.9984 13.4069 14.1268 12.322 14.7468C11.1778 15.4006 9.81811 15.5652 8.55093 15.2031L7.25291 14.8323ZM7.29759 14.325L8.68829 14.7224C9.82595 15.0474 11.0466 14.8997 12.0739 14.3127C13.2823 13.6222 14.7277 13.479 16.048 13.9192L16.6698 14.1264C16.2597 11.9203 14.3249 10.25 12 10.25C9.60579 10.25 7.62531 12.0214 7.29759 14.325Z" fill="black"/>
<path fill-rule="evenodd" clip-rule="evenodd" d="M6.18869 0.75C5.63827 0.75 5.20971 0.75 4.86605 0.778079C4.51708 0.80659 4.23355 0.865292 3.97852 0.995235C3.55516 1.21095 3.21095 1.55516 2.99524 1.97852C2.86529 2.23355 2.80659 2.51708 2.77808 2.86605C2.75 3.20971 2.75 3.63814 2.75 4.18855V19.8113C2.75 20.3617 2.75 20.7903 2.77808 21.134C2.80659 21.4829 2.86529 21.7665 2.99524 22.0215C3.21095 22.4448 3.55516 22.789 3.97852 23.0048C4.23355 23.1347 4.51708 23.1934 4.86605 23.2219C5.20974 23.25 5.6382 23.25 6.18868 23.25H17.8113C18.3618 23.25 18.7903 23.25 19.134 23.2219C19.4829 23.1934 19.7665 23.1347 20.0215 23.0048C20.4448 22.789 20.789 22.4448 21.0048 22.0215C21.1347 21.7665 21.1934 21.4829 21.2219 21.134C21.25 20.7903 21.25 20.3618 21.25 19.8113V4.18868C21.25 3.6382 21.25 3.20974 21.2219 2.86605C21.1934 2.51708 21.1347 2.23355 21.0048 1.97852C20.789 1.55516 20.4448 1.21095 20.0215 0.995235C19.7665 0.865292 19.4829 0.80659 19.134 0.778079C18.7903 0.75 18.3619 0.75 17.8115 0.75H6.18869ZM20.75 6.75V4.2C20.75 3.63582 20.7498 3.22772 20.7236 2.90676C20.6976 2.58872 20.6473 2.37831 20.5593 2.20552C20.3915 1.87623 20.1238 1.60852 19.7945 1.44074C19.6217 1.3527 19.4113 1.3024 19.0932 1.27642C18.7723 1.25019 18.3642 1.25 17.8 1.25H6.2C5.63582 1.25 5.22772 1.25019 4.90676 1.27642C4.58872 1.3024 4.37831 1.3527 4.20552 1.44074C3.87623 1.60852 3.60852 1.87623 3.44074 2.20552C3.3527 2.37831 3.3024 2.58872 3.27642 2.90676C3.25019 3.22772 3.25 3.63582 3.25 4.2V6.75H20.75ZM20.75 7.25H3.25V19.8C3.25 20.3642 3.25019 20.7723 3.27642 21.0932C3.3024 21.4113 3.3527 21.6217 3.44074 21.7945C3.60852 22.1238 3.87623 22.3915 4.20552 22.5593C4.37831 22.6473 4.58872 22.6976 4.90676 22.7236C5.22772 22.7498 5.63582 22.75 6.2 22.75H17.8C18.3642 22.75 18.7723 22.7498 19.0932 22.7236C19.4113 22.6976 19.6217 22.6473 19.7945 22.5593C20.1238 22.3915 20.3915 22.1238 20.5593 21.7945C20.6473 21.6217 20.6976 21.4113 20.7236 21.0932C20.7498 20.7723 20.75 20.3642 20.75 19.8V7.25Z" fill="black"/>
</svg>
