<svg width="24" height="24" viewBox="0 0 24 24" fill="none" xmlns="http://www.w3.org/2000/svg">
<path d="M7.75 4C7.75 4.55229 7.30229 5 6.75 5C6.19772 5 5.75 4.55229 5.75 4C5.75 3.44772 6.19772 3 6.75 3C7.30229 3 7.75 3.44772 7.75 4Z" fill="black"/>
<path d="M9.75 5C10.3023 5 10.75 4.55229 10.75 4C10.75 3.44772 10.3023 3 9.75 3C9.19772 3 8.75 3.44772 8.75 4C8.75 4.55229 9.19772 5 9.75 5Z" fill="black"/>
<path d="M8.61962 14.9628L8.00556 14.7873C8.11612 12.677 9.86222 11 12 11C13.9125 11 15.5115 12.3422 15.9064 14.136C14.6706 13.7434 13.3256 13.8854 12.198 14.5297C11.1122 15.1502 9.82203 15.3063 8.61962 14.9628Z" fill="black"/>
<path fill-rule="evenodd" clip-rule="evenodd" d="M6.16146 7.43315e-07C5.63434 -1.54787e-05 5.17953 -2.94726e-05 4.80498 0.0305728C4.40963 0.0628738 4.01641 0.13419 3.63803 0.326984C3.07355 0.614604 2.6146 1.07355 2.32698 1.63803C2.13419 2.01641 2.06287 2.40963 2.03057 2.80498C1.99997 3.17953 1.99998 3.63426 2 4.16138V19.8385C1.99999 20.3656 1.99997 20.8205 2.03057 21.195C2.06288 21.5904 2.13419 21.9836 2.32699 22.362C2.61461 22.9265 3.07355 23.3854 3.63803 23.673C4.01641 23.8658 4.40963 23.9371 4.80498 23.9694C5.17954 24 5.6343 24 6.16144 24H17.8386C18.3657 24 18.8205 24 19.195 23.9694C19.5904 23.9371 19.9836 23.8658 20.362 23.673C20.9265 23.3854 21.3854 22.9265 21.673 22.362C21.8658 21.9836 21.9371 21.5904 21.9694 21.195C22 20.8205 22 20.3657 22 19.8386V4.16144C22 3.6343 22 3.17954 21.9694 2.80498C21.9371 2.40963 21.8658 2.01641 21.673 1.63803C21.3854 1.07355 20.9265 0.614604 20.362 0.326984C19.9836 0.13419 19.5904 0.0628738 19.195 0.0305728C18.8205 -2.94726e-05 18.3657 -1.54788e-05 17.8386 7.43315e-07H6.16146ZM20 6V4.2C20 3.62345 19.9992 3.25118 19.9761 2.96784C19.9539 2.69618 19.9162 2.59546 19.891 2.54601C19.7951 2.35785 19.6422 2.20487 19.454 2.109C19.4045 2.0838 19.3038 2.04613 19.0322 2.02393C18.7488 2.00078 18.3766 2 17.8 2H6.2C5.62345 2 5.25118 2.00078 4.96784 2.02393C4.69618 2.04613 4.59546 2.0838 4.54601 2.109C4.35785 2.20487 4.20487 2.35785 4.109 2.54601C4.0838 2.59546 4.04613 2.69618 4.02393 2.96784C4.00078 3.25118 4 3.62345 4 4.2V6H20ZM12 9C8.6863 9 6 11.6863 6 15C6 18.3137 8.6863 21 12 21C15.3137 21 18 18.3137 18 15C18 11.6863 15.3137 9 12 9Z" fill="black"/>
</svg>
