<svg width="24" height="25" viewBox="0 0 24 25" fill="none" xmlns="http://www.w3.org/2000/svg">
<path d="M7.75 4.125C7.75 4.67729 7.30229 5.125 6.75 5.125C6.19772 5.125 5.75 4.67729 5.75 4.125C5.75 3.57272 6.19772 3.125 6.75 3.125C7.30229 3.125 7.75 3.57272 7.75 4.125Z" fill="black"/>
<path d="M9.75 5.125C10.3023 5.125 10.75 4.67729 10.75 4.125C10.75 3.57272 10.3023 3.125 9.75 3.125C9.19772 3.125 8.75 3.57272 8.75 4.125C8.75 4.67729 9.19772 5.125 9.75 5.125Z" fill="black"/>
<path d="M8.61962 15.0877L8.25265 14.9829C8.32735 12.9777 9.97652 11.375 12 11.375C13.7456 11.375 15.2126 12.5677 15.6306 14.1826C14.4728 13.8921 13.2422 14.058 12.198 14.6547C11.1122 15.2752 9.82203 15.4313 8.61962 15.0877Z" fill="black"/>
<path fill-rule="evenodd" clip-rule="evenodd" d="M6.15772 1.0038e-06C5.63387 -1.89064e-05 5.17453 -3.63588e-05 4.7948 0.0309891C4.39172 0.0639216 3.98022 0.13734 3.58128 0.340609C2.99328 0.640213 2.51521 1.11828 2.21561 1.70628C2.01234 2.10522 1.93892 2.51672 1.90599 2.9198C1.87496 3.29953 1.87498 3.75877 1.875 4.28262V19.9673C1.87498 20.4911 1.87497 20.9505 1.90599 21.3302C1.93892 21.7333 2.01234 22.1448 2.21561 22.5437C2.51522 23.1317 2.99328 23.6098 3.58129 23.9094C3.98022 24.1127 4.39172 24.1861 4.7948 24.219C5.17455 24.25 5.63381 24.25 6.15769 24.25H17.8423C18.3662 24.25 18.8255 24.25 19.2052 24.219C19.6083 24.1861 20.0198 24.1127 20.4187 23.9094C21.0067 23.6098 21.4848 23.1317 21.7844 22.5437C21.9877 22.1448 22.0611 21.7333 22.094 21.3302C22.1251 20.9505 22.125 20.4912 22.125 19.9673L22.125 4.28269C22.125 3.75881 22.125 3.29955 22.094 2.9198C22.0611 2.51672 21.9877 2.10522 21.7844 1.70628C21.4848 1.11828 21.0067 0.640213 20.4187 0.340609C20.0198 0.13734 19.6083 0.0639216 19.2052 0.0309891C18.8255 -3.63607e-05 18.3662 -1.89064e-05 17.8424 1.0038e-06H6.15772ZM19.875 6V4.325C19.875 3.74639 19.8741 3.38009 19.8515 3.10302C19.8299 2.83909 19.7944 2.75665 19.7796 2.72776C19.6957 2.56312 19.5619 2.42926 19.3972 2.34537C19.3684 2.33066 19.2859 2.29508 19.022 2.27352C18.7449 2.25088 18.3786 2.25 17.8 2.25H6.2C5.62139 2.25 5.25509 2.25088 4.97802 2.27352C4.71409 2.29508 4.63165 2.33066 4.60276 2.34537C4.43812 2.42926 4.30426 2.56312 4.22037 2.72776C4.20566 2.75665 4.17008 2.83909 4.14852 3.10302C4.12588 3.38009 4.125 3.74639 4.125 4.325V6H19.875ZM12 8.875C8.54823 8.875 5.75001 11.6732 5.75001 15.125C5.75001 18.5768 8.54823 21.375 12 21.375C15.4518 21.375 18.25 18.5768 18.25 15.125C18.25 11.6732 15.4518 8.875 12 8.875Z" fill="black"/>
</svg>
