<svg width="24" height="26" viewBox="0 0 24 26" fill="none" xmlns="http://www.w3.org/2000/svg">
<path d="M6.75 6C7.30229 6 7.75 5.55229 7.75 5C7.75 4.44772 7.30229 4 6.75 4C6.19772 4 5.75 4.44772 5.75 5C5.75 5.55229 6.19772 6 6.75 6Z" fill="black"/>
<path d="M10.75 5C10.75 5.55229 10.3023 6 9.75 6C9.19772 6 8.75 5.55229 8.75 5C8.75 4.44772 9.19772 4 9.75 4C10.3023 4 10.75 4.44772 10.75 5Z" fill="black"/>
<path fill-rule="evenodd" clip-rule="evenodd" d="M5.75 16C5.75 12.5482 8.54822 9.75 12 9.75C15.4518 9.75 18.25 12.5482 18.25 16C18.25 19.4518 15.4518 22.25 12 22.25C8.54822 22.25 5.75 19.4518 5.75 16ZM8.50783 14.6308L8.96302 14.7608C9.84165 15.0119 10.7844 14.8978 11.5778 14.4444C12.6103 13.8544 13.7864 13.5962 14.9505 13.6853C14.264 12.8113 13.1975 12.25 12 12.25C10.4121 12.25 9.05476 13.2369 8.50783 14.6308ZM15.7295 16.3941L15.5737 16.3422C14.6582 16.037 13.656 16.1362 12.8181 16.615C11.4922 17.3727 9.92602 17.5849 8.45 17.2115C8.95375 18.688 10.3529 19.75 12 19.75C13.938 19.75 15.5326 18.2799 15.7295 16.3941Z" fill="black"/>
<path fill-rule="evenodd" clip-rule="evenodd" d="M6.15772 0.875001C5.63387 0.874981 5.17453 0.874964 4.7948 0.905989C4.39172 0.938922 3.98022 1.01234 3.58128 1.21561C2.99328 1.51521 2.51521 1.99328 2.21561 2.58128C2.01234 2.98022 1.93892 3.39172 1.90599 3.7948C1.87496 4.17453 1.87498 4.63377 1.875 5.15762V20.8423C1.87498 21.3661 1.87496 21.8255 1.90599 22.2052C1.93892 22.6083 2.01234 23.0198 2.21561 23.4187C2.51521 24.0067 2.99328 24.4848 3.58128 24.7844C3.98022 24.9877 4.39172 25.0611 4.7948 25.094C5.17455 25.125 5.63381 25.125 6.15769 25.125H17.8423C18.3662 25.125 18.8255 25.125 19.2052 25.094C19.6083 25.0611 20.0198 24.9877 20.4187 24.7844C21.0067 24.4848 21.4848 24.0067 21.7844 23.4187C21.9877 23.0198 22.0611 22.6083 22.094 22.2052C22.125 21.8255 22.125 21.3662 22.125 20.8423V5.15769C22.125 4.63381 22.125 4.17455 22.094 3.7948C22.0611 3.39172 21.9877 2.98022 21.7844 2.58128C21.4848 1.99328 21.0067 1.51521 20.4187 1.21561C20.0198 1.01234 19.6083 0.938922 19.2052 0.905989C18.8255 0.874964 18.3662 0.874981 17.8424 0.875001H6.15772ZM19.875 6.875V5.2C19.875 4.62139 19.8741 4.25509 19.8515 3.97802C19.8299 3.71409 19.7944 3.63165 19.7796 3.60276C19.6957 3.43812 19.5619 3.30426 19.3972 3.22037C19.3684 3.20566 19.2859 3.17008 19.022 3.14852C18.7449 3.12588 18.3786 3.125 17.8 3.125H6.2C5.62139 3.125 5.25509 3.12588 4.97802 3.14852C4.71409 3.17008 4.63165 3.20566 4.60276 3.22037C4.43812 3.30426 4.30426 3.43812 4.22037 3.60276C4.20566 3.63165 4.17008 3.71409 4.14852 3.97802C4.12588 4.25509 4.125 4.62139 4.125 5.2V6.875H19.875ZM19.875 9.125H4.12501V20.8C4.12501 21.3786 4.12588 21.7449 4.14852 22.022C4.17008 22.2859 4.20566 22.3684 4.22037 22.3972C4.30426 22.5619 4.43812 22.6957 4.60276 22.7796C4.63165 22.7944 4.71409 22.8299 4.97802 22.8515C5.25509 22.8741 5.62139 22.875 6.2 22.875H17.8C18.3786 22.875 18.7449 22.8741 19.022 22.8515C19.2859 22.8299 19.3684 22.7944 19.3972 22.7796C19.5619 22.6957 19.6957 22.5619 19.7796 22.3972C19.7944 22.3684 19.8299 22.2859 19.8515 22.022C19.8741 21.7449 19.875 21.3786 19.875 20.8V9.125Z" fill="black"/>
</svg>
