<svg width="24" height="24" viewBox="0 0 24 24" fill="none" xmlns="http://www.w3.org/2000/svg">
<path d="M6.75 5C7.30229 5 7.75 4.55229 7.75 4C7.75 3.44772 7.30229 3 6.75 3C6.19772 3 5.75 3.44772 5.75 4C5.75 4.55229 6.19772 5 6.75 5Z" fill="black"/>
<path d="M10.75 4C10.75 4.55228 10.3023 5 9.75 5C9.19772 5 8.75 4.55228 8.75 4C8.75 3.44772 9.19772 3 9.75 3C10.3023 3 10.75 3.44772 10.75 4Z" fill="black"/>
<path fill-rule="evenodd" clip-rule="evenodd" d="M6.25 15C6.25 11.8244 8.82436 9.25 12 9.25C15.1756 9.25 17.75 11.8244 17.75 15C17.75 18.1756 15.1756 20.75 12 20.75C8.82436 20.75 6.25 18.1756 6.25 15ZM7.87563 13.9702L8.82565 14.2416C9.8338 14.5296 10.9155 14.3987 11.8259 13.8786C13.0714 13.1668 14.5453 12.9827 15.9214 13.3585C15.2793 11.8263 13.7653 10.75 12 10.75C10.0079 10.75 8.33596 12.1206 7.87563 13.9702ZM16.2498 15.0405L15.7318 14.8678C14.6814 14.5177 13.5315 14.6315 12.5701 15.1809C11.3089 15.9016 9.81026 16.0829 8.41357 15.6839L7.77942 15.5027C8.0281 17.613 9.82288 19.25 12 19.25C14.3337 19.25 16.2281 17.3691 16.2498 15.0405Z" fill="black"/>
<path fill-rule="evenodd" clip-rule="evenodd" d="M6.16957 0.25C5.63543 0.249991 5.18956 0.249982 4.82533 0.279741C4.44545 0.310779 4.08879 0.37789 3.75153 0.549734C3.23408 0.813385 2.81339 1.23408 2.54973 1.75153C2.37789 2.08879 2.31078 2.44545 2.27974 2.82533C2.24998 3.18956 2.24999 3.63539 2.25 4.16953V19.8304C2.24999 20.3646 2.24998 20.8104 2.27974 21.1747C2.31078 21.5546 2.37789 21.9112 2.54973 22.2485C2.81339 22.7659 3.23408 23.1866 3.75153 23.4503C4.08879 23.6221 4.44545 23.6892 4.82533 23.7203C5.18956 23.75 5.6354 23.75 6.16955 23.75H17.8305C18.3646 23.75 18.8104 23.75 19.1747 23.7203C19.5546 23.6892 19.9112 23.6221 20.2485 23.4503C20.7659 23.1866 21.1866 22.7659 21.4503 22.2485C21.6221 21.9112 21.6892 21.5546 21.7203 21.1747C21.75 20.8104 21.75 20.3646 21.75 19.8305L21.75 4.16955C21.75 3.6354 21.75 3.18956 21.7203 2.82533C21.6892 2.44545 21.6221 2.08879 21.4503 1.75153C21.1866 1.23408 20.7659 0.813385 20.2485 0.549734C19.9112 0.37789 19.5546 0.310779 19.1747 0.279741C18.8104 0.249982 18.3646 0.249991 17.8305 0.25H6.16957ZM20.25 6.25V4.2C20.25 3.62757 20.2494 3.24336 20.2252 2.94748C20.2018 2.66036 20.1599 2.52307 20.1138 2.43251C19.9939 2.19731 19.8027 2.00609 19.5675 1.88624C19.4769 1.8401 19.3396 1.79822 19.0525 1.77476C18.7566 1.75058 18.3724 1.75 17.8 1.75H6.2C5.62757 1.75 5.24336 1.75058 4.94748 1.77476C4.66036 1.79822 4.52307 1.8401 4.43251 1.88624C4.19731 2.00609 4.00609 2.19731 3.88624 2.43251C3.8401 2.52307 3.79822 2.66036 3.77476 2.94748C3.75058 3.24336 3.75 3.62757 3.75 4.2V6.25H20.25ZM20.25 7.75H3.75V19.8C3.75 20.3724 3.75059 20.7566 3.77476 21.0525C3.79822 21.3396 3.8401 21.4769 3.88624 21.5675C4.00609 21.8027 4.19731 21.9939 4.43251 22.1138C4.52307 22.1599 4.66036 22.2018 4.94748 22.2252C5.24336 22.2494 5.62757 22.25 6.2 22.25H17.8C18.3724 22.25 18.7566 22.2494 19.0525 22.2252C19.3396 22.2018 19.4769 22.1599 19.5675 22.1138C19.8027 21.9939 19.9939 21.8027 20.1138 21.5675C20.1599 21.4769 20.2018 21.3396 20.2252 21.0525C20.2494 20.7566 20.25 20.3724 20.25 19.8V7.75Z" fill="black"/>
</svg>
