<svg width="24" height="24" viewBox="0 0 24 24" fill="none" xmlns="http://www.w3.org/2000/svg">
<path fill-rule="evenodd" clip-rule="evenodd" d="M14.5 1.5C15.0523 1.5 15.5 1.94772 15.5 2.5V4.75L15.667 4.75391C17.3843 4.84082 18.75 6.26108 18.75 8V16C18.75 17.7389 17.3843 19.1592 15.667 19.2461L15.5 19.25V21.5C15.5 22.0523 15.0523 22.5 14.5 22.5H9.5C8.94773 22.5 8.5 22.0523 8.5 21.5V19.25L8.33301 19.2461C6.61573 19.1591 5.25 17.7389 5.25 16L5.25098 8C5.25111 6.26117 6.61675 4.84083 8.33398 4.75391L8.50098 4.75V2.5C8.50099 1.94773 8.9487 1.5 9.50098 1.5H14.5ZM8.50098 7.25C8.08679 7.25 7.75101 7.58581 7.75098 8L7.75 16C7.75 16.4142 8.08585 16.7499 8.5 16.75H15.5C15.9142 16.75 16.25 16.4142 16.25 16V8C16.25 7.58578 15.9142 7.25 15.5 7.25H8.50098Z" fill="black"/>
</svg>
