<svg width="24" height="24" viewBox="0 0 24 24" fill="none" xmlns="http://www.w3.org/2000/svg">
<path fill-rule="evenodd" clip-rule="evenodd" d="M14.5 1C15.0523 1 15.5 1.44772 15.5 2V5.25L15.7812 5.26465C17.1679 5.40553 18.25 6.57618 18.25 8V16C18.25 17.4238 17.1679 18.5945 15.7812 18.7354L15.5 18.75V22C15.5 22.5523 15.0523 23 14.5 23H9.5C8.94773 23 8.5 22.5523 8.5 22V18.75L8.21875 18.7354C6.83215 18.5944 5.75 17.4238 5.75 16L5.75098 8C5.75109 6.57627 6.83316 5.40555 8.21973 5.26465L8.50098 5.25V2C8.50099 1.44773 8.9487 1 9.50098 1H14.5ZM8.50098 6.75C7.81066 6.75 7.25103 7.30968 7.25098 8L7.25 16C7.25 16.6903 7.80971 17.2499 8.5 17.25H15.5C16.1904 17.25 16.75 16.6904 16.75 16V8C16.75 7.30964 16.1904 6.75 15.5 6.75H8.50098Z" fill="black"/>
</svg>
