<svg width="24" height="24" viewBox="0 0 24 24" fill="none" xmlns="http://www.w3.org/2000/svg">
<path fill-rule="evenodd" clip-rule="evenodd" d="M14.5 0C15.6046 5.36442e-07 16.5 0.89543 16.5 2V5.17383C17.6647 5.58594 18.5 6.69415 18.5 8V16C18.5 17.3057 17.6645 18.413 16.5 18.8252V22C16.5 23.1046 15.6046 24 14.5 24H9.5C8.39549 24 7.5 23.1046 7.5 22V18.8252C6.3355 18.413 5.5 17.3057 5.5 16L5.50098 8C5.50108 6.69423 6.33637 5.58597 7.50098 5.17383V2C7.50101 0.895487 8.39639 0 9.50098 0H14.5ZM9.5 22H14.5V19H9.5V22ZM8.50098 7C7.94872 7 7.50102 7.44775 7.50098 8L7.5 16C7.5 16.5522 7.94778 16.9999 8.5 17H15.5C16.0523 17 16.5 16.5523 16.5 16V8C16.5 7.44771 16.0523 7 15.5 7H8.50098ZM9.50098 5H14.5V2H9.50098V5Z" fill="black"/>
</svg>
