<svg width="24" height="24" viewBox="0 0 24 24" fill="none" xmlns="http://www.w3.org/2000/svg">
<path fill-rule="evenodd" clip-rule="evenodd" d="M14.5 1C15.0523 1 15.5 1.44772 15.5 2V5.75L15.7305 5.76172C16.8648 5.87714 17.75 6.83517 17.75 8V16C17.75 17.1648 16.8648 18.1229 15.7305 18.2383L15.5 18.25V22C15.5 22.5523 15.0523 23 14.5 23H9.5C8.94773 23 8.5 22.5523 8.5 22V18.25L8.26953 18.2383C7.13521 18.1228 6.25 17.1648 6.25 16L6.25098 8C6.25107 6.83524 7.1362 5.87715 8.27051 5.76172L8.50098 5.75V2C8.50099 1.44773 8.9487 1 9.50098 1H14.5ZM8.50098 6.25C7.53453 6.25 6.75105 7.03355 6.75098 8L6.75 16C6.75 16.9664 7.53357 17.7499 8.5 17.75H15.5C16.4665 17.75 17.25 16.9665 17.25 16V8C17.25 7.0335 16.4665 6.25 15.5 6.25H8.50098Z" fill="black"/>
</svg>
