<svg width="24" height="24" viewBox="0 0 24 24" fill="none" xmlns="http://www.w3.org/2000/svg">
<path fill-rule="evenodd" clip-rule="evenodd" d="M14.5 0.25C15.4665 0.25 16.25 1.0335 16.25 2V5.35645C17.4039 5.68316 18.25 6.7415 18.25 8V16C18.25 17.2584 17.4037 18.3158 16.25 18.6426V22C16.25 22.9665 15.4665 23.75 14.5 23.75H9.5C8.53355 23.75 7.75 22.9665 7.75 22V18.6426C6.5963 18.3157 5.75 17.2583 5.75 16L5.75098 8C5.75107 6.74158 6.59719 5.68319 7.75098 5.35645V2C7.751 1.03355 8.53447 0.25 9.50098 0.25H14.5ZM9.25 22C9.25 22.138 9.36192 22.25 9.5 22.25H14.5L14.5508 22.2451C14.6645 22.2217 14.75 22.1207 14.75 22V18.75H9.25V22ZM8.50098 6.75C7.81066 6.75 7.25103 7.30968 7.25098 8L7.25 16C7.25 16.6903 7.80971 17.2499 8.5 17.25H15.5C16.1904 17.25 16.75 16.6904 16.75 16V8C16.75 7.30964 16.1904 6.75 15.5 6.75H8.50098ZM9.50098 1.75C9.36294 1.75 9.25099 1.86191 9.25098 2V5.25H14.75V2C14.75 1.87931 14.6645 1.77833 14.5508 1.75488L14.5 1.75H9.50098Z" fill="black"/>
</svg>
