<svg width="24" height="24" viewBox="0 0 24 24" fill="none" xmlns="http://www.w3.org/2000/svg">
<path fill-rule="evenodd" clip-rule="evenodd" d="M14.5 1C15.0523 1 15.5 1.44772 15.5 2V5L15.6543 5.00391C17.2394 5.08421 18.5 6.3949 18.5 8V16C18.5 17.6051 17.2394 18.9158 15.6543 18.9961L15.5 19V22C15.5 22.5523 15.0523 23 14.5 23H9.5C8.94773 23 8.5 22.5523 8.5 22V19L8.3457 18.9961C6.76061 18.9157 5.5 17.605 5.5 16L5.50098 8C5.5011 6.39499 6.76162 5.08422 8.34668 5.00391L8.50098 5V2C8.50099 1.44773 8.9487 1 9.50098 1H14.5ZM8.50098 7C7.94872 7 7.50102 7.44775 7.50098 8L7.5 16C7.5 16.5522 7.94778 16.9999 8.5 17H15.5C16.0523 17 16.5 16.5523 16.5 16V8C16.5 7.44771 16.0523 7 15.5 7H8.50098Z" fill="black"/>
</svg>
