<svg width="24" height="24" viewBox="0 0 24 24" fill="none" xmlns="http://www.w3.org/2000/svg">
<path fill-rule="evenodd" clip-rule="evenodd" d="M14.5 0.5C15.3284 0.5 16 1.17157 16 2V5.5498C17.1411 5.78142 18 6.79051 18 8V16C18 17.2094 17.141 18.2175 16 18.4492V22C16 22.8284 15.3284 23.5 14.5 23.5H9.5C8.67161 23.5 8 22.8284 8 22V18.4492C6.85899 18.2175 6 17.2094 6 16L6.00098 8C6.00107 6.79058 6.8599 5.78145 8.00098 5.5498V2C8.001 1.17161 8.67255 0.5 9.50098 0.5H14.5ZM9 22C9 22.2761 9.22385 22.5 9.5 22.5H14.5C14.7761 22.5 15 22.2761 15 22V18.5H9V22ZM8.50098 6.5C7.67259 6.5 7.00104 7.17162 7.00098 8L7 16C7 16.8284 7.67164 17.4999 8.5 17.5H15.5C16.3284 17.5 17 16.8284 17 16V8C17 7.17157 16.3284 6.5 15.5 6.5H8.50098ZM9.50098 1.5C9.22486 1.5 9.00099 1.72385 9.00098 2V5.5H15V2C15 1.75829 14.8286 1.55629 14.6006 1.50977L14.5 1.5H9.50098Z" fill="black"/>
</svg>
