<svg width="24" height="24" viewBox="0 0 24 24" fill="none" xmlns="http://www.w3.org/2000/svg">
<path fill-rule="evenodd" clip-rule="evenodd" d="M14.5 1C15.0523 1 15.5 1.44772 15.5 2V5.5L15.7559 5.5127C17.0164 5.64082 18 6.70566 18 8V16C18 17.2943 17.0164 18.3592 15.7559 18.4873L15.5 18.5V22C15.5 22.5523 15.0523 23 14.5 23H9.5C8.94773 23 8.5 22.5523 8.5 22V18.5L8.24414 18.4873C6.98366 18.3591 6 17.2943 6 16L6.00098 8C6.00108 6.70573 6.98466 5.64084 8.24512 5.5127L8.50098 5.5V2C8.50099 1.44773 8.9487 1 9.50098 1H14.5ZM8.50098 6.5C7.67259 6.5 7.00104 7.17162 7.00098 8L7 16C7 16.8284 7.67164 17.4999 8.5 17.5H15.5C16.3284 17.5 17 16.8284 17 16V8C17 7.17157 16.3284 6.5 15.5 6.5H8.50098Z" fill="black"/>
</svg>
