<svg width="24" height="24" viewBox="0 0 24 24" fill="none" xmlns="http://www.w3.org/2000/svg">
<path fill-rule="evenodd" clip-rule="evenodd" d="M14.5 0.25C15.7426 0.25 16.75 1.25736 16.75 2.5V5C17.9243 5.48986 18.75 6.64815 18.75 8V16C18.75 17.3517 17.9241 18.5091 16.75 18.999V21.5C16.75 22.7426 15.7426 23.75 14.5 23.75H9.5C8.25743 23.75 7.25 22.7427 7.25 21.5V18.999C6.07589 18.5091 5.25 17.3517 5.25 16L5.25098 8C5.25108 6.64824 6.07675 5.48989 7.25098 5V2.5C7.25101 1.25743 8.25831 0.25 9.50098 0.25H14.5ZM9.75 21.25H14.25V19.25H9.75V21.25ZM8.50098 7.25C8.08679 7.25 7.75101 7.58581 7.75098 8L7.75 16C7.75 16.4142 8.08585 16.7499 8.5 16.75H15.5C15.9142 16.75 16.25 16.4142 16.25 16V8C16.25 7.58578 15.9142 7.25 15.5 7.25H8.50098ZM9.75098 4.75H14.25V2.75H9.75098V4.75Z" fill="black"/>
</svg>
