<svg width="24" height="24" viewBox="0 0 24 24" fill="none" xmlns="http://www.w3.org/2000/svg">
<path d="M3.62211 3.08245C3.42685 2.88718 3.11026 2.88718 2.915 3.08245C2.71974 3.27771 2.71974 3.59429 2.915 3.78955L20.4709 21.3454C20.6661 21.5407 20.9827 21.5407 21.178 21.3454C21.3732 21.1501 21.3732 20.8336 21.178 20.6383L3.62211 3.08245Z" fill="black"/>
<path d="M3.53845 14.3354C3.53845 12.5582 4.40974 10.5275 5.59313 8.58902L17.6439 20.6398C16.1466 21.9812 14.1685 22.797 12 22.797C7.32681 22.797 3.53845 19.0086 3.53845 14.3354Z" fill="black"/>
<path d="M20.4615 14.3354C20.4615 15.3693 20.2761 16.3599 19.9367 17.2757L7.93751 5.27654C9.05628 3.87157 10.1593 2.67024 10.9331 1.86639C11.2778 1.50822 11.4502 1.32913 11.6837 1.25129C11.8768 1.18692 12.1232 1.18692 12.3163 1.25129C12.5498 1.32913 12.7221 1.50822 13.0669 1.86639C15.3414 4.22938 20.4615 10.0272 20.4615 14.3354Z" fill="black"/>
</svg>
