<svg width="24" height="24" viewBox="0 0 24 24" fill="none" xmlns="http://www.w3.org/2000/svg">
<path d="M18.7504 14C18.7504 13.5858 18.4146 13.25 18.0004 13.25C17.5862 13.25 17.2504 13.5858 17.2504 14C17.2504 16.8995 14.8999 19.25 12.0004 19.25C10.9259 19.25 9.92895 18.928 9.09787 18.3755C8.75294 18.1461 8.28741 18.2398 8.05807 18.5847C7.82873 18.9297 7.92243 19.3952 8.26736 19.6245C9.33689 20.3357 10.6214 20.75 12.0004 20.75C15.7283 20.75 18.7504 17.7279 18.7504 14Z" fill="black"/>
<path fill-rule="evenodd" clip-rule="evenodd" d="M12.5531 0.539898C12.206 0.424201 11.7932 0.424201 11.4462 0.539898C11.0311 0.67826 10.7329 0.990279 10.4591 1.27672L10.3924 1.34638C9.24187 2.54164 7.36143 4.61563 5.76374 6.94765C4.19008 9.2446 2.78809 11.9359 2.78809 14.3356C2.78809 19.423 6.91223 23.5471 11.9996 23.5471C17.087 23.5471 21.2112 19.423 21.2112 14.3356C21.2112 11.9359 19.8092 9.2446 18.2355 6.94766C16.6378 4.61563 14.7574 2.54164 13.6069 1.34638L13.5401 1.27672C13.2664 0.990279 12.9681 0.67826 12.5531 0.539898ZM11.9206 1.9629C11.9597 1.94987 12.0396 1.94987 12.0787 1.9629C12.0787 1.9629 12.0827 1.96418 12.0913 1.96943C12.1023 1.9762 12.1238 1.99092 12.1603 2.02235C12.2428 2.09333 12.3443 2.19767 12.5262 2.38662C13.6502 3.55436 15.4671 5.56076 16.9981 7.79544C18.5531 10.0652 19.7112 12.427 19.7112 14.3356C19.7112 18.5945 16.2586 22.0471 11.9996 22.0471C7.74066 22.0471 4.28809 18.5945 4.28809 14.3356C4.28809 12.427 5.44615 10.0652 7.00118 7.79544C8.53218 5.56076 10.3491 3.55436 11.4731 2.38662C11.6549 2.19767 11.7564 2.09333 11.8389 2.02235C11.8755 1.99092 11.8969 1.9762 11.908 1.96943C11.9165 1.96418 11.9206 1.9629 11.9206 1.9629Z" fill="black"/>
</svg>
