<svg width="24" height="24" viewBox="0 0 24 24" fill="none" xmlns="http://www.w3.org/2000/svg">
<path d="M3.62211 3.08256C3.42685 2.8873 3.11026 2.8873 2.915 3.08256C2.71974 3.27782 2.71974 3.5944 2.915 3.78967L20.4709 21.3455C20.6661 21.5408 20.9827 21.5408 21.178 21.3455C21.3732 21.1503 21.3732 20.8337 21.178 20.6384L3.62211 3.08256Z" fill="black"/>
<path d="M3.03845 14.3356C3.03845 12.3926 3.99502 10.2259 5.22954 8.22553L5.95718 8.95317C4.82741 10.8254 4.03845 12.7208 4.03845 14.3356C4.03845 18.7326 7.60295 22.2971 12 22.2971C14.0305 22.2971 15.8834 21.537 17.2898 20.2858L17.998 20.994C16.4097 22.4256 14.3066 23.2971 12 23.2971C7.05067 23.2971 3.03845 19.2849 3.03845 14.3356Z" fill="black"/>
<path d="M8.29335 5.63249L7.58172 4.92087C8.70194 3.51788 9.80137 2.32125 10.5728 1.51976L10.6308 1.4594C10.9166 1.16136 11.1721 0.894897 11.5256 0.777065C11.8213 0.678478 12.1787 0.678478 12.4744 0.777065C12.8278 0.894899 13.0834 1.16136 13.3692 1.4594L13.4271 1.51976C14.5732 2.71043 16.4431 4.77315 18.0296 7.08895C19.6002 9.38137 20.9615 12.0177 20.9615 14.3356C20.9615 15.5112 20.7351 16.634 20.3236 17.6627L19.5449 16.884C19.8151 16.0839 19.9615 15.2268 19.9615 14.3356C19.9615 12.3451 18.7628 9.92843 17.2047 7.65414C15.6626 5.40324 13.8351 3.38557 12.7067 2.21325C12.3271 1.8189 12.248 1.75569 12.1581 1.72574C12.0677 1.69559 11.9323 1.69559 11.8419 1.72574C11.752 1.75569 11.6729 1.8189 11.2933 2.21325C10.5172 3.01952 9.4105 4.22564 8.29335 5.63249Z" fill="black"/>
</svg>
