<svg width="24" height="24" viewBox="0 0 24 24" fill="none" xmlns="http://www.w3.org/2000/svg">
<path fill-rule="evenodd" clip-rule="evenodd" d="M7.25586 5.73169C7.4513 5.66666 7.69132 5.66659 7.88672 5.73169C8.13282 5.81377 8.30889 6.00585 8.54883 6.25513C9.40279 7.14234 10.7941 8.67807 11.9736 10.3997C13.1452 12.1097 14.1422 14.0525 14.1426 15.7434C14.1426 19.3726 11.2005 22.3146 7.57129 22.3147C3.94206 22.3146 1.00001 19.3727 1 15.7434C1.00035 14.0525 1.99738 12.1097 3.16895 10.3997C4.34844 8.67818 5.7398 7.14234 6.59375 6.25513C6.83353 6.00601 7.00992 5.81379 7.25586 5.73169ZM7.72852 6.20533C7.63577 6.17451 7.50684 6.17453 7.41406 6.20533C7.31151 6.23952 7.22864 6.3166 6.9541 6.60181C6.109 7.47982 4.73835 8.99281 3.58105 10.6819C2.41571 12.3829 1.50036 14.2161 1.5 15.7434C1.50001 19.0965 4.2182 21.8146 7.57129 21.8147C10.9243 21.8146 13.6426 19.0965 13.6426 15.7434C13.6422 14.2161 12.7269 12.3829 11.5615 10.6819C10.4042 8.99271 9.03358 7.47981 8.18848 6.60181C7.91381 6.31647 7.83108 6.23953 7.72852 6.20533Z" fill="black"/>
<path fill-rule="evenodd" clip-rule="evenodd" d="M18.2275 1.41041C18.375 1.36125 18.5537 1.36124 18.7012 1.41041C18.8889 1.47328 19.0217 1.62046 19.1758 1.78052C19.7466 2.3736 20.6779 3.40113 21.4678 4.55396C22.2498 5.69553 22.9287 7.00987 22.9287 8.16431C22.928 10.6292 20.9289 12.6281 18.4639 12.6282C15.999 12.628 14.0008 10.6291 14 8.16431C14 7.00981 14.6779 5.69557 15.46 4.55396C16.25 3.40081 17.1821 2.37363 17.7529 1.78052C17.9071 1.62033 18.0396 1.47319 18.2275 1.41041ZM16.8262 11.7727C17.3255 11.9997 17.8796 12.1281 18.4639 12.1282C20.6527 12.1281 22.428 10.353 22.4287 8.16431C22.4287 7.67155 22.2801 7.12589 22.0361 6.56275L16.8262 11.7727ZM14.8369 9.76197C15.1592 10.4921 15.6946 11.1071 16.3652 11.5266L21.8076 6.08423C21.5933 5.6685 21.3369 5.24771 21.0557 4.83716C20.8797 4.58029 20.6958 4.32919 20.5107 4.08814L14.8369 9.76197ZM18.3857 1.88501C18.3414 1.89989 18.3018 1.93139 18.1133 2.1272C17.5513 2.71113 16.6408 3.71646 15.873 4.83716C15.0973 5.96963 14.5 7.17352 14.5 8.16431C14.5001 8.53833 14.5525 8.90038 14.6494 9.24341L20.1992 3.69361C19.6809 3.05186 19.1765 2.50236 18.8154 2.1272C18.6275 1.93199 18.5871 1.89996 18.543 1.88501C18.4981 1.87007 18.4306 1.87008 18.3857 1.88501Z" fill="black"/>
</svg>
