<svg width="24" height="24" viewBox="0 0 24 24" fill="none" xmlns="http://www.w3.org/2000/svg">
<path d="M18.6963 14.0107C18.6963 13.4825 18.2681 13.0542 17.7398 13.0542C17.2115 13.0542 16.7833 13.4825 16.7833 14.0107C16.7833 16.6521 14.6421 18.7934 12.0007 18.7934C11.0215 18.7934 10.1137 18.5001 9.35675 17.9968C8.91684 17.7043 8.32311 17.8238 8.03062 18.2638C7.73813 18.7037 7.85764 19.2974 8.29755 19.5899C9.35859 20.2954 10.6331 20.7064 12.0007 20.7064C15.6986 20.7064 18.6963 17.7086 18.6963 14.0107Z" fill="black"/>
<path fill-rule="evenodd" clip-rule="evenodd" d="M12.6322 0.30273C12.2338 0.169923 11.7655 0.169923 11.3671 0.30273C10.8897 0.461888 10.5483 0.820385 10.2828 1.09918C10.2587 1.12452 10.2352 1.1492 10.2123 1.17301C9.05734 2.37286 7.1663 4.45811 5.5575 6.80636C3.98074 9.10784 2.53809 11.854 2.53809 14.3356C2.53809 19.561 6.77416 23.7971 11.9996 23.7971C17.2251 23.7971 21.4612 19.561 21.4612 14.3356C21.4612 11.854 20.0185 9.10784 18.4418 6.80636C16.8329 4.45811 14.9419 2.37286 13.787 1.17301C13.7641 1.14924 13.7407 1.12461 13.7166 1.09932C13.4511 0.820531 13.1096 0.461888 12.6322 0.30273ZM11.6532 2.55999C11.8362 2.36985 11.9284 2.27548 11.9996 2.21389C12.0708 2.27548 12.1631 2.36985 12.3461 2.55999C13.4657 3.72314 15.2719 5.71828 16.7918 7.93674C18.3438 10.202 19.4612 12.5088 19.4612 14.3356C19.4612 18.4565 16.1205 21.7971 11.9996 21.7971C7.87873 21.7971 4.53809 18.4565 4.53809 14.3356C4.53809 12.5088 5.6555 10.202 7.20742 7.93673C8.7273 5.71828 10.5336 3.72314 11.6532 2.55999Z" fill="black"/>
</svg>
