<svg width="24" height="24" viewBox="0 0 24 24" fill="none" xmlns="http://www.w3.org/2000/svg">
<path fill-rule="evenodd" clip-rule="evenodd" d="M18.859 0.935588C18.6089 0.8522 18.3197 0.8522 18.0696 0.935588C17.7678 1.03618 17.5538 1.26284 17.4276 1.39642C17.415 1.40972 17.4034 1.42209 17.3925 1.43333C16.8129 2.03553 15.8604 3.08544 15.0479 4.27134C14.2595 5.42216 13.5 6.84524 13.5 8.16365C13.5 10.9053 15.7226 13.1279 18.4643 13.1279C21.206 13.1279 23.4285 10.9053 23.4285 8.16365C23.4285 6.84524 22.6691 5.42215 21.8806 4.27134C21.0682 3.08544 20.1156 2.03553 19.536 1.43332C19.5252 1.42209 19.5135 1.40972 19.5009 1.39642C19.3748 1.26284 19.1607 1.03618 18.859 0.935588ZM16.2854 5.11912C17.0271 4.03644 17.9105 3.05884 18.4643 2.48289C19.018 3.05884 19.9014 4.03644 20.6432 5.11912C21.413 6.24275 21.9285 7.33633 21.9285 8.16365C21.9285 10.0769 20.3775 11.6279 18.4643 11.6279C16.551 11.6279 15 10.0769 15 8.16365C15 7.33633 15.5156 6.24275 16.2854 5.11912Z" fill="black"/>
<path fill-rule="evenodd" clip-rule="evenodd" d="M8.04488 5.25816C7.74667 5.15874 7.39614 5.15874 7.09793 5.25816C6.74053 5.3773 6.48498 5.64568 6.28673 5.85388L6.23399 5.90907C5.37113 6.8055 3.95827 8.36347 2.75624 10.118C1.57824 11.8374 0.5 13.8897 0.5 15.7445C0.5 19.6499 3.66598 22.8159 7.5714 22.8159C11.4768 22.8159 14.6428 19.6499 14.6428 15.7445C14.6428 13.8897 13.5646 11.8374 12.3866 10.118C11.1845 8.36347 9.77167 6.8055 8.90881 5.90907L8.85608 5.85388C8.65782 5.64568 8.40227 5.3773 8.04488 5.25816ZM7.31469 6.9493C7.44982 6.80892 7.51859 6.73852 7.5714 6.69258C7.62422 6.73852 7.69299 6.80892 7.82811 6.9493C8.66448 7.81821 10.0138 9.30859 11.1491 10.9658C12.3085 12.658 13.1428 14.3807 13.1428 15.7445C13.1428 18.8215 10.6484 21.3159 7.5714 21.3159C4.4944 21.3159 2 18.8215 2 15.7445C2 14.3807 2.83431 12.658 3.99368 10.9658C5.12902 9.30859 6.47832 7.81821 7.31469 6.9493Z" fill="black"/>
</svg>
