<svg width="24" height="24" viewBox="0 0 24 24" fill="none" xmlns="http://www.w3.org/2000/svg">
<path fill-rule="evenodd" clip-rule="evenodd" d="M18.7799 1.17276C18.5811 1.10648 18.3474 1.10648 18.1486 1.17276C17.9104 1.25219 17.74 1.4311 17.6078 1.56991L17.5727 1.6067C16.9974 2.20432 16.0555 3.24296 15.2542 4.41263C14.4688 5.55892 13.75 6.92708 13.75 8.16365C13.75 10.7673 15.8607 12.8779 18.4643 12.8779C21.0679 12.8779 23.1785 10.7673 23.1785 8.16365C23.1785 6.92708 22.4597 5.55892 21.6744 4.41263C20.873 3.24296 19.9311 2.20432 19.3559 1.6067L19.3207 1.5699C19.1885 1.4311 19.0182 1.25219 18.7799 1.17276ZM18.2931 2.30019C18.3832 2.2066 18.4291 2.15967 18.4643 2.12904C18.4995 2.15967 18.5453 2.2066 18.6354 2.30019C19.193 2.87946 20.0925 3.87305 20.8494 4.97782C21.6223 6.10598 22.1785 7.25448 22.1785 8.16365C22.1785 10.215 20.5156 11.8779 18.4643 11.8779C16.4129 11.8779 14.75 10.215 14.75 8.16365C14.75 7.25448 15.3062 6.10598 16.0791 4.97782C16.836 3.87305 17.7355 2.87946 18.2931 2.30019Z" fill="black"/>
<path fill-rule="evenodd" clip-rule="evenodd" d="M7.96581 5.49532C7.71892 5.41302 7.42388 5.41302 7.177 5.49532C6.88186 5.59372 6.6694 5.81575 6.46236 6.03211L6.41411 6.08244C5.55566 6.97428 4.15339 8.52099 2.96248 10.2593C1.78759 11.9742 0.75 13.9715 0.75 15.7445C0.75 19.5119 3.80405 22.5659 7.5714 22.5659C11.3388 22.5659 14.3928 19.5119 14.3928 15.7445C14.3928 13.9715 13.3552 11.9742 12.1803 10.2593C10.9894 8.52099 9.58714 6.97428 8.7287 6.08244L8.68044 6.03211C8.47341 5.81575 8.26095 5.59372 7.96581 5.49532ZM7.49326 6.44399C7.53486 6.43013 7.60795 6.43013 7.64954 6.44399C7.65565 6.44602 7.67602 6.45278 7.73079 6.4999C7.79507 6.55521 7.87312 6.63556 8.00823 6.77593C8.84902 7.64942 10.2089 9.15107 11.3554 10.8245C12.5178 12.5212 13.3928 14.2989 13.3928 15.7445C13.3928 18.9596 10.7865 21.5659 7.5714 21.5659C4.35633 21.5659 1.75 18.9596 1.75 15.7445C1.75 14.2989 2.62497 12.5212 3.78744 10.8245C4.93389 9.15107 6.29379 7.64943 7.13458 6.77593C7.26969 6.63556 7.34774 6.55521 7.41201 6.4999C7.46679 6.45278 7.48716 6.44602 7.49326 6.44399Z" fill="black"/>
</svg>
