<svg width="24" height="24" viewBox="0 0 24 24" fill="none" xmlns="http://www.w3.org/2000/svg">
<path d="M3.62211 3.08245C3.42685 2.88719 3.11026 2.88719 2.915 3.08245C2.71974 3.27771 2.71974 3.5943 2.915 3.78956L20.4709 21.3454C20.6661 21.5407 20.9827 21.5407 21.178 21.3454C21.3732 21.1502 21.3732 20.8336 21.178 20.6383L3.62211 3.08245Z" fill="black"/>
<path d="M3.03845 14.3355C3.03845 12.3925 3.99502 10.2258 5.22954 8.22542L5.95718 8.95307C4.82741 10.8253 4.03845 12.7207 4.03845 14.3355C4.03845 18.7325 7.60295 22.297 12 22.297C14.0305 22.297 15.8834 21.5369 17.2898 20.2857L17.998 20.9939C16.4097 22.4255 14.3066 23.297 12 23.297C7.05067 23.297 3.03845 19.2848 3.03845 14.3355Z" fill="black"/>
<path d="M8.29335 5.63239L7.58172 4.92076C8.70194 3.51778 9.80137 2.32114 10.5728 1.51965L10.6308 1.45929C10.9166 1.16125 11.1721 0.894791 11.5256 0.776958C11.8213 0.678371 12.1787 0.678371 12.4744 0.776958C12.8278 0.894793 13.0834 1.16125 13.3692 1.4593L13.4271 1.51965C14.5732 2.71032 16.4431 4.77304 18.0296 7.08885C19.6002 9.38126 20.9615 12.0176 20.9615 14.3355C20.9615 15.5111 20.7351 16.6339 20.3236 17.6626L19.5449 16.8839C19.8151 16.0838 19.9615 15.2267 19.9615 14.3355C19.9615 12.345 18.7628 9.92833 17.2047 7.65403C15.6626 5.40313 13.8351 3.38547 12.7067 2.21314C12.3271 1.81879 12.248 1.75559 12.1581 1.72563C12.0677 1.69548 11.9323 1.69548 11.8419 1.72563C11.752 1.75559 11.6729 1.81879 11.2933 2.21314C10.5172 3.01941 9.4105 4.22553 8.29335 5.63239Z" fill="black"/>
</svg>
