<svg width="24" height="24" viewBox="0 0 24 24" fill="none" xmlns="http://www.w3.org/2000/svg">
<path fill-rule="evenodd" clip-rule="evenodd" d="M11.9996 22.7971C16.6728 22.7971 20.4612 19.0087 20.4612 14.3356C20.4612 10.0273 15.341 4.2295 13.0665 1.8665C12.7218 1.50833 12.5494 1.32925 12.3159 1.2514C12.1228 1.18703 11.8764 1.18703 11.6834 1.2514C11.4499 1.32925 11.2775 1.50833 10.9327 1.8665C8.65821 4.2295 3.53809 10.0273 3.53809 14.3356C3.53809 19.0087 7.32645 22.7971 11.9996 22.7971ZM18.25 14C18.25 13.8619 18.1381 13.75 18 13.75C17.8619 13.75 17.75 13.8619 17.75 14C17.75 17.1756 15.1756 19.75 12 19.75C10.824 19.75 9.73119 19.3972 8.82062 18.7918C8.70565 18.7154 8.55047 18.7466 8.47402 18.8616C8.39758 18.9766 8.42881 19.1317 8.54379 19.2082C9.53383 19.8665 10.7225 20.25 12 20.25C15.4518 20.25 18.25 17.4518 18.25 14Z" fill="black"/>
</svg>
