<svg width="24" height="24" viewBox="0 0 24 24" fill="none" xmlns="http://www.w3.org/2000/svg">
<path d="M3.44533 3.25934C3.3477 3.16171 3.18941 3.16171 3.09178 3.25934C2.99415 3.35697 2.99415 3.51526 3.09178 3.61289L20.6476 21.1687C20.7453 21.2664 20.9036 21.2664 21.0012 21.1687C21.0988 21.0711 21.0988 20.9128 21.0012 20.8152L3.44533 3.25934Z" fill="black"/>
<path d="M3.53845 14.3356C3.53845 12.3584 4.61679 10.0675 6.00357 7.93891L18.18 20.1153C16.6359 21.7657 14.4384 22.7971 12 22.7971C7.32681 22.7971 3.53845 19.0087 3.53845 14.3356Z" fill="black"/>
<path d="M20.4615 14.3356C20.4615 15.656 20.1591 16.9058 19.6197 18.0195L7.47225 5.87206C8.74419 4.21233 10.0521 2.78176 10.9331 1.8665C11.2778 1.50833 11.4502 1.32925 11.6837 1.2514C11.8768 1.18703 12.1232 1.18703 12.3163 1.2514C12.5498 1.32925 12.7221 1.50833 13.0669 1.8665C15.3414 4.2295 20.4615 10.0273 20.4615 14.3356Z" fill="black"/>
</svg>
