<svg width="24" height="24" viewBox="0 0 24 24" fill="none" xmlns="http://www.w3.org/2000/svg">
<path d="M7.3125 5.21883C7.47037 5.16623 7.67219 5.16626 7.83008 5.21883C8.02105 5.28249 8.16249 5.42895 8.44434 5.72176C10.3052 7.65504 14.4938 12.399 14.4941 15.9239C14.4941 19.7474 11.3948 22.8468 7.57129 22.8468C3.74789 22.8466 0.648445 19.7473 0.648438 15.9239C0.648765 12.399 4.83731 7.65509 6.69824 5.72176C6.98004 5.42899 7.12164 5.28255 7.3125 5.21883Z" fill="black"/>
<path d="M18.292 1.14754C18.3972 1.11257 18.5315 1.11248 18.6367 1.14754C18.7639 1.19005 18.858 1.28826 19.0459 1.48348C20.2867 2.77263 23.0791 5.93454 23.0791 8.28426C23.0789 10.8331 21.0127 12.8995 18.4639 12.8995C15.9151 12.8994 13.8488 10.833 13.8486 8.28426C13.8487 5.93463 16.6409 2.77273 17.8818 1.48348C18.0698 1.28817 18.1647 1.19002 18.292 1.14754Z" fill="black"/>
</svg>
