<svg width="24" height="24" viewBox="0 0 24 24" fill="none" xmlns="http://www.w3.org/2000/svg">
<path d="M7.3125 5.21962C7.47043 5.16697 7.67213 5.167 7.83008 5.21962C8.02105 5.28332 8.1624 5.42965 8.44434 5.72255C10.3054 7.65601 14.4941 12.3998 14.4941 15.9247C14.494 19.7481 11.3947 22.8476 7.57129 22.8476C3.74799 22.8474 0.648613 19.748 0.648438 15.9247C0.648438 12.3999 4.83716 7.65607 6.69824 5.72255C6.98014 5.42969 7.12164 5.28338 7.3125 5.21962Z" fill="black"/>
<path d="M18.292 1.14736C18.3972 1.11239 18.5315 1.11229 18.6367 1.14736C18.764 1.18986 18.858 1.28804 19.0459 1.48329C20.2867 2.77237 23.0791 5.93427 23.0791 8.28407C23.079 10.833 21.0128 12.8993 18.4639 12.8993C15.915 12.8992 13.8487 10.833 13.8486 8.28407C13.8487 5.93437 16.641 2.77246 17.8818 1.48329C18.0699 1.28795 18.1646 1.18982 18.292 1.14736Z" fill="black"/>
</svg>
