<svg width="24" height="24" viewBox="0 0 24 24" fill="none" xmlns="http://www.w3.org/2000/svg">
<path fill-rule="evenodd" clip-rule="evenodd" d="M18.7009 1.40992C18.5534 1.36075 18.3752 1.36075 18.2277 1.40992C18.0514 1.46869 17.924 1.60157 17.7817 1.74996L17.7528 1.78007C17.182 2.3731 16.2506 3.40048 15.4604 4.55393C14.6782 5.69569 14 7.00893 14 8.16365C14 10.6292 15.9987 12.6279 18.4643 12.6279C20.9298 12.6279 22.9285 10.6292 22.9285 8.16365C22.9285 7.00893 22.2504 5.69569 21.4681 4.55393C20.6779 3.40048 19.7466 2.3731 19.1758 1.78007L19.1468 1.74996C19.0046 1.60157 18.8771 1.46869 18.7009 1.40992ZM18.3858 1.88426C18.4307 1.86931 18.4979 1.86931 18.5427 1.88426C18.5872 1.89908 18.6264 1.93034 18.8155 2.12681C19.3775 2.71067 20.2877 3.71553 21.0557 4.83653C21.8317 5.96922 22.4285 7.17263 22.4285 8.16365C22.4285 10.3531 20.6537 12.1279 18.4643 12.1279C16.2749 12.1279 14.5 10.3531 14.5 8.16365C14.5 7.17263 15.0969 5.96922 15.8729 4.83653C16.6409 3.71553 17.551 2.71067 18.113 2.12681C18.3021 1.93034 18.3413 1.89908 18.3858 1.88426Z" fill="black"/>
<path fill-rule="evenodd" clip-rule="evenodd" d="M7.88674 5.73249C7.69118 5.66729 7.45163 5.66729 7.25606 5.73249C7.02207 5.8105 6.85203 5.98748 6.62967 6.21895L6.59422 6.25581C5.7402 7.14307 4.34852 8.67851 3.16872 10.4006C1.99693 12.1109 1 14.0533 1 15.7445C1 19.3738 3.94212 22.3159 7.5714 22.3159C11.2007 22.3159 14.1428 19.3738 14.1428 15.7445C14.1428 14.0533 13.1459 12.1109 11.9741 10.4006C10.7943 8.67851 9.40261 7.14307 8.54858 6.25581L8.51315 6.21895C8.29078 5.98749 8.12074 5.8105 7.88674 5.73249ZM7.4142 6.20683C7.50712 6.17585 7.63569 6.17585 7.72861 6.20683C7.83123 6.24104 7.91337 6.31689 8.18835 6.60256C9.03355 7.48064 10.404 8.99355 11.5616 10.6832C12.7272 12.3845 13.6428 14.217 13.6428 15.7445C13.6428 19.0976 10.9245 21.8159 7.5714 21.8159C4.21826 21.8159 1.5 19.0976 1.5 15.7445C1.5 14.217 2.41562 12.3845 3.5812 10.6832C4.73877 8.99355 6.10926 7.48064 6.95446 6.60256C7.22943 6.31689 7.31157 6.24104 7.4142 6.20683Z" fill="black"/>
</svg>
