<svg width="24" height="24" viewBox="0 0 24 24" fill="none" xmlns="http://www.w3.org/2000/svg">
<path fill-rule="evenodd" clip-rule="evenodd" d="M7.09766 5.25784C7.35851 5.17092 7.65981 5.16043 7.93066 5.22562L8.04492 5.25784L8.18555 5.31448C8.50081 5.4633 8.72957 5.7226 8.90918 5.90921C9.77199 6.80561 11.185 8.36322 12.3867 10.1172C13.5646 11.8365 14.6424 13.8895 14.6426 15.7442C14.6426 19.6496 11.4767 22.8155 7.57129 22.8155C3.66592 22.8154 0.500007 19.6496 0.5 15.7442C0.500201 13.8895 1.57797 11.8365 2.75586 10.1172C3.95779 8.36294 5.37158 6.80557 6.23438 5.90921C6.43962 5.69596 6.70804 5.38783 7.09766 5.25784ZM7.31445 6.94925C6.47812 7.81814 5.12931 9.309 3.99414 10.9659C2.83495 12.6579 2.00021 14.3805 2 15.7442C2.00001 18.8211 4.49434 21.3154 7.57129 21.3155C10.6483 21.3155 13.1426 18.8212 13.1426 15.7442C13.1424 14.3806 12.3085 12.6577 11.1494 10.9659C10.0142 9.30893 8.66445 7.81812 7.82812 6.94925C7.69319 6.80907 7.62407 6.73833 7.57129 6.69241C7.51853 6.73833 7.44928 6.80918 7.31445 6.94925Z" fill="black"/>
<path fill-rule="evenodd" clip-rule="evenodd" d="M18.165 0.908235C18.3591 0.861331 18.5697 0.861304 18.7637 0.908235L18.8594 0.935578L18.9785 0.98343C19.2456 1.10955 19.4316 1.32501 19.5361 1.43363C20.1158 2.03586 21.0685 3.08578 21.8809 4.27152C22.6692 5.42228 23.4287 6.84578 23.4287 8.16409C23.4285 10.9056 21.2054 13.128 18.4639 13.128C15.7225 13.1277 13.5002 10.9055 13.5 8.16409C13.5 6.84575 14.2595 5.42229 15.0479 4.27152C15.8603 3.08572 16.8129 2.03584 17.3926 1.43363C17.512 1.30952 17.7377 1.04621 18.0693 0.935578L18.165 0.908235ZM17.3418 11.4405C17.6938 11.561 18.071 11.6279 18.4639 11.628C20.377 11.628 21.9285 10.0772 21.9287 8.16409C21.9287 7.83866 21.8468 7.47269 21.7031 7.07913L17.3418 11.4405ZM15.2715 9.51077C15.5492 10.1682 16.0251 10.7206 16.623 11.0967L21.3789 6.34085C21.1771 5.94574 20.928 5.5343 20.6436 5.11917C20.5106 4.92512 20.3718 4.7354 20.2324 4.54984L15.2715 9.51077ZM18.4639 2.48343C17.9101 3.05943 17.0267 4.0368 16.2852 5.11917C15.5154 6.24273 15 7.33681 15 8.16409C15 8.34028 15.0127 8.51354 15.0381 8.68265L19.7676 3.95316C19.2811 3.35539 18.8084 2.84179 18.4639 2.48343Z" fill="black"/>
</svg>
