<svg width="24" height="24" viewBox="0 0 24 24" fill="none" xmlns="http://www.w3.org/2000/svg">
<path fill-rule="evenodd" clip-rule="evenodd" d="M7.15234 4.9828C7.42371 4.91726 7.71886 4.9173 7.99023 4.9828L8.12402 5.02089L8.29004 5.08827C8.66228 5.26403 8.92445 5.56491 9.08887 5.73573C9.95615 6.63676 11.3797 8.20626 12.5928 9.97694C13.7738 11.7009 14.8926 13.8079 14.8926 15.7445C14.8925 19.788 11.6147 23.0658 7.57129 23.0658C3.52789 23.0657 0.250081 19.7879 0.25 15.7445C0.250002 13.808 1.3688 11.7008 2.5498 9.97694C3.76287 8.20632 5.18642 6.63677 6.05371 5.73573C6.24158 5.54055 6.55697 5.17488 7.01855 5.02089L7.15234 4.9828ZM7.49512 7.12245C6.66321 7.98673 5.32434 9.46605 4.2002 11.1068C3.04397 12.7945 2.25 14.4626 2.25 15.7445C2.25008 18.6833 4.63246 21.0657 7.57129 21.0658C10.5102 21.0658 12.8925 18.6834 12.8926 15.7445C12.8926 14.4627 12.0996 12.7945 10.9434 11.1068C9.81921 9.466 8.4804 7.9868 7.64844 7.12245C7.62013 7.09304 7.59428 7.06709 7.57129 7.04335C7.5484 7.06699 7.52327 7.0932 7.49512 7.12245Z" fill="black"/>
<path fill-rule="evenodd" clip-rule="evenodd" d="M18.1055 0.665419C18.3386 0.608936 18.5901 0.60891 18.8232 0.665419L18.9385 0.698622L19.083 0.757216C19.4066 0.910086 19.6264 1.16714 19.7158 1.26015C20.2999 1.86696 21.2635 2.9284 22.0869 4.13026C22.8784 5.28555 23.6787 6.76434 23.6787 8.16444C23.6782 11.0438 21.3433 13.3783 18.4639 13.3783C15.5846 13.3781 13.2505 11.0436 13.25 8.16444C13.25 6.76434 14.0503 5.28555 14.8418 4.13026C15.6652 2.92843 16.6288 1.86695 17.2129 1.26015C17.3152 1.15377 17.5873 0.833081 17.9902 0.698622L18.1055 0.665419ZM17.5391 11.2426C17.832 11.3305 18.1424 11.3783 18.4639 11.3783C20.2388 11.3783 21.6782 9.93921 21.6787 8.16444C21.6787 7.90106 21.6184 7.60107 21.5078 7.27382L17.5391 11.2426ZM15.4639 9.31776C15.7217 9.98769 16.1989 10.5466 16.8057 10.9135L21.1914 6.52772C20.9915 6.1266 20.737 5.69972 20.4365 5.26112C20.3125 5.08004 20.1828 4.9027 20.0527 4.7289L15.4639 9.31776ZM18.4639 2.84901C17.9159 3.43168 17.1456 4.30593 16.4912 5.26112C15.7248 6.37994 15.25 7.41913 15.25 8.16444C15.25 8.26288 15.255 8.36025 15.2637 8.45643L19.5879 4.13222C19.182 3.63272 18.7851 3.19059 18.4639 2.84901Z" fill="black"/>
</svg>
