<svg width="25" height="24" viewBox="0 0 25 24" fill="none" xmlns="http://www.w3.org/2000/svg">
<path d="M19.464 12.8996C22.013 12.8996 24.0794 10.8332 24.0794 8.28424C24.0794 5.93427 21.2866 2.77184 20.046 1.48294C19.8579 1.28757 19.7639 1.18989 19.6365 1.14743C19.5312 1.11232 19.3968 1.11232 19.2915 1.14743C19.1641 1.18989 19.0701 1.28757 18.8821 1.48294C17.6414 2.77184 14.8486 5.93427 14.8486 8.28424C14.8486 10.8332 16.915 12.8996 19.464 12.8996Z" fill="black"/>
<path fill-rule="evenodd" clip-rule="evenodd" d="M9.06748 4.50768C8.75554 4.40369 8.38749 4.40369 8.07555 4.50768C7.70202 4.63221 7.43451 4.91277 7.21525 5.14272L7.15824 5.20233C6.21451 6.18277 4.67019 7.88582 3.35693 9.80269C2.0677 11.6845 0.898438 13.9164 0.898438 15.9244C0.898438 20.1621 4.33379 23.5975 8.57152 23.5975C12.8092 23.5975 16.2446 20.1621 16.2446 15.9244C16.2446 13.9164 15.0753 11.6845 13.7861 9.80269C12.4728 7.88582 10.9285 6.18277 9.98479 5.20233L9.92778 5.14272C9.70852 4.91277 9.44101 4.63221 9.06748 4.50768ZM8.52897 5.95333C8.54163 5.94244 8.55093 5.93508 8.5573 5.9303C8.56143 5.92993 8.56624 5.92969 8.57152 5.92969C8.57679 5.92969 8.5816 5.92993 8.58573 5.9303C8.5921 5.93508 8.6014 5.94244 8.61406 5.95333C8.67558 6.00626 8.75356 6.08618 8.90409 6.24257C9.82133 7.19549 11.3021 8.83094 12.5487 10.6505C13.8193 12.5051 14.7446 14.4075 14.7446 15.9244C14.7446 19.3337 11.9808 22.0975 8.57152 22.0975C5.16222 22.0975 2.39844 19.3337 2.39844 15.9244C2.39844 14.4075 3.32377 12.5051 4.59437 10.6505C5.84094 8.83094 7.3217 7.19549 8.23894 6.24257C8.38947 6.08618 8.46745 6.00626 8.52897 5.95333Z" fill="black"/>
</svg>
