<svg width="25" height="24" viewBox="0 0 25 24" fill="none" xmlns="http://www.w3.org/2000/svg">
<path d="M19.464 12.8996C22.013 12.8996 24.0794 10.8332 24.0794 8.28424C24.0794 5.93427 21.2866 2.77184 20.046 1.48294C19.8579 1.28757 19.7639 1.18989 19.6365 1.14743C19.5312 1.11232 19.3968 1.11232 19.2915 1.14743C19.1641 1.18989 19.0701 1.28757 18.8821 1.48294C17.6414 2.77184 14.8486 5.93427 14.8486 8.28424C14.8486 10.8332 16.915 12.8996 19.464 12.8996Z" fill="black"/>
<path fill-rule="evenodd" clip-rule="evenodd" d="M9.14654 4.27052C8.78328 4.14941 8.35975 4.14941 7.99649 4.27052C7.56001 4.41603 7.24905 4.74372 7.03658 4.96764C7.01619 4.98912 6.99672 5.00964 6.97812 5.02896C6.02998 6.01399 4.47507 7.72829 3.15069 9.66139C1.85835 11.5477 0.648438 13.8345 0.648438 15.9244C0.648438 20.3002 4.19572 23.8475 8.57152 23.8475C12.9473 23.8475 16.4946 20.3002 16.4946 15.9244C16.4946 13.8345 15.2847 11.5477 13.9923 9.66139C12.668 7.72829 11.113 6.01399 10.1649 5.02896C10.1463 5.00964 10.1268 4.98912 10.1065 4.96764C9.89398 4.74372 9.58302 4.41603 9.14654 4.27052ZM8.41906 6.41594C8.48027 6.35234 8.52891 6.30185 8.57152 6.25869C8.61412 6.30185 8.66276 6.35234 8.72397 6.41594C9.6368 7.36427 11.107 8.98846 12.3424 10.7918C13.6099 12.6418 14.4946 14.4893 14.4946 15.9244C14.4946 19.1956 11.8427 21.8475 8.57152 21.8475C5.30029 21.8475 2.64844 19.1956 2.64844 15.9244C2.64844 14.4893 3.53311 12.6418 4.80061 10.7918C6.03607 8.98847 7.50623 7.36427 8.41906 6.41594Z" fill="black"/>
</svg>
