<svg width="24" height="24" viewBox="0 0 24 24" fill="none" xmlns="http://www.w3.org/2000/svg">
<path d="M3.44533 3.25922C3.3477 3.16159 3.18941 3.16159 3.09178 3.25922C2.99415 3.35685 2.99415 3.51514 3.09178 3.61278L20.6476 21.1686C20.7453 21.2663 20.9036 21.2663 21.0012 21.1686C21.0988 21.071 21.0988 20.9127 21.0012 20.8151L3.44533 3.25922Z" fill="black"/>
<path d="M3.53845 14.3354C3.53845 12.3583 4.61679 10.0674 6.00357 7.93879L18.18 20.1152C16.6359 21.7656 14.4384 22.797 12 22.797C7.32681 22.797 3.53845 19.0086 3.53845 14.3354Z" fill="black"/>
<path d="M20.4615 14.3354C20.4615 15.6559 20.1591 16.9057 19.6197 18.0193L7.47225 5.87194C8.74419 4.21222 10.0521 2.78165 10.9331 1.86639C11.2778 1.50822 11.4502 1.32913 11.6837 1.25129C11.8768 1.18692 12.1232 1.18692 12.3163 1.25129C12.5498 1.32913 12.7221 1.50822 13.0669 1.86639C15.3414 4.22938 20.4615 10.0272 20.4615 14.3354Z" fill="black"/>
</svg>
