<svg width="25" height="24" viewBox="0 0 25 24" fill="none" xmlns="http://www.w3.org/2000/svg">
<path d="M18.8156 12.8996C21.3646 12.8996 23.431 10.8332 23.431 8.28424C23.431 5.93427 20.6382 2.77184 19.3975 1.48294C19.2095 1.28757 19.1155 1.18989 18.9881 1.14743C18.8828 1.11232 18.7484 1.11232 18.6431 1.14743C18.5157 1.18989 18.4217 1.28757 18.2336 1.48294C16.993 2.77184 14.2002 5.93427 14.2002 8.28424C14.2002 10.8332 16.2666 12.8996 18.8156 12.8996Z" fill="black"/>
<path fill-rule="evenodd" clip-rule="evenodd" d="M8.49811 4.27052C8.13484 4.14941 7.71131 4.14941 7.34805 4.27052C6.91157 4.41603 6.60062 4.74372 6.38814 4.96764C6.36776 4.98912 6.34828 5.00964 6.32968 5.02896C5.38154 6.01399 3.82663 7.72829 2.50225 9.66139C1.20992 11.5477 0 13.8345 0 15.9244C0 20.3002 3.54728 23.8475 7.92308 23.8475C12.2989 23.8475 15.8462 20.3002 15.8462 15.9244C15.8462 13.8345 14.6362 11.5477 13.3439 9.66139C12.0195 7.72829 10.4646 6.01399 9.51647 5.02896C9.49788 5.00964 9.4784 4.98912 9.45802 4.96764C9.24554 4.74372 8.93458 4.41603 8.49811 4.27052ZM7.77062 6.41594C7.83184 6.35234 7.88047 6.30185 7.92308 6.25869C7.96568 6.30185 8.01432 6.35234 8.07553 6.41594C8.98836 7.36427 10.4585 8.98846 11.694 10.7918C12.9615 12.6418 13.8462 14.4893 13.8462 15.9244C13.8462 19.1956 11.1943 21.8475 7.92308 21.8475C4.65185 21.8475 2 19.1956 2 15.9244C2 14.4893 2.88468 12.6418 4.15218 10.7918C5.38763 8.98847 6.8578 7.36427 7.77062 6.41594Z" fill="black"/>
</svg>
