<svg width="24" height="24" viewBox="0 0 24 24" fill="none" xmlns="http://www.w3.org/2000/svg">
<path d="M3.79888 2.90578C3.50599 2.61289 3.03112 2.61289 2.73822 2.90578C2.44533 3.19868 2.44533 3.67355 2.73822 3.96644L20.2941 21.5223C20.587 21.8152 21.0618 21.8152 21.3547 21.5223C21.6476 21.2294 21.6476 20.7545 21.3547 20.4616L3.79888 2.90578Z" fill="black"/>
<path d="M3.53845 14.3356C3.53845 12.5583 4.40974 10.5276 5.59313 8.58913L17.6439 20.6399C16.1466 21.9813 14.1685 22.7971 12 22.7971C7.32681 22.7971 3.53845 19.0087 3.53845 14.3356Z" fill="black"/>
<path d="M20.4615 14.3356C20.4615 15.3694 20.2761 16.36 19.9367 17.2758L7.93751 5.27666C9.05628 3.87169 10.1593 2.67035 10.9331 1.8665C11.2778 1.50833 11.4502 1.32925 11.6837 1.2514C11.8768 1.18703 12.1232 1.18703 12.3163 1.2514C12.5498 1.32925 12.7221 1.50833 13.0669 1.8665C15.3414 4.2295 20.4615 10.0273 20.4615 14.3356Z" fill="black"/>
</svg>
