<svg width="24" height="24" viewBox="0 0 24 24" fill="none" xmlns="http://www.w3.org/2000/svg">
<path d="M7.3125 5.21956C7.47043 5.16691 7.67213 5.16694 7.83008 5.21956C8.02105 5.28326 8.1624 5.42959 8.44434 5.72249C10.3054 7.65595 14.4941 12.3998 14.4941 15.9246C14.494 19.748 11.3947 22.8475 7.57129 22.8475C3.74799 22.8474 0.648613 19.7479 0.648438 15.9246C0.648438 12.3998 4.83716 7.656 6.69824 5.72249C6.98014 5.42963 7.12164 5.28332 7.3125 5.21956Z" fill="black"/>
<path d="M18.292 1.14729C18.3972 1.11233 18.5315 1.11223 18.6367 1.14729C18.764 1.1898 18.858 1.28798 19.0459 1.48323C20.2867 2.7723 23.0791 5.93421 23.0791 8.28401C23.079 10.833 21.0128 12.8992 18.4639 12.8992C15.915 12.8992 13.8487 10.8329 13.8486 8.28401C13.8487 5.9343 16.641 2.7724 17.8818 1.48323C18.0699 1.28789 18.1646 1.18976 18.292 1.14729Z" fill="black"/>
</svg>
