<svg width="24" height="24" viewBox="0 0 24 24" fill="none" xmlns="http://www.w3.org/2000/svg">
<path d="M3.79888 2.90567C3.50599 2.61278 3.03112 2.61278 2.73822 2.90567C2.44533 3.19857 2.44533 3.67344 2.73822 3.96634L20.2941 21.5222C20.587 21.8151 21.0618 21.8151 21.3547 21.5222C21.6476 21.2293 21.6476 20.7544 21.3547 20.4615L3.79888 2.90567Z" fill="black"/>
<path d="M2.53845 14.3355C2.53845 12.3727 3.44096 10.2444 4.5985 8.3015L6.06212 9.76511C5.13517 11.4092 4.53845 13.0005 4.53845 14.3355C4.53845 18.4563 7.8791 21.797 12 21.797C13.7119 21.797 15.2891 21.2205 16.5481 20.2511L17.9717 21.6747C16.3431 23.0015 14.2644 23.797 12 23.797C6.77453 23.797 2.53845 19.5609 2.53845 14.3355Z" fill="black"/>
<path d="M8.96389 5.59582L7.54241 4.17433C8.55132 2.94274 9.51591 1.89671 10.2126 1.1729C10.2355 1.14909 10.259 1.12441 10.2832 1.09907C10.5487 0.820278 10.89 0.461782 11.3675 0.302623C11.7658 0.169817 12.2342 0.169816 12.6325 0.302623C13.1099 0.461782 13.4513 0.820278 13.7168 1.09907C13.7409 1.12441 13.7644 1.14909 13.7874 1.17291C14.9423 2.37275 16.8333 4.458 18.4421 6.80625C20.0189 9.10773 21.4615 11.8539 21.4615 14.3355C21.4615 15.4594 21.2655 16.5377 20.9059 17.5378L19.2921 15.924C19.4031 15.4121 19.4615 14.8806 19.4615 14.3355C19.4615 12.5087 18.3441 10.2019 16.7922 7.93663C15.2723 5.71817 13.466 3.72304 12.3464 2.55988C12.1634 2.36975 12.0712 2.27537 12 2.21378C11.9288 2.27537 11.8366 2.36975 11.6536 2.55988C10.9484 3.2925 9.97077 4.35517 8.96389 5.59582Z" fill="black"/>
</svg>
