<svg width="24" height="24" viewBox="0 0 24 24" fill="none" xmlns="http://www.w3.org/2000/svg">
<path d="M3.79888 2.90578C3.50599 2.61289 3.03112 2.61289 2.73822 2.90578C2.44533 3.19867 2.44533 3.67355 2.73822 3.96644L20.2941 21.5223C20.587 21.8152 21.0618 21.8152 21.3547 21.5223C21.6476 21.2294 21.6476 20.7545 21.3547 20.4616L3.79888 2.90578Z" fill="black"/>
<path d="M2.78845 14.3356C2.78845 12.3086 3.78876 10.0736 5.04789 8.04389L6.13938 9.13537C5.03736 10.9728 4.28845 12.8007 4.28845 14.3356C4.28845 18.5945 7.74103 22.0471 12 22.0471C13.9614 22.0471 15.7518 21.3148 17.1127 20.1087L18.175 21.171C16.5413 22.6478 14.3757 23.5471 12 23.5471C6.9126 23.5471 2.78845 19.423 2.78845 14.3356Z" fill="black"/>
<path d="M8.4713 5.81044L7.40385 4.74299C8.52473 3.34103 9.62237 2.14672 10.3927 1.34638L10.4595 1.27672C10.7333 0.990279 11.0315 0.67826 11.4465 0.539897C11.7936 0.424201 12.2064 0.424201 12.5535 0.539897C12.9685 0.67826 13.2667 0.990279 13.5405 1.27672L13.6073 1.34638C14.7578 2.54164 16.6382 4.61563 18.2359 6.94766C19.8095 9.2446 21.2115 11.9359 21.2115 14.3356C21.2115 15.5819 20.964 16.7704 20.5155 17.8546L19.3468 16.6859C19.5837 15.9449 19.7115 15.1552 19.7115 14.3356C19.7115 12.427 18.5535 10.0652 16.9984 7.79544C15.4674 5.56076 13.6506 3.55436 12.5265 2.38662C12.3447 2.19767 12.2432 2.09333 12.1607 2.02235C12.1242 1.99092 12.1027 1.9762 12.0916 1.96943C12.0831 1.96418 12.08 1.9632 12.0792 1.96294C12.0401 1.9499 11.96 1.94986 11.9209 1.9629C11.9201 1.96316 11.9169 1.96418 11.9083 1.96943C11.8973 1.9762 11.8758 1.99092 11.8393 2.02235C11.7568 2.09333 11.6553 2.19767 11.4734 2.38662C10.6962 3.19413 9.58757 4.40268 8.4713 5.81044Z" fill="black"/>
</svg>
