<svg width="24" height="24" viewBox="0 0 24 24" fill="none" xmlns="http://www.w3.org/2000/svg">
<path d="M3.79888 2.90578C3.50599 2.61289 3.03112 2.61289 2.73822 2.90578C2.44533 3.19868 2.44533 3.67355 2.73822 3.96644L20.2941 21.5223C20.587 21.8152 21.0618 21.8152 21.3547 21.5223C21.6476 21.2294 21.6476 20.7545 21.3547 20.4616L3.79888 2.90578Z" fill="black"/>
<path d="M2.53845 14.3356C2.53845 12.3728 3.44096 10.2445 4.5985 8.30161L6.06212 9.76522C5.13517 11.4093 4.53845 13.0006 4.53845 14.3356C4.53845 18.4565 7.8791 21.7971 12 21.7971C13.7119 21.7971 15.2891 21.2206 16.5481 20.2512L17.9717 21.6748C16.3431 23.0016 14.2644 23.7971 12 23.7971C6.77453 23.7971 2.53845 19.561 2.53845 14.3356Z" fill="black"/>
<path d="M8.96389 5.59593L7.54241 4.17444C8.55132 2.94284 9.51591 1.89682 10.2126 1.17301C10.2355 1.1492 10.259 1.12452 10.2832 1.09918C10.5487 0.820385 10.89 0.461889 11.3675 0.30273C11.7658 0.169923 12.2342 0.169923 12.6325 0.30273C13.1099 0.461889 13.4513 0.820384 13.7168 1.09918C13.7409 1.12452 13.7644 1.1492 13.7874 1.17301C14.9423 2.37286 16.8333 4.45811 18.4421 6.80636C20.0189 9.10784 21.4615 11.854 21.4615 14.3356C21.4615 15.4596 21.2655 16.5378 20.9059 17.5379L19.2921 15.9241C19.4031 15.4122 19.4615 14.8807 19.4615 14.3356C19.4615 12.5088 18.3441 10.202 16.7922 7.93673C15.2723 5.71828 13.466 3.72314 12.3464 2.55999C12.1634 2.36985 12.0712 2.27548 12 2.21389C11.9288 2.27548 11.8366 2.36985 11.6536 2.55999C10.9484 3.2926 9.97077 4.35528 8.96389 5.59593Z" fill="black"/>
</svg>
