<svg width="24" height="24" viewBox="0 0 24 24" fill="none" xmlns="http://www.w3.org/2000/svg">
<path fill-rule="evenodd" clip-rule="evenodd" d="M11.4462 0.539898C11.7932 0.424201 12.206 0.424201 12.5531 0.539898C12.9681 0.67826 13.2664 0.990279 13.5401 1.27672C13.5625 1.30015 13.5848 1.32341 13.6069 1.34638C14.7574 2.54164 16.6378 4.61563 18.2355 6.94766C19.8092 9.2446 21.2112 11.9359 21.2112 14.3356C21.2112 19.423 17.087 23.5471 11.9996 23.5471C6.91223 23.5471 2.78809 19.423 2.78809 14.3356C2.78809 11.9359 4.19008 9.2446 5.76374 6.94765C7.36143 4.61563 9.24187 2.54164 10.3924 1.34638C10.4145 1.32341 10.4367 1.30015 10.4591 1.27672C10.7329 0.99028 11.0311 0.678261 11.4462 0.539898ZM12.0787 1.9629C12.0396 1.94987 11.9597 1.94987 11.9206 1.9629C11.9206 1.9629 11.9165 1.96418 11.908 1.96943C11.8969 1.9762 11.8755 1.99092 11.8389 2.02235C11.7564 2.09333 11.6549 2.19767 11.4731 2.38662C10.3491 3.55436 8.53218 5.56076 7.00118 7.79544C5.44615 10.0652 4.28809 12.427 4.28809 14.3356C4.28809 18.5945 7.74066 22.0471 11.9996 22.0471C16.2586 22.0471 19.7112 18.5945 19.7112 14.3356C19.7112 12.427 18.5531 10.0652 16.9981 7.79544C15.4671 5.56076 13.6502 3.55436 12.5262 2.38662C12.3443 2.19767 12.2428 2.09333 12.1603 2.02235C12.1238 1.99092 12.1023 1.9762 12.0913 1.96943C12.0827 1.96418 12.0787 1.9629 12.0787 1.9629Z" fill="black"/>
</svg>
