<svg width="24" height="24" viewBox="0 0 24 24" fill="none" xmlns="http://www.w3.org/2000/svg">
<path d="M3.41875 1.05856C3.97874 -0.0195217 5.52102 -0.0195208 6.08101 1.05856L8.50051 5.71651C9.01918 6.71504 8.29458 7.90794 7.16937 7.90794H2.33039C1.20518 7.90794 0.480579 6.71504 0.999252 5.71651L3.41875 1.05856Z" fill="black"/>
<path d="M5.74988 8.90794V18.1653C5.74988 19.546 6.86917 20.6653 8.24988 20.6653C9.63059 20.6653 10.7499 19.546 10.7499 18.1653V6.9153C10.7499 4.29195 12.8765 2.1653 15.4999 2.1653C18.1232 2.1653 20.2499 4.29195 20.2499 6.9153V14.7653C19.9268 14.6997 19.5923 14.6653 19.2499 14.6653C18.9074 14.6653 18.573 14.6997 18.2499 14.7653V6.9153C18.2499 5.39652 17.0187 4.1653 15.4999 4.1653C13.9811 4.1653 12.7499 5.39652 12.7499 6.9153V18.1653C12.7499 20.6506 10.7352 22.6653 8.24988 22.6653C5.7646 22.6653 3.74988 20.6506 3.74988 18.1653V8.90794H5.74988Z" fill="black"/>
<path d="M19.2499 15.6653C17.0407 15.6653 15.2499 17.4562 15.2499 19.6653C15.2499 21.8744 17.0407 23.6653 19.2499 23.6653C21.459 23.6653 23.2499 21.8744 23.2499 19.6653C23.2499 17.4562 21.459 15.6653 19.2499 15.6653Z" fill="black"/>
</svg>
