<svg width="24" height="24" viewBox="0 0 24 24" fill="none" xmlns="http://www.w3.org/2000/svg">
<path fill-rule="evenodd" clip-rule="evenodd" d="M3.86252 1.28904C4.23585 0.570319 5.26403 0.570319 5.63736 1.28904L8.05686 5.94698C8.40264 6.61267 7.91957 7.40794 7.16943 7.40794L2.33045 7.40794C1.58031 7.40794 1.09724 6.61267 1.44302 5.94698L3.86252 1.28904ZM7.16943 6.40794L4.74994 1.75L2.33044 6.40794H7.16943Z" fill="black"/>
<path d="M5.24994 8.40794V18.1653C5.24994 19.8222 6.59309 21.1653 8.24994 21.1653C9.90679 21.1653 11.2499 19.8222 11.2499 18.1653V6.9153C11.2499 4.56809 13.1527 2.6653 15.4999 2.6653C17.8471 2.6653 19.7499 4.56809 19.7499 6.9153V15.1928C19.5858 15.1746 19.4189 15.1653 19.2499 15.1653C19.0809 15.1653 18.9141 15.1746 18.7499 15.1928V6.9153C18.7499 5.12038 17.2949 3.6653 15.4999 3.6653C13.705 3.6653 12.2499 5.12038 12.2499 6.9153V18.1653C12.2499 20.3744 10.4591 22.1653 8.24994 22.1653C6.0408 22.1653 4.24994 20.3744 4.24994 18.1653V8.40794H5.24994Z" fill="black"/>
<path fill-rule="evenodd" clip-rule="evenodd" d="M19.2499 16.1653C17.3169 16.1653 15.7499 17.7323 15.7499 19.6653C15.7499 21.5983 17.3169 23.1653 19.2499 23.1653C21.1829 23.1653 22.7499 21.5983 22.7499 19.6653C22.7499 17.7323 21.1829 16.1653 19.2499 16.1653ZM16.7499 19.6653C16.7499 18.2846 17.8692 17.1653 19.2499 17.1653C20.6307 17.1653 21.7499 18.2846 21.7499 19.6653C21.7499 21.046 20.6307 22.1653 19.2499 22.1653C17.8692 22.1653 16.7499 21.046 16.7499 19.6653Z" fill="black"/>
</svg>
