<svg width="24" height="24" viewBox="0 0 24 24" fill="none" xmlns="http://www.w3.org/2000/svg">
<path d="M4.08452 1.40428C4.36452 0.865239 5.13566 0.86524 5.41566 1.40428L7.83515 6.06222C8.09449 6.56149 7.73219 7.15794 7.16958 7.15794L2.3306 7.15794C1.768 7.15794 1.40569 6.56149 1.66503 6.06222L4.08452 1.40428Z" fill="black"/>
<path d="M5.00009 7.90794V18.1653C5.00009 19.9602 6.45517 21.4153 8.25009 21.4153C10.045 21.4153 11.5001 19.9602 11.5001 18.1653V6.9153C11.5001 4.70616 13.291 2.9153 15.5001 2.9153C17.7092 2.9153 19.5001 4.70616 19.5001 6.9153V15.673C19.4174 15.6679 19.3341 15.6653 19.2501 15.6653C19.1661 15.6653 19.0828 15.6679 19.0001 15.673V6.9153C19.0001 4.98231 17.4331 3.4153 15.5001 3.4153C13.5671 3.4153 12.0001 4.98231 12.0001 6.9153V18.1653C12.0001 20.2364 10.3212 21.9153 8.25009 21.9153C6.17902 21.9153 4.50009 20.2364 4.50009 18.1653V7.90794H5.00009Z" fill="black"/>
<path d="M19.2501 16.4153C17.4552 16.4153 16.0001 17.8704 16.0001 19.6653C16.0001 21.4602 17.4552 22.9153 19.2501 22.9153C21.045 22.9153 22.5001 21.4602 22.5001 19.6653C22.5001 17.8704 21.045 16.4153 19.2501 16.4153Z" fill="black"/>
</svg>
