<svg width="24" height="24" viewBox="0 0 24 24" fill="none" xmlns="http://www.w3.org/2000/svg">
<path fill-rule="evenodd" clip-rule="evenodd" d="M7.5521 7.73526C8.5877 5.93847 10.529 4.7273 12.7539 4.72729C15.7338 4.72729 18.2058 6.89921 18.6741 9.74666C20.9624 9.95855 22.7539 11.8837 22.7539 14.2273C22.7539 16.7126 20.7392 18.7273 18.2539 18.7273H15.5957C15.6043 18.7083 15.6127 18.6892 15.6207 18.6698C15.7469 18.3652 15.7818 18.0392 15.7325 17.7273H18.2539C20.1869 17.7273 21.7539 16.1603 21.7539 14.2273C21.7539 12.2943 20.1869 10.7273 18.2539 10.7273C17.9797 10.7274 17.7567 10.5177 17.7316 10.2518C17.4925 7.71368 15.3549 5.72729 12.7539 5.72729C10.856 5.7273 9.20432 6.78453 8.35696 8.34456C8.21204 8.61137 7.92335 8.76649 7.62227 8.74213C7.50088 8.73231 7.37803 8.7273 7.25391 8.7273C4.76863 8.7273 2.75391 10.742 2.75391 13.2273C2.75391 15.7126 4.76862 17.7273 7.25391 17.7273H9.27522C9.22144 18.068 9.27 18.4161 9.41209 18.7273H7.25391C4.21634 18.7273 1.75391 16.2649 1.75391 13.2273C1.75391 10.1897 4.21634 7.7273 7.25391 7.7273C7.35391 7.7273 7.45333 7.72997 7.5521 7.73526ZM18.2539 9.7273L18.2524 9.7273L18.2538 10.2026L18.2539 9.7273Z" fill="black"/>
<path d="M10.8575 14.1465C10.6622 13.9513 10.3456 13.9513 10.1504 14.1465C9.95509 14.3418 9.95509 14.6584 10.1504 14.8536L12.7968 17.5001H11.0039C10.8017 17.5001 10.6194 17.6219 10.542 17.8087C10.4646 17.9956 10.5074 18.2106 10.6504 18.3536L14.1504 21.8536C14.3456 22.0489 14.6622 22.0489 14.8575 21.8536C15.0527 21.6584 15.0527 21.3418 14.8575 21.1465L12.211 18.5001H14.0039C14.2061 18.5001 14.3885 18.3783 14.4658 18.1914C14.5432 18.0046 14.5005 17.7895 14.3575 17.6465L10.8575 14.1465Z" fill="black"/>
</svg>
