<svg width="24" height="24" viewBox="0 0 24 24" fill="none" xmlns="http://www.w3.org/2000/svg">
<path fill-rule="evenodd" clip-rule="evenodd" d="M2.86129 10.1408C1.86392 11.2121 1.2538 12.6489 1.2538 14.2281C1.2538 17.1998 3.41416 19.6668 6.25 20.1445V18.1011C4.52671 17.6557 3.2538 16.0906 3.2538 14.2281C3.2538 12.0189 5.04466 10.2281 7.2538 10.2281C7.36446 10.2281 7.47386 10.2326 7.58185 10.2413C8.07935 10.2815 8.55651 10.0253 8.79623 9.58401C9.55962 8.17857 11.0464 7.22809 12.7538 7.22809C15.0944 7.22809 17.0186 9.01577 17.2337 11.2995C17.2826 11.8187 17.7181 12.2282 18.2538 12.2281C19.9107 12.2281 21.2538 13.5712 21.2538 15.2281C21.2538 16.8849 19.9107 18.2281 18.2538 18.2281H17.25V20.2281H18.2538C21.0152 20.2281 23.2538 17.9895 23.2538 15.2281C23.2538 12.7537 21.4564 10.6991 19.096 10.2987C18.4444 7.39612 15.8528 5.22809 12.7538 5.22809C12.2591 5.22809 11.7773 5.28337 11.3143 5.38807C11.2761 3.48736 10.2729 1.82407 8.77923 0.867078L8.74867 0.847183C8.63808 0.774711 8.40844 0.624227 8.14029 0.56311C7.39014 0.392135 6.63192 0.816778 6.38578 1.54572C6.31874 1.74428 6.31342 1.93835 6.31135 2.03074C6.30892 2.13947 6.3116 2.27307 6.31438 2.41094L6.31474 2.4289C6.31522 2.45283 6.31546 2.47682 6.31546 2.50089C6.31546 4.43388 4.74846 6.00089 2.81546 6.00089C2.79139 6.00089 2.7674 6.00064 2.74348 6.00017L2.72555 5.9998C2.58769 5.99703 2.45405 5.99434 2.34531 5.99678C2.25293 5.99885 2.05886 6.00416 1.8603 6.07121C1.13135 6.31735 0.706711 7.07557 0.877685 7.82571C0.938802 8.09386 1.08928 8.3235 1.16176 8.4341L1.18165 8.46466C1.61259 9.13727 2.18674 9.71041 2.86129 10.1408ZM4.67255 8.81017C4.16614 8.63538 3.71218 8.34751 3.3408 7.97612C5.95903 7.72802 8.0426 5.64446 8.2907 3.02622C8.92482 3.66035 9.31546 4.53519 9.31546 5.50089C9.31546 5.76302 9.28664 6.01843 9.232 6.2641C8.44732 6.77094 7.77901 7.44201 7.27577 8.22813L7.2538 8.22809C6.32971 8.22809 5.45441 8.437 4.67255 8.81017ZM18.2509 10.2281L18.2538 10.2281V11.2034L18.2509 10.2281Z" fill="black"/>
<path d="M8.25 12.7281C8.80229 12.7281 9.25 13.1758 9.25 13.7281V20.7281C9.25 21.2803 8.80229 21.7281 8.25 21.7281C7.69772 21.7281 7.25 21.2803 7.25 20.7281L7.25 13.7281C7.25 13.1758 7.69772 12.7281 8.25 12.7281Z" fill="black"/>
<path d="M11.75 14.7281C12.3023 14.7281 12.75 15.1758 12.75 15.7281L12.75 22.7281C12.75 23.2803 12.3023 23.7281 11.75 23.7281C11.1977 23.7281 10.75 23.2803 10.75 22.7281V15.7281C10.75 15.1758 11.1977 14.7281 11.75 14.7281Z" fill="black"/>
<path d="M16.25 13.7281C16.25 13.1758 15.8023 12.7281 15.25 12.7281C14.6977 12.7281 14.25 13.1758 14.25 13.7281V20.7281C14.25 21.2803 14.6977 21.7281 15.25 21.7281C15.8023 21.7281 16.25 21.2803 16.25 20.7281L16.25 13.7281Z" fill="black"/>
</svg>
