<svg width="24" height="24" viewBox="0 0 24 24" fill="none" xmlns="http://www.w3.org/2000/svg">
<path d="M0.25 8.00024C0.25 7.58603 0.585787 7.25024 1 7.25024H2.23529C2.64951 7.25024 2.98529 7.58603 2.98529 8.00025C2.98529 8.41446 2.64951 8.75024 2.23529 8.75024H1C0.585786 8.75024 0.25 8.41446 0.25 8.00024Z" fill="black"/>
<path d="M8 0.250244C8.41421 0.250244 8.75 0.586031 8.75 1.00024V2.23554C8.75 2.64975 8.41421 2.98554 8 2.98554C7.58579 2.98554 7.25 2.64975 7.25 2.23554V1.00024C7.25 0.586031 7.58579 0.250244 8 0.250244Z" fill="black"/>
<path d="M13.4802 3.58085C13.773 3.28796 13.773 2.81309 13.4802 2.52019C13.1873 2.2273 12.7124 2.2273 12.4195 2.52019L11.546 3.39368C11.2531 3.68657 11.2531 4.16145 11.546 4.45434C11.8389 4.74723 12.3138 4.74723 12.6067 4.45434L13.4802 3.58085Z" fill="black"/>
<path fill-rule="evenodd" clip-rule="evenodd" d="M11.5088 5.60148C10.7432 4.48365 9.45723 3.75024 8 3.75024C5.65279 3.75024 3.75 5.65303 3.75 8.00024C3.75 8.51941 3.84309 9.01684 4.01349 9.47675C2.49829 10.5122 1.50383 12.2537 1.50383 14.2274C1.50383 17.1476 3.68061 19.5593 6.50003 19.9285V18.4108C4.5124 18.055 3.00383 16.3174 3.00383 14.2274C3.00383 11.8802 4.90662 9.97744 7.25383 9.97744C7.37122 9.97744 7.48734 9.98218 7.60204 9.99146C8.00133 10.0238 8.38425 9.8181 8.57657 9.46403C9.38194 7.9813 10.9512 6.97744 12.7538 6.97744C15.2246 6.97744 17.2555 8.86447 17.4827 11.2754C17.5196 11.668 17.8489 11.9775 18.2538 11.9774C20.0487 11.9775 21.5038 13.4325 21.5038 15.2274C21.5038 17.0224 20.0488 18.4774 18.2538 18.4774H17V19.9774H18.2538C20.8772 19.9774 23.0038 17.8508 23.0038 15.2274C23.0038 12.8188 21.211 10.8289 18.887 10.5193C18.3239 7.64536 15.7924 5.47744 12.7538 5.47744C12.3275 5.47744 11.9111 5.52014 11.5088 5.60148ZM5.3664 8.79438C5.29069 8.54295 5.25 8.27635 5.25 8.00024C5.25 6.48146 6.48122 5.25024 8 5.25024C8.78889 5.25024 9.5002 5.58243 10.0017 6.11455C8.92962 6.64125 8.03075 7.46588 7.41305 8.4796C7.36013 8.47816 7.30705 8.47744 7.25383 8.47744C6.59269 8.47744 5.95761 8.58902 5.3664 8.79438ZM18.2516 10.4774L18.2538 10.4774V11.2028L18.2516 10.4774Z" fill="black"/>
<path d="M2.51985 2.52019C2.81274 2.2273 3.28762 2.2273 3.58051 2.52019L4.45399 3.39368C4.74689 3.68657 4.74689 4.16145 4.45399 4.45434C4.1611 4.74723 3.68623 4.74723 3.39333 4.45434L2.51985 3.58085C2.22695 3.28796 2.22696 2.81309 2.51985 2.52019Z" fill="black"/>
<path d="M8.25003 12.9774C8.66424 12.9774 9.00003 13.3132 9.00003 13.7274L9.00003 20.7274C9.00003 21.1416 8.66424 21.4774 8.25003 21.4774C7.83581 21.4774 7.50003 21.1416 7.50003 20.7274L7.50003 13.7274C7.50003 13.3132 7.83581 12.9774 8.25003 12.9774Z" fill="black"/>
<path d="M11.75 14.9774C12.1642 14.9774 12.5 15.3132 12.5 15.7274L12.5 22.7274C12.5 23.1416 12.1642 23.4774 11.75 23.4774C11.3358 23.4774 11 23.1416 11 22.7274L11 15.7274C11 15.3132 11.3358 14.9774 11.75 14.9774Z" fill="black"/>
<path d="M16 13.7274C16 13.3132 15.6642 12.9774 15.25 12.9774C14.8358 12.9774 14.5 13.3132 14.5 13.7274V20.7274C14.5 21.1416 14.8358 21.4774 15.25 21.4774C15.6642 21.4774 16 21.1416 16 20.7274L16 13.7274Z" fill="black"/>
</svg>
