<svg width="24" height="24" viewBox="0 0 24 24" fill="none" xmlns="http://www.w3.org/2000/svg">
<path d="M10.5655 4.4995C10.5655 4.60593 10.562 4.71155 10.5551 4.81624C9.05716 5.29259 7.77107 6.24232 6.87218 7.48731C5.61735 7.55726 4.45402 7.96995 3.47425 8.63331C2.70902 8.19896 2.07634 7.55833 1.65184 6.7873C1.49798 6.50785 1.56621 6.2165 1.73656 6.01791C1.90135 5.82579 2.16638 5.70962 2.44622 5.73369C2.56787 5.74415 2.69105 5.7495 2.81554 5.7495C5.16275 5.7495 7.06554 3.84671 7.06554 1.4995C7.06554 1.37501 7.06019 1.25183 7.04973 1.13018C7.02566 0.850342 7.14184 0.58531 7.33395 0.420515C7.53254 0.25017 7.82389 0.181939 8.10334 0.335797C9.57052 1.14358 10.5655 2.70516 10.5655 4.4995Z" fill="black"/>
<path fill-rule="evenodd" clip-rule="evenodd" d="M7.75117 8.89007C8.7394 7.1508 10.6094 5.97669 12.7539 5.97669C15.677 5.97669 18.0904 8.15774 18.456 10.9814C20.7094 11.0869 22.5039 12.9472 22.5039 15.2267C22.5039 17.5739 20.6011 19.4767 18.2539 19.4767H16.2028C16.3633 18.7378 16.1422 17.9559 15.5949 17.4085L12.0949 13.9085C11.2162 13.0298 9.79158 13.0298 8.9129 13.9085C8.03422 14.7872 8.03422 16.2118 8.9129 17.0905L9.32445 17.502C9.15945 17.687 9.02348 17.9011 8.92516 18.1384C8.74583 18.5714 8.70988 19.038 8.80508 19.4767H7.25388C4.35438 19.4767 2.00388 17.1262 2.00388 14.2267C2.00388 11.3272 4.35438 8.97669 7.25388 8.97669C7.36096 8.97669 7.46733 8.9799 7.57288 8.98623C7.62953 8.98963 7.66204 8.99149 7.68571 8.99163L7.69151 8.99162L7.69457 8.98693C7.70726 8.96718 7.72329 8.93915 7.75117 8.89007Z" fill="black"/>
<path d="M9.79677 14.7924C10.1873 14.4018 10.8205 14.4018 11.211 14.7924L14.711 18.2924C14.997 18.5784 15.0825 19.0085 14.9278 19.3822C14.773 19.7558 14.4083 19.9995 14.0039 19.9995H13.4181L15.211 21.7924C15.6015 22.1829 15.6015 22.8161 15.211 23.2066C14.8205 23.5971 14.1873 23.5971 13.7968 23.2066L10.2968 19.7066C10.0108 19.4206 9.92522 18.9905 10.08 18.6168C10.2348 18.2431 10.5994 17.9995 11.0039 17.9995H11.5897L9.79677 16.2066C9.40625 15.8161 9.40625 15.1829 9.79677 14.7924Z" fill="black"/>
</svg>
