<svg width="24" height="24" viewBox="0 0 24 24" fill="none" xmlns="http://www.w3.org/2000/svg">
<path fill-rule="evenodd" clip-rule="evenodd" d="M7.41313 7.47873C8.5092 5.67995 10.4905 4.47656 12.7539 4.47656C15.7925 4.47656 18.324 6.64449 18.8871 9.5184C21.2111 9.82798 23.0039 11.8179 23.0039 14.2266C23.0039 16.8499 20.8773 18.9766 18.2539 18.9766L15.4558 18.9766C15.52 18.881 15.5755 18.7782 15.6207 18.6691C15.7811 18.2819 15.794 17.8601 15.674 17.4766L18.2539 17.4766C20.0488 17.4766 21.5039 16.0215 21.5039 14.2266C21.5039 12.4317 20.0489 10.9766 18.254 10.9766C17.8491 10.9766 17.5197 10.6671 17.4827 10.2746C17.2556 7.8636 15.2247 5.97656 12.7539 5.97656C10.9513 5.97656 9.38202 6.98042 8.57665 8.46316C8.38433 8.81723 8.0014 9.02288 7.60212 8.99058C7.48742 8.98131 7.3713 8.97656 7.25391 8.97656C4.9067 8.97656 3.00391 10.8794 3.00391 13.2266C3.00391 15.5738 4.9067 17.4766 7.25391 17.4766L9.3338 17.4766C9.17406 17.9863 9.25722 18.5386 9.55208 18.9766H7.25391C4.07827 18.9766 1.50391 16.4022 1.50391 13.2266C1.50391 10.0509 4.07827 7.47656 7.25391 7.47656C7.30713 7.47656 7.36021 7.47729 7.41313 7.47873ZM18.2539 9.47656L18.2517 9.47657L18.2538 10.2019L18.2539 9.47656Z" fill="black"/>
<path d="M11.0342 13.969C10.7413 13.6761 10.2665 13.6761 9.97358 13.969C9.68069 14.2619 9.68069 14.7368 9.97358 15.0297L12.1932 17.2494H11.0039C10.7006 17.2494 10.4271 17.4321 10.311 17.7123C10.1949 17.9926 10.2591 18.3152 10.4736 18.5297L13.9736 22.0297C14.2665 22.3226 14.7413 22.3226 15.0342 22.0297C15.3271 21.7368 15.3271 21.2619 15.0342 20.969L12.8146 18.7494H14.0039C14.3073 18.7494 14.5807 18.5666 14.6968 18.2864C14.8129 18.0061 14.7487 17.6835 14.5342 17.469L11.0342 13.969Z" fill="black"/>
</svg>
