<svg width="24" height="24" viewBox="0 0 24 24" fill="none" xmlns="http://www.w3.org/2000/svg">
<path d="M8.5093 1.28727C9.62894 2.00461 10.4447 3.15737 10.7167 4.50729C9.1046 4.96134 7.71362 5.94059 6.73946 7.24585C5.06704 7.36726 3.55759 8.07622 2.41656 9.16729C2.10585 8.87922 1.83188 8.55221 1.60246 8.19412L1.58105 8.1609C1.50293 8.04002 1.40469 7.88801 1.36498 7.71379C1.25101 7.21375 1.53415 6.70819 2.02006 6.54412C2.14002 6.50361 2.26658 6.49785 2.35631 6.49584C2.45411 6.49365 2.57811 6.49614 2.72227 6.49903L2.73325 6.49925C2.76051 6.4998 2.78785 6.50008 2.81526 6.50008C5.0244 6.50008 6.81526 4.70921 6.81526 2.50008C6.81526 2.47267 6.81499 2.44533 6.81444 2.41806L6.81422 2.40719C6.81133 2.26299 6.80883 2.13895 6.81103 2.04113C6.81304 1.95139 6.8188 1.82483 6.85931 1.70488C7.02338 1.21896 7.52893 0.935829 8.02897 1.0498C8.2032 1.08951 8.3552 1.18774 8.47609 1.26587L8.5093 1.28727Z" fill="black"/>
<path d="M6.58368 13.6032C6.92832 13.3734 7.39397 13.4665 7.62375 13.8112L9.12378 16.061C9.35356 16.4057 9.26044 16.8713 8.9158 17.1011C8.57116 17.3309 8.10551 17.2378 7.87573 16.8931L6.3757 14.6433C6.14593 14.2986 6.23904 13.833 6.58368 13.6032Z" fill="black"/>
<path fill-rule="evenodd" clip-rule="evenodd" d="M7.55179 8.7352C8.58731 6.93849 10.5287 5.72724 12.7536 5.72724C15.7334 5.72724 18.2055 7.89916 18.6738 10.7466C20.9621 10.9585 22.7536 12.8836 22.7536 15.2272C22.7536 16.5129 22.2144 17.6726 21.3499 18.4927L19.0004 14.5769C18.5031 13.7481 17.4282 13.4794 16.5994 13.9766C15.7707 14.4739 15.5019 15.5489 15.9992 16.3776L18.0089 19.7272H16.6769C16.8209 19.2441 16.7509 18.7151 16.4718 18.281L14.2218 14.781C13.6992 13.968 12.6164 13.7326 11.8034 14.2553C10.9904 14.7779 10.7551 15.8607 11.2777 16.6737L11.7944 17.4773H11.7498C11.1158 17.4773 10.5314 17.8202 10.2221 18.3737C9.98852 18.7917 9.93949 19.2804 10.0726 19.7272H7.2536C4.21603 19.7272 1.7536 17.2648 1.7536 14.2272C1.7536 11.1897 4.21603 8.72724 7.2536 8.72724C7.3536 8.72724 7.45302 8.72992 7.55179 8.7352ZM18.2536 10.7272L18.2521 10.7272L18.2535 11.2026L18.2536 10.7272ZM8.45578 13.2565C7.91964 12.4523 6.83311 12.2351 6.02895 12.7712C5.22479 13.3073 5.00753 14.3939 5.54367 15.198L7.0437 17.4479C7.57985 18.2521 8.66637 18.4693 9.47053 17.9332C10.2747 17.397 10.492 16.3105 9.95581 15.5064L8.45578 13.2565Z" fill="black"/>
<path d="M12.3442 15.0964C12.6926 14.8724 13.1567 14.9733 13.3807 15.3217L15.6307 18.8217C15.779 19.0525 15.7895 19.3459 15.6581 19.5867C15.5266 19.8275 15.2741 19.9773 14.9998 19.9773H13.092L14.3885 22.0841C14.6056 22.4369 14.4956 22.8988 14.1429 23.1159C13.7901 23.333 13.3281 23.223 13.111 22.8703L11.111 19.6204C10.9686 19.389 10.9625 19.0987 11.0951 18.8615C11.2276 18.6243 11.4781 18.4773 11.7498 18.4773H13.626L12.1189 16.1329C11.8949 15.7844 11.9958 15.3204 12.3442 15.0964Z" fill="black"/>
<path d="M18.1429 15.0913C17.9298 14.7362 17.4691 14.621 17.1139 14.8341C16.7587 15.0472 16.6436 15.5079 16.8567 15.8631L19.6678 20.5482C19.8809 20.9034 20.3416 21.0186 20.6968 20.8055C21.0519 20.5924 21.1671 20.1317 20.954 19.7765L18.1429 15.0913Z" fill="black"/>
</svg>
