<svg width="24" height="24" viewBox="0 0 24 24" fill="none" xmlns="http://www.w3.org/2000/svg">
<path d="M0.25 8C0.25 7.58579 0.585788 7.25 1 7.25H2.2353C2.64951 7.25 2.9853 7.58579 2.9853 8C2.9853 8.41421 2.64951 8.75 2.2353 8.75H1C0.585788 8.75 0.25 8.41421 0.25 8Z" fill="black"/>
<path d="M8 0.25C8.41422 0.25 8.75 0.585787 8.75 1V2.23529C8.75 2.64951 8.41422 2.98529 8 2.98529C7.58579 2.98529 7.25 2.64951 7.25 2.23529L7.25 1C7.25 0.585787 7.58579 0.25 8 0.25Z" fill="black"/>
<path fill-rule="evenodd" clip-rule="evenodd" d="M11.9866 6.52383C11.3867 4.90429 9.82817 3.75 8 3.75C5.65279 3.75 3.75 5.65279 3.75 8C3.75 8.8225 3.98365 9.59043 4.38819 10.241C2.66434 11.2339 1.50381 13.095 1.50381 15.2272C1.50381 18.4028 4.07818 20.9772 7.25381 20.9772L18.2538 20.9772C20.8772 20.9772 23.0038 18.8505 23.0038 16.2272C23.0038 13.8185 21.211 11.8286 18.887 11.519C18.3239 8.64512 15.7924 6.4772 12.7538 6.4772C12.4941 6.4772 12.238 6.49305 11.9866 6.52383ZM5.80777 9.66055C5.45772 9.19915 5.25 8.62383 5.25 8C5.25 6.48122 6.48122 5.25 8 5.25C9.12365 5.25 10.0899 5.92391 10.5166 6.8896C9.21744 7.38787 8.12728 8.3072 7.41303 9.47936C7.36012 9.47792 7.30704 9.4772 7.25381 9.4772C6.75437 9.4772 6.26979 9.54088 5.80777 9.66055ZM18.2516 11.4772L18.2538 11.4772V12.2025L18.2516 11.4772ZM21.5038 16.2272C21.5038 14.4323 20.0488 12.9773 18.2539 12.9772C17.849 12.9773 17.5196 12.6677 17.4826 12.2752C17.2555 9.86423 15.2246 7.9772 12.7538 7.9772C10.9512 7.9772 9.38193 8.98106 8.57656 10.4638C8.38424 10.8179 8.00131 11.0235 7.60202 10.9912C7.48733 10.9819 7.3712 10.9772 7.25381 10.9772C4.9066 10.9772 3.00381 12.88 3.00381 15.2272C3.00381 17.5744 4.9066 19.4772 7.25381 19.4772H18.2538C20.0487 19.4772 21.5038 18.0221 21.5038 16.2272Z" fill="black"/>
<path d="M13.4802 3.58061C13.773 3.28772 13.773 2.81284 13.4802 2.51995C13.1873 2.22706 12.7124 2.22706 12.4195 2.51995L11.546 3.39343C11.2531 3.68633 11.2531 4.1612 11.546 4.45409C11.8389 4.74699 12.3138 4.74699 12.6067 4.45409L13.4802 3.58061Z" fill="black"/>
<path d="M2.51985 2.51995C2.81274 2.22705 3.28762 2.22705 3.58051 2.51995L4.454 3.39343C4.74689 3.68633 4.74689 4.1612 4.454 4.45409C4.1611 4.74699 3.68623 4.74699 3.39333 4.45409L2.51985 3.58061C2.22696 3.28772 2.22696 2.81284 2.51985 2.51995Z" fill="black"/>
</svg>
