<svg width="24" height="24" viewBox="0 0 24 24" fill="none" xmlns="http://www.w3.org/2000/svg">
<path d="M1.5 13.7502C1.36193 13.7502 1.25 13.8622 1.25 14.0002C1.25 14.1383 1.36193 14.2502 1.5 14.2502H22.4999C22.638 14.2502 22.7499 14.1383 22.7499 14.0002C22.7499 13.8622 22.638 13.7502 22.4999 13.7502L16.4051 13.7502C16.2755 11.4298 14.3528 9.58808 11.9999 9.58808C9.64707 9.58808 7.72436 11.4298 7.59475 13.7502L1.5 13.7502Z" fill="black"/>
<path d="M11.9999 3.25024C12.138 3.25024 12.2499 3.36217 12.2499 3.50024V6.35318C12.2499 6.49125 12.138 6.60318 11.9999 6.60318C11.8619 6.60318 11.7499 6.49125 11.7499 6.35318V3.50024C11.7499 3.36217 11.8619 3.25024 11.9999 3.25024Z" fill="black"/>
<path d="M19.6014 6.75249C19.699 6.65486 19.699 6.49657 19.6014 6.39893C19.5038 6.3013 19.3455 6.3013 19.2479 6.39893L17.9376 7.70915C17.84 7.80679 17.84 7.96508 17.9376 8.06271C18.0353 8.16034 18.1936 8.16034 18.2912 8.06271L19.6014 6.75249Z" fill="black"/>
<path d="M4.39846 6.39893C4.49609 6.3013 4.65439 6.3013 4.75202 6.39893L6.06224 7.70916C6.15987 7.80679 6.15987 7.96508 6.06224 8.06271C5.96461 8.16034 5.80632 8.16034 5.70868 8.06271L4.39846 6.75249C4.30083 6.65486 4.30083 6.49657 4.39846 6.39893Z" fill="black"/>
<path d="M8.97313 17.8235C9.07076 17.7258 9.22905 17.7258 9.32668 17.8235L11.7499 20.2467V15.0003C11.7499 14.8622 11.8618 14.7503 11.9999 14.7503C12.138 14.7503 12.2499 14.8622 12.2499 15.0003V20.2035L14.63 17.8235C14.7276 17.7258 14.8859 17.7258 14.9835 17.8235C15.0812 17.9211 15.0812 18.0794 14.9835 18.177L12.1551 21.0055C12.0575 21.1031 11.8992 21.1031 11.8016 21.0055L8.97313 18.177C8.87549 18.0794 8.87549 17.9211 8.97313 17.8235Z" fill="black"/>
</svg>
