<svg width="24" height="24" viewBox="0 0 24 24" fill="none" xmlns="http://www.w3.org/2000/svg">
<path d="M8.50955 1.28801C9.62918 2.00534 10.4449 3.1581 10.7169 4.50802C9.10484 4.96207 7.71386 5.94133 6.7397 7.24658C5.06729 7.36799 3.55784 8.07695 2.4168 9.16802C2.10609 8.87995 1.83213 8.55294 1.6027 8.19485L1.5813 8.16164C1.50317 8.04075 1.40494 7.88875 1.36523 7.71452C1.25126 7.21448 1.53439 6.70893 2.0203 6.54485C2.14026 6.50435 2.26682 6.49858 2.35656 6.49657C2.45435 6.49438 2.57836 6.49687 2.72252 6.49977L2.73349 6.49999C2.76076 6.50053 2.78809 6.50081 2.81551 6.50081C5.02464 6.50081 6.81551 4.70995 6.81551 2.50081C6.81551 2.4734 6.81523 2.44606 6.81468 2.41879L6.81447 2.40792C6.81157 2.26372 6.80908 2.13968 6.81127 2.04186C6.81328 1.95212 6.81904 1.82556 6.85955 1.70561C7.02362 1.2197 7.52918 0.936561 8.02922 1.05053C8.20344 1.09024 8.35544 1.18847 8.47633 1.2666L8.50955 1.28801Z" fill="black"/>
<path d="M6.58392 13.6039C6.92856 13.3741 7.39422 13.4673 7.62399 13.8119L9.12402 16.0618C9.3538 16.4064 9.26069 16.8721 8.91605 17.1019C8.57141 17.3316 8.10575 17.2385 7.87598 16.8939L6.37595 14.644C6.14617 14.2994 6.23928 13.8337 6.58392 13.6039Z" fill="black"/>
<path fill-rule="evenodd" clip-rule="evenodd" d="M7.55204 8.73594C8.58755 6.93923 10.5289 5.72797 12.7538 5.72797C15.7337 5.72798 18.2057 7.89989 18.674 10.7473C20.9623 10.9592 22.7538 12.8844 22.7538 15.228C22.7538 16.5136 22.2147 17.6734 21.3501 18.4934L19.0006 14.5776C18.5034 13.7489 17.4284 13.4801 16.5997 13.9774C15.7709 14.4746 15.5022 15.5496 15.9994 16.3784L18.0092 19.728H16.6771C16.8212 19.2448 16.7511 18.7158 16.4721 18.2817L14.2221 14.7817C13.6994 13.9687 12.6167 13.7334 11.8037 14.256C10.9907 14.7787 10.7553 15.8614 11.278 16.6744L11.7946 17.4781H11.75C11.116 17.4781 10.5316 17.821 10.2223 18.3744C9.98876 18.7924 9.93974 19.2812 10.0729 19.728H7.25384C4.21628 19.728 1.75384 17.2655 1.75384 14.228C1.75384 11.1904 4.21628 8.72798 7.25384 8.72798C7.35384 8.72798 7.45326 8.73065 7.55204 8.73594ZM18.2538 10.728L18.2524 10.728L18.2538 11.2033L18.2538 10.728ZM8.45602 13.2572C7.91988 12.4531 6.83335 12.2358 6.02919 12.7719C5.22504 13.3081 5.00777 14.3946 5.54392 15.1988L7.04395 17.4486C7.58009 18.2528 8.66662 18.4701 9.47078 17.9339C10.2749 17.3978 10.4922 16.3112 9.95606 15.5071L8.45602 13.2572Z" fill="black"/>
<path d="M12.3444 15.0972C12.6929 14.8732 13.1569 14.974 13.3809 15.3225L15.6309 18.8225C15.7793 19.0532 15.7898 19.3466 15.6583 19.5874C15.5268 19.8282 15.2744 19.978 15 19.978H13.0922L14.3888 22.0848C14.6058 22.4376 14.4959 22.8996 14.1431 23.1167C13.7903 23.3337 13.3284 23.2238 13.1113 22.871L11.1113 19.6211C10.9689 19.3897 10.9628 19.0994 11.0953 18.8622C11.2278 18.625 11.4783 18.478 11.75 18.478H13.6263L12.1191 16.1336C11.8951 15.7852 11.996 15.3211 12.3444 15.0972Z" fill="black"/>
<path d="M18.1432 15.0921C17.93 14.7369 17.4693 14.6217 17.1142 14.8348C16.759 15.0479 16.6438 15.5086 16.8569 15.8638L19.668 20.549C19.8811 20.9042 20.3418 21.0193 20.697 20.8062C21.0522 20.5931 21.1674 20.1324 20.9542 19.7772L18.1432 15.0921Z" fill="black"/>
</svg>
