<svg width="24" height="24" viewBox="0 0 24 24" fill="none" xmlns="http://www.w3.org/2000/svg">
<path fill-rule="evenodd" clip-rule="evenodd" d="M2.67032 10.164C1.71115 11.2452 1.1287 12.6681 1.1287 14.2271C1.1287 17.6099 3.87096 20.3521 7.2537 20.3521H8.90083C8.4748 19.6897 8.38099 18.8541 8.67047 18.1021H7.2537C5.1136 18.1021 3.3787 16.3672 3.3787 14.2271C3.3787 12.087 5.1136 10.3521 7.2537 10.3521C7.36099 10.3521 7.46702 10.3565 7.57167 10.3649C8.11828 10.4091 8.64255 10.1277 8.90597 9.64271C9.64836 8.27592 11.094 7.35213 12.7537 7.35213C15.0292 7.35213 16.9 9.09014 17.1092 11.3103C17.1641 11.8928 17.6526 12.3522 18.2537 12.3521C19.8415 12.3521 21.1287 13.6393 21.1287 15.2271C21.1287 16.8149 19.8415 18.1021 18.2537 18.1021H16.337C16.5626 18.6888 16.5637 19.3523 16.3134 19.9566C16.2557 20.096 16.1863 20.2282 16.1066 20.3521H18.2537C21.0842 20.3521 23.3787 18.0576 23.3787 15.2271C23.3787 12.7196 21.5779 10.6327 19.1991 10.1891C18.5052 7.27152 15.8833 5.10213 12.7537 5.10213C12.3018 5.10213 11.8605 5.14739 11.4342 5.23359C11.3464 3.35267 10.3343 1.71403 8.84657 0.760871L8.81782 0.742099C8.70983 0.671061 8.46028 0.506904 8.16796 0.440278C7.35529 0.255054 6.5339 0.715074 6.26725 1.50478C6.19357 1.72299 6.18836 1.93393 6.18628 2.02698C6.18378 2.13847 6.18652 2.27452 6.18927 2.41111L6.18966 2.43045C6.19013 2.45354 6.19036 2.4767 6.19036 2.49993C6.19036 4.36389 4.67932 5.87493 2.81536 5.87493C2.79213 5.87493 2.76897 5.8747 2.74588 5.87423L2.72654 5.87384C2.58999 5.87109 2.45387 5.86835 2.34241 5.87085C2.24936 5.87294 2.03842 5.87814 1.82021 5.95182C1.0305 6.21847 0.570483 7.03986 0.755708 7.85253C0.822334 8.14485 0.986493 8.3944 1.05753 8.50239L1.0763 8.53113C1.49038 9.17745 2.03383 9.734 2.67032 10.164ZM4.66559 8.67418C4.28132 8.53503 3.92937 8.32799 3.6242 8.06721C6.08345 7.71306 8.02849 5.76802 8.38264 3.30877C8.88703 3.89901 9.19036 4.66423 9.19036 5.49993C9.19036 5.73521 9.16628 5.96486 9.12046 6.18657C8.35866 6.68716 7.70652 7.34043 7.20761 8.1023C6.29966 8.10899 5.4387 8.31324 4.66559 8.67418ZM18.2537 11.2025L18.2504 10.1021L18.2537 10.1021V11.2025Z" fill="black"/>
<path d="M9.70821 14.7044C10.1475 14.2651 10.8599 14.2651 11.2992 14.7044L14.7992 18.2044C15.1209 18.5262 15.2172 19.0101 15.0431 19.4304C14.8689 19.8508 14.4587 20.1249 14.0037 20.1249H13.7197L15.2992 21.7044C15.7385 22.1438 15.7385 22.8561 15.2992 23.2954C14.8599 23.7348 14.1475 23.7348 13.7082 23.2954L10.2082 19.7954C9.88646 19.4737 9.79021 18.9898 9.96434 18.5694C10.1385 18.149 10.5487 17.8749 11.0037 17.8749H11.2877L9.70821 16.2954C9.26887 15.8561 9.26887 15.1438 9.70821 14.7044Z" fill="black"/>
</svg>
