<svg width="24" height="24" viewBox="0 0 24 24" fill="none" xmlns="http://www.w3.org/2000/svg">
<path fill-rule="evenodd" clip-rule="evenodd" d="M10.4943 6.43814C10.5566 6.13115 10.5893 5.81341 10.5893 5.48802C10.5893 3.69369 9.59432 2.13211 8.12715 1.32432C7.8477 1.17046 7.55634 1.2387 7.35775 1.40904C7.16564 1.57384 7.04946 1.83887 7.07353 2.1187C7.084 2.24036 7.08934 2.36354 7.08934 2.48802C7.08934 4.83523 5.18655 6.73802 2.83934 6.73802C2.71486 6.73802 2.59168 6.73268 2.47002 6.72221C2.19019 6.69814 1.92515 6.81432 1.76036 7.00644C1.59001 7.20502 1.52178 7.49638 1.67564 7.77583C2.22539 8.77432 3.12426 9.55414 4.20802 9.95046C2.8737 10.9024 2.00371 12.4632 2.00371 14.2272C2.00371 17.1267 4.35422 19.4772 7.25371 19.4772H9.58163C9.52772 19.3164 9.5013 19.1473 9.50384 18.9772H7.25371C4.63036 18.9772 2.50371 16.8506 2.50371 14.2272C2.50371 11.6039 4.63036 9.47721 7.25371 9.47721C7.38457 9.47721 7.51415 9.48249 7.64224 9.49286C7.84511 9.50927 8.03956 9.40469 8.13708 9.22515C9.02642 7.58783 10.7606 6.47721 12.7537 6.47721C15.4849 6.47721 17.7292 8.56294 17.9803 11.2283C17.9935 11.3676 18.1103 11.4773 18.2537 11.4772C20.3248 11.4772 22.0037 13.1561 22.0037 15.2272C22.0037 17.2983 20.3248 18.9772 18.2537 18.9772H15.5036C15.5062 19.1447 15.4807 19.3137 15.4258 19.4772H18.2537C20.6009 19.4772 22.5037 17.5744 22.5037 15.2272C22.5037 12.9478 20.7092 11.0874 18.4558 10.9819C18.0903 8.15826 15.6768 5.97721 12.7537 5.97721C11.9516 5.97721 11.1878 6.14147 10.4943 6.43814ZM2.13987 7.33197C2.08457 7.39644 2.07483 7.46418 2.11364 7.53467C2.67025 8.54563 3.62586 9.30526 4.76792 9.60184C5.50787 9.20334 6.35438 8.97721 7.25371 8.97721C7.39804 8.97721 7.54107 8.98304 7.68255 8.99448C7.689 8.99501 7.695 8.9915 7.69771 8.9865C8.20891 8.04536 8.97546 7.26271 9.90449 6.73167C10.0247 6.33832 10.0893 5.92072 10.0893 5.48802C10.0893 3.8832 9.19995 2.48575 7.88599 1.76232C7.8155 1.72351 7.74776 1.73325 7.68329 1.78855C7.61236 1.8494 7.56153 1.95768 7.57169 2.07585C7.58338 2.21174 7.58934 2.34922 7.58934 2.48802C7.58934 5.11137 5.46269 7.23802 2.83934 7.23802C2.70054 7.23802 2.56306 7.23206 2.42717 7.22037C2.30899 7.21021 2.20071 7.26104 2.13987 7.33197Z" fill="black"/>
<path d="M10.3269 15.3232C10.4246 15.2256 10.5829 15.2256 10.6805 15.3232L14.1805 18.8232C14.252 18.8947 14.2734 19.0022 14.2347 19.0957C14.196 19.1891 14.1048 19.25 14.0037 19.25H11.6073L14.6805 22.3232C14.7781 22.4209 14.7781 22.5791 14.6805 22.6768C14.5829 22.7744 14.4246 22.7744 14.3269 22.6768L10.8269 19.1768C10.7554 19.1053 10.734 18.9977 10.7727 18.9043C10.8114 18.8109 10.9026 18.75 11.0037 18.75H13.4002L10.3269 15.6768C10.2293 15.5791 10.2293 15.4209 10.3269 15.3232Z" fill="black"/>
</svg>
