<svg width="24" height="24" viewBox="0 0 24 24" fill="none" xmlns="http://www.w3.org/2000/svg">
<path fill-rule="evenodd" clip-rule="evenodd" d="M2.86117 10.1398C1.86379 11.2112 1.25368 12.6479 1.25368 14.2271C1.25368 17.5408 3.93997 20.2271 7.25368 20.2271H10.0178C9.66622 19.6183 9.65967 18.8677 10.004 18.2516L10.0179 18.2271H9.46806C8.85135 18.5692 8.11865 18.5518 7.53102 18.2271H7.25368C5.04454 18.2271 3.25368 16.4362 3.25368 14.2271C3.25368 12.018 5.04454 10.2271 7.25368 10.2271C7.36434 10.2271 7.47374 10.2316 7.58173 10.2403C8.07923 10.2806 8.55639 10.0244 8.79611 9.58303C9.55949 8.17759 11.0463 7.22711 12.7537 7.22711C15.0942 7.22711 17.0185 9.01479 17.2336 11.2986C17.2825 11.8177 17.718 12.2272 18.2537 12.2271C19.9105 12.2271 21.2537 13.5703 21.2537 15.2271C21.2537 15.8662 21.0538 16.4587 20.7132 16.9453L21.7982 18.7536C22.6977 17.8495 23.2537 16.6032 23.2537 15.2271C23.2537 12.7527 21.4563 10.6981 19.0958 10.2977C18.4442 7.39515 15.8526 5.22711 12.7537 5.22711C12.2589 5.22711 11.7772 5.2824 11.3142 5.38709C11.2759 3.48638 10.2728 1.82309 8.77911 0.866102L8.74855 0.846204C8.63796 0.773733 8.40831 0.623251 8.14016 0.562134C7.39002 0.391159 6.6318 0.815801 6.38566 1.54475C6.31861 1.74331 6.3133 1.93738 6.31123 2.02976C6.30879 2.1385 6.31148 2.27209 6.31426 2.40996L6.31462 2.42792C6.3151 2.45185 6.31534 2.47584 6.31534 2.49991C6.31534 4.4329 4.74834 5.99991 2.81534 5.99991C2.79127 5.99991 2.76728 5.99967 2.74335 5.99919L2.72542 5.99883C2.58756 5.99605 2.45393 5.99336 2.34519 5.9958C2.25281 5.99787 2.05874 6.00318 1.86018 6.07023C1.13123 6.31637 0.706589 7.07459 0.877563 7.82473C0.93868 8.09288 1.08916 8.32252 1.16163 8.43312L1.18153 8.46368C1.61247 9.1363 2.18662 9.70943 2.86117 10.1398ZM4.67243 8.80919C4.16602 8.6344 3.71206 8.34653 3.34068 7.97515C5.95891 7.72705 8.04248 5.64348 8.29058 3.02525C8.9247 3.65937 9.31534 4.53422 9.31534 5.49991C9.31534 5.76204 9.28652 6.01745 9.23188 6.26313C8.4472 6.76996 7.77889 7.44103 7.27565 8.22715L7.25368 8.22711C6.32959 8.22711 5.45429 8.43602 4.67243 8.80919ZM18.2508 10.2271L18.2537 10.2271V11.2025L18.2508 10.2271Z" fill="black"/>
<path d="M18.0175 20.2271L16.8175 18.2271H16.7319C17.0796 18.8291 17.0906 19.5714 16.7553 20.1855C16.7477 20.1995 16.7399 20.2134 16.732 20.2271H18.0175Z" fill="black"/>
<path d="M6.4451 13.3951C6.90461 13.0887 7.52549 13.2128 7.83186 13.6724L9.33189 15.9222C9.63825 16.3818 9.5141 17.0026 9.05458 17.309C8.59506 17.6154 7.97419 17.4912 7.66782 17.0317L6.16779 14.7818C5.86142 14.3223 5.98558 13.7014 6.4451 13.3951Z" fill="black"/>
<path d="M12.2091 14.886C12.6737 14.5873 13.2924 14.7218 13.591 15.1864L15.841 18.6864C16.0389 18.9941 16.0529 19.3853 15.8776 19.7064C15.7023 20.0274 15.3657 20.2272 14.9999 20.2272H13.5395L14.6015 21.9529C14.891 22.4233 14.7443 23.0392 14.274 23.3287C13.8036 23.6182 13.1877 23.4715 12.8982 23.0012L10.8982 19.7513C10.7083 19.4427 10.7002 19.0556 10.8769 18.7394C11.0536 18.4231 11.3876 18.2272 11.7499 18.2272H13.1682L11.9087 16.2679C11.61 15.8034 11.7445 15.1846 12.2091 14.886Z" fill="black"/>
<path d="M18.3574 14.9626C18.0732 14.489 17.459 14.3354 16.9854 14.6196C16.5118 14.9037 16.3582 15.518 16.6424 15.9916L19.4535 20.6767C19.7376 21.1503 20.3519 21.3039 20.8255 21.0197C21.2991 20.7356 21.4526 20.1213 21.1685 19.6477L18.3574 14.9626Z" fill="black"/>
</svg>
