<svg width="24" height="24" viewBox="0 0 24 24" fill="none" xmlns="http://www.w3.org/2000/svg">
<path d="M0.5 8.00024C0.5 7.7241 0.723858 7.50024 1 7.50024H2.23529C2.51144 7.50025 2.73529 7.7241 2.73529 8.00025C2.73529 8.27639 2.51144 8.50025 2.23529 8.50024H1C0.723858 8.50024 0.5 8.27639 0.5 8.00024Z" fill="black"/>
<path d="M8 0.500244C8.27614 0.500244 8.5 0.724102 8.5 1.00024V2.23554C8.5 2.51168 8.27614 2.73554 8 2.73554C7.72386 2.73554 7.5 2.51168 7.5 2.23554V1.00024C7.5 0.724102 7.72386 0.500244 8 0.500244Z" fill="black"/>
<path d="M13.3034 3.40408C13.4986 3.20881 13.4986 2.89223 13.3034 2.69697C13.1081 2.50171 12.7915 2.50171 12.5963 2.69697L11.7228 3.57046C11.5275 3.76572 11.5275 4.0823 11.7228 4.27756C11.918 4.47282 12.2346 4.47282 12.4299 4.27756L13.3034 3.40408Z" fill="black"/>
<path d="M2.69662 2.69697C2.89189 2.50171 3.20847 2.50171 3.40373 2.69697L4.27722 3.57046C4.47248 3.76572 4.47248 4.0823 4.27722 4.27756C4.08195 4.47282 3.76537 4.47282 3.57011 4.27756L2.69662 3.40408C2.50136 3.20881 2.50136 2.89223 2.69662 2.69697Z" fill="black"/>
<path fill-rule="evenodd" clip-rule="evenodd" d="M4.32131 9.5736C2.77853 10.5478 1.75382 12.2679 1.75382 14.2274C1.75382 17.0952 3.94859 19.4503 6.75002 19.7047V18.6996C4.50187 18.4491 2.75382 16.5424 2.75382 14.2274C2.75382 11.7422 4.76854 9.72744 7.25382 9.72744C7.37795 9.72744 7.50079 9.73246 7.62219 9.74228C7.92327 9.76663 8.21196 9.61151 8.35688 9.34471C9.20423 7.78468 10.8559 6.72744 12.7538 6.72744C15.3548 6.72744 17.4924 8.71383 17.7315 11.252C17.7566 11.5179 17.9796 11.7275 18.2538 11.7274C20.1868 11.7274 21.7538 13.2944 21.7538 15.2274C21.7538 17.1604 20.1868 18.7274 18.2538 18.7274H16.75V19.7274H18.2538C20.7391 19.7274 22.7538 17.7127 22.7538 15.2274C22.7538 12.8838 20.9623 10.9587 18.674 10.7468C18.2057 7.89936 15.7337 5.72744 12.7538 5.72744C12.286 5.72744 11.8308 5.78098 11.3939 5.88225C10.687 4.75202 9.43132 4.00024 8 4.00024C5.79086 4.00024 4 5.79111 4 8.00024C4 8.55884 4.1145 9.09068 4.32131 9.5736ZM5 8.00024C5 6.34339 6.34315 5.00024 8 5.00024C8.98369 5.00024 9.8568 5.47369 10.4039 6.20514C9.20066 6.71786 8.19938 7.61221 7.55202 8.7354C7.45324 8.73012 7.35382 8.72744 7.25382 8.72744C6.53349 8.72744 5.8455 8.86592 5.21503 9.1177C5.07632 8.77234 5 8.3952 5 8.00024ZM18.2524 10.7274L18.2538 10.7274V11.2028L18.2524 10.7274Z" fill="black"/>
<path d="M13.75 19.7274L13.75 18.7274H13.25L13.25 19.7274H13.75Z" fill="black"/>
<path d="M10.25 19.7274L10.25 18.7274H9.75002L9.75002 19.7274H10.25Z" fill="black"/>
<path d="M8.25002 13.2274C8.52616 13.2274 8.75002 13.4513 8.75002 13.7274L8.75002 20.7274C8.75002 21.0035 8.52616 21.2274 8.25002 21.2274C7.97388 21.2274 7.75002 21.0035 7.75002 20.7274L7.75002 13.7274C7.75002 13.4513 7.97388 13.2274 8.25002 13.2274Z" fill="black"/>
<path d="M11.75 15.2274C12.0262 15.2274 12.25 15.4513 12.25 15.7274L12.25 22.7274C12.25 23.0035 12.0262 23.2274 11.75 23.2274C11.4739 23.2274 11.25 23.0035 11.25 22.7274L11.25 15.7274C11.25 15.4513 11.4739 15.2274 11.75 15.2274Z" fill="black"/>
<path d="M15.75 13.7274C15.75 13.4513 15.5262 13.2274 15.25 13.2274C14.9739 13.2274 14.75 13.4513 14.75 13.7274V20.7274C14.75 21.0035 14.9739 21.2274 15.25 21.2274C15.5262 21.2274 15.75 21.0035 15.75 20.7274V13.7274Z" fill="black"/>
</svg>
