<svg width="24" height="24" viewBox="0 0 24 24" fill="none" xmlns="http://www.w3.org/2000/svg">
<path d="M8.10334 1.3358C9.4554 2.0802 10.4065 3.46475 10.5474 5.08167C9.09813 5.56279 7.85979 6.50458 7.00557 7.73136C5.47207 7.78896 4.07449 8.3778 2.99154 9.31919C2.44199 8.91222 1.98341 8.38954 1.65184 7.7873C1.49798 7.50785 1.56621 7.2165 1.73656 7.01791C1.90135 6.82579 2.16638 6.70962 2.44622 6.73369C2.56787 6.74415 2.69105 6.7495 2.81554 6.7495C5.16275 6.7495 7.06554 4.84671 7.06554 2.4995C7.06554 2.37501 7.06019 2.25183 7.04973 2.13018C7.02566 1.85034 7.14184 1.58531 7.33395 1.42052C7.53254 1.25017 7.82389 1.18194 8.10334 1.3358Z" fill="black"/>
<path fill-rule="evenodd" clip-rule="evenodd" d="M7.75117 8.89008C8.7394 7.15081 10.6094 5.9767 12.7539 5.9767C15.677 5.9767 18.0904 8.15775 18.456 10.9814C20.7094 11.0869 22.5039 12.9472 22.5039 15.2267C22.5039 17.5739 20.6011 19.4767 18.2539 19.4767H15.9462C16.1115 18.8045 15.9178 18.0849 15.4181 17.5853L11.9181 14.0853C11.1371 13.3042 9.87072 13.3042 9.08967 14.0853C8.30863 14.8663 8.30863 16.1327 9.08967 16.9137L9.67804 17.5021C9.45516 17.6993 9.2748 17.9476 9.15613 18.2341C8.98948 18.6365 8.96213 19.0715 9.06165 19.4767H7.25388C4.35438 19.4767 2.00388 17.1262 2.00388 14.2267C2.00388 11.3272 4.35438 8.9767 7.25388 8.9767C7.36096 8.9767 7.46733 8.97991 7.57288 8.98624C7.62953 8.98964 7.66204 8.9915 7.68571 8.99164L7.69151 8.99163L7.69457 8.98694C7.70726 8.96718 7.72329 8.93915 7.75117 8.89008Z" fill="black"/>
<path d="M9.97355 14.9692C10.2664 14.6763 10.7413 14.6763 11.0342 14.9692L14.5342 18.4692C14.7487 18.6837 14.8129 19.0062 14.6968 19.2865C14.5807 19.5668 14.3072 19.7495 14.0039 19.7495H12.8145L15.0342 21.9692C15.3271 22.262 15.3271 22.7369 15.0342 23.0298C14.7413 23.3227 14.2664 23.3227 13.9736 23.0298L10.4736 19.5298C10.2591 19.3153 10.1949 18.9927 10.311 18.7125C10.4271 18.4322 10.7005 18.2495 11.0039 18.2495H12.1932L9.97355 16.0298C9.68066 15.7369 9.68066 15.262 9.97355 14.9692Z" fill="black"/>
</svg>
