<svg width="24" height="24" viewBox="0 0 24 24" fill="none" xmlns="http://www.w3.org/2000/svg">
<path d="M8.51028 1.28752C9.62992 2.00485 10.4456 3.15761 10.7176 4.50753C9.10557 4.96159 7.71459 5.94084 6.74043 7.24609C5.06802 7.3675 3.55857 8.07647 2.41754 9.16753C2.10683 8.87946 1.83286 8.55246 1.60344 8.19436L1.58203 8.16115C1.5039 8.04026 1.40567 7.88826 1.36596 7.71403C1.25199 7.21399 1.53512 6.70844 2.02104 6.54436C2.14099 6.50386 2.26755 6.4981 2.35729 6.49609C2.4551 6.49389 2.57911 6.49639 2.72329 6.49928L2.73422 6.4995C2.76149 6.50005 2.78883 6.50032 2.81624 6.50032C5.02538 6.50032 6.81624 4.70946 6.81624 2.50032C6.81624 2.47291 6.81596 2.44557 6.81542 2.41831L6.8152 2.40743C6.8123 2.26323 6.80981 2.13919 6.812 2.04137C6.81401 1.95164 6.81978 1.82508 6.86028 1.70512C7.02436 1.21921 7.52991 0.936073 8.02995 1.05004C8.20418 1.08975 8.35618 1.18799 8.47706 1.26611L8.51028 1.28752Z" fill="black"/>
<path d="M6.58466 13.6034C6.92929 13.3737 7.39495 13.4668 7.62473 13.8114L9.12476 16.0613C9.35453 16.4059 9.26142 16.8716 8.91678 17.1014C8.57214 17.3311 8.10649 17.238 7.87671 16.8934L6.37668 14.6435C6.1469 14.2989 6.24002 13.8332 6.58466 13.6034Z" fill="black"/>
<path fill-rule="evenodd" clip-rule="evenodd" d="M7.55277 8.73545C8.58828 6.93874 10.5297 5.72749 12.7546 5.72749C15.7344 5.72749 18.2065 7.8994 18.6748 10.7468C20.963 10.9587 22.7546 12.8839 22.7546 15.2275C22.7546 16.5132 22.2154 17.6729 21.3509 18.4929L19.0014 14.5771C18.5041 13.7484 17.4292 13.4796 16.6004 13.9769C15.7716 14.4741 15.5029 15.5491 16.0002 16.3779L18.0099 19.7275H16.6779C16.8219 19.2443 16.7519 18.7153 16.4728 18.2813L14.2228 14.7813C13.7002 13.9683 12.6174 13.7329 11.8044 14.2555C10.9914 14.7782 10.756 15.8609 11.2787 16.6739L11.7953 17.4776H11.7507C11.1167 17.4776 10.5323 17.8205 10.2231 18.3739C9.9895 18.792 9.94047 19.2807 10.0736 19.7275H7.25458C4.21701 19.7275 1.75458 17.2651 1.75458 14.2275C1.75458 11.1899 4.21701 8.72749 7.25458 8.72749C7.35457 8.72749 7.45399 8.73016 7.55277 8.73545ZM18.2546 10.7275L18.2531 10.7275L18.2545 11.2028L18.2546 10.7275ZM8.45676 13.2567C7.92061 12.4526 6.83408 12.2353 6.02993 12.7714C5.22577 13.3076 5.0085 14.3941 5.54465 15.1983L7.04468 17.4482C7.58082 18.2523 8.66735 18.4696 9.47151 17.9334C10.2757 17.3973 10.4929 16.3108 9.95679 15.5066L8.45676 13.2567Z" fill="black"/>
<path d="M12.3452 15.0967C12.6936 14.8727 13.1576 14.9736 13.3816 15.322L15.6316 18.822C15.78 19.0528 15.7905 19.3461 15.659 19.5869C15.5276 19.8277 15.2751 19.9775 15.0007 19.9775H13.0929L14.3895 22.0843C14.6066 22.4371 14.4966 22.8991 14.1438 23.1162C13.7911 23.3333 13.3291 23.2233 13.112 22.8705L11.112 19.6206C10.9696 19.3892 10.9635 19.0989 11.096 18.8617C11.2286 18.6245 11.479 18.4775 11.7507 18.4775H13.627L12.1199 16.1331C11.8959 15.7847 11.9968 15.3207 12.3452 15.0967Z" fill="black"/>
<path d="M18.1439 15.0916C17.9308 14.7364 17.4701 14.6212 17.1149 14.8343C16.7597 15.0475 16.6445 15.5081 16.8576 15.8633L19.6687 20.5485C19.8818 20.9037 20.3425 21.0188 20.6977 20.8057C21.0529 20.5926 21.1681 20.1319 20.955 19.7767L18.1439 15.0916Z" fill="black"/>
</svg>
