<svg width="24" height="24" viewBox="0 0 24 24" fill="none" xmlns="http://www.w3.org/2000/svg">
<path d="M8.5093 1.28727C9.88989 2.17179 10.8084 3.71837 10.8152 5.48026C9.1613 5.92168 7.73342 6.91407 6.73946 8.24585C5.349 8.34679 4.07119 8.85387 3.02411 9.64901C2.45649 9.26642 1.97177 8.77054 1.60246 8.19412L1.58105 8.1609C1.50293 8.04002 1.40469 7.88801 1.36498 7.71379C1.25101 7.21375 1.53415 6.7082 2.02006 6.54412C2.14002 6.50361 2.26658 6.49785 2.35631 6.49584C2.45413 6.49365 2.57817 6.49614 2.72237 6.49904L2.73325 6.49925C2.76051 6.4998 2.78785 6.50008 2.81526 6.50008C5.0244 6.50008 6.81526 4.70922 6.81526 2.50008C6.81526 2.47267 6.81499 2.44533 6.81444 2.41806L6.81422 2.40719C6.81133 2.26299 6.80883 2.13895 6.81103 2.04113C6.81304 1.95139 6.8188 1.82483 6.85931 1.70487C7.02338 1.21896 7.52893 0.935827 8.02897 1.0498C8.2032 1.08951 8.3552 1.18774 8.47609 1.26587L8.5093 1.28727Z" fill="black"/>
<path fill-rule="evenodd" clip-rule="evenodd" d="M7.55179 9.7352C8.58731 7.93849 10.5287 6.72724 12.7536 6.72724C15.7334 6.72724 18.2055 8.89916 18.6738 11.7466C20.9621 11.9585 22.7536 13.8836 22.7536 16.2272C22.7536 18.7125 20.7389 20.7272 18.2536 20.7272H7.2536C4.21603 20.7272 1.7536 18.2648 1.7536 15.2272C1.7536 12.1897 4.21603 9.72724 7.2536 9.72724C7.3536 9.72724 7.45302 9.72992 7.55179 9.7352ZM18.2536 11.7272L18.2521 11.7272L18.2535 12.2026L18.2536 11.7272Z" fill="black"/>
</svg>
