<svg width="24" height="24" viewBox="0 0 24 24" fill="none" xmlns="http://www.w3.org/2000/svg">
<path fill-rule="evenodd" clip-rule="evenodd" d="M3.26212 10.0884C2.17797 11.1342 1.50364 12.602 1.50364 14.2273C1.50364 17.1474 3.68042 19.5591 6.49984 19.9283V18.4106C4.51221 18.0549 3.00364 16.3172 3.00364 14.2273C3.00364 11.8801 4.90643 9.97728 7.25364 9.97728C7.37103 9.97728 7.48715 9.98202 7.60185 9.9913C8.00114 10.0236 8.38406 9.81795 8.57638 9.46388C9.38175 7.98114 10.951 6.97728 12.7536 6.97728C15.2244 6.97728 17.2553 8.86431 17.4825 11.2753C17.5194 11.6678 17.8487 11.9773 18.2536 11.9773C20.0485 11.9773 21.5036 13.4324 21.5036 15.2273C21.5036 17.0222 20.0486 18.4773 18.2536 18.4773H16.9998L16.9998 19.9773H18.2536C20.877 19.9773 23.0036 17.8506 23.0036 15.2273C23.0036 12.8186 21.2108 10.8287 18.8868 10.5191C18.3237 7.6452 15.7922 5.47728 12.7536 5.47728C12.1671 5.47728 11.5994 5.55811 11.0612 5.70918C11.0639 5.63983 11.0653 5.57013 11.0653 5.50011C11.0653 3.64127 10.0987 2.00867 8.64421 1.07681L8.61107 1.05535C8.49564 0.980258 8.30522 0.85638 8.08457 0.806087C7.45948 0.663616 6.82759 1.01751 6.62248 1.62493C6.56871 1.78419 6.56317 1.94451 6.56113 2.03557C6.55881 2.13882 6.5614 2.26757 6.56423 2.40831L6.56453 2.42311C6.56504 2.44871 6.5653 2.47438 6.5653 2.50011C6.5653 4.57118 4.88637 6.25011 2.8153 6.25011C2.78956 6.25011 2.76389 6.24986 2.7383 6.24934L2.72352 6.24905C2.58276 6.24622 2.45401 6.24363 2.35075 6.24594C2.25969 6.24798 2.09938 6.25352 1.94012 6.3073C1.33269 6.51241 0.978801 7.14429 1.12127 7.76938C1.17157 7.99004 1.29544 8.18046 1.37054 8.29588L1.392 8.32902C1.85917 9.05821 2.50248 9.66478 3.26212 10.0884ZM4.69069 9.07865C3.93447 8.84132 3.28117 8.37077 2.81495 7.75011C5.71444 7.75011 8.0653 5.39961 8.0653 2.50011C8.97739 3.18525 9.5653 4.27406 9.5653 5.50011C9.5653 5.81744 9.52589 6.12557 9.45168 6.41986C8.62149 6.93747 7.92176 7.64428 7.41286 8.47945C7.35994 8.47801 7.30687 8.47728 7.25364 8.47728C6.33272 8.47728 5.46236 8.69378 4.69069 9.07865ZM18.2515 10.4773L18.2536 10.4773V11.2026L18.2515 10.4773Z" fill="black"/>
<path d="M8.24984 12.9772C8.66405 12.9772 8.99984 13.313 8.99984 13.7272V20.7272C8.99984 21.1415 8.66405 21.4772 8.24984 21.4772C7.83563 21.4772 7.49984 21.1415 7.49984 20.7272V13.7272C7.49984 13.313 7.83563 12.9772 8.24984 12.9772Z" fill="black"/>
<path d="M11.7498 14.9772C12.1641 14.9772 12.4998 15.313 12.4998 15.7272L12.4998 22.7272C12.4998 23.1415 12.1641 23.4772 11.7498 23.4772C11.3356 23.4772 10.9998 23.1415 10.9998 22.7272V15.7272C10.9998 15.313 11.3356 14.9772 11.7498 14.9772Z" fill="black"/>
<path d="M15.9998 13.7272C15.9998 13.313 15.6641 12.9772 15.2498 12.9772C14.8356 12.9772 14.4998 13.313 14.4998 13.7272V20.7272C14.4998 21.1415 14.8356 21.4772 15.2498 21.4772C15.6641 21.4772 15.9998 21.1415 15.9998 20.7272L15.9998 13.7272Z" fill="black"/>
</svg>
