<svg width="24" height="24" viewBox="0 0 24 24" fill="none" xmlns="http://www.w3.org/2000/svg">
<path d="M0.75 8.00024C0.75 7.86217 0.861929 7.75024 1 7.75024H2.23529C2.37337 7.75024 2.48529 7.86217 2.48529 8.00024C2.48529 8.13832 2.37337 8.25024 2.23529 8.25024H1C0.861929 8.25024 0.75 8.13832 0.75 8.00024Z" fill="black"/>
<path d="M7.75 15.0002C7.75 15.1383 7.86193 15.2502 8 15.2502C8 15.2502 8 15.2502 8 15.2502L8.00001 20.7274C8.00001 20.8655 8.11194 20.9774 8.25001 20.9774C8.38808 20.9774 8.50001 20.8655 8.50001 20.7274L8.50001 13.7274C8.50001 13.5893 8.38808 13.4774 8.25001 13.4774C8.19055 13.4774 8.13594 13.4982 8.09303 13.5328C8.06427 13.5213 8.03288 13.5149 8 13.5149C7.86193 13.5149 7.75 13.6269 7.75 13.7649V15.0002Z" fill="black"/>
<path d="M8 0.750244C8.13807 0.750244 8.25 0.862171 8.25 1.00024V2.23554C8.25 2.37361 8.13807 2.48554 8 2.48554C7.86193 2.48554 7.75 2.37361 7.75 2.23554V1.00024C7.75 0.862171 7.86193 0.750244 8 0.750244Z" fill="black"/>
<path d="M13.1266 3.2273C13.2242 3.12967 13.2242 2.97138 13.1266 2.87375C13.029 2.77612 12.8707 2.77612 12.773 2.87375L11.8996 3.74723C11.8019 3.84486 11.8019 4.00315 11.8996 4.10078C11.9972 4.19842 12.1555 4.19842 12.2531 4.10078L13.1266 3.2273Z" fill="black"/>
<path d="M2.8734 2.87375C2.97103 2.77612 3.12932 2.77612 3.22695 2.87375L4.10044 3.74723C4.19807 3.84486 4.19807 4.00315 4.10044 4.10078C4.00281 4.19841 3.84452 4.19842 3.74689 4.10078L2.8734 3.2273C2.77577 3.12967 2.77577 2.97138 2.8734 2.87375Z" fill="black"/>
<path d="M4.25 8.00024C4.25 5.92918 5.92893 4.25024 8 4.25024C9.121 4.25024 10.1271 4.74212 10.8143 5.52182C9.33956 5.98235 8.09107 6.95394 7.27579 8.22749L7.25382 8.22745C6.21042 8.22745 5.22923 8.49378 4.37452 8.96218C4.29328 8.65519 4.25 8.33277 4.25 8.00024Z" fill="black"/>
<path fill-rule="evenodd" clip-rule="evenodd" d="M7.55202 8.7354C8.58753 6.93869 10.5289 5.72744 12.7538 5.72744C15.7337 5.72744 18.2057 7.89936 18.674 10.7468C20.9623 10.9587 22.7538 12.8838 22.7538 15.2274C22.7538 17.7127 20.7391 19.7274 18.2538 19.7274H16L16 13.7274C16 13.3132 15.6642 12.9774 15.25 12.9774C14.8358 12.9774 14.5 13.3132 14.5 13.7274L14.5 19.7274H12.5L12.5 15.7274C12.5 15.3132 12.1642 14.9774 11.75 14.9774C11.3358 14.9774 11 15.3132 11 15.7274L11 19.7274H9.00001L9.00001 13.7274C9.00001 13.3132 8.66423 12.9774 8.25001 12.9774C7.8358 12.9774 7.50001 13.3132 7.50001 13.7274L7.50001 19.7274H7.25383C4.21626 19.7274 1.75383 17.265 1.75383 14.2274C1.75383 11.1899 4.21626 8.72744 7.25383 8.72744C7.35383 8.72744 7.45325 8.73012 7.55202 8.7354ZM18.2538 10.7274L18.2524 10.7274L18.2538 11.2028L18.2538 10.7274Z" fill="black"/>
<path d="M11.75 15.4774C11.8881 15.4774 12 15.5893 12 15.7274L12 22.7274C12 22.8655 11.8881 22.9774 11.75 22.9774C11.6119 22.9774 11.5 22.8655 11.5 22.7274L11.5 15.7274C11.5 15.5893 11.6119 15.4774 11.75 15.4774Z" fill="black"/>
<path d="M15.5 13.7274C15.5 13.5893 15.3881 13.4774 15.25 13.4774C15.1119 13.4774 15 13.5893 15 13.7274V20.7274C15 20.8655 15.1119 20.9774 15.25 20.9774C15.3881 20.9774 15.5 20.8655 15.5 20.7274V13.7274Z" fill="black"/>
</svg>
