<svg width="24" height="24" viewBox="0 0 24 24" fill="none" xmlns="http://www.w3.org/2000/svg">
<path d="M10.8158 5.50081L10.8157 5.52199C9.34047 5.98238 8.09154 6.95414 7.27605 8.22803L7.25408 8.22799C5.70457 8.22799 4.29225 8.81536 3.22762 9.7796C2.57223 9.38232 2.01556 8.83886 1.60295 8.19485L1.58154 8.16164C1.50342 8.04075 1.40518 7.88875 1.36547 7.71452C1.2515 7.21448 1.53464 6.70893 2.02055 6.54485C2.14051 6.50435 2.26706 6.49858 2.3568 6.49657C2.4546 6.49438 2.5786 6.49687 2.72276 6.49977L2.73374 6.49999C2.761 6.50053 2.78834 6.50081 2.81575 6.50081C5.02489 6.50081 6.81575 4.70995 6.81575 2.50081C6.81575 2.4734 6.81547 2.44606 6.81493 2.41879L6.81471 2.40792C6.81181 2.26372 6.80932 2.13968 6.81151 2.04186C6.81353 1.95212 6.81929 1.82556 6.85979 1.70561C7.02387 1.2197 7.52942 0.936561 8.02946 1.05053C8.20369 1.09024 8.35569 1.18847 8.47658 1.2666L8.50979 1.28801C9.89555 2.17584 10.8158 3.7307 10.8158 5.50081Z" fill="black"/>
<path fill-rule="evenodd" clip-rule="evenodd" d="M7.55228 8.73594C8.58779 6.93922 10.5292 5.72797 12.7541 5.72797C15.7339 5.72798 18.206 7.89989 18.6743 10.7473C20.9625 10.9592 22.7541 12.8844 22.7541 15.228C22.7541 17.337 21.3032 19.1072 19.3451 19.5948L16.6434 15.0921C16.4303 14.7369 15.9696 14.6217 15.6144 14.8348C15.2592 15.0479 15.1441 15.5086 15.3572 15.8638L17.6757 19.728H14.6497L12.1514 15.356C11.9459 14.9964 11.4878 14.8715 11.1281 15.077C10.7685 15.2825 10.6436 15.7406 10.8491 16.1003L12.922 19.728H10.3657L7.6375 15.3325C7.41905 14.9806 6.95667 14.8724 6.60474 15.0908C6.25281 15.3093 6.1446 15.7717 6.36304 16.1236L8.60028 19.728H7.25409C4.21652 19.728 1.75409 17.2655 1.75409 14.228C1.75409 11.1904 4.21652 8.72798 7.25409 8.72798C7.35409 8.72798 7.45351 8.73065 7.55228 8.73594ZM18.2541 10.728L18.2526 10.728L18.254 11.2033L18.2541 10.728Z" fill="black"/>
<path d="M6.86843 15.5156C6.98574 15.4428 7.13986 15.4789 7.21268 15.5962L11.5288 22.5498C11.6016 22.6671 11.5655 22.8212 11.4482 22.894C11.3309 22.9668 11.1768 22.9308 11.104 22.8135L6.78786 15.8599C6.71504 15.7426 6.75112 15.5884 6.86843 15.5156Z" fill="black"/>
<path d="M11.3762 15.5111C11.4961 15.4425 11.6488 15.4842 11.7173 15.6041L15.7173 22.6041C15.7858 22.724 15.7442 22.8767 15.6243 22.9452C15.5044 23.0137 15.3517 22.972 15.2832 22.8521L11.2832 15.8521C11.2147 15.7323 11.2563 15.5796 11.3762 15.5111Z" fill="black"/>
<path d="M16.2147 15.3493C16.1436 15.2309 15.9901 15.1925 15.8717 15.2635C15.7533 15.3346 15.7149 15.4881 15.7859 15.6065L20.1563 22.8905C20.2273 23.0089 20.3809 23.0473 20.4993 22.9763C20.6177 22.9052 20.6561 22.7517 20.5851 22.6333L16.2147 15.3493Z" fill="black"/>
</svg>
