<svg width="24" height="24" viewBox="0 0 24 24" fill="none" xmlns="http://www.w3.org/2000/svg">
<path d="M10.8153 5.50008L10.8152 5.52126C9.33998 5.98164 8.09105 6.9534 7.27556 8.22729L7.25359 8.22726C5.70408 8.22726 4.29176 8.81463 3.22713 9.77887C2.57174 9.38159 2.01507 8.83813 1.60246 8.19412L1.58105 8.1609C1.50293 8.04002 1.40469 7.88801 1.36498 7.71379C1.25101 7.21375 1.53415 6.70819 2.02006 6.54412C2.14002 6.50361 2.26658 6.49785 2.35631 6.49584C2.45412 6.49365 2.57814 6.49614 2.72232 6.49904L2.73325 6.49925C2.76051 6.4998 2.78785 6.50008 2.81526 6.50008C5.0244 6.50008 6.81526 4.70921 6.81526 2.50008C6.81526 2.47267 6.81499 2.44533 6.81444 2.41806L6.81422 2.40719C6.81133 2.26299 6.80883 2.13895 6.81103 2.04113C6.81304 1.95139 6.8188 1.82483 6.85931 1.70488C7.02338 1.21896 7.52893 0.935829 8.02897 1.0498C8.2032 1.08951 8.3552 1.18774 8.47609 1.26587L8.5093 1.28727C9.89506 2.17511 10.8153 3.72997 10.8153 5.50008Z" fill="black"/>
<path fill-rule="evenodd" clip-rule="evenodd" d="M7.55179 8.7352C8.58731 6.93849 10.5287 5.72724 12.7536 5.72724C15.7334 5.72724 18.2055 7.89916 18.6738 10.7466C20.9621 10.9585 22.7536 12.8836 22.7536 15.2272C22.7536 17.7125 20.7389 19.7272 18.2536 19.7272H15.9998L15.9998 13.7272C15.9998 13.313 15.664 12.9772 15.2498 12.9772C14.8356 12.9772 14.4998 13.313 14.4998 13.7272L14.4998 19.7272H12.4998L12.4998 15.7272C12.4998 15.313 12.164 14.9772 11.7498 14.9772C11.3356 14.9772 10.9998 15.313 10.9998 15.7272L10.9998 19.7272H8.99978V13.7272C8.99978 13.313 8.664 12.9772 8.24978 12.9772C7.83557 12.9772 7.49978 13.313 7.49978 13.7272L7.49978 19.7272H7.2536C4.21603 19.7272 1.7536 17.2648 1.7536 14.2272C1.7536 11.1897 4.21603 8.72724 7.2536 8.72724C7.3536 8.72724 7.45302 8.72992 7.55179 8.7352ZM18.2536 10.7272L18.2521 10.7272L18.2535 11.2026L18.2536 10.7272Z" fill="black"/>
<path d="M8.24978 13.4772C8.38786 13.4772 8.49978 13.5891 8.49978 13.7272L8.49978 20.7272C8.49978 20.8653 8.38786 20.9772 8.24978 20.9772C8.11171 20.9772 7.99978 20.8653 7.99978 20.7272V13.7272C7.99978 13.5891 8.11171 13.4772 8.24978 13.4772Z" fill="black"/>
<path d="M11.7498 15.4772C11.8879 15.4772 11.9998 15.5891 11.9998 15.7272L11.9998 22.7272C11.9998 22.8653 11.8879 22.9772 11.7498 22.9772C11.6117 22.9772 11.4998 22.8653 11.4998 22.7272L11.4998 15.7272C11.4998 15.5891 11.6117 15.4772 11.7498 15.4772Z" fill="black"/>
<path d="M15.4998 13.7272C15.4998 13.5891 15.3879 13.4772 15.2498 13.4772C15.1117 13.4772 14.9998 13.5891 14.9998 13.7272L14.9998 20.7272C14.9998 20.8653 15.1117 20.9772 15.2498 20.9772C15.3879 20.9772 15.4998 20.8653 15.4998 20.7272L15.4998 13.7272Z" fill="black"/>
</svg>
