<svg width="24" height="24" viewBox="0 0 24 24" fill="none" xmlns="http://www.w3.org/2000/svg">
<path d="M0.250244 8C0.250244 7.58579 0.586031 7.25 1.00024 7.25H2.23554C2.64975 7.25 2.98554 7.58579 2.98554 8C2.98554 8.41421 2.64975 8.75 2.23554 8.75H1.00024C0.586031 8.75 0.250244 8.41421 0.250244 8Z" fill="black"/>
<path d="M8.00024 0.25C8.41446 0.25 8.75025 0.585787 8.75025 1V2.23529C8.75025 2.64951 8.41446 2.98529 8.00025 2.98529C7.58603 2.98529 7.25024 2.64951 7.25024 2.23529V1C7.25024 0.585787 7.58603 0.25 8.00024 0.25Z" fill="black"/>
<path d="M13.4804 3.58061C13.7733 3.28772 13.7733 2.81284 13.4804 2.51995C13.1875 2.22706 12.7126 2.22706 12.4197 2.51995L11.5463 3.39343C11.2534 3.68633 11.2534 4.1612 11.5463 4.45409C11.8391 4.74699 12.314 4.74699 12.6069 4.45409L13.4804 3.58061Z" fill="black"/>
<path fill-rule="evenodd" clip-rule="evenodd" d="M11.5091 5.60123C10.7434 4.4834 9.45747 3.75 8.00025 3.75C5.65304 3.75 3.75024 5.65279 3.75024 8C3.75024 8.51917 3.84334 9.0166 4.01374 9.4765C2.49853 10.512 1.50407 12.2535 1.50407 14.2272C1.50407 17.1473 3.68085 19.5591 6.50027 19.9282V18.4105C4.51264 18.0548 3.00407 16.3172 3.00407 14.2272C3.00407 11.88 4.90686 9.97719 7.25407 9.97719C7.37146 9.97719 7.48759 9.98194 7.60228 9.99121C8.00157 10.0235 8.38449 9.81786 8.57681 9.46379C9.38218 7.98105 10.9514 6.97719 12.7541 6.97719C15.2248 6.97719 17.2558 8.86423 17.4829 11.2752C17.5199 11.6677 17.8491 11.9773 18.2541 11.9772C20.0489 11.9773 21.5041 13.4323 21.5041 15.2272C21.5041 17.0221 20.049 18.4772 18.2541 18.4772H17.0003V19.9772H18.2541C20.8774 19.9772 23.0041 17.8505 23.0041 15.2272C23.0041 12.8185 21.2113 10.8286 18.8873 10.519C18.3242 7.64512 15.7927 5.47719 12.7541 5.47719C12.3277 5.47719 11.9114 5.5199 11.5091 5.60123ZM5.36665 8.79413C5.29094 8.54271 5.25025 8.2761 5.25025 8C5.25025 6.48122 6.48146 5.25 8.00025 5.25C8.78914 5.25 9.50044 5.58218 10.0019 6.11431C8.92986 6.64101 8.031 7.46563 7.41329 8.47936C7.36038 8.47792 7.3073 8.47719 7.25407 8.47719C6.59293 8.47719 5.95786 8.58878 5.36665 8.79413ZM18.2519 10.4772L18.2541 10.4772V11.2025L18.2519 10.4772Z" fill="black"/>
<path d="M2.52009 2.51995C2.81299 2.22705 3.28786 2.22705 3.58075 2.51995L4.45424 3.39343C4.74713 3.68633 4.74713 4.1612 4.45424 4.45409C4.16134 4.74699 3.68647 4.74699 3.39358 4.45409L2.52009 3.58061C2.2272 3.28772 2.2272 2.81284 2.52009 2.51995Z" fill="black"/>
<path d="M8.25027 12.9772C8.66449 12.9772 9.00027 13.3129 9.00027 13.7272L9.00027 20.7272C9.00027 21.1414 8.66449 21.4772 8.25027 21.4772C7.83606 21.4772 7.50027 21.1414 7.50027 20.7272L7.50027 13.7272C7.50027 13.3129 7.83606 12.9772 8.25027 12.9772Z" fill="black"/>
<path d="M11.7503 14.9772C12.1645 14.9772 12.5003 15.3129 12.5003 15.7272L12.5003 22.7272C12.5003 23.1414 12.1645 23.4772 11.7503 23.4772C11.3361 23.4772 11.0003 23.1414 11.0003 22.7272L11.0003 15.7272C11.0003 15.3129 11.3361 14.9772 11.7503 14.9772Z" fill="black"/>
<path d="M16.0003 13.7272C16.0003 13.3129 15.6645 12.9772 15.2503 12.9772C14.8361 12.9772 14.5003 13.3129 14.5003 13.7272V20.7272C14.5003 21.1414 14.8361 21.4772 15.2503 21.4772C15.6645 21.4772 16.0003 21.1414 16.0003 20.7272L16.0003 13.7272Z" fill="black"/>
</svg>
