<svg width="24" height="24" viewBox="0 0 24 24" fill="none" xmlns="http://www.w3.org/2000/svg">
<path fill-rule="evenodd" clip-rule="evenodd" d="M2.67044 10.165C1.71127 11.2462 1.12882 12.6691 1.12882 14.2281C1.12882 17.092 3.09435 19.4968 5.75002 20.1671V17.8005C4.35682 17.2133 3.37882 15.8349 3.37882 14.2281C3.37882 12.088 5.11372 10.3531 7.25382 10.3531C7.36111 10.3531 7.46715 10.3574 7.57179 10.3659C8.1184 10.4101 8.64267 10.1287 8.90609 9.64369C9.64849 8.2769 11.0941 7.35311 12.7538 7.35311C15.0293 7.35311 16.9001 9.09111 17.1093 11.3113C17.1642 11.8937 17.6527 12.3532 18.2538 12.3531C19.8416 12.3531 21.1288 13.6403 21.1288 15.2281C21.1288 16.8159 19.8416 18.1031 18.2538 18.1031H17.75V20.3531H18.2538C21.0843 20.3531 23.3788 18.0586 23.3788 15.2281C23.3788 12.7206 21.578 10.6337 19.1992 10.1901C18.5053 7.2725 15.8835 5.10311 12.7538 5.10311C12.3019 5.10311 11.8607 5.14837 11.4343 5.23457C11.3465 3.35365 10.3344 1.71501 8.84669 0.761846L8.81794 0.743074C8.70995 0.672037 8.4604 0.507879 8.16808 0.441255C7.35541 0.256029 6.53403 0.716051 6.26737 1.50575C6.19369 1.72396 6.18849 1.93491 6.1864 2.02796C6.1839 2.13944 6.18665 2.2755 6.1894 2.41208L6.18979 2.43143C6.19025 2.45452 6.19048 2.47767 6.19048 2.50091C6.19048 4.36487 4.67944 5.87591 2.81548 5.87591C2.79225 5.87591 2.76909 5.87567 2.746 5.87521L2.72666 5.87482C2.59007 5.87207 2.45402 5.86933 2.34253 5.87183C2.24948 5.87391 2.03854 5.87911 1.82033 5.9528C1.03063 6.21945 0.570605 7.04084 0.75583 7.85351C0.822456 8.14582 0.986615 8.39538 1.05765 8.50337L1.07642 8.53211C1.4905 9.17842 2.03396 9.73497 2.67044 10.165ZM4.66572 8.67516C4.28144 8.53601 3.92949 8.32897 3.62432 8.06819C6.08358 7.71404 8.02862 5.769 8.38276 3.30974C8.88715 3.89999 9.19048 4.6652 9.19048 5.50091C9.19048 5.73618 9.16641 5.96584 9.12058 6.18754C8.35878 6.68813 7.70664 7.3414 7.20773 8.10328C6.29978 8.10997 5.43883 8.31422 4.66572 8.67516ZM18.2538 11.2035L18.2505 10.1031L18.2538 10.1031V11.2035Z" fill="black"/>
<path d="M8.25002 12.6031C8.87134 12.6031 9.37502 13.1068 9.37502 13.7281L9.37502 20.7281C9.37502 21.3494 8.87134 21.8531 8.25002 21.8531C7.6287 21.8531 7.12502 21.3494 7.12502 20.7281L7.12502 13.7281C7.12502 13.1068 7.6287 12.6031 8.25002 12.6031Z" fill="black"/>
<path d="M11.75 14.6031C12.3713 14.6031 12.875 15.1068 12.875 15.7281L12.875 22.7281C12.875 23.3494 12.3713 23.8531 11.75 23.8531C11.1287 23.8531 10.625 23.3494 10.625 22.7281L10.625 15.7281C10.625 15.1068 11.1287 14.6031 11.75 14.6031Z" fill="black"/>
<path d="M16.375 13.7281C16.375 13.1067 15.8713 12.6031 15.25 12.6031C14.6287 12.6031 14.125 13.1067 14.125 13.7281L14.125 20.7281C14.125 21.3494 14.6287 21.8531 15.25 21.8531C15.8713 21.8531 16.375 21.3494 16.375 20.7281L16.375 13.7281Z" fill="black"/>
</svg>
