<svg width="24" height="24" viewBox="0 0 24 24" fill="none" xmlns="http://www.w3.org/2000/svg">
<path fill-rule="evenodd" clip-rule="evenodd" d="M2.67032 10.164C1.71115 11.2452 1.1287 12.6681 1.1287 14.2271C1.1287 17.6099 3.87096 20.3521 7.2537 20.3521H9.51726C9.28167 19.8848 9.20138 19.3604 9.27794 18.8535C8.3033 19.1732 7.20533 18.8638 6.54678 18.0378C4.74424 17.7055 3.3787 16.1258 3.3787 14.2271C3.3787 12.087 5.1136 10.3521 7.2537 10.3521C7.36099 10.3521 7.46702 10.3565 7.57167 10.3649C8.11828 10.4091 8.64255 10.1277 8.90597 9.64271C9.64836 8.27593 11.094 7.35213 12.7537 7.35213C15.0292 7.35213 16.9 9.09014 17.1092 11.3103C17.1641 11.8928 17.6526 12.3522 18.2537 12.3521C19.8415 12.3521 21.1287 13.6393 21.1287 15.2271C21.1287 15.6112 21.0534 15.9777 20.9167 16.3127L22.2159 18.478C22.9425 17.5934 23.3787 16.4612 23.3787 15.2271C23.3787 12.7196 21.5779 10.6327 19.1991 10.1891C18.5052 7.27152 15.8833 5.10213 12.7537 5.10213C12.3018 5.10213 11.8605 5.14739 11.4342 5.23359C11.3464 3.35267 10.3343 1.71403 8.84657 0.76087L8.81782 0.742097C8.70983 0.67106 8.46028 0.506902 8.16796 0.440279C7.35529 0.255052 6.5339 0.715074 6.26725 1.50478C6.19357 1.72299 6.18836 1.93393 6.18628 2.02698C6.18378 2.13847 6.18652 2.27452 6.18927 2.4111L6.18966 2.43045C6.19013 2.45354 6.19036 2.4767 6.19036 2.49993C6.19036 4.36389 4.67932 5.87493 2.81536 5.87493C2.79213 5.87493 2.76897 5.8747 2.74588 5.87423L2.72654 5.87384C2.58995 5.87109 2.4539 5.86835 2.34241 5.87085C2.24936 5.87293 2.03842 5.87814 1.82021 5.95182C1.0305 6.21848 0.570483 7.03986 0.755708 7.85253C0.822334 8.14485 0.986493 8.3944 1.05753 8.50239L1.0763 8.53114C1.49038 9.17745 2.03383 9.734 2.67032 10.164ZM4.66559 8.67419C4.28132 8.53503 3.92937 8.32799 3.6242 8.06721C6.08345 7.71306 8.02849 5.76802 8.38264 3.30877C8.88703 3.89902 9.19036 4.66423 9.19036 5.49993C9.19036 5.73521 9.16628 5.96486 9.12046 6.18657C8.35866 6.68716 7.70652 7.34043 7.20761 8.1023C6.29966 8.10899 5.4387 8.31324 4.66559 8.67419ZM18.2537 11.2025L18.2504 10.1021L18.2537 10.1021V11.2025Z" fill="black"/>
<path d="M17.5094 20.3521L17.3485 20.084C17.3153 20.1749 17.2767 20.2645 17.2325 20.3521H17.5094Z" fill="black"/>
<path d="M6.37577 13.2911C6.89273 12.9464 7.59121 13.0861 7.93588 13.603L9.43591 15.8529C9.78057 16.3699 9.6409 17.0684 9.12394 17.413C8.60699 17.7577 7.9085 17.618 7.56384 17.1011L6.06381 14.8512C5.71914 14.3342 5.85882 13.6357 6.37577 13.2911Z" fill="black"/>
<path d="M12.1415 14.7809C12.6642 14.4449 13.3602 14.5962 13.6962 15.1188L15.9462 18.6188C16.1688 18.965 16.1845 19.4051 15.9873 19.7663C15.7901 20.1275 15.4114 20.3522 14.9999 20.3522H13.7632L14.708 21.8874C15.0336 22.4166 14.8687 23.1095 14.3395 23.4352C13.8104 23.7608 13.1174 23.5958 12.7918 23.0667L10.7918 19.8168C10.5782 19.4697 10.569 19.0342 10.7678 18.6784C10.9666 18.3226 11.3423 18.1022 11.7499 18.1022H12.9393L11.8036 16.3355C11.4676 15.8129 11.6189 15.1168 12.1415 14.7809Z" fill="black"/>
<path d="M18.4646 14.8983C18.1449 14.3655 17.4539 14.1928 16.9211 14.5124C16.3883 14.8321 16.2156 15.5231 16.5352 16.0559L19.3463 20.7411C19.666 21.2738 20.357 21.4466 20.8898 21.1269C21.4226 20.8073 21.5953 20.1162 21.2757 19.5835L18.4646 14.8983Z" fill="black"/>
</svg>
