<svg width="24" height="24" viewBox="0 0 24 24" fill="none" xmlns="http://www.w3.org/2000/svg">
<path d="M1.5 13.5002C1.22386 13.5002 1 13.7241 1 14.0002C1 14.2764 1.22386 14.5002 1.5 14.5002H10.4999V13.5002H8.37163C8.61546 11.7142 10.147 10.3381 11.9999 10.3381C13.8529 10.3381 15.3844 11.7142 15.6283 13.5002H13.4999V14.5002H22.4999C22.7761 14.5002 22.9999 14.2764 22.9999 14.0002C22.9999 13.7241 22.7761 13.5002 22.4999 13.5002H16.6356C16.3861 11.1605 14.4059 9.33808 11.9999 9.33808C9.59402 9.33808 7.61374 11.1605 7.36428 13.5002H1.5Z" fill="black"/>
<path d="M11.9999 3.00024C12.2761 3.00024 12.4999 3.2241 12.4999 3.50024V6.35318C12.4999 6.62932 12.2761 6.85318 11.9999 6.85318C11.7238 6.85318 11.4999 6.62932 11.4999 6.35318V3.50024C11.4999 3.2241 11.7238 3.00024 11.9999 3.00024Z" fill="black"/>
<path d="M19.7782 6.92926C19.9734 6.734 19.9734 6.41742 19.7782 6.22216C19.5829 6.0269 19.2663 6.0269 19.0711 6.22216L17.7609 7.53238C17.5656 7.72764 17.5656 8.04422 17.7609 8.23949C17.9561 8.43475 18.2727 8.43475 18.468 8.23949L19.7782 6.92926Z" fill="black"/>
<path d="M4.22169 6.22216C4.41695 6.0269 4.73353 6.0269 4.92879 6.22216L6.23902 7.53238C6.43428 7.72764 6.43428 8.04423 6.23901 8.23949C6.04375 8.43475 5.72717 8.43475 5.53191 8.23949L4.22169 6.92927C4.02643 6.734 4.02643 6.41742 4.22169 6.22216Z" fill="black"/>
<path d="M8.79635 18.1822C8.99161 18.3775 9.30819 18.3775 9.50346 18.1822L11.4999 16.1858V20.8287C11.4999 21.1048 11.7238 21.3287 11.9999 21.3287C12.2761 21.3287 12.4999 21.1048 12.4999 20.8287V16.2289L14.4532 18.1822C14.6485 18.3775 14.965 18.3775 15.1603 18.1822C15.3556 17.987 15.3556 17.6704 15.1603 17.4751L12.3319 14.6467C12.1366 14.4514 11.82 14.4514 11.6248 14.6467L8.79635 17.4751C8.60109 17.6704 8.60109 17.987 8.79635 18.1822Z" fill="black"/>
</svg>
