<svg width="24" height="24" viewBox="0 0 24 24" fill="none" xmlns="http://www.w3.org/2000/svg">
<path d="M0.000244141 8C0.000244116 7.44772 0.44796 7 1.00024 7H2.23554C2.78782 7 3.23554 7.44772 3.23554 8C3.23554 8.55229 2.78782 9 2.23554 9H1.00024C0.44796 9 0.000244165 8.55229 0.000244141 8Z" fill="black"/>
<path d="M8.00025 0C8.55253 -2.41412e-08 9.00025 0.447714 9.00025 1V2.23529C9.00025 2.78758 8.55253 3.23529 8.00025 3.23529C7.44796 3.23529 7.00024 2.78758 7.00024 2.23529V1C7.00024 0.447716 7.44796 2.41411e-08 8.00025 0Z" fill="black"/>
<path d="M13.6572 3.75739C14.0477 3.36686 14.0477 2.7337 13.6572 2.34317C13.2666 1.95265 12.6335 1.95265 12.243 2.34317L11.3695 3.21666C10.979 3.60718 10.979 4.24035 11.3695 4.63087C11.76 5.02139 12.3932 5.02139 12.7837 4.63087L13.6572 3.75739Z" fill="black"/>
<path fill-rule="evenodd" clip-rule="evenodd" d="M11.5345 5.21423C10.7104 4.17015 9.43361 3.5 8.00025 3.5C5.51496 3.5 3.50025 5.51472 3.50025 8C3.50025 8.43533 3.56206 8.85623 3.6774 9.25439C2.1339 10.3665 1.12905 12.1795 1.12905 14.2272C1.12905 17.0911 3.09458 19.4959 5.75025 20.1662V17.7996C4.35704 17.2124 3.37905 15.834 3.37905 14.2272C3.37905 12.0871 5.11394 10.3522 7.25405 10.3522C7.36133 10.3522 7.46737 10.3565 7.57202 10.365C8.11862 10.4092 8.64289 10.1277 8.90631 9.64278C9.64871 8.27599 11.0943 7.35219 12.754 7.35219C15.0295 7.35219 16.9004 9.0902 17.1095 11.3104C17.1644 11.8928 17.6529 12.3523 18.254 12.3522C19.8419 12.3522 21.129 13.6394 21.129 15.2272C21.129 16.815 19.8419 18.1022 18.254 18.1022H17.7502V20.3522H18.254C21.0845 20.3522 23.379 18.0577 23.379 15.2272C23.379 12.7197 21.5783 10.6328 19.1994 10.1892C18.5055 7.27158 15.8837 5.10219 12.754 5.10219C12.3374 5.10219 11.9298 5.14067 11.5345 5.21423ZM5.52452 8.34978C5.50852 8.23548 5.50025 8.11871 5.50025 8C5.50025 6.61929 6.61953 5.5 8.00025 5.5C8.54779 5.5 9.05423 5.67603 9.46605 5.97458C8.55536 6.49627 7.78068 7.22775 7.20796 8.10236C6.62373 8.10667 6.05895 8.19277 5.52452 8.34978ZM18.254 11.2025L18.2508 10.1022L18.254 10.1022V11.2025Z" fill="black"/>
<path d="M2.34332 2.34317C2.73384 1.95265 3.36701 1.95265 3.75753 2.34317L4.63101 3.21666C5.02154 3.60718 5.02154 4.24035 4.63101 4.63087C4.24049 5.02139 3.60732 5.02139 3.2168 4.63087L2.34332 3.75739C1.95279 3.36686 1.95279 2.7337 2.34332 2.34317Z" fill="black"/>
<path d="M8.25025 12.6022C8.87157 12.6022 9.37525 13.1058 9.37525 13.7272L9.37525 20.7272C9.37525 21.3485 8.87157 21.8522 8.25025 21.8522C7.62893 21.8522 7.12525 21.3485 7.12525 20.7272L7.12525 13.7272C7.12525 13.1058 7.62893 12.6022 8.25025 12.6022Z" fill="black"/>
<path d="M11.7502 14.6022C12.3716 14.6022 12.8752 15.1058 12.8752 15.7272L12.8752 22.7272C12.8752 23.3485 12.3716 23.8522 11.7502 23.8522C11.1289 23.8522 10.6252 23.3485 10.6252 22.7272L10.6252 15.7272C10.6252 15.1058 11.1289 14.6022 11.7502 14.6022Z" fill="black"/>
<path d="M16.3752 13.7272C16.3752 13.1058 15.8716 12.6022 15.2502 12.6022C14.6289 12.6022 14.1252 13.1058 14.1252 13.7272L14.1252 20.7272C14.1252 21.3485 14.6289 21.8522 15.2502 21.8522C15.8716 21.8522 16.3752 21.3485 16.3752 20.7272V13.7272Z" fill="black"/>
</svg>
