<svg width="24" height="24" viewBox="0 0 24 24" fill="none" xmlns="http://www.w3.org/2000/svg">
<path fill-rule="evenodd" clip-rule="evenodd" d="M1.36523 8.71452C1.25126 8.21448 1.53439 7.70893 2.0203 7.54485C2.14026 7.50435 2.26682 7.49858 2.35656 7.49657C2.45437 7.49438 2.57839 7.49687 2.72257 7.49977L2.73349 7.49999C2.76076 7.50053 2.78809 7.50081 2.81551 7.50081C5.02464 7.50081 6.8155 5.70995 6.81551 3.50081C6.81551 3.4734 6.81523 3.44606 6.81468 3.41879L6.81447 3.40792C6.81157 3.26372 6.80908 3.13968 6.81127 3.04186C6.81328 2.95212 6.81904 2.82556 6.85955 2.70561C7.02362 2.21969 7.52918 1.93656 8.02922 2.05053C8.20344 2.09024 8.35544 2.18847 8.47633 2.2666L8.50955 2.28801C9.89531 3.17584 10.8155 4.7307 10.8155 6.50081C10.8155 6.68936 10.8051 6.87547 10.7847 7.05861C11.4015 6.8444 12.064 6.72797 12.7538 6.72797C15.7337 6.72797 18.2057 8.89989 18.674 11.7473C20.9623 11.9592 22.7538 13.8844 22.7538 16.228C22.7538 18.7133 20.7391 20.728 18.2538 20.728H7.25384C4.21628 20.728 1.75384 18.2655 1.75384 15.228C1.75384 13.5461 2.50878 12.0405 3.69828 11.0316C2.83769 10.6288 2.11092 9.98808 1.6027 9.19485L1.5813 9.16164C1.50317 9.04075 1.40494 8.88875 1.36523 8.71452ZM4.71521 10.3476C5.47469 9.95176 6.33813 9.72797 7.25384 9.72797C7.35384 9.72797 7.45327 9.73065 7.55204 9.73593C8.06225 8.8507 8.79231 8.10761 9.66782 7.58148C9.76405 7.23773 9.81551 6.87528 9.81551 6.50081C9.81551 5.08567 9.08101 3.84177 7.97008 3.13001C7.8879 3.07736 7.8445 3.04983 7.8121 3.03175C7.81168 3.04071 7.81131 3.05145 7.81102 3.06426C7.80936 3.13816 7.81131 3.24059 7.81448 3.39874C7.81516 3.43268 7.81551 3.46671 7.81551 3.50081C7.8155 6.26223 5.57693 8.50081 2.81551 8.50081C2.78141 8.50081 2.74738 8.50047 2.71343 8.49978C2.55528 8.49661 2.45286 8.49467 2.37896 8.49632C2.36615 8.49661 2.3554 8.49699 2.34645 8.4974C2.36453 8.5298 2.39206 8.57321 2.44471 8.65539C2.96455 9.46677 3.76826 10.0773 4.71521 10.3476ZM18.2524 11.728L18.2538 11.728V12.2033L18.2524 11.728ZM17.7316 12.2525C17.7566 12.5184 17.9796 12.728 18.2538 12.728C20.1868 12.728 21.7538 14.295 21.7538 16.228C21.7538 18.161 20.1868 19.728 18.2538 19.728H7.25384C4.76856 19.728 2.75384 17.7133 2.75384 15.228C2.75384 12.7427 4.76856 10.728 7.25384 10.728C7.37797 10.728 7.50082 10.733 7.62221 10.7428C7.92329 10.7672 8.21198 10.612 8.3569 10.3452C9.20426 8.78521 10.856 7.72797 12.7538 7.72797C15.3548 7.72797 17.4924 9.71436 17.7316 12.2525Z" fill="black"/>
</svg>
