<svg width="24" height="24" viewBox="0 0 24 24" fill="none" xmlns="http://www.w3.org/2000/svg">
<path d="M10.8153 5.50008L10.8152 5.52126C9.33998 5.98164 8.09105 6.95341 7.27556 8.22729L7.25359 8.22725C5.70408 8.22725 4.29176 8.81463 3.22713 9.77887C2.57174 9.38159 2.01507 8.83813 1.60246 8.19412L1.58105 8.1609C1.50293 8.04002 1.40469 7.88801 1.36498 7.71379C1.25101 7.21375 1.53415 6.7082 2.02006 6.54412C2.14002 6.50361 2.26658 6.49785 2.35631 6.49584C2.45412 6.49365 2.57814 6.49614 2.72232 6.49904L2.73325 6.49925C2.76051 6.4998 2.78785 6.50008 2.81526 6.50008C5.0244 6.50008 6.81526 4.70922 6.81526 2.50008C6.81526 2.47267 6.81499 2.44533 6.81444 2.41806L6.81422 2.40719C6.81133 2.26299 6.80883 2.13895 6.81103 2.04113C6.81304 1.95139 6.8188 1.82483 6.85931 1.70487C7.02338 1.21896 7.52893 0.935827 8.02897 1.0498C8.2032 1.08951 8.3552 1.18774 8.47609 1.26587L8.5093 1.28727C9.89506 2.17511 10.8153 3.72997 10.8153 5.50008Z" fill="black"/>
<path d="M6.86104 14.0192C6.97592 13.9426 7.13114 13.9737 7.20773 14.0885L8.70776 16.3384C8.78435 16.4533 8.75331 16.6085 8.63843 16.6851C8.52355 16.7617 8.36834 16.7307 8.29174 16.6158L6.79171 14.3659C6.71512 14.251 6.74616 14.0958 6.86104 14.0192Z" fill="black"/>
<path fill-rule="evenodd" clip-rule="evenodd" d="M7.55179 8.7352C8.58731 6.93849 10.5287 5.72724 12.7536 5.72724C15.7334 5.72724 18.2055 7.89916 18.6738 10.7466C20.9621 10.9585 22.7536 12.8836 22.7536 15.2272C22.7536 16.8746 21.8684 18.3152 20.5477 19.0994L18.1429 15.0914C17.9298 14.7362 17.4691 14.621 17.1139 14.8341C16.7587 15.0472 16.6436 15.5079 16.8567 15.8631L19.1246 19.643C18.8428 19.6983 18.5516 19.7272 18.2536 19.7272H15.5589C15.5968 19.6849 15.6301 19.6379 15.6581 19.5867C15.7895 19.3459 15.779 19.0526 15.6307 18.8218L13.3807 15.3218C13.1567 14.9733 12.6926 14.8725 12.3442 15.0965C11.9958 15.3204 11.8949 15.7845 12.1189 16.1329L13.626 18.4773H11.7498C11.4781 18.4773 11.2276 18.6243 11.0951 18.8615C10.9625 19.0987 10.9686 19.389 11.111 19.6204L11.1768 19.7272H7.2536C4.21603 19.7272 1.7536 17.2648 1.7536 14.2272C1.7536 11.1897 4.21603 8.72724 7.2536 8.72724C7.3536 8.72724 7.45302 8.72992 7.55179 8.7352ZM18.2536 10.7272L18.2521 10.7272L18.2535 11.2026L18.2536 10.7272ZM7.62375 13.8112C7.39397 13.4666 6.92832 13.3735 6.58368 13.6032C6.23904 13.833 6.14593 14.2987 6.3757 14.6433L7.87573 16.8932C8.10551 17.2378 8.57116 17.3309 8.9158 17.1012C9.26044 16.8714 9.35356 16.4057 9.12378 16.0611L7.62375 13.8112Z" fill="black"/>
<path d="M12.6146 15.517C12.7307 15.4423 12.8854 15.476 12.9601 15.5921L15.2101 19.0921C15.2595 19.169 15.263 19.2668 15.2192 19.3471C15.1754 19.4274 15.0912 19.4773 14.9998 19.4773H12.1972L13.9627 22.3462C14.035 22.4637 13.9984 22.6177 13.8808 22.6901C13.7632 22.7625 13.6092 22.7258 13.5369 22.6082L11.5369 19.3583C11.4894 19.2812 11.4873 19.1844 11.5315 19.1054C11.5757 19.0263 11.6592 18.9773 11.7498 18.9773H14.5419L12.5395 15.8625C12.4648 15.7463 12.4984 15.5917 12.6146 15.517Z" fill="black"/>
<path d="M17.7142 15.3486C17.6431 15.2302 17.4896 15.1918 17.3712 15.2628C17.2528 15.3339 17.2144 15.4874 17.2854 15.6058L20.0965 20.291C20.1675 20.4094 20.3211 20.4478 20.4395 20.3767C20.5579 20.3057 20.5963 20.1521 20.5252 20.0337L17.7142 15.3486Z" fill="black"/>
</svg>
