<svg width="24" height="24" viewBox="0 0 24 24" fill="none" xmlns="http://www.w3.org/2000/svg">
<path fill-rule="evenodd" clip-rule="evenodd" d="M1.36523 7.71452C1.25126 7.21448 1.53439 6.70893 2.0203 6.54485C2.14026 6.50435 2.26682 6.49858 2.35656 6.49657C2.45438 6.49438 2.57842 6.49687 2.72261 6.49977L2.73349 6.49999C2.76076 6.50053 2.78809 6.50081 2.81551 6.50081C5.02464 6.50081 6.81551 4.70995 6.81551 2.50081C6.81551 2.4734 6.81523 2.44606 6.81468 2.41879L6.81447 2.40792C6.81157 2.26372 6.80908 2.13968 6.81127 2.04186C6.81328 1.95212 6.81904 1.82556 6.85955 1.70561C7.02362 1.2197 7.52918 0.936561 8.02922 1.05053C8.20344 1.09024 8.35544 1.18847 8.47633 1.2666L8.50955 1.28801C9.89531 2.17584 10.8155 3.7307 10.8155 5.50081C10.8155 5.68936 10.8051 5.87548 10.7847 6.05861C11.4015 5.8444 12.064 5.72797 12.7538 5.72797C15.7337 5.72797 18.2057 7.89989 18.674 10.7473C20.9623 10.9592 22.7538 12.8844 22.7538 15.228C22.7538 17.7133 20.7391 19.728 18.2538 19.728H16.75V18.728H18.2538C20.1868 18.728 21.7538 17.161 21.7538 15.228C21.7538 13.295 20.1868 11.728 18.2538 11.728C17.9796 11.728 17.7566 11.5184 17.7316 11.2525C17.4924 8.71436 15.3548 6.72797 12.7538 6.72797C10.856 6.72797 9.20426 7.78521 8.3569 9.34524C8.21198 9.61205 7.92329 9.76717 7.62221 9.74281C7.50082 9.73299 7.37797 9.72797 7.25384 9.72797C4.76856 9.72797 2.75384 11.7427 2.75384 14.228C2.75384 16.5429 4.5019 18.4496 6.75004 18.7001V19.7052C3.94861 19.4508 1.75384 17.0957 1.75384 14.228C1.75384 12.5461 2.50878 11.0405 3.69828 10.0316C2.83769 9.62877 2.11092 8.98808 1.6027 8.19485L1.5813 8.16164C1.50317 8.04075 1.40494 7.88875 1.36523 7.71452ZM4.71521 9.34763C5.47469 8.95176 6.33813 8.72797 7.25384 8.72797C7.35384 8.72798 7.45327 8.73065 7.55204 8.73593C8.06225 7.8507 8.79231 7.10761 9.66782 6.58148C9.76405 6.23773 9.81551 5.87528 9.81551 5.50081C9.81551 4.08567 9.08101 2.84177 7.97008 2.13002C7.8879 2.07737 7.8445 2.04983 7.8121 2.03175C7.81168 2.04071 7.81131 2.05145 7.81102 2.06426C7.80936 2.13816 7.81131 2.24059 7.81448 2.39873C7.81516 2.43269 7.81551 2.46671 7.81551 2.50081C7.81551 5.26223 5.57693 7.50081 2.81551 7.50081C2.78141 7.50081 2.74738 7.50047 2.71343 7.49978C2.55528 7.49661 2.45286 7.49467 2.37896 7.49632C2.36615 7.49661 2.3554 7.49699 2.34645 7.49741C2.36453 7.52981 2.39206 7.57321 2.44471 7.65539C2.96455 8.46677 3.76826 9.07735 4.71521 9.34763ZM18.2524 10.728L18.2538 10.728V11.2033L18.2524 10.728Z" fill="black"/>
<path d="M13.75 19.728V18.728H13.25V19.728H13.75Z" fill="black"/>
<path d="M10.25 19.728V18.728H9.75004V19.728H10.25Z" fill="black"/>
<path d="M8.25004 13.2279C8.52619 13.2279 8.75004 13.4518 8.75004 13.7279L8.75004 20.7279C8.75004 21.0041 8.52619 21.2279 8.25004 21.2279C7.9739 21.2279 7.75004 21.0041 7.75004 20.7279L7.75004 13.7279C7.75004 13.4518 7.9739 13.2279 8.25004 13.2279Z" fill="black"/>
<path d="M11.75 15.2279C12.0262 15.2279 12.25 15.4518 12.25 15.7279L12.25 22.7279C12.25 23.0041 12.0262 23.2279 11.75 23.2279C11.4739 23.2279 11.25 23.0041 11.25 22.7279L11.25 15.7279C11.25 15.4518 11.4739 15.2279 11.75 15.2279Z" fill="black"/>
<path d="M15.75 13.7279C15.75 13.4518 15.5262 13.2279 15.25 13.2279C14.9739 13.2279 14.75 13.4518 14.75 13.7279L14.75 20.7279C14.75 21.0041 14.9739 21.2279 15.25 21.2279C15.5262 21.2279 15.75 21.0041 15.75 20.7279L15.75 13.7279Z" fill="black"/>
</svg>
