<svg width="25" height="25" viewBox="0 0 25 25" fill="none" xmlns="http://www.w3.org/2000/svg">
<path d="M0.875 9C0.875 8.37868 1.37868 7.875 2 7.875H3.23529C3.85661 7.875 4.36029 8.37868 4.36029 9C4.36029 9.17313 4.32119 9.33712 4.25133 9.48363C3.9844 9.66999 3.73107 9.87448 3.49312 10.0953C3.41032 10.1147 3.32401 10.125 3.23529 10.125H2C1.37868 10.125 0.875 9.62132 0.875 9Z" fill="black"/>
<path d="M7.73967 8.2458C8.54997 7.1601 9.64867 6.29995 10.9231 5.77999C10.3608 5.44344 9.70299 5.25 9 5.25C6.96168 5.25 5.3032 6.87626 5.25126 8.90205C6.01475 8.53898 6.85438 8.31007 7.73967 8.2458Z" fill="black"/>
<path d="M13.7538 5.22721C13.9515 5.22721 14.1474 5.23485 14.3412 5.24986L14.7453 4.84578C15.1847 4.40643 15.1847 3.69412 14.7453 3.25478C14.306 2.81544 13.5937 2.81544 13.1543 3.25478L12.2808 4.12827C11.9319 4.4772 11.8601 4.99831 12.0654 5.4181C12.608 5.29323 13.1731 5.22721 13.7538 5.22721Z" fill="black"/>
<path d="M10.125 2C10.125 1.37868 9.62132 0.875 9 0.875C8.37868 0.875 7.875 1.37868 7.875 2V3.23529C7.875 3.85661 8.37868 4.36029 9 4.36029C9.62132 4.36029 10.125 3.85661 10.125 3.23529V2Z" fill="black"/>
<path fill-rule="evenodd" clip-rule="evenodd" d="M13.5352 14.9958C13.3965 14.9409 13.2665 14.8574 13.1543 14.7452L12.7294 14.3203C11.7766 13.7839 10.5471 13.9212 9.73605 14.7322C8.75974 15.7085 8.75974 17.2914 9.73605 18.2678L9.98859 18.5203C9.87144 18.6799 9.77212 18.855 9.69412 19.0433C9.50207 19.5069 9.45802 20.0053 9.54979 20.4772H8.25381C5.35431 20.4772 3.00381 18.1267 3.00381 15.2272C3.00381 12.3277 5.35431 9.9772 8.25381 9.9772C8.36089 9.9772 8.46726 9.98041 8.57281 9.98674C8.62946 9.99014 8.66197 9.992 8.68564 9.99214L8.69144 9.99213L8.6945 9.98744C8.70719 9.96768 8.72322 9.93966 8.7511 9.89058C9.73933 8.15131 11.6093 6.9772 13.7538 6.9772C16.6769 6.9772 19.0904 9.15825 19.4559 11.9819C21.7093 12.0874 23.5038 13.9477 23.5038 16.2272C23.5038 18.5744 21.601 20.4772 19.2538 20.4772H17.458C17.6146 19.672 17.3667 18.8273 16.7716 18.2322L13.5352 14.9958Z" fill="black"/>
<path d="M3.25468 3.25478C3.69402 2.81545 4.40633 2.81545 4.84567 3.25478L5.71916 4.12827C6.1585 4.56761 6.1585 5.27992 5.71916 5.71926C5.27982 6.1586 4.56751 6.1586 4.12817 5.71926L3.25468 4.84577C2.81534 4.40643 2.81534 3.69412 3.25468 3.25478Z" fill="black"/>
<path d="M10.7083 15.7045C11.1477 15.2652 11.86 15.2652 12.2993 15.7045L15.7993 19.2045C16.1211 19.5262 16.2173 20.0101 16.0432 20.4305C15.869 20.8509 15.4588 21.125 15.0038 21.125H14.7198L16.2993 22.7045C16.7386 23.1438 16.7386 23.8561 16.2993 24.2955C15.86 24.7348 15.1477 24.7348 14.7083 24.2955L11.2083 20.7955C10.8866 20.4737 10.7903 19.9898 10.9644 19.5695C11.1386 19.1491 11.5488 18.875 12.0038 18.875H12.2878L10.7083 17.2955C10.269 16.8561 10.269 16.1438 10.7083 15.7045Z" fill="black"/>
</svg>
