<svg width="24" height="24" viewBox="0 0 24 24" fill="none" xmlns="http://www.w3.org/2000/svg">
<path d="M8.5093 0.287275C9.88989 1.17179 10.8084 2.71837 10.8152 4.48026C9.1613 4.92168 7.73342 5.91407 6.73946 7.24585C5.349 7.34679 4.07119 7.85387 3.02411 8.64901C2.45649 8.26642 1.97177 7.77054 1.60246 7.19412L1.58105 7.1609C1.50293 7.04002 1.40469 6.88801 1.36498 6.71379C1.25101 6.21375 1.53415 5.70819 2.02006 5.54412C2.14002 5.50361 2.26658 5.49785 2.35631 5.49584C2.45412 5.49365 2.57814 5.49614 2.72232 5.49904L2.73325 5.49925C2.76051 5.4998 2.78785 5.50008 2.81526 5.50008C5.0244 5.50008 6.81526 3.70921 6.81526 1.50008C6.81526 1.47267 6.81499 1.44533 6.81444 1.41806L6.81422 1.40719C6.81133 1.26299 6.80883 1.13895 6.81103 1.04113C6.81304 0.951393 6.8188 0.824832 6.85931 0.704875C7.02338 0.218963 7.52893 -0.0641714 8.02897 0.0497965C8.2032 0.0895074 8.3552 0.187742 8.47609 0.265867L8.5093 0.287275Z" fill="black"/>
<path fill-rule="evenodd" clip-rule="evenodd" d="M7.55179 8.7352C8.58731 6.93849 10.5287 5.72724 12.7536 5.72724C15.7334 5.72724 18.2055 7.89916 18.6738 10.7466C20.9621 10.9585 22.7536 12.8836 22.7536 15.2272C22.7536 17.7125 20.7389 19.7272 18.2536 19.7272H17.2498L17.2498 13.7272C17.2498 12.6227 16.3544 11.7272 15.2498 11.7272C14.1452 11.7272 13.2498 12.6227 13.2498 13.7272V14.4043C12.8833 13.9891 12.3471 13.7272 11.7498 13.7272C11.1524 13.7272 10.6163 13.9891 10.2498 14.4043V13.7272C10.2498 12.6227 9.35435 11.7272 8.24979 11.7272C7.14522 11.7272 6.24979 12.6227 6.24979 13.7272V19.6359C3.69156 19.1641 1.7536 16.922 1.7536 14.2272C1.7536 11.1897 4.21603 8.72724 7.2536 8.72724C7.3536 8.72724 7.45302 8.72992 7.55179 8.7352ZM18.2536 10.7272L18.2521 10.7272L18.2535 11.2026L18.2536 10.7272Z" fill="black"/>
<path d="M8.24979 12.7272C8.80207 12.7272 9.24979 13.1749 9.24979 13.7272V20.7272C9.24979 21.2795 8.80207 21.7272 8.24979 21.7272C7.6975 21.7272 7.24979 21.2795 7.24979 20.7272V13.7272C7.24979 13.1749 7.6975 12.7272 8.24979 12.7272Z" fill="black"/>
<path d="M11.7498 14.7272C12.3021 14.7272 12.7498 15.1749 12.7498 15.7272L12.7498 22.7272C12.7498 23.2795 12.3021 23.7272 11.7498 23.7272C11.1975 23.7272 10.7498 23.2795 10.7498 22.7272V15.7272C10.7498 15.1749 11.1975 14.7272 11.7498 14.7272Z" fill="black"/>
<path d="M16.2498 13.7272C16.2498 13.1749 15.8021 12.7272 15.2498 12.7272C14.6975 12.7272 14.2498 13.1749 14.2498 13.7272V20.7272C14.2498 21.2795 14.6975 21.7272 15.2498 21.7272C15.8021 21.7272 16.2498 21.2795 16.2498 20.7272L16.2498 13.7272Z" fill="black"/>
</svg>
