<svg width="24" height="24" viewBox="0 0 24 24" fill="none" xmlns="http://www.w3.org/2000/svg">
<path fill-rule="evenodd" clip-rule="evenodd" d="M1.36498 8.71379C1.25101 8.21375 1.53415 7.7082 2.02006 7.54412C2.14002 7.50361 2.26658 7.49785 2.35631 7.49584C2.45412 7.49365 2.57814 7.49614 2.72232 7.49904L2.73325 7.49925C2.76051 7.4998 2.78785 7.50008 2.81526 7.50008C5.0244 7.50008 6.81526 5.70922 6.81526 3.50008C6.81526 3.47267 6.81499 3.44533 6.81444 3.41806L6.81422 3.40719C6.81132 3.26299 6.80883 3.13895 6.81103 3.04113C6.81304 2.95139 6.8188 2.82483 6.8593 2.70487C7.02338 2.21896 7.52893 1.93583 8.02897 2.0498C8.2032 2.08951 8.3552 2.18774 8.47609 2.26587L8.5093 2.28727C9.89506 3.17511 10.8153 4.72997 10.8153 6.50008C10.8153 6.68863 10.8048 6.87474 10.7845 7.05787C11.4012 6.84367 12.0638 6.72724 12.7536 6.72724C15.7334 6.72724 18.2055 8.89916 18.6738 11.7466C20.9621 11.9585 22.7536 13.8836 22.7536 16.2272C22.7536 18.7125 20.7389 20.7272 18.2536 20.7272H7.2536C4.21603 20.7272 1.7536 18.2648 1.7536 15.2272C1.7536 13.5453 2.50854 12.0398 3.69804 11.0309C2.83744 10.628 2.11067 9.98735 1.60246 9.19412L1.58105 9.1609C1.50293 9.04001 1.40469 8.88801 1.36498 8.71379ZM4.71497 10.3469C5.47444 9.95103 6.33789 9.72724 7.2536 9.72724C7.3536 9.72724 7.45302 9.72992 7.55179 9.7352C8.06201 8.84997 8.79207 8.10688 9.66757 7.58075C9.7638 7.237 9.81526 6.87455 9.81526 6.50008C9.81526 5.08494 9.08077 3.84104 7.96984 3.12928C7.88766 3.07663 7.84426 3.0491 7.81186 3.03102C7.81144 3.03998 7.81106 3.05072 7.81077 3.06353C7.80912 3.13743 7.81107 3.23985 7.81424 3.398C7.81492 3.43195 7.81526 3.46598 7.81526 3.50008C7.81526 6.2615 5.57668 8.50008 2.81526 8.50008C2.78116 8.50008 2.74714 8.49973 2.71319 8.49905C2.55504 8.49588 2.45261 8.49393 2.37871 8.49559C2.36591 8.49588 2.35516 8.49625 2.3462 8.49667C2.36428 8.52907 2.39182 8.57248 2.44447 8.65465C2.96431 9.46603 3.76801 10.0766 4.71497 10.3469ZM18.2521 11.7272L18.2536 11.7272V12.2026L18.2521 11.7272ZM17.7313 12.2518C17.7564 12.5177 17.9794 12.7273 18.2536 12.7272C20.1866 12.7272 21.7536 14.2942 21.7536 16.2272C21.7536 18.1602 20.1866 19.7272 18.2536 19.7272H7.2536C4.76832 19.7272 2.7536 17.7125 2.7536 15.2272C2.7536 12.742 4.76832 10.7272 7.2536 10.7272C7.37773 10.7272 7.50057 10.7323 7.62197 10.7421C7.92305 10.7664 8.21174 10.6113 8.35666 10.3445C9.20401 8.78448 10.8557 7.72724 12.7536 7.72724C15.3546 7.72724 17.4922 9.71362 17.7313 12.2518Z" fill="black"/>
</svg>
