<svg width="24" height="24" viewBox="0 0 24 24" fill="none" xmlns="http://www.w3.org/2000/svg">
<path fill-rule="evenodd" clip-rule="evenodd" d="M2.86117 10.14C1.86379 11.2114 1.25368 12.6481 1.25368 14.2274C1.25368 17.5411 3.93997 20.2274 7.25368 20.2274H7.43904L6.09116 18.0558C4.44899 17.5578 3.25368 16.0322 3.25368 14.2274C3.25368 12.0182 5.04454 10.2274 7.25368 10.2274C7.36434 10.2274 7.47374 10.2318 7.58173 10.2406C8.07923 10.2808 8.55639 10.0246 8.79611 9.58328C9.55949 8.17784 11.0463 7.22736 12.7537 7.22736C15.0942 7.22736 17.0185 9.01504 17.2336 11.2988C17.2825 11.818 17.718 12.2274 18.2537 12.2274C19.9105 12.2274 21.2537 13.5705 21.2537 15.2274C21.2537 16.3415 20.6463 17.3138 19.7446 17.8312L20.7739 19.5467C22.2573 18.6793 23.2537 17.0697 23.2537 15.2274C23.2537 12.7529 21.4563 10.6983 19.0958 10.298C18.4442 7.39539 15.8526 5.22736 12.7537 5.22736C12.2589 5.22736 11.7772 5.28264 11.3142 5.38734C11.2759 3.48663 10.2728 1.82334 8.77911 0.866346L8.74855 0.846449C8.63796 0.773977 8.40831 0.623493 8.14016 0.562378C7.39002 0.391403 6.6318 0.816046 6.38566 1.54499C6.31861 1.74355 6.3133 1.93762 6.31123 2.03001C6.30879 2.13874 6.31148 2.27234 6.31426 2.4102L6.31462 2.42817C6.3151 2.45209 6.31534 2.47609 6.31534 2.50015C6.31534 4.43315 4.74834 6.00015 2.81534 6.00015C2.79127 6.00015 2.76728 5.99991 2.74335 5.99943L2.72542 5.99907C2.58763 5.9963 2.45388 5.99361 2.34519 5.99604C2.25281 5.99811 2.05874 6.00343 1.86018 6.07047C1.13123 6.31661 0.706589 7.07483 0.877563 7.82498C0.93868 8.09313 1.08916 8.32277 1.16163 8.43336L1.18153 8.46393C1.61247 9.13654 2.18662 9.70968 2.86117 10.14ZM4.67243 8.80943C4.16602 8.63464 3.71206 8.34677 3.34068 7.97539C5.95891 7.72729 8.04248 5.64372 8.29058 3.02549C8.9247 3.65962 9.31534 4.53446 9.31534 5.50015C9.31534 5.76229 9.28652 6.01769 9.23188 6.26337C8.4472 6.77021 7.77889 7.44127 7.27565 8.22739L7.25368 8.22736C6.32959 8.22736 5.45429 8.43627 4.67243 8.80943ZM18.2508 10.2274L18.2537 10.2274V11.2027L18.2508 10.2274Z" fill="black"/>
<path d="M16.5176 20.2274L15.3176 18.2274H15.2318L16.3747 20.2274H16.5176Z" fill="black"/>
<path d="M6.47251 14.8778C6.94175 14.5865 7.55826 14.7308 7.84951 15.2L12.1656 22.1536C12.4569 22.6229 12.3126 23.2394 11.8433 23.5306C11.3741 23.8219 10.7576 23.6776 10.4663 23.2084L6.15024 16.2548C5.85898 15.7855 6.00327 15.169 6.47251 14.8778Z" fill="black"/>
<path d="M11.0037 14.8593C11.4832 14.5852 12.0941 14.7518 12.3681 15.2314L16.3681 22.2314C16.6421 22.7109 16.4755 23.3217 15.996 23.5957C15.5165 23.8697 14.9056 23.7031 14.6316 23.2236L10.6316 16.2236C10.3576 15.7441 10.5242 15.1333 11.0037 14.8593Z" fill="black"/>
<path d="M16.8574 14.9628C16.5732 14.4892 15.959 14.3356 15.4854 14.6198C15.0118 14.9039 14.8583 15.5182 15.1424 15.9918L19.5128 23.2758C19.7969 23.7493 20.4112 23.9029 20.8848 23.6188C21.3584 23.3346 21.5119 22.7204 21.2278 22.2468L16.8574 14.9628Z" fill="black"/>
</svg>
