<svg width="24" height="24" viewBox="0 0 24 24" fill="none" xmlns="http://www.w3.org/2000/svg">
<path fill-rule="evenodd" clip-rule="evenodd" d="M1.36523 7.71452C1.25126 7.21448 1.53439 6.70893 2.0203 6.54485C2.14026 6.50435 2.26682 6.49858 2.35656 6.49657C2.45437 6.49438 2.57839 6.49687 2.72257 6.49977L2.73349 6.49999C2.76076 6.50053 2.78809 6.50081 2.81551 6.50081C5.02464 6.50081 6.81551 4.70995 6.81551 2.50081C6.81551 2.4734 6.81523 2.44606 6.81468 2.41879L6.81447 2.40792C6.81157 2.26372 6.80908 2.13968 6.81127 2.04186C6.81328 1.95212 6.81904 1.82556 6.85955 1.70561C7.02362 1.21969 7.52918 0.93656 8.02922 1.05053C8.20344 1.09024 8.35544 1.18847 8.47633 1.2666L8.50955 1.28801C9.89531 2.17584 10.8155 3.7307 10.8155 5.50081C10.8155 5.68936 10.8051 5.87547 10.7847 6.05861C11.4015 5.8444 12.064 5.72797 12.7538 5.72797C15.7337 5.72797 18.2057 7.89989 18.674 10.7473C20.9623 10.9592 22.7538 12.8844 22.7538 15.228C22.7538 16.6052 22.1352 17.8379 21.1606 18.6633L20.6372 17.7911C21.3242 17.1521 21.7538 16.2402 21.7538 15.228C21.7538 13.295 20.1868 11.728 18.2538 11.728C17.9796 11.728 17.7566 11.5184 17.7316 11.2525C17.4924 8.71436 15.3548 6.72797 12.7538 6.72797C10.856 6.72797 9.20426 7.78521 8.3569 9.34524C8.21198 9.61205 7.92329 9.76717 7.62221 9.74281C7.50082 9.73299 7.37797 9.72797 7.25384 9.72797C4.76856 9.72797 2.75384 11.7427 2.75384 14.228C2.75384 16.7133 4.76856 18.728 7.25384 18.728H10.3358C10.2212 19.0519 10.2217 19.4052 10.3358 19.728H7.25384C4.21628 19.728 1.75384 17.2655 1.75384 14.228C1.75384 12.5461 2.50878 11.0405 3.69828 10.0316C2.83769 9.62877 2.11092 8.98808 1.6027 8.19485L1.5813 8.16164C1.50317 8.04075 1.40494 7.88875 1.36523 7.71452ZM4.71521 9.34763C5.47469 8.95176 6.33813 8.72797 7.25384 8.72797C7.35384 8.72797 7.45327 8.73065 7.55204 8.73593C8.06225 7.8507 8.79231 7.10761 9.66782 6.58148C9.76405 6.23773 9.81551 5.87528 9.81551 5.50081C9.81551 4.08567 9.08101 2.84177 7.97009 2.13002C7.88791 2.07736 7.8445 2.04983 7.8121 2.03175C7.81168 2.04071 7.81131 2.05145 7.81102 2.06426C7.80936 2.13816 7.81131 2.24059 7.81448 2.39874C7.81516 2.43268 7.81551 2.46671 7.81551 2.50081C7.81551 5.26223 5.57693 7.50081 2.81551 7.50081C2.78141 7.50081 2.74738 7.50047 2.71343 7.49978C2.55528 7.49661 2.45286 7.49467 2.37896 7.49632C2.36615 7.49661 2.3554 7.49699 2.34645 7.4974C2.36453 7.5298 2.39206 7.57321 2.44471 7.65539C2.96455 8.46677 3.76826 9.07735 4.71521 9.34763ZM18.2524 10.728L18.2538 10.728V11.2033L18.2524 10.728Z" fill="black"/>
<path d="M18.3006 19.7277L17.7008 18.728H16.4143C16.5282 19.0503 16.529 19.4037 16.4143 19.728H18.2538L18.3006 19.7277Z" fill="black"/>
<path d="M6.72262 13.8119C6.95238 13.6587 7.26282 13.7208 7.416 13.9506L8.91603 16.2005C9.06922 16.4302 9.00714 16.7407 8.77738 16.8938C8.54762 17.047 8.23718 16.9849 8.084 16.7552L6.58397 14.5053C6.43079 14.2756 6.49286 13.9651 6.72262 13.8119Z" fill="black"/>
<path d="M12.4797 15.3074C12.7119 15.1581 13.0213 15.2254 13.1706 15.4577L15.4206 18.9577C15.5195 19.1115 15.5265 19.3071 15.4389 19.4676C15.3512 19.6282 15.1829 19.728 15 19.728H12.6448L14.1759 22.2159C14.3206 22.451 14.2473 22.759 14.0121 22.9037C13.7769 23.0485 13.4689 22.9751 13.3242 22.74L11.3242 19.4901C11.2293 19.3358 11.2252 19.1423 11.3136 18.9841C11.4019 18.826 11.5689 18.728 11.75 18.728H14.0842L12.3294 15.9984C12.1801 15.7661 12.2474 15.4568 12.4797 15.3074Z" fill="black"/>
<path d="M17.9288 15.2207C17.7867 14.9839 17.4796 14.9071 17.2428 15.0492C17.006 15.1913 16.9292 15.4984 17.0713 15.7352L19.8824 20.4204C20.0245 20.6571 20.3316 20.7339 20.5684 20.5919C20.8052 20.4498 20.882 20.1426 20.7399 19.9059L17.9288 15.2207Z" fill="black"/>
</svg>
