<svg width="24" height="24" viewBox="0 0 24 24" fill="none" xmlns="http://www.w3.org/2000/svg">
<path d="M10.5659 4.49999L10.5656 4.55169C9.01802 5.0233 7.68358 5.98165 6.74011 7.24579C5.44366 7.3399 4.24513 7.7871 3.24025 8.49167C2.58004 8.06478 2.03256 7.47863 1.6522 6.78779C1.49835 6.50834 1.56658 6.21699 1.73692 6.0184C1.90172 5.82628 2.16675 5.7101 2.44658 5.73418C2.56824 5.74464 2.69142 5.74999 2.8159 5.74999C5.16311 5.74999 7.0659 3.8472 7.0659 1.49999C7.0659 1.3755 7.06056 1.25232 7.05009 1.13066C7.02602 0.850831 7.1422 0.585799 7.33432 0.421004C7.5329 0.250659 7.82426 0.182427 8.10371 0.336284C9.57088 1.14407 10.5659 2.70565 10.5659 4.49999Z" fill="black"/>
<path fill-rule="evenodd" clip-rule="evenodd" d="M7.75154 8.89056C8.73977 7.15129 10.6097 5.97718 12.7542 5.97718C15.6774 5.97718 18.0908 8.15823 18.4564 10.9819C20.7097 11.0874 22.5042 12.9477 22.5042 15.2272C22.5042 17.5744 20.6015 19.4772 18.2542 19.4772H16.4584C16.6151 18.672 16.3671 17.8273 15.772 17.2322L12.272 13.7322C11.2957 12.7559 9.7128 12.7559 8.73649 13.7322C7.76018 14.7085 7.76018 16.2914 8.73649 17.2677L8.98903 17.5203C8.87188 17.6798 8.77256 17.855 8.69455 18.0433C8.50251 18.5069 8.45846 19.0053 8.55022 19.4772H7.25425C4.35475 19.4772 2.00425 17.1267 2.00425 14.2272C2.00425 11.3277 4.35475 8.97718 7.25425 8.97718C7.36133 8.97718 7.4677 8.98039 7.57325 8.98672C7.6299 8.99012 7.6624 8.99198 7.68608 8.99212L7.69187 8.99211L7.69494 8.98742C7.70763 8.96767 7.72365 8.93964 7.75154 8.89056Z" fill="black"/>
<path d="M9.70875 14.7045C10.1481 14.2651 10.8604 14.2651 11.2997 14.7045L14.7997 18.2045C15.1215 18.5262 15.2177 19.0101 15.0436 19.4305C14.8695 19.8509 14.4593 20.125 14.0042 20.125H13.7202L15.2997 21.7045C15.7391 22.1438 15.7391 22.8561 15.2997 23.2955C14.8604 23.7348 14.1481 23.7348 13.7088 23.2955L10.2088 19.7955C9.88701 19.4737 9.79076 18.9898 9.96488 18.5694C10.139 18.1491 10.5492 17.875 11.0042 17.875H11.2883L9.70875 16.2955C9.26941 15.8561 9.26941 15.1438 9.70875 14.7045Z" fill="black"/>
</svg>
