<svg width="24" height="24" viewBox="0 0 24 24" fill="none" xmlns="http://www.w3.org/2000/svg">
<path d="M0.25 14C0.25 13.3096 0.809644 12.75 1.5 12.75H6.73285C7.29706 10.3636 9.44113 8.58783 11.9999 8.58783C14.5588 8.58783 16.7028 10.3636 17.267 12.75H22.4999C23.1903 12.75 23.7499 13.3096 23.7499 14C23.7499 14.6904 23.1903 15.25 22.4999 15.25H16.1173L14.75 13.8827V13.5501C14.75 12.0313 13.5188 10.8001 12 10.8001C10.4812 10.8001 9.25 12.0313 9.25 13.5501V13.8394L7.83936 15.25H1.5C0.809644 15.25 0.25 14.6904 0.25 14Z" fill="black"/>
<path d="M5.45912 5.69159C4.97097 5.20343 4.17951 5.20343 3.69136 5.69158C3.2032 6.17974 3.2032 6.97119 3.69136 7.45935L5.00158 8.76957C5.48973 9.25773 6.28119 9.25773 6.76935 8.76957C7.2575 8.28142 7.2575 7.48996 6.76935 7.00181L5.45912 5.69159Z" fill="black"/>
<path d="M13.2499 3.5C13.2499 2.80965 12.6903 2.25 11.9999 2.25C11.3096 2.25 10.7499 2.80965 10.7499 3.5V6.35293C10.7499 7.04329 11.3096 7.60293 11.9999 7.60293C12.6903 7.60293 13.2499 7.04329 13.2499 6.35293V3.5Z" fill="black"/>
<path d="M20.3085 5.69159C20.7967 6.17974 20.7967 6.9712 20.3085 7.45935L18.9983 8.76957C18.5101 9.25773 17.7187 9.25773 17.2305 8.76957C16.7424 8.28142 16.7424 7.48996 17.2305 7.00181L18.5407 5.69158C19.0289 5.20343 19.8204 5.20343 20.3085 5.69159Z" fill="black"/>
<path d="M8.26602 18.7123C8.75417 19.2005 9.54563 19.2005 10.0338 18.7123L10.7499 17.9962V20.8284C10.7499 21.5188 11.3096 22.0784 11.9999 22.0784C12.6903 22.0784 13.2499 21.5188 13.2499 20.8284V18.0394L13.9229 18.7123C14.411 19.2005 15.2025 19.2005 15.6906 18.7123C16.1788 18.2242 16.1788 17.4327 15.6906 16.9446L12.8622 14.1161C12.3741 13.628 11.5826 13.628 11.0944 14.1161L8.26602 16.9446C7.77786 17.4327 7.77786 18.2242 8.26602 18.7123Z" fill="black"/>
</svg>
