<svg width="24" height="24" viewBox="0 0 24 24" fill="none" xmlns="http://www.w3.org/2000/svg">
<path d="M13.8135 2.65689C14.9154 2.57985 15.8711 3.41065 15.9482 4.51253C15.9893 5.10083 15.822 5.58782 15.4528 5.93813C15.0718 6.29965 14.3388 6.64472 12.9998 6.64472C11.4648 6.64472 9.30428 6.73554 7.54897 6.8247C7.37771 6.8334 7.20665 6.84406 7.03584 6.85665C6.48505 6.89728 6.07148 7.37671 6.1121 7.9275C6.15273 8.47829 6.63216 8.89186 7.18295 8.85124C7.33863 8.83976 7.49446 8.83004 7.65043 8.82212C9.40456 8.73302 11.5204 8.64472 12.9998 8.64472C14.6609 8.64472 15.9586 8.21523 16.8294 7.38899C17.712 6.55153 18.0177 5.43755 17.9433 4.37304C17.7892 2.16928 15.8778 0.507684 13.674 0.661761C12.6527 0.733171 11.7458 1.18348 11.0847 1.86405C10.6998 2.26018 10.709 2.89328 11.1051 3.27811C11.5013 3.66295 12.1344 3.65379 12.5192 3.25766C12.8507 2.91642 13.3019 2.69266 13.8135 2.65689Z" fill="black"/>
<path d="M1.87057 9.93012C2.64126 9.67323 3.42317 9.45719 4.21312 9.2849C4.75272 9.16721 5.09475 8.63437 4.97706 8.09477C4.85937 7.55517 4.32653 7.21314 3.78693 7.33083C2.92538 7.51874 2.07464 7.75391 1.23811 8.03276L1.1838 8.05086C0.659855 8.22551 0.376696 8.79183 0.551344 9.31577C0.725993 9.83972 1.29231 10.1229 1.81626 9.94823L1.87057 9.93012Z" fill="black"/>
<path d="M8.50006 11.9995C8.50006 11.4473 8.94777 10.9995 9.50006 10.9995L17.9998 10.9995C19.9121 10.9995 21.4282 11.4896 22.4776 12.4244C23.5388 13.3698 24.0001 14.6613 24.0001 15.9995C24.0001 18.761 21.7615 20.9995 19.0001 20.9995C16.2386 20.9995 14.0001 18.761 14.0001 15.9995C14.0001 15.4473 14.4478 14.9995 15.0001 14.9995C15.5523 14.9995 16.0001 15.4473 16.0001 15.9995C16.0001 17.6564 17.3432 18.9995 19.0001 18.9995C20.6569 18.9995 22.0001 17.6564 22.0001 15.9995C22.0001 15.1287 21.7111 14.4201 21.1473 13.9178C20.5715 13.4049 19.5875 12.9995 17.9998 12.9995L9.50006 12.9995C8.94777 12.9995 8.50006 12.5518 8.50006 11.9995Z" fill="black"/>
<path d="M7.48312 12.1372C7.58434 12.6801 7.22627 13.2023 6.68334 13.3035C5.04347 13.6092 3.44891 14.1431 1.94727 14.894C1.45329 15.141 0.852617 14.9407 0.605628 14.4468C0.358639 13.9528 0.558863 13.3521 1.05284 13.1051C2.72185 12.2706 4.49414 11.6772 6.31677 11.3374C6.8597 11.2362 7.38189 11.5942 7.48312 12.1372Z" fill="black"/>
<path d="M4.53255 16.1588C5.83859 15.7245 7.21273 15.4995 8.60427 15.4995H8.99989C10.6298 15.4995 11.9046 15.8622 12.7808 16.6232C13.681 17.4051 14.0001 18.4658 14.0001 19.4995C14.0001 21.7087 12.2093 23.4995 10.0001 23.4995C7.791 23.4995 6.00014 21.7087 6.00014 19.4995C6.00014 18.9473 6.44785 18.4995 7.00014 18.4995C7.55242 18.4995 8.00014 18.9473 8.00014 19.4995C8.00014 20.6041 8.89557 21.4995 10.0001 21.4995C11.1047 21.4995 12.0001 20.6041 12.0001 19.4995C12.0001 18.8764 11.8192 18.4371 11.4693 18.1332C11.0954 17.8084 10.37 17.4995 8.99989 17.4995H8.60427C7.42837 17.4995 6.26729 17.6896 5.1637 18.0566C4.63964 18.2309 4.07351 17.9473 3.89923 17.4233C3.72494 16.8992 4.00849 16.3331 4.53255 16.1588Z" fill="black"/>
<path d="M3.09627 17.8034C3.39103 18.2704 3.25135 18.888 2.78429 19.1827C2.70726 19.2313 2.63077 19.281 2.55484 19.3316C2.09531 19.6379 1.47444 19.5138 1.16809 19.0542C0.861734 18.5947 0.985907 17.9738 1.44544 17.6675C1.53527 17.6076 1.62576 17.5489 1.7169 17.4914C2.18396 17.1966 2.80152 17.3363 3.09627 17.8034Z" fill="black"/>
</svg>
