<svg width="25" height="25" viewBox="0 0 25 25" fill="none" xmlns="http://www.w3.org/2000/svg">
<path d="M0 8.125C-2.71588e-08 7.50368 0.50368 7 1.125 7H2.36029C2.98161 7 3.48529 7.50368 3.48529 8.125C3.48529 8.74632 2.98161 9.25 2.36029 9.25H1.125C0.503679 9.25 2.71588e-08 8.74632 0 8.125Z" fill="black"/>
<path d="M8.125 0C8.74632 -2.71587e-08 9.25 0.503679 9.25 1.125V2.36029C9.25 2.98162 8.74632 3.48529 8.125 3.48529C7.50368 3.48529 7 2.98161 7 2.36029V1.125C7 0.503677 7.50368 2.71588e-08 8.125 0Z" fill="black"/>
<path fill-rule="evenodd" clip-rule="evenodd" d="M12.3532 6.24781C11.6333 4.62888 10.011 3.5 8.125 3.5C5.57068 3.5 3.5 5.57068 3.5 8.125C3.5 8.88577 3.68369 9.60364 4.00912 10.2367C2.34909 11.3324 1.25382 13.2144 1.25382 15.3523C1.25382 18.735 3.99607 21.4773 7.37882 21.4773L18.3788 21.4773C21.2093 21.4773 23.5038 19.1827 23.5038 16.3523C23.5038 13.8448 21.703 11.7579 19.3242 11.3143C18.6303 8.39664 16.0085 6.22725 12.8788 6.22725C12.7019 6.22725 12.5266 6.23419 12.3532 6.24781ZM6.09693 9.36161C5.87684 9.00141 5.75 8.57802 5.75 8.125C5.75 6.81332 6.81332 5.75 8.125 5.75C8.95865 5.75 9.69198 6.17951 10.1158 6.82932C8.97704 7.35265 8.0126 8.1892 7.33273 9.22742C6.90919 9.23055 6.49587 9.27666 6.09693 9.36161ZM9.03108 10.7678C9.77348 9.40105 11.2191 8.47725 12.8788 8.47725C15.1543 8.47725 17.0251 10.2153 17.2343 12.4354C17.2892 13.0179 17.7777 13.4773 18.3788 13.4773C19.9666 13.4773 21.2538 14.7644 21.2538 16.3523C21.2538 17.9401 19.9666 19.2273 18.3788 19.2273H7.37882C5.23871 19.2273 3.50382 17.4924 3.50382 15.3523C3.50382 13.2122 5.23871 11.4773 7.37882 11.4773C7.4861 11.4773 7.59214 11.4816 7.69679 11.4901C8.24339 11.5343 8.76766 11.2528 9.03108 10.7678ZM18.3788 12.3276L18.3755 11.2273L18.3788 11.2273V12.3276Z" fill="black"/>
<path d="M13.8703 3.97078C14.3097 3.53143 14.3097 2.81912 13.8703 2.37978C13.431 1.94044 12.7187 1.94044 12.2793 2.37978L11.4058 3.25327C10.9665 3.69261 10.9665 4.40492 11.4058 4.84426C11.8452 5.2836 12.5575 5.2836 12.9968 4.84426L13.8703 3.97078Z" fill="black"/>
<path d="M2.37968 2.37978C2.81902 1.94045 3.53133 1.94045 3.97067 2.37978L4.84416 3.25327C5.2835 3.69261 5.2835 4.40492 4.84416 4.84426C4.40482 5.2836 3.69251 5.2836 3.25317 4.84426L2.37968 3.97077C1.94034 3.53143 1.94034 2.81912 2.37968 2.37978Z" fill="black"/>
</svg>
