<svg width="24" height="24" viewBox="0 0 24 24" fill="none" xmlns="http://www.w3.org/2000/svg">
<path d="M12.5194 3.2579C12.851 2.91666 13.3022 2.69291 13.8138 2.65714C14.9157 2.5801 15.8714 3.41089 15.9484 4.51277C15.9895 5.10108 15.8223 5.58807 15.453 5.93837C15.072 6.29989 14.339 6.64496 13.0001 6.64496C11.4651 6.64496 9.30452 6.73578 7.54922 6.82494C5.39413 6.93441 3.27398 7.35446 1.23835 8.033L1.18404 8.0511C0.6601 8.22575 0.37694 8.79207 0.551588 9.31602C0.726236 9.83996 1.29256 10.1231 1.8165 9.94847L1.87081 9.93037C3.74648 9.30515 5.68822 8.92205 7.65068 8.82236C9.4048 8.73326 11.5206 8.64496 13.0001 8.64496C14.6611 8.64496 15.9588 8.21547 16.8296 7.38923C17.7123 6.55177 18.018 5.4378 17.9435 4.37328C17.7895 2.16952 15.878 0.507928 13.6743 0.662005C12.6529 0.733413 11.7461 1.18373 11.0849 1.86429C10.7001 2.26042 10.7092 2.89352 11.1054 3.27836C11.5015 3.66319 12.1346 3.65403 12.5194 3.2579Z" fill="black"/>
<path d="M1.05309 13.1054C3.82246 11.7207 6.87619 10.9998 9.97244 10.9998L13.0003 10.9998V12.9998L9.97244 12.9998C7.18668 12.9998 4.43917 13.6484 1.94751 14.8942C1.45353 15.1412 0.852862 14.941 0.605872 14.447C0.358883 13.953 0.559107 13.3523 1.05309 13.1054Z" fill="black"/>
<path d="M13.0003 12.9998V10.9998H18.0001C19.9124 10.9998 21.4284 11.4898 22.4779 12.4247C23.5391 13.3701 24.0003 14.6615 24.0003 15.9998C24.0003 18.7612 21.7617 20.9998 19.0003 20.9998C16.2389 20.9998 14.0003 18.7612 14.0003 15.9998C14.0003 15.4475 14.448 14.9998 15.0003 14.9998C15.5526 14.9998 16.0003 15.4475 16.0003 15.9998C16.0003 17.6566 17.3434 18.9998 19.0003 18.9998C20.6572 18.9998 22.0003 17.6566 22.0003 15.9998C22.0003 15.1289 21.7114 14.4204 21.1475 13.918C20.5718 13.4052 19.5877 12.9998 18.0001 12.9998H13.0003Z" fill="black"/>
<path d="M1.44568 17.6677C3.566 16.2542 6.05597 15.4998 8.60452 15.4998H9.00014C10.6301 15.4998 11.9048 15.8625 12.781 16.6235C13.6812 17.4054 14.0004 18.466 14.0004 19.4998C14.0004 21.7089 12.2095 23.4998 10.0004 23.4998C7.79124 23.4998 6.00038 21.7089 6.00038 19.4998C6.00038 18.9475 6.4481 18.4998 7.00038 18.4998C7.55267 18.4998 8.00038 18.9475 8.00038 19.4998C8.00038 20.6044 8.89581 21.4998 10.0004 21.4998C11.1049 21.4998 12.0004 20.6044 12.0004 19.4998C12.0004 18.8767 11.8194 18.4373 11.4695 18.1335C11.0956 17.8087 10.3702 17.4998 9.00014 17.4998H8.60452C6.45106 17.4998 4.34707 18.1372 2.55508 19.3318C2.09555 19.6382 1.47468 19.514 1.16833 19.0545C0.861978 18.595 0.986151 17.9741 1.44568 17.6677Z" fill="black"/>
</svg>
