<svg width="24" height="24" viewBox="0 0 24 24" fill="none" xmlns="http://www.w3.org/2000/svg">
<path d="M8.50955 1.28801C9.62918 2.00534 10.4449 3.1581 10.7169 4.50802C9.10484 4.96207 7.71386 5.94133 6.7397 7.24658C5.06729 7.36799 3.55784 8.07695 2.4168 9.16802C2.10609 8.87995 1.83213 8.55294 1.6027 8.19485L1.5813 8.16164C1.50317 8.04075 1.40494 7.88875 1.36523 7.71452C1.25126 7.21448 1.53439 6.70893 2.0203 6.54485C2.14026 6.50435 2.26682 6.49858 2.35656 6.49657C2.45435 6.49438 2.57836 6.49687 2.72252 6.49977L2.73349 6.49999C2.76076 6.50053 2.78809 6.50081 2.81551 6.50081C5.02464 6.50081 6.81551 4.70995 6.81551 2.50081C6.81551 2.4734 6.81523 2.44606 6.81468 2.41879L6.81447 2.40792C6.81157 2.26372 6.80908 2.13968 6.81127 2.04186C6.81328 1.95212 6.81904 1.82556 6.85955 1.70561C7.02362 1.2197 7.52918 0.936561 8.02922 1.05053C8.20344 1.09024 8.35544 1.18847 8.47633 1.2666L8.50955 1.28801Z" fill="black"/>
<path fill-rule="evenodd" clip-rule="evenodd" d="M7.55204 8.73594C8.58755 6.93923 10.5289 5.72797 12.7538 5.72797C15.7337 5.72798 18.2057 7.89989 18.674 10.7473C20.9623 10.9592 22.7538 12.8844 22.7538 15.228C22.7538 17.7133 20.7391 19.728 18.2538 19.728H17L17 13.728C17 12.7615 16.2165 11.978 15.25 11.978C14.2835 11.978 13.5 12.7615 13.5 13.728L13.5 15.728C13.5 14.7615 12.7165 13.978 11.75 13.978C10.7835 13.978 10 14.7615 10 15.728V13.728C10 12.7615 9.21653 11.978 8.25003 11.978C7.28353 11.978 6.50003 12.7615 6.50003 13.728V19.6767C3.81912 19.3093 1.75384 17.0098 1.75384 14.228C1.75384 11.1904 4.21628 8.72798 7.25384 8.72798C7.35384 8.72798 7.45326 8.73065 7.55204 8.73594ZM18.2538 10.728L18.2524 10.728L18.2538 11.2033L18.2538 10.728Z" fill="black"/>
<path d="M8.25003 12.9779C8.66424 12.9779 9.00003 13.3137 9.00003 13.7279L9.00003 20.7279C9.00003 21.1422 8.66424 21.4779 8.25003 21.4779C7.83581 21.4779 7.50003 21.1422 7.50003 20.7279L7.50003 13.7279C7.50003 13.3137 7.83582 12.9779 8.25003 12.9779Z" fill="black"/>
<path d="M11.75 14.9779C12.1642 14.9779 12.5 15.3137 12.5 15.7279L12.5 22.7279C12.5 23.1422 12.1642 23.4779 11.75 23.4779C11.3358 23.4779 11 23.1422 11 22.7279L11 15.7279C11 15.3137 11.3358 14.9779 11.75 14.9779Z" fill="black"/>
<path d="M16 13.7279C16 13.3137 15.6642 12.9779 15.25 12.9779C14.8358 12.9779 14.5 13.3137 14.5 13.7279L14.5 20.7279C14.5 21.1422 14.8358 21.4779 15.25 21.4779C15.6642 21.4779 16 21.1422 16 20.7279L16 13.7279Z" fill="black"/>
</svg>
