<svg width="24" height="24" viewBox="0 0 24 24" fill="none" xmlns="http://www.w3.org/2000/svg">
<path fill-rule="evenodd" clip-rule="evenodd" d="M3.26224 10.0891C2.17809 11.1349 1.50376 12.6027 1.50376 14.228C1.50376 17.1481 3.68054 19.5599 6.49996 19.929V18.4114C4.51233 18.0556 3.00376 16.318 3.00376 14.228C3.00376 11.8808 4.90655 9.97801 7.25376 9.97801C7.37115 9.97801 7.48727 9.98276 7.60197 9.99203C8.00126 10.0243 8.38418 9.81868 8.5765 9.46461C9.38187 7.98187 10.9511 6.97801 12.7538 6.97801C15.2245 6.97801 17.2554 8.86505 17.4826 11.276C17.5196 11.6685 17.8488 11.9781 18.2538 11.978C20.0486 11.9781 21.5038 13.4331 21.5038 15.228C21.5038 17.0229 20.0487 18.478 18.2538 18.478H17L17 19.978H18.2538C20.8771 19.978 23.0038 17.8514 23.0038 15.228C23.0038 12.8194 21.211 10.8294 18.887 10.5199C18.3239 7.64594 15.7924 5.47801 12.7538 5.47801C12.1672 5.47801 11.5995 5.55884 11.0613 5.70991C11.0641 5.64056 11.0654 5.57086 11.0654 5.50085C11.0654 3.642 10.0988 2.0094 8.64433 1.07754L8.61119 1.05608C8.49576 0.980991 8.30534 0.857112 8.08469 0.806819C7.4596 0.664348 6.82771 1.01824 6.6226 1.62567C6.56883 1.78493 6.56329 1.94524 6.56125 2.0363C6.55894 2.13955 6.56152 2.2683 6.56435 2.40905L6.56465 2.42385C6.56516 2.44944 6.56542 2.47511 6.56542 2.50085C6.56542 4.57191 4.88649 6.25085 2.81542 6.25085C2.78968 6.25085 2.76402 6.25059 2.73842 6.25008L2.72364 6.24978C2.58289 6.24695 2.45413 6.24436 2.35087 6.24667C2.25981 6.24871 2.0995 6.25425 1.94024 6.30803C1.33281 6.51314 0.978923 7.14502 1.1214 7.77011C1.17169 7.99077 1.29557 8.18119 1.37066 8.29662L1.39212 8.32975C1.8593 9.05894 2.5026 9.66551 3.26224 10.0891ZM4.69082 9.07938C3.9346 8.84205 3.28129 8.37151 2.81507 7.75085C5.71457 7.75085 8.06542 5.40034 8.06542 2.50085C8.97751 3.18599 9.56542 4.27479 9.56542 5.50085C9.56542 5.81818 9.52601 6.1263 9.45181 6.42059C8.62161 6.9382 7.92188 7.64502 7.41298 8.48018C7.36006 8.47874 7.30699 8.47801 7.25376 8.47801C6.33284 8.47801 5.46248 8.69451 4.69082 9.07938ZM18.2516 10.478L18.2538 10.478V11.2034L18.2516 10.478Z" fill="black"/>
<path d="M8.24996 12.978C8.66417 12.978 8.99996 13.3138 8.99996 13.728V20.728C8.99996 21.1422 8.66417 21.478 8.24996 21.478C7.83575 21.478 7.49996 21.1422 7.49996 20.728V13.728C7.49996 13.3138 7.83575 12.978 8.24996 12.978Z" fill="black"/>
<path d="M11.75 14.978C12.1642 14.978 12.5 15.3138 12.5 15.728L12.5 22.728C12.5 23.1422 12.1642 23.478 11.75 23.478C11.3357 23.478 11 23.1422 11 22.728V15.728C11 15.3138 11.3357 14.978 11.75 14.978Z" fill="black"/>
<path d="M16 13.728C16 13.3138 15.6642 12.978 15.25 12.978C14.8357 12.978 14.5 13.3138 14.5 13.728V20.728C14.5 21.1422 14.8357 21.478 15.25 21.478C15.6642 21.478 16 21.1422 16 20.728L16 13.728Z" fill="black"/>
</svg>
