<svg width="24" height="24" viewBox="0 0 24 24" fill="none" xmlns="http://www.w3.org/2000/svg">
<path d="M0.250244 8C0.250244 7.58579 0.58603 7.25 1.00024 7.25H2.23554C2.64975 7.25 2.98554 7.58579 2.98554 8C2.98554 8.41421 2.64975 8.75 2.23554 8.75H1.00024C0.58603 8.75 0.250244 8.41421 0.250244 8Z" fill="black"/>
<path d="M8.00024 0.25C8.41446 0.25 8.75024 0.585787 8.75024 1V2.23529C8.75024 2.64951 8.41446 2.98529 8.00024 2.98529C7.58603 2.98529 7.25024 2.64951 7.25024 2.23529V1C7.25024 0.585787 7.58603 0.25 8.00024 0.25Z" fill="black"/>
<path d="M13.4804 3.58061C13.7733 3.28772 13.7733 2.81284 13.4804 2.51995C13.1875 2.22706 12.7126 2.22706 12.4197 2.51995L11.5463 3.39343C11.2534 3.68633 11.2534 4.1612 11.5463 4.45409C11.8391 4.74699 12.314 4.74699 12.6069 4.45409L13.4804 3.58061Z" fill="black"/>
<path fill-rule="evenodd" clip-rule="evenodd" d="M11.5091 5.60123C10.7434 4.4834 9.45747 3.75 8.00024 3.75C5.65303 3.75 3.75024 5.65279 3.75024 8C3.75024 8.51917 3.84333 9.0166 4.01374 9.4765C2.49853 10.512 1.50407 12.2535 1.50407 14.2272C1.50407 17.4028 4.07843 19.9772 7.25407 19.9772H10.1691C9.94451 19.5039 9.94345 18.9527 10.1691 18.4772H7.25407C4.90686 18.4772 3.00407 16.5744 3.00407 14.2272C3.00407 11.88 4.90686 9.97719 7.25407 9.97719C7.37146 9.97719 7.48759 9.98194 7.60228 9.99121C8.00157 10.0235 8.38449 9.81786 8.57681 9.46379C9.38218 7.98105 10.9514 6.97719 12.7541 6.97719C15.2248 6.97719 17.2558 8.86423 17.4829 11.2752C17.5199 11.6677 17.8491 11.9773 18.2541 11.9772C20.0489 11.9773 21.5041 13.4323 21.5041 15.2272C21.5041 16.0549 21.1947 16.8103 20.6852 17.3841L21.482 18.7119C22.4181 17.8444 23.0041 16.6042 23.0041 15.2272C23.0041 12.8185 21.2113 10.8286 18.8873 10.519C18.3242 7.64512 15.7927 5.47719 12.7541 5.47719C12.3277 5.47719 11.9114 5.5199 11.5091 5.60123ZM5.36665 8.79413C5.29094 8.54271 5.25024 8.2761 5.25024 8C5.25024 6.48122 6.48146 5.25 8.00024 5.25C8.78913 5.25 9.50044 5.58218 10.0019 6.11431C8.92986 6.64101 8.03099 7.46563 7.41329 8.47936C7.36037 8.47792 7.3073 8.47719 7.25407 8.47719C6.59293 8.47719 5.95786 8.58878 5.36665 8.79413ZM18.2519 10.4772L18.2541 10.4772V11.2025L18.2519 10.4772Z" fill="black"/>
<path d="M2.52009 2.51995C2.81299 2.22705 3.28786 2.22705 3.58075 2.51995L4.45424 3.39343C4.74713 3.68633 4.74713 4.1612 4.45424 4.45409C4.16134 4.74699 3.68647 4.74699 3.39358 4.45409L2.52009 3.58061C2.2272 3.28772 2.2272 2.81284 2.52009 2.51995Z" fill="black"/>
<path d="M18.1595 19.9772L17.2595 18.4772H16.5814C16.8056 18.9496 16.8075 19.5009 16.5814 19.9772H18.1595Z" fill="black"/>
<path d="M6.58417 13.6031C6.92881 13.3734 7.39446 13.4665 7.62424 13.8111L9.12427 16.061C9.35404 16.4056 9.26093 16.8713 8.91629 17.1011C8.57165 17.3308 8.106 17.2377 7.87622 16.8931L6.37619 14.6432C6.14641 14.2986 6.23953 13.8329 6.58417 13.6031Z" fill="black"/>
<path d="M12.3447 15.0964C12.6931 14.8724 13.1572 14.9733 13.3811 15.3217L15.6311 18.8217C15.7795 19.0525 15.79 19.3458 15.6585 19.5866C15.5271 19.8275 15.2746 19.9773 15.0003 19.9773H13.0925L14.389 22.084C14.6061 22.4368 14.4961 22.8988 14.1433 23.1159C13.7906 23.333 13.3286 23.223 13.1115 22.8702L11.1115 19.6203C10.9691 19.3889 10.963 19.0986 11.0955 18.8614C11.2281 18.6242 11.4785 18.4773 11.7503 18.4773H13.6265L12.1194 16.1328C11.8954 15.7844 11.9963 15.3204 12.3447 15.0964Z" fill="black"/>
<path d="M18.1434 15.0913C17.9303 14.7361 17.4696 14.6209 17.1144 14.834C16.7592 15.0472 16.644 15.5079 16.8572 15.863L19.6682 20.5482C19.8814 20.9034 20.3421 21.0186 20.6972 20.8054C21.0524 20.5923 21.1676 20.1316 20.9545 19.7765L18.1434 15.0913Z" fill="black"/>
</svg>
