<svg width="24" height="24" viewBox="0 0 24 24" fill="none" xmlns="http://www.w3.org/2000/svg">
<path d="M0.75 14C0.75 13.5858 1.08579 13.25 1.5 13.25H7.14468C7.50576 10.8931 9.54204 9.08783 11.9999 9.08783C14.4579 9.08783 16.4941 10.8931 16.8552 13.25H22.4999C22.9141 13.25 23.2499 13.5858 23.2499 14C23.2499 14.4142 22.9141 14.75 22.4999 14.75H14.2031L13.4999 14.0469V13.25H15.3294C14.9877 11.7263 13.6268 10.5878 11.9999 10.5878C10.3731 10.5878 9.01221 11.7263 8.67047 13.25L10.4999 13.25V14.0036L9.75358 14.75H1.5C1.08579 14.75 0.75 14.4142 0.75 14Z" fill="black"/>
<path d="M12.7499 3.5C12.7499 3.08579 12.4141 2.75 11.9999 2.75C11.5857 2.75 11.2499 3.08579 11.2499 3.5V6.35293C11.2499 6.76715 11.5857 7.10293 11.9999 7.10293C12.4141 7.10293 12.7499 6.76715 12.7499 6.35293V3.5Z" fill="black"/>
<path d="M19.955 6.04514C20.2479 6.33803 20.2479 6.8129 19.955 7.1058L18.6447 8.41602C18.3518 8.70891 17.877 8.70891 17.5841 8.41602C17.2912 8.12312 17.2912 7.64825 17.5841 7.35536L18.8943 6.04514C19.1872 5.75224 19.6621 5.75224 19.955 6.04514Z" fill="black"/>
<path d="M5.10557 6.04514C4.81268 5.75224 4.3378 5.75224 4.04491 6.04514C3.75202 6.33803 3.75202 6.8129 4.04491 7.1058L5.35513 8.41602C5.64802 8.70891 6.1229 8.70891 6.41579 8.41602C6.70868 8.12313 6.70868 7.64825 6.41579 7.35536L5.10557 6.04514Z" fill="black"/>
<path d="M8.61957 18.3588C8.91247 18.6517 9.38734 18.6517 9.68023 18.3588L11.2499 16.7891V20.8284C11.2499 21.2426 11.5857 21.5784 11.9999 21.5784C12.4141 21.5784 12.7499 21.2426 12.7499 20.8284V16.8322L14.2764 18.3588C14.5693 18.6517 15.0442 18.6517 15.3371 18.3588C15.63 18.0659 15.63 17.591 15.3371 17.2981L12.5087 14.4697C12.2158 14.1768 11.7409 14.1768 11.448 14.4697L8.61957 17.2981C8.32668 17.591 8.32668 18.0659 8.61957 18.3588Z" fill="black"/>
</svg>
