<svg width="24" height="24" viewBox="0 0 24 24" fill="none" xmlns="http://www.w3.org/2000/svg">
<path fill-rule="evenodd" clip-rule="evenodd" d="M7.20782 7.10247C8.38969 5.29764 10.4315 4.1023 12.7539 4.10229C15.8835 4.10229 18.5054 6.27168 19.1993 9.18931C21.5781 9.6329 23.3789 11.7198 23.3789 14.2273C23.3789 17.0578 21.0844 19.3523 18.2539 19.3523H16.1068C16.1865 19.2283 16.2559 19.0962 16.3136 18.9568C16.5639 18.3524 16.5628 17.689 16.3372 17.1023H18.2539C19.8417 17.1023 21.1289 15.8151 21.1289 14.2273C21.1289 12.6395 19.8417 11.3523 18.2539 11.3523C17.6528 11.3524 17.1643 10.8929 17.1094 10.3105C16.9002 8.0903 15.0294 6.35229 12.7539 6.35229C11.0942 6.35229 9.64857 7.27609 8.90617 8.64288C8.64275 9.12785 8.11848 9.40931 7.57188 9.3651C7.46723 9.35663 7.36119 9.3523 7.25391 9.3523C5.1138 9.3523 3.37891 11.0872 3.37891 13.2273C3.37891 15.3674 5.1138 17.1023 7.25391 17.1023H8.67068C8.38119 17.8543 8.475 18.6899 8.90103 19.3523H7.25391C3.87116 19.3523 1.12891 16.61 1.12891 13.2273C1.12891 9.85993 3.84629 7.12724 7.20782 7.10247ZM18.2539 10.2026V9.1023L18.2506 9.1023L18.2539 10.2026Z" fill="black"/>
<path d="M11.2994 13.7046C10.8601 13.2652 10.1478 13.2652 9.70842 13.7046C9.26908 14.1439 9.26908 14.8562 9.70842 15.2956L11.2879 16.8751H11.0039C10.5489 16.8751 10.1387 17.1492 9.96455 17.5696C9.79042 17.9899 9.88667 18.4738 10.2084 18.7956L13.7084 22.2956C14.1478 22.7349 14.8601 22.7349 15.2994 22.2956C15.7387 21.8562 15.7387 21.1439 15.2994 20.7046L13.7199 19.1251H14.0039C14.4589 19.1251 14.8691 18.851 15.0433 18.4306C15.2174 18.0102 15.1212 17.5263 14.7994 17.2046L11.2994 13.7046Z" fill="black"/>
</svg>
