<svg width="24" height="24" viewBox="0 0 24 24" fill="none" xmlns="http://www.w3.org/2000/svg">
<path d="M0.25 8C0.25 7.58579 0.585787 7.25 1 7.25L2.23529 7.25C2.64951 7.25 2.98529 7.58579 2.98529 8C2.98529 8.41421 2.64951 8.75 2.23529 8.75H1C0.585786 8.75 0.25 8.41421 0.25 8Z" fill="black"/>
<path fill-rule="evenodd" clip-rule="evenodd" d="M8.50457 15.5549C8.51804 16.0483 8.71305 16.5376 9.0896 16.9142L9.67797 17.5026C9.45509 17.6998 9.27473 17.9481 9.15606 18.2346C8.9894 18.637 8.96206 19.072 9.06158 19.4772H7.25381C4.35431 19.4772 2.00381 17.1267 2.00381 14.2272C2.00381 11.3277 4.35431 8.9772 7.25381 8.9772C7.36089 8.9772 7.46726 8.98041 7.57281 8.98674C7.62946 8.99014 7.66197 8.992 7.68564 8.99214L7.69144 8.99213L7.6945 8.98744C7.70719 8.96768 7.72322 8.93966 7.7511 8.89058C8.73933 7.15131 10.6093 5.9772 12.7538 5.9772C15.6769 5.9772 18.0904 8.15825 18.4559 10.9819C20.7093 11.0874 22.5038 12.9477 22.5038 15.2272C22.5038 17.5744 20.601 19.4772 18.2538 19.4772H15.9461C16.1114 18.805 15.9177 18.0854 15.418 17.5858L11.918 14.0858C11.137 13.3047 9.87065 13.3047 9.0896 14.0858C8.95225 14.2231 8.83905 14.3755 8.75 14.5376V15C8.75 15.2199 8.65535 15.4177 8.50457 15.5549Z" fill="black"/>
<path d="M8 0.25C8.41421 0.25 8.75 0.585787 8.75 1V2.23529C8.75 2.64951 8.41422 2.98529 8 2.98529C7.58579 2.98529 7.25 2.64951 7.25 2.23529V1C7.25 0.585787 7.58579 0.25 8 0.25Z" fill="black"/>
<path d="M4.25 8C4.25 8.15149 4.25898 8.30088 4.27645 8.44767C5.09934 8.0229 6.02462 7.7687 7.0055 7.73186C7.83302 6.54341 9.02106 5.62242 10.4121 5.12862C9.76008 4.5803 8.91861 4.25 8 4.25C5.92893 4.25 4.25 5.92893 4.25 8Z" fill="black"/>
<path d="M13.4802 3.58061C13.773 3.28772 13.773 2.81284 13.4802 2.51995C13.1873 2.22706 12.7124 2.22706 12.4195 2.51995L11.546 3.39343C11.2531 3.68633 11.2531 4.1612 11.546 4.45409C11.8389 4.74699 12.3138 4.74699 12.6067 4.45409L13.4802 3.58061Z" fill="black"/>
<path d="M2.51985 2.51995C2.81274 2.22705 3.28762 2.22705 3.58051 2.51995L4.45399 3.39343C4.74689 3.68633 4.74689 4.1612 4.45399 4.45409C4.1611 4.74699 3.68623 4.74699 3.39333 4.45409L2.51985 3.58061C2.22695 3.28771 2.22696 2.81284 2.51985 2.51995Z" fill="black"/>
<path d="M9.97348 14.9697C10.2664 14.6768 10.7412 14.6768 11.0341 14.9697L14.5341 18.4697C14.7486 18.6842 14.8128 19.0067 14.6967 19.287C14.5806 19.5673 14.3072 19.75 14.0038 19.75H12.8145L15.0341 21.9697C15.327 22.2625 15.327 22.7374 15.0341 23.0303C14.7412 23.3232 14.2664 23.3232 13.9735 23.0303L10.4735 19.5303C10.259 19.3158 10.1948 18.9932 10.3109 18.713C10.427 18.4327 10.7005 18.25 11.0038 18.25H12.1932L9.97348 16.0303C9.68059 15.7374 9.68059 15.2625 9.97348 14.9697Z" fill="black"/>
</svg>
