<svg width="24" height="24" viewBox="0 0 24 24" fill="none" xmlns="http://www.w3.org/2000/svg">
<path fill-rule="evenodd" clip-rule="evenodd" d="M1.36596 7.71403C1.25199 7.21399 1.53512 6.70844 2.02104 6.54436C2.14099 6.50386 2.26755 6.4981 2.35729 6.49609C2.45511 6.49389 2.57915 6.49638 2.72335 6.49928L2.73422 6.4995C2.76149 6.50005 2.78883 6.50032 2.81624 6.50032C5.02538 6.50032 6.81624 4.70946 6.81624 2.50032C6.81624 2.47291 6.81596 2.44557 6.81542 2.41831L6.8152 2.40743C6.8123 2.26323 6.80981 2.13919 6.812 2.04137C6.81401 1.95164 6.81978 1.82508 6.86028 1.70512C7.02436 1.21921 7.52991 0.936073 8.02995 1.05004C8.20418 1.08975 8.35618 1.18798 8.47706 1.26611L8.51028 1.28752C9.89604 2.17535 10.8162 3.73021 10.8162 5.50032C10.8162 5.68887 10.8058 5.87499 10.7855 6.05812C11.4022 5.84391 12.0648 5.72749 12.7546 5.72749C15.7344 5.72749 18.2065 7.8994 18.6748 10.7469C20.963 10.9587 22.7546 12.8839 22.7546 15.2275C22.7546 17.0664 21.6516 18.6476 20.0711 19.3458L19.5513 18.4794C20.8423 17.9642 21.7546 16.7024 21.7546 15.2275C21.7546 13.2945 20.1876 11.7275 18.2546 11.7275C17.9804 11.7275 17.7573 11.5179 17.7323 11.252C17.4932 8.71387 15.3556 6.72749 12.7546 6.72749C10.8567 6.72749 9.20499 7.78473 8.35763 9.34476C8.21271 9.61156 7.92402 9.76668 7.62294 9.74232C7.50155 9.7325 7.3787 9.72749 7.25458 9.72749C4.76929 9.72749 2.75458 11.7422 2.75458 14.2275C2.75458 16.6596 4.68398 18.641 7.09567 18.7247L7.71807 19.7275H7.25458C4.21701 19.7275 1.75458 17.2651 1.75458 14.2275C1.75458 12.5456 2.50951 11.04 3.69901 10.0312C2.83842 9.62828 2.11165 8.9876 1.60344 8.19436L1.58203 8.16115C1.5039 8.04026 1.40567 7.88826 1.36596 7.71403ZM4.71595 9.34714C5.47542 8.95127 6.33886 8.72749 7.25458 8.72749C7.35458 8.72749 7.454 8.73016 7.55277 8.73545C8.06298 7.85021 8.79304 7.10713 9.66855 6.58099C9.76478 6.23724 9.81624 5.87479 9.81624 5.50032C9.81624 4.08519 9.08174 2.84128 7.97082 2.12953C7.88864 2.07688 7.84524 2.04934 7.81283 2.03126C7.81242 2.04022 7.81204 2.05096 7.81175 2.06377C7.8101 2.13767 7.81204 2.2401 7.81522 2.39825C7.8159 2.4322 7.81624 2.46622 7.81624 2.50032C7.81624 5.26174 5.57766 7.50032 2.81624 7.50032C2.78214 7.50032 2.74811 7.49998 2.71416 7.4993C2.55602 7.49612 2.45359 7.49418 2.37969 7.49583C2.36688 7.49612 2.35614 7.4965 2.34718 7.49692C2.36526 7.52932 2.39279 7.57272 2.44544 7.6549C2.96528 8.46628 3.76899 9.07686 4.71595 9.34714ZM18.2531 10.7275L18.2546 10.7275V11.2028L18.2531 10.7275Z" fill="black"/>
<path d="M16.8015 19.7275L16.2016 18.7275H14.9426L15.514 19.7275H16.8015Z" fill="black"/>
<path d="M12.0588 19.7275L11.4873 18.7275H10.6283L11.249 19.7275H12.0588Z" fill="black"/>
<path d="M6.73709 15.3027C6.97171 15.1571 7.27996 15.2292 7.42559 15.4639L11.7417 22.4174C11.8873 22.6521 11.8152 22.9603 11.5806 23.106C11.3459 23.2516 11.0377 23.1794 10.892 22.9448L6.57595 15.9912C6.43032 15.7566 6.50247 15.4484 6.73709 15.3027Z" fill="black"/>
<path d="M11.2527 15.2935C11.4924 15.1565 11.7979 15.2398 11.9349 15.4796L15.9349 22.4796C16.0719 22.7193 15.9886 23.0247 15.7488 23.1617C15.5091 23.2988 15.2036 23.2155 15.0666 22.9757L11.0666 15.9757C10.9296 15.7359 11.0129 15.4305 11.2527 15.2935Z" fill="black"/>
<path d="M16.4295 15.2202C16.2875 14.9834 15.9803 14.9066 15.7435 15.0487C15.5068 15.1908 15.43 15.4979 15.5721 15.7347L19.9424 23.0186C20.0845 23.2554 20.3916 23.3322 20.6284 23.1901C20.8652 23.0481 20.942 22.7409 20.7999 22.5042L16.4295 15.2202Z" fill="black"/>
</svg>
