<svg width="24" height="24" viewBox="0 0 24 24" fill="none" xmlns="http://www.w3.org/2000/svg">
<path d="M0 8.00024C-2.41411e-08 7.44796 0.447715 7.00024 1 7.00024H2.23529C2.78758 7.00024 3.23529 7.44796 3.23529 8.00025C3.23529 8.07092 3.22796 8.13988 3.21402 8.20641C2.86304 8.44236 2.53383 8.70819 2.23002 9.00024H1C0.447715 9.00024 2.41412e-08 8.55253 0 8.00024Z" fill="black"/>
<path fill-rule="evenodd" clip-rule="evenodd" d="M6.93939 11.5982C6.2257 12.0384 5.75001 12.8274 5.75001 13.7275L5.75001 19.5194C3.44346 18.8652 1.75383 16.7436 1.75383 14.2275C1.75383 11.1899 4.21626 8.72747 7.25383 8.72747C7.35383 8.72747 7.45325 8.73015 7.55202 8.73543C8.58754 6.93872 10.5289 5.72747 12.7538 5.72747C15.7337 5.72747 18.2057 7.89939 18.674 10.7468C20.9623 10.9587 22.7538 12.8839 22.7538 15.2275C22.7538 17.7128 20.7391 19.7275 18.2538 19.7275H17.75V13.7275C17.75 12.3468 16.6307 11.2275 15.25 11.2275C14.5321 11.2275 13.8848 11.5301 13.4288 12.0148L13.6569 12.2429C14.0475 12.6334 14.0475 13.2665 13.6569 13.6571C13.2664 14.0476 12.6332 14.0476 12.2427 13.6571L11.8139 13.2283C11.7927 13.2277 11.7714 13.2275 11.75 13.2275C11.3882 13.2275 11.0444 13.3043 10.734 13.4426C10.6369 12.587 10.1079 11.8623 9.37037 11.492C8.94589 11.6587 8.48364 11.7502 8 11.7502C7.63165 11.7502 7.2757 11.6971 6.93939 11.5982ZM18.2538 10.7275L18.2524 10.7275L18.2538 11.2028L18.2538 10.7275Z" fill="black"/>
<path d="M6.60809 7.00585C7.39763 5.97971 8.43962 5.15573 9.64189 4.62785C9.14601 4.38597 8.58886 4.25024 8 4.25024C6.05785 4.25024 4.46053 5.72667 4.26921 7.61837C4.99326 7.29088 5.78072 7.07887 6.60809 7.00585Z" fill="black"/>
<path d="M12.7538 3.97748C12.9747 3.97748 13.1935 3.98672 13.4097 4.00483L13.6569 3.75763C14.0475 3.36711 14.0475 2.73394 13.6569 2.34342C13.2664 1.95289 12.6332 1.95289 12.2427 2.34342L11.3692 3.2169C11.1151 3.47102 11.0264 3.82788 11.103 4.15378C11.6348 4.03833 12.1872 3.97748 12.7538 3.97748Z" fill="black"/>
<path d="M9 1.00024C9 0.447958 8.55229 0.000244116 8 0.000244141C7.44772 0.000244165 7 0.44796 7 1.00024V2.23554C7 2.78782 7.44772 3.23554 8 3.23554C8.55229 3.23554 9 2.78782 9 2.23554V1.00024Z" fill="black"/>
<path d="M2.34307 2.34342C2.7336 1.95289 3.36676 1.95289 3.75729 2.34342L4.63077 3.2169C5.02129 3.60743 5.02129 4.24059 4.63077 4.63111C4.24025 5.02164 3.60708 5.02164 3.21656 4.63111L2.34307 3.75763C1.95255 3.3671 1.95255 2.73394 2.34307 2.34342Z" fill="black"/>
<path d="M8.25001 12.6024C8.87134 12.6024 9.37501 13.1061 9.37501 13.7274L9.37502 20.7274C9.37502 21.3488 8.87134 21.8524 8.25002 21.8524C7.6287 21.8524 7.12501 21.3488 7.12501 20.7274L7.12502 13.7274C7.12502 13.1061 7.62869 12.6024 8.25001 12.6024Z" fill="black"/>
<path d="M11.75 14.6024C12.3713 14.6024 12.875 15.1061 12.875 15.7274L12.875 22.7274C12.875 23.3488 12.3713 23.8524 11.75 23.8524C11.1287 23.8524 10.625 23.3488 10.625 22.7274L10.625 15.7274C10.625 15.1061 11.1287 14.6024 11.75 14.6024Z" fill="black"/>
<path d="M16.375 13.7274C16.375 13.1061 15.8713 12.6024 15.25 12.6024C14.6287 12.6024 14.125 13.1061 14.125 13.7274V20.7274C14.125 21.3488 14.6287 21.8524 15.25 21.8524C15.8713 21.8524 16.375 21.3488 16.375 20.7274V13.7274Z" fill="black"/>
</svg>
