<svg width="25" height="24" viewBox="0 0 25 24" fill="none" xmlns="http://www.w3.org/2000/svg">
<path d="M13.8313 2.90641C14.7954 2.83901 15.6317 3.56595 15.6991 4.5301C15.736 5.05888 15.5861 5.46749 15.281 5.7569C14.9612 6.06033 14.2988 6.39485 13.0001 6.39485C11.4582 6.39485 9.29205 6.48598 7.5366 6.57515C6.84714 6.61017 6.3166 7.19749 6.35163 7.88695C6.38665 8.57642 6.97396 9.10695 7.66343 9.07193C9.41741 8.98284 11.5276 8.89485 13.0001 8.89485C14.7014 8.89485 16.0697 8.45481 17.0018 7.57048C17.9486 6.67213 18.2716 5.47977 18.193 4.35573C18.0293 2.01424 15.9984 0.248795 13.6569 0.412502C12.5719 0.488365 11.608 0.966999 10.9057 1.68998C10.4246 2.18514 10.4361 2.97652 10.9312 3.45756C11.4264 3.9386 12.2178 3.92716 12.6988 3.43199C12.9891 3.13317 13.3834 2.93773 13.8313 2.90641Z" fill="black"/>
<path d="M4.26671 9.52929C4.94121 9.38218 5.36874 8.71613 5.22163 8.04163C5.07452 7.36713 4.40847 6.9396 3.73397 7.08671C2.86347 7.27657 2.00413 7.51413 1.15937 7.79572L1.10505 7.81382C0.450124 8.03213 0.0961751 8.74003 0.314485 9.39496C0.532796 10.0499 1.2407 10.4038 1.89563 10.1855L1.94993 10.1674C2.71239 9.91327 3.48571 9.69963 4.26671 9.52929Z" fill="black"/>
<path d="M8.75037 11.9997C8.75037 11.3093 9.31001 10.7497 10.0004 10.7497L18.0001 10.7497C19.953 10.7497 21.5356 11.2503 22.6442 12.2379C23.7676 13.2387 24.2504 14.603 24.2504 15.9997C24.2504 18.8992 21.8999 21.2497 19.0004 21.2497C16.1009 21.2497 13.7504 18.8992 13.7504 15.9997C13.7504 15.3093 14.31 14.7497 15.0004 14.7497C15.6907 14.7497 16.2504 15.3093 16.2504 15.9997C16.2504 17.5185 17.4816 18.7497 19.0004 18.7497C20.5191 18.7497 21.7504 17.5185 21.7504 15.9997C21.7504 15.1872 21.483 14.5515 20.9813 14.1046C20.4648 13.6445 19.5472 13.2497 18.0001 13.2497L10.0004 13.2497C9.31001 13.2497 8.75037 12.69 8.75037 11.9997Z" fill="black"/>
<path d="M7.72919 12.0915C7.85572 12.7701 7.40813 13.4229 6.72947 13.5494C5.11245 13.8509 3.5401 14.3774 2.05938 15.1177C1.44191 15.4264 0.69107 15.1762 0.382333 14.5587C0.0735968 13.9412 0.323877 13.1904 0.94135 12.8816C2.63128 12.0367 4.42579 11.4358 6.27126 11.0918C6.94992 10.9652 7.60266 11.4128 7.72919 12.0915Z" fill="black"/>
<path d="M6.04021 15.4195C6.49928 15.2991 6.94578 15.2497 7.60458 15.2497H8.0002C9.66263 15.2497 11.006 15.6191 11.945 16.4346C12.914 17.2763 13.2504 18.4146 13.2504 19.4997C13.2504 21.8469 11.3477 23.7497 9.00045 23.7497C6.65324 23.7497 4.75045 21.8469 4.75045 19.4997C4.75045 18.8093 5.31009 18.2497 6.00045 18.2497C6.6908 18.2497 7.25045 18.8093 7.25045 19.4997C7.25045 20.4662 8.03395 21.2497 9.00045 21.2497C9.96695 21.2497 10.7504 20.4662 10.7504 19.4997C10.7504 18.9279 10.5867 18.5662 10.3057 18.3221C9.99452 18.0519 9.33778 17.7497 8.0002 17.7497H7.60458C7.08874 17.7497 6.86734 17.7871 6.67419 17.8377C6.55743 17.8683 6.43421 17.9085 6.24039 17.9734L6.20019 17.9869C6.01961 18.0475 5.79638 18.1224 5.51896 18.2063C4.8582 18.4063 4.16044 18.0327 3.96047 17.372C3.7605 16.7112 4.13404 16.0135 4.7948 15.8135C5.03557 15.7406 5.22727 15.6763 5.40831 15.6156L5.44608 15.603C5.6319 15.5407 5.83086 15.4743 6.04021 15.4195Z" fill="black"/>
<path d="M3.16438 17.7422C3.54061 18.321 3.37638 19.0952 2.79755 19.4715C2.76286 19.494 2.72828 19.5168 2.69382 19.5397C2.11941 19.9227 1.34333 19.7675 0.960385 19.193C0.577445 18.6186 0.732662 17.8426 1.30707 17.4596C1.3496 17.4313 1.39227 17.4032 1.43509 17.3753C2.01392 16.9991 2.78814 17.1633 3.16438 17.7422Z" fill="black"/>
</svg>
