<svg width="24" height="24" viewBox="0 0 24 24" fill="none" xmlns="http://www.w3.org/2000/svg">
<path fill-rule="evenodd" clip-rule="evenodd" d="M7.27575 7.2266C8.4296 5.42416 10.4512 4.22656 12.7538 4.22656C15.8527 4.22656 18.4443 6.3946 19.0959 9.29719C21.4564 9.69755 23.2538 11.7521 23.2538 14.2266C23.2538 16.988 21.0152 19.2266 18.2538 19.2266H16.1819C16.2308 19.1398 16.2748 19.0496 16.3135 18.9561C16.5462 18.3942 16.5616 17.7814 16.3814 17.2266H18.2538C19.9106 17.2266 21.2538 15.8834 21.2538 14.2266C21.2538 12.5697 19.9106 11.2266 18.2538 11.2266C17.7181 11.2266 17.2826 10.8172 17.2337 10.298C17.0186 8.01425 15.0944 6.22656 12.7538 6.22656C11.0464 6.22656 9.5596 7.17705 8.79621 8.58248C8.55649 9.02382 8.07933 9.28002 7.58183 9.23977C7.47384 9.23103 7.36444 9.22656 7.25378 9.22656C5.04465 9.22656 3.25378 11.0174 3.25378 13.2266C3.25378 15.4357 5.04464 17.2266 7.25378 17.2266H8.62619C8.40774 17.898 8.48592 18.6236 8.82559 19.2266H7.25378C3.94008 19.2266 1.25378 16.5403 1.25378 13.2266C1.25378 9.91285 3.94008 7.22656 7.25378 7.22656L7.27575 7.2266ZM18.2538 9.22656L18.2509 9.22657L18.2537 10.2019L18.2538 9.22656Z" fill="black"/>
<path d="M11.2109 13.7922C10.8204 13.4017 10.1872 13.4017 9.79668 13.7922C9.40616 14.1828 9.40616 14.8159 9.79668 15.2065L11.5896 16.9994H11.0038C10.5993 16.9994 10.2347 17.243 10.0799 17.6167C9.92513 17.9903 10.0107 18.4205 10.2967 18.7065L13.7967 22.2065C14.1872 22.597 14.8204 22.597 15.2109 22.2065C15.6014 21.8159 15.6014 21.1828 15.2109 20.7922L13.418 18.9994H14.0038C14.4083 18.9994 14.7729 18.7557 14.9277 18.382C15.0824 18.0084 14.9969 17.5782 14.7109 17.2922L11.2109 13.7922Z" fill="black"/>
</svg>
