<svg width="24" height="24" viewBox="0 0 24 24" fill="none" xmlns="http://www.w3.org/2000/svg">
<path fill-rule="evenodd" clip-rule="evenodd" d="M1.36498 7.71379C1.25101 7.21375 1.53415 6.70819 2.02006 6.54412C2.14002 6.50361 2.26658 6.49785 2.35631 6.49584C2.45413 6.49365 2.57817 6.49614 2.72237 6.49904L2.73325 6.49925C2.76051 6.4998 2.78785 6.50008 2.81526 6.50008C5.0244 6.50008 6.81526 4.70921 6.81526 2.50008C6.81526 2.47267 6.81499 2.44533 6.81444 2.41806L6.81422 2.40719C6.81133 2.26299 6.80883 2.13895 6.81103 2.04113C6.81304 1.95139 6.8188 1.82483 6.8593 1.70488C7.02338 1.21896 7.52893 0.935829 8.02897 1.0498C8.2032 1.08951 8.3552 1.18774 8.47609 1.26587L8.5093 1.28727C9.89506 2.17511 10.8153 3.72997 10.8153 5.50008C10.8153 5.68863 10.8048 5.87474 10.7845 6.05787C11.4012 5.84367 12.0638 5.72724 12.7536 5.72724C15.7334 5.72724 18.2055 7.89916 18.6738 10.7466C20.9621 10.9585 22.7536 12.8836 22.7536 15.2272C22.7536 17.7125 20.7389 19.7272 18.2536 19.7272H16.7498V18.7272H18.2536C20.1866 18.7272 21.7536 17.1602 21.7536 15.2272C21.7536 13.2942 20.1866 11.7272 18.2536 11.7272C17.9794 11.7273 17.7564 11.5177 17.7313 11.2518C17.4922 8.71362 15.3546 6.72724 12.7536 6.72724C10.8557 6.72724 9.20401 7.78448 8.35666 9.34451C8.21174 9.61131 7.92305 9.76643 7.62197 9.74208C7.50057 9.73226 7.37772 9.72724 7.2536 9.72724C4.76832 9.72724 2.7536 11.742 2.7536 14.2272C2.7536 16.5422 4.50165 18.4489 6.7498 18.6994V19.7045C3.94836 19.4501 1.7536 17.095 1.7536 14.2272C1.7536 12.5453 2.50854 11.0398 3.69804 10.0309C2.83744 9.62804 2.11067 8.98735 1.60246 8.19412L1.58105 8.1609C1.50293 8.04002 1.40469 7.88801 1.36498 7.71379ZM4.71497 9.34689C5.47444 8.95103 6.33789 8.72724 7.2536 8.72724C7.3536 8.72724 7.45302 8.72992 7.55179 8.7352C8.06201 7.84997 8.79207 7.10688 9.66757 6.58075C9.7638 6.237 9.81526 5.87455 9.81526 5.50008C9.81526 4.08494 9.08077 2.84104 7.96984 2.12928C7.88766 2.07663 7.84426 2.0491 7.81186 2.03102C7.81144 2.03998 7.81106 2.05072 7.81077 2.06353C7.80912 2.13743 7.81107 2.23985 7.81424 2.398C7.81492 2.43195 7.81526 2.46598 7.81526 2.50008C7.81526 5.2615 5.57668 7.50008 2.81526 7.50008C2.78116 7.50008 2.74714 7.49973 2.71319 7.49905C2.55504 7.49588 2.45261 7.49393 2.37871 7.49559C2.36591 7.49588 2.35516 7.49625 2.3462 7.49667C2.36428 7.52907 2.39182 7.57248 2.44447 7.65465C2.96431 8.46603 3.76801 9.07662 4.71497 9.34689ZM18.2521 10.7272L18.2536 10.7272V11.2026L18.2521 10.7272Z" fill="black"/>
<path d="M13.7498 19.7272V18.7272H13.2498V19.7272H13.7498Z" fill="black"/>
<path d="M10.2498 19.7272V18.7272H9.7498V19.7272H10.2498Z" fill="black"/>
<path d="M8.2498 13.2272C8.52594 13.2272 8.7498 13.4511 8.7498 13.7272L8.7498 20.7272C8.7498 21.0033 8.52594 21.2272 8.2498 21.2272C7.97366 21.2272 7.7498 21.0033 7.7498 20.7272L7.7498 13.7272C7.7498 13.4511 7.97366 13.2272 8.2498 13.2272Z" fill="black"/>
<path d="M11.7498 15.2272C12.0259 15.2272 12.2498 15.4511 12.2498 15.7272L12.2498 22.7272C12.2498 23.0033 12.0259 23.2272 11.7498 23.2272C11.4737 23.2272 11.2498 23.0033 11.2498 22.7272L11.2498 15.7272C11.2498 15.4511 11.4737 15.2272 11.7498 15.2272Z" fill="black"/>
<path d="M15.7498 13.7272C15.7498 13.4511 15.5259 13.2272 15.2498 13.2272C14.9737 13.2272 14.7498 13.4511 14.7498 13.7272L14.7498 20.7272C14.7498 21.0033 14.9737 21.2272 15.2498 21.2272C15.5259 21.2272 15.7498 21.0033 15.7498 20.7272L15.7498 13.7272Z" fill="black"/>
</svg>
