<svg width="24" height="24" viewBox="0 0 24 24" fill="none" xmlns="http://www.w3.org/2000/svg">
<path d="M0 8C-2.41412e-08 7.44772 0.447715 7 1 7H2.23529C2.78758 7 3.23529 7.44772 3.23529 8C3.23529 8.55229 2.78758 9 2.23529 9H1C0.447715 9 2.41412e-08 8.55229 0 8Z" fill="black"/>
<path d="M9 1C9 0.447716 8.55229 -2.41412e-08 8 0C7.44772 2.41411e-08 7 0.447716 7 1V2.23529C7 2.78758 7.44772 3.23529 8 3.23529C8.55229 3.23529 9 2.78758 9 2.23529V1Z" fill="black"/>
<path d="M6.73969 8.24577C5.89175 8.30733 5.0857 8.51993 4.34832 8.85678C4.28401 8.58161 4.25 8.29478 4.25 8C4.25 5.92893 5.92893 4.25 8 4.25C9.10504 4.25 10.0984 4.72797 10.7848 5.48845C9.14387 5.93391 7.72749 6.92224 6.73969 8.24577Z" fill="black"/>
<path d="M13.6569 3.75739C14.0475 3.36686 14.0475 2.7337 13.6569 2.34317C13.2664 1.95265 12.6332 1.95265 12.2427 2.34317L11.3692 3.21666C10.9787 3.60718 10.9787 4.24035 11.3692 4.63087C11.7598 5.0214 12.3929 5.0214 12.7834 4.63087L13.6569 3.75739Z" fill="black"/>
<path d="M2.34307 2.34317C2.7336 1.95265 3.36676 1.95265 3.75729 2.34317L4.63077 3.21666C5.02129 3.60718 5.02129 4.24035 4.63077 4.63087C4.24025 5.02139 3.60708 5.02139 3.21656 4.63087L2.34307 3.75739C1.95255 3.36686 1.95255 2.7337 2.34307 2.34317Z" fill="black"/>
<path fill-rule="evenodd" clip-rule="evenodd" d="M7.55202 9.73513C8.58754 7.93842 10.5289 6.72717 12.7538 6.72717C15.7337 6.72717 18.2057 8.89908 18.674 11.7465C20.9623 11.9584 22.7538 13.8836 22.7538 16.2272C22.7538 18.7124 20.7391 20.7272 18.2538 20.7272H7.25383C4.21626 20.7272 1.75383 18.2647 1.75383 15.2272C1.75383 12.1896 4.21626 9.72717 7.25383 9.72717C7.35383 9.72717 7.45325 9.72984 7.55202 9.73513ZM18.2538 11.7272L18.2524 11.7272L18.2538 12.2025L18.2538 11.7272Z" fill="black"/>
</svg>
