<svg width="24" height="24" viewBox="0 0 24 24" fill="none" xmlns="http://www.w3.org/2000/svg">
<path d="M13.7613 1.90869C15.2764 1.80276 16.5904 2.9451 16.6964 4.46019C16.75 5.22707 16.5308 5.94918 15.9691 6.48217C15.4044 7.01796 14.4596 7.39468 12.9999 7.39468C11.4857 7.39468 9.34192 7.48456 7.58706 7.5737C7.16821 7.59498 6.75055 7.6284 6.33447 7.67358C6.19721 7.68849 6.09801 7.81184 6.11292 7.94911C6.12783 8.08637 6.25118 8.18557 6.38845 8.17066C6.79513 8.1265 7.20325 8.09384 7.61243 8.07306C9.36699 7.98393 11.4996 7.89468 12.9999 7.89468C14.5401 7.89468 15.6261 7.49685 16.3132 6.84488C17.0033 6.19011 17.2571 5.31125 17.1952 4.42532C17.07 2.63476 15.5169 1.28472 13.7264 1.4099C12.8962 1.46795 12.1602 1.8333 11.6227 2.38662C11.5265 2.48565 11.5287 2.64393 11.6278 2.74013C11.7268 2.83634 11.8851 2.83405 11.9813 2.73502C12.4364 2.26653 13.0585 1.95782 13.7613 1.90869Z" fill="black"/>
<path d="M4.05334 8.55209C4.18824 8.52267 4.27375 8.38946 4.24433 8.25456C4.2149 8.11966 4.08169 8.03415 3.94679 8.06357C3.1121 8.24563 2.28716 8.47362 1.47532 8.74424L1.42101 8.76234C1.29002 8.806 1.21924 8.94758 1.2629 9.07857C1.30656 9.20955 1.44814 9.28034 1.57913 9.23668L1.63344 9.21858C2.42882 8.95345 3.23654 8.73024 4.05334 8.55209Z" fill="black"/>
<path d="M8.7501 11.9995C8.7501 11.8614 8.86202 11.7495 9.0001 11.7495H17.9999C19.7904 11.7495 21.107 12.2078 21.9788 12.9844C22.8535 13.7637 23.2501 14.8365 23.2501 15.9995C23.2501 18.3467 21.3473 20.2495 19.0001 20.2495C16.6529 20.2495 14.7501 18.3467 14.7501 15.9995C14.7501 15.8614 14.862 15.7495 15.0001 15.7495C15.1382 15.7495 15.2501 15.8614 15.2501 15.9995C15.2501 18.0706 16.929 19.7495 19.0001 19.7495C21.0712 19.7495 22.7501 18.0706 22.7501 15.9995C22.7501 14.9534 22.3966 14.0262 21.6462 13.3578C20.8928 12.6866 19.7093 12.2495 17.9999 12.2495H9.0001C8.86202 12.2495 8.7501 12.1376 8.7501 11.9995Z" fill="black"/>
<path d="M6.74586 12.2746C6.77117 12.4103 6.68165 12.5409 6.54592 12.5662C4.83751 12.8847 3.1763 13.4409 1.6119 14.2231C1.4884 14.2849 1.33824 14.2348 1.27649 14.1113C1.21474 13.9878 1.2648 13.8377 1.38829 13.7759C2.99454 12.9728 4.70018 12.4017 6.45428 12.0747C6.59001 12.0493 6.72055 12.1389 6.74586 12.2746Z" fill="black"/>
<path d="M4.41397 16.9948C5.74904 16.5043 7.16679 16.2495 8.60431 16.2495H8.99993C10.5324 16.2495 11.6011 16.592 12.289 17.1894C12.9828 17.7921 13.2502 18.6198 13.2502 19.4995C13.2502 21.2944 11.7951 22.7495 10.0002 22.7495C8.20525 22.7495 6.75018 21.2944 6.75018 19.4995C6.75018 19.3614 6.86211 19.2495 7.00018 19.2495C7.13825 19.2495 7.25018 19.3614 7.25018 19.4995C7.25018 21.0183 8.48139 22.2495 10.0002 22.2495C11.519 22.2495 12.7502 21.0183 12.7502 19.4995C12.7502 18.7224 12.5174 18.0501 11.9611 17.5669C11.3988 17.0786 10.4674 16.7495 8.99993 16.7495H8.60431C7.22592 16.7495 5.86652 16.9939 4.58638 17.4641C4.45678 17.5117 4.31312 17.4452 4.26551 17.3156C4.2179 17.186 4.28437 17.0424 4.41397 16.9948Z" fill="black"/>
<path d="M2.62575 18.1068C2.69757 18.2247 2.66019 18.3785 2.54226 18.4504C2.40625 18.5332 2.27175 18.6189 2.13885 18.7075C2.02397 18.7841 1.86875 18.7531 1.79216 18.6382C1.71558 18.5233 1.74662 18.3681 1.8615 18.2915C2.00009 18.1991 2.14035 18.1097 2.2822 18.0233C2.40012 17.9515 2.55393 17.9889 2.62575 18.1068Z" fill="black"/>
</svg>
