<svg width="24" height="24" viewBox="0 0 24 24" fill="none" xmlns="http://www.w3.org/2000/svg">
<path d="M8.5093 0.287273C9.82246 1.12859 10.7176 2.56887 10.8077 4.22368C9.11229 4.66228 7.64307 5.66019 6.60787 7.00562C5.18425 7.13127 3.8788 7.66838 2.8112 8.49729C2.33482 8.13872 1.9247 7.69708 1.60246 7.19412L1.58105 7.1609C1.50293 7.04002 1.40469 6.88801 1.36498 6.71379C1.25101 6.21375 1.53415 5.70819 2.02006 5.54412C2.14002 5.50361 2.26658 5.49785 2.35631 5.49584C2.45411 5.49365 2.57811 5.49614 2.72227 5.49903L2.73325 5.49925C2.76051 5.4998 2.78785 5.50008 2.81526 5.50008C5.0244 5.50008 6.81526 3.70921 6.81526 1.50008C6.81526 1.47267 6.81499 1.44533 6.81444 1.41806L6.81422 1.40719C6.81133 1.26299 6.80883 1.13895 6.81103 1.04113C6.81304 0.951393 6.8188 0.824832 6.85931 0.704875C7.02338 0.218963 7.52893 -0.0641714 8.02897 0.0497965C8.2032 0.0895074 8.3552 0.18774 8.47609 0.265867L8.5093 0.287273Z" fill="black"/>
<path fill-rule="evenodd" clip-rule="evenodd" d="M7.55179 8.7352C8.58731 6.93849 10.5287 5.72724 12.7536 5.72724C15.7334 5.72724 18.2055 7.89916 18.6738 10.7466C20.9621 10.9585 22.7536 12.8836 22.7536 15.2272C22.7536 16.2299 22.4257 17.1559 21.8713 17.904L19.6435 14.191C18.9331 13.0071 17.3975 12.6232 16.2135 13.3335C15.6554 13.6684 15.275 14.1868 15.1033 14.7653L14.8527 14.3754C14.1061 13.214 12.5593 12.8778 11.3979 13.6244C10.9298 13.9253 10.5957 14.3562 10.4126 14.8395L9.07981 12.8404C8.31388 11.6916 6.7617 11.3813 5.61291 12.1472C4.46411 12.9131 4.15373 14.4653 4.91965 15.6141L6.41968 17.864C7.05667 18.8194 8.2375 19.1949 9.27782 18.8536C9.234 19.1438 9.24157 19.4396 9.30022 19.7272H7.2536C4.21603 19.7272 1.7536 17.2648 1.7536 14.2272C1.7536 11.1897 4.21603 8.72724 7.2536 8.72724C7.3536 8.72724 7.45302 8.72992 7.55179 8.7352ZM18.2536 10.7272L18.2521 10.7272L18.2535 11.2026L18.2536 10.7272Z" fill="black"/>
<path d="M6.37566 13.2912C6.89262 12.9465 7.5911 13.0862 7.93576 13.6031L9.43579 15.853C9.78046 16.37 9.64079 17.0685 9.12383 17.4131C8.60687 17.7578 7.90839 17.6181 7.56372 17.1012L6.06369 14.8513C5.71903 14.3343 5.8587 13.6358 6.37566 13.2912Z" fill="black"/>
<path d="M12.1414 14.781C12.6641 14.445 13.3601 14.5963 13.6961 15.119L15.9461 18.619C16.1686 18.9651 16.1844 19.4052 15.9872 19.7664C15.79 20.1276 15.4113 20.3523 14.9998 20.3523H13.7631L14.7079 21.8876C15.0335 22.4167 14.8685 23.1096 14.3394 23.4353C13.8103 23.7609 13.1173 23.596 12.7917 23.0668L10.7917 19.8169C10.5781 19.4698 10.5689 19.0343 10.7677 18.6785C10.9665 18.3227 11.3422 18.1023 11.7498 18.1023H12.9391L11.8034 16.3357C11.4675 15.813 11.6188 15.117 12.1414 14.781Z" fill="black"/>
<path d="M18.4645 14.8984C18.1448 14.3656 17.4538 14.1929 16.921 14.5125C16.3882 14.8322 16.2154 15.5232 16.5351 16.056L19.3462 20.7412C19.6659 21.274 20.3569 21.4467 20.8897 21.1271C21.4225 20.8074 21.5952 20.1163 21.2756 19.5836L18.4645 14.8984Z" fill="black"/>
</svg>
