<svg width="24" height="24" viewBox="0 0 24 24" fill="none" xmlns="http://www.w3.org/2000/svg">
<path d="M0 8.00024C-2.41411e-08 7.44796 0.447715 7.00024 1 7.00024H2.23529C2.78758 7.00024 3.23529 7.44796 3.23529 8.00025C3.23529 8.29073 3.11143 8.55229 2.91364 8.73499C2.87855 8.76276 2.84373 8.79086 2.80919 8.81928C2.64675 8.93331 2.44884 9.00024 2.23529 9.00024H1C0.447715 9.00024 2.41412e-08 8.55253 0 8.00024Z" fill="black"/>
<path fill-rule="evenodd" clip-rule="evenodd" d="M7.94909 11.7499C6.98729 11.895 6.25001 12.7251 6.25001 13.7274L6.25001 19.636C3.69178 19.1642 1.75383 16.9221 1.75383 14.2274C1.75383 11.1898 4.21626 8.72741 7.25383 8.72741C7.35383 8.72741 7.45325 8.73009 7.55202 8.73537C8.58754 6.93866 10.5289 5.72741 12.7538 5.72741C15.7337 5.72741 18.2057 7.89933 18.674 10.7468C20.9623 10.9587 22.7538 12.8838 22.7538 15.2274C22.7538 17.7127 20.7391 19.7274 18.2538 19.7274H17.25V13.7274C17.25 12.6228 16.3546 11.7274 15.25 11.7274C14.6644 11.7274 14.1376 11.9791 13.7718 12.3802C14.0427 12.77 14.0044 13.3096 13.6569 13.6571C13.539 13.775 13.3989 13.8574 13.25 13.9041V14.4045C12.8835 13.9893 12.3474 13.7274 11.75 13.7274C11.1527 13.7274 10.6165 13.9893 10.25 14.4045V13.7274C10.25 12.6658 9.42289 11.7974 8.37792 11.7314C8.25364 11.7439 8.12756 11.7502 8 11.7502C7.983 11.7502 7.96603 11.7501 7.94909 11.7499ZM18.2538 10.7274L18.2524 10.7274L18.2538 11.2028L18.2538 10.7274Z" fill="black"/>
<path d="M6.73969 7.24602C7.54998 6.16032 8.64866 5.30018 9.92309 4.78022C9.36078 4.44368 8.70298 4.25024 8 4.25024C5.96169 4.25024 4.30321 5.87649 4.25126 7.90228C5.01475 7.5392 5.85439 7.31028 6.73969 7.24602Z" fill="black"/>
<path d="M12.7538 4.22742C12.8953 4.22742 13.0359 4.23134 13.1755 4.23907L13.6569 3.75763C14.0475 3.36711 14.0475 2.73394 13.6569 2.34342C13.2664 1.95289 12.6332 1.95289 12.2427 2.34342L11.3692 3.2169C11.0515 3.5346 10.9923 4.01287 11.1915 4.39045C11.6953 4.28365 12.218 4.22742 12.7538 4.22742Z" fill="black"/>
<path d="M9 1.00024C9 0.447958 8.55229 0.000244116 8 0.000244141C7.44772 0.000244165 7 0.44796 7 1.00024V2.23554C7 2.78782 7.44772 3.23554 8 3.23554C8.55229 3.23554 9 2.78782 9 2.23554V1.00024Z" fill="black"/>
<path d="M2.34307 2.34342C2.7336 1.95289 3.36676 1.95289 3.75729 2.34342L4.63077 3.2169C5.02129 3.60743 5.02129 4.24059 4.63077 4.63111C4.24025 5.02164 3.60708 5.02164 3.21656 4.63111L2.34307 3.75763C1.95255 3.3671 1.95255 2.73394 2.34307 2.34342Z" fill="black"/>
<path d="M8.25001 12.7274C8.8023 12.7274 9.25001 13.1751 9.25001 13.7274L9.25002 20.7274C9.25002 21.2797 8.8023 21.7274 8.25002 21.7274C7.69773 21.7274 7.25001 21.2797 7.25001 20.7274L7.25002 13.7274C7.25002 13.1751 7.69773 12.7274 8.25001 12.7274Z" fill="black"/>
<path d="M11.75 14.7274C12.3023 14.7274 12.75 15.1751 12.75 15.7274L12.75 22.7274C12.75 23.2797 12.3023 23.7274 11.75 23.7274C11.1977 23.7274 10.75 23.2797 10.75 22.7274L10.75 15.7274C10.75 15.1751 11.1977 14.7274 11.75 14.7274Z" fill="black"/>
<path d="M16.25 13.7274C16.25 13.1751 15.8023 12.7274 15.25 12.7274C14.6977 12.7274 14.25 13.1751 14.25 13.7274V20.7274C14.25 21.2797 14.6977 21.7274 15.25 21.7274C15.8023 21.7274 16.25 21.2797 16.25 20.7274V13.7274Z" fill="black"/>
</svg>
