<svg width="24" height="24" viewBox="0 0 24 24" fill="none" xmlns="http://www.w3.org/2000/svg">
<path fill-rule="evenodd" clip-rule="evenodd" d="M10.4943 6.43814C10.5566 6.13115 10.5893 5.81341 10.5893 5.48802C10.5893 3.69369 9.59432 2.13211 8.12715 1.32432C7.8477 1.17046 7.55634 1.2387 7.35775 1.40904C7.16564 1.57384 7.04946 1.83887 7.07353 2.1187C7.084 2.24036 7.08934 2.36354 7.08934 2.48802C7.08934 4.83523 5.18655 6.73802 2.83934 6.73802C2.71486 6.73802 2.59168 6.73268 2.47002 6.72221C2.19019 6.69814 1.92515 6.81432 1.76036 7.00644C1.59001 7.20502 1.52178 7.49638 1.67564 7.77583C2.22539 8.77433 3.12426 9.55414 4.20802 9.95046C2.8737 10.9024 2.00371 12.4632 2.00371 14.2272C2.00371 17.1267 4.35422 19.4772 7.25371 19.4772H10.5251C10.4915 19.3125 10.4915 19.1423 10.5251 18.9772H7.25371C4.63036 18.9772 2.50371 16.8506 2.50371 14.2272C2.50371 11.6039 4.63036 9.47721 7.25371 9.47721C7.38457 9.47721 7.51415 9.4825 7.64224 9.49286C7.84511 9.50927 8.03956 9.40469 8.13708 9.22516C9.02642 7.58783 10.7606 6.47721 12.7537 6.47721C15.4849 6.47721 17.7292 8.56295 17.9803 11.2283C17.9935 11.3676 18.1103 11.4773 18.2537 11.4772C20.3248 11.4772 22.0037 13.1561 22.0037 15.2272C22.0037 16.4218 21.4451 17.4859 20.5749 18.1727L20.834 18.6045C21.849 17.8279 22.5037 16.604 22.5037 15.2272C22.5037 12.9478 20.7092 11.0874 18.4558 10.9819C18.0903 8.15826 15.6768 5.97721 12.7537 5.97721C11.9516 5.97721 11.1878 6.14148 10.4943 6.43814ZM2.13987 7.33197C2.08457 7.39644 2.07483 7.46418 2.11364 7.53467C2.67025 8.54563 3.62586 9.30526 4.76793 9.60184C5.50787 9.20334 6.35438 8.97721 7.25371 8.97721C7.39804 8.97721 7.54107 8.98304 7.68255 8.99449C7.689 8.99501 7.695 8.99151 7.69771 8.98651C8.20891 8.04537 8.97546 7.26271 9.90448 6.73168C10.0247 6.33832 10.0893 5.92072 10.0893 5.48802C10.0893 3.8832 9.19995 2.48575 7.88599 1.76232C7.8155 1.72351 7.74776 1.73325 7.68329 1.78855C7.61236 1.8494 7.56153 1.95768 7.57169 2.07585C7.58338 2.21174 7.58934 2.34922 7.58934 2.48802C7.58934 5.11137 5.46269 7.23802 2.83934 7.23802C2.70054 7.23802 2.56306 7.23206 2.42717 7.22037C2.30899 7.21021 2.20071 7.26104 2.13987 7.33197Z" fill="black"/>
<path d="M18.4398 19.4732L18.1422 18.9772H16.2246C16.2582 19.1419 16.2584 19.312 16.2247 19.4772H18.2537C18.3161 19.4772 18.3781 19.4759 18.4398 19.4732Z" fill="black"/>
<path d="M6.86117 14.0192C6.97605 13.9426 7.13126 13.9737 7.20786 14.0885L8.70789 16.3384C8.78448 16.4533 8.75344 16.6085 8.63856 16.6851C8.52368 16.7617 8.36846 16.7307 8.29187 16.6158L6.79184 14.3659C6.71525 14.251 6.74629 14.0958 6.86117 14.0192Z" fill="black"/>
<path d="M12.6147 15.517C12.7308 15.4424 12.8855 15.476 12.9602 15.5921L15.2102 19.0921C15.2596 19.169 15.2631 19.2668 15.2193 19.3471C15.1755 19.4274 15.0913 19.4773 14.9999 19.4773H12.1973L13.9628 22.3462C14.0352 22.4637 13.9985 22.6177 13.8809 22.6901C13.7633 22.7625 13.6093 22.7258 13.537 22.6082L11.537 19.3583C11.4895 19.2812 11.4875 19.1844 11.5317 19.1054C11.5758 19.0263 11.6593 18.9773 11.7499 18.9773H14.542L12.5396 15.8625C12.4649 15.7464 12.4986 15.5917 12.6147 15.517Z" fill="black"/>
<path d="M17.7143 15.3486C17.6432 15.2302 17.4897 15.1918 17.3713 15.2628C17.2529 15.3339 17.2145 15.4875 17.2855 15.6058L20.0966 20.291C20.1677 20.4094 20.3212 20.4478 20.4396 20.3768C20.558 20.3057 20.5964 20.1521 20.5254 20.0338L17.7143 15.3486Z" fill="black"/>
</svg>
