<svg width="24" height="24" viewBox="0 0 24 24" fill="none" xmlns="http://www.w3.org/2000/svg">
<path fill-rule="evenodd" clip-rule="evenodd" d="M7.19791 7.98586C8.17122 6.19394 10.0702 4.97656 12.2539 4.97656C15.177 4.97656 17.5905 7.15761 17.956 9.98129C20.2094 10.0868 22.0039 11.9471 22.0039 14.2266C22.0039 16.5738 20.1011 18.4766 17.7539 18.4766H6.75391C3.85441 18.4766 1.50391 16.1261 1.50391 13.2266C1.50391 10.3271 3.85441 7.97656 6.75391 7.97656C6.89824 7.97656 7.04126 7.98239 7.18275 7.99384C7.1892 7.99436 7.19519 7.99086 7.19791 7.98586ZM17.7532 9.97656C17.7529 9.97656 17.7534 9.97656 17.7532 9.97656ZM17.7539 10.4766C17.6105 10.4766 17.4936 10.3669 17.4805 10.2277C17.2294 7.5623 14.9851 5.47656 12.2539 5.47656C10.2607 5.47656 8.52662 6.58718 7.63728 8.22451C7.53976 8.40404 7.3453 8.50862 7.14243 8.49221C7.01434 8.48185 6.88477 8.47656 6.75391 8.47656C4.13055 8.47656 2.00391 10.6032 2.00391 13.2266C2.00391 15.8499 4.13055 17.9766 6.75391 17.9766H17.7539C19.825 17.9766 21.5039 16.2976 21.5039 14.2266C21.5039 12.1555 19.825 10.4766 17.7539 10.4766Z" fill="black"/>
</svg>
