<svg width="24" height="24" viewBox="0 0 24 24" fill="none" xmlns="http://www.w3.org/2000/svg">
<path d="M0 8C-2.41411e-08 7.44772 0.447715 7 1 7H2.23529C2.78758 7 3.23529 7.44772 3.23529 8C3.23529 8.29049 3.11143 8.55205 2.91365 8.73474C2.87855 8.76251 2.84373 8.79061 2.80918 8.81904C2.64674 8.93307 2.44884 9 2.23529 9H1C0.447715 9 2.41412e-08 8.55229 0 8Z" fill="black"/>
<path d="M6.73969 7.24577C7.54998 6.16008 8.64866 5.29994 9.92309 4.77998C9.36078 4.44343 8.70298 4.25 8 4.25C5.96169 4.25 4.30321 5.87624 4.25126 7.90203C5.01475 7.53895 5.85439 7.31004 6.73969 7.24577Z" fill="black"/>
<path d="M12.7538 4.22718C12.8953 4.22718 13.0359 4.2311 13.1755 4.23883L13.6569 3.75739C14.0475 3.36686 14.0475 2.7337 13.6569 2.34317C13.2664 1.95265 12.6332 1.95265 12.2427 2.34317L11.3692 3.21666C11.0515 3.53435 10.9923 4.01262 11.1915 4.39021C11.6953 4.2834 12.218 4.22718 12.7538 4.22718Z" fill="black"/>
<path d="M9 1C9 0.447714 8.55229 -2.41412e-08 8 0C7.44772 2.41411e-08 7 0.447714 7 1V2.23529C7 2.78758 7.44772 3.23529 8 3.23529C8.55229 3.23529 9 2.78758 9 2.23529V1Z" fill="black"/>
<path d="M2.34307 2.34317C2.7336 1.95265 3.36676 1.95265 3.75729 2.34317L4.63077 3.21666C5.02129 3.60718 5.02129 4.24035 4.63077 4.63087C4.24025 5.02139 3.60708 5.02139 3.21656 4.63087L2.34307 3.75739C1.95255 3.36686 1.95255 2.7337 2.34307 2.34317Z" fill="black"/>
<path fill-rule="evenodd" clip-rule="evenodd" d="M7.55202 8.73513C8.58754 6.93842 10.5289 5.72717 12.7538 5.72717C15.7337 5.72717 18.2057 7.89908 18.674 10.7465C20.9623 10.9584 22.7538 12.8836 22.7538 15.2272C22.7538 16.8875 21.8547 18.3378 20.5167 19.1177L17.715 14.4481C17.1467 13.501 15.9182 13.1939 14.971 13.7622C14.0239 14.3305 13.7168 15.559 14.285 16.5061L16.2177 19.7272H16.0891L13.2365 14.7351C12.6885 13.776 11.4667 13.4428 10.5077 13.9909C9.78108 14.4061 9.41372 15.208 9.51671 15.9895L8.69928 14.6725C8.11677 13.734 6.88375 13.4455 5.94527 14.028C5.00679 14.6105 4.71822 15.8435 5.30074 16.782L7.12793 19.7258C4.14851 19.6588 1.75383 17.2227 1.75383 14.2272C1.75383 11.1896 4.21626 8.72717 7.25383 8.72717C7.35383 8.72717 7.45325 8.72984 7.55202 8.73513ZM18.2538 10.7272L18.2524 10.7272L18.2538 11.2025L18.2538 10.7272Z" fill="black"/>
<path d="M6.47264 14.8776C6.94188 14.5863 7.55839 14.7306 7.84965 15.1999L12.1657 22.1534C12.457 22.6227 12.3127 23.2392 11.8435 23.5304C11.3742 23.8217 10.7577 23.6774 10.4665 23.2082L6.15037 16.2546C5.85912 15.7854 6.0034 15.1688 6.47264 14.8776Z" fill="black"/>
<path d="M11.0038 14.8591C11.4834 14.5851 12.0942 14.7516 12.3682 15.2312L16.3682 22.2312C16.6422 22.7107 16.4756 23.3215 15.9961 23.5955C15.5166 23.8696 14.9058 23.703 14.6317 23.2234L10.6317 16.2234C10.3577 15.7439 10.5243 15.1331 11.0038 14.8591Z" fill="black"/>
<path d="M16.8575 14.9626C16.5734 14.489 15.9591 14.3355 15.4855 14.6196C15.012 14.9038 14.8584 15.518 15.1425 15.9916L19.5129 23.2756C19.7971 23.7492 20.4113 23.9027 20.8849 23.6186C21.3585 23.3344 21.5121 22.7202 21.2279 22.2466L16.8575 14.9626Z" fill="black"/>
</svg>
