<svg width="24" height="24" viewBox="0 0 24 24" fill="none" xmlns="http://www.w3.org/2000/svg">
<path d="M8.5093 1.28727C9.76458 2.09151 10.6378 3.44308 10.7912 5.00616C9.23695 5.45933 7.90707 6.43681 7.00529 7.73191C5.38102 7.79292 3.90924 8.44992 2.80229 9.49057C2.3297 9.13321 1.92269 8.69395 1.60246 8.19412L1.58105 8.1609C1.50293 8.04002 1.40469 7.88802 1.36498 7.71379C1.25101 7.21375 1.53415 6.7082 2.02006 6.54412C2.14002 6.50361 2.26658 6.49785 2.35631 6.49584C2.45413 6.49365 2.57817 6.49614 2.72237 6.49904L2.73325 6.49925C2.76051 6.4998 2.78785 6.50008 2.81526 6.50008C5.0244 6.50008 6.81526 4.70922 6.81526 2.50008C6.81526 2.47267 6.81499 2.44533 6.81444 2.41806L6.81422 2.40719C6.81133 2.26299 6.80883 2.13895 6.81103 2.04113C6.81304 1.95139 6.8188 1.82483 6.85931 1.70488C7.02338 1.21896 7.52893 0.935827 8.02897 1.0498C8.2032 1.08951 8.3552 1.18774 8.47609 1.26587L8.5093 1.28727Z" fill="black"/>
<path fill-rule="evenodd" clip-rule="evenodd" d="M7.55179 8.7352C8.58731 6.93849 10.5287 5.72724 12.7536 5.72724C15.7334 5.72724 18.2055 7.89916 18.6738 10.7466C20.9621 10.9585 22.7536 12.8836 22.7536 15.2272C22.7536 17.7125 20.7389 19.7272 18.2536 19.7272H16.7498L16.7498 13.7272C16.7498 12.8988 16.0782 12.2272 15.2498 12.2272C14.4214 12.2272 13.7498 12.8988 13.7498 13.7272L13.7498 19.7272H13.2498L13.2498 15.7272C13.2498 14.8988 12.5782 14.2272 11.7498 14.2272C10.9214 14.2272 10.2498 14.8988 10.2498 15.7272L10.2498 19.7272H9.74979L9.74978 13.7272C9.74978 12.8988 9.07821 12.2272 8.24978 12.2272C7.42136 12.2272 6.74978 12.8988 6.74978 13.7272V19.7045C3.94836 19.4501 1.7536 17.095 1.7536 14.2272C1.7536 11.1897 4.21603 8.72724 7.2536 8.72724C7.3536 8.72724 7.45302 8.72992 7.55179 8.7352ZM18.2536 10.7272L18.2521 10.7272L18.2535 11.2026L18.2536 10.7272Z" fill="black"/>
<path d="M8.24978 13.2272C8.52593 13.2272 8.74978 13.4511 8.74978 13.7272L8.74978 20.7272C8.74978 21.0033 8.52593 21.2272 8.24978 21.2272C7.97364 21.2272 7.74978 21.0033 7.74978 20.7272L7.74978 13.7272C7.74978 13.4511 7.97364 13.2272 8.24978 13.2272Z" fill="black"/>
<path d="M11.7498 15.2272C12.0259 15.2272 12.2498 15.4511 12.2498 15.7272L12.2498 22.7272C12.2498 23.0033 12.0259 23.2272 11.7498 23.2272C11.4736 23.2272 11.2498 23.0033 11.2498 22.7272L11.2498 15.7272C11.2498 15.4511 11.4736 15.2272 11.7498 15.2272Z" fill="black"/>
<path d="M15.7498 13.7272C15.7498 13.4511 15.5259 13.2272 15.2498 13.2272C14.9736 13.2272 14.7498 13.4511 14.7498 13.7272L14.7498 20.7272C14.7498 21.0033 14.9736 21.2272 15.2498 21.2272C15.5259 21.2272 15.7498 21.0033 15.7498 20.7272L15.7498 13.7272Z" fill="black"/>
</svg>
