<svg width="24" height="24" viewBox="0 0 24 24" fill="none" xmlns="http://www.w3.org/2000/svg">
<path d="M0 8C-2.41412e-08 7.44772 0.447715 7 1 7L2.23529 7C2.78758 7 3.23529 7.44772 3.23529 8C3.23529 8.55229 2.78758 9 2.23529 9H1C0.447715 9 2.41412e-08 8.55229 0 8Z" fill="black"/>
<path d="M8 0C8.55229 -2.41411e-08 9 0.447714 9 1V2.23529C9 2.78758 8.55229 3.23529 8 3.23529C7.44772 3.23529 7 2.78758 7 2.23529V1C7 0.447716 7.44772 2.41412e-08 8 0Z" fill="black"/>
<path d="M13.6569 3.75739C14.0475 3.36686 14.0475 2.7337 13.6569 2.34317C13.2664 1.95265 12.6332 1.95265 12.2427 2.34317L11.3692 3.21666C10.9787 3.60718 10.9787 4.24035 11.3692 4.63087C11.7598 5.02139 12.3929 5.02139 12.7834 4.63087L13.6569 3.75739Z" fill="black"/>
<path fill-rule="evenodd" clip-rule="evenodd" d="M11.5343 5.21423C10.7102 4.17015 9.43336 3.5 8 3.5C5.51472 3.5 3.5 5.51472 3.5 8C3.5 8.43533 3.56182 8.85623 3.67715 9.25439C2.13365 10.3665 1.1288 12.1795 1.1288 14.2272C1.1288 17.6099 3.87106 20.3522 7.2538 20.3522H9.51736C9.28177 19.8848 9.20147 19.3605 9.27804 18.8536C8.30339 19.1732 7.20543 18.8638 6.54688 18.0379C4.74434 17.7056 3.3788 16.1259 3.3788 14.2272C3.3788 12.0871 5.1137 10.3522 7.2538 10.3522C7.36109 10.3522 7.46712 10.3565 7.57177 10.365C8.11838 10.4092 8.64265 10.1277 8.90607 9.64278C9.64846 8.27599 11.0941 7.35219 12.7538 7.35219C15.0293 7.35219 16.9001 9.0902 17.1093 11.3104C17.1642 11.8928 17.6527 12.3523 18.2538 12.3522C19.8416 12.3522 21.1288 13.6394 21.1288 15.2272C21.1288 15.6113 21.0535 15.9778 20.9168 16.3127L22.216 18.4781C22.9426 17.5935 23.3788 16.4613 23.3788 15.2272C23.3788 12.7197 21.578 10.6328 19.1992 10.1892C18.5053 7.27158 15.8834 5.10219 12.7538 5.10219C12.3371 5.10219 11.9295 5.14067 11.5343 5.21423ZM5.52428 8.34978C5.50827 8.23548 5.5 8.11871 5.5 8C5.5 6.61929 6.61929 5.5 8 5.5C8.54755 5.5 9.05398 5.67603 9.4658 5.97458C8.55512 6.49627 7.78044 7.22775 7.20771 8.10236C6.62348 8.10667 6.05871 8.19277 5.52428 8.34978ZM18.2538 11.2025L18.2505 10.1022L18.2538 10.1022V11.2025Z" fill="black"/>
<path d="M2.34307 2.34317C2.7336 1.95265 3.36676 1.95265 3.75729 2.34317L4.63077 3.21666C5.02129 3.60718 5.02129 4.24035 4.63077 4.63087C4.24025 5.02139 3.60708 5.02139 3.21656 4.63087L2.34307 3.75739C1.95255 3.36686 1.95255 2.7337 2.34307 2.34317Z" fill="black"/>
<path d="M17.5095 20.3522L17.3486 20.084C17.3154 20.175 17.2768 20.2645 17.2326 20.3522H17.5095Z" fill="black"/>
<path d="M6.37587 13.2911C6.89283 12.9465 7.59131 13.0861 7.93598 13.6031L9.43601 15.853C9.78067 16.3699 9.641 17.0684 9.12404 17.4131C8.60709 17.7577 7.9086 17.6181 7.56394 17.1011L6.06391 14.8512C5.71924 14.3343 5.85892 13.6358 6.37587 13.2911Z" fill="black"/>
<path d="M12.1416 14.7809C12.6643 14.4449 13.3603 14.5963 13.6963 15.1189L15.9463 18.6189C16.1689 18.9651 16.1846 19.4051 15.9874 19.7663C15.7902 20.1276 15.4115 20.3523 15 20.3523H13.7633L14.7081 21.8875C15.0337 22.4167 14.8688 23.1096 14.3396 23.4352C13.8105 23.7609 13.1175 23.5959 12.7919 23.0668L10.7919 19.8169C10.5783 19.4698 10.5691 19.0343 10.7679 18.6785C10.9667 18.3227 11.3424 18.1023 11.75 18.1023H12.9394L11.8037 16.3356C11.4677 15.813 11.619 15.1169 12.1416 14.7809Z" fill="black"/>
<path d="M18.4647 14.8984C18.145 14.3656 17.454 14.1928 16.9212 14.5125C16.3884 14.8322 16.2157 15.5232 16.5353 16.056L19.3464 20.7411C19.6661 21.2739 20.3571 21.4467 20.8899 21.127C21.4227 20.8073 21.5954 20.1163 21.2758 19.5835L18.4647 14.8984Z" fill="black"/>
</svg>
