<svg width="24" height="24" viewBox="0 0 24 24" fill="none" xmlns="http://www.w3.org/2000/svg">
<path d="M1.5 13.75C1.36193 13.75 1.25 13.8619 1.25 14C1.25 14.1381 1.36193 14.25 1.5 14.25H22.4999C22.638 14.25 22.7499 14.1381 22.7499 14C22.7499 13.8619 22.638 13.75 22.4999 13.75L16.4051 13.75C16.2755 11.4295 14.3528 9.58783 11.9999 9.58783C9.64707 9.58783 7.72436 11.4295 7.59475 13.75L1.5 13.75Z" fill="black"/>
<path d="M11.9999 3.25C12.138 3.25 12.2499 3.36193 12.2499 3.5V6.35293C12.2499 6.49101 12.138 6.60293 11.9999 6.60293C11.8619 6.60293 11.7499 6.491 11.7499 6.35293V3.5C11.7499 3.36193 11.8619 3.25 11.9999 3.25Z" fill="black"/>
<path d="M19.6014 6.75224C19.699 6.65461 19.699 6.49632 19.6014 6.39869C19.5038 6.30106 19.3455 6.30106 19.2479 6.39869L17.9376 7.70891C17.84 7.80654 17.84 7.96483 17.9376 8.06246C18.0353 8.1601 18.1936 8.1601 18.2912 8.06246L19.6014 6.75224Z" fill="black"/>
<path d="M4.39846 6.39869C4.49609 6.30106 4.65439 6.30106 4.75202 6.39869L6.06224 7.70891C6.15987 7.80654 6.15987 7.96484 6.06224 8.06247C5.96461 8.1601 5.80632 8.1601 5.70868 8.06247L4.39846 6.75224C4.30083 6.65461 4.30083 6.49632 4.39846 6.39869Z" fill="black"/>
<path d="M8.97313 17.8232C9.07076 17.7256 9.22905 17.7256 9.32668 17.8232L11.7499 20.2465V15C11.7499 14.8619 11.8618 14.75 11.9999 14.75C12.138 14.75 12.2499 14.8619 12.2499 15V20.2033L14.63 17.8232C14.7276 17.7256 14.8859 17.7256 14.9835 17.8232C15.0812 17.9209 15.0812 18.0792 14.9835 18.1768L12.1551 21.0052C12.0575 21.1028 11.8992 21.1028 11.8016 21.0052L8.97313 18.1768C8.87549 18.0792 8.87549 17.9209 8.97313 17.8232Z" fill="black"/>
</svg>
