<svg width="24" height="24" viewBox="0 0 24 24" fill="none" xmlns="http://www.w3.org/2000/svg">
<path d="M0.125 8.25C0.125 7.62868 0.62868 7.125 1.25 7.125H2.48529C3.10661 7.125 3.61029 7.62868 3.61029 8.25C3.61029 8.87132 3.10661 9.375 2.48529 9.375H1.25C0.628679 9.375 0.125 8.87132 0.125 8.25Z" fill="black"/>
<path d="M8.25 0.125C8.87132 0.125 9.375 0.628677 9.375 1.25V2.48529C9.375 3.10661 8.87132 3.61029 8.25 3.61029C7.62868 3.61029 7.125 3.10661 7.125 2.48529V1.25C7.125 0.628677 7.62868 0.125 8.25 0.125Z" fill="black"/>
<path fill-rule="evenodd" clip-rule="evenodd" d="M13.9953 4.09578C14.4347 3.65643 14.4347 2.94412 13.9953 2.50478C13.556 2.06544 12.8437 2.06544 12.4043 2.50478L11.5308 3.37827C11.0915 3.81761 11.0915 4.52992 11.5308 4.96926C11.6132 5.05158 11.7051 5.11847 11.803 5.16995C11.7727 5.1743 11.7425 5.17885 11.7124 5.18361C10.8651 4.22758 9.62793 3.625 8.25 3.625C5.69568 3.625 3.625 5.69568 3.625 8.25C3.625 8.58238 3.66006 8.90658 3.72669 9.21908C2.15519 10.3279 1.12881 12.1577 1.12881 14.2272C1.12881 17.6099 3.87106 20.3522 7.25381 20.3522L8.90093 20.3522C8.4749 19.6898 8.38109 18.8542 8.67058 18.1022H7.25381C5.1137 18.1022 3.37881 16.3673 3.37881 14.2272C3.37881 12.0871 5.1137 10.3522 7.25381 10.3522C7.36109 10.3522 7.46713 10.3565 7.57178 10.365C8.11838 10.4092 8.64265 10.1278 8.90607 9.64279C9.64847 8.276 11.0941 7.3522 12.7538 7.3522C15.0293 7.3522 16.9001 9.09021 17.1093 11.3104C17.1642 11.8928 17.6527 12.3523 18.2538 12.3522C19.8416 12.3522 21.1288 13.6394 21.1288 15.2272C21.1288 16.815 19.8416 18.1022 18.2538 18.1022H16.3371C16.5627 18.6889 16.5638 19.3523 16.3135 19.9567C16.2558 20.0961 16.1864 20.2282 16.1067 20.3522H18.2538C21.0843 20.3522 23.3788 18.0577 23.3788 15.2272C23.3788 12.7197 21.578 10.6328 19.1992 10.1892C18.5204 7.33512 15.9967 5.19703 12.9575 5.10528C13.0154 5.06594 13.0705 5.0206 13.1218 4.96926L13.9953 4.09578ZM5.87501 8.25802C5.87501 8.25535 5.875 8.25268 5.875 8.25C5.875 6.93832 6.93832 5.875 8.25 5.875C8.61032 5.875 8.9519 5.95524 9.25785 6.09883C8.43699 6.6098 7.73634 7.29512 7.20772 8.10237C6.74978 8.10575 6.3038 8.15938 5.87501 8.25802ZM18.2538 11.2025L18.2505 10.1022L18.2538 10.1022V11.2025Z" fill="black"/>
<path d="M2.50468 2.50478C2.94402 2.06544 3.65633 2.06544 4.09567 2.50478L4.96916 3.37827C5.4085 3.81761 5.4085 4.52992 4.96916 4.96926C4.52982 5.4086 3.81751 5.4086 3.37817 4.96926L2.50468 4.09577C2.06534 3.65643 2.06534 2.94412 2.50468 2.50478Z" fill="black"/>
<path d="M9.70831 14.7045C10.1477 14.2652 10.86 14.2652 11.2993 14.7045L14.7993 18.2045C15.1211 18.5262 15.2173 19.0101 15.0432 19.4305C14.869 19.8509 14.4588 20.125 14.0038 20.125H13.7198L15.2993 21.7045C15.7386 22.1438 15.7386 22.8561 15.2993 23.2955C14.86 23.7348 14.1477 23.7348 13.7083 23.2955L10.2083 19.7955C9.88657 19.4737 9.79032 18.9899 9.96445 18.5695C10.1386 18.1491 10.5488 17.875 11.0038 17.875H11.2878L9.70831 16.2955C9.26898 15.8561 9.26898 15.1438 9.70831 14.7045Z" fill="black"/>
</svg>
