<svg width="24" height="24" viewBox="0 0 24 24" fill="none" xmlns="http://www.w3.org/2000/svg">
<path d="M0.75 8C0.75 7.86193 0.861929 7.75 1 7.75H2.23529C2.37337 7.75 2.48529 7.86193 2.48529 8C2.48529 8.13807 2.37337 8.25 2.23529 8.25H1C0.861929 8.25 0.75 8.13807 0.75 8Z" fill="black"/>
<path d="M8 0.75C8.13807 0.75 8.25 0.861929 8.25 1V2.23529C8.25 2.37337 8.13807 2.48529 8 2.48529C7.86193 2.48529 7.75 2.37337 7.75 2.23529V1C7.75 0.861931 7.86193 0.75 8 0.75Z" fill="black"/>
<path d="M13.1266 3.22706C13.2242 3.12942 13.2242 2.97113 13.1266 2.8735C13.029 2.77587 12.8707 2.77587 12.773 2.8735L11.8996 3.74699C11.8019 3.84462 11.8019 4.00291 11.8996 4.10054C11.9972 4.19817 12.1555 4.19817 12.2531 4.10054L13.1266 3.22706Z" fill="black"/>
<path d="M2.8734 2.8735C2.97103 2.77587 3.12932 2.77587 3.22695 2.8735L4.10044 3.74699C4.19807 3.84462 4.19807 4.00291 4.10044 4.10054C4.00281 4.19817 3.84452 4.19817 3.74689 4.10054L2.8734 3.22706C2.77577 3.12943 2.77577 2.97113 2.8734 2.8735Z" fill="black"/>
<path fill-rule="evenodd" clip-rule="evenodd" d="M4.64233 9.67176C4.39124 9.16843 4.25 8.60071 4.25 8C4.25 5.92893 5.92893 4.25 8 4.25C9.40633 4.25 10.6318 5.02413 11.2737 6.16951C11.7459 6.04406 12.242 5.9772 12.7538 5.9772C15.6769 5.9772 18.0904 8.15825 18.4559 10.9819C20.7093 11.0874 22.5038 12.9477 22.5038 15.2272C22.5038 17.0647 21.3377 18.6298 19.7052 19.2229L19.4424 18.7849C20.9309 18.2879 22.0038 16.8828 22.0038 15.2272C22.0038 13.1561 20.3249 11.4772 18.2538 11.4772C18.1104 11.4772 17.9935 11.3676 17.9804 11.2283C17.7293 8.56293 15.485 6.4772 12.7538 6.4772C10.7606 6.4772 9.02652 7.58782 8.13718 9.22514C8.03966 9.40468 7.8452 9.50926 7.64233 9.49285C7.51424 9.48248 7.38467 9.4772 7.2538 9.4772C4.63045 9.4772 2.5038 11.6038 2.5038 14.2272C2.5038 16.8506 4.63045 18.9772 7.2538 18.9772H7.546L7.85635 19.4772H7.2538C4.35431 19.4772 2.0038 17.1267 2.0038 14.2272C2.0038 12.2784 3.06565 10.5776 4.64233 9.67176ZM4.75 8C4.75 6.20507 6.20508 4.75 8 4.75C9.18147 4.75 10.2157 5.38043 10.7846 6.32326C9.45988 6.80614 8.36279 7.76222 7.69781 8.98649C7.69509 8.99149 7.68909 8.995 7.68265 8.99447C7.54116 8.98303 7.39814 8.9772 7.2538 8.9772C6.48135 8.9772 5.74787 9.14402 5.08741 9.44361C4.87143 9.00869 4.75 8.51853 4.75 8Z" fill="black"/>
<path d="M16.9423 19.4772L16.6423 18.9772H14.7967L15.0824 19.4772H16.9423Z" fill="black"/>
<path d="M12.203 19.4772L11.9173 18.9772H10.4884L10.7988 19.4772H12.203Z" fill="black"/>
<path d="M6.86816 15.5149C6.98547 15.4421 7.13959 15.4781 7.21241 15.5955L11.5285 22.549C11.6013 22.6663 11.5652 22.8205 11.4479 22.8933C11.3306 22.9661 11.1765 22.93 11.1037 22.8127L6.78759 15.8591C6.71478 15.7418 6.75085 15.5877 6.86816 15.5149Z" fill="black"/>
<path d="M11.3759 15.5103C11.4958 15.4418 11.6485 15.4835 11.717 15.6033L15.717 22.6033C15.7855 22.7232 15.7439 22.8759 15.624 22.9444C15.5041 23.0129 15.3514 22.9713 15.2829 22.8514L11.2829 15.8514C11.2144 15.7315 11.2561 15.5788 11.3759 15.5103Z" fill="black"/>
<path d="M16.2144 15.3485C16.1434 15.2302 15.9898 15.1918 15.8714 15.2628C15.753 15.3338 15.7146 15.4874 15.7857 15.6058L20.156 22.8898C20.2271 23.0082 20.3806 23.0466 20.499 22.9755C20.6174 22.9045 20.6558 22.7509 20.5848 22.6325L16.2144 15.3485Z" fill="black"/>
</svg>
