<svg width="24" height="24" viewBox="0 0 24 24" fill="none" xmlns="http://www.w3.org/2000/svg">
<path d="M8.10334 1.3358C9.52697 2.11961 10.5061 3.61312 10.5629 5.34034C9.15238 5.82425 7.9534 6.76213 7.14007 7.97773C5.639 8.00453 4.26709 8.56052 3.20297 9.46707C2.55926 9.04234 2.02508 8.46522 1.65184 7.7873C1.49798 7.50785 1.56621 7.2165 1.73656 7.01791C1.90135 6.82579 2.16638 6.70962 2.44622 6.73369C2.56787 6.74415 2.69105 6.7495 2.81554 6.7495C5.16275 6.7495 7.06554 4.84671 7.06554 2.4995C7.06554 2.37501 7.06019 2.25183 7.04973 2.13018C7.02566 1.85034 7.14184 1.58531 7.33395 1.42052C7.53254 1.25017 7.82389 1.18194 8.10334 1.3358Z" fill="black"/>
<path fill-rule="evenodd" clip-rule="evenodd" d="M7.75117 8.89008C8.7394 7.15081 10.6094 5.9767 12.7539 5.9767C15.677 5.9767 18.0904 8.15775 18.456 10.9814C20.7094 11.0869 22.5039 12.9472 22.5039 15.2267C22.5039 17.5739 20.6011 19.4767 18.2539 19.4767H15.1592C15.352 19.0099 15.245 18.4728 14.8878 18.1156L11.3878 14.6156C10.8996 14.1274 10.1082 14.1274 9.62 14.6156C9.13185 15.1038 9.13185 15.8952 9.62 16.3834L10.9862 17.7496C10.4877 17.7566 10.0403 18.0595 9.84904 18.5211C9.71983 18.8331 9.72461 19.1765 9.84853 19.4767H7.25388C4.35438 19.4767 2.00388 17.1262 2.00388 14.2267C2.00388 11.3272 4.35438 8.9767 7.25388 8.9767C7.36096 8.9767 7.46733 8.97991 7.57288 8.98624C7.62953 8.98964 7.66204 8.9915 7.68571 8.99164L7.69151 8.99163L7.69457 8.98694C7.70726 8.96718 7.72329 8.93915 7.75117 8.89008Z" fill="black"/>
<path d="M10.1503 15.1459C10.3456 14.9507 10.6622 14.9507 10.8574 15.1459L14.3574 18.6459C14.5004 18.7889 14.5432 19.004 14.4658 19.1908C14.3884 19.3777 14.2061 19.4995 14.0039 19.4995H12.211L14.8574 22.1459C15.0527 22.3412 15.0527 22.6578 14.8574 22.853C14.6622 23.0483 14.3456 23.0483 14.1503 22.853L10.6503 19.353C10.5073 19.21 10.4646 18.995 10.5419 18.8081C10.6193 18.6213 10.8017 18.4995 11.0039 18.4995H12.7968L10.1503 15.853C9.95507 15.6578 9.95507 15.3412 10.1503 15.1459Z" fill="black"/>
</svg>
