<svg width="24" height="24" viewBox="0 0 24 24" fill="none" xmlns="http://www.w3.org/2000/svg">
<path d="M0.500244 8C0.500244 7.72386 0.724102 7.5 1.00024 7.5L2.23554 7.5C2.51168 7.5 2.73554 7.72386 2.73554 8C2.73554 8.27614 2.51168 8.5 2.23554 8.5L1.00024 8.5C0.724102 8.5 0.500244 8.27614 0.500244 8Z" fill="black"/>
<path d="M8.50025 1C8.50025 0.72386 8.27639 0.5 8.00024 0.5C7.7241 0.5 7.50024 0.72386 7.50024 1V2.2353C7.50024 2.51144 7.7241 2.73529 8.00025 2.73529C8.27639 2.73529 8.50025 2.51144 8.50025 2.2353V1Z" fill="black"/>
<path d="M13.3036 3.40383C13.4989 3.20857 13.4989 2.89199 13.3036 2.69673C13.1084 2.50146 12.7918 2.50146 12.5965 2.69673L11.723 3.57021C11.5278 3.76547 11.5278 4.08206 11.723 4.27732C11.9183 4.47258 12.2349 4.47258 12.4301 4.27732L13.3036 3.40383Z" fill="black"/>
<path d="M2.69687 2.69673C2.89213 2.50146 3.20871 2.50146 3.40398 2.69673L4.27746 3.57021C4.47272 3.76547 4.47272 4.08206 4.27746 4.27732C4.0822 4.47258 3.76562 4.47258 3.57035 4.27732L2.69687 3.40383C2.50161 3.20857 2.50161 2.89199 2.69687 2.69673Z" fill="black"/>
<path d="M4.25024 8C4.25024 5.92893 5.92918 4.25 8.00025 4.25C8.91886 4.25 9.76033 4.5803 10.4124 5.12862C9.02131 5.62243 7.83328 6.54341 7.00576 7.73187C6.02487 7.76871 5.09959 8.0229 4.27669 8.44769C4.25923 8.30089 4.25024 8.15149 4.25024 8Z" fill="black"/>
<path d="M6.72283 13.8112C6.95259 13.658 7.26303 13.7201 7.41621 13.9498L8.91624 16.1997C9.06943 16.4294 9.00735 16.7399 8.77759 16.8931C8.54783 17.0463 8.2374 16.9842 8.08421 16.7544L6.58418 14.5045C6.431 14.2748 6.49307 13.9643 6.72283 13.8112Z" fill="black"/>
<path fill-rule="evenodd" clip-rule="evenodd" d="M7.55226 8.73516C8.58778 6.93845 10.5292 5.7272 12.7541 5.7272C15.7339 5.7272 18.206 7.89912 18.6743 10.7466C20.9625 10.9585 22.7541 12.8836 22.7541 15.2272C22.7541 16.6044 22.1354 17.8371 21.1608 18.6626L18.7865 14.7055C18.3603 13.9951 17.4389 13.7647 16.7285 14.191C16.0181 14.6172 15.7878 15.5386 16.214 16.249L18.3008 19.727L18.2541 19.7272H16.4145C16.5676 19.2944 16.515 18.8098 16.262 18.4162L14.012 14.9162C13.564 14.2193 12.636 14.0176 11.9391 14.4655C11.2423 14.9135 11.0405 15.8416 11.4885 16.5384L12.2527 17.7273H11.7502C11.2068 17.7273 10.7059 18.0212 10.4408 18.4956C10.2281 18.8763 10.1939 19.3255 10.336 19.7272H7.25407C4.21651 19.7272 1.75407 17.2648 1.75407 14.2272C1.75407 11.1896 4.21651 8.7272 7.25407 8.7272C7.35407 8.7272 7.45349 8.72988 7.55226 8.73516ZM18.2541 10.7272L18.2526 10.7272L18.254 11.2026L18.2541 10.7272ZM8.24824 13.3951C7.78869 12.7058 6.85738 12.5196 6.16811 12.9792C5.47883 13.4387 5.2926 14.37 5.75215 15.0593L7.25218 17.3092C7.71173 17.9985 8.64304 18.1847 9.33232 17.7251C10.0216 17.2656 10.2078 16.3343 9.74828 15.645L8.24824 13.3951Z" fill="black"/>
<path d="M12.4799 15.3067C12.7121 15.1573 13.0215 15.2246 13.1708 15.4569L15.4208 18.9569C15.5197 19.1107 15.5267 19.3063 15.4391 19.4669C15.3515 19.6274 15.1831 19.7273 15.0002 19.7273H12.645L14.1761 22.2151C14.3208 22.4503 14.2475 22.7582 14.0123 22.903C13.7771 23.0477 13.4691 22.9744 13.3244 22.7392L11.3244 19.4893C11.2295 19.335 11.2254 19.1415 11.3138 18.9834C11.4021 18.8252 11.5691 18.7273 11.7502 18.7273H14.0844L12.3297 15.9976C12.1803 15.7654 12.2476 15.456 12.4799 15.3067Z" fill="black"/>
<path d="M17.929 15.2199C17.7869 14.9831 17.4798 14.9064 17.243 15.0484C17.0062 15.1905 16.9294 15.4976 17.0715 15.7344L19.8826 20.4196C20.0247 20.6564 20.3318 20.7331 20.5686 20.5911C20.8054 20.449 20.8822 20.1419 20.7401 19.9051L17.929 15.2199Z" fill="black"/>
</svg>
