<svg width="24" height="24" viewBox="0 0 24 24" fill="none" xmlns="http://www.w3.org/2000/svg">
<path fill-rule="evenodd" clip-rule="evenodd" d="M7.20769 7.10173C8.38956 5.29691 10.4314 4.10156 12.7538 4.10156C15.8834 4.10156 18.5053 6.27095 19.1991 9.18857C21.578 9.63217 23.3788 11.7191 23.3788 14.2266C23.3788 17.057 21.0842 19.3516 18.2538 19.3516H16.1067C16.1863 19.2276 16.2558 19.0954 16.3135 18.9561C16.5638 18.3517 16.5627 17.6883 16.3371 17.1016H18.2538C19.8416 17.1016 21.1288 15.8144 21.1288 14.2266C21.1288 12.6387 19.8416 11.3516 18.2538 11.3516C17.6527 11.3516 17.1641 10.8922 17.1093 10.3097C16.9001 8.08957 15.0292 6.35156 12.7538 6.35156C11.0941 6.35156 9.64845 7.27536 8.90605 8.64215C8.64263 9.12712 8.11836 9.40858 7.57176 9.36436C7.46711 9.3559 7.36107 9.35156 7.25378 9.35156C5.11368 9.35156 3.37878 11.0865 3.37878 13.2266C3.37878 15.3667 5.11368 17.1016 7.25378 17.1016H8.67056C8.38107 17.8536 8.47488 18.6892 8.90091 19.3516H7.25378C3.87104 19.3516 1.12878 16.6093 1.12878 13.2266C1.12878 9.8592 3.84617 7.12651 7.20769 7.10173ZM18.2538 10.2019V9.10156L18.2505 9.10157L18.2538 10.2019Z" fill="black"/>
<path d="M11.2993 13.7039C10.8599 13.2645 10.1476 13.2645 9.70829 13.7039C9.26895 14.1432 9.26895 14.8555 9.70829 15.2948L11.2878 16.8744H11.0038C10.5488 16.8744 10.1386 17.1484 9.96442 17.5688C9.79029 17.9892 9.88655 18.4731 10.2083 18.7948L13.7083 22.2948C14.1476 22.7342 14.8599 22.7342 15.2993 22.2948C15.7386 21.8555 15.7386 21.1432 15.2993 20.7039L13.7198 19.1244H14.0038C14.4588 19.1244 14.869 18.8503 15.0432 18.4299C15.2173 18.0095 15.121 17.5256 14.7993 17.2039L11.2993 13.7039Z" fill="black"/>
</svg>
