<svg width="24" height="24" viewBox="0 0 24 24" fill="none" xmlns="http://www.w3.org/2000/svg">
<path d="M13.7788 2.15821C15.1561 2.06191 16.3507 3.10041 16.447 4.47776C16.4965 5.18511 16.2946 5.82885 15.7971 6.30094C15.2936 6.77864 14.4194 7.14482 12.9999 7.14482C11.4788 7.14482 9.32946 7.23501 7.57445 7.32415C7.15075 7.34568 6.72832 7.37948 6.30755 7.42517C6.03302 7.45499 5.83464 7.7017 5.86445 7.97623C5.89426 8.25076 6.14098 8.44914 6.41551 8.41933C6.81749 8.37568 7.22084 8.3434 7.62518 8.32287C9.3796 8.23375 11.5066 8.14482 12.9999 8.14482C14.5804 8.14482 15.737 7.73643 16.4854 7.02637C17.2396 6.3107 17.5107 5.35347 17.4446 4.40801C17.3098 2.47972 15.6373 1.02583 13.709 1.16065C12.8151 1.22314 12.0222 1.61682 11.4434 2.21255C11.251 2.41061 11.2556 2.72716 11.4536 2.91958C11.6517 3.112 11.9683 3.10742 12.1607 2.90936C12.5746 2.48328 13.1397 2.20289 13.7788 2.15821Z" fill="black"/>
<path d="M4.48865 8.20142C4.42981 7.93162 4.16339 7.7606 3.89359 7.81945C3.04994 8.00345 2.21641 8.23384 1.39633 8.5072L1.34202 8.5253C1.08005 8.61263 0.93847 8.89579 1.02579 9.15776C1.11312 9.41973 1.39628 9.56131 1.65825 9.47399L1.71256 9.45588C2.49971 9.1935 3.29883 8.97268 4.10668 8.79648C4.37648 8.73764 4.5475 8.47122 4.48865 8.20142Z" fill="black"/>
<path d="M8.50016 11.9996C8.50016 11.7235 8.72402 11.4996 9.00016 11.4996L17.9999 11.4996C19.8311 11.4996 21.2141 11.9685 22.1451 12.7979C23.082 13.6325 23.5002 14.7782 23.5002 15.9996C23.5002 18.4849 21.4854 20.4996 19.0002 20.4996C16.5149 20.4996 14.5002 18.4849 14.5002 15.9996C14.5002 15.7235 14.724 15.4996 15.0002 15.4996C15.2763 15.4996 15.5002 15.7235 15.5002 15.9996C15.5002 17.9326 17.0672 19.4996 19.0002 19.4996C20.9332 19.4996 22.5002 17.9326 22.5002 15.9996C22.5002 15.0119 22.1682 14.1577 21.48 13.5446C20.7858 12.9262 19.6688 12.4996 17.9999 12.4996L9.00016 12.4996C8.72402 12.4996 8.50016 12.2758 8.50016 11.9996Z" fill="black"/>
<path d="M6.99169 12.2289C7.04231 12.5004 6.86327 12.7615 6.5918 12.8121C4.90625 13.1263 3.26725 13.6751 1.72377 14.4469C1.47678 14.5704 1.17644 14.4702 1.05295 14.2233C0.929456 13.9763 1.02957 13.6759 1.27656 13.5524C2.90372 12.7388 4.63158 12.1603 6.40852 11.829C6.67999 11.7784 6.94108 11.9574 6.99169 12.2289Z" fill="black"/>
<path d="M4.32784 16.7602C5.69037 16.2597 7.13729 15.9996 8.60438 15.9996H9C10.565 15.9996 11.7024 16.3489 12.453 17.0008C13.2156 17.6632 13.5002 18.5686 13.5002 19.4996C13.5002 21.4326 11.9332 22.9996 10.0002 22.9996C8.06725 22.9996 6.50024 21.4326 6.50024 19.4996C6.50025 19.2235 6.7241 18.9996 7.00025 18.9996C7.27639 18.9996 7.50025 19.2235 7.50024 19.4996C7.50024 20.8804 8.61953 21.9996 10.0002 21.9996C11.381 21.9996 12.5002 20.8804 12.5002 19.4996C12.5002 18.7739 12.2847 18.1792 11.7973 17.7558C11.2978 17.322 10.435 16.9996 9 16.9996H8.60438C7.25556 16.9996 5.92532 17.2387 4.67265 17.6989C4.41344 17.7941 4.12613 17.6612 4.03091 17.402C3.93569 17.1428 4.06863 16.8554 4.32784 16.7602Z" fill="black"/>
<path d="M2.83934 17.9769C2.98297 18.2128 2.90822 18.5204 2.67237 18.664C2.53927 18.7451 2.40765 18.829 2.27759 18.9157C2.04783 19.0688 1.7374 19.0068 1.58422 18.777C1.43104 18.5472 1.49313 18.2368 1.72289 18.0836C1.86433 17.9893 2.00747 17.8981 2.15223 17.8099C2.38808 17.6663 2.69571 17.7411 2.83934 17.9769Z" fill="black"/>
</svg>
