<svg width="24" height="24" viewBox="0 0 24 24" fill="none" xmlns="http://www.w3.org/2000/svg">
<path fill-rule="evenodd" clip-rule="evenodd" d="M10.4943 7.43814C10.5566 7.13115 10.5893 6.81341 10.5893 6.48802C10.5893 4.69369 9.59432 3.13211 8.12715 2.32432C7.8477 2.17046 7.55634 2.23869 7.35775 2.40904C7.16564 2.57383 7.04946 2.83887 7.07353 3.1187C7.084 3.24036 7.08934 3.36354 7.08934 3.48802C7.08934 5.83523 5.18655 7.73802 2.83934 7.73802C2.71486 7.73802 2.59168 7.73268 2.47002 7.72221C2.19019 7.69814 1.92515 7.81432 1.76036 8.00644C1.59001 8.20502 1.52178 8.49638 1.67564 8.77583C2.22539 9.77433 3.12426 10.5541 4.20802 10.9505C2.8737 11.9024 2.00371 13.4632 2.00371 15.2272C2.00371 18.1267 4.35422 20.4772 7.25371 20.4772L18.2537 20.4772C20.6009 20.4772 22.5037 18.5744 22.5037 16.2272C22.5037 13.9478 20.7092 12.0874 18.4558 11.9819C18.0903 9.15826 15.6768 6.97721 12.7537 6.97721C11.9516 6.97721 11.1878 7.14148 10.4943 7.43814ZM2.13987 8.33197C2.08457 8.39644 2.07483 8.46418 2.11364 8.53467C2.67025 9.54563 3.62586 10.3053 4.76793 10.6018C5.50787 10.2033 6.35438 9.97721 7.25371 9.97721C7.39804 9.97721 7.54107 9.98304 7.68255 9.99449C7.689 9.99501 7.695 9.9915 7.69771 9.9865C8.20891 9.04537 8.97546 8.26271 9.90448 7.73168C10.0247 7.33832 10.0893 6.92072 10.0893 6.48802C10.0893 4.8832 9.19995 3.48575 7.88599 2.76232C7.8155 2.72351 7.74776 2.73325 7.68329 2.78855C7.61236 2.8494 7.56153 2.95768 7.57169 3.07585C7.58338 3.21174 7.58934 3.34922 7.58934 3.48802C7.58934 6.11137 5.46269 8.23802 2.83934 8.23802C2.70054 8.23802 2.56306 8.23206 2.42717 8.22037C2.30899 8.21021 2.20071 8.26104 2.13987 8.33197ZM17.9803 12.2283C17.9935 12.3676 18.1103 12.4773 18.2537 12.4772C20.3248 12.4772 22.0037 14.1561 22.0037 16.2272C22.0037 18.2983 20.3248 19.9772 18.2537 19.9772H7.25371C4.63036 19.9772 2.50371 17.8506 2.50371 15.2272C2.50371 12.6039 4.63036 10.4772 7.25371 10.4772C7.38457 10.4772 7.51415 10.4825 7.64224 10.4929C7.84511 10.5093 8.03956 10.4047 8.13708 10.2252C9.02642 8.58783 10.7606 7.47721 12.7537 7.47721C15.4849 7.47721 17.7292 9.56295 17.9803 12.2283Z" fill="black"/>
</svg>
