<svg width="24" height="24" viewBox="0 0 24 24" fill="none" xmlns="http://www.w3.org/2000/svg">
<path d="M0.750061 8C0.750061 7.86193 0.86199 7.75 1.00006 7.75H2.23536C2.37343 7.75 2.48536 7.86193 2.48536 8C2.48536 8.13807 2.37343 8.25 2.23536 8.25H1.00006C0.86199 8.25 0.750061 8.13807 0.750061 8Z" fill="black"/>
<path d="M8.00006 0.75C8.13813 0.75 8.25006 0.861929 8.25006 1V2.23529C8.25006 2.37337 8.13813 2.48529 8.00006 2.48529C7.86199 2.48529 7.75006 2.37337 7.75006 2.23529V1C7.75006 0.861929 7.86199 0.75 8.00006 0.75Z" fill="black"/>
<path d="M13.1267 3.22706C13.2243 3.12942 13.2243 2.97113 13.1267 2.8735C13.029 2.77587 12.8707 2.77587 12.7731 2.8735L11.8996 3.74699C11.802 3.84462 11.802 4.00291 11.8996 4.10054C11.9973 4.19817 12.1555 4.19817 12.2532 4.10054L13.1267 3.22706Z" fill="black"/>
<path d="M2.87346 2.8735C2.97109 2.77587 3.12938 2.77587 3.22702 2.8735L4.1005 3.74699C4.19813 3.84462 4.19813 4.00291 4.1005 4.10054C4.00287 4.19817 3.84458 4.19817 3.74695 4.10054L2.87346 3.22705C2.77583 3.12942 2.77583 2.97113 2.87346 2.8735Z" fill="black"/>
<path fill-rule="evenodd" clip-rule="evenodd" d="M4.64221 9.67139C3.06563 10.5772 2.00388 12.278 2.00388 14.2267C2.00388 17.1262 4.35438 19.4767 7.25388 19.4767H9.5818C9.52789 19.316 9.50146 19.1468 9.50401 18.9767H7.25388C4.63053 18.9767 2.50388 16.8501 2.50388 14.2267C2.50388 11.6034 4.63053 9.47672 7.25388 9.47672C7.38474 9.47672 7.51431 9.48201 7.6424 9.49237C7.84527 9.50878 8.03973 9.4042 8.13725 9.22467C9.02659 7.58734 10.7607 6.47672 12.7539 6.47672C15.4851 6.47672 17.7294 8.56246 17.9805 11.2278C17.9936 11.3671 18.1104 11.4768 18.2539 11.4767C20.3249 11.4767 22.0039 13.1557 22.0039 15.2267C22.0039 17.2978 20.3249 18.9767 18.2539 18.9767H15.5038C15.5063 19.1442 15.4809 19.3132 15.426 19.4767H18.2539C20.6011 19.4767 22.5039 17.5739 22.5039 15.2267C22.5039 12.9473 20.7094 11.0869 18.456 10.9814C18.0904 8.15777 15.677 5.97672 12.7539 5.97672C12.242 5.97672 11.7458 6.04361 11.2735 6.1691C10.6316 5.02395 9.40622 4.25 8.00006 4.25C5.92899 4.25 4.25006 5.92893 4.25006 8C4.25006 8.60056 4.39124 9.16815 4.64221 9.67139ZM4.75006 8C4.75006 6.20507 6.20514 4.75 8.00006 4.75C9.18137 4.75 10.2155 5.38026 10.7845 6.32287C9.45981 6.80578 8.36282 7.76182 7.69788 8.98601C7.69516 8.99101 7.68917 8.99452 7.68272 8.994C7.54123 8.98255 7.39821 8.97672 7.25388 8.97672C6.48135 8.97672 5.74779 9.14358 5.08728 9.44322C4.87142 9.0084 4.75006 8.51837 4.75006 8Z" fill="black"/>
<path d="M10.3271 15.3227C10.4247 15.2251 10.583 15.2251 10.6807 15.3227L14.1807 18.8227C14.2522 18.8942 14.2735 19.0018 14.2349 19.0952C14.1962 19.1886 14.105 19.2495 14.0039 19.2495H11.6074L14.6807 22.3227C14.7783 22.4204 14.7783 22.5787 14.6807 22.6763C14.583 22.7739 14.4247 22.7739 14.3271 22.6763L10.8271 19.1763C10.7556 19.1048 10.7342 18.9973 10.7729 18.9038C10.8116 18.8104 10.9028 18.7495 11.0039 18.7495H13.4003L10.3271 15.6763C10.2295 15.5787 10.2295 15.4204 10.3271 15.3227Z" fill="black"/>
</svg>
