<svg width="24" height="24" viewBox="0 0 24 24" fill="none" xmlns="http://www.w3.org/2000/svg">
<path fill-rule="evenodd" clip-rule="evenodd" d="M6.77575 7.2266C7.9296 5.42416 9.9512 4.22656 12.2538 4.22656C15.3527 4.22656 17.9443 6.3946 18.5959 9.29718C20.9564 9.69755 22.7538 11.7521 22.7538 14.2266C22.7538 16.988 20.5152 19.2266 17.7538 19.2266H6.75378C3.44008 19.2266 0.753784 16.5403 0.753784 13.2266C0.753784 9.91285 3.44008 7.22656 6.75378 7.22656C6.76111 7.22656 6.76843 7.22658 6.77575 7.2266ZM17.7538 9.22656C17.7528 9.22656 17.7518 9.22656 17.7509 9.22657L17.7537 10.2019L17.7538 9.22656ZM17.7538 11.2266C17.2181 11.2266 16.7826 10.8172 16.7337 10.298C16.5186 8.01425 14.5944 6.22656 12.2538 6.22656C10.5464 6.22656 9.0596 7.17705 8.29621 8.58248C8.05649 9.02382 7.57933 9.28001 7.08183 9.23977C6.97384 9.23103 6.86444 9.22656 6.75378 9.22656C4.54465 9.22656 2.75378 11.0174 2.75378 13.2266C2.75378 15.4357 4.54465 17.2266 6.75378 17.2266H17.7538C19.4106 17.2266 20.7538 15.8834 20.7538 14.2266C20.7538 12.5697 19.4106 11.2266 17.7538 11.2266Z" fill="black"/>
</svg>
