<svg width="24" height="24" viewBox="0 0 24 24" fill="none" xmlns="http://www.w3.org/2000/svg">
<path d="M0.750244 8C0.750244 7.86193 0.862173 7.75 1.00024 7.75H2.23554C2.37361 7.75 2.48554 7.86193 2.48554 8C2.48554 8.13807 2.37361 8.25 2.23554 8.25H1.00024C0.862173 8.25 0.750244 8.13807 0.750244 8Z" fill="black"/>
<path d="M8.00024 0.75C8.13832 0.75 8.25024 0.861929 8.25024 1V2.23529C8.25024 2.37337 8.13832 2.48529 8.00024 2.48529C7.86217 2.48529 7.75024 2.37337 7.75024 2.23529V1C7.75024 0.861929 7.86217 0.75 8.00024 0.75Z" fill="black"/>
<path d="M13.1268 3.22706C13.2245 3.12942 13.2245 2.97113 13.1268 2.8735C13.0292 2.77587 12.8709 2.77587 12.7733 2.8735L11.8998 3.74699C11.8022 3.84462 11.8022 4.00291 11.8998 4.10054C11.9974 4.19817 12.1557 4.19817 12.2534 4.10054L13.1268 3.22706Z" fill="black"/>
<path d="M2.87365 2.8735C2.97128 2.77587 3.12957 2.77587 3.2272 2.8735L4.10068 3.74699C4.19831 3.84462 4.19831 4.00291 4.10068 4.10054C4.00305 4.19817 3.84476 4.19817 3.74713 4.10054L2.87365 3.22706C2.77601 3.12943 2.77601 2.97113 2.87365 2.8735Z" fill="black"/>
<path d="M4.25024 8C4.25024 5.92893 5.92918 4.25 8.00025 4.25C9.12124 4.25 10.1274 4.74188 10.8145 5.52158C9.33981 5.98211 8.09131 6.95369 7.27603 8.22725L7.25407 8.22721C6.21067 8.22721 5.22948 8.49354 4.37476 8.96193C4.29353 8.65495 4.25024 8.33253 4.25024 8Z" fill="black"/>
<path fill-rule="evenodd" clip-rule="evenodd" d="M7.55226 8.73516C8.58778 6.93845 10.5292 5.7272 12.7541 5.7272C15.7339 5.7272 18.206 7.89911 18.6743 10.7466C20.9625 10.9585 22.7541 12.8836 22.7541 15.2272C22.7541 16.8746 21.8689 18.3152 20.5482 19.0993L18.1434 15.0913C17.9303 14.7362 17.4696 14.621 17.1144 14.8341C16.7592 15.0472 16.644 15.5079 16.8571 15.8631L19.1251 19.643C18.8433 19.6982 18.5521 19.7272 18.2541 19.7272H15.5594C15.5972 19.6848 15.6306 19.6378 15.6585 19.5867C15.79 19.3459 15.7795 19.0525 15.6311 18.8217L13.3811 15.3217C13.1571 14.9733 12.6931 14.8724 12.3447 15.0964C11.9962 15.3204 11.8954 15.7844 12.1194 16.1329L13.6265 18.4773H11.7502C11.4785 18.4773 11.2281 18.6243 11.0955 18.8615C10.963 19.0986 10.9691 19.389 11.1115 19.6204L11.1772 19.7272H7.25407C4.21651 19.7272 1.75407 17.2648 1.75407 14.2272C1.75407 11.1896 4.21651 8.7272 7.25407 8.7272C7.35407 8.7272 7.45349 8.72988 7.55226 8.73516ZM7.98217 15.2494C7.98814 15.2498 7.99417 15.25 8.00024 15.25C8.13832 15.25 8.25024 15.1381 8.25024 15V14.7501L9.12425 16.061C9.35403 16.4057 9.26091 16.8713 8.91628 17.1011C8.57164 17.3309 8.10598 17.2378 7.87621 16.8931L6.37618 14.6433C6.1464 14.2986 6.23951 13.833 6.58415 13.6032C6.92879 13.3734 7.39445 13.4665 7.62422 13.8112L7.75024 14.0002V14.9015L7.2082 14.0885C7.13161 13.9736 6.97639 13.9426 6.86151 14.0192C6.74663 14.0958 6.71559 14.251 6.79219 14.3659L8.29222 16.6157C8.36881 16.7306 8.52403 16.7617 8.63891 16.6851C8.75379 16.6085 8.78482 16.4532 8.70823 16.3384L7.98217 15.2494ZM18.2541 10.7272L18.2526 10.7272L18.254 11.2026L18.2541 10.7272Z" fill="black"/>
<path d="M12.615 15.517C12.7312 15.4423 12.8859 15.4759 12.9605 15.5921L15.2105 19.0921C15.26 19.169 15.2635 19.2668 15.2197 19.3471C15.1758 19.4273 15.0917 19.4773 15.0002 19.4773H12.1976L13.9632 22.3461C14.0355 22.4637 13.9989 22.6177 13.8813 22.6901C13.7637 22.7624 13.6097 22.7258 13.5373 22.6082L11.5373 19.3583C11.4899 19.2812 11.4878 19.1844 11.532 19.1053C11.5762 19.0262 11.6597 18.9773 11.7502 18.9773H14.5423L12.5399 15.8624C12.4653 15.7463 12.4989 15.5916 12.615 15.517Z" fill="black"/>
<path d="M17.7146 15.3485C17.6436 15.2302 17.49 15.1918 17.3716 15.2628C17.2532 15.3338 17.2148 15.4874 17.2859 15.6058L20.097 20.291C20.168 20.4093 20.3216 20.4477 20.44 20.3767C20.5584 20.3057 20.5968 20.1521 20.5257 20.0337L17.7146 15.3485Z" fill="black"/>
</svg>
