<svg width="24" height="24" viewBox="0 0 24 24" fill="none" xmlns="http://www.w3.org/2000/svg">
<path d="M8.10371 1.33629C9.52733 2.12009 10.5064 3.61361 10.5633 5.34083C9.15275 5.82474 7.95376 6.76262 7.14044 7.97821C5.63937 8.00502 4.26745 8.56101 3.20333 9.46756C2.55962 9.04282 2.02545 8.46571 1.6522 7.78779C1.49835 7.50834 1.56658 7.21699 1.73692 7.0184C1.90172 6.82628 2.16675 6.71011 2.44658 6.73418C2.56824 6.74464 2.69142 6.74999 2.8159 6.74999C5.16311 6.74999 7.0659 4.8472 7.0659 2.49999C7.0659 2.3755 7.06056 2.25232 7.05009 2.13066C7.02602 1.85083 7.1422 1.5858 7.33432 1.421C7.5329 1.25066 7.82426 1.18243 8.10371 1.33629Z" fill="black"/>
<path fill-rule="evenodd" clip-rule="evenodd" d="M7.75154 8.89057C8.73977 7.1513 10.6097 5.97718 12.7542 5.97718C15.6774 5.97719 18.0908 8.15824 18.4564 10.9819C20.7097 11.0874 22.5042 12.9477 22.5042 15.2272C22.5042 17.5744 20.6015 19.4772 18.2542 19.4772H15.1596C15.3524 19.0104 15.2453 18.4733 14.8881 18.1161L11.3881 14.6161C10.9 14.1279 10.1085 14.1279 9.62037 14.6161C9.13222 15.1042 9.13221 15.8957 9.62037 16.3839L10.9866 17.7501C10.4881 17.7571 10.0406 18.06 9.84941 18.5216C9.72019 18.8336 9.72497 19.177 9.84889 19.4772H7.25425C4.35475 19.4772 2.00425 17.1267 2.00425 14.2272C2.00425 11.3277 4.35475 8.97719 7.25425 8.97719C7.36133 8.97719 7.4677 8.9804 7.57325 8.98673C7.6299 8.99012 7.6624 8.99199 7.68608 8.99213L7.69187 8.99212L7.69494 8.98743C7.70763 8.96767 7.72365 8.93964 7.75154 8.89057Z" fill="black"/>
<path d="M10.1507 15.1464C10.346 14.9512 10.6625 14.9512 10.8578 15.1464L14.3578 18.6464C14.5008 18.7894 14.5436 19.0045 14.4662 19.1913C14.3888 19.3782 14.2065 19.5 14.0042 19.5H12.2114L14.8578 22.1464C15.0531 22.3417 15.0531 22.6583 14.8578 22.8535C14.6625 23.0488 14.346 23.0488 14.1507 22.8535L10.6507 19.3535C10.5077 19.2105 10.4649 18.9955 10.5423 18.8086C10.6197 18.6218 10.802 18.5 11.0042 18.5H12.7971L10.1507 15.8535C9.95543 15.6583 9.95543 15.3417 10.1507 15.1464Z" fill="black"/>
</svg>
