<svg width="24" height="24" viewBox="0 0 24 24" fill="none" xmlns="http://www.w3.org/2000/svg">
<path d="M0.500244 8C0.500244 7.72386 0.724102 7.5 1.00024 7.5H2.23554C2.51168 7.5 2.73554 7.72386 2.73554 8C2.73554 8.27614 2.51168 8.5 2.23554 8.5H1.00024C0.724102 8.5 0.500244 8.27614 0.500244 8Z" fill="black"/>
<path d="M8.00024 0.5C8.27639 0.5 8.50025 0.72386 8.50025 1V2.2353C8.50025 2.51144 8.27639 2.73529 8.00025 2.73529C7.7241 2.73529 7.50024 2.51144 7.50024 2.23529V1C7.50024 0.723858 7.7241 0.5 8.00024 0.5Z" fill="black"/>
<path d="M13.3036 3.40384C13.4989 3.20857 13.4989 2.89199 13.3036 2.69673C13.1084 2.50146 12.7918 2.50146 12.5965 2.69673L11.723 3.57021C11.5278 3.76547 11.5278 4.08206 11.723 4.27732C11.9183 4.47258 12.2349 4.47258 12.4301 4.27732L13.3036 3.40384Z" fill="black"/>
<path d="M2.69687 2.69673C2.89213 2.50146 3.20871 2.50147 3.40398 2.69673L4.27746 3.57021C4.47272 3.76547 4.47272 4.08206 4.27746 4.27732C4.0822 4.47258 3.76562 4.47258 3.57035 4.27732L2.69687 3.40383C2.50161 3.20857 2.50161 2.89199 2.69687 2.69673Z" fill="black"/>
<path fill-rule="evenodd" clip-rule="evenodd" d="M4.32155 9.57336C4.11474 9.09044 4.00024 8.55859 4.00024 8C4.00024 5.79086 5.79111 4 8.00025 4C9.43156 4 10.6873 4.75177 11.3941 5.882C11.831 5.78074 12.2863 5.7272 12.7541 5.7272C15.7339 5.7272 18.2059 7.89911 18.6743 10.7466C20.9625 10.9585 22.7541 12.8836 22.7541 15.2272C22.7541 16.6044 22.1354 17.8371 21.1608 18.6626L20.6374 17.7903C21.3244 17.1513 21.7541 16.2394 21.7541 15.2272C21.7541 13.2942 20.1871 11.7272 18.2541 11.7272C17.9799 11.7273 17.7568 11.5176 17.7318 11.2517C17.4927 8.71358 15.355 6.7272 12.7541 6.7272C10.8562 6.7272 9.20448 7.78444 8.35712 9.34447C8.2122 9.61127 7.92351 9.76639 7.62243 9.74203C7.50104 9.73221 7.37819 9.7272 7.25406 9.7272C4.76878 9.7272 2.75406 11.7419 2.75406 14.2272C2.75406 16.7125 4.76878 18.7272 7.25406 18.7272H10.336C10.2215 19.0511 10.2219 19.4044 10.336 19.7272H7.25406C4.2165 19.7272 1.75406 17.2648 1.75406 14.2272C1.75406 12.2677 2.77877 10.5475 4.32155 9.57336ZM5.00025 8C5.00025 6.34315 6.34339 5 8.00025 5C8.98393 5 9.85704 5.47345 10.4041 6.2049C9.2009 6.71761 8.19962 7.61197 7.55226 8.73516C7.45349 8.72987 7.35406 8.7272 7.25406 8.7272C6.53374 8.7272 5.84575 8.86568 5.21527 9.11746C5.07657 8.7721 5.00025 8.39496 5.00025 8ZM18.2526 10.7272L18.2541 10.7272V11.2025L18.2526 10.7272Z" fill="black"/>
<path d="M18.3009 19.727L17.701 18.7272H16.4145C16.5285 19.0496 16.5292 19.4029 16.4145 19.7272H18.2541L18.3009 19.727Z" fill="black"/>
<path d="M6.72284 13.8112C6.9526 13.658 7.26304 13.72 7.41622 13.9498L8.91625 16.1997C9.06944 16.4294 9.00736 16.7399 8.7776 16.8931C8.54784 17.0462 8.23741 16.9842 8.08422 16.7544L6.58419 14.5045C6.43101 14.2748 6.49308 13.9643 6.72284 13.8112Z" fill="black"/>
<path d="M12.4799 15.3067C12.7122 15.1573 13.0215 15.2246 13.1708 15.4569L15.4208 18.9569C15.5197 19.1107 15.5268 19.3063 15.4391 19.4669C15.3515 19.6274 15.1832 19.7273 15.0003 19.7273H12.6451L14.1761 22.2151C14.3208 22.4503 14.2475 22.7582 14.0123 22.903C13.7771 23.0477 13.4692 22.9744 13.3244 22.7392L11.3244 19.4893C11.2295 19.335 11.2254 19.1415 11.3138 18.9834C11.4021 18.8252 11.5691 18.7273 11.7503 18.7273H14.0844L12.3297 15.9976C12.1803 15.7654 12.2476 15.456 12.4799 15.3067Z" fill="black"/>
<path d="M17.929 15.2199C17.7869 14.9831 17.4798 14.9064 17.243 15.0484C17.0062 15.1905 16.9294 15.4976 17.0715 15.7344L19.8826 20.4196C20.0247 20.6564 20.3318 20.7331 20.5686 20.5911C20.8054 20.449 20.8822 20.1419 20.7401 19.9051L17.929 15.2199Z" fill="black"/>
</svg>
