<svg width="24" height="24" viewBox="0 0 24 24" fill="none" xmlns="http://www.w3.org/2000/svg">
<path d="M0.5 8.00025C0.5 7.7241 0.723858 7.50025 1 7.50025L2.23529 7.50025C2.51144 7.50025 2.73529 7.7241 2.73529 8.00025C2.73529 8.27639 2.51144 8.50025 2.23529 8.50025L1 8.50025C0.723858 8.50025 0.5 8.27639 0.5 8.00025Z" fill="black"/>
<path d="M8.05298 13.2677C8.11344 13.2418 8.18005 13.2274 8.25001 13.2274C8.52616 13.2274 8.75001 13.4513 8.75001 13.7274L8.75001 20.7274C8.75001 21.0036 8.52615 21.2274 8.25001 21.2274C7.97387 21.2274 7.75001 21.0036 7.75001 20.7274L7.75001 15.4334C7.60056 15.3469 7.5 15.1853 7.5 15.0002V13.765C7.5 13.4888 7.72386 13.265 8 13.265C8.0179 13.265 8.03557 13.2659 8.05298 13.2677Z" fill="black"/>
<path d="M8 0.500244C8.27614 0.500244 8.5 0.724104 8.5 1.00025V2.23554C8.5 2.51168 8.27614 2.73554 8 2.73554C7.72386 2.73554 7.5 2.51168 7.5 2.23554V1.00025C7.5 0.724104 7.72386 0.500244 8 0.500244Z" fill="black"/>
<path d="M13.3034 3.40408C13.4986 3.20881 13.4986 2.89223 13.3034 2.69697C13.1081 2.50171 12.7915 2.50171 12.5963 2.69697L11.7228 3.57046C11.5275 3.76572 11.5275 4.0823 11.7228 4.27756C11.918 4.47283 12.2346 4.47283 12.4299 4.27756L13.3034 3.40408Z" fill="black"/>
<path d="M2.69662 2.69697C2.89189 2.50171 3.20847 2.50171 3.40373 2.69697L4.27722 3.57046C4.47248 3.76572 4.47248 4.0823 4.27722 4.27756C4.08195 4.47282 3.76537 4.47282 3.57011 4.27756L2.69662 3.40408C2.50136 3.20881 2.50136 2.89223 2.69662 2.69697Z" fill="black"/>
<path d="M4.25 8.00025C4.25 5.92918 5.92893 4.25024 8 4.25024C8.91862 4.25024 9.76009 4.58055 10.4121 5.12887C9.02106 5.62267 7.83304 6.54366 7.00552 7.73211C6.02463 7.76895 5.09935 8.02315 4.27645 8.44793C4.25898 8.30114 4.25 8.15174 4.25 8.00025Z" fill="black"/>
<path fill-rule="evenodd" clip-rule="evenodd" d="M7.55202 8.7354C8.58753 6.93869 10.5289 5.72744 12.7538 5.72744C15.7337 5.72745 18.2057 7.89936 18.674 10.7468C20.9623 10.9587 22.7538 12.8838 22.7538 15.2274C22.7538 17.7127 20.7391 19.7274 18.2538 19.7274H16.75V13.7274C16.75 12.899 16.0784 12.2274 15.25 12.2274C14.4216 12.2274 13.75 12.899 13.75 13.7274L13.75 19.7274H13.25L13.25 15.7274C13.25 14.899 12.5784 14.2274 11.75 14.2274C10.9216 14.2274 10.25 14.899 10.25 15.7274L10.25 19.7274H9.75001L9.75001 13.7274C9.75001 12.899 9.07844 12.2274 8.25001 12.2274C7.42159 12.2274 6.75001 12.899 6.75001 13.7274V19.7047C3.94858 19.4503 1.75383 17.0952 1.75383 14.2274C1.75383 11.1899 4.21626 8.72744 7.25383 8.72744C7.35383 8.72744 7.45325 8.73012 7.55202 8.7354ZM18.2538 10.7274L18.2524 10.7274L18.2538 11.2028L18.2538 10.7274Z" fill="black"/>
<path d="M11.75 15.2274C12.0262 15.2274 12.25 15.4513 12.25 15.7274L12.25 22.7274C12.25 23.0036 12.0262 23.2274 11.75 23.2274C11.4739 23.2274 11.25 23.0036 11.25 22.7274L11.25 15.7274C11.25 15.4513 11.4739 15.2274 11.75 15.2274Z" fill="black"/>
<path d="M15.75 13.7274C15.75 13.4513 15.5262 13.2274 15.25 13.2274C14.9739 13.2274 14.75 13.4513 14.75 13.7274L14.75 20.7274C14.75 21.0036 14.9739 21.2274 15.25 21.2274C15.5262 21.2274 15.75 21.0036 15.75 20.7274L15.75 13.7274Z" fill="black"/>
</svg>
