<svg width="24" height="24" viewBox="0 0 24 24" fill="none" xmlns="http://www.w3.org/2000/svg">
<path d="M0.25 8C0.25 7.58579 0.585787 7.25 1 7.25H2.23529C2.64951 7.25 2.98529 7.58579 2.98529 8C2.98529 8.41422 2.64951 8.75 2.23529 8.75H1C0.585786 8.75 0.25 8.41422 0.25 8Z" fill="black"/>
<path d="M8 0.25C8.41421 0.25 8.75 0.585789 8.75 1V2.23529C8.75 2.64951 8.41421 2.98529 8 2.98529C7.58579 2.98529 7.25 2.64951 7.25 2.23529V1C7.25 0.585789 7.58579 0.25 8 0.25Z" fill="black"/>
<path d="M13.4802 3.58061C13.773 3.28772 13.773 2.81284 13.4802 2.51995C13.1873 2.22706 12.7124 2.22706 12.4195 2.51995L11.546 3.39344C11.2531 3.68633 11.2531 4.1612 11.546 4.45409C11.8389 4.74699 12.3138 4.74699 12.6067 4.4541L13.4802 3.58061Z" fill="black"/>
<path fill-rule="evenodd" clip-rule="evenodd" d="M11.5088 5.60123C10.7432 4.4834 9.45723 3.75 8 3.75C5.65279 3.75 3.75 5.65279 3.75 8C3.75 8.51917 3.84309 9.0166 4.01349 9.4765C2.49829 10.512 1.50383 12.2535 1.50383 14.2272C1.50383 17.4028 4.07819 19.9772 7.25383 19.9772H7.57826L6.61787 18.4299C4.57233 18.123 3.00383 16.3583 3.00383 14.2272C3.00383 11.88 4.90662 9.97719 7.25383 9.97719C7.37122 9.97719 7.48734 9.98194 7.60204 9.99121C8.00133 10.0235 8.38425 9.81786 8.57657 9.46379C9.38194 7.98105 10.9512 6.97719 12.7538 6.97719C15.2246 6.97719 17.2555 8.86423 17.4827 11.2752C17.5196 11.6677 17.8489 11.9773 18.2538 11.9772C20.0487 11.9773 21.5038 13.4323 21.5038 15.2272C21.5038 16.5216 20.7471 17.6393 19.6518 18.162L20.4261 19.4525C21.9569 18.6639 23.0038 17.0678 23.0038 15.2272C23.0038 12.8185 21.211 10.8286 18.887 10.519C18.3239 7.64512 15.7924 5.47719 12.7538 5.47719C12.3275 5.47719 11.9111 5.5199 11.5088 5.60123ZM5.3664 8.79413C5.29069 8.54271 5.25 8.27611 5.25 8C5.25 6.48122 6.48122 5.25 8 5.25C8.78889 5.25 9.5002 5.58218 10.0017 6.11431C8.92962 6.64101 8.03075 7.46563 7.41305 8.47936C7.36013 8.47792 7.30705 8.47719 7.25383 8.47719C6.59269 8.47719 5.95761 8.58878 5.3664 8.79413ZM18.2516 10.4772L18.2538 10.4772V11.2025L18.2516 10.4772Z" fill="black"/>
<path d="M2.51985 2.51995C2.81274 2.22706 3.28762 2.22706 3.58051 2.51995L4.45399 3.39343C4.74689 3.68633 4.74689 4.1612 4.45399 4.45409C4.1611 4.74699 3.68623 4.74699 3.39333 4.45409L2.51985 3.58061C2.22695 3.28772 2.22696 2.81284 2.51985 2.51995Z" fill="black"/>
<path d="M16.6593 19.9772L15.7593 18.4772H15.0869L15.9441 19.9772H16.6593Z" fill="black"/>
<path d="M11.9129 19.9772L11.0558 18.4772H10.7666L11.6977 19.9772H11.9129Z" fill="black"/>
<path d="M6.6045 15.09C6.95643 14.8716 7.41881 14.9798 7.63725 15.3317L11.9533 22.2853C12.1718 22.6372 12.0636 23.0996 11.7116 23.3181C11.3597 23.5365 10.8973 23.4283 10.6789 23.0764L6.3628 16.1228C6.14435 15.7708 6.25257 15.3085 6.6045 15.09Z" fill="black"/>
<path d="M11.1279 15.0761C11.4875 14.8706 11.9457 14.9956 12.1512 15.3552L16.1512 22.3552C16.3567 22.7149 16.2317 23.173 15.8721 23.3785C15.5125 23.584 15.0543 23.4591 14.8488 23.0994L10.8488 16.0994C10.6433 15.7398 10.7683 15.2817 11.1279 15.0761Z" fill="black"/>
<path d="M16.6432 15.0913C16.4301 14.7361 15.9694 14.6209 15.6142 14.834C15.259 15.0471 15.1438 15.5078 15.3569 15.863L19.7273 23.147C19.9404 23.5022 20.4011 23.6173 20.7563 23.4042C21.1115 23.1911 21.2267 22.7304 21.0136 22.3752L16.6432 15.0913Z" fill="black"/>
</svg>
