<svg width="24" height="24" viewBox="0 0 24 24" fill="none" xmlns="http://www.w3.org/2000/svg">
<path fill-rule="evenodd" clip-rule="evenodd" d="M2.67044 10.165C1.71127 11.2462 1.12882 12.6691 1.12882 14.2281C1.12882 17.6109 3.87108 20.3531 7.25382 20.3531H8.90095C8.47492 19.6907 8.38111 18.8551 8.67059 18.1031H7.25382C5.11372 18.1031 3.37882 16.3682 3.37882 14.2281C3.37882 12.088 5.11372 10.3531 7.25382 10.3531C7.36111 10.3531 7.46715 10.3574 7.57179 10.3659C8.1184 10.4101 8.64267 10.1287 8.90609 9.64369C9.64849 8.2769 11.0941 7.35311 12.7538 7.35311C15.0293 7.35311 16.9001 9.09111 17.1093 11.3113C17.1642 11.8937 17.6527 12.3532 18.2538 12.3531C19.8416 12.3531 21.1288 13.6403 21.1288 15.2281C21.1288 16.8159 19.8416 18.1031 18.2538 18.1031H16.3371C16.5627 18.6898 16.5639 19.3532 16.3135 19.9576C16.2558 20.097 16.1864 20.2291 16.1067 20.3531H18.2538C21.0843 20.3531 23.3788 18.0586 23.3788 15.2281C23.3788 12.7206 21.578 10.6337 19.1992 10.1901C18.5053 7.2725 15.8835 5.10311 12.7538 5.10311C12.3019 5.10311 11.8607 5.14837 11.4343 5.23456C11.3465 3.35365 10.3344 1.71501 8.84669 0.761847L8.81794 0.743075C8.70995 0.672038 8.4604 0.50788 8.16808 0.441255C7.35541 0.25603 6.53403 0.71605 6.26737 1.50576C6.19369 1.72397 6.18849 1.93491 6.1864 2.02796C6.1839 2.13945 6.18665 2.2755 6.1894 2.41208L6.18979 2.43143C6.19025 2.45451 6.19048 2.47768 6.19048 2.50091C6.19048 4.36487 4.67944 5.8759 2.81548 5.87591C2.79225 5.87591 2.76909 5.87567 2.746 5.87521L2.72666 5.87482C2.59011 5.87207 2.45399 5.86933 2.34253 5.87183C2.24948 5.87391 2.03854 5.87912 1.82033 5.9528C1.03063 6.21945 0.570605 7.04084 0.75583 7.85351C0.822456 8.14582 0.986615 8.39538 1.05765 8.50337L1.07642 8.53211C1.4905 9.17842 2.03396 9.73497 2.67044 10.165ZM4.66572 8.67516C4.28144 8.53601 3.92949 8.32897 3.62432 8.06818C6.08358 7.71404 8.02862 5.769 8.38276 3.30974C8.88715 3.89999 9.19048 4.6652 9.19048 5.50091C9.19048 5.73618 9.16641 5.96584 9.12058 6.18754C8.35878 6.68813 7.70664 7.3414 7.20773 8.10328C6.29978 8.10997 5.43883 8.31422 4.66572 8.67516ZM18.2538 11.2035L18.2505 10.1031L18.2538 10.1031V11.2035Z" fill="black"/>
<path d="M9.70833 14.7054C10.1477 14.2661 10.86 14.2661 11.2993 14.7054L14.7993 18.2054C15.1211 18.5271 15.2173 19.011 15.0432 19.4314C14.8691 19.8518 14.4588 20.1259 14.0038 20.1259H13.7198L15.2993 21.7054C15.7387 22.1447 15.7387 22.8571 15.2993 23.2964C14.86 23.7357 14.1477 23.7357 13.7083 23.2964L10.2083 19.7964C9.88658 19.4746 9.79033 18.9908 9.96446 18.5704C10.1386 18.15 10.5488 17.8759 11.0038 17.8759H11.2878L9.70833 16.2964C9.26899 15.8571 9.26899 15.1447 9.70833 14.7054Z" fill="black"/>
</svg>
