<svg width="24" height="24" viewBox="0 0 24 24" fill="none" xmlns="http://www.w3.org/2000/svg">
<path d="M8.10371 1.33629C9.45576 2.08069 10.4068 3.46523 10.5478 5.08216C9.0985 5.56328 7.86015 6.50507 7.00594 7.73185C5.47244 7.78945 4.07486 8.37829 2.9919 9.31968C2.44236 8.91271 1.98378 8.39002 1.6522 7.78779C1.49835 7.50834 1.56658 7.21699 1.73692 7.0184C1.90172 6.82628 2.16675 6.7101 2.44658 6.73418C2.56824 6.74464 2.69142 6.74999 2.8159 6.74999C5.16311 6.74999 7.0659 4.8472 7.0659 2.49999C7.0659 2.3755 7.06056 2.25232 7.05009 2.13066C7.02602 1.85083 7.1422 1.5858 7.33432 1.421C7.5329 1.25066 7.82426 1.18243 8.10371 1.33629Z" fill="black"/>
<path fill-rule="evenodd" clip-rule="evenodd" d="M7.75154 8.89057C8.73977 7.1513 10.6097 5.97719 12.7542 5.97719C15.6774 5.97719 18.0908 8.15824 18.4564 10.9819C20.7097 11.0874 22.5042 12.9477 22.5042 15.2272C22.5042 17.5744 20.6015 19.4772 18.2542 19.4772H15.9466C16.1119 18.805 15.9181 18.0854 15.4185 17.5858L11.9185 14.0858C11.1374 13.3047 9.87109 13.3047 9.09004 14.0858C8.30899 14.8668 8.30899 16.1331 9.09004 16.9142L9.67841 17.5026C9.45553 17.6998 9.27517 17.9481 9.1565 18.2346C8.98984 18.6369 8.9625 19.072 9.06202 19.4772H7.25425C4.35475 19.4772 2.00425 17.1267 2.00425 14.2272C2.00425 11.3277 4.35475 8.97719 7.25425 8.97719C7.36133 8.97719 7.4677 8.9804 7.57325 8.98673C7.6299 8.99012 7.6624 8.99199 7.68608 8.99213L7.69187 8.99212L7.69494 8.98743C7.70763 8.96767 7.72365 8.93964 7.75154 8.89057Z" fill="black"/>
<path d="M9.97392 14.9696C10.2668 14.6768 10.7417 14.6768 11.0346 14.9696L14.5346 18.4696C14.7491 18.6841 14.8132 19.0067 14.6972 19.287C14.5811 19.5672 14.3076 19.75 14.0042 19.75H12.8149L15.0346 21.9696C15.3275 22.2625 15.3275 22.7374 15.0346 23.0303C14.7417 23.3232 14.2668 23.3232 13.9739 23.0303L10.4739 19.5303C10.2594 19.3158 10.1953 18.9932 10.3113 18.713C10.4274 18.4327 10.7009 18.25 11.0042 18.25H12.1936L9.97392 16.0303C9.68103 15.7374 9.68103 15.2625 9.97392 14.9696Z" fill="black"/>
</svg>
