<svg width="24" height="24" viewBox="0 0 24 24" fill="none" xmlns="http://www.w3.org/2000/svg">
<path fill-rule="evenodd" clip-rule="evenodd" d="M10.4944 6.4379C10.5567 6.1309 10.5895 5.81316 10.5895 5.48778C10.5895 3.69345 9.59444 2.13186 8.12727 1.32408C7.84782 1.17022 7.55646 1.23845 7.35788 1.4088C7.16576 1.57359 7.04958 1.83862 7.07365 2.11846C7.08412 2.24011 7.08946 2.36329 7.08946 2.48778C7.08946 4.83499 5.18667 6.73778 2.83946 6.73778C2.71498 6.73778 2.5918 6.73243 2.47014 6.72197C2.19031 6.6979 1.92528 6.81408 1.76048 7.00619C1.59014 7.20478 1.5219 7.49613 1.67576 7.77558C2.22551 8.77408 3.12438 9.55389 4.20814 9.95022C2.87382 10.9022 2.00383 12.463 2.00383 14.227C2.00383 17.1265 4.35434 19.477 7.25383 19.477H9.58175C9.52784 19.3162 9.50142 19.147 9.50397 18.977H7.25383C4.63048 18.977 2.50383 16.8503 2.50383 14.227C2.50383 11.6036 4.63048 9.47696 7.25383 9.47696C7.38469 9.47696 7.51427 9.48225 7.64236 9.49261C7.84523 9.50902 8.03969 9.40444 8.1372 9.22491C9.02655 7.58758 10.7607 6.47696 12.7538 6.47696C15.485 6.47696 17.7294 8.5627 17.9805 11.2281C17.9936 11.3673 18.1104 11.477 18.2538 11.477C20.3249 11.477 22.0038 13.1559 22.0038 15.227C22.0038 17.298 20.3249 18.977 18.2538 18.977H15.5037C15.5063 19.1444 15.4808 19.3135 15.4259 19.477H18.2538C20.601 19.477 22.5038 17.5742 22.5038 15.227C22.5038 12.9475 20.7093 11.0872 18.4559 10.9817C18.0904 8.15802 15.677 5.97696 12.7538 5.97696C11.9517 5.97696 11.188 6.14123 10.4944 6.4379ZM2.13999 7.33173C2.08469 7.39619 2.07495 7.46393 2.11376 7.53443C2.67037 8.54539 3.62598 9.30501 4.76805 9.60159C5.50799 9.20309 6.3545 8.97696 7.25383 8.97696C7.39816 8.97696 7.54119 8.98279 7.68267 8.99424C7.68912 8.99476 7.69512 8.99126 7.69783 8.98626C8.20903 8.04512 8.97558 7.26246 9.90461 6.73143C10.0248 6.33807 10.0895 5.92048 10.0895 5.48778C10.0895 3.88296 9.20007 2.48551 7.88612 1.76208C7.81562 1.72327 7.74788 1.73301 7.68341 1.7883C7.61248 1.84915 7.56165 1.95743 7.57181 2.07561C7.5835 2.2115 7.58946 2.34897 7.58946 2.48778C7.58946 5.11113 5.46282 7.23778 2.83946 7.23778C2.70066 7.23778 2.56318 7.23182 2.42729 7.22013C2.30912 7.20996 2.20084 7.26079 2.13999 7.33173Z" fill="black"/>
<path d="M10.3271 15.323C10.4247 15.2253 10.583 15.2253 10.6806 15.323L14.1806 18.823C14.2521 18.8945 14.2735 19.002 14.2348 19.0954C14.1961 19.1888 14.105 19.2498 14.0038 19.2498H11.6074L14.6806 22.323C14.7782 22.4206 14.7782 22.5789 14.6806 22.6765C14.583 22.7742 14.4247 22.7742 14.3271 22.6765L10.8271 19.1765C10.7556 19.105 10.7342 18.9975 10.7729 18.9041C10.8116 18.8107 10.9027 18.7498 11.0038 18.7498H13.4003L10.3271 15.6765C10.2294 15.5789 10.2294 15.4206 10.3271 15.323Z" fill="black"/>
</svg>
