<svg width="24" height="24" viewBox="0 0 24 24" fill="none" xmlns="http://www.w3.org/2000/svg">
<path fill-rule="evenodd" clip-rule="evenodd" d="M7.0521 7.73452C8.0877 5.93774 10.029 4.72656 12.2539 4.72656C15.2338 4.72656 17.7058 6.89848 18.1741 9.74592C20.4624 9.95782 22.2539 11.883 22.2539 14.2266C22.2539 16.7118 20.2392 18.7266 17.7539 18.7266H6.75391C3.71634 18.7266 1.25391 16.2641 1.25391 13.2266C1.25391 10.189 3.71634 7.72656 6.75391 7.72656C6.85391 7.72656 6.95333 7.72924 7.0521 7.73452ZM17.7561 9.72657C17.7549 9.72656 17.7537 9.72656 17.7524 9.72656L17.7538 10.2019L17.7539 9.72656C17.7546 9.72656 17.7554 9.72657 17.7561 9.72657ZM17.7539 10.7266C17.4797 10.7266 17.2567 10.517 17.2316 10.2511C16.9925 7.71295 14.8549 5.72656 12.2539 5.72656C10.356 5.72656 8.70432 6.7838 7.85696 8.34383C7.71204 8.61064 7.42335 8.76575 7.12227 8.7414C7.00088 8.73158 6.87803 8.72656 6.75391 8.72656C4.26862 8.72656 2.25391 10.7413 2.25391 13.2266C2.25391 15.7118 4.26862 17.7266 6.75391 17.7266H17.7539C19.6869 17.7266 21.2539 16.1596 21.2539 14.2266C21.2539 12.2936 19.6869 10.7266 17.7539 10.7266Z" fill="black"/>
</svg>
