<svg width="24" height="24" viewBox="0 0 24 24" fill="none" xmlns="http://www.w3.org/2000/svg">
<path d="M1.5 12.75C0.809644 12.75 0.25 13.3096 0.25 14C0.25 14.6904 0.809644 15.25 1.5 15.25H9.5V15C9.5 13.6193 10.6193 12.5 12 12.5C13.3807 12.5 14.5 13.6193 14.5 15V15.25H22.4999C23.1903 15.25 23.7499 14.6904 23.7499 14C23.7499 13.3096 23.1903 12.75 22.4999 12.75H17.267C16.7028 10.3636 14.5588 8.58783 11.9999 8.58783C9.44113 8.58783 7.29706 10.3636 6.73285 12.75H1.5Z" fill="black"/>
<path d="M3.69136 5.69158C4.17951 5.20343 4.97097 5.20343 5.45912 5.69158L6.76934 7.00181C7.2575 7.48996 7.2575 8.28142 6.76934 8.76957C6.28119 9.25773 5.48973 9.25773 5.00158 8.76957L3.69136 7.45935C3.2032 6.97119 3.2032 6.17974 3.69136 5.69158Z" fill="black"/>
<path d="M11.9999 2.25C12.6903 2.25 13.2499 2.80964 13.2499 3.5V6.35293C13.2499 7.04329 12.6903 7.60293 11.9999 7.60293C11.3096 7.60293 10.7499 7.04329 10.7499 6.35293V3.5C10.7499 2.80964 11.3096 2.25 11.9999 2.25Z" fill="black"/>
<path d="M20.3085 7.45935C20.7967 6.9712 20.7967 6.17974 20.3085 5.69158C19.8204 5.20343 19.0289 5.20343 18.5407 5.69158L17.2305 7.00181C16.7424 7.48996 16.7424 8.28142 17.2305 8.76957C17.7187 9.25773 18.5101 9.25773 18.9983 8.76957L20.3085 7.45935Z" fill="black"/>
<path d="M8.26602 17.1161C8.75417 16.628 9.54563 16.628 10.0338 17.1161L10.7499 17.8322V15C10.7499 14.3097 11.3096 13.75 11.9999 13.75C12.6903 13.75 13.2499 14.3097 13.2499 15L13.2499 17.7891L13.9229 17.1161C14.411 16.628 15.2025 16.628 15.6906 17.1161C16.1788 17.6043 16.1788 18.3957 15.6906 18.8839L12.8622 21.7123C12.3741 22.2005 11.5826 22.2005 11.0944 21.7123L8.26602 18.8839C7.77786 18.3957 7.77786 17.6043 8.26602 17.1161Z" fill="black"/>
</svg>
