<svg width="24" height="24" viewBox="0 0 24 24" fill="none" xmlns="http://www.w3.org/2000/svg">
<path d="M0.25 14.0002C0.25 13.3099 0.809644 12.7502 1.5 12.7502H6.73285C7.29706 10.3638 9.44113 8.58808 11.9999 8.58808C14.5588 8.58808 16.7028 10.3638 17.267 12.7502H22.4999C23.1903 12.7502 23.7499 13.3099 23.7499 14.0002C23.7499 14.6906 23.1903 15.2502 22.4999 15.2502H16.1173L13.9229 13.0558C12.8489 11.9819 11.1077 11.9819 10.0338 13.0558L7.83936 15.2502H1.5C0.809644 15.2502 0.25 14.6906 0.25 14.0002Z" fill="black"/>
<path d="M5.45912 5.69183C4.97097 5.20367 4.17951 5.20367 3.69136 5.69183C3.2032 6.17998 3.2032 6.97144 3.69136 7.45959L5.00158 8.76982C5.48973 9.25797 6.28119 9.25797 6.76934 8.76982C7.2575 8.28166 7.2575 7.4902 6.76934 7.00205L5.45912 5.69183Z" fill="black"/>
<path d="M13.2499 3.50024C13.2499 2.80989 12.6903 2.25024 11.9999 2.25024C11.3096 2.25024 10.7499 2.80989 10.7499 3.50024V6.35318C10.7499 7.04353 11.3096 7.60318 11.9999 7.60318C12.6903 7.60318 13.2499 7.04353 13.2499 6.35318V3.50024Z" fill="black"/>
<path d="M20.3085 5.69183C20.7967 6.17998 20.7967 6.97144 20.3085 7.4596L18.9983 8.76982C18.5101 9.25797 17.7187 9.25797 17.2305 8.76982C16.7424 8.28166 16.7424 7.4902 17.2305 7.00205L18.5407 5.69183C19.0289 5.20367 19.8204 5.20367 20.3085 5.69183Z" fill="black"/>
<path d="M8.26602 18.7126C8.75417 19.2007 9.54563 19.2007 10.0338 18.7126L10.7499 17.9964V20.8287C10.7499 21.519 11.3096 22.0787 11.9999 22.0787C12.6903 22.0787 13.2499 21.519 13.2499 20.8287V18.0396L13.9229 18.7126C14.411 19.2007 15.2025 19.2007 15.6906 18.7126C16.1788 18.2244 16.1788 17.433 15.6906 16.9448L12.8622 14.1164C12.3741 13.6282 11.5826 13.6282 11.0944 14.1164L8.26602 16.9448C7.77786 17.433 7.77786 18.2244 8.26602 18.7126Z" fill="black"/>
</svg>
