<svg width="24" height="24" viewBox="0 0 24 24" fill="none" xmlns="http://www.w3.org/2000/svg">
<path d="M13.7613 1.90881C15.2764 1.80288 16.5904 2.94523 16.6964 4.46031C16.75 5.22719 16.5308 5.9493 15.9691 6.48229C15.4044 7.01808 14.4596 7.39481 12.9999 7.39481C11.4857 7.39481 9.34192 7.48468 7.58706 7.57382C7.16821 7.5951 6.75055 7.62852 6.33447 7.6737C6.19721 7.68861 6.09801 7.81197 6.11292 7.94923C6.12783 8.0865 6.25118 8.18569 6.38845 8.17078C6.79513 8.12662 7.20325 8.09396 7.61243 8.07318C9.36699 7.98405 11.4996 7.89481 12.9999 7.89481C14.5401 7.89481 15.6261 7.49697 16.3132 6.845C17.0033 6.19023 17.2571 5.31137 17.1952 4.42544C17.07 2.63488 15.5169 1.28484 13.7264 1.41003C12.8962 1.46807 12.1602 1.83342 11.6227 2.38674C11.5265 2.48577 11.5287 2.64405 11.6278 2.74026C11.7268 2.83647 11.8851 2.83418 11.9813 2.73514C12.4364 2.26666 13.0585 1.95794 13.7613 1.90881Z" fill="black"/>
<path d="M4.05334 8.55221C4.18824 8.52279 4.27375 8.38958 4.24433 8.25468C4.2149 8.11978 4.08169 8.03428 3.94679 8.0637C3.1121 8.24575 2.28716 8.47375 1.47532 8.74436L1.42101 8.76246C1.29002 8.80612 1.21924 8.94771 1.2629 9.07869C1.30656 9.20968 1.44814 9.28047 1.57913 9.2368L1.63344 9.2187C2.42882 8.95357 3.23654 8.73036 4.05334 8.55221Z" fill="black"/>
<path d="M8.7501 11.9996C8.7501 11.8616 8.86202 11.7496 9.0001 11.7496H17.9999C19.7904 11.7496 21.107 12.2079 21.9788 12.9845C22.8535 13.7638 23.2501 14.8366 23.2501 15.9996C23.2501 18.3468 21.3473 20.2496 19.0001 20.2496C16.6529 20.2496 14.7501 18.3468 14.7501 15.9996C14.7501 15.8616 14.862 15.7496 15.0001 15.7496C15.1382 15.7496 15.2501 15.8616 15.2501 15.9996C15.2501 18.0707 16.929 19.7496 19.0001 19.7496C21.0712 19.7496 22.7501 18.0707 22.7501 15.9996C22.7501 14.9535 22.3966 14.0264 21.6462 13.3579C20.8928 12.6868 19.7093 12.2496 17.9999 12.2496H9.0001C8.86202 12.2496 8.7501 12.1377 8.7501 11.9996Z" fill="black"/>
<path d="M6.74586 12.2747C6.77117 12.4105 6.68165 12.541 6.54592 12.5663C4.83751 12.8848 3.1763 13.441 1.6119 14.2232C1.4884 14.285 1.33824 14.2349 1.27649 14.1114C1.21474 13.9879 1.2648 13.8378 1.38829 13.776C2.99454 12.9729 4.70018 12.4018 6.45428 12.0748C6.59001 12.0495 6.72055 12.139 6.74586 12.2747Z" fill="black"/>
<path d="M4.41397 16.9949C5.74904 16.5045 7.16679 16.2496 8.60431 16.2496H8.99993C10.5324 16.2496 11.6011 16.5921 12.289 17.1896C12.9828 17.7922 13.2502 18.6199 13.2502 19.4996C13.2502 21.2946 11.7951 22.7496 10.0002 22.7496C8.20525 22.7496 6.75018 21.2946 6.75018 19.4996C6.75018 19.3616 6.86211 19.2496 7.00018 19.2496C7.13825 19.2496 7.25018 19.3616 7.25018 19.4996C7.25018 21.0184 8.48139 22.2496 10.0002 22.2496C11.519 22.2496 12.7502 21.0184 12.7502 19.4996C12.7502 18.7225 12.5174 18.0502 11.9611 17.5671C11.3988 17.0787 10.4674 16.7496 8.99993 16.7496H8.60431C7.22592 16.7496 5.86652 16.994 4.58638 17.4642C4.45678 17.5118 4.31312 17.4454 4.26551 17.3158C4.2179 17.1861 4.28437 17.0425 4.41397 16.9949Z" fill="black"/>
<path d="M2.62575 18.1069C2.69757 18.2249 2.66019 18.3787 2.54226 18.4505C2.40625 18.5333 2.27175 18.619 2.13885 18.7076C2.02397 18.7842 1.86875 18.7532 1.79216 18.6383C1.71558 18.5234 1.74662 18.3682 1.8615 18.2916C2.00009 18.1992 2.14035 18.1098 2.2822 18.0234C2.40012 17.9516 2.55393 17.989 2.62575 18.1069Z" fill="black"/>
</svg>
