<svg width="24" height="24" viewBox="0 0 24 24" fill="none" xmlns="http://www.w3.org/2000/svg">
<path d="M8.50979 0.288006C9.82295 1.12932 10.718 2.5696 10.8082 4.22441C9.11278 4.66301 7.64356 5.66092 6.60835 7.00635C5.18474 7.132 3.87929 7.66912 2.81169 8.49802C2.3353 8.13945 1.92519 7.69782 1.60295 7.19485L1.58154 7.16163C1.50342 7.04075 1.40518 6.88875 1.36547 6.71452C1.2515 6.21448 1.53464 5.70893 2.02055 5.54485C2.14051 5.50435 2.26706 5.49858 2.3568 5.49657C2.45461 5.49438 2.57863 5.49687 2.7228 5.49977L2.73374 5.49999C2.761 5.50053 2.78834 5.50081 2.81575 5.50081C5.02489 5.50081 6.81575 3.70995 6.81575 1.50081C6.81575 1.4734 6.81547 1.44606 6.81493 1.41879L6.81471 1.40792C6.81181 1.26372 6.80932 1.13968 6.81151 1.04186C6.81352 0.952124 6.81929 0.825564 6.85979 0.705607C7.02387 0.219694 7.52942 -0.0634402 8.02946 0.0505296C8.20369 0.0902387 8.35569 0.188473 8.47658 0.2666L8.50979 0.288006Z" fill="black"/>
<path fill-rule="evenodd" clip-rule="evenodd" d="M7.55228 8.73594C8.5878 6.93922 10.5292 5.72798 12.7541 5.72798C15.7339 5.72798 18.206 7.89989 18.6743 10.7473C20.9625 10.9592 22.7541 12.8844 22.7541 15.228C22.7541 16.7089 22.0387 18.0228 20.9347 18.8428L18.144 14.1917C17.4337 13.0078 15.898 12.6238 14.7141 13.3342C14.2357 13.6212 13.888 14.0429 13.6902 14.5217L13.6709 14.4878C12.9858 13.289 11.4587 12.8725 10.2599 13.5575C9.80969 13.8148 9.46982 14.1908 9.25719 14.6236L9.12436 14.4096C8.39621 13.2365 6.85495 12.8758 5.68185 13.604C4.50874 14.3321 4.14803 15.8734 4.87618 17.0465L6.50956 19.678C3.82414 19.3146 1.75409 17.013 1.75409 14.228C1.75409 11.1904 4.21652 8.72798 7.25409 8.72798C7.35409 8.72798 7.45351 8.73065 7.55228 8.73594ZM18.2541 10.728L18.2526 10.728L18.254 11.2033L18.2541 10.728Z" fill="black"/>
<path d="M6.40698 14.7722C6.93488 14.4445 7.62845 14.6068 7.95611 15.1347L12.2722 22.0883C12.5999 22.6162 12.4375 23.3098 11.9097 23.6375C11.3818 23.9651 10.6882 23.8028 10.3605 23.2749L6.04443 16.3213C5.71676 15.7934 5.87908 15.0999 6.40698 14.7722Z" fill="black"/>
<path d="M10.9421 14.7513C11.4815 14.4431 12.1688 14.6305 12.477 15.17L16.477 22.17C16.7853 22.7094 16.5979 23.3966 16.0584 23.7049C15.5189 24.0131 14.8317 23.8257 14.5235 23.2863L10.5235 16.2863C10.2152 15.7468 10.4026 15.0596 10.9421 14.7513Z" fill="black"/>
<path d="M16.965 14.8991C16.6453 14.3663 15.9543 14.1936 15.4215 14.5132C14.8887 14.8329 14.7159 15.5239 15.0356 16.0567L19.406 23.3407C19.7257 23.8735 20.4167 24.0462 20.9495 23.7266C21.4823 23.4069 21.655 22.7159 21.3354 22.1831L16.965 14.8991Z" fill="black"/>
</svg>
