<svg width="24" height="24" viewBox="0 0 24 24" fill="none" xmlns="http://www.w3.org/2000/svg">
<path fill-rule="evenodd" clip-rule="evenodd" d="M10.4945 6.4379C10.5569 6.13091 10.5896 5.81316 10.5896 5.48778C10.5896 3.69345 9.59457 2.13186 8.12739 1.32408C7.84794 1.17022 7.55659 1.23845 7.358 1.4088C7.16588 1.57359 7.04971 1.83862 7.07378 2.11846C7.08424 2.24012 7.08959 2.36329 7.08959 2.48778C7.08958 4.83499 5.1868 6.73778 2.83959 6.73778C2.7151 6.73778 2.59192 6.73243 2.47026 6.72197C2.19043 6.6979 1.9254 6.81408 1.7606 7.00619C1.59026 7.20478 1.52203 7.49613 1.67588 7.77558C2.22563 8.77408 3.1245 9.5539 4.20826 9.95022C2.87395 10.9022 2.00395 12.463 2.00395 14.227C2.00395 17.1265 4.35446 19.477 7.25395 19.477H10.5254C10.4918 19.3122 10.4917 19.142 10.5254 18.977H7.25395C4.6306 18.977 2.50395 16.8503 2.50395 14.227C2.50395 11.6036 4.6306 9.47697 7.25395 9.47697C7.38482 9.47697 7.51439 9.48225 7.64248 9.49262C7.84535 9.50903 8.03981 9.40445 8.13733 9.22491C9.02667 7.58759 10.7608 6.47697 12.754 6.47697C15.4851 6.47697 17.7295 8.5627 17.9806 11.2281C17.9937 11.3673 18.1105 11.477 18.254 11.477C20.325 11.477 22.004 13.1559 22.004 15.227C22.004 16.4216 21.4454 17.4857 20.5752 18.1724L20.8343 18.6043C21.8493 17.8276 22.504 16.6037 22.504 15.227C22.504 12.9475 20.7094 11.0872 18.4561 10.9817C18.0905 8.15802 15.6771 5.97697 12.754 5.97697C11.9518 5.97697 11.1881 6.14123 10.4945 6.4379ZM2.14011 7.33173C2.08481 7.39619 2.07507 7.46393 2.11389 7.53443C2.67049 8.54539 3.6261 9.30501 4.76817 9.60159C5.50811 9.2031 6.35463 8.97697 7.25395 8.97697C7.39829 8.97697 7.54131 8.9828 7.6828 8.99424C7.68925 8.99477 7.69524 8.99126 7.69796 8.98626C8.20915 8.04512 8.9757 7.26247 9.90473 6.73144C10.0249 6.33808 10.0896 5.92048 10.0896 5.48778C10.0896 3.88296 9.2002 2.48551 7.88624 1.76208C7.81574 1.72327 7.748 1.73301 7.68354 1.7883C7.6126 1.84915 7.56177 1.95743 7.57194 2.07561C7.58362 2.2115 7.58959 2.34897 7.58959 2.48778C7.58958 5.11113 5.46294 7.23778 2.83959 7.23778C2.70078 7.23778 2.56331 7.23182 2.42741 7.22013C2.30924 7.20996 2.20096 7.26079 2.14011 7.33173Z" fill="black"/>
<path d="M18.44 19.473L18.1424 18.977H16.2249C16.2585 19.1416 16.2586 19.3118 16.2249 19.477H18.254C18.3163 19.477 18.3783 19.4756 18.44 19.473Z" fill="black"/>
<path d="M6.86141 14.019C6.97629 13.9424 7.13151 13.9734 7.2081 14.0883L8.70813 16.3382C8.78472 16.4531 8.75368 16.6083 8.63881 16.6849C8.52393 16.7615 8.36871 16.7304 8.29212 16.6155L6.79208 14.3657C6.71549 14.2508 6.74653 14.0956 6.86141 14.019Z" fill="black"/>
<path d="M12.6149 15.5168C12.7311 15.4421 12.8858 15.4757 12.9604 15.5919L15.2104 19.0919C15.2599 19.1688 15.2634 19.2666 15.2196 19.3469C15.1757 19.4271 15.0916 19.4771 15.0001 19.4771H12.1975L13.963 22.3459C14.0354 22.4635 13.9988 22.6175 13.8812 22.6899C13.7636 22.7622 13.6096 22.7256 13.5372 22.608L11.5372 19.3581C11.4898 19.281 11.4877 19.1842 11.5319 19.1051C11.5761 19.0261 11.6596 18.9771 11.7501 18.9771H14.5422L12.5398 15.8623C12.4652 15.7461 12.4988 15.5914 12.6149 15.5168Z" fill="black"/>
<path d="M17.7145 15.3484C17.6435 15.23 17.4899 15.1916 17.3715 15.2626C17.2531 15.3336 17.2147 15.4872 17.2858 15.6056L20.0969 20.2908C20.1679 20.4092 20.3215 20.4475 20.4399 20.3765C20.5583 20.3055 20.5967 20.1519 20.5256 20.0335L17.7145 15.3484Z" fill="black"/>
</svg>
