<svg width="24" height="24" viewBox="0 0 24 24" fill="none" xmlns="http://www.w3.org/2000/svg">
<path d="M0.75 8.00025C0.75 7.86217 0.861929 7.75025 1 7.75025H2.23529C2.37337 7.75025 2.48529 7.86217 2.48529 8.00025C2.48529 8.13832 2.37337 8.25025 2.23529 8.25025H1C0.861929 8.25025 0.75 8.13832 0.75 8.00025Z" fill="black"/>
<path d="M8 0.750244C8.13807 0.750244 8.25 0.862173 8.25 1.00024V2.23554C8.25 2.37361 8.13807 2.48554 8 2.48554C7.86193 2.48554 7.75 2.37361 7.75 2.23554V1.00024C7.75 0.862173 7.86193 0.750244 8 0.750244Z" fill="black"/>
<path d="M13.1266 3.2273C13.2242 3.12967 13.2242 2.97138 13.1266 2.87375C13.029 2.77612 12.8707 2.77612 12.773 2.87375L11.8996 3.74723C11.8019 3.84486 11.8019 4.00315 11.8996 4.10079C11.9972 4.19842 12.1555 4.19842 12.2531 4.10079L13.1266 3.2273Z" fill="black"/>
<path d="M2.8734 2.87375C2.97103 2.77612 3.12932 2.77612 3.22695 2.87375L4.10044 3.74723C4.19807 3.84486 4.19807 4.00315 4.10044 4.10078C4.00281 4.19842 3.84452 4.19842 3.74689 4.10078L2.8734 3.2273C2.77577 3.12967 2.77577 2.97138 2.8734 2.87375Z" fill="black"/>
<path d="M4.25 8.00024C4.25 5.92918 5.92893 4.25024 8 4.25024C9.121 4.25024 10.1271 4.74212 10.8143 5.52182C9.33956 5.98235 8.09107 6.95394 7.27579 8.22749L7.25382 8.22745C6.21042 8.22745 5.22923 8.49379 4.37452 8.96218C4.29328 8.65519 4.25 8.33277 4.25 8.00024Z" fill="black"/>
<path fill-rule="evenodd" clip-rule="evenodd" d="M7.55202 8.7354C8.58753 6.93869 10.5289 5.72744 12.7538 5.72744C15.7337 5.72744 18.2057 7.89936 18.674 10.7468C20.9623 10.9587 22.7538 12.8838 22.7538 15.2274C22.7538 16.8748 21.8686 18.3154 20.5479 19.0996L18.1431 15.0916C17.93 14.7364 17.4693 14.6212 17.1141 14.8343C16.759 15.0474 16.6438 15.5081 16.8569 15.8633L19.1248 19.6432C18.843 19.6985 18.5518 19.7274 18.2538 19.7274H15.5591C15.597 19.6851 15.6304 19.6381 15.6583 19.5869C15.7898 19.3461 15.7792 19.0528 15.6309 18.822L13.3809 15.322C13.1569 14.9735 12.6929 14.8727 12.3444 15.0967C11.996 15.3206 11.8951 15.7847 12.1191 16.1331L13.6262 18.4775H11.75C11.4783 18.4775 11.2278 18.6245 11.0953 18.8617C10.9627 19.0989 10.9689 19.3892 11.1113 19.6206L11.177 19.7274H7.25383C4.21626 19.7274 1.75383 17.265 1.75383 14.2274C1.75383 11.1899 4.21626 8.72744 7.25383 8.72744C7.35383 8.72744 7.45325 8.73012 7.55202 8.7354ZM7.98193 15.2496C7.9879 15.25 7.99392 15.2502 8 15.2502C8.13807 15.2502 8.25 15.1383 8.25 15.0002V14.7504L9.12401 16.0613C9.35378 16.4059 9.26067 16.8716 8.91603 17.1014C8.57139 17.3311 8.10574 17.238 7.87596 16.8934L6.37593 14.6435C6.14615 14.2989 6.23927 13.8332 6.58391 13.6034C6.92855 13.3737 7.3942 13.4668 7.62398 13.8114L7.75 14.0004V14.9017L7.20796 14.0887C7.13137 13.9739 6.97615 13.9428 6.86127 14.0194C6.74639 14.096 6.71535 14.2512 6.79194 14.3661L8.29197 16.616C8.36856 16.7309 8.52378 16.7619 8.63866 16.6853C8.75354 16.6087 8.78458 16.4535 8.70799 16.3386L7.98193 15.2496ZM18.2538 10.7274L18.2524 10.7274L18.2538 11.2028L18.2538 10.7274Z" fill="black"/>
<path d="M12.6148 15.5172C12.7309 15.4425 12.8856 15.4762 12.9603 15.5923L15.2103 19.0923C15.2597 19.1692 15.2632 19.267 15.2194 19.3473C15.1756 19.4276 15.0914 19.4775 15 19.4775H12.1974L13.9629 22.3464C14.0353 22.4639 13.9986 22.6179 13.881 22.6903C13.7634 22.7627 13.6094 22.726 13.5371 22.6084L11.5371 19.3585C11.4896 19.2814 11.4876 19.1846 11.5318 19.1056C11.5759 19.0265 11.6594 18.9775 11.75 18.9775H14.5421L12.5397 15.8627C12.465 15.7466 12.4987 15.5919 12.6148 15.5172Z" fill="black"/>
<path d="M17.7144 15.3488C17.6433 15.2304 17.4898 15.192 17.3714 15.263C17.253 15.3341 17.2146 15.4876 17.2856 15.606L20.0967 20.2912C20.1678 20.4096 20.3213 20.448 20.4397 20.3769C20.5581 20.3059 20.5965 20.1523 20.5255 20.0339L17.7144 15.3488Z" fill="black"/>
</svg>
