<svg width="24" height="24" viewBox="0 0 24 24" fill="none" xmlns="http://www.w3.org/2000/svg">
<path d="M12.3401 3.08369C12.7128 2.70003 13.2209 2.44796 13.7963 2.40773C15.0359 2.32106 16.1111 3.25571 16.1977 4.49533C16.243 5.14316 16.0584 5.70852 15.6251 6.11972C15.1828 6.53933 14.3792 6.89495 13 6.89495C11.4719 6.89495 9.31699 6.98545 7.56183 7.07461C5.43082 7.18285 3.33297 7.59829 1.31734 8.27016L1.26303 8.28826C0.870075 8.41925 0.657705 8.84399 0.788691 9.23695C0.919677 9.62991 1.34442 9.84228 1.73737 9.71129L1.79168 9.69319C3.68735 9.0613 5.65139 8.67358 7.63793 8.57268C9.3922 8.48357 11.5136 8.39495 13 8.39495C14.6208 8.39495 15.8479 7.97601 16.6575 7.20786C17.476 6.4313 17.7643 5.39569 17.6941 4.39071C17.5496 2.32468 15.7577 0.766937 13.6917 0.911386C12.734 0.97834 11.8841 1.40033 11.2642 2.03848C10.9755 2.33558 10.9824 2.8104 11.2795 3.09903C11.5766 3.38766 12.0514 3.38079 12.3401 3.08369Z" fill="black"/>
<path d="M1.16482 13.329C3.89948 11.9616 6.91493 11.2498 9.97237 11.2498L13.0002 11.2498V12.7498L9.97237 12.7498C7.1478 12.7498 4.36202 13.4074 1.83564 14.6706C1.46516 14.8558 1.01465 14.7057 0.829411 14.3352C0.644169 13.9647 0.794338 13.5142 1.16482 13.329Z" fill="black"/>
<path d="M13.0002 11.2498H18C19.8717 11.2498 21.3213 11.7292 22.3115 12.6113C23.3106 13.5013 23.7502 14.7199 23.7502 15.9998C23.7502 18.6231 21.6236 20.7498 19.0002 20.7498C16.3769 20.7498 14.2502 18.6231 14.2502 15.9998C14.2502 15.5856 14.586 15.2498 15.0002 15.2498C15.4144 15.2498 15.7502 15.5856 15.7502 15.9998C15.7502 17.7947 17.2053 19.2498 19.0002 19.2498C20.7952 19.2498 22.2502 17.7947 22.2502 15.9998C22.2502 15.0705 21.9398 14.2891 21.3137 13.7314C20.6788 13.1658 19.6282 12.7498 18 12.7498H13.0002V11.2498Z" fill="black"/>
<path d="M1.58429 17.8757C3.66356 16.4896 6.10529 15.7498 8.60445 15.7498H9.00007C10.5975 15.7498 11.8036 16.1057 12.617 16.8122C13.4484 17.5344 13.7503 18.5174 13.7503 19.4998C13.7503 21.5708 12.0714 23.2498 10.0003 23.2498C7.92924 23.2498 6.25031 21.5708 6.25031 19.4998C6.25031 19.0856 6.5861 18.7498 7.00031 18.7498C7.41453 18.7498 7.75031 19.0856 7.75031 19.4998C7.75031 20.7424 8.75767 21.7498 10.0003 21.7498C11.243 21.7498 12.2503 20.7424 12.2503 19.4998C12.2503 18.8253 12.0521 18.3083 11.6334 17.9447C11.1967 17.5654 10.4026 17.2498 9.00007 17.2498H8.60445C6.40161 17.2498 4.24937 17.9018 2.41634 19.1238C2.07169 19.3536 1.60604 19.2604 1.37627 18.9158C1.14651 18.5712 1.23964 18.1055 1.58429 17.8757Z" fill="black"/>
</svg>
