<svg width="24" height="24" viewBox="0 0 24 24" fill="none" xmlns="http://www.w3.org/2000/svg">
<path d="M1.25006 12C1.25006 11.8619 1.36199 11.75 1.50006 11.75H4.35299C4.49106 11.75 4.60299 11.8619 4.60299 12C4.60299 12.1381 4.49107 12.25 4.35299 12.25H1.50006C1.36199 12.25 1.25006 12.1381 1.25006 12Z" fill="black"/>
<path d="M11.75 22.5C11.75 22.6381 11.8619 22.75 12 22.75C12.1381 22.75 12.25 22.6381 12.25 22.5V19.6471C12.25 19.509 12.1381 19.3971 12 19.3971C11.8619 19.3971 11.75 19.509 11.75 19.6471V22.5Z" fill="black"/>
<path d="M12 1.25C12.1381 1.25 12.25 1.36193 12.25 1.5V4.35293C12.25 4.491 12.1381 4.60293 12 4.60293C11.8619 4.60293 11.75 4.491 11.75 4.35293V1.5C11.75 1.36193 11.8619 1.25 12 1.25Z" fill="black"/>
<path d="M22.75 12C22.75 12.1381 22.638 12.25 22.5 12.25H19.647C19.509 12.25 19.397 12.1381 19.397 12C19.397 11.8619 19.509 11.75 19.647 11.75H22.5C22.638 11.75 22.75 11.8619 22.75 12Z" fill="black"/>
<path d="M19.6015 4.75224C19.6991 4.65461 19.6991 4.49632 19.6015 4.39869C19.5038 4.30106 19.3455 4.30106 19.2479 4.39869L17.9377 5.70891C17.8401 5.80654 17.8401 5.96483 17.9377 6.06246C18.0353 6.16009 18.1936 6.16009 18.2912 6.06246L19.6015 4.75224Z" fill="black"/>
<path d="M19.6015 19.6013C19.5038 19.6989 19.3455 19.6989 19.2479 19.6013L17.9377 18.2911C17.8401 18.1935 17.8401 18.0352 17.9377 17.9375C18.0353 17.8399 18.1936 17.8399 18.2912 17.9375L19.6015 19.2478C19.6991 19.3454 19.6991 19.5037 19.6015 19.6013Z" fill="black"/>
<path d="M4.39853 19.2478C4.3009 19.3454 4.3009 19.5037 4.39853 19.6013C4.49616 19.6989 4.65445 19.6989 4.75208 19.6013L6.0623 18.2911C6.15993 18.1935 6.15993 18.0352 6.0623 17.9375C5.96467 17.8399 5.80638 17.8399 5.70875 17.9375L4.39853 19.2478Z" fill="black"/>
<path d="M4.39853 4.39869C4.49616 4.30106 4.65445 4.30106 4.75208 4.39869L6.0623 5.70891C6.15993 5.80654 6.15993 5.96483 6.0623 6.06246C5.96467 6.1601 5.80638 6.1601 5.70875 6.06246L4.39853 4.75224C4.3009 4.65461 4.3009 4.49632 4.39853 4.39869Z" fill="black"/>
<path fill-rule="evenodd" clip-rule="evenodd" d="M12 7.54053C9.53712 7.54053 7.54055 9.5371 7.54055 12C7.54055 14.4629 9.53712 16.4595 12 16.4595C14.4629 16.4595 16.4595 14.4629 16.4595 12C16.4595 9.5371 14.4629 7.54053 12 7.54053ZM8.13514 12C8.13514 9.86549 9.8655 8.13513 12 8.13513C14.1345 8.13513 15.8649 9.86549 15.8649 12C15.8649 14.1345 14.1345 15.8649 12 15.8649C9.8655 15.8649 8.13514 14.1345 8.13514 12Z" fill="black"/>
</svg>
