<svg width="24" height="24" viewBox="0 0 24 24" fill="none" xmlns="http://www.w3.org/2000/svg">
<path d="M1.5 13.2502C1.08579 13.2502 0.75 13.586 0.75 14.0002C0.75 14.4145 1.08579 14.7502 1.5 14.7502H10.4999V13.2502L8.67047 13.2502C9.01221 11.7266 10.3731 10.5881 11.9999 10.5881C13.6268 10.5881 14.9877 11.7266 15.3294 13.2502L13.4999 13.2502V14.7502H22.4999C22.9141 14.7502 23.2499 14.4145 23.2499 14.0002C23.2499 13.586 22.9141 13.2502 22.4999 13.2502H16.8552C16.4941 10.8933 14.4579 9.08808 11.9999 9.08808C9.54204 9.08808 7.50576 10.8933 7.14468 13.2502H1.5Z" fill="black"/>
<path d="M11.9999 2.75024C12.4141 2.75024 12.7499 3.08603 12.7499 3.50024V6.35318C12.7499 6.76739 12.4141 7.10318 11.9999 7.10318C11.5857 7.10318 11.2499 6.76739 11.2499 6.35318V3.50024C11.2499 3.08603 11.5857 2.75024 11.9999 2.75024Z" fill="black"/>
<path d="M19.955 7.10604C20.2479 6.81315 20.2479 6.33827 19.955 6.04538C19.6621 5.75249 19.1872 5.75249 18.8943 6.04538L17.5841 7.3556C17.2912 7.64849 17.2912 8.12337 17.5841 8.41626C17.877 8.70915 18.3518 8.70915 18.6447 8.41626L19.955 7.10604Z" fill="black"/>
<path d="M4.04491 6.04538C4.3378 5.75249 4.81268 5.75249 5.10557 6.04538L6.41579 7.3556C6.70868 7.6485 6.70868 8.12337 6.41579 8.41626C6.1229 8.70916 5.64802 8.70916 5.35513 8.41626L4.04491 7.10604C3.75202 6.81315 3.75202 6.33827 4.04491 6.04538Z" fill="black"/>
<path d="M8.61957 17.4699C8.91247 17.177 9.38734 17.177 9.68023 17.4699L11.2499 19.0396V15.0003C11.2499 14.586 11.5857 14.2503 11.9999 14.2503C12.4141 14.2503 12.7499 14.586 12.7499 15.0003V18.9964L14.2764 17.4699C14.5693 17.177 15.0442 17.177 15.3371 17.4699C15.63 17.7628 15.63 18.2377 15.3371 18.5306L12.5087 21.359C12.2158 21.6519 11.7409 21.6519 11.448 21.359L8.61957 18.5306C8.32668 18.2377 8.32668 17.7628 8.61957 17.4699Z" fill="black"/>
</svg>
