<svg width="24" height="24" viewBox="0 0 24 24" fill="none" xmlns="http://www.w3.org/2000/svg">
<path fill-rule="evenodd" clip-rule="evenodd" d="M2.67032 11.164C1.71115 12.2452 1.1287 13.6681 1.1287 15.2271C1.1287 18.6099 3.87096 21.3521 7.2537 21.3521H18.2537C21.0842 21.3521 23.3787 19.0576 23.3787 16.2271C23.3787 13.7196 21.5779 11.6327 19.1991 11.1891C18.5052 8.27152 15.8833 6.10213 12.7537 6.10213C12.3018 6.10213 11.8605 6.14739 11.4342 6.23359C11.3464 4.35267 10.3343 2.71403 8.84657 1.76087L8.81782 1.7421C8.70983 1.67106 8.46028 1.5069 8.16796 1.44028C7.35529 1.25505 6.5339 1.71507 6.26725 2.50478C6.19357 2.72299 6.18836 2.93393 6.18628 3.02698C6.18378 3.13847 6.18652 3.27452 6.18927 3.41111L6.18966 3.43045C6.19013 3.45354 6.19036 3.4767 6.19036 3.49993C6.19036 5.36389 4.67932 6.87493 2.81536 6.87493C2.79213 6.87493 2.76897 6.8747 2.74588 6.87423L2.72654 6.87384C2.58999 6.87109 2.45387 6.86835 2.34241 6.87085C2.24936 6.87294 2.03842 6.87814 1.82021 6.95182C1.0305 7.21848 0.570483 8.03986 0.755708 8.85253C0.822334 9.14485 0.986493 9.3944 1.05753 9.50239L1.0763 9.53114C1.49038 10.1774 2.03383 10.734 2.67032 11.164ZM4.66559 9.67419C4.28132 9.53503 3.92937 9.32799 3.6242 9.06721C6.08345 8.71306 8.02849 6.76802 8.38264 4.30877C8.88703 4.89902 9.19036 5.66423 9.19036 6.49993C9.19036 6.73521 9.16628 6.96486 9.12046 7.18657C8.35866 7.68716 7.70652 8.34043 7.20761 9.1023C6.29966 9.10899 5.4387 9.31324 4.66559 9.67419ZM8.90597 10.6427C9.64836 9.27593 11.094 8.35213 12.7537 8.35213C15.0292 8.35213 16.9 10.0901 17.1092 12.3103C17.1641 12.8928 17.6526 13.3522 18.2537 13.3521C19.8415 13.3521 21.1287 14.6393 21.1287 16.2271C21.1287 17.8149 19.8415 19.1021 18.2537 19.1021H7.2537C5.1136 19.1021 3.3787 17.3672 3.3787 15.2271C3.3787 13.087 5.1136 11.3521 7.2537 11.3521C7.36099 11.3521 7.46703 11.3565 7.57167 11.3649C8.11828 11.4091 8.64255 11.1277 8.90597 10.6427ZM18.2537 12.2025L18.2504 11.1021L18.2537 11.1021V12.2025Z" fill="black"/>
</svg>
