<svg width="24" height="24" viewBox="0 0 24 24" fill="none" xmlns="http://www.w3.org/2000/svg">
<path d="M8.50979 1.28801C9.62943 2.00534 10.4451 3.1581 10.7172 4.50802C9.10508 4.96207 7.71411 5.94133 6.73994 7.24658C5.06753 7.36799 3.55808 8.07695 2.41705 9.16802C2.10634 8.87995 1.83237 8.55294 1.60295 8.19485L1.58154 8.16164C1.50342 8.04075 1.40518 7.88875 1.36547 7.71452C1.2515 7.21448 1.53464 6.70893 2.02055 6.54485C2.14051 6.50435 2.26706 6.49858 2.3568 6.49657C2.45461 6.49438 2.57863 6.49687 2.7228 6.49977L2.73374 6.49999C2.761 6.50053 2.78834 6.50081 2.81575 6.50081C5.02489 6.50081 6.81575 4.70995 6.81575 2.50081C6.81575 2.4734 6.81547 2.44606 6.81493 2.41879L6.81471 2.40792C6.81181 2.26372 6.80932 2.13968 6.81151 2.04186C6.81353 1.95212 6.81929 1.82556 6.85979 1.70561C7.02387 1.2197 7.52942 0.936561 8.02946 1.05053C8.20369 1.09024 8.35569 1.18847 8.47658 1.2666L8.50979 1.28801Z" fill="black"/>
<path fill-rule="evenodd" clip-rule="evenodd" d="M7.55228 8.73594C8.58779 6.93923 10.5292 5.72797 12.7541 5.72797C15.7339 5.72798 18.206 7.89989 18.6743 10.7473C20.9625 10.9592 22.7541 12.8844 22.7541 15.228C22.7541 17.7133 20.7394 19.728 18.2541 19.728H17.0003L17.0003 13.728C17.0003 12.7615 16.2168 11.978 15.2503 11.978C14.2838 11.978 13.5003 12.7615 13.5003 13.728L13.5003 15.728C13.5003 14.7615 12.7168 13.978 11.7503 13.978C10.7838 13.978 10.0003 14.7615 10.0003 15.728V13.728C10.0003 12.7615 9.21677 11.978 8.25027 11.978C7.28377 11.978 6.50027 12.7615 6.50027 13.728V19.6767C3.81936 19.3093 1.75409 17.0098 1.75409 14.228C1.75409 11.1904 4.21652 8.72798 7.25409 8.72798C7.35409 8.72798 7.45351 8.73065 7.55228 8.73594ZM18.2541 10.728L18.2526 10.728L18.254 11.2033L18.2541 10.728Z" fill="black"/>
<path d="M8.25027 12.9779C8.66449 12.9779 9.00027 13.3137 9.00027 13.7279L9.00027 20.7279C9.00027 21.1422 8.66449 21.4779 8.25027 21.4779C7.83606 21.4779 7.50027 21.1422 7.50027 20.7279L7.50027 13.7279C7.50027 13.3137 7.83606 12.9779 8.25027 12.9779Z" fill="black"/>
<path d="M11.7503 14.9779C12.1645 14.9779 12.5003 15.3137 12.5003 15.7279L12.5003 22.7279C12.5003 23.1422 12.1645 23.4779 11.7503 23.4779C11.3361 23.4779 11.0003 23.1422 11.0003 22.7279L11.0003 15.7279C11.0003 15.3137 11.3361 14.9779 11.7503 14.9779Z" fill="black"/>
<path d="M16.0003 13.7279C16.0003 13.3137 15.6645 12.9779 15.2503 12.9779C14.8361 12.9779 14.5003 13.3137 14.5003 13.7279L14.5003 20.7279C14.5003 21.1422 14.8361 21.4779 15.2503 21.4779C15.6645 21.4779 16.0003 21.1422 16.0003 20.7279L16.0003 13.7279Z" fill="black"/>
</svg>
