<svg width="24" height="24" viewBox="0 0 24 24" fill="none" xmlns="http://www.w3.org/2000/svg">
<path d="M10.8155 5.50081L10.8155 5.52199C9.34023 5.98238 8.0913 6.95414 7.2758 8.22803L7.25384 8.22799C5.70433 8.22799 4.292 8.81536 3.22738 9.7796C2.57199 9.38232 2.01531 8.83886 1.6027 8.19485L1.5813 8.16164C1.50317 8.04075 1.40494 7.88875 1.36523 7.71452C1.25126 7.21448 1.53439 6.70893 2.0203 6.54485C2.14026 6.50435 2.26682 6.49858 2.35656 6.49657C2.45436 6.49438 2.57838 6.49687 2.72256 6.49977L2.73349 6.49999C2.76076 6.50053 2.78809 6.50081 2.81551 6.50081C5.02464 6.50081 6.81551 4.70995 6.81551 2.50081C6.81551 2.4734 6.81523 2.44606 6.81468 2.41879L6.81447 2.40792C6.81157 2.26372 6.80908 2.13968 6.81127 2.04186C6.81328 1.95212 6.81904 1.82556 6.85955 1.70561C7.02362 1.2197 7.52918 0.936561 8.02922 1.05053C8.20344 1.09024 8.35544 1.18847 8.47633 1.2666L8.50955 1.28801C9.89531 2.17584 10.8155 3.7307 10.8155 5.50081Z" fill="black"/>
<path fill-rule="evenodd" clip-rule="evenodd" d="M7.55204 8.73594C8.58755 6.93922 10.5289 5.72797 12.7538 5.72797C15.7337 5.72797 18.2057 7.89989 18.674 10.7473C20.9623 10.9592 22.7538 12.8844 22.7538 15.228C22.7538 17.7133 20.7391 19.728 18.2538 19.728H16L16 13.728C16 13.3138 15.6642 12.978 15.25 12.978C14.8358 12.978 14.5 13.3138 14.5 13.728L14.5 19.728H12.5L12.5 15.728C12.5 15.3138 12.1642 14.978 11.75 14.978C11.3358 14.978 11 15.3138 11 15.728L11 19.728H9.00003V13.728C9.00003 13.3138 8.66424 12.978 8.25003 12.978C7.83582 12.978 7.50003 13.3138 7.50003 13.728L7.50003 19.728H7.25384C4.21628 19.728 1.75384 17.2655 1.75384 14.228C1.75384 11.1904 4.21628 8.72798 7.25384 8.72798C7.35384 8.72798 7.45326 8.73065 7.55204 8.73594ZM18.2538 10.728L18.2524 10.728L18.2538 11.2033L18.2538 10.728Z" fill="black"/>
<path d="M8.25003 13.4779C8.3881 13.4779 8.50003 13.5899 8.50003 13.7279L8.50003 20.7279C8.50003 20.866 8.3881 20.9779 8.25003 20.9779C8.11196 20.9779 8.00003 20.866 8.00003 20.7279V13.7279C8.00003 13.5899 8.11196 13.4779 8.25003 13.4779Z" fill="black"/>
<path d="M11.75 15.4779C11.8881 15.4779 12 15.5899 12 15.7279L12 22.7279C12 22.866 11.8881 22.9779 11.75 22.9779C11.612 22.9779 11.5 22.866 11.5 22.7279L11.5 15.7279C11.5 15.5899 11.612 15.4779 11.75 15.4779Z" fill="black"/>
<path d="M15.5 13.7279C15.5 13.5899 15.3881 13.4779 15.25 13.4779C15.112 13.4779 15 13.5899 15 13.7279L15 20.7279C15 20.866 15.112 20.9779 15.25 20.9779C15.3881 20.9779 15.5 20.866 15.5 20.7279L15.5 13.7279Z" fill="black"/>
</svg>
