<svg width="24" height="24" viewBox="0 0 24 24" fill="none" xmlns="http://www.w3.org/2000/svg">
<path d="M0.500244 8C0.500244 7.72386 0.724102 7.5 1.00024 7.5L2.23554 7.5C2.51168 7.5 2.73554 7.72386 2.73554 8C2.73554 8.27614 2.51168 8.5 2.23554 8.5L1.00024 8.5C0.724102 8.5 0.500244 8.27614 0.500244 8Z" fill="black"/>
<path d="M8.05323 13.2675C8.11369 13.2415 8.18029 13.2272 8.25026 13.2272C8.5264 13.2272 8.75026 13.451 8.75026 13.7272L8.75026 20.7272C8.75026 21.0033 8.5264 21.2272 8.25026 21.2272C7.97411 21.2272 7.75026 21.0033 7.75026 20.7272L7.75026 15.4331C7.6008 15.3467 7.50024 15.1851 7.50024 15V13.7647C7.50024 13.4886 7.7241 13.2647 8.00024 13.2647C8.01814 13.2647 8.03582 13.2656 8.05323 13.2675Z" fill="black"/>
<path d="M8.00024 0.5C8.27639 0.5 8.50025 0.72386 8.50025 1V2.2353C8.50025 2.51144 8.27639 2.73529 8.00025 2.73529C7.7241 2.73529 7.50024 2.51144 7.50024 2.2353V1C7.50024 0.72386 7.7241 0.5 8.00024 0.5Z" fill="black"/>
<path d="M13.3036 3.40383C13.4989 3.20857 13.4989 2.89199 13.3036 2.69673C13.1084 2.50146 12.7918 2.50146 12.5965 2.69673L11.723 3.57021C11.5278 3.76547 11.5278 4.08206 11.723 4.27732C11.9183 4.47258 12.2349 4.47258 12.4301 4.27732L13.3036 3.40383Z" fill="black"/>
<path d="M2.69687 2.69673C2.89213 2.50146 3.20871 2.50146 3.40398 2.69673L4.27746 3.57021C4.47272 3.76547 4.47272 4.08206 4.27746 4.27732C4.0822 4.47258 3.76562 4.47258 3.57035 4.27732L2.69687 3.40383C2.50161 3.20857 2.50161 2.89199 2.69687 2.69673Z" fill="black"/>
<path d="M4.25024 8C4.25024 5.92893 5.92918 4.25 8.00025 4.25C8.91886 4.25 9.76033 4.5803 10.4124 5.12862C9.02131 5.62243 7.83328 6.54341 7.00576 7.73186C6.02487 7.76871 5.09959 8.0229 4.27669 8.44769C4.25923 8.30089 4.25024 8.15149 4.25024 8Z" fill="black"/>
<path fill-rule="evenodd" clip-rule="evenodd" d="M7.55226 8.73516C8.58778 6.93845 10.5292 5.7272 12.7541 5.7272C15.7339 5.7272 18.206 7.89912 18.6743 10.7466C20.9625 10.9585 22.7541 12.8836 22.7541 15.2272C22.7541 17.7125 20.7394 19.7272 18.2541 19.7272H16.7503V13.7272C16.7503 12.8988 16.0787 12.2272 15.2503 12.2272C14.4218 12.2272 13.7503 12.8988 13.7503 13.7272L13.7503 19.7272H13.2503L13.2503 15.7272C13.2503 14.8988 12.5787 14.2272 11.7503 14.2272C10.9218 14.2272 10.2503 14.8988 10.2503 15.7272L10.2503 19.7272H9.75026L9.75026 13.7272C9.75026 12.8988 9.07868 12.2272 8.25026 12.2272C7.42183 12.2272 6.75026 12.8988 6.75026 13.7272V19.7044C3.94883 19.45 1.75407 17.0949 1.75407 14.2272C1.75407 11.1896 4.21651 8.7272 7.25407 8.7272C7.35407 8.7272 7.45349 8.72988 7.55226 8.73516ZM18.2541 10.7272L18.2526 10.7272L18.254 11.2026L18.2541 10.7272Z" fill="black"/>
<path d="M11.7503 15.2272C12.0264 15.2272 12.2503 15.451 12.2503 15.7272L12.2503 22.7272C12.2503 23.0033 12.0264 23.2272 11.7503 23.2272C11.4741 23.2272 11.2503 23.0033 11.2503 22.7272L11.2503 15.7272C11.2503 15.451 11.4741 15.2272 11.7503 15.2272Z" fill="black"/>
<path d="M15.7503 13.7272C15.7503 13.451 15.5264 13.2272 15.2503 13.2272C14.9741 13.2272 14.7503 13.451 14.7503 13.7272L14.7503 20.7272C14.7503 21.0033 14.9741 21.2272 15.2503 21.2272C15.5264 21.2272 15.7503 21.0033 15.7503 20.7272L15.7503 13.7272Z" fill="black"/>
</svg>
