<svg width="24" height="24" viewBox="0 0 24 24" fill="none" xmlns="http://www.w3.org/2000/svg">
<path d="M1 14C1 13.7239 1.22386 13.5 1.5 13.5H7.36428C7.61374 11.1603 9.59402 9.33783 11.9999 9.33783C14.4059 9.33783 16.3861 11.1603 16.6356 13.5H22.4999C22.7761 13.5 22.9999 13.7239 22.9999 14C22.9999 14.2761 22.7761 14.5 22.4999 14.5H13.9531L13.2158 13.7627C12.5323 13.0793 11.4243 13.0793 10.7409 13.7627L10.0036 14.5H1.5C1.22386 14.5 1 14.2761 1 14Z" fill="black"/>
<path d="M12.4999 3.5C12.4999 3.22386 12.2761 3 11.9999 3C11.7238 3 11.4999 3.22386 11.4999 3.5V6.35293C11.4999 6.62907 11.7238 6.85293 11.9999 6.85293C12.2761 6.85293 12.4999 6.62908 12.4999 6.35293V3.5Z" fill="black"/>
<path d="M19.7782 6.22191C19.9734 6.41718 19.9734 6.73376 19.7782 6.92902L18.468 8.23924C18.2727 8.4345 17.9561 8.4345 17.7609 8.23924C17.5656 8.04398 17.5656 7.7274 17.7609 7.53213L19.0711 6.22191C19.2663 6.02665 19.5829 6.02665 19.7782 6.22191Z" fill="black"/>
<path d="M4.92879 6.22191C4.73353 6.02665 4.41695 6.02665 4.22169 6.22191C4.02643 6.41718 4.02643 6.73376 4.22169 6.92902L5.53191 8.23924C5.72717 8.4345 6.04375 8.4345 6.23902 8.23924C6.43428 8.04398 6.43428 7.7274 6.23902 7.53214L4.92879 6.22191Z" fill="black"/>
<path d="M8.79635 18.182C8.99161 18.3772 9.30819 18.3772 9.50346 18.182L11.4999 16.1855L11.4999 20.8284C11.4999 21.1046 11.7238 21.3284 11.9999 21.3284C12.2761 21.3284 12.4999 21.1046 12.4999 20.8284L12.4999 16.2287L14.4532 18.182C14.6485 18.3773 14.965 18.3772 15.1603 18.182C15.3556 17.9867 15.3556 17.6701 15.1603 17.4749L12.3319 14.6465C12.1366 14.4512 11.82 14.4512 11.6248 14.6465L8.79635 17.4749C8.60109 17.6701 8.60109 17.9867 8.79635 18.182Z" fill="black"/>
</svg>
