<svg width="24" height="24" viewBox="0 0 24 24" fill="none" xmlns="http://www.w3.org/2000/svg">
<path d="M12.3399 3.08393C12.7127 2.70028 13.2208 2.4482 13.7962 2.40798C15.0358 2.32131 16.1109 3.25595 16.1976 4.49557C16.2429 5.1434 16.0583 5.70876 15.6249 6.11996C15.1827 6.53957 14.3791 6.89519 12.9999 6.89519C11.4718 6.89519 9.31687 6.9857 7.56171 7.07485C5.4307 7.1831 3.33285 7.59853 1.31722 8.27041L1.26291 8.28851C0.869953 8.4195 0.657583 8.84424 0.788569 9.23719C0.919555 9.63015 1.34429 9.84252 1.73725 9.71153L1.79156 9.69343C3.68722 9.06154 5.65127 8.67383 7.63781 8.57292C9.39208 8.48381 11.5135 8.39519 12.9999 8.39519C14.6207 8.39519 15.8478 7.97626 16.6574 7.20811C17.4758 6.43155 17.7642 5.39594 17.6939 4.39095C17.5495 2.32493 15.7576 0.767181 13.6915 0.911631C12.7339 0.978584 11.884 1.40058 11.264 2.03873C10.9754 2.33582 10.9823 2.81065 11.2794 3.09927C11.5765 3.3879 12.0513 3.38103 12.3399 3.08393Z" fill="black"/>
<path d="M1.1647 13.3292C3.89936 11.9619 6.91481 11.25 9.97225 11.25L13.0001 11.25V12.75L9.97225 12.75C7.14768 12.75 4.36189 13.4077 1.83552 14.6708C1.46504 14.8561 1.01453 14.7059 0.829289 14.3354C0.644047 13.9649 0.794216 13.5144 1.1647 13.3292Z" fill="black"/>
<path d="M13.0001 11.25H17.9999C19.8716 11.25 21.3212 11.7295 22.3114 12.6116C23.3104 13.5016 23.7501 14.7202 23.7501 16C23.7501 18.6234 21.6235 20.75 19.0001 20.75C16.3768 20.75 14.2501 18.6234 14.2501 16C14.2501 15.5858 14.5859 15.25 15.0001 15.25C15.4143 15.25 15.7501 15.5858 15.7501 16C15.7501 17.7949 17.2052 19.25 19.0001 19.25C20.795 19.25 22.2501 17.7949 22.2501 16C22.2501 15.0707 21.9397 14.2893 21.3136 13.7316C20.6787 13.166 19.6281 12.75 17.9999 12.75H13.0001V11.25Z" fill="black"/>
<path d="M1.58417 17.876C3.66344 16.4898 6.10516 15.75 8.60433 15.75H8.99995C10.5974 15.75 11.8035 16.106 12.6169 16.8125C13.4483 17.5346 13.7502 18.5176 13.7502 19.5C13.7502 21.5711 12.0713 23.25 10.0002 23.25C7.92912 23.25 6.25019 21.5711 6.25019 19.5C6.25019 19.0858 6.58598 18.75 7.00019 18.75C7.4144 18.75 7.75019 19.0858 7.75019 19.5C7.75019 20.7427 8.75755 21.75 10.0002 21.75C11.2428 21.75 12.2502 20.7427 12.2502 19.5C12.2502 18.8256 12.0519 18.3086 11.6333 17.9449C11.1966 17.5656 10.4025 17.25 8.99995 17.25H8.60433C6.40148 17.25 4.24924 17.902 2.41622 19.1241C2.07157 19.3538 1.60592 19.2607 1.37615 18.916C1.14639 18.5714 1.23952 18.1057 1.58417 17.876Z" fill="black"/>
</svg>
