<svg width="24" height="24" viewBox="0 0 24 24" fill="none" xmlns="http://www.w3.org/2000/svg">
<path fill-rule="evenodd" clip-rule="evenodd" d="M2.86129 11.1408C1.86392 12.2121 1.2538 13.6489 1.2538 15.2281C1.2538 18.5418 3.9401 21.2281 7.2538 21.2281H18.2538C21.0152 21.2281 23.2538 18.9895 23.2538 16.2281C23.2538 13.7537 21.4564 11.6991 19.096 11.2987C18.4444 8.39612 15.8528 6.22809 12.7538 6.22809C12.2591 6.22809 11.7773 6.28337 11.3143 6.38807C11.2761 4.48736 10.2729 2.82407 8.77923 1.86708L8.74867 1.84718C8.63808 1.77471 8.40844 1.62423 8.14029 1.56311C7.39014 1.39214 6.63192 1.81678 6.38578 2.54572C6.31874 2.74428 6.31342 2.93835 6.31135 3.03074C6.30892 3.13947 6.3116 3.27307 6.31438 3.41093L6.31474 3.4289C6.31522 3.45282 6.31546 3.47682 6.31546 3.50088C6.31546 5.43388 4.74846 7.00088 2.81546 7.00089C2.79139 7.00089 2.7674 7.00064 2.74348 7.00016L2.72555 6.9998C2.58769 6.99703 2.45405 6.99434 2.34531 6.99677C2.25293 6.99885 2.05886 7.00416 1.8603 7.07121C1.13135 7.31735 0.706711 8.07557 0.877685 8.82571C0.938802 9.09386 1.08928 9.3235 1.16176 9.4341L1.18165 9.46466C1.61259 10.1373 2.18674 10.7104 2.86129 11.1408ZM4.67255 9.81016C4.16614 9.63537 3.71218 9.34751 3.3408 8.97612C5.95903 8.72802 8.0426 6.64445 8.2907 4.02622C8.92482 4.66035 9.31546 5.53519 9.31546 6.50088C9.31546 6.76302 9.28664 7.01843 9.232 7.2641C8.44732 7.77094 7.77901 8.44201 7.27577 9.22813L7.2538 9.22809C6.32971 9.22809 5.45441 9.437 4.67255 9.81016ZM18.2509 11.2281L18.2538 11.2281V12.2034L18.2509 11.2281ZM17.2337 12.2995C17.2826 12.8187 17.7181 13.2282 18.2538 13.2281C19.9107 13.2281 21.2538 14.5712 21.2538 16.2281C21.2538 17.8849 19.9107 19.2281 18.2538 19.2281H7.2538C5.04466 19.2281 3.2538 17.4372 3.2538 15.2281C3.2538 13.0189 5.04466 11.2281 7.2538 11.2281C7.36446 11.2281 7.47386 11.2326 7.58185 11.2413C8.07935 11.2815 8.55651 11.0253 8.79623 10.584C9.55962 9.17857 11.0464 8.22809 12.7538 8.22809C15.0944 8.22809 17.0186 10.0158 17.2337 12.2995Z" fill="black"/>
</svg>
