<svg width="24" height="24" viewBox="0 0 24 24" fill="none" xmlns="http://www.w3.org/2000/svg">
<path fill-rule="evenodd" clip-rule="evenodd" d="M12.7539 4.97729C10.6094 4.9773 8.73943 6.1514 7.7512 7.89068C7.72331 7.93975 7.70729 7.96778 7.6946 7.98753L7.69153 7.99223L7.68574 7.99224C7.66206 7.9921 7.62956 7.99023 7.57291 7.98684C7.46736 7.98051 7.36099 7.9773 7.25391 7.9773C4.35441 7.9773 2.00391 10.3278 2.00391 13.2273C2.00391 16.1268 4.35441 18.4773 7.25391 18.4773H8.8051C8.70991 18.0386 8.74585 17.572 8.92519 17.139C9.02351 16.9017 9.15948 16.6876 9.32447 16.5026L8.91292 16.0911C8.03424 15.2124 8.03424 13.7878 8.91292 12.9091C9.7916 12.0304 11.2162 12.0304 12.0949 12.9091L15.5949 16.4091C16.1423 16.9565 16.3633 17.7384 16.2028 18.4773H18.2539C20.6011 18.4773 22.5039 16.5745 22.5039 14.2273C22.5039 11.9478 20.7094 10.0875 18.456 9.98202C18.0905 7.15835 15.677 4.97729 12.7539 4.97729Z" fill="black"/>
<path d="M11.211 13.793C10.8205 13.4025 10.1873 13.4025 9.7968 13.793C9.40628 14.1835 9.40628 14.8167 9.7968 15.2072L11.5897 17.0001H11.0039C10.5994 17.0001 10.2348 17.2437 10.08 17.6174C9.92525 17.9911 10.0108 18.4212 10.2968 18.7072L13.7968 22.2072C14.1873 22.5977 14.8205 22.5977 15.211 22.2072C15.6015 21.8167 15.6015 21.1835 15.211 20.793L13.4181 19.0001H14.0039C14.4084 19.0001 14.773 18.7564 14.9278 18.3828C15.0826 18.0091 14.997 17.579 14.711 17.293L11.211 13.793Z" fill="black"/>
</svg>
