<svg width="24" height="24" viewBox="0 0 24 24" fill="none" xmlns="http://www.w3.org/2000/svg">
<path d="M8.50955 1.28801C9.62918 2.00534 10.4449 3.1581 10.7169 4.50802C9.10484 4.96207 7.71386 5.94133 6.7397 7.24658C5.06729 7.36799 3.55784 8.07695 2.4168 9.16802C2.10609 8.87995 1.83213 8.55294 1.6027 8.19485L1.5813 8.16164C1.50317 8.04075 1.40494 7.88875 1.36523 7.71452C1.25126 7.21448 1.53439 6.70893 2.0203 6.54485C2.14026 6.50435 2.26682 6.49858 2.35656 6.49657C2.45437 6.49438 2.57838 6.49687 2.72256 6.49977L2.73349 6.49999C2.76076 6.50053 2.78809 6.50081 2.81551 6.50081C5.02464 6.50081 6.81551 4.70995 6.81551 2.50081C6.81551 2.4734 6.81523 2.44606 6.81468 2.41879L6.81447 2.40792C6.81157 2.26372 6.80908 2.13968 6.81127 2.04186C6.81328 1.95212 6.81904 1.82556 6.85955 1.70561C7.02362 1.21969 7.52918 0.93656 8.02922 1.05053C8.20344 1.09024 8.35544 1.18847 8.47633 1.2666L8.50955 1.28801Z" fill="black"/>
<path fill-rule="evenodd" clip-rule="evenodd" d="M7.55204 8.73594C8.58755 6.93922 10.5289 5.72797 12.7538 5.72797C15.7337 5.72798 18.2057 7.89989 18.674 10.7473C20.9623 10.9592 22.7538 12.8844 22.7538 15.228C22.7538 16.9776 21.7554 18.494 20.2972 19.2384L17.5007 14.5776C17.0034 13.7488 15.9284 13.4801 15.0997 13.9773C14.2709 14.4746 14.0022 15.5495 14.4994 16.3783L16.5092 19.728H15.8012L13.0194 14.8599C12.5399 14.0208 11.4709 13.7292 10.6318 14.2087C9.7926 14.6882 9.50106 15.7572 9.98057 16.5964L11.7701 19.728H11.5425L8.48689 14.8052C7.97719 13.984 6.8983 13.7315 6.07713 14.2412C5.25596 14.7509 5.00346 15.8298 5.51316 16.651L7.42306 19.728H7.25384C4.21628 19.728 1.75384 17.2655 1.75384 14.228C1.75384 11.1904 4.21628 8.72798 7.25384 8.72797C7.35384 8.72797 7.45326 8.73065 7.55204 8.73594ZM18.2538 10.728L18.2524 10.728L18.2538 11.2033L18.2538 10.728Z" fill="black"/>
<path d="M6.6045 15.0908C6.95643 14.8724 7.41881 14.9806 7.63725 15.3325L11.9533 22.2861C12.1718 22.638 12.0636 23.1004 11.7116 23.3188C11.3597 23.5373 10.8973 23.4291 10.6789 23.0771L6.3628 16.1236C6.14435 15.7716 6.25257 15.3092 6.6045 15.0908Z" fill="black"/>
<path d="M11.1279 15.0769C11.4875 14.8714 11.9457 14.9964 12.1512 15.356L16.1512 22.356C16.3567 22.7156 16.2317 23.1738 15.8721 23.3793C15.5125 23.5848 15.0543 23.4599 14.8488 23.1002L10.8488 16.1002C10.6433 15.7406 10.7683 15.2824 11.1279 15.0769Z" fill="black"/>
<path d="M16.6432 15.092C16.4301 14.7369 15.9694 14.6217 15.6142 14.8348C15.259 15.0479 15.1438 15.5086 15.3569 15.8638L19.7273 23.1478C19.9404 23.5029 20.4011 23.6181 20.7563 23.405C21.1115 23.1919 21.2267 22.7312 21.0136 22.376L16.6432 15.092Z" fill="black"/>
</svg>
