<svg width="24" height="24" viewBox="0 0 24 24" fill="none" xmlns="http://www.w3.org/2000/svg">
<path d="M8.50979 1.28801C9.62943 2.00534 10.4451 3.1581 10.7172 4.50802C9.10508 4.96207 7.71411 5.94133 6.73994 7.24658C5.06753 7.36799 3.55808 8.07695 2.41705 9.16802C2.10634 8.87995 1.83237 8.55294 1.60295 8.19485L1.58154 8.16164C1.50342 8.04075 1.40518 7.88875 1.36547 7.71452C1.2515 7.21448 1.53464 6.70893 2.02055 6.54485C2.14051 6.50435 2.26706 6.49858 2.3568 6.49657C2.45461 6.49438 2.57863 6.49687 2.7228 6.49977L2.73374 6.49999C2.761 6.50053 2.78834 6.50081 2.81575 6.50081C5.02489 6.50081 6.81575 4.70995 6.81575 2.50081C6.81575 2.4734 6.81547 2.44606 6.81493 2.41879L6.81471 2.40792C6.81181 2.26372 6.80932 2.13968 6.81151 2.04186C6.81353 1.95212 6.81929 1.82556 6.85979 1.70561C7.02387 1.2197 7.52942 0.936561 8.02946 1.05053C8.20369 1.09024 8.35569 1.18847 8.47658 1.2666L8.50979 1.28801Z" fill="black"/>
<path d="M6.58417 13.6039C6.92881 13.3741 7.39446 13.4673 7.62424 13.8119L9.12427 16.0618C9.35404 16.4064 9.26093 16.8721 8.91629 17.1019C8.57165 17.3316 8.106 17.2385 7.87622 16.8939L6.37619 14.644C6.14641 14.2994 6.23953 13.8337 6.58417 13.6039Z" fill="black"/>
<path fill-rule="evenodd" clip-rule="evenodd" d="M7.55228 8.73594C8.58779 6.93922 10.5292 5.72797 12.7541 5.72797C15.7339 5.72798 18.206 7.89989 18.6743 10.7473C20.9625 10.9592 22.7541 12.8844 22.7541 15.228C22.7541 16.5136 22.2149 17.6734 21.3504 18.4934L19.0009 14.5776C18.5036 13.7489 17.4287 13.4801 16.5999 13.9774C15.7711 14.4746 15.5024 15.5496 15.9997 16.3784L18.0094 19.728H16.6774C16.8214 19.2448 16.7514 18.7158 16.4723 18.2817L14.2223 14.7817C13.6997 13.9687 12.6169 13.7334 11.8039 14.256C10.9909 14.7787 10.7556 15.8614 11.2782 16.6744L11.7948 17.4781H11.7503C11.1163 17.4781 10.5318 17.821 10.2226 18.3744C9.98901 18.7924 9.93998 19.2812 10.0731 19.728H7.25409C4.21652 19.728 1.75409 17.2655 1.75409 14.228C1.75409 11.1904 4.21652 8.72798 7.25409 8.72798C7.35409 8.72798 7.45351 8.73065 7.55228 8.73594ZM18.2541 10.728L18.2526 10.728L18.254 11.2033L18.2541 10.728ZM8.45627 13.2572C7.92012 12.4531 6.8336 12.2358 6.02944 12.7719C5.22528 13.3081 5.00802 14.3946 5.54416 15.1988L7.04419 17.4486C7.58033 18.2528 8.66686 18.4701 9.47102 17.9339C10.2752 17.3978 10.4924 16.3112 9.9563 15.5071L8.45627 13.2572Z" fill="black"/>
<path d="M12.3447 15.0972C12.6931 14.8732 13.1572 14.974 13.3811 15.3225L15.6311 18.8225C15.7795 19.0532 15.79 19.3466 15.6585 19.5874C15.5271 19.8282 15.2746 19.978 15.0003 19.978H13.0925L14.389 22.0848C14.6061 22.4376 14.4961 22.8996 14.1433 23.1167C13.7906 23.3337 13.3286 23.2238 13.1115 22.871L11.1115 19.6211C10.9691 19.3897 10.963 19.0994 11.0955 18.8622C11.2281 18.625 11.4785 18.478 11.7503 18.478H13.6265L12.1194 16.1336C11.8954 15.7852 11.9963 15.3211 12.3447 15.0972Z" fill="black"/>
<path d="M18.1434 15.0921C17.9303 14.7369 17.4696 14.6217 17.1144 14.8348C16.7592 15.0479 16.644 15.5086 16.8572 15.8638L19.6682 20.549C19.8814 20.9042 20.3421 21.0193 20.6972 20.8062C21.0524 20.5931 21.1676 20.1324 20.9545 19.7772L18.1434 15.0921Z" fill="black"/>
</svg>
