<svg width="24" height="24" viewBox="0 0 24 24" fill="none" xmlns="http://www.w3.org/2000/svg">
<path d="M0 8C-2.41412e-08 7.44772 0.447715 7 1 7L2.23529 7C2.78758 7 3.23529 7.44772 3.23529 8C3.23529 8.55229 2.78758 9 2.23529 9H1C0.447715 9 2.41412e-08 8.55229 0 8Z" fill="black"/>
<path d="M8 0C8.55229 -2.41411e-08 9 0.447714 9 1V2.23529C9 2.78758 8.55229 3.23529 8 3.23529C7.44772 3.23529 7 2.78758 7 2.23529V1C7 0.447716 7.44772 2.41411e-08 8 0Z" fill="black"/>
<path d="M13.6569 3.75739C14.0475 3.36686 14.0475 2.7337 13.6569 2.34317C13.2664 1.95265 12.6332 1.95265 12.2427 2.34317L11.3692 3.21666C10.9787 3.60718 10.9787 4.24035 11.3692 4.63087C11.7598 5.02139 12.3929 5.0214 12.7834 4.63087L13.6569 3.75739Z" fill="black"/>
<path fill-rule="evenodd" clip-rule="evenodd" d="M11.6196 5.32584C10.7999 4.21815 9.48381 3.5 8 3.5C5.51472 3.5 3.5 5.51472 3.5 8C3.5 8.48169 3.57568 8.94571 3.71581 9.3808C2.22326 10.4723 1.2538 12.2365 1.2538 14.2272C1.2538 17.5409 3.94009 20.2272 7.2538 20.2272H7.43916L6.09128 18.0556C4.44911 17.5577 3.2538 16.032 3.2538 14.2272C3.2538 12.0181 5.04466 10.2272 7.2538 10.2272C7.36446 10.2272 7.47385 10.2317 7.58185 10.2404C8.07935 10.2807 8.55651 10.0245 8.79623 9.58312C9.55961 8.17768 11.0464 7.2272 12.7538 7.2272C15.0944 7.2272 17.0186 9.01488 17.2337 11.2986C17.2826 11.8178 17.7181 12.2273 18.2538 12.2272C19.9107 12.2272 21.2538 13.5703 21.2538 15.2272C21.2538 16.3413 20.6464 17.3136 19.7448 17.8311L20.774 19.5465C22.2574 18.6792 23.2538 17.0695 23.2538 15.2272C23.2538 12.7528 21.4564 10.6982 19.096 10.2978C18.4444 7.39524 15.8528 5.2272 12.7538 5.2272C12.3669 5.2272 11.9879 5.26102 11.6196 5.32584ZM5.54489 8.47407C5.51543 8.32058 5.5 8.16209 5.5 8C5.5 6.61929 6.61929 5.5 8 5.5C8.5963 5.5 9.14383 5.70877 9.5735 6.05719C8.64063 6.58161 7.85054 7.32938 7.27577 8.22724L7.2538 8.2272C6.66008 8.2272 6.08649 8.31344 5.54489 8.47407ZM18.2509 10.2272L18.2538 10.2272L18.2538 11.2025L18.2509 10.2272Z" fill="black"/>
<path d="M2.34307 2.34317C2.7336 1.95265 3.36676 1.95265 3.75729 2.34317L4.63077 3.21666C5.02129 3.60718 5.02129 4.24035 4.63077 4.63087C4.24025 5.02139 3.60708 5.0214 3.21656 4.63087L2.34307 3.75739C1.95255 3.36686 1.95255 2.7337 2.34307 2.34317Z" fill="black"/>
<path d="M16.5177 20.2272L15.3177 18.2272H15.232L16.3748 20.2272H16.5177Z" fill="black"/>
<path d="M6.47263 14.8776C6.94187 14.5864 7.55837 14.7306 7.84963 15.1999L12.1657 22.1535C12.457 22.6227 12.3127 23.2392 11.8435 23.5305C11.3742 23.8217 10.7577 23.6775 10.4665 23.2082L6.15036 16.2546C5.8591 15.7854 6.00339 15.1689 6.47263 14.8776Z" fill="black"/>
<path d="M11.0038 14.8591C11.4834 14.5851 12.0942 14.7517 12.3682 15.2312L16.3682 22.2312C16.6422 22.7107 16.4756 23.3216 15.9961 23.5956C15.5166 23.8696 14.9057 23.703 14.6317 23.2235L10.6317 16.2235C10.3577 15.744 10.5243 15.1331 11.0038 14.8591Z" fill="black"/>
<path d="M16.8575 14.9626C16.5734 14.4891 15.9591 14.3355 15.4855 14.6196C15.0119 14.9038 14.8584 15.5181 15.1425 15.9916L19.5129 23.2756C19.7971 23.7492 20.4113 23.9028 20.8849 23.6186C21.3585 23.3345 21.512 22.7202 21.2279 22.2466L16.8575 14.9626Z" fill="black"/>
</svg>
