<svg width="24" height="24" viewBox="0 0 24 24" fill="none" xmlns="http://www.w3.org/2000/svg">
<path d="M0.375 12C0.375 11.3787 0.87868 10.875 1.5 10.875H4.35293C4.97425 10.875 5.47793 11.3787 5.47793 12C5.47793 12.6213 4.97425 13.125 4.35293 13.125H1.5C0.87868 13.125 0.375 12.6213 0.375 12Z" fill="black"/>
<path d="M10.8749 22.5C10.8749 23.1213 11.3786 23.625 11.9999 23.625C12.6213 23.625 13.1249 23.1213 13.1249 22.5V19.6471C13.1249 19.0257 12.6213 18.5221 11.9999 18.5221C11.3786 18.5221 10.8749 19.0257 10.8749 19.6471V22.5Z" fill="black"/>
<path d="M11.9999 0.375C12.6213 0.375 13.1249 0.878679 13.1249 1.5V4.35293C13.1249 4.97425 12.6213 5.47793 11.9999 5.47793C11.3786 5.47793 10.8749 4.97425 10.8749 4.35293V1.5C10.8749 0.878679 11.3786 0.375 11.9999 0.375Z" fill="black"/>
<path d="M23.6249 12C23.6249 12.6213 23.1212 13.125 22.4999 13.125H19.647C19.0257 13.125 18.522 12.6213 18.522 12C18.522 11.3787 19.0257 10.875 19.647 10.875H22.4999C23.1212 10.875 23.6249 11.3787 23.6249 12Z" fill="black"/>
<path d="M20.2201 5.37096C20.6595 4.93162 20.6595 4.21931 20.2201 3.77997C19.7808 3.34063 19.0685 3.34063 18.6291 3.77997L17.3189 5.09019C16.8796 5.52953 16.8796 6.24184 17.3189 6.68118C17.7583 7.12052 18.4706 7.12052 18.9099 6.68118L20.2201 5.37096Z" fill="black"/>
<path d="M20.2201 20.22C19.7808 20.6594 19.0685 20.6594 18.6291 20.22L17.3189 18.9098C16.8796 18.4705 16.8796 17.7582 17.3189 17.3188C17.7583 16.8795 18.4706 16.8795 18.9099 17.3188L20.2201 18.629C20.6595 19.0684 20.6595 19.7807 20.2201 20.22Z" fill="black"/>
<path d="M3.77975 18.629C3.34041 19.0684 3.34041 19.7807 3.77975 20.22C4.21909 20.6594 4.9314 20.6594 5.37074 20.22L6.68096 18.9098C7.1203 18.4705 7.1203 17.7582 6.68096 17.3188C6.24162 16.8795 5.52931 16.8795 5.08997 17.3188L3.77975 18.629Z" fill="black"/>
<path d="M3.77975 3.77997C4.21909 3.34063 4.9314 3.34063 5.37074 3.77997L6.68096 5.09019C7.1203 5.52953 7.1203 6.24184 6.68096 6.68118C6.24162 7.12052 5.52931 7.12052 5.08997 6.68118L3.77975 5.37096C3.34041 4.93162 3.34041 4.21931 3.77975 3.77997Z" fill="black"/>
<path fill-rule="evenodd" clip-rule="evenodd" d="M11.9999 6.71283C9.07993 6.71283 6.71278 9.07997 6.71278 12C6.71278 14.92 9.07993 17.2872 11.9999 17.2872C14.92 17.2872 17.2871 14.92 17.2871 12C17.2871 9.07997 14.92 6.71283 11.9999 6.71283ZM8.96278 12C8.96278 10.3226 10.3226 8.96283 11.9999 8.96283C13.6773 8.96283 15.0371 10.3226 15.0371 12C15.0371 13.6774 13.6773 15.0372 11.9999 15.0372C10.3226 15.0372 8.96278 13.6774 8.96278 12Z" fill="black"/>
</svg>
