<svg width="24" height="24" viewBox="0 0 24 24" fill="none" xmlns="http://www.w3.org/2000/svg">
<path d="M12.5192 3.25815C12.8507 2.91691 13.3019 2.69315 13.8135 2.65738C14.9154 2.58034 15.8711 3.41114 15.9482 4.51302C15.9893 5.10132 15.822 5.58831 15.4528 5.93861C15.0718 6.30014 14.3388 6.6452 12.9998 6.6452C11.4648 6.6452 9.30428 6.73602 7.54897 6.82518C5.39389 6.93465 3.27373 7.35471 1.23811 8.03324L1.1838 8.05135C0.659856 8.226 0.376696 8.79232 0.551344 9.31626C0.725992 9.8402 1.29231 10.1234 1.81625 9.94871L1.87057 9.93061C3.74623 9.30539 5.68797 8.92229 7.65044 8.82261C9.40456 8.73351 11.5204 8.6452 12.9998 8.6452C14.6609 8.6452 15.9586 8.21572 16.8294 7.38948C17.712 6.55202 18.0177 5.43804 17.9433 4.37352C17.7892 2.16977 15.8778 0.508172 13.674 0.66225C12.6527 0.733657 11.7458 1.18397 11.0847 1.86453C10.6998 2.26067 10.709 2.89376 11.1051 3.2786C11.5013 3.66343 12.1344 3.65428 12.5192 3.25815Z" fill="black"/>
<path d="M1.05284 13.1056C3.82221 11.7209 6.87594 11 9.97219 11L13.0001 11V13L9.97219 13C7.18643 13 4.43893 13.6486 1.94727 14.8945C1.45329 15.1414 0.852617 14.9412 0.605628 14.4472C0.358639 13.9533 0.558863 13.3526 1.05284 13.1056Z" fill="black"/>
<path d="M13.0001 13V11H17.9998C19.9121 11 21.4282 11.4901 22.4776 12.4249C23.5388 13.3703 24.0001 14.6618 24.0001 16C24.0001 18.7615 21.7615 21 19.0001 21C16.2386 21 14.0001 18.7615 14.0001 16C14.0001 15.4477 14.4478 15 15.0001 15C15.5523 15 16.0001 15.4477 16.0001 16C16.0001 17.6569 17.3432 19 19.0001 19C20.6569 19 22.0001 17.6569 22.0001 16C22.0001 15.1292 21.7111 14.4206 21.1473 13.9183C20.5715 13.4054 19.5875 13 17.9998 13H13.0001Z" fill="black"/>
<path d="M1.44544 17.668C3.56575 16.2544 6.05572 15.5 8.60427 15.5H8.99989C10.6298 15.5 11.9046 15.8627 12.7808 16.6237C13.681 17.4056 14.0001 18.4663 14.0001 19.5C14.0001 21.7092 12.2093 23.5 10.0001 23.5C7.791 23.5 6.00014 21.7092 6.00014 19.5C6.00014 18.9477 6.44785 18.5 7.00014 18.5C7.55242 18.5 8.00014 18.9477 8.00014 19.5C8.00014 20.6046 8.89557 21.5 10.0001 21.5C11.1047 21.5 12.0001 20.6046 12.0001 19.5C12.0001 18.8769 11.8191 18.4376 11.4693 18.1337C11.0954 17.8089 10.37 17.5 8.99989 17.5H8.60427C6.45082 17.5 4.34682 18.1374 2.55484 19.3321C2.09531 19.6384 1.47444 19.5143 1.16809 19.0547C0.861733 18.5952 0.985907 17.9743 1.44544 17.668Z" fill="black"/>
</svg>
