<svg width="24" height="24" viewBox="0 0 24 24" fill="none" xmlns="http://www.w3.org/2000/svg">
<path d="M0 8.00024C-2.41411e-08 7.44796 0.447715 7.00024 1 7.00024H2.23529C2.78758 7.00024 3.23529 7.44796 3.23529 8.00025C3.23529 8.29073 3.11143 8.55229 2.91365 8.73499C2.87855 8.76276 2.84373 8.79086 2.80918 8.81928C2.64674 8.93331 2.44884 9.00024 2.23529 9.00024H1C0.447715 9.00024 2.41412e-08 8.55253 0 8.00024Z" fill="black"/>
<path d="M6.73969 7.24602C7.54998 6.16032 8.64866 5.30018 9.92309 4.78022C9.36078 4.44368 8.70298 4.25024 8 4.25024C5.96169 4.25024 4.30321 5.87649 4.25126 7.90227C5.01475 7.5392 5.85439 7.31028 6.73969 7.24602Z" fill="black"/>
<path d="M12.7538 4.22742C12.8953 4.22742 13.0359 4.23134 13.1755 4.23907L13.6569 3.75763C14.0475 3.36711 14.0475 2.73394 13.6569 2.34342C13.2664 1.95289 12.6332 1.95289 12.2427 2.34342L11.3692 3.2169C11.0515 3.5346 10.9923 4.01287 11.1915 4.39045C11.6953 4.28365 12.218 4.22742 12.7538 4.22742Z" fill="black"/>
<path d="M9 1.00024C9 0.447958 8.55229 0.000244116 8 0.000244141C7.44772 0.000244165 7 0.44796 7 1.00024V2.23554C7 2.78782 7.44772 3.23554 8 3.23554C8.55229 3.23554 9 2.78782 9 2.23554V1.00024Z" fill="black"/>
<path d="M2.34307 2.34342C2.7336 1.95289 3.36676 1.95289 3.75729 2.34342L4.63077 3.2169C5.02129 3.60743 5.02129 4.24059 4.63077 4.63111C4.24025 5.02164 3.60708 5.02164 3.21656 4.63111L2.34307 3.75763C1.95255 3.3671 1.95255 2.73394 2.34307 2.34342Z" fill="black"/>
<path d="M6.44523 13.3954C6.90475 13.089 7.52562 13.2131 7.83199 13.6727L9.33202 15.9225C9.63839 16.3821 9.51423 17.0029 9.05472 17.3093C8.5952 17.6157 7.97432 17.4915 7.66796 17.032L6.16792 14.7821C5.86156 14.3226 5.98571 13.7017 6.44523 13.3954Z" fill="black"/>
<path fill-rule="evenodd" clip-rule="evenodd" d="M7.55202 8.73537C8.58754 6.93866 10.5289 5.72741 12.7538 5.72741C15.7337 5.72741 18.2057 7.89933 18.674 10.7468C20.9623 10.9587 22.7538 12.8838 22.7538 15.2274C22.7538 16.4203 22.2896 17.5048 21.532 18.3102L19.215 14.4484C18.6467 13.5013 17.4182 13.1941 16.471 13.7624C15.5239 14.3307 15.2167 15.5593 15.785 16.5064L17.7176 19.7274H16.9366C17.074 19.1949 16.9876 18.6208 16.6824 18.146L14.4324 14.646C13.8351 13.7169 12.5976 13.4478 11.6685 14.0452C10.7393 14.6425 10.4703 15.8799 11.0676 16.809L11.3612 17.2656C10.7925 17.3783 10.2931 17.7346 10.0041 18.2519C9.74953 18.7075 9.68677 19.2365 9.81344 19.7274H7.25383C4.21626 19.7274 1.75383 17.265 1.75383 14.2274C1.75383 11.1898 4.21626 8.72741 7.25383 8.72741C7.35383 8.72741 7.45325 8.73009 7.55202 8.73537ZM18.2538 10.7274L18.2524 10.7274L18.2538 11.2028L18.2538 10.7274ZM8.66402 13.118C8.05128 12.1989 6.80953 11.9506 5.8905 12.5634C4.97146 13.1761 4.72316 14.4178 5.33589 15.3369L6.83592 17.5868C7.44866 18.5058 8.69041 18.7541 9.60944 18.1414C10.5285 17.5286 10.7768 16.2869 10.164 15.3678L8.66402 13.118Z" fill="black"/>
<path d="M12.2092 14.8863C12.6738 14.5876 13.2925 14.7221 13.5912 15.1867L15.8412 18.6867C16.039 18.9944 16.053 19.3856 15.8777 19.7067C15.7024 20.0277 15.3658 20.2275 15 20.2275H13.5396L14.6017 21.9532C14.8911 22.4236 14.7445 23.0395 14.2741 23.329C13.8038 23.6185 13.1878 23.4718 12.8984 23.0015L10.8984 19.7516C10.7085 19.443 10.7003 19.0559 10.877 18.7397C11.0538 18.4234 11.3877 18.2275 11.75 18.2275H13.1683L11.9088 16.2682C11.6102 15.8037 11.7447 15.1849 12.2092 14.8863Z" fill="black"/>
<path d="M18.3575 14.9629C18.0734 14.4893 17.4591 14.3357 16.9855 14.6199C16.5119 14.904 16.3584 15.5183 16.6425 15.9919L19.4536 20.677C19.7378 21.1506 20.352 21.3042 20.8256 21.02C21.2992 20.7359 21.4528 20.1216 21.1686 19.648L18.3575 14.9629Z" fill="black"/>
</svg>
