<svg width="24" height="24" viewBox="0 0 24 24" fill="none" xmlns="http://www.w3.org/2000/svg">
<path fill-rule="evenodd" clip-rule="evenodd" d="M10.4944 7.4379C10.5567 7.13091 10.5895 6.81316 10.5895 6.48778C10.5895 4.69345 9.59444 3.13187 8.12727 2.32408C7.84782 2.17022 7.55646 2.23845 7.35788 2.4088C7.16576 2.57359 7.04958 2.83862 7.07365 3.11846C7.08412 3.24012 7.08946 3.36329 7.08946 3.48778C7.08946 5.83499 5.18667 7.73778 2.83946 7.73778C2.71498 7.73778 2.5918 7.73243 2.47014 7.72197C2.19031 7.6979 1.92528 7.81408 1.76048 8.00619C1.59014 8.20478 1.5219 8.49613 1.67576 8.77558C2.22551 9.77408 3.12438 10.5539 4.20814 10.9502C2.87382 11.9022 2.00383 13.463 2.00383 15.227C2.00383 18.1265 4.35434 20.477 7.25383 20.477L18.2538 20.477C20.601 20.477 22.5038 18.5742 22.5038 16.227C22.5038 13.9475 20.7093 12.0872 18.456 11.9817C18.0904 9.15802 15.677 6.97697 12.7538 6.97697C11.9517 6.97697 11.188 7.14123 10.4944 7.4379ZM2.13999 8.33173C2.08469 8.39619 2.07495 8.46393 2.11376 8.53443C2.67037 9.54539 3.62598 10.305 4.76805 10.6016C5.50799 10.2031 6.3545 9.97697 7.25383 9.97697C7.39817 9.97697 7.54119 9.9828 7.68268 9.99424C7.68912 9.99477 7.69512 9.99126 7.69783 9.98626C8.20903 9.04512 8.97558 8.26247 9.90461 7.73144C10.0248 7.33808 10.0895 6.92048 10.0895 6.48778C10.0895 4.88296 9.20007 3.48551 7.88612 2.76208C7.81562 2.72327 7.74788 2.73301 7.68341 2.7883C7.61248 2.84915 7.56165 2.95743 7.57181 3.07561C7.5835 3.2115 7.58946 3.34897 7.58946 3.48778C7.58946 6.11113 5.46282 8.23778 2.83946 8.23778C2.70066 8.23778 2.56318 8.23182 2.42729 8.22013C2.30912 8.20996 2.20084 8.26079 2.13999 8.33173ZM17.9805 12.2281C17.9936 12.3673 18.1104 12.477 18.2538 12.477C20.3249 12.477 22.0038 14.1559 22.0038 16.227C22.0038 18.298 20.3249 19.977 18.2538 19.977H7.25383C4.63048 19.977 2.50383 17.8503 2.50383 15.227C2.50383 12.6036 4.63048 10.477 7.25383 10.477C7.38469 10.477 7.51427 10.4823 7.64236 10.4926C7.84523 10.509 8.03969 10.4044 8.1372 10.2249C9.02655 8.58758 10.7607 7.47697 12.7538 7.47697C15.485 7.47697 17.7294 9.5627 17.9805 12.2281Z" fill="black"/>
</svg>
