<svg width="24" height="24" viewBox="0 0 24 24" fill="none" xmlns="http://www.w3.org/2000/svg">
<path d="M8.51028 1.28752C9.62992 2.00485 10.4456 3.15762 10.7176 4.50753C9.10557 4.96159 7.71459 5.94084 6.74043 7.24609C5.06802 7.3675 3.55857 8.07647 2.41754 9.16753C2.10683 8.87946 1.83286 8.55246 1.60344 8.19436L1.58203 8.16115C1.5039 8.04026 1.40567 7.88826 1.36596 7.71403C1.25199 7.21399 1.53512 6.70844 2.02104 6.54436C2.14099 6.50386 2.26755 6.4981 2.35729 6.49608C2.4551 6.49389 2.57911 6.49638 2.72329 6.49928L2.73422 6.4995C2.76149 6.50005 2.78883 6.50032 2.81624 6.50032C5.02538 6.50032 6.81624 4.70946 6.81624 2.50032C6.81624 2.47291 6.81596 2.44557 6.81542 2.41831L6.8152 2.40743C6.8123 2.26323 6.80981 2.13919 6.812 2.04137C6.81401 1.95164 6.81978 1.82508 6.86028 1.70512C7.02436 1.21921 7.52991 0.936072 8.02995 1.05004C8.20418 1.08975 8.35618 1.18798 8.47706 1.26611L8.51028 1.28752Z" fill="black"/>
<path fill-rule="evenodd" clip-rule="evenodd" d="M7.55277 8.73545C8.58828 6.93874 10.5297 5.72749 12.7546 5.72749C15.7344 5.72749 18.2065 7.8994 18.6748 10.7468C20.963 10.9587 22.7546 12.8839 22.7546 15.2275C22.7546 16.9771 21.7561 18.4935 20.2979 19.2379L17.5014 14.5771C17.0041 13.7483 15.9292 13.4796 15.1004 13.9768C14.2716 14.4741 14.0029 15.5491 14.5002 16.3778L16.51 19.7275H15.8019L13.0202 14.8594C12.5406 14.0203 11.4716 13.7287 10.6325 14.2082C9.79333 14.6878 9.50179 15.7567 9.98131 16.5959L11.7708 19.7275H11.5432L8.48762 14.8047C7.97792 13.9835 6.89903 13.731 6.07786 14.2407C5.25669 14.7504 5.00419 15.8293 5.51389 16.6505L7.42379 19.7275H7.25458C4.21701 19.7275 1.75458 17.2651 1.75458 14.2275C1.75458 11.1899 4.21701 8.72749 7.25458 8.72749C7.35457 8.72749 7.45399 8.73016 7.55277 8.73545ZM18.2546 10.7275L18.2531 10.7275L18.2545 11.2028L18.2546 10.7275Z" fill="black"/>
<path d="M6.60523 15.0903C6.95716 14.8719 7.41954 14.9801 7.63798 15.332L11.9541 22.2856C12.1725 22.6375 12.0643 23.0999 11.7124 23.3184C11.3604 23.5368 10.8981 23.4286 10.6796 23.0767L6.36353 16.1231C6.14509 15.7711 6.2533 15.3088 6.60523 15.0903Z" fill="black"/>
<path d="M11.1286 15.0764C11.4883 14.8709 11.9464 14.9959 12.1519 15.3555L16.1519 22.3555C16.3574 22.7152 16.2325 23.1733 15.8728 23.3788C15.5132 23.5843 15.0551 23.4594 14.8496 23.0997L10.8496 16.0997C10.644 15.7401 10.769 15.2819 11.1286 15.0764Z" fill="black"/>
<path d="M16.6439 15.0915C16.4308 14.7364 15.9701 14.6212 15.6149 14.8343C15.2597 15.0474 15.1446 15.5081 15.3577 15.8633L19.728 23.1473C19.9412 23.5025 20.4019 23.6176 20.757 23.4045C21.1122 23.1914 21.2274 22.7307 21.0143 22.3755L16.6439 15.0915Z" fill="black"/>
</svg>
