<svg width="24" height="24" viewBox="0 0 24 24" fill="none" xmlns="http://www.w3.org/2000/svg">
<path fill-rule="evenodd" clip-rule="evenodd" d="M6.77587 7.22709C7.92973 5.42464 9.95132 4.22705 12.2539 4.22705C15.3529 4.22705 17.9445 6.39509 18.5961 9.29767C20.9565 9.69803 22.7539 11.7526 22.7539 14.2271C22.7539 16.9885 20.5153 19.2271 17.7539 19.2271H6.75391C3.4402 19.2271 0.753906 16.5408 0.753906 13.2271C0.753906 9.91334 3.4402 7.22705 6.75391 7.22705C6.76123 7.22705 6.76855 7.22706 6.77587 7.22709ZM17.7539 9.22705C17.7529 9.22705 17.752 9.22705 17.751 9.22706L17.7538 10.2024L17.7539 9.22705ZM17.7539 11.2271C17.2182 11.2271 16.7827 10.8177 16.7338 10.2985C16.5187 8.01473 14.5945 6.22705 12.2539 6.22705C10.5466 6.22705 9.05972 7.17753 8.29633 8.58297C8.05661 9.02431 7.57946 9.2805 7.08196 9.24026C6.97396 9.23152 6.86456 9.22705 6.75391 9.22705C4.54477 9.22705 2.75391 11.0179 2.75391 13.2271C2.75391 15.4362 4.54477 17.2271 6.75391 17.2271H17.7539C19.4108 17.2271 20.7539 15.8839 20.7539 14.2271C20.7539 12.5702 19.4108 11.2271 17.7539 11.2271Z" fill="black"/>
</svg>
