<svg width="24" height="24" viewBox="0 0 24 24" fill="none" xmlns="http://www.w3.org/2000/svg">
<path fill-rule="evenodd" clip-rule="evenodd" d="M10.4943 6.43814C10.5566 6.13115 10.5893 5.81341 10.5893 5.48802C10.5893 3.69369 9.59432 2.13211 8.12715 1.32432C7.8477 1.17046 7.55634 1.23869 7.35775 1.40904C7.16564 1.57383 7.04946 1.83887 7.07353 2.1187C7.084 2.24036 7.08934 2.36354 7.08934 2.48802C7.08934 4.83523 5.18655 6.73802 2.83934 6.73802C2.71486 6.73802 2.59168 6.73268 2.47002 6.72221C2.19019 6.69814 1.92515 6.81432 1.76036 7.00644C1.59001 7.20502 1.52178 7.49638 1.67564 7.77583C2.22539 8.77432 3.12426 9.55414 4.20802 9.95046C2.8737 10.9024 2.00371 12.4632 2.00371 14.2272C2.00371 17.0416 4.21829 19.3388 6.99991 19.4712V18.9705C4.49456 18.8386 2.50371 16.7654 2.50371 14.2272C2.50371 11.6039 4.63036 9.47721 7.25371 9.47721C7.38457 9.47721 7.51415 9.4825 7.64224 9.49286C7.84511 9.50927 8.03956 9.40469 8.13708 9.22516C9.02642 7.58783 10.7606 6.47721 12.7537 6.47721C15.4849 6.47721 17.7292 8.56294 17.9803 11.2283C17.9935 11.3676 18.1103 11.4773 18.2537 11.4772C20.3248 11.4772 22.0037 13.1561 22.0037 15.2272C22.0037 17.2983 20.3248 18.9772 18.2537 18.9772H16.4999V19.4772H18.2537C20.6009 19.4772 22.5037 17.5744 22.5037 15.2272C22.5037 12.9478 20.7092 11.0874 18.4558 10.9819C18.0903 8.15826 15.6768 5.97721 12.7537 5.97721C11.9516 5.97721 11.1878 6.14148 10.4943 6.43814ZM2.13987 7.33197C2.08457 7.39644 2.07483 7.46418 2.11364 7.53468C2.67025 8.54563 3.62586 9.30526 4.76793 9.60184C5.50787 9.20334 6.35438 8.97721 7.25371 8.97721C7.39804 8.97721 7.54107 8.98304 7.68255 8.99449C7.689 8.99501 7.695 8.99151 7.69771 8.9865C8.20891 8.04536 8.97546 7.26271 9.90449 6.73168C10.0247 6.33832 10.0893 5.92072 10.0893 5.48802C10.0893 3.8832 9.19995 2.48575 7.88599 1.76232C7.8155 1.72351 7.74776 1.73325 7.68329 1.78855C7.61236 1.8494 7.56153 1.95768 7.57169 2.07585C7.58338 2.21174 7.58934 2.34922 7.58934 2.48802C7.58934 5.11138 5.46269 7.23802 2.83934 7.23802C2.70054 7.23802 2.56306 7.23206 2.42717 7.22037C2.30899 7.21021 2.20071 7.26104 2.13987 7.33197Z" fill="black"/>
<path d="M13.9999 19.4772V18.9772H12.9999V19.4772H13.9999Z" fill="black"/>
<path d="M10.4999 19.4772H9.49991V18.9772H10.4999V19.4772Z" fill="black"/>
<path d="M8.24991 13.4772C8.38798 13.4772 8.49991 13.5891 8.49991 13.7272L8.49991 20.7272C8.49991 20.8653 8.38798 20.9772 8.24991 20.9772C8.11184 20.9772 7.99991 20.8653 7.99991 20.7272V13.7272C7.99991 13.5891 8.11184 13.4772 8.24991 13.4772Z" fill="black"/>
<path d="M11.7499 15.4772C11.888 15.4772 11.9999 15.5891 11.9999 15.7272L11.9999 22.7272C11.9999 22.8653 11.888 22.9772 11.7499 22.9772C11.6118 22.9772 11.4999 22.8653 11.4999 22.7272V15.7272C11.4999 15.5891 11.6118 15.4772 11.7499 15.4772Z" fill="black"/>
<path d="M15.4999 13.7272C15.4999 13.5891 15.388 13.4772 15.2499 13.4772C15.1118 13.4772 14.9999 13.5891 14.9999 13.7272V20.7272C14.9999 20.8653 15.1118 20.9772 15.2499 20.9772C15.388 20.9772 15.4999 20.8653 15.4999 20.7272V13.7272Z" fill="black"/>
</svg>
