<svg width="24" height="24" viewBox="0 0 24 24" fill="none" xmlns="http://www.w3.org/2000/svg">
<path d="M8.51028 1.28752C9.62992 2.00485 10.4456 3.15761 10.7176 4.50753C9.10557 4.96159 7.71459 5.94084 6.74043 7.24609C5.06802 7.3675 3.55857 8.07647 2.41754 9.16753C2.10683 8.87946 1.83286 8.55246 1.60344 8.19436L1.58203 8.16115C1.5039 8.04026 1.40567 7.88826 1.36596 7.71403C1.25199 7.21399 1.53512 6.70844 2.02104 6.54436C2.14099 6.50386 2.26755 6.4981 2.35729 6.49609C2.4551 6.49389 2.57911 6.49639 2.72329 6.49928L2.73422 6.4995C2.76149 6.50005 2.78883 6.50032 2.81624 6.50032C5.02538 6.50032 6.81624 4.70946 6.81624 2.50032C6.81624 2.47291 6.81596 2.44557 6.81542 2.41831L6.8152 2.40743C6.8123 2.26323 6.80981 2.13919 6.812 2.04137C6.81401 1.95164 6.81978 1.82508 6.86028 1.70512C7.02436 1.21921 7.52991 0.936073 8.02995 1.05004C8.20418 1.08975 8.35618 1.18799 8.47706 1.26611L8.51028 1.28752Z" fill="black"/>
<path fill-rule="evenodd" clip-rule="evenodd" d="M7.55277 8.73545C8.58828 6.93874 10.5297 5.72749 12.7546 5.72749C15.7344 5.72749 18.2065 7.8994 18.6748 10.7468C20.963 10.9587 22.7546 12.8839 22.7546 15.2275C22.7546 17.7128 20.7399 19.7275 18.2546 19.7275H17.0008L17.0008 13.7275C17.0008 12.761 16.2173 11.9775 15.2508 11.9775C14.2843 11.9775 13.5008 12.761 13.5008 13.7275L13.5008 15.7275C13.5008 14.761 12.7173 13.9775 11.7508 13.9775C10.7843 13.9775 10.0008 14.761 10.0008 15.7275V13.7275C10.0008 12.761 9.21726 11.9775 8.25076 11.9775C7.28426 11.9775 6.50076 12.761 6.50076 13.7275V19.6763C3.81985 19.3088 1.75458 17.0093 1.75458 14.2275C1.75458 11.1899 4.21701 8.72749 7.25458 8.72749C7.35457 8.72749 7.45399 8.73016 7.55277 8.73545ZM18.2546 10.7275L18.2531 10.7275L18.2545 11.2028L18.2546 10.7275Z" fill="black"/>
<path d="M8.25076 12.9775C8.66498 12.9775 9.00076 13.3132 9.00076 13.7275L9.00076 20.7275C9.00076 21.1417 8.66497 21.4775 8.25076 21.4775C7.83655 21.4775 7.50076 21.1417 7.50076 20.7275L7.50076 13.7275C7.50076 13.3132 7.83655 12.9775 8.25076 12.9775Z" fill="black"/>
<path d="M11.7508 14.9775C12.165 14.9775 12.5008 15.3132 12.5008 15.7275L12.5008 22.7275C12.5008 23.1417 12.165 23.4775 11.7508 23.4775C11.3365 23.4775 11.0008 23.1417 11.0008 22.7275L11.0008 15.7275C11.0008 15.3132 11.3365 14.9775 11.7508 14.9775Z" fill="black"/>
<path d="M16.0008 13.7275C16.0008 13.3132 15.665 12.9775 15.2508 12.9775C14.8365 12.9775 14.5008 13.3132 14.5008 13.7275L14.5008 20.7275C14.5008 21.1417 14.8365 21.4775 15.2508 21.4775C15.665 21.4775 16.0008 21.1417 16.0008 20.7275L16.0008 13.7275Z" fill="black"/>
</svg>
