<svg width="24" height="24" viewBox="0 0 24 24" fill="none" xmlns="http://www.w3.org/2000/svg">
<path d="M8.50979 1.28801C9.76507 2.09224 10.6383 3.44381 10.7917 5.0069C9.23744 5.46007 7.90755 6.43754 7.00578 7.73264C5.38151 7.79365 3.90973 8.45065 2.80278 9.4913C2.33019 9.13394 1.92318 8.69468 1.60295 8.19485L1.58154 8.16164C1.50342 8.04075 1.40518 7.88875 1.36547 7.71452C1.2515 7.21448 1.53464 6.70893 2.02055 6.54485C2.14051 6.50435 2.26706 6.49858 2.3568 6.49657C2.45456 6.49438 2.57851 6.49687 2.72261 6.49976L2.73374 6.49999C2.761 6.50053 2.78834 6.50081 2.81575 6.50081C5.02489 6.50081 6.81575 4.70995 6.81575 2.50081C6.81575 2.4734 6.81547 2.44606 6.81493 2.41879L6.81471 2.40792C6.81181 2.26372 6.80932 2.13968 6.81151 2.04186C6.81353 1.95212 6.81929 1.82556 6.85979 1.70561C7.02387 1.2197 7.52942 0.936561 8.02946 1.05053C8.20369 1.09024 8.35569 1.18847 8.47658 1.2666L8.50979 1.28801Z" fill="black"/>
<path fill-rule="evenodd" clip-rule="evenodd" d="M7.55228 8.73594C8.58779 6.93923 10.5292 5.72797 12.7541 5.72797C15.7339 5.72798 18.206 7.89989 18.6743 10.7473C20.9625 10.9592 22.7541 12.8844 22.7541 15.228C22.7541 17.0669 21.6511 18.6481 20.0706 19.3463L17.2865 14.7062C16.8603 13.9958 15.9389 13.7655 15.2285 14.1917C14.5182 14.6179 14.2878 15.5393 14.7141 16.2497L16.801 19.728H15.5135L12.8026 14.9839C12.3916 14.2647 11.4753 14.0148 10.756 14.4258C10.0368 14.8368 9.78687 15.7531 10.1979 16.4724L12.0582 19.728H11.2485L8.27472 14.937C7.83784 14.2332 6.91308 14.0167 6.20921 14.4536C5.50535 14.8905 5.28893 15.8153 5.72581 16.5191L7.71755 19.728H7.25409C4.21652 19.728 1.75409 17.2655 1.75409 14.228C1.75409 11.1904 4.21652 8.72798 7.25409 8.72798C7.35409 8.72798 7.45351 8.73065 7.55228 8.73594ZM18.2541 10.728L18.2526 10.728L18.254 11.2033L18.2541 10.728Z" fill="black"/>
<path d="M6.73658 15.3032C6.9712 15.1576 7.27946 15.2297 7.42509 15.4643L11.7412 22.4179C11.8868 22.6526 11.8147 22.9608 11.58 23.1064C11.3454 23.2521 11.0372 23.1799 10.8915 22.9453L6.57545 15.9917C6.42982 15.7571 6.50196 15.4488 6.73658 15.3032Z" fill="black"/>
<path d="M11.2522 15.294C11.4919 15.157 11.7974 15.2403 11.9344 15.48L15.9344 22.48C16.0714 22.7198 15.9881 23.0252 15.7483 23.1622C15.5086 23.2992 15.2031 23.2159 15.0661 22.9762L11.0661 15.9762C10.9291 15.7364 11.0124 15.431 11.2522 15.294Z" fill="black"/>
<path d="M16.429 15.2207C16.287 14.9839 15.9798 14.9071 15.743 15.0492C15.5063 15.1912 15.4295 15.4984 15.5715 15.7352L19.9419 23.0191C20.084 23.2559 20.3911 23.3327 20.6279 23.1906C20.8647 23.0486 20.9415 22.7414 20.7994 22.5046L16.429 15.2207Z" fill="black"/>
</svg>
