<svg width="24" height="24" viewBox="0 0 24 24" fill="none" xmlns="http://www.w3.org/2000/svg">
<path d="M11.9813 2.73527C12.4364 2.26678 13.0585 1.95806 13.7613 1.90893C15.2764 1.803 16.5904 2.94535 16.6964 4.46043C16.75 5.22732 16.5308 5.94942 15.9691 6.48241C15.4044 7.0182 14.4596 7.39493 12.9999 7.39493C11.4857 7.39493 9.34192 7.4848 7.58706 7.57394C5.50421 7.67974 3.45096 8.08594 1.47532 8.74448L1.42101 8.76258C1.29003 8.80625 1.21924 8.94783 1.2629 9.07881C1.30656 9.2098 1.44814 9.28059 1.57912 9.23693L1.63344 9.21882C3.56909 8.57361 5.57773 8.17665 7.61243 8.0733C9.36699 7.98418 11.4996 7.89493 12.9999 7.89493C14.5401 7.89493 15.6261 7.4971 16.3132 6.84513C17.0033 6.19035 17.2571 5.31149 17.1952 4.42556C17.07 2.635 15.5169 1.28496 13.7264 1.41015C12.8962 1.46819 12.1602 1.83355 11.6227 2.38686C11.5265 2.48589 11.5287 2.64417 11.6278 2.74038C11.7268 2.83659 11.8851 2.8343 11.9813 2.73527Z" fill="black"/>
<path d="M1.38829 13.7761C4.05352 12.4435 6.99242 11.7498 9.97223 11.7498L13.0001 11.7498V12.2498L9.97223 12.2498C7.07004 12.2498 4.2077 12.9255 1.6119 14.2234C1.4884 14.2851 1.33824 14.2351 1.27649 14.1116C1.21474 13.9881 1.2648 13.8379 1.38829 13.7761Z" fill="black"/>
<path d="M13.0001 11.7498L17.9999 11.7498C19.7904 11.7498 21.107 12.208 21.9788 12.9847C22.8535 13.7639 23.2501 14.8368 23.2501 15.9998C23.2501 18.347 21.3473 20.2498 19.0001 20.2498C16.6529 20.2498 14.7501 18.347 14.7501 15.9998C14.7501 15.8617 14.862 15.7498 15.0001 15.7498C15.1382 15.7498 15.2501 15.8617 15.2501 15.9998C15.2501 18.0708 16.929 19.7498 19.0001 19.7498C21.0712 19.7498 22.7501 18.0708 22.7501 15.9998C22.7501 14.9536 22.3966 14.0265 21.6462 13.358C20.8928 12.6869 19.7093 12.2498 17.9999 12.2498L13.0001 12.2498V11.7498Z" fill="black"/>
<path d="M1.8615 18.2917C3.85869 16.9603 6.20392 16.2498 8.60431 16.2498H8.99993C10.5324 16.2498 11.6011 16.5923 12.289 17.1897C12.9828 17.7923 13.2502 18.62 13.2502 19.4998C13.2502 21.2947 11.7951 22.7498 10.0002 22.7498C8.20525 22.7498 6.75018 21.2947 6.75018 19.4998C6.75018 19.3617 6.86211 19.2498 7.00018 19.2498C7.13825 19.2498 7.25018 19.3617 7.25018 19.4998C7.25018 21.0185 8.48139 22.2498 10.0002 22.2498C11.519 22.2498 12.7502 21.0185 12.7502 19.4998C12.7502 18.7227 12.5174 18.0503 11.9611 17.5672C11.3988 17.0788 10.4674 16.7498 8.99993 16.7498H8.60431C6.3027 16.7498 4.05396 17.431 2.13885 18.7078C2.02397 18.7844 1.86875 18.7533 1.79216 18.6384C1.71558 18.5235 1.74662 18.3683 1.8615 18.2917Z" fill="black"/>
</svg>
