<svg width="25" height="25" viewBox="0 0 25 25" fill="none" xmlns="http://www.w3.org/2000/svg">
<path d="M0 8.125C-2.71588e-08 7.50368 0.50368 7 1.125 7H2.36029C2.98161 7 3.48529 7.50368 3.48529 8.125C3.48529 8.74632 2.98161 9.25 2.36029 9.25H1.125C0.503679 9.25 2.71588e-08 8.74632 0 8.125Z" fill="black"/>
<path d="M9.25 1.125C9.25 0.503679 8.74632 -2.71588e-08 8.125 0C7.50368 2.71588e-08 7 0.503679 7 1.125V2.36029C7 2.98161 7.50368 3.48529 8.125 3.48529C8.74632 3.48529 9.25 2.98162 9.25 2.36029V1.125Z" fill="black"/>
<path d="M4.375 8.125C4.375 8.33092 4.3916 8.53297 4.42353 8.72987C5.1395 8.40988 5.91687 8.20258 6.73308 8.13054C7.72289 6.84411 9.1095 5.87539 10.7113 5.40952C10.0384 4.76851 9.12767 4.375 8.125 4.375C6.05393 4.375 4.375 6.05393 4.375 8.125Z" fill="black"/>
<path d="M11.986 5.15308C12.1824 5.13053 12.3811 5.11534 12.5818 5.10777C12.7333 5.05346 12.8755 4.96562 12.9968 4.84426L13.8703 3.97078C14.3097 3.53143 14.3097 2.81912 13.8703 2.37978C13.431 1.94044 12.7187 1.94044 12.2793 2.37978L11.4058 3.25327C10.9665 3.69261 10.9665 4.40492 11.4058 4.84426C11.5705 5.00889 11.7734 5.11183 11.986 5.15308Z" fill="black"/>
<path d="M2.37968 2.37978C2.81902 1.94045 3.53133 1.94045 3.97067 2.37978L4.84416 3.25327C5.2835 3.69261 5.2835 4.40492 4.84416 4.84426C4.40482 5.2836 3.69251 5.2836 3.25317 4.84426L2.37968 3.97077C1.94034 3.53143 1.94034 2.81912 2.37968 2.37978Z" fill="black"/>
<path fill-rule="evenodd" clip-rule="evenodd" d="M7.67701 9.86013C8.71252 8.06342 10.6539 6.85217 12.8788 6.85217C15.8587 6.85217 18.3307 9.02408 18.799 11.8715C21.0873 12.0834 22.8788 14.0086 22.8788 16.3522C22.8788 18.8374 20.8641 20.8522 18.3788 20.8522H7.37882C4.34125 20.8522 1.87882 18.3897 1.87882 15.3522C1.87882 12.3146 4.34125 9.85217 7.37882 9.85217C7.47881 9.85217 7.57823 9.85485 7.67701 9.86013ZM18.3788 11.8522L18.3774 11.8522L18.3787 12.3275L18.3788 11.8522Z" fill="black"/>
</svg>
