<svg width="24" height="24" viewBox="0 0 24 24" fill="none" xmlns="http://www.w3.org/2000/svg">
<path fill-rule="evenodd" clip-rule="evenodd" d="M6.70769 7.10173C7.88956 5.29691 9.93137 4.10156 12.2538 4.10156C15.3834 4.10156 18.0053 6.27095 18.6991 9.18857C21.078 9.63217 22.8788 11.7191 22.8788 14.2266C22.8788 17.057 20.5842 19.3516 17.7538 19.3516H6.75378C3.37104 19.3516 0.628784 16.6093 0.628784 13.2266C0.628784 9.8592 3.34617 7.12651 6.70769 7.10173ZM12.2538 6.35156C10.5941 6.35156 9.14845 7.27536 8.40605 8.64215C8.14263 9.12712 7.61836 9.40858 7.07176 9.36436C6.96711 9.3559 6.86107 9.35156 6.75378 9.35156C4.61368 9.35156 2.87878 11.0865 2.87878 13.2266C2.87878 15.3667 4.61368 17.1016 6.75378 17.1016H17.7538C19.3416 17.1016 20.6288 15.8144 20.6288 14.2266C20.6288 12.6387 19.3416 11.3516 17.7538 11.3516C17.1527 11.3516 16.6641 10.8922 16.6093 10.3097C16.4001 8.08957 14.5292 6.35156 12.2538 6.35156ZM17.7538 10.2019V9.10156C17.7527 9.10156 17.7516 9.10156 17.7505 9.10157L17.7538 10.2019Z" fill="black"/>
</svg>
