<svg width="24" height="24" viewBox="0 0 24 24" fill="none" xmlns="http://www.w3.org/2000/svg">
<path d="M0.75 8.00024C0.75 7.86217 0.861928 7.75024 1 7.75024H2.23529C2.37336 7.75025 2.48529 7.86217 2.48529 8.00025C2.48529 8.13832 2.37336 8.25025 2.23529 8.25024H0.999999C0.861928 8.25024 0.75 8.13832 0.75 8.00024Z" fill="black"/>
<path d="M8 0.750244C8.13807 0.750244 8.25 0.862173 8.25 1.00024V2.23554C8.25 2.37361 8.13807 2.48554 8 2.48554C7.86193 2.48554 7.75 2.37361 7.75 2.23554V1.00024C7.75 0.862173 7.86193 0.750244 8 0.750244Z" fill="black"/>
<path d="M13.1266 3.2273C13.2242 3.12967 13.2242 2.97138 13.1266 2.87375C13.029 2.77612 12.8707 2.77612 12.773 2.87375L11.8996 3.74723C11.8019 3.84486 11.8019 4.00315 11.8996 4.10078C11.9972 4.19842 12.1555 4.19842 12.2531 4.10078L13.1266 3.2273Z" fill="black"/>
<path d="M2.8734 2.87375C2.97103 2.77612 3.12932 2.77612 3.22695 2.87375L4.10044 3.74723C4.19807 3.84486 4.19807 4.00315 4.10044 4.10078C4.00281 4.19842 3.84452 4.19842 3.74689 4.10078L2.8734 3.2273C2.77577 3.12967 2.77577 2.97138 2.8734 2.87375Z" fill="black"/>
<path fill-rule="evenodd" clip-rule="evenodd" d="M4.64233 9.672C3.06565 10.5778 2.0038 12.2786 2.0038 14.2274C2.0038 17.1269 4.35431 19.4774 7.2538 19.4774H10.5252C10.4916 19.3127 10.4915 19.1425 10.5252 18.9774H7.2538C4.63045 18.9774 2.5038 16.8508 2.5038 14.2274C2.5038 11.6041 4.63045 9.47744 7.2538 9.47744C7.38466 9.47744 7.51424 9.48273 7.64233 9.49309C7.8452 9.5095 8.03966 9.40492 8.13717 9.22539C9.02652 7.58806 10.7606 6.47744 12.7538 6.47744C15.485 6.47744 17.7293 8.56318 17.9804 11.2285C17.9935 11.3678 18.1104 11.4775 18.2538 11.4774C20.3249 11.4774 22.0038 13.1564 22.0038 15.2274C22.0038 16.422 21.4452 17.4862 20.575 18.1729L20.8341 18.6048C21.8491 17.8281 22.5038 16.6042 22.5038 15.2274C22.5038 12.948 20.7093 11.0877 18.4559 10.9822C18.0904 8.15849 15.6769 5.97744 12.7538 5.97744C12.242 5.97744 11.7459 6.0443 11.2737 6.16976C10.6318 5.02438 9.40633 4.25024 8 4.25024C5.92893 4.25024 4.25 5.92918 4.25 8.00024C4.25 8.60095 4.39124 9.16867 4.64233 9.672ZM4.75 8.00024C4.75 6.20532 6.20507 4.75024 8 4.75024C9.18147 4.75024 10.2157 5.38068 10.7846 6.3235C9.45987 6.80638 8.36279 7.76246 7.6978 8.98673C7.69509 8.99174 7.68909 8.99524 7.68265 8.99472C7.54116 8.98327 7.39814 8.97744 7.2538 8.97744C6.48135 8.97744 5.74787 9.14427 5.08741 9.44385C4.87143 9.00893 4.75 8.51877 4.75 8.00024Z" fill="black"/>
<path d="M18.4399 19.4734L18.1423 18.9774H16.2247C16.2583 19.1421 16.2585 19.3123 16.2248 19.4774H18.2538C18.3161 19.4774 18.3782 19.4761 18.4399 19.4734Z" fill="black"/>
<path d="M6.86126 14.0194C6.97614 13.9429 7.13136 13.9739 7.20795 14.0888L8.70798 16.3386C8.78457 16.4535 8.75353 16.6087 8.63865 16.6853C8.52377 16.7619 8.36856 16.7309 8.29196 16.616L6.79193 14.3661C6.71534 14.2513 6.74638 14.096 6.86126 14.0194Z" fill="black"/>
<path d="M12.6148 15.5172C12.7309 15.4426 12.8856 15.4762 12.9603 15.5924L15.2103 19.0924C15.2597 19.1693 15.2632 19.2671 15.2194 19.3473C15.1756 19.4276 15.0914 19.4775 15 19.4775H12.1974L13.9629 22.3464C14.0353 22.464 13.9986 22.618 13.881 22.6903C13.7634 22.7627 13.6094 22.726 13.5371 22.6084L11.5371 19.3586C11.4896 19.2814 11.4876 19.1847 11.5317 19.1056C11.5759 19.0265 11.6594 18.9775 11.75 18.9775H14.5421L12.5397 15.8627C12.465 15.7466 12.4987 15.5919 12.6148 15.5172Z" fill="black"/>
<path d="M17.7144 15.3488C17.6433 15.2304 17.4898 15.192 17.3714 15.2631C17.253 15.3341 17.2146 15.4877 17.2856 15.6061L20.0967 20.2912C20.1678 20.4096 20.3213 20.448 20.4397 20.377C20.5581 20.3059 20.5965 20.1524 20.5255 20.034L17.7144 15.3488Z" fill="black"/>
</svg>
