<svg width="24" height="24" viewBox="0 0 24 24" fill="none" xmlns="http://www.w3.org/2000/svg">
<path d="M0 8C-2.41412e-08 7.44772 0.447715 7 1 7L2.23529 7C2.78758 7 3.23529 7.44772 3.23529 8C3.23529 8.55229 2.78758 9 2.23529 9H1C0.447715 9 2.41412e-08 8.55229 0 8Z" fill="black"/>
<path d="M8 0C8.55229 -2.41411e-08 9 0.447714 9 1V2.23529C9 2.78758 8.55229 3.23529 8 3.23529C7.44772 3.23529 7 2.78758 7 2.23529V1C7 0.447716 7.44772 2.41412e-08 8 0Z" fill="black"/>
<path d="M13.6569 3.75739C14.0475 3.36686 14.0475 2.7337 13.6569 2.34317C13.2664 1.95265 12.6332 1.95265 12.2427 2.34317L11.3692 3.21666C10.9787 3.60718 10.9787 4.24035 11.3692 4.63087C11.7598 5.02139 12.3929 5.02139 12.7834 4.63087L13.6569 3.75739Z" fill="black"/>
<path fill-rule="evenodd" clip-rule="evenodd" d="M11.6196 5.32584C10.7999 4.21815 9.48381 3.5 8 3.5C5.51472 3.5 3.5 5.51472 3.5 8C3.5 8.48169 3.57568 8.94571 3.71581 9.3808C2.22326 10.4723 1.2538 12.2365 1.2538 14.2272C1.2538 17.5409 3.94009 20.2272 7.2538 20.2272H10.0179C9.66634 19.6184 9.65979 18.8678 10.0041 18.2517L10.018 18.2272H9.46818C8.85147 18.5693 8.11877 18.5519 7.53114 18.2272H7.2538C5.04466 18.2272 3.2538 16.4363 3.2538 14.2272C3.2538 12.0181 5.04466 10.2272 7.2538 10.2272C7.36446 10.2272 7.47385 10.2317 7.58185 10.2404C8.07935 10.2807 8.55651 10.0245 8.79623 9.58312C9.55961 8.17768 11.0464 7.2272 12.7538 7.2272C15.0944 7.2272 17.0186 9.01488 17.2337 11.2986C17.2826 11.8178 17.7181 12.2273 18.2538 12.2272C19.9107 12.2272 21.2538 13.5703 21.2538 15.2272C21.2538 15.8663 21.0539 16.4587 20.7133 16.9454L21.7983 18.7537C22.6979 17.8496 23.2538 16.6033 23.2538 15.2272C23.2538 12.7528 21.4564 10.6982 19.096 10.2978C18.4444 7.39524 15.8528 5.2272 12.7538 5.2272C12.3669 5.2272 11.9879 5.26101 11.6196 5.32584ZM5.54489 8.47407C5.51543 8.32058 5.5 8.16209 5.5 8C5.5 6.61929 6.61929 5.5 8 5.5C8.5963 5.5 9.14383 5.70877 9.5735 6.05719C8.64063 6.58161 7.85054 7.32938 7.27577 8.22724L7.2538 8.2272C6.66008 8.2272 6.08649 8.31344 5.54489 8.47407ZM18.2509 10.2272L18.2538 10.2272L18.2538 11.2025L18.2509 10.2272Z" fill="black"/>
<path d="M2.34307 2.34317C2.7336 1.95265 3.36676 1.95265 3.75729 2.34317L4.63077 3.21666C5.02129 3.60718 5.02129 4.24035 4.63077 4.63087C4.24025 5.02139 3.60708 5.02139 3.21656 4.63087L2.34307 3.75739C1.95255 3.36686 1.95255 2.7337 2.34307 2.34317Z" fill="black"/>
<path d="M18.0176 20.2272L16.8176 18.2272H16.732C17.0797 18.8291 17.0907 19.5715 16.7554 20.1856C16.7478 20.1996 16.74 20.2135 16.7321 20.2272H18.0176Z" fill="black"/>
<path d="M6.44521 13.3951C6.90473 13.0888 7.52561 13.2129 7.83197 13.6724L9.332 15.9223C9.63837 16.3818 9.51422 17.0027 9.0547 17.3091C8.59518 17.6154 7.97431 17.4913 7.66794 17.0318L6.16791 14.7819C5.86154 14.3224 5.9857 13.7015 6.44521 13.3951Z" fill="black"/>
<path d="M12.2092 14.8861C12.6738 14.5874 13.2925 14.7219 13.5912 15.1865L15.8412 18.6865C16.039 18.9942 16.053 19.3854 15.8777 19.7064C15.7024 20.0275 15.3658 20.2273 15 20.2273H13.5396L14.6016 21.953C14.8911 22.4234 14.7445 23.0393 14.2741 23.3288C13.8037 23.6182 13.1878 23.4716 12.8983 23.0012L10.8983 19.7514C10.7085 19.4428 10.7003 19.0557 10.877 18.7395C11.0538 18.4232 11.3877 18.2273 11.75 18.2273H13.1683L11.9088 16.268C11.6102 15.8034 11.7447 15.1847 12.2092 14.8861Z" fill="black"/>
<path d="M18.3575 14.9627C18.0733 14.4891 17.4591 14.3355 16.9855 14.6197C16.5119 14.9038 16.3584 15.5181 16.6425 15.9917L19.4536 20.6768C19.7378 21.1504 20.352 21.304 20.8256 21.0198C21.2992 20.7357 21.4527 20.1214 21.1686 19.6478L18.3575 14.9627Z" fill="black"/>
</svg>
