<svg width="24" height="24" viewBox="0 0 24 24" fill="none" xmlns="http://www.w3.org/2000/svg">
<path fill-rule="evenodd" clip-rule="evenodd" d="M7.27587 7.22734C8.42973 5.42489 10.4513 4.2273 12.7539 4.22729C15.8529 4.22729 18.4445 6.39533 19.0961 9.29792C21.4565 9.69828 23.2539 11.7529 23.2539 14.2273C23.2539 16.9887 21.0153 19.2273 18.2539 19.2273H16.1821C16.2309 19.1406 16.2749 19.0503 16.3136 18.9568C16.5463 18.395 16.5617 17.7821 16.3815 17.2273H18.2539C19.9108 17.2273 21.2539 15.8841 21.2539 14.2273C21.2539 12.5704 19.9108 11.2273 18.2539 11.2273C17.7182 11.2274 17.2827 10.8179 17.2338 10.2987C17.0187 8.01498 15.0945 6.22729 12.7539 6.22729C11.0466 6.22729 9.55972 7.17778 8.79633 8.58322C8.55661 9.02455 8.07946 9.28075 7.58196 9.2405C7.47396 9.23176 7.36456 9.2273 7.25391 9.2273C5.04477 9.2273 3.25391 11.0182 3.25391 13.2273C3.25391 15.4364 5.04477 17.2273 7.25391 17.2273H8.62632C8.40786 17.8987 8.48605 18.6243 8.82571 19.2273H7.25391C3.9402 19.2273 1.25391 16.541 1.25391 13.2273C1.25391 9.91359 3.9402 7.2273 7.25391 7.2273L7.27587 7.22734ZM18.2539 9.22729L18.251 9.2273L18.2538 10.2026L18.2539 9.22729Z" fill="black"/>
<path d="M11.211 13.793C10.8205 13.4025 10.1873 13.4025 9.7968 13.793C9.40628 14.1835 9.40628 14.8167 9.7968 15.2072L11.5897 17.0001H11.0039C10.5994 17.0001 10.2348 17.2437 10.08 17.6174C9.92525 17.9911 10.0108 18.4212 10.2968 18.7072L13.7968 22.2072C14.1873 22.5977 14.8205 22.5977 15.211 22.2072C15.6015 21.8167 15.6015 21.1835 15.211 20.793L13.4181 19.0001H14.0039C14.4084 19.0001 14.773 18.7564 14.9278 18.3828C15.0826 18.0091 14.997 17.579 14.711 17.293L11.211 13.793Z" fill="black"/>
</svg>
