<svg width="24" height="24" viewBox="0 0 24 24" fill="none" xmlns="http://www.w3.org/2000/svg">
<path fill-rule="evenodd" clip-rule="evenodd" d="M2.86129 10.1408C1.86392 11.2121 1.2538 12.6489 1.2538 14.2281C1.2538 17.5418 3.9401 20.2281 7.2538 20.2281H10.0179C9.66634 19.6193 9.65979 18.8687 10.0041 18.2526L10.018 18.2281H9.46818C8.85147 18.5701 8.11877 18.5527 7.53114 18.2281H7.2538C5.04466 18.2281 3.2538 16.4372 3.2538 14.2281C3.2538 12.0189 5.04466 10.2281 7.2538 10.2281C7.36446 10.2281 7.47386 10.2326 7.58185 10.2413C8.07935 10.2815 8.55651 10.0253 8.79623 9.58401C9.55962 8.17857 11.0464 7.22809 12.7538 7.22809C15.0944 7.22809 17.0186 9.01577 17.2337 11.2995C17.2826 11.8187 17.7181 12.2282 18.2538 12.2281C19.9107 12.2281 21.2538 13.5712 21.2538 15.2281C21.2538 15.8672 21.054 16.4596 20.7133 16.9463L21.7983 18.7546C22.6979 17.8505 23.2538 16.6042 23.2538 15.2281C23.2538 12.7537 21.4564 10.6991 19.096 10.2987C18.4444 7.39612 15.8528 5.22809 12.7538 5.22809C12.2591 5.22809 11.7773 5.28337 11.3143 5.38807C11.2761 3.48736 10.2729 1.82407 8.77923 0.867078L8.74867 0.847181C8.63808 0.774709 8.40844 0.624227 8.14029 0.56311C7.39014 0.392135 6.63192 0.816778 6.38578 1.54572C6.31874 1.74428 6.31342 1.93835 6.31135 2.03074C6.30892 2.13947 6.3116 2.27307 6.31438 2.41093L6.31474 2.4289C6.31522 2.45282 6.31546 2.47682 6.31546 2.50089C6.31546 4.43388 4.74846 6.00088 2.81546 6.00089C2.79139 6.00089 2.7674 6.00064 2.74348 6.00016L2.72555 5.9998C2.58769 5.99703 2.45405 5.99434 2.34531 5.99677C2.25293 5.99885 2.05886 6.00416 1.8603 6.07121C1.13135 6.31735 0.706711 7.07557 0.877685 7.82571C0.938802 8.09386 1.08928 8.3235 1.16176 8.4341L1.18165 8.46466C1.61259 9.13727 2.18674 9.71041 2.86129 10.1408ZM4.67255 8.81017C4.16614 8.63538 3.71218 8.34751 3.3408 7.97612C5.95903 7.72802 8.0426 5.64445 8.2907 3.02622C8.92482 3.66035 9.31546 4.53519 9.31546 5.50088C9.31546 5.76302 9.28664 6.01842 9.232 6.2641C8.44732 6.77094 7.77901 7.44201 7.27577 8.22813L7.2538 8.22809C6.32971 8.22809 5.45441 8.437 4.67255 8.81017ZM18.2509 10.2281L18.2538 10.2281V11.2034L18.2509 10.2281Z" fill="black"/>
<path d="M18.0176 20.2281L16.8176 18.2281H16.732C17.0797 18.83 17.0907 19.5724 16.7554 20.1865C16.7478 20.2005 16.74 20.2143 16.7321 20.2281H18.0176Z" fill="black"/>
<path d="M6.44522 13.396C6.90474 13.0897 7.52561 13.2138 7.83198 13.6733L9.33201 15.9232C9.63838 16.3827 9.51422 17.0036 9.0547 17.31C8.59519 17.6163 7.97431 17.4922 7.66795 17.0327L6.16791 14.7828C5.86155 14.3233 5.9857 13.7024 6.44522 13.396Z" fill="black"/>
<path d="M12.2092 14.887C12.6738 14.5883 13.2925 14.7228 13.5912 15.1874L15.8412 18.6874C16.039 18.9951 16.053 19.3863 15.8777 19.7073C15.7024 20.0284 15.3658 20.2281 15 20.2281H13.5396L14.6016 21.9539C14.8911 22.4243 14.7445 23.0402 14.2741 23.3297C13.8037 23.6191 13.1878 23.4725 12.8983 23.0021L10.8983 19.7523C10.7085 19.4437 10.7003 19.0566 10.877 18.7404C11.0538 18.4241 11.3877 18.2281 11.75 18.2281H13.1683L11.9088 16.2689C11.6102 15.8043 11.7447 15.1856 12.2092 14.887Z" fill="black"/>
<path d="M18.3575 14.9636C18.0734 14.49 17.4591 14.3364 16.9855 14.6206C16.5119 14.9047 16.3584 15.519 16.6425 15.9926L19.4536 20.6777C19.7378 21.1513 20.352 21.3049 20.8256 21.0207C21.2992 20.7366 21.4527 20.1223 21.1686 19.6487L18.3575 14.9636Z" fill="black"/>
</svg>
