<svg width="24" height="24" viewBox="0 0 24 24" fill="none" xmlns="http://www.w3.org/2000/svg">
<path fill-rule="evenodd" clip-rule="evenodd" d="M2.86154 10.1408C1.86416 11.2121 1.25405 12.6489 1.25405 14.2281C1.25405 17.5418 3.94034 20.2281 7.25405 20.2281H7.43941L6.09153 18.0565C4.44936 17.5585 3.25405 16.0329 3.25405 14.2281C3.25405 12.0189 5.04491 10.2281 7.25405 10.2281C7.3647 10.2281 7.4741 10.2326 7.5821 10.2413C8.0796 10.2815 8.55675 10.0253 8.79647 9.58401C9.55986 8.17857 11.0467 7.22809 12.754 7.22809C15.0946 7.22809 17.0188 9.01577 17.234 11.2995C17.2829 11.8187 17.7183 12.2282 18.254 12.2281C19.9109 12.2281 21.254 13.5712 21.254 15.2281C21.254 16.3422 20.6467 17.3145 19.745 17.832L20.7743 19.5474C22.2576 18.68 23.254 17.0704 23.254 15.2281C23.254 12.7537 21.4566 10.6991 19.0962 10.2987C18.4446 7.39612 15.853 5.22809 12.754 5.22809C12.2593 5.22809 11.7775 5.28337 11.3146 5.38807C11.2763 3.48736 10.2732 1.82407 8.77948 0.867078L8.74892 0.847181C8.63832 0.774709 8.40868 0.624225 8.14053 0.56311C7.39039 0.392135 6.63217 0.816778 6.38603 1.54572C6.31898 1.74428 6.31366 1.93835 6.3116 2.03074C6.30916 2.13947 6.31185 2.27307 6.31462 2.41093L6.31498 2.4289C6.31546 2.45282 6.31571 2.47682 6.31571 2.50088C6.31571 4.43388 4.7487 6.00088 2.81571 6.00089C2.79164 6.00089 2.76764 6.00064 2.74372 6.00016L2.72579 5.9998C2.58799 5.99703 2.45425 5.99434 2.34556 5.99677C2.25317 5.99884 2.0591 6.00416 1.86054 6.07121C1.1316 6.31734 0.706955 7.07557 0.877929 7.82571C0.939046 8.09386 1.08953 8.3235 1.162 8.4341L1.1819 8.46466C1.61283 9.13727 2.18698 9.71041 2.86154 10.1408ZM4.6728 8.81017C4.16638 8.63538 3.71243 8.34751 3.34104 7.97612C5.95928 7.72802 8.04284 5.64445 8.29094 3.02622C8.92507 3.66035 9.31571 4.53519 9.31571 5.50088C9.31571 5.76302 9.28689 6.01842 9.23225 6.2641C8.44756 6.77094 7.77926 7.44201 7.27602 8.22813L7.25405 8.22809C6.32995 8.22809 5.45465 8.437 4.6728 8.81017ZM18.2511 10.2281L18.254 10.2281V11.2034L18.2511 10.2281Z" fill="black"/>
<path d="M16.5179 20.2281L15.3179 18.2281H15.2322L16.3751 20.2281H16.5179Z" fill="black"/>
<path d="M6.47287 14.8785C6.94212 14.5873 7.55862 14.7315 7.84988 15.2008L12.166 22.1544C12.4572 22.6236 12.3129 23.2401 11.8437 23.5314C11.3745 23.8226 10.758 23.6783 10.4667 23.2091L6.15061 16.2555C5.85935 15.7863 6.00363 15.1698 6.47287 14.8785Z" fill="black"/>
<path d="M11.0041 14.86C11.4836 14.586 12.0945 14.7526 12.3685 15.2321L16.3685 22.2321C16.6425 22.7116 16.4759 23.3225 15.9964 23.5965C15.5168 23.8705 14.906 23.7039 14.632 23.2244L10.632 16.2244C10.358 15.7448 10.5246 15.134 11.0041 14.86Z" fill="black"/>
<path d="M16.8578 14.9635C16.5736 14.4899 15.9594 14.3364 15.4858 14.6205C15.0122 14.9047 14.8586 15.5189 15.1428 15.9925L19.5132 23.2765C19.7973 23.7501 20.4116 23.9036 20.8851 23.6195C21.3587 23.3353 21.5123 22.7211 21.2281 22.2475L16.8578 14.9635Z" fill="black"/>
</svg>
