<svg width="24" height="24" viewBox="0 0 24 24" fill="none" xmlns="http://www.w3.org/2000/svg">
<path d="M8.50955 0.288005C9.8227 1.12933 10.7178 2.5696 10.808 4.22442C9.11254 4.66301 7.64332 5.66092 6.60811 7.00635C5.18449 7.132 3.87905 7.66912 2.81144 8.49802C2.33506 8.13945 1.92495 7.69782 1.6027 7.19485L1.5813 7.16164C1.50317 7.04075 1.40494 6.88875 1.36523 6.71452C1.25126 6.21448 1.53439 5.70893 2.0203 5.54485C2.14026 5.50435 2.26682 5.49858 2.35656 5.49657C2.45435 5.49438 2.57836 5.49687 2.72252 5.49977L2.73349 5.49999C2.76076 5.50053 2.78809 5.50081 2.81551 5.50081C5.02464 5.50081 6.81551 3.70995 6.81551 1.50081C6.81551 1.4734 6.81523 1.44606 6.81468 1.41879L6.81447 1.40792C6.81157 1.26372 6.80908 1.13968 6.81127 1.04186C6.81328 0.952125 6.81904 0.825565 6.85955 0.705608C7.02362 0.219696 7.52918 -0.063439 8.02922 0.0505289C8.20344 0.0902399 8.35544 0.188472 8.47633 0.266599L8.50955 0.288005Z" fill="black"/>
<path fill-rule="evenodd" clip-rule="evenodd" d="M7.55204 8.73594C8.58755 6.93923 10.5289 5.72798 12.7538 5.72798C15.7337 5.72798 18.2057 7.89989 18.674 10.7473C20.9623 10.9592 22.7538 12.8844 22.7538 15.228C22.7538 16.2306 22.4259 17.1566 21.8715 17.9047L19.6438 14.1917C18.9334 13.0078 17.3977 12.6239 16.2138 13.3343C15.6556 13.6692 15.2752 14.1875 15.1035 14.766L14.853 14.3762C14.1063 13.2148 12.5595 12.8785 11.3981 13.6251C10.93 13.926 10.596 14.3569 10.4128 14.8402L9.08005 12.8412C8.31413 11.6924 6.76195 11.382 5.61315 12.1479C4.46435 12.9138 4.15397 14.466 4.91989 15.6148L6.41992 17.8647C7.05692 18.8201 8.23774 19.1956 9.27807 18.8544C9.23424 19.1445 9.24181 19.4404 9.30047 19.728H7.25385C4.21628 19.728 1.75384 17.2655 1.75384 14.228C1.75384 11.1904 4.21628 8.72798 7.25385 8.72798C7.35384 8.72798 7.45326 8.73065 7.55204 8.73594ZM18.2538 10.728L18.2524 10.728L18.2538 11.2033L18.2538 10.728Z" fill="black"/>
<path d="M6.3759 13.2919C6.89286 12.9472 7.59134 13.0869 7.93601 13.6039L9.43604 15.8538C9.7807 16.3707 9.64103 17.0692 9.12407 17.4139C8.60711 17.7585 7.90863 17.6189 7.56397 17.1019L6.06394 14.852C5.71927 14.3351 5.85894 13.6366 6.3759 13.2919Z" fill="black"/>
<path d="M12.1417 14.7817C12.6643 14.4457 13.3604 14.597 13.6963 15.1197L15.9463 18.6197C16.1689 18.9659 16.1846 19.4059 15.9874 19.7671C15.7902 20.1283 15.4116 20.353 15 20.353H13.7633L14.7081 21.8883C15.0338 22.4174 14.8688 23.1104 14.3396 23.436C13.8105 23.7617 13.1176 23.5967 12.7919 23.0675L10.7919 19.8177C10.5783 19.4706 10.5691 19.0351 10.7679 18.6793C10.9668 18.3235 11.3424 18.103 11.75 18.103H12.9394L11.8037 16.3364C11.4677 15.8137 11.619 15.1177 12.1417 14.7817Z" fill="black"/>
<path d="M18.4647 14.8991C18.145 14.3664 17.454 14.1936 16.9212 14.5133C16.3884 14.8329 16.2157 15.524 16.5354 16.0568L19.3464 20.7419C19.6661 21.2747 20.3572 21.4475 20.8899 21.1278C21.4227 20.8081 21.5955 20.1171 21.2758 19.5843L18.4647 14.8991Z" fill="black"/>
</svg>
