<svg width="24" height="24" viewBox="0 0 24 24" fill="none" xmlns="http://www.w3.org/2000/svg">
<path fill-rule="evenodd" clip-rule="evenodd" d="M10.4946 6.4379C10.5569 6.13091 10.5896 5.81317 10.5896 5.48778C10.5896 3.69345 9.59463 2.13187 8.12745 1.32408C7.848 1.17022 7.55665 1.23845 7.35806 1.4088C7.16594 1.57359 7.04977 1.83862 7.07384 2.11846C7.0843 2.24012 7.08965 2.36329 7.08965 2.48778C7.08965 4.83499 5.18686 6.73778 2.83965 6.73778C2.71516 6.73778 2.59198 6.73243 2.47032 6.72197C2.19049 6.6979 1.92546 6.81408 1.76066 7.00619C1.59032 7.20478 1.52209 7.49613 1.67595 7.77558C2.22569 8.77408 3.12456 9.5539 4.20832 9.95022C2.87401 10.9022 2.00402 12.463 2.00402 14.227C2.00402 17.1265 4.35452 19.477 7.25402 19.477H7.85656L7.54621 18.977H7.25402C4.63066 18.977 2.50402 16.8503 2.50402 14.227C2.50402 11.6036 4.63066 9.47697 7.25402 9.47697C7.38488 9.47697 7.51445 9.48225 7.64254 9.49261C7.84541 9.50903 8.03987 9.40445 8.13739 9.22491C9.02673 7.58758 10.7609 6.47697 12.754 6.47697C15.4852 6.47697 17.7295 8.5627 17.9806 11.2281C17.9938 11.3673 18.1106 11.477 18.254 11.477C20.3251 11.477 22.004 13.1559 22.004 15.227C22.004 16.8826 20.9311 18.2876 19.4426 18.7847L19.7054 19.2227C21.3379 18.6296 22.504 17.0644 22.504 15.227C22.504 12.9475 20.7095 11.0872 18.4561 10.9817C18.0906 8.15802 15.6771 5.97697 12.754 5.97697C11.9519 5.97697 11.1881 6.14123 10.4946 6.4379ZM2.14017 7.33173C2.08488 7.39619 2.07513 7.46394 2.11395 7.53443C2.67055 8.54539 3.62616 9.30501 4.76823 9.60159C5.50818 9.2031 6.35469 8.97697 7.25402 8.97697C7.39835 8.97697 7.54137 8.9828 7.68286 8.99424C7.68931 8.99476 7.6953 8.99126 7.69802 8.98626C8.20921 8.04512 8.97576 7.26247 9.90479 6.73144C10.025 6.33808 10.0896 5.92048 10.0896 5.48778C10.0896 3.88296 9.20026 2.48551 7.8863 1.76208C7.8158 1.72327 7.74806 1.73301 7.6836 1.7883C7.61266 1.84915 7.56183 1.95743 7.572 2.07561C7.58369 2.2115 7.58965 2.34897 7.58965 2.48778C7.58965 5.11113 5.463 7.23778 2.83965 7.23778C2.70084 7.23778 2.56337 7.23182 2.42748 7.22013C2.3093 7.20996 2.20102 7.26079 2.14017 7.33173Z" fill="black"/>
<path d="M16.9425 19.477L16.6425 18.977H14.7969L15.0826 19.477H16.9425Z" fill="black"/>
<path d="M12.2033 19.477L11.9175 18.977H10.4886L10.799 19.477H12.2033Z" fill="black"/>
<path d="M6.86837 15.5147C6.98568 15.4418 7.13981 15.4779 7.21262 15.5952L11.5287 22.5488C11.6015 22.6661 11.5655 22.8202 11.4481 22.8931C11.3308 22.9659 11.1767 22.9298 11.1039 22.8125L6.7878 15.8589C6.71499 15.7416 6.75106 15.5875 6.86837 15.5147Z" fill="black"/>
<path d="M11.3762 15.5101C11.496 15.4416 11.6487 15.4832 11.7172 15.6031L15.7172 22.6031C15.7858 22.723 15.7441 22.8757 15.6242 22.9442C15.5043 23.0127 15.3516 22.9711 15.2831 22.8512L11.2831 15.8512C11.2146 15.7313 11.2563 15.5786 11.3762 15.5101Z" fill="black"/>
<path d="M16.2146 15.3483C16.1436 15.2299 15.99 15.1915 15.8716 15.2626C15.7532 15.3336 15.7148 15.4872 15.7859 15.6056L20.1562 22.8895C20.2273 23.0079 20.3808 23.0463 20.4992 22.9753C20.6176 22.9043 20.656 22.7507 20.585 22.6323L16.2146 15.3483Z" fill="black"/>
</svg>
