<svg width="24" height="24" viewBox="0 0 24 24" fill="none" xmlns="http://www.w3.org/2000/svg">
<path d="M0.5 8C0.5 7.72386 0.72386 7.5 1 7.5H2.2353C2.51144 7.5 2.7353 7.72386 2.7353 8C2.7353 8.27614 2.51144 8.5 2.2353 8.5H1C0.723859 8.5 0.5 8.27614 0.5 8Z" fill="black"/>
<path d="M8 0.5C8.27614 0.5 8.5 0.72386 8.5 1V2.2353C8.5 2.51144 8.27614 2.73529 8 2.73529C7.72386 2.73529 7.5 2.51144 7.5 2.2353V1C7.5 0.72386 7.72386 0.5 8 0.5Z" fill="black"/>
<path d="M4.25 8C4.25 8.47191 4.33717 8.92346 4.49628 9.33942C5.26281 8.9798 6.11104 8.76546 7.00552 8.73187C7.97024 7.34637 9.42492 6.32438 11.1201 5.91896C10.4475 4.91269 9.30116 4.25 8 4.25C5.92894 4.25 4.25 5.92893 4.25 8Z" fill="black"/>
<path d="M13.3034 3.40383C13.4986 3.20857 13.4986 2.89199 13.3034 2.69673C13.1081 2.50146 12.7915 2.50147 12.5963 2.69673L11.7228 3.57021C11.5275 3.76547 11.5275 4.08206 11.7228 4.27732C11.918 4.47258 12.2346 4.47258 12.4299 4.27732L13.3034 3.40383Z" fill="black"/>
<path d="M2.69663 2.69673C2.89189 2.50147 3.20847 2.50147 3.40373 2.69673L4.27722 3.57021C4.47248 3.76547 4.47248 4.08206 4.27722 4.27732C4.08196 4.47258 3.76537 4.47258 3.57011 4.27732L2.69663 3.40383C2.50136 3.20857 2.50136 2.89199 2.69663 2.69673Z" fill="black"/>
<path fill-rule="evenodd" clip-rule="evenodd" d="M7.55202 9.73516C8.58754 7.93845 10.5289 6.7272 12.7538 6.7272C15.7337 6.7272 18.2057 8.89912 18.674 11.7466C20.9623 11.9585 22.7538 13.8836 22.7538 16.2272C22.7538 18.7125 20.7391 20.7272 18.2538 20.7272H7.25383C4.21626 20.7272 1.75383 18.2648 1.75383 15.2272C1.75383 12.1896 4.21626 9.7272 7.25383 9.7272C7.35383 9.7272 7.45325 9.72988 7.55202 9.73516ZM18.2538 11.7272L18.2524 11.7272L18.2538 12.2026L18.2538 11.7272Z" fill="black"/>
</svg>
