<svg width="24" height="24" viewBox="0 0 24 24" fill="none" xmlns="http://www.w3.org/2000/svg">
<path d="M10.8155 5.50081L10.8155 5.52199C9.34023 5.98237 8.0913 6.95414 7.2758 8.22803L7.25384 8.22799C5.70433 8.22799 4.292 8.81536 3.22738 9.7796C2.57199 9.38232 2.01531 8.83886 1.6027 8.19485L1.5813 8.16164C1.50317 8.04075 1.40494 7.88875 1.36523 7.71452C1.25126 7.21448 1.53439 6.70893 2.0203 6.54485C2.14026 6.50435 2.26682 6.49858 2.35656 6.49657C2.45436 6.49438 2.57838 6.49687 2.72256 6.49977L2.73349 6.49999C2.76076 6.50053 2.78809 6.50081 2.81551 6.50081C5.02464 6.50081 6.81551 4.70995 6.81551 2.50081C6.81551 2.4734 6.81523 2.44606 6.81468 2.41879L6.81447 2.40792C6.81157 2.26372 6.80908 2.13968 6.81127 2.04186C6.81328 1.95212 6.81904 1.82556 6.85955 1.70561C7.02362 1.21969 7.52918 0.93656 8.02922 1.05053C8.20344 1.09024 8.35544 1.18847 8.47633 1.2666L8.50955 1.28801C9.89531 2.17584 10.8155 3.7307 10.8155 5.50081Z" fill="black"/>
<path d="M6.86128 14.0199C6.97616 13.9433 7.13138 13.9744 7.20797 14.0893L8.708 16.3391C8.7846 16.454 8.75356 16.6092 8.63868 16.6858C8.5238 16.7624 8.36858 16.7314 8.29199 16.6165L6.79196 14.3666C6.71537 14.2518 6.7464 14.0965 6.86128 14.0199Z" fill="black"/>
<path fill-rule="evenodd" clip-rule="evenodd" d="M7.55204 8.73594C8.58755 6.93923 10.5289 5.72798 12.7538 5.72798C15.7337 5.72798 18.2057 7.89989 18.674 10.7473C20.9623 10.9592 22.7538 12.8844 22.7538 15.228C22.7538 16.8753 21.8686 18.316 20.5479 19.1001L18.1432 15.0921C17.93 14.7369 17.4693 14.6218 17.1142 14.8349C16.759 15.048 16.6438 15.5087 16.8569 15.8639L19.1248 19.6437C18.8431 19.699 18.5518 19.728 18.2538 19.728H15.5591C15.597 19.6856 15.6304 19.6386 15.6583 19.5875C15.7898 19.3467 15.7793 19.0533 15.6309 18.8225L13.3809 15.3225C13.1569 14.9741 12.6929 14.8732 12.3444 15.0972C11.996 15.3212 11.8951 15.7852 12.1191 16.1336L13.6263 18.4781H11.75C11.4783 18.4781 11.2278 18.625 11.0953 18.8622C10.9628 19.0994 10.9689 19.3898 11.1113 19.6212L11.177 19.728H7.25384C4.21628 19.728 1.75384 17.2655 1.75384 14.228C1.75384 11.1904 4.21628 8.72798 7.25384 8.72798C7.35384 8.72798 7.45326 8.73065 7.55204 8.73594ZM18.2538 10.728L18.2524 10.728L18.2538 11.2033L18.2538 10.728ZM7.62399 13.8119C7.39422 13.4673 6.92856 13.3742 6.58392 13.604C6.23928 13.8337 6.14617 14.2994 6.37595 14.644L7.87598 16.8939C8.10575 17.2386 8.57141 17.3317 8.91605 17.1019C9.26069 16.8721 9.3538 16.4065 9.12402 16.0618L7.62399 13.8119Z" fill="black"/>
<path d="M12.6148 15.5177C12.731 15.4431 12.8856 15.4767 12.9603 15.5928L15.2103 19.0928C15.2598 19.1698 15.2633 19.2676 15.2194 19.3478C15.1756 19.4281 15.0915 19.478 15 19.478H12.1974L13.9629 22.3469C14.0353 22.4645 13.9986 22.6185 13.881 22.6908C13.7634 22.7632 13.6095 22.7265 13.5371 22.6089L11.5371 19.3591C11.4896 19.2819 11.4876 19.1852 11.5318 19.1061C11.576 19.027 11.6594 18.978 11.75 18.978H14.5421L12.5397 15.8632C12.4651 15.7471 12.4987 15.5924 12.6148 15.5177Z" fill="black"/>
<path d="M17.7144 15.3493C17.6434 15.2309 17.4898 15.1925 17.3714 15.2636C17.253 15.3346 17.2146 15.4882 17.2857 15.6066L20.0967 20.2917C20.1678 20.4101 20.3213 20.4485 20.4397 20.3775C20.5581 20.3064 20.5965 20.1529 20.5255 20.0345L17.7144 15.3493Z" fill="black"/>
</svg>
