<svg width="24" height="24" viewBox="0 0 24 24" fill="none" xmlns="http://www.w3.org/2000/svg">
<path fill-rule="evenodd" clip-rule="evenodd" d="M7.41313 7.47946C8.5092 5.68068 10.4905 4.4773 12.7539 4.47729C15.7925 4.47729 18.324 6.64522 18.8871 9.51913C21.2111 9.82871 23.0039 11.8186 23.0039 14.2273C23.0039 16.8506 20.8773 18.9773 18.2539 18.9773L15.4558 18.9773C15.52 18.8817 15.5755 18.7789 15.6207 18.6698C15.7811 18.2826 15.794 17.8609 15.674 17.4773L18.2539 17.4773C20.0488 17.4773 21.5039 16.0222 21.5039 14.2273C21.5039 12.4324 20.0489 10.9774 18.254 10.9773C17.8491 10.9774 17.5197 10.6678 17.4827 10.2753C17.2556 7.86433 15.2247 5.97729 12.7539 5.97729C10.9513 5.9773 9.38202 6.98116 8.57665 8.46389C8.38433 8.81796 8.0014 9.02362 7.60212 8.99132C7.48742 8.98204 7.3713 8.9773 7.25391 8.9773C4.9067 8.9773 3.00391 10.8801 3.00391 13.2273C3.00391 15.5745 4.9067 17.4773 7.25391 17.4773L9.3338 17.4773C9.17406 17.9871 9.25722 18.5394 9.55208 18.9773H7.25391C4.07827 18.9773 1.50391 16.4029 1.50391 13.2273C1.50391 10.0517 4.07827 7.4773 7.25391 7.4773C7.30713 7.4773 7.36021 7.47802 7.41313 7.47946ZM18.2539 9.4773L18.2517 9.4773L18.2538 10.2026L18.2539 9.4773Z" fill="black"/>
<path d="M11.0342 13.9698C10.7413 13.6769 10.2665 13.6769 9.97358 13.9698C9.68069 14.2626 9.68069 14.7375 9.97358 15.0304L12.1932 17.2501H11.0039C10.7006 17.2501 10.4271 17.4328 10.311 17.7131C10.1949 17.9933 10.2591 18.3159 10.4736 18.5304L13.9736 22.0304C14.2665 22.3233 14.7413 22.3233 15.0342 22.0304C15.3271 21.7375 15.3271 21.2626 15.0342 20.9698L12.8146 18.7501H14.0039C14.3073 18.7501 14.5807 18.5674 14.6968 18.2871C14.8129 18.0068 14.7487 17.6843 14.5342 17.4698L11.0342 13.9698Z" fill="black"/>
</svg>
