<svg width="24" height="24" viewBox="0 0 24 24" fill="none" xmlns="http://www.w3.org/2000/svg">
<path fill-rule="evenodd" clip-rule="evenodd" d="M7.69791 7.98586C8.67122 6.19394 10.5702 4.97656 12.7539 4.97656C15.677 4.97656 18.0905 7.15761 18.456 9.98129C20.7094 10.0868 22.5039 11.9471 22.5039 14.2266C22.5039 16.5738 20.6011 18.4766 18.2539 18.4766H15.426C15.4809 18.3131 15.5064 18.144 15.5038 17.9766H18.2539C20.325 17.9766 22.0039 16.2976 22.0039 14.2266C22.0039 12.1555 20.325 10.4766 18.2539 10.4766C18.1105 10.4766 17.9936 10.3669 17.9805 10.2277C17.7294 7.5623 15.4851 5.47656 12.7539 5.47656C10.7607 5.47656 9.02662 6.58718 8.13728 8.22451C8.03976 8.40404 7.8453 8.50862 7.64243 8.49221C7.51434 8.48185 7.38477 8.47656 7.25391 8.47656C4.63055 8.47656 2.50391 10.6032 2.50391 13.2266C2.50391 15.8499 4.63055 17.9766 7.25391 17.9766H9.50404C9.50149 18.1466 9.52791 18.3158 9.58183 18.4766H7.25391C4.35441 18.4766 2.00391 16.1261 2.00391 13.2266C2.00391 10.3271 4.35441 7.97656 7.25391 7.97656C7.39824 7.97656 7.54126 7.98239 7.68275 7.99384C7.6892 7.99436 7.69519 7.99086 7.69791 7.98586Z" fill="black"/>
<path d="M10.6807 14.3226C10.5831 14.2249 10.4248 14.2249 10.3271 14.3226C10.2295 14.4202 10.2295 14.5785 10.3271 14.6761L13.4004 17.7493H11.0039C10.9028 17.7493 10.8116 17.8103 10.7729 17.9037C10.7342 17.9971 10.7556 18.1046 10.8271 18.1761L14.3271 21.6761C14.4248 21.7738 14.5831 21.7738 14.6807 21.6761C14.7783 21.5785 14.7783 21.4202 14.6807 21.3226L11.6075 18.2493H14.0039C14.105 18.2493 14.1962 18.1884 14.2349 18.095C14.2736 18.0016 14.2522 17.8941 14.1807 17.8226L10.6807 14.3226Z" fill="black"/>
</svg>
