<svg width="24" height="24" viewBox="0 0 24 24" fill="none" xmlns="http://www.w3.org/2000/svg">
<path d="M10.5655 5.4995C10.5655 5.62626 10.5606 5.75186 10.5508 5.87612C9.23661 6.3713 8.13359 7.29645 7.41309 8.47888C7.36018 8.47744 7.3071 8.47671 7.25387 8.47671C5.89564 8.47671 4.64739 8.94764 3.66351 9.73513C2.81329 9.30228 2.11086 8.62102 1.65184 7.7873C1.49798 7.50785 1.56621 7.2165 1.73656 7.01791C1.90135 6.82579 2.16638 6.70962 2.44622 6.73369C2.56787 6.74415 2.69105 6.7495 2.81554 6.7495C5.16275 6.7495 7.06554 4.84671 7.06554 2.4995C7.06554 2.37501 7.06019 2.25183 7.04973 2.13018C7.02566 1.85034 7.14184 1.58531 7.33395 1.42052C7.53254 1.25017 7.82389 1.18194 8.10334 1.3358C9.57052 2.14358 10.5655 3.70516 10.5655 5.4995Z" fill="black"/>
<path fill-rule="evenodd" clip-rule="evenodd" d="M7.75117 8.89008C8.7394 7.15081 10.6094 5.9767 12.7539 5.9767C15.677 5.9767 18.0904 8.15775 18.456 10.9814C20.7094 11.0869 22.5039 12.9472 22.5039 15.2267C22.5039 17.5739 20.6011 19.4767 18.2539 19.4767H14.5825C14.6291 19.4202 14.6678 19.3564 14.6968 19.2865C14.8129 19.0062 14.7487 18.6837 14.5342 18.4692L11.0342 14.9692C10.7413 14.6763 10.2665 14.6763 9.97356 14.9692C9.68066 15.2621 9.68066 15.7369 9.97356 16.0298L12.1932 18.2495H11.0039C10.7005 18.2495 10.4271 18.4322 10.311 18.7125C10.2041 18.9705 10.25 19.2643 10.4253 19.4767H7.25388C4.35438 19.4767 2.00388 17.1262 2.00388 14.2267C2.00388 11.3272 4.35438 8.9767 7.25388 8.9767C7.36096 8.9767 7.46733 8.97991 7.57288 8.98624C7.62953 8.98964 7.66204 8.9915 7.68571 8.99164L7.69151 8.99163L7.69457 8.98694C7.70726 8.96718 7.72329 8.93915 7.75117 8.89008Z" fill="black"/>
<path d="M10.3271 15.3227C10.4247 15.2251 10.583 15.2251 10.6807 15.3227L14.1807 18.8227C14.2522 18.8942 14.2735 19.0017 14.2349 19.0952C14.1962 19.1886 14.105 19.2495 14.0039 19.2495H11.6074L14.6807 22.3227C14.7783 22.4203 14.7783 22.5786 14.6807 22.6763C14.583 22.7739 14.4247 22.7739 14.3271 22.6763L10.8271 19.1763C10.7556 19.1048 10.7342 18.9972 10.7729 18.9038C10.8116 18.8104 10.9028 18.7495 11.0039 18.7495H13.4003L10.3271 15.6763C10.2295 15.5786 10.2295 15.4203 10.3271 15.3227Z" fill="black"/>
</svg>
