<svg width="24" height="24" viewBox="0 0 24 24" fill="none" xmlns="http://www.w3.org/2000/svg">
<path d="M8.50955 0.288005C9.8227 1.12933 10.7178 2.5696 10.808 4.22442C9.11254 4.66301 7.64332 5.66092 6.60811 7.00635C5.18449 7.132 3.87905 7.66912 2.81144 8.49802C2.33506 8.13945 1.92495 7.69782 1.6027 7.19485L1.5813 7.16164C1.50317 7.04075 1.40494 6.88875 1.36523 6.71452C1.25126 6.21448 1.53439 5.70893 2.0203 5.54485C2.14026 5.50435 2.26682 5.49858 2.35656 5.49657C2.45435 5.49438 2.57836 5.49687 2.72252 5.49977L2.73349 5.49999C2.76076 5.50053 2.78809 5.50081 2.81551 5.50081C5.02464 5.50081 6.81551 3.70995 6.81551 1.50081C6.81551 1.4734 6.81523 1.44606 6.81468 1.41879L6.81447 1.40792C6.81157 1.26372 6.80908 1.13968 6.81127 1.04186C6.81328 0.952125 6.81904 0.825565 6.85955 0.705608C7.02362 0.219696 7.52918 -0.063439 8.02922 0.0505289C8.20344 0.0902399 8.35544 0.188472 8.47633 0.266599L8.50955 0.288005Z" fill="black"/>
<path fill-rule="evenodd" clip-rule="evenodd" d="M7.55204 8.73594C8.58755 6.93923 10.5289 5.72797 12.7538 5.72797C15.7337 5.72798 18.2057 7.89989 18.674 10.7473C20.9623 10.9592 22.7538 12.8844 22.7538 15.228C22.7538 17.7133 20.7391 19.728 18.2538 19.728H17.75V13.728C17.75 12.3473 16.6307 11.228 15.25 11.228C13.9657 11.228 12.9075 12.1965 12.7661 13.4431C12.4556 13.3048 12.1118 13.228 11.75 13.228C11.3883 13.228 11.0444 13.3048 10.734 13.4431C10.5926 12.1965 9.53441 11.228 8.25003 11.228C6.86932 11.228 5.75003 12.3473 5.75003 13.728L5.75003 19.5199C3.44348 18.8657 1.75384 16.7441 1.75384 14.228C1.75384 11.1904 4.21628 8.72798 7.25384 8.72797C7.35384 8.72797 7.45326 8.73065 7.55204 8.73594ZM18.2538 10.728L18.2524 10.728L18.2538 11.2033L18.2538 10.728Z" fill="black"/>
<path d="M8.25003 12.6029C8.87135 12.6029 9.37503 13.1066 9.37503 13.7279V20.7279C9.37503 21.3493 8.87135 21.8529 8.25003 21.8529C7.62871 21.8529 7.12503 21.3493 7.12503 20.7279V13.7279C7.12503 13.1066 7.62871 12.6029 8.25003 12.6029Z" fill="black"/>
<path d="M11.75 14.6029C12.3714 14.6029 12.875 15.1066 12.875 15.7279L12.875 22.7279C12.875 23.3493 12.3714 23.8529 11.75 23.8529C11.1287 23.8529 10.625 23.3493 10.625 22.7279V15.7279C10.625 15.1066 11.1287 14.6029 11.75 14.6029Z" fill="black"/>
<path d="M16.375 13.7279C16.375 13.1066 15.8714 12.6029 15.25 12.6029C14.6287 12.6029 14.125 13.1066 14.125 13.7279V20.7279C14.125 21.3493 14.6287 21.8529 15.25 21.8529C15.8714 21.8529 16.375 21.3493 16.375 20.7279L16.375 13.7279Z" fill="black"/>
</svg>
