<svg width="24" height="24" viewBox="0 0 24 24" fill="none" xmlns="http://www.w3.org/2000/svg">
<path d="M1.5 13C0.947715 13 0.5 13.4477 0.5 14C0.5 14.5523 0.947715 15 1.5 15H10C10 13.8954 10.8954 13 12 13C13.1046 13 14 13.8954 14 15H22.4999C23.0522 15 23.4999 14.5523 23.4999 14C23.4999 13.4477 23.0522 13 22.4999 13H17.0653C16.5996 10.6276 14.5088 8.83783 11.9999 8.83783C9.49109 8.83783 7.40025 10.6276 6.93457 13H1.5Z" fill="black"/>
<path d="M3.86813 5.86836C4.25866 5.47783 4.89182 5.47783 5.28235 5.86836L6.59257 7.17858C6.98309 7.56911 6.98309 8.20227 6.59257 8.5928C6.20204 8.98332 5.56888 8.98332 5.17835 8.5928L3.86813 7.28257C3.47761 6.89205 3.47761 6.25888 3.86813 5.86836Z" fill="black"/>
<path d="M11.9999 2.5C12.5522 2.5 12.9999 2.94772 12.9999 3.5V6.35293C12.9999 6.90522 12.5522 7.35293 11.9999 7.35293C11.4476 7.35293 10.9999 6.90522 10.9999 6.35293V3.5C10.9999 2.94772 11.4476 2.5 11.9999 2.5Z" fill="black"/>
<path d="M20.1317 7.28257C20.5223 6.89205 20.5223 6.25888 20.1317 5.86836C19.7412 5.47783 19.108 5.47783 18.7175 5.86836L17.4073 7.17858C17.0168 7.56911 17.0168 8.20227 17.4073 8.5928C17.7978 8.98332 18.431 8.98332 18.8215 8.59279L20.1317 7.28257Z" fill="black"/>
<path d="M8.4428 17.2929C8.83332 16.9024 9.46648 16.9024 9.85701 17.2929L10.9999 18.4358V15C10.9999 14.4477 11.4476 14 11.9999 14C12.5522 14 12.9999 14.4477 12.9999 15L12.9999 18.3926L14.0996 17.2929C14.4902 16.9024 15.1233 16.9024 15.5139 17.2929C15.9044 17.6834 15.9044 18.3166 15.5139 18.7071L12.6854 21.5355C12.2949 21.9261 11.6617 21.9261 11.2712 21.5355L8.4428 18.7071C8.05227 18.3166 8.05227 17.6834 8.4428 17.2929Z" fill="black"/>
</svg>
