<svg width="24" height="24" viewBox="0 0 24 24" fill="none" xmlns="http://www.w3.org/2000/svg">
<path d="M8.50955 1.28801C9.8227 2.12932 10.7178 3.5696 10.808 5.22442C9.11254 5.66301 7.64332 6.66092 6.60811 8.00635C5.18449 8.132 3.87905 8.66912 2.81144 9.49802C2.33506 9.13945 1.92495 8.69782 1.6027 8.19485L1.5813 8.16164C1.50317 8.04075 1.40494 7.88875 1.36523 7.71452C1.25126 7.21448 1.53439 6.70893 2.0203 6.54485C2.14026 6.50435 2.26682 6.49858 2.35656 6.49657C2.45436 6.49438 2.57838 6.49687 2.72256 6.49977L2.73349 6.49999C2.76076 6.50053 2.78809 6.50081 2.81551 6.50081C5.02464 6.50081 6.81551 4.70995 6.81551 2.50081C6.81551 2.4734 6.81523 2.44606 6.81468 2.41879L6.81447 2.40792C6.81157 2.26372 6.80908 2.13968 6.81127 2.04186C6.81328 1.95212 6.81904 1.82556 6.85955 1.70561C7.02363 1.21969 7.52918 0.93656 8.02922 1.05053C8.20344 1.09024 8.35544 1.18847 8.47633 1.2666L8.50955 1.28801Z" fill="black"/>
<path fill-rule="evenodd" clip-rule="evenodd" d="M7.55204 9.73594C8.58755 7.93922 10.5289 6.72797 12.7538 6.72797C15.7337 6.72798 18.2057 8.89989 18.674 11.7473C20.9623 11.9592 22.7538 13.8844 22.7538 16.228C22.7538 18.7133 20.7391 20.728 18.2538 20.728H7.25385C4.21628 20.728 1.75384 18.2655 1.75384 15.228C1.75384 12.1904 4.21628 9.72798 7.25385 9.72797C7.35384 9.72797 7.45326 9.73065 7.55204 9.73594ZM18.2538 11.728L18.2524 11.728L18.2538 12.2033L18.2538 11.728Z" fill="black"/>
</svg>
