<svg width="24" height="24" viewBox="0 0 24 24" fill="none" xmlns="http://www.w3.org/2000/svg">
<path fill-rule="evenodd" clip-rule="evenodd" d="M12.7538 4.97656C10.6093 4.97656 8.7393 6.15067 7.75108 7.88994C7.72319 7.93902 7.70717 7.96705 7.69448 7.9868L7.69141 7.99149L7.68562 7.9915C7.66194 7.99137 7.62944 7.9895 7.57279 7.9861C7.46723 7.97977 7.36087 7.97656 7.25378 7.97656C4.35429 7.97656 2.00378 10.3271 2.00378 13.2266C2.00378 16.1261 4.35429 18.4766 7.25378 18.4766H8.80498C8.70979 18.0379 8.74573 17.5713 8.92506 17.1383C9.02339 16.9009 9.15936 16.6869 9.32435 16.5019L8.9128 16.0903C8.03412 15.2117 8.03412 13.787 8.9128 12.9084C9.79148 12.0297 11.2161 12.0297 12.0948 12.9084L15.5948 16.4084C16.1421 16.9557 16.3632 17.7377 16.2027 18.4766H18.2538C20.601 18.4766 22.5038 16.5738 22.5038 14.2266C22.5038 11.9471 20.7093 10.0868 18.4559 9.98129C18.0903 7.15761 15.6769 4.97656 12.7538 4.97656Z" fill="black"/>
<path d="M11.2109 13.7922C10.8204 13.4017 10.1872 13.4017 9.79668 13.7922C9.40616 14.1828 9.40616 14.8159 9.79668 15.2065L11.5896 16.9993H11.0038C10.5993 16.9993 10.2347 17.243 10.0799 17.6167C9.92513 17.9903 10.0107 18.4205 10.2967 18.7065L13.7967 22.2065C14.1872 22.597 14.8204 22.597 15.2109 22.2065C15.6014 21.8159 15.6014 21.1828 15.2109 20.7922L13.418 18.9993H14.0038C14.4082 18.9993 14.7729 18.7557 14.9277 18.382C15.0824 18.0084 14.9969 17.5782 14.7109 17.2922L11.2109 13.7922Z" fill="black"/>
</svg>
