<svg width="24" height="24" viewBox="0 0 24 24" fill="none" xmlns="http://www.w3.org/2000/svg">
<path d="M0 8C-2.41411e-08 7.44772 0.447715 7 1 7H2.23529C2.78758 7 3.23529 7.44772 3.23529 8C3.23529 8.55229 2.78758 9 2.23529 9H1C0.447715 9 2.41411e-08 8.55228 0 8Z" fill="black"/>
<path d="M8 0C8.55229 -2.41411e-08 9 0.447714 9 0.999998V2.23529C9 2.78758 8.55229 3.23529 8 3.23529C7.44772 3.23529 7 2.78758 7 2.23529L7 1C7 0.447714 7.44772 2.41412e-08 8 0Z" fill="black"/>
<path fill-rule="evenodd" clip-rule="evenodd" d="M12.1491 6.25496C11.4676 4.63635 9.86649 3.5 8 3.5C5.51472 3.5 3.5 5.51472 3.5 8C3.5 8.78047 3.69869 9.51453 4.04825 10.1544C2.36882 11.2178 1.25382 13.0923 1.25382 15.2272C1.25382 18.5409 3.94011 21.2272 7.25382 21.2272L18.2538 21.2272C21.0152 21.2272 23.2538 18.9886 23.2538 16.2272C23.2538 13.7528 21.4564 11.6982 19.096 11.2978C18.4444 8.39524 15.8528 6.2272 12.7538 6.2272C12.5499 6.2272 12.3482 6.23659 12.1491 6.25496ZM5.9134 9.37749C5.65213 8.98251 5.5 8.50902 5.5 8C5.5 6.61929 6.61929 5.5 8 5.5C8.92966 5.5 9.7408 6.00744 10.1716 6.76045C8.97753 7.27798 7.96973 8.14322 7.27578 9.22724L7.25382 9.2272C6.79304 9.2272 6.34438 9.27914 5.9134 9.37749ZM18.2509 11.2272L18.2538 11.2272V12.2025L18.2509 11.2272ZM17.2337 12.2986C17.2827 12.8178 17.7181 13.2273 18.2538 13.2272C19.9107 13.2272 21.2538 14.5703 21.2538 16.2272C21.2538 17.8841 19.9107 19.2272 18.2538 19.2272H7.25382C5.04468 19.2272 3.25382 17.4363 3.25382 15.2272C3.25382 13.0181 5.04468 11.2272 7.25382 11.2272C7.36447 11.2272 7.47387 11.2317 7.58187 11.2404C8.07937 11.2807 8.55652 11.0245 8.79624 10.5831C9.55963 9.17768 11.0465 8.2272 12.7538 8.2272C15.0944 8.2272 17.0186 10.0149 17.2337 12.2986Z" fill="black"/>
<path d="M13.6569 3.75739C14.0475 3.36686 14.0475 2.7337 13.6569 2.34317C13.2664 1.95265 12.6332 1.95265 12.2427 2.34317L11.3692 3.21666C10.9787 3.60718 10.9787 4.24035 11.3692 4.63087C11.7598 5.02139 12.3929 5.02139 12.7834 4.63087L13.6569 3.75739Z" fill="black"/>
<path d="M2.34307 2.34317C2.7336 1.95265 3.36676 1.95265 3.75729 2.34317L4.63077 3.21666C5.02129 3.60718 5.02129 4.24034 4.63077 4.63087C4.24025 5.02139 3.60708 5.02139 3.21656 4.63087L2.34307 3.75738C1.95255 3.36686 1.95255 2.73369 2.34307 2.34317Z" fill="black"/>
</svg>
