<svg width="24" height="24" viewBox="0 0 24 24" fill="none" xmlns="http://www.w3.org/2000/svg">
<path fill-rule="evenodd" clip-rule="evenodd" d="M12.7538 4.97656C10.6093 4.97656 8.7393 6.15067 7.75108 7.88994C7.72319 7.93902 7.70717 7.96705 7.69448 7.9868L7.69141 7.99149L7.68562 7.9915C7.66194 7.99137 7.62944 7.9895 7.57279 7.9861C7.46723 7.97977 7.36087 7.97656 7.25378 7.97656C4.35429 7.97656 2.00378 10.3271 2.00378 13.2266C2.00378 16.1261 4.35429 18.4766 7.25378 18.4766H9.06155C8.96204 18.0714 8.98938 17.6363 9.15603 17.234C9.27471 16.9475 9.45506 16.6992 9.67795 16.5019L9.08958 15.9136C8.30853 15.1325 8.30853 13.8662 9.08958 13.0851C9.87063 12.3041 11.137 12.3041 11.918 13.0851L15.418 16.5851C15.9177 17.0848 16.1114 17.8044 15.9461 18.4766H18.2538C20.601 18.4766 22.5038 16.5738 22.5038 14.2266C22.5038 11.9471 20.7093 10.0868 18.4559 9.98129C18.0903 7.15762 15.6769 4.97656 12.7538 4.97656Z" fill="black"/>
<path d="M11.0341 13.969C10.7412 13.6761 10.2664 13.6761 9.97346 13.969C9.68056 14.2619 9.68056 14.7368 9.97346 15.0297L12.1931 17.2493H11.0038C10.7004 17.2493 10.427 17.4321 10.3109 17.7123C10.1948 17.9926 10.259 18.3152 10.4735 18.5297L13.9735 22.0297C14.2663 22.3226 14.7412 22.3226 15.0341 22.0297C15.327 21.7368 15.327 21.2619 15.0341 20.969L12.8144 18.7493H14.0038C14.3071 18.7493 14.5806 18.5666 14.6967 18.2864C14.8128 18.0061 14.7486 17.6835 14.5341 17.469L11.0341 13.969Z" fill="black"/>
</svg>
