<svg width="24" height="24" viewBox="0 0 24 24" fill="none" xmlns="http://www.w3.org/2000/svg">
<path fill-rule="evenodd" clip-rule="evenodd" d="M3.26212 10.0884C2.17797 11.1342 1.50364 12.602 1.50364 14.2273C1.50364 17.4029 4.078 19.9773 7.25364 19.9773H10.1686C9.94407 19.504 9.94302 18.9528 10.1687 18.4773H7.25364C4.90643 18.4773 3.00364 16.5745 3.00364 14.2273C3.00364 11.8801 4.90643 9.97728 7.25364 9.97728C7.37103 9.97728 7.48715 9.98202 7.60185 9.9913C8.00114 10.0236 8.38406 9.81795 8.57638 9.46388C9.38175 7.98114 10.951 6.97728 12.7536 6.97728C15.2244 6.97728 17.2553 8.86431 17.4825 11.2753C17.5194 11.6678 17.8487 11.9773 18.2536 11.9773C20.0485 11.9773 21.5036 13.4324 21.5036 15.2273C21.5036 16.0549 21.1942 16.8104 20.6848 17.3842L21.4815 18.712C22.4177 17.8444 23.0036 16.6043 23.0036 15.2273C23.0036 12.8186 21.2108 10.8287 18.8868 10.5191C18.3237 7.6452 15.7922 5.47728 12.7536 5.47728C12.1671 5.47728 11.5994 5.55811 11.0612 5.70918C11.0639 5.63983 11.0653 5.57013 11.0653 5.50011C11.0653 3.64127 10.0987 2.00867 8.64421 1.07681L8.61107 1.05535C8.49564 0.980258 8.30522 0.85638 8.08457 0.806087C7.45948 0.663616 6.82759 1.01751 6.62248 1.62493C6.56871 1.78419 6.56317 1.94451 6.56113 2.03557C6.55881 2.13882 6.5614 2.26757 6.56423 2.40831L6.56453 2.42311C6.56504 2.44871 6.5653 2.47438 6.5653 2.50011C6.5653 4.57118 4.88637 6.25011 2.8153 6.25011C2.78956 6.25011 2.76389 6.24986 2.7383 6.24934L2.72352 6.24905C2.58276 6.24622 2.45401 6.24363 2.35075 6.24594C2.25969 6.24798 2.09938 6.25352 1.94012 6.3073C1.33269 6.51241 0.978801 7.14429 1.12127 7.76938C1.17157 7.99004 1.29544 8.18046 1.37054 8.29588L1.392 8.32902C1.85917 9.05821 2.50248 9.66478 3.26212 10.0884ZM4.69069 9.07865C3.93447 8.84132 3.28117 8.37077 2.81495 7.75011C5.71444 7.75011 8.0653 5.39961 8.0653 2.50011C8.97739 3.18525 9.5653 4.27406 9.5653 5.50011C9.5653 5.81744 9.52589 6.12557 9.45168 6.41986C8.62149 6.93747 7.92176 7.64428 7.41286 8.47945C7.35994 8.47801 7.30687 8.47728 7.25364 8.47728C6.33272 8.47728 5.46236 8.69378 4.69069 9.07865ZM18.2515 10.4773L18.2536 10.4773V11.2026L18.2515 10.4773Z" fill="black"/>
<path d="M18.159 19.9773L17.259 18.4773L16.581 18.4773C16.8052 18.9497 16.807 19.5009 16.581 19.9773H18.159Z" fill="black"/>
<path d="M6.58373 13.6032C6.92837 13.3735 7.39403 13.4666 7.6238 13.8112L9.12383 16.0611C9.35361 16.4057 9.2605 16.8714 8.91586 17.1012C8.57122 17.3309 8.10556 17.2378 7.87579 16.8932L6.37576 14.6433C6.14598 14.2987 6.23909 13.833 6.58373 13.6032Z" fill="black"/>
<path d="M12.3443 15.0965C12.6927 14.8725 13.1567 14.9733 13.3807 15.3218L15.6307 18.8218C15.7791 19.0526 15.7896 19.3459 15.6581 19.5867C15.5266 19.8275 15.2742 19.9773 14.9998 19.9773H13.092L14.3886 22.0841C14.6057 22.4369 14.4957 22.8989 14.1429 23.116C13.7901 23.3331 13.3282 23.2231 13.1111 22.8703L11.1111 19.6204C10.9687 19.389 10.9626 19.0987 11.0951 18.8615C11.2276 18.6243 11.4781 18.4773 11.7498 18.4773H13.6261L12.1189 16.1329C11.895 15.7845 11.9958 15.3204 12.3443 15.0965Z" fill="black"/>
<path d="M18.143 15.0914C17.9298 14.7362 17.4692 14.621 17.114 14.8341C16.7588 15.0472 16.6436 15.5079 16.8567 15.8631L19.6678 20.5483C19.8809 20.9035 20.3416 21.0186 20.6968 20.8055C21.052 20.5924 21.1672 20.1317 20.9541 19.7765L18.143 15.0914Z" fill="black"/>
</svg>
