<svg width="24" height="24" viewBox="0 0 24 24" fill="none" xmlns="http://www.w3.org/2000/svg">
<path d="M0 8C-2.41411e-08 7.44772 0.447715 7 1 7H2.23529C2.78758 7 3.23529 7.44772 3.23529 8C3.23529 8.55229 2.78758 9 2.23529 9H1C0.447715 9 2.41411e-08 8.55228 0 8Z" fill="black"/>
<path d="M8 0C8.55229 -2.41411e-08 9 0.447714 9 1V2.23529C9 2.78758 8.55229 3.23529 8 3.23529C7.44772 3.23529 7 2.78758 7 2.23529V1C7 0.447714 7.44772 2.41412e-08 8 0Z" fill="black"/>
<path d="M13.6569 3.75739C14.0475 3.36686 14.0475 2.7337 13.6569 2.34317C13.2664 1.95265 12.6332 1.95265 12.2427 2.34317L11.3692 3.21666C10.9787 3.60718 10.9787 4.24035 11.3692 4.63087C11.7598 5.02139 12.3929 5.02139 12.7834 4.63087L13.6569 3.75739Z" fill="black"/>
<path fill-rule="evenodd" clip-rule="evenodd" d="M11.6196 5.32584C10.7999 4.21815 9.48381 3.5 8 3.5C5.51472 3.5 3.5 5.51472 3.5 8C3.5 8.48169 3.57568 8.94571 3.71581 9.3808C2.22326 10.4723 1.2538 12.2365 1.2538 14.2272C1.2538 17.1989 3.41416 19.666 6.25 20.1436V18.1002C4.5267 17.6548 3.2538 16.0897 3.2538 14.2272C3.2538 12.0181 5.04466 10.2272 7.2538 10.2272C7.36446 10.2272 7.47385 10.2317 7.58185 10.2404C8.07935 10.2807 8.55651 10.0245 8.79623 9.58312C9.55961 8.17768 11.0464 7.2272 12.7538 7.2272C15.0944 7.2272 17.0186 9.01488 17.2337 11.2986C17.2826 11.8178 17.7181 12.2273 18.2538 12.2272C19.9107 12.2272 21.2538 13.5703 21.2538 15.2272C21.2538 16.8841 19.9107 18.2272 18.2538 18.2272H17.25L17.25 20.2272H18.2538C21.0152 20.2272 23.2538 17.9886 23.2538 15.2272C23.2538 12.7528 21.4564 10.6982 19.096 10.2978C18.4444 7.39524 15.8528 5.2272 12.7538 5.2272C12.3669 5.2272 11.9879 5.26101 11.6196 5.32584ZM5.54489 8.47407C5.51543 8.32057 5.5 8.16209 5.5 8C5.5 6.61929 6.61929 5.5 8 5.5C8.5963 5.5 9.14383 5.70877 9.5735 6.05719C8.64063 6.58161 7.85054 7.32938 7.27577 8.22724L7.2538 8.2272C6.66008 8.2272 6.08649 8.31344 5.54489 8.47407ZM18.2509 10.2272L18.2538 10.2272L18.2538 11.2025L18.2509 10.2272Z" fill="black"/>
<path d="M2.34307 2.34317C2.7336 1.95265 3.36676 1.95265 3.75729 2.34317L4.63077 3.21666C5.02129 3.60718 5.02129 4.24035 4.63077 4.63087C4.24025 5.02139 3.60708 5.02139 3.21656 4.63087L2.34307 3.75739C1.95255 3.36686 1.95255 2.7337 2.34307 2.34317Z" fill="black"/>
<path d="M8.25 12.7272C8.80229 12.7272 9.25 13.1749 9.25 13.7272L9.25 20.7272C9.25 21.2794 8.80229 21.7272 8.25 21.7272C7.69772 21.7272 7.25 21.2794 7.25 20.7272L7.25 13.7272C7.25 13.1749 7.69772 12.7272 8.25 12.7272Z" fill="black"/>
<path d="M11.75 14.7272C12.3023 14.7272 12.75 15.1749 12.75 15.7272L12.75 22.7272C12.75 23.2794 12.3023 23.7272 11.75 23.7272C11.1977 23.7272 10.75 23.2794 10.75 22.7272L10.75 15.7272C10.75 15.1749 11.1977 14.7272 11.75 14.7272Z" fill="black"/>
<path d="M16.25 13.7272C16.25 13.1749 15.8023 12.7272 15.25 12.7272C14.6977 12.7272 14.25 13.1749 14.25 13.7272V20.7272C14.25 21.2794 14.6977 21.7272 15.25 21.7272C15.8023 21.7272 16.25 21.2794 16.25 20.7272V13.7272Z" fill="black"/>
</svg>
