<svg width="24" height="24" viewBox="0 0 24 24" fill="none" xmlns="http://www.w3.org/2000/svg">
<path fill-rule="evenodd" clip-rule="evenodd" d="M3.26261 10.0891C2.17846 11.1349 1.50413 12.6027 1.50413 14.228C1.50413 17.4037 4.07849 19.978 7.25413 19.978H7.57856L6.61817 18.4308C4.57263 18.1238 3.00413 16.3591 3.00413 14.228C3.00413 11.8808 4.90692 9.97801 7.25413 9.97801C7.37152 9.97801 7.48764 9.98275 7.60233 9.99203C8.00162 10.0243 8.38455 9.81868 8.57687 9.46461C9.38224 7.98187 10.9515 6.97801 12.7541 6.97801C15.2249 6.97801 17.2558 8.86505 17.483 11.276C17.5199 11.6685 17.8492 11.9781 18.2541 11.978C20.049 11.9781 21.5041 13.4331 21.5041 15.228C21.5041 16.5225 20.7474 17.6402 19.6521 18.1628L20.4264 19.4533C21.9572 18.6647 23.0041 17.0686 23.0041 15.228C23.0041 12.8194 21.2113 10.8294 18.8873 10.5199C18.3242 7.64594 15.7927 5.47801 12.7541 5.47801C12.1675 5.47801 11.5999 5.55884 11.0617 5.70991C11.0644 5.64056 11.0658 5.57086 11.0658 5.50085C11.0658 3.642 10.0992 2.0094 8.6447 1.07754L8.61156 1.05608C8.49613 0.980991 8.30571 0.857112 8.08506 0.806819C7.45996 0.664348 6.82808 1.01824 6.62297 1.62567C6.5692 1.78493 6.56366 1.94524 6.56162 2.0363C6.5593 2.13955 6.56189 2.2683 6.56472 2.40905L6.56502 2.42385C6.56553 2.44944 6.56579 2.47511 6.56579 2.50085C6.56579 4.57192 4.88686 6.25085 2.81579 6.25085C2.79005 6.25085 2.76438 6.25059 2.73879 6.25008L2.72401 6.24978C2.58328 6.24695 2.45448 6.24436 2.35124 6.24668C2.26018 6.24872 2.09987 6.25426 1.94061 6.30803C1.33318 6.51314 0.979289 7.14502 1.12176 7.77012C1.17205 7.99077 1.29593 8.18119 1.37103 8.29662L1.39248 8.32976C1.85966 9.05894 2.50297 9.66551 3.26261 10.0891ZM4.69118 9.07939C3.93496 8.84205 3.28166 8.37151 2.81544 7.75085C5.71493 7.75085 8.06579 5.40034 8.06579 2.50085C8.97788 3.18599 9.56579 4.27479 9.56579 5.50085C9.56579 5.81818 9.52637 6.1263 9.45217 6.42059C8.62198 6.9382 7.92224 7.64502 7.41335 8.48018C7.36043 8.47874 7.30735 8.47801 7.25413 8.47801C6.33321 8.47801 5.46285 8.69451 4.69118 9.07939ZM18.2519 10.478L18.2541 10.478V11.2034L18.2519 10.478Z" fill="black"/>
<path d="M16.6596 19.978L15.7596 18.478H15.0872L15.9444 19.978H16.6596Z" fill="black"/>
<path d="M11.9132 19.978L11.0561 18.478H10.7669L11.698 19.978H11.9132Z" fill="black"/>
<path d="M6.6048 15.0908C6.95673 14.8724 7.41911 14.9806 7.63755 15.3325L11.9536 22.2861C12.1721 22.6381 12.0639 23.1004 11.7119 23.3189C11.36 23.5373 10.8976 23.4291 10.6792 23.0772L6.3631 16.1236C6.14465 15.7717 6.25286 15.3093 6.6048 15.0908Z" fill="black"/>
<path d="M11.1282 15.077C11.4878 14.8715 11.946 14.9964 12.1515 15.356L16.1515 22.356C16.357 22.7157 16.232 23.1738 15.8724 23.3793C15.5128 23.5848 15.0546 23.4599 14.8491 23.1003L10.8491 16.1003C10.6436 15.7406 10.7686 15.2825 11.1282 15.077Z" fill="black"/>
<path d="M16.6435 15.0921C16.4304 14.7369 15.9697 14.6217 15.6145 14.8348C15.2593 15.0479 15.1441 15.5086 15.3572 15.8638L19.7276 23.1478C19.9407 23.503 20.4014 23.6182 20.7566 23.405C21.1118 23.1919 21.227 22.7312 21.0139 22.3761L16.6435 15.0921Z" fill="black"/>
</svg>
