<svg width="25" height="24" viewBox="0 0 25 24" fill="none" xmlns="http://www.w3.org/2000/svg">
<path d="M12.6988 3.43211C12.9891 3.13329 13.3834 2.93785 13.8313 2.90654C14.7954 2.83913 15.6317 3.56607 15.6991 4.53022C15.736 5.059 15.5861 5.46761 15.281 5.75702C14.9612 6.06045 14.2988 6.39497 13.0001 6.39497C11.4582 6.39497 9.29205 6.4861 7.5366 6.57527C5.35744 6.68597 3.21498 7.11064 1.15936 7.79584L1.10505 7.81394C0.450125 8.03225 0.0961753 8.74015 0.314485 9.39508C0.532795 10.05 1.24069 10.404 1.89562 10.1857L1.94993 10.1675C3.80561 9.54899 5.72505 9.17052 7.66343 9.07205C9.41741 8.98296 11.5276 8.89497 13.0001 8.89497C14.7014 8.89497 16.0697 8.45493 17.0018 7.5706C17.9486 6.67225 18.2716 5.4799 18.193 4.35586C18.0293 2.01436 15.9984 0.248917 13.6569 0.412625C12.5719 0.488487 11.608 0.967121 10.9057 1.6901C10.4246 2.18526 10.4361 2.97664 10.9312 3.45768C11.4264 3.93872 12.2178 3.92728 12.6988 3.43211Z" fill="black"/>
<path d="M0.94135 12.8818C3.74543 11.4797 6.83744 10.7498 9.9725 10.7498L13.0004 10.7498V13.2498L9.9725 13.2498C7.22555 13.2498 4.51633 13.8894 2.05938 15.1178C1.44191 15.4266 0.69107 15.1763 0.382333 14.5588C0.0735967 13.9413 0.323877 13.1905 0.94135 12.8818Z" fill="black"/>
<path d="M13.0004 13.2498V10.7498H18.0001C19.953 10.7498 21.5356 11.2504 22.6442 12.238C23.7676 13.2388 24.2504 14.6031 24.2504 15.9998C24.2504 18.8993 21.8999 21.2498 19.0004 21.2498C16.1009 21.2498 13.7504 18.8993 13.7504 15.9998C13.7504 15.3094 14.31 14.7498 15.0004 14.7498C15.6907 14.7498 16.2504 15.3094 16.2504 15.9998C16.2504 17.5186 17.4816 18.7498 19.0004 18.7498C20.5191 18.7498 21.7504 17.5186 21.7504 15.9998C21.7504 15.1874 21.483 14.5517 20.9813 14.1047C20.4648 13.6446 19.5472 13.2498 18.0001 13.2498H13.0004Z" fill="black"/>
<path d="M6.58203 15.4727C7.06682 15.359 7.61038 15.2498 8.0002 15.2498C9.66263 15.2498 11.006 15.6192 11.945 16.4347C12.914 17.2764 13.2504 18.4147 13.2504 19.4998C13.2504 21.847 11.3477 23.7498 9.00045 23.7498C7.14802 23.7498 5.57544 22.5654 4.9926 20.9164C4.76255 20.2655 5.1037 19.5513 5.7546 19.3212C6.40549 19.0912 7.11965 19.4323 7.3497 20.0832C7.59054 20.7646 8.24044 21.2498 9.00045 21.2498C9.96695 21.2498 10.7504 20.4663 10.7504 19.4998C10.7504 18.928 10.5867 18.5663 10.3057 18.3222C9.99452 18.052 9.33778 17.7498 8.0002 17.7498L8.00124 17.7498C7.99726 17.75 7.97664 17.7509 7.93697 17.7553C7.88918 17.7606 7.82609 17.7696 7.74672 17.7831C7.58737 17.8102 7.38696 17.8518 7.15305 17.9067C6.68597 18.0162 6.12347 18.17 5.55799 18.3412C4.9925 18.5124 4.43917 18.6965 3.98976 18.8644C3.76469 18.9485 3.57491 19.0251 3.42726 19.0909C3.35371 19.1237 3.29627 19.1513 3.25356 19.1733C3.21809 19.1917 3.20107 19.202 3.19767 19.204L2.69382 19.5399C2.11941 19.9228 1.34333 19.7676 0.960385 19.1932C0.577445 18.6188 0.732662 17.8427 1.30707 17.4597L1.81113 17.1237C2.13548 16.9075 2.64832 16.6968 3.11478 16.5225C3.6255 16.3317 4.23088 16.131 4.83353 15.9485C5.43617 15.766 6.05124 15.5973 6.58203 15.4727Z" fill="black"/>
</svg>
