<svg width="24" height="24" viewBox="0 0 24 24" fill="none" xmlns="http://www.w3.org/2000/svg">
<path d="M0 8C-2.41411e-08 7.44772 0.447715 7 1 7H2.23529C2.78758 7 3.23529 7.44772 3.23529 8C3.23529 8.55228 2.78758 9 2.23529 9L1 9C0.447715 9 2.41411e-08 8.55228 0 8Z" fill="black"/>
<path d="M9 0.999998C9 0.447714 8.55229 -2.41412e-08 8 0C7.44772 2.41411e-08 7 0.447714 7 1V2.23529C7 2.78758 7.44772 3.23529 8 3.23529C8.55229 3.23529 9 2.78758 9 2.23529V0.999998Z" fill="black"/>
<path d="M4.25 8C4.25 8.05989 4.2514 8.11946 4.25418 8.17866C5.05038 7.78305 5.93577 7.54001 6.87211 7.48782C7.69488 6.34825 8.84206 5.45605 10.1792 4.94783C9.56502 4.50853 8.8127 4.25 8 4.25C5.92893 4.25 4.25 5.92893 4.25 8Z" fill="black"/>
<path d="M12.7538 4.47721C12.8143 4.47721 12.8747 4.47795 12.9349 4.47943L13.6569 3.75739C14.0475 3.36686 14.0475 2.7337 13.6569 2.34317C13.2664 1.95265 12.6332 1.95265 12.2427 2.34317L11.3692 3.21666C10.9847 3.6012 10.9788 4.22101 11.3516 4.61276C11.8052 4.52384 12.274 4.47721 12.7538 4.47721Z" fill="black"/>
<path d="M2.34307 2.34317C2.7336 1.95265 3.36676 1.95265 3.75729 2.34317L4.63077 3.21666C5.02129 3.60718 5.02129 4.24034 4.63077 4.63087C4.24025 5.02139 3.60708 5.02139 3.21656 4.63087L2.34307 3.75738C1.95255 3.36686 1.95255 2.73369 2.34307 2.34317Z" fill="black"/>
<path fill-rule="evenodd" clip-rule="evenodd" d="M7.7511 8.89057C8.73933 7.1513 10.6093 5.97719 12.7538 5.97719C15.6769 5.9772 18.0904 8.15825 18.4559 10.9819C20.7093 11.0874 22.5038 12.9477 22.5038 15.2272C22.5038 17.5744 20.601 19.4772 18.2538 19.4772H16.2027C16.3632 18.7383 16.1422 17.9564 15.5948 17.409L12.0948 13.909C11.2161 13.0303 9.79151 13.0303 8.91283 13.909C8.03415 14.7877 8.03415 16.2123 8.91283 17.091L9.32438 17.5025C9.15938 17.6875 9.02341 17.9016 8.92509 18.1389C8.74576 18.5719 8.70982 19.0385 8.80501 19.4772L7.25381 19.4772C4.35431 19.4772 2.00381 17.1267 2.00381 14.2272C2.00381 11.3277 4.35431 8.97719 7.25381 8.97719C7.36089 8.97719 7.46726 8.9804 7.57281 8.98673C7.62946 8.99013 7.66197 8.992 7.68564 8.99214L7.69144 8.99212L7.6945 8.98743C7.70719 8.96768 7.72322 8.93965 7.7511 8.89057Z" fill="black"/>
<path d="M9.79671 14.7929C10.1872 14.4023 10.8204 14.4023 11.2109 14.7929L14.7109 18.2929C14.9969 18.5789 15.0825 19.009 14.9277 19.3827C14.7729 19.7563 14.4083 20 14.0038 20H13.418L15.2109 21.7929C15.6014 22.1834 15.6014 22.8166 15.2109 23.2071C14.8204 23.5976 14.1872 23.5976 13.7967 23.2071L10.2967 19.7071C10.0107 19.4211 9.92515 18.991 10.0799 18.6173C10.2347 18.2436 10.5993 18 11.0038 18H11.5896L9.79671 16.2071C9.40618 15.8166 9.40618 15.1834 9.79671 14.7929Z" fill="black"/>
</svg>
