<svg width="24" height="24" viewBox="0 0 24 24" fill="none" xmlns="http://www.w3.org/2000/svg">
<path d="M0.5 14.0002C0.5 13.448 0.947715 13.0002 1.5 13.0002H6.93457C7.40025 10.6278 9.49109 8.83808 11.9999 8.83808C14.5088 8.83808 16.5996 10.6278 17.0653 13.0002H22.4999C23.0522 13.0002 23.4999 13.448 23.4999 14.0002C23.4999 14.5525 23.0522 15.0002 22.4999 15.0002H15.1602L13.9999 13.84V13.0002L15.0007 13.0002C14.5823 11.7439 13.3969 10.8381 11.9999 10.8381C10.603 10.8381 9.41763 11.7439 8.99916 13.0002H9.99995V13.7968L8.79647 15.0002H1.5C0.947715 15.0002 0.5 14.5525 0.5 14.0002Z" fill="black"/>
<path d="M5.28235 5.86861C4.89182 5.47808 4.25866 5.47808 3.86813 5.8686C3.47761 6.25913 3.47761 6.89229 3.86813 7.28282L5.17835 8.59304C5.56888 8.98356 6.20204 8.98356 6.59257 8.59304C6.98309 8.20252 6.98309 7.56935 6.59257 7.17883L5.28235 5.86861Z" fill="black"/>
<path d="M12.9999 3.50024C12.9999 2.94796 12.5522 2.50024 11.9999 2.50024C11.4476 2.50024 10.9999 2.94796 10.9999 3.50024V6.35318C10.9999 6.90546 11.4476 7.35318 11.9999 7.35318C12.5522 7.35318 12.9999 6.90546 12.9999 6.35318V3.50024Z" fill="black"/>
<path d="M20.1317 5.8686C20.5223 6.25913 20.5223 6.89229 20.1317 7.28282L18.8215 8.59304C18.431 8.98356 17.7978 8.98356 17.4073 8.59304C17.0168 8.20252 17.0168 7.56935 17.4073 7.17883L18.7175 5.8686C19.108 5.47808 19.7412 5.47808 20.1317 5.8686Z" fill="black"/>
<path d="M8.4428 18.5358C8.83332 18.9263 9.46649 18.9263 9.85701 18.5358L10.9999 17.3929V20.8287C10.9999 21.381 11.4476 21.8287 11.9999 21.8287C12.5522 21.8287 12.9999 21.381 12.9999 20.8287V17.436L14.0997 18.5358C14.4902 18.9263 15.1233 18.9263 15.5139 18.5358C15.9044 18.1453 15.9044 17.5121 15.5139 17.1216L12.6854 14.2931C12.2949 13.9026 11.6617 13.9026 11.2712 14.2931L8.4428 17.1216C8.05227 17.5121 8.05227 18.1453 8.4428 18.5358Z" fill="black"/>
</svg>
