<svg width="24" height="24" viewBox="0 0 24 24" fill="none" xmlns="http://www.w3.org/2000/svg">
<path fill-rule="evenodd" clip-rule="evenodd" d="M3.26236 11.0891C2.17821 12.1349 1.50388 13.6027 1.50388 15.228C1.50388 18.4037 4.07824 20.978 7.25388 20.978H18.2539C20.8772 20.978 23.0039 18.8514 23.0039 16.228C23.0039 13.8194 21.2111 11.8294 18.8871 11.5199C18.324 8.64594 15.7925 6.47801 12.7539 6.47801C12.1673 6.47801 11.5997 6.55884 11.0615 6.70991C11.0642 6.64056 11.0655 6.57086 11.0655 6.50085C11.0655 4.642 10.0989 3.0094 8.64445 2.07754L8.61131 2.05608C8.49588 1.98099 8.30547 1.85711 8.08481 1.80682C7.45972 1.66435 6.82783 2.01824 6.62273 2.62567C6.56895 2.78493 6.56341 2.94524 6.56137 3.0363C6.55906 3.13955 6.56165 3.2683 6.56448 3.40905L6.56477 3.42385C6.56529 3.44944 6.56554 3.47511 6.56554 3.50085C6.56554 5.57192 4.88661 7.25085 2.81554 7.25085C2.78981 7.25085 2.76414 7.25059 2.73855 7.25008L2.72376 7.24978C2.58301 7.24695 2.45425 7.24436 2.351 7.24668C2.25994 7.24871 2.09962 7.25425 1.94036 7.30803C1.33293 7.51314 0.979045 8.14502 1.12152 8.77012C1.17181 8.99077 1.29569 9.18119 1.37078 9.29662L1.39224 9.32976C1.85942 10.0589 2.50272 10.6655 3.26236 11.0891ZM4.69094 10.0794C3.93472 9.84205 3.28141 9.37151 2.81519 8.75085C5.71469 8.75085 8.06554 6.40034 8.06554 3.50085C8.97763 4.18599 9.56555 5.27479 9.56555 6.50085C9.56555 6.81818 9.52613 7.1263 9.45193 7.42059C8.62173 7.9382 7.922 8.64502 7.4131 9.48018C7.36019 9.47874 7.30711 9.47801 7.25388 9.47801C6.33296 9.47801 5.46261 9.69451 4.69094 10.0794ZM18.2517 11.478L18.2539 11.478V12.2034L18.2517 11.478ZM21.5039 16.228C21.5039 14.4331 20.0489 12.9781 18.254 12.978C17.849 12.9781 17.5197 12.6685 17.4827 12.276C17.2556 9.86505 15.2247 7.97801 12.7539 7.97801C10.9513 7.97801 9.382 8.98187 8.57662 10.4646C8.3843 10.8187 8.00138 11.0243 7.60209 10.992C7.4874 10.9828 7.37127 10.978 7.25388 10.978C4.90667 10.978 3.00388 12.8808 3.00388 15.228C3.00388 17.5752 4.90667 19.478 7.25388 19.478H18.2539C20.0488 19.478 21.5039 18.0229 21.5039 16.228Z" fill="black"/>
</svg>
