<svg width="24" height="24" viewBox="0 0 24 24" fill="none" xmlns="http://www.w3.org/2000/svg">
<path fill-rule="evenodd" clip-rule="evenodd" d="M12.2539 4.97729C10.1094 4.9773 8.23943 6.1514 7.2512 7.89068C7.22331 7.93975 7.20729 7.96778 7.1946 7.98753L7.19154 7.99223L7.18574 7.99224C7.16206 7.9921 7.12956 7.99023 7.07291 7.98684C6.96736 7.98051 6.86099 7.9773 6.75391 7.9773C3.85441 7.9773 1.50391 10.3278 1.50391 13.2273C1.50391 16.1268 3.85441 18.4773 6.75391 18.4773H17.7539C20.1011 18.4773 22.0039 16.5745 22.0039 14.2273C22.0039 11.9478 20.2094 10.0875 17.956 9.98202C17.5905 7.15835 15.177 4.9773 12.2539 4.97729Z" fill="black"/>
</svg>
