<svg width="24" height="24" viewBox="0 0 24 24" fill="none" xmlns="http://www.w3.org/2000/svg">
<path d="M1.25 12C1.25 11.8619 1.36193 11.75 1.5 11.75H4.35293C4.491 11.75 4.60293 11.8619 4.60293 12C4.60293 12.1381 4.491 12.25 4.35293 12.25H1.5C1.36193 12.25 1.25 12.1381 1.25 12Z" fill="black"/>
<path d="M11.7499 22.5C11.7499 22.6381 11.8619 22.75 11.9999 22.75C12.138 22.75 12.2499 22.6381 12.2499 22.5V19.6471C12.2499 19.509 12.138 19.3971 11.9999 19.3971C11.8619 19.3971 11.7499 19.509 11.7499 19.6471V22.5Z" fill="black"/>
<path d="M11.9999 1.25C12.138 1.25 12.2499 1.36193 12.2499 1.5V4.35293C12.2499 4.491 12.138 4.60293 11.9999 4.60293C11.8619 4.60293 11.7499 4.491 11.7499 4.35293V1.5C11.7499 1.36193 11.8619 1.25 11.9999 1.25Z" fill="black"/>
<path d="M22.7499 12C22.7499 12.1381 22.638 12.25 22.4999 12.25H19.647C19.5089 12.25 19.397 12.1381 19.397 12C19.397 11.8619 19.5089 11.75 19.647 11.75H22.4999C22.638 11.75 22.7499 11.8619 22.7499 12Z" fill="black"/>
<path d="M19.6014 4.75224C19.699 4.65461 19.699 4.49632 19.6014 4.39869C19.5038 4.30106 19.3455 4.30106 19.2479 4.39869L17.9376 5.70891C17.84 5.80654 17.84 5.96483 17.9376 6.06246C18.0353 6.16009 18.1936 6.16009 18.2912 6.06246L19.6014 4.75224Z" fill="black"/>
<path d="M19.6014 19.6013C19.5038 19.6989 19.3455 19.6989 19.2479 19.6013L17.9376 18.2911C17.84 18.1935 17.84 18.0352 17.9376 17.9375C18.0353 17.8399 18.1936 17.8399 18.2912 17.9375L19.6014 19.2478C19.699 19.3454 19.699 19.5037 19.6014 19.6013Z" fill="black"/>
<path d="M4.39847 19.2478C4.30084 19.3454 4.30084 19.5037 4.39847 19.6013C4.4961 19.6989 4.65439 19.6989 4.75202 19.6013L6.06224 18.2911C6.15987 18.1935 6.15987 18.0352 6.06224 17.9375C5.96461 17.8399 5.80632 17.8399 5.70869 17.9375L4.39847 19.2478Z" fill="black"/>
<path d="M4.39847 4.39869C4.4961 4.30106 4.65439 4.30106 4.75202 4.39869L6.06224 5.70891C6.15987 5.80654 6.15987 5.96483 6.06224 6.06246C5.96461 6.1601 5.80632 6.1601 5.70869 6.06246L4.39847 4.75224C4.30084 4.65461 4.30084 4.49632 4.39847 4.39869Z" fill="black"/>
<path d="M7.54049 12C7.54049 9.5371 9.53706 7.54053 11.9999 7.54053C14.4628 7.54053 16.4594 9.5371 16.4594 12C16.4594 14.4629 14.4628 16.4595 11.9999 16.4595C9.53706 16.4595 7.54049 14.4629 7.54049 12Z" fill="black"/>
</svg>
