<svg width="24" height="24" viewBox="0 0 24 24" fill="none" xmlns="http://www.w3.org/2000/svg">
<path d="M0.000244141 8C0.000244116 7.44772 0.44796 7 1.00024 7L2.23554 7C2.78782 7 3.23554 7.44772 3.23554 8C3.23554 8.55229 2.78782 9 2.23554 9H1.00024C0.447959 9 0.000244165 8.55229 0.000244141 8Z" fill="black"/>
<path d="M8.00025 0C8.55253 -2.41411e-08 9.00025 0.447714 9.00025 1V2.23529C9.00025 2.78758 8.55253 3.23529 8.00025 3.23529C7.44796 3.23529 7.00024 2.78758 7.00024 2.23529V1C7.00024 0.447716 7.44796 2.41412e-08 8.00025 0Z" fill="black"/>
<path d="M13.6572 3.75739C14.0477 3.36686 14.0477 2.7337 13.6572 2.34317C13.2666 1.95265 12.6335 1.95265 12.243 2.34317L11.3695 3.21666C10.979 3.60718 10.979 4.24035 11.3695 4.63087C11.76 5.02139 12.3932 5.02139 12.7837 4.63087L13.6572 3.75739Z" fill="black"/>
<path fill-rule="evenodd" clip-rule="evenodd" d="M11.6198 5.32584C10.8001 4.21815 9.48405 3.5 8.00025 3.5C5.51496 3.5 3.50024 5.51472 3.50024 8C3.50024 8.48169 3.57593 8.94571 3.71605 9.3808C2.2235 10.4723 1.25404 12.2365 1.25404 14.2272C1.25404 17.5409 3.94034 20.2272 7.25404 20.2272H10.0181C9.66658 19.6184 9.66003 18.8678 10.0043 18.2517L10.0182 18.2272H9.46842C8.85172 18.5693 8.11901 18.5519 7.53138 18.2272H7.25405C5.04491 18.2272 3.25404 16.4363 3.25404 14.2272C3.25404 12.0181 5.04491 10.2272 7.25404 10.2272C7.3647 10.2272 7.4741 10.2317 7.5821 10.2404C8.0796 10.2807 8.55675 10.0245 8.79647 9.58312C9.55986 8.17768 11.0467 7.2272 12.754 7.2272C15.0946 7.2272 17.0188 9.01488 17.234 11.2986C17.2829 11.8178 17.7183 12.2273 18.254 12.2272C19.9109 12.2272 21.254 13.5703 21.254 15.2272C21.254 15.8663 21.0542 16.4587 20.7136 16.9454L21.7986 18.7537C22.6981 17.8496 23.254 16.6033 23.254 15.2272C23.254 12.7528 21.4566 10.6982 19.0962 10.2978C18.4446 7.39524 15.853 5.2272 12.754 5.2272C12.3671 5.2272 11.9881 5.26101 11.6198 5.32584ZM5.54513 8.47407C5.51567 8.32058 5.50024 8.16209 5.50024 8C5.50024 6.61929 6.61953 5.5 8.00025 5.5C8.59654 5.5 9.14407 5.70877 9.57375 6.05719C8.64087 6.58161 7.85078 7.32938 7.27601 8.22724L7.25405 8.2272C6.66032 8.2272 6.08673 8.31344 5.54513 8.47407ZM18.2511 10.2272L18.254 10.2272L18.254 11.2025L18.2511 10.2272Z" fill="black"/>
<path d="M2.34332 2.34317C2.73384 1.95265 3.36701 1.95265 3.75753 2.34317L4.63101 3.21666C5.02154 3.60718 5.02154 4.24035 4.63101 4.63087C4.24049 5.02139 3.60732 5.02139 3.2168 4.63087L2.34332 3.75739C1.95279 3.36686 1.95279 2.7337 2.34332 2.34317Z" fill="black"/>
<path d="M18.0179 20.2272L16.8179 18.2272H16.7323C17.0799 18.8291 17.0909 19.5715 16.7557 20.1856C16.748 20.1996 16.7402 20.2135 16.7323 20.2272H18.0179Z" fill="black"/>
<path d="M6.44546 13.3951C6.90498 13.0888 7.52585 13.2129 7.83222 13.6724L9.33225 15.9223C9.63862 16.3818 9.51446 17.0027 9.05495 17.3091C8.59543 17.6154 7.97455 17.4913 7.66819 17.0318L6.16816 14.7819C5.86179 14.3224 5.98594 13.7015 6.44546 13.3951Z" fill="black"/>
<path d="M12.2095 14.8861C12.674 14.5874 13.2928 14.7219 13.5914 15.1865L15.8414 18.6865C16.0392 18.9942 16.0532 19.3854 15.8779 19.7064C15.7027 20.0275 15.366 20.2273 15.0002 20.2273H13.5398L14.6019 21.953C14.8913 22.4234 14.7447 23.0393 14.2743 23.3288C13.804 23.6182 13.188 23.4716 12.8986 23.0012L10.8986 19.7514C10.7087 19.4428 10.7006 19.0557 10.8773 18.7395C11.054 18.4232 11.3879 18.2273 11.7502 18.2273H13.1686L11.9091 16.268C11.6104 15.8034 11.7449 15.1847 12.2095 14.8861Z" fill="black"/>
<path d="M18.3577 14.9627C18.0736 14.4891 17.4593 14.3355 16.9858 14.6197C16.5122 14.9038 16.3586 15.5181 16.6428 15.9917L19.4538 20.6768C19.738 21.1504 20.3523 21.304 20.8258 21.0198C21.2994 20.7357 21.453 20.1214 21.1688 19.6478L18.3577 14.9627Z" fill="black"/>
</svg>
