<svg width="25" height="24" viewBox="0 0 25 24" fill="none" xmlns="http://www.w3.org/2000/svg">
<path d="M12.6986 3.43236C12.9889 3.13353 13.3831 2.9381 13.831 2.90678C14.7952 2.83937 15.6314 3.56632 15.6988 4.53046C15.7358 5.05924 15.5858 5.46786 15.2808 5.75727C14.961 6.0607 14.2986 6.39521 12.9999 6.39521C11.4579 6.39521 9.29181 6.48635 7.53636 6.57552C5.35719 6.68621 3.21474 7.11088 1.15912 7.79609L1.10481 7.81419C0.449881 8.0325 0.0959312 8.7404 0.314241 9.39533C0.532551 10.0503 1.24045 10.4042 1.89538 10.1859L1.94969 10.1678C3.80536 9.54924 5.7248 9.17076 7.66319 9.0723C9.41716 8.9832 11.5274 8.89521 12.9999 8.89521C14.7012 8.89521 16.0695 8.45517 17.0015 7.57084C17.9484 6.67249 18.2713 5.48014 18.1927 4.3561C18.029 2.0146 15.9982 0.249161 13.6567 0.412869C12.5716 0.488732 11.6078 0.967365 10.9054 1.69034C10.4244 2.18551 10.4358 2.97688 10.931 3.45792C11.4262 3.93897 12.2175 3.92752 12.6986 3.43236Z" fill="black"/>
<path d="M0.941106 12.882C3.74519 11.48 6.8372 10.75 9.97226 10.75L13.0001 10.75V13.25L9.97226 13.25C7.22531 13.25 4.51609 13.8896 2.05914 15.1181C1.44167 15.4268 0.690826 15.1765 0.382089 14.5591C0.0733526 13.9416 0.323633 13.1907 0.941106 12.882Z" fill="black"/>
<path d="M13.0001 13.25V10.75H17.9999C19.9528 10.75 21.5353 11.2507 22.644 12.2383C23.7674 13.239 24.2501 14.6033 24.2501 16C24.2501 18.8995 21.8996 21.25 19.0001 21.25C16.1006 21.25 13.7501 18.8995 13.7501 16C13.7501 15.3097 14.3098 14.75 15.0001 14.75C15.6905 14.75 16.2501 15.3097 16.2501 16C16.2501 17.5188 17.4813 18.75 19.0001 18.75C20.5189 18.75 21.7501 17.5188 21.7501 16C21.7501 15.1876 21.4827 14.5519 20.981 14.105C20.4645 13.6449 19.547 13.25 17.9999 13.25H13.0001Z" fill="black"/>
<path d="M6.58178 15.473C7.06658 15.3592 7.61013 15.25 7.99996 15.25C9.66238 15.25 11.0058 15.6194 11.9448 16.435C12.9138 17.2766 13.2502 18.415 13.2502 19.5C13.2502 21.8473 11.3474 23.75 9.0002 23.75C7.14778 23.75 5.5752 22.5656 4.99236 20.9166C4.7623 20.2657 5.10346 19.5515 5.75435 19.3215C6.40525 19.0914 7.1194 19.4326 7.34946 20.0835C7.59029 20.7649 8.2402 21.25 9.0002 21.25C9.9667 21.25 10.7502 20.4665 10.7502 19.5C10.7502 18.9282 10.5865 18.5666 10.3054 18.3225C9.99427 18.0522 9.33754 17.75 7.99996 17.75L8.00099 17.75C7.99702 17.7502 7.9764 17.7512 7.93673 17.7556C7.88894 17.7609 7.82584 17.7698 7.74647 17.7833C7.58712 17.8105 7.38672 17.852 7.1528 17.9069C6.68573 18.0165 6.12323 18.1702 5.55774 18.3415C4.99225 18.5127 4.43893 18.6967 3.98952 18.8647C3.76445 18.9488 3.57466 19.0254 3.42701 19.0912C3.35347 19.1239 3.29603 19.1515 3.25331 19.1736C3.21785 19.1919 3.20083 19.2022 3.19742 19.2043L2.69358 19.5401C2.11917 19.923 1.34308 19.7678 0.960141 19.1934C0.577201 18.619 0.732418 17.8429 1.30683 17.46L1.81088 17.1239C2.13524 16.9077 2.64808 16.6971 3.11454 16.5228C3.62526 16.332 4.23064 16.1312 4.83328 15.9487C5.43593 15.7663 6.05099 15.5975 6.58178 15.473Z" fill="black"/>
</svg>
