<svg width="24" height="24" viewBox="0 0 24 24" fill="none" xmlns="http://www.w3.org/2000/svg">
<path d="M0.000244141 8C0.000244116 7.44772 0.44796 7 1.00024 7H2.23554C2.78782 7 3.23554 7.44772 3.23554 8C3.23554 8.07067 3.22821 8.13964 3.21426 8.20617C2.86329 8.44212 2.53407 8.70794 2.23026 9H1.00024C0.447959 9 0.000244165 8.55229 0.000244141 8Z" fill="black"/>
<path fill-rule="evenodd" clip-rule="evenodd" d="M6.93963 11.5979C6.22594 12.0381 5.75026 12.8271 5.75026 13.7272L5.75026 19.5191C3.44371 18.8649 1.75407 16.7434 1.75407 14.2272C1.75407 11.1897 4.21651 8.72723 7.25407 8.72723C7.35407 8.72723 7.45349 8.72991 7.55227 8.73519C8.58778 6.93848 10.5292 5.72723 12.7541 5.72723C15.7339 5.72723 18.206 7.89914 18.6743 10.7466C20.9625 10.9585 22.7541 12.8836 22.7541 15.2272C22.7541 17.7125 20.7394 19.7272 18.2541 19.7272H17.7503V13.7272C17.7503 12.3465 16.631 11.2272 15.2503 11.2272C14.5323 11.2272 13.885 11.5299 13.4291 12.0145L13.6572 12.2426C14.0477 12.6331 14.0477 13.2663 13.6572 13.6568C13.2666 14.0474 12.6335 14.0474 12.243 13.6568L11.8142 13.228C11.7929 13.2275 11.7716 13.2272 11.7503 13.2272C11.3885 13.2272 11.0447 13.3041 10.7342 13.4423C10.6371 12.5867 10.1082 11.8621 9.37062 11.4917C8.94614 11.6584 8.48388 11.75 8.00025 11.75C7.63189 11.75 7.27594 11.6969 6.93963 11.5979ZM18.2541 10.7272L18.2526 10.7272L18.254 11.2026L18.2541 10.7272Z" fill="black"/>
<path d="M6.60834 7.0056C7.39787 5.97947 8.43986 5.15548 9.64213 4.6276C9.14626 4.38573 8.5891 4.25 8.00025 4.25C6.05809 4.25 4.46078 5.72643 4.26945 7.61812C4.9935 7.29063 5.78097 7.07863 6.60834 7.0056Z" fill="black"/>
<path d="M12.7541 3.97724C12.975 3.97724 13.1937 3.98648 13.41 4.00459L13.6572 3.75739C14.0477 3.36686 14.0477 2.7337 13.6572 2.34317C13.2666 1.95265 12.6335 1.95265 12.243 2.34317L11.3695 3.21666C11.1154 3.47078 11.0266 3.82764 11.1032 4.15353C11.6351 4.03809 12.1874 3.97724 12.7541 3.97724Z" fill="black"/>
<path d="M9.00025 1C9.00025 0.447714 8.55253 -2.41411e-08 8.00025 0C7.44796 2.41411e-08 7.00024 0.447716 7.00024 1V2.23529C7.00024 2.78758 7.44796 3.23529 8.00025 3.23529C8.55253 3.23529 9.00025 2.78758 9.00025 2.23529V1Z" fill="black"/>
<path d="M2.34332 2.34317C2.73384 1.95265 3.36701 1.95265 3.75753 2.34317L4.63101 3.21666C5.02154 3.60718 5.02154 4.24035 4.63101 4.63087C4.24049 5.02139 3.60732 5.02139 3.2168 4.63087L2.34332 3.75739C1.95279 3.36686 1.95279 2.7337 2.34332 2.34317Z" fill="black"/>
<path d="M8.25026 12.6022C8.87158 12.6022 9.37526 13.1059 9.37526 13.7272L9.37526 20.7272C9.37526 21.3485 8.87158 21.8522 8.25026 21.8522C7.62894 21.8522 7.12526 21.3485 7.12526 20.7272L7.12526 13.7272C7.12526 13.1059 7.62894 12.6022 8.25026 12.6022Z" fill="black"/>
<path d="M11.7503 14.6022C12.3716 14.6022 12.8753 15.1059 12.8753 15.7272L12.8753 22.7272C12.8753 23.3485 12.3716 23.8522 11.7503 23.8522C11.1289 23.8522 10.6253 23.3485 10.6253 22.7272L10.6253 15.7272C10.6253 15.1059 11.1289 14.6022 11.7503 14.6022Z" fill="black"/>
<path d="M16.3753 13.7272C16.3753 13.1059 15.8716 12.6022 15.2503 12.6022C14.6289 12.6022 14.1253 13.1059 14.1253 13.7272V20.7272C14.1253 21.3485 14.6289 21.8522 15.2503 21.8522C15.8716 21.8522 16.3753 21.3485 16.3753 20.7272V13.7272Z" fill="black"/>
</svg>
