<svg width="24" height="24" viewBox="0 0 24 24" fill="none" xmlns="http://www.w3.org/2000/svg">
<path d="M12.0001 10.4995C11.8284 10.4995 11.6893 10.6387 11.6893 10.8103C11.6893 10.982 11.8284 11.1211 12.0001 11.1211C12.1718 11.1211 12.3109 10.982 12.3109 10.8103C12.3109 10.6387 12.1718 10.4995 12.0001 10.4995Z" fill="black"/>
<path fill-rule="evenodd" clip-rule="evenodd" d="M12.0001 7.99277C10.444 7.99277 9.1825 9.25424 9.1825 10.8103C9.1825 12.3664 10.444 13.6279 12.0001 13.6279C13.5562 13.6279 14.8176 12.3664 14.8176 10.8103C14.8176 9.25424 13.5562 7.99277 12.0001 7.99277ZM12.0001 11.9995C12.6569 11.9995 13.1893 11.4671 13.1893 10.8103C13.1893 10.1536 12.6569 9.62115 12.0001 9.62115C11.3433 9.62115 10.8109 10.1536 10.8109 10.8103C10.8109 11.4671 11.3433 11.9995 12.0001 11.9995Z" fill="black"/>
<path fill-rule="evenodd" clip-rule="evenodd" d="M0.797241 10.8103C0.797241 7.57872 3.41698 4.95898 6.64859 4.95898H17.3513C20.5829 4.95898 23.2026 7.57872 23.2026 10.8103C23.2026 14.0419 20.5829 16.6617 17.3513 16.6617H6.6486C3.41698 16.6617 0.797241 14.0419 0.797241 10.8103ZM7.6825 10.8103C7.6825 8.42581 9.61554 6.49277 12.0001 6.49277C14.3846 6.49277 16.3176 8.42581 16.3176 10.8103C16.3176 13.1949 14.3846 15.1279 12.0001 15.1279C9.61554 15.1279 7.6825 13.1949 7.6825 10.8103Z" fill="black"/>
<path d="M6.6488 18.0395C6.23459 18.0395 5.8988 18.3753 5.8988 18.7895C5.8988 19.2037 6.23459 19.5395 6.6488 19.5395H17.3515C17.7657 19.5395 18.1015 19.2037 18.1015 18.7895C18.1015 18.3753 17.7657 18.0395 17.3515 18.0395H6.6488Z" fill="black"/>
</svg>
