<svg width="24" height="24" viewBox="0 0 24 24" fill="none" xmlns="http://www.w3.org/2000/svg">
<path fill-rule="evenodd" clip-rule="evenodd" d="M11.9996 9.12163C11.0667 9.12163 10.3104 9.87791 10.3104 10.8108C10.3104 11.7437 11.0667 12.5 11.9996 12.5C12.9325 12.5 13.6888 11.7437 13.6888 10.8108C13.6888 9.87791 12.9325 9.12163 11.9996 9.12163ZM11.3104 10.8108C11.3104 10.4302 11.6189 10.1216 11.9996 10.1216C12.3802 10.1216 12.6888 10.4302 12.6888 10.8108C12.6888 11.1915 12.3802 11.5 11.9996 11.5C11.6189 11.5 11.3104 11.1915 11.3104 10.8108Z" fill="black"/>
<path fill-rule="evenodd" clip-rule="evenodd" d="M7.93201 10.8108C7.93201 8.56437 9.75312 6.74326 11.9996 6.74326C14.246 6.74326 16.0671 8.56437 16.0671 10.8108C16.0671 13.0573 14.246 14.8784 11.9996 14.8784C9.75312 14.8784 7.93201 13.0573 7.93201 10.8108ZM11.9996 7.74326C10.3054 7.74326 8.93201 9.11665 8.93201 10.8108C8.93201 12.505 10.3054 13.8784 11.9996 13.8784C13.6937 13.8784 15.0671 12.505 15.0671 10.8108C15.0671 9.11665 13.6937 7.74326 11.9996 7.74326Z" fill="black"/>
<path fill-rule="evenodd" clip-rule="evenodd" d="M0.796875 10.8108C0.796875 7.57921 3.41661 4.95947 6.64822 4.95947H17.3509C20.5825 4.95947 23.2023 7.57921 23.2023 10.8108C23.2023 14.0424 20.5825 16.6622 17.3509 16.6622H6.64823C3.41662 16.6622 0.796875 14.0424 0.796875 10.8108ZM17.3509 15.6622C20.0303 15.6622 22.2023 13.4902 22.2023 10.8108C22.2023 8.1315 20.0303 5.95947 17.3509 5.95947H6.64822C3.9689 5.95947 1.79688 8.1315 1.79688 10.8108C1.79688 13.4902 3.9689 15.6622 6.64823 15.6622H17.3509Z" fill="black"/>
<path d="M6.14823 18.5406C6.14823 18.2644 6.37208 18.0406 6.64823 18.0406H17.3509C17.6271 18.0406 17.8509 18.2644 17.8509 18.5406C17.8509 18.8167 17.6271 19.0406 17.3509 19.0406H6.64823C6.37208 19.0406 6.14823 18.8167 6.14823 18.5406Z" fill="black"/>
</svg>
