<svg width="24" height="24" viewBox="0 0 24 24" fill="none" xmlns="http://www.w3.org/2000/svg">
<path fill-rule="evenodd" clip-rule="evenodd" d="M11.9999 9.12115C11.067 9.12115 10.3108 9.87742 10.3108 10.8103C10.3108 11.7432 11.067 12.4995 11.9999 12.4995C12.9329 12.4995 13.6891 11.7432 13.6891 10.8103C13.6891 9.87742 12.9329 9.12115 11.9999 9.12115ZM11.3108 10.8103C11.3108 10.4297 11.6193 10.1211 11.9999 10.1211C12.3806 10.1211 12.6891 10.4297 12.6891 10.8103C12.6891 11.191 12.3806 11.4995 11.9999 11.4995C11.6193 11.4995 11.3108 11.191 11.3108 10.8103Z" fill="black"/>
<path fill-rule="evenodd" clip-rule="evenodd" d="M7.93238 10.8103C7.93238 8.56388 9.75349 6.74277 11.9999 6.74277C14.2464 6.74277 16.0675 8.56388 16.0675 10.8103C16.0675 13.0568 14.2464 14.8779 11.9999 14.8779C9.75349 14.8779 7.93238 13.0568 7.93238 10.8103ZM11.9999 7.74277C10.3058 7.74277 8.93238 9.11616 8.93238 10.8103C8.93238 12.5045 10.3058 13.8779 11.9999 13.8779C13.6941 13.8779 15.0675 12.5045 15.0675 10.8103C15.0675 9.11616 13.6941 7.74277 11.9999 7.74277Z" fill="black"/>
<path fill-rule="evenodd" clip-rule="evenodd" d="M0.797241 10.8103C0.797241 7.57872 3.41698 4.95898 6.64859 4.95898H17.3513C20.5829 4.95898 23.2026 7.57872 23.2026 10.8103C23.2026 14.0419 20.5829 16.6617 17.3513 16.6617H6.6486C3.41698 16.6617 0.797241 14.0419 0.797241 10.8103ZM17.3513 15.6617C20.0306 15.6617 22.2026 13.4897 22.2026 10.8103C22.2026 8.13101 20.0306 5.95898 17.3513 5.95898H6.64859C3.96926 5.95898 1.79724 8.13101 1.79724 10.8103C1.79724 13.4897 3.96927 15.6617 6.6486 15.6617H17.3513Z" fill="black"/>
<path d="M6.14859 18.5401C6.14859 18.2639 6.37245 18.0401 6.64859 18.0401H17.3513C17.6274 18.0401 17.8513 18.2639 17.8513 18.5401C17.8513 18.8162 17.6274 19.0401 17.3513 19.0401H6.64859C6.37245 19.0401 6.14859 18.8162 6.14859 18.5401Z" fill="black"/>
</svg>
