<svg width="24" height="24" viewBox="0 0 24 24" fill="none" xmlns="http://www.w3.org/2000/svg">
<path d="M13.5002 10.8103C13.5002 11.6388 12.8287 12.3103 12.0002 12.3103C11.1718 12.3103 10.5002 11.6388 10.5002 10.8103C10.5002 9.98191 11.1718 9.31034 12.0002 9.31034C12.8287 9.31034 13.5002 9.98191 13.5002 10.8103Z" fill="black"/>
<path fill-rule="evenodd" clip-rule="evenodd" d="M0.797363 10.8103C0.797363 7.57872 3.4171 4.95898 6.64871 4.95898H17.3514C20.583 4.95898 23.2028 7.57872 23.2028 10.8103C23.2028 14.0419 20.583 16.6617 17.3514 16.6617H6.64872C3.41711 16.6617 0.797363 14.0419 0.797363 10.8103ZM12.0002 14.3103C13.9332 14.3103 15.5002 12.7433 15.5002 10.8103C15.5002 8.87734 13.9332 7.31034 12.0002 7.31034C10.0672 7.31034 8.50022 8.87734 8.50022 10.8103C8.50022 12.7433 10.0672 14.3103 12.0002 14.3103Z" fill="black"/>
<path d="M6.64893 18.5401C6.09664 18.5401 5.64893 18.9878 5.64893 19.5401C5.64893 20.0924 6.09664 20.5401 6.64893 20.5401H17.3516C17.9039 20.5401 18.3516 20.0924 18.3516 19.5401C18.3516 18.9878 17.9039 18.5401 17.3516 18.5401H6.64893Z" fill="black"/>
</svg>
