<svg width="24" height="24" viewBox="0 0 24 24" fill="none" xmlns="http://www.w3.org/2000/svg">
<path fill-rule="evenodd" clip-rule="evenodd" d="M11.9997 13.3108C13.9327 13.3108 15.4997 11.7438 15.4997 9.81082C15.4997 7.87783 13.9327 6.31082 11.9997 6.31082C10.0667 6.31082 8.49974 7.87783 8.49974 9.81082C8.49974 11.7438 10.0667 13.3108 11.9997 13.3108ZM13.4997 9.81082C13.4997 10.6393 12.8282 11.3108 11.9997 11.3108C11.1713 11.3108 10.4997 10.6393 10.4997 9.81082C10.4997 8.9824 11.1713 8.31082 11.9997 8.31082C12.8282 8.31082 13.4997 8.9824 13.4997 9.81082Z" fill="black"/>
<path fill-rule="evenodd" clip-rule="evenodd" d="M6.64822 3.45947C3.14047 3.45947 0.296875 6.30307 0.296875 9.81082C0.296875 13.3186 3.14048 16.1622 6.64823 16.1622H17.3509C20.8587 16.1622 23.7023 13.3186 23.7023 9.81082C23.7023 6.30307 20.8587 3.45947 17.3509 3.45947H6.64822ZM6.64823 14.1622C4.24504 14.1622 2.29688 12.214 2.29688 9.81082C2.29688 7.40764 4.24504 5.45947 6.64822 5.45947H17.3509C19.7541 5.45947 21.7023 7.40764 21.7023 9.81082C21.7023 12.214 19.7541 14.1622 17.3509 14.1622H6.64823Z" fill="black"/>
<path d="M6.64844 17.5406C6.09615 17.5406 5.64844 17.9883 5.64844 18.5406C5.64844 19.0928 6.09615 19.5406 6.64844 19.5406H17.3511C17.9034 19.5406 18.3511 19.0928 18.3511 18.5406C18.3511 17.9883 17.9034 17.5406 17.3511 17.5406H6.64844Z" fill="black"/>
</svg>
