<svg width="24" height="24" viewBox="0 0 24 24" fill="none" xmlns="http://www.w3.org/2000/svg">
<path d="M11.9997 10.1216C11.6191 10.1216 11.3105 10.4302 11.3105 10.8108C11.3105 11.1915 11.6191 11.5 11.9997 11.5C12.3804 11.5 12.6889 11.1915 12.6889 10.8108C12.6889 10.4302 12.3804 10.1216 11.9997 10.1216Z" fill="black"/>
<path fill-rule="evenodd" clip-rule="evenodd" d="M11.9997 7.74326C10.3055 7.74326 8.93213 9.11665 8.93213 10.8108C8.93213 12.505 10.3055 13.8784 11.9997 13.8784C13.6939 13.8784 15.0673 12.505 15.0673 10.8108C15.0673 9.11665 13.6939 7.74326 11.9997 7.74326ZM10.3105 10.8108C10.3105 9.87791 11.0668 9.12163 11.9997 9.12163C12.9326 9.12163 13.6889 9.87791 13.6889 10.8108C13.6889 11.7437 12.9326 12.5 11.9997 12.5C11.0668 12.5 10.3105 11.7437 10.3105 10.8108Z" fill="black"/>
<path fill-rule="evenodd" clip-rule="evenodd" d="M0.796875 10.8108C0.796875 7.57921 3.41661 4.95947 6.64822 4.95947H17.3509C20.5825 4.95947 23.2023 7.57921 23.2023 10.8108C23.2023 14.0424 20.5825 16.6622 17.3509 16.6622H6.64823C3.41662 16.6622 0.796875 14.0424 0.796875 10.8108ZM7.93213 10.8108C7.93213 8.56437 9.75324 6.74326 11.9997 6.74326C14.2462 6.74326 16.0673 8.56437 16.0673 10.8108C16.0673 13.0573 14.2462 14.8784 11.9997 14.8784C9.75324 14.8784 7.93213 13.0573 7.93213 10.8108Z" fill="black"/>
<path d="M6.64823 18.0406C6.37208 18.0406 6.14823 18.2644 6.14823 18.5406C6.14823 18.8167 6.37208 19.0406 6.64823 19.0406H17.3509C17.6271 19.0406 17.8509 18.8167 17.8509 18.5406C17.8509 18.2644 17.6271 18.0406 17.3509 18.0406H6.64823Z" fill="black"/>
</svg>
