<svg width="24" height="24" viewBox="0 0 24 24" fill="none" xmlns="http://www.w3.org/2000/svg">
<path fill-rule="evenodd" clip-rule="evenodd" d="M11.9997 13.8108C13.6566 13.8108 14.9997 12.4677 14.9997 10.8108C14.9997 9.15397 13.6566 7.81082 11.9997 7.81082C10.3429 7.81082 8.99974 9.15397 8.99974 10.8108C8.99974 12.4677 10.3429 13.8108 11.9997 13.8108ZM13.4997 10.8108C13.4997 11.6393 12.8282 12.3108 11.9997 12.3108C11.1713 12.3108 10.4997 11.6393 10.4997 10.8108C10.4997 9.9824 11.1713 9.31082 11.9997 9.31082C12.8282 9.31082 13.4997 9.9824 13.4997 10.8108Z" fill="black"/>
<path fill-rule="evenodd" clip-rule="evenodd" d="M6.64822 4.70947C3.27854 4.70947 0.546875 7.44114 0.546875 10.8108C0.546875 14.1805 3.27855 16.9122 6.64823 16.9122H17.3509C20.7206 16.9122 23.4523 14.1805 23.4523 10.8108C23.4523 7.44114 20.7206 4.70947 17.3509 4.70947H6.64822ZM6.64823 15.4122C4.10697 15.4122 2.04688 13.3521 2.04688 10.8108C2.04688 8.26957 4.10697 6.20947 6.64822 6.20947H17.3509C19.8922 6.20947 21.9523 8.26957 21.9523 10.8108C21.9523 13.3521 19.8922 15.4122 17.3509 15.4122H6.64823Z" fill="black"/>
<path d="M6.64795 18.5C6.23374 18.5 5.89795 18.8358 5.89795 19.25C5.89795 19.6642 6.23374 20 6.64795 20H17.3507C17.7649 20 18.1007 19.6642 18.1007 19.25C18.1007 18.8358 17.7649 18.5 17.3507 18.5H6.64795Z" fill="black"/>
</svg>
