<svg width="24" height="24" viewBox="0 0 24 24" fill="none" xmlns="http://www.w3.org/2000/svg">
<path fill-rule="evenodd" clip-rule="evenodd" d="M11.9999 9.37115C11.2051 9.37115 10.5608 10.0155 10.5608 10.8103C10.5608 11.6052 11.2051 12.2495 11.9999 12.2495C12.7948 12.2495 13.4391 11.6052 13.4391 10.8103C13.4391 10.0155 12.7948 9.37115 11.9999 9.37115ZM11.0608 10.8103C11.0608 10.2916 11.4812 9.87115 11.9999 9.87115C12.5186 9.87115 12.9391 10.2916 12.9391 10.8103C12.9391 11.329 12.5186 11.7495 11.9999 11.7495C11.4812 11.7495 11.0608 11.329 11.0608 10.8103Z" fill="black"/>
<path fill-rule="evenodd" clip-rule="evenodd" d="M8.18238 10.8103C8.18238 8.70195 9.89156 6.99277 11.9999 6.99277C14.1083 6.99277 15.8175 8.70195 15.8175 10.8103C15.8175 12.9187 14.1083 14.6279 11.9999 14.6279C9.89156 14.6279 8.18238 12.9187 8.18238 10.8103ZM11.9999 7.49277C10.1677 7.49277 8.68238 8.97809 8.68238 10.8103C8.68238 12.6426 10.1677 14.1279 11.9999 14.1279C13.8322 14.1279 15.3175 12.6426 15.3175 10.8103C15.3175 8.97809 13.8322 7.49277 11.9999 7.49277Z" fill="black"/>
<path fill-rule="evenodd" clip-rule="evenodd" d="M1.04724 10.8103C1.04724 7.7168 3.55505 5.20898 6.64859 5.20898H17.3513C20.4448 5.20898 22.9526 7.7168 22.9526 10.8103C22.9526 13.9039 20.4448 16.4117 17.3513 16.4117H6.6486C3.55506 16.4117 1.04724 13.9039 1.04724 10.8103ZM17.3513 15.9117C20.1687 15.9117 22.4526 13.6277 22.4526 10.8103C22.4526 7.99294 20.1687 5.70898 17.3513 5.70898H6.64859C3.83119 5.70898 1.54724 7.99294 1.54724 10.8103C1.54724 13.6277 3.8312 15.9117 6.6486 15.9117H17.3513Z" fill="black"/>
<path d="M6.39859 18.5401C6.39859 18.402 6.51052 18.2901 6.64859 18.2901H17.3513C17.4894 18.2901 17.6013 18.402 17.6013 18.5401C17.6013 18.6781 17.4894 18.7901 17.3513 18.7901H6.64859C6.51052 18.7901 6.39859 18.6781 6.39859 18.5401Z" fill="black"/>
</svg>
