<svg width="24" height="24" viewBox="0 0 24 24" fill="none" xmlns="http://www.w3.org/2000/svg">
<path fill-rule="evenodd" clip-rule="evenodd" d="M11.9997 13.8108C14.2089 13.8108 15.9997 12.02 15.9997 9.81082C15.9997 7.60169 14.2089 5.81082 11.9997 5.81082C9.7906 5.81082 7.99974 7.60169 7.99974 9.81082C7.99974 12.02 9.7906 13.8108 11.9997 13.8108ZM13.4997 9.81082C13.4997 10.6393 12.8282 11.3108 11.9997 11.3108C11.1713 11.3108 10.4997 10.6393 10.4997 9.81082C10.4997 8.9824 11.1713 8.31082 11.9997 8.31082C12.8282 8.31082 13.4997 8.9824 13.4997 9.81082Z" fill="black"/>
<path fill-rule="evenodd" clip-rule="evenodd" d="M6.64822 3.20947C3.0024 3.20947 0.046875 6.165 0.046875 9.81082C0.046875 13.4566 3.0024 16.4122 6.64823 16.4122H17.3509C20.9968 16.4122 23.9523 13.4566 23.9523 9.81082C23.9523 6.165 20.9967 3.20947 17.3509 3.20947H6.64822ZM6.64823 13.9122C4.38312 13.9122 2.54688 12.0759 2.54688 9.81082C2.54688 7.54571 4.38311 5.70947 6.64822 5.70947H17.3509C19.616 5.70947 21.4523 7.54571 21.4523 9.81082C21.4523 12.0759 19.616 13.9122 17.3509 13.9122H6.64823Z" fill="black"/>
<path d="M6.64844 18.2906C5.95808 18.2906 5.39844 18.8502 5.39844 19.5406C5.39844 20.2309 5.95808 20.7906 6.64844 20.7906H17.3511C18.0415 20.7906 18.6011 20.2309 18.6011 19.5406C18.6011 18.8502 18.0415 18.2906 17.3511 18.2906H6.64844Z" fill="black"/>
</svg>
