<svg width="24" height="24" viewBox="0 0 24 24" fill="none" xmlns="http://www.w3.org/2000/svg">
<path d="M13.4997 10.8108C13.4997 11.6393 12.8282 12.3108 11.9997 12.3108C11.1713 12.3108 10.4997 11.6393 10.4997 10.8108C10.4997 9.9824 11.1713 9.31082 11.9997 9.31082C12.8282 9.31082 13.4997 9.9824 13.4997 10.8108Z" fill="black"/>
<path fill-rule="evenodd" clip-rule="evenodd" d="M0.796875 10.8108C0.796875 7.57921 3.41661 4.95947 6.64822 4.95947H17.3509C20.5825 4.95947 23.2023 7.57921 23.2023 10.8108C23.2023 14.0424 20.5825 16.6622 17.3509 16.6622H6.64823C3.41662 16.6622 0.796875 14.0424 0.796875 10.8108ZM11.9997 14.8108C14.2089 14.8108 15.9997 13.02 15.9997 10.8108C15.9997 8.60169 14.2089 6.81082 11.9997 6.81082C9.7906 6.81082 7.99974 8.60169 7.99974 10.8108C7.99974 13.02 9.7906 14.8108 11.9997 14.8108Z" fill="black"/>
<path d="M6.64844 18.2906C5.95808 18.2906 5.39844 18.8502 5.39844 19.5406C5.39844 20.2309 5.95808 20.7906 6.64844 20.7906H17.3511C18.0415 20.7906 18.6011 20.2309 18.6011 19.5406C18.6011 18.8502 18.0415 18.2906 17.3511 18.2906H6.64844Z" fill="black"/>
</svg>
