<svg width="24" height="24" viewBox="0 0 24 24" fill="none" xmlns="http://www.w3.org/2000/svg">
<path d="M12.0001 9.87115C11.4814 9.87115 11.0609 10.2916 11.0609 10.8103C11.0609 11.329 11.4814 11.7495 12.0001 11.7495C12.5188 11.7495 12.9393 11.329 12.9393 10.8103C12.9393 10.2916 12.5188 9.87115 12.0001 9.87115Z" fill="black"/>
<path fill-rule="evenodd" clip-rule="evenodd" d="M12.0001 7.49277C10.1678 7.49277 8.6825 8.97809 8.6825 10.8103C8.6825 12.6426 10.1678 14.1279 12.0001 14.1279C13.8323 14.1279 15.3176 12.6426 15.3176 10.8103C15.3176 8.97809 13.8323 7.49277 12.0001 7.49277ZM10.5609 10.8103C10.5609 10.0155 11.2053 9.37115 12.0001 9.37115C12.7949 9.37115 13.4393 10.0155 13.4393 10.8103C13.4393 11.6052 12.7949 12.2495 12.0001 12.2495C11.2053 12.2495 10.5609 11.6052 10.5609 10.8103Z" fill="black"/>
<path fill-rule="evenodd" clip-rule="evenodd" d="M0.797241 10.8103C0.797241 7.57872 3.41698 4.95898 6.64859 4.95898H17.3513C20.5829 4.95898 23.2026 7.57872 23.2026 10.8103C23.2026 14.0419 20.5829 16.6617 17.3513 16.6617H6.6486C3.41698 16.6617 0.797241 14.0419 0.797241 10.8103ZM8.1825 10.8103C8.1825 8.70195 9.89168 6.99277 12.0001 6.99277C14.1084 6.99277 15.8176 8.70195 15.8176 10.8103C15.8176 12.9187 14.1084 14.6279 12.0001 14.6279C9.89168 14.6279 8.1825 12.9187 8.1825 10.8103Z" fill="black"/>
<path d="M6.64859 18.2901C6.51052 18.2901 6.39859 18.402 6.39859 18.5401C6.39859 18.6781 6.51052 18.7901 6.64859 18.7901H17.3513C17.4894 18.7901 17.6013 18.6781 17.6013 18.5401C17.6013 18.402 17.4894 18.2901 17.3513 18.2901H6.64859Z" fill="black"/>
</svg>
