<svg width="24" height="24" viewBox="0 0 24 24" fill="none" xmlns="http://www.w3.org/2000/svg">
<path d="M2.4453 1.59227C2.34767 1.49464 2.18937 1.49464 2.09174 1.59227C1.99411 1.6899 1.99411 1.84819 2.09174 1.94582L19.6476 19.5017C19.7452 19.5993 19.9035 19.5993 20.0012 19.5017C20.0988 19.404 20.0988 19.2458 20.0012 19.1481L2.4453 1.59227Z" fill="black"/>
<path d="M0.367798 8.70089C1.35955 7.67604 2.48498 6.78136 3.71599 6.04493L4.08097 6.40991C2.84297 7.13709 1.71312 8.02861 0.721401 9.05449L0.367798 8.70089Z" fill="black"/>
<path d="M5.31869 13.6518C6.31462 12.5967 7.55601 11.7758 8.95154 11.2805L9.34582 11.6748C7.92855 12.1342 6.66974 12.9454 5.6724 14.0055L5.31869 13.6518Z" fill="black"/>
<path d="M14.373 11.0451L15.1409 11.813C16.3768 12.2804 17.4793 13.0196 18.3752 13.9577L18.7288 13.6041C17.56 12.3833 16.06 11.4821 14.373 11.0451Z" fill="black"/>
<path d="M7.67325 4.34533L8.08135 4.75343C9.34815 4.42492 10.6769 4.25011 12.0464 4.25011C16.4685 4.25011 20.4649 6.07253 23.3256 9.00729L23.6792 8.65371C20.728 5.62848 16.6066 3.75011 12.0464 3.75011C10.5313 3.75011 9.06466 3.95746 7.67325 4.34533Z" fill="black"/>
<path d="M11.1754 19.5085L11.9999 20.333L12.8822 19.4508C12.7033 19.1793 12.3958 19.0001 12.0464 19.0001C11.6728 19.0001 11.3471 19.205 11.1754 19.5085Z" fill="black"/>
</svg>
