<svg width="24" height="25" viewBox="0 0 24 25" fill="none" xmlns="http://www.w3.org/2000/svg">
<path d="M3.79907 0.21967C3.50617 -0.0732233 3.0313 -0.0732233 2.73841 0.21967C2.44551 0.512563 2.44551 0.987437 2.73841 1.28033L20.2943 18.8362C20.5872 19.1291 21.062 19.1291 21.3549 18.8362C21.6478 18.5433 21.6478 18.0684 21.3549 17.7755L3.79907 0.21967Z" fill="black"/>
<path d="M4.72373 5.03341C3.23252 5.81796 1.88248 6.83465 0.72168 8.03543L2.48975 9.8035C3.65252 8.59297 5.04306 7.60288 6.59247 6.90215L4.72373 5.03341Z" fill="black"/>
<path d="M8.51493 8.82461C6.88063 9.39284 5.42574 10.3444 4.2579 11.5716L6.02638 13.3401C7.20894 12.0785 8.78349 11.1889 10.5557 10.8654L8.51493 8.82461Z" fill="black"/>
<path d="M18.3307 12.9835L13.7054 8.35821C16.0796 8.72595 18.1972 9.87062 19.7899 11.5242L18.3307 12.9835Z" fill="black"/>
<path d="M13.0001 13.3098L15.5022 15.8119L14.4836 16.8306C13.888 16.1563 13.017 15.7311 12.0467 15.7311C11.0527 15.7311 10.1629 16.1773 9.5667 16.8805L7.79554 15.1093C8.84718 13.9553 10.3624 13.2311 12.0467 13.2311C12.3715 13.2311 12.69 13.258 13.0001 13.3098Z" fill="black"/>
<path d="M11.1108 5.76362L8.89388 3.54671C9.91254 3.33973 10.9669 3.23108 12.0467 3.23108C16.4688 3.23108 20.4652 5.0535 23.3259 7.98827L21.558 9.75621C19.1498 7.27378 15.7784 5.73108 12.0467 5.73108C11.732 5.73108 11.42 5.74205 11.1108 5.76362Z" fill="black"/>
<path d="M13.2967 18.9811C13.2967 19.6714 12.737 20.2311 12.0467 20.2311C11.3563 20.2311 10.7967 19.6714 10.7967 18.9811C10.7967 18.2907 11.3563 17.7311 12.0467 17.7311C12.737 17.7311 13.2967 18.2907 13.2967 18.9811Z" fill="black"/>
</svg>
