<svg width="24" height="24" viewBox="0 0 24 24" fill="none" xmlns="http://www.w3.org/2000/svg">
<path d="M3.62247 0.403527C3.42721 0.208265 3.11063 0.208265 2.91537 0.403527C2.72011 0.598789 2.72011 0.915371 2.91537 1.11063L20.4712 18.6665C20.6665 18.8617 20.9831 18.8617 21.1783 18.6665C21.3736 18.4712 21.3736 18.1546 21.1783 17.9594L3.62247 0.403527Z" fill="black"/>
<path d="M5.26549 5.61841C3.76815 6.3794 2.41577 7.38454 1.26074 8.5814L1.95107 9.27173C3.10681 8.07115 4.47467 7.07623 5.99436 6.34728L5.26549 5.61841Z" fill="black"/>
<path d="M9.08004 9.43296C7.42336 9.94678 5.951 10.8796 4.78686 12.1075L5.49775 12.8184C6.66733 11.5774 8.18575 10.6687 9.8963 10.2492L9.08004 9.43296Z" fill="black"/>
<path d="M16.6063 11.2297L14.7247 9.34812C16.4775 9.83396 18.0368 10.785 19.2615 12.06L18.5507 12.7708C17.9784 12.1722 17.3242 11.6526 16.6063 11.2297Z" fill="black"/>
<path d="M14.0547 14.4076L15.4843 15.8372L15.0149 16.3065C14.283 15.4969 13.2243 14.9881 12.0469 14.9881C10.8458 14.9881 9.76831 15.5176 9.0351 16.3558L8.32672 15.6474C9.24204 14.6288 10.5697 13.9881 12.0469 13.9881C12.761 13.9881 13.4402 14.1379 14.0547 14.4076Z" fill="black"/>
<path d="M10.4435 5.06696L9.5789 4.20235C10.3818 4.06933 11.2063 4.00012 12.0469 4.00012C16.2586 4.00012 20.0645 5.73729 22.7873 8.53419L22.097 9.22447C19.5509 6.60418 15.989 4.97623 12.0469 4.97623C11.5047 4.97623 10.9697 5.00702 10.4435 5.06696Z" fill="black"/>
<path d="M12.7969 18.9882C12.7969 19.4024 12.4611 19.7382 12.0469 19.7382C11.6327 19.7382 11.2969 19.4024 11.2969 18.9882C11.2969 18.5739 11.6327 18.2382 12.0469 18.2382C12.4611 18.2382 12.7969 18.5739 12.7969 18.9882Z" fill="black"/>
</svg>
