<svg width="25" height="24" viewBox="0 0 25 24" fill="none" xmlns="http://www.w3.org/2000/svg">
<path d="M2.96139 0.988713C2.6685 0.69582 2.19362 0.69582 1.90073 0.988713C1.60784 1.28161 1.60784 1.75648 1.90073 2.04937L19.4566 19.6052C19.7495 19.8981 20.2244 19.8981 20.5172 19.6052C20.8101 19.3123 20.8101 18.8375 20.5172 18.5446L2.96139 0.988713Z" fill="black"/>
<path d="M0 8.92039C1.04101 7.84622 2.22251 6.90901 3.51488 6.13839L4.98018 7.60368C3.65691 8.33285 2.45555 9.256 1.41441 10.3348L0 8.92039Z" fill="black"/>
<path d="M4.59708 13.5175C5.64154 12.4186 6.92146 11.5457 8.35599 10.9795L9.93431 12.5578C8.41268 12.9794 7.06253 13.8135 6.01187 14.9323L4.59708 13.5175Z" fill="black"/>
<path d="M15.1009 10.6534L18.8466 14.399L19.7755 13.4701C18.5099 12.155 16.9047 11.169 15.1009 10.6534Z" fill="black"/>
<path d="M8.58481 4.13725L10.316 5.86841C10.936 5.79034 11.5678 5.75011 12.2089 5.75011C16.424 5.75011 20.2329 7.48865 22.9579 10.2878L24.3722 8.87343C21.2852 5.71245 16.9762 3.75011 12.2089 3.75011C10.9652 3.75011 9.75262 3.88368 8.58481 4.13725Z" fill="black"/>
<path d="M9.90645 18.8268L12.1626 21.083L14.4687 18.7769C13.9188 18.1476 13.1103 17.7501 12.2089 17.7501C11.284 17.7501 10.4568 18.1687 9.90645 18.8268Z" fill="black"/>
</svg>
