<svg width="24" height="24" viewBox="0 0 24 24" fill="none" xmlns="http://www.w3.org/2000/svg">
<path fill-rule="evenodd" clip-rule="evenodd" d="M0.123117 8.43565C0 9.21298 0 10.142 0 12C0 13.858 0 14.787 0.123117 15.5643C0.800832 19.8433 4.15673 23.1992 8.43565 23.8769C9.21298 24 10.142 24 12 24C13.858 24 14.787 24 15.5643 23.8769C19.8433 23.1992 23.1992 19.8433 23.8769 15.5643C24 14.787 24 13.858 24 12C24 10.142 24 9.21298 23.8769 8.43565C23.1992 4.15673 19.8433 0.800832 15.5643 0.123117C14.787 0 13.858 0 12 0C10.142 0 9.21298 0 8.43565 0.123117C4.15673 0.800832 0.800832 4.15673 0.123117 8.43565ZM4.91661 5.8383C5.11187 5.64303 5.42845 5.64303 5.62371 5.8383L17.1489 17.3635C17.3441 17.5587 17.3441 17.8753 17.1489 18.0706C16.9536 18.2658 16.637 18.2658 16.4418 18.0706L4.91661 6.5454C4.72134 6.35014 4.72134 6.03356 4.91661 5.8383ZM5.17651 8.92658C4.67747 9.29773 4.20954 9.70837 3.77736 10.1539L5.19177 11.5683C5.62306 11.1209 6.09784 10.7156 6.6093 10.3594L5.17651 8.92658ZM8.41573 12.1658C7.87917 12.4902 7.38968 12.8847 6.95992 13.3365L8.37476 14.7513C8.80305 14.2919 9.31685 13.9133 9.8908 13.6409L8.41573 12.1658ZM16.144 14.2372L13.1568 11.2501C14.6854 11.4968 16.0482 12.2386 17.0756 13.3056L16.144 14.2372ZM11.9131 15.6631L13.3155 17.0656L12.0023 18.3788L10.1449 16.5214C10.5788 16.0219 11.2077 15.6964 11.9131 15.6631ZM10.6648 8.75803L8.97734 7.07055C9.95022 6.80313 10.9747 6.66031 12.0325 6.66031C15.256 6.66031 18.1698 7.9866 20.2579 10.1233L18.8435 11.5376C17.1175 9.7628 14.7038 8.66031 12.0325 8.66031C11.5681 8.66031 11.1114 8.69363 10.6648 8.75803Z" fill="black"/>
</svg>
