<svg width="24" height="24" viewBox="0 0 24 24" fill="none" xmlns="http://www.w3.org/2000/svg">
<path d="M12.0469 14.988C13.2243 14.988 14.283 15.4968 15.0149 16.3064L15.7228 15.5986C14.8092 14.6083 13.5005 13.988 12.0469 13.988C10.5697 13.988 9.24204 14.6287 8.32672 15.6473L9.0351 16.3556C9.76831 15.5174 10.8458 14.988 12.0469 14.988Z" fill="black"/>
<path d="M12.0468 9.99047C14.6043 9.99047 16.9126 11.0575 18.5507 12.7707L19.2615 12.0599C17.4413 10.1649 14.8818 8.98551 12.0468 8.98551C9.18824 8.98551 6.60971 10.1847 4.78686 12.1074L5.49775 12.8183C7.13849 11.0773 9.46574 9.99047 12.0468 9.99047Z" fill="black"/>
<path d="M12.0469 4.97611C15.989 4.97611 19.5509 6.60405 22.097 9.22435L22.7873 8.53407C20.0645 5.73717 16.2586 4 12.0469 4C7.81157 4 3.98655 5.75673 1.26074 8.58128L1.95107 9.27161C4.50014 6.62364 8.08112 4.97611 12.0469 4.97611Z" fill="black"/>
<path d="M12.0469 19.738C12.4611 19.738 12.7969 19.4023 12.7969 18.988C12.7969 18.5738 12.4611 18.238 12.0469 18.238C11.6327 18.238 11.2969 18.5738 11.2969 18.988C11.2969 19.4023 11.6327 19.738 12.0469 19.738Z" fill="black"/>
</svg>
