<svg width="24" height="24" viewBox="0 0 24 24" fill="none" xmlns="http://www.w3.org/2000/svg">
<path d="M10.813 19.146L11.9999 20.3329L13.2405 19.0922C12.9665 18.7323 12.5336 18.5 12.0463 18.5C11.5352 18.5 11.0838 18.7556 10.813 19.146Z" fill="black"/>
<path d="M5.84919 14.1822C7.39975 12.5312 9.60261 11.4999 12.0463 11.4999C14.4664 11.4999 16.6503 12.5113 18.1983 14.1345L18.9056 13.4272C17.1764 11.6232 14.7425 10.4999 12.0463 10.4999C9.32647 10.4999 6.87357 11.6429 5.14177 13.4748L5.84919 14.1822Z" fill="black"/>
<path d="M0.898124 9.23116C3.71663 6.31399 7.66964 4.5 12.0463 4.5C16.3994 4.5 20.3333 6.29445 23.1488 9.18399L23.8559 8.47683C20.8595 5.40635 16.6755 3.5 12.0463 3.5C7.39349 3.5 3.19047 5.42587 0.190918 8.52395L0.898124 9.23116Z" fill="black"/>
</svg>
