<svg width="24" height="24" viewBox="0 0 24 24" fill="none" xmlns="http://www.w3.org/2000/svg">
<path d="M2.44566 1.59227C2.34803 1.49464 2.18974 1.49464 2.09211 1.59227C1.99448 1.6899 1.99448 1.84819 2.09211 1.94582L19.648 19.5017C19.7456 19.5993 19.9039 19.5993 20.0015 19.5017C20.0991 19.404 20.0991 19.2458 20.0015 19.1481L2.44566 1.59227Z" fill="black"/>
<path d="M0.368164 8.70089C1.35992 7.67604 2.48535 6.78136 3.71636 6.04493L4.08134 6.40991C2.84333 7.13709 1.71349 8.02861 0.721767 9.05449L0.368164 8.70089Z" fill="black"/>
<path d="M5.31906 13.6518C6.31499 12.5967 7.55638 11.7758 8.95191 11.2805L9.34618 11.6748C7.92892 12.1342 6.67011 12.9454 5.67277 14.0055L5.31906 13.6518Z" fill="black"/>
<path d="M14.3734 11.0451L15.1413 11.813C16.3772 12.2804 17.4796 13.0196 18.3756 13.9577L18.7292 13.6041C17.5604 12.3833 16.0603 11.4821 14.3734 11.0451Z" fill="black"/>
<path d="M7.67361 4.34533L8.08171 4.75343C9.34852 4.42492 10.6772 4.25011 12.0468 4.25011C16.4689 4.25011 20.4653 6.07253 23.326 9.00729L23.6796 8.65371C20.7284 5.62848 16.6069 3.75011 12.0468 3.75011C10.5317 3.75011 9.06503 3.95746 7.67361 4.34533Z" fill="black"/>
<path d="M11.1758 19.5085L12.0003 20.333L12.8825 19.4508C12.7037 19.1793 12.3962 19.0001 12.0468 19.0001C11.6732 19.0001 11.3475 19.205 11.1758 19.5085Z" fill="black"/>
</svg>
