<svg width="24" height="24" viewBox="0 0 24 24" fill="none" xmlns="http://www.w3.org/2000/svg">
<path fill-rule="evenodd" clip-rule="evenodd" d="M0.123117 8.43565C0 9.21298 0 10.142 0 12C0 13.858 0 14.787 0.123117 15.5643C0.800832 19.8433 4.15673 23.1992 8.43565 23.8769C9.21298 24 10.142 24 12 24C13.858 24 14.787 24 15.5643 23.8769C19.8433 23.1992 23.1992 19.8433 23.8769 15.5643C24 14.787 24 13.858 24 12C24 10.142 24 9.21298 23.8769 8.43565C23.1992 4.15673 19.8433 0.800832 15.5643 0.123117C14.787 0 13.858 0 12 0C10.142 0 9.21298 0 8.43565 0.123117C4.15673 0.800832 0.800832 4.15673 0.123117 8.43565ZM12.0022 18.3788L10.8548 17.2315C11.1296 16.8836 11.555 16.6604 12.0326 16.6604C12.4947 16.6604 12.908 16.8694 13.1831 17.1979L12.0022 18.3788ZM12.0325 12.6604C10.4505 12.6604 9.02445 13.3284 8.02106 14.3977L7.31365 13.6903C8.49827 12.4401 10.1743 11.6604 12.0325 11.6604C13.8753 11.6604 15.5389 12.4273 16.7218 13.6592L16.0145 14.3665C15.0128 13.3154 13.5991 12.6604 12.0325 12.6604ZM12.0326 8.16046C9.20794 8.16046 6.65679 9.33163 4.83827 11.2149L4.13106 10.5077C6.13063 8.44351 8.9318 7.16046 12.0326 7.16046C15.118 7.16046 17.9067 8.43073 19.9042 10.4768L19.1971 11.184C17.3805 9.31884 14.8419 8.16046 12.0326 8.16046Z" fill="black"/>
</svg>
