<svg width="24" height="24" viewBox="0 0 24 24" fill="none" xmlns="http://www.w3.org/2000/svg">
<path d="M12.0466 16C13.086 16 14.0196 16.4531 14.6606 17.1725L16.0763 15.7567C15.072 14.6761 13.6383 14 12.0466 14C10.4313 14 8.97869 14.6963 7.97247 15.8052L9.38932 17.222C10.0312 16.4739 10.9836 16 12.0466 16Z" fill="black"/>
<path d="M12.0466 10.9999C14.4667 10.9999 16.6505 12.0113 18.1986 13.6345L19.6131 12.22C17.7029 10.235 15.019 8.99994 12.0466 8.99994C9.0506 8.99994 6.34768 10.2547 4.43469 12.2674L5.84947 13.6822C7.40003 12.0312 9.60288 10.9999 12.0466 10.9999Z" fill="black"/>
<path d="M12.0466 6C15.8474 6 19.2813 7.57067 21.7347 10.0983L23.1491 8.68398C20.3336 5.79445 16.3997 4 12.0466 4C7.66995 4 3.71694 5.81399 0.898438 8.73115L2.31289 10.1456C4.76925 7.59027 8.22223 6 12.0466 6Z" fill="black"/>
<path d="M12.0466 20.5C12.5989 20.5 13.0466 20.0523 13.0466 19.5C13.0466 18.9477 12.5989 18.5 12.0466 18.5C11.4943 18.5 11.0466 18.9477 11.0466 19.5C11.0466 20.0523 11.4943 20.5 12.0466 20.5Z" fill="black"/>
</svg>
