<svg width="24" height="24" viewBox="0 0 24 24" fill="none" xmlns="http://www.w3.org/2000/svg">
<path d="M12.0466 15.5C13.155 15.5 14.1511 15.9809 14.8376 16.7454L15.8994 15.6837C14.9404 14.6482 13.5692 14 12.0466 14C10.5003 14 9.1102 14.6685 8.14942 15.7322L9.21202 16.7948C9.8996 16.0016 10.9145 15.5 12.0466 15.5Z" fill="black"/>
<path d="M12.0465 10.4999C14.5357 10.4999 16.782 11.5393 18.3753 13.2077L19.4362 12.1468C17.5713 10.2071 14.9499 8.99994 12.0465 8.99994C9.11958 8.99994 6.47918 10.2268 4.61148 12.1942L5.67256 13.2553C7.26844 11.5591 9.53379 10.4999 12.0465 10.4999Z" fill="black"/>
<path d="M12.0466 5.5C15.9164 5.5 19.4128 7.09864 21.9115 9.67155L22.9722 8.61078C20.202 5.76648 16.3306 4 12.0466 4C7.73893 4 3.84843 5.78602 1.0752 8.65795L2.13604 9.71879C4.63767 7.11823 8.15315 5.5 12.0466 5.5Z" fill="black"/>
<path d="M12.0466 20.25C12.5989 20.25 13.0466 19.8023 13.0466 19.25C13.0466 18.6977 12.5989 18.25 12.0466 18.25C11.4943 18.25 11.0466 18.6977 11.0466 19.25C11.0466 19.8023 11.4943 20.25 12.0466 20.25Z" fill="black"/>
</svg>
