<svg width="24" height="24" viewBox="0 0 24 24" fill="none" xmlns="http://www.w3.org/2000/svg">
<path fill-rule="evenodd" clip-rule="evenodd" d="M0.123117 8.43565C0 9.21298 0 10.142 0 12C0 13.858 0 14.787 0.123117 15.5643C0.800832 19.8433 4.15673 23.1992 8.43565 23.8769C9.21298 24 10.142 24 12 24C13.858 24 14.787 24 15.5643 23.8769C19.8433 23.1992 23.1992 19.8433 23.8769 15.5643C24 14.787 24 13.858 24 12C24 10.142 24 9.21298 23.8769 8.43565C23.1992 4.15673 19.8433 0.800832 15.5643 0.123117C14.787 0 13.858 0 12 0C10.142 0 9.21298 0 8.43565 0.123117C4.15673 0.800832 0.800832 4.15673 0.123117 8.43565ZM12.0023 18.3788L10.4995 16.876C10.8663 16.4385 11.417 16.1603 12.0327 16.1603C12.6328 16.1603 13.1713 16.4246 13.5378 16.8432L12.0023 18.3788ZM12.0326 12.9102C10.5195 12.9102 9.15596 13.5503 8.19789 14.5745L7.13677 13.5133C8.3667 12.218 10.1053 11.4102 12.0326 11.4102C13.9444 11.4102 15.6706 12.2051 16.8988 13.4823L15.8378 14.5433C14.8814 13.5373 13.5302 12.9102 12.0326 12.9102ZM12.0326 8.41031C9.27691 8.41031 6.78824 9.55352 5.01499 11.3915L3.95418 10.3307C5.99901 8.22133 8.86269 6.91031 12.0326 6.91031C15.187 6.91031 18.0383 8.2086 20.0811 10.3L19.0203 11.3608C17.2491 9.54076 14.7728 8.41031 12.0326 8.41031Z" fill="black"/>
</svg>
