<svg width="26" height="24" viewBox="0 0 26 24" fill="none" xmlns="http://www.w3.org/2000/svg">
<path d="M3.79881 1.23871C3.50591 0.94582 3.03104 0.94582 2.73814 1.23871C2.44525 1.53161 2.44525 2.00648 2.73814 2.29937L20.294 19.8552C20.5869 20.1481 21.0618 20.1481 21.3547 19.8552C21.6476 19.5623 21.6476 19.0875 21.3547 18.7946L3.79881 1.23871Z" fill="black"/>
<path d="M0.6604 8.99356C1.70145 7.91985 2.88087 6.98107 4.16992 6.20601L6.0017 8.0378C4.67395 8.76089 3.46963 9.68204 2.42842 10.7616L0.6604 8.99356Z" fill="black"/>
<path d="M5.25745 13.5906C6.30151 12.4935 7.575 11.6166 9.00099 11.0371L10.9759 13.012C9.44021 13.4088 8.07796 14.2368 7.02593 15.3591L5.25745 13.5906Z" fill="black"/>
<path d="M15.5871 10.5521L19.6839 14.6489L20.7895 13.5434C19.3968 12.0975 17.603 11.0407 15.5871 10.5521Z" fill="black"/>
<path d="M9.21258 4.1776L11.3783 6.34336C11.9257 6.28175 12.4822 6.25011 13.0461 6.25011C17.1921 6.25011 20.9386 7.96069 23.6183 10.7146L25.3862 8.94668C22.254 5.74044 17.8825 3.75011 13.0461 3.75011C11.7285 3.75011 10.4455 3.89783 9.21258 4.1776Z" fill="black"/>
<path d="M10.0344 18.3676L12.9998 21.333L16.0142 18.3186C15.2823 17.5089 14.2236 17.0001 13.0461 17.0001C11.845 17.0001 10.7676 17.5295 10.0344 18.3676Z" fill="black"/>
</svg>
