<svg width="24" height="24" viewBox="0 0 24 24" fill="none" xmlns="http://www.w3.org/2000/svg">
<path d="M3.62199 0.403527C3.42672 0.208265 3.11014 0.208265 2.91488 0.403527C2.71962 0.598789 2.71962 0.915371 2.91488 1.11063L20.4707 18.6665C20.666 18.8617 20.9826 18.8617 21.1778 18.6665C21.3731 18.4712 21.3731 18.1546 21.1778 17.9594L3.62199 0.403527Z" fill="black"/>
<path d="M5.26501 5.61841C3.76767 6.3794 2.41528 7.38454 1.26025 8.5814L1.95058 9.27173C3.10632 8.07115 4.47419 7.07623 5.99387 6.34728L5.26501 5.61841Z" fill="black"/>
<path d="M9.07955 9.43296C7.42287 9.94678 5.95051 10.8796 4.78637 12.1075L5.49726 12.8184C6.66684 11.5774 8.18526 10.6687 9.89581 10.2492L9.07955 9.43296Z" fill="black"/>
<path d="M16.6058 11.2297L14.7242 9.34812C16.477 9.83396 18.0363 10.785 19.261 12.06L18.5502 12.7708C17.9779 12.1722 17.3238 11.6526 16.6058 11.2297Z" fill="black"/>
<path d="M14.0542 14.4076L15.4838 15.8372L15.0145 16.3065C14.2825 15.4969 13.2239 14.9881 12.0464 14.9881C10.8453 14.9881 9.76782 15.5176 9.03461 16.3558L8.32623 15.6474C9.24155 14.6288 10.5692 13.9881 12.0464 13.9881C12.7605 13.9881 13.4397 14.1379 14.0542 14.4076Z" fill="black"/>
<path d="M10.443 5.06696L9.57842 4.20235C10.3813 4.06933 11.2058 4.00012 12.0464 4.00012C16.2581 4.00012 20.064 5.73729 22.7868 8.53419L22.0965 9.22447C19.5505 6.60418 15.9885 4.97623 12.0464 4.97623C11.5042 4.97623 10.9692 5.00702 10.443 5.06696Z" fill="black"/>
<path d="M12.7964 18.9882C12.7964 19.4024 12.4606 19.7382 12.0464 19.7382C11.6322 19.7382 11.2964 19.4024 11.2964 18.9882C11.2964 18.5739 11.6322 18.2382 12.0464 18.2382C12.4606 18.2382 12.7964 18.5739 12.7964 18.9882Z" fill="black"/>
</svg>
