<svg width="24" height="24" viewBox="0 0 24 24" fill="none" xmlns="http://www.w3.org/2000/svg">
<path fill-rule="evenodd" clip-rule="evenodd" d="M0.123117 8.43565C0 9.21298 0 10.142 0 12C0 13.858 0 14.787 0.123117 15.5643C0.800832 19.8433 4.15673 23.1992 8.43565 23.8769C9.21298 24 10.142 24 12 24C13.858 24 14.787 24 15.5643 23.8769C19.8433 23.1992 23.1992 19.8433 23.8769 15.5643C24 14.787 24 13.858 24 12C24 10.142 24 9.21298 23.8769 8.43565C23.1992 4.15673 19.8433 0.800832 15.5643 0.123117C14.787 0 13.858 0 12 0C10.142 0 9.21298 0 8.43565 0.123117C4.15673 0.800832 0.800832 4.15673 0.123117 8.43565ZM4.91667 5.83829C5.11193 5.64303 5.42851 5.64303 5.62378 5.83829L17.1489 17.3635C17.3442 17.5587 17.3442 17.8753 17.1489 18.0706C16.9537 18.2658 16.6371 18.2658 16.4418 18.0706L4.91667 6.5454C4.72141 6.35014 4.72141 6.03356 4.91667 5.83829ZM5.95045 8.99351C5.29041 9.43231 4.68048 9.9405 4.13106 10.5077L4.83827 11.2149C5.38736 10.6462 6.00325 10.1425 6.6733 9.71636L5.95045 8.99351ZM9.24415 12.2872C8.51579 12.6336 7.86206 13.1115 7.31365 13.6903L8.02106 14.3977C8.56999 13.8127 9.24541 13.3478 10.0037 13.0467L9.24415 12.2872ZM14.389 13.1894L12.9201 11.7205C14.4061 11.9234 15.7322 12.6286 16.7218 13.6592L16.0145 14.3665C15.552 13.8812 15.0016 13.4803 14.389 13.1894ZM9.6465 8.44692L8.83272 7.63314C9.84528 7.32576 10.9197 7.16046 12.0326 7.16046C15.118 7.16046 17.9067 8.43073 19.9042 10.4768L19.1971 11.184C17.3805 9.31884 14.8419 8.16046 12.0326 8.16046C11.2103 8.16046 10.4111 8.25972 9.6465 8.44692ZM12.0022 18.3788L10.8549 17.2315C11.1296 16.8836 11.555 16.6604 12.0326 16.6604C12.4947 16.6604 12.908 16.8694 13.1831 17.1979L12.0022 18.3788Z" fill="black"/>
</svg>
