<svg width="24" height="24" viewBox="0 0 24 24" fill="none" xmlns="http://www.w3.org/2000/svg">
<path fill-rule="evenodd" clip-rule="evenodd" d="M0.123117 8.43565C0 9.21298 0 10.142 0 12C0 13.858 0 14.787 0.123117 15.5643C0.800832 19.8433 4.15673 23.1992 8.43565 23.8769C9.21298 24 10.142 24 12 24C13.858 24 14.787 24 15.5643 23.8769C19.8433 23.1992 23.1992 19.8433 23.8769 15.5643C24 14.787 24 13.858 24 12C24 10.142 24 9.21298 23.8769 8.43565C23.1992 4.15673 19.8433 0.800832 15.5643 0.123117C14.787 0 13.858 0 12 0C10.142 0 9.21298 0 8.43565 0.123117C4.15673 0.800832 0.800832 4.15673 0.123117 8.43565ZM4.91666 5.8383C5.11193 5.64303 5.42851 5.64303 5.62377 5.8383L17.1489 17.3635C17.3442 17.5587 17.3442 17.8753 17.1489 18.0706C16.9537 18.2658 16.6371 18.2658 16.4418 18.0706L4.91666 6.5454C4.7214 6.35014 4.7214 6.03356 4.91666 5.8383ZM5.56061 8.95719C4.98271 9.36435 4.44487 9.82456 3.95418 10.3307L5.01499 11.3915C5.50507 10.8836 6.0498 10.4287 6.6397 10.0363L5.56061 8.95719ZM8.82371 12.2203C8.19447 12.5609 7.62547 12.9986 7.13677 13.5133L8.19789 14.5745C8.68624 14.0524 9.27993 13.6302 9.94507 13.3417L8.82371 12.2203ZM15.9671 14.414L13.0377 11.4846C14.5453 11.7097 15.89 12.4333 16.8988 13.4823L15.9671 14.414ZM13.0294 16.4259L13.4923 16.8888L12.0023 18.3788L10.4995 16.876C10.8663 16.4385 11.417 16.1603 12.0327 16.1603C12.3956 16.1603 12.7359 16.257 13.0294 16.4259ZM10.1459 8.59271L8.90417 7.351C9.89733 7.06407 10.947 6.91031 12.0326 6.91031C15.187 6.91031 18.0383 8.20861 20.0811 10.3L19.0203 11.3608C17.2491 9.54076 14.7728 8.41031 12.0326 8.41031C11.3871 8.41031 10.7563 8.47303 10.1459 8.59271Z" fill="black"/>
</svg>
