<svg width="25" height="24" viewBox="0 0 25 24" fill="none" xmlns="http://www.w3.org/2000/svg">
<path d="M10.4547 19.2881L11.9995 20.8329L13.5961 19.2363C13.2293 18.7869 12.6711 18.5 12.0458 18.5C11.3969 18.5 10.8201 18.8091 10.4547 19.2881Z" fill="black"/>
<path d="M6.02564 14.8591C7.53087 13.2533 9.6712 12.25 12.0458 12.25C14.3969 12.25 16.5182 13.2334 18.021 14.8114L19.0819 13.7504C17.3075 11.9012 14.8111 10.75 12.0458 10.75C9.25699 10.75 6.74161 11.9209 4.9645 13.7979L6.02564 14.8591Z" fill="black"/>
<path d="M1.07448 9.90792C3.84772 7.03601 7.73821 5.25 12.0458 5.25C16.3299 5.25 20.2013 7.01649 22.9715 9.86082L24.0323 8.80007C20.9906 5.68434 16.7441 3.75 12.0458 3.75C7.324 3.75 3.05848 5.70382 0.0136719 8.84711L1.07448 9.90792Z" fill="black"/>
</svg>
