<svg width="24" height="24" viewBox="0 0 24 24" fill="none" xmlns="http://www.w3.org/2000/svg">
<path d="M12.0464 15.5C13.0168 15.5 13.8878 15.9252 14.4833 16.5996L16.253 14.8299C15.2034 13.704 13.7071 13 12.0464 13C10.3621 13 8.84693 13.7242 7.7953 14.8782L9.56646 16.6494C10.1626 15.9463 11.0524 15.5 12.0464 15.5Z" fill="black"/>
<path d="M12.0464 10.4999C14.3974 10.4999 16.5188 11.4834 18.0215 13.0613L19.7897 11.2932C17.8342 9.26298 15.0878 7.99994 12.0464 7.99994C8.98136 7.99994 6.21594 9.28266 4.25766 11.3406L6.02614 13.1091C7.53138 11.5032 9.67171 10.4999 12.0464 10.4999Z" fill="black"/>
<path d="M12.0464 5.5C15.7782 5.5 19.1496 7.0427 21.5577 9.52513L23.3257 7.75719C20.465 4.82243 16.4685 3 12.0464 3C7.60071 3 3.5852 4.84196 0.721436 7.80435L2.48951 9.57242C4.90059 7.0623 8.29107 5.5 12.0464 5.5Z" fill="black"/>
<path d="M12.0464 20C12.7368 20 13.2964 19.4404 13.2964 18.75C13.2964 18.0596 12.7368 17.5 12.0464 17.5C11.3561 17.5 10.7964 18.0596 10.7964 18.75C10.7964 19.4404 11.3561 20 12.0464 20Z" fill="black"/>
</svg>
