<svg width="25" height="24" viewBox="0 0 25 24" fill="none" xmlns="http://www.w3.org/2000/svg">
<path d="M9.90645 18.8267L12.1626 21.0829L14.4687 18.7768C13.9188 18.1475 13.1103 17.75 12.2089 17.75C11.284 17.75 10.4568 18.1686 9.90645 18.8267Z" fill="black"/>
<path d="M6.01187 14.9321C7.56242 13.2811 9.76526 12.2499 12.2089 12.2499C14.6291 12.2499 16.8129 13.2614 18.361 14.8845L19.7755 13.47C17.8653 11.485 15.1813 10.2499 12.2089 10.2499C9.21297 10.2499 6.51008 11.5047 4.59708 13.5174L6.01187 14.9321Z" fill="black"/>
<path d="M1.41441 10.3347C4.14238 7.50803 7.97035 5.75 12.2089 5.75C16.424 5.75 20.2329 7.48854 22.9579 10.2876L24.3722 8.87332C21.2852 5.71233 16.9762 3.75 12.2089 3.75C7.41807 3.75 3.09007 5.73178 0 8.92028L1.41441 10.3347Z" fill="black"/>
</svg>
