<svg width="24" height="24" viewBox="0 0 24 24" fill="none" xmlns="http://www.w3.org/2000/svg">
<path d="M3.79901 0.738713C3.50611 0.44582 3.03124 0.44582 2.73835 0.738713C2.44545 1.03161 2.44545 1.50648 2.73835 1.79937L20.2942 19.3552C20.5871 19.6481 21.062 19.6481 21.3549 19.3552C21.6478 19.0623 21.6478 18.5875 21.3549 18.2946L3.79901 0.738713Z" fill="black"/>
<path d="M4.90896 5.73778C3.41276 6.51535 2.05936 7.52975 0.898438 8.7313L2.31289 10.1458C3.47537 8.93644 4.86106 7.94327 6.40369 7.2325L4.90896 5.73778Z" fill="black"/>
<path d="M8.71188 9.54069C7.06686 10.0913 5.60336 11.038 4.43469 12.2676L5.84947 13.6823C7.02964 12.4257 8.58769 11.5281 10.3422 11.171L8.71188 9.54069Z" fill="black"/>
<path d="M18.3306 13.5026L14.0117 9.18368C16.1924 9.59654 18.1345 10.6837 19.6131 12.2201L18.3306 13.5026Z" fill="black"/>
<path d="M13.3193 14.1481L15.5022 16.331L14.6606 17.1726C14.0196 16.4532 13.086 16.0002 12.0466 16.0002C10.9836 16.0002 10.0312 16.4741 9.38932 17.2222L7.97247 15.8053C8.97869 14.6965 10.4313 14.0002 12.0466 14.0002C12.4847 14.0002 12.9108 14.0514 13.3193 14.1481Z" fill="black"/>
<path d="M10.8781 6.05003L9.10665 4.27861C10.0586 4.09584 11.0414 4.00015 12.0466 4.00015C16.3997 4.00015 20.3336 5.7946 23.1491 8.68414L21.7347 10.0985C19.2813 7.57082 15.8474 6.00015 12.0466 6.00015C11.653 6.00015 11.2632 6.017 10.8781 6.05003Z" fill="black"/>
<path d="M13.0466 19.5001C13.0466 20.0524 12.5989 20.5001 12.0466 20.5001C11.4943 20.5001 11.0466 20.0524 11.0466 19.5001C11.0466 18.9478 11.4943 18.5001 12.0466 18.5001C12.5989 18.5001 13.0466 18.9478 13.0466 19.5001Z" fill="black"/>
</svg>
