<svg width="24" height="24" viewBox="0 0 24 24" fill="none" xmlns="http://www.w3.org/2000/svg">
<path d="M3.44532 0.580303C3.34769 0.482672 3.1894 0.482672 3.09177 0.580303C2.99414 0.677934 2.99414 0.836226 3.09177 0.933857L20.6476 18.4897C20.7453 18.5873 20.9035 18.5873 21.0012 18.4897C21.0988 18.3921 21.0988 18.2338 21.0012 18.1362L3.44532 0.580303Z" fill="black"/>
<path d="M5.94534 5.55521C4.2417 6.33023 2.71143 7.41981 1.42871 8.74975L1.78232 9.10337C3.06579 7.77096 4.60625 6.68785 6.32392 5.9338L5.94534 5.55521Z" fill="black"/>
<path d="M9.87169 9.48157C7.96212 9.91659 6.26582 10.9122 4.96506 12.2861L5.31876 12.6398C6.62406 11.257 8.35102 10.2765 10.294 9.9039L9.87169 9.48157Z" fill="black"/>
<path d="M14.7821 10.1493L14.0842 9.45139C16.0274 9.86458 17.7565 10.8567 19.0825 12.2386L18.7289 12.5922C17.6554 11.471 16.3025 10.6194 14.7821 10.1493Z" fill="black"/>
<path d="M9.58309 4.95033L9.15438 4.52162C10.0896 4.33569 11.0567 4.23819 12.0465 4.23819C16.1924 4.23819 19.9389 5.94872 22.6186 8.70255L22.265 9.05614C19.6758 6.39277 16.0544 4.73819 12.0465 4.73819C11.2064 4.73819 10.3833 4.81089 9.58309 4.95033Z" fill="black"/>
<path d="M12.0465 14.7382C13.293 14.7382 14.4141 15.2748 15.1915 16.1296L15.5454 15.7757C14.6772 14.8305 13.431 14.2382 12.0465 14.2382C10.6383 14.2382 9.37322 14.851 8.50338 15.8244L8.85756 16.1786C9.63635 15.2953 10.7764 14.7382 12.0465 14.7382Z" fill="black"/>
<path d="M12.7965 18.9882C12.7965 19.4024 12.4607 19.7382 12.0465 19.7382C11.6323 19.7382 11.2965 19.4024 11.2965 18.9882C11.2965 18.5739 11.6323 18.2382 12.0465 18.2382C12.4607 18.2382 12.7965 18.5739 12.7965 18.9882Z" fill="black"/>
</svg>
