<svg width="24" height="24" viewBox="0 0 24 24" fill="none" xmlns="http://www.w3.org/2000/svg">
<path d="M12.0464 16C13.0858 16 14.0193 16.4531 14.6604 17.1725L16.0761 15.7567C15.0718 14.6761 13.638 14 12.0464 14C10.4311 14 8.97845 14.6963 7.97223 15.8052L9.38908 17.222C10.031 16.4739 10.9833 16 12.0464 16Z" fill="black"/>
<path d="M12.0463 10.9999C14.4664 10.9999 16.6503 12.0113 18.1983 13.6345L19.6129 12.22C17.7026 10.235 15.0187 8.99994 12.0463 8.99994C9.05035 8.99994 6.34744 10.2547 4.43444 12.2674L5.84922 13.6822C7.39978 12.0312 9.60263 10.9999 12.0463 10.9999Z" fill="black"/>
<path d="M12.0464 6C15.8472 6 19.2811 7.57067 21.7345 10.0983L23.1488 8.68398C20.3334 5.79445 16.3994 4 12.0464 4C7.6697 4 3.7167 5.81399 0.898193 8.73115L2.31265 10.1456C4.76901 7.59027 8.22199 6 12.0464 6Z" fill="black"/>
<path d="M12.0464 20.5C12.5987 20.5 13.0464 20.0523 13.0464 19.5C13.0464 18.9477 12.5987 18.5 12.0464 18.5C11.4941 18.5 11.0464 18.9477 11.0464 19.5C11.0464 20.0523 11.4941 20.5 12.0464 20.5Z" fill="black"/>
</svg>
