<svg width="24" height="24" viewBox="0 0 24 24" fill="none" xmlns="http://www.w3.org/2000/svg">
<path d="M12.0464 14.988C13.2239 14.988 14.2825 15.4968 15.0145 16.3064L15.7223 15.5986C14.8087 14.6083 13.5 13.988 12.0464 13.988C10.5692 13.988 9.24155 14.6287 8.32623 15.6473L9.03461 16.3556C9.76782 15.5174 10.8453 14.988 12.0464 14.988Z" fill="black"/>
<path d="M12.0464 9.99047C14.6038 9.99047 16.9121 11.0575 18.5502 12.7707L19.261 12.0599C17.4409 10.1649 14.8813 8.98551 12.0464 8.98551C9.18775 8.98551 6.60922 10.1847 4.78637 12.1074L5.49726 12.8183C7.138 11.0773 9.46526 9.99047 12.0464 9.99047Z" fill="black"/>
<path d="M12.0464 4.97611C15.9885 4.97611 19.5505 6.60405 22.0965 9.22435L22.7868 8.53407C20.064 5.73717 16.2581 4 12.0464 4C7.81108 4 3.98606 5.75673 1.26025 8.58128L1.95058 9.27161C4.49965 6.62364 8.08063 4.97611 12.0464 4.97611Z" fill="black"/>
<path d="M12.0464 19.738C12.4606 19.738 12.7964 19.4023 12.7964 18.988C12.7964 18.5738 12.4606 18.238 12.0464 18.238C11.6322 18.238 11.2964 18.5738 11.2964 18.988C11.2964 19.4023 11.6322 19.738 12.0464 19.738Z" fill="black"/>
</svg>
