<svg width="24" height="24" viewBox="0 0 24 24" fill="none" xmlns="http://www.w3.org/2000/svg">
<path fill-rule="evenodd" clip-rule="evenodd" d="M0.123117 8.43565C0 9.21298 0 10.142 0 12C0 13.858 0 14.787 0.123117 15.5643C0.800832 19.8433 4.15673 23.1992 8.43565 23.8769C9.21298 24 10.142 24 12 24C13.858 24 14.787 24 15.5643 23.8769C19.8433 23.1992 23.1992 19.8433 23.8769 15.5643C24 14.787 24 13.858 24 12C24 10.142 24 9.21298 23.8769 8.43565C23.1992 4.15673 19.8433 0.800832 15.5643 0.123117C14.787 0 13.858 0 12 0C10.142 0 9.21298 0 8.43565 0.123117C4.15673 0.800832 0.800832 4.15673 0.123117 8.43565ZM12.0023 18.3788L10.1449 16.5214C10.6032 15.9939 11.279 15.6603 12.0328 15.6603C12.771 15.6603 13.4344 15.9803 13.8921 16.489L12.0023 18.3788ZM12.0325 13.1602C10.5885 13.1602 9.28749 13.7724 8.37476 14.7513L6.95992 13.3365C8.23513 11.9959 10.0362 11.1602 12.0325 11.1602C14.0134 11.1602 15.8021 11.9831 17.0756 13.3056L15.661 14.7201C14.7498 13.7594 13.4611 13.1602 12.0325 13.1602ZM12.0325 8.66031C9.3459 8.66031 6.91976 9.77553 5.19177 11.5683L3.77736 10.1539C5.86745 7.99928 8.79362 6.66031 12.0325 6.66031C15.256 6.66031 18.1698 7.9866 20.2579 10.1233L18.8435 11.5376C17.1175 9.7628 14.7038 8.66031 12.0325 8.66031Z" fill="black"/>
</svg>
