<svg width="24" height="24" viewBox="0 0 24 24" fill="none" xmlns="http://www.w3.org/2000/svg">
<path fill-rule="evenodd" clip-rule="evenodd" d="M0.123117 8.43565C0 9.21298 0 10.142 0 12C0 13.858 0 14.787 0.123117 15.5643C0.800832 19.8433 4.15673 23.1992 8.43565 23.8769C9.21298 24 10.142 24 12 24C13.858 24 14.787 24 15.5643 23.8769C19.8433 23.1992 23.1992 19.8433 23.8769 15.5643C24 14.787 24 13.858 24 12C24 10.142 24 9.21298 23.8769 8.43565C23.1992 4.15673 19.8433 0.800832 15.5643 0.123117C14.787 0 13.858 0 12 0C10.142 0 9.21298 0 8.43565 0.123117C4.15673 0.800832 0.800832 4.15673 0.123117 8.43565ZM4.91657 5.8383C5.11183 5.64303 5.42841 5.64303 5.62367 5.8383L17.1488 17.3635C17.3441 17.5587 17.3441 17.8753 17.1488 18.0706C16.9536 18.2658 16.637 18.2658 16.4417 18.0706L4.91657 6.5454C4.72131 6.35014 4.72131 6.03356 4.91657 5.8383ZM4.99789 8.74799C4.5001 9.12064 4.03285 9.53186 3.60057 9.9772L5.36858 11.7452C5.79974 11.2974 6.27561 10.893 6.789 10.5391L4.99789 8.74799ZM8.23385 11.984C7.70054 12.3127 7.21303 12.7085 6.78309 13.1597L8.55165 14.9283C8.97979 14.4674 9.49836 14.0916 10.0791 13.8292L8.23385 11.984ZM16.1439 14.2371L12.8642 10.9574C14.5804 11.1534 16.1146 11.9486 17.2524 13.1287L16.1439 14.2371ZM11.6823 15.4324L13.3155 17.0656L12.0022 18.3788L9.96756 16.3442C10.3988 15.8542 11.0017 15.5189 11.6823 15.4324ZM10.8873 8.98052L8.77461 6.86786C9.80912 6.56993 10.9022 6.41031 12.0326 6.41031C15.3251 6.41031 18.3013 7.76453 20.4346 9.94637L18.6667 11.7143C16.986 9.98479 14.6348 8.91031 12.0326 8.91031C11.6448 8.91031 11.2626 8.93417 10.8873 8.98052Z" fill="black"/>
</svg>
