<svg width="24" height="24" viewBox="0 0 24 24" fill="none" xmlns="http://www.w3.org/2000/svg">
<path d="M11.1754 19.5084L11.9999 20.3329L12.8822 19.4507C12.7033 19.1792 12.3958 19 12.0464 19C11.6728 19 11.3471 19.2049 11.1754 19.5084Z" fill="black"/>
<path d="M5.6724 14.0054C7.26828 12.3091 9.53366 11.2499 12.0464 11.2499C14.5355 11.2499 16.7819 12.2893 18.3752 13.9576L18.7288 13.604C17.045 11.8452 14.6736 10.7499 12.0464 10.7499C9.39559 10.7499 7.0052 11.865 5.31869 13.6517L5.6724 14.0054Z" fill="black"/>
<path d="M0.721401 9.05438C3.58517 6.09197 7.60069 4.25 12.0464 4.25C16.4685 4.25 20.4649 6.07242 23.3256 9.00718L23.6792 8.65359C20.728 5.62837 16.6066 3.75 12.0464 3.75C7.46262 3.75 3.32209 5.64791 0.367798 8.70077L0.721401 9.05438Z" fill="black"/>
</svg>
