<svg width="26" height="24" viewBox="0 0 26 24" fill="none" xmlns="http://www.w3.org/2000/svg">
<path d="M10.7439 18.8267L13 21.0829L15.3061 18.7768C14.7562 18.1475 13.9477 17.75 13.0463 17.75C12.1214 17.75 11.2942 18.1686 10.7439 18.8267Z" fill="black"/>
<path d="M6.84927 14.9321C8.39983 13.2811 10.6027 12.2499 13.0463 12.2499C15.4665 12.2499 17.6503 13.2614 19.1984 14.8845L20.6129 13.47C18.7027 11.485 16.0187 10.2499 13.0463 10.2499C10.0504 10.2499 7.34748 11.5047 5.43449 13.5174L6.84927 14.9321Z" fill="black"/>
<path d="M2.25181 10.3347C4.97978 7.50803 8.80776 5.75 13.0463 5.75C17.2614 5.75 21.0703 7.48854 23.7953 10.2876L25.2096 8.87332C22.1226 5.71233 17.8136 3.75 13.0463 3.75C8.25547 3.75 3.92747 5.73178 0.837402 8.92028L2.25181 10.3347Z" fill="black"/>
</svg>
