<svg width="24" height="24" viewBox="0 0 24 24" fill="none" xmlns="http://www.w3.org/2000/svg">
<path d="M12.0465 15.5C13.1549 15.5 14.151 15.9809 14.8375 16.7454L15.8992 15.6837C14.9403 14.6482 13.5691 14 12.0465 14C10.5002 14 9.11008 14.6685 8.1493 15.7322L9.21189 16.7948C9.89948 16.0016 10.9144 15.5 12.0465 15.5Z" fill="black"/>
<path d="M12.0464 10.4999C14.5355 10.4999 16.7819 11.5393 18.3752 13.2077L19.4361 12.1468C17.5711 10.2071 14.9497 8.99994 12.0464 8.99994C9.11946 8.99994 6.47905 10.2268 4.61135 12.1942L5.67244 13.2553C7.26832 11.5591 9.53367 10.4999 12.0464 10.4999Z" fill="black"/>
<path d="M12.0465 5.5C15.9163 5.5 19.4127 7.09864 21.9113 9.67155L22.9721 8.61078C20.2019 5.76648 16.3305 4 12.0465 4C7.73881 4 3.84831 5.78602 1.07507 8.65795L2.13591 9.71879C4.63754 7.11823 8.15303 5.5 12.0465 5.5Z" fill="black"/>
<path d="M12.0465 20.25C12.5987 20.25 13.0465 19.8023 13.0465 19.25C13.0465 18.6977 12.5987 18.25 12.0465 18.25C11.4942 18.25 11.0465 18.6977 11.0465 19.25C11.0465 19.8023 11.4942 20.25 12.0465 20.25Z" fill="black"/>
</svg>
