<svg width="24" height="24" viewBox="0 0 24 24" fill="none" xmlns="http://www.w3.org/2000/svg">
<path d="M9.63141 7.63131C9.97311 7.2896 10.5271 7.28958 10.8688 7.63129L13.9067 10.669L16.9446 7.63129C17.2863 7.28958 17.8403 7.2896 18.182 7.63131C18.5237 7.97303 18.5237 8.52705 18.182 8.86875L15.1442 11.9064L18.1819 14.944C18.5236 15.2857 18.5236 15.8397 18.1819 16.1814C17.8402 16.5232 17.2862 16.5232 16.9445 16.1815L13.9067 13.1438L10.8689 16.1815C10.5272 16.5232 9.9732 16.5232 9.6315 16.1814C9.2898 15.8397 9.28981 15.2857 9.63153 14.944L12.6692 11.9064L9.63144 8.86875C9.28972 8.52705 9.28971 7.97303 9.63141 7.63131Z" fill="black"/>
<path fill-rule="evenodd" clip-rule="evenodd" d="M10.613 3.12496L10.6629 3.12503L20.4293 3.12503C20.6842 3.125 20.9253 3.12498 21.1282 3.14156C21.3491 3.1596 21.6005 3.20157 21.8514 3.32939C22.2042 3.50915 22.491 3.79599 22.6708 4.1488C22.7986 4.39966 22.8406 4.65111 22.8586 4.87198C22.8752 5.07489 22.8752 5.316 22.8752 5.57082V18.4292C22.8752 18.6841 22.8752 18.9252 22.8586 19.1281C22.8406 19.3489 22.7986 19.6004 22.6708 19.8513C22.491 20.2041 22.2042 20.4909 21.8514 20.6707C21.6005 20.7985 21.3491 20.8405 21.1282 20.8585C20.9253 20.8751 20.6842 20.8751 20.4294 20.875H3.57094C3.31612 20.8751 3.07501 20.8751 2.8721 20.8585C2.65124 20.8405 2.39978 20.7985 2.14892 20.6707C1.79611 20.4909 1.50928 20.2041 1.32951 19.8513C1.20169 19.6004 1.15973 19.3489 1.14168 19.1281C1.1251 18.9252 1.12512 18.6841 1.12515 18.4292L1.12515 12.6628L1.12508 12.6129C1.12465 12.4205 1.12416 12.1964 1.17696 11.9765C1.22289 11.7852 1.29865 11.6023 1.40145 11.4346C1.51962 11.2417 1.67838 11.0837 1.81472 10.9479L1.85006 10.9127L8.9128 3.84994L8.94804 3.8146C9.08378 3.67826 9.24185 3.5195 9.43468 3.40133C9.60244 3.29852 9.78534 3.22277 9.97665 3.17684C10.1966 3.12404 10.4206 3.12453 10.613 3.12496ZM10.3801 4.87981C10.3709 4.88244 10.362 4.88613 10.3536 4.89081C10.3496 4.89402 10.3416 4.90074 10.3285 4.91269C10.2908 4.9471 10.2421 4.99551 10.1502 5.08738L4.1126 11.125H10.2968L11.0782 11.9064L10.1096 12.875H2.87515V18.4C2.87515 18.6945 2.87583 18.8627 2.88587 18.9856C2.8895 19.0301 2.89366 19.0563 2.89619 19.0694C2.90532 19.0831 2.91707 19.0949 2.93074 19.104C2.9439 19.1065 2.97012 19.1107 3.01461 19.1143C3.13746 19.1243 3.30569 19.125 3.60015 19.125H20.4002C20.6946 19.125 20.8628 19.1243 20.9857 19.1143C21.0302 19.1107 21.0564 19.1065 21.0696 19.104C21.0832 19.0949 21.095 19.0831 21.1041 19.0694C21.1066 19.0563 21.1108 19.0301 21.1144 18.9856C21.1245 18.8627 21.1252 18.6945 21.1252 18.4V12.875H17.7038L16.7352 11.9064L17.5166 11.125H21.1252V5.60003C21.1252 5.30556 21.1245 5.13734 21.1144 5.01448C21.1108 4.97 21.1066 4.94377 21.1041 4.93061C21.095 4.91694 21.0832 4.9052 21.0696 4.89607C21.0564 4.89353 21.0302 4.88938 20.9857 4.88575C20.8628 4.87571 20.6946 4.87503 20.4002 4.87503H10.6629C10.533 4.87503 10.4643 4.87524 10.4133 4.87757C10.3956 4.87838 10.3852 4.87928 10.3801 4.87981Z" fill="black"/>
</svg>
