<svg width="24" height="24" viewBox="0 0 24 24" fill="none" xmlns="http://www.w3.org/2000/svg">
<path d="M9.89648 7.89649C10.0917 7.70123 10.4083 7.70122 10.6036 7.89648L13.9066 11.1994L17.2096 7.89648C17.4049 7.70122 17.7215 7.70123 17.9167 7.89649C18.112 8.09176 18.112 8.40834 17.9167 8.6036L14.6137 11.9064L17.9166 15.2092C18.1119 15.4045 18.1119 15.721 17.9167 15.9163C17.7214 16.1116 17.4048 16.1116 17.2095 15.9163L13.9066 12.6135L10.6037 15.9163C10.4084 16.1116 10.0918 16.1116 9.89657 15.9163C9.70131 15.721 9.70132 15.4045 9.89659 15.2092L13.1995 11.9064L9.89649 8.6036C9.70123 8.40834 9.70122 8.09176 9.89648 7.89649Z" fill="black"/>
<path fill-rule="evenodd" clip-rule="evenodd" d="M10.6211 3.50003L20.4193 3.50005C20.6829 3.50004 20.9103 3.50003 21.0976 3.51534C21.2952 3.53149 21.4918 3.56714 21.681 3.66354C21.9633 3.80735 22.1928 4.03682 22.3366 4.31907C22.433 4.50826 22.4686 4.70486 22.4848 4.90254C22.5001 5.08982 22.5001 5.3172 22.5001 5.58077V18.4193C22.5001 18.6829 22.5001 18.9103 22.4848 19.0976C22.4686 19.2952 22.433 19.4918 22.3366 19.681C22.1928 19.9633 21.9633 20.1928 21.681 20.3366C21.4918 20.433 21.2952 20.4686 21.0976 20.4848C20.9103 20.5001 20.6829 20.5001 20.4193 20.5001H3.58077C3.3172 20.5001 3.08982 20.5001 2.90254 20.4848C2.70486 20.4686 2.50826 20.433 2.31907 20.3366C2.03682 20.1928 1.80735 19.9633 1.66354 19.681C1.56714 19.4918 1.53149 19.2952 1.51534 19.0976C1.50003 18.9103 1.50004 18.6829 1.50005 18.4193L1.50003 12.6211C1.49984 12.4177 1.49967 12.2383 1.5415 12.0641C1.57824 11.911 1.63885 11.7647 1.72109 11.6305C1.81471 11.4777 1.94166 11.351 2.08566 11.2073L9.2073 4.08566C9.35103 3.94166 9.47775 3.81471 9.63052 3.72109C9.76472 3.63885 9.91104 3.57824 10.0641 3.5415C10.2383 3.49967 10.4177 3.49984 10.6211 3.50003ZM10.6628 4.50005C10.3944 4.50005 10.3417 4.50326 10.2975 4.51387C10.2465 4.52611 10.1978 4.54632 10.153 4.57373C10.1143 4.59746 10.0748 4.63245 9.88498 4.82223L3.20717 11.5H11.3788L11.7852 11.9064L11.1916 12.5H2.5007C2.50025 12.5432 2.50005 12.5964 2.50005 12.6628V18.4001C2.50005 18.6883 2.50044 18.8745 2.51201 19.0161C2.52311 19.152 2.54195 19.2023 2.55455 19.227C2.60248 19.3211 2.67897 19.3976 2.77306 19.4456C2.79778 19.4581 2.84814 19.477 2.98397 19.4881C3.12564 19.4997 3.31177 19.5001 3.60005 19.5001H20.4001C20.6883 19.5001 20.8745 19.4997 21.0161 19.4881C21.152 19.477 21.2023 19.4581 21.227 19.4456C21.3211 19.3976 21.3976 19.3211 21.4456 19.227C21.4582 19.2023 21.477 19.152 21.4881 19.0161C21.4997 18.8745 21.5001 18.6883 21.5001 18.4001V12.5H16.6216L16.028 11.9064L16.4344 11.5H21.5001V5.60005C21.5001 5.31177 21.4997 5.12564 21.4881 4.98397C21.477 4.84814 21.4582 4.79778 21.4456 4.77306C21.3976 4.67897 21.3211 4.60248 21.227 4.55455C21.2023 4.54195 21.152 4.52311 21.0161 4.51201C20.8745 4.50044 20.6883 4.50005 20.4001 4.50005H10.6628Z" fill="black"/>
</svg>
