<svg width="24" height="24" viewBox="0 0 24 24" fill="none" xmlns="http://www.w3.org/2000/svg">
<path d="M1.16973 5.36933C4.30849 3.69736 7.89437 2.75 11.6986 2.75C15.7701 2.75 19.5911 3.83512 22.8815 5.73189C23.7566 6.23632 23.9977 7.35264 23.4792 8.17222L18.6554 15.7969C18.1425 16.6077 17.1129 16.8228 16.3277 16.4034C15.1085 15.7523 13.7343 15.35 12.2715 15.2663L10.9743 12.7709C11.214 12.757 11.4555 12.75 11.6986 12.75C13.5553 12.75 15.3187 13.1604 16.8998 13.8959L20.9368 7.51483C18.1787 6.06888 15.0365 5.25 11.6986 5.25C8.60745 5.25 5.68437 5.95228 3.07888 7.20425L5.84661 11.5791L8.10593 15.9254C7.93286 15.9933 7.76222 16.0659 7.59418 16.1431C6.81977 16.4989 5.85173 16.2633 5.36195 15.4891L0.52136 7.83774C-0.00889707 6.99958 0.257152 5.85544 1.16973 5.36933Z" fill="black"/>
<path d="M6.03889 7.61277C6.52892 7.35804 7.13267 7.54879 7.3874 8.03882L11.9238 16.7657C12.7793 16.8804 13.4391 17.6132 13.4391 18.5001C13.4391 19.4666 12.6556 20.2501 11.6891 20.2501C10.7226 20.2501 9.93912 19.4666 9.93912 18.5001C9.93912 18.2029 10.0132 17.923 10.1439 17.6779L5.61284 8.96128C5.35811 8.47125 5.54886 7.8675 6.03889 7.61277Z" fill="black"/>
</svg>
