<svg width="24" height="24" viewBox="0 0 24 24" fill="none" xmlns="http://www.w3.org/2000/svg">
<path d="M11.6985 3C7.93617 3 4.39055 3.93683 1.28712 5.58997C0.506593 6.00575 0.277711 6.98523 0.732487 7.70408L5.57308 15.3554C5.99252 16.0184 6.8232 16.2221 7.48967 15.9159C7.7298 15.8056 7.97507 15.7044 8.22506 15.6129L4.94722 9.30715C4.50144 8.44959 4.83526 7.39303 5.69281 6.94726C6.55037 6.50148 7.60693 6.83529 8.0527 7.69285L11.8517 15.0011C13.5135 15.0258 15.0748 15.4509 16.4453 16.1829C17.1212 16.5439 18.0048 16.3576 18.444 15.6633L23.2678 8.03856C23.7125 7.33566 23.505 6.37994 22.7565 5.94848C19.5031 4.07304 15.725 3 11.6985 3Z" fill="black"/>
<path d="M6.09638 7.72356C6.52516 7.50067 7.05344 7.66758 7.27633 8.09635L11.9133 17.0166C12.6353 17.1249 13.189 17.7478 13.189 18.5C13.189 19.3284 12.5174 20 11.689 20C10.8605 20 10.189 19.3284 10.189 18.5C10.189 18.2525 10.2489 18.019 10.3551 17.8132L5.72359 8.9035C5.5007 8.47473 5.6676 7.94645 6.09638 7.72356Z" fill="black"/>
</svg>
