<svg width="24" height="24" viewBox="0 0 24 24" fill="none" xmlns="http://www.w3.org/2000/svg">
<path d="M6.84066 14.5535C6.84065 14.5535 6.84061 14.5534 6.84066 14.5535Z" fill="black"/>
<path fill-rule="evenodd" clip-rule="evenodd" d="M11.6984 3.5C8.02002 3.5 4.55491 4.41576 1.52215 6.03127C1.00572 6.30636 0.851172 6.95653 1.15499 7.43676L5.99558 15.0881C6.27436 15.5288 6.83028 15.6686 7.28089 15.4616C7.89373 15.18 8.5384 14.9552 9.20819 14.794L10.7225 17.7071C10.5453 17.9229 10.4389 18.199 10.4389 18.5C10.4389 19.1903 10.9986 19.75 11.6889 19.75C12.3793 19.75 12.9389 19.1903 12.9389 18.5C12.9389 17.8096 12.3793 17.25 11.6889 17.25C11.6635 17.25 11.6382 17.2507 11.6131 17.2522L10.2345 14.6002C10.7128 14.5341 11.2016 14.5 11.6985 14.5C13.5015 14.5 15.1975 14.9496 16.6808 15.7419C17.138 15.986 17.7295 15.8574 18.0214 15.3959L22.8452 7.77124C23.1422 7.3017 23.0021 6.66718 22.5068 6.38166C19.3273 4.54887 15.6351 3.5 11.6984 3.5ZM9.74752 13.6634C10.3819 13.5559 11.0337 13.5 11.6985 13.5C13.6697 13.5 15.5271 13.992 17.1519 14.8598C17.1595 14.8638 17.1669 14.8643 17.1726 14.8628C17.1747 14.8623 17.1758 14.8618 17.1762 14.8615L21.9967 7.24191C18.9677 5.49821 15.451 4.5 11.6984 4.5C8.19239 4.5 4.89239 5.37135 2.00366 6.9078L6.84066 14.5535C6.84065 14.5535 6.84061 14.5534 6.84066 14.5535C6.84104 14.5537 6.84216 14.5544 6.844 14.5549C6.84907 14.5563 6.85603 14.5563 6.86342 14.5529C7.4613 14.2782 8.08669 14.0529 8.73425 13.8823L6.05627 8.73054C5.92891 8.48553 6.02428 8.18365 6.2693 8.05629C6.51432 7.92892 6.81619 8.0243 6.94356 8.26932L9.74752 13.6634Z" fill="black"/>
</svg>
