<svg width="24" height="24" viewBox="0 0 24 24" fill="none" xmlns="http://www.w3.org/2000/svg">
<path fill-rule="evenodd" clip-rule="evenodd" d="M11.6985 3C7.93617 3 4.39055 3.93683 1.28712 5.58997C0.506593 6.00575 0.277711 6.98523 0.732487 7.70408L5.57308 15.3554C5.99252 16.0184 6.8232 16.2221 7.48967 15.9159C7.99557 15.6835 8.52432 15.4917 9.07182 15.3446L10.3551 17.8132C10.2489 18.019 10.189 18.2525 10.189 18.5C10.189 19.3284 10.8605 20 11.689 20C12.5174 20 13.189 19.3284 13.189 18.5C13.189 17.7478 12.6353 17.1249 11.9133 17.0166L10.8819 15.0325C11.1511 15.011 11.4235 15 11.6985 15C13.4175 15 15.0328 15.4285 16.4453 16.1829C17.1212 16.5439 18.0048 16.3576 18.444 15.6633L23.2678 8.03856C23.7125 7.33566 23.505 6.37994 22.7565 5.94848C19.5031 4.07304 15.725 3 11.6985 3ZM9.89481 13.1336C10.4835 13.0456 11.0858 13 11.6985 13C13.5959 13 15.3933 13.4373 16.9924 14.217L21.2919 7.42088C18.442 5.87735 15.1746 5 11.6985 5C8.46892 5 5.41988 5.75727 2.71837 7.10223L7.03819 13.9304C7.39416 13.7817 7.75876 13.6495 8.13101 13.5347L5.72359 8.9035C5.5007 8.47473 5.6676 7.94645 6.09638 7.72356C6.52516 7.50067 7.05344 7.66758 7.27633 8.09635L9.89481 13.1336Z" fill="black"/>
</svg>
