<svg width="24" height="24" viewBox="0 0 24 24" fill="none" xmlns="http://www.w3.org/2000/svg">
<path fill-rule="evenodd" clip-rule="evenodd" d="M11.6986 3.25C7.97822 3.25 4.47285 4.17629 1.40475 5.81062C0.756277 6.15605 0.564564 6.97088 0.943859 7.57042L5.78445 15.2218C6.13356 15.7736 6.82686 15.9454 7.3854 15.6888C7.92568 15.4406 8.49134 15.2375 9.07759 15.0845L10.5667 17.9491C10.485 18.1153 10.4391 18.3023 10.4391 18.5C10.4391 19.1903 10.9987 19.75 11.6891 19.75C12.3794 19.75 12.9391 19.1903 12.9391 18.5C12.9391 17.8827 12.4916 17.3699 11.9033 17.2683L10.6229 14.8051C10.9764 14.7687 11.3352 14.75 11.6986 14.75C13.4596 14.75 15.1153 15.1891 16.5632 15.9624C17.1297 16.265 17.8673 16.1075 18.2329 15.5296L23.0566 7.9049C23.4275 7.31868 23.2536 6.52356 22.6318 6.16507C19.4153 4.31095 15.6802 3.25 11.6986 3.25ZM9.88616 13.3878C10.4772 13.2971 11.0825 13.25 11.6986 13.25C13.6367 13.25 15.4677 13.7157 17.0829 14.5416L21.6454 7.32994C18.7051 5.68715 15.313 4.75 11.6986 4.75C8.33074 4.75 5.15606 5.56364 2.36015 7.00346L6.94091 14.2441C7.4027 14.0413 7.87995 13.8672 8.37034 13.724L5.8346 8.84585C5.64355 8.47833 5.78661 8.02552 6.15414 7.83447C6.52166 7.64342 6.97447 7.78648 7.16552 8.15401L9.88616 13.3878Z" fill="black"/>
</svg>
