<svg width="24" height="24" viewBox="0 0 24 24" fill="none" xmlns="http://www.w3.org/2000/svg">
<path fill-rule="evenodd" clip-rule="evenodd" d="M11.6985 3.75C8.06206 3.75 4.63722 4.65523 1.63978 6.25192C1.2554 6.45667 1.13802 6.94218 1.36636 7.3031L6.20695 14.9544C6.41539 15.2839 6.83395 15.3919 7.17663 15.2344C7.86216 14.9195 8.58655 14.6739 9.34076 14.5068L11.147 17.9816C11.0182 18.1163 10.9391 18.2989 10.9391 18.5C10.9391 18.9142 11.2748 19.25 11.6891 19.25C12.1033 19.25 12.4391 18.9142 12.4391 18.5C12.4391 18.0858 12.1033 17.75 11.6891 17.75C11.6566 17.75 11.6247 17.7521 11.5933 17.7561L9.85209 14.4064C10.452 14.3036 11.0689 14.25 11.6986 14.25C13.5437 14.25 15.28 14.7102 16.7987 15.5213C17.1466 15.7071 17.592 15.6072 17.8103 15.2623L22.634 7.63758C22.8572 7.28472 22.7507 6.8108 22.382 6.59825C19.2396 4.78679 15.5903 3.75 11.6985 3.75ZM9.61051 13.9417C10.2873 13.8158 10.9853 13.75 11.6986 13.75C13.6277 13.75 15.4448 14.2314 17.0343 15.0803C17.1634 15.1493 17.3169 15.107 17.3877 14.995L22.2115 7.37026C22.2871 7.25076 22.2478 7.09804 22.1323 7.03143C19.0639 5.26262 15.5004 4.25 11.6985 4.25C8.14595 4.25 4.80163 5.13417 1.87485 6.69321C1.75457 6.75728 1.71153 6.91348 1.7889 7.03578L6.62949 14.6871C6.69727 14.7943 6.84108 14.8383 6.96789 14.7801C7.64588 14.4686 8.36009 14.222 9.10242 14.0483L6.2782 8.61524C6.21451 8.49273 6.2622 8.34179 6.38471 8.27811C6.50722 8.21443 6.65815 8.26211 6.72184 8.38462L9.61051 13.9417Z" fill="black"/>
</svg>
