<svg width="24" height="24" viewBox="0 0 24 24" fill="none" xmlns="http://www.w3.org/2000/svg">
<path d="M11.6985 3.75C8.06206 3.75 4.63722 4.65523 1.63978 6.25192C1.2554 6.45667 1.13802 6.94218 1.36636 7.3031L6.20695 14.9544C6.41539 15.2839 6.83395 15.3919 7.17663 15.2344C7.70945 14.9896 8.26575 14.7868 8.84128 14.6301L5.83456 8.84592C5.64351 8.4784 5.78658 8.02559 6.1541 7.83454C6.52162 7.64349 6.97444 7.78655 7.16548 8.15408L10.3757 14.3298C10.8092 14.2771 11.2507 14.25 11.6986 14.25C13.5437 14.25 15.28 14.7102 16.7987 15.5213C17.1466 15.7071 17.592 15.6072 17.8103 15.2623L22.634 7.63758C22.8572 7.28472 22.7507 6.8108 22.382 6.59825C19.2396 4.78679 15.5903 3.75 11.6985 3.75Z" fill="black"/>
<path d="M6.38471 8.27811C6.50722 8.21443 6.65815 8.26211 6.72184 8.38462L11.5933 17.7561C11.6247 17.7521 11.6566 17.75 11.6891 17.75C12.1033 17.75 12.4391 18.0858 12.4391 18.5C12.4391 18.9142 12.1033 19.25 11.6891 19.25C11.2748 19.25 10.9391 18.9142 10.9391 18.5C10.9391 18.2989 11.0182 18.1163 11.147 17.9816L6.2782 8.61524C6.21451 8.49273 6.2622 8.34179 6.38471 8.27811Z" fill="black"/>
</svg>
