<svg width="24" height="24" viewBox="0 0 24 24" fill="none" xmlns="http://www.w3.org/2000/svg">
<path d="M9.63126 7.63129C9.97296 7.28957 10.527 7.28956 10.8687 7.63126L13.9066 10.669L16.9444 7.63126C17.2861 7.28956 17.8402 7.28957 18.1819 7.63129C18.5236 7.973 18.5236 8.52702 18.1818 8.86872L15.144 11.9064L18.1817 14.944C18.5235 15.2857 18.5235 15.8397 18.1818 16.1814C17.8401 16.5231 17.2861 16.5231 16.9443 16.1814L13.9066 13.1438L10.8688 16.1814C10.5271 16.5231 9.97305 16.5231 9.63135 16.1814C9.28965 15.8397 9.28966 15.2857 9.63138 14.944L12.6691 11.9064L9.63128 8.86872C9.28957 8.52702 9.28955 7.973 9.63126 7.63129Z" fill="black"/>
<path fill-rule="evenodd" clip-rule="evenodd" d="M10.4142 3.125C9.91693 3.125 9.44002 3.32254 9.08839 3.67417L1.67417 11.0884C1.32254 11.44 1.125 11.9169 1.125 12.4142V19C1.125 20.0355 1.96447 20.875 3 20.875H21C22.0355 20.875 22.875 20.0355 22.875 19V5C22.875 3.96447 22.0355 3.125 21 3.125H10.4142ZM11.088 12.25L11.4316 11.9064L9.01258 9.48745C8.32915 8.80405 8.32912 7.69601 9.01252 7.01258C9.69592 6.32915 10.804 6.32912 11.4874 7.01252L13.9066 9.43158L16.3257 7.01252C17.0092 6.32912 18.1172 6.32915 18.8006 7.01258C19.484 7.69601 19.484 8.80405 18.8005 9.48745L16.3815 11.9064L16.7251 12.25H21.125V19C21.125 19.069 21.069 19.125 21 19.125H3C2.93096 19.125 2.875 19.069 2.875 19V12.4142C2.875 12.3811 2.88817 12.3493 2.91161 12.3258L2.98745 12.25H11.088Z" fill="black"/>
</svg>
