<svg width="24" height="24" viewBox="0 0 24 24" fill="none" xmlns="http://www.w3.org/2000/svg">
<path d="M11.6986 3.25C7.97822 3.25 4.47285 4.17629 1.40475 5.81062C0.756277 6.15605 0.564564 6.97088 0.943859 7.57042L5.78445 15.2218C6.13356 15.7736 6.82686 15.9454 7.3854 15.6888C7.69766 15.5453 8.01839 15.4169 8.34668 15.3046L5.16914 9.19184C4.78705 8.45679 5.07317 7.55117 5.80822 7.16908C6.54327 6.78698 7.44889 7.07311 7.83098 7.80816L11.4411 14.7531C11.5267 14.751 11.6125 14.75 11.6986 14.75C13.4596 14.75 15.1153 15.1891 16.5632 15.9624C17.1297 16.265 17.8673 16.1075 18.2329 15.5296L23.0566 7.9049C23.4275 7.31868 23.2536 6.52356 22.6318 6.16507C19.4153 4.31095 15.6802 3.25 11.6986 3.25Z" fill="black"/>
<path d="M6.15414 7.83447C6.52166 7.64342 6.97447 7.78648 7.16552 8.15401L11.9033 17.2683C12.4916 17.3699 12.9391 17.8827 12.9391 18.5C12.9391 19.1903 12.3794 19.75 11.6891 19.75C10.9987 19.75 10.4391 19.1903 10.4391 18.5C10.4391 18.3023 10.485 18.1153 10.5667 17.9491L5.8346 8.84585C5.64355 8.47833 5.78661 8.02552 6.15414 7.83447Z" fill="black"/>
</svg>
