<svg width="24" height="24" viewBox="0 0 24 24" fill="none" xmlns="http://www.w3.org/2000/svg">
<path d="M19.2842 14.644C20.9396 13.0114 21.9648 10.7438 21.9648 8.23584C21.9648 5.72789 20.9396 3.4603 19.2842 1.82768C19.0876 1.63377 19.0854 1.3172 19.2793 1.12059C19.4732 0.923975 19.7898 0.92178 19.9864 1.11568C21.8245 2.9285 22.9648 5.44947 22.9648 8.23584C22.9648 11.0222 21.8245 13.5432 19.9864 15.356C19.7898 15.5499 19.4732 15.5477 19.2793 15.3511C19.0854 15.1545 19.0876 14.8379 19.2842 14.644Z" fill="black"/>
<path d="M15.3897 10.7595C16.0531 10.122 16.4651 9.22722 16.4651 8.23535C16.4651 7.24348 16.0531 6.34868 15.3897 5.7112C15.1905 5.51987 15.1842 5.20335 15.3755 5.00423C15.5669 4.80511 15.8834 4.79878 16.0825 4.9901C16.9341 5.80832 17.4651 6.96025 17.4651 8.23535C17.4651 9.51045 16.9341 10.6624 16.0825 11.4806C15.8834 11.6719 15.5669 11.6656 15.3755 11.4665C15.1842 11.2673 15.1905 10.9508 15.3897 10.7595Z" fill="black"/>
<path d="M4.72295 14.6172C3.08346 12.9866 2.06946 10.7301 2.06946 8.23584C2.06946 5.74159 3.08346 3.4851 4.72295 1.85451C4.91875 1.65978 4.91961 1.3432 4.72488 1.14741C4.53015 0.951616 4.21357 0.950754 4.01777 1.14548C2.1973 2.95607 1.06946 5.46472 1.06946 8.23584C1.06946 11.007 2.1973 13.5156 4.01777 15.3262C4.21357 15.5209 4.53015 15.5201 4.72488 15.3243C4.91961 15.1285 4.91875 14.8119 4.72295 14.6172Z" fill="black"/>
<path d="M8.62413 10.7397C7.97266 10.1035 7.56917 9.21701 7.56917 8.23535C7.56917 7.25369 7.97266 6.36717 8.62413 5.73102C8.8217 5.53809 8.82547 5.22153 8.63254 5.02396C8.43962 4.82639 8.12306 4.82262 7.92549 5.01555C7.08926 5.83211 6.56917 6.97344 6.56917 8.23535C6.56917 9.49726 7.08926 10.6386 7.92549 11.4552C8.12306 11.6481 8.43962 11.6443 8.63254 11.4467C8.82547 11.2492 8.8217 10.9326 8.62413 10.7397Z" fill="black"/>
<path d="M11.0165 8.18561C11.0165 8.57985 11.2447 8.9208 11.5761 9.08366V22.7916C11.5761 23.0677 11.8 23.2916 12.0761 23.2916C12.3523 23.2916 12.5761 23.0677 12.5761 22.7916V9.01451C12.8419 8.83476 13.0166 8.53059 13.0166 8.18561C13.0166 7.63333 12.5689 7.18561 12.0166 7.18561C11.4643 7.18561 11.0165 7.63333 11.0165 8.18561Z" fill="black"/>
</svg>
