<svg width="24" height="24" viewBox="0 0 24 24" fill="none" xmlns="http://www.w3.org/2000/svg">
<path d="M19.2841 14.644C20.9395 13.0114 21.9647 10.7438 21.9647 8.23584C21.9647 5.72789 20.9395 3.4603 19.2841 1.82768C19.0875 1.63377 19.0853 1.3172 19.2792 1.12059C19.4731 0.923975 19.7896 0.92178 19.9863 1.11568C21.8244 2.9285 22.9647 5.44947 22.9647 8.23584C22.9647 11.0222 21.8244 13.5432 19.9863 15.356C19.7896 15.5499 19.4731 15.5477 19.2792 15.3511C19.0853 15.1545 19.0875 14.8379 19.2841 14.644Z" fill="black"/>
<path d="M15.3895 10.7595C16.053 10.122 16.465 9.22722 16.465 8.23535C16.465 7.24348 16.053 6.34868 15.3895 5.7112C15.1904 5.51987 15.1841 5.20335 15.3754 5.00423C15.5667 4.80511 15.8832 4.79878 16.0824 4.9901C16.934 5.80832 17.465 6.96025 17.465 8.23535C17.465 9.51045 16.934 10.6624 16.0824 11.4806C15.8832 11.6719 15.5667 11.6656 15.3754 11.4665C15.1841 11.2673 15.1904 10.9508 15.3895 10.7595Z" fill="black"/>
<path d="M4.72283 14.6172C3.08334 12.9866 2.06934 10.7301 2.06934 8.23584C2.06934 5.74159 3.08334 3.4851 4.72283 1.85451C4.91862 1.65978 4.91949 1.3432 4.72476 1.14741C4.53003 0.951616 4.21345 0.950754 4.01765 1.14548C2.19718 2.95607 1.06934 5.46472 1.06934 8.23584C1.06934 11.007 2.19718 13.5156 4.01765 15.3262C4.21345 15.5209 4.53003 15.5201 4.72476 15.3243C4.91949 15.1285 4.91862 14.8119 4.72283 14.6172Z" fill="black"/>
<path d="M8.62401 10.7397C7.97253 10.1035 7.56905 9.21701 7.56905 8.23535C7.56905 7.25369 7.97253 6.36717 8.62401 5.73102C8.82158 5.53809 8.82535 5.22153 8.63242 5.02396C8.4395 4.82639 8.12294 4.82262 7.92536 5.01555C7.08913 5.83211 6.56905 6.97344 6.56905 8.23535C6.56905 9.49726 7.08913 10.6386 7.92536 11.4552C8.12294 11.6481 8.4395 11.6443 8.63242 11.4467C8.82535 11.2492 8.82158 10.9326 8.62401 10.7397Z" fill="black"/>
<path d="M11.0164 8.18561C11.0164 8.57985 11.2446 8.9208 11.576 9.08366V22.7916C11.576 23.0677 11.7999 23.2916 12.076 23.2916C12.3522 23.2916 12.576 23.0677 12.576 22.7916V9.01451C12.8418 8.83476 13.0165 8.53059 13.0165 8.18561C13.0165 7.63333 12.5687 7.18561 12.0164 7.18561C11.4641 7.18561 11.0164 7.63333 11.0164 8.18561Z" fill="black"/>
</svg>
