<svg width="24" height="24" viewBox="0 0 24 24" fill="none" xmlns="http://www.w3.org/2000/svg">
<path d="M8.53388 10.9986C7.78713 10.3132 7.31905 9.32894 7.31905 8.23539C7.31905 7.15638 7.77478 6.1838 8.50426 5.49964L8.15054 5.14593C7.33065 5.92072 6.81905 7.01831 6.81905 8.23539C6.81905 9.46701 7.34294 10.5763 8.18004 11.3525L8.53388 10.9986Z" fill="black"/>
<path d="M4.61473 1.61017L4.26114 1.25659C2.44621 3.02729 1.31934 5.49999 1.31934 8.23588C1.31934 10.986 2.458 13.4703 4.28961 15.2428L4.64322 14.8892C2.90207 13.2072 1.81934 10.848 1.81934 8.23588C1.81934 5.63806 2.89026 3.29036 4.61473 1.61017Z" fill="black"/>
<path d="M15.5001 10.9986C16.2469 10.3132 16.715 9.32894 16.715 8.23539C16.715 7.15638 16.2592 6.1838 15.5297 5.49964L15.8835 5.14593C16.7034 5.92071 17.215 7.01831 17.215 8.23539C17.215 9.46701 16.6911 10.5763 15.854 11.3525L15.5001 10.9986Z" fill="black"/>
<path d="M19.4193 1.61017L19.7729 1.25659C21.5878 3.02729 22.7147 5.49999 22.7147 8.23588C22.7147 10.986 21.576 13.4703 19.7444 15.2428L19.3908 14.8892C21.1319 13.2072 22.2147 10.848 22.2147 8.23588C22.2147 5.63806 21.1437 3.29036 19.4193 1.61017Z" fill="black"/>
<path d="M11.2664 8.18565C11.2664 8.53408 11.504 8.82701 11.826 8.91127C11.8868 8.92718 11.9506 8.93565 12.0164 8.93565C12.12 8.93565 12.2186 8.91467 12.3084 8.87671L12.326 8.86897C12.5858 8.7511 12.7664 8.48947 12.7664 8.18565C12.7664 7.77144 12.4306 7.43565 12.0164 7.43565C11.6022 7.43565 11.2664 7.77144 11.2664 8.18565Z" fill="black"/>
<path d="M11.826 9.92541C11.8886 9.93218 11.9521 9.93565 12.0164 9.93565C12.1221 9.93565 12.2255 9.92629 12.326 9.90835L12.326 22.7916C12.326 22.9297 12.2141 23.0416 12.076 23.0416C11.938 23.0416 11.826 22.9297 11.826 22.7916V9.92541Z" fill="black"/>
</svg>
