<svg width="24" height="24" viewBox="0 0 24 24" fill="none" xmlns="http://www.w3.org/2000/svg">
<path d="M2.62211 1.08248C2.42685 0.88722 2.11026 0.88722 1.915 1.08248C1.71974 1.27774 1.71974 1.59433 1.915 1.78959L19.4709 19.3454C19.6661 19.5407 19.9827 19.5407 20.178 19.3454C20.3732 19.1502 20.3732 18.8336 20.178 18.6383L2.62211 1.08248Z" fill="black"/>
<path d="M1.06934 8.23567C1.06934 6.72269 1.40534 5.28819 2.00681 4.00271L2.76475 4.76065C2.31681 5.82986 2.06934 7.00386 2.06934 8.23567C2.06934 10.7787 3.1241 13.0754 4.82002 14.7122L4.11281 15.4194C2.23597 13.6016 1.06934 11.0549 1.06934 8.23567Z" fill="black"/>
<path d="M8.00314 11.5291C7.19905 10.7804 6.66945 9.74078 6.5819 8.5778L8.11116 10.1071C8.27873 10.3713 8.48072 10.6115 8.71083 10.8215L8.00314 11.5291Z" fill="black"/>
<path d="M11.576 22.7914V13.5719L12.576 14.5719L12.576 22.7914C12.576 23.0675 12.3522 23.2914 12.076 23.2914C11.7999 23.2914 11.576 23.0675 11.576 22.7914Z" fill="black"/>
<path d="M13.0164 8.18544C13.0164 8.50491 12.8666 8.7894 12.6334 8.97247L11.2294 7.56844C11.4125 7.33525 11.697 7.18544 12.0164 7.18544C12.5687 7.18544 13.0164 7.63315 13.0164 8.18544Z" fill="black"/>
<path d="M15.3232 10.8215C16.0248 10.1814 16.465 9.25969 16.465 8.23518C16.465 7.2252 16.0372 6.31513 15.3529 5.6763L16.0603 4.96887C16.9254 5.78896 17.465 6.94906 17.465 8.23518C17.465 9.53583 16.9131 10.7076 16.0309 11.5291L15.3232 10.8215Z" fill="black"/>
<path d="M19.2425 1.78675L19.9497 1.07959C21.8098 2.89554 22.9647 5.43074 22.9647 8.23567C22.9647 11.0549 21.798 13.6016 19.9212 15.4194L19.214 14.7122C20.9099 13.0754 21.9647 10.7787 21.9647 8.23567C21.9647 5.70688 20.9217 3.42169 19.2425 1.78675Z" fill="black"/>
</svg>
