<svg width="24" height="24" viewBox="0 0 24 24" fill="none" xmlns="http://www.w3.org/2000/svg">
<path fill-rule="evenodd" clip-rule="evenodd" d="M0.123117 8.43565C0 9.21298 0 10.142 0 12C0 13.858 0 14.787 0.123117 15.5643C0.800832 19.8433 4.15673 23.1992 8.43565 23.8769C9.21298 24 10.142 24 12 24C13.858 24 14.787 24 15.5643 23.8769C19.8433 23.1992 23.1992 19.8433 23.8769 15.5643C24 14.787 24 13.858 24 12C24 10.142 24 9.21298 23.8769 8.43565C23.1992 4.15673 19.8433 0.800832 15.5643 0.123117C14.787 0 13.858 0 12 0C10.142 0 9.21298 0 8.43565 0.123117C4.15673 0.800832 0.800832 4.15673 0.123117 8.43565ZM19.4759 10.4906C19.4759 12.1162 18.8116 13.5857 17.7385 14.644C17.5419 14.8379 17.5397 15.1545 17.7336 15.3511C17.9275 15.5477 18.244 15.5499 18.4407 15.356C19.6965 14.1175 20.4759 12.3946 20.4759 10.4906C20.4759 8.58661 19.6965 6.86373 18.4407 5.62516C18.244 5.43126 17.9275 5.43345 17.7336 5.63006C17.5397 5.82667 17.5419 6.14325 17.7385 6.33715C18.8116 7.39553 19.4759 8.86503 19.4759 10.4906ZM15.8094 10.4905C15.8094 11.1045 15.5546 11.6582 15.1436 12.0531C14.9445 12.2444 14.9382 12.5609 15.1295 12.76C15.3208 12.9592 15.6373 12.9655 15.8365 12.7742C16.4355 12.1986 16.8094 11.3877 16.8094 10.4905C16.8094 9.5932 16.4355 8.78239 15.8365 8.20679C15.6373 8.01547 15.3208 8.0218 15.1295 8.22092C14.9382 8.42004 14.9445 8.73656 15.1436 8.92789C15.5546 9.32275 15.8094 9.87644 15.8094 10.4905ZM4.54579 10.4903C4.54579 12.107 5.20282 13.5693 6.26565 14.6263C6.46144 14.821 6.46231 15.1376 6.26758 15.3334C6.07285 15.5292 5.75626 15.5301 5.56047 15.3353C4.31666 14.0983 3.54579 12.3838 3.54579 10.4903C3.54579 8.59671 4.31666 6.88225 5.56047 5.64519C5.75626 5.45046 6.07285 5.45132 6.26758 5.64712C6.46231 5.84291 6.46144 6.15949 6.26565 6.35422C5.20282 7.41128 4.54579 8.87358 4.54579 10.4903ZM8.21278 10.4903C8.21278 11.098 8.46234 11.6465 8.86586 12.0406C9.06343 12.2335 9.0672 12.5501 8.87428 12.7476C8.68135 12.9452 8.36479 12.949 8.16722 12.756C7.57894 12.1816 7.21278 11.3782 7.21278 10.4903C7.21278 9.60228 7.57894 8.79892 8.16722 8.22448C8.36479 8.03155 8.68135 8.03532 8.87428 8.23289C9.0672 8.43046 9.06343 8.74703 8.86586 8.93995C8.46234 9.33398 8.21278 9.88253 8.21278 10.4903ZM11.5508 11.3452C11.2299 11.1787 11.0107 10.8434 11.0107 10.457C11.0107 9.9047 11.4584 9.45699 12.0107 9.45699C12.563 9.45699 13.0107 9.9047 13.0107 10.457C13.0107 10.8103 12.8275 11.1209 12.5508 11.2988V20.1943C12.5508 20.4704 12.3269 20.6943 12.0508 20.6943C11.7746 20.6943 11.5508 20.4704 11.5508 20.1943V11.3452Z" fill="black"/>
</svg>
