<svg width="24" height="25" viewBox="0 0 24 25" fill="none" xmlns="http://www.w3.org/2000/svg">
<path d="M0.319336 8.23584C0.319336 6.70227 0.640901 5.24319 1.21987 3.92288L3.16414 5.86716C2.93978 6.61731 2.81934 7.41236 2.81934 8.23584C2.81934 10.5224 3.74796 12.5898 5.25172 14.0854C5.7412 14.5722 5.74335 15.3637 5.25653 15.8532C4.7697 16.3426 3.97825 16.3448 3.48877 15.858C1.53256 13.9124 0.319336 11.2146 0.319336 8.23584Z" fill="black"/>
<path d="M7.40138 11.9918C6.49211 11.1039 5.90238 9.88485 5.82721 8.53022L9.21642 11.9194C9.20119 11.9369 9.18539 11.954 9.16902 11.9707C8.68671 12.4647 7.89531 12.4741 7.40138 11.9918Z" fill="black"/>
<path d="M8.51443 4.14637L9.50163 5.13358C9.45667 4.90231 9.34592 4.68114 9.16902 4.49998C8.98469 4.3112 8.7552 4.1932 8.51443 4.14637Z" fill="black"/>
<path d="M10.826 22.7916L10.826 13.529L13.326 16.029L13.326 22.7916C13.326 23.4819 12.7664 24.0416 12.076 24.0416C11.3857 24.0416 10.826 23.4819 10.826 22.7916Z" fill="black"/>
<path d="M11.077 6.7089L13.4932 9.1251C13.6662 8.85369 13.7665 8.53136 13.7665 8.18561C13.7665 7.21911 12.983 6.43561 12.0164 6.43561C11.6707 6.43561 11.3484 6.53587 11.077 6.7089Z" fill="black"/>
<path d="M14.7367 10.3687L16.4873 12.1192C16.527 12.0893 16.5653 12.0567 16.602 12.0214C17.5947 11.0677 18.215 9.72288 18.215 8.23535C18.215 6.74783 17.5947 5.40305 16.602 4.44928C16.1042 3.97098 15.3129 3.98679 14.8346 4.4846C14.3563 4.98241 14.3721 5.77371 14.8699 6.25202C15.3923 6.75395 15.715 7.45591 15.715 8.23535C15.715 9.01479 15.3923 9.71675 14.8699 10.2187C14.8208 10.2658 14.7764 10.316 14.7367 10.3687Z" fill="black"/>
<path d="M18.6277 14.2597L20.3755 16.0074C20.4234 15.9721 20.4693 15.933 20.5129 15.89C22.4881 13.942 23.7147 11.231 23.7147 8.23584C23.7147 5.24065 22.4881 2.52965 20.5129 0.58169C20.0214 0.0969301 19.2299 0.102418 18.7452 0.593946C18.2604 1.08547 18.2659 1.87691 18.7574 2.36167C20.2758 3.85915 21.2147 5.93671 21.2147 8.23584C21.2147 10.535 20.2758 12.6125 18.7574 14.11C18.7096 14.1572 18.6664 14.2073 18.6277 14.2597Z" fill="black"/>
<path d="M4.64948 0.281422L5.58883 1.22077C5.53852 1.00026 5.42778 0.790711 5.25653 0.618527C5.08356 0.444617 4.87214 0.332224 4.64948 0.281422Z" fill="black"/>
<path d="M2.79888 0.905705C2.50599 0.612812 2.03112 0.612812 1.73822 0.905705C1.44533 1.1986 1.44533 1.67347 1.73822 1.96637L19.2941 19.5222C19.587 19.8151 20.0618 19.8151 20.3547 19.5222C20.6476 19.2293 20.6476 18.7545 20.3547 18.4616L2.79888 0.905705Z" fill="black"/>
</svg>
