<svg width="24" height="24" viewBox="0 0 24 24" fill="none" xmlns="http://www.w3.org/2000/svg">
<path fill-rule="evenodd" clip-rule="evenodd" d="M0 12C0 10.142 0 9.21298 0.123117 8.43565C0.800832 4.15673 4.15673 0.800832 8.43565 0.123117C9.21298 0 10.142 0 12 0C13.858 0 14.787 0 15.5643 0.123117C19.8433 0.800832 23.1992 4.15673 23.8769 8.43565C24 9.21298 24 10.142 24 12C24 13.858 24 14.787 23.8769 15.5643C23.1992 19.8433 19.8433 23.1992 15.5643 23.8769C14.787 24 13.858 24 12 24C10.142 24 9.21298 24 8.43565 23.8769C4.15673 23.1992 0.800832 19.8433 0.123117 15.5643C0 14.787 0 13.858 0 12ZM4.78254 7.02235C4.15717 8.02945 3.7959 9.21793 3.7959 10.4906C3.7959 12.3149 4.53831 13.9663 5.73687 15.1584C5.83477 15.2557 5.99306 15.2553 6.09043 15.1574C6.18779 15.0595 6.18736 14.9012 6.08946 14.8039C4.98139 13.7018 4.2959 12.1765 4.2959 10.4906C4.2959 9.36926 4.59913 8.31899 5.12825 7.41705L4.98573 7.27453C4.90757 7.19637 4.83984 7.11174 4.78254 7.02235ZM7.53776 9.82656C7.48815 10.0397 7.46191 10.2618 7.46191 10.4901C7.46191 11.308 7.79892 12.0476 8.34101 12.577C8.4398 12.6734 8.59808 12.6716 8.69454 12.5728C8.791 12.474 8.78912 12.3157 8.69033 12.2192C8.24062 11.7801 7.96191 11.1679 7.96191 10.4901C7.96191 10.4129 7.96552 10.3367 7.97258 10.2614L7.53776 9.82656ZM11.8006 14.0894V20.1944C11.8006 20.3325 11.9125 20.4444 12.0506 20.4444C12.1886 20.4444 12.3006 20.3325 12.3006 20.1944V14.5894L11.8006 14.0894ZM12.702 10.7481C12.7397 10.6586 12.7605 10.5603 12.7605 10.4571C12.7605 10.0429 12.4247 9.70712 12.0105 9.70712C11.9073 9.70712 11.809 9.72796 11.7195 9.76566L12.702 10.7481ZM19.7258 10.4909C19.7258 12.1861 19.0328 13.7189 17.914 14.8223C17.8157 14.9193 17.8146 15.0776 17.9115 15.1759C18.0085 15.2742 18.1667 15.2753 18.2651 15.1783C19.4752 13.9848 20.2258 12.3253 20.2258 10.4909C20.2258 8.6565 19.4752 6.99697 18.2651 5.80345C18.1667 5.7065 18.0085 5.70759 17.9115 5.8059C17.8146 5.9042 17.8157 6.06249 17.914 6.15944C19.0328 7.26287 19.7258 8.79572 19.7258 10.4909ZM16.0593 10.4903C16.0593 11.1751 15.7748 11.7931 15.3168 12.2331C15.2172 12.3288 15.2141 12.4871 15.3097 12.5866C15.4054 12.6862 15.5636 12.6893 15.6632 12.5937C16.2153 12.0633 16.5593 11.3167 16.5593 10.4903C16.5593 9.66381 16.2153 8.91728 15.6632 8.38687C15.5636 8.29121 15.4054 8.29437 15.3097 8.39393C15.2141 8.49349 15.2172 8.65175 15.3168 8.74742C15.7748 9.18747 16.0593 9.80543 16.0593 10.4903ZM6.22316 6.03709C6.12553 5.93946 5.96724 5.93946 5.86961 6.03709C5.77198 6.13472 5.77198 6.29301 5.86961 6.39064L17.8696 18.3906C17.9672 18.4883 18.1255 18.4883 18.2232 18.3906C18.3208 18.293 18.3208 18.1347 18.2232 18.0371L6.22316 6.03709Z" fill="black"/>
</svg>
