<svg width="24" height="24" viewBox="0 0 24 24" fill="none" xmlns="http://www.w3.org/2000/svg">
<path fill-rule="evenodd" clip-rule="evenodd" d="M0.123117 8.43565C0 9.21298 0 10.142 0 12C0 13.858 0 14.787 0.123117 15.5643C0.800832 19.8433 4.15673 23.1992 8.43565 23.8769C9.21298 24 10.142 24 12 24C13.858 24 14.787 24 15.5643 23.8769C19.8433 23.1992 23.1992 19.8433 23.8769 15.5643C24 14.787 24 13.858 24 12C24 10.142 24 9.21298 23.8769 8.43565C23.1992 4.15673 19.8433 0.800832 15.5643 0.123117C14.787 0 13.858 0 12 0C10.142 0 9.21298 0 8.43565 0.123117C4.15673 0.800832 0.800832 4.15673 0.123117 8.43565ZM19.3509 10.4906C19.3509 12.0814 18.701 13.5192 17.6507 14.555C17.4049 14.7974 17.4022 15.1931 17.6446 15.4389C17.8869 15.6847 18.2827 15.6874 18.5284 15.445C19.8071 14.1839 20.6009 12.4294 20.6009 10.4906C20.6009 8.55181 19.8071 6.79726 18.5284 5.53616C18.2827 5.29378 17.8869 5.29652 17.6446 5.54229C17.4022 5.78805 17.4049 6.18377 17.6507 6.42615C18.701 7.46201 19.3509 8.89984 19.3509 10.4906ZM15.6844 10.4905C15.6844 11.0691 15.4445 11.5906 15.057 11.9629C14.8081 12.2021 14.8002 12.5977 15.0394 12.8466C15.2785 13.0955 15.6742 13.1034 15.9231 12.8643C16.5457 12.2661 16.9344 11.4232 16.9344 10.4905C16.9344 9.5578 16.5457 8.71485 15.9231 8.11666C15.6742 7.8775 15.2785 7.88541 15.0394 8.13432C14.8002 8.38322 14.8081 8.77887 15.057 9.01802C15.4445 9.3903 15.6844 9.91184 15.6844 10.4905ZM4.67079 10.4903C4.67079 12.0723 5.31359 13.5031 6.3538 14.5377C6.59854 14.7811 6.59962 15.1768 6.3562 15.4216C6.11279 15.6663 5.71706 15.6674 5.47232 15.424C4.20589 14.1644 3.42079 12.4184 3.42079 10.4903C3.42079 8.5621 4.20589 6.81612 5.47232 5.55656C5.71706 5.31315 6.11279 5.31423 6.3562 5.55897C6.59962 5.80371 6.59854 6.19944 6.3538 6.44285C5.31359 7.47741 4.67079 8.90819 4.67079 10.4903ZM8.33778 10.4903C8.33778 11.063 8.57277 11.5797 8.95319 11.9511C9.20016 12.1923 9.20487 12.588 8.96371 12.835C8.72255 13.0819 8.32685 13.0866 8.07989 12.8455C7.46852 12.2485 7.08778 11.4133 7.08778 10.4903C7.08778 9.56725 7.46852 8.73204 8.07989 8.13505C8.32685 7.89389 8.72255 7.8986 8.96371 8.14556C9.20487 8.39253 9.20016 8.78823 8.95319 9.02938C8.57277 9.40086 8.33778 9.91756 8.33778 10.4903ZM11.4258 11.2682C11.1743 11.0865 11.0107 10.7909 11.0107 10.457C11.0107 9.9047 11.4584 9.45699 12.0107 9.45699C12.563 9.45699 13.0107 9.9047 13.0107 10.457C13.0107 10.7539 12.8813 11.0207 12.6758 11.2038V20.1943C12.6758 20.5395 12.396 20.8193 12.0508 20.8193C11.7056 20.8193 11.4258 20.5395 11.4258 20.1943V11.2682Z" fill="black"/>
</svg>
