<svg width="24" height="24" viewBox="0 0 24 24" fill="none" xmlns="http://www.w3.org/2000/svg">
<path fill-rule="evenodd" clip-rule="evenodd" d="M0.123117 8.43565C0 9.21298 0 10.142 0 12C0 13.858 0 14.787 0.123117 15.5643C0.800832 19.8433 4.15673 23.1992 8.43565 23.8769C9.21298 24 10.142 24 12 24C13.858 24 14.787 24 15.5643 23.8769C19.8433 23.1992 23.1992 19.8433 23.8769 15.5643C24 14.787 24 13.858 24 12C24 10.142 24 9.21298 23.8769 8.43565C23.1992 4.15673 19.8433 0.800832 15.5643 0.123117C14.787 0 13.858 0 12 0C10.142 0 9.21298 0 8.43565 0.123117C4.15673 0.800832 0.800832 4.15673 0.123117 8.43565ZM19.2259 10.4906C19.2259 12.0466 18.5904 13.4527 17.5629 14.466C17.268 14.7569 17.2647 15.2318 17.5556 15.5267C17.8464 15.8216 18.3213 15.8249 18.6162 15.534C19.9177 14.2504 20.7259 12.4642 20.7259 10.4906C20.7259 8.517 19.9177 6.73079 18.6162 5.44716C18.3213 5.15631 17.8464 5.1596 17.5556 5.45451C17.2647 5.74943 17.268 6.22429 17.5629 6.51515C18.5904 7.52848 19.2259 8.93464 19.2259 10.4906ZM15.5594 10.4905C15.5594 11.0337 15.3344 11.5231 14.9704 11.8728C14.6717 12.1598 14.6623 12.6346 14.9492 12.9332C15.2362 13.2319 15.711 13.2414 16.0097 12.9544C16.6558 12.3336 17.0594 11.4586 17.0594 10.4905C17.0594 9.52239 16.6558 8.6473 16.0097 8.02652C15.711 7.73954 15.2362 7.74902 14.9492 8.04771C14.6623 8.3464 14.6717 8.82118 14.9704 9.10816C15.3344 9.45784 15.5594 9.94724 15.5594 10.4905ZM4.79579 10.4903C4.79579 12.0377 5.42436 13.437 6.44195 14.4491C6.73563 14.7411 6.73693 15.216 6.44483 15.5097C6.15274 15.8034 5.67787 15.8047 5.38418 15.5126C4.09512 14.2305 3.29579 12.453 3.29579 10.4903C3.29579 8.52749 4.09512 6.74999 5.38418 5.46794C5.67787 5.17584 6.15274 5.17713 6.44483 5.47082C6.73693 5.76451 6.73563 6.23939 6.44194 6.53148C5.42436 7.54354 4.79579 8.9428 4.79579 10.4903ZM8.46278 10.4903C8.46278 11.0279 8.68319 11.5128 9.04052 11.8617C9.33688 12.1511 9.34253 12.6259 9.05314 12.9223C8.76376 13.2186 8.28892 13.2243 7.99256 12.9349C7.35809 12.3154 6.96278 11.4483 6.96278 10.4903C6.96278 9.53221 7.35809 8.66516 7.99256 8.04561C8.28892 7.75622 8.76376 7.76188 9.05314 8.05823C9.34253 8.35459 9.33688 8.82943 9.04052 9.11882C8.68319 9.46775 8.46278 9.9526 8.46278 10.4903ZM11.3008 11.3297C11.0475 11.1235 10.8857 10.8091 10.8857 10.457C10.8857 9.83567 11.3894 9.33199 12.0107 9.33199C12.632 9.33199 13.1357 9.83567 13.1357 10.457C13.1357 10.7704 13.0076 11.0539 12.8008 11.2579V20.1943C12.8008 20.6085 12.465 20.9443 12.0508 20.9443C11.6366 20.9443 11.3008 20.6085 11.3008 20.1943V11.3297Z" fill="black"/>
</svg>
