<svg width="24" height="24" viewBox="0 0 24 24" fill="none" xmlns="http://www.w3.org/2000/svg">
<path fill-rule="evenodd" clip-rule="evenodd" d="M0.123117 8.43565C0 9.21298 0 10.142 0 12C0 13.858 0 14.787 0.123117 15.5643C0.800832 19.8433 4.15673 23.1992 8.43565 23.8769C9.21298 24 10.142 24 12 24C13.858 24 14.787 24 15.5643 23.8769C19.8433 23.1992 23.1992 19.8433 23.8769 15.5643C24 14.787 24 13.858 24 12C24 10.142 24 9.21298 23.8769 8.43565C23.1992 4.15673 19.8433 0.800832 15.5643 0.123117C14.787 0 13.858 0 12 0C10.142 0 9.21298 0 8.43565 0.123117C4.15673 0.800832 0.800832 4.15673 0.123117 8.43565ZM19.7261 10.4908C19.7261 12.1859 19.033 13.7188 17.9142 14.8222C17.8159 14.9192 17.8148 15.0774 17.9117 15.1757C18.0087 15.274 18.167 15.2751 18.2653 15.1782C19.4755 13.9847 20.2261 12.3251 20.2261 10.4908C20.2261 8.65638 19.4755 6.99685 18.2653 5.80332C18.167 5.70637 18.0087 5.70747 17.9117 5.80577C17.8148 5.90408 17.8159 6.06236 17.9142 6.15932C19.033 7.26275 19.7261 8.79559 19.7261 10.4908ZM16.0596 10.4901C16.0596 11.175 15.775 11.793 15.317 12.233C15.2174 12.3287 15.2143 12.4869 15.3099 12.5865C15.4056 12.6861 15.5639 12.6892 15.6634 12.5936C16.2155 12.0631 16.5596 11.3166 16.5596 10.4901C16.5596 9.66368 16.2155 8.91716 15.6634 8.38674C15.5639 8.29108 15.4056 8.29424 15.3099 8.3938C15.2143 8.49337 15.2174 8.65163 15.317 8.74729C15.775 9.18734 16.0596 9.8053 16.0596 10.4901ZM4.29612 10.4904C4.29612 12.1763 4.9816 13.7017 6.08968 14.8037C6.18758 14.9011 6.18801 15.0594 6.09064 15.1573C5.99328 15.2552 5.83499 15.2556 5.73709 15.1582C4.53852 13.9662 3.79612 12.3148 3.79612 10.4904C3.79612 8.66609 4.53852 7.01467 5.73709 5.82261C5.83499 5.72525 5.99328 5.72568 6.09064 5.82358C6.18801 5.92147 6.18758 6.07976 6.08968 6.17713C4.9816 7.27919 4.29612 8.80452 4.29612 10.4904ZM7.96213 10.4899C7.96213 11.1677 8.24084 11.78 8.69055 12.2191C8.78934 12.3156 8.79122 12.4739 8.69476 12.5726C8.5983 12.6714 8.44001 12.6733 8.34123 12.5768C7.79914 12.0475 7.46213 11.3079 7.46213 10.4899C7.46213 9.67202 7.79914 8.93236 8.34123 8.40302C8.44001 8.30656 8.5983 8.30844 8.69476 8.40723C8.79122 8.50601 8.78934 8.66429 8.69055 8.76076C8.24084 9.19989 7.96213 9.81214 7.96213 10.4899ZM11.8008 11.1772C11.4887 11.0864 11.2607 10.7983 11.2607 10.457C11.2607 10.0428 11.5965 9.70699 12.0107 9.70699C12.4249 9.70699 12.7607 10.0428 12.7607 10.457C12.7607 10.7684 12.571 11.0354 12.3008 11.1488V20.1943C12.3008 20.3324 12.1888 20.4443 12.0508 20.4443C11.9127 20.4443 11.8008 20.3324 11.8008 20.1943V11.1772Z" fill="black"/>
</svg>
