<svg width="24" height="24" viewBox="0 0 24 24" fill="none" xmlns="http://www.w3.org/2000/svg">
<path d="M19.4596 14.822C21.1607 13.1443 22.2147 10.8134 22.2147 8.23584C22.2147 5.65828 21.1607 3.32735 19.4596 1.64968C19.3613 1.55273 19.3602 1.39444 19.4572 1.29613C19.5541 1.19783 19.7124 1.19673 19.8107 1.29368C21.6032 3.06145 22.7147 5.51907 22.7147 8.23584C22.7147 10.9526 21.6032 13.4102 19.8107 15.178C19.7124 15.275 19.5541 15.2739 19.4572 15.1755C19.3602 15.0772 19.3613 14.919 19.4596 14.822Z" fill="black"/>
<path d="M15.5627 10.9398C16.2733 10.2571 16.715 9.29803 16.715 8.23535C16.715 7.17268 16.2733 6.21359 15.5627 5.53092C15.4632 5.43526 15.46 5.277 15.5557 5.17744C15.6513 5.07788 15.8096 5.07471 15.9092 5.17038C16.7137 5.94341 17.215 7.03106 17.215 8.23535C17.215 9.43964 16.7137 10.5273 15.9092 11.3003C15.8096 11.396 15.6513 11.3928 15.5557 11.2933C15.46 11.1937 15.4632 11.0354 15.5627 10.9398Z" fill="black"/>
<path d="M4.54654 14.7944C2.8618 13.1188 1.81934 10.7993 1.81934 8.23584C1.81934 5.67237 2.8618 3.35285 4.54654 1.67726C4.64443 1.57989 4.64486 1.4216 4.5475 1.3237C4.45013 1.22581 4.29184 1.22538 4.19395 1.32274C2.41872 3.08833 1.31934 5.53393 1.31934 8.23584C1.31934 10.9377 2.41872 13.3833 4.19395 15.1489C4.29184 15.2463 4.45013 15.2459 4.5475 15.148C4.64486 15.0501 4.64443 14.8918 4.54654 14.7944Z" fill="black"/>
<path d="M8.44935 10.9186C7.75168 10.2373 7.31905 9.28707 7.31905 8.23535C7.31905 7.18363 7.75168 6.2334 8.44935 5.55215C8.54813 5.45569 8.55002 5.29741 8.45355 5.19862C8.35709 5.09983 8.19881 5.09795 8.10002 5.19441C7.30998 5.96587 6.81905 7.0435 6.81905 8.23535C6.81905 9.4272 7.30998 10.5048 8.10002 11.2763C8.19881 11.3728 8.35709 11.3709 8.45355 11.2721C8.55001 11.1733 8.54813 11.015 8.44935 10.9186Z" fill="black"/>
<path d="M11.2664 8.18561C11.2664 8.53403 11.504 8.82697 11.826 8.91123L11.826 22.7916C11.826 22.9296 11.938 23.0416 12.076 23.0416C12.2141 23.0416 12.326 22.9296 12.326 22.7916L12.326 8.86893C12.5858 8.75106 12.7664 8.48943 12.7664 8.18561C12.7664 7.7714 12.4306 7.43561 12.0164 7.43561C11.6022 7.43561 11.2664 7.7714 11.2664 8.18561Z" fill="black"/>
</svg>
