<svg width="24" height="24" viewBox="0 0 24 24" fill="none" xmlns="http://www.w3.org/2000/svg">
<path d="M8.88781 10.6445C8.23138 10.0499 7.81905 9.19069 7.81905 8.23521C7.81905 7.29427 8.21893 6.44671 8.85803 5.85322L7.79686 4.79207C6.88655 5.65745 6.31905 6.88005 6.31905 8.23521C6.31905 9.60489 6.89878 10.8392 7.82625 11.7061L8.88781 10.6445Z" fill="black"/>
<path d="M4.96831 1.96357L3.90756 0.902832C2.00216 2.76403 0.819336 5.36173 0.819336 8.2357C0.819336 11.1239 2.01394 13.7332 3.93601 15.5962L4.99683 14.5354C3.34613 12.9439 2.31934 10.7097 2.31934 8.2357C2.31934 5.77595 3.33432 3.55325 4.96831 1.96357Z" fill="black"/>
<path d="M15.1462 10.6445C15.8026 10.0499 16.215 9.19069 16.215 8.23521C16.215 7.29427 15.8151 6.44671 15.176 5.85322L16.2371 4.79207C17.1475 5.65745 17.715 6.88005 17.715 8.23521C17.715 9.60489 17.1352 10.8392 16.2077 11.7061L15.1462 10.6445Z" fill="black"/>
<path d="M19.0657 1.96357L20.1264 0.902832C22.0318 2.76403 23.2147 5.36173 23.2147 8.2357C23.2147 11.1239 22.0201 13.7332 20.098 15.5962L19.0372 14.5354C20.6879 12.9439 21.7147 10.7097 21.7147 8.2357C21.7147 5.77595 20.6997 3.55325 19.0657 1.96357Z" fill="black"/>
<path d="M10.7664 8.18547C10.7664 8.6206 10.9887 9.00381 11.326 9.22768C11.5238 9.35898 11.7612 9.43547 12.0164 9.43547C12.3185 9.43547 12.5955 9.32835 12.8116 9.15003L12.826 9.13791C13.0955 8.90863 13.2664 8.56701 13.2664 8.18547C13.2664 7.49511 12.7068 6.93547 12.0164 6.93547C11.3261 6.93547 10.7664 7.49511 10.7664 8.18547Z" fill="black"/>
<path d="M11.326 10.8481C11.5466 10.9051 11.778 10.9355 12.0164 10.9355C12.2982 10.9355 12.5701 10.8931 12.826 10.8144L12.826 22.7914C12.826 23.2056 12.4902 23.5414 12.076 23.5414C11.6618 23.5414 11.326 23.2056 11.326 22.7914V10.8481Z" fill="black"/>
</svg>
