<svg width="24" height="24" viewBox="0 0 24 24" fill="none" xmlns="http://www.w3.org/2000/svg">
<path fill-rule="evenodd" clip-rule="evenodd" d="M0 12C0 10.142 0 9.21298 0.123117 8.43565C0.800832 4.15673 4.15673 0.800832 8.43565 0.123117C9.21298 0 10.142 0 12 0C13.858 0 14.787 0 15.5643 0.123117C19.8433 0.800832 23.1992 4.15673 23.8769 8.43565C24 9.21298 24 10.142 24 12C24 13.858 24 14.787 23.8769 15.5643C23.1992 19.8433 19.8433 23.1992 15.5643 23.8769C14.787 24 13.858 24 12 24C10.142 24 9.21298 24 8.43565 23.8769C4.15673 23.1992 0.800832 19.8433 0.123117 15.5643C0 14.787 0 13.858 0 12ZM4.20997 7.0074C3.62826 8.03581 3.2959 9.22442 3.2959 10.4901C3.2959 12.4528 4.09522 14.2303 5.38428 15.5124C5.67797 15.8045 6.15285 15.8032 6.44494 15.5095C6.73704 15.2158 6.73574 14.741 6.44205 14.4489C5.42447 13.4368 4.7959 12.0375 4.7959 10.4901C4.7959 9.69566 4.96155 8.94031 5.26045 8.25635L4.63217 7.62808C4.44802 7.44393 4.30728 7.23279 4.20997 7.0074ZM6.99863 9.99454C6.97508 10.1563 6.96289 10.3218 6.96289 10.4901C6.96289 11.4481 7.3582 12.3152 7.99267 12.9347C8.28902 13.2241 8.76386 13.2184 9.05325 12.9221C9.23381 12.7372 9.29951 12.4828 9.25141 12.2473L6.99863 9.99454ZM11.3009 14.2968L11.3009 20.1941C11.3009 20.6083 11.6367 20.9441 12.0509 20.9441C12.4651 20.9441 12.8009 20.6083 12.8009 20.1941V15.7968L11.3009 14.2968ZM15.7703 13.1093L14.7942 12.1333C14.8326 12.0377 14.8914 11.9486 14.9705 11.8726C15.3345 11.5229 15.5595 11.0335 15.5595 10.4903C15.5595 9.94705 15.3345 9.45765 14.9705 9.10796C14.6718 8.82098 14.6624 8.3462 14.9493 8.04751C15.2363 7.74883 15.7111 7.73934 16.0098 8.02632C16.6559 8.6471 17.0595 9.5222 17.0595 10.4903C17.0595 11.4584 16.6559 12.3334 16.0098 12.9542C15.9384 13.0229 15.8569 13.0745 15.7703 13.1093ZM18.3604 15.6995L17.39 14.7291C17.4272 14.6329 17.4849 14.5429 17.563 14.4658C18.5905 13.4525 19.226 12.0464 19.226 10.4904C19.226 8.93444 18.5905 7.52828 17.563 6.51495C17.2681 6.22409 17.2648 5.74923 17.5557 5.45432C17.8465 5.1594 18.3214 5.15611 18.6163 5.44696C19.9179 6.73059 20.726 8.5168 20.726 10.4904C20.726 12.464 19.9179 14.2502 18.6163 15.5338C18.5408 15.6083 18.4534 15.6635 18.3604 15.6995ZM13.1357 10.4748L11.9929 9.33193L12.0108 9.33179C12.6322 9.33179 13.1358 9.83547 13.1358 10.4568L13.1357 10.4748ZM6.48833 5.77193C6.24425 5.52785 5.84852 5.52785 5.60444 5.77193C5.36037 6.016 5.36037 6.41173 5.60444 6.65581L17.6044 18.6558C17.8485 18.8999 18.2443 18.8999 18.4883 18.6558C18.7324 18.4117 18.7324 18.016 18.4883 17.7719L6.48833 5.77193Z" fill="black"/>
</svg>
