<svg width="24" height="24" viewBox="0 0 24 24" fill="none" xmlns="http://www.w3.org/2000/svg">
<path d="M18.9331 14.288C20.4972 12.7455 21.4648 10.6046 21.4648 8.23584C21.4648 5.8671 20.4972 3.7262 18.9331 2.18367C18.5399 1.79586 18.5355 1.16271 18.9233 0.769492C19.3111 0.37627 19.9443 0.371881 20.3375 0.759688C22.267 2.6626 23.4648 5.31025 23.4648 8.23584C23.4648 11.1614 22.267 13.8091 20.3375 15.712C19.9443 16.0998 19.3111 16.0954 18.9233 15.7022C18.5355 15.309 18.5399 14.6758 18.9331 14.288Z" fill="black"/>
<path d="M15.0432 10.399C15.6127 9.85184 15.9651 9.0856 15.9651 8.23535C15.9651 7.3851 15.6127 6.61886 15.0432 6.07174C14.645 5.6891 14.6323 5.05606 15.015 4.65781C15.3976 4.25956 16.0307 4.24691 16.4289 4.62956C17.3745 5.53814 17.9651 6.81863 17.9651 8.23535C17.9651 9.65207 17.3745 10.9326 16.4289 11.8411C16.0307 12.2238 15.3976 12.2111 15.015 11.8129C14.6323 11.4146 14.645 10.7816 15.0432 10.399Z" fill="black"/>
<path d="M5.07554 14.2626C3.52654 12.7221 2.56946 10.5917 2.56946 8.23584C2.56946 5.88002 3.52654 3.74962 5.07554 2.20903C5.46713 1.81957 5.46885 1.18641 5.07939 0.79482C4.68993 0.403235 4.05677 0.401511 3.66518 0.79097C1.75422 2.69156 0.569458 5.32628 0.569458 8.23584C0.569458 11.1454 1.75422 13.7801 3.66518 15.6807C4.05677 16.0702 4.68993 16.0684 5.07939 15.6769C5.46885 15.2853 5.46713 14.6521 5.07554 14.2626Z" fill="black"/>
<path d="M8.97345 10.3819C8.41436 9.83601 8.06917 9.07688 8.06917 8.23535C8.06917 7.39382 8.41436 6.6347 8.97345 6.08875C9.36859 5.7029 9.37613 5.06978 8.99028 4.67464C8.60443 4.2795 7.97131 4.27196 7.57616 4.65781C6.64756 5.56458 6.06917 6.83331 6.06917 8.23535C6.06917 9.63739 6.64756 10.9061 7.57616 11.8129C7.97131 12.1987 8.60443 12.1912 8.99028 11.7961C9.37613 11.4009 9.36859 10.7678 8.97345 10.3819Z" fill="black"/>
<path d="M10.5165 8.18561C10.5165 8.65797 10.7349 9.07933 11.0761 9.35429L11.0761 22.7916C11.0761 23.3439 11.5239 23.7916 12.0761 23.7916C12.6284 23.7916 13.0761 23.3439 13.0761 22.7916L13.0761 9.24736C13.3482 8.97583 13.5166 8.60038 13.5166 8.18561C13.5166 7.35718 12.845 6.68561 12.0166 6.68561C11.1881 6.68561 10.5165 7.35718 10.5165 8.18561Z" fill="black"/>
</svg>
