<svg width="24" height="24" viewBox="0 0 24 24" fill="none" xmlns="http://www.w3.org/2000/svg">
<path fill-rule="evenodd" clip-rule="evenodd" d="M0 12C0 10.142 0 9.21298 0.123117 8.43565C0.800832 4.15673 4.15673 0.800832 8.43565 0.123117C9.21298 0 10.142 0 12 0C13.858 0 14.787 0 15.5643 0.123117C19.8433 0.800832 23.1992 4.15673 23.8769 8.43565C24 9.21298 24 10.142 24 12C24 13.858 24 14.787 23.8769 15.5643C23.1992 19.8433 19.8433 23.1992 15.5643 23.8769C14.787 24 13.858 24 12 24C10.142 24 9.21298 24 8.43565 23.8769C4.15673 23.1992 0.800832 19.8433 0.123117 15.5643C0 14.787 0 13.858 0 12ZM13.4469 5.48843C13.5573 4.99196 12.9175 4.69088 12.6052 5.09233L7.83104 11.2306C7.58748 11.5437 7.81064 12 8.20735 12H11.9999L10.5529 18.5116C10.4426 19.008 11.0823 19.3091 11.3946 18.9077L16.1688 12.7694C16.4123 12.4563 16.1892 12 15.7925 12L11.9999 12L13.4469 5.48843ZM21.5 12C21.5 12.1668 21.4957 12.3326 21.4872 12.4973L20.4885 12.4458C20.4961 12.2983 20.5 12.1496 20.5 12C20.5 11.8504 20.4961 11.7017 20.4885 11.5542L21.4872 11.5027C21.4957 11.6674 21.5 11.8332 21.5 12ZM21.1785 14.4597C21.0923 14.7821 20.9896 15.0977 20.8713 15.4056L19.9378 15.047C20.0436 14.7717 20.1354 14.4896 20.2124 14.2014L21.1785 14.4597ZM19.9683 17.1746C19.7871 17.4531 19.5918 17.7214 19.3832 17.9787L18.6064 17.3489C18.7931 17.1186 18.968 16.8784 19.1302 16.6292L19.9683 17.1746ZM17.9787 19.3832C17.7214 19.5918 17.4531 19.7871 17.1746 19.9683L16.6292 19.1302C16.8784 18.968 17.1186 18.7931 17.3489 18.6064L17.9787 19.3832ZM15.4056 20.8713C15.0977 20.9896 14.7821 21.0923 14.4597 21.1785L14.2014 20.2124C14.4896 20.1354 14.7717 20.0436 15.047 19.9378L15.4056 20.8713ZM12.4973 21.4872C12.3326 21.4957 12.1668 21.5 12 21.5C11.8332 21.5 11.6674 21.4957 11.5027 21.4872L11.5542 20.4885C11.7017 20.4961 11.8504 20.5 12 20.5C12.1496 20.5 12.2983 20.4961 12.4458 20.4885L12.4973 21.4872ZM9.54033 21.1785C9.21795 21.0923 8.90232 20.9896 8.59442 20.8713L8.953 19.9378C9.22825 20.0436 9.51039 20.1354 9.79856 20.2124L9.54033 21.1785ZM6.82539 19.9683C6.54694 19.7871 6.27858 19.5918 6.02133 19.3832L6.65111 18.6064C6.88142 18.7931 7.12163 18.968 7.37081 19.1302L6.82539 19.9683ZM4.61682 17.9787C4.40825 17.7214 4.21285 17.4531 4.03165 17.1746L4.86982 16.6292C5.03197 16.8784 5.20686 17.1186 5.39359 17.3489L4.61682 17.9787ZM3.12866 15.4056C3.01038 15.0977 2.90768 14.7821 2.82151 14.4597L3.78759 14.2014C3.86462 14.4896 3.95642 14.7717 4.06216 15.047L3.12866 15.4056ZM2.5 12C2.5 12.1668 2.5043 12.3326 2.51279 12.4973L3.51147 12.4458C3.50386 12.2983 3.5 12.1496 3.5 12C3.5 11.8504 3.50386 11.7017 3.51147 11.5542L2.51279 11.5027C2.5043 11.6674 2.5 11.8332 2.5 12ZM2.82151 9.54033C2.90768 9.21795 3.01038 8.90232 3.12866 8.59442L4.06216 8.953C3.95642 9.22825 3.86462 9.51039 3.78759 9.79856L2.82151 9.54033ZM4.03165 6.82539C4.21285 6.54694 4.40825 6.27858 4.61681 6.02133L5.39359 6.65111C5.20686 6.88142 5.03197 7.12163 4.86982 7.37081L4.03165 6.82539ZM6.02133 4.61682C6.27857 4.40825 6.54694 4.21285 6.82539 4.03165L7.37081 4.86982C7.12163 5.03197 6.88142 5.20686 6.65111 5.39359L6.02133 4.61682ZM8.59442 3.12866C8.90232 3.01038 9.21795 2.90768 9.54033 2.82151L9.79856 3.78759C9.51039 3.86462 9.22825 3.95642 8.953 4.06216L8.59442 3.12866ZM11.5027 2.51279C11.6674 2.5043 11.8332 2.5 12 2.5C12.1668 2.5 12.3326 2.5043 12.4973 2.51279L12.4458 3.51147C12.2983 3.50386 12.1496 3.5 12 3.5C11.8504 3.5 11.7017 3.50386 11.5542 3.51147L11.5027 2.51279ZM14.4597 2.82151C14.7821 2.90768 15.0977 3.01038 15.4056 3.12866L15.047 4.06216C14.7717 3.95642 14.4896 3.86462 14.2014 3.78759L14.4597 2.82151ZM17.1746 4.03165C17.4531 4.21285 17.7214 4.40825 17.9787 4.61681L17.3489 5.39359C17.1186 5.20686 16.8784 5.03197 16.6292 4.86982L17.1746 4.03165ZM19.3832 6.02133C19.5918 6.27857 19.7871 6.54694 19.9683 6.82539L19.1302 7.37081C18.968 7.12163 18.7931 6.88142 18.6064 6.65111L19.3832 6.02133ZM20.8713 8.59442C20.9896 8.90232 21.0923 9.21795 21.1785 9.54033L20.2124 9.79856C20.1354 9.51039 20.0436 9.22825 19.9378 8.953L20.8713 8.59442Z" fill="black"/>
</svg>
