<svg width="24" height="25" viewBox="0 0 24 25" fill="none" xmlns="http://www.w3.org/2000/svg">
<path d="M18.7574 14.1083C20.2758 12.6108 21.2147 10.5333 21.2147 8.23413C21.2147 5.935 20.2758 3.85744 18.7574 2.35996C18.2659 1.8752 18.2604 1.08376 18.7452 0.592237C19.2299 0.100709 20.0214 0.0952211 20.5129 0.579981C22.4881 2.52794 23.7147 5.23894 23.7147 8.23413C23.7147 11.2293 22.4881 13.9403 20.5129 15.8883C20.0214 16.373 19.2299 16.3676 18.7452 15.876C18.2604 15.3845 18.2659 14.5931 18.7574 14.1083Z" fill="black"/>
<path d="M14.8699 10.217C15.3923 9.71504 15.715 9.01308 15.715 8.23364C15.715 7.4542 15.3923 6.75224 14.8699 6.25031C14.3721 5.772 14.3563 4.98071 14.8346 4.48289C15.3129 3.98508 16.1042 3.96927 16.602 4.44757C17.5947 5.40134 18.215 6.74612 18.215 8.23364C18.215 9.72117 17.5947 11.0659 16.602 12.0197C16.1042 12.498 15.3129 12.4822 14.8346 11.9844C14.3563 11.4866 14.3721 10.6953 14.8699 10.217Z" fill="black"/>
<path d="M5.25172 14.0837C3.74796 12.5881 2.81934 10.5207 2.81934 8.23413C2.81934 5.94754 3.74796 3.88017 5.25172 2.38458C5.7412 1.89775 5.74335 1.1063 5.25653 0.616818C4.7697 0.127334 3.97825 0.125181 3.48877 0.612005C1.53256 2.55759 0.319336 5.25536 0.319336 8.23413C0.319336 11.2129 1.53256 13.9107 3.48877 15.8563C3.97825 16.3431 4.7697 16.3409 5.25653 15.8514C5.74335 15.362 5.7412 14.5705 5.25172 14.0837Z" fill="black"/>
<path d="M9.14799 10.2014C8.63508 9.70053 8.31905 9.00511 8.31905 8.23364C8.31905 7.46218 8.63508 6.76675 9.14799 6.26591C9.64192 5.7836 9.65134 4.9922 9.16902 4.49827C8.68671 4.00434 7.89531 3.99492 7.40138 4.47723C6.42659 5.4291 5.81905 6.76154 5.81905 8.23364C5.81905 9.70575 6.42659 11.0382 7.40138 11.9901C7.89531 12.4724 8.68671 12.4629 9.16902 11.969C9.65134 11.4751 9.64192 10.6837 9.14799 10.2014Z" fill="black"/>
<path d="M10.2664 8.18362C10.2664 8.69037 10.4817 9.14681 10.826 9.46639L10.826 22.7896C10.826 23.4799 11.3856 24.0396 12.076 24.0396C12.7663 24.0396 13.326 23.4799 13.326 22.7896L13.326 9.34449C13.6 9.03559 13.7664 8.62904 13.7664 8.18362C13.7664 7.21712 12.9829 6.43362 12.0164 6.43362C11.0499 6.43362 10.2664 7.21712 10.2664 8.18362Z" fill="black"/>
</svg>
