<svg width="24" height="24" viewBox="0 0 24 24" fill="none" xmlns="http://www.w3.org/2000/svg">
<path d="M19.1086 14.466C20.7184 12.8784 21.7148 10.6742 21.7148 8.23584C21.7148 5.7975 20.7184 3.59325 19.1086 2.00567C18.8137 1.71482 18.8104 1.23996 19.1013 0.945039C19.3922 0.650123 19.867 0.64683 20.1619 0.937686C22.0457 2.79555 23.2148 5.37986 23.2148 8.23584C23.2148 11.0918 22.0457 13.6761 20.1619 15.534C19.867 15.8248 19.3922 15.8216 19.1013 15.5266C18.8104 15.2317 18.8137 14.7569 19.1086 14.466Z" fill="black"/>
<path d="M15.2164 10.5792C15.8329 9.98693 16.2151 9.15641 16.2151 8.23535C16.2151 7.31429 15.8329 6.48377 15.2164 5.89147C14.9178 5.60449 14.9083 5.12971 15.1953 4.83102C15.4822 4.53233 15.957 4.52285 16.2557 4.80983C17.1543 5.67323 17.7151 6.88944 17.7151 8.23535C17.7151 9.58126 17.1543 10.7975 16.2557 11.6609C15.957 11.9479 15.4822 11.9384 15.1953 11.6397C14.9083 11.341 14.9178 10.8662 15.2164 10.5792Z" fill="black"/>
<path d="M4.89925 14.4399C3.305 12.8543 2.31946 10.6609 2.31946 8.23584C2.31946 5.81081 3.305 3.61736 4.89925 2.03177C5.19294 1.73968 5.19423 1.2648 4.90214 0.971115C4.61004 0.677425 4.13517 0.676132 3.84148 0.968228C1.97576 2.82382 0.819458 5.3955 0.819458 8.23584C0.819458 11.0762 1.97576 13.6479 3.84148 15.5034C4.13517 15.7955 4.61004 15.7943 4.90214 15.5006C5.19423 15.2069 5.19294 14.732 4.89925 14.4399Z" fill="black"/>
<path d="M8.79879 10.5608C8.19351 9.96977 7.81917 9.14694 7.81917 8.23535C7.81917 7.32376 8.19351 6.50093 8.79879 5.90988C9.09515 5.6205 9.1008 5.14566 8.81141 4.8493C8.52202 4.55294 8.04718 4.54729 7.75082 4.83668C6.86841 5.69834 6.31917 6.90338 6.31917 8.23535C6.31917 9.56733 6.86841 10.7724 7.75082 11.634C8.04718 11.9234 8.52202 11.9178 8.81141 11.6214C9.1008 11.325 9.09515 10.8502 8.79879 10.5608Z" fill="black"/>
<path d="M10.7665 8.18561C10.7665 8.62074 10.9889 9.00394 11.3261 9.22781V22.7916C11.3261 23.2058 11.6619 23.5416 12.0761 23.5416C12.4904 23.5416 12.8261 23.2058 12.8261 22.7916V9.13806C13.0956 8.90878 13.2666 8.56716 13.2666 8.18561C13.2666 7.49526 12.7069 6.93561 12.0166 6.93561C11.3262 6.93561 10.7665 7.49526 10.7665 8.18561Z" fill="black"/>
</svg>
