<svg width="24" height="25" viewBox="0 0 24 25" fill="none" xmlns="http://www.w3.org/2000/svg">
<path d="M9.24205 10.2903C8.67583 9.78659 8.31916 9.05244 8.31916 8.235C8.31916 7.43216 8.66321 6.70966 9.21192 6.2069L7.44325 4.43826C6.44254 5.39421 5.81916 6.7418 5.81916 8.235C5.81916 9.74279 6.45478 11.1021 7.47268 12.0596L9.24205 10.2903Z" fill="black"/>
<path d="M5.37107 2.36611L3.50493 0.5C1.49652 2.46427 0.25 5.20431 0.25 8.23549C0.25 11.281 1.50834 14.0326 3.53347 15.9988L5.39973 14.1326C3.85201 12.6442 2.88889 10.5523 2.88889 8.23549C2.88889 5.93302 3.84013 3.85271 5.37107 2.36611Z" fill="black"/>
<path d="M14.7922 10.2903C15.3584 9.78659 15.7151 9.05244 15.7151 8.235C15.7151 7.43216 15.371 6.70966 14.8223 6.2069L16.591 4.43826C17.5917 5.39421 18.2151 6.7418 18.2151 8.235C18.2151 9.74279 17.5794 11.1021 16.5615 12.0596L14.7922 10.2903Z" fill="black"/>
<path d="M18.6632 2.36611L20.5293 0.5C22.5377 2.46427 23.7842 5.20431 23.7842 8.23549C23.7842 11.281 22.5259 14.0326 20.5008 15.9988L18.6345 14.1326C20.1822 12.6442 21.1453 10.5523 21.1453 8.23549C21.1453 5.93302 20.1941 3.85271 18.6632 2.36611Z" fill="black"/>
<path d="M10.5165 8.18532C10.5165 8.52877 10.6319 8.84526 10.8261 9.09811C11.1003 9.45516 11.5316 9.68532 12.0165 9.68532C12.5343 9.68532 12.9908 9.42299 13.2604 9.02398C13.2837 8.98943 13.3057 8.95385 13.3261 8.91733C13.4474 8.70081 13.5166 8.45114 13.5166 8.18532C13.5166 7.85176 13.4077 7.54364 13.2235 7.29454C12.9503 6.92497 12.5114 6.68532 12.0165 6.68532C11.7059 6.68532 11.4173 6.77976 11.1779 6.94149C11.161 6.9529 11.1443 6.96464 11.128 6.9767C10.7571 7.24979 10.5165 7.68946 10.5165 8.18532Z" fill="black"/>
<path d="M10.8261 11.4777C11.1977 11.6121 11.5986 11.6853 12.0165 11.6853C12.4796 11.6853 12.9216 11.5954 13.3261 11.4321L13.3261 22.7913C13.3261 23.4816 12.7665 24.0413 12.0761 24.0413C11.3858 24.0413 10.8261 23.4816 10.8261 22.7913V11.4777Z" fill="black"/>
</svg>
