<svg width="24" height="24" viewBox="0 0 24 24" fill="none" xmlns="http://www.w3.org/2000/svg">
<path d="M23.4892 12.5021C23.4964 12.3356 23.5 12.1682 23.5 12C23.5 11.8318 23.4964 11.6644 23.4892 11.4979L22.9897 11.5193C22.9965 11.6787 23 11.8389 23 12C23 12.1611 22.9965 12.3213 22.9897 12.4807L23.4892 12.5021Z" fill="black"/>
<path d="M23.2297 9.50986C23.1572 9.18136 23.0706 8.85813 22.9706 8.54083L22.4937 8.69106C22.5893 8.99444 22.6721 9.30351 22.7414 9.61765L23.2297 9.50986Z" fill="black"/>
<path d="M22.2027 6.6888C22.0476 6.39145 21.8799 6.10173 21.7003 5.82035L21.2788 6.0894C21.4506 6.35856 21.6111 6.63566 21.7594 6.92004L22.2027 6.6888Z" fill="black"/>
<path d="M20.4788 4.23071C20.2527 3.98408 20.0159 3.74734 19.7693 3.52122L19.4314 3.88977C19.6674 4.10612 19.8939 4.33263 20.1102 4.5686L20.4788 4.23071Z" fill="black"/>
<path d="M18.1796 2.29974C17.8983 2.12011 17.6085 1.95238 17.3112 1.79728L17.08 2.24059C17.3643 2.38893 17.6414 2.54935 17.9106 2.72118L18.1796 2.29974Z" fill="black"/>
<path d="M15.4592 1.02936C15.1419 0.929406 14.8186 0.84284 14.4901 0.770322L14.3824 1.25857C14.6965 1.32791 15.0056 1.41069 15.3089 1.50625L15.4592 1.02936Z" fill="black"/>
<path d="M12 0.5C12.1682 0.5 12.3356 0.503613 12.5021 0.510765L12.4807 1.0103C12.3213 1.00346 12.1611 1 12 1C11.8389 1 11.6787 1.00346 11.5193 1.0103L11.4979 0.510765C11.6644 0.503613 11.8318 0.5 12 0.5Z" fill="black"/>
<path d="M9.50986 0.770323C9.18136 0.842841 8.85813 0.929407 8.54083 1.02936L8.69106 1.50626C8.99444 1.41069 9.30351 1.32791 9.61765 1.25857L9.50986 0.770323Z" fill="black"/>
<path d="M6.6888 1.79728C6.39145 1.95238 6.10173 2.12011 5.82035 2.29974L6.0894 2.72118C6.35856 2.54935 6.63566 2.38893 6.92004 2.24059L6.6888 1.79728Z" fill="black"/>
<path d="M4.23071 3.52122C3.98408 3.74734 3.74734 3.98408 3.52122 4.23071L3.88977 4.56861C4.10612 4.33263 4.33263 4.10612 4.5686 3.88977L4.23071 3.52122Z" fill="black"/>
<path d="M2.29974 5.82035C2.12011 6.10174 1.95238 6.39145 1.79728 6.6888L2.24059 6.92005C2.38893 6.63567 2.54935 6.35856 2.72118 6.0894L2.29974 5.82035Z" fill="black"/>
<path d="M1.02936 8.54083C0.929406 8.85813 0.84284 9.18136 0.770322 9.50987L1.25857 9.61765C1.32791 9.30352 1.41069 8.99445 1.50625 8.69106L1.02936 8.54083Z" fill="black"/>
<path d="M0.5 12C0.5 11.8318 0.503613 11.6644 0.510765 11.4979L1.0103 11.5193C1.00346 11.6787 1 11.8389 1 12C1 12.1611 1.00346 12.3213 1.0103 12.4807L0.510765 12.5021C0.503613 12.3356 0.5 12.1682 0.5 12Z" fill="black"/>
<path d="M0.770323 14.4901C0.842841 14.8186 0.929407 15.1419 1.02936 15.4592L1.50626 15.3089C1.41069 15.0056 1.32791 14.6965 1.25857 14.3824L0.770323 14.4901Z" fill="black"/>
<path d="M1.79728 17.3112C1.95238 17.6085 2.12011 17.8983 2.29974 18.1796L2.72118 17.9106C2.54935 17.6414 2.38893 17.3643 2.24059 17.08L1.79728 17.3112Z" fill="black"/>
<path d="M3.52122 19.7693C3.74734 20.0159 3.98408 20.2527 4.23071 20.4788L4.56861 20.1102C4.33263 19.8939 4.10612 19.6674 3.88977 19.4314L3.52122 19.7693Z" fill="black"/>
<path d="M5.82035 21.7003C6.10174 21.8799 6.39145 22.0476 6.6888 22.2027L6.92005 21.7594C6.63567 21.6111 6.35856 21.4506 6.0894 21.2788L5.82035 21.7003Z" fill="black"/>
<path d="M8.54083 22.9706C8.85813 23.0706 9.18136 23.1572 9.50987 23.2297L9.61765 22.7414C9.30352 22.6721 8.99445 22.5893 8.69106 22.4937L8.54083 22.9706Z" fill="black"/>
<path d="M11.4979 23.4892C11.6644 23.4964 11.8318 23.5 12 23.5C12.1682 23.5 12.3356 23.4964 12.5021 23.4892L12.4807 22.9897C12.3213 22.9965 12.1611 23 12 23C11.8389 23 11.6787 22.9965 11.5193 22.9897L11.4979 23.4892Z" fill="black"/>
<path d="M14.4901 23.2297C14.8186 23.1572 15.1419 23.0706 15.4592 22.9706L15.3089 22.4937C15.0056 22.5893 14.6965 22.6721 14.3824 22.7414L14.4901 23.2297Z" fill="black"/>
<path d="M17.3112 22.2027C17.6085 22.0476 17.8983 21.8799 18.1796 21.7003L17.9106 21.2788C17.6414 21.4506 17.3643 21.6111 17.08 21.7594L17.3112 22.2027Z" fill="black"/>
<path d="M19.7693 20.4788C20.0159 20.2527 20.2527 20.0159 20.4788 19.7693L20.1102 19.4314C19.8939 19.6674 19.6674 19.8939 19.4314 20.1102L19.7693 20.4788Z" fill="black"/>
<path d="M21.7003 18.1796C21.8799 17.8983 22.0476 17.6085 22.2027 17.3112L21.7594 17.08C21.6111 17.3643 21.4506 17.6414 21.2788 17.9106L21.7003 18.1796Z" fill="black"/>
<path d="M23.2297 14.4901C23.1572 14.8186 23.0706 15.1419 22.9706 15.4592L22.4937 15.3089C22.5893 15.0056 22.6721 14.6965 22.7414 14.3824L23.2297 14.4901Z" fill="black"/>
<path fill-rule="evenodd" clip-rule="evenodd" d="M13.7615 5.22483L12.3115 11.75L15.9775 11.75C16.6016 11.75 16.9527 12.4678 16.5695 12.9605L11.5623 19.3983C11.0711 20.0299 10.0646 19.5562 10.2382 18.7752L11.6882 12.25H8.02217C7.39806 12.25 7.04698 11.5322 7.43015 11.0395L12.4374 4.60167C12.9286 3.97011 13.9351 4.44378 13.7615 5.22483ZM12.8321 4.90864C12.9958 4.69813 13.3313 4.85601 13.2734 5.11636L11.7993 11.75H8.02217C7.81413 11.75 7.69711 11.5107 7.82483 11.3465L12.8321 4.90864ZM10.7262 18.8836L12.2004 12.25L15.9775 12.25C16.1856 12.25 16.3026 12.4893 16.1749 12.6535L11.1676 19.0914C11.0039 19.3019 10.6684 19.144 10.7262 18.8836Z" fill="black"/>
</svg>
