<svg width="24" height="24" viewBox="0 0 24 24" fill="none" xmlns="http://www.w3.org/2000/svg">
<path fill-rule="evenodd" clip-rule="evenodd" d="M0 12C0 10.142 0 9.21298 0.123117 8.43565C0.800832 4.15673 4.15673 0.800832 8.43565 0.123117C9.21298 0 10.142 0 12 0C13.858 0 14.787 0 15.5643 0.123117C19.8433 0.800832 23.1992 4.15673 23.8769 8.43565C24 9.21298 24 10.142 24 12C24 13.858 24 14.787 23.8769 15.5643C23.1992 19.8433 19.8433 23.1992 15.5643 23.8769C14.787 24 13.858 24 12 24C10.142 24 9.21298 24 8.43565 23.8769C4.15673 23.1992 0.800832 19.8433 0.123117 15.5643C0 14.787 0 13.858 0 12ZM4.35014 7.01405C3.7593 8.0368 3.4209 9.22417 3.4209 10.4901C3.4209 12.4182 4.206 14.1642 5.47243 15.4238C5.71717 15.6672 6.1129 15.6661 6.35631 15.4214C6.59972 15.1766 6.59865 14.7809 6.35391 14.5375C5.3137 13.5029 4.6709 12.0721 4.6709 10.4901C4.6709 9.61321 4.86836 8.78283 5.2215 8.04063L4.72056 7.53969C4.56332 7.38245 4.43985 7.20424 4.35014 7.01405ZM7.13188 9.95101C7.10295 10.1264 7.08789 10.3065 7.08789 10.4901C7.08789 11.4131 7.46862 12.2483 8.08 12.8453C8.32696 13.0864 8.72266 13.0817 8.96382 12.8348C9.20497 12.5878 9.20027 12.1921 8.9533 11.9509C8.77524 11.7771 8.62904 11.5714 8.52388 11.343L7.13188 9.95101ZM11.4259 14.245V20.1941C11.4259 20.5393 11.7057 20.8191 12.0509 20.8191C12.3961 20.8191 12.6759 20.5393 12.6759 20.1941V15.495L11.4259 14.245ZM15.5218 13.0376L14.866 12.3818C14.8737 12.2284 14.9377 12.0775 15.0571 11.9627C15.4446 11.5905 15.6845 11.0689 15.6845 10.4903C15.6845 9.91164 15.4446 9.3901 15.0571 9.01783C14.8082 8.77867 14.8003 8.38302 15.0395 8.13412C15.2786 7.88521 15.6743 7.87731 15.9232 8.11646C16.5458 8.71465 16.9345 9.5576 16.9345 10.4903C16.9345 11.423 16.5458 12.2659 15.9232 12.8641C15.8102 12.9727 15.6669 13.0303 15.5218 13.0376ZM18.1087 15.6245L17.465 14.9808C17.4697 14.8258 17.5317 14.6723 17.6508 14.5548C18.7011 13.519 19.351 12.0812 19.351 10.4904C19.351 8.89964 18.7011 7.46181 17.6508 6.42595C17.405 6.18357 17.4023 5.78785 17.6447 5.54209C17.8871 5.29633 18.2828 5.29358 18.5285 5.53596C19.8072 6.79706 20.601 8.55161 20.601 10.4904C20.601 12.4292 19.8072 14.1837 18.5285 15.4448C18.4116 15.5601 18.2608 15.6199 18.1087 15.6245ZM13.0086 10.5244L11.9432 9.45904C11.9656 9.45755 11.9881 9.45679 12.0108 9.45679C12.5631 9.45679 13.0108 9.9045 13.0108 10.4568C13.0108 10.4795 13.0101 10.5021 13.0086 10.5244ZM6.48833 5.77193C6.24425 5.52785 5.84852 5.52785 5.60444 5.77193C5.36037 6.016 5.36037 6.41173 5.60444 6.65581L17.6044 18.6558C17.8485 18.8999 18.2443 18.8999 18.4883 18.6558C18.7324 18.4117 18.7324 18.016 18.4883 17.7719L6.48833 5.77193Z" fill="black"/>
</svg>
