<svg width="24" height="24" viewBox="0 0 24 24" fill="none" xmlns="http://www.w3.org/2000/svg">
<path d="M2.44533 1.25926C2.3477 1.16163 2.18941 1.16163 2.09178 1.25926C1.99415 1.35689 1.99415 1.51518 2.09178 1.61281L19.6476 19.1687C19.7453 19.2663 19.9036 19.2663 20.0012 19.1687C20.0988 19.071 20.0988 18.9127 20.0012 18.8151L2.44533 1.25926Z" fill="black"/>
<path d="M1.31934 8.23584C1.31934 6.79304 1.63282 5.42333 2.19531 4.19121L2.57411 4.57002C2.08842 5.69402 1.81934 6.93344 1.81934 8.23584C1.81934 10.7993 2.8618 13.1188 4.54654 14.7944C4.64443 14.8918 4.64486 15.0501 4.5475 15.148C4.45013 15.2459 4.29184 15.2463 4.19395 15.1489C2.41872 13.3833 1.31934 10.9377 1.31934 8.23584Z" fill="black"/>
<path d="M8.10002 11.2763C7.4508 10.6423 7.00355 9.80161 6.86475 8.86066L7.55697 9.55288C7.75205 10.0727 8.05927 10.5377 8.44935 10.9186C8.54813 11.015 8.55001 11.1733 8.45355 11.2721C8.35709 11.3709 8.19881 11.3728 8.10002 11.2763Z" fill="black"/>
<path d="M11.826 22.7916L11.826 13.8219L12.326 14.3219L12.326 22.7916C12.326 22.9296 12.2141 23.0416 12.076 23.0416C11.938 23.0416 11.826 22.9296 11.826 22.7916Z" fill="black"/>
<path d="M12.7664 8.18561C12.7664 8.43607 12.6437 8.65786 12.455 8.79407L11.408 7.74701C11.5442 7.55838 11.766 7.43561 12.0164 7.43561C12.4306 7.43561 12.7664 7.7714 12.7664 8.18561Z" fill="black"/>
<path d="M19.4596 14.822C21.1607 13.1443 22.2147 10.8134 22.2147 8.23584C22.2147 5.65828 21.1607 3.32735 19.4596 1.64968C19.3613 1.55273 19.3602 1.39444 19.4572 1.29613C19.5541 1.19783 19.7124 1.19673 19.8107 1.29368C21.6032 3.06145 22.7147 5.51907 22.7147 8.23584C22.7147 10.9526 21.6032 13.4102 19.8107 15.178C19.7124 15.275 19.5541 15.2739 19.4572 15.1755C19.3602 15.0772 19.3613 14.919 19.4596 14.822Z" fill="black"/>
<path d="M15.5627 10.9398C16.2733 10.2571 16.715 9.29803 16.715 8.23535C16.715 7.17268 16.2733 6.21359 15.5627 5.53092C15.4632 5.43526 15.46 5.277 15.5557 5.17744C15.6513 5.07788 15.8096 5.07471 15.9092 5.17038C16.7137 5.94341 17.215 7.03106 17.215 8.23535C17.215 9.43964 16.7137 10.5273 15.9092 11.3003C15.8096 11.396 15.6513 11.3928 15.5557 11.2933C15.46 11.1937 15.4632 11.0354 15.5627 10.9398Z" fill="black"/>
</svg>
