<svg width="24" height="24" viewBox="0 0 24 24" fill="none" xmlns="http://www.w3.org/2000/svg">
<path d="M23.4892 12.5021C23.4964 12.3356 23.5 12.1682 23.5 12C23.5 11.8318 23.4964 11.6644 23.4892 11.4979L20.9915 11.6052C20.9972 11.7359 21 11.8676 21 12C21 12.1324 20.9972 12.2641 20.9915 12.3948L23.4892 12.5021Z" fill="black"/>
<path d="M23.2297 9.50986C23.1572 9.18136 23.0706 8.85812 22.9706 8.54083L20.5862 9.29196C20.6642 9.53971 20.7318 9.79214 20.7885 10.0488L23.2297 9.50986Z" fill="black"/>
<path d="M22.2027 6.6888C22.0476 6.39145 21.8799 6.10173 21.7003 5.82035L19.593 7.16558C19.7337 7.38584 19.8649 7.61252 19.9862 7.84503L22.2027 6.6888Z" fill="black"/>
<path d="M20.4788 4.23071C20.2527 3.98408 20.0159 3.74734 19.7693 3.52122L18.0798 5.36397C18.2732 5.54123 18.4588 5.72682 18.636 5.92017L20.4788 4.23071Z" fill="black"/>
<path d="M18.1796 2.29974C17.8983 2.12011 17.6085 1.95238 17.3112 1.79728L16.155 4.01384C16.3875 4.13512 16.6142 4.26634 16.8344 4.40696L18.1796 2.29974Z" fill="black"/>
<path d="M15.4592 1.02936C15.1419 0.929406 14.8186 0.84284 14.4901 0.770322L13.9512 3.21155C14.2079 3.2682 14.4603 3.3358 14.708 3.41385L15.4592 1.02936Z" fill="black"/>
<path d="M12.5021 0.510765C12.3356 0.503613 12.1682 0.5 12 0.5C11.8318 0.5 11.6644 0.503613 11.4979 0.510765L11.6052 3.00846C11.7359 3.00284 11.8676 3 12 3C12.1324 3 12.2641 3.00284 12.3948 3.00846L12.5021 0.510765Z" fill="black"/>
<path d="M9.50986 0.770322C9.18136 0.842841 8.85813 0.929407 8.54083 1.02936L9.29196 3.41385C9.53971 3.33581 9.79214 3.2682 10.0488 3.21155L9.50986 0.770322Z" fill="black"/>
<path d="M6.6888 1.79728C6.39145 1.95238 6.10173 2.12011 5.82035 2.29974L7.16558 4.40696C7.38584 4.26634 7.61252 4.13512 7.84503 4.01384L6.6888 1.79728Z" fill="black"/>
<path d="M4.23071 3.52122C3.98408 3.74734 3.74734 3.98408 3.52122 4.23071L5.36397 5.92017C5.54123 5.72683 5.72682 5.54123 5.92017 5.36397L4.23071 3.52122Z" fill="black"/>
<path d="M2.29974 5.82035C2.12011 6.10174 1.95238 6.39145 1.79728 6.6888L4.01384 7.84503C4.13512 7.61252 4.26634 7.38585 4.40696 7.16558L2.29974 5.82035Z" fill="black"/>
<path d="M1.02936 8.54083C0.929406 8.85813 0.84284 9.18136 0.770322 9.50987L3.21155 10.0488C3.2682 9.79214 3.3358 9.53971 3.41385 9.29197L1.02936 8.54083Z" fill="black"/>
<path d="M0.5 12C0.5 11.8318 0.503613 11.6644 0.510765 11.4979L3.00846 11.6052C3.00284 11.7359 3 11.8676 3 12C3 12.1324 3.00284 12.2641 3.00846 12.3948L0.510765 12.5021C0.503613 12.3356 0.5 12.1682 0.5 12Z" fill="black"/>
<path d="M0.770322 14.4901C0.842841 14.8186 0.929407 15.1419 1.02936 15.4592L3.41385 14.708C3.33581 14.4603 3.2682 14.2079 3.21155 13.9512L0.770322 14.4901Z" fill="black"/>
<path d="M1.79728 17.3112C1.95238 17.6085 2.12011 17.8983 2.29974 18.1796L4.40696 16.8344C4.26634 16.6142 4.13512 16.3875 4.01384 16.155L1.79728 17.3112Z" fill="black"/>
<path d="M3.52122 19.7693C3.74734 20.0159 3.98408 20.2527 4.23071 20.4788L5.92017 18.636C5.72683 18.4588 5.54123 18.2732 5.36397 18.0798L3.52122 19.7693Z" fill="black"/>
<path d="M5.82035 21.7003C6.10174 21.8799 6.39145 22.0476 6.6888 22.2027L7.84503 19.9862C7.61252 19.8649 7.38585 19.7337 7.16558 19.593L5.82035 21.7003Z" fill="black"/>
<path d="M8.54083 22.9706C8.85813 23.0706 9.18136 23.1572 9.50987 23.2297L10.0488 20.7885C9.79214 20.7318 9.53971 20.6642 9.29197 20.5862L8.54083 22.9706Z" fill="black"/>
<path d="M11.4979 23.4892C11.6644 23.4964 11.8318 23.5 12 23.5C12.1682 23.5 12.3356 23.4964 12.5021 23.4892L12.3948 20.9915C12.2641 20.9972 12.1324 21 12 21C11.8676 21 11.7359 20.9972 11.6052 20.9915L11.4979 23.4892Z" fill="black"/>
<path d="M14.4901 23.2297C14.8186 23.1572 15.1419 23.0706 15.4592 22.9706L14.708 20.5862C14.4603 20.6642 14.2079 20.7318 13.9512 20.7885L14.4901 23.2297Z" fill="black"/>
<path d="M17.3112 22.2027C17.6085 22.0476 17.8983 21.8799 18.1796 21.7003L16.8344 19.593C16.6142 19.7337 16.3875 19.8649 16.155 19.9862L17.3112 22.2027Z" fill="black"/>
<path d="M19.7693 20.4788C20.0159 20.2527 20.2527 20.0159 20.4788 19.7693L18.636 18.0798C18.4588 18.2732 18.2732 18.4588 18.0798 18.636L19.7693 20.4788Z" fill="black"/>
<path d="M22.2027 17.3112C22.0476 17.6085 21.8799 17.8983 21.7003 18.1796L19.593 16.8344C19.7337 16.6142 19.8649 16.3875 19.9862 16.155L22.2027 17.3112Z" fill="black"/>
<path d="M22.9706 15.4592C23.0706 15.1419 23.1572 14.8186 23.2297 14.4901L20.7885 13.9512C20.7318 14.2079 20.6642 14.4603 20.5862 14.708L22.9706 15.4592Z" fill="black"/>
<path d="M12.6347 4.75516C12.9622 4.33412 13.6332 4.6499 13.5175 5.1706L11.9998 12H8.02217C7.60609 12 7.37205 11.5215 7.62749 11.193L12.6347 4.75516Z" fill="black"/>
<path d="M10.4822 18.8294L11.9998 12L15.9775 12C16.3936 12 16.6276 12.4785 16.3722 12.807L11.365 19.2448C11.0375 19.6659 10.3665 19.3501 10.4822 18.8294Z" fill="black"/>
</svg>
