<svg width="24" height="24" viewBox="0 0 24 24" fill="none" xmlns="http://www.w3.org/2000/svg">
<path fill-rule="evenodd" clip-rule="evenodd" d="M0.123117 8.43565C0 9.21298 0 10.142 0 12C0 13.858 0 14.787 0.123117 15.5643C0.800832 19.8433 4.15673 23.1992 8.43565 23.8769C9.21298 24 10.142 24 12 24C13.858 24 14.787 24 15.5643 23.8769C19.8433 23.1992 23.1992 19.8433 23.8769 15.5643C24 14.787 24 13.858 24 12C24 10.142 24 9.21298 23.8769 8.43565C23.1992 4.15673 19.8433 0.800832 15.5643 0.123117C14.787 0 13.858 0 12 0C10.142 0 9.21298 0 8.43565 0.123117C4.15673 0.800832 0.800832 4.15673 0.123117 8.43565ZM4.49204 7.01895C3.89103 8.03623 3.5459 9.22305 3.5459 10.4901C3.5459 12.3836 4.31677 14.0981 5.56058 15.3351C5.75637 15.5299 6.07295 15.529 6.26768 15.3332C6.46241 15.1374 6.46155 14.8208 6.26576 14.6261C5.20293 13.5691 4.5459 12.1068 4.5459 10.4901C4.5459 9.53133 4.77696 8.62688 5.1867 7.82905L4.80895 7.4513C4.67836 7.32072 4.57273 7.17462 4.49204 7.01895ZM7.26622 9.90858C7.23121 10.0971 7.21289 10.2915 7.21289 10.4901C7.21289 11.378 7.57905 12.1814 8.16733 12.7558C8.3649 12.9488 8.68146 12.945 8.87438 12.7474C9.06731 12.5499 9.06354 12.2333 8.86597 12.0404C8.55377 11.7355 8.33373 11.3382 8.25013 10.8925L7.26622 9.90858ZM11.5509 14.1932V20.1941C11.5509 20.4702 11.7747 20.6941 12.0509 20.6941C12.327 20.6941 12.5509 20.4702 12.5509 20.1941V15.1932L11.5509 14.1932ZM12.9861 10.6787C13.0023 10.6074 13.0108 10.5331 13.0108 10.4568C13.0108 9.9045 12.5631 9.45679 12.0108 9.45679C11.9346 9.45679 11.8603 9.46533 11.7889 9.4815L12.9861 10.6787ZM19.476 10.4904C19.476 12.116 18.8117 13.5855 17.7386 14.6438C17.542 14.8377 17.5398 15.1543 17.7337 15.3509C17.9276 15.5475 18.2442 15.5497 18.4408 15.3558C19.6966 14.1173 20.476 12.3944 20.476 10.4904C20.476 8.58641 19.6966 6.86354 18.4408 5.62496C18.2442 5.43106 17.9276 5.43325 17.7337 5.62986C17.5398 5.82647 17.542 6.14305 17.7386 6.33695C18.8117 7.39533 19.476 8.86483 19.476 10.4904ZM15.8095 10.4903C15.8095 11.1043 15.5547 11.658 15.1437 12.0529C14.9446 12.2442 14.9383 12.5607 15.1296 12.7598C15.3209 12.959 15.6375 12.9653 15.8366 12.774C16.4357 12.1984 16.8095 11.3875 16.8095 10.4903C16.8095 9.593 16.4357 8.78219 15.8366 8.20659C15.6375 8.01527 15.3209 8.0216 15.1296 8.22072C14.9383 8.41985 14.9446 8.73637 15.1437 8.92769C15.5547 9.32255 15.8095 9.87624 15.8095 10.4903ZM5.69283 5.86031C5.8881 5.66505 6.20468 5.66505 6.39994 5.86031L18.3999 17.8603C18.5952 18.0556 18.5952 18.3722 18.3999 18.5674C18.2047 18.7627 17.8881 18.7627 17.6928 18.5674L5.69283 6.56742C5.49757 6.37216 5.49757 6.05558 5.69283 5.86031Z" fill="black"/>
</svg>
