<svg width="24" height="25" viewBox="0 0 24 25" fill="none" xmlns="http://www.w3.org/2000/svg">
<path d="M18.7574 14.1085C20.2758 12.6111 21.2147 10.5335 21.2147 8.23438C21.2147 5.93524 20.2758 3.85768 18.7574 2.36021C18.2659 1.87545 18.2604 1.08401 18.7452 0.592481C19.2299 0.100953 20.0214 0.0954653 20.5129 0.580226C22.4881 2.52819 23.7147 5.23918 23.7147 8.23438C23.7147 11.2296 22.4881 13.9406 20.5129 15.8885C20.0214 16.3733 19.2299 16.3678 18.7452 15.8763C18.2604 15.3847 18.2659 14.5933 18.7574 14.1085Z" fill="black"/>
<path d="M14.8699 10.2172C15.3923 9.71529 15.715 9.01333 15.715 8.23389C15.715 7.45445 15.3923 6.75249 14.8699 6.25055C14.3721 5.77225 14.3563 4.98095 14.8346 4.48314C15.3129 3.98533 16.1042 3.96951 16.602 4.44782C17.5947 5.40158 18.215 6.74636 18.215 8.23389C18.215 9.72141 17.5947 11.0662 16.602 12.02C16.1042 12.4983 15.3129 12.4824 14.8346 11.9846C14.3563 11.4868 14.3721 10.6955 14.8699 10.2172Z" fill="black"/>
<path d="M5.25172 14.0839C3.74796 12.5883 2.81934 10.521 2.81934 8.23438C2.81934 5.94778 3.74796 3.88041 5.25172 2.38482C5.7412 1.898 5.74335 1.10654 5.25653 0.617062C4.7697 0.127578 3.97825 0.125425 3.48877 0.612249C1.53256 2.55784 0.319336 5.2556 0.319336 8.23438C0.319336 11.2132 1.53256 13.9109 3.48877 15.8565C3.97825 16.3433 4.7697 16.3412 5.25653 15.8517C5.74335 15.3622 5.7412 14.5708 5.25172 14.0839Z" fill="black"/>
<path d="M9.14799 10.2016C8.63508 9.70078 8.31905 9.00535 8.31905 8.23389C8.31905 7.46242 8.63508 6.767 9.14799 6.26616C9.64192 5.78384 9.65134 4.99244 9.16902 4.49851C8.68671 4.00458 7.89531 3.99517 7.40138 4.47748C6.42659 5.42935 5.81905 6.76179 5.81905 8.23389C5.81905 9.70599 6.42659 11.0384 7.40138 11.9903C7.89531 12.4726 8.68671 12.4632 9.16902 11.9693C9.65134 11.4753 9.64192 10.6839 9.14799 10.2016Z" fill="black"/>
<path d="M10.2664 8.18387C10.2664 8.69061 10.4817 9.14705 10.826 9.46663L10.826 22.7898C10.826 23.4802 11.3856 24.0398 12.076 24.0398C12.7663 24.0398 13.326 23.4802 13.326 22.7898L13.326 9.34474C13.6 9.03583 13.7664 8.62928 13.7664 8.18387C13.7664 7.21737 12.9829 6.43387 12.0164 6.43387C11.0499 6.43387 10.2664 7.21737 10.2664 8.18387Z" fill="black"/>
</svg>
