<svg width="24" height="24" viewBox="0 0 24 24" fill="none" xmlns="http://www.w3.org/2000/svg">
<path fill-rule="evenodd" clip-rule="evenodd" d="M0 12C0 10.142 0 9.21298 0.123117 8.43565C0.800832 4.15673 4.15673 0.800832 8.43565 0.123117C9.21298 0 10.142 0 12 0C13.858 0 14.787 0 15.5643 0.123117C19.8433 0.800832 23.1992 4.15673 23.8769 8.43565C24 9.21298 24 10.142 24 12C24 13.858 24 14.787 23.8769 15.5643C23.1992 19.8433 19.8433 23.1992 15.5643 23.8769C14.787 24 13.858 24 12 24C10.142 24 9.21298 24 8.43565 23.8769C4.15673 23.1992 0.800832 19.8433 0.123117 15.5643C0 14.787 0 13.858 0 12ZM13.4469 5.48843C13.5573 4.99196 12.9175 4.69088 12.6052 5.09233L7.83104 11.2306C7.58748 11.5437 7.81064 12 8.20735 12H11.9999L10.5529 18.5116C10.4426 19.008 11.0823 19.3091 11.3946 18.9077L16.1688 12.7694C16.4123 12.4563 16.1892 12 15.7925 12L11.9999 12L13.4469 5.48843ZM21.4872 12.4973C21.4957 12.3326 21.5 12.1668 21.5 12C21.5 11.8332 21.4957 11.6674 21.4872 11.5027L19.4899 11.6057C19.4966 11.7361 19.5 11.8676 19.5 12C19.5 12.1324 19.4966 12.2639 19.4899 12.3943L21.4872 12.4973ZM21.1785 9.54033C21.0923 9.21795 20.9896 8.90232 20.8713 8.59442L19.0043 9.31158C19.0975 9.55419 19.1784 9.80283 19.2463 10.0568L21.1785 9.54033ZM19.9683 6.82539C19.7871 6.54694 19.5918 6.27857 19.3832 6.02133L17.8296 7.28089C17.9945 7.48426 18.1489 7.69631 18.292 7.91622L19.9683 6.82539ZM17.9787 4.61681C17.7214 4.40825 17.4531 4.21285 17.1746 4.03165L16.0838 5.70798C16.3037 5.85109 16.5157 6.00548 16.7191 6.17036L17.9787 4.61681ZM15.4056 3.12866C15.0977 3.01038 14.7821 2.90768 14.4597 2.8215L13.9432 4.75367C14.1972 4.82156 14.4458 4.90246 14.6884 4.99565L15.4056 3.12866ZM12.4973 2.51279C12.3326 2.5043 12.1668 2.5 12 2.5C11.8332 2.5 11.6674 2.5043 11.5027 2.51279L11.6057 4.51014C11.7361 4.50341 11.8676 4.5 12 4.5C12.1324 4.5 12.2639 4.50341 12.3943 4.51014L12.4973 2.51279ZM9.54033 2.82151C9.21795 2.90768 8.90232 3.01038 8.59442 3.12866L9.31158 4.99566C9.55419 4.90247 9.80283 4.82156 10.0568 4.75367L9.54033 2.82151ZM6.82539 4.03165C6.54694 4.21285 6.27857 4.40825 6.02133 4.61682L7.28089 6.17036C7.48426 6.00548 7.69631 5.85109 7.91622 5.70798L6.82539 4.03165ZM4.61681 6.02133C4.40825 6.27858 4.21285 6.54694 4.03165 6.82539L5.70798 7.91622C5.85109 7.69631 6.00548 7.48426 6.17036 7.28089L4.61681 6.02133ZM3.12866 8.59442C3.01038 8.90232 2.90768 9.21795 2.82151 9.54033L4.75367 10.0568C4.82156 9.80283 4.90246 9.55419 4.99565 9.31158L3.12866 8.59442ZM2.5 12C2.5 11.8332 2.5043 11.6674 2.51279 11.5027L4.51014 11.6057C4.50341 11.7361 4.5 11.8676 4.5 12C4.5 12.1324 4.50341 12.2639 4.51014 12.3943L2.51279 12.4973C2.5043 12.3326 2.5 12.1668 2.5 12ZM2.8215 14.4597C2.90768 14.7821 3.01038 15.0977 3.12866 15.4056L4.99566 14.6884C4.90247 14.4458 4.82156 14.1972 4.75367 13.9432L2.8215 14.4597ZM4.03165 17.1746C4.21285 17.4531 4.40825 17.7214 4.61682 17.9787L6.17036 16.7191C6.00548 16.5157 5.85109 16.3037 5.70798 16.0838L4.03165 17.1746ZM6.02133 19.3832C6.27858 19.5918 6.54694 19.7872 6.82539 19.9683L7.91622 18.292C7.69631 18.1489 7.48426 17.9945 7.28089 17.8296L6.02133 19.3832ZM8.59442 20.8713C8.90232 20.9896 9.21795 21.0923 9.54033 21.1785L10.0568 19.2463C9.80283 19.1784 9.55419 19.0975 9.31158 19.0043L8.59442 20.8713ZM11.5027 21.4872C11.6674 21.4957 11.8332 21.5 12 21.5C12.1668 21.5 12.3326 21.4957 12.4973 21.4872L12.3943 19.4899C12.2639 19.4966 12.1324 19.5 12 19.5C11.8676 19.5 11.7361 19.4966 11.6057 19.4899L11.5027 21.4872ZM14.4597 21.1785C14.7821 21.0923 15.0977 20.9896 15.4056 20.8713L14.6884 19.0043C14.4458 19.0975 14.1972 19.1784 13.9432 19.2463L14.4597 21.1785ZM17.1746 19.9683C17.4531 19.7871 17.7214 19.5918 17.9787 19.3832L16.7191 17.8296C16.5157 17.9945 16.3037 18.1489 16.0838 18.292L17.1746 19.9683ZM19.3832 17.9787C19.5918 17.7214 19.7872 17.4531 19.9683 17.1746L18.292 16.0838C18.1489 16.3037 17.9945 16.5157 17.8296 16.7191L19.3832 17.9787ZM21.1785 14.4597C21.0923 14.7821 20.9896 15.0977 20.8713 15.4056L19.0043 14.6884C19.0975 14.4458 19.1784 14.1972 19.2463 13.9432L21.1785 14.4597Z" fill="black"/>
</svg>
