<svg width="24" height="24" viewBox="0 0 24 24" fill="none" xmlns="http://www.w3.org/2000/svg">
<path d="M0.569336 8.23584C0.569336 6.77257 0.868993 5.37881 1.40998 4.11299L2.96413 5.66715C2.70762 6.47747 2.56934 7.34037 2.56934 8.23584C2.56934 10.5917 3.52642 12.7221 5.07542 14.2626C5.46701 14.6521 5.46873 15.2853 5.07927 15.6769C4.68981 16.0684 4.05665 16.0702 3.66506 15.6807C1.7541 13.7801 0.569336 11.1454 0.569336 8.23584Z" fill="black"/>
<path d="M7.57604 11.8129C6.77479 11.0305 6.23429 9.9786 6.1011 8.80411L9.03915 11.7422C9.02359 11.7606 9.00726 11.7785 8.99016 11.7961C8.60431 12.1912 7.97119 12.1987 7.57604 11.8129Z" fill="black"/>
<path d="M11.076 22.7916L11.076 13.779L13.076 15.779L13.076 22.7916C13.076 23.3439 12.6283 23.7916 12.076 23.7916C11.5237 23.7916 11.076 23.3439 11.076 22.7916Z" fill="black"/>
<path d="M14.9157 10.5477L16.3083 11.9402C16.3503 11.9108 16.3906 11.8778 16.4288 11.8411C17.3744 10.9326 17.965 9.65207 17.965 8.23535C17.965 6.81863 17.3744 5.53814 16.4288 4.62956C16.0305 4.24691 15.3975 4.25956 15.0149 4.65781C14.6322 5.05606 14.6449 5.6891 15.0431 6.07174C15.6125 6.61886 15.965 7.3851 15.965 8.23535C15.965 9.0856 15.6125 9.85184 15.0431 10.399C14.995 10.4452 14.9526 10.495 14.9157 10.5477Z" fill="black"/>
<path d="M18.8071 14.439L20.1961 15.8281C20.2458 15.7943 20.2931 15.7557 20.3374 15.712C22.2668 13.8091 23.4647 11.1614 23.4647 8.23584C23.4647 5.31025 22.2668 2.6626 20.3374 0.759688C19.9441 0.371881 19.311 0.37627 18.9232 0.769492C18.5354 1.16271 18.5398 1.79586 18.933 2.18367C20.497 3.7262 21.4647 5.8671 21.4647 8.23584C21.4647 10.6046 20.497 12.7455 18.933 14.288C18.8853 14.335 18.8433 14.3857 18.8071 14.439Z" fill="black"/>
<path d="M11.2588 6.89073L13.3113 8.94327C13.4417 8.72092 13.5165 8.46199 13.5165 8.18561C13.5165 7.35718 12.8449 6.68561 12.0164 6.68561C11.7401 6.68561 11.4811 6.76036 11.2588 6.89073Z" fill="black"/>
<path d="M2.79888 0.905705C2.50599 0.612812 2.03112 0.612812 1.73822 0.905705C1.44533 1.1986 1.44533 1.67347 1.73822 1.96637L19.2941 19.5222C19.587 19.8151 20.0618 19.8151 20.3547 19.5222C20.6476 19.2293 20.6476 18.7545 20.3547 18.4616L2.79888 0.905705Z" fill="black"/>
</svg>
