<svg width="24" height="24" viewBox="0 0 24 24" fill="none" xmlns="http://www.w3.org/2000/svg">
<path fill-rule="evenodd" clip-rule="evenodd" d="M17.8421 18.5502C16.0547 20.1691 13.6835 21.1553 11.082 21.1553C5.51874 21.1553 1.00879 16.6453 1.00879 11.082C1.00879 5.51874 5.51874 1.00879 11.082 1.00879C16.6453 1.00879 21.1553 5.51874 21.1553 11.082C21.1553 13.684 20.1687 16.0556 18.5493 17.8431L23.0938 22.3874C23.289 22.5826 23.2891 22.8992 23.0938 23.0945C22.8985 23.2897 22.582 23.2897 22.3867 23.0945L17.8421 18.5502ZM6.67 10.582C6.39385 10.582 6.17 10.8059 6.17 11.082C6.17 11.3582 6.39386 11.582 6.67 11.582L10.5826 11.582L10.5826 15.4942C10.5826 15.7704 10.8065 15.9942 11.0826 15.9942C11.3588 15.9942 11.5826 15.7704 11.5826 15.4942L11.5826 11.582L15.4948 11.582C15.771 11.582 15.9948 11.3582 15.9948 11.082C15.9948 10.8059 15.771 10.582 15.4948 10.582L11.5826 10.582L11.5826 6.6694C11.5826 6.39326 11.3588 6.1694 11.0826 6.1694C10.8065 6.1694 10.5826 6.39326 10.5826 6.6694L10.5826 10.582L6.67 10.582Z" fill="black"/>
</svg>
