<svg width="24" height="24" viewBox="0 0 24 24" fill="none" xmlns="http://www.w3.org/2000/svg">
<path d="M6.0368 11.0813C6.0368 10.391 6.59644 9.83132 7.28679 9.83132L9.83152 9.83131L9.83153 7.28658C9.83153 6.59623 10.3912 6.03659 11.0815 6.03659C11.7719 6.03659 12.3315 6.59624 12.3315 7.2866L12.3315 9.8313L14.8758 9.83128C15.5662 9.83128 16.1258 10.3909 16.1258 11.0813C16.1258 11.7716 15.5662 12.3313 14.8759 12.3313L12.3315 12.3313L12.3315 14.8756C12.3315 15.566 11.7718 16.1256 11.0815 16.1256C10.3911 16.1256 9.83149 15.566 9.83149 14.8756L9.8315 12.3313L7.2868 12.3313C6.59645 12.3313 6.0368 11.7717 6.0368 11.0813Z" fill="black"/>
<path fill-rule="evenodd" clip-rule="evenodd" d="M11.082 21.1553C13.4129 21.1553 15.5589 20.3636 17.2657 19.0345L21.8564 23.6248C22.3446 24.113 23.136 24.1129 23.6242 23.6248C24.1123 23.1366 24.1123 22.3451 23.6241 21.857L19.0336 17.2668C20.3633 15.5598 21.1553 13.4134 21.1553 11.082C21.1553 5.51874 16.6453 1.00879 11.082 1.00879C5.51874 1.00879 1.00879 5.51874 1.00879 11.082C1.00879 16.6453 5.51874 21.1553 11.082 21.1553ZM11.082 18.6553C15.2646 18.6553 18.6553 15.2646 18.6553 11.082C18.6553 6.89945 15.2646 3.50879 11.082 3.50879C6.89945 3.50879 3.50879 6.89945 3.50879 11.082C3.50879 15.2646 6.89945 18.6553 11.082 18.6553Z" fill="black"/>
</svg>
