<svg width="24" height="24" viewBox="0 0 24 24" fill="none" xmlns="http://www.w3.org/2000/svg">
<path d="M6.10182 11.0822C6.10182 10.5299 6.54953 10.0822 7.10182 10.0822L10.0823 10.0822L10.0823 7.10166C10.0823 6.54937 10.5301 6.10166 11.0824 6.10166C11.6346 6.10166 12.0823 6.54938 12.0823 7.10167L12.0823 10.0822L15.0624 10.0822C15.6147 10.0822 16.0625 10.5299 16.0625 11.0822C16.0625 11.6344 15.6147 12.0822 15.0625 12.0822L12.0823 12.0822L12.0823 15.0623C12.0823 15.6146 11.6346 16.0623 11.0823 16.0623C10.53 16.0623 10.0823 15.6146 10.0823 15.0623L10.0823 12.0822L7.10182 12.0822C6.54954 12.0822 6.10182 11.6345 6.10182 11.0822Z" fill="black"/>
<path fill-rule="evenodd" clip-rule="evenodd" d="M11.082 21.1553C16.6453 21.1553 21.1553 16.6453 21.1553 11.082C21.1553 5.51874 16.6453 1.00879 11.082 1.00879C5.51874 1.00879 1.00879 5.51874 1.00879 11.082C1.00879 16.6453 5.51874 21.1553 11.082 21.1553ZM11.082 19.1553C15.5408 19.1553 19.1553 15.5408 19.1553 11.082C19.1553 6.62331 15.5408 3.00879 11.082 3.00879C6.62331 3.00879 3.00879 6.62331 3.00879 11.082C3.00879 15.5408 6.62331 19.1553 11.082 19.1553Z" fill="black"/>
<path d="M17.4632 18.8775L22.0341 23.4481C22.4247 23.8386 23.0578 23.8385 23.4483 23.448C23.8389 23.0575 23.8388 22.4243 23.4483 22.0338L18.8775 17.4632C18.4539 17.98 17.98 18.4539 17.4632 18.8775Z" fill="black"/>
</svg>
