<svg width="24" height="24" viewBox="0 0 24 24" fill="none" xmlns="http://www.w3.org/2000/svg">
<path d="M6.41671 10.8324C6.27864 10.8324 6.16671 10.9444 6.16671 11.0824C6.16671 11.2205 6.27864 11.3324 6.41671 11.3324H15.748C15.8861 11.3324 15.998 11.2205 15.998 11.0824C15.998 10.9444 15.8861 10.8324 15.748 10.8324H6.41671Z" fill="black"/>
<path fill-rule="evenodd" clip-rule="evenodd" d="M11.082 21.1553C13.7735 21.1553 16.2185 20.0997 18.0254 18.38L22.5635 22.9177C22.6611 23.0153 22.8194 23.0153 22.917 22.9177C23.0147 22.8201 23.0146 22.6618 22.917 22.5641L18.379 18.0264C20.0993 16.2194 21.1553 13.774 21.1553 11.082C21.1553 5.51874 16.6453 1.00879 11.082 1.00879C5.51874 1.00879 1.00879 5.51874 1.00879 11.082C1.00879 16.6453 5.51874 21.1553 11.082 21.1553ZM11.082 20.6553C16.3692 20.6553 20.6553 16.3692 20.6553 11.082C20.6553 5.79488 16.3692 1.50879 11.082 1.50879C5.79488 1.50879 1.50879 5.79488 1.50879 11.082C1.50879 16.3692 5.79488 20.6553 11.082 20.6553Z" fill="black"/>
</svg>
