<svg width="24" height="24" viewBox="0 0 24 24" fill="none" xmlns="http://www.w3.org/2000/svg">
<path d="M6.6696 10.5821C6.39346 10.5821 6.1696 10.8059 6.1696 11.0821C6.1696 11.3582 6.39346 11.5821 6.6696 11.5821L15.4944 11.5821C15.7706 11.5821 15.9944 11.3582 15.9944 11.0821C15.9944 10.8059 15.7706 10.5821 15.4944 10.5821L6.6696 10.5821Z" fill="black"/>
<path fill-rule="evenodd" clip-rule="evenodd" d="M11.082 21.1553C13.6835 21.1553 16.0547 20.1691 17.8421 18.5502L22.3867 23.0945C22.582 23.2897 22.8985 23.2897 23.0938 23.0945C23.2891 22.8992 23.289 22.5826 23.0938 22.3874L18.5493 17.8431C20.1687 16.0556 21.1553 13.684 21.1553 11.082C21.1553 5.51874 16.6453 1.00879 11.082 1.00879C5.51874 1.00879 1.00879 5.51874 1.00879 11.082C1.00879 16.6453 5.51874 21.1553 11.082 21.1553ZM11.082 20.1553C16.0931 20.1553 20.1553 16.0931 20.1553 11.082C20.1553 6.07102 16.0931 2.00879 11.082 2.00879C6.07102 2.00879 2.00879 6.07102 2.00879 11.082C2.00879 16.0931 6.07102 20.1553 11.082 20.1553Z" fill="black"/>
</svg>
