<svg width="24" height="24" viewBox="0 0 24 24" fill="none" xmlns="http://www.w3.org/2000/svg">
<path fill-rule="evenodd" clip-rule="evenodd" d="M17.6544 18.716C15.8903 20.2362 13.5935 21.1553 11.082 21.1553C5.51874 21.1553 1.00879 16.6453 1.00879 11.082C1.00879 5.51874 5.51874 1.00879 11.082 1.00879C16.6453 1.00879 21.1553 5.51874 21.1553 11.082C21.1553 13.594 20.2358 15.8912 18.7151 17.6554L23.2706 22.2106C23.5635 22.5035 23.5635 22.9783 23.2706 23.2712C22.9777 23.5641 22.5028 23.5642 22.2099 23.2713L17.6544 18.716ZM6.14757 11.083C6.14757 10.6688 6.48336 10.333 6.89757 10.333L15.2681 10.333C15.6823 10.333 16.0181 10.6688 16.0181 11.083C16.0181 11.4972 15.6823 11.833 15.2681 11.833L6.89758 11.833C6.48336 11.833 6.14758 11.4972 6.14757 11.083Z" fill="black"/>
</svg>
