<svg width="24" height="24" viewBox="0 0 24 24" fill="none" xmlns="http://www.w3.org/2000/svg">
<path fill-rule="evenodd" clip-rule="evenodd" d="M11.082 1.00879C16.6453 1.00879 21.1553 5.51873 21.1553 11.082C21.1553 13.2318 20.4795 15.2226 19.332 16.8584L23.2373 20.7637C23.9202 21.4471 23.9206 22.555 23.2373 23.2383C22.554 23.9215 21.4461 23.9212 20.7627 23.2383L16.8584 19.333C16.8692 19.3254 16.8789 19.3162 16.8896 19.3086C15.2479 20.4697 13.2458 21.1553 11.082 21.1553C5.51873 21.1553 1.00879 16.6453 1.00879 11.082C1.00879 5.51873 5.51873 1.00879 11.082 1.00879ZM11.0811 5.53711C10.1147 5.53714 9.3313 6.31986 9.33105 7.28613L9.33008 9.33105H7.28613C6.31972 9.33116 5.53613 10.1146 5.53613 11.0811C5.53614 12.0475 6.31972 12.831 7.28613 12.8311H9.33008L9.33105 14.876L9.33984 15.0547C9.42963 15.9369 10.1751 16.625 11.0811 16.625C11.9869 16.6249 12.7315 15.9368 12.8213 15.0547L12.8311 14.876L12.8301 12.8311H14.875L15.0537 12.8223C15.9361 12.7326 16.625 11.9871 16.625 11.0811C16.625 10.175 15.9361 9.42948 15.0537 9.33984L14.875 9.33105H12.8301L12.8311 7.28613C12.8308 6.31992 12.0473 5.53725 11.0811 5.53711Z" fill="black"/>
</svg>
