<svg width="24" height="24" viewBox="0 0 24 24" fill="none" xmlns="http://www.w3.org/2000/svg">
<path fill-rule="evenodd" clip-rule="evenodd" d="M21.1553 11.082C21.1553 16.6453 16.6453 21.1553 11.082 21.1553C5.51874 21.1553 1.00879 16.6453 1.00879 11.082C1.00879 5.51874 5.51874 1.00879 11.082 1.00879C16.6453 1.00879 21.1553 5.51874 21.1553 11.082ZM6.10171 11.082C6.10171 10.5297 6.54943 10.082 7.10171 10.082L15.0623 10.082C15.6146 10.082 16.0623 10.5297 16.0623 11.082C16.0623 11.6343 15.6146 12.082 15.0623 12.082L7.10172 12.082C6.54943 12.082 6.10172 11.6343 6.10171 11.082Z" fill="black"/>
<path d="M22.0341 23.4481L17.4632 18.8775C17.98 18.4539 18.4539 17.98 18.8775 17.4632L23.4483 22.0338C23.8388 22.4243 23.8389 23.0575 23.4483 23.448C23.0578 23.8385 22.4247 23.8386 22.0341 23.4481Z" fill="black"/>
</svg>
