<svg width="24" height="24" viewBox="0 0 24 24" fill="none" xmlns="http://www.w3.org/2000/svg">
<path d="M15.0547 9.34082C15.937 9.4305 16.6258 10.1751 16.626 11.0811C16.626 11.9871 15.9371 12.7326 15.0547 12.8223L14.876 12.8311H7.28711C6.32061 12.8311 5.53711 12.0476 5.53711 11.0811C5.53725 10.1147 6.3207 9.33106 7.28711 9.33105H14.876L15.0547 9.34082Z" fill="black"/>
<path fill-rule="evenodd" clip-rule="evenodd" d="M11.082 1.00879C16.6453 1.00879 21.1553 5.51873 21.1553 11.082C21.1553 13.2318 20.4795 15.2226 19.332 16.8584L23.2373 20.7637C23.9203 21.4471 23.9206 22.555 23.2373 23.2383C22.554 23.9215 21.4461 23.9212 20.7627 23.2383L16.8584 19.333C16.8692 19.3254 16.8789 19.3162 16.8896 19.3086C15.2479 20.4697 13.2458 21.1553 11.082 21.1553C5.51873 21.1553 1.00879 16.6453 1.00879 11.082C1.00879 5.51873 5.51873 1.00879 11.082 1.00879ZM11.082 4.50879C7.45173 4.50879 4.50879 7.45173 4.50879 11.082C4.50879 14.7123 7.45173 17.6553 11.082 17.6553C14.7123 17.6553 17.6553 14.7123 17.6553 11.082C17.6553 7.45173 14.7123 4.50879 11.082 4.50879Z" fill="black"/>
</svg>
