<svg width="24" height="24" viewBox="0 0 24 24" fill="none" xmlns="http://www.w3.org/2000/svg">
<path fill-rule="evenodd" clip-rule="evenodd" d="M18.0254 18.38C16.2185 20.0997 13.7735 21.1553 11.082 21.1553C5.51874 21.1553 1.00879 16.6453 1.00879 11.082C1.00879 5.51874 5.51874 1.00879 11.082 1.00879C16.6453 1.00879 21.1553 5.51874 21.1553 11.082C21.1553 13.774 20.0993 16.2194 18.379 18.0264L22.917 22.5641C23.0146 22.6618 23.0147 22.8201 22.917 22.9177C22.8194 23.0153 22.6611 23.0153 22.5635 22.9177L18.0254 18.38ZM6.41703 10.832C6.27896 10.832 6.16703 10.944 6.16703 11.082C6.16703 11.2201 6.27896 11.332 6.41703 11.332H10.8329L10.8329 15.7475C10.8329 15.8855 10.9448 15.9975 11.0829 15.9975C11.221 15.9975 11.3329 15.8855 11.3329 15.7475V11.332H15.7483C15.8864 11.332 15.9983 11.2201 15.9983 11.082C15.9983 10.944 15.8864 10.832 15.7483 10.832H11.3329V6.41615C11.3329 6.27808 11.221 6.16615 11.0829 6.16615C10.9448 6.16615 10.8329 6.27807 10.8329 6.41615L10.8329 10.832H6.41703Z" fill="black"/>
</svg>
