<svg width="24" height="24" viewBox="0 0 24 24" fill="none" xmlns="http://www.w3.org/2000/svg">
<path d="M12.5 4.55001C13.6411 4.78164 14.5 5.79052 14.5 7V10C14.5 11.3807 13.3807 12.5 12 12.5C10.6193 12.5 9.5 11.3807 9.5 10V7C9.5 5.79052 10.3589 4.78164 11.5 4.55001V0H7.78947C5.69661 0 4 1.69661 4 3.78948V16C4 20.4183 7.58172 24 12 24C16.4183 24 20 20.4183 20 16V3.78947C20 1.69661 18.3034 0 16.2105 0H12.5V4.55001Z" fill="black"/>
<path d="M12 5.5C11.1716 5.5 10.5 6.17157 10.5 7V10C10.5 10.8284 11.1716 11.5 12 11.5C12.8284 11.5 13.5 10.8284 13.5 10V7C13.5 6.17157 12.8284 5.5 12 5.5Z" fill="black"/>
</svg>
