<svg width="24" height="24" viewBox="0 0 24 24" fill="none" xmlns="http://www.w3.org/2000/svg">
<path fill-rule="evenodd" clip-rule="evenodd" d="M5.9478 5.14568C5.43283 5.14564 4.95986 5.14561 4.56449 5.17791C4.13823 5.21274 3.67188 5.29246 3.21127 5.52716C2.5527 5.86271 2.01727 6.39815 1.68171 7.05671C1.44702 7.51733 1.36729 7.98367 1.33247 8.40994C1.30016 8.80531 1.3002 9.27827 1.30024 9.79324L1.30023 18.4981C1.3002 19.0131 1.30016 19.4861 1.33247 19.8814C1.36729 20.3077 1.44702 20.774 1.68171 21.2346C2.01727 21.8932 2.5527 22.4286 3.21127 22.7642C3.67188 22.9989 4.13823 23.0786 4.56449 23.1135C4.95986 23.1458 5.43281 23.1457 5.94777 23.1457H13.6527C14.1677 23.1457 14.6406 23.1458 15.036 23.1135C15.4622 23.0786 15.9286 22.9989 16.3892 22.7642C17.0478 22.4286 17.5832 21.8932 17.9188 21.2346C18.1535 20.774 18.2332 20.3077 18.268 19.8814C18.3003 19.4861 18.3003 19.0131 18.3002 18.4981V9.79326C18.3003 9.27828 18.3003 8.80531 18.268 8.40994C18.2332 7.98367 18.1535 7.51733 17.9188 7.05671C17.5832 6.39815 17.0478 5.86272 16.3892 5.52716C15.9286 5.29246 15.4622 5.21274 15.036 5.17791C14.6406 5.14561 14.1677 5.14564 13.6527 5.14568H5.9478ZM2.80024 9.84568C2.80024 8.72558 2.80024 8.16552 3.01822 7.7377C3.20997 7.36138 3.51593 7.05541 3.89226 6.86367C4.32008 6.64568 4.88013 6.64568 6.00024 6.64568H13.6002C14.7203 6.64568 15.2804 6.64568 15.7082 6.86367C16.0845 7.05541 16.3905 7.36138 16.5823 7.7377C16.8002 8.16552 16.8002 8.72558 16.8002 9.84568L16.8002 18.4457C16.8002 19.5658 16.8002 20.1258 16.5822 20.5537C16.3905 20.93 16.0845 21.2359 15.7082 21.4277C15.2804 21.6457 14.7203 21.6457 13.6002 21.6457H6.00024C4.88013 21.6457 4.32008 21.6457 3.89226 21.4277C3.51593 21.2359 3.20997 20.93 3.01822 20.5537C2.80024 20.1258 2.80024 19.5658 2.80024 18.4457L2.80024 9.84568Z" fill="black"/>
<path d="M7.41778 3.44554C7.3854 3.50908 7.35783 3.57554 7.33436 3.64631L5.7918 3.64629C5.84387 3.35809 5.93066 3.06014 6.08127 2.76455C6.41682 2.10599 6.95225 1.57055 7.61082 1.235C8.07144 1.0003 8.53778 0.920577 8.96404 0.885751C9.35942 0.853448 9.83238 0.85348 10.3474 0.853518L18.0522 0.853518C18.5672 0.853482 19.0402 0.853449 19.4355 0.88575C19.8618 0.920578 20.3281 1.0003 20.7888 1.235C21.4473 1.57056 21.9828 2.10599 22.3183 2.76455C22.553 3.22517 22.6327 3.69151 22.6676 4.11778C22.6999 4.51315 22.6998 4.98612 22.6998 5.5011V14.2059C22.6998 14.7209 22.6999 15.1939 22.6676 15.5893C22.6327 16.0155 22.553 16.4819 22.3183 16.9425C21.9828 17.6011 21.4473 18.1365 20.7888 18.472C20.4565 18.6413 20.1213 18.73 19.8003 18.7793C19.8004 18.6945 19.8004 18.6102 19.8004 18.5272L19.8004 17.2504C19.9124 17.2212 20.0133 17.1837 20.1078 17.1355C20.4841 16.9438 20.7901 16.6378 20.9818 16.2615C21.1998 15.8337 21.1998 15.2736 21.1998 14.1535V5.55352C21.1998 4.43341 21.1998 3.87336 20.9818 3.44554C20.7901 3.06921 20.4841 2.76325 20.1078 2.57151C19.6799 2.35352 19.1199 2.35352 17.9998 2.35352L10.3998 2.35352C9.27968 2.35352 8.71963 2.35352 8.29181 2.57151C7.91548 2.76325 7.60952 3.06922 7.41778 3.44554Z" fill="black"/>
</svg>
