<svg width="24" height="24" viewBox="0 0 24 24" fill="none" xmlns="http://www.w3.org/2000/svg">
<g clip-path="url(#clip0_63_5122)">
<path fill-rule="evenodd" clip-rule="evenodd" d="M8.23136 0H15.7686C16.9522 0 18.0873 0.470188 18.9242 1.30713C19.7612 2.14407 20.2314 3.2792 20.2314 4.46281C20.2314 5.64642 19.7612 6.78155 18.9242 7.61849C18.6906 7.85213 18.4337 8.05718 18.1591 8.2314C18.4337 8.40563 18.6906 8.61068 18.9242 8.84432C19.7612 9.68126 20.2314 10.8164 20.2314 12C20.2314 13.1836 19.7612 14.3187 18.9242 15.1557C18.0873 15.9926 16.9522 16.4628 15.7686 16.4628C14.6228 16.4628 13.5226 16.0222 12.6942 15.2349V19.5372C12.6942 20.7208 12.224 21.8559 11.387 22.6929C10.5501 23.5298 9.41498 24 8.23136 24C7.04775 24 5.91262 23.5298 5.07568 22.6929C4.23874 21.8559 3.76855 20.7208 3.76855 19.5372C3.76855 18.3536 4.23874 17.2184 5.07568 16.3815C5.30932 16.1479 5.56619 15.9428 5.84086 15.7686C5.56619 15.5944 5.30932 15.3893 5.07568 15.1557C4.23874 14.3187 3.76855 13.1836 3.76855 12C3.76855 10.8164 4.23874 9.68126 5.07568 8.84432C5.30932 8.61068 5.56619 8.40563 5.84086 8.2314C5.56619 8.05718 5.30932 7.85213 5.07568 7.61849C4.23874 6.78155 3.76855 5.64642 3.76855 4.46281C3.76855 3.2792 4.23874 2.14407 5.07568 1.30713C5.91262 0.470188 7.04775 0 8.23136 0ZM8.23136 7.53719H11.3057V1.38843H8.23136C7.41599 1.38843 6.63401 1.71234 6.05745 2.28889C5.48089 2.86545 5.15698 3.64743 5.15698 4.46281C5.15698 5.27819 5.48089 6.06017 6.05745 6.63672C6.63401 7.21328 7.41599 7.53719 8.23136 7.53719ZM8.23136 15.0744H11.3057V8.92562H8.23136C7.41599 8.92562 6.63401 9.24953 6.05745 9.82608C5.48089 10.4026 5.15698 11.1846 5.15698 12C5.15698 12.8154 5.48089 13.5974 6.05745 14.1739C6.63401 14.7505 7.41599 15.0744 8.23136 15.0744ZM8.23136 16.4628C7.41599 16.4628 6.63401 16.7867 6.05745 17.3633C5.48089 17.9398 5.15698 18.7218 5.15698 19.5372C5.15698 20.3526 5.48089 21.1345 6.05745 21.7111C6.63401 22.2877 7.41599 22.6116 8.23136 22.6116C9.04674 22.6116 9.82872 22.2877 10.4053 21.7111C10.9818 21.1345 11.3057 20.3526 11.3057 19.5372V16.4628H8.23136ZM12.6942 12C12.6942 12.8154 13.0181 13.5974 13.5946 14.1739C14.1712 14.7505 14.9532 15.0744 15.7686 15.0744C16.5839 15.0744 17.3659 14.7505 17.9425 14.1739C18.519 13.5974 18.8429 12.8154 18.8429 12C18.8429 11.1846 18.519 10.4026 17.9425 9.82608C17.3659 9.24953 16.5839 8.92562 15.7686 8.92562C14.9532 8.92562 14.1712 9.24953 13.5946 9.82608C13.0181 10.4026 12.6942 11.1846 12.6942 12ZM12.6942 7.53719V1.38843H15.7686C16.5839 1.38843 17.3659 1.71234 17.9425 2.28889C18.519 2.86545 18.8429 3.64743 18.8429 4.46281C18.8429 5.27819 18.519 6.06017 17.9425 6.63672C17.3659 7.21328 16.5839 7.53719 15.7686 7.53719H12.6942Z" fill="black"/>
</g>
<defs>
<clipPath id="clip0_63_5122">
<rect width="16.4628" height="24" fill="white" transform="translate(3.76855)"/>
</clipPath>
</defs>
</svg>
