<svg xmlns="http://www.w3.org/2000/svg" width="24" height="24" fill="none" viewBox="0 0 24 24"><path fill="#000" fill-rule="evenodd" d="M12 .75C5.787.75.75 5.787.75 12S5.787 23.25 12 23.25 23.25 18.213 23.25 12 18.213.75 12 .75m9.357 14A9.8 9.8 0 0 0 21.75 12c0-.955-.137-1.878-.393-2.75h-4.742c.088.881.135 1.803.135 2.75s-.047 1.869-.135 2.75zm-.58 1.5a9.78 9.78 0 0 1-6.06 5.116c.306-.489.576-1.055.812-1.674.378-.992.68-2.158.89-3.442zm-5.88 0c-.191 1.097-.454 2.08-.77 2.908-.342.9-.732 1.576-1.127 2.015s-.735.577-1 .577-.605-.138-1-.577-.785-1.115-1.128-2.015c-.315-.828-.578-1.81-.77-2.908zm-7.316 0c.21 1.284.512 2.45.89 3.442.236.619.506 1.185.812 1.674a9.78 9.78 0 0 1-6.06-5.116zm-4.938-1.5h4.742A28 28 0 0 1 7.25 12c0-.947.047-1.869.135-2.75H2.643A9.8 9.8 0 0 0 2.25 12c0 .955.137 1.878.393 2.75m6.25 0h6.214A26 26 0 0 0 15.25 12c0-.957-.05-1.879-.143-2.75H8.893A26 26 0 0 0 8.75 12c0 .957.05 1.879.143 2.75m7.526-7h4.358a9.78 9.78 0 0 0-6.06-5.116c.306.489.576 1.055.812 1.674.378.992.68 2.158.89 3.442m-2.291-2.908c.315.828.578 1.81.77 2.908H9.102c.192-1.097.455-2.08.77-2.908.343-.9.733-1.576 1.128-2.015s.735-.577 1-.577.605.138 1 .577.785 1.115 1.128 2.015M7.58 7.75H3.223a9.78 9.78 0 0 1 6.06-5.116 9.7 9.7 0 0 0-.812 1.674c-.378.992-.68 2.158-.89 3.442" clip-rule="evenodd"></path></svg>