<svg width="32" height="33" viewBox="0 0 32 33" fill="none" xmlns="http://www.w3.org/2000/svg">
<path d="M16.6666 6.56668C18.1881 6.87553 19.3333 8.2207 19.3333 9.83333V13.8333C19.3333 15.6743 17.8409 17.1667 16 17.1667C14.159 17.1667 12.6666 15.6743 12.6666 13.8333V9.83333C12.6666 8.2207 13.8118 6.87553 15.3333 6.56668V0.5H10.3859C7.59545 0.5 5.33331 2.76214 5.33331 5.55263V21.8333C5.33331 27.7244 10.1089 32.5 16 32.5C21.891 32.5 26.6666 27.7244 26.6666 21.8333V5.55263C26.6666 2.76214 24.4045 0.5 21.614 0.5H16.6666V6.56668Z" fill="black"/>
<path d="M16 7.83333C14.8954 7.83333 14 8.72876 14 9.83333V13.8333C14 14.9379 14.8954 15.8333 16 15.8333C17.1045 15.8333 18 14.9379 18 13.8333V9.83333C18 8.72876 17.1045 7.83333 16 7.83333Z" fill="black"/>
</svg>
