<svg width="16" height="17" viewBox="0 0 16 17" fill="none" xmlns="http://www.w3.org/2000/svg">
<g clip-path="url(#clip0_225_7169)">
<path d="M13.7884 0.836535C14.2361 0.809028 14.6215 1.1454 14.6498 1.58849C14.6508 1.60519 14.6517 1.62253 14.6517 1.63927V16.0299C14.6517 16.474 14.2879 16.8343 13.8392 16.8346C13.827 16.8346 13.8142 16.8341 13.8021 16.8336L2.95346 16.3512C2.53094 16.3324 2.19393 15.9961 2.17807 15.5777L1.6771 2.37169C1.66056 1.93569 1.99794 1.56616 2.43784 1.53868L13.7884 0.836535ZM8.40854 3.55724C6.29302 3.55729 5.10799 4.69425 5.10776 6.40001C5.10776 9.37135 9.15834 9.42877 9.15854 11.0494C9.15854 11.5043 8.93393 11.775 8.43881 11.775C7.79356 11.775 7.53869 11.4484 7.5687 10.3395C7.56828 10.099 5.10808 10.024 5.03256 10.3395C4.84151 13.0268 6.53334 13.8024 8.46909 13.8024C10.3446 13.8022 11.8148 12.8124 11.8148 11.0211C11.8148 7.83644 7.70346 7.92149 7.70346 6.34337C7.70359 5.70383 8.18402 5.61876 8.46909 5.61876C8.76925 5.6188 9.30891 5.67138 9.26401 6.86485C9.26401 7.17783 11.3941 7.02806 11.68 6.80821C11.68 4.67697 10.5243 3.55724 8.40854 3.55724Z" fill="#898B8C"/>
</g>
<defs>
<clipPath id="clip0_225_7169">
<rect width="12.9755" height="16" fill="white" transform="translate(1.67627 0.834839)"/>
</clipPath>
</defs>
</svg>
