<svg width="32" height="33" viewBox="0 0 32 33" fill="none" xmlns="http://www.w3.org/2000/svg">
<path d="M7.33327 8.49996C7.33327 5.18625 10.0196 2.49996 13.3333 2.49996C16.647 2.49996 19.3333 5.18625 19.3333 8.49996C19.3333 8.86815 19.6317 9.16663 19.9999 9.16663C20.3681 9.16663 20.6666 8.86815 20.6666 8.49996C20.6666 4.44987 17.3834 1.16663 13.3333 1.16663C9.28318 1.16663 5.99994 4.44987 5.99994 8.49996C5.99994 8.86815 6.29842 9.16663 6.66661 9.16663C7.0348 9.16663 7.33327 8.86815 7.33327 8.49996Z" fill="black"/>
<path d="M19.6497 13.5511C19.5104 12.3955 18.5264 11.5 17.3333 11.5C16.6804 11.5 16.0901 11.7681 15.6666 12.2003V8.49996C15.6666 7.21129 14.6219 6.16663 13.3333 6.16663C12.0446 6.16663 10.9999 7.21129 10.9999 8.49996V19.6581C10.9999 19.8435 10.8952 20.013 10.7294 20.0959C10.5258 20.1977 10.2788 20.1457 10.1336 19.9704L7.13014 16.3448C6.30804 15.3524 4.83713 15.2143 3.84474 16.0364C2.85236 16.8585 2.71432 18.3294 3.53641 19.3218L10.8296 28.1257C12.5651 30.2208 15.1441 31.4333 17.8646 31.4333C22.9099 31.4333 26.9999 27.3433 27 22.298L27 17.1666C27 15.878 25.9554 14.8333 24.6667 14.8333C24.3084 14.8333 23.9683 14.9143 23.6642 15.0591C23.608 13.8204 22.5859 12.8333 21.3333 12.8333C20.6716 12.8333 20.0743 13.1087 19.6497 13.5511Z" fill="black"/>
</svg>
