<svg xmlns="http://www.w3.org/2000/svg" width="24" height="24" viewBox="0 0 24 24" fill="none"><metadata><rdf:RDF xmlns:rdf="http://www.w3.org/1999/02/22-rdf-syntax-ns#" xmlns:dc="http://purl.org/dc/elements/1.1/"><rdf:Description><dc:creator>RealFaviconGenerator</dc:creator><dc:source>https://realfavicongenerator.net</dc:source></rdf:Description></rdf:RDF></metadata><path d="M10.666 2.00001C10.9763 1.99948 11.5907 2.03687 11.6104 2.03809C11.6216 2.03879 11.6333 2.04006 11.6445 2.04102C11.971 2.06923 12.2966 2.11076 12.6192 2.167C12.9446 2.22373 13.2673 2.29587 13.5869 2.38086C13.8959 2.46309 14.5025 2.6662 14.5078 2.66797C14.5184 2.67159 14.5295 2.67493 14.5401 2.67872C14.8543 2.79239 15.1636 2.92019 15.4668 3.06055C15.4772 3.06545 15.4877 3.07013 15.4981 3.0752C15.4981 3.0752 16.0837 3.36402 16.3662 3.52637C16.3856 3.53756 16.405 3.54955 16.4238 3.56153L17.1709 4.03516C17.19 4.04732 17.209 4.0602 17.2276 4.07325C17.5071 4.26844 17.7783 4.47554 18.0401 4.69434C18.0485 4.70148 18.0571 4.70852 18.0654 4.71583C18.0654 4.71583 18.5663 5.15483 18.8018 5.38965C18.8097 5.3975 18.8175 5.40605 18.8252 5.41407C18.8321 5.42127 19.0046 5.60238 19.1865 5.79981V4.05372H22.2539V15.9434C22.2539 16.4059 22.4377 16.8497 22.7647 17.1768C23.0917 17.5038 23.5356 17.6875 23.9981 17.6875V20.7539C22.7223 20.7538 21.4979 20.2478 20.5957 19.3457C19.6935 18.4434 19.1866 17.2193 19.1865 15.9434V12.6816C19.1364 11.6717 18.8015 11.0607 18.7217 10.8418C18.6309 10.5924 18.5295 10.3469 18.417 10.1065L18.416 10.1045C18.3049 9.86624 18.1834 9.6328 18.0518 9.40528C17.9213 9.17955 17.78 8.95789 17.6299 8.74415C17.4816 8.53265 17.3236 8.32668 17.1572 8.12891C17.0056 7.94831 16.6975 7.6262 16.6201 7.5459C16.4488 7.37744 16.1323 7.09976 16.0488 7.02735C15.8707 6.87946 15.6862 6.73864 15.4971 6.60547C15.4772 6.59287 14.8158 6.17263 14.7959 6.16114C14.5888 6.04585 14.2449 5.87662 14.1494 5.83008C13.9403 5.73417 13.7271 5.64682 13.5029 5.56543C13.401 5.53112 13.0115 5.40122 12.7988 5.34473C12.5656 5.28268 12.3295 5.22991 12.0918 5.18848C11.8618 5.14843 11.6297 5.1188 11.3887 5.09766C11.2833 5.09097 10.8849 5.066 10.6709 5.06641C10.4367 5.06659 10.2011 5.07687 9.96778 5.09766C9.75484 5.11652 9.35654 5.1774 9.24415 5.19532C9.02839 5.23584 8.66995 5.32355 8.57325 5.34766C8.36322 5.40495 8.15477 5.47036 7.95021 5.54493C7.7385 5.6219 7.52926 5.70853 7.32521 5.80372C7.12319 5.89776 6.92448 6.00179 6.73146 6.11329L6.7295 6.11426C6.5386 6.22412 6.35151 6.34252 6.17091 6.46876C6.00477 6.58466 5.70532 6.82353 5.62696 6.88672C5.46907 7.01999 5.31711 7.15975 5.17091 7.30567C5.01931 7.457 4.8741 7.61554 4.73634 7.7793C4.59996 7.94123 4.47058 8.10912 4.34864 8.28223C4.22842 8.45349 4.11493 8.6304 4.00978 8.81153C3.90592 8.99035 3.80944 9.17406 3.72169 9.36133C3.63471 9.54659 3.55658 9.73668 3.48634 9.92872C3.4168 10.1187 3.35554 10.3124 3.30275 10.5078C3.2507 10.7007 3.20695 10.896 3.17189 11.0928C3.1371 11.2872 3.11024 11.4851 3.09278 11.6807C3.07542 11.8749 3.06651 12.0705 3.06642 12.2656V12.2666C3.06607 12.4594 3.07436 12.6527 3.09083 12.8447C3.09083 12.8447 3.12835 13.1881 3.16017 13.3828C3.18258 13.4842 3.29479 13.9908 3.29884 14.0059C3.35216 14.1932 3.45509 14.4971 3.45509 14.4971C3.518 14.6699 3.58832 14.8402 3.66603 15.0068C3.74271 15.1713 3.82764 15.334 3.91798 15.4902C4.00751 15.6452 4.1051 15.7967 4.20802 15.9434C4.30938 16.0881 4.4182 16.2297 4.53126 16.3643C4.64386 16.4982 4.76356 16.6282 4.88673 16.751C5.00869 16.8727 5.13621 16.9893 5.26857 17.0996L5.2715 17.1025C5.40069 17.2109 5.53575 17.3141 5.67482 17.4111C5.81284 17.5071 5.9549 17.597 6.1006 17.6807L6.10255 17.6816C6.23884 17.7602 6.37824 17.8334 6.52052 17.9004C6.57446 17.9238 6.8514 18.0442 6.99903 18.0977C7.15076 18.1525 7.30614 18.201 7.46095 18.2422C7.61475 18.2832 7.77077 18.3181 7.92775 18.3457C7.93773 18.3472 8.24191 18.3933 8.39552 18.4063C8.54863 18.4194 8.70406 18.426 8.85841 18.4258C9.01105 18.4256 9.16536 18.4186 9.31642 18.4053C9.46617 18.3921 9.61685 18.3719 9.76466 18.3457C9.90926 18.3201 10.1983 18.249 10.1983 18.249C10.3387 18.2113 10.4785 18.1676 10.6143 18.1182C10.749 18.0691 10.8821 18.0135 11.0117 17.9531L11.0137 17.9522C11.1415 17.8927 11.2676 17.8273 11.3897 17.7568C11.5097 17.6876 11.6276 17.6128 11.7412 17.5332C11.8532 17.455 11.9624 17.3718 12.0674 17.2842C12.0713 17.2807 12.2702 17.1051 12.3643 17.0117C12.3643 17.0117 12.5474 16.8209 12.6318 16.7207C12.7156 16.6213 12.7956 16.5174 12.8701 16.4111C12.9433 16.307 13.012 16.1999 13.0762 16.0898C13.0762 16.0898 13.1972 15.8691 13.25 15.7568C13.25 15.7568 13.3498 15.5324 13.3916 15.418L13.3926 15.416C13.434 15.3032 13.4696 15.1883 13.501 15.0723C13.5317 14.9586 13.5584 14.8418 13.5791 14.7256C13.5994 14.612 13.6148 14.4961 13.625 14.3818C13.6351 14.2686 13.6396 14.1548 13.6397 14.041C13.6397 13.9299 13.6356 13.8187 13.626 13.708V13.7061C13.6166 13.598 13.6018 13.4897 13.583 13.3828C13.5647 13.2783 13.5421 13.173 13.5147 13.0703C13.4878 12.9695 13.4553 12.8679 13.4199 12.7705C13.3926 12.6953 13.329 12.5482 13.3027 12.4883C13.2974 12.4762 13.2934 12.4666 13.291 12.4619C13.2542 12.387 13.1913 12.2725 13.1641 12.2227C13.1575 12.211 13.1528 12.2023 13.1504 12.1982C13.1059 12.1228 13.0582 12.0491 13.0078 11.9775L13.0059 11.9746C12.9516 11.897 12.8929 11.8212 12.832 11.749C12.7723 11.6781 12.7093 11.6092 12.6436 11.544L12.6397 11.54C12.5777 11.478 12.5103 11.4162 12.4424 11.3594C12.3742 11.3023 12.3025 11.2476 12.2305 11.1973C12.1599 11.148 12.0864 11.1016 12.0117 11.0586C11.9392 11.0169 11.865 10.9784 11.7891 10.9434C11.7734 10.9362 11.7575 10.9287 11.7422 10.9209C11.2928 10.6951 10.686 10.6104 10.2383 10.6104V7.54297C11.094 7.54297 12.2434 7.74392 13.0908 8.16602C13.2447 8.23756 13.3951 8.31583 13.542 8.4004C13.6942 8.48801 13.8425 8.58303 13.9863 8.6836C14.1307 8.78441 14.2746 8.89354 14.4111 9.00782C14.5478 9.12231 14.6828 9.24525 14.8076 9.37012C14.9367 9.49845 15.0595 9.63338 15.1768 9.77247C15.2965 9.91452 15.4107 10.0612 15.5176 10.2139C15.6251 10.3669 15.7257 10.5256 15.8193 10.6875C15.8266 10.7001 15.8339 10.7128 15.8408 10.7256C15.8692 10.7775 16.0136 11.0452 16.0811 11.1895C16.0876 11.2033 16.0936 11.2175 16.0996 11.2315C16.124 11.2869 16.2472 11.5699 16.3027 11.7227C16.3685 11.9037 16.4277 12.0921 16.4776 12.2793C16.5282 12.4687 16.5707 12.6607 16.6045 12.8535C16.6388 13.0488 16.6646 13.2459 16.6817 13.4434C16.699 13.6427 16.7072 13.8427 16.707 14.043C16.707 14.2469 16.6979 14.4512 16.6797 14.6543C16.6615 14.8576 16.6339 15.0633 16.5977 15.2656C16.5613 15.4696 16.5159 15.6723 16.4619 15.8721C16.4073 16.0741 16.3444 16.2732 16.2725 16.4697C16.1996 16.669 16.0264 17.0606 16.0264 17.0606C15.9363 17.2524 15.7306 17.6256 15.7266 17.6328C15.6186 17.8181 15.5031 17.9985 15.3799 18.1738C15.2538 18.3535 15.1191 18.5283 14.9776 18.6963C14.8353 18.8652 14.5264 19.1875 14.5264 19.1875C14.3725 19.3405 14.0474 19.6253 14.0332 19.6377C13.8611 19.7814 13.6828 19.9185 13.499 20.0469C13.3119 20.1778 13.1185 20.3002 12.9209 20.4141C12.7209 20.5294 12.516 20.6362 12.3067 20.7334C12.0968 20.8312 11.8813 20.9206 11.6631 21C11.4442 21.0797 11.2186 21.1511 10.9922 21.2119C10.9753 21.2161 10.5265 21.325 10.2988 21.3652C10.0635 21.407 9.82538 21.4389 9.58693 21.46C9.34802 21.4811 9.10467 21.4919 8.86329 21.4922C8.6202 21.4926 8.37602 21.4825 8.13478 21.4619C7.8875 21.4409 7.3965 21.3662 7.3965 21.3662C7.15255 21.3233 6.91091 21.2697 6.67189 21.2061C6.43169 21.1421 6.19044 21.0667 5.95509 20.9815C5.75219 20.9079 5.29689 20.7119 5.29689 20.7119L5.89747 20.835L5.25196 20.6924C5.02044 20.5849 4.79349 20.4672 4.57228 20.3398C4.35001 20.2122 4.13332 20.0752 3.92286 19.9287L3.91993 19.9258C3.70695 19.7772 3.4997 19.6191 3.30177 19.4531C3.10062 19.2852 2.90725 19.1078 2.72169 18.9229C2.53536 18.7371 2.35407 18.5406 2.18361 18.3379C2.01291 18.1349 1.84937 17.9218 1.6963 17.7031C1.5421 17.4833 1.397 17.2569 1.26271 17.0244C1.12794 16.7911 1.00114 16.5483 0.88673 16.3027C0.771344 16.0556 0.666719 15.8034 0.573254 15.5469C0.573254 15.5469 0.39654 15.0246 0.325207 14.7588C0.319301 14.7368 0.313541 14.7146 0.308605 14.6924L0.144543 13.9414C0.0969732 13.67 0.0369515 13.1238 0.0351677 13.1074C0.0111169 12.827 -0.000417347 12.5452 1.14441e-05 12.2637C9.95842e-05 11.9784 0.0128012 11.6923 0.0380974 11.4082C0.063482 11.1238 0.101874 10.8363 0.152355 10.5537C0.203115 10.2692 0.265586 9.98679 0.340832 9.70801C0.416868 9.42653 0.505227 9.14874 0.60548 8.87501C0.706621 8.59836 0.820053 8.32644 0.945324 8.05958C1.0711 7.79128 1.20866 7.5278 1.35743 7.27149C1.50683 7.01421 1.66709 6.7628 1.8379 6.51954L1.84083 6.51661C2.01346 6.27148 2.19651 6.03308 2.38966 5.80372C2.58435 5.57232 2.78969 5.34963 3.00392 5.13575C3.22044 4.91958 3.44601 4.71313 3.68068 4.51661C3.68923 4.50938 3.69832 4.50217 3.70704 4.49512C3.71843 4.48605 4.17331 4.12319 4.41407 3.95508C4.66792 3.77757 4.92987 3.61057 5.19825 3.45606C5.46863 3.2999 5.74642 3.15608 6.02931 3.02442C6.31435 2.89138 6.60568 2.77067 6.90138 2.66309C7.19913 2.55467 7.5016 2.45906 7.80763 2.37696C7.818 2.37419 7.8285 2.37166 7.83888 2.36915C7.83888 2.36915 8.43798 2.2226 8.74122 2.16895C8.75209 2.16695 8.76347 2.16581 8.77443 2.16407C8.77443 2.16407 9.38759 2.07034 9.6963 2.04297C10.0186 2.01434 10.3424 2.00028 10.666 2.00001Z" fill="#E3E3C3"></path></svg>