<svg width="96" height="96" viewBox="0 0 96 96" fill="none" xmlns="http://www.w3.org/2000/svg">
<path d="M0 61.293V36H10.5781L0 61.293Z" fill="black"/>
<path d="M21.0273 61.293H16.6133L14.6016 56.2109H9.67578L14.2969 45.3242L21.0273 61.293Z" fill="black"/>
<path d="M28.582 61.293L18.0195 36H28.582V61.293Z" fill="black"/>
<path fill-rule="evenodd" clip-rule="evenodd" d="M60.1836 40.5312C60.2869 40.5312 60.2852 40.5736 60.2852 40.6562V53.6094C60.2852 54.0364 60.3337 54.595 60.375 54.9805C60.3749 55.0829 60.3555 55.1307 60.2461 55.1719C58.8547 55.7712 57.4835 56.0077 56.1953 56.0078C53.0882 56.0078 50.7116 54.2081 50.7109 50.6055C50.7109 47.4981 53.0244 45.0081 56.793 45.0078C57.0961 45.0078 57.3536 45.029 57.7188 45.0703V40.6836C57.7188 40.5734 57.7582 40.5313 57.8477 40.5312H60.1836ZM56.7109 47.1719C54.8025 47.1719 53.3635 48.399 53.3633 50.4727C53.3633 52.8149 54.7604 53.7809 56.4688 53.7812C56.9028 53.7812 57.3329 53.7334 57.7188 53.6094V47.3242C57.4362 47.214 57.0968 47.1719 56.7109 47.1719Z" fill="black"/>
<path fill-rule="evenodd" clip-rule="evenodd" d="M67.8281 45.0078C71.1286 45.0078 72.9258 47.5179 72.9258 50.4531C72.9255 53.7803 70.8052 56.0072 67.7812 56.0078C64.2052 56.0078 62.6211 53.2412 62.6211 50.5195C62.6219 47.4749 64.6111 45.0079 67.8281 45.0078ZM67.6992 47.1719C66.2593 47.1719 65.2306 48.4403 65.2305 50.4727C65.2305 52.4501 66.1952 53.8203 67.8281 53.8203C69.1511 53.8203 70.2891 52.7244 70.2891 50.5195C70.2885 48.7363 69.5163 47.173 67.6992 47.1719Z" fill="black"/>
<path fill-rule="evenodd" clip-rule="evenodd" d="M77.5898 40.5312C77.7401 40.5314 77.7812 40.5521 77.7812 40.7031L77.8086 45.3125C78.3872 45.1196 79.0484 45.0079 79.7578 45.0078C82.8446 45.0078 84.8163 47.1932 84.8164 50.0664C84.8164 54.0344 81.7305 56.007 78.5547 56.0078C77.4461 56.0078 76.3698 55.8556 75.3438 55.5391C75.2542 55.5184 75.1914 55.4058 75.1914 55.3438V40.6836C75.1914 40.5733 75.2542 40.5312 75.3438 40.5312H77.5898ZM79.3047 47.2148C78.5536 47.2148 78.1462 47.3261 77.8086 47.457V53.7109C78.1046 53.8004 78.4282 53.8203 78.793 53.8203C80.55 53.8203 82.1758 52.7053 82.1758 50.3281C82.1757 48.2891 80.9992 47.2152 79.3047 47.2148Z" fill="black"/>
<path fill-rule="evenodd" clip-rule="evenodd" d="M91.6055 45.0078C94.7735 45.0086 95.9996 47.4961 96 49.5352C96 50.1346 95.9722 50.6251 95.9102 50.8594C95.8894 50.9486 95.8483 50.9911 95.7383 51.0117C95.442 51.0806 94.5815 51.1015 93.5352 51.1016H89.1797C89.2423 52.5961 90.2345 53.8008 92.418 53.8008C93.3823 53.8007 94.2653 53.6296 95.0781 53.2852C95.1399 53.2444 95.1992 53.2642 95.1992 53.3672V55.1523C95.1991 55.2755 95.1601 55.3454 95.0781 55.3867C94.2652 55.7725 93.3199 56.0078 91.8594 56.0078C87.9596 56.0078 86.5665 53.2639 86.5664 50.625C86.5664 47.6484 88.367 45.0078 91.6055 45.0078ZM91.4922 47.0703C90.0119 47.0711 89.3519 48.207 89.1797 49.2539H92.375C93.1881 49.2539 93.4651 49.255 93.5547 49.2344V49.0625C93.5547 48.4424 93.1252 47.0703 91.4922 47.0703Z" fill="black"/>
<path fill-rule="evenodd" clip-rule="evenodd" d="M44.7188 41.707C44.829 41.707 44.8504 41.7296 44.8711 41.8398L49.8242 55.5977C49.8448 55.7283 49.8254 55.7927 49.6953 55.793H47.2969C47.1866 55.793 47.1234 55.7497 47.082 55.6602L45.8359 52.0859H40.7148L39.5391 55.6211C39.4909 55.7516 39.4276 55.793 39.2969 55.793H37.1523C37.0296 55.7924 36.9833 55.729 37.0039 55.5781L41.418 43.0195C41.5075 42.8059 41.5719 42.5829 41.6133 41.8594C41.6136 41.7706 41.6603 41.7074 41.7422 41.707H44.7188ZM43.2461 43.8516C42.9016 45.2847 42.0461 47.7932 41.3984 49.75H45.1523C44.6976 48.3306 43.6928 45.3536 43.2656 43.8516H43.2461Z" fill="black"/>
</svg>
