<svg width="24" height="24" viewBox="0 0 24 24" fill="none" xmlns="http://www.w3.org/2000/svg">
<path d="M23.6732 4.00134L22.8545 16.8576L15.0267 0L23.6732 4.00134ZM18.2514 20.6251L12.3366 24L6.4218 20.6251L7.6248 17.7097H17.0484L18.2514 20.6251ZM12.3366 6.39886L15.436 13.9338H9.2372L12.3366 6.39886ZM1.81034 16.8576L1 4.00134L9.6465 0L1.81034 16.8576Z" fill="url(#paint0_linear_2090_1007)"/>
<path d="M23.6732 4.00134L22.8545 16.8576L15.0267 0L23.6732 4.00134ZM18.2514 20.6251L12.3366 24L6.4218 20.6251L7.6248 17.7097H17.0484L18.2514 20.6251ZM12.3366 6.39886L15.436 13.9338H9.2372L12.3366 6.39886ZM1.81034 16.8576L1 4.00134L9.6465 0L1.81034 16.8576Z" fill="black"/>
<defs>
<linearGradient id="paint0_linear_2090_1007" x1="1" y1="19.6024" x2="101.258" y2="19.6024" gradientUnits="userSpaceOnUse">
<stop stop-color="#F0070C"/>
<stop offset="0.526" stop-color="#CC26D5"/>
<stop offset="1" stop-color="#7702FF"/>
</linearGradient>
</defs>
</svg>
