<svg width="96" height="96" viewBox="0 0 96 96" fill="none" xmlns="http://www.w3.org/2000/svg">
<path d="M16.5188 59.5882C21.1063 58.7778 24.8953 58.1072 24.9388 58.0979L25.018 58.0812L20.6869 52.9295C18.3049 50.0961 16.3559 47.7669 16.3559 47.7535C16.3559 47.728 20.8281 35.4127 20.8532 35.3688C20.8616 35.3542 23.905 40.6086 28.2307 48.1059C32.2805 55.125 35.6193 60.9123 35.6503 60.9665L35.7068 61.0651L8.17795 61.0616L16.5188 59.5882ZM69.3037 58.3423C67.2085 58.2079 65.9899 57.0149 65.667 54.7817C65.5811 54.1877 65.5808 54.1723 65.572 50.3157L65.5635 46.5831H67.4181L67.4254 50.1935C67.432 53.4473 67.4361 53.8288 67.4672 54.0577C67.5935 54.9867 67.8448 55.6114 68.2727 56.0598C68.6152 56.4187 69.0161 56.6288 69.5711 56.7403C69.8329 56.7929 70.5778 56.793 70.8165 56.7406C71.3791 56.6167 71.8301 56.3719 72.2279 55.9742C72.6813 55.521 73.0167 54.8779 73.179 54.1507L73.2337 53.9057L73.2459 46.6239H75.1393V58.071H73.2654V57.1629C73.2654 56.5459 73.2587 56.2571 73.2443 56.2619C73.2327 56.2657 73.1846 56.3393 73.1374 56.4254C72.8145 57.0143 72.2766 57.5528 71.6871 57.8772C70.9805 58.2661 70.2719 58.4043 69.3037 58.3423ZM90.5703 58.333C89.8307 58.2774 89.052 58.0231 88.4154 57.6294C87.0739 56.7995 86.28 55.4316 86.0476 53.5492C85.9672 52.8978 85.9575 52.0228 86.0246 51.4692C86.1746 50.2324 86.6606 49.0183 87.3527 48.1515C87.5301 47.9293 87.9326 47.5268 88.1548 47.3494C88.7548 46.8704 89.4566 46.5354 90.2018 46.3723C90.636 46.2774 91.4006 46.2328 91.8618 46.2755C93.0206 46.3829 94.0826 46.9285 94.8045 47.7872C95.5378 48.6597 95.9409 49.8788 95.9924 51.3799C96.0005 51.6152 96.0024 52.0276 95.9968 52.2965L95.9865 52.7854L87.8696 52.7956V52.9767C87.8696 53.5281 88.0037 54.156 88.2354 54.6903C88.4352 55.151 88.7792 55.6541 89.0608 55.8976C89.6383 56.3968 90.345 56.6956 91.1184 56.7675C91.4051 56.7941 92.1359 56.7661 92.4627 56.7159C93.395 56.5726 94.2814 56.2069 94.9972 55.6703C95.0814 55.6071 95.162 55.5481 95.1763 55.5392C95.1972 55.5261 95.2021 55.691 95.2016 56.3845L95.201 57.246L95.0092 57.3647C94.1994 57.8655 93.2718 58.187 92.2896 58.3074C91.9965 58.3433 90.9209 58.3594 90.5703 58.333ZM94.1024 51.0664C94.1024 50.1429 93.7132 49.1169 93.1624 48.5887C92.7694 48.2117 92.2943 47.9813 91.7294 47.8938C91.4622 47.8524 90.899 47.8683 90.6173 47.9253C90.0217 48.0456 89.5291 48.3074 89.0994 48.732C88.6472 49.1789 88.3081 49.7216 88.0949 50.3399C88.0183 50.5623 87.9286 50.9273 87.9007 51.1304L87.8875 51.2272H94.1024V51.0664ZM39.0507 58.0455C39.0554 58.0315 40.4335 54.411 42.1132 50L45.1671 41.98L47.1296 41.9799L47.211 42.1887C47.4598 42.8267 53.3247 58.0615 53.3247 58.0615C53.3247 58.0615 52.8549 58.0709 52.2808 58.0708L51.2369 58.0706L49.5463 53.5696L42.7392 53.5695L42.7097 53.6459C42.6934 53.6879 42.3323 54.7005 41.9071 55.8962L41.1341 58.0702L40.0881 58.0706C39.2601 58.0708 39.0438 58.0657 39.0507 58.0455ZM48.9251 51.8521C48.9251 51.8521 48.3562 50.3064 47.661 48.4251C46.3603 44.9056 46.2875 44.6938 46.1847 44.1287C46.1365 43.8638 46.1122 43.8564 46.0836 44.0982C46.0631 44.271 45.9745 44.6577 45.9061 44.8722C45.8722 44.9786 45.2865 46.5863 44.6045 48.4447C43.9225 50.3032 43.3645 51.8316 43.3645 51.8412C43.3645 51.8507 44.6156 51.8586 46.1448 51.8586C47.6739 51.8586 48.9251 51.8521 48.9251 51.8521ZM53.9561 57.4848L60.738 48.1617L54.5977 48.1413L54.587 46.5831H63.4682V47.1094L60.0768 51.7964C58.2116 54.3742 56.6855 56.493 56.6855 56.493C56.6855 56.493 58.1932 56.5026 60.0361 56.5026H63.3867V58.071H53.9561V57.4848ZM78.8396 58.0574C78.8321 58.0499 78.826 55.4652 78.826 52.3135V46.5831H80.6795V47.7645C80.6795 48.4143 80.6874 48.9459 80.6971 48.9459C80.7067 48.9459 80.7519 48.8395 80.7973 48.7095C81.0057 48.1139 81.3671 47.5573 81.8326 47.1149C82.252 46.7164 82.7313 46.4781 83.2969 46.3869C83.4558 46.3613 83.5902 46.3564 83.908 46.3646C84.307 46.375 84.5156 46.4042 84.7583 46.4835L84.8347 46.5085V48.4325L84.6157 48.3229C84.229 48.1292 83.8473 48.0526 83.3885 48.0765C83.09 48.092 82.894 48.1303 82.6553 48.2199C82.1641 48.4043 81.7658 48.7296 81.4874 49.1737C81.0844 49.8166 80.797 50.643 80.7122 51.4026C80.697 51.5389 80.688 52.649 80.6844 54.8375L80.6792 58.071H79.7662C79.264 58.071 78.8471 58.0649 78.8396 58.0574ZM0 58.0171C0 58.0171 2.04077 54.4673 4.53504 50.1447L9.07007 42.2854L14.3551 37.8502C17.2619 35.4108 19.648 33.4119 19.6576 33.4083C19.6672 33.4047 19.6289 33.5009 19.5726 33.6222C19.5163 33.7434 16.9338 39.2826 13.8338 45.9314L8.19732 58.02L4.09866 58.0252C1.8444 58.028 0 58.0171 0 58.0171Z" fill="black"/>
</svg>
