<svg width="24" height="24" viewBox="0 0 24 24" fill="none" xmlns="http://www.w3.org/2000/svg">
<path d="M0.770665 1C0.291172 1 -0.0680734 1.43949 0.0109254 1.87899L3.24838 21.7009C3.32838 22.2204 3.76762 22.5797 4.28711 22.5797H19.9519C20.3124 22.5797 20.6319 22.2997 20.7119 21.9402L23.9891 1.91899C24.0681 1.43949 23.7088 1.04 23.2293 1.04L0.770665 1ZM14.5175 15.3065H9.52254L8.20306 8.23339H15.7567L14.5175 15.3065Z" fill="#2684FF"/>
<path d="M22.9098 8.23342H15.7169L14.5175 15.3065H9.52254L3.64759 22.2995C3.64759 22.2995 3.92759 22.5397 4.32733 22.5397H19.9921C20.3523 22.5397 20.6718 22.2597 20.7518 21.9002L22.9098 8.23342Z" fill="url(#paint0_linear_2090_599)"/>
<defs>
<linearGradient id="paint0_linear_2090_599" x1="24.5928" y1="10.2259" x2="12.672" y2="19.5317" gradientUnits="userSpaceOnUse">
<stop offset="0.176" stop-color="#0052CC"/>
<stop offset="1" stop-color="#2684FF"/>
</linearGradient>
</defs>
</svg>
