<svg width="24" height="24" viewBox="0 0 24 24" fill="none" xmlns="http://www.w3.org/2000/svg">
<path d="M20.2773 7.17188C20.3283 7.21985 20.3758 7.2743 20.4268 7.32227C20.4777 7.37023 20.5262 7.4237 20.5771 7.47168L21.0273 7.92188C21.0783 7.96985 21.1288 8.0213 21.1768 8.07227C22.7878 9.65027 23.7002 11.6574 23.7002 13.7754C23.6999 18.7312 18.654 22.7753 12.4502 22.7754C8.89234 22.7754 5.71537 21.44 3.65137 19.3672L2.61133 18.3271C2.85897 18.565 3.12203 18.7916 3.39844 19.0078C3.41909 19.024 3.44013 19.0396 3.46094 19.0557C3.58395 19.1504 3.70963 19.2428 3.83789 19.333C3.86158 19.3497 3.88532 19.3663 3.90918 19.3828C4.03534 19.4701 4.16398 19.5549 4.29492 19.6377C4.32001 19.6536 4.34486 19.6698 4.37012 19.6855C4.50129 19.7671 4.63483 19.846 4.77051 19.9229C4.79686 19.9378 4.82309 19.953 4.84961 19.9678C5.49577 20.3274 6.19032 20.6348 6.9248 20.8809C6.97198 20.8967 7.01989 20.9105 7.06738 20.9258C7.20841 20.9712 7.35037 21.0157 7.49414 21.0566C7.53783 21.0691 7.58205 21.0798 7.62598 21.0918C7.76547 21.1299 7.90597 21.1664 8.04785 21.2002C8.10628 21.2141 8.16481 21.228 8.22363 21.2412C8.35484 21.2706 8.48703 21.2976 8.62012 21.3232C8.69051 21.3368 8.76113 21.3498 8.83203 21.3623C8.9441 21.3821 9.05664 21.4009 9.16992 21.418C9.26232 21.4319 9.35506 21.4449 9.44824 21.457C9.55548 21.4709 9.66326 21.4827 9.77148 21.4941C9.85751 21.5032 9.94365 21.513 10.0303 21.5205C10.1618 21.5319 10.294 21.5401 10.4268 21.5479C10.4963 21.5519 10.5659 21.5575 10.6357 21.5605C10.8391 21.5694 11.0439 21.5752 11.25 21.5752C17.454 21.5752 22.5 17.5306 22.5 12.5596C22.4999 11.4243 22.2347 10.3188 21.7373 9.29199C21.3783 8.53268 20.8988 7.82974 20.3105 7.21191C20.2768 7.17519 20.2425 7.13887 20.208 7.10254C20.231 7.12601 20.2538 7.14969 20.2773 7.17188Z" fill="black"/>
<path d="M11.3398 15.0225C11.8667 15.0313 12.3713 15.2382 12.7529 15.6016C12.69 15.6795 12.6237 15.758 12.5547 15.833C12.2321 15.5203 11.8045 15.3395 11.3555 15.3262C11.1126 15.3284 10.8729 15.3852 10.6553 15.4932C10.4379 15.6011 10.2463 15.7564 10.0977 15.9482C10.0203 15.8773 9.94728 15.8023 9.87988 15.7227C10.0559 15.5075 10.2769 15.3328 10.5273 15.2119C10.7808 15.0896 11.0584 15.0249 11.3398 15.0225Z" fill="black"/>
<path d="M7.17578 10.7119C7.29612 10.7362 7.40654 10.7958 7.49316 10.8828C7.57973 10.9698 7.63843 11.0807 7.66211 11.2012C7.68574 11.3218 7.67342 11.4472 7.62598 11.5605C7.57852 11.674 7.49804 11.771 7.39551 11.8389C7.29308 11.9066 7.1726 11.943 7.0498 11.9424C6.88577 11.9415 6.72903 11.875 6.61328 11.7588C6.49758 11.6425 6.43271 11.4853 6.43262 11.3213C6.43263 11.1984 6.46875 11.0778 6.53711 10.9756C6.60548 10.8734 6.70277 10.794 6.81641 10.7471C6.93 10.7002 7.0553 10.6877 7.17578 10.7119Z" fill="black"/>
<path d="M14.6064 10.7119C14.7268 10.7361 14.8372 10.7958 14.9238 10.8828C15.0105 10.9699 15.0701 11.0807 15.0938 11.2012C15.1174 11.3218 15.1041 11.4471 15.0566 11.5605C15.0092 11.6739 14.9296 11.771 14.8271 11.8389C14.7247 11.9067 14.6043 11.9429 14.4814 11.9424H14.4756C14.3125 11.94 14.1565 11.873 14.042 11.7568C13.9276 11.6407 13.8633 11.4843 13.8633 11.3213C13.8633 11.1984 13.8995 11.0778 13.9678 10.9756C14.0361 10.8735 14.1335 10.794 14.2471 10.7471C14.3607 10.7002 14.4859 10.6877 14.6064 10.7119Z" fill="black"/>
<path fill-rule="evenodd" clip-rule="evenodd" d="M11.4863 2.7627C11.5216 2.76599 11.5566 2.77065 11.5918 2.77539C11.6398 2.78174 11.6877 2.78901 11.7354 2.79785C11.7643 2.80334 11.7933 2.80899 11.8223 2.81543C11.8896 2.83016 11.9563 2.84747 12.0225 2.86719C12.0373 2.87155 12.0525 2.87529 12.0674 2.87988C12.0729 2.88162 12.0785 2.88299 12.084 2.88477H12.0811C12.8684 3.13067 13.7224 3.69946 14.998 4.48047C15.6071 4.85779 16.323 5.29463 17.1836 5.75C20.0424 7.28892 21.7498 9.83573 21.75 12.5596C21.75 13.2676 21.6357 13.955 21.4219 14.6113C21.3756 14.7539 21.3241 14.8947 21.2686 15.0342C20.5531 16.8249 19.0827 18.3538 17.1523 19.3906C15.6095 20.2176 13.7736 20.7324 11.791 20.8115L11.25 20.8223L11.043 20.8203C9.72844 20.8002 8.47296 20.5901 7.31836 20.2217C7.28883 20.212 7.25895 20.2033 7.22949 20.1934C6.70697 20.0228 6.20634 19.8188 5.73047 19.5869C5.33298 19.3927 4.9527 19.1792 4.59277 18.9463C4.57858 18.9371 4.56491 18.9272 4.55078 18.918C3.2684 18.0793 2.24203 17.0064 1.58105 15.7822C1.09956 14.8886 0.812179 13.9146 0.760742 12.8926C0.755149 12.7821 0.75 12.6711 0.75 12.5596C0.750011 12.3895 0.75733 12.2202 0.770508 12.0518C0.787465 11.8311 0.817011 11.6131 0.855469 11.3975C0.869104 11.322 0.884141 11.2468 0.900391 11.1719C0.930169 11.0329 0.964471 10.8953 1.00293 10.7588C1.36395 9.48841 2.10162 8.30443 3.15137 7.30273C3.26486 7.19491 3.38168 7.0894 3.50195 6.98633C3.57464 6.92373 3.64838 6.86172 3.72363 6.80078C4.20343 6.4122 4.73465 6.05727 5.31348 5.74414C6.21332 5.25522 7.01398 4.76593 7.71289 4.33398C8.08486 4.106 8.43642 3.88744 8.77539 3.68945C8.81862 3.66444 8.86184 3.64046 8.9043 3.61621C9.09684 3.50622 9.28092 3.40309 9.45898 3.31055C10.0717 2.99196 10.6063 2.78589 11.1133 2.75391C11.1591 2.75097 11.2047 2.75001 11.25 2.75C11.3289 2.75066 11.4079 2.75537 11.4863 2.7627ZM9.42578 14.3389C9.36159 14.3369 9.29782 14.3496 9.23926 14.376C9.18053 14.4025 9.12801 14.4425 9.08691 14.4922C9.05261 14.5331 9.0281 14.5812 9.01465 14.6328C9.00115 14.6847 8.99863 14.7394 9.00879 14.792C9.15054 15.3834 9.47803 15.9139 9.94238 16.3066C10.307 16.6514 10.7774 16.8634 11.2773 16.9072C11.7762 16.8627 12.2455 16.6508 12.6094 16.3066C13.0736 15.9139 13.4002 15.3833 13.542 14.792C13.5527 14.7397 13.5519 14.6856 13.5391 14.6338C13.5261 14.5819 13.501 14.5334 13.4668 14.4922C13.4253 14.4432 13.3739 14.4034 13.3154 14.377C13.2568 14.3505 13.1922 14.3375 13.1279 14.3389H9.42578ZM7.88672 10.2158C7.56611 10.1518 7.23376 10.1846 6.93164 10.3096C6.62943 10.4346 6.37025 10.6461 6.18848 10.918C6.00672 11.1898 5.91017 11.5099 5.91016 11.8369C5.91016 12.2748 6.08421 12.695 6.39355 13.0049C6.70289 13.3147 7.12278 13.4895 7.56055 13.4902C7.88747 13.4908 8.20738 13.3941 8.47949 13.2129C8.75166 13.0316 8.96428 12.7736 9.08984 12.4717C9.21535 12.1698 9.24795 11.8373 9.18457 11.5166C9.12115 11.1958 8.96442 10.9004 8.7334 10.6689C8.50234 10.4375 8.20744 10.2798 7.88672 10.2158ZM15.3301 10.2168C15.0091 10.152 14.6758 10.1839 14.373 10.3086C14.0706 10.4333 13.812 10.6452 13.6299 10.917C13.4477 11.1891 13.3506 11.5095 13.3506 11.8369C13.3498 12.2735 13.5215 12.6931 13.8291 13.0029C14.1366 13.3126 14.5547 13.4879 14.9912 13.4902C15.3186 13.4926 15.6397 13.397 15.9131 13.2168C16.1863 13.0366 16.4005 12.7792 16.5273 12.4775C16.6541 12.1759 16.6883 11.8427 16.626 11.5215C16.5635 11.2002 16.4064 10.9051 16.1758 10.6729C15.9451 10.4405 15.651 10.2815 15.3301 10.2168ZM11.2295 3.34961C11.1425 3.27165 11.0074 3.39209 11.0674 3.49707V3.50879C11.4344 4.10769 11.6676 4.77911 11.751 5.47656C11.8343 6.17403 11.7654 6.88126 11.5498 7.5498C11.5139 7.65465 11.6428 7.74461 11.7148 7.6582C12.3718 6.8182 12.9454 5.14958 11.2295 3.34961ZM10.5869 3.48535C10.5629 3.35044 10.3859 3.3859 10.3857 3.50879C10.3899 4.21704 10.2416 4.91796 9.9502 5.56348C9.65872 6.2091 9.23134 6.78467 8.69727 7.25C8.61327 7.325 8.67911 7.46876 8.78711 7.42676C9.79805 7.03377 11.1627 5.85806 10.5869 3.48535ZM11.9941 3.25977C11.8742 3.21183 11.7965 3.37429 11.8955 3.44629V3.45801C12.4702 3.86494 12.9512 4.39054 13.3057 4.99902C13.6601 5.60757 13.8798 6.28562 13.9502 6.98633C13.9473 7.01128 13.9538 7.03646 13.9688 7.05664C13.984 7.07704 14.0071 7.09144 14.0322 7.0957C14.057 7.09979 14.0826 7.09407 14.1035 7.08008C14.1246 7.06586 14.1401 7.04339 14.1455 7.01855C14.4214 5.9715 14.2648 4.18664 11.9941 3.25977ZM9.69629 3.93164C9.72295 3.81187 9.55202 3.77006 9.49805 3.87793C9.19343 4.52324 8.75598 5.09731 8.21484 5.5625C7.67378 6.02753 7.04103 6.37388 6.35742 6.57812C6.24942 6.61112 6.24635 6.7696 6.36035 6.7666C7.44037 6.83253 9.17732 6.3315 9.69629 3.93164Z" fill="black"/>
</svg>
