<svg width="96" height="96" viewBox="0 0 96 96" fill="none" xmlns="http://www.w3.org/2000/svg">
<path d="M57.5542 56.3156C52.4662 56.3156 49.6626 55.6084 49.5364 55.4514C49.3947 51.0895 49.3947 46.7242 49.5364 42.3624C49.6626 42.221 52.4507 41.7024 57.5542 41.7024C62.2952 41.7024 64.1069 43.4465 64.1069 45.5365C64.1069 46.8877 63.2877 48.1133 61.6498 48.8205V49.0562C63.6187 49.1976 64.5796 50.486 64.5796 51.9473C64.5796 54.1944 62.2957 56.3156 57.5542 56.3156ZM54.325 48.1762L57.3965 48.192C58.4045 48.0349 59.082 47.4849 59.082 46.6364C59.082 45.5679 58.2788 44.9865 56.8452 44.9865C55.6168 44.9865 54.6875 45.1906 54.341 45.4579C54.325 46.3536 54.325 47.2803 54.325 48.1762ZM56.8612 52.686C58.2943 52.686 59.1606 52.0417 59.1606 50.9418C59.1606 50.0461 58.452 49.5118 57.3965 49.4805L54.325 49.4647C54.325 50.376 54.325 51.2873 54.341 52.1832C54.6715 52.4659 55.6168 52.686 56.8612 52.686ZM79.3842 44.4365C79.5099 48.2546 79.5099 51.8845 79.3842 55.6242C77.935 55.8599 76.3912 55.8599 74.9421 55.6242L74.501 52.9688H74.2175C73.6502 55.2786 72.4219 56.0014 70.5156 56.0014C66.6564 56.0014 65.9478 52.8588 65.9478 48.9933C65.9478 48.0191 65.9789 46.6835 65.9789 44.4365C67.6818 44.185 69.4116 44.185 71.1144 44.4365V50.0303C71.1144 51.6332 71.9332 52.2301 72.9101 52.2301C73.6031 52.2301 74.3277 51.8845 74.6902 51.3031V44.4365C76.2445 44.185 77.8294 44.185 79.3842 44.4365ZM81.3325 55.6242C81.2063 51.806 81.2063 48.1762 81.3325 44.4365C82.7816 44.2007 84.325 44.2007 85.7746 44.4365L86.2152 47.0921H86.4991C87.066 44.7823 88.2948 44.0594 90.2006 44.0594C94.0603 44.0594 94.7688 47.202 94.7688 51.0674C94.7688 52.0417 94.7373 53.3773 94.7373 55.6242C93.0349 55.8756 91.3046 55.8756 89.6022 55.6242V50.0303C89.6022 48.4277 88.783 47.8305 87.8066 47.8305C87.1135 47.8305 86.3885 48.1762 86.0264 48.7576V55.6242C84.4717 55.8756 82.8868 55.8756 81.3325 55.6242Z" fill="black"/>
<path d="M34.7305 39.2009C34.8106 39.2764 34.8886 39.3598 34.9688 39.4353L36.1484 40.615C38.6837 43.0985 40.1211 46.2583 40.1211 49.5916C40.121 57.3912 32.1777 63.7552 22.4141 63.7556C16.8147 63.7556 11.8148 61.6545 8.56641 58.3923L8.32812 58.158L8.09375 57.9197L7.85547 57.6853L7.62109 57.447L6.96875 56.7947C7.53827 57.3377 8.16087 57.841 8.82422 58.3103C8.88665 58.3545 8.94851 58.3996 9.01172 58.4431C9.18983 58.5656 9.37055 58.6856 9.55469 58.8025C9.59764 58.8298 9.64032 58.8576 9.68359 58.8845C9.8859 59.0105 10.0916 59.1327 10.3008 59.2517C10.357 59.2837 10.4121 59.3179 10.4688 59.3494C10.6483 59.449 10.8313 59.544 11.0156 59.6384C11.1051 59.6843 11.1946 59.7305 11.2852 59.7751C12.0583 60.1558 12.8696 60.4918 13.7148 60.7751C13.8247 60.812 13.9359 60.8455 14.0469 60.8806C14.2086 60.9318 14.3712 60.9817 14.5352 61.0291C14.6955 61.0755 14.8571 61.1191 15.0195 61.1619C15.1387 61.1932 15.2586 61.2224 15.3789 61.2517C15.5459 61.2925 15.7137 61.332 15.8828 61.3689C16.0433 61.4039 16.2049 61.4351 16.3672 61.4666C16.4686 61.4862 16.5698 61.5069 16.6719 61.5251C16.9046 61.5667 17.1389 61.6043 17.375 61.6384C17.4491 61.6492 17.5233 61.6597 17.5977 61.6697C17.8409 61.7023 18.0856 61.7311 18.332 61.7556C18.4126 61.7636 18.4933 61.7719 18.5742 61.7791C18.7763 61.7969 18.9795 61.8097 19.1836 61.822C19.3161 61.83 19.4487 61.8398 19.582 61.8455C19.8745 61.8578 20.1688 61.8642 20.4648 61.865C20.4842 61.865 20.5041 61.8689 20.5234 61.8689C24.1843 61.8687 27.5923 60.9743 30.418 59.4431C30.8893 59.1876 31.3436 58.9125 31.7812 58.6228C32.6556 58.0441 33.4617 57.4018 34.1836 56.7009C35.086 55.8249 35.8582 54.8591 36.4805 53.8259C36.9836 52.9903 37.3874 52.1094 37.6797 51.1931C37.8908 50.5319 38.0426 49.8522 38.1328 49.158C38.1958 48.6725 38.2304 48.18 38.2305 47.6814C38.2271 47.4645 38.2177 47.2444 38.2031 47.0291C38.1265 45.6841 37.8154 44.3735 37.2891 43.1267C37.2328 42.9897 37.1705 42.8554 37.1094 42.7205C37.0471 42.5865 36.9813 42.4542 36.9141 42.322C36.3014 41.0882 35.4968 39.9462 34.4961 38.9626C34.5762 39.0381 34.6503 39.1255 34.7305 39.2009Z" fill="black"/>
<path d="M20.6641 51.5564C21.4925 51.5706 22.2904 51.8954 22.8906 52.4666C22.7917 52.589 22.6864 52.7121 22.5781 52.8298C22.0707 52.3384 21.3936 52.0541 20.6875 52.033C20.3063 52.037 19.9274 52.1252 19.5859 52.2947C19.2466 52.4634 18.9478 52.7068 18.7148 53.0056C18.5933 52.894 18.4731 52.7793 18.3672 52.6541C18.6438 52.3166 18.9937 52.0431 19.3867 51.8533C19.7847 51.6614 20.2224 51.5607 20.6641 51.5564Z" fill="black"/>
<path d="M14.1133 44.7712C14.3017 44.8096 14.4775 44.9046 14.6133 45.0408C14.7483 45.1772 14.8417 45.3524 14.8789 45.5408C14.9158 45.7301 14.8947 45.9292 14.8203 46.1072C14.7459 46.2845 14.6211 46.4381 14.4609 46.5447C14.3 46.6511 14.107 46.7055 13.9141 46.7048C13.6568 46.7032 13.4084 46.6017 13.2266 46.4197C13.045 46.2368 12.9416 45.986 12.9414 45.7283C12.9418 45.5358 12.9985 45.3454 13.1055 45.1853C13.213 45.0249 13.3684 44.8997 13.5469 44.8259C13.7252 44.7526 13.9242 44.7335 14.1133 44.7712Z" fill="black"/>
<path d="M25.8086 44.7712C25.9969 44.8096 26.1729 44.9047 26.3086 45.0408C26.4436 45.1772 26.537 45.3525 26.5742 45.5408C26.6111 45.7301 26.59 45.9292 26.5156 46.1072C26.4412 46.2845 26.3164 46.4381 26.1562 46.5447C25.9954 46.6511 25.8023 46.7055 25.6094 46.7048H25.6016C25.3455 46.7009 25.098 46.5979 24.918 46.4158C24.7386 46.2332 24.6369 45.9842 24.6367 45.7283C24.6372 45.5358 24.6938 45.3454 24.8008 45.1853C24.9083 45.0249 25.0637 44.8997 25.2422 44.8259C25.4205 44.7527 25.6196 44.7335 25.8086 44.7712Z" fill="black"/>
<path fill-rule="evenodd" clip-rule="evenodd" d="M21.0977 32.2869C21.155 32.2949 21.2126 32.3039 21.2695 32.3142C21.4467 32.3471 21.6251 32.3881 21.8047 32.4431C21.8148 32.4462 21.8259 32.4477 21.8359 32.4509H21.8281C23.2359 32.8894 24.7762 33.9872 27.2734 35.4822C28.0346 35.9425 28.8895 36.4474 29.8633 36.9626C33.5111 38.9267 35.9666 41.9342 36.7656 45.2869C36.9486 46.0622 37.0506 46.8604 37.0508 47.6775C37.0508 48.1675 37.0124 48.6508 36.9453 49.1267C36.8894 49.5226 36.8151 49.9141 36.7148 50.2986C36.6047 50.7221 36.4658 51.1372 36.3047 51.5447C35.2122 54.3026 32.9797 56.6642 30.0469 58.2986C27.3543 59.7958 24.0709 60.6813 20.5234 60.6814C20.3803 60.6836 20.2367 60.6786 20.0938 60.6775C18.2696 60.6404 16.519 60.3721 14.8867 59.9041C14.6738 59.8411 14.4606 59.7791 14.25 59.7087C11.0724 58.6814 8.3967 56.8933 6.57422 54.6384C6.46361 54.5016 6.35421 54.3646 6.25 54.2244C5.95769 53.8309 5.69257 53.424 5.45312 53.0056C5.34126 52.8103 5.2365 52.6121 5.13672 52.4119C4.4875 51.1072 4.09383 49.7031 4.01562 48.2322C4.00587 48.0495 4.00004 47.8659 4 47.6814C4 47.1586 4.03881 46.639 4.11719 46.1267C4.12195 46.0952 4.13167 46.0644 4.13672 46.033C4.46968 43.9835 5.41156 42.0383 6.87109 40.3533C6.90555 40.3137 6.94156 40.2754 6.97656 40.2361C7.33276 39.8345 7.71932 39.4491 8.13281 39.0798C8.26007 38.9668 8.39127 38.8573 8.52344 38.7478C8.56744 38.7112 8.61167 38.6747 8.65625 38.6384C9.20527 38.1915 9.79343 37.767 10.4258 37.3806C10.6714 37.2311 10.926 37.0903 11.1836 36.9509C12.5991 36.1818 13.8614 35.4117 14.9609 34.7322C15.5447 34.3743 16.0968 34.0313 16.6289 33.7205C17.4909 33.2219 18.2559 32.8193 18.9609 32.5603C19.3713 32.4096 19.7624 32.3066 20.1406 32.2634C20.2695 32.2492 20.3968 32.2401 20.5234 32.24C20.716 32.24 20.9077 32.2596 21.0977 32.2869ZM17.6562 50.4783C17.5553 50.4752 17.4515 50.4955 17.3594 50.5369C17.2671 50.5786 17.1857 50.6425 17.1211 50.7205C17.0669 50.785 17.029 50.8616 17.0078 50.9431C16.9868 51.0244 16.9842 51.1106 17 51.1931C17.2231 52.1222 17.7357 52.9584 18.4648 53.5759C19.0381 54.1175 19.7808 54.4519 20.5664 54.5212C21.3511 54.4511 22.0917 54.1173 22.6641 53.5759C23.3943 52.9581 23.9097 52.1233 24.1328 51.1931C24.1496 51.1112 24.149 51.0243 24.1289 50.9431C24.1086 50.8623 24.0686 50.7848 24.0156 50.7205C23.9506 50.6438 23.865 50.5823 23.7734 50.5408C23.6819 50.4997 23.5807 50.4764 23.4805 50.4783H17.6562ZM15.2305 43.99C14.7268 43.8899 14.2012 43.9423 13.7266 44.1384C13.252 44.3352 12.8443 44.6684 12.5586 45.0955C12.273 45.5227 12.1216 46.0269 12.1211 46.5408C12.1213 47.2293 12.3966 47.8931 12.8828 48.3806C13.3693 48.867 14.0308 49.1409 14.7188 49.1423C15.2323 49.1428 15.7365 48.9931 16.1641 48.7087C16.592 48.4235 16.9275 48.0156 17.125 47.5408C17.3222 47.0661 17.373 46.5412 17.2734 46.0369C17.1734 45.5331 16.9251 45.0685 16.5625 44.7048C16.1994 44.3415 15.7342 44.0908 15.2305 43.99ZM26.9453 43.9939C26.4411 43.8925 25.917 43.9427 25.4414 44.1384C24.9654 44.3347 24.5561 44.6677 24.2695 45.0955C23.9836 45.5228 23.8325 46.0266 23.832 46.5408C23.831 47.2272 24.1025 47.8893 24.5859 48.3767C25.0696 48.863 25.7281 49.1384 26.4141 49.1423C26.9285 49.1456 27.4337 48.9957 27.8633 48.7126C28.2926 48.4293 28.6324 48.0266 28.832 47.5525C29.0314 47.078 29.0823 46.55 28.9844 46.0447C28.8858 45.5404 28.6392 45.0736 28.2773 44.7087C27.9149 44.3442 27.4493 44.0958 26.9453 43.9939ZM20.4922 33.1853C20.3554 33.0638 20.1449 33.2509 20.2383 33.4158V33.4353C20.8152 34.3773 21.1813 35.4362 21.3125 36.533C21.4433 37.6299 21.3351 38.7432 20.9961 39.7947C20.9403 39.9593 21.1445 40.102 21.2578 39.9666C22.2916 38.6447 23.1913 36.0177 20.4922 33.1853ZM19.4805 33.3962C19.4416 33.1858 19.1645 33.2426 19.1641 33.4353C19.1705 34.5497 18.939 35.654 18.4805 36.6697C18.0219 37.6853 17.3479 38.5899 16.5078 39.322C16.376 39.44 16.4788 39.6648 16.6484 39.5994C18.2393 38.9805 20.3862 37.1295 19.4805 33.3962ZM21.6953 33.0447C21.5072 32.9704 21.3845 33.2243 21.5391 33.3376V33.3533C22.4426 33.9932 23.2003 34.8225 23.7578 35.7791C24.3153 36.7365 24.6626 37.8056 24.7734 38.908C24.7692 38.9465 24.7818 38.986 24.8047 39.0173C24.8283 39.0485 24.8639 39.0729 24.9023 39.0798C24.9409 39.086 24.9831 39.0778 25.0156 39.0564C25.0484 39.0341 25.0734 38.9975 25.082 38.9587C25.5161 37.311 25.2678 34.5036 21.6953 33.0447ZM18.0781 34.0994C18.1192 33.9114 17.8544 33.8478 17.7695 34.0173C17.2904 35.032 16.6007 35.9341 15.75 36.6658C14.8986 37.3976 13.8999 37.9419 12.8242 38.2634C12.6553 38.3156 12.6506 38.5673 12.8281 38.5642C14.5279 38.6676 17.2613 37.8753 18.0781 34.0994Z" fill="black"/>
</svg>
