<svg width="24" height="24" viewBox="0 0 24 24" fill="none" xmlns="http://www.w3.org/2000/svg">
<path d="M21.1772 8.07197C21.1292 8.02097 21.0782 7.96997 21.0272 7.92197C20.9762 7.87397 20.9282 7.81997 20.8772 7.77197C20.8262 7.72397 20.7782 7.66997 20.7272 7.62197C20.6762 7.57397 20.6282 7.51997 20.5772 7.47197C20.5262 7.42397 20.4782 7.36997 20.4272 7.32197C20.3762 7.27397 20.3282 7.21997 20.2772 7.17197C20.2262 7.12397 20.1782 7.06997 20.1272 7.02197C21.6153 8.48438 22.4677 10.4739 22.5002 12.56C22.5002 17.531 17.4542 21.575 11.2502 21.575C7.7762 21.575 4.6682 20.306 2.6012 18.317L3.6512 19.367C5.7152 21.44 8.8922 22.775 12.4502 22.775C18.6542 22.775 23.7002 18.731 23.7002 13.775C23.7002 11.657 22.7882 9.64997 21.1772 8.07197Z" fill="black"/>
<path d="M21.7502 12.56C21.7502 17.123 17.0492 20.822 11.2502 20.822C5.45122 20.822 0.75022 17.123 0.75022 12.56C0.75022 9.73098 2.55022 7.23198 5.31622 5.74998C8.08222 4.26798 9.80422 2.74998 11.2502 2.74998C12.6962 2.74998 13.9322 3.98898 17.1842 5.74998C19.9502 7.23198 21.7502 9.73098 21.7502 12.56Z" fill="#FBF0DF"/>
<path d="M21.7502 12.56C21.7488 11.9738 21.668 11.3905 21.5102 10.826C20.6912 20.816 8.50518 21.296 3.71418 18.308C5.86788 19.9773 8.52565 20.8639 11.2502 20.822C17.0402 20.822 21.7502 17.117 21.7502 12.56Z" fill="#F6DECE"/>
<path d="M7.20922 5.20098C8.55022 4.39698 10.3322 2.88798 12.0842 2.88498C11.8147 2.79786 11.5335 2.75233 11.2502 2.74998C10.5242 2.74998 9.75022 3.12498 8.77522 3.68898C8.43622 3.88698 8.08522 4.10598 7.71322 4.33398C7.01422 4.76598 6.21322 5.25498 5.31322 5.74398C2.45722 7.28898 0.75022 9.83598 0.75022 12.56C0.75022 12.68 0.75022 12.8 0.75022 12.917C2.56822 6.49398 5.87122 6.00498 7.20922 5.20098Z" fill="#FFFEFC"/>
<path fill-rule="evenodd" clip-rule="evenodd" d="M10.3862 3.50899C10.3904 4.21735 10.2417 4.9183 9.95019 5.5639C9.65871 6.20953 9.2313 6.78466 8.69721 7.24999C8.61321 7.32499 8.67921 7.46899 8.78721 7.42699C9.79821 7.03399 11.1632 5.85799 10.5872 3.48499C10.5632 3.34999 10.3862 3.38599 10.3862 3.50899ZM11.0672 3.50899C11.4343 4.10792 11.6675 4.77914 11.7509 5.47663C11.8342 6.17413 11.7658 6.88141 11.5502 7.54999C11.5142 7.65499 11.6432 7.74499 11.7152 7.65799C12.3722 6.81799 12.9452 5.14999 11.2292 3.34999C11.1422 3.27199 11.0072 3.39199 11.0672 3.49699V3.50899ZM11.8952 3.45799C12.47 3.86495 12.9509 4.39046 13.3054 4.99906C13.6599 5.60767 13.8798 6.28519 13.9502 6.98599C13.9472 7.01125 13.954 7.03669 13.9692 7.05706C13.9844 7.07746 14.0069 7.09117 14.032 7.09543C14.0571 7.09966 14.0828 7.09411 14.1039 7.07986C14.125 7.06564 14.1398 7.04383 14.1452 7.01899C14.4212 5.97199 14.2652 4.18699 11.9942 3.25999C11.8742 3.21199 11.7962 3.37399 11.8952 3.44599V3.45799ZM6.35721 6.57799C7.041 6.37372 7.67409 6.0277 8.21526 5.56252C8.75643 5.09731 9.19359 4.52334 9.49821 3.87799C9.55221 3.76999 9.72321 3.81199 9.69621 3.93199C9.17721 6.33199 7.44021 6.83299 6.36021 6.76699C6.24621 6.76999 6.24921 6.61099 6.35721 6.57799Z" fill="#CCBEA7"/>
<path d="M11.2502 21.575C5.0462 21.575 0.00012207 17.531 0.00012207 12.56C0.00012207 9.56 1.85412 6.761 4.95912 5.084C5.85912 4.604 6.63012 4.121 7.31712 3.698C7.69512 3.464 8.05212 3.245 8.39712 3.041C9.45012 2.417 10.3501 2 11.2501 2C12.1501 2 12.9361 2.36 13.9201 2.942C14.2201 3.113 14.5201 3.299 14.8411 3.503C15.5881 3.965 16.4311 4.487 17.5411 5.084C20.6461 6.761 22.5002 9.55697 22.5002 12.56C22.5002 17.531 17.4542 21.575 11.2502 21.575ZM11.2502 2.74998C10.5242 2.74998 9.75022 3.12498 8.77522 3.68898C8.43622 3.88698 8.08522 4.10598 7.71322 4.33398C7.01422 4.76598 6.21322 5.25498 5.31322 5.74398C2.45722 7.28898 0.75022 9.83598 0.75022 12.56C0.75022 17.117 5.46012 20.825 11.2501 20.825C17.0401 20.825 21.7502 17.117 21.7502 12.56C21.7502 9.83598 20.0432 7.28898 17.1842 5.74998C16.0502 5.14998 15.1651 4.586 14.4481 4.142C14.1211 3.941 13.8211 3.755 13.5481 3.59C12.6391 3.05 11.9762 2.74998 11.2502 2.74998Z" fill="black"/>
<path d="M13.3652 14.75C13.2305 15.302 12.9237 15.7968 12.4892 16.163C12.1631 16.4792 11.7408 16.6776 11.2892 16.727C10.8241 16.6854 10.387 16.4865 10.0502 16.163C9.62022 15.7951 9.31776 15.3004 9.18624 14.75C9.18189 14.7173 9.18507 14.6841 9.19554 14.6528C9.20601 14.6216 9.2235 14.5931 9.24666 14.5697C9.26982 14.5462 9.29805 14.5283 9.32919 14.5175C9.3603 14.5066 9.39351 14.503 9.42624 14.507H13.1282C13.1607 14.5035 13.1936 14.5075 13.2243 14.5186C13.2551 14.5297 13.2829 14.5476 13.3057 14.5709C13.3286 14.5943 13.3457 14.6226 13.3561 14.6536C13.3664 14.6846 13.3695 14.7176 13.3652 14.75Z" fill="#B71422"/>
<path d="M10.0502 16.187C10.3863 16.5107 10.8218 16.7115 11.2862 16.757C11.7496 16.7108 12.1839 16.5101 12.5192 16.187C12.6265 16.087 12.7268 15.9797 12.8192 15.866C12.6344 15.6563 12.4087 15.4867 12.1559 15.3675C11.9031 15.2483 11.6286 15.1821 11.3492 15.173C11.0504 15.1801 10.7577 15.2597 10.4964 15.4049C10.2351 15.5502 10.013 15.7568 9.84924 16.007C9.91824 16.07 9.97824 16.13 10.0502 16.187Z" fill="#FF6164"/>
<path d="M10.0982 15.95C10.2469 15.7577 10.4373 15.6017 10.655 15.4936C10.8727 15.3855 11.1121 15.3282 11.3552 15.326C11.8045 15.3392 12.2325 15.5201 12.5552 15.833C12.6242 15.758 12.6902 15.68 12.7532 15.602C12.3715 15.2385 11.8672 15.0318 11.3402 15.023C11.0586 15.0254 10.781 15.0902 10.5273 15.2126C10.2737 15.335 10.0503 15.512 9.87319 15.731C9.94411 15.8081 10.0192 15.8812 10.0982 15.95Z" fill="black"/>
<path d="M11.2772 16.907C10.7773 16.8632 10.3069 16.6517 9.94223 16.307C9.47786 15.9142 9.15099 15.3834 9.00924 14.792C8.99907 14.7393 9.00081 14.685 9.01431 14.6331C9.02778 14.5812 9.05271 14.533 9.08724 14.492C9.12834 14.4423 9.18027 14.4027 9.23901 14.3762C9.29778 14.3497 9.3618 14.337 9.42624 14.339H13.1282C13.1926 14.3376 13.2564 14.3506 13.315 14.3771C13.3737 14.4036 13.4257 14.4428 13.4672 14.492C13.5014 14.5332 13.5259 14.5815 13.5389 14.6334C13.5519 14.6853 13.553 14.7395 13.5422 14.792C13.4005 15.3834 13.0736 15.9142 12.6092 16.307C12.2454 16.6511 11.7761 16.8625 11.2772 16.907ZM9.42624 14.687C9.37824 14.687 9.36623 14.708 9.36323 14.714C9.49004 15.2269 9.7769 15.6861 10.1822 16.025C10.4786 16.317 10.864 16.5017 11.2772 16.55C11.6894 16.5023 12.0743 16.3198 12.3722 16.031C12.7763 15.6915 13.062 15.2324 13.1882 14.72C13.1817 14.7104 13.1726 14.7028 13.162 14.698C13.1515 14.6932 13.1398 14.6915 13.1282 14.693L9.42624 14.687Z" fill="black"/>
<path d="M15.8163 14.936C16.7855 14.936 17.5713 14.4739 17.5713 13.904C17.5713 13.334 16.7855 12.872 15.8163 12.872C14.847 12.872 14.0613 13.334 14.0613 13.904C14.0613 14.4739 14.847 14.936 15.8163 14.936Z" fill="#FEBBD0"/>
<path d="M6.73525 14.936C7.70452 14.936 8.49025 14.4739 8.49025 13.904C8.49025 13.334 7.70452 12.872 6.73525 12.872C5.76598 12.872 4.98025 13.334 4.98025 13.904C4.98025 14.4739 5.76598 14.936 6.73525 14.936Z" fill="#FEBBD0"/>
<path fill-rule="evenodd" clip-rule="evenodd" d="M7.5602 13.49C7.88726 13.4906 8.20715 13.3941 8.47937 13.2129C8.75159 13.0316 8.96393 12.7736 9.08951 12.4716C9.21509 12.1697 9.24824 11.8372 9.18479 11.5163C9.12137 11.1955 8.96417 10.9007 8.73311 10.6692C8.50205 10.4377 8.20752 10.28 7.88679 10.216C7.56605 10.1519 7.23353 10.1845 6.93131 10.3095C6.62909 10.4345 6.37076 10.6464 6.18899 10.9183C6.00722 11.1902 5.9102 11.5099 5.9102 11.837C5.9102 12.2749 6.08393 12.6949 6.39329 13.0048C6.70265 13.3147 7.12232 13.4892 7.5602 13.49ZM14.9912 13.49C15.3186 13.4924 15.6394 13.3974 15.9128 13.2173C16.1862 13.0371 16.3999 12.7797 16.5269 12.4779C16.6539 12.1761 16.6883 11.8433 16.6259 11.5219C16.5635 11.2005 16.407 10.9048 16.1763 10.6724C15.9456 10.4401 15.6511 10.2814 15.3301 10.2167C15.0091 10.1519 14.6762 10.184 14.3734 10.3087C14.0707 10.4334 13.8118 10.6453 13.6297 10.9174C13.4475 11.1895 13.3502 11.5095 13.3502 11.837C13.3494 12.2735 13.5217 12.6926 13.8292 13.0025C14.1368 13.3123 14.5546 13.4876 14.9912 13.49Z" fill="black"/>
<path fill-rule="evenodd" clip-rule="evenodd" d="M7.0502 11.942C7.17314 11.9426 7.2935 11.9067 7.39601 11.8388C7.49855 11.7709 7.57859 11.6741 7.62605 11.5607C7.67354 11.4473 7.68626 11.3223 7.66262 11.2017C7.63901 11.081 7.58009 10.9701 7.49339 10.8829C7.40666 10.7958 7.29599 10.7363 7.17545 10.7121C7.05491 10.6879 6.9299 10.7001 6.81626 10.7469C6.70259 10.7939 6.60545 10.8735 6.53708 10.9756C6.46871 11.0778 6.4322 11.198 6.4322 11.321C6.4322 11.4852 6.49721 11.6427 6.61301 11.759C6.72884 11.8754 6.88601 11.9412 7.0502 11.942ZM14.4812 11.942C14.6041 11.9426 14.7245 11.9067 14.827 11.8388C14.9296 11.7709 15.0096 11.6741 15.0571 11.5607C15.1045 11.4473 15.1173 11.3223 15.0936 11.2017C15.07 11.081 15.0111 10.9701 14.9244 10.8829C14.8377 10.7958 14.727 10.7363 14.6065 10.7121C14.4859 10.6879 14.3609 10.7001 14.2473 10.7469C14.1336 10.7939 14.0365 10.8735 13.9681 10.9756C13.8997 11.0778 13.8632 11.198 13.8632 11.321C13.8632 11.4841 13.9274 11.6407 14.0419 11.7569C14.1564 11.8731 14.3121 11.9396 14.4752 11.942H14.4812Z" fill="white"/>
</svg>
