<svg width="24" height="24" viewBox="0 0 24 24" fill="none" xmlns="http://www.w3.org/2000/svg">
<path d="M12 17.9974C15.3137 17.9974 18 15.3111 18 11.9974C18 8.68367 15.3137 5.99738 12 5.99738C8.68629 5.99738 6 8.68367 6 11.9974C6 15.3111 8.68629 17.9974 12 17.9974Z" fill="white"/>
<path d="M12 6.00002H22.3906C21.3377 4.17571 19.823 2.66077 17.9989 1.60752C16.1748 0.554277 14.1055 -0.000146933 11.9992 3.10265e-08C9.89285 0.000146995 7.82399 0.554203 6.00002 1.6077C4.17606 2.66121 2.66129 4.17702 1.60864 6.00147L6.80394 15L6.80859 14.9988C6.28009 14.0875 6.00119 13.0529 6.00001 11.9994C5.99883 10.9458 6.2754 9.91062 6.80185 8.99807C7.3283 8.08552 8.08602 7.32789 8.99863 6.80153C9.91123 6.27518 10.9465 5.99872 12 6.00002Z" fill="url(#paint0_linear_2090_1078)"/>
<path d="M12 16.75C14.6234 16.75 16.75 14.6234 16.75 12C16.75 9.37665 14.6234 7.25 12 7.25C9.37665 7.25 7.25 9.37665 7.25 12C7.25 14.6234 9.37665 16.75 12 16.75Z" fill="#1A73E8"/>
<path d="M17.1957 15.0014L12.0004 24C14.1067 24.0003 16.176 23.446 18.0002 22.3929C19.8244 21.3398 21.3391 19.8249 22.3922 18.0007C23.4452 16.1765 23.9994 14.1072 23.999 12.0008C23.9986 9.89449 23.4437 7.82537 22.39 6.00153H11.9995L11.9982 6.00618C13.0517 6.00414 14.0872 6.27989 15.0002 6.80562C15.9131 7.33134 16.6714 8.08847 17.1984 9.00067C17.7255 9.91287 18.0028 10.9479 18.0023 12.0014C18.0018 13.0549 17.7236 14.0897 17.1957 15.0014Z" fill="url(#paint1_linear_2090_1078)"/>
<path d="M6.80431 15.0015L1.60901 6.00299C0.555576 7.82699 0.000932992 9.8962 0.000854495 12.0025C0.000775997 14.1089 0.555265 16.1781 1.60857 18.0022C2.66187 19.8263 4.17686 21.3409 6.00119 22.3938C7.82553 23.4466 9.89403 24.0006 12.0004 24L17.1957 15.0014L17.1932 14.998C16.6682 15.9114 15.9117 16.6702 14.9999 17.198C14.0881 17.7258 13.0533 18.0039 11.9998 18.0043C10.9463 18.0046 9.91126 17.7272 8.99912 17.2001C8.08699 16.6729 7.32995 15.9146 6.80431 15.0015Z" fill="url(#paint2_linear_2090_1078)"/>
<defs>
<linearGradient id="paint0_linear_2090_1078" x1="0" y1="12" x2="24" y2="12" gradientUnits="userSpaceOnUse">
<stop stop-color="#D93025"/>
<stop offset="1" stop-color="#EA4335"/>
</linearGradient>
<linearGradient id="paint1_linear_2090_1078" x1="-3.27429" y1="23.7861" x2="7.45405" y2="-4.08268" gradientUnits="userSpaceOnUse">
<stop stop-color="#FCC934"/>
<stop offset="1" stop-color="#FBBC04"/>
</linearGradient>
<linearGradient id="paint2_linear_2090_1078" x1="13.2991" y1="23.2507" x2="2.90806" y2="5.25293" gradientUnits="userSpaceOnUse">
<stop stop-color="#1E8E3E"/>
<stop offset="1" stop-color="#34A853"/>
</linearGradient>
</defs>
</svg>
