<svg width="96" height="96" viewBox="0 0 96 96" fill="none" xmlns="http://www.w3.org/2000/svg">
<path d="M4.07037 55.9527C4.99542 55.9191 5.90494 56.2129 6.63287 56.7847C7.36086 57.3567 7.86065 58.1708 8.04693 59.0777H5.87115C5.72397 58.7195 5.47588 58.4097 5.1563 58.191C4.83671 57.9723 4.45754 57.8547 4.07037 57.8472C3.56046 57.8725 3.07879 58.0909 2.72662 58.4605C2.37412 58.8306 2.17974 59.3244 2.17974 59.8355C2.18003 60.3459 2.37475 60.8368 2.72662 61.2066C3.07883 61.5764 3.56031 61.7986 4.07037 61.8238C4.43413 61.8207 4.79112 61.7092 5.0938 61.5074C5.396 61.3056 5.63477 61.0213 5.7774 60.6871H7.95318C7.71889 61.5606 7.1999 62.3304 6.48052 62.8785C5.76105 63.4265 4.88103 63.7205 3.97662 63.7144C3.45874 63.7298 2.94374 63.6408 2.46099 63.4527C1.97796 63.2643 1.53515 62.9828 1.16412 62.6207C0.793574 62.259 0.500818 61.8249 0.300835 61.3472C0.100981 60.8691 -0.00270589 60.3537 5.36776e-05 59.8355C0.00795678 59.3122 0.122554 58.7955 0.332085 58.316C0.541836 57.8362 0.843749 57.4 1.22271 57.0386C1.60148 56.6777 2.05029 56.397 2.53912 56.2105C3.02762 56.0243 3.54784 55.9359 4.07037 55.9527Z" fill="black"/>
<path d="M30.8633 60.2144C30.8638 61.255 31.4335 61.8238 32.2852 61.8238C32.484 61.8402 32.685 61.8095 32.8711 61.7379C33.0565 61.6664 33.2234 61.5544 33.3594 61.4097C33.496 61.2641 33.6006 61.0886 33.6602 60.898C33.7197 60.7075 33.7325 60.5056 33.7032 60.3082V56.0465H35.7891V60.2144C35.7886 62.6748 34.3674 63.7142 32.2852 63.7144C30.1081 63.6198 28.7818 62.5803 28.7813 60.2144V56.0465H30.8633V60.2144Z" fill="black"/>
<path fill-rule="evenodd" clip-rule="evenodd" d="M22.6407 55.859C23.0286 55.8814 23.4129 55.9661 23.7774 56.105C24.2634 56.2906 24.7059 56.5737 25.0782 56.9371C25.4506 57.3006 25.7443 57.7367 25.9415 58.2183C26.1384 58.6999 26.2372 59.2177 26.2266 59.7379C26.2266 60.2637 26.1172 60.7857 25.9102 61.2691C25.7032 61.7524 25.4001 62.1875 25.0196 62.5504C24.6393 62.913 24.1916 63.1986 23.6993 63.3824C23.2071 63.566 22.681 63.6454 22.1563 63.6207C21.6379 63.6361 21.1199 63.5474 20.6368 63.359C20.1536 63.1705 19.7149 62.8853 19.3438 62.523C18.9727 62.1608 18.6766 61.728 18.4766 61.2496C18.2769 60.7714 18.1768 60.2561 18.1797 59.7379C18.18 59.2127 18.2856 58.6933 18.4922 58.2105C18.6993 57.7271 19.0023 57.2883 19.3829 56.9254C19.7632 56.563 20.2148 56.2808 20.7071 56.0972C21.0762 55.9597 21.4637 55.88 21.8555 55.859H22.6407ZM22.2501 57.6558C21.7397 57.6807 21.2588 57.9031 20.9063 58.273C20.554 58.6429 20.3558 59.1333 20.3555 59.6441C20.3555 60.1552 20.5538 60.649 20.9063 61.0191C21.2587 61.3884 21.7402 61.6075 22.2501 61.6324C23.3857 61.8212 24.1446 60.8737 24.1446 59.7379C24.1628 59.4761 24.1251 59.2124 24.0391 58.9644C23.9529 58.7162 23.8174 58.487 23.6407 58.2925C23.464 58.0984 23.2504 57.9408 23.0118 57.8316C22.7727 57.7223 22.5128 57.6624 22.2501 57.6558Z" fill="black"/>
<path d="M12.4024 61.7261H16.0001V63.5269H10.3204V56.0465H12.4024V61.7261Z" fill="black"/>
<path fill-rule="evenodd" clip-rule="evenodd" d="M41.8477 56.0465C44.4973 56.0468 46.1046 57.5616 46.1055 59.7379C46.1055 61.9151 44.4981 63.5266 41.8477 63.5269H39.0079V56.0465H41.8477ZM40.9961 61.6324H41.8477C42.1113 61.6574 42.3778 61.6262 42.629 61.5425C42.88 61.4588 43.1129 61.326 43.3086 61.148C43.5045 60.9698 43.6585 60.7496 43.7657 60.5074C43.8726 60.2653 43.9297 60.0025 43.9297 59.7379C43.9295 59.4735 43.8726 59.2101 43.7657 58.9683C43.6586 58.727 43.5039 58.5093 43.3086 58.3316C43.1126 58.1533 42.8804 58.0169 42.629 57.9332C42.3778 57.8496 42.1113 57.8222 41.8477 57.8472H40.9961V61.6324Z" fill="black"/>
<path d="M55.0079 57.8472H51.1251V59.0777H54.629V60.7808H51.1251V63.5269H49.043V56.0465H55.0079V57.8472Z" fill="black"/>
<path d="M60.0235 61.7261H63.6211V63.5269H57.9415V56.0465H60.0235V61.7261Z" fill="black"/>
<path fill-rule="evenodd" clip-rule="evenodd" d="M74.3204 63.5269H72.0469L71.4805 62.2027H68.5469L67.9766 63.5269H65.8008L69.0196 55.9527H71.1016L74.3204 63.5269ZM69.2071 60.5933H70.9102L70.0586 58.5074L69.2071 60.5933Z" fill="black"/>
<path fill-rule="evenodd" clip-rule="evenodd" d="M80.4727 56.0465C80.9192 56.0102 81.3697 56.0681 81.793 56.2144C82.216 56.3608 82.6051 56.594 82.9336 56.898C83.2046 57.1902 83.402 57.5451 83.5079 57.9293C83.6136 58.3138 83.6266 58.719 83.543 59.109C83.4594 59.499 83.2815 59.8639 83.0274 60.1715C82.7735 60.4784 82.4489 60.7192 82.0821 60.8746L83.8829 63.5269H81.5157L80.0001 61.2535H79.0547V63.5269H76.9727V56.0465H80.4727ZM79.0547 59.7379H80.379V59.6441C81.0417 59.6441 81.5157 59.2659 81.5157 58.7925C81.5154 58.2248 81.0415 57.941 80.379 57.941H79.0547V59.7379Z" fill="black"/>
<path d="M92.5938 57.7535H88.6172V58.8863H92.2149V60.5933H88.6172V61.7261H92.6876V63.5269H86.5313V56.0465H92.5938V57.7535Z" fill="black"/>
<path fill-rule="evenodd" clip-rule="evenodd" d="M95.3594 56.5308C95.396 56.5432 95.4298 56.566 95.4571 56.5933C95.4841 56.6207 95.5035 56.6545 95.5157 56.691C95.5278 56.7276 95.5328 56.7661 95.5274 56.8043C95.5274 56.8989 95.4307 56.9947 95.336 57.0894L95.5274 57.3746H95.336L95.1485 57.0894H94.961V57.3746H94.7696V56.5191H95.2422C95.2808 56.5136 95.3225 56.5185 95.3594 56.5308ZM94.961 56.9957H95.2422V56.898C95.3369 56.898 95.336 56.8989 95.336 56.8043C95.3362 56.7923 95.3364 56.7803 95.3321 56.7691C95.3276 56.758 95.3208 56.7465 95.3126 56.7379C95.3042 56.7295 95.2922 56.723 95.2813 56.7183C95.2697 56.7137 95.2547 56.7102 95.2422 56.7105H94.961V56.9957Z" fill="black"/>
<path fill-rule="evenodd" clip-rule="evenodd" d="M95.4727 56.1129C95.628 56.1772 95.7619 56.2858 95.8555 56.4254C95.9489 56.5651 95.9998 56.73 96.0001 56.898C96.0005 57.01 95.9801 57.1226 95.9376 57.2261C95.895 57.3294 95.8329 57.4244 95.754 57.5035C95.6751 57.5823 95.5797 57.6444 95.4766 57.6871C95.373 57.7297 95.2605 57.754 95.1485 57.7535C94.9804 57.7535 94.8157 57.7022 94.6758 57.609C94.5357 57.5153 94.4239 57.3818 94.3594 57.2261C94.2951 57.0707 94.2799 56.8989 94.3126 56.734C94.3454 56.5687 94.4278 56.4156 94.5469 56.2965C94.6656 56.178 94.8161 56.0951 94.9805 56.0621C95.1453 56.0293 95.3174 56.0489 95.4727 56.1129ZM95.1485 56.2379C95.0179 56.2379 94.89 56.2749 94.7813 56.3472C94.6727 56.4198 94.5854 56.5235 94.5352 56.6441C94.4852 56.7647 94.4749 56.8988 94.5001 57.0269C94.5256 57.1551 94.5875 57.2742 94.6797 57.3668C94.7724 57.4594 94.891 57.5248 95.0196 57.5504C95.148 57.5758 95.2814 57.5614 95.4024 57.5113C95.5229 57.4613 95.6266 57.3774 95.6993 57.2691C95.7721 57.1601 95.8126 57.0291 95.8126 56.898C95.8145 56.8112 95.7978 56.7248 95.7657 56.6441C95.7331 56.5627 95.6831 56.4873 95.6211 56.4254C95.5599 56.3643 95.4865 56.3171 95.4063 56.2847C95.3249 56.2522 95.2361 56.2357 95.1485 56.2379Z" fill="black"/>
<path d="M73.4727 32.0152C75.8185 32.1439 78.0582 33.0367 79.8516 34.5543C81.6448 36.0719 82.8954 38.1333 83.4102 40.4254C83.5041 40.5196 83.4109 40.6163 83.4102 40.7105L82.461 43.1715C82.0484 44.1454 81.3833 44.9925 80.5352 45.6246C79.6868 46.2566 78.6843 46.6524 77.6329 46.7691L61.0665 46.9566C60.8775 46.9566 60.782 47.0533 60.6876 47.2418C60.6661 47.2579 60.649 47.2804 60.6368 47.3043C60.6249 47.3281 60.6177 47.3558 60.6172 47.3824C60.6172 47.4097 60.6247 47.4399 60.6368 47.4644C60.649 47.4884 60.6661 47.5107 60.6876 47.5269C60.7821 47.5271 60.8781 47.6207 60.9727 47.6207L77.4454 47.8121C77.8286 47.8465 78.2022 47.9539 78.543 48.1324C78.884 48.311 79.1871 48.5556 79.4336 48.8511C79.6734 49.2084 79.8254 49.6191 79.8751 50.0465C79.9244 50.4738 79.8704 50.9096 79.7188 51.3121L79.4336 52.355C79.4334 52.5439 79.2438 52.64 79.0547 52.6402H48.6641C48.5904 52.6359 48.5211 52.6025 48.4688 52.5504C48.4168 52.4981 48.3834 52.4286 48.379 52.355C48.3008 52.0141 48.2697 51.6616 48.2852 51.3121C48.2855 49.5123 48.9874 47.782 50.2422 46.4918C51.4975 45.2016 53.2084 44.4517 55.0079 44.4019C54.8824 43.8436 54.8512 43.2676 54.9141 42.6988C55.0383 41.5868 55.537 40.5486 56.3282 39.7574C57.119 38.9671 58.1546 38.4676 59.2657 38.3433C60.4774 38.2483 61.6866 38.5824 62.6758 39.2886C63.4381 37.067 64.9037 35.1519 66.8516 33.8394C68.8002 32.5268 71.1268 31.8867 73.4727 32.0152Z" fill="black"/>
<path d="M84.9219 40.7105C87.3018 40.7256 89.5824 41.6766 91.2657 43.359C92.9487 45.042 93.9025 47.3227 93.918 49.7027C93.8919 50.5347 93.7641 51.3623 93.5391 52.1636C93.5446 52.2019 93.5395 52.2441 93.5274 52.2808C93.5152 52.317 93.4956 52.3513 93.4688 52.3785C93.4418 52.4055 93.4072 52.4247 93.3711 52.4371C93.3342 52.4494 93.2925 52.4543 93.254 52.4488H80.7579C80.5685 52.4488 80.4757 52.2583 80.5704 52.1636L80.7579 51.3121C81.1706 50.3384 81.8356 49.4909 82.6836 48.859C83.5321 48.2269 84.5344 47.8311 85.586 47.7144L89.1836 47.5269C89.3729 47.5269 89.4679 47.431 89.5626 47.2418C89.5841 47.2254 89.6012 47.2034 89.6133 47.1793C89.6252 47.1552 89.6327 47.128 89.6329 47.1011C89.6327 47.0739 89.6255 47.0434 89.6133 47.0191C89.6011 46.9955 89.5838 46.9726 89.5626 46.9566C89.4679 46.9566 89.372 46.863 89.2774 46.8629L85.7774 46.6754C85.3938 46.641 85.017 46.5298 84.6758 46.3511C84.3357 46.1727 84.0352 45.9273 83.7891 45.6324C83.5494 45.2748 83.3972 44.8647 83.3477 44.4371C83.2985 44.0092 83.3518 43.5743 83.504 43.1715L84.168 40.898C84.2617 40.8043 84.3556 40.7111 84.4493 40.7105H84.9219Z" fill="black"/>
</svg>
