<svg width="24" height="24" viewBox="0 0 24 24" fill="none" xmlns="http://www.w3.org/2000/svg">
<path d="M13.2481 7.00826C14.4818 7.07591 15.6594 7.54507 16.6026 8.34322C17.5458 9.14143 18.203 10.2255 18.4737 11.4311C18.5234 11.4808 18.4738 11.5308 18.4737 11.5805L17.9756 12.8754C17.7586 13.3878 17.4091 13.833 16.9629 14.1655C16.5167 14.498 15.9897 14.7057 15.4366 14.767L6.72369 14.8667C6.62414 14.8667 6.57424 14.9165 6.52447 15.0161C6.51287 15.0248 6.50361 15.0363 6.49712 15.0493C6.49067 15.0622 6.48736 15.0768 6.48736 15.0913C6.48743 15.1055 6.49076 15.1195 6.49712 15.1323C6.50361 15.1452 6.51287 15.1568 6.52447 15.1655C6.57424 15.1655 6.62411 15.2153 6.67388 15.2153L15.337 15.3149C15.5387 15.333 15.7347 15.3909 15.9141 15.4848C16.0935 15.5788 16.2531 15.7072 16.3829 15.8627C16.5091 16.0509 16.5883 16.2666 16.6143 16.4917C16.6403 16.7167 16.6123 16.9448 16.5323 17.1567L16.3829 17.7045C16.3829 17.8041 16.2832 17.8539 16.1836 17.854H0.201226C0.162372 17.8517 0.125232 17.8356 0.09771 17.8081C0.0702453 17.7805 0.0540947 17.7434 0.0518116 17.7045C0.0106337 17.5251 -0.00616072 17.3406 0.00200687 17.1567C0.00197059 16.21 0.37121 15.3002 1.0313 14.6215C1.69148 13.9428 2.59069 13.5491 3.53716 13.5229C3.47106 13.229 3.45422 12.9258 3.48736 12.6264C3.55258 12.0415 3.81441 11.4957 4.23052 11.0795C4.64667 10.6634 5.19251 10.4017 5.7774 10.3364C6.41483 10.2864 7.05006 10.4618 7.57037 10.8335C7.9712 9.66483 8.74205 8.65854 9.76665 7.96822C10.7915 7.27779 12.0143 6.94065 13.2481 7.00826Z" fill="black"/>
<path d="M19.2696 11.5805C20.5216 11.5884 21.7202 12.0897 22.6055 12.9751C23.4908 13.8604 23.9922 15.059 24.0001 16.311C23.9863 16.7488 23.9193 17.1833 23.8008 17.6049C23.8037 17.6252 23.8015 17.646 23.795 17.6655C23.7885 17.6848 23.7781 17.7028 23.7637 17.7172C23.7493 17.7317 23.7314 17.743 23.712 17.7495C23.6926 17.7559 23.6717 17.7572 23.6514 17.7543H17.0792C16.9796 17.7543 16.9298 17.6547 16.9795 17.6049L17.0792 17.1567C17.2962 16.6444 17.6457 16.1991 18.0919 15.8667C18.5381 15.5342 19.0651 15.3265 19.6182 15.2651L21.5108 15.1655C21.61 15.1653 21.6593 15.1154 21.709 15.0161C21.7206 15.0074 21.7309 14.9958 21.7374 14.9829C21.7436 14.9701 21.7471 14.9561 21.7471 14.9418C21.7471 14.9275 21.7438 14.9128 21.7374 14.8999C21.7309 14.8869 21.7206 14.8753 21.709 14.8667C21.6596 14.8663 21.6101 14.8171 21.5606 14.8168L19.7178 14.7172C19.5162 14.6991 19.32 14.6413 19.1407 14.5473C18.9613 14.4533 18.8016 14.3249 18.6719 14.1694C18.5458 13.9813 18.4664 13.7655 18.4405 13.5405C18.4145 13.3154 18.4434 13.0874 18.5235 12.8754L18.8711 11.6801C18.9208 11.6305 18.9709 11.5808 19.0206 11.5805H19.2696Z" fill="black"/>
</svg>
