<svg width="24" height="24" viewBox="0 0 24 24" fill="none" xmlns="http://www.w3.org/2000/svg">
<path d="M21.7594 12.2776L18.9712 11.6304L18.4733 11.4312L5.6776 11.5308V17.7046L21.7594 17.7544V12.2776Z" fill="white"/>
<path d="M16.5319 17.1569C16.612 16.9449 16.6402 16.7167 16.6142 16.4915C16.5883 16.2663 16.5088 16.0506 16.3825 15.8624C16.2528 15.7069 16.0937 15.5784 15.9143 15.4845C15.7348 15.3905 15.5387 15.3328 15.3369 15.3147L6.6737 15.2151C6.62391 15.2151 6.57412 15.1654 6.52433 15.1654C6.51274 15.1567 6.50333 15.1454 6.49685 15.1324C6.49037 15.1195 6.48699 15.1052 6.48699 15.0907C6.48699 15.0762 6.49037 15.0619 6.49685 15.0489C6.50333 15.036 6.51274 15.0247 6.52433 15.016C6.57412 14.9164 6.62391 14.8666 6.72349 14.8666L15.4365 14.767C15.9897 14.7057 16.5165 14.498 16.9628 14.1655C17.4091 13.833 17.7587 13.3876 17.9757 12.8751L18.4736 11.5806C18.4736 11.5308 18.5231 11.481 18.4733 11.4312C18.2026 10.2255 17.5461 9.14117 16.6028 8.34291C15.6596 7.54464 14.4816 7.07611 13.2477 7.0085C12.0139 6.94089 10.7917 7.27791 9.76692 7.96834C8.74211 8.65876 7.97069 9.66486 7.5699 10.8337C7.04959 10.4621 6.41493 10.2858 5.7775 10.3359C5.19252 10.4011 4.64713 10.6633 4.23092 11.0795C3.81471 11.4958 3.55245 12.0412 3.48722 12.6261C3.45407 12.9256 3.47089 13.2284 3.53701 13.5223C2.5905 13.5485 1.69154 13.9429 1.03136 14.6217C0.371181 15.3005 0.00187933 16.21 0.00201138 17.1569C-0.00615925 17.3409 0.010588 17.5251 0.0517994 17.7046C0.0540856 17.7435 0.0705573 17.7801 0.0980888 17.8077C0.12562 17.8352 0.162299 17.8517 0.201167 17.8539H16.1833C16.2829 17.8539 16.3825 17.8042 16.3825 17.7046L16.5319 17.1569Z" fill="#F48120"/>
<path d="M19.2699 11.5805H19.0209C18.9711 11.5805 18.9213 11.6303 18.8716 11.6801L18.523 12.8751C18.4429 13.0871 18.4147 13.3152 18.4407 13.5404C18.4667 13.7656 18.5461 13.9813 18.6724 14.1696C18.8021 14.3251 18.9612 14.4535 19.1406 14.5475C19.3201 14.6415 19.5162 14.6992 19.718 14.7172L21.5601 14.8168C21.6099 14.8168 21.6597 14.8666 21.7095 14.8666C21.7211 14.8753 21.7305 14.8866 21.737 14.8995C21.7435 14.9125 21.7469 14.9268 21.7469 14.9413C21.7469 14.9558 21.7435 14.9701 21.737 14.983C21.7305 14.996 21.7211 15.0073 21.7095 15.016C21.6597 15.1155 21.6099 15.1653 21.5104 15.1653L19.6184 15.2649C19.0652 15.3263 18.5384 15.5339 18.0921 15.8665C17.6458 16.199 17.2962 16.6444 17.0792 17.1569L16.9796 17.605C16.9298 17.6548 16.9796 17.7544 17.0792 17.7544H23.6513C23.6716 17.7572 23.6922 17.7554 23.7117 17.7489C23.7311 17.7424 23.7488 17.7315 23.7633 17.717C23.7778 17.7025 23.7887 17.6848 23.7952 17.6654C23.8017 17.646 23.8035 17.6253 23.8006 17.605C23.9192 17.1831 23.986 16.7485 23.9998 16.3105C23.9919 15.0585 23.491 13.86 22.6057 12.9746C21.7204 12.0893 20.5219 11.5884 19.2699 11.5805Z" fill="#FAAD3F"/>
</svg>
