<svg width="24" height="24" viewBox="0 0 24 24" fill="none" xmlns="http://www.w3.org/2000/svg">
<path fill-rule="evenodd" clip-rule="evenodd" d="M2.09186 16.5395C1.4482 15.1505 1.08895 13.6033 1.08895 11.9728C1.08895 11.5509 1.11297 11.1345 1.15983 10.725C1.20736 10.3112 1.27779 9.90508 1.36973 9.50796C1.88638 7.27996 3.08807 5.31324 4.74038 3.84211C6.12829 2.60808 7.82853 1.72766 9.69231 1.32859C10.4278 1.17147 11.1908 1.08881 11.9729 1.08881C12.2471 1.08909 12.5232 1.09964 12.801 1.12081C14.1183 1.2214 15.363 1.55301 16.4987 2.07289C17.4147 2.4928 18.2627 3.03609 19.021 3.68153C20.926 5.3043 22.2546 7.56487 22.6964 10.1015C22.8019 10.7095 22.8569 11.3348 22.8569 11.9728C22.8567 12.2474 22.8461 12.5239 22.8249 12.8021C22.7446 13.8535 22.5172 14.8587 22.1642 15.7991C21.6717 17.109 20.9337 18.299 20.0064 19.3132C18.8004 20.5446 17.2677 21.0926 15.9877 21.0698C15.0569 21.0532 14.1461 20.6828 13.5168 20.1409C12.6178 19.3667 12.2546 18.4818 12.1302 17.4943C12.0992 17.2488 12.1174 16.5799 12.2451 16.1168C12.3403 15.7715 12.5818 15.1048 12.935 14.8132C12.5219 14.6353 11.9901 14.2478 11.8225 14.0618C11.7813 14.0161 11.7867 13.9445 11.8235 13.8953C11.8604 13.846 11.9252 13.8266 11.9831 13.8474C12.3383 13.9693 12.7708 14.0896 13.2269 14.1659C13.8268 14.2661 14.5729 14.3925 15.3286 14.4296C17.1713 14.5201 19.096 13.693 19.6935 12.0473C20.2908 10.4017 20.0591 8.77404 17.916 7.79766C15.7729 6.82129 14.7829 5.66043 13.0513 4.96024C11.9204 4.50286 10.6615 4.77436 9.36914 5.48862C5.88801 7.41239 2.7692 13.4907 4.20693 19.1221C4.22748 19.1991 4.19279 19.2803 4.12287 19.3186C4.05741 19.3546 3.97681 19.3443 3.92252 19.2946C3.50412 18.8349 3.12454 18.3392 2.78891 17.8129C2.52925 17.4055 2.29617 16.9802 2.09186 16.5395Z" fill="black"/>
<path fill-rule="evenodd" clip-rule="evenodd" d="M12.5293 0.013145C19.1302 0.3202 24.2399 5.92852 23.9328 12.5293C23.6258 19.1302 18.0175 24.2398 11.4167 23.9327C4.81584 23.6257 -0.29391 18.0175 0.013145 11.4167C0.3202 4.81584 5.92852 -0.29391 12.5293 0.013145ZM15.3286 14.4296C14.5729 14.3925 13.8268 14.2661 13.2269 14.1659C12.7708 14.0896 12.3383 13.9693 11.9831 13.8474C11.9252 13.8266 11.8604 13.846 11.8235 13.8953C11.7867 13.9445 11.7813 14.0161 11.8225 14.0618C11.9901 14.2478 12.5219 14.6353 12.935 14.8132C12.5818 15.1048 12.3403 15.7715 12.2451 16.1168C12.1174 16.5799 12.0992 17.2488 12.1302 17.4943C12.2546 18.4818 12.6178 19.3667 13.5168 20.1409C14.1461 20.6828 15.0569 21.0532 15.9877 21.0698C17.2722 21.0926 18.8111 20.541 20.019 19.3005C21.5983 17.5691 22.6328 15.3176 22.8249 12.8021C23.2823 6.81239 18.7908 1.57818 12.801 1.12081C6.8113 0.66345 1.5771 5.15513 1.11973 11.1448C0.882861 14.2468 1.9733 17.1462 3.91196 19.2842C3.96595 19.3429 4.05297 19.357 4.12287 19.3186C4.19279 19.2803 4.22748 19.1991 4.20693 19.1221C2.7692 13.4907 5.88801 7.41239 9.36914 5.48862C10.6615 4.77436 11.9204 4.50286 13.0513 4.96024C14.7829 5.66043 15.7729 6.82129 17.916 7.79766C20.0591 8.77404 20.2908 10.4017 19.6935 12.0473C19.096 13.693 17.1713 14.5201 15.3286 14.4296ZM11.5786 5.71901C10.8763 5.77397 10.4152 6.64328 10.3548 7.20253C10.2941 7.76171 10.5717 8.68466 11.4868 8.66665C12.5585 8.64553 12.8841 7.72815 12.7666 6.8405C12.6783 6.17386 12.1658 5.67299 11.5786 5.71901Z" fill="white"/>
<path fill-rule="evenodd" clip-rule="evenodd" d="M11.5835 5.71567C12.1707 5.66966 12.6829 6.1708 12.7712 6.83726C12.889 7.72509 12.5633 8.64222 11.4918 8.66333C10.5764 8.68155 10.2991 7.75854 10.3598 7.19937C10.42 6.64017 10.881 5.7708 11.5835 5.71567Z" fill="black"/>
</svg>
