<svg width="24" height="24" viewBox="0 0 24 24" fill="none" xmlns="http://www.w3.org/2000/svg">
<path fill-rule="evenodd" clip-rule="evenodd" d="M0.0132671 11.4166C0.320368 4.81581 5.92908 -0.293786 12.5299 0.0132673C19.1303 0.320528 24.24 5.92842 23.9332 12.5289C23.6261 19.1297 18.0174 24.2402 11.4166 23.9332C4.81585 23.626 -0.293785 18.0173 0.0132671 11.4166ZM11.9723 1.08846C11.7165 1.08848 11.4629 1.09833 11.2115 1.11581C11.175 1.11833 11.1385 1.11976 11.1021 1.12264C10.9791 1.13244 10.8568 1.14589 10.7349 1.15975C10.6119 1.17373 10.4896 1.19049 10.3678 1.20858C10.3058 1.21778 10.2439 1.22666 10.1822 1.2369C10.0676 1.25595 9.95385 1.27774 9.84042 1.30038C9.79108 1.3102 9.74108 1.31821 9.69198 1.3287C9.66162 1.3352 9.63143 1.34245 9.60116 1.3492C9.55018 1.36059 9.49954 1.37324 9.44881 1.38534C9.3542 1.4079 9.26029 1.43257 9.16659 1.4576C9.08461 1.47951 9.00272 1.50121 8.92147 1.52499C8.80447 1.5592 8.68827 1.59535 8.57284 1.63338C8.53009 1.64748 8.48743 1.66174 8.44491 1.67635C8.32386 1.71791 8.20374 1.76152 8.08456 1.80721C8.05531 1.81843 8.0258 1.82895 7.99667 1.84042C7.8588 1.89465 7.72267 1.95262 7.58749 2.01229C7.54468 2.03119 7.50208 2.05047 7.45956 2.06991C7.17961 2.19781 6.90535 2.33639 6.63827 2.4869C6.60675 2.50467 6.57585 2.52351 6.54452 2.54159C6.26727 2.70147 5.99748 2.8731 5.73592 3.05624C5.71661 3.06976 5.69753 3.0836 5.67831 3.09725C5.41023 3.28754 5.15065 3.48925 4.90096 3.70272C4.89149 3.71082 4.88209 3.719 4.87264 3.72713C4.82839 3.76523 4.78347 3.8026 4.73983 3.84139C4.67375 3.90023 4.60914 3.96067 4.54452 4.02108C4.52078 4.04324 4.49677 4.06512 4.47323 4.08749C4.36049 4.19476 4.25024 4.30461 4.14217 4.41659C4.11625 4.44342 4.09166 4.47152 4.066 4.49862C3.98275 4.58667 3.90022 4.6754 3.81991 4.7662C3.77141 4.82096 3.72377 4.87646 3.67635 4.93221C3.6304 4.98631 3.58552 5.04128 3.54061 5.09628C3.48624 5.16278 3.4323 5.22962 3.37948 5.29745C3.33499 5.35463 3.29101 5.41221 3.24764 5.4703C3.05394 5.72952 2.87232 5.99821 2.70174 6.27499C2.67285 6.32189 2.64303 6.36824 2.61483 6.41561C2.56764 6.49486 2.52237 6.57527 2.47713 6.65585C2.44356 6.71565 2.41097 6.77601 2.3785 6.83651C2.33502 6.91753 2.29108 6.99837 2.2496 7.08065C2.22928 7.12093 2.21083 7.16215 2.191 7.20272C2.13597 7.31536 2.08209 7.42868 2.03085 7.54354C1.97819 7.66148 1.92607 7.77988 1.87752 7.89999C1.85225 7.9626 1.82941 8.02623 1.80526 8.08944C1.77108 8.1788 1.73752 8.2685 1.70565 8.35897C1.68183 8.42668 1.65883 8.49473 1.63631 8.56307C1.6047 8.65885 1.5745 8.75521 1.54549 8.85213C1.52891 8.90765 1.51239 8.96322 1.49667 9.01913C1.45119 9.18054 1.40783 9.34306 1.36971 9.50741C1.33434 9.6602 1.30296 9.81487 1.27401 9.9703C1.26735 10.006 1.26079 10.0418 1.25448 10.0777C1.22822 10.227 1.20531 10.3774 1.18514 10.5289C1.18077 10.5618 1.17556 10.5946 1.17147 10.6275C1.16748 10.6597 1.16346 10.6919 1.15975 10.7242C1.14594 10.8449 1.13446 10.9666 1.1246 11.0885C1.12306 11.1073 1.12115 11.1263 1.11971 11.1451C1.08649 11.5803 1.0815 12.0114 1.0992 12.4371C1.10121 12.4847 1.10343 12.5322 1.10604 12.5797L1.12362 12.8648C1.12577 12.8913 1.13007 12.9175 1.13241 12.9439C1.14211 13.0535 1.15366 13.1625 1.16659 13.2711C1.17785 13.3655 1.19 13.4596 1.2037 13.5533C1.21885 13.6573 1.23543 13.7608 1.2535 13.8639C1.26308 13.9183 1.2724 13.9727 1.2828 14.0269C1.30807 14.1591 1.33678 14.2901 1.36678 14.4205C1.37882 14.4726 1.39013 14.5249 1.40292 14.5767C1.43702 14.7155 1.47389 14.8532 1.51327 14.9898C1.52308 15.0238 1.53341 15.0576 1.54354 15.0914C1.58536 15.2313 1.6301 15.3699 1.67733 15.5074C1.69124 15.5478 1.70494 15.5883 1.71932 15.6285C1.83009 15.9389 1.95395 16.243 2.09139 16.5396C2.09615 16.5499 2.10125 16.5606 2.10604 16.5709C2.11159 16.5828 2.11803 16.5942 2.12362 16.606C2.19188 16.7506 2.26302 16.8936 2.33749 17.0348C2.34856 17.0558 2.36046 17.0763 2.37167 17.0973C2.44922 17.2419 2.52904 17.3852 2.61288 17.526C2.62715 17.55 2.64237 17.5734 2.65682 17.5973C2.70037 17.6691 2.74351 17.7413 2.78866 17.8121C2.81341 17.8509 2.84058 17.8888 2.86581 17.9273C2.9008 17.9807 2.93634 18.0337 2.97225 18.0865C3.03002 18.1714 3.08893 18.2553 3.14901 18.3385C3.19077 18.3963 3.23211 18.4543 3.27499 18.5113C3.32635 18.5795 3.3793 18.6465 3.43221 18.7135C3.49093 18.7878 3.54933 18.8624 3.60995 18.9351C3.6361 18.9665 3.66353 18.9968 3.69002 19.0279C3.76321 19.1138 3.83589 19.2002 3.9117 19.2838L3.91561 19.2867C3.91794 19.2893 3.92012 19.292 3.92245 19.2945C3.92755 19.2992 3.93449 19.3023 3.94002 19.3062C3.94778 19.3118 3.95503 19.3177 3.96346 19.3219C3.97245 19.3262 3.98224 19.3279 3.99178 19.3307C3.99967 19.333 4.0071 19.3363 4.01522 19.3375C4.02528 19.3389 4.0353 19.3378 4.04549 19.3375C4.05368 19.3372 4.06178 19.338 4.06991 19.3365C4.07497 19.3356 4.07955 19.333 4.08456 19.3316C4.09738 19.3281 4.11058 19.3255 4.12264 19.3189C4.19246 19.2806 4.22704 19.1996 4.20663 19.1226C3.80225 17.5387 3.75878 15.919 3.98202 14.3668C4.0316 14.0219 4.09459 13.6805 4.16952 13.3433C4.95656 9.80291 7.08522 6.75132 9.36971 5.48885C10.2578 4.99809 11.1299 4.71572 11.9557 4.73592C12.1177 4.73991 12.2778 4.7568 12.4361 4.78475C12.6449 4.82159 12.8502 4.87918 13.0514 4.96053C14.7828 5.66064 15.7729 6.8211 17.9156 7.79745C18.3175 7.98057 18.6527 8.18693 18.9273 8.41171C19.1562 8.59903 19.3432 8.79941 19.4928 9.01034C19.5525 9.09458 19.6059 9.18068 19.6539 9.26815C19.7018 9.35556 19.7441 9.44443 19.7808 9.53475C19.9098 9.85171 19.9714 10.1856 19.9771 10.5299C19.9834 10.9069 19.9221 11.296 19.8092 11.689C19.7749 11.8082 19.7364 11.9278 19.693 12.0474C19.5996 12.3044 19.4746 12.5417 19.3219 12.7584L19.2262 12.8863C19.1608 12.9697 19.0914 13.0497 19.0182 13.1265C18.6746 13.4868 18.2464 13.7719 17.7711 13.9849C17.3332 14.1812 16.8558 14.3169 16.3639 14.3844C16.0221 14.4312 15.6739 14.4462 15.3287 14.4293C14.573 14.3921 13.827 14.2659 13.2271 14.1656C12.7711 14.0893 12.3381 13.9692 11.983 13.8473C11.9686 13.8421 11.9537 13.8398 11.939 13.8394C11.9194 13.839 11.9004 13.8437 11.8824 13.8512C11.8598 13.8606 11.8382 13.8746 11.8228 13.8951C11.7864 13.9441 11.7816 14.0154 11.8219 14.0611C11.861 14.1046 11.9209 14.159 11.9937 14.2193C11.999 14.2237 12.0039 14.2286 12.0094 14.233C12.2488 14.4287 12.6247 14.6796 12.9342 14.8131C12.7577 14.9589 12.6091 15.1987 12.4928 15.4449C12.3764 15.6911 12.2923 15.9442 12.2447 16.1168C12.1968 16.2906 12.1644 16.4935 12.1441 16.692C12.1238 16.8902 12.1158 17.0842 12.1168 17.2408C12.1174 17.3448 12.1218 17.4324 12.1295 17.4937C12.1951 18.0147 12.3287 18.5076 12.5709 18.9703C12.597 19.0201 12.6242 19.0696 12.6529 19.1187C12.7336 19.2569 12.8244 19.3924 12.9273 19.525C13.0515 19.685 13.1927 19.8409 13.3531 19.9928C13.4057 20.0426 13.4604 20.0923 13.5172 20.1412C13.9733 20.5339 14.5778 20.834 15.2301 20.9771C15.3154 20.9958 15.4012 21.0129 15.4879 21.026C15.6529 21.0509 15.82 21.0669 15.9879 21.0699C16.2775 21.0751 16.5795 21.0483 16.8883 20.9937C16.9625 20.9806 17.0371 20.9664 17.1119 20.9498C17.6977 20.8194 18.2989 20.5796 18.8726 20.2223C19.0176 20.132 19.1617 20.0357 19.3023 19.9303C19.3409 19.9013 19.3784 19.8705 19.4166 19.8404C19.4593 19.8067 19.5023 19.773 19.5445 19.7379C19.5832 19.7057 19.6206 19.6717 19.6588 19.6383C19.6994 19.6027 19.7408 19.5678 19.7808 19.5308C19.8613 19.4566 19.9413 19.3803 20.0191 19.3004C20.3568 18.9302 20.6678 18.535 20.9527 18.1197C20.9612 18.1074 20.9697 18.095 20.9781 18.0826C21.3581 17.524 21.6889 16.9282 21.9615 16.2994C21.9767 16.2643 21.9896 16.2282 22.0045 16.193C22.0549 16.0732 22.1038 15.9526 22.15 15.8307C22.1541 15.8198 22.1596 15.8093 22.1637 15.7984C22.1792 15.7571 22.1926 15.715 22.2076 15.6734C22.2351 15.5974 22.2638 15.5217 22.2896 15.4449C22.3176 15.3618 22.3437 15.278 22.3697 15.1939C22.4021 15.0892 22.4322 14.9836 22.4615 14.8775C22.4796 14.8119 22.4983 14.7464 22.5152 14.6803C22.5288 14.6271 22.5415 14.5736 22.5543 14.5201C22.5747 14.4349 22.5944 14.3493 22.6129 14.2633C22.6295 14.1858 22.6448 14.108 22.6598 14.0299C22.672 13.9659 22.6838 13.9018 22.6949 13.8375C22.705 13.779 22.715 13.7205 22.7242 13.6617C22.7684 13.3788 22.8026 13.0917 22.8248 12.8014C22.8376 12.6328 22.8463 12.4648 22.8512 12.2974C22.8533 12.2283 22.8533 12.1593 22.8541 12.0904C22.8545 12.0511 22.856 12.0115 22.856 11.9723C22.856 11.9344 22.8545 11.8967 22.8541 11.859C22.8531 11.7607 22.8508 11.6627 22.8473 11.565C22.8443 11.4853 22.8392 11.406 22.8346 11.3267C22.8297 11.2432 22.8257 11.1598 22.8189 11.0767C22.8087 10.9514 22.7962 10.8268 22.7818 10.7027C22.7771 10.662 22.7734 10.6212 22.7682 10.5807C22.7476 10.4199 22.7234 10.2597 22.6959 10.1012C22.6954 10.0982 22.6944 10.0953 22.6939 10.0924C22.6799 10.0125 22.6628 9.93339 22.6471 9.85409C22.63 9.7679 22.6135 9.68177 22.5943 9.59628C22.5771 9.51935 22.5575 9.44313 22.5387 9.36678C22.5156 9.27335 22.4929 9.18001 22.4674 9.08749C22.4465 9.01182 22.4234 8.93694 22.401 8.8619C22.3766 8.7806 22.3529 8.69927 22.3267 8.61874C22.2995 8.53493 22.271 8.45169 22.2418 8.36874C22.2154 8.29376 22.1877 8.21935 22.1598 8.1451C22.1277 8.06005 22.0953 7.97527 22.0611 7.8912C22.0329 7.82179 22.0038 7.75288 21.9742 7.68417C21.937 7.59774 21.8993 7.51166 21.8599 7.42635C21.8247 7.34988 21.7876 7.27435 21.7506 7.19881C21.7186 7.13353 21.6871 7.06807 21.6539 7.0035C21.6189 6.93549 21.5819 6.86856 21.5455 6.80135C21.3728 6.48273 21.1848 6.17362 20.982 5.8746C20.9529 5.83169 20.9248 5.78816 20.8951 5.74569C20.8538 5.68665 20.8106 5.62908 20.7682 5.57088C20.7082 5.48868 20.6487 5.40625 20.5865 5.32577C20.5514 5.28029 20.5149 5.23591 20.4791 5.191C20.4146 5.11015 20.3496 5.02976 20.2828 4.95077C20.2253 4.88274 20.1662 4.8162 20.107 4.7496C20.0628 4.69977 20.0184 4.65017 19.9732 4.60116C19.9135 4.53627 19.8529 4.47221 19.7916 4.40878C19.7292 4.34422 19.6661 4.28039 19.6021 4.21737C19.5454 4.16147 19.4882 4.10602 19.4303 4.05135C19.377 4.00109 19.3225 3.95212 19.2682 3.90292C19.1986 3.83994 19.1294 3.77662 19.0582 3.71542C19.0454 3.70443 19.0329 3.69216 19.0201 3.68124C18.9255 3.60076 18.8293 3.52217 18.732 3.44491C18.706 3.42426 18.6791 3.40478 18.6529 3.38436C18.5635 3.31466 18.4731 3.24622 18.3814 3.17928C18.3293 3.14118 18.2771 3.1032 18.2242 3.066C18.1334 3.00212 18.0416 2.93965 17.9488 2.8785C17.9139 2.85551 17.8795 2.83177 17.8443 2.80917C17.7141 2.72552 17.5817 2.64515 17.4478 2.56698C17.4159 2.54832 17.3833 2.53063 17.3512 2.51229C17.2528 2.45618 17.1536 2.40133 17.0533 2.34823C16.9985 2.31924 16.9436 2.29037 16.8883 2.26229C16.7598 2.19708 16.6299 2.13304 16.4986 2.07284C16.4941 2.07077 16.4895 2.06904 16.4849 2.06698C16.4595 2.05537 16.4334 2.0452 16.4078 2.03378C16.2871 1.97986 16.1656 1.92715 16.0426 1.87753C15.9638 1.84577 15.884 1.81667 15.8043 1.7867C15.7242 1.75659 15.6441 1.72612 15.5631 1.69784C15.4893 1.67208 15.4149 1.64783 15.3404 1.62362C15.2504 1.59437 15.16 1.56562 15.0689 1.53866C14.9974 1.51748 14.9253 1.49786 14.8531 1.47811C14.7573 1.45189 14.661 1.42659 14.564 1.40292C14.4937 1.38573 14.4231 1.36893 14.3521 1.35311C14.2566 1.33181 14.1605 1.31234 14.064 1.29354C13.989 1.27893 13.914 1.26365 13.8385 1.25057C13.7365 1.23294 13.6338 1.21851 13.5308 1.2037C13.4594 1.19342 13.388 1.18135 13.316 1.17245C13.1551 1.15254 12.9929 1.13651 12.8297 1.12362C12.8202 1.12287 12.8108 1.12141 12.8014 1.12069C12.7981 1.12044 12.7948 1.11995 12.7916 1.11971C12.6283 1.10741 12.4654 1.1004 12.3033 1.0953C12.2541 1.09377 12.2049 1.09324 12.1558 1.09237C12.0947 1.09127 12.0332 1.08852 11.9723 1.08846ZM11.5836 5.71542C11.4502 5.72594 11.3255 5.76619 11.2105 5.82772C10.7176 6.08818 10.4042 6.74816 10.3551 7.20272C10.2945 7.76191 10.5719 8.68459 11.4869 8.66659C11.8585 8.65927 12.1395 8.54321 12.3443 8.35897C12.7338 8.01246 12.8483 7.4187 12.7711 6.83651C12.6825 6.17063 12.1703 5.66972 11.5836 5.71542Z" fill="black"/>
</svg>
