<svg width="96" height="96" viewBox="0 0 96 96" fill="none" xmlns="http://www.w3.org/2000/svg">
<path fill-rule="evenodd" clip-rule="evenodd" d="M15.3674 40C17.1028 40.3006 18.7642 40.8284 20.3167 41.5547C23.031 45.6082 24.3808 50.1802 23.8831 55.4531C21.8061 57.0061 19.7896 57.9499 17.8088 58.5664C17.3187 57.8944 16.8872 57.1767 16.512 56.4258C17.2261 56.1543 17.9105 55.8164 18.5588 55.4258C18.3898 55.2991 18.2222 55.1674 18.0588 55.0312C14.16 56.8767 9.87199 56.8766 5.92603 55.0312C5.76391 55.168 5.59366 55.2987 5.42212 55.4258C6.06858 55.8146 6.75472 56.1503 7.469 56.4219C7.09388 57.1747 6.66028 57.8905 6.17212 58.5625C4.1933 57.946 2.17873 57.0041 0.101808 55.4531C-0.322396 50.9047 0.525683 46.29 3.6565 41.5586C5.20889 40.8304 6.87238 40.3006 8.60962 40C8.82467 40.3853 9.0786 40.9041 9.25025 41.3164C11.0611 41.039 12.8899 41.039 14.7346 41.3164C14.9062 40.9043 15.1544 40.3853 15.3674 40ZM8.00806 47.75C6.80295 47.7501 5.85213 48.8567 5.85181 50.2031C5.85181 51.5498 6.82348 52.6562 8.00806 52.6562C9.21348 52.6562 10.1662 51.5499 10.1643 50.2031C10.1847 48.8547 9.21328 47.75 8.00806 47.75ZM15.9768 47.75C14.7716 47.75 13.8209 48.8567 13.8206 50.2031C13.8206 51.5499 14.7922 52.6562 15.9768 52.6562C17.182 52.656 18.1331 51.5497 18.1331 50.2031C18.1535 48.8549 17.1818 47.7503 15.9768 47.75Z" fill="#5865F2"/>
<path d="M53.0432 45.9375C53.7816 45.9376 54.458 46.0181 55.0745 46.1797C55.6909 46.3414 56.2001 46.5486 56.6057 46.8008V48.918C56.1907 48.6658 55.7149 48.4666 55.1721 48.3164C54.631 48.1683 54.0735 48.0938 53.5002 48.0938C52.6732 48.0939 52.262 48.2405 52.262 48.5273C52.2622 48.6618 52.3255 48.7608 52.4534 48.8281C52.5816 48.8956 52.8188 48.9658 53.1604 49.0391L54.4807 49.2812C55.3417 49.4334 55.9843 49.7012 56.4065 50.082C56.8293 50.4635 57.0393 51.0298 57.0393 51.7773C57.0392 52.5958 56.692 53.245 55.9924 53.7266C55.2925 54.2082 54.2984 54.4492 53.012 54.4492C52.2561 54.4472 51.5213 54.3527 50.8088 54.1641C50.0957 53.9753 49.4505 53.7001 48.8792 53.3398V51.1016C49.3111 51.4425 49.8914 51.7238 50.6174 51.9453C51.3431 52.1648 52.0445 52.2772 52.7229 52.2773C53.039 52.2773 53.2796 52.2328 53.4417 52.1484C53.6041 52.0637 53.6877 51.9613 53.6877 51.8438C53.6876 51.7093 53.6433 51.5982 53.5549 51.5078C53.4662 51.4173 53.2938 51.3409 53.0393 51.2773L51.4534 50.9141C50.5475 50.6985 49.9062 50.3984 49.5237 50.0156C49.1407 49.6341 48.9495 49.1321 48.9495 48.5117C48.9497 47.9907 49.1144 47.539 49.4495 47.1523C49.7831 46.7652 50.2587 46.4639 50.8752 46.2539C51.4923 46.042 52.215 45.9375 53.0432 45.9375Z" fill="#5865F2"/>
<path d="M62.9573 45.9375C64.2774 45.9375 65.3748 46.2228 66.2463 46.7891V49.2578C65.939 49.0421 65.5813 48.8653 65.1721 48.7305C64.7628 48.5956 64.3235 48.5273 63.8557 48.5273C63.0378 48.5275 62.3997 48.6821 61.9377 48.9883C61.4755 49.2946 61.2424 49.6923 61.2424 50.1875C61.2425 50.6727 61.4658 51.0708 61.9143 51.3828C62.3634 51.693 63.0169 51.8477 63.8713 51.8477C64.3105 51.8475 64.7444 51.7813 65.1721 51.6523C65.5983 51.5214 65.9664 51.3606 66.2737 51.1719V53.5625C65.3063 54.1557 64.1834 54.4492 62.9065 54.4492C61.8314 54.4454 60.913 54.2565 60.1565 53.8789C59.4015 53.5015 58.8302 52.9903 58.4495 52.3438C58.0687 51.6968 57.8755 50.9687 57.8752 50.1602C57.8752 49.3514 58.0733 48.6257 58.469 47.9883C58.8649 47.3509 59.4458 46.8485 60.2112 46.4844C60.9764 46.1205 61.8922 45.9377 62.9573 45.9375Z" fill="#5865F2"/>
<path fill-rule="evenodd" clip-rule="evenodd" d="M72.2424 45.9336C73.2892 45.9337 74.1932 46.1125 74.9495 46.4727C75.7059 46.8329 76.2838 47.3271 76.6799 47.957C77.076 48.5869 77.2736 49.3103 77.2737 50.1289C77.2737 50.938 77.076 51.6712 76.6799 52.3281C76.2838 52.985 75.7036 53.5013 74.9417 53.8789C74.1796 54.2566 73.2778 54.4453 72.2385 54.4453C71.1996 54.4451 70.299 54.2563 69.5393 53.8789C68.7781 53.5014 68.1969 52.9846 67.7971 52.3281C67.3981 51.6718 67.1958 50.9409 67.1956 50.1328C67.1956 49.3236 67.3954 48.5987 67.7971 47.9648C68.1989 47.3312 68.7772 46.8328 69.5354 46.4727C70.2913 46.1127 71.1961 45.9336 72.2424 45.9336ZM72.2385 48.4219C71.6752 48.4222 71.2326 48.579 70.9104 48.8984C70.5899 49.2183 70.4299 49.648 70.4299 50.1875C70.43 50.7266 70.5902 51.1609 70.9104 51.4883C71.231 51.8155 71.6751 51.9802 72.2385 51.9805C72.7922 51.9785 73.2306 51.8151 73.551 51.4883C73.8719 51.1608 74.0354 50.7269 74.0354 50.1875C74.0354 49.648 73.8735 49.2164 73.551 48.8984C73.2306 48.5798 72.7918 48.4219 72.2385 48.4219Z" fill="#5865F2"/>
<path fill-rule="evenodd" clip-rule="evenodd" d="M95.9573 54.1758H92.719V52.4102C92.4455 53.0748 92.0311 53.5829 91.4729 53.9297C90.9146 54.2741 90.2245 54.4453 89.4065 54.4453C88.6751 54.4453 88.0376 54.2661 87.4924 53.9023C86.9478 53.5385 86.5269 53.0394 86.2307 52.4062C85.9366 51.7727 85.7855 51.0549 85.7854 50.2539C85.7762 49.4276 85.9319 48.6842 86.2542 48.0273C86.575 47.3703 87.0326 46.8563 87.6174 46.4883C88.2019 46.121 88.8693 45.9375 89.6174 45.9375C91.1587 45.9375 92.191 46.6223 92.719 47.9883V44.4688H95.9573V54.1758ZM90.9377 48.4609C90.3927 48.461 89.9556 48.6216 89.6292 48.9414C89.3035 49.2611 89.1409 49.6756 89.1409 50.1875C89.1409 50.6995 89.3033 51.1179 89.6292 51.4414C89.9556 51.7651 90.3885 51.9258 90.926 51.9258C91.4705 51.9236 91.9084 51.7608 92.2385 51.4336C92.5683 51.1061 92.7307 50.6801 92.7307 50.1602C92.7307 49.6573 92.5708 49.2476 92.2502 48.9336C91.9294 48.6196 91.4904 48.4609 90.9377 48.4609Z" fill="#5865F2"/>
<path d="M47.4377 54.2188H44.2112V48.1484C45.1993 48.5834 46.4272 48.6029 47.4377 48.1484V54.2188Z" fill="#5865F2"/>
<path fill-rule="evenodd" clip-rule="evenodd" d="M37.3792 44.7383C38.6206 44.7383 39.6711 44.9331 40.5315 45.3281C41.389 45.723 42.031 46.2758 42.4573 46.9805C42.8833 47.6855 43.0978 48.4931 43.0979 49.4023C43.0979 50.2925 42.8751 51.1017 42.4299 51.8242C41.9848 52.5478 41.3089 53.1213 40.3987 53.543C39.4877 53.9649 38.3567 54.1758 37.0081 54.1758H32.2307V44.7383H37.3792ZM35.5315 51.7773H36.9573C37.7923 51.7773 38.4344 51.5619 38.8831 51.1367C39.3319 50.7092 39.5586 50.1279 39.5588 49.3906C39.5588 48.7066 39.3571 48.1585 38.9573 47.75C38.5577 47.3426 37.9527 47.1369 37.1448 47.1367H35.5315V51.7773Z" fill="#5865F2"/>
<path d="M84.0042 46.1133C84.47 46.1133 84.8716 46.2217 85.2073 46.4375V49.3477C84.8717 49.1225 84.4359 49.0117 83.8987 49.0117C83.1954 49.012 82.6509 49.2289 82.2737 49.6641C81.8949 50.0994 81.7073 50.7787 81.7073 51.6953V54.1758H78.4729V46.2891H81.6409V48.7969C81.8161 47.8797 82.1041 47.203 82.4963 46.7656C82.8865 46.3311 83.39 46.1136 84.0042 46.1133Z" fill="#5865F2"/>
<path d="M45.8245 44.168C46.7151 44.168 47.4377 44.8312 47.4377 45.6484C47.4373 46.4653 46.7148 47.1289 45.8245 47.1289C44.934 47.1287 44.2116 46.4652 44.2112 45.6484C44.2112 44.8313 44.9337 44.1682 45.8245 44.168Z" fill="#5865F2"/>
</svg>
