<svg width="96" height="96" viewBox="0 0 96 96" fill="none" xmlns="http://www.w3.org/2000/svg">
<path d="M20.3164 41.5549C18.7639 40.8285 17.1039 40.3006 15.3684 40C15.1553 40.3853 14.9063 40.9036 14.7346 41.316C12.8897 41.0385 11.0618 41.0385 9.25085 41.316C9.0792 40.9036 8.82454 40.3853 8.60949 40C6.87212 40.3006 5.2102 40.8304 3.6577 41.5587C0.526284 46.2907 -0.322591 50.9051 0.101847 55.4541C2.17877 57.0051 4.19155 57.9472 6.17037 58.5638C6.65895 57.8913 7.0947 57.1765 7.47008 56.4232C6.75515 56.1515 6.07039 55.8163 5.42338 55.4271C5.59502 55.2999 5.76293 55.167 5.92514 55.0302C9.87146 56.876 14.1592 56.876 18.0584 55.0302C18.2225 55.167 18.3904 55.2999 18.5602 55.4271C17.9113 55.8182 17.2246 56.1534 16.5097 56.4251C16.8851 57.1765 17.319 57.8933 17.8094 58.5657C19.7901 57.9491 21.8048 57.007 23.8817 55.4541C24.3797 50.1807 23.031 45.6086 20.3164 41.5549ZM8.00772 52.6565C6.82307 52.6565 5.85156 51.5506 5.85156 50.2038C5.85156 48.8571 6.80232 47.7492 8.00772 47.7492C9.21314 47.7492 10.1846 48.8551 10.1639 50.2038C10.1657 51.5506 9.21314 52.6565 8.00772 52.6565ZM15.9758 52.6565C14.7912 52.6565 13.8197 51.5506 13.8197 50.2038C13.8197 48.8571 14.7704 47.7492 15.9758 47.7492C17.1812 47.7492 18.1527 48.8551 18.132 50.2038C18.132 51.5506 17.1812 52.6565 15.9758 52.6565Z" fill="black"/>
<path d="M32.2288 44.7364H37.3785C38.6199 44.7364 39.6687 44.9349 40.5291 45.3298C41.3872 45.7248 42.0306 46.2758 42.457 46.981C42.8831 47.6862 43.0981 48.4935 43.0981 49.4029C43.0981 50.293 42.8755 51.1003 42.4304 51.8228C41.9852 52.5472 41.3079 53.1195 40.3969 53.5414C39.4859 53.9634 38.3576 54.1753 37.009 54.1753H32.2288V44.7364ZM36.9561 51.7766C37.7918 51.7766 38.4352 51.5627 38.8839 51.1369C39.333 50.7092 39.5576 50.1273 39.5576 49.3894C39.5576 48.7054 39.3574 48.1601 38.9576 47.7517C38.5578 47.3432 37.9522 47.1371 37.1428 47.1371H35.5318V51.7766H36.9561Z" fill="black"/>
<path d="M50.808 54.1638C50.0949 53.975 49.4515 53.7014 48.8801 53.3411V51.1023C49.3121 51.4433 49.8911 51.7246 50.6173 51.9462C51.3436 52.1658 52.0455 52.2756 52.7244 52.2756C53.0413 52.2756 53.281 52.2332 53.4431 52.1484C53.6055 52.0637 53.6867 51.9616 53.6867 51.844C53.6867 51.7092 53.6433 51.5974 53.5545 51.5069C53.4658 51.4163 53.2941 51.3412 53.0397 51.2776L51.455 50.9134C50.5476 50.6977 49.9042 50.399 49.5215 50.0156C49.1385 49.6341 48.9478 49.1332 48.9478 48.5128C48.9478 47.9906 49.1139 47.5379 49.4499 47.1506C49.7836 46.7633 50.259 46.4647 50.8757 46.2547C51.4928 46.0428 52.2132 45.9368 53.0413 45.9368C53.7807 45.9368 54.458 46.0177 55.0751 46.1796C55.6918 46.3414 56.2011 46.5475 56.6068 46.7999V48.9174C56.1916 48.665 55.7162 48.4666 55.173 48.3162C54.6316 48.1679 54.0753 48.0947 53.5016 48.0947C52.6734 48.0947 52.2605 48.2392 52.2605 48.5263C52.2605 48.6612 52.3246 48.7613 52.4528 48.8288C52.581 48.8962 52.8168 48.9656 53.1584 49.0388L54.4787 49.2815C55.341 49.4338 55.9841 49.7016 56.4066 50.083C56.8294 50.4645 57.0404 51.0291 57.0404 51.7766C57.0404 52.5954 56.6916 53.2448 55.9917 53.7264C55.2917 54.2081 54.2995 54.4489 53.013 54.4489C52.2565 54.447 51.5211 54.3526 50.808 54.1638Z" fill="black"/>
<path d="M60.1572 53.8805C59.401 53.5028 58.8293 52.9903 58.4482 52.3429C58.0672 51.6956 57.8749 50.9673 57.8749 50.1581C57.8749 49.3489 58.0728 48.6244 58.4689 47.9867C58.8651 47.3489 59.446 46.848 60.2121 46.4839C60.9778 46.1197 61.8927 45.9386 62.9586 45.9386C64.2789 45.9386 65.375 46.2218 66.2466 46.7883V49.2564C65.9392 49.0406 65.5805 48.8652 65.1712 48.7304C64.7619 48.5955 64.3243 48.5281 63.8564 48.5281C63.0378 48.5281 62.3984 48.6803 61.9361 48.9866C61.4739 49.293 61.2421 49.6918 61.2421 50.187C61.2421 50.6725 61.4663 51.0694 61.9154 51.3815C62.3645 51.6917 63.0151 51.8478 63.8696 51.8478C64.3092 51.8478 64.7431 51.7823 65.1712 51.6532C65.5976 51.5222 65.9655 51.3623 66.2729 51.1734V53.5606C65.3053 54.154 64.1829 54.4507 62.9056 54.4507C61.8306 54.4469 60.9136 54.2581 60.1572 53.8805Z" fill="black"/>
<path d="M69.5402 53.8805C68.7781 53.5029 68.1972 52.9865 67.797 52.3295C67.3973 51.6725 67.1954 50.9404 67.1954 50.1312C67.1954 49.322 67.3953 48.5994 67.797 47.9656C68.1988 47.3317 68.7761 46.8346 69.5346 46.4743C70.2907 46.114 71.1945 45.9348 72.2413 45.9348C73.2884 45.9348 74.1919 46.114 74.9484 46.4743C75.7049 46.8346 76.2822 47.3278 76.6784 47.9579C77.0745 48.5879 77.2724 49.3104 77.2724 50.1293C77.2724 50.9385 77.0745 51.6706 76.6784 52.3276C76.2822 52.9846 75.7029 53.501 74.9408 53.8786C74.1787 54.2562 73.2789 54.4451 72.2397 54.4451C71.2001 54.4451 70.3003 54.2582 69.5402 53.8805ZM73.5524 51.4876C73.8733 51.1601 74.0354 50.7265 74.0354 50.1871C74.0354 49.6476 73.875 49.2179 73.5524 48.9C73.2319 48.5802 72.794 48.4203 72.2397 48.4203C71.6755 48.4203 71.234 48.5802 70.9115 48.9C70.5909 49.2199 70.4305 49.6476 70.4305 50.1871C70.4305 50.7265 70.5909 51.1601 70.9115 51.4876C71.2323 51.8151 71.6755 51.9808 72.2397 51.9808C72.794 51.9789 73.2319 51.8151 73.5524 51.4876Z" fill="black"/>
<path d="M85.2066 46.4358V49.3489C84.8709 49.1235 84.4369 49.0117 83.8994 49.0117C83.1955 49.0117 82.6524 49.2295 82.275 49.6649C81.8959 50.1004 81.7072 50.7785 81.7072 51.6956V54.1772H78.4721V46.2874H81.6414V48.796C81.8167 47.8789 82.1017 47.2026 82.4939 46.7652C82.8845 46.3298 83.3898 46.1121 84.0049 46.1121C84.4708 46.1121 84.8709 46.22 85.2066 46.4358Z" fill="black"/>
<path d="M95.9553 44.4667V54.1773H92.7199V52.4105C92.4464 53.0752 92.0314 53.5819 91.4732 53.9287C90.9146 54.2736 90.2242 54.447 89.4056 54.447C88.6737 54.447 88.0363 54.2659 87.4908 53.9017C86.9457 53.5376 86.5253 53.0386 86.229 52.4047C85.9348 51.7708 85.7855 51.0541 85.7855 50.2526C85.7763 49.426 85.9328 48.6842 86.2553 48.0272C86.5762 47.3702 87.0306 46.8577 87.6154 46.4897C88.2003 46.1217 88.868 45.9368 89.617 45.9368C91.1582 45.9368 92.1919 46.6207 92.7199 47.9868V44.4667H95.9553ZM92.2373 51.4337C92.5673 51.1061 92.7314 50.6803 92.7314 50.1601C92.7314 49.6572 92.571 49.2468 92.2504 48.9328C91.9295 48.6188 91.49 48.4607 90.9373 48.4607C90.3922 48.4607 89.9566 48.6207 89.6301 48.9405C89.3037 49.2603 89.1416 49.6746 89.1416 50.1871C89.1416 50.6996 89.3037 51.1177 89.6301 51.4414C89.9566 51.765 90.3866 51.9269 90.9242 51.9269C91.4693 51.925 91.9068 51.7612 92.2373 51.4337Z" fill="black"/>
<path d="M45.8242 47.1274C46.7148 47.1274 47.4371 46.4649 47.4371 45.6477C47.4371 44.8304 46.7148 44.168 45.8242 44.168C44.9332 44.168 44.2113 44.8304 44.2113 45.6477C44.2113 46.4649 44.9332 47.1274 45.8242 47.1274Z" fill="black"/>
<path d="M44.21 48.1467C45.1983 48.5821 46.4246 48.6013 47.4355 48.1467V54.2196H44.21V48.1467Z" fill="black"/>
</svg>
