<svg width="24" height="24" viewBox="0 0 24 24" fill="none" xmlns="http://www.w3.org/2000/svg">
<path d="M23.6095 10.7472C23.021 10.3528 21.475 10.1845 20.3512 10.486C20.2909 9.37162 19.7132 8.43243 18.6571 7.61289L18.2665 7.35182L18.0059 7.74368C17.4937 8.51728 17.2779 9.54853 17.3542 10.486C17.4145 11.0637 17.6161 11.7127 18.0059 12.1837C16.543 13.0285 15.1943 12.8366 9.22233 12.8366H0.00204046C-0.0247177 14.1792 0.191902 16.7611 1.84139 18.863C2.02376 19.0954 2.22326 19.3198 2.44022 19.5361C3.78139 20.873 5.8077 21.8533 8.83767 21.8559C13.4603 21.8602 17.4205 19.3728 19.8299 13.3593C20.6226 13.372 22.7152 13.5007 23.7394 11.5308C23.7645 11.4977 24 11.0087 24 11.0087L23.6095 10.7476V10.7472ZM6.01941 9.51973H3.42673V12.1006H6.01941V9.51973ZM9.36872 9.51973H6.77604V12.1006H9.36872V9.51973ZM12.7184 9.51973H10.1257V12.1006H12.7184V9.51973ZM16.068 9.51973H13.4754V12.1006H16.068V9.51973ZM2.66975 9.51973H0.0769843V12.1006H2.66975V9.51973ZM6.01941 6.26007H3.42673V8.84092H6.01941V6.26007ZM9.36872 6.26007H6.77604V8.84092H9.36872V6.26007ZM12.7184 6.26007H10.1257V8.84092H12.7184V6.26007ZM12.7184 3.00006H10.1257V5.58091H12.7184V3.00006Z" fill="black"/>
</svg>
