<svg width="97" height="96" viewBox="0 0 97 96" fill="none" xmlns="http://www.w3.org/2000/svg">
<path d="M10.3971 37.1836C16.203 36.9553 20.1355 40.9305 20.3189 46.9648C20.5476 53.6402 16.2018 61.7783 7.37754 62.2812C4.68036 62.4182 1.9819 61.8729 0.24473 60.8672C0.0166814 60.7753 -0.0719699 60.4549 0.0650424 60.2266L0.842386 58.625C0.979812 58.3514 1.29763 58.2614 1.52598 58.3984C2.02882 58.7183 2.62436 58.9472 3.26426 59.1758C3.49255 59.2663 3.76655 59.0823 3.85801 58.8086C5.04678 54.0078 6.41995 48.8851 7.7916 44.1758C7.88327 43.9482 8.0662 43.8125 8.24864 43.8125L9.98301 43.6758C10.3482 43.6301 10.5772 43.9928 10.4869 44.3125C9.06959 49.1131 7.69909 54.2814 6.51035 59.082C6.41891 59.4021 6.64733 59.7227 6.96739 59.7227H7.65489C13.8263 59.3558 17.6647 52.8162 17.4361 47.1016C17.2983 42.2109 14.374 39.6495 10.3971 39.832C8.24894 39.9234 6.05457 40.7933 4.40879 42.1641C4.18018 42.3469 3.81158 42.3017 3.67442 42.0273L2.76035 40.5664C2.62329 40.338 2.71447 40.0162 2.89707 39.8789C5.04599 38.2329 7.88238 37.275 10.3971 37.1836Z" fill="black"/>
<path fill-rule="evenodd" clip-rule="evenodd" d="M84.5572 35.0781C84.8771 35.0782 85.1523 35.3989 85.0611 35.7188C83.5067 40.8393 82.2704 45.2739 81.5846 47.9258C80.6701 51.4921 80.6267 52.5446 81.6783 52.4531C82.5469 52.4059 83.7341 51.1702 84.8307 49.2969C84.876 49.2059 84.8788 49.1615 84.9244 49.0703C85.0616 45.3211 87.3937 41.8899 90.8229 41.707C93.1076 41.571 94.3876 43.3089 94.4791 45C94.662 48.2459 91.416 50.3503 88.3072 50.168C87.9416 50.1223 87.6676 50.5315 87.8502 50.8516C88.3074 51.766 89.2214 52.3141 90.776 52.2227C91.919 52.4051 93.5191 51.0804 94.4791 49.9375C94.6622 49.7095 95.0269 49.7103 95.2096 49.9844L95.8971 50.9453C96.0333 51.1282 96.0339 51.4035 95.8971 51.5859C94.6625 53.186 92.5576 54.6949 89.9518 54.832C87.9402 54.969 86.2489 54.1895 85.3346 52.7266C85.1519 52.453 84.7405 52.4069 84.5572 52.6797C83.4599 54.1428 82.1789 55.2863 80.8072 55.332C78.3844 55.4689 77.6973 53.8238 78.2916 50.2578C78.3372 49.8921 78.0178 49.6195 77.6979 49.7109C77.1958 49.8477 76.6478 49.8931 76.1002 49.8477C75.8716 49.8477 75.642 49.9851 75.5963 50.168C74.6817 53.1395 72.5764 55.8824 69.7877 56.0195C68.0046 56.1104 65.399 55.1027 65.6275 50.8516C65.627 50.4864 65.3535 50.2602 65.0338 50.3516C64.4853 50.5343 63.8897 50.577 63.2955 50.5312C63.0674 50.5316 62.8376 50.6692 62.7916 50.8516C61.8772 53.8234 59.7759 56.5659 56.9869 56.7031C55.2039 56.7946 52.5984 55.7907 52.8268 51.5391C52.8268 51.1737 52.5525 50.9446 52.233 51.0352C51.6845 51.218 51.089 51.2644 50.4947 51.2188C50.2661 51.2188 50.0365 51.3562 49.9908 51.5391C49.0764 54.5102 46.9742 57.2527 44.1861 57.3906C42.9063 57.482 41.2137 56.9797 40.4361 55.1523C40.299 54.7866 39.8405 54.7385 39.6119 55.0586C38.515 56.5669 37.1901 57.7087 35.8189 57.8008C34.4016 57.8922 33.6222 57.2988 33.2564 56.293C33.1193 55.9285 32.7103 55.8371 32.4361 56.1094C31.476 57.2524 30.3303 58.0765 29.233 58.168C27.4964 58.259 26.4901 56.9796 26.4439 55.4258C26.3525 53.5969 27.1299 51.492 27.9986 49.1602C28.1354 48.8404 27.9081 48.4771 27.5885 48.4766C27.0855 48.4766 26.4899 48.3844 25.9869 48.293C25.7589 48.2476 25.4867 48.3833 25.44 48.6562C24.3885 52.3596 22.8312 55.9722 21.4596 58.1211C21.3224 58.3497 21.0046 58.4407 20.776 58.2578L19.7682 57.5273C19.5411 57.3901 19.4956 57.0719 19.6314 56.8438C21.5518 53.7347 23.291 48.8866 23.8854 45.3203C23.9311 45.0918 24.1138 44.9102 24.3424 44.9102L25.7135 44.8164C26.0328 44.8166 26.262 45.0909 26.2174 45.4102V45.457C26.1717 45.7313 26.3534 46.0049 26.6275 46.0508C27.862 46.2337 29.647 46.2332 30.8814 46.1875C31.2461 46.1886 31.4751 46.5555 31.3385 46.875C30.3327 49.5267 29.005 53.184 29.0963 54.6016C29.142 55.2417 29.4176 55.6082 29.9205 55.5625C30.8805 55.5157 32.3873 53.55 33.5299 51.4023C33.5299 51.3571 33.5758 51.3108 33.5768 51.2656C33.9425 49.5739 34.5359 47.6508 35.0846 45.7305L35.1314 45.5938C35.1773 45.4119 35.3596 45.2766 35.5416 45.2305L37.19 45.1367C37.5096 45.1372 37.7848 45.4577 37.6939 45.7773C37.6025 46.0517 37.5092 46.3272 37.4635 46.6016C36.0462 51.3104 34.8137 55.2438 36.4596 55.1523C37.5111 55.1048 39.0199 53.2751 40.2994 50.7617C40.2994 50.7163 40.3417 50.6704 40.3424 50.625C40.388 50.3054 40.4816 49.9394 40.5729 49.5742C41.3044 46.5566 42.1729 43.5813 43.0416 40.6094C43.3158 39.6954 43.5905 38.7812 43.8189 37.8672C43.8648 37.6845 44.0477 37.5001 44.276 37.5L45.9674 37.4102C46.2874 37.4102 46.5627 37.7307 46.4713 38.0508C45.7856 40.1535 45.0996 42.3476 44.4596 44.4961C44.3225 44.953 44.8243 45.32 45.19 45.0469C45.8298 44.5899 46.6073 44.3155 47.3385 44.2695C49.2131 44.1781 50.4943 45.6877 50.6314 48.0195V48.4297C50.6316 48.7038 50.8143 48.8879 51.0885 48.9336C51.9571 49.025 52.8714 48.7493 53.5572 48.1094C53.6487 48.0637 53.6939 47.9703 53.6939 47.8789C54.3797 45.1818 55.159 42.5291 55.9361 39.832C56.2102 38.9182 56.4393 38.0037 56.7135 37.0898C56.7595 36.9072 56.9422 36.7227 57.1705 36.7227L58.8619 36.6328C59.1817 36.6331 59.457 36.9536 59.3658 37.2734C58.6802 39.3761 57.9941 41.5703 57.3541 43.7188C57.217 44.1759 57.7188 44.5436 58.0846 44.2695C58.7246 43.8123 59.5015 43.5379 60.233 43.4922C62.1076 43.4007 63.3888 44.9104 63.526 47.2422V47.6523C63.5261 47.9265 63.7088 48.1105 63.983 48.1562C64.8515 48.2474 65.7662 47.9719 66.4518 47.332C66.5429 47.2862 66.5885 47.1929 66.5885 47.1016C67.2742 44.4046 68.0536 41.7517 68.8307 39.0547C69.1047 38.141 69.33 37.2262 69.6041 36.3125C69.6499 36.1296 69.8365 35.9492 70.065 35.9492L71.7564 35.8555C72.0759 35.8565 72.3477 36.1765 72.2564 36.4961C71.5708 38.5989 70.8847 40.7929 70.2447 42.9414C70.1076 43.3986 70.6133 43.7665 70.9791 43.4922C71.6191 43.0352 72.3962 42.7606 73.1275 42.7148C75.0016 42.6239 76.2834 44.1334 76.4205 46.4648V46.875C76.4206 47.1492 76.6033 47.3332 76.8775 47.3789C77.7456 47.4698 78.6141 47.1928 79.2994 46.6445C79.3902 46.5986 79.4361 46.5078 79.4361 46.3711C80.2134 43.3535 81.4014 39.3298 82.4986 35.5352C82.5445 35.3525 82.7299 35.2176 82.9127 35.1719L84.5572 35.0781ZM46.2877 46.875C44.9163 46.9666 43.4994 48.4748 42.9049 50.8516C42.1736 53.8223 43.0411 54.9666 44.2291 54.9219C46.1492 54.8304 47.979 51.3107 47.8424 48.6133C47.7967 47.4245 47.1107 46.8293 46.2877 46.875ZM59.0885 46.1445C57.763 46.2371 56.2998 47.7446 55.7057 50.1211C54.9742 53.0928 55.8451 54.2371 57.0338 54.1914C58.9537 54.0986 60.7803 50.5759 60.6432 47.8789C60.5968 46.6914 59.911 46.0988 59.0885 46.1445ZM71.9361 45.4102C70.565 45.5027 69.1475 47.014 68.5533 49.3906C67.8224 52.3616 68.6929 53.5027 69.8814 53.457C71.8013 53.3642 73.628 49.8455 73.4908 47.1484C73.4448 45.9602 72.7589 45.3644 71.9361 45.4102ZM90.4557 44.2227C88.9468 44.3141 87.7578 45.9609 87.3463 47.9727C87.3009 48.2925 87.5303 48.5664 87.8502 48.5664C89.8155 48.5202 91.782 47.1949 91.7369 45.5039C91.7369 44.7268 91.2326 44.1772 90.4557 44.2227Z" fill="black"/>
<path d="M37.6471 39.5586C38.4241 39.5132 39.0623 40.0639 39.108 40.8867C39.1529 42.1208 38.1475 43.3996 37.0963 43.4453C36.2743 43.4902 35.728 42.8965 35.6822 42.0742C35.6365 40.8397 36.5955 39.6043 37.6471 39.5586Z" fill="black"/>
</svg>
