<svg width="24" height="24" viewBox="0 0 24 24" fill="none" xmlns="http://www.w3.org/2000/svg">
<path d="M13.0146 12.998C13.8114 15.0724 14.1486 16.8135 14.2412 17.3535C13.5515 17.6435 12.7943 17.8037 12 17.8037C10.6692 17.8037 9.44099 17.3533 8.46094 16.5977C8.62673 16.2726 9.8296 14.1063 13.0078 13C13.0097 12.9992 13.0123 12.9986 13.0146 12.998Z" fill="black"/>
<path d="M15.3428 12.625C16.5554 12.6251 17.5042 12.8907 17.7246 12.958C17.4626 14.5386 16.5576 15.9067 15.2871 16.7822C15.2093 16.3355 14.8964 14.7032 14.1748 12.7129C14.5795 12.65 14.9736 12.625 15.3428 12.625Z" fill="black"/>
<path d="M12.1475 11.043C12.3037 11.3485 12.4525 11.6587 12.5908 11.9688C12.5259 11.9874 12.462 12.0065 12.3984 12.0273C9.49809 12.964 7.9035 15.4442 7.6582 15.8496C6.74934 14.8255 6.19727 13.4803 6.19727 12.0088C6.19727 11.9612 6.19768 11.9135 6.19922 11.8662C6.23389 11.8666 6.28518 11.8662 6.35156 11.8662C7.07169 11.8662 9.57157 11.8074 12.1475 11.043Z" fill="black"/>
<path d="M16.5195 8.37793C17.303 9.34888 17.7787 10.575 17.8008 11.9111C17.5392 11.8575 16.4357 11.6524 15.1172 11.6523C14.6915 11.6523 14.2431 11.673 13.7939 11.7285C13.7561 11.6365 13.7185 11.5447 13.6787 11.4521C13.5622 11.1782 13.4366 10.9064 13.3066 10.6387C15.3369 9.80215 16.3162 8.64088 16.5195 8.37793Z" fill="black"/>
<path d="M9.50684 6.77637C9.7069 7.05195 10.7012 8.43864 11.6309 10.082C9.13645 10.7377 6.92098 10.7803 6.38574 10.7803H6.3291C6.71322 9.01014 7.90869 7.53917 9.50684 6.77637Z" fill="black"/>
<path d="M12 6.21387C13.4635 6.21389 14.8014 6.75775 15.8232 7.65332C15.6614 7.87406 14.784 8.97016 12.8262 9.70996C11.9199 8.05331 10.9275 6.68184 10.6914 6.36328C11.1122 6.26583 11.5504 6.21387 12 6.21387Z" fill="black"/>
<path fill-rule="evenodd" clip-rule="evenodd" d="M12 0C18.6274 0 24 5.37258 24 12C24 18.6274 18.6274 24 12 24C5.37258 24 0 18.6274 0 12C0 5.37258 5.37258 0 12 0ZM12 5.13965C8.21271 5.13965 5.13188 8.21755 5.13184 12C5.13184 15.7825 8.21269 18.8594 12 18.8594C15.7874 18.8593 18.8691 15.7826 18.8691 12C18.8691 8.21759 15.7874 5.13971 12 5.13965Z" fill="black"/>
</svg>
