<svg width="97" height="96" viewBox="0 0 97 96" fill="none" xmlns="http://www.w3.org/2000/svg">
<path d="M10.3974 37.1816C16.2039 36.953 20.1362 40.9308 20.3193 46.9658C20.5479 53.6412 16.2041 61.7803 7.37983 62.2832C4.68227 62.4204 1.98443 61.8711 0.247018 60.8652C0.0187081 60.7736 -0.0726548 60.4541 0.0644007 60.2256L0.841744 58.625C0.97893 58.351 1.29877 58.2596 1.52729 58.3965C2.03014 58.7165 2.62462 58.9453 3.2646 59.1738C3.4931 59.2652 3.76775 59.0827 3.85932 58.8086C5.04809 54.0078 6.41931 48.8861 7.79096 44.1768C7.88244 43.9483 8.06615 43.8115 8.24897 43.8115L9.98628 43.6738C10.3519 43.6283 10.5806 43.9945 10.4892 44.3145C9.07187 49.1151 7.69943 54.2813 6.51069 59.082C6.41925 59.4021 6.64865 59.7227 6.9687 59.7227H7.65424C13.8266 59.3569 17.667 52.8187 17.4384 47.1035C17.3013 42.2113 14.3752 39.6511 10.3974 39.834C8.24867 39.9255 6.05406 40.7936 4.40815 42.165C4.17957 42.3479 3.81392 42.3025 3.67671 42.0283L2.76167 40.5654C2.6245 40.3368 2.71647 40.0161 2.89936 39.8789C5.04821 38.2331 7.88288 37.2731 10.3974 37.1816Z" fill="#0D0C22"/>
<path fill-rule="evenodd" clip-rule="evenodd" d="M84.5585 35.0781C84.8784 35.0784 85.1528 35.3989 85.0615 35.7188C83.5069 40.8396 82.2717 45.2749 81.5859 47.9268C80.6715 51.4927 80.6261 52.5446 81.6777 52.4531C82.5464 52.4074 83.7347 51.1724 84.832 49.2979C84.8777 49.2064 84.8781 49.1608 84.9238 49.0693C85.061 45.3202 87.3931 41.8909 90.8222 41.708C93.108 41.571 94.3879 43.3084 94.4794 45C94.6623 48.2461 91.4166 50.3497 88.3076 50.167C87.9418 50.1213 87.6676 50.5325 87.8505 50.8525C88.3078 51.7669 89.2219 52.316 90.7763 52.2246C91.9192 52.4074 93.5193 51.0814 94.4794 49.9385C94.6622 49.71 95.0279 49.7096 95.2109 49.9834L95.8974 50.9443C96.0343 51.1271 96.0343 51.4012 95.8974 51.584C94.6629 53.1842 92.5592 54.6929 89.9531 54.8301C87.9414 54.9672 86.2493 54.1906 85.3349 52.7275C85.152 52.4532 84.7415 52.4074 84.5585 52.6816C83.4612 54.1447 82.1802 55.2873 80.8085 55.333C78.3856 55.47 77.6995 53.8239 78.2939 50.2578C78.3394 49.8923 78.02 49.6187 77.7001 49.71C77.1972 49.8471 76.6482 49.8924 76.0996 49.8467C75.871 49.8467 75.6423 49.9841 75.5966 50.167C74.6822 53.1388 72.5789 55.8824 69.79 56.0195C68.0068 56.111 65.4002 55.1046 65.6289 50.8525C65.6288 50.4869 65.3551 50.2583 65.0351 50.3496C64.4865 50.5325 63.8921 50.5779 63.2978 50.5322C63.0692 50.5322 62.8407 50.6697 62.7949 50.8525C61.8805 53.8243 59.7771 56.5677 56.9882 56.7051C55.2051 56.7965 52.5985 55.7902 52.8271 51.5381C52.8269 51.1727 52.5531 50.9441 52.2333 51.0352C51.6847 51.218 51.0894 51.2645 50.4951 51.2188C50.2667 51.2189 50.038 51.3554 49.9921 51.5381C49.0777 54.51 46.9745 57.2535 44.1855 57.3906C42.9053 57.482 41.2137 56.9791 40.4365 55.1504C40.2993 54.7847 39.8418 54.7386 39.6132 55.0586C38.5159 56.5674 37.19 57.7113 35.8183 57.8027C34.4015 57.894 33.6245 57.2994 33.2587 56.2939C33.1216 55.9283 32.7098 55.8362 32.4355 56.1104C31.4755 57.2532 30.3325 58.0763 29.2353 58.168C27.4979 58.2594 26.492 56.9793 26.4462 55.4248C26.3548 53.596 27.1313 51.4928 27.9999 49.1611C28.1371 48.8411 27.9089 48.4746 27.5888 48.4746C27.0859 48.4746 26.4911 48.3834 25.9882 48.292C25.7597 48.2465 25.4861 48.384 25.4404 48.6582C24.3888 52.3616 22.8335 55.9732 21.4619 58.1221C21.3247 58.3506 21.0049 58.4425 20.7763 58.2598L19.7705 57.5283C19.5418 57.3912 19.4966 57.0704 19.6337 56.8418C21.5539 53.7327 23.2913 48.8864 23.8857 45.3203C23.9314 45.0917 24.1141 44.9092 24.3427 44.9092L25.7138 44.8174C26.0339 44.8174 26.2625 45.0921 26.2167 45.4121V45.457C26.171 45.7314 26.3545 46.006 26.6289 46.0518C27.8633 46.2346 29.6464 46.2352 30.8808 46.1895C31.2466 46.1895 31.475 46.5549 31.3378 46.875C30.332 49.5267 29.0063 53.1841 29.0976 54.6016C29.1433 55.2417 29.4179 55.6072 29.9208 55.5615C30.881 55.5156 32.3902 53.5502 33.5331 51.4014C33.5331 51.3556 33.5781 51.3094 33.5781 51.2637C33.9439 49.572 34.5382 47.6516 35.0869 45.7314L35.1328 45.5947C35.1785 45.4118 35.362 45.2742 35.5449 45.2285L37.1904 45.1377C37.5104 45.1377 37.7846 45.4573 37.6933 45.7773C37.6019 46.0517 37.5105 46.3263 37.4648 46.6006C36.0474 51.3099 34.813 55.2418 36.4589 55.1504C37.5105 55.1046 39.0196 53.2754 40.2998 50.7607C40.3 50.7152 40.3456 50.6696 40.3456 50.624C40.3914 50.304 40.4827 49.938 40.5742 49.5723C41.3057 46.5548 42.1743 43.5831 43.0429 40.6113C43.3172 39.6969 43.5917 38.7816 43.8203 37.8672C43.8662 37.6845 44.0489 37.502 44.2773 37.502L45.9687 37.4102C46.2887 37.4102 46.5631 37.7307 46.4716 38.0508C45.7858 40.1538 45.1 42.3483 44.4599 44.4971C44.3228 44.9542 44.8256 45.3199 45.1914 45.0459C45.8315 44.5887 46.6092 44.3143 47.3408 44.2686C49.2152 44.1772 50.4955 45.686 50.6328 48.0176V48.4297C50.6329 48.7038 50.8156 48.8869 51.0898 48.9326C51.9584 49.0241 52.8727 48.7494 53.5585 48.1094C53.6499 48.0637 53.6962 47.9722 53.6962 47.8809C54.382 45.1834 55.1592 42.5315 55.9365 39.834C56.2108 38.9197 56.4395 38.0051 56.7138 37.0908C56.7595 36.9079 56.9422 36.7246 57.1708 36.7246L58.8623 36.6328C59.1823 36.6328 59.4566 36.9534 59.3652 37.2734C58.6794 39.3765 57.9935 41.571 57.3535 43.7197C57.2163 44.1769 57.7191 44.5427 58.0849 44.2686C58.725 43.8113 59.5028 43.5369 60.2343 43.4912C62.1087 43.3999 63.389 44.9087 63.5263 47.2402V47.6523C63.5264 47.9265 63.7091 48.1096 63.9833 48.1553C64.852 48.2467 65.7663 47.972 66.4521 47.332C66.5435 47.2863 66.5898 47.1949 66.5898 47.1035C67.2756 44.406 68.0528 41.7542 68.83 39.0566C69.1043 38.1423 69.3331 37.2278 69.6074 36.3135C69.6531 36.1306 69.8358 35.9473 70.0644 35.9473L71.7558 35.8555C72.0759 35.8555 72.3502 36.176 72.2587 36.4961C71.573 38.5992 70.8871 40.7936 70.247 42.9424C70.1099 43.3996 70.6127 43.7654 70.9785 43.4912C71.6186 43.034 72.3963 42.7596 73.1279 42.7139C75.0022 42.6225 76.2826 44.1314 76.4199 46.4629V46.875C76.42 47.1492 76.6026 47.3322 76.8769 47.3779C77.7454 47.4693 78.614 47.1949 79.2998 46.6465C79.3912 46.6008 79.4374 46.5091 79.4374 46.3721C80.2147 43.3545 81.4036 39.331 82.5009 35.5361C82.5466 35.3533 82.7292 35.2157 82.9121 35.1699L84.5585 35.0781ZM46.289 46.875C44.9174 46.9665 43.4996 48.475 42.9052 50.8525C42.1737 53.8243 43.0427 54.9675 44.2314 54.9219C46.1517 54.8304 47.9808 51.3099 47.8437 48.6123C47.798 47.4235 47.112 46.8293 46.289 46.875ZM59.0908 46.1436C57.7649 46.2353 56.3023 47.7438 55.708 50.1211C54.9764 53.093 55.8454 54.2362 57.0341 54.1904C58.9542 54.0984 60.7825 50.5782 60.6455 47.8809C60.5997 46.6921 59.9138 46.0978 59.0908 46.1436ZM71.9394 45.4121C70.5677 45.5036 69.15 47.0121 68.5556 49.3896C67.8241 52.3615 68.693 53.5047 69.8818 53.459C71.8019 53.3672 73.6301 49.8468 73.4931 47.1494C73.4474 45.9609 72.7622 45.3666 71.9394 45.4121ZM90.456 44.2227C88.9474 44.3142 87.7592 45.9603 87.3476 47.9717C87.3019 48.2917 87.5305 48.5664 87.8505 48.5664C89.8164 48.5205 91.782 47.1945 91.7363 45.5029C91.7362 44.7258 91.2332 44.1769 90.456 44.2227Z" fill="#0D0C22"/>
<path d="M37.6474 39.5596C38.4247 39.5138 39.0646 40.0628 39.1103 40.8857C39.1558 42.1201 38.15 43.3996 37.0986 43.4453C36.2759 43.4908 35.7274 42.897 35.6816 42.0742C35.6359 40.8398 36.5959 39.6055 37.6474 39.5596Z" fill="#0D0C22"/>
</svg>
