<svg width="24" height="24" viewBox="0 0 24 24" fill="none" xmlns="http://www.w3.org/2000/svg">
<path d="M12 5.87329e-08C16.6593 8.91791e-08 20.9435 2.2312 22.9404 6.1123C23.2498 6.73105 24.0281 8.12852 24 10.2285C23.9983 11.2317 23.7342 12.2171 23.2344 13.0869C22.7345 13.9567 22.0163 14.681 21.1504 15.1875C20.2902 15.6962 19.3089 15.9651 18.3096 15.9658C18.3002 15.9658 15.7596 16.0966 14.4189 15.1592C14.1283 14.9623 13.9688 14.7184 13.9688 14.4746C13.969 14.1943 14.1864 14.0527 14.2773 13.959C14.7555 13.3402 15.0098 12.6 15.0098 12.0938C15.0098 11.9865 15.003 11.8453 14.9902 11.6797C14.9838 11.6205 14.9777 11.5614 14.9678 11.5029C14.8892 11.0398 14.7019 10.5993 14.4189 10.2188C14.1385 9.84359 13.7744 9.53857 13.3564 9.32715C12.9908 9.14224 12.5922 9.03356 12.1846 9.00684L12.0098 9C11.9265 8.99883 11.8455 9.00176 11.7676 9.00781C11.3784 9.03804 11.0565 9.14969 10.8086 9.25586L10.5469 9.375C10.0863 9.62652 9.7009 9.99645 9.43066 10.4463C9.16052 10.8961 9.01553 11.4099 9.00977 11.9346C9.00989 15.8532 12.8723 18.9004 17.3066 18.9004C18.4553 18.9043 19.5953 18.7005 20.6719 18.2998C21.0119 18.1736 21.3442 18.0266 21.666 17.8594C21.7384 17.821 21.8215 17.8071 21.9023 17.8203C21.9832 17.8336 22.0579 17.8731 22.1143 17.9326C22.1706 17.9922 22.2051 18.0689 22.2139 18.1504C22.2227 18.2319 22.2045 18.3145 22.1621 18.3848C20.7037 20.6959 18.5018 22.4413 15.9189 23.334L15.7969 23.3721C15.6589 23.4162 15.5018 23.4578 15.334 23.5C15.4924 23.4618 15.6508 23.4213 15.8066 23.3721L15.2803 23.5342C12.639 24.2835 9.81412 24.1059 7.28027 23.0205C4.5774 21.8626 2.3935 19.7524 1.14355 17.0908C0.380342 15.4468 -0.00657524 13.6533 0.00976562 11.8408C0.00976562 11.7335 0.0129963 11.6256 0.0195312 11.5176L0.0478516 11.1982C0.0193994 11.4063 0.0029352 11.6174 0 11.8311C0.0443972 8.67786 1.32862 5.6691 3.57422 3.45508C5.81986 1.24106 8.84646 -0.000311768 12 5.87329e-08Z" fill="black"/>
</svg>
