<svg width="24" height="24" viewBox="0 0 24 24" fill="none" xmlns="http://www.w3.org/2000/svg">
<path d="M21.6656 17.8594C21.3438 18.0266 21.0119 18.1738 20.6719 18.3C19.5952 18.7007 18.4551 18.904 17.3063 18.9C12.8719 18.9 9.00938 15.8531 9.00938 11.9344C9.01514 11.4096 9.16062 10.8959 9.43086 10.4461C9.70109 9.99623 10.0863 9.62652 10.5469 9.375C6.53438 9.54375 5.50313 13.725 5.50313 16.1719C5.50313 23.1094 11.8875 23.8031 13.2656 23.8031C14.0063 23.8031 15.1219 23.5875 15.7969 23.3719L15.9188 23.3344C18.5019 22.4417 20.7041 20.6958 22.1625 18.3844C22.2049 18.3141 22.2231 18.232 22.2143 18.1504C22.2055 18.0688 22.1702 17.9924 22.1138 17.9328C22.0574 17.8733 21.983 17.8338 21.9021 17.8205C21.8211 17.8073 21.7381 17.8209 21.6656 17.8594Z" fill="url(#paint0_linear_2090_1087)"/>
<path d="M21.6656 17.8594C21.3438 18.0266 21.0119 18.1738 20.6719 18.3C19.5952 18.7007 18.4551 18.904 17.3063 18.9C12.8719 18.9 9.00938 15.8531 9.00938 11.9344C9.01514 11.4096 9.16062 10.8959 9.43086 10.4461C9.70109 9.99623 10.0863 9.62652 10.5469 9.375C6.53438 9.54375 5.50313 13.725 5.50313 16.1719C5.50313 23.1094 11.8875 23.8031 13.2656 23.8031C14.0063 23.8031 15.1219 23.5875 15.7969 23.3719L15.9188 23.3344C18.5019 22.4417 20.7041 20.6958 22.1625 18.3844C22.2049 18.3141 22.2231 18.232 22.2143 18.1504C22.2055 18.0688 22.1702 17.9924 22.1138 17.9328C22.0574 17.8733 21.983 17.8338 21.9021 17.8205C21.8211 17.8073 21.7381 17.8209 21.6656 17.8594Z" fill="url(#paint1_radial_2090_1087)"/>
<path d="M9.90938 22.6219C9.07489 22.1036 8.35155 21.4248 7.78125 20.625C7.13001 19.7336 6.68172 18.7105 6.46786 17.6275C6.254 16.5445 6.27975 15.4277 6.54328 14.3557C6.80682 13.2837 7.30177 12.2823 7.9934 11.4219C8.68503 10.5615 9.55657 9.86284 10.5469 9.375C10.8469 9.23437 11.3438 8.99062 12.0094 9C12.4778 9.00362 12.939 9.11552 13.3569 9.32694C13.7749 9.53837 14.1383 9.84359 14.4188 10.2187C14.796 10.726 15.0027 11.3398 15.0094 11.9719C15.0094 11.9531 17.3063 4.50937 7.50938 4.50937C3.39375 4.50937 0.00937573 8.40937 0.00937573 11.8406C-0.0069944 13.6531 0.380511 15.4466 1.14375 17.0906C2.39369 19.7522 4.57738 21.8622 7.28028 23.0201C9.98319 24.178 13.0172 24.3032 15.8063 23.3719C14.8291 23.6805 13.7966 23.7733 12.7801 23.6438C11.7636 23.5143 10.7873 23.1656 9.91875 22.6219H9.90938Z" fill="url(#paint2_linear_2090_1087)"/>
<path d="M9.90938 22.6219C9.07489 22.1036 8.35155 21.4248 7.78125 20.625C7.13001 19.7336 6.68172 18.7105 6.46786 17.6275C6.254 16.5445 6.27975 15.4277 6.54328 14.3557C6.80682 13.2837 7.30177 12.2823 7.9934 11.4219C8.68503 10.5615 9.55657 9.86284 10.5469 9.375C10.8469 9.23437 11.3438 8.99062 12.0094 9C12.4778 9.00362 12.939 9.11552 13.3569 9.32694C13.7749 9.53837 14.1383 9.84359 14.4188 10.2187C14.796 10.726 15.0027 11.3398 15.0094 11.9719C15.0094 11.9531 17.3063 4.50937 7.50938 4.50937C3.39375 4.50937 0.00937573 8.40937 0.00937573 11.8406C-0.0069944 13.6531 0.380511 15.4466 1.14375 17.0906C2.39369 19.7522 4.57738 21.8622 7.28028 23.0201C9.98319 24.178 13.0172 24.3032 15.8063 23.3719C14.8291 23.6805 13.7966 23.7733 12.7801 23.6438C11.7636 23.5143 10.7873 23.1656 9.91875 22.6219H9.90938Z" fill="url(#paint3_radial_2090_1087)"/>
<path d="M14.2875 13.95C14.2031 14.0438 13.9688 14.1844 13.9688 14.475C13.9688 14.7187 14.1281 14.9625 14.4187 15.1594C15.7594 16.0969 18.3 15.9656 18.3094 15.9656C19.3088 15.965 20.2898 15.6963 21.15 15.1875C22.0161 14.6809 22.7347 13.9568 23.2346 13.0869C23.7345 12.2169 23.9984 11.2315 24 10.2281C24.0281 8.12812 23.25 6.73125 22.9406 6.1125C20.9437 2.23125 16.6594 5.87479e-08 12 5.87479e-08C8.84643 -0.000311772 5.81948 1.24078 3.57383 3.45485C1.32818 5.66892 0.0443471 8.67799 0 11.8312C0.046875 8.40937 3.45 5.64375 7.5 5.64375C7.82812 5.64375 9.70312 5.67187 11.4375 6.58125C12.656 7.18674 13.665 8.14353 14.3344 9.32812C14.9062 10.3219 15.0094 11.5875 15.0094 12.0938C15.0094 12.6 14.7562 13.3406 14.2781 13.9594L14.2875 13.95Z" fill="url(#paint4_radial_2090_1087)"/>
<path d="M14.2875 13.95C14.2031 14.0438 13.9688 14.1844 13.9688 14.475C13.9688 14.7187 14.1281 14.9625 14.4187 15.1594C15.7594 16.0969 18.3 15.9656 18.3094 15.9656C19.3088 15.965 20.2898 15.6963 21.15 15.1875C22.0161 14.6809 22.7347 13.9568 23.2346 13.0869C23.7345 12.2169 23.9984 11.2315 24 10.2281C24.0281 8.12812 23.25 6.73125 22.9406 6.1125C20.9437 2.23125 16.6594 5.87479e-08 12 5.87479e-08C8.84643 -0.000311772 5.81948 1.24078 3.57383 3.45485C1.32818 5.66892 0.0443471 8.67799 0 11.8312C0.046875 8.40937 3.45 5.64375 7.5 5.64375C7.82812 5.64375 9.70312 5.67187 11.4375 6.58125C12.656 7.18674 13.665 8.14353 14.3344 9.32812C14.9062 10.3219 15.0094 11.5875 15.0094 12.0938C15.0094 12.6 14.7562 13.3406 14.2781 13.9594L14.2875 13.95Z" fill="url(#paint5_radial_2090_1087)"/>
<defs>
<linearGradient id="paint0_linear_2090_1087" x1="0" y1="12.0026" x2="24.0175" y2="12.0026" gradientUnits="userSpaceOnUse">
<stop stop-color="#0C59A4"/>
<stop offset="1" stop-color="#114A8B"/>
</linearGradient>
<radialGradient id="paint1_radial_2090_1087" cx="0" cy="0" r="1" gradientUnits="userSpaceOnUse" gradientTransform="translate(13.2608 12.2123) scale(12.8434 14.1272)">
<stop offset="0.7" stop-opacity="0"/>
<stop offset="0.9" stop-opacity="0.5"/>
<stop offset="1"/>
</radialGradient>
<linearGradient id="paint2_linear_2090_1087" x1="21.7361" y1="5.94576" x2="9.384" y2="22.5537" gradientUnits="userSpaceOnUse">
<stop stop-color="#1B9DE2"/>
<stop offset="0.2" stop-color="#1595DF"/>
<stop offset="0.7" stop-color="#0680D7"/>
<stop offset="1" stop-color="#0078D4"/>
</linearGradient>
<radialGradient id="paint3_radial_2090_1087" cx="0" cy="0" r="1" gradientTransform="matrix(3.05946 -16.3673 -16.3171 -1.98392 10.0359 17.4144)" gradientUnits="userSpaceOnUse">
<stop offset="0.8" stop-opacity="0"/>
<stop offset="0.9" stop-opacity="0.5"/>
<stop offset="1"/>
</radialGradient>
<radialGradient id="paint4_radial_2090_1087" cx="0" cy="0" r="1" gradientTransform="matrix(-0.759 28.5003 40.4167 2.28002 2.42719 6.66264)" gradientUnits="userSpaceOnUse">
<stop stop-color="#35C1F1"/>
<stop offset="0.1" stop-color="#34C1ED"/>
<stop offset="0.2" stop-color="#2FC2DF"/>
<stop offset="0.3" stop-color="#2BC3D2"/>
<stop offset="0.7" stop-color="#36C752"/>
</radialGradient>
<radialGradient id="paint5_radial_2090_1087" cx="0" cy="0" r="1" gradientTransform="matrix(2.55413 8.757 7.11506 -2.09803 22.5056 7.24687)" gradientUnits="userSpaceOnUse">
<stop stop-color="#66EB6E"/>
<stop offset="1" stop-color="#66EB6E" stop-opacity="0"/>
</radialGradient>
</defs>
</svg>
