<svg width="24" height="24" viewBox="0 0 24 24" fill="none" xmlns="http://www.w3.org/2000/svg">
<path d="M22.3893 8.0496C21.8834 6.83398 20.8611 5.52177 20.0563 5.10656C20.6286 6.21492 21.0257 7.40479 21.2341 8.6355L21.2371 8.65511C19.9219 5.37682 17.693 4.05555 15.872 1.17896C15.7784 1.03248 15.6863 0.884498 15.5986 0.733496C15.5534 0.654971 15.5111 0.574944 15.4703 0.493399C15.3948 0.346929 15.3359 0.192906 15.2967 0.0328431C15.2967 0.0177428 15.2861 0.0041526 15.271 0.00113251C15.2634 -0.000377505 15.2559 -0.000377505 15.2484 0.00113251C15.2469 0.00113251 15.2438 0.0041526 15.2423 0.0041526C15.2408 0.0041526 15.2363 0.00717264 15.2348 0.00868266L15.2393 0.00264253C12.3189 1.7135 11.3283 4.87851 11.2362 6.46103C10.0704 6.54108 8.95453 6.97143 8.03642 7.6947C7.93982 7.61319 7.83862 7.53769 7.73447 7.46669C7.47017 6.53958 7.45807 5.55807 7.70122 4.62484C6.6291 5.14426 5.67629 5.88117 4.90313 6.78723H4.89713C4.43653 6.20283 4.46825 4.27753 4.49543 3.87587C4.35953 3.93023 4.22966 3.99968 4.10735 4.08122C3.70115 4.37115 3.32062 4.69732 2.9703 5.05516C2.57316 5.45841 2.20924 5.89327 1.88459 6.35683C1.13713 7.41689 0.607104 8.61435 0.32473 9.87972C0.31869 9.90537 0.31416 9.93107 0.30963 9.95677C0.28849 10.0594 0.209968 10.5713 0.194867 10.6831C0.194867 10.6921 0.193358 10.6997 0.191848 10.7087C0.0906761 11.2387 0.0272552 11.7748 0.00309477 12.3124C0.00309477 12.332 0.00309477 12.3517 0.00309477 12.3728C0.00309477 18.7934 5.20969 23.9985 11.6303 23.9985C17.2929 23.9985 22.1311 19.9199 23.0884 14.3388C23.108 14.1893 23.1246 14.0399 23.1413 13.8904C23.3814 11.9107 23.1216 9.90237 22.3878 8.04805L22.3893 8.0496ZM8.98924 17.1505C9.04364 17.1762 9.09494 17.2049 9.15084 17.2306L9.15839 17.2351C9.10099 17.2079 9.04513 17.1792 8.98773 17.1505H8.98924Z" fill="url(#paint0_linear_2090_1081)"/>
<path d="M22.3893 8.0496C21.8834 6.83398 20.8611 5.52177 20.0563 5.10656C20.6286 6.21492 21.0257 7.40479 21.2341 8.6355C21.2341 8.63246 21.2341 8.63738 21.2356 8.64643V8.65853C22.3349 11.6333 21.7369 14.6579 20.8762 16.5046C19.5443 19.3646 16.3189 22.2941 11.2694 22.1521C5.81362 21.9981 1.00876 17.9497 0.111797 12.648C-0.0512854 11.8115 0.111797 11.3887 0.193339 10.7077C0.0800867 11.2347 0.0181755 11.7722 0.0045853 12.3113C0.0045853 12.3309 0.0045853 12.3506 0.0045853 12.3717C0.0045853 18.7923 5.20966 23.9989 11.6318 23.9989C17.2944 23.9989 22.1325 19.9203 23.0914 14.3393C23.111 14.1897 23.1276 14.0402 23.1442 13.8908C23.3843 11.9112 23.1246 9.90279 22.3908 8.04847L22.3893 8.0496Z" fill="url(#paint1_radial_2090_1081)"/>
<path d="M22.3893 8.0496C21.8834 6.83398 20.8611 5.52177 20.0563 5.10656C20.6286 6.21492 21.0257 7.40479 21.2341 8.6355C21.2341 8.63246 21.2341 8.63738 21.2356 8.64643V8.65853C22.3349 11.6333 21.7369 14.6579 20.8762 16.5046C19.5443 19.3646 16.3189 22.2941 11.2694 22.1521C5.81362 21.9981 1.00876 17.9497 0.111797 12.648C-0.0512854 11.8115 0.111797 11.3887 0.193339 10.7077C0.0800867 11.2347 0.0181755 11.7722 0.0045853 12.3113C0.0045853 12.3309 0.0045853 12.3506 0.0045853 12.3717C0.0045853 18.7923 5.20966 23.9989 11.6318 23.9989C17.2944 23.9989 22.1325 19.9203 23.0914 14.3393C23.111 14.1897 23.1276 14.0402 23.1442 13.8908C23.3843 11.9112 23.1246 9.90279 22.3908 8.04847L22.3893 8.0496Z" fill="url(#paint2_radial_2090_1081)"/>
<path d="M16.7386 9.41623C16.7643 9.43438 16.7869 9.45248 16.8111 9.46913C16.5196 8.95117 16.1557 8.47702 15.7314 8.06026C12.1179 4.44676 14.7846 0.224723 15.2346 0.0102988L15.2392 0.00425866C12.3187 1.71512 11.3282 4.88017 11.2361 6.46264C11.372 6.45354 11.5064 6.44304 11.6438 6.44304C13.7533 6.44754 15.6967 7.58306 16.7371 9.41773L16.7386 9.41623Z" fill="url(#paint3_radial_2090_1081)"/>
<path d="M11.6515 10.138C11.6318 10.4279 10.611 11.4246 10.2531 11.4246C6.9462 11.4246 6.41014 13.4238 6.41014 13.4238C6.55664 15.1075 7.72841 16.4952 9.14932 17.2291C9.21427 17.2623 9.27918 17.2925 9.34568 17.3227C9.45738 17.3725 9.57218 17.4194 9.68688 17.4631C10.1731 17.6353 10.6835 17.7334 11.2 17.7545C16.9939 18.0264 18.1174 10.8266 13.9361 8.73517C15.0067 8.54942 16.1181 8.97978 16.7402 9.41468C15.6999 7.58001 13.7549 6.44444 11.6454 6.43994C11.508 6.43994 11.3721 6.452 11.2377 6.45955C10.0719 6.5396 8.95602 6.97 8.03791 7.69326C8.21461 7.84276 8.41546 8.04361 8.83827 8.45887C9.62648 9.23653 11.65 10.0429 11.6545 10.1365L11.6515 10.138Z" fill="url(#paint4_radial_2090_1081)"/>
<path d="M11.6515 10.138C11.6318 10.4279 10.611 11.4246 10.2531 11.4246C6.9462 11.4246 6.41014 13.4238 6.41014 13.4238C6.55664 15.1075 7.72841 16.4952 9.14932 17.2291C9.21427 17.2623 9.27918 17.2925 9.34568 17.3227C9.45738 17.3725 9.57218 17.4194 9.68688 17.4631C10.1731 17.6353 10.6835 17.7334 11.2 17.7545C16.9939 18.0264 18.1174 10.8266 13.9361 8.73517C15.0067 8.54942 16.1181 8.97978 16.7402 9.41468C15.6999 7.58001 13.7549 6.44444 11.6454 6.43994C11.508 6.43994 11.3721 6.452 11.2377 6.45955C10.0719 6.5396 8.95602 6.97 8.03791 7.69326C8.21461 7.84276 8.41546 8.04361 8.83827 8.45887C9.62648 9.23653 11.65 10.0429 11.6545 10.1365L11.6515 10.138Z" fill="url(#paint5_radial_2090_1081)"/>
<path d="M7.49418 7.30844C7.57573 7.35975 7.65579 7.41415 7.73434 7.46845C7.47003 6.54134 7.45793 5.55982 7.70109 4.62661C6.62897 5.14602 5.67616 5.88298 4.903 6.78899C4.95885 6.78899 6.64557 6.75724 7.49418 7.30844Z" fill="url(#paint6_radial_2090_1081)"/>
<path d="M0.111636 12.6494C1.00859 17.9511 5.81349 21.9995 11.2692 22.1536C16.3172 22.2971 19.5442 19.366 20.876 16.506C21.7367 14.6578 22.3363 11.6332 21.2384 8.65998V8.64788C21.2384 8.63883 21.2369 8.63428 21.2369 8.63733L21.2399 8.65693C21.6522 11.3508 20.2826 13.9586 18.1398 15.7238L18.1338 15.739C13.9616 19.1365 9.96909 17.7896 9.16119 17.2369C9.10383 17.2097 9.04794 17.181 8.99213 17.1523C6.55945 15.9896 5.55529 13.7729 5.76969 11.8733C4.59038 11.8899 3.51071 11.2119 3.01542 10.1413C3.01542 10.1413 4.85918 8.82604 7.29026 9.96915C8.66748 10.5943 10.2333 10.6563 11.6558 10.1413C11.6513 10.0462 9.62784 9.24129 8.83958 8.46363C8.41828 8.04838 8.21747 7.84757 8.03932 7.69807C7.94412 7.61652 7.84297 7.54102 7.73877 7.47002C7.66932 7.42327 7.59232 7.37187 7.49871 7.31002C6.65005 6.75886 4.96488 6.79056 4.90898 6.79056H4.90293C4.4424 6.20615 4.47411 4.28088 4.50129 3.87921C4.36538 3.93357 4.23552 4.00304 4.11321 4.08457C3.70701 4.3745 3.32648 4.70067 2.97616 5.05854C2.57902 5.46174 2.2151 5.8966 1.89045 6.3602C1.14298 7.42022 0.612962 8.61768 0.33059 9.8831C0.32455 9.90875 -0.0891981 11.7148 0.114655 12.6524L0.111636 12.6494Z" fill="url(#paint7_radial_2090_1081)"/>
<path d="M15.7314 8.06026C16.1557 8.47702 16.5196 8.95117 16.8111 9.46913C16.8715 9.51443 16.9304 9.56131 16.9863 9.61266C19.6213 12.0408 18.2411 15.4776 18.1384 15.7222C20.2796 13.9585 21.6492 11.3492 21.2385 8.6553C19.9218 5.37851 17.6929 4.05726 15.8719 1.18066C15.7783 1.03419 15.6862 0.886204 15.5986 0.735202C15.5533 0.656677 15.511 0.576645 15.4702 0.495109C15.3947 0.348632 15.3358 0.194609 15.2966 0.0345466C15.2966 0.0194463 15.286 0.00585602 15.2709 0.00283598C15.2633 0.00132596 15.2558 0.00132596 15.2482 0.00283598C15.2467 0.00283598 15.2437 0.00585602 15.2422 0.00585602C15.2407 0.00585602 15.2361 0.00878876 15.2346 0.0102988C14.7846 0.224723 12.1179 4.44676 15.7314 8.06026Z" fill="url(#paint8_linear_2090_1081)" fill-opacity="0.8"/>
<path d="M16.9863 9.61266C16.9304 9.56281 16.8715 9.51438 16.8111 9.46913C16.7869 9.45098 16.7642 9.43288 16.7386 9.41623C16.1179 8.97982 15.0067 8.54964 13.9346 8.73694C18.1158 10.8283 16.9939 18.0281 11.1984 17.7564C10.682 17.7352 10.1731 17.637 9.68538 17.4648C9.57062 17.4211 9.45582 17.3742 9.34407 17.3244C9.27917 17.2942 9.21272 17.264 9.14782 17.2308L9.15537 17.2353C9.96318 17.7865 13.9557 19.135 18.1279 15.7374L18.134 15.7223C18.2366 15.4777 19.6184 12.0423 16.9818 9.61275L16.9863 9.61266Z" fill="url(#paint9_radial_2090_1081)"/>
<path d="M6.41162 13.4239C6.41162 13.4239 6.94768 11.4246 10.2547 11.4246C10.6125 11.4246 11.6348 10.4264 11.653 10.138C10.232 10.6529 8.6646 10.5911 7.28743 9.96588C4.8578 8.82281 3.01258 10.138 3.01258 10.138C3.50787 11.2086 4.58754 11.8882 5.76686 11.8701C5.55091 13.7712 6.55662 15.9879 8.98925 17.1491C9.0436 17.1748 9.09495 17.2034 9.15081 17.2291C7.73139 16.4953 6.55812 15.1075 6.41162 13.4239Z" fill="url(#paint10_radial_2090_1081)"/>
<path d="M22.3893 8.0496C21.8834 6.83398 20.8611 5.52177 20.0563 5.10656C20.6286 6.21492 21.0257 7.40479 21.2341 8.6355L21.2371 8.65511C19.9219 5.37682 17.693 4.05555 15.872 1.17896C15.7784 1.03248 15.6863 0.884498 15.5986 0.733496C15.5534 0.654971 15.5111 0.574944 15.4703 0.493399C15.3948 0.346929 15.3359 0.192906 15.2967 0.0328431C15.2967 0.0177428 15.2861 0.0041526 15.271 0.00113251C15.2634 -0.000377505 15.2559 -0.000377505 15.2484 0.00113251C15.2469 0.00113251 15.2438 0.0041526 15.2423 0.0041526C15.2408 0.0041526 15.2363 0.00717264 15.2348 0.00868266L15.2393 0.00264253C12.3189 1.7135 11.3283 4.87851 11.2362 6.46103C11.3721 6.45198 11.5064 6.44144 11.6438 6.44144C13.7533 6.44594 15.6967 7.58146 16.7371 9.41618C16.1165 8.97977 15.0051 8.54937 13.933 8.73667C18.1143 10.828 16.9923 18.0278 11.1968 17.756C10.6804 17.7349 10.1715 17.6368 9.68382 17.4646C9.56907 17.4208 9.45432 17.374 9.34257 17.3242C9.27762 17.294 9.21117 17.2638 9.14622 17.2306L9.15377 17.2351C9.09641 17.2079 9.04052 17.1792 8.98466 17.1505C9.03901 17.1762 9.09037 17.2049 9.14622 17.2306C7.7268 16.4967 6.55353 15.109 6.40703 13.4253C6.40703 13.4253 6.94309 11.426 10.25 11.426C10.6079 11.426 11.6302 10.4278 11.6483 10.1395C11.6438 10.0443 9.62037 9.23948 8.83211 8.46182C8.41086 8.04656 8.21 7.84576 8.03185 7.69626C7.93515 7.61471 7.8355 7.53771 7.7313 7.46821C7.46709 6.54109 7.45499 5.55958 7.69815 4.62636C6.62598 5.14578 5.67317 5.88273 4.90001 6.7887H4.89401C4.43344 6.20434 4.46515 4.27906 4.49233 3.87739C4.35643 3.93175 4.22656 4.00121 4.10425 4.08275C3.69806 4.37268 3.31753 4.69884 2.9672 5.05672C2.57006 5.45993 2.20615 5.89479 1.88149 6.35834C1.13403 7.4184 0.604008 8.61587 0.321636 9.88124C0.315595 9.90694 0.311065 9.93259 0.306535 9.95829C0.285395 10.0609 0.187243 10.5804 0.172143 10.6921C0.0830511 11.2297 0.0256705 11.7703 0 12.3139C0 12.3335 0 12.3532 0 12.3743C0 18.7949 5.20657 24 11.6272 24C17.2898 24 22.1279 19.9214 23.0853 14.3404C23.1049 14.1908 23.1215 14.0414 23.1381 13.8919C23.3782 11.9123 23.1185 9.90389 22.3846 8.04961L22.3893 8.0496ZM21.2356 8.64643V8.65853L21.2371 8.65817V8.64607L21.2356 8.64643Z" fill="url(#paint11_linear_2090_1081)"/>
<defs>
<linearGradient id="paint0_linear_2090_1081" x1="21.2535" y1="3.70244" x2="2.60425" y2="21.5786" gradientUnits="userSpaceOnUse">
<stop offset="0.05" stop-color="#FFF44F"/>
<stop offset="0.37" stop-color="#FF980E"/>
<stop offset="0.53" stop-color="#FF3647"/>
<stop offset="0.7" stop-color="#E31587"/>
</linearGradient>
<radialGradient id="paint1_radial_2090_1081" cx="0" cy="0" r="1" gradientUnits="userSpaceOnUse" gradientTransform="translate(19.8872 -0.093148) scale(23.8551 30.808)">
<stop offset="0.13" stop-color="#FFBD4F"/>
<stop offset="0.28" stop-color="#FF980E"/>
<stop offset="0.47" stop-color="#FF3750"/>
<stop offset="0.78" stop-color="#EB0878"/>
<stop offset="0.86" stop-color="#E50080"/>
</radialGradient>
<radialGradient id="paint2_radial_2090_1081" cx="0" cy="0" r="1" gradientUnits="userSpaceOnUse" gradientTransform="translate(11.4968 9.52918) scale(24.4508 30.808)">
<stop offset="0.3" stop-color="#960E18"/>
<stop offset="0.35" stop-color="#B11927" stop-opacity="0.74"/>
<stop offset="0.43" stop-color="#DB293D" stop-opacity="0.34"/>
<stop offset="0.5" stop-color="#F5334B" stop-opacity="0.09"/>
<stop offset="0.53" stop-color="#FF3750" stop-opacity="0"/>
</radialGradient>
<radialGradient id="paint3_radial_2090_1081" cx="0" cy="0" r="1" gradientUnits="userSpaceOnUse" gradientTransform="translate(13.6522 -2.26059) scale(32.4426 33.5266)">
<stop offset="0.13" stop-color="#FFF44F"/>
<stop offset="0.53" stop-color="#FF980E"/>
</radialGradient>
<radialGradient id="paint4_radial_2090_1081" cx="0" cy="0" r="1" gradientUnits="userSpaceOnUse" gradientTransform="translate(6.16031 26.2585) scale(23.1478 23.9186)">
<stop offset="0.35" stop-color="#3A8EE6"/>
<stop offset="0.67" stop-color="#9059FF"/>
<stop offset="1" stop-color="#C139E6"/>
</radialGradient>
<radialGradient id="paint5_radial_2090_1081" cx="0" cy="0" r="1" gradientTransform="matrix(11.6407 1.12344 -1.38436 12.7442 11.607 8.70543)" gradientUnits="userSpaceOnUse">
<stop offset="0.21" stop-color="#9059FF" stop-opacity="0"/>
<stop offset="1" stop-color="#6E008B" stop-opacity="0.6"/>
</radialGradient>
<radialGradient id="paint6_radial_2090_1081" cx="0" cy="0" r="1" gradientUnits="userSpaceOnUse" gradientTransform="translate(56.6643 -24.7083) scale(67.321 69.5859)">
<stop offset="0.1" stop-color="#FFE226"/>
<stop offset="0.79" stop-color="#FF7139"/>
</radialGradient>
<radialGradient id="paint7_radial_2090_1081" cx="0" cy="0" r="1" gradientUnits="userSpaceOnUse" gradientTransform="translate(18.5002 -10.327) scale(41.7536 43.1373)">
<stop offset="0.11" stop-color="#FFF44F"/>
<stop offset="0.46" stop-color="#FF980E"/>
<stop offset="0.72" stop-color="#FF3647"/>
<stop offset="0.9" stop-color="#E31587"/>
</radialGradient>
<linearGradient id="paint8_linear_2090_1081" x1="3.47629" y1="-4.26541" x2="7.22472" y2="29.6082" gradientUnits="userSpaceOnUse">
<stop stop-color="#FFF44F"/>
<stop offset="0.3" stop-color="#FF980E"/>
<stop offset="0.57" stop-color="#FF3647"/>
<stop offset="0.74" stop-color="#E31587"/>
</linearGradient>
<radialGradient id="paint9_radial_2090_1081" cx="0" cy="0" r="1" gradientUnits="userSpaceOnUse" gradientTransform="translate(2.05737 -11.2887) scale(55.4432 57.2741)">
<stop offset="0.14" stop-color="#FFF44F"/>
<stop offset="0.48" stop-color="#FF980E"/>
<stop offset="0.66" stop-color="#FF3647"/>
<stop offset="0.9" stop-color="#E31587"/>
</radialGradient>
<radialGradient id="paint10_radial_2090_1081" cx="0" cy="0" r="1" gradientUnits="userSpaceOnUse" gradientTransform="translate(38.1293 -11.638) scale(72.7868 75.2172)">
<stop offset="0.09" stop-color="#FFF44F"/>
<stop offset="0.63" stop-color="#FF980E"/>
</radialGradient>
<linearGradient id="paint11_linear_2090_1081" x1="20.022" y1="3.69768" x2="5.11006" y2="20.0645" gradientUnits="userSpaceOnUse">
<stop offset="0.17" stop-color="#FFF44F" stop-opacity="0.8"/>
<stop offset="0.677885" stop-color="#FFF44F" stop-opacity="0"/>
</linearGradient>
</defs>
</svg>
