<svg width="96" height="96" viewBox="0 0 96 96" fill="none" xmlns="http://www.w3.org/2000/svg">
<path fill-rule="evenodd" clip-rule="evenodd" d="M10.4919 42.2822H20.9837V32.0002H0.209937V32.1052L10.4919 42.2822Z" fill="#67DBFF"/>
<path fill-rule="evenodd" clip-rule="evenodd" d="M10.4919 42.2822L8.8051e-05 42.2823V52.5642H20.7739V52.4593L10.4919 42.2822Z" fill="#01A3FF"/>
<path fill-rule="evenodd" clip-rule="evenodd" d="M0 52.5603H10.4919V62.8461L0 52.5603Z" fill="#0162FF"/>
<path d="M35.2526 52.4593V46.7937H41.4427V44.1708H35.2526V40.3937H41.9673V37.6658H32.2099V52.3544H35.2526V52.4593Z" fill="#191D26"/>
<path d="M49.7312 41.7576C49.5214 41.6527 49.1017 41.5478 48.5771 41.5478C47.528 41.5478 46.6886 42.0724 46.164 42.8068V41.7576H43.2263V52.4592H46.164V45.8494C46.3739 44.9051 47.2132 44.3805 48.1575 44.3805C48.6821 44.3805 49.2067 44.4855 49.6263 44.6953V41.7576H49.7312Z" fill="#191D26"/>
<path d="M59.5936 52.4592V45.6396C59.5936 43.1215 57.9149 41.5478 55.0821 41.5478C52.669 41.5478 50.8854 43.0166 50.5706 45.0101H53.4034C53.6132 44.3805 54.1378 43.9609 54.9772 43.9609C56.1313 43.9609 56.7608 44.6953 56.7608 45.6396V46.374C56.3411 46.0592 55.2919 45.7445 54.3477 45.7445C52.0395 45.7445 50.2559 47.1084 50.2559 49.2068C50.2559 51.4101 52.0395 52.6691 54.2427 52.6691C55.3968 52.6691 56.446 52.2494 56.8657 51.9346V52.4592H59.5936ZM56.7608 49.5215C56.446 50.0461 55.7116 50.4658 54.8722 50.4658C53.928 50.4658 52.9837 50.0461 52.9837 49.1019C52.9837 48.1576 53.928 47.7379 54.8722 47.7379C55.7116 47.7379 56.5509 48.0527 56.7608 48.6822V49.5215Z" fill="#191D26"/>
<path d="M70.0853 42.9117C69.4558 42.0724 68.5116 41.5478 67.2526 41.5478C66.0985 41.5478 65.0493 41.9674 64.5247 42.7019V41.8625H61.587V52.5642H64.5247V45.6396C64.7345 44.6953 65.469 44.2756 66.2034 44.2756C67.2526 44.2756 67.6722 45.0101 67.6722 46.1642V52.5642H70.6099V45.6396C70.8198 44.6953 71.4493 44.2756 72.2886 44.2756C73.3378 44.2756 73.8624 45.0101 73.8624 46.1642V52.5642H76.8001V45.5346C76.8001 43.1215 75.4362 41.5478 73.2329 41.5478C71.869 41.5478 70.8198 42.1773 70.0853 42.9117Z" fill="#191D26"/>
<path d="M85.2984 48.9969C85.0886 49.9412 84.3542 50.3609 83.305 50.3609C81.9411 50.3609 81.1017 49.4166 80.9968 47.8428H88.1312V46.8986C88.1312 43.751 86.4525 41.5478 83.305 41.5478C80.3673 41.5478 78.164 43.9609 78.164 47.1084C78.164 50.3609 80.2624 52.6691 83.305 52.6691C86.0329 52.6691 87.6066 51.2002 88.0263 48.892H85.2984V48.9969ZM83.305 43.9609C84.564 43.9609 85.1935 44.8002 85.1935 45.9543H81.1017C81.4165 44.6953 82.1509 43.9609 83.305 43.9609Z" fill="#191D26"/>
<path d="M96.0001 41.7576C95.7902 41.6527 95.3706 41.5478 94.846 41.5478C93.7968 41.5478 92.9575 42.0724 92.4329 42.8068V41.7576H89.4952V52.4592H92.4329V45.8494C92.6427 44.9051 93.482 44.3805 94.4263 44.3805C94.9509 44.3805 95.4755 44.4855 95.8952 44.6953V41.7576H96.0001Z" fill="#191D26"/>
</svg>
