<svg width="96" height="96" viewBox="0 0 96 96" fill="none" xmlns="http://www.w3.org/2000/svg">
<path d="M10.8154 36.001C11.0423 36.001 11.2396 36.1559 11.2949 36.376C11.4646 37.049 11.6866 37.7052 11.9619 38.3438C12.6793 40.0102 13.6634 41.469 14.9131 42.7188C16.1635 43.9686 17.6215 44.9535 19.2881 45.6709C19.9274 45.9463 20.5837 46.1672 21.2568 46.3369C21.4768 46.3923 21.6318 46.5896 21.6318 46.8164C21.6318 47.0432 21.4768 47.2405 21.2568 47.2959C20.5837 47.4656 19.9268 47.6865 19.2881 47.9619C17.6215 48.6793 16.1629 49.6643 14.9131 50.9141C13.6634 52.1644 12.6793 53.6226 11.9619 55.2891C11.6866 55.9283 11.4646 56.5838 11.2949 57.2568C11.2396 57.4769 11.0423 57.6318 10.8154 57.6318C10.5887 57.6317 10.3912 57.4768 10.3359 57.2568C10.1663 56.5839 9.94522 55.9276 9.66992 55.2891C8.95258 53.6226 7.969 52.1638 6.71875 50.9141C5.46843 49.6643 4.01024 48.6793 2.34375 47.9619C1.70442 47.6865 1.04814 47.4656 0.375 47.2959C0.15493 47.2406 1.04206e-05 47.0432 0 46.8164C0 46.5895 0.154923 46.3922 0.375 46.3369C1.04815 46.1672 1.70503 45.9463 2.34375 45.6709C4.01025 44.9535 5.46902 43.9685 6.71875 42.7188C7.96842 41.469 8.95257 40.0102 9.66992 38.3438C9.94522 37.7046 10.1663 37.0489 10.3359 36.376C10.3912 36.156 10.5887 36.0012 10.8154 36.001Z" fill="black"/>
<path d="M35.5771 38.3779C36.8212 38.378 37.9666 38.5952 39.0137 39.0293C40.076 39.4635 40.9644 40.07 41.6777 40.8486L39.9473 42.5332C39.416 41.9493 38.7787 41.5 38.0352 41.1855C37.3069 40.8711 36.4873 40.7139 35.5771 40.7139C34.4996 40.7139 33.5052 40.9685 32.5947 41.4775C31.6842 41.9716 30.9482 42.6756 30.3867 43.5889C29.8404 44.4873 29.5674 45.5505 29.5674 46.7783C29.5674 48.0062 29.8477 49.0768 30.4092 49.9902C30.9707 50.8886 31.7067 51.5925 32.6172 52.1016C33.5276 52.5957 34.5219 52.8428 35.5996 52.8428C36.5858 52.8427 37.4809 52.663 38.2852 52.3037C39.0895 51.9293 39.735 51.4052 40.2207 50.7314C40.7213 50.0576 41.0245 49.2489 41.1309 48.3057H35.5537V46.127H43.4756C43.5666 46.5312 43.6123 46.958 43.6123 47.4072V47.4297C43.6123 48.9869 43.2634 50.3497 42.5654 51.5176C41.8824 52.6705 40.9337 53.569 39.7197 54.2129C38.5055 54.8567 37.1246 55.1786 35.5771 55.1787C34.4085 55.1787 33.3074 54.9691 32.2754 54.5498C31.2588 54.1306 30.3564 53.5463 29.5674 52.7979C28.7782 52.0342 28.1555 51.1432 27.7002 50.125C27.2601 49.0918 27.04 47.9762 27.04 46.7783C27.04 45.5804 27.2601 44.4723 27.7002 43.4541C28.1555 42.4209 28.77 41.5299 29.5439 40.7812C30.333 40.0177 31.2435 39.4261 32.2754 39.0068C33.3074 38.5876 34.4085 38.3779 35.5771 38.3779Z" fill="black"/>
<path fill-rule="evenodd" clip-rule="evenodd" d="M50.4756 43.0049C51.674 43.0049 52.6908 43.2596 53.5254 43.7686C54.3751 44.2777 55.0206 44.974 55.4609 45.8574C55.9009 46.7409 56.1211 47.7367 56.1211 48.8447C56.1211 49.0094 56.1127 49.1592 56.0977 49.2939C56.0977 49.4287 56.0905 49.5335 56.0752 49.6084H47.1064C47.2278 50.7464 47.6295 51.5999 48.3125 52.1689C49.0104 52.7379 49.7998 53.0224 50.6797 53.0225C51.469 53.0225 52.122 52.8503 52.6377 52.5059C53.1537 52.1465 53.5639 51.7047 53.8672 51.1807L55.8926 52.1465C55.392 53.0447 54.7095 53.7787 53.8447 54.3477C52.9798 54.9016 51.9018 55.1787 50.6123 55.1787C49.474 55.1787 48.4571 54.9166 47.5615 54.3926C46.6662 53.8685 45.9603 53.1497 45.4443 52.2363C44.9437 51.3229 44.6934 50.2822 44.6934 49.1143C44.6934 48.0212 44.9362 47.0104 45.4219 46.082C45.9075 45.1538 46.5824 44.4124 47.4473 43.8584C48.3276 43.2894 49.3373 43.0049 50.4756 43.0049ZM50.498 45.0713C49.6787 45.0713 48.98 45.3184 48.4033 45.8125C47.8267 46.3066 47.4395 46.9656 47.2422 47.7891H53.6846C53.6542 47.3998 53.5255 46.9954 53.2979 46.5762C53.0702 46.157 52.7213 45.805 52.251 45.5205C51.7957 45.2211 51.2113 45.0713 50.498 45.0713Z" fill="black"/>
<path d="M70.9668 43.0049C72.3328 43.0049 73.3499 43.4167 74.0176 44.2402C74.6855 45.0488 75.0185 46.127 75.0186 47.4746V54.8193H72.583V47.8789C72.583 46.9655 72.3784 46.2991 71.9688 45.8799C71.5741 45.4457 71.02 45.2285 70.3066 45.2285C69.7451 45.2286 69.2521 45.3858 68.8271 45.7002C68.4022 45.9997 68.0682 46.4115 67.8252 46.9355C67.5976 47.4596 67.4844 48.0437 67.4844 48.6875V54.8193H65.0488V47.8789C65.0488 46.9655 64.8433 46.2991 64.4336 45.8799C64.0236 45.4458 63.4472 45.2285 62.7041 45.2285C62.1578 45.2285 61.6792 45.3857 61.2695 45.7002C60.8599 46.0146 60.5337 46.434 60.291 46.958C60.0634 47.4821 59.9492 48.0661 59.9492 48.71V54.8193H57.4912V43.3643H59.8135V44.9365H59.9492C60.2832 44.3825 60.7689 43.9258 61.4062 43.5664C62.0436 43.1921 62.7494 43.0049 63.5234 43.0049C64.3884 43.0049 65.1245 43.207 65.7314 43.6113C66.3384 44.0156 66.7713 44.5248 67.0293 45.1387C67.4086 44.5398 67.9246 44.038 68.5771 43.6338C69.2294 43.2146 70.0263 43.0049 70.9668 43.0049Z" fill="black"/>
<path d="M79.1758 54.8193H76.7178V43.3643H79.1758V54.8193Z" fill="black"/>
<path d="M87.0977 43.0049C88.524 43.0049 89.5943 43.4242 90.3076 44.2627C91.0209 45.1012 91.3769 46.2094 91.377 47.5869V54.8193H88.9414V47.9014C88.9414 46.973 88.706 46.2991 88.2354 45.8799C87.765 45.4458 87.1502 45.2285 86.3916 45.2285C85.7998 45.2286 85.2837 45.3933 84.8438 45.7227C84.4038 46.0371 84.0548 46.4565 83.7969 46.9805C83.5542 47.5046 83.4326 48.0661 83.4326 48.665V54.8193H80.9736V43.3643H83.2959V44.9365H83.4326C83.7663 44.3825 84.2595 43.9258 84.9121 43.5664C85.5798 43.1921 86.3083 43.0049 87.0977 43.0049Z" fill="black"/>
<path d="M95.5674 54.8193H93.1094V43.3643H95.5674V54.8193Z" fill="black"/>
<path d="M77.9463 38.4229C78.4013 38.4229 78.7888 38.5801 79.1074 38.8945C79.4414 39.2089 79.6083 39.5909 79.6084 40.04C79.6084 40.4892 79.4413 40.8786 79.1074 41.208C78.7888 41.5225 78.4013 41.6797 77.9463 41.6797C77.4911 41.6796 77.0966 41.5224 76.7627 41.208C76.4441 40.8786 76.2852 40.4892 76.2852 40.04C76.2852 39.5909 76.4441 39.2089 76.7627 38.8945C77.0966 38.5802 77.4912 38.4229 77.9463 38.4229Z" fill="black"/>
<path d="M94.3379 38.4229C94.7931 38.4229 95.1804 38.5803 95.499 38.8945C95.8326 39.2089 96 39.5909 96 40.04C96 40.4892 95.8327 40.8786 95.499 41.208C95.1804 41.5224 94.7932 41.6797 94.3379 41.6797C93.8828 41.6796 93.4878 41.5224 93.1543 41.208C92.8358 40.8787 92.6768 40.4891 92.6768 40.04C92.6768 39.591 92.8357 39.2089 93.1543 38.8945C93.4878 38.5802 93.8828 38.423 94.3379 38.4229Z" fill="black"/>
</svg>
