<svg width="96" height="96" viewBox="0 0 96 96" fill="none" xmlns="http://www.w3.org/2000/svg">
<path d="M11.5889 43.9299H12.1193L13.6309 42.4183L13.7051 41.7766C12.8392 41.0122 11.7927 40.4813 10.6645 40.2339C9.5363 39.9865 8.36366 40.0307 7.25734 40.3625C6.15102 40.6943 5.14755 41.3027 4.34171 42.1301C3.53587 42.9576 2.95427 43.9768 2.65186 45.0915C2.82025 45.0224 3.0068 45.0113 3.18224 45.0596L6.20545 44.5611C6.20545 44.5611 6.35926 44.3065 6.43882 44.3224C7.08659 43.611 7.9818 43.1741 8.94119 43.1011C9.90057 43.0281 10.8516 43.3246 11.5995 43.9299H11.5889Z" fill="#EA4335"/>
<path d="M15.7841 45.0918C15.4366 43.8124 14.7232 42.6621 13.7315 41.7822L11.6099 43.9038C12.0521 44.2651 12.4064 44.722 12.6462 45.2402C12.886 45.7584 13.005 46.3243 12.9942 46.8952V47.2717C13.2422 47.2717 13.4877 47.3206 13.7168 47.4155C13.9459 47.5103 14.154 47.6494 14.3294 47.8248C14.5047 48.0001 14.6438 48.2082 14.7387 48.4373C14.8336 48.6664 14.8824 48.9119 14.8824 49.1599C14.8824 49.4079 14.8336 49.6534 14.7387 49.8825C14.6438 50.1116 14.5047 50.3197 14.3294 50.495C14.154 50.6704 13.9459 50.8095 13.7168 50.9044C13.4877 50.9992 13.2422 51.0481 12.9942 51.0481H9.21788L8.84131 51.43V53.6947L9.21788 54.0713H12.9942C14.0488 54.0795 15.0779 53.7481 15.9295 53.126C16.7811 52.504 17.4098 51.6243 17.7227 50.6173C18.0356 49.6102 18.016 48.5291 17.6669 47.534C17.3177 46.539 16.6576 45.6827 15.7841 45.0918Z" fill="#4285F4"/>
<path d="M5.43654 54.0494H9.2129V51.0262H5.43654C5.16749 51.0261 4.9016 50.9682 4.65687 50.8564L4.12649 51.0209L2.60428 52.5325L2.47168 53.0629C3.3253 53.7074 4.3669 54.054 5.43654 54.0494Z" fill="#34A853"/>
<path d="M5.43673 44.2432C4.41352 44.2493 3.41777 44.5748 2.58855 45.1743C1.75933 45.7738 1.13806 46.6174 0.811512 47.5871C0.484961 48.5568 0.469437 49.6043 0.767109 50.5833C1.06478 51.5623 1.66078 52.4238 2.47187 53.0476L4.66237 50.8571C4.384 50.7314 4.1403 50.5399 3.95218 50.2993C3.76406 50.0586 3.63713 49.7759 3.58228 49.4754C3.52744 49.1749 3.54632 48.8656 3.6373 48.574C3.72828 48.2824 3.88864 48.0173 4.10464 47.8013C4.32063 47.5853 4.5858 47.4249 4.87739 47.3339C5.16898 47.2429 5.4783 47.2241 5.77879 47.2789C6.07929 47.3338 6.36199 47.4607 6.60265 47.6488C6.8433 47.8369 7.03472 48.0806 7.16049 48.359L9.35098 46.1685C8.89122 45.5674 8.29865 45.0809 7.61961 44.7469C6.94056 44.4129 6.19346 44.2405 5.43673 44.2432Z" fill="#FBBC05"/>
<path d="M27.9994 51.939C27.3492 51.9473 26.704 51.8242 26.1025 51.5772C25.501 51.3303 24.9556 50.9644 24.4988 50.5016C24.0277 50.0585 23.6538 49.5222 23.4009 48.9269C23.148 48.3316 23.0216 47.6902 23.0297 47.0435C23.0219 46.3968 23.1485 45.7555 23.4014 45.1603C23.6543 44.565 24.028 44.0287 24.4988 43.5854C24.9533 43.1178 25.4978 42.747 26.0994 42.4955C26.701 42.2439 27.3473 42.1167 27.9994 42.1215C28.6207 42.1132 29.2375 42.2285 29.8138 42.4607C30.3902 42.6929 30.9147 43.0373 31.3567 43.474L30.4126 44.434C29.7661 43.8092 28.8984 43.4659 27.9994 43.4793C27.533 43.4736 27.0706 43.5649 26.6414 43.7475C26.2123 43.9302 25.8258 44.2001 25.5066 44.5401C25.1748 44.8692 24.9131 45.2621 24.7371 45.6951C24.5612 46.128 24.4747 46.5921 24.4829 47.0594C24.479 47.5214 24.5676 47.9794 24.7434 48.4066C24.9192 48.8338 25.1787 49.2215 25.5066 49.5469C26.1634 50.2015 27.0497 50.5738 27.9769 50.5847C28.9041 50.5956 29.799 50.2442 30.471 49.6053C30.887 49.1497 31.1423 48.5703 31.1976 47.9558H28.0153V46.598H32.5183C32.5625 46.8714 32.5803 47.1485 32.5713 47.4254C32.5993 47.9984 32.5108 48.5712 32.3112 49.109C32.1115 49.6469 31.8049 50.1387 31.4098 50.5547C30.9705 51.012 30.4397 51.3717 29.8521 51.6102C29.2645 51.8488 28.6332 51.9608 27.9994 51.939ZM38.4692 51.0373C37.8649 51.6166 37.0602 51.94 36.223 51.94C35.3859 51.94 34.5812 51.6166 33.9768 51.0373C33.6761 50.7457 33.4392 50.3947 33.2812 50.0066C33.1233 49.6186 33.0477 49.202 33.0593 48.7832C33.048 48.3644 33.1237 47.9479 33.2817 47.5599C33.4396 47.1719 33.6763 46.8209 33.9768 46.529C34.5818 45.951 35.3863 45.6284 36.223 45.6284C37.0598 45.6284 37.8643 45.951 38.4692 46.529C38.7697 46.8209 39.0065 47.1719 39.1644 47.5599C39.3223 47.9479 39.3981 48.3644 39.3868 48.7832C39.3977 49.2024 39.3213 49.6192 39.1624 50.0073C39.0035 50.3954 38.7657 50.7461 38.4639 51.0373H38.4692ZM34.9687 50.1516C35.1294 50.3232 35.3237 50.4601 35.5394 50.5536C35.7552 50.6472 35.9879 50.6954 36.223 50.6954C36.4582 50.6954 36.6909 50.6472 36.9066 50.5536C37.1224 50.4601 37.3167 50.3232 37.4774 50.1516C37.6527 49.9704 37.7899 49.756 37.881 49.521C37.9721 49.286 38.0152 49.0351 38.0078 48.7832C38.0156 48.5304 37.9727 48.2786 37.8816 48.0426C37.7905 47.8067 37.6531 47.5914 37.4774 47.4095C37.3145 47.2396 37.119 47.1044 36.9025 47.012C36.686 46.9196 36.4531 46.872 36.2177 46.872C35.9824 46.872 35.7494 46.9196 35.533 47.012C35.3165 47.1044 35.1209 47.2396 34.9581 47.4095C34.7824 47.5914 34.645 47.8067 34.5539 48.0426C34.4628 48.2786 34.4199 48.5304 34.4277 48.7832C34.421 49.0355 34.4649 49.2866 34.5569 49.5216C34.6489 49.7567 34.7871 49.9709 34.9634 50.1516H34.9687ZM45.3749 51.0373C44.7705 51.6166 43.9658 51.94 43.1287 51.94C42.2916 51.94 41.4868 51.6166 40.8825 51.0373C40.5817 50.7457 40.3448 50.3947 40.1869 50.0066C40.0289 49.6186 39.9533 49.202 39.9649 48.7832C39.9536 48.3644 40.0294 47.9479 40.1873 47.5599C40.3452 47.1719 40.582 46.8209 40.8825 46.529C41.4868 45.9497 42.2916 45.6263 43.1287 45.6263C43.9658 45.6263 44.7705 45.9497 45.3749 46.529C45.6754 46.8209 45.9121 47.1719 46.07 47.5599C46.228 47.9479 46.3037 48.3644 46.2924 48.7832C46.304 49.202 46.2284 49.6186 46.0705 50.0066C45.9125 50.3947 45.6756 50.7457 45.3749 51.0373ZM41.8743 50.1516C42.035 50.3232 42.2293 50.4601 42.4451 50.5536C42.6608 50.6472 42.8935 50.6954 43.1287 50.6954C43.3638 50.6954 43.5965 50.6472 43.8123 50.5536C44.028 50.4601 44.2223 50.3232 44.383 50.1516C44.5583 49.9704 44.6955 49.756 44.7866 49.521C44.8777 49.286 44.9208 49.0351 44.9134 48.7832C44.9212 48.5304 44.8783 48.2786 44.7872 48.0426C44.6961 47.8067 44.5587 47.5914 44.383 47.4095C44.2202 47.2396 44.0246 47.1044 43.8081 47.012C43.5916 46.9196 43.3587 46.872 43.1234 46.872C42.888 46.872 42.6551 46.9196 42.4386 47.012C42.2221 47.1044 42.0266 47.2396 41.8637 47.4095C41.688 47.5914 41.5506 47.8067 41.4595 48.0426C41.3684 48.2786 41.3255 48.5304 41.3333 48.7832C41.3266 49.0355 41.3706 49.2866 41.4626 49.5216C41.5546 49.7567 41.6928 49.9709 41.869 50.1516H41.8743ZM49.915 54.7712C49.2792 54.7915 48.6558 54.593 48.1488 54.209C47.6986 53.8706 47.344 53.421 47.1198 52.9043L48.3291 52.4004C48.4607 52.7092 48.6666 52.9807 48.9284 53.1907C49.2087 53.4166 49.5604 53.5351 49.9203 53.5248C50.1485 53.5387 50.377 53.5033 50.5902 53.4209C50.8035 53.3385 50.9965 53.2112 51.1561 53.0475C51.4756 52.662 51.6334 52.1678 51.5963 51.6685V51.2123H51.5486C51.3464 51.4524 51.0912 51.6421 50.803 51.7664C50.5149 51.8906 50.2018 51.9461 49.8884 51.9284C49.4902 51.9296 49.0961 51.8482 48.7309 51.6893C48.3658 51.5305 48.0375 51.2976 47.7669 51.0055C47.4733 50.7157 47.2415 50.3693 47.0856 49.9873C46.9297 49.6053 46.8529 49.1957 46.8599 48.7832C46.8526 48.3682 46.9292 47.9561 47.085 47.5715C47.2409 47.1869 47.4728 46.8377 47.7669 46.5449C48.0368 46.2516 48.3648 46.0176 48.7301 45.8578C49.0953 45.698 49.4898 45.6159 49.8884 45.6168C50.2258 45.6162 50.5591 45.6904 50.8644 45.8342C51.1284 45.9495 51.3638 46.1216 51.5539 46.3381H51.6016V45.8342H52.917V51.4828C52.9516 51.9297 52.8946 52.3789 52.7496 52.803C52.6046 53.227 52.3746 53.617 52.0736 53.9491C51.787 54.2234 51.4483 54.4374 51.0775 54.5786C50.7067 54.7198 50.3115 54.7853 49.915 54.7712ZM50.0104 50.6979C50.2369 50.7028 50.4617 50.6579 50.6689 50.5662C50.876 50.4746 51.0605 50.3384 51.2091 50.1675C51.5364 49.7925 51.7089 49.3071 51.6918 48.8097C51.7114 48.3039 51.539 47.8093 51.2091 47.4254C51.0607 47.2541 50.8763 47.1178 50.6691 47.0261C50.4619 46.9344 50.237 46.8896 50.0104 46.895C49.7778 46.8902 49.5467 46.935 49.3328 47.0265C49.1188 47.1179 48.9267 47.2539 48.7693 47.4254C48.4185 47.7955 48.2279 48.2892 48.2389 48.7991C48.2335 49.0492 48.2776 49.2979 48.3686 49.5309C48.4597 49.7639 48.5958 49.9766 48.7693 50.1569C48.9259 50.33 49.1176 50.4678 49.3316 50.561C49.5456 50.6543 49.777 50.701 50.0104 50.6979ZM55.256 42.4769V51.748H53.8717V42.4769H55.256ZM59.0535 51.939C58.639 51.9496 58.2266 51.8746 57.8424 51.7185C57.4582 51.5624 57.1103 51.3287 56.8206 51.032C56.5266 50.7375 56.2956 50.3862 56.1415 49.9996C55.9874 49.6131 55.9135 49.1992 55.9242 48.7832C55.9086 48.3661 55.977 47.9502 56.1256 47.5602C56.2741 47.1702 56.4996 46.8141 56.7888 46.5131C57.0612 46.2259 57.3907 45.9987 57.756 45.8462C58.1214 45.6937 58.5145 45.6191 58.9103 45.6274C59.2743 45.6235 59.6352 45.6939 59.9711 45.8342C60.2736 45.9563 60.5493 46.1365 60.7826 46.3646C60.9829 46.558 61.1608 46.7732 61.313 47.0064C61.4361 47.2032 61.5408 47.4109 61.6259 47.6269L61.7691 47.9876L57.526 49.7326C57.6543 50.0274 57.869 50.2764 58.1417 50.4469C58.4144 50.6173 58.7323 50.7011 59.0535 50.6873C59.3661 50.6881 59.6736 50.6079 59.9459 50.4546C60.2183 50.3012 60.4462 50.0798 60.6076 49.8121L61.6683 50.5281C61.3976 50.9154 61.0512 51.2438 60.65 51.4934C60.1729 51.7949 59.6178 51.9498 59.0535 51.939ZM57.282 48.6877L60.1037 47.5155C60.0168 47.3089 59.8613 47.1384 59.6635 47.0329C59.442 46.9078 59.1912 46.8437 58.9368 46.8473C58.5052 46.8584 58.0954 47.0395 57.7965 47.3511C57.6176 47.5223 57.4788 47.7308 57.3898 47.9619C57.3009 48.1929 57.2641 48.4408 57.282 48.6877Z" fill="#5F6368"/>
<path d="M69.0191 51.9394C68.4303 51.9495 67.8456 51.8406 67.3 51.6192C66.7545 51.3978 66.2592 51.0684 65.8441 50.6508C65.429 50.2332 65.1026 49.736 64.8844 49.1891C64.6662 48.6422 64.5608 48.0569 64.5744 47.4682C64.5608 46.8796 64.6662 46.2942 64.8844 45.7473C65.1026 45.2004 65.429 44.7033 65.8441 44.2857C66.2592 43.8681 66.7545 43.5387 67.3 43.3172C67.8456 43.0958 68.4303 42.9869 69.0191 42.9971C69.6149 42.9784 70.2073 43.0947 70.7519 43.3371C71.2966 43.5796 71.7794 43.942 72.1643 44.3973L71.4005 45.1398C71.1179 44.7844 70.7555 44.5007 70.3426 44.3118C69.9297 44.1228 69.478 44.034 69.0244 44.0525C68.5876 44.0427 68.1534 44.1212 67.7478 44.2835C67.3422 44.4457 66.9736 44.6883 66.6641 44.9966C66.3424 45.3202 66.091 45.7067 65.9258 46.1321C65.7606 46.5574 65.6851 47.0123 65.7041 47.4682C65.6851 47.9241 65.7606 48.379 65.9258 48.8043C66.091 49.2297 66.3424 49.6163 66.6641 49.9398C66.9736 50.2481 67.3422 50.4907 67.7478 50.6529C68.1534 50.8152 68.5876 50.8937 69.0244 50.8839C69.5312 50.8896 70.0329 50.781 70.492 50.5661C70.9511 50.3512 71.3559 50.0356 71.6763 49.6428L72.4401 50.4066C72.0402 50.8847 71.5381 51.2672 70.9709 51.5257C70.3594 51.808 69.6924 51.9493 69.0191 51.9394Z" fill="#5F6368"/>
<path d="M74.4929 51.7484H73.395V43.1826H74.4929V51.7484Z" fill="#5F6368"/>
<path d="M76.2856 46.5922C76.8609 46.0208 77.6388 45.7002 78.4496 45.7002C79.2604 45.7002 80.0383 46.0208 80.6135 46.5922C80.8949 46.8892 81.1147 47.2389 81.2603 47.6212C81.406 48.0035 81.4746 48.4109 81.4622 48.8198C81.4746 49.2287 81.406 49.6361 81.2603 50.0184C81.1147 50.4007 80.8949 50.7504 80.6135 51.0474C80.0383 51.6188 79.2604 51.9394 78.4496 51.9394C77.6388 51.9394 76.8609 51.6188 76.2856 51.0474C76.0043 50.7504 75.7845 50.4007 75.6388 50.0184C75.4932 49.6361 75.4246 49.2287 75.437 48.8198C75.4246 48.4109 75.4932 48.0035 75.6388 47.6212C75.7845 47.2389 76.0043 46.8892 76.2856 46.5922ZM77.1024 50.3579C77.2754 50.5407 77.4838 50.6864 77.715 50.7859C77.9462 50.8854 78.1952 50.9367 78.4469 50.9367C78.6986 50.9367 78.9476 50.8854 79.1788 50.7859C79.41 50.6864 79.6185 50.5407 79.7915 50.3579C79.9833 50.152 80.1323 49.91 80.2298 49.6459C80.3272 49.3818 80.3711 49.101 80.359 48.8198C80.3711 48.5386 80.3272 48.2578 80.2298 47.9937C80.1323 47.7296 79.9833 47.4876 79.7915 47.2817C79.6185 47.0989 79.41 46.9532 79.1788 46.8537C78.9476 46.7542 78.6986 46.7029 78.4469 46.7029C78.1952 46.7029 77.9462 46.7542 77.715 46.8537C77.4838 46.9532 77.2754 47.0989 77.1024 47.2817C76.9105 47.4876 76.7615 47.7296 76.664 47.9937C76.5666 48.2578 76.5227 48.5386 76.5349 48.8198C76.5241 49.1005 76.5692 49.3805 76.6675 49.6437C76.7659 49.9068 76.9155 50.1478 77.1077 50.3526L77.1024 50.3579Z" fill="#5F6368"/>
<path d="M87.5453 51.748H86.4845V50.9366H86.4527C86.2639 51.2448 85.9967 51.4973 85.6784 51.6685C85.348 51.8599 84.9729 51.9606 84.5911 51.9602C84.2811 51.9814 83.9703 51.9323 83.6819 51.8166C83.3935 51.7009 83.135 51.5215 82.9257 51.2919C82.5239 50.7837 82.322 50.146 82.3581 49.4992V45.8926H83.456V49.2977C83.456 50.3903 83.9387 50.9366 84.904 50.9366C85.1185 50.9432 85.3314 50.8986 85.5252 50.8063C85.7189 50.7141 85.8878 50.5769 86.0178 50.4062C86.3024 50.0455 86.4541 49.5979 86.4474 49.1385V45.8926H87.5453V51.748Z" fill="#5F6368"/>
<path d="M91.2745 51.9393C90.902 51.9405 90.5338 51.8611 90.195 51.7063C89.8562 51.5516 89.555 51.3253 89.312 51.0429C88.7622 50.4356 88.4677 49.6396 88.4899 48.8206C88.4677 48.0016 88.7622 47.2056 89.312 46.5983C89.555 46.316 89.8562 46.0897 90.195 45.9349C90.5338 45.7802 90.902 45.7007 91.2745 45.702C91.6917 45.6954 92.1039 45.7939 92.4732 45.9884C92.7976 46.1516 93.0723 46.3989 93.2687 46.7044H93.3165L93.2687 45.8929V43.1826H94.3666V51.7484H93.3059V50.9369H93.2581C93.0617 51.2424 92.787 51.4896 92.4625 51.6529C92.0965 51.8457 91.6882 51.9441 91.2745 51.9393ZM91.4548 50.9369C91.703 50.9405 91.9491 50.8913 92.1768 50.7925C92.4044 50.6938 92.6085 50.5477 92.7755 50.3641C93.1484 49.9394 93.339 49.3848 93.3059 48.8206C93.339 48.2564 93.1484 47.7019 92.7755 47.2772C92.6075 47.0925 92.4027 46.945 92.1744 46.8441C91.9461 46.7431 91.6992 46.691 91.4495 46.691C91.1998 46.691 90.953 46.7431 90.7246 46.8441C90.4963 46.945 90.2916 47.0925 90.1235 47.2772C89.9383 47.4861 89.7961 47.7295 89.705 47.9934C89.614 48.2573 89.576 48.5367 89.5931 48.8153C89.576 49.094 89.614 49.3733 89.705 49.6372C89.7961 49.9012 89.9383 50.1446 90.1235 50.3534C90.2907 50.5404 90.4961 50.6892 90.7257 50.7899C90.9554 50.8905 91.2041 50.9407 91.4548 50.9369Z" fill="#5F6368"/>
</svg>
