<svg width="24" height="24" viewBox="0 0 24 24" fill="none" xmlns="http://www.w3.org/2000/svg">
<path fill-rule="evenodd" clip-rule="evenodd" d="M9.25131 2.39553C10.7781 1.93765 12.3965 1.87642 13.9535 2.21779C15.5105 2.55926 16.9556 3.29184 18.1507 4.3467L18.1449 4.39553L18.1869 4.35451C19.5556 5.56885 20.5404 7.15609 21.0199 8.92189C22.2253 9.73724 23.1366 10.9188 23.6185 12.292C24.1004 13.6654 24.1275 15.158 23.6956 16.5479C23.2638 17.9377 22.3953 19.1513 21.2201 20.0098C20.0448 20.8682 18.6246 21.3258 17.1693 21.3145H11.9574L11.9281 21.2852H6.73862C5.2624 21.2916 3.8249 20.8134 2.64682 19.9238L2.65365 19.8936L2.64584 19.9024C1.5265 19.0414 0.704125 17.852 0.293303 16.501C-0.117525 15.1499 -0.0958591 13.7036 0.354826 12.3653C0.805493 11.0272 1.66287 9.86344 2.80697 9.03615C2.88409 8.9804 2.9622 8.92537 3.04135 8.87306C2.99198 8.88584 2.94346 8.9024 2.89584 8.92189C3.31322 7.38346 4.11572 5.97694 5.22787 4.83498C6.33996 3.69309 7.72457 2.85346 9.25131 2.39553ZM15.2445 7.31838C14.2123 6.48305 12.8996 6.07413 11.5755 6.17482C10.2514 6.27552 9.01545 6.87851 8.12143 7.86037C8.10302 7.85686 8.08255 7.86499 8.0599 7.87892C8.64415 7.99305 9.21367 8.18186 9.75131 8.44631C10.6883 8.90727 11.5056 9.57884 12.14 10.4082L9.11752 13.4307C8.94395 13.0466 8.67909 12.7108 8.34701 12.4512C8.01489 12.1916 7.62499 12.0161 7.21029 11.9404C6.79557 11.8648 6.36859 11.8911 5.96615 12.0166C5.56382 12.1422 5.19779 12.3631 4.89975 12.6612C4.60174 12.9592 4.3808 13.3253 4.25522 13.7276C4.12966 14.13 4.10338 14.557 4.17904 14.9717C4.25473 15.3864 4.43019 15.7763 4.68979 16.1084C4.94939 16.4405 5.28515 16.7054 5.66928 16.8789L5.66733 16.8799C6.00387 17.0329 6.36889 17.1132 6.73862 17.1133H11.9505V17.1494L11.9574 17.1426H17.1693C17.5113 17.1426 17.8503 17.0752 18.1663 16.9444C18.4825 16.8134 18.7701 16.6209 19.0121 16.3789C19.254 16.1369 19.4465 15.8494 19.5775 15.5332C19.7083 15.2172 19.7757 14.8782 19.7757 14.5362C19.7757 14.1941 19.7084 13.8551 19.5775 13.5391C19.4465 13.2229 19.254 12.9354 19.0121 12.6934C18.7701 12.4515 18.4824 12.2599 18.1663 12.1289C17.8503 11.998 17.5114 11.9307 17.1693 11.9307V11.4112C17.1842 10.6233 17.0197 9.8421 16.6888 9.12697C16.3656 8.42863 15.8914 7.8113 15.3011 7.31838H15.2445Z" fill="black"/>
</svg>
