<svg width="24" height="24" viewBox="0 0 24 24" fill="none" xmlns="http://www.w3.org/2000/svg">
<path d="M15.2296 7.3187H15.9616L18.0478 5.23248L18.1503 4.34676C16.9552 3.2919 15.5109 2.55913 13.9538 2.21767C12.3967 1.8762 10.7783 1.93731 9.25147 2.39523C7.7246 2.85314 6.33967 3.69274 5.2275 4.83472C4.11533 5.9767 3.31265 7.38335 2.89527 8.9218C3.12769 8.82653 3.38514 8.81109 3.62728 8.87787L7.79971 8.18979C7.79971 8.18979 8.012 7.83843 8.1218 7.86039C9.01582 6.87852 10.2513 6.27552 11.5754 6.17482C12.8995 6.07412 14.212 6.48334 15.2442 7.3187H15.2296Z" fill="#EA4335"/>
<path d="M21.0197 8.92181C20.5402 7.15594 19.5556 5.56845 18.1868 4.35409L15.2588 7.28211C15.869 7.78073 16.3581 8.41141 16.689 9.12658C17.02 9.84175 17.1842 10.6227 17.1693 11.4106V11.9304C17.5116 11.9304 17.8504 11.9978 18.1666 12.1287C18.4828 12.2597 18.77 12.4516 19.012 12.6936C19.254 12.9356 19.446 13.2229 19.5769 13.539C19.7079 13.8552 19.7753 14.1941 19.7753 14.5363C19.7753 14.8785 19.7079 15.2174 19.5769 15.5335C19.446 15.8497 19.254 16.137 19.012 16.379C18.77 16.621 18.4828 16.8129 18.1666 16.9439C17.8504 17.0748 17.5116 17.1422 17.1693 17.1422H11.9575L11.4377 17.6693V20.7949L11.9575 21.3147H17.1693C18.6247 21.326 20.0451 20.8686 21.2204 20.0101C22.3957 19.1516 23.2634 17.9376 23.6953 16.5477C24.1271 15.1577 24.1001 13.6658 23.6182 12.2924C23.1364 10.919 22.2253 9.73722 21.0197 8.92181Z" fill="#4285F4"/>
<path d="M6.73842 21.2854H11.9503V17.1129H6.73842C6.3671 17.1129 6.00013 17.033 5.66237 16.8787L4.93036 17.1056L2.82951 19.1918L2.6465 19.9239C3.82462 20.8135 5.26217 21.2918 6.73842 21.2854Z" fill="#34A853"/>
<path d="M6.73838 7.75065C5.32621 7.75909 3.95193 8.20838 2.8075 9.03577C1.66307 9.86315 0.805627 11.0273 0.354941 12.3657C-0.0957438 13.704 -0.117169 15.1497 0.293658 16.5008C0.704486 17.852 1.52705 19.041 2.64646 19.902L5.66965 16.8788C5.28546 16.7052 4.94913 16.441 4.68949 16.1089C4.42986 15.7767 4.25468 15.3866 4.17899 14.9718C4.10329 14.5571 4.12935 14.1302 4.25491 13.7278C4.38048 13.3253 4.6018 12.9594 4.8999 12.6613C5.198 12.3632 5.56397 12.1419 5.96641 12.0163C6.36885 11.8907 6.79575 11.8647 7.21047 11.9404C7.62519 12.0161 8.01536 12.1912 8.3475 12.4509C8.67963 12.7105 8.94382 13.0468 9.1174 13.431L12.1406 10.4078C11.506 9.5783 10.6882 8.90678 9.75104 8.44582C8.81387 7.98485 7.78277 7.74693 6.73838 7.75065Z" fill="#FBBC05"/>
</svg>
