<svg width="96" height="96" viewBox="0 0 96 96" fill="none" xmlns="http://www.w3.org/2000/svg">
<path fill-rule="evenodd" clip-rule="evenodd" d="M49.8864 45.6155C50.2236 45.6149 50.5579 45.6906 50.863 45.8342C51.127 45.9495 51.3643 46.1216 51.5544 46.3381H51.6013V45.8342H52.9177V51.4827C52.9522 51.9294 52.8947 52.379 52.7497 52.803C52.6048 53.2265 52.3744 53.6157 52.0739 53.9475C51.7875 54.2215 51.4481 54.4352 51.0778 54.5764C50.7071 54.7176 50.3102 54.7858 49.9138 54.7717C49.2784 54.7917 48.6549 54.5929 48.1481 54.2092C47.6983 53.871 47.345 53.4208 47.1208 52.9045L48.3278 52.4006C48.4594 52.7093 48.6676 52.9797 48.9294 53.1897C49.2096 53.4153 49.562 53.5359 49.9216 53.5256C50.1491 53.5392 50.3769 53.5023 50.5895 53.4202C50.8028 53.3378 50.9963 53.2088 51.1559 53.0452C51.4748 52.6599 51.6344 52.165 51.5974 51.6662V51.2131H51.5466C51.3448 51.4522 51.0916 51.6438 50.8044 51.7678C50.5162 51.8921 50.1997 51.9457 49.8864 51.928C49.4888 51.9289 49.0948 51.8483 48.7302 51.6897C48.365 51.5308 48.0359 51.2982 47.7653 51.0061C47.4717 50.7163 47.2415 50.3685 47.0856 49.9866C46.9299 49.6048 46.8522 49.1957 46.8591 48.7834C46.8518 48.3688 46.93 47.9568 47.0856 47.5725C47.2413 47.1883 47.4717 46.8377 47.7653 46.5452C48.0353 46.2518 48.3649 46.0174 48.7302 45.8577C49.0948 45.6982 49.4884 45.6148 49.8864 45.6155ZM50.0114 46.8928C49.7787 46.888 49.5457 46.9342 49.3317 47.0256C49.1181 47.117 48.9264 47.253 48.7692 47.4241C48.4184 47.7942 48.2269 48.2892 48.238 48.7991C48.2327 49.0486 48.2762 49.297 48.3669 49.5295C48.4578 49.7622 48.5961 49.9745 48.7692 50.1545C48.9258 50.3276 49.1177 50.4675 49.3317 50.5608C49.5456 50.6539 49.7782 50.7006 50.0114 50.6975C50.2373 50.7023 50.461 50.6561 50.6677 50.5647C50.8748 50.473 51.062 50.3372 51.2106 50.1662C51.5368 49.7918 51.7078 49.3071 51.6911 48.8108C51.7107 48.3052 51.5402 47.808 51.2106 47.4241C51.0622 47.2528 50.8749 47.1173 50.6677 47.0256C50.4611 46.9344 50.2372 46.8877 50.0114 46.8928Z" fill="black"/>
<path fill-rule="evenodd" clip-rule="evenodd" d="M7.25751 40.3616C8.36344 40.03 9.53598 39.9854 10.6638 40.2327C11.7919 40.4801 12.8408 41.0113 13.7067 41.7756L13.6989 41.8108L13.7302 41.7834C14.7218 42.6633 15.4374 43.8127 15.7849 45.092C16.6579 45.6828 17.3187 46.5387 17.6677 47.5334C18.0166 48.5281 18.0349 49.6088 17.7224 50.6155C17.4095 51.6225 16.7809 52.5051 15.9294 53.1272C15.0784 53.7485 14.0494 54.0803 12.9958 54.0725H9.21844L9.19501 54.0491H5.43719C4.36818 54.0537 3.32569 53.7085 2.47235 53.0647L2.47626 53.0373L2.47235 53.0452C1.66167 52.4216 1.06306 51.5627 0.765319 50.5842C0.467751 49.6056 0.485973 48.5576 0.812194 47.5881C1.13875 46.6184 1.76032 45.7736 2.58954 45.1741C2.64616 45.1331 2.70719 45.0991 2.76532 45.0608C2.72732 45.0703 2.68863 45.077 2.65204 45.092C2.95427 43.978 3.53448 42.9583 4.33954 42.1311C5.14538 41.3037 6.15119 40.6933 7.25751 40.3616ZM8.9411 43.0998C7.98172 43.1728 7.08497 43.6111 6.43719 44.3225C6.42388 44.3203 6.41052 44.328 6.39423 44.3381C6.81723 44.4208 7.23151 44.5568 7.62079 44.7483C8.29866 45.0821 8.89206 45.5661 9.35126 46.1662L7.15985 48.3577C7.03408 48.0796 6.84171 47.8347 6.60126 47.6467C6.36087 47.4591 6.07702 47.3343 5.77704 47.2795C5.47732 47.225 5.16948 47.2437 4.8786 47.3342C4.58764 47.425 4.3209 47.5838 4.10516 47.7991C3.88938 48.0148 3.72744 48.2812 3.63641 48.5725C3.54544 48.8641 3.52689 49.1744 3.58173 49.4748C3.63657 49.7753 3.7647 50.0584 3.95282 50.2991C4.14059 50.539 4.38228 50.732 4.65985 50.8577C4.90458 50.9694 5.16815 51.0256 5.43719 51.0256H9.21063V51.0569L9.21844 51.0491H12.9958C13.2432 51.0488 13.4899 50.9992 13.7184 50.9045C13.9467 50.8098 14.153 50.6691 14.3278 50.4944C14.5032 50.319 14.6431 50.1102 14.738 49.8811C14.8327 49.6522 14.8825 49.4062 14.8825 49.1584C14.8824 48.9108 14.8328 48.6646 14.738 48.4358C14.6431 48.2071 14.5029 47.9976 14.3278 47.8225C14.1533 47.6484 13.9461 47.5108 13.7184 47.4162C13.4899 47.3216 13.2432 47.2719 12.9958 47.2717V46.8928C13.0063 46.3225 12.8838 45.7581 12.6442 45.2405C12.4095 44.7333 12.0655 44.2855 11.6364 43.928H11.5974C10.8498 43.3238 9.89955 43.027 8.9411 43.0998Z" fill="black"/>
<path d="M83.4567 49.2991C83.4573 50.3904 83.9412 50.9358 84.9059 50.9358C85.1198 50.9421 85.3339 50.8989 85.527 50.8069C85.7203 50.7146 85.8895 50.5749 86.0192 50.4045C86.3029 50.0444 86.4554 49.5973 86.4489 49.1389V45.8928H87.5466V51.7483H86.4841V50.9358H86.4528C86.2643 51.2435 85.9971 51.4951 85.6794 51.6662C85.349 51.8577 84.9714 51.9596 84.5895 51.9592C84.2803 51.9801 83.971 51.93 83.6833 51.8147C83.3949 51.699 83.1348 51.5209 82.9255 51.2912C82.5238 50.7831 82.3229 50.145 82.3591 49.4983V45.8928H83.4567V49.2991Z" fill="black"/>
<path d="M27.9997 42.1194C28.6203 42.1112 29.2365 42.2275 29.8122 42.4592C30.3886 42.6914 30.9131 43.0382 31.3552 43.4748L30.4138 44.4319C29.7674 43.8072 28.8984 43.4655 27.9997 43.4787C27.5333 43.473 27.0695 43.5657 26.6403 43.7483C26.2116 43.9309 25.8265 44.2015 25.5075 44.5412C25.1761 44.87 24.9139 45.2612 24.738 45.6936C24.5621 46.1266 24.4759 46.5935 24.4841 47.0608C24.4804 47.5215 24.5668 47.9784 24.7419 48.4045C24.9177 48.8317 25.1796 49.2197 25.5075 49.5452C26.1642 50.1996 27.0492 50.5732 27.9763 50.5842C28.9035 50.5951 29.8003 50.2427 30.4724 49.6037C30.8876 49.1484 31.1436 48.5692 31.1989 47.9553H28.0153V46.5959H32.5192C32.5634 46.8691 32.5789 47.1475 32.57 47.4241C32.598 47.9967 32.5115 48.5702 32.3122 49.1077C32.1127 49.6451 31.8046 50.1372 31.4099 50.553C30.9705 51.0103 30.4389 51.373 29.8513 51.6116C29.2642 51.8497 28.6329 51.9614 27.9997 51.9397C27.3495 51.948 26.7028 51.8234 26.1013 51.5764C25.5006 51.3296 24.956 50.9642 24.4997 50.5022C24.0291 50.0595 23.6549 49.5225 23.402 48.928C23.1491 48.3327 23.0229 47.688 23.0309 47.0412C23.0234 46.3951 23.1494 45.7532 23.402 45.1584C23.6549 44.5638 24.0292 44.0272 24.4997 43.5842C24.9537 43.1174 25.4966 42.7458 26.0974 42.4944C26.699 42.2428 27.3476 42.1145 27.9997 42.1194Z" fill="black"/>
<path fill-rule="evenodd" clip-rule="evenodd" d="M36.2224 45.6272C37.0591 45.6272 37.8635 45.9515 38.4684 46.5295C38.7688 46.8213 39.0059 47.1729 39.1638 47.5608C39.3214 47.9485 39.3977 48.3651 39.3864 48.7834C39.3972 49.2019 39.3222 49.6186 39.1638 50.0061C39.0049 50.394 38.7662 50.7462 38.4645 51.0373C37.8603 51.6163 37.0593 51.9397 36.2224 51.9397C35.3854 51.9396 34.5805 51.6165 33.9763 51.0373C33.6755 50.7457 33.4389 50.3941 33.2809 50.0061C33.1231 49.6183 33.0468 49.202 33.0583 48.7834C33.047 48.3652 33.1234 47.9484 33.2809 47.5608C33.4388 47.173 33.676 46.8213 33.9763 46.5295C34.5811 45.9515 35.3857 45.6273 36.2224 45.6272ZM36.2184 46.8733C35.9831 46.8733 35.7474 46.9176 35.5309 47.01C35.3148 47.1023 35.1194 47.2388 34.9567 47.4084C34.7814 47.5901 34.6454 47.8058 34.5544 48.0412C34.4633 48.2772 34.4177 48.5306 34.4255 48.7834C34.4189 49.0355 34.4664 49.2869 34.5583 49.5217C34.6503 49.7563 34.7886 49.9702 34.9645 50.1506C35.1252 50.3222 35.3231 50.4594 35.5388 50.553C35.7544 50.6465 35.9873 50.6936 36.2224 50.6936C36.4574 50.6936 36.6902 50.6465 36.9059 50.553C37.1216 50.4594 37.3155 50.3222 37.4763 50.1506C37.6514 49.9696 37.7914 49.7566 37.8825 49.5217C37.9735 49.2869 38.0148 49.0351 38.0075 48.7834C38.0153 48.5306 37.9736 48.2772 37.8825 48.0412C37.7914 47.8054 37.6518 47.5903 37.4763 47.4084C37.3135 47.2388 37.1182 47.1022 36.902 47.01C36.6861 46.918 36.4532 46.8734 36.2184 46.8733Z" fill="black"/>
<path fill-rule="evenodd" clip-rule="evenodd" d="M43.1286 45.6272C43.9656 45.6273 44.7705 45.9503 45.3747 46.5295C45.6749 46.8212 45.9122 47.173 46.07 47.5608C46.2276 47.9484 46.3039 48.3652 46.2927 48.7834C46.3041 49.202 46.2279 49.6183 46.07 50.0061C45.9121 50.3941 45.6755 50.7457 45.3747 51.0373C44.7705 51.6165 43.9655 51.9396 43.1286 51.9397C42.2917 51.9397 41.4868 51.6163 40.8825 51.0373C40.5818 50.7457 40.3452 50.3941 40.1872 50.0061C40.0293 49.6183 39.9531 49.202 39.9645 48.7834C39.9533 48.3651 40.0296 47.9485 40.1872 47.5608C40.3451 47.1729 40.5821 46.8213 40.8825 46.5295C41.4868 45.9502 42.2915 45.6272 43.1286 45.6272ZM43.1247 46.8733C42.8893 46.8733 42.6537 46.9176 42.4372 47.01C42.2209 47.1023 42.0257 47.2387 41.863 47.4084C41.6876 47.59 41.5517 47.8058 41.4606 48.0412C41.3695 48.2772 41.3239 48.5306 41.3317 48.7834C41.3251 49.0355 41.3687 49.2869 41.4606 49.5217C41.5525 49.7563 41.6912 49.9701 41.8669 50.1506H41.8747C42.0354 50.3222 42.2293 50.4594 42.445 50.553C42.6607 50.6465 42.8935 50.6936 43.1286 50.6936C43.3637 50.6935 43.5965 50.6465 43.8122 50.553C44.0278 50.4594 44.2218 50.3222 44.3825 50.1506C44.5573 49.9699 44.6938 49.7561 44.7849 49.5217C44.8758 49.2869 44.921 49.0351 44.9138 48.7834C44.9216 48.5306 44.8799 48.2772 44.7888 48.0412C44.6977 47.8054 44.5581 47.5903 44.3825 47.4084C44.2197 47.2387 44.0246 47.1023 43.8083 47.01C43.5924 46.9179 43.3594 46.8735 43.1247 46.8733Z" fill="black"/>
<path fill-rule="evenodd" clip-rule="evenodd" d="M58.9099 45.6272C59.2738 45.6233 59.6365 45.6939 59.9724 45.8342C60.2743 45.9563 60.5481 46.1378 60.7809 46.3655C60.9812 46.5588 61.16 46.773 61.3122 47.0061C61.4353 47.2029 61.5396 47.4112 61.6247 47.6272L61.7692 47.9866L57.527 49.7327C57.6554 50.027 57.868 50.2773 58.1403 50.4475C58.413 50.6179 58.7331 50.6996 59.0544 50.6858C59.3662 50.6864 59.6732 50.6081 59.945 50.4553C60.2174 50.3019 60.4477 50.0785 60.6091 49.8108L61.6677 50.5295C61.3971 50.9162 61.0489 51.245 60.6481 51.4944C60.1717 51.7949 59.6176 51.9502 59.0544 51.9397C58.6401 51.9503 58.2274 51.8729 57.8434 51.717C57.4596 51.5611 57.1096 51.3297 56.82 51.0334C56.526 50.7389 56.2944 50.3849 56.1403 49.9983C55.9866 49.6122 55.9148 49.1989 55.9255 48.7834C55.9098 48.3668 55.9765 47.9505 56.1247 47.5608C56.2731 47.171 56.4999 46.8148 56.7888 46.5139C57.0612 46.2267 57.3922 45.9985 57.7575 45.8459C58.1224 45.6938 58.5146 45.619 58.9099 45.6272ZM58.9372 46.8459C58.5058 46.8571 58.0954 47.0386 57.7966 47.3498C57.6177 47.521 57.4793 47.7321 57.3903 47.9631C57.3019 48.1934 57.2633 48.4398 57.2809 48.6858L60.1052 47.5139C60.0183 47.3077 59.861 47.139 59.6638 47.0334C59.4425 46.9085 59.1913 46.8426 58.9372 46.8459Z" fill="black"/>
<path d="M69.0192 42.9944C69.615 42.9758 70.2091 43.0957 70.7536 43.3381C71.2973 43.5806 71.7794 43.9421 72.1638 44.3967L71.402 45.1389C71.1197 44.7837 70.756 44.4997 70.3434 44.3108C69.9306 44.1218 69.4768 44.0345 69.0231 44.053C68.5868 44.0433 68.1511 44.1213 67.7458 44.2834C67.3412 44.4456 66.9726 44.6868 66.6638 44.9944C66.342 45.3179 66.0907 45.7058 65.9255 46.1311C65.7603 46.5563 65.6839 47.0112 65.7028 47.467C65.6838 47.9228 65.7604 48.3778 65.9255 48.803C66.0907 49.2283 66.342 49.6161 66.6638 49.9397C66.9726 50.2473 67.3411 50.4884 67.7458 50.6506C68.1511 50.8127 68.5868 50.8908 69.0231 50.8811C69.53 50.8868 70.0328 50.7796 70.4919 50.5647C70.9506 50.35 71.3553 50.0352 71.6755 49.6428L72.4411 50.4045C72.0414 50.8824 71.5392 51.2671 70.9724 51.5256C70.361 51.8079 69.6925 51.9496 69.0192 51.9397C68.4308 51.9498 67.8458 51.8406 67.3005 51.6194C66.7549 51.398 66.2585 51.0682 65.8434 50.6506C65.4285 50.2332 65.1007 49.7363 64.8825 49.1897C64.6643 48.6428 64.5602 48.0557 64.5739 47.467C64.5603 46.8793 64.665 46.2945 64.8825 45.7483C65.1007 45.2014 65.4283 44.701 65.8434 44.2834C66.2585 43.866 66.7551 43.5361 67.3005 43.3147C67.8458 43.0935 68.4309 42.9842 69.0192 42.9944Z" fill="black"/>
<path fill-rule="evenodd" clip-rule="evenodd" d="M78.4489 45.7014C79.2596 45.7014 80.0377 46.0209 80.613 46.592C80.894 46.8887 81.1158 47.2375 81.2614 47.6194C81.4069 48.0013 81.4729 48.4101 81.4606 48.8186C81.473 49.2272 81.4068 49.6358 81.2614 50.0178C81.1158 50.4001 80.8943 50.752 80.613 51.0491C80.0378 51.6197 79.2592 51.9397 78.4489 51.9397C77.6386 51.9395 76.86 51.62 76.2849 51.0491C76.0035 50.752 75.786 50.4001 75.6403 50.0178C75.4947 49.6355 75.4248 49.2275 75.4372 48.8186C75.425 48.4101 75.4948 48.0013 75.6403 47.6194C75.7859 47.238 76.0042 46.8884 76.2849 46.592C76.86 46.0208 77.6383 45.7015 78.4489 45.7014ZM78.445 46.7014C78.1939 46.7016 77.9452 46.7545 77.7145 46.8537C77.4835 46.9533 77.2742 47.1007 77.1013 47.2834C76.91 47.489 76.761 47.7309 76.6638 47.9944C76.5666 48.2579 76.5229 48.538 76.5349 48.8186C76.5241 49.0991 76.5695 49.3799 76.6677 49.6428C76.766 49.9059 76.9169 50.1489 77.1091 50.3537L77.1013 50.3577C77.2742 50.5405 77.4834 50.6878 77.7145 50.7873C77.9451 50.8866 78.194 50.9355 78.445 50.9358C78.6967 50.9358 78.9482 50.8869 79.1794 50.7873C79.4105 50.6878 79.6197 50.5405 79.7927 50.3577C79.9841 50.1521 80.1329 49.9102 80.2302 49.6467C80.3276 49.3826 80.3712 49.0998 80.3591 48.8186C80.371 48.5381 80.3273 48.2578 80.2302 47.9944C80.133 47.731 79.9838 47.489 79.7927 47.2834C79.6198 47.1008 79.4103 46.9533 79.1794 46.8537C78.9482 46.7542 78.6967 46.7014 78.445 46.7014Z" fill="black"/>
<path fill-rule="evenodd" clip-rule="evenodd" d="M94.3669 51.7483H93.3044V50.9358H93.2575C93.0611 51.2413 92.7851 51.4874 92.4606 51.6506C92.0948 51.8432 91.6866 51.9445 91.2731 51.9397C90.9011 51.9408 90.5334 51.8598 90.195 51.7053C89.8562 51.5506 89.5551 51.3236 89.3122 51.0412C88.7624 50.4339 88.4657 49.6375 88.488 48.8186C88.4661 48 88.7626 47.203 89.3122 46.5959C89.5549 46.3142 89.8568 46.0903 90.195 45.9358C90.5335 45.7812 90.901 45.7003 91.2731 45.7014C91.6901 45.6948 92.1033 45.7923 92.4724 45.9866C92.7968 46.1498 93.0728 46.3998 93.2692 46.7053H93.3161L93.2692 45.8928V43.1819H94.3669V51.7483ZM91.4489 46.6897C91.1993 46.6897 90.9506 46.7411 90.7224 46.842C90.495 46.9428 90.2922 47.0918 90.1247 47.2756C89.9394 47.4845 89.7938 47.7304 89.7028 47.9944C89.6124 48.2577 89.5763 48.5368 89.5934 48.8147C89.5764 49.0927 89.6123 49.3716 89.7028 49.635C89.7938 49.8989 89.9394 50.1449 90.1247 50.3537C90.2916 50.54 90.4971 50.6869 90.7263 50.7873C90.9554 50.8878 91.2027 50.9393 91.4528 50.9358C91.7008 50.9394 91.948 50.8898 92.1755 50.7912C92.4032 50.6925 92.6101 50.5452 92.777 50.3616C93.1489 49.9371 93.3375 49.382 93.3044 48.8186C93.3372 48.255 93.1494 47.6999 92.777 47.2756C92.6092 47.0912 92.4035 46.943 92.1755 46.842C91.9471 46.7411 91.6986 46.6897 91.4489 46.6897Z" fill="black"/>
<path d="M55.2575 51.7483H53.8708V42.4748H55.2575V51.7483Z" fill="black"/>
<path d="M74.4919 51.7483H73.3942V43.1819H74.4919V51.7483Z" fill="black"/>
</svg>
