<svg width="24" height="24" viewBox="0 0 24 24" fill="none" xmlns="http://www.w3.org/2000/svg">
<path d="M23.5201 12.2727C23.5201 11.4218 23.4437 10.6036 23.3019 9.81819H12V14.4655H18.4582C18.1746 15.96 17.3237 17.2255 16.0473 18.0764V21.0982H19.9419C22.211 19.0037 23.5201 15.9273 23.5201 12.2727Z" fill="#4285F4"/>
<path d="M12 24C15.24 24 17.9564 22.9309 19.9419 21.0982L16.0473 18.0764C14.9782 18.7964 13.6146 19.2327 12 19.2327C8.88003 19.2327 6.22912 17.1273 5.28003 14.2909H1.2873V17.3891C3.26184 21.3055 7.30912 24 12 24Z" fill="#34A853"/>
<path d="M5.28004 14.28C5.04004 13.56 4.89822 12.7963 4.89822 12C4.89822 11.2036 5.04004 10.44 5.28004 9.71995V6.62177H1.2873C0.469122 8.23631 3.05176e-05 10.0581 3.05176e-05 12C3.05176e-05 13.9418 0.469122 15.7636 1.2873 17.3781L4.3964 14.9563L5.28004 14.28Z" fill="#FBBC05"/>
<path d="M12 4.77819C13.7673 4.77819 15.3382 5.3891 16.5928 6.56728L20.0291 3.13091C17.9455 1.18909 15.24 0 12 0C7.30912 0 3.26185 2.69449 1.2873 6.62177L5.28004 9.71995C6.22913 6.88358 8.88003 4.77819 12 4.77819Z" fill="#EA4335"/>
</svg>
