<svg width="24" height="24" viewBox="0 0 24 24" fill="none" xmlns="http://www.w3.org/2000/svg">
<path d="M5.08008 0H6.16188V1.06882H7.15147V0H8.23332V3.23664H7.15152V2.15282H6.16193V3.23664H5.08012L5.08008 0Z" fill="black"/>
<path d="M9.65592 1.07332H8.70355V0H11.6906V1.07332H10.7378V3.23664H9.65597L9.65592 1.07332Z" fill="black"/>
<path d="M12.1647 0H13.2927L13.9866 1.13726L14.6798 0H15.8082V3.23664H14.7309V1.63238L13.9866 2.78319H13.968L13.2232 1.63238V3.23664H12.1647V0Z" fill="black"/>
<path d="M16.3466 0H17.4288V2.16679H18.9501V3.23664H16.3466V0Z" fill="black"/>
<path d="M5.06165 22.0331L3.51562 4.6875H20.5219L18.9759 22.0331L11.9999 23.9939" fill="#E34F26"/>
<path d="M12.0376 22.4856L17.6561 20.9396L18.9758 6.0827H12.0376" fill="#EF652A"/>
<path d="M12.0376 12.5308H9.20953L9.02099 10.3437H12.0376V8.23206H6.68311L6.72081 8.79767L7.24872 14.6801H12.0376V12.5308ZM12.0376 18.0738H11.9999L9.62432 17.4328L9.47349 15.7359H7.36185L7.6258 19.0919L11.9999 20.2986H12.0376V18.0738Z" fill="#EBEBEB"/>
<path d="M12.0376 12.5308V14.6801H14.6772L14.4132 17.4328L12.0376 18.0738V20.2986L16.4117 19.0919L16.4494 18.7148L16.9396 13.0964L17.0151 12.5308H12.0376ZM12.0376 8.23206V10.3437H17.2036L17.2413 9.8912L17.3544 8.79767L17.3921 8.23206H12.0376Z" fill="white"/>
</svg>
