<svg width="24" height="24" viewBox="0 0 24 24" fill="none" xmlns="http://www.w3.org/2000/svg">
<path d="M11.623 17.5889H6.06836V16.6631H11.623V17.5889Z" fill="black"/>
<path d="M15.1885 10.5605C15.1885 10.9376 15.1546 11.2463 15.0518 11.5205C14.9489 11.7948 14.8112 12.0003 14.6055 12.2061C14.434 12.3774 14.1941 12.5486 13.9199 12.6172C13.6456 12.72 13.3712 12.7891 13.0283 12.7891C12.5484 12.789 12.1366 12.686 11.8281 12.5146C11.5197 12.3432 11.2457 12.1032 11.04 11.8633L11.8975 10.9033C12.0687 11.1088 12.2399 11.2458 12.4111 11.3486C12.5825 11.4515 12.7885 11.5205 12.9941 11.5205C13.2341 11.5205 13.4399 11.4517 13.6113 11.2803C13.7484 11.1089 13.8173 10.8691 13.8174 10.4922V6.54883H15.1885V10.5605Z" fill="black"/>
<path d="M10.0801 7.68066H9.22266V11.5547H10.0801V12.6865H6.99414V11.5547H7.88574V7.68066H6.99414V6.54883H10.0801V7.68066Z" fill="black"/>
<path fill-rule="evenodd" clip-rule="evenodd" d="M11.0059 0.925781L13.6035 3.89648L16.5254 0.37793L24 6.41211L23.5547 20.2979L14.3311 24L9.26855 20.749L1.91992 23.418L3.46289 18L3.79199 16.915L0.274414 14.126L2.34082 10.2871L0 9.49707L3.46289 0L11.0059 0.925781ZM4.69727 19.4404H19.5088V4.62891H4.69727V19.4404Z" fill="black"/>
</svg>
