<svg width="24" height="24" viewBox="0 0 24 24" fill="none" xmlns="http://www.w3.org/2000/svg">
<path d="M21.5 0H2.5C1.11929 0 0 1.11929 0 2.5V21.5C0 22.8807 1.11929 24 2.5 24H21.5C22.8807 24 24 22.8807 24 21.5V2.5C24 1.11929 22.8807 0 21.5 0Z" fill="#F7DF1E"/>
<path d="M16.1219 18.7501C16.6053 19.5394 17.2343 20.1196 18.3467 20.1196C19.2811 20.1196 19.8781 19.6526 19.8781 19.0072C19.8781 18.2339 19.2648 17.96 18.2362 17.5101L17.6724 17.2682C16.045 16.5749 14.9638 15.7063 14.9638 13.8701C14.9638 12.1787 16.2526 10.891 18.2667 10.891C19.7006 10.891 20.7314 11.3901 21.4743 12.6968L19.7181 13.8244C19.3314 13.131 18.9143 12.8579 18.2667 12.8579C17.6061 12.8579 17.1874 13.277 17.1874 13.8244C17.1874 14.501 17.6065 14.7749 18.5741 15.1939L19.1379 15.4354C21.0541 16.2571 22.136 17.0949 22.136 18.9783C22.136 21.0088 20.541 22.1211 18.3989 22.1211C16.3044 22.1211 14.9512 21.123 14.2891 19.8149L16.1219 18.7501ZM8.15505 18.9455C8.50933 19.5741 8.83162 20.1055 9.60648 20.1055C10.3474 20.1055 10.8149 19.8156 10.8149 18.6884V11.0198H13.0701V18.7189C13.0701 21.0541 11.701 22.117 9.70248 22.117C7.89676 22.117 6.85105 21.1825 6.31924 20.057L8.15505 18.9455Z" fill="black"/>
</svg>
