<svg width="24" height="24" viewBox="0 0 24 24" fill="none" xmlns="http://www.w3.org/2000/svg">
<path d="M10.5996 4.32708C10.8644 3.73707 11.2986 3.16872 12.1719 3.372C12.3396 3.09623 12.0399 2.89365 11.8184 2.86028C11.3035 2.78272 10.673 3.3551 10.5166 3.78509C10.4569 3.94899 10.3636 4.26969 10.5996 4.32708Z" fill="black"/>
<path d="M15.8408 5.6093C15.8239 6.30679 16.9196 5.96354 17.0869 5.57512C16.8379 5.21311 16.6671 4.77819 16.4697 4.36809C16.4561 4.36752 16.4423 4.36769 16.4287 4.36712C16.401 4.83866 16.5758 5.12255 16.6973 5.45598C16.4871 5.58827 16.0779 5.50575 15.8408 5.6093Z" fill="black"/>
<path d="M11.9756 5.71282C11.6471 6.23176 12.617 6.32887 13.0332 6.20598C13.1472 6.17217 13.3441 6.00129 13.3711 5.92473C13.4864 5.60002 13.2537 5.45754 13.1338 5.34075C12.8676 5.08123 12.8064 4.72022 12.6191 4.37688C12.4895 4.74506 12.8415 5.37059 13.0391 5.68645C12.7818 5.93582 12.3197 5.72903 11.9756 5.71282Z" fill="black"/>
<path d="M13.9199 8.60637C14.9467 8.70778 15.6458 8.26967 16.2725 7.86712C16.2476 7.70923 16.462 7.42482 16.4023 7.18743C16.3816 7.10584 16.1959 6.98755 16.083 6.86419C15.6233 6.36284 14.9935 5.61304 14.7432 5.02727C14.7154 4.96194 14.6984 4.60867 14.5049 4.74895C14.4817 5.61366 15.1243 6.32949 15.6035 6.90716C15.8376 7.18917 16.1202 7.35084 15.8604 7.78899C15.4413 7.94837 14.7633 8.40402 14.1807 8.30462C13.8714 8.25183 13.941 7.90066 13.8301 7.70989C13.6169 7.99027 13.7005 8.41561 13.9199 8.60637Z" fill="black"/>
<path d="M7.26758 7.85051C7.26626 7.46417 7.20655 6.80317 7.53613 6.82317C7.76663 6.83741 7.81338 7.33118 8.00977 7.44329C8.22647 6.40038 6.92365 5.873 6.78809 6.85637C6.89325 6.787 6.97827 6.59135 7.16797 6.6845C7.00131 7.01017 7.04072 7.64455 7.26758 7.85051Z" fill="black"/>
<path d="M15.1104 9.46087C15.9664 9.44308 16.3792 8.83159 16.6709 8.2763C16.1699 8.50476 15.7657 8.83842 15.1113 8.9013C15.0797 9.00933 15.093 9.28166 15.1104 9.46087Z" fill="black"/>
<path d="M14.9014 9.49505C14.8998 9.29678 14.9011 9.09514 14.8613 8.93255C14.1194 8.95427 13.1164 8.9236 12.5703 8.63665C12.8204 9.30603 13.9475 9.54255 14.9014 9.49505Z" fill="black"/>
<path d="M13.1484 10.2988C13.6352 10.5573 14.6023 10.4483 14.9531 10.3056C15.0828 10.2531 15.1871 10.1082 15.2354 9.98528C14.1411 10.0115 12.8433 10.1197 12.4658 9.1718C11.9842 9.17253 12.391 9.44086 12.4727 9.54583C12.6418 9.76324 12.8397 10.1346 13.1484 10.2988Z" fill="black"/>
<path d="M14.335 14.5673C14.4324 14.5673 14.5117 14.4879 14.5117 14.3906C14.5116 14.2934 14.4323 14.2148 14.335 14.2148C14.2377 14.2148 14.1593 14.2934 14.1592 14.3906C14.1592 14.4879 14.2377 14.5673 14.335 14.5673Z" fill="black"/>
<path d="M14.5107 15.3847C14.6081 15.3847 14.6875 15.3053 14.6875 15.2079C14.6873 15.1107 14.6081 15.0322 14.5107 15.0322C14.4137 15.0324 14.3351 15.1109 14.335 15.2079C14.335 15.3051 14.4136 15.3844 14.5107 15.3847Z" fill="black"/>
<path d="M17.2822 17.6796C17.766 17.7105 18.1145 17.2283 18.6104 17.1288C18.014 17.1464 17.5481 17.3048 17.2822 17.6796Z" fill="black"/>
<path d="M17.54 17.9794C17.9501 18.0132 18.4258 17.9479 18.8301 17.9052C18.4829 17.7854 17.7342 17.6829 17.54 17.9794Z" fill="black"/>
<path d="M18.9697 18.5741C18.675 18.4369 17.774 18.2646 17.5186 18.539C17.9505 18.5752 18.5153 18.584 18.9697 18.5741Z" fill="black"/>
<path fill-rule="evenodd" clip-rule="evenodd" d="M10.4717 23.7021C11.5592 24.093 13.2757 24.0324 14.4062 23.8964C14.7499 23.8549 15.1125 23.6846 15.1934 23.3866C15.1692 23.203 15.1428 23.0217 15.1543 22.8046C15.5079 22.7315 15.9886 22.6702 16.0664 22.2792C16.1752 21.7303 15.7204 20.9446 15.8721 20.3427C16.0768 20.2762 16.2953 20.2241 16.2627 19.9013C16.6077 19.7218 17.0165 19.6812 17.4531 19.6982C17.5092 19.807 17.5891 19.9117 17.6611 19.9716C18.2727 20.0945 18.8653 20.1041 19.373 19.9384C19.948 19.7507 20.2225 18.5749 20.0908 18.0156C19.9976 17.6191 19.7863 16.9698 19.6064 16.5859C19.4951 16.3481 19.3331 16.1995 19.1406 16.1152C19.9075 14.7925 20.3497 13.2499 20.3496 11.6025C20.3497 9.15657 19.3794 6.93932 17.8105 5.33489C17.7363 5.25896 17.6589 5.18637 17.582 5.11321C17.5295 4.1823 17.3508 3.30543 17.0146 2.62591C16.7204 2.03091 15.8974 1.2085 15.3828 0.819265C14.1691 -0.0983058 11.926 -0.199231 10.4639 0.338796C10.0562 0.488796 9.6608 0.622745 9.30273 0.832937C8.34497 1.39523 7.32905 1.77188 7.04492 2.90325C6.43705 3.17556 6.19816 3.88732 6.16895 4.75091C5.94975 4.93517 5.73939 5.12994 5.53906 5.33489C3.97034 6.93932 3.0001 9.15638 3 11.6025C3 14.0483 3.97027 16.2656 5.53906 17.87C5.6547 17.9884 5.77506 18.1017 5.89746 18.2128C6.00244 18.4497 6.07642 18.6871 6.0918 18.9267C6.1169 19.3172 6.07542 19.7305 6.17676 19.9462C6.28136 20.1691 6.66921 20.2402 6.94922 20.37C7.75783 20.7441 8.61531 21.3152 9.67578 21.2021C9.92856 22.0521 10.1682 22.9577 10.4717 23.7021ZM10.8232 11.9511C9.99681 11.8962 9.22791 11.8121 8.83691 11.2519C8.52891 10.8103 8.21659 10.0594 8.07617 9.47942C8.04756 9.36029 7.99775 9.10595 8.00977 9.04095C8.05595 8.78935 8.50445 8.67888 8.32812 8.32708C8.00288 8.32408 7.92943 8.62373 7.63086 8.65325C6.85793 8.72957 6.31254 7.62809 6.34766 6.9638C6.3774 6.39905 6.85487 5.85841 7.50781 5.92962C7.96938 5.98019 8.12624 6.48431 8.21582 6.93255C8.48183 6.94677 8.86621 6.92118 8.99219 6.7138C8.97416 6.20707 8.73873 5.80037 8.75488 5.33489C8.78537 4.46025 9.26201 3.67097 8.89453 2.8095C9.28813 1.91667 10.4428 1.21193 11.2969 0.786062C12.3554 0.25837 14.0401 0.680674 15.0352 1.24212C15.6065 1.56467 16.0286 2.18812 16.4307 2.70696C15.8669 2.53961 15.3865 2.82699 15.4736 3.29192C15.9457 2.85932 16.7526 3.28731 16.9912 3.76555C17.2194 4.22302 17.2179 4.90104 17.2529 5.58098C17.3379 7.22972 16.9515 8.93116 16.123 10.123C15.9016 10.4412 15.7149 10.7886 15.4033 11.0077C14.6526 11.5349 13.5113 12.0132 12.5342 11.6855C11.2431 11.2521 10.6564 10.3913 9.94629 9.40618C9.96551 9.94717 10.346 10.3917 10.7217 10.8056C11.0488 11.1665 11.4445 11.5749 11.8691 11.7431C11.5149 11.6599 10.971 11.6334 10.8232 11.9511ZM7.46289 2.81634C7.85682 1.95515 9.08526 1.25803 10.0439 0.986257C10.0964 0.971393 10.1428 1.0069 10.1865 1.05364C10.1808 1.20553 10.0319 1.20317 9.93066 1.25188C9.7731 1.44534 9.54214 1.53576 9.35059 1.74798C9.15411 1.96541 8.93424 2.54959 8.67383 2.61419C8.54317 2.64657 8.39394 2.59116 8.28027 2.59856C7.97949 2.61767 7.76784 2.77201 7.46289 2.81634ZM8.50195 6.50774C8.51133 5.68884 7.49586 5.16981 6.73047 5.6513C6.6792 5.03014 6.59018 4.15632 7.01367 3.69036C7.40439 3.26017 7.94322 2.99309 8.59863 2.94329C8.93612 3.80285 8.35725 4.82368 8.57324 5.7636C8.63935 6.05139 8.86741 6.49803 8.50195 6.50774ZM16.9688 9.43352C16.9935 9.36946 17.0163 9.30447 17.0381 9.24016C16.9882 9.38749 16.9318 9.53811 16.8662 9.67473L16.9688 9.43352ZM14.9688 16.8837C15.4748 16.0058 16.0256 15.1764 16.5215 14.288C16.4459 14.1118 16.261 14.0367 16.207 13.8407C16.5554 13.183 16.3946 11.1412 15.5059 11.5722C15.6302 11.3897 15.9563 11.2389 16.1084 11.0146C16.4833 11.3165 16.7099 11.6009 17.0693 11.9238C17.2645 12.0985 17.6478 12.3081 17.6865 12.5907C17.7082 12.7487 17.6117 13.1351 17.5762 13.3124C17.4187 14.091 17.0647 15.1196 16.7275 15.9355C16.6049 16.232 16.4871 16.6029 16.3252 16.6669C15.8824 16.842 15.3451 16.6498 14.9688 16.8837ZM9.73633 20.706C8.41559 20.6373 7.56029 19.9816 6.58691 19.5263C6.5263 17.3731 6.18378 15.1388 5.33398 13.3154C6.2252 12.6274 7.22248 11.9001 8.28906 11.4794C8.36982 11.4476 8.95967 12.2141 9.04688 12.2763C9.5246 12.6156 10.1178 12.8838 10.6729 13.1484C10.7067 13.4031 10.7857 13.7331 10.9238 14.1747C11.0763 14.6623 11.2014 15.3504 11.8457 14.999C11.7845 15.2773 11.4267 15.4507 11.5254 15.7753C11.5873 15.9791 12.264 16.2305 12.4785 16.3515C12.8742 16.5745 13.2352 16.6987 13.5391 16.829C12.1579 16.8669 10.8605 16.9785 9.58398 17.1523C9.43142 16.9155 9.49257 16.5508 9.47656 16.1738C9.45892 15.7646 9.62908 14.8419 9.46875 14.7831C9.28699 14.7185 9.25262 15.086 9.24609 15.1679C9.21199 15.6005 9.45126 16.5164 9.21484 17.0341C8.95609 16.9608 8.82864 16.7659 8.58594 16.6777C8.49075 16.9774 8.78268 16.9923 8.75293 17.1825C8.7132 17.4343 8.23662 17.2242 8.23926 17.5986C8.54982 17.6481 9.02567 17.5018 9.35742 17.6415C9.44418 18.6596 9.58349 19.6247 9.73633 20.706ZM15.9404 13.747C15.3968 13.731 14.9057 13.6661 14.4756 13.5449C14.5047 13.3686 14.4492 13.1952 14.4932 13.0683C14.6131 12.9819 14.8148 12.9841 14.9961 12.9638C14.8394 12.8868 14.6184 12.8558 14.4375 12.9003C14.4332 12.778 14.379 12.7021 14.3457 12.6064C14.6515 12.4971 15.3733 11.7815 15.7793 12.0185C15.9727 12.1312 16.0553 12.7748 16.0703 13.0878C16.0828 13.3474 16.0462 13.6095 15.9404 13.747ZM13.9971 12.4892C13.5112 12.5132 13.2456 12.4557 12.8887 12.1767C12.8945 12.1543 12.9312 12.1641 12.9326 12.1366C13.4527 12.3681 14.1136 12.042 14.6387 11.995C14.4105 12.144 14.2162 12.3302 13.9971 12.4892ZM10.6279 12.6904C10.2914 12.6695 9.23626 12.2855 9.51367 12.0038C9.78493 12.1922 10.3097 12.1466 10.709 12.2167C10.7296 12.3445 10.6262 12.5123 10.6279 12.6904ZM11.4434 14.6933C11.3392 14.6691 11.3297 14.5398 11.2881 14.4179C11.1993 14.1567 10.9945 13.7407 10.9766 13.3476C10.9538 12.851 10.9036 12.0182 11.4385 12.12C11.8702 12.2024 12.3727 12.4013 12.707 12.5839C12.9114 12.6956 13.0298 12.8345 13.3398 12.8583C13.3384 12.8994 13.3366 12.9409 13.335 12.9824C13.1652 13.0938 12.8914 13.0928 12.7051 13.1865C12.9796 13.1985 13.1958 13.2641 13.3828 13.3574C13.3787 13.4608 13.3751 13.5644 13.3711 13.6679C13.06 13.8809 12.7754 14.1985 12.4092 14.3984C12.236 14.4928 11.6281 14.7359 11.4434 14.6933ZM13.6494 13.4511C13.6019 13.1806 13.5462 13.1029 13.5674 12.8671C14.2889 12.3861 14.4248 13.693 13.6494 13.4511ZM14.6719 16.499C14.2302 15.689 13.9703 14.7106 13.3984 14.0214C13.4588 13.9574 13.513 13.8867 13.5723 13.8212C13.8311 13.9294 14.0002 13.679 14.1992 13.7001C14.4275 13.7244 14.6089 14.0401 14.9346 14.0195C14.8824 14.8686 14.9089 15.721 14.6719 16.499ZM14.834 16.6093C15.0544 15.9614 15.1484 14.8765 15.1816 14.0497C15.6427 13.834 16.0377 14.0981 16.2266 14.4013C15.7835 15.1602 15.3597 15.94 14.834 16.6093ZM14.3154 16.6093C13.4849 16.3589 12.6361 15.9528 11.9082 15.5409C12.0512 14.9218 12.6107 14.6007 13.1191 14.2597C13.644 14.9258 13.9639 15.7826 14.3154 16.6093ZM18.9697 19.6532C18.6054 19.7417 18.0463 19.7646 17.8076 19.6493C18.0996 19.4899 18.5381 19.4892 18.876 19.3798C18.3919 19.1715 17.6758 19.3682 17.0938 19.332C17.0235 18.6132 16.9701 17.8338 16.7998 17.2665C17.1396 16.9054 17.9608 16.8187 18.4268 16.5204C18.7131 16.337 19.0717 16.5986 19.2041 16.7988C19.3831 17.0694 19.5506 17.8659 19.6445 18.289C19.7845 18.9184 19.47 19.5315 18.9697 19.6532ZM16.1934 19.5458C16.1321 18.7959 15.9575 18.0073 15.8857 17.2929C16.0383 17.2899 16.2251 17.2553 16.3848 17.2919C16.7016 17.8372 16.7694 18.7442 16.7588 19.4023C16.5615 19.4404 16.4332 19.5532 16.1934 19.5458ZM14.7637 23.246C13.6069 23.6046 12.0294 23.5691 10.7207 23.1718C10.1311 21.3649 9.80888 19.6498 9.58691 17.6093C10.9625 17.352 12.944 17.1283 14.3457 17.4199C14.474 18.2544 14.426 19.0775 14.5195 19.8954C14.6437 20.9838 14.5513 22.2261 14.7637 23.246ZM14.7832 20.0507C14.7163 19.1734 14.6649 18.3088 14.6768 17.4325C14.9151 17.3527 15.1262 17.3577 15.3652 17.3554C15.5721 18.1027 15.5596 19.0536 15.6611 19.8984C15.3484 19.9669 15.1197 20.0002 14.7832 20.0507ZM14.9023 22.3378C14.8786 21.8068 14.8079 20.9954 14.8291 20.4892C14.9945 20.5 15.2381 20.371 15.3711 20.4062C15.4363 20.9767 15.663 21.5548 15.6348 22.1796C15.3835 22.2643 15.239 22.3383 14.9023 22.3378Z" fill="black"/>
</svg>
