<svg width="24" height="24" viewBox="0 0 24 24" fill="none" xmlns="http://www.w3.org/2000/svg">
<path fill-rule="evenodd" clip-rule="evenodd" d="M20.0885 11.5709C20.0885 16.3236 16.3217 20.1765 11.6751 20.1765C7.02849 20.1765 3.26166 16.3236 3.26166 11.5709C3.26166 6.81797 7.02849 2.96499 11.6751 2.96499C16.3217 2.96499 20.0885 6.81797 20.0885 11.5709Z" fill="#D33833"/>
<path d="M3.60451 13.7022C3.60451 13.7022 2.99544 4.72787 11.2647 4.47143L10.6878 3.50989L6.20067 5.01633L4.91859 6.49066L3.79682 8.63816L3.15574 11.1382L3.34805 12.8048" fill="#EF3D3A"/>
<path d="M5.91258 5.70019C4.43643 7.21057 3.52297 9.29596 3.52297 11.603C3.52297 13.9095 4.43643 15.9952 5.91258 17.5053C7.38945 19.0154 9.42478 19.9472 11.6749 19.9472C13.9251 19.9472 15.9606 19.0154 17.4374 17.5053C18.9134 15.9952 19.8271 13.9095 19.8271 11.603C19.8271 9.29596 18.9134 7.21057 17.4374 5.70019C15.9606 4.19038 13.9251 3.25855 11.6749 3.25836C9.42478 3.25855 7.38945 4.19038 5.91258 5.70019ZM5.53893 17.8706C3.97012 16.2662 3.00024 14.0488 3.00024 11.603C3.00024 9.15673 3.97012 6.93961 5.53893 5.33509C7.10737 3.73028 9.27849 2.73557 11.6749 2.73586C14.0714 2.73557 16.2427 3.73028 17.8109 5.33509C19.3799 6.93961 20.3499 9.15692 20.3497 11.603C20.3499 14.0488 19.3799 16.2662 17.8109 17.8706C16.2427 19.4753 14.0714 20.4699 11.6749 20.4699C9.27849 20.4699 7.10737 19.4753 5.53893 17.8706Z" fill="#231F20"/>
<path fill-rule="evenodd" clip-rule="evenodd" d="M15.2167 11.6186L13.9346 11.8109L12.2038 12.0032L11.0819 12.0352L9.99225 12.0032L9.15886 11.7467L8.42167 10.9455L7.84475 9.31086L7.71655 8.95826L6.94732 8.70192L6.49859 7.96471L6.17809 6.90701L6.53071 5.97749L7.36398 5.68903L8.03705 6.00961L8.35763 6.71471L8.74225 6.65057L8.8704 6.49038L8.74225 5.75317L8.71013 4.82365L8.90244 3.54163L8.89493 2.80932L9.47936 1.87499L10.505 1.13778L12.2999 0.368551L14.2871 0.657013L16.0178 1.90701L16.8192 3.18903L17.332 4.11855L17.4601 6.42624L17.0755 8.41346L16.3704 10.1762L15.6974 11.1058" fill="#F0D6B7"/>
<path fill-rule="evenodd" clip-rule="evenodd" d="M14.1269 17.1634L9.54347 17.3557V18.1249L9.92809 20.8172L9.73578 21.0416L6.53071 19.9518L6.30628 19.5672L5.98578 15.9455L5.24871 13.766L5.0884 13.2532L7.65244 11.4904L8.45378 11.1698L9.15886 12.0352L9.76782 12.5801L10.473 12.8044L10.7935 12.9006L11.1781 14.5672L11.4666 14.9198L12.2038 14.6634L11.6909 15.657L14.4794 16.9711L14.1269 17.1634Z" fill="#335061"/>
<path fill-rule="evenodd" clip-rule="evenodd" d="M6.53071 5.97749L7.36398 5.68903L8.03705 6.00961L8.35763 6.71471L8.74225 6.65057L8.8384 6.26596L8.64609 5.52884L8.8384 3.76596L8.67809 2.80442L9.25501 2.13134L10.505 1.13778L10.1524 0.657013L8.38963 1.5224L7.65244 2.09932L7.23578 2.99673L6.59475 3.86211L6.40244 4.88778L6.53071 5.97749Z" fill="#6D6B6D"/>
<path fill-rule="evenodd" clip-rule="evenodd" d="M7.84474 2.9647C7.84474 2.9647 8.32551 1.77884 10.2486 1.20192C12.1717 0.624992 10.3447 0.785185 10.3447 0.785185L8.26147 1.58653L7.46013 2.38778L7.10763 3.02884L7.84474 2.9647Z" fill="#DCD9D8"/>
<path fill-rule="evenodd" clip-rule="evenodd" d="M6.88321 5.75317C6.88321 5.75317 6.21013 3.50951 8.77424 3.18903L8.67809 2.80442L6.91532 3.22115L6.40244 4.88778L6.53071 5.97749L6.88321 5.75317Z" fill="#DCD9D8"/>
<path fill-rule="evenodd" clip-rule="evenodd" d="M7.90886 8.73393L8.32852 8.3273C8.32852 8.3273 8.51794 8.34932 8.54994 8.57364C8.58194 8.79807 8.67809 10.8173 10.0563 11.9071C10.182 12.0065 9.03071 11.7467 9.03071 11.7467L8.00501 10.1442" fill="#F7E4CD"/>
<path fill-rule="evenodd" clip-rule="evenodd" d="M13.8065 8.12499C13.8065 8.12499 13.8812 7.15346 14.1428 7.22817C14.4045 7.30288 14.4045 7.56451 14.4045 7.56451C14.4045 7.56451 13.7691 7.97557 13.8065 8.12499Z" fill="#F7E4CD"/>
<path d="M16.4666 4.5673C16.4666 4.5673 15.9383 4.67884 15.8897 5.14422C15.841 5.6097 16.4666 5.24038 16.5628 5.20836" fill="#F7E4CD"/>
<path d="M12.5884 4.59941C12.5884 4.59941 11.8832 4.69557 11.8832 5.14422C11.8832 5.59297 12.6846 5.56095 12.9089 5.36864" fill="#F7E4CD"/>
<path fill-rule="evenodd" clip-rule="evenodd" d="M8.22936 6.68269C8.22936 6.68269 7.01136 5.94547 6.88321 6.65067C6.75501 7.35576 6.46647 7.86865 7.07551 8.60576L6.65886 8.47759L6.27424 7.48403L6.14609 6.52249L6.88321 5.75317L7.71655 5.8173L8.19732 6.20192L8.22936 6.68269Z" fill="#F7E4CD"/>
<path fill-rule="evenodd" clip-rule="evenodd" d="M8.80629 4.66346C8.80629 4.66346 9.35118 1.84297 12.1076 1.29807C14.377 0.849513 15.5691 1.39422 16.0178 1.90701C16.0178 1.90701 13.9986 -0.496737 12.0755 0.240378C10.1524 0.97759 8.74224 2.32374 8.77424 3.18903C8.82882 4.66288 8.80629 4.66346 8.80629 4.66346Z" fill="#F7E4CD"/>
<path fill-rule="evenodd" clip-rule="evenodd" d="M16.2423 2.22749C16.2423 2.22749 15.3128 2.19547 15.2807 3.02884C15.2807 3.02884 15.2806 3.15701 15.3448 3.28519C15.3448 3.28519 16.0821 2.45182 16.5307 2.90057" fill="#F7E4CD"/>
<path fill-rule="evenodd" clip-rule="evenodd" d="M12.1722 3.37201C12.1722 3.37201 12.0122 2.09287 10.9217 2.83653C10.2165 3.3173 10.2807 3.99037 10.4089 4.11855C10.537 4.24682 10.5022 4.50499 10.5998 4.32778C10.6973 4.15057 10.6652 3.57364 11.0178 3.41345C11.3704 3.25316 11.9484 3.07412 12.1722 3.37201Z" fill="#F7E4CD"/>
<path fill-rule="evenodd" clip-rule="evenodd" d="M9.15886 12.0352L6.14609 13.3813C6.14609 13.3813 7.39609 18.3493 6.75501 19.8878L6.30628 19.7276L6.27424 17.8365L5.44101 14.2468L5.0884 13.2532L8.22936 11.1379L9.15886 12.0352Z" fill="#49728B"/>
<path fill-rule="evenodd" clip-rule="evenodd" d="M9.46866 14.783L9.89609 15.3045V17.2276H9.38321C9.38321 17.2276 9.31917 15.8814 9.31917 15.7211C9.31917 15.5609 9.38321 14.9839 9.38321 14.9839" fill="#49728B"/>
<path fill-rule="evenodd" clip-rule="evenodd" d="M9.47936 17.5161L8.03705 17.5801L8.45378 17.8686L9.47936 18.0288" fill="#49728B"/>
<path fill-rule="evenodd" clip-rule="evenodd" d="M14.4153 17.1955L15.6012 17.1634L15.8897 20.1122L14.6717 20.2724L14.4153 17.1955Z" fill="#335061"/>
<path fill-rule="evenodd" clip-rule="evenodd" d="M14.7358 17.1955L16.5307 17.0993C16.5307 17.0993 17.2678 15.2404 17.2678 15.1442C17.2678 15.0481 17.9089 12.4519 17.9089 12.4519L16.4666 10.9456L16.1781 10.6891L15.4089 11.4584V14.4391L14.7358 17.1955Z" fill="#335061"/>
<path fill-rule="evenodd" clip-rule="evenodd" d="M15.5371 16.9711L14.4153 17.1955L14.5755 18.093C14.9922 18.2853 15.6974 17.7724 15.6974 17.7724" fill="#49728B"/>
<path fill-rule="evenodd" clip-rule="evenodd" d="M15.5692 11.3622L17.8127 13.0288L17.8769 12.2596L16.1781 10.6891L15.5692 11.3622Z" fill="#49728B"/>
<path fill-rule="evenodd" clip-rule="evenodd" d="M10.5917 23.5099L9.92809 20.8172L9.59805 18.8304L9.54347 17.3557L12.5468 17.1958L14.4153 17.1955L14.2454 20.5612L14.5339 23.1573L14.5019 23.6381L12.0661 23.8304L10.5917 23.5099Z" fill="white"/>
<path fill-rule="evenodd" clip-rule="evenodd" d="M13.9986 17.1634C13.9986 17.1634 13.8384 20.4968 14.3192 22.8685C14.3192 22.8685 13.3576 23.4776 11.9473 23.6378L14.6397 23.5416L14.9601 23.3493L14.5755 18.093L14.4794 16.9711" fill="#DCD9D8"/>
<path fill-rule="evenodd" clip-rule="evenodd" d="M15.9443 19.856L17.1943 19.5035L19.566 19.3753L19.9186 18.2856L19.2776 16.3945L18.5404 16.2984L17.5148 16.6189L16.5307 17.0993L16.0083 17.0035L15.6012 17.1634" fill="white"/>
<path fill-rule="evenodd" clip-rule="evenodd" d="M15.9217 19.2147C15.9217 19.2147 16.755 18.8302 16.8832 18.8622L16.5307 17.0993L16.9474 16.9391C16.9474 16.9391 17.2358 18.6057 17.2358 18.7981C17.2358 18.7981 19.0306 18.8942 19.1909 18.8942C19.1909 18.8942 19.5755 18.157 19.4794 17.3878L19.832 18.4134L19.864 18.9904L19.3512 19.7596L18.7743 19.8878L17.8127 19.8557L17.4923 19.4391L16.3704 19.5993L16.0178 19.7276" fill="#DCD9D8"/>
<path d="M14.6622 16.9394L13.9571 15.1445L13.2199 14.0868C13.2199 14.0868 13.3801 13.6381 13.6045 13.6381C13.8289 13.6381 14.3417 13.6381 14.3417 13.6381L15.0468 13.8945L14.9827 15.0804L14.6622 16.9394Z" fill="white"/>
<path fill-rule="evenodd" clip-rule="evenodd" d="M14.8 16.3301C14.8 16.3301 13.9025 14.5994 13.9025 14.343C13.9025 14.343 14.0626 13.9584 14.2871 14.0545C14.5115 14.1507 14.9923 14.407 14.9923 14.407V13.7981L13.9025 13.5736L13.1653 13.6698L14.4153 16.6185L14.6717 16.6507" fill="#DCD9D8"/>
<path d="M10.8802 12.0997L9.99225 12.0032L9.15886 11.7467L9.15886 12.0352L9.56605 12.4842L10.8481 13.0611" fill="white"/>
<path fill-rule="evenodd" clip-rule="evenodd" d="M9.44743 12.1958C9.44743 12.1958 10.4411 12.6125 10.7616 12.5163L10.7935 12.9006L9.8962 12.7086L9.35128 12.324L9.44743 12.1958Z" fill="#DCD9D8"/>
<path fill-rule="evenodd" clip-rule="evenodd" d="M15.9408 13.7472C15.397 13.7312 14.9056 13.6666 14.4754 13.5453C14.5047 13.3689 14.4499 13.1959 14.4939 13.0688C14.6138 12.9825 14.8148 12.9838 14.996 12.9635C14.8393 12.8865 14.6191 12.856 14.4382 12.9006C14.434 12.7782 14.3791 12.7023 14.3458 12.6065C14.6516 12.4974 15.3734 11.7819 15.7795 12.0188C15.9729 12.1315 16.0551 12.7752 16.0701 13.0882C16.0826 13.3478 16.0466 13.6097 15.9408 13.7472Z" fill="#D33833"/>
<path fill-rule="evenodd" clip-rule="evenodd" d="M13.3402 12.8582C13.3387 12.8993 13.337 12.9408 13.3353 12.9823C13.1655 13.0938 12.8914 13.0925 12.7051 13.1862C12.9798 13.1983 13.196 13.2644 13.3831 13.3577C13.379 13.4613 13.3751 13.5649 13.371 13.6686C13.0598 13.8816 12.7754 14.1989 12.409 14.3988C12.2357 14.4933 11.6276 14.7364 11.4433 14.6934C11.339 14.6692 11.3296 14.5398 11.2879 14.4178C11.1991 14.1565 10.9945 13.7407 10.9767 13.3474C10.954 12.8507 10.9038 12.0182 11.4391 12.1205C11.871 12.2029 12.3733 12.4018 12.7077 12.5845C12.912 12.6962 13.0302 12.8343 13.3402 12.8582Z" fill="#D33833"/>
<path fill-rule="evenodd" clip-rule="evenodd" d="M13.6493 13.4509C13.6018 13.1803 13.5469 13.1031 13.5681 12.867C14.2898 12.3859 14.4252 13.6935 13.6493 13.4509Z" fill="#D33833"/>
<path fill-rule="evenodd" clip-rule="evenodd" d="M14.6942 13.6702C14.6942 13.6702 14.4698 13.3496 14.6301 13.2534C14.7903 13.1573 14.9506 13.2535 15.0468 13.0933C15.1429 12.933 15.0468 12.8368 15.0788 12.6445C15.1108 12.4522 15.2712 12.4201 15.4314 12.3881C15.5916 12.356 16.0404 12.2919 16.1045 12.4522L15.9122 11.8753L15.5276 11.7471L14.3096 12.4522L14.2454 12.8048V13.5099" fill="#EF3D3A"/>
<path fill-rule="evenodd" clip-rule="evenodd" d="M11.3288 14.7279C11.2903 14.2277 11.2496 13.7282 11.2042 13.2285C11.1364 12.4823 11.3835 12.6125 12.0303 12.6125C12.129 12.6125 12.6385 12.7303 12.675 12.8048C12.8498 13.1618 12.3826 13.0825 12.8763 13.3517C13.293 13.5789 14.0292 13.2137 13.8608 12.7086C13.7666 12.5963 13.3699 12.6736 13.2276 12.5999C12.9773 12.4701 12.7269 12.3403 12.4765 12.2105C12.1579 12.0452 11.4216 11.8042 11.0819 12.0352C10.2213 12.6205 11.1363 14.0829 11.4433 14.6934" fill="#EF3D3A"/>
<path fill-rule="evenodd" clip-rule="evenodd" d="M12.1722 3.37201C11.2987 3.16855 10.8646 3.73759 10.5998 4.32778C10.3633 4.27047 10.4574 3.94893 10.5171 3.78509C10.6735 3.35509 11.3037 2.78268 11.8185 2.86028C12.0401 2.89365 12.3399 3.09624 12.1722 3.37201Z" fill="#231F20"/>
<path fill-rule="evenodd" clip-rule="evenodd" d="M16.4286 4.36682C16.4424 4.36739 16.4563 4.36788 16.4701 4.36845C16.6675 4.77855 16.8383 5.21297 17.0874 5.57499C16.9205 5.96355 15.8241 6.3074 15.841 5.6097C16.0781 5.50605 16.4875 5.58855 16.6976 5.45615C16.5761 5.12259 16.4007 4.83864 16.4286 4.36682Z" fill="#231F20"/>
<path fill-rule="evenodd" clip-rule="evenodd" d="M12.6195 4.37749C12.8068 4.72086 12.8677 5.08163 13.134 5.34115C13.2539 5.45798 13.4871 5.60038 13.3715 5.92528C13.3445 6.00192 13.1471 6.17278 13.0331 6.20634C12.6169 6.32923 11.647 6.23172 11.9754 5.71278C12.3197 5.72884 12.7824 5.93634 13.0397 5.68644C12.8421 5.37057 12.4898 4.74567 12.6195 4.37749Z" fill="#231F20"/>
<path fill-rule="evenodd" clip-rule="evenodd" d="M16.2724 7.8673C15.6456 8.2699 14.9468 8.70768 13.9199 8.60615C13.7004 8.41538 13.6168 7.99086 13.83 7.71047C13.9409 7.90124 13.8712 8.25211 14.1804 8.3049C14.7631 8.40461 15.4413 7.94845 15.8604 7.78903C16.1203 7.35086 15.838 7.1897 15.6039 6.90768C15.1246 6.3299 14.4816 5.61374 14.505 4.74874C14.6987 4.60826 14.7154 4.96317 14.7432 5.02778C14.9935 5.61355 15.6234 6.36268 16.0831 6.86403C16.196 6.98749 16.3819 7.10595 16.4026 7.18759C16.4622 7.42499 16.2475 7.70941 16.2724 7.8673Z" fill="#231F20"/>
<path fill-rule="evenodd" clip-rule="evenodd" d="M8.01002 7.44346C7.81357 7.33134 7.76681 6.8375 7.53619 6.82346C7.2066 6.80346 7.2667 7.46413 7.26802 7.85048C7.04115 7.64451 7.00126 7.01038 7.16792 6.68471C6.97798 6.59144 6.89316 6.78759 6.7878 6.85673C6.92321 5.87307 8.22674 6.40048 8.01002 7.44346Z" fill="#231F20"/>
<path fill-rule="evenodd" clip-rule="evenodd" d="M16.6714 8.27692C16.3797 8.83221 15.967 9.44374 15.1109 9.46153C15.0935 9.2822 15.0801 9.00932 15.1119 8.90134C15.7663 8.83846 16.1703 8.50538 16.6714 8.27692Z" fill="#231F20"/>
<path fill-rule="evenodd" clip-rule="evenodd" d="M12.5701 8.63692C13.1161 8.92403 14.1196 8.9549 14.8617 8.93317C14.9015 9.09576 14.9005 9.29663 14.9021 9.4949C13.9481 9.54249 12.8202 9.30644 12.5701 8.63692Z" fill="#231F20"/>
<path fill-rule="evenodd" clip-rule="evenodd" d="M12.4663 9.1723C12.8439 10.1203 14.1416 10.0111 15.2359 9.98499C15.1877 10.1081 15.0833 10.2535 14.9535 10.3061C14.6028 10.4487 13.6356 10.557 13.1488 10.2985C12.8401 10.1343 12.6417 9.76345 12.4725 9.54605C12.3908 9.44105 11.9841 9.17288 12.4663 9.1723Z" fill="#231F20"/>
<path fill-rule="evenodd" clip-rule="evenodd" d="M16.2268 14.4014C15.7837 15.1603 15.3598 15.9397 14.8341 16.609C15.0545 15.9611 15.1488 14.8765 15.1821 14.0497C15.6431 13.8339 16.0379 14.0983 16.2268 14.4014Z" fill="#81B0C4"/>
<path fill-rule="evenodd" clip-rule="evenodd" d="M18.611 17.1288C18.115 17.2282 17.7664 17.7103 17.2825 17.6793C17.5484 17.3044 18.0145 17.1463 18.611 17.1288Z" fill="#231F20"/>
<path fill-rule="evenodd" clip-rule="evenodd" d="M18.8299 17.9052C18.4255 17.9479 17.9506 18.0134 17.5405 17.9796C17.7347 17.6831 18.4826 17.7854 18.8299 17.9052Z" fill="#231F20"/>
<path fill-rule="evenodd" clip-rule="evenodd" d="M18.97 18.5745C18.5155 18.5843 17.9507 18.5753 17.5188 18.539C17.7743 18.2646 18.6752 18.4372 18.97 18.5745Z" fill="#231F20"/>
<path fill-rule="evenodd" clip-rule="evenodd" d="M15.3718 20.4061C15.437 20.9768 15.6632 21.5551 15.6349 22.1801C15.3836 22.2648 15.2393 22.3389 14.9027 22.3385C14.8789 21.8073 14.8078 20.9953 14.8291 20.4889C14.9947 20.4999 15.2388 20.3707 15.3718 20.4061Z" fill="#DCD9D8"/>
<path fill-rule="evenodd" clip-rule="evenodd" d="M14.6392 11.9954C14.411 12.1443 14.2167 12.3303 13.9976 12.4893C13.5116 12.5134 13.2464 12.4557 12.8894 12.1766C12.8953 12.1542 12.9311 12.1642 12.9325 12.1367C13.4527 12.3686 14.1139 12.0423 14.6392 11.9954Z" fill="#F0D6B7"/>
<path fill-rule="evenodd" clip-rule="evenodd" d="M11.9084 15.5413C12.0513 14.922 12.6113 14.6012 13.1199 14.2602C13.6448 14.9264 13.964 15.7831 14.3155 16.6098C13.485 16.3594 12.6363 15.9532 11.9084 15.5413Z" fill="#81B0C4"/>
<path fill-rule="evenodd" clip-rule="evenodd" d="M14.8291 20.4889C14.8078 20.9953 14.8789 21.8073 14.9027 22.3385C15.2393 22.3389 15.3836 22.2648 15.6349 22.1801C15.6632 21.5551 15.437 20.9768 15.3718 20.4061C15.2388 20.3707 14.9947 20.4999 14.8291 20.4889ZM9.58736 17.6092C9.80934 19.6499 10.1308 21.3654 10.7205 23.1724C12.0293 23.5698 13.6071 23.6044 14.7639 23.2458C14.5515 22.2259 14.6443 20.9842 14.5202 19.8959C14.4266 19.0778 14.4743 18.2547 14.346 17.4201C12.9443 17.1285 10.963 17.3519 9.58736 17.6092ZM14.6775 17.4329C14.6656 18.3093 14.7167 19.1738 14.7836 20.0514C15.1202 20.0008 15.3485 19.9671 15.6612 19.8986C15.5597 19.0538 15.5722 18.1032 15.3653 17.3559C15.1263 17.3581 14.9158 17.3531 14.6775 17.4329ZM16.3847 17.2916C16.225 17.255 16.039 17.2902 15.8864 17.2932C15.9581 18.0076 16.1322 18.796 16.1934 19.5459C16.4335 19.5533 16.5618 19.4401 16.7593 19.402C16.7699 18.7437 16.7018 17.8368 16.3847 17.2916ZM18.9697 19.6534C19.4702 19.5319 19.7849 18.9189 19.6449 18.2894C19.5509 17.8663 19.3836 17.0697 19.2046 16.799C19.0723 16.5988 18.7135 16.3367 18.4271 16.5202C17.9611 16.8186 17.1403 16.9052 16.8004 17.2663C16.9708 17.8337 17.0237 18.6129 17.094 19.3317C17.6761 19.368 18.3924 19.1715 18.8765 19.38C18.5385 19.4895 18.1 19.4904 17.8079 19.6499C18.0466 19.7652 18.6053 19.7419 18.9697 19.6534ZM14.3155 16.6098C13.964 15.7831 13.6448 14.9264 13.1199 14.2602C12.6113 14.6012 12.0513 14.922 11.9084 15.5413C12.6363 15.9532 13.485 16.3594 14.3155 16.6098ZM15.1821 14.0497C15.1488 14.8765 15.0545 15.9611 14.8341 16.609C15.3598 15.9397 15.7837 15.1603 16.2268 14.4014C16.0379 14.0983 15.6431 13.8339 15.1821 14.0497ZM14.1998 13.7007C14.0006 13.6792 13.8316 13.9296 13.5727 13.8213C13.5133 13.8869 13.4594 13.958 13.3989 14.022C13.9708 14.7113 14.2307 15.6891 14.6725 16.4991C14.9095 15.7211 14.8822 14.8686 14.9344 14.0194C14.6087 14.0401 14.428 13.7249 14.1998 13.7007ZM13.6493 13.4509C13.6018 13.1803 13.5469 13.1031 13.5681 12.867C14.2898 12.3859 14.4252 13.6935 13.6493 13.4509ZM12.7077 12.5845C12.3733 12.4018 11.871 12.2029 11.4391 12.1205C10.9038 12.0182 10.954 12.8507 10.9767 13.3474C10.9945 13.7407 11.1991 14.1565 11.2879 14.4178C11.3296 14.5398 11.339 14.6692 11.4433 14.6934C11.6276 14.7364 12.2357 14.4933 12.409 14.3988C12.7754 14.1989 13.0598 13.8816 13.371 13.6686C13.3751 13.5649 13.379 13.4613 13.3831 13.3577C13.196 13.2644 12.9798 13.1983 12.7051 13.1862C12.8914 13.0925 13.1655 13.0938 13.3353 12.9823C13.337 12.9408 13.3387 12.8993 13.3402 12.8582C13.0302 12.8343 12.912 12.6962 12.7077 12.5845ZM9.51404 12.0044C9.23654 12.2861 10.2924 12.6702 10.6285 12.6909C10.6266 12.5126 10.7301 12.3445 10.7093 12.2166C10.31 12.1465 9.7853 12.1928 9.51404 12.0044ZM12.9325 12.1367C12.9311 12.1642 12.8953 12.1542 12.8894 12.1766C13.2464 12.4557 13.5116 12.5134 13.9976 12.4893C14.2167 12.3303 14.411 12.1443 14.6392 11.9954C14.1139 12.0423 13.4527 12.3686 12.9325 12.1367ZM16.0701 13.0882C16.0551 12.7752 15.9729 12.1315 15.7795 12.0188C15.3734 11.7819 14.6516 12.4974 14.3458 12.6065C14.3791 12.7023 14.434 12.7782 14.4382 12.9006C14.6191 12.856 14.8393 12.8865 14.996 12.9635C14.8148 12.9838 14.6138 12.9825 14.4939 13.0688C14.4499 13.1959 14.5047 13.3689 14.4754 13.5453C14.9056 13.6666 15.397 13.7312 15.9408 13.7472C16.0466 13.6097 16.0826 13.3478 16.0701 13.0882ZM9.04687 12.2769C8.95972 12.2148 8.37022 11.4478 8.28946 11.4796C7.22276 11.9003 6.22535 12.6277 5.33405 13.3157C6.18385 15.1391 6.52689 17.3732 6.5875 19.5264C7.56098 19.9817 8.41604 20.6381 9.73703 20.7066C9.58417 19.6251 9.44463 18.6602 9.35786 17.6419C9.02594 17.502 8.54975 17.6483 8.23914 17.5985C8.2365 17.2242 8.71352 17.4346 8.75325 17.1829C8.78319 16.9925 8.49079 16.9781 8.586 16.6783C8.82883 16.7665 8.95635 16.9615 9.21532 17.0347C9.45195 16.517 9.21201 15.6011 9.24612 15.1684C9.25258 15.0871 9.28668 14.7183 9.46866 14.783C9.62972 14.8403 9.45946 15.7639 9.47712 16.1735C9.49319 16.5508 9.43155 16.9158 9.58435 17.1527C10.8608 16.9789 12.158 16.8666 13.5391 16.8287C13.2353 16.6984 12.8743 16.575 12.4785 16.3519C12.264 16.231 11.5877 15.9793 11.5258 15.7756C11.4271 15.4508 11.785 15.2779 11.8462 14.9995C11.2019 15.3509 11.0762 14.6627 10.9237 14.1751C10.7856 13.7335 10.707 13.4036 10.6731 13.1488C10.1181 12.8842 9.52463 12.6162 9.04687 12.2769ZM15.5064 11.5724C16.3952 11.1414 16.5553 13.1831 16.207 13.8408C16.2608 14.0369 16.446 14.112 16.5216 14.2884C16.0256 15.1768 15.4748 16.0061 14.9687 16.8841C15.3452 16.6498 15.8828 16.8422 16.3258 16.6668C16.4878 16.6028 16.605 16.2321 16.7276 15.9356C17.0648 15.1197 17.4188 14.0911 17.5763 13.3126C17.6119 13.1352 17.7088 12.7486 17.6871 12.5908C17.6483 12.3081 17.2648 12.0985 17.0697 11.9236C16.7103 11.6008 16.4839 11.3166 16.109 11.0147C15.957 11.2391 15.6307 11.3899 15.5064 11.5724ZM7.0143 3.69086C6.59081 4.15682 6.67945 5.0299 6.73072 5.65105C7.49619 5.16951 8.51219 5.68913 8.50262 6.50817C8.86808 6.49845 8.63915 6.05172 8.57304 5.76394C8.357 4.82394 8.937 3.80269 8.59934 2.94307C7.94372 2.99278 7.40511 3.26057 7.0143 3.69086ZM10.0445 0.986436C9.08574 1.25817 7.85703 1.9548 7.46307 2.81605C7.76813 2.77172 7.9799 2.61788 8.28083 2.59884C8.39456 2.59144 8.54356 2.64653 8.67427 2.61403C8.93475 2.54942 9.15459 1.96538 9.3511 1.74807C9.54266 1.53586 9.7729 1.44519 9.93046 1.25172C10.0317 1.20288 10.1814 1.20624 10.1871 1.05422C10.1432 1.0073 10.097 0.971532 10.0445 0.986436ZM15.0352 1.24201C14.0401 0.680569 12.3557 0.258262 11.2972 0.785954C10.4431 1.21182 9.28855 1.91644 8.89493 2.80932C9.26264 3.67096 8.78601 4.46047 8.75559 5.33528C8.73943 5.80076 8.97475 6.20711 8.99278 6.71384C8.86695 6.92144 8.48252 6.94701 8.21641 6.93278C8.12683 6.48451 7.97001 5.98067 7.50841 5.93009C6.85523 5.85865 6.37766 6.39922 6.34798 6.96413C6.31287 7.62845 6.85823 8.72951 7.63122 8.65307C7.92983 8.62355 8.00318 8.32422 8.32852 8.3273C8.50486 8.67912 8.05652 8.78961 8.0104 9.04124C7.99838 9.10624 8.04758 9.36028 8.07619 9.47942C8.2166 10.0595 8.52959 10.8103 8.83766 11.2519C9.22866 11.8121 9.99684 11.8965 10.8233 11.9514C10.9709 11.6335 11.5146 11.6596 11.8689 11.7428C11.4443 11.5746 11.0496 11.1669 10.7224 10.8061C10.3466 10.392 9.96596 9.94788 9.94673 9.40672C10.6569 10.3919 11.2436 11.2523 12.5349 11.6857C13.512 12.0134 14.6531 11.5355 15.4039 11.0083C15.7154 10.7891 15.9014 10.4414 16.1228 10.1232C16.9514 8.93134 17.338 7.23019 17.253 5.58134C17.218 4.90134 17.2196 4.22365 16.9914 3.76615C16.7529 3.28778 15.9464 2.8598 15.4743 3.29249C15.3868 2.8273 15.8669 2.53961 16.4308 2.70701C16.0287 2.18807 15.6067 1.56451 15.0352 1.24201ZM16.8891 16.585C17.6667 16.1984 19.1196 15.5445 19.6071 16.5864C19.787 16.9705 19.998 17.6197 20.0912 18.0162C20.2228 18.5755 19.9485 19.7511 19.3736 19.9388C18.8658 20.1045 18.2733 20.0944 17.6617 19.9715C17.5897 19.9116 17.5095 19.8072 17.4534 19.6984C17.0167 19.6814 16.6078 19.7218 16.2628 19.9013C16.2954 20.2243 16.077 20.2762 15.8722 20.3427C15.7203 20.9447 16.1759 21.7309 16.0669 22.2798C15.9891 22.6709 15.5079 22.7313 15.1543 22.8045C15.1428 23.0218 15.1698 23.2033 15.1939 23.3871C15.113 23.6851 14.7503 23.8547 14.4067 23.8962C13.276 24.0322 11.5593 24.0933 10.4717 23.7022C10.1682 22.9578 9.92915 22.0524 9.67637 21.2024C8.61568 21.3157 7.7578 20.7447 6.94906 20.3707C6.66905 20.2408 6.28169 20.1693 6.17709 19.9465C6.07568 19.7307 6.11718 19.3171 6.09201 18.9264C6.02797 17.9286 5.97314 16.9662 5.70965 15.9446C5.59134 15.4862 5.38513 15.0816 5.24127 14.6399C5.10831 14.2305 4.876 13.7245 4.81542 13.3162C4.72558 12.7111 5.29536 12.6775 5.65969 12.4153C6.22291 12.0098 6.66499 11.7856 7.27496 11.4196C7.45563 11.3112 8.00044 11.0369 8.06242 10.9106C8.18561 10.6601 7.85095 10.3069 7.76148 10.1106C7.61995 9.80009 7.54615 9.53634 7.52587 9.22999C7.01418 9.14913 6.6263 8.84461 6.392 8.50124C6.00443 7.93297 5.73564 6.88163 6.07097 6.08192C6.09727 6.01894 6.22843 5.89509 6.24777 5.79836C6.28593 5.60788 6.17595 5.35461 6.16912 5.15201C6.13389 4.11259 6.34498 3.21701 7.04472 2.90355C7.32879 1.77192 8.3455 1.39567 9.3034 0.833263C9.66146 0.62307 10.0562 0.488743 10.4638 0.338743C11.9261 -0.19943 14.1698 -0.0980835 15.3834 0.819801C15.898 1.20903 16.7206 2.03086 17.0149 2.62586C17.792 4.19672 17.7368 6.82201 17.1932 8.73288C17.1202 8.98942 17.0142 9.36653 16.8662 9.67471C16.763 9.8899 16.4424 10.3205 16.4813 10.5105C16.5214 10.7069 17.2125 11.2316 17.3606 11.3745C17.6275 11.6319 18.1344 11.9736 18.1754 12.2984C18.2196 12.644 18.0231 13.1169 17.9236 13.4505C17.5909 14.5636 17.2663 15.5926 16.8891 16.585Z" fill="#231F20"/>
<path fill-rule="evenodd" clip-rule="evenodd" d="M11.7013 8.87941C11.7435 8.82326 11.9754 8.73797 12.2999 8.89422C12.2999 8.89422 11.9153 8.95835 11.9473 9.5996L11.787 9.56749C11.787 9.56749 11.6214 8.98604 11.7013 8.87941Z" fill="#F7E4CD"/>
<path fill-rule="evenodd" clip-rule="evenodd" d="M14.5115 14.3911C14.5115 14.4884 14.4326 14.5673 14.3351 14.5673C14.2378 14.5673 14.1589 14.4884 14.1589 14.3911C14.1589 14.2937 14.2378 14.2147 14.3351 14.2147C14.4326 14.2147 14.5115 14.2937 14.5115 14.3911Z" fill="#1D1919"/>
<path fill-rule="evenodd" clip-rule="evenodd" d="M14.6877 15.2084C14.6877 15.3057 14.6088 15.3846 14.5114 15.3846C14.4141 15.3846 14.3351 15.3057 14.3351 15.2084C14.3351 15.111 14.4141 15.032 14.5114 15.032C14.6088 15.032 14.6877 15.111 14.6877 15.2084Z" fill="#1D1919"/>
</svg>
