<svg width="24" height="24" viewBox="0 0 24 24" fill="none" xmlns="http://www.w3.org/2000/svg">
<path d="M6.48748 19.1437H6.26248L5.13748 18.0187V17.7937L6.86248 16.0687H8.06248L8.23123 16.2375V17.4375L6.48748 19.1437Z" fill="#05BDBA"/>
<path d="M5.13748 6.3375V6.1125L6.26248 4.9875H6.48748L8.21248 6.7125V7.9125L8.06248 8.0625H6.86248L5.13748 6.3375Z" fill="#05BDBA"/>
<path d="M15.0938 15.4875H13.4437L13.3125 15.3562V11.4937C13.3125 10.8 13.05 10.275 12.225 10.2562C11.7937 10.2375 11.3062 10.2562 10.8 10.275L10.725 10.35V15.3375L10.5938 15.4687H8.94375L8.8125 15.3375V8.775L8.94375 8.64375H12.6562C14.1 8.64375 15.2625 9.80625 15.2625 11.25V15.3562L15.0938 15.4875Z" fill="#014847"/>
<path d="M6.7125 13.0125H0.13125L0 12.8812V11.2312L0.13125 11.1H6.7125L6.84375 11.2312V12.8812L6.7125 13.0125Z" fill="#05BDBA"/>
<path d="M23.8688 13.0125H17.2875L17.1562 12.8812V11.2312L17.2875 11.1H23.8688L24 11.2312V12.8812L23.8688 13.0125Z" fill="#05BDBA"/>
<path d="M11.0437 6.58125V1.63125L11.1937 1.5H12.8437L12.975 1.63125V6.5625L12.8437 6.69375H11.1937L11.0437 6.58125Z" fill="#05BDBA"/>
<path d="M11.0437 22.4813V17.55L11.175 17.4188H12.825L12.9562 17.55V22.4813L12.825 22.6125H11.175L11.0437 22.4813Z" fill="#05BDBA"/>
</svg>
