<svg width="96" height="96" viewBox="0 0 96 96" fill="none" xmlns="http://www.w3.org/2000/svg">
<path d="M63.8178 40.0083H80.5394V43.0947H73.9061V59.3316H70.5892V43.0947H63.8178V40.0083Z" fill="black"/>
<path d="M36.3172 40.0083V43.0947H22.9138V48.0597H33.6928V51.146H22.9138V56.2452H36.3172V59.3316H19.5972V43.0947H19.5958V40.0083H36.3172Z" fill="black"/>
<path d="M44.6668 40.0164H40.3263L55.873 59.3396H60.2261L52.4518 49.6846L60.2137 40.0311L55.873 40.0378L50.2787 46.9858L44.6668 40.0164Z" fill="black"/>
<path d="M49.1208 53.8191L46.9472 51.1165L40.3139 59.3544H44.6668L49.1208 53.8191Z" fill="black"/>
<path fill-rule="evenodd" clip-rule="evenodd" d="M19.7134 59.3316L4.14581 40.0002H0V59.3235H3.31665V44.1306L15.5468 59.3316H19.7134Z" fill="black"/>
<path d="M81.285 59.2135C81.042 59.2135 80.8354 59.1294 80.6624 58.9611C80.4894 58.7928 80.4039 58.5891 80.4061 58.3477C80.4039 58.113 80.4894 57.9115 80.6624 57.7432C80.8354 57.5749 81.042 57.4907 81.285 57.4907C81.5186 57.4907 81.723 57.5749 81.896 57.7432C82.0715 57.9115 82.1589 58.113 82.1614 58.3477C82.1589 58.5071 82.1185 58.6533 82.0376 58.7839C81.9545 58.9168 81.849 59.0209 81.7162 59.0962C81.5859 59.1737 81.4421 59.2135 81.285 59.2135Z" fill="black"/>
<path d="M86.9458 51.0732H88.4155V56.7356C88.4133 57.256 88.3007 57.7011 88.0807 58.0753C87.8583 58.4496 87.5503 58.7352 87.1548 58.9367C86.7616 59.136 86.3008 59.2379 85.7772 59.2379C85.2984 59.2379 84.8694 59.1515 84.4873 58.9832C84.1053 58.815 83.8019 58.5625 83.5794 58.2303C83.3546 57.8982 83.2444 57.4841 83.2444 56.988H84.7166C84.7188 57.2051 84.7682 57.3933 84.8625 57.5505C84.9568 57.7077 85.0872 57.8273 85.2536 57.9114C85.422 57.9956 85.6154 58.0377 85.8333 58.0377C86.0694 58.0377 86.2716 57.9889 86.4356 57.8893C86.5996 57.7918 86.7255 57.6457 86.8132 57.4508C86.8985 57.2582 86.9436 57.019 86.9458 56.7356V51.0732Z" fill="black"/>
<path d="M94.4628 53.2877C94.427 52.9444 94.2696 52.6765 93.9955 52.486C93.7189 52.2934 93.3617 52.1982 92.9234 52.1982C92.6156 52.1982 92.3505 52.2447 92.1303 52.3355C91.91 52.4285 91.7392 52.5525 91.6222 52.7097C91.5055 52.8669 91.4471 53.0463 91.4424 53.2478C91.4424 53.4161 91.4829 53.5623 91.5616 53.6841C91.6403 53.8081 91.7458 53.9122 91.883 53.9963C92.0177 54.0827 92.1683 54.1535 92.3325 54.2111C92.4987 54.2687 92.6651 54.3174 92.8313 54.3573L93.5976 54.5455C93.9055 54.6163 94.2045 54.7116 94.4898 54.8334C94.7751 54.953 95.0337 55.1057 95.2605 55.2895C95.4876 55.4733 95.6674 55.6948 95.8 55.9539C95.9325 56.213 96 56.5163 96 56.8662C96 57.3379 95.8787 57.752 95.6335 58.1107C95.3887 58.4673 95.0359 58.7463 94.5729 58.9478C94.1122 59.1471 93.5549 59.249 92.8988 59.249C92.265 59.249 91.7122 59.1516 91.247 58.9567C90.7797 58.764 90.4154 58.4806 90.1525 58.1085C89.8896 57.7365 89.7481 57.2825 89.7278 56.7489H91.1842C91.2044 57.0279 91.2943 57.2604 91.4471 57.4486C91.602 57.6346 91.8043 57.7719 92.0516 57.8649C92.3011 57.9557 92.5796 58.0022 92.8876 58.0022C93.2089 58.0022 93.4921 57.9535 93.7369 57.8583C93.9796 57.7631 94.1706 57.6302 94.3078 57.4575C94.4472 57.287 94.5169 57.0855 94.5191 56.8552C94.5169 56.6448 94.4538 56.4698 94.3324 56.3325C94.2089 56.1953 94.0381 56.0801 93.82 55.9871C93.6 55.8941 93.3437 55.8099 93.0515 55.7369L92.1213 55.5021C91.4493 55.3316 90.9166 55.0725 90.5278 54.7249C90.1369 54.3772 89.9435 53.9166 89.9435 53.3386C89.9435 52.8647 90.0738 52.4484 90.337 52.0919C90.5974 51.7354 90.9549 51.4586 91.4066 51.2615C91.8605 51.0622 92.373 50.9647 92.9436 50.9647C93.5235 50.9647 94.0313 51.0622 94.4696 51.2615C94.9077 51.4586 95.2517 51.7331 95.501 52.083C95.7505 52.4329 95.8809 52.8337 95.8877 53.2877H94.4628Z" fill="black"/>
</svg>
