<svg width="24" height="24" viewBox="0 0 24 24" fill="none" xmlns="http://www.w3.org/2000/svg">
<path d="M12.1875 23.85C11.8632 23.85 11.5605 23.7636 11.2791 23.6124L8.40208 21.9066C7.96948 21.669 8.18578 21.5826 8.31538 21.5394C8.89948 21.345 9.00778 21.3018 9.61348 20.9562C9.67828 20.913 9.76468 20.9346 9.82948 20.9778L12.0363 22.2951C12.1227 22.3383 12.231 22.3383 12.2958 22.2951L20.9268 17.3067C21.0135 17.2635 21.0567 17.1774 21.0567 17.0694V7.11422C21.0567 7.00622 21.0135 6.91982 20.9271 6.87662L12.2958 1.90982C12.2094 1.86662 12.1008 1.86662 12.0363 1.90982L3.40498 6.87662C3.31798 6.91982 3.27478 7.02782 3.27478 7.11422V17.0694C3.27478 17.1555 3.31828 17.2635 3.40468 17.3067L5.76268 18.6672C7.03888 19.3152 7.83928 18.5592 7.83928 17.8035V7.97792C7.83928 7.84832 7.94728 7.71872 8.09878 7.71872H9.20218C9.33178 7.71872 9.46168 7.82672 9.46168 7.97792V17.8035C9.46168 19.5096 8.53168 20.5029 6.90898 20.5029C6.41158 20.5029 6.02218 20.5029 4.91908 19.9629L2.64748 18.6672C2.37128 18.5071 2.14201 18.2772 1.98264 18.0006C1.82326 17.7239 1.73937 17.4103 1.73938 17.091V7.13582C1.73935 6.81648 1.82326 6.50274 1.98269 6.22605C2.14212 5.94936 2.37148 5.71943 2.64778 5.55932L11.2788 0.570916C11.82 0.268516 12.5553 0.268516 13.0962 0.570916L21.7272 5.55932C22.0035 5.71939 22.2329 5.9493 22.3924 6.226C22.5519 6.50269 22.6359 6.81645 22.6359 7.13582V17.091C22.6358 17.4103 22.5518 17.724 22.3924 18.0007C22.2329 18.2773 22.0035 18.5072 21.7272 18.6672L13.0962 23.6556C12.8367 23.7636 12.5121 23.85 12.1875 23.85Z" fill="black"/>
<path d="M14.8701 17.0046C11.0841 17.0046 10.3056 15.2769 10.3056 13.8084C10.3056 13.6788 10.4136 13.5492 10.5651 13.5492H11.6901C11.82 13.5492 11.928 13.6356 11.928 13.7652C12.1011 14.9097 12.5985 15.4713 14.8917 15.4713C16.7088 15.4713 17.4873 15.0609 17.4873 14.0892C17.4873 13.5279 17.2713 13.1172 14.4372 12.8367C12.0792 12.5991 10.6086 12.0807 10.6086 10.2021C10.6086 8.45308 12.0795 7.41658 14.5455 7.41658C17.3145 7.41658 18.6771 8.36668 18.8505 10.4397C18.8505 10.5045 18.8286 10.5693 18.7854 10.6341C18.7422 10.6773 18.6774 10.7205 18.6123 10.7205H17.4657C17.4103 10.7186 17.3569 10.6986 17.3139 10.6635C17.271 10.6284 17.2407 10.5801 17.2278 10.5261C16.9683 9.33808 16.2978 8.94958 14.5239 8.94958C12.5337 8.94958 12.2958 9.64078 12.2958 10.1589C12.2958 10.7853 12.5769 10.9797 15.2595 11.325C17.9202 11.6706 19.1745 12.1674 19.1745 14.0244C19.1745 15.9249 17.5956 17.0046 14.8701 17.0046Z" fill="black"/>
</svg>
