<svg width="24" height="24" viewBox="0 0 24 24" fill="none" xmlns="http://www.w3.org/2000/svg">
<path d="M1.44408 1.03541L14.724 0.0545262C16.3553 -0.0853938 16.7743 0.00892621 17.8001 0.754606L22.0392 3.74093C22.7383 4.25453 22.9711 4.39445 22.9711 4.95365V21.332C22.9711 22.3584 22.5984 22.9656 21.2935 23.0583L5.87208 23.9924C4.89288 24.0387 4.42656 23.8988 3.91368 23.2452L0.792 19.1859C0.23208 18.4388 0 17.8796 0 17.2258V2.66741C0 1.82813 0.37272 1.12829 1.44408 1.03541Z" fill="white"/>
<path fill-rule="evenodd" clip-rule="evenodd" d="M14.724 0.0545262L1.44408 1.03541C0.37272 1.12829 0 1.82813 0 2.66741V17.2258C0 17.8796 0.23208 18.4388 0.792 19.1859L3.91368 23.2452C4.42656 23.8988 4.89288 24.0387 5.87208 23.9924L21.2935 23.0583C22.5984 22.9656 22.9711 22.3584 22.9711 21.332V4.95365C22.9711 4.42325 22.7618 4.27061 22.145 3.81797L17.8001 0.754606C16.7743 0.00892621 16.3553 -0.0853938 14.724 0.0545262ZM6.2208 4.68581C4.96152 4.77053 4.67592 4.78973 3.96072 4.20821L2.14248 2.76197C1.95768 2.57477 2.05056 2.34125 2.51616 2.29469L15.2825 1.36181C16.3546 1.26821 16.9128 1.64189 17.3321 1.96829L19.5216 3.55469C19.6152 3.60197 19.848 3.88109 19.5679 3.88109L6.384 4.67477L6.2208 4.68581ZM4.75272 21.1923V7.28837C4.75272 6.68117 4.9392 6.40109 5.49744 6.35405L20.64 5.46749C21.1536 5.42117 21.3857 5.74757 21.3857 6.35381V20.1651C21.3857 20.7723 21.2921 21.2859 20.4538 21.3322L5.96328 22.1722C5.12496 22.2185 4.75272 21.9394 4.75272 21.1923ZM19.0567 8.03381C19.1496 8.45381 19.0567 8.87381 18.6367 8.92181L17.9383 9.06029V19.3258C17.3318 19.6522 16.7736 19.8387 16.307 19.8387C15.5614 19.8387 15.3751 19.6052 14.8166 18.9058L10.2494 11.7202V18.6723L11.6942 18.9994C11.6942 18.9994 11.6942 19.8394 10.5286 19.8394L7.31496 20.0259C7.22136 19.8387 7.31496 19.3724 7.64064 19.2795L8.47992 19.0467V9.85469L7.3152 9.76037C7.2216 9.34037 7.4544 8.73389 8.1072 8.68685L11.5553 8.45477L16.3073 15.7332V9.29405L15.096 9.15485C15.0024 8.64053 15.3751 8.26685 15.8407 8.22125L19.0567 8.03381Z" fill="black"/>
</svg>
