<svg width="24" height="24" viewBox="0 0 24 24" fill="none" xmlns="http://www.w3.org/2000/svg">
<path d="M13.4642 19.659H22.386C22.6694 19.659 22.9478 19.5867 23.1932 19.4492C23.4386 19.3118 23.6424 19.1141 23.784 18.876C23.9256 18.6379 24.0001 18.3679 24 18.093C23.9998 17.8182 23.9251 17.5482 23.7833 17.3102L17.7916 7.24373C17.65 7.00571 17.4463 6.80806 17.201 6.67062C16.9556 6.5332 16.6773 6.46084 16.3939 6.46084C16.1106 6.46084 15.8323 6.5332 15.5869 6.67062C15.3416 6.80806 15.1379 7.00571 14.9962 7.24373L13.4642 9.81937L10.4688 4.78277C10.3271 4.54476 10.1233 4.34714 9.87784 4.20973C9.63244 4.07233 9.35405 4 9.0707 4C8.78733 4 8.50894 4.07233 8.26354 4.20973C8.01811 4.34714 7.8143 4.54476 7.67256 4.78277L0.216706 17.3102C0.0748645 17.5482 0.000123449 17.8182 1.52794e-07 18.093C-0.000123144 18.3679 0.0743759 18.6379 0.216004 18.876C0.357632 19.1141 0.561394 19.3118 0.806798 19.4492C1.0522 19.5867 1.33059 19.659 1.61397 19.659H7.21433C9.43326 19.659 11.0696 18.7136 12.1956 16.8691L14.9293 12.277L16.3935 9.81937L20.7879 17.2014H14.9293L13.4642 19.659ZM7.12303 17.1989L3.21469 17.198L9.07331 7.35588L11.9965 12.277L10.0393 15.5661C9.29154 16.7629 8.44205 17.1989 7.12303 17.1989Z" fill="#00DC82"/>
</svg>
