<svg width="24" height="24" viewBox="0 0 24 24" fill="none" xmlns="http://www.w3.org/2000/svg">
<path d="M9.11761 8.77411V6.28749C9.11761 6.12321 9.16241 6.00373 9.33416 5.90666L13.949 3.22589C14.5688 2.86745 15.3603 2.70317 16.1294 2.70317C19.0492 2.70317 20.8936 4.95084 20.8936 7.37025C20.8936 7.56441 20.8936 7.82576 20.8488 8.04231L16.0174 5.21966C15.7785 5.07778 15.5171 5.05538 15.2259 5.21966L9.11761 8.77411ZM19.7884 17.608V12.0821C19.7884 11.7685 19.6689 11.5594 19.3852 11.3877L13.262 7.82576L15.4126 6.57872C15.532 6.50404 15.7262 6.50404 15.8457 6.57872L20.4904 9.25949C21.8046 10.0286 22.7156 11.7013 22.7156 13.2993C22.7081 15.1885 21.5582 16.9359 19.7884 17.608ZM7.84816 12.8438L5.71997 11.5744C5.55569 11.4773 5.50342 11.3578 5.50342 11.1935V5.86185C5.50342 3.25576 7.48973 1.29185 10.1929 1.29185C11.2458 1.29185 12.2539 1.65028 13.0604 2.29994L8.25887 5.09272C7.97511 5.257 7.85563 5.47355 7.85563 5.78718V12.8438H7.84816ZM12.0149 15.2408L9.11761 13.6129V10.1705L12.0149 8.54263L14.8824 10.1705V13.6129L12.0149 15.2408ZM13.8071 22.4841C12.7542 22.4841 11.7461 22.1257 10.9396 21.476L15.7486 18.6833C16.0324 18.519 16.1518 18.3024 16.1518 17.9888V10.9322L18.3024 12.2016C18.4667 12.2987 18.519 12.4182 18.519 12.5825V17.9216C18.519 20.5277 16.5103 22.4841 13.8071 22.4841ZM8.16179 17.1973L3.51711 14.5165C2.20286 13.7474 1.29185 12.0747 1.29185 10.4767C1.29185 8.56503 2.46422 6.84007 4.23398 6.16801V11.7162C4.23398 12.0299 4.35345 12.239 4.63721 12.4107L10.738 15.9502L8.58743 17.1973C8.47542 17.2719 8.28127 17.2719 8.16179 17.1973ZM7.87057 21.0728C5.12259 21.0728 3.10641 19.0118 3.10641 16.458C3.10641 16.219 3.12881 15.9801 3.15121 15.7635L7.96017 18.5414C8.24393 18.7057 8.48289 18.7057 8.77411 18.5414L14.8749 15.0019V17.4885C14.8749 17.6528 14.8301 17.7722 14.6584 17.8693L10.051 20.5501C9.43124 20.9085 8.6397 21.0728 7.87057 21.0728ZM13.8071 23.776C16.6745 23.776 19.0716 21.715 19.5943 18.9894C22.275 18.3174 24 15.8307 24 13.2918C24 11.6192 23.2831 10.0137 21.9689 8.84132C22.0884 8.34101 22.1854 7.81083 22.1854 7.31052C22.1854 3.93528 19.4375 1.40386 16.2788 1.40386C15.6291 1.40386 14.9869 1.52334 14.3671 1.73989C13.2844 0.664593 11.8208 0 10.1929 0C7.32545 0 4.92844 2.06098 4.40572 4.78656C1.72495 5.45862 0 7.94524 0 10.4841C0 12.1568 0.716864 13.7623 2.03111 14.9347C1.91164 15.435 1.81456 15.9652 1.81456 16.4655C1.81456 19.8407 4.56254 22.3721 7.72122 22.3721C8.37088 22.3721 9.01307 22.2526 9.63286 22.0361C10.7231 23.1114 12.1792 23.776 13.8071 23.776Z" fill="black"/>
</svg>
