<svg width="96" height="96" viewBox="0 0 96 96" fill="none" xmlns="http://www.w3.org/2000/svg">
<path d="M36.0895 41.4832C32.2414 41.4832 29.0847 44.6317 29.0847 48.4879C29.0847 52.3442 32.2332 55.4927 36.0895 55.4927C39.9458 55.4927 43.0942 52.3605 43.0942 48.4879C43.0942 44.6154 39.9539 41.4832 36.0895 41.4832ZM36.0895 52.9788C33.6976 52.9788 31.7695 51.0181 31.7695 48.4879C31.7695 45.9578 33.6976 43.989 36.0895 43.989C38.4814 43.989 40.4095 45.9496 40.4095 48.4798C40.4095 51.01 38.4814 52.9788 36.0895 52.9788Z" fill="black"/>
<path d="M50.1641 45.372C48.9031 45.372 47.6746 45.8764 47.0319 46.7307V45.5673H44.5017V59.1781H47.0319V54.2561C47.6746 55.0534 48.8624 55.4846 50.1641 55.4846C52.8895 55.4846 55.0292 53.3449 55.0292 50.4242C55.0292 47.5035 52.8895 45.372 50.1641 45.372ZM49.741 53.2879C48.301 53.2879 47.0156 52.1571 47.0156 50.4324C47.0156 48.7076 48.301 47.5768 49.741 47.5768C51.181 47.5768 52.4664 48.7076 52.4664 50.4324C52.4664 52.1571 51.181 53.2879 49.741 53.2879Z" fill="black"/>
<path d="M60.9762 45.372C58.2183 45.372 56.0379 47.5279 56.0379 50.4324C56.0379 53.3368 57.9417 55.4927 61.0576 55.4927C63.604 55.4927 65.2393 53.9551 65.7437 52.2222H63.2705C62.9613 52.9381 62.0827 53.4507 61.0332 53.4507C59.7315 53.4507 58.739 52.5395 58.503 51.2296H65.8576V50.2371C65.8576 47.5849 64.0108 45.372 60.9762 45.372ZM58.5274 49.4317C58.7959 48.2032 59.8129 47.4059 61.0332 47.4059C62.3349 47.4059 63.3274 48.2602 63.4413 49.4317H58.5274Z" fill="black"/>
<path d="M72.5858 45.372C71.4549 45.372 70.2753 45.8764 69.7302 46.7144V45.5673H67.2V55.2893H69.7302V50.0581C69.7302 48.5449 70.5437 47.5524 71.8698 47.5524C73.0983 47.5524 73.7573 48.4879 73.7573 49.7896V55.2893H76.2875V49.3747C76.2875 46.9666 74.8068 45.372 72.5858 45.372Z" fill="black"/>
<path d="M82.7553 41.6785L77.2556 55.2893H79.9566L81.12 52.3117H87.3844L88.5478 55.2893H91.2895L85.8224 41.6785H82.7553ZM81.9986 50.0581L84.2522 44.3632L86.4895 50.0581H81.9986Z" fill="black"/>
<path d="M92.3308 41.6785V55.2893H94.9017V41.6785H92.3308Z" fill="black"/>
<path d="M9.93356 45.5591V42.85C9.93356 42.671 9.98237 42.5408 10.1695 42.4351L15.1973 39.5144C15.8725 39.1239 16.7349 38.9449 17.5729 38.9449C20.7539 38.9449 22.7634 41.3937 22.7634 44.0296C22.7634 44.2412 22.7634 44.5259 22.7146 44.7619L17.4508 41.6866C17.1905 41.532 16.9058 41.5076 16.5885 41.6866L9.93356 45.5591ZM21.5593 55.1835V49.1632C21.5593 48.8215 21.4292 48.5937 21.12 48.4066L14.4488 44.5259L16.7919 43.1673C16.922 43.0859 17.1336 43.0859 17.2637 43.1673L22.3241 46.088C23.7559 46.9259 24.7485 48.7483 24.7485 50.4893C24.7403 52.5476 23.4875 54.4513 21.5593 55.1835ZM8.55051 49.993L6.23186 48.61C6.05288 48.5042 5.99593 48.3741 5.99593 48.1951V42.3863C5.99593 39.5469 8.16 37.4073 11.1051 37.4073C12.2522 37.4073 13.3505 37.7978 14.2292 38.5056L8.99797 41.5483C8.68881 41.7273 8.55865 41.9632 8.55865 42.3049V49.993H8.55051ZM13.0902 52.6046L9.93356 50.831V47.0805L13.0902 45.3069L16.2142 47.0805V50.831L13.0902 52.6046ZM15.0427 60.4961C13.8956 60.4961 12.7973 60.1056 11.9186 59.3978L17.158 56.3551C17.4671 56.1761 17.5973 55.9402 17.5973 55.5985V47.9103L19.9403 49.2934C20.1193 49.3991 20.1763 49.5293 20.1763 49.7083V55.5252C20.1763 58.3646 17.9878 60.4961 15.0427 60.4961ZM8.8922 54.7361L3.83186 51.8154C2.4 50.9774 1.40746 49.1551 1.40746 47.4141C1.40746 45.3313 2.68475 43.452 4.61288 42.7198V48.7646C4.61288 49.1063 4.74305 49.3341 5.0522 49.5212L11.699 53.3774L9.35593 54.7361C9.2339 54.8174 9.02237 54.8174 8.8922 54.7361ZM8.57492 58.9585C5.58102 58.9585 3.38441 56.713 3.38441 53.9307C3.38441 53.6703 3.40881 53.41 3.43322 53.1741L8.67254 56.2005C8.9817 56.3795 9.24203 56.3795 9.55932 56.2005L16.2061 52.3442V55.0534C16.2061 55.2324 16.1573 55.3625 15.9702 55.4683L10.9505 58.389C10.2753 58.7795 9.41288 58.9585 8.57492 58.9585ZM15.0427 61.9035C18.1668 61.9035 20.7783 59.6581 21.3478 56.6886C24.2685 55.9564 26.1478 53.2473 26.1478 50.4812C26.1478 48.6588 25.3668 46.9096 23.9349 45.6324C24.0651 45.0873 24.1708 44.5096 24.1708 43.9646C24.1708 40.2873 21.1769 37.5293 17.7356 37.5293C17.0278 37.5293 16.3281 37.6595 15.6529 37.8954C14.4732 36.7239 12.8786 35.9998 11.1051 35.9998C7.98102 35.9998 5.36949 38.2452 4.8 41.2147C1.87932 41.9469 0 44.6561 0 47.4222C0 49.2446 0.781017 50.9937 2.21288 52.271C2.08271 52.8161 1.97695 53.3937 1.97695 53.9388C1.97695 57.6161 4.97085 60.3741 8.4122 60.3741C9.12 60.3741 9.81966 60.2439 10.4949 60.008C11.6827 61.1795 13.2692 61.9035 15.0427 61.9035Z" fill="black"/>
</svg>
