<svg width="96" height="96" viewBox="0 0 96 96" fill="none" xmlns="http://www.w3.org/2000/svg">
<path d="M17.8439 41.9365C18.2501 42.1517 18.5979 42.4154 18.8781 42.7334C19.8039 43.7886 19.9848 45.2891 19.6349 47.0859C18.7973 51.3871 15.9315 52.8739 12.2706 52.874H11.7052C11.2578 52.874 10.8765 53.1989 10.8068 53.6416L10.7619 53.8896L10.0499 58.4043L10.0128 58.5967C9.9424 59.0379 9.56175 59.3631 9.11439 59.3633H5.33607C5.00177 59.3633 4.7464 59.0646 4.79799 58.7334L5.10658 56.7715L6.1974 49.8535C6.27721 49.349 6.70839 48.9778 7.21986 48.9775H9.35072C13.535 48.9775 16.8119 47.2788 17.7697 42.3623C17.7975 42.2169 17.8222 42.0749 17.8439 41.9365ZM56.2394 46.123C56.5644 46.1232 56.8518 46.3363 56.9454 46.6475L58.4347 51.6221L61.9484 46.4453C62.0861 46.2434 62.3148 46.1232 62.5578 46.123H65.1056C65.4625 46.123 65.6707 46.5228 65.4679 46.8154L56.9943 59.0479C56.8573 59.2459 56.6312 59.3631 56.3898 59.3633H53.8449C53.4865 59.3633 53.2772 58.9604 53.4845 58.667L56.1232 54.9424L53.3165 46.7061C53.22 46.4197 53.4313 46.1231 53.7355 46.123H56.2394ZM11.3204 36C13.8217 36.0001 15.7765 36.5285 16.8595 37.7617C17.8417 38.8818 18.1297 40.1188 17.8449 41.9355C17.6026 41.8078 17.3393 41.6972 17.0568 41.6035C16.9865 41.5811 16.9145 41.5587 16.8419 41.5371C16.6957 41.4946 16.5445 41.4557 16.3898 41.4209C16.2343 41.3869 16.0743 41.3564 15.9103 41.3301C15.336 41.2372 14.7064 41.1934 14.0324 41.1934H8.34096C8.20106 41.1934 8.06822 41.2251 7.94838 41.2822C7.68594 41.4076 7.49073 41.6567 7.4435 41.9609L6.23256 49.6299L5.10658 56.7715H0.623183C0.240815 56.7714 -0.0516554 56.4291 0.00794862 56.0498L3.03236 36.877C3.11142 36.3715 3.54783 36 4.05873 36H11.3204ZM45.3478 45.8848C46.5695 45.8848 47.794 46.1506 48.3429 46.9473L48.5197 47.2041L48.632 46.4951C48.6652 46.2808 48.8517 46.1233 49.0675 46.123H51.6037C51.8744 46.1232 52.0813 46.365 52.0382 46.6318L50.6671 55.3105C50.6096 55.6687 50.3035 55.9316 49.9406 55.9316H47.6564C47.3863 55.9315 47.1793 55.6902 47.2218 55.4209L47.3341 54.7158C47.3295 54.7212 46.0786 56.1679 43.8253 56.168C42.51 56.168 41.4046 55.7883 40.632 54.8779C39.7897 53.8878 39.4444 52.4682 39.6867 50.9834C40.1527 48.0067 42.5461 45.8849 45.3478 45.8848ZM83.1144 45.8848C84.3361 45.8848 85.5596 46.1506 86.1085 46.9473L86.2863 47.2041L86.3986 46.4951C86.4311 46.2807 86.6166 46.1231 86.8341 46.123H89.3673C89.639 46.123 89.8465 46.3648 89.8048 46.6318L88.4337 55.3105C88.377 55.6686 88.0694 55.9315 87.7081 55.9316H85.4249C85.1532 55.9316 84.9459 55.6903 84.9884 55.4209L85.1007 54.7158C85.0961 54.7212 83.8452 56.1679 81.5919 56.168C80.2766 56.168 79.1728 55.7883 78.3986 54.8779C77.5563 53.8878 77.2128 52.4682 77.4542 50.9834C77.9203 48.0067 80.3127 45.8849 83.1144 45.8848ZM35.7755 41.2256C37.5476 41.2256 38.8824 41.693 39.6349 42.5771C40.3201 43.3823 40.5476 44.5319 40.3107 45.9951C39.785 49.3394 37.7719 51.0273 34.2843 51.0273H32.6076C32.2463 51.0276 31.9379 51.2903 31.882 51.6484L31.3038 55.3105C31.2473 55.669 30.9396 55.9326 30.5773 55.9326H28.0499C27.7782 55.9326 27.5699 55.6907 27.6124 55.4229L29.754 41.8457C29.8107 41.4882 30.1194 41.2256 30.4816 41.2256H35.7755ZM73.5412 41.2256C75.3133 41.2256 76.6478 41.693 77.3996 42.5771C78.0845 43.3823 78.313 44.532 78.0753 45.9951C77.5488 49.3395 75.5364 51.0273 72.048 51.0273H70.3732C70.0118 51.0274 69.7025 51.2902 69.6466 51.6484L69.0392 55.4971C68.9997 55.7478 68.7836 55.9324 68.5314 55.9326H65.8136C65.5434 55.9326 65.3355 55.6907 65.3781 55.4229L67.5197 41.8457C67.5763 41.4882 67.8848 41.2256 68.2462 41.2256H73.5412ZM95.2394 41.2246C95.5094 41.2246 95.7172 41.4667 95.6749 41.7344L93.5324 55.3115C93.4765 55.6698 93.1678 55.9326 92.8048 55.9326H90.6203C90.3501 55.9326 90.1421 55.6907 90.1847 55.4229L92.3585 41.5977C92.3919 41.3834 92.5773 41.2255 92.7931 41.2246H95.2394ZM45.9494 48.5732C44.5056 48.5733 43.3369 49.5776 43.1085 51.0137C42.9894 51.7181 43.1313 52.3506 43.506 52.7949C43.8837 53.2423 44.4721 53.4784 45.2081 53.4785C46.6744 53.4785 47.8248 52.5061 48.0695 51.0576C48.1802 50.3563 48.0269 49.7197 47.6408 49.2637C47.2552 48.8123 46.6693 48.5732 45.9494 48.5732ZM83.714 48.5732C82.2701 48.5733 81.1021 49.5776 80.8722 51.0137C80.7547 51.718 80.896 52.3506 81.2706 52.7949C81.6484 53.2422 82.2383 53.4785 82.9728 53.4785C84.439 53.4785 85.59 52.506 85.8331 51.0576C85.9454 50.3562 85.7923 49.7197 85.4044 49.2637C85.0189 48.8124 84.4339 48.5733 83.714 48.5732ZM33.4396 44.1631C33.223 44.1631 33.0375 44.3209 33.004 44.5352L32.4435 48.084H33.2423C34.6458 48.084 36.0973 48.0833 36.3869 46.1836C36.4929 45.5164 36.4079 45.0331 36.13 44.708C35.664 44.163 34.7619 44.1631 33.8058 44.1631H33.4396ZM71.2062 44.1631C70.9888 44.1631 70.8041 44.3209 70.7706 44.5352L70.2091 48.084H71.0079C72.4122 48.084 73.8637 48.0833 74.1525 46.1836C74.2585 45.5164 74.1744 45.0331 73.8966 44.708C73.4306 44.1631 72.5276 44.1631 71.5724 44.1631H71.2062Z" fill="black"/>
</svg>
