<svg width="96" height="96" viewBox="0 0 96 96" fill="none" xmlns="http://www.w3.org/2000/svg">
<path d="M35.7761 41.2253H30.4814C30.1191 41.2253 29.811 41.4885 29.7545 41.8462L27.613 55.4232C27.5705 55.6911 27.7779 55.9326 28.0497 55.9326H30.5774C30.9398 55.9326 31.2479 55.6694 31.3044 55.3109L31.8819 51.649C31.9377 51.2906 32.2466 51.0273 32.6081 51.0273H34.2843C37.772 51.0273 39.7849 49.3396 40.3106 45.9951C40.5475 44.5319 40.3207 43.3822 39.6355 42.577C38.883 41.6929 37.5483 41.2253 35.7761 41.2253ZM36.387 46.184C36.0974 48.0839 34.6458 48.0839 33.2422 48.0839H32.4432L33.0038 44.5357C33.037 44.3213 33.2229 44.1633 33.4396 44.1633H33.8058C34.7619 44.1633 35.6639 44.1633 36.1299 44.7084C36.4079 45.0335 36.493 45.5166 36.387 46.184Z" fill="#253B80"/>
<path d="M51.6031 46.1228H49.0676C48.8516 46.1228 48.6651 46.2807 48.6318 46.4952L48.5195 47.2043L48.3422 46.9473C47.7933 46.1506 46.5693 45.8843 45.3476 45.8843C42.5458 45.8843 40.1528 48.0064 39.6867 50.9832C39.4444 52.4681 39.7889 53.8879 40.6312 54.8781C41.4039 55.7886 42.5094 56.1679 43.8248 56.1679C46.0823 56.1679 47.3342 54.7163 47.3342 54.7163L47.2212 55.4208C47.1786 55.6903 47.3861 55.9318 47.6563 55.9318H49.9402C50.3032 55.9318 50.6098 55.6686 50.6671 55.3101L52.0374 46.6322C52.0808 46.3651 51.8741 46.1228 51.6031 46.1228ZM48.0689 51.0575C47.8243 52.506 46.6746 53.4784 45.2083 53.4784C44.472 53.4784 43.8836 53.2423 43.5058 52.7948C43.1311 52.3504 42.9887 51.7179 43.1079 51.0134C43.3363 49.5772 44.5053 48.5731 45.9492 48.5731C46.6692 48.5731 47.2545 48.8123 47.64 49.2637C48.0263 49.7197 48.1796 50.3561 48.0689 51.0575Z" fill="#253B80"/>
<path d="M65.1066 46.1228H62.5587C62.3156 46.1228 62.0872 46.2435 61.9494 46.4456L58.4354 51.6219L56.9458 46.6477C56.8522 46.3364 56.5649 46.1228 56.2398 46.1228H53.736C53.4318 46.1228 53.2204 46.4201 53.3172 46.7065L56.1236 54.9424L53.4852 58.667C53.2777 58.9604 53.4867 59.3638 53.8452 59.3638H56.39C56.6315 59.3638 56.8576 59.2461 56.9946 59.0479L65.4689 46.8157C65.6718 46.523 65.4635 46.1228 65.1066 46.1228Z" fill="#253B80"/>
<path d="M73.5423 41.2253H68.2468C67.8852 41.2253 67.5771 41.4885 67.5206 41.8462L65.3792 55.4232C65.3366 55.6911 65.5441 55.9326 65.8143 55.9326H68.5317C68.7841 55.9326 69.0001 55.7484 69.0396 55.4975L69.6473 51.649C69.703 51.2906 70.0119 51.0273 70.3735 51.0273H72.0489C75.5374 51.0273 77.5495 49.3396 78.0759 45.9951C78.3136 44.5319 78.0852 43.3822 77.4001 42.577C76.6483 41.6929 75.3144 41.2253 73.5423 41.2253ZM74.1531 46.184C73.8643 48.0839 72.4127 48.0839 71.0083 48.0839H70.2101L70.7714 44.5357C70.8047 44.3213 70.989 44.1633 71.2065 44.1633H71.5727C72.5281 44.1633 73.4308 44.1633 73.8969 44.7084C74.1748 45.0335 74.2592 45.5166 74.1531 46.184Z" fill="#179BD7"/>
<path d="M89.3682 46.1228H86.8343C86.6167 46.1228 86.4317 46.2807 86.3992 46.4952L86.2869 47.2043L86.1089 46.9473C85.56 46.1506 84.3367 45.8843 83.1151 45.8843C80.3132 45.8843 77.921 48.0064 77.4549 50.9832C77.2134 52.4681 77.5563 53.8879 78.3987 54.8781C79.1729 55.7886 80.2769 56.1679 81.5922 56.1679C83.8498 56.1679 85.1016 54.7163 85.1016 54.7163L84.9886 55.4208C84.946 55.6903 85.1535 55.9318 85.4252 55.9318H87.7083C88.0699 55.9318 88.378 55.6686 88.4345 55.3101L89.8056 46.6322C89.8474 46.3651 89.64 46.1228 89.3682 46.1228ZM85.834 51.0575C85.5909 52.506 84.4397 53.4784 82.9734 53.4784C82.2387 53.4784 81.6487 53.2423 81.2709 52.7948C80.8962 52.3504 80.7553 51.7179 80.873 51.0134C81.1029 49.5772 82.2704 48.5731 83.7143 48.5731C84.4343 48.5731 85.0196 48.8123 85.4051 49.2637C85.793 49.7197 85.9463 50.3561 85.834 51.0575Z" fill="#179BD7"/>
<path d="M92.3575 41.5977L90.1844 55.4232C90.1418 55.6911 90.3493 55.9326 90.6195 55.9326H92.8042C93.1673 55.9326 93.4755 55.6694 93.5312 55.311L95.6742 41.7347C95.7168 41.4668 95.5093 41.2245 95.2391 41.2245H92.7926C92.5766 41.2253 92.3908 41.3832 92.3575 41.5977Z" fill="#179BD7"/>
<path d="M5.62532 58.5711L6.03022 55.9992L5.12829 55.9783H0.821447L3.81448 37.0005C3.82377 36.9432 3.85396 36.8898 3.89809 36.8519C3.94222 36.8139 3.99874 36.793 4.05758 36.793H11.3195C13.7304 36.793 15.3941 37.2947 16.2627 38.2849C16.67 38.7494 16.9293 39.2348 17.0547 39.769C17.1863 40.3295 17.1887 40.9992 17.0602 41.816L17.0509 41.8756V42.399L17.4581 42.6297C17.8011 42.8116 18.0736 43.0199 18.2826 43.2583C18.631 43.6555 18.8563 44.1603 18.9515 44.7587C19.0498 45.3742 19.0173 46.1066 18.8563 46.9357C18.6705 47.8895 18.3701 48.7203 17.9644 49.4C17.5913 50.0263 17.1159 50.5458 16.5515 50.9484C16.0127 51.3308 15.3724 51.6212 14.6485 51.807C13.9471 51.9897 13.1474 52.0818 12.2702 52.0818H11.7051C11.3009 52.0818 10.9084 52.2274 10.6003 52.4883C10.2914 52.7546 10.087 53.1185 10.0243 53.5164L9.9817 53.7479L9.26635 58.2808L9.23383 58.4472C9.22532 58.4999 9.21061 58.5262 9.18893 58.544C9.16958 58.5603 9.1417 58.5711 9.11461 58.5711H5.62532Z" fill="#253B80"/>
<path d="M17.8437 41.936C17.822 42.0745 17.7973 42.2162 17.7694 42.3618C16.8117 47.2787 13.5353 48.9772 9.35082 48.9772H7.22024C6.7085 48.9772 6.27727 49.3489 6.19753 49.8536L5.10669 56.7718L4.79779 58.7329C4.74592 59.0642 5.0014 59.3631 5.33585 59.3631H9.11469C9.56218 59.3631 9.9423 59.0379 10.0128 58.5966L10.0499 58.4046L10.7614 53.8895L10.8071 53.6418C10.8768 53.1989 11.2577 52.8738 11.7051 52.8738H12.2703C15.9315 52.8738 18.7975 51.3873 19.6352 47.0859C19.9851 45.289 19.804 43.7886 18.878 42.7334C18.5978 42.4152 18.2502 42.1512 17.8437 41.936Z" fill="#179BD7"/>
<path d="M16.8417 41.5365C16.6954 41.4939 16.5444 41.4552 16.3896 41.4204C16.234 41.3863 16.0745 41.3561 15.9104 41.3298C15.3359 41.2369 14.7065 41.1928 14.0322 41.1928H8.3403C8.20017 41.1928 8.06701 41.2245 7.94778 41.2818C7.68533 41.408 7.49023 41.6565 7.44301 41.9608L6.23217 49.6299L6.19753 49.8536C6.27727 49.3489 6.7085 48.9772 7.22024 48.9772H9.35082C13.5353 48.9772 16.8117 47.2787 17.7694 42.3618C17.7973 42.2162 17.822 42.0745 17.8437 41.936C17.6014 41.8074 17.3387 41.6975 17.0562 41.6039C16.9865 41.5806 16.9145 41.5582 16.8417 41.5365Z" fill="#222D65"/>
<path d="M7.44301 41.9608C7.49023 41.6565 7.68533 41.408 7.94778 41.2818C8.06701 41.2245 8.20017 41.1928 8.3403 41.1928H14.0322C14.7065 41.1928 15.3359 41.2369 15.9104 41.3298C16.0745 41.3561 16.234 41.3863 16.3896 41.4204C16.5444 41.4552 16.6954 41.4939 16.8417 41.5365C16.9145 41.5582 16.9857 41.5814 17.0562 41.6039C17.3387 41.6975 17.6014 41.8074 17.8437 41.936C18.1286 40.1189 17.8421 38.8815 16.8596 37.7613C15.7765 36.528 13.8217 36 11.3202 36H4.05831C3.54735 36 3.11148 36.3716 3.03251 36.8772L0.00773328 56.0501C-0.0518796 56.4294 0.240766 56.7716 0.623217 56.7716L5.10669 56.7718L6.23217 49.6299L7.44301 41.9608Z" fill="#253B80"/>
</svg>
