<svg width="24" height="24" viewBox="0 0 24 24" fill="none" xmlns="http://www.w3.org/2000/svg">
<path d="M21.4972 4.6658C17.4466 -0.579533 9.91019 -1.54785 4.66466 2.50351C-0.580094 6.55488 -1.54745 14.0913 2.50392 19.336C6.55606 24.5806 14.093 25.5474 19.337 21.4952C24.5796 17.4439 25.5472 9.90978 21.4972 4.6658Z" fill="#F37036"/>
<path d="M17.2358 4.29805C16.8227 4.33106 16.431 4.49544 16.1181 4.76713C15.7517 5.08517 15.5179 5.52898 15.4628 6.01097C15.4077 6.49296 15.5352 6.97811 15.8203 7.37065C16.105 7.76337 16.5265 8.03513 17.0017 8.13231C17.4769 8.22949 17.9713 8.14504 18.3873 7.89561L18.4178 7.92577C18.5548 7.84722 18.6823 7.75315 18.7978 7.64541C19.1538 7.26872 19.3497 6.76847 19.3441 6.25015C19.3385 5.73183 19.1318 5.23596 18.7676 4.86709L17.0576 6.5661L17.0274 6.53613L18.7374 4.83596C18.5395 4.64511 18.3033 4.4985 18.0444 4.40583C17.7855 4.31316 17.5099 4.27617 17.2358 4.29805ZM14.9844 7.07984C14.1646 7.07849 12.826 8.00776 9.55752 11.2762L9.57376 11.2929C9.55597 11.2867 9.53799 11.2861 9.53799 11.2861L8.30748 12.5058C8.27588 12.5358 8.25497 12.5754 8.24791 12.6184C8.24086 12.6615 8.24806 12.7056 8.26842 12.7442C8.28878 12.7828 8.32118 12.8136 8.36069 12.8321C8.4002 12.8505 8.44466 12.8556 8.4873 12.8465L10.5976 12.3963C10.6069 12.3876 10.6131 12.376 10.6154 12.3635L10.6622 12.4118L9.94288 13.1253H9.90807L5.63763 17.4294L7.00775 18.7488C7.04607 18.7834 7.0944 18.8048 7.14573 18.81C7.19705 18.8151 7.24869 18.8038 7.29314 18.7776C7.33797 18.7516 7.37389 18.7127 7.39615 18.6659C7.41841 18.6191 7.42598 18.5666 7.41785 18.5154L7.21773 17.6453C7.20526 17.6278 7.19855 17.6069 7.19855 17.5854C7.19855 17.5639 7.20526 17.543 7.21773 17.5255C9.08828 16.6337 10.8278 15.4898 12.3877 14.1257L11.5108 13.2485L11.5274 13.2457L11.0073 12.7258L11.0406 12.6922L11.0757 12.7281L11.0576 12.7457L12.4375 14.1559C15.0826 11.6511 16.9601 9.63716 16.4719 8.28213C16.4497 8.12008 16.3744 7.96997 16.2579 7.8552C16.2283 7.83315 16.197 7.81414 16.1645 7.7968C16.1484 7.77979 16.1343 7.76239 16.1173 7.74576L16.1045 7.75852C16.0687 7.73663 16.031 7.71787 15.992 7.70245L16.0479 7.64599C15.7006 7.33662 15.4137 7.081 14.9844 7.07984ZM5.60786 17.4551L4.60802 18.4551C4.57214 18.4773 4.54426 18.5111 4.52837 18.5502C4.51249 18.5893 4.50944 18.6325 4.51966 18.6734C4.52952 18.7143 4.55204 18.7511 4.58401 18.7785C4.61598 18.8059 4.65578 18.8225 4.69774 18.826L7.14793 18.9952L5.60786 17.4551Z" fill="white"/>
<path d="M17.4045 4.13291C16.8433 4.13222 16.3044 4.35239 15.9043 4.74585C15.6195 5.03723 15.4246 5.40434 15.3427 5.80341C15.2607 6.20248 15.2953 6.6167 15.4422 6.9967C14.5255 6.60418 13.2853 7.28866 9.42765 11.1455C9.42494 11.1514 9.42255 11.1575 9.4205 11.1637C9.41262 11.1673 9.40493 11.1713 9.39749 11.1757L8.17761 12.4062C8.11914 12.4636 8.08073 12.5383 8.06809 12.6192C8.05545 12.7002 8.06924 12.7831 8.10742 12.8555C8.14151 12.9129 8.18977 12.9605 8.24757 12.9938C8.30537 13.0272 8.37077 13.0451 8.43748 13.0458L8.498 13.0066L10.1268 12.6591L9.3476 13.4455C9.34306 13.4558 9.33956 13.4665 9.33716 13.4776L5.5184 17.3058C5.50317 17.3186 5.49057 17.3342 5.48127 17.3518L4.49787 18.336C4.44886 18.3877 4.41537 18.4522 4.40122 18.522C4.38706 18.5919 4.39282 18.6643 4.41782 18.731C4.44346 18.7973 4.48694 18.8553 4.54345 18.8985C4.59995 18.9416 4.66729 18.9683 4.73802 18.9756L7.17777 19.1458C7.21939 19.1311 7.25482 19.1029 7.27832 19.0655C7.29929 19.0364 7.31058 19.0014 7.31058 18.9655C7.31058 18.9296 7.29929 18.8946 7.27832 18.8654L7.27329 18.8606C7.32593 18.8329 7.37233 18.7948 7.4096 18.7484C7.44879 18.6976 7.47616 18.6386 7.48974 18.5759C7.50331 18.5132 7.50276 18.4482 7.48811 18.3857L7.29784 17.5761C9.12319 16.7038 10.8335 15.6087 12.3897 14.316C12.4048 14.3245 12.4209 14.3312 12.4376 14.3359C12.4867 14.3322 12.5327 14.3111 12.5675 14.2763C15.1875 11.7956 16.7276 10.0956 16.7276 8.74598C16.7333 8.55877 16.705 8.37207 16.6442 8.19492C16.8803 8.29282 17.1322 8.34719 17.3877 8.3554L17.3848 8.35617C17.7366 8.34542 18.0806 8.24919 18.3869 8.07581C18.3867 8.07575 18.3872 8.07587 18.3869 8.07581C18.4266 8.08769 18.4701 8.08408 18.507 8.06537C18.6548 7.97832 18.7896 7.87078 18.9073 7.74595C19.1067 7.5503 19.2651 7.31689 19.3732 7.05933C19.4814 6.80177 19.5371 6.52524 19.5372 6.2459C19.5372 5.96657 19.4814 5.69004 19.3733 5.43249C19.2652 5.17493 19.1068 4.94151 18.9075 4.74585C18.9003 4.73938 18.8927 4.7335 18.8846 4.72825C18.4866 4.34608 17.9563 4.1326 17.4045 4.13291ZM17.3877 4.47554C17.7784 4.47787 18.1577 4.60783 18.4678 4.84562L16.9078 6.41508C16.9024 6.42103 16.8975 6.42736 16.8931 6.43403C16.865 6.46248 16.8485 6.50041 16.8469 6.54038C16.8469 6.56453 16.8523 6.58836 16.8628 6.61012C16.8733 6.63188 16.8885 6.65099 16.9074 6.66606L18.0872 7.84552C17.7644 7.98631 17.4066 8.02632 17.0606 7.96032C16.7146 7.89432 16.3966 7.72538 16.1483 7.47564C15.6483 6.97291 15.5033 6.21805 15.7707 5.56316C16.0381 4.90769 16.6756 4.47941 17.3877 4.47554ZM18.7644 5.13913C19.0194 5.44774 19.1585 5.83586 19.1575 6.23623C19.1567 6.70527 18.9698 7.15483 18.6377 7.48608C18.5711 7.54871 18.5002 7.60654 18.4254 7.65913L17.4735 6.72194L17.2873 6.53574L17.3386 6.4845L18.7644 5.13913ZM18.6936 5.94987C18.6586 5.93881 18.6208 5.94095 18.5873 5.95586C18.5541 5.97304 18.5291 6.00266 18.5177 6.03823C18.5121 6.056 18.51 6.07469 18.5117 6.09324C18.5133 6.11179 18.5187 6.12983 18.5273 6.14632C18.5617 6.21856 18.5752 6.29894 18.5665 6.37845C18.5577 6.45796 18.5269 6.53345 18.4776 6.59645C18.465 6.60861 18.4551 6.62331 18.4486 6.63958C18.4421 6.65585 18.4392 6.67331 18.4399 6.69081C18.4407 6.72639 18.4535 6.76041 18.4776 6.78594C18.5034 6.79579 18.5319 6.79579 18.5577 6.78594C18.5809 6.79174 18.6053 6.79108 18.6282 6.78402C18.6511 6.77697 18.6717 6.76379 18.6876 6.74591C18.7699 6.64502 18.822 6.52294 18.8379 6.39373C18.8538 6.26452 18.8329 6.13345 18.7775 6.01561C18.7587 5.98389 18.7288 5.96098 18.6936 5.94987ZM14.9663 7.2498C15.1997 7.25754 15.4242 7.34071 15.6063 7.48685C15.4101 7.51509 15.2283 7.60597 15.0879 7.74595L10.6781 12.1361L9.81262 11.2706C12.0996 8.99444 13.498 7.8055 14.3673 7.41589C14.5463 7.30293 14.7546 7.2453 14.9663 7.2498ZM15.733 7.82213C15.881 7.82213 16.0231 7.88081 16.128 7.98532C16.1838 8.03768 16.2279 8.10133 16.2572 8.17205C16.2865 8.24277 16.3004 8.31892 16.2979 8.39542C16.2954 8.47165 16.2772 8.54653 16.2444 8.6154C16.2117 8.68426 16.165 8.74563 16.1075 8.79567L11.4186 12.8766L10.9126 12.3706L15.3379 7.98532C15.4429 7.88089 15.5849 7.82208 15.733 7.82213ZM16.3119 9.11722C15.9851 10.4131 14.2532 12.1689 12.4473 13.8751L11.717 13.1456L16.3119 9.11722ZM9.55758 11.5262L9.61056 11.5784L10.2898 12.2577L8.42781 12.656L9.55758 11.5262ZM10.6777 12.6554L10.6785 12.6562L10.9043 12.8873C10.9052 12.8927 10.9064 12.8981 10.9078 12.9035L10.9229 12.9058L11.1294 13.1173L10.0882 13.245L10.6777 12.6554ZM11.4254 13.4435L12.1172 14.135C10.5874 15.4071 8.90874 16.4885 7.11802 17.3555C7.05989 17.3832 7.01314 17.4302 6.98575 17.4884C6.95835 17.5467 6.95201 17.6127 6.96779 17.6751L7.16791 18.5452C7.17529 18.5554 7.17926 18.5677 7.17926 18.5803C7.17926 18.5929 7.17529 18.6052 7.16791 18.6154C7.15691 18.6253 7.14266 18.6307 7.12789 18.6307C7.11311 18.6307 7.09886 18.6253 7.08786 18.6154L5.90801 17.4259L9.54463 13.7359L11.4254 13.4435ZM5.6377 17.6857L5.80572 17.8431L6.67427 18.7117L4.73763 18.5864L5.6377 17.6857Z" fill="#F37036"/>
</svg>
