<svg width="24" height="24" viewBox="0 0 24 24" fill="none" xmlns="http://www.w3.org/2000/svg">
<path d="M11.9999 14.092C13.1814 14.092 14.1391 13.1343 14.1391 11.9529C14.1391 10.7715 13.1814 9.81373 11.9999 9.81373C10.8185 9.81373 9.86082 10.7715 9.86082 11.9529C9.86082 13.1343 10.8185 14.092 11.9999 14.092Z" fill="black"/>
<path fill-rule="evenodd" clip-rule="evenodd" d="M6 1.5605C6.69633 1.15855 7.52258 1.17679 8.34961 1.44429C9.17675 1.71189 10.0626 2.24514 10.9541 2.96968C11.2992 3.25015 11.6485 3.56248 11.999 3.90328C12.3498 3.56223 12.6996 3.25033 13.0449 2.96968C13.9365 2.24507 14.8232 1.71193 15.6504 1.44429C16.4774 1.17683 17.3037 1.1586 18 1.5605C18.6962 1.96256 19.0935 2.68714 19.2754 3.53707C19.4572 4.38724 19.4386 5.42117 19.2568 6.55562C19.1865 6.99494 19.0897 7.45345 18.9697 7.92769C19.4406 8.06093 19.886 8.20744 20.3018 8.36617C21.3751 8.77597 22.2804 9.2768 22.9258 9.85933C23.5711 10.4419 24 11.1489 24 11.9531C23.9999 12.7571 23.5709 13.4634 22.9258 14.0459C22.2804 14.6284 21.3751 15.1292 20.3018 15.539C19.886 15.6977 19.4405 15.8433 18.9697 15.9765C19.0898 16.4511 19.1864 16.91 19.2568 17.3496C19.4386 18.484 19.4572 19.5179 19.2754 20.3681C19.0936 21.2181 18.6962 21.9426 18 22.3447C17.3037 22.7466 16.4773 22.7293 15.6504 22.4619C14.8232 22.1942 13.9365 21.6611 13.0449 20.9365C12.6995 20.6557 12.3499 20.3431 11.999 20.0019C11.6484 20.3428 11.2993 20.6559 10.9541 20.9365C10.0626 21.6609 9.17669 22.1943 8.34961 22.4619C7.52256 22.7294 6.69634 22.7467 6 22.3447C5.3037 21.9426 4.90545 21.2182 4.72363 20.3681C4.54184 19.518 4.56044 18.484 4.74219 17.3496C4.81261 16.91 4.90827 16.451 5.02832 15.9765C4.55794 15.8433 4.11268 15.6976 3.69727 15.539C2.62406 15.1292 1.71954 14.6284 1.07422 14.0459C0.429065 13.4634 0.000109153 12.7571 0 11.9531C2.68244e-05 11.149 0.428961 10.4418 1.07422 9.85933C1.71955 9.27688 2.62411 8.77593 3.69727 8.36617C4.11278 8.20752 4.55782 8.06089 5.02832 7.92769C4.90843 7.45364 4.81255 6.99478 4.74219 6.55562C4.56048 5.42125 4.5418 4.38719 4.72363 3.53707C4.90548 2.68705 5.3037 1.96258 6 1.5605ZM6.04004 16.2334C5.92747 16.6784 5.83878 17.1068 5.77344 17.5146C5.60348 18.5754 5.59869 19.4702 5.74414 20.1503C5.88962 20.8302 6.17 21.2383 6.52148 21.4414C6.87307 21.6444 7.36666 21.6827 8.02832 21.4687C8.69002 21.2546 9.46219 20.8035 10.2959 20.1259C10.6165 19.8654 10.9422 19.573 11.2715 19.2529C10.5846 18.5098 9.90075 17.6626 9.24121 16.7304C8.10362 16.6253 7.02735 16.4568 6.04004 16.2334ZM17.959 16.2334C16.9716 16.4568 15.8954 16.6253 14.7578 16.7304C14.0981 17.6628 13.4136 18.5097 12.7266 19.2529C13.0559 19.5732 13.3824 19.8652 13.7031 20.1259C14.5367 20.8034 15.3091 21.2545 15.9707 21.4687C16.6324 21.6828 17.1269 21.6443 17.4785 21.4414C17.8299 21.2383 18.1094 20.8301 18.2549 20.1503C18.4004 19.4702 18.3965 18.5755 18.2266 17.5146C18.1612 17.1068 18.0716 16.6784 17.959 16.2334ZM13.3965 16.8232C12.9381 16.8441 12.472 16.8574 12 16.8574C11.5274 16.8574 11.0604 16.8441 10.6016 16.8232C11.0631 17.4324 11.5317 17.9945 11.999 18.5029C12.4664 17.9945 12.9349 17.4325 13.3965 16.8232ZM12 8.09175C11.2521 8.09176 10.5221 8.12005 9.81738 8.17281C9.41933 8.75673 9.03022 9.37469 8.65625 10.0224C8.28236 10.67 7.94138 11.3156 7.63477 11.9521C7.94146 12.5889 8.28224 13.2349 8.65625 13.8828C9.03014 14.5304 9.41941 15.1486 9.81738 15.7324C10.5221 15.7851 11.2521 15.8134 12 15.8134C12.7473 15.8134 13.4765 15.7851 14.1807 15.7324C14.5788 15.1483 14.9697 14.5307 15.3438 13.8828C15.7177 13.235 16.0576 12.5888 16.3643 11.9521C16.0577 11.3157 15.7175 10.6698 15.3438 10.0224C14.9696 9.37446 14.5789 8.75691 14.1807 8.17281C13.4765 8.12013 12.7473 8.09176 12 8.09175ZM7.08203 13.1777C6.78523 13.882 6.53278 14.5687 6.32617 15.2275C6.99977 15.378 7.7205 15.5025 8.47852 15.5976C8.23148 15.2114 7.98877 14.8137 7.75293 14.4052C7.51664 13.996 7.29335 13.5855 7.08203 13.1777ZM16.917 13.1777C16.7057 13.5855 16.4833 13.996 16.2471 14.4052C16.011 14.814 15.7668 15.2111 15.5195 15.5976C16.2776 15.5025 16.9982 15.3779 17.6719 15.2275C17.4653 14.5688 17.2138 13.8819 16.917 13.1777ZM5.3125 8.9316C4.87085 9.05662 4.45513 9.19347 4.06934 9.34078C3.06592 9.72392 2.28968 10.1678 1.77344 10.6337C1.25721 11.0998 1.043 11.5471 1.04297 11.9531C1.04308 12.359 1.25736 12.8055 1.77344 13.2714C2.28965 13.7374 3.06588 14.1812 4.06934 14.5644C4.45502 14.7117 4.87099 14.8476 5.3125 14.9726C5.61265 14.0059 6.00472 12.9898 6.48242 11.9521C6.00478 10.9144 5.61258 9.89828 5.3125 8.9316ZM18.6865 8.9316C18.3864 9.89834 17.9943 10.9144 17.5166 11.9521C17.9943 12.9897 18.3864 14.0059 18.6865 14.9726C19.1281 14.8476 19.5439 14.7117 19.9297 14.5644C20.9334 14.1812 21.7103 13.7375 22.2266 13.2714C22.7427 12.8055 22.9559 12.359 22.9561 11.9531C22.956 11.5471 22.7429 11.0998 22.2266 10.6337C21.7103 10.1678 20.9333 9.72396 19.9297 9.34078C19.5439 9.1935 19.1282 9.0566 18.6865 8.9316ZM8.47852 8.3066C7.72046 8.40172 6.9998 8.52722 6.32617 8.67769C6.53268 9.33623 6.78541 10.0226 7.08203 10.7265C7.2932 10.319 7.51683 9.90987 7.75293 9.50093C7.98905 9.09196 8.23117 8.69326 8.47852 8.3066ZM15.5195 8.3066C15.767 8.69345 16.0108 9.09174 16.2471 9.50093C16.4831 9.90969 16.7059 10.3192 16.917 10.7265C17.2137 10.0223 17.4653 9.3355 17.6719 8.67671C16.9983 8.52632 16.2775 8.40166 15.5195 8.3066ZM8.02832 2.43648C7.36681 2.22257 6.87304 2.26091 6.52148 2.46382C6.16991 2.66687 5.88961 3.07572 5.74414 3.75582C5.59874 4.43586 5.60353 5.32993 5.77344 6.39058C5.83876 6.79833 5.9275 7.22685 6.04004 7.67183C7.02737 7.44836 8.1036 7.27895 9.24121 7.17378C9.90079 6.24165 10.5846 5.39434 11.2715 4.65132C10.9425 4.33148 10.6163 4.03962 10.2959 3.77925C9.46228 3.10179 8.68996 2.65053 8.02832 2.43648ZM17.4785 2.46382C17.1269 2.26091 16.6324 2.22242 15.9707 2.43648C15.3091 2.65062 14.5367 3.10176 13.7031 3.77925C13.3825 4.03983 13.0558 4.33119 12.7266 4.65132C13.4136 5.39443 14.0981 6.24146 14.7578 7.17378C15.8954 7.27892 16.9716 7.44839 17.959 7.67183C18.0716 7.22675 18.1612 6.79842 18.2266 6.39058C18.3965 5.32988 18.4003 4.43588 18.2549 3.75582C18.1094 3.07584 17.83 2.66688 17.4785 2.46382ZM11.999 5.4023C11.5319 5.91054 11.063 6.47199 10.6016 7.08101C11.0604 7.0601 11.5274 7.04879 12 7.04878C12.472 7.04879 12.9382 7.06015 13.3965 7.08101C12.935 6.472 12.4662 5.91051 11.999 5.4023Z" fill="black"/>
</svg>
