<svg width="24" height="24" viewBox="0 0 24 24" fill="none" xmlns="http://www.w3.org/2000/svg">
<path fill-rule="evenodd" clip-rule="evenodd" d="M12 0C18.6274 0 24 5.37258 24 12C24 18.6274 18.6274 24 12 24C5.37258 24 0 18.6274 0 12C0 5.37258 5.37258 0 12 0ZM11.904 22.771H12.096V21.005H11.904V22.771ZM10.964 22.725L11.155 22.74L11.232 21.78L11.04 21.765L10.964 22.725ZM12.768 21.78L12.845 22.74L13.036 22.725L12.96 21.765L12.768 21.78ZM10.024 22.582L10.213 22.615L10.52 20.868L10.331 20.835L10.024 22.582ZM13.48 20.868L13.787 22.615L13.976 22.582L13.669 20.835L13.48 20.868ZM9.104 22.382L9.29 22.431L9.539 21.49L9.354 21.441L9.104 22.382ZM14.461 21.49L14.71 22.431L14.896 22.382L14.646 21.441L14.461 21.49ZM8.223 22.086L8.404 22.151L8.999 20.48L8.818 20.416L8.223 22.086ZM15.001 20.48L15.596 22.151L15.777 22.086L15.181 20.416L15.001 20.48ZM7.344 21.711L7.516 21.796L7.939 20.932L7.767 20.847L7.344 21.711ZM16.061 20.932L16.484 21.796L16.656 21.711L16.233 20.847L16.061 20.932ZM6.522 21.264L6.688 21.36L7.571 19.844L7.405 19.747L6.522 21.264ZM16.429 19.844L17.312 21.36L17.478 21.264L16.595 19.747L16.429 19.844ZM5.72 20.758L5.877 20.868L6.433 20.081L6.277 19.97L5.72 20.758ZM17.566 20.081L18.123 20.868L18.28 20.757L17.723 19.97L17.566 20.081ZM4.995 20.175L5.142 20.299L6.275 18.955L6.128 18.831L4.995 20.175ZM17.725 18.955L18.858 20.299L19.005 20.175L17.872 18.831L17.725 18.955ZM10.982 10.982L3.744 20.198L13.133 13.133L20.198 3.744L10.982 10.982ZM18.884 19L19.575 19.672L19.708 19.535L19.017 18.863L18.884 19ZM3.663 18.838L3.786 18.986L5.149 17.853L5.027 17.705L3.663 18.838ZM18.851 17.853L20.214 18.986L20.337 18.838L18.973 17.705L18.851 17.853ZM3.094 18.084L3.203 18.242L4.01 17.686L3.901 17.528L3.094 18.084ZM19.99 17.685L20.797 18.242L20.906 18.084L20.099 17.528L19.99 17.685ZM2.602 17.293L2.697 17.459L4.233 16.576L4.138 16.41L2.602 17.293ZM19.767 16.576L21.303 17.459L21.398 17.293L19.862 16.41L19.767 16.576ZM2.187 16.444L2.268 16.618L3.132 16.215L3.051 16.041L2.187 16.444ZM20.868 16.215L21.732 16.618L21.813 16.444L20.949 16.041L20.868 16.215ZM1.829 15.577L1.896 15.757L3.547 15.143L3.48 14.963L1.829 15.577ZM20.453 15.143L22.104 15.757L22.171 15.577L20.52 14.963L20.453 15.143ZM1.55 14.672L1.599 14.858L2.54 14.608L2.491 14.423L1.55 14.672ZM21.46 14.608L22.401 14.858L22.45 14.672L21.509 14.423L21.46 14.608ZM1.346 13.749L1.38 13.938L3.127 13.631L3.094 13.442L1.346 13.749ZM20.873 13.631L22.62 13.938L22.653 13.749L20.906 13.442L20.873 13.631ZM1.239 12.826L1.257 13.017L2.217 12.921L2.199 12.73L1.239 12.826ZM21.783 12.921L22.743 13.017L22.761 12.826L21.801 12.73L21.783 12.921ZM1.21 12.077H2.976V11.885H1.21V12.077ZM21.024 12.077H22.79V11.885H21.024V12.077ZM1.239 11.116L2.199 11.212L2.218 11.021L1.258 10.925L1.239 11.116ZM21.783 11.021L21.802 11.212L22.762 11.116L22.743 10.925L21.783 11.021ZM1.347 10.194L3.094 10.501L3.127 10.312L1.38 10.005L1.347 10.194ZM20.873 10.312L20.906 10.501L22.653 10.194L22.62 10.005L20.873 10.312ZM1.55 9.27L2.491 9.52L2.54 9.335L1.599 9.085L1.55 9.27ZM21.46 9.335L21.509 9.52L22.45 9.271L22.401 9.085L21.46 9.335ZM1.829 8.365L3.48 8.98L3.547 8.8L1.896 8.185L1.829 8.365ZM20.453 8.8L20.52 8.98L22.171 8.365L22.104 8.185L20.453 8.8ZM2.187 7.498L3.051 7.901L3.132 7.727L2.268 7.324L2.187 7.498ZM20.868 7.727L20.949 7.901L21.813 7.498L21.732 7.324L20.868 7.727ZM2.602 6.669L4.138 7.552L4.234 7.386L2.698 6.503L2.602 6.669ZM19.767 7.386L19.862 7.552L21.398 6.669L21.303 6.503L19.767 7.386ZM3.094 5.859L3.901 6.415L4.01 6.257L3.203 5.701L3.094 5.859ZM19.99 6.257L20.099 6.415L20.906 5.859L20.797 5.701L19.99 6.257ZM3.663 5.104L5.027 6.237L5.149 6.089L3.786 4.957L3.663 5.104ZM18.851 6.09L18.973 6.237L20.337 5.104L20.214 4.957L18.851 6.09ZM4.995 3.768L6.128 5.112L6.275 4.988L5.142 3.644L4.995 3.768ZM17.725 4.988L17.872 5.112L19.005 3.768L18.858 3.644L17.725 4.988ZM4.292 4.408L4.983 5.08L5.116 4.943L4.425 4.271L4.292 4.408ZM6.522 2.678L7.405 4.214L7.571 4.119L6.688 2.583L6.522 2.678ZM16.429 4.119L16.595 4.214L17.479 2.678L17.312 2.583L16.429 4.119ZM5.72 3.185L6.277 3.973L6.434 3.862L5.877 3.074L5.72 3.185ZM17.567 3.862L17.723 3.973L18.28 3.185L18.123 3.074L17.567 3.862ZM8.223 1.856L8.819 3.527L8.999 3.462L8.404 1.792L8.223 1.856ZM15.001 3.462L15.181 3.527L15.777 1.856L15.596 1.792L15.001 3.462ZM16.061 3.031L16.234 3.114L16.656 2.23L16.483 2.148L16.061 3.031ZM7.343 2.229L7.746 3.112L7.921 3.032L7.518 2.149L7.343 2.229ZM10.024 1.361L10.331 3.108L10.52 3.075L10.213 1.328L10.024 1.361ZM13.48 3.075L13.669 3.108L13.976 1.361L13.787 1.328L13.48 3.075ZM11.904 2.938H12.096V1.171H11.904V2.938ZM9.104 1.58L9.354 2.502L9.539 2.452L9.29 1.53L9.104 1.58ZM14.461 2.452L14.646 2.502L14.896 1.581L14.71 1.53L14.461 2.452ZM10.964 1.237L11.04 2.197L11.232 2.181L11.155 1.221L10.964 1.237ZM12.768 2.181L12.96 2.197L13.036 1.237L12.845 1.221L12.768 2.181Z" fill="black"/>
</svg>
