<svg width="96" height="96" viewBox="0 0 96 96" fill="none" xmlns="http://www.w3.org/2000/svg">
<path d="M30.7472 55.1807L31.9424 52.4048C33.234 53.3687 34.9496 53.8699 36.646 53.8699C37.899 53.8699 38.6894 53.388 38.6894 52.6554C38.6701 50.6121 31.1906 52.2121 31.1328 47.0843C31.1135 44.4819 33.4267 42.4771 36.7039 42.4771C38.6508 42.4771 40.5978 42.959 41.9858 44.0578L40.8677 46.8916C39.5954 46.0819 38.0147 45.5036 36.5111 45.5036C35.4894 45.5036 34.8147 45.9855 34.8147 46.6024C34.834 48.6072 42.3713 47.5084 42.4484 52.4048C42.4484 55.0651 40.193 56.9349 36.9545 56.9349C34.5834 56.9349 32.4051 56.3759 30.7472 55.1807ZM76.6075 51.4024C76.0099 52.4434 74.8918 53.1566 73.6002 53.1566C71.6918 53.1566 70.1496 51.6145 70.1496 49.706C70.1496 47.7976 71.6918 46.2554 73.6002 46.2554C74.8918 46.2554 76.0099 46.9687 76.6075 48.0096L79.9039 46.1783C78.6701 43.9807 76.299 42.4771 73.6002 42.4771C69.6099 42.4771 66.3713 45.7157 66.3713 49.706C66.3713 53.6964 69.6099 56.9349 73.6002 56.9349C76.3183 56.9349 78.6701 55.4506 79.9039 53.2337L76.6075 51.4024ZM44.1063 36.4819H48.2316V56.6651H44.1063V36.4819ZM81.5231 36.4819V56.6651H85.6484V50.6121L90.5448 56.6651H95.8268L89.6002 49.4747L95.3641 42.7663H90.3135L85.6484 48.3374V36.4819H81.5231ZM60.4918 51.441C59.8942 52.4241 58.6605 53.1566 57.2725 53.1566C55.3641 53.1566 53.8219 51.6145 53.8219 49.706C53.8219 47.7976 55.3641 46.2554 57.2725 46.2554C58.6605 46.2554 59.8942 47.0265 60.4918 48.0289V51.441ZM60.4918 42.7663V44.4048C59.8171 43.2675 58.14 42.4771 56.3858 42.4771C52.7617 42.4771 49.9087 45.6771 49.9087 49.6868C49.9087 53.6964 52.7617 56.9349 56.3858 56.9349C58.14 56.9349 59.8171 56.1446 60.4918 55.0072V56.6458H64.6171V42.7663H60.4918Z" fill="black"/>
<path d="M5.2436 51.4217C5.2436 52.8289 4.10625 53.9663 2.69903 53.9663C1.2918 53.9663 0.154447 52.8289 0.154447 51.4217C0.154447 50.0144 1.2918 48.8771 2.69903 48.8771H5.2436V51.4217ZM6.51589 51.4217C6.51589 50.0144 7.65324 48.8771 9.06047 48.8771C10.4677 48.8771 11.605 50.0144 11.605 51.4217V57.7831C11.605 59.1904 10.4677 60.3277 9.06047 60.3277C7.65324 60.3277 6.51589 59.1904 6.51589 57.7831V51.4217Z" fill="black"/>
<path d="M9.06031 41.2046C7.65308 41.2046 6.51573 40.0673 6.51573 38.6601C6.51573 37.2528 7.65308 36.1155 9.06031 36.1155C10.4675 36.1155 11.6049 37.2528 11.6049 38.6601V41.2046H9.06031ZM9.06031 42.4962C10.4675 42.4962 11.6049 43.6336 11.6049 45.0408C11.6049 46.448 10.4675 47.5854 9.06031 47.5854H2.67959C1.27236 47.5854 0.13501 46.448 0.13501 45.0408C0.13501 43.6336 1.27236 42.4962 2.67959 42.4962H9.06031Z" fill="black"/>
<path d="M19.2581 45.041C19.2581 43.6337 20.3954 42.4964 21.8026 42.4964C23.2099 42.4964 24.3472 43.6337 24.3472 45.041C24.3472 46.4482 23.2099 47.5855 21.8026 47.5855H19.2581V45.041ZM17.9858 45.041C17.9858 46.4482 16.8484 47.5855 15.4412 47.5855C14.034 47.5855 12.8966 46.4482 12.8966 45.041V38.6602C12.8966 37.253 14.034 36.1157 15.4412 36.1157C16.8484 36.1157 17.9858 37.253 17.9858 38.6602V45.041Z" fill="black"/>
<path d="M15.4412 55.2385C16.8484 55.2385 17.9858 56.3759 17.9858 57.7831C17.9858 59.1904 16.8484 60.3277 15.4412 60.3277C14.034 60.3277 12.8966 59.1904 12.8966 57.7831V55.2385H15.4412ZM15.4412 53.9663C14.034 53.9663 12.8966 52.8289 12.8966 51.4217C12.8966 50.0144 14.034 48.8771 15.4412 48.8771H21.8219C23.2291 48.8771 24.3665 50.0144 24.3665 51.4217C24.3665 52.8289 23.2291 53.9663 21.8219 53.9663H15.4412Z" fill="black"/>
</svg>
