<svg width="24" height="24" viewBox="0 0 24 24" fill="none" xmlns="http://www.w3.org/2000/svg">
<path d="M2.74433 22.1152L2.00086 2.30507C1.97631 1.65082 2.47797 1.09635 3.1314 1.05551L19.9813 0.00239082C20.6464 -0.0391792 21.2193 0.466308 21.2608 1.13143C21.2624 1.15649 21.2632 1.18159 21.2632 1.2067V22.7934C21.2632 23.4598 20.723 24 20.0565 24C20.0385 24 20.0205 23.9996 20.0024 23.9988L3.896 23.2754C3.26872 23.2472 2.76788 22.7426 2.74433 22.1152Z" fill="#FF4785"/>
<path fill-rule="evenodd" clip-rule="evenodd" d="M18.6563 0.0854492L16.3373 0.230385L16.2241 2.95024C16.2224 2.99205 16.2353 3.03316 16.2606 3.06651C16.3207 3.14571 16.4336 3.16121 16.5128 3.10113L17.5693 2.2997L18.4616 3.00266C18.4951 3.029 18.5367 3.04263 18.5793 3.04115C18.6787 3.03768 18.7565 2.95433 18.753 2.85497L18.6563 0.0854492ZM16.8513 9.19338C16.4268 9.52314 13.2646 9.74814 13.2646 9.27869C13.3314 7.48732 12.5294 7.40879 12.0838 7.40879C11.6606 7.40879 10.9477 7.53675 10.9477 8.4964C10.9477 9.47434 11.9895 10.0264 13.2123 10.6744C14.9495 11.595 17.0517 12.7092 17.0517 15.5126C17.0517 18.1996 14.8686 19.6839 12.0838 19.6839C9.21002 19.6839 6.69861 18.5212 6.98224 14.4902C7.09364 14.0169 10.7472 14.1294 10.7472 14.4902C10.7026 16.1536 11.0814 16.6429 12.0393 16.6429C12.7745 16.6429 13.1086 16.2376 13.1086 15.5552C13.1086 14.5225 12.0232 13.913 10.7744 13.212C9.08367 12.2626 7.09364 11.1454 7.09364 8.58171C7.09364 6.02261 8.85358 4.31655 11.9947 4.31655C15.1359 4.31655 16.8513 5.99648 16.8513 9.19338Z" fill="white"/>
</svg>
