<svg width="96" height="96" viewBox="0 0 96 96" fill="none" xmlns="http://www.w3.org/2000/svg">
<path fill-rule="evenodd" clip-rule="evenodd" d="M25.5744 53.5981C24.7552 53.5981 23.9667 53.4881 23.209 53.2679C22.4512 53.0478 21.8215 52.7432 21.3197 52.354L22.0877 50.649C23.1322 51.3761 24.3046 51.7396 25.6051 51.7396C26.281 51.7396 26.8006 51.6296 27.1642 51.4093C27.5277 51.1892 27.7094 50.8846 27.7094 50.4954C27.7094 50.1473 27.5431 49.8759 27.2102 49.6813C26.8774 49.4868 26.2861 49.2973 25.4362 49.113C24.4838 48.9185 23.7235 48.6829 23.1552 48.4065C22.5869 48.13 22.1722 47.7895 21.911 47.3851C21.6499 46.9806 21.5194 46.4814 21.5194 45.8875C21.5194 45.2321 21.7011 44.6484 22.0646 44.1364C22.4282 43.6244 22.9376 43.2225 23.593 42.9307C24.2484 42.6388 25.0061 42.4929 25.8662 42.4929C26.6342 42.4929 27.3741 42.6055 28.0858 42.8308C28.7974 43.0561 29.3632 43.3582 29.783 43.7371L29.015 45.442C28.0217 44.715 26.9773 44.3515 25.8816 44.3515C25.2569 44.3515 24.7654 44.4718 24.407 44.7124C24.0487 44.9531 23.8694 45.2833 23.8694 45.7031C23.8694 45.9489 23.9386 46.1511 24.0768 46.3099C24.215 46.4686 24.4454 46.6094 24.768 46.7323C25.0906 46.8551 25.5488 46.9831 26.1427 47.1163C27.5354 47.4235 28.5363 47.8177 29.1456 48.2989C29.7549 48.7803 30.0595 49.4459 30.0595 50.2957C30.0595 51.3198 29.6653 52.1262 28.8768 52.7149C28.0884 53.3038 26.9875 53.5981 25.5744 53.5981ZM35.62 51.8777C35.8555 51.8777 36.1013 51.8624 36.3573 51.8316L36.2344 53.5212C35.9374 53.5622 35.6405 53.5827 35.3436 53.5827C34.1966 53.5827 33.3595 53.3318 32.8322 52.83C32.3048 52.3283 32.0412 51.5654 32.0412 50.5414V47.6538H30.6127V45.9181H32.0412V43.7062H34.3605V45.9181H36.2498V47.6538H34.3605V50.526C34.3605 51.4272 34.7803 51.8777 35.62 51.8777ZM41.0112 53.5828C40.2125 53.5828 39.511 53.4215 38.9069 53.0989C38.3028 52.7764 37.8368 52.3208 37.5091 51.7319C37.1815 51.1431 37.0176 50.4493 37.0176 49.6506C37.0176 48.8519 37.1815 48.1582 37.5091 47.5694C37.8368 46.9806 38.3028 46.5275 38.9069 46.21C39.511 45.8926 40.2125 45.7339 41.0112 45.7339C41.8099 45.7339 42.5114 45.8926 43.1155 46.21C43.7197 46.5275 44.1856 46.9806 44.5133 47.5694C44.8409 48.1582 45.0048 48.8519 45.0048 49.6506C45.0048 50.4493 44.8409 51.1431 44.5133 51.7319C44.1856 52.3208 43.7197 52.7764 43.1155 53.0989C42.5114 53.4215 41.8099 53.5828 41.0112 53.5828ZM41.0112 51.8164C42.1376 51.8164 42.7008 51.0945 42.7008 49.6506C42.7008 48.9236 42.5549 48.3809 42.263 48.0225C41.9712 47.6641 41.5539 47.4849 41.0112 47.4849C39.8848 47.4849 39.3216 48.2068 39.3216 49.6506C39.3216 51.0945 39.8848 51.8164 41.0112 51.8164ZM51.4254 47.6386L50.1198 47.7768C49.4747 47.8383 49.019 48.0201 48.7527 48.3221C48.4865 48.6242 48.3534 49.0261 48.3534 49.5278V53.46H46.034V45.9183H48.2612V47.1932C48.6401 46.3227 49.4235 45.8466 50.6113 45.7647L51.2871 45.7186L51.4254 47.6386ZM58.1645 45.9335H60.4378L55.8912 56.2247H53.5411L54.985 53.0452L51.8822 45.9335H54.2938L56.1984 50.7258L58.1645 45.9335ZM65.8137 45.7339C66.4691 45.7339 67.0476 45.8926 67.5494 46.21C68.0511 46.5275 68.4428 46.9806 68.7244 47.5694C69.006 48.1582 69.1468 48.8417 69.1468 49.62C69.1468 50.3982 69.006 51.0869 68.7244 51.6859C68.4428 52.285 68.0486 52.7508 67.5417 53.0837C67.0348 53.4164 66.4588 53.5829 65.8137 53.5829C65.2914 53.5829 64.8204 53.4728 64.4006 53.2526C63.9807 53.0324 63.6582 52.7278 63.4329 52.3387V53.46H61.1442V42.6312H63.4636V46.932C63.6889 46.5531 64.0089 46.2587 64.4236 46.0488C64.8383 45.8388 65.3017 45.7339 65.8137 45.7339ZM65.1381 51.8165C65.6808 51.8165 66.1006 51.6245 66.3976 51.2405C66.6946 50.8565 66.8431 50.3163 66.8431 49.62C66.8431 48.9339 66.6946 48.4091 66.3976 48.0456C66.1006 47.6821 65.6808 47.5003 65.1381 47.5003C64.5953 47.5003 64.1755 47.6872 63.8786 48.061C63.5816 48.4347 63.4332 48.9646 63.4332 49.6507C63.4332 50.347 63.5816 50.8821 63.8786 51.2558C64.1755 51.6296 64.5953 51.8165 65.1381 51.8165ZM74.1852 53.5828C73.3864 53.5828 72.685 53.4215 72.0808 53.0989C71.4767 52.7764 71.0107 52.3207 70.6831 51.7319C70.3554 51.1431 70.1916 50.4493 70.1916 49.6506C70.1916 48.8519 70.3554 48.1581 70.6831 47.5693C71.0107 46.9805 71.4767 46.5274 72.0808 46.21C72.685 45.8925 73.3864 45.7338 74.1852 45.7338C74.9839 45.7338 75.6854 45.8925 76.2895 46.21C76.8936 46.5274 77.3596 46.9805 77.6872 47.5693C78.0149 48.1581 78.1788 48.8519 78.1788 49.6506C78.1788 50.4493 78.0149 51.1431 77.6872 51.7319C77.3596 52.3207 76.8936 52.7764 76.2895 53.0989C75.6854 53.4215 74.9839 53.5828 74.1852 53.5828ZM74.1851 51.8164C75.3115 51.8164 75.8747 51.0945 75.8747 49.6506C75.8747 48.9235 75.7287 48.3808 75.4369 48.0225C75.1451 47.664 74.7278 47.4848 74.1851 47.4848C73.0587 47.4848 72.4955 48.2068 72.4955 49.6506C72.4955 51.0945 73.0587 51.8164 74.1851 51.8164ZM82.8326 53.5828C82.0339 53.5828 81.3325 53.4215 80.7283 53.0989C80.1242 52.7764 79.6582 52.3208 79.3306 51.7319C79.0029 51.1431 78.8391 50.4493 78.8391 49.6506C78.8391 48.8519 79.0029 48.1582 79.3306 47.5694C79.6582 46.9806 80.1242 46.5275 80.7283 46.21C81.3325 45.8926 82.0339 45.7339 82.8326 45.7339C83.6314 45.7339 84.3328 45.8926 84.937 46.21C85.5411 46.5275 86.0071 46.9806 86.3347 47.5694C86.6624 48.1582 86.8262 48.8519 86.8262 49.6506C86.8262 50.4493 86.6624 51.1431 86.3347 51.7319C86.0071 52.3208 85.5411 52.7764 84.937 53.0989C84.3328 53.4215 83.6314 53.5828 82.8326 53.5828ZM82.8326 51.8164C83.9591 51.8164 84.5222 51.0945 84.5222 49.6506C84.5222 48.9236 84.3763 48.3809 84.0845 48.0225C83.7926 47.6641 83.3753 47.4849 82.8326 47.4849C81.7063 47.4849 81.1431 48.2068 81.1431 49.6506C81.1431 51.0945 81.7063 51.8164 82.8326 51.8164ZM96 53.46H93.1586L90.2709 50.0962V53.46H87.9516V42.6312H90.2709V49.1438L93.0511 45.9336H95.8159L92.6517 49.5278L96 53.46Z" fill="black"/>
<path d="M0.595468 56.092L0.000691291 40.244C-0.0189518 39.7206 0.382373 39.277 0.905123 39.2443L14.385 38.4018C14.9172 38.3686 15.3755 38.7729 15.4087 39.305C15.4099 39.3251 15.4106 39.3452 15.4106 39.3653V56.6346C15.4106 57.1677 14.9784 57.5999 14.4452 57.5999C14.4308 57.5999 14.4164 57.5996 14.4019 57.5989L1.5168 57.0203C1.01498 56.9977 0.614307 56.594 0.595468 56.092Z" fill="black"/>
<path fill-rule="evenodd" clip-rule="evenodd" d="M13.3252 38.4682L11.47 38.5842L11.3795 40.76C11.3781 40.7935 11.3884 40.8264 11.4086 40.853C11.4567 40.9164 11.5471 40.9288 11.6104 40.8807L12.4556 40.2396L13.1695 40.802C13.1963 40.823 13.2296 40.8339 13.2637 40.8328C13.3431 40.83 13.4053 40.7633 13.4026 40.6838L13.3252 38.4682ZM11.8813 45.7546C11.5416 46.0184 9.01184 46.1984 9.01184 45.8228C9.0653 44.3897 8.4237 44.3269 8.06726 44.3269C7.72864 44.3269 7.15833 44.4292 7.15833 45.197C7.15833 45.9793 7.99177 46.421 8.97002 46.9394C10.3597 47.6758 12.0416 48.5672 12.0416 50.8099C12.0416 52.9596 10.295 54.147 8.06726 54.147C5.76819 54.147 3.75906 53.2168 3.98597 49.992C4.07509 49.6134 6.99792 49.7033 6.99792 49.992C6.96228 51.3228 7.26526 51.7141 8.03161 51.7141C8.61975 51.7141 8.88708 51.39 8.88708 50.844C8.88708 50.0178 8.0187 49.5302 7.01973 48.9694C5.66711 48.21 4.07509 47.3162 4.07509 45.2652C4.07509 43.2179 5.48304 41.8531 7.99597 41.8531C10.5089 41.8531 11.8813 43.197 11.8813 45.7546Z" fill="white"/>
</svg>
