<svg width="96" height="96" viewBox="0 0 96 96" fill="none" xmlns="http://www.w3.org/2000/svg">
<path fill-rule="evenodd" clip-rule="evenodd" d="M65.8906 36.4258C70.5569 36.4258 74.9574 40.6388 74.9844 48.3711C74.9844 56.824 70.6363 60.6641 65.8633 60.6641C63.5172 60.6639 62.1044 59.6776 61.1445 58.9844L61.1172 66.5312L54.4531 67.9453V36.8516H60.3164L60.6641 38.5078C61.5973 37.6545 63.2774 36.4258 65.8906 36.4258ZM64.2891 42.3438C62.7701 42.3441 61.8102 42.8793 61.1172 43.6523L61.1445 53.5469C61.7842 54.2394 62.7177 54.7965 64.2891 54.7969C66.7423 54.7969 68.3984 52.1317 68.3984 48.5586C68.3984 45.0655 66.7156 42.3438 64.2891 42.3438Z" fill="#635BFF"/>
<path d="M9.01562 36.4258C11.2277 36.426 13.4129 36.7731 15.625 37.6523V43.918C13.5993 42.8256 11.0413 42.2113 9.01562 42.2109C7.60237 42.2109 6.74609 42.6124 6.74609 43.6523C6.74629 46.6387 16.9069 45.2257 16.9336 53.1719C16.9335 57.9447 13.1203 60.6913 7.57422 60.6914C5.28101 60.6914 2.77283 60.2385 0.292969 59.1719V52.8242C2.53284 54.0508 5.36101 54.957 7.57422 54.957C9.06714 54.957 10.1326 54.5583 10.1328 53.332C10.1328 50.1589 0.000382236 51.3318 0 43.9727C0 39.2529 3.60259 36.4258 9.01562 36.4258Z" fill="#635BFF"/>
<path d="M24.7461 36.8789H29.8125V42.5586H24.7461V52.0234C24.7461 55.9697 28.959 54.7451 29.8125 54.3984V59.8125C28.9324 60.2923 27.3306 60.6914 25.1445 60.6914C21.1994 60.6906 18.239 57.785 18.2383 53.8398L18.2656 32.4805L24.7734 31.0938L24.7461 36.8789Z" fill="#635BFF"/>
<path fill-rule="evenodd" clip-rule="evenodd" d="M86.3711 36.4258C92.6891 36.4267 95.9955 41.8119 95.9961 48.6367C95.9961 49.2766 95.9414 50.6649 95.9414 51.0117H82.9023C83.1956 54.1575 85.4885 55.066 88.0742 55.0664C90.7141 55.0664 92.7961 54.5043 94.6094 53.5977V58.9297C92.7961 59.943 90.3958 60.6641 87.2227 60.6641C80.7166 60.664 76.1838 56.6117 76.1836 48.5859C76.1836 41.813 80.0248 36.4258 86.3711 36.4258ZM86.3438 41.8398C84.6638 41.8398 82.8242 43.0923 82.8242 46.1055H89.7031C89.7031 43.0929 87.9701 41.8403 86.3438 41.8398Z" fill="#635BFF"/>
<path d="M38.1055 38.8516C39.6788 35.9725 42.7991 36.559 43.6523 36.8789V43.0117C42.8258 42.7184 40.1592 42.3458 38.5859 44.3984V60.2109H31.918V36.8789H37.6797L38.1055 38.8516Z" fill="#635BFF"/>
<path d="M51.9727 60.2109H45.2773V36.8789H51.9727V60.2109Z" fill="#635BFF"/>
<path d="M51.9727 33.4141L45.2773 34.8516V29.4141L51.9727 28V33.4141Z" fill="#635BFF"/>
</svg>
