<svg width="24" height="24" viewBox="0 0 24 24" fill="none" xmlns="http://www.w3.org/2000/svg">
<path d="M20.7449 3.17565C18.528 -0.0175753 14.1144 -0.953169 10.9415 1.06039L5.34829 4.64005C3.82287 5.59598 2.76524 7.16209 2.46016 8.93158C2.19575 10.4163 2.41948 11.9417 3.13135 13.2638C2.64321 13.996 2.31779 14.8095 2.17541 15.6638C1.84999 17.474 2.27711 19.3451 3.33474 20.8299C5.57202 24.0231 9.96524 24.9587 13.1381 22.9451L18.7313 19.3858C20.2568 18.4299 21.3144 16.8638 21.6195 15.0943C21.8839 13.6095 21.6602 12.0841 20.9483 10.7621C21.4364 10.0299 21.7619 9.21632 21.9042 8.36209C22.25 6.53158 21.8229 4.66039 20.7449 3.17565Z" fill="#FF3E00"/>
<path d="M10.3924 21.135C8.58219 21.6028 6.69067 20.8909 5.63304 19.3655C4.98219 18.4706 4.73812 17.3519 4.92117 16.2536C4.96185 16.0706 5.00253 15.9078 5.04321 15.7248L5.1449 15.3994L5.42965 15.6028C6.10084 16.0909 6.83304 16.457 7.62626 16.7011L7.82965 16.7621L7.80931 16.9655C7.78897 17.2502 7.87033 17.5553 8.03304 17.7994C8.35846 18.2672 8.92795 18.4909 9.47711 18.3485C9.59914 18.3078 9.72117 18.2672 9.82287 18.2062L15.3958 14.6468C15.6805 14.4638 15.8635 14.1994 15.9246 13.8739C15.9856 13.5485 15.9042 13.2028 15.7212 12.9384C15.3958 12.4706 14.8263 12.2672 14.2771 12.4095C14.1551 12.4502 14.033 12.4909 13.9313 12.5519L11.7958 13.9146C11.45 14.1384 11.0635 14.3011 10.6568 14.4028C8.8466 14.8706 6.95507 14.1587 5.89745 12.6333C5.26694 11.7384 5.00253 10.6197 5.20592 9.5214C5.38897 8.46378 6.03982 7.50784 6.95507 6.93835L12.5483 3.37903C12.8941 3.1553 13.2805 2.99259 13.6873 2.87056C15.4974 2.40276 17.389 3.11462 18.4466 4.64005C19.0974 5.53496 19.3415 6.65361 19.1585 7.75191C19.1178 7.93496 19.0771 8.09767 19.0161 8.28073L18.9144 8.60615L18.6297 8.40276C17.9585 7.91462 17.2263 7.54852 16.433 7.30445L16.2296 7.24344L16.25 7.04005C16.2703 6.7553 16.189 6.45022 16.0263 6.20615C15.7008 5.73835 15.1313 5.53496 14.5822 5.67734C14.4602 5.71801 14.3381 5.75869 14.2364 5.81971L8.66355 9.37903C8.3788 9.56208 8.19575 9.82649 8.13473 10.1519C8.07372 10.4773 8.15507 10.8231 8.33812 11.0875C8.66355 11.5553 9.23304 11.7587 9.78219 11.6163C9.90423 11.5756 10.0263 11.535 10.128 11.4739L12.2635 10.1112C12.6093 9.88751 12.9958 9.72479 13.4025 9.60276C15.2127 9.13496 17.1042 9.84683 18.1619 11.3723C18.8127 12.2672 19.0568 13.3858 18.8737 14.4841C18.6907 15.5417 18.0398 16.4977 17.1246 17.0672L11.5313 20.6265C11.1856 20.8502 10.7991 21.0129 10.3924 21.135Z" fill="white"/>
</svg>
