<svg width="24" height="24" viewBox="0 0 24 24" fill="none" xmlns="http://www.w3.org/2000/svg">
<path fill-rule="evenodd" clip-rule="evenodd" d="M10.9416 1.0604C14.1145 -0.953163 18.5283 -0.0175893 20.7453 3.17563C21.8231 4.66032 22.2502 6.5318 21.9045 8.36215C21.7621 9.2162 21.4364 10.0295 20.9484 10.7616C21.6602 12.0835 21.8836 13.609 21.6193 15.0936C21.3142 16.863 20.257 18.4297 18.7316 19.3856L13.1379 22.9452C9.96516 24.9583 5.57243 24.0227 3.33514 20.8299C2.27761 19.3453 1.84974 17.4739 2.17498 15.6639C2.31734 14.8098 2.64298 13.9957 3.13104 13.2635C2.41925 11.9416 2.19581 10.4161 2.46014 8.93149C2.76522 7.162 3.82339 5.59543 5.34881 4.6395L10.9416 1.0604ZM18.4465 4.6395C17.3889 3.11439 15.4976 2.40245 13.6877 2.86997C13.2809 2.992 12.8938 3.15503 12.548 3.37876L6.95526 6.93833C6.04 7.50782 5.38928 8.46371 5.20623 9.52133C5.00289 10.6196 5.26722 11.7378 5.89764 12.6327C6.95523 14.158 8.84632 14.8699 10.6564 14.4022C11.0632 14.3005 11.4503 14.1376 11.7961 13.9139L13.9308 12.5516C14.0325 12.4906 14.1555 12.4497 14.2775 12.409C14.8265 12.2669 15.3956 12.4707 15.7209 12.9383C15.9039 13.2027 15.986 13.5485 15.925 13.8739C15.864 14.1992 15.6804 14.4633 15.3957 14.6463L9.82244 18.2059C9.72081 18.2668 9.59866 18.3078 9.47674 18.3485C8.9277 18.4907 8.35873 18.2664 8.03338 17.7987C7.87081 17.5547 7.78952 17.2502 7.80975 16.9657L7.82928 16.7616L7.62615 16.701C6.83298 16.457 6.10102 16.0905 5.42987 15.6024L5.14471 15.3993L5.04315 15.7245C5.00247 15.9075 4.96175 16.0707 4.92108 16.2538C4.73816 17.3519 4.98227 18.4703 5.63299 19.3651C6.69062 20.8905 8.58259 21.6024 10.3928 21.1346C10.7994 21.0126 11.1858 20.8495 11.5314 20.6258L17.1242 17.0672C18.0393 16.4978 18.6901 15.5417 18.8732 14.4842C19.0563 13.386 18.813 12.2668 18.1623 11.3719C17.1047 9.84651 15.2127 9.13462 13.4025 9.60239C12.9958 9.7244 12.6096 9.8875 12.2639 10.1112L10.1281 11.4735C10.0265 11.5345 9.90436 11.5754 9.7824 11.6161C9.23338 11.7584 8.66353 11.5553 8.33807 11.0877C8.15502 10.8233 8.07393 10.4766 8.13494 10.1512C8.19604 9.82607 8.37875 9.56171 8.66326 9.37876L14.2365 5.81919C14.3382 5.75824 14.4603 5.71726 14.5822 5.67661C15.1313 5.53432 15.7012 5.73816 16.0265 6.2059C16.1892 6.44995 16.2705 6.7552 16.2502 7.03989L16.2297 7.24301L16.4328 7.30454C17.226 7.54861 17.9589 7.91406 18.6301 8.40219L18.9142 8.60629L19.0158 8.28012C19.0768 8.09722 19.1177 7.93471 19.1584 7.7518C19.3414 6.6535 19.0973 5.53441 18.4465 4.6395Z" fill="black"/>
</svg>
