<svg width="24" height="24" viewBox="0 0 24 24" fill="none" xmlns="http://www.w3.org/2000/svg">
<path fill-rule="evenodd" clip-rule="evenodd" d="M12 5.00006C8.8 5.00006 6.8 6.60006 6 9.80006C7.2 8.20006 8.6 7.60006 10.2 8.00006C11.1129 8.22806 11.7653 8.89073 12.4876 9.62362C13.664 10.8178 15.0258 12.2001 18 12.2001C21.2 12.2001 23.2 10.6001 24 7.40006C22.8 9.00006 21.4 9.60006 19.8 9.20006C18.8871 8.97206 18.2347 8.30939 17.5124 7.57651C16.336 6.38228 14.9742 5.00006 12 5.00006ZM6 12.2001C2.8 12.2001 0.8 13.8001 0 17.0001C1.2 15.4001 2.6 14.8001 4.2 15.2001C5.11289 15.4285 5.76533 16.0907 6.48756 16.8236C7.664 18.0178 9.02578 19.4001 12 19.4001C15.2 19.4001 17.2 17.8001 18 14.6001C16.8 16.2001 15.4 16.8001 13.8 16.4001C12.8871 16.1721 12.2347 15.5094 11.5124 14.7765C10.336 13.5823 8.97422 12.2001 6 12.2001Z" fill="black"/>
</svg>
