<svg width="24" height="24" viewBox="0 0 24 24" fill="none" xmlns="http://www.w3.org/2000/svg">
<path d="M12 0C18.6274 0 24 5.37258 24 12C24 18.6274 18.6274 24 12 24C5.37258 24 0 18.6274 0 12C0 5.37258 5.37258 0 12 0ZM17.7129 6.80762C17.5236 6.73597 17.2031 6.84375 17.2031 6.84375C17.157 6.86032 5.83996 10.9285 5.19238 11.3799C5.0527 11.4768 5.00563 11.5333 4.98242 11.5996C4.87183 11.9158 5.20779 12.0585 5.21973 12.0635L8.14844 13.0176C8.15673 13.019 8.16548 13.0178 8.17383 13.0186L9.54688 16.8184C9.5535 16.8319 9.72816 17.1863 9.91504 17.1865C10.0287 17.1865 11.0789 16.1356 11.9111 15.2891C12.9556 16.0083 14.1211 16.8292 14.6104 17.25C14.6886 17.3259 14.7811 17.3854 14.8828 17.4248C14.9845 17.4641 15.0932 17.483 15.2021 17.4795C15.6383 17.4631 15.7662 16.992 15.7705 16.9756C15.7705 16.9756 17.8408 8.64231 17.9102 7.52539C17.917 7.41641 17.9259 7.34654 17.9268 7.27148C17.9303 7.18464 17.9218 7.09718 17.9014 7.0127C17.8909 6.96503 17.8679 6.92073 17.835 6.88477C17.8019 6.84878 17.7596 6.82207 17.7129 6.80762Z" fill="black"/>
</svg>
