<svg width="24" height="24" viewBox="0 0 24 24" fill="none" xmlns="http://www.w3.org/2000/svg">
<path fill-rule="evenodd" clip-rule="evenodd" d="M21.6562 0C22.9507 0 24 1.04933 24 2.34375V21.6562C24 22.9507 22.9507 24 21.6562 24H2.34375C1.04933 24 0 22.9507 0 21.6562V2.34375C0 1.04933 1.04933 0 2.34375 0H21.6562ZM18.9424 11.1562C18.385 11.1563 17.8571 11.2162 17.3584 11.3359C16.8596 11.4557 16.4201 11.6423 16.041 11.8965C15.6621 12.1507 15.3626 12.4747 15.1426 12.8682C14.9225 13.2617 14.8125 13.7327 14.8125 14.2803C14.8125 14.9793 15.0145 15.5756 15.418 16.0693C15.8214 16.5631 16.4342 16.981 17.2559 17.3232C17.5785 17.4552 17.8795 17.5848 18.1582 17.7119C18.4368 17.839 18.6771 17.9716 18.8799 18.1084C19.0829 18.2453 19.2439 18.3943 19.3613 18.5557C19.4785 18.7169 19.5371 18.9003 19.5371 19.1055C19.5371 19.257 19.5001 19.3978 19.4268 19.5273C19.3534 19.6568 19.2418 19.769 19.0928 19.8643C18.9437 19.9595 18.7576 20.0342 18.5352 20.0879C18.3127 20.1416 18.0521 20.1689 17.7539 20.1689C17.2455 20.1689 16.7419 20.0797 16.2432 19.9014C15.7443 19.723 15.2819 19.4546 14.8564 19.0977V21.4443C15.2379 21.6399 15.6891 21.787 16.21 21.8848C16.7308 21.9825 17.2803 22.0312 17.8574 22.0312C18.4197 22.0312 18.9539 21.9777 19.46 21.8701C19.9661 21.7626 20.4096 21.5847 20.791 21.3379C21.1725 21.091 21.4748 20.7686 21.6973 20.3701C21.9198 19.9717 22.0312 19.4792 22.0312 18.8926C22.0312 18.4673 21.9679 18.0946 21.8408 17.7744C21.7136 17.4542 21.5297 17.1693 21.29 16.9199C21.0505 16.6707 20.7635 16.4469 20.4287 16.249C20.0937 16.0511 19.7155 15.8644 19.2949 15.6885C18.9868 15.5614 18.7104 15.4371 18.4658 15.3174C18.2215 15.1977 18.0138 15.0757 17.8428 14.9512C17.6716 14.8265 17.5392 14.694 17.4463 14.5547C17.3535 14.4154 17.3066 14.2579 17.3066 14.082C17.3067 13.9208 17.3485 13.775 17.4316 13.6455C17.5147 13.5162 17.6319 13.4053 17.7832 13.3125C17.9348 13.2197 18.1209 13.147 18.3408 13.0957C18.5609 13.0444 18.8062 13.0186 19.0752 13.0186C19.2706 13.0186 19.477 13.0333 19.6943 13.0625C19.912 13.0918 20.1314 13.1372 20.3516 13.1982C20.5716 13.2594 20.7853 13.3369 20.9932 13.4297C21.201 13.5226 21.3933 13.6297 21.5693 13.752V11.5596C21.2124 11.4227 20.8223 11.3209 20.3994 11.2549C19.9764 11.1889 19.4901 11.1562 18.9424 11.1562ZM5.53125 13.3164H8.52637V21.8906H10.9111V13.3164H13.9219V11.3906H5.53125V13.3164Z" fill="#3178C6"/>
</svg>
