<svg width="24" height="24" viewBox="0 0 24 24" fill="none" xmlns="http://www.w3.org/2000/svg">
<path fill-rule="evenodd" clip-rule="evenodd" d="M17.0189 23.7742C17.3969 23.9215 17.8279 23.912 18.2094 23.7284L23.1506 21.3508C23.6698 21.101 24 20.5755 24 19.999V3.8773C24 3.30082 23.6698 2.77534 23.1506 2.5255L18.2094 0.147812C17.7087 -0.0931208 17.1227 -0.0341074 16.6832 0.285378C16.6205 0.331017 16.5607 0.381973 16.5046 0.438129L7.04522 9.06807L2.92493 5.94041C2.54136 5.64927 2.00487 5.67313 1.64864 5.99717L0.327127 7.19929C-0.108612 7.59565 -0.109112 8.28116 0.326047 8.67819L3.8993 11.9381L0.326047 15.1981C-0.109112 15.5951 -0.108612 16.2806 0.327127 16.677L1.64864 17.8791C2.00487 18.2031 2.54136 18.227 2.92493 17.9358L7.04522 14.8082L16.5046 23.4381C16.6542 23.5879 16.8299 23.7006 17.0189 23.7742ZM18.0036 6.48985L10.8262 11.9381L18.0036 17.3864V6.48985Z" fill="black"/>
</svg>
