<svg width="24" height="24" viewBox="0 0 24 24" fill="none" xmlns="http://www.w3.org/2000/svg">
<mask id="mask0_2090_614" style="mask-type:alpha" maskUnits="userSpaceOnUse" x="0" y="0" width="24" height="24">
<path fill-rule="evenodd" clip-rule="evenodd" d="M17.0189 23.7742C17.3969 23.9215 17.8279 23.912 18.2094 23.7284L23.1506 21.3508C23.6698 21.101 24 20.5755 24 19.999V3.8773C24 3.30082 23.6698 2.77534 23.1506 2.5255L18.2094 0.147812C17.7087 -0.0931208 17.1227 -0.0341074 16.6832 0.285378C16.6205 0.331017 16.5607 0.381973 16.5046 0.438129L7.04522 9.06807L2.92493 5.94041C2.54136 5.64927 2.00487 5.67313 1.64864 5.99717L0.327127 7.19929C-0.108612 7.59565 -0.109112 8.28116 0.326047 8.67819L3.8993 11.9381L0.326047 15.1981C-0.109112 15.5951 -0.108612 16.2806 0.327127 16.677L1.64864 17.8791C2.00487 18.2031 2.54136 18.227 2.92493 17.9358L7.04522 14.8082L16.5046 23.4381C16.6542 23.5879 16.8299 23.7006 17.0189 23.7742ZM18.0036 6.48985L10.8262 11.9381L18.0036 17.3864V6.48985Z" fill="white"/>
</mask>
<g mask="url(#mask0_2090_614)">
<path d="M23.1507 2.52924L18.2056 0.148287C17.6332 -0.127309 16.9491 -0.0110566 16.4999 0.438156L0.311598 15.1981C-0.123827 15.5951 -0.123327 16.2806 0.312678 16.677L1.63499 17.8791C1.99144 18.2032 2.52827 18.227 2.91205 17.9359L22.4066 3.14693C23.0606 2.65078 23.9999 3.11724 23.9999 3.93816V3.88076C23.9999 3.30452 23.6698 2.77923 23.1507 2.52924Z" fill="#0065A9"/>
<g filter="url(#filter0_d_2090_614)">
<path d="M23.1507 21.3471L18.2056 23.728C17.6332 24.0037 16.9491 23.8874 16.4999 23.4382L0.311598 8.6782C-0.123827 8.2812 -0.123327 7.59566 0.312678 7.1993L1.63499 5.99719C1.99144 5.67314 2.52827 5.64928 2.91205 5.94043L22.4066 20.7294C23.0606 21.2255 23.9999 20.7591 23.9999 19.9382V19.9956C23.9999 20.5718 23.6698 21.0971 23.1507 21.3471Z" fill="#007ACC"/>
</g>
<g filter="url(#filter1_d_2090_614)">
<path d="M18.2059 23.7285C17.6333 24.0039 16.9493 23.8874 16.5 23.4381C17.0535 23.9917 18 23.5996 18 22.8168V1.05945C18 0.276633 17.0535 -0.115406 16.5 0.438129C16.9493 -0.0111238 17.6333 -0.12754 18.2059 0.147812L23.1501 2.52551C23.6696 2.77535 24 3.30083 24 3.87731V19.999C24 20.5755 23.6696 21.101 23.1501 21.3508L18.2059 23.7285Z" fill="#1F9CF0"/>
</g>
<g style="mix-blend-mode:overlay" opacity="0.25">
<path fill-rule="evenodd" clip-rule="evenodd" d="M17.0042 23.7743C17.3822 23.9215 17.8132 23.9121 18.1947 23.7285L23.1359 21.3509C23.6552 21.1011 23.9853 20.5756 23.9853 19.9991V3.87738C23.9853 3.30087 23.6552 2.77539 23.136 2.52555L18.1947 0.147873C17.6941 -0.0930596 17.1081 -0.0340462 16.6686 0.285437C16.6058 0.331078 16.546 0.382035 16.4899 0.43819L7.03057 9.06812L2.91028 5.94049C2.52673 5.64932 1.99022 5.6732 1.63399 5.99723L0.312479 7.19934C-0.123261 7.59572 -0.12376 8.28123 0.311399 8.67824L3.88465 11.9382L0.311399 15.1982C-0.12376 15.5952 -0.123261 16.2807 0.312479 16.677L1.63399 17.8791C1.99022 18.2032 2.52673 18.227 2.91028 17.9359L7.03057 14.8082L16.4899 23.4382C16.6395 23.5879 16.8153 23.7007 17.0042 23.7743ZM17.989 6.48992L10.8115 11.9382L17.989 17.3865V6.48992Z" fill="url(#paint0_linear_2090_614)"/>
</g>
</g>
<defs>
<filter id="filter0_d_2090_614" x="-2.01465" y="3.73712" width="28.0147" height="22.139" filterUnits="userSpaceOnUse" color-interpolation-filters="sRGB">
<feFlood flood-opacity="0" result="BackgroundImageFix"/>
<feColorMatrix in="SourceAlpha" type="matrix" values="0 0 0 0 0 0 0 0 0 0 0 0 0 0 0 0 0 0 127 0" result="hardAlpha"/>
<feOffset/>
<feGaussianBlur stdDeviation="1"/>
<feColorMatrix type="matrix" values="0 0 0 0 0 0 0 0 0 0 0 0 0 0 0 0 0 0 0.25 0"/>
<feBlend mode="overlay" in2="BackgroundImageFix" result="effect1_dropShadow_2090_614"/>
<feBlend mode="normal" in="SourceGraphic" in2="effect1_dropShadow_2090_614" result="shape"/>
</filter>
<filter id="filter1_d_2090_614" x="14.5" y="-2" width="11.5" height="27.8763" filterUnits="userSpaceOnUse" color-interpolation-filters="sRGB">
<feFlood flood-opacity="0" result="BackgroundImageFix"/>
<feColorMatrix in="SourceAlpha" type="matrix" values="0 0 0 0 0 0 0 0 0 0 0 0 0 0 0 0 0 0 127 0" result="hardAlpha"/>
<feOffset/>
<feGaussianBlur stdDeviation="1"/>
<feColorMatrix type="matrix" values="0 0 0 0 0 0 0 0 0 0 0 0 0 0 0 0 0 0 0.25 0"/>
<feBlend mode="overlay" in2="BackgroundImageFix" result="effect1_dropShadow_2090_614"/>
<feBlend mode="normal" in="SourceGraphic" in2="effect1_dropShadow_2090_614" result="shape"/>
</filter>
<linearGradient id="paint0_linear_2090_614" x1="11.9853" y1="6.08991e-05" x2="11.9853" y2="23.8763" gradientUnits="userSpaceOnUse">
<stop stop-color="white"/>
<stop offset="1" stop-color="white" stop-opacity="0"/>
</linearGradient>
</defs>
</svg>
