<svg width="24" height="24" viewBox="0 0 24 24" fill="none" xmlns="http://www.w3.org/2000/svg">
<path d="M3.22286 21.7028L0 2.50285L6 0.0342773L9.80571 2.29713L13.3029 0.41142L20.6057 3.22285L16.4914 24L3.22286 21.7028Z" fill="url(#paint0_linear_2090_605)"/>
<path d="M24 8.12571L20.9143 0.48L15.2914 0L6.61716 8.33143L8.94859 19.0629L13.3029 22.1486L24 15.7714L21.36 10.8686L24 8.12571Z" fill="url(#paint1_linear_2090_605)"/>
<path d="M19.2 6.9943L21.36 10.8686L24 8.12571L22.08 3.36002L19.2 6.9943Z" fill="url(#paint2_linear_2090_605)"/>
<path d="M19.4057 4.59429H4.59429V19.4057H19.4057V4.59429Z" fill="black"/>
<path d="M11.5543 16.6286H6V17.5543H11.5543V16.6286Z" fill="white"/>
<path d="M13.2686 11.76L14.0571 10.8C14.6057 11.2457 15.1886 11.5543 15.8743 11.5543C16.4228 11.5543 16.7314 11.3486 16.7314 10.9714V10.9371C16.7314 10.5943 16.5257 10.4228 15.4971 10.1486C14.2628 9.83999 13.5086 9.49713 13.5086 8.26285V8.22856C13.5086 7.09713 14.4 6.37713 15.6343 6.37713C16.5257 6.37713 17.28 6.65142 17.8971 7.16571L17.2114 8.19428C16.6628 7.81713 16.1486 7.57713 15.6343 7.57713C15.12 7.57713 14.8457 7.81713 14.8457 8.12571V8.15999C14.8457 8.57142 15.12 8.70856 16.1486 8.98285C17.3828 9.32571 18.0686 9.77142 18.0686 10.8343V10.8686C18.0686 12.1028 17.1428 12.7886 15.84 12.7886C14.9143 12.7543 13.9886 12.4114 13.2686 11.76Z" fill="white"/>
<path d="M12.0686 6.51429L11.1428 10.08L10.1143 6.51429H9.08571L8.02285 10.08L7.09713 6.51429H5.69142L7.43999 12.6514H8.57142L9.59999 9.08571L10.5943 12.6514H11.76L13.5086 6.51429H12.0686Z" fill="white"/>
<defs>
<linearGradient id="paint0_linear_2090_605" x1="10.0105" y1="0.466918" x2="15.46" y2="23.2845" gradientUnits="userSpaceOnUse">
<stop offset="0.2849" stop-color="#00CDD7"/>
<stop offset="0.9409" stop-color="#2086D7"/>
</linearGradient>
<linearGradient id="paint1_linear_2090_605" x1="5.40592" y1="3.61646" x2="15.5819" y2="22.629" gradientUnits="userSpaceOnUse">
<stop offset="0.1398" stop-color="#FFF045"/>
<stop offset="0.3656" stop-color="#00CDD7"/>
</linearGradient>
<linearGradient id="paint2_linear_2090_605" x1="8.71201" y1="6.01644" x2="11.6598" y2="22.3502" gradientUnits="userSpaceOnUse">
<stop offset="0.2849" stop-color="#00CDD7"/>
<stop offset="0.9409" stop-color="#2086D7"/>
</linearGradient>
</defs>
</svg>
