<svg width="24" height="24" viewBox="0 0 24 24" fill="none" xmlns="http://www.w3.org/2000/svg">
<path d="M12 0C18.6255 0 24 5.37452 24 12C24 18.6255 18.6255 24 12 24C5.37452 24 0 18.6255 0 12C0 5.37452 5.37452 0 12 0ZM20.1637 15.6371C20.0803 14.9792 19.5243 14.5251 18.8108 14.5344C17.7452 14.5483 16.851 15.0996 16.2579 15.4656C16.0263 15.6093 15.827 15.7158 15.6556 15.7946C15.6927 15.2571 15.6602 14.5529 15.3822 13.7792C15.044 12.8525 14.59 12.2826 14.2656 11.9537C14.6409 11.4069 15.1552 10.61 15.3961 9.37761C15.6046 8.32587 15.5398 6.69035 15.0625 5.77297C14.9653 5.58764 14.8031 5.45328 14.5992 5.39768C14.5158 5.37452 14.3583 5.32819 14.0479 5.41622C13.5799 4.44788 13.4178 4.34595 13.2927 4.26255C13.0332 4.09575 12.7274 4.05869 12.4402 4.16525C12.0556 4.30425 11.7266 4.6749 11.4162 5.33282C11.3699 5.43012 11.3282 5.52278 11.2911 5.61544C10.7027 5.65714 9.77606 5.87027 8.99305 6.71815C8.89575 6.82471 8.70579 6.90348 8.50656 6.97761H8.5112C8.10347 7.12124 7.91815 7.45483 7.69112 8.05714C7.37606 8.90039 7.70039 9.72973 8.02008 10.2672C7.58456 10.6564 7.00541 11.2772 6.69961 12.0046C6.31969 12.9035 6.27799 13.7838 6.29189 14.261C5.96757 14.6039 5.46718 15.2479 5.41158 15.9707C5.33745 16.9807 5.70347 17.6664 5.86564 17.9166C5.91197 17.9907 5.96293 18.051 6.01853 18.1112C6 18.2363 5.99537 18.3707 6.02317 18.5097C6.0834 18.834 6.28726 19.0981 6.59768 19.2649C7.20927 19.5892 8.06178 19.7282 8.71969 19.3992C8.95598 19.6494 9.38687 19.8903 10.1699 19.8903H10.2162C10.4154 19.8903 12.9452 19.756 13.6819 19.5753C14.0108 19.4965 14.2378 19.3575 14.3861 19.2324C14.8587 19.0842 16.1653 18.6394 17.3977 17.8425C18.2687 17.2772 18.5699 17.1568 19.2185 16.9992C19.8486 16.8463 20.2425 16.2718 20.1637 15.6371ZM19.061 16.3181C18.3197 16.4942 17.9444 16.6564 17.027 17.2541C15.5954 18.1807 14.0293 18.6116 14.0293 18.6116C14.0293 18.6116 13.8996 18.8062 13.5243 18.8942C12.8757 19.0517 10.434 19.1861 10.2116 19.1907C9.6139 19.1954 9.24788 19.0378 9.14595 18.7923C8.83552 18.051 9.59073 17.7266 9.59073 17.7266C9.59073 17.7266 9.42394 17.6247 9.32664 17.532C9.23861 17.444 9.14595 17.268 9.11815 17.3328C9.00232 17.6154 8.94209 18.3058 8.63166 18.6162C8.20541 19.0471 7.39923 18.9035 6.92201 18.6533C6.39846 18.3753 6.95907 17.722 6.95907 17.722C6.95907 17.722 6.67645 17.8888 6.44942 17.5459C6.24556 17.2309 6.0556 16.6934 6.10656 16.0309C6.16216 15.2757 7.00541 14.5436 7.00541 14.5436C7.00541 14.5436 6.85714 13.427 7.34363 12.2826C7.78378 11.2402 8.96988 10.4015 8.96988 10.4015C8.96988 10.4015 7.97375 9.29884 8.3444 8.30734C8.58533 7.65869 8.68263 7.66332 8.76139 7.63552C9.03938 7.52896 9.30811 7.41313 9.50734 7.19537C10.5035 6.12046 11.773 6.32432 11.773 6.32432C11.773 6.32432 12.3753 4.49421 12.9313 4.85097C13.1027 4.96216 13.7189 6.33359 13.7189 6.33359C13.7189 6.33359 14.3768 5.94903 14.451 6.09266C14.8494 6.86641 14.8958 8.3444 14.7197 9.24324C14.4232 10.7259 13.6819 11.5228 13.3853 12.0232C13.3158 12.139 14.1822 12.505 14.729 14.0201C15.234 15.4054 14.7846 16.5683 14.8633 16.6981C14.8772 16.7212 14.8819 16.7305 14.8819 16.7305C14.8819 16.7305 15.461 16.7768 16.6239 16.0587C17.2448 15.6741 17.9815 15.2432 18.8201 15.234C19.6309 15.2201 19.6726 16.1699 19.061 16.3181Z" fill="black"/>
</svg>
