<svg width="24" height="24" viewBox="0 0 24 24" fill="none" xmlns="http://www.w3.org/2000/svg">
<path fill-rule="evenodd" clip-rule="evenodd" d="M12 4C12.0206 4 19.5073 4.00091 21.376 4.50195C22.4092 4.77854 23.2215 5.59077 23.498 6.62402C23.9977 8.49488 24 12.4004 24 12.4004C24 12.4004 23.9998 16.3057 23.498 18.1768C23.2215 19.21 22.4092 20.0223 21.376 20.2988C19.5072 20.7999 12.0206 20.8008 12 20.8008C12 20.8008 4.49551 20.8006 2.62402 20.2988C1.59078 20.0223 0.778542 19.21 0.501953 18.1768C0.000236571 16.3057 0 12.4004 0 12.4004C0 12.4004 0.000278652 8.49488 0.501953 6.62402C0.778542 5.59077 1.59078 4.77854 2.62402 4.50195C4.4955 4.00023 12 4 12 4ZM9.59766 16L15.833 12.4004L9.59766 8.80078V16Z" fill="black"/>
</svg>
