<svg width="96" height="96" viewBox="0 0 96 96" fill="none" xmlns="http://www.w3.org/2000/svg">
<path fill-rule="evenodd" clip-rule="evenodd" d="M15.3086 36C15.4736 36.0001 24.9039 36.0061 27.2695 36.6406C28.5863 36.994 29.6238 38.0306 29.9766 39.3477C30.6068 41.7086 30.6132 46.6079 30.6133 46.7148C30.6133 46.7148 30.6164 51.6989 29.9766 54.0859C29.6238 55.4029 28.5863 56.4397 27.2695 56.793C24.9039 57.4275 15.4736 57.4297 15.3086 57.4297C15.3086 57.4297 5.7375 57.4326 3.34766 56.793C2.03006 56.4403 0.993783 55.4033 0.640625 54.0859C0.0006724 51.6991 0 46.7148 0 46.7148C8.04808e-05 46.6079 0.00769663 41.7084 0.640625 39.3477C0.99373 38.0301 2.02999 36.9933 3.34766 36.6406C5.73734 36.001 15.3086 36 15.3086 36ZM12.2422 51.3086L20.1953 46.7148L12.2422 42.125V51.3086Z" fill="black"/>
<path d="M60.8828 55.8906H58.5195L58.2539 54.2461H58.1914C57.5492 55.485 56.5844 56.1084 55.3008 56.1094C54.4115 56.1094 53.7515 55.816 53.3281 55.2344C52.9047 54.6496 52.6953 53.736 52.6953 52.4961V42.4688H55.7148V52.3203C55.7149 52.92 55.7791 53.347 55.9102 53.6016C56.0412 53.8558 56.263 53.9844 56.5703 53.9844C56.831 53.9838 57.0835 53.9023 57.3242 53.7422C57.5653 53.581 57.7452 53.3752 57.8633 53.1289V42.4648H60.8828V55.8906Z" fill="black"/>
<path d="M76.3789 55.8906H74.0156L73.7539 54.2461H73.6875C73.0454 55.4851 72.0808 56.1085 70.7969 56.1094C69.9075 56.1094 69.2476 55.8161 68.8242 55.2344C68.4008 54.6496 68.1914 53.736 68.1914 52.4961V42.4688H71.2109V52.3203C71.211 52.92 71.2791 53.347 71.4102 53.6016C71.5413 53.8549 71.7596 53.9844 72.0664 53.9844C72.327 53.9839 72.5795 53.9023 72.8203 53.7422C73.0614 53.581 73.2413 53.3752 73.3594 53.1289V42.4648H76.3789V55.8906Z" fill="black"/>
<path fill-rule="evenodd" clip-rule="evenodd" d="M47.0117 42.207C48.0033 42.2074 48.7992 42.4124 49.3984 42.8203C49.9944 43.2286 50.4341 43.8687 50.7109 44.7344C50.9879 45.6034 51.1249 46.7603 51.125 48.2031V50.1523C51.125 51.583 50.9881 52.7348 50.7188 53.6016C50.4492 54.4691 50.0097 55.1035 49.4062 55.5039C48.8019 55.9043 47.98 56.1052 46.9453 56.1055C45.8775 56.1079 45.0423 55.9038 44.4375 55.4961C43.8327 55.0878 43.4016 54.4517 43.1445 53.5898C42.8901 52.728 42.7617 51.5836 42.7617 50.1523V48.2031C42.7618 46.7599 42.907 45.5968 43.1992 44.7227C43.4916 43.8492 43.9509 43.209 44.5703 42.8086C45.19 42.4091 46.0051 42.207 47.0117 42.207ZM46.9414 44.2891C46.5344 44.2895 46.2443 44.5124 46.0781 44.957C45.9097 45.4029 45.8282 46.1057 45.8281 47.0664V51.25C45.8282 52.242 45.9051 52.9587 46.0664 53.3945C46.2276 53.8322 46.5189 54.0503 46.9414 54.0508C47.3633 54.0501 47.6594 53.8312 47.8281 53.3945C47.994 52.9561 48.0819 52.2411 48.082 51.25V47.0664C48.0819 46.1052 47.9967 45.4003 47.8281 44.957C47.6595 44.5117 47.3638 44.2897 46.9414 44.2891Z" fill="black"/>
<path fill-rule="evenodd" clip-rule="evenodd" d="M92.1016 42.2109C93.1363 42.2112 93.9342 42.401 94.4883 42.7812C95.0419 43.1617 95.4335 43.7517 95.6602 44.5547C95.8869 45.3582 95.9999 46.4676 96 47.8828V50.1836H90.9414V50.8633C90.9414 51.7244 90.9652 52.3698 91.0156 52.8008C91.0659 53.2308 91.1713 53.543 91.332 53.7422C91.493 53.9381 91.7402 54.0387 92.0742 54.0391C92.5243 54.0386 92.8417 53.8615 93.0078 53.5117C93.1759 53.1614 93.2661 52.5758 93.2812 51.7617L95.8867 51.9141C95.9018 52.0297 95.9101 52.1912 95.9102 52.3945C95.9102 53.6335 95.5675 54.5634 94.8906 55.1758C94.2131 55.7875 93.2503 56.0934 92.0117 56.0938C90.5238 56.0935 89.4801 55.6291 88.8828 54.6953C88.2831 53.7604 87.9844 52.3149 87.9844 50.3594V48.0156C87.9845 46.0026 88.2943 44.5288 88.9141 43.6016C89.5342 42.6751 90.5979 42.2109 92.1016 42.2109ZM92.0352 44.25C91.7135 44.2525 91.4755 44.351 91.3242 44.5391C91.1706 44.7279 91.0686 45.0385 91.0156 45.4688C90.9653 45.8996 90.9414 46.5539 90.9414 47.4297V48.3906H93.1484V47.4297C93.1484 46.5691 93.1203 45.9146 93.0625 45.4688C93.0046 45.0234 92.8957 44.7074 92.7422 44.5234C92.5891 44.3438 92.3523 44.2507 92.0352 44.25Z" fill="black"/>
<path fill-rule="evenodd" clip-rule="evenodd" d="M81.1094 43.9141H81.1328C81.3948 43.4033 81.7693 42.9905 82.25 42.6758C82.7307 42.3616 83.2511 42.2032 83.8047 42.2031C84.5195 42.2035 85.0843 42.3932 85.4922 42.7734C85.8997 43.154 86.1951 43.7675 86.3789 44.6133C86.5603 45.4599 86.6523 46.6378 86.6523 48.1367V50.2617C86.6523 52.2602 86.41 53.7293 85.9297 54.6719C85.4489 55.6109 84.6946 56.0848 83.6758 56.0859C83.1072 56.0859 82.5867 55.9526 82.1211 55.6914C81.6549 55.4267 81.3008 55.0707 81.0664 54.6172H81.0039L80.6953 55.8867H78.1992V36.8398H81.1094V43.9141ZM82.4453 44.3555C82.1567 44.3558 81.8829 44.4701 81.6367 44.7031C81.3877 44.9372 81.2101 45.2368 81.1094 45.6016V53.2188C81.2403 53.4503 81.4138 53.6263 81.625 53.7422C81.8364 53.8602 82.0674 53.9219 82.3164 53.9219C82.6351 53.9212 82.8935 53.8039 83.082 53.5703C83.2729 53.3383 83.4079 52.94 83.4883 52.3867C83.5687 51.8326 83.6055 51.0661 83.6055 50.0898V48.3594C83.6055 47.3095 83.5732 46.499 83.5078 45.9297C83.4422 45.3607 83.3248 44.9567 83.1562 44.7148C82.9902 44.4759 82.7519 44.356 82.4453 44.3555Z" fill="black"/>
<path d="M69.0898 39.9492H66.0898V55.8906H63.1367V39.9492H60.1367V37.5195H69.0898V39.9492Z" fill="black"/>
<path d="M37.8438 43.1484C38.1509 44.5332 38.3773 45.7142 38.5234 46.6914H38.6094C38.7103 45.9907 38.9392 44.8166 39.2891 43.168L40.5352 37.5195H43.5352L40.0547 49.9336V55.8867H37.0781V49.9336L33.6406 37.5195H36.6406L37.8438 43.1484Z" fill="black"/>
</svg>
